<svg xmlns="http://www.w3.org/2000/svg" viewBox="0 -0.5 96 96" shape-rendering="crispEdges">
<metadata>Made with Pixels to Svg https://codepen.io/shshaw/pen/XbxvNj</metadata>
<path stroke="#3a4a21" d="M54 24h1M53 25h1M55 26h1M55 27h1M65 27h1M44 28h1M54 28h1M57 28h1M62 28h1M43 29h1M53 29h1M58 29h1M66 29h1M45 30h2M52 30h1M64 30h2M68 30h1M45 31h1M61 31h3M68 31h1M42 32h1M45 32h1M45 33h1M51 33h2M64 33h1M66 33h1M31 34h1M43 34h2M50 34h3M56 34h1M59 34h2M63 34h1M65 34h1M67 34h2M42 35h2M47 35h5M57 35h1M60 35h1M62 35h1M64 35h1M66 35h1M68 35h1M42 36h1M48 36h4M56 36h6M65 36h1M67 36h1M69 36h1M35 37h1M49 37h3M57 37h5M63 37h1M68 37h1M38 38h1M47 38h1M50 38h2M53 38h1M56 38h1M33 39h1M48 39h1M50 39h3M55 39h4M60 39h1M54 40h6M46 41h1M52 41h9M62 41h1M68 41h1M52 42h10M63 42h1M68 42h2M22 43h2M31 43h1M50 43h13M64 43h1M69 43h2M31 44h1M49 44h1M51 44h11M63 44h1M65 44h1M67 44h6M30 45h2M48 45h2M51 45h12M64 45h1M72 45h2M21 46h1M30 46h3M45 46h3M52 46h12M66 46h1M30 47h4M43 47h3M52 47h5M59 47h4M64 47h1M67 47h3M26 48h1M31 48h1M41 48h4M46 48h1M49 48h1M52 48h4M60 48h4M70 48h2M26 49h1M41 49h3M51 49h2M55 49h1M58 49h2M61 49h2M68 49h5M27 50h1M41 50h1M51 50h1M54 50h1M57 50h3M67 50h6M27 51h3M37 51h1M41 51h1M50 51h1M53 51h2M56 51h4M27 52h3M37 52h1M39 52h1M48 52h2M51 52h9M61 52h4M26 53h3M48 53h2M51 53h3M55 53h5M61 53h3M65 53h1M22 54h6M47 54h2M50 54h3M54 54h5M60 54h5M66 54h1M74 54h1M23 55h1M25 55h1M32 55h1M47 55h2M50 55h1M53 55h6M60 55h4M65 55h1M67 55h1M69 55h1M73 55h2M30 56h2M37 56h3M43 56h2M47 56h1M49 56h1M51 56h7M64 56h1M66 56h1M68 56h1M71 56h4M28 57h3M35 57h3M45 57h3M49 57h1M51 57h9M65 57h4M71 57h4M25 58h2M33 58h3M42 58h2M51 58h11M66 58h3M71 58h4M25 59h9M41 59h4M48 59h3M53 59h9M66 59h4M72 59h2M26 60h5M39 60h2M43 60h1M46 60h2M52 60h1M54 60h3M58 60h3M65 60h1M67 60h4M72 60h2M33 61h3M45 61h2M53 61h1M55 61h1M57 61h3M64 61h1M66 61h1M72 61h1M30 62h7M45 62h1M53 62h1M55 62h2M58 62h1M40 63h1M44 63h1M52 63h2M57 63h1M60 63h2M66 63h1M71 63h3M26 64h1M31 64h1M37 64h1M50 64h3M56 64h1M63 64h1M65 64h9M28 65h7M52 65h1M63 65h1M69 65h2M73 65h1M26 66h1M28 66h2M33 66h2M50 66h2M66 66h1M44 67h1M48 67h5M46 68h3M51 68h2M46 69h2M52 69h2" />
<path stroke="#000000" d="M55 24h2M57 25h1M53 26h1M57 26h1M52 27h1M57 27h1M66 27h1M45 28h2M51 28h1M58 28h1M63 28h2M67 28h1M47 29h4M59 29h3M68 29h1M43 30h1M50 30h2M40 31h2M43 31h1M39 32h1M43 32h1M55 32h2M68 32h1M39 33h1M42 33h1M54 33h1M57 33h1M59 33h2M68 33h1M32 34h2M39 34h3M53 34h1M58 34h1M61 34h1M30 35h1M34 35h1M38 35h2M44 35h3M52 35h1M58 35h2M61 35h1M69 35h1M30 36h1M35 36h1M37 36h3M43 36h1M47 36h1M52 36h1M62 36h2M70 36h2M29 37h1M34 37h1M36 37h4M42 37h1M48 37h1M52 37h5M62 37h1M64 37h4M69 37h1M72 37h1M29 38h1M33 38h1M39 38h4M46 38h1M49 38h1M52 38h1M57 38h8M68 38h1M72 38h1M29 39h1M41 39h1M46 39h2M49 39h1M59 39h1M68 39h1M71 39h1M28 40h1M32 40h1M41 40h1M46 40h3M50 40h2M60 40h3M68 40h1M70 40h1M28 41h1M31 41h1M40 41h1M47 41h2M50 41h2M67 41h1M70 41h1M27 42h1M31 42h1M50 42h2M67 42h1M70 42h1M27 43h1M30 43h1M39 43h1M48 43h2M66 43h1M71 43h2M22 44h1M24 44h1M27 44h1M30 44h1M38 44h1M48 44h1M50 44h1M66 44h1M73 44h2M22 45h1M25 45h2M29 45h1M36 45h1M45 45h3M50 45h1M65 45h1M67 45h5M74 45h1M25 46h2M29 46h1M35 46h1M43 46h2M51 46h1M65 46h1M70 46h5M21 47h1M26 47h1M29 47h1M34 47h1M41 47h2M51 47h1M57 47h2M66 47h1M70 47h4M21 48h1M27 48h4M32 48h2M40 48h1M47 48h2M51 48h1M56 48h1M59 48h1M66 48h4M72 48h1M21 49h1M27 49h5M39 49h2M44 49h2M50 49h1M53 49h2M60 49h1M66 49h2M73 49h1M21 50h1M28 50h3M37 50h2M40 50h1M42 50h2M50 50h1M52 50h2M60 50h1M65 50h2M73 50h1M21 51h1M36 51h1M40 51h1M51 51h2M60 51h5M66 51h8M22 52h1M35 52h2M50 52h1M60 52h1M74 52h1M22 53h1M29 53h1M34 53h1M36 53h3M50 53h1M54 53h1M60 53h1M74 53h1M28 54h1M32 54h2M49 54h1M53 54h1M59 54h1M73 54h1M75 54h1M24 55h1M30 55h2M49 55h1M51 55h2M59 55h1M71 55h2M75 55h1M23 56h1M28 56h2M40 56h3M48 56h1M50 56h1M58 56h6M70 56h1M75 56h1M23 57h1M27 57h1M38 57h7M48 57h1M50 57h1M60 57h5M69 57h2M75 57h1M23 58h1M27 58h2M36 58h2M39 58h3M44 58h7M62 58h4M69 58h2M75 58h1M24 59h1M34 59h2M39 59h2M45 59h3M51 59h2M62 59h4M70 59h2M74 59h1M25 60h1M31 60h5M38 60h1M41 60h2M44 60h2M53 60h1M57 60h1M61 60h4M66 60h1M71 60h1M74 60h1M26 61h7M36 61h1M38 61h7M54 61h1M56 61h1M60 61h4M65 61h1M67 61h5M73 61h1M26 62h1M29 62h1M37 62h8M54 62h1M57 62h1M59 62h15M25 63h1M30 63h10M43 63h1M54 63h3M58 63h2M62 63h4M67 63h4M74 63h1M25 64h1M32 64h5M43 64h7M53 64h3M57 64h1M64 64h1M74 64h1M24 65h1M27 65h1M35 65h1M43 65h1M50 65h2M53 65h4M64 65h1M67 65h2M71 65h2M74 65h1M23 66h1M27 66h1M30 66h1M32 66h1M35 66h1M42 66h1M52 66h3M63 66h1M67 66h3M73 66h1M24 67h6M33 67h2M42 67h2M53 67h1M64 67h3M69 67h2M73 67h1M29 68h1M32 68h1M42 68h1M45 68h1M49 68h2M53 68h1M71 68h2M30 69h2M41 69h1M45 69h1M48 69h1M51 69h1M41 70h1M44 70h4M51 70h2M41 71h3M48 71h1M51 71h1M49 72h3" />
<path stroke="#ffffff" d="M54 25h3M54 26h1M53 27h2M52 28h2M65 28h2M44 29h3M51 29h2M62 29h4M44 30h1M61 30h3M44 31h1M44 32h1M43 33h2M42 34h1M40 35h1M34 36h1M40 36h1M33 37h1M44 37h1M70 37h1M32 38h1M43 38h2M65 38h3M69 38h1M32 39h1M42 39h3M61 39h5M31 40h1M42 40h1M30 41h1M41 41h1M30 42h1M40 42h2M29 43h1M40 43h1M23 44h1M28 44h2M39 44h1M23 45h1M28 45h1M37 45h2M22 46h2M36 46h2M22 47h2M35 47h1M22 48h2M34 48h1M22 49h1M32 49h3M39 50h1M38 51h2M38 52h1M35 53h1M44 53h1M43 54h4M42 55h5M24 56h1M45 56h1M24 57h1M38 59h1M36 60h2M37 61h1M48 61h3M47 62h4M27 63h3M28 64h1M25 65h1M45 65h3M65 65h1M24 66h2M44 66h3M64 66h2M71 66h1M30 67h3M71 67h1M30 68h2M43 68h2M42 69h3M49 69h2M42 70h2M48 70h3M49 71h2" />
<path stroke="#7b5a8c" d="M56 26h1M56 27h1M55 28h2M54 29h4M67 29h1M47 30h3M53 30h8M66 30h2M46 31h15M64 31h4M40 32h2M46 32h9M57 32h11M40 33h2M46 33h5M53 33h1M55 33h2M58 33h1M61 33h3M65 33h1M67 33h1M45 34h5M54 34h2M57 34h1M62 34h1M64 34h1M66 34h1M31 35h3M41 35h1M53 35h4M63 35h1M65 35h1M67 35h1M31 36h3M41 36h1M44 36h3M53 36h3M64 36h1M66 36h1M68 36h1M30 37h3M40 37h2M43 37h1M45 37h3M71 37h1M30 38h2M34 38h4M45 38h1M48 38h1M54 38h2M70 38h2M30 39h2M34 39h7M45 39h1M53 39h2M66 39h2M69 39h2M29 40h2M33 40h8M43 40h3M49 40h1M52 40h2M63 40h5M69 40h1M29 41h1M32 41h8M42 41h4M49 41h1M61 41h1M63 41h4M69 41h1M28 42h2M32 42h8M42 42h8M62 42h1M64 42h3M28 43h1M32 43h7M41 43h7M63 43h1M65 43h1M67 43h2M32 44h6M40 44h8M62 44h1M64 44h1M24 45h1M27 45h1M32 45h4M39 45h6M63 45h1M66 45h1M24 46h1M27 46h2M33 46h2M38 46h5M48 46h3M64 46h1M67 46h3M24 47h2M27 47h2M36 47h5M46 47h5M63 47h1M65 47h1M24 48h2M35 48h5M45 48h1M50 48h1M57 48h2M64 48h2M23 49h3M35 49h4M46 49h4M56 49h2M63 49h3M22 50h5M31 50h6M44 50h6M55 50h2M61 50h4M22 51h5M30 51h6M42 51h8M55 51h1M65 51h1M23 52h4M30 52h5M40 52h8M65 52h9M23 53h3M30 53h4M39 53h5M45 53h3M64 53h1M66 53h8M29 54h3M34 54h9M65 54h1M67 54h6M26 55h4M33 55h9M64 55h1M66 55h1M68 55h1M70 55h1M25 56h3M32 56h5M46 56h1M65 56h1M67 56h1M69 56h1M25 57h2M31 57h4M24 58h1M29 58h4M38 58h1M36 59h2M48 60h4M47 61h1M51 61h2M27 62h2M46 62h1M51 62h2M26 63h1M45 63h7M27 64h1M29 64h2M38 64h1M26 65h1M44 65h1M48 65h2M66 65h1M31 66h1M43 66h1M47 66h3M70 66h1M72 66h1M45 67h3M72 67h1" />
</svg>