<svg xmlns="http://www.w3.org/2000/svg" viewBox="0 -0.5 96 96" shape-rendering="crispEdges">
<metadata>Made with Pixels to Svg https://codepen.io/shshaw/pen/XbxvNj</metadata>
<path stroke="#6b52e6" d="M35 26h1M38 26h1M33 27h1M40 27h1M60 29h1M43 30h1M64 30h1M30 31h1M65 31h1M45 33h1M55 33h1M66 33h1M28 34h1M46 35h1M54 35h1M27 37h1M47 37h1M53 38h1M26 39h1M48 40h1M25 41h1M49 42h1M51 46h1M51 47h1M44 49h7M41 50h4M48 50h7M38 51h6M47 51h10M36 52h23M35 53h3M40 53h1M42 53h18M34 54h2M43 54h9M56 54h4M34 55h1M37 55h1M41 55h1M43 55h7M57 55h4M33 56h2M39 56h1M43 56h6M50 56h1M55 56h1M58 56h3M33 57h2M42 57h7M52 57h1M58 57h4M33 58h3M40 58h4M45 58h5M57 58h5M34 59h10M45 59h6M55 59h6M34 60h27M32 61h2M35 61h25M63 61h3M30 62h3M36 62h23M60 62h2M65 62h2M38 63h19M61 63h3M41 64h14M45 65h6M40 66h4M53 66h3M40 67h3M53 67h3M53 68h3" />
<path stroke="#000000" d="M36 26h2M34 27h2M38 27h2M32 28h2M40 28h2M60 28h3M31 29h2M41 29h2M58 29h2M63 29h2M30 30h2M42 30h1M57 30h1M65 30h1M31 31h1M43 31h1M56 31h1M66 31h1M29 32h2M44 32h1M55 32h1M66 32h1M29 33h2M44 33h1M54 33h1M67 33h1M30 34h1M45 34h1M54 34h1M67 34h1M28 35h1M30 35h2M45 35h1M53 35h1M67 35h1M28 36h1M31 36h1M46 36h1M53 36h1M67 36h2M32 37h1M46 37h1M53 37h1M67 37h2M27 38h1M33 38h1M47 38h1M52 38h1M66 38h1M68 38h1M34 39h1M47 39h1M52 39h1M66 39h1M68 39h1M26 40h1M34 40h1M47 40h1M52 40h1M66 40h1M68 40h1M34 41h1M48 41h1M52 41h1M65 41h1M68 41h1M25 42h1M35 42h1M48 42h1M52 42h1M64 42h1M69 42h1M25 43h1M35 43h1M48 43h2M51 43h2M63 43h1M69 43h1M25 44h1M35 44h1M49 44h1M51 44h2M63 44h1M70 44h1M25 45h1M35 45h1M49 45h1M51 45h2M62 45h1M70 45h1M26 46h1M35 46h1M49 46h2M52 46h1M62 46h1M71 46h1M26 47h1M34 47h1M49 47h2M52 47h1M61 47h1M71 47h1M27 48h1M34 48h1M44 48h9M61 48h1M71 48h1M28 49h2M32 49h2M41 49h3M51 49h4M61 49h1M71 49h1M30 50h2M38 50h3M55 50h2M61 50h1M71 50h1M36 51h2M57 51h2M61 51h1M70 51h1M35 52h1M59 52h1M62 52h1M70 52h1M34 53h1M60 53h1M62 53h1M69 53h1M33 54h1M39 54h1M54 54h1M60 54h1M63 54h2M67 54h2M33 55h1M38 55h3M53 55h1M61 55h1M65 55h2M32 56h1M36 56h3M51 56h4M61 56h1M32 57h1M38 57h1M53 57h1M55 57h2M62 57h1M32 58h1M38 58h1M44 58h1M52 58h1M62 58h1M33 59h1M44 59h1M52 59h1M61 59h1M30 60h4M61 60h8M27 61h3M34 61h1M60 61h1M69 61h2M26 62h1M35 62h1M59 62h1M71 62h1M26 63h1M34 63h1M36 63h2M57 63h2M71 63h1M27 64h1M32 64h2M38 64h3M55 64h2M58 64h2M70 64h1M28 65h4M40 65h5M51 65h5M60 65h3M68 65h2M39 66h1M44 66h7M52 66h1M56 66h1M63 66h5M39 67h1M43 67h1M52 67h1M56 67h1M40 68h3M52 68h1M56 68h1M53 69h3" />
<path stroke="#deb53a" d="M29 34h1M29 35h1M29 36h2M28 37h4M28 38h5M67 38h1M27 39h7M67 39h1M27 40h7M67 40h1M26 41h1M29 41h5M66 41h2M30 42h5M65 42h4M30 43h5M64 43h5M26 44h1M29 44h6M64 44h6M26 45h9M63 45h7M27 46h8M63 46h8M27 47h7M62 47h2M66 47h5M28 48h6M62 48h1M67 48h4M30 49h2M62 49h1M67 49h4M62 50h2M66 50h5M62 51h8M63 52h7M38 53h2M41 53h1M63 53h6M36 54h3M40 54h3M52 54h2M55 54h1M65 54h2M35 55h2M42 55h1M50 55h3M54 55h3M35 56h1M40 56h3M49 56h1M56 56h2M35 57h3M39 57h3M49 57h3M54 57h1M57 57h1M36 58h2M39 58h1M50 58h2M53 58h4M51 59h1M53 59h2M30 61h2M61 61h2M66 61h3M27 62h3M33 62h2M62 62h3M67 62h4M27 63h7M59 63h2M64 63h7M28 64h4M60 64h10M63 65h5" />
<path stroke="#ffffff" d="M27 41h2M26 42h4M26 43h4M27 44h2M64 47h2M63 48h4M63 49h4M45 50h3M64 50h2M44 51h3" />
</svg>