<svg xmlns="http://www.w3.org/2000/svg" viewBox="0 -0.5 96 96" shape-rendering="crispEdges">
<metadata>Made with Pixels to Svg https://codepen.io/shshaw/pen/XbxvNj</metadata>
<path stroke="#6b52e6" d="M32 27h1M46 27h1M30 28h1M35 28h3M45 28h1M31 29h1M38 29h2M28 30h1M39 30h2M26 31h1M39 31h2M40 32h2M24 33h1M40 33h2M40 34h3M40 35h3M40 36h4M68 36h2M39 37h8M68 37h2M37 38h13M67 38h3M35 39h17M67 39h3M34 40h20M66 40h4M33 41h22M64 41h1M66 41h3M34 42h1M36 42h20M66 42h3M33 43h1M35 43h7M45 43h12M65 43h4M29 44h1M32 44h1M34 44h1M36 44h4M47 44h10M63 44h1M65 44h4M33 45h1M35 45h3M43 45h1M48 45h10M65 45h4M28 46h2M32 46h5M44 46h1M48 46h11M64 46h4M29 47h7M49 47h11M63 47h5M30 48h4M39 48h1M45 48h1M49 48h12M63 48h5M41 49h1M45 49h1M48 49h13M63 49h5M41 50h1M44 50h1M48 50h14M63 50h5M71 50h1M42 51h2M47 51h16M65 51h3M45 52h23M43 53h25M40 54h28M28 55h1M36 55h29M66 55h2M31 56h20M52 56h12M65 56h2M33 57h18M54 57h10M36 58h14M51 58h1M59 58h4M38 59h11M52 59h2M59 59h1M62 59h1M31 60h1M37 60h1M39 60h11M53 60h3M35 61h2M40 61h11M28 62h1M34 62h2M42 62h10M69 62h1M41 63h1M43 63h1M45 63h8M42 64h1M44 64h1M46 64h9M43 65h1M45 65h1M47 65h11M46 66h1M48 66h8M47 67h6" />
<path stroke="#000000" d="M33 27h5M47 27h2M31 28h4M38 28h2M49 28h1M29 29h2M35 29h3M40 29h1M43 29h4M49 29h1M29 30h1M38 30h1M41 30h3M45 30h1M49 30h1M27 31h3M38 31h1M41 31h2M46 31h3M25 32h1M30 32h1M39 32h1M42 32h1M31 33h1M39 33h1M42 33h2M24 34h1M31 34h1M39 34h1M43 34h1M24 35h1M31 35h1M39 35h1M43 35h1M68 35h2M24 36h1M31 36h1M39 36h1M44 36h3M67 36h1M70 36h1M25 37h1M30 37h1M37 37h2M47 37h3M66 37h1M70 37h1M26 38h4M35 38h2M50 38h2M66 38h1M70 38h1M33 39h2M52 39h2M65 39h1M70 39h1M32 40h1M54 40h1M65 40h1M70 40h1M31 41h1M55 41h1M69 41h1M30 42h1M56 42h1M64 42h1M69 42h1M29 43h1M57 43h1M64 43h1M69 43h1M28 44h1M57 44h2M69 44h1M28 45h1M42 45h1M58 45h1M63 45h1M69 45h1M27 46h1M41 46h1M59 46h1M63 46h1M68 46h1M27 47h1M40 47h1M42 47h1M60 47h1M62 47h1M68 47h1M26 48h1M40 48h3M61 48h2M68 48h1M26 49h1M39 49h2M42 49h1M61 49h2M68 49h1M26 50h1M39 50h2M42 50h1M62 50h1M68 50h1M70 50h1M26 51h1M40 51h2M63 51h2M68 51h2M71 51h1M26 52h1M68 52h1M71 52h1M27 53h1M40 53h1M71 53h1M27 54h2M36 54h4M70 54h1M29 55h7M65 55h1M69 55h2M30 56h1M51 56h1M64 56h1M71 56h1M31 57h2M52 57h2M64 57h1M71 57h1M33 58h3M54 58h5M63 58h3M70 58h1M34 59h4M49 59h1M60 59h2M63 59h1M66 59h1M69 59h1M32 60h2M38 60h1M50 60h1M62 60h1M67 60h1M69 60h1M29 61h2M39 61h1M51 61h1M63 61h1M67 61h1M69 61h1M38 62h3M52 62h1M63 62h1M68 62h1M28 63h1M36 63h2M40 63h1M53 63h2M63 63h1M29 64h1M34 64h2M41 64h1M55 64h3M62 64h1M30 65h4M42 65h1M58 65h4M43 66h2M56 66h2M45 67h2M53 67h3M47 68h6" />
<path stroke="#efc573" d="M46 28h3M47 29h2M46 30h3M26 32h4M25 33h1M28 33h3M25 34h1M28 34h3M25 35h6M25 36h6M26 37h4M42 43h3M40 44h7M38 45h4M44 45h4M37 46h4M45 46h3M28 47h1M36 47h4M45 47h4M27 48h3M34 48h5M46 48h3M27 49h12M46 49h2M27 50h12M45 50h3M27 51h1M30 51h10M44 51h3M70 51h1M27 52h1M31 52h14M69 52h2M28 53h1M31 53h9M41 53h2M68 53h3M29 54h7M68 54h2M68 55h1M67 56h4M65 57h6M66 58h4M67 59h2M68 60h1M68 61h1" />
<path stroke="#ffffff" d="M26 33h2M26 34h2M67 37h1M66 39h1M33 40h1M32 41h1M65 41h1M31 42h3M35 42h1M65 42h1M30 43h3M34 43h1M30 44h2M33 44h1M35 44h1M64 44h1M29 45h4M34 45h1M64 45h1M30 46h2M42 46h2M41 47h1M43 47h2M43 48h2M43 49h2M43 50h1M28 51h2M28 52h3M29 53h2M51 57h1M50 58h1M52 58h2M50 59h2M54 59h5M34 60h3M51 60h2M56 60h6M31 61h4M37 61h2M52 61h11M29 62h5M36 62h2M41 62h1M53 62h10M29 63h7M42 63h1M44 63h1M55 63h8M30 64h4M43 64h1M45 64h1M58 64h4M44 65h1M46 65h1M45 66h1M47 66h1" />
</svg>