<svg xmlns="http://www.w3.org/2000/svg" viewBox="0 -0.5 96 96" shape-rendering="crispEdges">
<metadata>Made with Pixels to Svg https://codepen.io/shshaw/pen/XbxvNj</metadata>
<path stroke="#ff6300" d="M57 26h2M57 27h2M62 27h1M29 28h2M48 28h4M64 28h1M29 29h2M35 29h1M45 29h9M42 30h1M44 30h1M47 30h1M51 30h5M27 31h1M39 31h1M41 31h1M43 31h3M48 31h3M53 31h3M38 32h3M42 32h1M45 32h3M50 32h3M55 32h2M32 33h2M38 33h5M44 33h1M46 33h1M48 33h1M51 33h4M56 33h1M32 34h2M37 34h1M40 34h2M43 34h1M45 34h1M47 34h1M49 34h1M51 34h1M53 34h3M58 34h1M37 35h1M40 35h2M43 35h2M46 35h1M48 35h1M50 35h6M57 35h1M59 35h1M63 35h1M66 35h1M37 36h4M42 36h6M49 36h1M51 36h6M58 36h2M37 37h4M42 37h1M45 37h8M55 37h2M58 37h1M60 37h1M66 37h1M38 38h3M42 38h1M45 38h8M55 38h2M58 38h1M60 38h1M67 38h1M38 39h3M42 39h15M58 39h3M62 39h1M66 39h1M35 40h3M40 40h1M42 40h15M58 40h3M62 40h2M65 40h1M67 40h1M32 41h8M43 41h13M57 41h3M61 41h4M66 41h1M30 42h8M43 42h13M57 42h3M61 42h6M30 43h6M38 43h4M44 43h11M56 43h3M60 43h6M29 44h1M31 44h4M36 44h7M46 44h7M55 44h3M61 44h3M28 45h1M30 45h1M32 45h2M35 45h10M48 45h3M53 45h3M58 45h3M29 46h1M31 46h1M34 46h1M37 46h4M56 46h7M34 47h1M36 47h3M54 47h11M35 48h3M57 48h9M36 49h1M61 49h6M63 50h4M64 51h4M43 52h2M65 52h3M42 53h1M45 53h6M66 53h1M42 54h1M50 54h2M66 54h1M70 54h1M26 55h2M42 55h2M51 55h1M26 56h2M43 56h3M49 56h3M45 57h1M47 57h1M49 57h2M67 58h1M69 60h2M69 61h2" />
<path stroke="#424a6b" d="M66 26h1M48 27h1M45 28h1M41 29h1M39 30h1M37 32h1M36 34h1M42 41h1M40 42h2M43 44h1M45 44h1M47 45h1M41 47h4M41 48h11M40 49h5M46 49h3M50 49h6M40 50h1M45 50h5M55 50h2M39 51h18M39 52h4M45 52h13M28 53h1M38 53h4M52 53h1M54 53h1M56 53h1M39 54h1M53 54h1M55 54h1M57 54h1M38 55h1M40 55h1M54 55h1M56 55h1M39 56h1M53 56h1M34 57h3M60 57h1M34 58h2M59 58h4M38 59h1M61 59h2M39 60h1M58 60h1M64 60h1M40 61h1M60 61h1M63 61h1M43 63h1M50 63h1M52 63h1M56 63h1M40 64h1M52 64h1M57 64h1M47 65h1M38 66h3M47 66h1M54 66h2M46 67h1M53 67h4M43 68h1M54 68h2" />
<path stroke="#000000" d="M49 27h3M46 28h2M52 28h2M42 29h3M54 29h2M40 30h1M45 30h2M48 30h3M56 30h1M38 31h1M46 31h2M51 31h2M56 31h1M44 32h1M53 32h2M57 32h1M62 32h2M37 33h1M43 33h1M55 33h1M57 33h2M61 33h1M64 33h2M42 34h1M56 34h1M59 34h1M62 34h1M66 34h1M36 35h1M42 35h1M56 35h1M60 35h1M67 35h1M36 36h1M41 36h1M57 36h1M60 36h1M63 36h1M67 36h1M36 37h1M41 37h1M57 37h1M61 37h1M63 37h1M68 37h1M37 38h1M41 38h1M57 38h1M61 38h2M68 38h1M35 39h3M41 39h1M57 39h1M61 39h1M68 39h1M32 40h3M38 40h2M41 40h1M57 40h1M61 40h1M68 40h1M30 41h2M40 41h2M56 41h1M60 41h1M68 41h1M29 42h1M38 42h2M42 42h1M56 42h1M60 42h1M67 42h1M28 43h1M36 43h2M42 43h2M55 43h1M59 43h1M66 43h1M28 44h1M35 44h1M44 44h1M53 44h2M58 44h3M64 44h2M27 45h1M34 45h1M45 45h2M51 45h2M56 45h2M61 45h3M27 46h1M32 46h2M41 46h15M63 46h2M27 47h1M31 47h1M33 47h1M39 47h2M45 47h9M65 47h1M28 48h1M30 48h1M34 48h1M38 48h1M40 48h1M52 48h5M66 48h1M28 49h1M30 49h1M35 49h1M37 49h1M39 49h1M45 49h1M49 49h1M56 49h5M67 49h1M29 50h1M36 50h2M39 50h1M41 50h4M50 50h5M57 50h1M61 50h2M67 50h1M38 51h1M57 51h1M63 51h1M68 51h1M38 52h1M58 52h1M64 52h1M68 52h1M37 53h1M43 53h2M51 53h1M53 53h1M55 53h1M57 53h2M65 53h1M67 53h1M37 54h2M40 54h2M45 54h5M52 54h1M54 54h1M56 54h1M58 54h1M65 54h1M67 54h1M37 55h1M39 55h1M41 55h1M50 55h1M52 55h2M55 55h1M57 55h2M65 55h2M34 56h5M40 56h3M52 56h1M54 56h7M33 57h1M37 57h8M51 57h9M61 57h3M33 58h1M36 58h12M49 58h10M63 58h2M34 59h4M39 59h22M63 59h2M40 60h17M59 60h5M41 61h15M61 61h2M42 62h14M44 63h6M53 63h3M41 64h6M53 64h4M38 65h9M53 65h6M37 66h1M41 66h6M53 66h1M56 66h3M37 67h9M57 67h2M38 68h5M53 68h1M56 68h3M54 69h4" />
<path stroke="#ffffff" d="M41 30h1M43 30h1M40 31h1M42 31h1M41 32h1M43 32h1M48 32h2M45 33h1M47 33h1M49 33h2M62 33h2M38 34h2M44 34h1M46 34h1M48 34h1M50 34h1M52 34h1M57 34h1M63 34h3M38 35h2M45 35h1M47 35h1M49 35h1M58 35h1M64 35h2M48 36h1M50 36h1M64 36h3M43 37h2M53 37h2M59 37h1M64 37h2M67 37h1M43 38h2M53 38h2M59 38h1M63 38h4M63 39h3M67 39h1M64 40h1M66 40h1M65 41h1M67 41h1M29 43h1M30 44h1M29 45h1M31 45h1M28 46h1M30 46h1M35 46h2M28 47h3M35 47h1M29 48h1M29 49h1M43 54h2M44 55h6M46 56h3M46 57h1M48 57h1M48 58h1" />
</svg>