<svg xmlns="http://www.w3.org/2000/svg" viewBox="0 -0.5 96 96" shape-rendering="crispEdges">
<metadata>Made with Pixels to Svg https://codepen.io/shshaw/pen/XbxvNj</metadata>
<path stroke="#000000" d="M37 28h1M40 28h2M43 28h1M36 29h1M38 29h2M43 29h1M45 29h2M35 30h1M38 30h1M44 30h1M47 30h2M34 31h1M49 31h1M34 32h1M48 32h1M33 33h1M47 33h1M32 34h2M39 34h4M45 34h2M30 35h1M32 35h1M34 35h1M38 35h1M43 35h2M47 35h2M32 36h1M40 36h2M45 36h2M50 36h1M29 37h1M31 37h1M38 37h2M45 37h4M51 37h1M58 37h3M30 38h1M32 38h3M37 38h2M42 38h1M46 38h4M51 38h1M62 38h1M31 39h3M36 39h2M39 39h1M42 39h1M46 39h2M50 39h1M55 39h1M64 39h1M38 40h1M41 40h1M48 40h2M28 41h1M31 41h2M42 41h2M46 41h2M54 41h1M65 41h1M28 42h1M31 42h4M44 42h1M47 42h1M29 43h1M31 43h4M36 43h2M45 43h1M47 43h1M53 43h1M66 43h1M30 44h1M32 44h7M45 44h1M48 44h1M53 44h1M63 44h1M66 44h1M33 45h7M49 45h2M53 45h1M66 45h1M34 46h2M38 46h1M45 46h1M51 46h3M64 46h1M67 46h1M33 47h2M38 47h1M45 47h1M52 47h5M65 47h1M67 47h1M32 48h1M34 48h1M37 48h1M44 48h1M53 48h3M57 48h2M65 48h2M32 49h1M35 49h2M43 49h2M53 49h4M58 49h2M65 49h1M33 50h1M39 50h2M44 50h1M54 50h3M58 50h3M34 51h5M45 51h1M54 51h1M56 51h1M59 51h3M64 51h1M35 52h1M45 52h2M59 52h3M63 52h1M34 53h1M47 53h1M60 53h1M62 53h1M46 54h1M62 54h1M33 55h1M46 55h1M55 55h1M62 55h1M34 56h2M47 56h1M52 56h1M54 56h2M61 56h2M35 57h1M46 57h1M51 57h1M53 57h1M55 57h1M60 57h4M36 58h1M38 58h1M45 58h1M49 58h4M54 58h3M59 58h3M63 58h1M36 59h4M41 59h1M45 59h2M48 59h9M63 59h2M37 60h1M39 60h3M43 60h1M45 60h10M57 60h1M61 60h4M37 61h1M40 61h1M42 61h1M44 61h6M51 61h4M58 61h1M60 61h3M64 61h1M42 62h1M45 62h1M47 62h2M51 62h3M58 62h1M63 62h1M42 63h1M51 63h3M57 63h1M63 63h1M35 64h1M42 64h1M51 64h1M56 64h1M63 64h1M35 65h2M38 65h1M40 65h2M44 65h1M51 65h1M56 65h1M58 65h1M60 65h1M62 65h1M36 66h4M44 66h1M46 66h1M48 66h1M50 66h1M57 66h5M45 67h5" />
<path stroke="#ffffff" d="M42 28h1M37 29h1M40 29h3M36 30h2M39 30h5M45 30h2M35 31h14M35 32h13M35 33h3M44 33h3M44 34h1M40 37h2M31 38h1M39 38h3M57 38h5M30 39h1M34 39h2M38 39h1M40 39h2M56 39h8M29 40h9M55 40h9M29 41h2M34 41h5M55 41h8M29 42h1M37 42h3M54 42h8M30 43h1M35 43h1M38 43h2M54 43h7M54 44h6M54 45h1M56 45h1M58 45h1M60 45h1M55 46h1M57 46h1M59 46h1M33 48h1M38 48h1M33 49h1M37 49h1M34 50h3M36 52h3M44 52h1M36 53h4M41 53h1M43 53h1M35 54h6M42 54h1M44 54h1M34 55h8M43 55h1M36 56h5M42 56h1M44 56h1M46 56h1M36 57h3M40 57h2M37 58h1" />
<path stroke="#c54200" d="M33 32h1M31 34h1M33 35h1M39 35h4M45 35h2M29 36h1M31 36h1M33 36h7M42 36h3M47 36h3M30 37h1M32 37h6M42 37h3M49 37h2M57 37h1M61 37h1M35 38h2M43 38h3M50 38h1M56 38h1M63 38h1M29 39h1M43 39h3M48 39h2M28 40h1M39 40h2M42 40h6M54 40h1M65 40h1M44 41h2M30 42h1M35 42h1M45 42h2M53 42h1M66 42h1M46 43h1M63 43h1M46 44h2M45 45h2M48 45h1M64 45h1M36 46h2M46 46h2M49 46h1M35 47h3M46 47h1M48 47h1M50 47h1M35 48h2M45 48h5M51 48h1M56 48h1M34 49h1M45 49h8M57 49h1M45 50h9M57 50h1M64 50h2M46 51h8M55 51h1M57 51h2M63 51h1M47 52h12M62 52h1M35 53h1M48 53h12M61 53h1M34 54h1M47 54h15M47 55h8M56 55h6M48 56h4M53 56h1M56 56h5M63 56h1M47 57h4M52 57h1M54 57h1M56 57h4M46 58h3M53 58h1M57 58h2M62 58h1M47 59h1M57 59h6M38 60h1M42 60h1M58 60h3M38 61h2M41 61h1M50 61h1M59 61h1M63 61h1M36 62h1M39 62h3M46 62h1M49 62h2M54 62h1M59 62h4M64 62h1M35 63h1M40 63h2M45 63h1M48 63h3M58 63h5M36 64h6M44 64h1M49 64h2M52 64h1M57 64h1M60 64h3M37 65h1M39 65h1M45 65h6M57 65h1M59 65h1M61 65h1M45 66h1M47 66h1M49 66h1" />
<path stroke="#de9c3a" d="M34 33h1M38 33h6M34 34h5M43 34h1M31 35h1M35 35h3M30 36h1M64 40h1M33 41h1M39 41h3M63 41h2M36 42h1M40 42h4M62 42h4M40 43h5M61 43h2M64 43h2M39 44h6M60 44h3M64 44h2M40 45h5M47 45h1M55 45h1M57 45h1M59 45h1M61 45h3M65 45h1M39 46h6M48 46h1M50 46h1M54 46h1M56 46h1M58 46h1M60 46h4M65 46h2M39 47h6M47 47h1M49 47h1M51 47h1M57 47h8M66 47h1M39 48h5M50 48h1M52 48h1M59 48h6M38 49h5M60 49h5M37 50h2M41 50h3M61 50h3M39 51h6M62 51h1M39 52h5M40 53h1M42 53h1M44 53h3M41 54h1M43 54h1M45 54h1M42 55h1M44 55h2M41 56h1M43 56h1M45 56h1M39 57h1M42 57h4M39 58h6M40 59h1M42 59h3M44 60h1M37 62h2M36 63h4M46 63h2M45 64h4M58 64h2" />
</svg>