<svg xmlns="http://www.w3.org/2000/svg" viewBox="0 -0.5 96 96" shape-rendering="crispEdges">
<metadata>Made with Pixels to Svg https://codepen.io/shshaw/pen/XbxvNj</metadata>
<path stroke="#634252" d="M52 21h1M50 22h1M36 24h1M48 24h1M35 25h1M39 25h1M52 25h1M55 25h1M41 26h1M51 26h1M54 26h1M61 27h1M46 28h2M68 28h1M45 29h1M50 29h1M63 29h1M72 29h1M44 30h1M64 30h1M67 30h1M72 30h1M43 31h1M62 31h1M66 31h1M72 31h2M62 32h1M73 32h1M62 33h1M63 34h1M73 34h1M56 35h1M63 35h2M67 35h1M73 35h1M39 36h1M41 36h1M65 36h1M72 36h2M38 37h1M41 37h1M55 37h1M60 37h1M66 37h8M37 38h1M62 38h2M65 38h1M67 38h6M36 39h1M63 39h2M67 39h6M42 40h1M53 40h1M63 40h2M67 40h5M42 41h1M49 41h1M53 41h1M62 41h1M37 42h2M42 42h1M45 42h1M52 42h1M58 42h1M61 42h2M23 43h1M26 43h1M37 43h4M43 43h1M50 43h2M59 43h3M36 44h6M44 44h1M49 44h1M54 44h1M57 44h1M59 44h2M21 45h1M36 45h1M39 45h3M48 45h1M56 45h1M58 45h3M23 46h1M42 46h1M45 46h1M48 46h1M51 46h1M57 46h1M59 46h1M65 46h1M24 47h1M59 47h2M66 47h1M61 48h1M25 49h1M32 49h3M51 49h1M62 49h2M25 50h1M32 50h2M43 50h1M52 50h3M44 51h1M48 51h1M52 51h5M25 52h1M28 52h2M44 52h2M54 52h3M31 53h2M46 53h2M50 53h4M56 53h2M30 54h1M48 54h8M57 54h1M49 55h5M22 56h1M33 56h1M32 57h2M31 58h1M45 58h2M55 58h1M45 59h3M54 59h1M46 60h2M25 61h1M26 62h1M44 62h1M36 63h2M42 63h1M51 63h2M60 63h3M31 64h1M38 64h2M44 64h2M56 64h1M60 64h4M38 65h9M48 65h1M56 65h2M59 65h5M37 66h10M49 66h1M58 66h4M37 67h8M39 68h4M39 70h1M50 70h1M40 71h2M43 71h2M64 71h1M45 72h1M57 72h2M61 72h3M56 73h1" />
<path stroke="#000000" d="M53 21h2M51 22h1M55 22h2M49 23h1M57 23h1M62 23h2M37 24h1M58 24h1M61 24h1M64 24h2M38 25h1M48 25h1M50 25h2M58 25h3M63 25h1M66 25h1M35 26h1M40 26h1M48 26h1M52 26h2M59 26h5M67 26h1M36 27h1M42 27h2M49 27h1M55 27h3M62 27h1M67 27h4M36 28h1M44 28h2M48 28h7M58 28h2M62 28h1M67 28h1M69 28h4M37 29h1M51 29h2M58 29h5M66 29h1M68 29h1M71 29h1M73 29h1M37 30h1M56 30h2M61 30h3M66 30h1M71 30h1M73 30h1M38 31h1M55 31h1M64 31h2M67 31h1M71 31h1M74 31h1M39 32h1M55 32h1M67 32h1M70 32h1M72 32h1M74 32h1M39 33h1M56 33h1M60 33h2M63 33h1M68 33h2M73 33h2M40 34h1M57 34h3M62 34h1M64 34h1M70 34h1M72 34h1M74 34h1M40 35h1M59 35h1M62 35h1M65 35h2M71 35h2M74 35h1M56 36h1M59 36h1M63 36h1M66 36h6M74 36h1M61 37h4M74 37h1M42 38h1M54 38h1M61 38h1M64 38h1M73 38h1M42 39h1M52 39h2M62 39h1M65 39h1M73 39h1M36 40h1M43 40h1M51 40h1M62 40h1M65 40h2M72 40h1M37 41h2M44 41h1M50 41h2M61 41h1M63 41h3M67 41h5M36 42h1M39 42h2M44 42h1M49 42h1M51 42h1M59 42h2M63 42h1M70 42h1M24 43h2M36 43h1M41 43h1M45 43h1M48 43h1M56 43h3M62 43h1M68 43h2M22 44h1M27 44h1M35 44h1M42 44h1M45 44h1M48 44h1M55 44h2M58 44h1M61 44h2M66 44h2M28 45h1M35 45h1M37 45h2M42 45h1M45 45h1M53 45h3M57 45h1M61 45h7M21 46h1M28 46h1M36 46h6M43 46h1M52 46h5M58 46h1M60 46h5M66 46h1M21 47h1M23 47h1M28 47h2M35 47h2M39 47h1M42 47h2M57 47h2M61 47h5M67 47h1M21 48h1M23 48h2M28 48h1M30 48h1M32 48h3M38 48h1M44 48h1M59 48h2M62 48h3M66 48h1M22 49h1M24 49h1M28 49h1M31 49h1M35 49h1M37 49h1M43 49h2M52 49h3M61 49h1M64 49h1M67 49h1M22 50h1M27 50h1M31 50h1M36 50h2M42 50h1M44 50h1M49 50h1M51 50h1M55 50h2M62 50h2M67 50h2M23 51h1M27 51h1M31 51h1M33 51h3M42 51h2M45 51h1M49 51h1M51 51h1M57 51h1M69 51h1M24 52h1M27 52h1M30 52h1M32 52h1M41 52h1M43 52h1M46 52h2M50 52h4M57 52h1M70 52h1M23 53h1M25 53h1M28 53h3M33 53h1M41 53h1M44 53h2M48 53h2M54 53h2M58 53h1M69 53h1M22 54h1M26 54h4M31 54h2M41 54h1M46 54h2M56 54h1M58 54h1M68 54h1M22 55h1M30 55h4M41 55h1M46 55h1M48 55h1M54 55h4M59 55h2M69 55h1M30 56h3M34 56h1M40 56h1M46 56h1M49 56h7M59 56h1M61 56h1M65 56h4M23 57h1M29 57h2M34 57h2M38 57h2M45 57h3M50 57h3M60 57h1M62 57h3M24 58h1M28 58h2M32 58h2M36 58h2M43 58h2M47 58h1M56 58h5M25 59h3M30 59h3M41 59h2M48 59h1M55 59h2M61 59h1M25 60h1M30 60h1M40 60h1M48 60h1M54 60h2M62 60h1M29 61h1M31 61h1M38 61h2M47 61h3M54 61h2M62 61h1M27 62h2M31 62h1M36 62h3M45 62h2M49 62h1M54 62h3M58 62h6M28 63h1M31 63h1M35 63h1M38 63h2M43 63h3M50 63h1M55 63h3M63 63h2M29 64h2M35 64h1M40 64h4M46 64h1M52 64h4M64 64h1M35 65h1M47 65h1M55 65h1M64 65h1M36 66h1M47 66h1M56 66h2M62 66h2M65 66h1M36 67h1M45 67h2M49 67h1M55 67h1M58 67h4M65 67h1M37 68h2M43 68h2M50 68h1M55 68h1M64 68h1M39 69h4M50 69h2M54 69h1M65 69h1M38 70h1M52 70h1M54 70h1M65 70h1M37 71h1M42 71h1M50 71h2M54 71h1M65 71h1M36 72h1M40 72h2M48 72h2M54 72h1M66 72h1M36 73h4M41 73h1M44 73h4M55 73h1M59 73h4M67 73h1M42 74h2M56 74h1M59 74h1M63 74h2M67 74h1M57 75h2M65 75h2" />
<path stroke="#ffffff" d="M52 22h3M50 23h7M49 24h9M62 24h2M36 25h2M49 25h1M53 25h2M56 25h2M61 25h1M64 25h2M36 26h3M49 26h2M55 26h4M64 26h3M37 27h3M50 27h5M58 27h3M65 27h2M39 28h1M55 28h2M60 28h2M40 29h1M46 29h4M53 29h3M67 29h1M45 30h6M53 30h2M44 31h8M44 32h8M71 32h1M43 33h9M70 33h3M43 34h9M71 34h1M43 35h8M44 36h6M39 37h1M38 38h2M37 39h2M52 40h1M43 41h1M52 41h1M43 42h1M50 42h1M44 43h1M49 43h1M23 44h4M22 45h6M22 46h1M24 46h4M22 47h1M25 47h3M46 47h1M22 48h1M25 48h3M46 48h1M56 48h1M58 48h1M23 49h1M26 49h2M30 49h1M46 49h2M57 49h1M59 49h1M23 50h2M26 50h1M39 50h1M46 50h2M58 50h1M60 50h1M24 51h3M38 51h1M40 51h1M59 51h1M61 51h1M63 51h1M26 52h1M37 52h1M39 52h1M58 52h1M60 52h1M62 52h1M26 53h2M36 53h1M38 53h1M40 53h1M59 53h1M61 53h1M63 53h1M23 54h1M37 54h1M39 54h1M60 54h1M62 54h1M23 55h2M23 56h2M47 56h1M57 59h1M57 60h2M30 61h1M58 61h1M29 62h2M29 63h2M56 67h2M56 68h2M56 69h2M51 70h1M56 70h2M38 71h2M37 72h3M42 72h3M64 72h2M42 73h2M57 73h2M63 73h4M57 74h2M65 74h2" />
<path stroke="#e69c19" d="M62 25h1M39 26h1M40 27h2M63 27h2M37 28h2M40 28h4M57 28h1M63 28h4M38 29h2M41 29h4M56 29h2M64 29h2M69 29h2M38 30h6M51 30h2M55 30h1M58 30h3M65 30h1M68 30h3M39 31h4M52 31h3M56 31h6M63 31h1M68 31h3M40 32h4M52 32h3M56 32h6M63 32h4M68 32h2M40 33h3M52 33h4M57 33h3M64 33h4M41 34h2M52 34h5M65 34h5M41 35h2M51 35h5M57 35h2M68 35h3M40 36h1M42 36h2M50 36h6M57 36h2M64 36h1M40 37h1M42 37h13M56 37h4M65 37h1M40 38h2M43 38h11M55 38h6M66 38h1M39 39h3M43 39h9M54 39h8M66 39h1M37 40h5M44 40h7M54 40h8M39 41h3M45 41h4M54 41h7M66 41h1M41 42h1M46 42h3M53 42h5M64 42h6M42 43h1M46 43h2M52 43h4M63 43h5M43 44h1M46 44h2M50 44h4M63 44h3M43 45h2M46 45h2M49 45h4M44 46h1M46 46h2M49 46h2M37 47h2M40 47h2M44 47h2M47 47h10M29 48h1M35 48h3M39 48h5M45 48h1M47 48h9M57 48h1M65 48h1M29 49h1M36 49h1M38 49h5M45 49h1M48 49h3M55 49h2M58 49h1M60 49h1M65 49h2M28 50h3M34 50h2M38 50h1M40 50h2M45 50h1M48 50h1M50 50h1M57 50h1M59 50h1M61 50h1M64 50h3M28 51h3M32 51h1M36 51h2M39 51h1M41 51h1M46 51h2M50 51h1M58 51h1M60 51h1M62 51h1M64 51h5M31 52h1M33 52h4M38 52h1M40 52h1M48 52h2M59 52h1M61 52h1M63 52h7M24 53h1M34 53h2M37 53h1M39 53h1M60 53h1M62 53h1M64 53h5M24 54h2M33 54h4M38 54h1M40 54h1M59 54h1M61 54h1M63 54h5M25 55h5M34 55h7M47 55h1M58 55h1M61 55h8M25 56h5M35 56h5M48 56h1M56 56h3M62 56h3M24 57h5M31 57h1M36 57h2M48 57h2M53 57h7M25 58h3M30 58h1M48 58h7M28 59h2M43 59h2M49 59h5M58 59h3M26 60h4M41 60h5M49 60h5M56 60h1M59 60h3M26 61h3M40 61h7M50 61h4M56 61h2M59 61h3M39 62h5M50 62h4M57 62h1M40 63h2M53 63h2M58 63h2M36 64h2M57 64h3M36 65h2M58 65h1M48 66h1M64 66h1M47 67h2M62 67h3M45 68h5M58 68h6M43 69h7M55 69h1M58 69h7M40 70h10M55 70h1M58 70h7M45 71h5M55 71h9M46 72h2M55 72h2M59 72h2" />
</svg>