<svg xmlns="http://www.w3.org/2000/svg" viewBox="0 -0.5 56 56" shape-rendering="crispEdges">
<metadata>Made with Pixels to Svg https://codepen.io/shshaw/pen/XbxvNj</metadata>
<path stroke="#ffffff" d="M0 0h56M0 1h56M0 2h37M41 2h15M0 3h35M37 3h2M43 3h13M0 4h33M36 4h4M44 4h12M0 5h32M33 5h1M36 5h4M45 5h11M0 6h31M37 6h2M45 6h11M0 7h9M13 7h17M31 7h1M46 7h10M0 8h7M15 8h15M46 8h10M0 9h6M16 9h14M47 9h9M0 10h5M7 10h2M17 10h6M27 10h1M30 10h1M47 10h9M0 11h5M6 11h4M18 11h3M30 11h1M47 11h9M0 12h4M7 12h2M18 12h2M22 12h2M47 12h9M0 13h4M18 13h1M21 13h4M36 13h1M47 13h9M0 14h4M20 14h5M36 14h1M38 14h1M47 14h9M0 15h4M20 15h4M37 15h3M49 15h7M0 16h4M21 16h2M51 16h5M0 17h5M43 17h2M52 17h4M0 18h5M42 18h4M53 18h3M0 19h6M41 19h5M54 19h2M0 20h7M41 20h4M54 20h2M0 21h9M15 21h1M26 21h1M42 21h2M55 21h1M0 22h16M25 22h2M49 22h2M55 22h1M0 23h16M18 23h1M25 23h2M49 23h2M52 23h1M55 23h1M0 24h16M18 24h2M35 24h3M55 24h1M0 25h13M35 25h3M55 25h1M0 26h11M34 26h5M54 26h2M0 27h9M11 27h1M13 27h1M34 27h5M54 27h2M0 28h8M10 28h3M14 28h1M33 28h7M53 28h3M0 29h7M9 29h5M33 29h5M52 29h4M0 30h6M10 30h3M14 30h1M32 30h5M39 30h2M43 30h1M51 30h5M0 31h5M9 31h1M11 31h1M13 31h1M31 31h5M38 31h5M44 31h1M51 31h5M0 32h4M10 32h1M12 32h1M30 32h5M37 32h5M43 32h1M45 32h1M52 32h4M0 33h4M9 33h1M11 33h1M13 33h1M28 33h6M37 33h4M42 33h1M44 33h1M52 33h4M0 34h3M10 34h1M12 34h1M26 34h8M39 34h1M53 34h3M0 35h3M26 35h7M53 35h3M0 36h2M7 36h1M26 36h7M53 36h3M0 37h2M7 37h2M27 37h6M53 37h3M0 38h2M7 38h2M27 38h5M41 38h2M53 38h3M0 39h1M7 39h3M27 39h5M42 39h2M53 39h3M0 40h1M8 40h1M10 40h1M27 40h5M42 40h3M50 40h1M53 40h3M0 41h1M19 41h2M27 41h5M49 41h2M53 41h3M0 42h1M16 42h5M26 42h7M52 42h4M0 43h1M18 43h2M26 43h7M52 43h4M0 44h2M26 44h8M51 44h5M0 45h2M25 45h9M51 45h5M0 46h2M25 46h10M50 46h6M0 47h3M24 47h12M49 47h7M0 48h3M24 48h14M47 48h9M0 49h4M23 49h17M45 49h11M0 50h5M22 50h34M0 51h6M21 51h35M0 52h8M19 52h37M0 53h10M17 53h39M0 54h56M0 55h56" />
<path stroke="#ff7b8c" d="M37 2h1M39 3h2M35 4h1M40 4h3M34 5h2M40 5h4M33 6h4M39 6h4M33 7h9M43 7h2M9 8h1M31 8h1M33 8h9M43 8h2M7 9h3M32 9h1M34 9h6M44 9h2M6 10h1M9 10h2M28 10h1M33 10h6M41 10h3M45 10h1M10 11h1M16 11h1M23 11h4M32 11h3M36 11h2M39 11h1M41 11h5M5 12h2M9 12h4M14 12h3M21 12h1M24 12h4M32 12h3M38 12h2M41 12h5M5 13h8M14 13h4M20 13h1M25 13h5M31 13h4M40 13h6M5 14h9M15 14h3M19 14h1M25 14h5M32 14h3M42 14h4M5 15h9M15 15h3M19 15h1M24 15h7M32 15h4M40 15h4M5 16h9M15 16h2M18 16h3M23 16h9M33 16h4M39 16h3M44 16h5M6 17h7M16 17h1M18 17h14M33 17h4M38 17h3M42 17h1M45 17h6M6 18h6M13 18h2M17 18h16M34 18h2M37 18h1M39 18h1M41 18h1M46 18h6M7 19h4M12 19h4M17 19h10M28 19h5M34 19h1M36 19h1M38 19h1M40 19h1M46 19h7M9 20h1M12 20h2M17 20h9M27 20h7M35 20h1M37 20h1M40 20h1M45 20h8M14 21h1M18 21h7M28 21h6M40 21h2M44 21h4M51 21h3M17 22h1M19 22h4M27 22h1M29 22h5M39 22h9M53 22h1M17 23h1M21 23h3M28 23h4M33 23h1M39 23h9M17 24h1M21 24h3M27 24h5M39 24h2M42 24h4M48 24h1M52 24h2M19 25h1M21 25h11M33 25h1M39 25h2M42 25h3M46 25h8M13 26h5M20 26h12M40 26h2M45 26h8M12 27h1M14 27h5M21 27h11M40 27h2M43 27h7M52 27h1M9 28h1M13 28h1M15 28h4M20 28h1M25 28h6M46 28h6M8 29h1M14 29h5M21 29h1M23 29h2M27 29h4M40 29h4M45 29h1M48 29h2M7 30h3M13 30h1M15 30h5M21 30h2M24 30h6M38 30h1M41 30h2M44 30h4M50 30h1M6 31h3M10 31h1M12 31h1M14 31h6M21 31h2M25 31h4M37 31h1M43 31h1M45 31h5M5 32h2M8 32h2M11 32h1M13 32h7M21 32h2M36 32h1M42 32h1M44 32h1M46 32h5M5 33h2M8 33h1M10 33h1M12 33h1M14 33h7M35 33h2M41 33h1M43 33h1M45 33h6M4 34h3M8 34h2M11 34h1M13 34h8M23 34h2M35 34h3M40 34h11M4 35h2M7 35h1M9 35h12M22 35h3M34 35h3M38 35h14M3 36h3M9 36h12M22 36h3M34 36h3M38 36h2M42 36h10M3 37h3M10 37h5M16 37h4M21 37h5M34 37h3M38 37h3M43 37h9M3 38h3M10 38h5M16 38h4M21 38h5M33 38h4M38 38h3M44 38h7M2 39h4M11 39h3M15 39h5M21 39h5M34 39h2M37 39h4M46 39h4M2 40h5M12 40h2M15 40h4M24 40h2M33 40h1M35 40h1M37 40h4M46 40h2M2 41h6M11 41h4M22 41h4M33 41h2M37 41h5M45 41h3M2 42h13M22 42h3M34 42h2M37 42h12M2 43h14M22 43h3M34 43h2M37 43h14M3 44h3M7 44h10M21 44h4M35 44h1M37 44h13M3 45h4M9 45h10M20 45h1M22 45h2M35 45h2M38 45h6M49 45h1M3 46h6M12 46h4M17 46h2M20 46h2M23 46h1M36 46h1M38 46h5M44 46h5M4 47h8M17 47h2M20 47h2M39 47h8M4 48h15M20 48h2M40 48h5M5 49h14M20 49h1M6 50h13M8 51h10M10 52h6" />
<path stroke="#9c294a" d="M38 2h2M35 3h1M41 3h1M33 4h1M32 5h1M31 6h1M44 6h1M30 7h1M32 7h1M42 7h1M11 8h2M32 8h1M45 8h1M11 9h4M33 9h1M40 9h1M42 9h2M5 10h1M12 10h3M23 10h1M31 10h1M44 10h1M11 11h1M15 11h1M21 11h1M29 11h1M35 11h1M40 11h1M4 12h1M28 12h1M30 12h2M37 12h1M13 13h1M35 13h1M39 13h1M14 14h1M30 14h1M35 14h1M41 14h1M46 14h1M36 15h1M44 15h1M48 15h1M4 16h1M14 16h1M37 16h2M13 17h3M37 17h1M12 18h1M15 18h1M36 18h1M38 18h1M11 19h1M27 19h1M35 19h1M37 19h1M7 20h1M10 20h2M16 20h1M36 20h1M38 20h1M16 21h1M27 21h1M35 21h5M54 21h1M16 22h1M23 22h1M28 22h1M35 22h3M48 22h1M19 23h1M27 23h1M32 23h1M48 23h1M53 23h1M24 24h3M32 24h2M41 24h1M46 24h2M49 24h3M13 25h3M18 25h1M20 25h1M32 25h1M41 25h1M45 25h1M11 26h1M32 26h1M39 26h1M42 26h3M9 27h1M19 27h1M32 27h1M42 27h1M8 28h1M19 28h1M23 28h1M31 28h1M45 28h1M19 29h1M26 29h1M31 29h1M44 29h1M20 30h1M30 30h1M24 31h1M29 31h1M4 32h1M7 32h1M23 32h1M25 32h3M23 33h1M34 33h1M3 34h1M22 34h1M38 34h1M51 34h1M6 35h1M33 35h1M37 35h1M2 36h1M6 36h1M21 36h1M37 36h1M40 36h1M6 37h1M15 37h1M20 37h1M37 37h1M41 37h1M6 38h1M15 38h1M32 38h1M37 38h1M1 39h1M6 39h1M14 39h1M20 39h1M33 39h1M36 39h1M45 39h1M51 39h1M7 40h1M23 40h1M34 40h1M36 40h1M45 40h1M51 40h1M8 41h1M10 41h1M21 41h1M35 41h2M42 41h3M51 41h1M15 42h1M21 42h1M36 42h1M49 42h2M16 43h1M20 43h2M36 43h1M2 44h1M18 44h3M36 44h1M50 44h1M21 45h1M37 45h1M48 45h1M11 46h1M22 46h1M37 46h1M3 47h1M16 47h1M19 47h1M22 47h1M38 47h1M47 47h1M22 48h1M45 48h1M19 49h1M21 49h1M19 50h2M18 51h1M16 52h1" />
<path stroke="#000000" d="M40 2h1M36 3h1M42 3h1M34 4h1M43 4h1M44 5h1M32 6h1M43 6h1M9 7h4M45 7h1M7 8h2M10 8h1M13 8h2M30 8h1M42 8h1M6 9h1M10 9h1M15 9h1M30 9h2M41 9h1M46 9h1M11 10h1M15 10h2M24 10h3M29 10h1M32 10h1M39 10h2M46 10h1M5 11h1M12 11h3M17 11h1M22 11h1M27 11h2M31 11h1M38 11h1M46 11h1M13 12h1M17 12h1M20 12h1M29 12h1M35 12h2M40 12h1M46 12h1M4 13h1M19 13h1M30 13h1M37 13h2M46 13h1M4 14h1M18 14h1M31 14h1M37 14h1M39 14h2M4 15h1M14 15h1M18 15h1M31 15h1M45 15h3M17 16h1M32 16h1M42 16h2M49 16h2M5 17h1M17 17h1M32 17h1M41 17h1M51 17h1M5 18h1M16 18h1M33 18h1M40 18h1M52 18h1M6 19h1M16 19h1M33 19h1M39 19h1M53 19h1M8 20h1M14 20h2M26 20h1M34 20h1M39 20h1M53 20h1M9 21h5M17 21h1M25 21h1M34 21h1M48 21h3M18 22h1M24 22h1M34 22h1M38 22h1M51 22h2M54 22h1M16 23h1M20 23h1M24 23h1M34 23h5M51 23h1M54 23h1M16 24h1M20 24h1M34 24h1M38 24h1M54 24h1M16 25h2M34 25h1M38 25h1M54 25h1M12 26h1M18 26h2M33 26h1M53 26h1M10 27h1M20 27h1M33 27h1M39 27h1M50 27h2M53 27h1M21 28h2M24 28h1M32 28h1M40 28h5M52 28h1M7 29h1M20 29h1M22 29h1M25 29h1M32 29h1M38 29h2M46 29h2M50 29h2M6 30h1M23 30h1M31 30h1M37 30h1M48 30h2M5 31h1M20 31h1M23 31h1M30 31h1M36 31h1M50 31h1M20 32h1M24 32h1M28 32h2M35 32h1M51 32h1M4 33h1M7 33h1M21 33h2M24 33h4M51 33h1M7 34h1M21 34h1M25 34h1M34 34h1M52 34h1M3 35h1M8 35h1M21 35h1M25 35h1M52 35h1M8 36h1M25 36h1M33 36h1M41 36h1M52 36h1M2 37h1M9 37h1M26 37h1M33 37h1M42 37h1M52 37h1M2 38h1M9 38h1M20 38h1M26 38h1M43 38h1M51 38h2M10 39h1M26 39h1M32 39h1M41 39h1M44 39h1M50 39h1M52 39h1M1 40h1M9 40h1M11 40h1M14 40h1M19 40h4M26 40h1M32 40h1M41 40h1M48 40h2M52 40h1M1 41h1M9 41h1M15 41h4M26 41h1M32 41h1M48 41h1M52 41h1M1 42h1M25 42h1M33 42h1M51 42h1M1 43h1M17 43h1M25 43h1M33 43h1M51 43h1M6 44h1M17 44h1M25 44h1M34 44h1M2 45h1M7 45h2M19 45h1M24 45h1M34 45h1M44 45h4M50 45h1M2 46h1M9 46h2M16 46h1M19 46h1M24 46h1M35 46h1M43 46h1M49 46h1M12 47h4M23 47h1M36 47h2M48 47h1M3 48h1M19 48h1M23 48h1M38 48h2M46 48h1M4 49h1M22 49h1M40 49h5M5 50h1M21 50h1M6 51h2M19 51h2M8 52h2M17 52h2M10 53h7" />
</svg>