<svg xmlns="http://www.w3.org/2000/svg" viewBox="0 -0.5 56 56" shape-rendering="crispEdges">
<metadata>Made with Pixels to Svg https://codepen.io/shshaw/pen/XbxvNj</metadata>
<path stroke="#ffffff" d="M0 0h56M0 1h8M14 1h13M28 1h12M45 1h11M0 2h6M11 2h3M17 2h10M28 2h9M47 2h9M0 3h5M10 3h5M19 3h7M29 3h6M48 3h8M0 4h6M9 4h4M21 4h5M29 4h5M46 4h10M0 5h9M11 5h1M13 5h1M22 5h4M29 5h4M44 5h12M0 6h11M23 6h2M30 6h2M42 6h14M0 7h13M24 7h1M30 7h1M32 7h1M48 7h8M0 8h15M31 8h2M35 8h1M50 8h6M0 9h17M31 9h1M33 9h2M51 9h5M0 10h13M32 10h3M52 10h4M0 11h10M33 11h1M48 11h8M0 12h8M10 12h1M47 12h9M0 13h6M8 13h2M49 13h7M0 14h5M7 14h4M51 14h5M0 15h4M7 15h1M53 15h3M0 16h4M54 16h2M0 17h14M24 17h4M54 17h2M0 18h11M22 18h7M47 18h9M0 19h9M21 19h8M38 19h2M49 19h7M0 20h7M21 20h1M23 20h2M26 20h3M36 20h5M50 20h6M0 21h6M23 21h2M35 21h2M40 21h2M51 21h5M0 22h5M10 22h3M14 22h1M20 22h5M26 22h4M35 22h1M37 22h1M39 22h3M43 22h1M46 22h10M0 23h12M13 23h1M15 23h2M20 23h1M22 23h4M28 23h2M34 23h8M47 23h9M0 24h11M12 24h5M18 24h10M34 24h7M42 24h1M44 24h1M47 24h9M0 25h11M12 25h5M18 25h2M27 25h4M34 25h3M38 25h2M48 25h8M0 26h10M11 26h4M16 26h2M21 26h1M26 26h1M30 26h1M34 26h4M40 26h5M48 26h8M0 27h10M15 27h2M19 27h2M28 27h3M35 27h5M48 27h8M0 28h10M12 28h1M15 28h1M17 28h1M19 28h4M27 28h4M36 28h1M38 28h1M40 28h1M42 28h1M44 28h1M48 28h8M0 29h11M14 29h1M16 29h1M18 29h1M20 29h10M37 29h1M39 29h1M41 29h1M43 29h1M48 29h8M0 30h11M12 30h1M15 30h1M17 30h1M20 30h10M36 30h1M38 30h1M40 30h1M42 30h1M44 30h1M47 30h9M0 31h12M16 31h1M18 31h1M21 31h8M37 31h1M39 31h1M41 31h1M43 31h1M47 31h9M0 32h13M23 32h4M46 32h10M0 33h14M45 33h11M0 34h16M19 34h1M37 34h2M43 34h13M0 35h20M38 35h18M0 36h19M38 36h18M0 37h19M38 37h18M0 38h16M18 38h1M39 38h17M0 39h15M16 39h2M39 39h17M0 40h13M16 40h2M39 40h17M0 41h9M16 41h2M39 41h17M0 42h8M9 42h2M40 42h16M0 43h8M9 43h2M40 43h16M0 44h8M9 44h1M14 44h3M41 44h15M0 45h9M13 45h5M41 45h15M0 46h10M13 46h5M41 46h15M0 47h10M13 47h5M41 47h15M0 48h11M13 48h5M22 48h5M40 48h16M0 49h11M14 49h3M21 49h9M39 49h17M0 50h12M20 50h9M39 50h17M0 51h13M19 51h10M40 51h16M0 52h15M17 52h12M40 52h16M0 53h30M41 53h15M0 54h30M32 54h3M38 54h3M42 54h14M0 55h31M41 55h15" />
<path stroke="#000000" d="M8 1h6M27 1h1M40 1h5M6 2h1M15 2h2M37 2h2M45 2h2M5 3h1M17 3h2M26 3h1M28 3h1M35 3h1M47 3h1M6 4h2M19 4h2M26 4h1M28 4h1M34 4h1M44 4h2M9 5h1M21 5h1M33 5h1M42 5h2M11 6h2M22 6h1M25 6h1M29 6h1M32 6h1M40 6h2M13 7h2M23 7h1M25 7h1M29 7h1M31 7h1M39 7h8M15 8h2M24 8h2M29 8h2M37 8h4M48 8h2M17 9h2M25 9h1M29 9h2M36 9h2M50 9h1M13 10h7M25 10h1M28 10h2M35 10h1M51 10h1M10 11h3M17 11h4M26 11h1M28 11h1M34 11h1M46 11h2M8 12h2M20 12h2M26 12h1M28 12h1M33 12h1M42 12h5M6 13h2M22 13h1M27 13h2M32 13h1M39 13h3M46 13h3M5 14h1M23 14h1M27 14h1M31 14h1M37 14h2M49 14h2M9 15h6M24 15h1M27 15h1M30 15h2M35 15h2M52 15h1M4 16h15M24 16h4M30 16h1M34 16h1M53 16h1M16 17h5M22 17h2M28 17h2M33 17h1M40 17h14M12 18h10M30 18h1M32 18h1M36 18h10M10 19h11M31 19h1M34 19h4M42 19h6M8 20h9M20 20h1M22 20h1M25 20h1M31 20h1M33 20h3M44 20h6M6 21h9M19 21h1M21 21h1M26 21h3M32 21h3M45 21h1M47 21h4M6 22h3M13 22h1M15 22h2M19 22h1M32 22h3M38 22h1M44 22h2M12 23h1M14 23h1M18 23h1M21 23h1M27 23h1M32 23h2M46 23h1M11 24h1M17 24h1M33 24h1M46 24h1M17 25h1M22 25h4M33 25h1M37 25h1M40 25h5M46 25h2M10 26h1M18 26h1M20 26h1M22 26h4M27 26h2M33 26h1M38 26h1M45 26h1M47 26h1M10 27h5M18 27h1M21 27h3M26 27h2M33 27h1M47 27h1M10 28h2M13 28h1M18 28h1M26 28h1M33 28h1M47 28h1M12 29h1M19 29h1M32 29h3M47 29h1M11 30h1M19 30h1M32 30h3M46 30h1M12 31h1M20 31h1M31 31h1M35 31h1M46 31h1M13 32h1M21 32h1M30 32h1M36 32h1M45 32h1M14 33h1M19 33h4M28 33h2M33 33h6M43 33h2M16 34h3M20 34h1M24 34h9M36 34h1M39 34h4M37 35h1M19 36h1M37 36h1M19 37h2M36 37h2M16 38h2M19 38h4M32 38h4M38 38h1M15 39h1M18 39h1M22 39h10M38 39h1M13 40h3M18 40h3M24 40h1M38 40h1M9 41h4M15 41h1M18 41h1M21 41h1M25 41h1M37 41h2M8 42h1M18 42h1M22 42h1M25 42h1M37 42h1M39 42h1M8 43h1M19 43h1M23 43h1M25 43h1M39 43h1M8 44h1M23 44h1M25 44h1M36 44h1M40 44h1M9 45h1M20 45h1M23 45h1M25 45h1M35 45h1M40 45h1M10 46h1M20 46h1M22 46h1M24 46h1M33 46h2M40 46h1M10 47h1M20 47h1M22 47h5M31 47h2M40 47h1M11 48h1M20 48h2M27 48h7M39 48h1M11 49h1M19 49h2M30 49h2M34 49h5M12 50h1M19 50h1M29 50h1M32 50h1M38 50h1M13 51h1M18 51h1M29 51h1M33 51h5M39 51h1M15 52h2M29 52h1M39 52h1M30 53h1M32 53h1M34 53h1M38 53h1M40 53h1M30 54h2M35 54h1M37 54h1M41 54h1M31 55h10" />
<path stroke="#29843a" d="M7 2h4M14 2h1M27 2h1M39 2h6M6 3h4M15 3h2M27 3h1M36 3h11M8 4h1M13 4h6M27 4h1M35 4h9M10 5h1M12 5h1M14 5h7M26 5h3M34 5h8M13 6h9M26 6h3M33 6h7M15 7h8M26 7h3M33 7h6M47 7h1M17 8h7M26 8h3M33 8h2M36 8h1M41 8h7M19 9h6M26 9h3M32 9h1M35 9h1M38 9h12M20 10h5M26 10h2M30 10h2M36 10h15M13 11h4M21 11h5M27 11h1M29 11h4M35 11h11M11 12h9M22 12h4M27 12h1M29 12h4M34 12h8M10 13h12M23 13h4M29 13h3M33 13h6M42 13h4M6 14h1M11 14h12M24 14h3M28 14h3M32 14h5M39 14h10M4 15h3M8 15h1M15 15h9M25 15h2M28 15h2M32 15h3M37 15h15M19 16h5M28 16h2M31 16h3M35 16h18M14 17h2M21 17h1M30 17h3M34 17h6M11 18h1M31 18h1M33 18h3M46 18h1M9 19h1M32 19h2M48 19h1M7 20h1M32 20h1M20 21h1M22 21h1M25 21h1M29 21h1M37 21h3M43 21h2M46 21h1M5 22h1M9 22h1M36 22h1M11 25h1M21 25h1M26 25h1M15 26h1M19 26h1M29 26h1M39 26h1M24 27h2M40 27h5M23 28h3M11 29h1M32 31h3M31 32h2M15 33h1M23 33h1M30 33h1" />
<path stroke="#a56b31" d="M29 18h1M29 19h2M40 19h2M17 20h3M29 20h2M41 20h3M15 21h4M30 21h2M42 21h1M17 22h2M25 22h1M30 22h2M42 22h1M17 23h1M19 23h1M26 23h1M30 23h2M42 23h4M28 24h5M41 24h1M43 24h1M45 24h1M20 25h1M31 25h2M45 25h1M31 26h2M46 26h1M17 27h1M31 27h2M34 27h1M45 27h2M14 28h1M16 28h1M31 28h2M34 28h2M37 28h1M39 28h1M41 28h1M43 28h1M45 28h2M13 29h1M15 29h1M17 29h1M30 29h2M35 29h2M38 29h1M40 29h1M42 29h1M44 29h3M13 30h2M16 30h1M18 30h1M30 30h2M35 30h1M37 30h1M39 30h1M41 30h1M43 30h1M45 30h1M13 31h3M17 31h1M19 31h1M29 31h2M36 31h1M38 31h1M40 31h1M42 31h1M44 31h2M14 32h7M22 32h1M27 32h3M33 32h3M37 32h8M16 33h3M24 33h4M31 33h2M39 33h4M21 34h3M33 34h3M20 35h17M20 36h17M21 37h15M23 38h9M36 38h2M19 39h3M32 39h6M21 40h3M25 40h13M13 41h2M19 41h2M22 41h3M26 41h11M11 42h7M19 42h3M23 42h2M26 42h11M38 42h1M11 43h8M20 43h3M24 43h1M26 43h13M10 44h4M17 44h6M24 44h1M26 44h10M37 44h3M10 45h3M18 45h2M21 45h2M24 45h1M26 45h9M36 45h4M11 46h2M18 46h2M21 46h1M23 46h1M25 46h8M35 46h5M11 47h2M18 47h2M21 47h1M27 47h4M33 47h7M12 48h1M18 48h2M34 48h5M12 49h2M17 49h2M32 49h2M13 50h6M30 50h2M33 50h5M14 51h4M30 51h3M38 51h1M30 52h9M31 53h1M33 53h1M35 53h3M39 53h1M36 54h1" />
</svg>