<svg xmlns="http://www.w3.org/2000/svg" viewBox="0 -0.5 56 56" shape-rendering="crispEdges">
<metadata>Made with Pixels to Svg https://codepen.io/shshaw/pen/XbxvNj</metadata>
<path stroke="#ffffff" d="M0 0h56M0 1h56M0 2h56M0 3h26M29 3h27M0 4h25M26 4h2M31 4h25M0 5h26M28 5h1M33 5h1M36 5h20M0 6h27M28 6h2M31 6h1M34 6h1M36 6h20M0 7h27M29 7h2M34 7h1M36 7h20M0 8h5M7 8h20M28 8h1M30 8h2M36 8h20M0 9h4M7 9h20M30 9h2M37 9h19M0 10h4M7 10h22M30 10h3M38 10h18M0 11h3M4 11h1M7 11h22M30 11h3M38 11h18M0 12h3M9 12h21M31 12h3M36 12h1M39 12h17M6 13h2M9 13h20M32 13h2M37 13h1M40 13h16M1 14h2M8 14h20M29 14h3M33 14h1M36 14h1M38 14h2M41 14h15M0 15h1M2 15h2M8 15h21M30 15h2M33 15h2M37 15h1M40 15h16M0 16h2M8 16h22M32 16h3M38 16h1M40 16h16M0 17h2M3 17h1M9 17h13M27 17h3M31 17h4M37 17h1M40 17h16M0 18h2M3 18h1M12 18h7M31 18h4M40 18h16M0 19h2M3 19h2M9 19h2M12 19h5M19 19h3M30 19h5M40 19h16M0 20h2M3 20h2M9 20h1M11 20h5M17 20h6M30 20h4M40 20h16M0 21h2M3 21h2M10 21h1M12 21h3M16 21h7M30 21h4M40 21h16M0 22h3M4 22h2M9 22h1M11 22h1M15 22h7M30 22h4M38 22h2M41 22h15M0 23h3M4 23h2M10 23h1M12 23h1M15 23h6M22 23h1M30 23h3M40 23h16M0 24h3M4 24h3M11 24h1M14 24h4M19 24h1M21 24h1M32 24h1M38 24h18M0 25h4M5 25h2M14 25h2M18 25h1M20 25h1M39 25h17M0 26h4M5 26h3M13 26h2M28 26h1M39 26h17M0 27h3M4 27h1M6 27h3M10 27h1M13 27h2M27 27h2M39 27h17M0 28h3M7 28h3M13 28h1M25 28h1M27 28h2M40 28h16M0 29h7M8 29h3M13 29h2M16 29h1M42 29h14M0 30h8M10 30h1M13 30h2M16 30h1M18 30h1M44 30h12M0 31h10M13 31h3M23 31h2M38 31h2M45 31h11M0 32h12M14 32h2M20 32h2M25 32h1M37 32h4M46 32h10M0 33h13M14 33h3M23 33h3M38 33h2M48 33h8M0 34h13M14 34h2M17 34h1M20 34h3M26 34h1M51 34h5M0 35h14M15 35h2M20 35h1M24 35h3M52 35h4M0 36h14M16 36h2M21 36h2M44 36h2M52 36h4M0 37h13M23 37h1M25 37h2M43 37h4M48 37h1M52 37h4M0 38h13M18 38h1M22 38h1M42 38h6M49 38h1M53 38h3M0 39h13M18 39h2M42 39h6M49 39h1M53 39h3M0 40h14M19 40h2M42 40h6M49 40h2M53 40h3M0 41h15M20 41h2M42 41h7M50 41h1M54 41h2M0 42h15M16 42h1M19 42h1M42 42h7M50 42h1M54 42h2M0 43h14M15 43h1M18 43h3M22 43h1M24 43h1M35 43h3M43 43h6M54 43h2M0 44h13M18 44h2M23 44h1M25 44h1M34 44h3M43 44h5M54 44h2M0 45h8M13 45h2M17 45h2M20 45h2M34 45h1M44 45h4M49 45h2M54 45h2M0 46h5M9 46h5M17 46h2M20 46h1M35 46h2M44 46h3M48 46h2M54 46h2M0 47h3M16 47h3M33 47h4M43 47h3M47 47h2M55 47h1M0 48h2M3 48h2M15 48h5M32 48h4M43 48h2M55 48h1M0 49h1M2 49h2M14 49h6M29 49h2M32 49h4M43 49h2M46 49h1M48 49h1M55 49h1M0 50h1M2 50h1M12 50h9M28 50h3M43 50h3M47 50h1M50 50h1M52 50h1M55 50h1M0 51h1M2 51h1M8 51h1M10 51h10M21 51h1M29 51h1M31 51h2M43 51h3M47 51h1M49 51h2M52 51h1M54 51h2M0 52h2M8 52h1M10 52h10M23 52h3M30 52h2M39 52h2M43 52h3M48 52h2M51 52h1M54 52h2M0 53h3M6 53h1M9 53h20M30 53h1M33 53h1M39 53h3M44 53h6M53 53h3M0 54h4M6 54h23M32 54h3M44 54h12M0 55h40M43 55h13" />
<path stroke="#000000" d="M26 3h3M25 4h1M29 4h2M26 5h1M31 5h2M34 5h1M27 6h1M33 6h1M35 6h1M27 7h2M33 7h1M35 7h1M5 8h1M27 8h1M34 8h2M4 9h1M6 9h1M28 9h1M36 9h1M4 10h1M6 10h1M29 10h1M37 10h1M3 11h1M6 11h1M29 11h1M37 11h1M3 12h1M7 12h2M30 12h1M38 12h1M1 13h2M5 13h1M8 13h1M29 13h3M38 13h2M0 14h1M6 14h2M28 14h1M40 14h1M1 15h1M7 15h1M29 15h1M38 15h2M2 16h1M7 16h1M30 16h1M39 16h1M2 17h1M8 17h1M22 17h5M30 17h1M39 17h1M2 18h1M9 18h2M20 18h2M27 18h4M39 18h1M2 19h1M8 19h1M11 19h1M18 19h1M29 19h1M39 19h1M2 20h1M8 20h1M10 20h1M16 20h1M29 20h1M39 20h1M11 21h1M15 21h1M29 21h1M38 21h2M3 22h1M12 22h2M29 22h1M40 22h1M3 23h1M14 23h1M37 23h3M13 24h1M30 24h1M37 24h1M4 25h1M13 25h1M28 25h2M31 25h1M36 25h1M38 25h1M4 26h1M10 26h1M27 26h1M29 26h1M33 26h3M38 26h1M3 27h1M9 27h1M12 27h1M26 27h1M29 27h1M38 27h1M3 28h4M10 28h1M12 28h1M14 28h3M24 28h1M26 28h1M39 28h1M7 29h1M12 29h1M15 29h1M17 29h2M39 29h3M8 30h2M17 30h1M23 30h2M38 30h2M42 30h2M10 31h2M20 31h3M25 31h1M37 31h1M44 31h1M12 32h2M19 32h1M22 32h2M26 32h1M36 32h1M44 32h2M13 33h1M19 33h1M21 33h2M26 33h1M36 33h1M43 33h1M46 33h2M13 34h1M19 34h1M23 34h2M27 34h3M34 34h3M43 34h1M48 34h3M14 35h1M22 35h2M27 35h1M30 35h4M36 35h1M44 35h2M49 35h1M51 35h1M14 36h2M20 36h1M23 36h3M27 36h1M37 36h1M43 36h1M46 36h3M51 36h1M13 37h1M16 37h5M24 37h1M27 37h1M38 37h2M41 37h2M47 37h1M51 37h1M13 38h1M17 38h1M21 38h1M23 38h4M40 38h2M48 38h1M17 39h1M39 39h3M48 39h1M52 39h1M14 40h1M16 40h3M26 40h5M36 40h3M41 40h1M48 40h1M52 40h1M15 41h1M18 41h2M23 41h3M31 41h5M37 41h3M41 41h1M49 41h1M53 41h1M15 42h1M18 42h1M20 42h3M35 42h2M40 42h2M49 42h1M53 42h1M14 43h1M17 43h1M21 43h1M34 43h1M42 43h1M49 43h1M53 43h1M14 44h2M17 44h1M20 44h1M22 44h1M27 44h4M33 44h1M42 44h1M48 44h4M53 44h1M9 45h4M16 45h1M19 45h1M23 45h1M25 45h2M31 45h3M35 45h3M43 45h1M48 45h1M52 45h2M5 46h3M16 46h1M19 46h1M24 46h2M32 46h1M38 46h2M43 46h1M47 46h1M53 46h1M3 47h2M7 47h2M15 47h1M19 47h1M26 47h2M32 47h1M40 47h1M42 47h1M54 47h1M2 48h1M5 48h1M9 48h1M14 48h1M20 48h2M25 48h2M28 48h4M41 48h2M45 48h1M47 48h2M54 48h1M1 49h1M5 49h1M9 49h1M12 49h2M20 49h1M22 49h3M28 49h1M31 49h1M42 49h1M45 49h1M47 49h1M49 49h2M54 49h1M1 50h1M4 50h1M7 50h5M21 50h2M26 50h2M31 50h3M39 50h2M42 50h1M46 50h1M49 50h1M51 50h1M54 50h1M1 51h1M3 51h2M7 51h1M9 51h1M20 51h1M23 51h3M28 51h1M30 51h1M33 51h1M38 51h1M40 51h3M46 51h1M48 51h1M51 51h1M53 51h1M2 52h2M5 52h2M9 52h1M20 52h3M26 52h4M33 52h1M37 52h2M42 52h1M46 52h2M50 52h1M53 52h1M3 53h1M5 53h1M7 53h2M29 53h1M32 53h1M34 53h1M37 53h2M43 53h1M50 53h3M4 54h2M29 54h3M35 54h3M39 54h1M43 54h1M40 55h3" />
<path stroke="#a5a573" d="M28 4h1M27 5h1M29 5h2M35 5h1M30 6h1M32 6h1M31 7h2M6 8h1M29 8h1M32 8h2M5 9h1M27 9h1M29 9h1M32 9h4M5 10h1M33 10h4M5 11h1M33 11h4M4 12h3M34 12h2M37 12h1M0 13h1M3 13h2M34 13h3M3 14h3M32 14h1M34 14h2M37 14h1M4 15h3M32 15h1M35 15h2M3 16h4M31 16h1M35 16h3M4 17h4M35 17h2M38 17h1M4 18h5M11 18h1M35 18h4M5 19h3M35 19h4M5 20h3M34 20h5M2 21h1M5 21h5M34 21h4M6 22h3M10 22h1M34 22h4M6 23h4M11 23h1M13 23h1M33 23h4M3 24h1M7 24h4M12 24h1M31 24h1M33 24h4M7 25h6M32 25h4M8 26h2M11 26h2M5 27h1M11 27h1M11 28h1M11 29h1M11 30h2M12 31h1M24 32h1M20 33h1M25 34h1M21 35h1M26 36h1M21 37h2M4 49h1M3 50h1M48 50h1M53 50h1M22 51h1M26 51h2M39 51h1M4 52h1M7 52h1M32 52h1M41 52h1M52 52h1M4 53h1M31 53h1M42 53h1M38 54h1M40 54h3" />
<path stroke="#8c523a" d="M19 18h1M22 18h5M17 19h1M22 19h7M23 20h6M23 21h6M14 22h1M22 22h7M21 23h1M23 23h7M18 24h1M20 24h1M22 24h8M16 25h2M19 25h1M21 25h7M30 25h1M37 25h1M15 26h12M30 26h3M36 26h2M15 27h11M30 27h8M17 28h7M29 28h10M19 29h20M15 30h1M19 30h4M25 30h13M40 30h2M16 31h4M26 31h11M40 31h4M16 32h3M27 32h9M41 32h3M17 33h2M27 33h9M37 33h1M40 33h3M44 33h2M16 34h1M18 34h1M30 34h4M37 34h6M44 34h4M17 35h3M28 35h2M34 35h2M37 35h7M46 35h3M50 35h1M18 36h2M28 36h9M38 36h5M49 36h2M14 37h2M28 37h10M40 37h1M49 37h2M14 38h3M19 38h2M27 38h13M50 38h3M13 39h4M20 39h19M50 39h2M15 40h1M21 40h5M31 40h5M39 40h2M51 40h1M16 41h2M22 41h1M26 41h5M36 41h1M40 41h1M51 41h2M17 42h1M23 42h12M37 42h3M51 42h2M16 43h1M23 43h1M25 43h9M38 43h4M50 43h3M13 44h1M16 44h1M21 44h1M24 44h1M26 44h1M31 44h2M37 44h5M52 44h1M8 45h1M15 45h1M22 45h1M24 45h1M27 45h4M38 45h5M51 45h1M8 46h1M14 46h2M21 46h3M26 46h6M33 46h2M37 46h1M40 46h3M50 46h3M5 47h2M9 47h6M20 47h6M28 47h4M37 47h3M41 47h1M46 47h1M49 47h5M6 48h3M10 48h4M22 48h3M27 48h1M36 48h5M46 48h1M49 48h5M6 49h3M10 49h2M21 49h1M25 49h3M36 49h6M51 49h3M5 50h2M23 50h3M34 50h5M41 50h1M5 51h2M34 51h4M34 52h3M35 53h2" />
</svg>