<svg xmlns="http://www.w3.org/2000/svg" viewBox="0 -0.5 40 40" shape-rendering="crispEdges">
<metadata>Made with Pixels to Svg https://codepen.io/shshaw/pen/XbxvNj</metadata>
<path stroke="#ffffff" d="M0 0h40M0 1h16M23 1h17M0 2h14M16 2h2M25 2h15M0 3h13M14 3h5M27 3h13M0 4h12M13 4h6M28 4h12M0 5h11M13 5h6M29 5h11M0 6h11M13 6h5M29 6h11M0 7h10M14 7h2M30 7h10M0 8h10M30 8h10M0 9h9M30 9h10M0 10h9M30 10h10M0 11h9M10 11h1M29 11h11M0 12h9M10 12h1M12 12h1M20 12h1M29 12h11M0 13h10M12 13h1M19 13h2M30 13h10M0 14h10M11 14h3M31 14h9M0 15h11M13 15h1M31 15h9M0 16h12M32 16h8M0 17h11M32 17h8M0 18h11M12 18h1M14 18h2M20 18h3M31 18h9M0 19h11M12 19h1M15 19h1M22 19h2M30 19h10M0 20h12M30 20h10M0 21h12M30 21h10M0 22h13M15 22h1M30 22h10M0 23h14M15 23h1M30 23h10M0 24h14M30 24h10M0 25h15M30 25h10M0 26h15M29 26h11M0 27h14M29 27h11M0 28h14M29 28h11M0 29h14M29 29h11M0 30h14M28 30h12M0 31h14M28 31h12M0 32h15M17 32h2M27 32h13M0 33h15M17 33h2M27 33h13M0 34h16M17 34h1M26 34h14M0 35h16M25 35h15M0 36h16M17 36h1M24 36h16M0 37h17M23 37h17M0 38h18M21 38h19M0 39h40" />
<path stroke="#a57342" d="M16 1h1M14 2h1M26 4h1M11 5h1M26 5h2M25 6h3M10 7h1M24 7h5M22 8h7M9 9h1M24 9h5M11 10h1M25 10h4M25 11h3M25 12h3M23 13h4M28 13h1M20 14h1M24 14h1M27 14h3M22 15h1M25 15h5M13 16h1M23 16h1M27 16h4M14 17h4M19 17h2M28 17h3M13 18h1M29 18h1M14 19h1M18 19h2M21 19h1M17 20h4M22 20h1M27 20h2M16 21h1M18 21h3M26 21h2M16 22h1M19 22h2M26 22h1M28 22h1M16 23h1M25 23h1M27 23h2M14 24h1M16 24h1M21 24h1M24 24h1M27 24h2M15 25h1M17 25h1M21 25h1M27 25h2M17 26h1M20 26h1M23 26h1M27 26h1M14 27h1M17 27h1M20 27h1M27 27h1M16 28h1M18 28h1M21 28h1M26 28h2M16 29h1M20 29h1M23 29h1M26 29h2M15 30h2M19 30h2M22 30h1M26 30h1M14 31h3M20 31h2M25 31h2M16 32h1M25 32h1M16 33h1M20 33h2M24 33h2M20 34h3M24 34h1M20 35h4M22 36h1M19 37h2" />
<path stroke="#000000" d="M17 1h6M15 2h1M23 2h2M13 3h1M25 3h2M12 4h1M27 4h1M28 5h1M11 6h1M28 6h1M29 7h1M10 8h1M29 8h1M10 9h1M21 9h3M29 9h1M9 10h2M20 10h5M29 10h1M9 11h1M11 11h1M19 11h6M28 11h1M9 12h1M11 12h1M19 12h1M21 12h4M28 12h1M10 13h2M18 13h1M21 13h2M27 13h1M29 13h1M10 14h1M18 14h2M25 14h2M30 14h1M11 15h2M23 15h2M30 15h1M12 16h1M19 16h4M31 16h1M11 17h1M13 17h1M18 17h1M31 17h1M11 18h1M17 18h3M30 18h1M11 19h1M17 19h1M20 19h1M27 19h3M12 20h1M14 20h3M21 20h1M23 20h4M29 20h1M12 21h1M14 21h1M21 21h1M28 21h2M13 22h2M21 22h1M27 22h1M29 22h1M14 23h1M20 23h1M26 23h1M29 23h1M20 24h1M25 24h1M29 24h1M20 25h1M22 25h2M29 25h1M15 26h1M19 26h1M28 26h1M16 27h1M19 27h1M23 27h1M28 27h1M14 28h1M17 28h1M19 28h2M23 28h1M28 28h1M14 29h1M17 29h3M21 29h1M28 29h1M14 30h1M17 30h1M21 30h1M27 30h1M17 31h3M22 31h1M27 31h1M15 32h1M20 32h3M26 32h1M15 33h1M22 33h1M26 33h1M16 34h1M23 34h1M25 34h1M16 35h4M24 35h1M16 36h1M20 36h2M23 36h1M17 37h1M21 37h2M18 38h3" />
<path stroke="#d6ce19" d="M18 2h5M19 3h6M19 4h7M12 5h1M19 5h7M12 6h1M18 6h7M11 7h3M16 7h8M11 8h11M11 9h10M12 10h8M12 11h7M13 12h6M13 13h5M14 14h4M21 14h3M14 15h8M14 16h5M24 16h3M12 17h1M21 17h7M16 18h1M23 18h6M13 19h1M16 19h1M24 19h3M13 20h1M13 21h1M15 21h1M17 21h1M22 21h4M17 22h2M22 22h4M17 23h3M21 23h4M15 24h1M17 24h3M22 24h2M26 24h1M16 25h1M18 25h2M24 25h3M16 26h1M18 26h1M21 26h2M24 26h3M15 27h1M18 27h1M21 27h2M24 27h3M15 28h1M22 28h1M24 28h2M15 29h1M22 29h1M24 29h2M18 30h1M23 30h3M23 31h2M19 32h1M23 32h2M19 33h1M23 33h1M18 34h2M18 36h2M18 37h1" />
</svg>