<svg xmlns="http://www.w3.org/2000/svg" viewBox="0 -0.5 56 56" shape-rendering="crispEdges">
<metadata>Made with Pixels to Svg https://codepen.io/shshaw/pen/XbxvNj</metadata>
<path stroke="#ffffff" d="M0 0h1M4 0h52M2 1h2M7 1h49M0 2h1M4 2h2M9 2h47M0 3h2M8 3h1M11 3h42M0 4h3M10 4h1M12 4h38M0 5h4M12 5h35M55 5h1M0 6h4M15 6h30M54 6h2M0 7h5M13 7h2M16 7h24M43 7h1M54 7h2M0 8h5M15 8h25M41 8h2M53 8h3M0 9h5M16 9h25M53 9h3M0 10h6M14 10h1M16 10h24M41 10h1M52 10h4M0 11h6M15 11h25M52 11h4M0 12h6M15 12h25M51 12h5M0 13h6M14 13h4M20 13h21M50 13h6M0 14h7M14 14h4M19 14h1M21 14h12M35 14h6M50 14h6M0 15h7M14 15h4M19 15h2M22 15h10M33 15h1M35 15h6M50 15h6M0 16h7M14 16h4M20 16h1M22 16h9M32 16h1M35 16h6M50 16h6M0 17h7M14 17h4M21 17h1M23 17h7M35 17h6M49 17h7M0 18h7M14 18h4M23 18h7M35 18h5M49 18h7M0 19h7M15 19h4M24 19h5M34 19h6M48 19h8M0 20h7M15 20h4M34 20h5M48 20h8M0 21h8M16 21h3M34 21h5M48 21h8M0 22h10M17 22h2M34 22h4M48 22h8M0 23h12M20 23h1M33 23h5M48 23h8M0 24h13M20 24h3M30 24h1M33 24h4M48 24h8M0 25h14M28 25h3M33 25h2M48 25h8M0 26h15M24 26h3M41 26h4M47 26h9M0 27h16M22 27h6M38 27h18M0 28h16M21 28h2M24 28h5M36 28h20M0 29h17M25 29h2M28 29h2M33 29h23M0 30h17M33 30h23M0 31h16M19 31h1M34 31h22M0 32h15M19 32h2M34 32h22M0 33h14M19 33h3M35 33h21M0 34h12M17 34h1M19 34h4M35 34h21M0 35h9M16 35h3M20 35h2M23 35h1M36 35h20M0 36h7M16 36h3M22 36h1M24 36h1M26 36h1M32 36h1M37 36h19M0 37h5M15 37h5M23 37h1M25 37h1M27 37h1M31 37h2M38 37h18M0 38h4M5 38h2M14 38h8M29 38h5M39 38h17M0 39h3M4 39h2M14 39h20M38 39h1M40 39h16M0 40h2M3 40h3M13 40h22M39 40h1M42 40h14M0 41h1M2 41h2M13 41h22M40 41h2M43 41h13M0 42h1M2 42h1M13 42h22M40 42h3M44 42h12M1 43h1M5 43h4M13 43h22M41 43h3M45 43h11M3 44h8M13 44h23M43 44h1M46 44h10M2 45h34M37 45h1M44 45h1M46 45h10M0 46h36M37 46h1M47 46h9M0 47h36M39 47h2M47 47h9M0 48h36M38 48h5M48 48h8M0 49h45M48 49h8M0 50h46M48 50h8M0 51h56M0 52h56M0 53h56M0 54h56M0 55h56" />
<path stroke="#000000" d="M1 0h3M0 1h1M4 1h3M1 2h3M7 2h2M2 3h1M4 3h3M9 3h2M53 3h3M3 4h1M7 4h2M11 4h1M50 4h3M55 4h1M4 5h1M9 5h1M11 5h1M47 5h3M53 5h2M4 6h1M10 6h1M12 6h2M45 6h2M50 6h4M5 7h1M7 7h1M10 7h1M12 7h1M42 7h1M44 7h1M47 7h3M53 7h1M5 8h2M8 8h1M11 8h1M14 8h1M43 8h1M45 8h2M52 8h1M5 9h1M7 9h1M11 9h1M13 9h2M41 9h1M45 9h1M51 9h2M6 10h1M8 10h1M10 10h1M12 10h1M15 10h1M42 10h1M44 10h1M50 10h2M6 11h2M9 11h1M11 11h2M14 11h1M40 11h1M44 11h1M47 11h1M49 11h1M51 11h1M6 12h1M8 12h1M10 12h1M12 12h1M14 12h1M40 12h1M43 12h1M48 12h1M50 12h1M6 13h2M9 13h1M11 13h1M13 13h1M41 13h1M43 13h1M45 13h1M47 13h1M49 13h1M7 14h2M10 14h2M13 14h1M18 14h1M41 14h1M43 14h2M46 14h1M48 14h2M7 15h1M9 15h1M11 15h1M13 15h1M18 15h1M34 15h1M41 15h1M43 15h1M45 15h1M47 15h3M7 16h2M10 16h2M13 16h1M18 16h1M21 16h1M34 16h1M41 16h1M43 16h2M46 16h4M7 17h1M9 17h1M11 17h1M13 17h1M18 17h1M22 17h1M30 17h1M34 17h1M41 17h1M43 17h1M45 17h4M7 18h2M11 18h1M13 18h1M18 18h1M22 18h1M30 18h1M34 18h1M40 18h1M42 18h1M45 18h4M7 19h1M12 19h1M14 19h1M19 19h1M23 19h1M29 19h1M33 19h1M40 19h1M42 19h1M44 19h4M7 20h1M12 20h1M14 20h1M19 20h1M24 20h5M33 20h1M39 20h1M41 20h1M44 20h4M8 21h2M12 21h1M14 21h2M19 21h1M33 21h1M39 21h1M41 21h1M44 21h4M10 22h2M13 22h1M16 22h1M21 22h1M33 22h1M38 22h1M40 22h1M44 22h4M12 23h1M14 23h1M17 23h2M22 23h1M29 23h2M32 23h1M38 23h1M40 23h1M45 23h3M13 24h1M15 24h1M18 24h1M23 24h1M28 24h1M32 24h1M37 24h1M39 24h1M46 24h2M14 25h3M25 25h2M32 25h1M35 25h2M38 25h1M41 25h4M47 25h1M15 26h1M17 26h1M23 26h1M27 26h1M32 26h3M38 26h3M45 26h2M16 27h1M18 27h1M21 27h1M28 27h1M35 27h3M16 28h3M20 28h1M23 28h1M29 28h1M33 28h3M17 29h2M20 29h5M27 29h1M30 29h1M32 29h1M17 30h1M26 30h5M32 30h1M16 31h1M33 31h1M15 32h1M17 32h1M33 32h1M14 33h1M17 33h1M34 33h1M12 34h2M16 34h1M18 34h1M32 34h1M34 34h1M9 35h3M15 35h1M19 35h1M31 35h2M35 35h1M7 36h2M15 36h1M19 36h2M31 36h1M33 36h1M36 36h1M5 37h2M14 37h1M20 37h2M29 37h2M33 37h1M37 37h1M4 38h1M13 38h1M22 38h7M34 38h1M38 38h1M3 39h1M13 39h1M34 39h1M39 39h1M2 40h1M12 40h1M35 40h1M40 40h2M1 41h1M12 41h1M35 41h1M42 41h1M1 42h1M5 42h4M12 42h1M35 42h1M43 42h1M0 43h1M3 43h2M9 43h2M12 43h1M35 43h1M44 43h1M0 44h1M2 44h1M11 44h2M36 44h1M44 44h2M0 45h2M36 45h1M45 45h1M36 46h1M39 46h2M46 46h1M36 47h1M38 47h1M41 47h2M46 47h1M36 48h2M43 48h2M47 48h1M45 49h1M47 49h1M46 50h2" />
<path stroke="#9442ad" d="M1 1h1M6 2h1M7 3h1M9 4h1M53 4h2M10 5h1M50 5h3M11 6h1M14 6h1M47 6h3M11 7h1M15 7h1M40 7h2M45 7h2M12 8h2M40 8h1M44 8h1M12 9h1M15 9h1M42 9h3M13 10h1M40 10h1M43 10h1M13 11h1M41 11h3M13 12h1M41 12h2M12 13h1M18 13h2M42 13h1M12 14h1M20 14h1M33 14h2M42 14h1M12 15h1M21 15h1M32 15h1M42 15h1M12 16h1M19 16h1M31 16h1M33 16h1M42 16h1M12 17h1M19 17h2M31 17h3M42 17h1M12 18h1M19 18h3M31 18h3M41 18h1M13 19h1M20 19h3M30 19h3M41 19h1M13 20h1M20 20h4M29 20h4M40 20h1M13 21h1M20 21h13M40 21h1M14 22h2M19 22h2M22 22h11M39 22h1M15 23h2M19 23h1M23 23h6M31 23h1M39 23h1M16 24h2M19 24h1M24 24h4M31 24h1M38 24h1M17 25h7M27 25h1M31 25h1M37 25h1M18 26h4M28 26h4M35 26h2M19 27h2M29 27h6M19 28h1M30 28h3M19 29h1M31 29h1M18 30h8M31 30h1M17 31h2M20 31h13M16 32h1M18 32h1M21 32h12M15 33h2M18 33h1M22 33h12M14 34h2M23 34h9M33 34h1M12 35h3M22 35h1M24 35h7M33 35h2M9 36h6M21 36h1M23 36h1M25 36h1M27 36h4M34 36h2M7 37h7M22 37h1M24 37h1M26 37h1M28 37h1M34 37h3M7 38h6M35 38h3M6 39h7M35 39h3M6 40h6M36 40h3M4 41h8M36 41h4M3 42h2M9 42h3M36 42h4M2 43h1M11 43h1M36 43h5M1 44h1M37 44h6M38 45h6M38 46h1M41 46h5M37 47h1M43 47h3M45 48h2M46 49h1" />
<path stroke="#214a7b" d="M3 3h1M4 4h3M5 5h4M5 6h5M6 7h1M8 7h2M50 7h3M7 8h1M9 8h2M47 8h5M6 9h1M8 9h3M46 9h5M7 10h1M9 10h1M11 10h1M45 10h5M8 11h1M10 11h1M45 11h2M48 11h1M50 11h1M7 12h1M9 12h1M11 12h1M44 12h4M49 12h1M8 13h1M10 13h1M44 13h1M46 13h1M48 13h1M9 14h1M45 14h1M47 14h1M8 15h1M10 15h1M44 15h1M46 15h1M9 16h1M45 16h1M8 17h1M10 17h1M44 17h1M9 18h2M43 18h2M8 19h4M43 19h1M8 20h4M42 20h2M10 21h2M42 21h2M12 22h1M41 22h3M13 23h1M21 23h1M41 23h4M14 24h1M29 24h1M40 24h6M24 25h1M39 25h2M45 25h2M16 26h1M22 26h1M37 26h1M17 27h1" />
</svg>