<svg xmlns="http://www.w3.org/2000/svg" viewBox="0 -0.5 48 48" shape-rendering="crispEdges">
<metadata>Made with Pixels to Svg https://codepen.io/shshaw/pen/XbxvNj</metadata>
<path stroke="#ffffff" d="M0 0h48M0 1h48M0 2h48M0 3h48M0 4h10M14 4h34M0 5h8M11 5h2M16 5h32M0 6h7M9 6h6M17 6h18M38 6h10M0 7h6M8 7h8M18 7h15M36 7h2M40 7h8M0 8h5M7 8h10M19 8h13M33 8h6M41 8h7M0 9h5M7 9h11M19 9h12M32 9h8M42 9h6M0 10h4M6 10h13M20 10h10M31 10h10M42 10h6M0 11h4M6 11h13M21 11h8M31 11h10M43 11h5M0 12h3M6 12h14M21 12h8M30 12h12M43 12h5M0 13h3M7 13h13M22 13h6M30 13h12M43 13h5M0 14h3M7 14h14M22 14h6M29 14h13M44 14h4M0 15h2M8 15h13M23 15h5M29 15h13M44 15h4M0 16h2M9 16h13M23 16h4M29 16h12M44 16h4M0 17h1M10 17h12M23 17h4M28 17h13M44 17h4M0 18h1M10 18h12M24 18h3M28 18h13M44 18h4M2 19h2M10 19h13M24 19h3M28 19h12M44 19h4M1 20h4M11 20h12M25 20h2M28 20h11M45 20h3M1 21h4M11 21h12M25 21h1M28 21h10M45 21h3M2 22h2M11 22h13M25 22h1M28 22h10M46 22h2M11 23h13M25 23h1M28 23h9M46 23h2M0 24h1M11 24h13M28 24h9M47 24h1M0 25h1M10 25h14M28 25h8M39 25h2M47 25h1M0 26h2M10 26h9M28 26h8M38 26h4M47 26h1M0 27h3M9 27h7M30 27h6M38 27h4M47 27h1M0 28h5M7 28h6M20 28h3M32 28h4M39 28h2M47 28h1M0 29h11M19 29h3M34 29h2M46 29h2M0 30h10M35 30h2M46 30h2M0 31h9M36 31h1M45 31h3M0 32h8M36 32h2M44 32h4M0 33h8M37 33h3M42 33h6M0 34h7M37 34h11M0 35h7M38 35h10M0 36h7M38 36h10M0 37h8M37 37h11M0 38h5M44 38h4M0 39h2M46 39h2M0 40h1M47 40h1M0 41h1M10 41h1M47 41h1M0 42h2M9 42h4M32 42h1M46 42h2M0 43h3M7 43h8M31 43h4M45 43h3M0 44h14M26 44h1M32 44h6M43 44h5M0 45h14M19 45h8M32 45h16M0 46h15M18 46h9M32 46h16M0 47h28M31 47h17" />
<path stroke="#6b52e6" d="M10 4h1M13 4h1M8 5h1M15 5h1M35 7h1M18 8h1M39 8h1M5 9h1M40 9h1M20 11h1M30 11h1M41 11h1M3 12h1M21 13h1M29 13h1M2 15h1M22 15h1M28 16h1M1 17h1M23 18h1M0 19h1M24 20h1M26 24h1M26 25h1M19 27h7M16 28h4M23 28h7M13 29h6M22 29h10M11 30h23M10 31h3M15 31h1M17 31h18M9 32h2M18 32h9M31 32h4M9 33h1M12 33h1M16 33h1M18 33h7M32 33h4M8 34h2M14 34h1M18 34h6M25 34h1M30 34h1M33 34h3M8 35h2M17 35h7M27 35h1M33 35h4M8 36h3M15 36h4M20 36h5M32 36h5M9 37h10M20 37h6M30 37h6M9 38h27M7 39h2M10 39h25M38 39h3M5 40h3M11 40h23M35 40h2M40 40h2M13 41h19M36 41h3M16 42h14M20 43h6M15 44h4M28 44h3M15 45h3M28 45h3M28 46h3" />
<path stroke="#000000" d="M11 4h2M9 5h2M13 5h2M7 6h2M15 6h2M35 6h3M6 7h2M16 7h2M33 7h2M38 7h2M5 8h2M17 8h1M32 8h1M40 8h1M6 9h1M18 9h1M31 9h1M41 9h1M4 10h2M19 10h1M30 10h1M41 10h1M4 11h2M19 11h1M29 11h1M42 11h1M5 12h1M20 12h1M29 12h1M42 12h1M3 13h1M5 13h2M20 13h1M28 13h1M42 13h1M3 14h1M6 14h1M21 14h1M28 14h1M42 14h2M7 15h1M21 15h1M28 15h1M42 15h2M2 16h1M8 16h1M22 16h1M27 16h1M41 16h1M43 16h1M9 17h1M22 17h1M27 17h1M41 17h1M43 17h1M1 18h1M9 18h1M22 18h1M27 18h1M41 18h1M43 18h1M9 19h1M23 19h1M27 19h1M40 19h1M43 19h1M0 20h1M10 20h1M23 20h1M27 20h1M39 20h1M44 20h1M0 21h1M10 21h1M23 21h2M26 21h2M38 21h1M44 21h1M0 22h1M10 22h1M24 22h1M26 22h2M38 22h1M45 22h1M0 23h1M10 23h1M24 23h1M26 23h2M37 23h1M45 23h1M1 24h1M10 24h1M24 24h2M27 24h1M37 24h1M46 24h1M1 25h1M9 25h1M24 25h2M27 25h1M36 25h1M46 25h1M2 26h1M9 26h1M19 26h9M36 26h1M46 26h1M3 27h2M7 27h2M16 27h3M26 27h4M36 27h1M46 27h1M5 28h2M13 28h3M30 28h2M36 28h1M46 28h1M11 29h2M32 29h2M36 29h1M45 29h1M10 30h1M34 30h1M37 30h1M45 30h1M9 31h1M35 31h1M37 31h1M44 31h1M8 32h1M14 32h1M29 32h1M35 32h1M38 32h2M42 32h2M8 33h1M13 33h3M28 33h1M36 33h1M40 33h2M7 34h1M11 34h3M26 34h4M36 34h1M7 35h1M13 35h1M28 35h1M30 35h2M37 35h1M7 36h1M13 36h1M19 36h1M27 36h1M37 36h1M8 37h1M19 37h1M27 37h1M36 37h1M5 38h4M36 38h8M2 39h3M9 39h1M35 39h1M44 39h2M1 40h1M10 40h1M34 40h1M46 40h1M1 41h1M9 41h1M11 41h2M32 41h2M46 41h1M2 42h1M7 42h2M13 42h3M30 42h2M33 42h2M45 42h1M3 43h4M15 43h5M26 43h5M35 43h3M43 43h2M14 44h1M19 44h7M27 44h1M31 44h1M38 44h5M14 45h1M18 45h1M27 45h1M31 45h1M15 46h3M27 46h1M31 46h1M28 47h3" />
<path stroke="#deb53a" d="M4 12h1M4 13h1M4 14h2M3 15h4M3 16h5M42 16h1M2 17h7M42 17h1M2 18h7M42 18h1M1 19h1M4 19h5M41 19h2M5 20h5M40 20h4M5 21h5M39 21h5M1 22h1M4 22h6M39 22h6M1 23h9M38 23h7M2 24h8M38 24h8M2 25h7M37 25h2M41 25h5M3 26h6M37 26h1M42 26h4M5 27h2M37 27h1M42 27h4M37 28h2M41 28h5M37 29h8M38 30h7M13 31h2M16 31h1M38 31h6M11 32h3M15 32h3M27 32h2M30 32h1M40 32h2M10 33h2M17 33h1M25 33h3M29 33h3M10 34h1M15 34h3M24 34h1M31 34h2M10 35h3M14 35h3M24 35h3M29 35h1M32 35h1M11 36h2M14 36h1M25 36h2M28 36h4M26 37h1M28 37h2M5 39h2M36 39h2M41 39h3M2 40h3M8 40h2M37 40h3M42 40h4M2 41h7M34 41h2M39 41h7M3 42h4M35 42h10M38 43h5" />
</svg>