<svg xmlns="http://www.w3.org/2000/svg" viewBox="0 -0.5 48 48" shape-rendering="crispEdges">
<metadata>Made with Pixels to Svg https://codepen.io/shshaw/pen/XbxvNj</metadata>
<path stroke="#ffffff" d="M0 0h48M0 1h48M0 2h8M14 2h8M25 2h23M0 3h6M16 3h5M26 3h22M0 4h5M8 4h3M17 4h2M26 4h22M0 5h4M6 5h8M20 5h1M26 5h22M0 6h2M6 6h8M19 6h3M25 6h23M0 7h1M7 7h8M19 7h29M2 8h2M8 8h7M20 8h28M2 9h2M8 9h7M20 9h28M8 10h7M20 10h24M46 10h2M8 11h7M23 11h20M47 11h1M0 12h1M7 12h6M26 12h16M43 12h1M47 12h1M0 13h2M6 13h5M28 13h14M47 13h1M0 14h9M30 14h11M42 14h1M47 14h1M0 15h8M9 15h1M31 15h10M47 15h1M0 16h7M8 16h1M32 16h8M41 16h1M46 16h2M0 17h6M7 17h3M11 17h1M33 17h7M41 17h1M46 17h2M0 18h5M6 18h3M10 18h1M34 18h6M46 18h2M0 19h4M6 19h2M9 19h1M11 19h1M35 19h4M40 19h1M46 19h2M0 20h4M5 20h4M10 20h1M35 20h4M40 20h1M46 20h2M0 21h3M6 21h2M18 21h2M36 21h3M45 21h3M0 22h3M17 22h1M19 22h2M37 22h1M45 22h3M0 23h2M19 23h2M45 23h3M0 24h2M19 24h2M45 24h3M0 25h2M19 25h1M45 25h1M0 26h2M4 26h2M0 27h2M4 27h3M0 28h3M5 28h2M0 29h3M47 29h1M0 30h4M47 30h1M0 31h6M0 32h7M27 32h1M0 33h9M26 33h1M28 33h2M47 33h1M0 34h10M26 34h2M30 34h5M40 34h2M46 34h2M0 35h7M10 35h3M27 35h2M32 35h6M39 35h4M46 35h2M0 36h5M7 36h4M13 36h2M28 36h11M40 36h3M46 36h2M0 37h4M5 37h5M12 37h2M17 37h1M29 37h10M40 37h4M46 37h2M0 38h4M5 38h7M14 38h2M18 38h1M20 38h1M31 38h8M40 38h8M0 39h5M6 39h4M12 39h5M19 39h1M21 39h1M34 39h4M39 39h9M0 40h6M10 40h8M20 40h1M22 40h1M38 40h10M0 41h19M21 41h1M23 41h1M34 41h14M0 42h21M32 42h16M0 43h23M29 43h19M0 44h48M0 45h48M0 46h48M0 47h48" />
<path stroke="#6b52e6" d="M8 2h1M22 2h1M6 3h1M11 3h3M21 3h1M7 4h1M14 4h2M4 5h1M15 5h2M2 6h1M15 6h2M16 7h2M0 8h1M16 8h2M16 9h3M16 10h3M16 11h4M44 11h2M15 12h8M44 12h2M13 13h13M43 13h3M11 14h17M43 14h3M10 15h20M42 15h4M9 16h22M40 16h1M42 16h3M10 17h1M12 17h20M42 17h3M9 18h1M11 18h7M21 18h12M41 18h4M5 19h1M8 19h1M10 19h1M12 19h4M23 19h10M39 19h1M41 19h4M9 20h1M11 20h3M19 20h1M24 20h10M41 20h4M4 21h2M8 21h5M20 21h1M24 21h11M40 21h4M5 22h7M25 22h11M39 22h5M6 23h4M15 23h1M21 23h1M25 23h12M39 23h5M17 24h1M21 24h1M24 24h13M39 24h5M17 25h1M20 25h1M24 25h14M39 25h5M47 25h1M18 26h2M23 26h16M41 26h3M21 27h23M19 28h25M16 29h28M4 30h1M12 30h29M42 30h2M7 31h20M28 31h12M41 31h2M9 32h18M30 32h10M12 33h14M27 33h1M35 33h4M14 34h11M28 34h2M35 34h1M38 34h1M7 35h1M13 35h1M15 35h11M29 35h3M11 36h2M16 36h11M4 37h1M10 37h2M18 37h10M45 37h1M17 38h1M19 38h1M21 38h8M18 39h1M20 39h1M22 39h9M19 40h1M21 40h1M23 40h11M22 41h1M24 41h8M23 42h6" />
<path stroke="#000000" d="M9 2h5M23 2h2M7 3h4M14 3h2M25 3h1M5 4h2M11 4h3M16 4h1M19 4h4M25 4h1M5 5h1M14 5h1M17 5h3M21 5h1M25 5h1M3 6h3M14 6h1M17 6h2M22 6h3M1 7h1M6 7h1M15 7h1M18 7h1M7 8h1M15 8h1M18 8h2M0 9h1M7 9h1M15 9h1M19 9h1M0 10h1M7 10h1M15 10h1M19 10h1M44 10h2M0 11h1M7 11h1M15 11h1M20 11h3M43 11h1M46 11h1M1 12h1M6 12h1M13 12h2M23 12h3M42 12h1M46 12h1M2 13h4M11 13h2M26 13h2M42 13h1M46 13h1M9 14h2M28 14h2M41 14h1M46 14h1M8 15h1M30 15h1M41 15h1M46 15h1M7 16h1M31 16h1M45 16h1M6 17h1M32 17h1M40 17h1M45 17h1M5 18h1M33 18h1M40 18h1M45 18h1M4 19h1M33 19h2M45 19h1M4 20h1M18 20h1M34 20h1M39 20h1M45 20h1M3 21h1M17 21h1M35 21h1M39 21h1M44 21h1M3 22h1M16 22h1M18 22h1M36 22h1M38 22h1M44 22h1M2 23h1M16 23h3M37 23h2M44 23h1M2 24h1M15 24h2M18 24h1M37 24h2M44 24h1M2 25h1M15 25h2M18 25h1M38 25h1M44 25h1M46 25h1M2 26h1M16 26h2M39 26h2M44 26h2M47 26h1M2 27h1M44 27h1M47 27h1M3 28h1M16 28h1M47 28h1M3 29h2M12 29h4M46 29h1M5 30h7M41 30h1M45 30h2M6 31h1M27 31h1M40 31h1M47 31h1M7 32h2M28 32h2M40 32h1M47 32h1M9 33h3M30 33h5M39 33h3M46 33h1M10 34h4M25 34h1M36 34h2M39 34h1M42 34h1M45 34h1M8 35h2M14 35h1M26 35h1M38 35h1M43 35h1M45 35h1M5 36h2M15 36h1M27 36h1M39 36h1M43 36h1M45 36h1M14 37h3M28 37h1M39 37h1M44 37h1M4 38h1M12 38h2M16 38h1M29 38h2M39 38h1M5 39h1M10 39h2M17 39h1M31 39h3M38 39h1M6 40h4M18 40h1M34 40h4M19 41h2M32 41h2M21 42h2M29 42h3M23 43h6" />
<path stroke="#efc573" d="M22 3h3M23 4h2M22 5h3M2 7h4M1 8h1M4 8h3M1 9h1M4 9h3M1 10h6M1 11h6M2 12h4M18 18h3M16 19h7M14 20h4M20 20h4M13 21h4M21 21h3M4 22h1M12 22h4M21 22h4M3 23h3M10 23h5M22 23h3M3 24h12M22 24h2M3 25h12M21 25h3M3 26h1M6 26h10M20 26h3M46 26h1M3 27h1M7 27h14M45 27h2M4 28h1M7 28h9M17 28h2M44 28h3M5 29h7M44 29h2M44 30h1M43 31h4M41 32h6M42 33h4M43 34h2M44 35h1M44 36h1" />
</svg>