<svg xmlns="http://www.w3.org/2000/svg" viewBox="0 -0.5 48 48" shape-rendering="crispEdges">
<metadata>Made with Pixels to Svg https://codepen.io/shshaw/pen/XbxvNj</metadata>
<path stroke="#ffffff" d="M0 0h2M4 0h44M0 1h1M2 1h2M5 1h36M45 1h3M1 2h4M6 2h33M41 2h4M46 2h2M1 3h4M7 3h30M39 3h7M47 3h1M1 4h4M8 4h28M40 4h6M47 4h1M0 5h1M2 5h3M7 5h1M9 5h26M41 5h5M47 5h1M0 6h1M2 6h2M7 6h1M10 6h4M16 6h18M42 6h4M47 6h1M0 7h1M2 7h2M5 7h1M7 7h2M10 7h3M14 7h1M16 7h17M34 7h1M43 7h3M47 7h1M0 8h2M3 8h1M6 8h1M8 8h2M11 8h2M16 8h16M33 8h3M44 8h1M46 8h2M0 9h2M3 9h1M8 9h2M11 9h1M13 9h1M16 9h15M32 9h5M44 9h1M46 9h2M0 10h3M13 10h1M16 10h14M31 10h7M46 10h2M0 11h3M18 11h12M31 11h8M44 11h2M47 11h1M0 12h4M20 12h9M30 12h10M43 12h3M47 12h1M0 13h4M21 13h7M29 13h12M43 13h4M0 14h3M22 14h6M29 14h11M44 14h3M0 15h2M5 15h2M15 15h2M22 15h5M28 15h10M44 15h3M0 16h2M4 16h4M14 16h4M23 16h3M27 16h9M38 16h1M45 16h1M47 16h1M0 17h1M2 17h1M4 17h4M14 17h3M18 17h1M23 17h3M27 17h8M36 17h3M45 17h1M47 17h1M0 18h1M2 18h1M5 18h2M15 18h2M18 18h1M23 18h2M26 18h8M35 18h5M46 18h2M0 19h1M23 19h2M26 19h6M34 19h6M45 19h3M0 20h1M23 20h1M25 20h6M32 20h9M44 20h4M0 21h2M7 21h2M23 21h1M25 21h5M31 21h10M43 21h5M0 22h2M7 22h2M22 22h1M24 22h5M30 22h9M41 22h7M0 23h3M23 23h5M29 23h8M39 23h9M0 24h3M5 24h1M13 24h1M24 24h2M28 24h6M37 24h11M0 25h4M21 25h2M26 25h5M34 25h14M0 26h5M22 26h2M26 26h3M31 26h17M0 27h7M23 27h1M29 27h19M0 28h3M7 28h2M27 28h21M0 29h3M11 29h1M27 29h21M0 30h4M10 30h1M28 30h20M0 31h10M13 31h1M28 31h20M0 32h6M13 32h1M28 32h20M0 33h6M12 33h2M27 33h21M0 34h12M16 34h1M27 34h21M0 35h9M15 35h4M26 35h1M28 35h20M0 36h8M14 36h7M28 36h20M0 37h9M11 37h11M27 37h1M29 37h19M0 38h23M28 38h1M30 38h18M0 39h24M31 39h17M0 40h21M29 40h1M31 40h3M39 40h9M0 41h20M21 41h2M30 41h1M37 41h2M40 41h8M0 42h21M41 42h7M0 43h22M40 43h8M0 44h27M35 44h13M0 45h28M29 45h1M32 45h1M35 45h13M0 46h29M31 46h1M34 46h14M0 47h48" />
<path stroke="#a53a3a" d="M2 0h1M1 1h1M0 2h1M0 3h1M5 3h1M5 4h2M37 4h3M5 5h2M36 5h5M4 6h3M14 6h2M35 6h7M1 7h1M4 7h1M13 7h1M35 7h8M4 8h2M13 8h2M36 8h8M2 9h1M4 9h1M6 9h1M12 9h1M14 9h1M31 9h1M37 9h7M4 10h1M6 10h2M30 10h1M38 10h6M4 11h2M7 11h1M9 11h2M12 11h2M15 11h1M17 11h1M30 11h1M39 11h4M7 12h1M9 12h1M11 12h5M19 12h1M29 12h1M40 12h2M8 13h5M28 13h1M42 13h1M8 14h3M21 14h1M28 14h1M41 14h3M2 15h1M27 15h1M40 15h4M22 16h1M26 16h1M36 16h1M39 16h6M26 17h1M35 17h1M39 17h6M25 18h1M34 18h1M40 18h5M19 19h1M25 19h1M32 19h2M40 19h4M1 20h1M3 20h1M8 20h3M18 20h2M31 20h1M41 20h2M9 21h3M30 21h1M9 22h4M29 22h1M6 23h1M8 23h4M6 24h1M12 24h1M21 24h2M5 25h2M8 25h3M12 25h3M20 25h1M23 25h1M7 26h5M13 26h2M19 26h3M24 26h1M9 27h4M17 27h1M22 27h1M24 27h2M3 28h1M16 28h2M23 28h3M10 29h1M14 29h5M23 29h4M12 30h1M14 30h7M24 30h3M15 31h5M25 31h2M16 32h2M25 32h2M11 33h1M18 33h4M24 33h2M12 34h1M19 34h2M25 35h1M13 36h1M24 36h3M24 38h4M25 39h4M21 40h1M24 40h1M38 40h1M20 41h1M23 41h3M27 41h3M34 41h3M22 42h5M31 42h1M33 42h7M27 43h6M28 44h6" />
<path stroke="#000000" d="M3 0h1M4 1h1M41 1h4M5 2h1M39 2h2M45 2h1M6 3h1M37 3h2M46 3h1M0 4h1M7 4h1M36 4h1M46 4h1M1 5h1M8 5h1M35 5h1M46 5h1M1 6h1M8 6h2M34 6h1M46 6h1M6 7h1M9 7h1M15 7h1M33 7h1M46 7h1M2 8h1M7 8h1M10 8h1M15 8h1M32 8h1M45 8h1M5 9h1M7 9h1M10 9h1M15 9h1M45 9h1M3 10h1M5 10h1M8 10h5M14 10h2M44 10h2M3 11h1M6 11h1M8 11h1M11 11h1M14 11h1M16 11h1M43 11h1M46 11h1M4 12h3M8 12h1M10 12h1M16 12h1M18 12h1M42 12h1M46 12h1M4 13h1M6 13h2M13 13h2M19 13h2M41 13h1M47 13h1M3 14h1M7 14h1M11 14h2M20 14h1M40 14h1M47 14h1M8 15h3M21 15h1M38 15h2M47 15h1M2 16h2M18 16h2M37 16h1M46 16h1M1 17h1M3 17h1M17 17h1M19 17h2M22 17h1M46 17h1M1 18h1M3 18h1M17 18h1M19 18h2M22 18h1M45 18h1M1 19h3M8 19h2M17 19h2M20 19h1M22 19h1M44 19h1M2 20h1M7 20h1M11 20h1M17 20h1M20 20h1M22 20h1M24 20h1M43 20h1M2 21h1M6 21h1M12 21h1M18 21h2M22 21h1M24 21h1M41 21h2M2 22h1M6 22h1M13 22h1M21 22h1M23 22h1M39 22h2M3 23h1M5 23h1M7 23h1M12 23h2M21 23h2M28 23h1M37 23h2M3 24h2M7 24h5M14 24h1M20 24h1M23 24h1M26 24h2M34 24h3M4 25h1M7 25h1M11 25h1M15 25h1M19 25h1M24 25h2M31 25h3M5 26h2M12 26h1M15 26h4M25 26h1M29 26h2M7 27h2M13 27h4M18 27h4M26 27h3M4 28h3M9 28h7M18 28h1M20 28h3M26 28h1M3 29h1M6 29h4M12 29h2M19 29h4M4 30h6M11 30h1M13 30h1M21 30h3M27 30h1M10 31h3M14 31h1M20 31h1M22 31h3M27 31h1M6 32h1M9 32h4M14 32h2M18 32h7M27 32h1M6 33h5M14 33h4M22 33h2M26 33h1M13 34h3M17 34h2M21 34h6M9 35h6M19 35h3M23 35h2M27 35h1M8 36h1M11 36h2M21 36h3M27 36h1M9 37h2M22 37h5M28 37h1M23 38h1M29 38h1M24 39h1M29 39h2M22 40h2M25 40h4M30 40h1M34 40h4M26 41h1M31 41h3M39 41h1M21 42h1M27 42h4M32 42h1M40 42h1M22 43h5M33 43h7M27 44h1M34 44h1M28 45h1M30 45h2M33 45h2M29 46h2M32 46h2" />
<path stroke="#4ad652" d="M17 12h1M5 13h1M15 13h4M4 14h3M13 14h7M3 15h2M7 15h1M11 15h4M17 15h4M8 16h6M20 16h2M8 17h6M21 17h1M4 18h1M7 18h8M21 18h1M4 19h4M10 19h7M21 19h1M4 20h3M12 20h5M21 20h1M3 21h3M13 21h5M20 21h2M3 22h3M14 22h7M4 23h1M14 23h7M15 24h5M16 25h3M19 28h1M4 29h2M21 31h1M7 32h2M22 35h1M9 36h2" />
</svg>