<svg xmlns="http://www.w3.org/2000/svg" viewBox="0 -0.5 40 40" shape-rendering="crispEdges">
<metadata>Made with Pixels to Svg https://codepen.io/shshaw/pen/XbxvNj</metadata>
<path stroke="#ffffff" d="M0 0h40M0 1h40M0 2h40M0 3h40M0 4h40M0 5h40M0 6h40M0 7h40M0 8h21M29 8h11M0 9h19M30 9h10M0 10h18M20 10h1M30 10h10M0 11h18M29 11h11M0 12h17M22 12h18M0 13h17M21 13h19M0 14h17M21 14h19M0 15h15M23 15h17M0 16h14M24 16h16M0 17h13M25 17h15M0 18h12M26 18h14M0 19h11M17 19h4M27 19h13M0 20h11M16 20h6M27 20h13M0 21h6M15 21h3M20 21h3M31 21h9M0 22h5M7 22h1M15 22h2M18 22h1M21 22h2M28 22h1M32 22h8M0 23h5M15 23h2M21 23h2M32 23h8M0 24h6M15 24h3M20 24h3M31 24h9M0 25h11M16 25h6M27 25h13M0 26h11M17 26h4M27 26h13M0 27h12M26 27h14M0 28h13M25 28h15M0 29h14M24 29h16M0 30h15M23 30h17M0 31h17M21 31h19M0 32h17M21 32h19M0 33h17M22 33h18M0 34h18M29 34h11M0 35h18M20 35h1M30 35h10M0 36h19M30 36h10M0 37h21M29 37h11M0 38h40M0 39h40" />
<path stroke="#7b7b84" d="M21 8h1M28 8h1M21 10h1M28 11h1M17 12h1M15 15h1M22 15h1M18 18h2M11 19h1M16 19h1M21 19h1M26 19h1M15 20h1M22 20h1M8 22h1M14 22h1M23 22h1M29 22h1M14 23h1M23 23h1M15 25h1M22 25h1M11 26h1M16 26h1M21 26h1M26 26h1M18 27h2M15 30h1M22 30h1M17 33h1M28 34h1M21 35h1M21 37h1M28 37h1" />
<path stroke="#3a3a42" d="M22 8h6M19 9h1M29 9h1M18 10h1M29 10h1M23 11h5M21 12h1M17 13h1M17 14h1M16 15h1M21 15h1M14 16h1M23 16h1M13 17h1M24 17h1M12 18h1M17 18h1M20 18h1M25 18h1M15 19h1M22 19h1M11 20h1M26 20h1M6 21h5M14 21h1M18 21h2M23 21h1M27 21h4M5 22h1M17 22h1M20 22h1M31 22h1M5 23h1M17 23h1M20 23h1M31 23h1M6 24h5M14 24h1M18 24h2M23 24h1M27 24h4M11 25h1M26 25h1M15 26h1M22 26h1M12 27h1M17 27h1M20 27h1M25 27h1M13 28h1M24 28h1M14 29h1M23 29h1M16 30h1M21 30h1M17 31h1M17 32h1M21 33h1M23 34h5M18 35h1M29 35h1M19 36h1M29 36h1M22 37h6" />
<path stroke="#000000" d="M20 9h9M19 10h1M22 10h7M18 11h5M18 12h3M18 13h3M18 14h3M17 15h4M15 16h8M14 17h10M13 18h4M21 18h4M12 19h3M23 19h3M12 20h3M23 20h3M11 21h3M24 21h3M6 22h1M9 22h5M19 22h1M24 22h4M30 22h1M6 23h8M18 23h2M24 23h7M11 24h3M24 24h3M12 25h3M23 25h3M12 26h3M23 26h3M13 27h4M21 27h4M14 28h10M15 29h8M17 30h4M18 31h3M18 32h3M18 33h3M18 34h5M19 35h1M22 35h7M20 36h9" />
</svg>