<svg xmlns="http://www.w3.org/2000/svg" viewBox="0 -0.5 56 56" shape-rendering="crispEdges">
<metadata>Made with Pixels to Svg https://codepen.io/shshaw/pen/XbxvNj</metadata>
<path stroke="#ffffff" d="M0 0h56M0 1h56M0 2h26M31 2h25M0 3h25M26 3h3M32 3h24M0 4h18M21 4h2M33 4h2M39 4h17M0 5h16M18 5h3M35 5h4M41 5h15M0 6h15M16 6h6M34 6h1M36 6h1M38 6h3M43 6h13M0 7h14M15 7h5M21 7h1M23 7h1M33 7h1M35 7h1M37 7h1M39 7h4M44 7h12M0 8h13M14 8h1M16 8h1M18 8h1M20 8h1M22 8h1M36 8h1M44 8h12M0 9h13M17 9h1M19 9h1M45 9h11M0 10h13M45 10h11M0 11h12M45 11h11M0 12h9M47 12h9M0 13h8M22 13h2M46 13h1M48 13h8M0 14h7M22 14h2M46 14h2M49 14h7M0 15h7M23 15h1M47 15h2M50 15h6M0 16h6M24 16h1M50 16h6M0 17h6M24 17h1M50 17h6M0 18h6M11 18h1M50 18h6M0 19h7M12 19h2M49 19h7M0 20h8M49 20h7M0 21h8M50 21h6M0 22h8M50 22h6M0 23h8M50 23h6M0 24h2M24 24h1M50 24h6M0 25h1M2 25h9M21 25h1M36 25h1M43 25h4M55 25h1M1 26h1M4 26h1M8 26h4M17 26h1M21 26h1M32 26h1M36 26h1M46 26h6M1 27h1M4 27h1M17 27h1M21 27h1M24 27h2M32 27h1M36 27h1M0 28h1M18 28h3M33 28h3M0 29h2M55 29h1M0 30h5M54 30h2M0 31h8M24 31h4M50 31h6M0 32h7M14 32h2M24 32h5M50 32h6M0 33h5M13 33h1M37 33h4M52 33h4M0 34h4M5 34h1M37 34h1M54 34h2M0 35h3M36 35h1M55 35h1M0 36h3M35 36h2M55 36h1M0 37h4M54 37h2M0 38h9M48 38h8M0 39h10M17 39h1M28 39h3M48 39h8M0 40h11M12 40h1M16 40h1M27 40h1M32 40h3M47 40h9M0 41h11M12 41h2M26 41h1M47 41h9M0 42h11M12 42h3M47 42h9M0 43h12M13 43h2M46 43h10M0 44h13M45 44h11M0 45h14M36 45h2M42 45h14M0 46h16M18 46h2M36 46h3M42 46h14M0 47h22M34 47h2M40 47h16M0 48h24M33 48h23M0 49h25M32 49h24M0 50h56M0 51h56M0 52h56M0 53h56M0 54h56M0 55h56" />
<path stroke="#000000" d="M26 2h5M25 3h1M31 3h1M18 4h3M23 4h4M30 4h3M35 4h4M16 5h2M21 5h2M32 5h3M39 5h2M15 6h1M22 6h2M32 6h1M41 6h2M14 7h1M24 7h2M31 7h1M43 7h1M13 8h1M15 8h1M29 8h2M38 8h1M40 8h1M43 8h1M13 9h2M16 9h1M37 9h1M39 9h1M41 9h1M44 9h1M13 10h1M15 10h1M17 10h1M36 10h1M38 10h1M40 10h1M42 10h1M44 10h1M12 11h1M14 11h1M16 11h2M37 11h1M39 11h1M41 11h2M44 11h1M9 12h3M15 12h1M38 12h1M42 12h1M44 12h3M8 13h1M39 13h2M45 13h1M47 13h1M7 14h2M10 14h1M17 14h5M31 14h4M48 14h1M7 15h1M10 15h1M16 15h2M22 15h1M30 15h1M35 15h3M49 15h1M6 16h1M9 16h1M16 16h1M29 16h2M37 16h1M49 16h1M6 17h1M9 17h1M15 17h1M17 17h5M23 17h1M29 17h1M31 17h6M38 17h1M49 17h1M6 18h1M15 18h2M22 18h1M24 18h5M31 18h1M36 18h2M39 18h1M45 18h1M48 18h2M7 19h1M11 19h1M14 19h1M16 19h1M22 19h1M30 19h1M37 19h1M39 19h1M44 19h1M46 19h1M48 19h1M8 20h1M10 20h2M15 20h1M23 20h1M29 20h1M38 20h1M40 20h4M45 20h2M48 20h1M8 21h2M11 21h4M16 21h5M24 21h5M31 21h6M38 21h2M44 21h1M46 21h1M8 22h1M10 22h1M15 22h7M30 22h8M40 22h4M47 22h1M49 22h1M8 23h1M10 23h1M15 23h8M30 23h9M43 23h3M47 23h1M49 23h1M5 24h6M14 24h4M21 24h2M29 24h4M36 24h3M42 24h1M46 24h4M11 25h1M14 25h3M18 25h3M22 25h10M33 25h3M37 25h2M41 25h1M50 25h4M2 26h2M12 26h5M18 26h3M22 26h10M33 26h3M37 26h5M0 27h1M2 27h2M12 27h5M18 27h3M22 27h1M29 27h3M33 27h3M37 27h5M52 27h2M55 27h1M1 28h1M12 28h1M15 28h3M21 28h2M29 28h4M36 28h3M41 28h1M52 28h2M55 28h1M2 29h3M12 29h1M15 29h7M30 29h8M41 29h1M54 29h1M5 30h3M11 30h1M16 30h5M24 30h4M31 30h6M42 30h1M48 30h6M8 31h3M14 31h2M23 31h1M28 31h1M43 31h5M49 31h1M7 32h3M11 32h1M13 32h1M16 32h1M22 32h1M29 32h1M37 32h4M46 32h1M49 32h1M5 33h2M8 33h3M12 33h1M14 33h2M17 33h1M22 33h1M24 33h4M30 33h1M36 33h1M41 33h1M45 33h1M47 33h1M49 33h3M4 34h1M8 34h1M10 34h1M12 34h1M16 34h1M18 34h1M21 34h1M23 34h1M28 34h1M31 34h1M35 34h1M38 34h3M42 34h4M47 34h1M49 34h1M52 34h2M3 35h1M7 35h1M11 35h1M17 35h1M19 35h2M22 35h1M29 35h1M32 35h4M41 35h1M46 35h1M48 35h2M54 35h1M3 36h1M7 36h1M18 36h1M22 36h1M30 36h1M37 36h1M42 36h4M48 36h1M54 36h1M4 37h5M19 37h3M32 37h4M48 37h6M9 38h1M47 38h1M10 39h2M18 39h2M46 39h2M11 40h1M17 40h1M19 40h2M28 40h4M46 40h1M11 41h1M16 41h1M18 41h1M20 41h1M27 41h1M29 41h1M31 41h5M46 41h1M11 42h1M17 42h3M26 42h1M28 42h1M30 42h1M32 42h1M34 42h1M36 42h1M43 42h1M46 42h1M12 43h1M19 43h2M26 43h2M29 43h1M31 43h1M33 43h1M42 43h1M45 43h1M13 44h1M27 44h1M41 44h4M14 45h2M18 45h2M41 45h1M16 46h2M20 46h2M34 46h2M40 46h2M22 47h3M32 47h2M36 47h4M24 48h1M32 48h1M25 49h7" />
<path stroke="#c55ad6" d="M29 3h2M27 4h3M23 5h9M24 6h8M33 6h1M35 6h1M37 6h1M20 7h1M22 7h1M26 7h5M32 7h1M34 7h1M36 7h1M38 7h1M17 8h1M19 8h1M21 8h1M23 8h6M31 8h5M37 8h1M39 8h1M41 8h2M15 9h1M18 9h1M20 9h17M38 9h1M40 9h1M42 9h2M14 10h1M16 10h1M18 10h18M37 10h1M39 10h1M41 10h1M43 10h1M13 11h1M15 11h1M18 11h19M38 11h1M40 11h1M43 11h1M12 12h2M16 12h22M39 12h3M43 12h1M11 13h11M24 13h15M41 13h1M43 13h2M9 14h1M11 14h6M24 14h7M35 14h11M8 15h2M11 15h5M19 15h1M21 15h1M24 15h6M32 15h1M34 15h1M38 15h9M7 16h2M10 16h6M18 16h1M20 16h1M22 16h1M25 16h4M31 16h1M33 16h1M35 16h1M39 16h10M7 17h2M10 17h5M22 17h1M25 17h4M37 17h1M39 17h10M7 18h4M12 18h3M23 18h1M30 18h1M38 18h1M40 18h5M46 18h2M8 19h3M24 19h4M29 19h1M38 19h1M40 19h4M47 19h1M9 20h1M24 20h5M39 20h1M47 20h1M10 21h1M48 21h1M9 22h1M48 22h1M9 23h1M48 23h1M18 24h3M23 24h1M33 24h3M17 25h1M32 25h1M23 27h1M48 31h1M10 32h1M23 32h1M47 32h1M11 33h1M16 33h1M23 33h1M28 33h2M46 33h1M48 33h1M9 34h1M11 34h1M13 34h3M17 34h1M24 34h4M29 34h2M36 34h1M41 34h1M46 34h1M8 35h3M12 35h5M23 35h6M30 35h2M39 35h2M43 35h3M8 36h10M19 36h3M23 36h7M31 36h4M38 36h4M47 36h1M9 37h10M22 37h9M36 37h7M44 37h1M46 37h1M10 38h32M43 38h1M45 38h1M12 39h5M20 39h8M31 39h12M44 39h1M13 40h3M18 40h1M21 40h6M35 40h6M42 40h1M44 40h1M14 41h2M17 41h1M19 41h1M21 41h5M28 41h1M30 41h1M36 41h4M41 41h1M43 41h1M45 41h1M15 42h2M20 42h6M27 42h1M29 42h1M31 42h1M33 42h1M35 42h1M37 42h4M42 42h1M44 42h1M15 43h4M21 43h5M28 43h1M30 43h1M32 43h1M34 43h6M41 43h1M43 43h1M14 44h13M28 44h13M16 45h2M20 45h9M30 45h1M32 45h4M38 45h3M22 46h6M29 46h1M31 46h2M39 46h1M26 47h1M28 47h1M30 47h1M25 48h1M27 48h1M29 48h1M31 48h1" />
<path stroke="#9c104a" d="M14 12h1M9 13h2M42 13h1M18 15h1M20 15h1M31 15h1M33 15h1M17 16h1M19 16h1M21 16h1M23 16h1M32 16h1M34 16h1M36 16h1M38 16h1M16 17h1M30 17h1M17 18h5M29 18h1M32 18h4M15 19h1M17 19h5M23 19h1M28 19h1M31 19h6M45 19h1M12 20h3M16 20h7M30 20h8M44 20h1M15 21h1M21 21h3M29 21h2M37 21h1M40 21h4M45 21h1M47 21h1M49 21h1M11 22h4M22 22h8M38 22h2M44 22h3M11 23h4M23 23h7M39 23h4M46 23h1M2 24h3M11 24h3M25 24h4M39 24h3M43 24h3M1 25h1M12 25h2M39 25h2M42 25h1M47 25h3M54 25h1M0 26h1M5 26h3M42 26h4M52 26h4M5 27h7M26 27h3M42 27h10M54 27h1M2 28h10M13 28h2M23 28h6M39 28h2M42 28h10M54 28h1M5 29h7M13 29h2M22 29h8M38 29h3M42 29h12M8 30h3M12 30h4M21 30h3M28 30h3M37 30h5M43 30h5M11 31h3M16 31h7M29 31h14M12 32h1M17 32h5M30 32h7M41 32h5M48 32h1M7 33h1M18 33h4M31 33h5M42 33h3M6 34h2M19 34h2M22 34h1M32 34h3M48 34h1M50 34h2M4 35h3M18 35h1M21 35h1M37 35h2M42 35h1M47 35h1M50 35h4M4 36h3M46 36h1M49 36h5M31 37h1M43 37h1M45 37h1M47 37h1M42 38h1M44 38h1M46 38h1M43 39h1M45 39h1M41 40h1M43 40h1M45 40h1M40 41h1M42 41h1M44 41h1M41 42h1M45 42h1M40 43h1M44 43h1M29 45h1M31 45h1M28 46h1M30 46h1M33 46h1M25 47h1M27 47h1M29 47h1M31 47h1M26 48h1M28 48h1M30 48h1" />
</svg>