<svg xmlns="http://www.w3.org/2000/svg" viewBox="0 -0.5 48 48" shape-rendering="crispEdges">
<metadata>Made with Pixels to Svg https://codepen.io/shshaw/pen/XbxvNj</metadata>
<path stroke="#ffffff" d="M0 0h42M44 0h4M0 1h3M8 1h32M46 1h2M0 2h1M3 2h2M10 2h8M19 2h11M31 2h8M42 2h2M47 2h1M1 3h3M11 3h6M18 3h1M20 3h9M30 3h1M32 3h6M40 3h3M47 3h1M12 4h5M18 4h1M20 4h9M30 4h1M32 4h5M39 4h2M46 4h2M0 5h1M12 5h5M18 5h1M20 5h8M29 5h2M32 5h5M38 5h2M45 5h3M0 6h4M13 6h3M17 6h2M21 6h7M29 6h1M33 6h3M38 6h1M45 6h3M0 7h5M13 7h3M17 7h1M21 7h6M28 7h2M33 7h3M45 7h1M47 7h1M0 8h3M13 8h3M17 8h1M21 8h6M28 8h1M33 8h3M0 9h2M3 9h1M14 9h2M22 9h4M28 9h1M33 9h2M0 10h2M3 10h1M14 10h1M22 10h4M33 10h2M45 10h1M0 11h2M14 11h1M33 11h2M43 11h2M0 12h3M14 12h1M22 12h3M33 12h2M42 12h2M47 12h1M0 13h3M14 13h1M21 13h5M33 13h2M47 13h1M0 14h4M13 14h2M21 14h4M34 14h1M46 14h2M0 15h5M14 15h1M22 15h2M34 15h2M46 15h2M0 16h6M45 16h3M0 17h8M17 17h1M27 17h2M44 17h4M0 18h9M16 18h3M26 18h4M36 18h1M43 18h5M0 19h9M17 19h1M27 19h2M36 19h1M44 19h4M0 20h8M19 20h1M25 20h1M44 20h4M0 21h8M45 21h3M0 22h7M45 22h3M0 23h5M7 23h1M18 23h1M27 23h1M46 23h2M0 24h4M5 24h1M46 24h2M0 25h5M47 25h1M0 26h7M46 26h1M0 27h7M47 27h1M0 28h8M45 28h3M0 29h9M21 29h1M43 29h5M0 30h10M20 30h1M22 30h1M42 30h6M0 31h9M21 31h1M23 31h1M42 31h6M0 32h8M15 32h1M20 32h1M41 32h7M0 33h7M8 33h2M18 33h5M31 33h1M37 33h2M42 33h6M0 34h6M7 34h2M18 34h5M24 34h1M31 34h1M36 34h2M39 34h1M42 34h6M0 35h6M7 35h1M17 35h7M25 35h2M30 35h3M42 35h6M0 36h6M17 36h8M41 36h7M0 37h7M10 37h1M17 37h8M40 37h8M0 38h8M9 38h3M16 38h8M39 38h9M0 39h24M38 39h10M0 40h23M38 40h10M0 41h23M38 41h10M0 42h24M27 42h2M38 42h10M0 43h24M27 43h3M37 43h11M0 44h25M28 44h3M36 44h12M0 45h27M35 45h13M0 46h30M33 46h15M0 47h31M32 47h16" />
<path stroke="#000000" d="M42 0h2M3 1h5M40 1h2M44 1h2M1 2h2M8 2h2M18 2h1M30 2h1M39 2h1M46 2h1M0 3h1M10 3h1M17 3h1M19 3h1M29 3h1M31 3h1M38 3h1M46 3h1M0 4h1M11 4h1M17 4h1M19 4h1M29 4h1M31 4h1M37 4h1M45 4h1M1 5h3M11 5h1M17 5h1M19 5h1M28 5h1M31 5h1M37 5h1M44 5h1M4 6h1M12 6h1M16 6h1M20 6h1M28 6h1M32 6h1M36 6h1M44 6h1M5 7h1M12 7h1M16 7h1M20 7h1M27 7h1M32 7h1M36 7h1M44 7h1M46 7h1M3 8h3M8 8h1M12 8h1M16 8h1M20 8h1M27 8h1M32 8h1M36 8h1M45 8h1M47 8h1M2 9h1M5 9h3M13 9h1M16 9h1M21 9h1M26 9h1M32 9h1M35 9h1M39 9h2M43 9h2M47 9h1M2 10h1M13 10h1M15 10h1M21 10h1M26 10h1M32 10h1M35 10h1M40 10h3M47 10h1M2 11h1M13 11h1M15 11h1M24 11h2M32 11h1M35 11h1M47 11h1M3 12h1M13 12h1M15 12h1M32 12h1M35 12h1M46 12h1M3 13h1M13 13h1M15 13h1M32 13h1M35 13h1M46 13h1M4 14h1M12 14h1M15 14h1M33 14h1M35 14h1M45 14h1M5 15h1M12 15h2M16 15h1M33 15h1M36 15h1M45 15h1M6 16h2M11 16h1M14 16h2M17 16h1M27 16h2M34 16h3M44 16h1M8 17h3M14 17h2M18 17h1M26 17h1M34 17h2M37 17h1M42 17h2M9 18h2M14 18h1M19 18h1M25 18h1M34 18h1M38 18h5M9 19h1M11 19h2M14 19h1M18 19h1M26 19h1M34 19h2M40 19h1M43 19h1M8 20h1M13 20h1M15 20h1M18 20h1M26 20h1M31 20h1M34 20h1M36 20h1M39 20h1M43 20h1M8 21h1M13 21h1M16 21h1M29 21h2M33 21h1M37 21h2M44 21h1M7 22h3M14 22h1M17 22h2M25 22h4M30 22h3M36 22h1M44 22h1M6 23h1M10 23h1M15 23h3M19 23h6M26 23h1M28 23h2M34 23h2M45 23h1M4 24h1M17 24h4M22 24h1M26 24h2M32 24h2M42 24h4M5 25h2M10 25h4M16 25h1M20 25h1M25 25h2M33 25h1M35 25h2M41 25h1M45 25h2M7 26h3M14 26h1M16 26h1M21 26h1M25 26h1M33 26h1M37 26h3M47 26h1M7 27h1M16 27h1M22 27h3M33 27h1M41 27h1M45 27h2M8 28h1M17 28h1M32 28h1M42 28h3M9 29h1M17 29h1M31 29h2M42 29h1M10 30h1M16 30h1M18 30h1M32 30h2M41 30h1M9 31h3M13 31h3M19 31h2M34 31h2M37 31h3M41 31h1M8 32h1M12 32h1M16 32h1M18 32h2M21 32h2M28 32h4M33 32h1M36 32h1M40 32h1M7 33h1M13 33h1M17 33h1M23 33h5M30 33h1M32 33h1M35 33h1M41 33h1M6 34h1M13 34h3M17 34h1M23 34h1M30 34h1M32 34h1M34 34h2M41 34h1M6 35h1M10 35h3M16 35h1M24 35h1M29 35h1M33 35h1M36 35h1M39 35h1M41 35h1M6 36h1M9 36h2M16 36h1M25 36h4M30 36h4M37 36h4M7 37h1M9 37h1M11 37h1M16 37h1M25 37h2M30 37h1M34 37h1M39 37h1M8 38h1M12 38h4M24 38h1M27 38h3M31 38h1M35 38h1M38 38h1M24 39h1M27 39h1M31 39h1M36 39h2M23 40h1M28 40h3M37 40h1M23 41h1M37 41h1M24 42h1M37 42h1M24 43h1M36 43h1M25 44h2M35 44h1M27 45h3M33 45h2M30 46h1M32 46h1M31 47h1" />
<path stroke="#ce3194" d="M42 1h2M5 2h3M40 2h2M44 2h2M4 3h6M39 3h1M43 3h3M1 4h10M38 4h1M41 4h4M4 5h7M40 5h4M5 6h7M19 6h1M30 6h2M37 6h1M39 6h5M6 7h6M18 7h2M30 7h2M37 7h7M6 8h2M9 8h3M18 8h2M29 8h3M37 8h8M46 8h1M4 9h1M8 9h5M17 9h4M27 9h1M29 9h3M36 9h3M41 9h2M45 9h2M4 10h9M16 10h5M27 10h5M36 10h4M43 10h2M46 10h1M3 11h10M16 11h5M26 11h6M36 11h7M45 11h2M4 12h9M16 12h6M25 12h7M36 12h6M44 12h2M4 13h9M16 13h5M26 13h6M36 13h10M5 14h7M16 14h1M18 14h3M25 14h8M36 14h9M6 15h6M17 15h5M24 15h9M37 15h8M8 16h3M12 16h2M16 16h1M19 16h5M25 16h2M29 16h5M37 16h7M11 17h3M19 17h4M24 17h2M30 17h4M36 17h1M38 17h4M11 18h3M15 18h1M20 18h3M24 18h1M31 18h3M35 18h1M37 18h1M13 19h1M15 19h2M20 19h5M29 19h5M37 19h3M14 20h1M16 20h2M20 20h5M27 20h4M32 20h2M35 20h1M37 20h2M14 21h2M17 21h12M31 21h2M34 21h3M15 22h2M19 22h6M29 22h1M33 22h3M8 23h2M30 23h4M6 24h5M28 24h4M7 25h3M17 25h3M27 25h6M42 25h3M17 26h4M26 26h7M41 26h5M17 27h5M25 27h8M42 27h3M18 28h14M18 29h3M22 29h9M17 30h1M19 30h1M21 30h1M23 30h9M16 31h3M22 31h1M24 31h10M9 32h3M13 32h2M17 32h1M23 32h5M32 32h1M34 32h2M37 32h3M10 33h3M14 33h3M28 33h2M33 33h2M36 33h1M39 33h2M9 34h4M16 34h1M25 34h5M33 34h1M38 34h1M40 34h1M8 35h2M13 35h3M27 35h2M34 35h2M37 35h2M40 35h1M7 36h2M11 36h5M29 36h1M34 36h3M8 37h1M12 37h4M27 37h3M31 37h3M35 37h4M25 38h2M30 38h1M32 38h3M36 38h2M25 39h2M28 39h3M32 39h4M24 40h4M31 40h6M24 41h13M25 42h2M29 42h8M25 43h2M30 43h6M27 44h1M31 44h4M30 45h3M31 46h1" />
<path stroke="#423aa5" d="M21 11h3M17 14h1M15 15h1M18 16h1M24 16h1M16 17h1M23 17h1M29 17h1M23 18h1M30 18h1M10 19h1M19 19h1M25 19h1M41 19h2M9 20h4M40 20h3M9 21h4M39 21h5M10 22h4M37 22h7M5 23h1M11 23h4M25 23h1M36 23h9M11 24h6M21 24h1M23 24h3M34 24h8M14 25h2M21 25h4M34 25h1M37 25h4M10 26h4M15 26h1M22 26h3M34 26h3M40 26h1M8 27h8M34 27h7M9 28h8M33 28h9M10 29h7M33 29h9M11 30h5M34 30h7M12 31h1M36 31h1M40 31h1" />
</svg>