<svg xmlns="http://www.w3.org/2000/svg" viewBox="0 -0.5 48 48" shape-rendering="crispEdges">
<metadata>Made with Pixels to Svg https://codepen.io/shshaw/pen/XbxvNj</metadata>
<path stroke="#ffffff" d="M0 0h48M0 1h48M0 2h48M0 3h48M0 4h48M0 5h48M0 6h48M0 7h8M13 7h35M0 8h7M15 8h33M0 9h7M17 9h31M0 10h6M14 10h2M19 10h1M26 10h22M0 11h5M21 11h2M29 11h19M0 12h3M18 12h6M31 12h17M0 13h2M8 13h2M16 13h7M33 13h3M41 13h7M0 14h1M9 14h2M17 14h3M45 14h3M0 15h1M46 15h2M12 16h1M46 16h2M12 17h1M47 17h1M12 18h2M17 18h1M26 18h3M47 18h1M24 19h1M26 19h3M47 19h1M0 20h1M25 20h3M46 20h2M0 21h2M47 21h1M0 22h7M13 22h1M0 23h7M13 23h1M21 23h1M0 24h8M21 24h1M0 25h8M0 26h9M0 27h10M47 27h1M0 28h12M34 28h2M46 28h2M0 29h13M33 29h4M45 29h3M0 30h11M34 30h4M43 30h5M0 31h10M35 31h13M0 32h11M34 32h14M0 33h13M33 33h15M0 34h14M31 34h17M0 35h14M32 35h16M0 36h13M32 36h16M0 37h13M33 37h15M0 38h13M34 38h14M0 39h12M35 39h13M0 40h11M36 40h12M0 41h10M36 41h12M0 42h10M35 42h13M0 43h11M33 43h15M0 44h13M18 44h2M27 44h3M32 44h16M0 45h13M14 45h2M17 45h3M21 45h2M25 45h5M31 45h17M0 46h14M17 46h1M19 46h2M22 46h1M24 46h2M27 46h1M30 46h18M0 47h16M21 47h1M28 47h20" />
<path stroke="#3a526b" d="M8 7h1M12 7h1M7 8h1M6 10h1M20 10h1M5 11h1M7 11h2M26 11h1M3 12h1M6 12h2M9 12h1M2 13h1M40 13h1M1 14h1M14 14h1M25 14h2M44 14h1M1 15h1M5 15h1M15 15h1M24 15h1M28 15h1M40 15h1M45 15h1M0 16h1M15 16h1M40 16h1M4 17h1M11 17h1M23 17h1M11 18h1M14 18h1M19 18h1M29 18h1M34 18h1M37 18h1M12 19h2M16 19h1M29 19h1M38 19h1M46 19h1M24 20h1M28 20h1M2 21h1M13 21h1M15 21h1M25 21h3M31 21h1M41 21h1M40 22h1M42 22h1M44 22h1M47 22h1M32 23h1M43 23h1M45 23h1M39 24h1M42 24h1M44 24h1M46 24h1M38 25h1M43 25h1M45 25h1M13 26h1M33 26h1M35 26h2M47 26h1M13 28h1M37 29h1M44 29h1M13 30h4M21 30h2M31 30h1M38 30h1M42 30h1M11 31h15M29 31h5M13 32h7M24 32h9M16 33h2M26 33h4M20 34h1M22 34h1M27 36h1M16 37h1M28 38h2M14 39h2M18 39h1M24 39h1M27 39h4M13 40h4M27 40h4M13 41h4M28 41h2M14 42h2M16 45h1M16 46h1M18 46h1M23 46h1M26 46h1" />
<path stroke="#000000" d="M9 7h3M8 8h7M7 9h7M15 9h2M7 10h5M17 10h2M21 10h5M6 11h1M9 11h2M18 11h2M27 11h2M4 12h2M8 12h1M10 12h1M16 12h2M29 12h2M3 13h5M11 13h1M14 13h2M31 13h2M36 13h4M2 14h4M13 14h1M33 14h3M40 14h4M2 15h3M12 15h2M41 15h4M1 16h4M13 16h1M29 16h1M41 16h5M0 17h4M10 17h1M13 17h2M25 17h4M41 17h6M0 18h4M9 18h1M16 18h1M18 18h1M23 18h3M35 18h2M41 18h6M0 19h4M8 19h1M17 19h3M23 19h1M25 19h1M39 19h7M1 20h4M8 20h1M41 20h5M3 21h5M16 21h3M42 21h5M7 22h1M12 22h1M14 22h1M19 22h3M31 22h1M41 22h1M43 22h1M45 22h2M7 23h1M12 23h1M20 23h1M22 23h1M40 23h3M44 23h1M46 23h2M8 24h1M13 24h1M20 24h1M22 24h1M32 24h1M40 24h2M43 24h1M45 24h1M47 24h1M8 25h1M13 25h1M20 25h2M33 25h1M39 25h4M44 25h1M46 25h2M9 26h1M21 26h1M34 26h1M37 26h10M10 27h2M13 27h1M21 27h1M34 27h13M12 28h1M14 28h1M22 28h1M33 28h1M36 28h10M13 29h3M21 29h2M31 29h2M38 29h6M11 30h2M17 30h4M23 30h2M29 30h2M32 30h2M39 30h3M10 31h1M26 31h3M34 31h1M11 32h2M20 32h4M33 32h1M13 33h3M18 33h2M24 33h2M30 33h3M14 34h1M16 34h2M26 34h3M30 34h1M14 35h1M20 35h1M22 35h1M31 35h1M13 36h1M16 36h1M21 36h1M31 36h1M13 37h1M21 37h1M26 37h1M32 37h1M13 38h1M17 38h1M21 38h1M25 38h1M32 38h2M12 39h1M19 39h2M22 39h2M32 39h1M34 39h1M11 40h1M35 40h1M10 41h1M35 41h1M10 42h1M33 42h2M11 43h2M18 43h3M27 43h3M32 43h1M13 44h5M20 44h3M25 44h2M30 44h2M13 45h1M20 45h1M23 45h2M30 45h1M14 46h2M21 46h1M28 46h2M16 47h5M22 47h6" />
<path stroke="#e6736b" d="M14 9h1M12 10h2M16 10h1M11 11h7M20 11h1M23 11h3M11 12h5M24 12h5M10 13h1M12 13h2M23 13h8M6 14h3M11 14h2M15 14h2M20 14h5M27 14h6M36 14h4M6 15h6M14 15h1M16 15h8M25 15h3M29 15h11M5 16h7M14 16h1M16 16h13M30 16h10M5 17h5M15 17h8M24 17h1M29 17h12M4 18h5M10 18h1M15 18h1M20 18h3M30 18h4M38 18h3M4 19h4M9 19h3M14 19h2M20 19h3M30 19h8M5 20h3M9 20h15M29 20h12M8 21h5M14 21h1M19 21h6M28 21h3M32 21h9M8 22h4M15 22h4M22 22h9M32 22h8M8 23h4M14 23h6M23 23h9M33 23h7M9 24h4M14 24h6M23 24h9M33 24h6M9 25h4M14 25h6M22 25h11M34 25h4M10 26h3M14 26h7M22 26h11M12 27h1M14 27h7M22 27h12M15 28h7M23 28h10M16 29h5M23 29h8M25 30h4M20 33h4M15 34h1M18 34h2M21 34h1M23 34h3M29 34h1M15 35h5M21 35h1M23 35h8M14 36h2M17 36h4M22 36h5M28 36h3M14 37h2M17 37h4M22 37h4M27 37h5M14 38h3M18 38h3M22 38h3M26 38h2M30 38h2M13 39h1M16 39h2M21 39h1M25 39h2M31 39h1M33 39h1M12 40h1M17 40h10M31 40h4M11 41h2M17 41h11M30 41h5M11 42h3M16 42h17M13 43h5M21 43h6M30 43h2M23 44h2" />
</svg>