<svg xmlns="http://www.w3.org/2000/svg" viewBox="0 -0.5 40 40" shape-rendering="crispEdges">
<metadata>Made with Pixels to Svg https://codepen.io/shshaw/pen/XbxvNj</metadata>
<path stroke="#ffffff" d="M0 0h40M0 1h9M13 1h27M0 2h8M15 2h25M0 3h7M16 3h24M0 4h7M17 4h10M30 4h10M0 5h6M20 5h4M32 5h8M0 6h6M13 6h3M33 6h7M0 7h7M11 7h7M33 7h7M0 8h7M11 8h3M18 8h1M34 8h6M0 9h8M10 9h3M34 9h6M0 10h8M10 10h3M34 10h6M0 11h7M10 11h4M18 11h1M34 11h6M0 12h7M8 12h1M11 12h7M33 12h7M0 13h7M12 13h4M19 13h1M32 13h8M0 14h6M31 14h9M0 15h6M29 15h11M0 16h6M9 16h1M13 16h2M29 16h11M0 17h7M8 17h10M29 17h11M0 18h7M8 18h2M14 18h5M28 18h12M0 19h8M15 19h4M28 19h12M0 20h7M15 20h4M27 20h13M0 21h6M15 21h3M26 21h14M0 22h5M26 22h14M0 23h5M27 23h13M0 24h5M28 24h12M0 25h6M28 25h12M0 26h6M29 26h11M0 27h7M29 27h11M0 28h8M29 28h11M0 29h8M30 29h10M0 30h7M30 30h10M0 31h7M30 31h10M0 32h7M29 32h1M31 32h9M0 33h8M28 33h2M31 33h9M0 34h8M25 34h1M30 34h10M0 35h9M29 35h11M0 36h8M9 36h1M12 36h1M16 36h3M28 36h12M0 37h8M14 37h6M21 37h1M24 37h1M28 37h12M0 38h21M27 38h13M0 39h40" />
<path stroke="#733a21" d="M9 1h1M14 2h1M7 3h1M9 4h3M27 4h1M7 5h3M11 5h2M15 5h1M24 5h1M7 6h2M20 6h1M22 6h1M8 7h1M8 8h1M26 8h5M32 8h1M8 9h1M24 9h3M29 9h4M23 10h2M30 10h3M7 11h1M9 11h1M24 11h2M29 11h4M25 12h1M27 12h5M27 13h4M6 14h1M9 14h1M12 15h1M27 19h1M8 20h1M5 22h1M20 22h1M22 22h1M24 22h1M14 23h2M17 23h1M19 23h1M21 23h1M23 23h1M16 24h1M18 24h1M20 24h1M22 24h1M27 24h1M6 25h1M10 25h1M19 25h1M21 25h1M28 26h1M22 27h1M8 29h1M8 30h2M22 30h1M9 31h1M10 32h1M28 32h1M11 33h1M22 33h2M25 33h1M12 34h2M21 34h2M14 35h2M20 35h1M26 35h2M10 36h1M13 36h1M25 36h2M8 37h1M22 37h1M25 37h2" />
<path stroke="#000000" d="M10 1h3M8 2h1M13 2h1M15 3h1M7 4h1M16 4h1M28 4h2M6 5h1M10 5h1M16 5h4M25 5h2M30 5h2M6 6h1M9 6h3M21 6h1M23 6h1M32 6h1M7 7h1M9 7h2M22 7h1M32 7h1M7 8h1M9 8h1M33 8h1M27 9h2M33 9h1M8 10h1M25 10h5M33 10h1M8 11h1M26 11h3M33 11h1M7 12h1M9 12h1M19 12h1M26 12h1M32 12h1M7 13h3M18 13h1M20 13h1M26 13h1M31 13h1M8 14h1M18 14h3M27 14h4M6 15h1M10 15h2M18 15h3M28 15h1M6 16h1M10 16h3M19 16h1M28 16h1M7 17h1M28 17h1M7 18h1M10 18h4M27 18h1M8 19h2M14 19h1M7 20h1M26 20h1M6 21h1M14 21h1M20 21h2M24 21h2M13 22h7M25 22h1M5 23h1M13 23h1M26 23h1M5 24h1M12 24h1M11 25h1M27 25h1M6 26h1M7 27h2M28 27h1M8 28h1M22 28h1M22 29h1M29 29h1M7 30h1M29 30h1M7 31h1M23 31h1M29 31h1M7 32h1M23 32h1M30 32h1M8 33h1M24 33h1M27 33h1M30 33h1M8 34h1M24 34h1M26 34h4M9 35h1M16 35h4M25 35h1M28 35h1M8 36h1M11 36h1M14 36h2M19 36h3M27 36h1M9 37h5M20 37h1M23 37h1M27 37h1M21 38h6" />
<path stroke="#b57331" d="M9 2h4M8 3h7M8 4h1M12 4h4M13 5h2M27 5h3M12 6h1M16 6h4M24 6h8M18 7h4M23 7h9M10 8h1M14 8h4M19 8h7M31 8h1M9 9h1M13 9h11M9 10h1M13 10h10M14 11h4M19 11h5M10 12h1M18 12h1M20 12h5M10 13h2M16 13h2M21 13h5M7 14h1M10 14h8M21 14h6M7 15h3M13 15h5M21 15h7M7 16h2M15 16h4M20 16h8M18 17h10M19 18h8M10 19h4M19 19h8M9 20h6M19 20h7M7 21h7M18 21h2M22 21h2M6 22h7M21 22h1M23 22h1M6 23h7M16 23h1M18 23h1M20 23h1M22 23h1M24 23h2M6 24h6M13 24h3M17 24h1M19 24h1M21 24h1M23 24h4M7 25h3M12 25h7M20 25h1M22 25h5M7 26h21M9 27h13M23 27h5M9 28h13M23 28h6M9 29h13M23 29h6M10 30h12M23 30h6M8 31h1M10 31h13M24 31h5M8 32h2M11 32h12M24 32h4M9 33h2M12 33h10M26 33h1M9 34h3M14 34h7M23 34h1M10 35h4M21 35h4M22 36h3" />
</svg>