<svg xmlns="http://www.w3.org/2000/svg" viewBox="0 -0.5 40 40" shape-rendering="crispEdges">
<metadata>Made with Pixels to Svg https://codepen.io/shshaw/pen/XbxvNj</metadata>
<path stroke="#ffffff" d="M0 0h11M12 0h1M14 0h12M27 0h1M29 0h11M0 1h7M8 1h3M12 1h2M15 1h6M22 1h3M26 1h1M28 1h1M30 1h10M0 2h6M7 2h1M9 2h1M11 2h1M13 2h2M16 2h4M21 2h1M23 2h2M26 2h3M30 2h10M0 3h6M7 3h1M10 3h1M12 3h1M15 3h5M21 3h1M23 3h1M25 3h3M30 3h10M0 4h6M8 4h1M11 4h1M14 4h5M20 4h1M22 4h1M24 4h1M26 4h1M29 4h11M0 5h5M13 5h1M15 5h3M19 5h1M23 5h1M25 5h1M27 5h1M29 5h11M0 6h4M5 6h1M14 6h4M24 6h1M26 6h1M28 6h12M0 7h4M13 7h4M28 7h12M0 8h3M4 8h1M13 8h4M27 8h1M29 8h11M0 9h3M14 9h2M29 9h11M0 10h4M14 10h2M28 10h1M30 10h10M0 11h4M13 11h3M29 11h11M0 12h4M27 12h13M0 13h4M13 13h2M26 13h14M0 14h4M12 14h3M26 14h14M0 15h5M11 15h1M13 15h1M15 15h1M25 15h15M0 16h5M12 16h1M14 16h1M24 16h16M0 17h6M11 17h1M13 17h1M24 17h16M0 18h7M25 18h15M0 19h8M25 19h15M0 20h7M25 20h15M0 21h7M26 21h14M0 22h6M26 22h14M0 23h6M26 23h14M0 24h6M26 24h14M0 25h7M27 25h13M0 26h7M8 26h1M10 26h1M25 26h1M27 26h13M0 27h8M9 27h1M11 27h1M13 27h1M15 27h1M26 27h1M28 27h4M35 27h5M0 28h7M12 28h1M14 28h1M25 28h1M27 28h1M29 28h2M32 28h2M36 28h4M0 29h7M8 29h1M26 29h1M28 29h1M37 29h3M0 30h7M20 30h1M37 30h3M0 31h8M31 31h1M33 31h1M35 31h1M38 31h2M0 32h6M9 32h2M26 32h2M32 32h1M34 32h1M36 32h1M39 32h1M0 33h5M33 33h1M35 33h1M39 33h1M0 34h5M39 34h1M0 35h5M38 35h2M0 36h6M11 36h2M35 36h5M0 37h8M18 37h3M32 37h8M0 38h10M15 38h9M29 38h11M0 39h40" />
<path stroke="#c53121" d="M11 0h1M6 2h1M12 2h1M11 3h1M13 3h1M28 3h1M7 4h1M9 4h2M12 4h1M25 4h1M27 4h1M7 5h6M20 5h3M24 5h1M26 5h1M6 6h7M19 6h5M25 6h1M5 7h7M18 7h9M5 8h2M9 8h3M18 8h2M22 8h5M4 9h2M10 9h3M17 9h2M23 9h5M5 10h1M10 10h3M17 10h2M23 10h5M10 11h2M17 11h1M23 11h4M10 12h2M16 12h2M23 12h3M10 13h2M16 13h2M23 13h2M5 14h1M9 14h3M15 14h3M22 14h3M6 15h1M8 15h3M12 15h1M14 15h1M16 15h2M22 15h2M6 16h6M13 16h1M15 16h4M21 16h2M7 17h1M9 17h2M12 17h1M14 17h9M9 18h15M9 19h15M8 20h16M8 21h17M7 22h18M7 23h18M7 24h18M8 25h14M23 25h3M9 26h1M11 26h10M22 26h1M24 26h1M10 27h1M12 27h1M14 27h1M16 27h2M19 27h2M22 27h1M24 27h2M8 28h1M11 28h1M13 28h1M15 28h1M20 28h1M22 28h3M26 28h1M34 28h1M9 29h2M16 29h3M20 29h2M23 29h3M27 29h1M31 29h5M8 30h3M12 30h6M19 30h1M21 30h1M23 30h9M34 30h2M11 31h7M19 31h3M23 31h3M29 31h2M32 31h1M34 31h1M36 31h1M7 32h1M12 32h7M22 32h3M28 32h1M30 32h2M33 32h1M35 32h1M37 32h1M5 33h2M8 33h4M13 33h11M25 33h5M31 33h2M34 33h1M36 33h2M6 34h2M10 34h15M27 34h1M29 34h9M6 35h29M8 36h3M13 36h5M21 36h11M10 37h5M24 37h5" />
<path stroke="#000000" d="M13 0h1M26 0h1M28 0h1M7 1h1M11 1h1M14 1h1M21 1h1M25 1h1M27 1h1M29 1h1M8 2h1M10 2h1M15 2h1M20 2h1M22 2h1M25 2h1M29 2h1M6 3h1M8 3h2M14 3h1M20 3h1M22 3h1M24 3h1M29 3h1M6 4h1M13 4h1M19 4h1M21 4h1M23 4h1M28 4h1M5 5h2M14 5h1M18 5h1M28 5h1M4 6h1M13 6h1M18 6h1M27 6h1M4 7h1M12 7h1M17 7h1M27 7h1M3 8h1M12 8h1M17 8h1M28 8h1M3 9h1M13 9h1M16 9h1M28 9h1M4 10h1M13 10h1M16 10h1M29 10h1M4 11h1M12 11h1M16 11h1M27 11h2M4 12h1M7 12h1M12 12h4M26 12h1M4 13h1M12 13h1M15 13h1M19 13h1M25 13h1M4 14h1M25 14h1M5 15h1M24 15h1M5 16h1M23 16h1M6 17h1M8 17h1M23 17h1M7 18h2M24 18h1M8 19h1M24 19h1M7 20h1M24 20h1M7 21h1M25 21h1M6 22h1M25 22h1M6 23h1M25 23h1M6 24h1M25 24h1M7 25h1M22 25h1M26 25h1M7 26h1M21 26h1M23 26h1M26 26h1M8 27h1M18 27h1M21 27h1M23 27h1M27 27h1M32 27h3M7 28h1M9 28h2M16 28h4M21 28h1M28 28h1M31 28h1M35 28h1M7 29h1M11 29h5M19 29h1M22 29h1M29 29h2M36 29h1M7 30h1M11 30h1M18 30h1M22 30h1M32 30h2M36 30h1M8 31h3M18 31h1M22 31h1M26 31h3M37 31h1M6 32h1M8 32h1M11 32h1M19 32h3M25 32h1M29 32h1M38 32h1M7 33h1M12 33h1M24 33h1M30 33h1M38 33h1M5 34h1M8 34h2M25 34h2M28 34h1M38 34h1M5 35h1M35 35h3M6 36h2M18 36h3M32 36h3M8 37h2M15 37h3M21 37h3M29 37h3M10 38h5M24 38h5" />
<path stroke="#f7e67b" d="M7 8h2M20 8h2M6 9h4M19 9h4M6 10h4M19 10h4M5 11h5M18 11h5M5 12h2M8 12h2M18 12h5M5 13h5M18 13h1M20 13h3M6 14h3M18 14h4M7 15h1M18 15h4M19 16h2" />
</svg>