<svg xmlns="http://www.w3.org/2000/svg" viewBox="0 -0.5 48 48" shape-rendering="crispEdges">
<metadata>Made with Pixels to Svg https://codepen.io/shshaw/pen/XbxvNj</metadata>
<path stroke="#ffffff" d="M0 0h48M0 1h21M23 1h23M47 1h1M0 2h20M24 2h22M47 2h1M0 3h19M20 3h1M24 3h17M42 3h3M47 3h1M0 4h18M19 4h1M24 4h17M42 4h2M47 4h1M0 5h17M18 5h1M23 5h18M42 5h1M46 5h2M0 6h15M23 6h18M46 6h2M0 7h12M16 7h1M23 7h17M46 7h2M0 8h11M13 8h4M24 8h16M45 8h3M0 9h11M12 9h4M24 9h15M45 9h3M0 10h10M12 10h3M24 10h15M45 10h3M0 11h10M12 11h2M17 11h1M25 11h14M46 11h2M0 12h9M16 12h2M20 12h1M25 12h13M46 12h2M0 13h7M16 13h1M18 13h3M25 13h12M46 13h2M0 14h6M7 14h2M17 14h1M19 14h2M25 14h12M47 14h1M0 15h6M7 15h2M19 15h1M25 15h12M47 15h1M0 16h6M25 16h5M33 16h4M0 17h6M25 17h3M35 17h2M0 18h7M24 18h3M36 18h1M0 19h7M8 19h1M24 19h1M37 19h1M0 20h8M9 20h1M14 20h1M28 20h1M37 20h1M47 20h1M0 21h12M14 21h1M27 21h1M37 21h2M46 21h2M0 22h11M12 22h1M30 22h2M37 22h3M45 22h3M0 23h11M30 23h1M36 23h5M45 23h3M0 24h11M33 24h1M36 24h5M45 24h3M0 25h12M20 25h3M33 25h1M35 25h5M45 25h3M0 26h12M18 26h8M30 26h3M34 26h6M45 26h3M0 27h10M17 27h10M30 27h9M45 27h3M0 28h8M17 28h11M31 28h7M45 28h3M0 29h6M16 29h12M31 29h6M45 29h3M0 30h5M16 30h13M32 30h3M44 30h4M0 31h4M16 31h13M44 31h4M0 32h3M13 32h1M16 32h13M44 32h4M0 33h3M12 33h2M16 33h13M43 33h5M0 34h3M13 34h1M16 34h13M43 34h5M0 35h3M12 35h1M14 35h1M16 35h13M43 35h5M0 36h4M12 36h1M14 36h1M16 36h13M42 36h6M0 37h5M6 37h2M10 37h1M14 37h1M17 37h12M42 37h6M0 38h6M7 38h1M10 38h1M12 38h3M18 38h10M41 38h7M0 39h7M8 39h2M12 39h2M19 39h9M40 39h8M0 40h13M20 40h7M39 40h9M0 41h13M23 41h2M40 41h8M0 42h12M40 42h8M0 43h12M23 43h2M40 43h8M0 44h12M13 44h1M22 44h8M37 44h2M40 44h8M0 45h11M12 45h2M15 45h1M18 45h2M22 45h8M31 45h2M34 45h1M39 45h9M0 46h12M14 46h2M18 46h2M21 46h10M37 46h11M0 47h13M16 47h1M20 47h28" />
<path stroke="#000000" d="M21 1h2M20 2h1M23 2h1M23 3h1M23 4h1M17 5h1M22 5h1M16 6h1M22 6h1M13 7h2M22 7h1M11 8h1M23 8h1M11 9h1M23 9h1M10 10h1M23 10h1M10 11h1M20 11h2M24 11h1M9 12h1M19 12h1M21 12h1M24 12h1M8 13h1M17 13h1M21 13h1M24 13h1M15 14h2M18 14h1M21 14h1M24 14h1M6 15h1M17 15h2M20 15h1M24 15h1M6 16h1M8 16h1M24 16h1M30 16h3M42 16h1M6 17h1M11 17h1M24 17h1M28 17h2M33 17h2M41 17h1M43 17h1M7 18h1M23 18h1M27 18h1M35 18h1M42 18h1M7 19h1M9 19h1M12 19h6M23 19h1M25 19h2M36 19h1M41 19h1M43 19h1M8 20h1M10 20h2M13 20h1M15 20h5M23 20h2M27 20h1M36 20h1M42 20h1M15 21h6M23 21h1M26 21h1M29 21h2M36 21h1M41 21h1M43 21h1M11 22h1M13 22h6M27 22h3M32 22h1M36 22h1M41 22h1M44 22h1M11 23h7M19 23h2M28 23h1M32 23h1M35 23h1M41 23h1M44 23h1M11 24h1M13 24h4M18 24h1M29 24h3M35 24h1M41 24h1M44 24h1M12 25h1M17 25h1M27 25h6M34 25h1M40 25h1M44 25h1M13 26h4M28 26h2M33 26h1M40 26h1M44 26h1M10 27h3M29 27h1M39 27h1M44 27h1M8 28h2M30 28h1M38 28h1M44 28h1M6 29h2M30 29h1M37 29h1M44 29h1M5 30h1M14 30h1M31 30h1M35 30h2M43 30h1M4 31h1M9 31h1M13 31h2M32 31h3M43 31h1M3 32h1M10 32h3M14 32h1M33 32h2M36 32h1M43 32h1M3 33h1M11 33h1M14 33h1M34 33h2M37 33h1M42 33h1M3 34h1M12 34h1M14 34h1M36 34h1M38 34h1M42 34h1M3 35h1M13 35h1M35 35h1M37 35h1M39 35h1M42 35h1M4 36h1M6 36h2M10 36h1M13 36h1M15 36h1M36 36h1M38 36h1M41 36h1M5 37h1M9 37h1M11 37h3M15 37h1M37 37h1M39 37h1M41 37h1M6 38h1M8 38h2M11 38h1M15 38h1M37 38h2M40 38h1M7 39h1M10 39h2M14 39h1M17 39h1M38 39h2M13 40h1M18 40h2M38 40h1M13 41h1M20 41h2M25 41h3M39 41h1M12 42h1M23 42h2M28 42h1M39 42h1M12 43h1M21 43h2M25 43h5M38 43h2M12 44h1M21 44h1M30 44h3M34 44h2M39 44h1M11 45h1M14 45h1M21 45h1M30 45h1M33 45h1M36 45h3M12 46h2M16 46h1M20 46h1M31 46h6M13 47h3M17 47h3" />
<path stroke="#f74231" d="M46 1h1M21 2h2M21 3h1M41 3h1M20 4h2M46 4h1M19 5h2M43 5h1M17 6h4M42 6h1M15 7h1M17 7h3M40 7h1M45 7h1M12 8h1M17 8h3M16 9h4M39 9h1M44 9h1M11 10h1M15 10h6M43 10h2M11 11h1M14 11h3M18 11h2M42 11h2M45 11h1M10 12h6M42 12h2M9 13h5M15 13h1M37 13h1M41 13h2M9 14h6M41 14h2M46 14h1M9 15h7M40 15h3M7 16h1M9 16h8M40 16h2M43 16h1M47 16h1M7 17h4M13 17h4M30 17h3M39 17h2M9 18h6M29 18h6M38 18h4M43 18h1M31 19h2M38 19h3M44 19h1M47 19h1M39 20h2M44 20h2M28 21h1M44 21h1M12 24h1M13 25h2M19 25h1M23 25h2M41 25h1M17 26h1M26 26h1M13 27h1M16 27h1M27 27h1M41 27h1M10 28h5M16 28h1M28 28h1M40 28h1M8 29h5M28 29h1M39 29h1M41 29h1M6 30h4M29 30h1M38 30h1M40 30h1M5 31h3M15 31h1M29 31h1M39 31h1M5 32h4M15 32h1M29 32h1M6 33h4M29 33h2M29 34h3M29 35h4M29 36h5M16 37h1M29 37h5M17 38h1M28 38h7M18 39h1M28 39h7M15 40h2M28 40h7M14 41h4M22 41h1M30 41h4M14 42h4M35 45h1" />
<path stroke="#94193a" d="M46 2h1M19 3h1M22 3h1M45 3h2M18 4h1M22 4h1M41 4h1M44 4h2M21 5h1M41 5h1M44 5h2M15 6h1M21 6h1M41 6h1M43 6h3M12 7h1M20 7h2M41 7h4M20 8h3M40 8h5M20 9h3M40 9h4M21 10h2M39 10h4M22 11h2M39 11h3M44 11h1M18 12h1M22 12h2M38 12h4M44 12h2M7 13h1M14 13h1M22 13h2M38 13h3M43 13h3M6 14h1M22 14h2M37 14h4M43 14h3M16 15h1M21 15h3M37 15h3M43 15h4M17 16h7M37 16h3M44 16h3M12 17h1M17 17h7M37 17h2M42 17h1M44 17h4M8 18h1M15 18h8M28 18h1M37 18h1M44 18h4M10 19h2M18 19h5M27 19h4M33 19h3M42 19h1M45 19h2M12 20h1M20 20h3M25 20h2M29 20h7M38 20h1M41 20h1M43 20h1M46 20h1M12 21h2M21 21h2M24 21h2M31 21h5M39 21h2M42 21h1M45 21h1M19 22h8M33 22h3M40 22h1M42 22h2M18 23h1M21 23h7M29 23h1M31 23h1M33 23h2M42 23h2M17 24h1M19 24h10M32 24h1M34 24h1M42 24h2M15 25h2M18 25h1M25 25h2M42 25h2M12 26h1M27 26h1M41 26h3M14 27h2M28 27h1M40 27h1M42 27h2M15 28h1M29 28h1M39 28h1M41 28h3M13 29h3M29 29h1M38 29h1M40 29h1M42 29h2M10 30h4M15 30h1M30 30h1M37 30h1M39 30h1M41 30h2M8 31h1M10 31h3M30 31h2M35 31h4M40 31h3M4 32h1M9 32h1M30 32h3M35 32h1M37 32h6M4 33h2M10 33h1M15 33h1M31 33h3M36 33h1M38 33h4M4 34h8M15 34h1M32 34h4M37 34h1M39 34h3M4 35h8M15 35h1M33 35h2M36 35h1M38 35h1M40 35h2M5 36h1M8 36h2M11 36h1M34 36h2M37 36h1M39 36h2M8 37h1M34 37h3M38 37h1M40 37h1M16 38h1M35 38h2M39 38h1M15 39h2M35 39h3M14 40h1M17 40h1M27 40h1M35 40h3M18 41h2M28 41h2M34 41h5M13 42h1M18 42h5M25 42h3M29 42h10M13 43h8M30 43h8M14 44h7M33 44h1M36 44h1M16 45h2M20 45h1M17 46h1" />
</svg>