<svg xmlns="http://www.w3.org/2000/svg" viewBox="0 -0.5 40 40" shape-rendering="crispEdges">
<metadata>Made with Pixels to Svg https://codepen.io/shshaw/pen/XbxvNj</metadata>
<path stroke="#ffffff" d="M0 0h40M0 1h40M0 2h40M0 3h15M16 3h24M0 4h14M15 4h1M17 4h23M0 5h14M15 5h1M17 5h23M0 6h13M14 6h3M18 6h22M0 7h13M14 7h3M18 7h22M0 8h13M14 8h3M18 8h22M0 9h13M14 9h1M16 9h1M19 9h21M0 10h13M15 10h1M17 10h1M19 10h21M0 11h13M14 11h1M16 11h1M20 11h20M0 12h14M21 12h19M0 13h14M23 13h17M0 14h15M25 14h15M0 15h15M29 15h11M0 16h9M12 16h4M31 16h9M0 17h8M13 17h3M33 17h7M0 18h8M34 18h6M0 19h8M10 19h3M35 19h5M0 20h6M9 20h3M36 20h4M0 21h5M6 21h2M37 21h3M0 22h3M7 22h1M37 22h3M0 23h2M3 23h4M38 23h2M0 24h1M2 24h7M38 24h2M0 25h1M2 25h9M14 25h3M39 25h1M0 26h1M2 26h2M5 26h7M13 26h5M39 26h1M0 27h2M3 27h10M14 27h1M16 27h2M39 27h1M0 28h2M4 28h4M9 28h4M15 28h3M38 28h2M0 29h2M3 29h1M7 29h8M16 29h1M38 29h2M0 30h3M9 30h7M38 30h2M0 31h2M4 31h1M11 31h5M37 31h3M0 32h2M5 32h1M10 32h1M13 32h4M37 32h3M0 33h2M6 33h2M14 33h3M37 33h3M0 34h1M8 34h8M28 34h1M36 34h4M0 35h1M11 35h3M26 35h3M36 35h4M0 36h1M9 36h2M25 36h3M35 36h5M0 37h2M3 37h2M8 37h3M28 37h2M34 37h6M0 38h3M6 38h4M11 38h3M23 38h17M0 39h11M20 39h20" />
<path stroke="#ad2942" d="M15 3h1M14 4h1M16 4h1M13 6h1M17 6h1M13 11h1M28 15h1M9 16h1M17 16h1M20 16h1M8 17h1M11 18h1M13 18h1M9 19h1M14 19h1M17 20h1M34 20h1M8 21h1M22 21h1M33 21h3M8 22h1M20 22h1M34 22h2M8 23h1M34 23h3M10 24h1M14 24h3M35 24h2M13 25h1M17 25h1M36 25h2M4 26h1M12 26h1M18 26h1M25 26h1M36 26h2M18 27h1M23 27h2M35 27h3M8 28h1M18 28h1M21 28h2M35 28h2M6 29h1M17 29h1M20 29h3M36 29h1M8 30h1M19 30h3M36 30h1M2 31h1M10 31h1M17 31h4M31 31h1M6 32h1M12 32h1M18 32h2M30 32h1M8 33h1M13 33h1M30 33h1M1 34h1M29 34h1M25 35h1M29 35h1M3 36h2M2 37h1M5 37h1M11 37h3M32 37h1M14 38h1" />
<path stroke="#000000" d="M14 5h1M16 5h1M13 7h1M17 7h1M13 8h1M17 8h1M13 9h1M18 9h1M13 10h1M18 10h1M19 11h1M14 12h1M20 12h1M14 13h1M21 13h2M15 14h1M23 14h2M15 15h1M25 15h3M10 16h2M16 16h1M21 16h3M29 16h2M12 17h1M16 17h4M24 17h3M31 17h2M8 18h1M12 18h1M14 18h2M27 18h2M33 18h1M8 19h1M15 19h2M29 19h2M34 19h1M6 20h2M18 20h1M31 20h1M35 20h1M5 21h1M19 21h1M23 21h2M32 21h1M36 21h1M3 22h4M21 22h1M25 22h1M33 22h1M36 22h1M2 23h1M7 23h1M20 23h1M26 23h1M37 23h1M1 24h1M9 24h1M26 24h1M34 24h1M37 24h1M1 25h1M11 25h1M23 25h2M26 25h1M35 25h1M38 25h1M1 26h1M22 26h1M26 26h1M35 26h1M38 26h1M2 27h1M13 27h1M15 27h1M22 27h1M25 27h1M38 27h1M2 28h2M14 28h1M23 28h2M37 28h1M2 29h1M4 29h2M15 29h1M37 29h1M3 30h5M16 30h1M37 30h1M3 31h1M5 31h5M16 31h1M21 31h1M36 31h1M2 32h1M4 32h1M7 32h3M11 32h1M17 32h1M20 32h1M36 32h1M2 33h1M5 33h1M9 33h4M17 33h2M36 33h1M6 34h2M16 34h1M35 34h1M1 35h1M8 35h3M14 35h2M35 35h1M1 36h1M8 36h1M11 36h3M24 36h1M28 36h2M34 36h1M6 37h2M23 37h5M30 37h2M33 37h1M3 38h3M10 38h1M20 38h3M11 39h9" />
<path stroke="#ff528c" d="M15 9h1M17 9h1M14 10h1M16 10h1M15 11h1M17 11h2M15 12h5M15 13h6M16 14h7M16 15h9M18 16h2M24 16h5M9 17h3M20 17h4M27 17h4M9 18h2M16 18h11M29 18h4M13 19h1M17 19h12M31 19h3M8 20h1M12 20h5M19 20h12M32 20h2M9 21h10M20 21h2M25 21h7M9 22h11M22 22h3M26 22h7M9 23h11M21 23h5M27 23h7M11 24h3M17 24h9M27 24h7M12 25h1M18 25h5M25 25h1M27 25h8M19 26h3M23 26h2M27 26h8M19 27h3M26 27h9M13 28h1M19 28h2M25 28h10M18 29h2M23 29h13M17 30h2M22 30h14M22 31h9M32 31h4M3 32h1M21 32h9M31 32h5M3 33h2M19 33h11M31 33h5M2 34h4M17 34h11M30 34h5M2 35h6M16 35h9M30 35h5M2 36h1M5 36h3M14 36h10M30 36h4M14 37h9M15 38h5" />
</svg>