<svg xmlns="http://www.w3.org/2000/svg" viewBox="0 -0.5 64 64" shape-rendering="crispEdges">
<metadata>Made with Pixels to Svg https://codepen.io/shshaw/pen/XbxvNj</metadata>
<path stroke="#585878" d="M37 10h1M27 12h1M26 13h1M36 13h1M28 14h1M35 14h1M25 15h1M28 15h1M33 15h2M27 16h1M24 17h1M27 17h1M20 18h2M26 18h1M19 19h1M23 19h1M26 19h1M19 20h1M25 20h1M13 21h1M18 21h1M24 21h1M12 22h1M15 22h1M17 22h1M24 22h1M15 23h1M14 24h1M26 24h1M34 24h1M14 25h1M26 25h1M31 25h1M34 25h1M14 26h1M25 26h1M34 26h1M54 26h1M11 27h1M14 27h1M25 27h1M34 27h1M54 27h1M13 28h1M24 28h1M33 28h2M53 28h3M13 29h1M24 29h1M31 29h2M53 29h1M13 30h1M23 30h1M29 30h2M9 31h1M12 31h1M23 31h1M28 31h1M8 32h1M11 32h1M22 32h1M27 32h1M56 32h1M8 33h1M11 33h1M21 33h1M25 33h2M37 33h1M56 33h1M7 34h1M10 34h1M20 34h1M25 34h1M36 34h3M55 34h2M10 35h1M19 35h1M24 35h1M36 35h2M55 35h2M10 36h1M18 36h1M23 36h1M35 36h2M55 36h2M8 37h1M10 37h1M17 37h1M34 37h3M47 37h2M55 37h2M11 38h1M15 38h2M34 38h3M47 38h1M56 38h1M12 39h3M34 39h3M55 39h1M34 40h2M54 40h2M33 41h2M53 41h2M33 42h2M52 42h3M32 43h1M51 43h1M32 46h2M29 47h1M51 48h1M53 48h1M27 49h1M23 53h1" />
<path stroke="#404058" d="M38 10h3M37 11h1M39 11h1M41 11h1M28 12h1M36 12h1M42 12h1M38 14h1M37 15h1M48 16h2M43 17h1M47 17h1M44 18h3M22 19h1M45 19h1M22 20h1M29 20h5M38 20h3M46 20h1M16 21h2M21 21h1M28 21h1M32 21h1M39 21h1M18 22h1M21 22h1M26 22h2M33 22h1M39 22h1M51 22h1M12 23h1M19 23h7M27 23h1M34 23h1M40 23h1M49 23h1M12 24h1M35 24h1M40 24h1M48 24h1M12 25h1M35 25h1M41 25h2M48 25h1M36 26h1M11 28h1M11 29h1M43 29h3M47 29h1M42 30h1M44 30h1M46 30h1M31 31h2M36 31h1M42 31h1M44 31h1M29 32h2M42 32h1M44 32h1M28 33h1M41 33h1M44 33h1M27 34h1M40 34h1M43 34h1M7 35h1M26 35h1M38 35h2M41 35h2M7 36h1M22 36h1M25 36h1M37 36h1M40 36h1M47 36h1M24 37h1M37 37h1M39 37h1M8 38h1M23 38h1M37 38h1M39 38h1M7 39h3M22 39h1M37 39h1M39 39h1M43 39h1M10 40h2M36 40h1M38 40h1M40 40h1M44 40h1M5 41h1M12 41h1M35 41h1M44 41h1M6 42h1M12 42h1M35 42h1M45 42h1M7 43h1M17 43h1M24 43h6M33 43h1M55 43h1M15 44h2M22 44h1M30 44h1M8 45h1M14 45h1M19 45h3M53 45h1M8 46h1M13 46h1M17 46h2M35 46h2M41 46h1M16 47h1M34 47h1M42 47h2M50 47h1M54 47h2M9 48h1M13 48h1M33 48h1M44 48h1M9 49h1M15 49h1M33 49h2M39 49h3M9 50h1M12 50h4M35 50h1M38 50h1M42 50h1M10 51h2M15 51h1M38 51h1M6 52h1M11 52h1M15 52h2M19 54h1" />
<path stroke="#e0e0e8" d="M38 11h1M37 12h2M27 13h2M37 13h1M27 14h1M36 14h2M26 15h2M35 15h2M26 16h1M25 17h2M25 18h1M24 19h2M23 20h2M43 20h1M14 21h2M22 21h2M29 21h3M43 21h1M13 22h2M22 22h2M28 22h1M42 22h2M13 23h2M28 23h1M42 23h1M13 24h1M27 24h2M42 24h1M13 25h1M27 25h1M13 26h1M26 26h2M12 27h2M26 27h1M12 28h1M25 28h2M12 29h1M25 29h1M11 30h2M24 30h2M43 30h1M10 31h2M24 31h1M43 31h1M9 32h2M23 32h1M43 32h1M9 33h2M22 33h2M42 33h2M9 34h1M21 34h2M42 34h1M8 35h2M20 35h2M8 36h2M19 36h2M9 37h1M18 37h2M17 38h2M5 39h2M10 39h2M15 39h2M6 40h2M12 40h3M6 41h3M37 41h3M7 42h3M37 42h4M8 43h2M37 43h3M9 46h3M9 47h3M13 47h3M35 47h4M11 48h2M34 48h6M35 49h3" />
<path stroke="#b8b8c8" d="M40 11h1M40 12h2M39 13h3M29 14h1M39 14h3M29 15h2M38 15h4M28 16h4M37 16h4M28 17h13M48 17h2M27 18h13M47 18h2M20 19h2M27 19h11M46 19h2M20 20h2M26 20h3M36 20h1M19 21h2M25 21h3M33 21h3M38 21h1M19 22h2M25 22h1M29 22h1M31 22h2M34 22h5M17 23h2M26 23h1M29 23h1M32 23h2M35 23h1M39 23h1M43 23h1M52 23h1M17 24h9M29 24h1M33 24h1M41 24h1M51 24h2M17 25h9M28 25h2M32 25h2M49 25h2M16 26h9M28 26h6M48 26h1M16 27h9M27 27h6M16 28h8M27 28h4M15 29h9M26 29h3M15 30h8M26 30h2M45 30h1M54 30h1M14 31h9M25 31h2M45 31h2M53 31h2M14 32h8M24 32h2M45 32h2M52 32h2M14 33h7M24 33h1M45 33h2M51 33h2M8 34h1M13 34h7M23 34h1M41 34h1M44 34h3M50 34h2M13 35h6M22 35h1M40 35h1M43 35h4M49 35h2M13 36h5M21 36h1M39 36h1M41 36h4M53 36h1M14 37h3M20 37h2M38 37h1M40 37h5M53 37h1M9 38h1M19 38h2M29 38h3M38 38h1M40 38h4M51 38h4M17 39h3M27 39h5M38 39h1M40 39h1M51 39h3M5 40h1M8 40h2M15 40h4M26 40h6M37 40h1M41 40h2M50 40h3M9 41h2M13 41h5M25 41h6M36 41h1M40 41h3M50 41h2M10 42h1M13 42h4M23 42h4M36 42h1M41 42h2M49 42h3M10 43h7M21 43h3M35 43h2M40 43h3M9 44h6M17 44h5M28 44h1M35 44h7M11 45h2M15 45h4M22 45h1M27 45h1M35 45h6M14 46h3M27 46h1M49 46h5M26 47h2M39 47h2M51 47h3M10 48h1M26 48h1M40 48h4M55 48h1M13 49h2M16 49h1M25 49h1M38 49h1M42 49h2M50 49h1M55 49h1M10 50h2M16 50h1M24 50h1M36 50h2M41 50h1M43 50h1M16 51h2M23 51h1M34 51h1M41 51h1M17 52h6M33 52h1M40 52h1" />
<path stroke="#101010" d="M29 12h1M30 13h1M42 13h1M42 14h1M42 15h1M42 16h1M50 16h1M51 17h1M51 18h1M42 19h3M51 19h1M34 20h2M37 20h1M42 20h1M45 20h1M47 20h1M51 20h1M36 21h2M41 21h2M45 21h1M48 21h1M51 21h1M30 22h1M41 22h1M46 22h1M49 22h1M52 22h2M30 23h2M36 23h3M41 23h1M46 23h1M51 23h1M54 23h1M30 24h3M39 24h1M46 24h1M49 24h2M54 24h1M30 25h1M40 25h1M47 25h1M54 25h1M47 26h1M53 26h1M55 26h1M33 27h1M36 27h1M47 27h1M53 27h1M55 27h1M31 28h2M36 28h1M47 28h1M52 28h1M56 28h1M29 29h2M36 29h1M52 29h1M54 29h3M28 30h1M36 30h1M48 30h1M52 30h2M56 30h1M27 31h1M47 31h1M49 31h1M52 31h1M56 31h2M26 32h1M37 32h2M47 32h1M49 32h1M51 32h1M55 32h1M57 32h1M38 33h3M47 33h1M49 33h2M55 33h1M57 33h1M24 34h1M39 34h1M47 34h1M49 34h1M54 34h1M57 34h1M23 35h1M47 35h2M54 35h1M57 35h1M46 36h1M48 36h3M54 36h1M57 36h1M22 37h1M46 37h1M50 37h1M54 37h1M57 37h1M22 38h1M46 38h1M50 38h1M55 38h1M57 38h1M21 39h1M41 39h2M47 39h1M50 39h1M56 39h1M20 40h1M39 40h1M49 40h1M56 40h1M18 41h2M49 41h1M55 41h2M17 42h1M19 42h1M48 42h1M55 42h1M57 42h1M34 43h1M45 43h1M47 43h1M52 43h3M58 43h1M8 44h1M31 44h4M45 44h1M47 44h1M51 44h4M58 44h1M9 45h2M32 45h3M45 45h2M48 45h5M58 45h1M31 46h1M34 46h1M37 46h4M44 46h1M48 46h1M58 46h1M30 47h1M32 47h2M48 47h1M57 47h1M14 48h3M28 48h1M48 48h1M56 48h2M10 49h3M44 49h1M48 49h1M51 49h3M56 49h1M27 50h1M44 50h1M49 50h2M54 50h2M26 51h1M35 51h3M42 51h2M7 52h3M14 52h1M25 52h1M34 52h1M41 52h1M12 53h2M17 53h2M24 53h1M32 53h2M39 53h2M20 54h3" />
<path stroke="#8080a8" d="M39 12h1M29 13h1M38 13h1M26 14h1M30 14h1M31 15h1M25 16h1M32 16h5M41 16h1M41 17h2M50 17h1M24 18h1M40 18h4M49 18h2M38 19h4M48 19h3M14 20h3M41 20h1M44 20h1M48 20h3M40 21h1M44 21h1M46 21h2M49 21h2M16 22h1M40 22h1M44 22h2M47 22h2M50 22h1M16 23h1M44 23h2M47 23h2M50 23h1M53 23h1M15 24h2M36 24h3M43 24h3M47 24h1M53 24h1M15 25h2M36 25h4M43 25h4M51 25h3M12 26h1M15 26h1M35 26h1M37 26h10M49 26h4M15 27h1M35 27h1M37 27h10M48 27h5M14 28h2M35 28h1M37 28h10M48 28h4M14 29h1M33 29h3M37 29h6M46 29h1M48 29h4M10 30h1M14 30h1M31 30h5M37 30h5M47 30h1M49 30h3M55 30h1M13 31h1M29 31h2M33 31h3M37 31h5M48 31h1M50 31h2M55 31h1M12 32h2M28 32h1M31 32h6M39 32h3M48 32h1M50 32h1M54 32h1M12 33h2M27 33h1M29 33h8M48 33h1M53 33h2M11 34h2M26 34h1M28 34h8M48 34h1M52 34h2M11 35h2M25 35h1M27 35h9M51 35h3M11 36h2M24 36h1M26 36h9M38 36h1M45 36h1M51 36h2M11 37h3M23 37h1M25 37h9M45 37h1M49 37h1M51 37h2M4 38h3M10 38h1M12 38h3M21 38h1M24 38h5M32 38h2M44 38h2M48 38h2M4 39h1M20 39h1M23 39h4M32 39h2M44 39h3M48 39h2M54 39h1M19 40h1M22 40h4M32 40h2M43 40h1M45 40h4M53 40h1M11 41h1M22 41h3M31 41h2M43 41h1M45 41h4M52 41h1M11 42h1M22 42h1M27 42h6M43 42h2M46 42h2M56 42h1M18 43h3M30 43h2M43 43h2M46 43h1M48 43h3M56 43h2M29 44h1M42 44h3M46 44h1M48 44h3M55 44h3M13 45h1M28 45h4M41 45h4M54 45h4M12 46h1M28 46h3M42 46h2M54 46h4M8 47h1M12 47h1M28 47h1M41 47h1M49 47h1M56 47h1M27 48h1M52 48h1M8 49h1M26 49h1M7 50h1M25 50h2M32 50h1M6 51h1M9 51h1M14 51h1M24 51h2M32 51h1M13 52h1M23 52h2M32 52h1M38 52h1M19 53h4" />
<path stroke="#f8f8f8" d="M21 40h1M21 41h1M18 42h1M21 42h1M21 46h2M22 47h1M49 48h2M54 48h1M49 49h1M54 49h1M8 50h1M33 50h2M39 50h2M7 51h2M12 51h2M33 51h1M39 51h2M12 52h1M39 52h1" />
<path stroke="#a83828" d="M20 41h1M20 42h1M24 45h2M24 46h2M20 47h1M24 47h1M19 48h3M24 48h1M19 49h5M19 50h3" />
<path stroke="#580800" d="M23 44h5M23 45h1M26 45h1M19 46h2M23 46h1M26 46h1M17 47h3M21 47h1M23 47h1M25 47h1M17 48h2M22 48h2M25 48h1M17 49h2M24 49h1M17 50h2M22 50h2M18 51h5" />
</svg>