<svg xmlns="http://www.w3.org/2000/svg" viewBox="0 -0.5 64 64" shape-rendering="crispEdges">
<metadata>Made with Pixels to Svg https://codepen.io/shshaw/pen/XbxvNj</metadata>
<path stroke="#404068" d="M46 0h2M45 1h1M58 1h1M44 2h1M59 2h1M43 3h1M50 3h2M59 3h1M43 4h1M49 4h1M51 4h1M59 4h1M43 5h1M49 5h1M51 5h1M59 5h1M44 6h1M48 6h1M51 6h1M58 6h1M45 7h1M48 7h1M51 7h1M56 7h2M46 8h3M51 8h1M53 8h3M48 9h1M50 9h3M49 10h1M52 10h1M43 11h1M48 11h1M52 11h2M38 12h1M42 12h1M48 12h1M51 12h1M54 12h1M34 13h2M26 14h3M43 14h2M50 14h1M54 14h2M25 15h1M28 15h1M39 15h1M42 15h1M45 15h1M50 15h1M52 15h1M16 16h1M24 16h1M27 16h1M33 16h2M36 16h3M46 16h1M50 16h1M16 17h1M23 17h2M27 17h1M34 17h2M51 17h1M54 17h4M14 18h1M16 18h1M21 18h3M36 18h1M45 18h1M51 18h1M53 18h1M57 18h1M14 19h1M16 19h1M19 19h4M29 19h1M37 19h1M46 19h2M52 19h1M6 20h1M14 20h1M16 20h3M21 20h1M24 20h1M28 20h1M37 20h1M48 20h1M56 20h2M5 21h2M12 21h1M14 21h1M17 21h1M21 21h1M27 21h1M38 21h1M49 21h1M54 21h1M59 21h1M5 22h1M13 22h2M17 22h1M20 22h1M38 22h1M45 22h1M50 22h1M60 22h1M5 23h1M10 23h1M13 23h3M17 23h1M19 23h1M38 23h1M46 23h1M53 23h1M5 24h1M10 24h1M13 24h1M15 24h1M17 24h2M29 24h1M38 24h4M46 24h1M51 24h1M53 24h1M5 25h1M11 25h1M15 25h2M46 25h1M53 25h1M56 25h5M5 26h2M11 26h1M16 26h1M20 26h1M25 26h8M46 26h1M55 26h1M7 27h1M9 27h2M12 27h2M16 27h1M20 27h5M32 27h1M52 27h1M54 27h1M8 28h2M12 28h1M16 28h1M30 28h2M45 28h1M54 28h1M62 28h1M9 29h1M14 29h1M16 29h1M27 29h1M30 29h1M9 30h1M17 30h1M31 30h1M34 30h1M56 30h5M8 31h1M17 31h1M32 31h2M55 31h1M61 31h1M8 32h1M20 32h1M30 32h2M51 32h1M62 32h1M0 33h1M32 33h1M51 33h4M63 33h1M1 34h1M50 34h1M2 35h1M26 35h1M49 35h2M2 36h1M27 36h2M48 36h2M56 36h5M2 37h1M33 37h7M46 37h2M55 37h1M61 37h1M2 38h1M29 38h4M44 38h2M62 38h2M2 39h1M33 39h2M54 39h2M62 39h1M1 40h1M3 40h1M53 40h1M55 40h3M1 41h1M3 41h1M52 41h1M58 41h1M2 42h1M51 42h1M59 42h1M0 43h1M2 43h1M49 43h2M59 43h1M0 44h1M45 44h4M60 44h1M0 45h1M56 45h1M60 45h1M0 46h1M5 46h1M21 46h1M55 46h1M60 46h1M0 47h1M2 47h1M5 47h1M21 47h1M35 47h3M3 48h2M6 48h1M19 48h1M21 48h1M33 48h1M37 48h2M59 48h1M1 49h1M5 49h1M19 49h1M21 49h1M32 49h1M34 49h2M39 49h1M2 50h3M21 50h1M31 50h1M33 50h1M51 50h1M20 51h1M31 51h1M33 51h1M49 51h2M20 52h1M22 52h1M30 52h1M32 52h1M21 53h1M23 53h2M28 53h2M31 53h1M22 54h1M30 54h1M24 55h5" />
<path stroke="#686858" d="M46 1h1M45 2h1M58 2h1M44 3h1M58 3h1M44 4h1M58 4h1M44 5h1M57 5h2M45 6h1M56 6h2M46 7h2M53 7h3M52 8h1M30 12h2M30 13h1M22 14h1M4 27h1M10 29h2M4 30h1M12 30h2M5 31h1M14 31h1M5 32h1M10 32h2M15 32h2M6 33h1M9 33h1M12 33h1M17 33h1M5 34h1M9 34h1M18 34h1M15 35h2M19 35h1M37 35h1M17 36h1M37 36h1M17 37h1M17 38h1M40 38h4M8 39h1M17 39h1M39 39h1M8 40h1M17 40h1M36 40h1M7 41h1M9 41h1M17 41h1M35 41h1M40 41h1M8 42h1M17 42h1M19 42h1M17 43h1M19 43h1M6 44h1M16 44h1M32 44h1M42 44h3M8 45h1M15 45h1M22 45h2M29 45h1M9 46h1M14 46h1M24 46h1M28 46h1M7 47h1M10 47h2M14 47h1M25 47h1M28 47h1M43 47h1M12 48h2M15 48h1M26 48h1M29 48h1M11 49h1M26 49h1M46 50h1M48 51h1M51 52h1" />
<path stroke="#a8b0c0" d="M47 1h1M47 2h1M49 2h1M57 2h1M46 3h1M48 3h1M53 3h1M55 3h1M46 4h1M48 4h1M52 4h1M54 4h1M56 4h1M46 5h1M54 5h1M56 5h1M53 6h1M29 8h1M29 9h1M29 10h1M41 10h1M29 11h1M41 11h1M44 11h1M29 12h1M40 12h2M43 12h2M40 13h4M30 14h1M32 14h1M39 14h4M28 16h3M28 17h4M27 18h3M26 19h3M26 20h2M6 32h1M7 33h2M8 35h1M8 36h1M23 42h4M27 43h1M28 44h1M28 45h1" />
<path stroke="#f8f8f8" d="M46 2h1M45 3h1M47 3h1M57 3h1M45 4h1M47 4h1M53 4h1M57 4h1M45 5h1M53 5h1M55 5h1M29 6h1M54 6h2M28 7h2M41 7h1M28 8h1M27 9h1M40 9h1M27 10h1M40 10h1M27 11h1M37 11h1M39 11h1M26 12h2M32 12h1M37 12h1M39 12h1M23 13h1M26 13h2M31 13h1M23 14h2M23 15h2M23 16h1M14 25h1M14 26h1M5 27h2M5 28h2M5 29h2M5 30h2M23 30h3M6 31h1M23 31h2M7 32h1M14 32h1M23 32h2M10 33h2M15 33h2M6 34h1M10 34h1M17 34h1M40 34h1M6 35h1M38 35h3M6 36h2M15 36h2M38 36h3M15 37h1M41 37h1M40 39h2M40 40h2M31 41h4M41 41h2M27 42h7M41 42h2M8 43h1M28 43h5M42 43h1M8 44h1M29 44h3M24 45h4M30 45h2M12 46h1M25 46h3M12 47h1M26 47h2M27 48h2M44 48h1M27 49h2" />
<path stroke="#d8e0f0" d="M48 2h1M49 3h1M47 5h2M52 5h1M46 6h2M52 6h1M52 7h1M41 8h1M28 9h1M41 9h1M28 10h1M28 11h1M40 11h1M28 12h1M28 13h2M32 13h1M37 13h3M29 14h1M31 14h1M37 14h2M29 15h3M37 15h2M31 16h1M14 24h1M7 28h1M7 29h2M7 30h2M26 30h1M7 31h1M25 31h1M7 34h2M7 35h1M29 39h4M28 40h8M25 41h6M22 43h5M22 44h6" />
<path stroke="#687890" d="M56 3h1M55 4h1M29 5h2M28 6h1M40 6h2M27 7h1M40 7h1M42 7h1M27 8h1M40 8h1M26 9h1M39 9h1M26 10h1M36 10h2M39 10h1M44 10h1M26 11h1M32 11h1M36 11h1M38 11h1M22 12h2M25 12h1M36 12h1M22 13h1M24 13h2M36 13h1M25 14h1M36 14h1M36 15h1" />
<path stroke="#80a0e0" d="M50 4h1M49 6h1M49 7h1M49 8h1M50 10h2M51 11h1M50 12h1M52 12h2M51 13h4M26 15h2M43 15h2M54 15h2M25 16h1M39 16h7M52 16h5M15 17h1M25 17h1M36 17h10M52 17h2M15 18h1M24 18h1M34 18h2M37 18h3M54 18h3M15 19h1M23 19h1M33 19h4M56 19h2M19 20h1M22 20h1M32 20h4M16 21h1M18 21h1M31 21h4M47 21h2M57 21h2M11 22h2M16 22h1M18 22h1M21 22h1M30 22h4M47 22h3M55 22h1M58 22h2M11 23h2M18 23h1M20 23h1M30 23h3M48 23h2M55 23h2M58 23h1M6 24h1M11 24h2M19 24h1M27 24h2M30 24h3M49 24h2M56 24h1M6 25h1M12 25h2M17 25h2M24 25h5M30 25h2M36 25h2M41 25h1M49 25h2M7 26h1M12 26h2M17 26h2M22 26h3M35 26h1M39 26h3M50 26h1M60 26h1M8 27h1M11 27h1M17 27h1M29 27h3M33 27h2M37 27h3M50 27h2M55 27h1M60 27h1M10 28h2M32 28h1M35 28h3M50 28h2M55 28h2M60 28h1M31 29h1M33 29h3M51 29h1M55 29h2M27 30h1M32 30h2M55 30h1M26 31h6M56 31h1M59 31h1M26 32h4M32 32h2M55 32h2M59 32h2M18 33h5M25 33h6M33 33h1M55 33h1M59 33h2M19 34h7M52 34h1M54 34h6M20 35h6M52 35h2M55 35h4M20 36h7M52 36h2M55 36h1M20 37h2M24 37h4M29 37h4M53 37h1M56 37h5M25 38h3M33 38h5M53 38h1M55 38h5M53 39h1M56 39h4M58 40h1M43 45h1" />
<path stroke="#6080a0" d="M50 5h1M50 6h1M50 7h1M50 8h1M49 9h1M48 13h1M50 13h1M49 14h1M53 14h1M15 16h1M26 16h1M51 16h1M14 17h1M26 17h1M33 17h1M25 18h1M32 18h2M40 18h5M24 19h1M30 19h3M38 19h7M53 19h1M15 20h1M23 20h1M29 20h3M36 20h1M38 20h7M46 20h2M11 21h1M15 21h1M22 21h2M28 21h3M35 21h3M39 21h6M46 21h1M55 21h1M10 22h1M15 22h1M22 22h1M28 22h2M34 22h4M39 22h6M53 22h2M16 23h1M21 23h1M29 23h1M33 23h5M39 23h7M50 23h1M59 23h1M16 24h1M20 24h2M33 24h5M42 24h4M57 24h3M19 25h2M32 25h4M43 25h3M19 26h1M33 26h2M43 26h3M54 26h1M18 27h2M25 27h4M42 27h4M17 28h11M40 28h5M46 28h1M61 28h1M17 29h4M28 29h2M38 29h7M46 29h2M50 29h1M57 29h5M28 30h3M37 30h7M45 30h7M61 30h1M34 31h2M37 31h6M46 31h6M60 31h1M21 32h2M25 32h1M35 32h1M37 32h5M47 32h4M61 32h1M23 33h2M31 33h1M35 33h1M37 33h3M47 33h4M61 33h2M26 34h7M34 34h2M47 34h3M60 34h3M27 35h6M34 35h1M47 35h2M59 35h3M46 36h2M61 36h1M3 37h1M22 37h2M45 37h1M48 37h1M52 37h1M3 38h1M20 38h5M46 38h3M52 38h1M60 38h2M3 39h1M20 39h8M46 39h4M51 39h2M60 39h2M63 39h1M2 40h1M20 40h5M47 40h6M54 40h1M59 40h2M62 40h1M2 41h1M20 41h3M47 41h5M54 41h2M57 41h1M59 41h1M62 41h1M1 42h1M20 42h2M47 42h4M54 42h2M57 42h2M62 42h1M1 43h1M20 43h1M46 43h3M54 43h2M61 43h2M1 44h1M20 44h1M49 44h2M54 44h2M59 44h1M61 44h1M1 45h1M18 45h1M47 45h5M54 45h2M59 45h1M61 45h1M1 46h1M48 46h7M58 46h2M1 47h1M49 47h6M56 47h4M1 48h1M34 48h3M49 48h5M55 48h4M2 49h1M20 49h1M50 49h3M55 49h4M20 50h1M50 50h1M56 50h2M21 51h1M21 52h1M22 53h1M23 54h7" />
<path stroke="#000000" d="M30 6h1M30 7h1M30 8h1M42 8h1M30 9h1M42 9h1M30 10h1M42 10h1M45 10h1M30 11h1M33 11h1M42 11h1M45 11h1M33 12h1M45 12h1M33 13h1M44 13h1M55 13h1M33 14h1M22 15h1M32 15h1M40 15h2M56 15h1M22 16h1M32 16h1M57 16h1M32 17h1M46 17h1M26 18h1M30 18h2M46 18h1M58 18h1M25 19h1M45 19h1M58 19h1M25 20h1M45 20h1M52 20h1M58 20h1M24 21h1M26 21h1M45 21h1M52 21h1M6 22h1M23 22h1M27 22h1M52 22h1M6 23h1M22 23h1M28 23h1M60 23h1M7 24h1M22 24h1M60 24h1M7 25h1M21 25h1M29 25h1M42 25h1M51 25h1M61 25h1M8 26h1M42 26h1M51 26h1M61 26h1M15 27h1M40 27h2M46 27h1M61 27h1M4 28h1M15 28h1M28 28h2M38 28h2M52 28h1M4 29h1M21 29h6M36 29h2M45 29h1M52 29h1M54 29h1M62 29h1M18 30h3M35 30h2M44 30h1M52 30h1M54 30h1M62 30h1M20 31h2M36 31h1M43 31h1M52 31h1M54 31h1M62 31h1M34 32h1M36 32h1M42 32h1M52 32h1M54 32h1M34 33h1M36 33h1M40 33h2M11 34h1M13 34h2M33 34h1M36 34h4M53 34h1M63 34h1M5 35h1M10 35h1M33 35h1M35 35h1M54 35h1M63 35h1M5 36h1M10 36h1M14 36h1M19 36h1M29 36h6M54 36h1M63 36h1M6 37h3M10 37h1M13 37h2M16 37h1M19 37h1M28 37h1M40 37h1M54 37h1M63 37h1M10 38h1M13 38h4M19 38h1M28 38h1M38 38h2M54 38h1M10 39h1M12 39h5M19 39h1M28 39h1M35 39h3M11 40h1M15 40h2M19 40h1M25 40h3M39 40h1M63 40h1M10 41h1M16 41h1M19 41h1M23 41h2M56 41h1M63 41h1M9 42h1M16 42h1M22 42h1M34 42h1M40 42h1M56 42h1M63 42h1M9 43h1M16 43h1M21 43h1M33 43h1M41 43h1M56 43h1M63 43h1M19 44h1M21 44h1M56 44h1M62 44h1M6 45h1M20 45h2M32 45h1M42 45h1M62 45h1M17 46h3M30 46h3M42 46h1M61 46h1M16 47h1M19 47h1M55 47h1M60 47h1M8 48h2M16 48h1M43 48h1M54 48h1M10 49h1M15 49h1M29 49h1M44 49h1M53 49h1M59 49h1M12 50h3M27 50h3M45 50h1M52 50h1M58 50h1M47 51h1M56 51h2M52 52h4" />
<path stroke="#b0c8f8" d="M49 11h2M34 14h2M51 14h2M33 15h3M53 15h1M35 16h1M54 19h2M20 20h1M55 20h1M19 21h2M25 21h1M56 21h1M19 22h1M24 22h3M56 22h2M23 23h5M57 23h1M23 24h4M22 25h2M38 25h3M21 26h1M36 26h3M56 26h4M35 27h2M56 27h4M13 28h2M33 28h2M57 28h3M12 29h2M15 29h1M32 29h1M14 30h3M15 31h2M18 31h2M57 31h2M17 32h3M57 32h2M1 33h1M56 33h3M2 34h1M3 35h1M3 36h1M19 45h1M6 46h1M20 46h1M6 47h1M20 47h1M2 48h1M5 48h1M20 48h1M3 49h2M33 49h1M32 50h1M32 51h1M31 52h1M30 53h1" />
<path stroke="#f8f890" d="M49 12h1M49 13h1M51 15h1M52 18h1M53 20h2M53 21h1M47 23h1M54 23h1M47 24h2M54 24h2M48 25h1M54 25h2M48 26h2M49 27h1M49 28h1M10 30h2M9 31h5M9 32h1M12 32h2M13 33h2M15 34h2M41 34h1M51 34h1M9 35h1M17 35h2M41 35h1M51 35h1M9 36h1M18 36h1M41 36h2M9 37h1M42 37h1M9 38h1M9 39h1M42 39h1M9 40h1M42 40h1M8 41h1M43 41h1M7 42h1M43 42h1M43 43h2M7 45h1M8 46h1M43 46h3M9 47h1M44 47h3M10 48h2M45 48h2M12 49h1M46 49h2M48 50h2M51 51h3" />
<path stroke="#c8c880" d="M46 22h1M47 25h1M47 26h1M47 27h2M47 28h2M48 29h2M44 31h2M43 32h4M42 33h5M42 34h5M42 35h5M62 35h1M43 36h3M50 36h2M62 36h1M18 37h1M43 37h2M49 37h3M62 37h1M18 38h1M49 38h3M18 39h1M43 39h3M50 39h1M18 40h1M43 40h4M61 40h1M18 41h1M44 41h3M53 41h1M60 41h2M18 42h1M44 42h3M52 42h2M60 42h2M7 43h1M18 43h1M45 43h1M51 43h3M57 43h2M60 43h1M7 44h1M17 44h2M51 44h3M57 44h2M16 45h2M44 45h3M52 45h2M57 45h2M7 46h1M15 46h2M46 46h2M56 46h2M8 47h1M15 47h1M47 47h2M14 48h1M47 48h2M13 49h2M45 49h1M48 49h2M54 49h1M47 50h1M53 50h3M54 51h2" />
<path stroke="#c83030" d="M15 26h1M14 27h1M21 30h2M22 31h1M12 41h3M10 42h1M13 42h3M14 43h2M9 44h1M14 44h2M9 45h2M13 45h2M10 46h2M13 46h1M13 47h1" />
<path stroke="#902000" d="M12 34h1M11 35h4M11 36h3M11 37h2M11 38h2M11 39h1M10 40h1M12 40h3M11 41h1M15 41h1" />
<path stroke="#d08860" d="M11 42h2M10 43h4M10 44h4M11 45h2" />
</svg>