<svg xmlns="http://www.w3.org/2000/svg" viewBox="0 -0.5 64 64" shape-rendering="crispEdges">
<metadata>Made with Pixels to Svg https://codepen.io/shshaw/pen/XbxvNj</metadata>
<path stroke="#38a088" d="M35 5h1M34 6h1M31 9h1M24 12h1M30 13h2M30 14h3M29 15h1M31 15h3M32 16h3M33 17h4M40 18h1M42 19h1M45 22h1M49 23h1M46 24h1M49 24h1M46 25h1M49 25h2M48 26h3M49 27h2M49 28h3M49 29h3M47 30h1M49 30h3M46 31h3M51 31h1M45 32h4M50 32h1M45 33h4M50 33h1M44 34h8M43 35h9M42 36h10M32 37h1M43 37h6M50 37h2M31 38h3M44 38h5M50 38h2M22 39h1M31 39h3M43 39h6M50 39h2M22 40h1M30 40h4M43 40h5M50 40h2M30 41h3M43 41h4M49 41h3M21 42h1M28 42h4M41 42h1M43 42h1M49 42h4M23 43h7M41 43h1M49 43h4M23 44h5M41 44h1M49 44h5M40 45h2M51 45h3M37 46h4M37 47h4M38 48h3M27 49h2M39 49h2M25 50h4M39 50h1M26 51h4M39 51h1M39 52h1M39 53h1M28 54h2M34 55h1M36 55h1M35 56h1M38 56h1" />
<path stroke="#106850" d="M36 5h2M33 6h1M32 7h1M31 8h1M37 9h1M30 10h1M36 10h1M25 11h3M30 11h1M23 12h1M28 12h3M34 12h1M22 13h1M33 13h1M21 14h1M33 14h1M20 15h1M30 15h1M34 15h1M23 16h1M28 16h1M31 16h1M24 17h1M32 17h1M39 17h1M33 18h1M35 19h1M47 19h1M37 20h1M29 21h1M48 21h1M39 22h1M49 22h1M40 24h1M50 24h1M40 25h1M42 25h2M45 26h1M51 27h1M48 29h1M48 30h1M49 31h2M49 33h1M52 34h1M49 37h1M20 40h1M48 40h1M20 41h1M33 41h1M42 41h1M52 41h1M24 42h1M44 42h1M21 43h1M30 43h1M22 44h1M28 44h2M48 44h1M54 44h1M24 45h1M49 45h1M41 46h1M52 46h1M50 47h1M23 48h1M24 49h1M36 49h1M24 50h1M29 50h1M36 50h1M40 50h1M25 51h1M30 51h1M35 51h1M25 52h1M35 52h1M26 53h1M29 53h1M34 53h1M33 54h1M39 54h1M34 56h1M36 56h1" />
<path stroke="#80e8d0" d="M35 6h2M33 7h4M32 8h5M32 9h5M33 10h3M25 12h3M23 13h5M22 14h6M21 15h6M24 16h2M37 18h3M36 19h6M38 20h6M39 21h6M40 22h5M40 23h4M41 24h3M22 35h1M27 35h4M21 36h2M26 36h5M22 37h1M26 37h2M22 38h2M25 38h2M23 39h1M25 39h2M23 40h4M21 41h7M35 53h2M34 54h4M35 55h1M37 55h1" />
<path stroke="#282828" d="M37 6h1M37 7h1M37 8h1M36 11h1M35 12h1M34 13h1M21 16h2M29 16h1M25 17h3M27 19h2M34 19h1M26 20h2M29 20h1M36 20h1M48 20h1M25 21h1M38 21h1M49 21h1M25 22h1M25 23h1M39 23h1M50 23h1M24 25h1M41 25h1M51 25h1M24 26h1M39 26h2M42 26h1M51 26h1M24 27h1M14 28h1M23 28h1M52 28h1M15 29h2M23 29h1M30 29h1M52 29h1M17 30h1M23 30h1M31 30h2M42 30h4M52 30h1M18 31h2M21 31h1M33 31h1M38 31h4M52 31h1M20 32h1M34 32h4M49 32h1M51 32h2M20 33h1M34 33h1M51 33h2M43 34h1M42 35h1M52 35h1M41 36h1M52 36h1M20 37h2M29 37h2M41 37h1M52 37h1M20 38h1M29 38h2M43 38h1M49 38h1M52 38h1M20 39h2M27 39h1M29 39h2M40 39h1M42 39h1M49 39h1M52 39h1M27 40h3M35 40h6M42 40h1M49 40h1M52 40h1M41 41h1M47 41h2M23 42h1M32 42h1M42 42h1M45 42h2M48 42h1M53 42h1M31 43h1M40 43h1M42 43h2M48 43h1M53 43h1M40 44h1M42 44h1M25 45h3M37 45h3M42 45h1M54 45h1M19 46h3M36 46h1M49 46h1M54 46h1M23 47h1M36 47h1M41 47h1M49 47h1M53 47h1M24 48h1M27 48h4M34 48h1M36 48h1M41 48h1M50 48h3M25 49h1M29 49h1M33 49h1M41 49h1M40 51h1M30 52h1M40 52h1M30 53h1M40 53h1M27 54h1M30 54h1M28 55h2M33 55h1M39 55h1M33 56h1M39 56h1M34 57h5" />
<path stroke="#60c8b0" d="M31 10h2M31 11h5M31 12h3M28 13h2M32 13h1M28 14h2M27 15h2M26 16h2M37 17h2M34 18h3M44 23h2M44 24h2M45 25h1M41 26h1M40 27h1M44 29h3M46 30h1M22 34h1M28 34h2M21 35h1M20 36h1M31 36h1M28 37h1M31 37h1M27 38h1M28 41h2M22 42h1M25 42h3M22 43h1M50 45h1M50 46h2M53 46h1M51 47h2M37 48h1M37 49h2M37 50h2M36 51h3M26 52h4M36 52h3M27 53h2M37 53h2M38 54h1M38 55h1M37 56h1" />
<path stroke="#304078" d="M36 14h3M35 15h1M37 15h1M39 15h2M35 16h5M41 16h1M40 17h4M41 18h1M43 18h3M43 19h1M45 19h2M44 20h2M47 20h1M26 21h1M45 21h1M47 21h1M26 22h1M46 22h1M48 22h1M26 23h1M46 23h1M48 23h1M25 24h1M48 24h1M25 25h1M44 25h1M47 25h2M25 26h1M43 26h1M46 26h2M11 27h2M25 27h1M41 27h1M43 27h1M45 27h1M47 27h2M12 28h2M24 28h1M40 28h2M43 28h4M48 28h1M14 29h1M24 29h1M28 29h2M41 29h1M43 29h1M47 29h1M15 30h2M24 30h1M27 30h4M41 30h1M16 31h2M22 31h1M26 31h7M42 31h2M17 32h3M21 32h1M26 32h8M40 32h2M18 33h2M21 33h1M24 33h10M35 33h1M39 33h1M19 34h3M24 34h3M31 34h7M19 35h2M23 35h3M32 35h4M19 36h1M23 36h3M32 36h3M24 37h1M24 38h1" />
<path stroke="#7088b0" d="M36 15h1M38 15h1M40 16h1M44 19h1M46 20h1M47 22h1M47 23h1M44 26h1M42 27h1" />
<path stroke="#587098" d="M42 18h1M46 21h1M47 24h1M13 27h1M44 27h1M46 27h1M42 28h1M47 28h1M40 29h1M42 29h1M23 31h2M22 32h3M38 32h2M22 33h2M36 33h3M23 34h1M27 34h1M30 34h1M26 35h1M31 35h1M23 37h1M25 37h1M33 37h1M24 39h1M28 39h1M21 40h1" />
<path stroke="#887828" d="M28 20h1M27 21h2M28 22h2M29 23h1M28 24h2M28 25h2M27 26h1M29 26h1M27 27h1M29 27h1M26 28h1M29 28h1M12 29h1M26 29h1M12 30h1M25 30h1M13 31h1M25 31h1M45 31h1M14 32h2M44 32h1M15 33h2M44 33h1M15 34h1M17 34h1M40 34h3M15 35h1M18 35h1M38 35h2M15 36h3M36 36h2M16 37h1M18 37h2M35 37h1M16 38h1M37 38h4M17 39h3M34 39h2M34 40h1" />
<path stroke="#e0b848" d="M27 22h1M27 23h2M26 24h2M26 25h2M26 26h1M26 27h1M25 28h1M25 29h1M27 29h1M26 30h1M25 32h1M18 34h1M36 35h1M18 36h1M35 36h1M38 36h1M17 37h1M34 37h1M36 37h3M17 38h3M34 38h3M36 39h3" />
<path stroke="#a8a8c8" d="M33 22h1M32 23h1M31 24h1M20 25h1M33 25h1M19 26h1M33 26h1M21 27h1M32 27h1M22 28h1M32 28h1M31 29h1M37 29h1M18 30h1M36 30h1M35 31h1M15 39h1M34 41h2M17 42h1M36 42h2M18 43h1M20 43h1M38 43h1M18 44h2M30 44h2M18 45h1M32 45h1M25 46h1M32 46h1M25 47h1" />
<path stroke="#585870" d="M22 23h2M34 23h1M22 24h1M24 24h1M30 24h1M35 24h1M19 25h1M21 25h1M35 25h1M36 26h1M19 27h1M37 27h3M19 28h1M39 28h1M18 29h1M39 29h1M40 30h1M42 37h1M16 40h1M17 41h1M40 42h1M36 45h1M18 46h1M22 46h1M35 46h1M34 47h1M31 48h1M26 49h1M32 49h1" />
<path stroke="#f8f8f8" d="M33 23h1M23 24h1M32 24h2M22 25h2M30 25h3M34 25h1M21 26h3M30 26h3M35 26h1M20 27h1M22 27h2M30 27h2M34 27h1M20 28h2M30 28h2M33 28h1M35 28h1M19 29h4M34 29h1M19 30h4M33 30h1M20 31h1M34 31h1M21 38h1M28 38h1M16 39h1M17 40h3M18 41h2M18 42h3M19 43h1M20 44h2M19 45h5M23 46h2M27 46h2M24 47h1M26 47h2M25 48h2" />
<path stroke="#e0e0e0" d="M34 24h1M20 26h1M34 26h1M33 27h1M35 27h2M34 28h1M36 28h3M32 29h2M35 29h2M38 29h1M34 30h2M37 30h3M36 31h2M41 38h2M41 39h1M41 40h1M36 41h5M33 42h3M38 42h2M32 43h6M39 43h1M32 44h8M28 45h4M33 45h3M26 46h1M29 46h3M33 46h2M28 47h6M32 48h2" />
<path stroke="#f8e878" d="M28 26h1M28 27h1M27 28h2M13 29h1M13 30h2M14 31h2M44 31h1M16 32h1M42 32h2M17 33h1M40 33h4M16 34h1M38 34h2M16 35h2M37 35h1M40 35h2M39 36h2M39 37h2M39 39h1" />
</svg>