<svg xmlns="http://www.w3.org/2000/svg" viewBox="0 -0.5 64 64" shape-rendering="crispEdges">
<metadata>Made with Pixels to Svg https://codepen.io/shshaw/pen/XbxvNj</metadata>
<path stroke="#101010" d="M22 14h2M21 15h1M23 15h2M21 16h1M23 16h3M43 16h4M21 17h1M24 17h3M41 17h2M46 17h1M21 18h1M24 18h4M39 18h2M45 18h2M21 19h1M26 19h3M37 19h2M41 19h1M43 19h4M21 20h1M28 20h2M36 20h1M39 20h1M42 20h4M21 21h1M28 21h2M36 21h3M42 21h4M21 22h1M29 22h1M36 22h1M43 22h3M21 23h1M28 23h1M36 23h1M43 23h2M22 24h1M35 24h1M42 24h3M42 25h2M39 26h4M33 27h2M24 28h1M34 28h2M24 29h2M33 29h1M35 29h1M33 30h2M39 30h1M39 31h1M38 33h1M24 34h1M37 34h1M26 35h1M38 35h1M28 36h6M38 36h1M24 37h1M29 37h4M37 37h1M26 38h1M36 38h1M36 39h1M37 41h1M27 42h1M37 42h1M27 43h2M37 43h1M25 44h2M30 44h5M36 44h1M34 45h1M36 45h2M35 46h1M37 46h2M34 47h1M38 47h1M33 48h1M37 48h2M33 49h1M36 49h2M34 50h4M35 51h2" />
<path stroke="#505050" d="M22 15h1M22 16h1M22 17h2M43 17h3M22 18h2M41 18h4M22 19h3M39 19h2M42 19h1M22 20h1M24 20h1M27 20h1M37 20h2M22 21h1M41 21h1M22 22h1M22 23h1M28 37h1M29 38h1M31 38h1M35 45h1M36 46h1M37 47h1M36 48h1M35 49h1" />
<path stroke="#e0b040" d="M25 19h1M23 20h1M41 20h1M24 21h1M29 23h5M27 24h2M26 25h1M40 25h1M24 26h1M23 28h1M26 28h1M26 29h1M38 29h1M35 30h1M38 30h1M27 31h1M24 33h1M35 33h1M25 34h2M33 34h2M28 35h6M26 36h1M37 36h1M25 37h2M36 37h1M24 40h1M26 41h1M33 41h1M24 42h1M26 42h1M29 42h5M35 42h2M25 43h2M30 43h4M35 43h2" />
<path stroke="#f8e880" d="M25 20h1M40 20h1M23 21h1M25 21h3M39 21h2M23 22h6M37 22h6M23 23h5M37 23h6M24 24h3M29 24h5M37 24h5M25 25h1M32 25h4M37 25h3M32 26h7M24 27h1M32 27h1M35 27h3M36 28h2M23 29h1M31 29h1M36 29h2M23 30h1M26 30h2M29 30h4M24 31h3M32 31h3M24 32h4M32 32h3M25 33h4M32 33h3M27 34h2M31 34h2M24 36h2M34 36h3M27 37h1M34 37h2M33 38h2M33 39h3M25 40h1M27 40h1M32 40h3M24 41h2M28 41h5M35 41h2M25 42h1" />
<path stroke="#c08800" d="M26 20h1M23 24h1M34 24h1M36 24h1M24 25h1M36 25h1M41 25h1M23 27h1M38 27h1M38 28h1M22 29h1M22 30h1M28 30h1M22 31h1M22 32h1M31 33h1M35 34h1M27 36h1M33 37h1M35 38h1M24 39h3M23 40h1M35 40h2M23 41h1M27 41h1M34 41h1M28 42h1" />
<path stroke="#f8f8c0" d="M27 25h5M25 26h7M26 27h6M27 28h5M27 29h4M24 35h2M36 35h2M27 38h2M30 38h1M32 38h1M27 39h6M28 40h4" />
<path stroke="#707070" d="M25 27h1M32 28h1M32 29h1M34 29h1M25 30h1M35 47h2M34 48h2M34 49h1" />
<path stroke="#f8f8f8" d="M25 28h1M33 28h1" />
<path stroke="#805000" d="M39 29h1M24 30h1M39 32h1M23 33h1M36 34h1M23 35h1M27 35h1M34 35h2M23 36h1M25 38h1M26 40h1M34 42h1M24 43h1M29 43h1M34 43h1M35 44h1" />
<path stroke="#f87048" d="M36 30h2M23 31h1M35 31h3M23 32h1M35 32h3M29 33h2M29 34h2" />
<path stroke="#702008" d="M28 31h3M28 32h1" />
<path stroke="#c04028" d="M31 31h1M38 31h1M29 32h3M38 32h1M36 33h2" />
</svg>