<svg xmlns="http://www.w3.org/2000/svg" viewBox="0 -0.5 64 64" shape-rendering="crispEdges">
<metadata>Made with Pixels to Svg https://codepen.io/shshaw/pen/XbxvNj</metadata>
<path stroke="#7850b0" d="M31 8h8M28 9h3M26 10h2M37 10h2M25 11h1M33 11h1M25 12h1M32 12h1M42 12h1M34 13h1M43 13h1M31 14h1M11 15h2M30 15h1M11 16h1M13 16h1M32 16h1M11 17h1M13 17h1M31 17h2M11 18h1M11 19h1M15 19h1M37 19h2M49 19h1M51 19h1M34 20h1M38 20h1M51 20h1M31 21h1M51 21h1M27 22h1M51 22h1M19 23h2M36 23h1M51 23h1M12 24h1M17 24h2M36 24h1M16 25h1M35 25h1M50 25h1M15 26h1M34 26h1M50 26h1M14 27h1M27 27h1M43 27h1M49 27h1M14 28h1M38 28h2M48 28h1M13 29h1M36 29h2M46 29h2M13 30h1M32 30h2M13 31h1M14 33h1M28 33h1M26 35h2M29 35h2M48 35h1M14 36h1M25 36h6M48 36h1M24 37h5M48 37h1M16 38h1M23 38h4M33 39h1M40 39h1M21 40h1M33 40h1M40 40h1M37 41h2M41 41h1M34 42h3M42 42h1M49 42h1M39 43h3M50 43h1M22 44h1M37 44h5M39 45h3M40 46h3M29 47h1M41 47h2M29 48h1M41 48h2M29 49h1M41 49h2M29 50h1M42 50h1M29 51h1M42 51h1M22 52h1M29 52h1M39 52h1M50 52h1M39 53h1M48 53h1M27 54h1M48 54h2" />
<path stroke="#d0a8e0" d="M31 9h8M28 10h1M39 10h3M26 11h2M41 11h3M43 12h3M46 13h1M47 14h1M47 15h2M12 16h1M48 16h2M12 17h1M49 17h1M12 18h2M49 18h1M12 19h2M12 20h4M37 20h1M13 21h4M32 21h4M14 22h3M28 22h5M14 23h5M26 23h5M15 24h2M19 24h4M25 24h3M15 25h1M17 25h1M20 25h3M24 25h3M16 26h1M21 26h6M15 27h1M21 27h5M21 28h5M40 28h3M14 29h2M20 29h8M38 29h8M14 30h1M20 30h10M36 30h11M14 31h1M19 31h12M35 31h12M14 32h1M19 32h2M23 32h3M27 32h6M37 32h10M15 33h4M23 33h3M27 33h1M31 33h3M38 33h7M46 33h1M15 34h4M23 34h3M28 34h1M38 34h1M40 34h4M45 34h1M15 35h4M23 35h2M39 35h1M41 35h2M44 35h1M15 36h9M16 37h1M18 37h4M22 39h1M22 40h2M23 41h1M23 42h1M25 42h2M25 43h3M24 44h4M23 45h4M22 46h3M22 47h1M20 52h1M48 52h1M20 53h1M26 53h2M47 53h1M20 54h1" />
<path stroke="#b070e0" d="M39 9h1M29 10h3M42 10h1M28 11h2M34 11h7M44 11h1M26 12h2M33 12h3M32 13h2M45 13h1M32 14h2M46 14h1M31 15h2M31 16h1M50 17h1M50 18h1M14 19h1M50 19h1M35 20h2M50 20h1M12 21h1M36 21h1M50 21h1M13 22h1M17 22h1M33 22h2M50 22h1M31 23h2M50 23h1M14 24h1M28 24h3M49 24h2M23 25h1M27 25h2M49 25h1M27 26h1M48 26h2M26 27h1M47 27h2M43 28h1M46 28h2M18 29h1M31 31h1M33 31h2M47 31h1M15 32h1M18 32h1M26 32h1M34 32h3M47 32h1M19 33h1M29 33h2M35 33h3M45 33h1M47 33h2M30 34h5M36 34h2M39 34h1M44 34h1M46 34h3M22 35h1M36 35h3M40 35h1M43 35h1M45 35h3M31 36h17M17 37h1M22 37h1M29 37h19M27 38h21M23 39h10M34 39h6M41 39h7M24 40h9M34 40h6M41 40h7M22 41h1M25 41h8M34 41h3M42 41h7M27 42h6M43 42h6M22 43h1M24 43h1M28 43h4M43 43h7M28 44h3M44 44h7M27 45h2M47 45h4M25 46h3M48 46h3M23 47h3M28 47h1M49 47h2M21 48h4M26 48h3M49 48h2M21 49h3M27 49h2M49 49h2M20 50h3M27 50h2M40 50h2M49 50h2M20 51h3M27 51h2M39 51h3M48 51h3M21 52h1M27 52h2M38 52h1M40 52h2M49 52h1M21 53h1M28 53h1M38 53h1M40 53h1M49 53h1M21 54h1M26 54h1M28 54h1M47 54h1" />
<path stroke="#503868" d="M40 9h2M32 10h5M43 10h1M30 11h1M45 11h1M36 12h1M41 12h1M46 12h1M26 13h1M31 13h1M44 13h1M47 13h1M48 14h1M33 15h1M30 16h1M30 17h1M48 17h1M14 18h1M31 18h1M48 18h1M11 20h1M16 20h1M32 20h2M49 20h1M52 20h1M11 21h1M17 21h1M28 21h3M37 21h1M49 21h1M52 21h1M12 22h1M18 22h1M26 22h1M37 22h1M49 22h1M52 22h1M12 23h1M21 23h2M25 23h1M49 23h1M52 23h1M23 24h2M35 24h1M48 24h1M51 24h1M13 25h1M34 25h1M48 25h1M51 25h1M13 26h1M32 26h2M47 26h1M13 27h1M29 27h5M40 27h3M46 27h1M50 27h1M26 28h1M28 28h5M44 28h2M49 28h1M28 29h4M48 29h1M30 30h2M34 30h2M32 31h1M13 32h1M33 32h1M48 32h1M13 33h1M26 33h1M34 33h1M49 33h1M13 34h1M26 34h1M29 34h1M25 35h1M24 36h1M15 37h1M49 37h1M17 38h6M21 39h1M24 41h1M33 41h1M49 41h1M22 42h1M24 42h1M33 42h1M39 42h2M23 43h1M36 43h3M23 44h1M51 44h1M22 45h1M42 45h1M46 45h1M51 45h1M21 46h1M39 46h1M47 46h1M21 47h1M26 47h1M40 47h1M48 47h1M20 48h1M25 48h1M40 48h1M48 48h1M20 49h1M24 49h1M26 49h1M30 49h1M40 49h1M48 49h1M19 50h1M23 50h1M26 50h1M39 50h1M48 50h1M51 50h1M19 51h1M23 51h1M26 51h1M38 51h1M47 51h1M51 51h1M19 52h1M26 52h1M37 52h1M42 52h1M47 52h1M51 52h1M19 53h1M22 53h1M25 53h1M37 53h1M46 53h1M19 54h1M25 54h1M46 54h1M49 55h1" />
<path stroke="#101010" d="M31 11h1M28 12h2M37 12h4M27 13h1M35 13h1M34 14h1M45 14h1M46 15h1M49 15h1M33 16h1M47 16h1M50 16h1M33 17h1M32 18h1M51 18h1M27 28h1M47 30h2M48 31h1M21 32h2M14 34h1M19 34h1M49 34h1M14 35h1M19 35h1M49 35h1M49 36h1M23 37h1M48 38h1M48 39h1M48 40h1M39 41h2M37 42h2M41 42h1M50 42h1M32 43h4M42 43h1M31 44h1M36 44h1M42 44h2M29 45h2M37 45h2M44 45h2M28 46h1M43 46h1M51 46h1M27 47h1M43 47h1M51 47h1M43 48h1M51 48h1M43 49h1M51 49h1M30 50h1M43 50h1M30 51h1M30 52h1M29 53h1M41 53h1M50 53h1M22 54h1M29 54h1M38 54h3M50 54h1M20 55h2M26 55h3M47 55h2" />
<path stroke="#303030" d="M35 22h2M13 23h1M33 23h3M13 24h1M31 24h4M14 25h1M29 25h5M14 26h1M28 26h4M28 27h1M27 34h1M35 34h1M28 35h1M31 35h5" />
<path stroke="#e8d8e8" d="M18 25h2M17 26h4M16 27h5M15 28h6M19 29h1M16 30h1M19 30h1" />
<path stroke="#803840" d="M16 29h2M15 30h1M18 30h1M15 31h1M18 31h1M16 32h2" />
<path stroke="#d03840" d="M17 30h1M16 31h2" />
<path stroke="#f8f8f8" d="M20 33h1M20 34h1" />
<path stroke="#001890" d="M21 33h2M21 34h2M20 35h2" />
</svg>