<svg xmlns="http://www.w3.org/2000/svg" viewBox="0 -0.5 64 64" shape-rendering="crispEdges">
<metadata>Made with Pixels to Svg https://codepen.io/shshaw/pen/XbxvNj</metadata>
<path stroke="#506868" d="M42 11h1M41 12h2M40 13h1M42 13h1M41 14h2M34 15h1M41 15h2M40 16h3M39 17h4M33 18h1M38 18h5M45 18h1M37 19h5M44 19h1M28 20h1M31 20h2M36 20h8M32 21h1M34 21h1M38 21h5M40 22h2M16 24h1M44 24h1M46 24h1M16 25h1M42 25h1M44 25h1M46 25h1M16 26h1M43 26h1M49 26h2M11 27h6M21 27h1M44 27h1M20 28h2M38 28h1M45 28h1M19 29h3M50 29h2M17 30h4M22 30h1M42 30h1M18 31h4M43 31h1M12 32h2M19 32h1M43 32h1M11 33h1M18 33h3M39 33h1M43 33h1M19 34h1M35 34h1M38 34h1M42 34h1M14 35h1M18 35h3M36 35h2M41 35h2M16 36h4M28 36h2M35 36h2M19 37h3M28 37h1M35 37h3M19 38h1M28 38h1M34 38h1M36 38h3M29 39h1M34 39h1M36 39h3M29 40h6M36 40h2M30 41h4M36 41h1M35 42h1" />
<path stroke="#385050" d="M43 11h1M43 12h1M35 14h1M39 14h1M36 15h1M38 15h1M34 16h1M37 16h1M34 17h1M28 19h3M33 19h1M42 19h1M45 19h1M27 20h1M33 20h1M44 20h1M28 21h4M35 21h1M43 21h2M36 22h2M42 22h2M30 23h1M38 23h2M42 23h2M17 24h1M40 24h2M47 24h1M18 25h1M47 25h1M45 26h2M48 26h1M46 27h1M48 27h3M11 28h1M22 28h1M47 28h3M12 29h1M22 29h2M45 29h1M47 29h2M13 30h1M21 30h1M23 30h2M46 30h3M50 30h2M14 31h1M22 31h3M44 31h4M49 31h2M20 32h6M44 32h7M21 33h3M25 33h1M36 33h1M44 33h6M12 34h2M20 34h3M36 34h1M39 34h1M43 34h6M21 35h1M29 35h1M38 35h1M43 35h5M13 36h1M30 36h2M37 36h9M12 37h1M38 37h2M27 38h1M35 38h1M39 38h1M35 39h1M39 39h1M38 40h2M29 41h1M34 41h1M37 41h1M30 42h4M36 42h2M31 43h7" />
<path stroke="#88a0a0" d="M41 13h1M40 14h1M35 15h1M39 15h2M35 16h1M38 16h2M35 17h1M37 17h2M34 18h4M34 19h3M29 20h2M33 21h1M17 25h1M38 25h1M17 26h2M17 27h3M12 28h8M13 29h6M14 30h3M15 31h3M14 32h5M12 33h6M14 34h5M15 35h3M14 36h2M29 37h6M29 38h5M30 39h4" />
<path stroke="#284040" d="M43 13h1M43 14h1M45 17h1M43 18h2M43 19h1M34 20h2M36 21h2M29 22h7M38 22h2M31 23h7M40 23h2M46 23h2M31 24h2M34 24h6M42 24h1M45 24h1M21 25h1M39 25h3M45 25h1M49 25h2M19 26h1M21 26h2M39 26h4M20 27h1M22 27h1M39 27h5M23 28h1M39 28h1M41 28h4M24 29h1M37 29h3M43 29h2M25 30h1M37 30h2M41 30h1M25 31h1M36 31h1M42 31h1M26 32h1M36 32h1M24 33h1M26 33h1M38 33h1M23 34h1M25 34h2M37 34h1M22 35h2M27 35h2M20 36h6M27 36h1M18 37h1M26 37h2M18 38h1M28 39h1M28 40h1M29 42h1M30 43h1M31 44h2" />
<path stroke="#101010" d="M43 15h1M36 16h1M43 16h1M36 17h1M43 17h1M46 17h1M46 18h1M46 19h1M45 20h1M45 21h1M44 22h1M44 23h1M43 24h1M48 24h1M43 25h1M48 25h1M44 26h1M47 26h1M51 26h1M45 27h1M47 27h1M51 27h1M29 28h1M40 28h1M46 28h1M50 28h3M40 29h3M46 29h1M49 29h1M52 29h1M39 30h1M43 30h3M49 30h1M52 30h1M37 31h2M48 31h1M51 31h1M34 32h1M37 32h1M39 32h1M42 32h1M51 32h1M30 33h1M33 33h1M35 33h1M37 33h1M40 33h1M42 33h1M50 33h1M31 34h2M34 34h1M41 34h1M49 34h1M35 35h1M39 35h2M48 35h1M32 36h3M46 36h2M13 37h5M22 37h2M40 37h6M20 38h2M40 38h1M18 39h2M40 39h1M35 40h1M40 40h1M35 41h1M34 42h1M47 42h1M45 43h2M33 44h5M43 44h2M35 45h1M42 45h1M36 46h1M41 46h1M36 47h1M41 47h1M37 49h1M28 50h1M36 50h1M27 51h1M29 51h1M31 51h1M35 51h1M28 52h1M30 52h1M33 52h2" />
<path stroke="#d0b028" d="M27 24h1M26 25h1M30 25h2M25 26h1M34 27h1M35 28h1M35 29h1M34 30h2M43 42h1M45 42h1M42 43h1M44 43h1M41 44h1M40 45h2M35 46h1M35 49h2M29 50h3M34 50h2" />
<path stroke="#987820" d="M28 24h2M25 27h1M25 28h1M32 30h2M32 31h1M31 32h2M44 39h2M42 40h2M41 41h1M38 42h1M42 44h1M34 45h1M39 45h1M39 46h2M33 47h1M37 47h1M39 47h1M31 48h2M36 48h1M38 48h1M40 48h1M29 49h2M33 49h1M32 50h2" />
<path stroke="#d8d8d8" d="M30 24h1" />
<path stroke="#f8f850" d="M33 24h1M32 25h2M28 26h6M27 27h7M26 28h2M31 28h4M34 31h1M33 32h1M31 33h2M44 40h1M41 42h1M39 43h1M41 43h1M40 44h1M35 47h1M33 48h3M31 49h2M34 49h1" />
<path stroke="#f8f8f8" d="M27 25h3M26 26h2M36 26h1M38 26h1M26 27h1M38 27h1M37 28h1M45 40h1M42 41h2M46 42h1M40 47h1M37 48h1M28 51h1M30 51h1M34 51h1" />
<path stroke="#684810" d="M34 25h1M34 26h1M28 28h1M30 28h1M26 29h2M31 29h4M36 29h1M36 30h1M31 31h1M33 31h1M35 31h1M35 32h1M46 39h1M46 40h1M38 41h2M44 41h3M39 42h2M42 42h1M44 42h1M38 43h1M40 43h1M43 43h1M39 44h1M33 45h1M34 46h1M34 47h1M33 51h1" />
<path stroke="#e83840" d="M35 25h3M35 26h1M35 27h1M24 34h1M25 35h2" />
<path stroke="#a81020" d="M37 26h1M37 27h1M36 28h1M24 35h1M26 36h1" />
<path stroke="#f8a888" d="M36 27h1" />
</svg>