<svg xmlns="http://www.w3.org/2000/svg" viewBox="0 -0.5 64 64" shape-rendering="crispEdges">
<metadata>Made with Pixels to Svg https://codepen.io/shshaw/pen/XbxvNj</metadata>
<path stroke="#505050" d="M29 19h4M27 20h2M34 20h1M26 21h1M36 21h1M25 22h1M37 22h1M24 23h1M30 23h2M38 23h1M24 24h1M29 24h1M35 24h1M23 25h1M28 25h1M39 25h1M23 26h1M27 26h1M31 26h1M39 26h1M23 27h1M27 27h1M30 27h1M39 27h1M39 28h1M39 29h1M25 31h1M28 31h1M35 31h1M38 31h1M25 32h1M26 33h1M37 33h2M27 34h2M35 34h3M39 34h1M26 35h1M30 35h4M36 35h1M24 36h1M26 36h1M30 36h1M33 36h1M37 36h1M39 36h1M24 37h1M26 37h1M24 38h1M26 38h1M24 39h1M26 39h1M26 40h1M26 41h1M26 42h1M25 43h2" />
<path stroke="#101010" d="M33 19h2M35 20h2M37 21h1M38 22h1M32 23h2M39 23h1M34 24h1M39 24h1M35 25h1M40 25h1M32 26h1M36 26h1M40 26h1M32 27h2M36 27h1M40 27h1M23 28h1M27 28h1M30 28h2M33 28h1M36 28h1M40 28h1M23 29h1M27 29h1M31 29h2M36 29h1M40 29h1M24 30h1M28 30h1M35 30h1M39 30h1M24 31h1M29 31h1M34 31h1M39 31h1M24 32h1M30 32h4M38 32h1M24 33h2M39 33h1M24 34h1M26 34h1M40 34h1M24 35h1M27 35h3M34 35h2M40 35h1M27 36h1M31 36h2M36 36h1M40 36h1M27 37h1M37 37h3M27 38h1M27 39h1M24 40h1M27 40h1M24 41h1M27 41h1M24 42h1M27 42h1M24 43h1M27 43h1M25 44h2" />
<path stroke="#707070" d="M29 20h5M27 21h2M32 21h4M26 22h1M30 22h7M25 23h1M29 23h1M34 23h4M25 24h1M28 24h1M36 24h3M24 25h1M27 25h1M36 25h3M24 26h1M26 26h1M37 26h2M24 27h1M26 27h1M37 27h2M24 28h3M32 28h1M37 28h2M24 29h3M38 29h1M25 30h3M36 30h1M38 30h1M26 31h2M37 31h1M26 32h4M34 32h1M36 32h2M27 33h5M35 33h2M25 34h1M29 34h6M38 34h1M25 35h1M37 35h3M38 36h1M25 41h1M25 42h1" />
<path stroke="#d8d8d8" d="M29 21h1M27 22h2M26 23h2M26 24h1M30 24h1M33 24h1M25 25h1M25 26h1M28 26h1M35 26h1M28 29h1M35 29h1M30 31h1M33 31h1M25 37h1M25 38h1" />
<path stroke="#999999" d="M30 21h2M29 22h1M28 23h1M27 24h1M26 25h1M33 26h1M25 27h1M30 29h1M33 29h1M37 29h1M37 30h1M36 31h1M35 32h1M32 33h3M25 36h1M25 39h1M25 40h1" />
<path stroke="#f8f8f8" d="M31 24h2M29 25h6M29 26h2M34 26h1M28 27h2M31 27h1M34 27h2M28 28h2M34 28h2M29 29h1M34 29h1M29 30h6M31 31h2" />
</svg>