<svg xmlns="http://www.w3.org/2000/svg" viewBox="0 -0.5 64 64" shape-rendering="crispEdges">
<metadata>Made with Pixels to Svg https://codepen.io/shshaw/pen/XbxvNj</metadata>
<path stroke="#505050" d="M28 16h2M26 17h1M35 17h1M24 18h1M37 18h1M23 19h1M28 19h1M35 19h1M39 19h1M22 20h1M37 20h1M40 20h1M21 21h1M29 21h4M41 21h1M20 22h1M24 22h1M27 22h2M42 22h1M23 23h1M25 23h1M36 23h1M43 23h1M19 24h1M22 24h1M24 24h2M37 24h1M30 25h2M38 25h1M42 25h1M44 25h1M18 26h1M21 26h1M24 26h1M29 26h1M35 26h1M44 26h1M23 27h1M28 27h1M39 27h1M44 27h1M23 28h1M27 28h1M31 28h1M39 28h1M42 28h1M44 28h1M23 29h1M27 29h1M30 29h1M39 29h1M43 29h2M23 30h1M39 30h1M41 30h4M39 31h1M39 32h1M28 33h1M35 33h1M19 34h1M21 34h1M25 34h1M38 34h1M26 35h1M37 35h1M20 36h1M27 36h1M36 36h1M29 37h6M26 39h1M24 40h1M26 41h1M32 41h1M28 42h1M32 42h1M30 43h1M32 43h1M32 44h1M32 45h1M31 46h2" />
<path stroke="#101010" d="M30 16h6M27 17h1M36 17h2M25 18h1M38 18h2M29 19h6M40 19h1M26 20h2M36 20h1M41 20h1M25 21h1M33 21h2M38 21h1M42 21h1M25 22h1M35 22h2M39 22h1M43 22h1M20 23h1M26 23h1M37 23h1M40 23h1M44 23h1M23 24h1M38 24h1M41 24h1M44 24h1M19 25h1M22 25h1M24 25h1M32 25h2M39 25h1M41 25h1M45 25h1M22 26h1M34 26h1M39 26h1M42 26h1M45 26h1M18 27h1M21 27h1M35 27h1M40 27h1M42 27h1M45 27h1M18 28h1M21 28h1M32 28h1M36 28h1M40 28h2M45 28h1M18 29h1M21 29h1M32 29h2M36 29h1M40 29h1M45 29h1M18 30h1M21 30h1M27 30h1M30 30h2M33 30h1M36 30h1M40 30h1M45 30h1M18 31h1M21 31h1M23 31h1M27 31h1M31 31h2M36 31h1M40 31h5M18 32h1M21 32h1M23 32h1M28 32h1M35 32h1M40 32h1M18 33h1M21 33h1M24 33h1M29 33h1M34 33h1M39 33h1M18 34h1M22 34h1M24 34h1M30 34h4M39 34h1M19 35h1M22 35h1M25 35h1M38 35h1M19 36h1M23 36h1M26 36h1M37 36h1M20 37h1M24 37h1M27 37h2M35 37h2M21 38h1M25 38h2M29 38h6M22 39h1M27 39h2M23 40h1M29 40h4M24 41h2M33 41h1M26 42h2M33 42h1M28 43h2M33 43h1M30 44h1M33 44h1M30 45h1M33 45h1M30 46h1M33 46h1M31 47h2" />
<path stroke="#707070" d="M28 17h7M26 18h1M30 18h7M24 19h1M36 19h3M23 20h1M38 20h2M22 21h1M39 21h2M21 22h1M29 22h6M40 22h2M24 23h1M27 23h2M32 23h4M41 23h2M20 24h1M26 24h1M30 24h7M42 24h2M25 25h1M29 25h1M34 25h4M43 25h1M19 26h1M25 26h1M28 26h1M36 26h3M43 26h1M19 27h1M24 27h1M27 27h1M36 27h3M43 27h1M24 28h1M26 28h1M37 28h2M43 28h1M20 29h1M24 29h1M26 29h1M37 29h2M42 29h1M20 30h1M24 30h3M32 30h1M37 30h2M20 31h1M24 31h3M37 31h2M19 32h2M24 32h4M36 32h1M38 32h1M19 33h2M25 33h3M37 33h2M20 34h1M26 34h4M34 34h1M36 34h2M20 35h2M27 35h5M35 35h2M21 36h2M28 36h8M21 37h3M22 38h3M23 39h3M25 40h2M27 41h2M29 42h2M31 44h1M31 45h1" />
<path stroke="#999999" d="M27 18h3M26 19h2M25 20h1M24 21h1M23 22h1M22 23h1M30 23h2M29 24h1M21 25h1M28 25h1M20 26h1M27 26h1M20 27h1M26 27h1M19 28h2M33 28h1M19 29h1M25 29h1M41 29h1M19 30h1M19 31h1M30 31h1M33 31h1M37 32h1M36 33h1M35 34h1M32 35h3M27 40h2M29 41h1M31 43h1" />
<path stroke="#d8d8d8" d="M25 19h1M24 20h1M23 21h1M22 22h1M21 23h1M29 23h1M21 24h1M27 24h2M20 25h1M26 25h2M26 26h1M30 26h1M33 26h1M25 27h1M25 28h1M28 28h1M35 28h1M28 31h1M35 31h1M30 33h1M33 33h1M30 41h2M31 42h1" />
<path stroke="#f8f8f8" d="M31 26h2M29 27h6M29 28h2M34 28h1M28 29h2M31 29h1M34 29h2M28 30h2M34 30h2M29 31h1M34 31h1M29 32h6M31 33h2" />
</svg>