<svg xmlns="http://www.w3.org/2000/svg" viewBox="0 -0.5 64 64" shape-rendering="crispEdges">
<metadata>Made with Pixels to Svg https://codepen.io/shshaw/pen/XbxvNj</metadata>
<path stroke="#805010" d="M34 12h1M33 13h1M35 13h1M34 14h1M34 15h1M35 16h1M35 17h1M36 18h1M23 19h1M36 19h1M20 20h1M23 20h1M38 20h1M21 21h1M37 21h1M37 22h1M39 23h2M21 37h1M51 37h1M52 38h1M51 45h1M19 46h1M34 49h1M39 49h1M47 49h1M23 50h1M32 50h1M40 50h1M24 51h1M31 51h1" />
<path stroke="#f8e098" d="M34 13h1M24 36h3M24 37h3M24 38h2M23 39h3M21 45h1M20 46h2M20 47h2M21 48h2M22 49h2" />
<path stroke="#682058" d="M17 14h1M15 15h2M24 15h1M14 16h1M26 16h1M13 17h1M13 18h1M21 18h3M27 18h1M12 19h1M19 19h2M11 20h1M17 20h2M28 20h1M10 21h1M13 21h3M14 23h1M30 23h1M37 23h2M17 24h1M31 24h1M35 24h1M12 25h1M16 25h1M34 25h1M33 26h3M40 26h1M32 27h1M36 27h1M16 28h1M23 28h1M37 28h1M23 29h1M26 29h1M32 29h2M15 30h1M22 30h1M34 30h1M15 31h1M17 31h1M24 31h1M41 31h2M16 32h1M23 32h1M39 32h2M44 32h1M46 32h1M23 33h1M38 33h1M45 33h1M22 34h1M33 34h1M46 34h1M22 35h1M31 35h1M37 35h2M46 35h1M49 35h1M21 36h1M39 36h2M46 36h1M49 36h1M41 37h1M46 37h1M49 37h1M20 38h1M42 38h1M45 38h1M49 38h1M34 39h3M42 39h1M46 39h1M48 39h1M19 40h1M37 40h1M42 40h1M45 40h3M30 41h1M38 41h1M42 41h1M39 42h1M30 43h1M39 43h1M43 43h2M37 48h1" />
<path stroke="#101010" d="M18 14h6M36 14h1M25 15h1M37 15h1M38 16h1M27 17h1M37 17h2M39 18h1M25 19h1M28 19h1M39 19h1M25 20h1M39 20h1M22 21h3M29 21h1M40 21h1M10 22h1M30 22h1M40 22h1M10 23h1M11 24h1M18 24h5M40 24h1M13 25h3M23 25h1M31 25h1M40 25h1M16 26h1M23 26h1M31 26h1M16 27h1M23 27h1M31 27h1M31 28h1M38 28h1M25 29h1M31 29h1M37 29h1M25 30h1M31 30h1M36 30h1M18 31h4M31 31h1M35 31h1M43 31h3M24 32h1M31 32h1M34 32h1M47 32h1M18 33h5M31 33h1M34 33h1M48 33h1M31 34h1M37 34h1M49 34h1M33 35h1M36 35h1M50 35h1M30 36h1M33 36h1M35 36h1M51 36h1M30 37h1M34 37h1M30 38h1M33 38h1M29 39h1M32 39h1M44 39h2M52 39h1M29 40h1M31 40h1M43 40h2M52 40h1M29 41h1M43 41h1M45 41h1M52 41h1M18 42h1M29 42h1M42 42h1M45 42h1M52 42h1M18 43h1M41 43h1M52 43h1M18 44h1M40 44h1M52 44h1M39 45h1M38 46h1M51 46h1M19 47h1M37 47h1M50 47h1M20 48h1M36 48h1M49 48h1M21 49h1M35 49h1M38 49h1M48 49h1M22 50h1M33 50h1M41 50h6M25 51h6" />
<path stroke="#f8f8f8" d="M35 14h1M36 16h1M37 18h1M21 19h1M38 21h1M22 36h2M22 37h2M21 38h3M21 39h2" />
<path stroke="#d8a0c0" d="M17 15h4M15 16h5M14 17h4M14 18h3M11 21h2M11 22h3M12 23h2M12 24h1M36 24h2M36 25h2M33 27h3M32 28h3M42 32h2M45 32h1M41 33h3M46 33h2M40 34h3M47 34h2M40 35h2M48 35h1M37 37h2M36 38h3M20 40h1M20 41h3M19 42h4M19 43h3M19 44h3M19 45h2" />
<path stroke="#b870a0" d="M21 15h3M20 16h6M18 17h9M17 18h4M25 18h2M13 19h6M26 19h2M13 20h4M26 20h2M17 21h4M25 21h4M14 22h15M16 23h13M13 24h4M23 24h6M38 24h1M24 25h4M35 25h1M38 25h1M24 26h4M36 26h2M24 27h3M24 28h2M35 28h1M24 29h1M34 29h1M16 30h1M23 30h2M32 30h2M16 31h1M22 31h2M32 31h1M17 32h5M32 32h1M41 32h1M26 33h1M39 33h2M44 33h1M23 34h4M38 34h2M43 34h3M39 35h1M42 35h4M47 35h1M36 36h3M41 36h4M48 36h1M35 37h2M39 37h2M42 37h2M48 37h1M34 38h2M39 38h2M33 39h1M37 39h4M36 40h1M38 40h2M23 41h4M35 41h3M23 42h4M34 42h4M22 43h5M33 43h5M42 43h1M22 44h6M32 44h5M41 44h3M24 45h12M25 46h10M26 47h7M27 48h3" />
<path stroke="#f8d068" d="M35 15h1M36 17h1M22 19h1M24 19h1M37 19h1M21 20h2M24 20h1M39 21h1M38 22h1M28 35h1M27 36h2M27 37h1M26 38h2M26 39h1M22 45h2M22 46h3M22 47h4M23 48h4M24 49h7" />
<path stroke="#e0a858" d="M36 15h1M37 16h1M38 18h1M38 19h1M37 20h1M39 22h1M30 34h1M29 35h2M29 36h1M28 37h2M28 38h2M51 38h1M27 39h2M51 39h1M51 40h1M51 41h1M51 42h1M51 43h1M50 44h2M38 45h1M50 45h1M37 46h1M49 46h2M36 47h1M38 47h1M47 47h3M34 48h2M38 48h11M31 49h3M40 49h7M24 50h8" />
<path stroke="#984880" d="M24 18h1M12 20h1M19 20h1M16 21h1M29 22h1M11 23h1M15 23h1M29 23h1M29 24h2M39 24h1M28 25h3M39 25h1M28 26h3M38 26h2M27 27h4M37 27h3M26 28h5M36 28h1M27 29h4M35 29h2M26 30h5M35 30h1M25 31h6M33 31h2M22 32h1M25 32h6M33 32h1M17 33h1M24 33h2M27 33h4M32 33h2M27 34h3M32 34h1M23 35h5M32 35h1M31 36h2M45 36h1M47 36h1M50 36h1M31 37h3M44 37h2M47 37h1M50 37h1M31 38h2M41 38h1M43 38h2M46 38h3M50 38h1M19 39h2M30 39h2M41 39h1M43 39h1M47 39h1M49 39h2M21 40h8M30 40h1M32 40h4M40 40h2M48 40h3M19 41h1M27 41h2M31 41h4M39 41h3M46 41h5M27 42h2M30 42h4M38 42h1M40 42h2M46 42h5M27 43h3M31 43h2M38 43h1M40 43h1M45 43h6M28 44h4M37 44h3M44 44h6M18 45h1M36 45h2M40 45h10M35 46h2M39 46h10M33 47h3M39 47h8M30 48h4" />
<path stroke="#981000" d="M17 25h6M17 26h2M17 27h1M17 28h1M17 29h1M17 30h1" />
<path stroke="#c04018" d="M19 26h4M18 27h1M22 27h1M22 28h1M16 29h1M22 29h1M18 30h1M21 30h1" />
<path stroke="#f07048" d="M19 27h3M18 28h4M18 29h4M19 30h2" />
</svg>