<svg xmlns="http://www.w3.org/2000/svg" viewBox="0 -0.5 64 64" shape-rendering="crispEdges">
<metadata>Made with Pixels to Svg https://codepen.io/shshaw/pen/XbxvNj</metadata>
<path stroke="#887858" d="M41 9h4M39 10h1M44 10h1M31 11h1M37 11h1M44 11h1M32 12h1M36 12h1M44 12h1M29 13h1M33 13h1M43 13h1M33 14h2M28 15h1M33 15h1M41 16h5M39 17h1M47 17h1M28 18h1M48 18h1M29 19h1M47 19h1M45 20h1M42 21h1M22 38h1M34 38h1M20 39h1M19 41h1M20 42h1M33 48h1M29 49h1M32 49h1M35 49h1M29 50h1M33 50h1M26 51h2M31 51h1M25 52h1M29 52h1M25 53h1M28 53h1M28 54h1" />
<path stroke="#d09838" d="M40 10h1M38 11h1M30 12h1M35 13h1M29 14h1M34 15h1M28 16h1M33 16h1M28 17h1M40 17h1M46 17h1M33 38h1M21 39h1M23 39h2M30 39h2M24 41h1M28 41h1M28 42h1M30 42h1M35 42h1M33 43h1" />
<path stroke="#f8d060" d="M41 10h3M39 11h5M31 12h1M37 12h6M30 13h3M36 13h7M30 14h3M35 14h7M30 15h3M35 15h6M31 16h2M36 16h3M21 40h2M35 40h3M20 41h4M33 41h3M22 42h2M29 42h1M31 42h2M34 42h1M36 42h1M22 43h1M29 43h1M32 43h1" />
<path stroke="#f8c050" d="M43 12h1M42 14h1M29 15h1M41 15h1M29 16h2M34 16h2M39 16h2M29 17h5M35 17h4M41 17h5M29 18h4M36 18h12M30 19h3M37 19h10M38 20h7M37 21h5M22 39h1M32 39h4M23 40h2M28 40h7M29 41h4M36 41h1M33 42h1" />
<path stroke="#583830" d="M43 14h1M42 15h1M36 19h1M28 20h4M37 20h1M46 20h1M25 21h3M36 21h1M43 21h2M23 22h1M35 22h7M21 23h1M36 23h1M18 26h1M17 27h1M40 27h1M41 29h1M16 31h1M18 31h1M41 31h1M17 32h1M28 32h1M31 32h1M29 33h2M40 33h1M18 34h1M19 35h1M20 36h1M22 37h1M36 37h1M23 38h2M31 43h1M34 43h1M36 43h1M21 44h1M29 44h1M33 44h1M22 45h1M23 46h1M35 46h1M25 47h1M33 47h1M28 48h1M30 48h1M23 54h1" />
<path stroke="#d05838" d="M34 17h1M33 18h1M32 20h1M34 20h1M32 21h4M24 22h1M22 23h1M20 24h1M19 25h1M18 28h1M28 29h1M31 29h1M21 30h2M41 30h1M20 31h1M23 31h2M18 32h2M25 32h1M19 33h2M26 33h1M28 33h1M31 33h1M22 34h4M21 36h1M37 36h1M23 37h2M34 37h2M25 38h8M25 39h5M25 40h3M25 41h1M27 41h1M24 42h1M23 43h1M28 43h1M30 43h1M35 43h1M37 43h1M22 44h1M30 44h3M34 44h4M27 45h10M24 46h11M26 47h7M29 48h1" />
<path stroke="#f86838" d="M34 18h1M33 19h2M33 20h1M35 20h2M28 21h4M25 22h1M27 22h1M29 22h1M31 22h4M24 23h1M26 23h1M28 23h1M30 23h1M32 23h4M27 24h1M29 24h1M31 24h7M30 25h1M32 25h7M19 26h1M31 26h9M18 27h2M29 27h11M19 28h2M26 28h15M19 29h9M32 29h9M19 30h2M23 30h5M32 30h9M19 31h1M25 31h3M32 31h9M26 32h2M32 32h9M18 33h1M27 33h1M32 33h8M19 34h3M26 34h14M20 35h19M22 36h15M25 37h9M26 41h1M25 42h3M24 43h4M23 44h6M23 45h4" />
<path stroke="#101010" d="M35 18h1M35 19h1M37 23h1M38 24h1M39 25h1M40 26h1M17 28h1M41 28h1M16 29h1M18 29h1M29 29h2M16 30h1M18 30h1M28 30h1M31 30h1M17 31h1M28 31h1M31 31h1M29 32h2M41 32h1M40 34h1M39 35h1M38 36h1M21 37h1M37 37h1M35 38h2M36 39h2M20 40h1M38 40h1M37 41h1M21 42h1M37 42h1M21 43h1M38 43h1M38 44h1M37 45h1M36 46h1M24 47h1M34 47h1M26 48h2M31 48h2M35 48h1M30 49h1M36 49h1M30 50h2M36 50h1M32 51h1M34 51h2M32 52h1M24 53h1M30 53h2M27 54h1M30 54h1M26 55h1M29 55h1" />
<path stroke="#f8a038" d="M26 22h1M28 22h1M30 22h1M23 23h1M25 23h1M27 23h1M29 23h1M31 23h1M21 24h6M28 24h1M30 24h1M20 25h10M31 25h1M20 26h11M20 27h9M21 28h5" />
<path stroke="#f8f8f8" d="M17 29h1M17 30h1M29 30h2M29 31h2" />
<path stroke="#f8d890" d="M21 31h2M20 32h5M24 51h1M28 51h2M23 52h2M26 52h2M23 53h1M26 53h1M29 53h1M26 54h1" />
<path stroke="#d0b890" d="M21 33h5M34 48h1M33 49h2M34 50h2M25 51h1M30 51h1M28 52h1M30 52h2M29 54h1" />
<path stroke="#b09078" d="M25 50h4M23 51h1M22 52h1M22 53h1M27 53h1M25 54h1" />
</svg>