<svg xmlns="http://www.w3.org/2000/svg" viewBox="0 -0.5 64 64" shape-rendering="crispEdges">
<metadata>Made with Pixels to Svg https://codepen.io/shshaw/pen/XbxvNj</metadata>
<path stroke="#b8b8b8" d="M22 10h5M32 10h3M19 11h4M34 11h4M18 12h2M36 12h3M17 13h2M37 13h3M17 14h1M38 14h2M19 16h1M36 16h1M22 17h1M31 17h1" />
<path stroke="#d8d8d8" d="M19 13h3M34 13h3M18 14h5M30 14h8M18 15h4M31 15h8M20 16h1M32 16h4" />
<path stroke="#f8f8f8" d="M23 14h7M22 15h9M21 16h11M23 17h8" />
<path stroke="#887028" d="M15 17h1M14 18h1M16 18h1M14 19h1M17 19h1M14 20h1M18 20h1M41 20h2M51 20h1M15 21h1M19 21h2M40 21h1M43 21h2M50 21h2M16 22h1M21 22h1M24 22h1M26 22h2M39 22h1M43 22h1M49 22h1M16 23h2M20 23h1M24 23h2M38 23h1M41 23h1M48 23h1M15 24h1M17 24h1M23 24h1M27 24h1M37 24h1M47 24h1M15 25h1M17 25h1M22 25h1M26 25h1M34 25h1M47 25h1M51 25h4M16 26h2M21 26h1M31 26h2M46 26h1M48 26h3M54 26h1M15 27h1M21 27h1M30 27h1M44 27h4M54 27h1M14 28h1M20 28h1M29 28h1M35 28h1M42 28h2M54 28h1M14 29h1M20 29h1M29 29h1M31 29h1M51 29h1M20 30h1M33 30h2M40 30h1M49 30h1M14 31h1M20 31h1M30 31h1M41 31h1M49 31h1M15 32h1M17 32h1M20 32h1M49 32h1M16 33h1M20 33h1M37 33h1M45 33h5M18 34h1M21 34h1M45 34h1M21 35h1M37 35h1M39 35h1M47 35h1M22 36h1M28 36h1M36 36h3M23 37h1M36 37h4M20 38h1M24 38h1M32 38h1M37 38h2M19 39h1M27 39h6M39 39h2M19 40h1M38 40h2M41 40h1M19 41h1M28 41h4M38 41h1M40 41h1M20 42h1M30 42h2M38 42h2M41 42h1M20 43h1M39 43h2M21 44h1M32 44h1M41 44h1M22 45h1M27 48h1M34 48h3M35 49h5M35 50h4M37 51h1" />
<path stroke="#d0c040" d="M15 18h1M15 19h2M15 20h2M41 21h2M49 21h1M25 22h1M40 22h2M44 22h1M19 23h1M22 23h2M28 23h2M33 23h1M39 23h2M43 23h1M45 23h1M19 24h4M29 24h1M34 24h2M38 24h7M46 24h1M20 25h2M27 25h1M35 25h2M38 25h9M18 26h1M20 26h1M23 26h2M35 26h10M17 27h2M20 27h1M22 27h4M31 27h3M35 27h8M15 28h1M17 28h1M22 28h4M30 28h3M36 28h6M44 28h3M48 28h1M17 29h1M22 29h4M32 29h1M36 29h10M47 29h1M17 30h1M23 30h2M37 30h3M41 30h6M15 31h1M18 31h1M31 31h4M39 31h2M42 31h7M16 32h1M18 32h2M31 32h3M42 32h7M19 33h1M43 33h1M43 34h2M43 35h4M43 36h6M42 37h9M21 38h1M34 38h2M42 38h4M48 38h2M21 39h2M35 39h1M44 39h1M21 40h2M35 40h1M20 41h3M35 41h1M21 42h1M33 42h1M35 42h1M33 43h2M25 44h1M34 44h1M25 45h1M34 45h1M37 45h1M37 46h1" />
<path stroke="#b0a038" d="M48 18h2M46 19h2M50 19h1M17 20h1M45 20h1M16 21h3M17 22h1M20 22h1M42 22h1M26 23h1M31 23h1M42 23h1M47 23h1M16 24h1M24 24h3M30 24h3M16 25h1M23 25h3M29 25h5M22 26h1M25 26h6M45 26h1M26 27h4M43 27h1M21 28h1M26 28h3M21 29h1M26 29h3M21 30h2M25 30h4M36 30h1M17 31h1M21 31h8M36 31h3M21 32h9M37 32h4M18 33h1M21 33h10M38 33h4M19 34h2M22 34h11M38 34h4M19 35h2M22 35h9M40 35h2M20 36h2M23 36h5M41 36h1M22 37h1M24 37h2M36 39h1M36 40h1M36 41h1M22 42h1M36 42h1M21 43h3M28 43h1M35 43h2M22 44h2M28 44h1M35 44h1M38 44h1M23 45h1M35 45h1M38 45h2M25 46h1M28 46h2M35 46h1M38 46h2M26 47h1M29 47h1M37 47h3M38 48h1M32 49h2M32 50h2M32 51h3M34 52h2" />
<path stroke="#f0e060" d="M48 19h2M46 20h5M45 21h4M29 22h1M45 22h4M18 23h1M44 23h1M46 23h1M18 24h1M28 24h1M45 24h1M18 25h2M28 25h1M19 26h1M51 26h3M19 27h1M48 27h6M18 28h2M33 28h2M47 28h1M49 28h3M18 29h2M33 29h2M46 29h1M48 29h1M18 30h2M19 31h1M20 39h1M34 39h1M20 40h1M33 40h2M33 41h2M34 42h1" />
<path stroke="#504828" d="M25 21h6M18 22h2M22 22h2M28 22h1M30 22h4M21 23h1M27 23h1M30 23h1M32 23h1M34 23h2M33 24h1M36 24h1M37 25h1M33 26h2M16 27h1M34 27h1M16 28h1M52 28h2M15 29h2M30 29h1M35 29h1M49 29h2M14 30h1M16 30h1M32 30h1M35 30h1M47 30h2M16 31h1M29 31h1M35 31h1M30 32h1M34 32h1M36 32h1M41 32h1M17 33h1M31 33h3M36 33h1M42 33h1M44 33h1M33 34h1M37 34h1M42 34h1M46 34h1M31 35h2M38 35h1M42 35h1M48 35h1M29 36h2M39 36h2M42 36h1M49 36h2M21 37h1M26 37h3M41 37h1M23 38h1M25 38h1M39 38h3M46 38h2M24 39h3M33 39h1M38 39h1M41 39h1M48 39h1M28 40h5M23 41h1M32 41h1M23 42h1M32 42h1M24 43h2M32 43h1M38 43h1M41 43h1M26 44h2M33 44h1M37 44h1M39 44h2M26 45h1M29 45h4M40 45h2M40 46h1M36 47h1M40 47h1M32 48h2M37 48h1M39 48h1M34 49h1M29 50h1M31 50h1M36 51h1M33 52h1" />
<path stroke="#101010" d="M15 30h1M29 30h3M18 35h1M19 36h1M20 37h1M34 37h2M51 37h1M22 38h1M33 38h1M36 38h1M50 38h1M23 39h1M37 39h1M43 39h1M45 39h1M49 39h1M23 40h1M37 40h1M42 40h1M44 40h1M37 41h1M42 41h1M37 42h1M42 42h1M37 43h1M42 43h1M36 44h1M42 44h1M33 45h1M36 45h1M23 46h2M34 46h1M36 46h1M41 46h1M25 47h1M35 47h1M41 47h1M26 48h1M40 48h1M27 49h1M40 49h1M28 50h1M39 50h1M30 51h1M38 51h1M32 52h1M36 52h2M34 53h2" />
<path stroke="#705828" d="M35 32h1M34 33h2M34 34h3M33 35h4M31 36h5M29 37h5M40 37h1M26 38h6M42 39h1M27 40h1M24 44h1M24 45h1M28 45h1M26 46h1M27 47h1M31 49h1M34 50h1M31 51h1M35 51h1" />
<path stroke="#a08030" d="M24 40h3M40 40h1M24 41h4M39 41h1M41 41h1M24 42h6M40 42h1M26 43h2M29 43h3M29 44h3M27 45h1M27 46h1M30 46h4M28 47h1M30 47h5M28 48h4M28 49h3M30 50h1" />
</svg>