<svg xmlns="http://www.w3.org/2000/svg" viewBox="0 -0.5 64 64" shape-rendering="crispEdges">
<metadata>Made with Pixels to Svg https://codepen.io/shshaw/pen/XbxvNj</metadata>
<path stroke="#90b8b0" d="M38 11h1M43 11h1M34 12h1M32 13h1M45 13h1M30 14h1M42 14h4M28 15h1M40 15h6M39 16h6M26 17h2M38 17h1M40 17h5M26 18h3M33 18h1M35 18h1M37 18h1M40 18h4M26 19h9M36 19h1M38 19h1M40 19h4M29 20h7M37 20h1M39 20h1M41 20h3M35 21h2M38 21h2M41 21h2M36 22h4M41 22h1M37 23h3M38 24h2M31 25h1M33 27h1M43 28h3M42 29h2M41 30h2M33 31h2M36 31h2M40 31h2M34 32h1M36 32h2M40 32h2M40 33h3M44 33h1M34 34h4M40 34h4M33 35h5M41 35h2M21 36h3M29 36h9M15 37h3M22 37h8M32 37h6M14 38h5M21 38h1M24 38h4M30 38h2M33 38h4M14 39h1M17 39h3M25 39h1M28 39h5M34 39h2M14 40h1M18 40h2M28 40h6M15 41h1M19 41h2M27 41h1M29 41h1M31 41h3M15 42h2M19 42h2M28 42h1M30 42h1M16 43h5M29 43h1M17 44h3M30 47h2M31 48h1M31 49h1" />
<path stroke="#8090a0" d="M39 11h4M35 12h3M44 12h1M33 13h1M31 14h1M46 14h1M29 15h1M46 15h2M26 16h2M45 16h3M25 17h1M39 17h1M45 17h3M39 18h1M44 18h4M39 19h1M44 19h4M25 20h1M27 20h2M40 20h1M44 20h4M24 21h2M29 21h6M40 21h1M43 21h5M34 22h2M40 22h1M42 22h6M35 23h2M40 23h1M44 23h4M36 24h2M40 24h1M45 24h2M36 25h4M46 25h1M29 26h1M37 26h3M27 27h4M37 27h3M44 27h3M29 28h3M38 28h2M46 28h2M31 29h3M38 29h2M46 29h2M32 30h3M36 30h4M46 30h2M32 31h1M35 31h1M38 31h1M46 31h2M32 32h2M35 32h1M38 32h1M45 32h1M21 33h3M31 33h8M20 34h5M30 34h4M39 34h1M17 35h2M20 35h13M39 35h2M43 35h1M15 36h2M24 36h5M39 36h6M30 37h2M39 37h6M23 38h1M28 38h2M32 38h1M37 38h1M39 38h5M20 39h5M33 39h1M36 39h2M39 39h4M20 40h4M26 40h2M34 40h5M40 40h2M21 41h3M26 41h1M28 41h1M30 41h1M34 41h6M21 42h3M27 42h1M29 42h1M31 42h2M34 42h6M21 43h2M28 43h1M30 43h3M35 43h5M20 44h1M29 44h3M33 44h2M36 44h4M30 45h1M32 45h4M37 45h2M31 46h6M32 48h5M32 49h5M32 50h5" />
<path stroke="#b8d0d8" d="M38 12h6M34 13h11M32 14h10M30 15h10M28 16h11M28 17h10M29 18h4M34 18h1M36 18h1M38 18h1M35 19h1M37 19h1M36 20h1M38 20h1M37 21h1M31 24h1M32 26h1M34 27h2M44 29h2M43 30h3M42 31h4M42 32h3M43 33h1M17 36h3M18 37h3M19 38h2" />
<path stroke="#383850" d="M45 12h1M46 13h1M47 14h1M48 16h1M48 17h1M25 18h1M48 18h1M25 19h1M48 19h1M24 20h1M26 20h1M48 20h1M23 21h1M26 21h1M48 21h1M32 22h2M48 22h1M34 23h1M35 24h1M47 24h1M35 25h1M36 26h1M45 26h2M36 27h1M43 27h1M47 27h1M37 28h1M42 28h1M48 28h1M41 29h1M40 30h1M39 32h1M47 32h1M20 33h1M39 33h1M19 34h1M38 34h1M19 35h1M38 35h1M38 36h1M14 37h1M38 37h1M13 38h1M22 38h1M13 39h1M13 40h1M42 40h1M14 41h1M24 41h1M41 41h1M24 42h1M15 43h1M23 43h1M16 44h1M27 45h1M39 45h1M30 46h1M37 46h2M29 47h1M30 48h1" />
<path stroke="#607078" d="M48 15h1M41 23h3M48 23h1M41 24h4M40 25h6M40 26h4M40 27h3M40 28h2M40 29h1M35 30h1M46 32h1M45 33h2M44 34h3M44 35h2M20 36h1M45 36h1M21 37h1M38 38h1M26 39h2M38 39h1M24 40h2M39 40h1M25 41h1M40 41h1M14 42h1M25 42h2M33 42h1M40 42h2M26 43h2M33 43h2M40 43h2M27 44h2M32 44h1M35 44h1M40 44h1M28 45h2M31 45h1M36 45h1M39 46h1M32 47h7M37 48h2M37 49h1M37 50h1" />
<path stroke="#485050" d="M27 21h2M28 22h4M29 23h5M29 24h2M32 24h3M30 25h1M32 25h3M30 26h2M33 26h3M44 26h1M31 27h2M32 28h5M34 29h4M39 31h1" />
<path stroke="#f08828" d="M20 22h1M19 23h1M18 25h1M21 25h4M19 26h6M20 27h5M22 28h5M24 29h1M27 29h2M25 30h3" />
<path stroke="#c85818" d="M21 22h4M15 23h4M25 23h3M25 24h3M17 25h1M25 25h4M18 26h1M25 26h3M25 27h1M21 28h1M27 28h1M22 29h2M29 29h1M28 30h3M26 31h5M27 32h4M28 33h2" />
<path stroke="#883818" d="M25 22h3M28 23h1M15 24h1M28 24h1M15 25h2M29 25h1M16 26h2M28 26h1M17 27h3M26 27h1M18 28h3M28 28h1M18 29h4M30 29h1M19 30h6M31 30h1M20 31h6M31 31h1M20 32h7M31 32h1M24 33h4M30 33h1M25 34h5M15 39h2M15 40h3M16 41h3M17 42h2" />
<path stroke="#f8c0a0" d="M20 23h5M16 24h9M19 25h2M25 29h2" />
<path stroke="#181818" d="M14 24h1M14 25h1M47 25h1M15 26h1M47 26h1M16 27h1M17 28h1M48 29h1M18 30h1M48 30h1M19 31h1M48 31h1M19 32h1M47 33h1M47 34h1M46 35h1M46 36h1M45 37h1M44 38h1M43 39h1M42 41h1M42 42h1M24 43h2M42 43h1M21 44h2M26 44h1M41 44h1M17 45h4M40 45h1M28 46h2M40 46h1M39 47h1M39 48h1M30 49h1M38 49h1M31 50h1M38 50h1M32 51h6" />
</svg>