<svg xmlns="http://www.w3.org/2000/svg" viewBox="0 -0.5 64 64" shape-rendering="crispEdges">
<metadata>Made with Pixels to Svg https://codepen.io/shshaw/pen/XbxvNj</metadata>
<path stroke="#786868" d="M27 2h1M23 3h3M21 4h1M19 5h2M22 6h2M9 7h1M23 7h1M35 7h3M24 8h1M39 8h3M13 9h2M42 9h2M16 10h2M1 11h1M20 11h2M2 12h4M6 13h5M11 14h2" />
<path stroke="#000000" d="M28 2h6M34 3h1M34 4h1M34 5h1M34 6h1M27 7h2M27 8h2M44 9h1M44 10h1M43 11h1M40 12h2M49 13h2M51 14h1M25 15h1M51 15h1M22 16h1M24 16h1M51 16h1M19 17h1M21 17h3M33 17h6M50 17h1M40 18h3M50 18h1M24 19h1M49 19h1M22 20h1M49 20h1M12 21h1M20 21h1M50 21h1M10 22h2M17 22h1M19 22h1M50 22h1M9 23h1M17 23h1M46 23h2M51 23h1M7 24h2M16 24h1M49 24h1M51 24h1M5 25h2M51 25h1M52 26h1M42 27h1M20 28h1M41 28h2M53 28h1M21 29h1M40 29h2M53 29h1M22 30h2M53 30h1M53 31h1M52 33h1M49 34h1M51 34h1M38 35h2M49 35h2M55 35h1M37 36h1M49 36h1M57 36h2M22 37h1M42 37h2M47 37h2M59 37h1M22 38h1M41 38h1M47 38h1M60 38h1M11 39h2M21 39h1M40 39h1M46 39h1M12 40h3M20 40h3M45 40h1M61 40h1M15 41h5M51 41h2M61 41h1M53 42h1M62 42h1M54 43h1M62 43h1M55 44h1M62 44h1M8 45h1M55 45h1M62 45h1M8 46h1M56 46h1M62 46h1M9 47h1M56 47h1M62 47h1M9 48h1M57 48h1M62 48h1M10 49h1M57 49h1M61 49h1M11 50h1M57 50h1M61 50h1M12 51h2M58 51h1M60 51h1M14 52h2M31 52h2M58 52h2M16 53h2M33 53h2M58 53h1M17 54h1M31 54h2M35 54h2M58 54h1M18 55h1M29 55h2M38 55h2M58 55h1M19 56h2M29 56h4M41 56h2M57 56h1M19 57h1M29 57h1M33 57h8M57 57h1M30 58h1M16 59h1M28 59h1M31 59h1M58 59h1M17 60h3M25 60h3M29 60h2M59 60h1M20 61h5M59 61h1M45 62h6M55 62h4M51 63h4" />
<path stroke="#988888" d="M26 3h1M22 4h1M33 7h1M12 8h1M38 8h1M15 9h1M32 9h1M2 10h14M18 10h1M15 11h1M14 12h1M29 12h1M38 12h1M14 13h1M27 13h1M35 13h1M40 13h2M13 14h1M23 14h2M27 14h1M32 14h1M42 14h3M13 15h1M21 15h1M45 15h3M12 16h1M19 16h1M11 17h1M16 18h1M9 19h1M8 20h1M14 20h1M6 22h1M13 22h1M5 23h1M14 23h1M18 23h1M5 24h1M14 24h1M48 24h1M15 25h1M19 25h1M50 25h1M52 27h1M12 28h2M46 28h1M11 29h1M10 30h1M52 32h1M39 33h1M50 34h1M21 42h1M20 43h1M19 44h1M54 44h1M18 45h1M18 46h1M47 46h1M52 46h1M17 47h1M45 47h1M54 47h1M17 48h1M56 48h1M17 49h1M20 49h1M43 49h1M17 50h1M18 57h1M17 58h1M20 59h1M45 59h1M44 60h1M44 61h1" />
<path stroke="#f8f8f8" d="M27 3h5M23 4h5M21 5h3M7 6h8M13 7h7M34 7h1M34 8h4M34 9h8M34 10h8M2 11h5M16 11h2M34 11h2M15 12h4M15 13h6M14 14h5M40 14h2M14 15h3M42 15h3M13 16h2M45 16h1M12 17h1M20 19h2M14 21h2M7 22h1M14 22h2M6 23h1M25 23h2M46 24h2M25 25h1M44 25h5M19 26h1M24 26h1M44 26h5M20 27h3M45 27h3M12 29h2M11 30h2M11 31h1M11 33h2M12 34h2M37 34h1M37 35h1M40 36h1M11 37h2M40 37h1M45 37h1M13 38h1M40 38h1M45 38h1M45 39h1M46 42h3M22 43h2M44 43h5M20 44h4M43 44h6M20 45h4M43 45h6M19 46h5M42 46h5M19 47h4M43 47h2M19 48h3M43 48h1M18 58h2M17 59h1M22 59h2M21 60h2M45 60h2M52 60h1M56 60h2M45 61h3M51 61h2M56 61h2M51 62h2" />
<path stroke="#d8c8c8" d="M32 3h2M28 4h6M24 5h10M15 6h1M25 6h1M30 6h4M10 7h3M20 7h1M25 7h1M30 7h3M13 8h9M25 8h1M30 8h3M16 9h6M24 9h2M30 9h2M19 10h2M23 10h9M33 10h1M42 10h2M7 11h4M18 11h1M22 11h9M33 11h1M36 11h3M6 12h3M19 12h10M33 12h3M21 13h6M19 14h4M36 14h4M17 15h4M32 15h10M15 16h4M27 16h1M29 16h3M38 16h7M13 17h5M26 17h2M29 17h4M42 17h2M11 18h5M29 18h3M10 19h5M22 19h1M29 19h3M9 20h5M28 20h4M8 21h4M16 21h4M28 21h3M8 22h2M16 22h1M27 22h4M7 23h2M15 23h2M27 23h3M6 24h1M15 24h1M18 24h1M26 24h4M26 25h3M49 25h1M25 26h3M43 26h1M49 26h3M23 27h5M43 27h2M48 27h4M21 28h6M47 28h6M22 29h5M48 29h5M49 30h4M12 31h1M18 31h2M50 31h3M19 32h2M50 32h2M20 33h2M38 33h1M50 33h2M11 34h1M20 34h2M52 34h2M20 35h3M52 35h2M20 36h3M41 36h1M52 36h3M20 37h2M46 37h1M53 37h2M11 38h2M19 38h3M54 38h1M19 39h2M17 40h3M47 41h3M49 42h4M21 43h1M49 43h5M9 44h1M49 44h5M19 45h1M24 45h1M49 45h5M10 46h2M24 46h1M53 46h1M12 47h2M18 47h1M23 47h1M41 47h2M14 48h3M18 48h1M22 48h1M41 48h2M18 49h2M41 49h2M41 50h2M41 51h1M41 52h1M18 59h2M24 59h1M23 60h2M53 61h1M53 62h1" />
<path stroke="#b8a8a8" d="M7 5h8M6 6h1M16 6h6M26 6h1M29 6h1M21 7h2M22 8h1M22 9h1M26 9h1M29 9h1M33 9h1M21 10h1M11 11h4M32 11h1M39 11h3M9 12h5M31 12h2M36 12h2M11 13h3M29 13h6M39 13h1M28 14h4M26 15h1M25 16h2M36 16h2M20 17h1M24 17h2M40 17h2M10 18h1M18 18h7M18 19h2M17 20h4M7 21h1M24 30h2M38 34h1M51 35h1M41 37h1M52 37h1M46 38h1M53 38h1M53 39h3M54 40h2M54 41h2M54 42h2M55 43h1M54 45h1M25 46h1M54 46h2M24 47h2M55 47h1M23 48h4M23 49h5M26 50h3M27 51h3M28 52h3M28 53h5M29 54h2M29 58h1M29 59h2M46 59h1M57 59h1M47 60h1M51 60h1M53 60h1M58 60h1M48 61h1M54 61h1M58 61h1M54 62h1" />
<path stroke="#484840" d="M24 6h1M27 6h2M7 7h2M24 7h1M26 7h1M29 7h1M10 8h2M23 8h1M26 8h1M29 8h1M33 8h1M23 9h1M27 9h2M22 10h1M32 10h1M19 11h1M31 11h1M42 11h1M30 12h1M39 12h1M28 13h1M36 13h3M25 14h2M33 14h3M20 16h1M28 16h1M18 17h1M28 17h1M39 17h1M17 18h1M28 18h1M32 18h2M36 18h1M43 18h1M15 19h3M28 19h1M32 19h1M36 19h1M40 19h2M15 20h2M27 20h1M32 20h1M35 20h1M39 20h1M13 21h1M31 21h1M35 21h1M38 21h1M18 22h1M25 22h2M31 22h1M34 22h1M38 22h1M24 23h1M30 23h1M32 23h2M37 23h1M48 23h1M17 24h1M24 24h1M30 24h2M37 24h1M44 24h2M50 24h1M18 25h1M24 25h1M29 25h1M36 25h2M43 25h1M18 26h1M22 26h2M28 26h1M35 26h1M37 26h1M42 26h1M19 27h1M28 27h1M33 27h2M37 27h1M41 27h1M27 28h1M31 28h2M38 28h1M43 28h3M14 29h1M20 29h1M27 29h1M29 29h2M42 29h1M44 29h1M47 29h1M13 30h1M15 30h2M18 30h2M26 30h1M28 30h1M39 30h1M44 30h1M48 30h1M13 31h1M15 31h1M17 31h1M20 31h1M24 31h2M27 31h1M38 31h1M46 31h1M48 31h2M12 32h1M16 32h3M21 32h1M23 32h1M37 32h2M47 32h1M49 32h1M13 33h1M16 33h1M18 33h2M22 33h2M35 33h2M48 33h2M53 33h1M14 34h1M16 34h1M19 34h1M22 34h2M33 34h2M36 34h1M39 34h1M48 34h1M54 34h1M12 35h2M16 35h1M19 35h1M24 35h1M34 35h1M36 35h1M54 35h1M8 36h1M12 36h1M16 36h1M19 36h1M24 36h1M34 36h1M39 36h1M45 36h2M48 36h1M51 36h1M55 36h2M8 37h1M13 37h1M16 37h1M19 37h1M23 37h1M25 37h1M39 37h1M44 37h1M51 37h1M55 37h1M9 38h1M16 38h3M23 38h1M26 38h3M39 38h1M42 38h1M44 38h1M52 38h1M55 38h3M10 39h1M15 39h1M18 39h1M23 39h1M26 39h1M35 39h1M42 39h1M44 39h1M52 39h1M56 39h1M58 39h1M23 40h1M26 40h1M43 40h1M48 40h3M53 40h1M56 40h1M59 40h1M23 41h1M36 41h1M43 41h1M45 41h2M53 41h1M56 41h1M60 41h1M10 42h1M22 42h2M27 42h1M43 42h2M56 42h1M11 43h1M37 43h1M40 43h3M56 43h1M8 44h1M12 44h1M24 44h1M28 44h1M37 44h2M42 44h1M10 45h1M14 45h3M25 45h2M29 45h1M41 45h1M15 46h1M17 46h1M26 46h1M28 46h2M34 46h2M41 46h1M48 46h4M26 47h1M30 47h3M40 47h1M46 47h1M52 47h2M13 48h1M27 48h1M40 48h1M44 48h2M52 48h1M55 48h1M13 49h1M16 49h1M21 49h2M28 49h1M40 49h1M45 49h1M52 49h1M56 49h1M13 50h1M18 50h1M24 50h2M29 50h1M40 50h1M43 50h1M45 50h1M52 50h1M14 51h1M17 51h1M19 51h1M23 51h1M26 51h1M30 51h1M40 51h1M42 51h1M45 51h1M53 51h1M19 52h1M23 52h1M27 52h1M40 52h1M42 52h1M53 52h1M19 53h1M23 53h1M27 53h1M39 53h4M46 53h1M53 53h1M20 54h1M24 54h1M28 54h1M33 54h2M37 54h6M46 54h1M53 54h1M20 55h5M31 55h7M40 55h4M47 55h1M53 55h1M57 55h1M25 56h2M33 56h8M43 56h1M47 56h8M27 57h1M44 57h2M47 57h2M55 57h2M20 58h1M22 58h2M28 58h1M46 58h2M57 58h1M21 59h1M25 59h1M47 59h1M52 59h2M56 59h1M20 60h1M48 60h1M54 60h2M49 61h2M55 61h1" />
<path stroke="#686868" d="M48 14h1M27 15h5M32 16h4M46 16h1M44 17h2M25 18h3M34 18h2M23 19h1M33 19h3M48 19h1M21 20h1M33 20h2M48 20h1M27 21h1M32 21h3M48 21h2M32 22h2M47 22h3M31 23h1M49 23h2M32 24h1M38 24h1M30 25h3M38 25h2M29 26h5M36 26h1M38 26h4M29 27h4M35 27h1M38 27h3M28 28h3M33 28h1M39 28h2M28 29h1M31 29h1M14 30h1M20 30h2M27 30h1M29 30h1M43 30h1M10 31h1M14 31h1M16 31h1M21 31h3M26 31h1M28 31h1M45 31h1M9 32h1M11 32h1M13 32h3M22 32h1M14 33h2M17 33h1M8 34h1M15 34h1M17 34h2M35 34h1M8 35h1M11 35h1M14 35h2M17 35h2M23 35h1M31 35h2M11 36h1M13 36h3M17 36h2M23 36h1M30 36h1M50 36h1M10 37h1M14 37h2M17 37h2M29 37h1M34 37h1M49 37h2M10 38h1M14 38h2M34 38h1M43 38h1M48 38h4M13 39h2M16 39h2M22 39h1M43 39h1M47 39h5M60 39h1M15 40h2M35 40h1M44 40h1M46 40h2M51 40h2M26 41h1M44 41h1M50 41h1M9 42h1M36 42h1M8 43h1M24 43h1M27 43h1M11 44h1M39 44h1M13 45h1M27 45h2M36 45h1M39 45h2M61 45h1M9 46h1M16 46h1M37 46h4M60 46h2M10 47h1M14 47h1M27 47h2M33 47h1M36 47h4M47 47h5M59 47h3M10 48h3M28 48h2M34 48h6M51 48h1M53 48h2M58 48h4M11 49h2M14 49h2M29 49h11M53 49h3M58 49h3M12 50h1M14 50h3M19 50h1M23 50h1M30 50h10M53 50h4M58 50h3M15 51h2M24 51h2M31 51h9M43 51h1M51 51h2M54 51h1M56 51h2M59 51h1M16 52h2M24 52h3M33 52h7M43 52h1M46 52h1M50 52h3M55 52h1M57 52h1M22 53h1M24 53h3M35 53h4M43 53h2M48 53h5M54 53h1M56 53h1M21 54h3M25 54h3M43 54h3M48 54h5M54 54h2M57 54h1M19 55h1M25 55h4M44 55h3M48 55h5M54 55h3M24 56h1M27 56h2M44 56h3M55 56h2M26 57h1M28 57h1M53 57h2M24 58h1M26 58h2M55 58h2M26 59h2M55 59h1" />
<path stroke="#a8a8a8" d="M49 14h2M48 15h2M47 16h3M46 17h3M44 18h5M43 19h5M41 20h6M40 21h7M39 22h6M39 23h5M40 24h3M41 30h2M39 31h6M10 32h1M24 32h3M29 32h1M31 32h1M40 32h7M9 33h1M24 33h5M30 33h1M32 33h1M40 33h7M9 34h1M24 34h8M40 34h7M9 35h1M25 35h6M42 35h4M26 36h4M32 36h1M43 36h2M24 37h1M27 37h2M31 37h3M35 37h1M57 37h2M24 38h2M30 38h4M35 38h1M58 38h2M24 39h2M29 39h6M36 39h1M57 39h1M59 39h1M24 40h2M27 40h8M36 40h1M57 40h2M60 40h1M24 41h2M27 41h9M57 41h3M24 42h3M28 42h8M37 42h1M57 42h5M9 43h2M25 43h2M28 43h8M57 43h5M10 44h1M25 44h3M29 44h6M56 44h5M9 45h1M11 45h2M30 45h3M56 45h4M12 46h3M57 46h2M11 47h1M15 47h2M57 47h1M46 48h4M46 49h5M20 50h3M46 50h5M18 51h1M20 51h3M46 51h4M18 52h1M20 52h2M45 52h1M47 52h1M18 53h1M50 57h2M49 58h4M49 59h2" />
<path stroke="#68b8f8" d="M22 15h3M21 16h1M23 16h1" />
<path stroke="#888888" d="M50 15h1M50 16h1M49 17h1M37 18h3M49 18h1M37 19h3M42 19h1M36 20h3M40 20h1M47 20h1M36 21h2M39 21h1M47 21h1M35 22h3M45 22h2M34 23h3M38 23h1M44 23h2M25 24h1M33 24h4M39 24h1M43 24h1M33 25h3M40 25h3M34 26h1M36 27h1M34 28h4M32 29h8M43 29h1M45 29h2M30 30h9M40 30h1M45 30h3M29 31h9M47 31h1M27 32h2M30 32h1M32 32h5M39 32h1M48 32h1M8 33h1M10 33h1M29 33h1M31 33h1M33 33h2M37 33h1M47 33h1M10 34h1M32 34h1M47 34h1M10 35h1M33 35h1M35 35h1M40 35h2M46 35h3M9 36h2M25 36h1M31 36h1M33 36h1M35 36h2M38 36h1M42 36h1M47 36h1M9 37h1M26 37h1M30 37h1M36 37h3M56 37h1M29 38h1M36 38h3M27 39h2M37 39h3M41 39h1M37 40h6M37 41h6M38 42h5M45 42h1M36 43h1M38 43h2M43 43h1M35 44h2M40 44h2M61 44h1M33 45h3M37 45h2M42 45h1M60 45h1M27 46h1M30 46h4M36 46h1M59 46h1M29 47h1M34 47h2M58 47h1M30 48h4M50 48h1M44 49h1M51 49h1M44 50h1M51 50h1M44 51h1M50 51h1M55 51h1M22 52h1M44 52h1M48 52h2M54 52h1M56 52h1M20 53h2M45 53h1M47 53h1M55 53h1M57 53h1M18 54h2M47 54h1M56 54h1M21 56h3M20 57h6M46 57h1M49 57h1M52 57h1M21 58h1M25 58h1M48 58h1M53 58h2M48 59h1M51 59h1M54 59h1M49 60h2" />
<path stroke="#a83848" d="M25 19h2M23 20h1M21 21h2M20 22h2M19 23h3M19 24h3M20 25h3M20 26h2" />
<path stroke="#d86868" d="M27 19h1M24 20h3M23 21h4M22 22h3M22 23h2M22 24h2M23 25h1" />
</svg>