<svg xmlns="http://www.w3.org/2000/svg" viewBox="0 -0.5 64 64" shape-rendering="crispEdges">
<metadata>Made with Pixels to Svg https://codepen.io/shshaw/pen/XbxvNj</metadata>
<path stroke="#505050" d="M30 11h2M30 12h1M32 12h2M43 12h1M34 13h1M41 13h2M29 14h1M39 14h2M15 15h1M29 15h1M38 15h1M17 16h1M29 16h1M37 16h1M18 17h1M29 17h1M37 17h1M20 18h1M21 19h1M36 19h1M23 20h1M36 20h1M24 21h1M33 21h1M35 21h2M60 21h1M26 22h1M60 22h1M27 23h1M37 23h2M59 23h1M58 24h1M35 25h1M57 25h1M14 26h1M34 26h1M56 26h1M14 27h2M33 27h1M55 27h1M15 28h2M32 28h1M54 28h1M16 29h2M31 29h1M53 29h1M17 30h2M31 30h1M52 30h1M18 31h2M30 31h1M47 31h1M51 31h1M19 32h2M29 32h1M43 32h3M50 32h1M20 33h2M28 33h1M38 33h4M48 33h2M21 34h3M27 34h2M33 34h4M43 34h5M24 35h1M29 35h1M38 35h5M17 36h1M19 36h1M24 36h1M30 36h1M33 36h5M29 37h2M32 38h1M28 39h2M32 39h1M27 40h1M31 40h1M27 41h1M31 41h1M27 42h1M31 42h1M26 43h2M31 43h1M34 43h1M26 44h1M17 45h1M32 45h2M17 46h1M27 46h1M25 47h2" />
<path stroke="#a0a0a0" d="M31 12h1M32 13h2M43 13h1M30 14h1M41 14h1M30 15h1M39 15h1M15 16h1M30 16h1M38 16h1M15 17h3M30 17h1M38 17h1M17 18h2M37 18h1M19 19h2M37 19h1M20 20h2M37 20h1M21 21h3M23 22h2M24 23h3M25 24h2M37 24h4M26 25h1M36 25h2M26 26h1M35 26h2M54 26h1M35 27h1M53 27h1M51 28h2M50 29h2M49 30h2M48 31h2M19 34h1M38 34h2M30 35h8M18 36h1M31 36h2M28 40h2M33 40h1M29 41h1M33 41h1M29 42h1M33 42h1M29 43h1M33 43h1M28 44h1M32 44h3M28 45h1M35 45h1M28 46h1M27 47h3M25 48h2" />
<path stroke="#000000" d="M44 12h1M44 13h1M35 14h1M44 14h1M14 15h1M35 15h1M44 15h1M12 16h1M14 16h1M36 16h1M44 16h1M13 17h2M36 17h1M44 17h1M14 18h1M30 18h1M36 18h1M44 18h1M14 19h1M31 19h1M43 19h1M14 20h1M32 20h1M41 20h2M13 21h1M34 21h1M39 21h2M13 22h1M37 22h2M13 23h1M12 24h2M27 24h1M60 24h1M12 25h2M27 25h1M60 25h1M10 26h1M12 26h2M27 26h1M59 26h1M10 27h1M13 27h1M27 27h1M58 27h1M11 28h1M14 28h1M27 28h1M57 28h1M12 29h1M15 29h1M26 29h1M56 29h1M13 30h1M16 30h1M26 30h1M55 30h1M14 31h1M17 31h1M26 31h1M54 31h1M15 32h1M18 32h1M26 32h1M53 32h1M16 33h1M19 33h1M25 33h1M52 33h1M17 34h2M20 34h1M25 34h1M51 34h1M18 35h4M25 35h1M50 35h1M21 36h1M48 36h2M31 37h17M31 38h1M33 38h1M38 38h1M22 39h1M31 39h1M33 39h1M36 39h2M30 40h1M32 40h1M34 40h1M36 40h1M23 41h1M30 41h1M32 41h1M34 41h2M24 42h1M28 42h1M30 42h1M32 42h1M34 42h1M20 43h1M24 43h1M28 43h1M30 43h1M32 43h1M35 43h1M10 44h2M20 44h1M24 44h1M27 44h1M29 44h1M31 44h1M35 44h2M8 45h2M19 45h2M24 45h4M29 45h3M37 45h1M6 46h2M23 46h1M29 46h1M32 46h4M38 46h1M18 47h1M21 47h2M30 47h2M36 47h1M39 47h1M12 48h2M19 48h2M24 48h1M27 48h2M32 48h1M37 48h2M11 49h1M15 49h4M25 49h2M29 49h2M33 49h1M10 50h1M31 50h1M33 50h1M31 51h2" />
<path stroke="#808080" d="M30 13h1M34 14h1M42 14h2M40 15h1M43 15h1M16 16h1M35 16h1M43 16h1M35 17h1M43 17h1M15 18h2M19 18h1M31 18h1M35 18h1M43 18h1M15 19h1M32 19h1M35 19h1M41 19h2M15 20h1M22 20h1M33 20h1M35 20h1M39 20h2M55 20h5M14 21h1M37 21h2M47 21h8M14 22h1M25 22h1M35 22h1M41 22h6M59 22h1M14 23h1M35 23h1M39 23h2M58 23h1M14 24h1M34 24h1M36 24h1M55 24h1M57 24h1M14 25h2M34 25h1M54 25h1M56 25h1M15 26h1M53 26h1M55 26h1M16 27h2M26 27h1M34 27h1M52 27h1M54 27h1M17 28h1M26 28h1M33 28h2M50 28h1M53 28h1M18 29h1M25 29h1M32 29h3M49 29h1M52 29h1M19 30h1M25 30h1M32 30h2M48 30h1M51 30h1M20 31h1M25 31h1M31 31h2M50 31h1M21 32h1M25 32h1M30 32h2M46 32h4M22 33h1M24 33h1M29 33h3M42 33h6M24 34h1M29 34h2M37 34h1M40 34h3M36 38h2M28 41h1M34 45h1M36 45h1M36 46h2M37 47h2M29 48h3M31 49h2M32 50h1" />
<path stroke="#88e8b0" d="M31 13h1M32 14h1M31 15h1M33 15h1M32 16h1M34 16h1M40 16h1M42 16h1M33 17h1M41 17h1M42 18h1M50 23h1M52 23h1M45 24h5M51 24h1M53 24h1M40 25h1M42 25h1M44 25h7M52 25h1M39 26h1M41 26h1M43 26h1M45 26h7M38 27h1M40 27h1M42 27h1M44 27h1M46 27h5M39 28h1M41 28h1M43 28h1M45 28h1M47 28h3M42 29h1M44 29h1M46 29h1M48 29h1M45 30h1M47 30h1M22 44h2M22 45h2" />
<path stroke="#60c090" d="M31 14h1M33 14h1M32 15h1M34 15h1M31 16h1M33 16h1M41 16h1M12 17h1M32 17h1M34 17h1M40 17h1M42 17h1M12 18h1M33 18h1M39 18h3M12 19h1M17 19h1M39 19h2M12 20h1M17 20h2M11 21h2M16 21h4M11 22h1M16 22h6M11 23h1M16 23h7M47 23h1M51 23h1M53 23h1M11 24h1M16 24h8M43 24h2M50 24h1M52 24h1M54 24h1M11 25h1M16 25h9M41 25h1M43 25h1M51 25h1M53 25h1M11 26h1M17 26h8M38 26h1M40 26h1M42 26h1M44 26h1M52 26h1M18 27h7M37 27h1M39 27h1M41 27h1M43 27h1M45 27h1M51 27h1M19 28h6M36 28h3M40 28h1M42 28h1M44 28h1M46 28h1M20 29h4M36 29h6M43 29h1M45 29h1M47 29h1M21 30h3M35 30h10M46 30h1M22 31h2M34 31h13M22 32h2M33 32h10M33 33h5M32 34h1M21 42h3M22 43h2M21 46h2M19 47h2" />
<path stroke="#308860" d="M41 15h2M11 16h1M39 16h1M11 17h1M31 17h1M39 17h1M11 18h1M13 18h1M32 18h1M34 18h1M38 18h1M11 19h1M13 19h1M16 19h1M18 19h1M33 19h2M38 19h1M11 20h1M13 20h1M16 20h1M19 20h1M34 20h1M38 20h1M10 21h1M15 21h1M20 21h1M10 22h1M12 22h1M15 22h1M22 22h1M10 23h1M12 23h1M15 23h1M23 23h1M48 23h2M54 23h2M10 24h1M15 24h1M24 24h1M41 24h2M59 24h1M10 25h1M25 25h1M38 25h2M58 25h2M16 26h1M25 26h1M37 26h1M57 26h2M11 27h2M25 27h1M36 27h1M56 27h2M12 28h2M18 28h1M25 28h1M35 28h1M55 28h2M13 29h2M19 29h1M24 29h1M35 29h1M54 29h2M14 30h2M20 30h1M24 30h1M34 30h1M53 30h2M15 31h2M21 31h1M24 31h1M33 31h1M52 31h2M16 32h2M24 32h1M32 32h1M51 32h2M17 33h2M23 33h1M32 33h1M50 33h2M31 34h1M48 34h3M43 35h7M38 36h10M12 40h2M11 41h1M20 41h3M19 42h2M18 43h1M21 43h1M18 44h1M21 44h1M11 45h1M18 45h1M21 45h1M11 46h1M18 46h3" />
<path stroke="#c8c8c8" d="M55 21h5M36 22h1M47 22h12M36 23h1M41 23h6M56 23h2M35 24h1M56 24h1M55 25h1M28 36h2M26 37h2" />
<path stroke="#f8f8f8" d="M22 35h1M27 35h2M25 36h3M19 43h1M19 44h1" />
<path stroke="#b8b8d8" d="M23 35h1M26 35h1M22 36h2M22 37h1M24 37h2M28 37h1" />
<path stroke="#787038" d="M20 36h1M16 37h4M23 37h1M21 38h1M24 38h5M22 40h2M14 41h1M24 41h3M16 42h1M12 43h2M12 44h1M30 44h1M5 45h1M12 45h1M15 45h1M14 46h1M11 47h1M13 47h1M10 48h1M9 49h1M14 49h1M9 50h1" />
<path stroke="#e0d088" d="M20 37h2M22 38h1M10 43h1M14 43h1M16 43h1M8 44h1M13 45h1M16 45h1M13 46h1M15 46h2M15 47h3M11 48h1" />
<path stroke="#b8b078" d="M14 38h2M20 38h1M23 38h1M29 38h2M34 38h2M13 39h1M23 39h5M30 39h1M34 39h2M24 40h3M35 40h1M12 41h1M10 42h2M13 42h2M25 42h2M8 43h2M25 43h1M6 44h2M13 44h1M15 44h1M25 44h1M12 46h1M14 47h1M14 48h5" />
<path stroke="#f8f8a0" d="M16 38h4M14 39h8M14 40h8M13 41h1M15 41h5M12 42h1M15 42h1M17 42h2M11 43h1M15 43h1M17 43h1M9 44h1M14 44h1M16 44h2M6 45h2M14 45h1M12 47h1M10 49h1" />
</svg>