<svg xmlns="http://www.w3.org/2000/svg" viewBox="0 -0.5 64 64" shape-rendering="crispEdges">
<metadata>Made with Pixels to Svg https://codepen.io/shshaw/pen/XbxvNj</metadata>
<path stroke="#5890c8" d="M19 11h4M20 12h1M23 15h1M37 15h1M24 16h1M26 16h1M34 16h1M25 17h1M27 18h1M33 18h1M31 19h1M28 20h1M30 20h1M28 21h2M28 22h1M24 24h4M22 25h1M21 26h1M20 27h1M20 28h1M32 28h1M19 29h1M33 29h1M33 30h1M18 31h1M17 33h1M17 34h1M17 35h1M31 35h1M30 36h3M29 37h6M27 38h7M21 39h12M34 39h1M24 40h6M33 40h2M34 41h2M34 42h2M34 43h1M36 45h1" />
<path stroke="#386880" d="M19 12h1M23 12h1M21 13h1M24 13h1M22 14h1M25 14h1M38 14h5M26 15h1M35 15h2M43 15h1M33 16h1M27 17h1M32 17h1M25 18h1M31 18h1M26 19h1M28 19h1M30 19h1M26 20h1M29 20h1M27 21h1M27 22h1M28 23h1M28 24h1M29 25h2M31 26h1M32 27h1M22 28h1M27 29h1M27 30h1M27 31h1M22 32h1M26 32h1M23 33h3M18 36h1M18 37h1M19 38h1M34 38h1M20 39h1M33 39h1M35 39h1M23 40h1M30 40h1M35 40h1M36 41h1M36 42h1M37 43h1M34 44h1M37 44h1M35 45h1M38 45h1M37 46h2" />
<path stroke="#78c8f8" d="M21 12h2M22 13h2M23 14h2M24 15h2M41 15h1M25 16h1M35 16h1M26 17h1M33 17h3M26 18h1M27 19h1M27 20h1M28 25h1M22 26h1M29 26h1M28 27h3M27 28h1M30 28h1M30 29h2M28 30h4M28 31h4M19 32h1M27 32h4M18 33h5M26 33h5M18 34h12M18 35h11M19 36h9M21 37h5" />
<path stroke="#a8e0f8" d="M38 15h3M36 16h3M24 25h4M23 26h6M26 27h2M20 29h1M20 30h1M19 31h3M20 32h2" />
<path stroke="#60a8e0" d="M42 15h1M32 18h1M23 25h1M30 26h1M31 27h1M31 28h1M32 29h1M19 30h1M32 30h1M18 32h1M30 34h1M29 35h2M28 36h2M19 37h2M26 37h3M20 38h7M35 43h2M35 44h2M37 45h1" />
<path stroke="#000000" d="M39 16h4M36 17h3M34 18h2M32 19h2M31 20h1M30 21h1M29 22h1M22 27h1M21 28h1M29 28h1M33 28h1M28 29h2M34 29h1M21 40h2M31 40h2M24 41h6M33 41h1M26 42h1M33 42h1M23 43h1M25 43h1M33 43h1M30 44h1M32 44h1" />
<path stroke="#d0d0e0" d="M7 18h5M6 19h1M12 19h1M5 20h1M13 20h1M5 21h1M49 21h3M5 22h1M47 22h1M6 23h1M46 23h1M44 24h2M17 25h1M43 25h1M5 26h1M7 26h1M39 26h4M58 26h1M5 27h3M37 27h2M58 27h1M5 28h4M36 28h1M50 28h1M52 28h1M57 28h2M6 29h4M49 29h1M51 29h1M53 29h1M55 29h3M8 30h4M15 30h1M50 30h8M8 31h8M25 31h2M33 31h1M43 31h3M48 31h9M8 32h9M23 32h3M42 32h12M9 33h2M12 33h5M31 33h1M41 33h14M13 34h4M32 34h1M34 34h1M36 34h2M41 34h14M15 35h2M33 35h6M42 35h12M35 36h1M37 36h12M50 36h3M38 37h4M43 37h6M44 38h4M22 41h2M30 41h3M30 42h1M32 42h1" />
<path stroke="#f8f8f8" d="M7 19h5M7 20h6M7 21h7M8 22h7M48 22h5M11 23h5M47 23h6M10 24h7M46 24h7M10 25h6M47 25h5M11 26h4M21 27h1M39 27h3M23 28h2M28 28h1M37 28h6M36 29h7M37 30h5" />
<path stroke="#e8e8f0" d="M6 20h1M6 21h1M6 22h2M15 22h1M7 23h4M16 23h1M53 23h1M6 24h4M53 24h4M6 25h4M16 25h1M44 25h3M52 25h6M6 26h1M8 26h3M15 26h4M43 26h15M8 27h12M42 27h16M9 28h11M25 28h1M43 28h7M51 28h1M53 28h4M10 29h9M22 29h5M43 29h6M50 29h1M52 29h1M54 29h1M12 30h3M16 30h3M22 30h3M35 30h2M42 30h8M16 31h2M34 31h9M46 31h2M17 32h1M32 32h10M32 33h9M33 34h1M35 34h1M38 34h3M39 35h3M23 42h1M25 42h1M30 43h1M32 43h1" />
<path stroke="#9898c0" d="M14 21h2M16 22h1M53 22h1M17 23h1M54 23h3M5 24h1M17 24h1M57 24h1M5 25h1M18 25h1M58 25h1M4 26h1M19 26h1M59 26h1M4 27h1M23 27h3M59 27h1M4 28h1M26 28h1M59 28h1M5 29h1M21 29h1M35 29h1M58 29h1M6 30h2M21 30h1M26 30h1M34 30h1M58 30h1M7 31h1M22 31h2M32 31h1M57 31h1M7 32h1M31 32h1M55 32h2M8 33h1M55 33h1M9 34h4M31 34h1M55 34h1M13 35h2M32 35h1M54 35h1M15 36h2M33 36h2M36 36h1M53 36h1M35 37h3M49 37h4M38 38h4M43 38h1M48 38h1M44 39h4M22 42h1M24 42h1M29 43h1M31 43h1" />
<path stroke="#b0b0d8" d="M25 30h1M24 31h1M54 32h1M11 33h1M49 36h1M42 37h1M31 42h1" />
<path stroke="#808090" d="M21 41h1M29 42h1" />
</svg>