<svg xmlns="http://www.w3.org/2000/svg" viewBox="0 -0.5 64 64" shape-rendering="crispEdges">
<metadata>Made with Pixels to Svg https://codepen.io/shshaw/pen/XbxvNj</metadata>
<path stroke="#605050" d="M30 13h2M29 14h1M32 14h1M29 15h1M32 15h1M28 16h1M33 16h1M28 17h1M33 17h2M35 18h2M33 19h1M37 19h1M31 20h2M38 20h1M38 21h1M39 22h1M39 23h1M22 24h2M39 24h1M21 25h1M25 25h1M30 25h4M38 25h2M21 26h2M26 26h1M29 26h1M34 26h1M36 26h2M39 26h1M23 27h2M26 27h1M28 27h1M35 27h1M38 27h1M22 28h1M25 28h1M28 28h1M30 28h4M35 28h1M38 28h1M23 29h2M29 29h1M34 29h1M37 29h1M25 30h2M30 30h4M35 30h2M15 31h2M26 31h3M33 31h3M14 32h1M25 32h1M35 32h4M13 33h1M20 33h6M34 33h1M39 33h2M12 34h2M18 34h2M24 34h1M34 34h1M41 34h1M12 35h1M17 35h1M24 35h1M34 35h1M13 36h1M16 36h1M25 36h1M35 36h3M14 37h2M25 37h1M36 37h1M38 37h2M26 38h1M35 38h1M40 38h1M46 38h1M27 39h1M34 39h1M41 39h1M47 39h1M28 40h6M42 40h1M48 40h1M28 41h1M31 41h3M43 41h1M48 41h1M29 42h1M31 42h2M44 42h1M49 42h1M30 43h2M44 43h1M49 43h1M45 44h1M50 44h1M45 45h1M50 45h1M45 46h1M48 46h2M46 47h2" />
<path stroke="#e0e0a8" d="M30 14h1M30 15h1M29 16h2M29 17h2M29 18h2M26 19h2M24 20h5M24 21h8M25 22h8M26 23h4M27 24h1M23 25h1M30 26h2M30 27h2M19 30h6M17 31h1M27 32h2M27 34h2M26 35h4M42 35h1M27 36h2M43 36h1M44 37h1M45 38h1M46 39h1M47 40h1M48 42h1" />
<path stroke="#98a040" d="M31 14h1M31 15h1M31 16h2M27 17h1M32 17h1M25 18h2M32 18h2M24 19h1M28 19h1M32 19h1M35 19h2M23 20h1M29 20h2M34 20h4M23 21h1M34 21h4M35 22h4M35 23h4M36 24h3M37 25h1M38 26h1M22 27h1M25 27h1M36 27h2M23 28h2M26 28h1M29 28h1M34 28h1M36 28h2M19 29h4M25 29h4M30 29h4M35 29h2M17 30h2M27 30h3M34 30h1M29 31h4M15 32h1M31 32h4M14 33h3M32 33h2M35 33h4M14 34h4M32 34h2M35 34h4M42 34h1M13 35h4M32 35h2M35 35h4M43 35h1M14 36h2M34 36h1M44 36h1M32 37h4M45 37h1M31 38h4M28 39h6M49 45h1M47 46h1" />
<path stroke="#c0c060" d="M31 17h1M27 18h2M31 18h1M34 18h1M25 19h1M29 19h3M34 19h1M33 20h1M32 21h2M33 22h2M22 25h1M24 25h1M23 26h3M32 26h2M29 27h1M32 27h3M18 31h8M16 32h9M26 32h1M29 32h2M17 33h3M30 33h2M31 34h1M39 34h2M30 35h1M39 35h3M26 36h1M29 36h2M38 36h5M27 37h3M40 37h4M41 38h4M42 39h4M43 40h4M44 41h4M45 42h3M45 43h4M46 44h4M46 45h3M46 46h1" />
<path stroke="#d84060" d="M22 22h1M21 23h1M25 23h1M33 23h2M21 24h1M24 24h3M28 24h2M33 24h3M26 25h4M34 25h3M27 26h2M35 26h1M27 27h1M27 28h1M31 35h1M31 36h3M26 37h1M30 37h2M27 38h4" />
<path stroke="#f09050" d="M23 22h2M22 23h3M30 23h3M30 24h3M26 33h4M25 34h2M29 34h2M25 35h1" />
<path stroke="#808060" d="M29 41h2M30 42h1" />
</svg>