<svg xmlns="http://www.w3.org/2000/svg" viewBox="0 -0.5 64 64" shape-rendering="crispEdges">
<metadata>Made with Pixels to Svg https://codepen.io/shshaw/pen/XbxvNj</metadata>
<path stroke="#283838" d="M41 1h1M48 2h3M51 3h1M42 4h1M40 5h1M38 6h1M33 11h1M47 11h1M14 12h1M49 12h1M14 13h1M32 13h1M50 13h1M14 14h1M19 14h1M51 14h1M14 15h1M19 15h1M14 16h1M19 16h1M34 16h1M14 17h1M27 17h1M13 18h1M20 18h1M27 18h1M30 18h1M13 19h1M20 19h1M27 19h1M34 19h1M12 20h1M20 20h1M34 20h1M12 21h1M14 21h1M35 21h1M16 22h1M21 22h1M36 22h1M17 23h1M21 23h1M35 23h1M37 23h2M42 23h2M18 24h1M21 24h1M40 24h2M19 25h1M21 25h1M43 25h1M19 26h1M36 27h1M37 28h1M47 28h1M38 29h1M40 30h1M43 30h1M12 40h1M26 40h1M13 41h1M26 41h1M26 42h1M26 43h1M26 45h1M17 48h2M12 49h1M15 49h2M19 49h1M13 50h1M14 51h1M17 51h1M42 51h2M17 52h1M42 52h1M44 52h1M16 53h1M38 53h2M44 53h1M33 54h2M37 54h1M40 54h1M32 55h1M35 55h1M37 55h1M35 56h1M38 56h1M41 56h1M41 57h1M40 59h1M45 59h2M49 59h2M41 60h1M44 60h1M51 60h1M41 61h1M44 61h1M48 61h1M51 61h1M48 62h1" />
<path stroke="#000000" d="M42 1h6M45 3h6M43 4h2M41 5h1M39 6h1M37 7h1M36 8h1M35 9h1M34 10h1M33 12h1M32 14h1M32 15h1M52 15h1M33 16h1M53 16h1M20 17h1M31 18h1M54 18h1M28 19h1M32 19h1M33 20h1M13 21h1M21 21h1M34 21h1M55 21h1M15 22h1M35 22h1M44 22h2M55 22h1M55 23h1M54 25h1M54 26h1M20 27h1M23 27h1M24 28h1M39 28h2M53 28h1M26 29h1M46 29h1M28 30h2M44 30h1M52 30h1M41 31h2M47 31h1M51 31h1M15 32h1M47 32h1M50 32h1M52 32h2M15 33h1M48 33h1M54 33h1M15 34h1M53 34h1M16 36h1M16 37h1M49 37h1M24 38h1M48 38h1M50 38h1M52 38h1M54 38h1M16 39h1M23 39h1M26 39h1M48 39h1M53 39h2M11 40h1M16 40h1M22 40h1M27 40h1M48 40h1M11 41h1M15 41h1M28 41h2M13 42h2M21 42h1M29 42h1M12 43h1M20 43h1M29 43h1M33 43h1M36 43h1M45 43h1M11 44h1M19 44h1M27 44h2M36 44h1M11 45h1M16 45h1M34 45h1M37 45h1M44 45h1M11 46h1M16 46h1M27 46h1M37 46h1M43 46h1M11 47h1M17 47h1M28 47h1M35 47h2M42 47h1M11 48h1M29 48h1M36 48h1M41 48h1M11 49h1M38 49h1M41 49h1M11 50h1M14 50h1M17 50h3M40 50h1M11 51h1M13 51h1M30 51h1M41 51h1M11 52h2M14 52h2M42 53h2M31 54h1M41 54h1M31 55h1M31 56h1M37 56h1M31 57h1M34 57h3M39 57h2M31 58h1M33 58h1M39 58h1M32 59h1M39 59h1M38 60h1M49 60h1M38 61h1M49 61h2M38 62h1M40 62h6M38 63h2M47 63h2" />
<path stroke="#506060" d="M38 2h3M42 2h6M36 3h2M40 3h5M10 4h2M35 4h1M39 4h3M11 5h1M38 5h2M12 6h1M37 6h1M12 7h1M36 7h1M13 8h1M16 8h1M13 9h1M29 9h1M13 10h1M17 10h1M14 11h1M28 11h1M46 11h1M18 12h1M28 12h1M48 12h1M18 13h1M18 14h1M27 14h1M17 15h2M27 15h1M40 15h1M17 16h2M27 16h1M32 16h1M41 16h1M16 17h3M32 17h2M41 17h1M53 17h1M16 18h3M28 18h2M32 18h2M38 18h1M40 18h2M16 19h4M33 19h1M38 19h3M54 19h1M15 20h5M32 20h1M38 20h3M15 21h5M39 21h1M17 22h3M32 22h1M18 23h3M44 23h1M46 23h1M19 24h2M39 24h1M47 24h1M54 24h1M20 25h1M32 25h1M35 25h1M38 25h1M47 25h1M20 26h2M35 26h1M43 26h1M48 26h1M19 27h1M47 27h2M53 27h1M18 28h1M30 28h3M46 28h1M48 28h1M17 29h1M31 29h1M39 29h1M45 29h1M48 29h1M52 29h1M30 30h1M41 30h2M48 30h1M16 31h1M49 32h1M16 35h1M33 35h1M33 36h1M25 38h1M34 38h1M29 39h1M34 39h1M29 40h1M35 40h1M12 41h1M34 41h2M12 42h1M33 42h1M35 42h1M18 44h1M29 44h1M33 44h1M27 45h3M28 46h1M43 47h1M43 48h1M18 49h1M37 49h1M43 49h1M15 50h1M30 50h1M39 50h1M44 50h1M12 51h1M15 51h2M44 51h1M16 52h1M43 52h1M31 53h1M45 53h1M45 54h1M34 55h1M40 55h1M45 55h1M34 56h1M39 56h2M46 56h2M33 57h1M48 57h1M32 58h1M49 58h1M50 60h1M40 61h1M45 61h1M39 62h1M46 62h2" />
<path stroke="#708080" d="M41 2h1M39 3h1M12 4h1M34 4h1M38 4h1M13 5h1M33 5h1M37 5h1M14 6h1M32 6h1M36 6h1M15 7h1M31 7h1M30 8h1M35 8h1M16 9h1M34 9h1M14 10h1M29 10h1M33 10h1M15 11h1M17 11h1M15 12h3M32 12h1M15 13h3M28 13h1M15 14h3M31 14h1M15 15h2M31 15h1M15 16h2M30 16h2M40 16h1M15 17h1M19 17h1M28 17h4M39 17h2M14 18h2M19 18h1M39 18h1M14 19h2M13 20h2M20 21h1M20 22h1M36 23h1M36 24h1M42 24h2M40 25h3M36 26h1M40 26h3M46 26h2M37 27h1M39 27h4M45 27h2M38 28h1M41 28h5M40 29h5M49 36h1M52 36h1M51 37h1M53 37h1M27 41h1M27 42h2M45 42h2M27 43h2M46 43h1M44 44h1M47 44h1M39 48h1M39 49h1M12 50h1M16 50h1M38 54h2M33 55h1M38 55h1M32 56h2M39 60h2M45 60h3M39 61h1M46 61h1" />
<path stroke="#90a0a0" d="M38 3h1M36 4h2M12 5h1M34 5h3M13 6h1M33 6h3M13 7h2M32 7h4M14 8h2M31 8h4M14 9h2M30 9h4M15 10h2M30 10h3M16 11h1M29 11h4M41 11h1M45 11h1M29 12h3M29 13h3M28 14h3M28 15h3M28 16h2M39 16h1M41 19h1M54 20h1M40 21h1M36 25h2M39 25h1M37 26h2M44 26h2M38 27h1M43 27h2M39 55h1M32 57h1M47 61h1" />
<path stroke="#9090a8" d="M40 11h1M38 12h1M37 13h1M36 14h1M35 15h1M34 17h1M34 18h1M31 20h1M31 21h1M29 23h2M28 24h1M30 25h2M30 26h1M21 27h2M29 27h1M33 27h1M25 29h1M27 30h1M34 31h1M29 32h1M32 32h2M29 33h2M33 33h1M51 33h1M33 34h1M52 34h1M53 35h1M54 36h1M34 37h1M29 38h1M34 40h1M21 41h1M46 41h1M15 42h1M15 43h2M14 44h4M14 45h2M13 46h3M34 46h1M13 47h4M40 47h1M12 48h5M42 48h1M13 49h2M17 49h1M30 49h1M42 49h1M41 50h3M31 52h1M42 54h3M41 55h4M42 56h4M42 57h2M40 58h2M42 61h2" />
<path stroke="#c0c0d0" d="M42 11h3M39 12h1M45 12h3M47 13h3M48 14h3M39 15h1M41 15h1M49 15h3M35 16h1M50 16h3M38 17h1M50 17h3M51 18h3M35 19h1M51 19h3M35 20h2M44 20h3M50 20h1M52 20h2M36 21h3M41 21h9M51 21h4M33 22h1M37 22h7M46 22h3M50 22h1M52 22h3M31 23h1M39 23h3M47 23h3M51 23h4M48 24h6M33 25h1M48 25h6M31 26h1M39 26h1M49 26h5M32 27h1M49 27h4M19 28h5M33 28h2M49 28h4M22 29h3M47 29h1M50 29h2M17 30h1M45 30h3M50 30h2M29 31h1M35 31h1M43 31h4M50 31h1M31 32h1M34 32h1M41 32h6M51 32h1M42 33h6M49 33h2M52 33h2M42 34h2M45 34h7M43 35h1M45 35h8M45 36h4M50 36h2M53 36h1M17 37h1M29 37h1M44 37h5M50 37h1M52 37h1M17 38h1M26 38h2M44 38h4M53 38h1M27 39h2M44 39h4M28 40h1M43 40h5M16 41h1M43 41h3M47 41h1M16 42h1M43 42h2M47 42h1M13 43h2M17 43h1M42 43h3M47 43h1M12 44h2M42 44h2M12 45h2M41 45h3M12 46h1M40 46h3M12 47h1M37 47h3M41 47h1M37 48h2M40 48h1M40 49h1M41 52h1M40 53h2M36 55h1M36 56h1M44 57h4M42 58h7M41 59h4M47 59h2M42 60h2M48 60h1" />
<path stroke="#f8f8f8" d="M40 12h4M38 13h8M37 14h10M36 15h3M42 15h6M36 16h3M42 16h7M35 17h3M42 17h8M36 18h2M42 18h8M37 19h1M42 19h8M42 20h1M48 20h1M32 21h2M34 22h1M32 23h3M29 24h7M37 24h1M46 24h1M34 25h1M44 25h1M46 25h1M32 26h3M30 27h2M34 27h2M35 28h2M18 29h3M32 29h6M18 30h9M31 30h8M17 31h12M30 31h4M36 31h4M48 31h1M16 32h13M30 32h1M35 32h5M48 32h1M16 33h13M34 33h7M16 34h15M34 34h8M17 35h13M31 35h1M34 35h8M17 36h14M34 36h8M18 37h11M31 37h1M35 37h7M43 37h1M18 38h6M30 38h1M35 38h9M17 39h6M35 39h8M17 40h5M36 40h7M17 41h4M36 41h7M18 42h3M36 42h6M37 43h5M37 44h4M31 45h2M38 45h2M30 46h4M30 47h5M30 48h6M31 49h6M31 50h8M31 51h10M32 52h8M32 53h6" />
<path stroke="#d8d8e8" d="M44 12h1M46 13h1M47 14h1M48 15h1M49 16h1M35 18h1M50 18h1M36 19h1M50 19h1M37 20h1M41 20h1M43 20h1M47 20h1M49 20h1M51 20h1M50 21h1M49 22h1M51 22h1M50 23h1M21 29h1M49 29h1M39 30h1M49 30h1M40 31h1M49 31h1M40 32h1M31 33h2M41 33h1M31 34h2M44 34h1M30 35h1M32 35h1M42 35h1M44 35h1M31 36h2M42 36h3M30 37h1M32 37h2M42 37h1M28 38h1M31 38h3M30 39h4M43 39h1M30 40h4M30 41h4M17 42h1M30 42h3M42 42h1M18 43h2M30 43h3M30 44h3M41 44h1M30 45h1M33 45h1M40 45h1M29 46h1M38 46h2M29 47h1M40 52h1M32 54h1M35 54h2" />
<path stroke="#782830" d="M45 23h1" />
<path stroke="#c82820" d="M38 24h1M44 24h2M45 25h1" />
</svg>