<svg xmlns="http://www.w3.org/2000/svg" viewBox="0 -0.5 64 64" shape-rendering="crispEdges">
<metadata>Made with Pixels to Svg https://codepen.io/shshaw/pen/XbxvNj</metadata>
<path stroke="#9088b0" d="M30 10h4M28 11h2M24 12h4M22 13h2M26 13h1M33 13h2M21 14h1M31 14h2M20 15h1M25 15h1M30 15h1M19 16h1M29 16h1M19 17h1M24 17h1M28 17h1M17 18h2M24 18h1M27 18h1M16 19h1M18 19h1M27 19h1M15 20h1M18 20h1M23 20h1M26 20h1M14 21h1M18 21h1M23 21h1M26 21h1M37 21h1M14 22h1M18 22h1M23 22h1M37 22h1M13 23h1M18 23h1M13 24h1M18 24h1M12 25h1M19 25h1M49 25h2M11 26h1M11 27h1M48 27h1M20 28h1M47 28h1M15 29h1M19 29h1M29 29h2M46 29h1M13 30h2M19 30h2M18 31h2M18 32h2M47 32h1M17 33h2M44 33h1M17 34h2M37 34h1M43 34h1M15 35h1M42 37h1M33 38h1M38 38h1M42 38h1M34 39h1M38 39h1M28 43h1M46 43h1M17 44h1M28 44h1M45 44h2M17 45h2M43 45h4M18 46h2M34 46h4M43 46h3M18 47h3M33 47h6M42 47h4M19 48h3M33 48h6M42 48h3M21 49h1M33 49h6M19 50h3M33 50h6M33 51h5M36 52h2M32 53h5" />
<path stroke="#e8e8c8" d="M30 11h2M28 12h5M24 13h2M27 13h6M22 14h3M26 14h5M33 14h4M21 15h4M26 15h4M31 15h7M20 16h4M25 16h4M30 16h9M20 17h4M25 17h3M29 17h11M19 18h5M25 18h2M28 18h12M17 19h1M19 19h4M24 19h3M28 19h10M16 20h2M19 20h4M24 20h2M27 20h9M15 21h3M19 21h4M24 21h2M27 21h8M40 21h2M15 22h3M19 22h4M24 22h1M26 22h8M38 22h5M14 23h4M19 23h4M24 23h1M26 23h7M36 23h8M14 24h4M19 24h5M25 24h7M35 24h10M14 25h5M20 25h11M34 25h11M12 26h1M14 26h5M20 26h10M33 26h13M12 27h2M15 27h4M20 27h1M26 27h3M32 27h14M13 28h1M15 28h3M31 28h16M16 29h1M31 29h14M15 30h1M32 30h11M45 30h3M13 31h3M33 31h7M43 31h5M14 32h1M34 32h2M40 32h7M14 33h1M34 33h1M36 33h8M16 36h2M16 37h2M17 38h2M17 39h2M30 39h2M18 40h2M21 41h1M29 41h1M20 42h4M22 43h6M25 44h3" />
<path stroke="#c8c8c8" d="M32 11h2M33 12h2M35 13h3M37 14h3M38 15h4M39 16h4M40 17h4M40 18h4M38 19h4M36 20h4M42 20h4M35 21h2M42 21h6M34 22h2M43 22h5M33 23h2M44 23h5M32 24h2M45 24h4M13 25h1M31 25h2M45 25h4M13 26h1M30 26h2M46 26h3M50 26h1M21 27h5M29 27h2M46 27h2M49 27h2M12 28h1M18 28h2M21 28h9M48 28h3M13 29h2M17 29h2M21 29h8M47 29h4M16 30h3M22 30h7M30 30h2M48 30h2M16 31h2M25 31h3M29 31h4M48 31h1M15 32h3M29 32h5M15 33h2M29 33h5M13 34h1M15 34h2M30 34h6M13 35h2M30 35h15M13 36h3M31 36h14M13 37h3M31 37h11M14 38h3M34 38h4M44 38h2M14 39h3M32 39h2M40 39h6M14 40h4M30 40h15M15 41h4M30 41h15M16 42h2M19 42h1M29 42h15M18 43h4M30 43h14M19 44h6M29 44h1M31 44h12M20 45h11M33 45h2M38 45h3M22 46h11M45 48h1M18 49h2M32 52h3" />
<path stroke="#505070" d="M34 11h1M35 12h3M38 13h2M40 14h2M42 15h1M43 16h1M44 17h1M44 18h1M42 19h4M40 20h2M46 20h2M38 21h2M48 21h1M36 22h1M35 23h1M49 23h1M34 24h1M49 24h1M33 25h1M19 26h1M32 26h1M51 26h1M19 27h1M31 27h1M51 27h1M11 28h1M30 28h1M12 29h1M20 29h1M12 30h1M21 30h1M29 30h1M12 31h1M21 31h1M28 31h1M49 31h2M13 32h1M28 32h1M48 32h2M13 33h1M28 33h1M45 33h2M49 33h1M12 34h1M14 34h1M29 34h1M38 34h5M48 34h1M12 35h1M16 35h2M29 35h1M47 35h1M12 36h1M18 36h1M30 36h1M45 36h2M12 37h1M18 37h1M30 37h1M43 37h2M49 37h1M13 38h1M19 38h1M30 38h3M39 38h3M13 39h1M19 39h1M29 39h1M35 39h3M13 40h1M20 40h1M29 40h1M14 41h1M19 41h2M28 41h1M15 42h1M18 42h1M28 42h1M46 42h1M16 43h2M29 43h1M45 43h1M16 44h1M30 44h1M16 45h1M31 45h2M35 45h3M47 45h1M17 46h1M21 46h1M33 46h1M38 46h1M40 46h1M17 47h1M22 47h3M32 47h1M40 47h1M18 48h1M24 48h1M31 48h1M41 48h1M46 48h1M17 49h1M39 49h1M17 50h2M32 51h1M31 52h1M31 53h1" />
<path stroke="#b0b0b8" d="M25 14h1M24 16h1M23 19h1M25 22h1M23 23h1M25 23h1M24 24h1M49 26h1M14 27h1M14 28h1M45 29h1M43 30h2M40 31h3M36 32h4M35 33h1M47 33h2M36 34h1M44 34h4M49 34h1M45 35h2M48 35h2M47 36h3M45 37h4M43 38h1M46 38h3M39 39h1M46 39h2M45 40h3M45 41h2M44 42h2M44 43h1M25 47h7M20 49h1M35 52h1" />
<path stroke="#181818" d="M48 22h1M51 28h1M51 29h1M50 30h1M20 31h1M22 31h3M20 32h1M26 32h2M19 33h1M19 34h1M50 34h1M18 35h1M22 35h1M50 35h1M22 36h1M50 36h1M19 37h1M49 38h1M20 39h1M48 39h1M48 40h1M47 41h1M47 42h1M47 43h1M18 44h1M43 44h2M47 44h1M19 45h1M41 45h2M20 46h1M39 46h1M46 46h1M39 47h1M46 47h1M25 48h6M39 48h1M24 49h1M31 49h1M42 49h4M22 50h2M32 50h1M19 51h3M38 51h1M38 52h1M37 53h1M32 54h5" />
<path stroke="#484038" d="M21 32h5M20 33h8M21 34h2M27 34h2M19 35h1M19 36h1M20 37h1M20 38h3M21 39h2M21 40h8M22 41h6M24 42h4" />
<path stroke="#c0c000" d="M20 34h1M20 35h2M20 36h1M29 36h1" />
<path stroke="#787860" d="M23 34h2M23 35h6M24 36h5M23 37h5M23 38h6M26 39h3" />
<path stroke="#605848" d="M25 34h2M23 39h3" />
<path stroke="#f0f000" d="M21 36h1M23 36h1M21 37h2M28 37h2M29 38h1" />
<path stroke="#b85820" d="M41 46h2M21 47h1M41 47h1M22 48h2M32 48h1M22 49h2M32 49h1" />
</svg>