<svg xmlns="http://www.w3.org/2000/svg" viewBox="0 -0.5 64 64" shape-rendering="crispEdges">
<metadata>Made with Pixels to Svg https://codepen.io/shshaw/pen/XbxvNj</metadata>
<path stroke="#504880" d="M19 7h1M18 8h1M49 8h3M17 9h1M46 9h2M16 10h1M43 10h1M45 10h1M48 10h1M15 11h1M41 11h1M45 11h3M39 12h1M43 12h2M14 13h1M37 13h1M41 13h2M19 14h1M36 14h1M39 14h2M13 15h1M20 15h1M35 15h1M38 15h1M34 16h1M37 16h1M12 17h1M21 17h1M34 17h1M37 17h1M12 18h1M18 18h3M22 18h1M37 18h1M17 19h1M36 19h1M38 19h3M11 20h1M42 20h2M11 21h1M39 21h3M44 21h1M11 22h2M38 22h1M43 22h1M13 23h2M21 23h1M38 23h1M45 23h1M15 24h2M38 24h1M46 24h1M17 25h1M22 25h1M36 25h1M38 25h1M18 26h1M35 26h1M37 26h1M19 27h1M23 27h1M33 27h3M37 27h1M20 28h1M31 28h1M36 28h1M12 29h1M29 29h1M13 30h1M28 30h1M15 31h1M27 31h1M34 31h1M20 32h2M17 33h2M33 33h1M16 35h1M15 36h1M29 36h2M36 36h1M15 37h1M32 37h1M15 38h7M22 39h3M39 39h1M25 40h1M26 41h1M26 42h1M28 42h2M25 44h1M31 45h1M33 45h1M39 45h1M32 46h1M37 46h1M32 47h1M37 47h1M31 49h1M33 49h1M32 50h1M31 52h1M39 52h1M38 53h1M37 56h1" />
<path stroke="#101010" d="M19 8h1M52 8h3M19 9h1M19 10h1M44 10h1M19 11h1M19 12h1M19 13h1M20 16h1M23 18h1M35 18h1M22 19h1M21 20h1M36 20h1M21 21h1M36 21h1M21 22h1M36 22h1M36 23h1M22 24h1M36 24h1M45 24h1M43 25h1M23 26h1M41 26h1M40 27h1M24 28h1M35 28h1M39 28h1M21 29h1M25 29h1M35 29h1M14 30h1M22 30h1M26 30h2M35 30h1M38 30h1M16 31h1M23 31h1M17 32h1M22 32h3M26 32h1M34 32h1M37 32h1M25 33h1M33 34h1M36 34h1M32 35h1M36 35h1M31 36h2M37 36h1M38 37h1M17 39h4M17 40h4M22 40h3M39 40h1M16 41h10M29 41h1M39 41h1M18 42h8M39 42h1M18 43h2M23 43h6M38 43h1M18 44h1M22 44h1M24 44h1M26 44h1M29 44h1M37 44h1M19 45h1M22 45h1M25 45h1M30 45h1M34 45h3M19 46h6M34 46h1M39 46h1M34 47h1M39 47h1M33 48h1M39 48h1M39 49h1M39 50h1M32 51h1M39 51h1M31 53h1M30 54h1M38 54h1M29 55h1M38 55h1M37 57h1" />
<path stroke="#a8a0e8" d="M18 9h1M48 9h1M17 10h2M46 10h1M16 11h2M43 11h2M16 12h2M41 12h2M15 13h3M39 13h2M15 14h3M37 14h2M14 15h4M37 15h1M14 16h5M13 17h7M13 18h3M13 19h1M12 20h3M12 21h2M13 22h3M15 23h3M17 24h2M18 25h1M19 26h1M33 28h2M31 29h2M11 30h2M29 30h2M13 31h2M28 31h1M14 32h1M27 32h1M22 33h2M26 33h1M17 34h1M21 34h5M20 35h5M16 36h1M18 36h6M16 37h8M22 38h3M35 38h2M25 39h1M34 39h4M34 40h4M34 41h4M35 42h2M24 45h1" />
<path stroke="#7870b8" d="M49 9h2M47 10h1M18 11h1M42 11h1M15 12h1M18 12h1M40 12h1M18 13h1M38 13h1M14 14h1M18 14h1M18 15h2M13 16h1M19 16h1M20 17h1M36 17h1M21 18h1M36 18h1M12 19h1M16 19h1M18 19h4M37 19h1M15 20h6M37 20h5M14 21h7M37 21h2M42 21h2M16 22h5M37 22h1M44 22h2M18 23h3M37 23h1M46 23h1M19 24h3M37 24h1M19 25h3M37 25h1M20 26h3M36 26h1M20 27h3M36 27h1M21 28h3M32 28h1M10 29h2M22 29h3M30 29h1M10 30h1M23 30h3M24 31h3M29 31h1M15 32h2M19 32h1M25 32h1M28 32h1M15 33h2M24 33h1M27 33h2M16 34h1M26 34h2M25 35h3M33 35h1M24 36h5M33 36h3M24 37h8M33 37h5M25 38h10M37 38h2M26 39h8M38 39h1M26 40h8M38 40h1M27 41h2M30 41h4M38 41h1M27 42h1M30 42h5M37 42h2M29 43h9M30 44h7M38 44h1M32 45h1M37 45h2M33 46h1M38 46h1M33 47h1M38 47h1M32 48h1M38 48h1M32 49h1M38 49h1M31 50h1M38 50h1M31 51h1M38 51h1M30 52h1M38 52h1M30 53h1M37 53h1M29 54h1M37 54h1M37 55h1" />
<path stroke="#702058" d="M51 9h3M48 14h1M47 16h1M46 19h1M46 20h1M46 21h1M46 22h1M44 24h1M42 25h1M33 29h1M38 29h1M31 30h1M10 31h3M30 31h2M37 31h1M10 32h1M13 32h1M29 32h1M32 32h1M11 33h1M13 33h2M29 33h1M32 33h1M36 33h1M11 34h1M13 34h1M15 34h1M28 34h1M12 35h1M14 35h1M28 35h1M13 36h1M14 37h1" />
<path stroke="#b05098" d="M49 10h4M48 11h4M45 12h3M50 12h1M43 13h3M49 13h1M41 14h3M39 15h3M48 15h1M38 16h3M38 17h2M47 17h1M38 18h2M46 18h1M39 22h4M39 23h2M39 24h1M39 25h1M38 26h1M38 27h1M37 28h2M34 29h1M36 29h2M32 30h1M36 30h2M35 31h2M12 32h1M30 32h1M35 32h2M30 33h1M34 33h2M29 34h3M34 34h2M15 35h1M29 35h3M34 35h2" />
<path stroke="#d070b8" d="M48 12h2M46 13h3M44 14h3M42 15h3M41 16h3M40 17h3M40 18h3M41 19h2M44 20h1M41 23h4M40 24h4M40 25h2M39 26h2M39 27h1M33 30h2M11 32h1M31 32h1M12 33h1M31 33h1M14 34h1M32 34h1M14 36h1" />
<path stroke="#f080d8" d="M47 14h1M45 15h3M44 16h3M43 17h4M43 18h3M43 19h3M45 20h1M45 21h1M32 31h2M33 32h1M12 34h1M13 35h1" />
<path stroke="#c8c0f8" d="M36 15h1M35 16h2M35 17h1M16 18h2M14 19h2M19 33h3M18 34h3M17 35h3M17 36h1" />
<path stroke="#606060" d="M15 39h1M15 40h1M20 43h3M17 44h1M19 44h3M17 45h1M20 45h2M18 46h1" />
<path stroke="#d0d0d0" d="M16 39h1M21 39h1M18 45h1M23 45h1" />
<path stroke="#f8f8f8" d="M16 40h1M21 40h1M23 44h1" />
</svg>