<svg xmlns="http://www.w3.org/2000/svg" viewBox="0 -0.5 64 64" shape-rendering="crispEdges">
<metadata>Made with Pixels to Svg https://codepen.io/shshaw/pen/XbxvNj</metadata>
<path stroke="#506028" d="M32 16h2M30 17h1M35 17h2M29 18h1M36 18h2M24 19h1M28 19h1M35 19h1M25 20h3M27 21h1M23 22h1M26 22h1M39 22h3M19 23h1M24 23h1M26 23h1M37 23h2M20 24h2M24 24h2M36 24h1M23 25h3M35 25h1M25 26h1M35 26h7M19 27h1M25 27h1M29 27h1M34 27h1M44 27h2M20 28h1M25 28h1M29 28h1M34 28h1M39 28h3M25 29h2M29 29h1M34 29h1M36 29h3M26 30h1M29 30h1M33 30h1M35 30h1M27 31h1M24 32h1M27 32h1M32 32h1M41 32h1M28 33h1M31 33h1M39 33h1M33 34h1M38 34h1" />
<path stroke="#70a830" d="M34 16h1M31 17h1M32 18h1M35 18h1M22 19h2M32 19h1M22 20h1M24 20h1M31 20h1M23 21h1M25 21h2M31 21h1M25 22h1M30 22h1M18 23h1M25 23h1M30 23h1M39 23h4M18 24h1M22 24h1M30 24h1M37 24h5M18 25h1M29 25h1M34 25h1M36 25h5M19 26h1M21 26h2M29 26h1M34 26h1M42 26h1M23 27h1M43 27h1M24 28h1M28 28h1M33 28h1M35 28h3M45 28h1M27 29h2M30 29h2M33 29h1M35 29h1M44 29h1M23 30h3M27 30h2M30 30h3M34 30h1M36 30h3M43 30h1M23 31h4M28 31h5M34 31h5M42 31h1M25 32h2M28 32h4M33 32h4M40 32h1M26 33h2M29 33h2M33 33h2M38 33h1" />
<path stroke="#b8f870" d="M32 17h2M30 18h2M29 19h3M28 20h3M28 21h3M32 21h1M27 22h3M32 22h1M27 23h3M31 23h2M19 24h1M26 24h2M29 24h1M31 24h1M19 25h1M26 25h1M31 25h1M20 26h1M26 26h1M20 27h1M26 27h1M21 28h1M26 28h1M21 29h1M22 30h1" />
<path stroke="#98d048" d="M34 17h1M33 18h2M33 19h2M23 20h1M32 20h3M24 21h1M33 21h2M24 22h1M31 22h1M33 22h2M33 23h2M28 24h1M32 24h3M20 25h3M27 25h2M30 25h1M32 25h2M23 26h2M27 26h2M30 26h4M21 27h2M24 27h1M27 27h2M30 27h4M35 27h8M22 28h2M27 28h1M30 28h3M38 28h1M42 28h3M22 29h3M32 29h1M39 29h5M39 30h4M39 31h3M37 32h3M35 33h3" />
<path stroke="#101010" d="M36 19h2M35 20h1M35 21h1M35 22h1M42 22h2M35 23h1M43 23h1M35 24h1M42 24h1M41 25h1M46 27h1M46 28h1M20 29h1M45 29h1M21 30h1M44 30h1M22 31h1M33 31h1M43 31h1M23 32h1M42 32h1M25 33h1M32 33h1M40 33h1M26 34h2M29 34h3M34 34h4M38 39h1M38 40h1M37 41h1M24 42h1M37 42h2M25 43h1M36 43h1M35 44h1M39 44h1M29 45h5M39 45h1M29 46h1M34 46h1M38 46h1M29 47h1M34 47h1M37 47h1M25 48h4M35 48h2" />
<path stroke="#486880" d="M28 34h1M32 34h1M32 35h4M32 36h5M24 37h1M33 37h4M23 38h1M32 38h6M30 39h1M33 39h5M28 40h1M30 40h1M32 40h6M32 41h5M31 42h6M29 43h7M27 44h7M37 44h2M36 45h3M27 46h2M36 46h2M25 47h4M35 47h2" />
<path stroke="#304858" d="M25 35h1M36 35h1M24 36h1M37 36h1M37 37h1M38 38h1M23 39h1M23 40h1M24 41h1M39 43h1M26 44h1M34 44h1M24 45h3M28 45h1M34 45h1M23 46h1M23 47h1M24 48h1" />
<path stroke="#90b0c0" d="M26 35h2M25 36h1M27 36h2M25 37h1M28 37h1M24 38h4M24 39h4M25 40h2" />
<path stroke="#7090a0" d="M28 35h4M26 36h1M29 36h3M27 37h1M29 37h3M28 38h4M31 39h2M24 40h1M27 40h1M31 40h1M25 41h7M25 42h6M26 43h3M37 43h2M36 44h1M27 45h1M35 45h1M24 46h3M35 46h1M24 47h1" />
<path stroke="#f8b838" d="M26 37h1M32 37h1M29 40h1" />
<path stroke="#f84800" d="M28 39h2" />
</svg>