<svg xmlns="http://www.w3.org/2000/svg" viewBox="0 -0.5 64 64" shape-rendering="crispEdges">
<metadata>Made with Pixels to Svg https://codepen.io/shshaw/pen/XbxvNj</metadata>
<path stroke="#101010" d="M11 10h3M27 10h5M44 10h4M49 10h1M10 11h5M26 11h6M51 11h1M10 12h1M12 12h4M25 12h4M31 12h2M52 12h1M10 13h1M13 13h4M24 13h4M32 13h1M43 13h3M53 13h1M10 14h1M14 14h3M24 14h3M32 14h1M49 14h1M54 14h1M15 15h2M24 15h3M31 15h2M43 15h1M51 15h1M55 15h1M15 16h2M24 16h2M31 16h1M44 16h1M30 17h1M56 17h1M30 18h1M45 18h1M30 19h1M57 19h1M30 20h1M46 20h1M57 20h1M15 21h1M25 21h3M37 21h1M7 22h1M16 22h1M24 22h1M35 22h2M9 23h1M23 23h1M33 23h1M47 23h1M58 23h1M11 24h1M14 24h1M30 24h2M47 24h1M58 24h1M14 25h1M24 25h1M47 25h1M58 25h1M15 26h1M26 26h1M47 26h1M58 26h1M11 27h3M29 27h5M47 27h1M49 27h1M55 27h1M58 27h1M8 28h2M19 28h2M35 28h3M49 28h1M55 28h1M58 28h1M19 29h1M28 29h1M40 29h1M49 29h1M55 29h1M13 30h1M18 30h1M21 30h2M25 30h1M30 30h1M40 30h1M46 30h1M49 30h1M54 30h1M12 31h1M16 31h2M24 31h1M31 31h1M35 31h1M39 31h1M57 31h1M11 32h1M19 32h4M32 32h1M35 32h1M45 32h1M56 32h1M10 33h1M38 33h1M44 33h1M46 33h1M52 33h4M34 34h1M37 34h1M40 34h4M46 34h1M34 35h1M36 35h1M40 35h1M46 35h1M33 36h1M35 36h1M40 36h1M46 36h1M22 37h1M33 37h2M40 37h1M46 37h1M23 38h2M32 38h1M34 38h1M46 38h1M32 39h1M34 39h1M46 39h1M33 40h1M46 40h1M31 41h1M33 41h1M46 41h1M31 42h2M46 42h1M21 43h1M38 43h1M43 43h1M46 43h1M30 44h1M37 44h1M39 44h1M41 44h2M44 44h1M22 45h1M30 45h1M40 45h1M45 45h1M30 46h1M30 47h1M30 48h1M29 50h1M29 51h1M29 52h1M29 53h1M18 54h1M20 54h2M25 54h1M29 54h1M19 55h1M24 55h1M26 55h1M28 55h1M22 56h2M27 56h1" />
<path stroke="#906000" d="M40 10h4M48 10h1M38 11h2M50 11h1M35 12h4M17 13h1M33 13h1M39 13h2M42 13h1M46 13h3M17 14h7M41 14h2M50 14h1M11 15h1M17 15h1M23 15h1M11 16h1M26 16h1M52 16h1M55 16h1M16 17h1M24 17h1M28 17h1M44 17h1M52 17h1M12 18h1M29 18h1M53 18h1M56 18h1M12 19h1M45 19h1M53 19h1M7 20h1M12 20h1M35 20h2M54 20h1M6 21h1M9 21h1M12 21h1M14 21h1M31 21h1M33 21h1M40 21h1M46 21h1M54 21h1M57 21h1M8 22h1M11 22h2M14 22h1M27 22h1M30 22h2M34 22h1M47 22h1M54 22h1M58 22h1M10 23h1M14 23h1M27 23h1M32 23h1M41 23h1M55 23h1M12 24h1M17 24h1M27 24h1M41 24h1M55 24h1M10 25h3M17 25h1M22 25h1M27 25h1M29 25h5M41 25h1M51 25h3M55 25h1M7 26h2M25 26h1M34 26h2M41 26h1M50 26h1M54 26h1M6 27h1M10 27h1M41 27h1M7 28h1M13 28h1M30 28h1M34 28h1M40 28h1M47 28h1M12 29h1M14 29h1M16 29h1M23 29h1M27 29h1M29 29h1M31 29h1M46 29h1M52 29h1M58 29h1M11 30h1M15 30h1M17 30h1M20 30h1M26 30h1M32 30h1M35 30h1M53 30h1M58 30h1M10 31h1M15 31h1M23 31h1M33 31h1M45 31h1M49 31h1M9 32h1M15 32h1M18 32h1M38 32h1M50 32h1M9 33h1M16 33h1M26 33h1M33 33h2M45 33h1M26 34h1M39 34h1M44 34h2M17 35h1M25 35h1M35 35h1M45 35h1M21 36h1M25 36h1M34 36h1M18 37h1M25 37h1M32 37h1M19 38h1M25 38h1M33 38h1M40 38h1M19 39h1M25 39h1M33 39h1M40 39h1M20 40h1M25 40h1M31 40h2M38 40h2M20 41h1M24 41h1M32 41h1M37 41h1M39 41h1M42 41h1M45 41h1M21 42h1M24 42h1M36 42h1M38 42h1M43 42h1M24 43h1M30 43h1M36 43h1M40 43h1M42 43h1M22 44h1M24 44h1M46 44h1M23 45h1M23 46h1M23 47h1M22 48h1M29 48h1M21 49h1M29 49h1M20 50h1M19 51h1M22 51h1M28 51h1M19 52h1M21 52h1M18 53h2M21 53h1M25 53h1M23 54h1M27 54h1M22 55h1" />
<path stroke="#f8f8a8" d="M40 11h10M39 12h13M34 13h5M41 13h1M49 13h4M33 14h8M51 14h3M34 15h8M52 15h3M35 16h1M37 16h6M54 16h1M14 17h2M17 17h1M34 17h1M36 17h1M38 17h5M55 17h1M13 18h4M35 18h1M37 18h7M14 19h3M36 19h1M38 19h6M14 20h3M37 20h2M40 20h5M7 21h2M16 21h2M35 21h2M39 21h1M41 21h4M9 22h2M13 22h1M17 22h5M32 22h2M41 22h4M11 23h3M17 23h5M30 23h1M42 23h3M18 24h4M42 24h3M18 25h4M42 25h3M10 26h2M13 26h1M17 26h5M29 26h4M42 26h3M51 26h2M7 27h2M18 27h3M34 27h3M42 27h2M51 27h2M29 28h1M42 28h1M13 29h1M30 29h1M12 30h1M31 30h1M11 31h1M32 31h1M10 32h1M16 32h2M27 32h1M33 32h1M17 33h1M27 33h2M17 34h2M27 34h2M18 35h2M27 35h2M18 36h2M26 36h3M19 37h1M26 37h3M26 38h3M26 39h3M26 40h3M25 41h4M25 42h4M25 43h3M25 44h3M24 45h3M24 46h3M24 47h3M23 48h4M23 49h4M21 50h6M20 51h1M23 51h4M20 52h1M22 52h3M22 53h2" />
<path stroke="#705810" d="M11 12h1M29 12h2M12 13h1M28 13h1M13 14h1M27 14h1M14 15h1M14 16h1M12 17h1" />
<path stroke="#d8b050" d="M34 12h1M42 15h1M17 16h1M23 16h1M13 17h1M27 17h1M28 18h1M13 19h1M28 19h2M8 20h1M13 20h1M29 20h1M39 20h1M10 21h1M13 21h1M29 21h2M32 21h1M34 21h1M29 22h1M40 22h1M57 22h1M28 23h2M31 23h1M57 23h1M22 24h1M28 24h2M40 24h1M57 24h1M28 25h1M40 25h1M46 25h1M57 25h1M9 26h1M12 26h1M28 26h1M33 26h1M36 26h1M40 26h1M46 26h1M57 26h1M9 27h1M27 27h2M39 27h2M46 27h1M54 27h1M57 27h1M18 28h1M26 28h3M31 28h3M38 28h2M46 28h1M54 28h1M57 28h1M25 29h2M32 29h4M38 29h2M45 29h1M53 29h2M57 29h1M16 30h1M19 30h1M23 30h2M27 30h1M33 30h2M36 30h4M44 30h2M57 30h1M18 31h5M25 31h2M34 31h1M36 31h3M44 31h1M56 31h1M23 32h4M34 32h1M36 32h2M42 32h3M51 32h1M55 32h1M19 33h7M35 33h3M39 33h5M16 34h1M20 34h6M33 34h1M35 34h2M21 35h4M26 35h1M33 35h1M41 35h4M17 36h1M22 36h3M32 36h1M42 36h4M21 37h1M23 37h2M43 37h3M20 38h3M44 38h2M20 39h5M31 39h1M44 39h2M21 40h4M44 40h2M21 41h3M44 41h1M22 42h2M30 42h1M37 42h1M42 42h1M44 42h2M22 43h2M41 43h1M44 43h2M23 44h1M29 45h1M29 46h1M29 47h1M22 49h1M28 49h1M28 50h1M25 52h1M28 52h1M28 53h1M28 54h1" />
<path stroke="#907820" d="M11 13h1M29 13h3M12 14h1M28 14h4M13 15h1M27 15h3M27 16h2" />
<path stroke="#b8a048" d="M11 14h1M12 15h1M30 15h1M12 16h2M29 16h2M29 17h1" />
<path stroke="#f8e080" d="M18 15h5M33 15h1M18 16h5M32 16h3M36 16h1M43 16h1M53 16h1M21 17h3M25 17h2M31 17h3M35 17h1M37 17h1M43 17h1M53 17h2M22 18h6M31 18h4M36 18h1M44 18h1M54 18h2M22 19h6M31 19h5M37 19h1M44 19h1M54 19h3M22 20h7M31 20h4M45 20h1M55 20h2M21 21h4M28 21h1M38 21h1M45 21h1M55 21h2M22 22h2M28 22h1M37 22h3M45 22h2M55 22h2M22 23h1M34 23h7M45 23h2M56 23h1M13 24h1M32 24h8M45 24h2M56 24h1M13 25h1M34 25h6M45 25h1M56 25h1M14 26h1M16 26h1M22 26h3M27 26h1M37 26h3M45 26h1M53 26h1M55 26h2M14 27h4M21 27h6M37 27h2M44 27h2M50 27h1M53 27h1M56 27h1M14 28h4M21 28h5M41 28h1M43 28h3M50 28h4M56 28h1M15 29h1M17 29h2M20 29h3M24 29h1M36 29h2M41 29h4M50 29h2M56 29h1M28 30h2M41 30h3M50 30h3M55 30h2M27 31h4M40 31h4M50 31h6M28 32h4M39 32h3M52 32h3M18 33h1M29 33h4M19 34h1M29 34h4M20 35h1M29 35h4M20 36h1M29 36h3M41 36h1M20 37h1M29 37h3M41 37h2M29 38h3M41 38h3M29 39h2M41 39h3M29 40h2M40 40h4M29 41h2M38 41h1M40 41h2M43 41h1M29 42h1M39 42h3M28 43h2M39 43h1M28 44h2M27 45h2M27 46h2M27 47h2M27 48h2M27 49h1M27 50h1M21 51h1M27 51h1M26 52h2M20 53h1M24 53h1M26 53h2M22 54h1M24 54h1M26 54h1" />
<path stroke="#a01000" d="M18 17h3M17 18h1M21 18h1M17 19h1M21 19h1M17 20h1M21 20h1M18 21h3M16 23h1M24 23h1M16 24h1M24 24h1" />
<path stroke="#f8f8f8" d="M18 18h2M18 19h1M15 23h1M25 23h1M15 24h1M23 24h1M25 24h1M15 25h1M23 25h1M25 25h1M37 43h1M40 44h1M45 44h1M19 54h1M23 55h1M27 55h1" />
<path stroke="#f05040" d="M20 18h1M20 19h1M19 20h1" />
<path stroke="#f8b898" d="M19 19h1M18 20h1M20 20h1" />
<path stroke="#d8d8d8" d="M15 22h1M25 22h2M26 23h1M26 24h1M16 25h1M26 25h1" />
</svg>