<svg xmlns="http://www.w3.org/2000/svg" viewBox="0 -0.5 64 64" shape-rendering="crispEdges">
<metadata>Made with Pixels to Svg https://codepen.io/shshaw/pen/XbxvNj</metadata>
<path stroke="#606890" d="M21 19h2M20 20h1M17 21h1M34 25h1M34 26h1M33 27h3M14 28h1M33 28h3M13 29h1M33 29h4M32 30h5M31 31h6M29 32h8M30 33h7M50 33h2M31 34h6M48 34h2M34 35h3M46 35h3M35 36h2M45 36h3M33 37h1M35 37h1M46 37h1M32 38h2M35 38h1M32 39h2M16 40h1M31 40h3M14 41h3M30 41h3M13 42h3M27 42h1M29 42h4M29 43h3" />
<path stroke="#405060" d="M23 19h5M19 20h1M28 20h1M18 21h1M30 21h1M17 22h1M26 22h3M18 23h1M25 23h1M29 23h1M18 24h1M24 24h1M30 24h1M18 25h1M24 25h1M30 25h1M17 26h1M19 26h3M24 26h1M30 26h1M35 26h1M14 27h3M18 27h1M22 27h1M25 27h1M29 27h1M17 28h1M23 28h1M26 28h3M36 28h1M17 29h1M19 29h2M23 29h1M37 29h1M13 30h1M17 30h1M23 30h1M48 30h1M13 31h1M18 31h5M13 32h1M13 33h1M13 34h1M14 35h1M31 35h3M37 35h1M14 36h1M30 36h1M34 36h1M44 36h1M9 37h2M15 37h1M30 37h1M34 37h1M42 37h4M11 38h2M15 38h1M29 38h1M40 38h5M13 39h1M16 39h1M29 39h1M35 39h1M37 39h6M14 40h2M17 40h1M28 40h1M19 41h1M28 41h1M33 41h1M12 42h1M20 42h2M28 42h1M13 43h1M22 43h2M31 44h1" />
<path stroke="#b0b8e0" d="M21 20h3M19 21h6M18 22h7M19 23h6M19 24h5M20 25h3M50 34h1M9 38h2M9 39h2M10 40h2" />
<path stroke="#8088b0" d="M24 20h4M25 21h5M25 22h1M29 22h3M30 23h3M31 24h3M19 25h1M23 25h1M31 25h3M18 26h1M22 26h2M31 26h3M17 27h1M23 27h2M30 27h3M15 28h2M24 28h2M29 28h4M14 29h3M24 29h9M14 30h2M26 30h6M14 31h1M28 31h3M14 32h1M31 36h3M31 37h2M30 38h2M11 39h2M30 39h2M12 40h2M29 40h2M11 41h3M29 41h1" />
<path stroke="#101010" d="M29 20h1M31 21h1M32 22h1M33 23h1M17 24h1M26 24h2M34 24h1M16 25h1M27 25h2M35 25h1M16 26h1M27 26h2M26 27h2M36 27h1M37 30h1M37 31h1M37 32h1M20 33h4M37 33h1M18 34h8M37 34h1M17 35h2M24 35h3M17 36h1M21 36h1M26 36h1M20 37h2M26 37h2M36 37h1M8 38h1M19 38h2M26 38h2M34 38h1M36 38h1M8 39h1M20 39h1M25 39h3M34 39h1M36 39h1M9 40h1M21 40h6M34 40h2M10 41h1M17 41h2M22 41h3M34 41h1M11 42h1M16 42h1M33 42h1M14 43h2M24 43h5M32 43h1M29 44h2" />
<path stroke="#606060" d="M16 22h1M25 25h2M14 26h1M26 26h1M50 29h3M46 31h1M45 32h1M56 32h1M19 33h1M24 33h1M44 33h1M56 33h1M17 34h1M26 34h1M43 34h1M56 34h1M16 35h1M42 35h1M16 36h1M20 36h1M22 36h1M27 36h1M40 36h2M55 36h1M16 37h2M19 37h1M22 37h2M38 37h2M54 37h1M22 38h2M37 38h1M53 38h1M19 39h1M51 39h2M20 40h1M36 40h1M49 40h2M21 41h1M25 41h1M37 41h3M46 41h3M40 42h6" />
<path stroke="#b8b8b8" d="M15 23h1M15 24h1M14 25h1M53 29h2M49 30h1M55 30h1M47 31h1M56 31h1M14 33h1M18 33h1M25 33h1M14 34h1M30 34h1M55 35h1M42 36h1M40 37h2M38 38h2M44 39h1M27 40h1M37 40h5M43 40h1M20 41h1M26 41h2M40 41h1M42 41h1M44 41h1M22 42h5" />
<path stroke="#f8f8f8" d="M16 23h2M26 23h3M16 24h1M25 24h1M28 24h2M15 25h1M17 25h1M29 25h1M15 26h1M25 26h1M29 26h1M28 27h1M24 30h1M50 30h4M16 31h2M23 31h4M48 31h7M15 32h13M47 32h9M15 33h3M26 33h2M46 33h1M48 33h1M52 33h4M15 34h2M45 34h1M47 34h1M51 34h5M19 35h5M50 35h5M18 36h2M24 36h1M48 36h7M47 37h7M47 38h6M46 39h1M48 39h3M47 40h2" />
<path stroke="#f8b8a8" d="M19 27h3M18 28h1" />
<path stroke="#f88878" d="M19 28h3M18 29h1M21 29h1" />
<path stroke="#e85848" d="M22 28h1M22 29h1M18 30h5" />
<path stroke="#d8d8d8" d="M16 30h1M25 30h1M54 30h1M15 31h1M27 31h1M55 31h1M28 32h1M46 32h1M28 33h2M45 33h1M47 33h1M49 33h1M27 34h3M44 34h1M46 34h1M15 35h1M27 35h4M43 35h3M49 35h1M15 36h1M23 36h1M25 36h1M28 36h2M43 36h1M18 37h1M24 37h2M28 37h2M16 38h3M21 38h1M24 38h2M28 38h1M45 38h2M17 39h2M21 39h4M28 39h1M43 39h1M45 39h1M47 39h1M18 40h2M42 40h1M44 40h3M41 41h1M43 41h1M45 41h1" />
</svg>