<svg xmlns="http://www.w3.org/2000/svg" viewBox="0 -0.5 64 64" shape-rendering="crispEdges">
<metadata>Made with Pixels to Svg https://codepen.io/shshaw/pen/XbxvNj</metadata>
<path stroke="#889040" d="M32 5h1M31 6h1M40 6h1M41 7h1M26 8h1M43 8h1M23 9h1M22 10h1M47 10h1M21 11h1M27 11h1M48 11h1M20 12h1M26 12h1M48 12h1M19 13h1M25 13h1M28 13h6M48 13h2M24 14h1M27 14h1M49 14h3M20 15h4M26 15h1M35 15h1M17 16h1M25 16h1M35 16h1M16 17h1M24 17h1M35 17h1M48 17h1M16 18h1M20 18h1M22 18h1M35 18h1M48 18h1M15 19h1M22 19h1M34 19h2M48 19h1M15 20h1M18 20h1M22 20h1M24 20h1M34 20h2M40 20h4M48 20h1M22 21h1M24 21h2M32 21h3M40 21h5M48 21h3M22 22h1M25 22h8M40 22h5M21 23h1M42 23h3M19 24h2M39 25h4M15 26h1M38 26h4M15 27h3M38 27h3M15 28h5M38 28h3M15 29h5M38 29h3M15 30h4M38 30h3M15 31h4M39 31h2M15 32h4M40 32h1M16 33h2M17 34h1M21 37h2M20 38h3M20 39h3M20 40h3M20 41h3M21 42h1M28 42h3M34 42h1M28 43h7M29 44h5M26 45h2M28 46h8" />
<path stroke="#485010" d="M33 5h4M29 6h2M37 6h3M28 7h1M36 7h2M42 7h1M27 8h2M35 8h1M44 8h1M45 9h4M46 10h1M49 10h2M47 11h1M51 11h1M52 12h1M19 14h1M18 15h2M19 16h1M52 16h3M19 17h1M23 17h1M54 17h2M23 18h1M54 18h2M23 19h1M54 19h3M23 20h1M54 20h3M53 21h3M53 22h2M15 25h1M14 26h1M14 27h1M14 28h1M14 29h1M14 30h1M14 31h1M57 31h1M14 32h1M57 32h1M57 33h1M56 34h2M15 35h1M38 35h1M40 35h1M56 35h1M15 36h1M18 36h1M40 36h1M44 36h1M55 36h2M15 37h1M18 37h1M41 37h1M49 37h1M54 37h2M18 38h1M35 38h2M42 38h1M49 38h1M52 38h3M48 39h2M55 39h1M40 40h4M46 40h3M54 40h2M39 41h1M54 41h1M39 42h1M39 43h1M28 45h6M39 46h2M28 47h13M29 48h10" />
<path stroke="#b0b860" d="M32 6h5M29 7h7M38 7h3M29 8h6M36 8h7M26 9h2M35 9h10M23 10h5M34 10h12M22 11h5M35 11h11M21 12h5M36 12h10M20 13h5M37 13h9M20 14h4M28 14h7M39 14h6M27 15h8M41 15h3M18 16h1M26 16h9M17 17h2M25 17h10M17 18h1M21 18h1M24 18h11M47 18h1M16 19h1M19 19h3M24 19h10M47 19h1M16 20h1M19 20h3M25 20h9M47 20h1M16 21h1M18 21h4M26 21h6M16 22h1M18 22h4M18 23h3M38 24h3M16 25h1M37 25h2M16 26h5M36 26h2M18 27h4M37 27h1M37 28h1M20 35h1M19 36h3M19 37h2M19 38h1M19 39h1M19 40h1" />
<path stroke="#606820" d="M24 9h2M28 9h1M30 9h4M28 10h2M31 10h2M48 10h1M28 11h2M34 11h1M46 11h1M49 11h2M27 12h1M34 12h2M46 12h1M49 12h3M26 13h1M35 13h2M46 13h1M50 13h2M25 14h1M36 14h3M45 14h2M52 14h1M24 15h1M37 15h4M44 15h3M20 16h4M36 16h1M39 16h8M49 16h3M36 17h1M43 17h3M49 17h5M18 18h1M36 18h2M40 18h3M49 18h5M17 19h1M36 19h2M39 19h6M49 19h5M17 20h1M36 20h2M39 20h1M44 20h2M49 20h5M15 21h1M35 21h3M39 21h1M45 21h1M51 21h2M15 22h1M24 22h1M33 22h5M39 22h1M45 22h1M22 23h1M24 23h1M32 23h5M41 23h1M45 23h1M55 23h2M18 24h1M21 24h1M34 24h2M43 24h3M55 24h3M17 25h1M56 25h2M56 26h2M57 27h1M20 28h2M20 29h1M19 30h2M19 31h1M38 31h1M56 31h1M19 32h1M38 32h2M56 32h1M18 33h2M39 33h2M55 33h2M18 34h2M54 34h2M16 35h1M18 35h1M39 35h1M52 35h4M16 36h2M38 36h2M45 36h2M51 36h4M16 37h2M38 37h3M44 37h5M51 37h3M17 38h1M38 38h3M44 38h5M23 39h1M32 39h6M45 39h3M23 40h2M31 40h7M23 41h2M30 41h8M40 41h5M22 42h3M26 42h2M31 42h3M35 42h3M40 42h5M22 43h3M27 43h1M35 43h2M40 43h4M28 44h1M34 44h2M40 44h4M37 45h3M42 45h1M27 46h1M36 46h3" />
<path stroke="#101010" d="M29 9h1M34 9h1M30 10h1M33 10h1M30 11h4M28 12h6M47 12h1M27 13h1M34 13h1M47 13h1M52 13h1M26 14h1M35 14h1M47 14h2M53 14h1M25 15h1M36 15h1M47 15h8M24 16h1M37 16h2M47 16h2M55 16h1M20 17h3M37 17h6M46 17h2M56 17h1M19 18h1M38 18h2M43 18h4M56 18h1M18 19h1M38 19h1M45 19h2M57 19h1M38 20h1M46 20h1M57 20h1M17 21h1M23 21h1M38 21h1M46 21h2M56 21h2M17 22h1M23 22h1M38 22h1M46 22h7M55 22h3M16 23h2M23 23h1M25 23h7M37 23h4M46 23h2M53 23h2M57 23h2M16 24h2M22 24h3M32 24h2M36 24h2M41 24h2M46 24h1M54 24h1M58 24h1M18 25h6M33 25h4M43 25h4M49 25h2M55 25h1M58 25h1M21 26h2M34 26h2M42 26h1M55 26h1M58 26h1M22 27h1M36 27h1M41 27h1M47 27h1M52 27h1M56 27h1M58 27h1M22 28h1M36 28h1M41 28h1M47 28h1M52 28h1M56 28h3M21 29h1M37 29h1M41 29h1M45 29h2M51 29h1M56 29h2M21 30h1M37 30h1M41 30h1M44 30h1M50 30h1M56 30h3M20 31h1M32 31h2M37 31h1M41 31h1M50 31h1M55 31h1M58 31h1M6 32h1M9 32h1M20 32h1M31 32h1M33 32h1M37 32h1M41 32h1M43 32h1M49 32h1M53 32h1M55 32h1M58 32h1M7 33h1M11 33h1M14 33h2M20 33h1M23 33h1M30 33h1M33 33h1M37 33h2M41 33h2M48 33h1M53 33h2M58 33h1M8 34h1M10 34h1M14 34h3M20 34h1M37 34h5M43 34h1M52 34h2M58 34h1M7 35h1M12 35h1M17 35h1M19 35h1M21 35h1M36 35h2M44 35h3M51 35h1M57 35h1M6 36h1M10 36h2M22 36h1M30 36h1M35 36h3M43 36h1M47 36h4M57 36h1M23 37h1M34 37h4M43 37h1M50 37h1M56 37h1M16 38h1M23 38h1M32 38h3M37 38h1M41 38h1M43 38h1M50 38h2M55 38h2M17 39h2M24 39h1M28 39h1M31 39h1M38 39h7M50 39h5M56 39h1M17 40h2M25 40h1M30 40h1M38 40h2M44 40h2M49 40h1M51 40h3M56 40h1M19 41h1M25 41h5M38 41h1M45 41h4M52 41h2M55 41h1M20 42h1M25 42h1M38 42h1M45 42h2M53 42h3M21 43h1M25 43h2M37 43h2M44 43h2M54 43h1M22 44h6M36 44h4M44 44h1M55 44h1M24 45h2M34 45h3M40 45h2M43 45h1M25 46h2M41 46h3M25 47h3M41 47h3M56 47h1M24 48h1M28 48h1M39 48h3M43 48h1M56 48h1M30 49h9M44 49h1M14 50h2M22 50h2M55 50h1M16 51h5M23 51h1M54 51h1M22 52h1M48 52h1M15 53h2M20 53h2M50 53h2M17 54h4M55 54h1M50 56h1M50 57h1M53 58h1" />
<path stroke="#988838" d="M48 23h1M52 23h1M12 24h1M31 24h1M47 24h1M53 24h1M8 25h1M11 25h1M47 25h1M53 25h2M7 26h1M33 26h1M46 26h1M48 26h1M51 26h1M53 26h2M6 27h1M35 27h1M46 27h1M53 27h3M6 28h1M8 28h1M35 28h1M45 28h2M51 28h1M54 28h2M35 29h2M50 29h1M52 29h1M54 29h2M6 30h1M34 30h3M45 30h2M52 30h1M54 30h2M6 31h1M12 31h2M34 31h3M44 31h3M51 31h2M54 31h1M11 32h3M23 32h1M34 32h3M46 32h1M50 32h3M54 32h1M12 33h2M34 33h3M47 33h1M49 33h4M33 34h4M48 34h2M32 35h4M28 36h1M31 36h4M29 37h5M26 38h6M26 39h2M29 39h2M27 40h3M50 40h1M16 41h1M18 41h1M49 41h3M19 42h1M47 42h3M15 43h1M20 43h1M46 43h2M21 44h1M45 44h2M14 45h1M21 45h3M44 45h2M13 46h1M21 46h4M44 46h2M55 46h1M20 47h5M44 47h2M55 47h1M20 48h4M44 48h3M55 48h1M19 49h4M45 49h2M53 49h3M18 50h4M46 50h2M52 50h3M22 51h1M45 51h1M47 51h7M20 52h2M45 52h2M49 52h4M46 53h3M53 53h2M47 54h7M50 55h1" />
<path stroke="#d0b058" d="M49 23h3M26 24h5M48 24h5M29 25h4M52 25h1M8 26h1M28 26h1M30 26h3M44 26h2M50 26h1M7 27h4M13 27h1M29 27h5M43 27h3M50 27h2M7 28h1M9 28h5M28 28h1M30 28h4M43 28h2M49 28h2M6 29h1M8 29h6M27 29h1M29 29h5M44 29h1M7 30h7M23 30h1M26 30h1M28 30h5M7 31h2M10 31h2M21 31h1M23 31h9M7 32h1M21 32h1M24 32h7M45 32h1M21 33h1M24 33h6M43 33h2M46 33h1M21 34h1M24 34h5M44 34h4M50 34h2M22 35h1M25 35h4M47 35h4M23 36h1M25 36h3M24 37h1M24 38h2M25 39h1M26 40h1M17 41h1M16 42h3M50 42h3M16 43h1M18 43h2M48 43h6M17 44h1M19 44h2M47 44h8M18 45h3M46 45h9M17 46h1M19 46h2M46 46h9M14 47h1M16 47h1M18 47h2M46 47h9M14 48h6M47 48h8M15 49h4M47 49h6M17 50h1M48 50h4" />
<path stroke="#584810" d="M13 24h3M25 24h1M9 25h2M24 25h1M48 25h1M51 25h1M23 26h1M47 26h1M52 26h1M34 27h1M34 28h1M53 28h1M5 29h1M7 29h1M22 29h1M34 29h1M47 29h1M53 29h1M5 30h1M22 30h1M33 30h1M47 30h1M51 30h1M53 30h1M5 31h1M9 31h1M22 31h1M47 31h1M53 31h1M5 32h1M8 32h1M10 32h1M44 32h1M47 32h1M8 33h1M10 33h1M45 33h1M12 34h2M29 34h1M24 35h1M29 35h1M24 36h1M29 36h1M25 37h4M16 40h1M15 42h1M14 44h1M55 45h1M56 46h1M13 47h1M13 48h1M14 49h1M23 49h1M56 49h1M16 50h1M44 50h2M21 51h1M44 51h1M46 51h1M18 52h2M44 52h1M47 52h1M53 52h2M45 53h1M49 53h1M52 53h1M55 53h1M46 54h1M54 54h1M47 55h3M51 55h2" />
<path stroke="#f0d878" d="M12 25h3M25 25h4M9 26h5M24 26h4M29 26h1M43 26h1M49 26h1M11 27h2M23 27h6M42 27h1M48 27h2M23 28h5M29 28h1M42 28h1M48 28h1M23 29h4M28 29h1M24 30h2M27 30h1M17 43h1M15 44h2M18 44h1M15 45h3M14 46h3M18 46h1M15 47h1M17 47h1" />
<path stroke="#808080" d="M42 29h2M48 29h2M5 33h1M5 34h1M5 35h1M9 35h1M9 36h1M13 51h1M13 52h3M17 53h1M53 55h1M55 55h1M47 56h1M53 56h1M56 56h1M48 57h1M51 57h1M54 57h2M49 58h2M52 58h1" />
<path stroke="#f8f8f8" d="M42 30h1M48 30h1M42 31h1M48 31h1M22 32h1M32 32h1M42 32h1M48 32h1M6 33h1M22 33h1M32 33h1M6 34h2M11 34h1M22 34h1M32 34h1M6 35h1M10 35h1M23 35h1M30 35h2M41 35h1M41 36h1M14 51h1M16 52h2M18 53h2M54 55h1M48 56h2M51 56h2M55 56h1M49 57h1M52 57h2" />
<path stroke="#c8c8c8" d="M43 30h1M49 30h1M43 31h1M49 31h1M42 34h1M11 35h1M42 35h2M42 36h1M42 37h1M15 51h1M54 56h1" />
<path stroke="#b00000" d="M31 33h1M23 34h1M30 34h2" />
</svg>