<svg xmlns="http://www.w3.org/2000/svg" viewBox="0 -0.5 64 64" shape-rendering="crispEdges">
<metadata>Made with Pixels to Svg https://codepen.io/shshaw/pen/XbxvNj</metadata>
<path stroke="#98a0b8" d="M23 7h1M22 8h1M47 8h1M21 9h1M50 9h1M42 10h1M18 11h4M41 11h1M14 12h1M23 12h1M40 12h1M49 12h1M13 13h1M44 13h2M52 13h1M37 14h1M47 14h2M36 15h1M50 15h1M55 15h2M35 16h1M9 17h1M47 18h1M36 19h1M48 19h1M51 19h1M12 20h1M39 20h2M54 20h1M12 21h1M28 21h1M39 21h1M55 21h1M58 22h1M9 23h1M40 23h1M20 24h1M39 24h1M51 24h2M59 24h1M40 25h1M49 25h1M59 25h1M29 26h1M43 26h1M13 27h1M30 28h1M10 29h2M14 29h1M47 29h2M10 30h1M31 30h1M32 31h1M33 32h1M10 33h1M35 33h1M9 34h1M38 34h1M40 35h1M0 36h5M11 36h2M43 36h1M0 37h1M5 37h1M1 38h1M8 38h1M2 39h1M11 39h1M47 40h3M60 41h1M6 43h2M13 43h2M59 43h1M9 44h4M58 45h1M57 46h1M52 47h3M56 47h1M17 48h1M50 48h6M10 49h1M15 49h2M48 49h7M10 50h2M14 50h2M47 50h7M45 51h8M12 52h1M43 52h8M41 53h8M38 54h8M35 55h8" />
<path stroke="#405080" d="M24 7h1M45 7h2M24 8h1M45 8h1M48 8h2M45 9h1M51 9h1M20 10h1M43 10h2M52 10h2M15 11h3M46 11h3M53 11h2M13 12h1M24 12h1M50 12h2M55 12h1M25 13h1M39 13h5M53 13h1M56 13h1M38 14h2M54 14h2M57 14h1M10 16h1M27 16h1M58 16h1M28 17h1M35 17h1M59 17h1M8 18h1M28 18h1M35 18h1M42 18h5M8 19h1M28 19h1M39 19h2M49 19h2M60 19h1M9 20h1M28 20h1M36 20h1M38 20h1M41 20h1M53 20h1M9 21h1M13 21h2M37 21h2M41 21h1M9 22h1M15 22h1M21 22h1M29 22h1M41 22h1M61 22h1M16 23h2M20 23h1M29 23h1M59 23h1M11 24h1M17 24h1M29 24h1M55 24h3M12 25h1M17 25h1M29 25h1M44 25h2M50 25h1M53 25h2M58 25h1M60 25h1M13 26h1M41 26h2M46 26h1M48 26h2M52 26h1M59 26h2M62 26h1M30 27h1M45 27h3M51 27h1M60 27h1M63 27h1M14 28h1M44 28h2M51 28h1M60 28h1M31 29h1M44 29h1M51 29h2M60 29h1M12 30h2M15 30h1M45 30h2M49 30h2M60 30h1M11 31h1M14 31h1M59 31h1M11 32h1M34 32h1M59 32h1M16 33h1M36 33h2M58 33h1M39 34h1M58 34h1M9 35h1M16 35h1M41 35h2M57 35h1M15 36h1M44 36h1M56 36h1M62 36h1M6 37h2M15 37h1M45 37h2M54 37h2M9 38h2M12 38h1M15 38h1M47 38h2M52 38h2M12 39h4M49 39h3M61 39h1M2 40h1M14 40h4M3 41h1M18 41h2M3 42h1M60 42h1M2 43h1M18 43h1M2 44h1M17 44h1M21 44h1M59 44h1M2 45h1M15 45h2M21 45h1M2 46h1M14 46h2M21 46h1M11 47h3M20 47h1M4 48h1M10 48h1M6 49h1M19 50h1M12 51h2M11 52h1M13 52h2M18 52h1M51 52h1M12 53h1M14 53h2M22 53h1M49 53h1M25 54h1M46 54h1M28 55h1M43 55h1M29 56h4M40 56h3" />
<path stroke="#e0e0f0" d="M23 8h1M22 9h1M21 10h2M51 10h1M22 11h1M42 11h4M52 11h1M15 12h1M18 12h5M41 12h8M54 12h1M14 13h1M19 13h6M46 13h6M54 13h2M14 14h1M19 14h7M49 14h5M56 14h1M13 15h2M17 15h10M51 15h4M57 15h1M13 16h6M22 16h5M52 16h2M56 16h2M13 17h5M23 17h5M54 17h2M58 17h1M9 18h3M14 18h4M23 18h5M55 18h2M59 18h1M9 19h10M22 19h6M41 19h7M56 19h2M59 19h1M13 20h15M42 20h11M57 20h1M60 20h1M15 21h13M42 21h13M58 21h1M16 22h5M22 22h7M47 22h11M59 22h1M21 23h8M45 23h1M52 23h7M60 23h2M16 24h1M21 24h8M43 24h1M48 24h3M58 24h1M60 24h1M16 25h1M20 25h9M41 25h3M46 25h3M61 25h1M16 26h1M19 26h10M47 26h1M61 26h1M16 27h14M61 27h2M17 28h13M61 28h2M17 29h14M61 29h2M11 30h1M19 30h12M61 30h2M12 31h2M19 31h13M61 31h2M12 32h3M19 32h13M60 32h3M19 33h11M59 33h4M14 34h2M20 34h8M59 34h3M13 35h3M20 35h12M37 35h3M58 35h4M14 36h1M20 36h23M58 36h4M14 37h1M20 37h25M58 37h1M60 37h2M2 38h3M13 38h2M21 38h26M57 38h1M59 38h1M3 39h3M22 39h2M25 39h24M58 39h1M60 39h1M3 40h7M21 40h1M24 40h3M28 40h19M59 40h1M4 41h14M23 41h1M27 41h2M30 41h17M5 42h14M26 42h1M29 42h1M31 42h13M8 43h5M15 43h3M19 43h1M28 43h1M30 43h2M33 43h7M18 44h2M29 44h1M32 44h5M17 45h3M16 46h3M14 47h5M11 48h6M12 49h3M13 50h1" />
<path stroke="#f8f8f8" d="M46 8h1M46 9h4M45 10h6M49 11h3M16 12h2M52 12h2M15 13h4M12 14h1M15 14h4M15 15h2M54 16h2M10 17h3M19 17h1M56 17h2M57 18h2M58 19h1M58 20h2M10 21h1M59 21h2M10 22h1M60 22h1M46 23h6M18 24h1M44 24h4M61 24h1M18 25h1M32 32h1M30 33h5M28 34h10M32 35h5M1 37h4M5 38h3M6 39h5M10 40h4" />
<path stroke="#c0c8e8" d="M23 9h1M23 10h1M23 11h1M13 14h1M40 14h7M37 15h13M36 16h16M36 17h18M36 18h6M48 18h7M37 19h2M52 19h4M37 20h1M55 20h2M56 21h2M12 22h3M42 22h5M12 23h4M41 23h4M12 24h4M40 24h3M53 24h2M13 25h3M51 25h2M14 26h2M50 26h2M14 27h2M48 27h3M15 28h2M46 28h5M15 29h2M45 29h2M49 29h2M16 30h3M16 31h3M60 31h1M16 32h3M11 33h5M17 33h2M10 34h4M17 34h3M62 34h1M10 35h1M17 35h3M62 35h1M16 36h4M57 36h1M16 37h4M56 37h2M59 37h1M16 38h5M54 38h3M58 38h1M60 38h2M16 39h6M24 39h1M52 39h6M59 39h1M18 40h3M22 40h2M27 40h1M50 40h9M60 40h1M20 41h3M24 41h3M29 41h1M47 41h13M4 42h1M19 42h7M27 42h2M30 42h1M44 42h16M3 43h3M20 43h8M29 43h1M32 43h1M40 43h19M3 44h6M13 44h4M20 44h1M22 44h7M30 44h2M37 44h22M3 45h12M20 45h1M22 45h36M3 46h11M19 46h2M22 46h35M4 47h7M19 47h1M21 47h31M55 47h1M6 48h4M18 48h2M21 48h29M8 49h1M17 49h3M21 49h27M16 50h3M20 50h27M14 51h5M20 51h25M15 52h3M19 52h1M21 52h22M16 53h1M19 53h2M23 53h18M26 54h12M29 55h6" />
<path stroke="#101010" d="M24 9h1M24 10h1M24 11h1M12 13h1M26 14h1M11 15h2M27 15h1M58 15h1M11 16h2M20 16h2M59 16h1M21 17h2M12 18h2M20 18h3M60 18h1M19 19h3M10 20h2M61 20h1M61 21h1M11 23h1M18 23h2M62 23h1M10 24h1M62 24h1M19 25h1M62 25h1M17 26h2M63 28h1M63 29h1M63 30h1M15 31h1M63 31h1M15 32h1M63 32h1M63 33h1M16 34h1M63 34h1M11 35h2M63 35h1M10 36h1M13 36h1M13 37h1M62 37h1M62 38h1M61 40h1M61 41h1M60 43h1M59 45h1M58 46h1M3 47h1M57 47h1M5 48h1M20 48h1M56 48h1M7 49h1M9 49h1M11 49h1M20 49h1M55 49h1M8 50h2M12 50h1M54 50h1M19 51h1M53 51h1M20 52h1M52 52h1M11 53h1M13 53h1M17 53h2M21 53h1M50 53h1M11 54h2M15 54h2M23 54h2M47 54h2M26 55h2M44 55h2M33 56h7" />
<path stroke="#807878" d="M11 14h1M19 16h1M18 17h1M20 17h1M18 18h2" />
<path stroke="#d0c8c8" d="M11 21h1M11 22h1M10 23h1M19 24h1" />
</svg>