<svg xmlns="http://www.w3.org/2000/svg" viewBox="0 -0.5 64 64" shape-rendering="crispEdges">
<metadata>Made with Pixels to Svg https://codepen.io/shshaw/pen/XbxvNj</metadata>
<path stroke="#d0a8c8" d="M53 7h2M36 8h5M48 8h1M52 8h4M34 9h3M40 9h2M46 9h5M52 9h4M33 10h3M41 10h2M45 10h2M50 10h2M53 10h2M13 11h1M15 11h3M33 11h2M40 11h1M42 11h1M44 11h2M51 11h3M55 11h1M12 12h7M31 12h4M39 12h1M41 12h2M44 12h2M50 12h3M54 12h1M11 13h3M15 13h1M17 13h3M27 13h9M38 13h1M40 13h3M44 13h2M49 13h1M51 13h3M11 14h2M14 14h1M19 14h1M25 14h9M35 14h7M45 14h2M50 14h1M52 14h1M10 15h2M13 15h1M19 15h2M24 15h3M28 15h2M32 15h2M35 15h1M39 15h4M45 15h5M51 15h1M53 15h1M10 16h3M19 16h2M23 16h3M27 16h2M32 16h3M40 16h1M42 16h4M48 16h5M11 17h1M13 17h1M19 17h2M22 17h5M28 17h1M33 17h2M41 17h1M43 17h2M48 17h4M11 18h2M14 18h1M18 18h1M22 18h3M28 18h7M36 18h1M43 18h3M47 18h2M50 18h2M12 19h2M15 19h1M17 19h1M19 19h5M37 19h1M42 19h1M44 19h4M49 19h1M51 19h2M13 20h6M21 20h1M36 20h1M41 20h1M43 20h4M48 20h1M52 20h2M17 21h1M42 21h6M53 21h1M16 22h2M43 22h1M46 22h1M53 22h1M16 23h1M43 23h1M46 23h2M53 23h1M16 24h1M43 24h4M52 24h2M15 25h2M43 25h3M47 25h1M51 25h2M15 26h1M42 26h1M44 26h3M48 26h1M50 26h3M10 27h2M14 27h2M43 27h3M47 27h1M49 27h2M9 28h4M14 28h2M43 28h7M9 29h1M11 29h1M13 29h2M44 29h6M8 30h3M13 30h1M44 30h5M50 30h1M8 31h2M11 31h1M44 31h6M9 32h2M12 32h1M45 32h4M50 32h1M11 33h1M45 33h3M49 33h1M9 34h3M45 34h2M48 34h1M9 35h2M12 35h1M44 35h3M49 35h1M10 36h2M44 36h3M48 36h1M8 37h1M11 37h2M43 37h5M49 37h1M7 38h1M9 38h1M12 38h2M43 38h1M45 38h2M48 38h1M7 39h1M9 39h1M12 39h2M44 39h3M8 40h2M13 40h1M43 40h1M45 40h1M13 41h2M42 41h1M44 41h1M47 41h3M13 42h1M43 42h9M12 43h2M42 43h5M50 43h3M11 44h2M14 44h1M43 44h3M51 44h2M11 45h2M44 45h1M52 45h1M12 46h2M16 46h1M41 46h4M49 46h1M51 46h3M11 47h1M13 47h5M40 47h3M44 47h1M48 47h1M50 47h1M52 47h1M12 48h1M14 48h2M17 48h2M39 48h3M45 48h1M49 48h1M51 48h3M18 49h1M37 49h4M45 49h2M48 49h1M50 49h3M17 50h2M34 50h6M43 50h1M46 50h6M16 51h2M33 51h5M41 51h2M44 51h1M48 51h1M50 51h1M16 52h2M21 52h3M27 52h3M34 52h2M38 52h1M40 52h4M45 52h1M17 53h1M20 53h2M23 53h9M35 53h3M39 53h4M44 53h1M18 54h3M23 54h4M28 54h1M31 54h8M41 54h3M24 55h2M27 55h1M32 55h1M34 55h1M36 55h3M26 56h1M28 56h1M33 56h1M35 56h1M37 56h1M36 57h1" />
<path stroke="#b890b0" d="M37 9h3M36 10h5M47 10h3M35 11h5M41 11h1M46 11h5M35 12h4M40 12h1M46 12h4M14 13h1M16 13h1M36 13h2M39 13h1M46 13h3M50 13h1M13 14h1M15 14h4M47 14h3M51 14h1M12 15h1M14 15h5M27 15h1M36 15h3M50 15h1M13 16h6M26 16h1M35 16h5M41 16h1M12 17h1M14 17h5M27 17h1M35 17h6M42 17h1M13 18h1M15 18h3M19 18h1M25 18h3M35 18h1M37 18h6M49 18h1M14 19h1M16 19h1M18 19h1M24 19h13M38 19h4M43 19h1M48 19h1M50 19h1M19 20h2M22 20h2M25 20h1M28 20h2M31 20h1M33 20h1M35 20h1M37 20h4M42 20h1M47 20h1M49 20h3M18 21h2M21 21h2M24 21h1M26 21h1M30 21h1M32 21h1M34 21h8M48 21h5M18 22h1M20 22h1M22 22h2M25 22h1M34 22h3M38 22h5M47 22h6M17 23h3M23 23h1M35 23h1M37 23h1M39 23h4M48 23h5M17 24h2M36 24h1M38 24h1M40 24h3M47 24h5M17 25h2M39 25h4M46 25h1M48 25h3M16 26h2M39 26h3M43 26h1M47 26h1M49 26h1M16 27h2M40 27h2M46 27h1M48 27h1M16 28h1M41 28h2M10 29h1M12 29h1M15 29h1M40 29h1M42 29h2M11 30h2M14 30h2M41 30h1M43 30h1M10 31h1M12 31h3M40 31h1M42 31h2M11 32h1M13 32h2M41 32h1M43 32h2M10 33h1M12 33h3M43 33h2M12 34h3M43 34h2M11 35h1M13 35h2M42 35h2M12 36h3M42 36h2M13 37h2M42 37h1M8 38h1M14 38h1M42 38h1M44 38h1M8 39h1M14 39h1M41 39h3M14 40h2M41 40h2M44 40h1M15 41h1M41 41h1M43 41h1M14 42h1M41 42h2M14 43h1M40 43h2M47 43h3M13 44h1M15 44h1M39 44h4M46 44h5M13 45h5M38 45h6M45 45h7M14 46h2M17 46h2M37 46h4M45 46h4M50 46h1M18 47h2M36 47h4M45 47h3M49 47h1M51 47h1M19 48h1M21 48h1M35 48h4M46 48h3M50 48h1M20 49h1M22 49h1M32 49h1M34 49h3M47 49h1M49 49h1M19 50h1M21 50h1M23 50h1M25 50h1M27 50h1M29 50h1M31 50h1M33 50h1M18 51h7M26 51h5M32 51h1M18 52h3M24 52h3M30 52h4M18 53h2M32 53h3" />
<path stroke="#886080" d="M24 20h1M26 20h2M30 20h1M32 20h1M34 20h1M20 21h1M23 21h1M25 21h1M27 21h3M31 21h1M33 21h1M19 22h1M21 22h1M24 22h1M26 22h8M37 22h1M20 23h3M24 23h11M36 23h1M38 23h1M19 24h17M37 24h1M39 24h1M19 25h6M31 25h8M18 26h5M25 26h3M29 26h1M33 26h6M18 27h3M23 27h4M28 27h1M35 27h5M42 27h1M17 28h3M22 28h6M29 28h1M36 28h5M16 29h3M23 29h3M28 29h1M37 29h3M41 29h1M16 30h2M38 30h3M42 30h1M15 31h1M17 31h1M35 31h1M38 31h2M41 31h1M15 32h1M34 32h1M36 32h1M39 32h2M42 32h1M15 33h1M18 33h1M33 33h1M39 33h4M19 34h1M31 34h2M40 34h3M30 35h1M40 35h2M40 36h2M40 37h2M15 38h1M40 38h2M15 39h1M27 39h1M40 39h1M16 40h1M39 40h2M16 41h1M39 41h2M15 42h3M38 42h3M15 43h3M22 43h1M30 43h1M38 43h2M16 44h3M37 44h2M18 45h2M36 45h2M19 46h2M35 46h2M20 47h3M33 47h3M20 48h1M22 48h3M31 48h4M19 49h1M21 49h1M23 49h9M33 49h1M20 50h1M22 50h1M24 50h1M26 50h1M28 50h1M30 50h1M32 50h1M25 51h1M31 51h1" />
<path stroke="#503058" d="M25 25h4M24 26h1M22 27h1M20 28h1M33 28h2M19 29h1M32 29h4M18 30h1M20 30h1M32 30h5M16 31h1M19 31h1M21 31h1M31 31h4M36 31h1M16 32h3M20 32h1M22 32h1M30 32h4M37 32h1M16 33h1M19 33h1M21 33h1M23 33h1M28 33h5M37 33h1M15 34h1M20 34h11M37 34h2M15 35h1M21 35h2M24 35h1M26 35h3M37 35h2M15 36h1M22 36h1M24 36h1M26 36h2M37 36h2M15 37h1M20 37h1M24 37h1M30 37h1M36 37h3M16 38h1M23 38h4M36 38h3M16 39h1M23 39h4M36 39h3M17 40h2M22 40h7M35 40h3M18 41h12M34 41h4M19 42h15M36 42h1M23 43h7M35 43h2M34 44h2M33 45h2M32 46h1M25 47h6" />
<path stroke="#101010" d="M29 25h2M23 26h1M31 26h2M21 27h1M33 27h2M35 28h1M36 29h1M37 30h1M18 31h1M37 31h1M38 32h1M38 33h1M39 34h1M39 35h1M39 36h1M39 37h1M39 38h1M39 39h1M38 40h1M17 41h1M38 41h1M18 42h1M37 42h1M18 43h1M37 43h1M19 44h1M36 44h1M20 45h1M35 45h1M21 46h2M33 46h2M23 47h2M31 47h2M25 48h6" />
<path stroke="#704868" d="M28 26h1M30 26h1M27 27h1M29 27h4M21 28h1M28 28h1M30 28h3M20 29h3M26 29h2M29 29h3M19 30h1M21 30h11M20 31h1M22 31h9M19 32h1M21 32h1M23 32h7M20 33h1M22 33h1M24 33h4M34 42h1M30 46h2" />
<path stroke="#d8d8d8" d="M35 32h1M17 33h1M34 33h1M36 33h1M18 34h1M33 34h1M19 35h1M31 35h1M20 36h1M29 36h1M36 36h1M16 37h1M21 37h1M28 37h1M22 38h1M27 38h1M35 38h1M17 39h1M21 39h1M28 39h1M34 39h1M19 40h2M29 40h1M33 40h1M21 43h1M32 43h1" />
<path stroke="#f8f8f8" d="M35 33h1M16 34h2M34 34h3M16 35h3M32 35h5M16 36h4M30 36h6M17 37h3M29 37h1M31 37h5M17 38h5M28 38h7M18 39h3M29 39h5M30 40h3M20 43h1M31 43h1M20 44h1M32 44h1" />
<path stroke="#b02810" d="M20 35h1M23 35h1M25 35h1M29 35h1M21 36h1M28 36h1M22 37h1M26 37h2M35 42h1M19 43h1M33 43h2M21 44h11M21 45h3" />
<path stroke="#d85038" d="M23 36h1M25 36h1M23 37h1M25 37h1M22 39h1M35 39h1M21 40h1M34 40h1M30 41h4M33 44h1M24 45h9M23 46h7" />
</svg>