<svg xmlns="http://www.w3.org/2000/svg" viewBox="0 -0.5 40 30" shape-rendering="crispEdges">
<metadata>Made with Pixels to Svg https://codepen.io/shshaw/pen/XbxvNj</metadata>
<path stroke="#313131" d="M16 12h1M15 13h1M17 13h1M19 13h3M15 14h1M17 14h2M22 14h1M15 15h1M22 15h1M14 16h1M22 16h1M14 17h1M23 17h1M13 18h1M21 18h1M23 18h1M13 19h1M20 19h2M23 19h1M13 20h1M23 20h1M25 20h1M14 21h1M22 21h1M26 21h1M15 22h1M22 22h1M26 22h1M16 23h1M22 23h1M26 23h1M17 24h1M21 24h1M25 24h1M18 25h1M25 25h1M19 26h1M23 26h2M20 27h3" />
<path stroke="#b53a29" d="M16 13h1M16 14h1M16 15h1M20 15h1" />
<path stroke="#e64a29" d="M19 14h3M17 15h3M17 16h1" />
<path stroke="#525252" d="M21 15h1M16 16h1M18 16h3M16 17h2M17 21h1M21 21h1M24 21h1M16 22h5M24 22h1M23 23h2M23 24h1M19 25h2M24 25h1" />
<path stroke="#9cce4a" d="M15 16h1M21 16h1M15 17h1M18 17h2M22 17h1M16 18h3M14 19h2M17 19h2M15 20h2M19 23h2" />
<path stroke="#f7e629" d="M20 17h2M19 18h1M22 18h1M19 19h1" />
<path stroke="#7b9c4a" d="M14 18h2M16 19h1M18 20h2M22 20h1M18 21h3M21 22h1M21 23h1M20 24h1M22 24h1M24 24h1M21 25h3M22 26h1" />
<path stroke="#000000" d="M20 18h1" />
<path stroke="#d6bd29" d="M22 19h1M20 20h2" />
<path stroke="#637b31" d="M14 20h1M17 20h1M15 21h2" />
<path stroke="#e6ce63" d="M25 21h1M25 22h1M17 23h2M18 24h2" />
<path stroke="#bda55a" d="M25 23h1M20 26h2" />
</svg>