<svg xmlns="http://www.w3.org/2000/svg" viewBox="0 -0.5 40 30" shape-rendering="crispEdges">
<metadata>Made with Pixels to Svg https://codepen.io/shshaw/pen/XbxvNj</metadata>
<path stroke="#313131" d="M20 4h2M14 5h3M19 5h1M21 5h1M14 6h1M17 6h1M19 6h1M21 6h1M23 6h2M15 7h1M18 7h1M20 7h1M22 7h1M25 7h1M13 8h3M20 8h2M26 8h2M12 9h1M28 9h1M13 10h2M27 10h1M15 11h1M27 11h1M14 12h3M28 12h1M13 13h1M26 13h2M12 14h1M25 14h1M13 15h1M26 15h1M13 16h1M27 16h1M12 17h1M19 17h1M24 17h1M27 17h1M13 18h1M27 18h1M14 19h2M27 19h1M16 20h1M26 20h1M15 21h1M23 21h3M14 22h1M23 22h1M14 23h1M24 23h1M14 24h1M25 24h1M15 25h5M25 25h1M20 26h1M25 26h1M21 27h4" />
<path stroke="#7bd663" d="M20 5h1M20 6h1M24 7h1M26 9h2" />
<path stroke="#4a845a" d="M15 6h1M16 7h2M23 7h1M17 8h1M13 9h4M19 9h1M22 9h1M24 9h1M16 10h2M19 10h3M25 10h1M17 11h4M18 12h3M22 12h1M24 12h1M18 13h4M23 13h2M21 14h2" />
<path stroke="#525252" d="M16 6h1M16 8h1M18 8h1M24 8h2M17 9h2M20 9h1M23 9h1M15 10h1M18 10h1M22 10h1M26 10h1M16 11h1M21 11h1M24 11h3M17 12h1M23 12h1M16 13h2M22 13h1M25 13h1M17 14h4M23 14h2M16 15h1M21 15h2M15 16h1M21 16h1M15 17h1M14 18h1M21 19h1M21 20h2M16 21h5M16 22h1M22 22h1M16 23h1M21 23h1M15 24h1M17 24h1M20 24h1M20 25h1M24 26h1" />
<path stroke="#52b573" d="M19 7h1M19 8h1M22 8h2M21 9h1M25 9h1M23 10h2M22 11h2M21 12h1M25 12h3" />
<path stroke="#b59463" d="M14 13h1M13 14h1M17 15h1M20 15h1M16 16h1M18 16h2M26 19h1M17 22h4M18 24h2M21 24h3M24 25h1" />
<path stroke="#ceb573" d="M15 13h1M14 14h3M14 15h2M25 15h1M14 16h1M20 16h1M23 16h2M13 17h2M22 19h1M19 20h1M23 20h2" />
<path stroke="#f7ef8c" d="M18 15h2M23 15h2M17 16h1M22 16h1M25 16h1M16 17h2M22 17h1M25 17h2M15 18h6M22 18h4M20 19h1M23 19h1" />
<path stroke="#8c6b4a" d="M26 16h1M21 17h1M21 18h1M20 20h1M25 20h1M21 21h2M15 22h1M21 22h1M15 23h1M17 23h4M22 23h2M16 24h1M24 24h1M21 25h3M22 26h1" />
<path stroke="#ffffff" d="M18 17h1M20 17h1M23 17h1M18 19h1M21 26h1M23 26h1" />
<path stroke="#ef7373" d="M26 18h1M16 19h2M19 19h1M24 19h2M17 20h2" />
</svg>