<svg xmlns="http://www.w3.org/2000/svg" viewBox="0 -0.5 40 30" shape-rendering="crispEdges">
<metadata>Made with Pixels to Svg https://codepen.io/shshaw/pen/XbxvNj</metadata>
<path stroke="#313131" d="M16 6h2M16 7h1M18 7h1M25 7h1M16 8h1M18 8h1M26 8h1M13 9h2M16 9h1M19 9h1M24 9h1M27 9h1M11 10h2M14 10h1M16 10h1M19 10h3M24 10h1M27 10h1M10 11h1M13 11h1M17 11h2M22 11h2M27 11h2M10 12h1M13 12h1M16 12h1M28 12h1M9 13h1M12 13h1M17 13h1M21 13h1M27 13h1M8 14h1M11 14h1M17 14h1M21 14h1M27 14h1M8 15h1M11 15h1M16 15h1M20 15h1M26 15h1M9 16h1M11 16h1M16 16h1M24 16h2M9 17h1M12 17h1M17 17h1M23 17h1M9 18h1M13 18h2M18 18h1M23 18h3M10 19h1M15 19h3M26 19h2M11 20h1M28 20h1M12 21h2M29 21h1M14 22h3M29 22h1M16 23h1M29 23h1M16 24h1M28 24h1M17 25h1M27 25h1M18 26h2M25 26h2M20 27h5" />
<path stroke="#bdbdbd" d="M17 7h1M17 8h1M17 9h2M18 10h1M26 11h1M18 12h1M25 13h1M25 15h1M21 18h1M21 19h1M12 20h2M14 21h3M20 21h1M17 24h1M20 24h1M27 24h1M18 25h4M25 25h2M20 26h5" />
<path stroke="#ffffff" d="M25 8h1M25 9h2M25 10h2M11 11h1M24 11h2M17 12h1M24 12h2M27 12h1M18 13h1M23 13h2M26 13h1M9 14h1M20 14h1M23 14h4M24 15h1M11 19h1M20 19h1M19 20h2M18 21h2M17 22h3M17 23h3M18 24h2" />
<path stroke="#7badff" d="M13 10h1M19 11h3M20 12h3M19 13h2M19 14h1M17 15h3M17 16h5M10 17h2M18 17h3M11 18h2" />
<path stroke="#848473" d="M17 10h1M26 12h1" />
<path stroke="#4a84ce" d="M12 11h1M11 12h1M19 12h1M10 14h1M18 14h1M9 15h1M22 15h1M22 16h1M22 17h1M10 18h1M22 18h1M12 19h3M18 19h1M23 19h3M14 20h4M21 20h1M23 20h5M22 21h7M20 22h1M22 22h3M26 22h3M20 23h2M25 23h4M21 24h6M22 25h3" />
<path stroke="#425aad" d="M12 12h1M10 15h1M25 22h1M23 23h2" />
<path stroke="#525252" d="M23 12h1M10 13h2M22 13h1M22 14h1M23 15h1M10 16h1M23 16h1M21 17h1M19 18h2M19 19h1M22 19h1M18 20h1M22 20h1M17 21h1M21 21h1M21 22h1M22 23h1" />
<path stroke="#9c4252" d="M21 15h1" />
</svg>