<svg xmlns="http://www.w3.org/2000/svg" viewBox="0 -0.5 40 30" shape-rendering="crispEdges">
<metadata>Made with Pixels to Svg https://codepen.io/shshaw/pen/XbxvNj</metadata>
<path stroke="#313131" d="M16 10h2M15 11h2M20 11h2M14 12h2M18 12h3M14 13h6M14 14h2M18 14h4M13 15h1M18 15h1M22 15h2M12 16h1M24 16h1M12 17h2M20 17h1M25 17h1M12 18h1M19 18h2M26 18h1M12 19h1M26 19h1M13 20h1M27 20h1M13 21h1M26 21h2M13 22h1M27 22h1M14 23h2M27 23h1M16 24h1M26 24h1M16 25h1M19 25h1M27 25h1M17 26h2M20 26h5M27 26h1M25 27h2" />
<path stroke="#ff9442" d="M16 14h2M15 15h3M19 15h1M15 16h4M15 17h3M14 18h4M22 21h1M23 22h1" />
<path stroke="#d66342" d="M14 15h1M20 15h1M21 16h1M23 17h2M25 18h1M13 19h1M17 19h2M21 19h1M19 20h2M26 20h1M23 23h1M24 24h1" />
<path stroke="#8c3a21" d="M21 15h1M22 16h1M22 17h1M22 18h1M25 19h1" />
<path stroke="#525252" d="M13 16h1M23 16h1M23 18h2M14 19h1M22 19h1M21 20h1M25 20h1M14 21h1M19 21h2M23 21h3M16 22h2M16 23h1M24 23h1M17 24h1M25 24h1M18 25h1M23 25h1" />
<path stroke="#ffffff" d="M14 16h1M14 17h1M19 17h1M13 18h1M18 18h1M21 18h1M19 19h2M23 19h1M23 20h1M25 22h1M25 23h1M25 25h1M25 26h1" />
<path stroke="#bdd6d6" d="M19 16h2M18 17h1M21 17h1M24 19h1M24 20h1M14 22h1M26 22h1M26 23h1M17 25h1M26 25h1M26 26h1" />
<path stroke="#7b6b31" d="M15 19h2M17 20h2M21 21h1M18 22h1M22 22h1M22 23h1M23 24h1" />
<path stroke="#efef7b" d="M14 20h3M15 21h4M19 22h3M17 23h1M19 23h3M18 24h1M20 24h3M21 25h1" />
<path stroke="#636be6" d="M22 20h1M15 22h1M24 22h1M24 25h1" />
<path stroke="#bda542" d="M18 23h1M19 24h1M20 25h1M22 25h1" />
</svg>