<svg xmlns="http://www.w3.org/2000/svg" viewBox="0 -0.5 40 30" shape-rendering="crispEdges">
<metadata>Made with Pixels to Svg https://codepen.io/shshaw/pen/XbxvNj</metadata>
<path stroke="#313131" d="M16 12h4M15 13h1M19 13h2M14 14h1M21 14h1M14 15h1M21 15h2M13 16h1M22 16h1M13 17h1M22 17h1M13 18h1M17 18h1M22 18h1M14 19h1M16 19h1M22 19h1M14 20h1M21 20h1M15 21h1M22 21h1M24 21h2M16 22h4M23 22h1M26 22h1M20 23h1M26 23h1M21 24h1M25 24h1M22 25h1M26 25h1M23 26h1M26 26h1M24 27h2" />
<path stroke="#525252" d="M16 13h1M17 14h2M19 15h1M20 16h1M16 17h1M20 17h1M20 18h1M17 19h1M20 19h1M20 20h1M19 21h1M21 21h1M22 22h1M24 22h1M23 23h1M25 23h1M24 24h1M25 25h1" />
<path stroke="#848484" d="M17 13h2M15 14h2M20 14h1M17 17h1M21 18h1M21 19h1M20 21h1M21 22h1M25 22h1M22 23h1M24 23h1M23 24h1M24 25h1M25 26h1" />
<path stroke="#a5a5a5" d="M19 14h1M20 15h1M21 16h1M21 17h1M16 18h1M15 20h1M16 21h1" />
<path stroke="#6b6b6b" d="M15 15h1M14 16h1M14 17h1M14 18h1M20 22h1M21 23h1M22 24h1M23 25h1M24 26h1" />
<path stroke="#cecece" d="M16 15h1M18 15h1M15 16h1M19 16h1M19 20h1M18 21h1" />
<path stroke="#ffffff" d="M17 15h1M16 16h3M15 17h1M18 17h2M15 18h1M18 18h2M15 19h1M18 19h2M16 20h3M17 21h1" />
</svg>