<svg xmlns="http://www.w3.org/2000/svg" viewBox="0 -0.5 40 30" shape-rendering="crispEdges">
<metadata>Made with Pixels to Svg https://codepen.io/shshaw/pen/XbxvNj</metadata>
<path stroke="#313131" d="M16 8h2M26 8h2M15 9h1M17 9h1M25 9h1M28 9h1M15 10h1M17 10h1M25 10h1M28 10h2M14 11h1M17 11h1M22 11h3M30 11h1M14 12h1M17 12h1M20 12h2M30 12h1M13 13h2M16 13h1M19 13h1M29 13h1M12 14h1M17 14h2M28 14h1M11 15h1M27 15h1M11 16h1M21 16h2M26 16h1M10 17h1M17 17h1M21 17h1M23 17h1M27 17h1M10 18h1M16 18h1M22 18h1M24 18h1M27 18h1M11 19h1M23 19h1M26 19h1M10 20h1M25 20h1M11 21h3M26 21h1M14 22h1M25 22h1M14 23h1M24 23h1M15 24h1M24 24h1M16 25h3M23 25h1M19 26h2M22 26h1M20 27h2" />
<path stroke="#525252" d="M16 9h1M26 9h2M16 10h1M26 10h2M26 11h4M22 12h3M26 12h4M15 13h1M22 13h2M26 13h2M22 14h1M21 15h1M17 18h1M21 19h2M12 20h1M20 20h2M23 20h1M18 21h1M21 21h4M17 22h1M20 22h3M24 22h1M15 23h7M23 23h1M16 24h1M19 24h1M23 24h1M22 25h1M21 26h1" />
<path stroke="#c5a529" d="M15 11h2M25 11h1M15 12h1M25 12h1M24 13h2M28 13h1M23 14h5M22 15h5M23 16h3M12 17h1M24 17h3M25 18h2M24 19h2M13 20h1M14 21h3M17 24h2" />
<path stroke="#9c8442" d="M16 12h1M18 15h1M19 16h2M11 17h1M19 17h1M12 18h3M19 18h1M15 19h1M20 19h1M16 20h1M19 20h1M17 21h1" />
<path stroke="#f7d631" d="M20 13h2M14 14h1M19 14h3M19 15h2M13 16h1M11 18h1M18 18h1M12 19h3M16 19h1M14 20h2M19 21h2M18 22h2" />
<path stroke="#ffffff" d="M13 14h1M12 15h4M12 16h1M16 17h1M20 24h2" />
<path stroke="#ffa531" d="M15 14h2M16 15h2M14 16h2M18 16h1M13 17h2M20 17h1M20 18h1M19 19h1M22 24h1M20 25h2" />
<path stroke="#bd9421" d="M16 16h2M15 17h1M18 17h1M15 18h1M11 20h1" />
<path stroke="#bd8442" d="M21 18h1" />
<path stroke="#f76352" d="M17 19h2M17 20h2M15 22h2" />
<path stroke="#c54a5a" d="M22 20h1M23 22h1" />
<path stroke="#a56b31" d="M24 20h1M25 21h1" />
<path stroke="#cecece" d="M22 23h1M19 25h1" />
</svg>