<svg xmlns="http://www.w3.org/2000/svg" viewBox="0 -0.5 40 30" shape-rendering="crispEdges">
<metadata>Made with Pixels to Svg https://codepen.io/shshaw/pen/XbxvNj</metadata>
<path stroke="#313131" d="M10 0h2M9 1h1M11 1h2M8 2h1M12 2h1M7 3h1M12 3h1M7 4h1M11 4h1M29 4h2M6 5h1M11 5h1M28 5h2M31 5h1M6 6h1M11 6h1M28 6h1M32 6h1M6 7h1M11 7h1M29 7h1M33 7h1M6 8h1M11 8h1M29 8h1M33 8h1M6 9h1M11 9h1M22 9h4M29 9h1M34 9h1M6 10h1M12 10h1M20 10h2M25 10h4M34 10h1M7 11h1M12 11h2M19 11h1M33 11h1M7 12h1M14 12h2M18 12h1M34 12h1M8 13h1M16 13h1M18 13h1M34 13h1M9 14h1M17 14h1M33 14h1M9 15h1M33 15h1M10 16h1M32 16h1M11 17h1M31 17h1M11 18h1M31 18h1M11 19h1M31 19h1M10 20h1M31 20h1M10 21h1M14 21h2M29 21h2M9 22h1M12 22h2M15 22h1M27 22h2M9 23h1M11 23h1M15 23h1M27 23h1M10 24h1M16 24h1M26 24h1M15 25h1M20 25h2M26 25h1M15 26h1M17 26h1M19 26h1M22 26h1M26 26h1M16 27h3M23 27h1M27 27h1M23 28h1M27 28h1M24 29h3" />
<path stroke="#94f74a" d="M9 2h1M8 4h1M30 5h1M7 6h1M31 6h1M7 7h1M32 8h1M33 9h1M33 10h1M33 12h1M33 13h1M32 15h1M30 17h1M29 18h1" />
<path stroke="#e67363" d="M10 2h2M10 3h1M9 4h2M10 5h1M8 6h1M10 6h1M29 6h1M10 7h1M30 7h1M10 8h1M30 8h1M10 9h1M30 9h1M11 10h1M29 10h1M11 11h1M29 11h1M29 12h1M28 13h1M27 14h1M16 15h1M26 15h1M15 16h3M24 16h2M14 17h1M17 17h1M22 17h2M13 18h1M17 18h1M22 18h1M13 19h1M16 19h1M21 19h2M14 20h2M19 20h1M18 21h2" />
<path stroke="#63b521" d="M8 3h1M7 5h1M32 7h1M7 10h1M8 12h1M9 13h1M31 16h1M18 17h1M18 18h1M17 19h1M28 19h1M26 20h1" />
<path stroke="#ffffff" d="M9 3h1M8 5h1M30 6h1M31 7h1M7 8h1M31 8h1M7 9h1M32 9h1M23 10h2M32 10h1M20 11h2M24 11h1M26 11h2M32 11h1M21 12h1M32 12h1M32 13h1M31 14h2M31 15h1M30 16h1M29 17h1M28 18h1M15 19h1M26 19h2M20 20h2M20 21h3M18 22h5M16 23h1M19 23h3M24 23h1M23 24h3M23 25h3M23 26h2" />
<path stroke="#ce4a3a" d="M11 3h1M9 5h1M9 6h1M8 7h2M8 8h2M8 9h2M31 9h1M9 10h2M30 10h2M9 11h2M30 11h2M10 12h1M30 12h2M29 13h3M28 14h3M15 15h1M27 15h4M14 16h1M26 16h4M24 17h5M19 18h1M23 18h5M18 19h2M23 19h3M18 20h1M22 20h1M24 20h1M16 21h1" />
<path stroke="#c5c5c5" d="M8 10h1M8 11h1M9 12h1M15 18h1M25 20h1M17 21h1M23 21h1M17 22h1M23 22h1M18 23h1M22 23h2M19 24h3M22 25h1" />
<path stroke="#525252" d="M22 10h1M28 11h1M11 12h1M28 12h1M10 13h2M27 13h1M16 14h1M26 14h1M17 15h1M24 15h2M18 16h1M22 16h2M15 17h2M19 17h1M21 17h1M12 18h1M14 18h1M16 18h1M20 18h2M30 18h1M20 19h1M29 19h1M16 20h2M27 20h2M24 21h3M24 22h1M25 23h1M17 24h2M18 25h2M25 26h1M26 27h1M25 28h1" />
<path stroke="#946b31" d="M22 11h1M25 11h1M19 12h1M22 12h1M24 12h1M27 12h1M14 13h1M21 13h1M24 13h1M12 14h1M15 14h1M19 14h1M21 14h1M23 14h1M13 15h1M19 15h2M23 15h1M11 16h1M13 16h1M20 16h1M25 22h1M26 23h1" />
<path stroke="#f7e629" d="M23 11h1M12 12h2M20 12h1M23 12h1M26 12h1M13 13h1M20 13h1M22 13h2M25 13h1M10 14h2M13 14h1M22 14h1M25 14h1M10 15h1M12 15h1M14 15h1M12 16h1M13 17h1M12 19h1M30 19h1M11 20h1M13 20h1M30 20h1M11 21h2M10 22h2M10 23h1" />
<path stroke="#e69c29" d="M25 12h1M12 13h1M15 13h1M19 13h1M26 13h1M14 14h1M18 14h1M20 14h1M24 14h1M11 15h1M18 15h1M21 15h2M19 16h1M21 16h1M12 17h1M20 17h1M12 20h1M29 20h1M13 21h1M27 21h2M26 22h1" />
<path stroke="#ad3a3a" d="M14 19h1M23 20h1" />
<path stroke="#9c9c9c" d="M16 22h1M17 23h1M22 24h1" />
<path stroke="#7b7bad" d="M16 25h2M16 26h1M18 26h1M24 27h2M24 28h1M26 28h1" />
</svg>