<svg xmlns="http://www.w3.org/2000/svg" viewBox="0 -0.5 40 30" shape-rendering="crispEdges">
<metadata>Made with Pixels to Svg https://codepen.io/shshaw/pen/XbxvNj</metadata>
<path stroke="#313131" d="M17 10h2M16 11h1M19 11h1M15 12h1M19 12h1M15 13h1M19 13h1M15 14h1M20 14h1M14 15h1M21 15h1M26 15h2M13 16h1M22 16h1M25 16h1M28 16h1M11 17h2M23 17h2M28 17h1M10 18h1M28 18h1M11 19h1M14 19h1M28 19h1M10 20h1M18 20h1M28 20h1M11 21h2M27 21h1M13 22h2M25 22h2M15 23h1M25 23h1M15 24h1M25 24h1M15 25h1M18 25h1M23 25h2M16 26h2M19 26h1M22 26h1M20 27h2" />
<path stroke="#8cd6ff" d="M17 11h1M16 12h1M16 13h1M16 14h1M14 16h2M20 16h1M14 17h3M18 17h4M13 18h1M15 18h6M13 19h1M15 19h3M19 19h1M14 20h4M19 20h1M17 21h2" />
<path stroke="#52b5e6" d="M18 11h1M18 12h1M18 13h1M17 14h1M17 15h1M20 15h1M17 16h1M13 17h1M17 17h1M21 18h1M20 19h1M13 20h1M16 21h1M19 21h1M24 22h1M19 23h1M23 23h2M20 24h1M24 24h1M17 25h1M20 25h2" />
<path stroke="#4a84ce" d="M17 12h1M17 13h1M18 14h1M15 15h2M18 15h1M16 16h1M18 16h1M19 22h1M17 23h2M20 23h1M16 24h1M19 24h1M21 24h2" />
<path stroke="#525252" d="M19 14h1M19 15h1M12 18h1M22 18h2M23 19h1M24 20h1M23 21h2M20 22h1M23 22h1M16 23h1M21 23h2M23 24h1M19 25h1M22 25h1" />
<path stroke="#7bc5de" d="M19 16h1M21 16h1M22 17h1M15 21h1M16 25h1M20 26h2" />
<path stroke="#ffffff" d="M26 16h2M25 17h1M14 18h1M24 18h1M18 19h1M14 21h1M15 22h3" />
<path stroke="#addeef" d="M26 17h2M25 18h1M24 19h1M26 19h2M25 20h1M18 22h1M17 24h2" />
<path stroke="#f78431" d="M11 18h1M21 19h1M11 20h1M20 20h4M20 21h2M22 22h1" />
<path stroke="#7ba5d6" d="M26 18h2M25 19h1M26 20h2M25 21h2" />
<path stroke="#ce5a19" d="M12 19h1M22 19h1M12 20h1M13 21h1M22 21h1M21 22h1" />
</svg>