<svg xmlns="http://www.w3.org/2000/svg" viewBox="0 -0.5 40 30" shape-rendering="crispEdges">
<metadata>Made with Pixels to Svg https://codepen.io/shshaw/pen/XbxvNj</metadata>
<path stroke="#313131" d="M12 4h3M11 5h1M15 5h1M21 5h3M11 6h1M15 6h1M20 6h1M24 6h1M11 7h1M16 7h1M19 7h1M24 7h1M11 8h1M16 8h1M19 8h1M25 8h1M11 9h1M16 9h1M18 9h1M25 9h1M12 10h1M17 10h1M25 10h1M28 10h2M12 11h1M24 11h1M27 11h1M30 11h1M10 12h3M24 12h1M27 12h1M31 12h1M9 13h1M23 13h1M26 13h1M31 13h1M8 14h2M23 14h1M26 14h1M31 14h1M7 15h1M16 15h1M24 15h1M26 15h1M32 15h1M8 16h3M25 16h1M32 16h1M11 17h1M32 17h1M11 18h1M32 18h1M9 19h2M14 19h3M32 19h1M8 20h1M13 20h1M17 20h1M32 20h1M7 21h1M12 21h1M14 21h3M31 21h1M7 22h2M11 22h1M13 22h1M31 22h1M9 23h2M13 23h1M30 23h1M12 24h1M18 24h2M29 24h1M12 25h2M17 25h1M19 25h2M23 25h1M30 25h1M14 26h3M21 26h2M24 26h2M31 26h1M26 27h1M31 27h1M27 28h4" />
<path stroke="#63739c" d="M12 5h1M14 6h1M22 6h1M14 7h2M22 7h1M14 8h2M22 8h1M24 8h1M14 9h2M21 9h1M23 9h2M15 10h2M21 10h1M23 10h1M20 11h1M22 11h2M29 11h1M22 12h1M29 12h1M28 13h2M28 14h1M30 14h1M28 15h1M30 15h1M27 16h1M29 16h3M25 17h1M27 17h1M29 17h2M26 18h1M28 18h2M31 18h1M30 19h2M29 20h3M30 22h1M29 23h1" />
<path stroke="#7b94b5" d="M13 5h1M12 6h1M21 6h1M23 6h1M12 7h1M20 7h1M12 8h1M20 8h1M12 9h1M19 9h1M13 10h1M19 10h1M13 11h1M18 11h1M28 11h1M18 12h1M28 12h1M17 13h1M27 13h1M27 14h1M27 15h1M26 16h1M26 17h1M19 19h1M20 20h1M21 21h1" />
<path stroke="#525252" d="M14 5h1M13 6h1M13 7h1M21 7h1M23 7h1M13 8h1M21 8h1M23 8h1M13 9h1M20 9h1M22 9h1M14 10h1M18 10h1M20 10h1M22 10h1M24 10h1M14 11h1M17 11h1M19 11h1M21 11h1M13 12h1M17 12h1M19 12h3M23 12h1M30 12h1M12 13h2M16 13h1M18 13h1M22 13h1M30 13h1M10 14h2M29 14h1M11 15h1M23 15h1M29 15h1M31 15h1M28 16h1M12 17h1M22 17h3M28 17h1M31 17h1M13 18h1M19 18h2M23 18h1M25 18h1M27 18h1M30 18h1M21 19h2M24 19h1M26 19h1M28 19h2M25 20h1M11 21h1M22 21h1M25 21h2M29 21h2M10 22h1M21 22h1M26 22h1M28 22h2M19 23h2M26 23h1M28 23h1M25 24h1M21 25h1M25 25h1M30 27h1" />
<path stroke="#5aa5e6" d="M15 11h1M14 12h1M21 13h1M13 14h1M15 14h1M22 14h1M14 17h1M24 18h1M25 19h1M27 19h1M9 20h1M26 20h3M8 21h1M10 21h1M27 21h2M9 22h1M15 23h2M22 23h1M13 24h5M15 25h2M26 25h2M29 25h1M27 26h4M27 27h1M29 27h1" />
<path stroke="#84ceff" d="M16 11h1M15 12h2M14 13h2M19 13h2M14 14h1M18 14h4M12 15h3M18 15h2M11 16h5M17 16h2M13 17h1M15 17h4M14 18h4M20 19h1M23 19h1M21 20h4M23 21h1M22 22h1M25 22h1M21 23h1M24 23h2M20 24h1M22 24h1M24 24h1M22 25h1M24 25h1" />
<path stroke="#d66342" d="M10 13h2M8 15h3M20 15h3M19 16h1M19 17h1M14 22h2" />
<path stroke="#e6843a" d="M12 14h1M17 14h1M17 15h1M16 16h1M20 16h1M22 16h1M21 18h1M11 19h2M10 20h2M27 23h1M27 24h1M28 25h1" />
<path stroke="#ffffff" d="M16 14h1" />
<path stroke="#4a73ad" d="M15 15h1M12 18h1M18 18h1M13 19h1M17 19h1M12 20h1M9 21h1M17 21h1M16 22h3M27 22h1M14 23h1M17 23h2M21 24h1M23 24h1M26 24h1M14 25h1M26 26h1M28 27h1" />
<path stroke="#f7a53a" d="M21 16h1M23 16h2M20 17h2M22 18h1M24 21h1M23 22h2M23 23h1M28 24h1" />
<path stroke="#adbdbd" d="M18 19h1M18 20h2M18 21h3M19 22h2" />
</svg>