<svg xmlns="http://www.w3.org/2000/svg" viewBox="0 -0.5 40 30" shape-rendering="crispEdges">
<metadata>Made with Pixels to Svg https://codepen.io/shshaw/pen/XbxvNj</metadata>
<path stroke="#313131" d="M10 5h1M9 6h1M11 6h1M9 7h1M11 7h1M9 8h1M11 8h1M21 8h1M8 9h1M12 9h1M20 9h1M22 9h1M31 9h2M8 10h1M12 10h1M20 10h1M22 10h1M30 10h1M32 10h1M7 11h1M12 11h1M19 11h1M22 11h1M29 11h1M32 11h1M7 12h1M13 12h1M19 12h1M21 12h1M28 12h1M31 12h1M7 13h1M13 13h1M18 13h1M21 13h1M27 13h1M31 13h1M7 14h1M13 14h1M18 14h1M20 14h1M26 14h1M32 14h1M8 15h1M14 15h1M17 15h1M20 15h1M25 15h1M32 15h1M8 16h1M14 16h1M16 16h1M20 16h1M24 16h1M32 16h1M9 17h1M15 17h1M21 17h1M23 17h1M32 17h1M10 18h2M22 18h1M31 18h1M12 19h2M30 19h1M13 20h1M28 20h2M12 21h1M14 21h1M19 21h1M27 21h1M11 22h1M18 22h1M27 22h1M10 23h1M14 23h1M28 23h1M10 24h4M15 24h2M20 24h2M26 24h3M17 25h3M22 25h1M26 25h1M23 26h1M27 26h1M24 27h4" />
<path stroke="#f77b5a" d="M10 6h1M10 7h1M10 8h1M9 9h2M9 10h1M31 10h1M9 11h1M30 11h2M8 12h2M29 12h2M9 13h1M29 13h2M8 14h2M30 14h1M10 15h1M30 15h2M9 16h1M11 16h3M30 16h1M11 17h1M13 17h2M29 17h2M13 18h1M23 18h2M28 18h1M22 19h7M25 20h1M15 21h2M15 22h3M15 23h3" />
<path stroke="#ffffff" d="M11 9h1M10 10h2M8 11h1M10 11h1M10 12h1M8 13h1M10 13h1M28 13h1M10 14h2M28 14h2M31 14h1M9 15h1M11 15h3M28 15h2M10 16h1M28 16h2M31 16h1M10 17h1M12 17h1M24 17h1M27 17h2M31 17h1M12 18h1M25 18h3M29 18h2M29 19h1M14 20h1M23 20h2M26 20h2M18 21h1" />
<path stroke="#c5f7ff" d="M21 9h1M21 10h1M20 11h1M20 12h1M19 13h1M19 14h1M18 15h2M17 16h2M16 17h3M16 18h4M15 19h6M17 20h1M19 20h2M20 21h1M12 22h1M26 22h1M11 23h3M25 23h3M22 24h1M23 25h3M24 26h3" />
<path stroke="#bd8c9c" d="M11 11h1M27 14h1" />
<path stroke="#84c5f7" d="M21 11h1M20 13h1M19 16h1M19 17h2M15 18h1M20 18h2M14 19h1M18 20h1M21 21h2M20 22h3M24 22h2M19 23h3M18 24h2M23 24h2" />
<path stroke="#944263" d="M11 12h2M11 13h2M12 14h1M26 15h2M25 16h3M25 17h2" />
<path stroke="#525252" d="M14 18h1M21 19h1M21 20h2M13 21h1M23 21h4M13 22h1M19 22h1M23 22h1M22 23h3M25 24h1" />
<path stroke="#d66342" d="M15 20h2M17 21h1M14 22h1M18 23h1M17 24h1" />
</svg>