<svg xmlns="http://www.w3.org/2000/svg" viewBox="0 -0.5 40 30" shape-rendering="crispEdges">
<metadata>Made with Pixels to Svg https://codepen.io/shshaw/pen/XbxvNj</metadata>
<path stroke="#313131" d="M14 8h1M13 9h1M15 9h1M13 10h1M15 10h1M13 11h1M16 11h1M20 11h1M25 11h3M13 12h1M16 12h1M18 12h2M21 12h1M23 12h2M28 12h1M12 13h1M17 13h1M22 13h1M27 13h1M12 14h1M28 14h1M13 15h1M27 15h1M14 16h1M26 16h1M12 17h3M26 17h1M11 18h1M27 18h1M12 19h1M27 19h1M12 20h1M17 20h1M27 20h1M12 21h1M27 21h2M13 22h1M28 22h1M13 23h1M17 23h2M23 23h3M27 23h1M14 24h1M17 24h1M19 24h1M22 24h1M25 24h2M14 25h3M18 25h1M22 25h1M18 26h1M21 26h1M19 27h2" />
<path stroke="#9c6b94" d="M14 9h1M14 10h1M14 11h2M14 12h2M20 12h1M13 13h4M20 13h1M13 14h4M26 14h2M14 15h1M26 15h1M25 16h1M25 17h1M15 18h1M24 18h1M26 18h1M14 19h1M19 19h5M25 19h2M19 20h2M24 20h3M20 21h1M22 21h4M16 22h3M21 22h2M24 22h2M27 22h1M19 23h4M21 25h1" />
<path stroke="#ce8cb5" d="M25 12h3M18 13h1M23 13h4M18 14h1M21 14h3M17 15h2M20 15h2M15 16h1M17 16h1M19 16h2M15 17h3M19 17h1M12 18h3M16 18h4M16 19h2M13 20h1M15 20h2M13 21h3M14 22h2M20 24h2M19 25h2" />
<path stroke="#525252" d="M19 13h1M21 13h1M17 14h1M19 14h2M24 14h2M15 15h2M19 15h1M22 15h2M16 16h1M18 16h1M21 16h1M18 17h1M20 17h1M20 18h1M25 18h1M24 19h1M21 20h3M21 21h1M19 22h2M23 22h1M15 23h2" />
<path stroke="#52a57b" d="M24 15h1M22 16h3M22 17h2" />
<path stroke="#3a845a" d="M25 15h1M21 17h1M24 17h1M21 18h3" />
<path stroke="#7b5273" d="M13 19h1M15 19h1M18 19h1M14 20h1M16 21h1M19 21h1M26 21h1M26 22h1M15 24h2" />
<path stroke="#bdbdb5" d="M18 20h1M14 23h1M26 23h1" />
<path stroke="#f76352" d="M17 21h1" />
<path stroke="#ffffff" d="M18 21h1M19 26h2" />
</svg>