<svg xmlns="http://www.w3.org/2000/svg" viewBox="0 -0.5 40 30" shape-rendering="crispEdges">
<metadata>Made with Pixels to Svg https://codepen.io/shshaw/pen/XbxvNj</metadata>
<path stroke="#313131" d="M23 6h5M22 7h1M28 7h1M16 8h5M22 8h1M28 8h1M15 9h1M21 9h1M29 9h1M15 10h1M29 10h1M11 11h2M14 11h2M30 11h1M9 12h3M13 12h2M31 12h1M9 13h1M31 13h1M9 14h1M32 14h1M7 15h2M32 15h1M6 16h1M32 16h1M7 17h2M32 17h1M8 18h1M31 18h1M8 19h1M31 19h1M8 20h1M15 20h1M32 20h1M9 21h1M32 21h1M9 22h1M32 22h1M8 23h1M25 23h2M31 23h1M8 24h1M24 24h1M27 24h4M9 25h2M16 25h1M24 25h1M11 26h5M17 26h1M24 26h1M18 27h6" />
<path stroke="#73736b" d="M23 7h1M27 7h1M16 9h1M20 9h1M24 10h3M24 11h3M17 12h3M23 12h5M17 13h3M25 13h1M17 14h4M18 15h1M31 20h1M12 25h1" />
<path stroke="#cecebd" d="M24 7h3M23 8h1M27 8h1M17 9h3M24 9h3M16 10h1M20 10h1M17 11h3M10 20h1M12 20h1M10 21h3M10 22h4M9 23h6M10 24h3" />
<path stroke="#525252" d="M24 8h3M17 10h3M21 10h1M21 11h1M22 12h1M11 13h1M14 13h2M23 13h1M11 14h1M14 14h1M16 14h1M10 15h1M12 15h1M14 15h1M16 15h1M10 16h2M17 16h3M9 17h1M20 17h1M17 18h1M21 18h1M18 19h4M17 20h1M17 21h1M28 21h1M18 22h1M27 22h1M18 23h1M23 23h1M29 23h1M9 24h1M13 24h1M17 24h1M23 24h1M17 25h1M18 26h1M20 26h1M23 26h1" />
<path stroke="#9c9c8c" d="M22 9h2M27 9h2M22 10h2M27 10h2M16 11h1M20 11h1M22 11h2M27 11h2M15 12h2M20 12h2M16 13h1M20 13h2M13 20h1M13 21h1M14 22h1M16 22h2M15 23h3M14 24h3M11 25h1M13 25h3" />
<path stroke="#f78c5a" d="M29 11h1M12 12h1M28 12h3M12 13h2M22 13h1M24 13h1M26 13h3M30 13h1M13 14h1M15 14h1M21 14h6M29 14h1M31 14h1M13 15h1M15 15h1M17 15h1M19 15h7M27 15h1M29 15h1M12 16h5M20 16h4M25 16h1M27 16h1M29 16h1M10 17h9M21 17h2M24 17h1M27 17h1M29 17h1M10 18h7M18 18h3M22 18h1M24 18h1M27 18h1M10 19h3M14 19h1M16 19h1M22 19h1M24 19h1M27 19h1M14 20h1M22 20h1M24 20h1M20 24h2M19 25h3" />
<path stroke="#d66b5a" d="M10 13h1M10 14h1M12 14h1M9 15h1M11 15h1M31 15h1M7 16h3M31 16h1M19 17h1M31 17h1M9 18h1M30 18h1M13 19h1M15 19h1M17 19h1M29 19h2M11 20h1M18 20h4M26 20h1M28 20h3M18 21h6M25 21h3M29 21h3M19 22h8M28 22h4M19 23h4M24 23h1M27 23h2M30 23h1M18 24h2M22 24h1M18 25h1M22 25h2M19 26h1M21 26h2" />
<path stroke="#4aa5ff" d="M29 13h1M27 14h1M30 14h1M26 15h1M28 15h1M30 15h1M24 16h1M26 16h1M28 16h1M30 16h1M23 17h1M25 17h1M30 17h1M23 18h1M25 18h1M29 18h1M23 19h1M25 19h1M28 19h1M23 20h1M25 20h1M27 20h1M24 21h1" />
<path stroke="#a59cad" d="M28 14h1M26 17h1M28 17h1M26 18h1M28 18h1M26 19h1" />
<path stroke="#ffffff" d="M9 19h1M9 20h1M16 20h1M14 21h3M15 22h1" />
</svg>