<svg xmlns="http://www.w3.org/2000/svg" viewBox="0 -0.5 40 30" shape-rendering="crispEdges">
<metadata>Made with Pixels to Svg https://codepen.io/shshaw/pen/XbxvNj</metadata>
<path stroke="#313131" d="M22 3h3M5 4h2M21 4h1M25 4h3M5 5h1M7 5h1M19 5h2M22 5h1M28 5h3M5 6h1M8 6h1M18 6h1M20 6h1M31 6h2M3 7h2M9 7h5M17 7h1M20 7h1M24 7h1M33 7h1M2 8h1M14 8h2M19 8h1M24 8h1M34 8h1M3 9h4M19 9h2M25 9h1M35 9h1M7 10h1M21 10h2M25 10h1M36 10h1M6 11h1M23 11h1M25 11h1M36 11h1M6 12h1M24 12h1M36 12h1M5 13h1M10 13h1M35 13h1M4 14h1M33 14h2M5 15h1M30 15h3M6 16h2M29 16h1M8 17h4M30 17h2M12 18h1M32 18h3M11 19h1M35 19h1M10 20h1M35 20h1M9 21h1M33 21h2M9 22h1M26 22h2M32 22h1M8 23h1M12 23h2M25 23h1M28 23h1M32 23h1M9 24h3M14 24h5M26 24h1M29 24h3M19 25h3M26 25h1M22 26h1M26 26h1M23 27h3" />
<path stroke="#f76b6b" d="M22 4h3M25 5h3M28 6h3M31 7h1M33 8h1M13 10h2M11 11h3M24 14h2M23 15h2M21 16h2M28 18h1" />
<path stroke="#428cb5" d="M6 5h1M7 7h1M19 7h1M8 8h1M8 9h2M16 9h1M7 15h2M15 15h1M17 16h1M14 17h2M17 17h2M15 18h1M31 18h1M32 19h3M15 20h1M24 20h1M32 20h2M14 21h1M27 21h1M31 21h1M29 22h3M30 23h1M24 26h1" />
<path stroke="#bd4a52" d="M23 5h2M24 6h4M25 7h6M32 7h1M25 8h8M26 9h9M8 10h2M26 10h10M26 11h10M10 12h2M13 12h1M26 12h10M25 13h10M26 14h7M26 15h4M8 16h3M25 16h2M12 17h1M13 18h1M29 18h1M17 19h1M28 22h1" />
<path stroke="#316b84" d="M6 6h2M7 8h1M7 9h1M16 12h1M7 14h1M13 14h1M6 15h1M9 15h1M16 15h1M26 21h1M10 22h1M11 23h1M21 24h1" />
<path stroke="#5aadde" d="M19 6h1M18 7h1M17 8h2M17 9h2M10 10h1M16 10h2M8 11h2M15 11h3M7 12h2M14 12h2M6 13h3M13 13h1M16 13h2M5 14h2M8 14h3M14 14h6M11 15h4M20 17h1M27 17h1M18 18h9M19 19h1M23 19h4M29 19h2M23 20h1M25 20h6M15 21h2M22 21h3M28 21h3M21 22h4M21 23h4M22 24h4M22 25h4" />
<path stroke="#525252" d="M23 6h1M5 7h2M8 7h1M6 8h1M9 8h1M16 8h1M10 9h2M13 9h3M11 10h2M15 10h1M18 10h1M10 11h1M14 11h1M18 11h1M9 12h1M17 12h2M25 12h1M14 13h2M18 13h2M24 13h1M11 14h2M20 14h1M23 14h1M10 15h1M17 15h3M21 15h2M11 16h6M18 16h1M20 16h1M27 16h2M13 17h1M16 17h1M19 17h1M21 17h6M29 17h1M14 18h1M16 18h1M30 18h1M12 19h2M15 19h2M31 19h1M11 20h1M14 20h1M22 20h1M31 20h1M10 21h1M13 21h1M21 21h1M25 21h1M32 21h1M11 22h1M14 22h3M20 22h1M25 22h1M17 23h1M20 23h1" />
<path stroke="#943a42" d="M3 8h3M10 8h4M12 9h1M19 10h2M7 11h1M19 11h4M19 12h5M20 13h4M21 14h2M20 15h1M25 15h1M19 16h1M23 16h2M28 17h1M17 18h1M27 18h1M18 19h1M27 19h2M16 20h2M34 20h1" />
<path stroke="#d6d67b" d="M12 12h1M9 13h1" />
<path stroke="#f7ffbd" d="M11 13h2" />
<path stroke="#848484" d="M14 19h1M20 19h3M12 20h2M18 20h2M11 21h2M17 21h1M12 22h2M10 23h1M14 23h3M18 23h2M19 24h2" />
<path stroke="#bdbdbd" d="M20 20h2M18 21h3M17 22h3M9 23h1M29 23h1M31 23h1" />
<path stroke="#ffffff" d="M23 26h1M25 26h1" />
</svg>