<svg xmlns="http://www.w3.org/2000/svg" viewBox="0 -0.5 40 30" shape-rendering="crispEdges">
<metadata>Made with Pixels to Svg https://codepen.io/shshaw/pen/XbxvNj</metadata>
<path stroke="#313131" d="M9 2h1M8 3h1M10 3h1M8 4h1M10 4h1M20 4h3M8 5h1M11 5h1M19 5h1M22 5h1M8 6h1M11 6h1M18 6h1M21 6h1M9 7h1M11 7h1M16 7h2M20 7h1M25 7h1M9 8h1M12 8h1M15 8h1M19 8h1M24 8h1M26 8h1M8 9h2M12 9h1M20 9h2M24 9h1M26 9h1M29 9h2M7 10h1M22 10h2M26 10h1M28 10h1M31 10h1M7 11h1M27 11h1M32 11h1M6 12h1M26 12h1M33 12h1M6 13h1M11 13h1M19 13h2M33 13h1M5 14h1M18 14h1M21 14h1M32 14h1M5 15h1M18 15h1M21 15h1M32 15h1M5 16h1M16 16h1M19 16h2M32 16h1M6 17h2M14 17h2M17 17h1M32 17h1M8 18h6M17 18h2M31 18h1M16 19h1M31 19h1M15 20h1M21 20h3M32 20h1M15 21h1M20 21h1M23 21h1M32 21h1M15 22h1M21 22h2M31 22h1M16 23h1M32 23h1M16 24h1M26 24h3M33 24h1M17 25h2M24 25h2M28 25h1M34 25h1M19 26h5M28 26h1M35 26h1M29 27h3M33 27h3M32 28h2" />
<path stroke="#529c6b" d="M9 3h1M9 4h1M9 5h2M9 6h2M10 7h1M10 8h2M16 8h1M10 9h1M8 10h1M11 10h2M9 11h2M14 11h2M17 11h2M29 11h2M14 12h6M28 12h4M8 13h1M15 13h2M18 13h1M21 13h2M27 13h1M32 13h1M7 14h1M15 14h1M23 14h2M10 15h1M26 15h1M7 16h1M15 16h1M25 16h2M29 16h2M13 17h1M24 17h3M25 18h3M25 19h1M28 19h1M30 20h2M18 21h2M24 21h1M27 21h1M17 22h4M23 22h1M27 22h1M29 22h1M17 23h1M20 23h4M28 23h1M30 23h1M18 24h2M21 24h1M24 24h1M29 24h2M19 25h2M22 25h2M30 25h2M31 26h1M33 26h1M32 27h1" />
<path stroke="#c5ffd6" d="M20 5h1M19 6h1M29 15h1" />
<path stroke="#84d694" d="M21 5h1M20 6h1M18 7h2M17 8h2M15 9h2M9 10h1M14 10h2M17 10h1M20 10h2M23 11h2M8 12h1M12 12h2M25 12h1M7 13h1M9 13h1M6 14h1M8 14h1M14 14h1M16 14h1M26 14h1M29 14h2M6 15h4M16 15h2M22 15h1M25 15h1M28 15h1M30 15h2M6 16h1M17 16h2M23 16h2M28 16h1M31 16h1M18 17h2M29 17h2M19 18h1M30 18h1M30 19h1M27 20h1M29 21h3M28 22h1" />
<path stroke="#b55263" d="M25 8h1M25 9h1M25 10h1M26 11h1M29 26h1" />
<path stroke="#525252" d="M11 9h1M14 9h1M17 9h2M10 10h1M13 10h1M24 10h1M25 11h1M7 12h1M27 12h1M10 13h1M13 13h2M26 13h1M28 13h4M9 14h2M12 14h2M17 14h1M22 14h1M25 14h1M27 14h1M11 15h2M15 15h1M23 15h2M27 15h1M8 16h2M13 16h2M21 16h2M27 16h1M10 17h3M20 17h1M23 17h1M27 17h1M20 18h1M24 18h1M28 18h2M19 19h1M24 19h1M26 19h2M29 19h1M24 20h2M28 20h2M25 21h2M24 22h1M30 22h1M25 23h2M29 23h1M17 24h1M29 25h1M30 26h1" />
<path stroke="#c59c3a" d="M19 9h1M8 11h1M11 14h1M24 23h1M25 24h1M21 25h1" />
<path stroke="#4a735a" d="M16 10h1M18 10h1M12 11h2M16 11h1M19 11h1M11 12h1M20 12h3M17 13h1M23 13h3M28 14h1M31 14h1M21 17h2M28 17h1M31 17h1M21 18h3M17 19h2M20 19h4M16 20h5M16 21h2M28 21h1M16 22h1M26 22h1M31 23h1M31 24h1M32 25h1M32 26h1" />
<path stroke="#ffce3a" d="M19 10h1M11 11h1M20 11h3M9 12h2M23 12h2M12 13h1M18 23h2M20 24h1M22 24h2" />
<path stroke="#e66b73" d="M29 10h2M28 11h1M31 11h1M32 12h1M13 15h2M10 16h3M9 17h1M32 24h1M33 25h1M34 26h1" />
<path stroke="#ffffff" d="M8 17h1M26 20h1M27 23h1" />
<path stroke="#d6d6d6" d="M25 22h1" />
</svg>