<svg xmlns="http://www.w3.org/2000/svg" viewBox="0 -0.5 40 30" shape-rendering="crispEdges">
<metadata>Made with Pixels to Svg https://codepen.io/shshaw/pen/XbxvNj</metadata>
<path stroke="#313131" d="M20 6h2M18 7h2M22 7h1M17 8h1M23 8h1M14 9h3M24 9h1M13 10h1M24 10h2M13 11h1M26 11h2M14 12h2M20 12h1M28 12h1M16 13h1M28 13h1M17 14h1M23 14h1M26 14h2M15 15h3M22 15h1M24 15h2M14 16h1M23 16h3M12 17h2M16 17h2M26 17h1M10 18h2M15 18h1M17 18h1M27 18h1M9 19h1M14 19h1M16 19h1M18 19h1M23 19h1M28 19h1M8 20h1M10 20h2M14 20h2M17 20h1M22 20h1M24 20h1M29 20h1M8 21h2M11 21h1M13 21h1M15 21h1M23 21h3M30 21h2M9 22h2M13 22h1M15 22h1M19 22h2M25 22h3M32 22h1M8 23h1M12 23h1M16 23h1M19 23h1M21 23h1M25 23h1M27 23h1M31 23h1M33 23h1M9 24h3M16 24h1M18 24h1M21 24h1M25 24h1M28 24h1M30 24h1M32 24h2M17 25h1M22 25h1M24 25h1M28 25h1M31 25h1M22 26h1M24 26h1M29 26h1M32 26h1M23 27h1M30 27h2" />
<path stroke="#f7845a" d="M20 7h2M19 8h2M17 9h2M23 11h3M23 12h5M23 13h1M27 13h1M18 16h1M21 16h2M18 17h4M24 17h1M21 18h1M25 18h2M26 19h2M27 20h1M28 21h1M24 22h1M28 22h1M23 23h2M29 23h1M22 24h1M29 24h1M30 25h1M31 26h1" />
<path stroke="#9c4a3a" d="M18 8h1M23 9h1M16 10h1M15 16h1M17 16h1M22 17h1M13 18h1M12 22h1M11 23h1M18 23h1M17 24h1" />
<path stroke="#d65a4a" d="M21 8h2M21 9h2M14 10h2M22 10h2M22 11h1M22 14h1M24 14h2M16 16h1M14 17h2M23 17h1M25 17h1M14 18h1M18 18h1M22 18h1M13 19h1M19 19h3M12 20h2M16 20h1M18 20h1M28 20h1M12 21h1M16 21h2M19 21h4M11 22h1M17 22h2M21 22h1M23 22h1M9 23h2M17 23h1M22 23h1M28 23h1M24 24h1M29 25h1M23 26h1M30 26h1" />
<path stroke="#9463e6" d="M19 9h1M18 10h1M18 11h1M17 12h1M17 13h1M18 14h1M19 18h1" />
<path stroke="#63ad94" d="M20 9h1M19 10h3M15 11h1M19 11h3M18 12h2M18 13h1M24 13h3M19 14h3M19 15h2M24 19h1M25 20h1M26 21h1M31 22h1M23 25h1" />
<path stroke="#84ceb5" d="M17 10h1M17 11h1M30 22h1M32 23h1M23 24h1" />
<path stroke="#525252" d="M14 11h1M22 12h1M19 13h3M18 15h1M21 15h1M19 16h2M12 18h1M23 18h2M12 19h1M22 19h1M25 19h1M19 20h3M26 20h1M18 21h1M27 21h1M29 21h1M22 22h1M29 22h1M30 23h1" />
<path stroke="#ffffff" d="M16 11h1M21 12h1" />
<path stroke="#4a846b" d="M16 12h1M22 13h1M10 19h2M9 20h1M16 22h1" />
<path stroke="#7b4ac5" d="M20 18h1" />
</svg>