<svg xmlns="http://www.w3.org/2000/svg" viewBox="0 -0.5 40 30" shape-rendering="crispEdges">
<metadata>Made with Pixels to Svg https://codepen.io/shshaw/pen/XbxvNj</metadata>
<path stroke="#313131" d="M21 5h2M15 6h1M19 6h2M23 6h3M14 7h1M16 7h1M18 7h1M26 7h1M31 7h1M14 8h1M16 8h2M27 8h1M30 8h1M32 8h1M13 9h1M28 9h2M32 9h1M10 10h2M13 10h1M33 10h1M10 11h1M12 11h1M33 11h1M10 12h1M33 12h1M11 13h1M32 13h1M9 14h2M32 14h1M8 15h1M31 15h1M8 16h1M31 16h1M9 17h1M30 17h1M7 18h3M31 18h1M6 19h1M31 19h1M7 20h1M31 20h1M8 21h1M31 21h1M9 22h1M14 22h1M26 22h1M30 22h1M9 23h1M25 23h1M27 23h3M10 24h1M12 24h1M16 24h3M25 24h1M11 25h1M13 25h3M18 25h1M25 25h1M19 26h2M24 26h1M21 27h3" />
<path stroke="#4a8c3a" d="M21 6h2M20 7h1M22 7h2M25 7h1M20 8h7M19 9h6M30 9h1M14 10h1M18 10h5M25 10h2M31 10h1M14 11h3M18 11h1M20 11h2M23 11h6M14 12h1M19 12h2M24 12h5M30 12h1M25 13h1M27 13h1M11 14h1M10 15h2M24 15h1M22 16h2M16 17h6M25 19h1M10 20h3M15 20h1M22 20h1M25 20h1M13 21h1M12 22h1M16 23h1M13 24h1M15 24h1" />
<path stroke="#c5c5c5" d="M15 7h1M15 8h1M15 9h1M15 10h1M11 11h1M11 12h1M13 14h3M9 15h1M12 15h5M9 16h2M12 16h4M24 16h1M10 17h4M22 17h4M12 18h12M16 19h5M18 21h2M28 21h1M30 21h1M17 22h5M28 22h1M19 25h1" />
<path stroke="#3a6b3a" d="M19 7h1M21 7h1M24 7h1M18 8h2M17 9h2M25 9h3M23 10h2M27 10h1M19 11h1M22 11h1M15 12h2M21 12h3M14 13h2M22 13h3M26 13h1M12 14h1M16 14h1M25 14h2M17 15h1M16 16h1M14 17h2" />
<path stroke="#63ad5a" d="M31 8h1M31 9h1M29 10h2M30 11h2M17 12h1M16 13h3M30 13h1M17 14h2M18 15h2M29 15h1M17 16h5M28 16h1M27 17h1M26 18h1M11 19h1M24 19h1M26 19h1M13 20h2M21 20h1M23 20h2M10 21h3M16 21h1" />
<path stroke="#9c9c9c" d="M14 9h1M12 12h1M12 13h1M28 14h1M27 15h1M11 16h1M25 16h2M7 19h3M8 20h1M18 23h2" />
<path stroke="#525252" d="M16 9h1M16 10h2M28 10h1M13 11h1M17 11h1M29 11h1M13 12h1M18 12h1M29 12h1M13 13h1M19 13h3M28 13h2M22 14h3M27 14h1M29 14h1M25 15h2M28 15h1M27 16h1M29 16h2M26 17h1M28 17h1M10 18h2M24 18h2M27 18h1M10 19h1M12 19h4M21 19h3M27 19h1M9 20h1M16 20h5M26 20h1M9 21h1M17 21h1M20 21h2M24 21h1M26 21h1M10 22h2M16 22h1M22 22h1M24 22h1M10 23h3M17 23h1M20 23h2M11 24h1M19 24h1" />
<path stroke="#9c7342" d="M32 10h1M32 11h1M31 12h2M31 13h1M19 14h1M30 14h2M20 15h2M30 15h1M29 17h1M28 18h3M28 19h3M27 20h1M29 20h1M25 22h1M21 24h2M24 24h1M20 25h1M22 25h2M23 26h1" />
<path stroke="#bd9452" d="M20 14h2M22 15h2M22 21h2M23 22h1M13 23h3M22 23h3M14 24h1M20 24h1M23 24h1" />
<path stroke="#7b633a" d="M28 20h1M30 20h1M25 21h1M27 21h1M29 21h1M27 22h1M29 22h1" />
<path stroke="#e64a29" d="M14 21h1" />
<path stroke="#ffffff" d="M15 21h1M13 22h1M15 22h1M21 25h1M24 25h1M21 26h2" />
</svg>