<svg xmlns="http://www.w3.org/2000/svg" viewBox="0 -0.5 40 30" shape-rendering="crispEdges">
<metadata>Made with Pixels to Svg https://codepen.io/shshaw/pen/XbxvNj</metadata>
<path stroke="#313131" d="M22 8h1M17 9h3M21 9h1M23 9h1M16 10h1M20 10h1M23 10h1M15 11h1M23 11h1M15 12h1M24 12h2M14 13h1M26 13h1M14 14h1M25 14h1M13 15h1M26 15h1M13 16h1M26 16h1M13 17h1M27 17h1M14 18h1M27 18h1M14 19h1M27 19h1M13 20h1M26 20h1M13 21h1M26 21h1M12 22h1M25 22h1M13 23h2M25 23h1M15 24h1M26 24h1M16 25h1M24 25h2M17 26h4M23 26h1M21 27h2" />
<path stroke="#4abd5a" d="M22 9h1M21 10h2M22 11h1M16 12h1M22 12h2M17 13h3M22 13h4M17 14h8M16 15h3M20 15h3M16 16h1M21 16h2M22 17h1" />
<path stroke="#ef739c" d="M17 10h2M18 11h2M18 25h1M20 25h2M21 26h2" />
<path stroke="#bd5a84" d="M19 10h1M17 11h1M20 11h1M20 12h1M20 24h1M17 25h1M19 25h1" />
<path stroke="#525252" d="M16 11h1M21 11h1M17 12h3M21 12h1M16 13h1M20 13h2M16 14h1M15 15h1M19 15h1M23 15h2M15 16h1M17 16h2M20 16h1M23 16h1M15 17h2M21 17h1M23 17h1M22 18h1M24 18h1M24 19h1M23 20h1M23 21h1M22 22h1M15 23h1M20 23h2M16 24h4M21 24h1M22 25h2" />
<path stroke="#6b5ab5" d="M15 13h1M15 14h1M14 15h1M25 15h1M14 16h1M24 16h2M14 17h1M17 17h1M24 17h3M15 18h1M25 18h2M15 19h1M25 19h2M14 20h1M24 20h2M24 21h2M23 22h2M22 23h3M22 24h4" />
<path stroke="#846bff" d="M19 16h1M18 17h3M16 18h6M23 18h1M16 19h8M15 20h8M14 21h9M13 22h9M16 23h4" />
</svg>