<svg xmlns="http://www.w3.org/2000/svg" viewBox="0 -0.5 40 30" shape-rendering="crispEdges">
<metadata>Made with Pixels to Svg https://codepen.io/shshaw/pen/XbxvNj</metadata>
<path stroke="#313131" d="M13 5h1M12 6h1M14 6h1M23 6h2M12 7h1M14 7h1M22 7h1M25 7h1M12 8h1M14 8h1M21 8h1M25 8h1M11 9h1M15 9h1M20 9h1M23 9h2M11 10h1M16 10h1M19 10h1M25 10h1M29 10h2M11 11h1M17 11h2M25 11h1M28 11h1M31 11h1M11 12h1M24 12h1M27 12h1M31 12h1M11 13h1M23 13h1M27 13h1M31 13h1M12 14h1M23 14h1M27 14h1M30 14h1M12 15h1M24 15h1M27 15h1M30 15h1M11 16h1M25 16h2M29 16h1M11 17h1M28 17h1M10 18h1M15 18h1M26 18h2M10 19h1M15 19h1M26 19h1M11 20h1M25 20h1M12 21h1M24 21h1M13 22h1M22 22h1M25 22h1M14 23h1M20 23h2M23 23h1M25 23h1M14 24h1M19 24h1M24 24h2M14 25h1M19 25h1M15 26h2M19 26h1M17 27h2" />
<path stroke="#7bb5de" d="M13 6h1M13 7h1M13 8h1M12 9h3M13 10h3M21 10h1M14 11h1M22 11h1M22 12h1M16 13h1M13 14h1M21 14h1M17 15h1M18 17h1M24 17h1M13 18h1M24 18h1M18 20h1M23 20h1M19 21h1M18 22h1M24 22h1M15 24h1M15 25h1M17 26h1" />
<path stroke="#9cd6ff" d="M23 7h2M22 8h2M21 9h1M22 10h3M23 11h2M23 12h1M14 13h2M22 13h1M16 14h2M22 14h1M18 15h1M21 15h3M15 16h1M18 16h1M22 16h2M12 17h1M14 17h3M11 18h2M19 18h1M25 18h1M11 19h3M19 19h1M24 19h2M12 20h3M19 20h1M24 20h1M14 21h1M18 21h1M23 21h1M17 22h1M23 22h1M24 23h1M17 24h1M17 25h2M18 26h1" />
<path stroke="#637b84" d="M24 8h1M22 9h1M20 10h1M19 11h3M29 11h2M15 12h3M19 12h3M30 12h1M18 13h4M30 13h1M14 14h2M19 14h2M29 14h1M13 15h4M28 15h2M12 16h3M16 16h2M20 16h1M13 17h1M17 17h1M20 17h2M17 18h2M21 18h3M17 19h2M21 19h3M16 20h2M20 20h1M22 20h1M15 21h3M20 21h2M14 22h3M19 22h3M17 23h3" />
<path stroke="#4a5a6b" d="M12 10h1M12 11h2M12 12h2M12 13h1M27 16h2M26 17h2" />
<path stroke="#525252" d="M15 11h2M14 12h1M18 12h1M28 12h1M13 13h1M17 13h1M18 14h1M19 15h2M19 16h1M21 16h1M24 16h1M19 17h1M22 17h2M25 17h1M20 18h1M20 19h1M21 20h1M13 21h1M22 21h1M15 23h2M16 24h1M18 24h1M16 25h1" />
<path stroke="#e6739c" d="M29 12h1M28 13h2M28 14h1M16 18h1M14 19h1M16 19h1M15 20h1" />
<path stroke="#ffffff" d="M14 18h1" />
</svg>