<svg xmlns="http://www.w3.org/2000/svg" viewBox="0 -0.5 40 30" shape-rendering="crispEdges">
<metadata>Made with Pixels to Svg https://codepen.io/shshaw/pen/XbxvNj</metadata>
<path stroke="#313131" d="M15 3h3M15 4h1M18 4h2M15 5h1M20 5h1M15 6h1M21 6h1M14 7h1M22 7h1M13 8h1M22 8h1M12 9h1M23 9h1M12 10h1M23 10h1M11 11h1M22 11h2M11 12h1M24 12h2M12 13h1M26 13h1M12 14h1M19 14h1M24 14h2M30 14h2M13 15h1M23 15h1M29 15h1M31 15h1M12 16h1M24 16h2M28 16h1M31 16h1M11 17h1M16 17h1M22 17h2M26 17h2M31 17h1M10 18h1M14 18h2M17 18h1M21 18h1M24 18h2M30 18h1M10 19h1M13 19h1M16 19h1M21 19h2M26 19h1M30 19h1M11 20h2M17 20h1M23 20h1M25 20h1M29 20h1M16 21h1M23 21h1M25 21h1M28 21h1M15 22h1M22 22h1M26 22h2M14 23h1M18 23h3M23 23h1M14 24h1M17 24h1M21 24h1M24 24h1M15 25h3M22 25h1M25 25h1M22 26h1M25 26h1M23 27h2" />
<path stroke="#7bc5c5" d="M16 4h2M16 5h4M16 6h5M16 7h5M16 8h2M15 9h2M14 10h2M14 11h2M14 12h1M14 13h1M14 14h1" />
<path stroke="#525252" d="M15 7h1M21 12h2M19 13h2M18 14h1M18 15h1M13 16h2M17 16h1M21 16h1M15 17h1M17 17h4M11 19h1" />
<path stroke="#63a5a5" d="M21 7h1M18 8h1M21 8h1M22 9h1M14 15h1" />
<path stroke="#427b52" d="M14 8h2M19 8h2M13 9h2M17 9h2M21 9h1M13 10h1M16 10h1M22 10h1M12 11h2M16 11h1M12 12h2M15 12h1M13 13h1M15 13h1M13 14h1M15 14h1M15 15h1M15 16h1M12 17h3M21 17h1M24 17h2M30 17h1M11 18h3M19 18h2M26 18h2M12 19h1M29 19h1M20 20h1M27 20h1M18 21h2M26 21h1" />
<path stroke="#5aad63" d="M19 9h2M17 10h5M17 11h5M16 12h5M16 13h3M16 14h2M16 15h2M30 15h1M16 16h1M29 16h2M28 17h2M28 18h2M20 19h1M27 19h2M26 20h1M28 20h1M27 21h1" />
<path stroke="#ffffff" d="M23 12h1M22 13h4M20 14h1M22 14h2M20 15h1M22 15h1M23 16h1M21 20h1M17 21h1M20 21h3M18 22h4M22 23h1M22 24h2M23 25h2M23 26h2" />
<path stroke="#737373" d="M21 13h1M21 14h1M20 16h1M22 20h1M17 22h1M15 24h1" />
<path stroke="#de4a52" d="M19 15h1M18 18h1M17 19h3M18 20h1" />
<path stroke="#b5b5bd" d="M21 15h1M18 16h2M22 16h1M16 22h1M15 23h3M21 23h1M16 24h1" />
<path stroke="#a54242" d="M19 20h1" />
</svg>