<svg xmlns="http://www.w3.org/2000/svg" viewBox="0 -0.5 40 30" shape-rendering="crispEdges">
<metadata>Made with Pixels to Svg https://codepen.io/shshaw/pen/XbxvNj</metadata>
<path stroke="#313131" d="M14 5h2M13 6h1M16 6h1M18 6h4M12 7h1M17 7h1M22 7h1M12 8h1M23 8h2M26 8h3M11 9h1M18 9h1M29 9h1M6 10h3M11 10h1M16 10h1M30 10h1M5 11h1M9 11h2M19 11h1M30 11h1M4 12h1M17 12h1M30 12h1M4 13h1M31 13h1M5 14h1M31 14h1M4 15h1M12 15h2M32 15h1M4 16h1M11 16h1M13 16h1M28 16h1M32 16h1M4 17h1M7 17h1M10 17h1M14 17h1M27 17h1M29 17h1M33 17h1M5 18h2M8 18h2M13 18h1M25 18h2M28 18h1M33 18h1M13 19h1M25 19h1M27 19h1M34 19h1M12 20h1M34 20h1M12 21h1M35 21h1M11 22h1M18 22h3M35 22h1M12 23h2M17 23h2M21 23h1M34 23h1M14 24h3M20 24h1M34 24h1M20 25h1M28 25h1M33 25h1M21 26h2M26 26h2M29 26h4M23 27h3" />
<path stroke="#ffe63a" d="M14 6h2M13 7h2M19 7h1M13 8h1M17 8h4M12 9h2M17 9h1M19 9h3M26 9h2M12 10h1M17 10h4M25 10h2M6 11h3M12 11h1M16 11h3M20 11h1M25 11h1M5 12h1M9 12h1M16 12h1M18 12h2M24 12h2M17 13h2M24 13h1M24 14h1M28 19h4M27 20h1M31 20h2" />
<path stroke="#3a634a" d="M15 7h1M14 8h1M14 9h1M22 9h1M21 10h1M21 11h1M22 12h1M15 23h1M22 24h2M25 24h1M21 25h1M24 26h1" />
<path stroke="#6bb573" d="M16 7h1M15 8h1M23 9h2M23 10h1M13 22h1M15 22h1" />
<path stroke="#bda542" d="M18 7h1M20 7h1M21 8h2M28 9h1M13 10h1M28 10h2M13 11h1M27 11h3M6 12h1M10 12h1M13 12h1M20 12h1M26 12h2M5 13h1M10 13h2M13 13h1M16 13h1M19 13h1M26 13h1M11 14h1M17 14h3M26 14h1M11 15h1M17 15h2M24 15h1M26 15h1M18 16h1M25 16h1M27 16h1M18 17h1M29 18h2M32 19h1M28 20h3M33 20h1M27 21h1M33 21h2M34 22h1" />
<path stroke="#525252" d="M21 7h1M25 9h1M24 10h1M11 11h1M24 11h1M7 12h1M12 12h1M23 12h1M28 12h2M6 13h1M8 13h2M12 13h1M23 13h1M27 13h2M8 14h2M13 14h1M23 14h1M27 14h1M30 14h1M5 15h1M7 15h2M10 15h1M23 15h1M27 15h2M6 16h2M10 16h1M23 16h2M31 16h1M5 17h1M9 17h1M24 17h2M30 17h1M14 18h1M31 18h2M33 19h1M14 20h2M25 20h2M17 21h1M26 21h1M28 21h4M25 22h1M27 22h1M30 22h3M23 23h2M26 23h1M29 23h2M32 23h2M27 24h3M32 24h1M31 25h1" />
<path stroke="#9c7b42" d="M16 8h1M16 9h1M15 10h1M27 10h1M15 11h1M26 11h1M8 12h1M15 12h1M21 12h1M15 13h1M20 13h1M25 13h1M10 14h1M16 14h1M20 14h1M25 14h1M16 15h1M19 15h1M25 15h1M17 16h1M19 16h1M26 16h1M17 17h1M19 17h1M26 17h1M18 18h1M32 21h1M33 22h1" />
<path stroke="#428c5a" d="M15 9h1M22 10h1M22 11h2M13 21h1M12 22h1M14 22h1M16 22h1M14 23h1M16 23h1M21 24h1M26 24h1M22 25h6M23 26h1M25 26h1" />
<path stroke="#ffffff" d="M14 10h1M14 11h1M14 12h1M14 13h1M21 13h2M6 14h1M14 14h2M21 14h2M6 15h1M9 15h1M14 15h1M22 15h1M31 15h1M9 16h1M14 16h3M20 16h3M30 16h1M8 17h1M15 17h1M20 17h1M22 17h2M31 17h2M15 18h3M19 18h4M14 19h2M17 19h4M13 20h1M16 20h1M14 21h3M27 23h2M30 24h1M29 25h1" />
<path stroke="#bdbdbd" d="M11 12h1M7 13h1M29 13h2M7 14h1M12 14h1M28 14h2M20 15h1M29 15h2M5 16h1M8 16h1M29 16h1M6 17h1M16 17h1M23 18h2M16 19h1M22 19h3M17 20h6M24 20h1M18 21h4M23 21h3M17 22h1M21 22h4M26 22h1M28 22h2M22 23h1M25 23h1M31 23h1M24 24h1M31 24h1M33 24h1M30 25h1M32 25h1" />
<path stroke="#4aadc5" d="M15 15h1M21 17h1" />
<path stroke="#d66342" d="M21 15h1" />
<path stroke="#848473" d="M21 19h1M23 20h1M22 21h1" />
</svg>