<svg xmlns="http://www.w3.org/2000/svg" viewBox="0 -0.5 40 30" shape-rendering="crispEdges">
<metadata>Made with Pixels to Svg https://codepen.io/shshaw/pen/XbxvNj</metadata>
<path stroke="#313131" d="M13 6h1M12 7h1M14 7h1M12 8h1M14 8h1M12 9h1M15 9h1M12 10h1M15 10h1M24 10h3M12 11h1M16 11h3M22 11h2M25 11h1M12 12h1M19 12h3M26 12h1M11 13h1M25 13h1M11 14h1M24 14h1M10 15h2M23 15h1M9 16h1M23 16h1M10 17h1M22 17h1M26 17h2M11 18h1M13 18h1M23 18h1M25 18h1M28 18h1M12 19h1M17 19h1M24 19h1M26 19h1M29 19h1M13 20h1M21 20h3M26 20h1M29 20h1M14 21h2M19 21h2M25 21h1M29 21h1M15 22h1M20 22h1M25 22h1M27 22h1M29 22h1M15 23h1M21 23h1M24 23h1M26 23h1M28 23h1M16 24h1M25 24h1M16 25h1M22 25h3M17 26h1M19 26h3M17 27h2" />
<path stroke="#8c6bb5" d="M13 7h1M13 8h1M13 9h2M13 10h2M14 11h2M24 11h1M16 12h3M22 12h4M14 13h6M21 13h4M15 14h6M23 14h1M15 15h2M18 15h1M22 15h1M10 16h2M15 16h2M22 16h1M11 17h1M14 17h3M21 17h1M12 18h1M14 18h4M21 18h1M26 18h2M15 19h2M20 19h4M27 19h2M19 20h1M27 20h2M26 21h1M28 21h1M18 22h1M26 22h1M28 22h1M17 23h4M25 23h1M17 24h1M19 24h3M24 24h1M17 25h1M18 26h1" />
<path stroke="#ef739c" d="M13 11h1M13 12h1M13 13h1M12 14h2M21 14h1M12 15h2M19 15h3M13 16h1M18 16h3M18 17h2" />
<path stroke="#5a4aa5" d="M14 12h2M20 13h1M22 18h1M20 20h1M18 21h1M27 21h1M19 22h1M22 24h2M19 25h1M21 25h1" />
<path stroke="#de4a84" d="M12 13h1M22 14h1M21 16h1M20 17h1" />
<path stroke="#ffdead" d="M14 14h1M14 15h1M17 15h1M17 16h1M14 19h1M15 20h4" />
<path stroke="#ffffff" d="M12 16h1M12 17h1M19 18h2" />
<path stroke="#bdad84" d="M14 16h1M17 17h1M13 19h1M16 22h2M16 23h1M18 24h1M18 25h1M20 25h1" />
<path stroke="#6bbd63" d="M13 17h1M18 18h1M18 19h1" />
<path stroke="#d6d6d6" d="M19 19h1" />
<path stroke="#848473" d="M14 20h1M17 21h1" />
<path stroke="#525252" d="M16 21h1" />
</svg>