<svg xmlns="http://www.w3.org/2000/svg" viewBox="0 -0.5 40 30" shape-rendering="crispEdges">
<metadata>Made with Pixels to Svg https://codepen.io/shshaw/pen/XbxvNj</metadata>
<path stroke="#313131" d="M28 13h2M27 14h1M29 14h1M12 15h4M24 15h3M29 15h1M11 16h2M16 16h4M22 16h2M29 16h1M11 17h1M20 17h2M28 17h1M11 18h1M13 18h1M17 18h1M28 18h1M10 19h1M12 19h1M15 19h1M18 19h1M28 19h1M9 20h2M15 20h1M18 20h1M29 20h1M8 21h1M16 21h2M29 21h1M8 22h1M26 22h1M28 22h2M9 23h1M13 23h1M25 23h1M27 23h2M10 24h3M14 24h2M19 24h3M25 24h1M16 25h3M22 25h1M25 25h1M21 26h1M24 26h1M21 27h2M24 27h1M22 28h2" />
<path stroke="#6b6b6b" d="M28 14h1M28 15h1M24 16h2M24 17h3M12 18h1M22 18h1M25 18h2M22 19h2M11 20h2M16 20h1M22 20h3M9 21h1M12 21h2M22 21h1M24 21h1M21 22h1M27 22h1M22 26h1M23 27h1" />
<path stroke="#e6bd7b" d="M27 15h1M26 16h3M16 17h4M22 17h2M27 17h1M15 18h1M18 18h3M23 18h2M19 19h1M24 19h2M27 19h1M13 20h2M19 20h1M21 20h1M25 20h1M27 20h2M10 21h1M14 21h2M20 21h2M9 22h2M12 22h6M19 22h2M23 22h1M10 23h2M22 23h2M22 24h2" />
<path stroke="#c5945a" d="M13 16h3M14 17h1M14 18h1M11 19h1M20 19h1M11 21h1M28 21h1M12 23h1M18 23h2M24 24h1M23 25h2M23 26h1" />
<path stroke="#ffffff" d="M12 17h1M16 19h1" />
<path stroke="#525252" d="M13 17h1M16 18h1M21 18h1M27 18h1M13 19h2M17 19h1M21 19h1M26 19h1M17 20h1M26 20h1M23 21h1M27 21h1M11 22h1M18 22h1M22 22h1M24 22h1M14 23h4M20 23h2M24 23h1M18 24h1" />
<path stroke="#946b4a" d="M15 17h1M20 20h1M18 21h2" />
<path stroke="#c5738c" d="M25 21h2M25 22h1M16 24h2" />
</svg>