<svg xmlns="http://www.w3.org/2000/svg" viewBox="0 -0.5 40 30" shape-rendering="crispEdges">
<metadata>Made with Pixels to Svg https://codepen.io/shshaw/pen/XbxvNj</metadata>
<path stroke="#313131" d="M28 2h3M26 3h2M31 3h1M25 4h1M30 4h1M14 5h1M24 5h1M31 5h2M11 6h1M13 6h1M15 6h1M17 6h1M24 6h1M33 6h1M10 7h1M12 7h2M16 7h1M18 7h1M23 7h1M33 7h1M9 8h1M18 8h3M23 8h1M34 8h1M9 9h1M21 9h1M23 9h1M34 9h1M8 10h2M20 10h1M24 10h1M34 10h1M7 11h1M21 11h2M24 11h1M34 11h1M8 12h1M23 12h1M35 12h1M9 13h1M32 13h1M34 13h2M9 14h1M31 14h1M33 14h1M8 15h1M11 15h1M16 15h1M31 15h1M9 16h1M29 16h2M8 17h1M29 17h1M9 18h2M29 18h2M11 19h1M31 19h1M10 20h1M22 20h1M30 20h1M10 21h1M21 21h1M23 21h1M29 21h1M11 22h1M20 22h1M24 22h1M29 22h1M10 23h1M20 23h2M23 23h1M27 23h2M10 24h1M14 24h1M21 24h1M23 24h1M27 24h1M9 25h1M13 25h1M15 25h1M21 25h1M24 25h3M10 26h3M16 26h1M20 26h1M16 27h1M20 27h1M17 28h3" />
<path stroke="#efce84" d="M28 3h3M26 4h3M25 5h6M14 6h1M25 6h7M14 7h1M17 7h1M24 7h6M31 7h1M13 8h2M16 8h2M24 8h7M10 9h1M13 9h4M25 9h5M10 10h1M13 10h4M26 10h2M10 11h2M13 11h3M11 12h5M11 13h5M20 13h2M12 14h3M19 14h2M10 15h1M14 15h1M10 16h1M19 16h1M10 17h2M14 17h1M18 17h3M12 18h6M29 19h2M21 20h1M29 20h1M19 21h1M28 21h1M13 22h1M16 22h1M19 22h1M27 22h2M13 23h1M15 23h3M19 23h1M13 24h1M15 24h2M16 25h1" />
<path stroke="#525252" d="M29 4h1M32 6h1M10 8h1M12 8h1M32 10h1M20 11h1M32 11h1M10 12h1M18 12h2M25 12h2M32 12h1M10 13h1M17 13h1M22 13h2M27 13h1M11 14h1M16 14h1M21 14h2M24 14h1M28 14h1M15 15h1M19 15h2M23 15h1M27 15h2M13 16h2M22 16h1M26 16h2M12 17h2M22 17h1M28 17h1M18 18h1M23 18h1M27 18h2M13 19h3M17 19h2M22 19h1M24 19h1M28 19h1M12 20h1M16 20h1M25 20h3M25 22h1M11 23h2M18 23h1M26 23h1M12 24h1M18 24h3M17 25h3" />
<path stroke="#cea573" d="M11 7h1M15 7h1M32 7h1M11 8h1M15 8h1M32 8h2M11 9h1M18 9h3M24 9h1M30 9h1M32 9h2M11 10h1M18 10h2M25 10h1M28 10h4M33 10h1M12 11h1M17 11h3M25 11h7M33 11h1M16 12h2M27 12h5M33 12h2M16 13h1M28 13h4M33 13h1M15 14h1M23 14h1M29 14h2M9 15h1M12 15h2M21 15h2M29 15h2M20 16h2M9 17h1M15 17h1M21 17h1M11 18h1M20 18h3M19 19h3M23 19h1M11 20h1M14 20h2M18 20h3M23 20h2M28 20h1M11 21h8M20 21h1M24 21h4M12 22h1M14 22h2M17 22h2M26 22h1M14 23h1M17 24h1" />
<path stroke="#ad7b52" d="M30 7h1M31 8h1M12 9h1M17 9h1M31 9h1M12 10h1M17 10h1M16 11h1M19 18h1M13 20h1M17 20h1" />
<path stroke="#d67b4a" d="M8 11h1M9 12h1M11 16h1M17 16h2M28 16h1M16 17h2M27 17h1M26 18h1M25 19h3M25 24h1M20 25h1M17 26h3M17 27h1M19 27h1" />
<path stroke="#b56342" d="M9 11h1M18 14h1M18 15h1M11 24h1M10 25h3M18 27h1" />
<path stroke="#f79c42" d="M20 12h3M24 12h1M18 13h2M24 13h3M25 14h3M24 15h3M15 16h2M23 16h3M23 17h4M24 18h2M24 23h2M24 24h1M26 24h1" />
<path stroke="#ffffff" d="M10 14h1M17 14h1M17 15h1M12 16h1M12 19h1M16 19h1" />
</svg>