<svg xmlns="http://www.w3.org/2000/svg" viewBox="0 -0.5 40 30" shape-rendering="crispEdges">
<metadata>Made with Pixels to Svg https://codepen.io/shshaw/pen/XbxvNj</metadata>
<path stroke="#313131" d="M19 8h1M17 9h2M20 9h2M17 10h1M21 10h1M16 11h1M21 11h1M15 12h1M22 12h1M14 13h1M23 13h1M14 14h1M23 14h1M11 15h2M14 15h1M23 15h1M10 16h1M13 16h2M23 16h1M10 17h1M22 17h1M11 18h1M14 18h1M23 18h2M12 19h3M22 19h1M25 19h3M15 20h1M21 20h1M23 20h1M28 20h1M14 21h1M21 21h1M24 21h1M28 21h1M13 22h1M18 22h1M22 22h1M25 22h3M13 23h1M17 23h1M19 23h1M23 23h1M13 24h1M15 24h2M19 24h1M24 24h1M14 25h1M20 25h1M24 25h1M21 26h2M24 26h1M23 27h1" />
<path stroke="#adc5c5" d="M19 9h1M18 11h1" />
<path stroke="#ffffff" d="M18 10h1M20 10h1M19 11h1M17 12h4M17 13h1M21 13h1M11 16h1M11 17h1M12 18h2M15 18h1M21 18h1M15 19h1M17 19h1M19 19h1M21 19h1M17 20h1M19 20h1M24 20h1M27 20h1M15 21h1M25 21h3M14 22h2M14 23h1M22 23h1M22 24h2M23 25h1" />
<path stroke="#8484b5" d="M19 10h1M20 11h1M16 17h1M21 17h1M17 18h4" />
<path stroke="#525252" d="M17 11h1M15 17h1M22 18h1M16 20h1M17 21h3" />
<path stroke="#9cd6ff" d="M16 12h1M21 12h1M15 13h2M18 13h3M22 13h1M16 14h3M20 14h3M16 15h2M19 15h4M12 16h1M15 16h3M19 16h3M12 17h3M17 17h4M16 18h1M18 19h1M20 19h1M23 19h2M25 20h2M16 21h1M16 22h1M20 22h1M15 23h1M20 23h2M14 24h1M20 24h2M21 25h2M23 26h1" />
<path stroke="#5a63ad" d="M15 14h1M18 15h1M20 21h1" />
<path stroke="#7ba5ff" d="M19 14h1M22 16h1M16 19h1M18 20h1M20 20h1M17 22h1M19 22h1M21 22h1M16 23h1" />
<path stroke="#d6525a" d="M15 15h1M18 16h1" />
</svg>