<svg xmlns="http://www.w3.org/2000/svg" viewBox="0 -0.5 40 30" shape-rendering="crispEdges">
<metadata>Made with Pixels to Svg https://codepen.io/shshaw/pen/XbxvNj</metadata>
<path stroke="#313131" d="M17 3h1M13 4h2M16 4h1M18 4h1M10 5h3M15 5h2M18 5h1M10 6h1M19 6h1M22 6h1M29 6h3M7 7h3M11 7h1M19 7h1M21 7h1M23 7h1M27 7h2M32 7h1M6 8h1M10 8h2M20 8h1M23 8h1M26 8h1M31 8h1M7 9h1M22 9h1M25 9h1M32 9h1M8 10h1M22 10h1M24 10h1M30 10h2M9 11h1M22 11h1M24 11h1M28 11h2M8 12h1M23 12h1M27 12h1M30 12h4M7 13h1M28 13h2M34 13h1M8 14h1M33 14h1M7 15h1M34 15h1M6 16h1M31 16h3M7 17h1M32 17h1M6 18h1M27 18h2M31 18h1M7 19h1M27 19h1M29 19h2M7 20h1M13 20h2M27 20h2M31 20h2M8 21h2M12 21h1M15 21h1M29 21h2M33 21h1M10 22h2M15 22h1M32 22h1M16 23h1M31 23h1M16 24h1M28 24h3M17 25h1M20 25h2M27 25h1M18 26h2M22 26h2M25 26h1M27 26h1M24 27h1M26 27h1" />
<path stroke="#6b5a5a" d="M17 4h1M13 5h2M17 5h1M15 6h1M17 6h1M16 7h1M16 8h1M21 8h1M29 10h1M26 11h2M25 12h2M22 13h4M14 14h1M21 14h4M26 14h3M19 15h1M22 15h1M25 15h1M29 15h2M18 16h1M26 16h2M17 17h3M27 17h5M10 18h1M15 18h1M29 18h2M10 19h1M13 19h2M16 19h1M26 19h1M23 20h1M10 21h1M23 21h1" />
<path stroke="#ad42ad" d="M11 6h2M12 7h2M18 7h1M7 8h3M12 8h3M18 8h1M8 9h3M13 9h3M17 9h3M10 10h2M13 10h1M17 10h3M18 11h1M20 12h2M8 13h2M19 13h2M15 14h1M14 15h1M7 16h2M20 16h2M23 16h2M21 17h2M24 17h1M7 18h1M25 18h1M19 19h1M18 23h1M19 24h1M23 24h1" />
<path stroke="#52424a" d="M13 6h2M16 6h1M18 6h1M15 7h1M17 7h1M15 8h1M17 8h1M19 8h1M30 8h1M12 9h1M16 9h1M20 9h1M12 10h1M15 10h1M20 10h1M11 11h1M13 11h1M17 11h1M19 11h3M10 12h1M18 12h1M22 12h1M10 13h1M15 13h2M18 13h1M21 13h1M26 13h2M9 14h1M16 14h1M19 14h2M25 14h1M32 14h1M8 15h2M15 15h1M18 15h1M20 15h2M23 15h2M26 15h3M9 16h2M17 16h1M19 16h1M22 16h1M25 16h1M28 16h3M8 17h1M11 17h1M15 17h2M20 17h1M23 17h1M26 17h1M12 18h3M16 18h1M18 18h3M26 18h1M9 19h1M12 19h1M15 19h1M18 19h1M25 19h1M11 20h1M15 20h1M19 20h1M26 20h1M17 21h1M19 21h1M22 21h1M25 21h2M16 22h1M18 22h1M20 22h1M24 22h2M21 23h3" />
<path stroke="#843a8c" d="M14 7h1M11 9h1M9 10h1M14 10h1M16 10h1M10 11h1M9 12h1M19 12h1M25 17h1M21 18h1M24 18h1M20 19h1M17 22h1M17 23h1M18 24h1M22 24h1M23 25h1" />
<path stroke="#7b7373" d="M22 7h1M29 7h3M22 8h1M27 8h3M21 9h1M26 9h6M21 10h1M25 10h4M25 11h1M24 12h1M30 13h4M29 14h3M31 15h3M17 18h1M17 19h1M12 20h1M16 20h3M11 21h1M16 21h1M18 21h1M31 21h2M31 22h1M30 23h1" />
<path stroke="#84adf7" d="M12 11h1M11 12h3M15 12h2M11 13h2M14 13h1M17 13h1M11 14h3M17 14h1M10 15h4M16 15h1M11 16h1M13 16h3M9 17h2M12 17h1M8 18h2M11 18h1M22 18h2M8 19h1M11 19h1M21 19h4M8 20h3M20 20h3M24 20h2M20 21h2M24 21h1M27 21h1M19 22h1M21 22h2M27 22h4M19 23h2M25 23h1M28 23h2M17 24h1M20 24h2M24 24h3M18 25h1M22 25h1M24 25h3M24 26h1M26 26h1" />
<path stroke="#5a84ce" d="M14 11h3M14 12h1M17 12h1M13 13h1M10 14h1M18 14h1M17 15h1M12 16h1M16 16h1M13 17h1M28 21h1M23 22h1M26 22h1M24 23h1M26 23h2M27 24h1M19 25h1" />
<path stroke="#b5b5b5" d="M14 17h1" />
</svg>