<svg xmlns="http://www.w3.org/2000/svg" viewBox="0 -0.5 40 30" shape-rendering="crispEdges">
<metadata>Made with Pixels to Svg https://codepen.io/shshaw/pen/XbxvNj</metadata>
<path stroke="#313131" d="M14 5h1M16 5h1M13 6h1M15 6h1M17 6h4M11 7h2M21 7h2M11 8h1M23 8h1M11 9h1M24 9h1M12 10h1M25 10h1M12 11h1M25 11h1M13 12h1M25 12h1M14 13h1M25 13h1M14 14h1M25 14h1M14 15h1M24 15h1M14 16h1M24 16h1M15 17h1M23 17h1M16 18h1M21 18h2M15 19h1M17 19h1M20 19h1M15 20h2M18 20h1M21 20h1M18 21h1M20 21h1M22 21h2M16 22h2M20 22h1M23 22h1M14 23h1M21 23h2M15 24h3M24 24h1M16 25h1M23 25h1M17 26h2M20 26h3M19 27h1" />
<path stroke="#737373" d="M14 6h1M16 6h1M14 7h3M15 8h1M14 9h3M14 10h3M14 12h1M22 15h1M22 16h1M19 19h1M19 20h1M18 22h2M16 23h2M19 23h2M20 24h3M18 25h1" />
<path stroke="#525252" d="M13 7h1M17 7h1M14 8h1M16 8h1M13 9h1M17 9h1M13 10h1M17 10h1M14 11h3M15 12h1M23 16h1M22 17h1M16 19h1M18 19h1M20 20h1M21 21h1M22 22h1M15 23h1M18 23h1M19 24h1M23 24h1M21 25h2" />
<path stroke="#d67352" d="M18 7h3M12 8h2M17 8h1M20 8h3M18 9h2M22 9h2M20 10h3M24 10h1M22 11h2M16 12h1M20 12h1M24 12h1M21 13h2M17 14h1M22 14h2M23 15h1M19 21h1" />
<path stroke="#f7944a" d="M18 8h2M12 9h1M20 9h2M18 10h2M23 10h1M21 11h1M24 11h1M23 12h1M17 13h1M24 13h1" />
<path stroke="#a55a4a" d="M13 11h1M17 11h4M21 12h2M15 13h1M23 13h1M24 14h1" />
<path stroke="#ffffff" d="M17 12h3M20 13h1M16 14h1M18 14h2M16 15h3M15 16h5M21 16h1M16 17h3M18 18h2M19 25h1M19 26h1" />
<path stroke="#bdbdbd" d="M16 13h1M18 13h2M20 14h2M17 18h1M18 24h1M17 25h1M20 25h1" />
<path stroke="#ef739c" d="M15 14h1M19 15h2M20 17h1" />
<path stroke="#c55a6b" d="M15 15h1M20 16h1M19 17h1" />
<path stroke="#d6d6d6" d="M21 15h1M21 17h1M20 18h1" />
</svg>