<svg xmlns="http://www.w3.org/2000/svg" viewBox="0 -0.5 40 30" shape-rendering="crispEdges">
<metadata>Made with Pixels to Svg https://codepen.io/shshaw/pen/XbxvNj</metadata>
<path stroke="#313131" d="M21 6h3M15 7h2M19 7h2M23 7h1M14 8h1M16 8h1M18 8h1M24 8h1M14 9h1M16 9h1M18 9h1M24 9h1M14 10h1M17 10h1M23 10h1M25 10h3M15 11h1M23 11h2M27 11h1M14 12h1M26 12h1M14 13h1M25 13h1M13 14h1M24 14h1M13 15h1M25 15h1M13 16h1M15 16h1M25 16h1M12 17h1M14 17h1M19 17h1M25 17h1M12 18h2M15 18h1M24 18h1M16 19h2M23 19h1M25 19h1M15 20h1M22 20h1M24 20h2M14 21h1M23 21h1M26 21h3M14 22h1M24 22h2M28 22h1M15 23h1M27 23h1M14 24h1M25 24h2M15 25h4M24 25h1M19 26h1M23 26h1M20 27h3" />
<path stroke="#525252" d="M21 7h1M20 8h1M23 8h1M16 10h1M23 18h1M16 20h1M18 20h1M21 20h1M17 21h1M20 21h1M22 21h1M16 22h1M20 22h1M16 23h1M21 23h1M24 23h1M17 24h1M21 24h1M24 24h1M19 25h1M22 25h2" />
<path stroke="#8cc54a" d="M22 7h1M19 8h1M21 8h1M19 9h1M21 9h1M23 9h1M18 10h1M22 10h1M16 11h5M25 11h2M15 12h7M23 12h3M15 13h1M19 13h5M21 14h1M22 15h3M23 16h2M23 17h1M24 19h1M25 23h1" />
<path stroke="#5a943a" d="M15 8h1M22 8h1M15 9h1M15 10h1M19 10h1M21 11h2M14 14h1M22 14h1M22 16h1M13 17h1M24 17h1M22 19h1M26 23h1" />
<path stroke="#4a6b3a" d="M20 9h1M22 9h1M20 10h2M22 12h1M16 13h3M24 13h1M15 14h1M19 14h2M23 14h1M14 15h1M21 15h1M14 16h1M22 17h1M22 18h1M21 19h1M20 20h1" />
<path stroke="#8c6342" d="M16 14h3M16 15h2M21 17h1M20 18h2M21 21h1M21 22h2M22 23h2M20 24h1M22 24h1" />
<path stroke="#ffffff" d="M15 15h1M19 16h1M20 26h1M22 26h1" />
<path stroke="#de9c63" d="M18 15h3M16 16h3M20 16h2M15 17h1M18 17h1M20 17h1M16 18h4M18 19h3M18 21h2M17 22h3M17 23h4M18 24h2M21 25h1" />
<path stroke="#e66331" d="M16 17h2M26 22h2" />
<path stroke="#73523a" d="M17 20h1M15 21h2M15 22h1M23 22h1M23 24h1" />
<path stroke="#bd7b4a" d="M19 20h1M16 24h1M20 25h1" />
<path stroke="#b5b5b5" d="M15 24h1M21 26h1" />
</svg>