<svg xmlns="http://www.w3.org/2000/svg" viewBox="0 -0.5 40 30" shape-rendering="crispEdges">
<metadata>Made with Pixels to Svg https://codepen.io/shshaw/pen/XbxvNj</metadata>
<path stroke="#313131" d="M11 6h2M11 7h1M13 7h1M18 7h2M12 8h1M14 8h2M17 8h1M19 8h1M27 8h3M12 9h1M16 9h1M19 9h3M25 9h2M29 9h1M13 10h1M21 10h1M23 10h2M28 10h1M13 11h1M22 11h1M26 11h2M14 12h1M25 12h1M14 13h1M24 13h1M13 14h1M15 14h1M25 14h1M13 15h1M19 15h1M25 15h1M12 16h2M19 16h1M26 16h1M11 17h1M26 17h1M11 18h1M26 18h1M10 19h1M26 19h1M10 20h1M13 20h2M26 20h1M29 20h2M11 21h2M15 21h1M27 21h2M30 21h1M16 22h1M29 22h1M15 23h1M27 23h2M15 24h1M18 24h1M25 24h2M16 25h2M19 25h1M24 25h1M20 26h1M24 26h1M21 27h3" />
<path stroke="#ce5231" d="M12 7h1M27 10h1" />
<path stroke="#5a943a" d="M13 8h1M13 9h1M14 11h1M22 12h1M23 13h1M22 15h1M22 16h1M12 17h1M22 17h1M12 18h1M21 18h1M11 19h2M19 19h2M23 21h2M26 21h1M20 22h2M26 22h2M19 23h2M25 23h2" />
<path stroke="#946b4a" d="M18 8h1M15 9h1M18 9h1M15 10h1M17 10h2M20 10h1M17 11h1M19 11h2M16 12h4M17 13h1M21 16h1M20 17h2M13 19h1M11 20h2M17 21h1M17 22h1M19 22h1M22 23h1M21 24h3M21 25h3" />
<path stroke="#525252" d="M14 9h1M17 9h1M14 10h1M16 10h1M19 10h1M15 11h2M18 11h1M21 11h1M15 12h1M20 12h1M16 13h1M18 13h2M16 14h2M20 14h1M14 15h2M18 15h1M13 17h2M13 18h1M15 18h1M19 18h1M24 18h1M14 19h1M17 19h2M24 19h1M21 20h1M25 20h1M21 21h1M25 21h1M22 22h1M25 22h1M17 23h2M23 23h2M16 24h1M24 24h1M20 25h1" />
<path stroke="#f7733a" d="M27 9h2M26 10h1M14 16h1M29 21h1M28 22h1" />
<path stroke="#8cc54a" d="M25 10h1M23 11h3M21 12h1M23 12h2M21 13h2M22 14h3M23 15h2M23 16h3M23 17h3M14 18h1M22 18h2M25 18h1M15 19h2M21 19h3M25 19h1M15 20h6M22 20h3M16 21h1M18 21h3M22 21h1M18 22h1M23 22h2" />
<path stroke="#efad63" d="M15 13h1M20 13h1M18 14h1M21 14h1M16 15h2M21 15h1M15 16h4M15 17h5M16 18h3M20 18h1" />
<path stroke="#ffffff" d="M14 14h1M20 15h1M20 16h1M21 26h1M23 26h1" />
<path stroke="#b57b4a" d="M19 14h1" />
<path stroke="#7b5a42" d="M16 23h1M21 23h1M17 24h1M19 24h2" />
<path stroke="#a5a5a5" d="M22 26h1" />
</svg>