<svg xmlns="http://www.w3.org/2000/svg" viewBox="0 -0.5 40 30" shape-rendering="crispEdges">
<metadata>Made with Pixels to Svg https://codepen.io/shshaw/pen/XbxvNj</metadata>
<path stroke="#313131" d="M15 2h4M14 3h1M19 3h2M14 4h1M21 4h1M11 5h3M22 5h1M10 6h1M22 6h1M9 7h1M21 7h1M29 7h3M9 8h1M21 8h2M28 8h1M32 8h1M10 9h1M23 9h1M28 9h1M32 9h1M11 10h1M24 10h1M27 10h1M31 10h1M11 11h1M24 11h1M26 11h1M31 11h1M12 12h1M15 12h1M22 12h2M26 12h1M30 12h1M11 13h1M22 13h1M24 13h2M30 13h1M10 14h1M23 14h1M28 14h2M11 15h1M28 15h1M12 16h1M28 16h1M13 17h1M29 17h1M12 18h1M29 18h1M12 19h1M24 19h2M29 19h1M13 20h2M24 20h1M26 20h1M30 20h1M14 21h1M23 21h1M25 21h1M30 21h1M13 22h1M22 22h1M25 22h1M30 22h1M13 23h1M18 23h1M23 23h1M25 23h2M29 23h2M13 24h1M17 24h1M23 24h1M26 24h3M14 25h3M18 25h1M23 25h1M18 26h1M22 26h1M19 27h3" />
<path stroke="#525252" d="M15 3h1M14 5h1M13 6h1M20 8h1M20 9h1M23 11h1M12 13h3M17 13h1M26 13h1M12 14h6M27 14h1M14 15h4M23 15h1M19 16h1M24 16h1M19 17h1M24 17h1M19 18h1M19 19h1M15 20h1M20 20h1M16 21h1M20 21h1M17 22h1M19 22h1M21 22h1M27 22h2M19 23h1M27 23h2M14 24h2M18 24h1M19 26h2" />
<path stroke="#dee6ce" d="M16 3h3M15 4h6M15 5h5M12 6h1M15 6h4M10 7h3M17 7h1M11 8h3M13 9h3M16 10h5M20 11h2M19 14h3M24 14h3M20 15h2M25 15h2M20 16h2M25 16h3M20 17h3M25 17h3M20 18h3M24 18h1M26 18h3M21 19h1M27 19h1M18 20h2M20 22h1M20 23h1" />
<path stroke="#a5ad8c" d="M20 5h2M11 6h1M19 6h3M18 7h3M12 9h1M21 9h2M15 10h1M21 10h3M19 11h1M19 13h3M19 15h1M27 15h1M22 16h1M28 17h1M25 18h1M20 19h1M18 21h2" />
<path stroke="#94de5a" d="M14 6h1M16 7h1M30 8h1M29 9h3M28 10h3M27 11h4M29 12h1M18 18h1M17 19h2M22 19h2M16 20h2M21 20h2M28 20h2M17 21h1M26 21h4M26 22h1M29 22h1M22 23h1M19 24h1M21 24h2M19 25h4" />
<path stroke="#63bd42" d="M13 7h3M14 8h3M19 9h1M12 11h1M14 11h1M13 12h1M27 12h2M28 13h2M16 16h1M18 16h1M16 17h3M15 18h3M15 19h2M26 19h1M28 19h1M23 20h1M27 20h1M15 21h1M21 21h2M14 22h3M14 23h4M21 23h1M16 24h1M20 24h1M21 26h1" />
<path stroke="#848c6b" d="M10 8h1M11 9h1M12 10h3M15 11h4M22 11h1M19 12h3M24 15h1M13 16h1M14 17h1M18 22h1" />
<path stroke="#5a8442" d="M17 8h3M29 8h1M31 8h1M16 9h3M13 11h1M27 13h1M13 18h1M13 19h1" />
<path stroke="#4a737b" d="M14 12h1M11 14h1" />
<path stroke="#d63131" d="M16 12h1" />
<path stroke="#ffffff" d="M17 12h1M15 13h2" />
<path stroke="#424242" d="M18 12h1M18 13h1M18 14h1M22 14h1M12 15h2M18 15h1M22 15h1M14 16h2M17 16h1M23 16h1M15 17h1M23 17h1M14 18h1M23 18h1M14 19h1" />
</svg>