<svg xmlns="http://www.w3.org/2000/svg" viewBox="0 -0.5 40 30" shape-rendering="crispEdges">
<metadata>Made with Pixels to Svg https://codepen.io/shshaw/pen/XbxvNj</metadata>
<path stroke="#313131" d="M15 1h2M14 2h1M16 2h1M18 2h2M13 3h1M17 3h1M19 3h1M9 4h2M13 4h1M18 4h1M9 5h1M11 5h2M19 5h2M9 6h1M21 6h2M10 7h1M23 7h1M26 7h2M8 8h2M22 8h1M26 8h1M28 8h1M8 9h1M23 9h1M26 9h1M28 9h1M30 9h1M9 10h1M22 10h1M26 10h1M29 10h1M31 10h1M9 11h1M21 11h1M25 11h1M31 11h1M10 12h1M14 12h1M20 12h1M25 12h1M30 12h1M10 13h1M21 13h1M23 13h2M30 13h1M9 14h1M22 14h1M29 14h1M10 15h1M28 15h1M11 16h1M27 16h1M11 17h1M28 17h1M11 18h1M14 18h1M28 18h1M12 19h2M15 19h1M23 19h2M28 19h1M14 20h1M22 20h1M25 20h1M29 20h1M14 21h1M21 21h1M25 21h1M29 21h1M13 22h1M21 22h1M24 22h1M29 22h1M12 23h1M17 23h2M22 23h1M24 23h2M28 23h1M12 24h1M16 24h1M18 24h1M22 24h1M25 24h3M13 25h3M17 25h1M22 25h1M17 26h1M21 26h1M18 27h3" />
<path stroke="#dee6ce" d="M15 2h1M15 3h1M18 3h1M14 4h2M17 4h1M10 5h1M13 5h5M11 6h1M14 6h7M11 7h9M12 8h5M27 8h1M9 9h6M17 9h1M27 9h1M10 10h1M12 10h5M19 10h1M27 10h2M12 11h3M17 11h3M26 11h3M13 12h1M18 12h2M26 12h3M18 13h3M26 13h2M18 14h3M23 14h3M19 15h3M24 15h2M17 16h1M19 16h5M25 16h2M17 17h1M19 17h3M24 17h3M16 18h2M20 18h1M23 18h1M25 18h3M16 19h3M21 19h1M25 19h2M17 20h4M18 21h3M19 22h2M19 23h3M19 24h3M18 25h3M20 26h1" />
<path stroke="#a5ad8c" d="M14 3h1M10 6h1M20 7h3M19 8h2M19 9h4M18 10h1M21 10h1M30 10h1M10 11h1M30 11h1M11 12h1M29 12h1M25 13h1M28 13h2M27 14h2M18 15h1M26 15h1M15 16h1M15 17h1M22 17h1M27 17h1M24 18h1M22 19h1M27 19h1M15 20h2M21 20h1M26 20h3M15 21h2M26 21h3M14 22h3M25 22h1M28 22h1M13 23h4M15 24h1" />
<path stroke="#525252" d="M16 3h1M18 5h1M10 8h1M17 8h2M21 8h1M16 9h1M18 9h1M17 10h1M20 10h1M20 11h1M29 11h1M11 13h2M11 14h3M16 14h1M21 14h1M26 14h1M13 15h4M22 15h2M27 15h1M18 16h1M24 16h1M18 17h1M23 17h1M18 18h1M21 18h2M19 19h2M17 21h1M18 22h1M26 22h2M26 23h2M13 24h2M18 26h2" />
<path stroke="#848c6b" d="M16 4h1M12 6h2M11 8h1M15 9h1M11 10h1M12 16h1M12 17h2M16 17h1M12 18h2M15 18h1M19 18h1M17 22h1M21 25h1" />
<path stroke="#424242" d="M11 11h1M12 12h1M17 12h1M13 13h1M16 13h2M14 14h2M17 14h1M11 15h2M17 15h1M13 16h2M16 16h1M14 17h1" />
<path stroke="#4a737b" d="M15 11h2M10 14h1" />
<path stroke="#d63131" d="M15 12h1" />
<path stroke="#ffffff" d="M16 12h1M14 13h2" />
</svg>