<svg xmlns="http://www.w3.org/2000/svg" viewBox="0 -0.5 40 30" shape-rendering="crispEdges">
<metadata>Made with Pixels to Svg https://codepen.io/shshaw/pen/XbxvNj</metadata>
<path stroke="#212121" d="M13 5h2M20 5h2M12 6h1M15 6h1M19 6h1M22 6h2M11 7h1M16 7h1M18 7h2M24 7h1M11 8h1M17 8h1M25 8h2M11 9h1M27 9h1M12 10h1M28 10h1M12 11h1M28 11h1M12 12h1M29 12h1M12 13h1M30 13h1M11 14h1M30 14h1M11 15h1M31 15h1M11 16h1M31 16h1M12 17h1M31 17h1M12 18h1M30 18h1M11 19h1M31 19h1M11 20h1M31 20h1M11 21h1M17 21h1M29 21h2M12 22h1M29 22h1M12 23h1M30 23h1M13 24h1M22 24h2M30 24h1M14 25h1M16 25h1M20 25h2M24 25h1M29 25h1M15 26h1M17 26h1M19 26h1M25 26h1M27 26h1M29 26h1M18 27h1M26 27h1M28 27h1" />
<path stroke="#636b7b" d="M13 6h1M20 6h2M12 7h1M20 7h4M20 8h5M21 9h4M23 10h1M14 16h1M13 17h1M19 17h1M13 18h1M18 18h1M17 19h1M17 20h1M17 22h4M13 23h1M16 23h2M14 24h3" />
<path stroke="#424a52" d="M14 6h1M13 7h3M12 8h2M15 8h2M19 8h1M13 9h5M19 9h2M25 9h1M13 10h2M16 10h4M21 10h2M24 10h2M13 11h5M19 11h1M23 11h4M14 12h2M20 12h1M23 12h4M14 13h2M17 13h4M23 13h4M13 14h1M15 14h1M17 14h1M20 14h6M14 15h1M16 15h2M19 15h4M13 16h1M15 16h5M21 16h1M27 16h2M14 17h1M18 17h1M20 17h1M26 17h1M29 17h1M14 18h1M17 18h1M19 18h3M25 18h1M12 19h2M16 19h1M18 19h1M21 19h1M25 19h1M12 20h2M16 20h1M18 20h1M22 20h1M26 20h2M12 21h2M16 21h1M20 21h1M22 21h1M28 21h1M13 22h1M16 22h1M21 22h1M14 23h2M18 23h2M21 23h2M17 24h1M20 24h2M15 25h1M17 25h3M18 26h1" />
<path stroke="#ffad52" d="M14 8h1M15 10h1" />
<path stroke="#a5a584" d="M18 8h1M18 9h1M26 9h1M26 10h2M27 11h1M27 13h1M12 14h1M26 14h1M12 15h2M15 15h1M23 15h2M26 15h1M12 16h1M22 16h3M21 17h3M22 18h1" />
<path stroke="#525a63" d="M12 9h1M20 10h1M18 11h1M20 11h3M13 12h1M17 12h3M21 12h2M13 13h1M16 13h1M21 13h2M14 14h1M16 14h1M18 14h2M18 15h1" />
<path stroke="#ce8452" d="M16 12h1" />
<path stroke="#5a5a42" d="M27 12h1M25 15h1M30 15h1M26 16h1M30 16h1M30 17h1M24 20h1M23 21h1M26 21h1M25 22h1M24 23h1M24 24h1" />
<path stroke="#7b7b63" d="M28 12h1M28 13h2M27 14h3M27 15h3M20 16h1M25 16h1M29 16h1M24 17h2M23 18h2M22 19h3M23 20h1M25 20h1M24 21h2M22 22h3M23 23h1" />
<path stroke="#c5b594" d="M15 17h3M27 17h2M15 18h2M26 18h1M28 18h2M15 19h1M19 19h2M26 19h3M14 20h2M14 21h2M27 21h1M14 22h1M26 22h3M27 23h2" />
<path stroke="#8c846b" d="M27 18h1M14 19h1M29 19h1M20 20h2M28 20h1M21 21h1M15 22h1M20 23h1M25 23h1M29 23h1M18 24h2M25 24h5M25 25h1" />
<path stroke="#ffffff" d="M30 19h1M19 20h1M29 20h2M19 21h1" />
<path stroke="#e64a29" d="M18 21h1" />
<path stroke="#736b4a" d="M26 23h1M26 25h3" />
<path stroke="#cecece" d="M26 26h1M28 26h1" />
</svg>