<svg xmlns="http://www.w3.org/2000/svg" viewBox="0 -0.5 40 30" shape-rendering="crispEdges">
<metadata>Made with Pixels to Svg https://codepen.io/shshaw/pen/XbxvNj</metadata>
<path stroke="#212121" d="M19 4h4M18 5h1M23 5h1M18 6h1M23 6h1M13 7h1M17 7h2M23 7h1M12 8h1M14 8h1M16 8h1M24 8h1M11 9h1M15 9h1M25 9h1M11 10h1M26 10h1M11 11h1M26 11h1M12 12h1M27 12h1M13 13h2M27 13h1M15 14h1M20 14h1M27 14h1M14 15h1M20 15h1M27 15h1M14 16h1M28 16h1M13 17h1M28 17h1M12 18h1M29 18h1M11 19h1M30 19h1M12 20h1M24 20h2M31 20h1M13 21h2M24 21h1M26 21h1M31 21h1M15 22h1M23 22h1M27 22h1M30 22h1M16 23h1M22 23h1M28 23h2M16 24h1M22 24h1M17 25h1M21 25h1M18 26h2M21 26h1M20 27h1" />
<path stroke="#525252" d="M19 5h1M22 5h1M19 8h1M16 9h2M20 9h1M20 10h4M19 11h1M22 11h1M24 11h1M17 12h2M23 12h1M15 13h2M23 13h1M23 14h1M15 15h1M22 15h1M16 16h1M21 16h1M23 16h1M17 17h1M21 17h1M23 17h1M16 18h2M20 18h1M22 18h1M24 18h1M15 19h1M20 19h1M23 19h1M25 19h1M14 20h1M19 20h1M21 20h1M19 21h2M17 23h1M18 24h1M19 25h1" />
<path stroke="#e6848c" d="M20 5h1M19 12h2M19 13h1M18 18h2M17 19h3" />
<path stroke="#ad3a6b" d="M21 5h1M20 6h2M20 7h2M20 13h3M19 14h1M21 18h1M16 19h1M21 19h1M17 20h2M20 20h1M20 23h1M17 24h1M19 24h3M18 25h1M20 25h1M20 26h1" />
<path stroke="#e6e600" d="M19 6h1M22 6h1M19 7h1M22 7h1M24 14h1M26 14h1M24 15h1M13 18h1M15 18h1M14 19h1M26 19h1M28 19h1M26 20h1M28 20h2M27 21h1M29 21h1" />
<path stroke="#add673" d="M13 8h1M17 8h1M23 8h1M12 9h3M18 9h2M21 9h4M12 10h8M24 10h2M12 11h7M25 11h1M13 12h4M26 12h1" />
<path stroke="#6ba542" d="M18 8h1M20 8h3M23 11h1M24 12h2M24 13h3M25 14h1M23 15h1M25 15h2M15 16h1M22 16h1M24 16h4M14 17h3M22 17h1M24 17h4M14 18h1M23 18h1M25 18h4M12 19h2M24 19h1M27 19h1M29 19h1M13 20h1M27 20h1M30 20h1M28 21h1M30 21h1M28 22h2" />
<path stroke="#ffefef" d="M20 11h2M21 12h2M18 13h1M16 14h3M21 14h2M17 15h3M22 19h1M15 20h1M22 20h2M15 21h1M17 21h2M21 21h3M17 22h3M21 22h2M18 23h1" />
<path stroke="#bdadc5" d="M17 13h1M16 20h1M16 21h1M16 22h1M20 22h1M19 23h1M21 23h1" />
<path stroke="#bd636b" d="M16 15h1M21 15h1M17 16h4M18 17h3" />
</svg>