<svg xmlns="http://www.w3.org/2000/svg" viewBox="0 -0.5 40 30" shape-rendering="crispEdges">
<metadata>Made with Pixels to Svg https://codepen.io/shshaw/pen/XbxvNj</metadata>
<path stroke="#212121" d="M23 2h3M22 3h1M26 3h1M21 4h1M26 4h1M20 5h1M25 5h1M19 6h1M24 6h1M19 7h1M24 7h1M17 8h2M24 8h1M10 9h3M15 9h2M25 9h1M9 10h1M13 10h2M26 10h1M10 11h2M27 11h1M12 12h2M27 12h1M14 13h1M28 13h1M14 14h1M28 14h1M15 15h2M18 15h1M28 15h1M16 16h1M18 16h1M22 16h1M28 16h1M15 17h1M22 17h1M28 17h1M14 18h1M27 18h1M15 19h1M27 19h1M14 20h1M27 20h3M15 21h3M30 21h1M17 22h1M29 22h1M16 23h1M30 23h1M16 24h1M25 24h5M16 25h1M24 25h1M17 26h1M22 26h2M18 27h4" />
<path stroke="#846ba5" d="M23 3h1M19 8h3M10 10h2M15 10h1M13 11h4M17 12h1M19 13h1M26 13h1M15 14h1M25 15h1M19 21h1M18 22h1M18 23h1M18 24h2M23 24h1M20 26h1" />
<path stroke="#9c7bce" d="M24 3h2M22 4h2M21 5h2M20 6h2M20 7h1M17 9h7M16 10h8M17 11h7M18 12h4M17 25h1M18 26h2" />
<path stroke="#525252" d="M24 4h2M23 5h1M22 6h1M21 7h1M22 8h2M24 9h1M12 10h1M12 11h1M14 12h3M15 13h4M16 14h2M19 14h2M21 15h2M23 16h1M16 17h1M18 17h1M24 17h2M27 17h1M17 18h1M19 18h1M23 18h1M25 18h2M19 19h5M26 19h1M18 20h3M22 20h1M26 20h1M18 21h1M20 21h3M25 21h1M19 22h1M21 22h3M17 23h1M19 23h1M21 23h5M17 24h1M20 24h3M18 25h3M23 25h1M21 26h1" />
<path stroke="#b5d6ff" d="M24 5h1M23 6h1M22 7h2M27 14h1M15 18h2M16 19h2M15 20h3M26 21h4M20 22h1M24 22h5M26 23h4" />
<path stroke="#73633a" d="M24 10h2M24 11h1M22 12h3M26 12h1M20 13h2M24 13h1M27 13h1M24 14h3M24 15h1M26 15h2M24 16h1M27 16h1" />
<path stroke="#ffffff" d="M25 11h1M25 12h1M23 13h1M25 13h1M21 14h3M23 15h1" />
<path stroke="#cecece" d="M26 11h1M22 13h1M19 16h1M25 16h2M19 17h1M26 17h1M21 20h1M24 24h1M21 25h2" />
<path stroke="#adadad" d="M18 14h1M19 15h2" />
<path stroke="#4aad9c" d="M17 15h1M21 16h1M21 17h1M23 17h1" />
<path stroke="#8cdec5" d="M17 16h1M22 18h1" />
<path stroke="#636363" d="M20 16h1M20 17h1M20 18h2" />
<path stroke="#94a5ce" d="M17 17h1M18 18h1M24 18h1M18 19h1M24 19h2M23 20h3M23 21h2M20 23h1" />
</svg>