<svg xmlns="http://www.w3.org/2000/svg" viewBox="0 -0.5 40 30" shape-rendering="crispEdges">
<metadata>Made with Pixels to Svg https://codepen.io/shshaw/pen/XbxvNj</metadata>
<path stroke="#212121" d="M14 1h2M14 2h1M16 2h1M21 2h2M14 3h1M16 3h1M20 3h1M22 3h1M14 4h1M16 4h1M19 4h1M21 4h1M15 5h1M17 5h1M19 5h1M21 5h1M15 6h1M18 6h1M20 6h1M15 7h1M20 7h2M10 8h2M14 8h1M22 8h1M10 9h1M12 9h2M23 9h1M11 10h1M23 10h1M10 11h1M24 11h1M26 11h2M9 12h1M25 12h1M27 12h1M9 13h1M27 13h1M9 14h1M28 14h1M8 15h1M29 15h1M8 16h1M30 16h1M8 17h1M13 17h2M23 17h1M30 17h1M9 18h1M13 18h1M15 18h1M22 18h1M24 18h1M29 18h1M9 19h1M12 19h1M15 19h1M22 19h1M24 19h2M29 19h1M10 20h2M14 20h1M22 20h1M24 20h1M29 20h1M14 21h1M23 21h1M28 21h1M13 22h1M23 22h1M28 22h1M13 23h1M23 23h2M27 23h1M12 24h1M16 24h2M24 24h3M12 25h1M15 25h1M18 25h1M22 25h1M24 25h1M12 26h1M14 26h1M18 26h1M21 26h1M23 26h2M13 27h1M19 27h1M21 27h1M19 28h1M21 28h1M20 29h1" />
<path stroke="#525252" d="M15 2h1M21 3h1M15 4h1M20 5h1M16 6h2M17 7h3M15 8h3M19 8h1M21 8h1M15 9h1M17 9h3M22 9h1M13 10h1M15 10h3M19 10h1M11 11h5M17 11h2M22 11h1M13 12h2M18 12h1M21 12h1M13 13h1M17 13h6M24 13h1M26 13h1M12 14h1M15 14h4M22 14h2M25 14h1M9 15h3M14 15h1M16 15h1M23 15h1M26 15h2M10 16h1M12 16h6M22 16h1M10 17h2M16 17h1M18 17h4M11 18h2M16 18h1M21 18h1M10 19h2M17 19h4M26 19h3M15 20h2M21 20h1M16 21h5M22 21h1M17 22h2M21 22h1M24 22h2M27 22h1M14 23h1M17 23h1M21 23h1M25 23h2M15 24h1M19 24h3M21 25h1" />
<path stroke="#ff523a" d="M15 3h1M20 4h1M16 5h1M19 6h1M16 7h1M18 8h1M14 9h1M20 9h2M20 10h1M19 11h1M23 11h1M22 12h3M12 13h1M23 13h1M11 14h1M19 14h3M20 15h3M28 15h1M20 16h2M24 16h1M29 16h1M15 17h1M24 17h2M29 17h1M17 18h1M19 18h1M25 18h1M16 19h1M17 20h3M25 20h2M16 22h1M22 22h1M15 23h1M18 23h1M22 23h1M18 24h1M14 25h1" />
<path stroke="#ff944a" d="M20 8h1M15 15h1M17 15h3M18 16h2M17 17h1M22 17h1M18 18h1M30 18h2M30 19h2" />
<path stroke="#8c8c8c" d="M11 9h1M16 9h1M12 10h1M14 10h1M18 10h1M22 10h1M21 11h1M19 12h2M26 12h1M16 13h1M25 13h1M26 14h2" />
<path stroke="#a54a42" d="M21 10h1M20 11h1M10 12h2M10 13h1M24 14h1M25 15h1M9 16h1M26 16h2M9 17h1M27 17h1M10 18h1M27 18h1M28 20h1M15 21h1M21 21h1M27 21h1M14 22h1M19 22h2M26 22h1M19 23h2M13 24h1M19 25h2M13 26h1M19 26h1M20 27h1" />
<path stroke="#adadad" d="M16 11h1M15 12h3" />
<path stroke="#84423a" d="M12 12h1M11 13h1M10 14h1M24 15h1M23 16h1M25 16h1M28 16h1M12 17h1M26 17h1M28 17h1M26 18h1M28 18h1M27 20h1M24 21h3M15 22h1M14 24h1M22 24h2M13 25h1M23 25h1M20 26h1M20 28h1" />
<path stroke="#cecece" d="M14 13h2M13 15h1" />
<path stroke="#ce523a" d="M28 13h1M29 14h1M30 15h1M31 16h1M31 17h1M20 18h1M32 18h1M21 19h1M32 19h1M20 20h1M30 20h2M16 23h1" />
<path stroke="#efefef" d="M13 14h2M12 15h1M11 16h1" />
</svg>