<svg xmlns="http://www.w3.org/2000/svg" viewBox="0 -0.5 40 30" shape-rendering="crispEdges">
<metadata>Made with Pixels to Svg https://codepen.io/shshaw/pen/XbxvNj</metadata>
<path stroke="#313131" d="M20 10h2M18 11h2M22 11h2M17 12h1M24 12h1M12 13h3M16 13h1M25 13h1M11 14h1M15 14h1M25 14h1M10 15h1M16 15h1M26 15h1M10 16h1M21 16h1M26 16h2M11 17h2M28 17h1M13 18h1M28 18h1M14 19h1M29 19h1M13 20h1M30 20h1M12 21h1M30 21h1M12 22h1M30 22h1M13 23h1M29 23h1M13 24h1M28 24h1M14 25h1M17 25h1M26 25h2M15 26h2M18 26h1M23 26h3M19 27h4" />
<path stroke="#8cb58c" d="M20 11h2M18 12h1M20 12h4M17 13h8M12 14h2M17 14h4M23 14h1M12 15h3M17 15h2M25 15h1M11 16h1M13 16h1M15 16h2M24 16h1M15 17h4M17 18h5M25 20h1M24 21h3M25 22h1M22 23h1M24 24h1" />
<path stroke="#a5cea5" d="M19 12h1M11 15h1M23 22h2M24 23h1" />
<path stroke="#4a7b42" d="M14 14h1M17 16h3M25 17h2M24 18h2M28 19h1M28 20h1M14 21h1M14 22h1M29 22h1M15 23h1M19 25h3" />
<path stroke="#ffffff" d="M16 14h1M15 15h1M21 15h2M20 16h1M22 16h1M20 17h2M20 19h1" />
<path stroke="#739c6b" d="M21 14h1M24 14h1M19 15h2M24 15h1M12 16h1M13 17h1M19 17h1M22 17h1M27 17h1M14 18h1M26 18h2M24 19h2M27 19h1M14 20h2M23 20h2M26 20h1M29 20h1M13 21h1M28 21h2M13 22h1M22 22h1M26 22h1M28 22h1M14 23h1M23 23h1M25 23h1M27 23h2M14 24h3M20 24h2M23 24h1M26 24h2M15 25h2M22 25h1M25 25h1M19 26h4" />
<path stroke="#525252" d="M22 14h1M23 15h1M14 16h1M23 16h1M14 17h1M15 18h2M22 18h1M15 19h1M17 19h3M21 19h1M26 19h1M17 20h4M27 20h1M16 21h2M20 21h1M22 21h2M27 21h1M17 22h3M21 22h1M27 22h1M21 23h1M26 23h1M22 24h1M25 24h1M23 25h2" />
<path stroke="#d6c542" d="M25 16h1M23 17h2M16 19h1M16 20h1M20 23h1M17 24h1M19 24h1" />
<path stroke="#ffef42" d="M23 18h1M22 19h2M21 20h2M15 21h1M21 21h1M15 22h2M20 22h1M16 23h4M18 24h1M18 25h1" />
<path stroke="#739cde" d="M18 21h2" />
</svg>