<svg xmlns="http://www.w3.org/2000/svg" viewBox="0 -0.5 96 96" shape-rendering="crispEdges">
<metadata>Made with Pixels to Svg https://codepen.io/shshaw/pen/XbxvNj</metadata>
<path stroke="#101010" d="M45 33h6M51 34h3M54 35h2M56 36h1M57 37h1M58 38h1M59 39h1M60 40h1M60 41h1M61 42h1M61 43h1M61 44h1M62 45h1M62 46h1M62 47h1M62 48h1M62 49h1M47 50h1M62 50h1M47 51h1M61 51h1M37 52h1M61 52h1M61 53h1M60 54h1M60 55h1M36 56h1M59 56h1M37 57h1M58 57h1M38 58h1M57 58h1M39 59h1M56 59h1M40 60h2M54 60h2M42 61h3M51 61h3M45 62h6" />
<path stroke="#831010" d="M42 34h3M40 35h2M39 36h1M38 37h1M37 38h1M36 39h1M35 40h1M35 41h1M34 42h1M34 43h1M34 44h1M52 44h1M33 45h1M53 45h1M33 46h1M53 46h1M33 47h1M50 47h2M33 48h1M48 48h2M33 49h1M41 49h1M47 49h1M33 50h1M37 50h1M41 50h1M45 50h2M34 51h5M42 51h2M34 52h1M39 52h1M44 52h1M34 53h1M35 54h1M35 55h1" />
<path stroke="#d53141" d="M45 34h1M50 34h1M53 35h1M55 36h1M56 37h1M57 38h1M58 39h1M59 40h1M60 42h1M60 43h1M59 44h2M59 45h3M59 46h3M52 47h1M58 47h4M41 48h1M52 48h1M58 48h3M37 49h1M52 49h1M58 49h3M34 50h1M52 50h1M57 50h3M41 51h1M57 51h2M42 52h2M51 52h1M56 52h2M35 53h1M39 53h1M46 53h4M55 53h1M36 55h1" />
<path stroke="#ff5220" d="M46 34h4M43 35h10M41 36h14M40 37h16M39 38h18M38 39h20M37 40h2M42 40h17M36 41h2M43 41h17M36 42h2M43 42h17M35 43h3M43 43h16M35 44h4M42 44h10M53 44h6M35 45h18M54 45h5M34 46h19M54 46h4M34 47h7M42 47h1M45 47h5M53 47h5M34 48h7M42 48h1M45 48h3M53 48h5M35 49h2M38 49h3M42 49h5M53 49h4M35 50h2M38 50h3M42 50h3M53 50h4M39 51h2M44 51h1M53 51h3M40 52h2M52 52h3M40 53h5M51 53h3M39 54h14M37 55h14M40 56h8" />
<path stroke="#ee4131" d="M42 35h1M40 36h1M39 37h1M38 38h1M37 39h1M36 40h1M35 42h1M59 43h1M34 45h1M58 46h1M41 47h1M34 49h1M57 49h1M52 51h1M56 51h1M55 52h1M45 53h1M50 53h1M54 53h1M36 54h3M53 54h1M51 55h1M39 56h1M48 56h1" />
<path stroke="#ff835a" d="M39 40h3M38 41h1M42 41h1M38 42h1M42 42h1M38 43h1M42 43h1M39 44h3M44 47h1M43 48h2" />
<path stroke="#ffac9c" d="M39 41h3M39 42h3M39 43h3M43 47h1" />
<path stroke="#ded5d5" d="M50 48h2M48 49h2M45 51h1M35 52h2M45 52h1M49 56h2M38 57h1M46 57h3M39 58h7" />
<path stroke="#b4acbd" d="M61 48h1M61 49h1M60 50h2M59 51h2M38 52h1M58 52h3M56 53h5M54 54h6M52 55h8M51 56h8M49 57h9M46 58h11M40 59h16M42 60h12M45 61h6" />
<path stroke="#ffffff" d="M50 49h2M48 50h4M46 51h1M48 51h4M46 52h5M36 53h3M37 56h2M39 57h7" />
</svg>