<svg xmlns="http://www.w3.org/2000/svg" viewBox="0 -0.5 96 96" shape-rendering="crispEdges">
<metadata>Made with Pixels to Svg https://codepen.io/shshaw/pen/XbxvNj</metadata>
<path stroke="#101010" d="M47 28h1M48 29h1M54 29h1M48 30h1M54 30h1M49 31h1M54 31h1M43 32h1M49 32h1M54 32h1M43 33h1M54 33h1M57 33h1M57 34h1M57 35h1M56 36h1M56 37h1M51 38h2M55 38h1M53 39h3M63 39h1M55 40h1M63 40h1M43 41h2M56 41h1M41 42h2M57 42h1M62 42h1M39 43h1M58 43h1M61 43h1M21 44h1M38 44h1M41 44h1M59 44h1M61 44h4M22 45h1M37 45h1M58 45h3M24 46h1M37 46h1M55 46h3M72 46h1M26 47h1M33 47h2M52 47h3M70 47h2M27 48h1M31 48h2M36 48h2M50 48h2M68 48h2M49 49h1M67 49h1M42 50h1M50 50h2M66 50h1M29 51h1M46 51h1M52 51h3M29 52h1M55 52h3M65 52h1M67 52h1M29 53h1M58 53h3M65 53h1M67 53h1M30 54h1M58 54h1M61 54h4M66 54h1M30 55h1M56 55h1M66 55h1M31 56h2M54 56h2M64 56h2M33 57h2M52 57h1M35 58h3M48 58h4M38 59h10M53 60h1M54 61h1M56 62h3" />
<path stroke="#626262" d="M46 29h1M53 29h1M46 30h1M52 30h1M46 31h1M51 31h1M44 32h1M51 32h1M45 33h1M50 33h1M56 33h1M43 34h1M54 34h2M43 35h1M53 35h1M45 36h2M48 37h3M55 37h1M59 39h4M57 40h2M62 41h1M22 43h6M28 44h3M60 44h1M65 44h3M23 45h1M31 45h1M68 45h4M25 46h1M28 49h2M58 55h1M58 56h1M57 57h1M57 58h1M52 59h1M57 59h1M58 60h1M55 61h1M58 61h1" />
<path stroke="#e6e6e6" d="M47 29h1M47 30h1M53 30h1M47 31h1M53 31h1M47 32h2M52 32h2M44 33h1M47 33h3M51 33h2M44 34h6M51 34h1M44 35h7M47 36h3M22 44h6M24 45h4M61 45h7M26 46h1M58 46h14M58 47h12M57 48h11M57 49h10M56 50h10M56 51h10M58 52h7M61 53h4M56 59h1M55 60h3M56 61h2" />
<path stroke="#a4a4a4" d="M48 31h1M52 31h1M46 32h1M46 33h1M53 33h1M50 34h1M52 34h2M56 34h1M51 35h2M54 35h3M50 36h6M51 37h4M53 38h2M59 40h4M57 41h5M58 42h4M59 43h2M28 45h3M27 46h5M27 47h5M55 47h3M28 48h3M52 48h5M50 49h7M52 50h4M55 51h1M56 56h2M54 57h3M52 58h5M53 59h3M54 60h1" />
<path stroke="#203139" d="M42 36h3M39 37h3M37 38h2M35 39h3M34 40h1M36 40h1M33 41h1M35 41h1M33 42h2M32 43h1M34 43h1M64 43h3M32 44h1M34 44h1M32 45h2M33 46h1M32 47h1M68 49h1M68 50h1M51 51h1M67 51h1M52 52h1M57 53h1" />
<path stroke="#415252" d="M42 37h6M39 38h12M38 39h5M52 39h1M35 40h1M37 40h4M34 41h1M36 41h3M35 42h3M33 43h1M35 43h2M33 44h1M35 44h2M34 45h2M32 46h1M34 46h1M38 46h1" />
<path stroke="#004a9c" d="M43 39h2M50 39h2M41 40h1M46 40h4M54 40h1M39 41h1M45 41h1M51 41h3M38 42h1M40 42h1M43 42h1M55 42h1M37 43h1M40 43h1M43 43h1M56 43h1M39 44h1M43 44h1M58 44h1M36 45h1M39 45h1M42 45h1M35 46h1M39 46h2M35 47h2" />
<path stroke="#2083d5" d="M45 39h5M42 40h4M50 40h4M40 41h3M54 41h2M39 42h1M56 42h1M38 43h1M41 43h2M57 43h1M37 44h1M40 44h1M42 44h1M40 45h2M36 46h1" />
<path stroke="#184a18" d="M46 41h1M48 41h1M48 42h1M49 44h1M49 45h1M49 46h1M49 47h1M38 48h1M49 48h1M30 49h1M39 49h3M30 50h1M45 50h1M49 50h1M42 51h1M44 51h1M49 51h1M44 52h1M46 52h1M48 52h1M43 53h1M48 53h1M48 54h1M47 55h1M57 55h1M62 55h2M47 56h1M46 57h1M53 57h1M45 58h1" />
<path stroke="#41a452" d="M47 41h1M49 41h1M46 42h2M49 42h5M46 43h3M50 43h6M45 44h4M50 44h8M43 45h6M50 45h8M41 46h8M50 46h5M37 47h12M50 47h2M33 48h2M39 48h10M31 49h8M42 49h7M31 50h11M43 50h2M46 50h3M30 51h12M43 51h1M45 51h1M47 51h2M50 51h1M30 52h13M45 52h1M47 52h1M49 52h2M54 52h1M30 53h13M44 53h2M47 53h1M49 53h3M53 53h2M31 54h1M37 54h11M49 54h4M42 55h5M48 55h2" />
<path stroke="#297331" d="M50 41h1M54 42h1M45 43h1M49 43h1M44 44h1M35 48h1M67 50h1M66 51h1M43 52h1M51 52h1M53 52h1M66 52h1M46 53h1M52 53h1M55 53h2M66 53h1M32 54h5M53 54h5M65 54h1M31 55h11M50 55h6M64 55h2M33 56h14M48 56h6M35 57h11M47 57h5M38 58h7M46 58h2" />
<path stroke="#ffffff" d="M44 42h2M44 43h1M38 45h1" />
</svg>