<svg xmlns="http://www.w3.org/2000/svg" viewBox="0 -0.5 96 96" shape-rendering="crispEdges">
<metadata>Made with Pixels to Svg https://codepen.io/shshaw/pen/XbxvNj</metadata>
<path stroke="#132d5b" d="M37 3h2M36 4h1M38 4h1M35 5h1M34 6h1M33 7h1M32 9h1M31 10h1M31 11h1M30 12h1M71 12h5M30 13h1M67 13h4M76 13h1M30 14h1M64 14h3M71 14h5M29 15h1M61 15h3M68 15h3M29 16h1M59 16h2M65 16h3M29 17h1M56 17h3M63 17h2M29 18h1M54 18h2M60 18h3M28 19h1M35 19h5M51 19h4M57 19h3M28 20h1M34 20h1M41 20h2M49 20h2M56 20h1M28 21h1M43 21h2M47 21h2M27 22h1M45 22h2M27 23h1M44 23h1M52 23h1M57 24h7M51 25h1M54 25h3M64 25h1M31 26h2M52 26h2M62 26h3M17 27h1M33 27h2M51 27h1M60 27h2M35 28h1M52 28h1M59 28h1M74 28h1M36 29h1M52 29h1M58 29h1M37 30h1M57 30h1M37 31h1M57 31h1M37 32h1M57 32h1M12 33h2M36 33h1M57 33h1M12 34h1M14 34h1M36 34h1M57 34h1M14 35h1M57 35h1M58 36h1M59 37h2M36 38h2M61 38h1M12 39h1M33 39h3M62 39h1M12 40h1M63 40h1M12 41h1M64 41h1M11 42h1M14 42h2M64 42h1M10 43h1M20 43h1M62 43h2M9 44h1M17 44h2M21 44h2M9 45h1M23 45h1M10 46h1M24 46h3M68 46h1M56 47h1M60 48h1M67 48h1M35 49h1M60 49h1M61 50h1M82 50h1M34 51h1M61 51h1M82 51h1M61 52h1M82 52h1M59 53h2M82 53h1M31 54h2M53 54h1M70 54h2M82 54h1M52 55h1M63 55h1M70 55h1M81 55h1M89 55h2M64 56h1M70 56h1M81 56h1M70 57h1M81 57h1M89 57h1M55 58h1M70 58h1M80 58h1M54 59h2M71 59h1M80 59h1M71 60h1M80 60h1M71 61h1M79 61h1M71 62h1M79 62h1M56 63h1M71 63h1M79 63h1M56 64h1M72 64h1M74 64h1M78 64h1M55 65h1M72 65h1M74 65h1M78 65h1M55 66h1M72 66h1M77 66h1M72 67h1M25 68h1M72 68h1M72 69h1M57 70h1M57 71h1M61 71h2M57 72h1M61 72h1M63 72h2M56 73h1M65 73h4M66 74h1M69 74h1M74 74h2M66 75h1M74 75h1M61 77h1M70 77h1M65 79h1" />
<path stroke="#2192e4" d="M37 4h1M36 5h1M35 6h1M34 7h1M34 8h1M33 9h1M32 11h1M31 12h1M31 13h1M71 13h5M29 14h1M31 14h1M67 14h4M30 15h1M64 15h4M28 16h1M30 16h1M61 16h4M28 17h1M30 17h1M59 17h4M28 18h1M30 18h1M56 18h4M27 19h1M29 19h1M55 19h2M27 20h1M29 20h1M35 20h5M51 20h4M27 21h1M33 21h10M49 21h5M26 22h1M28 22h1M33 22h11M47 22h6M26 23h1M32 23h11M45 23h7M26 24h1M32 24h10M44 24h8M31 25h10M42 25h9M57 25h3M25 26h1M33 26h7M41 26h10M54 26h3M23 27h2M35 27h4M40 27h10M52 27h3M17 28h1M22 28h3M36 28h2M39 28h11M17 29h1M22 29h2M32 29h4M37 29h13M17 30h1M21 30h3M31 30h6M38 30h11M20 31h3M30 31h7M38 31h11M19 32h3M30 32h7M38 32h10M19 33h3M30 33h6M38 33h8M13 34h1M19 34h2M29 34h7M39 34h4M13 35h1M29 35h4M13 36h1M29 36h1M13 37h2M13 38h2M13 39h2M14 40h1M14 41h1M12 42h2M30 42h3M11 43h2M14 43h2M30 43h4M10 44h7M19 44h2M29 44h4M10 45h2M15 45h8M28 45h9M17 46h2M20 46h4M27 46h10M23 47h10M24 48h8M25 49h7M25 50h5M25 51h4M25 52h3M25 53h3M26 54h1M59 71h1M59 72h2M62 72h1M62 73h3M69 73h2M62 74h2M67 74h2M70 74h1M62 75h1M67 75h2M71 75h2M63 76h1M67 76h1" />
<path stroke="#1b68a7" d="M37 5h1M36 6h1M35 7h1M35 8h1M34 9h1M32 10h2M33 11h1M32 12h1M32 13h1M32 14h1M31 15h1M31 16h1M41 19h1M40 20h1M54 21h1M44 22h1M43 23h1M43 24h1M25 25h2M60 25h4M23 26h2M57 26h5M65 26h2M22 27h1M30 27h3M39 27h1M50 27h1M55 27h5M67 27h3M21 28h1M30 28h5M38 28h1M50 28h2M53 28h6M70 28h2M21 29h1M29 29h3M50 29h2M53 29h5M72 29h3M20 30h1M29 30h2M49 30h3M53 30h4M19 31h1M29 31h1M49 31h3M53 31h4M28 32h2M48 32h1M54 32h3M28 33h2M37 33h1M46 33h1M55 33h2M27 34h2M37 34h2M43 34h3M56 34h1M27 35h2M38 35h7M56 35h1M26 36h3M39 36h7M26 37h1M38 37h2M44 37h3M35 38h1M40 38h3M44 38h5M60 38h1M36 39h5M43 39h8M61 39h1M13 40h1M31 40h9M41 40h10M52 40h1M61 40h2M13 41h1M29 41h9M40 41h10M51 41h3M60 41h4M26 42h1M33 42h4M38 42h12M51 42h4M62 42h2M29 43h1M34 43h1M37 43h12M50 43h1M64 43h1M28 44h1M38 44h9M65 44h1M37 45h1M41 45h3M66 45h1M37 46h4M67 46h1M33 47h8M55 47h1M68 47h1M32 48h4M56 48h1M59 48h1M32 49h1M57 49h3M31 50h2M58 50h3M30 51h4M51 51h4M58 51h3M29 52h6M51 52h4M59 52h2M81 52h1M29 53h7M51 53h3M81 53h1M28 54h3M52 54h1M54 54h1M61 54h1M80 54h1M27 55h3M53 55h2M62 55h1M80 55h1M26 56h4M52 56h3M63 56h1M79 56h2M26 57h3M52 57h3M79 57h1M27 58h2M52 58h3M78 58h2M27 59h1M53 59h1M78 59h1M27 60h1M53 60h1M55 60h1M78 60h1M27 61h1M54 61h2M77 61h2M26 62h1M53 62h2M77 62h1M25 63h2M53 63h1M76 63h2M25 64h2M53 64h1M76 64h1M24 65h3M53 65h1M25 66h2M54 66h1M25 67h2M55 67h2M26 68h1M54 68h2M26 69h1M54 69h1M26 70h1M54 70h1M72 70h2M55 71h1M58 71h1M71 71h3M56 72h1M58 72h1M73 72h2M57 73h2M57 74h2M58 75h2M73 75h1M59 76h2M62 76h1M71 76h2M60 77h1M62 77h4M67 77h2" />
<path stroke="#101010" d="M38 5h1M38 6h1M38 7h1M38 8h1M38 9h1M39 11h1M39 12h1M40 14h1M35 15h1M75 15h1M35 16h1M74 16h1M34 17h1M41 17h1M34 18h1M42 18h1M73 18h1M33 19h1M42 19h1M33 20h1M32 21h1M72 21h1M32 22h1M72 22h1M31 23h1M72 23h1M31 24h1M72 24h1M7 25h1M30 25h1M7 26h1M30 26h1M51 26h1M73 26h1M7 27h1M29 27h1M73 27h1M7 28h1M14 28h1M18 28h1M29 28h1M7 29h1M14 29h1M18 29h1M28 29h1M75 29h1M7 30h1M14 30h1M18 30h1M28 30h1M52 30h1M74 30h1M14 31h1M18 31h1M28 31h1M52 31h1M73 31h1M8 32h1M14 32h1M18 32h1M27 32h1M72 32h1M8 33h1M14 33h1M18 33h1M27 33h1M71 33h1M6 34h1M15 34h1M18 34h1M26 34h1M55 34h1M6 35h1M12 35h1M15 35h1M19 35h2M26 35h1M45 35h1M70 35h1M7 36h1M12 36h1M15 36h1M18 36h1M25 36h1M30 36h2M38 36h1M46 36h1M55 36h1M69 36h1M7 37h1M12 37h1M15 37h1M17 37h1M25 37h1M27 37h3M35 37h3M40 37h4M47 37h2M54 37h1M69 37h1M8 38h1M12 38h1M15 38h1M17 38h1M24 38h3M33 38h2M38 38h2M43 38h1M49 38h5M18 39h1M31 39h2M41 39h2M51 39h2M60 39h1M68 39h1M7 40h1M18 40h1M29 40h2M40 40h1M51 40h1M53 40h1M60 40h1M68 40h1M8 41h1M26 41h3M38 41h2M50 41h1M54 41h1M59 41h1M9 42h1M24 42h2M37 42h1M50 42h1M55 42h7M67 42h1M16 43h1M19 43h1M21 43h3M35 43h2M49 43h1M51 43h3M61 43h1M67 43h1M24 44h1M33 44h5M59 44h2M67 44h1M24 45h1M38 45h3M57 45h2M60 45h1M68 45h1M41 46h1M55 46h2M60 46h1M11 47h1M41 47h1M59 47h1M69 47h1M11 48h1M36 48h5M58 48h1M68 48h1M11 49h1M15 49h1M17 49h3M33 49h2M66 49h1M11 50h1M14 50h1M24 50h1M33 50h1M52 50h5M65 50h1M11 51h1M24 51h1M45 51h6M55 51h1M12 52h1M14 52h1M21 52h1M24 52h1M35 52h4M55 52h1M64 52h1M12 53h1M14 53h1M20 53h3M36 53h1M39 53h7M54 53h1M12 54h1M15 54h1M20 54h3M33 54h3M59 54h1M63 54h1M13 55h1M15 55h1M19 55h4M25 55h1M30 55h1M32 55h1M34 55h1M59 55h1M13 56h1M15 56h1M21 56h3M25 56h1M30 56h3M34 56h1M50 56h2M59 56h1M90 56h1M12 57h1M16 57h1M23 57h1M25 57h1M29 57h1M32 57h2M35 57h1M48 57h2M58 57h1M60 57h2M64 57h1M90 57h1M11 58h1M14 58h1M29 58h1M33 58h1M35 58h1M45 58h3M56 58h2M62 58h3M89 58h1M10 59h1M13 59h1M28 59h1M33 59h1M35 59h10M56 59h1M64 59h1M88 59h1M10 60h1M24 60h1M28 60h1M33 60h1M35 60h1M54 60h1M56 60h1M63 60h1M87 60h1M9 61h1M28 61h1M33 61h1M35 61h2M53 61h1M56 61h1M63 61h1M86 61h1M9 62h1M11 62h1M25 62h1M27 62h1M35 62h1M37 62h2M52 62h1M56 62h1M62 62h1M85 62h1M8 63h1M10 63h1M24 63h1M27 63h1M39 63h3M50 63h2M84 63h1M8 64h1M10 64h1M24 64h1M27 64h1M40 64h10M64 64h1M68 64h1M83 64h1M7 65h1M10 65h1M23 65h1M27 65h1M41 65h1M56 65h1M63 65h1M68 65h3M82 65h1M7 66h1M11 66h1M23 66h1M27 66h1M41 66h1M56 66h1M62 66h1M68 66h1M70 66h1M81 66h1M7 67h1M12 67h2M22 67h3M27 67h1M42 67h1M54 67h1M57 67h1M61 67h1M70 67h1M80 67h1M6 68h1M15 68h2M21 68h2M27 68h1M43 68h1M53 68h1M57 68h1M61 68h1M69 68h1M74 68h2M79 68h1M6 69h1M17 69h5M25 69h1M27 69h1M44 69h2M51 69h2M57 69h1M73 69h1M76 69h1M78 69h1M6 70h1M25 70h1M27 70h1M45 70h6M58 70h2M61 70h1M68 70h1M70 70h1M76 70h2M6 71h1M26 71h1M46 71h1M60 71h1M69 71h1M76 71h1M5 72h1M46 72h1M69 72h4M76 72h1M5 73h1M47 73h1M61 73h1M73 73h1M76 73h1M5 74h1M48 74h1M56 74h1M61 74h1M5 75h1M49 75h2M54 75h2M61 75h1M70 75h1M75 75h1M5 76h1M22 76h5M51 76h3M61 76h1M66 76h1M70 76h1M74 76h1M5 77h1M20 77h2M26 77h1M51 77h1M66 77h1M73 77h1M6 78h1M19 78h1M26 78h1M29 78h2M51 78h1M60 78h1M66 78h1M69 78h4M6 79h1M17 79h2M26 79h1M31 79h2M50 79h1M55 79h5M66 79h2M5 80h1M7 80h1M15 80h2M50 80h1M56 80h1M60 80h5M6 81h1M13 81h2M49 81h1M56 81h1M68 81h7M7 82h6M49 82h1M57 82h1M66 82h2M71 82h1M75 82h2M57 83h1M64 83h2M72 83h1M77 83h2M30 84h1M48 84h1M62 84h2M65 84h1M71 84h2M79 84h1M31 85h1M48 85h1M60 85h2M65 85h1M71 85h1M80 85h1M32 86h2M57 86h3M72 86h1M34 87h2M54 87h3M66 87h1M69 87h2M72 87h1M36 88h3M50 88h4M69 88h1M71 88h2M39 89h11M51 89h1M53 89h1M67 89h1M69 89h1M47 90h1M49 90h1M52 90h1M68 90h1M47 91h2" />
<path stroke="#cdb47b" d="M37 6h1M36 7h2M36 8h2M35 9h3M34 10h4M34 11h2M38 11h1M33 12h2M38 12h1M33 13h1M37 13h2M37 14h3M32 15h1M36 15h4M71 15h4M36 16h4M68 16h6M35 17h6M65 17h8M35 18h6M63 18h10M34 19h1M60 19h12M57 20h15M55 21h17M54 22h18M53 23h19M53 24h4M64 24h8M52 25h2M67 25h5M8 26h1M70 26h3M8 27h1M62 27h2M72 27h1M8 28h2M60 28h7M8 29h2M59 29h11M8 30h2M58 30h14M9 31h2M58 31h15M9 32h2M58 32h14M9 33h2M58 33h13M7 34h1M9 34h3M58 34h12M8 35h1M10 35h2M58 35h12M10 36h2M59 36h10M9 37h3M61 37h8M10 38h2M62 38h6M10 39h2M63 39h5M11 40h1M64 40h4M11 41h1M65 41h2M65 42h2M66 43h1M58 44h1M61 44h3M47 45h1M56 45h1M61 45h4M44 46h2M54 46h1M61 46h5M16 47h1M42 47h3M52 47h1M60 47h7M12 48h1M16 48h1M22 48h1M41 48h4M61 48h6M12 49h1M23 49h1M36 49h10M61 49h5M12 50h1M22 50h1M34 50h17M62 50h3M12 51h1M23 51h1M35 51h9M62 51h2M13 52h1M23 52h1M39 52h4M62 52h2M13 53h1M23 53h1M62 53h1M13 54h2M23 54h1M75 54h1M14 55h1M23 55h2M60 55h1M75 55h1M78 55h1M82 55h1M85 55h1M14 56h1M24 56h1M60 56h2M72 56h1M75 56h1M77 56h1M82 56h1M84 56h2M15 57h1M24 57h1M62 57h1M72 57h1M74 57h4M82 57h3M86 57h2M15 58h1M24 58h2M73 58h4M81 58h6M14 59h1M25 59h1M73 59h4M81 59h5M14 60h1M25 60h2M73 60h4M81 60h4M24 61h2M60 61h1M74 61h2M80 61h4M24 62h1M74 62h2M80 62h3M23 63h1M74 63h1M80 63h1M22 64h2M62 64h2M67 64h1M21 65h2M60 65h3M67 65h1M21 66h2M59 66h3M66 66h2M69 66h1M20 67h2M58 67h3M66 67h1M68 67h2M20 68h1M58 68h2M65 68h4M58 69h4M65 69h4M60 70h1M65 70h3M69 70h1M65 71h2M68 71h1M65 72h4M52 78h1M51 79h4M51 80h5M65 80h1M50 81h6M50 82h7M68 82h3M50 83h4M55 83h2M66 83h4M71 83h1M49 84h5M56 84h1M66 84h5M49 85h2M52 85h2M66 85h5M49 86h1M67 86h2M70 86h2M67 87h2M71 87h1M68 88h1M52 89h1M68 89h1M48 90h1" />
<path stroke="#144f7e" d="M33 8h1M29 13h1M28 14h1M28 15h1M27 16h1M27 17h1M27 18h1M41 18h1M26 19h1M40 19h1M26 20h1M55 20h1M26 21h1M25 22h1M53 22h1M25 23h1M25 24h1M42 24h1M52 24h1M24 25h1M41 25h1M65 25h2M40 26h1M67 26h3M64 27h3M70 27h2M67 28h3M72 28h2M70 29h2M72 30h2M14 36h1M13 43h1M65 43h1M64 44h1M66 44h1M65 45h1M67 45h1M19 46h1M66 46h1M67 47h1M30 50h1M29 51h1M81 51h1M28 52h1M80 52h1M28 53h1M61 53h1M80 53h1M27 54h1M60 54h1M62 54h1M79 54h1M81 54h1M26 55h1M61 55h1M71 55h1M79 55h1M62 56h1M71 56h1M78 56h1M89 56h1M63 57h1M71 57h1M78 57h1M80 57h1M88 57h1M71 58h1M77 58h1M87 58h2M77 59h1M79 59h1M86 59h2M72 60h1M77 60h1M79 60h1M85 60h2M72 61h1M76 61h1M84 61h2M72 62h1M76 62h1M78 62h1M83 62h2M72 63h2M75 63h1M78 63h1M82 63h2M73 64h1M75 64h1M77 64h1M80 64h3M73 65h1M75 65h3M79 65h3M24 66h1M73 66h4M78 66h3M73 67h7M73 68h1M76 68h3M74 69h1M77 69h1M71 70h1M70 71h1M75 72h1M74 73h1" />
<path stroke="#5a4120" d="M38 10h1M39 13h1M40 15h1M40 16h1M73 17h1M72 19h1M72 20h1M7 23h1M7 24h2M8 25h1M72 25h1M9 26h1M9 27h1M10 28h1M10 29h1M10 30h1M8 31h1M11 31h1M11 32h1M6 33h2M11 33h1M8 34h1M70 34h1M9 35h1M9 36h1M68 38h1M7 39h2M9 40h1M67 41h1M54 43h1M47 44h4M12 45h1M14 45h1M44 45h3M11 46h1M15 46h2M42 46h2M13 47h1M17 47h6M53 47h2M14 48h2M23 48h1M54 48h2M20 49h1M24 49h1M56 49h1M19 50h1M21 50h1M51 50h1M13 51h2M19 51h1M22 51h1M44 51h1M64 51h1M19 52h1M22 52h1M45 52h1M24 53h1M63 53h1M75 53h1M79 53h1M24 54h2M74 54h1M76 54h1M78 54h1M85 54h2M72 55h1M74 55h1M76 55h2M83 55h2M86 55h1M73 56h2M76 56h1M83 56h1M86 56h3M14 57h1M73 57h1M85 57h1M26 58h1M72 58h1M24 59h1M26 59h1M61 59h1M72 59h1M13 60h1M60 60h1M12 61h1M26 61h1M59 61h1M73 61h1M23 62h1M59 62h1M67 62h1M73 62h1M22 63h1M58 63h1M62 63h3M66 63h1M68 63h1M81 63h1M21 64h1M58 64h1M61 64h1M66 64h1M79 64h1M20 65h1M57 65h1M65 65h1M20 66h1M57 66h1M65 66h1M14 67h1M18 67h2M65 67h1M67 67h1M60 68h1M62 68h1M64 68h1M62 69h1M64 69h1M69 69h2M64 70h1M64 71h1M67 71h1M52 77h1M53 78h2M49 83h1M54 83h1M70 83h1M54 84h2M51 85h1M48 86h1M66 86h1M69 86h1M67 88h1" />
<path stroke="#3c3f47" d="M36 11h2M35 12h1M37 12h1M34 13h1M36 13h1M33 14h1M36 14h1M33 15h1M32 16h1M34 16h1M31 17h1M31 18h1M33 18h1M30 19h1M32 19h1M30 20h1M32 20h1M29 21h1M31 21h1M29 22h1M31 22h1M28 23h1M30 23h1M27 24h1M30 24h1M27 25h1M29 25h1M26 26h1M29 26h1M15 27h1M25 27h1M28 27h1M16 28h1M25 28h1M28 28h1M16 29h1M24 29h1M27 29h1M16 30h1M24 30h1M27 30h1M17 31h1M23 31h1M26 31h2M15 32h1M17 32h1M22 32h1M26 32h1M15 33h1M17 33h1M22 33h1M25 33h2M16 34h2M21 34h1M25 34h1M16 35h3M24 35h2M33 35h5M16 36h2M23 36h2M32 36h1M16 37h1M23 37h2M30 37h2M16 38h1M23 38h1M27 38h6M16 39h2M24 39h7M16 40h2M19 40h1M23 40h6M17 41h9M17 42h7M17 43h2" />
<path stroke="#67686b" d="M36 12h1M35 13h1M34 14h2M34 15h1M33 16h1M32 17h2M32 18h1M31 19h1M31 20h1M30 21h1M30 22h1M29 23h1M28 24h2M28 25h1M27 26h2M26 27h2M15 28h1M26 28h2M15 29h1M25 29h2M15 30h1M25 30h2M15 31h2M24 31h2M16 32h1M23 32h3M16 33h1M23 33h2M22 34h3M21 35h3M19 36h4M33 36h5M18 37h5M32 37h3M18 38h5M19 39h5M20 40h3M12 55h1M11 56h2M10 57h2M9 58h2M9 59h1M8 60h2M8 61h1M7 62h2M33 62h1M7 63h1M32 63h1M34 63h1M6 64h2M32 64h1M34 64h1M6 65h1M32 65h1M34 65h1M6 66h1M31 66h1M33 66h1M5 67h2M31 67h1M33 67h1M5 68h1M30 68h1M32 68h1M5 69h1M29 69h1M31 69h1M5 70h1M29 70h1M31 70h1M4 71h2M28 71h1M30 71h1M4 72h1M28 72h1M30 72h1M4 73h1M27 73h1M29 73h1M4 74h1M27 74h1M29 74h1M4 75h1M21 75h6M28 75h1M4 76h1M19 76h3M28 76h1M4 77h1M18 77h2M28 77h3M4 78h2M16 78h3M28 78h1M31 78h1M5 79h1M14 79h3M28 79h1M68 79h7M6 80h1M12 80h3M27 80h1M29 80h1M67 80h1M75 80h2M7 81h6M27 81h1M29 81h1M64 81h2M77 81h2M28 82h1M30 82h1M62 82h2M79 82h1M29 83h1M31 83h1M60 83h2M80 83h1M32 84h2M57 84h3M81 84h1M34 85h2M54 85h3M81 85h1M36 86h3M50 86h4M39 87h11" />
<path stroke="#980e31" d="M49 32h5M47 33h8M46 34h1M51 34h4M46 35h4M53 35h3M47 36h8M56 36h2M49 37h5M55 37h4M54 38h1M57 38h3M53 39h3M58 39h2M54 40h4M59 40h1M55 41h4M59 45h1M57 46h1M59 46h1M57 47h2M57 48h1M16 49h1M15 50h4M57 50h1M15 51h4M56 51h2M15 52h4M57 52h2M15 53h5M48 53h1M55 53h1M58 53h1M16 54h4M55 54h2M58 54h1M16 55h3M55 55h2M58 55h1M16 56h5M49 56h1M55 56h4M17 57h2M22 57h1M55 57h3M16 58h1M23 58h1M15 59h1M50 60h1M14 61h1M13 62h2M51 62h1M12 63h1M14 63h1M12 64h1M14 64h2M13 65h5M16 66h2M51 66h1M52 68h1M52 71h1M53 73h1M54 74h1M56 76h1M57 77h1M72 77h1M58 78h1M68 78h1M63 79h1" />
<path stroke="#e43343" d="M47 34h4M50 35h3M55 38h2M56 39h2M58 40h1M16 41h1M16 42h1M24 43h2M23 44h1M25 44h1M25 45h1M58 46h1M48 52h3M56 52h1M49 53h2M56 53h2M49 54h3M57 54h1M49 55h3M57 55h1M19 57h3M50 57h2M17 58h6M50 58h2M16 59h8M50 59h3M15 60h9M51 60h2M15 61h9M51 61h2M15 62h8M55 62h1M15 63h7M52 63h1M54 63h2M16 64h5M51 64h2M54 64h2M19 65h1M51 65h2M54 65h1M19 66h1M52 66h2M52 67h2M56 68h1M53 69h1M55 69h2M75 69h1M52 70h2M55 70h2M74 70h2M53 71h2M56 71h1M74 71h2M53 72h3M54 73h2M59 73h2M71 73h2M75 73h1M55 74h1M59 74h2M64 74h2M71 74h3M56 75h2M60 75h1M63 75h3M69 75h1M57 76h2M64 76h2M68 76h2M73 76h1M58 77h2M69 77h1M71 77h1M59 78h1M61 78h5M67 78h1M60 79h3" />
<path stroke="#f6e6ac" d="M7 35h1M8 36h1M8 37h1M9 38h1M9 39h1M8 40h1M10 40h1M9 41h2M10 42h1M55 43h6M51 44h7M13 45h1M48 45h8M12 46h3M46 46h8M12 47h1M14 47h2M45 47h7M17 48h5M45 48h9M21 49h2M46 49h10M23 50h1M43 52h2M62 59h2M61 60h2M13 61h1M61 61h2M12 62h1M60 62h2M11 63h1M59 63h3M67 63h1M11 64h1M59 64h2M11 65h2M58 65h2M66 65h1M12 66h4M58 66h1M15 67h3M17 68h3" />
<path stroke="#f8f8f8" d="M15 39h1M15 40h1M15 41h1M27 42h3M26 43h3M26 44h2M26 45h2M13 48h1M13 49h2M13 50h1M20 50h1M20 51h2M20 52h1M13 63h1M13 64h1M18 65h1M18 66h1" />
<path stroke="#383b42" d="M46 52h2M37 53h2M46 53h2M36 54h13M31 55h1M35 55h14M35 56h14M36 57h12M36 58h9M48 58h2M45 59h5M36 60h14M37 61h14M39 62h12M42 63h8M50 64h1M42 65h9M42 66h9M43 67h9M44 68h8M46 69h5M51 70h1M47 71h5M47 72h6M48 73h5M49 74h5M51 75h3M54 76h2M53 77h4M55 78h3M64 79h1M66 80h1" />
<path stroke="#d5def6" d="M33 55h1M33 56h1M34 57h1M34 58h1M34 59h1M34 60h1M34 61h1M34 62h1M33 63h1M33 64h1M33 65h1M32 66h1M32 67h1M31 68h1M30 69h1M30 70h1M29 71h1M29 72h1M28 73h1M28 74h1M27 75h1M27 76h1M27 77h1M27 78h1M27 79h1M28 80h1M68 80h7M28 81h1M66 81h2M75 81h2M29 82h1M64 82h2M77 82h2M30 83h1M62 83h2M79 83h1M31 84h1M60 84h2M80 84h1M32 85h2M57 85h3M34 86h2M54 86h3M36 87h3M50 87h4M39 88h11" />
</svg>