<svg xmlns="http://www.w3.org/2000/svg" viewBox="0 -0.5 96 96" shape-rendering="crispEdges">
<metadata>Made with Pixels to Svg https://codepen.io/shshaw/pen/XbxvNj</metadata>
<path stroke="#a63a70" d="M42 1h1M43 2h1M44 3h1M55 3h1M45 4h1M55 4h1M46 5h1M55 5h1M47 6h1M56 6h1M41 7h4M47 7h5M56 7h1M39 8h2M45 8h2M52 8h2M56 8h1M33 9h1M38 9h1M54 9h1M56 9h1M62 9h1M33 10h1M38 10h1M54 10h1M56 10h1M33 11h1M37 11h1M55 11h1M33 12h1M37 12h1M55 12h1M34 13h1M37 13h1M55 13h1M34 14h1M37 14h1M55 14h1M37 15h1M55 15h1M38 16h1M54 16h1M38 17h1M54 17h1M38 18h2M53 18h1M38 19h1M40 19h1M52 19h1M41 20h2M50 20h2M39 21h1M46 21h4M39 22h1M43 22h1M45 22h1M39 23h1M47 23h1M47 24h1M41 28h1M44 28h2M50 28h1M40 29h1M43 29h1M46 29h1M48 29h1M40 30h1M42 30h1M47 30h2M41 31h1M47 31h1M50 31h1M40 32h1M51 32h1M60 32h1M33 33h1M42 33h1M60 33h1M33 34h1M42 34h1M59 34h1M43 35h1M59 35h1M34 38h1M59 38h1M34 39h1M60 39h1M34 40h1M60 40h1M32 41h2M59 41h2M37 50h1M39 50h1M41 50h1M37 51h1M39 51h1M41 51h1M47 51h1M49 51h1M51 51h1M40 52h2M47 52h2M51 52h2M37 53h1M53 53h1M71 53h1M38 54h1M52 54h1M71 54h1M39 55h1M51 55h1M71 55h1M40 56h1M50 56h1M67 56h1M71 56h1M41 57h1M49 57h1M67 57h1M71 57h1M42 58h1M48 58h1M67 58h1M71 58h1M23 59h1M33 59h1M43 59h1M47 59h1M67 59h1M23 60h1M32 60h1M44 60h1M46 60h1M67 60h1M69 60h1M23 61h1M29 61h3M45 61h1M67 61h3M30 62h1M57 62h1M67 62h1M29 63h1M38 63h1M58 63h1M67 63h1M29 64h1M38 64h1M51 64h1M58 64h1M29 65h1M31 65h2M37 65h1M43 65h1M51 65h1M59 65h1M29 66h1M31 66h4M37 66h1M43 66h1M51 66h1M59 66h1M63 66h1M29 67h1M31 67h3M36 67h1M43 67h1M52 67h1M62 67h3M29 68h1M31 68h1M36 68h1M43 68h1M52 68h1M63 68h3M43 69h1M52 69h1M58 69h1M69 69h2M43 70h1M53 70h1M57 70h2M69 70h1M71 70h1M28 71h2M39 71h5M53 71h1M55 71h4M69 71h1M27 72h1M39 72h5M56 72h3M71 72h1M26 73h1M38 73h3M50 73h2M58 73h1M26 74h2M38 74h1M47 74h5M48 75h3M73 75h3M48 76h3M73 76h1M76 76h1M24 77h1M49 77h2M62 77h2M23 78h1M35 78h1M49 78h1M62 78h1M64 78h1M23 79h1M33 79h2M62 79h1M33 80h1M64 80h1M33 81h2M50 82h1M67 82h2M19 83h1M49 83h1M51 83h1M67 83h1M20 84h1M32 84h1M49 84h1M67 84h1M18 85h1M20 85h1M31 85h1M49 85h1M51 85h1M76 85h1M19 86h2M31 86h1M51 86h1M76 86h1M76 87h1M73 88h1M75 88h1M13 89h1M51 89h1M73 89h2M14 90h1M50 90h1M12 91h1M14 91h1M50 91h1M81 91h1M13 92h2M81 92h1M81 93h1M78 94h1M80 94h1M78 95h2" />
<path stroke="#d95798" d="M41 2h1M54 2h1M41 3h1M53 3h1M41 4h1M52 4h1M40 5h1M51 5h1M40 6h1M50 6h1M40 7h1M34 9h2M36 10h2M54 18h1M54 19h1M37 20h1M37 21h1M32 30h1M60 30h1M32 31h1M60 31h1M32 32h1M33 38h1M58 38h1M32 39h1M58 39h1M32 40h1M58 40h1M61 47h2M59 48h1M63 48h2M60 49h1M65 49h1M38 50h1M57 50h1M61 50h1M66 50h2M38 51h1M46 51h1M50 51h1M58 51h1M62 51h1M68 51h1M38 52h1M46 52h1M49 52h1M58 52h1M63 52h1M69 52h2M40 53h3M46 53h4M51 53h1M58 53h2M64 53h1M70 53h1M23 54h1M41 54h2M46 54h3M50 54h1M59 54h2M65 54h1M69 54h1M23 55h1M41 55h3M46 55h3M59 55h2M66 55h1M68 55h1M23 56h1M42 56h2M46 56h2M59 56h3M65 56h2M23 57h1M27 57h2M43 57h1M46 57h1M59 57h6M68 57h1M23 58h1M27 58h3M32 58h1M60 58h4M68 58h2M26 59h3M32 59h1M60 59h2M63 59h1M25 60h2M31 60h1M60 60h1M62 60h3M68 60h1M24 61h1M34 61h1M58 61h1M61 61h4M33 62h4M59 62h1M62 62h4M30 63h1M32 63h5M55 63h1M60 63h2M65 63h1M31 64h5M41 64h2M53 64h3M61 64h4M33 65h3M41 65h2M49 65h1M53 65h4M62 65h2M35 66h1M40 66h3M46 66h4M54 66h3M62 66h1M34 67h1M40 67h3M46 67h5M54 67h4M59 67h1M61 67h1M39 68h4M46 68h5M54 68h5M36 69h1M39 69h4M46 69h5M55 69h3M37 70h1M39 70h4M46 70h6M55 70h2M38 71h1M46 71h6M54 71h1M71 71h1M38 72h1M46 72h6M28 73h1M37 73h1M46 73h4M37 74h1M44 74h2M47 75h1M51 75h1M75 76h1M48 77h1M24 79h1M49 79h1M64 79h1M35 80h1M17 82h2M17 83h1M17 84h1M51 84h1M68 84h1M19 85h1M75 85h1M32 86h1M74 86h1M73 87h1M11 88h2M74 88h1M11 89h1M11 90h1M13 91h1M51 91h1M80 91h1M79 92h1M78 93h1M79 94h1" />
<path stroke="#fff9fb" d="M42 2h1M42 3h1M42 4h1M54 4h1M41 5h1M53 5h2M41 6h1M52 6h3M52 7h2M47 8h5M39 9h2M49 9h2M34 10h2M39 10h2M43 10h4M60 10h2M34 11h1M41 11h8M57 11h4M34 12h1M38 12h1M41 12h8M58 12h3M35 13h1M38 13h1M40 13h10M59 13h2M35 14h1M40 14h10M38 15h2M41 15h9M39 16h1M41 16h8M42 17h6M40 18h1M43 18h3M54 20h1M41 21h1M54 21h1M37 22h1M48 22h1M55 22h1M37 23h1M55 23h1M36 24h1M56 24h1M36 25h1M56 25h1M35 26h1M56 26h2M35 27h1M57 27h1M34 28h1M57 28h2M34 29h1M44 29h1M58 29h1M44 30h1M58 30h2M44 31h1M58 31h1M33 32h1M44 32h1M34 33h1M43 33h3M31 47h1M30 48h2M29 49h2M28 50h3M27 51h3M26 52h4M5 53h1M25 53h4M5 54h1M25 54h3M92 54h1M4 55h2M24 55h1M26 55h2M92 55h1M4 56h2M24 56h2M92 56h1M4 57h2M24 57h3M92 57h1M3 58h3M24 58h2M92 58h2M3 59h3M24 59h1M44 59h1M92 59h2M3 60h4M45 60h1M91 60h3M2 61h5M91 61h3M2 62h5M91 62h3M2 63h6M91 63h4M2 64h6M91 64h4M1 65h8M90 65h5M1 66h8M90 66h5M1 67h9M90 67h5M1 68h9M89 68h6M1 69h10M89 69h6M1 70h11M88 70h7M1 71h12M87 71h7M1 72h13M86 72h8M1 73h14M85 73h9M2 74h13M84 74h10M2 75h14M83 75h10M2 76h14M82 76h11M3 77h6M11 77h6M81 77h12M3 78h7M14 78h3M80 78h13M4 79h6M16 79h1M80 79h12M5 80h6M79 80h13M6 81h5M79 81h5M86 81h6M7 82h4M79 82h3M85 82h6M8 83h3M79 83h1M85 83h6M9 84h2M84 84h6M10 85h1M84 85h5M84 86h4M84 87h3M84 88h2M84 89h1" />
<path stroke="#f291b2" d="M43 3h1M44 4h1M45 5h1M46 6h1M55 6h1M45 7h2M55 7h1M55 8h1M41 9h3M46 9h3M53 9h1M55 9h1M59 9h3M41 10h1M48 10h2M53 10h1M55 10h1M57 10h2M62 10h1M38 11h2M49 11h1M53 11h2M62 11h1M39 12h1M50 12h5M56 12h1M61 12h2M50 13h2M53 13h2M57 13h1M61 13h1M38 14h2M53 14h2M58 14h1M61 14h1M50 15h2M53 15h2M60 15h2M40 16h1M50 16h4M60 16h1M39 17h2M49 17h1M52 17h2M59 17h2M42 18h1M47 18h1M49 18h4M58 18h1M41 19h3M46 19h2M50 19h2M47 20h3M55 20h1M55 21h1M36 22h1M56 22h1M36 23h1M41 23h1M54 23h1M56 23h1M35 24h1M48 24h1M54 24h1M57 24h1M35 25h1M37 25h1M54 25h2M57 25h1M34 26h1M37 26h1M54 26h2M58 26h1M34 27h1M36 27h2M54 27h2M58 27h1M33 28h1M36 28h2M54 28h3M59 28h1M33 29h1M35 29h3M54 29h3M59 29h1M33 30h1M35 30h3M54 30h4M34 31h1M54 31h4M59 31h1M35 32h2M58 32h1M35 33h1M46 33h2M56 33h2M59 33h1M43 34h4M57 34h1M44 35h3M58 35h1M45 36h1M33 40h1M59 40h1M30 47h1M60 47h1M29 48h1M33 48h1M60 48h1M28 49h1M32 49h2M56 49h2M61 49h1M27 50h1M31 50h3M56 50h1M58 50h1M62 50h1M26 51h1M31 51h2M42 51h1M57 51h1M63 51h1M25 52h1M30 52h3M37 52h1M39 52h1M42 52h4M50 52h1M57 52h1M59 52h1M64 52h1M24 53h1M30 53h3M38 53h2M43 53h3M50 53h1M52 53h1M57 53h1M60 53h1M65 53h1M29 54h3M39 54h2M43 54h3M49 54h1M51 54h1M58 54h1M66 54h1M70 54h1M28 55h4M40 55h1M44 55h2M49 55h2M58 55h1M61 55h1M67 55h1M69 55h2M28 56h4M41 56h1M44 56h2M48 56h2M58 56h1M62 56h1M68 56h3M29 57h2M42 57h1M44 57h2M47 57h2M65 57h2M69 57h2M26 58h1M30 58h1M44 58h3M59 58h1M64 58h3M70 58h1M25 59h1M29 59h2M59 59h1M62 59h1M64 59h3M24 60h1M27 60h2M33 60h1M61 60h1M65 60h2M25 61h1M32 61h2M60 61h1M65 61h2M31 62h2M37 62h1M56 62h1M58 62h1M66 62h1M31 63h1M37 63h1M56 63h2M59 63h1M66 63h1M30 64h1M36 64h2M39 64h2M50 64h1M52 64h1M56 64h2M59 64h2M30 65h1M36 65h1M38 65h3M44 65h1M50 65h1M52 65h1M57 65h2M60 65h2M64 65h2M30 66h1M36 66h1M38 66h2M44 66h2M50 66h1M52 66h2M57 66h2M60 66h2M64 66h2M30 67h1M37 67h3M44 67h2M51 67h1M53 67h1M58 67h1M65 67h1M30 68h1M37 68h2M44 68h2M51 68h1M53 68h1M59 68h1M37 69h2M44 69h2M51 69h1M53 69h2M59 69h1M36 70h1M38 70h1M44 70h2M52 70h1M54 70h1M59 70h1M70 70h1M36 71h2M44 71h2M52 71h1M59 71h1M70 71h1M28 72h1M36 72h2M44 72h2M52 72h1M59 72h1M27 73h1M36 73h1M44 73h2M52 73h1M59 73h1M36 74h1M46 74h1M45 75h2M46 76h2M74 76h1M47 77h1M24 78h1M48 78h1M63 78h1M35 79h1M63 79h1M34 80h1M50 83h1M68 83h1M19 84h1M50 84h1M32 85h1M50 85h1M75 87h1M13 90h1M51 90h1M80 93h1" />
<path stroke="#ffccd9" d="M54 3h1M43 4h1M53 4h1M42 5h3M52 5h1M42 6h4M51 6h1M54 7h1M41 8h4M54 8h1M44 9h2M51 9h2M42 10h1M47 10h1M50 10h3M59 10h1M35 11h2M40 11h1M50 11h3M56 11h1M61 11h1M35 12h2M40 12h1M49 12h1M57 12h1M36 13h1M39 13h1M52 13h1M56 13h1M58 13h1M36 14h1M50 14h3M56 14h2M59 14h2M40 15h1M52 15h1M49 16h1M41 17h1M48 17h1M50 17h2M41 18h1M46 18h1M48 18h1M44 19h2M48 19h2M43 20h4M41 22h1M54 22h1M48 23h1M37 24h1M55 24h1M36 26h1M56 27h1M35 28h1M45 29h1M57 29h1M34 30h1M43 30h1M45 30h2M33 31h1M35 31h3M45 31h2M34 32h1M45 32h2M55 32h3M59 32h1M58 33h1M34 34h1M58 34h1M33 39h1M59 39h1M32 48h1M61 48h2M31 49h1M58 49h2M62 49h3M59 50h2M63 50h3M30 51h1M59 51h3M64 51h4M60 52h3M65 52h4M29 53h1M61 53h3M66 53h4M24 54h1M28 54h1M61 54h4M67 54h2M25 55h1M62 55h4M26 56h2M63 56h2M43 58h1M47 58h1M45 59h2M18 83h1M18 84h1M75 86h1M74 87h1M12 89h1M12 90h1M80 92h1M79 93h1" />
<path stroke="#181818" d="M63 9h1M63 10h1M63 11h1M63 12h1M62 13h1M62 14h1M62 15h1M59 16h1M61 16h1M58 17h1M61 17h1M57 18h1M59 18h2M53 19h1M56 19h3M38 20h1M53 20h1M38 21h1M53 21h1M38 22h1M53 22h1M38 23h1M53 23h1M38 24h1M53 24h1M38 25h1M53 25h1M38 26h2M52 26h2M38 27h1M40 27h1M50 27h2M53 27h1M38 28h1M42 28h1M53 28h1M38 29h1M42 29h1M51 29h1M53 29h1M38 30h1M51 30h1M53 30h1M38 31h1M43 31h1M53 31h1M37 32h1M42 32h2M47 32h2M54 32h1M36 33h1M40 33h2M48 33h4M55 33h1M35 34h1M38 34h1M47 34h1M49 34h1M53 34h2M56 34h1M34 35h1M37 35h1M47 35h1M49 35h1M55 35h3M35 36h1M44 36h1M46 36h1M49 36h2M58 36h2M65 36h1M29 37h2M33 37h1M45 37h1M51 37h1M60 37h1M63 37h2M31 38h2M52 38h1M61 38h2M52 39h1M38 40h1M52 40h2M39 41h1M51 41h1M54 41h2M40 42h2M48 42h3M56 42h2M58 43h2M28 44h1M60 44h3M29 45h2M63 45h1M31 46h1M59 46h4M32 47h4M55 47h1M59 47h1M34 48h2M40 48h1M55 48h4M34 49h1M36 49h6M48 49h2M54 49h2M34 50h1M42 50h1M46 50h2M50 50h4M55 50h1M33 51h1M43 51h3M56 51h1M33 52h1M56 52h1M33 53h1M56 53h1M32 54h1M57 54h1M32 55h1M57 55h1M32 56h1M57 56h1M31 57h1M58 57h1M31 58h1M58 58h1M31 59h1M58 59h1M68 59h4M29 60h2M59 60h1M26 61h3M59 61h1M23 62h3M60 62h2M62 63h3M65 64h3M66 65h1M66 66h1M35 67h1M60 67h1M66 67h1M32 68h3M60 68h3M66 68h1M29 69h3M35 69h1M60 69h1M63 69h4M35 70h1M60 70h1M35 71h1M60 71h1M72 71h1M29 72h1M35 72h1M53 72h3M60 72h1M70 72h1M72 72h1M29 73h1M35 73h1M41 73h3M53 73h1M56 73h2M60 73h1M71 73h2M28 74h1M35 74h1M39 74h2M43 74h1M52 74h1M58 74h3M26 75h2M35 75h4M44 75h1M52 75h1M45 76h1M51 76h1M25 77h1M46 77h1M51 77h1M74 77h3M25 78h1M36 78h1M47 78h1M50 78h1M65 78h1M25 79h1M36 79h1M48 79h1M50 79h1M65 79h1M23 80h2M36 80h1M49 80h1M62 80h2M65 80h1M35 81h2M64 81h2M33 82h2M69 83h1M33 84h1M52 84h1M69 84h1M33 85h1M52 85h1M68 85h2M33 86h1M50 86h1M52 86h1M31 87h2M51 87h1M52 90h1M52 91h1M51 92h1" />
<path stroke="#595059" d="M34 15h3M56 15h4M34 16h1M37 16h1M55 16h1M35 17h1M35 18h1M36 19h1M42 21h1M47 22h1M46 25h1M43 26h3M41 27h1M43 28h1M46 28h4M39 30h1M52 30h1M39 33h1M52 33h1M31 34h2M60 34h3M29 35h2M36 35h1M63 35h2M28 36h1M34 36h1M31 37h1M62 37h1" />
<path stroke="#b3a1b3" d="M35 16h2M56 16h3M36 17h2M55 17h3M36 18h2M55 18h2M37 19h1M39 19h1M55 19h1M39 20h1M52 20h1M58 20h1M52 21h1M58 21h1M52 22h1M59 22h1M43 23h3M52 23h1M59 23h1M39 24h1M42 24h5M52 24h1M60 24h1M40 25h2M43 25h3M47 25h1M51 25h1M61 25h1M41 26h2M47 26h4M62 26h1M43 27h6M63 27h1M64 28h1M65 29h1M66 30h1M31 31h1M67 31h2M30 32h1M53 32h1M69 32h1M28 33h2M37 33h2M54 33h1M70 33h2M26 34h2M36 34h2M55 34h1M72 34h2M24 35h2M31 35h3M35 35h1M38 35h1M60 35h3M74 35h2M21 36h3M29 36h3M33 36h1M37 36h1M60 36h1M62 36h3M76 36h2M18 37h3M32 37h1M36 37h1M59 37h1M61 37h1M78 37h2M16 38h2M35 38h1M60 38h1M80 38h2M14 39h2M61 39h1M82 39h2M13 40h1M62 40h2M84 40h2M12 41h1M30 41h2M64 41h2M86 41h1M11 42h1M27 42h3M66 42h2M87 42h1M10 43h1M24 43h3M68 43h2M88 43h1M9 44h1M22 44h2M70 44h2M89 44h1M8 45h1M20 45h2M72 45h2M89 45h1M8 46h1M18 46h2M74 46h2M90 46h1M7 47h1M16 47h2M76 47h2M90 47h1M7 48h1M15 48h1M78 48h2M91 48h1M6 49h1M14 49h1M80 49h2M91 49h1M6 50h1M13 50h1M36 50h1M82 50h2M91 50h1M5 51h2M12 51h1M36 51h1M53 51h1M84 51h1M91 51h2M5 52h2M11 52h1M36 52h1M53 52h1M85 52h1M91 52h2M4 53h1M6 53h1M10 53h1M35 53h1M54 53h1M86 53h1M91 53h2M4 54h1M6 54h1M10 54h1M35 54h1M54 54h1M87 54h1M91 54h1M93 54h1M3 55h1M6 55h1M9 55h1M35 55h1M54 55h1M88 55h1M91 55h1M93 55h1M3 56h1M6 56h1M9 56h1M34 56h1M55 56h1M88 56h1M91 56h1M93 56h1M3 57h1M6 57h1M9 57h1M32 57h2M56 57h2M89 57h1M91 57h1M93 57h1M2 58h1M6 58h1M8 58h1M89 58h1M91 58h1M94 58h1M2 59h1M6 59h1M8 59h1M89 59h1M91 59h1M94 59h1M2 60h1M7 60h2M90 60h1M94 60h1M1 61h1M7 61h2M90 61h1M94 61h1M1 62h1M7 62h2M90 62h1M94 62h1M1 63h1M8 63h1M90 63h1M95 63h1M1 64h1M8 64h1M90 64h1M95 64h1M0 65h1M9 65h1M89 65h1M95 65h1M0 66h1M9 66h1M89 66h1M95 66h1M0 67h1M10 67h1M89 67h1M95 67h1M0 68h1M10 68h1M88 68h1M95 68h1M0 69h1M11 69h1M88 69h1M95 69h1M0 70h1M12 70h1M87 70h1M95 70h1M0 71h1M13 71h1M86 71h1M94 71h1M0 72h1M14 72h1M85 72h1M94 72h1M0 73h1M15 73h1M84 73h1M94 73h1M1 74h1M15 74h1M83 74h1M94 74h1M1 75h1M16 75h1M82 75h1M93 75h1M1 76h1M16 76h1M81 76h1M93 76h1M2 77h1M9 77h2M17 77h1M80 77h1M93 77h1M2 78h1M10 78h4M17 78h1M79 78h1M93 78h1M3 79h1M10 79h1M14 79h2M17 79h1M79 79h1M92 79h1M4 80h1M11 80h1M16 80h2M78 80h1M92 80h1M5 81h1M11 81h1M78 81h1M84 81h2M92 81h1M6 82h1M11 82h1M78 82h1M82 82h3M91 82h1M7 83h1M11 83h1M78 83h1M80 83h2M84 83h1M91 83h1M8 84h1M11 84h1M78 84h2M83 84h1M90 84h1M9 85h1M11 85h1M83 85h1M89 85h1M10 86h2M83 86h1M88 86h1M83 87h1M87 87h1M83 88h1M86 88h1M83 89h1M85 89h1M83 90h2" />
<path stroke="#d95545" d="M40 20h1M40 21h1M50 21h1M40 22h1M49 22h2M40 23h1M49 23h2M41 24h1M49 24h2M48 25h2" />
<path stroke="#e3dbe0" d="M56 20h2M56 21h2M57 22h2M57 23h2M58 24h2M58 25h3M59 26h3M39 27h1M52 27h1M59 27h4M39 28h2M51 28h2M60 28h4M39 29h1M52 29h1M60 29h5M61 30h5M61 31h6M31 32h1M61 32h8M30 33h3M61 33h9M28 34h3M63 34h9M26 35h3M65 35h9M24 36h4M36 36h1M66 36h10M21 37h8M34 37h2M65 37h13M18 38h13M63 38h17M16 39h16M62 39h20M14 40h18M64 40h20M13 41h17M66 41h20M12 42h15M68 42h19M11 43h13M70 43h18M10 44h12M72 44h17M9 45h11M74 45h15M9 46h9M76 46h14M8 47h8M78 47h12M8 48h7M80 48h11M7 49h7M35 49h1M82 49h9M7 50h6M35 50h1M54 50h1M84 50h7M7 51h5M34 51h2M54 51h2M85 51h6M7 52h4M34 52h2M54 52h2M86 52h5M7 53h3M34 53h1M55 53h1M87 53h4M7 54h3M33 54h2M55 54h2M88 54h3M7 55h2M33 55h2M55 55h2M89 55h2M7 56h2M33 56h1M56 56h1M89 56h2M7 57h2M90 57h1M7 58h1M90 58h1M7 59h1M90 59h1" />
<path stroke="#ffe566" d="M43 21h3M44 22h1M41 29h1M49 29h2M41 30h1M49 30h2M42 31h1M48 31h2M41 32h1M49 32h2M40 37h1M50 37h1M39 38h2M50 38h2M39 39h2M50 39h2M39 40h2M49 40h3M40 41h1M49 41h2M40 50h1M48 50h2M40 51h1M48 51h1M52 51h1" />
<path stroke="#807380" d="M51 21h1M42 22h1M46 22h1M51 22h1M42 23h1M46 23h1M51 23h1M40 24h1M51 24h1M39 25h1M42 25h1M50 25h1M52 25h1M40 26h1M46 26h1M51 26h1M42 27h1M49 27h1M39 31h2M51 31h2M38 32h2M52 32h1M53 33h1M32 36h1M61 36h1" />
<path stroke="#bfbfbf" d="M47 29h1M48 34h1M48 35h1M47 36h2M48 37h1M38 41h1M52 41h2M52 42h4M53 43h5M53 44h7M54 45h4M59 45h4M55 46h4M41 47h1M48 47h1M54 47h1M56 47h3M39 48h1M42 48h1M47 48h1M49 48h1M53 48h2M42 49h6M50 49h4M43 50h3M36 53h1M36 54h2M53 54h1M36 55h3M52 55h2M35 56h5M51 56h4M34 57h7M50 57h6M34 58h8M49 58h9M35 59h8M48 59h6M55 59h3M35 60h2M38 60h6M47 60h8M56 60h2M38 61h7M46 61h3M50 61h5M39 62h2M42 62h8M51 62h4M43 63h7M45 64h4" />
<path stroke="#737373" d="M42 35h1M40 36h3M39 37h1M41 37h1M49 37h1M38 38h1M41 38h1M49 38h1M38 39h1M41 39h1M49 39h1M41 40h1M48 40h1M36 41h2M41 41h1M48 41h1M33 42h3M29 43h4M31 45h1M58 45h1M36 46h1M54 46h1M41 48h1M48 48h1M33 58h1M34 59h1M54 59h1M34 60h1M37 60h1M55 60h1M58 60h1M35 61h3M49 61h1M55 61h3M38 62h1M41 62h1M50 62h1M55 62h1M39 63h4M50 63h5M43 64h2M49 64h1M45 65h4" />
<path stroke="#f2f2f2" d="M43 36h1M42 37h3M46 37h2M42 38h7M42 39h7M42 40h6M42 41h6M36 42h4M42 42h6M51 42h1M33 43h20M29 44h24M32 45h22M32 46h4M37 46h17M36 47h5M42 47h6M49 47h5M36 48h3M43 48h4M50 48h3" />
</svg>