<svg xmlns="http://www.w3.org/2000/svg" viewBox="0 -0.5 96 96" shape-rendering="crispEdges">
<metadata>Made with Pixels to Svg https://codepen.io/shshaw/pen/XbxvNj</metadata>
<path stroke="#8c3948" d="M61 13h7M58 14h2M68 14h1M56 15h2M71 15h1M55 16h1M73 16h1M55 17h1M75 17h1M76 22h1M77 23h1M77 24h1M66 37h1M66 38h1M65 39h1M27 40h2M65 40h1M25 41h2M64 41h1M63 42h1M62 43h1M60 44h2M29 45h1M67 46h1M73 46h1M31 48h1M72 48h1M68 49h1M28 50h1M32 50h1M26 51h2M32 51h1M69 51h1M25 52h1M32 52h1M64 52h1M24 53h1M24 54h1M31 54h1M23 55h1M28 55h1M31 55h1M23 56h1M28 56h1M27 57h1M27 58h1M48 58h1M55 60h1M42 62h3M33 63h2M39 63h3M18 65h3M16 66h2M21 66h1M15 67h1M13 68h2M12 69h1M11 70h1M23 70h1M11 71h1" />
<path stroke="#174a2f" d="M60 14h3M59 15h1M59 16h1M59 17h1M60 18h2M72 22h2M70 23h2M59 24h1M69 24h1M59 25h1M69 25h1M60 26h2M69 26h1M62 27h2M64 28h1M72 28h2M65 29h1M74 29h1M65 30h1M75 30h1M41 31h8M66 31h1M75 31h1M38 32h3M49 32h3M66 32h1M76 32h1M36 33h2M52 33h2M66 33h1M76 33h1M34 34h2M54 34h1M66 34h1M76 34h1M33 35h1M66 35h1M32 36h1M66 36h1M31 37h1M56 37h1M30 38h1M55 38h1M57 38h1M59 38h1M29 39h1M43 39h1M55 39h1M58 39h3M42 40h1M49 40h4M55 40h1M41 41h1M46 41h3M44 42h2M43 46h2M42 47h1M45 47h1M42 48h1M45 48h1M43 49h1M45 49h1M44 50h1M22 57h1M30 57h2M44 57h2M55 57h3M20 58h2M32 58h1M43 58h1M46 58h2M55 58h1M70 58h2M73 58h2M18 59h2M26 59h1M32 59h1M43 59h1M55 59h1M69 59h1M72 59h2M17 60h1M26 60h1M33 60h1M36 60h2M43 60h1M69 60h1M16 61h1M26 61h1M33 61h1M35 61h1M69 61h1M16 62h1M26 62h1M33 62h1M35 62h1M60 62h5M68 62h2M27 63h1M35 63h1M50 63h1M58 63h2M65 63h3M27 64h1M49 64h1M57 64h1M28 65h1M47 65h2M60 65h1M29 66h2M45 66h2M59 66h1M61 66h2M31 67h3M42 67h3M59 67h1M34 68h8M53 68h2M59 68h1M52 69h1M55 69h3M55 70h1" />
<path stroke="#f091d3" d="M63 14h5M58 15h1M64 15h7M56 16h3M64 16h9M56 17h3M64 17h10M55 18h5M63 18h13M55 19h22M56 20h15M75 20h2M58 21h16M76 21h2M68 22h4M74 22h2M77 22h1M75 23h2M76 24h1M76 25h1M63 43h1M62 44h2M28 51h1M26 52h3M25 53h4M25 54h4M50 54h1M24 55h4M29 55h1M50 55h1M25 56h3M29 56h1M50 56h1M62 56h6M26 57h1M28 57h1M60 57h10M28 58h1M58 58h11M27 59h2M51 59h2M61 59h6M27 60h2M49 60h5M27 61h2M49 61h3M28 62h2M48 62h1M29 63h2M44 63h3M31 64h3M41 64h3M34 65h7" />
<path stroke="#101010" d="M69 14h2M63 15h1M72 15h1M63 16h1M74 16h1M62 17h1M76 17h1M54 18h1M77 18h1M54 19h1M78 19h1M55 20h1M79 20h1M56 21h2M79 21h1M56 22h5M80 22h1M56 23h1M58 23h2M61 23h3M74 23h1M80 23h1M56 24h1M64 24h4M74 24h1M80 24h1M57 25h2M74 25h1M80 25h1M72 26h2M80 26h1M70 27h2M80 27h1M80 28h1M80 29h1M80 30h1M79 31h1M79 32h1M79 33h1M55 34h1M78 34h1M56 35h1M78 35h1M57 36h1M78 36h1M58 37h3M78 37h1M61 38h2M79 38h1M63 39h1M79 39h1M58 40h1M61 40h1M63 40h1M79 40h1M49 41h3M56 41h1M58 41h3M62 41h2M79 41h1M24 42h1M41 42h1M49 42h2M57 42h1M78 42h1M24 43h1M42 43h2M46 43h1M48 43h2M78 43h1M25 44h1M44 44h4M78 44h1M26 45h1M77 45h1M27 46h1M30 46h2M45 46h1M53 46h2M77 46h1M28 47h1M31 47h3M40 47h2M46 47h1M52 47h4M67 47h1M73 47h1M76 47h1M29 48h1M32 48h10M46 48h2M52 48h4M67 48h1M73 48h1M76 48h1M29 49h1M32 49h11M46 49h3M51 49h6M72 49h1M74 49h1M76 49h1M29 50h1M33 50h11M45 50h4M51 50h6M68 50h1M72 50h1M74 50h1M76 50h1M29 51h1M33 51h17M51 51h6M67 51h2M72 51h1M75 51h1M29 52h1M33 52h17M51 52h7M65 52h2M69 52h1M71 52h1M29 53h1M32 53h18M51 53h7M69 53h1M71 53h1M29 54h1M32 54h8M49 54h1M51 54h7M69 54h1M71 54h1M32 55h5M49 55h1M51 55h1M54 55h4M69 55h1M71 55h1M31 56h4M49 56h1M51 56h1M56 56h2M70 56h1M72 56h2M32 57h2M49 57h1M52 57h1M74 57h2M29 58h1M52 58h1M57 58h1M76 58h1M29 59h1M48 59h1M53 59h1M57 59h1M75 59h5M29 60h1M48 60h1M54 60h1M56 60h2M73 60h1M75 60h1M80 60h2M29 61h1M38 61h1M44 61h1M48 61h1M73 61h2M82 61h1M30 62h1M38 62h1M45 62h3M70 62h1M73 62h1M83 62h1M15 63h1M31 63h2M38 63h1M71 63h2M83 63h1M15 64h1M36 64h2M83 64h1M15 65h1M80 65h3M74 66h6M63 67h1M72 67h2M63 68h1M71 68h1M60 69h1M63 69h1M70 69h1M51 70h1M58 70h1M61 70h2M70 70h1M23 71h1M51 71h1M55 71h1M58 71h1M69 71h1M11 72h1M22 72h3M52 72h3M56 72h2M67 72h2M12 73h1M16 73h2M21 73h1M25 73h1M48 73h4M65 73h2M13 74h3M18 74h3M26 74h2M46 74h2M52 74h3M62 74h3M28 75h3M43 75h3M55 75h7M31 76h12" />
<path stroke="#f8f8f8" d="M60 15h3M60 16h2M57 23h1M73 23h1M57 24h1M70 24h2M73 24h1M70 25h1M72 25h2M56 38h1M60 38h1M56 40h1M59 40h1M47 42h2M44 43h2M47 43h1M44 47h1M43 48h1M30 58h2M44 58h2M56 58h1M30 59h2M44 59h2M47 59h1M70 59h1M31 60h1M46 60h2M70 60h1M72 60h1M32 61h1M36 61h2M72 61h1M32 62h1M36 62h2M37 63h1M60 66h1M61 67h1M60 68h1M53 69h2M53 70h1M56 70h2" />
<path stroke="#8ea49e" d="M62 16h1M60 17h2M72 23h1M58 24h1M72 24h1M71 25h1M70 26h2M56 39h2M61 39h2M57 40h1M60 40h1M62 40h1M57 41h1M43 47h1M44 48h1M44 49h1M75 58h1M46 59h1M56 59h1M71 59h1M74 59h1M30 60h1M32 60h1M44 60h2M71 60h1M74 60h1M30 61h2M45 61h3M70 61h2M31 62h1M71 62h2M36 63h1M60 67h1M62 67h1M61 68h2M61 69h2M52 70h1M54 70h1M52 71h3M56 71h2" />
<path stroke="#e05c9b" d="M63 17h1M74 17h1M62 18h1M76 18h1M77 19h1M71 20h4M77 20h2M74 21h2M78 21h1M61 22h7M78 22h2M64 23h6M78 23h2M68 24h1M75 24h1M78 24h2M75 25h1M77 25h3M74 26h6M72 27h8M74 28h5M75 29h3M62 42h1M61 43h1M58 45h7M28 46h2M59 46h6M29 47h2M62 47h4M30 48h1M65 48h2M30 49h2M30 50h2M30 51h2M30 52h2M60 52h4M67 52h2M30 53h2M58 53h11M30 54h1M58 54h11M30 55h1M58 55h11M30 56h1M58 56h4M68 56h2M71 56h1M29 57h1M50 57h2M58 57h2M70 57h4M49 58h3M69 58h1M72 58h1M49 59h2M58 59h3M67 59h2M58 60h11M52 61h6M65 61h4M27 62h1M49 62h1M28 63h1M42 63h2M47 63h1M29 64h2M34 64h2M38 64h3M44 64h2M31 65h3M41 65h3M34 66h7" />
<path stroke="#41a569" d="M60 23h1M60 24h4M61 25h5M68 25h1M67 26h2M64 27h6M65 28h7M66 29h8M66 30h9M67 31h8M41 32h8M67 32h9M43 33h9M67 33h9M77 33h1M45 34h9M67 34h9M77 34h1M44 35h12M67 35h11M33 36h1M43 36h14M67 36h11M32 37h3M41 37h15M57 37h1M68 37h9M31 38h24M58 38h1M69 38h6M32 39h11M44 39h11M33 40h9M43 40h6M35 41h5M22 58h2M20 59h5M18 60h8M76 60h4M19 61h7M75 61h5M21 62h5M74 62h4M22 63h5M60 63h5M68 63h3M73 63h3M23 64h4M50 64h4M58 64h14M24 65h4M49 65h11M61 65h9M25 66h4M47 66h12M63 66h4M25 67h6M45 67h14M26 68h8M42 68h7M55 68h4M28 69h18M31 70h11" />
<path stroke="#2733c2" d="M60 25h1M66 25h2M62 26h5M79 28h1M78 29h2M76 30h4M76 31h3M77 32h2M78 33h1M67 37h1M77 37h1M68 38h1M75 38h4M30 39h1M69 39h10M30 40h2M53 40h2M70 40h9M31 41h3M42 41h4M52 41h2M76 41h3M33 42h8M42 42h2M46 42h1M51 42h1M25 43h2M36 43h3M26 44h3M27 45h2M30 45h2M43 45h3M50 45h5M65 45h1M32 46h11M46 46h7M55 46h4M65 46h2M34 47h6M47 47h5M56 47h6M66 47h1M48 48h4M56 48h9M49 49h2M57 49h11M49 50h2M57 50h11M50 51h1M57 51h10M50 52h1M58 52h2M50 53h1M40 54h9M37 55h12M52 55h2M35 56h4M52 56h4M23 57h2M34 57h2M54 57h1M24 58h3M33 58h1M25 59h1M54 59h1M17 61h2M43 61h1M58 61h7M80 61h2M17 62h4M34 62h1M39 62h3M50 62h10M65 62h3M78 62h3M19 63h3M48 63h2M51 63h7M76 63h3M21 64h2M28 64h1M46 64h3M54 64h3M72 64h5M22 65h2M29 65h2M44 65h3M70 65h3M23 66h2M31 66h3M41 66h4M67 66h4M23 67h2M34 67h8M64 67h5M24 68h2M49 68h4M64 68h2M25 69h3M46 69h6M58 69h2M26 70h5M42 70h7M59 70h2M28 71h18M31 72h11" />
<path stroke="#5cc593" d="M38 33h5M36 34h9M34 35h10M34 36h9M35 37h6" />
<path stroke="#3687e0" d="M67 38h1M31 39h1M68 39h1M29 40h1M32 40h1M30 41h1M34 41h1M40 41h1M54 41h1M65 41h1M25 42h1M32 42h1M52 42h1M64 42h2M27 43h1M35 43h1M39 43h1M50 43h1M64 43h2M29 44h1M64 44h2M32 45h1M42 45h1M66 45h1M24 56h1M39 56h10M25 57h1M36 57h8M46 57h3M53 57h1M34 58h9M53 58h2M33 59h10M34 60h2M38 60h5M34 61h1M39 61h4" />
<path stroke="#f5e72c" d="M66 39h2M66 40h3M27 41h3M66 41h3M26 42h6M53 42h1M66 42h3M28 43h7M40 43h2M51 43h2M66 43h2M30 44h14M48 44h3M66 44h2M33 45h9M46 45h2M81 62h1M16 63h3M79 63h3M16 64h1M77 64h4M73 65h5M71 66h2M69 67h2M15 68h4M66 68h4M13 69h8M64 69h6M14 70h8M25 70h1M49 70h2M63 70h6M13 71h10M26 71h2M46 71h5M59 71h8M13 72h3M18 72h4M26 72h5M42 72h10M55 72h1M58 72h7M13 73h2M19 73h2M27 73h20M53 73h11M29 74h16M56 74h5M32 75h10" />
<path stroke="#c2a016" d="M69 40h1M55 41h1M61 41h1M69 41h7M54 42h3M58 42h4M69 42h9M53 43h8M68 43h10M51 44h9M68 44h10M48 45h2M55 45h3M67 45h10M68 46h5M74 46h3M68 47h5M74 47h2M68 48h4M74 48h2M69 49h3M75 49h1M69 50h3M75 50h1M70 51h2M70 52h1M70 53h1M70 54h1M70 55h1M82 62h1M82 63h1M17 64h4M81 64h2M16 65h2M21 65h1M78 65h2M18 66h3M22 66h1M73 66h1M16 67h7M71 67h1M19 68h5M70 68h1M21 69h4M12 70h2M22 70h1M24 70h1M69 70h1M12 71h1M24 71h2M67 71h2M12 72h1M16 72h2M25 72h1M65 72h2M15 73h1M18 73h1M26 73h1M47 73h1M52 73h1M64 73h1M28 74h1M45 74h1M55 74h1M61 74h1M31 75h1M42 75h1" />
</svg>