<svg xmlns="http://www.w3.org/2000/svg" viewBox="0 -0.5 96 96" shape-rendering="crispEdges">
<metadata>Made with Pixels to Svg https://codepen.io/shshaw/pen/XbxvNj</metadata>
<path stroke="#322c29" d="M39 31h8M34 32h5M30 33h4M26 34h1M23 35h3M21 36h2M56 36h3M19 37h2M57 37h4M18 38h1M57 38h6M17 39h1M57 39h7M16 40h1M59 40h6M15 41h1M60 41h1M62 41h4M14 42h1M59 42h1M61 42h1M63 42h1M65 42h2M13 43h1M60 43h1M62 43h1M64 43h1M66 43h2M12 44h2M54 44h1M60 44h2M63 44h2M66 44h3M12 45h1M54 45h1M59 45h7M67 45h3M11 46h1M53 46h1M57 46h9M67 46h5M11 47h1M49 47h4M54 47h12M67 47h5M10 48h1M42 48h24M67 48h4M41 49h10M52 49h14M69 49h4M38 50h7M49 50h2M52 50h13M39 51h5M46 51h3M53 51h12M40 52h3M45 52h6M53 52h12M40 53h2M45 53h6M54 53h9M37 54h4M47 54h2M56 54h6M63 54h1M39 55h2M60 55h4M39 56h1M57 56h6M57 57h1M61 57h1M59 58h1" />
<path stroke="#797570" d="M47 31h5M52 32h4M77 32h1M56 33h3M76 33h1M81 33h1M28 34h1M59 34h2M76 34h1M80 34h1M17 35h1M28 35h1M61 35h1M75 35h1M79 35h1M16 36h1M28 36h1M30 36h1M75 36h1M78 36h1M83 36h3M15 37h1M26 37h1M74 37h1M82 37h1M15 38h1M17 38h1M65 38h1M73 38h1M80 38h1M71 39h1M71 40h2M34 45h6M39 46h1M37 47h2M38 49h1M26 50h1M36 50h1M24 51h2M32 52h2M36 52h1M39 52h1M37 53h1M14 54h1" />
<path stroke="#414141" d="M39 32h8M34 33h7M31 34h6M31 35h2M23 36h2M54 36h2M21 37h3M35 37h1M51 37h6M19 38h4M34 38h2M38 38h2M49 38h3M55 38h2M18 39h3M33 39h2M36 39h3M17 40h2M31 40h7M16 41h2M30 41h7M55 41h2M61 41h1M83 41h2M15 42h2M29 42h11M45 42h6M57 42h2M60 42h1M62 42h1M83 42h1M14 43h2M27 43h11M42 43h12M59 43h1M61 43h1M63 43h1M82 43h2M14 44h2M18 44h1M22 44h1M25 44h11M38 44h16M55 44h2M62 44h1M82 44h1M13 45h4M18 45h5M25 45h9M40 45h14M55 45h4M81 45h3M12 46h4M18 46h4M25 46h6M40 46h13M54 46h3M79 46h4M12 47h2M18 47h2M25 47h2M41 47h8M72 47h9M12 48h1M17 48h2M24 48h1M71 48h8M11 49h1M19 49h1M24 49h2M73 49h3M13 50h1M19 50h2M10 51h3M19 51h1M11 52h1M35 53h2M29 54h1M35 55h1M22 58h2M24 59h2M25 60h2M33 60h2M24 61h1M35 61h2M35 62h1" />
<path stroke="#abadaf" d="M47 32h5M41 33h1M51 33h5M37 34h1M55 34h4M18 35h1M20 35h1M33 35h1M56 35h5M18 36h1M20 36h1M53 36h1M59 36h4M16 37h1M18 37h1M28 37h1M30 37h1M61 37h3M16 38h1M23 38h1M26 38h1M28 38h1M48 38h1M52 38h3M63 38h2M15 39h1M21 39h1M25 39h1M56 39h1M64 39h3M72 39h1M15 40h1M19 40h1M25 40h1M58 40h1M65 40h4M73 40h1M82 40h1M14 41h1M18 41h1M29 41h1M54 41h1M57 41h1M59 41h1M66 41h4M81 41h1M17 42h1M28 42h1M44 42h1M51 42h1M56 42h1M67 42h5M82 42h1M16 43h1M22 43h1M26 43h1M41 43h1M54 43h1M58 43h1M68 43h5M19 44h1M21 44h1M24 44h1M57 44h1M59 44h1M69 44h2M81 44h1M70 45h2M80 45h1M16 46h1M31 46h1M38 46h1M72 46h1M78 46h1M14 47h1M17 47h1M27 47h1M32 47h5M11 48h1M16 48h1M28 48h13M18 49h1M26 49h12M15 50h4M21 50h5M27 50h9M13 51h6M20 51h4M27 51h8M37 51h1M12 52h9M26 52h6M38 52h1M24 53h4M15 54h1M20 54h5M19 55h3" />
<path stroke="#010101" d="M29 33h1M78 33h1M82 33h1M18 34h1M20 34h1M27 34h1M30 34h1M78 34h1M82 34h1M19 35h1M21 35h1M26 35h1M30 35h1M62 35h1M78 35h1M82 35h1M17 36h1M19 36h1M25 36h2M63 36h1M81 36h1M17 37h1M24 37h1M64 37h1M81 37h1M85 37h1M24 38h1M66 38h1M84 38h1M14 39h1M16 39h1M23 39h1M67 39h2M83 39h1M14 40h1M23 40h1M69 40h2M13 41h1M23 41h1M13 42h1M64 42h1M65 43h1M65 44h1M23 45h2M66 45h1M84 45h1M22 46h1M24 46h1M66 46h1M83 46h1M20 47h1M22 47h1M39 47h2M66 47h1M81 47h2M19 48h1M22 48h1M41 48h1M66 48h1M79 48h2M10 49h1M39 49h2M67 49h2M76 49h3M9 50h1M37 50h1M46 50h3M69 50h7M9 51h1M38 51h1M44 51h2M49 51h3M65 51h1M10 52h1M21 52h3M34 52h2M43 52h2M52 52h1M65 52h1M12 53h8M28 53h7M38 53h2M42 53h1M44 53h1M51 53h1M64 53h1M19 54h1M25 54h3M30 54h1M35 54h1M41 54h1M43 54h1M50 54h1M54 54h1M64 54h1M18 55h1M22 55h3M29 55h1M41 55h1M43 55h1M48 55h1M64 55h1M17 56h5M30 56h1M40 56h1M42 56h1M46 56h2M56 56h1M63 56h1M16 57h1M30 57h1M40 57h1M43 57h3M55 57h1M62 57h1M16 58h1M21 58h1M29 58h1M39 58h1M54 58h1M60 58h2M15 59h1M21 59h1M29 59h1M39 59h1M54 59h1M58 59h2M15 60h1M20 60h1M27 60h2M31 60h2M38 60h1M55 60h3M14 61h1M20 61h1M25 61h2M30 61h1M21 62h4M29 62h1M36 62h2M29 63h2M34 63h2M31 64h3" />
<path stroke="#f5f5f6" d="M42 33h9M77 33h1M29 34h1M38 34h17M77 34h1M81 34h1M27 35h1M29 35h1M34 35h22M76 35h2M80 35h2M27 36h1M29 36h1M31 36h4M37 36h16M76 36h2M79 36h2M25 37h1M27 37h1M29 37h1M31 37h3M37 37h1M41 37h10M75 37h6M83 37h2M25 38h1M27 38h1M29 38h4M41 38h7M74 38h6M81 38h3M22 39h1M24 39h1M26 39h6M40 39h16M73 39h10M20 40h3M24 40h1M26 40h5M39 40h19M74 40h8M19 41h4M24 41h5M41 41h13M58 41h1M70 41h11M18 42h10M41 42h3M52 42h4M72 42h10M17 43h5M23 43h3M40 43h1M55 43h3M73 43h9M16 44h2M20 44h1M23 44h1M58 44h1M71 44h10M17 45h1M72 45h8M17 46h1M32 46h6M73 46h5M15 47h2M21 47h1M28 47h4M13 48h3M25 48h3M12 49h6M10 50h3M14 50h1M26 51h1M35 51h2M25 52h1M37 52h1M20 53h1M22 53h1M44 55h1M46 55h1M43 56h1M45 56h1M56 57h1M59 57h2M55 58h1M57 58h2M56 59h2" />
<path stroke="#1c1917" d="M35 36h2M34 37h1M36 37h1M38 37h3M33 38h1M36 38h2M40 38h1M32 39h1M35 39h1M39 39h1M38 40h1M83 40h3M37 41h4M82 41h1M85 41h1M40 42h1M84 42h1M38 43h2M84 43h1M36 44h2M83 44h1M53 47h1M51 49h1M66 49h1M45 50h1M51 50h1M65 50h1M52 51h1M51 52h1M53 53h1M63 53h1M44 54h3M49 54h1M55 54h1M62 54h1M38 55h1M45 55h1M49 55h1M56 55h4M44 56h1M39 57h1M58 57h1M56 58h1M23 59h1M55 59h1M22 60h1M21 61h1M33 61h2M31 62h2" />
<path stroke="#ff4e89" d="M23 46h1M23 47h1M20 48h2M23 48h1M21 49h2M17 54h2M16 55h2M16 56h1M15 57h1M15 58h1M14 59h1M14 60h1" />
<path stroke="#bc3065" d="M24 47h1M20 49h1M23 49h1M24 52h1M21 53h1M23 53h1M16 54h1M15 55h1M15 56h1M14 57h1M14 58h1M13 59h1M13 60h1M13 61h1" />
<path stroke="#68696a" d="M28 54h1M34 54h1M36 54h1M26 55h1M28 55h1M33 55h1M37 55h1M22 56h1M26 56h1M28 56h2M32 56h1M35 56h1M38 56h1M22 57h1M29 57h1M32 57h1M38 57h1M24 58h1M28 58h1M31 58h1M38 58h1M26 59h3M31 59h2M37 59h2M35 60h3M37 61h1" />
<path stroke="#949496" d="M25 55h1M27 55h1M34 55h1M36 55h1M23 56h3M27 56h1M33 56h2M36 56h2M23 57h6M33 57h5M25 58h3M32 58h6M22 59h1M33 59h4M21 60h1M23 60h2M22 61h2M31 61h2M30 62h1M33 62h2M31 63h3" />
</svg>