<svg xmlns="http://www.w3.org/2000/svg" viewBox="0 -0.5 96 96" shape-rendering="crispEdges">
<metadata>Made with Pixels to Svg https://codepen.io/shshaw/pen/XbxvNj</metadata>
<path stroke="#8d4229" d="M51 0h4M39 1h3M50 1h1M55 1h1M38 2h1M42 2h1M49 2h1M56 2h1M37 3h1M43 3h1M49 3h1M56 3h1M37 4h1M43 4h1M48 4h1M56 4h1M37 5h1M44 5h1M48 5h1M56 5h1M37 6h1M44 6h1M48 6h1M56 6h1M38 7h1M44 7h1M47 7h1M56 7h1M38 8h1M45 8h1M47 8h1M55 8h1M38 9h1M45 9h1M47 9h1M55 9h1M39 10h1M45 10h1M47 10h1M54 10h1M39 11h1M45 11h1M47 11h1M54 11h1M40 12h1M45 12h1M47 12h1M53 12h1M40 13h1M45 13h1M47 13h1M53 13h1M41 14h1M45 14h1M47 14h1M52 14h1M51 15h1M48 24h1M42 25h1M47 25h1M41 26h1M45 26h3M41 27h1M46 27h1M40 28h1M44 28h3M40 29h1M45 29h1M40 30h1M43 30h3M40 31h1M44 31h2M40 32h1M44 32h1M40 33h1M40 34h1M40 35h1M41 43h1M38 44h3M64 44h1M28 45h3M36 45h2M58 45h3M67 45h2M26 46h2M51 46h6M65 46h2M23 47h3M33 47h3M48 47h3M22 48h1M36 48h1M46 48h2M20 49h2M39 49h6M19 50h1M74 50h1M18 51h1M18 52h1M75 52h1M17 53h1M73 53h1M17 54h1M19 54h1M68 54h1M73 54h1M76 54h1M18 55h1M68 55h1M73 55h1M68 56h1M37 57h1M46 58h1M65 61h1M26 68h1" />
<path stroke="#e9c558" d="M51 1h4M39 2h3M50 2h6M38 3h5M50 3h6M38 4h5M49 4h7M38 5h6M49 5h2M52 5h4M38 6h3M42 6h2M49 6h1M53 6h3M39 7h1M43 7h1M48 7h2M53 7h3M39 8h1M43 8h2M48 8h3M52 8h3M39 9h2M42 9h3M48 9h7M40 10h5M48 10h6M40 11h5M48 11h6M41 12h4M48 12h5M42 13h3M48 13h4M43 14h2M48 14h3M42 18h2M59 18h2M33 19h1M41 19h3M52 19h3M58 19h2M32 20h2M40 20h2M34 21h1M39 21h1M28 46h6M58 46h7M67 46h2M26 47h6M51 47h19M23 48h12M48 48h11M62 48h9M22 49h8M31 49h7M46 49h11M59 49h12M20 50h11M33 50h39M19 51h53M19 52h2M23 52h4M29 52h12M43 52h29M18 53h2M30 53h9M44 53h24M70 53h2M18 54h1M32 54h4M45 54h8M56 54h11M47 55h4M57 55h9M59 56h5M22 71h2M62 71h1M23 72h1M44 72h1M53 72h1M61 72h3M23 73h1M37 73h1M43 73h3M53 73h1M61 73h3M22 74h1M32 74h1M36 74h3M43 74h3M48 74h1M52 74h2M62 74h1M23 75h1M31 75h3M36 75h2M44 75h1M47 75h3M52 75h1M62 75h1M23 76h1M32 76h2M36 76h2M44 76h1M47 76h2M51 76h2M66 76h1M24 77h1M32 77h2M36 77h1M47 77h2M51 77h2M66 77h1M24 78h2M28 78h1M33 78h1M40 78h1M47 78h1M50 78h3M65 78h2M25 79h1M28 79h2M40 79h2M50 79h3M65 79h2M25 80h2M28 80h3M40 80h3M49 80h4M64 80h3M26 81h6M39 81h4M49 81h4M26 82h7M39 82h5M48 82h6M27 83h7M39 83h6M48 83h6M27 84h8M38 84h7M47 84h7M28 85h8M38 85h8M47 85h8M29 86h8M38 86h17M31 87h24M33 88h23M36 89h17" />
<path stroke="#d54456" d="M51 5h1M41 6h1M50 6h1M52 6h1M40 7h1M42 7h1M50 7h1M52 7h1M40 8h1M42 8h1M51 8h1M41 9h1M45 25h1M42 26h3M42 27h3M41 28h3M41 29h3M41 30h2M41 31h2M41 32h2M41 33h1M41 34h1M41 35h1" />
<path stroke="#f9f9f9" d="M51 6h1M41 7h1M51 7h1M41 8h1M59 48h3M30 49h1M57 49h2M31 50h2" />
<path stroke="#c68a48" d="M41 13h1M52 13h1M42 14h1M51 14h1M48 15h3M59 17h2M53 18h3M57 18h2M44 19h1M49 19h2M42 20h1M46 20h3M56 20h3M45 21h1M57 21h1M58 43h2M59 44h5M38 45h2M61 45h6M36 46h2M57 46h1M69 46h2M32 47h1M70 47h3M35 48h1M71 48h2M38 49h1M45 49h1M71 49h3M72 50h2M72 51h3M21 52h2M27 52h2M41 52h2M72 52h3M20 53h1M23 53h7M39 53h5M68 53h2M72 53h1M74 53h2M24 54h3M29 54h3M36 54h4M43 54h2M53 54h3M67 54h1M69 54h4M74 54h2M17 55h1M19 55h1M24 55h2M30 55h9M44 55h3M51 55h3M56 55h1M66 55h2M69 55h4M74 55h3M17 56h3M23 56h3M30 56h8M45 56h8M57 56h2M64 56h4M69 56h5M75 56h2M17 57h2M22 57h4M31 57h6M45 57h7M57 57h11M69 57h5M75 57h2M18 58h1M22 58h4M33 58h3M47 58h3M58 58h10M70 58h5M18 59h1M23 59h3M58 59h9M70 59h5M17 60h2M24 60h2M59 60h8M70 60h6M17 61h2M24 61h2M61 61h4M71 61h5M17 62h2M24 62h3M71 62h6M18 63h1M23 63h4M72 63h5M18 64h1M22 64h6M74 64h3M22 65h6M21 66h7M21 67h6M21 68h5M22 69h3M53 71h1M61 71h1M63 71h1M22 72h1M43 72h1M45 72h1M36 73h1M38 73h1M52 73h1M71 73h2M31 74h1M33 74h1M47 74h1M49 74h1M61 74h1M63 74h1M70 74h3M38 75h1M43 75h1M45 75h1M51 75h1M66 75h1M70 75h2M24 76h1M31 76h1M49 76h1M69 76h1M28 77h1M40 77h1M50 77h1M65 77h1M72 77h1M29 78h1M41 78h1M67 78h1M71 78h1M26 79h1M30 79h1M39 79h1M49 79h1M64 79h1M67 79h1M70 79h2M27 80h1M31 80h1M39 80h1M67 80h4M32 81h1M43 81h1M48 81h1M66 81h5M33 82h1M38 82h1M68 82h2M34 83h1M38 83h1M47 83h1M35 84h1M45 84h1M36 85h2M46 85h1M37 86h1M30 87h1M31 88h2M32 89h4M53 89h3M33 90h24M35 91h23M37 92h22M40 93h18" />
<path stroke="#772628" d="M54 13h3M57 14h2M40 15h8M59 15h1M37 16h3M48 16h3M60 16h1M35 17h2M53 17h1M57 17h1M33 18h2M52 18h1M56 18h1M32 19h1M51 19h1M57 19h1M31 20h1M49 20h1M30 21h1M46 21h3M30 22h1M44 22h2M31 23h2M43 23h1M33 24h1M41 24h2M34 25h7M21 53h2M20 54h1M23 54h1M40 54h3M20 55h1M23 55h1M26 55h1M29 55h1M39 55h1M43 55h1M54 55h2M20 56h1M22 56h1M38 56h1M44 56h1M56 56h1M19 57h1M21 57h1M19 58h1M21 58h1M32 58h1M36 58h1M50 58h1M57 58h1M69 58h1M19 59h1M22 59h1M69 59h1M19 60h1M23 60h1M19 61h1M23 61h1M26 61h1M60 61h1M70 61h1M19 62h1M23 62h1M19 63h1M22 63h1M19 64h1M21 64h1M73 64h1M19 65h1M21 65h1M19 66h1M19 67h1M27 67h1M20 69h1M21 72h1" />
<path stroke="#a63139" d="M53 14h4M52 15h7M51 16h9M52 17h1M54 17h3M58 17h1M44 23h2M43 24h4M43 25h2M21 54h2M21 55h2M27 55h2M40 55h3M21 56h1M27 56h2M39 56h2M54 56h2M20 57h1M27 57h3M27 58h4M27 59h2M46 59h1M68 59h1M27 60h1M68 60h1M27 61h1M69 61h1M65 62h1M70 63h1M70 64h2M71 65h3M71 66h4M71 67h4M71 68h4M71 69h4M71 70h4M70 71h4M70 72h4M70 73h1M73 73h1M73 74h1M69 75h1M72 75h1M70 76h3M69 77h3M69 78h2M68 79h2" />
<path stroke="#d2394d" d="M40 16h8M37 17h15M35 18h7M44 18h8M34 19h7M45 19h4M34 20h6M43 20h3M31 21h3M35 21h4M40 21h5M31 22h13M33 23h10M34 24h7M41 56h3M39 57h5M53 57h3M20 58h1M38 58h7M52 58h5M20 59h2M29 59h4M36 59h10M50 59h7M20 60h3M28 60h30M20 61h3M28 61h31M67 61h2M20 62h3M28 62h33M66 62h4M20 63h2M28 63h42M20 64h1M29 64h41M20 65h1M29 65h42M29 66h42M28 67h43M28 68h43M27 69h29M58 69h13M21 70h1M25 70h30M59 70h12M21 71h1M24 71h29M54 71h1M59 71h2M64 71h6M24 72h19M46 72h7M59 72h2M64 72h6M22 73h1M24 73h12M39 73h4M46 73h6M59 73h2M64 73h6M23 74h8M34 74h2M39 74h4M46 74h1M50 74h2M60 74h1M64 74h6M24 75h7M34 75h2M39 75h4M46 75h1M50 75h1M60 75h2M63 75h3M67 75h2M25 76h6M34 76h2M38 76h6M45 76h2M50 76h1M61 76h5M67 76h2M25 77h3M29 77h3M34 77h2M37 77h3M41 77h6M49 77h1M61 77h4M67 77h2M26 78h2M30 78h3M34 78h6M42 78h5M48 78h2M62 78h3M68 78h1M27 79h1M31 79h8M42 79h7M63 79h1M32 80h7M43 80h6M33 81h6M44 81h4M34 82h4M44 82h4M35 83h3M45 83h2M36 84h2M46 84h1" />
<path stroke="#101010" d="M61 17h1M61 18h1M55 19h2M60 19h1M50 20h5M59 20h1M58 21h1M57 22h1M57 23h1M47 24h1M57 24h1M46 25h1M56 25h1M53 26h3M45 27h1M49 27h1M53 27h1M48 28h1M53 28h1M44 29h1M48 29h1M53 29h1M47 30h1M53 30h1M43 31h1M47 31h1M53 31h1M43 32h1M46 32h1M53 32h1M42 33h1M46 33h1M53 33h1M42 34h4M54 34h1M42 35h1M54 35h1M41 36h1M54 36h1M54 37h1M55 38h1M55 39h1M55 40h1M56 41h1M56 42h4M57 43h1M60 43h4M58 44h1M65 44h2M31 45h3M69 45h2M34 46h2M71 46h2M36 47h1M73 47h1M37 48h1M73 48h1M74 49h1M75 51h1M76 53h1M27 54h2M77 54h1M16 55h1M77 55h1M16 56h1M26 56h1M29 56h1M53 56h1M74 56h1M77 56h1M16 57h1M26 57h1M30 57h1M38 57h1M44 57h1M52 57h1M56 57h1M68 57h1M74 57h1M77 57h1M17 58h1M26 58h1M31 58h1M37 58h1M45 58h1M51 58h1M68 58h1M75 58h2M17 59h1M26 59h1M33 59h3M47 59h3M57 59h1M67 59h1M75 59h1M16 60h1M26 60h1M58 60h1M67 60h1M69 60h1M76 60h1M16 61h1M59 61h1M66 61h1M76 61h1M16 62h1M27 62h1M61 62h4M70 62h1M77 62h1M17 63h1M27 63h1M71 63h1M77 63h1M17 64h1M28 64h1M72 64h1M77 64h1M18 65h1M28 65h1M74 65h3M18 66h1M20 66h1M28 66h1M75 66h1M20 67h1M75 67h1M20 68h1M27 68h1M75 68h1M21 69h1M25 69h2M75 69h1M20 70h1M22 70h3M75 70h1M20 71h1M74 71h1M74 72h1M21 73h1M74 73h1M21 74h1M74 74h1M22 75h1M73 75h1M22 76h1M73 76h1M23 77h1M73 77h1M23 78h1M72 78h1M24 79h1M72 79h1M24 80h1M71 80h1M73 80h2M25 81h1M71 81h1M75 81h1M25 82h1M70 82h1M76 82h1M26 83h1M77 83h1M26 84h1M77 84h1M27 85h1M78 85h1M28 86h1M78 86h1M29 87h1M78 87h1M30 88h1M78 88h1M31 89h1M56 89h1M78 89h1M32 90h1M57 90h1M78 90h1M33 91h2M58 91h1M77 91h1M35 92h2M59 92h1M77 92h1M37 93h3M58 93h4M76 93h1M40 94h18M62 94h2M74 94h2M64 95h10" />
<path stroke="#427638" d="M55 20h1M49 21h3M56 21h1M46 22h5M49 23h2M37 26h1M52 26h1M38 27h3M52 27h1M51 28h2M51 29h2M51 30h2M50 31h3M50 32h3M50 33h3M50 34h4M44 35h1M50 35h4M44 36h1M50 36h4M44 37h1M50 37h4M44 38h1M51 38h4M43 39h1M51 39h4M43 40h1M51 40h4M43 41h1M52 41h4M42 42h1M52 42h4M42 43h1M53 43h4M41 44h1M53 44h5M40 45h1M54 45h4M38 46h2M37 47h1M72 80h1M72 81h3M64 82h2M71 82h5M64 83h4M71 83h6M65 84h6M74 84h3M65 85h13M65 86h13M67 87h10M70 88h5" />
<path stroke="#2c4828" d="M52 21h1M51 22h1M46 23h3M51 23h1M49 24h3M52 25h1M56 69h2M55 70h1M58 70h1M55 71h1M58 71h1M54 72h1M58 72h1M54 73h1M58 73h1M54 74h1M59 74h1M53 75h1M59 75h1M53 76h1M60 76h1M53 77h1M60 77h1M53 78h1M61 78h1M53 79h1M62 79h1M53 80h1M63 80h1M53 81h1M64 81h2M54 82h1M66 82h2M54 83h1M68 83h3M54 84h1M71 84h3M55 85h1M55 86h1M55 87h1M56 88h1" />
<path stroke="#dad08b" d="M53 21h3M52 22h5M52 23h5M52 24h4M49 25h2M48 26h2M48 27h1M47 28h1M47 29h1M46 30h1M46 31h1M43 33h3M49 33h1M46 34h4M45 35h5M45 36h5M45 37h5M45 38h5M44 39h6M44 40h7M44 41h7M43 42h9M43 43h9M42 44h10M41 45h10M41 46h9M43 47h5M55 73h1M55 74h2M54 75h3M54 76h3M54 77h3M54 78h4M54 79h4M54 80h4M54 81h5M55 82h4M55 83h5M55 84h5M56 85h6M56 86h8M56 87h9M57 88h7M58 89h4" />
<path stroke="#b3ac62" d="M56 24h1M41 25h1M48 25h1M51 25h1M53 25h3M38 26h3M50 26h2M47 27h1M50 27h2M49 28h2M46 29h1M49 29h2M48 30h3M48 31h2M45 32h1M47 32h3M47 33h2M50 38h1M50 39h1M51 41h1M52 43h1M52 44h1M51 45h3M40 46h1M50 46h1M38 47h5M38 48h8M55 72h2M56 73h1M57 77h1M58 80h1M59 82h1M60 84h1M62 85h1M64 86h1M65 87h2M77 87h1M64 88h6M75 88h3M57 89h1M62 89h16M58 90h20M59 91h18M60 92h17M62 93h14M64 94h10" />
<path stroke="#39a43d" d="M56 70h2M56 71h2M57 72h1M57 73h1M57 74h2M57 75h2M57 76h3M58 77h2M58 78h3M58 79h4M59 80h4M59 81h5M60 82h4M60 83h4M61 84h4M63 85h2" />
</svg>