<svg xmlns="http://www.w3.org/2000/svg" viewBox="0 -0.5 96 96" shape-rendering="crispEdges">
<metadata>Made with Pixels to Svg https://codepen.io/shshaw/pen/XbxvNj</metadata>
<path stroke="#25134c" d="M61 0h2M69 0h6M51 1h1M58 1h3M65 1h4M50 2h1M56 2h2M62 2h3M75 2h7M49 3h1M55 3h1M62 3h1M74 3h2M82 3h1M48 4h1M54 4h1M48 5h1M53 5h1M62 5h1M67 5h1M75 5h1M82 5h1M84 5h2M47 6h1M52 6h1M58 6h1M77 6h1M86 6h2M42 7h1M47 7h1M54 7h1M69 7h1M42 8h1M46 8h1M65 8h1M70 8h1M82 8h1M87 8h1M42 9h1M46 9h1M70 9h1M84 9h1M88 9h1M42 10h1M45 10h1M42 11h1M45 11h1M79 11h1M89 11h1M42 12h1M85 12h1M43 13h1M50 13h1M63 13h3M74 13h4M84 13h1M93 13h1M43 14h1M49 14h1M51 14h1M62 14h1M75 14h1M79 14h1M92 14h1M43 15h1M51 15h1M74 15h1M80 15h1M90 15h2M43 16h1M52 16h1M42 17h1M75 17h3M91 17h1M42 18h1M83 18h1M91 18h1M42 19h1M91 19h1M42 20h1M44 20h1M46 20h1M70 20h3M41 21h1M73 21h2M34 22h1M41 22h1M47 22h1M70 22h1M33 23h1M41 23h1M45 23h1M72 23h1M88 23h1M33 24h1M41 24h1M46 24h3M60 24h2M71 24h1M89 24h1M33 25h1M40 25h1M42 25h1M53 25h1M58 25h1M61 25h1M89 25h1M32 26h1M39 26h1M41 26h2M44 26h1M52 26h1M57 26h1M59 26h1M86 26h1M88 26h2M32 27h1M38 27h1M40 27h1M42 27h1M46 27h2M51 27h2M58 27h2M73 27h1M87 27h3M12 28h1M23 28h1M32 28h1M39 28h1M43 28h1M45 28h1M48 28h1M52 28h1M57 28h3M72 28h1M77 28h1M87 28h3M12 29h1M23 29h1M31 29h1M38 29h1M42 29h2M52 29h1M58 29h2M76 29h1M83 29h1M88 29h2M12 30h1M23 30h1M31 30h1M35 30h1M39 30h1M41 30h1M43 30h1M52 30h2M58 30h1M67 30h3M75 30h1M81 30h1M85 30h1M12 31h1M22 31h1M31 31h1M40 31h1M44 31h1M51 31h1M54 31h1M74 31h1M79 31h1M83 31h2M3 32h1M12 32h1M22 32h1M30 32h1M39 32h1M44 32h1M51 32h2M61 32h1M78 32h1M81 32h3M3 33h1M12 33h1M18 33h6M30 33h1M40 33h1M44 33h1M50 33h4M62 33h1M76 33h1M79 33h1M81 33h2M3 34h1M12 34h1M25 34h7M41 34h1M45 34h1M50 34h5M59 34h1M78 34h1M81 34h1M4 35h1M11 35h1M20 35h2M32 35h8M42 35h1M45 35h1M49 35h4M60 35h1M70 35h3M74 35h4M4 36h1M11 36h4M18 36h2M43 36h1M49 36h3M74 36h2M5 37h1M9 37h3M16 37h2M44 37h1M48 37h3M60 37h1M62 37h4M67 37h4M74 37h1M5 38h1M30 38h1M45 38h1M48 38h2M60 38h1M62 38h1M66 38h3M6 39h1M24 39h2M52 39h1M59 39h2M6 40h1M24 40h4M41 40h1M50 40h2M57 40h1M6 41h1M28 41h2M31 41h2M40 41h1M49 41h1M57 41h1M6 42h1M25 42h1M30 42h5M40 42h1M42 42h1M47 42h1M60 42h2M6 43h1M25 43h1M32 43h5M43 43h1M46 43h1M55 43h1M5 44h1M25 44h1M39 44h1M46 44h1M51 44h1M55 44h1M61 44h2M5 45h1M25 45h1M39 45h1M46 45h1M51 45h1M55 45h1M5 46h1M17 46h1M25 46h1M34 46h3M43 46h1M54 46h1M57 46h1M5 47h2M17 47h1M25 47h1M30 47h3M34 47h1M37 47h1M41 47h1M53 47h1M56 47h1M60 47h1M17 48h1M25 48h1M28 48h2M34 48h1M52 48h1M55 48h1M60 48h1M17 49h1M25 49h3M35 49h1M53 49h2M17 50h1M23 50h3M54 50h1M62 50h1M64 50h1M17 51h1M21 51h2M24 51h1M32 51h1M55 51h1M7 52h1M17 52h1M19 52h2M32 52h1M56 52h1M60 52h2M7 53h1M17 53h2M22 53h1M32 53h1M42 53h4M57 53h1M59 53h1M64 53h1M7 54h1M14 54h1M16 54h1M20 54h1M30 54h2M35 54h1M42 54h1M46 54h2M58 54h1M64 54h1M7 55h1M13 55h1M15 55h1M18 55h1M26 55h3M34 55h1M37 55h2M42 55h1M57 55h1M8 56h1M11 56h2M17 56h1M25 56h1M33 56h1M36 56h3M42 56h1M58 56h1M8 57h1M23 57h3M27 57h1M32 57h1M37 57h1M42 57h1M59 57h1M68 57h1M9 58h1M13 58h1M16 58h1M21 58h1M27 58h1M42 58h1M60 58h1M63 58h3M9 59h1M12 59h1M18 59h2M28 59h1M61 59h2M65 59h1M8 60h1M11 60h1M17 60h1M28 60h1M61 60h1M6 61h1M8 61h1M10 61h1M17 61h1M29 61h1M60 61h1M68 61h1M1 62h1M5 62h1M7 62h1M9 62h1M15 62h1M29 62h1M35 62h1M61 62h1M1 63h1M5 63h1M13 63h2M29 63h1M32 63h1M37 63h1M62 63h1M1 64h1M12 64h1M23 64h1M30 64h2M35 64h1M63 64h1M2 65h1M11 65h1M23 65h1M30 65h1M34 65h1M64 65h1M2 66h2M10 66h1M23 66h1M30 66h1M33 66h1M65 66h1M3 67h1M10 67h1M24 67h1M29 67h1M38 67h1M66 67h1M2 68h1M24 68h1M29 68h1M33 68h1M35 68h2M67 68h1M2 69h1M25 69h1M31 69h1M35 69h1M68 69h1M2 70h1M25 70h1M27 70h1M30 70h1M69 70h1M1 71h1M26 71h1M30 71h1M70 71h1M1 72h1M26 72h1M29 72h1M71 72h1M1 73h1M19 73h1M26 73h1M29 73h1M1 74h1M19 74h1M25 74h1M28 74h1M1 75h1M20 75h1M25 75h1M29 75h3M20 76h1M25 76h1M30 76h1M21 77h1M21 78h1M27 78h1M22 79h1M24 79h1M27 79h1M23 80h2M26 80h1M23 81h1M26 81h1M18 82h1M23 82h1M27 82h2M18 83h1M23 83h1M19 84h1M20 85h1M21 86h1M23 86h1M22 87h2M28 87h1M23 88h1M23 89h1M23 90h1M23 91h1M24 92h1M24 93h1M24 94h1M26 94h1M25 95h1" />
<path stroke="#010101" d="M63 0h1M75 0h1M52 1h1M63 1h1M75 1h1M53 2h1M53 3h1M83 3h1M53 4h1M61 4h1M73 4h1M83 4h1M61 5h1M63 5h4M72 5h3M59 6h4M68 6h4M75 6h2M81 6h1M43 7h2M55 7h3M77 7h4M88 7h1M45 8h1M52 8h3M80 8h2M53 9h2M82 9h2M86 9h1M50 10h3M71 10h6M84 10h2M89 10h1M48 11h2M51 11h1M63 11h8M78 11h1M86 11h2M46 12h3M51 12h3M60 12h2M80 12h1M88 12h1M90 12h1M47 13h1M58 13h1M66 13h1M81 13h2M89 13h2M94 13h1M46 14h2M57 14h1M61 14h1M65 14h1M83 14h1M89 14h1M94 14h1M44 15h1M46 15h1M56 15h1M62 15h1M65 15h1M78 15h2M84 15h1M94 15h1M45 16h2M55 16h1M62 16h1M78 16h1M84 16h1M90 16h2M94 16h1M43 17h1M45 17h1M54 17h1M80 17h1M84 17h1M89 17h1M93 17h1M44 18h1M46 18h1M53 18h1M67 18h7M81 18h1M88 18h1M93 18h1M44 19h1M46 19h1M65 19h1M74 19h2M81 19h1M88 19h1M92 19h1M52 20h1M61 20h4M77 20h1M91 20h1M42 21h1M45 21h1M47 21h1M75 21h1M77 21h1M87 21h1M89 21h2M43 22h1M45 22h1M48 22h4M73 22h1M76 22h1M86 22h1M88 22h1M90 22h1M35 23h1M43 23h1M51 23h1M58 23h1M73 23h3M81 23h1M85 23h1M90 23h1M35 24h1M44 24h1M50 24h1M54 24h1M58 24h1M67 24h4M74 24h1M81 24h1M85 24h1M87 24h1M90 24h1M35 25h1M44 25h1M49 25h3M54 25h1M65 25h1M71 25h2M75 25h1M80 25h4M86 25h1M90 25h1M35 26h1M51 26h1M53 26h1M55 26h1M60 26h1M63 26h1M68 26h3M73 26h1M76 26h1M79 26h1M84 26h1M90 26h1M35 27h1M45 27h1M50 27h1M53 27h1M56 27h1M60 27h1M62 27h6M76 27h3M85 27h1M90 27h1M13 28h1M24 28h1M35 28h1M49 28h3M53 28h1M55 28h1M60 28h1M62 28h1M76 28h1M84 28h3M90 28h1M14 29h1M25 29h1M35 29h1M51 29h1M53 29h1M57 29h1M61 29h1M63 29h1M70 29h2M75 29h1M77 29h1M82 29h1M86 29h2M90 29h1M15 30h1M25 30h1M51 30h1M54 30h3M62 30h5M74 30h1M76 30h1M80 30h1M86 30h1M88 30h2M16 31h1M26 31h1M36 31h1M50 31h1M52 31h1M72 31h2M75 31h1M80 31h1M85 31h1M4 32h1M17 32h1M26 32h1M36 32h1M50 32h1M53 32h1M66 32h6M77 32h1M80 32h1M84 32h1M5 33h1M24 33h1M27 33h2M36 33h1M49 33h1M54 33h1M63 33h3M74 33h2M80 33h1M83 33h1M6 34h1M24 34h1M36 34h1M49 34h1M55 34h1M62 34h1M73 34h1M79 34h2M82 34h1M7 35h1M24 35h1M31 35h1M41 35h1M48 35h1M53 35h2M61 35h3M67 35h3M73 35h1M78 35h1M80 35h2M8 36h1M15 36h1M24 36h1M31 36h1M39 36h1M41 36h1M48 36h1M52 36h1M55 36h1M60 36h1M64 36h3M73 36h1M76 36h2M15 37h1M23 37h1M31 37h1M39 37h1M42 37h2M47 37h1M51 37h1M56 37h1M61 37h1M66 37h1M71 37h3M75 37h1M15 38h1M23 38h1M39 38h1M44 38h1M47 38h1M50 38h1M56 38h1M61 38h1M63 38h3M69 38h2M73 38h2M15 39h1M23 39h1M30 39h1M38 39h1M46 39h4M53 39h1M57 39h1M61 39h2M65 39h4M15 40h1M23 40h1M30 40h1M38 40h1M53 40h1M58 40h1M61 40h1M15 41h1M19 41h4M24 41h4M30 41h1M38 41h1M42 41h1M53 41h1M58 41h1M61 41h1M15 42h4M28 42h2M37 42h1M52 42h1M59 42h1M15 43h1M28 43h1M30 43h2M37 43h1M52 43h1M59 43h1M62 43h3M13 44h2M28 44h1M32 44h6M44 44h1M52 44h1M60 44h1M64 44h1M12 45h1M29 45h1M44 45h1M63 45h2M10 46h2M18 46h1M29 46h1M40 46h1M45 46h1M51 46h1M60 46h1M65 46h2M8 47h2M19 47h1M38 47h1M43 47h1M45 47h1M51 47h1M61 47h1M66 47h1M6 48h2M19 48h1M32 48h1M38 48h1M41 48h1M43 48h1M45 48h1M49 48h2M61 48h1M66 48h1M20 49h1M32 49h1M39 49h1M42 49h1M45 49h4M62 49h1M67 49h1M20 50h1M32 50h1M35 50h2M39 50h1M63 50h1M65 50h3M33 51h1M37 51h3M63 51h1M67 51h3M8 52h1M24 52h1M33 52h1M64 52h1M69 52h1M9 53h1M24 53h1M33 53h1M36 53h2M65 53h1M69 53h1M10 54h1M25 54h1M32 54h2M38 54h2M48 54h1M65 54h1M69 54h1M11 55h1M25 55h1M29 55h3M39 55h1M48 55h1M66 55h1M70 55h1M16 56h1M26 56h3M30 56h1M48 56h1M66 56h1M70 56h1M16 57h1M26 57h1M31 57h1M38 57h1M67 57h1M69 57h2M17 58h1M22 58h4M31 58h1M33 58h5M49 58h1M56 58h3M67 58h1M70 58h3M17 59h1M20 59h2M32 59h1M35 59h1M42 59h2M49 59h1M53 59h3M68 59h1M72 59h1M18 60h2M33 60h1M36 60h1M44 60h2M49 60h1M51 60h2M68 60h1M72 60h1M18 61h1M34 61h1M36 61h1M46 61h2M49 61h2M72 61h1M2 62h1M16 62h2M36 62h2M48 62h2M72 62h1M3 63h1M8 63h1M15 63h1M38 63h1M47 63h1M72 63h1M4 64h1M9 64h1M13 64h2M24 64h1M38 64h1M45 64h2M72 64h1M10 65h1M12 65h1M25 65h1M39 65h1M43 65h2M72 65h1M11 66h1M26 66h1M39 66h4M72 66h1M11 67h1M27 67h1M30 67h4M39 67h1M72 67h1M9 68h2M28 68h1M34 68h1M37 68h2M72 68h1M8 69h1M34 69h1M36 69h1M72 69h1M7 70h1M35 70h1M72 70h1M6 71h1M35 71h1M72 71h1M5 72h1M35 72h1M72 72h1M4 73h1M20 73h1M34 73h1M3 74h1M21 74h1M33 74h1M2 75h1M22 75h2M26 75h3M32 75h1M24 76h1M29 76h1M31 76h1M30 77h1M31 78h1M31 79h1M30 80h1M30 81h1M19 82h3M24 82h3M29 82h1M22 83h1M27 83h3M29 84h1M29 85h1M29 86h1M28 88h1M28 89h1M28 90h1M27 91h1M27 92h1M27 93h1M27 94h1M26 95h1" />
<path stroke="#3622a7" d="M61 1h2M69 1h1M72 1h2M59 2h1M65 2h1M68 2h1M50 3h1M57 3h1M63 3h3M76 3h1M79 3h3M55 4h1M81 4h2M54 5h1M84 6h2M48 7h1M86 7h2M43 8h1M47 8h1M47 9h1M46 10h1M43 11h1M75 11h1M77 11h1M43 12h1M63 12h1M66 12h1M74 12h2M77 12h1M79 12h1M44 13h1M59 13h2M67 13h1M79 13h2M44 14h1M59 14h2M66 14h2M74 14h1M80 14h1M60 15h1M44 16h1M79 16h2M44 17h1M43 18h1M45 18h1M45 19h1M67 19h2M73 19h1M45 20h1M65 20h1M67 20h1M73 20h1M75 20h1M43 21h1M46 21h1M62 21h2M65 21h1M67 21h1M42 22h1M46 22h1M63 22h1M44 23h1M88 24h1M34 25h1M41 25h1M43 25h1M87 25h1M40 26h1M39 27h1M41 27h1M33 28h1M40 28h3M44 28h1M13 29h1M32 29h1M39 29h3M84 29h1M32 30h1M40 30h1M42 30h1M82 30h2M23 31h1M32 31h1M41 31h3M45 31h1M23 32h1M31 32h1M40 32h4M45 32h1M13 33h1M31 33h1M41 33h3M45 33h1M77 33h1M13 34h1M17 34h4M42 34h3M75 34h2M12 35h1M15 35h4M25 35h1M29 35h2M43 35h2M16 36h1M32 36h2M36 36h1M44 36h1M62 36h1M68 36h3M6 37h1M12 37h2M45 37h1M6 38h1M9 38h3M55 38h1M8 39h3M55 39h1M7 40h3M52 40h1M55 40h1M7 41h2M52 41h1M56 41h1M7 42h2M51 42h1M56 42h1M7 43h1M42 43h1M50 43h2M56 43h1M6 44h1M42 44h2M47 44h1M49 44h2M56 44h1M6 45h1M26 45h1M40 45h2M47 45h2M56 45h1M6 46h1M26 46h1M41 46h1M46 46h2M55 46h2M59 46h1M26 47h1M36 47h1M46 47h1M54 47h2M57 47h1M59 47h1M26 48h1M36 48h1M53 48h2M56 48h4M29 49h1M55 49h5M18 50h1M27 50h1M37 50h1M55 50h5M61 50h1M18 51h1M23 51h1M25 51h1M57 51h3M18 52h1M21 52h2M58 52h2M19 53h2M60 53h2M17 54h2M44 54h2M59 54h3M14 55h1M16 55h1M45 55h2M58 55h6M9 56h1M13 56h2M35 56h1M46 56h1M60 56h4M9 57h1M12 57h1M34 57h3M61 57h3M11 58h1M62 58h1M10 59h1M44 59h3M64 59h1M66 59h2M9 60h1M46 60h2M63 60h3M67 60h1M9 61h1M30 61h1M48 61h1M61 61h5M67 61h1M6 62h1M8 62h1M30 62h1M34 62h1M62 62h7M6 63h2M30 63h1M33 63h2M64 63h5M6 64h1M32 64h3M65 64h5M3 65h1M5 65h1M32 65h1M66 65h4M4 66h1M31 66h1M68 66h2M4 67h1M69 67h2M3 68h1M30 68h1M70 68h1M3 69h1M26 69h1M29 69h1M70 69h1M26 70h1M28 70h2M2 71h1M28 71h1M2 72h1M27 72h2M2 73h1M27 73h1M2 74h1M26 74h2M26 76h2M22 77h1M26 77h1M22 78h1M25 78h2M23 79h1M25 79h1M25 80h1M24 81h1M24 83h2M24 84h2M21 85h1M24 85h2M22 86h1M24 86h1M24 87h1M24 88h1M24 89h1M24 90h1M24 91h1" />
<path stroke="#6461ba" d="M70 1h2M58 2h1M66 2h2M56 3h1M77 3h2M49 4h1M48 6h1M43 9h1M43 10h1M43 19h1M43 20h1M44 22h1M34 23h1M42 23h1M34 24h1M42 24h1M33 26h1M43 26h1M33 27h1M43 27h1M24 29h1M44 29h1M13 30h1M24 30h1M44 30h1M13 31h1M13 32h1M4 33h1M4 34h1M21 34h1M5 35h1M19 35h1M26 35h3M5 36h1M17 36h1M34 36h2M12 38h1M11 39h1M56 39h1M10 40h1M56 40h1M9 41h1M41 41h1M51 41h1M26 42h1M41 42h1M49 42h2M58 42h1M8 43h1M26 43h1M41 43h1M47 43h3M58 43h1M7 44h1M26 44h1M40 44h2M48 44h1M59 44h1M59 45h1M18 47h1M35 47h1M18 48h1M35 48h1M18 49h1M28 49h1M61 49h1M26 50h1M56 51h1M62 51h1M57 52h1M62 52h2M8 53h1M21 53h1M58 53h1M63 53h1M8 54h1M19 54h1M43 54h1M63 54h1M8 55h1M17 55h1M35 55h1M43 55h2M65 55h1M34 56h1M43 56h3M59 56h1M65 56h1M13 57h1M28 57h1M33 57h1M43 57h3M60 57h1M66 57h1M12 58h1M28 58h1M61 58h1M66 58h1M11 59h1M29 59h1M10 60h1M29 60h1M2 63h1M35 63h1M63 63h1M2 64h1M64 64h1M24 65h1M33 65h1M65 65h1M5 66h1M24 66h1M32 66h1M67 66h1M25 67h1M68 67h1M4 68h1M25 68h1M69 68h1M30 69h1M3 70h1M29 71h1M28 73h1M20 74h1M21 75h1M21 76h1M27 77h1M26 79h1M25 81h1M19 83h1M20 84h1" />
<path stroke="#31245f" d="M74 1h1M60 2h2M69 2h6M58 3h4M66 3h8M50 4h1M56 4h5M62 4h11M74 4h7M49 5h1M55 5h6M68 5h4M76 5h6M83 5h1M49 6h1M53 6h5M78 6h3M82 6h2M49 7h1M52 7h2M65 7h4M81 7h5M48 8h2M66 8h4M83 8h4M48 9h2M66 9h4M85 9h1M87 9h1M47 10h3M82 10h2M86 10h3M46 11h2M50 11h1M80 11h1M83 11h3M88 11h1M44 12h1M49 12h2M54 12h1M81 12h2M89 12h1M49 13h1M51 13h5M83 13h1M45 14h1M52 14h3M56 14h1M63 14h2M76 14h3M93 14h1M45 15h1M52 15h2M55 15h1M63 15h2M75 15h3M89 15h1M92 15h2M54 16h1M63 16h3M75 16h3M85 16h2M88 16h2M92 16h2M62 17h3M85 17h2M88 17h1M92 17h1M65 18h1M84 18h3M92 18h1M62 19h3M76 19h1M81 20h1M44 21h1M71 21h2M78 21h1M81 21h2M71 22h2M77 22h3M81 22h3M89 22h1M46 23h5M70 23h2M76 23h3M82 23h3M89 23h1M43 24h1M45 24h1M49 24h1M82 24h3M45 25h4M59 25h2M84 25h2M88 25h1M34 26h1M45 26h6M58 26h1M85 26h1M87 26h1M34 27h1M44 27h1M48 27h2M57 27h1M74 27h1M86 27h1M34 28h1M46 28h2M56 28h1M73 28h3M33 29h2M45 29h6M60 29h1M72 29h3M85 29h1M14 30h1M33 30h2M45 30h6M57 30h1M73 30h1M84 30h1M14 31h2M24 31h2M33 31h3M46 31h4M53 31h1M67 31h3M81 31h2M14 32h3M24 32h2M32 32h4M46 32h3M64 32h2M79 32h1M14 33h4M25 33h2M32 33h4M46 33h2M60 33h2M78 33h1M5 34h1M14 34h3M22 34h2M32 34h4M46 34h2M60 34h2M74 34h1M77 34h1M6 35h1M13 35h2M22 35h2M46 35h1M6 36h2M20 36h4M25 36h6M37 36h2M42 36h1M45 36h2M61 36h1M63 36h1M67 36h1M71 36h2M7 37h2M14 37h1M18 37h5M24 37h7M32 37h7M55 37h1M59 37h1M7 38h2M13 38h2M16 38h7M24 38h6M31 38h8M59 38h1M7 39h1M13 39h2M16 39h7M26 39h4M31 39h7M12 40h3M16 40h7M28 40h2M31 40h7M11 41h4M16 41h3M33 41h5M50 41h1M55 41h1M11 42h4M27 42h1M35 42h2M48 42h1M55 42h1M57 42h1M10 43h5M27 43h1M40 43h1M57 43h1M60 43h2M9 44h4M27 44h1M57 44h2M63 44h1M9 45h3M27 45h2M42 45h2M49 45h2M57 45h2M60 45h3M8 46h2M27 46h2M42 46h1M48 46h3M58 46h1M61 46h4M7 47h1M27 47h3M42 47h1M47 47h4M58 47h1M62 47h4M27 48h1M30 48h2M37 48h1M42 48h1M46 48h3M62 48h4M19 49h1M30 49h2M36 49h3M60 49h1M63 49h4M19 50h1M28 50h4M38 50h1M60 50h1M19 51h2M26 51h6M60 51h2M64 51h3M23 52h1M25 52h7M65 52h4M23 53h1M25 53h7M62 53h1M66 53h3M9 54h1M21 54h4M26 54h4M36 54h2M62 54h1M66 54h3M9 55h2M19 55h6M36 55h1M47 55h1M64 55h1M67 55h3M10 56h1M15 56h1M18 56h7M29 56h1M47 56h1M64 56h1M67 56h3M10 57h2M14 57h2M17 57h6M29 57h2M46 57h3M64 57h2M10 58h1M14 58h2M18 58h3M29 58h2M43 58h6M68 58h2M13 59h4M30 59h2M47 59h2M63 59h1M69 59h3M12 60h5M30 60h3M48 60h1M62 60h1M66 60h1M69 60h3M11 61h6M31 61h3M66 61h1M69 61h3M10 62h5M31 62h3M69 62h3M9 63h4M31 63h1M36 63h1M69 63h3M3 64h1M5 64h1M8 64h1M10 64h2M36 64h2M70 64h2M4 65h1M8 65h2M31 65h1M35 65h4M70 65h2M7 66h3M25 66h1M34 66h5M70 66h2M7 67h3M26 67h1M34 67h4M71 67h1M6 68h3M26 68h2M31 68h2M71 68h1M6 69h2M27 69h2M32 69h2M71 69h1M5 70h2M31 70h4M71 70h1M5 71h1M27 71h1M31 71h4M4 72h1M30 72h5M30 73h4M29 74h4M22 76h2M28 76h1M23 77h3M28 77h2M23 78h2M28 78h3M28 79h3M27 80h3M27 81h3M20 83h2M26 83h1M21 84h3M26 84h3M22 85h2M27 85h2M27 86h2M27 87h1M27 88h1M27 89h1M26 90h2M26 91h1M26 92h1M26 93h1" />
<path stroke="#ab2a4c" d="M51 2h1M51 3h1M50 5h1M50 6h1M65 6h3M72 6h3M50 7h2M62 7h3M75 7h2M50 8h2M59 8h3M78 8h2M50 9h1M57 9h2M81 9h1M55 10h2M66 10h5M77 10h1M54 11h1M62 11h1M45 12h1M59 12h1M57 13h1M88 13h1M84 14h1M50 15h1M66 15h8M50 16h1M60 16h2M50 17h1M53 17h1M58 17h2M79 17h1M49 18h1M57 18h1M66 18h1M74 18h1M49 19h1M52 19h1M56 19h1M82 19h1M49 20h1M55 20h1M60 20h1M87 20h1M49 21h1M51 21h1M55 21h1M59 21h1M54 22h1M58 22h1M65 22h5M54 23h1M62 23h3M66 24h1M55 25h3M64 25h1M56 26h1M71 26h2M68 27h5M63 28h9M64 29h6M55 31h2M60 31h1M54 32h1M56 32h2M59 32h1M55 33h2M58 33h1M40 34h1M57 34h1M55 35h2M58 35h1M56 36h2M59 36h1M57 37h2M58 38h1M58 39h1M59 40h2M48 41h1M59 41h2M43 42h1M39 43h1M32 45h1M52 45h1M32 46h1M57 54h1M33 55h1M56 55h1M39 56h1M54 56h2M57 56h1M49 57h1M51 57h4M57 57h2M50 58h1M52 58h1M54 58h2M50 59h3M50 60h1M37 61h1M38 62h1M44 62h2M47 62h1M39 63h4M44 63h3M39 64h1M41 64h1M43 64h2M40 65h2" />
<path stroke="#ffb6b6" d="M52 2h1M52 3h1M52 4h1M51 5h1M72 8h1M76 8h1M45 9h1M51 9h1M64 9h1M58 11h1M70 12h1M46 13h1M69 13h2M72 14h2M86 14h1M70 16h1M72 16h1M50 19h1M58 19h1M71 19h1M51 20h1M68 20h2M84 21h1M79 25h1M44 46h1M39 47h2M44 47h1M39 48h2M49 49h2M48 50h3M49 51h2M37 52h2M49 52h2M38 53h1M48 53h3M49 54h1M40 55h1M49 55h1M40 56h2M40 57h2" />
<path stroke="#ff5657" d="M51 4h1M52 5h1M51 6h1M70 7h1M72 7h2M44 8h1M62 8h1M64 8h1M71 8h1M73 8h3M44 9h1M52 9h1M59 9h5M65 9h1M77 9h3M44 10h1M58 10h5M80 10h2M44 11h1M55 11h3M59 11h1M81 11h2M55 12h2M83 12h2M45 13h1M85 13h1M85 15h2M51 16h1M66 16h4M71 16h1M73 16h2M51 17h1M60 17h2M65 17h5M71 17h1M73 17h2M78 17h1M51 18h1M58 18h7M75 18h5M59 19h3M77 19h3M83 19h3M56 20h3M80 20h1M82 20h1M84 20h1M56 21h3M79 21h2M83 21h1M55 22h3M55 23h3M65 23h2M68 23h2M56 24h2M62 24h2M65 24h1M72 24h2M62 25h2M61 26h2M74 26h1M60 30h1M70 30h1M61 31h1M63 31h1M66 31h1M49 32h1M62 32h1M48 34h1M40 35h1M47 36h1M41 37h1M54 37h1M40 38h4M46 38h1M51 38h2M12 39h1M40 39h2M43 39h3M51 39h1M11 40h1M40 40h1M42 40h3M46 40h3M39 41h1M43 41h2M54 41h1M10 42h1M39 42h1M44 42h3M9 43h1M38 43h1M53 43h1M8 44h1M45 44h1M54 44h1M8 45h1M34 45h2M37 45h2M7 46h1M33 46h1M37 46h2M52 46h1M33 48h1M51 48h1M34 49h1M51 49h1M34 50h1M52 50h1M34 51h2M52 51h1M34 52h2M52 52h1M55 52h1M34 53h2M51 53h1M53 53h1M51 54h1M56 54h1M50 55h1M53 55h2M50 56h1M53 56h1M38 58h3M37 59h1M40 59h2M37 60h2M42 60h1M40 62h1M43 62h1M7 65h1M6 66h1M66 66h1M6 67h1M67 67h1M5 68h1M68 68h1M5 69h1M69 69h1M4 70h1M70 70h1M4 71h1M71 71h1M3 72h1M3 73h1M26 86h1M26 87h1M25 88h1M25 89h1M25 90h1M25 91h1M25 92h1M25 93h1M25 94h1" />
<path stroke="#ffdfdf" d="M71 7h1M63 8h1M72 9h1M76 9h1M57 10h1M64 10h1M58 12h1M87 13h1M69 14h3M85 14h1M70 17h1M72 17h1M80 18h1M57 19h1M69 19h2M80 19h1M50 20h1M59 20h1M78 20h2M83 20h1M50 21h1M85 21h2M67 23h1M64 24h1M80 24h1M73 25h2M77 25h2M71 30h1M71 31h1M44 48h1M40 49h2M43 49h2M40 50h8M40 51h9M39 52h10M39 53h3M46 53h2M40 54h2M41 55h1" />
<path stroke="#e23434" d="M74 7h1M77 8h1M71 9h1M73 9h3M80 9h1M63 10h1M65 10h1M78 10h2M60 11h2M57 12h1M86 12h2M56 13h1M86 13h1M55 14h1M87 14h2M54 15h1M87 15h2M53 16h1M87 16h1M52 17h1M87 17h1M52 18h1M87 18h1M86 19h2M85 20h2M80 22h1M84 22h2M79 23h2M55 24h1M75 24h5M76 25h1M75 26h1M77 26h2M61 27h1M75 27h1M61 28h1M62 29h1M59 30h1M61 30h1M72 30h1M57 31h3M62 31h1M64 31h2M70 31h1M55 32h1M58 32h1M60 32h1M63 32h1M48 33h1M57 33h1M59 33h1M56 34h1M58 34h1M47 35h1M57 35h1M59 35h1M53 36h2M58 36h1M46 37h1M52 37h2M53 38h2M57 38h1M39 39h1M50 39h1M54 39h1M49 40h1M54 40h1M10 41h1M47 41h1M9 42h1M38 42h1M53 42h2M44 43h1M54 43h1M53 44h1M7 45h1M53 45h2M53 46h1M52 47h1M33 49h1M52 49h1M33 50h1M53 50h1M53 51h2M53 52h2M52 53h1M54 53h3M34 54h1M52 54h4M51 55h2M55 55h1M51 56h2M56 56h1M50 57h1M55 57h2M51 58h1M53 58h1M36 59h1M38 59h2M39 60h3M43 60h1M38 61h8M39 62h1M41 62h2M46 62h1M43 63h1M7 64h1M40 64h1M42 64h1M6 65h1M42 65h1M5 67h1M4 69h1M3 71h1M26 85h1M25 86h1M25 87h1M26 88h1M26 89h1" />
<path stroke="#ff8c8c" d="M71 11h1M69 12h1M68 13h1M71 13h3M68 14h1M50 18h1M51 19h1M72 19h1M68 21h2M40 36h1M40 37h1M42 39h1M39 40h1M45 40h1M45 41h2M45 43h1M38 44h1M33 45h1M36 45h1M45 45h1M39 46h1M33 47h1M51 50h1M36 51h1M51 51h1M36 52h1M51 52h1M50 54h1M49 56h1M39 57h1M41 58h1" />
</svg>