<svg xmlns="http://www.w3.org/2000/svg" viewBox="0 -0.5 96 96" shape-rendering="crispEdges">
<metadata>Made with Pixels to Svg https://codepen.io/shshaw/pen/XbxvNj</metadata>
<path stroke="#eed56a" d="M65 14h4M53 15h3M64 15h1M69 15h1M52 16h1M56 16h1M63 16h1M70 16h1M49 17h3M57 17h1M62 17h1M70 17h1M73 17h1M48 18h1M58 18h1M62 18h1M74 18h1M48 19h1M58 19h1M62 19h1M74 19h1M48 20h2M53 20h1M57 20h1M61 20h3M66 20h2M73 20h2M16 21h2M22 21h3M49 21h8M60 21h1M64 21h4M71 21h3M14 22h5M21 22h1M25 22h2M50 22h2M54 22h2M59 22h1M65 22h4M72 22h1M13 23h1M17 23h2M20 23h1M26 23h2M59 23h1M65 23h5M73 23h2M12 24h1M18 24h3M27 24h1M59 24h1M65 24h4M74 24h2M12 25h1M19 25h1M27 25h2M60 25h1M64 25h5M74 25h2M12 26h1M19 26h1M27 26h2M61 26h9M73 26h3M12 27h1M26 27h4M62 27h13M12 28h1M25 28h9M62 28h12M13 29h1M17 29h1M22 29h10M63 29h2M66 29h5M14 30h5M21 30h8M67 30h2M16 31h2M23 31h6M68 31h1M24 32h4M24 33h2M18 34h1M23 34h3M19 35h7M21 36h4M15 44h2M14 45h1M17 45h1M13 46h1M18 46h1M20 46h2M81 46h3M12 47h1M19 47h1M22 47h1M78 47h1M80 47h1M85 47h3M12 48h1M19 48h1M22 48h3M78 48h3M84 48h1M88 48h1M12 49h1M18 49h5M79 49h1M89 49h1M12 50h1M19 50h3M78 50h1M89 50h1M13 51h1M16 51h1M19 51h2M78 51h1M85 51h1M88 51h1M15 52h6M78 52h2M84 52h5M16 53h4M79 53h9M80 54h6M81 55h4M75 58h4M74 59h1M79 59h2M73 60h1M80 60h2M80 61h3M68 62h1M71 62h1M80 62h3M67 63h1M73 63h1M79 63h4M75 64h8M77 65h5M66 66h1M78 66h3M65 67h3M73 67h1M78 67h1M63 68h6M72 68h3M67 69h9M79 69h1M68 70h9M78 70h2M69 71h7M77 71h1M79 71h1M69 72h8M78 72h1M70 73h8M72 74h4" />
<path stroke="#c5b429" d="M69 14h1M70 15h1M71 16h3M74 17h1M75 18h1M75 19h1M75 20h1M18 21h1M25 21h2M48 21h1M57 21h1M74 21h1M19 22h2M27 22h1M49 22h1M52 22h2M56 22h1M73 22h2M19 23h1M28 23h1M50 23h2M54 23h2M75 23h1M28 24h1M76 24h1M29 25h1M59 25h1M76 25h1M29 26h1M60 26h1M76 26h1M30 27h2M61 27h1M75 27h1M61 28h1M74 28h1M12 29h1M32 29h2M62 29h1M65 29h1M71 29h3M13 30h1M29 30h3M63 30h2M66 30h1M69 30h2M14 31h2M29 31h1M69 31h1M16 32h2M28 32h1M17 33h1M26 33h2M17 34h1M26 34h1M18 35h1M26 35h1M19 36h2M25 36h1M21 37h4M18 45h1M20 45h2M19 46h1M22 46h1M80 46h1M85 46h2M23 47h1M79 47h1M84 47h1M77 48h1M23 49h2M78 49h1M22 50h1M77 50h1M21 51h1M77 51h1M89 51h1M14 52h1M21 52h1M77 52h1M89 52h1M15 53h1M20 53h1M78 53h1M88 53h1M16 54h4M79 54h1M86 54h2M80 55h1M85 55h1M81 56h4M79 58h2M81 59h1M82 60h1M68 61h4M83 61h1M67 62h1M72 62h1M83 62h1M66 63h1M83 63h1M66 64h1M83 64h1M66 65h1M82 65h1M65 66h1M81 66h1M63 67h2M79 67h2M79 68h1M64 69h3M80 69h1M67 70h1M80 70h1M68 71h1M80 71h1M68 72h1M79 72h1M69 73h1M78 73h1M70 74h2M76 74h2M72 75h4" />
<path stroke="#f6ee94" d="M65 15h4M53 16h3M64 16h6M52 17h5M63 17h7M71 17h2M49 18h9M63 18h11M49 19h9M63 19h11M50 20h3M54 20h3M64 20h2M68 20h5M61 21h3M68 21h3M22 22h3M60 22h5M69 22h3M14 23h3M21 23h5M60 23h5M70 23h3M13 24h5M21 24h6M60 24h5M69 24h5M13 25h6M20 25h7M61 25h3M69 25h5M13 26h6M20 26h7M70 26h3M13 27h13M13 28h12M14 29h3M18 29h4M19 30h2M18 31h5M18 32h6M18 33h6M19 34h4M15 45h2M14 46h4M13 47h6M20 47h2M81 47h3M13 48h6M20 48h2M81 48h3M85 48h3M13 49h5M80 49h9M13 50h6M79 50h10M14 51h2M17 51h2M79 51h6M86 51h2M80 52h4M75 59h4M74 60h6M73 61h7M69 62h2M73 62h7M68 63h5M74 63h5M67 64h8M67 65h10M67 66h11M68 67h5M74 67h4M69 68h3M75 68h4M76 69h3M77 70h1M76 71h1M78 71h1M77 72h1" />
<path stroke="#62317b" d="M43 22h2M42 23h1M42 24h1M40 25h2M46 25h1M39 26h1M47 26h1M35 27h1M38 27h1M51 27h1M35 28h1M36 29h2M50 30h1M57 32h3M67 32h3M46 33h1M56 33h1M61 33h2M66 33h1M70 33h1M37 34h1M46 34h1M52 34h1M56 34h1M36 35h1M38 35h1M43 35h3M53 35h1M36 36h1M39 36h1M37 37h2M41 37h1M45 37h1M53 37h1M50 38h1M49 39h1M52 39h1M38 40h6M49 40h1M55 40h2M36 41h2M46 41h4M75 41h1M49 42h1M73 42h2M76 42h1M70 43h1M74 43h1M50 44h1M30 45h1M50 45h1M53 45h1M64 45h2M27 46h4M50 46h1M62 46h1M65 46h1M50 47h1M59 47h2M58 48h1M69 48h6M59 49h1M67 49h1M51 50h1M60 50h1M65 50h2M74 50h1M26 51h1M64 51h1M63 52h1M73 52h1M61 53h2M51 56h1M59 56h1M51 57h1M57 57h1M46 58h4M41 59h2M48 59h1M23 60h1M40 60h1M48 60h1M56 60h1M61 60h1M23 61h1M30 61h1M32 61h1M57 61h1M61 61h1M24 62h1M26 62h2M60 62h1M27 63h1M28 64h1M43 64h3M51 64h1M53 64h1M32 65h2M40 65h3M49 65h1M51 65h1M54 65h2M34 66h5M30 67h1M61 67h1M27 68h1M33 68h1M41 68h5M49 68h1M60 68h1M28 69h1M36 69h4M46 69h1M35 70h1M30 72h1M30 73h1M34 73h2M31 74h1M38 74h1M48 74h2M45 75h1" />
<path stroke="#101010" d="M45 22h1M46 23h1M46 24h1M47 25h1M48 26h1M49 27h2M37 28h1M52 28h1M52 29h1M36 30h1M51 30h1M36 31h1M50 31h1M36 32h1M50 32h1M60 32h1M37 33h1M51 33h1M63 33h3M53 34h1M71 34h1M39 35h1M54 35h1M70 35h2M48 36h1M71 36h1M40 37h1M46 37h2M49 37h1M72 37h1M41 38h1M45 38h1M51 38h2M73 38h1M41 39h1M44 39h1M73 39h1M44 40h2M74 40h1M74 41h1M75 42h1M71 43h1M75 43h1M77 43h1M71 44h1M75 44h1M77 44h1M49 45h1M75 45h2M43 46h1M63 46h1M75 46h1M42 47h1M63 47h1M75 47h1M42 48h1M50 48h1M75 48h1M50 49h1M75 49h1M51 51h1M74 51h1M26 52h1M52 52h1M26 53h1M52 53h1M54 53h1M73 53h1M53 54h2M72 54h1M53 55h1M71 55h1M53 56h1M69 56h2M54 57h1M58 57h1M67 57h2M55 58h3M59 58h8M43 59h1M61 59h1M43 60h1M31 61h1M31 62h1M57 62h1M24 63h1M46 63h2M57 63h1M60 63h1M25 64h2M46 64h1M48 64h2M56 64h1M59 64h2M26 65h1M30 65h2M50 65h1M61 65h1M27 66h1M30 66h1M32 66h1M51 66h1M61 66h1M27 67h1M32 67h1M51 67h1M30 68h1M50 68h1M57 68h1M30 69h1M33 69h1M47 69h2M56 69h1M60 69h1M29 70h1M31 70h4M56 70h4M30 71h1M55 71h1M53 72h2M50 73h3M35 74h3M50 74h1M32 75h3M39 75h6M50 75h1M42 76h2M48 76h2M44 77h4" />
<path stroke="#bd8bcd" d="M43 23h2M43 24h2M44 25h1M40 26h5M39 27h5M39 28h5M38 29h6M37 30h6M37 31h2M43 32h3M38 33h2M43 33h2M57 33h2M38 34h2M62 34h5M64 35h5M66 36h5M67 37h5M68 38h5M68 39h5M69 40h5M38 41h8M68 41h5M35 42h14M64 42h1M69 42h3M33 43h17M56 43h1M32 44h1M39 44h5M48 44h2M54 44h3M31 45h1M40 45h3M44 45h4M54 45h2M68 45h2M41 46h2M44 46h5M68 46h3M41 47h1M43 47h6M51 47h1M67 47h5M26 48h2M41 48h1M43 48h5M51 48h1M66 48h2M26 49h3M41 49h7M51 49h2M64 49h3M28 50h1M40 50h8M52 50h2M63 50h2M28 51h1M40 51h9M52 51h4M61 51h3M27 52h2M39 52h11M53 52h10M69 52h3M27 53h2M38 53h10M53 53h1M55 53h6M68 53h1M71 53h1M26 54h4M37 54h13M55 54h5M68 54h1M70 54h1M26 55h6M35 55h16M54 55h3M28 56h10M41 56h10M54 56h3M28 57h9M45 57h2M55 57h1M26 58h6M33 58h4M38 58h1M24 59h7M34 59h4M50 59h1M24 60h4M34 60h5M49 60h3M24 61h2M34 61h7M48 61h4M25 62h1M34 62h9M47 62h4M33 63h13M48 63h2M32 64h11M27 65h3M34 65h5M28 66h2M28 67h2M29 68h1M29 69h1M41 69h5M36 70h7M33 71h6M39 72h1M45 72h1M31 73h2M38 73h1M46 73h1M32 74h2M41 74h1M43 74h1" />
<path stroke="#a46ab4" d="M45 23h1M45 24h1M43 25h1M45 26h1M44 27h2M38 28h1M44 28h3M50 28h2M44 29h4M43 30h5M39 31h5M37 32h6M40 33h3M45 33h1M59 33h2M67 33h3M42 34h3M57 34h2M67 34h4M56 35h1M42 37h2M42 38h2M42 39h2M50 39h2M50 40h1M50 41h1M68 42h1M65 43h1M76 43h1M64 44h1M69 44h1M76 44h1M70 45h1M74 45h1M49 46h1M71 46h4M27 47h2M49 47h1M65 47h1M72 47h3M28 48h1M48 48h2M64 48h1M48 49h2M58 49h1M63 49h1M68 49h4M74 49h1M26 50h1M48 50h3M62 50h1M67 50h6M49 51h2M65 51h4M72 51h2M50 52h2M64 52h4M48 53h1M51 53h1M64 53h3M69 53h2M51 54h2M60 54h1M64 54h3M69 54h1M52 55h1M57 55h5M63 55h5M26 56h2M38 56h1M52 56h1M57 56h2M60 56h9M26 57h2M37 57h1M47 57h4M52 57h2M56 57h1M59 57h8M25 58h1M43 58h2M50 58h5M38 59h3M49 59h1M51 59h6M39 60h1M52 60h2M33 61h1M41 61h1M52 61h2M33 62h1M43 62h4M51 62h5M25 63h1M32 63h1M50 63h1M52 63h5M27 64h1M30 64h2M52 64h1M54 64h2M39 65h1M52 65h2M52 66h3M52 67h3M28 68h1M51 68h4M40 69h1M49 69h5M30 70h1M43 70h11M31 71h2M39 71h14M31 72h8M46 72h5M33 73h1M36 73h2M41 73h3M47 73h3M34 74h1M42 74h1M46 74h1" />
<path stroke="#8b52ac" d="M42 25h1M45 25h1M36 26h3M46 26h1M36 27h2M46 27h3M36 28h1M47 28h3M48 29h4M48 30h2M44 31h6M46 32h4M47 33h4M40 34h2M45 34h1M47 34h5M37 35h1M40 35h3M46 35h7M55 35h1M69 35h1M37 36h2M40 36h8M49 36h6M44 37h1M50 37h3M44 38h1M51 40h1M54 40h1M35 41h1M51 41h1M53 41h1M73 41h1M33 42h2M50 42h1M52 42h1M72 42h1M32 43h1M50 43h1M52 43h1M69 43h1M31 44h1M44 44h4M53 44h1M65 44h1M74 44h1M43 45h1M48 45h1M73 45h1M61 46h1M26 47h1M29 47h1M57 47h1M25 48h1M29 48h1M57 48h1M68 48h1M25 49h1M72 49h1M25 50h1M27 50h1M61 50h1M73 50h1M27 51h1M49 53h2M25 54h1M50 54h1M61 54h1M25 55h1M51 55h1M62 55h1M25 56h1M24 57h2M23 58h2M32 58h1M37 58h1M45 58h1M58 58h1M23 59h1M33 59h1M44 59h1M57 59h4M33 60h1M54 60h2M57 60h4M47 61h1M54 61h3M58 61h3M28 62h2M56 62h1M58 62h2M26 63h1M51 63h1M58 63h2M29 64h1M50 64h1M57 64h2M56 65h5M55 66h6M55 67h6M55 68h2M58 68h2M54 69h2M57 69h3M54 70h2M53 71h2M51 72h2M47 74h1M46 75h4M44 76h4" />
<path stroke="#d5a4de" d="M59 34h3M57 35h7M55 36h11M54 37h13M53 38h15M53 39h15M52 40h2M57 40h12M52 41h1M54 41h14M51 42h1M53 42h11M65 42h3M51 43h1M53 43h3M57 43h8M66 43h3M33 44h6M51 44h2M57 44h7M66 44h3M32 45h8M51 45h2M56 45h8M66 45h2M31 46h10M51 46h10M66 46h2M30 47h11M52 47h5M58 47h1M66 47h1M30 48h11M52 48h5M65 48h1M29 49h12M53 49h5M29 50h11M54 50h6M29 51h11M56 51h5M29 52h10M29 53h9M30 54h7M32 55h3M39 56h2M38 57h7M39 58h4M31 59h2M28 60h5M26 61h4" />
<path stroke="#dedede" d="M72 43h2M64 46h1M61 47h2M64 47h1M59 48h2M45 59h3M46 60h2M46 61h1M30 62h1M32 62h1M43 65h3M31 66h1M33 66h1M49 66h1M33 67h3M47 67h3M47 68h2M32 69h1" />
<path stroke="#ffffff" d="M70 44h1M72 44h2M71 45h2M61 48h3M60 49h3M73 49h1M63 53h1M62 54h2M41 60h2M44 60h2M42 61h4M28 63h4M47 64h1M47 65h2M43 66h3M47 66h2M31 67h1M31 68h2M31 69h1" />
<path stroke="#d5cd6a" d="M69 51h3M68 52h1M72 52h1M67 53h1M72 53h1M67 54h1M71 54h1M68 55h3M40 72h5M39 73h1M45 73h1M39 74h2M44 74h2" />
<path stroke="#a42000" d="M46 65h1M39 66h4M46 66h1M50 66h1M36 67h6M46 67h1M50 67h1M34 68h7M46 68h1M34 69h2" />
<path stroke="#de6220" d="M42 67h4" />
<path stroke="#ac9c10" d="M40 73h1M44 73h1" />
</svg>