<svg xmlns="http://www.w3.org/2000/svg" viewBox="0 -0.5 96 96" shape-rendering="crispEdges">
<metadata>Made with Pixels to Svg https://codepen.io/shshaw/pen/XbxvNj</metadata>
<path stroke="#7b5231" d="M49 18h1M37 19h1M39 19h1M49 19h1M37 20h1M40 20h1M38 21h1M42 21h2M48 21h1M51 21h1M37 22h1M47 22h1M52 22h1M45 23h1M52 23h1M38 24h1M42 24h1M44 24h1M51 24h1M37 25h1M44 25h1M36 26h1M44 26h1M52 26h1M44 27h1M52 27h1M43 28h1M49 30h1M51 39h2M49 40h2M48 41h1M48 42h1M34 43h1M47 43h1M33 44h1M47 44h1M33 45h1M34 48h1M55 49h1M35 54h1M54 54h3M34 55h1M52 55h2M58 55h2M33 56h1M36 56h1M51 56h1M69 56h1M33 57h1M62 57h1M67 57h2M32 58h1M37 58h1M50 58h1M61 58h1M64 58h3M32 59h1M62 59h1M32 60h1M38 60h1M70 60h1M39 61h1M49 61h1M33 62h1M40 62h2M49 62h1M43 63h1M50 63h1M40 64h1M66 64h1M46 65h1M52 65h1M59 65h1M64 65h1M49 66h1M54 66h4M60 66h2M53 67h1" />
<path stroke="#000000" d="M50 18h1M38 19h1M51 19h1M51 20h1M40 21h1M41 22h1M43 22h1M37 23h1M43 23h1M61 24h1M42 25h1M51 25h1M61 25h1M64 25h1M25 26h2M43 26h1M58 26h1M61 26h1M64 26h1M67 26h1M22 27h1M26 27h1M28 27h2M58 27h1M67 27h1M27 28h1M29 28h1M51 28h1M59 28h1M23 29h1M29 29h1M50 29h1M60 29h1M69 29h1M20 30h1M22 30h1M28 30h1M50 30h1M60 30h1M68 30h2M21 31h1M28 31h1M49 31h1M68 31h1M19 32h1M27 32h1M33 32h1M50 32h1M68 32h1M20 33h1M27 33h1M34 33h1M38 33h1M53 33h1M57 33h1M60 33h1M62 33h1M67 33h1M20 34h1M26 34h1M35 34h1M39 34h1M52 34h1M57 34h1M63 34h2M67 34h1M20 35h1M28 35h2M36 35h1M40 35h1M43 35h1M66 35h1M21 36h1M30 36h1M51 36h1M56 36h1M58 36h1M22 37h2M30 37h1M51 37h1M58 37h2M65 37h1M23 38h1M29 38h3M36 38h1M50 38h1M60 38h2M65 38h1M23 39h1M28 39h1M32 39h1M39 39h3M49 39h1M53 39h2M62 39h3M24 40h1M26 40h2M32 40h2M37 40h1M47 40h2M52 40h2M62 40h1M25 41h1M31 41h1M34 41h2M44 41h4M52 41h1M55 41h1M62 41h1M25 42h1M30 42h1M34 42h1M42 42h1M44 42h4M56 42h1M25 43h1M29 43h1M39 43h3M43 43h3M52 43h1M57 43h2M61 43h2M26 44h2M52 44h1M59 44h2M63 44h1M47 45h1M53 45h1M55 45h1M60 45h1M62 45h1M28 46h1M32 46h2M47 46h1M54 46h2M59 46h1M61 46h1M30 47h2M33 47h1M48 47h1M56 47h3M60 47h1M33 48h1M57 48h1M34 49h1M50 49h1M56 49h1M59 49h1M35 50h1M51 50h4M56 50h1M58 50h1M62 51h1M57 52h1M61 52h1M57 53h1M60 53h1M36 54h1M73 54h1M36 55h1M73 55h1M60 56h1M73 56h1M61 57h1M72 57h1M72 58h1M71 59h1M62 60h1M62 61h1M70 61h1M62 62h1M69 62h1M34 63h1M42 63h1M61 63h1M68 63h1M35 64h2M41 64h1M44 64h7M61 64h1M67 64h1M35 65h1M38 65h3M45 65h1M51 65h1M60 65h1M65 65h1M37 66h3M47 66h2M53 66h1M58 66h2M62 66h2M35 67h5M50 67h3M54 67h3M58 67h3M36 68h2M56 68h1M59 68h1M42 69h1M42 70h1M52 70h1M42 71h1M52 71h1M31 72h1M41 72h1M52 72h1M63 72h1M27 73h3M39 73h1M53 73h1M64 73h1M35 74h4M53 74h1M64 74h1M31 75h4M54 75h1M55 76h2M60 76h3M56 77h1M63 77h2M57 78h3" />
<path stroke="#ffee4a" d="M50 19h1M38 20h2M50 20h1M39 21h1M49 21h2M38 22h3M42 22h1M48 22h4M38 23h5M48 23h4M39 24h3M46 24h5M38 25h4M45 25h6M37 26h4M45 26h7M38 27h1M40 27h2M46 27h5M46 28h2M74 35h1M74 36h2M70 37h1M75 37h2M70 38h3M74 38h3M71 39h7M71 40h8M50 41h2M71 41h7M36 42h2M49 42h4M71 42h6M35 43h1M38 43h1M49 43h1M72 43h2M75 43h1M34 44h2M37 44h3M49 44h1M51 44h1M72 44h1M75 44h1M34 45h5M50 45h3M74 45h2M35 46h3M74 46h3M75 47h2M74 48h1M39 51h1M46 51h1M39 52h1M46 52h2M38 53h3M46 53h3M39 54h1M46 54h2M35 55h1M38 55h2M45 55h2M55 55h2M37 56h4M42 56h1M44 56h5M53 56h1M56 56h3M70 56h1M36 57h1M38 57h10M51 57h2M56 57h4M69 57h2M33 58h1M35 58h2M40 58h6M51 58h2M55 58h6M67 58h3M33 59h5M51 59h8M61 59h1M65 59h4M33 60h5M50 60h7M66 60h1M34 61h3M51 61h5M52 62h3" />
<path stroke="#c57b10" d="M49 20h1M46 23h1M49 48h1M50 56h1M37 57h1M50 57h1M63 58h1M38 59h1M49 59h1M39 60h1M49 60h1M33 61h1M40 61h1M69 61h1M68 62h1M35 63h1M41 63h1M44 63h1M67 63h1M37 64h3M51 64h1M60 64h1M47 65h4M61 65h3M50 66h3" />
<path stroke="#e6bd31" d="M47 23h1M45 24h1M41 26h2M39 27h1M42 27h2M45 27h1M51 27h1M38 28h1M41 28h1M44 28h1M48 28h3M46 29h1M49 29h1M51 40h1M49 41h1M35 42h1M48 43h1M48 44h1M48 45h2M34 46h1M48 46h6M34 47h4M49 47h7M35 48h2M50 48h7M35 49h2M51 49h4M38 50h2M45 51h1M38 52h1M40 52h1M48 52h1M45 53h1M38 54h1M40 54h1M45 54h1M48 54h1M37 55h1M42 55h1M47 55h1M54 55h1M57 55h1M41 56h1M43 56h1M49 56h1M52 56h1M59 56h1M71 56h1M48 57h2M60 57h1M71 57h1M38 58h2M46 58h4M62 58h1M70 58h2M39 59h10M50 59h1M59 59h2M63 59h2M69 59h2M40 60h9M57 60h5M63 60h3M67 60h3M37 61h2M41 61h8M50 61h1M56 61h6M63 61h6M34 62h6M42 62h7M50 62h2M55 62h7M63 62h5M36 63h5M45 63h5M51 63h10M62 63h5M52 64h8M62 64h4M53 65h6" />
<path stroke="#626262" d="M62 24h1M64 24h2M58 25h2M63 25h1M66 25h1M60 26h1M21 27h1M24 27h1M68 27h1M21 28h1M23 28h1M26 28h1M67 28h1M69 28h1M20 29h1M19 30h1M19 31h1M60 31h1M26 32h1M59 32h1M34 34h1M34 35h1M38 35h1M43 42h1M42 43h1M36 65h2M35 66h2M57 67h1M57 68h2M29 70h1M28 71h1M27 72h1M30 72h1M32 73h1M31 74h1M63 74h1M58 75h1M64 75h1M59 76h1M64 76h1M59 77h1" />
<path stroke="#ffffff" d="M62 25h1M65 25h1M59 26h1M62 26h1M65 26h1M25 27h1M60 27h1M22 28h1M24 28h1M28 28h1M60 28h1M68 28h1M22 29h1M27 29h1M60 32h2M26 33h1M25 34h1M35 35h1M41 35h2M44 35h1M36 36h1M43 36h1M29 71h2M28 72h1M33 73h2M32 74h2M62 74h1M57 75h1M63 75h1M57 76h2M58 77h1" />
<path stroke="#c5c5c5" d="M63 26h1M66 26h1M59 27h1M61 27h1M63 27h1M66 27h1M25 28h1M21 29h1M24 29h1M26 29h1M28 29h1M68 29h1M21 30h1M27 30h1M20 31h1M61 31h1M20 32h1M62 32h1M25 33h1M37 35h1M45 35h1M42 36h1M44 36h1M29 72h1M34 74h1M62 75h1M63 76h1M57 77h1" />
<path stroke="#6a2020" d="M35 27h1M62 27h1M64 27h2M34 28h1M42 28h1M61 28h1M66 28h1M25 29h1M34 29h1M40 29h2M67 29h1M23 30h1M26 30h1M33 30h1M39 30h1M27 31h1M33 31h1M38 31h1M52 31h2M21 32h1M38 32h1M51 32h1M53 32h1M56 32h2M55 33h1M59 33h1M61 33h1M27 34h1M36 34h3M54 34h1M58 34h1M65 34h2M25 35h1M27 35h1M39 35h1M51 35h1M53 35h1M56 35h1M58 35h1M61 35h1M26 36h1M34 36h2M37 36h1M41 36h1M52 36h1M60 36h1M63 36h1M65 36h1M24 37h1M28 37h1M33 37h1M44 37h1M50 37h1M55 37h1M57 37h1M62 37h1M33 38h1M37 38h1M45 38h1M55 38h2M62 38h1M26 39h1M34 39h2M38 39h1M42 39h1M45 39h1M55 39h1M25 40h1M30 40h2M41 40h1M44 40h1M46 40h1M55 40h1M57 40h1M60 40h1M36 41h2M39 41h2M43 41h1M56 41h1M59 41h1M28 42h1M33 42h1M38 42h1M53 42h1M58 42h1M61 42h1M28 43h1M31 43h1M46 43h1M63 43h1M32 44h1M40 44h4M56 44h1M27 45h1M29 45h1M39 45h1M29 46h1M38 46h1M58 46h1M38 47h1M37 48h1M48 48h1M59 48h1M62 48h3M37 49h1M49 49h1M58 49h1M60 49h2M64 49h1M36 50h1M63 50h1M72 50h1M75 50h1M36 51h1M57 51h1M72 51h1M74 51h1M36 52h1M74 52h1M36 53h1M71 53h1M74 53h1M57 54h1M59 54h1M70 55h1M34 66h1M33 67h1M40 67h1M31 68h2M38 68h1M41 68h1M54 68h2M60 68h1M30 69h1M53 69h1M57 69h3M61 69h1M30 70h1M62 70h1M31 71h1M62 71h1M33 72h2M40 72h1M35 73h1M62 73h1M57 74h1M61 74h1M56 75h1M61 75h1" />
<path stroke="#cd1041" d="M36 27h1M35 28h1M45 28h1M63 28h3M47 29h1M61 29h1M64 29h3M24 30h2M40 30h1M61 30h2M65 30h3M22 31h1M26 31h1M39 31h1M48 31h1M64 31h4M24 32h2M34 32h1M39 32h1M47 32h3M65 32h3M23 33h2M35 33h3M39 33h2M45 33h6M63 33h1M66 33h1M40 34h7M48 34h4M56 34h1M59 34h1M62 34h1M26 35h1M48 35h3M55 35h1M62 35h4M22 36h4M28 36h2M48 36h3M54 36h2M59 36h1M64 36h1M29 37h1M48 37h2M52 37h3M63 37h2M25 38h2M47 38h3M51 38h4M59 38h1M63 38h2M27 39h1M29 39h3M46 39h3M50 39h1M58 39h4M28 40h2M39 40h1M45 40h1M54 40h1M58 40h2M61 40h1M27 41h1M29 41h2M32 41h2M60 41h2M31 42h2M54 42h2M59 42h2M26 43h1M32 43h2M55 43h2M59 43h2M28 44h1M31 44h1M44 44h3M55 44h1M32 45h1M41 45h6M54 45h1M56 45h1M58 45h2M61 45h1M69 45h1M30 46h1M42 46h5M56 46h2M60 46h1M69 46h1M45 47h3M59 47h1M69 47h1M58 48h1M70 48h1M78 48h1M57 49h1M71 49h1M77 49h1M55 50h1M57 50h1M59 50h4M76 50h1M51 51h6M58 51h4M50 52h7M58 52h3M72 52h1M50 53h7M58 53h2M49 54h5M58 54h1M71 54h1M49 55h3M34 67h1M35 68h1M39 68h2M31 69h1M39 69h3M54 69h3M60 69h1M38 70h4M53 70h3M61 70h1M36 71h6M53 71h4M32 72h1M35 72h5M53 72h4M36 73h3M54 73h4M61 73h1M63 73h1M54 74h3M58 74h3M55 75h1M59 75h2" />
<path stroke="#ff4a31" d="M37 27h1M36 28h2M39 28h2M62 28h1M35 29h5M42 29h4M48 29h1M62 29h2M34 30h5M41 30h8M63 30h2M23 31h3M34 31h4M40 31h8M62 31h2M22 32h2M35 32h3M40 32h7M52 32h1M63 32h2M21 33h2M41 33h4M51 33h2M56 33h1M64 33h2M21 34h4M47 34h1M55 34h1M60 34h2M21 35h4M46 35h2M54 35h1M59 35h2M27 36h1M45 36h3M53 36h1M61 36h2M25 37h3M43 37h1M45 37h3M60 37h2M24 38h1M27 38h2M46 38h1M57 38h2M24 39h2M56 39h2M40 40h1M56 40h1M26 41h1M28 41h1M53 41h2M57 41h2M78 41h1M26 42h2M29 42h1M57 42h1M77 42h2M27 43h1M30 43h1M53 43h2M71 43h1M74 43h1M76 43h2M29 44h2M53 44h2M57 44h2M61 44h2M70 44h2M73 44h2M76 44h2M28 45h1M30 45h2M40 45h1M57 45h1M70 45h4M76 45h2M31 46h1M39 46h3M70 46h4M77 46h2M39 47h6M70 47h5M77 47h2M38 48h10M71 48h3M75 48h3M38 49h11M62 49h2M72 49h5M37 50h1M40 50h11M73 50h2M37 51h2M40 51h5M47 51h4M73 51h1M37 52h1M41 52h5M49 52h1M73 52h1M37 53h1M41 53h4M49 53h1M72 53h2M37 54h1M41 54h4M72 54h1M40 55h2M43 55h2M48 55h1M71 55h2M72 56h1M33 68h2M32 69h7M31 70h7M56 70h5M32 71h4M57 71h5M57 72h6M58 73h3" />
<path stroke="#ff8b62" d="M38 36h1M40 36h1M34 37h1M42 37h1M34 38h2M38 38h1M44 38h1M43 39h2M38 40h1M42 40h2M42 41h1M41 42h1" />
<path stroke="#ffcdbd" d="M39 36h1M35 37h7M39 38h5M38 41h1M41 41h1M39 42h2" />
<path stroke="#fff6cd" d="M36 43h2M50 43h2M36 44h1M50 44h1M34 56h2M54 56h2M34 57h2M53 57h3M34 58h1M53 58h2" />
</svg>