<svg xmlns="http://www.w3.org/2000/svg" viewBox="0 -0.5 96 96" shape-rendering="crispEdges">
<metadata>Made with Pixels to Svg https://codepen.io/shshaw/pen/XbxvNj</metadata>
<path stroke="#005273" d="M16 6h2M15 7h1M20 8h1M16 9h1M21 9h1M80 9h3M22 10h1M77 10h3M83 10h1M14 11h2M23 11h1M74 11h3M83 11h1M13 12h1M16 12h1M24 12h1M72 12h2M13 13h1M19 13h1M69 13h3M18 14h1M25 14h1M67 14h2M20 15h1M26 15h1M65 15h2M79 15h4M27 16h1M63 16h2M67 16h1M77 16h2M83 16h1M25 17h1M28 17h1M61 17h2M65 17h2M74 17h3M13 18h2M26 18h1M28 18h1M60 18h1M64 18h1M72 18h2M12 19h1M15 19h2M26 19h1M29 19h1M59 19h1M63 19h1M17 20h3M26 20h1M62 20h1M79 20h1M26 21h1M61 21h1M77 21h1M26 22h1M78 22h4M26 23h1M76 23h2M82 23h1M26 24h1M71 24h3M18 25h1M26 25h1M68 25h3M20 26h1M25 26h1M25 27h1M25 28h1M47 28h3M77 28h4M25 29h1M44 29h3M68 29h1M81 29h1M20 30h1M25 30h1M42 30h2M24 31h1M24 32h1M38 32h1M44 32h2M24 33h1M37 33h1M41 33h4M24 34h1M37 34h1M39 34h3M24 35h1M38 35h2M25 36h1M25 37h1M26 38h1M63 39h1M57 40h1M64 40h1M49 41h2M56 41h1M48 42h1M47 43h1M51 43h1M46 44h1M50 44h1M45 45h1M49 45h1M44 46h1M48 46h1M48 50h1M48 51h1M49 52h1M49 53h1M40 58h1M39 59h1M39 60h1M57 60h1M65 60h5M38 61h1M56 61h1M62 61h3M70 61h2M38 62h1M55 62h1M60 62h1M72 62h1M38 63h1M54 63h1M73 63h1M20 64h5M52 64h2M58 64h1M71 64h1M17 65h3M25 65h3M51 65h1M57 65h1M66 65h1M68 65h3M72 65h1M15 66h2M49 66h2M55 66h2M66 66h1M68 66h3M20 67h7M48 67h2M53 67h2M66 67h1M68 67h3M18 68h3M27 68h2M47 68h6M65 68h2M68 68h3M72 68h1M17 69h1M29 69h2M37 69h1M47 69h4M54 69h2M65 69h1M67 69h4M72 69h1M16 70h1M47 70h6M64 70h2M67 70h3M71 70h3M15 71h1M47 71h1M63 71h1M66 71h4M71 71h3M15 72h1M38 72h1M64 72h1M66 72h4M71 72h3M14 73h1M39 73h2M65 73h4M70 73h4M14 74h1M36 74h2M41 74h2M63 74h1M66 74h3M70 74h3M14 75h1M38 75h1M46 75h1M61 75h2M66 75h2M69 75h4M39 76h2M47 76h3M57 76h4M68 76h4M50 77h7M65 77h1M67 77h4M46 78h1M63 78h2M47 79h4M59 79h4M51 80h8" />
<path stroke="#94c5ff" d="M16 7h2M16 8h3M17 9h4M17 10h5M80 10h3M18 11h5M77 11h6M14 12h2M19 12h1M22 12h2M74 12h9M14 13h3M20 13h1M23 13h2M72 13h2M76 13h5M14 14h4M24 14h1M69 14h3M75 14h4M15 15h3M25 15h1M67 15h2M74 15h3M16 16h3M25 16h2M65 16h2M73 16h2M79 16h4M18 17h2M26 17h1M63 17h2M77 17h6M27 18h1M62 18h2M76 18h6M13 19h2M27 19h1M61 19h1M75 19h5M13 20h4M60 20h1M74 20h5M13 21h5M73 21h4M15 22h4M72 22h2M18 23h2M78 23h4M14 24h3M74 24h8M14 25h4M73 25h7M14 26h4M72 26h5M16 27h3M71 27h3M18 28h2M15 29h3M75 29h6M15 30h3M71 30h10M18 31h1M68 31h11M40 32h1M71 32h4M39 33h2M75 33h3M71 34h6M44 35h1M70 35h5M65 42h6M67 43h5M68 44h3M59 46h5M60 47h6M37 48h1M62 48h5M37 49h1M58 49h2M64 49h2M37 50h1M53 50h1M58 50h4M36 51h3M50 51h1M54 51h2M59 51h2M33 52h1M36 52h3M50 52h2M54 52h3M33 53h1M36 53h3M50 53h2M55 53h2M32 54h1M35 54h4M27 55h1M32 55h1M35 55h4M27 56h1M29 56h1M31 56h2M34 56h2M37 56h1M27 57h1M29 57h1M31 57h1M33 57h3M37 57h1M27 58h7M35 58h1M27 59h7M35 59h1M28 60h5M34 60h1M28 61h5M34 61h1M28 62h4M33 62h2M29 63h3M33 63h1M30 64h2M30 65h2M31 66h1" />
<path stroke="#4a83d5" d="M18 7h1M19 8h1M22 13h1M25 13h1M74 13h1M23 14h1M72 14h2M24 15h1M69 15h3M21 16h1M24 16h1M68 16h1M67 17h1M25 18h1M65 18h1M74 18h1M64 19h1M71 19h1M80 19h1M63 20h1M20 21h1M62 21h1M21 22h1M62 22h1M61 24h1M67 25h1M80 25h1M21 26h1M77 26h1M22 27h1M74 27h1M60 28h1M71 28h1M67 29h1M21 30h1M59 33h1M21 37h1M58 37h1M18 38h1M25 38h1M44 38h2M21 39h1M24 39h1M26 39h2M43 39h1M45 39h1M62 39h1M22 40h2M25 40h1M27 40h2M41 40h2M20 41h3M24 41h1M26 41h3M18 42h4M24 42h6M55 42h1M18 43h2M22 43h4M27 43h3M52 43h3M60 43h1M20 44h4M26 44h5M33 44h1M51 44h1M67 44h1M20 45h2M24 45h7M32 45h1M50 45h1M23 46h9M37 46h1M49 46h1M56 46h1M22 47h3M26 47h5M37 47h1M46 47h5M53 47h1M57 47h1M22 48h2M25 48h3M44 48h5M50 48h1M54 48h1M58 48h1M24 49h3M43 49h6M50 49h2M54 49h2M60 49h1M27 50h1M43 50h1M45 50h3M51 50h1M55 50h1M42 51h2M51 51h2M56 51h1M42 52h1M41 53h2M40 54h4M40 55h5M39 56h6M39 57h6M38 58h2M44 58h1M38 59h1M45 59h1M37 60h2M37 61h1M46 61h1M36 62h2M46 62h1M35 63h3M43 63h1M45 63h1M34 64h4M39 64h1M42 64h1M44 64h1M46 64h1M34 65h4M39 65h5M45 65h2M34 66h4M39 66h8M30 67h1M33 67h1M36 67h3M40 67h7M33 68h3M38 68h1M40 68h6M33 69h4M41 69h5M32 70h1M34 70h1M36 70h1M42 70h4M42 71h1M44 71h1" />
<path stroke="#000000" d="M15 8h1M16 10h1M17 11h1M18 12h1M83 12h1M81 13h2M79 14h2M14 15h1M15 16h1M16 17h1M17 18h1M12 20h1M12 21h1M13 22h2M76 22h1M15 23h2M28 23h1M17 24h2M28 24h1M13 25h1M28 25h1M13 26h1M28 26h1M57 26h1M79 26h2M14 27h2M27 27h1M57 27h1M76 27h2M16 28h2M27 28h1M38 28h1M50 28h1M57 28h1M73 28h2M18 29h1M27 29h1M39 29h1M49 29h1M57 29h1M27 30h1M39 30h1M48 30h1M15 31h2M27 31h1M40 31h1M47 31h1M80 31h1M17 32h3M26 32h1M39 32h1M46 32h1M56 32h1M77 32h2M20 33h2M26 33h1M38 33h1M46 33h7M56 33h1M72 33h3M26 34h1M36 34h1M38 34h1M53 34h1M36 35h2M51 35h2M48 36h3M56 36h1M18 37h2M34 37h1M38 37h1M41 37h3M45 37h3M55 37h1M16 38h2M34 38h1M39 38h1M43 38h1M46 38h1M55 38h1M35 39h1M39 39h2M46 39h1M64 39h1M18 40h2M34 40h1M39 40h1M46 40h1M56 40h1M16 41h2M34 41h1M38 41h1M45 41h1M35 42h3M45 42h1M17 43h1M45 43h1M61 43h1M18 44h1M63 44h4M22 45h1M67 45h4M20 46h2M21 47h1M21 48h1M59 48h2M22 49h2M62 49h2M66 49h1M24 50h1M56 50h1M64 50h2M57 51h1M59 52h2M54 53h1M49 54h1M55 54h2M47 55h2M38 56h1M38 57h1M37 58h1M68 58h2M37 59h1M71 59h1M36 60h1M72 60h1M36 61h1M47 61h1M35 62h1M47 62h1M73 62h1M34 63h1M47 63h1M33 64h1M47 64h1M66 64h5M74 64h1M33 65h1M47 65h1M63 65h3M71 65h1M75 65h1M32 66h1M47 66h1M61 66h2M72 66h1M75 66h1M29 67h1M32 67h1M39 67h1M47 67h1M60 67h1M72 67h1M75 67h1M21 68h4M30 68h1M32 68h1M36 68h2M39 68h1M58 68h2M75 68h1M18 69h3M25 69h2M31 69h2M38 69h3M56 69h2M75 69h1M17 70h1M27 70h2M37 70h1M41 70h1M53 70h3M75 70h1M16 71h1M29 71h1M36 71h1M41 71h1M45 71h1M48 71h5M74 71h1M16 72h1M30 72h1M36 72h1M45 72h2M74 72h1M15 73h1M31 73h1M36 73h1M46 73h1M74 73h1M15 74h1M32 74h1M46 74h1M73 74h1M15 75h1M45 75h1M73 75h1M16 76h1M35 76h1M45 76h1M72 76h1M17 77h1M36 77h2M44 77h1M71 77h1M36 78h1M38 78h2M45 78h1M69 78h2M35 79h2M40 79h1M45 79h1M67 79h2M33 80h2M46 80h1M64 80h3M24 81h1M32 81h1M45 81h4M60 81h4M25 82h3M29 82h1M31 82h1M49 82h11M29 83h2M37 83h2M44 83h1M35 84h2M41 84h1M44 84h1M40 85h1M44 85h1M38 86h2M44 86h1" />
<path stroke="#6aacf6" d="M20 12h2M21 13h1M75 13h1M20 14h3M74 14h1M18 15h2M21 15h3M72 15h2M19 16h2M22 16h2M69 16h4M17 17h1M20 17h5M27 17h1M68 17h6M18 18h7M61 18h1M66 18h6M75 18h1M19 19h7M28 19h1M60 19h1M62 19h1M65 19h6M72 19h3M20 20h6M27 20h2M61 20h1M64 20h10M18 21h2M21 21h5M27 21h2M60 21h1M63 21h10M19 22h2M22 22h4M27 22h1M59 22h2M63 22h9M74 22h1M17 23h1M20 23h6M27 23h1M59 23h2M62 23h12M19 24h7M27 24h1M59 24h1M62 24h9M20 25h6M27 25h1M59 25h1M61 25h6M71 25h2M18 26h2M22 26h3M26 26h2M58 26h2M61 26h11M19 27h3M23 27h2M26 27h1M58 27h2M61 27h10M20 28h5M26 28h1M58 28h1M61 28h10M20 29h5M26 29h1M58 29h1M60 29h7M18 30h2M22 30h3M26 30h1M44 30h2M58 30h1M60 30h11M17 31h1M19 31h5M25 31h2M38 31h1M42 31h2M58 31h1M60 31h8M20 32h4M25 32h1M37 32h1M41 32h2M57 32h2M60 32h11M22 33h2M25 33h1M57 33h1M60 33h9M20 34h4M25 34h1M57 34h1M59 34h12M16 35h8M25 35h2M45 35h1M57 35h1M59 35h11M16 36h9M26 36h1M57 36h1M59 36h13M22 37h3M26 37h2M56 37h1M59 37h8M19 38h6M27 38h2M56 38h1M58 38h6M16 39h5M25 39h1M28 39h2M44 39h1M55 39h2M58 39h4M16 40h2M24 40h1M26 40h1M29 40h1M40 40h1M43 40h3M53 40h3M58 40h6M23 41h1M25 41h1M29 41h2M39 41h6M51 41h4M57 41h11M30 42h1M38 42h7M49 42h3M56 42h9M30 43h2M35 43h10M48 43h2M55 43h5M62 43h5M31 44h1M35 44h10M47 44h2M52 44h10M31 45h1M35 45h1M37 45h8M46 45h2M51 45h12M38 46h6M45 46h2M50 46h6M57 46h2M38 47h8M51 47h2M54 47h3M59 47h1M29 48h1M39 48h5M49 48h1M51 48h2M55 48h3M28 49h1M39 49h4M49 49h1M52 49h2M56 49h2M28 50h1M39 50h4M49 50h2M52 50h1M54 50h1M57 50h1M27 51h1M40 51h2M45 51h1M47 51h1M49 51h1M53 51h1M27 52h1M40 52h2M44 52h2M47 52h2M53 52h1M26 53h1M40 53h1M44 53h2M47 53h2M26 54h1M47 54h2M26 55h1M26 56h1M36 56h1M26 57h1M36 57h1M26 58h1M34 58h1M36 58h1M41 58h3M62 58h5M26 59h1M34 59h1M36 59h1M40 59h5M60 59h5M27 60h1M33 60h1M35 60h1M40 60h6M58 60h6M27 61h1M33 61h1M35 61h1M39 61h7M55 61h1M57 61h5M65 61h3M27 62h1M32 62h1M39 62h7M54 62h1M56 62h4M62 62h4M28 63h1M32 63h1M39 63h4M44 63h1M46 63h1M52 63h1M55 63h4M60 63h4M29 64h1M32 64h1M40 64h2M43 64h1M45 64h1M54 64h1M56 64h1M59 64h4M29 65h1M32 65h1M44 65h1M58 65h3M17 66h2M30 66h1M58 66h1M17 67h2M31 67h1M16 68h1M31 68h1" />
<path stroke="#003152" d="M17 13h2M13 14h1M19 14h1M77 15h2M75 16h2M83 17h1M82 18h1M17 19h2M81 19h1M29 20h1M59 20h1M80 20h1M29 21h1M59 21h1M78 21h1M28 22h1M58 22h1M61 22h1M75 22h1M14 23h1M58 23h1M61 23h1M74 23h2M13 24h1M58 24h1M60 24h1M82 24h1M19 25h1M58 25h1M60 25h1M81 25h1M60 26h1M78 26h1M60 27h1M75 27h1M15 28h1M59 28h1M72 28h1M75 28h2M14 29h1M19 29h1M37 29h1M59 29h1M69 29h6M14 30h1M37 30h1M57 30h1M59 30h1M81 30h1M36 31h1M39 31h1M41 31h1M57 31h1M59 31h1M79 31h1M36 32h1M59 32h1M75 32h2M36 33h1M45 33h1M58 33h1M69 33h3M78 33h1M16 34h4M42 34h3M56 34h1M58 34h1M77 34h1M15 35h1M27 35h1M40 35h2M56 35h1M58 35h1M75 35h2M15 36h1M27 36h1M38 36h2M58 36h1M72 36h3M16 37h2M20 37h1M28 37h1M39 37h2M44 37h1M57 37h1M67 37h5M29 38h1M40 38h1M57 38h1M64 38h3M15 39h1M22 39h2M30 39h1M53 39h2M57 39h1M15 40h1M20 40h2M30 40h1M51 40h2M65 40h3M18 41h2M31 41h1M55 41h1M68 41h3M17 42h1M22 42h2M31 42h1M52 42h3M71 42h1M20 43h2M26 43h1M32 43h1M50 43h1M72 43h1M19 44h1M24 44h2M32 44h1M45 44h1M49 44h1M62 44h1M71 44h1M19 45h1M23 45h1M48 45h1M63 45h1M22 46h1M47 46h1M64 46h2M25 47h1M58 47h1M66 47h1M24 48h1M28 48h1M38 48h1M53 48h1M61 48h1M67 48h1M27 49h1M38 49h1M61 49h1M25 50h2M38 50h1M44 50h1M62 50h1M39 51h1M44 51h1M46 51h1M58 51h1M61 51h1M39 52h1M43 52h1M46 52h1M52 52h1M57 52h1M39 53h1M43 53h1M46 53h1M52 53h2M57 53h1M39 54h1M44 54h3M50 54h2M54 54h1M39 55h1M45 55h1M45 56h1M45 57h1M62 57h5M45 58h2M59 58h3M67 58h1M46 59h1M57 59h2M70 59h1M46 60h1M55 60h2M54 61h1M73 61h1M52 62h2M51 63h1M74 63h1M28 64h1M38 64h1M50 64h1M28 65h1M38 65h1M49 65h2M67 65h1M29 66h1M33 66h1M38 66h1M48 66h1M65 66h1M67 66h1M71 66h1M14 67h1M19 67h1M34 67h2M65 67h1M67 67h1M71 67h1M13 68h1M17 68h1M46 68h1M64 68h1M67 68h1M71 68h1M73 68h1M13 69h1M16 69h1M46 69h1M64 69h1M66 69h1M71 69h1M73 69h1M12 70h1M15 70h1M31 70h1M33 70h1M35 70h1M46 70h1M63 70h1M66 70h1M70 70h1M12 71h1M14 71h1M32 71h1M34 71h1M38 71h3M43 71h1M62 71h1M65 71h1M70 71h1M12 72h1M14 72h1M41 72h2M44 72h1M59 72h3M65 72h1M70 72h1M13 73h1M55 73h4M64 73h1M69 73h1M13 74h1M47 74h8M69 74h1M13 75h1M68 75h1M14 76h2M66 76h2M16 77h1" />
<path stroke="#007bbd" d="M38 29h1M47 29h2M38 30h1M46 30h2M37 31h1M44 31h3M43 32h1M45 34h8M42 35h2M46 35h5M40 36h8M34 42h1M34 43h1M59 59h1M65 59h5M64 60h1M70 60h2M68 61h2M72 61h1M61 62h1M66 62h6M53 63h1M59 63h1M64 63h9M51 64h1M55 64h1M57 64h1M63 64h3M72 64h2M20 65h5M52 65h5M61 65h2M73 65h2M19 66h10M51 66h4M57 66h1M59 66h2M73 66h2M15 67h2M27 67h2M50 67h3M55 67h5M73 67h2M14 68h2M25 68h2M29 68h1M53 68h5M74 68h1M14 69h2M27 69h2M51 69h3M74 69h1M13 70h2M29 70h2M74 70h1M13 71h1M30 71h2M37 71h1M64 71h1M13 72h1M31 72h2M37 72h1M39 72h2M62 72h2M32 73h1M37 73h2M41 73h2M59 73h5M38 74h3M55 74h8M64 74h2M36 75h2M39 75h3M47 75h14M63 75h3M36 76h3M41 76h1M46 76h1M50 76h7M61 76h5M38 77h3M45 77h5M57 77h8M66 77h1M40 78h1M47 78h16M65 78h4M46 79h1M51 79h8M63 79h4M47 80h4M59 80h5M49 81h11" />
<path stroke="#5a3918" d="M35 36h3M35 38h1M36 39h1M35 40h1M33 72h1M43 72h1M33 73h1M43 73h1M33 74h1M35 74h1M43 74h1M33 75h1M35 75h1M42 75h1M32 76h1M42 76h1M30 77h2M41 77h1M28 78h2M41 78h1M26 79h2M41 79h1M30 80h1M39 80h2M28 81h2M37 81h2M44 81h1M40 82h1M44 82h1M39 83h1M42 83h1M38 84h1M42 84h1" />
<path stroke="#b49473" d="M35 37h3M37 38h2M38 39h1M35 41h3M33 76h1M32 77h2M30 78h3M29 79h3M27 80h3M41 80h2M27 81h1M30 81h1M40 81h4M37 82h1M41 82h1M43 82h1M39 84h1M43 84h1" />
<path stroke="#8b6a52" d="M36 38h1M38 40h1M33 71h1M35 71h1M34 72h2M34 73h2M44 73h2M34 74h1M44 74h2M34 75h1M43 75h2M34 76h1M43 76h2M34 77h1M42 77h2M33 78h2M42 78h3M28 79h1M32 79h3M42 79h3M31 80h2M43 80h2M31 81h1M39 81h1M38 82h2M42 82h1M40 83h2M43 83h1M40 84h1" />
<path stroke="#ffffff" d="M41 38h2M42 39h1M25 80h1M26 81h1M30 82h1M36 83h1M39 85h1M43 85h1" />
<path stroke="#bd2939" d="M37 39h1M41 39h1M36 40h2" />
<path stroke="#cde6ff" d="M34 44h1M33 45h2M36 45h1M32 46h5M31 47h6M30 48h7M29 49h8M29 50h8M28 51h8M28 52h5M34 52h2M27 53h6M34 53h2M27 54h5M33 54h2M28 55h4M33 55h2M28 56h1M30 56h1M33 56h1M28 57h1M30 57h1M32 57h1" />
<path stroke="#525252" d="M35 77h1M25 79h1M24 80h1M26 80h1M25 81h1M36 82h1M35 83h1M38 85h1M42 85h1M43 86h1" />
<path stroke="#cdcdcd" d="M35 78h1M45 80h1" />
</svg>