<svg xmlns="http://www.w3.org/2000/svg" viewBox="0 -0.5 96 96" shape-rendering="crispEdges">
<metadata>Made with Pixels to Svg https://codepen.io/shshaw/pen/XbxvNj</metadata>
<path stroke="#525252" d="M47 32h2M46 33h1M46 34h1M46 35h1M48 35h1M46 36h1M48 36h1M48 37h1M48 38h1M48 39h1M47 40h2M43 41h2M42 42h1M52 42h1M41 43h1M46 43h2M53 43h1M40 44h1M45 44h1M51 44h1M54 44h1M40 45h1M44 45h1M39 46h1M43 46h1M47 46h1M55 46h1M39 47h1M43 47h1M46 47h1M55 47h1M55 48h1M55 49h1M44 51h1M51 51h1M54 51h1M53 52h1M43 53h1M52 53h1M45 54h1M50 54h1M47 55h2M48 56h1M46 57h1M48 57h1M46 58h1M48 58h1M46 59h1M48 59h1M46 60h1M48 60h1M48 61h1M47 62h2" />
<path stroke="#dedede" d="M47 33h1M47 34h1M46 41h2M44 42h2M43 43h1M42 44h1M46 44h1M49 44h1M42 45h1M41 46h1M44 46h1M51 46h1M44 49h1M51 49h1M46 51h1M49 51h1M47 58h1M47 59h1" />
<path stroke="#a4a4a4" d="M48 33h1M48 34h1M47 35h1M47 36h1M47 37h1M48 41h1M46 42h1M44 43h1M43 44h1M41 45h1M42 46h1M49 46h1M41 47h1M41 48h1M46 49h1M49 49h1M53 49h1M53 50h1M52 51h1M51 52h1M49 53h2M47 57h1M47 60h1M47 61h1" />
<path stroke="#101010" d="M49 33h1M49 34h1M49 35h1M49 36h1M46 37h1M49 37h1M46 38h1M49 38h1M46 39h1M49 39h1M45 40h2M49 40h2M51 41h2M53 42h1M48 43h2M54 43h1M50 44h1M55 44h1M51 45h1M55 45h1M48 46h1M52 46h1M56 46h1M48 47h2M52 47h1M56 47h1M39 48h1M43 48h1M46 48h2M49 48h1M52 48h1M56 48h1M39 49h1M43 49h1M47 49h2M52 49h1M56 49h1M40 50h1M44 50h1M51 50h1M55 50h1M40 51h1M45 51h1M50 51h1M55 51h1M41 52h1M46 52h4M54 52h1M42 53h1M53 53h1M43 54h2M51 54h2M45 55h2M49 55h2M46 56h1M49 56h1M49 57h1M49 58h1M49 59h1M49 60h1M46 61h1M49 61h1M46 62h1M49 62h1M47 63h2" />
<path stroke="#737373" d="M47 38h1M47 39h1M45 41h1M49 41h2M43 42h1M47 42h5M42 43h1M45 43h1M50 43h3M41 44h1M44 44h1M52 44h2M43 45h1M52 45h3M40 46h1M53 46h2M40 47h1M42 47h1M53 47h2M40 48h1M42 48h1M48 48h1M53 48h2M40 49h3M54 49h1M41 50h3M52 50h1M54 50h1M41 51h3M53 51h1M42 52h4M50 52h1M52 52h1M44 53h5M51 53h1M46 54h4M47 56h1" />
<path stroke="#ffffff" d="M47 44h2M45 45h6M45 46h2M50 46h1M44 47h2M47 47h1M50 47h2M44 48h2M50 48h2M45 49h1M50 49h1M45 50h6M47 51h2" />
</svg>