<svg xmlns="http://www.w3.org/2000/svg" viewBox="0 -0.5 96 96" shape-rendering="crispEdges">
<metadata>Made with Pixels to Svg https://codepen.io/shshaw/pen/XbxvNj</metadata>
<path stroke="#101010" d="M46 30h4M45 31h1M50 31h3M53 32h2M46 33h4M55 33h1M44 34h2M50 34h2M56 34h1M43 35h1M52 35h1M56 35h1M39 36h1M43 36h1M52 36h1M56 36h1M40 37h1M44 37h1M46 37h4M51 37h1M55 37h1M41 38h1M45 38h1M50 38h1M54 38h1M42 39h1M53 39h1M42 40h1M53 40h1M48 41h2M54 41h1M50 42h1M55 42h1M51 43h1M55 43h1M48 44h1M52 44h1M56 44h1M48 45h2M52 45h1M56 45h1M43 46h1M46 46h2M49 46h1M52 46h1M56 46h1M39 47h1M43 47h1M47 47h2M52 47h1M56 47h1M40 48h1M44 48h1M51 48h1M55 48h1M40 49h1M45 49h1M50 49h1M55 49h1M41 50h1M46 50h4M54 50h1M42 51h1M53 51h1M43 52h1M52 52h1M44 53h2M50 53h3M45 54h2M52 54h1M43 55h2M50 55h2M48 56h2M46 57h2M45 58h1M40 59h1M46 59h2M41 60h2M48 60h2M43 61h2M50 61h2M45 62h2M52 62h2M47 63h2M54 63h1M49 64h2M54 64h1M51 65h3" />
<path stroke="#525252" d="M43 31h2M49 31h1M41 32h2M52 32h1M40 33h1M50 33h1M54 33h1M39 34h1M52 34h1M55 34h1M39 35h1M55 35h1M55 36h1M54 37h1M44 38h1M51 38h1M53 38h1M43 39h1M52 39h1M41 41h1M46 41h2M53 41h1M40 42h1M45 42h1M51 42h1M54 42h1M40 43h1M44 43h1M39 44h1M43 44h1M47 44h1M55 44h1M39 45h1M43 45h1M46 45h1M55 45h1M39 46h1M55 46h1M55 47h1M44 49h1M54 49h1M53 50h1M52 51h1M44 52h1M46 53h1M47 54h5M49 55h1M41 56h2M47 56h1M40 57h1M45 57h1M40 58h1M44 58h1M45 59h1M47 60h1M49 61h1M51 62h1M53 63h1M51 64h3" />
<path stroke="#737373" d="M46 31h3M43 32h1M48 32h4M41 33h1M44 33h2M51 33h3M40 34h1M42 34h2M53 34h2M40 35h1M42 35h1M53 35h2M40 36h3M53 36h2M41 37h3M52 37h2M42 38h2M46 38h4M52 38h1M44 39h1M48 39h4M43 40h1M46 40h7M42 41h1M45 41h1M50 41h3M41 42h1M44 42h1M52 42h2M43 43h1M52 43h3M40 44h1M42 44h1M53 44h2M40 45h1M42 45h1M53 45h2M40 46h1M42 46h1M48 46h1M53 46h2M40 47h3M54 47h1M41 48h3M52 48h1M54 48h1M41 49h3M51 49h1M53 49h1M42 50h4M52 50h1M43 51h4M50 51h2M45 52h7M47 53h3M45 55h4M46 56h1M44 57h1M43 58h1M42 59h3M43 60h4M45 61h3M47 62h2M49 63h2" />
<path stroke="#a4a4a4" d="M44 32h4M42 33h2M41 34h1M41 35h1M46 39h2M45 40h1M44 41h1M43 42h1M42 43h1M49 44h1M41 45h1M41 46h1M46 47h1M49 47h1M53 47h1M53 48h1M52 49h1M50 50h2M47 51h3M45 56h1M43 57h1M42 58h1M41 59h1M48 61h1M49 62h2M51 63h2" />
<path stroke="#dedede" d="M45 39h1M44 40h1M43 41h1M42 42h1M46 42h1M49 42h1M41 43h1M41 44h1M44 44h1M51 44h1M44 47h1M51 47h1M46 49h1M49 49h1M43 56h2M41 57h2M41 58h1" />
<path stroke="#ffffff" d="M47 42h2M45 43h6M45 44h2M50 44h1M44 45h2M47 45h1M50 45h2M44 46h2M50 46h2M45 47h1M50 47h1M45 48h6M47 49h2" />
</svg>