<svg xmlns="http://www.w3.org/2000/svg" viewBox="0 -0.5 96 96" shape-rendering="crispEdges">
<metadata>Made with Pixels to Svg https://codepen.io/shshaw/pen/XbxvNj</metadata>
<path stroke="#525252" d="M46 31h1M45 32h1M49 32h1M45 33h1M49 33h1M45 34h1M49 34h1M45 35h1M49 35h1M45 36h1M49 36h1M45 37h1M49 37h1M45 38h1M49 38h1M45 39h1M49 39h1M45 40h1M49 40h1M45 41h1M49 41h1M45 42h1M49 42h1M45 43h1M49 43h1M45 44h1M49 44h1M45 45h1M49 45h1M45 46h1M49 46h1M45 47h5M43 49h1M51 49h1M42 50h1M52 50h1M41 51h1M46 51h2M53 51h1M40 52h1M44 52h2M51 52h1M54 52h1M40 53h1M44 53h1M54 53h1M39 54h1M43 54h1M55 54h1M39 55h1M43 55h9M55 55h1M55 56h1M55 57h1M54 58h1M41 59h1M44 59h1M51 59h1M54 59h1M53 60h1M52 61h1M44 62h1M50 62h2M46 63h4" />
<path stroke="#101010" d="M47 31h3M50 32h1M50 33h1M50 34h1M50 35h1M50 36h1M50 37h1M50 38h1M50 39h1M50 40h1M50 41h1M50 42h1M50 43h1M50 44h1M50 45h1M50 46h1M50 47h1M44 48h2M50 48h2M52 49h1M53 50h1M48 51h2M54 51h1M50 52h1M55 52h1M51 53h1M55 53h1M52 54h1M56 54h1M52 55h1M56 55h1M39 56h1M43 56h1M46 56h2M49 56h1M52 56h1M56 56h1M39 57h1M43 57h1M47 57h2M52 57h1M56 57h1M40 58h1M44 58h1M51 58h1M55 58h1M40 59h1M45 59h1M50 59h1M55 59h1M41 60h1M46 60h4M54 60h1M42 61h1M53 61h1M43 62h1M52 62h1M44 63h2M50 63h2M46 64h4" />
<path stroke="#a4a4a4" d="M46 32h2M48 33h1M48 34h1M46 35h3M46 36h2M46 37h2M46 38h2M46 39h2M46 40h2M46 41h2M46 42h2M46 43h2M46 44h1M46 45h1M46 46h1M47 49h1M45 50h2M44 51h1M43 52h1M47 52h1M41 53h1M46 53h2M42 54h1M44 54h2M41 55h1M41 56h1M46 57h1M49 57h1M52 59h1M51 60h1M48 61h3" />
<path stroke="#737373" d="M48 32h1M48 36h1M48 37h1M48 38h1M48 39h1M48 40h1M48 41h1M48 42h1M48 43h1M47 44h2M47 45h2M47 46h2M46 48h4M44 49h1M48 49h3M43 50h1M47 50h5M42 51h1M45 51h1M50 51h3M41 52h1M48 52h2M52 52h2M43 53h1M48 53h3M52 53h2M40 54h1M46 54h6M53 54h2M40 55h1M42 55h1M53 55h2M40 56h1M42 56h1M48 56h1M53 56h2M40 57h3M53 57h2M41 58h3M52 58h2M42 59h2M53 59h1M42 60h4M50 60h1M52 60h1M43 61h5M51 61h1M45 62h5" />
<path stroke="#dedede" d="M46 33h2M46 34h2M45 49h2M44 50h1M43 51h1M42 52h1M46 52h1M42 53h1M45 53h1M41 54h1M44 57h1M51 57h1M46 59h1M49 59h1" />
<path stroke="#ffffff" d="M44 56h2M50 56h2M45 57h1M50 57h1M45 58h6M47 59h2" />
</svg>