<svg xmlns="http://www.w3.org/2000/svg" viewBox="0 -0.5 96 96" shape-rendering="crispEdges">
<metadata>Made with Pixels to Svg https://codepen.io/shshaw/pen/XbxvNj</metadata>
<path stroke="#101010" d="M34 27h2M33 28h1M33 29h1M38 31h1M53 31h2M63 31h1M32 32h3M39 32h1M52 32h1M63 32h1M31 33h1M39 33h1M52 33h1M62 33h1M31 34h1M40 34h1M45 34h1M52 34h1M56 34h1M62 34h1M32 35h2M45 35h1M53 35h1M56 35h1M61 35h1M34 36h2M44 36h1M53 36h1M60 36h1M43 37h1M53 37h1M60 37h1M43 38h1M59 38h1M59 39h1M33 42h3M45 42h3M32 43h1M57 43h3M63 43h2M32 44h1M56 44h1M62 44h1M33 45h1M56 45h1M62 45h1M68 45h1M34 46h1M55 46h1M62 46h1M68 46h1M35 47h1M55 47h1M62 47h1M67 47h1M66 48h1M66 49h1M63 50h1M66 50h1M34 51h1M62 51h1M64 51h2M34 52h1M39 52h1M61 52h1M39 53h1M60 53h1M60 54h1M36 55h2M60 55h1M37 56h1M60 56h1M59 57h1M29 58h1M59 58h1M28 59h1M59 59h1M28 60h1M60 60h1M29 61h5M41 61h1M56 61h1M60 61h1M34 62h1M41 62h1M45 62h1M54 62h2M57 62h1M60 62h1M42 63h3M52 63h2M58 63h2M37 64h3M50 64h2M38 65h1M40 65h5M49 65h1M35 66h3M45 66h1M49 66h1M45 67h1M49 67h1M46 68h3" />
<path stroke="#ffcde6" d="M34 28h2M34 29h2M61 31h2M53 32h2M60 32h3M32 33h2M53 33h2M60 33h2M32 34h2M33 43h3M33 44h3M34 48h1M33 49h3M33 50h1M35 50h4M32 51h2M35 51h4M33 52h1M35 52h4M34 53h4M43 60h1M42 61h2M42 62h2" />
<path stroke="#bd004a" d="M36 28h1M37 29h1M33 30h1M37 30h1M61 30h2M34 31h1M60 31h1M55 32h1M59 32h1M35 33h2M43 33h2M55 33h1M58 33h1M41 34h2M57 34h1M57 36h1M36 37h1M57 37h1M36 38h1M52 38h2M37 39h1M43 39h1M51 39h1M37 40h1M44 40h1M50 40h1M59 40h1M38 41h1M45 41h1M49 41h1M60 41h1M38 42h1M48 42h1M57 42h1M60 42h1M36 43h2M39 43h3M38 44h2M65 44h3M65 45h1M34 47h1M56 47h1M61 47h1M33 48h1M36 48h1M54 48h1M57 48h1M59 48h2M32 49h1M36 49h1M54 49h1M58 49h1M32 50h1M58 50h1M31 51h1M59 51h1M31 52h1M59 52h1M31 53h1M30 54h1M34 54h1M30 55h1M35 55h1M30 56h1M35 56h2M30 57h1M36 57h1M31 59h1M43 59h1M32 60h1M42 60h1M47 60h1M46 61h1" />
<path stroke="#ffa4c5" d="M36 29h1M34 30h3M35 31h3M35 32h4M34 33h1M37 33h2M59 33h1M34 34h6M53 34h3M58 34h4M34 35h6M54 35h2M58 35h2M37 36h3M54 36h2M37 37h3M38 38h1M40 38h1M39 39h1M52 39h2M38 40h1M40 40h1M51 40h3M39 41h1M50 41h3M49 42h4M42 43h10M36 44h2M40 44h11M63 44h2M34 45h17M63 45h2M66 45h2M35 46h16M63 46h4M38 47h14M64 47h2M35 48h1M39 48h14M64 48h1M39 49h14M39 50h15M40 51h14M32 52h1M40 52h15M32 53h2M38 53h1M40 53h12M54 53h1M31 54h3M35 54h10M47 54h4M31 55h4M38 55h7M47 55h5M54 55h1M31 56h4M38 56h3M42 56h3M46 56h3M51 56h4M32 57h3M38 57h2M42 57h6M52 57h2M32 58h12M45 58h3M52 58h2M33 59h5M40 59h3M44 59h2M48 59h1M51 59h2M35 60h2M41 60h1M44 60h2M48 60h1M44 61h1" />
<path stroke="#e66294" d="M43 34h2M40 35h5M57 35h1M40 36h4M56 36h1M59 36h1M40 37h3M54 37h3M58 37h2M37 38h1M39 38h1M41 38h2M54 38h5M38 39h1M40 39h3M54 39h5M39 40h1M41 40h3M54 40h5M40 41h5M54 41h6M39 42h6M53 42h4M58 42h2M52 43h5M52 44h4M51 45h5M51 46h4M36 47h1M52 47h3M63 47h1M37 48h2M53 48h1M55 48h2M61 48h3M37 49h2M55 49h3M59 49h7M54 50h4M59 50h4M64 50h2M55 51h4M60 51h2M55 52h4M60 52h1M55 53h5M55 54h5M55 55h5M57 56h3M58 57h1M30 58h2M44 58h1M57 58h2M29 59h2M32 59h1M46 59h2M29 60h3M46 60h1M45 61h1M44 62h1" />
<path stroke="#f67bb4" d="M60 35h1M36 36h1M58 36h1M53 41h1M51 44h1M67 46h1M37 47h1M66 47h1M65 48h1M53 49h1M54 51h1M31 57h1M35 57h1M37 57h1M53 59h2" />
<path stroke="#ffffff" d="M34 50h1M39 51h1" />
<path stroke="#dee6f6" d="M52 53h2M45 54h2M51 54h4M45 55h2M52 55h2M41 56h1M45 56h1M49 56h2M40 57h2M48 57h4M48 58h4M38 59h2M49 59h2M33 60h2M37 60h4M49 60h4M34 61h7M49 61h3M35 62h6M37 63h5M46 66h2M46 67h2" />
<path stroke="#acc5de" d="M55 56h2M54 57h4M54 58h3M55 59h4M53 60h7M47 61h2M52 61h4M57 61h3M46 62h8M58 62h2M36 63h1M45 63h7M35 64h2M40 64h4M45 64h4M35 65h3M45 65h4M48 66h1M48 67h1" />
<path stroke="#5a7bac" d="M34 63h2M34 64h1M44 64h1M49 64h1M34 65h1" />
</svg>