<svg xmlns="http://www.w3.org/2000/svg" viewBox="0 -0.5 96 96" shape-rendering="crispEdges">
<metadata>Made with Pixels to Svg https://codepen.io/shshaw/pen/XbxvNj</metadata>
<path stroke="#314a8b" d="M36 25h3M48 25h3M34 26h2M39 26h1M46 26h2M51 26h2M33 27h1M40 27h1M45 27h1M53 27h1M32 28h1M40 28h1M45 28h1M32 29h1M41 29h1M31 30h1M41 30h1M31 31h1M43 31h1M31 32h1M31 33h1M31 34h1M32 35h1M34 35h1M32 36h1M34 36h1M33 37h1M48 37h1M33 38h1M49 38h1M53 38h1M32 39h1M35 39h1M42 39h1M44 39h1M53 39h1M53 40h1M54 41h1M30 45h2M29 46h1M32 46h1M29 47h1M42 47h2M30 48h1M41 48h1M44 48h1M30 49h1M41 49h1M45 49h1M41 50h1M46 51h1M37 52h2M49 52h2M36 53h1M51 53h1M33 56h1M33 57h1M32 58h1M32 59h1M32 60h1M32 61h1M33 62h1M33 63h1" />
<path stroke="#6ab4ff" d="M36 26h3M48 26h1M34 27h6M46 27h5M33 28h6M46 28h5M33 29h2M37 29h1M45 29h7M32 30h2M45 30h3M50 30h2M45 31h2M51 31h1M41 32h3M45 32h2M51 32h1M42 33h3M46 33h1M51 33h1M36 34h2M41 34h4M46 34h2M50 34h2M36 35h6M43 35h8M36 36h6M44 36h5M36 37h6M45 37h3M36 38h6M45 38h4M36 39h6M45 39h5M35 40h1M40 40h3M44 40h2M48 40h2M34 41h1M41 41h4M49 41h1M34 42h1M41 42h4M49 42h1M33 43h13M48 43h1M33 44h16M34 45h14M30 46h2M35 46h12M30 47h3M37 47h5M44 47h1M31 48h1M42 48h2M42 49h3M43 50h1M34 56h1M39 56h1M34 57h2M38 57h4M33 58h13M35 59h10M37 60h8" />
<path stroke="#629cf6" d="M49 26h1M39 28h1M51 28h1M38 29h1M52 30h1M32 31h2M52 31h1M52 32h1M52 33h1M35 35h1M49 36h1M50 39h1M50 40h1M50 41h1M37 42h2M49 43h1M48 45h1M34 46h1M47 46h1M36 47h1M45 47h1M32 48h1M38 48h3M44 50h1M37 53h1M38 54h1M39 55h2M40 56h3M42 57h4M33 59h1M45 59h1M34 60h1M36 60h1M33 61h1M35 61h1M37 61h1M39 61h4M34 62h1M36 62h1" />
<path stroke="#4a7be6" d="M50 26h1M51 27h2M52 28h2M39 29h2M52 29h2M37 30h4M53 30h2M37 31h2M53 31h2M32 32h2M53 32h2M32 33h2M53 33h2M32 34h3M52 34h3M33 35h1M51 35h3M33 36h1M50 36h4M49 37h3M52 38h1M51 39h2M34 40h1M43 40h1M51 40h2M51 41h3M50 42h4M50 43h4M49 44h5M49 45h6M48 46h8M34 47h2M46 47h10M33 48h1M35 48h3M45 48h10M31 49h3M35 49h6M46 49h8M32 50h3M36 50h5M42 50h1M46 50h6M34 51h2M39 51h3M43 51h3M47 51h2M43 52h3M38 53h5M44 53h2M47 53h4M35 54h1M39 54h5M46 54h6M34 55h1M41 55h12M43 56h11M46 57h8M46 58h9M34 59h1M46 59h9M33 60h1M35 60h1M45 60h10M34 61h1M36 61h1M38 61h1M43 61h12M35 62h1M37 62h17M34 63h20M35 64h18M37 65h14M40 66h8" />
<path stroke="#101010" d="M54 28h1M44 29h1M54 29h1M44 30h1M55 30h1M39 31h4M44 31h1M55 31h1M37 32h2M44 32h1M55 32h1M36 33h1M55 33h1M35 34h1M55 34h1M54 35h1M42 36h1M54 36h1M35 37h1M42 37h1M44 37h1M52 37h2M34 38h2M42 38h3M50 38h2M34 39h1M43 39h1M32 40h1M32 41h1M65 41h1M32 42h1M54 42h1M64 42h2M32 43h1M54 43h1M64 43h2M32 44h1M54 44h1M57 44h3M64 44h2M33 45h1M55 45h4M64 45h2M33 46h1M56 46h1M65 46h1M33 47h1M56 47h1M65 47h2M34 48h1M55 48h1M34 49h1M54 49h1M72 49h1M31 50h1M35 50h1M45 50h1M52 50h2M70 50h3M32 51h2M36 51h3M42 51h1M49 51h3M69 51h3M34 52h2M39 52h4M46 52h3M67 52h3M43 53h1M46 53h1M65 53h3M44 54h2M52 54h1M65 54h2M53 55h1M66 55h1M54 56h1M66 56h2M54 57h1M61 57h2M67 57h1M55 58h1M61 58h1M67 58h1M55 59h1M60 59h2M67 59h2M55 60h2M60 60h1M68 60h1M55 61h6M54 62h1M56 62h4M54 63h1M58 63h2M34 64h1M53 64h1M35 65h2M51 65h2M37 66h3M48 66h3M40 67h8" />
<path stroke="#bd418b" d="M35 29h2M34 30h3M48 30h2M34 31h2M47 31h2M34 32h1M47 32h2M34 33h1M47 33h2M48 34h2" />
<path stroke="#de5a94" d="M36 31h1M49 31h2M35 32h2M49 32h2M35 33h1M49 33h2M36 41h4" />
<path stroke="#9cd5ff" d="M39 32h2M37 33h5M38 34h3M33 39h1M46 40h2M45 41h1M48 41h1M33 42h1M45 42h1M48 42h1M46 43h2M36 54h2M35 55h4M35 56h4M36 57h2" />
<path stroke="#396ad5" d="M45 33h1M45 34h1M42 35h1M35 36h1M43 36h1M36 40h1M39 40h1M35 42h2M39 42h2" />
<path stroke="#deeeff" d="M34 37h1M43 37h1M33 40h1M33 41h1M46 41h2M46 42h2" />
<path stroke="#20295a" d="M37 40h2M64 40h2M35 41h1M40 41h1M63 41h2M61 42h3M59 43h4M60 44h1M57 46h1M64 46h1M66 46h1M67 47h1M65 48h6M68 49h4M68 51h1M66 52h1M67 55h1M61 56h2M63 57h1M60 58h1M63 58h3M68 58h1M65 59h2M59 60h1M67 60h1M55 62h1M57 63h1" />
</svg>