<svg xmlns="http://www.w3.org/2000/svg" viewBox="0 -0.5 96 96" shape-rendering="crispEdges">
<metadata>Made with Pixels to Svg https://codepen.io/shshaw/pen/XbxvNj</metadata>
<path stroke="#7b6241" d="M63 27h2M62 28h1M65 28h1M62 29h1M65 29h1M68 29h2M57 30h2M64 30h1M67 30h1M70 30h1M56 31h1M59 31h1M67 31h1M70 31h1M56 32h1M59 32h1M69 32h1M57 33h1M29 47h1M31 47h1M43 47h1M29 48h1M29 49h1M33 49h1M35 49h1M30 50h1M30 51h1M34 51h4M31 52h1M60 52h1M32 53h1M60 53h1M59 54h1M59 55h1M57 56h2M55 57h2M51 58h4M37 62h1M38 63h1" />
<path stroke="#f6deac" d="M63 28h1M68 30h1M57 31h1M40 42h1M40 43h3M40 44h4M31 45h2M39 45h5M31 46h3M38 46h6M30 47h1M33 47h8M30 48h2M34 48h5M42 48h2M30 49h3M34 49h1M36 49h2M40 49h4M31 50h13M31 51h3M39 51h5M32 52h3M39 52h4M42 64h2M43 65h2" />
<path stroke="#eebd7b" d="M64 28h1M63 29h2M69 30h1M58 31h1M68 31h2M57 32h2M39 42h1M41 42h1M43 43h1M31 44h1M44 45h1M30 46h1M44 46h1M44 47h2M32 48h1M41 48h1M44 48h2M39 49h1M44 49h2M44 50h2M44 51h1M43 52h1M33 53h3M38 53h5M35 54h6M59 56h1M38 57h2M57 57h2M37 58h5M56 58h1M36 59h6M50 59h1M36 60h7M49 60h2M35 61h2M38 61h6M49 61h2M35 62h2M39 62h6M48 62h3M36 63h2M42 63h4M48 63h2M36 64h2M44 64h1" />
<path stroke="#101010" d="M63 30h1M64 31h1M51 32h1M63 32h1M68 32h1M30 33h1M52 33h1M55 33h1M58 33h1M63 33h1M68 33h1M25 34h1M30 34h1M55 34h1M59 34h1M63 34h1M67 34h2M26 35h1M55 35h1M59 35h1M67 35h1M27 36h1M59 36h1M66 36h1M25 37h1M54 37h3M26 38h2M53 38h1M28 39h1M53 39h1M28 40h1M53 40h1M52 41h1M67 41h1M30 42h1M52 42h1M67 42h1M29 43h1M52 43h1M67 43h1M29 44h1M51 44h1M29 45h1M50 45h1M66 45h1M29 46h1M50 46h1M66 46h1M32 47h1M41 47h2M50 47h1M33 48h1M39 48h2M50 48h1M65 48h1M38 49h1M50 49h1M59 49h1M49 50h1M64 50h1M49 51h1M60 51h1M65 51h1M35 52h1M48 52h1M58 52h2M63 52h1M65 52h1M36 53h1M47 53h1M61 53h2M64 53h1M33 54h2M45 54h2M61 54h1M35 55h3M43 55h2M48 55h1M61 55h1M49 56h1M60 56h1M50 57h1M59 57h1M50 58h1M57 58h2M51 59h1M55 59h2M34 60h1M51 60h4M34 61h1M51 61h1M34 62h1M51 62h1M35 63h1M39 63h2M46 63h2M50 63h1M35 64h1M38 64h1M41 64h1M45 64h1M48 64h2M36 65h2M42 65h1M45 65h1M43 66h2" />
<path stroke="#9c3141" d="M29 32h2M50 32h1M54 32h2M25 33h4M50 33h1M53 33h1M62 33h1M64 33h1M65 34h1M31 35h3M47 35h2M54 35h1M66 35h1M25 36h2M34 36h2M45 36h2M56 36h1M36 37h6M43 37h2M59 37h1M66 37h1M42 38h1M67 39h1M67 40h1M28 41h1M29 42h1M45 43h1M58 44h1M66 44h1M58 45h1M49 46h1M58 46h1M59 47h1M65 47h1M59 48h1M64 49h1M58 50h1M63 50h1M58 51h1M63 51h2M61 52h1M64 52h1M38 55h2M47 55h1M36 56h1M35 57h1M35 58h1M34 59h1" />
<path stroke="#f69cb4" d="M29 33h1M51 33h1M54 33h1M29 34h1M51 34h1M53 34h2M62 34h1M28 35h3M50 35h4M62 35h3M30 36h4M47 36h5M54 36h2M61 36h4M32 37h4M45 37h6M61 37h5M33 38h1M37 38h5M44 38h5M60 38h6M34 39h9M44 39h4M60 39h6M33 40h14M59 40h7M32 41h1M34 41h4M42 41h2M59 41h7M31 42h1M33 42h5M44 42h1M59 42h6M31 43h1M33 43h6M60 43h4M30 44h1M33 44h6M30 45h1M34 45h4" />
<path stroke="#ee7b94" d="M26 34h2M64 34h1M27 35h1M61 35h1M65 35h1M28 36h2M52 36h2M65 36h1M26 37h3M31 37h1M60 37h1M28 38h1M32 38h1M43 38h1M49 38h1M43 39h1M66 39h1M29 40h1M66 40h1M29 41h1M33 41h1M38 41h4M45 41h1M66 41h1M32 42h1M42 42h2M65 42h1M32 43h1M44 43h1M59 43h1M64 43h1M32 44h1M60 44h4M33 45h1M34 46h1" />
<path stroke="#d55a7b" d="M28 34h1M50 34h1M52 34h1M61 34h1M49 35h1M60 35h1M60 36h1M30 37h1M51 37h3M31 38h1M34 38h3M50 38h1M52 38h1M59 38h1M66 38h2M32 39h2M48 39h2M52 39h1M59 39h1M32 40h1M47 40h2M52 40h1M58 40h1M31 41h1M44 41h1M46 41h2M58 41h1M38 42h1M45 42h2M51 42h1M58 42h1M66 42h1M30 43h1M39 43h1M51 43h1M58 43h1M65 43h2M39 44h1M45 44h2M50 44h1M59 44h1M64 44h2M38 45h1M45 45h3M49 45h1M59 45h7M35 46h3M46 46h3M59 46h7M46 47h4M60 47h5M46 48h4M60 48h5M46 49h4M60 49h4M46 50h3M59 50h4M46 51h3M59 51h1M61 51h2M36 52h3M45 52h3M62 52h1M37 53h1M43 53h4M42 54h3M40 55h3M45 55h2M37 56h12M36 57h1M41 57h9M42 58h8M35 59h1M43 59h6M43 60h6M44 61h4" />
<path stroke="#8b3994" d="M29 37h1M29 38h1M29 39h1M30 40h1M51 40h1M30 41h1M50 41h2M50 42h1M49 43h2M48 44h2M48 45h1" />
<path stroke="#6a3173" d="M30 38h1M51 38h1M30 39h2M50 39h2M31 40h1M49 40h2M48 41h2M47 42h3M46 43h3M47 44h1" />
<path stroke="#cd8b5a" d="M44 44h1M45 46h1M38 51h1M45 51h1M44 52h1M41 54h1M60 54h1M60 55h1M37 57h1M40 57h1M36 58h1M55 58h1M42 59h1M49 59h1M52 59h3M35 60h1M37 61h1M48 61h1M38 62h1M45 62h3M41 63h1" />
</svg>