<svg xmlns="http://www.w3.org/2000/svg" viewBox="0 -0.5 96 96" shape-rendering="crispEdges">
<metadata>Made with Pixels to Svg https://codepen.io/shshaw/pen/XbxvNj</metadata>
<path stroke="#1073ac" d="M29 35h2M28 36h1M50 36h3M49 37h1M53 37h1M48 38h1M48 39h1M47 40h1M47 41h1M47 42h1M47 43h1M53 43h1M47 44h1M66 46h1M32 47h1M65 47h2M30 48h2M35 48h1M65 55h1" />
<path stroke="#315a83" d="M41 35h2M30 36h1M40 36h1M27 37h1M29 37h1M39 37h1M27 38h1M29 38h1M38 38h1M26 39h1M28 39h1M37 39h1M26 40h1M28 40h1M36 40h1M28 41h1M36 41h1M28 42h1M35 42h1M28 43h1M35 43h1M64 43h2M29 44h1M34 44h1M63 44h1M29 45h1M34 45h1M62 45h1M30 46h1M33 46h1M67 46h1M31 47h1M33 47h1M64 47h1M36 48h1M65 48h1M30 49h1M37 49h1M66 49h3M30 50h1M37 50h1M66 50h1M27 51h1M30 51h1M37 51h1M40 51h1M65 51h1M31 52h1M36 52h1M41 52h1M66 52h1M32 53h3M40 53h1M67 53h1M28 54h1M36 54h1M39 54h1M64 54h2M52 55h3M66 55h1M55 56h1M56 57h1M56 60h1" />
<path stroke="#31b4e6" d="M29 36h1M41 36h1M28 37h1M40 37h1M28 38h1M39 38h1M51 38h2M27 39h1M50 39h2M53 39h1M50 40h2M53 40h2M49 41h6M27 42h1M36 42h1M49 42h1M51 42h2M54 42h1M27 43h1M36 43h1M49 43h1M51 43h2M28 44h1M35 44h1M49 44h5M64 44h3M28 45h1M35 45h1M48 45h5M63 45h5M29 46h1M34 46h1M50 46h3M64 46h2M30 47h1M67 47h2M32 48h3M66 48h3M31 49h5M31 50h1M34 50h2M32 51h3M27 52h2M38 52h3M29 54h1M38 54h1" />
<path stroke="#000000" d="M42 36h1M41 37h1M40 38h1M54 38h1M39 39h1M52 39h1M54 39h1M38 40h1M55 40h1M26 41h1M38 41h1M55 41h1M26 42h1M37 42h1M50 42h1M53 42h1M55 42h1M26 43h1M37 43h1M50 43h1M54 43h1M66 43h1M27 44h1M36 44h1M54 44h1M67 44h1M27 45h1M36 45h1M53 45h1M68 45h1M28 46h1M31 46h1M35 46h1M53 46h1M68 46h1M29 47h1M35 47h1M38 47h1M69 47h1M38 48h1M43 48h1M69 48h1M43 49h2M47 49h2M69 49h1M44 50h6M52 50h2M56 50h2M61 50h1M69 50h1M28 51h2M38 51h2M44 51h2M48 51h11M60 51h2M69 51h1M26 52h1M49 52h2M53 52h3M58 52h3M65 52h1M69 52h1M27 53h2M35 53h2M39 53h1M54 53h1M60 53h1M64 53h1M68 53h1M30 54h2M33 54h3M37 54h1M40 54h7M62 54h2M68 54h1M29 55h1M38 55h2M47 55h3M57 55h4M63 55h1M67 55h1M50 56h3M56 56h1M59 56h1M64 56h3M52 57h1M59 57h1M62 57h1M64 57h1M52 58h1M54 58h1M57 58h1M60 58h1M64 58h1M53 59h1M57 59h1M61 59h3M53 60h1M57 60h1M54 61h3" />
<path stroke="#62cdf6" d="M50 37h3M49 38h2M53 38h1M38 39h1M49 39h1M27 40h1M37 40h1M48 40h2M27 41h1M37 41h1M48 41h1M48 42h1M48 43h1M48 44h1" />
<path stroke="#293141" d="M52 40h1M32 50h2M61 54h1M61 55h1M62 56h1M54 57h1" />
<path stroke="#525252" d="M38 42h4M42 43h3M33 44h1M45 44h2M32 45h1M47 45h1M48 46h2M60 46h4M43 47h1M51 47h9M44 48h1M47 48h2M46 49h1M49 49h1M53 49h1M56 49h1M61 49h1M43 50h1M51 50h1M54 50h1M60 50h1M46 51h1M59 51h1M51 52h1M57 52h1M61 52h1M59 53h1M47 54h1M50 55h2M55 55h2" />
<path stroke="#d5d5de" d="M38 43h2M37 44h4M33 45h1M37 45h4M32 46h1M36 46h4M36 47h2" />
<path stroke="#bdbdc5" d="M40 43h2M41 44h4M41 45h6M40 46h8M39 47h4M44 47h6M60 47h4M37 48h1M39 48h4M45 48h2M49 48h16M38 49h5M45 49h1M50 49h3M54 49h2M57 49h4M62 49h1M64 49h1M50 50h1M55 50h1M58 50h2M63 50h1M62 51h1M64 51h1" />
<path stroke="#2094bd" d="M34 47h1M36 49h1M36 50h1M67 50h2M31 51h1M35 51h2M66 51h3M29 52h2M32 52h4M37 52h1M67 52h2M29 53h3M37 53h2M65 53h2M66 54h2M62 55h1M64 55h1M53 56h2M60 56h2M63 56h1M53 57h1M55 57h1M60 57h2M63 57h1M53 58h1M55 58h2M61 58h3M54 59h3M54 60h2" />
<path stroke="#8b94a4" d="M50 47h1M63 49h1M65 49h1M38 50h5M62 50h1M64 50h2M41 51h3M47 51h1M63 51h1M42 52h7M52 52h1M56 52h1M62 52h3M41 53h13M55 53h4M61 53h3M48 54h13" />
</svg>