<svg xmlns="http://www.w3.org/2000/svg" viewBox="0 -0.5 96 96" shape-rendering="crispEdges">
<metadata>Made with Pixels to Svg https://codepen.io/shshaw/pen/XbxvNj</metadata>
<path stroke="#101010" d="M48 30h1M49 31h1M50 33h1M51 34h1M51 35h1M52 36h1M58 40h1M58 41h1M59 43h1M59 44h1M56 45h1M59 45h1M38 46h2M46 46h1M54 46h1M56 46h1M59 46h1M40 47h3M47 47h1M53 47h2M56 47h1M58 47h1M49 48h3M54 48h1M58 48h1M40 49h1M53 49h1M57 49h1M41 50h1M55 50h2M42 51h2M53 51h2M44 52h9M42 55h1M39 56h2M42 56h1M31 57h1M37 57h2M42 57h1M55 57h3M31 58h1M36 58h1M42 58h1M55 58h1M58 58h2M32 59h1M35 59h1M43 59h1M54 59h1M60 59h1M33 60h2M43 60h1M54 60h1M61 60h1M67 60h1M44 61h1M53 61h1M62 61h1M67 61h1M45 62h1M52 62h1M62 62h1M67 62h1M46 63h2M50 63h2M63 63h1M66 63h1M46 64h1M51 64h1M64 64h2M47 65h1M50 65h1M48 66h2" />
<path stroke="#625252" d="M47 31h1M47 32h1M49 32h2M46 33h1M46 34h1M45 35h1M45 36h1M53 36h1M52 37h1M54 37h2M41 38h1M51 38h1M56 38h1M40 39h1M57 39h1M40 42h1M59 42h1M39 43h1M41 43h1M49 43h3M55 43h1M38 44h1M47 44h2M52 44h2M56 44h1M38 45h1M42 45h1M46 45h1M54 45h1M58 45h1M42 46h1M57 46h1M39 47h1M46 47h1M39 48h1M42 48h1M46 48h1M48 48h1M52 48h1M55 48h1M41 49h2M47 49h1M48 50h5M40 51h2M37 52h3M54 52h3M35 53h2M43 53h1M57 53h3M33 54h2M43 54h1M60 54h2M32 55h1M41 55h1M53 55h1M31 56h1M54 56h2M65 57h1M66 58h1M67 59h1M46 62h1M51 62h1M48 63h2" />
<path stroke="#e6e6ac" d="M48 31h1M48 32h1M47 33h2M47 34h1M43 39h2M43 40h2M48 45h2M48 46h2M60 55h2M45 56h2M61 56h3M45 57h2M63 57h2M64 58h2M65 59h2" />
<path stroke="#9c944a" d="M49 33h1M49 34h2M49 35h2M50 36h2M45 37h1M50 37h2M53 37h1M46 38h1M49 38h2M52 38h4M51 39h6M52 40h6M53 41h5M55 42h4M56 43h3M41 44h1M57 44h2M47 45h1M53 45h1M40 48h2M47 48h1M48 49h4M40 53h1M56 54h1M51 55h1M55 55h1M51 59h1M49 60h1M66 60h1M64 63h1M47 64h2M48 65h1" />
<path stroke="#c5c562" d="M48 34h1M46 35h3M46 36h4M44 37h1M46 37h4M42 38h4M47 38h2M41 39h2M45 39h6M42 40h1M45 40h7M43 41h5M44 42h2M40 43h1M44 43h1M39 44h2M49 44h3M39 45h3M50 45h3M40 46h2M47 46h1M50 46h4M49 47h3M37 53h3M35 54h6M57 54h3M33 55h8M45 55h3M50 55h1M56 55h4M32 56h7M44 56h1M47 56h2M51 56h3M56 56h5M32 57h5M44 57h1M47 57h2M51 57h2M58 57h5M32 58h4M44 58h5M60 58h4M33 59h1M45 59h3M50 59h1M61 59h4M62 60h4M63 61h3M64 62h1" />
<path stroke="#838362" d="M44 36h1M42 37h2M57 45h1M58 46h1M48 47h1M52 47h1M57 47h1M53 48h1M56 48h2M43 49h1M45 49h2M52 49h1M54 49h3M42 50h6M53 50h2M44 51h9M40 52h4M53 52h1M41 53h2M44 53h1M49 53h8M41 54h2M50 54h6M52 55h1M54 55h1M62 55h2M64 56h1M54 58h1M34 59h1M52 59h2M44 60h1M50 60h4M45 61h8M66 61h1M47 62h4M63 62h1M65 62h2M65 63h1M49 64h2M49 65h1" />
<path stroke="#a42041" d="M40 40h1M39 41h1M49 41h4M39 42h1M53 42h2M54 43h1M54 44h2M55 45h1M55 46h1M55 47h1M43 48h1M45 48h1M44 49h1M45 53h4M46 54h4M53 57h2M52 58h2" />
<path stroke="#de4162" d="M41 40h1M42 41h1M48 41h1M43 42h1M46 42h2M52 42h1M45 43h1M53 43h1M42 44h1M44 44h1M43 46h1M45 46h1M43 47h3M44 48h1M44 54h2M43 55h2M48 55h2M43 56h1M49 56h2M43 57h1M49 57h2M43 58h1M49 58h3M44 59h1M48 59h2M45 60h4" />
<path stroke="#f6837b" d="M40 41h2M41 42h2M48 42h4M42 43h2M46 43h3M52 43h1M43 44h1M45 44h2M43 45h3M44 46h1" />
</svg>