<svg xmlns="http://www.w3.org/2000/svg" viewBox="0 -0.5 96 96" shape-rendering="crispEdges">
<metadata>Made with Pixels to Svg https://codepen.io/shshaw/pen/XbxvNj</metadata>
<path stroke="#9c5252" d="M45 31h4M49 32h2M51 33h1M41 34h1M52 34h1M41 35h1M52 35h1M40 36h1M46 36h2M53 36h1M40 37h1M48 37h1M40 38h1M49 38h1M41 39h1M41 40h1M59 40h1M42 41h2M33 42h1M35 42h1M59 42h1M65 42h2M33 43h2M60 43h1M64 43h1M67 43h1M34 44h1M33 45h1M56 45h1M61 45h1M28 46h1M31 46h3M39 46h1M50 46h1M55 46h1M63 46h1M27 47h1M33 47h2M39 47h1M50 47h1M55 47h1M62 47h1M64 47h2M27 48h1M54 48h1M62 48h1M66 48h1M27 49h1M60 49h1M67 49h1M28 50h1M60 50h1M64 50h1M59 51h1M65 51h1M59 52h1M65 52h1M58 53h1M65 53h1M66 54h1M32 55h1M66 55h1M32 56h1M66 56h1M32 57h1M66 57h1M33 58h1M66 58h1M33 59h1M62 59h1M65 59h1M33 60h1M65 60h1M34 61h1M65 61h1M34 62h1M64 62h1M35 63h1M39 63h2M63 63h1M35 64h1M41 64h3M61 64h2M36 65h1M44 65h5M60 65h1M37 66h1M49 66h1M50 67h1M51 68h1" />
<path stroke="#e67b7b" d="M43 32h2M42 33h1M38 34h2M40 35h1M53 35h3M45 36h1M44 37h1M53 37h1M44 38h1M37 40h1M57 40h1M36 41h1M58 41h1M65 43h2M40 44h1M49 44h1M64 44h3M39 45h1M50 45h1M64 45h2M30 46h1M64 46h1M31 47h1M28 48h1M36 48h2M40 48h1M49 48h1M51 48h2M64 48h2M36 49h3M51 49h3M64 49h3M65 50h2M57 54h1M63 55h1M63 56h1M63 57h1M49 65h1" />
<path stroke="#ffd5bd" d="M45 32h4M43 33h8M42 34h10M37 35h3M42 35h10M56 35h1M36 36h4M41 36h4M49 36h4M54 36h4M36 37h4M41 37h3M45 37h3M50 37h3M54 37h5M36 38h4M41 38h3M45 38h4M51 38h7M37 39h4M42 39h7M51 39h5M38 40h3M42 40h7M51 40h4M37 41h5M44 41h4M51 41h5M36 42h7M50 42h6M36 43h8M48 43h9M35 44h5M41 44h8M50 44h7M35 45h4M40 45h1M42 45h5M48 45h2M51 45h5M34 46h5M40 46h1M42 46h5M48 46h2M51 46h4M56 46h1M58 46h2M28 47h3M32 47h1M35 47h4M40 47h1M42 47h5M48 47h2M51 47h4M57 47h3M29 48h2M33 48h3M39 48h1M42 48h5M48 48h1M50 48h1M55 48h5M30 49h6M39 49h3M47 49h4M54 49h6M30 50h13M47 50h13M30 51h13M47 51h12M64 51h1M31 52h13M46 52h13M64 52h1M32 53h26M59 53h1M64 53h1M33 54h24M58 54h1M64 54h2M34 55h25M64 55h2M34 56h24M64 56h2M35 57h22M64 57h2M36 58h20M64 58h2M37 59h18M64 59h1M39 60h14M41 61h9" />
<path stroke="#734a39" d="M32 33h5M59 33h4M32 34h1M37 34h1M58 34h1M63 34h2M32 35h2M57 35h1M62 35h2M33 36h2M58 36h1M61 36h2M33 37h2M59 37h3M59 38h2" />
<path stroke="#5a3120" d="M63 33h2M31 34h1M56 34h2M65 34h1M31 35h1M36 35h1M64 35h1M31 36h2M35 36h1M63 36h1M31 37h2M35 37h1M62 37h1M65 37h1M31 38h4M61 38h1M65 38h1M32 39h3M60 39h1M65 39h1M32 40h3M32 41h2M64 41h1M64 42h1" />
<path stroke="#9c8373" d="M33 34h4M59 34h4M34 35h2M58 35h4M59 36h2" />
<path stroke="#101010" d="M65 35h1M64 36h2M63 37h2M62 38h3M49 39h1M61 39h4M49 40h1M60 40h5M48 41h1M59 41h5M44 42h4M60 42h4M61 43h3M61 44h3M67 44h1M62 45h2M66 45h1M41 46h1M47 46h1M62 46h1M65 46h1M41 47h1M47 47h1M63 47h1M63 48h1M42 49h3M46 49h1M63 49h1M43 50h1M63 50h1M67 50h1M29 51h1M63 51h1M66 51h1M30 52h1M63 52h1M31 53h1M63 53h1M32 54h1M63 54h1M62 55h1M62 56h1M62 57h1M62 58h1M61 59h1M61 60h1M61 61h1M60 62h1M60 63h1M59 64h1M59 65h1M44 66h1M58 66h1M42 67h2M58 67h1M38 68h4M57 68h1M52 69h5" />
<path stroke="#ffacac" d="M48 36h1M49 37h1M35 38h1M50 38h1M58 38h1M35 39h2M50 39h1M56 39h4M35 40h2M50 40h1M55 40h2M58 40h1M34 41h2M49 41h2M56 41h2M34 42h1M43 42h1M48 42h2M56 42h3M35 43h1M44 43h4M57 43h1M59 43h1M60 44h1M34 45h1M60 45h1M57 46h1M61 46h1M56 47h1M31 48h2M38 48h1M53 48h1M60 48h1M61 49h2M29 50h1M61 50h2M60 51h3M60 52h3M60 53h3M59 54h4M33 55h1M59 55h3M33 56h1M58 56h4M33 57h2M57 57h5M34 58h2M56 58h6M63 58h1M34 59h3M55 59h6M63 59h1M34 60h5M53 60h8M62 60h3M35 61h6M50 61h11M62 61h3M35 62h25M61 62h3M36 63h3M41 63h19M61 63h2M36 64h5M44 64h15M60 64h1M37 65h7M50 65h9M41 66h3M50 66h8M51 67h2M56 67h2" />
<path stroke="#949494" d="M58 43h1M29 44h1M57 44h1M59 44h1M28 45h1M30 45h1M57 45h1M59 45h1M60 46h1M61 47h1M41 48h1M47 48h1M61 48h1M29 49h1M38 66h3M37 67h1M41 67h1M53 67h3M52 68h1M56 68h1" />
<path stroke="#ffffff" d="M58 44h1M29 45h1M41 45h1M47 45h1M58 45h1M29 46h1M60 47h1M28 49h1M45 49h1M38 67h3M53 68h3" />
<path stroke="#ee4139" d="M44 50h2M44 51h2" />
<path stroke="#b43929" d="M46 50h1M43 51h1M46 51h1M44 52h2" />
</svg>