<svg xmlns="http://www.w3.org/2000/svg" viewBox="0 -0.5 96 96" shape-rendering="crispEdges">
<metadata>Made with Pixels to Svg https://codepen.io/shshaw/pen/XbxvNj</metadata>
<path stroke="#948b94" d="M30 12h2M30 13h1M29 14h1M31 14h1M29 15h1M31 15h1M29 16h1M31 16h1M28 17h1M28 18h1M28 19h1M32 19h2M28 20h1M30 20h2M28 21h1M37 30h1M36 32h1M42 39h1M43 43h1M43 44h1M47 51h1M48 52h1M45 56h3M44 57h1M48 57h2M44 58h1M50 58h1M51 59h1M51 60h1M24 65h2M23 66h1M26 66h1M22 68h2M24 69h1M25 72h1M24 73h1M21 75h1" />
<path stroke="#ded5cd" d="M31 13h1M30 14h1M30 15h1M30 16h1M43 16h1M29 17h2M43 17h1M29 18h1M43 18h1M29 19h1M43 19h1M29 20h1M42 20h1M31 21h1M42 21h1M41 22h1M41 23h1M28 24h1M40 24h1M27 25h3M40 25h1M27 26h3M39 26h1M26 27h4M39 27h1M26 28h3M34 28h1M38 28h1M26 29h2M42 42h1M42 43h1M41 44h2M41 45h3M40 46h4M39 47h5M35 48h10M35 49h10M34 50h12M34 51h13M33 52h15M33 53h15M33 54h14M32 55h15M32 56h12M33 57h10M45 57h3M34 58h1M36 58h4M46 58h4M37 59h1M46 59h5M46 60h5M47 61h4M48 62h2M50 63h2M51 64h1M19 73h1M18 74h1M21 74h1M23 75h1M20 76h1M45 79h1M46 81h1M50 81h1M45 82h1" />
<path stroke="#6a626a" d="M32 13h1M32 14h1M43 14h1M33 15h1M42 15h1M44 15h1M33 16h1M42 16h1M44 16h3M33 17h1M42 17h1M44 17h1M46 17h1M33 18h1M42 18h1M44 18h1M46 18h1M34 19h3M41 19h1M46 19h1M37 20h2M41 20h1M46 20h1M39 21h2M40 22h1M40 23h1M26 24h1M39 24h1M26 25h1M39 25h1M25 26h1M38 26h1M25 27h1M38 27h1M36 31h1M41 33h1M29 34h1M41 34h1M34 42h1M43 42h1M44 45h1M44 46h1M34 47h1M44 47h1M34 48h1M45 48h1M34 49h1M45 49h1M33 50h1M46 50h1M33 51h1M30 55h1M30 56h1M29 57h1M29 58h1M28 59h1M44 59h1M30 60h1M33 60h1M45 60h1M29 61h1M31 61h1M45 61h1M52 61h1M28 62h1M32 62h1M46 62h1M50 62h2M27 63h1M47 63h1M49 63h1M28 64h1M26 65h1M27 66h1M27 67h1M33 67h1M40 67h1M34 68h1M38 68h1M25 70h1M25 71h1M45 78h1M44 79h1M45 81h1M44 82h1M46 82h1" />
<path stroke="#b4b4ac" d="M32 15h1M43 15h1M32 16h1M31 17h2M45 17h1M30 18h3M45 18h1M30 19h2M42 19h1M44 19h2M35 20h2M43 20h3M36 21h3M41 21h1M43 21h3M36 22h4M42 22h4M37 23h3M42 23h4M37 24h2M41 24h4M37 25h2M41 25h4M37 26h1M40 26h5M40 27h4M39 28h5M38 29h6M38 30h5M35 31h1M37 31h6M33 32h3M37 32h5M31 33h10M30 34h11M32 35h10M33 36h9M33 37h9M34 38h8M34 39h8M34 40h9M34 41h9M35 42h7M35 43h7M35 44h6M35 45h6M35 46h5M35 47h4M48 53h1M47 54h3M47 55h4M44 56h1M48 56h4M30 57h1M32 57h1M43 57h1M50 57h3M30 58h1M32 58h2M40 58h4M45 58h1M51 58h3M29 59h2M32 59h2M38 59h6M45 59h1M52 59h3M29 60h1M32 60h1M38 60h7M52 60h3M30 61h1M32 61h1M39 61h6M46 61h1M51 61h1M53 61h3M29 62h2M40 62h6M47 62h1M54 62h2M28 63h2M42 63h5M48 63h1M55 63h2M26 64h2M44 64h4M50 64h1M52 64h1M27 65h2M47 65h3M51 65h2M24 66h2M28 66h1M51 66h1M23 67h4M24 68h4M21 69h3M25 69h2M21 70h4M26 70h1M20 71h5M20 72h5M22 73h2" />
<path stroke="#dedede" d="M32 20h3M32 21h4M33 22h3M35 23h2M29 24h1M36 24h1" />
<path stroke="#4a62b4" d="M29 21h1M36 26h1M32 28h1M36 28h1M35 29h2M14 30h1M34 30h2M15 31h2M32 31h2M78 31h2M17 32h1M26 32h1M77 32h1M15 33h1M18 33h2M23 33h2M75 33h2M20 34h2M74 34h1M79 34h1M73 35h1M23 36h3M71 36h2M70 37h1M69 38h1M77 38h3M20 39h2M25 39h1M67 39h2M75 39h1M21 40h2M26 40h1M66 40h1M22 41h2M27 41h1M65 41h1M23 42h2M28 42h1M44 42h1M64 42h1M24 43h2M29 43h1M44 43h1M62 43h2M71 43h1M24 44h3M30 44h1M45 44h1M61 44h1M68 44h1M70 44h1M25 45h2M31 45h1M45 45h1M60 45h1M65 45h1M67 45h1M69 45h1M26 46h2M32 46h1M46 46h1M58 46h2M64 46h1M66 46h1M68 46h2M27 47h2M33 47h1M46 47h1M57 47h1M63 47h3M67 47h2M28 48h2M47 48h1M55 48h2M62 48h6M28 49h3M48 49h1M53 49h2M60 49h7M29 50h3M49 50h1M51 50h2M59 50h7M30 51h2M50 51h1M58 51h8M31 52h1M57 52h8M31 53h1M56 53h8M50 54h1M54 54h9M51 55h1M56 55h6M52 56h1M57 56h5M53 57h1M58 57h4M35 58h1M54 58h1M59 58h2M34 59h3M55 59h1M58 59h1M60 59h1M34 60h3M57 60h2M33 61h5M57 61h3M33 62h2M37 62h2M57 62h3M32 63h2M38 63h2M53 63h1M58 63h2M32 64h2M35 64h1M39 64h3M54 64h1M57 64h4M32 65h1M35 65h1M40 65h4M57 65h4M63 65h1M34 66h3M41 66h6M56 66h1M58 66h3M41 67h10M56 67h1M58 67h3M21 68h1M39 68h11M56 68h1M58 68h3M35 69h14M56 69h1M58 69h2M61 69h1M66 69h2M20 70h1M36 70h13M55 70h2M58 70h2M61 70h2M37 71h11M55 71h1M57 71h2M60 71h5M19 72h1M38 72h10M54 72h2M57 72h9M21 73h1M37 73h1M40 73h8M54 73h2M57 73h11M37 74h1M43 74h4M52 74h3M56 74h12M36 75h1M52 75h3M56 75h7M65 75h4M36 76h1M48 76h1M51 76h3M57 76h6M67 76h3M36 77h1M47 77h7M58 77h2M62 77h2M69 77h1M36 78h1M47 78h6M59 78h1M63 78h1M47 79h5M59 79h1M48 80h3" />
<path stroke="#9ccdff" d="M30 21h1M30 22h2M29 23h1M27 24h1M30 24h1M30 25h1M26 26h1M30 26h1" />
<path stroke="#101010" d="M46 21h1M46 22h1M46 23h1M45 24h1M45 25h1M45 26h1M44 27h1M44 28h1M32 29h1M44 29h1M43 30h1M80 30h2M43 31h1M81 31h1M42 32h1M80 32h1M42 33h1M79 33h1M15 34h1M42 34h1M16 35h1M30 35h2M42 35h1M82 35h1M17 36h1M32 36h1M42 36h1M80 36h2M18 37h1M32 37h1M42 37h1M79 37h1M33 38h1M42 38h1M80 38h1M19 39h1M33 39h1M43 39h1M76 39h4M20 40h1M33 40h1M43 40h1M75 40h1M21 41h1M33 41h1M43 41h1M74 41h1M22 42h1M73 42h1M34 43h1M72 43h1M23 44h1M34 44h1M71 44h1M24 45h1M34 45h1M25 46h1M34 46h1M70 46h1M26 47h1M69 47h1M68 48h1M27 49h1M67 49h1M28 50h1M29 51h1M66 51h1M32 52h1M65 52h1M30 53h1M32 53h1M64 53h1M32 54h1M63 54h1M31 55h1M31 56h1M62 56h1M31 57h1M62 57h1M31 58h1M61 58h1M31 59h1M61 59h1M28 60h1M31 60h1M59 60h1M28 61h1M60 61h1M31 62h1M52 62h1M60 62h1M30 63h2M52 63h1M29 64h1M31 64h1M48 64h2M53 64h1M61 64h1M29 65h1M31 65h1M50 65h1M54 65h3M61 65h1M29 66h1M32 66h1M50 66h1M57 66h1M61 66h1M68 66h1M28 67h1M32 67h1M57 67h1M67 67h1M28 68h1M33 68h1M57 68h1M66 68h1M27 69h1M34 69h1M57 69h1M27 70h1M35 70h1M57 70h1M70 70h1M18 71h1M26 71h1M36 71h1M56 71h1M68 71h2M17 72h1M26 72h1M36 72h2M56 72h1M17 73h1M20 73h1M25 73h1M36 73h1M38 73h2M56 73h1M17 74h1M19 74h1M24 74h1M36 74h1M40 74h3M55 74h1M18 75h2M22 75h1M24 75h1M35 75h1M44 75h4M55 75h1M63 75h2M19 76h1M21 76h1M23 76h1M35 76h1M40 76h1M44 76h1M54 76h2M65 76h2M20 77h1M35 77h1M38 77h1M40 77h2M43 77h1M54 77h1M56 77h1M61 77h1M67 77h2M35 78h1M38 78h1M40 78h1M42 78h1M53 78h1M57 78h1M62 78h1M69 78h2M35 79h1M37 79h1M39 79h1M52 79h1M58 79h1M63 79h2M35 80h2M44 80h3M51 80h1M59 80h2M51 81h1M47 82h2M50 82h1M44 83h3M48 83h2" />
<path stroke="#293173" d="M28 22h1M34 27h2M33 28h1M37 28h1M37 29h1M13 30h1M31 30h1M36 30h1M13 31h1M25 31h1M34 31h1M14 32h1M31 32h2M14 33h1M26 33h1M29 33h2M24 34h1M27 34h2M80 34h3M23 35h1M22 36h1M79 36h1M25 37h1M78 37h1M18 38h2M24 38h1M22 43h2M70 45h2M26 48h2M66 50h2M29 52h2M31 54h1M55 55h1M62 55h2M56 56h1M57 57h1M58 58h1M59 59h1M37 60h1M55 60h1M60 60h1M38 61h1M56 61h1M26 62h2M39 62h1M53 62h1M56 62h1M24 63h2M40 63h2M54 63h1M57 63h1M60 63h2M23 64h1M42 64h2M55 64h2M62 64h2M22 65h1M44 65h3M53 65h1M64 65h4M21 66h1M47 66h3M52 66h2M20 67h1M51 67h1M61 67h1M20 68h1M50 68h1M61 68h1M65 68h1M67 68h1M19 69h1M49 69h1M60 69h1M68 69h2M19 70h1M49 70h1M60 70h1M48 71h1M59 71h1M48 72h1M67 72h1M48 73h1M68 73h1M22 74h2M38 74h2M47 74h1M68 74h1M37 75h7M69 75h1M37 76h3M41 76h3M47 76h1M56 76h1M63 76h1M70 76h1M37 77h1M39 77h1M42 77h1M46 77h1M57 77h1M60 77h1M64 77h1M70 77h1M37 78h1M39 78h1M46 78h1M58 78h1M60 78h1M64 78h1M36 79h1M46 79h1M60 79h1M47 80h1M48 81h2" />
<path stroke="#5aa4ff" d="M29 22h1M32 22h1M28 23h1M30 23h3M31 24h4M31 25h4M31 26h3M30 27h3M29 28h3M28 29h4M26 30h5M14 31h1M26 31h4M80 31h1M15 32h2M78 32h2M17 33h1M77 33h2M18 34h2M23 34h1M75 34h3M19 35h4M74 35h3M20 36h2M73 36h2M21 37h4M71 37h3M22 38h2M70 38h3M22 39h3M69 39h3M23 40h3M68 40h2M24 41h3M66 41h3M25 42h3M65 42h3M26 43h3M64 43h3M27 44h3M44 44h1M63 44h3M28 45h3M61 45h3M28 46h4M45 46h1M60 46h3M29 47h4M45 47h1M59 47h3M30 48h4M46 48h1M57 48h4M31 49h3M46 49h2M55 49h5M32 50h1M47 50h1M53 50h6M32 51h1M48 51h1M51 51h6M49 52h3M53 52h3M50 53h3M54 53h1M51 54h3M52 55h3M53 56h3M54 57h3M55 58h2M56 59h1M54 66h2M53 67h3M51 68h4M51 69h4M50 70h5M50 71h4M49 72h5M49 73h4M49 74h3M49 75h2" />
<path stroke="#5273d5" d="M27 23h1M33 23h2M35 24h1M35 25h2M34 26h2M33 27h1M36 27h2M25 28h1M35 28h1M25 29h1M25 30h1M30 31h2M27 32h4M16 33h1M22 33h1M27 33h2M16 34h2M22 34h1M78 34h1M17 35h2M77 35h5M18 36h2M75 36h4M19 37h2M74 37h4M20 38h2M73 38h4M72 39h3M67 40h1M70 40h5M69 41h5M68 42h5M67 43h4M62 44h1M66 44h2M69 44h1M27 45h1M64 45h1M66 45h1M68 45h1M63 46h1M65 46h1M67 46h1M58 47h1M62 47h1M66 47h1M61 48h1M48 50h1M49 51h1M57 51h1M52 52h1M56 52h1M49 53h1M53 53h1M55 53h1M57 58h1M57 59h1M56 60h1M26 63h1M24 64h2M36 64h1M23 65h1M36 65h1M62 65h1M22 66h1M37 66h1M62 66h6M21 67h2M52 67h1M62 67h5M55 68h1M62 68h3M20 69h1M50 69h1M55 69h1M62 69h4M63 70h7M19 71h1M49 71h1M54 71h1M65 71h3M66 72h1M53 73h1M48 74h1M48 75h1M51 75h1M49 76h2" />
<path stroke="#c5395a" d="M33 29h1M32 30h2M35 62h1M34 63h2M34 64h1M33 65h2M33 66h1M34 67h3M35 68h3" />
<path stroke="#ffffff" d="M34 29h1M18 72h1M18 73h1M20 74h1M20 75h1M47 81h1M49 82h1" />
<path stroke="#ff5a52" d="M36 62h1M36 63h2M37 64h2M37 65h3M38 66h3M37 67h3" />
</svg>