<svg xmlns="http://www.w3.org/2000/svg" viewBox="0 -0.5 96 96" shape-rendering="crispEdges">
<metadata>Made with Pixels to Svg https://codepen.io/shshaw/pen/XbxvNj</metadata>
<path stroke="#9c5218" d="M46 20h5M43 21h3M47 21h2M41 22h2M46 22h1M39 23h2M38 24h1M37 25h1M46 25h1M36 26h1M48 26h1M35 27h1M50 28h1M50 29h2M49 30h2M49 31h2M50 32h1M46 34h2M46 35h1M36 36h1M51 36h1M35 37h1M51 37h2M35 38h1M50 38h2M49 39h3M50 40h1M53 42h1M54 43h3M53 44h3M59 44h1M55 45h1M58 45h1M37 46h2M58 46h1M28 47h5M37 47h3M46 47h1M24 48h3M34 48h1M38 48h1M47 48h1M70 48h1M35 49h1M42 49h1M69 49h1M23 50h1M35 50h1M68 50h2M23 51h3M64 51h2M67 51h1M26 52h1M28 52h2M51 52h2M61 52h1M66 52h2M26 53h2M30 53h1M50 53h3M60 53h1M26 54h1M50 54h4M59 54h1M51 55h3M57 55h2M51 56h3M55 56h2M40 57h1M51 57h2M40 58h1M51 58h4M41 59h1M50 59h6M41 60h2M48 60h2M51 60h3M40 61h1M52 61h1M37 62h3M53 62h1M56 62h1M38 63h6M53 63h4M37 64h2M40 64h2M52 64h1M54 64h1M56 64h3M40 65h1" />
<path stroke="#d58b29" d="M46 21h1M43 22h3M47 22h1M41 23h6M39 24h7M38 25h8M37 26h11M36 27h14M35 28h15M35 29h15M34 30h9M47 30h2M34 31h7M33 32h2M37 32h3M33 33h1M39 33h1M44 34h2M43 35h3M43 36h2M36 37h2M43 37h1M38 38h1M65 41h1M64 42h2M64 43h2M60 44h3M59 45h7M59 46h9M40 47h1M59 47h11M27 48h7M50 48h1M60 48h10M24 49h11M49 49h3M61 49h8M24 50h11M48 50h4M62 50h6M26 51h9M49 51h3M63 51h1M66 51h1M27 52h1M30 52h3M49 52h2M62 52h1M61 53h2M60 54h2M59 55h2M57 56h3M55 57h3M39 58h1M38 59h3M37 60h4M54 60h2M37 61h3M53 61h4M54 62h2" />
<path stroke="#6a3908" d="M49 21h1M47 25h2M34 28h1M51 28h1M34 29h1M33 30h1M33 31h1M52 38h1M52 40h2M53 41h1M52 42h1M54 42h4M66 42h1M60 43h2M66 43h1M63 44h4M37 45h2M52 45h1M66 45h2M35 46h2M68 46h2M49 47h2M58 47h1M70 47h1M42 48h1M49 48h1M59 48h1M71 48h1M23 49h1M48 49h1M60 49h1M61 50h1M35 51h1M52 51h1M62 51h1M33 52h1M53 52h1M31 53h1M53 53h1M66 53h1M54 55h1M54 56h1M39 57h1M53 57h2M58 57h1M38 58h1M55 58h1M37 59h1M36 60h1M50 60h1M50 61h1M40 62h2M52 63h1M57 63h2M36 64h1M39 64h1M42 64h1M51 64h1M53 64h1M55 64h1M59 64h1M37 65h2M41 65h1M54 65h1M57 65h2" />
<path stroke="#cd4118" d="M76 21h1M78 21h2M74 22h5M71 23h8M70 24h7M70 25h4M71 26h3M71 27h4M68 28h7M67 29h5M73 29h1M68 30h2M42 37h1M41 38h2M39 39h5M39 40h5M40 41h3" />
<path stroke="#101010" d="M48 22h1M47 23h1M46 24h1M49 26h1M50 27h1M57 30h1M57 31h1M57 32h1M57 33h1M56 35h1M45 36h1M55 36h1M45 37h1M53 37h2M31 38h1M44 38h2M32 39h1M37 39h1M52 39h1M33 40h1M38 40h1M51 40h1M35 41h1M50 41h1M36 42h1M52 44h1M51 45h1M53 45h2M52 46h1M55 46h2M51 47h1M57 47h1M39 48h1M51 48h1M38 49h1M40 49h2M52 49h1M37 50h1M52 50h1M36 51h1M34 52h1M74 52h1M32 53h1M74 53h1M20 54h1M25 54h1M30 54h1M62 54h1M72 54h2M21 55h1M24 55h1M30 55h1M61 55h1M64 55h1M67 55h1M72 55h1M24 56h1M29 56h1M60 56h1M65 56h2M72 56h1M22 57h2M27 57h2M59 57h1M70 57h2M56 58h2M56 59h1M43 60h2M56 60h1M36 61h1M41 61h2M45 61h5M51 61h1M57 61h1M36 62h1M52 62h1M57 62h1M37 63h1M44 66h1M44 67h1M62 67h1M42 68h2M53 68h1M62 68h1M33 69h1M39 69h2M54 69h1M61 69h1M34 70h2M37 70h2M60 70h1M55 71h2M58 71h2" />
<path stroke="#735a10" d="M53 27h3M52 28h1M56 28h1M57 29h1M32 32h1M56 34h1M30 35h1M30 36h1M31 37h1M36 41h1M49 42h1M37 43h1M46 43h1M38 44h2M45 44h1M40 45h5M21 50h1M72 50h1M22 51h1M73 51h1M20 52h2M41 52h1M63 52h1M20 53h1M22 53h1M41 53h1M63 53h1M67 53h2M41 54h1M63 54h1M67 54h1M26 55h1M40 55h1M69 55h1M21 56h1M26 56h1M40 56h1M69 56h1M36 65h1M43 65h1M52 65h1M33 66h3M51 66h1M32 67h1M34 67h1M51 67h1M32 68h1M36 68h1M41 68h1M52 68h1M60 68h1M36 69h1M57 69h1M60 69h1M54 70h1M57 70h1" />
<path stroke="#eecd94" d="M53 28h3M53 29h3M52 30h4M52 31h2M52 32h1M31 33h2M52 33h1M31 34h2M52 34h1M31 35h2M52 35h1M31 36h2M32 37h1M44 40h4M37 41h3M43 41h4M37 42h10M38 43h2M41 43h1M43 43h2M44 49h3M70 49h1M43 50h4M70 50h2M43 51h1M45 51h2M68 51h2M71 51h2M24 52h2M43 52h2M47 52h1M64 52h2M68 52h3M72 52h1M23 53h2M28 53h2M42 53h7M64 53h2M69 53h3M22 54h2M28 54h2M42 54h7M64 54h2M70 54h2M22 55h2M27 55h2M41 55h9M65 55h2M70 55h1M42 56h7M43 57h5M39 65h1M53 65h1M55 65h1M36 66h6M52 66h5M33 67h1M35 67h2M38 67h2M52 67h6M34 68h2M37 68h2M54 68h2M57 68h2M55 69h2M58 69h1" />
<path stroke="#8b7341" d="M52 29h1M51 30h1M51 31h1M54 31h2M51 32h1M53 32h1M55 32h1M51 33h1M53 33h1M55 33h1M51 34h1M53 34h1M51 35h1M53 35h1M52 36h1M36 40h1M47 41h1M40 43h1M42 43h1M39 45h1M45 48h2M72 48h1M22 49h1M47 49h1M71 49h1M73 49h1M42 50h1M47 50h1M73 50h1M20 51h1M42 51h1M44 51h1M47 51h2M70 51h1M23 52h1M42 52h1M45 52h2M48 52h1M71 52h1M49 53h1M72 53h1M27 54h1M49 54h1M69 54h1M50 55h1M50 56h1M50 57h1M41 58h1M50 58h1M42 59h1M49 59h1M47 60h1M61 66h1M37 67h1M59 67h1M33 68h1M39 68h1M56 68h1" />
<path stroke="#c59462" d="M56 29h1M56 30h1M56 31h1M31 32h1M54 32h1M56 32h1M30 33h1M54 33h1M56 33h1M30 34h1M54 34h2M54 35h2M53 36h2M32 38h2M33 39h2M34 40h2M48 40h2M48 41h2M48 42h1M45 43h1M47 43h2M40 44h5M46 44h2M72 49h1M22 50h1M21 51h1M22 52h1M73 52h1M21 53h1M25 53h1M73 53h1M21 54h1M24 54h1M66 54h1M29 55h1M71 55h1M22 56h2M27 56h2M41 56h1M49 56h1M70 56h2M41 57h2M48 57h2M42 58h8M43 59h6M45 60h2M42 65h1M56 65h1M42 66h2M57 66h4M40 67h4M58 67h1M60 67h2M40 68h1M59 68h1M61 68h1M34 69h2M37 69h2M59 69h1M55 70h2M58 70h2" />
<path stroke="#ffcd41" d="M72 29h1M67 30h1M70 30h3M65 31h6M64 32h8M64 33h9M65 34h7M63 35h6M61 36h7M61 37h7M61 38h7M62 39h7M63 40h6M64 41h1M66 41h2M57 43h1M56 44h3M56 45h2M57 46h1M35 47h2M35 48h3M36 49h2M36 50h1" />
<path stroke="#1073de" d="M43 30h3M41 31h8M35 32h2M40 32h8M34 33h5M40 33h4M47 33h1M34 34h8M34 35h7M34 36h2M39 36h1" />
<path stroke="#1052b4" d="M46 30h1M48 32h2M44 33h3M48 33h3M33 34h1M42 34h2M48 34h3M33 35h1M41 35h2M48 35h3M33 36h1M37 36h2M40 36h3M48 36h3M33 37h2M38 37h4M48 37h3M34 38h1M39 38h2M48 38h2M35 39h1M47 39h2" />
<path stroke="#dee6e6" d="M47 35h1M46 36h1M43 38h1M47 38h1M46 39h1M37 40h1M50 42h2M49 43h2M48 44h2M45 45h6M47 46h4M48 47h1" />
<path stroke="#ffffff" d="M47 36h1M44 37h1M46 37h2M37 38h1M46 38h1M36 39h1M44 39h2M51 41h2M47 42h1M51 43h3M50 44h2M39 46h8M51 46h1M41 47h5M47 47h1M40 48h2M43 48h2M48 48h1M43 49h1" />
<path stroke="#eea441" d="M36 38h1M38 39h1M58 43h2M33 47h2" />
</svg>