<svg xmlns="http://www.w3.org/2000/svg" viewBox="0 -0.5 96 96" shape-rendering="crispEdges">
<metadata>Made with Pixels to Svg https://codepen.io/shshaw/pen/XbxvNj</metadata>
<path stroke="#393139" d="M43 21h4M41 22h2M47 22h2M40 23h1M39 24h2M50 25h2M43 28h1M45 28h2M51 29h2M44 30h1M42 31h2M40 32h2M39 33h1M38 34h1M37 35h1M51 35h1M37 36h1M36 37h1M36 38h2M51 38h1M35 40h3M35 41h3M33 42h4M52 42h1M53 44h1M66 44h2M65 45h1M67 45h1M36 46h1M56 46h1M58 46h1M64 46h1M67 46h1M36 47h1M35 48h1M53 48h1M57 48h1M62 48h3M66 48h1M34 49h1M38 49h1M42 49h1M48 49h1M54 49h3M58 49h1M62 49h2M65 49h2M33 50h2M38 50h2M42 50h1M48 50h1M54 50h1M61 50h2M64 50h2M33 51h1M37 51h1M39 51h1M41 51h1M43 51h1M47 51h1M50 51h1M55 51h1M61 51h2M64 51h2M32 52h2M37 52h1M40 52h1M43 52h1M49 52h1M52 52h1M55 52h1M59 52h1M61 52h1M63 52h2M33 53h1M44 53h1M49 53h1M54 53h2M59 53h1M61 53h1M63 53h1M33 54h1M44 54h1M59 54h2M62 54h1M64 54h2M33 55h1M36 55h1M45 55h1M47 55h1M59 55h2M63 55h3M33 56h1M36 56h1M46 56h1M48 56h1M58 56h4M63 56h2M48 57h1M58 57h7M57 58h7M56 59h7M55 60h7M55 61h5M53 62h1M43 63h1M53 63h1M56 63h1M42 64h1M48 64h1M52 64h1M41 65h2M47 65h1M37 66h5M37 68h1M50 68h1M35 69h1M39 69h1M49 69h1M38 70h1M49 70h1M54 70h1M55 71h1M56 72h1" />
<path stroke="#5a525a" d="M43 22h4M41 23h8M41 24h2M45 24h4M40 25h2M46 25h2M40 26h2M41 27h2M44 31h2M42 32h6M40 33h1M44 33h5M45 34h5M38 35h1M45 35h5M38 36h1M44 36h3M49 36h2M38 37h2M42 37h2M49 37h2M48 38h3M66 38h2M48 39h4M64 39h2M68 39h1M47 40h5M63 40h1M68 40h1M46 41h6M62 41h1M68 41h1M46 42h6M67 42h1M37 43h1M47 43h6M67 43h1M37 44h1M47 44h6M58 44h1M36 45h1M43 45h2M48 45h4M56 45h2M59 45h1M66 45h1M38 46h1M42 46h5M48 46h6M57 46h1M65 46h2M37 47h3M41 47h15M58 47h1M63 47h3M36 48h4M41 48h12M54 48h3M36 49h2M39 49h3M43 49h5M49 49h5M36 50h2M40 50h2M43 50h5M49 50h5M35 51h2M40 51h1M44 51h3M48 51h2M51 51h4M35 52h2M44 52h3M48 52h1M53 52h2M35 53h1M45 53h2M48 53h1M35 54h1M45 54h2M48 54h1M46 55h1M46 67h1M35 68h1M36 69h2M40 69h1M50 69h2M57 69h2M39 70h2M50 70h1M55 70h2M58 70h1M56 71h1" />
<path stroke="#101010" d="M49 23h1M43 24h2M50 24h1M39 25h1M42 25h1M45 25h1M39 26h1M42 26h1M46 26h1M51 26h1M40 27h1M43 27h1M46 27h1M51 27h1M41 28h2M51 28h1M45 29h1M52 30h1M52 31h1M52 32h1M49 33h1M52 33h1M50 34h1M52 34h1M50 35h1M51 36h1M44 37h1M46 37h1M51 37h1M38 38h1M44 38h3M37 39h2M45 39h1M52 39h1M52 40h1M33 41h2M52 41h1M32 42h1M37 42h3M61 42h1M32 43h5M53 43h1M59 43h2M57 44h1M59 44h1M52 45h2M55 45h1M58 45h1M54 46h2M56 47h2M66 47h2M65 48h1M67 48h1M35 49h1M57 49h1M64 49h1M67 49h1M35 50h1M58 50h1M63 50h1M66 50h1M34 51h1M59 51h1M63 51h1M66 51h1M34 52h1M47 52h1M60 52h1M62 52h1M65 52h1M32 53h1M34 53h1M36 53h1M47 53h1M60 53h1M62 53h1M64 53h3M32 54h1M34 54h1M36 54h1M47 54h1M61 54h1M63 54h1M66 54h1M32 55h1M34 55h2M61 55h2M66 55h1M32 56h1M35 56h1M62 56h1M65 56h1M33 57h1M35 57h1M65 57h1M34 58h1M36 58h1M64 58h1M35 59h1M37 59h1M63 59h1M36 60h4M62 60h1M39 61h4M53 61h2M60 61h2M42 62h1M44 62h2M51 62h2M54 62h6M46 63h5M54 63h1M45 64h2M51 64h1M54 64h2M45 65h1M51 65h1M54 65h1M44 66h3M52 66h1M55 66h1M35 67h2M47 67h1M52 67h1M55 67h1M57 67h1M34 68h1M36 68h1M44 68h4M58 68h1M34 69h1M38 69h1M42 69h2M52 69h2M56 69h1M59 69h1M36 70h2M41 70h1M51 70h1M57 70h1M59 70h1M39 71h2M50 71h2M57 71h2M57 72h1" />
<path stroke="#393939" d="M49 24h1M48 25h2M47 26h4M47 27h4M47 28h4M46 29h5M45 30h7M46 31h6M48 32h4M50 33h2M51 34h1M51 63h1" />
<path stroke="#9c838b" d="M41 33h3M39 34h6M39 35h6M39 36h5M40 37h2M55 50h2M56 51h1M50 52h2M50 53h4M49 54h6M44 55h1M48 55h6M37 56h1M42 56h4M47 56h1M49 56h3M36 57h12M37 58h10M39 59h6M49 61h1M51 61h1M48 62h1M50 62h1" />
<path stroke="#ffffff" d="M47 36h2M37 37h1M45 37h1M47 37h1M41 38h3M47 38h1M42 39h3M46 39h2M66 39h2M43 40h4M64 40h4M44 41h2M63 41h5M43 42h3M62 42h5M38 43h1M42 43h4M61 43h6M38 44h5M44 44h3M60 44h6M37 45h1M39 45h3M46 45h2M60 45h5M39 46h3M59 46h5M40 47h1M60 47h3M38 51h1M42 51h1M38 52h2M41 52h2M37 53h7M37 54h7M38 55h5M39 56h2" />
<path stroke="#b4b4b4" d="M48 37h1M46 43h1M43 44h1M38 45h1M42 45h1M45 45h1M37 46h1M47 46h1M59 47h1M40 48h1M58 48h4M59 49h3M59 50h2M60 51h1M37 55h1M43 55h1M38 56h1M41 56h1" />
<path stroke="#bd6200" d="M39 38h2M41 39h1M42 40h1M42 41h2M40 42h3M53 64h1M52 65h2M42 66h2M53 66h2M41 67h5M53 67h2M43 68h1M54 68h1" />
<path stroke="#ff9429" d="M39 39h2M38 40h4M38 41h2M37 67h1M40 67h1M38 68h2M42 68h1M51 68h2M56 68h2M41 69h1M54 69h2" />
<path stroke="#7b4120" d="M40 41h2M39 43h3M44 63h1M43 64h2M43 65h2M38 67h2M51 67h1M56 67h1M40 68h2M53 68h1M55 68h1" />
<path stroke="#735a62" d="M57 50h1M57 51h2M56 52h3M56 53h3M55 54h4M54 55h5M34 56h1M52 56h6M34 57h1M49 57h9M35 58h1M47 58h2M50 58h7M36 59h1M38 59h1M45 59h5M51 59h5M40 60h11M53 60h2M44 61h5M50 61h1M43 62h1M47 62h1M49 62h1M45 63h1M52 63h1M55 63h1M47 64h1" />
<path stroke="#52394a" d="M49 58h1M50 59h1M51 60h2M43 61h1M52 61h1M46 62h1" />
</svg>