<svg xmlns="http://www.w3.org/2000/svg" viewBox="0 -0.5 96 96" shape-rendering="crispEdges">
<metadata>Made with Pixels to Svg https://codepen.io/shshaw/pen/XbxvNj</metadata>
<path stroke="#102952" d="M30 18h3M51 18h1M28 19h1M33 19h1M47 19h1M52 19h1M27 20h1M34 20h1M46 20h1M53 20h1M34 21h1M45 21h1M53 21h1M33 22h1M45 22h1M53 22h1M44 23h1M53 23h1M65 23h1M30 24h1M32 24h1M44 24h1M53 24h1M31 25h1M44 25h1M52 25h1M65 25h1M30 26h2M52 26h1M28 27h2M41 27h2M44 27h1M51 27h1M64 27h1M45 28h1M32 29h1M45 29h1M63 29h1M39 30h1M55 30h1M63 30h1M55 31h1M32 32h1M54 32h1M62 32h1M32 33h1M53 33h1M61 33h1M33 34h1M45 34h2M53 34h1M59 34h1M34 35h2M47 35h1M52 35h1M57 35h2M45 36h2M52 36h1M59 36h1M51 37h1M39 38h1M46 38h2M60 38h1M38 39h1M54 39h7M36 40h2M32 41h4M56 41h2M62 41h1M53 42h3M62 42h1M48 43h5M61 43h1M71 43h1M20 44h1M60 44h1M70 44h1M72 44h1M61 45h1M70 45h1M72 45h1M70 46h1M72 46h1M43 47h1M69 47h1M47 48h1M69 48h1M42 49h1M45 49h1M69 49h1M16 50h2M42 50h2M66 50h2M73 50h7M58 51h3M68 51h1M61 52h4M69 52h1M61 53h1M70 53h1M56 54h1M60 54h1M62 54h1M65 54h1M68 54h1M71 54h1M74 54h1M55 55h1M60 55h1M66 55h1M69 55h1M71 55h2M75 55h1M55 56h1M64 56h1M66 56h1M69 56h2M74 56h1M54 57h1M65 57h3M73 57h1M54 58h1M65 58h1M73 58h1M41 59h1M54 59h1M65 59h1M72 59h1M42 60h1M54 60h1M66 60h1M71 60h1M43 61h1M54 61h1M66 61h1M70 61h1M44 62h1M66 62h1M68 62h2M46 63h1M64 63h1M66 63h2M63 64h1M66 64h1M42 65h1M50 65h6M65 65h1M37 66h1M39 66h1M43 66h1M59 66h1M65 66h1M35 67h2M39 67h1M60 67h1M66 67h1M38 68h1M43 68h1M60 68h2M66 68h1M60 69h2M65 69h1M62 70h1M65 70h1M62 71h1" />
<path stroke="#394a8b" d="M38 18h4M49 18h2M29 19h1M36 19h2M42 19h2M48 19h1M33 20h1M35 20h1M44 20h1M46 21h1M43 22h2M25 23h1M31 23h1M33 23h1M64 23h1M31 24h1M62 24h2M29 25h2M32 25h1M61 25h1M64 25h1M27 26h3M42 26h3M50 26h1M59 26h2M31 27h1M43 27h1M45 27h1M48 27h3M58 27h1M63 27h1M39 28h1M43 28h2M46 28h3M57 28h1M62 28h1M43 29h1M56 29h1M60 29h3M32 30h1M37 30h1M42 30h1M46 30h1M59 30h4M32 31h1M36 31h1M41 31h1M46 31h1M57 31h5M39 32h1M46 32h1M55 32h7M33 33h1M38 33h1M45 33h2M54 33h7M36 34h1M54 34h5M53 35h4M53 36h6M48 37h1M52 37h8M53 38h7M39 39h2M46 39h1M53 39h1M29 40h3M38 40h3M58 40h2M61 40h1M26 41h3M36 41h4M48 41h1M23 42h3M32 42h8M48 42h3M21 43h2M31 43h2M39 43h1M25 44h1M30 44h1M52 44h1M71 44h1M24 45h1M28 45h1M51 45h1M71 45h1M24 46h4M71 46h1M22 47h5M49 47h2M70 47h3M22 48h4M50 48h2M70 48h3M22 49h3M65 49h1M70 49h3M22 50h2M55 50h1M68 50h5M23 51h1M55 51h3M67 51h1M69 51h6M55 52h6M65 52h1M70 52h3M76 52h2M37 53h2M54 53h7M62 53h3M71 53h6M53 54h3M57 54h3M63 54h2M66 54h2M69 54h2M72 54h2M37 55h1M54 55h1M56 55h1M63 55h3M67 55h2M70 55h1M73 55h1M36 56h1M59 56h1M65 56h1M67 56h2M71 56h1M35 57h1M59 57h1M63 57h1M68 57h1M40 58h1M60 58h1M63 58h1M32 59h1M34 59h1M39 59h2M63 59h2M32 60h2M37 60h5M61 60h1M63 60h1M32 61h11M62 61h1M33 62h9M62 62h1M35 63h6M65 63h1M37 64h5M64 64h2M39 65h3M59 65h1M62 65h3M38 66h1M40 66h3M60 66h5M37 67h2M40 67h4M61 67h5M34 68h4M39 68h4M62 68h4M36 69h5M62 69h3M66 69h1M37 70h2M60 70h2M63 70h2M66 70h2M60 71h2M63 71h1M68 71h1M60 72h2M68 72h1M66 73h2M63 74h3M68 74h1M62 75h1M65 75h1M65 76h1M65 77h1" />
<path stroke="#5a6abd" d="M30 19h3M38 19h4M49 19h3M32 20h1M38 20h6M47 20h6M33 21h1M39 21h6M51 21h2M27 22h4M39 22h4M52 22h1M26 23h5M38 23h6M46 23h3M26 24h4M33 24h2M37 24h7M45 24h6M64 24h1M26 25h3M33 25h11M45 25h6M62 25h2M32 26h10M45 26h5M61 26h3M32 27h9M46 27h2M59 27h4M32 28h7M58 28h4M33 29h5M57 29h3M33 30h4M38 30h1M56 30h3M33 31h3M37 31h4M56 31h1M33 32h6M34 33h4M34 34h2M47 34h1M45 35h2M47 36h1M46 37h2M48 38h2M47 39h2M46 40h3M52 40h6M60 40h1M29 41h3M47 41h1M49 41h7M58 41h1M29 42h3M47 42h1M51 42h2M61 42h1M26 43h5M53 43h1M58 43h3M26 44h4M55 44h5M25 45h3M52 45h9M50 46h11M51 47h9M54 48h4M52 49h2M50 50h5M51 51h4M75 51h4M51 52h4M73 52h3M52 53h2M38 54h1M38 55h2M57 55h3M37 56h3M56 56h3M63 56h1M36 57h4M55 57h4M64 57h1M35 58h5M55 58h5M64 58h1M35 59h4M55 59h6M34 60h3M55 60h6M65 60h1M55 61h7M65 61h1M56 62h1M59 62h3M65 62h1M56 63h1M60 63h3M57 64h1M60 64h3M60 65h2M64 71h4M62 72h6M61 73h5M68 73h1M61 74h2" />
<path stroke="#8b8bbd" d="M28 20h1M30 20h2M27 21h1M32 21h1M26 22h1M31 22h2M32 23h1M45 23h1M49 23h1M52 23h1M51 24h2M51 25h1M51 26h1M74 55h1M72 56h2M69 57h4M66 58h7M45 59h3M53 59h1M66 59h6M43 60h1M45 60h4M52 60h2M67 60h4M44 61h10M67 61h3M45 62h10M67 62h1M47 63h8M50 64h6" />
<path stroke="#b4bdf6" d="M29 20h1M28 21h4M47 21h4M46 22h6M50 23h2M44 56h1M44 57h2M44 58h3" />
<path stroke="#738bcd" d="M36 20h2M35 21h4M34 22h5M34 23h4M35 24h2M49 39h4M49 40h3M59 41h3M26 42h3M56 42h5M23 43h3M54 43h4M53 44h2M61 46h1M60 47h3M58 48h6M56 49h9M58 50h8M61 51h6M66 52h3M57 62h2M57 63h3M58 64h2" />
<path stroke="#101010" d="M26 21h1M25 24h1M65 24h1M25 25h1M26 26h1M64 26h1M27 27h1M31 28h1M40 28h1M42 28h1M49 28h2M63 28h1M31 29h1M38 29h2M42 29h1M46 29h3M31 30h1M40 30h2M47 30h1M47 31h1M62 31h1M47 32h1M47 33h1M37 34h2M48 34h1M60 34h1M36 35h1M38 35h1M48 35h1M39 36h1M48 36h1M39 37h1M49 37h1M60 37h1M50 38h3M33 43h6M31 44h2M39 44h1M29 45h2M28 46h1M62 46h1M27 47h1M48 47h1M63 47h1M73 47h1M20 48h2M26 48h1M49 48h1M52 48h2M64 48h1M73 48h1M18 49h2M21 49h1M25 49h1M50 49h2M54 49h2M73 49h1M21 50h1M24 50h1M56 50h2M22 51h1M24 51h1M79 51h1M23 52h1M38 52h1M78 52h1M65 53h5M77 53h1M75 54h2M32 56h2M31 59h1M31 60h1M31 61h1M32 62h1M42 62h2M55 62h1M33 63h2M41 63h1M45 63h1M55 63h1M35 64h2M42 64h1M47 64h3M56 64h1M37 65h2M57 65h2M31 69h1M41 69h2M67 69h1M30 70h1M39 70h2M59 70h1M68 70h1M31 71h2M36 71h3M59 71h1M69 71h1M33 72h3M59 72h1M60 73h1M60 74h1M69 74h1M61 75h1M69 75h1M71 75h2M62 76h1M66 76h2M63 77h1M68 77h2M64 78h2" />
<path stroke="#ffff18" d="M41 28h1" />
<path stroke="#de9c18" d="M40 29h2" />
<path stroke="#5a1000" d="M44 29h1M43 30h1M43 32h1M45 32h1M41 33h2M39 34h2M45 37h1M40 38h1M40 41h1M40 42h1M40 43h1M40 44h1M40 45h1M40 46h1M40 47h1M40 48h1M39 50h1M39 51h1M39 52h1M39 53h1M39 54h1M40 56h1M40 57h1" />
<path stroke="#ac314a" d="M44 30h2M43 31h3M41 32h2M44 32h1M39 33h2M43 33h2M41 34h4M39 35h6M40 36h5M41 37h3M40 49h1M40 55h1M53 55h1M52 56h3M50 57h4M41 58h2M48 58h6M42 59h3M48 59h5M44 60h1M49 60h3" />
<path stroke="#c5cdd5" d="M42 31h1M22 44h3M48 44h4M20 45h4M46 45h1M48 45h3M21 46h3M49 46h1M20 47h2M44 47h1M44 48h2M43 49h1M36 52h1M35 53h2M35 54h3M35 55h2M35 56h1M60 56h2M33 57h1M60 57h2M33 58h1M61 58h1M61 59h2M62 60h1M63 61h1M64 62h1M32 69h1M34 69h1M31 70h1M35 70h2M34 71h2M70 72h1M69 73h1M63 75h1M66 75h1M68 75h1M63 76h1" />
<path stroke="#ffffff" d="M40 32h1M47 45h1M19 46h2M45 46h4M18 47h2M45 47h3M17 48h3M16 49h2M35 50h1M35 51h1M35 52h1M34 53h1M34 54h1M61 54h1M34 55h1M61 55h1M34 56h1M32 57h1M62 57h1M32 58h1M62 58h1M33 59h1M64 60h1M64 61h1M63 62h1M63 63h1M33 70h1M69 72h1M70 73h1M66 74h2M71 74h1M64 75h1M67 75h1M64 76h1M68 76h1M64 77h1" />
<path stroke="#de5a29" d="M40 37h1M44 37h1M41 38h5M41 39h5M41 40h5M41 41h6M41 42h6M41 43h7M41 44h6M41 45h4M41 46h3M41 47h2M41 48h2M48 48h1M41 49h1M46 49h4M40 50h2M44 50h6M40 51h11M40 52h11M40 53h12M40 54h13M41 55h12M41 56h3M45 56h7M41 57h3M46 57h4M43 58h1M47 58h1" />
<path stroke="#737b83" d="M21 44h1M47 44h1M19 45h1M45 45h1M18 46h1M44 46h1M17 47h1M16 48h1M43 48h1M46 48h1M15 49h1M35 49h1M44 49h1M15 50h1M34 50h1M36 50h1M34 51h1M36 51h1M34 52h1M37 52h1M33 53h1M33 54h1M33 55h1M62 55h1M62 56h1M31 57h1M34 57h1M31 58h1M34 58h1M34 67h1M32 68h2M33 69h1M35 69h1M32 70h1M34 70h1M33 71h1M70 71h1M71 72h1M71 73h1M70 74h1M72 74h1M69 76h1" />
</svg>