<svg xmlns="http://www.w3.org/2000/svg" viewBox="0 -0.5 96 96" shape-rendering="crispEdges">
<metadata>Made with Pixels to Svg https://codepen.io/shshaw/pen/XbxvNj</metadata>
<path stroke="#41418b" d="M45 10h3M44 11h1M48 11h2M44 12h1M50 12h1M37 13h1M44 13h1M28 14h1M41 14h1M51 14h1M27 15h1M44 15h1M50 15h1M20 16h3M27 16h1M48 16h2M19 17h1M23 17h1M52 17h1M19 18h1M26 18h1M34 18h1M39 18h6M20 19h2M24 19h1M35 19h2M42 19h2M50 19h3M21 20h1M32 20h4M41 20h5M52 20h2M22 21h4M27 21h1M31 21h15M23 22h2M26 22h2M32 22h2M40 22h6M25 23h3M42 23h4M68 23h8M42 24h3M65 24h2M61 25h3M45 27h2M58 27h7M56 28h16M46 29h2M53 29h19M52 30h16M47 31h2M53 31h12M51 32h2M55 32h10M58 33h8M67 33h1M36 34h2M59 34h8M34 35h2M60 35h6M33 36h1M61 36h5M33 37h1M61 37h1M64 37h1M64 38h1M69 38h3M68 39h5M68 40h6M66 41h6M52 42h3M66 42h4M52 43h4M65 43h4M52 44h4M65 44h3M17 45h2M20 45h1M52 45h4M65 45h3M17 46h6M52 46h4M65 46h3M16 47h9M43 47h1M52 47h5M66 47h1M16 48h11M43 48h1M53 48h4M66 48h1M16 49h5M27 49h1M43 49h1M55 49h3M16 50h3M41 50h1M43 50h1M54 50h1M56 50h1M58 50h1M16 51h1M40 51h1M42 51h1M53 51h1M59 51h1M67 51h1M39 52h1M42 52h1M53 52h1M56 52h1M67 52h1M42 53h1M57 53h1M67 53h1M42 54h1M58 54h1M68 54h1M41 55h1M57 55h2M68 55h1M80 55h2M16 56h1M41 56h1M56 56h1M58 56h1M68 56h1M79 56h1M16 57h1M41 57h1M55 57h2M59 57h1M68 57h1M78 57h1M16 58h1M41 58h2M51 58h1M56 58h1M60 58h1M77 58h1M16 59h1M41 59h1M43 59h1M50 59h1M56 59h1M59 59h2M76 59h1M80 59h1M17 60h1M41 60h1M44 60h1M49 60h1M57 60h2M17 61h1M42 61h1M45 61h1M48 61h1M53 61h1M75 61h1M17 62h1M46 62h2M53 62h1M67 62h1M79 62h1M18 63h1M33 63h1M54 63h1M67 63h2M18 64h1M30 64h2M33 64h3M67 64h2M19 65h1M31 65h5M45 65h1M53 65h2M61 65h1M68 65h1M72 65h1M19 66h1M32 66h4M46 66h1M51 66h6M61 66h2M67 66h1M71 66h1M73 66h1M75 66h4M20 67h1M33 67h4M47 67h12M60 67h1M64 67h2M67 67h1M71 67h1M73 67h1M75 67h2M20 68h1M33 68h5M48 68h13M63 68h1M65 68h4M70 68h2M73 68h1M77 68h2M33 69h4M50 69h12M64 69h5M70 69h1M72 69h1M75 69h4M37 70h1M52 70h11M64 70h4M74 70h6M34 71h4M55 71h9M68 71h1M77 71h3M38 72h1M65 72h4M75 72h1M79 72h1M34 73h4M39 73h1M69 73h1M76 73h1M38 74h2M65 74h5M77 74h1M33 75h7M70 75h1M78 75h1M35 76h4M64 76h1M70 76h1M37 77h1M33 78h1M35 78h1M63 78h1M36 79h1" />
<path stroke="#7b7bcd" d="M45 11h3M45 12h4M48 13h2M20 17h3M22 18h2M34 36h2M34 37h1M18 42h2M20 43h2" />
<path stroke="#c59410" d="M30 12h3M29 13h1M34 13h1M32 14h1M33 15h1M34 16h1M29 17h1M30 19h1M31 20h1M39 20h1M45 49h5M51 50h1M43 51h1M51 51h1M52 52h1M43 53h1M52 53h1" />
<path stroke="#292952" d="M33 12h4M38 13h3M51 13h1M42 14h4M52 14h1M45 15h1M23 16h1M26 16h1M46 16h2M24 17h3M25 18h1M50 18h2M19 19h1M28 19h1M33 19h1M44 19h2M20 20h1M22 20h2M27 20h1M29 20h1M21 21h1M26 21h1M28 21h1M22 22h1M25 22h1M28 22h1M39 22h1M46 22h1M23 23h2M28 23h1M41 23h1M25 24h3M75 24h1M43 25h1M75 25h1M58 26h3M74 26h1M47 27h2M56 27h2M73 27h1M53 28h3M72 28h1M48 29h5M72 29h1M68 30h4M49 31h3M65 31h3M53 32h2M65 32h1M69 32h2M66 33h1M68 33h2M67 34h1M66 35h1M58 36h1M66 36h1M69 36h1M65 37h1M69 37h3M33 38h1M65 38h1M68 38h1M72 38h1M32 39h1M60 39h1M64 39h1M67 39h1M73 39h1M17 40h1M32 40h1M64 40h1M67 40h1M74 40h1M18 41h2M63 41h1M75 41h1M20 42h2M28 42h1M63 42h1M75 42h2M22 43h2M29 43h1M56 43h1M58 43h1M75 43h1M77 43h1M15 44h4M24 44h3M56 44h1M59 44h1M75 44h1M14 45h1M16 45h1M19 45h1M26 45h1M56 45h1M60 45h1M64 45h1M75 45h1M13 46h1M16 46h1M32 46h1M56 46h1M61 46h1M64 46h1M75 46h1M12 47h1M31 47h1M57 47h1M62 47h2M65 47h1M75 47h1M11 48h1M15 48h1M57 48h1M65 48h1M75 48h1M15 49h1M41 49h1M58 49h1M66 49h1M75 49h1M15 50h1M57 50h1M59 50h1M66 50h1M75 50h1M15 51h1M58 51h1M60 51h1M74 51h1M15 52h1M59 52h2M74 52h1M15 53h1M60 53h2M74 53h1M15 54h1M52 54h1M61 54h1M74 54h1M15 55h1M52 55h1M62 55h1M74 55h1M52 56h1M63 56h1M73 56h1M81 56h1M31 57h1M52 57h1M63 57h1M73 57h1M81 57h1M30 58h1M52 58h1M64 58h1M69 58h1M73 58h1M81 58h1M29 59h1M52 59h1M64 59h2M69 59h1M73 59h1M81 59h1M29 60h1M52 60h1M65 60h2M69 60h1M72 60h1M75 60h1M80 60h1M28 61h1M52 61h1M65 61h5M72 61h1M80 61h1M28 62h1M42 62h1M65 62h2M68 62h2M72 62h1M74 62h1M28 63h1M32 63h1M43 63h1M53 63h1M66 63h1M69 63h1M72 63h3M79 63h1M29 64h1M32 64h1M43 64h1M54 64h1M66 64h1M69 64h1M71 64h1M73 64h1M75 64h7M30 65h1M36 65h1M44 65h1M55 65h2M67 65h1M69 65h1M71 65h1M74 65h1M31 66h1M36 66h1M45 66h1M57 66h2M65 66h1M68 66h3M72 66h1M74 66h1M79 66h1M32 67h1M46 67h1M59 67h1M63 67h1M68 67h3M72 67h1M74 67h1M77 67h2M32 68h1M61 68h2M64 68h1M69 68h1M72 68h1M74 68h3M37 69h1M62 69h2M69 69h1M71 69h1M73 69h2M21 70h1M33 70h4M63 70h1M68 70h6M22 71h1M33 71h1M38 71h1M64 71h4M69 71h1M74 71h1M33 72h5M64 72h1M69 72h2M33 73h1M38 73h1M64 73h5M70 73h1M32 74h6M64 74h1M70 74h1M31 75h2M64 75h6M29 76h2M80 76h1M69 81h1M65 82h1M69 82h1M64 83h1M63 84h1M68 84h1" />
<path stroke="#5a62ac" d="M49 12h1M35 13h2M45 13h3M50 13h1M33 14h8M46 14h5M28 15h1M34 15h10M46 15h4M51 15h2M28 16h1M35 16h11M50 16h3M27 17h2M32 17h20M53 17h1M20 18h2M24 18h1M27 18h3M32 18h2M35 18h4M48 18h2M52 18h2M22 19h2M25 19h3M29 19h1M32 19h1M34 19h1M53 19h1M24 20h3M30 20h1M46 23h1M45 24h2M67 24h8M44 25h4M64 25h11M44 26h4M61 26h13M65 27h8M45 28h4M46 30h5M47 32h4M48 33h7M38 34h1M49 34h9M68 34h2M36 35h3M50 35h8M67 35h3M36 36h3M51 36h7M67 36h2M70 36h1M35 37h3M52 37h6M66 37h3M34 38h4M53 38h5M66 38h2M33 39h4M54 39h4M65 39h2M33 40h3M56 40h5M65 40h2M17 41h1M33 41h2M57 41h4M64 41h2M72 41h3M16 42h2M32 42h3M58 42h5M64 42h2M70 42h5M17 43h3M30 43h4M59 43h6M69 43h6M19 44h5M30 44h4M60 44h5M68 44h7M21 45h5M29 45h5M61 45h3M68 45h7M23 46h9M62 46h2M68 46h7M25 47h6M42 47h1M67 47h8M27 48h3M42 48h1M52 48h1M67 48h8M21 49h6M28 49h2M42 49h1M52 49h3M67 49h8M19 50h9M42 50h1M52 50h2M55 50h1M67 50h8M17 51h10M41 51h1M52 51h1M54 51h4M68 51h6M16 52h11M40 52h2M54 52h1M57 52h2M68 52h6M16 53h10M39 53h3M53 53h2M58 53h2M68 53h6M16 54h10M39 54h3M43 54h1M51 54h1M53 54h2M59 54h2M69 54h5M16 55h9M35 55h1M38 55h3M42 55h3M50 55h2M53 55h2M59 55h3M69 55h5M17 56h8M35 56h6M42 56h4M49 56h3M53 56h2M59 56h4M69 56h4M80 56h1M17 57h8M34 57h7M42 57h5M48 57h4M53 57h2M60 57h3M69 57h4M79 57h2M17 58h8M31 58h10M43 58h8M53 58h3M61 58h3M70 58h3M78 58h3M17 59h7M30 59h11M42 59h1M44 59h6M51 59h1M53 59h3M61 59h3M70 59h3M77 59h3M18 60h6M30 60h11M42 60h2M45 60h4M50 60h2M53 60h4M59 60h6M70 60h2M76 60h4M18 61h6M29 61h13M43 61h2M46 61h2M49 61h3M54 61h11M70 61h2M76 61h4M18 62h6M29 62h13M43 62h3M48 62h5M54 62h11M70 62h2M75 62h4M19 63h5M29 63h3M34 63h9M44 63h9M55 63h11M70 63h2M75 63h4M19 64h5M36 64h4M44 64h10M55 64h11M70 64h1M72 64h1M74 64h1M20 65h4M46 65h7M57 65h4M62 65h5M70 65h1M73 65h1M75 65h6M20 66h4M47 66h4M59 66h2M63 66h2M66 66h1M21 67h3M61 67h2M66 67h1M21 68h3M21 69h3M22 70h2M23 71h1M75 71h2M76 72h3M77 73h3M78 74h3M79 75h2M31 76h4M65 76h5M29 77h8M64 77h7M31 78h2M36 78h2M64 78h7M65 79h2M68 79h2M69 80h1" />
<path stroke="#ffd518" d="M30 13h4M29 14h3M29 15h4M29 16h5M30 17h2M30 18h2M31 19h1M39 19h1M38 20h1M44 50h7M44 51h7M43 52h9M44 53h8M44 54h7M45 55h5M46 56h3M47 57h1" />
<path stroke="#101010" d="M53 15h1M53 16h1M54 17h1M45 18h3M54 18h1M37 19h2M40 19h2M48 19h2M54 19h1M36 20h2M40 20h1M46 20h1M50 20h2M54 20h1M30 21h1M46 21h1M52 21h2M31 22h1M34 22h4M32 23h2M35 23h5M47 23h1M36 24h1M47 24h1M48 25h1M48 26h1M49 27h1M49 28h1M51 30h1M52 31h1M55 33h3M58 34h1M58 35h2M60 36h1M60 37h1M62 37h2M60 38h2M63 38h1M63 39h1M63 40h1M38 43h3M35 44h2M41 44h1M42 45h1M30 48h1M30 49h1M28 50h2M27 51h1M27 52h1M37 52h1M26 53h1M38 53h1M26 54h1M33 54h1M25 55h1M34 55h1M25 56h1M25 57h1M25 58h1M24 59h1M24 60h1M24 61h1M24 62h1M24 63h1M24 64h1M40 64h3M24 65h1M37 65h3M81 65h1M24 66h1M80 66h1M24 67h1M37 67h1M79 67h1M24 68h1M38 68h1M47 68h1M79 68h1M24 69h1M38 69h1M48 69h2M79 69h1M24 70h1M38 70h1M50 70h2M80 70h1M24 71h1M39 71h1M52 71h3M80 71h1M23 72h2M39 72h1M55 72h9M80 72h1M40 73h1M80 73h1M40 74h1M81 74h1M40 75h1M71 75h1M81 75h1M39 76h1M71 76h1M81 76h1M38 77h1M71 77h1M38 78h1M71 78h1M26 79h2M37 79h1M72 79h1M35 80h2M72 80h1M27 81h2M31 81h3M72 81h1M72 82h1M68 83h1M70 83h1M72 83h1M66 84h1M71 84h1M67 85h1" />
<path stroke="#ffffff" d="M38 22h1M40 23h1M41 25h1M35 26h1M40 26h1M38 27h1M34 28h1M38 28h1M70 33h3M70 34h5M70 35h6M59 36h1M71 36h5M58 37h2M73 37h4M59 38h1M62 38h1M74 38h3M30 39h1M61 39h2M76 39h1M30 40h1M62 40h1M13 41h4M30 41h2M12 42h4M27 42h1M30 42h1M11 43h3M27 43h2M11 44h2M27 44h2M10 45h3M27 45h1M10 46h2M10 47h1M36 52h1M55 52h1M36 53h2M55 53h2M32 54h1M36 54h2M55 54h2M32 55h2M36 55h1M55 55h2M32 56h2M57 56h1M32 57h1M57 57h2M57 58h2M57 59h1M28 77h1M26 78h2M29 78h1M34 78h1M28 79h3M33 79h2M64 79h1M71 79h1M27 80h1M32 80h1M64 80h1M67 80h1M70 80h2M63 81h2M67 81h2M70 81h2M63 82h1M67 82h1M71 82h1M63 83h1M67 83h1M67 84h1" />
<path stroke="#6a395a" d="M37 24h5M37 25h1M36 26h1M39 27h1M35 28h1M35 29h2" />
<path stroke="#737b83" d="M35 25h1M34 26h1M34 27h1M33 28h1M33 29h1M71 32h2M73 33h2M75 34h1M76 35h1M76 36h1M77 37h1M29 38h2M77 38h1M29 39h1M31 39h1M78 39h1M14 40h3M29 40h1M78 40h1M12 41h1M26 41h2M29 41h1M78 41h1M11 42h1M26 42h1M29 42h1M78 42h1M10 43h1M26 43h1M10 44h1M9 45h1M9 46h1M9 47h1M10 49h1M35 51h2M35 52h1M31 53h2M35 53h1M31 54h1M35 54h1M31 55h1M31 56h1M26 77h1M25 78h1M28 78h1M32 79h1M63 79h1M26 80h1M30 80h2M63 80h1M66 80h1M62 81h1M66 81h1M62 82h1M66 82h1M70 82h1M62 83h1M66 83h1M62 84h1" />
<path stroke="#c5cdd5" d="M36 25h1M40 27h1M39 28h1M72 37h1M58 38h1M73 38h1M58 39h2M74 39h2M77 39h1M31 40h1M61 40h1M75 40h3M32 41h1M61 41h2M76 41h2M31 42h1M77 42h1M14 43h3M13 44h2M29 44h1M13 45h1M28 45h1M12 46h1M11 47h1M10 48h1M38 54h1M57 54h1M37 55h1M34 56h1M55 56h1M33 57h1M59 58h1M58 59h1M27 77h1M30 78h1M31 79h1M35 79h1M67 79h1M70 79h1M28 80h2M33 80h2M65 80h1M68 80h1M65 81h1M64 82h1M68 82h1M71 83h1" />
<path stroke="#bd737b" d="M38 25h3M37 26h3M36 27h2M36 28h2" />
<path stroke="#e64a31" d="M42 25h1M42 26h2M41 27h2M40 28h2M38 29h3M35 30h4M46 31h1M46 32h1M45 33h3M45 34h4M46 35h4M39 36h1M46 36h5M38 37h3M45 37h7M38 38h15M37 39h17M36 40h14M53 40h3M35 41h3M39 41h11M55 41h2M35 42h2M40 42h11M34 43h2M41 43h10M34 44h1M42 44h9M43 45h8M43 46h8M44 47h8M44 48h8M44 49h1M50 49h2" />
<path stroke="#5a1000" d="M41 26h1M35 27h1M43 28h1M34 29h1M37 29h1M43 29h1M34 30h1M41 30h2M35 31h6M38 32h1M38 33h1M39 34h1M39 35h1M40 36h1M45 36h1M41 37h1M44 37h1M50 40h2M38 41h1M52 41h3M39 42h1M55 42h3M37 43h1M34 45h1M42 46h1" />
<path stroke="#bd3941" d="M43 27h2M42 28h1M44 28h1M41 29h2M44 29h2M39 30h2M43 30h3M41 31h5M39 32h7M39 33h6M40 34h5M40 35h6M41 36h4M42 37h2M52 40h1M50 41h2M37 42h2M51 42h1M36 43h1M51 43h1M51 44h1M51 45h1M51 46h1" />
</svg>