<svg xmlns="http://www.w3.org/2000/svg" viewBox="0 -0.5 96 96" shape-rendering="crispEdges">
<metadata>Made with Pixels to Svg https://codepen.io/shshaw/pen/XbxvNj</metadata>
<path stroke="#101010" d="M37 17h2M36 18h1M39 18h1M34 19h1M39 19h1M51 19h1M61 19h2M33 20h1M39 20h1M51 20h1M60 20h1M63 20h1M25 21h1M32 21h1M40 21h1M51 21h1M59 21h1M63 21h1M31 22h1M40 22h1M51 22h1M58 22h1M64 22h1M26 23h1M30 23h1M41 23h1M51 23h1M57 23h1M64 23h1M27 24h1M29 24h1M39 24h2M56 24h1M65 24h1M72 24h3M20 25h1M29 25h1M38 25h1M54 25h1M56 25h1M65 25h1M70 25h2M74 25h1M15 26h3M20 26h1M28 26h1M55 26h1M66 26h1M69 26h1M74 26h1M15 27h1M18 27h2M28 27h1M55 27h1M66 27h1M68 27h1M74 27h1M15 28h1M20 28h2M27 28h1M54 28h1M67 28h1M74 28h1M15 29h1M22 29h1M27 29h1M54 29h1M66 29h1M74 29h1M15 30h1M23 30h1M27 30h1M32 30h1M54 30h1M65 30h1M74 30h1M80 30h4M15 31h1M24 31h1M27 31h1M37 31h7M54 31h1M64 31h1M74 31h1M77 31h3M83 31h1M16 32h1M25 32h1M27 32h1M33 32h2M36 32h1M44 32h1M47 32h2M54 32h1M64 32h1M73 32h1M75 32h2M83 32h1M16 33h1M25 33h1M27 33h1M32 33h4M46 33h1M49 33h2M54 33h1M63 33h1M73 33h2M83 33h1M10 34h1M14 34h3M25 34h1M27 34h1M31 34h2M45 34h1M52 34h3M63 34h1M73 34h1M82 34h1M10 35h1M17 35h2M26 35h1M28 35h3M51 35h1M54 35h3M63 35h1M73 35h1M82 35h1M10 36h1M19 36h1M26 36h1M28 36h1M36 36h1M38 36h2M43 36h1M51 36h1M57 36h3M63 36h1M72 36h1M82 36h1M10 37h1M20 37h1M26 37h2M29 37h1M35 37h1M37 37h2M40 37h1M44 37h1M50 37h2M60 37h1M64 37h1M72 37h1M83 37h4M11 38h1M21 38h1M26 38h1M34 38h1M38 38h1M42 38h1M46 38h3M52 38h1M64 38h1M71 38h1M81 38h2M86 38h1M11 39h1M21 39h1M25 39h2M29 39h1M33 39h1M35 39h1M52 39h1M57 39h1M65 39h1M69 39h2M79 39h2M86 39h1M11 40h1M25 40h1M29 40h1M31 40h2M36 40h1M53 40h1M58 40h1M66 40h3M71 40h1M77 40h2M86 40h1M12 41h1M22 41h3M29 41h2M37 41h2M54 41h2M58 41h1M64 41h1M71 41h1M76 41h1M86 41h1M12 42h1M14 42h4M22 42h1M39 42h3M51 42h3M56 42h3M62 42h2M72 42h1M75 42h1M85 42h1M18 43h2M22 43h1M42 43h8M57 43h5M74 43h1M85 43h1M20 44h1M22 44h1M43 44h1M72 44h2M77 44h4M85 44h1M21 45h1M43 45h1M75 45h2M81 45h2M84 45h1M8 46h3M21 46h1M34 46h1M44 46h1M57 46h1M83 46h2M22 47h1M35 47h1M45 47h2M55 47h2M84 47h1M22 48h1M44 48h1M47 48h8M69 48h5M84 48h1M22 49h1M35 49h1M39 49h1M44 49h1M62 49h3M74 49h1M85 49h1M10 50h1M21 50h1M36 50h2M39 50h1M44 50h1M65 50h2M73 50h1M85 50h1M10 51h1M21 51h1M29 51h1M38 51h1M45 51h1M61 51h1M67 51h1M73 51h1M85 51h1M11 52h1M20 52h1M29 52h1M38 52h1M45 52h1M60 52h1M62 52h1M68 52h1M74 52h1M84 52h1M12 53h2M18 53h3M28 53h1M42 53h1M44 53h1M46 53h1M59 53h1M63 53h1M69 53h1M74 53h1M84 53h1M14 54h4M28 54h1M37 54h1M42 54h1M44 54h1M47 54h2M57 54h2M63 54h1M75 54h1M83 54h1M24 55h1M28 55h1M36 55h1M44 55h1M49 55h8M63 55h1M76 55h1M81 55h2M20 56h1M24 56h1M29 56h1M35 56h1M44 56h1M63 56h1M76 56h1M80 56h1M20 57h1M24 57h1M29 57h1M35 57h1M43 57h1M45 57h1M62 57h1M76 57h1M80 57h1M19 58h1M25 58h1M30 58h2M34 58h1M43 58h1M45 58h1M62 58h1M76 58h1M80 58h1M19 59h1M26 59h4M32 59h3M43 59h1M46 59h1M61 59h1M75 59h1M79 59h1M17 60h2M34 60h1M41 60h1M43 60h1M47 60h1M59 60h2M75 60h1M78 60h1M35 61h1M40 61h1M43 61h1M48 61h2M57 61h2M65 61h1M73 61h1M75 61h3M36 62h1M39 62h1M44 62h1M50 62h7M64 62h1M66 62h1M74 62h1M82 62h1M37 63h2M44 63h1M64 63h1M66 63h1M75 63h1M83 63h1M36 64h1M44 64h2M63 64h1M65 64h1M75 64h1M44 65h1M46 65h1M62 65h1M65 65h1M76 65h1M45 66h1M47 66h1M60 66h2M65 66h1M77 66h1M45 67h1M48 67h3M57 67h3M66 67h1M77 67h1M85 67h1M33 68h1M46 68h1M51 68h6M66 68h1M78 68h1M86 68h1M33 69h1M39 69h1M44 69h2M47 69h1M67 69h1M69 69h1M78 69h1M86 69h1M33 70h1M40 70h4M48 70h2M66 70h4M78 70h2M86 70h1M38 71h3M50 71h3M62 71h4M70 71h1M78 71h1M80 71h1M87 71h1M37 72h1M53 72h9M71 72h1M77 72h2M81 72h2M87 72h1M36 73h1M72 73h1M77 73h1M83 73h1M86 73h1M33 74h1M35 74h1M73 74h1M77 74h1M84 74h1M86 74h1M33 75h1M35 75h1M73 75h1M77 75h1M84 75h2M34 76h1M74 76h1M76 76h1M74 77h1M76 77h1M75 78h1" />
<path stroke="#4a3162" d="M35 18h1M38 18h1M37 19h2M50 19h1M23 20h2M37 20h2M49 20h1M62 20h1M22 21h1M36 21h4M48 21h1M61 21h2M22 22h1M26 22h1M35 22h5M44 22h6M62 22h2M21 23h1M33 23h4M38 23h3M42 23h2M61 23h3M21 24h1M30 24h1M33 24h3M38 24h1M57 24h1M61 24h4M33 25h2M59 25h6M32 26h3M60 26h6M17 27h1M31 27h3M60 27h6M16 28h1M19 28h1M28 28h1M30 28h4M55 28h1M59 28h8M16 29h1M21 29h1M28 29h1M30 29h3M50 29h1M59 29h7M17 30h1M28 30h4M59 30h6M17 31h1M23 31h1M28 31h4M57 31h7M80 31h1M82 31h1M18 32h1M23 32h2M28 32h4M55 32h1M57 32h7M77 32h1M81 32h2M10 33h4M18 33h1M23 33h2M28 33h4M55 33h8M75 33h1M80 33h3M19 34h1M22 34h3M28 34h3M55 34h8M79 34h3M20 35h1M22 35h4M57 35h6M74 35h1M78 35h4M20 36h6M60 36h3M73 36h3M77 36h5M21 37h5M61 37h3M73 37h9M22 38h4M59 38h5M72 38h9M22 39h3M58 39h7M71 39h8M22 40h3M59 40h7M72 40h5M59 41h5M72 41h4M59 42h3M73 42h2M17 43h1M18 44h2M59 44h1M18 45h1M20 45h1M58 45h2M18 46h1M20 46h1M60 46h1M77 46h1M82 46h1M10 47h2M14 47h1M17 47h2M21 47h1M60 47h1M78 47h1M82 47h2M12 48h2M17 48h3M21 48h1M46 48h1M55 48h1M61 48h1M78 48h1M16 49h4M21 49h1M32 49h3M46 49h9M61 49h1M73 49h1M77 49h1M13 50h8M30 50h2M45 50h11M61 50h1M67 50h3M74 50h4M11 51h10M37 51h1M46 51h10M60 51h1M71 51h1M74 51h3M81 51h1M84 51h1M12 52h8M37 52h1M40 52h2M46 52h11M59 52h1M72 52h1M75 52h9M14 53h4M37 53h3M47 53h12M73 53h1M75 53h9M36 54h1M49 54h8M76 54h7M35 55h1M70 55h1M77 55h4M33 56h2M43 56h1M64 56h1M30 57h5M42 57h1M44 57h1M64 57h1M71 57h1M32 58h2M42 58h1M65 58h1M71 58h1M41 59h2M45 59h1M65 59h1M69 59h4M80 59h1M44 60h3M65 60h1M68 60h1M72 60h3M79 60h2M44 61h4M59 61h2M67 61h1M74 61h1M80 61h2M45 62h5M57 62h5M45 63h19M37 64h1M46 64h17M74 64h1M84 64h1M37 65h1M47 65h15M80 65h1M84 65h1M37 66h1M48 66h12M71 66h1M79 66h1M85 66h1M34 67h1M38 67h1M51 67h6M70 67h1M78 67h1M38 68h1M69 68h1M34 71h1M47 71h3M85 71h1M35 72h2M45 72h2M84 72h1M75 73h2M74 74h1" />
<path stroke="#7b417b" d="M37 18h1M35 19h2M34 20h2M61 20h1M33 21h2M60 21h1M32 22h2M59 22h2M31 23h2M58 23h2M31 24h1M58 24h2M30 25h2M36 25h2M43 25h2M57 25h2M73 25h1M29 26h2M38 26h1M45 26h1M56 26h3M72 26h1M16 27h1M29 27h2M39 27h1M56 27h3M71 27h1M17 28h2M29 28h1M36 28h1M43 28h1M56 28h2M71 28h1M17 29h4M29 29h1M55 29h3M70 29h1M16 30h1M18 30h5M55 30h3M70 30h1M16 31h1M18 31h5M55 31h2M69 31h1M81 31h1M17 32h1M19 32h4M56 32h1M69 32h1M78 32h2M17 33h1M19 33h4M68 33h1M76 33h3M17 34h2M20 34h2M68 34h1M74 34h4M19 35h1M21 35h1M75 35h2M85 38h1M84 40h1M83 41h1M82 42h1M14 43h3M15 44h3M15 45h3M77 45h4M15 46h3M58 46h2M78 46h4M15 47h2M57 47h3M79 47h3M10 48h2M14 48h3M45 48h1M56 48h5M79 48h3M10 49h6M45 49h1M55 49h6M78 49h3M11 50h2M32 50h4M56 50h5M78 50h3M30 51h2M34 51h3M56 51h4M68 51h3M77 51h4M30 52h1M33 52h4M57 52h2M69 52h3M29 53h1M33 53h4M70 53h3M29 54h1M31 54h5M70 54h4M29 55h6M71 55h4M30 56h3M71 56h4M63 57h1M72 57h4M44 58h1M63 58h2M72 58h4M44 59h1M62 59h3M73 59h2M61 60h4M61 61h4M62 62h2M75 62h1" />
<path stroke="#391839" d="M36 20h1M35 21h1M34 22h1M61 22h1M60 23h1M32 24h1M60 24h1M32 25h1M31 26h1M36 26h1M43 26h1M59 26h1M36 27h1M43 27h1M46 27h1M59 27h1M58 28h1M58 29h1M58 30h1M37 32h7M80 32h1M36 33h9M47 33h2M79 33h1M36 34h5M48 34h4M78 34h1M36 35h3M50 35h1M77 35h1M35 36h1M76 36h1M12 43h2M50 43h1M14 44h1M9 47h1M9 48h1M9 49h1M43 54h1M43 55h1M42 56h1M41 57h1M41 58h1M40 59h1M40 60h1" />
<path stroke="#de94cd" d="M50 20h1M44 23h2M42 24h5M40 25h3M45 25h2M37 26h1M40 26h3M44 26h1M40 27h3" />
<path stroke="#8b5a9c" d="M23 21h1M23 22h1M25 22h1M23 23h1M50 23h1M23 24h1M22 25h1M22 26h1M54 26h1M70 26h1M73 26h1M20 27h1M22 27h1M26 27h2M47 27h1M54 27h1M72 27h2M22 28h1M24 28h3M35 28h1M47 28h1M53 28h1M72 28h2M23 29h4M34 29h1M47 29h1M53 29h1M71 29h3M24 30h3M48 30h1M52 30h1M71 30h3M25 31h2M36 31h1M44 31h1M49 31h3M53 31h1M65 31h1M70 31h4M26 32h1M52 32h2M70 32h3M26 33h1M51 33h3M64 33h1M69 33h4M11 34h1M26 34h1M64 34h2M69 34h4M12 35h1M16 35h1M27 35h1M64 35h9M13 36h1M18 36h1M27 36h1M64 36h8M11 37h1M14 37h1M19 37h1M65 37h7M15 38h1M20 38h1M35 38h1M51 38h1M65 38h6M83 38h1M16 39h1M20 39h1M36 39h1M49 39h3M66 39h3M81 39h1M84 39h2M12 40h1M16 40h1M20 40h2M37 40h2M46 40h7M79 40h1M85 40h1M17 41h1M19 41h3M39 41h15M77 41h1M84 41h2M13 42h1M18 42h4M42 42h9M76 42h1M83 42h2M20 43h2M51 43h2M75 43h3M81 43h4M21 44h1M44 44h9M74 44h3M81 44h4M44 45h10M83 45h1M45 46h10M47 47h8M72 51h1M41 54h1M69 54h1M39 55h4M47 55h2M38 56h4M46 56h11M70 56h1M37 57h4M46 57h12M35 58h6M46 58h12M61 58h1M35 59h5M47 59h14M66 59h1M35 60h5M48 60h11M66 60h2M36 61h4M50 61h7M66 61h1M37 62h2M65 62h1M76 62h1M65 63h1M76 63h2M64 64h1M66 64h2M73 64h1M76 64h3M81 64h2M35 65h1M43 65h1M45 65h1M63 65h2M66 65h4M72 65h1M77 65h3M34 66h1M42 66h3M46 66h1M62 66h3M66 66h5M78 66h1M80 66h2M40 67h5M46 67h2M60 67h6M67 67h3M79 67h6M34 68h1M39 68h7M47 68h4M57 68h9M67 68h2M70 68h2M77 68h1M79 68h7M34 69h5M40 69h4M46 69h1M48 69h19M68 69h1M70 69h4M76 69h2M79 69h7M34 70h6M44 70h4M50 70h16M70 70h8M80 70h6M35 71h3M44 71h3M53 71h9M71 71h7M81 71h4M72 72h5M83 72h1M73 73h2" />
<path stroke="#c57bb4" d="M24 21h1M49 21h2M24 22h1M50 22h1M22 23h1M24 23h2M46 23h4M22 24h1M24 24h3M41 24h1M47 24h4M21 25h1M23 25h6M39 25h1M47 25h2M72 25h1M21 26h1M23 26h5M39 26h1M46 26h2M71 26h1M21 27h1M23 27h3M37 27h2M44 27h2M69 27h2M23 28h1M37 28h6M44 28h3M68 28h3M33 29h1M35 29h12M67 29h3M33 30h15M53 30h1M66 30h4M32 31h4M45 31h4M52 31h1M66 31h3M32 32h1M35 32h1M45 32h2M49 32h3M65 32h4M45 33h1M65 33h3M12 34h2M66 34h2M11 35h1M13 35h3M11 36h2M14 36h4M12 37h2M15 37h4M36 37h1M39 37h1M43 37h1M12 38h3M16 38h4M36 38h2M39 38h3M43 38h2M49 38h2M84 38h1M12 39h4M17 39h3M37 39h12M82 39h2M13 40h3M17 40h3M39 40h7M80 40h4M13 41h4M18 41h1M78 41h5M54 42h2M77 42h5M53 43h4M78 43h3M53 44h6M54 45h4M55 46h2M62 50h3M62 51h5M61 52h1M63 52h5M73 52h1M40 53h2M45 53h1M60 53h3M64 53h5M38 54h3M45 54h2M59 54h4M64 54h5M74 54h1M37 55h2M45 55h2M57 55h6M64 55h6M75 55h1M36 56h2M45 56h1M57 56h6M65 56h5M75 56h1M36 57h1M58 57h4M65 57h6M58 58h3M66 58h5M67 59h2M42 60h1M69 60h3M41 61h2M68 61h5M78 61h2M40 62h4M67 62h7M77 62h5M39 63h5M67 63h8M78 63h5M38 64h6M68 64h5M79 64h2M83 64h1M36 65h1M38 65h5M70 65h2M73 65h3M81 65h3M35 66h2M38 66h4M72 66h5M82 66h3M35 67h3M39 67h1M71 67h6M35 68h3M72 68h5M74 69h2" />
<path stroke="#295a62" d="M53 22h2M52 23h1M54 23h1M51 24h1M54 24h1M49 25h1M48 26h1M30 37h1M30 38h1M10 42h2M9 43h1M8 44h1M8 45h1M34 45h3M71 45h1M37 46h2M70 46h1M39 47h1M69 47h1M35 48h1M39 48h1M24 53h2M20 54h1M24 54h1M26 54h1M15 55h1M20 55h1M27 55h1M15 56h1M16 57h1M16 58h1M16 59h1M16 60h1M32 71h1M42 71h1M32 72h1M42 72h1M32 73h1M43 73h1M45 73h1M44 74h2" />
<path stroke="#108bac" d="M37 23h1M53 23h1M36 24h2M52 24h2M35 25h1M50 25h4M49 26h5M48 27h3M19 45h1M19 46h1M19 47h2M20 48h1M82 48h2M20 49h1M81 49h4M81 50h4M32 51h2M82 51h2M31 52h2M30 53h3M30 54h1" />
<path stroke="#ffffff" d="M35 26h1M34 27h2M51 27h3M34 28h1M48 28h5M48 29h2M51 29h2M49 30h3M32 35h1M29 36h5M54 36h3M31 37h3M53 37h7M31 38h3M53 38h5M31 39h2M53 39h4M30 40h1M54 40h3M56 41h2M10 43h2M10 44h3M9 45h4M72 45h3M35 46h2M71 46h5M36 47h2M70 47h5M25 54h1M25 55h1M25 56h1M17 57h1M17 58h2M78 58h1M17 59h1M77 59h2M76 60h2M34 74h1M34 75h1M75 76h1M75 77h1" />
<path stroke="#d5cde6" d="M33 34h3M31 35h1M33 35h3M52 35h2M34 36h1M52 36h2M34 37h1M52 37h1M58 38h1M30 39h1M57 40h1M9 44h1M13 44h1M13 45h1M11 46h2M76 46h1M75 47h2M37 48h2M74 48h2M26 56h1M18 57h1M25 57h1M77 58h1M79 58h1M18 59h1M76 59h1M33 71h1M33 72h2M33 73h3M75 74h2M74 75h3" />
<path stroke="#83317b" d="M41 34h4M46 34h2M39 35h11M37 36h1M40 36h3M44 36h7M41 37h2M45 37h5M45 38h1" />
<path stroke="#9cacb4" d="M14 45h1M13 46h2M12 47h2M38 47h1M77 47h1M36 48h1M76 48h2M36 49h3M75 49h2M38 50h1M18 54h2M16 55h4M26 55h1M16 56h4M27 56h2M77 56h3M19 57h1M26 57h3M77 57h3M26 58h4M43 71h1M86 71h1M43 72h2M85 72h2M44 73h1M84 73h2M85 74h1" />
</svg>