<svg xmlns="http://www.w3.org/2000/svg" viewBox="0 -0.5 96 96" shape-rendering="crispEdges">
<metadata>Made with Pixels to Svg https://codepen.io/shshaw/pen/XbxvNj</metadata>
<path stroke="#10397b" d="M31 25h4M30 26h1M35 26h1M52 26h6M29 27h1M35 27h1M50 27h2M58 27h1M28 28h1M49 28h1M28 29h1M48 29h1M28 30h1M47 30h1M27 31h1M46 31h1M27 32h1M45 32h1M27 33h1M45 33h1M27 34h1M44 34h1M27 35h1M44 35h1M38 41h3M42 41h1M47 41h2M36 42h2M42 42h1M45 42h1M49 42h2M32 43h2M35 43h1M42 43h3M51 43h2M31 44h3M42 44h3M53 44h2M32 45h3M42 45h2M55 45h1M34 46h2M56 46h2M58 47h2M31 48h2M60 48h1M30 49h1M28 50h2M27 51h1M25 52h2M24 53h1M23 54h1M22 55h1M67 55h2M21 56h1M67 56h5M74 56h1M68 57h6M22 58h1M68 58h7M22 59h2M68 59h7M23 60h2M68 60h5M24 61h2M67 61h4M26 62h2M65 62h3M64 63h1" />
<path stroke="#1052ac" d="M31 26h4M33 27h2M52 27h6M29 28h1M33 28h2M50 28h1M54 28h5M29 29h1M32 29h3M49 29h1M54 29h5M29 30h6M48 30h2M53 30h6M28 31h7M47 31h12M28 32h6M46 32h11M28 33h6M46 33h9M28 34h6M45 34h8M28 35h5M45 35h6M29 36h4M44 36h6M29 37h4M44 37h5M29 38h4M43 38h5M29 39h4M43 39h4M30 40h3M43 40h4M30 41h3M43 41h3M30 42h3M38 42h3M43 42h2M47 42h2M31 43h1M36 43h1M40 43h1M46 43h5M35 44h1M40 44h1M46 44h7M40 45h2M45 45h10M39 46h17M33 47h25M33 48h13M51 48h9M33 49h10M53 49h10M30 50h1M35 50h7M54 50h11M28 51h2M37 51h2M55 51h12M27 52h3M60 52h9M25 53h5M63 53h8M24 54h5M66 54h7M23 55h4M69 55h5M22 56h4M72 56h2M22 57h3M74 57h1M23 58h1" />
<path stroke="#3973c5" d="M30 27h1M32 27h1M51 28h1M30 29h1M50 29h1M53 29h1M52 30h1M39 43h1M36 46h1" />
<path stroke="#629cd5" d="M31 27h1M30 28h3M52 28h2M31 29h1M51 29h2M50 30h2M37 43h2M36 44h4M36 45h4M37 46h2M46 48h1M50 48h1M32 49h1M43 49h1M52 49h1M34 50h1M39 51h1M59 52h1M62 53h1M29 54h1M65 54h1M27 55h1M25 57h1M67 57h1M24 58h1M24 59h1M67 60h1M28 62h1M29 63h1M63 63h1M32 64h1" />
<path stroke="#102952" d="M35 28h1M59 28h1M59 29h1M34 32h1M34 33h1M34 34h1M33 35h1M51 35h2M28 36h1M43 36h1M28 37h1M43 37h1M28 38h1M42 38h1M28 39h1M33 39h1M42 39h1M29 40h1M33 40h1M42 40h1M29 41h1M41 41h1M41 42h1M30 43h1M34 43h1M41 43h1M45 43h1M41 44h1M45 44h1M44 45h1M33 46h1M61 48h2M63 49h2M65 50h2M67 51h2M69 52h1M71 53h1M73 54h1M21 57h1M21 58h1M21 59h1M22 60h1M23 61h1M24 62h2M33 62h1M26 63h3M34 63h1M29 64h3M35 64h1M32 65h4M37 66h1M38 67h1M39 68h2M41 69h1" />
<path stroke="#000000" d="M35 29h1M35 30h1M59 30h1M35 31h1M59 31h1M57 32h2M55 33h2M53 34h2M33 36h1M50 36h1M33 37h1M49 37h1M33 38h1M48 38h1M47 39h1M47 40h1M33 41h1M46 41h1M29 42h1M33 42h1M46 42h1M30 44h1M34 44h1M31 45h1M35 45h1M32 46h1M32 47h1M31 49h1M31 50h1M30 51h1M32 51h1M44 51h3M30 52h3M43 52h5M70 52h1M30 53h2M33 53h1M43 53h2M47 53h2M72 53h1M30 54h2M33 54h1M43 54h2M47 54h2M30 55h4M44 55h5M74 55h1M31 56h2M36 56h1M45 56h3M75 56h1M31 57h1M36 57h2M75 57h1M75 58h1M75 59h1M73 60h2M71 61h2M52 62h2M68 62h3M52 63h1M65 63h3M49 64h2M60 64h5M36 65h1M58 65h2M62 65h1M61 66h1M60 67h1M58 68h2M42 69h1M56 69h2M43 70h2M53 70h3M45 71h8" />
<path stroke="#9cb4de" d="M47 48h1M44 49h1M53 50h1M40 51h1M54 51h1M57 54h1M59 54h1M61 54h1M63 54h2M56 55h1M58 55h1M60 55h1M62 55h1M64 55h3M30 56h1M55 56h3M59 56h1M61 56h1M63 56h4M28 57h3M55 57h12M26 58h5M55 58h13M25 59h7M55 59h13M25 60h7M54 60h13M26 61h7M54 61h13M29 62h4M54 62h11M30 63h4M53 63h10M33 64h2M52 64h8M37 65h1M48 65h10M38 66h2M46 66h12M40 67h17M42 68h13M43 69h9" />
<path stroke="#b4deff" d="M48 48h2M45 49h7M32 50h2M42 50h11M34 51h3M41 51h3M48 51h6M34 52h9M49 52h10M34 53h9M49 53h13M34 54h9M49 54h8M58 54h1M60 54h1M62 54h1M28 55h2M35 55h5M41 55h2M49 55h7M57 55h1M59 55h1M61 55h1M63 55h1M26 56h4M34 56h1M37 56h2M41 56h3M49 56h6M58 56h1M60 56h1M62 56h1M26 57h2M32 57h1M34 57h2M40 57h5M46 57h3M50 57h5M25 58h1M32 58h13M46 58h9M33 59h22M33 60h21M34 61h19M34 62h18M35 63h16M36 64h13M38 65h10M40 66h6" />
<path stroke="#7b94a4" d="M31 51h1M33 51h1M47 51h1M33 52h1M48 52h1M43 55h1M39 56h2M44 56h1M39 57h1M60 65h2M58 66h3M39 67h1M57 67h3M41 68h1M55 68h3M52 69h4M45 70h8" />
<path stroke="#ffffff" d="M32 53h1M45 53h2M32 54h1M45 54h2" />
<path stroke="#4a6273" d="M34 55h1M40 55h1M33 56h1M35 56h1M48 56h1M33 57h1M38 57h1M45 57h1M49 57h1M31 58h1M45 58h1M32 59h1M32 60h1M33 61h1M53 61h1M51 63h1M51 64h1" />
</svg>