<svg xmlns="http://www.w3.org/2000/svg" viewBox="0 -0.5 96 96" shape-rendering="crispEdges">
<metadata>Made with Pixels to Svg https://codepen.io/shshaw/pen/XbxvNj</metadata>
<path stroke="#944162" d="M43 15h5M48 16h1M39 18h1M38 19h1M47 19h2M47 20h1M39 22h1M49 22h1M41 25h1M40 26h1M39 27h1M38 28h1M37 29h1M37 30h1M36 31h1M36 32h1M41 32h5M57 40h1M45 42h2M51 42h2M18 46h1M63 46h2M57 48h1M23 51h1M24 52h2M53 55h3M24 57h1M24 58h1M24 59h1M24 60h1M24 61h1M24 62h1M24 64h2M69 64h1M77 64h1M68 65h4M76 65h2M68 66h6M75 66h2M67 67h7M67 68h6M66 69h7M29 70h1M65 70h2M68 70h1M70 70h2M30 71h2M62 71h1M64 71h2M67 71h1M69 71h2M32 72h1M34 72h1M63 72h2M66 72h1M68 72h1M31 73h1M34 73h1M37 73h1M62 73h4M67 73h1M37 74h1M62 74h3M49 75h2" />
<path stroke="#bd5273" d="M41 16h2M40 17h1M49 19h1M50 20h1M47 21h2M42 25h1M56 26h1M40 28h1M38 29h1M41 29h1M52 29h1M59 29h1M51 30h1M46 32h1M56 33h1M52 34h1M55 34h1M52 35h1M55 35h1M54 36h1M60 36h1M54 37h1M59 37h1M57 38h3M54 39h5M46 40h11M45 41h14M53 42h7M54 43h6M53 44h6M47 45h1M52 45h1M54 45h3M46 46h1M55 47h1M57 47h2M25 48h1M23 49h5M58 49h1M21 50h6M24 51h3M53 54h1M56 55h1M67 61h1M71 61h4M67 62h1M69 62h8M66 63h2M69 63h9M65 64h3M70 64h5M76 64h1M26 65h1M64 65h3M72 65h3M26 66h2M62 66h5M27 67h3M60 67h6M27 68h5M57 68h9M28 69h3M33 69h4M55 69h10M30 70h1M36 70h5M50 70h14M67 70h1M69 70h1M48 71h14M66 71h1M68 71h1M31 72h1M46 72h15M65 72h1M67 72h1M69 72h1M32 73h2M38 73h23M66 73h1M32 74h5M45 74h16M33 75h8M51 75h4M59 75h1M34 76h6M50 76h4M36 77h2M51 77h2M54 79h1" />
<path stroke="#ffa4b4" d="M43 16h2M41 17h5M40 18h5M41 19h2M43 25h2M42 26h4M43 27h2M32 48h1M31 50h1M34 50h1M33 51h1M35 51h1M42 51h1M40 52h1M47 52h1M38 53h1M47 53h1M44 54h1M47 54h1M47 55h1M30 56h1M46 56h2M34 58h1M29 62h1M31 66h1M33 67h1M40 67h1" />
<path stroke="#e67394" d="M45 16h3M46 17h4M45 18h6M39 19h2M43 19h4M50 19h1M39 20h8M48 20h2M51 20h1M39 21h8M49 21h3M40 22h8M50 22h1M40 23h10M41 24h12M45 25h10M41 26h1M46 26h10M40 27h3M45 27h13M39 28h1M41 28h18M42 29h10M53 29h6M38 30h1M41 30h10M54 30h6M37 31h15M54 31h7M37 32h2M47 32h14M50 33h6M57 33h4M53 34h2M56 34h5M51 35h1M56 35h5M50 36h4M55 36h5M49 37h5M55 37h4M48 38h9M47 39h7M60 43h1M59 44h3M48 45h4M57 45h6M22 46h1M47 46h7M56 46h7M18 47h6M46 47h9M59 47h5M18 48h7M31 48h1M46 48h11M58 48h7M19 49h4M29 49h3M47 49h11M59 49h6M28 50h3M47 50h19M28 51h3M34 51h1M48 51h18M27 52h4M32 52h4M41 52h2M49 52h18M27 53h10M39 53h5M48 53h1M51 53h16M26 54h18M48 54h3M54 54h13M26 55h19M48 55h5M57 55h10M26 56h4M32 56h14M48 56h20M25 57h5M33 57h7M42 57h26M25 58h5M35 58h3M43 58h25M25 59h6M43 59h25M25 60h7M42 60h26M25 61h9M39 61h28M25 62h4M31 62h36M25 63h4M32 63h10M44 63h22M26 64h3M34 64h5M45 64h20M27 65h3M45 65h19M28 66h3M44 66h18M30 67h3M41 67h19M32 68h25M37 69h6M47 69h8M48 70h2M55 75h4M54 76h6M53 77h7M53 78h2M58 78h1" />
<path stroke="#101010" d="M49 16h1M50 17h1M51 18h1M51 19h1M38 20h1M38 21h1M48 22h1M39 23h1M50 23h3M40 24h1M53 24h2M55 25h2M57 26h1M58 27h1M59 28h1M39 29h1M60 29h1M39 30h2M53 30h1M60 30h1M52 31h2M61 31h1M39 32h2M61 32h1M35 33h3M61 33h1M32 34h2M61 34h1M30 35h1M50 35h1M61 35h1M49 36h1M61 36h1M48 37h1M60 37h1M47 38h1M60 38h1M46 39h1M59 39h1M45 40h1M58 40h1M44 41h1M43 42h1M22 43h1M41 43h1M22 44h1M39 44h2M47 44h3M22 45h1M37 45h2M46 45h1M53 45h1M23 46h1M34 46h3M45 46h1M54 46h2M24 47h1M31 47h3M45 47h1M56 47h1M26 48h5M45 48h1M46 49h1M46 50h1M27 51h1M47 51h1M26 52h1M26 53h1M25 54h1M25 55h1M68 56h1M68 57h1M68 58h1M68 59h1M68 60h1M68 61h1M68 62h1M68 63h1M68 64h1M67 65h1M67 66h1M77 66h1M74 67h3M26 68h1M66 68h1M73 68h1M27 69h1M73 69h1M28 70h1M64 70h1M72 70h1M29 71h1M63 71h1M71 71h1M30 72h1M70 72h1M30 73h1M61 73h1M69 73h1M31 74h1M40 74h4M61 74h1M66 74h2M32 75h1M41 75h1M45 75h4M40 76h1M49 76h1M60 76h1M38 77h1M50 77h1M60 77h1M32 78h5M51 78h1M59 78h1M52 79h2M59 79h1M54 80h5" />
<path stroke="#622939" d="M52 20h1M52 21h1M51 22h1M47 33h3M50 34h2M53 35h2M59 41h1M47 42h4M60 42h1M61 43h1M62 44h1M63 45h1M17 47h1M64 47h1M17 48h1M65 48h1M18 49h1M28 49h1M65 49h1M19 50h2M27 50h1M66 50h1M21 51h2M66 51h1M48 52h1M67 52h1M49 53h2M67 53h1M51 54h2M67 54h1M67 55h1M25 56h1M71 60h4M69 61h2M75 61h2M77 62h1M24 63h1M78 63h1M75 64h1M78 64h1M25 65h1M75 65h1M78 65h1M25 66h1M74 66h1M26 67h1M66 67h1M65 69h1M33 72h1M61 72h2M35 73h2M68 73h1M38 74h2M44 74h1M65 74h1M44 75h1M60 75h5M39 77h1M37 78h1M52 78h1" />
<path stroke="#ffffff" d="M40 29h1M52 30h1M51 44h1M21 45h1M20 46h1M37 46h4M34 47h10M33 48h12M32 49h14M32 50h2M35 50h11M31 51h2M36 51h6M43 51h4M31 52h1M36 52h4M43 52h4M37 53h1M44 53h3M45 54h2M45 55h2M56 78h2M55 79h4" />
<path stroke="#943941" d="M38 33h1M34 34h1M31 35h1M28 36h2M26 37h2M25 38h1M24 39h1M23 40h1M23 41h1M22 42h1M25 47h1" />
<path stroke="#f67b5a" d="M39 33h2M43 33h3M35 34h4M41 34h9M32 35h5M39 35h10M30 36h5M37 36h12M28 37h5M35 37h13M26 38h6M33 38h14M25 39h6M32 39h14M27 40h18M24 41h1M27 41h17M24 42h18M25 43h15M26 44h13M29 45h7" />
<path stroke="#c55a5a" d="M41 33h2M46 33h1M39 34h2M37 35h2M49 35h1M35 36h2M33 37h2M32 38h1M31 39h1M24 40h1M23 42h1M42 42h1M23 43h2M40 43h1M23 44h3M23 45h6M36 45h1M24 46h10M26 47h5" />
<path stroke="#ffb48b" d="M25 40h2M25 41h2" />
<path stroke="#d5cdde" d="M44 42h1M42 43h8M52 43h2M41 44h6M50 44h1M20 45h1M39 45h7M41 46h4M44 47h1M33 76h1M32 77h4" />
<path stroke="#8b8bac" d="M50 43h2M20 44h2M52 44h1M19 45h1M19 46h1M21 46h1M32 76h1M31 77h1M55 78h1" />
<path stroke="#ffe67b" d="M31 56h1M30 57h3M40 57h2M30 58h4M38 58h5M31 59h12M32 60h10M34 61h5M30 62h1M29 63h3M42 63h2M29 64h5M39 64h6M30 65h15M32 66h12M34 67h6M43 69h4M41 70h7" />
<path stroke="#cdac4a" d="M31 69h2M31 70h5M32 71h16M35 72h11" />
</svg>