<svg xmlns="http://www.w3.org/2000/svg" viewBox="0 -0.5 96 96" shape-rendering="crispEdges">
<metadata>Made with Pixels to Svg https://codepen.io/shshaw/pen/XbxvNj</metadata>
<path stroke="#839cb4" d="M44 26h3M41 27h3M38 28h3M11 29h3M14 30h4M79 30h7M18 31h2M73 31h6M85 31h1M67 32h6M62 33h5M28 34h1M58 34h4M54 35h4M33 36h2M30 39h1M67 39h1M42 40h1M67 40h1M40 41h1M31 42h1M21 43h1M21 44h1M25 44h1M29 44h1M69 44h1M65 46h1M65 47h1M44 48h1M47 50h1M49 52h2M55 53h3M65 53h1M31 54h1M60 54h1M60 55h1M63 56h2M38 57h1M60 57h2M49 58h1M38 59h1M49 65h1M52 65h1M50 67h1" />
<path stroke="#733129" d="M32 27h2M30 28h2M33 28h1M29 29h1M33 29h1M28 30h1M33 30h1M27 31h1M26 32h1M26 33h1M25 34h1M24 36h1" />
<path stroke="#eeeeff" d="M44 27h2M41 28h4M38 29h7M12 30h2M36 30h8M14 31h4M34 31h10M79 31h6M16 32h4M32 32h10M73 32h9M18 33h4M30 33h9M67 33h12M19 34h4M29 34h8M39 34h2M62 34h13M20 35h5M27 35h8M37 35h3M48 35h2M58 35h13M22 36h2M26 36h7M35 36h13M54 36h15M23 37h1M25 37h22M51 37h16M25 38h20M48 38h17M24 39h6M32 39h11M45 39h17M23 40h8M32 40h9M43 40h16M23 41h7M32 41h8M42 41h15M23 42h7M32 42h22M23 43h29M24 44h1M27 44h2M30 44h20M24 45h2M29 45h19M24 46h22M25 47h20M26 48h18M26 49h17M27 50h14M29 51h3M33 51h6M33 52h3M53 56h1M55 56h1M57 56h1M52 57h1M54 57h1M56 57h1M51 58h1M53 58h1M55 58h1M57 58h1M50 59h1M52 59h1M54 59h1M56 59h1M51 60h1M53 60h1M47 65h1M50 65h1M48 66h1M50 66h2M51 67h1" />
<path stroke="#4a5a73" d="M46 27h1M46 28h1M36 29h2M45 29h1M45 30h1M44 31h1M86 31h1M20 32h2M86 32h1M22 33h2M24 34h1M14 35h1M35 35h2M51 36h3M48 37h3M71 37h1M18 38h1M45 38h3M74 38h2M19 39h1M43 39h2M19 40h1M66 40h1M20 41h1M65 41h1M17 42h1M20 42h1M64 42h1M18 43h1M63 43h1M19 44h1M22 44h1M63 44h1M20 45h2M26 45h3M62 45h1M68 45h1M22 46h1M62 46h1M66 46h2M23 47h1M63 47h2M68 48h1M45 49h1M26 50h1M46 50h1M47 51h2M58 52h1M65 52h5M60 53h1M63 53h2M70 53h1M61 54h2M69 54h1M67 55h2M65 56h2M33 57h1M66 57h1M62 58h4M60 59h1M63 59h1M61 60h2M53 62h1M45 63h1M48 63h1M46 64h1M48 64h1M46 65h1M48 65h1M49 66h1M49 67h1" />
<path stroke="#cd4a31" d="M32 28h1M30 29h3M29 30h4M28 31h4M27 32h3M27 33h2M26 34h1M40 53h2M40 54h2M39 55h4M43 60h1M43 61h2" />
<path stroke="#bdc5de" d="M45 28h1M11 30h1M44 30h1M11 31h3M12 32h4M82 32h4M12 33h6M79 33h6M13 34h6M23 34h1M75 34h9M15 35h5M71 35h11M17 36h5M69 36h11M16 37h1M18 37h5M67 37h4M75 37h3M16 38h2M19 38h4M65 38h4M71 38h3M16 39h3M20 39h3M62 39h5M69 39h6M17 40h2M20 40h2M41 40h1M59 40h7M68 40h7M17 41h3M21 41h1M41 41h1M57 41h8M66 41h9M18 42h2M21 42h1M54 42h10M65 42h9M19 43h2M52 43h11M64 43h10M20 44h1M26 44h1M50 44h13M64 44h5M70 44h3M22 45h1M48 45h14M63 45h5M69 45h3M46 46h16M63 46h2M68 46h3M45 47h18M66 47h4M25 48h1M45 48h23M43 49h2M46 49h21M41 50h5M48 50h17M27 51h2M39 51h8M49 51h13M28 52h3M36 52h4M41 52h8M51 52h7M29 53h1M33 53h7M42 53h13M58 53h2M66 53h4M30 54h1M33 54h6M43 54h17M63 54h6M31 55h8M43 55h17M61 55h6M32 56h21M54 56h1M56 56h1M58 56h5M34 57h3M39 57h7M50 57h2M53 57h1M55 57h1M57 57h3M62 57h4M35 58h2M40 58h7M50 58h1M52 58h1M54 58h1M56 58h1M58 58h1M60 58h2M39 59h9M49 59h1M51 59h1M53 59h1M55 59h1M61 59h2M40 60h3M44 60h7M52 60h1M54 60h1M45 61h7M52 62h1M46 63h2M49 63h4M47 64h1M49 64h4M51 65h1" />
<path stroke="#101010" d="M10 30h1M34 30h2M50 30h5M10 31h1M32 31h2M46 31h4M54 31h1M11 32h1M30 32h2M42 32h4M53 32h1M11 33h1M29 33h1M39 33h3M52 33h1M85 33h1M12 34h1M27 34h1M37 34h2M51 34h1M84 34h1M13 35h1M25 35h2M50 35h1M82 35h2M14 36h3M25 36h1M48 36h2M80 36h2M15 37h1M17 37h1M24 37h1M47 37h1M72 37h3M78 37h2M15 38h1M23 38h2M69 38h2M76 38h2M15 39h1M23 39h1M31 39h1M68 39h1M75 39h1M16 40h1M22 40h1M31 40h1M75 40h1M16 41h1M22 41h1M30 41h2M75 41h1M22 42h1M30 42h1M74 42h1M22 43h1M74 43h1M23 44h1M73 44h1M23 45h1M72 45h1M23 46h1M71 46h1M24 47h1M70 47h1M24 48h1M69 48h1M25 49h1M67 49h2M25 50h1M65 50h2M26 51h1M62 51h3M27 52h1M59 52h3M28 53h1M29 54h1M30 55h1M31 56h1M32 57h1M33 58h2M59 58h1M35 59h2M57 59h2M37 60h3M55 60h2M40 61h3M52 61h3M43 62h9M53 63h1M53 64h1M53 65h1M47 66h1M52 66h1M48 67h1M52 67h1M50 68h2" />
<path stroke="#4183ee" d="M50 31h4M46 32h7M42 33h10M42 34h9M40 35h7M32 51h1M31 52h2" />
<path stroke="#94b4ff" d="M41 34h1M47 35h1" />
<path stroke="#bd8383" d="M40 52h1M39 54h1M42 54h1" />
<path stroke="#525aac" d="M30 53h3M32 54h1M37 57h1M46 57h4M37 58h3M47 58h2M37 59h1M48 59h1" />
</svg>