<svg xmlns="http://www.w3.org/2000/svg" viewBox="0 -0.5 96 96" shape-rendering="crispEdges">
<metadata>Made with Pixels to Svg https://codepen.io/shshaw/pen/XbxvNj</metadata>
<path stroke="#7b6220" d="M47 14h6M53 15h1M70 16h3M42 17h1M69 17h1M73 17h2M41 18h1M44 18h1M67 18h1M29 19h3M40 19h1M45 19h1M66 19h1M69 19h1M27 20h2M40 20h1M65 20h1M26 21h1M29 21h1M47 21h1M65 21h1M28 22h1M39 22h2M48 22h1M64 22h1M25 23h1M39 23h1M41 23h1M64 23h1M67 23h1M39 24h1M54 24h1M63 24h1M67 24h1M24 25h1M27 25h1M38 25h1M53 25h1M63 25h1M24 26h1M27 26h1M33 26h1M38 26h1M42 26h1M52 26h1M63 26h1M24 27h1M27 27h1M34 27h1M43 27h1M52 27h1M66 27h1M73 27h3M23 28h1M26 28h1M51 28h1M62 28h1M66 28h1M72 28h1M23 29h1M26 29h1M39 29h1M62 29h1M23 30h1M26 30h1M32 30h1M39 30h1M62 30h1M66 30h1M71 30h1M23 31h1M26 31h1M39 31h1M43 31h1M50 31h1M62 31h1M66 31h1M71 31h1M23 32h1M40 32h1M44 32h1M62 32h1M66 32h1M23 33h1M31 33h1M40 33h1M62 33h1M66 33h1M40 34h1M62 34h1M66 34h1M24 35h1M41 35h1M62 35h1M66 35h1M24 36h1M27 36h1M41 36h1M44 36h1M25 37h1M27 37h1M41 37h1M45 37h1M63 37h1M67 37h1M25 38h1M27 38h1M41 38h1M63 38h1M67 38h1M25 39h1M42 39h1M63 39h1M67 39h1M26 40h1M28 40h1M31 40h1M42 40h1M64 40h1M26 41h1M28 41h1M31 41h1M42 41h1M64 41h1M68 41h1M27 42h1M29 42h1M43 42h1M45 42h1M65 42h1M68 42h1M17 43h6M29 43h1M43 43h1M46 43h1M65 43h1M68 43h1M14 44h2M23 44h2M30 44h1M43 44h1M66 44h1M69 44h1M13 45h1M25 45h1M31 45h1M43 45h1M69 45h1M12 46h1M26 46h1M32 46h1M43 46h1M65 46h6M11 47h1M16 47h3M27 47h1M44 47h1M63 47h2M72 47h3M11 48h1M14 48h1M21 48h1M27 48h1M44 48h1M75 48h2M10 49h1M22 49h1M28 49h1M44 49h1M77 49h1M10 50h1M23 50h1M61 50h1M78 50h1M11 51h1M29 51h1M60 51h1M79 51h1M11 52h1M24 52h1M60 52h1M64 52h1M69 52h1M80 52h1M11 53h1M24 53h1M63 53h1M72 53h1M80 53h1M75 55h1M76 56h1M77 57h1M66 59h1M67 60h1M77 60h1M17 61h1" />
<path stroke="#20836a" d="M64 14h2M58 15h2M37 16h2M57 16h1M61 16h1M63 16h1M39 17h1M58 17h1M34 18h3M59 18h1M61 18h1M65 18h2M33 19h1M57 19h2M60 19h1M63 19h3M32 20h1M34 20h1M39 20h1M56 20h9M38 21h2M55 21h10M35 22h1M37 22h2M55 22h3M62 22h2M34 23h1M36 23h3M33 24h5M33 25h2M27 68h1M33 68h2M39 68h1M74 68h2M26 69h1M33 69h3M38 69h2M62 69h1M74 69h3M25 70h1M28 70h1M31 70h2M34 70h8M62 70h1M68 70h3M73 70h4M25 71h1M28 71h14M62 71h4M68 71h1M71 71h6M34 72h10M63 72h5M73 72h2M32 73h12M63 73h3M76 73h1M31 74h12M62 74h1M65 74h1M75 74h3M28 75h1M31 75h13M61 75h2M65 75h2M69 75h1M75 75h4M24 76h1M26 76h1M28 76h16M61 76h6M68 76h1M70 76h2M74 76h5M25 77h1M27 77h1M29 77h1M31 77h13M61 77h7M69 77h1M71 77h7M26 78h1M33 78h9M60 78h1M62 78h5M68 78h1M70 78h10M35 79h5M62 79h4M72 79h8M62 80h3M71 80h1M75 80h3" />
<path stroke="#c59c52" d="M45 15h2M43 16h2M56 17h1M71 17h2M70 18h5M70 19h6M54 20h1M69 20h8M30 21h2M68 21h9M26 22h1M29 22h2M53 22h1M68 22h10M28 23h3M52 23h1M54 23h1M68 23h10M25 24h1M28 24h4M51 24h1M53 24h1M68 24h10M28 25h4M52 25h1M66 25h13M28 26h5M51 26h1M66 26h13M28 27h6M50 27h1M63 27h1M67 27h6M76 27h3M27 28h6M39 28h1M67 28h5M77 28h2M27 29h6M50 29h1M66 29h6M78 29h1M27 30h5M49 30h2M67 30h4M27 31h5M40 31h1M47 31h3M67 31h4M26 32h6M41 32h1M45 32h5M67 32h4M26 33h5M41 33h9M67 33h4M24 34h1M27 34h4M41 34h9M67 34h4M27 35h4M42 35h8M67 35h4M28 36h3M42 36h2M46 36h4M63 36h1M66 36h5M26 37h1M28 37h3M42 37h2M46 37h4M66 37h1M68 37h3M26 38h1M28 38h3M42 38h8M64 38h1M66 38h1M68 38h4M26 39h5M43 39h7M64 39h3M68 39h5M27 40h1M29 40h2M43 40h7M65 40h10M27 41h1M29 41h2M43 41h6M65 41h3M69 41h5M28 42h1M30 42h2M44 42h1M47 42h2M66 42h2M69 42h5M28 43h1M30 43h2M44 43h1M47 43h2M66 43h2M69 43h4M16 44h1M29 44h1M31 44h1M44 44h1M47 44h2M67 44h2M70 44h1M30 45h1M32 45h1M48 45h1M68 45h1M15 46h5M48 46h1M13 47h3M19 47h4M71 47h1M12 48h2M22 48h2M47 48h1M11 49h2M23 49h2M76 49h1M11 50h1M24 50h1M27 50h1M10 51h1M24 51h5M64 51h6M10 52h1M25 52h4M63 52h1M70 52h4M79 52h1M10 53h1M25 53h4M62 53h1M73 53h3M78 53h2M25 54h4M62 54h1M75 54h6M25 55h4M62 55h1M76 55h5M25 56h3M77 56h4M25 57h3M78 57h3M25 58h2M78 58h2M14 59h1M24 59h2M78 59h2M15 60h2M23 60h1M66 60h1M78 60h1M18 61h4" />
<path stroke="#f6d55a" d="M47 15h6M45 16h10M43 17h13M70 17h1M42 18h1M46 18h9M68 18h2M41 19h1M46 19h8M29 20h2M41 20h1M45 20h9M27 21h2M40 21h3M44 21h3M49 21h5M27 22h1M42 22h5M49 22h4M65 22h1M67 22h1M27 23h1M42 23h10M53 23h1M65 23h2M27 24h1M40 24h11M52 24h1M64 24h3M39 25h13M64 25h2M39 26h3M44 26h7M64 26h2M25 27h1M39 27h3M44 27h6M51 27h1M64 27h2M24 28h2M40 28h11M63 28h3M24 29h2M40 29h10M63 29h3M24 30h2M40 30h9M63 30h3M24 31h2M41 31h2M45 31h2M63 31h3M24 32h2M42 32h1M63 32h3M24 33h2M63 33h3M25 34h2M63 34h3M25 35h2M63 35h3M25 36h2M64 36h2M64 37h2M65 38h1M17 44h1M20 44h3M45 44h2M14 45h2M19 45h6M44 45h4M13 46h2M20 46h6M44 46h4M12 47h1M23 47h4M45 47h3M68 47h3M24 48h3M45 48h2M63 48h1M68 48h7M25 49h3M45 49h2M62 49h2M67 49h9M25 50h2M62 50h16M61 51h3M70 51h9M61 52h2M74 52h5M61 53h1M76 53h2M61 54h1" />
<path stroke="#101810" d="M54 15h1M62 15h2M66 15h1M55 16h2M67 16h1M66 17h1M68 17h1M75 18h1M76 19h1M31 20h1M77 20h1M32 21h1M77 21h1M78 22h1M62 23h1M78 23h1M61 24h1M78 24h1M60 25h1M79 25h1M60 26h1M79 26h1M38 27h1M60 27h1M79 27h1M38 28h1M57 28h3M76 28h1M79 28h1M38 29h1M75 29h1M77 29h1M79 29h1M36 30h2M79 30h1M77 31h3M76 32h1M79 32h2M74 33h2M81 33h1M82 34h1M81 35h2M71 36h1M80 36h1M83 36h1M71 37h1M79 37h1M72 38h1M80 38h1M85 38h1M73 39h2M78 39h3M85 39h1M25 40h1M76 40h2M25 41h1M74 41h1M86 41h1M24 42h1M74 42h1M86 42h1M24 43h1M27 43h1M32 43h1M73 43h1M86 43h1M28 44h1M32 44h1M71 44h4M79 44h1M85 44h1M29 45h1M67 45h1M70 45h1M76 45h1M80 45h1M85 45h1M27 46h2M31 46h1M33 46h1M77 46h1M82 46h1M84 46h1M29 47h1M32 47h2M77 47h1M84 47h1M32 48h1M34 48h1M62 48h1M84 48h1M15 49h1M18 49h1M30 49h1M32 49h1M34 49h1M61 49h1M83 49h1M19 50h1M30 50h1M32 50h1M34 50h1M82 50h1M9 51h1M19 51h1M31 51h1M34 51h1M81 51h1M9 52h1M18 52h1M31 52h1M35 52h1M81 52h1M9 53h1M18 53h1M30 53h1M35 53h1M60 53h1M10 54h1M13 54h1M17 54h1M23 54h1M30 54h1M35 54h2M60 54h1M66 54h1M81 54h1M10 55h1M13 55h1M17 55h1M24 55h1M29 55h1M61 55h1M67 55h1M73 55h1M81 55h1M13 56h1M20 56h1M24 56h1M28 56h1M61 56h1M67 56h1M70 56h1M74 56h1M81 56h1M14 57h3M20 57h1M24 57h1M28 57h1M62 57h1M66 57h1M70 57h1M74 57h1M81 57h1M19 58h1M24 58h1M27 58h1M61 58h1M65 58h1M70 58h1M74 58h1M80 58h1M9 59h1M18 59h1M23 59h1M26 59h1M61 59h1M65 59h1M69 59h1M75 59h1M80 59h1M9 60h1M13 60h2M19 60h1M22 60h1M24 60h2M61 60h1M64 60h1M69 60h1M73 60h1M76 60h1M79 60h1M10 61h2M15 61h2M22 61h2M30 61h6M39 61h1M49 61h1M62 61h2M66 61h2M73 61h1M76 61h3M18 62h4M29 62h1M36 62h1M39 62h1M42 62h2M52 62h7M67 62h1M72 62h1M75 62h2M37 63h2M41 63h1M59 63h2M68 63h1M71 63h1M75 63h1M40 64h1M61 64h1M67 64h1M69 64h2M74 64h1M27 65h1M40 65h1M61 65h1M67 65h1M73 65h2M27 66h1M62 66h1M68 66h5M75 66h1M62 67h1M75 67h1M62 68h1M76 68h1M77 69h1M42 70h1M77 70h1M43 71h1M61 71h1M77 71h1M26 72h1M44 72h1M76 72h1M26 73h1M78 73h1M25 74h1M43 74h1M61 74h1M60 75h1M79 75h1M44 76h1M60 76h1M79 76h1M44 77h1M78 77h1M42 78h2M32 79h3M40 79h2M59 79h1M28 80h4M35 80h5M60 80h1M73 80h1M78 80h2M70 81h2M75 81h3" />
<path stroke="#394a5a" d="M60 15h1M39 16h1M64 16h1M36 17h1M40 17h1M57 17h1M45 18h1M55 18h1M57 18h1M44 19h1M54 19h1M33 20h1M55 20h1M48 21h1M54 21h1M31 22h1M41 22h1M47 22h1M54 22h1M58 22h4M31 23h1M33 23h1M40 23h1M55 23h7M63 23h1M32 24h1M57 24h4M32 25h1M35 25h3M57 25h3M34 26h4M43 26h1M56 26h4M36 27h2M42 27h1M56 27h4M33 28h1M35 28h3M33 29h1M35 29h3M51 29h1M76 29h1M51 30h1M74 30h5M32 31h1M44 31h1M73 31h4M32 32h1M43 32h1M50 32h1M73 32h3M50 33h1M55 33h3M80 33h1M31 34h1M35 34h3M50 34h1M54 34h1M58 34h1M79 34h3M31 35h1M34 35h1M38 35h1M50 35h1M53 35h2M58 35h2M77 35h4M31 36h1M33 36h2M38 36h2M45 36h1M50 36h1M54 36h1M58 36h1M76 36h4M31 37h1M34 37h1M38 37h1M44 37h1M50 37h1M55 37h3M75 37h4M84 37h1M31 38h1M35 38h3M50 38h1M76 38h4M31 39h1M50 39h1M55 39h3M76 39h2M36 40h3M50 40h1M54 40h1M58 40h1M75 40h1M35 41h1M39 41h1M49 41h1M53 41h2M58 41h2M32 42h1M34 42h2M39 42h2M46 42h1M49 42h1M54 42h1M58 42h1M79 42h2M25 43h1M35 43h1M39 43h1M45 43h1M49 43h1M55 43h3M78 43h5M25 44h3M36 44h3M49 44h1M63 44h1M78 44h1M80 44h4M26 45h3M33 45h1M49 45h1M54 45h3M62 45h4M71 45h5M81 45h4M29 46h2M38 46h3M49 46h1M53 46h1M57 46h1M62 46h3M73 46h4M83 46h1M30 47h2M37 47h1M41 47h1M48 47h1M52 47h2M57 47h2M61 47h2M75 47h2M83 47h1M15 48h6M28 48h1M30 48h2M36 48h2M41 48h2M48 48h1M53 48h1M57 48h1M61 48h1M83 48h1M13 49h2M19 49h3M31 49h1M35 49h1M37 49h1M41 49h1M47 49h1M54 49h3M60 49h1M12 50h3M20 50h3M28 50h1M31 50h1M35 50h1M38 50h3M45 50h2M60 50h1M12 51h3M20 51h4M35 51h2M12 52h2M19 52h5M29 52h1M36 52h1M65 52h4M19 53h5M29 53h1M36 53h1M64 53h8M18 54h4M24 54h1M29 54h1M63 54h1M67 54h8M18 55h3M63 55h1M68 55h3M74 55h1M17 56h3M62 56h1M68 56h2M75 56h1M17 57h3M67 57h3M75 57h2M13 58h6M23 58h1M66 58h4M75 58h3M13 59h1M15 59h3M30 59h6M67 59h2M76 59h2M17 60h2M29 60h10M65 60h1M68 60h1M29 61h1M36 61h3M44 61h5M50 61h1M64 61h2M37 62h2M51 62h1M62 62h5M28 63h1M63 63h4M39 66h1M27 67h1M39 67h1M26 68h1M40 68h1M40 69h2M61 69h1M63 69h1M61 70h1M63 70h1M42 71h1M62 72h1M44 73h1M62 73h1M77 73h1M26 74h1M78 74h1M24 75h4M44 75h1M23 76h1M25 76h1M27 76h1M23 77h2M26 77h1M28 77h1M30 77h1M60 77h1M79 77h1M24 78h2M27 78h6M44 78h1M59 78h1M80 78h1M26 79h6M80 79h1M61 80h1M65 80h2M72 80h1M74 80h1M62 81h3M67 81h3" />
<path stroke="#4aa462" d="M64 15h2M58 16h3M62 16h1M65 16h2M37 17h2M59 17h7M67 17h1M37 18h4M56 18h1M58 18h1M60 18h1M62 18h3M34 19h6M55 19h2M59 19h1M61 19h2M35 20h4M33 21h5M32 22h3M36 22h1M32 23h1M35 23h1M38 24h1M27 69h1M26 70h2M26 71h2M69 71h2M27 72h7M68 72h5M75 72h1M27 73h5M66 73h10M27 74h4M63 74h2M66 74h9M29 75h2M63 75h2M67 75h2M70 75h5M67 76h1M69 76h1M72 76h2M68 77h1M70 77h1M61 78h1M67 78h1M69 78h1M60 79h2M66 79h6M67 80h4" />
<path stroke="#f6f6f6" d="M43 18h1M42 19h2M67 19h2M42 20h3M66 20h3M43 21h1M66 21h2M66 22h1M26 23h1M26 24h1M25 25h2M54 25h2M62 25h1M25 26h2M53 26h3M61 26h2M26 27h1M53 27h3M61 27h2M34 28h1M52 28h4M61 28h1M34 29h1M52 29h10M33 30h3M52 30h10M33 31h6M51 31h11M33 32h7M51 32h11M32 33h8M51 33h4M58 33h4M32 34h3M38 34h2M51 34h2M60 34h2M32 35h1M40 35h1M51 35h2M56 35h1M60 35h2M32 36h1M36 36h1M40 36h1M51 36h2M60 36h3M32 37h1M40 37h1M51 37h4M58 37h5M32 38h3M38 38h3M51 38h12M32 39h10M51 39h4M58 39h5M32 40h4M39 40h3M51 40h2M60 40h4M32 41h2M41 41h1M50 41h3M56 41h1M60 41h4M76 41h4M26 42h1M33 42h1M37 42h1M41 42h2M50 42h3M60 42h4M75 42h4M33 43h1M41 43h2M50 43h5M58 43h4M74 43h4M18 44h2M33 44h3M39 44h4M50 44h11M75 44h3M16 45h3M34 45h9M50 45h4M57 45h2M77 45h2M34 46h4M41 46h2M50 46h2M78 46h2M34 47h2M43 47h1M49 47h3M55 47h1M65 47h3M78 47h1M35 48h1M39 48h1M43 48h1M49 48h3M64 48h4M43 49h1M48 49h2M64 49h3M41 50h2M15 52h1M14 53h3M14 54h3M14 55h3M15 56h1M35 56h5M63 56h2M10 57h2M21 57h1M33 57h8M63 57h3M10 58h3M20 58h3M32 58h10M62 58h3M10 59h3M19 59h4M37 59h5M62 59h3M10 60h2M20 60h2M39 60h2M62 60h2M70 60h2M40 61h1M69 61h4M30 62h5M68 62h4M29 63h8M69 63h2M28 64h2M31 64h7M62 64h5M68 64h1M71 64h2M28 65h1M30 65h3M34 65h2M62 65h5M68 65h5M30 66h3M63 66h3M67 66h1M63 67h3M67 67h4M64 68h2M67 68h3M64 69h4" />
<path stroke="#d5cdd5" d="M55 24h1M62 24h1M73 28h3M73 29h2M72 30h2M72 31h1M72 32h1M78 32h1M72 33h2M77 33h3M53 34h1M59 34h1M72 34h3M76 34h2M33 35h1M39 35h1M72 35h5M53 36h1M59 36h1M72 36h3M81 36h1M33 37h1M39 37h1M72 37h3M80 37h4M73 38h3M81 38h4M82 39h3M53 40h1M59 40h1M78 40h7M34 41h1M40 41h1M80 41h6M25 42h1M53 42h1M59 42h1M64 42h1M82 42h4M26 43h1M34 43h1M40 43h1M62 43h3M84 43h2M61 44h1M65 44h1M59 45h3M79 45h1M52 46h1M58 46h3M71 46h2M80 46h2M28 47h1M36 47h1M42 47h1M59 47h2M79 47h3M29 48h1M52 48h1M58 48h2M77 48h6M29 49h1M36 49h1M42 49h1M50 49h4M57 49h3M78 49h4M16 50h2M29 50h1M36 50h2M43 50h2M47 50h13M79 50h3M15 51h4M30 51h1M37 51h23M80 51h1M16 52h2M30 52h1M38 52h22M38 53h22M12 54h1M37 54h22M64 54h2M12 55h1M36 55h1M39 55h19M59 55h1M64 55h3M72 55h1M11 56h2M16 56h1M21 56h2M34 56h1M40 56h16M58 56h1M60 56h1M65 56h1M71 56h3M12 57h2M22 57h2M42 57h11M60 57h2M71 57h3M43 58h7M59 58h2M71 58h3M42 59h2M59 59h2M70 59h4M41 60h4M58 60h3M72 60h1M74 60h2M41 61h3M59 61h3M74 61h2M40 62h2M59 62h3M73 62h2M39 63h2M61 63h2M67 63h1M72 63h3M38 64h2M73 64h1M33 65h1M36 65h4M28 66h1M34 66h5M73 66h2M28 67h11M72 67h3M28 68h5M35 68h4M63 68h1M66 68h1M71 68h3M28 69h5M36 69h2M68 69h6M29 70h2M33 70h1M64 70h4" />
<path stroke="#8b94ac" d="M56 24h1M56 25h1M61 25h1M35 27h1M56 28h1M60 28h1M72 29h1M38 30h1M71 32h1M77 32h1M71 33h1M76 33h1M71 34h1M75 34h1M78 34h1M71 35h1M75 36h1M82 36h1M75 39h1M81 39h1M85 40h1M75 41h1M81 42h1M83 43h1M62 44h1M64 44h1M84 44h1M66 45h1M61 46h1M82 47h1M60 48h1M16 49h2M82 49h1M15 50h1M18 50h1M37 52h1M17 53h1M37 53h1M71 55h1M14 56h1M66 56h1M36 59h1M74 59h1M12 60h1M68 61h1M35 62h1M29 66h1M33 66h1" />
<path stroke="#ee5a6a" d="M55 34h3M35 35h3M55 35h1M57 35h1M35 36h1M37 36h1M55 36h3M35 37h3" />
<path stroke="#5ac5f6" d="M55 40h3M36 41h3M55 41h1M57 41h1M36 42h1M38 42h1M55 42h3M36 43h3" />
<path stroke="#b4bdc5" d="M54 46h3M38 47h3M54 47h1M56 47h1M38 48h1M40 48h1M54 48h3M38 49h3" />
<path stroke="#6a7b8b" d="M14 52h1M12 53h2M11 54h1M11 55h1M34 55h1M10 56h1M33 56h1M9 57h1M32 57h1M59 57h1M9 58h1M31 58h1M58 58h1M57 60h1M58 61h1" />
<path stroke="#acacc5" d="M22 54h1M59 54h1M21 55h3M35 55h1M37 55h2M58 55h1M60 55h1M23 56h1M56 56h2M59 56h1M41 57h1M53 57h6M42 58h1M50 58h8M44 59h15M45 60h12M51 61h7M30 64h1M29 65h1M66 66h1M66 67h1M71 67h1M70 68h1M71 70h2M66 71h2" />
</svg>