<svg xmlns="http://www.w3.org/2000/svg" viewBox="0 -0.5 96 96" shape-rendering="crispEdges">
<metadata>Made with Pixels to Svg https://codepen.io/shshaw/pen/XbxvNj</metadata>
<path stroke="#8b6a00" d="M39 23h1M38 24h1M40 24h1M50 24h1M38 25h1M40 25h1M49 25h1M51 25h1M38 26h1M40 26h1M49 26h1M51 26h1M38 27h1M40 27h1M48 27h1M50 27h1M38 28h1M40 28h1M48 28h1M50 28h1M38 29h1M40 29h1M48 29h1M50 29h1M38 30h1M47 30h1M49 30h1M38 31h1M47 31h1M49 31h1M38 32h1M47 32h1M49 32h1M37 33h1M49 33h1M36 34h1M28 35h2M36 35h1M30 36h3M35 36h1M33 37h3M38 37h1M60 37h4M34 38h1M37 38h1M39 38h1M48 38h3M57 38h3M38 39h1M40 39h1M47 39h1M51 39h1M54 39h3M28 40h3M34 40h1M40 40h1M46 40h1M48 40h1M52 40h1M31 41h4M40 41h1M46 41h1M52 41h1M34 42h1M40 42h1M46 42h1M52 42h1M60 42h4M35 43h1M51 43h1M54 43h6M35 44h1M39 44h1M36 45h1M40 45h2M46 45h2M51 46h3M41 47h1M47 47h1M50 47h1M54 47h2M34 48h3M42 48h1M46 48h1M49 48h1M52 48h1M56 48h1M32 49h2M37 49h1M43 49h3M54 49h1M57 49h1M31 50h1M35 50h1M38 50h1M40 50h2M54 50h1M30 51h1M33 51h1M39 51h1M41 51h1M58 51h1M33 52h1M40 52h1M50 52h1M54 52h1M40 53h1M33 54h1M40 54h1M60 54h1M34 55h2M39 55h1M59 55h1M36 56h1M39 56h1M51 56h1M57 56h2M39 57h1M55 57h2M53 58h2M40 59h1M51 60h1M43 62h1M48 62h1M40 63h1M51 63h1M36 65h3" />
<path stroke="#ffe683" d="M39 24h1M39 25h1M50 25h1M39 26h1M50 26h1M39 27h1M49 27h1M39 28h1M49 28h1M39 29h1M49 29h1M39 30h1M48 30h1M39 31h1M48 31h1M39 32h1M48 32h1M38 33h2M48 33h1M37 34h1M39 34h1M47 34h2M37 35h1M48 35h3M28 36h2M36 36h1M46 36h1M49 36h4M30 37h3M36 37h2M49 37h4M33 38h1M35 38h2M51 38h3M60 38h4M35 39h1M52 39h2M57 39h3M35 40h1M53 40h4M28 41h3M35 41h1M41 41h5M53 41h2M31 42h3M35 42h1M41 42h5M53 42h2M36 43h1M39 43h8M52 43h2M60 43h4M37 44h2M40 44h9M51 44h9M38 45h1M48 45h5M48 46h3M51 47h3M50 48h2M53 48h3M34 49h3M50 49h1M52 49h2M55 49h2M32 50h3M36 50h2M52 50h2M55 50h1M31 51h2M34 51h2M37 51h1M40 51h1M42 51h1M57 51h1M32 52h1M34 52h2M38 52h2M41 52h6M55 52h3M39 53h1M41 53h7M41 54h7M61 54h1M40 55h8M60 55h3M40 56h7M59 56h4M40 57h7M57 57h4M41 58h4M58 58h1M39 65h2M38 66h3M39 67h3M52 67h3M51 68h3" />
<path stroke="#101010" d="M33 27h3M54 27h4M32 28h6M52 28h7M32 29h6M51 29h8M32 30h2M36 30h2M50 30h4M56 30h3M32 31h2M37 31h1M50 31h3M56 31h3M33 32h2M50 32h2M56 32h3M33 33h2M50 33h1M56 33h3M33 34h3M55 34h4M34 35h2M55 35h3M27 36h1M34 36h1M56 36h2M28 37h2M57 37h1M30 38h3M64 38h1M33 39h2M60 39h4M38 40h1M57 40h3M27 41h1M38 41h1M48 41h1M55 41h3M28 42h3M38 42h1M48 42h1M57 42h1M31 43h4M48 43h1M64 43h1M60 44h4M42 45h4M55 45h5M36 46h1M47 46h1M56 46h1M65 46h1M67 46h1M37 47h2M65 47h1M67 47h1M39 48h2M60 48h1M64 48h1M67 48h1M41 49h1M49 49h1M51 49h1M61 49h3M67 49h1M42 50h1M46 50h3M50 50h2M57 50h1M63 50h1M67 50h1M36 51h1M38 51h1M43 51h3M52 51h5M62 51h1M66 51h1M30 52h1M36 52h2M49 52h1M58 52h1M62 52h1M66 52h1M31 53h5M50 53h3M57 53h1M61 53h1M65 53h1M51 54h1M53 54h4M65 54h1M51 55h1M64 55h1M37 56h2M52 56h1M63 56h1M52 57h1M62 57h1M39 58h1M52 58h1M60 58h2M39 59h1M52 59h1M57 59h3M40 60h1M52 60h5M40 61h1M51 61h1M40 62h1M44 62h4M51 62h1M39 63h1M43 63h1M48 63h1M52 63h1M39 64h1M42 64h1M49 64h1M52 64h1M42 65h1M49 65h1M53 65h1M43 66h1M50 66h1M54 66h3M43 67h1M49 67h1M57 67h3M31 68h1M40 68h3M49 68h1M60 68h1M31 69h1M33 69h1M35 69h1M38 69h2M50 69h3M61 69h1M32 70h6M53 70h2M57 70h1M59 70h1M61 70h1M55 71h6" />
<path stroke="#cda400" d="M42 28h3M41 29h1M45 29h1M40 30h1M46 30h1M40 31h3M45 31h2M40 32h1M46 32h1M40 33h2M44 33h2M40 34h1M40 35h2M43 35h3M40 36h1M41 37h1" />
<path stroke="#ffd500" d="M42 29h2M41 30h2M43 31h2M41 32h1M45 32h1M42 33h2M44 34h2M42 35h1M41 36h4" />
<path stroke="#ffffff" d="M44 29h1M43 30h3M42 32h3M41 34h3M37 39h1M39 39h1M49 39h2M37 40h1M39 40h1M47 40h1M49 40h2M37 41h1M47 41h1M49 41h2M47 42h1M49 42h1M41 46h1M46 46h1" />
<path stroke="#d55a39" d="M34 30h1M54 30h2M34 31h1M53 31h1M52 32h1M35 33h1M51 33h2M55 33h1M42 46h2M42 47h1" />
<path stroke="#ff7352" d="M35 30h1M35 31h2M54 31h2M35 32h3M53 32h3M36 33h1M53 33h2M54 34h1M44 46h2M43 47h4M43 48h3" />
<path stroke="#945a00" d="M46 33h1M46 34h1M46 35h1M45 36h1M42 37h3" />
<path stroke="#debd39" d="M47 33h1M49 34h5M51 35h4M53 36h3M53 37h4M54 38h3M36 39h1M36 40h1M36 41h1M36 42h1M55 42h2M37 43h2M47 43h1M36 44h1M49 44h2M37 45h1M39 45h1M53 45h2M37 46h4M54 46h2M39 47h2M48 47h2M41 48h1M47 48h2M42 49h1M46 49h3M43 50h3M49 50h1M56 50h1M46 51h6M31 52h1M47 52h2M51 52h3M36 53h3M48 53h2M53 53h4M34 54h6M48 54h3M36 55h3M48 55h3M47 56h4M47 57h5M61 57h1M40 58h1M45 58h7M55 58h3M59 58h1M41 59h11M53 59h4M41 60h10M41 61h10M41 62h2M49 62h2M41 63h2M49 63h2M40 64h2M50 64h2M41 65h1M50 65h3M41 66h2M51 66h3M42 67h1M50 67h2M50 68h1" />
<path stroke="#ffffb4" d="M38 34h1M38 35h2M47 35h1M37 36h3M47 36h2M39 37h2M45 37h4M40 38h8M41 39h6M41 40h5" />
<path stroke="#e6e6e6" d="M38 38h1M48 39h1M51 40h1M39 41h1M51 41h1M37 42h1M39 42h1M50 42h2M49 43h2" />
<path stroke="#944100" d="M61 40h4M60 41h1M65 41h1M59 42h1M66 42h1M66 43h1M64 44h1M67 44h1M62 45h1M65 45h1M67 45h1M58 46h1M62 46h1M59 47h1M33 66h3M32 67h1M34 67h1M36 67h1M33 68h1M35 68h1M56 68h1M58 68h1M57 69h1M59 69h1" />
<path stroke="#ee9c31" d="M61 41h4M64 42h2M62 54h1M63 55h1M38 67h1M39 68h1M54 68h1M53 69h1" />
<path stroke="#c57b08" d="M65 43h1M65 44h2M60 45h2M63 45h2M66 45h1M59 46h3M63 46h2M66 46h1M60 47h5M66 47h1M61 48h3M65 48h2M64 49h3M64 50h3M63 51h3M63 52h3M62 53h3M63 54h2M36 66h2M33 67h1M35 67h1M37 67h1M55 67h2M32 68h1M34 68h1M36 68h3M55 68h1M57 68h1M59 68h1M32 69h1M34 69h1M36 69h2M54 69h3M58 69h1M60 69h1M55 70h2M58 70h1M60 70h1" />
</svg>