<svg xmlns="http://www.w3.org/2000/svg" viewBox="0 -0.5 96 96" shape-rendering="crispEdges">
<metadata>Made with Pixels to Svg https://codepen.io/shshaw/pen/XbxvNj</metadata>
<path stroke="#186273" d="M44 25h2M49 25h1M42 26h2M41 27h1M40 29h1M34 34h1M32 35h2M31 36h1M31 37h1M63 37h1M30 38h1M64 38h1M30 39h1M65 39h1M65 40h1M66 41h1M31 42h1M66 42h1M33 45h1M31 51h2M30 52h1M29 53h1M29 54h1M58 54h1M61 54h1M29 55h1M62 55h1M29 56h1M62 56h1M30 57h1" />
<path stroke="#000000" d="M46 25h3M50 26h2M52 27h1M53 28h1M54 29h1M54 30h1M55 31h1M55 32h1M55 33h2M55 34h1M57 34h1M55 35h1M55 36h1M55 37h1M54 38h1M54 39h1M30 40h1M37 40h1M40 40h1M53 40h1M30 41h1M37 41h1M40 41h1M42 41h1M36 42h1M41 42h2M46 42h3M50 42h1M52 42h1M31 43h1M36 43h1M51 43h1M60 43h1M66 43h1M32 44h1M35 44h1M60 44h1M66 44h1M35 45h1M41 45h2M60 45h1M65 45h1M42 46h1M65 46h1M64 47h1M63 48h1M62 49h1M59 50h3M59 53h2M62 57h1M62 58h1M58 59h1M61 59h1M32 60h1M59 60h2M32 61h1M59 61h1M33 62h1M58 62h1M33 63h1M58 63h1M68 63h1M34 64h1M57 64h1M68 64h1M35 65h1M56 65h1M67 65h1M37 66h2M55 66h1M65 66h2M35 67h1M39 67h3M53 67h2M60 67h5M34 68h1M43 68h6M50 68h2M57 68h1M34 69h1M43 69h1M49 69h1M58 69h1M35 70h2M38 70h2M41 70h2M49 70h1M58 70h1M50 71h2M53 71h2M56 71h2" />
<path stroke="#83e6d5" d="M44 26h5M42 27h9M41 28h10M41 29h11M40 30h12M40 31h12M40 32h12M41 33h10M41 34h10M34 35h1M42 35h8M33 36h1M44 36h4M32 37h2M32 38h1M62 38h2M62 39h3M62 40h3M61 41h5M61 42h5M61 43h4M31 52h2M30 53h3M30 54h3M59 54h2M30 55h2M58 55h4M31 56h1M58 56h4M58 57h4M59 58h2" />
<path stroke="#52a4b4" d="M49 26h1M32 36h1M31 38h1M31 39h2M31 40h2M61 40h1M31 41h2M32 42h1M32 43h1M65 43h1M33 44h1M61 44h5M61 45h4M62 46h3M62 47h2M32 55h1M30 56h1M31 57h1M58 58h1M61 58h1M59 59h2" />
<path stroke="#414141" d="M51 27h1M51 28h1M52 29h1M52 30h1M39 32h1M36 33h2M40 33h1M51 33h1M35 34h1M40 34h1M35 35h1M41 35h1M59 35h2M34 36h1M42 36h2M48 36h1M58 36h1M61 36h2M34 37h1M39 37h1M44 37h1M54 37h1M57 37h1M62 37h1M33 38h1M57 38h1M61 38h1M33 39h1M40 39h1M56 39h1M61 39h1M34 40h1M56 40h1M60 40h1M34 41h3M43 41h1M51 41h1M56 41h1M60 41h1M34 42h2M44 42h2M49 42h1M34 43h2M39 43h1M48 43h1M52 43h1M57 43h1M57 44h3M53 45h1M57 45h3M48 46h1M51 46h2M57 46h4M47 47h1M58 47h3M58 48h4M59 49h3M35 57h1M35 58h2M55 58h1M35 59h2M53 59h3M35 60h3M53 60h3M36 61h2M52 61h3M36 62h3M51 62h4M37 63h3M50 63h4M38 64h4M48 64h4M39 65h12M42 66h6M56 66h3M59 67h1" />
<path stroke="#292929" d="M40 28h1M39 30h1M39 31h1M52 31h1M38 32h1M52 32h1M38 33h1M38 34h1M51 34h1M38 35h1M50 35h1M58 35h1M38 36h1M49 36h1M38 37h1M45 37h3M39 38h1M39 39h1M33 40h1M41 40h1M33 41h1M52 41h1M33 42h1M56 42h1M60 42h1M33 43h1M56 43h1M34 44h1M56 44h1M34 45h1M56 45h1M56 46h1M61 46h1M49 47h1M57 47h1M61 47h1M44 48h3M57 48h1M62 48h1M58 49h1M52 64h1M51 65h1M48 66h2" />
<path stroke="#626262" d="M52 28h1M53 29h1M53 30h1M53 31h2M53 32h2M39 33h1M52 33h3M36 34h2M39 34h1M52 34h3M36 35h2M39 35h2M51 35h4M35 36h3M39 36h3M50 36h5M59 36h2M35 37h3M40 37h4M48 37h6M58 37h4M34 38h4M40 38h14M58 38h3M34 39h3M41 39h13M57 39h4M35 40h2M42 40h11M57 40h3M44 41h7M57 41h3M40 42h1M57 42h3M50 43h1M58 43h2M38 44h3M38 45h2M37 46h3M53 46h1M37 47h2M51 47h3M36 48h3M52 48h3M36 49h2M52 49h3M36 50h2M52 50h3M35 51h3M53 51h2M35 52h2M53 52h3M35 53h2M53 53h3M35 54h2M53 54h3M35 55h2M53 55h3M35 56h2M53 56h3M36 57h1M53 57h3M53 58h2M61 61h5M59 62h2M66 62h2" />
<path stroke="#0894d5" d="M56 34h1M56 35h2M56 36h2M56 37h1M55 38h2M55 39h1M54 40h2M54 41h2M55 42h1M37 43h1M55 43h1M36 44h2M55 44h1M36 45h2M54 45h2M36 46h1M54 46h2M35 47h2M54 47h3M35 48h1M55 48h2M34 49h2M55 49h3M34 50h2M55 50h3M33 51h2M55 51h4M34 52h1M56 52h3M34 53h1M56 53h3M34 54h1M56 54h2M34 55h1M56 55h1M56 56h1M56 57h1" />
<path stroke="#10417b" d="M38 38h1M37 39h1M39 40h1M38 41h1M53 41h1M38 42h1M54 42h1M54 43h1M54 44h1M35 46h1M34 47h1M34 48h1M33 49h1M33 50h1M58 50h1M59 51h1M59 52h1M33 54h1M33 55h1M32 56h1M57 56h1M32 57h1M57 57h1M31 58h1M57 58h1M31 59h1M58 60h1M34 63h1M36 65h1M36 66h1M52 67h1M55 67h1M37 68h1M40 68h1M42 68h1M49 68h1M56 68h1M37 69h1M40 69h1M52 69h1M55 69h1M52 70h1M55 70h1" />
<path stroke="#296aac" d="M38 39h1M38 40h1M37 42h1M38 43h1M33 52h1M33 53h1M57 55h1M33 56h2M33 57h2M32 58h3M56 58h1M32 59h3M56 59h2M33 60h2M56 60h2M33 61h3M55 61h4M34 62h2M55 62h3M35 63h2M54 63h4M35 64h3M53 64h4M37 65h2M52 65h4M39 66h3M50 66h5M36 67h3M42 67h10M35 68h2M38 68h2M41 68h1M52 68h4M35 69h2M38 69h2M41 69h2M50 69h2M53 69h2M56 69h2M50 70h2M53 70h2M56 70h2" />
<path stroke="#c5c5c5" d="M39 41h1M41 41h1M43 42h1M51 42h1M53 42h1M41 43h3M49 43h1M53 43h1M42 44h1M49 44h3M53 44h1M52 45h1M61 62h5M59 63h9M58 64h10M57 65h10M59 66h6" />
<path stroke="#ffffff" d="M39 42h1M40 43h1M41 44h1M52 44h1M50 45h2" />
<path stroke="#945a4a" d="M44 43h1M43 44h1M48 44h1M49 45h1M42 47h1M43 48h1M37 59h1M52 60h1M38 61h1M40 63h1M42 64h1M47 64h1" />
<path stroke="#c59c83" d="M45 43h3M44 44h4M40 45h1M50 46h1M39 47h1M43 47h1M48 47h1M38 49h1M52 51h1M37 52h1M37 58h1M38 59h1M52 59h1M38 60h3M50 60h2M39 61h13M39 62h12M41 63h9M43 64h4" />
<path stroke="#ffdebd" d="M43 45h6M40 46h2M43 46h5M49 46h1M40 47h2M44 47h3M50 47h1M39 48h4M47 48h5M39 49h13M38 50h14M38 51h14M38 52h15M37 53h16M37 54h16M37 55h16M37 56h16M37 57h16M38 58h15M39 59h13M41 60h9" />
</svg>