<svg xmlns="http://www.w3.org/2000/svg" viewBox="0 -0.5 96 96" shape-rendering="crispEdges">
<metadata>Made with Pixels to Svg https://codepen.io/shshaw/pen/XbxvNj</metadata>
<path stroke="#9c6a6a" d="M51 21h1M31 23h2M50 23h1M31 24h1M50 24h1M31 25h1M50 25h1M49 26h1M49 27h1M18 28h2M48 28h1M16 29h2M20 29h2M48 29h1M54 29h1M21 30h2M54 30h1M21 31h3M54 31h1M21 32h2M24 32h1M54 32h1M20 33h2M23 33h2M19 34h3M23 34h2M19 35h3M23 35h1M13 36h1M17 36h4M22 36h1M52 36h1M54 36h1M13 37h8M27 37h1M14 38h5M26 38h3M52 38h1M54 38h1M25 39h4M34 39h1M25 40h4M50 40h1M26 41h2M63 41h1M27 42h1M44 42h1M61 42h1M63 42h1M61 43h1M63 43h1M42 44h1M61 44h2M64 44h1M72 44h1M61 45h2M64 45h2M71 45h2M64 46h9M59 47h2M64 47h9M60 48h1M65 48h7M60 49h2M67 49h4M59 50h4M59 51h5M60 52h3M55 56h2M58 56h2M34 57h1M55 57h5M32 58h1M34 58h1M56 58h2M60 58h1M30 59h2M56 59h1M60 59h1M31 60h3M57 60h1M57 61h1M61 61h1M58 62h2M61 62h2M59 63h4M59 64h3M35 65h2M30 66h7M33 67h2M27 68h1M32 68h2M65 68h2M26 69h1M28 69h1M31 69h2M63 69h3M26 70h1M28 70h5M62 70h2M69 70h1M28 71h3M70 71h1M68 72h3M66 73h2M69 73h2M64 74h4M69 74h1" />
<path stroke="#624a20" d="M52 21h1M48 22h1M51 22h1M53 22h2M34 23h2M42 23h1M47 23h1M49 23h1M53 23h1M55 23h1M33 24h1M36 24h1M43 24h1M46 24h1M55 24h1M37 25h1M42 25h1M44 25h1M46 25h1M56 25h1M45 26h1M56 26h1M32 27h1M59 27h3M32 28h1M41 28h1M57 28h2M61 28h1M33 29h1M42 29h1M60 29h1M33 30h1M60 30h4M33 31h1M57 31h1M57 32h1M31 34h3M63 34h4M67 35h1M32 38h1M31 39h1M31 40h1M34 40h2M49 40h1M30 41h1M36 41h1M47 41h2M29 42h1M37 42h1M39 42h1M41 42h1M45 42h2M30 43h1M38 43h1M41 43h3M31 44h1M39 44h1M31 45h1M30 46h1M29 47h1M31 49h1M30 50h1M29 51h1M28 52h1M28 53h2M36 55h1M35 56h1M38 59h1M40 59h1M38 60h1M39 61h1" />
<path stroke="#ffffd5" d="M52 22h1M48 23h1M51 23h2M32 24h1M34 24h1M47 24h2M51 24h1M32 25h2M47 25h1M51 25h1M33 26h1M46 26h2M50 26h2M46 27h1M50 27h1M49 28h1M49 29h1M41 31h1M39 32h4M37 33h6M44 33h1M36 34h9M35 35h10M35 36h9M36 37h9M38 38h4" />
<path stroke="#e6bd9c" d="M54 23h1M35 24h1M54 24h1M36 25h1M48 25h2M55 25h1M37 26h1M42 26h1M44 26h1M48 26h1M55 26h1M33 27h1M38 27h1M44 27h1M48 27h1M54 27h2M33 28h1M38 28h2M54 28h2M38 29h4M55 29h2M39 30h3M55 30h2M59 30h1M34 31h1M55 31h2M59 31h3M55 32h2M62 32h1M52 34h1M54 34h1M61 34h2M60 35h7M50 36h1M56 36h1M59 36h7M58 37h7M42 38h1M50 38h1M56 38h10M33 39h1M58 39h6M39 40h1M52 40h1M54 40h1M57 40h6M50 41h1M56 41h5M40 42h1M57 42h3M31 43h1M39 43h2M53 43h1M58 43h2M34 44h1M40 44h2M54 44h2M59 44h1M54 45h6M35 46h1M48 46h1M54 46h7M44 47h2M55 47h3M30 48h1M44 48h1M55 48h4M44 49h1M52 49h1M55 49h2M31 50h1M34 50h2M43 50h2M52 50h2M55 50h3M30 51h7M42 51h2M52 51h6M29 52h4M34 52h10M47 52h1M49 52h1M52 52h7M33 53h12M46 53h5M52 53h8M63 53h2M33 54h21M55 54h11M32 55h4M37 55h18M57 55h1M60 55h3M36 56h18M61 56h1M36 57h18M61 57h1M38 58h17M39 59h1M41 59h7M49 59h4M54 59h1M39 60h1M41 60h3M45 60h4M51 60h1M55 60h1M42 61h3M46 61h3M43 62h1M47 62h2M48 63h1" />
<path stroke="#000000" d="M42 24h1M49 24h1M38 26h1M41 26h1M39 27h1M41 27h1M45 27h1M56 27h1M40 28h1M56 28h1M57 29h1M15 30h1M57 30h1M14 31h1M24 31h1M63 31h1M13 32h1M25 32h2M63 32h1M13 33h1M25 33h1M27 33h1M34 33h1M62 33h1M12 34h1M25 34h1M27 34h1M34 34h1M12 35h1M24 35h1M27 35h1M31 35h1M12 36h1M23 36h1M27 36h1M32 36h1M66 36h1M12 37h1M21 37h2M26 37h1M28 37h1M33 37h1M65 37h1M13 38h1M19 38h3M24 38h2M29 38h3M14 39h5M22 39h2M63 40h1M61 41h1M60 42h1M37 43h1M60 43h1M44 44h1M60 44h1M60 45h1M61 46h3M61 47h1M63 47h1M29 48h1M35 48h1M61 48h1M64 48h1M30 49h1M57 49h1M62 49h1M65 49h2M58 50h1M63 50h1M67 50h4M58 51h1M64 51h4M59 52h1M63 52h2M30 53h2M60 53h3M56 55h1M58 55h1M57 56h1M60 56h1M60 57h1M35 58h3M34 59h1M36 59h1M48 59h1M61 59h1M28 60h1M30 60h1M34 60h1M36 60h1M40 60h1M44 60h1M49 60h1M54 60h1M56 60h1M61 60h3M28 61h1M30 61h4M37 61h1M41 61h1M45 61h1M49 61h1M55 61h2M62 61h1M64 61h1M28 62h1M37 62h1M42 62h1M44 62h1M46 62h1M49 62h1M57 62h1M63 62h1M65 62h1M28 63h1M36 63h1M43 63h1M47 63h1M49 63h1M57 63h2M63 63h1M65 63h1M29 64h1M35 64h2M48 64h1M57 64h1M62 64h1M66 64h1M30 65h5M37 65h1M57 65h1M59 65h3M66 65h1M28 66h2M37 66h1M57 66h1M66 66h1M26 67h2M35 67h2M58 67h1M65 67h1M25 68h1M34 68h1M58 68h1M63 68h2M67 68h1M25 69h1M33 69h1M59 69h4M68 69h2M25 70h1M33 70h1M61 70h1M70 70h1M26 71h2M31 71h2M62 71h1M71 71h1M28 72h3M63 72h1M71 72h1M63 73h1M71 73h1M63 74h1M68 74h1M70 74h1M64 75h6" />
<path stroke="#ffe6b4" d="M52 24h2M34 25h2M43 25h1M53 25h2M36 26h1M43 26h1M53 26h2M34 27h1M37 27h1M42 27h2M47 27h1M51 27h1M34 28h1M42 28h6M50 28h1M59 28h2M34 29h1M43 29h5M50 29h1M58 29h2M34 30h2M42 30h6M49 30h2M58 30h1M35 31h1M40 31h1M42 31h9M58 31h1M62 31h1M35 32h1M38 32h1M43 32h10M58 32h4M35 33h2M43 33h1M45 33h17M35 34h1M45 34h7M53 34h1M55 34h6M32 35h3M45 35h7M53 35h1M55 35h5M33 36h2M44 36h6M53 36h1M57 36h2M34 37h2M45 37h13M34 38h4M43 38h7M53 38h1M32 39h1M35 39h7M43 39h9M53 39h1M55 39h3M32 40h2M36 40h3M40 40h1M42 40h7M51 40h1M53 40h1M55 40h2M31 41h3M37 41h2M40 41h1M42 41h5M51 41h5M30 42h4M38 42h1M42 42h2M50 42h7M32 43h2M50 43h3M54 43h4M32 44h2M50 44h4M56 44h3M32 45h3M50 45h4M31 46h4M49 46h5M30 47h5M46 47h9M31 48h4M45 48h10M32 49h3M45 49h7M53 49h2M32 50h2M45 50h7M54 50h1M44 51h8M44 52h3M48 52h1M50 52h2M45 53h1M51 53h1" />
<path stroke="#cd8b5a" d="M52 25h1M32 26h1M34 26h2M52 26h1M36 27h1M53 27h1M37 28h1M51 28h1M53 28h1M18 29h2M37 29h1M51 29h1M19 30h2M48 30h1M19 31h2M39 31h1M14 32h2M18 32h3M34 32h1M14 33h6M13 34h6M13 35h6M52 35h1M54 35h1M14 36h3M51 36h1M55 36h1M33 38h1M51 38h1M55 38h1M29 39h2M42 39h1M52 39h1M54 39h1M66 39h2M29 40h2M41 40h1M64 40h3M70 40h1M28 41h2M34 41h1M39 41h1M41 41h1M49 41h1M64 41h3M28 42h1M34 42h1M49 42h1M64 42h4M70 42h2M34 43h1M49 43h1M64 43h8M49 44h1M65 44h7M35 45h2M49 45h1M66 45h5M43 46h5M33 52h1M32 53h1M30 57h4M30 58h2M33 58h1M58 58h2M32 59h2M57 59h3M58 60h3M58 61h2M28 67h5M26 68h1M30 68h2M29 69h2M66 69h2M64 70h5M63 71h7M64 72h2M64 73h2" />
<path stroke="#ff945a" d="M35 27h1M52 27h1M35 28h2M52 28h1M35 29h2M52 29h2M36 30h2M51 30h3M36 31h2M53 31h1M36 32h1M37 46h5M36 47h1M38 47h2M41 47h2M36 48h1M38 48h2M41 48h2M36 49h7M37 50h5" />
<path stroke="#5a3100" d="M20 28h2M22 29h1M23 30h1M23 32h1M22 33h1M22 34h1M22 35h1M21 36h1M32 37h1M66 38h3M24 39h1M64 39h2M69 39h2M24 40h1M71 40h1M25 41h1M62 41h1M71 41h1M26 42h1M62 42h1M72 42h1M27 43h3M62 43h1M72 43h1M63 44h1M73 44h1M63 45h1M73 45h1M73 46h1M58 47h1M73 47h1M43 48h1M59 48h1M72 48h1M35 49h1M43 49h1M58 49h2M71 49h1M36 50h1M42 50h1M37 51h5M65 53h1M32 54h1M54 54h1M66 54h1M31 55h1M55 55h1M59 55h1M63 55h3M30 56h5M54 56h1M62 56h1M29 57h1M35 57h1M54 57h1M62 57h1M29 58h1M55 58h1M61 58h1M29 59h1M53 59h1M55 59h1M50 60h1M52 60h1M51 61h1M60 61h1M60 62h1M66 67h1M28 68h2M27 69h1M27 70h1M66 72h2M68 73h1" />
<path stroke="#e6b48b" d="M16 30h3M15 31h4M16 32h2M68 39h1M67 40h3M67 41h4M68 42h2" />
<path stroke="#bd4a31" d="M38 30h1M38 31h1M51 31h2M37 32h1M53 32h1M37 45h5M36 46h1M42 46h1M35 47h1M37 47h1M40 47h1M43 47h1M37 48h1M40 48h1" />
<path stroke="#7b7b7b" d="M26 33h1M26 34h1M37 44h1M44 45h1M35 59h1M29 60h1M35 60h1M29 61h1M34 61h1M63 61h1M30 62h4M64 62h1M64 63h1M58 64h1M63 64h1M58 65h1M62 65h1M59 66h3" />
<path stroke="#414141" d="M25 35h2M24 36h3M23 37h3M22 38h2M62 47h1M62 48h2M63 49h2M64 50h3M35 61h2M29 62h1M34 62h3M29 63h7M30 64h5M64 64h2M63 65h3M58 66h1M62 66h4M59 67h6M59 68h4" />
<path stroke="#c5c5c5" d="M35 41h1M36 42h1M47 42h1M44 43h2" />
<path stroke="#ffffff" d="M35 42h1M48 42h1M35 43h2M46 43h3M35 44h2M38 44h1M43 44h1M45 44h4M42 45h2M45 45h4" />
</svg>