<svg xmlns="http://www.w3.org/2000/svg" viewBox="0 -0.5 96 96" shape-rendering="crispEdges">
<metadata>Made with Pixels to Svg https://codepen.io/shshaw/pen/XbxvNj</metadata>
<path stroke="#949cac" d="M33 16h1M33 17h1M34 20h1M36 20h1M35 21h1M38 21h1M40 21h1M43 21h1M31 22h1M41 22h1M44 22h1M31 23h1M41 23h1M39 24h1M38 26h1M40 26h1M37 27h1M41 28h1M40 39h1M33 41h4M32 42h1M37 42h1M31 43h1M30 44h1M44 44h2M30 45h1M41 45h1M45 45h1M29 46h1M44 46h1M29 47h1M35 47h1M43 47h1M29 48h1M35 48h1M43 48h1M28 49h1M42 49h1M28 50h1M28 51h1M48 51h5M28 52h1M46 52h2M53 52h2M28 53h1M55 53h1M28 54h1M28 55h1M29 56h1M29 57h1M53 57h1M64 61h1M60 63h2M30 65h2M64 65h2M39 67h1M50 67h1M34 68h1M40 68h1M49 68h1M38 69h1M44 69h3M45 70h3M46 71h1M51 71h1" />
<path stroke="#5a6a83" d="M34 16h1M37 16h2M35 17h2M33 18h1M35 18h1M30 19h2M35 19h1M40 19h1M30 20h1M32 20h1M38 20h1M40 20h1M43 20h2M29 21h2M39 21h1M45 21h1M29 22h1M33 22h1M39 22h1M29 23h1M39 23h1M29 24h1M30 25h1M38 25h1M46 26h1M35 29h1M42 29h1M36 30h1M43 31h1M39 33h1M44 34h1M40 38h1M39 40h1M39 41h1M43 41h1M52 41h2M38 42h1M49 42h3M59 42h1M38 43h1M47 43h2M62 43h1M37 44h1M46 44h1M37 45h1M36 46h1M40 48h1M34 49h1M40 49h1M33 50h1M33 51h1M32 52h1M32 53h1M55 54h1M55 55h1M54 56h1M52 58h1M51 59h1M51 60h1M70 60h5M66 61h4M74 61h1M62 62h3M29 65h1M68 65h1M29 66h1M59 66h1M69 66h3M30 67h2M37 67h2M51 67h1M53 67h1M60 67h2M32 68h2M35 68h2M41 68h1M47 68h2M54 68h1M63 68h1M34 69h1M65 69h2" />
<path stroke="#ffffff" d="M34 17h1M37 17h1M34 18h1M36 18h2M36 19h2M37 20h1M41 20h1M36 21h2M41 21h2M44 21h1M34 22h5M40 22h1M42 22h2M45 22h1M33 23h6M40 23h1M42 23h4M32 24h7M40 24h2M43 24h4M32 25h4M40 25h7M31 26h4M37 26h1M41 26h4M41 33h1M41 34h2M41 35h2M41 36h3M41 37h3M41 38h3M41 39h3M40 40h4M40 41h3M33 42h2M40 42h3M52 42h7M32 43h4M39 43h4M49 43h13M31 44h6M38 44h4M47 44h17M31 45h2M34 45h3M38 45h3M46 45h19M30 46h3M34 46h2M37 46h4M45 46h21M30 47h2M33 47h2M36 47h5M44 47h23M30 48h2M33 48h2M36 48h4M44 48h23M30 49h2M33 49h1M35 49h5M41 49h1M43 49h25M29 50h3M34 50h6M41 50h1M43 50h25M29 51h3M34 51h14M53 51h16M29 52h3M33 52h13M55 52h14M30 53h1M33 53h13M56 53h13M32 54h13M56 54h13M32 55h8M42 55h6M56 55h13M33 56h6M42 56h8M55 56h13M33 57h5M43 57h8M54 57h14M34 58h4M43 58h9M53 58h14M34 59h3M44 59h7M52 59h15M35 60h2M44 60h1M46 60h5M52 60h14M35 61h2M47 61h3M51 61h13M70 61h4M36 62h1M47 62h3M51 62h11M66 62h6M51 63h7M62 63h9M52 64h16M52 65h6M59 65h5M53 66h6M60 66h7M54 67h6M62 67h4M56 68h6" />
<path stroke="#000000" d="M38 17h1M38 18h1M33 19h1M38 19h1M41 19h1M33 20h1M42 20h1M33 21h1M46 22h1M32 23h1M47 23h1M31 24h1M47 24h1M37 25h1M47 25h1M30 26h1M35 26h2M35 27h1M46 27h1M30 28h1M45 28h1M34 29h1M43 29h2M32 30h2M37 30h1M42 30h1M30 31h2M38 31h1M29 32h1M39 32h1M43 32h1M27 33h1M43 33h1M24 34h2M40 34h1M40 35h1M44 35h1M40 36h1M44 36h1M40 37h1M44 37h1M44 38h1M44 39h1M44 40h1M54 41h5M43 42h1M60 42h2M43 43h1M63 43h1M42 44h1M64 44h1M42 45h1M65 45h1M41 46h1M66 46h1M41 47h1M67 47h1M67 48h1M68 49h1M68 50h1M69 51h1M69 52h1M69 53h1M69 54h1M69 55h1M68 56h1M68 57h1M67 58h1M30 59h1M67 59h1M30 60h1M66 60h1M30 61h1M50 61h1M65 61h1M50 62h1M73 62h1M31 63h1M50 63h1M71 63h2M32 64h1M51 64h1M69 64h2M33 65h2M51 65h1M66 65h2M35 66h2M38 66h2M52 66h1M40 67h2M71 67h1M42 68h5M53 68h1M62 68h1M69 68h2M43 69h1M53 69h1M55 69h2M64 69h1M67 69h2M44 70h1M48 70h1M52 70h1M57 70h3M65 70h1M45 71h1M47 71h1M49 71h1M52 71h1M60 71h5M45 72h1M47 72h1M50 72h2M44 73h1M46 73h1M51 73h1M44 74h1M46 74h1M49 74h1M51 74h1M42 75h2M48 75h1M52 75h1M46 76h1M52 76h1M38 77h3M43 77h3M48 77h1M53 77h1M41 78h2M45 78h3M50 78h4M48 79h2" />
<path stroke="#b4c5d5" d="M34 19h1M31 20h1M35 20h1M31 21h2M34 21h1M30 22h1M32 22h1M30 23h1M46 23h1M30 24h1M42 24h1M31 25h1M39 25h1M39 26h1M45 26h1M33 27h1M38 27h8M34 28h7M42 28h3M36 29h6M38 30h4M39 31h4M40 32h3M40 33h1M42 33h1M43 34h1M43 35h1M35 42h2M39 42h1M36 43h2M43 44h1M33 45h1M43 45h2M33 46h1M42 46h2M32 47h1M42 47h1M32 48h1M41 48h2M29 49h1M32 49h1M32 50h1M40 50h1M42 50h1M32 51h1M48 52h5M29 53h1M31 53h1M46 53h9M29 54h2M45 54h10M29 55h2M48 55h7M50 56h4M51 57h2M65 62h1M72 62h1M47 63h3M58 63h2M48 64h3M68 64h1M32 65h1M48 65h3M58 65h1M30 66h5M48 66h4M67 66h2M32 67h5M48 67h2M52 67h1M66 67h5M37 68h3M50 68h3M55 68h1M64 68h5M35 69h3M48 69h5M57 69h7M49 70h3M60 70h5M50 71h1" />
<path stroke="#626283" d="M36 25h1M30 27h1M31 28h3M47 69h1M50 75h1M40 76h2M47 76h5M42 77h1M46 77h1M49 77h2M52 77h1M48 78h2" />
<path stroke="#4a4a4a" d="M31 27h2M34 27h1M36 27h1M39 69h2M34 70h5M46 72h1M45 73h1M50 73h1M45 74h1M50 74h1M40 75h2M44 75h2M49 75h1M51 75h1M38 76h2M42 76h4M41 77h1M47 77h1M51 77h1" />
<path stroke="#6a6a41" d="M29 29h1M28 30h1M26 31h1M25 32h1M28 32h1M24 33h1M26 33h1" />
<path stroke="#f6f64a" d="M30 29h4M29 30h3M27 31h3M26 32h2M25 33h1" />
<path stroke="#aca462" d="M27 30h1" />
<path stroke="#4173ac" d="M31 54h1M31 55h1M41 56h1M30 57h1M39 60h1M45 60h1M39 61h1M44 61h1M32 62h1M39 62h1M33 63h2M40 63h1M44 63h1M46 63h1M40 64h1M45 64h1M47 64h1M41 65h1M42 66h1M46 67h1" />
<path stroke="#6294b4" d="M40 55h2M30 56h1M32 56h1M39 56h1M32 57h1M38 57h1M40 57h1M38 58h1M40 58h1M33 59h1M37 59h1M39 59h1M31 60h1M33 60h1M37 60h1M31 61h3M33 62h2M38 62h1M40 62h1M44 62h1M32 63h1M35 63h1M38 63h2M41 63h3M45 63h1M33 64h4M38 64h2M41 64h4M46 64h1M35 65h3M39 65h2M42 65h5M40 66h2M43 66h4M42 67h4" />
<path stroke="#a4cdee" d="M31 56h1M40 56h1M31 57h1M39 57h1M41 57h1M31 58h2M39 58h1M41 58h1M31 59h2M38 59h1M40 59h3M32 60h1M38 60h1M40 60h3M38 61h1M40 61h4M45 61h1M41 62h3M45 62h1" />
<path stroke="#394a6a" d="M42 57h1M30 58h1M33 58h1M42 58h1M43 59h1M34 60h1M43 60h1M34 61h1M37 61h1M46 61h1M31 62h1M35 62h1M37 62h1M46 62h1M36 63h2M37 64h1M38 65h1M47 65h1M37 66h1M47 66h1M47 67h1" />
</svg>