<svg xmlns="http://www.w3.org/2000/svg" viewBox="0 -0.5 96 96" shape-rendering="crispEdges">
<metadata>Made with Pixels to Svg https://codepen.io/shshaw/pen/XbxvNj</metadata>
<path stroke="#6a6a6a" d="M28 11h1M28 12h1M31 12h1M28 13h1M31 13h1M43 13h2M29 14h1M31 15h1M47 17h1M45 18h1M44 19h1M28 20h1M46 20h1M45 21h1M40 24h1M40 25h1M46 39h1M25 40h1M44 40h2M24 41h1M26 41h1M42 41h2M23 42h1M26 42h1M51 42h2M27 43h2M31 43h2M53 43h1M27 44h1M34 44h1M33 45h1M25 46h1M25 47h1M25 48h1M26 49h1M44 49h1M26 50h1M50 51h1M55 53h1M36 54h1M36 55h1M37 57h1M52 57h2M38 58h1M51 58h1M55 58h1M49 59h2M55 69h1M67 69h1M63 72h1M65 72h1M44 73h1M63 73h1M44 74h1M53 76h1M58 76h1M59 77h1M39 78h1M59 78h1M64 78h1M40 79h1M65 79h1M69 79h1M45 80h1M67 80h1M41 81h1M45 81h1M46 82h1M50 82h1M48 83h1" />
<path stroke="#414a41" d="M29 11h1M32 11h1M43 14h1M45 14h1M29 15h1M45 15h1M30 16h1M33 16h1M46 16h1M31 17h1M32 18h1M27 20h1M34 20h1M44 20h1M27 21h1M34 21h1M43 21h1M34 22h1M42 22h1M30 23h2M34 23h1M38 23h1M38 24h1M33 25h1M38 25h1M36 27h1M36 28h1M36 29h1M41 70h1M54 70h1M36 71h1M41 71h1M54 71h1M36 72h1M41 72h1M54 72h1M36 73h1M41 73h1M54 73h1M60 73h1M35 74h1M41 74h1M53 74h1M60 74h1M35 75h1M42 75h1M53 75h1M55 75h1M61 75h1M35 76h1M42 76h1M52 76h1M55 76h1M61 76h1M34 77h1M36 77h1M42 77h1M52 77h1M34 78h1M42 78h1M57 78h2M60 78h2M33 79h1M33 80h1M40 80h1M34 81h1M39 81h1" />
<path stroke="#311010" d="M33 11h1" />
<path stroke="#ffffff" d="M29 12h1M32 12h1M29 13h1M32 13h1M48 13h1M30 14h1M32 14h1M44 14h1M48 14h1M30 15h1M32 15h1M44 15h1M47 15h1M32 16h1M45 16h1M47 16h1M33 17h1M45 17h2M33 18h1M46 18h1M33 19h1M45 19h1M31 20h1M45 20h1M28 21h2M31 21h2M44 21h1M46 21h2M30 22h1M32 22h1M39 22h1M43 22h2M32 23h2M39 23h1M42 23h2M33 24h2M39 24h1M41 24h2M34 25h1M39 25h1M41 25h1M34 26h2M39 26h2M35 27h1M38 27h2M35 28h1M38 28h2M35 29h1M37 29h2M38 30h1M38 31h1M35 36h1M33 37h2M32 38h5M30 39h6M29 40h6M46 40h4M25 41h1M29 41h1M40 41h2M44 41h8M24 42h2M38 42h4M43 42h6M24 43h3M29 43h2M36 43h5M42 43h5M49 43h4M24 44h3M28 44h4M35 44h21M25 45h8M34 45h20M26 46h7M34 46h16M26 47h23M26 48h6M33 48h14M27 49h5M33 49h11M27 50h5M33 50h10M50 50h2M28 51h4M33 51h9M51 51h2M30 52h3M34 52h7M55 52h2M32 53h1M34 53h4M56 53h2M35 54h1M34 55h2M34 56h2M35 57h2M36 58h2M36 59h3M37 60h1M67 70h1M64 71h1M66 71h3M48 72h1M64 72h1M66 72h3M45 73h1M47 73h2M64 73h5M45 74h1M47 74h3M64 74h5M44 75h6M64 75h6M44 76h6M64 76h6M44 77h6M63 77h8M44 78h7M63 78h1M65 78h3M69 78h2M43 79h8M62 79h1M66 79h3M70 79h2M43 80h2M46 80h5M68 80h1M43 81h2M46 81h3M50 81h2M42 82h2M47 82h3M51 82h2M49 83h1" />
<path stroke="#000000" d="M30 12h1M33 12h1M48 12h2M30 13h1M33 13h1M47 13h1M49 13h1M31 14h1M33 14h1M47 14h1M49 14h1M33 15h1M43 15h1M46 15h1M48 15h1M44 16h1M48 16h1M34 17h1M44 17h1M34 18h1M47 18h1M31 19h2M34 19h1M46 19h1M29 20h1M32 20h1M40 20h1M47 20h2M30 21h1M33 21h1M40 21h1M49 21h1M28 22h2M31 22h1M33 22h1M40 22h1M45 22h4M40 23h2M44 23h1M32 24h1M35 24h1M43 24h1M35 25h1M42 25h1M33 26h1M36 26h1M38 26h1M41 26h1M29 27h2M34 27h1M37 27h1M40 27h1M32 28h3M37 28h1M40 28h1M43 28h4M28 29h1M34 29h1M39 29h1M41 29h2M46 29h1M29 30h1M34 30h4M39 30h2M46 30h1M32 31h2M37 31h1M39 31h1M45 31h1M30 32h2M45 32h1M30 33h1M44 33h1M41 34h3M41 35h1M36 36h1M41 36h1M35 37h1M41 37h1M26 39h1M28 39h1M47 39h3M26 40h1M28 40h1M40 40h3M50 40h2M27 41h1M31 41h3M38 41h2M52 41h1M28 42h3M33 42h1M36 42h2M23 43h1M33 43h1M35 43h1M54 43h2M23 44h1M56 44h1M24 45h1M54 45h2M51 46h3M49 47h2M47 48h2M45 49h2M58 49h2M43 50h1M27 51h1M42 51h1M62 51h1M67 51h2M28 52h2M41 52h1M63 52h1M69 52h1M30 53h2M39 53h2M64 53h1M70 53h1M32 54h1M37 54h2M65 54h1M69 54h2M33 55h1M65 55h1M68 55h1M33 56h1M66 56h3M34 57h1M66 57h1M34 58h1M66 58h1M35 59h1M57 59h1M66 59h1M33 60h1M36 60h1M48 60h1M57 60h1M65 60h1M33 61h1M37 61h2M48 61h1M54 61h3M58 61h1M65 61h1M34 62h1M39 62h1M48 62h7M58 62h1M65 62h1M34 63h1M39 63h1M48 63h1M54 63h1M59 63h1M65 63h1M35 64h1M39 64h1M47 64h1M54 64h1M59 64h2M65 64h1M35 65h1M39 65h1M47 65h1M55 65h1M58 65h1M60 65h1M65 65h1M36 66h1M40 66h1M47 66h1M55 66h1M58 66h1M61 66h1M66 66h1M36 67h1M40 67h1M48 67h1M55 67h1M58 67h1M62 67h1M67 67h1M37 68h1M40 68h1M44 68h1M49 68h1M55 68h1M59 68h1M63 68h1M67 68h1M37 69h1M40 69h1M44 69h1M49 69h1M57 69h1M59 69h1M63 69h1M68 69h1M37 70h1M39 70h1M49 70h1M60 70h1M64 70h1M68 70h1M45 71h1M48 71h1M60 71h1M69 71h1M45 72h1M49 72h1M60 72h1M69 72h1M49 73h1M69 73h1M50 74h1M63 74h1M69 74h1M43 75h1M50 75h1M63 75h1M70 75h1M43 76h1M50 76h1M63 76h1M70 76h1M43 77h1M50 77h1M53 77h1M56 77h1M62 77h1M71 77h1M36 78h1M43 78h1M51 78h1M53 78h1M56 78h1M62 78h1M71 78h1M35 79h1M42 79h1M51 79h1M53 79h3M61 79h1M63 79h1M72 79h1M35 80h1M38 80h1M42 80h1M51 80h1M62 80h2M66 80h1M69 80h3M35 81h1M38 81h1M42 81h1M52 81h1M63 81h1M66 81h4M35 82h3M41 82h1M44 82h1M53 82h1M63 82h3M42 83h3M47 83h1M50 83h3M44 84h1M47 84h4M44 85h3" />
<path stroke="#acacac" d="M31 16h1M32 17h1M33 20h1M37 36h1M42 42h1M49 42h2M41 43h1M47 43h2M32 44h2M33 46h1M50 46h1M32 48h1M32 49h1M32 50h1M32 51h1M33 52h1M33 53h1M38 53h1M33 54h2M36 56h1M35 58h1M52 58h3M51 59h6M38 60h1M49 60h8M39 61h1M49 61h5M58 68h1M58 69h1M40 70h1M55 70h1M57 70h3M37 71h1M39 71h2M55 71h5M37 72h4M55 72h5M37 73h4M55 73h5M36 74h5M54 74h6M36 75h6M54 75h1M56 75h5M36 76h6M56 76h2M59 76h2M35 77h1M37 77h5M57 77h2M60 77h2M35 78h1M37 78h2M40 78h2M68 78h1M34 79h1M38 79h2M41 79h1M34 80h1M39 80h1M41 80h1M49 81h1" />
<path stroke="#4a1008" d="M30 18h1M29 19h1M39 19h1M28 28h1M29 29h3M31 30h2M43 30h2M42 31h3M41 32h3M36 33h2M40 34h1M36 37h1M41 38h1M41 39h1M27 40h1M37 79h1M64 79h1M36 80h2M64 80h2M36 81h2M64 81h2M45 83h2M45 84h2" />
<path stroke="#dec56a" d="M30 19h1M39 20h1M48 21h1" />
<path stroke="#412018" d="M40 19h1M28 27h1M30 31h1M39 32h1M29 34h1M29 35h1M29 36h1M28 37h1M27 38h1M27 39h1M49 49h3M56 49h2M62 49h3M52 50h4M60 50h2M65 50h2M67 54h2M33 57h1M39 57h1M33 58h1M39 58h1M33 59h2M39 59h1M48 59h1M34 60h2M39 60h1M34 61h3M40 61h1M57 61h1M35 62h4M40 62h1M55 62h3M35 63h4M41 63h1M47 63h1M55 63h4M36 64h3M42 64h1M55 64h4M36 65h3M42 65h1M56 65h2M37 66h3M43 66h1M56 66h2M65 66h1M37 67h3M43 67h1M56 67h2M63 67h1M65 67h1M38 68h2M56 68h2M38 69h2M56 69h1M38 70h1M45 70h1M56 70h1M38 71h1M65 71h1M54 76h1M54 77h2M54 78h2M36 79h1M45 82h1" />
<path stroke="#7b5a31" d="M30 20h1M38 20h1M38 21h2M38 22h1M43 29h3M41 30h1M34 31h3M40 31h2M32 32h7M40 32h1M44 32h1M31 33h5M38 33h6M31 34h4M39 34h1M31 35h3M39 35h2M30 36h4M39 36h2M29 37h3M37 37h1M40 37h1M28 38h2M37 38h1M40 38h1M36 39h1M39 39h2M38 40h2M35 41h3M34 42h2M34 43h1M47 49h2M44 50h6M56 50h4M62 50h3M43 51h7M53 51h9M63 51h4M42 52h13M57 52h6M64 52h2M41 53h14M58 53h6M39 54h26M38 55h27M38 56h14M54 56h2M57 56h9M40 57h9M50 57h1M57 57h9M40 58h9M57 58h9M40 59h8M58 59h8M40 60h8M58 60h7M41 61h7M59 61h6M41 62h7M59 62h5M42 63h5M60 63h3M43 64h4M43 65h4M44 66h2" />
<path stroke="#623920" d="M29 28h3M32 29h2M30 30h1M33 30h1M42 30h1M45 30h1M31 31h1M35 34h1M38 34h1M30 35h1M34 35h1M37 35h1M34 36h1M32 37h1M39 37h1M30 38h2M39 38h1M29 39h1M38 39h1M35 40h3M34 41h1M66 52h3M65 53h5M66 54h1M66 55h2M56 56h1M49 57h1M56 57h1M49 58h1M56 58h1M64 62h1M63 63h2M61 64h4M61 65h4M46 66h1M62 66h3M44 67h4M64 67h1M66 67h1M45 68h4M64 68h3M45 69h4M64 69h3M46 70h3M65 70h2M46 71h2M46 72h2M46 73h1M46 74h1" />
<path stroke="#a47b4a" d="M30 34h1M37 34h1M36 35h1M28 41h1M30 41h1" />
<path stroke="#de9429" d="M36 34h1M35 35h1M38 35h1M38 36h1M38 37h1M38 38h1M37 39h1M37 55h1M37 56h1M52 56h2M38 57h1M51 57h1M54 57h2M50 58h1" />
</svg>