<svg xmlns="http://www.w3.org/2000/svg" viewBox="0 -0.5 96 96" shape-rendering="crispEdges">
<metadata>Made with Pixels to Svg https://codepen.io/shshaw/pen/XbxvNj</metadata>
<path stroke="#c5ac7b" d="M36 16h3M35 17h1M40 17h1M34 18h1M40 18h1M33 19h1M40 19h1M33 20h1M35 20h1M40 20h1M32 21h1M35 21h1M40 21h1M32 22h1M35 22h1M40 22h1M32 23h1M36 23h1M36 24h1M40 24h1M36 25h1M40 25h1M37 26h1M38 27h2M38 28h2M41 28h1M36 29h1M38 29h2M41 29h1M36 30h2M39 30h1M41 30h1M36 31h2M39 31h1M37 32h1M39 32h1M49 45h1M52 45h1M47 46h1M46 47h1M52 47h2M45 48h1M50 48h5M51 49h4M52 50h3M43 51h1M45 51h1M52 51h3M41 52h1M43 52h1M45 52h1M52 52h3M41 53h1M43 53h1M51 53h3M41 54h1M44 54h1M51 54h3M40 55h1M45 55h1M50 55h3M42 56h1M45 56h1M49 56h3M42 57h1M45 57h1M48 57h3M40 58h1M42 58h1M45 58h2M48 58h2M41 59h1M45 59h1M47 59h2M44 64h1M38 65h1M38 66h1M37 67h1M42 67h1M37 68h1M36 69h1M41 69h1M37 72h1M38 73h3M38 74h3M39 75h2M40 76h2M42 77h2" />
<path stroke="#837341" d="M39 16h2M41 17h1M42 18h1M42 19h1M43 20h1M43 21h1M43 22h1M43 23h1M32 24h1M32 25h1M32 26h1M33 27h1M37 27h1M40 27h1M33 28h1M37 28h1M40 28h1M34 29h1M37 29h1M40 29h1M38 30h1M40 30h1M38 31h1M40 31h1M36 32h1M38 32h1M40 32h1M53 46h1M54 47h1M50 49h1M44 50h2M51 50h1M44 51h1M46 51h1M51 51h1M42 52h1M44 52h1M46 52h1M51 52h1M40 53h1M42 53h1M44 53h1M47 53h1M50 53h1M54 53h1M40 54h1M42 54h1M50 54h1M39 55h1M42 55h1M49 55h1M39 56h1M48 56h1M39 57h1M39 58h1M40 59h1M41 60h1M42 61h1M41 62h1M40 63h1M39 64h1M36 70h1M36 71h1M41 75h1M42 76h1M44 77h2" />
<path stroke="#eedea4" d="M36 17h4M35 18h5M41 18h1M34 19h6M41 19h1M34 20h1M36 20h4M41 20h2M33 21h2M36 21h4M41 21h2M33 22h2M36 22h4M41 22h2M33 23h3M37 23h6M33 24h3M37 24h3M41 24h2M33 25h3M37 25h3M41 25h2M33 26h4M38 26h5M34 27h3M41 27h2M34 28h3M35 29h1M35 30h1M50 45h2M48 46h5M47 47h5M45 53h2M43 54h1M45 54h2M41 55h1M43 55h2M46 55h1M40 56h2M43 56h2M46 56h1M40 57h2M43 57h2M46 57h1M41 58h1M43 58h2M42 59h3M46 60h2M43 61h4M42 62h4M41 63h4M40 64h4M39 65h5M39 66h4M38 67h4M38 68h4M37 69h4M37 70h4M37 71h4M38 72h3" />
<path stroke="#181820" d="M43 24h1M43 25h1M43 26h1M43 27h1M42 28h1M42 29h1M34 30h1M42 30h1M35 31h1M41 31h1M27 36h2M60 36h1M61 37h1M61 38h1M62 39h1M62 40h1M63 41h1M26 42h2M40 42h1M63 42h1M25 43h1M28 43h2M63 43h1M25 44h1M28 44h3M63 44h1M25 45h2M28 45h3M63 45h1M25 46h5M63 46h1M25 47h1M27 47h3M63 47h1M28 48h4M46 48h4M63 48h1M26 49h1M28 49h6M45 49h1M63 49h1M27 50h4M33 50h1M43 50h1M62 50h1M29 51h2M33 51h1M41 51h2M62 51h1M30 52h3M39 52h2M62 52h1M36 53h3M61 53h1M31 54h5M47 54h1M61 54h1M47 55h1M60 55h1M47 56h1M59 56h1M47 57h1M58 57h1M47 58h1M57 58h1M46 59h1M56 59h1M42 60h4M55 60h1M54 61h1M53 62h1M51 63h1M50 64h1M49 65h1M46 68h1M46 69h1M45 70h1M71 70h1M45 71h1M71 71h1M36 72h1M45 72h1M70 72h1M37 73h1M46 73h1M51 73h3M68 73h2M37 74h1M47 74h4M64 74h3M38 75h1M55 75h9M39 76h1M52 76h3M40 77h2M48 77h4M42 78h6" />
<path stroke="#10394a" d="M43 30h7M50 31h3M33 32h3M53 32h3M31 33h2M36 33h1M56 33h2M29 34h2M58 34h1M28 35h1M59 35h1M29 36h2M31 37h2M60 37h1M33 38h1M60 38h1M34 39h1M59 39h3M35 40h1M59 40h3M36 41h1M58 41h5M57 42h2M61 42h2M56 43h1M61 43h2M55 44h1M57 44h1M60 44h3M54 45h1M56 45h1M58 45h5M37 46h1M54 46h9M37 47h1M55 47h8M37 48h1M55 48h8M37 49h1M55 49h8M37 50h1M55 50h3M60 50h2M55 51h3M60 51h2M36 52h1M55 52h7M55 53h6M54 54h7M53 55h7M52 56h7M51 57h7M50 58h7M49 59h5M53 61h1M52 62h1M48 66h1M47 67h1M45 69h1M44 71h1M57 71h2M42 72h3M55 72h6M41 73h5M54 73h7M41 74h6M51 74h7M42 75h13M43 76h9M46 77h2" />
<path stroke="#205a62" d="M42 31h8M41 32h12M33 33h3M37 33h19M31 34h27M29 35h30M31 36h29M33 37h6M42 37h12M56 37h4M34 38h4M43 38h10M56 38h4M35 39h3M43 39h1M47 39h6M56 39h3M36 40h2M47 40h6M55 40h4M46 41h12M44 42h13M44 43h12M57 43h1M44 44h11M56 44h1M43 45h6M53 45h1M55 45h1M57 45h1M38 46h1M43 46h4M38 47h2M42 47h4M38 48h7M38 49h7M38 50h5M37 51h4M37 52h2M54 59h2M48 60h7M47 61h6M46 62h6M45 63h6M45 64h5M44 65h5M43 66h5M43 67h4M42 68h4M42 69h3M41 70h4M57 70h4M41 71h3M59 71h2M41 72h1" />
<path stroke="#732000" d="M26 37h1M25 38h1M25 39h1M24 40h1M24 41h1M23 42h1M28 42h1M23 43h1M23 44h1M23 45h1M24 46h1M24 47h1M25 48h1M33 48h1M25 49h1M26 50h1M27 51h1M28 52h1M29 53h1M63 63h4M57 64h2M67 64h2M56 65h1M69 65h1M55 66h1M70 66h1M54 67h1M61 67h1M70 67h1M54 68h1M57 68h1M60 68h1M71 68h1M53 69h1M57 69h1M60 69h1M71 69h1M53 70h1M65 70h2M53 71h1M61 71h4M53 72h1M67 73h1" />
<path stroke="#b44a29" d="M27 37h1M26 38h1M28 40h1M25 41h1M35 41h1M24 42h1M29 42h1M24 43h1M30 43h1M24 44h1M31 44h1M36 44h1M24 45h1M32 45h1M36 45h1M36 46h1M33 47h1M36 47h1M36 48h1M35 49h2M34 50h3M28 51h1M34 51h3M29 52h1M33 52h3M30 53h6M59 63h4M64 64h3M58 65h1M63 65h1M58 66h1M62 66h1M57 67h1M54 69h2M68 69h3M54 70h3M67 70h1M54 71h3M54 72h1M61 72h2M61 73h4M58 74h6" />
<path stroke="#de7352" d="M28 37h3M27 38h6M26 39h8M25 40h3M29 40h6M26 41h9M25 42h1M30 42h6M31 43h5M32 44h4M33 45h3M33 46h3M34 47h2M34 48h2M34 49h1M59 64h5M57 65h1M59 65h4M64 65h5M56 66h2M59 66h3M63 66h7M55 67h2M58 67h3M62 67h8M55 68h2M58 68h2M61 68h10M56 69h1M58 69h2M61 69h7M61 70h4M68 70h3M65 71h6M63 72h7M65 73h2" />
<path stroke="#deb400" d="M39 37h1M41 37h1M55 37h1M38 38h1M42 38h1M38 39h1M44 39h1M46 39h1M46 40h1M53 40h1M37 41h1M45 41h1M36 42h1M59 42h2M36 43h1M58 43h3M38 44h1M43 44h1M58 44h2M37 45h2M39 46h1M42 46h1M40 47h2M58 50h2M58 51h2" />
<path stroke="#ffd500" d="M40 37h1M54 37h1M39 38h3M53 38h3M39 39h1M42 39h1M45 39h1M53 39h3M38 40h1M43 40h3M54 40h1M38 41h1M43 41h2M37 42h2M43 42h1M37 43h2M43 43h1M37 44h1M39 44h1M42 44h1M39 45h4M40 46h2" />
<path stroke="#ffffff" d="M40 39h2M39 40h4M39 41h4M39 42h1M41 42h2M26 43h2M39 43h4M27 44h1M40 44h2M27 45h1M31 45h1M31 46h1M30 47h3M26 48h2M27 49h1M31 50h1M31 51h2" />
<path stroke="#bdbdbd" d="M26 44h1M30 46h1M32 46h1M26 47h1M32 48h1M32 50h1" />
</svg>