<svg xmlns="http://www.w3.org/2000/svg" viewBox="0 -0.5 96 96" shape-rendering="crispEdges">
<metadata>Made with Pixels to Svg https://codepen.io/shshaw/pen/XbxvNj</metadata>
<path stroke="#836a41" d="M38 11h2M36 12h2M47 12h2M34 13h2M45 13h2M33 14h1M36 14h1M42 14h3M32 15h3M41 15h1M45 15h2M31 16h1M41 16h2M31 17h1M34 17h1M40 17h1M31 18h1M40 18h1M29 19h2M32 19h1M38 19h2M28 20h1M37 20h1M28 21h1M32 21h1M40 21h1M29 22h1M31 22h1M36 22h1M34 23h2M27 24h1M33 24h1M26 26h1M31 26h1M26 27h1M30 27h1M33 27h2M26 28h1M29 28h1M31 29h1M31 30h1M54 39h1M50 41h1M49 42h1M53 42h1M48 43h1M47 45h1M52 45h1M46 46h1M55 46h4M45 47h1M52 47h3M45 48h1M51 48h1M44 49h1M43 50h1M43 51h1M42 52h1M53 52h1M42 53h1M53 53h4M45 54h1M48 54h1M43 55h2M42 56h1M50 56h1M50 57h1" />
<path stroke="#ac9439" d="M38 12h1M36 13h2M34 14h2M45 14h1M42 15h1M32 16h2M43 16h1M32 17h2M32 18h3M41 18h1M31 19h1M33 19h1M29 20h4M42 20h1M29 21h3M37 21h1M30 22h1M38 22h2M28 23h2M36 23h1M34 24h1M27 25h3M35 25h1M33 26h1M27 27h1M31 28h1M53 39h1M52 40h1M51 41h1M47 44h1M51 49h1M52 53h1M41 54h1M41 55h1M41 56h1" />
<path stroke="#000000" d="M39 12h1M49 12h1M38 13h1M48 13h1M37 14h1M47 14h1M35 15h1M34 16h1M44 16h1M35 17h1M43 17h1M35 18h1M44 18h1M34 19h1M44 19h1M33 20h1M43 20h1M41 21h2M40 22h1M31 23h1M39 23h1M30 24h1M39 24h1M37 25h2M35 26h2M39 26h1M43 26h1M42 27h1M42 28h1M30 30h1M41 30h1M35 31h1M41 31h1M35 32h1M30 34h1M40 34h1M34 35h1M40 35h1M29 36h2M34 36h1M40 36h1M34 37h1M40 37h1M40 38h1M30 39h1M40 39h1M54 40h1M71 40h1M54 41h1M70 41h1M41 42h1M69 42h1M32 43h1M41 43h1M53 43h1M31 44h1M41 44h1M53 44h1M68 44h1M31 45h1M42 45h1M67 45h1M31 46h1M42 46h1M52 46h1M74 46h1M32 47h1M58 47h1M73 47h1M32 48h1M57 48h1M72 48h1M33 49h1M56 49h1M71 49h1M34 50h1M55 50h1M69 50h2M33 51h1M54 51h1M62 51h1M68 51h1M34 52h1M63 52h1M67 52h1M25 53h1M35 53h1M68 53h1M26 54h1M35 54h1M46 54h2M57 54h1M64 54h1M70 54h1M28 55h1M36 55h1M49 55h1M56 55h1M64 55h1M71 55h1M33 56h2M36 56h1M54 56h2M67 56h4M33 57h1M35 57h2M52 57h2M65 57h1M50 58h2M65 58h3M32 59h1M65 59h1M31 60h1M56 60h1M65 60h1M50 61h1M56 61h1M65 61h1M50 62h1M52 62h2M65 62h1M27 63h1M34 63h1M50 63h1M54 63h2M57 63h1M65 63h1M26 64h1M36 64h3M58 64h1M65 64h1M35 65h1M49 65h1M58 65h1M34 66h1M49 66h1M59 66h1M66 66h1M33 67h1M42 67h1M49 67h1M66 67h1M32 68h1M49 68h1M60 68h1M66 68h1M32 69h1M43 69h1M49 69h1M61 69h1M67 69h1M25 70h1M33 70h1M43 70h1M50 70h1M68 70h1M33 71h1M43 71h1M50 71h1M68 71h1M26 72h1M34 72h1M50 72h1M62 72h1M27 73h1M34 73h1M44 73h1M51 73h1M62 73h1M69 73h1M27 74h1M35 74h1M44 74h1M51 74h1M62 74h1M69 74h1M27 75h1M36 75h1M44 75h1M51 75h1M62 75h1M69 75h1M28 76h1M37 76h1M44 76h1M51 76h1M70 76h1M28 77h1M37 77h1M44 77h1M52 77h1M70 77h1M28 78h1M38 78h1M44 78h1M52 78h1M70 78h1M38 79h1M43 79h1M52 79h1M63 79h2M70 79h1M37 80h1M43 80h1M53 80h1M65 80h1M71 80h1M37 81h1M42 81h1M46 81h2M53 81h1M71 81h1M36 82h1M48 82h1M53 82h1M67 82h1M70 82h1M33 83h3M53 83h1M63 83h4M68 83h2M29 84h4M50 84h3M42 85h4M47 85h3" />
<path stroke="#e6cd7b" d="M47 13h1M46 14h1M43 15h2M41 17h2M42 18h2M40 19h4M38 20h4M38 21h2M37 22h1M30 23h1M37 23h2M28 24h2M35 24h4M33 25h2M36 25h1M27 26h2M32 26h1M34 26h1M31 27h2M30 28h1M53 40h1M52 41h2M50 42h3M49 43h4M48 44h5M48 45h4M47 46h5M46 47h6M55 47h3M46 48h5M52 48h5M45 49h6M52 49h4M44 50h11M44 51h10M43 52h10M43 53h9M42 54h3M49 54h8M42 55h1M50 55h6M51 56h3M51 57h1" />
<path stroke="#393941" d="M30 25h3M29 26h1M28 27h1M32 28h2M25 29h1M34 29h1M23 30h2M67 70h1M53 71h1M52 72h1M54 72h1M68 72h1M50 73h1M54 73h1M67 73h1M50 74h1M53 74h1M63 75h1M61 79h2M28 80h3M44 80h2M66 80h1M32 81h1M67 81h1M33 82h1M59 82h1M49 83h1M60 83h3M67 83h1M27 84h2M41 85h1M46 85h1" />
<path stroke="#08525a" d="M41 25h3M40 26h1M38 27h2M37 28h1M36 29h1M41 29h1M35 30h1M40 32h1M24 33h1M34 33h1M40 33h1M25 34h1M34 34h1M29 37h1M31 37h1M29 38h1M31 38h1M33 38h1M33 39h1M33 40h1M40 40h1M32 41h1M41 41h1M32 42h1M43 47h1M44 48h1M56 50h5M61 51h1M63 53h1M28 56h1M64 56h1M28 57h1M57 57h1M28 58h1M56 58h1M29 59h1M56 59h1M29 60h1M39 60h1M50 60h1M28 61h1M39 61h1M28 62h1M32 62h1M39 62h1M57 62h1M33 63h1M40 63h1M51 63h1M53 63h1M35 64h1M39 64h2M49 64h1M53 64h1M56 64h2M25 65h1M41 65h1M53 65h1M65 65h1M24 66h1M42 66h1M52 66h1M24 67h1M52 67h1M60 67h1M24 68h1M43 68h1M52 68h1M25 69h1M52 69h1M53 70h1M62 70h1M26 71h1M62 71h1M44 72h1M55 74h1M55 75h1M55 76h1M62 76h1M55 77h1M61 77h1M55 78h1M61 78h1M54 79h1" />
<path stroke="#525252" d="M30 26h1M37 26h2M35 27h3M27 28h1M26 29h1M30 29h1M28 34h2M37 39h1M35 40h1M37 41h1M36 43h1M62 56h1M60 58h1M63 58h1M62 60h1M66 71h1M32 72h1M49 72h1M53 72h1M66 72h1M32 73h1M48 73h1M52 73h2M63 73h1M65 73h1M28 74h1M31 74h1M45 74h1M47 74h1M52 74h1M64 74h1M67 74h1M30 75h1M33 75h1M46 75h1M49 75h1M66 75h1M32 76h1M48 76h1M64 76h2M29 77h1M31 77h1M45 77h1M47 77h1M30 78h1M46 78h1M31 80h1M60 80h1M64 80h1M27 81h1M59 81h1M64 81h3M26 82h1M41 82h1M47 82h1M63 82h4M26 83h1M40 83h1M47 83h2M40 84h1M47 84h3" />
<path stroke="#18acb4" d="M41 26h2M40 27h2M34 28h3M38 28h4M35 29h1M37 29h4M36 30h5M36 31h5M36 32h4M35 33h5M35 34h5M35 35h5M35 36h5M35 37h2M38 37h2M34 38h2M38 38h2M34 39h1M38 39h2M34 40h1M37 40h3M33 41h4M38 41h3M33 42h3M38 42h3M33 43h3M37 43h4M32 44h9M32 45h10M32 46h10M33 47h10M33 48h11M34 49h10M35 50h8M34 51h9M55 51h6M35 52h7M54 52h9M36 53h6M57 53h6M36 54h5M58 54h6M37 55h4M45 55h4M57 55h7M37 56h4M43 56h7M56 56h6M63 56h1M37 57h3M41 57h9M54 57h3M58 57h4M64 57h1M38 58h2M41 58h9M52 58h3M57 58h3M61 58h2M64 58h1M40 59h10M57 59h3M62 59h3M40 60h10M57 60h4M63 60h2M40 61h10M57 61h4M63 61h2M40 62h10M58 62h4M63 62h2M41 63h9M58 63h7M41 64h8M59 64h6M42 65h7M59 65h6M26 66h5M43 66h6M60 66h6M25 67h7M43 67h6M61 67h5M25 68h7M44 68h5M61 68h5M26 69h6M44 69h5M62 69h5M26 70h6M44 70h6M63 70h4M27 71h5M44 71h6M63 71h3M27 72h5M45 72h4M63 72h3M28 73h4M45 73h3M64 73h1M29 74h2M46 74h1" />
<path stroke="#6a6a6a" d="M29 27h1M28 28h1M27 29h3M25 30h3M37 37h1M36 38h2M35 39h2M36 40h1M36 42h2M62 57h2M60 59h2M61 60h1M61 61h2M62 62h1M67 71h1M33 72h1M67 72h1M33 73h1M49 73h1M66 73h1M32 74h2M48 74h2M63 74h1M65 74h2M28 75h2M31 75h2M45 75h1M47 75h2M64 75h2M29 76h3M45 76h3M30 77h1M46 77h1M61 80h3M28 81h4M43 81h3M60 81h4M27 82h6M42 82h5M60 82h3M27 83h6M41 83h6M41 84h6" />
<path stroke="#ffffff" d="M32 29h1M29 30h1M32 30h1M26 39h1M31 39h2M27 40h6M28 41h4M26 42h6M25 43h7M25 44h6M24 45h7M24 46h7M24 47h5M30 47h1M24 48h5M30 48h1M24 49h6M24 50h6M25 51h4M25 52h3M27 53h1" />
<path stroke="#8bb4c5" d="M33 29h1M28 30h1M33 30h1M32 31h1M24 32h1M31 32h1M25 33h1M28 33h1M33 33h1M32 35h1M31 36h1M58 45h1M65 47h1M57 49h1M70 49h1M65 53h3M65 54h4M65 55h6M65 56h1M66 57h1M34 74h1M54 74h1M52 75h3M52 76h3M53 77h2M29 78h1M53 78h2M53 79h1" />
<path stroke="#317b8b" d="M34 30h1M23 31h1M25 31h1M34 31h1M23 32h1M29 32h2M34 32h1M31 33h2M26 34h1M33 34h1M27 35h2M33 35h1M32 36h2M30 37h1M32 37h2M30 38h1M68 39h4M66 40h2M64 41h2M62 42h2M60 43h2M68 43h2M59 44h1M57 45h1M70 45h4M66 46h4M66 52h1M69 53h1M69 54h1M66 56h1M29 57h1M34 57h1M40 57h1M67 57h1M29 58h1M33 58h5M40 58h1M55 58h1M33 59h7M50 59h6M32 60h7M51 60h5M29 61h10M51 61h5M29 62h3M33 62h6M51 62h1M54 62h3M28 63h5M35 63h5M52 63h1M56 63h1M27 64h8M50 64h3M26 65h9M50 65h3M25 66h1M31 66h3M50 66h2M32 67h1M50 67h2M50 68h2M50 69h2M32 70h1M51 70h2M32 71h1M51 71h2M51 72h1M28 79h1M46 80h1" />
<path stroke="#c5deee" d="M24 31h1M26 31h6M33 31h1M25 32h4M32 32h2M26 33h2M29 33h2M27 34h1M31 34h2M29 35h3M68 40h3M66 41h4M64 42h5M62 43h6M60 44h8M59 45h8M59 46h7M70 46h4M59 47h6M66 47h7M58 48h14M58 49h12M61 50h8M63 51h5M64 52h2M64 53h1M68 73h1M68 74h1M34 75h2M50 75h1M67 75h2M33 76h4M49 76h2M63 76h1M66 76h4M32 77h5M48 77h4M62 77h8M31 78h7M45 78h1M47 78h5M62 78h8M29 79h9M44 79h8M65 79h5M32 80h5M47 80h6M67 80h4M33 81h4M48 81h5M68 81h3M34 82h2M49 82h4M68 82h2M50 83h3" />
<path stroke="#5a5a5a" d="M25 38h2M25 39h1M28 39h2M26 40h1M23 47h1M23 48h1M23 49h1M23 50h1M30 50h1M24 51h1M31 51h2M24 52h1M27 54h1M32 54h1M33 55h1M29 56h1M30 57h1M30 58h1M32 58h1M30 59h1M30 60h1" />
<path stroke="#bdbdbd" d="M27 38h1M32 38h1M27 39h1M26 41h2M25 42h1M24 43h1M24 44h1M23 45h1M23 46h1M29 47h1M31 47h1M29 48h1M31 48h1M30 49h3M31 50h3M29 51h2M28 52h6M26 53h1M28 53h7M28 54h4M33 54h2M29 55h4M34 55h2M30 56h3M35 56h1M31 57h2M31 58h1M31 59h1" />
</svg>