<svg xmlns="http://www.w3.org/2000/svg" viewBox="0 -0.5 96 96" shape-rendering="crispEdges">
<metadata>Made with Pixels to Svg https://codepen.io/shshaw/pen/XbxvNj</metadata>
<path stroke="#737362" d="M48 27h2M44 28h2M48 28h1M50 28h1M44 29h1M46 29h2M50 29h1M53 29h2M44 30h1M47 30h1M51 30h1M54 30h1M43 31h2M54 31h1M41 32h2M54 32h1M55 33h1M41 34h1M56 34h1M42 35h1M57 35h1M42 36h1M57 36h1M41 37h1M58 37h1M40 38h1M58 38h1M40 39h1M39 40h1M56 40h1M39 41h1M43 41h1M42 42h1M58 42h1M46 43h1M58 43h4M36 44h1M41 44h1M58 44h1M35 45h3M41 45h1M34 46h1M41 46h1M54 48h1M47 49h1M53 49h1M49 50h3" />
<path stroke="#ffffd9" d="M49 28h1M45 29h1M49 29h1M45 30h2M48 30h3M53 30h1M45 31h6M52 31h2M43 32h1M45 32h9M41 33h12M42 34h11M54 34h2M43 35h14M43 36h14M42 37h16M41 38h17M41 39h17M40 40h16M57 40h1M40 41h3M44 41h11M39 42h3M46 42h8M37 43h4M47 43h7M56 43h1M38 44h3M49 44h5M56 44h1M59 44h2M40 45h1M46 45h1M48 45h2M35 46h3M45 46h1M48 46h2" />
<path stroke="#bfbfa3" d="M48 29h1M52 30h1M51 31h1M44 32h1M53 33h2M53 34h1M58 39h1M58 40h1M55 41h1M58 41h1M45 42h1M54 42h1M56 42h1M41 43h1M37 44h1M46 44h1M48 44h1M38 45h2M50 45h1M53 45h1M56 45h1M58 45h1M38 46h3M46 46h1M54 46h1M57 46h1M37 47h5M44 47h2M47 47h4M53 47h4M40 48h3M46 48h8M55 48h1M42 49h5M48 49h5M45 50h4M38 59h2M38 60h2M38 61h2" />
<path stroke="#292933" d="M55 32h3M38 33h3M58 33h1M37 34h1M59 34h1M36 35h1M59 35h1M36 36h1M35 37h1M35 38h1M35 39h1M36 40h1M56 41h1M37 42h2M44 42h1M55 42h1M45 43h1M54 43h1M47 44h1M53 46h1M51 47h2M43 51h3M44 52h8M44 53h1M47 53h5M53 53h1M54 54h2M54 55h2M42 56h2M41 57h3M40 58h1M42 58h1M44 58h1M55 58h1M56 59h1M53 60h1M57 60h1M55 65h1M40 66h3M53 66h2M41 67h1M43 67h1" />
<path stroke="#474759" d="M56 33h2M38 34h3M57 34h2M37 35h5M58 35h1M37 36h5M58 36h1M36 37h5M36 38h4M36 39h4M37 40h2M37 41h2M57 41h1M43 42h1M57 42h1M42 43h1M57 43h1M42 44h1M57 44h1M42 45h1M47 45h1M51 45h2M54 45h1M57 45h1M42 46h1M47 46h1M50 46h3M55 46h2M42 47h2M46 47h1M43 48h3M42 51h1M40 52h4M39 53h5M45 53h2M39 54h4M44 54h8M39 55h4M44 55h2M47 55h3M51 55h1M40 56h2M48 56h1M51 56h1M48 57h1" />
<path stroke="#101010" d="M59 36h1M59 37h1M59 38h1M59 39h1M59 40h1M36 41h1M59 41h1M36 42h1M59 42h1M36 43h1M43 43h2M55 43h1M43 44h3M54 44h2M61 44h1M43 45h3M55 45h1M59 45h2M43 46h2M58 46h1M35 47h2M57 47h1M37 48h3M56 48h1M40 49h2M42 50h3M40 51h2M46 51h6M39 52h1M52 52h2M38 53h1M52 53h1M54 53h3M38 54h1M43 54h1M53 54h1M56 54h1M38 55h1M43 55h1M53 55h1M56 55h1M39 56h1M44 56h1M54 56h2M39 57h2M44 57h1M54 57h1M38 58h2M41 58h1M43 58h1M54 58h1M37 59h1M40 59h3M37 60h1M40 60h1M37 61h1M52 61h1M57 61h1M38 62h2M50 62h2M57 62h1M39 63h1M47 63h3M51 63h1M56 63h1M39 64h1M45 64h2M50 64h1M55 64h1M40 65h1M44 65h1M50 65h1M53 65h2M56 65h1M39 66h1M43 66h2M51 66h2M55 66h2M39 67h2M42 67h1M44 67h1M53 67h3M40 68h4" />
<path stroke="#1b5930" d="M54 49h2M52 50h1M56 50h1M52 51h1M57 51h1M57 52h1" />
<path stroke="#36b35f" d="M53 50h3M53 51h4M54 52h3" />
<path stroke="#505059" d="M52 54h1M50 55h1M45 56h1M47 56h1M49 56h1M53 56h1M51 57h1M48 58h1M53 59h3M54 60h3M40 61h2M53 61h4M40 62h4M52 62h5M40 63h7M52 63h4M40 64h5M51 64h4M41 65h3M51 65h2" />
<path stroke="#737380" d="M46 55h1M52 55h1M46 56h1M50 56h1M52 56h1M45 57h3M49 57h2M52 57h2M45 58h3M49 58h5M43 59h10M41 60h12M42 61h10M44 62h6" />
</svg>