<svg xmlns="http://www.w3.org/2000/svg" viewBox="0 -0.5 96 96" shape-rendering="crispEdges">
<metadata>Made with Pixels to Svg https://codepen.io/shshaw/pen/XbxvNj</metadata>
<path stroke="#4f4f48" d="M39 18h3M37 19h2M29 20h2M36 20h1M42 20h3M29 21h1M35 21h1M29 22h1M34 22h1M45 22h4M29 23h1M34 23h1M49 23h1M30 24h1M30 25h1M27 26h2M30 26h1M27 27h1M29 27h1M49 27h3M27 28h1M28 29h1M29 30h1M30 32h1M29 33h1M28 34h1M28 35h1M64 36h1M63 37h1M63 38h1M63 39h1M46 40h1M63 40h1M32 41h1M37 41h1M40 41h1M46 41h1M63 41h1M32 42h1M38 42h1M40 42h1M46 42h1M63 42h1M32 43h1M38 43h1M40 43h1M63 43h1M31 44h1M40 44h1M63 44h1M31 45h1M36 45h1M39 45h1M62 45h1M31 46h1M36 46h1M39 46h1M48 46h4M60 46h1M62 46h1M35 47h1M39 47h1M59 47h1M35 48h1M39 48h1M59 48h1M30 49h1M39 49h1M51 49h2M58 49h1M30 50h1M32 50h3M39 50h1M58 50h1M30 51h1M32 51h1M39 51h1M58 51h1M30 52h1M33 52h1M39 52h1M30 53h1M30 54h1M40 54h1M34 55h1M40 55h1M61 55h1M65 55h2M33 56h1M40 56h1M40 57h1M62 57h1M34 58h1M37 58h1M41 58h3M62 58h1M34 59h1M36 59h1M62 59h1M34 60h3M37 61h1M38 62h1M39 63h1M43 63h1M50 63h1M41 64h1M43 64h1M50 64h1M40 65h1M43 65h1M39 66h1M39 67h1M41 68h1M41 69h1M69 69h1M35 70h1M41 70h1M52 70h1M68 70h1M35 71h1M51 71h1M67 71h1M35 72h1M50 72h1M34 73h1M53 75h1" />
<path stroke="#efeeda" d="M39 19h2M37 20h4M30 21h1M36 21h4M41 21h3M30 22h2M35 22h4M41 22h2M30 23h2M35 23h3M40 23h2M43 23h6M31 24h1M34 24h4M39 24h2M42 24h8M31 25h2M34 25h3M38 25h11M31 26h2M34 26h13M28 27h1M31 27h14M28 28h2M31 28h21M29 29h25M30 30h2M33 30h4M38 30h14M33 31h5M40 31h2M45 31h4M50 31h1M31 32h1M33 32h7M42 32h2M45 32h3M49 32h1M51 32h1M30 33h2M33 33h4M38 33h5M44 33h3M48 33h1M50 33h1M29 34h2M32 34h1M34 34h2M39 34h2M43 34h3M32 35h1M34 35h2M40 35h3M44 35h1M43 36h2M41 37h4M64 37h1M41 38h5M64 38h2M41 39h5M64 39h2M41 40h5M64 40h3M68 40h1M41 41h5M64 41h3M68 41h1M41 42h5M64 42h3M68 42h2M41 43h5M64 43h4M69 43h1M41 44h6M64 44h4M69 44h1M40 45h7M63 45h5M69 45h1M38 46h1M40 46h8M63 46h5M69 46h1M36 47h2M40 47h11M60 47h1M62 47h8M36 48h3M40 48h10M60 48h1M62 48h8M35 49h4M40 49h9M59 49h2M62 49h6M35 50h4M40 50h7M50 50h3M59 50h7M67 50h1M33 51h2M36 51h3M40 51h12M59 51h6M66 51h1M34 52h2M37 52h2M40 52h11M60 52h6M34 53h3M38 53h1M41 53h7M52 53h8M61 53h4M36 54h4M41 54h10M52 54h9M62 54h1M37 55h3M41 55h8M51 55h10M34 56h2M37 56h3M41 56h6M50 56h12M36 57h2M39 57h1M41 57h4M48 57h14M35 58h2M38 58h3M45 58h17M35 59h1M39 59h22M40 60h21M43 61h12M56 61h4M44 62h6M51 62h2M56 62h3M44 63h6M44 64h6M41 65h1M45 65h4M40 66h1M45 66h4M42 67h1M45 67h4M42 68h1M45 68h4M45 69h4M65 69h1M45 70h5M64 70h1M66 70h1M69 70h1M45 71h5M52 71h1M63 71h4M68 71h2M45 72h5M51 72h2M62 72h4M67 72h2M45 73h1M47 73h3M51 73h1M62 73h6M44 74h2M47 74h3M62 74h6M45 75h4M62 75h3M66 75h1M43 76h1M46 76h1M63 76h2M64 77h1" />
<path stroke="#121212" d="M41 19h1M31 21h1M44 21h1M32 22h1M32 23h1M50 23h1M33 24h1M51 24h2M53 25h1M52 26h1M52 28h2M54 29h1M53 30h1M30 31h1M52 31h1M41 32h1M44 32h1M53 32h1M43 33h1M52 33h1M52 34h1M29 35h2M33 35h1M37 35h2M53 35h1M31 36h2M34 36h1M41 36h2M54 36h1M28 37h2M31 37h1M35 37h1M40 37h1M52 37h3M65 37h1M27 38h1M30 38h1M40 38h1M49 38h1M51 38h1M66 38h1M28 39h4M40 39h1M48 39h1M50 39h2M66 39h1M68 39h1M32 40h6M40 40h1M48 40h1M67 40h1M69 40h1M35 41h1M39 41h1M48 41h1M69 41h1M35 42h1M48 42h1M70 42h1M36 43h1M47 43h1M70 43h1M36 44h1M47 44h1M70 44h1M47 45h1M70 45h1M70 46h1M31 47h1M51 47h1M61 47h1M70 47h1M31 48h1M50 48h1M70 48h1M34 49h1M50 49h1M53 49h1M69 49h1M49 50h1M53 50h1M69 50h1M52 51h1M69 51h1M51 52h1M53 52h5M68 52h1M33 53h1M50 53h1M68 53h1M34 54h1M51 54h1M67 54h1M30 55h1M50 55h1M67 55h2M30 56h1M48 56h2M68 56h1M31 57h1M34 57h1M47 57h1M66 57h2M32 58h2M63 58h3M63 60h1M36 61h1M63 61h1M36 62h1M63 62h1M36 63h1M54 63h2M63 63h1M36 64h1M52 64h2M56 64h1M64 64h1M36 65h1M50 65h2M56 65h1M64 65h1M36 66h1M42 66h1M44 66h1M49 66h1M52 66h1M57 66h1M65 66h1M36 67h1M40 67h2M44 67h1M49 67h1M53 67h1M58 67h1M65 67h1M36 68h1M44 68h1M49 68h1M54 68h1M59 68h1M66 68h1M36 69h1M44 69h1M49 69h1M55 69h1M60 69h1M66 69h1M70 69h1M43 70h2M50 70h1M53 70h1M55 70h1M60 70h1M67 70h1M70 70h1M42 71h1M44 71h1M50 71h1M53 71h1M55 71h1M61 71h1M70 71h1M44 72h1M53 72h1M56 72h1M61 72h1M70 72h1M44 73h1M52 73h1M56 73h1M61 73h1M69 73h1M34 74h1M43 74h1M53 74h1M55 74h1M61 74h1M69 74h1M33 75h1M43 75h1M54 75h3M61 75h1M69 75h1M32 76h1M42 76h1M44 76h1M47 76h1M52 76h1M54 76h1M58 76h2M61 76h2M65 76h1M69 76h1M32 77h1M35 77h1M40 77h2M43 77h1M48 77h1M50 77h1M52 77h1M54 77h5M60 77h1M66 77h1M69 77h1M33 78h7M43 78h1M49 78h1M51 78h2M60 78h1M66 78h3M43 79h6M61 79h5" />
<path stroke="#767567" d="M41 20h1M40 21h1M43 22h1M33 25h1M30 28h1M39 31h1M42 31h3M32 32h1M40 32h1M32 33h1M37 33h1M42 34h1M39 35h1M43 35h1M40 36h1M45 36h1M50 36h1M48 37h1M51 37h1M46 38h1M46 39h1M38 41h1M67 41h1M37 42h1M67 42h1M68 43h1M68 44h1M61 48h1M48 50h1M35 51h1M36 52h1M58 52h1M39 53h1M49 53h1M61 54h1M35 55h1M45 57h2M44 58h1M54 64h2M52 65h4M53 66h4M54 67h4M55 68h4M56 69h4M56 70h4M56 71h5M57 72h4M57 73h4M56 74h5M57 75h4M60 76h1" />
<path stroke="#c4c0a8" d="M39 22h2M44 22h1M38 23h2M42 23h1M32 24h1M38 24h1M41 24h1M50 24h1M37 25h1M49 25h4M33 26h1M47 26h5M30 27h1M45 27h4M32 30h1M37 30h1M52 30h1M31 31h2M38 31h1M49 31h1M51 31h1M48 32h1M50 32h1M52 32h1M47 33h1M49 33h1M51 33h1M31 34h1M33 34h1M36 34h1M41 34h1M46 34h6M31 35h1M36 35h1M45 35h8M35 36h1M46 36h4M51 36h3M45 37h3M49 37h2M47 38h2M50 38h1M47 39h1M47 40h1M33 41h2M36 41h1M47 41h1M33 42h2M36 42h1M39 42h1M47 42h1M33 43h3M37 43h1M39 43h1M46 43h1M32 44h4M37 44h3M32 45h4M37 45h2M68 45h1M32 46h4M37 46h1M68 46h1M32 47h3M38 47h1M32 48h3M31 49h3M49 49h1M61 49h1M68 49h1M31 50h1M47 50h1M66 50h1M68 50h1M31 51h1M65 51h1M67 51h2M31 52h2M52 52h1M59 52h1M66 52h2M31 53h2M37 53h1M40 53h1M48 53h1M51 53h1M60 53h1M65 53h3M31 54h3M35 54h1M63 54h4M31 55h3M36 55h1M49 55h1M62 55h3M31 56h2M36 56h1M47 56h1M62 56h6M32 57h2M35 57h1M38 57h1M63 57h3M37 59h2M61 59h1M37 60h3M61 60h2M38 61h5M55 61h1M60 61h3M37 62h1M39 62h5M50 62h1M53 62h3M59 62h4M37 63h2M40 63h3M51 63h3M56 63h7M37 64h4M42 64h1M51 64h1M57 64h7M37 65h3M42 65h1M44 65h1M49 65h1M57 65h7M37 66h2M41 66h1M43 66h1M58 66h7M37 67h2M43 67h1M59 67h6M37 68h4M43 68h1M60 68h6M37 69h4M42 69h2M61 69h4M36 70h5M42 70h1M61 70h3M65 70h1M36 71h6M43 71h1M62 71h1M36 72h8M66 72h1M69 72h1M35 73h9M46 73h1M50 73h1M68 73h1M36 74h7M46 74h1M50 74h3M68 74h1M36 75h7M44 75h1M49 75h4M65 75h1M67 75h2M37 76h5M45 76h1M48 76h4M66 76h3M38 77h2M46 77h1M49 77h1M51 77h1M67 77h2" />
<path stroke="#3d4045" d="M37 34h2M33 36h1M32 37h3M39 37h1M31 38h9M32 39h8M38 40h2M35 74h1M34 75h2M33 76h4M55 76h3M33 77h2M36 77h2M44 77h2M47 77h1M61 77h3M65 77h1M44 78h5M61 78h5" />
<path stroke="#fc362c" d="M36 36h2M37 37h1" />
<path stroke="#ffffff" d="M38 36h2M36 37h1" />
<path stroke="#aaaec1" d="M38 37h1M28 38h2" />
</svg>