<svg xmlns="http://www.w3.org/2000/svg" viewBox="0 -0.5 96 96" shape-rendering="crispEdges">
<metadata>Made with Pixels to Svg https://codepen.io/shshaw/pen/XbxvNj</metadata>
<path stroke="rgba(100,113,115,0.996078431372549)" d="M29 24h2M61 24h2M28 25h1M31 25h1M60 25h1M63 25h1M28 26h1M59 26h1M63 26h1M27 27h1M58 27h1M27 28h1M47 31h2M43 32h2M41 33h2M40 34h1M39 35h1M38 36h1M38 37h1M37 38h1M37 39h1M52 39h1M36 40h1M41 40h1M52 40h1M31 41h1M36 41h1M40 41h1M51 41h1M32 42h1M36 42h1M40 42h1M51 42h1M33 43h2M40 43h1M51 43h1M39 44h1M51 44h1M61 44h1M39 45h1M62 45h2M64 46h1M65 47h1M66 48h1M66 49h1M67 50h1M64 51h1M67 51h1M65 52h1M67 52h1M36 53h1M65 53h1M37 54h1M48 54h1M66 54h1M36 55h1M66 55h1M35 56h1M66 56h1M36 57h4M44 57h1M33 58h1M39 58h1M44 58h2M32 59h1M38 59h1M38 60h1M63 64h1M64 65h1M64 66h1" />
<path stroke="rgba(251,251,251,0.996078431372549)" d="M29 25h2M29 26h2M60 26h2M28 27h4M59 27h3M28 28h1M47 33h1M42 34h2M46 34h3M40 35h4M45 35h4M32 36h2M39 36h10M54 36h1M30 37h2M39 37h4M44 37h4M55 37h2M38 38h4M43 38h5M57 38h1M33 39h1M38 39h3M43 39h4M53 39h1M31 40h4M37 40h3M42 40h5M53 40h2M32 41h2M37 41h2M42 41h4M52 41h3M33 42h1M41 42h4M52 42h2M41 43h4M52 43h1M40 44h4M40 45h2M59 45h1M59 46h1M62 46h2M60 47h1M63 47h2M60 48h1M63 48h3M60 49h1M63 49h3M60 50h1M65 50h2M60 51h1M63 51h1M66 51h1M63 52h2M37 53h1M63 53h2M38 54h1M63 54h3M37 55h4M64 55h2M36 56h3M42 56h2M46 56h2M65 56h1M40 57h3M45 57h2M65 57h1M40 58h2M33 59h2M39 59h2M61 59h1M32 60h2M61 60h1M61 61h1M63 61h1M64 62h1M60 63h1M64 63h1M62 64h1M61 65h3M61 66h3M62 67h3M62 68h3M63 69h2M63 70h1M63 71h1M63 72h1" />
<path stroke="rgba(190,197,197,0.996078431372549)" d="M61 25h2M31 26h1M62 26h1M32 27h1M62 27h1M62 28h1M47 32h4M43 33h4M49 33h2M41 34h1M44 34h2M49 34h2M44 35h1M49 35h1M31 36h1M34 36h1M49 36h1M55 36h1M43 37h1M48 37h2M57 37h1M42 38h1M48 38h1M58 38h1M34 39h1M41 39h2M47 39h2M58 39h1M40 40h1M47 40h1M55 40h1M34 41h1M41 41h1M46 41h1M55 41h2M34 42h1M45 42h1M54 42h2M53 43h1M60 46h1M59 47h1M64 50h1M65 51h1M60 52h1M66 52h1M60 53h1M66 53h1M39 54h1M49 54h1M59 54h2M41 55h10M59 55h1M62 55h2M39 56h3M44 56h2M48 56h1M62 56h3M43 57h1M62 57h3M42 58h1M61 58h1M63 58h3M64 59h2M34 60h1M63 60h1M65 60h1M65 61h1M60 62h2M63 62h1M63 63h1M58 64h2M64 64h1M55 65h4M60 66h1M57 67h5M58 68h4M58 69h5M59 70h4M59 71h4M60 72h3M60 73h3M61 74h2M61 75h1M40 76h2M40 77h2M49 77h2M49 78h2" />
<path stroke="rgba(26,27,26,0.996078431372549)" d="M32 26h1M33 27h1M63 27h1M34 28h1M57 28h1M63 28h1M35 29h1M56 29h1M63 29h1M36 30h1M55 30h1M63 30h1M37 31h1M49 31h3M54 31h1M63 31h1M38 32h1M45 32h2M51 32h1M53 32h1M62 32h1M34 33h1M51 33h1M62 33h1M34 34h1M51 34h1M62 34h1M35 35h1M50 35h1M61 35h1M35 36h1M50 36h1M61 36h1M35 37h1M50 37h1M60 37h1M35 38h1M49 38h1M59 38h1M35 39h1M49 39h1M59 39h1M35 40h1M48 40h1M58 40h1M35 41h1M39 41h1M47 41h1M57 41h1M35 42h1M37 42h2M46 42h1M56 42h1M35 43h1M45 43h1M54 43h2M44 44h1M52 44h2M55 44h1M42 45h2M55 45h2M39 46h3M55 46h1M55 47h1M55 48h1M54 49h1M54 50h1M53 51h1M52 52h1M50 53h1M67 53h1M40 54h8M50 54h1M67 54h1M51 55h1M67 55h1M49 56h1M57 56h3M47 57h2M66 57h1M43 58h1M46 58h1M66 58h1M41 59h2M66 59h1M36 60h2M39 60h2M51 60h2M66 60h1M32 61h4M39 61h1M50 61h1M66 61h1M50 62h1M50 63h1M50 64h1M51 65h4M65 65h1M52 66h1M55 66h1M65 66h1M53 67h1M56 67h1M65 67h1M37 68h2M53 68h1M57 68h1M65 68h1M50 69h1M57 69h1M65 69h1M44 70h1M50 70h1M58 70h1M64 70h1M43 71h1M50 71h1M58 71h1M64 71h1M43 72h1M50 72h1M59 72h1M64 72h1M43 73h1M46 73h1M50 73h1M59 73h1M63 73h1M39 74h1M43 74h1M47 74h1M51 74h1M60 74h1M63 74h1M39 75h1M42 75h1M47 75h1M51 75h1M60 75h1M62 75h1M39 76h1M42 76h1M47 76h1M51 76h1M60 76h2M39 77h1M42 77h1M48 77h1M51 77h1M40 78h2M48 78h1M51 78h1M49 79h2" />
<path stroke="#3375a0" d="M29 28h3M58 28h4M28 29h4M58 29h5M28 30h5M57 30h6M28 31h5M57 31h6M28 32h6M56 32h6M28 33h6M55 33h7M29 34h5M55 34h7M29 35h5M54 35h7M29 36h2M56 36h5M32 37h3M54 37h1M58 37h2M30 38h5M53 38h4M31 39h2M50 39h1M54 39h4M49 40h2M56 40h2M48 41h3M39 42h1M47 42h4M36 43h4M46 43h5M35 44h4M45 44h6M35 45h2M44 45h4M57 45h2M60 45h2M35 46h1M42 46h5M56 46h3M61 46h1M35 47h1M40 47h7M56 47h3M61 47h2M35 48h1M41 48h5M56 48h4M61 48h2M36 49h1M41 49h5M55 49h5M36 50h2M40 50h3M44 50h4M55 50h5M61 50h2M37 51h11M54 51h6M38 52h5M45 52h1M54 52h4M52 53h4M52 54h3M52 55h2M49 57h3M54 57h6M35 58h4M47 58h7M56 58h5M35 59h2M46 59h4M52 59h2M57 59h4M62 59h1M35 60h1M44 60h6M58 60h3M62 60h1M40 61h10M57 61h4M62 61h1M40 62h10M58 62h2M62 62h1M40 63h10M61 63h2M39 64h11M60 64h1M40 65h11M38 66h1M40 66h12M37 67h1M41 67h8M51 67h2M41 68h6" />
<path stroke="#1d577c" d="M32 28h2M33 29h2M34 30h2M34 31h3M55 31h2M35 32h3M54 32h1M35 33h4M53 33h1M35 34h5M52 34h2M34 35h1M36 35h3M51 35h2M36 36h2M51 36h2M36 37h2M51 37h2M36 38h1M50 38h2M36 39h1M51 39h1M51 40h1M54 44h1M51 45h4M36 46h1M47 46h1M51 46h4M39 47h1M52 47h3M40 48h1M46 48h1M52 48h3M40 49h1M46 49h1M52 49h2M61 49h2M38 50h2M43 50h1M48 50h1M51 50h3M63 50h1M48 51h5M61 51h2M46 52h6M53 52h1M58 52h2M61 52h2M40 53h10M56 53h4M61 53h2M51 54h1M55 54h4M61 54h2M54 55h5M60 55h2M52 56h2M60 56h2M37 59h1M43 59h3M50 59h2M41 60h3M51 61h2M51 62h7M51 63h9M51 64h7M61 64h1M39 65h1M59 65h2M39 66h1M56 66h4M38 67h1M40 67h1M50 67h1M40 68h1M47 68h3M40 69h4M45 69h5M40 70h4M46 70h4M40 71h3M46 71h4M40 72h3M47 72h3M40 73h3M47 73h3M40 74h3M48 74h3M40 75h2M48 75h3M48 76h3" />
<path stroke="#2c394a" d="M27 29h1M32 29h1M57 29h1M27 30h1M33 30h1M56 30h1M27 31h1M33 31h1M27 32h1M34 32h1M55 32h1M27 33h1M39 33h1M52 33h1M54 33h1M28 34h1M54 34h1M28 35h1M53 35h1M28 36h1M53 36h1M29 37h1M53 37h1M29 38h1M52 38h1M30 39h1M30 40h1M34 44h1M57 44h4M34 45h1M37 45h2M48 45h3M34 46h1M34 47h1M34 48h1M35 49h1M51 49h1M35 50h1M49 50h2M36 51h1M37 52h1M43 52h2M38 53h2M50 56h2M35 57h1M52 57h2M60 57h2M34 58h1M54 58h2M62 58h1M56 59h1M50 60h1M57 60h1M53 61h4M39 62h1M39 63h1M38 64h1M38 65h1M37 66h1M36 67h1M39 67h1M49 67h1M36 68h1M39 68h1M50 68h3M39 69h1M44 69h1M39 70h1M45 70h1M39 71h1M45 71h1M39 72h1M46 72h1M39 73h1" />
<path stroke="#fefefe" d="M48 33h1" />
<path stroke="#a7d6da" d="M37 46h1M49 46h2M36 47h1M47 47h1M50 47h2M36 48h1M39 48h1M47 48h1M50 48h2M39 49h1M47 49h1M50 49h1" />
<path stroke="#00863e" d="M38 46h1M48 46h1M37 47h1M49 47h1M37 48h1M49 48h1M38 49h1M48 49h1" />
<path stroke="#00bb46" d="M38 47h1M48 47h1M38 48h1M48 48h1M37 49h1M49 49h1" />
<path stroke="#1b1c1b" d="M51 53h1M54 56h3" />
<path stroke="#fbfbfb" d="M54 59h2M54 60h3" />
<path stroke="#6b787b" d="M63 59h1M64 60h1M64 61h1M65 62h1M65 63h1M65 64h1" />
<path stroke="#657274" d="M31 60h1" />
<path stroke="#bec5c5" d="M53 60h1" />
<path stroke="#ffffff" d="M95 74h1" />
</svg>