<svg xmlns="http://www.w3.org/2000/svg" viewBox="0 -0.5 96 96" shape-rendering="crispEdges">
<metadata>Made with Pixels to Svg https://codepen.io/shshaw/pen/XbxvNj</metadata>
<path stroke="#5f4f3f" d="M48 11h1M47 12h1M47 13h1M46 14h1M46 15h1M46 16h1M45 17h1M45 18h1M44 21h1M44 22h1M43 25h1M37 26h2M57 26h2M37 27h1M39 27h1M56 27h1M37 28h1M40 28h1M55 28h1M37 29h1M39 29h1M39 30h1M39 31h1M40 33h1M49 38h1M44 39h6M44 40h1M44 41h1M59 41h1M44 42h1M59 42h6M44 43h1M60 43h1M64 43h4M44 44h1M60 44h1M64 44h1M68 44h2M44 45h1M63 45h1M70 45h1M44 46h1M63 46h1M69 46h1M71 46h1M44 47h1M69 47h1M72 47h1M44 48h1M50 48h1M62 48h1M68 48h1M73 48h3M44 49h1M51 49h1M71 49h2M44 50h1M50 50h1M44 51h1M50 51h1M43 52h1M50 52h1M62 52h1M43 53h1M49 53h5M43 54h1M49 54h1M56 54h1M60 54h1M43 55h1M49 55h1M43 56h1M49 56h1M74 56h1M42 57h1M49 57h1M42 58h1M49 58h1M55 58h1M65 58h1M69 58h1M42 59h1M50 59h6M71 59h3M42 60h1M50 60h1M54 60h1M69 60h1M74 60h3M41 61h1M50 61h1M54 61h1M70 61h1M73 61h1M41 62h1M51 62h1M54 62h1M71 62h1M73 62h1M41 63h1M52 63h2M55 63h1M63 63h1M65 63h1M72 63h1M40 64h1M53 64h1M66 64h1M71 64h1M40 65h1M52 65h1M63 65h1M67 65h1M70 65h1M39 66h1M63 66h1M67 66h3M39 67h1M51 67h1M63 67h1M65 67h3M39 68h1M50 68h1M55 68h1M63 68h2M40 69h1M50 69h1M62 69h1M40 70h1M49 70h1M62 70h1M41 71h1M48 71h1M42 72h1M47 72h1M43 73h1M46 73h1M44 74h2" />
<path stroke="#efe681" d="M48 12h1M48 13h1M48 14h1M48 15h2M47 16h3M46 17h4M47 18h3M48 19h2M47 20h1M49 20h1M45 21h1M47 21h1M49 21h1M46 22h3M46 23h3M46 24h3M47 25h2M44 26h2M47 26h2M38 27h1M44 27h1M46 27h1M57 27h1M38 28h2M56 28h2M38 29h1M45 29h5M55 29h3M38 30h1M40 30h3M45 30h5M55 30h2M38 31h1M40 31h3M45 31h5M55 31h1M40 32h3M54 32h1M45 33h2M44 34h1M46 38h1M61 43h3M61 44h3M65 44h3M61 45h2M64 45h5M64 46h5M70 46h1M63 47h6M70 47h2M63 48h5M69 48h3M65 49h1M51 50h1M51 51h2M51 52h3M50 54h4M50 55h6M50 56h7M50 57h6M51 58h2M64 59h2M69 59h2M65 60h4M70 60h2M65 61h5M65 62h3" />
<path stroke="#101010" d="M49 12h1M49 13h1M49 14h1M50 15h1M50 16h1M50 17h1M50 18h1M45 19h1M50 19h1M45 20h1M51 20h1M51 21h1M51 22h1M44 23h1M51 23h1M44 24h1M51 24h1M52 25h1M43 26h1M52 26h1M43 27h1M52 27h1M58 27h1M42 28h9M52 28h1M58 28h1M40 29h2M51 29h4M58 29h1M37 30h1M54 30h1M58 30h1M37 31h1M53 31h1M58 31h1M37 32h1M44 32h6M53 32h1M57 32h2M35 33h3M41 33h2M50 33h4M56 33h1M59 33h3M34 34h1M38 34h1M40 34h1M53 34h1M56 34h1M62 34h3M33 35h1M37 35h4M52 35h1M54 35h6M65 35h3M31 36h2M36 36h1M40 36h2M51 36h1M54 36h1M60 36h4M68 36h3M30 37h1M34 37h2M41 37h1M51 37h1M53 37h1M64 37h3M71 37h2M29 38h1M33 38h1M41 38h1M50 38h1M53 38h1M67 38h3M73 38h2M28 39h1M32 39h1M41 39h1M50 39h1M52 39h1M70 39h2M75 39h2M27 40h1M31 40h1M42 40h1M50 40h1M52 40h1M72 40h2M77 40h1M26 41h1M30 41h1M42 41h1M49 41h1M52 41h1M74 41h1M78 41h1M25 42h1M29 42h1M42 42h1M49 42h1M51 42h1M75 42h1M79 42h1M25 43h1M28 43h1M42 43h1M49 43h1M51 43h1M76 43h1M80 43h1M24 44h1M27 44h1M42 44h1M49 44h2M73 44h1M76 44h1M80 44h1M24 45h1M27 45h1M42 45h1M49 45h1M74 45h2M80 45h1M23 46h1M26 46h1M42 46h1M49 46h1M75 46h1M80 46h1M23 47h1M26 47h1M42 47h1M49 47h1M76 47h1M79 47h1M22 48h1M26 48h1M42 48h1M48 48h1M76 48h1M79 48h1M22 49h1M26 49h1M42 49h1M48 49h1M77 49h2M22 50h1M26 50h1M42 50h1M47 50h1M63 50h1M77 50h2M21 51h1M25 51h1M41 51h1M47 51h1M63 51h1M77 51h1M21 52h1M25 52h1M41 52h1M47 52h1M78 52h1M21 53h1M25 53h1M41 53h1M46 53h1M62 53h1M78 53h1M20 54h1M25 54h1M41 54h1M46 54h1M55 54h1M61 54h1M78 54h1M20 55h1M25 55h1M41 55h1M46 55h1M57 55h3M75 55h1M78 55h1M20 56h1M25 56h1M40 56h1M46 56h1M73 56h1M78 56h1M19 57h1M25 57h1M40 57h1M46 57h1M72 57h1M78 57h1M19 58h1M25 58h1M40 58h1M46 58h1M78 58h1M18 59h1M25 59h1M40 59h1M47 59h1M77 59h1M18 60h1M25 60h1M39 60h1M47 60h1M77 60h1M18 61h1M25 61h1M39 61h1M47 61h1M77 61h1M17 62h1M25 62h1M39 62h1M48 62h1M76 62h1M17 63h1M25 63h1M38 63h1M48 63h1M54 63h1M64 63h1M76 63h1M17 64h1M25 64h1M38 64h1M49 64h1M55 64h1M63 64h1M75 64h1M17 65h1M25 65h1M37 65h1M50 65h1M55 65h1M62 65h1M74 65h1M16 66h1M25 66h1M37 66h1M51 66h1M61 66h1M73 66h1M16 67h1M26 67h1M36 67h1M52 67h1M59 67h2M72 67h1M16 68h1M26 68h1M36 68h1M53 68h1M56 68h3M71 68h1M16 69h1M26 69h1M36 69h1M54 69h2M69 69h2M16 70h1M26 70h1M37 70h2M52 70h2M56 70h3M66 70h3M15 71h1M26 71h1M38 71h1M52 71h1M59 71h7M15 72h1M26 72h1M38 72h1M52 72h1M15 73h1M26 73h1M38 73h1M52 73h1M15 74h1M26 74h1M39 74h2M49 74h3M15 75h1M26 75h1M40 75h1M49 75h1M14 76h1M26 76h1M40 76h1M49 76h1M14 77h1M18 77h1M41 77h1M48 77h1M14 78h1M18 78h1M21 78h1M27 78h1M42 78h1M47 78h1M14 79h1M17 79h1M21 79h1M24 79h1M27 79h1M43 79h1M46 79h1M14 80h1M17 80h1M21 80h1M24 80h1M27 80h1M44 80h2M14 81h1M17 81h1M21 81h1M24 81h1M27 81h1M14 82h1M17 82h1M20 82h1M24 82h1M27 82h1M15 83h1M17 83h1M20 83h1M24 83h1M27 83h1M16 84h2M20 84h1M24 84h1M18 85h1M20 85h1M24 85h1M28 85h1M19 86h2M24 86h1M28 86h1M21 87h4M28 87h1M24 88h5" />
<path stroke="#ffffff" d="M47 14h1M47 15h1M46 18h1M46 19h1M45 24h1M45 25h1M44 29h1M44 30h1M46 35h1M46 36h1" />
<path stroke="#9f8f5f" d="M47 19h1M46 20h1M48 20h1M46 21h1M48 21h1M45 22h1M49 22h1M45 23h1M49 23h1M49 24h1M44 25h1M46 25h1M50 25h1M46 26h1M50 26h1M45 27h1M47 27h1M51 27h1M51 28h1M42 29h1M50 29h1M53 30h1M39 32h1M43 32h1M43 35h1M49 35h1M53 35h1M43 36h1M49 36h1M52 36h1M51 38h1M45 40h5M45 41h4" />
<path stroke="#bfaf5f" d="M50 20h1M50 21h1M50 22h1M50 23h1M50 24h1M49 25h1M51 25h1M49 26h1M51 26h1M48 27h3M50 30h3M57 30h1M50 31h3M54 31h1M56 31h2M38 32h1M50 32h3M55 32h2M38 33h2M47 33h1M54 33h2M39 34h1M48 34h1M54 34h2M44 37h1M48 37h1M45 38h1M47 38h1M45 42h4M45 43h4M45 44h4M45 45h4M69 45h1M45 46h4M62 46h1M45 47h4M45 48h3M72 48h1M45 49h3M64 49h1M69 49h2M45 50h2M45 51h2M44 52h3M44 53h2M44 54h2M54 54h1M44 55h2M56 55h1M44 56h2M43 57h3M43 58h3M50 58h1M53 58h2M43 59h4M43 60h4M51 60h3M72 60h2M42 61h5M51 61h3M71 61h2M42 62h6M52 62h2M68 62h3M72 62h1M42 63h6M66 63h6M41 64h8M64 64h2M67 64h4M41 65h9M64 65h3M68 65h2M40 66h11M64 66h3M40 67h11M64 67h1M40 68h10M41 69h9M41 70h8M42 71h6M43 72h4M44 73h2" />
<path stroke="#fcfcfc" d="M43 29h1M43 30h1M43 31h2" />
<path stroke="#33333f" d="M43 33h2M48 33h2M57 33h2M35 34h3M41 34h3M49 34h4M57 34h5M34 35h3M41 35h2M50 35h2M60 35h5M33 36h3M42 36h1M50 36h1M64 36h4M31 37h3M43 37h1M49 37h2M67 37h4M30 38h3M43 38h2M48 38h1M70 38h3M29 39h3M59 39h7M72 39h3M28 40h3M56 40h3M66 40h3M74 40h3M27 41h3M54 41h2M69 41h2M75 41h3M26 42h3M53 42h1M71 42h1M76 42h3M26 43h2M52 43h1M72 43h1M77 43h3M25 44h2M51 44h1M54 44h4M77 44h3M25 45h2M50 45h1M53 45h8M76 45h4M24 46h2M53 46h4M59 46h3M76 46h4M24 47h2M53 47h2M58 47h1M62 47h1M77 47h2M23 48h3M53 48h2M57 48h1M77 48h2M23 49h3M53 49h1M57 49h3M63 49h1M66 49h3M23 50h3M52 50h2M57 50h4M64 50h2M69 50h2M22 51h3M53 51h1M57 51h4M71 51h2M22 52h3M54 52h1M58 52h2M63 52h1M71 52h4M22 53h3M54 53h1M63 53h1M67 53h2M72 53h4M21 54h4M62 54h1M64 54h1M66 54h4M72 54h5M21 55h4M60 55h3M65 55h5M72 55h3M21 56h4M57 56h7M66 56h3M71 56h2M20 57h5M56 57h2M61 57h3M71 57h1M20 58h5M63 58h2M70 58h1M19 59h6M63 59h1M66 59h3M19 60h6M58 60h2M64 60h1M19 61h6M57 61h4M64 61h1M18 62h7M57 62h4M64 62h1M18 63h7M58 63h3M18 64h7M59 64h1M18 65h7M56 65h1M58 65h1M61 65h1M17 66h3M24 66h1M55 66h6M17 67h2M25 67h1M55 67h4M17 68h2M21 68h2M25 68h1M17 69h2M21 69h3M17 70h2M22 70h2M17 71h7M18 72h5M19 73h3" />
<path stroke="#6f4f8f" d="M45 34h3M44 35h2M47 35h2M44 36h2M47 36h2M45 37h3M20 66h1M23 66h1M19 67h1M24 67h1M25 69h1M19 70h1M16 71h1M15 76h1M18 76h1M21 77h1M26 77h1M24 78h1M27 84h1" />
<path stroke="#a9b1b7" d="M53 36h1M52 37h1M42 38h1M52 38h1M42 39h1M51 39h1M43 40h1M51 40h1M43 41h1M51 41h1M43 42h1M50 42h1M43 43h1M50 43h1M43 44h1M43 45h1M43 46h1M43 47h1M43 48h1M43 49h1M43 50h1M42 51h2M42 52h1M42 53h1M42 54h1M42 55h1M41 56h2M41 57h1M41 58h1M41 59h1M40 60h2M40 61h1M40 62h1M39 63h2M39 64h1M38 65h2M38 66h1M52 68h1" />
<path stroke="#504e4f" d="M42 37h1M43 39h1M50 41h1M37 69h1M53 69h1M39 73h1M51 73h1" />
<path stroke="#aa9977" d="M59 40h1M65 40h1M58 41h1M68 41h1M65 42h1M59 43h1M68 43h1M53 44h1M58 44h1M55 47h1M61 47h1M75 47h1M49 48h1M54 49h1M73 49h1M62 50h1M71 50h1M54 51h1M61 51h2M64 51h1M70 51h1M49 52h1M55 52h3M60 52h2M77 52h1M47 53h1M55 53h7M66 53h1M69 53h1M57 54h3M71 54h1M63 55h1M70 55h2M76 55h2M64 56h2M69 56h2M75 56h3M47 57h1M64 57h7M73 57h5M47 58h1M56 58h1M62 58h1M66 58h3M71 58h7M49 59h1M74 59h3M60 60h1M48 61h1M63 61h1M74 61h3M61 62h3M74 62h2M49 63h1M51 63h1M56 63h2M61 63h2M73 63h3M50 64h3M54 64h1M56 64h3M60 64h3M72 64h3M51 65h1M53 65h2M57 65h1M59 65h2M71 65h3M52 66h3M62 66h1M70 66h3M53 67h2M61 67h2M68 67h4M54 68h1M59 68h4M65 68h6M56 69h6M63 69h6M59 70h3M63 70h3" />
<path stroke="#ddcc99" d="M60 40h5M56 41h2M60 41h8M54 42h5M66 42h5M53 43h6M69 43h3M52 44h1M59 44h1M70 44h3M51 45h2M71 45h3M50 46h3M57 46h2M72 46h3M50 47h3M56 47h2M59 47h2M73 47h2M51 48h2M55 48h2M58 48h4M49 49h2M52 49h1M55 49h2M60 49h3M74 49h3M48 50h2M54 50h3M61 50h1M66 50h3M72 50h5M48 51h2M55 51h2M65 51h5M73 51h4M48 52h1M64 52h7M75 52h2M48 53h1M64 53h2M70 53h2M76 53h2M47 54h2M63 54h1M65 54h1M70 54h1M77 54h1M47 55h2M64 55h1M47 56h2M48 57h1M58 57h3M48 58h1M57 58h5M48 59h1M56 59h7M48 60h2M55 60h3M61 60h3M49 61h1M55 61h2M61 61h2M49 62h2M55 62h2M50 63h1" />
<path stroke="#af6fcf" d="M21 66h2M20 67h4M19 68h2M23 68h2M19 69h2M24 69h1M20 70h2M24 70h2M24 71h2M16 72h2M23 72h3M16 73h3M22 73h4M16 74h10M16 75h10M16 76h2M19 76h7M15 77h3M19 77h2M22 77h4M15 78h3M19 78h2M22 78h2M25 78h2M15 79h2M18 79h3M22 79h2M25 79h2M15 80h2M18 80h3M22 80h2M25 80h2M15 81h2M18 81h3M22 81h2M25 81h2M15 82h2M18 82h2M21 82h3M25 82h2M16 83h1M18 83h2M21 83h3M25 83h2M18 84h2M21 84h3M25 84h2M19 85h1M21 85h3M25 85h3M21 86h3M25 86h3M25 87h3" />
<path stroke="#f0f0f0" d="M37 67h2M37 68h2M51 68h1M38 69h2M51 69h2M39 70h1M50 70h2M39 71h2M49 71h3M39 72h3M48 72h4M40 73h3M47 73h4M41 74h3M46 74h3M41 75h8M41 76h8M42 77h6M43 78h4M44 79h2" />
</svg>