<svg xmlns="http://www.w3.org/2000/svg" viewBox="0 -0.5 96 96" shape-rendering="crispEdges">
<metadata>Made with Pixels to Svg https://codepen.io/shshaw/pen/XbxvNj</metadata>
<path stroke="#807380" d="M42 31h2M41 32h1M54 32h2M41 33h1M53 33h1M40 34h1M53 34h1M40 35h1M52 35h1M39 36h1M52 36h1M55 36h1M37 37h3M51 37h1M36 38h1M39 38h1M49 38h3M36 39h1M39 39h1M48 39h1M51 39h1M36 40h1M40 40h1M45 40h4M51 40h1M37 41h1M40 41h1M43 41h2M48 41h1M52 41h1M54 41h1M37 42h1M41 42h1M48 42h1M52 42h1M55 42h1M38 43h1M49 43h1M52 43h1M38 44h2M49 44h1M52 44h1M37 45h1M50 45h1M37 46h1M36 47h1M46 53h2M51 53h1M39 54h1M45 54h1M48 54h3M40 55h1M44 55h1M41 56h3" />
<path stroke="#f2daf2" d="M42 32h1M42 33h2M54 33h2M41 34h3M54 34h2M41 35h2M53 35h3M40 36h3M53 36h2M40 37h3M52 37h3M37 38h2M40 38h2M52 38h2M37 39h2M40 39h1M49 39h2M52 39h2M37 40h3M49 40h2M52 40h1M38 41h2M45 41h3M49 41h2M38 42h3M42 42h6M49 42h3M54 42h1M39 43h10M50 43h2M53 43h3M40 44h9M50 44h2M53 44h4M39 45h11M51 45h6M38 46h3M42 46h16M37 47h4M42 47h5M48 47h10M38 48h3M42 48h5M48 48h6M56 48h3M38 49h9M48 49h5M57 49h2M39 50h14M57 50h2M39 51h13M58 51h1M39 52h13M58 52h1M39 53h7M48 53h3M40 54h5M41 55h3" />
<path stroke="#bfacbf" d="M43 32h1M54 38h1M41 39h1M41 40h1M53 40h1M41 41h2M51 41h1M53 41h1M53 42h1M38 45h1M41 46h1M47 47h1M58 53h1M58 54h1" />
<path stroke="#4d454d" d="M44 32h1M44 33h1M56 33h1M44 34h1M56 34h1M43 35h1M56 35h1M43 36h1M43 37h1M55 37h1M42 38h1M55 38h1M42 39h1M54 39h1M42 40h1M54 40h1M56 43h1M57 44h1M57 45h1M58 46h1M58 47h1M59 48h1M59 49h1M59 50h1M59 51h1M59 52h1M59 53h1M59 54h1" />
<path stroke="#101010" d="M41 47h1M41 48h1M47 48h1M47 49h1M57 61h3M55 62h2M40 63h2M52 63h3M42 64h10" />
<path stroke="#4d993d" d="M36 48h2M54 48h2M35 49h1M37 49h1M53 49h1M56 49h1M35 50h1M38 50h1M53 50h1M56 50h1M35 51h1M38 51h1M52 51h1M57 51h1M35 52h1M38 52h1M52 52h1M57 52h1M35 53h1M38 53h1M52 53h1M57 53h1M35 54h1M38 54h1M53 54h1M56 54h1M36 55h2M53 55h1M56 55h1M54 56h2" />
<path stroke="#66cc52" d="M36 49h1M54 49h2M36 50h2M54 50h2M36 51h2M53 51h4M36 52h2M53 52h4M36 53h2M53 53h4M36 54h2M54 54h2M54 55h2" />
<path stroke="#b8a1e5" d="M46 54h2M51 54h2M38 55h2M45 55h8M37 56h4M44 56h10M37 57h18M37 58h16M38 59h13M36 60h12M36 61h5M43 61h9M42 62h9M42 63h8" />
<path stroke="#8f7db3" d="M57 54h1M57 55h1M56 56h2M55 57h3M53 58h6M36 59h2M51 59h6M58 59h2M48 60h9M58 60h2M41 61h2M52 61h4M40 62h2M51 62h4M50 63h2" />
<path stroke="#665980" d="M58 55h1M36 56h1M58 56h1M36 57h1M58 57h1M36 58h1M59 58h1M57 59h1M60 59h1M35 60h1M57 60h1M60 60h1M35 61h1M56 61h1M36 62h4" />
</svg>