<svg xmlns="http://www.w3.org/2000/svg" viewBox="0 -0.5 96 96" shape-rendering="crispEdges">
<metadata>Made with Pixels to Svg https://codepen.io/shshaw/pen/XbxvNj</metadata>
<path stroke="#2d241b" d="M61 5h2M60 6h1M62 6h1M31 7h2M59 7h1M31 8h1M33 8h1M59 8h1M32 9h1M34 9h1M58 9h1M32 10h1M34 10h1M46 10h1M58 10h1M31 11h1M45 11h1M47 11h1M58 11h1M31 12h1M45 12h1M47 12h1M58 12h1M31 13h1M34 13h1M45 13h1M47 13h1M59 13h1M32 14h1M44 14h1M47 14h1M59 14h1M32 15h1M43 15h1M46 15h1M31 16h1M43 16h1M46 16h1M31 17h1M34 17h1M43 17h1M47 17h1M34 18h1M44 18h1M30 19h1M44 19h1M30 20h1M44 20h1M16 21h3M30 21h1M43 21h1M67 21h4M83 21h2M15 22h1M19 22h1M30 22h1M66 22h1M71 22h1M82 22h1M84 22h1M9 23h2M14 23h1M20 23h1M31 23h1M65 23h1M72 23h1M75 23h4M82 23h1M84 23h1M8 24h1M11 24h1M14 24h1M21 24h1M65 24h1M72 24h1M74 24h1M79 24h1M82 24h1M7 25h1M12 25h2M22 25h1M29 25h2M64 25h1M73 25h1M82 25h1M7 26h1M13 26h1M23 26h1M28 26h1M30 26h1M35 26h1M64 26h1M73 26h1M83 26h1M7 27h1M13 27h1M23 27h2M28 27h1M30 27h1M64 27h1M72 27h1M83 27h1M7 28h1M13 28h1M19 28h1M23 28h1M25 28h1M28 28h1M31 28h1M63 28h1M72 28h1M83 28h1M7 29h1M13 29h1M19 29h1M25 29h1M29 29h1M31 29h1M40 29h1M47 29h1M63 29h1M72 29h1M82 29h1M7 30h1M13 30h1M18 30h1M25 30h3M29 30h1M40 30h1M63 30h1M70 30h1M72 30h1M7 31h1M28 31h1M32 31h1M40 31h2M62 31h2M71 31h2M79 31h1M8 32h1M19 32h1M23 32h1M29 32h1M31 32h1M40 32h1M49 32h1M61 32h1M63 32h1M72 32h1M79 32h1M8 33h1M22 33h1M40 33h1M43 33h1M47 33h1M60 33h1M64 33h1M72 33h1M9 34h1M22 34h1M39 34h1M60 34h1M64 34h1M72 34h1M81 34h1M10 35h1M12 35h1M21 35h1M38 35h1M59 35h1M65 35h1M73 35h1M81 35h1M13 36h1M20 36h1M59 36h1M66 36h1M73 36h1M80 36h1M13 37h1M18 37h2M60 37h1M64 37h1M67 37h1M74 37h1M80 37h1M17 38h1M60 38h1M75 38h1M79 38h1M14 39h1M25 39h1M48 39h1M61 39h1M66 39h1M78 39h1M16 40h1M23 40h1M39 40h2M43 40h1M47 40h1M62 40h1M68 40h1M76 40h1M18 41h4M39 41h1M41 41h2M46 41h1M63 41h1M70 41h5M40 42h1M45 42h1M49 42h1M52 42h1M41 43h1M41 44h1M38 45h1M41 45h1M55 45h2M36 46h2M39 46h1M41 46h1M54 46h1M57 46h3M33 47h3M38 47h1M41 47h1M55 47h1M60 47h3M41 48h1M54 48h1M41 49h1M61 49h1M40 50h1M62 50h1M40 51h1M42 51h1M39 52h1M40 56h1M40 57h1M40 58h1M39 59h1M39 60h1M38 61h1M37 62h1M28 63h4M37 63h1M46 63h3M62 63h3M26 64h2M32 64h3M36 64h1M45 64h1M49 64h1M60 64h2M65 64h1M25 65h1M35 65h2M45 65h1M50 65h1M58 65h2M65 65h1M25 66h1M44 66h1M50 66h1M55 66h2M66 66h1M24 67h1M44 67h1M51 67h1M66 67h1M24 68h1M43 68h1M51 68h1M67 68h1M23 69h1M43 69h1M51 69h1M67 69h1M23 70h1M43 70h1M45 70h1M52 70h1M68 70h1M22 71h1M43 71h1M45 71h1M52 71h1M69 71h1M21 72h1M41 72h1M46 72h1M52 72h1M70 72h1M20 73h1M39 73h2M44 73h1M53 73h1M57 73h2M71 73h1M32 74h1M44 74h1M53 74h1M71 74h1M31 75h1M38 75h1M45 75h2M53 75h1M72 75h1M30 76h1M47 76h1M48 77h1M48 79h1M48 80h1M48 81h1M47 82h1M45 83h1M47 83h1M45 84h2" />
<path stroke="#a37a4c" d="M61 6h1M60 7h1M32 8h1M60 8h1M33 9h1M59 9h1M33 10h1M59 10h1M32 11h2M46 11h1M59 11h2M32 12h2M46 12h1M59 12h2M32 13h2M46 13h1M60 13h2M33 14h2M45 14h2M60 14h2M33 15h2M44 15h2M59 15h2M32 16h3M44 16h2M59 16h2M32 17h2M44 17h3M59 17h2M32 18h2M45 18h3M60 18h2M31 19h4M45 19h3M60 19h2M31 20h5M45 20h3M59 20h3M31 21h7M44 21h3M58 21h5M16 22h2M32 22h7M43 22h4M53 22h3M57 22h6M67 22h3M15 23h5M33 23h8M43 23h5M51 23h2M56 23h7M66 23h5M9 24h1M15 24h5M32 24h1M37 24h5M43 24h5M49 24h2M53 24h5M60 24h2M66 24h5M75 24h3M8 25h4M14 25h6M33 25h4M38 25h4M44 25h12M58 25h3M65 25h6M74 25h5M8 26h4M14 26h5M36 26h2M41 26h2M44 26h3M48 26h6M56 26h3M65 26h6M74 26h5M8 27h4M14 27h5M38 27h5M44 27h2M47 27h3M51 27h2M54 27h2M65 27h6M73 27h6M8 28h4M14 28h5M40 28h1M42 28h7M51 28h3M64 28h6M73 28h6M8 29h4M14 29h4M44 29h2M51 29h2M64 29h6M73 29h6M8 30h4M14 30h4M51 30h2M64 30h6M73 30h6M8 31h4M14 31h4M26 31h2M52 31h1M64 31h5M73 31h5M9 32h3M15 32h3M24 32h5M41 32h1M50 32h1M52 32h1M62 32h1M64 32h4M73 32h5M9 33h2M15 33h2M23 33h7M41 33h2M45 33h1M49 33h1M51 33h2M61 33h3M65 33h3M73 33h4M10 34h1M16 34h1M23 34h7M40 34h14M61 34h3M65 34h3M73 34h4M22 35h8M39 35h2M43 35h3M48 35h3M53 35h2M60 35h4M66 35h2M74 35h3M21 36h8M44 36h1M49 36h1M60 36h4M67 36h1M74 36h2M20 37h6M61 37h3M75 37h1M18 38h5M61 38h3M62 39h2M48 40h1M63 40h1M40 41h1M43 41h1M47 41h2M51 41h2M41 42h1M43 42h2M46 42h3M50 42h2M42 43h10M43 44h7M43 45h7M38 46h1M42 46h1M44 46h3M48 46h2M55 46h2M36 47h2M42 47h1M44 47h3M48 47h2M57 47h3M35 48h1M38 48h1M42 48h1M44 48h3M48 48h3M55 48h1M59 48h2M42 49h1M44 49h3M49 49h1M56 49h4M41 50h7M49 50h1M41 51h1M43 51h2M46 51h2M40 52h1M43 52h1M47 52h1M41 57h1M47 57h1M41 58h2M46 58h3M40 59h4M45 59h6M40 60h1M42 60h10M39 61h2M42 61h7M50 61h2M39 62h1M41 62h1M43 62h2M46 62h3M50 62h3M38 63h1M40 63h2M43 63h2M50 63h3M28 64h4M37 64h2M40 64h1M42 64h3M46 64h3M50 64h4M62 64h3M26 65h9M37 65h1M39 65h2M42 65h3M46 65h4M51 65h3M60 65h5M26 66h9M36 66h1M39 66h2M42 66h2M46 66h4M51 66h3M57 66h9M25 67h10M37 67h2M41 67h3M46 67h2M49 67h2M52 67h1M54 67h6M63 67h3M25 68h2M28 68h1M32 68h5M39 68h1M41 68h2M46 68h1M48 68h3M52 68h5M64 68h3M24 69h3M34 69h7M42 69h1M46 69h1M48 69h3M52 69h2M65 69h2M24 70h2M37 70h4M42 70h1M46 70h1M48 70h4M65 70h3M23 71h2M40 71h3M46 71h2M49 71h3M66 71h3M22 72h3M42 72h1M47 72h1M49 72h3M67 72h3M22 73h2M47 73h2M50 73h3M68 73h3M21 74h2M48 74h1M50 74h3M69 74h2M49 75h1M51 75h2M70 75h2M51 76h2M70 76h2M51 77h2M71 77h1" />
<path stroke="#101010" d="M61 7h1M61 8h1M60 9h1M60 10h1M37 11h1M61 11h1M29 12h2M35 12h2M56 12h2M62 12h2M62 13h1M35 14h1M62 14h1M35 15h1M58 15h1M61 15h1M35 16h1M37 16h1M58 16h1M61 16h1M35 17h2M58 17h1M65 17h1M28 18h2M48 18h1M56 18h2M59 18h1M64 18h1M35 19h1M48 19h1M54 19h1M59 19h1M63 19h1M36 20h2M48 20h1M54 20h1M58 20h1M63 20h1M38 21h2M47 21h1M53 21h5M63 21h1M40 22h1M42 22h1M47 22h1M51 22h2M63 22h1M41 23h2M48 23h3M63 23h1M31 24h1M63 24h1M32 25h1M62 25h1M80 25h1M85 25h2M33 26h2M59 26h3M80 26h2M85 26h1M36 27h2M50 27h1M56 27h3M80 27h1M86 27h1M38 28h2M41 28h1M50 28h1M54 28h2M81 28h1M86 28h1M41 29h2M48 29h1M50 29h1M54 29h1M81 29h1M86 29h1M41 30h1M44 30h3M50 30h1M53 30h1M81 30h1M86 30h1M12 31h2M18 31h1M33 31h2M53 31h1M69 31h1M81 31h3M85 31h1M12 32h1M14 32h1M18 32h1M42 32h1M53 32h1M69 32h1M78 32h1M81 32h1M83 32h2M11 33h1M14 33h1M17 33h1M30 33h4M53 33h1M68 33h1M78 33h1M81 33h1M84 33h1M11 34h1M15 34h1M17 34h1M30 34h1M33 34h1M54 34h1M68 34h1M77 34h1M84 34h4M16 35h1M30 35h1M33 35h1M41 35h2M46 35h2M51 35h2M55 35h1M68 35h1M77 35h1M83 35h1M87 35h1M29 36h1M32 36h1M38 36h3M42 36h2M45 36h1M48 36h1M50 36h2M53 36h3M68 36h1M76 36h1M86 36h1M27 37h2M31 37h2M42 37h1M44 37h2M49 37h1M51 37h1M76 37h1M84 37h3M24 38h3M33 38h1M42 38h1M51 38h1M64 38h2M86 38h1M18 39h6M34 39h1M42 39h1M49 39h1M51 39h1M64 39h1M87 39h1M31 40h4M42 40h1M49 40h1M51 40h3M64 40h1M84 40h3M32 41h1M44 41h2M49 41h2M53 41h1M64 41h1M85 41h1M33 42h1M86 42h1M29 43h5M52 43h1M60 43h1M83 43h4M9 44h4M29 44h1M51 44h2M60 44h1M83 44h1M12 45h1M30 45h1M40 45h1M50 45h1M52 45h2M60 45h1M62 45h3M80 45h2M84 45h1M11 46h1M21 46h2M26 46h5M50 46h1M65 46h1M68 46h1M80 46h1M82 46h3M11 47h1M13 47h2M17 47h2M21 47h1M23 47h2M26 47h1M30 47h1M40 47h1M51 47h2M64 47h1M67 47h2M71 47h1M75 47h1M79 47h2M11 48h2M15 48h1M17 48h1M19 48h1M21 48h1M25 48h2M29 48h1M31 48h2M39 48h1M52 48h2M62 48h5M68 48h1M70 48h1M72 48h2M75 48h2M79 48h1M15 49h1M17 49h1M20 49h1M27 49h3M33 49h1M38 49h1M52 49h1M54 49h2M65 49h1M68 49h2M71 49h1M74 49h2M78 49h2M16 50h1M30 50h3M35 50h3M52 50h1M56 50h3M63 50h2M66 50h1M69 50h2M32 51h3M45 51h1M48 51h2M52 51h1M59 51h2M62 51h1M67 51h2M41 52h2M44 52h1M46 52h1M48 52h1M50 52h1M53 52h1M61 52h1M39 53h3M43 53h1M47 53h1M51 53h3M41 54h1M51 54h1M41 55h1M51 55h1M41 56h1M47 56h1M51 56h3M42 57h1M46 57h1M48 57h1M51 57h1M53 57h1M43 58h1M45 58h1M49 58h2M53 58h1M44 59h1M54 59h1M54 60h1M55 61h1M56 62h1M56 63h1M57 64h1M57 65h1M29 71h2M28 72h1M31 72h2M59 72h4M27 73h1M33 73h2M46 73h1M61 73h1M63 73h1M20 74h1M26 74h1M35 74h5M46 74h1M55 74h3M61 74h1M64 74h1M19 75h1M25 75h1M47 75h1M54 75h1M58 75h1M62 75h1M65 75h1M19 76h1M24 76h1M37 76h4M48 76h1M54 76h1M59 76h1M62 76h1M66 76h1M72 76h1M19 77h1M24 77h1M29 77h1M35 77h2M41 77h2M49 77h1M54 77h1M59 77h1M62 77h1M66 77h1M72 77h1M20 78h1M25 78h1M29 78h1M33 78h2M43 78h1M47 78h3M54 78h1M58 78h1M61 78h1M67 78h1M71 78h1M21 79h1M25 79h1M30 79h1M33 79h1M43 79h1M47 79h1M49 79h1M54 79h1M58 79h1M61 79h1M67 79h1M71 79h1M22 80h1M26 80h1M30 80h1M33 80h1M44 80h1M46 80h1M49 80h1M53 80h1M57 80h1M60 80h1M67 80h1M70 80h1M22 81h1M26 81h1M31 81h1M33 81h1M44 81h1M46 81h1M49 81h1M53 81h1M57 81h1M60 81h1M66 81h1M70 81h1M23 82h1M27 82h1M31 82h1M33 82h1M45 82h1M49 82h1M53 82h1M57 82h1M59 82h1M66 82h1M69 82h1M23 83h1M27 83h1M31 83h1M33 83h1M49 83h1M52 83h1M57 83h1M59 83h1M65 83h1M68 83h1M24 84h1M26 84h1M30 84h1M32 84h1M49 84h1M52 84h1M57 84h1M59 84h1M65 84h1M67 84h1M24 85h1M26 85h1M30 85h2M49 85h1M52 85h1M58 85h2M65 85h1M67 85h1M23 86h1M25 86h1M50 86h1M52 86h1M66 86h1M68 86h1M23 87h2M50 87h1M53 87h1M67 87h2M51 88h1M53 88h1M52 89h2" />
<path stroke="#004321" d="M28 9h2M36 9h2M63 9h3M28 10h1M30 10h1M35 10h1M38 10h1M55 10h3M62 10h1M65 10h1M28 11h1M55 11h1M64 11h1M34 12h1M43 12h1M49 12h2M42 13h1M44 13h1M48 13h1M50 13h1M42 14h1M50 14h3M36 15h2M41 15h1M50 15h1M52 15h1M27 16h3M39 16h2M52 16h3M57 16h1M63 16h3M27 17h1M39 17h1M54 17h1M56 17h1M62 17h1M30 18h1M40 18h1M53 18h1M63 18h1M38 19h3M53 19h1M38 20h1M52 20h1M86 22h2M85 23h1M87 23h1M80 24h2M84 24h1M87 24h1M27 29h1M33 29h3M28 30h1M32 30h1M35 30h1M11 35h1M11 36h1M11 37h1M10 38h2M10 39h1M11 40h1M60 40h2M11 41h1M60 41h1M10 42h1M61 42h1M9 43h1M35 43h1M59 43h1M62 43h2M77 43h2M16 44h1M19 44h1M34 44h1M36 44h1M58 44h1M62 44h1M73 44h1M76 44h1M16 45h1M18 45h1M25 45h1M34 45h1M36 45h1M58 45h1M65 45h1M69 45h1M75 45h2M14 46h1M16 46h1M35 46h1M71 46h1M78 46h1M77 48h1" />
<path stroke="#1ea762" d="M29 10h1M36 10h2M63 10h2M30 11h1M35 11h2M56 11h2M62 11h2M43 13h1M49 13h1M43 14h1M48 14h2M47 15h3M51 15h1M36 16h1M41 16h2M47 16h5M28 17h2M40 17h3M48 17h6M57 17h1M63 17h2M41 18h3M49 18h4M41 19h3M49 19h4M41 20h3M49 20h3M50 21h1M86 23h1M85 24h2M81 25h1M28 29h1M33 30h2M12 38h1M11 39h3M26 39h3M65 39h1M79 39h2M12 40h3M25 40h3M65 40h2M78 40h2M12 41h5M23 41h5M61 41h2M65 41h4M76 41h7M11 42h19M62 42h16M79 42h3M10 43h3M14 43h2M17 43h2M20 43h9M64 43h8M73 43h3M79 43h2M13 44h3M17 44h1M20 44h9M35 44h1M59 44h1M63 44h3M67 44h6M75 44h1M77 44h6M13 45h3M17 45h1M19 45h6M26 45h4M35 45h1M59 45h1M66 45h3M70 45h5M77 45h3M83 45h1M12 46h2M15 46h1M18 46h3M23 46h3M66 46h1M69 46h2M72 46h6M79 46h1M12 47h1M15 47h2M19 47h2M25 47h1M65 47h2M69 47h1M73 47h2M77 47h2M16 48h1M20 48h1M69 48h1M74 48h1M78 48h1M16 49h1" />
<path stroke="#007541" d="M29 11h1M34 11h1M42 15h1M30 17h1M62 18h1M39 20h2M53 20h1M40 21h3M48 21h2M51 21h2M41 22h1M48 22h3M84 25h1M82 32h1M82 33h2M31 34h2M82 34h2M31 35h2M82 35h1M84 35h3M12 36h1M30 36h2M81 36h5M12 37h1M29 37h2M81 37h3M13 38h1M27 38h6M80 38h6M29 39h5M81 39h6M15 40h1M24 40h1M28 40h3M67 40h1M77 40h1M80 40h4M17 41h1M22 41h1M28 41h4M69 41h1M75 41h1M83 41h2M30 42h3M78 42h1M82 42h4M13 43h1M16 43h1M19 43h1M72 43h1M76 43h1M81 43h2M18 44h1M66 44h1M74 44h1M82 45h1M17 46h1M67 46h1M70 47h1M72 47h1M76 47h1" />
<path stroke="#735738" d="M61 12h1M61 17h1M31 18h1M62 19h1M62 20h1M18 22h1M31 22h1M39 22h1M56 22h1M70 22h1M83 22h1M32 23h1M53 23h3M71 23h1M83 23h1M10 24h1M20 24h1M33 24h4M51 24h2M58 24h2M62 24h1M71 24h1M78 24h1M83 24h1M20 25h2M37 25h1M42 25h2M56 25h2M61 25h1M71 25h2M79 25h1M83 25h1M12 26h1M19 26h4M29 26h1M38 26h3M47 26h1M54 26h2M71 26h2M79 26h1M84 26h1M12 27h1M20 27h3M29 27h1M43 27h1M46 27h1M53 27h1M71 27h1M79 27h1M84 27h2M12 28h1M20 28h3M24 28h1M29 28h2M49 28h1M70 28h2M79 28h2M85 28h1M12 29h1M18 29h1M21 29h2M24 29h1M30 29h1M43 29h1M46 29h1M71 29h1M79 29h2M83 29h1M85 29h1M22 30h3M31 30h1M71 30h1M80 30h1M82 30h1M84 30h2M23 31h1M29 31h1M31 31h1M50 31h1M78 31h1M84 31h1M13 32h1M21 32h2M30 32h1M45 32h1M68 32h1M12 33h2M18 33h4M44 33h1M46 33h1M48 33h1M71 33h1M77 33h1M12 34h3M18 34h4M69 34h3M80 34h1M13 35h3M17 35h4M64 35h1M69 35h4M78 35h3M14 36h6M65 36h1M69 36h4M77 36h3M14 37h4M26 37h1M65 37h2M68 37h6M77 37h3M15 38h2M23 38h1M66 38h9M76 38h3M16 39h2M67 39h11M17 40h5M69 40h7M42 44h1M50 44h1M42 45h1M43 46h1M47 46h1M27 47h3M43 47h1M47 47h1M50 47h1M56 47h1M27 48h2M33 48h2M36 48h1M43 48h1M51 48h1M56 48h1M58 48h1M61 48h1M67 48h1M71 48h1M34 49h4M43 49h1M48 49h1M50 49h2M60 49h1M66 49h2M70 49h1M33 50h2M50 50h2M59 50h3M67 50h2M50 51h2M61 51h1M51 52h2M52 57h1M51 58h2M51 59h3M41 60h1M52 60h2M41 61h1M49 61h1M52 61h3M38 62h1M40 62h1M42 62h1M45 62h1M49 62h1M54 62h2M39 63h1M42 63h1M45 63h1M49 63h1M54 63h2M39 64h1M41 64h1M54 64h3M38 65h1M41 65h1M55 65h2M35 66h1M41 66h1M45 66h1M35 67h2M39 67h2M45 67h1M48 67h1M60 67h3M27 68h1M29 68h3M37 68h2M40 68h1M44 68h2M47 68h1M57 68h7M28 69h6M41 69h1M44 69h2M47 69h1M54 69h4M60 69h4M27 70h10M41 70h1M44 70h1M47 70h1M53 70h2M58 70h6M25 71h4M31 71h4M36 71h4M44 71h1M48 71h1M55 71h10M26 72h2M33 72h3M38 72h3M44 72h2M48 72h1M53 72h6M63 72h3M21 73h1M25 73h2M35 73h3M45 73h1M49 73h1M54 73h3M59 73h2M64 73h3M24 74h2M33 74h2M45 74h1M47 74h1M49 74h1M54 74h1M58 74h3M65 74h3M20 75h5M32 75h6M48 75h1M50 75h1M59 75h3M66 75h3M20 76h4M31 76h6M49 76h2M53 76h1M60 76h2M67 76h2M20 77h4M30 77h5M50 77h1M53 77h1M60 77h2M67 77h3M21 78h4M30 78h3M50 78h4M59 78h2M68 78h2M22 79h3M31 79h2M50 79h4M59 79h2M68 79h2M23 80h3M31 80h2M50 80h3M58 80h2M68 80h2M23 81h3M32 81h1M50 81h3M58 81h2M67 81h3M24 82h3M32 82h1M50 82h3M58 82h1M67 82h2M24 83h3M32 83h1M50 83h2M58 83h1M66 83h2M25 84h1M31 84h1M50 84h2M58 84h1M66 84h1M25 85h1M50 85h2M66 85h1M24 86h1M51 86h1M67 86h1M51 87h2M52 88h1" />
<path stroke="#503d29" d="M42 24h1M48 24h1M43 26h1M19 27h1M84 28h1M20 29h1M23 29h1M53 29h1M70 29h1M84 29h1M12 30h1M19 30h3M30 30h1M79 30h1M83 30h1M19 31h4M24 31h2M30 31h1M51 31h1M70 31h1M80 31h1M20 32h1M51 32h1M70 32h2M80 32h1M50 33h1M69 33h2M79 33h2M78 34h2M64 36h1M14 38h1M15 39h1M24 39h1M22 40h1M42 42h1M37 48h1M47 48h1M57 48h1M47 49h1M48 50h1M53 62h1M53 63h1M54 65h1M37 66h2M54 66h1M53 67h1M27 69h1M58 69h2M64 69h1M26 70h1M55 70h3M64 70h1M35 71h1M53 71h2M65 71h1M25 72h1M36 72h2M43 72h1M66 72h1M24 73h1M38 73h1M41 73h3M67 73h1M23 74h1M40 74h4M68 74h1M39 75h6M69 75h1M41 76h6M69 76h1M43 77h5M70 77h1M44 78h3M70 78h1M44 79h3M70 79h1M45 80h1M47 80h1M45 81h1M47 81h1M46 82h1M46 83h1" />
<path stroke="#262626" d="M49 29h1M42 30h2M47 30h3M42 31h1M48 31h2M48 32h1M46 36h2M43 37h1M46 37h3M50 37h1M43 38h8M43 39h5M50 39h1M44 40h3M50 40h1M51 45h1M40 46h1M51 46h3M39 47h1M53 47h2M30 48h1M30 49h3M62 49h3M45 52h1M49 52h1M42 53h1M44 53h3M48 53h3M42 54h9M42 55h9M42 56h5M48 56h3M43 57h3M49 57h2M44 58h1" />
<path stroke="#ff4c4c" d="M43 31h1M47 31h1M43 32h1M47 32h1" />
<path stroke="#ffa6a6" d="M44 31h3M44 32h1M46 32h1" />
</svg>