<svg xmlns="http://www.w3.org/2000/svg" viewBox="0 -0.5 96 96" shape-rendering="crispEdges">
<metadata>Made with Pixels to Svg https://codepen.io/shshaw/pen/XbxvNj</metadata>
<path stroke="#633674" d="M56 19h2M32 20h2M55 20h1M57 20h1M32 21h1M34 21h1M54 21h1M57 21h1M32 22h1M35 22h1M53 22h1M57 22h1M32 23h1M50 23h3M32 24h1M48 24h2M32 25h1M47 25h1M31 26h1M36 26h1M46 26h1M31 27h1M38 27h1M45 27h1M48 27h1M31 28h1M40 28h1M44 28h1M47 28h1M58 28h1M30 29h1M43 29h1M46 29h1M56 29h1M30 30h1M32 30h1M41 30h1M56 30h1M30 31h1M32 31h1M42 31h1M45 31h1M56 31h1M30 32h1M32 32h1M42 32h1M52 32h2M56 32h1M30 33h1M32 33h1M38 33h2M42 33h1M44 33h1M51 33h1M55 33h1M30 34h1M32 34h1M40 34h1M42 34h1M44 34h1M55 34h1M31 35h1M42 35h1M44 35h1M50 35h1M54 35h1M31 36h1M33 36h1M41 36h1M53 36h1M32 37h1M34 37h2M42 37h3M52 37h1M36 38h2M39 38h2M50 38h2M54 38h1M38 39h1M49 39h1M70 57h1M67 58h1M60 59h1" />
<path stroke="#b459d5" d="M56 20h1M33 21h1M55 21h2M33 22h2M54 22h3M33 23h3M53 23h4M33 24h4M50 24h3M56 24h1M33 25h1M36 25h3M48 25h3M56 25h1M32 26h2M38 26h3M47 26h2M56 26h2M32 27h1M40 27h2M46 27h2M57 27h1M32 28h1M41 28h2M45 28h2M57 28h1M31 29h2M42 29h1M44 29h2M31 30h1M42 30h3M31 31h1M43 31h2M31 32h1M43 32h1M31 33h1M43 33h1M31 34h1M43 34h1M32 35h1M43 35h1M32 36h1M33 37h1M37 45h1M41 45h1M36 46h2M40 46h3M36 47h2M39 47h4M36 48h7M36 49h6M36 50h2M39 50h3M62 50h4M62 51h7M63 52h8M63 53h10M63 54h11M64 55h11M64 56h11M64 57h6M64 58h3M64 59h1" />
<path stroke="#101010" d="M36 23h1M57 23h1M37 24h2M57 24h1M39 25h2M57 25h1M41 26h1M58 26h1M42 27h1M58 27h1M43 28h1M59 28h1M59 29h1M59 30h1M59 31h1M59 32h1M59 33h1M58 34h1M58 35h1M57 36h1M56 37h1M33 38h1M55 38h1M34 39h2M53 39h2M36 40h1M50 40h3M55 43h1M55 44h1M62 44h1M28 45h2M31 45h1M54 45h1M59 45h2M63 45h1M28 46h1M32 46h1M46 46h2M53 46h1M59 46h1M61 46h1M63 46h1M29 47h1M32 47h1M34 47h1M46 47h2M60 47h1M63 47h1M29 48h1M32 48h1M34 48h1M47 48h1M60 48h3M30 49h2M34 49h1M54 49h1M35 50h1M53 50h1M35 51h1M50 51h2M54 51h1M58 51h1M36 52h1M49 52h1M52 52h3M57 52h1M37 53h1M47 53h2M50 53h1M55 53h2M38 54h1M40 54h1M43 54h4M52 54h3M39 55h2M42 55h1M52 55h1M20 56h4M39 56h1M53 56h1M16 57h4M24 57h2M38 57h2M52 57h4M71 57h5M79 57h1M26 58h2M35 58h3M40 58h2M47 58h1M52 58h1M56 58h3M68 58h2M76 58h4M28 59h1M33 59h2M41 59h1M43 59h1M46 59h1M49 59h3M59 59h1M65 59h2M29 60h1M32 60h1M40 60h3M48 60h1M52 60h2M61 60h1M64 60h1M30 61h2M40 61h1M53 61h1M62 61h2M39 62h2M53 62h3M39 63h1M45 63h1M55 63h1M39 64h1M54 64h1M40 65h1M53 65h1M41 66h1M45 66h3M52 66h1M42 67h3M48 67h4M42 68h1M49 68h1M51 68h1M52 69h1M43 70h1M46 70h1M50 70h1M53 70h1M43 71h1M47 71h1M50 71h1M54 71h1M43 72h1M45 72h1M47 72h1M50 72h1M54 72h1M44 73h1M46 73h2M50 73h1M52 73h1M54 73h1M45 74h2M51 74h1M53 74h2M52 75h2" />
<path stroke="#85489b" d="M53 24h1M55 24h1M34 25h2M51 25h1M55 25h1M34 26h1M37 26h1M49 26h1M33 27h1M39 27h1M56 27h1M33 28h1M56 28h1M41 29h1M54 29h1M57 29h2M37 30h1M45 30h1M53 30h2M57 30h2M37 31h2M52 31h3M57 31h2M37 32h3M44 32h1M51 32h1M54 32h1M57 32h2M37 33h1M40 33h1M50 33h1M54 33h1M56 33h3M37 34h1M41 34h1M50 34h1M54 34h1M56 34h2M37 35h1M41 35h1M49 35h1M55 35h3M37 36h1M42 36h3M49 36h1M54 36h3M38 37h1M41 37h1M49 37h1M53 37h3M34 38h2M38 38h1M52 38h2M36 39h2M50 39h3M62 49h2M29 50h2M38 50h1M66 50h1M26 51h5M36 51h2M39 51h2M61 51h1M69 51h1M24 52h8M60 52h3M71 52h1M22 53h11M59 53h4M21 54h13M58 54h5M20 55h15M57 55h7M19 56h1M24 56h13M55 56h9M75 56h1M26 57h12M56 57h8M76 57h1M28 58h7M59 58h5M29 59h4M61 59h3M30 60h2M62 60h2" />
<path stroke="#756175" d="M54 24h1M52 25h1M50 26h1M37 40h1M36 41h1M51 41h1M35 42h1M52 42h1M35 43h1M52 43h3M34 44h1M34 45h1M34 46h1M49 47h1M54 47h1M64 47h2M27 48h2M49 48h1M55 48h1M66 48h3M24 49h3M32 49h1M48 49h1M60 49h1M64 49h2M69 49h2M22 50h2M27 50h2M46 50h2M59 50h1M61 50h1M67 50h2M71 50h2M21 51h1M25 51h1M31 51h1M33 51h1M49 51h1M60 51h1M70 51h1M73 51h1M20 52h1M23 52h1M32 52h1M34 52h1M43 52h1M47 52h1M59 52h1M72 52h1M74 52h1M19 53h1M21 53h1M33 53h1M35 53h2M40 53h1M58 53h1M73 53h1M75 53h1M18 54h1M20 54h1M34 54h1M37 54h1M41 54h1M57 54h1M74 54h1M76 54h1M17 55h1M19 55h1M35 55h2M55 55h2M75 55h1M77 55h1M16 56h1M18 56h1M37 56h2M54 56h1M76 56h1M78 56h1M77 57h1M47 59h1M43 60h1M43 61h1M44 62h1M44 68h1M43 69h1M45 69h1M50 69h1M45 71h1M53 71h1M52 72h1" />
<path stroke="#a791a7" d="M53 25h2M35 26h1M51 26h5M34 27h4M49 27h7M34 28h6M48 28h8M33 29h8M47 29h7M55 29h1M33 30h4M38 30h3M46 30h1M50 30h3M55 30h1M33 31h4M39 31h3M51 31h1M55 31h1M33 32h4M40 32h2M45 32h1M50 32h1M55 32h1M33 33h2M36 33h1M41 33h1M49 33h1M33 34h1M36 34h1M49 34h1M33 35h1M36 35h1M48 35h1M34 36h1M36 36h1M45 36h1M48 36h1M36 37h2M45 37h1M48 37h1M41 38h1M49 38h1M51 42h1M46 43h2M37 44h1M41 44h1M45 44h1M48 44h1M52 44h1M36 45h1M40 45h1M42 45h1M49 45h1M51 45h3M39 46h1M49 46h4M38 47h1M50 47h4M35 48h1M44 48h1M50 48h3M35 49h1M42 49h1M49 49h5M66 49h1M26 50h1M32 50h1M48 50h5M24 51h1M38 51h1M43 51h6M52 51h2M59 51h1M72 51h1M22 52h1M33 52h1M37 52h6M44 52h3M58 52h1M34 53h1M38 53h2M41 53h2M57 53h1M35 54h2M39 54h1M42 54h1M55 54h2M37 55h2M53 55h2M48 59h1M44 60h1M46 60h2M44 61h3M45 62h1M43 68h1M50 68h1M44 69h1M51 69h1M44 70h2M51 70h2M44 71h1M46 71h1M51 71h2M44 72h1M46 72h1M51 72h1M53 72h1M45 73h1M51 73h1M53 73h1M52 74h1" />
<path stroke="#d7bad7" d="M47 30h3M46 31h5M46 32h4M35 33h1M45 33h4M34 34h2M45 34h4M34 35h2M45 35h3M35 36h1M46 36h2M46 37h2M42 38h7M39 39h10M38 40h12M37 41h14M36 42h15M36 43h10M48 43h4M35 44h2M38 44h3M42 44h3M49 44h3M53 44h2M35 45h1M38 45h2M43 45h2M50 45h1M35 46h1M38 46h1M43 46h2M35 47h1M43 47h2M43 48h1M53 48h2M63 48h3M27 49h3M43 49h1M61 49h1M67 49h2M24 50h2M31 50h1M42 50h2M60 50h1M69 50h2M22 51h2M32 51h1M41 51h2M71 51h1M21 52h1M73 52h1M20 53h1M74 53h1M19 54h1M75 54h1M18 55h1M76 55h1M17 56h1M77 56h1M78 57h1" />
<path stroke="#3f3f3f" d="M52 33h2M38 34h2M51 34h3M38 35h3M51 35h3M38 36h3M50 36h3M39 37h2M50 37h2M47 45h1M61 45h1M30 46h1M30 47h1M61 47h2M30 48h2M46 48h1M44 49h2M44 50h2M48 52h1M50 52h1M43 53h4M49 53h1M47 54h5M41 55h1M43 55h6M51 55h1M42 56h5M41 57h1M51 57h1M48 58h2M44 59h1M45 60h1M42 61h1M47 61h1M41 62h1M43 62h1M46 62h1M52 62h1M41 63h1M44 63h1M52 63h1M54 63h1M40 64h1M53 64h1M44 65h3M51 65h2M42 66h3M48 66h4" />
<path stroke="#ccb43d" d="M46 44h2M45 45h1M48 45h1M45 46h1M48 46h1M45 47h1" />
<path stroke="#f8f8f8" d="M46 45h1" />
<path stroke="#606060" d="M62 45h1M29 46h1M31 46h1M60 46h1M62 46h1M31 47h1M45 48h1M49 55h2M40 56h2M47 56h6M40 57h1M42 57h9M42 58h5M50 58h2M42 59h1M45 59h1M49 60h3M41 61h1M48 61h5M42 62h1M47 62h5M40 63h1M42 63h2M46 63h6M53 63h1M41 64h12M41 65h3M47 65h4" />
<path stroke="#ffe14c" d="M48 47h1M48 48h1M46 49h2" />
</svg>