<svg xmlns="http://www.w3.org/2000/svg" viewBox="0 -0.5 96 96" shape-rendering="crispEdges">
<metadata>Made with Pixels to Svg https://codepen.io/shshaw/pen/XbxvNj</metadata>
<path stroke="#446328" d="M41 22h2M43 23h2M45 24h1M46 25h1M46 26h1M47 27h1M37 28h5M47 28h1M50 28h5M34 29h3M42 29h1M45 29h1M47 29h3M55 29h2M32 30h2M40 30h2M47 30h1M57 30h2M31 31h1M38 31h2M48 31h1M59 31h1M30 32h1M37 32h1M49 32h1M60 32h1M29 33h1M36 33h1M61 33h1M28 34h1M35 34h1M50 34h1M28 35h1M34 35h2M51 35h1M27 36h1M33 36h1M35 36h1M52 36h1M27 37h1M32 37h1M36 37h2M26 38h1M31 38h1M38 38h4M26 39h1M31 39h1M26 40h1M30 40h1M25 41h1M30 41h1M25 42h1M25 43h1M29 43h1M25 44h1M29 44h1M25 45h1M25 46h1M28 46h1M25 47h1M28 47h1M26 48h1M27 50h1M28 53h1" />
<path stroke="#0f0f0f" d="M40 23h1M40 24h1M41 25h2M43 26h1M44 27h1M44 28h1M43 29h2M49 33h1M49 34h1M62 34h1M49 35h1M63 35h1M48 36h1M64 36h1M46 37h2M52 37h2M64 37h1M42 38h4M52 38h1M54 38h1M65 38h1M53 39h2M65 39h1M35 40h1M53 40h1M55 40h1M66 40h1M35 41h1M53 41h1M56 41h1M66 41h1M35 42h1M53 42h1M56 42h1M67 42h1M36 43h1M52 43h1M57 43h1M67 43h1M36 44h1M52 44h1M58 44h1M67 44h1M37 45h1M51 45h1M58 45h1M68 45h1M36 46h1M38 46h2M49 46h2M59 46h1M68 46h1M35 47h1M40 47h1M48 47h1M60 47h1M68 47h1M35 48h1M60 48h1M68 48h1M26 49h1M34 49h1M61 49h1M68 49h1M26 50h1M34 50h1M62 50h1M68 50h1M27 51h1M33 51h1M39 51h2M48 51h2M62 51h1M68 51h1M27 52h1M37 52h2M50 52h2M58 52h1M63 52h1M68 52h1M30 53h1M35 53h2M52 53h2M58 53h1M64 53h1M68 53h1M28 54h1M31 54h4M54 54h4M64 54h1M67 54h1M29 55h1M32 55h1M64 55h1M67 55h1M30 56h2M65 56h2M33 59h1M55 59h1M33 60h1M55 60h1M33 61h1M37 61h1M49 61h1M55 61h1M34 62h1M37 62h1M49 62h1M54 62h1M34 63h1M38 63h1M48 63h1M54 63h1M35 64h1M38 64h1M48 64h1M53 64h1M36 65h2M39 65h1M47 65h1M51 65h2M38 66h4M45 66h2M48 66h3M42 67h3M41 68h1M47 68h1M41 69h1M47 69h1M41 70h1M47 70h1M42 72h1M46 72h1M42 73h1M46 73h1M42 74h1M46 74h1M42 75h1M44 75h1M46 75h1M43 76h1M45 76h1" />
<path stroke="#96c853" d="M41 23h2M42 24h3M43 25h3M44 26h2M45 27h2M45 28h2M37 29h5M46 29h1M50 29h5M34 30h6M42 30h5M48 30h9M32 31h1M35 31h3M40 31h8M49 31h10M31 32h1M35 32h2M38 32h11M50 32h10M30 33h2M34 33h2M37 33h12M50 33h11M29 34h1M31 34h4M36 34h13M51 34h11M29 35h5M36 35h12M52 35h10M28 36h5M37 36h10M53 36h8M28 37h4M38 37h7M55 37h5M27 38h4M27 39h4M27 40h3M26 41h4M26 42h4M26 43h3M26 44h3M26 45h3M26 46h2M26 47h2M27 48h1M27 49h1" />
<path stroke="#659344" d="M41 24h1M48 35h1M62 35h1M34 36h1M36 36h1M47 36h1M61 36h3M33 37h3M45 37h1M54 37h1M60 37h4M32 38h4M55 38h10M32 39h4M55 39h10M31 40h4M56 40h10M31 41h4M57 41h9M30 42h5M57 42h10M30 43h6M58 43h9M30 44h6M59 44h8M29 45h8M59 45h9M29 46h7M60 46h8M29 47h6M61 47h7M28 48h7M61 48h7M28 49h6M62 49h6M28 50h6M63 50h5M28 51h3M63 51h5M28 52h2M64 52h4M29 53h1M65 53h3M29 54h2M65 54h2M30 55h2M65 55h2" />
<path stroke="#ebe130" d="M33 31h2M32 32h3M32 33h2M30 34h1" />
<path stroke="#c7b8c4" d="M50 35h1M49 36h3M48 37h4M46 38h1M51 38h1M51 39h2M51 40h2M51 41h2M51 42h2M50 43h2M37 44h2M47 44h5M38 45h3M44 45h7M40 46h9M43 47h1M45 47h1M41 49h1M47 49h1M40 50h1M48 50h1M54 59h1M34 60h1M51 60h4M34 61h3M38 61h1M46 61h3M50 61h5M35 62h2M38 62h11M50 62h4M35 63h3M39 63h9M49 63h5M36 64h2M39 64h9M49 64h4M38 65h1M40 65h7M48 65h3M42 66h3" />
<path stroke="#72585f" d="M36 38h1M36 39h1M39 49h2M48 49h2M37 50h2M50 50h2M31 51h2M35 51h2M52 51h2M56 51h2M30 52h1M33 52h2M54 52h2M35 55h3M40 55h7M50 55h4M34 56h1M39 56h1M47 56h1M54 56h1M33 57h1M38 57h1M48 57h1M55 57h1M33 58h1M37 58h1M49 58h1M55 58h1M37 59h1M49 59h1M37 60h1M49 60h1" />
<path stroke="#ce466b" d="M37 38h1M49 38h2M47 39h2M50 39h1M37 40h1M48 40h2M37 41h1M49 41h1M37 42h1M46 42h1M49 42h1" />
<path stroke="#fdfdfd" d="M47 38h2M39 39h7M40 40h5M40 41h5M40 42h5M39 43h7M39 44h1M45 44h2M39 50h1M49 50h1M37 51h2M50 51h2M31 52h2M35 52h2M52 52h2M56 52h2M31 53h4M54 53h4M35 56h3M40 56h7M49 56h5M34 57h4M39 57h9M49 57h6M34 58h3M38 58h11M50 58h5M34 59h3M38 59h11M50 59h4M35 60h2M38 60h11M50 60h1M39 61h7" />
<path stroke="#fcfcfc" d="M37 39h1M49 39h1M36 40h1M38 40h1M46 40h1M50 40h1M36 41h1M50 41h1M36 42h1M50 42h1M37 43h1M49 43h1" />
<path stroke="#962354" d="M38 39h1M46 39h1M39 40h1M45 40h1M39 41h1M45 41h1M39 42h1M45 42h1M38 43h1M46 43h3M40 44h1M44 44h1M41 45h3M41 47h2M44 47h1M46 47h2M41 48h1M43 48h1M45 48h1M47 48h1M42 49h1M46 49h1M49 55h1M38 56h1M48 56h1M47 66h1M45 67h2M42 68h2M45 68h2M42 69h2M45 69h2M43 70h1M45 70h1" />
<path stroke="#f26284" d="M47 40h1M38 41h1M46 41h3M38 42h1M47 42h2M41 44h3M42 48h1M44 48h1M46 48h1M43 49h3M43 50h1M45 50h1" />
<path stroke="#6a1533" d="M41 50h2M44 50h1M46 50h2M41 51h1M43 51h1M45 51h1M47 51h1M42 52h1M46 52h1M39 53h3M47 53h3M37 54h2M50 54h2M41 67h1M47 67h1M44 68h1M44 69h1M44 70h1M42 71h1M44 71h1M46 71h1M44 72h1M44 73h1M44 74h1" />
<path stroke="#cc4876" d="M42 51h1M44 51h1M46 51h1M43 52h3M42 53h5M39 54h11M38 55h2M47 55h2M42 70h1M46 70h1M43 71h1M45 71h1M43 72h1M45 72h1M43 73h1M45 73h1M43 74h1M45 74h1M43 75h1M45 75h1" />
</svg>