<svg xmlns="http://www.w3.org/2000/svg" viewBox="0 -0.5 96 96" shape-rendering="crispEdges">
<metadata>Made with Pixels to Svg https://codepen.io/shshaw/pen/XbxvNj</metadata>
<path stroke="#957509" d="M39 13h4M37 14h2M43 14h1M36 15h1M35 16h1M34 17h1M33 18h1M33 19h1M32 20h1M32 21h1M31 22h1M31 23h1M31 24h1M31 25h1M31 26h1M37 26h1M34 27h1M72 29h4M71 30h1M76 30h1M70 31h1M77 31h1M70 32h1M77 32h1M69 33h1M69 34h1M69 35h1M69 36h1M40 37h1M69 37h1M40 38h1M69 38h1M35 39h1M40 39h1M70 39h1M36 40h1M39 40h1M70 40h1M35 41h1M37 41h2M40 41h1M71 41h1M35 42h1M40 42h1M72 42h1M35 43h1M40 43h1M36 44h1M39 44h1M37 45h2M45 47h1M32 48h1M45 48h1M31 49h1M46 49h1M31 50h1M46 50h1M30 51h2M47 51h1M29 52h1M28 53h1M48 53h1M28 54h1M48 54h1M49 55h1M49 56h1M24 57h3M48 57h1M50 57h2M22 58h2M47 58h1M21 59h1M47 59h1M20 60h1M46 60h1M46 61h1M46 62h1M45 63h1M45 64h1M22 65h2M21 66h1M24 66h1M19 67h3M24 67h1M19 68h1M25 68h1M19 69h1M22 69h1M43 69h1M19 70h1M22 70h1M43 70h1M46 70h1M22 71h1M46 71h2M46 72h1M48 72h1M45 73h1M48 73h5M48 74h1M51 74h1M32 76h3M31 77h1M34 77h2M33 78h1M52 78h4M57 78h2M51 79h1M53 79h1M56 79h1M53 80h1" />
<path stroke="#f4da42" d="M39 14h4M37 15h7M37 16h2M43 16h1M32 22h1M37 22h3M32 23h2M35 23h6M32 24h8M32 25h1M34 25h5M34 26h3M72 30h4M71 31h6M71 32h6M70 33h3M76 33h2M70 34h2M77 34h1M70 35h2M77 35h1M70 36h2M77 36h1M39 37h1M70 37h2M77 37h1M39 38h1M70 38h2M77 38h1M38 39h2M71 39h2M76 39h1M37 40h2M71 40h3M75 40h2M39 41h1M72 41h1M39 42h1M38 43h2M37 44h2M48 50h1M51 50h1M48 51h4M29 53h1M49 53h1M29 54h1M49 54h1M28 55h1M50 55h1M50 56h2M54 56h1M49 57h1M52 57h3M24 58h1M48 58h2M22 59h2M48 59h1M21 60h2M47 60h2M20 61h1M47 61h1M47 62h1M46 63h2M46 64h2M55 64h1M46 65h3M55 65h1M22 66h2M46 66h3M54 66h2M22 67h2M47 67h2M51 67h5M20 68h2M23 68h2M47 68h1M51 68h4M20 69h2M44 69h1M50 69h5M20 70h1M23 70h1M44 70h1M50 70h4M23 71h1M47 72h1M46 73h2M49 74h2M48 75h2M32 77h2M34 78h2M52 79h1M54 79h2M57 79h2M54 80h2M58 80h1" />
<path stroke="#101010" d="M44 15h1M44 16h1M44 17h1M44 18h1M43 19h1M43 20h1M42 21h1M42 22h1M41 23h1M40 24h1M48 24h1M39 25h1M47 25h1M38 26h1M47 26h2M35 27h2M40 27h2M49 27h1M38 28h2M41 28h1M47 28h2M37 29h1M41 29h1M46 29h1M36 30h1M38 30h1M41 30h1M45 30h1M40 31h1M45 31h1M44 32h1M44 33h1M78 33h1M43 34h1M78 34h1M42 35h1M78 35h1M30 36h1M38 36h2M42 36h1M78 36h1M31 37h2M36 37h2M42 37h1M48 37h1M78 37h1M33 38h3M42 38h1M48 38h1M78 38h1M42 39h1M47 39h1M77 39h1M42 40h1M47 40h1M77 40h1M76 41h1M49 42h1M75 42h1M48 43h1M75 43h1M75 44h1M75 45h1M34 46h2M44 46h2M75 46h1M31 47h4M44 47h1M46 47h4M75 47h1M34 48h1M42 48h2M50 48h1M75 48h1M33 49h1M43 49h1M51 49h1M74 49h1M33 50h1M44 50h1M52 50h1M74 50h1M32 51h1M36 51h1M45 51h1M52 51h1M74 51h1M31 52h1M35 52h1M46 52h1M48 52h4M73 52h1M31 53h1M35 53h1M46 53h1M52 53h2M73 53h1M34 54h1M47 54h1M54 54h1M72 54h1M27 55h1M34 55h1M47 55h1M55 55h1M72 55h1M27 56h1M33 56h1M47 56h1M55 56h1M71 56h1M32 57h1M47 57h1M55 57h1M70 57h1M31 58h1M52 58h3M69 58h1M30 59h1M54 59h1M67 59h2M29 60h1M54 60h1M65 60h2M19 61h1M29 61h1M40 61h1M55 61h1M62 61h3M19 62h1M28 62h1M41 62h1M55 62h1M59 62h3M18 63h1M28 63h1M42 63h1M55 63h1M58 63h1M18 64h1M27 64h1M43 64h2M56 64h1M58 64h1M18 65h1M27 65h1M33 65h1M43 65h1M45 65h1M56 65h1M58 65h1M18 66h1M26 66h1M33 66h1M43 66h1M45 66h1M56 66h1M58 66h1M25 67h1M33 67h1M42 67h1M45 67h2M56 67h2M22 68h1M33 68h1M41 68h1M44 68h1M46 68h1M55 68h1M57 68h1M23 69h3M34 69h1M39 69h3M47 69h1M55 69h3M21 70h1M24 70h1M35 70h4M41 70h1M45 70h1M48 70h2M54 70h2M57 70h1M20 71h1M24 71h1M37 71h1M42 71h1M44 71h1M50 71h4M55 71h1M58 71h1M23 72h1M38 72h1M42 72h1M54 72h1M58 72h1M38 73h1M42 73h1M54 73h1M58 73h1M37 74h1M42 74h1M45 74h3M53 74h1M59 74h1M36 75h1M41 75h1M47 75h1M50 75h2M53 75h1M59 75h1M35 76h1M41 76h1M47 76h3M51 76h3M59 76h1M39 77h2M53 77h1M59 77h1M31 78h2M37 78h2M59 78h1M33 79h4M59 79h1M51 80h2M56 80h2M59 80h1M53 81h3M58 81h2" />
<path stroke="#fff5ae" d="M36 16h1M39 16h4M35 17h9M34 18h10M34 19h9M33 20h10M33 21h9M33 22h4M40 22h2M34 23h1M73 33h3M72 34h5M72 35h5M72 36h5M38 37h1M72 37h5M36 38h3M72 38h5M36 39h2M73 39h1M75 39h1M36 41h1M36 42h3M36 43h2M49 66h1M49 67h2M48 68h3M48 69h2" />
<path stroke="#69625c" d="M46 23h3M41 24h2M44 24h2M43 25h1M29 26h1M32 26h1M46 26h1M28 27h1M30 27h2M44 27h2M28 28h1M27 29h1M44 29h2M27 30h1M27 31h1M31 31h1M27 32h1M34 32h2M38 32h2M28 33h1M34 33h1M36 33h2M39 33h1M28 34h1M32 34h2M39 34h1M29 35h3M40 36h1M74 39h1M74 40h1M43 41h1M73 41h1M75 41h1M43 42h1M73 42h1M44 43h2M73 43h1M33 44h2M46 44h2M73 44h1M32 45h1M44 45h1M48 45h1M72 45h1M31 46h1M41 46h1M49 46h1M72 46h1M36 47h1M41 47h1M71 47h1M36 48h1M71 48h1M36 49h1M70 49h1M37 50h1M69 50h1M37 51h1M68 51h1M37 52h1M66 52h2M37 53h1M63 53h3M38 54h1M60 54h3M38 55h1M56 55h4M39 56h1M43 56h1M39 57h1M43 57h1M39 58h1M43 58h1M38 59h2M43 59h1M37 60h1M40 60h1M43 60h1M57 60h1M36 61h1M42 61h1M57 61h1M35 62h1M58 62h1M34 63h1M34 64h1" />
<path stroke="#c2c1c0" d="M46 24h2M41 25h2M45 25h2M33 26h1M40 26h6M29 27h1M32 27h2M37 27h3M42 27h2M29 28h3M33 28h3M37 28h1M42 28h3M28 29h8M42 29h2M28 30h8M28 31h3M33 31h5M28 32h3M32 32h2M36 32h2M29 33h5M29 34h3M41 40h1M41 41h2M74 41h1M41 42h2M74 42h1M41 43h3M74 43h1M35 44h1M40 44h6M74 44h1M33 45h3M39 45h5M45 45h3M73 45h2M32 46h2M37 46h4M42 46h2M46 46h3M73 46h2M37 47h4M42 47h2M72 47h3M37 48h4M47 48h3M72 48h3M37 49h3M41 49h2M48 49h3M71 49h3M40 50h1M42 50h2M70 50h4M38 51h3M42 51h3M69 51h4M38 52h3M42 52h4M68 52h5M38 53h3M42 53h4M51 53h1M66 53h6M39 54h2M42 54h5M51 54h3M63 54h8M39 55h1M41 55h1M43 55h4M52 55h2M60 55h9M40 56h3M44 56h3M59 56h7M40 57h3M44 57h2M40 58h3M38 60h2M37 61h3M36 62h5M35 63h6M35 64h6M34 65h6M34 66h4" />
<path stroke="#97938c" d="M33 25h1M40 25h1M44 25h1M39 26h1M46 27h3M32 28h1M36 28h1M45 28h2M36 29h1M42 30h3M32 31h1M41 31h4M31 32h1M40 32h4M35 33h1M38 33h1M40 33h4M34 34h5M40 34h3M32 35h10M31 36h7M41 36h1M33 37h3M41 37h1M41 38h1M41 39h1M40 40h1M36 45h1M36 46h1M41 48h1M40 49h1M38 50h2M41 50h1M41 51h1M73 51h1M41 52h1M41 53h1M72 53h1M41 54h1M71 54h1M40 55h1M42 55h1M69 55h3M56 56h3M66 56h5M46 57h1M56 57h14M44 58h3M55 58h14M40 59h3M44 59h3M55 59h12M41 60h2M44 60h2M55 60h2M58 60h7M41 61h1M43 61h3M56 61h1M58 61h4M42 62h4M56 62h2M41 63h1M43 63h2M56 63h2M41 64h2M57 64h1M40 65h3M57 65h1M38 66h5M57 66h1M34 67h8M34 68h7M56 68h1M35 69h4" />
<path stroke="#fdfdfd" d="M40 28h1M38 29h1M40 29h1M40 30h1M39 31h1M47 37h1M46 38h2M45 39h2M43 40h4M44 41h2M44 42h5M46 43h2" />
<path stroke="#940a0d" d="M39 29h1M39 30h1M38 31h1" />
<path stroke="#f13035" d="M37 30h1M51 58h1M50 59h4M50 60h4M49 61h6M49 62h6M49 63h6M49 64h6M50 65h4" />
<path stroke="#6c6968" d="M47 36h2M46 37h1M45 38h1M43 39h2M46 41h4M44 48h1M44 49h2M45 50h1M46 51h1M47 52h1M47 53h1M31 54h1M30 55h2M48 55h1M29 56h2M48 56h1M28 57h3M27 58h3M25 59h5M24 60h5M23 61h6M22 62h6M21 63h7M21 64h6M20 65h2M24 65h3M20 66h1M25 66h1M45 68h1M45 69h2M47 70h1M48 71h2M49 72h2M37 75h3M55 75h3M36 76h5M54 76h5M36 77h3M54 77h5M56 78h1" />
<path stroke="#4d4644" d="M35 47h1M35 48h1M34 49h2M34 50h3M33 51h3M32 52h3M32 53h3M30 54h1M32 54h2M29 55h1M32 55h2M28 56h1M31 56h2M27 57h1M31 57h1M25 58h2M30 58h1M24 59h1M23 60h1M22 61h1M21 62h1M20 63h1M20 64h1M19 65h1M19 66h1M39 70h2M56 70h1M38 71h4M54 71h1M56 71h2M39 72h3M51 72h3M55 72h3M39 73h3M53 73h1M55 73h3M38 74h4M54 74h5M40 75h1M54 75h1M58 75h1M36 78h1" />
<path stroke="#d7aa22" d="M33 48h1M46 48h1M32 49h1M47 49h1M32 50h1M47 50h1M49 50h2M30 52h1M30 53h1M50 53h1M50 54h1M51 55h1M54 55h1M52 56h2M50 58h1M49 59h1M49 60h1M21 61h1M48 61h1M20 62h1M48 62h1M19 63h1M48 63h1M19 64h1M48 64h1M49 65h1M54 65h1M50 66h4M52 74h1M52 75h1" />
</svg>