<svg xmlns="http://www.w3.org/2000/svg" viewBox="0 -0.5 96 96" shape-rendering="crispEdges">
<metadata>Made with Pixels to Svg https://codepen.io/shshaw/pen/XbxvNj</metadata>
<path stroke="#9d682d" d="M41 13h1M39 14h1M37 15h1M49 15h2M27 16h2M36 16h1M46 16h2M27 17h1M29 17h1M35 17h1M44 17h2M27 18h1M30 18h2M34 18h1M42 18h2M48 18h1M27 19h1M46 19h1M27 20h1M27 21h1M30 21h1M43 22h1M42 24h1M28 25h1M42 25h1M28 26h1M42 26h1M44 26h3M30 27h1M39 27h1M47 27h2M29 28h2M38 28h1M50 28h3M27 29h1M30 29h1M37 29h1M30 30h1M36 30h1M46 30h1M31 31h1M48 31h1M52 31h2M44 32h1M49 32h1M54 32h1M45 33h1M52 33h1M51 34h1M32 35h1M43 35h1M48 35h1M32 36h1M41 36h1M47 36h1M50 36h1M52 36h1M32 37h1M50 37h1M33 38h1M38 38h1M40 38h1M46 38h1M53 38h1M18 39h1M22 39h1M39 39h1M54 39h2M16 40h1M18 40h1M22 40h2M29 40h4M56 40h2M13 41h1M19 41h1M24 41h4M44 41h1M51 41h1M53 41h1M59 41h2M13 42h1M25 42h1M51 42h1M62 42h3M19 43h1M31 43h3M49 43h1M51 43h1M56 43h1M66 43h6M15 44h1M19 44h1M50 44h1M73 44h3M15 45h1M19 45h1M47 45h1M50 45h1M77 45h2M19 46h2M31 46h1M35 46h2M46 46h1M48 46h1M51 46h1M62 46h2M80 46h1M16 47h1M19 47h1M23 47h1M33 47h3M48 47h1M51 47h1M61 47h1M81 47h1M23 48h1M33 48h1M35 48h1M46 48h1M49 48h1M59 48h3M67 48h1M77 48h2M82 48h1M33 49h1M35 49h1M45 49h1M47 49h1M49 49h2M55 49h2M58 49h1M61 49h1M67 49h2M32 50h1M35 50h2M44 50h2M47 50h1M49 50h1M54 50h1M57 50h2M61 50h1M66 50h1M31 51h1M35 51h1M37 51h1M39 51h1M43 51h1M45 51h1M52 51h3M58 51h1M63 51h1M70 51h1M30 52h1M37 52h2M40 52h2M43 52h1M51 52h1M54 52h1M29 53h1M38 53h1M40 53h1M42 53h1M55 53h1M27 54h1M25 55h2M54 55h1M59 55h1M73 55h4M24 56h1M28 56h1M77 56h1M81 56h1M23 57h1M22 58h1M27 58h1M22 59h1M27 59h2M21 60h1M54 60h1M57 60h1M21 61h1M23 61h1M26 61h1M33 61h1M42 61h1M27 62h1M30 63h1M50 63h1M52 63h1M54 63h1M32 64h1M54 64h1M24 65h1M25 66h2M29 66h1M50 66h1M49 67h1M57 69h2M56 70h2" />
<path stroke="#101010" d="M42 13h1M42 14h1M42 15h1M42 16h1M50 16h1M42 17h1M50 17h1M50 18h1M50 19h1M49 21h1M27 22h1M49 22h1M27 23h1M27 24h1M48 24h1M47 26h1M28 27h1M28 28h1M49 28h1M29 29h1M48 29h1M52 29h1M37 30h1M47 30h1M51 30h1M30 31h1M30 32h1M30 33h1M32 33h1M46 33h4M53 33h1M30 34h3M40 34h1M45 34h1M52 34h1M33 35h1M38 35h1M42 35h1M45 35h1M53 35h1M35 36h3M44 36h2M47 37h1M52 37h1M51 38h1M33 39h1M46 39h1M50 39h2M34 40h1M45 40h1M51 40h2M35 41h1M47 41h1M54 41h1M35 42h2M38 42h1M41 42h1M44 42h1M47 42h1M55 42h1M13 43h1M35 43h1M37 43h1M40 43h1M43 43h1M46 43h1M57 43h1M13 44h1M34 44h1M39 44h1M42 44h1M46 44h1M58 44h1M14 45h1M33 45h1M15 46h1M32 46h1M45 46h1M30 47h1M45 47h1M64 47h1M16 48h1M19 48h1M28 48h2M45 48h1M64 48h3M17 49h3M26 49h2M64 49h1M79 49h4M20 50h1M24 50h2M64 50h1M81 50h1M21 51h3M66 51h4M82 51h1M63 52h1M71 52h2M82 52h1M51 53h1M62 53h1M73 53h2M83 53h1M52 54h1M61 54h1M75 54h1M83 54h1M53 55h1M60 55h1M84 55h1M55 56h4M73 56h1M84 56h1M56 57h1M74 57h1M81 57h1M84 57h1M57 58h1M75 58h1M81 58h2M84 58h1M57 59h1M76 59h1M81 59h1M83 59h2M37 60h3M58 60h1M76 60h1M81 60h1M36 61h1M40 61h2M58 61h1M77 61h1M81 61h1M21 62h1M34 62h2M43 62h1M59 62h1M77 62h1M81 62h1M21 63h1M33 63h1M44 63h1M59 63h1M77 63h1M80 63h1M22 64h1M34 64h1M45 64h1M60 64h1M77 64h1M80 64h1M21 65h1M23 65h1M32 65h3M46 65h1M60 65h1M77 65h1M80 65h1M21 66h3M32 66h1M47 66h1M60 66h3M77 66h1M79 66h1M23 67h1M26 67h2M29 67h4M48 67h1M60 67h1M62 67h1M76 67h1M79 67h1M23 68h4M28 68h1M30 68h1M50 68h2M59 68h1M61 68h1M76 68h1M78 68h1M26 69h1M31 69h1M52 69h2M61 69h1M76 69h2M31 70h1M52 70h1M54 70h2M59 70h3M30 71h1M52 71h3M56 71h2M59 71h1M61 71h1M29 72h1M55 72h2M58 72h2M61 72h1M28 73h1M57 73h1M62 73h1M27 74h1M57 74h1M63 74h1M26 75h1M64 75h1M15 76h1M24 76h2M65 76h1M16 77h8M65 77h1M62 78h1M56 79h1M58 79h2M61 79h1M63 79h3M57 80h1M60 80h1" />
<path stroke="#daa936" d="M40 14h1M38 15h1M37 16h1M48 16h1M28 17h1M41 17h1M49 17h1M28 18h2M41 18h1M47 18h1M28 19h3M40 19h2M45 19h1M28 20h3M40 20h1M44 20h1M28 21h2M40 21h1M43 21h1M28 22h2M34 22h1M28 23h2M39 23h1M42 23h1M28 24h2M39 24h1M29 25h1M29 26h1M29 27h1M34 28h1M39 28h1M28 29h1M39 29h1M49 29h3M29 30h1M31 30h1M34 30h1M39 30h1M48 30h3M39 31h1M49 31h3M31 32h1M35 32h1M45 32h1M50 32h4M31 33h1M50 33h2M42 34h1M46 34h5M44 35h1M46 35h2M49 35h4M42 36h2M49 36h1M51 36h1M36 37h2M41 37h3M51 37h1M19 38h1M37 38h1M41 38h1M50 38h1M52 38h1M20 39h2M52 39h2M53 40h3M14 41h2M23 41h1M28 41h1M52 41h1M55 41h2M58 41h1M26 42h1M54 42h1M56 42h2M61 42h1M18 43h1M25 43h1M34 43h1M58 43h1M65 43h1M14 44h1M16 44h2M33 44h1M57 44h1M59 44h1M72 44h1M32 45h1M63 45h1M76 45h1M16 46h1M23 46h1M30 46h1M47 46h1M64 46h2M79 46h1M21 47h2M29 47h1M36 47h1M46 47h2M52 47h1M65 47h4M17 48h2M27 48h1M47 48h1M53 48h1M62 48h1M68 48h3M76 48h1M79 48h1M20 49h1M25 49h1M62 49h2M69 49h4M78 49h1M21 50h3M33 50h1M59 50h1M62 50h2M67 50h8M79 50h2M32 51h2M47 51h1M56 51h1M59 51h4M71 51h6M80 51h2M31 52h1M35 52h1M45 52h1M50 52h1M56 52h7M73 52h5M80 52h2M43 53h1M53 53h1M56 53h6M75 53h4M80 53h3M28 54h1M38 54h1M40 54h1M42 54h1M53 54h8M76 54h7M55 55h4M77 55h7M27 56h1M74 56h3M78 56h3M82 56h2M26 57h1M37 57h1M75 57h6M82 57h2M25 58h1M36 58h4M76 58h5M83 58h1M24 59h1M35 59h9M55 59h2M77 59h4M26 60h1M28 60h1M34 60h3M40 60h4M77 60h4M24 61h1M32 61h1M43 61h2M53 61h1M56 61h1M78 61h3M22 62h1M29 62h1M44 62h1M51 62h1M55 62h1M78 62h3M22 63h2M25 63h1M31 63h2M45 63h1M53 63h1M78 63h2M23 64h9M33 64h1M46 64h1M49 64h1M59 64h1M78 64h2M22 65h1M25 65h7M47 65h1M51 65h1M53 65h1M59 65h1M78 65h2M24 66h1M27 66h2M30 66h2M58 66h2M78 66h1M24 67h2M28 67h1M56 67h4M61 67h1M77 67h2M52 68h7M60 68h1M77 68h1M54 69h3M59 69h2M53 70h1M58 70h1M55 71h1M58 71h1" />
<path stroke="#f9e455" d="M41 14h1M39 15h3M38 16h4M49 16h1M36 17h5M46 17h3M35 18h6M44 18h3M34 19h6M42 19h3M34 20h6M41 20h3M34 21h6M41 21h2M35 22h8M35 23h4M40 23h2M35 24h4M40 24h2M35 25h7M35 26h7M35 27h4M40 27h3M44 27h3M35 28h3M40 28h2M44 28h2M47 28h2M34 29h3M40 29h1M46 29h2M35 30h1M42 30h1M45 30h1M35 31h1M41 31h2M44 31h4M41 32h3M46 32h3M42 33h3M43 34h2M33 36h2M46 36h1M33 37h3M44 37h3M34 38h3M42 38h4M19 39h1M34 39h5M40 39h6M19 40h3M36 40h1M38 40h3M42 40h1M44 40h1M16 41h1M20 41h3M29 41h3M36 41h1M39 41h1M42 41h1M57 41h1M14 42h2M19 42h1M24 42h1M27 42h4M52 42h2M58 42h3M14 43h2M26 43h5M52 43h4M59 43h6M18 44h1M25 44h4M32 44h1M53 44h4M62 44h10M16 45h3M25 45h4M53 45h5M64 45h12M17 46h2M25 46h5M53 46h2M56 46h2M66 46h13M17 47h2M20 47h1M24 47h5M53 47h1M57 47h1M62 47h2M69 47h12M20 48h3M24 48h3M34 48h1M48 48h1M63 48h1M71 48h5M80 48h2M21 49h4M34 49h1M46 49h1M48 49h1M59 49h2M73 49h5M34 50h1M46 50h1M48 50h1M50 50h1M55 50h2M60 50h1M75 50h4M34 51h1M36 51h1M44 51h1M46 51h1M48 51h3M55 51h1M57 51h1M77 51h3M32 52h3M36 52h1M39 52h1M44 52h1M46 52h4M52 52h2M55 52h1M78 52h2M30 53h8M39 53h1M41 53h1M44 53h7M52 53h1M54 53h1M79 53h1M29 54h9M39 54h1M41 54h1M43 54h9M27 55h26M25 56h2M29 56h26M24 57h2M29 57h8M38 57h18M24 58h1M29 58h7M40 58h17M26 59h1M29 59h6M44 59h9M22 60h1M25 60h1M29 60h5M44 60h9M22 61h1M25 61h1M28 61h4M45 61h8M55 61h1M23 62h3M28 62h1M45 62h4M52 62h2M56 62h3M24 63h1M46 63h3M56 63h3M47 64h2M51 64h1M56 64h3M48 65h2M52 65h1M56 65h3M52 66h6M52 67h4" />
<path stroke="#2759a5" d="M33 16h1M32 17h2M33 18h1M31 19h1M33 19h1M33 20h1M30 22h1M30 23h1M34 23h1M30 24h1M34 24h1M30 25h1M34 25h1M30 26h1M34 26h1M34 27h1M31 28h1M31 29h1M33 29h1M33 30h1M32 31h2" />
<path stroke="#2394d8" d="M32 18h1M31 20h1M31 21h1M33 21h1M33 27h1M25 28h1M32 28h2M42 28h1M46 28h1M26 29h1M32 29h1M41 29h1M43 29h1M45 29h1M28 30h1M32 30h1M40 30h1M44 30h1M27 31h1M37 31h1M43 31h1M29 32h1M39 32h1M35 40h1M37 40h1M41 40h1M43 40h1M38 41h1M40 41h1M21 42h2M39 42h1M42 42h1M20 43h4M20 44h2M24 44h1M30 44h2M51 44h1M24 45h1M29 45h2M51 45h2M38 47h1M40 47h1M39 48h1" />
<path stroke="#727678" d="M49 18h1M47 19h3M45 20h4M44 21h5M44 22h2M47 22h1M43 23h2M43 24h2M34 32h1M38 32h1M33 33h6M34 34h4M48 39h1M49 40h1M33 41h1M49 41h2M32 42h1M50 42h1M38 45h1M40 45h1M42 45h1M39 46h1M41 46h3M41 47h4M37 48h2M40 48h5M37 49h8M37 50h7M38 51h1M40 51h3M42 52h1M27 57h2M23 58h1M26 58h1M28 58h1M23 59h1M25 59h1M53 59h2M23 60h2M27 60h1M53 60h1M55 60h2M27 61h1M54 61h1M57 61h1M49 62h2M54 62h1M49 63h1M51 63h1M55 63h1M50 64h1M52 64h2M55 64h1M50 65h1M54 65h2M51 66h1M20 73h4M18 74h2M21 74h4M59 74h3M22 75h3M57 75h4M62 75h2M56 76h2M59 76h3M63 76h2M56 77h1M61 77h1" />
<path stroke="#5bd0f2" d="M32 19h1M32 20h1M32 21h1M31 22h3M31 23h3M31 24h3M31 25h3M31 26h3M31 27h2M43 27h1M43 28h1M42 29h1M44 29h1M27 30h1M41 30h1M43 30h1M28 31h2M36 31h1M40 31h1M37 41h1M41 41h1M43 41h1M20 42h1M23 42h1M37 42h1M40 42h1M43 42h1M24 43h1M39 43h1M42 43h1M29 44h1M52 44h1M20 45h1M31 45h1M24 46h1M38 46h1M40 46h1M52 46h1M39 47h1" />
<path stroke="#31343e" d="M49 20h1M48 23h1M47 25h1M32 32h1M40 32h1M41 33h1M39 34h1M34 35h1M39 36h1M48 36h1M49 37h1M49 38h1M47 39h1M33 40h1M47 40h2M50 40h1M32 41h1M48 41h1M31 42h1M34 42h1M49 42h1M36 43h1M50 43h1M36 44h1M37 45h1M45 45h1M37 46h1M37 47h1M36 48h1M36 49h1M25 70h1M24 71h1M20 72h4M18 73h2M19 75h1M56 75h1M55 76h1M55 77h1M58 77h1M62 77h1M55 78h1" />
<path stroke="#ef8a4e" d="M46 22h1M45 23h2M45 24h1M44 25h2" />
<path stroke="#484f57" d="M48 22h1M47 23h1M46 24h2M43 25h1M46 25h1M43 26h1M34 31h1M33 32h1M39 33h2M38 34h1M41 34h1M35 35h3M39 35h3M19 36h2M38 36h1M40 36h1M19 37h1M21 37h1M38 37h3M48 37h1M15 38h2M21 38h1M39 38h1M47 38h2M14 39h1M16 39h1M49 39h1M14 40h1M46 40h1M17 41h2M34 41h1M45 41h2M16 42h1M18 42h1M33 42h1M45 42h2M16 43h1M38 43h1M41 43h1M44 43h2M22 44h2M37 44h2M40 44h2M43 44h3M60 44h2M21 45h1M23 45h1M39 45h1M41 45h1M43 45h2M58 45h3M62 45h1M21 46h1M44 46h1M55 46h1M58 46h1M60 46h1M54 47h1M56 47h1M58 47h1M60 47h1M52 48h1M54 48h1M57 48h2M51 49h1M53 49h2M57 49h1M51 50h1M53 50h1M51 51h1M34 61h2M26 62h1M30 62h4M26 63h4M48 66h2M50 67h2M27 68h1M29 68h1M27 69h4M26 70h5M25 71h5M60 71h1M24 72h5M57 72h1M60 72h1M24 73h4M58 73h4M16 74h2M20 74h1M25 74h2M58 74h1M62 74h1M15 75h1M17 75h2M20 75h2M25 75h1M61 75h1M16 76h1M19 76h1M22 76h2M58 76h1M62 76h1M57 77h1M59 77h2M63 77h2M56 78h1M58 78h2M61 78h1M63 78h1M65 78h1" />
<path stroke="#f5f5f5" d="M38 29h1M38 30h1M38 31h1M36 32h2M33 34h1M20 37h1M20 38h1M15 39h1M15 40h1M17 42h1M17 43h1M22 45h1M61 45h1M22 46h1M59 46h1M61 46h1M55 47h1M59 47h1M55 48h2M52 49h1M52 50h1M16 75h1M17 76h2M20 76h2M57 78h1M60 78h1M64 78h1M57 79h1M60 79h1" />
</svg>