<svg xmlns="http://www.w3.org/2000/svg" viewBox="0 -0.5 96 96" shape-rendering="crispEdges">
<metadata>Made with Pixels to Svg https://codepen.io/shshaw/pen/XbxvNj</metadata>
<path stroke="#1250a3" d="M46 7h2M45 8h1M44 9h1M43 10h2M42 11h1M44 11h1M47 11h1M42 12h1M46 12h2M42 13h1M41 14h2M41 15h1M41 16h1M40 17h2M40 18h1M42 18h1M39 19h2M42 19h1M45 19h2M38 20h1M40 20h1M42 20h1M44 20h1M38 21h1M44 21h2M38 22h2M46 22h1M36 25h1M41 25h3M38 26h1M40 26h1M44 26h1M38 27h1M39 28h1M45 28h1M39 29h1M45 29h1M49 29h1M40 30h1M44 30h2M48 30h2M48 31h2M47 32h3M29 33h1M47 33h2M46 34h3M45 35h4M41 36h7M42 37h6M30 38h1M43 38h5M27 39h4M43 39h4M25 40h7M43 40h4M25 41h7M43 41h4M70 41h1M25 42h7M44 42h2M70 42h1M24 43h8M45 43h1M71 43h1M24 44h3M28 44h4M71 44h1M24 45h2M27 45h6M40 45h1M67 45h1M72 45h1M23 46h2M26 46h7M67 46h1M72 46h1M23 47h2M26 47h2M29 47h4M68 47h1M73 47h1M23 48h1M25 48h2M29 48h5M68 48h1M73 48h1M23 49h1M25 49h2M28 49h7M50 49h1M64 49h1M69 49h1M74 49h1M25 50h1M28 50h2M31 50h4M37 50h1M64 50h1M69 50h1M27 51h2M31 51h3M36 51h1M42 51h1M47 51h1M65 51h1M70 51h1M27 52h1M30 52h4M36 52h1M40 52h1M42 52h1M45 52h1M61 52h1M65 52h1M70 52h1M76 52h1M29 53h3M33 53h2M61 53h1M66 53h1M77 53h1M29 54h1M32 54h2M62 54h1M66 54h2M32 55h1M63 55h1M68 55h1M55 58h1M55 59h2M54 60h3M53 61h4M53 62h4M52 63h6M51 64h7M49 65h10M48 66h11M48 67h11M60 67h1M47 68h12M60 68h1M44 69h1M46 69h13M60 69h3M44 70h15M60 70h3M43 71h15M59 71h4M42 72h16M59 72h2M42 73h16M59 73h1M44 74h13M46 75h9M43 76h3M52 76h2M46 77h1M54 77h1" />
<path stroke="#0f78d7" d="M46 8h2M45 9h3M45 10h3M43 11h1M45 11h2M43 12h3M43 13h5M43 14h5M42 15h5M42 16h5M42 17h5M41 18h1M43 18h3M41 19h1M43 19h2M39 20h1M41 20h1M43 20h1M46 20h1M39 21h5M41 22h5M39 23h9M37 24h12M37 25h4M44 25h5M36 26h1M39 26h1M45 26h5M36 27h1M39 27h1M45 27h5M46 28h4M46 29h3M46 30h2M46 31h2M69 34h2M68 35h4M68 36h5M67 37h6M67 38h7M66 39h9M66 40h9M65 41h5M71 41h5M42 42h2M65 42h5M71 42h5M42 43h3M64 43h7M72 43h4M41 44h5M64 44h7M72 44h5M41 45h5M63 45h4M68 45h4M73 45h4M40 46h6M63 46h4M68 46h4M73 46h4M39 47h8M62 47h6M69 47h4M74 47h3M39 48h9M62 48h6M69 48h4M74 48h4M38 49h11M61 49h3M65 49h4M70 49h4M75 49h3M38 50h13M60 50h4M65 50h4M70 50h4M75 50h3M35 51h1M37 51h5M43 51h4M48 51h4M59 51h6M66 51h4M71 51h3M76 51h3M37 52h3M43 52h2M48 52h2M57 52h4M62 52h3M66 52h4M71 52h3M77 52h2M37 53h2M56 53h5M62 53h4M67 53h3M72 53h2M78 53h1M55 54h7M63 54h3M68 54h2M58 55h4M64 55h2M69 55h1M59 56h3M64 56h2M60 57h2" />
<path stroke="#0d3771" d="M48 8h1M48 9h1M48 10h1M48 12h1M48 13h1M48 14h1M47 15h1M47 16h1M47 17h1M46 18h1M47 19h1M45 20h1M47 20h1M46 21h1M40 22h1M47 22h1M37 23h2M48 23h1M36 24h1M49 24h1M49 25h1M35 26h1M35 27h1M35 28h1M29 32h2M28 33h1M69 33h2M68 34h1M71 34h1M67 35h1M72 35h1M67 36h1M73 36h1M41 37h1M66 37h1M73 37h1M31 38h1M42 38h1M66 38h1M74 38h1M31 39h1M42 39h1M65 39h1M75 39h1M42 40h1M65 40h1M75 40h1M24 41h1M42 41h1M64 41h1M76 41h1M24 42h1M41 42h1M64 42h1M76 42h1M23 43h1M41 43h1M63 43h1M76 43h1M23 44h1M27 44h1M40 44h1M63 44h1M77 44h1M23 45h1M26 45h1M39 45h1M62 45h1M77 45h1M22 46h1M25 46h1M39 46h1M46 46h1M62 46h1M77 46h1M22 47h1M25 47h1M28 47h1M38 47h1M47 47h1M61 47h1M77 47h1M22 48h1M24 48h1M27 48h2M38 48h1M48 48h1M61 48h1M78 48h1M22 49h1M24 49h1M27 49h1M37 49h1M49 49h1M78 49h1M26 50h2M30 50h1M54 50h3M74 50h1M78 50h1M29 51h2M74 51h2M79 51h1M28 52h2M35 52h1M41 52h1M46 52h2M74 52h2M79 52h1M32 53h1M36 53h1M39 53h2M43 53h3M48 53h2M54 53h1M70 53h2M74 53h1M76 53h1M79 53h1M30 54h2M37 54h2M70 54h1M72 54h2M77 54h2M66 55h2M70 55h1M54 57h2M54 58h1M54 59h1M53 60h1M52 61h1M52 62h1M51 63h1M50 64h1M48 65h1M47 67h1M44 68h1M46 68h1M59 68h1M43 69h1M45 69h1M59 69h1M43 70h1M59 70h1M42 71h1M58 71h1M40 72h2M58 72h1M58 73h1M57 74h1M43 75h1M56 75h1M42 76h1M51 76h1M45 77h1M47 77h2M53 77h1M55 77h2M46 78h1M54 78h1" />
<path stroke="#c6a42f" d="M37 26h1M36 28h1M38 28h1M44 32h2M41 33h1M45 33h1M37 34h1M42 34h3M38 35h3" />
<path stroke="#6dc953" d="M41 26h3M40 27h5M40 28h2M40 29h2M41 30h1" />
<path stroke="#101010" d="M50 26h1M50 27h1M42 28h1M50 28h1M42 29h1M50 29h1M50 30h1M45 31h1M50 31h1M46 32h1M50 32h1M46 33h1M49 33h1M45 34h1M49 34h1M41 35h4M49 35h1M35 36h6M48 36h1M48 37h1M48 38h1M47 39h1M32 40h1M47 40h1M32 41h1M47 41h1M32 42h1M46 42h1M32 43h1M46 43h1M32 44h1M46 44h1M33 45h1M46 45h1M33 46h1M33 47h1M34 48h1M49 48h2M35 49h1M51 49h1M60 49h1M23 50h2M35 50h2M51 50h3M59 50h1M25 51h2M34 51h1M52 51h1M57 51h2M26 52h1M34 52h1M50 52h2M56 52h1M27 53h2M35 53h1M55 53h1M28 54h1M34 54h1M54 54h1M29 55h3M33 55h1M55 55h3M62 55h1M32 56h2M55 56h1M58 56h1M62 56h2M66 56h1M68 56h2M33 57h1M56 57h1M59 57h1M62 57h1M64 57h3M56 58h1M60 58h2M57 59h1M57 60h1M57 61h1M57 62h1M58 63h1M58 64h1M59 65h1M59 66h2M59 67h1M61 67h1M61 68h2M63 69h1M63 70h1M63 71h1M61 72h2M41 73h1M60 73h2M42 74h2M58 74h2M44 75h2M55 75h1M46 76h5M54 76h2M51 77h2M45 78h1M48 78h1M52 78h1M55 78h1M43 79h2M48 79h1M48 80h1M48 81h1M37 82h4M43 82h5M49 82h5M57 82h4M40 83h3M55 83h2" />
<path stroke="#f7d154" d="M37 27h1M37 28h1M36 29h3M35 30h5M34 31h11M33 32h11M32 33h9M30 34h7M28 35h7M26 36h7M24 37h6M24 38h3M24 39h1" />
<path stroke="#b3e3a4" d="M43 28h2M43 29h2M42 30h2" />
<path stroke="#6c5a24" d="M35 29h1M34 30h1M33 31h1M32 32h1M30 33h2M42 33h3M28 34h2M38 34h4M26 35h2M35 35h3M24 36h2M33 36h2M23 37h1M30 37h3M23 38h1M27 38h3M23 39h1M25 39h2M24 40h1" />
<path stroke="#63808f" d="M50 41h2M39 42h2M48 42h2M52 42h2M38 43h1M47 43h1M54 43h1M38 44h1M47 44h1M54 44h1M37 45h1M53 45h1M37 46h1M52 46h1M37 47h1M53 47h1M37 48h1M52 48h1M32 58h1M32 59h1M52 60h1M32 61h1M32 62h1M33 63h1M48 63h1M33 64h1M48 64h2M33 65h1M34 66h1M47 66h1M34 67h1M44 67h1M35 68h1M45 68h1M36 69h1M36 70h1M37 71h1M39 71h1M38 72h2" />
<path stroke="#ced1db" d="M50 42h2M39 43h2M48 43h1M50 43h4M39 44h1M48 44h6M38 45h1M47 45h6M38 46h1M47 46h4M48 47h5M51 48h1M53 51h3M54 52h1M51 53h2M40 54h13M35 55h19M34 56h20M34 57h19M34 58h20M33 59h19M53 59h1M34 60h17M34 61h14M49 61h1M34 62h14M49 62h1M34 63h10M45 63h3M35 64h9M45 64h1M35 65h8M36 66h2M39 66h4M37 67h1M39 67h3M39 68h1" />
<path stroke="#a2a8ca" d="M49 43h1M51 46h1M56 51h1M52 52h2M55 52h1M41 53h2M46 53h2M50 53h1M53 53h1M35 54h2M39 54h1M53 54h1M34 55h1M54 55h1M54 56h1M53 57h1M33 58h1M52 59h1M33 60h1M51 60h1M33 61h1M48 61h1M50 61h2M33 62h1M48 62h1M50 62h2M44 63h1M49 63h2M34 64h1M44 64h1M46 64h2M34 65h1M43 65h5M35 66h1M38 66h1M43 66h4M35 67h2M38 67h1M42 67h2M45 67h2M36 68h3M40 68h4M37 69h6M37 70h6M38 71h1M40 71h2" />
<path stroke="#3c4142" d="M47 78h1M53 78h1M45 79h3M51 79h1M55 79h3M38 80h5M47 80h1M50 80h1M52 80h1M55 80h2M58 80h2M37 81h1M40 81h1M49 81h1M51 81h3M56 81h2M60 81h1M54 82h1M56 82h1" />
<path stroke="#525a5c" d="M52 79h3M43 80h4M51 80h1M53 80h2M57 80h1M38 81h2M41 81h7M50 81h1M54 81h2M58 81h2M41 82h2M55 82h1" />
</svg>