<svg xmlns="http://www.w3.org/2000/svg" viewBox="0 -0.5 96 96" shape-rendering="crispEdges">
<metadata>Made with Pixels to Svg https://codepen.io/shshaw/pen/XbxvNj</metadata>
<path stroke="#d78f00" d="M42 6h2M42 7h1M44 7h1M55 7h2M42 8h1M44 8h1M48 8h1M54 8h1M56 8h1M42 9h1M45 9h1M47 9h1M49 9h1M53 9h1M56 9h1M42 10h1M45 10h1M47 10h1M49 10h1M52 10h1M56 10h1M58 10h2M42 11h1M46 11h1M50 11h2M56 11h2M59 11h1M38 12h2M42 12h1M46 12h1M50 12h1M55 12h2M59 12h1M38 13h1M40 13h1M42 13h1M55 13h1M59 13h1M38 14h1M41 14h2M58 14h1M62 14h4M39 15h1M42 15h1M58 15h4M65 15h1M39 16h1M56 16h3M64 16h1M39 17h1M63 17h1M40 18h1M46 18h1M62 18h1M37 19h4M61 19h1M37 20h1M40 20h1M45 20h1M60 20h2M38 21h1M62 21h1M39 22h1M40 23h1M43 23h1M41 24h2M42 26h1M53 26h1M65 26h1M66 27h1M60 28h7M61 29h1M62 30h1M53 31h1M60 31h3M42 32h1M58 32h2M50 33h1M59 33h1M45 34h3M49 34h1M52 34h1M57 34h3M44 35h5M57 35h1M45 36h3M56 36h2M51 37h1M44 39h1M50 39h1M44 40h1M49 41h1M53 42h2M41 43h2M50 43h1M55 44h1M39 45h1M56 46h1M38 47h1M57 49h1M54 51h1M38 52h1M53 52h1M58 52h1M52 54h1M39 55h1M51 55h1M50 57h1M51 58h1M49 59h1M51 59h1M50 60h1M42 61h1M49 62h1M43 63h1M48 63h1M44 65h1M47 65h1M46 66h1M30 67h1M45 67h1M28 68h2M27 69h1M27 70h1M36 74h1M36 75h1M67 75h1M65 76h1M68 76h1M41 77h1M65 77h1M39 78h2M68 78h1M40 79h1M68 79h1M56 80h1M58 80h1M36 81h1M57 81h1M61 82h1M40 84h2M38 85h2M30 86h1M37 86h1M32 87h2M35 87h2M56 87h1M56 88h3M61 88h2M64 88h2" />
<path stroke="#f0c810" d="M43 7h1M43 8h1M55 8h1M43 9h2M48 9h1M54 9h1M43 10h1M53 10h1M43 11h1M45 11h1M47 11h1M49 11h1M52 11h1M58 11h1M43 12h1M49 12h1M51 12h1M57 12h2M39 13h1M43 13h1M46 13h1M49 13h2M56 13h1M58 13h1M39 14h1M43 14h1M41 15h1M43 15h1M57 15h1M62 15h3M40 16h1M42 16h2M47 16h1M59 16h2M63 16h1M40 17h1M43 17h1M46 17h3M55 17h3M62 17h1M61 18h1M41 19h1M45 19h1M60 19h1M38 20h1M41 20h1M59 20h1M39 21h1M41 21h1M44 21h1M60 21h2M40 22h1M43 22h1M41 23h1M43 26h6M52 26h1M41 27h9M51 27h3M64 27h2M40 28h14M59 28h1M40 29h14M60 29h1M40 30h14M61 30h1M41 31h12M58 31h2M43 32h7M51 32h2M44 33h5M51 33h2M56 33h3M50 34h2M49 35h3M56 35h1M44 36h1M48 36h4M44 37h7M44 38h7M45 39h5M45 40h5M45 41h4M45 42h4M45 43h4M51 43h4M40 44h13M54 44h1M41 45h8M50 45h2M55 45h1M41 46h1M43 46h5M51 46h1M55 46h1M44 47h4M55 47h2M38 48h1M44 48h3M54 48h3M38 49h1M44 49h3M54 49h3M45 50h1M54 50h1M56 50h2M45 51h1M53 51h1M57 51h1M57 52h1M38 53h2M52 53h1M58 53h1M38 54h2M58 54h1M38 55h1M45 58h1M45 59h1M50 59h1M42 60h1M45 60h1M48 60h2M43 61h7M43 62h6M44 63h4M44 64h4M45 65h2M45 66h1M59 74h1M58 75h2M61 83h2" />
<path stroke="#f8e696" d="M55 9h1M44 10h1M48 10h1M54 10h2M44 11h1M48 11h1M53 11h3M44 12h2M47 12h2M52 12h1M44 13h2M47 13h2M51 13h1M57 13h1M40 14h1M44 14h7M55 14h3M40 15h1M44 15h6M55 15h2M41 16h1M44 16h3M48 16h2M55 16h1M61 16h2M41 17h2M44 17h2M54 17h1M58 17h4M41 18h5M54 18h7M42 19h3M54 19h6M39 20h1M42 20h3M55 20h4M40 21h1M42 21h2M56 21h4M41 22h2M42 23h1M62 27h2M58 29h2M57 30h4M57 31h1M57 32h1M56 34h1M56 37h1" />
<path stroke="#4b2d5e" d="M53 12h1M52 13h1M51 14h1M50 16h1M49 17h1M47 18h3M52 19h1M54 20h1M55 21h1M57 22h10M39 23h1M67 23h1M38 24h1M49 24h3M38 25h1M44 25h4M52 25h1M38 26h1M41 26h1M49 26h1M51 26h1M37 27h2M40 27h1M50 27h1M55 27h1M36 28h1M38 28h1M35 29h1M39 29h1M34 30h1M33 31h1M32 32h1M43 34h1M43 35h1M43 36h1M43 37h1M57 37h2M43 38h1M56 38h1M42 39h1M55 39h1M42 40h1M56 40h1M41 41h1M39 42h2M59 42h1M38 43h1M37 44h1M36 45h1M36 46h1M36 47h1M62 50h1M63 51h1M63 52h1M63 53h1M54 54h1M63 54h1M64 55h1M35 56h2M59 56h1M64 56h1M34 57h1M53 57h1M60 57h1M65 57h1M33 58h1M60 58h1M66 58h1M32 59h1M60 59h1M66 59h1M32 60h1M60 60h1M67 60h1M31 61h1M41 61h1M61 61h1M67 61h1M41 62h1M61 62h1M67 62h1M41 63h1M62 63h1M67 63h1M27 64h2M63 64h1M68 64h1M26 65h1M63 65h1M68 65h1M25 66h1M30 66h1M64 66h1M68 66h1M24 67h1M27 67h3M24 68h2M57 68h1M23 69h1M25 69h1M58 69h1M23 70h1M25 70h1M58 70h1M70 70h1M59 71h1M65 71h1M70 71h1M43 72h2M59 72h1M65 72h1M71 72h1M49 73h1M59 73h1M64 73h1M71 73h1M64 74h1M72 74h1M64 75h1M66 75h1M70 75h1M72 75h1M60 76h1M63 76h1M67 76h1M70 76h1M63 77h1M68 77h1M70 77h1M59 78h1M67 78h1M56 79h1M59 79h1M35 81h1M34 82h1M32 83h2M30 84h2M63 84h1M29 85h1M32 85h1M35 85h1M56 85h1M64 85h1M31 86h1M34 86h1M56 86h1M62 86h1M65 86h1M55 87h1M59 87h1M63 87h1" />
<path stroke="#101010" d="M54 12h1M54 13h1M54 14h1M54 15h1M54 16h1M53 17h1M53 18h1M53 19h1M49 23h1M67 24h1M65 25h2M62 26h3M59 27h3M56 28h3M57 29h1M56 30h1M56 31h1M39 32h2M56 32h1M32 33h1M36 33h3M55 33h1M33 34h3M55 34h1M55 35h1M55 36h1M55 37h1M59 37h1M55 38h1M59 38h1M59 39h1M58 40h1M57 41h2M60 43h1M60 44h1M60 45h1M60 46h1M61 47h1M61 48h1M62 49h1M55 51h1M49 52h1M52 52h1M55 52h1M40 53h1M42 53h1M49 53h1M51 53h1M55 53h1M40 54h1M42 54h1M48 54h1M51 54h1M41 55h2M48 55h1M54 55h1M43 56h1M45 56h1M47 56h1M54 56h2M43 57h1M45 57h1M47 57h1M55 57h1M39 58h1M44 58h1M46 58h1M49 58h1M53 58h1M55 58h1M57 58h1M40 59h1M42 59h1M48 59h1M53 59h1M57 59h1M43 60h1M47 60h1M53 60h1M57 60h1M57 61h1M35 65h1M58 65h2M31 66h1M36 66h1M57 66h1M31 67h1M36 67h1M57 67h1M63 67h1M27 68h1M30 68h1M56 68h1M62 68h1M28 69h1M30 69h1M42 69h1M49 69h1M56 69h1M62 69h1M28 70h2M31 70h1M35 70h3M42 70h1M49 70h1M55 70h1M23 71h1M26 71h2M29 71h1M31 71h1M36 71h1M38 71h2M42 71h1M49 71h1M53 71h3M24 72h2M29 72h2M36 72h1M40 72h2M50 72h2M26 73h3M36 73h1M44 73h5M35 74h1M43 74h1M49 74h1M60 74h1M35 75h1M43 75h1M50 75h1M60 75h1M34 76h1M42 76h1M51 76h1M66 76h1M72 76h1M34 77h1M42 77h1M52 77h1M61 77h1M66 77h1M72 77h1M34 78h1M38 78h1M41 78h1M53 78h2M61 78h1M64 78h2M70 78h2M35 79h1M38 79h1M41 79h1M55 79h1M61 79h1M67 79h1M70 79h1M35 80h1M41 80h1M55 80h1M62 80h1M68 80h2M41 81h1M56 81h1M62 81h1M42 82h1M56 82h1M62 82h1M42 83h1M57 83h1M63 83h1M42 84h1M57 84h1M40 85h2M29 86h1M38 86h2M30 87h2M34 87h1M37 87h1M66 87h1M32 88h2M35 88h2M55 88h1M59 88h2M63 88h1M66 88h1M56 89h3M61 89h2M64 89h2" />
<path stroke="#c982c4" d="M53 13h1M52 14h1M39 24h1M53 45h1M40 46h1M49 46h1M53 46h1M40 47h1M42 47h1M49 47h1M52 47h2M40 48h1M42 48h1M49 48h1M52 48h1M40 49h1M42 49h1M48 49h2M51 49h2M40 50h1M42 50h1M48 50h1M51 50h2M40 51h1M42 51h2M47 51h2M50 51h2M41 52h1M43 52h1M47 52h2M43 53h2M46 53h2M44 54h1M46 54h2M49 55h1M42 56h1M48 56h2M42 57h1M48 57h1M43 58h1M47 58h1M29 62h1M39 62h1M53 62h3M37 63h3M53 63h3M57 63h1M32 64h1M35 64h1M37 64h3M52 64h8M33 65h1M37 65h3M52 65h5M37 66h4M51 66h6M38 67h3M51 67h5M69 67h2M37 68h1M39 68h2M51 68h3M65 68h1M36 69h2M39 69h3M50 69h2M53 69h1M64 69h1M40 70h2M50 70h2M53 70h2M41 71h1M50 71h1" />
<path stroke="#8d4fae" d="M53 14h1M52 15h2M51 16h3M50 17h3M51 18h2M46 19h6M46 20h8M45 21h10M44 22h3M54 22h2M44 23h4M54 23h13M40 24h1M43 24h6M52 24h3M66 24h1M39 25h4M49 25h2M53 25h1M39 26h1M50 26h1M39 27h1M37 28h1M36 29h1M35 30h1M34 31h1M33 32h1M33 33h1M52 35h1M52 36h2M52 37h3M51 38h4M43 39h1M51 39h4M43 40h1M50 40h6M42 41h3M50 41h1M53 41h4M41 42h1M44 42h1M51 42h2M55 42h3M39 43h2M43 43h2M49 43h1M55 43h4M38 44h2M56 44h4M37 45h2M56 45h4M37 46h2M57 46h3M37 47h1M57 47h3M57 48h3M58 49h3M58 50h4M58 51h5M59 52h4M59 53h4M59 54h4M59 55h2M62 55h2M37 56h1M39 56h1M60 56h1M62 56h2M35 57h6M51 57h1M62 57h3M34 58h4M40 58h1M50 58h1M61 58h5M33 59h5M61 59h5M33 60h5M51 60h2M61 60h6M32 61h5M50 61h3M62 61h5M31 62h5M42 62h1M50 62h2M62 62h5M30 63h2M34 63h1M42 63h1M49 63h3M63 63h4M29 64h2M41 64h3M48 64h3M64 64h4M27 65h4M41 65h3M48 65h3M64 65h4M26 66h4M42 66h3M47 66h3M65 66h3M25 67h2M42 67h3M46 67h4M66 67h2M26 68h1M42 68h8M67 68h1M24 69h1M26 69h1M43 69h6M57 69h1M67 69h2M24 70h1M26 70h1M30 70h1M44 70h5M56 70h2M66 70h4M24 71h2M28 71h1M30 71h1M56 71h3M66 71h4M26 72h3M52 72h7M66 72h5M51 73h8M65 73h6M51 74h8M65 74h1M67 74h3M71 74h1M52 75h6M65 75h1M68 75h2M71 75h1M52 76h8M64 76h1M69 76h1M71 76h1M53 77h7M64 77h1M69 77h1M71 77h1M55 78h4M69 78h1M69 79h1M34 83h2M59 83h2M32 84h6M58 84h5M30 85h2M33 85h2M36 85h2M57 85h7M32 86h2M35 86h2M57 86h5M63 86h2M57 87h2M60 87h3M64 87h2" />
<path stroke="#6a4277" d="M50 15h2M50 18h1M53 22h1M56 22h1M52 23h2M55 24h11M43 25h1M48 25h1M51 25h1M54 25h11M40 26h1M54 26h8M54 27h1M56 27h3M39 28h1M54 28h2M37 29h2M54 29h3M36 30h3M54 30h2M35 31h5M54 31h2M34 32h5M53 32h3M34 33h2M53 33h2M53 34h2M53 35h2M54 36h1M57 38h2M56 39h3M57 40h1M51 41h2M42 42h2M49 42h2M58 42h1M59 43h1M53 44h1M40 45h1M49 45h1M52 45h1M54 45h1M39 46h1M42 46h1M48 46h1M50 46h1M52 46h1M54 46h1M39 47h1M41 47h1M43 47h1M48 47h1M50 47h2M54 47h1M60 47h1M39 48h1M41 48h1M43 48h1M47 48h1M50 48h2M53 48h1M60 48h1M39 49h1M41 49h1M43 49h1M47 49h1M50 49h1M53 49h1M61 49h1M39 50h1M41 50h1M44 50h1M46 50h1M50 50h1M53 50h1M39 51h1M41 51h1M44 51h1M46 51h1M49 51h1M52 51h1M39 52h1M42 52h1M45 52h2M54 52h1M45 53h1M53 53h2M45 54h1M49 54h1M53 54h1M45 55h1M50 55h1M52 55h2M61 55h1M41 56h1M50 56h4M61 56h1M41 57h1M49 57h1M52 57h1M54 57h1M61 57h1M38 58h1M52 58h1M54 58h1M56 58h1M38 59h1M44 59h1M46 59h1M52 59h1M54 59h2M38 60h1M44 60h1M46 60h1M54 60h1M28 61h3M37 61h1M53 61h1M56 61h1M28 62h1M30 62h1M36 62h1M40 62h1M52 62h1M57 62h2M28 63h2M32 63h2M35 63h2M40 63h1M52 63h1M59 63h1M31 64h1M34 64h1M40 64h1M51 64h1M60 64h1M31 65h1M34 65h1M36 65h1M51 65h1M32 66h3M41 66h1M50 66h1M69 66h3M37 67h1M41 67h1M50 67h1M64 67h2M68 67h1M71 67h1M36 68h1M54 68h1M64 68h1M66 68h1M68 68h1M70 68h1M35 69h1M38 69h1M55 69h1M63 69h1M66 69h1M69 69h2M38 70h1M43 70h1M52 70h1M63 70h3M37 71h1M43 71h6M52 71h1M37 72h3M42 72h1M45 72h5M37 73h7M50 73h1M37 74h6M50 74h1M66 74h1M70 74h1M37 75h6M51 75h1M35 76h7M35 77h6M60 77h1M35 78h3M60 78h1M36 79h2M39 79h1M57 79h2M60 79h1M36 80h5M59 80h3M37 81h4M58 81h4M35 82h7M57 82h4M36 83h6M58 83h1M38 84h2" />
<path stroke="#bcb8c0" d="M47 22h1M52 22h1M48 23h1" />
<path stroke="#f9f9f9" d="M48 22h4M50 23h2" />
<path stroke="#7c461f" d="M39 30h1M40 31h1M41 32h1M50 32h1M42 33h2M49 33h1M44 34h1M48 34h1M37 48h1M37 49h1M38 50h1M55 50h1M38 51h1M56 51h1M37 52h1M56 52h1M37 53h1M57 53h1M37 54h1M57 54h1M37 55h1M40 55h1M58 55h1M38 56h1M40 56h1M41 58h1M41 59h1M41 60h1M29 69h1M57 80h1" />
<path stroke="#a550ab" d="M48 48h1M43 50h1M47 50h1M49 50h1M40 52h1M44 52h1M50 52h2M41 53h1M48 53h1M50 53h1M41 54h1M43 54h1M50 54h1M43 55h2M46 55h2M44 56h1M46 56h1M44 57h1M46 57h1M42 58h1M48 58h1M39 59h1M43 59h1M47 59h1M56 59h1M39 60h2M55 60h2M38 61h3M54 61h2M37 62h2M56 62h1M56 63h1M58 63h1M33 64h1M36 64h1M32 65h1M40 65h1M57 65h1M56 67h1M38 68h1M41 68h1M50 68h1M55 68h1M63 68h1M69 68h1M52 69h1M54 69h1M65 69h1M39 70h1M40 71h1M51 71h1" />
</svg>