<svg xmlns="http://www.w3.org/2000/svg" viewBox="0 -0.5 96 96" shape-rendering="crispEdges">
<metadata>Made with Pixels to Svg https://codepen.io/shshaw/pen/XbxvNj</metadata>
<path stroke="#bcb9be" d="M40 4h2M39 5h1M39 6h1M38 7h1M67 7h3M38 8h1M65 8h2M70 8h1M37 9h1M64 9h1M70 9h1M32 10h2M37 10h1M64 10h1M70 10h1M31 11h1M34 11h1M37 11h1M41 11h1M63 11h1M69 11h1M31 12h1M34 12h1M36 12h1M63 12h1M69 12h1M31 13h1M34 13h3M41 13h1M63 13h1M69 13h1M32 14h1M41 14h1M62 14h1M68 14h1M32 15h1M41 15h1M45 15h2M62 15h1M68 15h1M72 15h2M33 16h1M41 16h1M44 16h1M61 16h1M68 16h1M71 16h1M74 16h1M34 17h2M38 17h1M42 17h1M44 17h1M47 17h1M57 17h2M61 17h1M66 17h5M74 17h1M36 18h2M43 18h1M56 18h1M59 18h1M61 18h1M73 18h1M37 19h1M43 19h1M48 19h1M56 19h1M59 19h2M73 19h1M43 20h1M56 20h1M60 20h1M71 20h2M26 21h2M44 21h1M56 21h1M60 21h1M67 21h4M25 22h1M28 22h1M44 22h1M56 22h1M60 22h1M66 22h1M24 23h1M28 23h1M45 23h1M49 23h1M56 23h1M59 23h1M24 24h1M28 24h1M45 24h1M56 24h1M58 24h1M24 25h1M27 25h1M44 25h1M57 25h2M9 26h4M15 26h4M23 26h1M27 26h1M44 26h1M57 26h1M7 27h2M13 27h2M19 27h2M23 27h1M28 27h1M41 27h4M50 27h3M56 27h1M6 28h1M21 28h3M28 28h1M44 28h1M50 28h1M53 28h3M6 29h1M23 29h1M27 29h1M49 29h1M54 29h1M7 30h4M22 30h1M27 30h1M53 30h1M11 31h2M22 31h1M40 31h3M53 31h1M13 32h6M38 32h2M53 32h1M77 32h2M19 33h1M28 33h1M35 33h1M76 33h1M20 34h1M29 34h1M34 34h1M59 34h1M74 34h2M20 35h1M30 35h1M33 35h1M41 35h1M54 35h1M58 35h1M73 35h1M21 36h2M31 36h1M33 36h1M46 36h1M55 36h3M73 36h1M23 37h1M33 37h1M72 37h1M82 37h3M32 38h1M72 38h1M80 38h2M85 38h3M32 39h1M72 39h1M78 39h2M32 40h1M65 40h2M72 40h1M64 41h1M67 41h1M72 41h1M63 42h1M67 42h1M71 42h1M31 43h1M40 43h1M62 43h1M66 43h1M71 43h1M82 43h1M31 44h1M39 44h1M59 44h3M66 44h1M70 44h1M31 45h1M65 45h1M68 45h2M31 46h1M64 46h4M31 47h1M30 48h1M74 48h2M27 49h3M76 49h3M26 50h1M54 50h1M79 50h2M26 51h1M55 51h1M67 51h1M81 51h1M33 52h1M56 52h3M63 52h1M71 52h1M82 52h2M33 53h1M56 53h1M84 53h1M33 54h1M47 54h1M55 54h1M77 54h1M84 54h1M33 55h1M43 55h1M47 55h1M54 55h1M80 55h1M84 55h1M34 56h1M43 56h1M47 56h1M53 56h1M34 57h1M43 57h1M47 57h1M35 58h1M43 58h1M46 58h1M51 58h1M43 59h1M46 59h1M36 60h1M44 60h2M48 61h1M48 62h1M40 65h1" />
<path stroke="#f9f2fc" d="M40 5h2M40 6h2M39 7h3M39 8h3M67 8h3M38 9h4M65 9h5M38 10h3M65 10h5M32 11h2M38 11h3M64 11h5M32 12h2M38 12h3M64 12h5M32 13h2M38 13h3M64 13h5M33 14h4M38 14h3M63 14h5M33 15h8M63 15h5M34 16h4M39 16h2M45 16h2M62 16h5M72 16h2M36 17h2M39 17h3M45 17h2M62 17h4M71 17h3M39 18h4M44 18h4M57 18h2M62 18h3M66 18h7M38 19h5M44 19h4M57 19h2M61 19h12M38 20h5M44 20h4M57 20h3M61 20h10M39 21h5M45 21h3M57 21h3M61 21h4M26 22h2M40 22h4M46 22h3M57 22h2M61 22h4M25 23h3M40 23h5M47 23h2M57 23h1M60 23h6M25 24h2M41 24h4M47 24h3M59 24h7M25 25h2M41 25h3M45 25h5M59 25h6M25 26h2M40 26h4M45 26h5M59 26h6M9 27h3M16 27h3M24 27h3M40 27h1M45 27h4M59 27h6M7 28h14M24 28h3M41 28h3M45 28h3M51 28h2M57 28h7M7 29h15M24 29h3M39 29h7M50 29h4M55 29h9M12 30h10M23 30h4M38 30h15M54 30h9M14 31h8M23 31h4M37 31h3M43 31h10M54 31h8M19 32h8M36 32h2M40 32h2M48 32h5M54 32h8M20 33h6M36 33h3M51 33h10M77 33h2M21 34h7M35 34h3M52 34h7M76 34h3M21 35h9M34 35h3M53 35h1M55 35h3M74 35h5M23 36h8M34 36h2M54 36h1M74 36h4M24 37h7M34 37h2M54 37h4M73 37h4M25 38h6M33 38h2M54 38h5M73 38h4M82 38h3M26 39h5M33 39h2M55 39h5M73 39h4M80 39h8M28 40h2M33 40h2M55 40h5M73 40h5M79 40h9M29 41h1M32 41h3M55 41h6M65 41h2M73 41h5M79 41h8M32 42h3M55 42h6M64 42h3M73 42h4M78 42h6M32 43h3M55 43h6M63 43h3M75 43h5M32 44h3M55 44h2M62 44h4M71 44h7M32 45h4M54 45h2M58 45h3M62 45h3M70 45h7M32 46h4M54 46h9M68 46h8M32 47h5M53 47h23M33 48h5M52 48h21M30 49h3M34 49h5M51 49h3M55 49h21M27 50h14M49 50h5M56 50h12M69 50h10M27 51h6M34 51h21M57 51h7M66 51h1M69 51h12M34 52h11M47 52h9M65 52h3M72 52h10M34 53h12M48 53h8M66 53h2M74 53h10M34 54h9M44 54h3M48 54h7M67 54h2M78 54h6M34 55h9M44 55h3M48 55h6M68 55h1M81 55h3M35 56h8M45 56h2M48 56h5M35 57h8M45 57h2M48 57h4M36 58h7M44 58h2M47 58h4M36 59h7M44 59h2M47 59h3M37 60h7M46 60h3M38 61h10M38 62h10M39 63h8M40 64h7M41 65h6M42 66h4M43 67h2" />
<path stroke="#7b787c" d="M42 5h1M42 6h1M42 7h1M42 8h1M44 8h2M42 9h2M46 9h1M42 10h1M46 10h1M45 11h1M44 12h1M44 13h1M42 14h2M47 16h1M48 18h1M36 19h1M35 20h1M37 20h1M49 20h1M35 21h1M38 21h1M49 21h1M35 22h1M39 22h1M49 22h1M36 23h1M39 23h1M66 23h1M36 24h1M40 24h1M50 24h1M66 24h1M36 25h1M40 25h1M50 25h1M65 25h1M67 25h1M73 25h5M36 26h1M39 26h1M50 26h1M65 26h1M67 26h1M72 26h1M78 26h2M36 27h1M39 27h1M65 27h1M67 27h1M70 27h2M80 27h1M37 28h1M39 28h2M64 28h1M66 28h1M69 28h1M77 28h3M37 29h2M64 29h1M66 29h3M75 29h2M37 30h1M63 30h1M73 30h2M28 31h1M36 31h1M62 31h1M72 31h1M28 32h1M32 32h2M35 32h1M62 32h1M71 32h1M31 33h1M34 33h1M61 33h1M71 33h1M79 33h1M18 34h2M31 34h1M60 34h1M64 34h2M69 34h2M79 34h1M16 35h2M31 35h1M59 35h1M63 35h1M66 35h3M79 35h1M14 36h2M60 36h1M62 36h1M78 36h1M13 37h1M60 37h2M77 37h1M13 38h1M16 38h2M22 38h3M61 38h1M77 38h1M14 39h2M18 39h4M25 39h1M61 39h1M88 39h1M26 40h2M61 40h1M88 40h1M28 41h1M61 41h1M87 41h1M28 42h1M61 42h1M85 42h2M29 43h1M61 43h1M83 43h2M30 44h1M80 44h2M79 45h1M77 46h2M76 47h1M76 48h1M27 52h3M59 52h4M68 52h3M30 53h3M58 53h1M64 53h2M68 53h1M72 53h2M56 54h2M66 54h1M69 54h1M74 54h3M55 55h1M67 55h1M69 55h1M78 55h2M54 56h1M68 56h1M81 56h3M54 57h1M54 58h1M35 59h1M50 59h4M49 60h1M36 61h1M49 61h1M37 62h1M50 62h1M38 63h1M50 63h1M39 64h1M48 64h2M47 65h1M40 66h1M47 66h1M41 67h1M47 67h1M41 68h1M48 68h1M40 69h1M49 69h1M40 70h1M50 70h1M41 71h1M50 71h1M42 72h1M49 72h1M42 73h1M49 73h1M41 74h1M50 74h1M39 75h2" />
<path stroke="#dcd9dd" d="M44 9h1M41 10h1M43 10h1M37 12h1M37 13h1M37 14h1M38 16h1M67 16h1M38 18h1M65 18h1M36 20h1M48 20h1M36 21h2M48 21h1M65 21h2M36 22h2M45 22h1M59 22h1M65 22h1M38 23h1M46 23h1M58 23h1M27 24h1M37 24h1M46 24h1M57 24h1M24 26h1M58 26h1M73 26h5M12 27h1M15 27h1M27 27h1M49 27h1M57 27h2M73 27h1M75 27h1M77 27h3M27 28h1M48 28h2M56 28h1M74 28h1M76 28h1M22 29h1M46 29h3M11 30h1M13 31h1M27 31h1M27 32h1M26 33h2M28 34h1M16 36h1M18 36h1M14 37h2M17 37h1M58 37h1M14 38h2M18 38h1M59 38h1M77 39h1M30 40h1M60 40h1M78 40h1M78 41h1M29 42h1M72 42h1M77 42h1M84 42h1M72 43h3M80 43h2M57 44h2M78 44h2M56 45h2M61 45h1M77 45h2M63 46h1M76 46h1M31 48h2M73 48h1M33 49h1M54 49h1M55 50h1M68 50h1M33 51h1M56 51h1M64 51h2M68 51h1M30 52h3M45 52h2M64 52h1M46 53h2M43 54h1M44 56h1M44 57h1M52 57h1M37 61h1M47 63h1M41 66h1M46 66h1M42 67h1M45 67h1M44 68h1M46 68h1M45 69h1M47 69h1M49 74h1M41 75h1M46 75h2M39 76h6" />
<path stroke="#c9c0ce" d="M45 9h1M44 10h2M42 11h3M41 12h3M42 13h2M38 22h1M37 23h1M38 24h2M37 25h3M66 25h1M37 26h2M66 26h1M37 27h2M66 27h1M72 27h1M74 27h1M76 27h1M38 28h1M65 28h1M70 28h4M75 28h1M65 29h1M69 29h6M64 30h9M63 31h9M47 32h1M63 32h8M32 33h2M62 33h9M32 34h2M38 34h1M61 34h3M66 34h3M18 35h2M32 35h1M37 35h1M60 35h3M17 36h1M19 36h2M32 36h1M36 36h1M58 36h2M61 36h1M16 37h1M18 37h5M31 37h2M59 37h1M19 38h3M31 38h1M35 38h1M60 38h1M31 39h1M54 39h1M60 39h1M31 40h1M30 41h2M30 42h2M30 43h1M35 44h1M54 44h1M36 46h1M53 46h1M37 47h1M52 47h1M38 48h1M51 48h1M39 49h1M50 49h1M41 50h1M48 50h1M57 53h1M53 57h1M52 58h2M49 62h1M48 63h2M47 64h1M46 67h1M42 68h2M45 68h1M47 68h1M41 69h4M46 69h1M48 69h1M41 70h9M42 71h8M43 72h6M43 73h6M42 74h7M42 75h4M41 77h2" />
<path stroke="#938f94" d="M42 32h1M39 33h3M49 33h2M49 34h1M51 34h1M39 35h2M49 35h1M52 35h1M38 36h1M42 36h4M50 36h1M53 36h1M38 37h1M47 37h2M51 37h3M36 38h2M49 38h1M35 39h1M50 39h1M35 40h1M50 40h1M35 41h1M49 41h1M35 42h1M49 42h1M36 43h1M41 43h1M50 43h2M37 44h2M42 44h1M51 44h1M43 45h1M51 45h1M44 46h1M50 46h1M45 47h2M48 47h2M46 48h1M48 48h1M46 49h1M48 49h1M47 50h1" />
<path stroke="#cbc2d1" d="M43 32h4M42 33h7M39 34h10M50 34h1M38 35h1M42 35h7M50 35h2M37 36h1M47 36h3M51 36h2M36 37h2M49 37h2M50 38h4M51 39h3M51 40h4M50 41h5M50 42h5M35 43h1M52 43h3M36 44h1M40 44h2M52 44h2M36 45h7M52 45h2M37 46h7M51 46h2M38 47h7M50 47h2M39 48h7M49 48h2M40 49h6M49 49h1M42 50h5" />
<path stroke="#fbf2ff" d="M39 36h3M39 37h1M41 37h6M38 38h1M42 38h7M36 39h2M42 39h3M46 39h4M36 40h2M39 40h1M43 40h1M47 40h3M36 41h4M41 41h1M43 41h1M48 41h1M36 42h3M40 42h2M44 42h1M46 42h1M48 42h1M37 43h3M42 43h1M44 43h2M47 43h3M43 44h8M44 45h7M45 46h5M47 47h1M47 48h1M47 49h1M34 74h2M33 75h2M51 75h4M33 76h2M49 76h8M33 77h1M36 77h2M46 77h11M34 78h5M47 78h10M35 79h6M48 79h9M35 80h7M48 80h8M35 81h7M47 81h9M35 82h8M46 82h9M36 83h18M38 84h14M45 85h5M46 86h4M46 87h4M47 88h3M47 89h3" />
<path stroke="#e66294" d="M40 37h1M39 38h1M39 39h1M45 39h1M40 40h1M44 40h1M46 40h1M44 41h1M46 41h1M45 42h1" />
<path stroke="#fcfcfc" d="M40 38h1M45 40h1" />
<path stroke="#c6bbcb" d="M41 38h1M38 39h1M41 39h1M38 40h1M42 40h1M47 41h1M47 42h1M46 43h1M36 74h1M35 75h1M48 76h1M38 77h1M45 77h1M57 77h1M39 78h2M43 78h1M57 78h2M41 79h2M57 79h2M56 80h3M56 81h2M34 82h1M55 82h3M35 83h1M54 83h3M36 84h2M52 84h3M57 84h1M37 85h8M50 85h3M56 85h2M36 86h2M41 86h4M56 86h2M36 87h3" />
<path stroke="#ffa4c5" d="M40 39h1M45 41h1" />
<path stroke="#101010" d="M41 40h1M40 41h1M42 41h1M39 42h1M43 43h1M36 73h2M39 74h2M53 74h2M56 75h1M36 76h3M58 76h1M34 77h2M39 77h2M43 77h1M59 77h1M32 78h1M41 78h2M59 78h1M32 79h1M59 79h1M32 80h1M59 80h1M33 81h1M33 82h1M58 82h1M34 83h1M58 83h1M56 84h1M58 84h1M35 85h1M53 85h3M58 85h1M35 86h1M38 86h2M51 86h2M55 86h1M58 86h1M35 87h1M39 87h1M41 87h5M50 87h1M56 87h2M36 88h3M46 88h1M50 88h1M46 89h1M50 89h1M47 90h3" />
<path stroke="#7f806a" d="M42 42h2M34 73h2M33 74h1M37 74h2M51 74h2M32 75h1M36 75h3M48 75h3M55 75h1M32 76h1M35 76h1M45 76h3M57 76h1M32 77h1M44 77h1M58 77h1M58 81h1M57 83h1M35 84h1M55 84h1M36 85h1M40 86h1M45 86h1M50 86h1" />
<path stroke="#af9e9e" d="M33 78h1M44 78h3M33 79h2M43 79h5M33 80h2M42 80h6M34 81h1M42 81h5M43 82h3" />
</svg>