<svg xmlns="http://www.w3.org/2000/svg" viewBox="0 -0.5 96 96" shape-rendering="crispEdges">
<metadata>Made with Pixels to Svg https://codepen.io/shshaw/pen/XbxvNj</metadata>
<path stroke="#444e62" d="M53 17h2M52 18h1M49 19h3M42 20h1M47 20h2M42 21h1M46 21h1M42 22h1M45 22h1M47 22h1M28 23h1M42 23h3M24 24h1M28 24h1M41 24h2M25 25h1M28 25h1M37 25h1M44 25h3M24 26h2M28 26h1M36 26h1M41 26h3M22 27h1M24 27h2M28 27h1M31 27h2M37 27h4M49 27h1M23 28h3M28 28h1M30 28h1M38 28h1M43 28h1M49 28h1M18 29h1M22 29h2M25 29h2M42 29h1M49 29h1M16 30h2M22 30h1M24 30h3M37 30h1M40 30h2M48 30h2M14 31h3M21 31h1M23 31h5M37 31h2M48 31h3M13 32h13M27 32h1M35 32h2M49 32h2M13 33h12M33 33h1M38 33h1M49 33h2M14 34h10M31 34h1M38 34h1M43 34h1M50 34h2M16 35h7M27 35h1M35 35h1M37 35h1M43 35h1M50 35h2M17 36h6M26 36h3M30 36h1M35 36h2M39 36h1M44 36h1M51 36h1M19 37h3M26 37h1M29 37h1M34 37h1M39 37h1M44 37h1M20 38h2M26 38h1M29 38h1M33 38h1M40 38h1M44 38h1M72 38h1M32 39h1M40 39h1M71 39h1M23 40h1M28 40h1M71 40h1M24 41h1M28 41h1M38 41h1M70 41h1M75 41h1M27 42h1M36 42h1M39 42h1M70 42h1M27 43h1M36 43h1M41 43h1M70 43h1M31 44h1M39 44h1M69 44h1M74 44h1M69 45h1M69 46h1M35 47h1M69 47h1M68 48h1M36 49h1M68 49h1M68 50h1M67 51h1M37 52h1M67 52h1M30 53h2M45 53h2M66 53h1M29 54h1M32 54h1M36 54h1M44 54h1M47 54h1M64 54h2M29 55h1M33 55h1M36 55h1M43 55h1M48 55h1M50 55h1M53 55h1M56 55h1M62 55h2M28 56h1M32 56h1M34 56h2M43 56h1M46 56h1M48 56h1M50 56h1M53 56h1M58 56h1M61 56h1M28 57h1M32 57h1M35 57h1M37 57h1M42 57h1M49 57h2M52 57h1M28 58h1M42 58h1M49 58h1M29 59h1M42 59h1M48 59h1M51 59h1M42 60h1M42 61h1M38 64h1M51 65h1M39 66h1M51 66h1M40 67h1M51 67h1M54 67h1M51 68h1M43 69h2M51 69h1M47 70h1M51 70h1M56 70h1M39 71h1M52 71h1M54 71h1M57 71h1M38 72h1M41 72h1M52 72h1M54 72h1M56 72h1M41 73h1M52 73h1M56 73h1M40 74h1M53 74h1M56 74h1M53 75h1M56 75h1M54 76h1M54 77h1" />
<path stroke="#addcbc" d="M53 18h1M52 19h1M49 20h3M47 21h3M46 22h1M46 23h1M43 24h1M38 25h6M37 26h4M34 33h2M37 33h1M32 34h2M36 34h1M36 35h1" />
<path stroke="#101010" d="M54 18h1M53 19h1M43 20h1M52 20h1M44 21h1M50 21h2M26 22h1M48 22h2M26 23h1M29 23h1M47 23h2M26 24h1M30 24h1M38 24h3M46 24h1M48 24h1M26 25h1M31 25h1M36 25h1M48 25h1M26 26h1M32 26h4M46 26h1M48 26h1M45 27h1M48 27h1M44 28h1M48 28h1M29 30h1M45 30h3M33 31h1M41 31h3M12 32h1M28 32h1M37 32h2M42 32h1M12 33h1M28 33h1M36 33h1M40 33h3M13 34h1M28 34h1M34 34h2M14 35h1M29 35h5M67 35h1M16 36h1M67 36h1M17 37h1M64 37h3M19 38h1M59 38h4M20 39h1M54 39h4M76 39h1M25 40h1M49 40h4M76 40h1M22 41h1M34 41h1M44 41h5M23 42h1M43 42h1M48 42h1M75 42h1M24 43h1M42 43h1M49 43h1M75 43h1M25 44h1M40 44h1M49 44h1M26 45h1M37 45h2M50 45h1M74 45h1M27 46h2M34 46h3M50 46h1M74 46h1M29 47h5M51 47h1M74 47h1M35 48h1M51 48h1M74 48h1M52 49h1M74 49h1M36 50h1M52 50h1M74 50h1M36 51h1M53 51h1M74 51h1M53 52h1M74 52h1M37 53h1M54 53h1M74 53h1M37 54h1M55 54h1M74 54h1M37 55h1M57 55h1M74 55h1M37 56h1M59 56h2M73 56h1M46 57h1M73 57h1M33 58h1M36 58h1M46 58h2M52 58h1M73 58h1M33 59h2M36 59h1M46 59h1M72 59h1M29 60h1M33 60h1M35 60h2M45 60h1M48 60h1M51 60h1M72 60h1M30 61h1M33 61h1M36 61h1M45 61h1M49 61h2M71 61h1M31 62h2M37 62h1M43 62h2M71 62h1M37 63h1M70 63h1M69 64h1M38 65h1M68 65h1M38 66h1M67 66h1M38 67h1M66 67h1M38 68h1M65 68h1M37 69h1M63 69h2M37 70h1M45 70h2M60 70h3M37 71h1M44 71h1M48 71h4M58 71h2M37 72h1M43 72h1M58 72h1M37 73h1M42 73h1M58 73h1M37 74h1M41 74h1M57 74h1M37 75h1M39 75h2M57 75h1M37 76h2M56 76h1M56 77h1M55 78h1" />
<path stroke="#5f875a" d="M43 21h1M43 22h2M45 23h1M44 24h2M30 25h1M29 26h3M29 27h2M33 27h4M41 27h3M31 28h7M39 28h4M31 29h2M35 29h7M30 30h3M36 30h1M38 30h2M29 31h3M35 31h2M39 31h1M29 32h3M34 32h1M29 33h4M29 34h2" />
<path stroke="#2c323f" d="M25 22h1M24 23h1M50 23h1M50 24h1M23 25h1M50 25h1M22 26h1M50 26h1M17 27h2M51 27h1M16 28h1M19 28h3M51 28h1M56 28h5M15 29h1M24 29h1M48 29h1M51 29h5M61 29h1M14 30h1M20 30h1M23 30h1M51 30h1M62 30h1M13 31h1M19 31h1M22 31h1M52 31h1M63 31h1M26 32h1M52 32h1M64 32h1M25 33h1M52 33h1M65 33h1M24 34h1M52 34h1M66 34h1M15 35h1M23 35h1M52 35h1M52 36h1M18 37h1M63 37h1M58 38h1M21 39h1M53 39h1M22 40h1M48 40h1M42 41h2M40 42h2M37 43h2M32 44h4M27 45h4" />
<path stroke="#566f89" d="M25 23h1M49 23h1M25 24h1M49 24h1M24 25h1M49 25h1M23 26h1M49 26h1M23 27h1M50 27h1M22 28h1M50 28h1M21 29h1M50 29h1M57 29h1M21 30h1M50 30h1M57 30h2M20 31h1M44 31h4M51 31h1M57 31h3M62 31h1M43 32h6M51 32h1M53 32h1M57 32h4M62 32h2M26 33h2M39 33h1M43 33h6M51 33h1M53 33h2M57 33h8M25 34h3M39 34h4M44 34h6M53 34h3M57 34h9M24 35h3M34 35h1M38 35h5M44 35h6M53 35h14M23 36h3M29 36h1M31 36h4M37 36h2M40 36h4M45 36h6M53 36h14M22 37h1M25 37h1M27 37h2M30 37h4M35 37h4M40 37h4M45 37h18M22 38h1M27 38h2M30 38h3M34 38h6M41 38h3M45 38h13M73 38h1M22 39h1M26 39h6M33 39h2M39 39h1M41 39h12M72 39h3M26 40h2M29 40h5M40 40h8M72 40h4M23 41h1M26 41h2M29 41h4M39 41h3M71 41h4M24 42h3M28 42h4M37 42h2M73 42h2M25 43h2M28 43h8M74 43h1M26 44h5" />
<path stroke="#fa5494" d="M29 24h1M29 25h1M44 26h2M44 27h1M17 28h2M16 29h2M19 29h2M56 29h1M58 29h3M15 30h1M18 30h2M52 30h5M59 30h3M17 31h2M53 31h4M60 31h2M54 32h3M61 32h1M55 33h2M56 34h1M39 45h1M38 46h3M38 47h4M37 48h2M40 48h3M37 49h1M41 49h3M37 50h1M42 50h3M37 51h1M44 51h2" />
<path stroke="#822d44" d="M26 27h2M26 28h1M27 29h1M43 29h1M27 30h1M44 30h1M40 31h1M39 32h1" />
<path stroke="#eb4972" d="M27 28h1M29 28h1M30 29h1M33 29h2M35 30h1M42 30h2M40 32h2M23 37h1M38 39h1M39 40h1" />
<path stroke="#ffe322" d="M28 29h2M28 30h1M33 30h2M28 31h1M32 31h1M34 31h1M32 32h2M24 37h1M23 38h3M23 39h3M35 39h3M24 40h1M34 40h5M25 41h1M33 41h1M35 41h3M32 42h4" />
<path stroke="#7fb3b1" d="M37 34h1M78 34h4M28 35h1M77 35h1M82 35h1M76 36h1M80 36h2M75 37h1M77 37h1M76 38h1M71 42h2M71 43h3M36 44h2M70 44h4M31 45h5M47 45h3M70 45h4M29 46h4M45 46h5M70 46h4M45 47h6M70 47h4M46 48h5M69 48h5M46 49h6M69 49h5M46 50h6M69 50h5M47 51h6M68 51h6M47 52h6M68 52h6M47 53h4M52 53h2M67 53h7M30 54h2M45 54h2M48 54h2M52 54h1M54 54h1M66 54h8M30 55h2M44 55h3M49 55h1M51 55h2M54 55h2M64 55h9M29 56h3M44 56h2M49 56h1M51 56h2M54 56h4M62 56h11M29 57h3M43 57h3M48 57h1M51 57h1M53 57h20M29 58h4M37 58h1M43 58h1M45 58h1M50 58h2M53 58h20M30 59h1M32 59h1M37 59h1M43 59h1M45 59h1M47 59h1M49 59h2M52 59h20M30 60h1M32 60h1M37 60h2M44 60h1M47 60h1M52 60h20M32 61h1M37 61h2M44 61h1M47 61h2M51 61h20M38 62h1M47 62h23M38 63h2M47 63h22M39 64h1M47 64h5M53 64h15M39 65h2M47 65h4M52 65h1M54 65h12M40 66h2M47 66h4M52 66h1M55 66h9M41 67h2M47 67h4M52 67h1M55 67h6M43 68h8M52 68h1M54 68h1M45 69h6M52 69h1M54 69h1M48 70h3M52 70h4M53 71h1M55 71h2M53 72h1M55 72h1M53 73h1M55 73h1M55 74h1M54 75h1M55 77h1" />
<path stroke="#5b878c" d="M76 35h1M74 36h2M73 37h1M78 37h2M74 38h1M77 38h1M75 39h1M42 42h1M44 42h4M39 43h2M43 43h6M38 44h1M43 44h6M36 45h1M44 45h3M33 46h1M51 53h1M50 54h2M53 54h1M32 55h1M47 55h1M73 55h1M33 56h1M36 56h1M47 56h1M33 57h2M36 57h1M47 57h1M34 58h2M44 58h1M48 58h1M31 59h1M35 59h1M44 59h1M31 60h1M43 60h1M49 60h2M31 61h1M43 61h1M70 62h1M69 63h1M52 64h1M68 64h1M53 65h1M66 65h2M53 66h2M64 66h3M39 67h1M53 67h1M61 67h5M39 68h4M53 68h1M55 68h10M38 69h5M53 69h1M55 69h8M38 70h7M57 70h3M38 71h1M40 71h4M39 72h2M42 72h1M57 72h1M38 73h3M54 73h1M57 73h1M38 74h2M54 74h1M38 75h1M55 75h1M55 76h1" />
<path stroke="#d5fffb" d="M78 35h4M77 36h3M74 37h1M76 37h1M75 38h1" />
<path stroke="#b5a36a" d="M41 44h2M40 45h4M37 46h1M41 46h4M36 47h2M42 47h2M36 48h1M39 48h1M43 48h1M45 48h1M38 49h1M40 49h1M44 49h1M38 50h1M41 50h1M45 50h1M38 51h1M43 51h1M46 51h1M45 52h2M38 59h1M39 62h1M40 64h1M41 65h1M42 66h1M46 66h1M43 67h1M46 67h1" />
<path stroke="#dbd39d" d="M44 47h1M44 48h1M39 49h1M45 49h1M39 50h2M39 51h4M38 52h7M38 53h7M38 54h6M38 55h5M38 56h5M38 57h4M38 58h4M39 59h3M39 60h3M46 60h1M39 61h3M46 61h1M40 62h3M45 62h2M40 63h7M41 64h6M42 65h5M43 66h3M44 67h2" />
</svg>