<svg xmlns="http://www.w3.org/2000/svg" viewBox="0 -0.5 96 96" shape-rendering="crispEdges">
<metadata>Made with Pixels to Svg https://codepen.io/shshaw/pen/XbxvNj</metadata>
<path stroke="#ac8b00" d="M38 22h1M45 23h6M55 23h3M42 24h3M51 24h2M41 25h1M24 26h1M27 26h1M22 27h1M26 27h1M21 28h1M51 28h1M44 32h1M43 33h1M49 33h1M43 34h1M50 34h1M35 36h2M48 38h1M34 39h2M59 41h1M34 42h1M50 44h1M38 45h1M47 45h3M38 46h1M49 47h1M51 47h1M63 47h1M53 48h1" />
<path stroke="#735a00" d="M39 22h2M41 23h1M58 23h3M37 24h2M53 24h2M25 25h6M52 25h1M31 26h1M38 26h1M52 26h1M23 27h1M32 27h1M51 27h1M23 28h1M26 28h1M33 28h2M37 28h1M59 28h1M23 29h1M25 29h1M35 29h2M36 30h1M58 30h1M60 30h1M28 31h1M35 31h1M61 31h1M29 32h1M35 32h1M46 32h3M62 32h1M29 33h1M35 33h1M45 33h1M30 34h1M34 34h1M44 34h1M34 35h1M64 35h2M34 36h1M33 37h1M33 38h1M33 39h1M43 39h1M47 39h1M32 40h1M32 41h1M32 42h2M39 42h1M58 42h1M32 43h1M37 43h1M40 43h1M48 43h1M55 43h3M51 44h4M47 46h1M46 47h1M46 48h1M48 48h1M51 48h1M46 49h1M48 49h1M50 49h1M48 50h2M59 50h1" />
<path stroke="#000000" d="M37 23h1M61 24h1M38 25h1M61 25h1M60 26h1M60 27h1M29 28h1M21 29h2M26 29h1M28 29h1M59 29h1M24 30h4M46 34h1M31 35h1M32 36h1M44 39h3M40 40h3M39 41h1M38 42h1M68 42h1M33 44h1M37 44h1M40 44h1M47 44h1M69 44h1M34 45h3M41 45h1M45 45h2M69 45h1M42 46h3M70 46h1M70 47h1M62 48h1M70 48h1M47 49h1M51 49h1M53 49h3M60 49h2M51 50h2M56 50h3M71 50h1M36 51h1M71 51h1M36 52h1M71 52h1M36 53h1M71 53h1M71 54h1M71 55h1M37 56h1M71 56h1M37 57h1M71 57h1M32 58h1M71 58h1M32 59h1M38 59h1M70 59h1M32 60h1M39 60h1M70 60h1M33 61h1M40 61h1M53 61h1M70 61h1M33 62h1M41 62h1M53 62h1M70 62h1M34 63h1M42 63h2M53 63h1M70 63h1M35 64h2M44 64h3M54 64h1M69 64h1M37 65h2M47 65h9M69 65h1M46 66h1M56 66h1M68 66h1M46 67h1M57 67h2M68 67h1M46 68h1M59 68h1M68 68h1M33 69h2M42 69h4M60 69h2M63 69h2M69 69h1M35 70h7M58 70h2M69 70h1M58 71h1M69 71h1M59 72h1M61 72h1M66 72h2M60 73h6" />
<path stroke="#f6de00" d="M38 23h3M39 24h1M55 24h5M39 25h1M44 25h8M53 25h3M25 26h1M28 26h3M45 26h7M53 26h1M24 27h2M27 27h2M30 27h2M45 27h6M52 27h1M24 28h1M27 28h1M30 28h3M44 28h7M52 28h1M24 29h1M27 29h1M31 29h4M37 29h1M43 29h10M32 30h4M37 30h15M33 31h2M36 31h18M36 32h8M45 32h1M49 32h6M36 33h7M44 33h1M50 33h6M35 34h8M49 34h1M51 34h5M35 35h9M49 35h8M37 36h20M34 37h3M39 37h9M49 37h8M34 38h14M49 38h7M36 39h7M48 39h8M34 40h2M37 40h2M47 40h8M34 41h4M46 41h5M36 42h1M46 42h4M59 42h1M35 43h2M45 43h3M58 43h3M44 44h3M55 44h7M39 45h1M50 45h12M39 46h3M48 46h13M38 47h6M47 47h2M50 47h1M52 47h7M38 48h8M49 48h2M52 48h1M38 49h8M49 49h1M39 50h9M50 50h1M53 50h2M39 51h4M46 51h10M40 52h2M47 52h5M48 53h3M37 67h1M36 68h3M36 69h4M60 70h1M63 70h2M59 71h2M62 71h4M60 72h1M62 72h2" />
<path stroke="#d5b44a" d="M40 24h2M45 24h6M60 24h1M56 25h1M60 25h1M54 26h1M29 27h1M53 27h1M59 27h1M22 28h1M58 28h1M29 29h2M57 29h2M28 30h4M52 30h3M57 30h1M59 30h1M29 31h4M54 31h7M30 32h5M55 32h7M30 33h5M56 33h7M31 34h3M56 34h8M32 35h2M57 35h7M33 36h1M57 36h8M38 37h1M48 37h1M57 37h9M56 38h10M56 39h11M33 40h1M36 40h1M39 40h1M55 40h12M33 41h1M38 41h1M51 41h8M60 41h8M35 42h1M37 42h1M50 42h8M60 42h8M33 43h2M38 43h2M41 43h1M49 43h6M61 43h8M34 44h3M38 44h2M41 44h3M48 44h2M62 44h7M40 45h1M42 45h3M62 45h7M45 46h2M61 46h9M44 47h2M59 47h4M64 47h6M47 48h1M54 48h8M63 48h6M56 49h2M62 49h7M55 50h1M60 50h2M65 50h4M56 51h5M66 51h2M56 52h4M35 67h1M34 68h1M39 68h1M61 70h1M66 71h1M64 72h2" />
<path stroke="#c5a420" d="M40 25h1M26 26h1M39 26h1M38 27h1M25 28h1M28 28h1M44 35h5M37 37h1M40 41h1M40 42h1M52 49h1M58 49h2" />
<path stroke="#ffee73" d="M42 25h2M40 26h5M39 27h6M38 28h6M38 29h5" />
<path stroke="#523920" d="M57 25h2M55 26h2M54 27h1M53 28h1M53 29h1M63 33h1M64 34h1M65 36h1M66 37h1M66 38h1M67 39h1M67 40h1M68 41h1M69 43h1M37 47h1M37 48h1M37 49h1M71 49h1M36 50h1M35 54h2M68 54h1M34 55h1M37 55h1M69 55h1M33 56h1M69 56h1M33 57h1M55 57h1M70 57h1M38 58h1M54 58h1M70 58h1M54 59h1M53 60h1M36 65h1M35 66h1M33 68h1M58 69h1M62 69h1M62 70h1M65 70h2M67 71h1" />
<path stroke="#835a41" d="M59 25h1M57 26h1M59 26h1M55 27h2M54 28h2M54 29h2M55 30h2M69 48h1M69 49h2M62 50h3M69 50h2M61 51h5M68 51h3M55 52h1M60 52h11M55 53h16M55 54h13M69 54h2M55 55h4M64 55h5M70 55h1M54 56h3M66 56h3M70 56h1M54 57h1M66 57h4M53 58h1M67 58h3M39 59h1M53 59h1M67 59h3M40 60h1M51 60h2M67 60h3M41 61h2M49 61h4M65 61h5M34 62h1M39 62h2M42 62h11M63 62h7M35 63h7M44 63h9M54 63h1M62 63h8M37 64h7M47 64h7M55 64h2M61 64h8M39 65h8M56 65h13M36 66h10M57 66h11M34 67h1M36 67h1M38 67h8M59 67h9M35 68h1M40 68h6M60 68h8M35 69h1M40 69h2M59 69h1M65 69h4M67 70h2M61 71h1M68 71h1" />
<path stroke="#a4835a" d="M58 26h1M57 27h2M56 28h2M56 29h1M37 50h2M37 51h2M43 51h3M37 52h3M42 52h5M52 52h3M37 53h11M51 53h4M37 54h18M35 55h2M38 55h17M59 55h5M34 56h1M38 56h16M57 56h9M38 57h16M56 57h1M61 57h5M39 58h14M55 58h1M61 58h6M33 59h1M37 59h1M40 59h13M55 59h1M61 59h6M33 60h6M41 60h10M54 60h3M60 60h7M34 61h6M43 61h6M54 61h11M35 62h4M54 62h9M55 63h7M57 64h4" />
<path stroke="#ffffff" d="M46 33h3M45 34h1M47 34h2" />
<path stroke="#8b2039" d="M43 40h4M41 41h3M41 42h2M42 43h1" />
<path stroke="#ee3939" d="M44 41h2M43 42h3M43 43h2" />
<path stroke="#b49c7b" d="M35 56h2M34 57h3M57 57h4M33 58h5M56 58h5M34 59h3M56 59h5M57 60h3" />
</svg>