<svg xmlns="http://www.w3.org/2000/svg" viewBox="0 -0.5 68 56" shape-rendering="crispEdges">
<metadata>Made with Pixels to Svg https://codepen.io/shshaw/pen/XbxvNj</metadata>
<path stroke="#717161" d="M29 33h2M28 34h6M27 35h10M26 36h1M28 36h12M26 37h1M31 37h12M26 38h1M34 38h9M26 39h1M37 39h6M26 40h1M30 40h1M40 40h3M26 41h1M30 41h4M40 41h3M27 42h1M30 42h7M40 42h3M29 43h2M33 43h4M40 43h3M30 44h1M35 44h2M40 44h3M30 45h1M40 45h3M30 46h1M40 46h3M30 47h1M34 47h3M40 47h2M31 48h1M34 48h3M38 48h3M30 49h1M33 49h4M30 50h1M34 50h3M30 51h1M34 51h3M31 52h1M34 52h2M33 53h2" />
<path stroke="#acacac" d="M27 36h1M25 37h1M30 37h1M43 37h1M23 38h3M33 38h1M43 38h3M22 39h4M36 39h1M43 39h4M21 40h5M31 40h1M39 40h1M43 40h5M20 41h6M34 41h1M43 41h6M20 42h7M28 42h1M43 42h6M20 43h9M31 43h2M43 43h6M20 44h10M34 44h1M43 44h6M20 45h10M43 45h6M21 46h9M34 46h1M43 46h5M22 47h8M42 47h5M23 48h8M32 48h1M37 48h1M41 48h5M25 49h5M32 49h1M37 49h7M27 50h3M37 50h4M32 52h1M32 53h1" />
<path stroke="#f4f4f4" d="M27 37h3M27 38h6M27 39h9M27 40h3M32 40h7M27 41h3M35 41h5M29 42h1M37 42h3M37 43h3M31 44h3M37 44h3M31 45h9M31 46h3M35 46h5M31 47h3M37 47h3M33 48h1M31 49h1M31 50h3M31 51h3M33 52h1" />
</svg>