<svg xmlns="http://www.w3.org/2000/svg" viewBox="0 -0.5 68 56" shape-rendering="crispEdges">
<metadata>Made with Pixels to Svg https://codepen.io/shshaw/pen/XbxvNj</metadata>
<path stroke="#000000" d="M34 25h1M33 26h1M35 26h1M33 27h1M35 27h1M32 28h1M35 28h1M32 29h1M36 29h1M27 30h2M31 30h1M36 30h1M27 31h1M29 31h1M31 31h1M36 31h1M39 31h2M27 32h1M37 32h2M40 32h1M27 33h1M40 33h1M25 34h4M39 34h3M24 35h4M29 35h1M39 35h2M42 35h2M23 36h3M30 36h1M37 36h2M41 36h2M44 36h1M24 37h4M29 37h1M36 37h1M43 37h1M45 37h1M25 38h4M37 38h1M41 38h2M44 38h1M26 39h2M37 39h1M39 39h5M21 40h3M27 40h1M38 40h4M21 41h1M24 41h3M39 41h1M43 41h5M22 42h1M40 42h3M47 42h1M22 43h1M46 43h1M23 44h1M45 44h1M23 45h1M27 45h2M45 45h1M24 46h3M29 46h1M36 46h2M44 46h1M29 47h1M35 47h1M38 47h2M43 47h1M28 48h1M35 48h1M40 48h3M28 49h1M36 49h1M29 50h1M35 50h2M30 51h1M34 51h1M30 52h2M33 52h2M32 53h1" />
<path stroke="#d6c55a" d="M34 26h1M33 28h2M35 29h1M32 30h3M31 32h5M39 32h1M30 33h2M35 33h2M38 33h1M37 34h2M37 35h1M33 38h1M30 39h1M34 39h2M30 40h1M34 40h2M36 41h1M32 43h1M30 44h1M32 44h1M34 44h1M32 45h1M31 48h3M31 49h3M32 50h1" />
<path stroke="#a59442" d="M34 27h1M33 29h2M35 30h1M28 31h1M28 32h1M29 33h1M39 33h1M29 34h1M38 35h1M35 36h2M31 44h1M33 44h1M33 45h1" />
<path stroke="#414141" d="M32 31h4M29 32h2M36 32h1M28 33h1M32 33h3M37 33h1M30 34h2M35 34h2M30 35h1M36 35h1M41 35h1M31 36h4M43 36h1M30 37h1M35 37h1M44 37h1M32 38h1M43 38h1M28 39h1M32 39h1M31 40h1M33 40h1M27 41h1M30 41h1M32 41h1M34 41h1M38 41h1M23 42h2M27 42h1M29 42h1M31 42h3M35 42h1M38 42h1M27 43h1M29 43h2M34 43h2M38 43h1M24 44h2M28 44h1M37 44h1M37 45h1M30 46h1M35 46h1M31 47h4" />
<path stroke="#9c84e6" d="M32 34h1M34 34h1M43 42h4M39 43h7M38 44h4M38 45h7M38 46h3M40 47h3" />
<path stroke="#ffffff" d="M33 34h1M33 35h1M32 40h1M30 42h1M34 42h1M30 48h1M29 49h2M34 49h2M30 50h2M33 50h2M31 51h3M32 52h1" />
<path stroke="#736bad" d="M31 35h2M34 35h2M22 41h2M25 42h2M39 42h1M23 43h4M26 44h2M42 44h3M24 45h3M41 46h3" />
<path stroke="#a5846b" d="M31 37h4M29 38h3M34 38h3M29 39h1M36 39h1M28 40h2M36 40h2M28 41h1M37 41h1M37 42h1M28 43h1M36 43h2M29 44h1M35 44h2M29 45h3M34 45h3M31 46h4" />
<path stroke="#8c6b5a" d="M31 39h1M33 39h1M29 41h1M31 41h1M33 41h1M35 41h1M31 43h1M33 43h1" />
<path stroke="#735a4a" d="M28 42h1M36 42h1" />
<path stroke="#a5a5a5" d="M30 47h1M29 48h1M34 48h1" />
</svg>