<svg xmlns="http://www.w3.org/2000/svg" viewBox="0 -0.5 68 56" shape-rendering="crispEdges">
<metadata>Made with Pixels to Svg https://codepen.io/shshaw/pen/XbxvNj</metadata>
<path stroke="#000000" d="M41 30h1M40 31h1M42 31h1M40 32h1M42 32h1M39 33h1M43 33h1M39 34h1M43 34h1M30 35h1M40 35h1M42 35h1M24 36h3M29 36h1M31 36h1M35 36h3M41 36h1M43 36h1M22 37h2M27 37h1M29 37h1M31 37h2M34 37h1M37 37h1M41 37h1M43 37h1M21 38h1M28 38h2M33 38h1M36 38h1M40 38h1M44 38h1M22 39h2M28 39h1M36 39h1M38 39h1M40 39h2M45 39h2M24 40h2M27 40h1M37 40h1M39 40h1M41 40h1M47 40h2M26 41h2M39 41h2M49 41h1M27 42h1M31 42h1M48 42h1M26 43h1M46 43h2M25 44h1M45 44h1M25 45h1M40 45h3M44 45h1M26 46h1M39 46h1M43 46h2M27 47h1M35 47h1M39 47h1M28 48h2M34 48h1M36 48h1M39 48h1M29 49h1M34 49h1M36 49h2M40 49h1M29 50h2M33 50h1M37 50h1M40 50h1M30 51h3M38 51h2" />
<path stroke="#9c8c8c" d="M41 31h1M41 32h1M40 33h3M41 34h1M41 35h1M30 36h1M42 36h1M24 37h3M30 37h1M22 38h2M27 38h1M32 38h1M35 39h1M42 39h2M34 40h1M43 40h1M29 41h1M33 41h2M33 42h3M33 43h3M37 43h1M29 44h4M35 44h3M26 45h1M29 45h2M34 45h1M36 45h2M27 46h1M29 46h1M34 46h1M36 46h1M28 47h1M34 47h1M38 47h1M37 48h2M33 49h1M39 49h1M31 50h2M38 50h1" />
<path stroke="#414141" d="M40 34h1M42 34h1M35 37h1M42 37h1M42 38h1M44 39h1M35 40h2M32 41h1M35 41h1M29 42h1M36 42h1M38 42h1M30 43h1M36 43h1M33 44h2M28 45h1M31 45h3M35 45h1M38 45h1M28 46h1M30 46h1M33 46h1M35 46h1M29 47h1M38 49h1M39 50h1" />
<path stroke="#bdbdbd" d="M36 37h1M30 38h2M34 38h2M41 38h1M43 38h1M29 39h6M28 40h6M38 40h1M42 40h1M44 40h3M28 41h1M30 41h2M36 41h3M41 41h1M46 41h3M28 42h1M30 42h1M37 42h1M39 42h2M27 43h3M38 43h1M26 44h3M27 45h1" />
<path stroke="#735a9c" d="M24 38h3M27 39h1M41 42h1M39 43h2M38 44h1" />
<path stroke="#8c73b5" d="M24 39h3M26 40h1M42 41h4M41 43h1M39 44h4M39 45h1M43 45h1" />
<path stroke="#ffffff" d="M32 42h1M32 43h1M33 47h1M30 49h1M32 49h1" />
<path stroke="#9c8cff" d="M42 42h6M42 43h4M43 44h2" />
<path stroke="#52a573" d="M31 43h1" />
<path stroke="#a5523a" d="M31 46h2M30 47h1M32 47h1M33 48h1M31 49h1" />
<path stroke="#846b6b" d="M37 46h2M36 47h2" />
<path stroke="#d66342" d="M31 47h1M30 48h3" />
</svg>