<svg xmlns="http://www.w3.org/2000/svg" viewBox="0 -0.5 68 56" shape-rendering="crispEdges">
<metadata>Made with Pixels to Svg https://codepen.io/shshaw/pen/XbxvNj</metadata>
<path stroke="#000000" d="M28 39h2M27 40h1M29 40h1M33 40h2M26 41h1M28 41h1M32 41h1M34 41h1M37 41h2M25 42h1M27 42h1M31 42h1M33 42h1M36 42h1M39 42h1M25 43h1M27 43h1M29 43h2M32 43h1M35 43h1M39 43h1M24 44h1M26 44h1M28 44h1M33 44h3M38 44h1M41 44h2M24 45h1M27 45h1M37 45h1M40 45h1M43 45h1M25 46h1M32 46h1M38 46h3M44 46h1M26 47h1M44 47h1M26 48h1M28 48h1M44 48h1M27 49h1M33 49h2M41 49h1M44 49h1M28 50h2M31 50h2M35 50h2M40 50h1M42 50h2M37 51h3" />
<path stroke="#528cd6" d="M28 40h1M27 41h1M26 42h1M38 42h1M26 43h1M25 44h1M25 45h1M36 45h1M26 46h1M42 46h1M27 48h1M30 48h1M43 48h1M28 49h2" />
<path stroke="#6bb5ff" d="M33 41h1M32 42h1M37 42h1M31 43h1M36 43h1M38 43h1M30 44h1M36 44h2M30 45h1M41 45h2M29 46h1M27 47h4M43 47h1M29 48h1M31 49h1M42 49h1" />
<path stroke="#414141" d="M37 43h1M29 44h1M31 44h1M26 45h1M29 45h1M31 45h1M27 46h2M30 46h1M31 47h1M34 47h2M31 48h1M35 48h3M39 48h2M30 49h1M32 49h1M37 49h3" />
<path stroke="#bdbdbd" d="M32 44h1M28 45h1M32 45h4M31 46h1M33 46h5M32 47h2M36 47h1" />
<path stroke="#4a6ba5" d="M41 46h1M43 46h1M42 47h1M42 48h1M43 49h1" />
<path stroke="#8c8c8c" d="M37 47h5M32 48h3M38 48h1M41 48h1M35 49h2M40 49h1M37 50h3" />
</svg>