<svg xmlns="http://www.w3.org/2000/svg" viewBox="0 -0.5 68 56" shape-rendering="crispEdges">
<metadata>Made with Pixels to Svg https://codepen.io/shshaw/pen/XbxvNj</metadata>
<path stroke="#000000" d="M35 30h2M35 31h2M26 32h2M35 32h1M38 32h2M25 33h1M28 33h1M34 33h1M38 33h2M25 34h1M29 34h1M32 34h2M37 34h2M25 35h1M30 35h3M35 35h2M41 35h4M26 36h1M33 36h2M39 36h2M45 36h1M26 37h1M32 37h1M37 37h2M46 37h1M25 38h1M32 38h1M36 38h1M46 38h1M24 39h1M33 39h1M35 39h1M45 39h1M24 40h1M34 40h1M45 40h1M24 41h1M44 41h1M24 42h1M30 42h1M43 42h1M25 43h1M42 43h1M24 44h3M41 44h1M23 45h1M27 45h1M41 45h1M22 46h1M25 46h1M28 46h1M39 46h2M22 47h1M26 47h1M28 47h1M39 47h1M22 48h1M26 48h1M28 48h1M40 48h1M23 49h3M29 49h3M34 49h2M40 49h1M32 50h2M36 50h1M39 50h2M37 51h2M40 51h2M41 52h3M42 53h2" />
<path stroke="#414141" d="M34 32h1M26 33h1M33 33h1M37 33h1M36 34h1M29 35h1M28 36h2M27 37h1M31 37h1M34 41h1M34 42h1M33 43h1M31 44h2M28 45h1M33 45h3M24 46h1M33 46h1M37 46h2M24 47h1M33 47h1M23 48h1M31 48h1M34 48h1" />
<path stroke="#bd9442" d="M27 33h1M28 34h1M28 35h1M36 41h1M35 42h1M38 42h1M34 43h1M36 43h1M39 44h1" />
<path stroke="#737373" d="M26 34h2M26 35h2M27 36h1M30 36h3M28 37h3M41 37h3M27 38h3M39 38h6M27 39h1M37 39h2M41 39h4M36 40h4M41 40h4M35 41h1M39 41h2M42 41h2M39 42h1M42 42h1M26 43h1M37 43h2M41 43h1M33 44h5M40 44h1M29 45h2M36 45h5M31 46h2M34 46h1M29 47h1M32 47h1M34 47h1M38 47h1M30 48h1M37 48h3M38 49h2M37 50h2" />
<path stroke="#ffbd3a" d="M41 36h4M39 37h2M44 37h2M37 38h2M45 38h1M36 39h1M35 40h1M37 41h2M41 41h1M36 42h2M40 42h2M35 43h1M39 43h2M38 44h1" />
<path stroke="#ffffff" d="M26 38h1M30 38h2M25 39h2M28 39h5M26 40h4M32 40h1M26 41h3M30 41h1M26 42h3" />
<path stroke="#ef736b" d="M39 39h2M40 40h1M35 48h1M36 49h2" />
<path stroke="#4a6bce" d="M25 40h1M31 41h1M31 42h1M30 43h1M36 46h1" />
<path stroke="#4aa5ff" d="M30 40h2M25 41h1M29 41h1M29 42h1M29 43h1M31 43h1M35 46h1M35 47h3" />
<path stroke="#d6d6d6" d="M33 40h1M32 41h1M25 42h1M27 43h2M31 45h1M29 46h2M30 47h2M33 48h1" />
<path stroke="#bdbdbd" d="M33 41h1M32 42h2M32 43h1M27 44h4M32 45h1M29 48h1M32 48h1M32 49h2" />
<path stroke="#ce6342" d="M36 48h1" />
</svg>