<svg xmlns="http://www.w3.org/2000/svg" viewBox="0 -0.5 68 56" shape-rendering="crispEdges">
<metadata>Made with Pixels to Svg https://codepen.io/shshaw/pen/XbxvNj</metadata>
<path stroke="#000000" d="M32 28h3M30 29h2M35 29h2M29 30h1M37 30h1M28 31h1M38 31h1M28 32h1M38 32h1M27 33h1M39 33h1M27 34h1M39 34h1M27 35h1M39 35h1M27 36h1M39 36h1M26 37h1M40 37h1M27 38h1M39 38h1M24 39h1M26 39h1M40 39h1M23 40h1M25 40h1M39 40h1M23 41h1M38 41h1M40 41h2M43 41h1M24 42h1M29 42h1M39 42h1M42 42h1M44 42h1M25 43h4M30 43h1M36 43h1M44 43h1M31 44h1M35 44h1M37 44h1M43 44h1M30 45h2M35 45h1M38 45h2M42 45h1M29 46h1M36 46h1M40 46h2M29 47h1M37 47h1M30 48h1M33 48h1M37 48h1M29 49h1M32 49h1M34 49h1M38 49h1M29 50h3M35 50h1M37 50h1M34 51h1M37 51h1M34 52h3" />
<path stroke="#ffffff" d="M32 29h3M30 30h2M33 30h1M35 30h2M29 31h1M31 31h5M29 32h3M33 32h1M35 32h2M28 33h1M30 33h6M28 34h3M32 34h1M34 34h1M28 35h1M30 35h5M29 36h2M32 36h1M27 37h1M29 37h5M39 37h1M28 38h1M30 38h1M32 38h1M34 38h2M38 38h1M27 39h3M32 39h3M37 39h3M28 40h1M30 40h2M35 40h2M38 40h1M30 41h7M32 42h1M34 42h1M40 42h1M43 42h1M39 43h1M41 43h3M32 44h1M39 44h1M41 44h2M40 45h1M35 51h2" />
<path stroke="#29bdde" d="M32 30h1M34 30h1M36 31h1M37 32h1M29 33h1M36 33h1M38 33h1M31 34h1M33 34h1M36 34h1M38 34h1M35 35h1M34 36h1M35 37h2M31 38h1M33 38h1M36 38h1M32 47h1M36 48h1M35 49h2" />
<path stroke="#ff7bde" d="M30 31h1M32 32h1M34 32h1M37 33h1M37 34h1M29 35h1M36 35h1M38 35h1M31 36h1M35 36h2M37 37h1M37 43h1M38 44h1M31 46h1M35 46h1M30 47h2M33 47h2" />
<path stroke="#bdf6f6" d="M37 31h1M35 34h1M33 36h1M34 37h1M35 48h1" />
<path stroke="#f6e631" d="M37 35h1M37 36h1M34 46h1M35 47h2M34 48h1" />
<path stroke="#7b9c9c" d="M28 36h1M38 36h1M28 37h1M38 37h1M29 38h1M37 38h1M30 39h2M35 39h2M32 40h3M26 41h1M25 42h1M41 42h1M40 43h1M40 44h1M41 45h1" />
<path stroke="#bdcdcd" d="M24 40h1M29 40h1M37 40h1M24 41h2M26 42h1M33 42h1M33 44h1M32 45h2M30 49h2M37 49h1M36 50h1" />
<path stroke="#313131" d="M26 40h1M27 41h1M38 42h1" />
<path stroke="#626262" d="M27 40h1M28 41h2M37 41h1M30 42h2M35 42h2M32 43h3M38 43h1M34 44h1M34 45h1M32 46h2M31 48h2" />
<path stroke="#1094b4" d="M27 42h2M31 43h1" />
<path stroke="#ac5aa4" d="M37 42h1M35 43h1" />
<path stroke="#ffc5e6" d="M30 46h1" />
</svg>