<svg xmlns="http://www.w3.org/2000/svg" viewBox="0 -0.5 68 56" shape-rendering="crispEdges">
<metadata>Made with Pixels to Svg https://codepen.io/shshaw/pen/XbxvNj</metadata>
<path stroke="#000000" d="M33 33h2M32 34h1M35 34h1M31 35h1M36 35h1M29 36h2M36 36h1M28 37h1M35 37h1M28 38h1M34 38h1M36 38h2M28 39h1M31 39h2M35 39h1M38 39h1M29 40h2M32 40h1M39 40h1M31 41h1M39 41h1M30 42h1M38 42h1M29 43h1M36 43h2M29 44h1M36 44h1M28 45h1M37 45h1M28 46h1M33 46h1M38 46h1M28 47h1M30 47h2M38 47h1M29 48h1M32 48h1M37 48h1M29 49h1M36 49h1M30 50h2M37 50h1M32 51h2M36 51h1M34 52h2" />
<path stroke="#5abd6b" d="M33 34h2M32 35h1M34 35h2M33 36h2M36 39h2M35 40h1M37 40h2M36 41h2" />
<path stroke="#84ce8c" d="M33 35h1M36 40h1" />
<path stroke="#414141" d="M31 36h1M29 37h1M31 37h2M32 38h2M29 39h1M34 40h1M34 41h1M35 42h1M30 49h1M32 50h3" />
<path stroke="#528c52" d="M32 36h1M35 36h1M30 37h1M33 37h2M29 38h3M30 39h1M35 41h1M38 41h1M36 42h2" />
<path stroke="#c5a55a" d="M33 39h1M33 40h1M33 41h1M31 42h1M33 42h2M30 43h2M33 43h3M30 44h6M29 45h4M35 45h2M30 46h3M35 46h2M32 47h1M35 50h2M34 51h2" />
<path stroke="#94734a" d="M34 39h1M29 47h1M37 47h1M30 48h2M35 48h2M31 49h5" />
<path stroke="#ffd631" d="M32 41h1M32 42h1M32 43h1M33 45h1M34 46h1M33 47h1" />
<path stroke="#e6bd42" d="M34 45h1M34 47h1" />
<path stroke="#7b5a42" d="M29 46h1M37 46h1M35 47h2M33 48h2" />
</svg>