<svg xmlns="http://www.w3.org/2000/svg" viewBox="0 -0.5 68 56" shape-rendering="crispEdges">
<metadata>Made with Pixels to Svg https://codepen.io/shshaw/pen/XbxvNj</metadata>
<path stroke="#000000" d="M30 31h2M29 32h1M32 32h1M36 32h2M29 33h1M32 33h2M35 33h1M38 33h1M28 34h1M33 34h3M38 34h1M28 35h1M39 35h1M29 36h1M33 36h1M39 36h1M28 37h1M32 37h1M34 37h1M38 37h1M28 38h1M32 38h2M38 38h1M26 39h2M39 39h1M22 40h4M39 40h1M21 41h1M40 41h2M21 42h1M28 42h2M42 42h5M21 43h1M26 43h2M29 43h1M47 43h1M22 44h4M29 44h1M38 44h2M47 44h1M28 45h1M38 45h1M40 45h1M46 45h1M28 46h1M39 46h1M41 46h2M46 46h1M28 47h1M39 47h1M43 47h3M28 48h1M39 48h1M28 49h1M39 49h1M29 50h3M37 50h2M32 51h5" />
<path stroke="#7bc5bd" d="M30 32h2M31 33h1M36 33h2M29 34h4M36 34h1M29 35h3M35 35h4M30 36h1M36 36h3M29 37h2M36 37h2M29 38h2M36 38h2M29 39h1M36 39h3M26 40h1M31 40h1M37 40h2M24 41h3M31 41h1M38 41h2M24 42h3M34 42h3M38 42h1M24 43h2M30 43h1M32 43h2M42 43h2M30 44h4M42 44h2M30 45h1M32 45h6M41 45h2M32 46h2M36 46h1M36 47h1M38 47h1M36 48h1M34 49h2" />
<path stroke="#4294a5" d="M30 33h1M37 34h1M32 35h3M31 36h1M34 36h2M31 37h1M35 37h1M35 38h1M28 39h1M32 39h2M35 39h1M27 40h2M32 40h3M22 41h2M27 41h2M22 42h2M27 42h1M30 42h1M33 42h1M39 42h3M22 43h2M34 43h4M39 43h3M44 43h2M34 44h4M40 44h2M44 44h2M31 45h1M43 45h2M30 46h2M37 46h2M43 46h2M31 47h3M37 47h1M30 49h2M36 49h3M33 50h4" />
<path stroke="#414141" d="M32 36h1M31 38h1M34 38h1M30 39h2M34 39h1M29 40h1M35 40h2M29 41h1M37 41h1M37 42h1M38 43h1M46 43h1M46 44h1M45 45h1M45 46h1M29 49h1M32 50h1" />
<path stroke="#ceefff" d="M30 40h1M32 41h5M29 47h1M31 48h1M33 48h1" />
<path stroke="#42737b" d="M30 41h1M31 42h2M31 43h1M34 47h1M29 48h2M37 48h2M32 49h2" />
<path stroke="#d66342" d="M29 45h1M29 46h1M34 46h2M35 47h1M34 48h2" />
<path stroke="#bdbdbd" d="M30 47h1" />
<path stroke="#848473" d="M32 48h1" />
</svg>