<svg xmlns="http://www.w3.org/2000/svg" viewBox="0 -0.5 68 56" shape-rendering="crispEdges">
<metadata>Made with Pixels to Svg https://codepen.io/shshaw/pen/XbxvNj</metadata>
<path stroke="#000000" d="M28 29h2M27 30h1M30 30h1M25 31h3M31 31h1M37 31h3M24 32h1M31 32h1M35 32h2M40 32h1M24 33h1M32 33h1M34 33h1M40 33h1M23 34h1M32 34h2M39 34h1M23 35h1M40 35h1M24 36h2M41 36h1M26 37h1M41 37h1M24 38h2M37 38h1M42 38h1M23 39h1M36 39h1M38 39h1M42 39h1M22 40h1M37 40h1M39 40h1M42 40h1M22 41h1M34 41h1M38 41h1M42 41h1M21 42h1M33 42h1M35 42h1M41 42h1M21 43h1M33 43h1M36 43h1M40 43h1M21 44h1M33 44h1M36 44h1M40 44h1M22 45h1M32 45h1M35 45h1M41 45h1M22 46h1M32 46h3M42 46h3M23 47h1M45 47h1M24 48h2M29 48h2M45 48h1M26 49h3M31 49h3M43 49h2M34 50h2M42 50h1M36 51h3M42 51h1M39 52h3" />
<path stroke="#d67b84" d="M28 30h2M28 31h2M26 32h2M38 32h1M25 33h2M38 33h2M24 34h1M24 35h2M39 37h2M39 38h2M37 43h2M37 44h1" />
<path stroke="#ad5a63" d="M30 31h1M25 32h1M29 32h1M37 32h1M39 32h1M27 33h1M37 33h1M26 35h1M35 35h1M34 36h1M36 36h1M38 37h1M36 38h1M37 42h2M38 44h1" />
<path stroke="#414141" d="M28 32h1M29 33h1M25 34h3M30 34h1M38 34h1M28 35h3M32 35h1M36 35h3M27 36h1M31 36h1M35 36h1M39 36h2M27 37h2M32 37h1M34 37h1M33 38h1M38 38h1M41 38h1M31 39h1M34 39h2M39 39h2M32 40h1M34 40h1M32 41h1M30 42h1M39 42h1M29 43h3M39 43h1M29 44h1M31 44h1M39 44h1M28 45h1M37 45h2M23 46h8M26 47h2M31 47h1M33 48h1M37 49h1M41 49h1M37 50h1M41 51h1" />
<path stroke="#ffb5a5" d="M30 32h1M28 33h1M30 33h1M35 33h2M28 34h2M31 34h1M34 34h4M27 35h1M33 35h2M26 36h1M37 36h2M36 37h2M36 41h2M36 42h1" />
<path stroke="#d69c8c" d="M31 33h1M31 35h1M32 36h2M33 37h1M35 37h1M34 38h2M35 40h2M35 41h1" />
<path stroke="#5aad73" d="M39 35h1M30 36h1M33 39h1M41 39h1M33 40h1M40 40h2M31 41h1M33 41h1M32 42h1M32 43h1M28 44h1M32 44h1M26 45h1M31 46h1M24 47h1M29 47h2M42 47h1M44 47h1M26 48h3M40 48h1M44 48h1M40 50h2M40 51h1" />
<path stroke="#8cce9c" d="M28 36h2M29 37h3M26 38h7M24 39h3M29 39h2M32 39h1M24 40h2M27 40h2M30 40h2M24 41h1M26 41h1M28 41h1M30 41h1M23 42h2M26 42h2M29 42h1M22 43h4M28 43h1M23 44h5M24 45h2M36 45h1M39 45h2M35 46h7M34 47h8M34 48h1M36 48h2M39 48h1M41 48h2M35 49h1M38 49h3M42 49h1M38 50h2M39 51h1" />
<path stroke="#f7e673" d="M27 39h2M23 40h1M26 40h1M23 41h1M25 41h1M27 41h1M25 42h1M30 44h1M29 45h1M35 48h1M36 49h1" />
<path stroke="#e6ce63" d="M29 40h1M29 41h1M39 41h2M22 42h1M28 42h1M40 42h1M26 43h2M30 45h1M34 49h1M36 50h1" />
<path stroke="#b59442" d="M41 41h1" />
<path stroke="#528452" d="M31 42h1M22 44h1M23 45h1M27 45h1M31 45h1M25 47h1M28 47h1M32 47h2M43 47h1M31 48h2M38 48h1M43 48h1" />
</svg>