<svg xmlns="http://www.w3.org/2000/svg" viewBox="0 -0.5 68 56" shape-rendering="crispEdges">
<metadata>Made with Pixels to Svg https://codepen.io/shshaw/pen/XbxvNj</metadata>
<path stroke="#000000" d="M34 35h2M32 36h2M36 36h2M32 37h1M38 37h1M33 38h1M37 38h2M33 39h2M36 39h1M32 40h1M37 40h1M31 41h1M38 41h1M31 42h1M34 42h1M38 42h1M30 43h1M34 43h1M38 43h1M30 44h1M38 44h1M29 45h1M38 45h2M28 46h1M40 46h1M27 47h1M41 47h1M27 48h1M41 48h1M28 49h2M40 49h1M30 50h1M37 50h1M40 50h1M31 51h2M35 51h2M38 51h2M33 52h2" />
<path stroke="#414141" d="M34 36h1M34 37h1M36 37h1M31 44h1M30 45h1M32 45h2M30 46h1M38 46h1M31 47h2M38 47h1M30 48h1M33 48h1M36 48h2M33 49h1M39 50h1" />
<path stroke="#fff6a4" d="M35 36h1M33 37h1M35 37h1M37 37h1M34 38h3M35 39h1" />
<path stroke="#b4835a" d="M33 40h3M32 41h5M33 42h1M35 42h3M35 43h3M35 44h3M31 45h1M34 45h3M32 46h3" />
<path stroke="#8b6239" d="M36 40h1M37 41h1M32 42h1M33 43h1M34 44h1M37 45h1M31 46h1M35 46h3M33 47h5M34 48h2" />
<path stroke="#f67b8b" d="M31 43h1" />
<path stroke="#ffcdd5" d="M32 43h1" />
<path stroke="#cd6273" d="M32 44h2" />
<path stroke="#838383" d="M29 46h1M39 46h1M40 47h1M31 48h2M38 48h1M30 49h3M34 49h2M38 49h2M32 50h1M35 50h2" />
<path stroke="#737362" d="M28 47h1M37 49h1M31 50h1M38 50h1" />
<path stroke="#52524a" d="M29 47h2M39 47h1M28 48h2M39 48h2M36 49h1M33 50h2M33 51h2" />
</svg>