<svg xmlns="http://www.w3.org/2000/svg" viewBox="0 -0.5 68 56" shape-rendering="crispEdges">
<metadata>Made with Pixels to Svg https://codepen.io/shshaw/pen/XbxvNj</metadata>
<path stroke="#000000" d="M29 30h2M27 31h2M30 31h1M34 31h2M26 32h1M29 32h1M32 32h2M35 32h4M26 33h1M30 33h2M38 33h1M23 34h1M25 34h1M37 34h1M22 35h1M24 35h2M37 35h1M22 36h1M25 36h1M38 36h1M22 37h1M37 37h1M23 38h1M36 38h1M24 39h1M36 39h1M44 39h2M47 39h3M24 40h1M37 40h1M43 40h1M45 40h2M49 40h1M21 41h3M29 41h1M36 41h1M39 41h2M43 41h1M49 41h3M20 42h1M34 42h1M37 42h2M41 42h1M43 42h1M51 42h1M21 43h1M26 43h1M33 43h1M35 43h2M39 43h2M42 43h1M49 43h2M22 44h4M27 44h4M33 44h1M37 44h2M42 44h1M48 44h1M21 45h1M26 45h1M31 45h1M34 45h2M41 45h1M49 45h1M22 46h1M27 46h5M36 46h1M39 46h1M41 46h1M45 46h4M23 47h2M31 47h1M37 47h2M40 47h1M43 47h2M25 48h2M28 48h1M30 48h1M32 48h1M45 48h3M27 49h1M29 49h1M31 49h2M39 49h1M48 49h1M31 50h1M38 50h1M40 50h2M46 50h2M32 51h4M38 51h1M42 51h4M36 52h2" />
<path stroke="#7b9442" d="M29 31h1M27 32h2M27 33h2M35 33h3M26 34h2M34 34h3M26 35h1M32 35h3M26 36h1M30 36h2M26 37h1M30 37h1M29 38h1" />
<path stroke="#d6425a" d="M34 32h1M32 33h2M29 34h3M28 35h2M28 36h1M35 36h3M27 37h2M33 37h4M26 38h2M31 38h5M25 39h2M30 39h4M25 40h1M27 40h1M31 40h1M24 41h2" />
<path stroke="#414141" d="M29 33h1M34 33h1M28 34h1M32 34h2M27 35h1M30 35h2M35 35h2M27 36h1M29 36h1M32 36h3M25 37h1M29 37h1M31 37h2M25 38h1M28 38h1M30 38h1M28 39h2M34 39h2M32 40h2M45 41h1M48 41h1M44 42h1M47 42h1M22 43h1M46 44h2M25 45h1M34 46h1M44 46h1M32 47h2M36 47h1M42 47h1M34 48h2M33 49h1M36 49h3" />
<path stroke="#ad3a52" d="M23 35h1M23 36h2M23 37h2M24 38h1M27 39h1M26 40h1M26 41h1" />
<path stroke="#8c5242" d="M28 40h3M34 40h3M44 40h1M47 40h2M27 41h2M32 41h4M44 41h1M46 41h2M33 42h1M35 42h2M39 42h2M45 42h2M48 42h3M23 43h1M32 43h1M37 43h2M43 43h6M31 44h2M43 44h3M22 45h3M32 45h2M42 45h7M23 46h4M25 47h6M27 48h1M29 48h1M40 49h1M35 50h1M42 50h1M45 50h1" />
<path stroke="#e60000" d="M30 41h1M28 42h2" />
<path stroke="#b584ce" d="M31 41h1M30 42h2M27 43h4M32 46h2M42 46h2M34 47h2M36 50h2M37 51h1" />
<path stroke="#ad6342" d="M21 42h7M32 42h1M24 43h2M31 43h1M35 46h1M39 47h1M41 47h1M33 48h1M36 48h9M34 49h2M41 49h7M32 50h3M43 50h2M36 51h1" />
</svg>