<svg xmlns="http://www.w3.org/2000/svg" viewBox="0 -0.5 68 56" shape-rendering="crispEdges">
<metadata>Made with Pixels to Svg https://codepen.io/shshaw/pen/XbxvNj</metadata>
<path stroke="#000000" d="M33 32h2M31 33h2M35 33h2M30 34h1M37 34h1M30 35h1M36 35h1M29 36h2M36 36h1M28 37h1M37 37h1M28 38h1M37 38h1M27 39h1M38 39h1M27 40h1M29 40h1M38 40h1M27 41h1M38 41h1M28 42h1M34 42h1M37 42h1M28 43h1M37 43h1M29 44h2M37 44h2M31 45h2M38 45h2M30 46h1M32 46h1M37 46h2M40 46h1M29 47h1M32 47h2M36 47h1M40 47h1M29 48h1M34 48h3M41 48h1M30 49h2M41 49h1M29 50h1M32 50h1M41 50h1M30 51h2M39 51h2M38 52h1M41 52h1M39 53h2" />
<path stroke="#ffffff" d="M33 33h2M31 34h1M33 34h4M31 35h3M35 35h1M32 36h2M30 38h1" />
<path stroke="#bdbdb5" d="M32 34h1M34 35h1" />
<path stroke="#414141" d="M31 36h1M34 36h2M32 37h2M35 44h2M33 45h2M36 46h1M34 47h1" />
<path stroke="#7b6bbd" d="M29 37h1M36 37h1M29 43h1M36 43h1M35 45h3M33 46h3M35 47h1" />
<path stroke="#9c8cde" d="M30 37h2M34 37h2M29 38h1M31 38h6M28 39h10M28 40h1M30 40h8M28 41h2M31 41h1M33 41h5M29 42h2M32 42h2M35 42h2M31 43h1M33 43h3M31 44h4" />
<path stroke="#f7f729" d="M30 41h1M32 41h1M31 42h1M30 43h1M32 43h1M39 52h2" />
<path stroke="#c5ad29" d="M30 50h2" />
</svg>