<svg xmlns="http://www.w3.org/2000/svg" viewBox="0 -0.5 68 56" shape-rendering="crispEdges">
<metadata>Made with Pixels to Svg https://codepen.io/shshaw/pen/XbxvNj</metadata>
<path stroke="#000000" d="M26 37h1M33 37h4M26 38h3M32 38h1M37 38h1M26 39h1M28 39h1M31 39h1M38 39h4M29 40h1M31 40h1M42 40h1M29 41h2M43 41h1M28 42h1M44 42h1M25 43h3M44 43h1M23 44h2M26 44h1M42 44h1M44 44h1M22 45h2M25 45h2M39 45h1M43 45h1M22 46h1M24 46h1M26 46h1M40 46h2M43 46h1M25 47h1M32 47h1M35 47h2M38 47h1M40 47h1M42 47h1M44 47h1M25 48h1M28 48h1M34 48h1M36 48h1M38 48h1M40 48h1M43 48h1M45 48h1M25 49h1M27 49h1M29 49h1M33 49h1M35 49h1M37 49h1M39 49h2M45 49h1M26 50h1M28 50h1M31 50h2M34 50h1M36 50h1M40 50h3M29 51h2M33 51h3M42 51h1M33 52h1M35 52h1" />
<path stroke="#bdbdbd" d="M33 38h1M36 38h1M32 39h1M34 39h1M36 39h2M32 40h1M36 40h2M39 40h1M34 41h1M36 41h1M40 41h3M31 42h1M33 42h1M40 42h2M28 43h2M31 43h1M33 43h2M30 44h2M34 44h1M28 45h1M30 45h1M32 45h1M28 46h2M31 46h1M26 47h1M28 47h2M33 47h1M27 48h1M31 49h1" />
<path stroke="#d6d6d6" d="M34 38h2M33 39h1M40 40h2M39 41h1M30 42h1M29 44h1M26 48h1M26 49h1M29 50h2" />
<path stroke="#414141" d="M35 39h1M33 40h3M31 41h3M35 41h1M29 42h1M32 42h1M34 42h1M38 42h1M35 43h1M38 43h1M25 44h1M35 44h1M37 44h1M24 45h1M35 45h2M41 45h2M32 46h1M35 46h2M38 46h2M42 46h1M27 47h1M37 47h1M39 47h1M43 47h1M30 48h2M37 48h1M39 48h1M44 48h1M32 49h1M36 49h1M35 50h1" />
<path stroke="#7b7b84" d="M38 40h1M38 41h1M36 42h1M39 42h1M43 42h1M32 43h1M37 43h1M39 43h1M41 43h1M43 43h1M27 44h1M36 44h1M38 44h2M43 44h1M37 45h2M34 46h1M37 46h1M30 47h1M34 47h1M32 48h2" />
<path stroke="#9c9ca5" d="M37 41h1M35 42h1M37 42h1M42 42h1M30 43h1M36 43h1M40 43h1M42 43h1M28 44h1M32 44h2M40 44h2M29 45h1M31 45h1M34 45h1M40 45h1M27 46h1M30 46h1M29 48h1M30 49h1" />
<path stroke="#d65252" d="M27 45h1M33 45h1M33 46h1M31 47h1" />
</svg>