<svg xmlns="http://www.w3.org/2000/svg" viewBox="0 -0.5 68 56" shape-rendering="crispEdges">
<metadata>Made with Pixels to Svg https://codepen.io/shshaw/pen/XbxvNj</metadata>
<path stroke="#000000" d="M34 35h3M28 36h2M33 36h1M37 36h1M27 37h1M30 37h1M32 37h1M38 37h1M26 38h1M31 38h1M38 38h1M41 38h2M26 39h1M39 39h2M43 39h1M25 40h1M44 40h1M25 41h1M44 41h1M24 42h1M29 42h1M42 42h1M45 42h1M23 43h1M32 43h1M45 43h1M23 44h1M44 44h1M22 45h1M44 45h1M22 46h1M42 46h2M22 47h1M29 47h2M42 47h1M23 48h1M28 48h1M31 48h3M39 48h1M42 48h1M24 49h4M34 49h1M41 49h1M34 50h1M41 50h1M35 51h1M40 51h1M36 52h4" />
<path stroke="#ff9c94" d="M34 36h1M36 36h1M28 37h1M33 37h1M37 37h1M27 38h1M37 39h1M26 40h2M36 40h3M43 40h1M27 41h1M36 41h2M37 42h1M44 42h1M24 43h1M31 43h1M35 43h1M43 43h2M29 44h1M34 44h2M41 44h3M28 45h1M33 45h2M42 45h1M23 46h6M30 46h5M24 47h1M27 47h1M31 47h3M41 47h1M25 48h2M35 48h1M37 48h1M41 48h1M35 49h1M37 49h4M36 50h1M39 50h1M37 51h2" />
<path stroke="#c5736b" d="M35 36h1M29 37h1M35 37h1M36 38h2M27 39h1M36 39h1M38 39h1M28 40h1M32 41h2M39 41h1M41 41h2M31 42h1M37 43h1M26 44h2M38 44h1M23 45h1M25 45h1M30 45h1M38 45h1M40 45h1M43 45h1M39 46h1M23 47h1M28 47h1M38 47h3M24 48h1M27 48h1M36 49h1M35 50h1M40 50h1M36 51h1M39 51h1" />
<path stroke="#ffcec5" d="M34 37h1M36 37h1M30 38h1M34 38h2M31 39h3M35 39h1M41 39h2M30 40h5M40 40h3M30 41h2M34 41h1M40 41h1M43 41h1M25 42h2M30 42h1M34 42h2M39 42h2M25 43h3M29 43h2M34 43h1M40 43h3M24 44h2M30 44h4M39 44h1M24 45h1M36 45h2M39 45h1M36 46h3M40 46h1M35 47h3M36 48h1" />
<path stroke="#f7f729" d="M28 38h2M28 39h2" />
<path stroke="#414141" d="M32 38h2M30 39h1M34 39h1M29 40h1M35 40h1M39 40h1M26 41h1M28 41h1M35 41h1M38 41h1M27 42h2M36 42h1M38 42h1M28 43h1M36 43h1M38 43h2M28 44h1M36 44h2M40 44h1M26 45h1M29 45h1M31 45h2M35 45h1M41 45h1M29 46h1M35 46h1M41 46h1M25 47h2M34 47h1M34 48h1M37 50h2" />
<path stroke="#ffffff" d="M29 41h1M32 42h2M41 42h1M43 42h1M33 43h1M27 45h1M38 48h1M40 48h1" />
</svg>