<svg xmlns="http://www.w3.org/2000/svg" viewBox="0 -0.5 68 56" shape-rendering="crispEdges">
<metadata>Made with Pixels to Svg https://codepen.io/shshaw/pen/XbxvNj</metadata>
<path stroke="#000000" d="M33 37h2M32 38h2M35 38h2M30 39h2M37 39h2M30 40h1M38 40h1M29 41h1M39 41h1M29 42h1M39 42h1M27 43h2M40 43h1M27 44h1M40 44h1M28 45h1M30 45h1M41 45h1M28 46h1M34 46h1M40 46h2M28 47h1M40 47h1M29 48h1M39 48h1M29 49h1M31 49h1M39 49h1M29 50h2M32 50h1M35 50h2M38 50h1M33 51h1M35 51h1M37 51h2M34 52h1" />
<path stroke="#63ad6b" d="M34 38h1M31 40h1M37 40h1M33 42h1M28 44h1M40 45h1M31 46h2M36 46h1M33 47h1M35 47h1" />
<path stroke="#ceced6" d="M32 39h1M35 39h2M33 40h3M31 41h1M38 41h1M30 42h1M35 42h4M30 43h1M32 43h1M34 43h1M36 43h2M33 44h3M39 44h1M37 45h2M37 46h1M32 47h1M36 47h1" />
<path stroke="#ffffff" d="M33 39h1M32 41h1M31 42h1M31 43h1" />
<path stroke="#4a8452" d="M34 39h1M34 42h1M30 49h1M37 50h1M34 51h1" />
<path stroke="#737373" d="M32 40h1M36 40h1M33 41h5M32 42h1M33 43h1M39 43h1M31 44h1M37 44h2M32 45h3M36 45h1M29 46h1M39 46h1M30 47h2M37 47h2M30 48h1M32 48h5M37 49h2" />
<path stroke="#adadad" d="M30 41h1M29 43h1M35 43h1M38 43h1M32 44h1M36 44h1M39 45h1M38 46h1M29 47h1M39 47h1M31 48h1M37 48h2M32 49h5" />
<path stroke="#414141" d="M29 44h2M35 45h1M33 50h2" />
<path stroke="#ffbd29" d="M29 45h1M31 45h1M30 46h1M33 46h1M35 46h1M34 47h1" />
</svg>