<svg xmlns="http://www.w3.org/2000/svg" viewBox="0 -0.5 68 56" shape-rendering="crispEdges">
<metadata>Made with Pixels to Svg https://codepen.io/shshaw/pen/XbxvNj</metadata>
<path stroke="#000000" d="M39 32h4M38 33h1M43 33h1M35 34h1M37 34h1M40 34h2M44 34h1M26 35h5M34 35h1M36 35h1M39 35h1M42 35h1M45 35h1M24 36h2M31 36h3M39 36h1M43 36h1M45 36h1M23 37h1M26 37h3M40 37h1M42 37h1M46 37h2M22 38h1M25 38h1M29 38h2M41 38h1M47 38h1M22 39h1M24 39h1M28 39h1M47 39h1M21 40h1M23 40h1M26 40h2M46 40h1M19 41h2M24 41h3M30 41h1M44 41h2M19 42h1M25 42h1M27 42h1M44 42h1M19 43h1M25 43h1M27 43h1M30 43h1M35 43h1M45 43h1M19 44h1M25 44h1M28 44h1M33 44h1M43 44h1M45 44h1M20 45h1M24 45h1M29 45h1M42 45h1M44 45h1M46 45h1M21 46h3M30 46h1M41 46h1M44 46h1M46 46h1M31 47h1M33 47h6M40 47h1M44 47h1M46 47h1M31 48h2M39 48h2M42 48h2M47 48h2M42 49h1M48 49h1M42 50h1M48 50h1M42 51h1M48 51h1M43 52h1M47 52h1M44 53h3" />
<path stroke="#63ad6b" d="M39 33h4M38 34h1M43 34h1M35 35h1M44 35h1M26 36h5M35 36h1M44 36h1M24 37h2M31 37h1M23 38h1M32 38h1M43 38h2M46 38h1M23 39h1M38 39h2M22 40h1M40 40h2M22 41h1M32 41h1M42 41h1M22 42h1M29 42h1M31 42h1M33 42h1M43 42h1M21 43h3M33 43h1M37 43h1M44 43h1M34 44h1M36 44h1M44 44h1M45 45h1M45 46h1M45 47h1M45 48h1M45 49h1M44 50h3" />
<path stroke="#4a8452" d="M39 34h1M42 34h1M38 35h1M43 35h1M34 36h1M36 36h1M30 37h1M32 37h1M35 37h1M44 37h2M24 38h1M31 38h1M33 38h1M42 38h1M45 38h1M32 39h2M37 39h1M43 39h4M28 40h1M37 40h3M28 41h1M40 41h2M21 42h1M23 42h1M42 42h1M21 44h3M44 49h1M46 49h1M44 51h3" />
<path stroke="#414141" d="M37 35h1M37 36h2M29 37h1M34 37h1M36 37h1M43 37h1M42 39h1M30 40h1M43 40h1M21 41h1M23 41h1M43 41h1M35 42h1M20 43h1M24 43h1M39 43h2M43 43h1M40 44h1M38 45h2M31 46h1M44 48h1M46 48h1M43 50h1M47 50h1" />
<path stroke="#ceced6" d="M33 37h1M37 37h2M34 38h1M37 38h4M30 39h2M34 39h3M40 39h2M32 40h5M27 41h1M34 41h5M32 42h1M31 43h2M20 44h1M24 44h1M30 44h1M21 45h3M31 45h3M34 46h3M43 51h1M47 51h1M44 52h3" />
<path stroke="#adadad" d="M39 37h1M35 38h2M44 40h2M39 42h3M28 43h1M41 43h1M29 44h1M37 44h1M39 44h1M42 44h1M30 45h1M40 45h2M33 46h1M37 46h2M32 47h1M39 47h1" />
<path stroke="#7b7b7b" d="M29 39h1M31 40h1M42 40h1M33 41h1M39 41h1M28 42h1M36 42h3M29 43h1M38 43h1M42 43h1M31 44h2M38 44h1M41 44h1M34 45h4M32 46h1M39 46h2" />
<path stroke="#b56b19" d="M29 40h1M34 42h1" />
<path stroke="#ffbd29" d="M29 41h1M31 41h1M30 42h1M34 43h1M36 43h1M35 44h1" />
<path stroke="#73c57b" d="M20 42h1M24 42h1M43 49h1M47 49h1" />
</svg>