<svg xmlns="http://www.w3.org/2000/svg" viewBox="0 -0.5 68 56" shape-rendering="crispEdges">
<metadata>Made with Pixels to Svg https://codepen.io/shshaw/pen/XbxvNj</metadata>
<path stroke="#000000" d="M27 31h2M33 31h2M26 32h1M29 32h1M31 32h2M35 32h1M26 33h1M36 33h1M27 34h1M37 34h1M27 35h1M38 35h3M27 36h1M40 36h1M26 37h1M40 37h1M26 38h1M32 38h1M39 38h1M26 39h1M39 39h1M27 40h1M38 40h1M27 41h1M37 41h1M39 41h2M28 42h1M37 42h2M41 42h1M29 43h1M32 43h2M41 43h1M29 44h1M31 44h1M33 44h1M41 44h1M28 45h1M32 45h1M38 45h1M40 45h1M28 46h1M39 46h1M27 47h1M39 47h1M27 48h1M30 48h2M40 48h1M28 49h2M31 49h1M40 49h1M32 50h1M39 50h1M33 51h1M37 51h2M34 52h3" />
<path stroke="#4a73b5" d="M27 32h1M28 33h1M32 33h1M35 33h1M33 34h2" />
<path stroke="#8cceff" d="M28 32h1M34 32h1M33 33h1M38 39h1M37 46h2M35 47h1M35 48h1M38 48h2M37 49h1M39 49h1M37 50h2" />
<path stroke="#ffffff" d="M33 32h1M31 33h1M29 34h4M35 34h2M30 35h8M30 36h2M34 36h6M27 37h1M29 37h2M35 37h4M27 38h3M35 38h3M27 39h3M35 39h2M28 40h3M34 40h1M36 40h1M29 41h6M36 41h1M29 42h1M33 42h1M36 42h1M36 43h1M36 44h1M35 45h3M33 46h1M35 46h2M34 47h1M36 47h2M34 48h1M36 48h2M35 49h2" />
<path stroke="#5a94d6" d="M27 33h1M34 33h1M32 39h1M37 40h1M34 43h1M31 45h1M30 46h2M30 47h1M38 47h1M38 49h1" />
<path stroke="#414141" d="M29 33h2M28 34h1M32 36h2M31 37h1M34 37h1M39 37h1M30 38h1M38 38h1M30 39h1M37 39h1M31 40h1M35 40h1M35 41h1M31 42h2M35 42h1M30 43h1M35 43h1M37 43h1M35 44h1M37 44h1M34 45h1M32 46h1M34 46h1M31 47h1M33 47h1M33 48h1M34 49h1M35 50h2" />
<path stroke="#947bce" d="M28 35h2M28 36h1M28 37h1M32 37h2M31 38h1M31 39h1M32 40h1M34 42h1M31 43h1" />
<path stroke="#bdbdb5" d="M29 36h1M34 39h1M33 40h1M28 41h1M30 42h1M30 44h1M34 44h1M29 45h2M33 45h1M29 46h1M28 47h2M28 48h2M33 50h2M34 51h1M36 51h1" />
<path stroke="#f7f729" d="M33 38h1M33 39h1" />
<path stroke="#7b7b7b" d="M34 38h1M35 51h1" />
<path stroke="#f76b52" d="M39 42h2M38 43h1M32 48h1" />
<path stroke="#c54a42" d="M39 43h2M38 44h3M39 45h1M32 47h1M32 49h2" />
</svg>