<svg xmlns="http://www.w3.org/2000/svg" viewBox="0 -0.5 68 56" shape-rendering="crispEdges">
<metadata>Made with Pixels to Svg https://codepen.io/shshaw/pen/XbxvNj</metadata>
<path stroke="#000000" d="M29 28h4M27 29h2M33 29h2M26 30h1M35 30h1M22 31h4M35 31h1M21 32h1M36 32h1M42 32h2M21 33h1M36 33h1M41 33h1M44 33h1M22 34h1M36 34h1M40 34h1M45 34h1M23 35h1M36 35h1M40 35h1M45 35h1M23 36h1M35 36h1M40 36h1M45 36h1M24 37h1M28 37h1M34 37h1M39 37h1M44 37h1M24 38h1M35 38h1M37 38h2M42 38h2M23 39h1M35 39h2M42 39h1M24 40h1M25 41h1M41 41h1M25 42h1M42 42h1M25 43h1M28 43h1M42 43h1M26 44h1M29 44h1M37 44h2M42 44h1M27 45h2M36 45h1M39 45h1M43 45h1M28 46h1M35 46h1M39 46h1M43 46h1M27 47h1M35 47h1M38 47h1M43 47h1M26 48h1M31 48h2M36 48h1M38 48h2M42 48h1M26 49h1M30 49h1M32 49h1M36 49h1M39 49h3M27 50h3M31 50h1M36 50h1M31 51h1M35 51h1M32 52h3" />
<path stroke="#dee6ce" d="M29 29h3M27 30h7M26 31h9M26 32h10M27 33h8M27 34h7M26 35h8M25 36h4M31 36h3M26 37h2M32 37h2M32 38h1M34 39h1M37 39h3M32 40h2M36 40h4M37 41h4M37 42h4M30 43h2M37 43h1M39 43h3M30 44h2M39 44h2M31 45h2M32 46h3M33 47h2M33 48h3M33 49h2" />
<path stroke="#a5ad8c" d="M32 29h1M34 30h1M26 33h1M35 33h1M34 34h2M35 35h1M24 36h1M25 37h1M33 38h1M40 40h1M29 41h1M29 42h1M41 42h1M38 43h1M41 44h1M29 45h2M35 45h1M40 45h3M29 46h2M29 47h2" />
<path stroke="#73d6c5" d="M22 32h4M25 33h1M43 33h1M23 34h3M42 34h3M41 35h4M41 36h3M42 37h1M35 41h1M32 42h3M35 49h1M32 50h3M34 51h1" />
<path stroke="#5aad94" d="M22 33h3M42 33h1M26 34h1M41 34h1M44 36h1M40 37h1M43 37h1M40 38h2M26 42h2M35 43h1M33 44h2M40 46h3M39 47h1M42 47h1M35 50h1" />
<path stroke="#4a8c7b" d="M24 35h2M41 37h1M39 38h1M41 39h1M27 44h2M28 47h1M27 48h4M29 49h1" />
<path stroke="#414141" d="M34 35h1M34 36h1M25 38h2M25 39h3M30 39h1M32 39h2M40 39h1M27 40h4M35 40h1M41 40h1M26 41h1M31 41h3M36 41h1M35 42h2M26 43h2M33 43h2M36 43h1M35 44h2M33 45h2M31 46h1M32 47h1M40 47h2M40 48h2M27 49h2M32 51h2" />
<path stroke="#4a737b" d="M29 36h2M24 39h1" />
<path stroke="#d63131" d="M29 37h1" />
<path stroke="#ffffff" d="M30 37h1M28 38h2" />
<path stroke="#353535" d="M31 37h1M27 38h1M30 38h2M28 39h2M31 39h1M25 40h2M31 40h1M27 41h2M30 41h1M28 42h1M31 42h1M32 43h1M32 44h1" />
<path stroke="#848c6b" d="M34 38h1M34 40h1M34 41h1M30 42h1M29 43h1M31 47h1" />
</svg>