<svg xmlns="http://www.w3.org/2000/svg" viewBox="0 -0.5 68 56" shape-rendering="crispEdges">
<metadata>Made with Pixels to Svg https://codepen.io/shshaw/pen/XbxvNj</metadata>
<path stroke="#000000" d="M28 29h4M24 30h1M26 30h2M32 30h2M23 31h1M25 31h1M34 31h1M22 32h1M35 32h3M22 33h1M37 33h1M22 34h2M36 34h2M23 35h1M38 35h1M22 36h1M38 36h1M22 37h1M29 37h1M38 37h1M22 38h1M37 38h1M23 39h1M37 39h1M43 39h3M24 40h1M36 40h1M38 40h1M40 40h3M46 40h2M24 41h1M35 41h1M37 41h1M39 41h1M47 41h1M23 42h1M26 42h2M36 42h1M46 42h1M23 43h3M28 43h1M46 43h1M28 44h1M45 44h1M27 45h1M45 45h1M26 46h1M44 46h1M26 47h1M42 47h2M26 48h1M41 48h1M27 49h1M41 49h1M28 50h1M40 50h1M29 51h2M33 51h1M37 51h3M31 52h2M34 52h3" />
<path stroke="#5aa452" d="M28 30h1M27 31h1M26 32h1M25 33h1M28 33h1M25 34h1M27 34h1M24 35h1M27 35h1M36 35h2M23 36h1M26 36h1M37 36h1M23 37h1M26 37h1M36 37h2M23 38h2M27 38h1M36 38h1M24 39h2M36 39h1M35 40h1" />
<path stroke="#7bcd73" d="M29 30h3M26 31h1M28 31h6M25 32h1M27 32h3M32 32h3M26 33h2M29 33h1M33 33h1M24 34h1M26 34h1M28 34h2M25 35h2M28 35h3M25 36h1M27 36h3M25 37h1M27 37h2M26 38h1M27 39h1M35 39h1" />
<path stroke="#bdbdbd" d="M24 31h1M23 32h1M23 33h1M36 33h1M31 34h1M34 35h1M33 36h1M33 37h1M30 39h1M28 40h1M37 40h1M43 40h2M30 41h1M40 41h3M45 41h2M43 42h3M34 43h2M41 43h5M30 44h1M33 44h4M43 44h2M28 45h3M35 45h3M42 45h1M27 46h2M36 46h1M38 46h1M40 46h4M27 47h2M39 47h3M27 48h1M40 48h1" />
<path stroke="#414141" d="M24 32h1M30 32h2M24 33h1M30 33h1M32 33h1M34 33h2M30 34h1M33 34h1M31 35h1M35 35h1M24 36h1M30 36h2M36 36h1M24 37h1M34 37h2M25 38h1M28 38h1M35 38h1M26 39h1M28 39h1M33 39h2M25 40h1M27 40h1M32 40h2M45 40h1M27 41h3M31 41h1M34 42h2M40 42h1M30 43h1M33 43h1M36 43h2M40 43h1M29 44h1M31 44h2M37 44h2M41 44h1M38 45h1M40 45h2M39 46h1" />
<path stroke="#ffffff" d="M31 33h1M32 34h1M34 34h2M32 35h2M32 36h1M34 36h2M31 37h1M31 38h1M33 38h2M32 39h1M29 40h3M38 41h1M38 42h2M38 43h2M39 44h2M31 45h2M34 45h1M39 45h1M30 46h3M34 46h2M37 46h1M30 47h2M33 47h3M37 47h2M29 48h3M33 48h3M37 48h2M29 49h3M33 49h3M37 49h3M29 50h3M33 50h4M38 50h2M31 51h2M34 51h3" />
<path stroke="#a44a5a" d="M30 37h1M30 38h1M29 39h1M34 41h1M28 42h3M29 43h1M31 43h1" />
<path stroke="#838383" d="M32 37h1M32 38h1M31 39h1M26 40h1M25 41h2M43 41h2M24 42h2M37 42h1M41 42h2M42 44h1M33 45h1M43 45h2M29 46h1M33 46h1M29 47h1M32 47h1M36 47h1M28 48h1M32 48h1M36 48h1M39 48h1M28 49h1M32 49h1M36 49h1M40 49h1M32 50h1M37 50h1" />
<path stroke="#d55a6a" d="M29 38h1M34 40h1M32 41h2M31 42h3M32 43h1" />
</svg>