<svg xmlns="http://www.w3.org/2000/svg" viewBox="0 -0.5 68 56" shape-rendering="crispEdges">
<metadata>Made with Pixels to Svg https://codepen.io/shshaw/pen/XbxvNj</metadata>
<path stroke="#000000" d="M30 27h6M28 28h7M36 28h1M27 29h9M41 29h3M27 30h5M38 30h3M43 30h1M25 31h6M36 31h2M42 31h1M24 32h1M27 32h1M29 32h4M35 32h1M42 32h1M23 33h1M32 33h1M35 33h1M39 33h3M44 33h2M23 34h1M32 34h1M34 34h1M38 34h1M42 34h2M45 34h1M32 35h2M37 35h1M41 35h1M44 35h1M21 36h1M36 36h1M40 36h1M44 36h1M47 36h2M21 37h1M35 37h1M38 37h2M43 37h1M45 37h2M48 37h1M21 38h1M28 38h1M35 38h1M37 38h1M41 38h2M44 38h1M47 38h1M21 39h1M35 39h2M40 39h1M42 39h2M47 39h1M22 40h1M39 40h1M41 40h1M46 40h1M21 41h1M40 41h1M45 41h1M21 42h1M23 42h1M44 42h1M21 43h2M24 43h1M43 43h1M22 44h2M44 44h1M21 45h1M45 45h1M22 46h2M43 46h2M24 47h2M43 47h1M25 48h1M42 48h1M26 49h1M39 49h3M27 50h2M35 50h4M29 51h6" />
<path stroke="#bd5242" d="M35 28h1M29 39h1M28 43h2M27 49h3" />
<path stroke="#414141" d="M41 30h1M38 31h4M26 32h1M36 32h6M26 33h1M30 33h1M36 33h3M22 34h1M26 34h1M28 34h2M35 34h1M37 34h1M22 35h1M25 35h1M27 35h1M31 35h1M36 35h1M42 35h2M23 36h1M31 36h1M41 36h3M23 37h1M29 37h2M40 37h3M23 38h2M30 38h1M38 38h3M45 38h2M24 39h1M26 39h2M30 39h1M37 39h3M44 39h3M25 40h5M33 40h6M42 40h4M23 41h1M31 41h2M34 41h4M41 41h4M24 42h1M28 42h4M34 42h1M36 42h1M38 42h6M25 43h3M30 43h1M34 43h1M36 43h7M26 44h4M33 44h1M35 44h6M43 44h1M26 45h1M29 45h4M34 45h1M37 45h3M25 46h6M33 46h1M40 46h1M29 47h6M37 47h6M26 48h4M32 48h5M30 49h3M36 49h2M29 50h1" />
<path stroke="#de5a4a" d="M42 30h1M44 34h1M47 37h1M29 38h1M28 39h1M27 45h2M26 47h3" />
<path stroke="#ffde31" d="M25 32h1M24 33h1M31 33h1M24 34h1M30 34h2M23 35h2M26 35h1M28 35h3M34 35h2M24 36h3M28 36h3M33 36h2M24 37h5M31 37h3M25 38h3M31 38h3M25 39h1M31 39h2M30 40h2M26 41h5M25 42h2M32 43h1M30 44h2M33 45h1M31 46h2M38 46h2" />
<path stroke="#848484" d="M28 32h1M29 33h1M38 41h2M37 42h1M24 44h2M41 44h2M24 45h2M40 45h3M24 46h1M41 46h2M37 48h3M33 49h3M38 49h1M30 50h5" />
<path stroke="#bda542" d="M25 33h1M25 34h1M36 34h1M22 36h1M27 36h1M32 36h1M35 36h1M22 37h1M22 38h1M34 38h1M22 39h2M34 39h1M23 40h2M32 40h1M24 41h1M33 41h1M27 42h1M32 42h2M31 43h1M34 44h1M22 45h2M43 45h2M40 48h2" />
<path stroke="#bdbdbd" d="M27 33h2M27 34h1M35 45h2M34 46h4M35 47h2M30 48h2" />
<path stroke="#9c843a" d="M34 37h1M33 39h1M22 41h1M25 41h1M22 42h1M35 42h1M33 43h1M35 43h1M32 44h1" />
</svg>