<svg xmlns="http://www.w3.org/2000/svg" viewBox="0 -0.5 68 56" shape-rendering="crispEdges">
<metadata>Made with Pixels to Svg https://codepen.io/shshaw/pen/XbxvNj</metadata>
<path stroke="#000000" d="M31 29h3M29 30h2M33 30h1M37 30h3M24 31h3M28 31h1M32 31h1M37 31h1M40 31h1M23 32h1M26 32h2M32 32h1M38 32h1M41 32h3M22 33h1M33 33h1M39 33h1M44 33h3M21 34h2M25 34h1M34 34h1M38 34h1M47 34h1M20 35h1M34 35h1M36 35h2M45 35h2M19 36h1M35 36h1M39 36h1M42 36h1M45 36h1M47 36h2M19 37h1M39 37h1M43 37h2M46 37h1M48 37h1M20 38h1M37 38h1M40 38h1M45 38h1M48 38h1M20 39h1M27 39h1M37 39h1M41 39h1M48 39h1M21 40h1M38 40h1M47 40h1M21 41h1M39 41h1M47 41h1M22 42h1M24 42h1M46 42h1M23 43h1M25 43h1M46 43h1M25 44h1M47 44h1M26 45h1M47 45h1M25 46h1M47 46h1M25 47h1M30 47h1M44 47h3M24 48h1M29 48h1M31 48h2M44 48h1M24 49h1M29 49h1M33 49h1M42 49h2M25 50h4M33 50h1M39 50h3M34 51h1M38 51h1M35 52h3" />
<path stroke="#414141" d="M31 30h2M29 31h3M38 31h2M28 32h4M39 32h2M25 33h1M29 33h1M31 33h2M40 33h4M27 34h2M31 34h3M39 34h8M22 35h1M26 35h1M31 35h1M33 35h1M38 35h4M44 35h1M22 36h1M30 36h1M34 36h1M36 36h3M41 36h1M22 37h1M30 37h1M36 37h3M42 37h1M22 38h2M28 38h2M39 38h1M42 38h3M23 39h1M26 39h1M29 39h1M36 39h1M40 39h1M43 39h1M46 39h1M23 40h4M29 40h1M32 40h6M40 40h2M44 40h1M23 41h3M28 41h1M32 41h1M34 41h1M36 41h1M42 41h1M44 41h2M27 42h2M31 42h1M34 42h1M36 42h1M40 42h1M42 42h2M45 42h1M26 43h2M30 43h1M33 43h1M36 43h2M40 43h2M43 43h1M28 44h2M32 44h1M35 44h3M40 44h1M43 44h1M27 45h2M30 45h2M34 45h2M38 45h2M44 45h1M28 46h2M32 46h3M38 46h1M44 46h1M46 46h1M31 47h2M39 47h1M39 48h1M25 49h1M39 49h1" />
<path stroke="#bda542" d="M24 32h1M23 33h1M25 35h1M27 35h1M30 35h1M29 36h1M20 37h1M23 37h1M26 37h4M21 38h1M25 38h3M21 39h2M32 39h4M22 40h1M31 40h1M22 41h1M26 41h2M31 41h1M23 42h1M25 42h2M30 42h1M32 42h2M29 43h1M32 43h1M34 43h2M33 44h2M33 45h1M45 45h1M42 47h1M25 48h1M40 48h1M42 48h1M26 49h1M28 49h1M35 49h1M37 49h1M41 49h1M35 50h1M37 50h1M36 51h1" />
<path stroke="#ffde31" d="M25 32h1M30 33h1M24 34h1M29 34h2M21 35h1M24 35h1M28 35h2M32 35h1M20 36h2M23 36h6M31 36h3M21 37h1M24 37h2M31 37h5M24 38h1M30 38h5M24 39h1M30 39h2M30 40h1M29 41h2M29 42h1M28 43h1M31 43h1M32 45h1M45 46h1M41 47h1M41 48h1M43 48h1M36 49h1M40 49h1M34 50h1M36 50h1M38 50h1M35 51h1M37 51h1" />
<path stroke="#ffffff" d="M24 33h1M23 34h1M23 35h1M35 38h2" />
<path stroke="#8c8c7b" d="M26 33h1M47 37h1M46 38h2M44 39h2M47 39h1M42 40h1M45 40h2M46 41h1M39 42h1M38 44h1M44 44h2M46 45h1M26 46h2M41 46h2M26 47h4M33 47h1M40 47h1M43 47h1M27 48h1M35 48h3M34 49h1M38 49h1" />
<path stroke="#bdbdb5" d="M27 33h2M26 34h1M42 39h1M43 40h1M37 41h2M40 41h2M43 41h1M37 42h2M41 42h1M44 42h1M38 43h2M42 43h1M44 43h2M39 44h1M41 44h2M46 44h1M36 45h2M40 45h4M35 46h3M39 46h2M43 46h1M34 47h5M33 48h2M38 48h1" />
<path stroke="#d6524a" d="M42 35h2M40 36h1M43 36h1M40 37h2M38 38h1M28 39h1M38 39h2M27 40h1M30 44h2" />
<path stroke="#f77b6b" d="M44 36h1M41 38h1M39 40h1" />
<path stroke="#a58442" d="M25 39h1M33 41h1M35 41h1M35 42h1M26 44h2M26 48h1M28 48h1M27 49h1" />
<path stroke="#ad524a" d="M28 40h1M29 45h1M30 46h2" />
</svg>