<svg xmlns="http://www.w3.org/2000/svg" viewBox="0 -0.5 68 56" shape-rendering="crispEdges">
<metadata>Made with Pixels to Svg https://codepen.io/shshaw/pen/XbxvNj</metadata>
<path stroke="#000000" d="M31 30h1M30 31h1M32 31h1M37 31h2M24 32h4M30 32h1M32 32h1M36 32h1M38 32h1M23 33h1M28 33h1M30 33h1M33 33h1M35 33h1M38 33h1M22 34h1M29 34h1M33 34h1M35 34h1M38 34h1M23 35h2M34 35h1M38 35h1M41 35h3M25 36h1M37 36h1M40 36h1M44 36h1M25 37h1M37 37h1M39 37h1M45 37h1M24 38h1M33 38h1M45 38h1M25 39h1M45 39h1M25 40h1M45 40h1M24 41h1M44 41h1M25 42h2M42 42h2M27 43h1M42 43h1M28 44h1M43 44h1M28 45h1M41 45h3M27 46h1M32 46h2M39 46h2M28 47h4M33 47h1M39 47h1M32 48h1M38 48h2M30 49h2M35 49h4M28 50h2M34 50h1M27 51h1M34 51h1M28 52h2M32 52h2M30 53h2" />
<path stroke="#dea5d6" d="M31 31h1M31 32h1M37 32h1M31 33h2M36 33h2M31 34h2M36 34h2M31 35h1M35 35h2M30 36h7M41 36h3M29 37h4M36 37h1M40 37h5M29 38h3M36 38h2M40 38h5M31 39h4M36 39h1M40 39h1M42 39h3M43 40h1M43 41h1M41 44h2" />
<path stroke="#84527b" d="M24 33h1M27 33h1M30 34h1M29 39h2M35 39h1M31 40h4M42 40h1M34 41h1M32 45h1M35 45h1M29 46h1M31 46h1M36 46h1M34 47h1M33 48h1M36 48h1M32 49h3M30 50h2M33 50h1M30 51h3M30 52h2" />
<path stroke="#bd6bad" d="M25 33h2M23 34h6M25 35h4M37 35h1M26 36h2M29 36h1M26 37h2M33 37h1M35 37h1M25 38h2M28 38h1M37 39h1M41 39h1M35 40h2M40 40h2M44 40h1M25 41h1M35 41h1M39 41h1M41 41h1M36 42h1M30 45h2M28 46h1M30 46h1M35 46h1M28 51h2" />
<path stroke="#414141" d="M29 35h2M32 35h2M28 36h1M28 37h1M27 38h1M38 38h2M26 39h2M38 39h2M28 40h1M37 40h3M28 41h1M36 41h2M40 41h1M42 41h1M28 42h1M33 42h3M40 42h2M29 43h1M32 43h1M37 43h3M30 44h2M36 44h1M29 45h1M36 45h3M34 46h1M38 46h1M35 47h1M34 48h1M32 50h1M33 51h1" />
<path stroke="#ffffff" d="M34 37h1M32 38h1M34 38h2M28 39h1M33 41h1" />
<path stroke="#3a63bd" d="M26 40h2M26 41h2M27 42h1M28 43h1M29 44h1M40 44h1" />
<path stroke="#f77b63" d="M29 40h1M29 41h1M31 41h2M29 42h1M31 42h2M30 43h2" />
<path stroke="#ad5242" d="M30 40h1M30 41h1" />
<path stroke="#ce8cc5" d="M38 41h1M37 42h3M33 43h4M32 44h4M33 45h2M37 46h1M36 47h3M35 48h1M37 48h1" />
<path stroke="#d66b52" d="M30 42h1" />
<path stroke="#5a84f7" d="M40 43h2M37 44h3M39 45h2" />
</svg>