<svg xmlns="http://www.w3.org/2000/svg" viewBox="0 -0.5 68 56" shape-rendering="crispEdges">
<metadata>Made with Pixels to Svg https://codepen.io/shshaw/pen/XbxvNj</metadata>
<path stroke="#000000" d="M29 33h1M33 33h2M39 33h2M28 34h1M30 34h1M32 34h1M34 34h1M38 34h1M40 34h1M28 35h1M31 35h1M34 35h2M37 35h1M40 35h1M21 36h2M27 36h1M39 36h1M20 37h1M23 37h1M27 37h1M39 37h1M20 38h1M24 38h3M38 38h1M21 39h2M39 39h1M23 40h3M39 40h1M26 41h1M34 41h1M40 41h1M26 42h1M40 42h1M26 43h1M41 43h2M27 44h1M43 44h1M46 44h2M27 45h1M40 45h2M44 45h2M48 45h1M28 46h2M39 46h1M42 46h1M49 46h1M29 47h1M40 47h1M43 47h2M47 47h2M28 48h2M40 48h1M45 48h2M27 49h1M35 49h3M41 49h1M26 50h1M30 50h1M33 50h2M38 50h1M42 50h1M22 51h4M28 51h2M31 51h3M37 51h1M40 51h1M43 51h1M21 52h1M28 52h1M38 52h2M41 52h2M22 53h2M26 53h1M29 53h1M24 54h2M27 54h2" />
<path stroke="#4162ac" d="M29 34h1M33 34h1M29 35h1M32 35h2M28 36h2M32 36h2M28 37h1M31 37h2M28 38h1M31 38h1M34 38h1M28 39h1M30 39h3M34 39h2M28 40h1M30 40h1M31 41h1M30 42h2M29 43h3M40 43h1M30 44h1M40 44h1M42 45h2M46 45h2M38 46h1M43 46h2M37 47h3M45 47h2M30 48h1M38 48h1M26 51h2M38 51h1M41 51h2M22 52h2M26 52h1M24 53h2M28 53h1" />
<path stroke="#f6eeac" d="M39 34h1M38 35h2M37 36h2M36 37h3M36 38h2M37 39h1M37 40h1M37 41h1M46 46h2M27 53h1" />
<path stroke="#52d5ee" d="M30 35h1M30 36h1M34 36h2M29 37h1M33 37h2M29 38h1M32 38h2" />
<path stroke="#314a8b" d="M31 36h1M30 37h1M30 38h1M29 39h1M29 40h1M31 40h1M34 40h3M28 41h3M33 41h1M28 42h2M32 42h1M28 43h1M32 43h1M29 44h1M31 44h1M30 45h1M39 45h1M45 46h1M48 46h1M37 48h1M31 50h2M40 50h1M39 51h1M25 52h1M27 52h1" />
<path stroke="#414141" d="M36 36h1M35 37h1M35 38h1M26 39h1M36 39h1M27 40h1M27 41h1M39 43h1M39 44h1M38 45h1M37 46h1M30 47h2M35 47h2M32 48h3M30 49h2M29 50h1M41 50h1" />
<path stroke="#ac4a5a" d="M21 37h2M21 38h3M23 39h3M38 39h1M26 40h1M38 40h1M38 41h2M37 42h3M36 43h2M34 44h2M37 44h1M28 45h1M31 45h3M36 45h1M34 46h2M32 47h3" />
<path stroke="#ffffff" d="M27 38h1M27 39h1M33 39h1M32 40h2M32 41h1M35 41h1M33 42h1M35 42h1M34 43h1M41 44h2M39 48h1M28 49h2M38 49h3M27 50h2M39 50h1" />
<path stroke="#948b52" d="M36 41h1M36 42h1M33 43h1M35 43h1" />
<path stroke="#f68b9c" d="M27 42h1M34 42h1M27 43h1M38 43h1M28 44h1M36 44h1M38 44h1M29 45h1M34 45h2M37 45h1M30 46h4M36 46h1" />
<path stroke="#c5bd6a" d="M32 44h2M35 48h1M33 49h2M24 52h1" />
<path stroke="#83948b" d="M31 48h1M36 48h1M32 49h1" />
</svg>