<svg xmlns="http://www.w3.org/2000/svg" viewBox="0 -0.5 68 56" shape-rendering="crispEdges">
<metadata>Made with Pixels to Svg https://codepen.io/shshaw/pen/XbxvNj</metadata>
<path stroke="#000000" d="M28 34h2M27 35h1M30 35h1M28 36h1M31 36h2M35 36h4M28 37h1M33 37h2M39 37h1M28 38h1M38 38h1M27 39h1M37 39h1M27 40h1M36 40h1M26 41h1M32 41h1M36 41h1M24 42h3M37 42h5M23 43h1M26 43h1M38 43h1M42 43h1M22 44h1M27 44h1M43 44h1M22 45h1M26 45h1M44 45h1M23 46h3M28 46h1M44 46h1M28 47h1M42 47h1M44 47h1M28 48h1M41 48h1M43 48h1M29 49h1M33 49h1M39 49h2M30 50h3M34 50h1M39 50h1M34 51h1M38 51h1M35 52h3" />
<path stroke="#414141" d="M28 35h2M29 36h2M29 37h1M30 38h1M29 42h1M32 42h1M36 42h1M24 43h2M27 43h1M35 43h1M23 44h4M28 44h1M34 44h1M39 44h2M25 45h1M29 45h1M34 45h2M39 45h1M41 45h1M29 46h1M31 46h1M33 46h1M38 46h1M42 46h1M29 47h1M33 47h1M37 47h2M40 47h1M30 48h1M34 48h3M39 48h1M32 49h1M38 50h1M36 51h1" />
<path stroke="#ad8cb5" d="M30 37h1M32 37h1M28 40h2M30 41h1M34 41h1M33 42h3M31 43h4M29 44h2M23 45h2" />
<path stroke="#ceadd6" d="M31 37h1M29 38h1M31 38h2M28 39h6M30 40h3M31 41h1M31 42h1M33 44h1M30 45h4M30 46h1M32 46h1M34 47h2M35 51h1M37 51h1" />
<path stroke="#7b7b7b" d="M35 37h4M34 38h2M35 39h1M36 43h2M35 44h1M37 44h2M36 45h3M34 46h4M30 47h3M36 47h1M31 48h3M37 48h2M34 49h5M35 50h3" />
<path stroke="#636363" d="M33 38h1M34 39h1M34 40h1M35 41h1M36 44h1M29 48h1M30 49h2" />
<path stroke="#efadbd" d="M36 38h2M27 41h3M27 42h2M30 42h1M28 43h3M39 43h2M41 44h2M42 45h1M40 46h1M43 46h1M41 47h1M43 47h1" />
<path stroke="#ce738c" d="M36 39h1M35 40h1M41 43h1M40 45h1M43 45h1M39 46h1M41 46h1M39 47h1M40 48h1" />
<path stroke="#ffffff" d="M33 40h1M33 41h1M31 44h2" />
</svg>