<svg xmlns="http://www.w3.org/2000/svg" viewBox="0 -0.5 68 56" shape-rendering="crispEdges">
<metadata>Made with Pixels to Svg https://codepen.io/shshaw/pen/XbxvNj</metadata>
<path stroke="#000000" d="M38 36h3M36 37h2M40 37h1M35 38h1M39 38h1M34 39h1M38 39h1M32 40h2M37 40h1M30 41h2M37 41h2M29 42h1M39 42h1M28 43h1M40 43h1M27 44h1M40 44h1M27 45h1M33 45h1M41 45h1M26 46h1M34 46h1M42 46h1M26 47h1M42 47h1M26 48h1M41 48h1M27 49h1M40 49h1M28 50h1M39 50h1M29 51h2M37 51h2M31 52h6" />
<path stroke="#f7e629" d="M38 37h2M36 38h3M35 39h3M34 40h1" />
<path stroke="#c5ad6b" d="M35 40h1" />
<path stroke="#414141" d="M36 40h1M33 41h3M29 44h2M28 45h1M28 46h1M29 47h1M28 48h1M38 48h1M29 49h2M34 49h1M36 49h1M39 49h1M34 50h1M37 50h1M35 51h1" />
<path stroke="#94ce8c" d="M32 41h1M36 41h1M30 42h9M29 43h11M31 44h9M29 45h2M32 45h1M34 45h7M30 46h4M35 46h6M31 47h9M29 48h9M31 49h3M35 49h1M37 49h2M35 50h2" />
<path stroke="#6b9c6b" d="M28 44h1M31 45h1M27 46h1M29 46h1M41 46h1M27 47h2M30 47h1M40 47h2M27 48h1M39 48h2M28 49h1M29 50h5M38 50h1M31 51h4M36 51h1" />
</svg>