<svg xmlns="http://www.w3.org/2000/svg" viewBox="0 -0.5 68 56" shape-rendering="crispEdges">
<metadata>Made with Pixels to Svg https://codepen.io/shshaw/pen/XbxvNj</metadata>
<path stroke="#000000" d="M22 26h2M21 27h1M24 27h1M20 28h1M25 28h1M29 28h2M21 29h2M25 29h1M28 29h1M31 29h1M40 29h2M23 30h1M26 30h2M30 30h1M33 30h2M39 30h1M42 30h1M48 30h3M16 31h3M23 31h1M31 31h2M35 31h1M40 31h1M43 31h1M47 31h1M51 31h1M15 32h1M19 32h1M23 32h1M36 32h3M40 32h1M43 32h1M47 32h1M51 32h1M15 33h1M19 33h1M23 33h1M39 33h1M42 33h1M47 33h1M51 33h1M16 34h1M20 34h1M24 34h1M42 34h1M48 34h1M50 34h1M15 35h1M20 35h1M23 35h1M42 35h1M48 35h1M50 35h1M15 36h1M20 36h1M23 36h1M42 36h1M47 36h1M50 36h1M16 37h2M20 37h1M22 37h1M43 37h1M45 37h2M49 37h1M18 38h1M21 38h1M44 38h1M49 38h1M18 39h1M48 39h1M19 40h1M47 40h1M20 41h1M46 41h1M20 42h1M45 42h1M19 43h1M45 43h1M19 44h1M44 44h1M19 45h1M44 45h1M20 46h1M44 46h1M21 47h4M43 47h1M25 48h2M43 48h1M27 49h3M43 49h1M30 50h7M43 50h1M37 51h1M42 51h1M37 52h1M42 52h1M38 53h4" />
<path stroke="#5a6a83" d="M22 27h1M22 28h2M23 29h2M29 29h1M24 30h2M28 30h2M41 30h1M25 31h2M28 31h2M33 31h1M41 31h2M49 31h1M16 32h3M26 32h1M28 32h1M31 32h2M34 32h2M42 32h1M48 32h3M17 33h2M25 33h1M28 33h1M30 33h2M34 33h2M37 33h2M41 33h1M49 33h1M18 34h2M26 34h2M30 34h3M34 34h2M37 34h2M41 34h1M18 35h2M27 35h3M33 35h1M36 35h2M39 35h3M49 35h1M16 36h4M24 36h1M27 36h6M37 36h1M39 36h2M19 37h1M23 37h1M27 37h1M29 37h1M36 37h3M41 37h2M47 37h2M19 38h1M22 38h1M27 38h3M33 38h11M45 38h2M48 38h1M19 39h2M35 39h2M40 39h1M42 39h2M45 39h3M20 40h2M37 40h2M43 40h2M46 40h1M21 41h2M36 41h4M41 41h1M44 41h1M22 42h3M36 42h4M44 42h1M20 43h1M24 43h1M38 43h2M41 43h1M43 43h1M36 44h3M41 44h3M20 45h1M34 45h4M40 45h4M21 46h2M34 46h2M39 46h4M39 47h3M38 48h2M42 48h1M40 49h3M38 50h5M41 51h1M39 52h2" />
<path stroke="#ffde5a" d="M23 27h1M21 28h1M30 29h1M40 30h1M34 31h1M24 32h1M41 32h1M24 33h1M25 34h1M25 35h1M26 36h1M33 36h3M24 37h1M28 37h1M30 37h3M24 38h2M23 39h1M25 39h2M25 40h1M27 40h7M41 40h1M27 41h1M29 41h1M31 41h1M33 41h2M42 41h1M34 42h1M42 42h1M34 43h2M22 44h1M23 45h1M24 46h2M27 46h1M26 47h3M30 47h1M33 47h1M36 47h1M28 48h8M31 49h3" />
<path stroke="#414141" d="M24 28h1M24 31h1M27 31h1M30 31h1M48 31h1M50 31h1M25 32h1M27 32h1M29 32h1M33 32h1M16 33h1M26 33h2M29 33h1M33 33h1M36 33h1M40 33h1M48 33h1M50 33h1M17 34h1M28 34h2M33 34h1M36 34h1M39 34h2M49 34h1M16 35h2M24 35h1M26 35h1M30 35h3M34 35h2M38 35h1M36 36h1M38 36h1M41 36h1M48 36h2M18 37h1M25 37h1M34 37h2M39 37h2M20 38h1M26 38h1M47 38h1M21 39h2M27 39h8M37 39h3M41 39h1M44 39h1M22 40h2M35 40h2M39 40h2M42 40h1M45 40h1M23 41h2M30 41h1M32 41h1M35 41h1M40 41h1M43 41h1M45 41h1M21 42h1M25 42h1M29 42h1M31 42h1M33 42h1M35 42h1M40 42h2M43 42h1M21 43h3M25 43h1M28 43h1M33 43h1M36 43h2M40 43h1M42 43h1M44 43h1M21 44h1M23 44h2M27 44h1M34 44h2M39 44h2M22 45h1M24 45h2M27 45h1M33 45h1M38 45h2M23 46h1M26 46h1M28 46h1M30 46h1M33 46h1M36 46h3M43 46h1M29 47h1M31 47h2M34 47h2M38 47h1M42 47h1M37 48h1M40 48h2M35 49h5M38 52h1M41 52h1" />
<path stroke="#62d5f6" d="M30 32h1M32 33h1M25 36h1M26 37h1M33 37h1M30 38h3" />
<path stroke="#c5ac5a" d="M23 38h1M34 40h1M20 44h1M21 45h1M25 47h1M37 47h1M27 48h1M36 48h1M30 49h1M34 49h1M37 50h1M38 51h3" />
<path stroke="#4a738b" d="M24 39h1M24 40h1M26 40h1M25 41h2M28 41h1M27 42h1M30 42h1M32 42h1M29 43h4M28 44h6M26 45h1M28 45h5M29 46h1M31 46h2" />
<path stroke="#4a9cbd" d="M26 42h1M28 42h1M26 43h2M25 44h2" />
</svg>