<svg xmlns="http://www.w3.org/2000/svg" viewBox="0 -0.5 68 56" shape-rendering="crispEdges">
<metadata>Made with Pixels to Svg https://codepen.io/shshaw/pen/XbxvNj</metadata>
<path stroke="#000000" d="M28 29h1M32 29h2M27 30h1M29 30h1M31 30h1M33 30h1M27 31h1M30 31h1M33 31h1M27 32h1M34 32h1M28 33h1M32 33h3M28 34h1M31 34h1M37 34h2M27 35h1M31 35h1M36 35h1M39 35h1M27 36h1M32 36h3M36 36h1M39 36h1M28 37h1M35 37h1M38 37h1M28 38h1M37 38h1M26 39h2M38 39h1M25 40h1M30 40h1M39 40h2M25 41h1M34 41h1M41 41h1M23 42h2M27 42h3M41 42h1M22 43h1M26 43h1M29 43h1M42 43h2M22 44h1M24 44h2M30 44h1M40 44h1M44 44h1M22 45h2M29 45h2M39 45h1M41 45h1M45 45h1M28 46h1M39 46h1M42 46h1M45 46h1M28 47h1M40 47h1M42 47h1M45 47h1M29 48h1M32 48h1M40 48h1M42 48h1M44 48h1M46 48h1M28 49h1M30 49h2M33 49h4M40 49h1M43 49h1M45 49h2M29 50h2M37 50h1M39 50h1M36 51h1M40 51h1M37 52h3" />
<path stroke="#426b9c" d="M28 30h1M28 31h1M28 32h1M30 32h1M29 33h1M34 38h1M36 39h1M26 40h2M27 41h1M29 41h1M38 41h1M40 41h1M25 42h2M30 42h2M33 42h1M23 43h3M32 43h1M40 43h1M29 46h1M31 46h1M34 46h1M29 47h2M34 47h1M37 47h1M43 47h1M30 48h2M35 48h1M37 49h1M39 49h1M38 50h1" />
<path stroke="#638cd6" d="M32 30h1M31 31h2M31 32h3M30 33h1M30 34h1M28 35h1M30 35h1M37 35h1M28 36h1M30 36h2M37 36h2M30 37h2M33 37h2M36 37h1M30 38h4M35 38h1M31 39h3M35 39h1M37 39h1M31 40h3M36 40h2M30 41h3M36 41h1M32 42h1M35 42h2M38 42h3M30 43h2M33 43h4M39 43h1M41 43h1M31 44h4M37 44h2M42 44h2M35 45h4M42 45h2M32 46h2M35 46h2M43 46h2M32 47h2M35 47h1M38 47h1M44 47h1M33 48h2M37 48h3M38 49h1M37 51h1M39 51h1" />
<path stroke="#414141" d="M29 31h1M29 32h1M31 33h1M29 34h1M29 35h1M29 36h1M29 37h1M32 37h1M37 37h1M29 38h1M36 38h1M28 39h1M30 39h1M28 40h1M34 40h1M38 40h1M26 41h1M28 41h1M37 41h1M37 42h1M37 43h2M35 44h2M39 44h1M41 44h1M31 45h4M30 46h1M37 46h2M31 47h1M36 47h1M39 47h1M36 48h1" />
<path stroke="#8cb5e6" d="M38 35h1M39 41h1M44 45h1" />
<path stroke="#debd29" d="M29 39h1M34 39h1M29 40h1M33 41h1" />
<path stroke="#f7f729" d="M35 40h1M35 41h1M34 42h1" />
<path stroke="#d6d6d6" d="M23 44h1M29 49h1" />
<path stroke="#ffffff" d="M43 48h1M45 48h1M38 51h1" />
</svg>