<svg xmlns="http://www.w3.org/2000/svg" viewBox="0 -0.5 68 56" shape-rendering="crispEdges">
<metadata>Made with Pixels to Svg https://codepen.io/shshaw/pen/XbxvNj</metadata>
<path stroke="#000000" d="M28 31h3M27 32h1M30 32h2M37 32h1M26 33h2M32 33h1M35 33h2M38 33h1M24 34h2M33 34h2M38 34h1M42 34h1M44 34h1M23 35h1M38 35h1M41 35h1M43 35h1M45 35h1M22 36h1M37 36h1M41 36h1M45 36h1M22 37h1M36 37h1M40 37h1M46 37h1M23 38h2M35 38h1M39 38h1M47 38h1M25 39h1M35 39h1M40 39h1M46 39h1M24 40h1M31 40h1M36 40h1M39 40h1M47 40h1M23 41h1M37 41h2M43 41h1M45 41h2M22 42h1M41 42h2M44 42h1M22 43h1M24 43h2M40 43h1M23 44h1M25 44h1M41 44h2M25 45h1M43 45h1M26 46h1M42 46h1M27 47h1M40 47h2M26 48h1M38 48h2M27 49h3M37 49h1M30 50h3M37 50h1M32 51h3M38 51h1M34 52h5" />
<path stroke="#414141" d="M28 32h1M29 33h1M31 33h1M26 34h1M32 34h1M37 34h1M26 35h1M32 35h1M35 35h2M23 37h1M34 38h1M26 39h2M32 39h2M28 40h1M33 40h1M29 41h1M32 41h1M29 42h3M35 42h4M26 43h3M33 43h2M39 43h1M32 44h1M40 44h1M31 45h1M39 45h2M31 46h1M31 47h2M30 48h1M33 48h1M32 49h1M34 49h3M35 50h1M36 51h1" />
<path stroke="#3a7bad" d="M29 32h1M28 33h1M30 33h1M37 33h1M27 34h1M29 34h3M35 34h2M24 35h2M27 35h1M29 35h3M37 35h1M23 36h10M35 36h2M24 37h10M25 38h9M28 39h4M35 43h2M33 44h5M32 45h6M32 46h6M33 47h4" />
<path stroke="#42637b" d="M28 34h1M28 35h1M33 35h2M33 36h2M34 37h2M34 39h1M35 40h1M40 40h1M36 41h1M39 41h3M39 42h2M37 43h2M38 44h2M38 45h1M41 45h2M38 46h4M37 47h3M31 48h2M34 48h4M30 49h2" />
<path stroke="#b54231" d="M42 35h1M44 35h1M42 36h3M41 37h5M40 38h7M41 39h5M30 40h1M41 40h6M42 41h1M44 41h1" />
<path stroke="#f7e629" d="M25 40h3M24 41h3M24 42h1M23 43h1" />
<path stroke="#bdbdbd" d="M29 40h1M34 40h1M30 41h1M29 43h1M26 44h3M27 45h1M27 46h2M30 46h1M28 47h3M27 48h3M33 50h1" />
<path stroke="#ffffff" d="M32 40h1M31 41h1M33 41h3M32 42h3M30 43h3M29 44h3M28 45h3M29 46h1M35 51h1M37 51h1" />
<path stroke="#947b4a" d="M27 41h2M25 42h1" />
<path stroke="#bda55a" d="M23 42h1M26 42h3" />
<path stroke="#7b7b84" d="M26 45h1" />
<path stroke="#636363" d="M33 49h1M34 50h1M36 50h1" />
</svg>