<svg xmlns="http://www.w3.org/2000/svg" viewBox="0 -0.5 68 56" shape-rendering="crispEdges">
<metadata>Made with Pixels to Svg https://codepen.io/shshaw/pen/XbxvNj</metadata>
<path stroke="#000000" d="M31 28h1M27 29h2M30 29h1M32 29h1M24 30h3M29 30h2M32 30h1M24 31h1M33 31h1M36 31h1M43 31h3M21 32h3M25 32h1M33 32h1M35 32h1M37 32h1M41 32h2M46 32h1M20 33h1M24 33h2M34 33h1M37 33h1M40 33h1M45 33h1M21 34h1M36 34h1M39 34h1M46 34h1M22 35h1M36 35h1M38 35h1M44 35h2M23 36h1M36 36h1M38 36h1M42 36h2M22 37h1M37 37h1M41 37h1M44 37h4M21 38h1M42 38h2M48 38h1M22 39h1M47 39h1M21 40h1M48 40h1M20 41h1M45 41h3M21 42h1M46 42h1M20 43h1M41 43h2M45 43h1M21 44h1M41 44h1M43 44h2M21 45h1M27 45h2M41 45h2M45 45h2M22 46h2M26 46h1M29 46h1M43 46h2M47 46h1M24 47h2M29 47h1M46 47h1M30 48h1M45 48h1M30 49h1M42 49h3M31 50h1M34 50h2M41 50h1M32 51h2M36 51h2M39 51h1M41 51h1M38 52h1M40 52h1" />
<path stroke="#6b5a5a" d="M31 29h1M27 30h2M31 30h1M29 31h1M31 31h1M30 32h1M30 33h1M35 33h1M43 35h1M40 36h2M39 37h2M36 38h4M28 39h1M35 39h4M40 39h3M33 40h1M36 40h1M39 40h1M43 40h2M32 41h1M40 41h2M31 42h3M41 42h5M24 43h1M29 43h1M43 43h2M24 44h1M27 44h2M30 44h1M40 44h1M37 45h1M24 46h1M37 46h1" />
<path stroke="#ad42ad" d="M25 31h2M26 32h2M32 32h1M21 33h3M26 33h3M32 33h1M22 34h3M27 34h3M31 34h3M24 35h2M27 35h1M31 35h3M32 36h1M34 37h2M22 38h2M33 38h2M29 39h1M28 40h1M21 41h2M34 41h2M37 41h2M35 42h2M38 42h1M21 43h1M39 43h1M33 44h1M32 48h1M33 49h1M37 49h1" />
<path stroke="#52424a" d="M27 31h2M30 31h1M32 31h1M29 32h1M31 32h1M29 33h1M31 33h1M33 33h1M44 33h1M26 34h1M30 34h1M34 34h1M26 35h1M29 35h1M34 35h1M25 36h1M27 36h1M31 36h1M33 36h3M24 37h1M32 37h1M36 37h1M24 38h1M29 38h2M32 38h1M35 38h1M40 38h2M23 39h1M30 39h1M33 39h2M39 39h1M46 39h1M22 40h2M29 40h1M32 40h1M34 40h2M37 40h2M40 40h3M23 41h2M31 41h1M33 41h1M36 41h1M39 41h1M42 41h3M22 42h1M25 42h1M29 42h2M34 42h1M37 42h1M40 42h1M26 43h3M30 43h1M32 43h3M40 43h1M23 44h1M26 44h1M29 44h1M32 44h1M39 44h1M25 45h1M29 45h1M33 45h1M40 45h1M31 46h1M33 46h1M36 46h1M39 46h2M30 47h1M32 47h1M34 47h1M38 47h2M35 48h3" />
<path stroke="#843a8c" d="M28 32h1M25 34h1M23 35h1M28 35h1M30 35h1M24 36h1M23 37h1M33 37h1M39 42h1M35 43h1M38 43h1M34 44h1M31 47h1M31 48h1M32 49h1M36 49h1M37 50h1" />
<path stroke="#7b7373" d="M36 32h1M43 32h3M36 33h1M41 33h3M35 34h1M40 34h6M35 35h1M39 35h4M39 36h1M38 37h1M44 38h4M43 39h3M45 40h3M31 43h1M31 44h1M26 45h1M30 45h3M25 46h1M30 46h1M32 46h1M45 46h2M45 47h1M44 48h1" />
<path stroke="#84adf7" d="M26 36h1M25 37h3M29 37h2M25 38h2M28 38h1M31 38h1M25 39h3M31 39h1M24 40h4M30 40h1M25 41h1M27 41h3M23 42h2M26 42h1M22 43h2M25 43h1M36 43h2M22 44h1M25 44h1M35 44h4M22 45h3M34 45h3M38 45h2M34 46h2M38 46h1M41 46h1M33 47h1M35 47h2M41 47h4M33 48h2M39 48h1M42 48h2M31 49h1M34 49h2M38 49h3M32 50h1M36 50h1M38 50h3M38 51h1M40 51h1" />
<path stroke="#5a84ce" d="M28 36h3M28 37h1M31 37h1M27 38h1M24 39h1M32 39h1M31 40h1M26 41h1M30 41h1M27 42h1M42 46h1M37 47h1M40 47h1M38 48h1M40 48h2M41 49h1M33 50h1" />
<path stroke="#b5b5b5" d="M28 42h1" />
</svg>