<svg xmlns="http://www.w3.org/2000/svg" viewBox="0 -0.5 68 56" shape-rendering="crispEdges">
<metadata>Made with Pixels to Svg https://codepen.io/shshaw/pen/XbxvNj</metadata>
<path stroke="#000000" d="M32 28h1M31 29h1M33 29h1M31 30h1M33 30h1M36 30h3M30 31h1M34 31h2M39 31h1M30 32h1M40 32h1M29 33h1M40 33h1M28 34h1M41 34h1M28 35h1M41 35h1M27 36h1M42 36h1M27 37h1M30 37h1M42 37h1M26 38h1M42 38h1M25 39h1M35 39h1M42 39h1M26 40h1M41 40h1M24 41h2M27 41h1M41 41h1M44 41h3M22 42h2M41 42h2M47 42h1M21 43h1M40 43h1M42 43h1M44 43h2M47 43h1M21 44h1M40 44h1M42 44h1M44 44h2M47 44h1M21 45h2M25 45h2M28 45h1M40 45h1M42 45h1M47 45h1M23 46h2M27 46h2M41 46h1M43 46h4M28 47h1M41 47h1M27 48h1M41 48h1M27 49h1M32 49h1M40 49h1M28 50h1M31 50h1M33 50h3M41 50h1M29 51h2M41 51h1M35 52h1M40 52h1M36 53h4" />
<path stroke="#bda55a" d="M32 29h1M32 30h1M31 31h3M31 32h1M37 32h1M30 33h1M36 33h1M38 33h1M36 34h1M40 34h1M29 35h1M40 35h1M28 36h1M30 36h1M38 36h1M40 36h2M28 37h1M36 37h1M38 37h2M41 37h1M28 38h2M34 38h1M38 38h2M41 38h1M28 39h1M33 39h1M39 39h2M29 40h1M34 40h3M39 40h2M38 41h1M24 42h2M35 42h1M22 43h2M25 43h1M22 44h1M24 44h3M24 45h1M37 46h1M31 47h1M33 47h1M35 47h2M31 48h5M40 48h1M33 49h2M40 50h1M37 52h1M39 52h1" />
<path stroke="#ffde31" d="M36 31h3M35 32h2M38 32h2M31 33h3M35 33h1M37 33h1M39 33h1M29 34h6M37 34h1M39 34h1M30 35h6M31 36h6M31 37h5M31 38h3M30 39h3M30 40h3M37 40h1M29 41h4M34 41h3M39 41h2M29 42h2M33 42h2M39 42h2M39 43h1M38 44h2M38 45h2M38 46h3M37 47h4M37 48h3M36 49h4M36 50h4M37 51h4M36 52h1M38 52h1" />
<path stroke="#8c7b42" d="M32 32h2M38 34h1M38 35h2M27 38h1M30 38h1M27 39h1M29 39h1M33 40h1M33 41h1M24 43h1M23 44h1M23 45h1M29 47h1M28 48h3M36 48h1M28 49h4M35 49h1M29 50h2" />
<path stroke="#414141" d="M34 32h1M34 33h1M35 34h1M36 35h2M37 36h1M37 37h1M37 38h1M38 39h1M28 40h1M38 40h1M28 41h1M37 41h1M26 42h1M28 42h1M31 42h2M36 42h1M38 42h1M43 42h1M46 42h1M26 43h1M29 43h2M33 43h3M38 43h1M27 44h1M37 44h1M37 45h1M43 45h1M46 45h1M29 46h1M31 46h1M33 46h1M35 46h2M30 47h1M32 47h1M34 47h1M36 51h1" />
<path stroke="#ffffff" d="M29 36h1M39 36h1M29 37h1M40 37h1M35 38h2M40 38h1M34 39h1M36 39h2M41 39h1M42 40h1M43 41h1M37 42h1M44 42h1M36 43h1M33 44h4M32 45h3M36 45h1M32 46h1M34 46h1" />
<path stroke="#bdbdbd" d="M26 39h1M27 40h1M26 41h1M27 42h1M45 42h1M27 43h2M31 43h2M37 43h1M43 43h1M46 43h1M28 44h5M43 44h1M46 44h1M27 45h1M29 45h3M35 45h1M44 45h2M30 46h1" />
</svg>