<svg xmlns="http://www.w3.org/2000/svg" viewBox="0 -0.5 68 56" shape-rendering="crispEdges">
<metadata>Made with Pixels to Svg https://codepen.io/shshaw/pen/XbxvNj</metadata>
<path stroke="#000000" d="M34 33h3M33 34h1M37 34h1M32 35h1M38 35h1M32 36h1M39 36h3M30 37h2M42 37h1M27 38h1M29 38h1M41 38h1M26 39h1M41 39h2M26 40h1M43 40h1M26 41h1M43 41h1M25 42h1M44 42h1M25 43h1M44 43h1M24 44h1M44 44h1M24 45h1M44 45h1M24 46h1M32 46h1M44 46h1M25 47h1M30 47h2M43 47h1M25 48h1M29 48h1M39 48h1M43 48h1M26 49h2M38 49h1M40 49h3M28 50h2M32 50h2M38 50h1M30 51h2M33 51h1M37 51h1M34 52h3" />
<path stroke="#9c3a42" d="M34 34h1M35 35h1M35 36h1M34 37h1M34 38h1M34 39h1" />
<path stroke="#e6636b" d="M35 34h2M34 35h1M36 35h2M33 36h1M36 36h2M33 37h1M35 37h2M30 48h2" />
<path stroke="#bd525a" d="M33 35h1M34 36h1M32 37h1M37 37h2M32 38h2M35 38h4M33 39h1M35 39h3M34 40h2M25 44h1M25 45h1" />
<path stroke="#414141" d="M38 36h1M39 37h1M31 38h1M39 38h2M28 39h1M32 39h1M38 39h1M29 40h2M33 40h1M36 40h2M31 41h5M34 42h3M37 43h1M36 44h5M35 45h2M41 45h3M31 46h1M38 46h1M39 47h1M34 49h1M30 50h1" />
<path stroke="#528c52" d="M40 37h2M29 39h2M39 39h1M31 40h2M37 42h1M38 43h1M40 43h1M42 44h2" />
<path stroke="#3a6b3a" d="M30 38h1M31 39h1M38 40h3M37 41h1M40 41h3M39 42h1M42 42h1M39 43h1M41 43h1M43 43h1M41 44h1" />
<path stroke="#6bbda5" d="M27 39h1M27 40h2M27 41h3M26 42h3M27 43h3M33 43h4M27 44h1M29 44h6M26 45h4M31 45h3M25 46h4M30 46h1M33 46h2M26 47h4M33 47h1M27 48h2" />
<path stroke="#6bad52" d="M40 39h1M41 40h2M36 41h1M38 41h2M38 42h1M40 42h2M43 42h1M42 43h1" />
<path stroke="#429484" d="M30 41h1M33 42h1M26 43h1M32 43h1M35 44h1M30 45h1M34 45h1M37 45h4M35 46h3M39 46h1M42 46h2M34 47h2M38 47h1M40 47h3M26 48h1M33 48h3M38 48h1M41 48h1M28 49h6M35 49h3M34 50h4M35 51h1" />
<path stroke="#217363" d="M29 42h4M30 43h2M26 44h1M28 44h1M29 46h1M40 46h2M36 47h2M36 48h2" />
<path stroke="#ffffff" d="M32 47h1M32 48h1M34 51h1M36 51h1" />
<path stroke="#bdbdbd" d="M40 48h1M42 48h1M31 50h1" />
</svg>