<svg xmlns="http://www.w3.org/2000/svg" viewBox="0 -0.5 68 56" shape-rendering="crispEdges">
<metadata>Made with Pixels to Svg https://codepen.io/shshaw/pen/XbxvNj</metadata>
<path stroke="#000000" d="M31 32h2M30 33h1M32 33h1M29 34h1M32 34h1M28 35h1M32 35h3M27 36h1M35 36h2M40 36h3M27 37h1M37 37h3M42 37h1M26 38h1M41 38h1M26 39h1M41 39h1M26 40h1M40 40h1M26 41h1M32 41h1M39 41h1M26 42h1M39 42h1M25 43h1M40 43h1M24 44h1M40 44h1M24 45h1M27 45h2M40 45h1M24 46h1M26 46h1M29 46h1M39 46h1M25 47h1M29 47h1M32 47h2M39 47h1M28 48h1M31 48h1M33 48h2M39 48h1M29 49h2M35 49h1M39 49h1M36 50h1M38 50h1M35 51h1M39 51h1M36 52h3" />
<path stroke="#b5845a" d="M31 33h1M30 34h2M29 35h3M28 36h2M32 36h3M28 37h1M30 37h7M40 37h2M27 38h1M30 38h6M38 38h3M27 39h1M31 39h4M36 39h5M32 40h1M35 40h5M35 41h4M27 42h1M30 42h1M34 42h3M29 43h1M31 43h4M35 44h2M35 45h1M35 48h2M36 49h1M37 50h1" />
<path stroke="#414141" d="M30 36h2M29 37h1M28 38h1M36 38h2M35 39h1M33 40h2M32 42h1M37 42h2M27 43h2M35 43h2M38 43h1M29 44h6M37 44h1M30 45h1M36 45h1M31 46h1M36 46h1M30 47h1M35 47h2M37 48h1M37 49h1" />
<path stroke="#d6b563" d="M29 38h1M28 39h3M27 40h5M27 41h4M28 42h2" />
<path stroke="#8c6b4a" d="M31 41h1M34 41h1M30 43h1M37 43h1M30 46h1M31 47h1M30 48h1M37 51h1" />
<path stroke="#ffffff" d="M33 41h1M31 42h1M33 42h1M26 43h1M25 44h1M27 44h2M39 44h1M26 45h1M37 45h1M39 45h1M25 46h1M37 46h1M37 47h1M38 48h1M38 49h1M36 51h1" />
<path stroke="#bdbdb5" d="M39 43h1M26 44h1M38 44h1M25 45h1M29 45h1M31 45h1M33 45h2M38 45h1M38 46h1M34 47h1M38 47h1M29 48h1M38 51h1" />
<path stroke="#8c8c94" d="M32 45h1M32 46h4" />
</svg>