<svg xmlns="http://www.w3.org/2000/svg" viewBox="0 -0.5 68 56" shape-rendering="crispEdges">
<metadata>Made with Pixels to Svg https://codepen.io/shshaw/pen/XbxvNj</metadata>
<path stroke="#000000" d="M32 33h2M31 34h1M34 34h1M31 35h1M34 35h1M30 36h1M34 36h1M30 37h1M34 37h1M29 38h1M34 38h1M28 39h1M35 39h1M27 40h1M36 40h1M26 41h1M36 41h1M26 42h1M32 42h1M37 42h2M26 43h1M39 43h1M27 44h1M40 44h1M26 45h1M40 45h1M26 46h1M40 46h1M27 47h1M39 47h1M28 48h1M38 48h2M27 49h1M30 49h1M37 49h1M28 50h2M31 50h2M37 50h1M33 51h1M36 51h1M34 52h2" />
<path stroke="#d6ff9c" d="M32 34h1M28 40h2M28 41h2" />
<path stroke="#adef6b" d="M33 34h1M32 35h1M32 36h1M31 37h1M31 38h1M29 39h1M31 39h3M30 40h5M27 41h1M30 41h1M32 41h1M35 41h1M27 42h3M31 42h1M35 42h1M28 43h3M35 43h2M38 43h1M30 44h2M34 44h3M31 45h4M36 45h2M32 46h3M36 46h3M32 47h1M34 47h2M37 47h2M33 48h3M33 49h2" />
<path stroke="#84c56b" d="M33 35h1M31 36h1M33 36h1M32 37h2M32 38h2M30 39h1M34 39h1M35 40h1M31 41h1M30 42h1M36 42h1M27 43h1M32 44h1M27 45h1M29 45h1M35 45h1M39 45h1M28 46h1M31 46h1M28 47h1M36 48h1M29 49h1M35 49h2M34 50h2" />
<path stroke="#414141" d="M30 38h1M33 41h2M34 42h1M31 43h1M34 43h1M37 43h1M33 44h1M37 44h1M28 45h1M38 45h1M27 46h1M29 46h2M39 46h1M29 47h1M36 47h1M37 48h1" />
<path stroke="#ffffff" d="M33 42h1M33 43h1" />
<path stroke="#ad423a" d="M32 43h1M30 48h1M31 49h1" />
<path stroke="#6b8c63" d="M28 44h2M38 44h2M30 45h1M35 46h1M33 47h1M29 48h1M32 48h1M32 49h1M33 50h1M36 50h1" />
<path stroke="#de524a" d="M30 47h2M31 48h1" />
<path stroke="#c5ced6" d="M28 49h1M34 51h2" />
</svg>