<svg xmlns="http://www.w3.org/2000/svg" viewBox="0 -0.5 68 56" shape-rendering="crispEdges">
<metadata>Made with Pixels to Svg https://codepen.io/shshaw/pen/XbxvNj</metadata>
<path stroke="#000000" d="M27 31h1M31 31h2M26 32h1M28 32h1M30 32h1M33 32h1M35 32h2M26 33h1M28 33h2M34 33h1M37 33h1M26 34h1M38 34h1M26 35h1M39 35h1M27 36h1M40 36h1M26 37h1M40 37h1M26 38h1M41 38h1M25 39h1M42 39h1M23 40h2M42 40h1M22 41h1M43 41h1M22 42h1M33 42h1M43 42h1M23 43h1M36 43h2M44 43h1M24 44h1M27 44h1M35 44h1M38 44h1M44 44h2M25 45h2M28 45h1M36 45h1M38 45h1M46 45h1M28 46h1M37 46h1M47 46h1M28 47h1M47 47h1M29 48h2M46 48h1M31 49h1M38 49h1M46 49h1M32 50h1M37 50h1M39 50h1M42 50h1M45 50h1M33 51h2M37 51h1M40 51h2M43 51h2M35 52h2" />
<path stroke="#fff79c" d="M27 32h1M27 33h1M27 34h2M35 34h1M27 35h2M34 35h2M28 36h2M33 36h2M39 36h1M28 37h1M33 37h2M36 37h1M32 38h2M37 38h1M40 38h1M32 39h1M37 39h2M40 39h2M37 40h5M38 41h5M38 42h5M38 43h6M39 44h5M39 45h7M31 46h3M39 46h8M31 47h2M40 47h7M39 48h6M35 49h1M39 49h7M35 50h2M40 50h2M43 50h2M36 51h1" />
<path stroke="#a56b4a" d="M31 32h2M30 33h3M30 34h1M32 34h1M30 35h1M36 41h1M35 42h2M35 43h1M31 44h3M34 45h1M34 48h1M34 49h1" />
<path stroke="#414141" d="M33 33h1M35 33h1M29 34h1M31 34h1M33 34h2M36 34h1M29 35h1M31 35h3M36 35h1M30 36h1M32 36h1M35 36h1M27 37h1M29 37h1M32 37h1M35 37h1M28 38h1M31 38h1M34 38h1M36 38h1M28 39h1M31 39h1M33 39h1M36 39h1M27 40h1M32 40h1M36 40h1M27 41h1M37 41h1M27 42h1M32 42h1M37 42h1M24 43h1M28 43h1M32 43h1M29 44h2M34 44h1M29 45h1M31 45h3M35 45h1M34 46h1M38 46h1M29 47h1M34 47h1M38 47h1M33 48h1M38 48h1M32 49h2M34 50h1M35 51h1" />
<path stroke="#bd8463" d="M36 33h1M37 34h1M37 35h2M31 36h1M36 36h3M30 37h2M37 37h2M29 38h2M35 38h1M38 38h2M29 39h2M34 39h2M39 39h1M28 40h4M33 40h3M28 41h5M35 41h1M28 42h4M30 43h2M35 46h2M35 47h1M31 48h2M36 48h2M37 49h1" />
<path stroke="#cebd73" d="M39 37h1M27 38h1M26 39h2M25 40h2M23 41h4M23 42h4M25 43h3M25 44h2M30 45h1M29 46h2M30 47h1M33 47h1M39 47h1M45 48h1M33 50h1" />
<path stroke="#ffffff" d="M33 41h1" />
<path stroke="#f77b8c" d="M34 41h1M34 42h1M29 43h1M33 43h2" />
<path stroke="#8c5242" d="M36 47h2M35 48h1M36 49h1" />
</svg>