<svg xmlns="http://www.w3.org/2000/svg" viewBox="0 -0.5 68 56" shape-rendering="crispEdges">
<metadata>Made with Pixels to Svg https://codepen.io/shshaw/pen/XbxvNj</metadata>
<path stroke="#000000" d="M32 34h3M30 35h2M35 35h2M29 36h1M37 36h1M28 37h1M38 37h1M29 38h2M39 38h1M31 39h1M39 39h1M31 40h1M39 40h1M29 41h2M40 41h1M28 42h1M40 42h1M29 43h1M36 43h1M40 43h1M28 44h1M40 44h1M29 45h2M40 45h1M31 46h1M39 46h1M31 47h1M39 47h1M29 48h2M39 48h1M28 49h1M38 49h1M29 50h1M37 50h1M30 51h2M35 51h2M32 52h3" />
<path stroke="#d6d66b" d="M32 35h3M30 36h5M36 36h1M29 37h1M33 37h2M36 37h1M34 38h2M37 38h1M35 39h4M35 40h1M32 41h1M29 42h5M34 45h1M32 46h2M32 47h2M31 48h2" />
<path stroke="#bda55a" d="M35 36h1M30 37h1M35 37h1M37 37h1M31 38h2M36 38h1M32 39h2M32 40h2M38 40h1M34 41h1M39 41h1M39 42h1M39 43h1M29 44h5M39 44h1M32 45h1M39 45h1M35 46h1M38 46h1M35 47h4M34 48h3M33 49h3M37 49h1M30 50h6M32 51h3" />
<path stroke="#7b7342" d="M31 37h2M33 38h1M34 39h1M34 40h1M31 41h1M33 41h1M35 41h1M38 41h1M34 42h1M34 44h1M31 45h1M33 45h1M35 45h1M38 45h1M34 46h1M34 47h1M33 48h1M37 48h1M29 49h4M36 49h1M36 50h1" />
<path stroke="#414141" d="M38 38h1M36 40h2M36 41h2M35 42h1M38 42h1M30 43h6M38 43h1M35 44h1M38 44h1M36 45h2M36 46h2M38 48h1" />
<path stroke="#e65a73" d="M36 42h1M37 43h1M36 44h1" />
<path stroke="#b5526b" d="M37 42h1M37 44h1" />
</svg>