<svg xmlns="http://www.w3.org/2000/svg" viewBox="0 -0.5 68 56" shape-rendering="crispEdges">
<metadata>Made with Pixels to Svg https://codepen.io/shshaw/pen/XbxvNj</metadata>
<path stroke="#000000" d="M30 28h2M29 29h1M31 29h1M28 30h1M31 30h1M24 31h1M27 31h1M31 31h1M47 31h2M23 32h1M25 32h1M27 32h1M32 32h1M43 32h4M48 32h1M23 33h1M26 33h2M32 33h1M35 33h3M43 33h1M48 33h1M23 34h1M32 34h3M38 34h1M44 34h1M49 34h1M22 35h1M37 35h1M45 35h1M50 35h1M21 36h1M37 36h1M45 36h1M48 36h3M21 37h1M36 37h1M41 37h2M45 37h2M48 37h1M21 38h1M36 38h1M38 38h1M40 38h1M42 38h1M46 38h1M48 38h1M21 39h2M36 39h2M39 39h1M42 39h1M46 39h1M48 39h1M22 40h1M42 40h3M47 40h1M49 40h1M22 41h1M44 41h1M47 41h1M49 41h1M23 42h1M27 42h1M43 42h1M46 42h1M49 42h1M23 43h1M44 43h2M48 43h1M24 44h1M42 44h1M46 44h2M25 45h1M40 45h2M43 45h3M26 46h1M40 46h1M25 47h1M35 47h2M41 47h1M24 48h1M28 48h3M34 48h1M37 48h1M41 48h1M24 49h1M27 49h2M31 49h1M35 49h1M38 49h1M41 49h1M25 50h2M30 50h1M35 50h1M39 50h2M30 51h1M34 51h1M31 52h3" />
<path stroke="#6b6b63" d="M30 29h1M29 30h2M29 31h2M28 32h3M28 33h4M27 34h5M35 34h3M27 35h4M32 35h5M25 36h8M35 36h1M24 37h8M24 38h7M41 38h1M24 39h7M40 39h2M47 39h1M23 40h6M39 40h2M48 40h1M24 41h4M36 41h2M39 41h2M42 41h2M48 41h1M24 42h2M32 42h1M35 42h4M40 42h2M47 42h1M30 43h5M37 43h2M30 44h2M33 44h3M38 44h2M41 44h1M30 45h3M38 45h2M29 46h6M38 46h1M31 47h2M32 48h2M32 49h2M32 50h3M31 51h1M33 51h1" />
<path stroke="#414141" d="M28 31h1M24 32h1M31 32h1M24 33h2M24 34h3M25 35h2M31 35h1M24 36h1M33 36h2M36 36h1M47 36h1M23 37h1M32 37h1M35 37h1M47 37h1M23 38h1M31 38h1M47 38h1M23 39h1M31 39h1M38 39h1M29 40h1M36 40h3M41 40h1M23 41h1M28 41h1M32 41h1M35 41h1M38 41h1M41 41h1M26 42h1M30 42h2M33 42h2M39 42h1M42 42h1M48 42h1M29 43h1M35 43h2M39 43h5M46 43h2M32 44h1M36 44h1M40 44h1M43 44h3M26 45h1M29 45h1M33 45h3M27 46h2M35 46h1M26 47h2M30 47h1M33 47h2M25 48h3M31 48h1M25 49h2M34 49h1M31 50h1M32 51h1" />
<path stroke="#f7ce29" d="M47 32h1M44 33h2M47 33h1M45 34h4M46 35h1M48 35h2M46 36h1M34 39h1M34 40h1M28 42h1" />
<path stroke="#bda542" d="M46 33h1M47 35h1M34 38h1M33 39h1M33 40h1M27 43h2" />
<path stroke="#6b9ce6" d="M23 35h2M23 36h1M22 37h1M22 38h1M37 44h1M27 45h2M37 46h1M28 47h2M38 48h3M39 49h1" />
<path stroke="#4a73b5" d="M22 36h1M37 47h1M40 47h1M40 49h1" />
<path stroke="#7bc5ff" d="M33 37h2M32 38h2M35 38h1M32 39h1M35 39h1M30 40h3M35 40h1M30 41h2M33 41h2M26 43h1M25 44h5M36 45h2M36 46h1M39 46h1M38 47h2" />
<path stroke="#ef633a" d="M29 41h1M29 42h1M24 43h2" />
</svg>