<svg xmlns="http://www.w3.org/2000/svg" viewBox="0 -0.5 68 56" shape-rendering="crispEdges">
<metadata>Made with Pixels to Svg https://codepen.io/shshaw/pen/XbxvNj</metadata>
<path stroke="#000000" d="M42 30h2M41 31h1M43 31h1M27 32h1M35 32h2M39 32h2M43 32h1M26 33h1M28 33h1M31 33h1M33 33h2M36 33h1M38 33h1M42 33h1M26 34h1M28 34h1M30 34h1M32 34h1M36 34h2M42 34h1M44 34h3M26 35h1M28 35h1M30 35h1M42 35h2M46 35h1M25 36h1M29 36h1M45 36h1M25 37h1M45 37h1M25 38h1M44 38h1M23 39h2M45 39h2M22 40h1M46 40h1M21 41h1M45 41h1M22 42h3M29 42h1M44 42h1M25 43h1M43 43h1M24 44h1M42 44h1M24 45h2M42 45h1M26 46h2M38 46h1M43 46h1M28 47h1M37 47h1M39 47h2M43 47h1M26 48h2M32 48h1M36 48h1M40 48h1M43 48h1M25 49h1M31 49h3M37 49h3M41 49h1M43 49h1M24 50h1M28 50h3M32 50h1M39 50h2M42 50h2M25 51h3M31 51h1M37 51h2M31 52h3M36 52h1M34 53h2" />
<path stroke="#f7e65a" d="M42 31h1M41 32h2M35 33h1M40 33h2M31 34h1M34 34h2M38 34h4M31 35h1M33 35h3M37 35h4M44 35h2M31 36h1M34 36h1M37 36h4M42 36h3M29 37h1M31 37h2M34 37h1M36 37h8M27 38h3M31 38h2M34 38h6M41 38h3M25 39h5M31 39h3M35 39h4M42 39h1M24 40h6M31 40h3M36 40h2M22 41h13M36 41h1M28 42h1M32 42h2M35 42h1M26 43h2M35 43h1M25 44h1M31 44h1M34 44h1M30 45h4M31 46h3M29 47h4M30 48h2M30 49h1M34 49h1M33 50h3M35 51h1" />
<path stroke="#c5ad42" d="M27 33h1M39 33h1M27 34h1M33 34h1M27 35h1M26 36h2M30 36h1M32 36h1M35 36h2M26 37h1M28 37h1M30 37h1M44 37h1M26 38h1M30 38h1M30 39h1M23 40h1M30 40h1M34 40h1M45 40h1M44 41h1M26 42h2M32 43h2M26 44h1M32 44h1M26 49h2M36 49h1M27 50h1M36 50h3" />
<path stroke="#414141" d="M32 35h1M36 35h1M28 36h1M33 36h1M41 36h1M27 37h1M33 37h1M33 38h1M40 38h1M34 39h1M39 39h1M41 39h1M43 39h2M35 40h1M39 40h1M41 40h2M44 40h1M35 41h1M38 41h1M41 41h1M43 41h1M25 42h1M30 42h2M34 42h1M38 42h1M43 42h1M28 43h1M34 43h1M37 43h1M42 43h1M27 44h1M33 44h1M35 44h1M37 44h1M34 45h1M38 45h1M34 46h1M37 46h1M33 47h1M29 48h1M33 48h1M42 48h1M29 49h1M33 51h2M36 51h1M35 52h1" />
<path stroke="#947b3a" d="M41 35h1M35 37h1M38 40h1M37 41h1M36 42h1M31 43h1M36 43h1" />
<path stroke="#52adc5" d="M40 39h1M40 40h1M43 40h1M40 41h1M42 41h1M37 42h1M39 42h1M41 42h2M38 43h2M41 43h1M28 44h1M36 44h1M38 44h4M27 45h3M35 45h3M39 45h2M28 46h3M35 46h2M34 47h3M35 48h1" />
<path stroke="#4a84a5" d="M39 41h1M40 42h1M40 43h1M29 44h2M26 45h1M41 45h1M39 46h4M41 47h2M28 48h1M34 48h1M41 48h1M28 49h1M35 49h1M26 50h1" />
<path stroke="#de523a" d="M29 43h1M40 49h1M42 49h1M25 50h1M32 51h1M34 52h1" />
<path stroke="#ffffff" d="M30 43h1" />
</svg>