<svg xmlns="http://www.w3.org/2000/svg" viewBox="0 -0.5 68 56" shape-rendering="crispEdges">
<metadata>Made with Pixels to Svg https://codepen.io/shshaw/pen/XbxvNj</metadata>
<path stroke="#000000" d="M26 30h2M24 31h2M28 31h2M23 32h1M30 32h1M22 33h1M30 33h1M37 33h2M22 34h1M31 34h2M35 34h2M39 34h3M23 35h2M32 35h1M34 35h1M42 35h1M25 36h2M33 36h2M42 36h1M26 37h1M43 37h1M25 38h1M43 38h1M25 39h2M41 39h2M23 40h2M26 40h1M40 40h1M23 41h1M25 41h1M39 41h1M22 42h1M38 42h2M22 43h1M37 43h1M23 44h1M28 44h1M37 44h3M41 44h2M24 45h1M26 45h2M29 45h1M40 45h1M42 45h1M24 46h2M29 46h1M43 46h2M29 47h2M44 47h1M30 48h1M43 48h1M31 49h1M37 49h2M41 49h1M43 49h1M30 50h1M37 50h1M39 50h2M42 50h1M30 51h3M34 51h1M36 51h1M32 52h2M35 52h2" />
<path stroke="#f7a5d6" d="M26 31h2M24 32h2M28 32h2M23 34h2M27 34h2M37 34h2M25 35h2M35 35h2M40 35h2M36 36h2M41 37h2M36 38h2M42 38h1M39 39h2" />
<path stroke="#e6739c" d="M26 32h1M23 33h1M27 33h1M26 34h1M38 35h1M35 36h1M40 36h1M37 37h1M40 37h1M39 38h1M41 38h1M38 39h1" />
<path stroke="#ce5a8c" d="M27 32h1M24 33h1M28 33h1M25 34h1M37 35h1M39 35h1M41 36h1M36 37h1M38 38h1M40 38h1" />
<path stroke="#f7e629" d="M25 33h2M30 36h1M38 36h2M30 37h2M34 37h1M38 37h2M26 38h1M30 38h2M27 40h1M27 41h1M38 41h1M32 42h2M32 43h2M41 46h1M42 47h1M40 48h1" />
<path stroke="#528452" d="M29 33h1M29 37h1M32 37h1M29 38h1M32 38h1M34 39h1M36 45h1M35 46h1M35 47h1M36 48h1" />
<path stroke="#8ce663" d="M29 34h1M28 35h1M27 36h2M28 38h1M33 38h1M28 39h2M32 39h2M35 39h1M29 40h5M36 40h1M29 41h3M34 41h1M25 42h1M28 42h3M35 42h2M24 43h3M28 43h1M30 43h1M35 43h1M25 44h2M29 44h1M31 44h1M34 44h1M38 45h2M36 46h2M31 47h1M34 47h1M36 47h2M40 47h1M31 48h5M37 48h2M41 48h1M32 49h4M32 50h1M34 50h1M36 50h1" />
<path stroke="#73b563" d="M30 34h1M27 35h1M32 36h1M27 37h1M33 37h1M30 39h2M37 40h1M27 42h1M29 43h1M36 43h1M24 44h1M27 44h1M30 44h1M35 44h1M31 45h2M37 45h1M40 46h1M42 46h1M41 47h1M42 48h1M36 49h1" />
<path stroke="#414141" d="M29 35h2M29 36h1M31 36h1M28 37h1M35 37h1M27 38h1M35 38h1M36 39h2M34 40h1M38 40h2M26 41h1M35 41h2M23 42h2M26 42h1M37 42h1M27 43h1M36 44h1M30 45h1M33 45h3M31 46h2M34 46h1M38 46h2M32 47h2M38 47h1M39 48h1M39 49h1M33 50h1M35 50h1" />
<path stroke="#cea531" d="M31 35h1M27 39h1M28 40h1M28 41h1M32 41h2M37 41h1M31 42h1M34 42h1M31 43h1M34 43h1M32 44h2" />
<path stroke="#429c5a" d="M34 38h1M35 40h1M24 41h1M23 43h1M25 45h1M41 45h1M30 46h1M33 46h1M39 47h1M43 47h1M40 49h1M42 49h1M31 50h1M33 51h1M35 51h1" />
</svg>