<svg xmlns="http://www.w3.org/2000/svg" viewBox="0 -0.5 68 56" shape-rendering="crispEdges">
<metadata>Made with Pixels to Svg https://codepen.io/shshaw/pen/XbxvNj</metadata>
<path stroke="#000000" d="M26 26h2M25 27h1M28 27h1M30 27h2M24 28h1M26 28h2M29 28h1M32 28h1M24 29h1M26 29h1M28 29h1M30 29h2M23 30h1M25 30h1M27 30h1M29 30h1M23 31h1M25 31h2M29 31h2M23 32h1M31 32h1M23 33h1M32 33h1M34 33h2M23 34h1M33 34h1M36 34h1M22 35h1M37 35h1M22 36h1M37 36h3M42 36h3M22 37h1M40 37h2M44 37h1M22 38h1M44 38h1M23 39h1M44 39h1M24 40h4M44 40h1M28 41h1M43 41h1M27 42h1M43 42h1M27 43h1M44 43h1M27 44h1M44 44h1M28 45h1M44 45h1M28 46h1M44 46h1M28 47h1M39 47h2M44 47h1M29 48h1M39 48h1M41 48h3M28 49h1M32 49h2M38 49h1M29 50h3M34 50h1M38 50h1M34 51h1M38 51h1M35 52h3" />
<path stroke="#ffc500" d="M26 27h2M25 28h1M30 28h2M25 29h1M29 29h1M24 30h1M28 30h1M24 31h1M27 31h1M24 32h1M26 32h1M26 33h1M25 34h1M25 35h1M28 35h1M35 42h1M30 43h1M35 43h1" />
<path stroke="#414141" d="M28 31h1M33 35h1M28 36h1M34 36h1M28 37h1M36 37h1M40 38h1M28 39h1M40 39h1M29 40h1M39 40h1M30 41h1M37 41h1M30 42h1M38 42h1M39 43h1M39 44h1M30 45h1M35 45h1M39 45h1M30 46h1M37 46h2M41 46h1M31 47h1M33 47h1M32 48h1" />
<path stroke="#6b944a" d="M25 32h1M30 32h1M24 33h1M29 34h1M27 35h1M30 35h1M34 37h1M29 38h1M35 38h1M35 39h1M41 39h1M35 40h1M42 40h1M35 41h1M38 41h1M34 42h1M32 43h2M29 45h1M35 46h2M34 47h1" />
<path stroke="#bdad10" d="M27 32h1M27 37h1" />
<path stroke="#94bd84" d="M28 32h1M27 33h1M26 34h1M28 34h1M32 34h1M25 36h1M30 36h1M43 37h1M23 38h1M43 38h1M25 39h1M43 39h1M43 40h1M39 41h1M31 42h1M42 43h2M41 44h3M40 45h4M39 46h2M42 46h2M29 47h1M38 47h1M43 47h1M31 48h1M38 48h1M31 49h1M34 49h1M37 49h1M35 50h1M37 50h1M37 51h1" />
<path stroke="#b5f784" d="M29 32h1M25 33h1M28 33h4M24 34h1M27 34h1M30 34h2M23 35h2M26 35h1M31 35h2M24 36h1M26 36h1M31 36h3M25 37h2M30 37h4M42 37h1M25 38h4M30 38h5M41 38h2M24 39h1M26 39h2M29 39h6M42 39h1M30 40h5M40 40h2M31 41h4M40 41h3M32 42h2M39 42h4M40 43h2M40 44h1M29 46h1M30 47h1M35 47h3M30 48h1M33 48h5M35 49h2M36 50h1" />
<path stroke="#ffffff" d="M34 34h2M29 35h1M36 35h1M27 36h1M29 36h1M36 36h1M29 37h1M38 37h2M39 38h1M39 39h1M38 40h1M28 42h1M28 43h1M38 43h1M28 44h2M38 44h1M34 45h1M36 45h3M31 46h1M33 46h2M32 47h1M29 49h1M35 51h1" />
<path stroke="#ffa5de" d="M34 35h2M35 36h1M37 37h1M38 38h1M38 39h1M29 41h1M37 42h1M37 43h1M37 44h1M31 45h1M32 46h1" />
<path stroke="#deffbd" d="M23 36h1M23 37h2M24 38h1" />
<path stroke="#ef739c" d="M35 37h1M37 38h1M36 39h2M36 40h2M29 42h1M36 42h1M29 43h1M36 43h1M31 44h3M35 44h2M32 45h2" />
<path stroke="#b5426b" d="M36 38h1M36 41h1M31 43h1M34 43h1M30 44h1M34 44h1" />
<path stroke="#bdbdbd" d="M28 40h1M41 47h2M30 49h1M36 51h1" />
</svg>