<svg xmlns="http://www.w3.org/2000/svg" viewBox="0 -0.5 68 56" shape-rendering="crispEdges">
<metadata>Made with Pixels to Svg https://codepen.io/shshaw/pen/XbxvNj</metadata>
<path stroke="#000000" d="M33 32h2M32 33h1M35 33h1M32 34h1M35 34h1M33 35h1M36 35h1M32 36h1M36 36h1M30 37h2M37 37h1M29 38h1M37 38h1M29 39h1M37 39h1M28 40h2M38 40h1M27 41h1M39 41h1M27 42h1M39 42h1M27 43h1M33 43h1M39 43h1M28 44h1M33 44h1M38 44h1M28 45h1M37 45h1M27 46h1M36 46h1M27 47h1M37 47h3M28 48h1M40 48h1M29 49h1M36 49h2M40 49h1M30 50h1M36 50h1M38 50h2M31 51h2M35 51h1M33 52h2" />
<path stroke="#ffffff" d="M33 33h2M33 34h2" />
<path stroke="#414141" d="M34 35h1M32 37h1M29 43h2M31 44h1M29 45h1M36 45h1M29 46h2M34 46h2M30 47h5M36 47h1M29 48h2M35 48h1M37 48h1M35 50h1" />
<path stroke="#637bef" d="M35 35h1M33 36h3M33 37h2M30 38h3M34 38h3M30 39h6M34 40h4M28 41h1M35 41h1M37 41h2M36 42h3M36 43h3M37 44h1M33 51h2" />
<path stroke="#525ade" d="M35 37h2M33 38h1M36 39h1M30 40h4M29 41h1M34 41h1M36 41h1M28 42h1M35 42h1M28 43h1M35 43h1M35 44h2" />
<path stroke="#ffcec5" d="M30 41h4M29 42h6M31 43h2M34 43h1M32 44h1M34 44h1M32 45h4M31 46h3M33 48h2M38 48h1M30 49h1M33 49h2M39 49h1M31 50h1M33 50h1" />
<path stroke="#ef8452" d="M29 44h1" />
<path stroke="#d65242" d="M30 44h1M30 45h2M31 48h2M31 49h2" />
<path stroke="#dea5a5" d="M28 46h1M29 47h1M35 47h1M36 48h1M39 48h1M35 49h1M38 49h1M32 50h1M34 50h1" />
<path stroke="#c58484" d="M28 47h1" />
</svg>