<svg xmlns="http://www.w3.org/2000/svg" viewBox="0 -0.5 68 56" shape-rendering="crispEdges">
<metadata>Made with Pixels to Svg https://codepen.io/shshaw/pen/XbxvNj</metadata>
<path stroke="#000000" d="M33 30h1M32 31h2M32 32h3M32 33h1M34 33h1M31 34h1M34 34h1M30 35h1M33 35h1M30 36h1M33 36h1M30 37h1M33 37h2M38 37h3M29 38h1M35 38h3M40 38h3M28 39h1M40 39h4M28 40h1M38 40h2M28 41h1M36 41h2M40 41h2M29 42h1M37 42h1M39 42h1M42 42h1M29 43h1M37 43h2M42 43h1M30 44h1M41 44h1M29 45h1M39 45h2M28 46h1M35 46h2M38 46h1M27 47h1M35 47h1M37 47h1M39 47h1M28 48h1M36 48h1M38 48h1M28 49h1M37 49h1M29 50h1M35 50h3M30 51h5" />
<path stroke="#4a4a4a" d="M33 33h1M31 35h1M39 38h1M30 39h1M30 40h1M34 40h1M33 41h1M34 42h1M30 43h2M32 44h2M36 44h2M35 45h2M30 46h1M30 47h1M32 47h1M32 48h1M29 49h1M31 50h2M34 50h1" />
<path stroke="#b4a483" d="M32 34h2M32 35h1M31 36h2M31 37h2M33 40h1M35 42h1M30 45h2M31 46h4M33 47h1" />
<path stroke="#7b7b73" d="M30 38h2M31 39h1M35 40h1M34 41h2M33 42h1M34 44h1" />
<path stroke="#ded59c" d="M32 38h3M38 38h1M29 39h1M32 39h8M31 40h2M36 40h2M30 41h3M30 42h3M36 42h1M32 43h2M36 43h1M31 44h1M32 45h3M29 46h1M28 47h2M31 47h1M34 47h1M29 48h3M33 48h3M30 49h7M30 50h1M33 50h1" />
<path stroke="#d58341" d="M29 40h1M29 41h1M34 43h2M35 44h1" />
<path stroke="#7b624a" d="M40 42h1M39 43h3M38 44h2M37 45h2" />
<path stroke="#5a4a41" d="M41 42h1M40 44h1M37 46h1M38 47h1M37 48h1" />
</svg>