<svg xmlns="http://www.w3.org/2000/svg" viewBox="0 -0.5 68 56" shape-rendering="crispEdges">
<metadata>Made with Pixels to Svg https://codepen.io/shshaw/pen/XbxvNj</metadata>
<path stroke="#000000" d="M37 31h2M35 32h2M39 32h2M30 33h3M34 33h1M41 33h1M43 33h2M28 34h2M33 34h1M38 34h2M42 34h1M45 34h1M26 35h2M37 35h1M40 35h2M45 35h1M25 36h1M38 36h2M42 36h3M24 37h1M29 37h1M40 37h2M24 38h1M28 38h1M30 38h2M42 38h1M25 39h1M27 39h1M30 39h1M43 39h1M25 40h1M27 40h1M29 40h1M43 40h1M25 41h1M27 41h1M29 41h1M44 41h1M24 42h1M28 42h1M44 42h1M24 43h1M44 43h1M23 44h1M44 44h1M23 45h1M44 45h1M23 46h1M43 46h1M24 47h1M35 47h1M43 47h1M24 48h1M35 48h1M40 48h3M25 49h1M39 49h1M26 50h3M31 50h1M39 50h1M29 51h2M32 51h2M37 51h2M34 52h3" />
<path stroke="#ff7b9c" d="M37 32h2M35 33h6M30 34h3M34 34h4M40 34h2M43 34h2M29 35h2M32 35h5M42 35h3M26 36h3M31 36h3M25 37h4M30 37h2M25 38h3M26 39h1M26 40h1M26 41h1M26 42h2M25 43h1M27 43h1M24 44h2M27 44h1M24 45h1M26 45h2M35 45h1M24 46h5M35 46h1M38 46h2M41 46h1M25 47h4M38 47h2M41 47h2M25 48h4M26 49h5M29 50h2" />
<path stroke="#8c5a84" d="M28 35h1M31 35h1M29 36h2M25 42h1M26 43h1M26 44h1M25 45h1M29 48h2M31 49h1" />
<path stroke="#414141" d="M34 36h4M32 37h2M28 43h1M28 44h1M41 44h1M28 45h1M37 45h1M41 45h1M29 46h1M34 46h1M37 46h1M40 46h1M29 47h1M37 47h1M40 47h1M38 48h2" />
<path stroke="#a56bef" d="M34 37h5M32 38h9M31 39h11M30 40h1M32 40h1M35 40h8M38 41h5M39 42h3M39 43h1M39 44h2M39 45h2" />
<path stroke="#9452de" d="M39 37h1M42 42h1M40 43h2M38 45h1" />
<path stroke="#7b42ce" d="M41 38h1M42 39h1M43 41h1M43 42h1M42 43h2M38 44h1M42 44h2M42 45h2M42 46h1" />
<path stroke="#ffbdbd" d="M31 40h1M33 40h2M30 41h5M36 41h1M30 42h8M29 43h9M29 44h9M30 45h5M36 45h1M30 46h4M36 46h1M31 47h4M36 47h1M31 48h4M36 48h1M32 49h6M33 50h3" />
<path stroke="#ef9494" d="M35 41h1M37 41h1M29 42h1M38 42h1M38 43h1M29 45h1M30 47h1M37 48h1M38 49h1M32 50h1M36 50h3M34 51h3" />
</svg>