<svg xmlns="http://www.w3.org/2000/svg" viewBox="0 -0.5 68 56" shape-rendering="crispEdges">
<metadata>Made with Pixels to Svg https://codepen.io/shshaw/pen/XbxvNj</metadata>
<path stroke="#000000" d="M36 30h3M34 31h2M39 31h2M33 32h1M41 32h1M32 33h1M39 33h2M32 34h1M37 34h2M30 35h2M34 35h3M29 36h1M37 36h1M28 37h1M38 37h1M28 38h1M38 38h1M27 39h1M39 39h1M27 40h1M39 40h1M27 41h1M39 41h1M26 42h1M32 42h2M39 42h2M27 43h2M41 43h1M30 44h1M41 44h1M31 45h1M41 45h1M30 46h1M39 46h2M29 47h1M38 47h1M29 48h1M39 48h1M30 49h1M39 49h1M29 50h1M32 50h2M38 50h1M30 51h2M35 51h2M39 51h1M37 52h2" />
<path stroke="#5abd6a" d="M36 31h3M34 32h2M39 32h2M33 33h1M36 33h3" />
<path stroke="#529462" d="M36 32h3M34 33h2M33 34h1M32 35h1" />
<path stroke="#414141" d="M34 34h3M33 35h1M31 36h2M34 40h2M28 41h1M33 41h1M38 42h1M29 43h1M37 43h1M36 44h2M32 45h3M38 45h1M33 48h1M33 49h1M34 50h1M34 51h1" />
<path stroke="#bd8b7b" d="M30 36h1M33 36h2M36 36h1M29 37h5M35 37h2M29 38h5M35 38h3M30 39h2M36 39h2M39 43h1M38 44h3M35 45h2M39 45h1M33 46h2M37 46h2" />
<path stroke="#946252" d="M35 36h1M34 37h1M34 38h1M38 43h1M40 43h1M37 45h1M40 45h1M32 46h1M35 46h2M33 47h2M37 47h1M31 50h1M37 50h1" />
<path stroke="#ac7362" d="M37 37h1M38 39h1M37 40h2M37 41h2M37 42h1M30 43h1M36 43h1M31 44h2M35 44h1M30 50h1M37 51h2" />
<path stroke="#d5c583" d="M28 39h1M28 40h1M36 41h1M29 42h2M36 42h1M31 43h5M33 44h2M35 47h2M34 49h1M38 49h1M35 50h2" />
<path stroke="#bda47b" d="M29 39h1M32 39h1M29 41h1M32 41h1M35 41h1M35 42h1M31 46h1M31 47h2M30 48h1M34 48h1M38 48h1M31 49h2M35 49h3" />
<path stroke="#f6e6ac" d="M33 39h3M29 40h5M36 40h1M30 41h2M27 42h2M31 42h1M35 48h3" />
<path stroke="#ffffff" d="M34 41h1M34 42h1" />
<path stroke="#9c835a" d="M30 47h1M31 48h2" />
</svg>