<svg xmlns="http://www.w3.org/2000/svg" viewBox="0 -0.5 68 56" shape-rendering="crispEdges">
<metadata>Made with Pixels to Svg https://codepen.io/shshaw/pen/XbxvNj</metadata>
<path stroke="#000000" d="M35 29h1M34 30h1M36 30h1M33 31h1M37 31h1M33 32h1M37 32h1M34 33h1M36 33h1M32 34h2M36 34h1M31 35h1M37 35h1M26 36h2M30 36h1M38 36h1M25 37h1M28 37h1M30 37h1M39 37h1M24 38h1M29 38h2M39 38h1M24 39h1M40 39h2M24 40h1M41 40h3M25 41h1M44 41h1M25 42h1M45 42h1M24 43h2M45 43h1M23 44h1M44 44h1M23 45h1M44 45h1M24 46h1M43 46h1M25 47h2M43 47h2M27 48h1M45 48h1M27 49h1M45 49h1M28 50h4M43 50h2M32 51h2M38 51h5M34 52h4" />
<path stroke="#e6626a" d="M35 30h1M34 31h3M34 32h1M36 32h1M35 33h1M35 34h1" />
<path stroke="#b45a62" d="M35 32h1" />
<path stroke="#f6bd7b" d="M34 34h1M33 35h4M31 36h3M35 36h3M26 37h2M32 37h7M25 38h1M28 38h1M32 38h1M34 38h1M36 38h1M38 38h1M25 39h3M29 39h1M32 39h1M34 39h1M36 39h3M25 40h1M27 40h1M29 40h1M31 40h2M34 40h1M36 40h3M40 40h1M27 41h1M29 41h2M33 41h5M39 41h2M42 41h2M26 42h2M29 42h4M38 42h2M41 42h1M44 42h1M27 43h1M29 43h2M33 43h7M41 43h4M24 44h2M27 44h1M29 44h1M34 44h3M38 44h1M41 44h1M43 44h1M24 45h6M35 45h4M40 45h2M43 45h1M25 46h5M35 46h3M39 46h4M27 47h4M35 47h8M28 48h8M37 48h8M29 49h10M40 49h5M33 50h10M35 51h2" />
<path stroke="#cd8b5a" d="M32 35h1M34 36h1M26 38h2M37 38h1M42 42h2M37 44h1M34 45h1M31 47h1M36 48h1M28 49h1M39 49h1M32 50h1M34 51h1M37 51h1" />
<path stroke="#735239" d="M31 37h1M33 38h1M35 38h1M33 39h1M26 40h1M26 41h1M31 43h2M40 43h1M30 44h4M40 44h1M42 44h1M30 45h4M42 45h1M30 46h5M33 47h2" />
<path stroke="#ffffff" d="M31 38h1M35 39h1" />
<path stroke="#6a624a" d="M28 39h1M30 39h1M39 39h1M28 40h1M30 40h1M39 40h1M28 41h1M31 41h2M38 41h1M41 41h1M28 42h1M33 42h5M40 42h1M26 43h1M28 43h1M26 44h1M28 44h1M39 44h1M39 45h1M38 46h1" />
<path stroke="#94624a" d="M31 39h1M33 40h1M35 40h1M32 47h1" />
</svg>