<svg xmlns="http://www.w3.org/2000/svg" viewBox="0 -0.5 68 56" shape-rendering="crispEdges">
<metadata>Made with Pixels to Svg https://codepen.io/shshaw/pen/XbxvNj</metadata>
<path stroke="#000000" d="M36 33h2M34 34h2M37 34h1M31 35h3M37 35h1M30 36h1M37 36h1M29 37h1M38 37h1M26 38h2M29 38h1M38 38h1M25 39h1M28 39h1M38 39h1M25 40h1M39 40h1M25 41h1M39 41h2M25 42h1M28 42h1M41 42h1M26 43h1M32 43h1M41 43h1M27 44h1M41 44h1M43 44h1M28 45h1M40 45h1M42 45h1M44 45h1M29 46h1M38 46h2M41 46h1M44 46h1M29 47h1M38 47h1M41 47h1M44 47h1M30 48h2M39 48h2M42 48h2M32 49h1M41 49h1M31 50h1M34 50h1M38 50h3M32 51h2M35 51h1M38 51h1M36 52h2" />
<path stroke="#f76352" d="M36 34h1M35 35h2M31 36h2M35 36h2M30 37h4M35 37h2M30 38h3M34 38h3M26 39h2M31 39h5M27 40h1M29 40h1M32 40h3M28 41h4M35 41h3M30 42h2M33 42h4M38 42h3M30 43h2M35 43h1M37 43h1M40 43h1M40 44h1M39 45h1M43 45h1M42 46h2M43 47h1" />
<path stroke="#ce4a4a" d="M34 35h1M33 36h1M37 37h1M37 38h1M30 39h1M36 39h1M37 40h2M34 41h1M32 42h1M27 43h1M34 43h1M35 44h1M36 45h1M37 46h1M42 47h1M41 48h1M33 49h3M40 49h1M32 50h1M37 50h1M36 51h2" />
<path stroke="#943a3a" d="M34 36h1M34 37h1M33 38h1M29 39h1M37 39h1M28 40h1M30 40h2M35 40h2M27 41h1M32 41h2M38 41h1M27 42h1M37 42h1M36 43h1M36 44h1M36 49h1M39 49h1M33 50h1M36 50h1" />
<path stroke="#ff8c29" d="M26 40h1M26 41h1M39 44h1" />
<path stroke="#414141" d="M26 42h1M28 43h1M32 44h1M30 46h1M35 46h2M31 47h3M36 48h1M37 49h1M35 50h1" />
<path stroke="#bdbdb5" d="M29 42h1M33 43h1" />
<path stroke="#ffffff" d="M29 43h1M33 44h1" />
<path stroke="#ffbd31" d="M38 43h2M37 44h2M37 45h2" />
<path stroke="#ffde8c" d="M28 44h1M30 44h2M34 44h1M29 45h6M32 46h2M38 49h1" />
<path stroke="#c5a55a" d="M29 44h1M35 45h1M31 46h1M34 46h1M35 47h2M32 48h1" />
<path stroke="#e6c56b" d="M30 47h1M33 48h2M37 48h2" />
<path stroke="#8c7331" d="M34 47h1M37 47h1M35 48h1" />
</svg>