<svg xmlns="http://www.w3.org/2000/svg" viewBox="0 -0.5 68 56" shape-rendering="crispEdges">
<metadata>Made with Pixels to Svg https://codepen.io/shshaw/pen/XbxvNj</metadata>
<path stroke="#000000" d="M34 32h2M33 33h1M35 33h1M24 34h2M33 34h1M35 34h1M23 35h1M25 35h1M31 35h2M36 35h1M22 36h1M30 36h1M36 36h1M40 36h3M25 37h1M30 37h1M35 37h1M40 37h1M43 37h1M23 38h1M26 38h1M28 38h2M35 38h2M41 38h1M43 38h1M23 39h1M27 39h1M37 39h1M39 39h2M43 39h1M22 40h1M38 40h1M43 40h1M22 41h1M23 42h1M41 42h1M24 43h2M41 43h1M26 44h1M41 44h1M26 45h1M39 45h2M27 46h1M37 46h2M28 47h2M36 47h1M30 48h2M34 48h2M37 48h2M29 49h1M35 49h2M39 49h1M29 50h1M37 50h2M40 50h1M30 51h1M35 51h2M39 51h2M31 52h4" />
<path stroke="#414141" d="M34 33h1M34 34h1M33 35h3M24 36h1M31 36h5M31 37h4M42 37h1M30 38h5M30 39h5M26 40h1M26 41h2M26 42h1M31 42h2M36 42h1M26 43h1M30 43h4M35 43h1M27 44h1M30 44h1M32 44h2M35 44h1M30 45h1M32 45h2M36 45h1M30 46h4M31 47h2M30 49h5M37 49h2M30 50h7M39 50h1M31 51h4" />
<path stroke="#b59473" d="M24 35h1M23 36h1M23 37h2M41 37h1M24 38h1M42 38h1M41 39h2M27 40h1M37 40h1M39 40h4M28 41h2M35 41h3M39 41h3M28 42h3M33 42h3M39 42h2M28 43h2M34 43h1M28 44h2M34 44h1M29 45h1M34 45h1" />
<path stroke="#6bad52" d="M26 35h1M25 36h1M21 37h2M39 37h1M40 38h1M42 41h2" />
<path stroke="#42733a" d="M27 35h1M21 36h1M26 36h1M20 37h1M38 37h1M21 38h2M39 38h1M44 41h1M42 42h2" />
<path stroke="#947352" d="M25 38h1M24 39h3M28 39h2M35 39h2M23 40h3M30 40h5M23 41h2M24 42h2M38 42h1M36 43h5M36 44h1M39 44h2M27 45h2M35 45h1M37 45h2M28 46h2M34 46h3M30 47h1M33 47h3M32 48h2" />
<path stroke="#735a42" d="M28 40h2M35 40h2M25 41h1M30 41h5M38 41h1M37 42h1M37 44h2" />
<path stroke="#ff8ca5" d="M27 42h1M27 43h1M31 44h1M31 45h1" />
</svg>