<svg xmlns="http://www.w3.org/2000/svg" viewBox="0 -0.5 68 56" shape-rendering="crispEdges">
<metadata>Made with Pixels to Svg https://codepen.io/shshaw/pen/XbxvNj</metadata>
<path stroke="#000000" d="M30 31h3M28 32h2M33 32h2M27 33h1M35 33h1M43 33h2M26 34h1M36 34h1M42 34h1M45 34h1M26 35h1M36 35h1M41 35h1M46 35h1M26 36h1M36 36h1M40 36h1M46 36h1M25 37h1M36 37h4M45 37h1M24 38h1M44 38h1M23 39h1M43 39h1M24 40h2M37 40h2M42 40h1M26 41h1M33 41h1M37 41h1M39 41h1M43 41h1M26 42h1M32 42h1M38 42h1M40 42h1M43 42h1M27 43h1M39 43h1M42 43h1M26 44h1M41 44h1M27 45h3M42 45h1M30 46h1M41 46h1M30 47h1M40 47h1M31 48h1M40 48h1M32 49h3M39 49h1M35 50h2M38 50h1M37 51h1" />
<path stroke="#b4525a" d="M30 32h3M33 33h1M34 34h1M34 35h1M34 36h2M27 37h1M31 37h4M28 38h3M31 39h1" />
<path stroke="#e66a4a" d="M28 33h5M34 33h1M27 34h1M31 34h3M35 34h1M32 35h2M35 35h1M27 36h3M32 36h2M28 37h3M35 37h1M31 38h4" />
<path stroke="#ffffff" d="M28 34h2M27 35h1M30 35h1M31 36h1M25 38h3M24 39h7M26 40h3M32 41h1" />
<path stroke="#ffbdbd" d="M30 34h1M28 35h2M31 35h1M30 36h1" />
<path stroke="#f6d531" d="M43 34h1M42 35h1M41 36h1M36 38h1M35 39h3M33 40h3M30 41h1M34 41h3M29 42h3M34 42h4M28 43h5M35 43h4M30 44h3M35 44h3M32 45h2M35 45h5M34 46h2M37 46h2M36 47h4M34 48h5M35 49h4M37 50h1" />
<path stroke="#c5a429" d="M44 34h1M43 35h3M42 36h4M40 37h5M41 38h3M40 39h3M32 40h1M39 40h3M29 41h1M31 41h1M40 41h3M27 42h2M41 42h2M40 43h2M27 44h1M29 44h1M30 45h2M31 46h2M31 47h3M32 48h2" />
<path stroke="#414141" d="M26 37h1M35 38h1M37 38h4M32 39h3M38 39h2M29 40h3M27 41h2M33 42h1M28 44h1M39 44h1M34 45h1M40 45h1M33 46h1M36 46h1M40 46h1M34 47h2M39 48h1" />
<path stroke="#9c8341" d="M36 40h1" />
<path stroke="#f66252" d="M33 43h2M33 44h2" />
<path stroke="#a46a31" d="M38 44h1M40 44h1M41 45h1M39 46h1" />
</svg>