<svg xmlns="http://www.w3.org/2000/svg" viewBox="0 -0.5 68 56" shape-rendering="crispEdges">
<metadata>Made with Pixels to Svg https://codepen.io/shshaw/pen/XbxvNj</metadata>
<path stroke="#000000" d="M31 34h2M30 35h1M33 35h1M29 36h1M34 36h1M29 37h1M34 37h1M29 38h1M33 38h1M35 38h1M28 39h1M32 39h3M36 39h1M29 40h1M36 40h1M27 41h2M35 41h1M26 42h1M36 42h1M26 43h1M37 43h1M39 43h1M26 44h2M38 44h1M40 44h1M27 45h1M40 45h1M27 46h1M39 46h1M27 47h1M38 47h1M28 48h1M37 48h1M29 49h2M36 49h1M31 50h5" />
<path stroke="#8d6336" d="M31 35h2M30 36h1M33 36h1M30 37h1M33 37h1M31 38h1M29 39h1M31 39h1M35 39h1M30 40h1M32 40h1M34 40h1M30 41h4M27 42h1M30 42h2M33 42h2M28 43h4M33 43h2M36 43h1M31 44h3M35 44h2M29 45h2M32 45h7M30 46h3M35 46h1M37 46h2" />
<path stroke="#524239" d="M31 36h2M31 37h1M32 38h1M33 40h1M28 42h1M35 42h1M28 45h1M33 46h1M30 47h2" />
<path stroke="#6c5238" d="M32 37h1M30 38h1M35 40h1M34 41h1M27 43h1M35 43h1M28 44h1M30 44h1M34 44h1M37 44h1M39 44h1M39 45h1M34 46h1" />
<path stroke="#414141" d="M30 39h1M31 40h1M36 46h1M35 47h1M37 47h1" />
<path stroke="#ffa600" d="M29 41h1M32 42h1M29 46h1M29 47h1M32 48h2" />
<path stroke="#ffbe5a" d="M29 42h1M32 43h1M32 47h2" />
<path stroke="#bdbdbd" d="M29 44h1M31 45h1" />
<path stroke="#c76b4e" d="M28 46h1M28 47h1M34 47h1M36 47h1M29 48h3M35 48h1M31 49h1M33 49h2" />
<path stroke="#f18c5e" d="M34 48h1M36 48h1M32 49h1M35 49h1" />
</svg>