<svg xmlns="http://www.w3.org/2000/svg" viewBox="0 -0.5 68 56" shape-rendering="crispEdges">
<metadata>Made with Pixels to Svg https://codepen.io/shshaw/pen/XbxvNj</metadata>
<path stroke="#000000" d="M28 33h5M26 34h2M33 34h2M25 35h1M35 35h1M24 36h1M26 36h1M36 36h1M24 37h1M36 37h1M24 38h1M31 38h1M36 38h1M24 39h1M37 39h1M25 40h1M37 40h1M26 41h1M37 41h1M27 42h1M38 42h1M26 43h1M38 43h1M40 43h4M25 44h1M39 44h1M42 44h1M44 44h1M25 45h1M40 45h1M44 45h1M26 46h1M39 46h1M26 47h1M43 47h1M26 48h1M41 48h2M27 49h4M38 49h3M31 50h3M38 50h1M33 51h1M37 51h1M34 52h3" />
<path stroke="#94ceff" d="M28 34h4M26 35h2M30 35h4M25 36h1M27 36h1M30 36h5M25 37h2M28 37h8M26 38h2M29 38h2M32 38h4M28 39h5M34 39h2M26 40h2M33 40h2M28 41h5M27 43h1M26 44h1M26 45h1M34 45h1M33 46h1M32 47h2" />
<path stroke="#6bade6" d="M32 34h1M34 35h1M27 37h1M28 38h1M25 39h1M35 40h1M27 41h1M33 41h4M28 42h9M29 43h8M27 44h1M29 44h4M34 44h1M36 44h1M43 44h1M28 45h4M33 45h1M36 45h2M41 45h3M28 46h3M32 46h1M35 46h3M40 46h4M29 47h2M35 47h3M39 47h4M27 48h2M30 48h1M34 48h4M39 48h1M31 49h5M36 50h2M34 51h3" />
<path stroke="#addeff" d="M28 35h2M28 36h2" />
<path stroke="#5273a5" d="M35 36h1M25 38h1M33 39h1M32 40h1M28 43h1M28 44h1M33 44h1M35 44h1M32 45h1M35 45h1M34 46h1M38 46h1M27 47h1M31 48h1M40 48h1M36 49h1M35 50h1" />
<path stroke="#414141" d="M26 39h2M28 40h4M27 45h1M27 46h1M31 46h1M44 46h1M28 47h1M31 47h1M34 47h1M38 47h1M29 48h1M32 48h2M38 48h1M37 49h1M34 50h1" />
<path stroke="#6b6bce" d="M36 39h1M36 40h1M37 42h1M37 43h1M37 44h2M38 45h1" />
<path stroke="#3a525a" d="M40 44h2M39 45h1" />
</svg>