<svg xmlns="http://www.w3.org/2000/svg" viewBox="0 -0.5 68 56" shape-rendering="crispEdges">
<metadata>Made with Pixels to Svg https://codepen.io/shshaw/pen/XbxvNj</metadata>
<path stroke="#000000" d="M34 28h2M33 29h1M36 29h1M31 30h2M37 30h1M30 31h1M32 31h1M38 31h1M24 32h2M30 32h1M39 32h1M23 33h1M26 33h3M31 33h1M39 33h1M22 34h2M29 34h2M40 34h1M42 34h1M22 35h1M40 35h2M43 35h1M22 36h1M39 36h1M41 36h1M44 36h1M46 36h2M22 37h1M40 37h2M45 37h1M47 37h1M19 38h3M47 38h1M19 39h1M21 39h1M40 39h1M43 39h1M48 39h1M20 40h1M39 40h1M41 40h1M43 40h3M47 40h2M19 41h1M39 41h1M42 41h1M45 41h1M47 41h1M20 42h1M40 42h1M46 42h1M20 43h1M41 43h1M21 44h1M33 44h1M35 44h3M41 44h1M21 45h1M26 45h1M32 45h1M34 45h2M38 45h1M42 45h1M20 46h1M24 46h2M27 46h1M32 46h1M37 46h1M42 46h1M19 47h1M23 47h1M27 47h1M31 47h1M37 47h1M41 47h1M19 48h2M23 48h1M26 48h1M31 48h1M38 48h3M20 49h3M26 49h1M30 49h1M25 50h1M30 50h1M25 51h1M29 51h2M26 52h3" />
<path stroke="#ce8cde" d="M34 29h2M33 30h4M31 31h1M34 31h3M31 32h2M35 32h1M37 32h2M34 33h2M37 33h1M34 34h1M38 34h2M33 35h1M36 35h1M38 35h2M34 36h4M33 37h2" />
<path stroke="#9c5aad" d="M33 31h1M34 32h1M32 33h1M31 34h1M33 34h1M35 34h1M34 35h1M33 36h1M32 37h1M35 37h1M31 38h2" />
<path stroke="#414141" d="M37 31h1M33 32h1M36 32h1M33 33h1M36 33h1M38 33h1M26 34h1M32 34h1M36 34h2M24 35h3M29 35h4M35 35h1M37 35h1M23 36h1M27 36h2M32 36h1M38 36h1M31 37h1M36 37h2M43 37h1M23 38h1M27 38h1M29 38h2M33 38h3M38 38h1M41 38h1M43 38h2M26 39h1M31 39h2M39 39h1M22 40h1M25 40h1M31 40h1M24 41h1M27 41h3M31 41h1M29 42h1M31 42h1M22 43h1M28 43h1M30 43h1M36 43h1M22 44h3M26 44h1M28 44h2M24 45h1M27 45h2M31 46h1M38 47h1M26 51h1" />
<path stroke="#ffffff" d="M24 33h2M24 34h1M27 34h2M27 35h1M38 37h2M39 38h1M29 39h1M26 40h1M28 40h3M26 41h1M30 41h1M21 43h1M25 45h1M39 46h1M41 46h1M20 47h1M39 47h1M22 48h1M27 50h1M29 50h1M27 51h1" />
<path stroke="#bdbdbd" d="M25 34h1M28 35h1M30 39h1M21 42h1M30 42h1M23 43h1M29 43h1M25 44h1M39 45h1M41 45h1M38 46h1M40 46h1M21 47h1M40 47h1M21 48h1M27 49h2M26 50h1M28 50h1M28 51h1" />
<path stroke="#7b7b7b" d="M23 35h1M24 36h3M24 37h7M22 38h1M24 38h3M37 38h1M23 39h3M33 39h3M38 39h1M23 40h2M32 40h2M36 40h1M22 41h2M33 41h1M38 41h1M34 42h1M36 42h1M24 43h1M39 43h1M30 44h1M29 45h1M29 46h1M30 47h1" />
<path stroke="#73d6ff" d="M42 35h1M43 36h1M44 37h1M46 37h1M45 38h2M20 39h1M41 39h1M44 39h4M42 40h1M46 40h1M20 41h1M46 41h1M24 42h5M26 43h1M27 44h1" />
<path stroke="#9c9c9c" d="M29 36h3M23 37h1M22 39h1" />
<path stroke="#4aa5c5" d="M42 36h1M42 37h1M40 38h1M42 38h1M42 39h1M21 40h1M21 41h1M22 42h2M25 43h1M27 43h1" />
<path stroke="#ce8c3a" d="M28 38h1M28 39h1M32 44h1M40 44h1M22 45h2M40 45h1M23 46h1M27 48h1" />
<path stroke="#ffc529" d="M36 38h1M27 39h1M36 39h2M27 40h1M34 40h2M37 40h2M32 41h1M34 41h4M32 42h2M35 42h1M37 42h3M31 43h5M37 43h2M40 43h1M31 44h1M34 44h1M38 44h2M30 45h2M21 46h2M28 46h1M30 46h1M22 47h1M28 47h2M28 48h3M29 49h1" />
<path stroke="#a52931" d="M25 41h1" />
</svg>