<svg xmlns="http://www.w3.org/2000/svg" viewBox="0 -0.5 68 56" shape-rendering="crispEdges">
<metadata>Made with Pixels to Svg https://codepen.io/shshaw/pen/XbxvNj</metadata>
<path stroke="#000000" d="M23 27h1M22 28h1M24 28h1M22 29h1M24 29h1M34 29h3M22 30h1M25 30h1M33 30h1M36 30h1M22 31h1M25 31h1M32 31h1M35 31h1M23 32h1M25 32h1M30 32h2M34 32h1M39 32h1M23 33h1M26 33h1M29 33h1M33 33h1M38 33h1M40 33h1M22 34h2M26 34h1M34 34h2M38 34h1M40 34h1M43 34h2M21 35h1M36 35h2M40 35h1M42 35h1M45 35h1M21 36h1M41 36h1M46 36h1M20 37h1M40 37h1M47 37h1M20 38h1M25 38h1M33 38h2M47 38h1M19 39h1M32 39h1M35 39h1M46 39h1M19 40h1M32 40h1M35 40h1M46 40h1M19 41h1M30 41h1M33 41h2M46 41h1M20 42h2M28 42h2M31 42h1M46 42h1M22 43h6M31 43h2M45 43h1M30 44h1M45 44h1M29 45h1M35 45h3M46 45h1M29 46h1M34 46h1M37 46h1M46 46h1M29 47h1M35 47h2M45 47h1M30 48h1M46 48h1M30 49h1M40 49h3M47 49h1M31 50h2M38 50h2M42 50h1M48 50h1M33 51h5M42 51h1M49 51h1M43 52h3M47 52h3M46 53h2" />
<path stroke="#529c6b" d="M23 28h1M23 29h1M23 30h2M23 31h2M24 32h1M24 33h2M30 33h1M24 34h1M22 35h1M25 35h2M23 36h2M28 36h2M31 36h2M43 36h2M28 37h6M42 37h4M22 38h1M29 38h2M32 38h1M35 38h2M41 38h1M46 38h1M21 39h1M29 39h1M37 39h2M24 40h1M40 40h1M21 41h1M29 41h1M39 41h2M43 41h2M27 42h1M38 42h3M39 43h3M39 44h1M42 44h1M44 45h2M32 46h2M38 46h1M41 46h1M31 47h4M37 47h1M41 47h1M43 47h1M31 48h1M34 48h4M42 48h1M44 48h1M32 49h2M35 49h1M38 49h1M43 49h2M33 50h2M36 50h2M44 50h2M45 51h1M47 51h1M46 52h1" />
<path stroke="#c5ffd6" d="M34 30h1M33 31h1M43 40h1" />
<path stroke="#84d694" d="M35 30h1M34 31h1M32 32h2M31 33h2M29 34h2M23 35h1M28 35h2M31 35h1M34 35h2M37 36h2M22 37h1M26 37h2M39 37h1M21 38h1M23 38h1M20 39h1M22 39h1M28 39h1M30 39h1M40 39h1M43 39h2M20 40h4M30 40h2M36 40h1M39 40h1M42 40h1M44 40h2M20 41h1M31 41h2M37 41h2M42 41h1M45 41h1M32 42h2M43 42h2M33 43h1M44 43h1M44 44h1M41 45h1M43 46h3M42 47h1" />
<path stroke="#b55263" d="M39 33h1M39 34h1M39 35h1M40 36h1M43 51h1" />
<path stroke="#414141" d="M25 34h1M28 34h1M31 34h2M24 35h1M27 35h1M38 35h1M39 36h1M21 37h1M41 37h1M24 38h1M27 38h2M40 38h1M42 38h4M23 39h2M26 39h2M31 39h1M36 39h1M39 39h1M41 39h1M25 40h2M29 40h1M37 40h2M41 40h1M22 41h2M27 41h2M35 41h2M41 41h1M24 42h3M34 42h1M37 42h1M41 42h1M34 43h1M38 43h1M42 43h2M33 44h1M38 44h1M40 44h2M43 44h1M38 45h2M42 45h2M39 46h2M38 47h1M44 47h1M39 48h2M43 48h1M31 49h1M43 50h1M44 51h1" />
<path stroke="#c59c3a" d="M33 34h1M22 36h1M25 39h1M38 48h1M39 49h1M35 50h1" />
<path stroke="#4a735a" d="M30 35h1M32 35h1M26 36h2M30 36h1M33 36h1M25 37h1M34 37h3M31 38h1M37 38h3M42 39h1M45 39h1M35 42h2M42 42h1M45 42h1M35 43h3M31 44h2M34 44h4M30 45h5M30 46h2M42 46h1M30 47h1M40 47h1M45 48h1M45 49h1M46 50h1M46 51h1" />
<path stroke="#ffce3a" d="M33 35h1M25 36h1M34 36h3M23 37h2M37 37h2M26 38h1M32 48h2M34 49h1M36 49h2" />
<path stroke="#e66b73" d="M43 35h2M42 36h1M45 36h1M46 37h1M27 40h2M24 41h3M23 42h1M46 49h1M47 50h1M48 51h1" />
<path stroke="#ffffff" d="M22 42h1M40 45h1M41 48h1" />
<path stroke="#d6d6d6" d="M39 47h1" />
</svg>