<svg xmlns="http://www.w3.org/2000/svg" viewBox="0 -0.5 68 56" shape-rendering="crispEdges">
<metadata>Made with Pixels to Svg https://codepen.io/shshaw/pen/XbxvNj</metadata>
<path stroke="#000000" d="M28 30h2M27 31h1M30 31h1M26 32h1M30 32h5M41 32h2M26 33h1M35 33h1M40 33h1M43 33h1M25 34h1M36 34h1M40 34h1M44 34h1M24 35h1M36 35h1M40 35h1M44 35h1M24 36h1M37 36h1M39 36h1M45 36h1M24 37h1M38 37h1M45 37h1M25 38h1M46 38h1M24 39h1M46 39h1M24 40h1M46 40h1M23 41h1M39 41h1M45 41h1M22 42h2M27 42h1M40 42h1M44 42h1M21 43h1M26 43h1M28 43h1M39 43h1M41 43h1M45 43h1M20 44h1M26 44h1M29 44h1M38 44h1M41 44h1M45 44h1M20 45h1M25 45h1M28 45h1M37 45h1M40 45h1M44 45h1M20 46h1M25 46h1M28 46h1M37 46h1M39 46h1M45 46h1M21 47h1M24 47h1M28 47h1M37 47h1M39 47h1M45 47h1M22 48h2M29 48h1M38 48h1M44 48h1M30 49h3M44 49h1M32 50h1M38 50h2M43 50h1M33 51h1M37 51h1M40 51h3M34 52h3" />
<path stroke="#f78452" d="M28 31h1M27 32h1M29 32h1M27 33h1M29 33h1M41 33h2M26 34h2M42 34h2M30 35h1M32 35h1M41 35h1M43 35h1M31 36h1M40 36h3M30 37h1M32 37h1M41 37h2M39 38h2M39 39h3M39 40h3M34 41h2M40 41h1M33 42h3M34 43h1" />
<path stroke="#c56342" d="M29 31h1M28 32h1M28 33h1M25 35h1M28 35h1M42 35h1M25 36h1M27 36h2M44 36h1M26 37h2M39 37h2M44 37h1M26 38h1M41 38h1M43 38h3M43 39h3M43 40h3M42 41h1M44 41h1M41 42h3M30 45h2M32 46h1" />
<path stroke="#414141" d="M30 33h1M29 34h1M29 35h1M29 36h1M28 37h1M27 38h1M38 38h1M26 39h2M38 39h1M25 40h2M38 40h1M26 41h1M24 42h1M39 42h1M25 43h1M29 43h1M29 45h1M30 46h2M35 46h2M32 47h3M33 48h1M38 49h1" />
<path stroke="#e6ce9c" d="M31 33h2M30 34h4M31 35h1M33 35h1M30 36h1M32 36h2M29 37h1M31 37h1M33 37h2M28 38h8M29 39h7M27 40h2M31 40h3M27 41h3M28 42h2M31 42h1M31 43h2M42 43h2M32 44h1M41 45h3M40 46h3M35 47h2M42 47h1M34 48h4M33 49h4M33 50h3" />
<path stroke="#94734a" d="M33 33h1M34 34h1M34 35h1M34 36h1M35 37h1M36 38h1M28 39h1M36 39h2M29 40h2M34 40h3M24 41h1M31 41h3M36 41h1M25 42h2M32 42h1M36 42h1M23 43h1M33 43h1M35 43h1M22 44h1M30 44h2M34 44h2M42 44h2M21 45h3M32 45h1M35 45h1M21 46h4M43 46h1M22 47h2M40 47h2M43 47h1M32 48h1M42 48h1M37 49h1M43 49h1M36 50h1" />
<path stroke="#bd9c73" d="M34 33h1M35 34h1M35 35h1M35 36h2M36 37h2M37 38h1M25 39h1M37 40h1M25 41h1M30 41h1M37 41h2M30 42h1M37 42h2M22 43h1M24 43h1M30 43h1M36 43h3M44 43h1M21 44h1M23 44h3M33 44h1M36 44h2M44 44h1M24 45h1M33 45h2M36 45h1M29 46h1M33 46h2M44 46h1M29 47h3M44 47h1M30 48h2M39 48h3M43 48h1M39 49h4M37 50h1M40 50h3M34 51h3" />
<path stroke="#9c5231" d="M28 34h1M41 34h1M26 35h2M26 36h1M43 36h1M25 37h1M43 37h1M42 38h1M42 39h1M42 40h1M41 41h1M43 41h1" />
</svg>