<svg xmlns="http://www.w3.org/2000/svg" viewBox="0 -0.5 68 56" shape-rendering="crispEdges">
<metadata>Made with Pixels to Svg https://codepen.io/shshaw/pen/XbxvNj</metadata>
<path stroke="#000000" d="M36 28h3M19 29h2M35 29h1M39 29h3M19 30h1M21 30h1M33 30h2M36 30h1M42 30h3M19 31h1M22 31h1M32 31h1M34 31h1M45 31h2M17 32h2M23 32h5M31 32h1M34 32h1M38 32h1M47 32h1M16 33h1M28 33h2M33 33h1M38 33h1M48 33h1M17 34h4M33 34h2M39 34h1M49 34h1M21 35h1M35 35h2M39 35h1M50 35h1M20 36h1M37 36h1M39 36h1M50 36h1M20 37h1M38 37h1M50 37h1M19 38h1M24 38h1M49 38h1M18 39h1M47 39h2M19 40h1M44 40h3M20 41h2M43 41h1M22 42h4M44 42h2M26 43h1M46 43h3M25 44h1M49 44h1M24 45h1M49 45h1M23 46h1M47 46h2M23 47h1M40 47h2M46 47h1M22 48h1M26 48h2M39 48h1M42 48h1M46 48h1M23 49h3M28 49h5M40 49h1M43 49h3M33 50h3M40 50h1M36 51h1M40 51h1M37 52h3" />
<path stroke="#f66a6a" d="M36 29h3M39 30h3M42 31h3M45 32h1M47 33h1M27 35h2M25 36h3M38 39h2M37 40h2M35 41h2M42 43h1" />
<path stroke="#418bb4" d="M20 30h1M21 32h1M33 32h1M22 33h1M22 34h2M30 34h1M21 40h2M29 40h1M31 41h1M28 42h2M31 42h2M29 43h1M45 43h1M46 44h3M29 45h1M38 45h1M46 45h2M28 46h1M41 46h1M45 46h1M43 47h3M44 48h1M38 51h1" />
<path stroke="#bd4a52" d="M37 30h2M38 31h4M39 32h6M46 32h1M39 33h8M40 34h9M22 35h2M40 35h10M40 36h10M24 37h2M27 37h1M40 37h10M39 38h10M40 39h7M40 40h4M22 41h3M39 41h2M26 42h1M27 43h1M43 43h1M31 44h1M42 47h1" />
<path stroke="#316a83" d="M20 31h2M21 33h1M21 34h1M30 37h1M21 39h1M27 39h1M20 40h1M23 40h1M30 40h1M40 46h1M24 47h1M25 48h1M35 49h1" />
<path stroke="#5aacde" d="M33 31h1M32 32h1M31 33h2M31 34h2M24 35h1M30 35h2M22 36h2M29 36h3M21 37h2M28 37h2M20 38h3M27 38h1M30 38h2M19 39h2M22 39h3M28 39h6M25 40h4M34 42h1M41 42h1M32 43h9M33 44h1M37 44h4M43 44h2M37 45h1M39 45h6M29 46h2M36 46h3M42 46h3M35 47h4M35 48h4M36 49h4M36 50h4" />
<path stroke="#414141" d="M37 31h1M19 32h2M22 32h1M20 33h1M23 33h1M30 33h1M24 34h2M27 34h3M25 35h2M29 35h1M32 35h1M24 36h1M28 36h1M32 36h1M23 37h1M31 37h2M39 37h1M28 38h2M32 38h2M38 38h1M25 39h2M34 39h1M37 39h1M24 40h1M31 40h3M35 40h2M25 41h6M32 41h1M34 41h1M41 41h2M27 42h1M30 42h1M33 42h1M35 42h6M43 42h1M28 43h1M30 43h1M44 43h1M26 44h2M29 44h2M45 44h1M25 45h1M28 45h1M36 45h1M45 45h1M24 46h1M27 46h1M35 46h1M39 46h1M46 46h1M25 47h1M28 47h3M34 47h1M39 47h1M31 48h1M34 48h1" />
<path stroke="#943941" d="M17 33h3M24 33h4M26 34h1M33 35h2M21 36h1M33 36h4M33 37h5M34 38h4M35 39h2M34 40h1M39 40h1M33 41h1M37 41h2M42 42h1M31 43h1M41 43h1M32 44h1M41 44h2M30 45h2M48 45h1" />
<path stroke="#d5d57b" d="M26 37h1M23 38h1" />
<path stroke="#f6ffbd" d="M25 38h2" />
<path stroke="#838383" d="M28 44h1M34 44h3M26 45h2M32 45h2M25 46h2M31 46h1M26 47h2M24 48h1M28 48h3M32 48h2M33 49h2" />
<path stroke="#bdbdbd" d="M34 45h2M32 46h3M31 47h3M23 48h1M43 48h1M45 48h1" />
<path stroke="#ffffff" d="M37 51h1M39 51h1" />
</svg>