<svg xmlns="http://www.w3.org/2000/svg" viewBox="0 -0.5 68 56" shape-rendering="crispEdges">
<metadata>Made with Pixels to Svg https://codepen.io/shshaw/pen/XbxvNj</metadata>
<path stroke="#000000" d="M33 34h1M32 35h1M34 35h1M32 36h1M34 36h1M36 36h2M41 36h2M27 37h4M32 37h1M34 37h2M37 37h1M40 37h1M42 37h1M26 38h1M31 38h2M34 38h1M36 38h1M39 38h1M42 38h1M25 39h1M33 39h1M36 39h1M39 39h1M41 39h1M25 40h1M34 40h2M40 40h1M42 40h1M25 41h1M29 41h1M31 41h2M35 41h1M40 41h1M43 41h1M25 42h1M32 42h1M36 42h1M39 42h1M43 42h1M26 43h1M31 43h1M37 43h2M42 43h1M26 44h1M30 44h1M32 44h1M41 44h1M26 45h1M29 45h1M31 45h1M40 45h1M25 46h1M29 46h2M41 46h1M25 47h1M28 47h3M41 47h1M26 48h3M31 48h1M34 48h1M36 48h2M40 48h1M31 49h1M33 49h2M36 49h1M38 49h1M41 49h1M32 50h1M34 50h1M36 50h1M39 50h2M34 51h2" />
<path stroke="#414141" d="M33 35h1M33 36h1M33 37h1M36 37h1M27 38h4M33 38h1M35 38h1M26 39h4M31 39h2M34 39h2M26 40h3M30 40h4M26 41h3M30 41h1M33 41h2M26 42h2M29 42h3M33 42h3M27 43h1M29 43h2M32 43h4M27 44h3M38 44h2M27 45h2M26 46h3M32 46h1M34 46h1M26 47h2M32 47h1M34 47h1M36 47h1M40 47h1M32 48h2M39 48h1M32 49h1M35 49h1M39 49h2M35 50h1" />
<path stroke="#e65239" d="M41 37h1M40 38h1M40 39h1M41 40h1M41 41h1" />
<path stroke="#949494" d="M41 38h1M42 41h1M42 42h1M36 43h1M33 44h5M32 45h8M33 46h1M35 46h6M33 47h1M35 47h1M37 47h3M35 48h1M38 48h1" />
<path stroke="#b49cde" d="M30 39h1M29 40h1M28 42h1M28 43h1" />
<path stroke="#a44139" d="M40 42h1M39 43h1" />
<path stroke="#737373" d="M41 42h1M40 43h2M40 44h1M31 46h1M31 47h1" />
</svg>