<svg xmlns="http://www.w3.org/2000/svg" viewBox="0 -0.5 68 56" shape-rendering="crispEdges">
<metadata>Made with Pixels to Svg https://codepen.io/shshaw/pen/XbxvNj</metadata>
<path stroke="#000000" d="M32 31h3M30 32h2M35 32h1M29 33h1M36 33h1M29 34h1M32 34h2M36 34h1M28 35h1M31 35h1M33 35h1M37 35h1M28 36h1M37 36h1M26 37h2M37 37h1M25 38h1M31 38h3M36 38h1M25 39h1M28 39h3M33 39h1M36 39h1M26 40h2M32 40h1M35 40h1M31 41h1M36 41h2M44 41h4M30 42h1M38 42h2M43 42h1M48 42h1M30 43h1M40 43h1M42 43h1M45 43h3M29 44h1M38 44h2M42 44h1M44 44h1M29 45h1M37 45h1M41 45h1M44 45h1M28 46h1M37 46h4M44 46h1M28 47h1M43 47h1M27 48h1M32 48h1M41 48h2M28 49h4M33 49h2M38 49h3M35 50h1M38 50h1M34 51h1M38 51h1M35 52h3" />
<path stroke="#6a6a73" d="M32 32h3M30 33h4M35 33h1M30 34h2M35 34h1M29 35h2M34 35h1M29 36h5M35 36h1M28 37h4M34 37h1M26 38h1M28 38h2M26 39h2M33 40h2M32 41h2M31 42h1M45 42h3M37 43h3M44 43h1M35 44h3M43 44h1M36 45h1M29 46h1M35 46h1M35 47h2M36 48h1M36 49h1M35 51h1M37 51h1" />
<path stroke="#414141" d="M34 33h1M36 35h1M35 37h2M27 38h1M34 38h2M34 39h2M32 42h1M35 42h3M31 43h1M43 45h1M30 46h1M42 46h1M30 47h2M38 47h4M28 48h2M31 48h1M37 49h1M36 50h2M36 51h1" />
<path stroke="#b49cde" d="M34 34h1M32 35h1" />
<path stroke="#41414a" d="M35 35h1M34 36h1M36 36h1M32 37h2M30 38h1M35 41h1M44 42h1M35 43h2M43 43h1M34 44h1M34 45h2M42 45h1M36 46h1M41 46h1M43 46h1M37 47h1M42 47h1M37 48h1" />
<path stroke="#ee5a9c" d="M34 41h1M33 42h1M34 43h1M32 45h2" />
<path stroke="#6a6a9c" d="M34 42h1M32 43h2M31 44h2M31 45h1M31 46h2M34 46h1M29 47h1M32 47h2M30 48h1M35 48h1M35 49h1" />
<path stroke="#bd5283" d="M30 44h1M33 44h1M30 45h1M33 46h1M34 47h1M33 48h2M38 48h3" />
</svg>