<svg xmlns="http://www.w3.org/2000/svg" viewBox="0 -0.5 68 56" shape-rendering="crispEdges">
<metadata>Made with Pixels to Svg https://codepen.io/shshaw/pen/XbxvNj</metadata>
<path stroke="#000000" d="M42 38h2M41 39h1M43 39h1M26 40h4M38 40h3M43 40h1M25 41h2M30 41h4M36 41h2M43 41h1M25 42h1M34 42h2M42 42h1M25 43h1M27 43h1M31 43h1M42 43h1M24 44h1M26 44h1M29 44h1M32 44h1M42 44h1M23 45h2M29 45h1M32 45h1M43 45h1M22 46h1M30 46h2M43 46h1M22 47h1M40 47h1M42 47h2M23 48h1M27 48h1M39 48h1M41 48h2M24 49h3M28 49h2M33 49h3M39 49h1M30 50h3M36 50h1M39 50h1M35 51h1M38 51h1M35 52h2M38 52h1M36 53h2" />
<path stroke="#6b6b6b" d="M42 39h1M42 40h1M38 41h2M38 42h3M26 43h1M36 43h1M39 43h2M36 44h2M25 45h2M30 45h1M36 45h3M23 46h1M26 46h2M36 46h1M38 46h1M35 47h1M41 47h1M36 51h1M37 52h1" />
<path stroke="#e6bd7b" d="M41 40h1M40 41h3M30 42h4M36 42h2M41 42h1M29 43h1M32 43h3M37 43h2M33 44h1M38 44h2M41 44h1M27 45h2M33 45h1M35 45h1M39 45h1M41 45h2M24 46h1M28 46h2M34 46h2M23 47h2M26 47h6M33 47h2M37 47h1M24 48h2M36 48h2M36 49h2" />
<path stroke="#c5945a" d="M27 41h3M28 42h1M28 43h1M25 44h1M34 44h1M25 46h1M42 46h1M26 48h1M32 48h2M38 49h1M37 50h2M37 51h1" />
<path stroke="#ffffff" d="M26 42h1M30 44h1" />
<path stroke="#414141" d="M27 42h1M30 43h1M35 43h1M41 43h1M27 44h2M31 44h1M35 44h1M40 44h1M31 45h1M40 45h1M37 46h1M41 46h1M25 47h1M32 47h1M36 47h1M38 47h1M28 48h4M34 48h2M38 48h1M32 49h1" />
<path stroke="#946b4a" d="M29 42h1M34 45h1M32 46h2" />
<path stroke="#c5738c" d="M39 46h2M39 47h1M30 49h2" />
</svg>