<svg xmlns="http://www.w3.org/2000/svg" viewBox="0 -0.5 68 56" shape-rendering="crispEdges">
<metadata>Made with Pixels to Svg https://codepen.io/shshaw/pen/XbxvNj</metadata>
<path stroke="#000000" d="M24 26h2M32 26h2M23 27h1M25 27h1M30 27h2M33 27h1M22 28h1M25 28h1M29 28h1M33 28h1M23 29h1M26 29h2M29 29h1M32 29h1M21 30h1M23 30h1M32 30h1M20 31h1M22 31h1M32 31h1M20 32h1M31 32h1M20 33h1M31 33h1M20 34h1M31 34h1M36 34h2M21 35h1M26 35h1M30 35h1M34 35h2M37 35h1M21 36h1M30 36h1M33 36h1M36 36h1M39 36h1M44 36h1M46 36h1M48 36h1M51 36h3M22 37h1M31 37h2M37 37h2M40 37h1M43 37h1M45 37h1M47 37h1M49 37h2M53 37h1M17 38h2M23 38h1M38 38h1M40 38h1M42 38h1M53 38h1M17 39h1M19 39h2M23 39h1M35 39h1M37 39h1M39 39h1M41 39h1M52 39h1M18 40h1M21 40h2M32 40h1M34 40h1M38 40h2M51 40h1M19 41h1M23 41h2M33 41h1M40 41h1M51 41h1M18 42h1M22 42h1M25 42h1M32 42h1M38 42h2M50 42h1M19 43h1M21 43h1M24 43h1M32 43h1M36 43h2M51 43h1M19 44h1M21 44h1M23 44h1M33 44h2M36 44h1M50 44h1M19 45h2M23 45h3M35 45h1M42 45h1M48 45h2M25 46h1M40 46h2M43 46h1M47 46h2M26 47h1M30 47h1M39 47h1M43 47h1M46 47h1M25 48h1M29 48h1M31 48h4M39 48h1M44 48h2M24 49h1M29 49h1M35 49h1M39 49h1M25 50h4M36 50h1M40 50h1M35 51h1M40 51h1M36 52h4" />
<path stroke="#a4ee9c" d="M24 27h1M32 27h1M23 28h1M30 28h1M21 31h1M26 31h1M21 32h1M25 32h1M21 33h1M21 34h1M21 41h1M39 41h1M19 42h1M34 42h1M33 43h1M35 43h1M35 44h1M36 51h1M38 51h1" />
<path stroke="#73cd73" d="M24 28h1M31 28h2M24 29h1M30 29h2M24 30h2M30 30h2M24 31h1M29 31h3M22 32h2M26 32h3M30 32h1M22 33h2M25 33h2M30 33h1M22 34h1M24 34h1M29 34h2M22 35h1M28 35h2M36 35h1M22 36h4M27 36h1M23 37h1M28 39h2M34 39h1M28 40h1M33 40h1M35 40h2M35 41h1M38 41h1M21 42h1M33 42h1M36 42h2M28 44h1M29 45h2M36 45h1M35 46h3M34 47h4M35 48h2M25 49h1M27 49h1" />
<path stroke="#4a9c52" d="M25 29h1M27 30h2M23 31h1M24 32h1M24 33h1M23 34h1M25 34h1M23 35h2M35 36h1M34 37h1M44 37h1M46 37h1M48 37h1M31 38h1M44 38h1M46 38h1M48 38h1M24 39h1M43 39h1M45 39h1M19 40h2M23 40h1M25 40h1M30 40h1M43 40h1M22 41h1M26 41h1M29 41h1M45 41h2M26 42h4M35 42h1M40 42h1M42 42h3M25 43h1M29 43h2M34 43h1M39 43h3M20 44h1M31 44h1M40 44h1M43 44h1M26 45h1M43 45h1M26 46h2M44 46h1M27 47h2M31 47h2M44 47h1M28 48h1M37 48h2M28 49h1M37 49h2M38 50h1M37 51h1M39 51h1" />
<path stroke="#414141" d="M26 30h1M29 30h1M25 31h1M27 31h2M26 34h1M30 37h1M36 37h1M24 38h2M29 38h2M36 38h1M43 38h1M45 38h1M47 38h1M49 38h1M26 39h1M30 39h1M33 39h1M42 39h1M44 39h1M46 39h3M24 40h1M27 40h1M29 40h1M37 40h1M42 40h1M44 40h3M49 40h1M20 41h1M28 41h1M42 41h3M47 41h3M45 42h2M48 42h1M20 43h1M27 43h2M43 43h3M47 43h1M49 43h1M25 44h3M29 44h2M45 44h1M47 44h1M49 44h1M27 45h1M31 45h1M37 45h1M45 45h2M28 46h1M32 46h3M38 46h1M46 46h1M29 47h1M38 47h1M26 48h1M36 49h1M37 50h1" />
<path stroke="#ac4a52" d="M29 32h1M27 33h3M28 36h2M24 37h4M51 37h1M52 38h1M50 39h1M50 40h1M50 41h1M39 44h1M42 44h1M39 45h1M39 46h1" />
<path stroke="#f6e629" d="M27 34h1M27 35h1" />
<path stroke="#e6525a" d="M28 34h1M26 36h1M28 37h1M52 37h1M26 38h2M37 38h1M50 38h2M18 39h1M36 39h1M51 39h1M41 42h1M38 43h1M42 43h1M28 45h1M29 46h3" />
<path stroke="#ffac52" d="M25 35h1" />
<path stroke="#4a734a" d="M34 36h1M29 37h1M33 37h1M35 37h1M39 37h1M28 38h1M32 38h4M39 38h1M25 39h1M27 39h1M31 39h2M40 39h1M49 39h1M26 40h1M31 40h1M40 40h2M47 40h2M25 41h1M27 41h1M30 41h3M34 41h1M36 41h2M41 41h1M20 42h1M30 42h2M47 42h1M49 42h1M26 43h1M31 43h1M46 43h1M48 43h1M50 43h1M24 44h1M32 44h1M37 44h2M41 44h1M44 44h1M46 44h1M48 44h1M32 45h3M38 45h1M40 45h2M44 45h1M47 45h1M45 46h1M33 47h1M45 47h1M27 48h1M26 49h1M39 50h1" />
</svg>