<svg xmlns="http://www.w3.org/2000/svg" viewBox="0 -0.5 68 56" shape-rendering="crispEdges">
<metadata>Made with Pixels to Svg https://codepen.io/shshaw/pen/XbxvNj</metadata>
<path stroke="#000000" d="M31 29h2M30 30h1M32 30h2M37 30h2M30 31h1M33 31h1M36 31h1M38 31h2M31 32h1M34 32h1M36 32h1M39 32h1M31 33h1M34 33h1M36 33h1M39 33h1M32 34h1M34 34h2M38 34h1M28 35h2M31 35h1M37 35h1M27 36h1M30 36h1M37 36h1M27 37h1M34 37h1M38 37h1M27 38h1M34 38h1M39 38h2M28 39h1M41 39h1M28 40h1M41 40h1M29 41h1M40 41h1M29 42h1M39 42h1M30 43h1M38 43h1M31 44h2M37 44h1M32 45h1M37 45h1M32 46h1M35 46h2M32 47h1M35 47h1M31 48h1M35 48h1M29 49h2M36 49h1M28 50h1M36 50h1M28 51h1M36 51h1M28 52h1M35 52h1M29 53h1M33 53h2M30 54h3" />
<path stroke="#7b5a4a" d="M31 30h1M32 31h1M37 31h1M33 32h1M38 32h1M33 33h1M38 33h1M37 34h1M28 36h1M29 37h1M28 38h1M32 38h1M37 38h2M39 39h1M39 40h1M33 47h2M31 49h3M29 50h1M33 50h2M34 51h1M34 52h1" />
<path stroke="#f7737b" d="M31 31h1M32 32h1M37 32h1M32 33h1M37 33h1M36 34h1" />
<path stroke="#414141" d="M33 34h1M35 35h1M31 36h1M36 36h1M31 37h1M37 43h1M35 44h2M33 45h2" />
<path stroke="#d69c8c" d="M32 35h2M32 36h3M30 37h1M32 37h2M30 50h2M30 51h2" />
<path stroke="#c58c7b" d="M34 35h1M35 36h1M35 37h3M29 38h3M33 38h1M35 38h2M29 39h2M33 39h6M40 39h1M34 40h5M40 40h1M31 41h2M35 41h5M32 42h2M35 42h3M35 45h2M32 48h2M34 49h1M32 50h1M29 51h1M32 51h2M30 52h3" />
<path stroke="#c5737b" d="M36 35h1" />
<path stroke="#ad735a" d="M29 36h1M28 37h1M29 40h1M30 42h2M38 42h1M31 43h3M36 43h1M33 46h2M34 48h1M35 49h1M35 50h1M35 51h1M29 52h1M33 52h1M30 53h3" />
<path stroke="#fff7e6" d="M31 39h2M30 40h4M33 41h2M34 42h1" />
<path stroke="#d6c5ad" d="M30 41h1M34 43h2M33 44h2" />
</svg>