<svg xmlns="http://www.w3.org/2000/svg" viewBox="0 -0.5 68 56" shape-rendering="crispEdges">
<metadata>Made with Pixels to Svg https://codepen.io/shshaw/pen/XbxvNj</metadata>
<path stroke="#000000" d="M36 27h2M35 28h1M37 28h1M34 29h1M37 29h1M34 30h1M37 30h1M33 31h1M36 31h1M33 32h1M37 32h1M32 33h1M36 33h1M32 34h1M37 34h1M32 35h1M37 35h1M25 36h3M31 36h1M38 36h2M25 37h1M28 37h3M40 37h1M25 38h1M41 38h1M26 39h1M41 39h1M26 40h1M42 40h1M25 41h1M42 41h1M25 42h1M42 42h2M24 43h1M34 43h1M44 43h2M24 44h1M33 44h1M35 44h1M46 44h1M23 45h1M34 45h1M41 45h1M47 45h1M23 46h1M40 46h1M42 46h5M23 47h1M39 47h1M24 48h5M38 48h1M29 49h1M38 49h1M29 50h1M37 50h1M30 51h1M33 51h2M37 51h1M30 52h3M35 52h1M37 52h1M36 53h1" />
<path stroke="#4a7bcd" d="M36 28h1M35 29h1M34 32h1M33 33h1M33 35h1M37 36h1M31 37h1M33 37h1M36 37h4M30 38h11M30 39h8M33 40h3M38 40h3M27 41h2M31 41h3M36 41h4M28 42h1M30 42h3M34 42h5M33 43h1M42 43h2M25 44h2M29 44h3M37 44h1M41 44h1M43 44h3M24 45h3M29 45h3M33 45h1M35 45h2M45 45h2M24 46h4M29 46h2M25 47h1" />
<path stroke="#415a94" d="M36 29h1M36 30h1M35 31h1M36 32h1M34 33h2M35 34h2M34 35h3M35 36h2M26 37h2M34 37h2M26 38h3M41 40h1M40 41h2M39 42h1M35 43h1M41 43h1M37 45h2M42 45h1M34 46h1M38 46h2M24 47h1" />
<path stroke="#f6e641" d="M35 30h1M34 31h1M33 34h1M32 36h2M29 39h1M28 40h4M26 41h1M29 41h1M26 42h1M25 43h6M36 43h1M27 44h2M28 45h1M43 45h2M30 50h1M31 51h1" />
<path stroke="#c59c52" d="M35 32h1M34 34h1M34 36h1M34 50h1M32 51h1" />
<path stroke="#414141" d="M32 37h1M29 38h1M27 39h2M38 39h3M36 40h2M34 41h2M33 42h1M32 43h1M38 43h1M32 44h1M38 44h1M32 45h1M39 45h1M33 46h1M35 46h3M32 47h2M38 47h1M29 48h3M35 48h1M37 48h1M33 49h1M36 49h1M35 50h1" />
<path stroke="#acb4a4" d="M27 40h1M32 40h1M30 41h1M27 42h1M29 42h1M31 43h1M37 43h1M36 44h1M42 44h1M27 45h1M28 46h1M31 46h1M26 47h1" />
<path stroke="#dee6e6" d="M40 42h2M39 43h2M39 44h1M32 46h1M27 47h5M34 48h1M36 48h1M34 49h2M31 50h3" />
<path stroke="#d55a41" d="M34 44h1" />
<path stroke="#b4b4bd" d="M40 44h1M40 45h1M37 47h1M30 49h1M37 49h1M36 50h1M35 51h2M36 52h1" />
<path stroke="#a43941" d="M34 47h3M32 48h2M31 49h2" />
</svg>