<svg xmlns="http://www.w3.org/2000/svg" viewBox="0 -0.5 68 56" shape-rendering="crispEdges">
<metadata>Made with Pixels to Svg https://codepen.io/shshaw/pen/XbxvNj</metadata>
<path stroke="#000000" d="M30 33h3M34 33h2M29 34h1M33 34h1M36 34h1M28 35h1M36 35h1M28 36h1M37 36h1M28 37h1M37 37h1M28 38h1M37 38h1M27 39h1M36 39h1M27 40h1M36 40h1M26 41h1M37 41h1M26 42h1M32 42h1M37 42h3M26 43h1M32 43h1M39 43h3M27 44h1M39 44h1M41 44h1M28 45h2M41 45h1M30 46h2M42 46h1M31 47h1M42 47h1M30 48h1M41 48h1M29 49h1M41 49h1M29 50h1M40 50h1M30 51h4M38 51h2M34 52h4" />
<path stroke="#ce4a73" d="M30 34h2M34 34h2M29 35h2M32 35h2M31 36h3M35 36h2M34 37h3M35 38h2" />
<path stroke="#414141" d="M32 34h1M31 35h1M34 35h2M30 36h1M34 36h1M30 37h1M33 37h1M30 38h1M33 38h1M32 39h1M35 40h1M27 42h1M28 43h1M37 43h1M33 44h1M36 44h1M36 45h1M38 45h1M32 46h1M39 46h2M40 48h1M30 49h1M31 50h1M37 51h1" />
<path stroke="#ff8cb5" d="M29 36h1M29 37h1M31 37h2M31 38h2M34 38h1M28 39h1M31 39h1M34 39h2M28 40h2M28 41h4M33 41h3M28 42h3M34 42h3M34 43h2M40 44h1M37 45h1M40 45h1M36 46h3M36 47h2" />
<path stroke="#ce6384" d="M29 38h1M29 39h2M30 40h5M36 43h1M38 43h1M34 44h2M38 44h1M34 45h2M39 45h1M35 46h1M41 46h1M35 47h1M38 47h4M36 48h4" />
<path stroke="#ad4a6b" d="M33 39h1M36 41h1M37 44h1" />
<path stroke="#f7f729" d="M27 41h1M31 42h1M33 42h1M27 43h1M33 43h1M28 44h4M32 45h1M34 47h1M35 48h1M36 49h2" />
<path stroke="#ffffff" d="M32 41h1M31 48h3M31 49h4M32 50h1M34 50h2M35 51h1" />
<path stroke="#bda542" d="M29 43h3M32 44h1M30 45h2M33 45h1M34 46h1M38 49h2" />
<path stroke="#bdbdc5" d="M33 46h1M32 47h2M34 48h1M35 49h1M40 49h1M30 50h1M33 50h1M36 50h4M34 51h1M36 51h1" />
</svg>