<svg xmlns="http://www.w3.org/2000/svg" viewBox="0 -0.5 68 56" shape-rendering="crispEdges">
<metadata>Made with Pixels to Svg https://codepen.io/shshaw/pen/XbxvNj</metadata>
<path stroke="#000000" d="M23 30h2M23 31h1M25 31h4M24 32h1M29 32h1M42 32h2M24 33h1M29 33h1M31 33h2M38 33h4M43 33h1M23 34h1M29 34h1M31 34h1M37 34h1M42 34h1M24 35h1M29 35h1M31 35h1M33 35h1M37 35h1M42 35h1M24 36h1M30 36h1M34 36h1M36 36h1M43 36h1M25 37h2M34 37h1M36 37h1M42 37h1M25 38h1M35 38h2M42 38h1M26 39h2M41 39h1M25 40h3M41 40h1M26 41h1M39 41h2M25 42h1M39 42h4M26 43h3M39 43h1M41 43h1M25 44h2M28 44h1M39 44h1M42 44h1M29 45h1M38 45h1M40 45h2M28 46h1M30 46h1M37 46h1M41 46h2M28 47h2M31 47h2M38 47h1M32 48h1M38 48h1M31 49h1M39 49h1M31 50h1M33 50h1M39 50h1M32 51h1M34 51h2M37 51h1M39 51h1M36 52h1M38 52h1" />
<path stroke="#84c5ff" d="M24 31h1M26 32h1M42 33h1M24 34h1M26 34h1M40 34h1M25 36h1M27 36h1M40 36h1M42 36h1M26 38h1M28 38h1M39 38h1M41 38h1M38 40h1M40 40h1M32 50h1M34 50h1M36 51h1M38 51h1" />
<path stroke="#d66342" d="M25 32h1M25 34h1M41 34h1M26 36h1M41 36h1M27 38h1M40 38h1M39 40h1M32 49h1M34 49h1M36 50h1M38 50h1" />
<path stroke="#ffb529" d="M27 32h2M28 33h1M27 34h2M38 34h2M28 35h1M38 35h1M28 36h1M37 36h3M29 37h1M37 37h1M29 38h1M37 38h2M29 39h1M31 39h1M36 39h1M31 40h1M34 40h1M37 40h1M31 41h4M35 48h1M36 49h1M38 49h1" />
<path stroke="#414141" d="M25 33h2M32 34h1M25 35h2M32 35h1M40 35h2M29 36h1M33 36h1M27 37h1M30 37h1M33 37h1M39 37h3M31 38h3M28 39h1M32 39h3M38 39h3M29 40h1M32 40h2M35 40h2M27 41h2M37 41h1M26 42h3M38 42h1M37 43h2M40 43h1M30 44h4M36 44h2M40 44h2M30 45h4M36 46h1M33 47h4M34 48h1M36 48h2M33 49h1M35 49h1M37 49h1M35 50h1M37 50h1" />
<path stroke="#bd7b42" d="M27 33h1M27 35h1M39 35h1M28 37h1M38 37h1M30 38h1M34 38h1M30 39h1M35 39h1M37 39h1M30 40h1M33 48h1" />
<path stroke="#ffffff" d="M31 36h2M32 37h1M30 41h1M35 41h1M31 42h4M29 43h1M34 44h2M35 45h1" />
<path stroke="#5a8cff" d="M31 37h1M29 44h1M34 45h1" />
<path stroke="#5aad5a" d="M28 40h1M30 42h1M36 42h2M30 43h2M33 43h2M36 43h1" />
<path stroke="#bdbdbd" d="M29 41h1M36 41h1M29 46h1M37 47h1" />
<path stroke="#4a8442" d="M38 41h1M29 42h1M35 42h1M32 43h1M35 43h1M38 44h1M36 45h2M31 46h5" />
</svg>