<svg xmlns="http://www.w3.org/2000/svg" viewBox="0 -0.5 68 56" shape-rendering="crispEdges">
<metadata>Made with Pixels to Svg https://codepen.io/shshaw/pen/XbxvNj</metadata>
<path stroke="#000000" d="M28 28h2M27 29h1M30 29h1M27 30h1M31 30h1M26 31h1M32 31h1M26 32h1M32 32h1M26 33h1M33 33h1M26 34h1M33 34h1M24 35h3M34 35h1M23 36h1M35 36h1M23 37h1M36 37h1M23 38h1M37 38h1M24 39h1M37 39h3M25 40h1M40 40h1M43 40h2M26 41h1M40 41h1M42 41h1M45 41h2M26 42h1M31 42h1M40 42h2M47 42h1M25 43h1M27 43h1M39 43h1M41 43h1M47 43h1M24 44h1M37 44h2M42 44h1M45 44h2M25 45h1M27 45h2M37 45h1M42 45h1M44 45h1M26 46h1M28 46h1M38 46h1M40 46h2M43 46h1M29 47h1M39 47h1M42 47h1M28 48h1M40 48h2M27 49h1M30 49h3M38 49h2M28 50h2M33 50h2M37 50h1M34 51h1M37 51h1M35 52h2" />
<path stroke="#52de6b" d="M28 29h2M28 30h3M28 31h3M27 32h4M27 33h4M28 34h2" />
<path stroke="#3ac55a" d="M27 31h1M31 31h1M31 32h1M31 33h2M27 34h1M30 34h3M27 35h6M24 36h2M29 36h5M25 37h2M29 37h1M31 37h3M35 37h1M26 38h1M29 38h5M35 38h1M29 39h4M34 39h3M30 40h1M35 40h1M37 40h3M34 41h1M36 41h1M39 41h1M43 41h2M35 42h1M39 42h1M43 42h1M45 42h2M38 43h1M42 43h1M45 43h2M27 44h1M44 44h1M36 45h1M36 46h2M37 47h1M32 48h1M34 48h1" />
<path stroke="#427342" d="M33 35h1M34 36h1M34 37h1M28 39h1M26 43h1M43 43h2M28 44h1M43 44h1" />
<path stroke="#414141" d="M26 36h1M27 37h1M27 38h1M36 40h1M42 42h1M44 42h1M35 43h1M34 44h1M36 44h1M30 45h3M34 46h1M35 47h1M36 48h1M36 49h1" />
<path stroke="#3a9c52" d="M27 36h1M28 38h1M34 38h1M36 38h1M26 40h1M29 40h1M31 40h1M35 41h1M43 45h1M35 46h1M42 46h1M36 47h1M40 47h2M29 48h2M35 48h1M33 49h3M35 50h2" />
<path stroke="#ffde8c" d="M28 36h1M28 37h1M30 37h1M27 41h3M27 42h1M29 42h2M33 42h1M28 43h7M31 44h2M38 47h1M37 48h1M28 49h1M37 49h1M35 51h1" />
<path stroke="#7be68c" d="M24 37h1M24 38h2M25 39h2M37 41h2M36 42h3M36 43h2" />
<path stroke="#ffffff" d="M27 39h1M33 39h1M27 40h1M32 40h3M31 41h2M32 42h1M35 44h1M29 45h1M33 45h3M30 46h1M32 46h2" />
<path stroke="#c5a55a" d="M28 40h1M30 41h1M34 42h1M30 44h1M29 46h1M31 46h1M30 47h5M31 48h1M33 48h1M29 49h1M36 51h1" />
<path stroke="#bdbdbd" d="M33 41h1" />
<path stroke="#8c7331" d="M28 42h1M29 44h1M33 44h1" />
<path stroke="#e6c56b" d="M25 44h2M26 45h1M38 48h2" />
</svg>