<svg xmlns="http://www.w3.org/2000/svg" viewBox="0 -0.5 68 56" shape-rendering="crispEdges">
<metadata>Made with Pixels to Svg https://codepen.io/shshaw/pen/XbxvNj</metadata>
<path stroke="#000000" d="M38 32h3M33 33h2M37 33h1M41 33h1M32 34h1M35 34h2M41 34h1M26 35h3M31 35h1M40 35h1M25 36h1M29 36h2M37 36h3M26 37h1M36 37h2M27 38h1M38 38h2M28 39h1M39 39h1M28 40h1M32 40h1M37 40h2M27 41h2M37 41h1M26 42h1M36 42h1M26 43h1M30 43h1M36 43h1M38 43h2M27 44h3M31 44h3M37 44h1M39 44h1M34 45h1M38 45h1M28 46h3M32 46h2M39 46h1M28 47h1M30 47h2M34 47h1M40 47h2M29 48h1M37 48h1M42 48h1M30 49h1M36 49h1M38 49h1M42 49h1M30 50h1M34 50h1M37 50h1M39 50h3M31 51h3M35 51h1M38 51h1M36 52h3" />
<path stroke="#7bb5d6" d="M38 33h1M40 33h1M40 34h1M37 35h1M39 35h1M34 46h1M32 47h2M38 47h2M38 48h2" />
<path stroke="#94deff" d="M39 33h1M37 34h3M38 35h1M40 48h2M39 49h2" />
<path stroke="#ad6342" d="M33 34h2M32 35h3M31 36h5M30 37h2M33 37h3M30 38h2M33 38h1M36 38h2M29 39h2M32 39h7M29 40h3M35 40h1M29 41h1M36 41h1M38 44h1M37 45h1M37 46h1M36 48h1M33 49h1M35 49h1M31 50h2M35 50h2M36 51h2" />
<path stroke="#414141" d="M35 35h1M36 36h1M29 37h1M29 38h1M34 38h2M34 40h1M36 40h1M34 41h1M31 42h1M33 42h1M27 43h1M34 44h1M38 46h1M37 47h1M32 48h2M31 49h2M34 49h1M41 49h1M33 50h1" />
<path stroke="#844a3a" d="M36 35h1M26 36h3M27 37h2M32 37h1M28 38h1M32 38h1M31 39h1M35 46h2M29 47h1M30 48h2M34 48h2" />
<path stroke="#f74231" d="M33 40h1M31 41h3M32 42h1" />
<path stroke="#8c63a5" d="M30 41h1M30 42h1M29 43h1M35 43h1M35 44h2M35 45h2" />
<path stroke="#b584ce" d="M35 41h1M27 42h3M34 42h2M28 43h1M31 43h4M35 47h2" />
</svg>