<svg xmlns="http://www.w3.org/2000/svg" viewBox="0 -0.5 68 56" shape-rendering="crispEdges">
<metadata>Made with Pixels to Svg https://codepen.io/shshaw/pen/XbxvNj</metadata>
<path stroke="#000000" d="M32 32h1M30 33h2M33 33h1M29 34h1M33 34h1M38 34h3M28 35h1M33 35h1M36 35h2M41 35h1M28 36h1M32 36h1M35 36h1M40 36h1M29 37h1M33 37h2M40 37h1M28 38h1M40 38h1M27 39h1M39 39h1M27 40h1M38 40h1M26 41h1M38 41h1M26 42h1M38 42h1M26 43h1M37 43h1M27 44h1M36 44h1M27 45h1M37 45h2M28 46h2M39 46h2M30 47h1M41 47h1M29 48h1M42 48h1M28 49h1M42 49h1M28 50h1M39 50h3M29 51h5M38 51h1M34 52h4" />
<path stroke="#ffb594" d="M32 33h1M31 34h1M38 35h2M37 36h1M28 42h1M31 46h1" />
<path stroke="#ff8c52" d="M30 34h1M32 34h1M29 35h3M40 35h1M30 36h2M36 36h1M38 36h2M36 37h3M30 38h2M34 38h3M30 39h1M32 39h4M29 40h3M35 40h1M28 41h3M27 42h1M29 42h2M34 42h1M28 43h4M28 45h1M36 45h1M32 46h1M37 46h1M31 47h2M35 48h2M41 48h1M39 49h2M29 50h1M32 50h2M38 50h1M34 51h4" />
<path stroke="#d65a3a" d="M32 35h1M29 36h1M30 37h1M39 37h1M33 38h1M37 38h3M31 39h1M36 39h3M36 40h1M27 41h1M35 41h3M35 42h3M27 43h1M32 43h4M29 44h4M35 44h1M31 45h1M34 45h2M34 46h3M38 46h1M34 47h1M37 47h4M30 48h1M33 48h1M38 48h3M30 49h2M34 49h1M37 49h2M34 50h4" />
<path stroke="#ad4a3a" d="M31 37h2M33 44h1M35 47h2M34 48h1M37 48h1M29 49h1M32 49h2M35 49h2M41 49h1M30 50h2" />
<path stroke="#414141" d="M35 37h1M32 38h1M29 39h1M37 40h1M32 41h1M36 43h1M28 44h1M34 44h1M29 45h2M32 45h2M30 46h1M33 46h1M33 47h1M31 48h2" />
<path stroke="#ffff42" d="M29 38h1M28 39h1M28 40h1M32 40h1M34 40h1M31 41h1M34 41h1M31 42h3" />
<path stroke="#ffffad" d="M33 40h1M33 41h1" />
</svg>