<svg xmlns="http://www.w3.org/2000/svg" viewBox="0 -0.5 68 56" shape-rendering="crispEdges">
<metadata>Made with Pixels to Svg https://codepen.io/shshaw/pen/XbxvNj</metadata>
<path stroke="#000000" d="M32 36h4M30 37h2M36 37h2M29 38h1M38 38h1M29 39h1M38 39h1M28 40h1M39 40h1M28 41h1M39 41h1M28 42h1M34 42h1M39 42h1M26 43h2M34 43h1M39 43h1M26 44h1M39 44h2M27 45h1M40 45h1M27 46h1M39 46h1M27 47h1M29 47h2M39 47h1M26 48h1M29 48h2M40 48h1M26 49h2M41 49h1M28 50h1M30 50h2M36 50h1M39 50h2M28 51h2M32 51h1M34 51h2M37 51h2M33 52h1" />
<path stroke="#b5a584" d="M32 37h4M31 38h5M32 39h2M29 40h1M29 41h1M33 42h1M35 42h1M33 43h1M35 43h1M34 44h1" />
<path stroke="#414141" d="M30 38h1M36 39h1M32 40h1M37 40h1M31 41h1M37 41h1M31 42h1M37 42h1M28 43h1M30 43h2M37 43h1M29 44h2M32 44h1M35 44h2M38 44h1M33 45h2M28 49h1" />
<path stroke="#bdbdbd" d="M36 38h1M37 39h1M37 44h1M32 45h1M37 45h3M37 46h2M38 47h1M38 48h2M37 49h4M35 50h1" />
<path stroke="#949494" d="M37 38h1M38 40h1M38 41h1M38 42h1M38 43h1" />
<path stroke="#6b6b6b" d="M30 39h2M34 39h2M30 40h2M33 40h4M30 41h1M32 41h2M35 41h2M29 42h2M32 42h1M36 42h1M29 43h1M32 43h1M36 43h1M33 44h1M30 45h1M36 45h1M33 46h1M38 50h1" />
<path stroke="#ffffff" d="M34 41h1M27 44h1M31 44h1M29 45h1M31 45h1M35 45h1M28 46h5M34 46h3M28 47h1M31 47h5M27 48h2M31 48h1M34 48h2M29 49h3M34 49h3M29 50h1M32 50h3M37 50h1M33 51h1" />
<path stroke="#e60000" d="M28 44h1M28 45h1M36 47h2M36 48h2" />
<path stroke="#d6a54a" d="M32 48h2M32 49h2" />
</svg>