<svg xmlns="http://www.w3.org/2000/svg" viewBox="0 -0.5 68 56" shape-rendering="crispEdges">
<metadata>Made with Pixels to Svg https://codepen.io/shshaw/pen/XbxvNj</metadata>
<path stroke="#000000" d="M32 25h4M29 26h3M36 26h3M26 27h3M39 27h3M23 28h3M42 28h3M22 29h1M45 29h1M22 30h1M45 30h1M22 31h1M45 31h1M23 32h1M44 32h1M24 33h1M43 33h1M24 34h1M43 34h1M24 35h1M43 35h1M24 36h1M38 36h2M43 36h1M24 37h1M36 37h2M39 37h1M43 37h1M24 38h1M36 38h3M43 38h1M23 39h1M44 39h1M23 40h1M44 40h1M23 41h1M28 41h1M44 41h1M22 42h2M28 42h1M30 42h1M44 42h2M21 43h1M29 43h2M46 43h1M21 44h1M46 44h1M21 45h1M24 45h2M42 45h2M47 45h1M20 46h1M24 46h1M26 46h3M39 46h3M43 46h1M47 46h1M20 47h1M23 47h1M29 47h3M38 47h1M44 47h1M47 47h1M20 48h1M24 48h1M32 48h1M37 48h1M43 48h1M46 48h1M21 49h1M24 49h1M33 49h1M37 49h1M43 49h1M46 49h1M22 50h2M34 50h1M38 50h1M44 50h2M34 51h1M38 51h1M33 52h1M37 52h1M33 53h1M37 53h1M34 54h3" />
<path stroke="#394139" d="M32 26h1M35 26h1M32 27h4M42 29h3M42 30h1M39 31h4M24 32h2M34 32h5M42 32h2M26 33h2M36 33h1M39 33h3M29 34h3M36 34h3M41 34h2M32 35h4M39 35h2M36 36h2M41 37h2M39 38h2M36 39h2M41 40h2M27 41h1M38 41h3M27 42h1M37 42h1M43 42h1M28 43h1M41 43h2M44 43h1M38 44h3M44 44h1M22 45h2M36 45h2M44 45h2M21 46h2M44 46h1M34 47h3M45 47h2M23 48h1M33 48h1M22 49h2M45 49h1M35 50h2M35 51h1" />
<path stroke="#525a52" d="M33 26h2M23 29h4M41 29h1M25 30h1M43 30h2M25 31h1M33 31h2M43 31h2M31 32h3M39 32h3M28 33h1M31 33h1M34 33h2M37 33h2M34 34h2M38 35h1M41 35h1M33 36h1M35 36h1M41 36h1M34 37h1M34 38h1M41 38h1M33 39h1M35 39h1M38 39h1M41 39h1M43 39h1M35 40h1M38 40h1M43 40h1M34 41h1M36 41h1M41 41h1M43 41h1M33 42h2M36 42h1M38 42h1M41 42h1M24 43h1M35 43h1M38 43h1M43 43h1M45 43h1M24 44h1M35 44h1M41 44h1M43 44h1M45 44h1M33 45h2M38 45h1M41 45h1M46 45h1M34 46h1M38 46h1M46 46h1M21 47h2M37 47h1M21 48h1M36 48h1M44 48h2M36 49h1M37 50h1M36 51h2M36 52h1M36 53h1" />
<path stroke="#29cdff" d="M29 27h3M36 27h3M26 28h3M39 28h3M26 30h3M39 30h3M29 31h3M36 31h3M25 35h1M25 36h1M35 37h1M25 38h1M35 38h1M25 39h1M24 41h1M35 41h1M24 42h1M29 42h1M35 42h1M35 45h1M35 46h1" />
<path stroke="#949ca4" d="M29 28h3M34 28h1M37 28h2M28 29h1M31 29h6M39 29h1M29 30h2M33 30h1M38 30h1M26 31h3M26 32h5M25 33h1M29 33h2M28 34h1M26 35h1M30 35h2M26 36h1M28 36h2M28 37h2M31 37h2M26 38h1M31 38h2M26 39h1M28 39h2M24 40h1M28 40h2M31 40h2M26 41h1M31 41h2M26 42h1M31 43h2M25 44h2M31 44h2M26 45h1M28 45h2M29 46h1M31 46h2M32 47h1" />
<path stroke="#acb4bd" d="M32 28h2M29 29h2M37 29h2M34 30h2M27 34h1M27 36h1M27 37h1M30 37h1M30 38h1M27 39h1M27 40h1M30 40h1M25 41h1M30 41h1M25 42h1M27 43h1M30 44h1M27 45h1M30 46h1" />
<path stroke="#737b73" d="M35 28h2M31 30h2M36 30h2" />
<path stroke="#6a6a6a" d="M27 29h1M40 29h1M32 31h1M35 31h1M42 33h1M25 34h2M39 34h2M27 35h3M36 35h2M42 35h1M30 36h3M40 36h1M42 36h1M25 37h2M33 37h1M40 37h1M27 38h3M33 38h1M42 38h1M24 39h1M30 39h3M39 39h2M42 39h1M25 40h2M33 40h1M36 40h2M39 40h2M29 41h1M33 41h1M37 41h1M42 41h1M31 42h2M39 42h2M42 42h1M25 43h2M33 43h1M36 43h2M39 43h2M27 44h3M33 44h1M36 44h2M42 44h1M30 45h3M39 45h2M33 46h1M36 46h2M33 47h1" />
<path stroke="#7b7b7b" d="M23 30h2M23 31h2M32 33h2M32 34h2M22 43h2M22 44h2M34 48h2M34 49h2M34 52h2M34 53h2" />
<path stroke="#108bde" d="M34 36h1M38 37h1M34 39h1M34 40h1M34 43h1M34 44h1" />
<path stroke="#189cf6" d="M23 46h1M45 46h1M22 48h1M44 49h1" />
</svg>