<svg xmlns="http://www.w3.org/2000/svg" viewBox="0 -0.5 68 56" shape-rendering="crispEdges">
<metadata>Made with Pixels to Svg https://codepen.io/shshaw/pen/XbxvNj</metadata>
<path stroke="#000000" d="M30 37h2M29 38h1M31 38h1M33 38h2M29 39h1M31 39h1M33 39h1M35 39h1M29 40h1M32 40h1M35 40h1M30 41h1M36 41h1M29 42h1M37 42h1M28 43h1M38 43h1M28 44h1M38 44h1M27 45h1M39 45h1M25 46h2M29 46h2M39 46h1M24 47h1M33 47h2M39 47h1M24 48h1M40 48h1M25 49h2M40 49h3M27 50h3M43 50h1M30 51h4M38 51h1M43 51h1M34 52h4M39 52h4" />
<path stroke="#a5ef4a" d="M30 38h1M30 39h1M34 39h1M30 40h2M33 40h2M33 41h1M31 42h1M35 42h2M30 43h2M33 43h4M32 44h4M28 45h1M33 45h1M28 46h1M37 46h2M28 47h1M36 47h3M29 48h1M35 48h4M34 49h4M33 50h3" />
<path stroke="#3a6331" d="M31 41h1M35 41h1M33 42h2M25 47h1M30 48h1M31 49h2M42 51h1" />
<path stroke="#8cc531" d="M32 41h1M34 41h1M30 42h1M32 43h1M32 45h1M34 45h1M38 45h1M28 48h1M39 48h1M29 49h2M38 49h2M36 50h3M34 51h4" />
<path stroke="#84ad3a" d="M32 42h1M31 44h1" />
<path stroke="#428c29" d="M29 43h1M37 43h1M29 44h2M36 44h2M29 45h1M31 45h1M35 45h3M35 46h2M26 47h1M29 47h1M35 47h1M25 48h2M34 48h1M27 49h1M33 49h1M40 50h3M39 51h3" />
<path stroke="#ffde42" d="M30 45h1M31 46h4M30 47h3M32 48h2" />
<path stroke="#414141" d="M27 46h1M27 47h1M27 48h1M28 49h1M30 50h1M32 50h1M39 50h1" />
<path stroke="#ce9c21" d="M31 48h1M31 50h1" />
</svg>