<svg xmlns="http://www.w3.org/2000/svg" viewBox="0 -0.5 68 56" shape-rendering="crispEdges">
<metadata>Made with Pixels to Svg https://codepen.io/shshaw/pen/XbxvNj</metadata>
<path stroke="#000000" d="M26 29h3M25 30h1M29 30h1M35 30h3M25 31h1M29 31h1M34 31h1M38 31h1M25 32h1M30 32h1M33 32h1M38 32h1M25 33h1M30 33h1M33 33h1M39 33h1M25 34h1M30 34h1M32 34h1M39 34h1M26 35h1M31 35h1M39 35h1M42 35h2M26 36h1M38 36h1M41 36h1M44 36h1M24 37h3M38 37h1M41 37h1M45 37h1M23 38h1M37 38h1M40 38h1M45 38h1M22 39h2M37 39h1M40 39h1M45 39h1M21 40h1M30 40h1M38 40h1M40 40h1M46 40h1M22 41h3M39 41h1M46 41h1M25 42h1M46 42h1M25 43h1M46 43h1M23 44h2M28 44h3M46 44h1M22 45h1M27 45h1M31 45h1M46 45h1M21 46h1M26 46h1M28 46h3M45 46h1M21 47h2M25 47h1M27 47h1M45 47h1M23 48h2M27 48h1M44 48h1M26 49h1M32 49h2M43 49h1M26 50h2M31 50h1M33 50h2M37 50h1M44 50h1M28 51h3M35 51h2M38 51h2M45 51h1M40 52h1M45 52h1M41 53h4" />
<path stroke="#63739c" d="M26 30h1M28 31h1M36 31h1M28 32h2M36 32h1M28 33h2M36 33h1M38 33h1M28 34h2M35 34h1M37 34h2M29 35h2M35 35h1M37 35h1M34 36h1M36 36h2M43 36h1M36 37h1M43 37h1M42 38h2M42 39h1M44 39h1M42 40h1M44 40h1M41 41h1M43 41h3M39 42h1M41 42h1M43 42h2M40 43h1M42 43h2M45 43h1M44 44h2M43 45h3M44 47h1M43 48h1" />
<path stroke="#7b94b5" d="M27 30h1M26 31h1M35 31h1M37 31h1M26 32h1M34 32h1M26 33h1M34 33h1M26 34h1M33 34h1M27 35h1M33 35h1M27 36h1M32 36h1M42 36h1M32 37h1M42 37h1M31 38h1M41 38h1M41 39h1M41 40h1M40 41h1M40 42h1M33 44h1M34 45h1M35 46h1" />
<path stroke="#414141" d="M28 30h1M27 31h1M27 32h1M35 32h1M37 32h1M27 33h1M35 33h1M37 33h1M27 34h1M34 34h1M36 34h1M28 35h1M32 35h1M34 35h1M36 35h1M38 35h1M28 36h1M31 36h1M33 36h1M35 36h1M27 37h1M31 37h1M33 37h3M37 37h1M44 37h1M26 38h2M30 38h1M32 38h1M36 38h1M44 38h1M24 39h2M43 39h1M25 40h1M37 40h1M43 40h1M45 40h1M42 41h1M26 42h1M36 42h3M42 42h1M45 42h1M27 43h1M33 43h2M37 43h1M39 43h1M41 43h1M44 43h1M35 44h2M38 44h1M40 44h1M42 44h2M39 45h1M25 46h1M36 46h1M39 46h2M43 46h2M24 47h1M35 47h1M40 47h1M42 47h2M33 48h2M40 48h1M42 48h1M39 49h1M35 50h1M39 50h1M44 52h1" />
<path stroke="#5aa5e6" d="M29 36h1M28 37h1M35 38h1M27 39h1M29 39h1M36 39h1M28 42h1M38 43h1M39 44h1M41 44h1M23 45h1M40 45h3M22 46h1M24 46h1M41 46h2M23 47h1M29 48h2M36 48h1M27 49h5M29 50h2M40 50h2M43 50h1M41 51h4M41 52h1M43 52h1" />
<path stroke="#84ceff" d="M30 36h1M29 37h2M28 38h2M33 38h2M28 39h1M32 39h4M26 40h3M32 40h2M25 41h5M31 41h2M27 42h1M29 42h4M28 43h4M34 44h1M37 44h1M35 45h4M37 46h1M36 47h1M39 47h1M35 48h1M38 48h2M34 49h1M36 49h1M38 49h1M36 50h1M38 50h1" />
<path stroke="#d66342" d="M24 38h2M22 40h3M34 40h3M33 41h1M33 42h1M28 47h2" />
<path stroke="#e6843a" d="M26 39h1M31 39h1M31 40h1M30 41h1M34 41h1M36 41h1M35 43h1M25 44h2M24 45h2M41 48h1M41 49h1M42 50h1" />
<path stroke="#ffffff" d="M30 39h1" />
<path stroke="#4a73ad" d="M29 40h1M26 43h1M32 43h1M27 44h1M31 44h1M26 45h1M23 46h1M31 46h1M30 47h3M41 47h1M28 48h1M31 48h2M35 49h1M37 49h1M40 49h1M28 50h1M40 51h1M42 52h1" />
<path stroke="#f7a53a" d="M35 41h1M37 41h2M34 42h2M36 43h1M38 46h1M37 47h2M37 48h1M42 49h1" />
<path stroke="#adbdbd" d="M32 44h1M32 45h2M32 46h3M33 47h2" />
</svg>