<svg xmlns="http://www.w3.org/2000/svg" viewBox="0 -0.5 68 56" shape-rendering="crispEdges">
<metadata>Made with Pixels to Svg https://codepen.io/shshaw/pen/XbxvNj</metadata>
<path stroke="#000000" d="M29 33h3M28 34h1M32 34h1M27 35h1M33 35h1M27 36h1M34 36h2M38 36h3M27 37h1M36 37h2M41 37h1M28 38h1M42 38h1M29 39h1M42 39h1M28 40h1M30 40h1M42 40h1M28 41h1M34 41h1M41 41h1M28 42h1M35 42h1M39 42h2M29 43h1M39 43h1M29 44h1M38 44h1M29 45h1M37 45h1M28 46h1M38 46h1M28 47h1M39 47h1M29 48h1M39 48h1M28 49h1M38 49h1M29 50h4M37 50h1M33 51h1M37 51h1M34 52h3" />
<path stroke="#f79c29" d="M29 34h1M28 35h5M28 36h1M31 36h1M34 37h1M38 37h1M30 38h1M32 38h4M37 38h1M39 38h3M32 39h2M35 39h4M41 39h1M31 40h1M34 40h4M29 41h1M33 41h1M36 41h2M36 42h1M35 43h1M30 45h3M30 46h2M33 46h2M36 46h1M32 47h3M37 47h2M33 48h3M37 48h2M34 50h2" />
<path stroke="#ffbd73" d="M30 34h2M39 37h2M38 38h1M31 44h2" />
<path stroke="#414141" d="M29 36h2M32 36h2M29 37h2M29 40h1M38 40h2M38 41h2M34 42h1M31 43h2M30 44h1M33 44h1M33 45h1M36 45h1M32 46h1M36 48h1M31 49h1M37 49h1" />
<path stroke="#bd7b3a" d="M28 37h1M31 37h1M35 37h1M29 38h1M36 38h1M39 39h2M40 40h2M40 41h1M38 42h1M37 43h2M35 44h3M34 45h2M29 46h1M35 46h1M37 46h1M30 47h2M36 47h1M30 49h1M32 49h1M34 49h3M33 50h1M36 50h1M35 51h1" />
<path stroke="#efce7b" d="M32 37h2M31 38h1M31 39h1M34 39h1M32 40h2" />
<path stroke="#ffffff" d="M30 39h1M35 41h1M29 49h1M34 51h1M36 51h1" />
<path stroke="#ffff52" d="M30 41h1M32 41h1M29 42h5M30 43h1M33 43h2" />
<path stroke="#848473" d="M31 41h1" />
<path stroke="#de8c31" d="M37 42h1M36 43h1M29 47h1M35 47h1M30 48h3M33 49h1" />
<path stroke="#bda542" d="M34 44h1" />
</svg>