<svg xmlns="http://www.w3.org/2000/svg" viewBox="0 -0.5 68 56" shape-rendering="crispEdges">
<metadata>Made with Pixels to Svg https://codepen.io/shshaw/pen/XbxvNj</metadata>
<path stroke="#317b42" d="M34 28h1M33 29h1M35 29h1M37 29h1M36 30h1M38 30h1M38 31h1M24 38h2M28 38h1M26 39h2M43 40h2M41 41h2" />
<path stroke="#000000" d="M28 29h2M31 29h1M27 30h1M30 30h1M32 30h1M28 31h1M40 31h2M28 32h1M39 32h1M42 32h1M28 33h1M41 33h1M28 34h1M41 34h1M29 35h2M40 35h1M25 36h3M31 36h1M40 36h1M24 37h1M28 37h2M31 37h1M37 37h3M23 38h1M30 38h1M37 38h1M41 38h3M22 39h1M38 39h3M44 39h1M22 40h1M27 40h3M45 40h1M22 41h1M27 41h1M30 41h1M40 41h1M46 41h1M22 42h1M24 42h1M31 42h1M39 42h1M41 42h1M46 42h1M23 43h1M25 43h1M27 43h2M30 43h1M38 43h1M40 43h1M46 43h1M26 44h1M29 44h1M39 44h1M44 44h1M46 44h1M25 45h1M43 45h1M45 45h1M25 46h2M42 46h2M27 47h1M41 47h1M26 48h1M29 48h1M39 48h1M42 48h1M26 49h1M28 49h1M30 49h1M34 49h1M38 49h1M40 49h1M42 49h1M26 50h2M29 50h1M32 50h2M35 50h2M39 50h1M41 50h2M29 51h1M31 51h1M37 51h1M39 51h1M30 52h1M38 52h1" />
<path stroke="#63bd84" d="M34 29h1M33 30h3M34 31h2" />
<path stroke="#b59473" d="M28 30h2M31 30h1M29 31h1M31 31h1M31 32h2M40 32h2M32 33h2M39 33h2M38 34h3M37 35h3M38 36h1M36 37h1M31 38h1M35 38h2M30 39h1M32 39h6M33 40h1M35 40h1M39 40h2M38 41h2M43 41h2M32 42h1M34 42h1M36 42h1M38 42h1M44 42h2M31 43h7M42 43h2M45 43h1M31 44h1M33 44h1M35 44h1M37 44h1M43 44h1M45 44h1M30 45h1M38 45h1M29 46h2M32 46h1M35 46h1M37 46h3M29 47h2M33 47h3M38 47h2M31 48h2M34 48h1M36 48h2M31 49h2M36 49h2M30 50h1" />
<path stroke="#429c6b" d="M37 30h1M33 31h1M36 31h2M35 32h4M37 33h1M25 37h3M26 38h2M41 39h3M41 40h2" />
<path stroke="#414141" d="M30 31h1M32 31h1M30 32h1M33 32h2M31 33h1M35 33h2M38 33h1M29 34h1M31 34h2M37 34h1M33 35h2M35 36h1M35 37h1M32 38h3M29 39h1M31 39h1M30 40h3M34 40h1M36 40h3M31 41h7M26 42h1M33 42h1M35 42h1M37 42h1M41 43h1M30 44h1M32 44h1M34 44h1M36 44h1M38 44h1M42 44h1M29 45h1M31 45h7M39 45h1M27 46h1M31 46h1M33 46h2M36 46h1M41 46h1M30 48h1M38 48h1" />
<path stroke="#947352" d="M29 32h1M29 33h2M34 33h1M30 34h1M33 34h4M31 35h1M35 35h2M36 36h2M39 36h1M29 38h1M24 39h2M28 39h1M23 40h2M23 41h1M25 41h2M45 41h1M23 42h1M25 42h1M42 42h2M44 43h1M27 44h2M40 44h2M26 45h3M40 45h3M28 47h1M31 47h2M36 47h2M40 47h1M27 48h2M40 48h2M27 49h1M33 49h1M35 49h1M41 49h1M31 50h1M37 50h2M30 51h1M38 51h1" />
<path stroke="#ff8ca5" d="M32 35h1M32 36h1M34 36h1M33 37h1" />
<path stroke="#ad637b" d="M33 36h1M32 37h1M34 37h1" />
<path stroke="#735a42" d="M23 39h1M25 40h2M24 41h1M28 46h1M40 46h1M33 48h1M35 48h1" />
</svg>