<svg xmlns="http://www.w3.org/2000/svg" viewBox="0 -0.5 68 56" shape-rendering="crispEdges">
<metadata>Made with Pixels to Svg https://codepen.io/shshaw/pen/XbxvNj</metadata>
<path stroke="#000000" d="M36 29h2M40 29h1M33 30h2M36 30h1M38 30h2M41 30h1M33 31h1M35 31h1M41 31h1M32 32h1M42 32h2M31 33h1M44 33h1M32 34h2M43 34h1M34 35h1M43 35h1M32 36h1M34 36h1M43 36h1M28 37h1M31 37h1M33 37h1M35 37h1M41 37h1M27 38h1M29 38h2M41 38h1M22 39h3M27 39h1M42 39h1M22 40h1M25 40h2M42 40h1M23 41h1M40 41h2M24 42h1M40 42h1M25 43h1M40 43h2M24 44h1M42 44h1M23 45h1M42 45h1M24 46h2M41 46h1M26 47h1M41 47h1M25 48h1M41 48h1M24 49h1M27 49h2M42 49h1M24 50h3M29 50h1M41 50h1M29 51h1M37 51h4M30 52h1M33 52h2M36 52h1M30 53h1M32 53h1M35 53h1M31 54h1" />
<path stroke="#f65a5a" d="M37 30h1M40 30h1M34 31h1M34 32h2M32 33h3M43 33h1M35 34h2M35 35h4M40 35h3M38 36h4M32 37h1M39 37h2M28 38h1M32 38h1M40 38h1M28 39h2M32 39h2M33 40h2M34 41h3M36 42h4M28 43h1M28 44h1M31 45h1M37 46h1M36 47h2M27 48h1M37 48h1M30 49h1M38 49h1M30 50h3M33 51h1" />
<path stroke="#ffe641" d="M36 31h3M40 31h1M36 32h2M41 32h1M35 33h4M40 33h3M37 34h5M39 35h1M35 38h1M31 39h1M36 39h2M40 39h2M27 40h2M31 40h2M40 40h2M28 41h1M32 41h2M29 42h1M32 42h4M30 43h2M34 43h4M30 44h1M36 44h1M29 45h1M36 45h1M26 46h4M35 46h2M29 47h2M34 47h2M29 48h1M31 48h2M35 48h2M36 49h2M35 50h1" />
<path stroke="#8b6262" d="M39 31h1M38 32h3M39 33h1M23 40h2M24 41h3M30 41h1M25 42h2M26 43h2M32 44h2M24 45h2M32 45h2M32 46h2M25 49h2M33 49h2M31 51h2M31 52h2M31 53h1" />
<path stroke="#414141" d="M33 32h1M34 34h1M42 34h1M35 36h3M42 36h1M33 38h2M37 38h1M34 39h1M38 39h1M29 40h2M35 40h4M27 41h1M29 41h1M31 41h1M38 41h2M28 42h1M30 42h2M29 43h1M32 43h2M25 44h2M29 44h1M31 44h1M34 44h2M39 44h1M26 45h3M30 45h1M35 45h1M39 45h1M30 46h1M34 46h1M38 46h3M27 47h2M31 47h3M38 47h1M28 48h1M30 48h1M33 48h2M39 48h1M29 49h1M31 49h2M35 49h1M39 49h1M33 50h2M38 50h1M34 51h1" />
<path stroke="#c5c5c5" d="M34 37h1M38 37h1M40 44h2M40 45h2" />
<path stroke="#ffffff" d="M36 37h2" />
<path stroke="#bd5252" d="M31 38h1M30 39h1M37 41h1M27 42h1M38 43h2M27 44h1M37 44h2M34 45h1M37 45h2M31 46h1M26 48h1M38 48h1M40 49h2M36 50h2M39 50h2M30 51h1M35 51h2M35 52h1" />
<path stroke="#949c73" d="M36 38h1M38 38h1M35 39h1M39 47h2M40 48h1" />
<path stroke="#c5c5a4" d="M39 38h1M39 39h1M39 40h1" />
</svg>