<svg xmlns="http://www.w3.org/2000/svg" viewBox="0 -0.5 68 56" shape-rendering="crispEdges">
<metadata>Made with Pixels to Svg https://codepen.io/shshaw/pen/XbxvNj</metadata>
<path stroke="#000000" d="M33 33h2M32 34h1M35 34h1M32 35h1M35 35h1M32 36h1M35 36h1M32 37h1M35 37h1M31 38h1M35 38h2M30 39h1M37 39h1M30 40h1M37 40h1M29 41h1M38 41h1M29 42h1M38 42h1M29 43h1M33 43h1M38 43h1M30 44h1M32 44h1M38 44h1M30 45h1M37 45h1M31 46h1M36 46h1M32 47h1M35 47h1M32 48h1M35 48h1M32 49h1M35 49h1M32 50h1M35 50h1M32 51h1M35 51h1M33 52h2" />
<path stroke="#a5a5a5" d="M33 34h1M35 39h1M36 40h1M37 41h1M37 42h1M32 43h1" />
<path stroke="#6b6b6b" d="M34 34h1M31 40h1M30 41h1M30 42h1M30 43h1" />
<path stroke="#848484" d="M33 35h1M33 36h1M33 37h1M33 38h1M31 39h2M36 39h1M33 42h1M37 43h1M37 44h1M33 48h1M33 49h1M33 50h1M33 51h1" />
<path stroke="#414141" d="M34 35h1M34 36h1M34 37h1M32 38h1M34 38h1M33 39h2M35 40h1M36 41h1M32 42h1M36 42h1M36 43h1M33 44h1M36 44h1M36 45h1M35 46h1M33 47h2M34 48h1M34 49h1M34 50h1M34 51h1" />
<path stroke="#cecece" d="M32 40h1M34 40h1M31 41h1M35 41h1M31 45h1M35 45h1M32 46h1M34 46h1" />
<path stroke="#ffffff" d="M33 40h1M32 41h3M31 42h1M34 42h2M31 43h1M34 43h2M31 44h1M34 44h2M32 45h3M33 46h1" />
</svg>