<svg xmlns="http://www.w3.org/2000/svg" viewBox="0 -0.5 68 56" shape-rendering="crispEdges">
<metadata>Made with Pixels to Svg https://codepen.io/shshaw/pen/XbxvNj</metadata>
<path stroke="#000000" d="M30 37h4M29 38h1M33 38h2M28 39h1M35 39h1M28 40h1M35 40h2M27 41h1M36 41h1M27 42h1M36 42h1M27 43h1M31 43h1M36 43h1M28 44h1M30 44h1M36 44h1M28 45h1M35 45h1M29 46h1M36 46h1M38 46h2M30 47h4M37 47h1M40 47h1M34 48h1M40 48h1M35 49h1M39 49h1M36 50h1M40 50h1M37 51h1M40 51h1M38 52h2" />
<path stroke="#414141" d="M30 38h1M31 39h2M33 40h1M34 41h1M30 42h1M34 42h1M34 43h1M31 44h1M34 44h1M34 45h1M33 46h1M35 46h1M36 47h1M38 47h1M37 48h1M39 48h1M38 49h1M39 50h1" />
<path stroke="#848484" d="M31 38h2M29 39h2M34 39h1M31 42h1M35 43h1M35 44h1M34 46h1M35 47h1M39 47h1M36 48h1M38 48h1M37 49h1M38 50h1M39 51h1" />
<path stroke="#a5a5a5" d="M33 39h1M34 40h1M35 41h1M35 42h1M30 43h1M29 45h1M30 46h1" />
<path stroke="#6b6b6b" d="M29 40h1M28 41h1M28 42h1M28 43h1M34 47h1M35 48h1M36 49h1M37 50h1M38 51h1" />
<path stroke="#cecece" d="M30 40h1M32 40h1M29 41h1M33 41h1M33 45h1M32 46h1" />
<path stroke="#ffffff" d="M31 40h1M30 41h3M29 42h1M32 42h2M29 43h1M32 43h2M29 44h1M32 44h2M30 45h3M31 46h1" />
</svg>