<svg xmlns="http://www.w3.org/2000/svg" viewBox="0 -0.5 68 56" shape-rendering="crispEdges">
<metadata>Made with Pixels to Svg https://codepen.io/shshaw/pen/XbxvNj</metadata>
<path stroke="#000000" d="M32 39h3M38 39h1M30 40h2M35 40h3M39 40h1M41 40h1M29 41h1M39 41h2M42 41h1M26 42h1M28 42h1M32 42h1M40 42h1M42 42h1M25 43h1M27 43h2M31 43h1M33 43h1M42 43h1M25 44h1M27 44h1M31 44h1M33 44h1M41 44h1M25 45h1M27 45h1M31 45h1M33 45h1M41 45h1M25 46h1M27 46h1M31 46h1M33 46h1M41 46h1M26 47h1M28 47h1M30 47h1M32 47h1M40 47h1M26 48h1M39 48h1M26 49h1M39 49h1M27 50h1M31 50h1M35 50h2M38 50h1M27 51h2M31 51h2M34 51h1M37 51h2M29 52h2M33 52h2" />
<path stroke="#c54a6b" d="M32 40h3M38 40h1M30 41h1M32 41h3M38 41h1M41 41h1M29 42h3M33 42h3M41 42h1M29 43h2M34 43h2M26 44h1M28 44h3M32 44h1M34 44h2M28 45h1M30 45h1M34 45h3M34 46h2M27 47h1M29 47h1M31 47h1M33 47h2M36 47h2M28 48h3M33 48h2M36 48h1M28 49h2M31 49h1M28 50h2M29 51h1" />
<path stroke="#ce7384" d="M31 41h1M26 43h1M32 43h1" />
<path stroke="#414141" d="M35 41h1M36 42h1M39 42h1M36 43h1M40 43h1M36 44h1M40 44h1M26 45h1M29 45h1M32 45h1M37 45h1M26 46h1M28 46h3M32 46h1M36 46h2M35 47h1M38 47h1M27 48h1M31 48h2M35 48h1M38 48h1M30 49h1M33 49h1M35 49h1M37 49h2M34 50h1M37 50h1M30 51h1M33 51h1" />
<path stroke="#4a944a" d="M36 41h1M37 42h1M37 43h1M39 43h1M37 44h1M39 44h1M38 45h1M38 46h1" />
<path stroke="#3a6331" d="M37 41h1M38 42h1M38 43h1M38 44h1M39 45h1M39 46h1M39 47h1" />
<path stroke="#a54263" d="M41 43h1M40 45h1M40 46h1M37 48h1M34 49h1M36 49h1M33 50h1" />
<path stroke="#d67329" d="M27 49h1M32 49h1M30 50h1" />
<path stroke="#f7e629" d="M32 50h1" />
</svg>