<svg xmlns="http://www.w3.org/2000/svg" viewBox="0 -0.5 68 56" shape-rendering="crispEdges">
<metadata>Made with Pixels to Svg https://codepen.io/shshaw/pen/XbxvNj</metadata>
<path stroke="#000000" d="M26 31h3M25 32h2M29 32h1M38 32h2M25 33h1M30 33h2M36 33h2M40 33h1M25 34h1M32 34h1M34 34h2M41 34h4M26 35h1M33 35h1M45 35h1M26 36h1M45 36h1M27 37h1M45 37h1M27 38h1M44 38h1M26 39h1M44 39h1M26 40h1M44 40h1M26 41h1M42 41h2M25 42h1M27 42h1M38 42h1M42 42h1M21 43h4M27 43h1M37 43h1M39 43h1M43 43h1M20 44h1M26 44h1M28 44h1M37 44h1M39 44h1M44 44h1M20 45h1M22 45h1M25 45h1M29 45h1M36 45h1M39 45h1M44 45h1M21 46h1M23 46h2M30 46h1M35 46h2M38 46h2M44 46h1M30 47h1M34 47h1M38 47h1M44 47h1M31 48h2M34 48h1M36 48h1M38 48h1M43 48h1M33 49h1M35 49h1M37 49h1M40 49h3M34 50h1M39 50h1M35 51h4" />
<path stroke="#414141" d="M27 32h2M26 33h4M26 34h2M29 34h1M28 35h1M41 35h1M28 36h1M33 36h1M40 36h1M29 37h1M32 37h1M39 37h1M44 37h1M30 38h2M38 38h1M42 38h2M27 39h1M37 39h1M39 39h3M36 40h1M39 40h1M43 40h1M28 41h1M35 41h1M39 41h3M29 42h3M35 42h1M39 42h1M25 43h2M30 43h1M33 43h2M38 43h1M31 44h2M36 44h1M38 44h1M40 44h1M30 45h1M34 45h2M37 45h2M40 45h1M31 46h4M37 46h1M33 47h1" />
<path stroke="#737363" d="M38 33h2M36 34h5M36 35h5M37 36h3M38 37h1M26 42h1M40 43h1M24 44h2M41 44h1M24 45h1M41 45h1M40 46h1M39 47h1M36 49h1" />
<path stroke="#bda542" d="M28 34h1M27 35h1M35 35h1M27 36h1M28 37h1M37 37h1M37 40h1M36 41h1M34 42h1M36 42h1M28 43h2M35 43h2M29 44h2M33 44h3M31 45h3M42 45h2M41 46h3M31 47h2M40 47h4M33 48h1M41 48h2" />
<path stroke="#de4a3a" d="M30 34h1M29 35h2M29 36h2M30 37h1M33 40h1" />
<path stroke="#ad423a" d="M31 34h1M31 35h2M31 36h2M31 37h1M28 38h1M28 39h1M32 39h3M31 40h1M34 40h1M32 41h2" />
<path stroke="#f7de3a" d="M34 35h1M34 36h3M33 37h4M33 38h5M35 39h2M38 39h1M27 40h1M35 40h1M27 41h1M34 41h1M28 42h1M32 42h2M40 42h2M31 43h2M41 43h2M42 44h2M39 48h2M34 49h1M38 49h2M35 50h4" />
<path stroke="#def7ff" d="M42 35h3M41 36h4M41 37h3" />
<path stroke="#bdbdbd" d="M40 37h1M39 38h3M42 39h2M40 40h3" />
<path stroke="#f79429" d="M29 38h1M32 38h1M29 39h3M29 40h2M29 41h3M22 44h1M21 45h1M23 45h1M36 47h1M35 48h1M37 48h1" />
<path stroke="#ce6342" d="M28 40h1M38 40h1M37 41h2M37 42h1M21 44h1M23 44h1M35 47h1M37 47h1" />
<path stroke="#ffffff" d="M32 40h1" />
</svg>