<svg xmlns="http://www.w3.org/2000/svg" viewBox="0 -0.5 68 56" shape-rendering="crispEdges">
<metadata>Made with Pixels to Svg https://codepen.io/shshaw/pen/XbxvNj</metadata>
<path stroke="#000000" d="M30 31h2M29 32h1M31 32h2M28 33h1M32 33h3M27 34h1M35 34h1M27 35h1M36 35h2M26 36h1M37 36h1M26 37h1M38 37h1M23 38h3M27 38h1M38 38h1M21 39h2M31 39h1M38 39h1M20 40h1M26 40h1M39 40h2M20 41h1M24 41h2M27 41h1M41 41h2M20 42h1M23 42h1M27 42h1M43 42h1M20 43h1M22 43h2M28 43h1M44 43h1M21 44h2M29 44h1M38 44h2M45 44h1M28 45h1M38 45h1M40 45h2M46 45h1M27 46h1M39 46h1M42 46h1M46 46h1M27 47h1M40 47h1M43 47h1M46 47h1M26 48h1M32 48h3M41 48h1M43 48h1M45 48h1M26 49h2M31 49h1M35 49h1M41 49h1M43 49h2M27 50h4M36 50h2M42 50h1M37 51h1M41 51h2M38 52h4" />
<path stroke="#f7636b" d="M30 32h1M29 33h1M31 33h1M28 34h4M28 35h3M28 36h2M27 39h1" />
<path stroke="#414141" d="M30 33h1M32 34h1M31 35h1M31 36h1M30 37h1M25 39h1M21 41h1M22 42h1M30 44h1M29 45h1M45 47h1M28 48h1M29 49h1M40 50h1M39 51h1" />
<path stroke="#ffffff" d="M33 34h2M33 35h2M32 36h3M36 36h1M33 37h2M36 37h1M31 38h2M34 38h3M32 39h1M34 39h2M37 39h1M30 40h1M33 40h2M36 40h2M31 41h2M34 41h2M37 41h4M34 42h1M37 42h6M36 43h1M38 43h6M36 44h2M41 44h4M35 45h3M42 45h3M34 46h3M43 46h2M34 47h2M38 47h2M35 48h5M37 49h2" />
<path stroke="#bdbdbd" d="M32 35h1M35 37h1M36 39h1M21 40h1M25 40h1M38 40h1M22 41h1M36 42h1M33 43h1M37 43h1M32 44h4M40 44h1M31 45h4M45 45h1M37 46h2M32 47h2M36 47h2M31 48h1M40 48h1M30 49h1M36 49h1M39 49h2M38 50h2M38 51h1" />
<path stroke="#d6d6d6" d="M35 35h1M27 37h1M37 38h1M23 39h2M26 39h1M29 39h1M22 40h3M23 41h1M30 45h1M28 46h1M31 46h1M33 46h1M28 47h2M29 48h2" />
<path stroke="#94735a" d="M27 36h1M31 37h2M26 38h1M30 38h1M33 38h1M33 42h1M32 43h1" />
<path stroke="#bd4252" d="M30 36h1M28 37h2M28 39h1M27 40h2" />
<path stroke="#848484" d="M35 36h1M37 37h1M28 38h2M29 40h1M35 40h1M36 41h1M21 42h1M35 42h1M21 43h1M34 43h2M31 44h1M29 46h2M32 46h1M45 46h1M30 47h2M44 47h1M27 48h1M44 48h1M28 49h1M41 50h1M40 51h1" />
<path stroke="#bd9c7b" d="M30 39h1M33 39h1M31 40h2M28 42h1M29 43h3" />
<path stroke="#944263" d="M28 41h3M33 41h1M29 42h4" />
</svg>