<svg xmlns="http://www.w3.org/2000/svg" viewBox="0 -0.5 68 56" shape-rendering="crispEdges">
<metadata>Made with Pixels to Svg https://codepen.io/shshaw/pen/XbxvNj</metadata>
<path stroke="#000000" d="M31 31h3M30 32h1M34 32h2M29 33h1M36 33h1M29 34h1M37 34h1M30 35h1M37 35h1M31 36h1M38 36h1M29 37h2M39 37h1M28 38h1M39 38h1M27 39h1M29 39h2M40 39h1M26 40h1M30 40h1M35 40h1M40 40h1M22 41h4M36 41h1M40 41h1M21 42h1M28 42h1M41 42h1M22 43h1M27 43h1M29 43h1M41 43h1M43 43h2M23 44h4M29 44h1M41 44h2M45 44h1M30 45h1M37 45h2M41 45h1M43 45h2M31 46h1M36 46h1M38 46h1M42 46h1M30 47h1M37 47h1M39 47h1M43 47h1M30 48h1M38 48h2M43 48h1M31 49h1M38 49h1M40 49h1M42 49h1M31 50h1M37 50h1M41 50h1M32 51h2M37 51h1M34 52h3" />
<path stroke="#73ceff" d="M31 32h2M30 33h4M31 34h2M37 36h1M31 37h2M36 37h3M30 38h9M28 39h1M31 39h9M27 40h1M29 40h1M31 40h3M36 40h1M38 40h2M26 41h2M29 41h4M35 41h1M38 41h2M22 42h6M30 42h1M32 42h5M38 42h3M23 43h4M33 43h1M35 43h1M39 43h2M39 44h1M31 47h2M36 47h1M32 48h6M32 49h1M35 49h1" />
<path stroke="#63a5d6" d="M33 32h1M34 33h1M30 34h1M33 34h3M31 35h6M33 36h4M34 41h1M37 43h1M30 44h1M37 44h1M40 44h1M31 45h1M36 45h1M39 45h2M39 46h3M33 47h3M40 47h3M40 48h3M41 49h1M36 50h1M34 51h2" />
<path stroke="#427b9c" d="M35 33h1M36 34h1M35 37h1M37 40h1M33 41h1M37 41h1M37 42h1M34 49h1M32 50h2" />
<path stroke="#414141" d="M32 36h1M33 37h2M29 38h1M28 40h1M34 40h1M28 41h1M29 42h1M31 42h1M30 43h1M32 43h1M34 43h1M36 43h1M38 43h1M33 44h1M35 44h1M38 44h1M43 44h2M42 45h1M32 46h1M35 46h1M31 48h1M33 49h1M36 49h2M34 50h2M36 51h1" />
<path stroke="#d65a5a" d="M31 43h1M31 44h2M34 44h1M36 44h1M32 45h1" />
<path stroke="#ff947b" d="M33 45h3M33 46h2" />
</svg>