<svg xmlns="http://www.w3.org/2000/svg" viewBox="0 -0.5 68 56" shape-rendering="crispEdges">
<metadata>Made with Pixels to Svg https://codepen.io/shshaw/pen/XbxvNj</metadata>
<path stroke="#000000" d="M21 32h3M26 32h2M21 33h1M24 33h3M28 33h2M37 33h2M22 34h1M30 34h1M35 34h2M38 34h1M40 34h2M23 35h1M30 35h1M34 35h1M38 35h2M41 35h1M21 36h2M31 36h1M34 36h1M41 36h1M20 37h1M32 37h1M34 37h1M41 37h2M21 38h2M33 38h2M42 38h1M23 39h2M40 39h2M25 40h2M39 40h1M26 41h1M40 41h5M25 42h1M44 42h1M25 43h1M44 43h2M26 44h1M29 44h1M46 44h2M25 45h1M48 45h1M24 46h1M28 46h1M34 46h2M46 46h3M23 47h1M26 47h2M29 47h1M32 47h2M36 47h1M45 47h1M22 48h1M24 48h2M30 48h2M37 48h2M41 48h2M46 48h1M22 49h2M39 49h1M41 49h1M43 49h2M47 49h1M40 50h2M45 50h3" />
<path stroke="#c5ad4a" d="M22 33h2M27 33h1M23 34h2M24 35h1M35 36h1M40 36h1M21 37h3M23 38h2M25 39h1M30 39h1M33 39h1M31 40h1M28 44h1M31 44h1M33 44h2M29 46h1M32 46h1M44 46h1M37 47h1" />
<path stroke="#414141" d="M25 34h3M29 34h1M25 35h1M27 35h2M36 35h1M23 36h4M24 37h1M26 37h1M30 37h2M40 37h1M25 38h1M29 38h1M31 38h1M35 38h1M26 39h1M28 39h1M31 39h2M35 39h1M27 40h1M30 40h1M34 40h1M37 40h2M33 41h4M39 41h1M31 42h1M36 42h1M26 43h1M31 43h1M34 43h2M41 43h3M27 44h1M35 44h2M39 44h2M42 44h1M28 45h1M34 45h1M36 45h2M39 45h1M41 45h1M43 45h1M38 46h2M42 46h2M45 46h1M31 47h1M40 47h2" />
<path stroke="#63635a" d="M28 34h1M26 35h1M29 35h1M27 36h4M25 37h1M27 37h3M26 38h3M32 38h1M27 39h1M37 41h2M37 42h7M36 43h5M37 44h2M41 44h1M38 45h1M42 45h1" />
<path stroke="#f7e629" d="M37 34h1M35 35h1M37 35h1M40 35h1M36 36h4M35 37h5M30 38h1M36 38h6M29 39h1M34 39h1M36 39h4M28 40h2M32 40h2M35 40h2M27 41h6M26 42h4M32 42h4M27 43h2M32 43h2M32 44h1M43 44h3M29 45h4M35 45h1M40 45h1M44 45h4M30 46h1M33 46h1M36 46h2M40 46h2M30 47h1M38 47h2M42 47h3M39 48h2M43 48h3M40 49h1M45 49h2" />
<path stroke="#8c844a" d="M30 42h1M29 43h1M33 45h1M31 46h1" />
<path stroke="#ffffff" d="M30 43h1M30 44h1" />
<path stroke="#e68c29" d="M26 45h2M25 46h3M24 47h2M23 48h1" />
</svg>