<svg xmlns="http://www.w3.org/2000/svg" viewBox="0 -0.5 64 64" shape-rendering="crispEdges">
<metadata>Made with Pixels to Svg https://codepen.io/shshaw/pen/XbxvNj</metadata>
<path stroke="#a090c8" d="M54 1h1M53 2h1M60 2h1M59 3h1M45 4h1M55 4h1M58 4h1M53 5h7M42 6h1M53 6h5M48 7h1M54 7h3M45 8h4M44 9h4M34 23h1M34 24h1M17 25h1M33 25h2M6 26h1M16 26h1M27 26h1M33 26h1M6 27h2M15 27h1M26 27h1M31 27h3M7 28h2M12 28h1M26 28h1M29 28h4M8 29h4M26 29h6M9 30h3M25 30h1M27 30h3M15 31h1M26 31h1M14 32h1M17 33h1M15 34h3M55 34h3M56 35h4M56 36h3M60 36h1M56 37h1M58 37h2M59 38h1" />
<path stroke="#584868" d="M56 1h2M55 2h1M58 2h2M53 3h1M53 4h1M59 4h1M46 5h1M48 5h2M52 5h1M60 5h1M44 6h1M47 6h1M49 6h1M42 7h1M43 8h1M49 8h1M32 21h2M7 22h1M34 22h1M6 23h1M8 23h1M32 23h1M35 23h1M30 24h2M5 25h1M9 25h1M20 25h1M29 25h1M5 26h1M11 26h1M17 26h1M24 26h1M26 26h1M34 26h1M18 27h1M23 27h1M25 27h1M6 28h1M15 28h1M18 28h1M23 28h1M25 28h1M7 29h1M16 29h2M25 29h1M26 30h1M16 31h2M24 31h2M18 32h1M25 32h1M58 32h2M14 33h1M55 33h2M59 33h1M14 34h1M18 34h1M60 34h1M17 35h1M55 35h1M60 35h1M59 36h1M61 36h1M57 37h1M60 38h1" />
<path stroke="#e8d8f8" d="M54 2h1M56 2h2M54 3h1M56 3h1M45 6h1M45 7h2M33 22h1M7 23h1M7 25h1M31 25h1M8 26h2M25 26h1M29 26h2M8 27h5M17 27h1M24 27h1M27 27h3M10 28h2M24 28h1M16 32h1M15 33h2M23 34h1M21 36h1" />
<path stroke="#c8c0f8" d="M55 3h1M57 3h2M54 4h1M56 4h2M45 5h1M46 6h1M48 6h1M43 7h2M47 7h1M44 8h1M33 23h1M6 24h2M32 24h2M6 25h1M8 25h1M18 25h2M30 25h1M32 25h1M7 26h1M10 26h1M28 26h1M31 26h2M30 27h1M9 28h1M16 28h2M27 28h2M24 29h1M17 32h1M57 33h2M58 34h2" />
<path stroke="#101010" d="M52 6h1M58 6h2M49 7h1M53 7h1M57 7h1M55 8h2M43 9h1M48 9h1M54 9h1M46 10h2M54 10h1M54 11h1M55 12h1M33 13h2M42 13h1M56 13h1M35 14h1M42 14h1M43 15h2M57 15h1M37 16h1M45 16h2M57 16h1M38 17h1M47 17h2M58 17h1M39 18h1M49 18h1M58 18h1M51 20h1M55 20h3M44 21h1M52 21h2M58 21h2M32 22h1M45 22h2M50 22h1M57 22h1M60 22h1M47 23h1M55 23h2M8 24h1M35 24h1M48 24h1M53 24h2M62 24h1M10 25h1M25 25h4M35 25h1M49 25h3M62 25h1M12 26h2M62 26h1M34 27h1M33 28h1M39 28h1M61 28h1M23 29h1M32 29h1M38 29h1M60 29h1M24 30h1M30 30h2M59 30h1M27 31h3M51 31h1M59 31h1M6 32h1M26 32h2M39 32h1M51 32h1M7 33h1M18 33h1M27 33h1M38 33h1M51 33h1M8 34h1M22 34h1M27 34h1M37 34h1M51 34h1M54 34h1M12 35h1M15 35h2M22 35h1M26 35h1M37 35h1M51 35h1M13 36h1M26 36h1M55 36h1M8 37h1M14 37h1M25 37h1M55 37h1M60 37h2M9 38h1M36 38h1M50 38h1M56 38h1M58 38h1M10 39h1M23 39h1M59 39h2M23 40h1M49 40h1M12 41h1M23 41h1M49 41h1M13 42h1M17 42h1M22 42h1M30 42h1M49 42h1M18 43h4M31 43h1M38 43h1M40 43h1M49 43h1M16 44h1M38 44h1M41 44h1M48 44h1M37 45h1M42 45h1M37 46h1M43 46h2M10 47h1M27 47h1M29 47h1M45 47h1M11 48h1M17 48h1M20 48h1M22 48h1M26 48h1M29 48h1M36 48h1M46 48h1M50 48h1M13 49h1M18 49h1M21 49h1M25 49h1M29 49h1M36 49h1M47 49h1M50 49h1M14 50h1M19 50h1M36 50h1M48 50h2M15 51h2M19 51h1M30 51h1M17 52h2M30 52h1M35 53h1M35 54h1M31 55h1M35 55h1M31 56h1M35 56h1M31 57h1M35 57h1M32 58h3" />
<path stroke="#806830" d="M54 8h1M53 9h1M44 10h2M53 10h1M43 11h2M53 11h1M20 12h3M30 12h3M43 12h1M54 12h1M43 13h1M54 13h2M43 14h2M55 14h2M36 15h1M56 15h1M56 16h1M57 17h1M40 18h1M50 18h2M57 18h1M41 19h1M51 19h2M54 19h2M42 20h1M52 20h3M43 21h1M49 21h3M56 21h2M48 22h2M51 22h2M55 22h2M48 23h2M51 23h4M62 23h1M49 24h4M61 24h1M61 25h1M49 26h1M61 26h1M50 27h1M60 27h2M50 28h1M60 28h1M50 29h1M59 29h1M51 30h1M58 30h1M11 31h1M58 31h1M11 32h1M57 32h1M11 33h1M51 36h1M50 37h1M39 39h1M49 39h1M39 40h1M39 41h1M11 42h2M38 42h1M10 43h1M39 43h1M49 44h1M9 45h1M47 45h1M49 45h1M9 46h1M29 46h1M45 46h2M17 47h2M36 47h1M50 47h1M12 48h1M12 49h1M48 49h2M17 50h2M30 50h1M17 51h2M36 51h1M35 52h1M30 53h1M31 54h1M32 56h3M32 57h3" />
<path stroke="#d0b838" d="M23 11h7M45 15h2M47 16h2M49 17h2M56 19h3M58 20h3M60 21h2M61 22h1M61 23h1M48 27h1M49 28h1M39 29h2M46 29h1M48 29h1M23 30h1M39 30h3M45 30h1M47 30h1M49 30h2M40 31h7M48 31h3M24 32h1M40 32h11M24 33h3M39 33h12M21 34h1M24 34h3M38 34h13M13 35h2M18 35h3M24 35h2M38 35h13M15 36h5M23 36h3M38 36h13M20 37h4M37 37h13M20 38h4M37 38h13M20 39h3M36 39h3M40 39h9M22 40h1M35 40h4M40 40h9M35 41h4M40 41h9M21 42h1M33 42h5M39 42h10M30 43h1M32 43h6M41 43h8M9 44h1M30 44h1M34 44h4M42 44h6M16 45h1M35 45h2M43 45h4M48 45h1M15 46h3M35 46h2M47 46h3M14 47h3M35 47h1M46 47h4M13 48h4M34 48h2M47 48h3M14 49h4M30 49h1M34 49h2M15 50h2M34 50h2M34 51h2M31 52h4M31 53h4M32 54h3M32 55h3" />
<path stroke="#f8f860" d="M23 12h7M20 13h1M24 13h9M25 14h2M30 14h4M31 15h1M16 24h2M16 25h1M15 26h1M20 26h1M14 27h1M19 27h3M14 28h1M19 28h3M13 29h2M19 29h3M13 30h8M13 31h2M18 31h2M10 44h3M10 45h4M10 46h3" />
<path stroke="#187800" d="M18 13h1M14 14h1M17 14h1M13 15h1M25 15h1M12 16h1M34 16h1M10 19h1M9 20h1M35 21h3M35 22h2M16 23h1M36 23h1M15 24h1M36 24h1M36 25h2M35 26h4M35 27h6M35 28h4M35 29h3M35 30h3M6 31h1M34 31h5M28 32h2M34 32h5M28 33h2M33 33h5M28 34h1M34 34h3M27 35h2M33 35h4M27 36h1M33 36h5M26 37h3M30 37h1M32 37h5M25 38h4M30 38h6M24 39h10M17 40h5M24 40h9M17 41h5M24 41h10M23 42h7M31 42h1M16 43h2M22 43h8M17 44h12M17 45h12M20 46h9M20 47h3M24 47h3M21 48h1M24 48h2" />
<path stroke="#304818" d="M19 13h1M21 13h3M20 14h1M24 14h1M28 14h2M15 15h2M26 15h1M30 15h1M33 15h1M31 16h2M12 17h1M34 17h1M12 18h1M34 18h2M11 19h1M36 19h1M36 20h3M9 21h1M38 21h1M37 22h1M17 23h1M20 23h3M37 23h1M18 24h2M23 24h2M37 24h1M14 25h1M38 25h1M13 27h1M12 29h1M7 30h2M12 30h1M38 30h1M9 31h2M39 31h1M12 34h1M8 35h1M7 36h1M14 36h1M20 36h1M24 37h1M15 38h1M24 38h1M15 39h1M35 39h1M10 40h1M16 40h1M33 40h2M11 41h1M16 41h1M22 41h1M34 41h1M18 42h3M32 42h1M29 44h1M29 45h1M18 46h2M19 47h1M23 47h1M28 47h1M23 48h1M23 49h1" />
<path stroke="#78c830" d="M18 14h2M22 14h1M14 15h1M17 15h3M23 15h1M27 15h1M13 16h6M22 16h1M24 16h1M26 16h2M13 17h6M23 17h1M25 17h3M32 17h1M13 18h2M16 18h2M22 18h1M24 18h2M27 18h1M31 18h2M12 19h3M17 19h1M23 19h1M25 19h1M31 19h2M10 20h4M31 20h1M10 21h4M15 21h1M17 21h1M9 22h5M15 22h3M9 23h7M9 24h6M11 25h3M7 31h2M7 32h4M8 33h3M9 34h3M9 35h3M10 36h1" />
<path stroke="#50b018" d="M21 14h1M23 14h1M27 14h1M20 15h3M24 15h1M28 15h2M19 16h3M23 16h1M25 16h1M28 16h3M33 16h1M19 17h4M24 17h1M28 17h4M33 17h1M15 18h1M18 18h4M23 18h1M26 18h1M28 18h3M33 18h1M15 19h2M18 19h5M24 19h1M26 19h5M33 19h3M14 20h17M32 20h4M14 21h1M16 21h1M18 21h14M34 21h1M14 22h1M18 22h14M18 23h2M23 23h9M25 24h5M34 28h1M33 29h2M32 30h3M30 31h4M30 32h4M23 33h1M30 33h3M29 34h5M21 35h1M29 35h4M8 36h2M11 36h2M28 36h5M9 37h5M29 37h1M31 37h1M10 38h5M29 38h1M11 39h4M34 39h1M11 40h5M13 41h3M14 42h3M15 43h1" />
<path stroke="#f8e050" d="M34 14h1M32 15h1M34 15h2M35 16h2M35 17h3M36 18h3M37 19h4M39 20h3M39 21h4M38 22h7M38 23h9M20 24h3M38 24h10M15 25h1M21 25h4M39 25h10M14 26h1M18 26h2M21 26h3M39 26h10M22 27h1M41 27h7M49 27h1M13 28h1M22 28h1M40 28h9M15 29h1M18 29h1M22 29h1M41 29h5M47 29h1M49 29h1M21 30h2M42 30h3M46 30h1M48 30h1M12 31h1M20 31h4M47 31h1M12 32h2M19 32h5M12 33h2M19 33h4M13 34h1M19 34h2M15 37h5M16 38h4M16 39h4M11 43h4M13 44h3M31 44h3M14 45h2M30 45h5M13 46h2M30 46h5M11 47h3M30 47h5M30 48h4M31 49h3M31 50h3M31 51h3" />
<path stroke="#f8f8f8" d="M16 27h1M15 32h1M23 35h1M22 36h1" />
</svg>