<svg xmlns="http://www.w3.org/2000/svg" viewBox="0 -0.5 64 64" shape-rendering="crispEdges">
<metadata>Made with Pixels to Svg https://codepen.io/shshaw/pen/XbxvNj</metadata>
<path stroke="#808090" d="M31 19h2M33 20h2M35 21h1M37 21h1M22 22h1M38 22h1M21 23h1M21 24h1M37 24h1M20 25h1M36 25h2M20 26h1M19 27h1M19 28h1M20 29h1M21 30h1" />
<path stroke="#181818" d="M31 20h1M31 21h1M36 21h1M23 22h1M32 22h1M24 23h1M32 23h1M38 23h1M24 24h1M33 24h1M38 24h3M25 25h1M34 25h2M41 25h1M25 26h1M36 26h1M26 27h1M26 28h1M44 28h1M25 29h1M31 29h1M45 29h1M22 30h3M32 30h1M40 30h1M46 30h1M32 31h1M40 31h1M46 31h1M33 32h1M45 32h2M18 33h1M26 33h1M33 33h1M40 33h1M46 33h1M17 34h2M25 34h2M33 34h1M39 34h1M47 34h1M33 35h1M39 35h1M47 35h1M33 36h1M37 36h3M47 36h1M32 37h1M46 37h1M25 38h1M32 38h1M47 38h1M18 39h1M31 39h1M37 39h1M47 39h1M19 40h5M30 40h1M37 40h1M43 40h1M47 40h1M20 41h2M28 41h2M37 41h1M43 41h1M22 42h6M37 42h1M43 42h1M48 42h1M25 43h1M36 43h1M42 43h1M45 43h3M25 44h1M36 44h1M42 44h3M26 45h1M28 45h1M34 45h2M41 45h1M29 46h5M36 46h5" />
<path stroke="#f8f8f8" d="M32 20h1M32 21h3M33 22h4M22 23h1M34 23h2M22 24h1M21 25h2M21 26h2M20 27h3M20 28h2M17 33h1M25 33h1" />
<path stroke="#c8c8c8" d="M37 22h1M23 23h1M33 23h1M36 23h2M23 24h1M34 24h3M23 25h2M23 26h2M23 27h3M22 28h4M21 29h4" />
<path stroke="#986018" d="M38 25h1M42 25h2M26 26h2M37 26h1M40 26h1M44 26h1M28 27h2M38 27h2M45 27h1M30 28h1M39 28h1M42 28h2M45 28h1M40 29h2M42 31h3M40 32h2M34 35h1M41 35h4M35 36h2M40 36h1M45 36h1M17 37h1M36 37h1M40 37h2M17 38h1M37 38h1M42 38h1M42 39h1M26 43h1M27 44h1M34 44h1" />
<path stroke="#e0b030" d="M39 25h2M38 26h2M43 26h1M44 27h1M27 28h1M18 29h1M26 29h2M17 30h1M25 30h2M31 30h1M45 30h1M17 31h1M45 31h1M16 32h1M31 32h1M16 33h1M30 33h1M32 33h1M16 34h1M31 34h1M40 34h1M45 34h2M16 35h1M19 35h1M23 35h1M29 35h4M40 35h1M45 35h2M16 36h1M28 36h5M46 36h1M26 37h6M33 37h1M45 37h1M26 38h6M33 38h2M41 38h1M44 38h3M26 39h5M32 39h5M40 39h2M43 39h4M25 40h5M31 40h6M38 40h5M44 40h2M22 41h6M30 41h7M38 41h5M44 41h1M34 42h3M38 42h5M44 42h1" />
<path stroke="#f8d840" d="M41 26h2M27 27h1M40 27h1M43 27h1M28 28h2M40 28h2M28 29h3M44 29h1M27 30h4M41 30h1M44 30h1M24 31h8M41 31h1M17 32h2M23 32h8M32 32h1M19 33h6M27 33h3M31 33h1M41 33h1M44 33h2M19 34h6M27 34h4M32 34h1M41 34h4M17 35h2M24 35h5M17 36h1M25 36h3M34 36h1M41 36h4M34 37h2M37 37h3M42 37h3M35 38h2M38 38h3M43 38h1M38 39h2" />
<path stroke="#f8f068" d="M41 27h2M19 29h1M42 29h2M18 30h3M42 30h2M18 31h6M19 32h4M42 32h3M42 33h2M28 42h3M27 43h4M35 43h1M41 43h1M43 43h2M28 44h3M35 44h1M37 44h1M36 45h2" />
<path stroke="#704060" d="M20 35h3M18 36h1M24 36h1M25 37h1M24 39h2M24 40h1M46 40h1M45 41h1M48 41h1M32 42h2M45 42h1M31 43h1M34 43h1M39 43h2M31 44h1M38 44h1M41 44h1M32 45h2M38 45h1" />
<path stroke="#f0c0d0" d="M19 36h2M19 37h2" />
<path stroke="#e0a0c8" d="M21 36h3M18 37h1M21 37h3M19 38h4M46 41h2M46 42h1M32 43h2M26 44h1M32 44h1M39 44h2" />
<path stroke="#b07090" d="M24 37h1M18 38h1M23 38h2M19 39h5M47 42h1M33 44h1M27 45h1M39 45h2" />
<path stroke="#d0c068" d="M31 42h1M37 43h2M29 45h3" />
</svg>