<svg xmlns="http://www.w3.org/2000/svg" viewBox="0 -0.5 64 64" shape-rendering="crispEdges">
<metadata>Made with Pixels to Svg https://codepen.io/shshaw/pen/XbxvNj</metadata>
<path stroke="#a87008" d="M20 9h1M19 10h1M21 10h1M19 11h1M18 13h1M43 15h3M39 16h4M36 17h1M35 18h1M17 19h1M41 20h1M40 21h1M39 22h2M38 23h2M28 24h1M32 24h1M36 24h3M27 25h1M34 25h3M24 26h3M30 26h4M29 27h3M29 28h3M29 29h3M20 30h1M28 30h3M18 31h1M23 31h8M19 32h10M21 33h5M40 36h2M36 37h1M42 37h1M37 38h1M36 39h2M34 40h3M32 41h1M34 41h3M44 41h1M30 42h6M44 42h1M21 43h2M30 43h6M44 43h1M21 44h3M26 44h2M30 44h2M33 44h2M36 44h1M43 44h2M22 45h2M25 45h6M32 45h2M35 45h1M37 45h1M39 45h1M42 45h3M23 46h1M28 46h3M33 46h1M36 46h1M38 46h1M40 46h4M23 47h1M28 47h2M31 47h2M35 47h1M37 47h1M39 47h4M23 48h2M28 48h2M31 48h4M36 48h7M27 49h3M32 49h4M37 49h5M21 50h1M27 50h2M37 50h4M25 51h1M28 51h1" />
<path stroke="#f0b840" d="M20 10h1M20 11h1M19 12h3M19 13h1M21 13h1M19 14h1M43 16h2M39 17h4M36 18h1M35 19h1M33 20h2M18 24h1M19 25h1M19 26h2M19 27h2M23 27h2M17 28h1M19 28h2M23 28h1M17 29h3M38 35h1M37 36h3M38 37h4M38 38h5M38 39h4M38 40h4M39 41h2M20 49h3M25 49h1M24 50h3" />
<path stroke="#603818" d="M21 11h1M22 12h1M20 13h1M18 14h1M18 15h2M17 16h1M45 16h1M17 17h1M38 17h1M44 17h1M17 18h1M37 18h1M33 19h2M43 19h1M32 20h1M31 21h1M30 22h1M33 22h1M17 24h1M17 25h2M37 25h1M17 27h1M25 27h1M16 28h1M24 28h1M16 29h1M28 29h1M32 29h1M17 30h1M24 30h1M27 30h1M31 31h1M30 32h1M19 33h1M26 33h1M21 34h1M39 35h1M43 38h1M44 39h1M44 40h1M45 41h1M19 42h1M32 44h1M24 45h1M31 45h1M34 45h1M45 45h1M19 46h1M24 46h1M32 46h1M44 46h1M19 47h1M24 47h1M33 47h2M43 47h1M18 48h1M18 49h1M23 49h1M30 49h2M36 49h1M32 50h1M20 51h1M23 51h1M27 51h1M29 51h1M37 51h1M40 51h1M24 52h1M28 52h1" />
<path stroke="#d8a028" d="M18 12h1M21 14h1M21 15h2M18 16h1M21 16h2M18 17h1M21 17h1M43 17h1M18 18h1M38 18h2M43 18h1M18 19h1M36 19h2M42 19h1M18 20h1M35 20h1M42 20h1M32 21h3M41 21h1M29 22h1M31 22h2M29 23h3M19 24h1M29 24h2M28 25h4M27 26h3M21 27h2M21 28h2M20 29h4M18 30h1M21 30h3M19 31h4M37 37h1M42 39h2M37 40h1M42 40h2M37 41h2M41 41h3M36 42h8M36 43h8M20 44h1M35 44h1M37 44h6M20 45h2M36 45h1M38 45h1M40 45h2M20 46h3M25 46h3M35 46h1M37 46h1M39 46h1M20 47h3M25 47h3M36 47h1M38 47h1M19 48h4M25 48h3M19 49h1M24 49h1M26 49h1M20 50h1M22 50h1M24 51h1M26 51h1" />
<path stroke="#a06800" d="M22 13h3M22 14h1M25 14h2M23 15h1M27 15h1M32 15h1M23 16h1M28 16h1M31 16h1M33 16h1M22 17h1M31 17h1M34 17h1M20 18h1M30 18h1M19 19h1M19 20h1M18 21h1M29 21h1M28 22h1M18 23h1M16 24h1M15 25h1M20 25h1M26 25h1M41 25h3M14 26h1M21 26h1M23 26h1M38 26h3M44 26h1M14 27h1M14 28h1M37 28h1M12 29h2M47 30h1M38 31h2M48 31h1M51 31h2M49 32h2M13 33h1M12 34h1M38 34h1M50 36h1M53 36h1M35 37h1M52 37h1M13 38h2M50 38h1M11 39h2M15 39h1M53 39h1M10 40h1M9 41h1M15 41h2M53 41h1M5 42h3M9 42h1M21 42h1M25 42h1M29 42h1M51 42h1M8 43h1M14 43h1M20 43h1M23 43h1M27 43h1M49 43h1M7 44h1M10 44h1M15 44h1M24 44h1M50 44h1M16 45h1M48 47h2M47 49h1M43 50h1M46 50h1" />
<path stroke="#101010" d="M20 14h1M20 15h1M19 16h2M19 17h2M28 17h1M19 18h1M29 18h1M40 18h3M44 18h1M29 19h1M38 19h4M29 20h1M36 20h5M43 20h1M35 21h5M42 21h1M18 22h1M34 22h5M41 22h1M28 23h1M32 23h6M40 23h1M27 24h1M31 24h1M33 24h3M39 24h1M25 25h1M32 25h2M38 25h1M17 26h1M22 26h1M34 26h3M18 27h1M26 27h3M32 27h2M37 27h1M45 27h1M18 28h1M27 28h2M32 28h1M46 28h1M24 29h4M38 29h1M47 29h1M12 30h1M19 30h1M25 30h2M31 30h1M37 30h1M12 31h1M17 31h1M40 31h1M13 32h1M18 32h1M29 32h1M39 32h1M52 32h1M20 33h1M27 33h2M38 33h1M52 33h1M22 34h4M51 34h1M13 35h1M37 35h1M51 35h1M14 36h1M35 36h2M54 36h1M14 37h1M50 37h1M54 37h1M36 38h1M54 38h1M34 39h2M15 40h1M32 40h1M53 40h1M17 41h2M30 41h2M33 41h1M52 41h1M22 42h1M45 42h1M5 43h1M11 43h3M19 43h1M25 43h2M29 43h1M45 43h1M50 43h1M6 44h1M19 44h1M25 44h1M28 44h2M45 44h1M8 45h2M17 45h3M51 45h1M31 46h1M34 46h1M50 46h1M30 47h1M30 48h1M35 48h1M43 48h1M49 48h1M42 49h1M48 49h1M19 50h1M23 50h1M29 50h1M33 50h4M41 50h1M44 50h2M21 51h2M38 51h2M25 52h3" />
<path stroke="#f8f8c0" d="M23 14h2M24 15h3M24 16h2M32 16h1M32 17h2M31 18h3M21 19h2M30 19h3M20 20h2M20 21h2M16 25h1M15 26h2M41 26h2M15 27h2M38 27h6M15 28h1M25 28h1M38 28h6M14 29h2M39 29h4M13 30h4M14 31h3M45 31h1M45 32h2M44 33h3M44 34h3M43 35h3M11 40h3M11 41h2" />
<path stroke="#f8f838" d="M26 16h2M23 17h5M21 18h7M34 18h1M20 19h1M23 19h5M22 20h3M26 20h2M30 20h2M19 21h1M22 21h3M26 21h1M30 21h1M19 22h5M25 22h1M20 23h2M37 26h1M43 26h1M34 27h3M44 27h1M33 28h4M44 28h2M34 29h4M43 29h4M35 30h1M38 30h9M13 31h1M41 31h4M46 31h2M14 32h4M40 32h5M47 32h2M51 32h1M14 33h5M39 33h5M47 33h4M13 34h7M39 34h5M47 34h4M14 35h8M40 35h3M46 35h4M15 36h9M28 36h1M42 36h8M16 37h14M43 37h4M48 37h1M53 37h1M15 38h16M35 38h1M44 38h2M47 38h1M51 38h3M13 39h2M16 39h2M19 39h7M27 39h2M50 39h3M14 40h1M19 40h1M22 40h2M49 40h2M10 41h1M13 41h2M27 41h1M10 42h9M27 42h2M6 43h2M10 43h1M15 43h3M28 43h1M49 44h1M47 45h4M47 46h3" />
<path stroke="#e8c808" d="M28 18h1M28 19h1M25 20h1M28 20h1M25 21h1M27 21h2M24 22h1M26 22h2M19 23h1M22 23h6M20 24h7M21 25h4M33 29h1M32 30h3M36 30h1M32 31h6M31 32h8M29 33h9M51 33h1M20 34h1M26 34h12M22 35h15M50 35h1M24 36h4M29 36h6M15 37h1M30 37h5M47 37h1M49 37h1M31 38h4M46 38h1M48 38h2M18 39h1M26 39h1M29 39h5M45 39h5M16 40h3M20 40h2M24 40h8M33 40h1M45 40h4M51 40h2M19 41h8M28 41h2M46 41h6M20 42h1M23 42h2M26 42h1M46 42h5M9 43h1M18 43h1M24 43h1M46 43h3M8 44h2M16 44h3M46 44h3M46 45h1M45 46h2M44 47h4M44 48h5M43 49h4" />
<path stroke="#f8f8f8" d="M18 26h1M26 28h1" />
</svg>