<svg xmlns="http://www.w3.org/2000/svg" viewBox="0 -0.5 64 64" shape-rendering="crispEdges">
<metadata>Made with Pixels to Svg https://codepen.io/shshaw/pen/XbxvNj</metadata>
<path stroke="#285880" d="M46 5h2M45 6h1M48 6h1M53 10h1M60 13h3M62 15h1M60 16h2M58 17h4M58 18h3M11 19h1M58 19h3M9 20h1M58 20h3M58 21h2M8 22h1M58 22h2M8 23h1M57 23h3M8 24h1M49 24h2M57 24h2M49 25h3M57 25h2M49 26h4M56 26h2M49 27h3M49 28h2M8 29h2M49 29h2M58 29h1M8 30h3M49 30h2M59 30h1M8 31h2M48 31h3M8 32h1M48 32h4M12 33h1M47 33h5M12 34h6M46 34h7M12 35h10M45 35h10M61 35h1M12 36h12M45 36h11M61 36h1M12 37h14M44 37h14M13 38h14M42 38h19M13 39h14M39 39h10M51 39h10M13 40h15M38 40h2M42 40h7M53 40h8M13 41h15M37 41h2M42 41h8M56 41h3M13 42h15M30 42h1M42 42h7M13 43h16M42 43h6M13 44h16M43 44h4M12 45h16M15 46h12M18 47h9M20 48h6M22 49h4M24 50h2" />
<path stroke="#4898c8" d="M46 6h1M45 7h2M45 8h3M47 9h3M48 10h3M48 11h2M51 12h1M54 13h1M60 14h2M59 15h2M57 16h1" />
<path stroke="#4070b8" d="M47 6h1M47 7h1M48 8h1M42 9h1M40 10h1M51 10h1M38 11h2M50 11h4M52 12h4M55 13h2M56 14h4M62 14h1M57 15h2M61 15h1M58 16h2M10 20h1M9 21h1M9 22h1M48 22h1M57 22h1M48 23h1M56 25h1M53 26h1M52 27h4M9 28h1M51 28h6M51 29h7M48 30h1M51 30h8M51 31h9M12 32h1M47 32h1M52 32h9M13 33h2M52 33h10M18 34h1M53 34h9M22 35h1M55 35h6M63 35h1M24 36h1M44 36h1M56 36h5M26 37h1M43 37h1M58 37h3M63 37h1M27 38h2M41 38h1M27 39h4M38 39h1M28 40h4M35 40h3M28 41h3M36 41h1M28 42h2M29 43h1" />
<path stroke="#285860" d="M44 7h1M42 8h3M41 9h1M50 9h2M39 10h1M52 10h1M55 11h1M56 12h1M57 13h3M63 14h1M63 15h1M62 16h1M61 18h1M48 21h1M60 21h1M7 22h1M49 22h1M49 23h1M7 26h1M55 26h1M56 27h1M57 28h1M7 29h1M7 30h1M7 31h1M60 31h1M61 32h1M62 33h1M63 36h1M61 37h1M49 40h2M54 41h1M60 41h1M49 42h1M58 42h1M15 47h1M18 48h1M20 49h1M22 50h1M24 51h1" />
<path stroke="#101010" d="M48 7h1M49 8h1M40 9h1M38 10h1M37 11h1M45 11h2M54 11h1M47 12h1M39 13h1M44 13h2M41 14h1M46 14h2M43 15h1M48 15h2M52 15h2M50 16h1M54 16h2M14 17h1M51 17h1M62 17h1M13 18h1M46 18h1M51 18h1M12 19h1M61 19h1M11 20h1M47 20h1M50 20h1M8 21h1M10 21h1M49 21h1M10 22h1M60 22h1M7 23h1M9 23h1M50 23h1M60 23h1M7 24h1M9 24h1M51 24h1M59 24h1M7 25h2M52 25h2M59 25h1M8 26h1M54 26h1M58 26h1M8 27h1M57 27h1M8 28h1M3 30h1M1 31h1M3 31h1M10 31h1M2 32h2M6 32h2M9 32h1M11 32h1M0 33h1M3 33h1M5 33h1M8 33h1M11 33h1M8 34h1M11 34h1M62 34h1M1 35h1M11 35h1M11 36h1M62 36h1M0 37h1M0 38h1M12 38h1M61 38h2M0 39h1M12 39h1M49 39h2M62 39h1M12 40h1M32 40h1M34 40h1M51 40h2M61 40h1M1 41h1M12 41h1M31 41h1M35 41h1M41 41h1M50 41h1M55 41h1M59 41h1M1 42h1M12 42h1M31 42h1M35 42h4M41 42h1M56 42h2M1 43h1M12 43h1M30 43h1M32 43h1M34 43h1M37 43h1M41 43h1M48 43h1M2 44h1M12 44h1M29 44h1M42 44h1M47 44h1M11 45h1M28 45h1M40 45h1M43 45h4M3 46h1M11 46h4M27 46h1M42 46h1M46 46h1M5 47h1M9 47h2M16 47h2M27 47h1M45 47h1M7 48h2M19 48h1M26 48h1M44 48h1M21 49h1M26 49h1M43 49h1M23 50h1M26 50h1M43 50h1M25 51h2M43 51h1M26 52h1M42 53h1M27 54h1M41 54h1M28 55h1M40 55h1M29 56h1M39 56h1M30 57h1M37 57h1M33 58h3" />
<path stroke="#f0e8b8" d="M43 9h4M41 10h2M45 10h3M41 11h4M47 11h1M25 12h10M42 12h5M23 13h14M20 14h19M19 15h21M19 16h21M19 17h21M19 18h21M20 19h20M20 20h19M22 21h16M24 22h11" />
<path stroke="#686870" d="M43 10h2M56 17h1M3 29h2M5 30h1M0 31h1M11 31h1M0 32h1M4 33h1M0 34h1M2 34h1M10 35h1M0 36h1M33 38h1M32 39h1M34 39h1M40 40h2M39 41h1M33 43h1M37 44h1M41 44h1M39 45h1M42 47h1M43 48h1" />
<path stroke="#d89860" d="M25 11h10M22 12h1M38 12h1M19 13h1M17 14h1M2 39h3M6 41h1M6 44h1M31 49h1M34 49h1M30 50h1M37 52h1M30 53h1M37 53h1M32 55h1M35 55h1" />
<path stroke="#f0e0b0" d="M40 11h1M39 12h3M48 12h3M22 13h1M37 13h2M41 13h3M46 13h8M19 14h1M39 14h2M48 14h8M18 15h1M40 15h3M50 15h2M54 15h3M16 16h3M40 16h4M51 16h3M56 16h1M15 17h4M40 17h5M52 17h4M57 17h1M14 18h5M40 18h6M52 18h6M13 19h7M40 19h7M52 19h5M12 20h8M39 20h8M51 20h5M11 21h11M38 21h9M50 21h4M11 22h13M35 22h13M10 23h38M10 24h38M9 25h40M9 26h40M9 27h1M11 27h1M13 27h36M10 28h1M12 28h1M14 28h1M16 28h33M11 29h1M13 29h1M15 29h1M17 29h29M47 29h1M11 30h2M14 30h1M16 30h1M18 30h25M44 30h1M46 30h1M13 31h1M20 31h20M41 31h1M43 31h1M45 31h1M47 31h1M23 32h16M40 32h1M42 32h1M44 32h1M46 32h1M7 33h1M39 33h1M41 33h1M43 33h1M45 33h1M3 34h5M42 34h1M44 34h1M5 35h4M43 35h1M7 36h3M8 37h3M9 38h2M9 39h3M10 40h2M31 43h1M36 43h1M30 44h7M29 45h9M29 46h2M36 46h6M28 47h1M38 47h4M28 48h1M39 48h3" />
<path stroke="#989850" d="M23 12h2M35 12h3M20 13h2M40 13h1M18 14h1M42 14h1M16 15h1M15 16h1M44 16h1M45 17h1M6 31h1M11 37h1M0 40h1M2 45h1M4 47h1M6 48h1M42 52h1M27 53h1M31 57h1M38 57h1M32 58h1M36 58h1" />
<path stroke="#905818" d="M43 14h2M44 15h4M45 16h5M46 17h4M47 18h4M47 19h4M48 20h2" />
<path stroke="#f8f8f8" d="M45 14h1M50 17h1M4 30h1M4 31h2M1 32h1M5 32h1M10 32h1M2 33h1M9 33h2M9 34h1M62 35h1M62 37h1M33 39h1M61 39h1M33 40h1M32 41h3M40 41h1M32 42h1M34 42h1M39 42h2M38 43h2M38 44h1M44 46h2" />
<path stroke="#e8d0a0" d="M17 15h1M51 19h1M57 19h1M56 20h2M47 21h1M54 21h4M50 22h7M51 23h6M48 24h1M52 24h5M54 25h2M10 27h1M12 27h1M11 28h1M13 28h1M15 28h1M10 29h1M12 29h1M14 29h1M16 29h1M46 29h1M48 29h1M13 30h1M15 30h1M17 30h1M43 30h1M45 30h1M47 30h1M12 31h1M14 31h6M40 31h1M42 31h1M44 31h1M46 31h1M13 32h10M39 32h1M41 32h1M43 32h1M45 32h1M6 33h1M15 33h24M40 33h1M42 33h1M44 33h1M46 33h1M19 34h23M43 34h1M45 34h1M2 35h3M9 35h1M23 35h20M44 35h1M1 36h6M10 36h1M25 36h19M1 37h7M27 37h16M1 38h8M11 38h1M29 38h4M34 38h7M1 39h1M5 39h4M31 39h1M35 39h3M1 40h1M6 40h4M7 41h5M7 42h5M2 43h1M7 43h5M35 43h1M7 44h5M3 45h1M6 45h5M38 45h1M41 45h2M4 46h7M28 46h1M31 46h5M6 47h3M29 47h9M27 48h1M29 48h10M42 48h1M27 49h4M35 49h8M27 50h3M36 50h7M27 51h3M37 51h6M27 52h3M38 52h4M28 53h2M38 53h4M28 54h3M37 54h4M29 55h3M36 55h4M30 56h9M32 57h5" />
<path stroke="#d0d0d8" d="M4 32h1M1 33h1M1 34h1M10 34h1M33 42h1M40 43h1M39 44h2M43 46h1M43 47h2" />
<path stroke="#b07838" d="M2 40h4M2 41h4M2 42h5M3 43h4M3 44h3M4 45h2M32 49h2M31 50h5M30 51h7M30 52h7M31 53h6M31 54h6M33 55h2" />
</svg>