<svg xmlns="http://www.w3.org/2000/svg" viewBox="0 -0.5 64 64" shape-rendering="crispEdges">
<metadata>Made with Pixels to Svg https://codepen.io/shshaw/pen/XbxvNj</metadata>
<path stroke="#787850" d="M28 14h2M9 15h1M27 15h1M8 16h1M10 16h1M26 16h1M8 17h1M25 17h1M13 18h2M24 18h1M12 19h1M23 19h1M29 19h1M9 20h1M11 20h1M22 20h1M22 21h1M25 21h2M47 21h1M27 22h3M8 23h1M44 24h1M7 25h1M7 26h1M7 27h1M24 27h1M29 27h1M29 28h1M8 29h1M30 30h1M17 38h1M46 38h1M18 40h1M19 41h1M45 41h1M19 42h1M20 43h1M23 46h1M41 46h1M25 47h1M39 47h1M28 48h1M36 48h1" />
<path stroke="#f8f8f8" d="M28 15h1M27 16h1M26 17h1M25 18h1M13 19h1M24 19h2M23 20h1M16 22h1M9 24h2M8 25h3M8 26h2" />
<path stroke="#e8e8c0" d="M29 15h1M9 16h1M28 16h1M9 17h1M27 17h1M9 18h1M26 18h2M14 19h1M26 19h1M12 20h2M24 20h2M16 21h1M23 21h2M22 22h5M10 23h4M22 23h8M11 24h4M23 24h2M11 25h4M10 26h4M8 27h3M9 28h1M18 33h2M17 34h4M17 35h5M17 36h6M18 37h6M18 38h7M19 39h7M19 40h8M20 41h9M20 42h11M21 43h4M26 43h1M28 43h1M30 43h5M22 44h2M25 44h1M27 44h1M29 44h1M24 45h1M26 45h1M28 45h1" />
<path stroke="#101010" d="M30 15h1M30 16h1M10 17h1M29 17h1M49 17h2M8 18h1M11 18h1M29 18h1M52 18h1M8 19h1M11 19h1M53 19h1M28 20h1M54 20h1M9 21h1M17 21h1M28 21h1M48 21h4M9 22h1M17 22h2M46 22h1M52 22h2M55 22h1M16 23h2M30 23h1M45 23h1M54 23h2M16 24h2M29 24h1M28 25h1M44 25h1M28 26h1M44 26h1M23 27h1M44 27h1M23 28h1M25 28h1M26 29h2M30 29h1M9 30h2M28 30h2M11 31h3M38 34h1M47 34h1M37 35h1M47 35h1M37 36h1M47 36h1M17 37h1M36 37h1M47 37h1M18 39h1M46 39h1M46 40h1M45 42h1M44 43h1M21 44h1M43 44h1M22 45h1M42 45h1M24 46h1M40 46h1M26 47h2M37 47h2M29 48h7" />
<path stroke="#c0c098" d="M29 16h1M28 17h1M10 18h1M28 18h1M9 19h2M27 19h2M10 20h1M26 20h2M47 20h4M27 21h1M45 21h2M52 21h1M44 22h2M54 22h1M9 23h1M14 23h1M44 23h1M8 24h1M15 24h1M22 24h1M25 24h4M43 24h1M15 25h1M23 25h5M43 25h1M14 26h3M23 26h5M43 26h1M11 27h6M25 27h4M43 27h1M8 28h1M10 28h6M26 28h3M9 29h5M28 29h2M44 29h1M45 31h1M45 32h1M46 34h1M46 35h1M46 36h1M45 37h2M45 38h1M44 39h2M43 40h3M42 41h3M40 42h5M25 43h1M27 43h1M29 43h1M35 43h9M24 44h1M26 44h1M28 44h1M30 44h13M23 45h1M25 45h1M27 45h1M29 45h13M25 46h15M28 47h9" />
<path stroke="#a04080" d="M43 16h1M41 17h2M48 17h1M15 18h4M40 18h1M47 18h4M15 19h1M19 19h2M39 19h1M45 19h8M14 20h1M21 20h1M38 20h1M44 20h2M52 20h2M10 21h1M12 21h2M38 21h1M43 21h2M54 21h1M10 22h1M37 22h1M43 22h1M43 23h1M21 24h1M42 24h1M21 25h1M36 25h1M42 25h1M17 26h1M21 26h1M42 26h1M17 27h1M21 27h2M42 27h1M16 28h3M22 28h1M42 28h1M15 29h4M22 29h2M42 29h2M11 30h7M23 30h1M37 30h1M43 30h1M14 31h3M43 31h2M15 32h1M43 32h2M15 33h1M43 33h2M43 34h3M16 35h1M43 35h3M43 36h3M43 37h2M35 38h1M43 38h2M42 39h2M42 40h1" />
<path stroke="#782058" d="M44 16h4M51 18h1M16 20h2M15 21h1M18 21h1M15 22h1M21 22h1M15 23h1M19 23h1M21 23h1M37 23h1M19 24h1M37 24h1M16 25h3M22 25h1M22 26h1M36 26h1M36 27h1M36 28h1M44 28h1M36 29h1M45 29h1M24 30h1M45 30h1M24 31h1M37 31h1M46 31h1M14 32h1M25 32h1M38 32h1M46 32h1M25 33h1M38 33h1M46 33h1M15 34h1M26 34h1M27 35h1M16 36h1M28 36h2M30 37h2M32 38h3" />
<path stroke="#c868a0" d="M43 17h5M44 18h2M43 19h1M42 20h1M39 21h4M19 22h2M38 22h4M20 23h1M38 23h4M20 24h1M38 24h4M19 25h2M37 25h4M18 26h3M37 26h4M19 27h2M37 27h4M19 28h3M37 28h4M19 29h3M37 29h5M19 30h4M38 30h4M18 31h6M38 31h4M16 32h9M39 32h4M16 33h2M21 33h4M40 33h3M22 34h4M40 34h3M23 35h4M40 35h3M24 36h4M39 36h4M24 37h6M38 37h5M25 38h7M36 38h6M26 39h16M28 40h13M30 41h11M32 42h7" />
<path stroke="#e890c0" d="M41 18h3M16 19h3M40 19h3M15 20h1M18 20h3M39 20h3M11 21h1M14 21h1M19 21h3M11 22h4M20 33h1M39 33h1M16 34h1M21 34h1M39 34h1M22 35h1M38 35h2M23 36h1M38 36h1M37 37h1M27 40h1M29 41h1M41 41h1M31 42h1M39 42h1" />
<path stroke="#b85880" d="M46 18h1M44 19h1M43 20h1M46 20h1M51 20h1M53 21h1M42 22h1M42 23h1M41 25h1M41 26h1M18 27h1M41 27h1M41 28h1M43 28h1M14 29h1M18 30h1M42 30h1M44 30h1M17 31h1M42 31h1M45 33h1M42 38h1M41 40h1" />
<path stroke="#8810b0" d="M18 23h1M18 24h1" />
</svg>