<svg xmlns="http://www.w3.org/2000/svg" viewBox="0 -0.5 64 64" shape-rendering="crispEdges">
<metadata>Made with Pixels to Svg https://codepen.io/shshaw/pen/XbxvNj</metadata>
<path stroke="#704808" d="M42 4h2M40 5h2M39 6h1M42 6h1M21 7h1M38 7h1M40 7h1M20 8h1M37 8h1M41 8h1M20 9h1M36 9h1M35 10h1M19 11h1M35 11h1M40 11h1M19 12h1M34 12h1M34 13h1M37 13h1M18 14h1M33 14h1M41 14h4M18 15h1M36 15h1M45 15h1M18 16h1M32 16h1M36 16h1M46 16h1M18 17h1M36 17h1M46 17h1M18 18h1M37 18h1M44 18h2M19 19h1M41 22h1M42 24h1M43 25h1M44 27h1M33 29h4M30 30h1M32 30h1M23 33h3M22 34h1M26 34h1M21 35h1M37 35h1M51 35h1M21 36h1M52 38h1M24 41h2M24 42h1M23 43h1M23 44h1M23 45h1M23 46h1M24 48h1M49 50h1M28 52h1M29 53h1M48 53h1M27 54h2M49 54h1M23 55h4M34 55h1M43 55h1M21 56h2M43 56h1M20 57h1M31 57h1M42 57h1M24 58h1M30 58h1M42 58h1M20 59h1M28 59h1M41 59h1M22 60h1M41 60h1M43 60h1M46 60h1M41 61h1M43 63h1M46 63h1" />
<path stroke="#805030" d="M16 5h2M15 7h1M16 8h1M14 9h1M19 10h1M38 10h1M13 11h1M16 11h1M15 12h1M37 12h1M12 13h1M18 13h1M21 13h1M5 14h2M12 14h1M21 14h1M36 14h1M5 15h1M7 15h1M21 15h1M5 16h1M9 16h1M11 16h1M15 16h1M21 16h1M34 16h2M5 17h1M10 17h2M14 17h1M21 17h2M35 17h1M5 18h1M20 18h3M5 19h1M20 19h4M5 20h1M20 20h3M5 21h1M14 21h1M20 21h2M5 22h1M13 22h1M21 22h1M5 23h1M5 24h1M9 24h1M5 25h1M9 25h1M5 26h1M9 26h1M5 27h1M9 27h1M9 28h1M6 29h1M9 29h1M9 30h1M27 30h1M9 31h1M27 31h1M32 31h1M9 32h1M32 32h5M7 33h1M9 33h1M33 33h3M10 34h1M8 35h1M10 35h1M25 35h1M10 36h1M24 36h2M10 37h1M23 37h2M21 58h1M25 58h4M47 58h2M22 59h4M47 59h2M42 60h1M47 60h1M42 61h1M44 61h2M47 61h1M44 62h2" />
<path stroke="#a87030" d="M42 5h1M40 6h1M39 7h1M38 8h2M37 9h2M20 10h1M36 10h2M40 10h1M20 11h1M36 11h2M20 12h1M35 12h2M19 13h2M35 13h2M19 14h2M34 14h2M19 15h2M34 15h2M19 16h2M19 17h2M19 18h1M33 30h4M33 31h5M36 33h1M23 34h3M36 34h1M22 35h3M49 35h1M22 36h2M47 37h1M49 38h1M51 42h1M23 56h3M21 57h6M44 57h4M43 58h4M42 59h2M45 59h2M44 60h2" />
<path stroke="#101010" d="M43 5h1M17 6h1M17 7h1M42 7h1M21 8h1M16 9h1M21 9h1M41 9h1M16 10h1M21 10h1M21 11h1M21 12h1M40 12h1M15 13h1M22 13h1M40 13h1M15 14h1M22 14h1M15 15h1M22 15h1M33 15h1M43 15h2M23 16h1M33 16h1M42 16h1M23 17h1M33 17h1M41 17h1M14 18h1M24 18h2M33 18h1M40 18h1M14 19h1M24 19h1M34 19h1M38 19h2M14 20h1M19 20h1M23 20h1M35 20h3M40 20h1M19 21h1M22 21h1M41 21h1M20 22h1M22 22h1M32 22h1M13 23h1M21 23h1M33 23h1M42 23h1M13 24h1M21 24h1M30 24h1M32 24h2M10 25h1M13 25h1M21 25h1M31 25h2M11 26h1M13 26h1M23 26h1M44 26h1M12 27h2M21 27h3M22 28h1M26 28h1M45 28h1M31 29h1M46 29h1M6 30h1M28 30h2M47 30h1M6 31h1M21 31h1M25 31h2M31 31h1M48 31h1M22 32h1M31 32h1M49 32h1M32 33h1M49 33h1M7 34h1M33 34h3M50 34h1M26 35h1M36 35h1M8 36h1M26 36h1M51 36h1M9 37h1M21 37h1M25 37h1M51 37h1M9 38h1M22 38h1M10 39h1M24 39h2M52 39h1M10 40h1M52 40h1M57 40h3M11 41h1M52 41h4M60 41h1M12 42h1M52 42h1M60 42h1M13 43h1M51 43h1M59 43h1M14 44h1M51 44h1M58 44h2M15 45h1M51 45h1M56 45h3M17 46h1M51 46h6M19 47h2M50 47h3M22 48h2M50 48h1M25 49h1M49 49h1M26 50h1M36 50h7M27 51h1M36 51h1M43 51h2M48 51h1M35 52h1M48 52h1M34 53h1M34 54h1M49 55h1M33 56h1M49 56h1M32 57h1M49 57h1M20 58h1M22 58h2M29 58h1M49 58h1M21 59h1M26 59h2M49 59h1M23 60h3M48 60h1M43 61h1M46 61h1M48 61h1M42 62h2M46 62h2M44 63h2" />
<path stroke="#e07018" d="M15 6h1M14 8h1M13 10h1M12 12h1M11 15h1M29 16h3M26 17h3M33 19h1M34 20h1M38 20h2M35 21h6M36 22h5M30 23h1M36 23h6M39 24h3M40 25h3M24 26h1M40 26h4M40 27h4M5 28h1M27 28h1M34 28h2M39 28h6M37 29h9M39 30h8M41 31h7M23 32h1M41 32h8M26 33h5M37 33h2M41 33h8M27 34h3M32 34h1M37 34h13M38 35h11M38 36h11M37 37h10M24 38h2M38 38h8M50 38h2M39 39h2M45 39h6M47 40h4M48 41h2M38 42h1M48 42h1M48 43h3M48 44h3M48 45h3M47 46h4M47 47h3M45 48h5M30 49h1M38 49h3M42 49h7M29 50h4M43 50h6M28 51h8M45 51h3M29 52h6M45 52h3M30 53h4M46 53h2M31 54h3M44 54h1M47 54h2M32 55h2M47 55h2M30 56h3M47 56h2M28 57h3M48 57h1" />
<path stroke="#c8b070" d="M16 6h1M16 7h1M15 8h1M15 9h1M14 10h2M14 11h2M13 12h2M13 13h1M13 14h1M6 15h1M12 15h1M40 15h3M6 16h3M12 16h1M39 16h3M6 17h4M12 17h1M38 17h3M6 18h4M38 18h2M6 19h4M6 20h4M6 21h4M6 22h4M6 23h4M6 24h3M36 24h3M6 25h3M35 25h5M6 26h3M35 26h5M6 27h3M35 27h5M7 28h2M36 28h3M7 29h2M7 30h1" />
<path stroke="#784020" d="M41 6h1M22 16h1M34 17h1M23 18h1M34 18h3M35 19h3M37 30h1M6 32h1M50 35h1M49 36h2M48 37h3M11 38h1M46 38h3M11 39h1M51 39h1M11 40h1M51 40h1M55 40h2M60 40h1M12 41h1M50 41h2M59 41h1M61 41h1M13 42h1M49 42h2M53 42h1M59 42h1M61 42h1M14 43h1M60 43h1M15 44h1M57 44h1M16 45h2M55 45h1M18 46h2M57 46h1M18 47h1M21 47h4M53 47h2M21 48h1M44 52h1M44 53h1M44 59h1" />
<path stroke="#a08848" d="M41 7h1M40 8h1M39 9h2M39 10h1M38 11h2M38 12h2M14 13h1M38 13h2M14 14h1M37 14h4M13 15h2M37 15h3M13 16h2M37 16h2M13 17h1M37 17h1M10 18h4M10 19h4M10 20h4M10 21h4M10 22h3M10 23h3M10 24h3M11 25h2M12 26h1M6 28h1M8 30h1M7 31h2M7 32h2M8 33h1M8 34h2M9 35h1M9 36h1M10 38h1" />
<path stroke="#f8b838" d="M29 17h4M26 18h7M25 19h5M24 20h5M23 21h5M23 22h5M22 23h6M22 24h5M24 25h3M25 26h2M24 27h3M23 28h3M22 29h2M30 35h3M29 36h1M34 36h1M22 37h1M27 37h1M36 37h1M37 38h1M38 39h1M38 40h1M41 40h4M38 41h1M40 41h6M40 42h6M25 43h1M40 43h6M24 44h2M41 44h2M24 45h3M24 46h3M25 47h2M39 48h1M37 49h1" />
<path stroke="#f89028" d="M30 19h3M29 20h5M28 21h7M28 22h3M33 22h3M28 23h2M34 23h2M27 24h3M34 24h2M23 25h1M27 25h4M33 25h2M27 26h8M27 27h8M28 28h6M24 29h7M32 29h1M22 30h2M25 30h2M31 30h1M22 31h3M38 31h1M24 32h3M30 32h1M37 32h4M31 33h1M39 33h2M30 34h2M27 35h3M33 35h3M27 36h2M35 36h2M26 37h1M23 38h1M41 39h4M40 40h1M45 40h2M46 41h2M25 42h1M39 42h1M46 42h2M24 43h1M39 43h1M46 43h2M39 44h2M43 44h5M39 45h9M40 46h7M27 47h1M40 47h7M25 48h4M41 48h4M26 49h4M27 50h2M45 53h1M29 54h2M45 54h2M27 55h5M44 55h3M26 56h4M44 56h3M27 57h1M43 57h1" />
<path stroke="#686868" d="M31 22h1M32 23h1M31 24h1M22 25h1M21 26h1" />
<path stroke="#f8f8f8" d="M31 23h1M22 26h1M21 28h1M21 29h1M21 30h1M30 36h4M28 37h8M27 38h10M26 39h12M26 40h12M26 41h12M27 42h11M27 43h11M27 44h10M28 45h8M28 46h7M29 47h2M32 47h1M34 47h1M31 48h1M33 48h1M35 48h1M34 49h1" />
<path stroke="#783820" d="M20 28h1M20 29h1M20 30h1M24 30h1M38 30h1M39 31h2M37 36h1M26 38h1M23 39h1M25 40h1M39 40h1M39 41h1M26 42h1M26 43h1M38 43h1M26 44h1M38 44h1M27 45h1M38 45h1M27 46h1M39 46h1M28 47h1M39 47h1M29 48h2M40 48h1M31 49h2M41 49h1M33 50h3" />
<path stroke="#e00000" d="M28 31h3M27 32h3" />
<path stroke="#d8d898" d="M37 44h1M36 45h2M35 46h4M31 47h1M33 47h1M35 47h4M32 48h1M34 48h1M36 48h3M33 49h1M35 49h2" />
</svg>