<svg xmlns="http://www.w3.org/2000/svg" viewBox="0 -0.5 64 64" shape-rendering="crispEdges">
<metadata>Made with Pixels to Svg https://codepen.io/shshaw/pen/XbxvNj</metadata>
<path stroke="#98b810" d="M33 16h1M31 17h2M30 18h1M33 18h1M36 18h2M20 19h4M29 19h1M33 19h1M24 20h1M28 20h1M32 20h1M42 20h1M32 21h1M39 21h1M31 22h1M31 23h1M38 23h1M18 24h3M27 24h1M31 24h1M37 24h3M17 25h1M30 25h1M35 25h1M37 25h4M21 26h2M30 26h1M35 26h1M37 26h1M43 26h1M23 27h1M44 27h1M24 28h1M34 28h1M36 28h3M40 28h1M43 28h1M46 28h1M26 29h1M28 29h2M31 29h1M34 29h1M36 29h2M40 29h1M45 29h1M24 30h2M28 30h2M31 30h3M35 30h1M37 30h3M44 30h1M23 31h5M29 31h5M36 31h4M43 31h1M25 32h3M29 32h4M35 32h4M41 32h1M26 33h3M30 33h2M34 33h6" />
<path stroke="#608030" d="M34 16h2M36 17h2M38 18h1M36 19h1M25 20h1M43 20h3M21 21h1M26 21h1M28 21h1M40 21h2M45 21h1M21 22h1M27 22h1M38 22h1M44 22h1M22 23h1M27 23h1M37 23h1M44 23h1M21 24h2M26 24h1M23 25h2M26 25h1M42 25h1M18 26h1M25 26h2M38 26h5M19 27h1M26 27h1M30 27h1M35 27h3M45 27h2M20 28h1M26 28h1M30 28h1M41 28h2M25 29h1M27 29h1M30 29h1M38 29h2M26 30h2M30 30h1M34 30h1M36 30h1M28 31h1M35 31h1M24 32h1M28 32h1M33 32h2M42 32h1M29 33h1M32 33h1M34 34h2M39 34h1" />
<path stroke="#c0e810" d="M33 17h1M31 18h2M30 19h3M21 20h3M29 20h3M22 21h4M29 21h3M33 21h1M23 22h3M28 22h3M32 22h1M34 22h1M28 23h3M33 23h1M29 24h2M32 24h1M34 24h1M18 25h5M19 26h2M23 26h2M21 27h2M24 27h2M22 28h2" />
<path stroke="#a8d810" d="M34 17h2M34 18h2M34 19h2M33 20h3M34 21h2M42 21h3M22 22h1M26 22h1M33 22h1M35 22h1M39 22h5M23 23h4M32 23h1M34 23h2M39 23h5M23 24h3M28 24h1M33 24h1M35 24h1M40 24h3M25 25h1M27 25h3M31 25h4M41 25h1M27 26h3M31 26h4M20 27h1M27 27h3M31 27h4M38 27h6M21 28h1M25 28h1M27 28h3M31 28h3M39 28h1M44 28h2M21 29h4M32 29h2M41 29h4M22 30h2M40 30h4M40 31h3M39 32h2" />
<path stroke="#101010" d="M37 19h2M20 20h1M36 20h1M36 21h1M36 22h1M36 23h1M36 24h1M43 24h1M36 25h1M36 26h1M47 27h1M35 28h1M47 28h1M20 29h1M35 29h1M46 29h1M21 30h1M45 30h1M22 31h1M34 31h1M44 31h1M23 32h1M43 32h1M25 33h1M33 33h1M40 33h2M36 34h3M38 40h1M38 41h1M23 42h2M37 42h1M37 43h1M35 44h2M21 45h1M27 45h6M35 45h1M22 46h1M28 46h1M33 46h1M36 46h1M23 47h2M28 47h1M33 47h1M37 47h1M25 48h3M37 48h1M37 49h1M36 50h1M34 51h2" />
<path stroke="#004800" d="M26 34h2M25 35h1M36 35h1M37 36h1M37 37h1M38 38h1M38 39h1M23 40h1M23 41h1M25 43h2M21 44h1M27 44h1M33 45h2M32 48h1M32 49h1M32 50h1M33 51h1" />
<path stroke="#70c020" d="M28 34h1M28 35h4M29 36h4M29 37h2M32 37h1M29 38h4M31 39h2M24 40h1M27 40h1M31 40h2M24 41h8M25 42h6M27 43h2M22 44h1M24 44h1" />
<path stroke="#40a020" d="M29 34h5M32 35h4M24 36h1M33 36h4M24 37h1M33 37h4M23 38h1M33 38h5M23 39h1M30 39h1M33 39h5M28 40h1M30 40h1M33 40h5M32 41h6M22 42h1M31 42h6M21 43h1M29 43h8M25 44h2M28 44h7M22 45h5M23 46h5M34 46h2M25 47h3M34 47h3M33 48h4M33 49h4M33 50h3" />
<path stroke="#88d838" d="M26 35h2M25 36h4M25 37h1M27 37h2M24 38h5M24 39h4M25 40h2M22 43h3M23 44h1" />
<path stroke="#e04840" d="M26 37h1M29 40h1" />
<path stroke="#b02830" d="M31 37h1M28 39h2" />
</svg>