<svg xmlns="http://www.w3.org/2000/svg" viewBox="0 -0.5 64 64" shape-rendering="crispEdges">
<metadata>Made with Pixels to Svg https://codepen.io/shshaw/pen/XbxvNj</metadata>
<path stroke="#304870" d="M49 4h5M46 5h3M54 5h2M44 6h2M56 6h1M42 7h2M57 7h1M5 8h4M41 8h1M57 8h1M4 9h1M9 9h2M40 9h1M58 9h1M3 10h1M11 10h1M20 10h1M39 10h1M58 10h1M12 11h1M38 11h1M58 11h1M13 12h1M18 12h1M37 12h1M58 12h1M4 13h1M14 13h1M18 13h1M36 13h1M58 13h1M4 14h1M18 14h1M35 14h1M58 14h1M15 15h1M18 15h1M34 15h1M58 15h1M5 16h1M16 16h1M20 16h1M26 16h1M34 16h1M57 16h1M16 17h2M25 17h1M27 17h1M33 17h1M57 17h1M6 18h1M17 18h1M21 18h1M25 18h1M33 18h1M56 18h1M12 19h2M17 19h1M24 19h1M32 19h1M56 19h1M14 20h1M17 20h1M24 20h1M32 20h1M55 20h1M8 21h1M17 21h1M23 21h1M27 21h1M31 21h1M55 21h1M8 22h1M13 22h1M17 22h1M23 22h1M26 22h1M31 22h1M54 22h1M9 23h1M17 23h1M22 23h1M31 23h1M54 23h1M10 24h1M14 24h1M17 24h1M21 24h1M30 24h1M54 24h1M11 25h1M17 25h1M30 25h1M53 25h1M17 26h1M23 26h4M29 26h1M33 26h1M53 26h1M15 27h2M22 27h1M27 27h1M29 27h1M32 27h1M53 27h1M14 28h1M16 28h1M21 28h1M28 28h2M32 28h1M35 28h1M53 28h1M14 29h1M31 29h1M34 29h1M52 29h1M21 30h1M31 30h1M33 30h1M52 30h1M22 31h1M32 31h1M36 31h2M52 31h1M18 32h1M23 32h1M34 32h2M19 33h1M29 33h1M33 33h1M51 33h1M18 34h1M20 34h1M24 34h1M32 34h1M36 34h3M24 35h1M34 35h2M23 36h1M38 37h1M40 38h1M45 38h1M22 39h1M47 39h2M23 40h1M34 40h6M49 40h1M50 41h1M21 42h1M35 42h5M50 42h1M50 43h1M49 44h1M20 45h1M36 45h3M48 45h1M20 46h1M49 46h2M20 47h1M37 47h1M51 47h1M21 48h2M51 48h1M22 49h1M44 49h2M50 49h1M43 50h1M46 50h1M24 51h1" />
<path stroke="#6080c0" d="M49 5h5M46 6h4M54 6h2M44 7h3M56 7h1M19 8h1M42 8h3M5 9h4M18 9h1M41 9h2M57 9h1M4 10h1M8 10h3M18 10h1M40 10h2M10 11h2M18 11h1M39 11h2M11 12h2M38 12h2M47 12h2M12 13h2M37 13h2M45 13h1M8 14h1M13 14h2M36 14h2M43 14h1M9 15h2M14 15h1M35 15h2M41 15h1M11 16h1M14 16h2M18 16h1M35 16h1M40 16h1M43 16h2M9 17h2M12 17h1M15 17h1M20 17h1M34 17h2M39 17h3M11 18h3M15 18h2M20 18h1M34 18h1M38 18h2M14 19h1M16 19h1M20 19h1M33 19h2M37 19h1M16 20h1M20 20h1M26 20h1M33 20h1M14 21h1M20 21h1M26 21h1M32 21h2M36 21h1M45 21h2M9 22h3M15 22h1M20 22h2M25 22h1M32 22h1M35 22h1M43 22h2M12 23h1M15 23h2M20 23h2M25 23h1M32 23h1M34 23h1M41 23h2M16 24h1M20 24h1M24 24h2M31 24h2M34 24h1M40 24h1M24 25h2M31 25h1M33 25h1M38 25h1M13 26h2M30 26h2M37 26h1M30 27h1M36 27h1M48 27h4M30 28h1M45 28h2M29 29h2M42 29h2M29 30h2M39 30h2M21 31h1M28 31h1M31 31h1M38 31h6M19 32h4M27 32h4M45 32h1M20 33h2M23 33h2M26 33h2M30 33h2M47 33h1M21 34h1M31 34h1M39 34h4M32 35h1M44 35h2M22 36h1M32 36h1M39 38h1M46 38h1M26 39h2M24 40h6M40 40h4M25 41h3M45 41h3M40 42h1M48 42h2M21 43h1M41 43h3M20 44h1M45 44h2M47 45h1M39 46h2M41 47h1M42 48h2" />
<path stroke="#98d0f8" d="M50 6h4M47 7h9M45 8h12M43 9h14M5 10h3M42 10h16M4 11h6M41 11h8M4 12h7M41 12h5M49 12h9M5 13h7M39 13h5M46 13h12M9 14h2M39 14h1M41 14h1M44 14h14M5 15h4M38 15h1M40 15h1M42 15h4M54 15h4M6 16h5M37 16h1M39 16h1M41 16h1M46 16h8M38 17h1M43 17h14M7 18h3M41 18h1M43 18h13M7 19h2M40 19h1M42 19h14M39 20h1M41 20h1M43 20h4M54 20h1M40 21h1M42 21h1M44 21h1M48 21h6M41 22h1M45 22h9M43 23h11M41 24h1M43 24h11M42 25h1M44 25h9M39 26h1M41 26h1M43 26h10M40 27h1M42 27h1M44 27h3M39 28h1M41 28h1M43 28h1M48 28h5M40 29h1M44 29h8M41 30h1M43 30h9M45 31h7M41 32h1M43 32h2M47 32h5M40 33h1M42 33h1M44 33h3M49 33h2M44 34h5M50 34h1M40 35h1M42 35h1M46 35h4M41 36h1M43 36h3M47 36h2M40 37h1M42 37h5M47 38h1M44 39h3M45 40h4M41 41h1M43 41h1M48 41h2M22 42h1M42 42h6M22 43h1M45 43h5M21 44h1M23 44h1M40 44h1M42 44h2M47 44h2M22 45h2M39 45h1M41 45h6M22 46h2M42 46h7M21 47h3M39 47h2M42 47h9M23 48h1M40 48h2M44 48h7M23 49h1M41 49h3M46 49h4M23 50h2M47 50h2" />
<path stroke="#88a8e0" d="M19 9h1M19 10h1M19 11h1M49 11h9M19 12h1M46 12h1M19 13h1M44 13h1M5 14h3M19 14h1M42 14h1M19 15h1M46 15h8M19 16h1M42 16h1M45 16h1M54 16h3M6 17h3M18 17h2M26 17h1M18 18h2M26 18h1M18 19h2M25 19h2M38 19h1M13 20h1M15 20h1M18 20h2M25 20h1M36 20h2M47 20h7M13 21h1M16 21h1M18 21h2M24 21h2M47 21h1M54 21h1M12 22h1M14 22h1M18 22h2M24 22h1M14 23h1M18 23h2M23 23h2M11 24h3M15 24h1M18 24h2M22 24h2M39 24h1M12 25h2M15 25h2M18 25h6M39 25h1M16 26h1M18 26h5M32 26h1M34 26h1M38 26h1M14 27h1M17 27h5M31 27h1M33 27h3M37 27h1M47 27h1M52 27h1M17 28h4M31 28h1M33 28h2M36 28h2M44 28h1M47 28h1M17 29h4M32 29h2M35 29h2M41 29h1M18 30h3M32 30h1M34 30h3M38 30h1M18 31h3M33 31h3M44 31h1M32 32h2M36 32h2M46 32h1M34 33h4M48 33h1M25 34h2M33 34h3M43 34h1M49 34h1M25 35h2M36 35h3M24 36h3M34 36h5M46 36h1M22 37h4M22 38h4M33 38h6M23 39h3M33 39h7M44 40h1M35 41h5M44 41h1M41 42h1M23 43h2M36 43h4M44 43h1M22 44h1M36 44h3M44 44h1M21 45h1M21 46h1M37 46h2" />
<path stroke="#101010" d="M3 11h1M20 11h1M3 12h1M20 12h1M20 13h1M20 14h1M4 15h1M20 15h1M5 17h1M27 18h1M6 19h1M21 19h1M27 19h1M7 20h1M12 20h1M21 20h1M27 20h1M12 21h1M15 21h1M21 21h1M16 22h1M13 23h1M26 23h1M26 24h1M14 25h1M26 25h1M12 26h1M15 26h1M13 27h1M25 27h1M25 28h2M16 29h1M21 29h1M23 29h4M28 29h1M14 30h1M16 30h2M24 30h2M28 30h1M14 31h1M17 31h1M27 31h1M29 31h2M15 32h1M24 32h3M31 32h1M52 32h1M16 33h3M25 33h1M32 33h1M29 34h1M51 34h1M19 35h1M21 35h2M29 35h1M33 35h1M50 35h1M19 36h1M21 36h1M29 36h1M31 36h1M33 36h1M49 36h1M21 37h1M26 37h1M28 37h1M31 37h1M33 37h5M47 37h2M19 38h1M21 38h1M26 38h2M32 38h1M41 38h4M20 39h1M28 39h2M31 39h2M20 40h1M22 40h1M30 40h1M33 40h1M22 41h1M24 41h1M28 41h2M34 41h1M25 42h3M25 43h1M35 43h1M35 44h1M27 45h1M31 45h1M33 45h1M35 45h1M24 46h1M28 46h1M31 46h1M35 46h2M24 47h1M35 47h1M38 47h1M24 48h1M34 48h1M39 48h1M32 49h1M40 49h1M22 50h1M25 50h1M28 50h1M31 50h1M33 50h1M41 50h2M49 50h1M23 51h1M25 51h1M27 51h1M47 51h2M32 52h1M26 53h1M31 53h1M30 54h1M28 55h2" />
<path stroke="#88b8e8" d="M40 12h1M11 14h2M38 14h1M40 14h1M11 15h3M37 15h1M39 15h1M12 16h2M36 16h1M38 16h1M11 17h1M13 17h2M36 17h2M42 17h1M10 18h1M14 18h1M35 18h3M40 18h1M42 18h1M9 19h3M15 19h1M35 19h2M39 19h1M41 19h1M8 20h4M34 20h2M38 20h1M40 20h1M42 20h1M9 21h3M34 21h2M37 21h3M41 21h1M43 21h1M33 22h2M36 22h5M42 22h1M10 23h2M33 23h1M35 23h6M33 24h1M35 24h4M42 24h1M32 25h1M34 25h4M40 25h2M43 25h1M35 26h2M40 26h1M42 26h1M38 27h2M41 27h1M43 27h1M38 28h1M40 28h1M42 28h1M37 29h3M37 30h1M42 30h1M38 32h3M42 32h1M38 33h2M41 33h1M43 33h1M39 35h1M41 35h1M43 35h1M39 36h2M42 36h1M39 37h1M41 37h1M40 39h4M40 41h1M42 41h1M40 43h1M39 44h1M41 44h1M40 45h1M41 46h1" />
<path stroke="#f8f8f8" d="M23 27h2M23 28h2M15 29h1M15 30h1M16 32h2M22 33h1M22 34h2M23 35h1" />
<path stroke="#a8c0c0" d="M26 27h1M15 28h1M22 28h1M27 28h1M22 29h1M22 30h2M15 31h2" />
<path stroke="#e0e0e0" d="M27 29h1M26 30h2M23 31h4M19 34h1M20 35h1" />
<path stroke="#605038" d="M28 33h1M27 34h1M30 34h1M27 35h1M31 35h1M20 36h1M27 36h1M19 37h1M32 37h1M29 38h2M21 41h1M23 42h2M34 42h1M32 43h1M24 44h1M32 44h1M34 44h1M24 45h1M26 45h1M29 45h1M25 46h1M30 46h1M24 49h1M29 49h1M34 49h1M26 50h1M30 50h1M28 51h1M31 51h1M33 51h1M25 52h1M26 54h1M27 55h1" />
<path stroke="#c0a888" d="M28 34h1M30 35h1M20 37h1M27 37h1M29 37h1M28 38h1M31 38h1M21 39h1M30 39h1M23 41h1M26 43h3M25 44h1M28 44h2M29 46h1M29 47h2M29 48h2M29 51h1M26 52h3" />
<path stroke="#e0d0a8" d="M28 35h1M28 36h1M30 36h1M30 37h1M20 38h1M21 40h1M26 44h2M25 45h1M28 45h1M26 46h2M25 47h4M25 48h4M25 49h4M27 50h1M26 51h1" />
<path stroke="#a08068" d="M31 40h2M30 41h4M28 42h6M29 43h3M33 43h2M30 44h2M33 44h1M30 45h1M32 45h1M34 45h1M32 46h3M31 47h4M31 48h3M30 49h2M33 49h1M29 50h1M32 50h1M30 51h1M32 51h1M29 52h3M27 53h4M27 54h3" />
</svg>