<svg xmlns="http://www.w3.org/2000/svg" viewBox="0 -0.5 64 64" shape-rendering="crispEdges">
<metadata>Made with Pixels to Svg https://codepen.io/shshaw/pen/XbxvNj</metadata>
<path stroke="#003068" d="M26 6h2M32 6h2M27 7h1M33 9h1M20 10h1M22 10h1M28 10h1M21 11h1M27 11h1M21 12h1M26 12h1M32 12h1M37 12h3M18 13h1M25 13h1M35 13h2M18 14h1M33 14h2M38 14h1M18 15h1M31 15h2M18 16h1M37 16h1M17 17h1M49 17h1M36 18h1M50 18h1M53 18h1M19 19h1M50 19h1M54 19h1M15 20h2M36 20h2M14 21h1M20 21h1M34 21h1M38 21h2M55 21h1M18 22h1M40 22h1M51 22h1M18 23h1M30 23h1M41 23h1M51 23h1M7 24h1M18 24h1M26 24h4M33 24h1M51 24h1M56 24h1M6 25h1M32 25h1M51 25h1M6 26h1M51 26h1M5 27h1M28 27h1M50 27h1M11 28h1M14 28h1M28 28h1M34 28h1M39 28h1M50 28h1M11 29h1M13 29h1M29 29h1M34 29h1M40 29h1M49 29h1M11 30h1M30 30h1M35 30h1M40 30h1M48 30h1M30 31h1M41 31h1M30 32h1M55 32h1M30 33h1M24 34h1M31 34h1M22 35h2M39 35h1M21 36h1M49 36h1M25 37h1M41 37h1M49 37h1M20 38h1M23 38h2M26 38h1M35 38h1M41 38h1M49 38h1M20 39h1M22 39h1M25 39h1M40 39h1M31 40h1M39 40h1M27 41h1M31 41h1M39 41h1M48 41h1M22 42h1M38 42h1M48 42h1M23 45h1M39 46h1M48 46h1M30 47h1M49 47h1M31 48h3M49 48h1M23 49h2M26 49h1M34 49h1M42 49h1M50 49h1M21 50h2M20 51h1M24 51h1M45 51h1M32 52h1M43 52h1M45 52h1M53 52h1M21 53h1M24 53h1M30 53h1M41 53h2M26 54h1M39 54h2M44 54h1M26 55h1M47 55h2M42 56h1M42 57h1" />
<path stroke="#2078b8" d="M25 7h1M31 7h1M24 8h1M30 8h1M19 9h1M23 9h1M29 9h1M18 10h1M26 10h1M32 10h2M18 11h1M20 11h1M26 11h1M31 11h2M18 12h1M25 12h1M31 12h1M20 13h1M30 13h2M30 14h2M50 15h2M49 16h1M52 16h1M36 17h1M53 17h1M34 18h2M32 19h4M31 20h4M50 20h1M12 21h2M31 21h3M35 21h2M51 21h1M11 22h1M31 22h3M35 22h3M8 23h3M15 23h3M31 23h3M35 23h3M14 24h3M24 24h2M30 24h3M34 24h4M7 25h2M14 25h2M26 25h6M33 25h4M8 26h1M10 26h5M28 26h3M32 26h5M10 27h4M31 27h4M39 27h1M12 28h2M29 28h5M55 28h1M30 29h4M55 29h1M31 30h4M54 30h2M31 31h4M40 31h1M48 31h3M53 31h3M31 32h4M40 32h1M48 32h7M27 33h3M31 33h3M39 33h2M49 33h6M25 34h2M38 34h2M41 34h1M49 34h6M37 35h2M40 35h2M50 35h4M36 36h3M40 36h2M50 36h4M22 37h1M26 37h1M35 37h3M39 37h2M50 37h3M36 38h1M38 38h3M50 38h2M30 39h2M37 39h3M50 39h1M26 40h2M30 40h1M34 40h1M36 40h3M28 41h1M35 41h4M23 42h1M27 42h1M32 42h2M36 42h2M23 43h1M47 43h1M23 44h1M26 44h4M47 44h1M24 45h7M46 45h2M24 46h6M44 46h4M25 47h5M40 47h9M27 48h4M41 48h8M27 49h4M43 49h7M27 50h5M45 50h6M28 51h5M46 51h6M25 52h6M46 52h7M48 53h5M49 54h3M46 55h1" />
<path stroke="#70c8f8" d="M26 7h1M32 7h1M25 8h1M31 8h2M24 9h2M30 9h2M19 10h1M23 10h3M29 10h2M19 11h1M23 11h2M28 11h3M19 12h2M22 12h3M27 12h3M19 13h1M21 13h3M26 13h4M19 14h11M19 15h10M19 16h4M25 16h3M50 16h2M19 17h3M50 17h3M19 18h3M51 18h2M20 19h1M52 19h2M17 20h1M25 20h3M53 20h1M15 21h3M25 21h2M53 21h1M12 22h5M11 23h3M10 24h3M36 32h2M35 33h3M27 34h4M34 34h3M26 35h11M27 36h8M29 37h4M43 37h1M42 38h1M44 38h1M41 39h1M43 39h1M40 40h1M42 40h1M44 40h1M40 41h4M40 42h5M40 43h5M40 44h4M40 45h3" />
<path stroke="#101010" d="M33 7h1M27 8h1M33 8h1M27 9h1M27 10h1M32 13h1M39 13h1M32 14h1M38 15h1M37 17h1M17 18h1M17 19h1M36 19h1M18 20h1M29 20h2M35 20h1M54 20h1M18 21h1M27 21h2M26 22h1M28 22h1M34 22h1M55 22h1M25 23h1M34 23h1M42 23h1M55 23h1M17 24h1M43 24h1M16 25h1M44 25h1M56 25h1M15 26h1M31 26h1M45 26h1M56 26h1M7 27h3M14 27h1M29 27h2M45 27h1M56 27h1M5 28h2M10 28h1M27 28h1M46 28h1M56 28h1M27 29h1M46 29h1M56 29h1M13 30h1M26 30h1M46 30h1M56 30h1M11 31h2M17 31h1M22 31h2M25 31h1M35 31h1M47 31h1M56 31h1M18 32h4M35 32h1M41 32h1M47 32h1M34 33h1M41 33h1M48 33h1M55 33h1M32 34h2M40 34h1M48 34h1M55 34h1M49 35h1M54 35h1M39 36h1M54 36h1M21 37h1M38 37h1M53 37h1M37 38h1M52 38h1M35 39h2M49 39h1M51 39h1M20 40h2M25 40h1M29 40h1M35 40h1M49 40h2M24 41h1M34 41h1M49 41h1M24 42h1M31 42h1M34 42h2M22 43h1M24 43h1M26 43h1M31 43h1M34 43h1M36 43h3M48 43h1M22 44h1M24 44h2M31 44h1M33 44h1M38 44h1M48 44h1M31 45h2M38 45h1M48 45h1M23 46h1M30 46h1M24 47h1M39 47h1M25 48h2M40 48h1M41 49h1M33 50h1M43 50h2M51 50h1M23 51h1M33 51h1M52 51h1M20 52h3M31 52h1M44 52h1M25 53h1M29 53h1M53 53h1M21 54h2M28 54h1M52 54h1M27 55h1M38 55h1M43 55h1M51 55h1M39 56h2M48 56h1M51 56h1M43 57h2M49 57h2" />
<path stroke="#48a0e0" d="M26 8h1M26 9h1M32 9h1M31 10h1M22 11h1M25 11h1M30 12h1M24 13h1M37 13h2M35 14h3M29 15h2M33 15h5M28 16h9M18 17h1M26 17h10M18 18h1M26 18h8M18 19h1M21 19h2M25 19h7M51 19h1M20 20h5M28 20h1M51 20h2M21 21h4M37 21h1M52 21h1M54 21h1M17 22h1M23 22h3M38 22h2M52 22h3M14 23h1M24 23h1M38 23h3M52 23h3M8 24h2M13 24h1M38 24h5M52 24h4M9 25h5M37 25h7M52 25h4M9 26h1M37 26h8M52 26h4M35 27h4M40 27h5M51 27h5M35 28h4M40 28h6M51 28h4M35 29h5M41 29h5M50 29h5M36 30h4M41 30h5M49 30h5M36 31h4M42 31h5M51 31h2M38 32h2M42 32h5M38 33h1M42 33h6M37 34h1M42 34h6M24 35h2M42 35h7M22 36h5M35 36h1M42 36h7M23 37h2M27 37h2M33 37h2M42 37h1M44 37h5M27 38h8M43 38h1M45 38h4M26 39h4M32 39h3M42 39h1M44 39h5M28 40h1M32 40h2M41 40h1M43 40h1M45 40h4M32 41h2M44 41h4M39 42h1M45 42h3M39 43h1M45 43h2M39 44h1M44 44h3M39 45h1M43 45h3M40 46h4M25 49h1M31 49h1M23 50h4M25 51h3M43 53h5M42 54h2M45 54h4" />
<path stroke="#d81818" d="M23 16h1M22 17h1M24 17h1M24 18h1M27 23h2" />
<path stroke="#880000" d="M24 16h1M25 17h1M22 18h1M25 18h1M23 19h2M20 22h1M27 22h1" />
<path stroke="#f8f8f8" d="M23 17h1M19 21h1M19 22h1M29 22h2M26 23h1M29 23h1M7 26h1M6 27h1M21 38h2M21 39h1M25 41h2M25 42h1M32 43h1M32 49h2M21 51h2M23 52h1M22 53h2M27 53h2M27 54h1M41 54h1M39 55h2M44 55h2M49 55h2M43 56h1M49 56h1" />
<path stroke="#e83048" d="M23 18h1" />
<path stroke="#c0c0c0" d="M19 20h1M29 21h2M12 29h1M12 30h1M26 42h1M25 43h1M33 43h1M32 44h1M32 50h1M24 52h1M26 53h1M44 56h1M50 56h1" />
<path stroke="#784858" d="M21 22h2M19 23h2M23 23h1M18 25h1M24 25h2M18 26h1M27 26h1M17 27h1M17 28h1M26 28h1M16 29h1M25 29h1M16 30h1M24 30h1M24 31h1M22 41h2M27 43h3M30 44h1M45 56h1" />
<path stroke="#f0b8c0" d="M21 23h2M19 24h4M19 25h3M19 26h3M24 26h1M18 27h3M22 27h2M18 28h6M9 29h2M17 29h6M10 30h1M17 30h5M24 39h1M23 40h2M29 42h2M30 43h1" />
<path stroke="#d87890" d="M23 24h1M23 25h1M22 26h2M25 26h2M21 27h1M24 27h4M7 28h3M24 28h2M23 29h2M26 29h1M22 30h2M25 30h1M18 31h4M25 38h1M23 39h1M22 40h1M29 41h2M28 42h1M24 54h2M41 55h2M46 56h2" />
<path stroke="#b86068" d="M22 25h1M7 29h2M9 30h1M10 31h1M23 54h1M25 55h1M41 56h1M45 57h4" />
</svg>