<svg xmlns="http://www.w3.org/2000/svg" viewBox="0 -0.5 64 64" shape-rendering="crispEdges">
<metadata>Made with Pixels to Svg https://codepen.io/shshaw/pen/XbxvNj</metadata>
<path stroke="#3058c0" d="M19 6h3M17 7h2M22 7h1M16 8h1M20 8h2M13 9h1M15 9h1M22 9h3M30 9h2M12 10h1M14 10h1M25 10h1M28 10h2M32 10h1M52 10h2M12 11h1M14 11h1M26 11h2M31 11h1M50 11h2M53 11h1M30 12h1M49 12h1M53 12h1M11 13h1M29 13h1M41 13h2M46 13h3M52 13h1M11 14h1M29 14h1M40 14h1M42 14h1M45 14h1M52 14h1M24 15h1M27 15h2M39 15h1M41 15h1M43 15h2M51 15h1M53 15h2M22 16h1M25 16h2M39 16h1M42 16h1M44 16h1M51 16h2M54 16h1M11 17h1M21 17h1M24 17h1M40 17h1M53 17h1M11 18h1M16 18h1M21 18h1M25 18h1M41 18h1M53 18h1M15 19h1M26 19h1M41 19h1M51 19h2M12 20h1M14 20h1M25 20h1M37 20h2M40 20h1M49 20h2M13 21h2M27 21h1M34 21h1M36 21h1M38 21h1M41 21h1M51 21h1M27 22h1M33 22h1M35 22h1M37 22h1M41 22h1M50 22h1M29 23h1M31 23h2M42 23h1M49 23h1M30 24h1M43 24h1M49 24h1M48 25h1M46 26h2M45 27h1M45 34h1M49 34h3M46 35h2M51 35h1M50 36h1M34 37h2M52 37h1M30 38h3M35 38h1M49 38h3M35 39h1M49 39h1M34 40h1M49 40h1M48 41h1M22 42h1M32 42h1M46 42h2M23 43h1M30 43h2M45 43h1M20 44h3M29 44h1M30 45h1M28 46h2" />
<path stroke="#88e0f8" d="M19 7h3M13 10h1M18 10h1M22 10h2M30 10h2M13 11h1M16 11h2M24 11h2M28 11h3M12 12h2M15 12h3M25 12h5M12 13h2M15 13h2M12 14h5M49 14h1M12 15h4M46 15h3M12 16h4M45 16h3M12 17h3M45 17h2M12 18h3M42 18h1M44 18h2M13 19h2M42 19h4M48 19h1M13 20h1M41 20h4M46 20h2M42 21h2M45 21h2M42 22h4M43 23h3M44 24h1M43 25h1" />
<path stroke="#3880f8" d="M17 8h1M16 9h6M15 10h2M19 10h2M15 11h1M19 11h4M52 11h1M11 12h1M14 12h1M18 12h6M50 12h3M18 13h8M51 13h1M17 14h4M23 14h6M41 14h1M46 14h2M51 14h1M11 15h1M17 15h2M25 15h2M40 15h1M45 15h1M11 16h1M16 16h2M40 16h2M43 16h1M49 16h2M53 16h1M16 17h2M23 17h1M43 17h2M47 17h6M15 18h1M23 18h2M47 18h1M50 18h3M12 19h1M22 19h4M46 19h1M50 19h1M23 20h2M45 20h1M23 21h2M26 21h1M37 21h1M48 21h3M24 22h3M34 22h1M36 22h1M47 22h3M24 23h5M33 23h4M46 23h3M25 24h5M31 24h4M36 24h1M46 24h3M27 25h5M34 25h2M45 25h3M32 26h2M44 26h2M44 35h2M48 35h3M44 36h6M45 37h7M33 38h2M45 38h4M29 39h6M43 39h1M45 39h4M21 40h1M28 40h2M31 40h3M43 40h2M46 40h3M20 41h3M28 41h1M30 41h3M44 41h1M46 41h2M19 42h3M27 42h2M30 42h2M44 42h2M19 43h4M27 43h1M29 43h1M27 44h1M28 45h2" />
<path stroke="#60c0f8" d="M18 8h2M17 10h1M21 10h1M24 10h1M18 11h1M23 11h1M24 12h1M14 13h1M17 13h1M26 13h3M49 13h2M48 14h1M50 14h1M16 15h1M49 15h2M48 16h1M15 17h1M41 17h2M43 18h1M46 18h1M48 18h2M47 19h1M49 19h1M48 20h1M44 21h1M47 21h1M46 22h1M45 24h1M44 25h1" />
<path stroke="#f0d098" d="M8 14h2M10 18h1M20 19h1M19 20h3M19 21h3M16 22h1M19 22h4M11 23h1M15 23h1M19 23h2M22 23h1M15 24h1M19 24h2M22 24h2M18 25h3M22 25h2M16 26h4M21 26h3M16 27h3M20 27h3M11 28h1M15 28h3M19 28h4M15 29h3M19 29h4M44 29h1M13 30h4M19 30h3M44 30h1M20 31h1M43 31h2M42 32h3M36 33h1M42 33h3M35 34h2M42 34h3M33 35h3M42 35h2M30 36h6M43 36h1M20 37h1M24 37h1M29 37h5M21 38h3M29 38h1M36 38h1M22 39h2M36 39h2M23 40h1M35 40h2M34 41h3M43 41h1M34 42h4M41 42h3M34 43h4M42 43h2M15 44h1M17 44h2M35 44h2M42 44h2M16 45h4M35 45h2M42 45h2M18 46h3M35 46h2M42 46h1M19 47h3M34 47h2M41 47h2M20 48h1M35 48h1M42 48h1M23 49h2M42 49h1M23 50h2M42 50h1M22 51h3M22 52h3M24 53h1" />
<path stroke="#806028" d="M21 14h1M8 15h1M10 15h1M19 15h1M18 16h1M21 16h1M9 17h1M20 17h1M17 18h1M20 18h1M10 20h1M23 22h1M21 23h1M37 23h3M21 24h1M35 24h1M41 24h1M17 25h1M26 25h1M32 25h2M42 25h1M11 26h1M27 26h5M43 26h1M11 27h1M44 27h1M18 28h1M12 29h1M14 29h1M45 29h1M12 30h1M18 30h1M13 31h1M19 31h1M19 32h1M19 33h1M36 35h1M18 36h1M18 37h1M36 37h2M44 37h1M17 38h1M20 38h1M24 38h1M44 38h1M17 39h1M44 39h1M16 40h1M30 40h1M15 41h1M29 41h1M33 41h1M40 41h1M15 42h1M24 42h1M33 42h1M38 42h1M14 43h1M18 43h1M28 43h1M41 43h1M44 43h1M14 44h1M23 44h1M34 44h1M37 44h1M15 45h1M27 45h1M41 46h1M43 46h1M18 47h1M26 47h1M33 47h1M36 47h1M40 47h1M22 48h1M32 48h1M25 50h1M38 50h1M43 50h1M25 53h1" />
<path stroke="#101010" d="M22 14h1M20 15h1M23 15h1M8 16h1M23 16h1M18 17h1M22 17h1M9 18h1M22 18h1M10 19h1M21 19h1M22 20h1M10 21h1M22 21h1M10 22h1M17 22h2M10 23h1M18 23h1M23 23h1M17 24h2M24 24h1M40 24h1M11 25h1M16 25h1M21 25h1M25 25h1M20 26h1M19 27h1M44 28h1M18 29h1M17 30h1M45 30h1M14 31h3M45 31h1M45 32h1M45 33h1M19 34h1M19 35h1M36 36h1M37 38h1M21 39h1M24 39h1M38 39h1M22 40h1M24 40h1M37 40h1M39 40h1M45 40h1M23 41h2M37 41h1M45 41h1M29 42h1M40 42h1M33 43h1M38 43h1M19 44h1M28 44h1M41 44h1M44 44h1M20 45h1M23 45h1M34 45h1M37 45h1M41 45h1M44 45h1M16 46h2M21 46h3M27 46h1M34 46h1M37 46h1M23 47h1M43 47h1M19 48h1M26 48h1M36 48h1M40 48h1M43 48h1M20 49h1M22 49h1M26 49h1M32 49h1M35 49h1M39 49h1M43 49h1M21 50h2M32 50h4M21 51h1M25 51h1M38 51h1M42 51h1M21 52h1M25 52h1M38 52h4M21 53h1M24 55h1M20 56h4" />
<path stroke="#f8f8f8" d="M9 15h1M9 16h1M11 21h1M11 22h1M17 23h1" />
<path stroke="#f8f0b8" d="M21 15h2M20 16h1M10 17h1M19 17h1M18 18h2M11 19h1M16 19h4M15 20h4M15 21h4M15 22h1M37 24h3M15 25h1M24 25h1M39 25h3M15 26h1M24 26h3M39 26h4M15 27h1M23 27h4M38 27h6M23 28h6M35 28h9M13 29h1M23 29h21M22 30h22M21 31h22M20 32h18M40 32h2M20 33h16M40 33h2M20 34h15M41 34h1M20 35h13M41 35h1M19 36h11M37 36h1M40 36h3M19 37h1M21 37h3M25 37h4M38 37h6M18 38h2M25 38h4M38 38h6M18 39h3M25 39h4M39 39h4M19 40h2M25 40h3M40 40h3M19 41h1M25 41h3M41 41h2M18 42h1M25 42h2M24 43h3M16 44h1M24 44h3M24 45h3M24 46h3M24 47h2M23 48h3M41 48h1M25 49h1M40 49h2" />
<path stroke="#f8f8d8" d="M10 16h1M19 16h1M11 20h1M12 21h1M12 22h3M12 23h3M12 24h3M12 25h3M36 25h3M12 26h3M34 26h5M12 27h3M27 27h11M12 28h3M29 28h6M38 32h2M37 33h3M37 34h4M37 35h4M38 36h2M17 40h2M16 41h3M16 42h2M15 43h3" />
<path stroke="#585858" d="M16 23h1M11 24h1M16 24h1M22 47h1M21 48h1M33 48h2M21 49h1M33 49h2M40 50h2M40 51h2M22 53h2M20 54h1M22 54h3M20 55h1M22 55h2" />
<path stroke="#989898" d="M39 50h1M39 51h1M21 54h1M21 55h1" />
</svg>