<svg xmlns="http://www.w3.org/2000/svg" viewBox="0 -0.5 68 56" shape-rendering="crispEdges">
<metadata>Made with Pixels to Svg https://codepen.io/shshaw/pen/XbxvNj</metadata>
<path stroke="#000000" d="M23 17h1M22 18h1M24 18h1M31 18h2M22 19h1M24 19h1M29 19h2M33 19h1M22 20h1M25 20h1M28 20h1M34 20h1M21 21h1M25 21h1M27 21h1M34 21h1M21 22h1M26 22h1M36 22h2M21 23h1M25 23h1M38 23h1M21 24h1M39 24h1M22 25h1M39 25h1M21 26h1M39 26h1M20 27h1M38 27h1M19 28h1M37 28h1M19 29h1M36 29h1M44 29h2M18 30h1M37 30h1M42 30h2M46 30h2M18 31h1M38 31h1M41 31h1M44 31h2M48 31h1M18 32h1M38 32h1M41 32h1M43 32h1M46 32h1M48 32h1M19 33h1M37 33h1M40 33h1M42 33h1M44 33h1M47 33h1M49 33h1M20 34h2M35 34h2M40 34h1M43 34h1M45 34h1M47 34h1M49 34h1M22 35h4M34 35h1M41 35h1M45 35h1M47 35h1M49 35h1M26 36h1M33 36h1M42 36h3M46 36h1M49 36h1M26 37h1M34 37h1M46 37h1M48 37h1M25 38h1M36 38h2M44 38h2M48 38h1M25 39h1M38 39h2M42 39h2M47 39h1M25 40h1M46 40h1M24 41h1M45 41h1M24 42h1M44 42h1M24 43h1M43 43h1M24 44h1M42 44h1M25 45h1M41 45h1M26 46h1M41 46h1M27 47h1M36 47h2M41 47h1M27 48h1M35 48h1M37 48h1M40 48h1M28 49h1M35 49h1M37 49h1M40 49h1M28 50h1M35 50h1M38 50h2M29 51h1M34 51h1M31 52h3" />
<path stroke="#b4c6f6" d="M23 18h1M23 19h1M31 19h2M29 20h3M28 21h3M22 22h1M29 22h1M31 22h1M23 23h1M36 23h2M34 24h1M36 24h3M35 25h1M37 25h2M36 26h3M35 27h1M37 27h1M35 30h2M34 31h1M36 31h2M35 32h3M34 33h1M36 33h1M33 35h1" />
<path stroke="#e6eacd" d="M23 20h1M22 21h2M27 22h1M26 23h2" />
<path stroke="#ffffbd" d="M24 20h1M24 21h1M31 21h1M23 22h3M28 22h1M30 22h1M22 23h1M24 23h1M28 23h4M24 24h1M30 24h1M35 24h1M25 25h1M31 25h1M34 25h1M36 25h1M34 26h2M34 27h1M36 27h1M31 28h4M31 29h2M35 29h1M34 30h1M35 31h1M34 32h1M35 33h1M32 34h3M32 35h1M31 36h1M31 37h1" />
<path stroke="#b7c4f9" d="M32 20h2M32 21h2" />
<path stroke="#fffacd" d="M32 22h1" />
<path stroke="#7599e3" d="M33 22h1M32 23h1" />
<path stroke="#7889af" d="M34 22h1" />
<path stroke="#000810" d="M35 22h1" />
<path stroke="#bacad8" d="M33 23h1" />
<path stroke="#b4caff" d="M34 23h2" />
<path stroke="#d5ded5" d="M22 24h2" />
<path stroke="#313031" d="M25 24h1M24 25h1M28 26h1M21 27h1M29 27h1M30 28h1M26 29h3M30 29h1M23 30h1M28 30h1M31 30h1M22 31h2M31 31h1M23 32h1M31 32h1M31 33h1M27 34h1M26 35h1M30 36h1M30 37h1M31 48h1M31 49h1" />
<path stroke="#fefeba" d="M26 24h4M32 24h2M26 25h4M32 25h2M30 26h4M30 27h4M32 30h2M32 31h2M32 32h2M32 33h2" />
<path stroke="#7ba1ee" d="M31 24h1" />
<path stroke="#474a47" d="M23 25h1" />
<path stroke="#a7c0de" d="M30 25h1" />
<path stroke="#83c4ff" d="M22 26h1M29 39h1M43 40h1" />
<path stroke="#4474a9" d="M23 26h1M22 27h1" />
<path stroke="#e9f2f6" d="M24 26h2" />
<path stroke="#b1cadc" d="M26 26h1" />
<path stroke="#2e3c49" d="M27 26h1" />
<path stroke="#ffffde" d="M29 26h1" />
<path stroke="#c9cfd5" d="M23 27h1" />
<path stroke="#ffffff" d="M24 27h2M22 28h6M22 29h2M19 30h4M27 30h1M19 31h3M27 31h1M19 32h1M26 32h1M32 51h1" />
<path stroke="#feffff" d="M26 27h2" />
<path stroke="#fefffb" d="M28 27h1" />
<path stroke="#def5ff" d="M20 28h1" />
<path stroke="#9dbdd6" d="M21 28h1M20 29h1" />
<path stroke="#848c8f" d="M28 28h1M30 48h1" />
<path stroke="#d6ddde" d="M29 28h1M29 29h1M29 30h2M28 31h3M30 32h1M30 33h1M24 34h2M48 34h1M42 35h3M48 35h1M47 38h1M46 39h1M45 40h1M44 41h1M40 46h1M40 47h1" />
<path stroke="#759dde" d="M35 28h1M33 29h2" />
<path stroke="#739dde" d="M36 28h1" />
<path stroke="#c7cfd7" d="M21 29h1" />
<path stroke="#737373" d="M24 29h2" />
<path stroke="#3a6792" d="M24 30h1M24 31h1" />
<path stroke="#fff6ee" d="M25 30h1" />
<path stroke="#3b6991" d="M26 30h1M26 31h1" />
<path stroke="#f0f5f8" d="M44 30h2M43 31h1M46 31h1M22 32h1M42 32h1M22 33h2M41 33h1M22 34h2M27 39h1M36 39h2M27 40h1M31 40h1M30 41h2M29 43h1M29 44h1M35 44h1M40 44h1M32 45h3M40 45h1M34 46h1M34 47h1" />
<path stroke="#bec7ce" d="M25 31h1" />
<path stroke="#97a7af" d="M42 31h1M47 31h1M39 49h1" />
<path stroke="#fcfeff" d="M20 32h1M31 51h1" />
<path stroke="#718692" d="M21 32h1M20 33h1" />
<path stroke="#fbfdfe" d="M24 32h1" />
<path stroke="#5c89b4" d="M25 32h1" />
<path stroke="#ccd4d7" d="M27 32h1M47 32h1M26 33h2M48 33h1M41 34h1M48 36h1M36 46h1M38 47h2M28 48h1M29 49h1M32 50h3M33 51h1" />
<path stroke="#ebeced" d="M28 32h1M29 50h1" />
<path stroke="#d4dbdd" d="M29 32h1M28 33h2M30 49h1" />
<path stroke="#cadde9" d="M21 33h1" />
<path stroke="#93b0cc" d="M24 33h2" />
<path stroke="#5c799d" d="M26 34h1" />
<path stroke="#75a1c8" d="M28 34h1M28 35h1" />
<path stroke="#ced6da" d="M29 34h1M29 35h1" />
<path stroke="#829a97" d="M30 34h1" />
<path stroke="#414141" d="M31 34h1M30 35h1" />
<path stroke="#516983" d="M42 34h1M44 34h1M46 38h1M44 40h1" />
<path stroke="#77a0d1" d="M27 35h1" />
<path stroke="#f6ffcd" d="M31 35h1M31 38h1" />
<path stroke="#759ec2" d="M27 36h1M27 37h1M25 44h1M27 46h1" />
<path stroke="#8faecc" d="M28 36h1" />
<path stroke="#c5d1d6" d="M29 36h1" />
<path stroke="#cdd6e6" d="M32 36h1M32 37h2" />
<path stroke="#4f7cb0" d="M47 36h1M44 39h1" />
<path stroke="#a5d2fc" d="M28 37h1" />
<path stroke="#dbe3e7" d="M29 37h1" />
<path stroke="#83bcff" d="M47 37h1M45 39h1" />
<path stroke="#aed4f9" d="M26 38h2M26 39h1M26 40h1M26 41h2M26 42h4M26 43h3M28 44h1M28 45h2" />
<path stroke="#eff5f8" d="M28 38h2M28 39h1M32 40h4M38 40h2M32 41h4M39 41h1M30 42h2M30 43h2M40 43h1M37 44h3M36 45h1M38 45h2M32 46h2M32 47h2M32 48h2M32 49h2" />
<path stroke="#343a40" d="M30 38h1M31 39h1" />
<path stroke="#def2de" d="M32 38h1" />
<path stroke="#393939" d="M33 38h1M32 39h1M31 47h1" />
<path stroke="#474747" d="M34 38h1" />
<path stroke="#080000" d="M35 38h1" />
<path stroke="#6d7870" d="M30 39h1" />
<path stroke="#a1b0a8" d="M33 39h1" />
<path stroke="#dfedf4" d="M34 39h2" />
<path stroke="#f1f6f8" d="M28 40h1M36 40h2M28 41h2M35 42h1M39 42h1M35 43h1M39 43h1" />
<path stroke="#4279ac" d="M29 40h1M37 41h1M38 42h1M34 43h1" />
<path stroke="#6b6d6e" d="M30 40h1" />
<path stroke="#000400" d="M40 40h2" />
<path stroke="#506982" d="M42 40h1M43 41h1" />
<path stroke="#aed4fc" d="M25 41h1M25 42h1M25 43h1M26 44h2M30 45h2" />
<path stroke="#cee2ed" d="M36 41h1M34 42h1M38 43h1" />
<path stroke="#cde1ed" d="M38 41h1M32 42h1M36 43h1M32 44h1M34 44h1" />
<path stroke="#9cbcda" d="M40 41h1" />
<path stroke="#5d7893" d="M41 41h1" />
<path stroke="#6685a2" d="M42 41h1M42 42h1" />
<path stroke="#4175ac" d="M33 42h1M32 43h1" />
<path stroke="#4472a9" d="M36 42h1M40 42h1" />
<path stroke="#83c2ff" d="M37 42h1M41 42h1" />
<path stroke="#d5dcdd" d="M43 42h1M42 43h1M36 44h1M37 45h1" />
<path stroke="#8bc4ff" d="M33 43h1" />
<path stroke="#366aa1" d="M37 43h1" />
<path stroke="#495e71" d="M41 43h1" />
<path stroke="#f5f8f9" d="M30 44h2M38 46h2" />
<path stroke="#4d81b8" d="M33 44h1" />
<path stroke="#79878e" d="M41 44h1" />
<path stroke="#749ec7" d="M26 45h2" />
<path stroke="#7f8b91" d="M35 45h1M35 46h1" />
<path stroke="#759fc5" d="M28 46h2M29 47h1" />
<path stroke="#749ecc" d="M30 46h1M30 47h1" />
<path stroke="#5d7382" d="M31 46h1M37 46h1" />
<path stroke="#8e979a" d="M28 47h1" />
<path stroke="#c4d1d7" d="M35 47h1" />
<path stroke="#79858c" d="M29 48h1" />
<path stroke="#f1f7fa" d="M34 48h1" />
<path stroke="#c0c9cd" d="M38 48h2" />
<path stroke="#b2c2ca" d="M34 49h1" />
<path stroke="#ebeff1" d="M38 49h1" />
<path stroke="#97a7b1" d="M30 50h1" />
<path stroke="#080808" d="M31 50h1M30 51h1" />
</svg>