<svg xmlns="http://www.w3.org/2000/svg" viewBox="0 -0.5 68 56" shape-rendering="crispEdges">
<metadata>Made with Pixels to Svg https://codepen.io/shshaw/pen/XbxvNj</metadata>
<path stroke="#141414" d="M35 33h2M28 34h1M28 35h1M40 35h2M44 36h1M25 37h1M44 37h1M46 39h5M23 40h1M23 41h1M48 42h2M21 44h1M36 44h2M39 44h1M43 44h1M19 45h1M21 45h1M39 45h1M43 45h1M44 46h1M38 47h1M50 47h1M30 48h1M38 48h1M48 48h3M30 49h1M17 50h6M30 50h1M26 52h2M36 52h1" />
<path stroke="#181418" d="M27 34h1M33 34h1M36 34h1M42 34h2M26 35h1M32 35h1M37 35h1M43 35h1M26 36h1M28 36h1M38 36h2M29 37h1M25 38h1M45 38h1M24 39h1M44 39h1M51 40h1M50 41h1M22 42h1M41 42h1M22 43h1M40 43h1M41 44h1M48 44h1M40 45h1M49 45h1M31 46h1M36 46h2M46 46h1M49 46h1M30 47h1M47 47h1M17 48h1M32 48h1M16 49h1M24 49h2M33 49h1M26 50h1M29 50h1M34 50h1M26 51h1M28 51h1M35 51h1" />
<path stroke="#0f0f18" d="M34 34h1M30 36h2M23 49h1" />
<path stroke="#6a728d" d="M35 34h1M34 35h1M23 48h1M22 49h1" />
<path stroke="#6b698c" d="M27 35h1M33 35h1M42 35h1M27 36h1M26 37h2M38 37h2M25 39h1M23 42h1M23 43h1M30 46h1M24 48h2M17 49h1M35 50h1" />
<path stroke="#40454e" d="M35 35h1M22 48h1" />
<path stroke="#414041" d="M36 35h1M28 37h1M40 42h1" />
<path stroke="#424142" d="M32 36h2M34 37h1M33 38h1M28 39h1M33 39h1M25 42h1M31 42h1M35 42h2M24 43h2M30 43h1M32 43h1M37 43h1M44 43h2M26 44h1M31 44h1M29 45h2M33 45h1M26 46h3M19 48h3M28 48h2M26 49h2" />
<path stroke="#69668f" d="M34 36h2M32 37h2M35 37h1M28 38h2M32 38h1M29 39h1M32 39h1M24 42h1M30 42h1M32 42h3M31 43h1M33 43h3M28 44h3M32 44h2M26 45h3M31 45h2M29 46h1M26 47h4M18 48h1M26 48h2M18 49h4" />
<path stroke="#666196" d="M36 36h2" />
<path stroke="#626a8d" d="M40 36h2" />
<path stroke="#f76552" d="M42 36h2M42 37h1M48 40h3M49 41h1M48 45h1M47 46h2M36 47h2M48 47h2M34 48h2M35 49h1" />
<path stroke="#40424c" d="M30 37h1" />
<path stroke="#696e8a" d="M31 37h1" />
<path stroke="#fff7ff" d="M36 37h1M27 41h1" />
<path stroke="#b0a8a8" d="M37 37h1" />
<path stroke="#f75a4a" d="M40 37h1" />
<path stroke="#c16356" d="M41 37h1" />
<path stroke="#676a8f" d="M43 37h1M34 49h1" />
<path stroke="#66668f" d="M26 38h2M30 38h2M26 39h2M30 39h2M24 40h3M30 40h2M25 41h1M30 41h2M22 44h4M23 45h2" />
<path stroke="#b9b1b1" d="M34 38h1M36 38h2M39 38h1M38 39h2M36 40h1M36 41h2" />
<path stroke="#ffffff" d="M35 38h1M38 38h1M34 39h4M37 40h5M28 41h1M26 42h1M28 42h2M27 43h2M22 46h1M25 46h1M22 47h1" />
<path stroke="#b3abab" d="M40 38h1M41 39h1" />
<path stroke="#8b8383" d="M41 38h1" />
<path stroke="#807878" d="M42 38h1" />
<path stroke="#de876b" d="M43 38h1M42 39h1" />
<path stroke="#c64939" d="M44 38h1M40 44h1M27 50h2M27 51h1" />
<path stroke="#fffefe" d="M40 39h1M34 40h1M35 41h1" />
<path stroke="#686060" d="M43 39h1" />
<path stroke="#413842" d="M27 40h1M26 41h1" />
<path stroke="#6a638c" d="M28 40h2M29 41h1M29 43h1" />
<path stroke="#444042" d="M32 40h1M33 41h1" />
<path stroke="#bbb3b3" d="M33 40h1" />
<path stroke="#aaa2a2" d="M35 40h1" />
<path stroke="#c5bdbd" d="M42 40h2M42 41h1" />
<path stroke="#5d626f" d="M44 40h1" />
<path stroke="#070718" d="M45 40h1" />
<path stroke="#deb6a5" d="M46 40h1" />
<path stroke="#4f3c37" d="M47 40h1M46 41h1" />
<path stroke="#b8b3d7" d="M24 41h1" />
<path stroke="#6b618b" d="M32 41h1" />
<path stroke="#433753" d="M34 41h1" />
<path stroke="#c6bebe" d="M38 41h1M40 41h1" />
<path stroke="#877f7f" d="M39 41h1M41 41h1" />
<path stroke="#6a6262" d="M43 41h1" />
<path stroke="#c6bab5" d="M44 41h2" />
<path stroke="#96796e" d="M47 41h1" />
<path stroke="#c24b3c" d="M48 41h1" />
<path stroke="#150719" d="M27 42h1" />
<path stroke="#6c6192" d="M37 42h1M36 43h1" />
<path stroke="#ad6852" d="M38 42h1M39 43h1" />
<path stroke="#303544" d="M39 42h1" />
<path stroke="#4d4852" d="M42 42h2" />
<path stroke="#c6bebd" d="M44 42h2M43 43h1" />
<path stroke="#5a4239" d="M46 42h1" />
<path stroke="#9c786a" d="M47 42h1" />
<path stroke="#625966" d="M26 43h1" />
<path stroke="#101b21" d="M38 43h1M45 45h1M32 47h1" />
<path stroke="#180f18" d="M42 43h1M35 45h1" />
<path stroke="#deae9c" d="M46 43h1" />
<path stroke="#180c08" d="M47 43h1" />
<path stroke="#545668" d="M27 44h1" />
<path stroke="#6f6a85" d="M34 44h1" />
<path stroke="#414a46" d="M35 44h1M34 45h1" />
<path stroke="#c64e42" d="M44 44h1M44 45h1" />
<path stroke="#4c352c" d="M45 44h1" />
<path stroke="#423c39" d="M46 44h1" />
<path stroke="#c06a44" d="M47 44h1M46 45h1" />
<path stroke="#514a71" d="M22 45h1M25 45h1" />
<path stroke="#ff5e4a" d="M47 45h1" />
<path stroke="#101010" d="M18 46h1M18 47h1" />
<path stroke="#c6babd" d="M19 46h1" />
<path stroke="#181818" d="M20 46h1M37 49h1" />
<path stroke="#4e536a" d="M21 46h1M21 47h1" />
<path stroke="#494c5a" d="M23 46h1M23 47h1" />
<path stroke="#4b4153" d="M24 46h1M24 47h2" />
<path stroke="#2d3547" d="M32 46h1" />
<path stroke="#b55c4a" d="M33 46h1" />
<path stroke="#c34c3c" d="M34 46h2M34 47h2" />
<path stroke="#4c4849" d="M19 47h1" />
<path stroke="#6a7295" d="M20 47h1" />
<path stroke="#7e473c" d="M33 47h1" />
<path stroke="#4d5274" d="M33 48h1" />
<path stroke="#b24d3e" d="M36 48h1" />
<path stroke="#ff6852" d="M37 48h1M36 49h1" />
<path stroke="#c04b3c" d="M28 49h2" />
<path stroke="#e77863" d="M36 50h1" />
<path stroke="#101818" d="M37 50h1M37 51h1" />
<path stroke="#9f584a" d="M36 51h1" />
</svg>