<svg xmlns="http://www.w3.org/2000/svg" viewBox="0 -0.5 68 56" shape-rendering="crispEdges">
<metadata>Made with Pixels to Svg https://codepen.io/shshaw/pen/XbxvNj</metadata>
<path stroke="#000000" d="M32 32h1M29 33h1M31 33h1M33 33h1M28 34h1M35 34h2M28 35h1M34 35h1M36 35h1M40 35h3M26 36h2M36 36h1M38 36h2M42 36h1M26 37h1M35 37h1M37 37h1M41 37h1M26 38h1M36 38h1M41 38h1M44 38h1M27 39h1M40 39h1M43 39h1M45 39h1M26 40h1M40 40h1M43 40h1M45 40h1M25 41h1M41 41h2M46 41h1M20 42h2M24 42h1M46 42h1M20 43h1M22 43h1M24 43h1M46 43h1M20 44h1M23 44h1M45 44h1M21 45h1M30 45h1M45 45h1M21 46h1M42 46h2M45 46h1M22 47h1M41 47h1M44 47h1M23 48h1M40 48h1M22 49h1M40 49h1M22 50h1M37 50h3M22 51h1M36 51h1M22 52h1M34 52h2M23 53h2M31 53h3M25 54h6" />
<path stroke="#ffffff" d="M32 33h1M29 34h1M32 34h1M29 35h1M31 35h2M29 36h4M27 37h1M29 37h3M27 38h4M28 39h2M32 42h1M32 43h1M40 45h2M38 46h4M29 47h1M36 47h5M36 48h4M38 49h2" />
<path stroke="#100c10" d="M30 34h1" />
<path stroke="#5f5d5f" d="M31 34h1M30 35h1" />
<path stroke="#080408" d="M33 34h1" />
<path stroke="#acabac" d="M33 35h1" />
<path stroke="#bdbebd" d="M35 35h1M34 36h2M40 36h2M34 37h1M38 37h3M38 38h3M39 39h1M21 43h1M21 44h2M22 45h1M22 46h1" />
<path stroke="#6b6a6b" d="M28 36h1M28 37h1" />
<path stroke="#bdbcbd" d="M33 36h1M32 37h2" />
<path stroke="#c0bfc0" d="M31 38h1" />
<path stroke="#424142" d="M32 38h4M30 39h2M38 39h1M39 40h1M40 41h1M40 44h2M38 45h2M36 46h2M36 49h2M28 50h2M31 50h1M33 50h1M30 51h1" />
<path stroke="#b5b6b5" d="M37 38h1" />
<path stroke="#6b6b6b" d="M32 39h4M44 39h1M27 40h1M30 40h2M38 40h1M44 40h1M26 41h2M30 41h2M38 41h2M43 41h3M28 42h2M28 43h2M26 44h2M26 45h2M36 45h2M24 46h4M24 47h4" />
<path stroke="#787978" d="M36 39h1" />
<path stroke="#3c3c3c" d="M37 39h1" />
<path stroke="#fbfdfb" d="M28 40h1" />
<path stroke="#393c39" d="M29 40h1M28 41h1" />
<path stroke="#6a6a6b" d="M32 40h6M32 41h1M37 41h1M42 42h2M28 44h1M28 45h1" />
<path stroke="#787b78" d="M29 41h1" />
<path stroke="#46aaff" d="M33 41h4M37 42h2M44 42h2M39 43h1M42 43h2M29 44h3M29 45h1M31 45h1M30 46h2M30 47h1" />
<path stroke="#737573" d="M25 42h1M25 43h1" />
<path stroke="#7f7d7f" d="M26 42h1M25 44h1M25 45h1" />
<path stroke="#6b696b" d="M27 42h1M26 43h2M24 44h1M24 45h1" />
<path stroke="#3973d1" d="M30 42h1" />
<path stroke="#79aae6" d="M31 42h1M30 43h1" />
<path stroke="#84c16d" d="M33 42h1" />
<path stroke="#51d63b" d="M34 42h2M34 43h2M24 50h4M24 51h4M26 52h2M26 53h2" />
<path stroke="#51d73a" d="M36 42h1M36 43h2M36 44h2M35 46h1M31 48h1M30 49h1M23 50h1M23 51h1M28 51h2M23 52h3M28 52h1M25 53h1" />
<path stroke="#66ae5c" d="M39 42h1M38 43h1" />
<path stroke="#556c91" d="M40 42h1M26 48h1" />
<path stroke="#4a4539" d="M41 42h1M41 43h1M26 49h2" />
<path stroke="#f0feff" d="M31 43h1" />
<path stroke="#2f9200" d="M33 43h1" />
<path stroke="#56aaff" d="M40 43h1M27 48h1" />
<path stroke="#36b800" d="M44 43h2M44 46h1M36 50h1" />
<path stroke="#fbfffb" d="M32 44h1" />
<path stroke="#308e12" d="M33 44h1M32 45h1" />
<path stroke="#4ed638" d="M34 44h2M35 45h1M33 46h1M32 47h2M28 48h1M28 49h2" />
<path stroke="#38b600" d="M38 44h2M44 44h1M44 45h1M30 50h1M32 50h1M31 51h3M30 52h4M30 53h1" />
<path stroke="#3b552b" d="M42 44h1M43 45h1M34 48h1M35 49h1" />
<path stroke="#849976" d="M43 44h1M34 49h1" />
<path stroke="#3f3f3f" d="M23 45h1M23 46h1M23 47h1" />
<path stroke="#7fbe75" d="M33 45h1" />
<path stroke="#438432" d="M34 45h1M32 46h1M31 47h1M29 48h1" />
<path stroke="#f7ffef" d="M42 45h1M35 48h1" />
<path stroke="#47a6ff" d="M28 46h2M28 47h1" />
<path stroke="#4d7f3d" d="M34 46h1M34 47h1M30 48h1" />
<path stroke="#424539" d="M35 47h1M31 49h2" />
<path stroke="#473c44" d="M24 48h1M25 49h1" />
<path stroke="#5e8d53" d="M25 48h1" />
<path stroke="#3cdc00" d="M32 48h1" />
<path stroke="#46b117" d="M33 48h1M33 49h1" />
<path stroke="#428731" d="M23 49h1M35 50h1M35 51h1" />
<path stroke="#65d053" d="M24 49h1" />
<path stroke="#36b700" d="M34 50h1M34 51h1" />
<path stroke="#39b500" d="M29 52h1M28 53h2" />
</svg>