<svg xmlns="http://www.w3.org/2000/svg" viewBox="0 -0.5 68 56" shape-rendering="crispEdges">
<metadata>Made with Pixels to Svg https://codepen.io/shshaw/pen/XbxvNj</metadata>
<path stroke="#000000" d="M19 10h1M18 11h1M20 11h1M37 11h2M18 12h1M20 12h1M36 12h1M38 12h1M19 13h1M21 13h1M35 13h1M37 13h1M19 14h1M21 14h1M35 14h1M37 14h1M19 15h1M22 15h1M34 15h1M37 15h1M20 16h1M23 16h2M28 16h2M31 16h3M36 16h1M21 17h1M25 17h1M27 17h1M30 17h1M34 17h2M22 18h2M26 18h1M32 18h2M24 19h1M32 19h1M42 19h2M33 20h1M41 20h1M44 20h1M24 21h1M34 21h1M41 21h1M45 21h1M23 22h1M34 22h1M41 22h1M46 22h1M23 23h1M35 23h1M40 23h1M46 23h1M22 24h1M29 24h1M35 24h1M40 24h1M47 24h1M22 25h1M28 25h2M35 25h1M39 25h1M47 25h1M21 26h1M29 26h1M35 26h1M39 26h1M44 26h2M48 26h1M20 27h1M36 27h1M38 27h1M42 27h2M46 27h1M48 27h1M20 28h1M37 28h1M41 28h1M47 28h1M20 29h1M41 29h1M20 30h1M40 30h1M21 31h1M40 31h2M22 32h1M42 32h2M51 32h2M21 33h1M44 33h1M49 33h2M53 33h1M20 34h1M45 34h4M53 34h1M20 35h1M25 35h2M52 35h1M21 36h4M27 36h1M52 36h1M27 37h1M51 37h1M26 38h1M50 38h1M25 39h1M49 39h1M25 40h1M47 40h2M25 41h1M46 41h1M26 42h1M45 42h1M27 43h1M34 43h3M45 43h1M28 44h1M33 44h1M37 44h1M44 44h1M27 45h1M31 45h2M38 45h1M44 45h1M27 46h1M30 46h1M39 46h1M44 46h1M28 47h2M39 47h1M44 47h1M39 48h1M43 48h1M40 49h3" />
<path stroke="#ffeeb4" d="M19 11h1M19 12h1M37 12h1M20 13h1M36 13h1M20 14h1M36 14h1M20 15h1M35 15h1M21 16h1M34 16h1M22 17h1M31 17h3M30 18h1M29 19h1M29 20h1M30 32h2M28 33h3M31 34h2M28 35h4M33 35h1M32 36h3M28 37h6M29 38h4M35 38h2M33 39h3M30 40h4" />
<path stroke="#414141" d="M21 15h1M36 15h1M22 16h1M35 16h1M24 18h1M29 18h1M31 18h1M26 19h1M28 19h1M30 19h1M24 20h2M28 20h1M30 20h1M28 21h2M28 26h1M28 27h1M36 28h1M37 29h1M31 30h1M38 30h1M30 31h1M39 31h1M28 32h2M23 33h5M36 34h3M21 35h1M39 35h1M46 35h1M39 36h1M46 36h1M40 37h1M46 37h1M28 38h1M41 38h2M44 38h2M28 39h1M43 39h2M29 40h1M44 40h1M30 41h1M45 41h1M31 42h2M33 43h1M29 44h1M39 45h1M40 48h1" />
<path stroke="#decda4" d="M23 17h2M25 18h1M25 19h1M36 40h1M35 41h1M33 42h3" />
<path stroke="#8dd090" d="M28 17h2M27 18h2M31 19h1M26 20h2M31 20h2M42 20h2M25 21h3M30 21h4M42 21h1M44 21h1M24 22h10M42 22h1M45 22h1M24 23h5M31 23h4M41 23h2M45 23h1M23 24h5M32 24h3M41 24h1M46 24h1M23 25h5M32 25h3M46 25h1M25 26h3M32 26h3M47 26h1M26 27h2M31 27h5M47 27h1M21 28h1M25 28h7M33 28h3M21 29h10M33 29h4M21 30h10M32 30h6M22 31h2M25 31h5M32 31h7M23 32h5M33 32h9M33 33h8M34 34h2M39 34h2M35 35h3M40 35h2M45 35h1M36 36h3M40 36h5M37 37h3M41 37h2M39 38h2M38 39h1M41 39h2M42 40h2M37 41h1M42 41h3M37 42h2M41 42h4M37 43h7M38 44h5M42 45h2M40 46h3" />
<path stroke="#55995d" d="M27 19h1M40 25h1M31 26h1M40 26h1M39 27h1M32 28h1M38 28h1M32 29h1M22 33h1M51 33h2M21 34h6M49 34h4M22 35h3M47 35h5M45 36h1M47 36h5M43 37h2M47 37h4M27 38h1M46 38h4M26 39h2M45 39h4M26 40h3M45 40h2M26 41h4M27 42h4M28 43h5M44 43h1M30 44h3M43 44h1M29 45h2M40 45h2M29 46h1M43 46h1M41 47h2" />
<path stroke="#a147b6" d="M43 21h1M43 22h2M43 23h1M42 24h2M41 25h1M43 25h1M41 26h1M43 26h1M40 27h1M39 28h2M38 29h3M39 30h1" />
<path stroke="#327735" d="M29 23h2M31 24h1M31 25h1M31 29h1M24 31h1M27 34h1M27 35h1M38 35h1M38 38h1M37 39h1M37 40h1M36 41h1M36 42h1M28 45h1" />
<path stroke="#c167af" d="M44 23h1M44 24h2M42 25h1M44 25h2M42 26h1M46 26h1M41 27h1" />
<path stroke="#ffffff" d="M28 24h1M30 24h1M30 25h1M30 26h1M30 27h1M45 37h1M43 38h1M40 47h1M43 47h1M41 48h2" />
<path stroke="#aee7a7" d="M22 26h3M21 27h5M22 28h3M41 33h3M41 34h4M42 35h3M39 39h2M38 40h4M38 41h4M39 42h2" />
<path stroke="#bda483" d="M29 27h1M31 31h1M32 32h1M31 33h2M28 34h3M33 34h1M32 35h1M34 35h1M28 36h4M35 36h1M34 37h3M33 38h2M37 38h1M29 39h4M36 39h1M34 40h2M31 41h4" />
<path stroke="#d5d5d5" d="M28 46h1" />
</svg>