<svg xmlns="http://www.w3.org/2000/svg" viewBox="0 -0.5 68 56" shape-rendering="crispEdges">
<metadata>Made with Pixels to Svg https://codepen.io/shshaw/pen/XbxvNj</metadata>
<path stroke="#000000" d="M29 19h2M27 20h2M30 20h1M35 20h2M26 21h1M29 21h1M33 21h2M37 21h3M26 22h1M32 22h1M40 22h1M26 23h1M30 23h2M39 23h1M22 24h1M25 24h1M38 24h1M21 25h1M23 25h1M25 25h1M39 25h2M21 26h1M41 26h1M21 27h1M39 27h2M22 28h1M38 28h1M22 29h1M39 29h1M23 30h1M40 30h1M23 31h1M38 31h2M20 32h2M37 32h1M40 32h3M44 32h1M19 33h1M38 33h2M43 33h1M45 33h2M20 34h2M26 34h2M34 34h1M36 34h2M40 34h3M47 34h1M22 35h4M28 35h2M34 35h1M38 35h2M43 35h4M31 36h1M36 36h1M31 37h1M37 37h1M31 38h1M38 38h1M21 39h4M27 39h1M29 39h2M39 39h1M41 39h1M43 39h1M18 40h3M25 40h2M28 40h1M31 40h1M40 40h1M42 40h1M44 40h1M47 40h3M17 41h1M29 41h2M45 41h2M50 41h1M18 42h3M26 42h3M31 42h1M40 42h2M51 42h2M21 43h2M24 43h2M32 43h4M42 43h2M53 43h1M23 44h1M36 44h1M38 44h1M50 44h3M35 45h1M37 45h1M41 45h3M34 46h1M38 46h3M47 46h2M35 47h1M46 47h1M38 48h3M47 48h1M41 49h1M44 49h3M42 50h2" />
<path stroke="#e7ca51" d="M29 20h1M27 21h2M27 22h1M37 22h3M27 23h1M36 23h3M26 24h2M35 24h3M26 25h1M32 25h4M26 26h1M30 26h2M30 27h1" />
<path stroke="#70b055" d="M35 21h1" />
<path stroke="#3f4141" d="M36 21h1M36 22h1M35 23h1M28 24h1M32 24h3M27 25h1M30 25h2M36 25h3M32 26h4M31 27h1M33 27h1M24 28h2M28 28h3M35 28h3M37 29h2M28 30h3M35 30h2M31 31h4M25 32h2M24 33h1M32 39h1M38 39h1M36 40h1M34 41h2M38 41h1M46 45h2M44 47h2" />
<path stroke="#e8cd54" d="M28 22h1M28 23h1M25 26h1M25 27h1" />
<path stroke="#000008" d="M29 22h1M24 26h1" />
<path stroke="#73b258" d="M33 22h1M33 23h1M26 28h2M32 28h2M26 29h2M32 29h2M31 30h1M34 30h1" />
<path stroke="#71b157" d="M34 22h2M34 23h1M29 24h1M28 25h2M36 26h1M32 27h1M34 27h2M31 28h1M34 28h1M28 29h4M34 29h3M24 30h2M32 30h2M25 31h1" />
<path stroke="#454825" d="M29 23h1M24 27h1" />
<path stroke="#2b8625" d="M32 23h1M30 24h2M22 26h2M22 27h2M23 28h1M23 29h1" />
<path stroke="#2b8423" d="M22 25h1" />
<path stroke="#4d5030" d="M27 26h1M29 26h1M26 27h1M28 27h1" />
<path stroke="#8bc371" d="M28 26h1M27 27h1" />
<path stroke="#92c878" d="M37 26h1M40 26h1M36 27h2M24 31h1" />
<path stroke="#8ac270" d="M38 26h2M38 27h1" />
<path stroke="#dbb729" d="M29 27h1" />
<path stroke="#3c9535" d="M24 29h1" />
<path stroke="#6bac51" d="M25 29h1" />
<path stroke="#368f2f" d="M26 30h1M26 31h1" />
<path stroke="#65a84b" d="M27 30h1" />
<path stroke="#923e6f" d="M37 30h1M28 31h2M36 31h2M37 40h3M36 41h2M39 41h1M44 46h2" />
<path stroke="#924271" d="M38 30h2M21 40h4M27 40h1M29 40h1M18 41h11M41 46h3M38 47h6M42 48h4M42 49h2" />
<path stroke="#423241" d="M27 31h1" />
<path stroke="#6a434a" d="M30 31h1" />
<path stroke="#804044" d="M35 31h1" />
<path stroke="#001008" d="M22 32h1" />
<path stroke="#a0d288" d="M23 32h1" />
<path stroke="#7db962" d="M24 32h1" />
<path stroke="#934573" d="M27 32h1M26 33h1" />
<path stroke="#7b2829" d="M28 32h1" />
<path stroke="#001010" d="M29 32h1" />
<path stroke="#ff3839" d="M30 32h1" />
<path stroke="#799dc4" d="M31 32h1M30 33h2" />
<path stroke="#8f426f" d="M32 32h2M32 33h1" />
<path stroke="#883a67" d="M34 32h2" />
<path stroke="#874a71" d="M36 32h1M36 33h2M22 42h2M23 43h1" />
<path stroke="#bc729d" d="M20 33h2" />
<path stroke="#a16086" d="M22 33h1" />
<path stroke="#442f29" d="M23 33h1" />
<path stroke="#b35f90" d="M25 33h1" />
<path stroke="#714f65" d="M27 33h1" />
<path stroke="#f64041" d="M28 33h2" />
<path stroke="#b2548e" d="M33 33h1M32 36h2" />
<path stroke="#c2589a" d="M34 33h1" />
<path stroke="#080400" d="M35 33h1M36 47h2" />
<path stroke="#b5518f" d="M40 33h2M38 34h2M44 34h2M41 40h1M43 40h1M40 41h4M32 42h2" />
<path stroke="#b35693" d="M42 33h1M44 33h1M43 34h1M46 34h1" />
<path stroke="#b6528d" d="M22 34h4" />
<path stroke="#82a6cd" d="M28 34h2M32 38h2M33 39h1M36 39h1" />
<path stroke="#80a4cb" d="M30 34h1" />
<path stroke="#54546e" d="M31 34h1" />
<path stroke="#b55492" d="M32 34h2M32 35h2" />
<path stroke="#200800" d="M30 35h1" />
<path stroke="#6f4a57" d="M31 35h1" />
<path stroke="#40456c" d="M34 36h1M35 37h1" />
<path stroke="#180400" d="M35 36h1" />
<path stroke="#68547e" d="M32 37h2" />
<path stroke="#7fa3ca" d="M34 37h1" />
<path stroke="#934272" d="M36 37h1M31 39h1M30 40h1M21 42h1M35 46h1M46 46h1M41 48h1M46 48h1" />
<path stroke="#85a9d0" d="M34 38h1M35 39h1" />
<path stroke="#6488af" d="M35 38h1M34 39h1" />
<path stroke="#5d567b" d="M36 38h1M37 39h1" />
<path stroke="#7c496b" d="M37 38h1" />
<path stroke="#37262e" d="M32 40h1" />
<path stroke="#514e6e" d="M33 40h1" />
<path stroke="#86aad1" d="M34 40h2" />
<path stroke="#000808" d="M32 41h1M44 44h1" />
<path stroke="#a25f88" d="M33 41h1" />
<path stroke="#bd7397" d="M44 41h1M47 41h3M45 42h1M47 42h1M44 43h1M46 43h4M52 43h1M48 44h2" />
<path stroke="#824e71" d="M24 42h2" />
<path stroke="#bb5893" d="M34 42h1M45 44h1" />
<path stroke="#7e3961" d="M35 42h1" />
<path stroke="#67485a" d="M36 42h1" />
<path stroke="#4e516e" d="M37 42h1M36 43h1" />
<path stroke="#6f77ba" d="M38 42h1M38 43h1" />
<path stroke="#262739" d="M39 42h1" />
<path stroke="#bc6497" d="M42 42h2" />
<path stroke="#b55493" d="M44 42h1M46 42h1M45 43h1" />
<path stroke="#923e6d" d="M48 42h2" />
<path stroke="#874e6f" d="M50 42h1" />
<path stroke="#777fc2" d="M37 43h1M37 44h1M36 45h1" />
<path stroke="#000400" d="M39 43h1" />
<path stroke="#c473a3" d="M50 43h2" />
<path stroke="#b96192" d="M46 44h2" />
<path stroke="#7e3d61" d="M44 45h1" />
<path stroke="#3f2332" d="M45 45h1" />
<path stroke="#3f2c35" d="M48 45h1" />
<path stroke="#000408" d="M49 45h1" />
<path stroke="#484c6c" d="M36 46h1" />
<path stroke="#8e96db" d="M37 46h1" />
</svg>