<svg xmlns="http://www.w3.org/2000/svg" viewBox="0 -0.5 68 56" shape-rendering="crispEdges">
<metadata>Made with Pixels to Svg https://codepen.io/shshaw/pen/XbxvNj</metadata>
<path stroke="#000000" d="M33 8h7M31 9h2M40 9h1M26 10h5M39 10h1M23 11h3M39 11h1M22 12h1M38 12h1M21 13h1M39 13h3M42 14h3M45 15h2M16 16h4M47 16h1M11 17h5M47 17h1M10 18h1M48 18h2M11 19h1M50 19h2M13 20h3M52 20h1M16 21h4M53 21h1M30 22h1M53 22h1M19 23h1M54 23h1M19 24h1M54 24h1M18 25h1M54 25h1M17 26h1M14 27h1M16 27h1M54 27h1M13 28h1M54 28h1M11 29h2M55 29h1M55 30h1M9 31h1M55 31h1M9 32h1M55 32h1M9 33h1M55 33h1M10 34h1M55 34h1M11 35h2M18 35h2M54 35h1M13 36h5M20 36h1M54 36h1M20 37h1M54 37h1M21 38h1M53 38h1M21 39h1M52 39h1M21 40h1M52 40h1M19 41h1M21 41h1M53 41h1M55 41h2M18 42h1M54 42h1M18 43h1M19 44h1M58 44h1M19 45h1M59 45h1M58 46h1M56 47h2M21 48h1M31 48h1M52 48h4M21 49h1M30 49h1M32 49h2M22 50h1M28 50h2M34 50h5M50 50h1M23 51h1M26 51h2M39 51h1M50 51h1M40 52h2M43 52h1M46 52h1M48 52h2M42 53h1M44 53h2M47 53h1" />
<path stroke="#e76e42" d="M33 9h3M38 9h2M31 10h1M38 10h1M26 11h6M38 11h1M30 12h2M34 12h1M34 13h2M36 14h1M36 15h2M20 16h1M38 16h1M16 17h6M38 17h2M11 18h5M40 18h1M41 19h1M42 20h2M43 21h2M34 22h1M44 22h2M32 25h1M48 25h1M30 26h1M48 26h1M49 27h1M41 29h1M35 30h1M35 31h1M40 31h2M44 39h1M44 40h1M44 41h2M19 42h1M39 42h1M44 42h1M48 42h1M19 43h1M39 43h1M45 43h1M48 43h1M20 44h1M22 44h1M45 44h1M47 44h1M20 45h1M22 45h1M40 45h2M44 45h2M47 45h1M40 46h1M44 46h2M48 46h1M22 47h2M40 47h1M44 47h1M48 47h1" />
<path stroke="#d66f4a" d="M36 9h2" />
<path stroke="#e76c3f" d="M32 10h2M32 11h2M32 12h2M32 13h2M48 44h2M48 45h2" />
<path stroke="#e7744a" d="M34 10h1M37 10h1M35 14h1M37 16h1M49 28h1M20 43h1M21 46h1" />
<path stroke="#944c39" d="M35 10h1M34 11h1M34 14h1M35 15h1M48 28h1M49 29h1" />
<path stroke="#944f3e" d="M36 10h1M37 17h1" />
<path stroke="#bd6241" d="M35 11h1M34 15h1M48 29h1" />
<path stroke="#bd6544" d="M36 11h2M36 16h1M36 17h1" />
<path stroke="#bd6f52" d="M23 12h1M22 13h2M26 13h4M32 15h2M22 16h3M24 18h1M17 19h4M24 19h1M16 20h4M44 24h1M45 25h1M27 26h1M25 27h1M27 27h1M46 28h2M13 29h1M38 30h1M52 38h1M55 42h1M54 43h2" />
<path stroke="#bd6d4f" d="M24 12h2M24 13h2M28 14h4M28 15h4M34 16h2M34 17h2M22 18h2M36 18h2M22 19h2M36 19h2M20 20h4M20 21h4M48 30h2M48 31h2M48 32h2M48 33h2M50 36h2M50 37h2M50 38h2M50 39h2" />
<path stroke="#914b36" d="M26 12h4M32 14h2M25 16h3M22 17h6M16 18h6M25 18h1M16 19h1M21 19h1M25 19h1M45 24h1M44 25h1M46 29h2" />
<path stroke="#904a35" d="M35 12h1M30 13h2M45 42h1M44 43h1M21 44h1M44 44h1M21 45h1" />
<path stroke="#9f5b42" d="M36 12h1" />
<path stroke="#ce6842" d="M37 12h1M36 13h1" />
<path stroke="#424142" d="M37 13h1M23 14h3M37 14h1M22 15h2M26 15h2M28 16h3M39 16h1M31 17h1M29 18h1M27 19h2M34 19h1M33 20h1M41 20h1M48 20h1M25 21h1M33 21h1M36 21h2M42 21h1M48 21h1M22 22h2M25 22h1M33 22h1M36 22h1M38 22h2M43 22h1M48 22h1M22 23h1M26 23h2M33 23h1M36 23h1M40 23h1M44 23h2M21 24h1M24 24h1M26 24h1M29 24h1M41 24h1M22 25h2M26 25h1M30 25h2M41 25h2M32 26h2M41 26h1M43 26h1M17 27h1M38 27h1M40 27h1M44 27h1M17 28h1M26 28h3M35 28h1M37 28h1M40 28h2M45 28h1M52 28h1M17 29h1M34 29h1M36 29h2M40 29h1M42 29h1M45 29h1M52 29h1M16 30h3M34 30h1M51 30h1M14 31h2M18 31h1M34 31h1M51 31h1M33 32h1M39 32h1M47 32h1M51 32h1M20 33h1M33 33h1M47 33h1M21 34h1M32 34h1M47 34h1M52 34h1M21 35h1M24 35h1M31 35h2M42 35h2M52 35h1M25 36h6M41 36h2M49 36h1M53 36h1M34 37h2M39 37h2M49 37h1M53 37h1M36 38h3M49 38h1M49 39h1M26 40h4M43 40h1M45 40h1M22 41h1M25 41h1M30 41h1M43 41h1M50 41h1M23 42h3M30 42h1M38 42h1M40 42h1M47 42h1M49 42h1M51 42h1M22 43h2M30 43h1M38 43h1M41 43h1M47 43h1M49 43h1M51 43h1M23 44h1M26 44h1M31 44h1M35 44h1M37 44h1M23 45h1M27 45h1M31 45h1M35 45h1M37 45h1M56 45h2M26 46h1M28 46h2M32 46h1M36 46h2M39 46h1M41 46h1M43 46h1M49 46h1M52 46h1M26 47h3M30 47h1M33 47h1M36 47h2M39 47h1M41 47h1M43 47h1M45 47h1M49 47h1M52 47h1M26 48h1M29 48h2M34 48h2M37 48h1M40 48h1M43 48h1M48 48h1M38 49h1M39 50h1" />
<path stroke="#75615b" d="M38 13h1M44 15h1M52 21h1M54 29h1" />
<path stroke="#000606" d="M20 14h1M20 15h1M57 42h1M57 43h1" />
<path stroke="#bd765a" d="M21 14h1M56 42h1M53 43h1" />
<path stroke="#c06b4c" d="M22 14h1M34 18h2M35 19h1M36 20h2M40 20h1M40 21h2M40 22h3M23 23h1M41 23h3M42 24h2M43 25h1M44 26h2M45 27h1M16 28h1M16 29h1M50 32h1M50 33h2M52 36h1M52 37h1M50 40h2M51 41h1M56 44h2" />
<path stroke="#bd6842" d="M26 14h1M25 15h1M31 16h1M22 24h1M15 30h1" />
<path stroke="#945c42" d="M27 14h1M24 15h1M30 17h1M23 24h1M14 30h1" />
<path stroke="#77635c" d="M38 14h2M46 19h1M53 32h1" />
<path stroke="#75615a" d="M40 14h2M41 15h1M40 16h6M41 17h2M45 17h1M42 18h3M44 19h2M46 20h2M50 20h2M46 21h2M50 21h2M51 22h1M50 23h1M50 24h2M53 24h1M50 25h2M53 25h1M50 26h2M51 27h1M52 30h1M52 31h2" />
<path stroke="#3f2c23" d="M21 15h1M56 43h1" />
<path stroke="#414541" d="M38 15h1M38 18h1M47 18h1M39 19h1M47 19h1M35 20h1M35 21h1M46 24h1M47 25h1M42 42h1M42 43h1M41 44h2M42 45h1M23 46h1" />
<path stroke="#554c49" d="M39 15h1M46 18h1M52 32h1M53 33h1" />
<path stroke="#5a524f" d="M40 15h1M43 17h2M45 18h1M50 22h1M51 23h1M52 24h1M52 25h1M53 30h1" />
<path stroke="#745f58" d="M42 15h2M46 16h1M46 17h1M48 19h2M52 22h1M52 23h2" />
<path stroke="#bd6c4e" d="M21 16h1M35 22h1M34 23h2M40 30h2" />
<path stroke="#bd6a4a" d="M32 16h1M33 17h1M14 28h1M14 29h1M48 34h1M49 35h1" />
<path stroke="#945a44" d="M33 16h1M15 29h1M49 34h1" />
<path stroke="#904b35" d="M28 17h2M26 18h3M26 19h1M24 20h2M24 21h1M24 22h1M24 23h2M25 24h1M24 25h2M50 30h1M50 31h1" />
<path stroke="#423d39" d="M32 17h1M15 28h1M48 35h1" />
<path stroke="#73554a" d="M40 17h1M42 19h2M50 27h1" />
<path stroke="#607460" d="M30 18h2" />
<path stroke="#8c4f39" d="M32 18h1" />
<path stroke="#3c6d42" d="M33 18h1M33 19h1" />
<path stroke="#ef764a" d="M39 18h1M34 21h1M47 24h1" />
<path stroke="#6b4d42" d="M41 18h1M49 26h1" />
<path stroke="#000400" d="M12 19h1" />
<path stroke="#9a4a2c" d="M13 19h1" />
<path stroke="#944e3c" d="M14 19h1" />
<path stroke="#bd613f" d="M15 19h1" />
<path stroke="#95c388" d="M29 19h1" />
<path stroke="#5fbf65" d="M30 19h1M49 41h1M51 45h1M46 47h1" />
<path stroke="#668d5c" d="M31 19h1" />
<path stroke="#0a6f58" d="M32 19h1" />
<path stroke="#b56447" d="M38 19h1M34 20h1M46 25h1" />
<path stroke="#945842" d="M40 19h1M48 27h1M40 44h1M22 46h1" />
<path stroke="#374a47" d="M26 20h1M44 33h1" />
<path stroke="#66c55c" d="M27 20h1M44 32h1" />
<path stroke="#7bc16c" d="M28 20h2M19 25h1M37 25h2M19 26h2M34 26h1M38 26h2M18 27h2M21 27h1M32 27h2M35 27h1M39 27h1M18 28h2M21 28h2M29 28h3M36 28h1M19 29h2M22 29h2M26 29h4M32 29h2M20 30h2M32 30h2M21 31h1M24 31h6M32 31h1M44 31h1M23 32h8M38 32h1M38 33h2M43 36h1M46 36h1M42 37h2M46 37h2M46 38h2M41 40h2M46 40h2M40 41h3M47 41h1M50 42h1M50 43h1M38 46h1M42 46h1M38 47h1M42 47h1M38 48h2M41 48h2M49 48h2M39 49h5M48 49h3M40 50h2M48 50h2M40 51h1M49 51h1" />
<path stroke="#36944c" d="M30 20h1M30 21h1M22 26h2M22 27h1M14 32h3M15 33h3M15 34h1M35 34h1M14 35h2M34 35h4M54 45h2" />
<path stroke="#0e6c45" d="M31 20h1M31 21h1M23 27h1M17 32h1M14 33h1M14 34h1M34 34h1M36 34h2M54 44h2" />
<path stroke="#ff65a5" d="M32 20h1M32 21h1M31 22h2M30 23h3M30 24h2" />
<path stroke="#944d39" d="M38 20h1M47 26h1M50 34h1" />
<path stroke="#c06d4f" d="M39 20h1M38 21h2M46 26h1M46 27h2M51 34h1M50 35h2" />
<path stroke="#73544a" d="M44 20h1M45 21h1M48 24h1M49 25h1" />
<path stroke="#75635d" d="M45 20h1M49 24h1" />
<path stroke="#756059" d="M49 20h1M49 21h1M49 22h1M48 23h2M53 28h1M53 29h1" />
<path stroke="#498549" d="M26 21h2M45 32h1M45 33h1" />
<path stroke="#369449" d="M28 21h2M38 24h2M39 25h1M18 26h1M23 28h1M18 29h1M24 30h6M44 30h2M12 31h2M20 31h1M33 31h1M45 31h1M22 32h1M31 32h1M22 33h10M47 36h1" />
<path stroke="#080000" d="M20 22h1M51 49h1" />
<path stroke="#27472f" d="M21 22h1" />
<path stroke="#369447" d="M26 22h2M37 22h1M37 23h1M20 24h1M28 24h1M40 24h1M20 25h2M28 25h2M40 25h1M40 26h1M42 26h1M41 27h3M42 28h3M43 29h2M19 30h1M19 31h1M20 32h2M32 32h1M46 32h1M21 33h1M32 33h1M46 33h1M20 34h1M24 34h2M30 34h2M33 34h1M46 34h1M20 35h1M25 35h1M30 35h1M33 35h1M46 35h2M34 36h2M38 36h2M48 36h1M38 37h1M48 37h1M48 38h1M48 39h1M22 42h1M53 46h1M53 47h1M27 48h2M26 49h4" />
<path stroke="#6b6a7b" d="M28 22h2" />
<path stroke="#815242" d="M46 22h2M50 28h1" />
<path stroke="#439054" d="M20 23h2" />
<path stroke="#056702" d="M28 23h1" />
<path stroke="#ef75ad" d="M29 23h1" />
<path stroke="#347b58" d="M38 23h1M27 25h1M16 31h1" />
<path stroke="#2f9866" d="M39 23h1M27 24h1M17 31h1" />
<path stroke="#ef7042" d="M46 23h1M50 29h1" />
<path stroke="#4a3842" d="M47 23h1M51 29h1" />
<path stroke="#145b3a" d="M32 24h2M33 25h1M28 26h2M29 27h1M34 32h2M41 32h1M35 33h1M40 33h1M45 48h1M44 49h1" />
<path stroke="#b28568" d="M34 24h1M47 30h1" />
<path stroke="#24413a" d="M35 24h1M34 25h1M46 30h1M47 31h1" />
<path stroke="#2f8f47" d="M36 24h1" />
<path stroke="#076c30" d="M37 24h1M36 25h1M36 30h1M36 31h1M47 50h1M46 51h1" />
<path stroke="#776c5d" d="M35 25h1M46 31h1" />
<path stroke="#0c6c42" d="M21 26h1M35 26h1M20 27h1M34 27h1M32 28h2M30 29h2M46 39h2M40 40h1M46 41h1M41 51h1M48 51h1" />
<path stroke="#27463c" d="M24 26h2M24 27h1M39 30h1M38 31h2" />
<path stroke="#244e44" d="M26 26h1M26 27h1" />
<path stroke="#385243" d="M31 26h1M30 27h2M44 38h2M45 39h1" />
<path stroke="#7ac06b" d="M36 26h2M36 27h2M22 30h2M30 30h2M22 31h2M30 31h2M42 32h2M42 33h2M40 34h2M40 35h2M44 36h2M44 37h2M50 46h2M50 47h2M46 48h2M46 49h2" />
<path stroke="#75625b" d="M52 26h1M53 27h1" />
<path stroke="#000b0b" d="M53 26h1" />
<path stroke="#bd6e4f" d="M28 27h1" />
<path stroke="#4e3229" d="M52 27h1" />
<path stroke="#2d7c70" d="M20 28h1" />
<path stroke="#366f40" d="M24 28h1M42 31h1" />
<path stroke="#1e3b39" d="M25 28h1M42 30h1M22 48h2" />
<path stroke="#ba9778" d="M34 28h1M35 29h1M41 42h1M40 43h1" />
<path stroke="#de7e5a" d="M38 28h1M38 29h1M39 44h1M39 45h1" />
<path stroke="#1e5147" d="M39 28h1M38 44h1" />
<path stroke="#615550" d="M51 28h1" />
<path stroke="#379251" d="M21 29h1" />
<path stroke="#6ebf5f" d="M24 29h2M43 30h1M43 31h1" />
<path stroke="#a7745d" d="M39 29h1M38 45h1" />
<path stroke="#000008" d="M10 30h1M20 46h1M20 47h1M24 51h2" />
<path stroke="#668669" d="M11 30h1M10 31h1" />
<path stroke="#a56642" d="M12 30h2" />
<path stroke="#b26a4f" d="M37 30h1" />
<path stroke="#675854" d="M54 30h1M54 31h1" />
<path stroke="#9cc89b" d="M11 31h1" />
<path stroke="#ef6939" d="M37 31h1" />
<path stroke="#3b9450" d="M10 32h2M10 33h2M16 34h2M26 34h4M16 35h2M26 35h4M36 36h2M36 37h2M54 46h2M54 47h2" />
<path stroke="#0a7e48" d="M12 32h1" />
<path stroke="#c7c3bd" d="M13 32h1" />
<path stroke="#35954d" d="M18 32h1M19 33h1M11 34h1M52 41h1M52 44h1M53 45h1M58 45h1" />
<path stroke="#34484a" d="M19 32h1M52 45h1M25 48h1" />
<path stroke="#88b295" d="M36 32h1" />
<path stroke="#226542" d="M37 32h1M37 33h1" />
<path stroke="#de7852" d="M40 32h1" />
<path stroke="#59504d" d="M54 32h1M54 33h1" />
<path stroke="#459462" d="M12 33h2" />
<path stroke="#32724d" d="M18 33h1M53 44h1" />
<path stroke="#ffffff" d="M34 33h1M44 50h1M42 51h1M44 51h1M42 52h1M44 52h2M47 52h1" />
<path stroke="#f2fff2" d="M36 33h1M47 51h1" />
<path stroke="#757162" d="M41 33h1" />
<path stroke="#404a40" d="M52 33h1" />
<path stroke="#3d924e" d="M12 34h2M13 35h1M56 46h2" />
<path stroke="#206a36" d="M18 34h1M26 50h1" />
<path stroke="#309f52" d="M19 34h1M27 50h1" />
<path stroke="#2e4b39" d="M22 34h1M23 35h1" />
<path stroke="#7d7a6c" d="M23 34h1" />
<path stroke="#f7fff7" d="M38 34h1" />
<path stroke="#7cbc88" d="M39 34h1M39 35h1" />
<path stroke="#568053" d="M42 34h1" />
<path stroke="#6dc365" d="M43 34h1" />
<path stroke="#40474b" d="M44 34h1" />
<path stroke="#548550" d="M45 34h1" />
<path stroke="#574f4c" d="M53 34h1M53 35h1" />
<path stroke="#58504e" d="M54 34h1" />
<path stroke="#f7cfb5" d="M22 35h1" />
<path stroke="#057e32" d="M38 35h1" />
<path stroke="#73c464" d="M44 35h2" />
<path stroke="#ffc3ad" d="M21 36h4M31 36h2M21 37h2M24 37h8M33 37h1M22 38h1M26 38h1M33 38h1M39 38h1M22 39h2M26 39h1M33 39h1M36 39h4M22 40h4M30 40h2M34 40h4M23 41h2M26 41h2M31 41h1M34 41h1M35 42h1M24 43h2M33 43h2M33 44h1M36 44h1" />
<path stroke="#373d42" d="M33 36h1M35 43h1" />
<path stroke="#85c17b" d="M40 36h1" />
<path stroke="#8b857f" d="M23 37h1M23 38h1M27 38h1M32 38h1M27 39h1M32 39h1M35 41h3M32 42h2M32 43h1" />
<path stroke="#9c8177" d="M32 37h1M34 42h1" />
<path stroke="#6e9666" d="M41 37h1" />
<path stroke="#ffc2aa" d="M24 38h2M28 38h4M34 38h2M24 39h2M28 39h4M34 39h2M32 40h2M32 41h2M36 42h2M36 43h2" />
<path stroke="#ffbfa5" d="M40 38h2" />
<path stroke="#808e7d" d="M42 38h1" />
<path stroke="#406b61" d="M43 38h1M42 39h1" />
<path stroke="#7d8d79" d="M40 39h1" />
<path stroke="#2f797e" d="M41 39h1" />
<path stroke="#23595b" d="M43 39h1" />
<path stroke="#98837b" d="M38 40h2M26 42h1M27 43h1" />
<path stroke="#427159" d="M48 40h1" />
<path stroke="#393c4a" d="M49 40h1M39 41h1M48 41h1M26 43h1" />
<path stroke="#f7c3ad" d="M28 41h1M38 41h1M27 42h1" />
<path stroke="#9c8277" d="M29 41h1" />
<path stroke="#000410" d="M20 42h1" />
<path stroke="#4d2e23" d="M21 42h1" />
<path stroke="#8c827e" d="M28 42h1M28 45h1" />
<path stroke="#cea394" d="M29 42h1M28 43h2M27 44h4M26 45h1M29 45h2M27 46h1M30 46h2M33 46h1M31 47h2" />
<path stroke="#9a8178" d="M31 42h1M34 44h1" />
<path stroke="#94543d" d="M43 42h1M43 45h1" />
<path stroke="#156a4d" d="M46 42h1M46 43h1" />
<path stroke="#5b7858" d="M52 42h1" />
<path stroke="#0a7249" d="M53 42h1M52 43h1" />
<path stroke="#9a5136" d="M21 43h1" />
<path stroke="#c6a194" d="M31 43h1M34 45h1" />
<path stroke="#e76839" d="M43 43h1M43 44h1M25 47h1" />
<path stroke="#4a3d39" d="M24 44h1M25 45h1" />
<path stroke="#ffb48c" d="M25 44h1" />
<path stroke="#8b8481" d="M32 44h1M33 45h1" />
<path stroke="#0e6a43" d="M46 44h1M46 45h1M42 50h2M43 51h1" />
<path stroke="#266145" d="M50 44h1M50 45h1M46 46h2" />
<path stroke="#313852" d="M51 44h1M47 47h1" />
<path stroke="#c28a70" d="M24 45h1" />
<path stroke="#c5a397" d="M32 45h1" />
<path stroke="#c09889" d="M36 45h1" />
<path stroke="#945539" d="M24 46h2" />
<path stroke="#cba294" d="M34 46h2M34 47h2" />
<path stroke="#4d2a1e" d="M21 47h1" />
<path stroke="#474a38" d="M24 47h1" />
<path stroke="#8c867f" d="M29 47h1M36 48h1M34 49h4" />
<path stroke="#2b9f69" d="M24 48h1" />
<path stroke="#8e847e" d="M32 48h2" />
<path stroke="#d6936b" d="M44 48h1" />
<path stroke="#30402c" d="M51 48h1" />
<path stroke="#5a6e70" d="M22 49h1" />
<path stroke="#bdbebd" d="M23 49h1" />
<path stroke="#30735c" d="M24 49h2" />
<path stroke="#a1876b" d="M45 49h1" />
<path stroke="#c6bfbd" d="M23 50h1" />
<path stroke="#5c6267" d="M24 50h1" />
<path stroke="#b7c7be" d="M25 50h1" />
<path stroke="#2f7367" d="M45 50h1" />
<path stroke="#83bfa3" d="M46 50h1" />
<path stroke="#96b9b2" d="M45 51h1" />
</svg>