<svg xmlns="http://www.w3.org/2000/svg" viewBox="0 -0.5 68 56" shape-rendering="crispEdges">
<metadata>Made with Pixels to Svg https://codepen.io/shshaw/pen/XbxvNj</metadata>
<path stroke="#000000" d="M29 26h2M27 27h2M31 27h1M26 28h1M27 29h1M32 29h2M26 30h1M34 30h1M13 31h3M25 31h1M27 31h1M34 31h1M12 32h1M16 32h1M24 32h1M34 32h1M12 33h1M17 33h1M19 33h3M24 33h1M33 33h1M11 34h1M17 34h1M22 34h2M34 34h1M11 35h1M35 35h1M12 36h1M35 36h1M13 37h1M36 37h1M15 38h1M36 38h1M16 39h2M31 39h1M36 39h1M18 40h1M36 40h1M19 41h1M35 41h1M19 42h1M36 42h1M39 42h1M19 43h1M37 43h2M40 43h1M48 43h3M20 44h1M41 44h1M47 44h1M21 45h2M41 45h1M52 45h1M23 46h2M42 46h1M52 46h1M55 46h3M25 47h1M43 47h5M53 47h2M57 47h1M26 48h1M56 48h1M27 49h1M36 49h4M56 49h1M27 50h1M34 50h1M40 50h3M57 50h1M26 51h1M30 51h2M33 51h1M43 51h3M52 51h4M58 51h1M25 52h1M29 52h1M31 52h1M34 52h1M46 52h5M56 52h3M26 53h3M30 53h1M35 53h1M30 54h3M34 54h2M33 55h1" />
<path stroke="#424142" d="M29 27h1M29 28h1M26 33h1M31 33h1M21 34h1M24 34h1M20 35h1M24 35h2M31 35h1M19 36h1M22 36h2M25 36h1M30 36h3M20 37h2M23 37h1M25 37h2M29 37h2M22 38h2M28 38h2M23 39h1M28 39h1M19 40h1M24 40h2M20 41h2M23 41h1M22 42h1M22 43h1M26 43h4M36 43h1M24 44h1M34 44h1M24 45h1M39 45h1M33 46h1M33 47h1M52 47h1M52 48h2M48 50h2M27 51h1M46 51h2" />
<path stroke="#9e7774" d="M30 27h1M27 28h1M26 31h1M34 35h1M20 36h1M27 36h3M27 37h1M39 43h1M39 44h1M38 45h1" />
<path stroke="#9d7b7b" d="M28 28h1M28 29h2M26 32h2M30 32h2M27 33h1M30 33h1M20 34h1M30 34h2M21 35h1M30 35h1M33 36h1M32 37h2M29 39h1M35 44h1M34 45h2" />
<path stroke="#9d7d81" d="M30 28h1M30 29h1M29 30h1M29 31h1M25 32h1M19 34h1M19 35h1" />
<path stroke="#000400" d="M31 28h1M28 30h1M18 34h1" />
<path stroke="#463938" d="M31 29h1M28 31h1M18 35h1" />
<path stroke="#a87c80" d="M30 30h1M31 31h1" />
<path stroke="#080400" d="M31 30h1" />
<path stroke="#9d7b7c" d="M32 30h2M32 31h2M28 34h2M32 34h2M28 35h2M32 35h2M34 38h2M34 39h2M32 42h2M32 43h2M36 44h2M36 45h2" />
<path stroke="#6d4d4d" d="M30 31h1" />
<path stroke="#ceaa8c" d="M13 32h1M13 33h1" />
<path stroke="#cea889" d="M14 32h2M14 33h2M12 34h2M12 35h2" />
<path stroke="#4a4142" d="M28 32h1M35 43h1" />
<path stroke="#7b5c5c" d="M29 32h1M29 33h1M34 42h2" />
<path stroke="#7a645e" d="M32 32h1" />
<path stroke="#4b3e3c" d="M33 32h1M32 33h1" />
<path stroke="#d6cfbd" d="M16 33h1" />
<path stroke="#463738" d="M25 33h1" />
<path stroke="#a97a77" d="M28 33h1M34 43h1" />
<path stroke="#c8a589" d="M14 34h1" />
<path stroke="#dbcec0" d="M15 34h1M14 35h1" />
<path stroke="#f7fbf7" d="M16 34h1M16 35h2M16 36h3M17 37h3M19 38h2" />
<path stroke="#7f5b5b" d="M25 34h1M22 37h1M31 37h1" />
<path stroke="#a07a78" d="M26 34h1M26 35h2M35 46h4M37 47h1" />
<path stroke="#835b5b" d="M27 34h1M34 46h1M39 46h1M34 47h3M38 47h2" />
<path stroke="#eff7f7" d="M15 35h1" />
<path stroke="#7b5e5f" d="M22 35h1M40 45h1M38 48h1" />
<path stroke="#4b3a3c" d="M23 35h1M40 44h1" />
<path stroke="#b5bab5" d="M13 36h1M16 38h2" />
<path stroke="#acacac" d="M14 36h1M15 37h1" />
<path stroke="#ffffff" d="M15 36h1M25 38h1M32 39h1" />
<path stroke="#7e6463" d="M21 36h1M26 36h1M28 37h1M38 44h1" />
<path stroke="#6a665f" d="M24 36h1" />
<path stroke="#9e7878" d="M34 36h1M34 37h2M34 40h2M34 41h1" />
<path stroke="#080808" d="M14 37h1M29 51h1" />
<path stroke="#b5bcb9" d="M16 37h1M18 38h1M21 38h1M18 39h4" />
<path stroke="#9c9a8c" d="M24 37h1M32 40h1" />
<path stroke="#91706c" d="M24 38h1M24 39h2" />
<path stroke="#000018" d="M26 38h1" />
<path stroke="#52432d" d="M27 38h1M27 39h1" />
<path stroke="#86686c" d="M30 38h2" />
<path stroke="#594b4c" d="M32 38h2M33 39h1" />
<path stroke="#b5baba" d="M22 39h1M20 40h4M22 41h1" />
<path stroke="#a58642" d="M26 39h1" />
<path stroke="#514044" d="M30 39h1" />
<path stroke="#ffd241" d="M26 40h2M26 41h2" />
<path stroke="#a48a39" d="M28 40h1M24 43h1M32 52h1" />
<path stroke="#4f4135" d="M29 40h1" />
<path stroke="#fffff7" d="M30 40h1" />
<path stroke="#aca6a0" d="M31 40h1" />
<path stroke="#875d5e" d="M33 40h1M32 41h1" />
<path stroke="#ffd342" d="M24 41h2M23 42h1M23 43h1M33 54h1" />
<path stroke="#ffd339" d="M28 41h2M24 42h2M29 42h1M32 53h2" />
<path stroke="#64504b" d="M30 41h2" />
<path stroke="#987973" d="M33 41h1" />
<path stroke="#e0ce62" d="M20 42h2M20 43h2M25 44h1M25 45h1M32 48h2M32 49h2" />
<path stroke="#b0872c" d="M26 42h2" />
<path stroke="#a08a3d" d="M28 42h1" />
<path stroke="#f7cb4a" d="M30 42h1" />
<path stroke="#39384a" d="M31 42h1M30 43h1" />
<path stroke="#4a4139" d="M25 43h1M33 52h1" />
<path stroke="#78694a" d="M31 43h1" />
<path stroke="#ddce62" d="M21 44h2M23 45h1M27 48h1M32 50h2" />
<path stroke="#4a4d46" d="M23 44h1M32 51h1" />
<path stroke="#b38c31" d="M26 44h1M27 45h1" />
<path stroke="#fbf7d2" d="M27 44h1M28 45h2M25 46h2M32 46h1M26 47h4M32 47h1M28 48h4" />
<path stroke="#e0ce61" d="M28 44h2M28 46h2M30 49h2" />
<path stroke="#fbf7d6" d="M30 44h2M30 45h2M30 46h2M30 47h2" />
<path stroke="#8c726c" d="M32 44h2" />
<path stroke="#94be63" d="M48 44h2" />
<path stroke="#63a652" d="M50 44h1M50 45h1" />
<path stroke="#000808" d="M51 44h1" />
<path stroke="#e0cb57" d="M26 45h1" />
<path stroke="#fbf6d2" d="M32 45h1" />
<path stroke="#4a3839" d="M33 45h1" />
<path stroke="#000800" d="M48 45h1" />
<path stroke="#628142" d="M49 45h1" />
<path stroke="#427139" d="M51 45h1" />
<path stroke="#ad8c31" d="M27 46h1" />
<path stroke="#746e6a" d="M40 46h1" />
<path stroke="#423c39" d="M41 46h1M40 47h1" />
<path stroke="#100000" d="M48 46h1" />
<path stroke="#1b533c" d="M49 46h1" />
<path stroke="#6f9e45" d="M50 46h1" />
<path stroke="#10865a" d="M51 46h1M50 47h2M48 48h2M48 49h1" />
<path stroke="#b5b6b5" d="M41 47h1" />
<path stroke="#94b663" d="M42 47h1M43 48h1" />
<path stroke="#217d5a" d="M48 47h2" />
<path stroke="#046742" d="M55 47h1M44 50h2M52 50h5M56 51h2" />
<path stroke="#108458" d="M56 47h1" />
<path stroke="#393434" d="M34 48h1" />
<path stroke="#776e67" d="M35 48h1" />
<path stroke="#7f5e5b" d="M36 48h2" />
<path stroke="#473b3c" d="M39 48h1" />
<path stroke="#b5bcba" d="M40 48h2" />
<path stroke="#709d42" d="M42 48h1M42 49h2" />
<path stroke="#94b65a" d="M44 48h2" />
<path stroke="#13845a" d="M46 48h2M46 49h2" />
<path stroke="#08754a" d="M50 48h1M54 48h2M51 49h1" />
<path stroke="#414041" d="M51 48h1M50 49h1M54 49h2" />
<path stroke="#b38c36" d="M28 49h1" />
<path stroke="#e0cb61" d="M29 49h1" />
<path stroke="#dbc872" d="M34 49h1" />
<path stroke="#080408" d="M35 49h1" />
<path stroke="#739e42" d="M40 49h2M43 50h1" />
<path stroke="#6aa457" d="M44 49h1" />
<path stroke="#188252" d="M45 49h1" />
<path stroke="#05683e" d="M49 49h1" />
<path stroke="#006542" d="M52 49h2M46 50h2M48 51h2" />
<path stroke="#3c3a36" d="M28 50h1" />
<path stroke="#e5d486" d="M29 50h1" />
<path stroke="#e1ce66" d="M30 50h2" />
<path stroke="#10654a" d="M50 50h2" />
<path stroke="#706c65" d="M28 51h1" />
<path stroke="#104334" d="M50 51h1" />
<path stroke="#100008" d="M51 51h1" />
<path stroke="#ad8631" d="M26 52h3M31 53h1M34 53h1" />
</svg>