<svg xmlns="http://www.w3.org/2000/svg" viewBox="0 -0.5 68 56" shape-rendering="crispEdges">
<metadata>Made with Pixels to Svg https://codepen.io/shshaw/pen/XbxvNj</metadata>
<path stroke="#000000" d="M26 22h2M25 23h1M28 23h1M24 24h1M29 24h1M24 25h1M29 25h1M23 26h1M30 26h2M20 27h1M23 27h1M32 27h1M43 27h3M19 28h1M23 28h1M33 28h1M41 28h2M46 28h1M19 29h1M22 29h1M33 29h1M39 29h2M47 29h1M33 30h1M38 30h1M50 30h1M19 31h1M32 31h1M37 31h1M51 31h1M18 32h1M32 32h1M36 32h1M51 32h1M18 33h1M33 33h1M35 33h1M50 33h1M18 34h1M32 34h1M35 34h1M49 34h1M19 35h1M34 35h1M46 35h3M18 36h1M32 36h1M34 36h1M45 36h1M18 37h1M33 37h2M46 37h1M17 38h1M35 38h1M46 38h1M17 39h1M34 39h2M44 39h2M17 40h1M28 40h2M38 40h1M42 40h1M17 41h1M30 41h2M36 41h2M39 41h1M42 41h1M18 42h2M25 42h1M36 42h1M40 42h2M25 43h1M31 43h1M37 43h2M21 44h4M27 44h2M30 44h1M26 45h1M29 45h1M40 45h1M40 46h1M40 47h1M26 48h1M39 48h1M27 49h1M39 49h1M28 50h1M38 50h1M29 51h2M36 51h2M31 52h5" />
<path stroke="#3d8027" d="M26 23h2M25 24h1M28 24h1M25 25h1M28 25h1M30 27h2M32 28h1M32 29h1M38 48h1M38 49h1M30 50h2M31 51h1" />
<path stroke="#3b7d27" d="M26 24h2M26 25h2M24 26h6M24 27h6M24 28h4M24 29h4M37 48h1M37 49h1M32 50h2M35 50h1M32 51h2" />
<path stroke="#84ae4a" d="M20 28h1M20 29h1M21 30h1M21 31h1" />
<path stroke="#000008" d="M21 28h1M20 30h1M26 41h2" />
<path stroke="#3b7f26" d="M28 28h4M31 29h1M23 30h1M23 31h1M38 46h1M38 47h2" />
<path stroke="#f5fc94" d="M43 28h3M41 29h3M39 30h3M38 31h2M50 31h1M37 32h1M36 33h2M35 35h1M35 36h1M35 37h1M34 46h1M34 47h1M28 48h2M32 48h2" />
<path stroke="#425729" d="M21 29h1M20 31h1" />
<path stroke="#407c29" d="M23 29h1M32 30h1" />
<path stroke="#424142" d="M28 29h3M22 30h1M26 30h2M22 31h1M20 34h1M26 34h1M40 34h1M40 35h2M39 36h1M42 36h1M29 37h1M25 38h1M29 38h1M24 39h2M28 39h1M25 40h1M35 41h1M22 43h1M34 44h2M33 45h1M28 46h1M30 46h1M33 46h1M39 46h1M29 47h1M31 47h2M30 48h2" />
<path stroke="#9b9a3c" d="M44 29h2M40 31h2" />
<path stroke="#909942" d="M46 29h1M50 32h1" />
<path stroke="#487d35" d="M24 30h1" />
<path stroke="#423e3c" d="M25 30h1M24 31h1" />
<path stroke="#52b733" d="M28 30h2M28 31h2M18 38h2M18 39h2" />
<path stroke="#43b033" d="M30 30h1" />
<path stroke="#424942" d="M31 30h1" />
<path stroke="#94993d" d="M42 30h2M49 32h1M44 33h1M45 34h1M42 38h1M43 39h1" />
<path stroke="#cdd063" d="M44 30h2M44 31h2M40 32h4M46 32h2M40 33h4M46 33h2M42 34h2M42 35h2M40 38h2M40 39h2M40 40h2M40 41h2" />
<path stroke="#9b973c" d="M46 30h1M47 31h1" />
<path stroke="#fdfa94" d="M47 30h1" />
<path stroke="#050800" d="M48 30h2" />
<path stroke="#4db72b" d="M25 31h1" />
<path stroke="#54b833" d="M26 31h2M24 32h1M25 33h1M35 46h2M35 47h1M27 48h1M34 48h1M28 49h2M29 50h1" />
<path stroke="#3f8b37" d="M30 31h2" />
<path stroke="#c8d263" d="M42 31h2M44 32h2M48 32h1M45 33h1M48 33h2M41 34h1M44 34h1M48 34h1M44 35h2M43 36h2M24 37h1M42 37h4M24 38h1M43 38h3M27 39h1M42 39h1M21 40h1M39 40h1M20 41h1M31 44h3M27 45h2M30 45h3M32 46h1M33 47h1M30 49h2" />
<path stroke="#ccc968" d="M46 31h1" />
<path stroke="#837b46" d="M48 31h1" />
<path stroke="#feea8c" d="M49 31h1" />
<path stroke="#588426" d="M19 32h1M19 33h1M38 36h1M38 37h2M24 40h1M34 40h4M24 41h2M34 41h1M24 42h1M24 43h1" />
<path stroke="#424139" d="M20 32h1M21 33h1M38 34h1M38 35h1M30 36h1M40 37h2" />
<path stroke="#7eb739" d="M21 32h1M39 34h1M41 36h1" />
<path stroke="#84b642" d="M22 32h1M22 33h1" />
<path stroke="#424436" d="M23 32h1" />
<path stroke="#3c7d27" d="M25 32h1M24 33h1M37 46h1M36 47h2M35 48h1M34 49h2" />
<path stroke="#568649" d="M26 32h1M29 32h1" />
<path stroke="#434e30" d="M27 32h2M26 33h1M29 33h1" />
<path stroke="#3c6839" d="M30 32h1" />
<path stroke="#88a139" d="M31 32h1M30 33h1" />
<path stroke="#fef48c" d="M38 32h1M35 45h1M28 47h1" />
<path stroke="#8a884f" d="M39 32h1M38 33h1" />
<path stroke="#607c39" d="M20 33h1M39 35h1M40 36h1" />
<path stroke="#637d3c" d="M23 33h1" />
<path stroke="#d9f96c" d="M27 33h2" />
<path stroke="#4d4f2c" d="M31 33h1" />
<path stroke="#5a8229" d="M32 33h1M19 34h1M22 34h2M35 42h1M36 43h1" />
<path stroke="#4d5131" d="M39 33h1" />
<path stroke="#54c144" d="M21 34h1M20 35h2" />
<path stroke="#4a7d36" d="M24 34h1" />
<path stroke="#57b832" d="M25 34h1M24 35h1" />
<path stroke="#eed66b" d="M27 34h1M26 35h2M28 36h2M28 37h1" />
<path stroke="#eed970" d="M28 34h2M29 35h1" />
<path stroke="#3c4e31" d="M30 34h1M30 35h1" />
<path stroke="#5a7542" d="M31 34h1" />
<path stroke="#f7e784" d="M36 34h1" />
<path stroke="#394939" d="M37 34h1M36 35h1M37 38h1M39 38h1M36 39h1M38 39h1M23 40h1M22 41h1" />
<path stroke="#889142" d="M46 34h1" />
<path stroke="#cdda63" d="M47 34h1" />
<path stroke="#3f7e2a" d="M22 35h2" />
<path stroke="#3d413b" d="M25 35h1" />
<path stroke="#ffffff" d="M28 35h1" />
<path stroke="#000010" d="M31 35h1M27 36h1" />
<path stroke="#98985e" d="M37 35h1" />
<path stroke="#4fc14b" d="M19 36h1M19 37h1" />
<path stroke="#57c64e" d="M20 36h2M20 37h1" />
<path stroke="#55c94c" d="M22 36h1M22 37h1M20 38h2" />
<path stroke="#49a637" d="M23 36h1M20 39h1" />
<path stroke="#415638" d="M24 36h2M25 37h1" />
<path stroke="#eedc73" d="M26 36h1M26 37h1" />
<path stroke="#aaad6b" d="M31 36h1" />
<path stroke="#3c483c" d="M36 36h1M37 37h1" />
<path stroke="#686936" d="M37 36h1" />
<path stroke="#effcdf" d="M21 37h1" />
<path stroke="#3e8322" d="M23 37h1M21 39h1" />
<path stroke="#4a4e31" d="M27 37h1" />
<path stroke="#dee384" d="M30 37h2" />
<path stroke="#adaa52" d="M32 37h1M30 40h2M32 41h1" />
<path stroke="#948a31" d="M36 37h1" />
<path stroke="#42a138" d="M22 38h1M18 40h1" />
<path stroke="#3d8921" d="M23 38h1M22 39h1M19 40h1M18 41h1" />
<path stroke="#ecd26d" d="M26 38h2M26 39h1" />
<path stroke="#c0aa5d" d="M28 38h1M29 39h1M31 46h1M30 47h1" />
<path stroke="#d6e38c" d="M30 38h2" />
<path stroke="#a4b252" d="M32 38h1" />
<path stroke="#000410" d="M33 38h1M32 42h1M39 44h1" />
<path stroke="#ceb15a" d="M36 38h1M39 39h1M22 40h1" />
<path stroke="#6a6c44" d="M38 38h1M37 39h1M23 41h1" />
<path stroke="#b0d863" d="M23 39h1M19 41h1" />
<path stroke="#b1aa52" d="M30 39h2" />
<path stroke="#373e26" d="M32 39h1" />
<path stroke="#6e783c" d="M33 39h1" />
<path stroke="#3a5e31" d="M20 40h1M21 41h1" />
<path stroke="#ccd36b" d="M26 40h1" />
<path stroke="#404629" d="M27 40h1" />
<path stroke="#5a8426" d="M32 40h2M33 41h1" />
<path stroke="#314023" d="M20 42h1" />
<path stroke="#5a7d36" d="M21 42h1" />
<path stroke="#84b547" d="M22 42h2M23 43h1" />
<path stroke="#c5b563" d="M33 42h1M32 43h1" />
<path stroke="#b2aa55" d="M34 42h1M34 43h2" />
<path stroke="#080410" d="M20 43h1" />
<path stroke="#84ba4a" d="M21 43h1" />
<path stroke="#42402b" d="M33 43h1" />
<path stroke="#defa8c" d="M36 44h1" />
<path stroke="#3c6c29" d="M37 44h1M37 45h1" />
<path stroke="#8c8d47" d="M38 44h1" />
<path stroke="#bfbb73" d="M34 45h1M29 46h1" />
<path stroke="#4e994b" d="M36 45h1" />
<path stroke="#43462b" d="M38 45h1" />
<path stroke="#d3d463" d="M39 45h1" />
<path stroke="#040f00" d="M26 46h1M26 47h1" />
<path stroke="#cbf98d" d="M27 46h1" />
<path stroke="#5f8346" d="M27 47h1" />
<path stroke="#44a73d" d="M36 48h1M36 49h1M34 50h1M34 51h2" />
<path stroke="#41992a" d="M32 49h2" />
<path stroke="#3ea93a" d="M36 50h2" />
</svg>