<svg xmlns="http://www.w3.org/2000/svg" viewBox="0 -0.5 68 56" shape-rendering="crispEdges">
<metadata>Made with Pixels to Svg https://codepen.io/shshaw/pen/XbxvNj</metadata>
<path stroke="#000000" d="M22 21h1M21 22h2M21 23h1M23 23h1M20 24h1M23 24h1M39 24h2M20 25h1M24 25h1M36 25h3M40 25h1M17 26h2M24 26h1M34 26h2M40 26h1M16 27h1M19 27h1M25 27h1M33 27h1M39 27h1M16 28h1M25 28h1M31 28h1M39 28h1M16 29h1M25 29h1M27 29h4M38 29h1M17 30h1M26 30h1M37 30h1M43 30h6M17 31h1M36 31h1M41 31h2M49 31h2M18 32h1M37 32h1M39 32h2M51 32h1M19 33h1M38 33h1M52 33h1M19 34h1M52 34h1M18 35h1M52 35h1M19 36h2M51 36h1M21 37h1M50 37h1M21 38h1M48 38h2M21 39h1M47 39h1M21 40h1M45 40h2M22 41h1M44 41h1M22 42h1M42 42h2M23 43h1M24 44h2M40 44h1M26 45h1M26 46h1M39 46h1M26 47h1M33 47h1M38 47h1M26 48h1M29 48h4M35 48h1M38 48h1M25 49h1M27 49h2M36 49h1M39 49h1M25 50h2M37 50h1M39 50h1M38 51h1M40 51h1M39 52h2" />
<path stroke="#a5a69c" d="M22 23h1M34 27h2M36 28h2M36 29h1M36 30h1M39 40h1M39 41h1M37 44h1M36 45h2M38 46h1" />
<path stroke="#fffbf7" d="M21 24h1M23 25h1M38 26h1" />
<path stroke="#aaa7a4" d="M22 24h1M21 25h2M39 26h1M38 27h1" />
<path stroke="#ffffff" d="M39 25h1M36 26h1M36 27h1M23 28h2M38 28h1M22 29h3M31 29h3M37 29h1M22 30h3M27 30h2M30 30h6M23 31h1M25 31h3M29 31h6M43 31h6M25 32h3M29 32h3M42 32h1M49 32h1M24 33h3M28 33h2M39 33h1M43 33h2M47 33h2M24 34h1M26 34h2M39 34h1M43 34h1M47 34h1M24 35h4M40 35h1M42 35h2M46 35h1M24 36h3M42 36h1M48 36h3M24 37h3M25 38h1M34 38h1M43 38h3M32 39h4M42 39h1M45 39h1M22 40h3M30 40h6M42 40h1M23 41h5M30 41h5M42 41h1M24 42h5M30 42h4M41 42h1M25 43h4M30 43h2M34 43h1M32 44h2M29 45h3" />
<path stroke="#000800" d="M20 26h1" />
<path stroke="#e2ffde" d="M21 26h1" />
<path stroke="#a5a59c" d="M22 26h2M22 27h2" />
<path stroke="#a4a69c" d="M37 26h1M37 27h1M41 40h1M40 41h1M38 42h2M38 43h1M36 46h1" />
<path stroke="#bdcfce" d="M17 27h2M24 27h1M21 28h1M20 29h1" />
<path stroke="#96ac94" d="M20 27h2" />
<path stroke="#425543" d="M17 28h1M27 46h1" />
<path stroke="#424142" d="M18 28h1M19 29h1M21 32h1M43 32h1M48 32h1M20 33h1M42 33h1M49 33h1M20 34h2M36 34h1M51 34h1M21 35h1M34 35h2M30 36h3M36 36h2M39 36h1M32 37h1M34 37h2M38 37h2M23 38h1M32 38h2M36 38h2M39 38h1M30 39h2M37 39h1M39 39h1M25 40h3M36 40h1M38 40h1M35 41h1M38 41h1M32 43h2M30 44h2M36 44h1M35 45h1M29 46h1M28 47h1M30 47h2" />
<path stroke="#b5d6c0" d="M19 28h1" />
<path stroke="#54de52" d="M20 28h1M21 29h1M29 30h1M22 31h1M28 31h1M35 31h1M25 34h1" />
<path stroke="#bdcecd" d="M22 28h1" />
<path stroke="#080808" d="M32 28h1" />
<path stroke="#acacac" d="M33 28h1" />
<path stroke="#c8d1cd" d="M34 28h1M35 29h1" />
<path stroke="#99a39c" d="M35 28h1" />
<path stroke="#84aa85" d="M17 29h1M27 47h1" />
<path stroke="#8ea494" d="M18 29h1" />
<path stroke="#f7ffff" d="M34 29h1" />
<path stroke="#84979c" d="M18 30h1" />
<path stroke="#414a42" d="M19 30h1M18 31h1M44 32h4M38 34h1M39 35h1M29 44h1M28 45h1" />
<path stroke="#b5dec4" d="M20 30h1M21 31h1" />
<path stroke="#79a073" d="M21 30h1" />
<path stroke="#80cd7b" d="M25 30h1M24 31h1M24 32h1M28 32h1M27 33h1M30 33h2M29 42h1M29 43h1" />
<path stroke="#a5c3c6" d="M19 31h1" />
<path stroke="#306333" d="M20 31h1" />
<path stroke="#424342" d="M19 32h1" />
<path stroke="#a5cfb5" d="M20 32h1M21 33h1M19 35h2M21 36h1" />
<path stroke="#74a773" d="M22 32h1M23 33h1" />
<path stroke="#f7fffb" d="M23 32h1M26 38h1" />
<path stroke="#79db75" d="M32 32h1" />
<path stroke="#58d652" d="M33 32h1" />
<path stroke="#73a873" d="M34 32h1" />
<path stroke="#adffaf" d="M35 32h1" />
<path stroke="#44534d" d="M36 32h1M37 33h1" />
<path stroke="#fffbff" d="M41 32h1M50 32h1M40 33h1M51 33h1" />
<path stroke="#317b31" d="M22 33h1" />
<path stroke="#bde7bd" d="M32 33h2M37 34h1M50 34h1M36 35h2M50 35h2M38 36h1M22 38h1M38 38h1M22 39h2M36 39h1M38 39h1M37 40h1M40 40h1M44 40h1M36 41h2M41 41h1M23 42h1M39 43h1M26 44h2M34 44h2M34 45h1M28 46h1M30 46h4M37 46h1M29 47h1M32 47h1M36 47h2M36 48h2M37 49h2M38 50h1M39 51h1" />
<path stroke="#3b5239" d="M34 33h2" />
<path stroke="#cefbe7" d="M36 33h1" />
<path stroke="#555355" d="M41 33h1M50 33h1" />
<path stroke="#bfc2c1" d="M45 33h2M38 35h1M28 44h1" />
<path stroke="#acd3c9" d="M22 34h1M22 35h1" />
<path stroke="#83c884" d="M23 34h1" />
<path stroke="#e7fff7" d="M28 34h1M29 35h1" />
<path stroke="#83ce7b" d="M29 34h1M28 35h1" />
<path stroke="#bce7bf" d="M30 34h2" />
<path stroke="#ceffe7" d="M32 34h4M30 35h4M33 36h3M33 37h1M36 37h2" />
<path stroke="#415243" d="M40 34h1M24 39h1M34 42h1" />
<path stroke="#bfc5c0" d="M41 34h1M41 35h1M24 38h1M25 39h1M35 42h1M35 43h1" />
<path stroke="#bce6be" d="M42 34h1M46 34h1M47 35h1M43 36h1M42 37h2M48 37h2M35 38h1M42 38h1M43 39h2M43 40h1M43 41h1M24 43h1M32 45h2" />
<path stroke="#bde7be" d="M44 34h2M48 34h2M44 35h2M48 35h2M44 36h4M44 37h4" />
<path stroke="#d6ffde" d="M23 35h1" />
<path stroke="#687c7e" d="M22 36h1" />
<path stroke="#38633b" d="M23 36h1M22 37h1" />
<path stroke="#8bce7b" d="M27 36h1" />
<path stroke="#d6fff7" d="M28 36h2" />
<path stroke="#f3fffb" d="M40 36h1" />
<path stroke="#c6d6ca" d="M41 36h1M41 37h1" />
<path stroke="#eba387" d="M23 37h1M28 39h2" />
<path stroke="#d8eed3" d="M27 37h1" />
<path stroke="#414752" d="M28 37h1" />
<path stroke="#a7bfc0" d="M29 37h1" />
<path stroke="#178649" d="M30 37h2M28 38h4" />
<path stroke="#9aad9d" d="M40 37h1" />
<path stroke="#306b33" d="M27 38h1" />
<path stroke="#f7fff7" d="M40 38h1" />
<path stroke="#a5a2a5" d="M41 38h1M40 39h1" />
<path stroke="#d3efd7" d="M46 38h2M46 39h1" />
<path stroke="#b6cdb5" d="M26 39h1" />
<path stroke="#739c74" d="M27 39h1" />
<path stroke="#ccd2d0" d="M41 39h1" />
<path stroke="#3b4a39" d="M28 40h2" />
<path stroke="#96a494" d="M28 41h1" />
<path stroke="#f2ffef" d="M29 41h1" />
<path stroke="#c6dec6" d="M36 42h1" />
<path stroke="#424542" d="M37 42h1M36 43h1" />
<path stroke="#aaacab" d="M40 42h1M40 43h1" />
<path stroke="#9aaa9a" d="M37 43h1" />
<path stroke="#000804" d="M41 43h1" />
<path stroke="#869a86" d="M38 44h1" />
<path stroke="#c6e7c6" d="M39 44h1M38 45h1" />
<path stroke="#3f4d3f" d="M27 45h1" />
<path stroke="#080800" d="M39 45h1" />
<path stroke="#474a4d" d="M34 46h1" />
<path stroke="#8b9a8d" d="M35 46h1" />
<path stroke="#080400" d="M34 47h1" />
<path stroke="#cee7ce" d="M35 47h1" />
<path stroke="#84b584" d="M27 48h2M26 49h1" />
</svg>