<svg xmlns="http://www.w3.org/2000/svg" viewBox="0 -0.5 68 56" shape-rendering="crispEdges">
<metadata>Made with Pixels to Svg https://codepen.io/shshaw/pen/XbxvNj</metadata>
<path stroke="#000000" d="M28 21h3M28 22h1M31 22h2M28 23h1M33 23h2M28 24h1M35 24h1M28 25h1M36 25h1M29 26h1M37 26h1M29 27h1M38 27h1M29 28h1M38 28h1M28 29h1M39 29h1M27 30h1M39 30h1M26 31h1M39 31h1M26 32h1M25 33h1M40 33h2M25 34h1M42 34h1M25 35h1M41 35h1M26 36h1M40 36h1M26 37h1M39 37h1M23 38h2M27 38h1M40 38h1M23 39h1M25 39h2M39 39h1M47 39h1M23 40h1M29 40h2M40 40h2M45 40h2M48 40h1M23 41h1M28 41h1M31 41h1M42 41h3M48 41h1M23 42h1M27 42h1M30 42h1M38 42h3M47 42h1M24 43h1M27 43h1M31 43h1M41 43h1M47 43h1M24 44h1M27 44h1M38 44h1M41 44h1M46 44h1M25 45h2M38 45h1M40 45h1M45 45h1M31 46h1M40 46h1M43 46h2M29 47h2M34 47h2M38 47h2M41 47h2M28 48h1M32 48h2M36 48h1M40 48h1M27 49h1M31 49h1M37 49h1M41 49h1M27 50h1M31 50h1M37 50h1M28 51h3M38 51h1M42 51h1M38 52h1M42 52h1M39 53h1" />
<path stroke="#aeaeae" d="M29 22h2M29 23h4M29 24h6M29 25h7M30 26h7M30 27h8M31 28h7M29 29h4M36 29h3M28 30h4M38 30h1M28 31h3M38 31h1M28 32h2M28 33h2M27 34h2M27 35h2M28 36h1M28 37h1M31 40h1" />
<path stroke="#8b8b8b" d="M30 28h1" />
<path stroke="#3466ac" d="M33 29h3M27 31h1M31 31h1M26 34h1M29 34h1M26 35h1M29 35h1M27 36h1M29 36h1M27 37h1M29 37h1M24 39h1M28 40h1M40 41h2M24 42h3M41 42h1M25 43h2M25 44h1M34 44h1M34 45h1" />
<path stroke="#3365ab" d="M32 30h1M30 32h1M30 33h1M24 40h2M36 40h2M24 41h2M35 43h1" />
<path stroke="#5084cf" d="M33 30h1M32 31h1" />
<path stroke="#5185d0" d="M34 30h2M35 31h1M31 32h1M36 32h2M31 33h1M36 33h2M30 34h3M30 35h4M30 36h3M30 37h3M47 40h1M45 41h3M34 42h2M44 42h3M34 43h1M44 43h3M42 44h4M41 45h1M43 45h2M42 46h1" />
<path stroke="#3568ae" d="M36 30h1M37 31h1M30 38h1M31 39h1" />
<path stroke="#b1b1b1" d="M37 30h1M29 38h1M30 39h1" />
<path stroke="#6fa4ff" d="M33 31h2M32 32h4M32 33h4M33 34h2" />
<path stroke="#487bc5" d="M36 31h1M31 38h1" />
<path stroke="#ababab" d="M27 32h1M27 33h1" />
<path stroke="#2f61a7" d="M38 32h1" />
<path stroke="#080000" d="M39 32h1" />
<path stroke="#3669af" d="M26 33h1M42 42h2" />
<path stroke="#394e42" d="M38 33h2" />
<path stroke="#5286d1" d="M35 34h1" />
<path stroke="#524d42" d="M36 34h2" />
<path stroke="#525142" d="M38 34h1M34 35h2M33 36h1M33 37h1M42 45h1" />
<path stroke="#ffffff" d="M39 34h3M38 35h3M36 36h1M36 37h1M31 44h1M35 44h3M35 45h2M36 47h2M37 48h2M38 49h3M38 50h3M39 51h1M41 51h1M39 52h1M41 52h1" />
<path stroke="#effbff" d="M36 35h1" />
<path stroke="#bac1c0" d="M37 35h1" />
<path stroke="#fff7ff" d="M34 36h1" />
<path stroke="#87664c" d="M35 36h1M35 37h1" />
<path stroke="#a5bebd" d="M37 36h1M37 37h1M37 45h1M32 46h4M31 47h2M30 48h2M30 49h1M30 50h1" />
<path stroke="#f7f7f7" d="M38 36h1" />
<path stroke="#525252" d="M39 36h1M38 37h1" />
<path stroke="#420000" d="M34 37h1" />
<path stroke="#2f60a6" d="M28 38h1M29 39h1" />
<path stroke="#70543b" d="M32 38h1M32 39h1" />
<path stroke="#876e62" d="M33 38h1" />
<path stroke="#bc4f2d" d="M34 38h1" />
<path stroke="#d6fff7" d="M35 38h1" />
<path stroke="#b5bfc0" d="M36 38h1" />
<path stroke="#efffff" d="M37 38h1" />
<path stroke="#fffbff" d="M38 38h2" />
<path stroke="#424142" d="M27 39h1M36 39h2M26 40h1M34 40h2M39 40h1M38 41h1M42 43h1M26 44h1M33 47h1" />
<path stroke="#0f4184" d="M28 39h1" />
<path stroke="#b5b2bd" d="M33 39h1" />
<path stroke="#c8bec2" d="M34 39h2" />
<path stroke="#555355" d="M38 39h1" />
<path stroke="#3567ad" d="M27 40h1M38 40h1M26 41h2M34 41h2M39 41h1" />
<path stroke="#1e5094" d="M32 40h1" />
<path stroke="#52564c" d="M33 40h1" />
<path stroke="#4b574a" d="M32 41h1" />
<path stroke="#a14b23" d="M33 41h1" />
<path stroke="#4a4942" d="M36 41h2" />
<path stroke="#ce572b" d="M31 42h1" />
<path stroke="#d4592a" d="M32 42h1M32 43h1" />
<path stroke="#ab6433" d="M33 42h1M33 43h1" />
<path stroke="#655352" d="M36 42h2" />
<path stroke="#fffbf7" d="M36 43h1" />
<path stroke="#180000" d="M37 43h1" />
<path stroke="#4c80ca" d="M43 43h1" />
<path stroke="#000400" d="M30 44h1M30 45h1M40 53h2" />
<path stroke="#0b3c7f" d="M32 44h1" />
<path stroke="#4275bd" d="M33 44h1M33 45h1" />
<path stroke="#aaabaa" d="M31 45h1M40 52h1" />
<path stroke="#effff7" d="M32 45h1" />
<path stroke="#aaabac" d="M36 46h1M40 51h1" />
<path stroke="#000408" d="M37 46h1M41 50h1" />
<path stroke="#524f46" d="M41 46h1" />
<path stroke="#a5babd" d="M29 48h1M28 49h1" />
<path stroke="#657281" d="M39 48h1" />
<path stroke="#6e7c7e" d="M29 49h1" />
<path stroke="#9cbabd" d="M28 50h1" />
<path stroke="#687c7e" d="M29 50h1" />
</svg>