<svg xmlns="http://www.w3.org/2000/svg" viewBox="0 -0.5 68 56" shape-rendering="crispEdges">
<metadata>Made with Pixels to Svg https://codepen.io/shshaw/pen/XbxvNj</metadata>
<path stroke="#000402" d="M31 19h6M29 20h2M38 20h1M28 21h1M39 21h2M27 22h1M41 22h1M26 23h1M42 23h1M26 24h1M43 24h1M25 25h1M43 25h1M25 26h1M44 26h1M25 27h1M44 27h1M25 28h1M44 28h1M25 29h1M44 29h1M26 30h1M44 30h1M26 31h1M44 31h1M27 32h1M43 32h1M28 33h1M43 33h1M29 34h1M42 34h1M28 35h1M41 35h1M29 36h1M39 36h2M38 37h1M29 38h1M38 38h1M28 39h1M36 39h1M39 39h1M26 40h2M35 40h1M37 40h1M40 40h1M24 41h2M29 41h1M36 41h1M38 41h1M41 41h2M23 42h1M27 42h2M30 42h1M36 42h1M39 42h1M43 42h2M24 43h3M29 43h1M37 43h1M40 43h1M45 43h2M28 44h1M41 44h1M28 45h1M40 45h2M48 45h1M27 46h1M47 46h1M27 47h1M47 47h1M26 48h1M48 48h1M26 49h1M48 49h1M26 50h1M46 50h2M27 51h1M31 51h1M43 51h3M28 52h3M33 52h1M35 52h1M42 52h1M38 53h2" />
<path stroke="#9ee0f9" d="M31 20h1M35 20h1M29 21h3M34 21h1M38 21h1M30 22h1M39 22h1M27 23h1M31 23h1M32 24h2M36 24h1M32 25h1M34 25h2M38 34h1M36 35h2M40 41h1M40 42h3M41 43h4" />
<path stroke="#9be4fa" d="M32 20h2M32 21h2M28 22h2M32 22h3M28 23h2M32 23h2M35 23h1M45 44h1M44 45h2" />
<path stroke="#6dc0db" d="M34 20h1M38 22h1M38 23h2M36 25h2" />
<path stroke="#6ea4bc" d="M36 20h1M37 21h1" />
<path stroke="#08140d" d="M37 20h1" />
<path stroke="#6dc1db" d="M35 21h1M37 24h1" />
<path stroke="#b5f7ff" d="M36 21h1" />
<path stroke="#41a1c3" d="M31 22h1M30 23h1M34 24h2M33 25h1" />
<path stroke="#9be3fa" d="M35 22h1M34 23h1M44 44h1" />
<path stroke="#72c9dd" d="M36 22h1M29 25h1" />
<path stroke="#9eecf9" d="M37 22h1M28 24h1" />
<path stroke="#73c6db" d="M40 22h1M40 23h2M27 24h1M42 24h1M26 25h2M30 25h1M42 25h1M34 28h2M38 40h2M39 41h1" />
<path stroke="#46a1be" d="M36 23h2M29 24h1M28 25h1M28 26h1M32 26h1M42 32h1M42 33h1M40 34h2M40 35h1M38 36h1M36 38h2M29 39h1M37 39h2M28 40h2M26 41h3M24 42h3" />
<path stroke="#9bdffa" d="M30 24h1M31 25h1" />
<path stroke="#9bdefa" d="M31 24h1" />
<path stroke="#6ec6dc" d="M38 24h4M38 25h4M34 26h4M34 27h4M28 28h2M32 28h2M28 29h2M32 29h2" />
<path stroke="#6ec9dc" d="M26 26h2M29 26h3M33 26h1M38 26h4M26 27h1M28 27h3M32 27h2M38 27h1M30 28h1M31 29h1" />
<path stroke="#42a0c1" d="M42 26h2M42 27h2M28 30h2M42 30h2M28 31h2M42 31h2" />
<path stroke="#4e729a" d="M27 27h1M31 27h1M39 27h3M31 28h1M30 29h1M30 30h1M30 31h1M29 35h1" />
<path stroke="#67cddd" d="M26 28h1" />
<path stroke="#436ea1" d="M27 28h1M27 29h1" />
<path stroke="#3f4239" d="M36 28h2" />
<path stroke="#424142" d="M38 28h1M42 28h1M34 29h2M41 29h1M30 34h1M36 34h2M32 36h1M36 36h1M36 37h2M30 46h2M33 46h1M44 46h2M30 47h2M33 47h1M29 48h1M31 48h1M34 48h1M29 49h1M31 49h1M34 49h1M29 50h1" />
<path stroke="#ffffff" d="M39 28h3M38 29h3M34 30h1M36 30h1M38 30h2M36 31h1M38 31h2M31 42h1M34 42h2M30 43h2M34 43h3M30 44h1M33 44h4M30 45h1M34 45h4M28 46h2M34 46h5M28 47h2M34 47h3M38 47h2M27 48h2M35 48h3M39 48h3M27 49h2M35 49h3M39 49h5M27 50h2M36 50h3M40 50h6M28 51h2M36 51h4M41 51h2M38 52h3" />
<path stroke="#44a4bf" d="M43 28h1M42 29h2" />
<path stroke="#4e8bb6" d="M26 29h1" />
<path stroke="#fbfff7" d="M36 29h1" />
<path stroke="#7e8178" d="M37 29h1" />
<path stroke="#4b739a" d="M27 30h1M27 31h1M30 50h2M30 51h1" />
<path stroke="#46a3c0" d="M31 30h1M31 31h1" />
<path stroke="#4b85a9" d="M32 30h1M32 31h1" />
<path stroke="#080400" d="M33 30h1M30 37h1" />
<path stroke="#f46d2f" d="M35 30h1M34 31h2M32 40h1M32 41h1" />
<path stroke="#7b846b" d="M37 30h1M37 31h1M36 32h1" />
<path stroke="#394d4b" d="M40 30h1M41 31h1" />
<path stroke="#74818b" d="M41 30h1" />
<path stroke="#314d49" d="M33 31h1" />
<path stroke="#f7fbff" d="M40 31h1M40 47h1" />
<path stroke="#4693b3" d="M28 32h2M29 33h1" />
<path stroke="#447599" d="M30 32h2" />
<path stroke="#b3b2bd" d="M32 32h1M33 33h1" />
<path stroke="#e37d3e" d="M33 32h1M31 40h1" />
<path stroke="#c47548" d="M34 32h1" />
<path stroke="#def0ff" d="M35 32h1" />
<path stroke="#bdc4de" d="M37 32h1M36 33h2M33 36h3M32 37h3M33 38h1M32 46h1M32 47h1M44 47h3M44 48h2M33 50h1M33 51h1" />
<path stroke="#add1df" d="M38 32h1" />
<path stroke="#394949" d="M39 32h1M38 33h1M32 34h1M33 35h1" />
<path stroke="#46414a" d="M40 32h1M31 33h1" />
<path stroke="#4695c1" d="M41 32h1M41 33h1" />
<path stroke="#459cc6" d="M30 33h1" />
<path stroke="#adc5e7" d="M32 33h1" />
<path stroke="#c2b6b2" d="M34 33h2" />
<path stroke="#6b7e9b" d="M39 33h1" />
<path stroke="#457196" d="M40 33h1" />
<path stroke="#496e9b" d="M31 34h1M30 35h2M37 36h1M30 48h1M30 49h1" />
<path stroke="#b5c8de" d="M33 34h1" />
<path stroke="#c6cce7" d="M34 34h2" />
<path stroke="#467ba7" d="M39 34h1M38 35h2" />
<path stroke="#5c647e" d="M32 35h1" />
<path stroke="#9a9fb2" d="M34 35h1" />
<path stroke="#42454a" d="M35 35h1" />
<path stroke="#354544" d="M30 36h2" />
<path stroke="#5a7693" d="M31 37h1" />
<path stroke="#486899" d="M35 37h1" />
<path stroke="#3394bf" d="M30 38h1" />
<path stroke="#a38356" d="M31 38h1M30 39h1" />
<path stroke="#b67547" d="M32 38h1M32 39h2" />
<path stroke="#9fd9f4" d="M34 38h1" />
<path stroke="#28515d" d="M35 38h1" />
<path stroke="#e05725" d="M31 39h1" />
<path stroke="#6491a9" d="M34 39h2" />
<path stroke="#6f4024" d="M30 40h1" />
<path stroke="#94764d" d="M33 40h1M33 41h1" />
<path stroke="#7b817e" d="M34 40h1M35 41h1" />
<path stroke="#000408" d="M31 41h1" />
<path stroke="#f7fffb" d="M34 41h1" />
<path stroke="#817b75" d="M32 42h1" />
<path stroke="#fffbfd" d="M33 42h1M33 43h1" />
<path stroke="#423c31" d="M32 43h1" />
<path stroke="#dee3ef" d="M29 44h1M29 45h1" />
<path stroke="#c8cacb" d="M31 44h1" />
<path stroke="#424543" d="M32 44h1M33 45h1" />
<path stroke="#bdc2e1" d="M37 44h1" />
<path stroke="#040800" d="M38 44h2" />
<path stroke="#5e86a7" d="M42 44h1" />
<path stroke="#90e9ff" d="M43 44h1" />
<path stroke="#9de9fe" d="M46 44h1M47 45h1" />
<path stroke="#000b0c" d="M47 44h1" />
<path stroke="#5a6265" d="M31 45h1M41 47h1" />
<path stroke="#c0c1c0" d="M32 45h1" />
<path stroke="#6b6d6f" d="M38 45h1" />
<path stroke="#ced0de" d="M39 45h1" />
<path stroke="#394345" d="M42 45h2" />
<path stroke="#4d6686" d="M46 45h1" />
<path stroke="#5f5f5f" d="M39 46h1M37 47h1M38 48h1M42 48h2M38 49h1M39 50h1M40 51h1" />
<path stroke="#c2c7cb" d="M40 46h2" />
<path stroke="#bdc3e1" d="M42 46h2M42 47h2M32 48h2M46 48h2M32 49h2M46 49h2" />
<path stroke="#3f444a" d="M46 46h1" />
<path stroke="#5f6161" d="M44 49h2" />
<path stroke="#3f414a" d="M32 50h1" />
<path stroke="#bdc0de" d="M34 50h1" />
<path stroke="#3f404a" d="M35 50h1M35 51h1" />
<path stroke="#000000" d="M32 51h1M34 51h1M36 53h2" />
<path stroke="#525352" d="M36 52h1" />
<path stroke="#f7fbf9" d="M37 52h1" />
<path stroke="#555a57" d="M41 52h1" />
<path stroke="#000804" d="M40 53h2" />
</svg>