<svg xmlns="http://www.w3.org/2000/svg" viewBox="0 -0.5 68 56" shape-rendering="crispEdges">
<metadata>Made with Pixels to Svg https://codepen.io/shshaw/pen/XbxvNj</metadata>
<path stroke="#000000" d="M25 24h1M28 24h1M21 25h1M24 25h1M29 25h1M31 25h3M20 26h1M30 26h1M34 26h2M20 27h1M36 27h1M20 28h1M37 28h1M21 29h1M37 29h1M31 30h2M38 30h1M30 31h1M33 31h1M38 31h1M42 31h3M21 32h1M31 32h1M34 32h1M41 32h1M45 32h1M21 33h1M31 33h1M35 33h1M40 33h1M45 33h1M21 34h1M32 34h1M36 34h1M45 34h1M21 35h1M32 35h1M37 35h2M44 35h1M33 36h1M39 36h5M22 37h1M33 37h1M46 37h2M23 38h1M34 38h1M45 38h1M48 38h1M23 39h1M29 39h1M35 39h1M44 39h1M49 39h1M23 40h1M28 40h1M30 40h1M36 40h2M44 40h1M30 41h1M38 41h3M45 41h2M50 41h1M25 42h1M29 42h1M42 42h3M50 42h1M25 43h1M28 43h1M49 44h1M48 45h1M25 46h1M48 46h1M25 47h1M47 47h1M26 48h1M46 48h1M27 49h1M44 49h2M28 50h1M41 50h3M29 51h1M36 51h1M40 51h1M30 52h3M37 52h1M40 52h1" />
<path stroke="#000804" d="M26 24h2M24 44h1M24 45h1" />
<path stroke="#dbb44c" d="M25 25h1M28 25h1M24 26h1M24 27h1M21 28h1M24 28h1M44 32h1M44 33h1M37 34h3M44 34h1M39 35h1M30 42h1M29 43h1M35 48h1M35 49h1M36 50h2M40 50h1M37 51h1" />
<path stroke="#47473c" d="M26 25h1M25 44h1" />
<path stroke="#cdaf54" d="M27 25h1" />
<path stroke="#ffe7a6" d="M21 26h1M26 26h1M21 27h1M26 27h1M34 27h2M36 28h1M36 29h1M46 38h2M36 41h2" />
<path stroke="#000004" d="M22 26h2M22 30h1M22 31h1M41 42h1M33 51h3" />
<path stroke="#424241" d="M25 26h1M27 26h1M25 27h1M27 27h1M27 28h1M27 29h1M30 39h1M27 48h1M29 48h1M34 48h1M34 49h1" />
<path stroke="#aaa465" d="M28 26h1" />
<path stroke="#424a45" d="M29 26h1M28 27h1M31 42h1M30 43h2" />
<path stroke="#ffe7bc" d="M31 26h1M30 27h2M34 39h1" />
<path stroke="#ffeabb" d="M32 26h2M32 27h2M29 28h2M34 28h2M24 31h1M22 32h4M23 33h2M34 40h2M35 41h1M37 42h1M30 44h2M42 44h2M38 45h2M37 46h3M37 47h2" />
<path stroke="#473f3b" d="M22 27h1" />
<path stroke="#dbb354" d="M23 27h1" />
<path stroke="#fff3b5" d="M29 27h1" />
<path stroke="#fff490" d="M22 28h1" />
<path stroke="#4a4241" d="M23 28h1M29 44h1M28 45h1" />
<path stroke="#424a49" d="M25 28h1M24 29h2" />
<path stroke="#ffe993" d="M26 28h1M27 30h1M30 30h1M33 30h1M26 31h2M30 32h1M35 32h1M30 33h1M30 34h2M31 35h1M32 36h1M32 37h1M33 38h1M33 39h1M45 39h1M48 39h1M38 42h1M40 42h1M48 42h1M38 43h2M41 43h3M36 44h2M40 44h1M46 44h1M37 45h1M40 45h1M40 46h2M40 47h1M36 48h4" />
<path stroke="#ffe196" d="M28 28h1M31 28h1M28 29h4M34 29h2M24 30h2M25 31h1M22 33h1M25 33h1M34 41h1M36 42h1M36 43h2M38 44h2M30 45h2M42 45h2M36 46h1M36 47h1M39 47h1" />
<path stroke="#ffe192" d="M32 28h2M32 29h2M28 30h2M34 30h4M28 31h2M34 31h4M36 32h2M36 33h2M22 34h4M22 35h4M34 42h2M46 42h2M34 43h2M46 43h2M32 44h2M32 45h2" />
<path stroke="#ae9f56" d="M22 29h2" />
<path stroke="#ac975b" d="M26 29h1" />
<path stroke="#555252" d="M23 30h1" />
<path stroke="#d5b54f" d="M26 30h1M43 32h1M42 33h1M40 34h1M43 34h1M40 35h4M26 44h2M26 45h2M41 47h1M40 48h2M36 49h6" />
<path stroke="#fff3cb" d="M23 31h1" />
<path stroke="#f7e7eb" d="M26 32h1" />
<path stroke="#394251" d="M27 32h1M26 33h1" />
<path stroke="#5f5d61" d="M28 32h1M29 33h1" />
<path stroke="#fff3c0" d="M29 32h1" />
<path stroke="#feffc1" d="M38 32h1" />
<path stroke="#100808" d="M39 32h1" />
<path stroke="#946763" d="M42 32h1M41 33h1M43 33h1M41 34h2M32 38h1M32 39h1M33 40h1M45 40h1M33 41h1M29 50h2M31 51h1" />
<path stroke="#787984" d="M27 33h1" />
<path stroke="#fff5e1" d="M28 33h1" />
<path stroke="#928f4f" d="M38 33h2" />
<path stroke="#5e5e61" d="M26 34h1M26 35h1" />
<path stroke="#3f8dff" d="M27 34h1M27 35h1" />
<path stroke="#fff6ef" d="M28 34h2M28 35h1" />
<path stroke="#946363" d="M29 35h1" />
<path stroke="#9254c7" d="M30 35h1" />
<path stroke="#4f4743" d="M22 36h1" />
<path stroke="#f8c279" d="M23 36h1" />
<path stroke="#ffdb81" d="M24 36h1M34 44h1M35 47h1" />
<path stroke="#9b635e" d="M25 36h1M24 37h1" />
<path stroke="#c8aaa1" d="M26 36h1M26 37h1" />
<path stroke="#ffd9a7" d="M27 36h1" />
<path stroke="#adadae" d="M28 36h1" />
<path stroke="#c98167" d="M29 36h1M28 37h2M36 45h1" />
<path stroke="#975189" d="M30 36h1M31 37h1" />
<path stroke="#ffdb77" d="M31 36h1" />
<path stroke="#a48f81" d="M23 37h1" />
<path stroke="#d0a491" d="M25 37h1" />
<path stroke="#4a3930" d="M27 37h1" />
<path stroke="#bc839c" d="M30 37h1" />
<path stroke="#4c546a" d="M24 38h1" />
<path stroke="#4a4a3c" d="M25 38h1" />
<path stroke="#2e326a" d="M26 38h1" />
<path stroke="#ba77a2" d="M27 38h1" />
<path stroke="#897e97" d="M28 38h1M28 39h1" />
<path stroke="#443f4b" d="M29 38h1" />
<path stroke="#c68367" d="M30 38h2M31 39h1M43 48h1M43 49h1" />
<path stroke="#5065cf" d="M24 39h2" />
<path stroke="#91639c" d="M26 39h1" />
<path stroke="#5e517e" d="M27 39h1" />
<path stroke="#bf8687" d="M46 39h2M39 51h1" />
<path stroke="#73a0fb" d="M24 40h1" />
<path stroke="#506ba7" d="M25 40h1" />
<path stroke="#5372c7" d="M26 40h1" />
<path stroke="#303773" d="M27 40h1" />
<path stroke="#ed9281" d="M31 40h1M31 41h1" />
<path stroke="#c5826b" d="M32 40h1" />
<path stroke="#ffdb95" d="M46 40h1M48 40h1M47 41h2" />
<path stroke="#ae988c" d="M47 40h1" />
<path stroke="#080000" d="M49 40h1M24 41h1" />
<path stroke="#31394b" d="M25 41h1" />
<path stroke="#76b0ff" d="M26 41h1" />
<path stroke="#080018" d="M27 41h1" />
<path stroke="#f69c74" d="M32 41h1" />
<path stroke="#877168" d="M49 41h1" />
<path stroke="#70bafa" d="M26 42h1" />
<path stroke="#100000" d="M27 42h1M49 43h1" />
<path stroke="#b28e58" d="M32 42h1" />
<path stroke="#4a524d" d="M33 42h1M32 43h1" />
<path stroke="#425251" d="M39 42h1M41 44h1M41 45h1M42 46h1M42 47h1M42 48h1M42 49h1" />
<path stroke="#ffe7b0" d="M45 42h1M44 43h2" />
<path stroke="#8b7566" d="M49 42h1M48 43h1" />
<path stroke="#39424d" d="M26 43h2" />
<path stroke="#ffcb7f" d="M33 43h1" />
<path stroke="#554f4b" d="M40 43h1" />
<path stroke="#afa761" d="M28 44h1" />
<path stroke="#4a4a45" d="M35 44h1M34 45h1M35 46h1M34 47h1" />
<path stroke="#ffe89e" d="M44 44h2M44 45h1" />
<path stroke="#9559a7" d="M47 44h1M46 45h2" />
<path stroke="#c98665" d="M48 44h1M46 46h2M46 47h1M44 48h2" />
<path stroke="#d6c253" d="M25 45h1" />
<path stroke="#fbe998" d="M29 45h1" />
<path stroke="#a79685" d="M35 45h1M34 46h1" />
<path stroke="#944ec6" d="M45 45h1" />
<path stroke="#515bd6" d="M26 46h1M26 47h1" />
<path stroke="#4e4c91" d="M27 46h1" />
<path stroke="#4a423c" d="M28 46h1M29 47h1" />
<path stroke="#e7e7df" d="M29 46h1" />
<path stroke="#5663ca" d="M30 46h2" />
<path stroke="#5877cc" d="M32 46h1" />
<path stroke="#393149" d="M33 46h1" />
<path stroke="#9051c8" d="M43 46h1M43 47h1" />
<path stroke="#b95f75" d="M44 46h1" />
<path stroke="#8a4cbd" d="M45 46h1" />
<path stroke="#423945" d="M27 47h1" />
<path stroke="#7e7972" d="M28 47h1" />
<path stroke="#84bbf3" d="M30 47h1" />
<path stroke="#564aa8" d="M31 47h1" />
<path stroke="#649eff" d="M32 47h1" />
<path stroke="#4b528f" d="M33 47h1" />
<path stroke="#c07e5d" d="M44 47h2" />
<path stroke="#976262" d="M28 48h1M28 49h2" />
<path stroke="#514a7f" d="M30 48h2M30 49h1" />
<path stroke="#95bcde" d="M32 48h1" />
<path stroke="#68478d" d="M33 48h1M32 49h1" />
<path stroke="#ca7e68" d="M31 49h1" />
<path stroke="#7b7fb6" d="M33 49h1" />
<path stroke="#444948" d="M31 50h1M30 51h1" />
<path stroke="#5a443b" d="M32 50h1M32 51h1" />
<path stroke="#b58870" d="M33 50h1" />
<path stroke="#bf8776" d="M34 50h1" />
<path stroke="#5f433f" d="M35 50h1" />
<path stroke="#d3b452" d="M38 50h2M38 51h1" />
<path stroke="#a28172" d="M38 52h1" />
<path stroke="#efc3a9" d="M39 52h1" />
<path stroke="#080004" d="M38 53h2" />
</svg>