<svg xmlns="http://www.w3.org/2000/svg" viewBox="0 -0.5 68 56" shape-rendering="crispEdges">
<metadata>Made with Pixels to Svg https://codepen.io/shshaw/pen/XbxvNj</metadata>
<path stroke="#000000" d="M44 24h1M43 25h1M45 25h2M27 26h1M43 26h1M48 26h1M25 27h2M30 27h3M42 27h1M49 27h2M24 28h1M42 28h1M51 28h2M25 29h1M34 29h1M43 29h1M53 29h1M22 30h1M27 30h3M32 30h1M35 30h1M43 30h1M51 30h2M21 31h1M23 31h1M33 31h1M35 31h1M42 31h1M46 31h2M50 31h1M21 32h1M36 32h1M39 32h1M44 32h2M48 32h2M20 33h1M24 33h1M32 33h2M37 33h2M43 33h1M19 34h1M31 34h1M40 34h3M19 35h1M26 35h5M18 36h1M40 36h1M18 37h1M26 37h2M40 37h1M25 38h1M30 38h1M32 38h1M41 38h3M17 39h1M25 39h1M27 39h1M31 39h1M33 39h1M44 39h1M17 40h1M24 40h1M32 40h1M44 40h1M17 41h1M19 41h1M25 41h1M45 41h1M17 42h2M21 42h1M23 42h1M25 42h1M46 42h1M21 43h1M23 43h1M26 43h1M47 43h1M22 44h1M26 44h1M47 44h1M27 45h1M47 45h1M27 46h1M46 46h1M45 47h1M29 48h1M43 48h2M30 49h1M42 49h1M31 50h1M39 50h3M37 51h2M33 52h1M36 52h1M34 53h2" />
<path stroke="#ffffff" d="M44 25h1M25 28h1M45 30h1M22 31h1M44 31h1M26 36h2M18 40h2M38 40h2M18 41h1M22 42h1M22 43h1" />
<path stroke="#000400" d="M28 26h2M33 28h1M30 29h2M40 32h2" />
<path stroke="#9b40a9" d="M44 26h1M29 29h1M22 34h1M22 35h1M37 35h1M20 36h3M21 37h1" />
<path stroke="#ff64f8" d="M45 26h1M44 27h2M28 28h2M28 29h1M22 33h2M36 33h1M23 34h2M36 34h3M23 35h2M36 35h1M38 35h1M19 36h1M23 36h1M19 37h2M22 37h2M33 37h1M24 38h1M33 38h1M24 39h1" />
<path stroke="#83438e" d="M46 26h1M47 27h1" />
<path stroke="#000808" d="M47 26h1" />
<path stroke="#a743af" d="M27 27h1M43 27h1M48 27h1M43 28h1M21 33h1" />
<path stroke="#e264ff" d="M28 27h1M27 28h1M35 33h1" />
<path stroke="#84438c" d="M29 27h1" />
<path stroke="#db64ff" d="M46 27h1" />
<path stroke="#422545" d="M26 28h1M35 32h1" />
<path stroke="#483f33" d="M30 28h1M32 29h1" />
<path stroke="#ad977b" d="M31 28h2M33 29h1" />
<path stroke="#b044b2" d="M44 28h1" />
<path stroke="#f55dff" d="M45 28h1" />
<path stroke="#a140ac" d="M46 28h2M46 29h2" />
<path stroke="#a040ac" d="M48 28h1M48 29h2" />
<path stroke="#872e84" d="M49 28h1M48 30h2" />
<path stroke="#d6d3d6" d="M50 28h1M50 29h3M48 31h2M30 47h1" />
<path stroke="#080400" d="M26 29h1M34 32h1" />
<path stroke="#85448c" d="M27 29h1M34 33h1" />
<path stroke="#842c83" d="M44 29h2" />
<path stroke="#4c4537" d="M33 30h1" />
<path stroke="#ad967b" d="M34 30h1M34 31h1" />
<path stroke="#7d6a83" d="M44 30h1M45 31h1" />
<path stroke="#6f2c74" d="M46 30h1" />
<path stroke="#af43b8" d="M47 30h1" />
<path stroke="#424142" d="M50 30h1M32 34h1M32 36h2M28 37h2M32 37h1M34 38h2M34 40h2M36 41h4M44 41h1M40 42h4M41 43h1M42 44h1M30 45h2M42 45h1M30 46h3M37 46h2M31 47h2M36 47h4M30 48h2M38 48h2M31 49h1M38 49h1" />
<path stroke="#9f8b80" d="M43 31h1M39 33h1M38 37h1M46 43h1M42 48h1M38 50h1" />
<path stroke="#452543" d="M22 32h1M39 34h1M25 35h1" />
<path stroke="#080000" d="M23 32h1M25 34h1M39 35h1" />
<path stroke="#c4b09e" d="M42 32h2M42 33h1M21 34h1M33 34h1M21 35h1M31 35h3M29 36h3M37 36h1M37 37h1M30 39h1M34 39h2M27 40h1M30 40h1M33 40h1M36 40h1M40 40h4M26 41h1M31 41h5M41 41h2M26 42h3M32 42h2M38 42h2M27 43h3M33 43h1M39 43h1M27 44h1M29 44h4M34 44h2M38 44h1M29 45h1M32 45h2" />
<path stroke="#827365" d="M40 33h1" />
<path stroke="#ccb9a8" d="M41 33h1" />
<path stroke="#9d43a9" d="M20 34h1M20 35h1M36 36h1M36 37h1" />
<path stroke="#916693" d="M34 34h2" />
<path stroke="#3f3a36" d="M34 35h1" />
<path stroke="#d479db" d="M35 35h1" />
<path stroke="#ff64f5" d="M24 36h2M34 36h2M24 37h2M34 37h2M20 38h4M20 39h4" />
<path stroke="#96877a" d="M28 36h1M37 40h1" />
<path stroke="#913393" d="M38 36h2M39 37h1" />
<path stroke="#342f2b" d="M30 37h1" />
<path stroke="#000408" d="M31 37h1M28 47h1" />
<path stroke="#000c29" d="M18 38h1M23 41h1" />
<path stroke="#937e98" d="M19 38h1M23 40h1" />
<path stroke="#000810" d="M28 38h1" />
<path stroke="#363330" d="M29 38h1M29 39h1" />
<path stroke="#955d9e" d="M36 38h1" />
<path stroke="#635066" d="M37 38h1" />
<path stroke="#968d87" d="M38 38h1" />
<path stroke="#5a5c65" d="M39 38h1" />
<path stroke="#4e463e" d="M40 38h1M40 39h1" />
<path stroke="#e7ffff" d="M18 39h1M22 41h1" />
<path stroke="#5b3f59" d="M19 39h1M22 40h1" />
<path stroke="#c7b6a6" d="M28 39h1" />
<path stroke="#52463f" d="M36 39h2" />
<path stroke="#39455a" d="M38 39h2" />
<path stroke="#b8a997" d="M41 39h1" />
<path stroke="#bfae9b" d="M42 39h1" />
<path stroke="#51483f" d="M43 39h1" />
<path stroke="#5f435b" d="M20 40h2" />
<path stroke="#080408" d="M26 40h1" />
<path stroke="#c2af9c" d="M28 40h2M28 41h2M30 42h2M34 42h4M30 43h2M34 43h4" />
<path stroke="#3c3939" d="M31 40h1M30 41h1" />
<path stroke="#001031" d="M20 41h1" />
<path stroke="#f7ffff" d="M21 41h1" />
<path stroke="#37302c" d="M27 41h1" />
<path stroke="#4e4538" d="M40 41h1M43 41h1M32 43h1M38 43h1M28 44h1M33 44h1M28 45h1M34 45h2" />
<path stroke="#423c3a" d="M29 42h1" />
<path stroke="#9b897c" d="M44 42h1M40 43h1M42 43h2M45 43h1M40 44h2M43 44h3M36 45h2M40 45h2M43 45h2M33 46h4M39 46h5M33 47h3M40 47h4M32 48h4M40 48h1M34 49h1M41 49h1M34 51h2M34 52h2" />
<path stroke="#4b4538" d="M45 42h1M44 43h1M36 44h2M45 45h1M41 48h1M32 49h2M35 49h1M40 49h1M34 50h2" />
<path stroke="#9a8778" d="M39 44h1M38 45h2" />
<path stroke="#584e46" d="M46 44h1M44 47h1" />
<path stroke="#958476" d="M46 45h1M44 46h2" />
<path stroke="#524e48" d="M28 46h1" />
<path stroke="#423c34" d="M29 46h1M29 47h1" />
<path stroke="#4a4139" d="M36 48h1M37 49h1" />
<path stroke="#ded3c6" d="M37 48h1" />
<path stroke="#918c87" d="M36 49h1" />
<path stroke="#4a4436" d="M39 49h1" />
<path stroke="#3f3936" d="M32 50h1" />
<path stroke="#99887c" d="M33 50h1M33 51h1" />
<path stroke="#564b40" d="M36 50h2" />
<path stroke="#000008" d="M32 51h1" />
<path stroke="#91806d" d="M36 51h1" />
</svg>