<svg xmlns="http://www.w3.org/2000/svg" viewBox="0 -0.5 68 56" shape-rendering="crispEdges">
<metadata>Made with Pixels to Svg https://codepen.io/shshaw/pen/XbxvNj</metadata>
<path stroke="#000000" d="M27 25h4M37 25h4M26 26h1M31 26h1M36 26h1M41 26h1M25 27h1M30 27h1M37 27h1M42 27h1M24 28h1M29 28h1M31 28h5M38 28h1M23 29h1M30 29h1M36 29h2M44 29h1M23 30h1M44 30h1M23 31h1M44 31h1M23 32h1M44 32h1M23 33h1M44 33h1M24 34h1M43 34h1M24 35h1M43 35h1M25 36h1M43 36h1M25 37h1M42 37h1M25 38h1M40 38h2M25 39h1M40 39h1M26 40h1M39 40h1M27 41h1M38 41h1M29 42h3M36 42h1M39 42h1M28 43h1M37 43h2M40 43h1M27 44h1M41 44h1M26 45h1M40 45h1M26 46h1M37 46h1M39 46h1M27 47h1M38 47h1M28 48h2M37 48h1M30 49h1M36 49h1M31 50h1M35 50h1M31 51h1M34 51h1M32 52h2" />
<path stroke="#8773ba" d="M27 26h1M27 27h1M39 28h1M39 29h1" />
<path stroke="#8772bd" d="M28 26h2M38 26h2M39 27h1M24 30h2M38 30h1M25 31h1M38 31h4M40 32h3M40 33h1" />
<path stroke="#8472bf" d="M30 26h1M37 26h1M40 26h1M40 27h2M25 28h2M24 29h4M38 32h2M39 33h1" />
<path stroke="#43395d" d="M26 27h1M38 29h1" />
<path stroke="#665391" d="M28 27h2M38 27h1M39 30h3M24 31h1M43 32h1M41 33h3" />
<path stroke="#424142" d="M27 28h1M28 30h1M37 30h1M37 31h1M26 32h1M37 32h1M26 33h1M38 33h1M38 34h1M39 35h1M38 36h1M32 37h4M39 37h1M30 40h1M31 41h1M35 41h1M32 42h3M34 43h2M30 46h1M29 47h1" />
<path stroke="#453b51" d="M28 28h1M29 29h1" />
<path stroke="#8872bf" d="M40 28h2M40 29h2M42 30h2M42 31h2" />
<path stroke="#846eca" d="M42 28h1M43 29h1" />
<path stroke="#000408" d="M43 28h1M28 41h1" />
<path stroke="#66597b" d="M28 29h1" />
<path stroke="#2e6685" d="M31 29h5M30 30h6M30 31h6M28 32h8M28 33h8M28 34h4M28 35h4M29 43h1M36 43h1M33 44h3M32 45h4M32 46h5M32 47h6M32 48h4M33 49h3" />
<path stroke="#585a7b" d="M42 29h1" />
<path stroke="#8870c6" d="M26 30h1" />
<path stroke="#66568a" d="M27 30h1M26 31h1" />
<path stroke="#2d6584" d="M29 30h1M36 30h1M28 31h2M36 31h1M27 32h1M36 32h1M27 33h1M36 33h2M26 34h1M32 34h6M32 35h1M35 35h1M37 35h1M30 36h2M36 36h1M30 37h1M37 37h1M31 46h1M30 47h2" />
<path stroke="#42414a" d="M27 31h1" />
<path stroke="#655492" d="M24 32h2M24 33h2M40 36h2M40 37h2" />
<path stroke="#424242" d="M25 34h1M25 35h1M40 35h2" />
<path stroke="#fffdd6" d="M27 34h1M26 35h2M33 35h2M36 35h1M28 36h1M32 36h4M37 36h1M31 37h1M36 37h1M35 38h2M35 39h2M32 40h2M39 43h1M40 44h1M28 46h2M28 47h1" />
<path stroke="#694e9f" d="M39 34h1" />
<path stroke="#635492" d="M40 34h2" />
<path stroke="#675586" d="M42 34h1" />
<path stroke="#2f6786" d="M38 35h1M37 44h1M36 45h1" />
<path stroke="#45385a" d="M42 35h1" />
<path stroke="#68455f" d="M26 36h2M26 37h1" />
<path stroke="#275f7e" d="M29 36h1M28 37h2" />
<path stroke="#675193" d="M39 36h1M42 36h1" />
<path stroke="#ffffff" d="M27 37h1M33 38h1" />
<path stroke="#225a79" d="M38 37h1" />
<path stroke="#f7fdd3" d="M26 38h1" />
<path stroke="#834a75" d="M27 38h1" />
<path stroke="#b8c4b4" d="M28 38h1M31 38h1" />
<path stroke="#2c6483" d="M29 38h2" />
<path stroke="#84406c" d="M32 38h1M32 39h2" />
<path stroke="#7b4268" d="M34 38h1M34 39h1" />
<path stroke="#195170" d="M37 38h1M37 39h1" />
<path stroke="#1a5271" d="M38 38h2M38 39h2M38 40h1M27 45h1M30 48h2M31 49h1" />
<path stroke="#cdc6c5" d="M26 39h1" />
<path stroke="#f7f9d6" d="M27 39h1" />
<path stroke="#effdd6" d="M28 39h4" />
<path stroke="#bdb5ad" d="M27 40h1M36 40h2M35 42h1M32 43h2M32 44h1M27 46h1M32 49h1M32 50h3M33 51h1" />
<path stroke="#bdb5b4" d="M28 40h1M29 41h1" />
<path stroke="#346c8b" d="M29 40h1" />
<path stroke="#fff9d6" d="M31 40h1M34 40h2" />
<path stroke="#c0bca1" d="M30 41h1M34 41h1" />
<path stroke="#bdb3ac" d="M32 41h2" />
<path stroke="#3f3f44" d="M36 41h1" />
<path stroke="#000400" d="M37 41h1M37 45h1" />
<path stroke="#316988" d="M30 43h1M38 44h1" />
<path stroke="#8c869c" d="M31 43h1" />
<path stroke="#3a7291" d="M28 44h1" />
<path stroke="#423c42" d="M29 44h1M29 45h1" />
<path stroke="#0f4766" d="M30 44h1M36 48h1" />
<path stroke="#bdb1ad" d="M31 44h1M39 44h1M31 45h1M39 45h1" />
<path stroke="#124a69" d="M36 44h1" />
<path stroke="#b5adad" d="M28 45h1" />
<path stroke="#397190" d="M30 45h1" />
<path stroke="#000008" d="M38 45h1" />
<path stroke="#3b7392" d="M32 51h1" />
</svg>