<svg xmlns="http://www.w3.org/2000/svg" viewBox="0 -0.5 68 56" shape-rendering="crispEdges">
<metadata>Made with Pixels to Svg https://codepen.io/shshaw/pen/XbxvNj</metadata>
<path stroke="#000400" d="M26 14h2M23 15h1M25 15h1M27 15h1M22 16h1M26 16h1M22 17h1M26 17h1M36 17h1M39 17h4M22 18h1M35 18h1M38 18h1M43 18h1M21 19h1M35 19h1M42 19h1M20 20h1M26 20h1M34 20h1M42 20h1M20 21h1M26 21h1M32 21h2M40 21h2M19 22h1M28 22h4M35 22h5M19 23h1M26 23h2M34 23h1M19 24h1M19 25h1M34 25h1M20 26h1M33 26h1M20 27h1M32 27h1M21 28h1M33 28h1M20 29h1M33 29h1M19 30h1M32 30h1M37 30h3M42 30h2M17 31h1M19 31h1M36 31h1M40 31h2M43 31h1M55 31h2M14 32h1M16 32h1M18 32h1M20 32h1M32 32h1M34 32h2M42 32h1M53 32h2M59 32h3M13 33h1M15 33h1M18 33h1M21 33h1M33 33h1M41 33h1M49 33h1M52 33h1M58 33h1M62 33h1M13 34h1M18 34h1M23 34h1M41 34h1M44 34h2M60 34h2M13 35h1M22 35h1M42 35h2M45 35h1M47 35h1M58 35h2M13 36h1M17 36h1M22 36h1M44 36h1M47 36h1M57 36h1M13 37h1M17 37h1M19 37h3M46 37h1M55 37h2M14 38h1M18 38h1M43 38h1M46 38h1M54 38h1M14 39h1M42 39h1M45 39h1M55 39h2M15 40h1M22 40h2M26 40h1M41 40h1M43 40h2M20 41h2M24 41h2M27 41h1M42 41h1M15 42h1M19 42h1M27 42h1M58 42h1M61 42h3M15 43h3M19 43h1M25 43h2M59 43h2M64 43h1M18 44h1M24 44h1M62 44h2M24 45h1M25 46h2M60 46h1M24 47h1M27 47h1M56 47h4M23 48h1M25 48h1M31 48h4M41 48h3M55 48h1M23 49h1M30 49h1M35 49h1M40 49h1M44 49h2M55 49h1M22 50h1M31 50h1M37 50h1M41 50h1M46 50h2M49 50h1M56 50h1M22 51h2M28 51h3M36 51h1M42 51h1M50 51h1M52 51h1M55 51h2M25 52h3M35 52h1M43 52h1M51 52h1M53 52h2M43 53h1M37 54h3M42 54h1" />
<path stroke="#babeff" d="M26 15h1M23 16h1M23 17h1M23 18h1M22 19h2M21 20h2M21 21h2M20 22h2M20 23h1M29 28h1M29 29h1M28 30h2M26 31h3M37 31h3M42 31h1M38 32h2M34 34h2M23 35h1M34 35h1M44 35h1M32 36h2M19 38h1M18 39h2M17 41h1M35 46h1M35 47h1" />
<path stroke="#080c08" d="M24 16h1M37 18h1M17 35h1M61 45h1M36 53h1" />
<path stroke="#c1c9ff" d="M25 16h1M24 17h1M36 34h1" />
<path stroke="#838aac" d="M25 17h1" />
<path stroke="#c8d4ff" d="M24 18h1" />
<path stroke="#000800" d="M25 18h1M25 19h1M57 40h1M57 41h1M40 53h2" />
<path stroke="#ffffff" d="M36 18h1M39 18h4M37 19h3M35 20h7M34 21h4M32 22h3M28 23h6M26 24h6M27 25h7M25 26h4M24 27h2M22 28h2M21 29h2M41 32h1M55 32h1M32 33h1M53 33h3M59 33h3M49 34h1M52 34h2M56 34h4M48 35h1M50 35h3M54 35h4M48 36h3M53 36h4M28 37h1M30 37h2M38 37h2M47 37h8M28 38h4M47 38h6M28 39h1M30 39h1M46 39h5M40 40h1M45 40h3M56 40h1M30 41h2M40 41h2M43 41h3M53 41h1M55 41h1M39 42h2M42 42h2M51 42h2M54 42h2M40 43h5M48 43h1M52 43h3M62 43h2M36 44h1M40 44h2M45 44h1M49 44h1M61 44h1M37 45h1M46 45h1M49 45h1M42 52h1M42 53h1" />
<path stroke="#868faa" d="M24 19h1" />
<path stroke="#acaeac" d="M36 19h1M60 44h1M60 45h1" />
<path stroke="#aaafac" d="M40 19h2M26 27h2" />
<path stroke="#999fc0" d="M23 20h1" />
<path stroke="#8b8b7f" d="M24 20h1M22 22h1M29 26h1M28 27h2M50 34h2M54 34h2M53 35h1M51 36h2M53 42h1" />
<path stroke="#fc5bee" d="M25 20h1M24 21h2M23 22h1M22 23h2M21 25h1" />
<path stroke="#868c81" d="M23 21h1" />
<path stroke="#c8c3bd" d="M38 21h2M26 25h1M24 26h1M55 43h1" />
<path stroke="#f556e7" d="M24 22h1M24 23h1" />
<path stroke="#000010" d="M25 22h1" />
<path stroke="#8c897f" d="M21 23h1" />
<path stroke="#4f4520" d="M25 23h1" />
<path stroke="#949c94" d="M20 24h2M20 25h1" />
<path stroke="#f952ea" d="M22 24h2M22 25h1" />
<path stroke="#e160d7" d="M24 24h1M22 26h1" />
<path stroke="#f7fbff" d="M25 24h1M24 25h1M23 26h1M22 27h1" />
<path stroke="#83837f" d="M32 24h1M49 35h1" />
<path stroke="#080800" d="M33 24h1M31 31h1M48 34h1M36 49h1M48 49h1" />
<path stroke="#ef58e5" d="M23 25h1" />
<path stroke="#ecafe7" d="M25 25h1M23 27h1" />
<path stroke="#fe57e2" d="M21 26h1M21 27h1" />
<path stroke="#7e8081" d="M30 26h1" />
<path stroke="#524942" d="M31 26h1" />
<path stroke="#2c3f49" d="M32 26h1M28 28h1M28 29h1M26 30h2M25 31h1M28 32h1M29 33h1M29 34h1M28 35h1M27 37h1M17 39h1M42 44h2M34 46h1M34 47h1" />
<path stroke="#c1c5ff" d="M30 27h2M20 31h1M38 51h1" />
<path stroke="#a09e94" d="M24 28h2M24 29h1" />
<path stroke="#080000" d="M26 28h1" />
<path stroke="#b895b6" d="M27 28h1M27 29h1" />
<path stroke="#bac2f7" d="M30 28h1M18 40h1M38 52h1" />
<path stroke="#797c94" d="M31 28h1M30 29h1M19 40h1M18 41h1" />
<path stroke="#95a2be" d="M32 28h1M32 29h1M21 32h2M23 33h1M38 34h3M39 35h3M24 36h4M35 36h1M40 36h2M25 37h2M34 37h1M25 38h1M34 38h2M42 38h1M25 39h1M35 39h1M20 40h2M24 40h2M16 42h1M18 42h1M18 43h1M27 43h1M25 44h1M25 45h1M24 48h1M27 48h1M35 48h1M24 49h3M23 50h3" />
<path stroke="#e9e9ec" d="M23 29h1" />
<path stroke="#f158e7" d="M25 29h1" />
<path stroke="#ffeffe" d="M26 29h1" />
<path stroke="#99a0c5" d="M31 29h1M19 41h1" />
<path stroke="#525142" d="M20 30h1M21 31h2M24 32h1M27 32h1M25 33h2M29 39h1M31 39h1M51 39h1M34 40h1M46 41h2" />
<path stroke="#7e8581" d="M21 30h1" />
<path stroke="#e7ebef" d="M22 30h2M23 31h1M26 51h2" />
<path stroke="#8c8c7f" d="M24 30h2M24 31h1M56 42h1M54 44h3M59 44h1M52 45h2M57 45h2M55 46h1M52 47h3" />
<path stroke="#6a7587" d="M30 30h1" />
<path stroke="#9ca9c7" d="M31 30h1" />
<path stroke="#7b7e94" d="M29 31h1M38 33h2M35 35h1" />
<path stroke="#3f4742" d="M30 31h1" />
<path stroke="#ced1ff" d="M17 32h1M14 33h1M16 33h2M14 34h1M14 35h1M14 36h2M14 37h1M16 40h1" />
<path stroke="#3c473f" d="M23 32h1M27 49h1" />
<path stroke="#bac2ff" d="M25 32h2M25 34h1M24 35h1M36 46h1" />
<path stroke="#8ba1ac" d="M29 32h1M29 35h1" />
<path stroke="#516773" d="M30 32h1M31 33h1M31 34h1M31 35h1M30 36h1M48 41h1M33 42h1M41 42h1M46 42h1M47 43h1M34 44h1M37 44h1M46 44h3M50 44h1M34 45h1M42 45h2M47 45h2M50 45h1M27 46h2M30 46h4M44 46h1M28 47h2M32 47h2M42 47h4M29 48h2M40 48h1M46 48h1M28 49h2M30 50h1" />
<path stroke="#dedfde" d="M31 32h1M21 38h1M37 40h1M34 41h4" />
<path stroke="#bcc0ff" d="M36 32h2M36 33h2" />
<path stroke="#555756" d="M40 32h1" />
<path stroke="#000000" d="M50 32h2M57 32h1M43 37h1M16 41h1" />
<path stroke="#efefef" d="M56 32h1" />
<path stroke="#080c00" d="M22 33h1M26 48h1" />
<path stroke="#949bc0" d="M24 33h1M27 33h1M25 35h1" />
<path stroke="#b5c1c3" d="M28 33h1M28 34h1" />
<path stroke="#90a5b0" d="M30 33h1" />
<path stroke="#474a55" d="M34 33h1" />
<path stroke="#c2c2ff" d="M35 33h1" />
<path stroke="#738b96" d="M40 33h1" />
<path stroke="#f7fbf7" d="M50 33h1" />
<path stroke="#525352" d="M51 33h1" />
<path stroke="#9f9f9f" d="M56 33h1" />
<path stroke="#4f4f4f" d="M57 33h1" />
<path stroke="#888b94" d="M15 34h1M15 35h1M15 37h1" />
<path stroke="#d6ddff" d="M16 34h1M16 35h1" />
<path stroke="#9198ac" d="M17 34h1" />
<path stroke="#2b383f" d="M24 34h1M33 34h1M32 35h1M31 36h1M33 38h1M35 40h2M36 45h1M38 50h1M39 51h1" />
<path stroke="#94a1be" d="M26 34h2M26 35h2" />
<path stroke="#91a6b1" d="M30 34h1M30 35h1M37 36h2M36 37h2M28 41h1M32 42h1M29 43h1M32 43h2M29 44h2M32 44h1M38 44h1M30 45h2M39 46h1M38 47h1" />
<path stroke="#e7f7ff" d="M32 34h1" />
<path stroke="#979dc2" d="M37 34h1" />
<path stroke="#d1d5ff" d="M33 35h1" />
<path stroke="#6c7186" d="M36 35h1" />
<path stroke="#4a4d4a" d="M37 35h1" />
<path stroke="#524f44" d="M38 35h1M48 40h2" />
<path stroke="#a5b2be" d="M16 36h1M16 37h1M16 38h2" />
<path stroke="#4a4d47" d="M23 36h1" />
<path stroke="#32454f" d="M28 36h1" />
<path stroke="#8ea4af" d="M29 36h1" />
<path stroke="#929db1" d="M34 36h1M41 37h1" />
<path stroke="#524e44" d="M36 36h1M50 40h1" />
<path stroke="#524d42" d="M39 36h1M35 37h1M40 37h1M36 38h1M37 39h1" />
<path stroke="#525252" d="M42 36h1M42 37h1" />
<path stroke="#f7f7f7" d="M43 36h1" />
<path stroke="#dedfd6" d="M22 37h2" />
<path stroke="#2a373f" d="M24 37h1M24 38h1M24 39h1M34 39h1M27 40h1M29 46h1" />
<path stroke="#4b616d" d="M29 37h1M40 39h1M28 50h1" />
<path stroke="#26333c" d="M32 37h1" />
<path stroke="#828ca0" d="M33 37h1" />
<path stroke="#898da4" d="M15 38h1" />
<path stroke="#797b96" d="M20 38h1M20 39h2" />
<path stroke="#dee7e7" d="M22 38h1" />
<path stroke="#30434c" d="M23 38h1M22 39h1" />
<path stroke="#25323a" d="M26 38h1M45 42h1M45 43h1" />
<path stroke="#efffff" d="M27 38h1" />
<path stroke="#e7ebe7" d="M32 38h1M32 39h2" />
<path stroke="#c1d4de" d="M37 38h1" />
<path stroke="#4f6571" d="M38 38h1M29 40h1M29 41h1M27 44h1M26 45h1M29 45h1M48 46h1M37 49h1" />
<path stroke="#4e646f" d="M39 38h1M37 51h1" />
<path stroke="#554f44" d="M40 38h1M41 39h1" />
<path stroke="#9ca5be" d="M41 38h1" />
<path stroke="#4a4942" d="M53 38h1M27 39h1M52 39h1M54 40h1M40 45h2" />
<path stroke="#ced1f7" d="M15 39h1" />
<path stroke="#848b94" d="M16 39h1" />
<path stroke="#778e99" d="M23 39h1" />
<path stroke="#b8bfc2" d="M26 39h1" />
<path stroke="#babec1" d="M36 39h1" />
<path stroke="#758d98" d="M38 39h2M50 47h1M48 48h2" />
<path stroke="#c2c2c0" d="M53 39h1" />
<path stroke="#c6c3bd" d="M54 39h1M51 40h1M50 41h2M57 42h1M56 43h3M52 44h2M57 44h2M54 45h3M59 45h1M52 46h3M55 47h1M53 48h1M52 49h3M50 50h4M55 50h1M51 51h1M53 51h2" />
<path stroke="#444555" d="M17 40h1" />
<path stroke="#28363e" d="M28 40h1M28 44h1M28 45h1" />
<path stroke="#5a554a" d="M30 40h1" />
<path stroke="#95aab4" d="M31 40h1" />
<path stroke="#52514a" d="M32 40h1M38 40h1M33 41h1M39 41h1M37 42h1" />
<path stroke="#dee3de" d="M33 40h1M38 41h1M35 42h1" />
<path stroke="#495f6a" d="M39 40h1M32 41h1" />
<path stroke="#c0bfc0" d="M52 40h1" />
<path stroke="#424142" d="M53 40h1M49 41h1M52 41h1M50 42h1M50 43h2M51 44h1M51 45h1M51 46h1M51 47h1M52 48h1M50 49h2" />
<path stroke="#868581" d="M55 40h1M54 41h1" />
<path stroke="#7f837f" d="M56 41h1" />
<path stroke="#37423f" d="M17 42h1" />
<path stroke="#2d3b43" d="M28 42h2M28 43h1M38 45h2" />
<path stroke="#fffbf7" d="M30 42h1M46 46h1" />
<path stroke="#566d79" d="M31 42h1M31 43h1M41 52h1" />
<path stroke="#4c636e" d="M34 42h1M44 42h1M35 43h1M38 49h2" />
<path stroke="#e7e7e7" d="M36 42h1" />
<path stroke="#5a5a55" d="M38 42h1M39 43h1" />
<path stroke="#425057" d="M47 42h1M46 43h1M42 46h2M45 46h1" />
<path stroke="#2e3c45" d="M48 42h2M33 44h1M32 45h1" />
<path stroke="#313f48" d="M30 43h1M38 43h1M37 46h1M37 47h1" />
<path stroke="#2d3c44" d="M34 43h1" />
<path stroke="#2b3940" d="M36 43h1M26 50h2" />
<path stroke="#7f96a1" d="M37 43h1" />
<path stroke="#556b77" d="M49 43h1" />
<path stroke="#8c8a84" d="M61 43h1" />
<path stroke="#99a7bd" d="M26 44h1" />
<path stroke="#5d615f" d="M31 44h1M38 46h1M39 47h1" />
<path stroke="#4a4744" d="M35 44h1M35 45h1M30 47h2" />
<path stroke="#58534f" d="M39 44h1" />
<path stroke="#39464d" d="M44 44h1M44 45h2" />
<path stroke="#526974" d="M27 45h1M33 45h1M44 48h2M40 50h1M40 51h2" />
<path stroke="#423c42" d="M40 46h1M41 47h1" />
<path stroke="#4b5860" d="M41 46h1" />
<path stroke="#576e7a" d="M47 46h1" />
<path stroke="#44545c" d="M49 46h1M48 47h1" />
<path stroke="#47575f" d="M50 46h1" />
<path stroke="#89867e" d="M56 46h1M59 46h1" />
<path stroke="#cec7bd" d="M57 46h2" />
<path stroke="#979dc5" d="M36 47h1" />
<path stroke="#8da3ae" d="M40 47h1" />
<path stroke="#3a4950" d="M46 47h2" />
<path stroke="#79909a" d="M49 47h1" />
<path stroke="#5e6163" d="M28 48h1" />
<path stroke="#4a473f" d="M36 48h1" />
<path stroke="#97adb6" d="M37 48h2" />
<path stroke="#636563" d="M39 48h1" />
<path stroke="#748c97" d="M47 48h1M50 48h2M46 49h2" />
<path stroke="#63635e" d="M54 48h1M54 50h1" />
<path stroke="#3f3f39" d="M49 49h1" />
<path stroke="#536a75" d="M29 50h1" />
<path stroke="#4a606b" d="M39 50h1" />
<path stroke="#080400" d="M24 51h1" />
<path stroke="#3c423f" d="M25 51h1" />
<path stroke="#b8d2e0" d="M36 52h1M37 53h1" />
<path stroke="#52565a" d="M37 52h1" />
<path stroke="#979fc2" d="M39 52h1M38 53h1" />
<path stroke="#26323b" d="M40 52h1" />
<path stroke="#5a615e" d="M39 53h1" />
</svg>