<svg xmlns="http://www.w3.org/2000/svg" viewBox="0 -0.5 68 56" shape-rendering="crispEdges">
<metadata>Made with Pixels to Svg https://codepen.io/shshaw/pen/XbxvNj</metadata>
<path stroke="#000000" d="M22 22h1M31 22h2M21 23h1M23 23h1M29 23h2M33 23h1M21 24h1M23 24h1M27 24h1M32 24h1M20 25h1M24 25h1M26 25h1M31 25h1M54 25h2M32 26h1M52 26h2M55 26h1M32 27h1M51 27h1M54 27h1M19 28h1M31 28h1M33 28h1M49 28h2M54 28h1M18 29h1M31 29h1M33 29h1M48 29h1M55 29h1M29 30h1M32 30h1M34 30h1M46 30h2M54 30h1M17 31h1M30 31h1M32 31h1M34 31h1M45 31h1M17 32h1M30 32h1M32 32h1M35 32h1M43 32h2M50 32h3M18 33h1M31 33h1M33 33h1M35 33h1M42 33h1M49 33h1M19 34h2M39 34h3M48 34h1M21 35h4M38 35h1M47 35h1M25 36h2M46 36h1M27 37h1M45 37h1M27 38h1M44 38h1M26 39h1M45 39h1M45 40h1M24 41h2M45 41h1M23 42h1M28 42h1M45 42h1M22 43h1M26 43h2M29 43h1M44 43h1M22 44h1M24 44h2M29 44h1M44 44h1M23 45h1M31 46h1M41 46h1M44 46h4M32 47h2M38 47h3M42 47h1M48 47h1M34 48h4M43 48h2M47 48h1M45 49h2" />
<path stroke="#c5c3bc" d="M22 23h1M32 23h1M22 24h1M30 24h2M21 25h2M30 25h1M22 26h2M21 34h5M25 35h1M27 36h1M28 38h2M27 39h1M29 39h1M29 40h6M29 41h1M33 41h3M26 42h2M23 44h1" />
<path stroke="#ffffff" d="M31 23h1M29 24h1M27 25h2M26 26h2M24 27h3M26 28h2M20 29h2M27 29h2M20 30h3M27 30h2M20 31h1M23 31h1M27 31h3M28 32h2M23 33h1M29 33h2M29 34h3M30 35h2M31 36h4M32 37h6M33 38h3M38 38h2M34 39h1M36 39h2M36 40h4M37 41h2M39 42h1" />
<path stroke="#080808" d="M28 24h1M25 26h1" />
<path stroke="#41413f" d="M23 25h1" />
<path stroke="#acacac" d="M29 25h1M24 26h1" />
<path stroke="#080500" d="M20 26h1M20 27h1" />
<path stroke="#e6d3ab" d="M21 26h1" />
<path stroke="#c9c7bb" d="M28 26h2M28 27h2M26 32h2M26 33h2M26 34h2M26 35h2M28 36h2M28 37h2M30 38h2M30 39h2" />
<path stroke="#4a431a" d="M30 26h1" />
<path stroke="#e8cb1e" d="M31 26h1M31 27h1" />
<path stroke="#ebc41d" d="M54 26h1M52 27h2M51 28h1M50 29h2M54 29h1M48 32h2M48 33h1M46 34h2M46 35h1M44 36h2M44 37h1M44 39h1M44 40h1M44 41h1M44 42h1M23 43h1M33 44h1M32 45h1M35 46h2M42 46h2M34 47h4M43 47h5M45 48h2" />
<path stroke="#786d55" d="M21 27h1" />
<path stroke="#b2732d" d="M22 27h2M30 41h3" />
<path stroke="#c9c6bc" d="M27 27h1M26 30h1M26 31h1M28 33h1M28 34h1M28 35h2M30 36h1M30 37h2M32 38h1M32 39h2" />
<path stroke="#000c10" d="M30 27h1" />
<path stroke="#ffe16a" d="M20 28h2" />
<path stroke="#ffec73" d="M22 28h2M23 29h3M49 29h1M48 30h1M46 31h2M18 32h4M45 32h2M19 33h1M43 33h3M42 34h2M39 35h4M38 36h2M42 38h1M40 44h2M40 45h1" />
<path stroke="#b3742d" d="M24 28h2M22 29h1M20 33h2M34 34h2M35 35h1M38 37h2" />
<path stroke="#a9aba9" d="M28 28h1" />
<path stroke="#000400" d="M29 28h1M29 29h1" />
<path stroke="#f3ce26" d="M32 28h1M33 30h1" />
<path stroke="#ebc319" d="M52 28h1M52 29h2M50 30h2M50 31h1M32 42h1M32 43h2" />
<path stroke="#ae712d" d="M53 28h1M19 29h1M26 29h1M21 31h1M51 31h1M33 32h1M29 42h1M33 42h1" />
<path stroke="#a2891a" d="M32 29h1M33 31h1" />
<path stroke="#201400" d="M18 30h1M23 32h1" />
<path stroke="#fffaff" d="M19 30h1M19 31h1" />
<path stroke="#ceac26" d="M23 30h1M22 31h1" />
<path stroke="#615a4f" d="M24 30h2M33 34h1M33 35h1" />
<path stroke="#f0c71a" d="M49 30h1M48 31h2M47 32h1M46 33h2M43 35h1M43 38h1M42 39h2" />
<path stroke="#484325" d="M52 30h2M42 44h1M42 45h1" />
<path stroke="#6e614e" d="M18 31h1" />
<path stroke="#100a00" d="M24 31h1M32 34h1" />
<path stroke="#fffcf6" d="M25 31h1M32 35h1" />
<path stroke="#e7c22c" d="M52 31h1M43 44h1" />
<path stroke="#001418" d="M53 31h1M43 45h1" />
<path stroke="#6e634f" d="M22 32h1" />
<path stroke="#56fe0f" d="M24 32h1" />
<path stroke="#f3feee" d="M25 32h1M24 33h1" />
<path stroke="#b2772d" d="M34 32h1M34 33h1" />
<path stroke="#b6b0a7" d="M22 33h1" />
<path stroke="#c7fab2" d="M25 33h1" />
<path stroke="#000408" d="M36 34h2" />
<path stroke="#eec516" d="M44 34h2M44 35h2M30 42h2M30 43h2M34 44h2M34 45h2" />
<path stroke="#414041" d="M34 35h1M35 36h1M35 39h1M35 40h1M36 41h1M41 45h1M37 46h1M40 46h1" />
<path stroke="#a8723a" d="M36 35h1" />
<path stroke="#53361f" d="M37 35h1" />
<path stroke="#7d5536" d="M36 36h2" />
<path stroke="#ffee71" d="M40 36h2M40 37h2M38 44h2M38 45h2" />
<path stroke="#b4812f" d="M42 36h1M43 37h1" />
<path stroke="#ecc331" d="M43 36h1" />
<path stroke="#fff866" d="M42 37h1" />
<path stroke="#52596a" d="M36 38h2M38 39h2M40 40h1M40 41h1" />
<path stroke="#c1882a" d="M40 38h1M41 39h1" />
<path stroke="#d6b36f" d="M41 38h1" />
<path stroke="#4c596a" d="M28 39h1" />
<path stroke="#fffff6" d="M40 39h1" />
<path stroke="#080c10" d="M26 40h1" />
<path stroke="#cdcec5" d="M27 40h1" />
<path stroke="#62666a" d="M28 40h1" />
<path stroke="#fffdf6" d="M41 40h1" />
<path stroke="#b8832c" d="M42 40h1M43 41h1M34 42h1M35 43h1" />
<path stroke="#c1a255" d="M43 40h1M34 43h1" />
<path stroke="#8b8d89" d="M26 41h1" />
<path stroke="#4a4c4c" d="M27 41h1" />
<path stroke="#313841" d="M28 41h1" />
<path stroke="#a9afac" d="M39 41h1" />
<path stroke="#c5c4c8" d="M41 41h1" />
<path stroke="#cec6ab" d="M42 41h1M35 42h1" />
<path stroke="#d4be2a" d="M24 42h1" />
<path stroke="#afa88b" d="M25 42h1M25 43h1" />
<path stroke="#dbcdad" d="M36 42h1" />
<path stroke="#6e3c17" d="M37 42h1" />
<path stroke="#4a505a" d="M38 42h1M38 43h2" />
<path stroke="#fffcee" d="M40 42h1" />
<path stroke="#857606" d="M41 42h1" />
<path stroke="#e7dea2" d="M42 42h1" />
<path stroke="#a38f47" d="M43 42h1M43 43h1" />
<path stroke="#a4bab4" d="M24 43h1" />
<path stroke="#936b49" d="M36 43h2" />
<path stroke="#ada253" d="M40 43h2" />
<path stroke="#81651a" d="M42 43h1" />
<path stroke="#574b54" d="M30 44h1" />
<path stroke="#58e632" d="M31 44h1M31 45h1" />
<path stroke="#51eb26" d="M32 44h1M33 45h1M32 46h3" />
<path stroke="#8e886c" d="M36 44h1" />
<path stroke="#57512b" d="M37 44h1M36 45h1" />
<path stroke="#524800" d="M30 45h1" />
<path stroke="#fffbee" d="M37 45h1" />
<path stroke="#525352" d="M38 46h1" />
<path stroke="#f6faf6" d="M39 46h1" />
</svg>