<svg xmlns="http://www.w3.org/2000/svg" viewBox="0 -0.5 68 56" shape-rendering="crispEdges">
<metadata>Made with Pixels to Svg https://codepen.io/shshaw/pen/XbxvNj</metadata>
<path stroke="#000000" d="M30 19h3M28 20h2M33 20h2M27 21h1M35 21h1M26 22h1M35 22h1M26 23h1M34 23h1M26 24h1M27 25h1M34 25h3M37 26h2M27 27h1M39 27h1M40 28h1M25 29h1M41 29h1M25 30h2M34 30h1M41 30h1M25 31h1M35 31h1M41 31h1M41 32h1M40 33h1M25 34h1M24 35h1M42 35h1M44 35h3M23 36h1M22 37h1M22 38h1M47 38h1M21 39h1M46 39h1M21 40h1M47 40h2M21 41h1M49 41h1M22 42h1M50 42h1M23 43h1M50 43h1M24 44h1M47 44h3M25 45h1M46 45h1M26 46h2M44 46h2M28 47h1M41 47h1M27 48h1M32 48h3M40 48h1M28 49h4M35 49h1M40 49h1M36 50h4" />
<path stroke="#ffea67" d="M30 20h2M30 21h2M28 22h2M28 23h2M28 24h4M28 25h4M32 26h4M32 27h4M34 28h6M34 29h6M28 30h6M36 30h4M28 31h6M36 31h4M34 32h2M34 33h2M38 36h2M38 37h2M38 38h8M38 39h8M38 40h4M38 41h4M36 42h6M36 43h6" />
<path stroke="#ffe566" d="M32 20h1M32 21h2M27 22h1M30 22h2M27 23h1M30 23h1M27 24h1M36 26h1M36 27h3M40 29h1M27 30h1M40 30h1M26 31h2M40 31h1M32 32h2M36 32h1M38 32h2M37 33h1M40 36h2M40 37h1M46 38h1M42 40h1M42 41h2M42 42h1M34 44h2M38 44h2" />
<path stroke="#fef9bc" d="M28 21h2M30 27h1M30 28h3M30 29h1" />
<path stroke="#ccab56" d="M34 21h1M33 22h2M32 23h2M40 32h1M37 34h1M34 35h3M34 36h2M46 40h1M46 41h3M45 42h1M48 42h2M45 43h1M49 43h1M42 44h1M46 44h1M42 45h1M35 46h1M40 46h2M30 47h6M40 47h1M35 48h1" />
<path stroke="#414041" d="M32 22h1M31 23h1M37 32h1M36 33h1M36 34h1M37 35h1M44 42h1M44 43h1M48 43h1M25 44h1M43 44h1M43 45h1" />
<path stroke="#544932" d="M32 24h1" />
<path stroke="#000808" d="M33 24h1" />
<path stroke="#ffe86a" d="M32 25h2" />
<path stroke="#080700" d="M28 26h1M26 32h1M26 33h1M41 34h1M47 36h1M47 37h1" />
<path stroke="#b09e6d" d="M29 26h1" />
<path stroke="#ffed68" d="M30 26h2M31 27h1M33 28h1M31 29h3M32 42h4M30 43h3M35 43h1M36 44h2" />
<path stroke="#fef9b4" d="M28 27h2" />
<path stroke="#100e00" d="M26 28h1M43 36h1" />
<path stroke="#ffedd6" d="M27 28h1M26 29h1" />
<path stroke="#fef6b9" d="M28 28h2M28 29h2" />
<path stroke="#b1a48d" d="M27 29h1" />
<path stroke="#fffdf6" d="M35 30h1" />
<path stroke="#545452" d="M34 31h1" />
<path stroke="#fff36f" d="M27 32h1M46 37h1" />
<path stroke="#a2833a" d="M28 32h3M31 33h3M41 37h1M43 40h1" />
<path stroke="#fff795" d="M31 32h1" />
<path stroke="#876e40" d="M27 33h1M46 36h1" />
<path stroke="#ffa194" d="M28 33h2M26 34h2M29 34h1M25 35h2M28 35h2M24 36h2M27 36h1M23 37h2M26 37h2M24 38h1M24 39h2M28 40h2M28 41h1M23 42h3" />
<path stroke="#ff959c" d="M30 33h1" />
<path stroke="#ccae57" d="M38 33h2M43 42h1M42 43h2M38 45h2" />
<path stroke="#cd6941" d="M28 34h1M25 37h1M25 38h1M29 41h1M24 43h2" />
<path stroke="#fea196" d="M30 34h2M30 35h2M28 36h4M28 37h4M26 38h4M26 39h4M22 40h6M22 41h6" />
<path stroke="#ff998b" d="M32 34h1M32 35h1M30 38h1M30 39h1" />
<path stroke="#c7a367" d="M33 34h1" />
<path stroke="#a58438" d="M34 34h2" />
<path stroke="#ccaf58" d="M38 34h2M38 35h2M46 42h2M46 43h2M40 44h2M44 44h2M40 45h2M44 45h2M36 46h4M36 47h4" />
<path stroke="#b19755" d="M40 34h1" />
<path stroke="#9c404a" d="M27 35h1M26 36h1" />
<path stroke="#4b4630" d="M33 35h1M31 39h1" />
<path stroke="#ffe96f" d="M40 35h2M42 36h1M43 37h1" />
<path stroke="#a18070" d="M32 36h1" />
<path stroke="#4b4738" d="M33 36h1M32 37h1" />
<path stroke="#b7b5ae" d="M36 36h1M36 37h1" />
<path stroke="#e6ca58" d="M37 36h1" />
<path stroke="#bb8e41" d="M44 36h1M45 37h1" />
<path stroke="#fff2ff" d="M45 36h1" />
<path stroke="#d0c087" d="M33 37h1" />
<path stroke="#a9aeab" d="M34 37h2" />
<path stroke="#cec083" d="M37 37h1" />
<path stroke="#8b6d3f" d="M42 37h1" />
<path stroke="#ddc899" d="M44 37h1" />
<path stroke="#ffb6ac" d="M23 38h1M22 39h2" />
<path stroke="#c27a6d" d="M31 38h1" />
<path stroke="#4a484a" d="M32 38h1" />
<path stroke="#a4a3a4" d="M33 38h1M32 39h1" />
<path stroke="#a9afab" d="M34 38h1" />
<path stroke="#ffffff" d="M35 38h1M33 39h3M32 40h5M35 41h3" />
<path stroke="#fadb99" d="M36 38h1" />
<path stroke="#ffec69" d="M37 38h1M36 39h2" />
<path stroke="#bf6e6a" d="M30 40h1M28 42h1" />
<path stroke="#414039" d="M31 40h1M30 41h1M29 42h1M28 43h1" />
<path stroke="#ffeb6a" d="M37 40h1M32 41h2" />
<path stroke="#9e8047" d="M44 40h1" />
<path stroke="#413c41" d="M45 40h1M44 41h1" />
<path stroke="#ffed83" d="M31 41h1M29 43h1" />
<path stroke="#fbd896" d="M34 41h1" />
<path stroke="#cca94d" d="M45 41h1" />
<path stroke="#ff9173" d="M26 42h1" />
<path stroke="#c2745d" d="M27 42h1M26 43h1" />
<path stroke="#fff873" d="M30 42h2M33 43h2M30 44h2" />
<path stroke="#4b442f" d="M27 43h1" />
<path stroke="#4a344a" d="M26 44h1" />
<path stroke="#e5dc82" d="M27 44h1" />
<path stroke="#e5c665" d="M28 44h1M33 44h1" />
<path stroke="#fff991" d="M29 44h1M32 44h1" />
<path stroke="#f7eb82" d="M26 45h2" />
<path stroke="#d4b65a" d="M28 45h2M32 45h2" />
<path stroke="#cfb258" d="M30 45h2" />
<path stroke="#f2ec73" d="M34 45h2" />
<path stroke="#f0e06a" d="M36 45h1" />
<path stroke="#dec169" d="M37 45h1" />
<path stroke="#f5ef7e" d="M28 46h2M29 47h1" />
<path stroke="#f2ec70" d="M30 46h5" />
<path stroke="#615b31" d="M42 46h1" />
<path stroke="#c3b75f" d="M43 46h1" />
<path stroke="#020400" d="M42 47h2" />
<path stroke="#adaeac" d="M28 48h2" />
<path stroke="#93793b" d="M30 48h1" />
<path stroke="#dccb59" d="M31 48h1" />
<path stroke="#c2a96c" d="M36 48h1M39 48h1" />
<path stroke="#ab8631" d="M37 48h2M36 49h1M39 49h1" />
<path stroke="#efeae1" d="M37 49h2" />
</svg>