<svg xmlns="http://www.w3.org/2000/svg" viewBox="0 -0.5 68 56" shape-rendering="crispEdges">
<metadata>Made with Pixels to Svg https://codepen.io/shshaw/pen/XbxvNj</metadata>
<path stroke="#000000" d="M30 21h1M29 22h1M31 22h1M28 23h1M31 23h1M28 24h1M32 24h1M27 25h1M32 25h1M27 26h1M26 27h1M34 27h1M25 28h1M34 28h1M25 29h1M35 29h1M24 30h1M35 30h1M43 30h1M24 31h1M36 31h1M42 31h1M44 31h1M23 32h1M36 32h1M42 32h1M45 32h1M23 33h1M37 33h1M42 33h1M45 33h1M24 34h1M37 34h1M43 34h1M46 34h1M24 35h1M38 35h1M43 35h1M47 35h1M23 36h1M38 36h1M40 36h1M43 36h1M22 37h1M37 37h1M39 37h1M41 37h1M44 37h1M48 37h1M21 38h1M39 38h1M41 38h1M49 38h1M38 39h1M42 39h1M48 39h1M23 40h3M49 40h1M49 41h1M29 42h1M48 42h1M28 43h1M48 43h1M27 44h1M49 44h1M47 45h2M29 46h1M41 46h1M46 46h1M30 47h1M40 47h1M47 47h1M31 48h1M40 48h1M46 48h1M31 49h1M41 49h1M46 49h1M39 50h1M41 50h1M45 50h1M29 51h1M38 51h1M42 51h3M30 52h2M37 52h1M34 53h3" />
<path stroke="#ffdf7b" d="M30 22h1M29 23h2M29 24h1M28 25h2M30 26h2M30 27h1M32 27h2M26 28h1M30 28h1M26 29h1M31 29h1M25 30h1M27 30h3M31 30h2M25 31h1M27 31h2M30 31h3M24 32h1M28 32h1M24 33h2M28 33h2M25 34h1M25 35h1M24 36h2M23 37h2M46 38h1M46 39h1M48 40h1M48 41h1M44 42h1M46 42h2M44 43h3M42 44h4M35 49h1M34 50h5M35 51h2" />
<path stroke="#ffdf7e" d="M30 24h2M30 25h2M28 26h2M28 27h2M28 28h2M32 28h2M28 29h2M32 29h2M26 32h2M30 32h2M26 33h2M30 33h2M26 34h2M26 35h2M44 40h2M44 41h2M42 42h2M42 43h2" />
<path stroke="#ac9352" d="M32 26h1" />
<path stroke="#080000" d="M33 26h1M28 41h1M39 49h1" />
<path stroke="#bd975a" d="M27 27h1" />
<path stroke="#c09857" d="M31 27h1M27 28h1M31 28h1M27 29h1M30 29h1M26 30h1M30 30h1M26 31h1M29 31h1M25 32h1M29 32h1" />
<path stroke="#ceb37b" d="M34 29h1M34 30h1M34 31h2M36 33h1M33 34h4M33 35h2M36 35h2M34 36h1M36 36h2M34 37h3M40 37h1M40 38h1M40 39h2M33 40h1M40 40h1M30 41h4M30 42h1M33 42h1M41 44h1M46 44h3M41 45h1M46 45h1M42 46h4" />
<path stroke="#cdb57b" d="M33 30h1M33 31h1M47 43h1M42 45h4" />
<path stroke="#7f94a0" d="M43 31h1M43 32h2M43 33h2M46 35h1M44 36h2M45 37h1M48 38h1M33 46h1" />
<path stroke="#ceb47b" d="M32 32h4M32 33h4M32 38h2M32 39h2M34 40h2M34 41h2" />
<path stroke="#f7bc7b" d="M28 34h2" />
<path stroke="#866f5a" d="M30 34h3M32 35h1M30 40h3M45 42h1M34 51h1M37 51h1" />
<path stroke="#8094a2" d="M44 34h2M44 35h2M36 42h4M36 43h4M34 44h4M34 45h4M34 46h2M34 47h2" />
<path stroke="#100000" d="M28 35h1M47 36h1" />
<path stroke="#01cbd5" d="M29 35h1" />
<path stroke="#ffffff" d="M30 35h2" />
<path stroke="#424142" d="M35 35h1M35 36h1M47 38h1M39 39h1M47 39h1M38 40h1M41 40h1M39 41h3M40 44h1M40 45h1M44 47h2M33 48h1M33 49h1" />
<path stroke="#637483" d="M26 36h2M24 38h1M27 39h2M30 44h3M30 45h2M30 46h2M31 47h1M44 48h2M45 49h1" />
<path stroke="#01c4cd" d="M28 36h2" />
<path stroke="#efffff" d="M30 36h1M32 52h1" />
<path stroke="#9ca29c" d="M31 36h1" />
<path stroke="#8094a3" d="M32 36h1M28 37h2" />
<path stroke="#846d5a" d="M33 36h1M32 37h2M40 46h1M36 52h1" />
<path stroke="#8598a3" d="M46 36h1M47 37h1" />
<path stroke="#647582" d="M25 37h1M29 43h1M46 47h1" />
<path stroke="#8397a5" d="M26 37h2M25 38h5M24 39h3M29 39h1M33 44h1M32 45h2M44 49h1" />
<path stroke="#6e746b" d="M30 37h2" />
<path stroke="#333739" d="M46 37h1" />
<path stroke="#a3b4b1" d="M22 38h1M23 39h1" />
<path stroke="#6c7878" d="M23 38h1" />
<path stroke="#9a7f55" d="M30 38h1M31 39h1" />
<path stroke="#929c93" d="M31 38h1" />
<path stroke="#cdb47b" d="M34 38h2M34 39h1" />
<path stroke="#675b46" d="M36 38h1" />
<path stroke="#000008" d="M37 38h1M44 38h1M44 39h1M43 40h1M42 47h1" />
<path stroke="#7f6e46" d="M45 38h1" />
<path stroke="#000410" d="M22 39h1" />
<path stroke="#9ab1b4" d="M30 39h1" />
<path stroke="#6b5d5a" d="M35 39h1" />
<path stroke="#ceb584" d="M36 39h2" />
<path stroke="#ffdc84" d="M45 39h1" />
<path stroke="#586772" d="M26 40h1" />
<path stroke="#859cac" d="M27 40h1" />
<path stroke="#a7b3a8" d="M28 40h1M29 41h1" />
<path stroke="#6f776f" d="M29 40h1" />
<path stroke="#d7bd84" d="M36 40h1M34 42h1" />
<path stroke="#636163" d="M37 40h1M36 41h1M35 42h1M34 43h1" />
<path stroke="#c8ae75" d="M39 40h1" />
<path stroke="#ffe084" d="M42 40h1M42 41h1" />
<path stroke="#817155" d="M46 40h1M46 41h1" />
<path stroke="#423c42" d="M47 40h1" />
<path stroke="#000400" d="M26 41h2" />
<path stroke="#8a9eac" d="M37 41h1M35 43h1" />
<path stroke="#a0b4c2" d="M38 41h1" />
<path stroke="#7f7046" d="M43 41h1" />
<path stroke="#ffda7b" d="M47 41h1" />
<path stroke="#62666b" d="M31 42h2M30 43h4" />
<path stroke="#889caa" d="M40 42h1" />
<path stroke="#394552" d="M41 42h1M40 43h1" />
<path stroke="#f7ffa5" d="M41 43h1" />
<path stroke="#8a9eae" d="M28 44h1" />
<path stroke="#5f6c75" d="M29 44h1" />
<path stroke="#7e91a2" d="M38 44h2M36 46h1M36 47h1" />
<path stroke="#100400" d="M28 45h1" />
<path stroke="#353a3d" d="M29 45h1" />
<path stroke="#5e6773" d="M38 45h1M37 46h1" />
<path stroke="#39384a" d="M39 45h1M37 47h1" />
<path stroke="#535774" d="M32 46h1M33 47h1" />
<path stroke="#425664" d="M38 46h1" />
<path stroke="#5f6261" d="M39 46h1" />
<path stroke="#69768a" d="M32 47h1" />
<path stroke="#697984" d="M38 47h2" />
<path stroke="#44412e" d="M43 47h1" />
<path stroke="#88775e" d="M32 48h1" />
<path stroke="#808782" d="M34 48h2M34 49h1" />
<path stroke="#9ca896" d="M36 48h1" />
<path stroke="#393c4a" d="M37 48h1" />
<path stroke="#647382" d="M38 48h2" />
<path stroke="#000408" d="M42 48h1M30 50h1M32 53h2" />
<path stroke="#576670" d="M43 48h1" />
<path stroke="#ceaf7b" d="M32 49h1" />
<path stroke="#6e746d" d="M36 49h1" />
<path stroke="#edf7a5" d="M37 49h1" />
<path stroke="#29474e" d="M38 49h1" />
<path stroke="#8297a6" d="M42 49h2" />
<path stroke="#bdc6bd" d="M31 50h1M30 51h1" />
<path stroke="#314552" d="M32 50h1M32 51h1" />
<path stroke="#fbf494" d="M33 50h1" />
<path stroke="#b5d7de" d="M42 50h1" />
<path stroke="#788f94" d="M43 50h1" />
<path stroke="#d6d3d6" d="M44 50h1" />
<path stroke="#808681" d="M31 51h1" />
<path stroke="#707970" d="M33 51h1" />
<path stroke="#778183" d="M33 52h1" />
<path stroke="#fffbef" d="M34 52h1" />
<path stroke="#7f7d77" d="M35 52h1" />
</svg>