<svg xmlns="http://www.w3.org/2000/svg" viewBox="0 -0.5 68 56" shape-rendering="crispEdges">
<metadata>Made with Pixels to Svg https://codepen.io/shshaw/pen/XbxvNj</metadata>
<path stroke="#000000" d="M17 11h2M16 12h1M18 12h1M15 13h1M17 13h1M14 14h1M14 15h1M29 15h2M43 15h1M15 16h1M28 16h1M31 16h1M42 16h1M15 17h1M27 17h1M29 17h1M32 17h1M42 17h1M14 18h1M27 18h2M30 18h1M32 18h1M43 18h1M14 19h1M29 19h1M31 19h1M43 19h1M13 20h1M27 20h2M32 20h2M41 20h2M13 21h1M26 21h1M40 21h1M13 22h1M26 22h1M40 22h1M14 23h1M26 23h1M40 23h1M15 24h1M23 24h1M25 24h1M39 24h1M15 25h1M24 25h1M39 25h1M15 26h1M38 26h1M16 27h1M38 27h1M17 28h1M38 28h1M18 29h1M38 29h1M16 30h2M26 30h1M37 30h1M15 31h1M27 31h1M37 31h1M14 32h1M17 32h1M27 32h1M35 32h2M14 33h1M16 33h1M18 33h1M28 33h1M33 33h2M15 34h1M29 34h1M32 34h1M17 35h1M30 35h2M16 36h1M25 36h1M15 37h1M24 37h1M49 37h3M14 38h1M18 38h2M23 38h1M27 38h1M45 38h1M47 38h1M14 39h1M16 39h2M19 39h1M22 39h1M27 39h1M46 39h1M15 40h1M18 40h1M21 40h1M27 40h1M18 41h1M20 41h1M27 41h1M19 42h1M28 42h1M29 43h1M37 43h1M33 44h1M36 44h1M32 45h1M36 45h1M30 46h1M32 46h1M35 46h1M37 46h1M28 47h2M31 47h1M35 47h1M37 47h1M26 48h2M31 48h1M34 48h1M37 48h1M25 49h1M27 49h1M30 49h1M33 49h1M36 49h1M25 50h2M28 50h1M30 50h1M32 50h1M36 50h1M29 51h1M32 51h1M36 51h1M33 52h1M35 52h1" />
<path stroke="#f2ba00" d="M17 12h1M16 13h1M15 14h1M15 15h1M15 18h1M15 19h1M14 20h2M14 21h2M14 22h4M15 23h3M16 24h2M16 25h2M26 32h1M26 33h2M26 34h3M26 35h4M44 38h1M44 39h2M34 42h2M34 43h2" />
<path stroke="#a23600" d="M20 12h1M47 12h1M19 13h1M21 13h1M46 13h1M18 14h1M49 14h1M48 15h1M47 16h1M51 16h2M21 17h1M50 17h1M53 17h1M38 18h1M49 18h1M39 19h1M23 20h1M36 20h1M39 20h1M23 21h1M38 21h1M51 21h1M23 22h1M37 22h1M51 22h1M22 23h1M35 23h2M50 23h1M30 24h1M49 24h1M29 25h1M31 25h1M33 25h1M49 25h1M29 26h1M48 26h1M51 26h1M53 26h1M49 27h2M53 27h1M29 28h1M53 28h1M25 29h1M28 29h1M52 29h1M47 30h2M51 30h1M46 31h1M49 31h2M47 32h1M47 34h1M46 35h1M41 38h1M39 39h1M50 39h2M34 40h2M40 40h2M49 40h1M44 41h2M49 41h1M38 42h1M43 42h1M39 43h1M42 43h1" />
<path stroke="#ffa617" d="M20 13h1M47 13h1M48 14h1M46 16h1M46 17h2M51 17h1M45 18h1M48 18h1M50 18h1M48 19h2M33 22h3M46 22h2M34 23h1M46 23h1M52 26h1M51 27h2M28 28h1M42 28h1M52 28h1M44 30h1M44 31h2M42 34h2M36 36h2M36 38h1M44 40h2M39 42h1" />
<path stroke="#9f3300" d="M48 13h1M45 14h1M22 15h1M45 15h1M22 16h1M48 17h1M20 18h1M52 18h1M20 19h1M22 19h1M37 19h1M52 19h1M52 20h1M34 21h2M34 24h1M52 25h1M32 26h1M30 27h1M26 28h2M48 33h1M52 38h1M46 42h3M40 44h2" />
<path stroke="#f6be00" d="M16 14h1M16 15h1M16 16h1M16 17h2M16 18h1M17 19h2M17 20h1M16 21h3M18 22h1M18 23h1M35 37h1M47 40h1" />
<path stroke="#fd6600" d="M17 14h1M19 14h1M17 15h3M17 16h1M52 17h1M22 20h1M49 20h3M22 21h1M30 21h1M49 21h2M22 22h1M28 22h2M50 22h1M29 23h1M19 24h1M28 24h2M31 24h3M48 24h1M18 25h1M27 25h2M32 25h1M44 25h1M47 25h2M23 26h1M28 26h1M21 27h3M25 27h1M28 27h2M48 27h1M22 28h2M45 28h1M46 30h1M49 30h2M37 35h3M38 38h3M50 38h2M38 39h1M40 39h2M46 40h1M48 40h1M46 41h3" />
<path stroke="#f77100" d="M20 14h1M21 21h1" />
<path stroke="#b23600" d="M21 14h1" />
<path stroke="#ffa416" d="M46 14h2M46 15h2M20 28h1" />
<path stroke="#ff9610" d="M20 15h1M20 21h1" />
<path stroke="#ffc22c" d="M21 15h1M20 20h1" />
<path stroke="#ff9f13" d="M18 16h2M43 33h2M44 34h1M44 35h2M40 42h1" />
<path stroke="#ffcd3a" d="M20 16h2M18 17h3M17 18h3M16 19h1M19 19h1M38 19h1M16 20h1M18 20h2M37 20h2M45 20h1M48 20h1M19 21h1M36 21h2M36 22h1M44 22h2M41 31h1M40 32h7M42 33h1M45 33h3M45 34h2M41 42h2M40 43h2" />
<path stroke="#ffde29" d="M29 16h2M43 16h1M28 17h1M30 17h2M43 17h1M31 18h1M44 18h1M30 19h1M44 19h2M29 20h1M43 20h2M27 21h3M32 21h2M41 21h5M27 22h1M41 22h3M27 23h1M41 23h5M40 24h4M20 25h2M25 25h1M40 25h4M19 26h1M39 26h3M18 27h2M39 27h3M18 28h2M39 28h3M43 28h1M19 29h1M39 29h5M19 30h1M21 30h1M38 30h4M16 31h3M20 31h2M38 31h3M15 32h2M18 32h2M24 32h2M38 32h2M15 33h1M19 33h1M24 33h2M38 33h4M40 34h1M30 36h3M30 37h4M36 37h2M30 38h4M30 39h4M30 40h2M30 41h2" />
<path stroke="#001408" d="M44 16h1M34 51h1" />
<path stroke="#ff9c13" d="M45 16h1M45 17h1" />
<path stroke="#935300" d="M44 17h1" />
<path stroke="#ffca1c" d="M46 18h1" />
<path stroke="#ffc42f" d="M47 18h1M46 19h1M39 41h1" />
<path stroke="#ff6800" d="M51 18h1M50 19h2M20 22h2M30 22h3M48 22h2M20 23h2M30 23h4M47 23h3M44 26h4M44 27h4M46 28h6M46 29h6M45 30h1M42 35h2M38 36h2M38 37h2M37 38h1M36 39h2" />
<path stroke="#fd9c00" d="M47 19h1" />
<path stroke="#b65700" d="M21 20h1" />
<path stroke="#ffdf2c" d="M30 20h2M31 21h1M28 23h1M26 24h2M44 24h4M26 25h1M45 25h2M20 26h3M24 26h3M42 26h1M20 27h1M24 27h1M44 28h1M44 29h2M36 34h4M36 35h1M29 37h1M32 40h2" />
<path stroke="#ffd23e" d="M46 20h2M46 21h2" />
<path stroke="#ff9c10" d="M48 21h1" />
<path stroke="#ff7e08" d="M19 22h1M19 23h1" />
<path stroke="#394041" d="M18 24h1M19 25h1" />
<path stroke="#312f2f" d="M20 24h2M18 26h1M18 30h1M20 30h1M19 31h1M35 34h1M34 35h1M23 36h1M33 36h1M20 37h3M21 38h1M20 39h1M36 48h1" />
<path stroke="#313334" d="M22 24h1M36 33h1" />
<path stroke="#ffda28" d="M22 25h2M37 32h1M37 33h1" />
<path stroke="#f4c100" d="M16 26h2M33 34h1M33 35h1M36 42h1M36 43h1" />
<path stroke="#ff8409" d="M27 26h1M43 26h1M26 27h2M42 27h2" />
<path stroke="#313331" d="M17 27h1M32 35h1M37 42h1" />
<path stroke="#705a4d" d="M21 28h1M20 29h1" />
<path stroke="#ff7103" d="M24 28h1M24 29h1" />
<path stroke="#ff920f" d="M25 28h1" />
<path stroke="#294839" d="M21 29h1" />
<path stroke="#a43a00" d="M22 29h2M26 31h1M24 36h1M29 42h2M30 43h3M32 44h1" />
<path stroke="#e64900" d="M22 30h2M22 31h2M18 36h2M18 37h2" />
<path stroke="#d24c00" d="M24 30h1" />
<path stroke="#de4e00" d="M25 30h1M24 31h1M24 34h1" />
<path stroke="#ffdd2c" d="M42 30h1M21 32h1M20 33h1M34 36h2M34 37h1M29 38h1M29 39h1" />
<path stroke="#ffae1a" d="M43 30h1M42 31h2" />
<path stroke="#5a615a" d="M25 31h1" />
<path stroke="#e64b00" d="M20 32h1M21 33h1M23 35h1M17 36h1M20 36h3M16 37h2M23 37h1M15 38h3M22 38h1M28 38h1M15 39h1M28 39h1M20 40h1M28 40h2M29 41h1M28 48h1M30 48h1M35 48h1M26 49h1M29 49h1M34 49h1M29 50h1M33 50h1M33 51h1" />
<path stroke="#d55100" d="M22 32h1M22 33h1M20 34h2" />
<path stroke="#8a4c46" d="M23 32h1M20 35h1" />
<path stroke="#29a4ac" d="M23 33h1M21 35h1" />
<path stroke="#efb700" d="M35 33h1M47 39h1" />
<path stroke="#003420" d="M18 34h1" />
<path stroke="#7e5425" d="M19 34h1M18 35h1" />
<path stroke="#8bcede" d="M22 34h2M22 35h1" />
<path stroke="#b24100" d="M25 34h1M25 35h1" />
<path stroke="#f6c600" d="M34 34h1" />
<path stroke="#ff7c08" d="M41 34h1M40 35h2" />
<path stroke="#ff6013" d="M19 35h1M20 38h1M21 39h1" />
<path stroke="#323227" d="M24 35h1M28 49h1" />
<path stroke="#ffde2f" d="M35 35h1" />
<path stroke="#634500" d="M26 36h2M34 44h2" />
<path stroke="#f5bf00" d="M28 36h2M28 37h1M32 41h4M40 41h2M31 42h3M33 43h1" />
<path stroke="#dc6000" d="M40 36h1M43 36h1M42 39h1" />
<path stroke="#bd5600" d="M41 36h2M40 37h1M43 37h1M42 38h1M43 39h1" />
<path stroke="#ff7503" d="M44 36h1" />
<path stroke="#913f00" d="M45 36h1" />
<path stroke="#002818" d="M26 37h1M34 45h1" />
<path stroke="#c34500" d="M27 37h1M35 45h1" />
<path stroke="#dbb300" d="M41 37h2M43 38h1" />
<path stroke="#100d00" d="M44 37h1" />
<path stroke="#684700" d="M34 38h1M43 40h1" />
<path stroke="#ff9b13" d="M35 38h1M34 39h1M42 41h2" />
<path stroke="#002c18" d="M48 38h1" />
<path stroke="#533727" d="M49 38h1M48 39h1" />
<path stroke="#a95f00" d="M35 39h1M42 40h1" />
<path stroke="#ff7005" d="M49 39h1" />
<path stroke="#9f3500" d="M19 40h1M31 46h1M36 46h1M30 47h1M36 47h1" />
<path stroke="#ff7301" d="M36 40h1" />
<path stroke="#aa2e00" d="M37 40h1M36 41h1" />
<path stroke="#913400" d="M38 40h2" />
<path stroke="#ee5100" d="M19 41h1" />
<path stroke="#a03600" d="M28 41h1" />
<path stroke="#403214" d="M37 41h1" />
<path stroke="#ff9203" d="M38 41h1" />
<path stroke="#000808" d="M30 44h1M30 45h1" />
<path stroke="#b74700" d="M31 44h1" />
<path stroke="#7b2d00" d="M31 45h1" />
<path stroke="#b73d00" d="M29 48h1" />
<path stroke="#993200" d="M35 49h1" />
<path stroke="#5a2000" d="M34 50h1" />
<path stroke="#ea4700" d="M35 50h1M35 51h1" />
</svg>