<svg xmlns="http://www.w3.org/2000/svg" viewBox="0 -0.5 68 56" shape-rendering="crispEdges">
<metadata>Made with Pixels to Svg https://codepen.io/shshaw/pen/XbxvNj</metadata>
<path stroke="#000000" d="M26 32h1M25 33h1M27 33h1M30 33h4M25 34h1M28 34h2M34 34h2M38 34h1M24 35h1M36 35h2M39 35h1M39 36h1M40 37h1M23 38h1M40 38h1M23 39h1M40 39h1M24 40h1M40 40h1M24 41h1M24 42h1M40 42h1M25 43h1M40 43h1M25 44h1M27 44h1M37 44h1M40 44h1M26 45h1M36 45h1M40 45h1M29 46h1M39 46h1M26 47h3M38 47h1M25 48h1M30 48h1M32 48h1M43 48h2M25 49h1M31 49h1M40 49h3M44 49h1M26 50h3M30 50h1M33 50h1M37 50h2M43 50h1M30 51h1M32 51h1M36 51h1M39 51h4M29 52h1M32 52h1M34 52h1M36 52h1M30 53h2M33 53h1M36 53h1M34 54h2" />
<path stroke="#01809f" d="M26 33h1M26 34h1M25 35h2M36 41h2M29 47h1M34 47h1" />
<path stroke="#424142" d="M27 34h1M27 35h1M26 36h1M37 36h1M37 37h1M36 38h1M32 39h1M36 39h1M33 40h1M35 40h1M33 41h1M35 41h1M25 42h1M32 42h1M38 42h1M30 43h2M36 43h2M34 44h2M32 45h2M34 46h2M35 47h1M32 50h1" />
<path stroke="#c7c6cf" d="M30 34h4M30 35h4M28 36h2M31 36h5M28 37h1M30 37h2M33 37h3M28 38h3M34 38h2M28 39h4M34 39h2" />
<path stroke="#c5c4cd" d="M28 35h2M34 35h2M27 36h1M36 36h1M26 37h2M36 37h1M26 38h2M32 38h2M27 39h1M33 39h1M34 40h1M34 41h1M39 42h1M39 43h1M43 49h1M42 50h1" />
<path stroke="#17add1" d="M38 35h1M38 36h1M38 37h2M39 38h1M39 39h1M39 40h1M38 41h1M33 42h1M36 42h2M32 43h2M36 46h1M37 47h1M28 48h2M35 48h1M37 48h1M36 49h2M36 50h1" />
<path stroke="#000800" d="M24 36h1M24 37h1" />
<path stroke="#0188a9" d="M25 36h1" />
<path stroke="#eeedf6" d="M30 36h1M29 37h1M32 37h1M31 38h1" />
<path stroke="#014859" d="M25 37h1" />
<path stroke="#39454a" d="M24 38h1M25 39h1M26 40h1M27 41h1" />
<path stroke="#bfbec7" d="M25 38h1M27 40h1" />
<path stroke="#de456b" d="M37 38h1M37 39h1" />
<path stroke="#0181a0" d="M38 38h1M38 39h1M32 46h2M32 47h2M36 48h1" />
<path stroke="#1ab0d4" d="M24 39h1M26 41h1" />
<path stroke="#aaa9b2" d="M26 39h1" />
<path stroke="#1bb1d5" d="M25 40h1" />
<path stroke="#787381" d="M28 40h1" />
<path stroke="#393442" d="M29 40h1M28 41h1" />
<path stroke="#733042" d="M30 40h2M30 41h1" />
<path stroke="#9c9ea0" d="M32 40h1" />
<path stroke="#de3641" d="M36 40h2" />
<path stroke="#017a98" d="M38 40h1M36 47h1M28 49h1" />
<path stroke="#017c9a" d="M25 41h1" />
<path stroke="#f7f3ff" d="M29 41h1" />
<path stroke="#ffffff" d="M31 41h1M30 42h2M31 44h1" />
<path stroke="#f7fbff" d="M32 41h1" />
<path stroke="#000400" d="M39 41h1M37 46h1M39 48h1M29 49h1" />
<path stroke="#14aace" d="M26 42h2" />
<path stroke="#0184a4" d="M28 42h1M35 42h1M26 49h1" />
<path stroke="#423c42" d="M29 42h1M34 42h1M27 48h1" />
<path stroke="#523c31" d="M26 43h1" />
<path stroke="#0193b7" d="M27 43h1" />
<path stroke="#15abcf" d="M28 43h2M34 43h2M33 44h1M35 45h1M26 48h1M27 49h1" />
<path stroke="#b5b4bd" d="M38 43h1" />
<path stroke="#abaab3" d="M26 44h1M36 44h1M39 50h1" />
<path stroke="#0185a6" d="M28 44h2M30 46h1M30 47h1" />
<path stroke="#ad3842" d="M30 44h1M30 45h2" />
<path stroke="#0187a7" d="M32 44h1M34 45h1" />
<path stroke="#9897a0" d="M38 44h1" />
<path stroke="#cbcad3" d="M39 44h1M39 45h1" />
<path stroke="#000c08" d="M28 45h1M31 47h1" />
<path stroke="#01495a" d="M29 45h1M31 46h1" />
<path stroke="#080408" d="M38 45h1" />
<path stroke="#904981" d="M33 48h1M32 49h2M30 52h2" />
<path stroke="#7a336b" d="M34 48h1M34 49h2" />
<path stroke="#3c3a52" d="M38 48h1M38 49h1" />
<path stroke="#b7b6bf" d="M39 49h1" />
<path stroke="#bd76ae" d="M31 50h1M31 51h1" />
<path stroke="#014d60" d="M34 50h1M35 51h1" />
<path stroke="#1db3d7" d="M35 50h1" />
<path stroke="#bbbac3" d="M40 50h2" />
<path stroke="#001808" d="M34 51h1" />
<path stroke="#8f4880" d="M35 52h1" />
<path stroke="#c17ab2" d="M34 53h2" />
</svg>