<svg xmlns="http://www.w3.org/2000/svg" viewBox="0 -0.5 68 56" shape-rendering="crispEdges">
<metadata>Made with Pixels to Svg https://codepen.io/shshaw/pen/XbxvNj</metadata>
<path stroke="#000000" d="M26 17h1M25 18h1M38 18h2M25 19h1M37 19h1M40 19h1M25 20h1M27 20h1M37 20h1M40 20h1M24 21h1M27 21h1M36 21h1M41 21h1M24 22h1M27 22h1M35 22h1M41 22h1M24 23h1M27 23h1M35 23h1M41 23h1M24 24h1M27 24h1M31 24h3M41 24h1M24 25h1M27 25h1M29 25h2M41 25h1M24 26h1M40 26h1M23 27h1M40 27h1M23 28h1M41 28h1M23 29h1M41 29h1M24 30h1M42 30h1M24 31h1M42 31h1M24 32h1M42 32h1M24 33h1M42 33h1M24 34h1M41 34h1M25 35h1M41 35h1M25 36h1M40 36h1M26 37h1M39 37h1M27 38h1M40 38h1M26 39h1M41 39h1M42 40h1M25 41h1M42 41h1M25 42h1M43 42h1M25 43h1M43 43h1M26 44h1M43 44h1M27 45h1M43 45h1M28 46h2M44 47h1M31 48h1M45 48h1M29 49h2M44 49h1M28 50h1M42 50h2M28 51h2M40 51h2M30 52h2M34 52h1M38 52h1M40 52h1M32 53h2M35 53h1M37 53h1M39 53h2M36 54h1" />
<path stroke="#f9f9aa" d="M26 18h1M35 25h1M30 36h1M31 37h1" />
<path stroke="#000400" d="M27 18h1M27 19h1" />
<path stroke="#a8a859" d="M26 19h1" />
<path stroke="#fcfcad" d="M38 19h1M25 30h1" />
<path stroke="#4a4634" d="M39 19h1M25 31h1" />
<path stroke="#fbfbac" d="M26 20h1M26 21h1M40 21h1M25 22h1M38 22h3M25 23h1M38 23h3M25 24h1M36 24h5M25 25h1M36 25h5M25 26h1M35 26h5M24 27h2M35 27h5M24 28h2M28 28h1M35 28h5M24 29h2M28 29h1M34 29h6M26 30h2M32 30h6M26 31h2M30 31h5M28 32h4M28 33h2M36 34h1M29 35h1M36 35h1M35 36h1M32 37h3M34 50h5M36 51h1" />
<path stroke="#fafaab" d="M38 20h1M38 21h1M36 22h1M36 23h2M28 30h1M28 31h2" />
<path stroke="#b8b869" d="M39 20h1M25 21h1M37 21h1M39 21h1M37 22h1M26 24h1M26 25h1M26 26h1M26 27h2M29 30h1M32 48h1M32 49h2M35 49h3" />
<path stroke="#fdfdae" d="M26 22h1M36 33h1" />
<path stroke="#acac5d" d="M26 23h1" />
<path stroke="#000008" d="M34 24h1M28 26h1" />
<path stroke="#4a4539" d="M35 24h1M34 25h1" />
<path stroke="#bebe4e" d="M31 25h1M29 40h2M31 41h1M32 44h1" />
<path stroke="#bdbe4e" d="M32 25h2M32 28h2M38 31h2" />
<path stroke="#424142" d="M27 26h1M34 26h1M34 27h1M27 28h1M29 28h1M34 28h1M27 29h1M29 29h1M32 29h2M30 30h2M38 30h2M35 31h3M32 32h4M27 33h1M30 33h2M33 33h1M35 33h1M27 34h3M26 35h1M28 35h1M37 38h2M36 39h1M40 39h1M36 40h1M39 40h1M38 41h1M27 42h1M35 42h1M38 42h1M27 43h1M35 43h1M38 43h1M28 44h1M36 44h1M39 44h1M29 45h1M36 45h1M39 45h1M40 46h2M32 47h1M38 47h2M33 48h6M40 48h2M31 49h1M34 49h1M38 49h1M41 49h1M33 50h1M32 51h1M37 51h1M35 52h1" />
<path stroke="#bbbc4c" d="M29 26h1M29 27h1M40 32h2M40 33h1M38 34h2M32 41h2M34 44h1" />
<path stroke="#bcbd4d" d="M30 26h4M30 27h4M30 28h2M30 29h2M40 30h2M40 31h2M38 32h2M38 33h2M31 42h1M30 43h2M30 44h2" />
<path stroke="#524139" d="M28 27h1" />
<path stroke="#bebe6f" d="M26 28h1" />
<path stroke="#424042" d="M40 28h1M40 29h1" />
<path stroke="#f6f6a7" d="M26 29h1" />
<path stroke="#adb2bd" d="M25 32h1M25 33h1" />
<path stroke="#422c39" d="M26 32h1" />
<path stroke="#f2f2a3" d="M27 32h1" />
<path stroke="#b7b768" d="M36 32h1" />
<path stroke="#7a790b" d="M37 32h1M37 33h1" />
<path stroke="#765f57" d="M26 33h1" />
<path stroke="#ffffff" d="M32 33h1M34 34h1M27 35h1M26 36h2M27 37h1" />
<path stroke="#b0b5c0" d="M34 33h1" />
<path stroke="#929023" d="M41 33h1M38 35h2M30 39h2M32 40h2M35 44h1M34 45h2" />
<path stroke="#565573" d="M25 34h1" />
<path stroke="#baada4" d="M26 34h1" />
<path stroke="#39344a" d="M30 34h1" />
<path stroke="#adaec6" d="M31 34h1" />
<path stroke="#ad3039" d="M32 34h1" />
<path stroke="#c8737b" d="M33 34h1" />
<path stroke="#555570" d="M35 34h1M34 35h2" />
<path stroke="#757607" d="M37 34h1M37 35h1" />
<path stroke="#919023" d="M40 34h1M40 35h1M38 36h2M37 37h2M32 39h2" />
<path stroke="#5f5c73" d="M30 35h2" />
<path stroke="#fffbff" d="M32 35h2" />
<path stroke="#ffffe6" d="M28 36h1" />
<path stroke="#4a4d52" d="M29 36h1M29 37h1" />
<path stroke="#6a6765" d="M31 36h1" />
<path stroke="#545673" d="M32 36h2" />
<path stroke="#60535d" d="M34 36h1" />
<path stroke="#757508" d="M36 36h2M36 37h1M32 38h2" />
<path stroke="#d6d687" d="M28 37h1" />
<path stroke="#31344a" d="M30 37h1" />
<path stroke="#74770c" d="M35 37h1" />
<path stroke="#686463" d="M28 38h1" />
<path stroke="#d8d889" d="M29 38h1" />
<path stroke="#443f3e" d="M30 38h1" />
<path stroke="#72720a" d="M31 38h1" />
<path stroke="#939225" d="M34 38h2M34 39h2M32 46h2M33 47h1" />
<path stroke="#949225" d="M36 38h1" />
<path stroke="#a44d00" d="M39 38h1M38 39h2M37 40h2M36 41h2M39 41h1M26 42h1M39 42h1M26 43h1M39 43h1M37 44h2M37 45h2M38 46h2M40 47h2" />
<path stroke="#a65000" d="M27 39h1M42 42h1M42 43h1M27 44h1" />
<path stroke="#394142" d="M28 39h2" />
<path stroke="#a34c00" d="M37 39h1" />
<path stroke="#000408" d="M26 40h1M43 46h1M30 47h1" />
<path stroke="#a54f00" d="M27 40h1M40 40h2M26 41h1M40 41h2M36 42h2M40 42h2M36 43h2M40 43h2M40 44h2M40 45h2" />
<path stroke="#4f433f" d="M28 40h1" />
<path stroke="#909022" d="M31 40h1" />
<path stroke="#9b9c2d" d="M34 40h1" />
<path stroke="#bdbd4c" d="M35 40h1M34 41h1M28 43h1M29 44h1" />
<path stroke="#713500" d="M27 41h1" />
<path stroke="#773b01" d="M28 41h2" />
<path stroke="#7a3d01" d="M30 41h1M34 42h1" />
<path stroke="#423c42" d="M35 41h1" />
<path stroke="#9e6516" d="M28 42h1M29 43h1" />
<path stroke="#703801" d="M29 42h1" />
<path stroke="#9c6314" d="M30 42h1M32 43h1M34 43h1M34 47h1M36 47h1" />
<path stroke="#793c01" d="M32 42h2M33 43h1M34 46h2M35 47h1" />
<path stroke="#9c6415" d="M33 44h1" />
<path stroke="#a75100" d="M42 44h1M28 45h1" />
<path stroke="#7c3e01" d="M30 45h2" />
<path stroke="#908f21" d="M32 45h2" />
<path stroke="#733600" d="M42 45h1" />
<path stroke="#793800" d="M30 46h1M31 47h1M42 47h2" />
<path stroke="#ac5500" d="M31 46h1M42 46h1" />
<path stroke="#743a01" d="M36 46h1" />
<path stroke="#4a4142" d="M37 46h1M39 50h1M35 51h1" />
<path stroke="#939124" d="M37 47h1" />
<path stroke="#8a4000" d="M39 48h1M42 48h3M39 49h2M42 49h2M40 50h2" />
<path stroke="#a9a95a" d="M29 50h1" />
<path stroke="#444036" d="M30 50h1" />
<path stroke="#919142" d="M31 50h1M31 51h1" />
<path stroke="#b0b061" d="M32 50h1M33 51h1" />
<path stroke="#d9d98a" d="M30 51h1" />
<path stroke="#a7a758" d="M34 51h1M38 51h2" />
<path stroke="#524944" d="M32 52h1" />
<path stroke="#fffff7" d="M33 52h1M39 52h1" />
<path stroke="#b2b263" d="M36 52h1" />
<path stroke="#52473f" d="M37 52h1" />
<path stroke="#ffffd4" d="M36 53h1" />
</svg>