<svg xmlns="http://www.w3.org/2000/svg" viewBox="0 -0.5 68 56" shape-rendering="crispEdges">
<metadata>Made with Pixels to Svg https://codepen.io/shshaw/pen/XbxvNj</metadata>
<path stroke="#000400" d="M33 19h5M30 20h2M38 20h3M28 21h2M41 21h2M27 22h1M43 22h1M25 23h2M44 23h1M24 24h1M24 25h1M46 25h1M46 26h1M20 27h2M23 27h1M47 27h1M19 28h1M20 29h1M21 30h2M23 31h1M46 32h1M44 33h2M24 34h1M41 34h3M23 35h1M25 35h1M40 35h1M22 36h1M24 36h1M39 36h1M42 36h1M22 37h1M26 37h2M40 37h2M43 37h1M21 38h1M25 38h1M28 38h3M36 38h1M38 38h2M43 38h1M21 39h1M23 39h1M25 39h1M31 39h1M40 39h1M44 39h1M22 40h1M24 40h1M28 40h1M36 40h1M41 40h1M45 40h1M27 41h1M29 41h1M31 41h1M36 41h1M38 41h1M41 41h1M43 41h1M45 41h1M27 42h1M37 42h1M39 42h1M42 42h1M44 42h1M28 43h1M39 43h1M27 44h1M33 44h2M36 44h1M40 44h1M27 45h1M32 45h1M35 45h1M41 45h1M28 46h1M31 46h1M35 46h1M29 47h1M31 47h1M29 48h1M31 48h1M37 48h1M41 48h1M30 49h1M37 49h1M40 49h1M38 50h1M40 50h1M39 51h1" />
<path stroke="#000808" d="M32 20h1M47 28h1M47 29h1M37 37h1M35 39h1M32 40h1M30 42h1" />
<path stroke="#8a6fe4" d="M33 20h1M32 21h1" />
<path stroke="#6053a0" d="M34 20h2M32 22h1M31 23h1M43 27h1M44 28h1M45 29h1M38 34h3" />
<path stroke="#906ee4" d="M36 20h2M40 21h1M34 22h1M41 22h2M27 23h3M34 23h2M40 23h4M27 24h3M34 24h2M27 25h2M35 25h1M27 26h3M35 26h7M27 27h2M30 27h1M34 27h3M27 28h1M34 28h2" />
<path stroke="#3e4f9c" d="M30 21h2" />
<path stroke="#5e4d98" d="M33 21h1" />
<path stroke="#906fe4" d="M34 21h2M30 22h2M33 22h1M30 23h1M32 23h2M32 24h1M42 26h2M42 27h1M45 28h1M44 29h1" />
<path stroke="#364087" d="M36 21h2M35 22h1M40 22h1M36 23h4M30 24h2M29 25h1M37 27h1M40 27h2M42 28h1M42 29h1M41 31h1M38 32h3" />
<path stroke="#35408a" d="M38 21h2" />
<path stroke="#414c9b" d="M28 22h2" />
<path stroke="#404d9e" d="M36 22h4M30 25h2M40 30h2M38 31h3" />
<path stroke="#ab6470" d="M25 24h1M25 25h1M25 26h1M25 27h1M20 28h2M21 29h1M23 30h1M29 46h2M30 47h1M30 48h1" />
<path stroke="#424142" d="M26 24h1M26 25h1M34 25h1M26 26h1M32 26h1M34 26h1M26 27h1M29 27h1M33 27h1M24 28h1M26 28h1M28 28h1M30 28h1M33 28h1M36 28h2M39 28h1M24 29h1M26 29h2M29 29h2M32 29h4M40 29h1M26 30h1M29 30h1M32 30h1M38 30h2M26 31h1M29 31h1M34 31h2M26 32h1M28 32h1M32 32h2M35 32h1M26 33h1M28 33h2M33 33h1M36 34h2M37 35h1M34 36h1M30 37h2M32 39h2M35 40h1M33 42h1M32 43h1M29 44h1M28 45h1M30 45h1M38 45h2" />
<path stroke="#48374c" d="M33 24h1M32 25h1" />
<path stroke="#8e6fe4" d="M36 24h8M36 25h8" />
<path stroke="#8571dc" d="M44 24h1M44 25h1" />
<path stroke="#001021" d="M45 24h1" />
<path stroke="#d76272" d="M33 25h1M33 26h1M32 27h1M31 28h2M38 28h1M31 29h1M36 29h4M33 30h4M32 31h2M29 32h1M38 48h1M40 48h1M38 49h1M39 50h1" />
<path stroke="#413e6e" d="M45 25h1" />
<path stroke="#000810" d="M24 26h1" />
<path stroke="#394373" d="M30 26h2M31 27h1" />
<path stroke="#8c6de4" d="M44 26h1M44 27h1" />
<path stroke="#363a87" d="M45 26h1" />
<path stroke="#3a2a2b" d="M24 27h1" />
<path stroke="#3b3f6a" d="M38 27h2M37 32h1M36 33h1" />
<path stroke="#655faf" d="M45 27h1" />
<path stroke="#353f8c" d="M46 27h1" />
<path stroke="#070112" d="M22 28h1" />
<path stroke="#6053a3" d="M23 28h1M44 30h2M44 31h2M42 32h2M42 33h2" />
<path stroke="#b05c67" d="M25 28h1M25 29h1" />
<path stroke="#7e748c" d="M29 28h1M28 29h1" />
<path stroke="#3a4aa3" d="M40 28h1M41 29h1" />
<path stroke="#3c4682" d="M41 28h1" />
<path stroke="#8866dc" d="M43 28h1" />
<path stroke="#543461" d="M46 28h1" />
<path stroke="#d15c56" d="M22 29h1" />
<path stroke="#4f2b23" d="M23 29h1" />
<path stroke="#645da8" d="M43 29h1" />
<path stroke="#784d93" d="M46 29h1" />
<path stroke="#aa626e" d="M24 30h2M24 31h2" />
<path stroke="#53515a" d="M27 30h2M27 32h1M39 44h1" />
<path stroke="#d4616e" d="M30 30h2M30 31h2M30 32h1" />
<path stroke="#3d475f" d="M37 30h1M36 31h2" />
<path stroke="#373b7d" d="M42 30h1" />
<path stroke="#875fdc" d="M43 30h1" />
<path stroke="#6b5da0" d="M46 30h1" />
<path stroke="#000800" d="M47 30h1M47 31h1" />
<path stroke="#7a768d" d="M27 31h2M27 33h1M42 37h1M42 38h1M43 39h1M42 40h3M42 41h1M44 41h1M38 42h1M38 43h1M37 44h2M36 45h2" />
<path stroke="#6659a9" d="M42 31h2" />
<path stroke="#4c416a" d="M46 31h1" />
<path stroke="#000000" d="M24 32h1M24 33h1" />
<path stroke="#525352" d="M25 32h1" />
<path stroke="#453537" d="M31 32h1M30 33h1" />
<path stroke="#f5f0f0" d="M34 32h1M34 33h2" />
<path stroke="#5f52a4" d="M36 32h1M37 33h1" />
<path stroke="#6153a3" d="M41 32h1M38 33h4" />
<path stroke="#6252a3" d="M44 32h2" />
<path stroke="#f6fcf6" d="M25 33h1" />
<path stroke="#f5d2d0" d="M31 33h1" />
<path stroke="#a0f8da" d="M32 33h1M25 34h1" />
<path stroke="#f9f3ff" d="M26 34h1" />
<path stroke="#45357f" d="M27 34h1" />
<path stroke="#524488" d="M28 34h1M29 35h1" />
<path stroke="#f7f5ff" d="M29 34h1" />
<path stroke="#9cf6d6" d="M30 34h1M31 35h1" />
<path stroke="#ffffff" d="M31 34h1M30 35h1" />
<path stroke="#aedec6" d="M32 34h1M33 35h1" />
<path stroke="#504c75" d="M33 34h1M32 35h1" />
<path stroke="#fff7fa" d="M34 34h1" />
<path stroke="#c2b9bc" d="M35 34h1M34 35h1" />
<path stroke="#8376a9" d="M26 35h2" />
<path stroke="#877faf" d="M28 35h1" />
<path stroke="#4a434a" d="M35 35h1" />
<path stroke="#534d5e" d="M36 35h1M35 36h1M34 37h2M32 38h2M34 40h1M34 41h2M30 44h2M31 45h1" />
<path stroke="#414541" d="M38 35h1" />
<path stroke="#4e4860" d="M39 35h1" />
<path stroke="#504c5e" d="M23 36h1M25 36h1M38 36h1M23 37h3M38 37h2M22 38h3M31 38h1M22 39h1M24 39h1M28 41h1M28 42h2M29 43h1M40 45h1" />
<path stroke="#42403f" d="M26 36h1" />
<path stroke="#c7bdbb" d="M27 36h1M29 36h1M32 36h1M28 37h2" />
<path stroke="#6254a4" d="M28 36h1M30 36h2M32 42h1M33 43h1M28 44h1M29 45h1" />
<path stroke="#45434c" d="M33 36h1M32 37h2" />
<path stroke="#383842" d="M36 36h1M34 39h1M32 41h1M31 43h1" />
<path stroke="#525163" d="M37 36h1M36 37h1M34 38h2M33 40h1M33 41h1M31 42h1M30 43h1" />
<path stroke="#504a58" d="M40 38h2M36 42h1M37 43h1" />
<path stroke="#777085" d="M41 39h1M36 43h1" />
<path stroke="#534f5d" d="M42 39h1" />
<path stroke="#3d384a" d="M34 42h1" />
<path stroke="#726897" d="M35 42h1M34 43h1" />
<path stroke="#000c08" d="M35 43h1M41 46h1M41 47h1" />
<path stroke="#423f42" d="M32 44h1" />
<path stroke="#675d90" d="M36 46h1" />
<path stroke="#3a3747" d="M37 46h1" />
<path stroke="#9468d3" d="M38 46h2" />
<path stroke="#382b4c" d="M40 46h1" />
<path stroke="#001818" d="M36 47h1" />
<path stroke="#9481db" d="M37 47h1" />
<path stroke="#5444bd" d="M38 47h1" />
<path stroke="#f5575c" d="M39 47h1" />
<path stroke="#9474e4" d="M40 47h1" />
<path stroke="#b25c65" d="M39 48h1M39 49h1" />
</svg>