<svg xmlns="http://www.w3.org/2000/svg" viewBox="0 -0.5 68 56" shape-rendering="crispEdges">
<metadata>Made with Pixels to Svg https://codepen.io/shshaw/pen/XbxvNj</metadata>
<path stroke="#000000" d="M33 36h1M33 37h1M32 38h1M34 38h1M32 39h1M34 39h1M37 39h2M27 40h2M31 40h1M34 40h1M36 40h1M38 40h1M27 41h1M29 41h1M31 41h1M34 41h1M36 41h1M38 41h1M24 42h2M30 42h1M35 42h1M37 42h1M39 42h2M24 43h1M26 43h2M38 43h1M40 43h1M25 44h1M26 45h1M40 45h2M26 46h1M42 46h1M25 47h1M40 47h2M26 48h1M39 48h1M26 49h1M39 49h1M26 50h1M37 50h2M40 50h1M27 51h1M36 51h1M39 51h2M29 52h6" />
<path stroke="#8c797b" d="M33 38h1M33 39h1M28 41h1M39 43h1M39 50h1" />
<path stroke="#8b7b7b" d="M32 40h2" />
<path stroke="#635d63" d="M37 40h1M41 46h1" />
<path stroke="#505753" d="M32 41h2M31 42h1M30 43h1M34 43h2M29 44h1M37 44h1M28 45h1M36 45h2M36 46h2M36 47h1M29 48h3M36 48h2M31 49h1M37 49h2" />
<path stroke="#423e42" d="M37 41h1M40 46h1" />
<path stroke="#000410" d="M28 42h1M39 44h1" />
<path stroke="#8c7984" d="M29 42h1M26 44h1M38 44h1" />
<path stroke="#515854" d="M32 42h2M32 43h2M30 44h6M30 45h6M28 46h8M28 47h8" />
<path stroke="#343b37" d="M34 42h1M31 43h1M38 48h1M31 51h1" />
<path stroke="#363d39" d="M36 42h1M37 43h1" />
<path stroke="#6b6363" d="M25 43h1" />
<path stroke="#2c332f" d="M28 43h1M39 45h1" />
<path stroke="#535a56" d="M29 43h1" />
<path stroke="#545b57" d="M36 43h1" />
<path stroke="#3d4440" d="M27 44h1M27 45h1" />
<path stroke="#373e3a" d="M28 44h1M36 44h1M29 45h1M37 47h1M36 49h1M36 50h1" />
<path stroke="#5d525d" d="M38 45h1" />
<path stroke="#565d59" d="M27 46h1M26 47h2" />
<path stroke="#383f3b" d="M38 46h2M38 47h2" />
<path stroke="#aa512c" d="M27 48h1" />
<path stroke="#ff7542" d="M28 48h1M28 49h3M27 50h1" />
<path stroke="#464d49" d="M32 48h1M32 49h1" />
<path stroke="#ffd75a" d="M33 48h1" />
<path stroke="#f7d352" d="M34 48h1" />
<path stroke="#444b47" d="M35 48h1M35 49h1" />
<path stroke="#ff7a42" d="M27 49h1" />
<path stroke="#000031" d="M33 49h1" />
<path stroke="#000029" d="M34 49h1" />
<path stroke="#ac542c" d="M28 50h1M29 51h1" />
<path stroke="#ff7e42" d="M29 50h1" />
<path stroke="#ff6b31" d="M30 50h1" />
<path stroke="#bd5836" d="M31 50h1M30 51h1" />
<path stroke="#3f4642" d="M32 50h1M32 51h2" />
<path stroke="#ffd742" d="M33 50h1" />
<path stroke="#f7cf52" d="M34 50h1" />
<path stroke="#434a46" d="M35 50h1M34 51h1" />
<path stroke="#080400" d="M28 51h1" />
<path stroke="#000021" d="M35 51h1" />
</svg>