<svg xmlns="http://www.w3.org/2000/svg" viewBox="0 -0.5 68 56" shape-rendering="crispEdges">
<metadata>Made with Pixels to Svg https://codepen.io/shshaw/pen/XbxvNj</metadata>
<path stroke="#000000" d="M40 17h4M39 18h1M44 18h1M38 19h1M45 19h1M36 20h2M25 21h2M29 21h2M35 21h1M46 21h2M24 22h1M27 22h2M35 22h1M48 22h1M24 23h1M32 23h1M35 23h1M48 23h1M20 24h2M23 24h1M32 24h1M51 24h1M20 25h1M22 25h1M33 25h1M35 25h1M50 25h1M52 25h1M21 26h1M51 26h1M53 26h1M55 26h1M20 27h1M50 27h1M52 27h1M54 27h1M56 27h1M50 28h1M53 28h1M56 28h1M19 29h1M52 29h1M57 29h1M17 30h1M48 30h1M53 30h2M56 30h1M17 31h1M54 31h1M56 31h1M48 32h1M55 32h1M49 33h1M17 34h1M46 34h4M17 35h1M17 36h1M19 36h1M45 36h1M19 37h1M46 37h1M19 38h1M21 38h1M46 38h1M20 39h1M22 39h1M46 39h1M23 40h1M37 40h1M39 40h1M41 40h1M46 40h1M24 41h1M29 41h2M36 41h1M38 41h1M40 41h1M47 41h1M24 42h1M28 42h1M31 42h1M37 42h1M43 42h1M24 43h1M28 43h1M37 43h1M43 43h1M23 44h1M28 44h1M32 44h1M37 44h1M48 44h1M23 45h1M27 45h1M32 45h1M37 45h1M48 45h1M27 46h1M31 46h1M36 46h1M41 46h1M47 46h2M21 47h1M27 47h1M30 47h1M36 47h1M41 47h1M46 47h2M20 48h1M27 48h1M30 48h1M36 48h1M42 48h4M21 49h6M29 49h1M36 49h1M29 50h1M35 50h1M30 51h5" />
<path stroke="#ffd345" d="M40 18h3M40 19h4M40 20h2M40 21h2M36 22h2M37 23h1M40 26h2M44 26h2M48 26h2M40 27h1M44 27h2M48 27h1" />
<path stroke="#c3821d" d="M43 18h1M44 19h1M36 23h1M41 27h1M49 27h1M49 28h1M48 29h1" />
<path stroke="#ffd443" d="M39 19h1M46 22h1M46 23h2M42 26h1M38 27h2M43 27h1M36 28h2M40 28h4M44 29h2" />
<path stroke="#414041" d="M38 20h1M38 21h1M38 22h1M44 22h1M39 23h1M43 23h2M24 24h3M42 24h1M47 24h1M23 25h1M26 25h2M46 25h1M24 26h1M27 26h1M50 26h1M22 27h2M27 28h1M35 28h1M22 29h1M25 29h2M35 29h1M20 30h2M36 31h4M44 31h2M27 32h2M42 32h2M46 32h1M29 33h1M33 33h1M44 33h1M20 34h1M27 34h2M19 35h1M21 35h1M25 35h2M18 36h1M21 36h2M25 36h1M21 37h3M25 37h1M24 38h1M40 38h1M24 39h1M40 39h1M36 40h1M21 48h1M26 48h1" />
<path stroke="#ffcf4a" d="M39 20h1M42 20h1M42 21h1M45 23h1M46 24h1" />
<path stroke="#644d09" d="M43 20h1" />
<path stroke="#c68e1b" d="M44 20h1M46 30h1" />
<path stroke="#000800" d="M45 20h1M47 31h1" />
<path stroke="#bc811c" d="M36 21h1" />
<path stroke="#ffd348" d="M37 21h1" />
<path stroke="#bc8516" d="M39 21h1M45 22h1M47 25h1" />
<path stroke="#be861a" d="M43 21h1" />
<path stroke="#68490b" d="M44 21h2M47 30h1M46 31h1" />
<path stroke="#c5c2cd" d="M25 22h2M25 23h2M27 24h1M32 32h2M32 33h1M29 34h3M29 35h1M30 36h1M26 37h5M25 38h1M25 39h1M26 40h2M30 40h1M27 41h1M27 42h1" />
<path stroke="#ffffff" d="M29 22h2M28 23h2M30 24h2M32 25h1M32 26h2M32 27h2M30 28h5M30 29h5M30 30h4M24 31h1M30 31h3M30 32h1M20 37h1M20 38h1M31 38h1M31 39h2M32 40h1M32 41h1M42 46h1M44 46h1M43 47h1M45 47h1M34 50h1" />
<path stroke="#080808" d="M31 22h1" />
<path stroke="#c78320" d="M39 22h1M42 22h2M38 23h1M42 23h1M43 24h1M42 25h2M36 30h4M44 30h2" />
<path stroke="#c5821f" d="M40 22h2M40 23h2M38 24h2M38 25h2M36 26h2M38 29h2M40 30h4M40 31h4" />
<path stroke="#6b5a36" d="M47 22h1M38 26h2M44 28h2M40 29h4" />
<path stroke="#414044" d="M27 23h1M31 40h1M31 41h1" />
<path stroke="#acacac" d="M30 23h2" />
<path stroke="#fffaff" d="M28 24h1M31 27h1M23 38h1M23 39h1M30 50h1M32 50h1" />
<path stroke="#807c80" d="M29 24h1M30 26h1" />
<path stroke="#000408" d="M36 24h1" />
<path stroke="#695533" d="M37 24h1M36 25h1" />
<path stroke="#394041" d="M40 24h2" />
<path stroke="#414244" d="M44 24h1M45 25h1" />
<path stroke="#936712" d="M45 24h1" />
<path stroke="#593f09" d="M48 24h1" />
<path stroke="#000400" d="M49 24h1M49 29h1" />
<path stroke="#777577" d="M21 25h1M21 27h1" />
<path stroke="#757575" d="M24 25h2M25 26h2M24 27h4M22 28h4M23 29h2M43 46h1M45 46h1M42 47h1M44 47h1" />
<path stroke="#413c41" d="M28 25h2M31 26h1M30 27h1M34 32h1" />
<path stroke="#393c39" d="M30 25h1" />
<path stroke="#7b7d7b" d="M31 25h1M31 48h1M31 49h1" />
<path stroke="#ca9222" d="M37 25h1" />
<path stroke="#716034" d="M40 25h1" />
<path stroke="#ffd041" d="M41 25h1M47 26h1" />
<path stroke="#c58322" d="M44 25h1" />
<path stroke="#ffca2e" d="M48 25h1" />
<path stroke="#ae7b19" d="M49 25h1" />
<path stroke="#b6b6b6" d="M51 25h1M52 26h1M53 27h1M54 28h1M54 29h3M55 30h1M18 31h1M55 31h1M44 32h2M47 32h1M45 33h4" />
<path stroke="#a9afa9" d="M22 26h1" />
<path stroke="#757875" d="M23 26h1" />
<path stroke="#757675" d="M28 26h2M28 27h2" />
<path stroke="#081008" d="M34 26h1" />
<path stroke="#c98c22" d="M35 26h1" />
<path stroke="#c6831f" d="M43 26h1M42 27h1M36 29h2" />
<path stroke="#393c4a" d="M46 26h1" />
<path stroke="#362f3c" d="M34 27h1" />
<path stroke="#6c5835" d="M35 27h1" />
<path stroke="#6e5c37" d="M36 27h2M38 28h2" />
<path stroke="#976e13" d="M46 27h2" />
<path stroke="#e1e1e1" d="M55 27h1M55 28h1M53 29h1M23 33h1M18 34h2M24 34h2M18 35h1M24 35h1M23 36h2M24 37h1" />
<path stroke="#080200" d="M20 28h1M18 33h1M22 46h1" />
<path stroke="#3f3b38" d="M21 28h1" />
<path stroke="#737573" d="M26 28h1M27 39h1" />
<path stroke="#414052" d="M28 28h2" />
<path stroke="#ffc54f" d="M46 28h1" />
<path stroke="#684c0a" d="M47 28h1" />
<path stroke="#64420b" d="M48 28h1" />
<path stroke="#acb2ac" d="M20 29h1" />
<path stroke="#767873" d="M21 29h1" />
<path stroke="#525252" d="M27 29h1" />
<path stroke="#ffa04a" d="M28 29h1" />
<path stroke="#84644b" d="M29 29h1" />
<path stroke="#c0851d" d="M46 29h2" />
<path stroke="#080000" d="M18 30h1M32 43h1" />
<path stroke="#3c3f3f" d="M19 30h1M19 31h1" />
<path stroke="#767673" d="M22 30h2" />
<path stroke="#83404a" d="M24 30h2M25 31h1" />
<path stroke="#fff8ee" d="M26 30h1M26 31h1" />
<path stroke="#7a4419" d="M27 30h1" />
<path stroke="#d7bb9a" d="M28 30h1M33 48h1" />
<path stroke="#7d6e60" d="M29 30h1M28 31h1M32 48h1M33 49h1" />
<path stroke="#cdc6cd" d="M34 30h1" />
<path stroke="#414441" d="M35 30h1M35 31h1" />
<path stroke="#616161" d="M20 31h1" />
<path stroke="#717171" d="M21 31h1" />
<path stroke="#767676" d="M22 31h1" />
<path stroke="#53483f" d="M23 31h1M36 36h2M40 36h1M43 36h1M37 37h1M43 37h1M38 38h1M34 39h1M34 40h1M34 41h1M45 42h1" />
<path stroke="#bd9e82" d="M27 31h1" />
<path stroke="#ffe2bd" d="M29 31h1M32 49h1" />
<path stroke="#c8c3d0" d="M33 31h1M31 32h1M30 33h2M30 38h1M30 39h1" />
<path stroke="#706f70" d="M34 31h1" />
<path stroke="#040404" d="M18 32h1" />
<path stroke="#a1a1a1" d="M19 32h1" />
<path stroke="#707070" d="M20 32h2" />
<path stroke="#797979" d="M22 32h1" />
<path stroke="#4a4341" d="M23 32h1M22 33h1M35 34h1M34 45h1" />
<path stroke="#8b404a" d="M24 32h1" />
<path stroke="#f2f2f2" d="M25 32h2M27 33h1" />
<path stroke="#f0f0f0" d="M29 32h1M19 33h1M28 33h1" />
<path stroke="#ca7836" d="M35 32h1" />
<path stroke="#c66f46" d="M36 32h4M37 33h3M45 41h1M24 44h2M46 44h2M24 45h2M46 45h2M24 46h2M24 47h2" />
<path stroke="#3f403f" d="M40 32h2" />
<path stroke="#dfdfdf" d="M20 33h1" />
<path stroke="#413439" d="M21 33h1" />
<path stroke="#bfbfbf" d="M24 33h2M20 36h1" />
<path stroke="#b7b7b7" d="M26 33h1" />
<path stroke="#ff9841" d="M34 33h2M34 34h1M34 35h1M34 44h2M44 44h1M45 45h1" />
<path stroke="#ff9c41" d="M36 33h1M42 33h2M36 34h2M44 34h1M37 35h1M44 35h1M39 36h1M41 36h2M44 36h1M36 37h1M38 37h5M44 37h2M34 38h2M41 38h2M35 39h1M41 39h3M35 40h1M42 40h4M35 41h1M44 41h1M33 44h1M33 45h1M34 46h1M31 47h1M34 47h2M34 48h2M35 49h1" />
<path stroke="#c76c40" d="M40 33h1" />
<path stroke="#83563f" d="M41 33h1" />
<path stroke="#d3d3d3" d="M21 34h1M26 34h1M20 35h1M27 35h1" />
<path stroke="#e3e3e3" d="M22 34h2M22 35h2" />
<path stroke="#756d70" d="M32 34h1" />
<path stroke="#c37b4b" d="M33 34h1M32 35h1" />
<path stroke="#896039" d="M38 34h1" />
<path stroke="#4b4440" d="M39 34h1M38 35h1" />
<path stroke="#ff9330" d="M40 34h1M45 38h1M34 43h1" />
<path stroke="#4a3d38" d="M41 34h1M45 39h1M35 43h1" />
<path stroke="#ff9b3e" d="M42 34h2M42 35h2M32 36h4M32 37h4M32 46h2M32 47h2" />
<path stroke="#58381b" d="M45 34h1M43 41h1" />
<path stroke="#c4c4c4" d="M28 35h1" />
<path stroke="#737675" d="M30 35h2M26 36h4" />
<path stroke="#ff9039" d="M33 35h1" />
<path stroke="#8c5d3b" d="M35 35h1M35 45h1" />
<path stroke="#814d30" d="M36 35h1M38 36h1M43 38h1M35 46h1" />
<path stroke="#ff9830" d="M39 35h1" />
<path stroke="#895632" d="M40 35h2M44 38h1M44 39h1M34 42h2" />
<path stroke="#000010" d="M45 35h1M42 41h1M42 44h1M42 45h1" />
<path stroke="#c67149" d="M31 36h1M31 37h1M33 40h1M38 40h1M40 40h1M33 41h1M46 41h1M25 42h1M25 43h1M26 44h2M26 45h1M26 46h1M46 46h1M26 47h1M24 48h2" />
<path stroke="#545354" d="M22 38h1" />
<path stroke="#c5c3d0" d="M26 38h2M26 39h1" />
<path stroke="#c8c2d0" d="M28 38h2M28 39h2" />
<path stroke="#e17a3e" d="M32 38h2M33 39h1" />
<path stroke="#ffae62" d="M36 38h2" />
<path stroke="#c86c42" d="M39 38h1M38 39h2M44 42h1M44 43h2" />
<path stroke="#414462" d="M36 39h1" />
<path stroke="#c7905a" d="M37 39h1" />
<path stroke="#bb6d4a" d="M24 40h2M25 41h1" />
<path stroke="#7e7c83" d="M28 40h2" />
<path stroke="#a66d58" d="M26 41h1" />
<path stroke="#bdbac5" d="M28 41h1" />
<path stroke="#b36c4f" d="M26 42h1M26 43h2" />
<path stroke="#ffe1c5" d="M32 42h1" />
<path stroke="#af947f" d="M33 42h1M33 43h1" />
<path stroke="#ff9b4a" d="M36 42h1M36 45h1" />
<path stroke="#613d2d" d="M46 42h1" />
<path stroke="#000008" d="M47 42h1M47 43h1" />
<path stroke="#864d1d" d="M36 43h1M36 44h1" />
<path stroke="#c57652" d="M46 43h1" />
<path stroke="#ffaa62" d="M43 44h1" />
<path stroke="#c28152" d="M45 44h1" />
<path stroke="#855833" d="M43 45h1" />
<path stroke="#756e73" d="M44 45h1" />
<path stroke="#927f76" d="M23 46h1M23 47h1" />
<path stroke="#d7bdb1" d="M22 47h1" />
<path stroke="#bdbec5" d="M22 48h1" />
<path stroke="#7e7e83" d="M23 48h1" />
<path stroke="#f6faf6" d="M30 49h1" />
<path stroke="#757578" d="M34 49h1" />
<path stroke="#7f7d7f" d="M31 50h1M33 50h1" />
</svg>