<svg xmlns="http://www.w3.org/2000/svg" viewBox="0 -0.5 68 56" shape-rendering="crispEdges">
<metadata>Made with Pixels to Svg https://codepen.io/shshaw/pen/XbxvNj</metadata>
<path stroke="#030400" d="M32 21h1M27 22h1M31 22h1M33 22h1M26 23h1M28 23h1M30 23h1M34 23h1M38 23h2M26 24h1M29 24h1M34 24h1M36 24h2M40 24h1M26 25h1M35 25h1M40 25h1M24 26h2M41 26h1M23 27h1M42 27h2M23 28h1M44 28h1M22 29h1M44 29h1M21 30h1M22 31h1M44 31h2M22 32h1M46 32h1M21 33h1M46 33h1M20 34h1M21 35h1M46 35h2M22 36h1M48 36h1M23 37h1M47 37h1M22 38h1M46 38h1M22 39h1M47 39h1M21 40h1M46 40h1M19 41h2M47 41h1M18 42h1M26 42h2M48 42h1M17 43h1M28 43h1M49 43h1M25 44h1M41 44h1M43 44h1M50 44h1M24 45h1M27 45h1M40 45h1M50 45h1M16 46h1M24 46h1M43 46h1M51 46h1M16 47h1M27 47h1M43 47h1M51 47h1M17 48h1M20 48h1M22 48h1M27 48h1M34 48h2M42 48h1M44 48h1M51 48h1M18 49h2M21 49h2M26 49h1M33 49h1M44 49h1M51 49h1M25 50h1M33 50h1M37 50h1M43 50h1M45 50h1M51 50h1M26 51h2M31 51h2M37 51h1M44 51h1M46 51h1M50 51h1M28 52h3M37 52h1M44 52h1M47 52h2M38 53h2" />
<path stroke="#c6d014" d="M32 22h1M32 23h2M36 25h2M40 26h1M40 27h2M19 42h1M18 43h2" />
<path stroke="#929600" d="M27 23h1M23 29h1M22 30h4M23 31h1M23 32h1M22 33h2M21 34h2M22 35h1M23 36h1M45 36h3M32 37h2M45 37h2M34 38h1M34 39h1M46 39h1M24 44h1M38 45h2M36 46h1M38 46h2M36 47h2" />
<path stroke="#c9d21c" d="M31 23h1M34 25h1" />
<path stroke="#9f9802" d="M27 24h1M25 27h1M50 47h1" />
<path stroke="#cbd601" d="M28 24h1M29 25h1" />
<path stroke="#c7d110" d="M30 24h1M32 24h2M38 24h2M30 25h1M32 25h2M39 25h1M30 26h7M38 26h2M31 27h3M36 27h4M30 28h6M37 28h1M41 28h3M30 29h1M33 29h4M38 29h2M41 29h3M41 30h1M40 31h1M40 32h2M40 33h2M20 42h1M20 43h2M44 46h4M44 47h1M46 47h1" />
<path stroke="#949600" d="M31 24h1M31 25h1M38 25h1M37 26h1M30 27h1M34 27h2M36 28h1M38 28h3M31 29h2M37 29h1M40 29h1M30 30h1M32 30h2M40 30h1M31 31h2M41 31h1M37 36h1M37 37h1M21 42h1M45 47h1M47 47h1" />
<path stroke="#cfda01" d="M27 25h1M24 27h1M42 30h1M50 46h1" />
<path stroke="#9a9305" d="M28 25h1" />
<path stroke="#ced902" d="M26 26h1M42 33h1M25 36h1" />
<path stroke="#35483c" d="M27 26h1M26 27h1M42 32h1M24 36h1M24 37h1" />
<path stroke="#424142" d="M28 26h1M29 27h1M26 28h1M24 29h1M26 29h1M29 29h1M29 30h1M24 31h2M29 31h1M36 31h3M24 32h2M27 32h1M29 32h1M35 32h1M39 32h1M24 33h1M26 33h2M30 33h1M32 33h5M39 33h1M43 33h1M23 34h1M25 34h1M30 34h2M38 34h1M43 34h1M23 35h1M31 35h1M37 35h1M44 35h1M32 36h2M35 36h1M44 36h1M34 37h1M39 37h1M44 37h1M25 38h1M35 38h1M38 38h1M25 39h1M35 39h1M25 40h1M40 40h1M26 41h1M30 41h2M40 41h3M38 42h2M30 43h2M37 43h1M39 43h1M47 43h1M32 44h2M36 44h1M38 44h2M46 44h1M49 44h1M37 45h1M37 46h1M33 47h1M38 47h2M30 49h2M39 51h1" />
<path stroke="#c8d213" d="M29 26h1M28 27h1M24 28h2M27 28h3M25 29h1M27 29h2M28 30h1M36 30h4M28 31h1M39 31h1M28 32h1M28 33h2M24 34h1M39 34h1M24 35h2M30 35h1M38 35h2M38 36h2M38 37h1M47 44h2M46 45h4" />
<path stroke="#84801f" d="M27 27h1M43 32h1M25 37h1" />
<path stroke="#626323" d="M26 30h1M27 31h1" />
<path stroke="#7b7e52" d="M27 30h1" />
<path stroke="#dec3a3" d="M31 30h1M30 31h1M33 31h1M26 32h1M30 32h5M31 33h1M35 41h1M38 41h1M31 42h3M36 42h2M33 43h1M36 43h1M20 46h1M45 48h1M49 48h1M45 49h1M48 49h1M40 51h1" />
<path stroke="#9d9e00" d="M34 30h1M35 31h1M49 46h1" />
<path stroke="#b3ab35" d="M35 30h1" />
<path stroke="#000408" d="M43 30h1" />
<path stroke="#d6d4a3" d="M26 31h1" />
<path stroke="#d6cba3" d="M34 31h1M49 47h1" />
<path stroke="#9e9a00" d="M42 31h2" />
<path stroke="#524e44" d="M36 32h3M25 33h1M37 33h2M36 34h2M36 35h1" />
<path stroke="#939700" d="M44 32h2M44 33h2M40 42h2M40 43h2M22 44h2M22 45h2" />
<path stroke="#4a4542" d="M26 34h1M35 34h1M26 35h2M34 35h2" />
<path stroke="#ffffff" d="M27 34h1M34 34h1M32 35h2" />
<path stroke="#456325" d="M28 34h1M29 35h1" />
<path stroke="#78694f" d="M29 34h1" />
<path stroke="#de5531" d="M32 34h2" />
<path stroke="#8b8e00" d="M40 34h2" />
<path stroke="#98585d" d="M42 34h1M42 35h2M34 36h1M36 36h1M35 37h2M36 38h2M39 38h1M43 38h1M38 39h2M42 39h2M41 40h5M43 41h1M45 41h1M45 42h3M44 43h3M39 48h1M38 49h2M38 50h2M38 51h1" />
<path stroke="#9a9e00" d="M44 34h1M45 35h1" />
<path stroke="#080400" d="M45 34h1M28 46h1" />
<path stroke="#f79a5a" d="M28 35h1" />
<path stroke="#637a2d" d="M40 35h1" />
<path stroke="#925257" d="M41 35h1" />
<path stroke="#837330" d="M26 36h1M26 37h1" />
<path stroke="#bd6b44" d="M27 36h1" />
<path stroke="#4a3439" d="M28 36h1" />
<path stroke="#a45b45" d="M29 36h1" />
<path stroke="#696820" d="M30 36h2M31 37h1" />
<path stroke="#4a4142" d="M40 36h1M45 38h1M45 39h1M21 46h1" />
<path stroke="#dbc5a3" d="M41 36h1M43 36h1M41 37h3M42 38h1M44 38h1M36 40h2M36 41h2M34 42h2M34 43h2" />
<path stroke="#9a5a5f" d="M42 36h1" />
<path stroke="#f76d42" d="M27 37h1" />
<path stroke="#ff8252" d="M28 37h2M28 38h2" />
<path stroke="#ff8a52" d="M30 37h1M30 38h2" />
<path stroke="#96565b" d="M40 37h1M44 39h1" />
<path stroke="#bd7d82" d="M23 38h1" />
<path stroke="#7d3d42" d="M24 38h1M24 39h1M36 39h2M24 40h1M24 41h2M44 41h1M44 42h1M38 43h1M32 45h2M32 46h2M32 47h1M30 48h2M38 48h1" />
<path stroke="#524d52" d="M26 38h1M27 39h1" />
<path stroke="#ff966b" d="M27 38h1" />
<path stroke="#4e523b" d="M32 38h1M33 39h1" />
<path stroke="#495b26" d="M33 38h1M32 40h1M34 40h2M33 41h2" />
<path stroke="#99595e" d="M40 38h2M40 39h2M40 48h2M40 49h2" />
<path stroke="#76363b" d="M23 39h1" />
<path stroke="#a8715e" d="M26 39h1" />
<path stroke="#af6047" d="M28 39h1" />
<path stroke="#5f3e3c" d="M29 39h1" />
<path stroke="#5f4b47" d="M30 39h2" />
<path stroke="#ad3c29" d="M32 39h1" />
<path stroke="#7c3c41" d="M22 40h2M22 41h2" />
<path stroke="#ac968c" d="M26 40h2M27 41h1" />
<path stroke="#4a3c39" d="M28 40h1M29 41h1" />
<path stroke="#916255" d="M29 40h1" />
<path stroke="#b5492c" d="M30 40h2" />
<path stroke="#747655" d="M33 40h1" />
<path stroke="#63454a" d="M38 40h1" />
<path stroke="#9d5d62" d="M39 40h1M39 41h1" />
<path stroke="#424042" d="M21 41h1M46 41h1M48 43h1M40 44h1M27 49h1M42 49h1M32 50h1" />
<path stroke="#a9968b" d="M28 41h1M28 42h2" />
<path stroke="#cecba3" d="M32 41h1" />
<path stroke="#494b43" d="M22 42h1M23 43h1M31 46h1M34 46h1M30 47h1M35 47h1" />
<path stroke="#723237" d="M23 42h1" />
<path stroke="#804045" d="M24 42h2M37 48h1M37 49h1" />
<path stroke="#af9a84" d="M30 42h1" />
<path stroke="#929119" d="M42 42h1" />
<path stroke="#5f6014" d="M43 42h1M43 43h1" />
<path stroke="#8f9200" d="M22 43h1M30 46h1M35 46h1M46 48h1" />
<path stroke="#423639" d="M24 43h1M36 48h1" />
<path stroke="#000808" d="M25 43h1M36 49h1" />
<path stroke="#733338" d="M29 43h1" />
<path stroke="#ac958c" d="M32 43h1" />
<path stroke="#080008" d="M42 43h1M16 44h1" />
<path stroke="#bdc617" d="M17 44h1" />
<path stroke="#8e9100" d="M18 44h1M19 45h1" />
<path stroke="#8e9948" d="M19 44h1" />
<path stroke="#d0db01" d="M20 44h1" />
<path stroke="#94920a" d="M21 44h1M21 45h1" />
<path stroke="#111800" d="M28 44h1" />
<path stroke="#a8a676" d="M29 44h1" />
<path stroke="#b5757a" d="M30 44h1" />
<path stroke="#814146" d="M31 44h1M31 45h1" />
<path stroke="#423c42" d="M34 44h2M28 48h2" />
<path stroke="#b9797e" d="M37 44h1M36 45h1" />
<path stroke="#898d53" d="M44 44h1M45 45h1" />
<path stroke="#434630" d="M45 44h1" />
<path stroke="#646018" d="M17 45h1" />
<path stroke="#d6cfa3" d="M18 45h1" />
<path stroke="#3d5b1d" d="M20 45h1" />
<path stroke="#626936" d="M28 45h2" />
<path stroke="#423839" d="M30 45h1" />
<path stroke="#605455" d="M34 45h1" />
<path stroke="#b7777c" d="M35 45h1" />
<path stroke="#080408" d="M44 45h1" />
<path stroke="#d6bba3" d="M17 46h1M18 48h1" />
<path stroke="#916f6d" d="M18 46h1" />
<path stroke="#dbc4a3" d="M19 46h1M18 47h2" />
<path stroke="#4c4f40" d="M22 46h2" />
<path stroke="#717036" d="M29 46h1M28 47h1" />
<path stroke="#423836" d="M40 46h1" />
<path stroke="#070800" d="M41 46h1M41 47h1" />
<path stroke="#b1b91b" d="M48 46h1M48 47h1" />
<path stroke="#917d6c" d="M17 47h1M19 48h1" />
<path stroke="#827066" d="M20 47h1" />
<path stroke="#b29a84" d="M21 47h1" />
<path stroke="#a39f91" d="M22 47h1" />
<path stroke="#0a0c00" d="M23 47h1" />
<path stroke="#404829" d="M29 47h1" />
<path stroke="#5a3c42" d="M31 47h1M34 47h1" />
<path stroke="#834348" d="M40 47h1" />
<path stroke="#ac9891" d="M21 48h1M50 50h1" />
<path stroke="#7b3b40" d="M32 48h2M32 49h1" />
<path stroke="#debfa3" d="M47 48h1M47 49h1" />
<path stroke="#638b0e" d="M48 48h1" />
<path stroke="#af968b" d="M50 48h1M50 49h1M28 50h1M30 50h2M29 51h2" />
<path stroke="#6a5c5d" d="M28 49h1" />
<path stroke="#ac9387" d="M29 49h1" />
<path stroke="#a6a687" d="M46 49h1" />
<path stroke="#8f8a4e" d="M49 49h1" />
<path stroke="#b59891" d="M26 50h1" />
<path stroke="#5a4e49" d="M27 50h1" />
<path stroke="#6a514e" d="M29 50h1M28 51h1" />
<path stroke="#4a4341" d="M40 50h2M41 51h1" />
<path stroke="#736163" d="M42 50h1" />
<path stroke="#978472" d="M46 50h1M47 51h1" />
<path stroke="#dec3ac" d="M47 50h1" />
<path stroke="#d6b6a3" d="M48 50h1" />
<path stroke="#91796c" d="M49 50h1M48 51h1" />
<path stroke="#4c4242" d="M42 51h2" />
<path stroke="#000000" d="M49 51h1M40 53h4" />
<path stroke="#443f34" d="M38 52h1" />
<path stroke="#dec7ac" d="M39 52h1" />
<path stroke="#6d6051" d="M40 52h1M42 52h1" />
<path stroke="#d6bfa3" d="M41 52h1M43 52h1" />
</svg>