<svg xmlns="http://www.w3.org/2000/svg" viewBox="0 -0.5 68 56" shape-rendering="crispEdges">
<metadata>Made with Pixels to Svg https://codepen.io/shshaw/pen/XbxvNj</metadata>
<path stroke="#000000" d="M26 28h4M32 28h1M24 29h2M33 29h2M22 30h2M36 30h1M21 31h1M37 31h1M38 32h1M19 33h1M39 33h3M19 34h1M42 34h1M18 35h1M43 35h1M18 36h1M44 36h1M17 37h1M44 37h1M17 38h1M17 39h1M19 39h1M21 39h2M46 39h1M17 40h1M47 40h1M17 41h1M47 41h1M17 42h1M48 42h1M17 43h1M49 43h1M17 44h1M50 44h1M18 45h1M51 45h1M18 46h1M48 46h3M19 47h1M45 47h1M20 48h1M42 48h3M21 49h1M40 49h2M22 50h2M35 50h4M24 51h2M32 51h3M26 52h6" />
<path stroke="#000400" d="M30 28h2" />
<path stroke="#76816e" d="M26 29h4M26 30h3M26 31h1" />
<path stroke="#7d8875" d="M30 29h1" />
<path stroke="#525d4a" d="M31 29h1" />
<path stroke="#5a6552" d="M32 29h1M29 30h4M27 31h6M27 32h6M22 33h2M28 33h3M21 34h2M29 34h3M30 35h3M30 36h4M31 37h3M38 37h2M32 38h2M37 38h4M32 39h1M36 39h5M35 40h6M35 41h6M32 42h1M36 42h4M31 43h3M37 43h2M30 44h5M28 45h8M25 46h14M27 47h11M29 48h7" />
<path stroke="#75806d" d="M24 30h2" />
<path stroke="#2d3131" d="M33 30h2M33 31h2M26 32h1M33 32h2M20 33h2M26 33h2M31 33h4M32 34h2M40 34h2M33 35h1M38 35h2M41 35h2M38 36h2M36 38h1M33 39h1M45 39h1M34 40h1M34 41h1M33 42h1M46 42h1M36 43h1M39 43h1M46 43h1M35 44h1M38 44h2M38 45h1M41 48h1" />
<path stroke="#000408" d="M35 30h1M20 32h1M45 38h1M46 47h2" />
<path stroke="#404444" d="M22 31h4M22 32h2" />
<path stroke="#837973" d="M35 31h1M21 32h1M44 38h1M44 39h1" />
<path stroke="#807670" d="M36 31h1M35 32h1M35 33h1M38 33h1M38 34h1M24 36h2M27 36h1M43 36h1M23 37h1M26 37h2M43 37h1M24 38h2M28 39h2" />
<path stroke="#2e3232" d="M24 32h2M24 33h2M34 34h2M34 35h2M34 36h4M34 37h4M34 38h2M34 39h2M32 40h2M32 41h2M34 42h2M34 43h2M36 44h2M40 44h2M36 45h2M41 45h1" />
<path stroke="#817771" d="M36 32h2M36 33h2M36 34h2M36 35h2" />
<path stroke="#424139" d="M20 34h1M44 44h1M45 45h1" />
<path stroke="#414b3b" d="M23 34h3M22 35h2M20 36h2M20 37h1M18 44h2M19 45h3M24 46h1M24 47h3M30 49h6" />
<path stroke="#232727" d="M26 34h2M19 35h1M21 46h3M21 47h2M27 48h1M26 49h2M26 50h5M34 50h1M29 51h3" />
<path stroke="#45403d" d="M28 34h1M28 35h2" />
<path stroke="#2f3333" d="M39 34h1" />
<path stroke="#474d3f" d="M20 35h2" />
<path stroke="#424142" d="M24 35h2M40 35h1M40 36h1M21 37h1M40 37h1M31 38h1M31 39h1M19 40h1M21 40h2M24 40h1M44 40h2M18 41h1M45 41h1M23 42h2M40 42h1M45 42h1M47 42h1M22 43h1M25 43h1M40 43h1M44 43h1M47 43h1M20 44h2M39 45h1" />
<path stroke="#414141" d="M26 35h2" />
<path stroke="#42473c" d="M19 36h1M19 37h1" />
<path stroke="#47453c" d="M22 36h2M22 37h1" />
<path stroke="#e7dfce" d="M26 36h1M41 36h1M24 37h2M41 37h1M19 38h1M21 38h2M28 38h2M18 39h1M20 39h1M23 39h1M42 39h1M18 40h1M20 40h1M23 40h1M25 40h1M42 40h1M19 41h7M42 41h1M44 41h1M19 42h1M44 42h1M45 43h1M45 44h1" />
<path stroke="#5a4d42" d="M28 36h2" />
<path stroke="#473d3c" d="M42 36h1M42 37h1" />
<path stroke="#313026" d="M18 37h1" />
<path stroke="#e7dfc6" d="M28 37h1M22 42h1M25 42h1M41 42h1" />
<path stroke="#b8ae9a" d="M29 37h1" />
<path stroke="#414242" d="M30 37h1M41 38h1M41 39h1M41 40h1M41 41h1M28 44h2" />
<path stroke="#494a46" d="M18 38h1M20 38h1" />
<path stroke="#4d4a44" d="M23 38h1" />
<path stroke="#e7dece" d="M26 38h2M26 39h2M42 42h2M42 43h2" />
<path stroke="#665c56" d="M30 38h1M30 39h1M42 46h1M45 46h1M44 47h1M24 50h2M26 51h3" />
<path stroke="#303434" d="M42 38h2M43 39h1M43 40h1M43 41h1" />
<path stroke="#524131" d="M24 39h1" />
<path stroke="#efdfc6" d="M25 39h1" />
<path stroke="#867c76" d="M26 40h2" />
<path stroke="#875739" d="M28 40h2" />
<path stroke="#735d38" d="M30 40h1" />
<path stroke="#4a3c42" d="M31 40h1M31 41h1" />
<path stroke="#827872" d="M46 40h1M46 41h1" />
<path stroke="#b54952" d="M26 41h1" />
<path stroke="#f1ec20" d="M27 41h1" />
<path stroke="#632b62" d="M28 41h1" />
<path stroke="#e0ab2d" d="M29 41h1" />
<path stroke="#e7c422" d="M30 41h1" />
<path stroke="#4a4542" d="M18 42h1M18 43h2" />
<path stroke="#414241" d="M20 42h2M26 44h1M47 44h1M22 45h6M46 45h1" />
<path stroke="#cedfc6" d="M26 42h1" />
<path stroke="#bd4942" d="M27 42h1" />
<path stroke="#f1df20" d="M28 42h2" />
<path stroke="#c6554a" d="M30 42h1" />
<path stroke="#424d42" d="M31 42h1M30 43h1" />
<path stroke="#b5ae94" d="M20 43h2M48 43h1M22 44h4M27 44h1M42 44h2M46 44h1M48 44h1M40 45h1M47 45h1M49 45h2M47 46h1M38 48h1M37 49h1" />
<path stroke="#b0aa9a" d="M23 43h2M41 43h1" />
<path stroke="#c8ad9a" d="M26 43h2" />
<path stroke="#c6494a" d="M28 43h2" />
<path stroke="#41423c" d="M49 44h1M42 45h2M48 45h1" />
<path stroke="#b0aa9c" d="M44 45h1" />
<path stroke="#424d3d" d="M19 46h1M21 48h1" />
<path stroke="#404a3a" d="M20 46h1M20 47h1M23 47h1M26 48h1M31 50h1" />
<path stroke="#41403d" d="M39 46h1M43 46h1M38 47h2M42 47h2" />
<path stroke="#b5aa8c" d="M40 46h1" />
<path stroke="#4a3c31" d="M41 46h1M40 47h1" />
<path stroke="#4c3b2c" d="M44 46h1" />
<path stroke="#3c3c36" d="M46 46h1" />
<path stroke="#6a605a" d="M41 47h1" />
<path stroke="#242727" d="M22 48h4M22 49h4" />
<path stroke="#424739" d="M28 48h1M29 49h1" />
<path stroke="#47473c" d="M36 48h2M36 49h1" />
<path stroke="#413c36" d="M39 48h1M38 49h1" />
<path stroke="#675d57" d="M40 48h1" />
<path stroke="#393431" d="M28 49h1" />
<path stroke="#080408" d="M39 49h1" />
<path stroke="#474d3d" d="M32 50h1" />
<path stroke="#363326" d="M33 50h1" />
</svg>