<svg xmlns="http://www.w3.org/2000/svg" viewBox="0 -0.5 68 56" shape-rendering="crispEdges">
<metadata>Made with Pixels to Svg https://codepen.io/shshaw/pen/XbxvNj</metadata>
<path stroke="#000000" d="M24 18h1M16 19h2M23 19h1M25 19h1M16 20h1M18 20h1M23 20h1M16 21h1M19 21h1M23 21h1M26 21h1M17 22h1M19 22h1M23 22h1M26 22h1M17 23h1M20 23h1M22 23h1M26 23h1M17 24h1M20 24h1M26 24h1M17 25h1M21 25h1M27 25h3M17 26h1M18 27h2M32 27h1M20 28h1M21 29h1M21 30h1M34 30h1M21 31h1M35 31h1M20 32h1M20 33h1M43 33h1M46 33h1M20 34h1M34 34h1M45 34h1M21 35h1M35 35h1M44 35h1M47 35h1M50 35h1M21 36h1M25 36h1M41 36h1M44 36h1M49 36h1M22 37h1M24 37h1M26 37h1M40 37h1M45 37h1M48 37h1M23 38h1M25 38h1M37 38h3M48 38h1M36 39h1M25 40h1M47 40h1M24 41h1M46 41h1M25 42h1M44 42h1M24 43h1M44 43h1M24 44h1M45 44h1M24 45h1M45 45h1M25 46h1M40 46h1M45 46h1M25 47h1M41 47h1M44 47h1M24 48h1M27 48h2M37 48h1M42 48h1M44 48h1M24 49h3M29 49h4M36 49h1M42 49h2M33 50h1M36 50h1M33 51h1M33 52h2" />
<path stroke="#f62e2b" d="M24 19h1M24 22h2M23 23h1M22 26h2M24 28h2M27 28h2M31 28h1M24 29h1M26 29h3M22 30h1M25 30h1M30 30h3M22 31h3M31 31h1M33 31h2M21 32h3M32 32h2M21 33h3M32 33h1M32 34h2M34 35h1M32 38h2M40 39h2M33 40h1M32 41h2M37 41h1M38 42h1M41 42h1M43 42h1M38 43h1M40 43h2M43 43h1M32 44h3M42 44h1M32 45h4" />
<path stroke="#a63533" d="M17 20h1M17 21h1M18 22h1M18 23h2M18 26h2M38 39h2" />
<path stroke="#d54341" d="M24 20h1M25 21h1M25 24h1M24 25h1" />
<path stroke="#180600" d="M25 20h1M25 25h1" />
<path stroke="#4cb496" d="M18 21h1M46 40h1M25 41h1" />
<path stroke="#3dbfad" d="M24 21h1M24 24h1" />
<path stroke="#7ed4c8" d="M24 23h2M22 27h2M30 28h1M31 29h1M33 33h1M40 42h1M35 44h1" />
<path stroke="#a93530" d="M18 24h1M19 25h1" />
<path stroke="#4bb19d" d="M19 24h1M18 25h1" />
<path stroke="#080800" d="M22 24h1" />
<path stroke="#77d2f0" d="M23 24h1" />
<path stroke="#a73831" d="M20 25h1M21 28h1M21 34h1M44 34h1M41 37h1M37 39h1M41 46h1M44 46h1M26 48h1" />
<path stroke="#2d3f54" d="M22 25h1" />
<path stroke="#528fa2" d="M23 25h1" />
<path stroke="#54b3bc" d="M20 26h1" />
<path stroke="#081000" d="M21 26h1" />
<path stroke="#4f717b" d="M24 26h1M31 33h1M31 34h1" />
<path stroke="#4e3f35" d="M25 26h1M25 27h1M31 32h1M30 33h1M30 34h1M31 35h1" />
<path stroke="#001010" d="M26 26h1M35 38h1" />
<path stroke="#4e1d1f" d="M27 26h1" />
<path stroke="#a63733" d="M28 26h2M39 44h1M39 45h1M35 46h1M34 47h1" />
<path stroke="#080200" d="M30 26h2M33 28h1M33 29h1M35 32h1M44 32h2M35 33h1M42 34h1M48 34h2M42 35h1M35 36h1M35 37h1" />
<path stroke="#3d7680" d="M20 27h1" />
<path stroke="#263c43" d="M21 27h1" />
<path stroke="#78d3dd" d="M24 27h1M30 32h1M30 35h1M33 37h1M41 40h1M39 41h1" />
<path stroke="#f53830" d="M26 27h2M26 30h2" />
<path stroke="#4c3f3d" d="M28 27h1M38 45h1M35 47h1" />
<path stroke="#ff322b" d="M29 27h1M43 39h1M33 42h1M36 44h1M38 44h1M34 46h1" />
<path stroke="#4e93a8" d="M30 27h1M32 29h1M34 33h1M49 35h1M34 37h1" />
<path stroke="#76daf9" d="M31 27h1M32 28h1M34 32h1M48 35h1M34 36h1" />
<path stroke="#404141" d="M22 28h1M26 28h1M29 28h1M23 29h1M25 29h1M29 29h1M23 30h1M33 30h1M32 31h1M28 32h2M28 33h1M29 35h1M32 35h2M30 36h2M31 37h1M44 37h1M40 38h2M43 38h1M42 39h1M26 40h1M32 40h1M26 41h1M31 41h1M32 43h2M31 44h1M37 44h1M41 44h1M31 45h1M37 45h1M41 45h1M26 47h1M32 48h2M36 48h1M33 49h1" />
<path stroke="#a73231" d="M23 28h1M22 29h1M30 31h1M36 40h2M36 41h1M39 42h1M42 42h1M39 43h1M42 43h1M40 44h1M43 44h1M40 45h1M42 45h2" />
<path stroke="#bb7586" d="M30 29h1" />
<path stroke="#444247" d="M24 30h1M33 39h1" />
<path stroke="#394441" d="M28 30h1M29 31h1M32 46h1M33 47h1" />
<path stroke="#eb3732" d="M29 30h1M33 46h1" />
<path stroke="#9f3736" d="M25 31h1M32 39h1" />
<path stroke="#7a484c" d="M26 31h1" />
<path stroke="#415052" d="M27 31h1" />
<path stroke="#724140" d="M28 31h1M32 47h1" />
<path stroke="#955357" d="M24 32h1" />
<path stroke="#755256" d="M25 32h1M24 33h1" />
<path stroke="#3d542e" d="M26 32h1" />
<path stroke="#8cff4a" d="M27 32h1" />
<path stroke="#394c4a" d="M25 33h1" />
<path stroke="#001420" d="M26 33h1" />
<path stroke="#63a93c" d="M27 33h1" />
<path stroke="#5b7369" d="M29 33h1M28 34h2M28 35h1M22 36h3M23 37h1M27 40h5M27 41h4M26 42h4M25 43h5M28 44h3M28 45h3M43 48h1" />
<path stroke="#54a8bc" d="M44 33h1M43 35h1" />
<path stroke="#387181" d="M45 33h1" />
<path stroke="#f33636" d="M22 34h1" />
<path stroke="#41484a" d="M23 34h1M22 35h1" />
<path stroke="#344c62" d="M24 34h1" />
<path stroke="#63f239" d="M25 34h1" />
<path stroke="#89c378" d="M26 34h1" />
<path stroke="#39474a" d="M27 34h1" />
<path stroke="#7c3c66" d="M43 34h1" />
<path stroke="#7b4347" d="M23 35h1" />
<path stroke="#757454" d="M24 35h2" />
<path stroke="#776d5c" d="M26 35h2" />
<path stroke="#3c3e3c" d="M26 36h1M27 37h1" />
<path stroke="#4c645a" d="M27 36h1" />
<path stroke="#4b6359" d="M28 36h2M28 37h3M28 38h2M26 45h1M26 46h6M27 47h5M25 48h1M29 48h3" />
<path stroke="#d1341f" d="M32 36h1M38 41h1" />
<path stroke="#d63c4a" d="M33 36h1M32 37h1M38 40h2" />
<path stroke="#58422a" d="M42 36h1" />
<path stroke="#86415e" d="M43 36h1" />
<path stroke="#100400" d="M46 36h1" />
<path stroke="#4e94ac" d="M47 36h1" />
<path stroke="#7f55ac" d="M48 36h1" />
<path stroke="#48a8b8" d="M42 37h1" />
<path stroke="#417585" d="M43 37h1" />
<path stroke="#a75387" d="M46 37h1" />
<path stroke="#76dcf9" d="M47 37h1" />
<path stroke="#5baa95" d="M26 38h1" />
<path stroke="#34544a" d="M27 38h1M27 39h1" />
<path stroke="#414441" d="M30 38h1M31 39h1M30 42h1M31 43h1M42 46h1M42 47h1M34 48h1M35 49h1" />
<path stroke="#82d4c2" d="M31 38h1M31 42h1" />
<path stroke="#4d2124" d="M34 38h1" />
<path stroke="#a03634" d="M42 38h1M32 42h1M36 45h1" />
<path stroke="#cb3f4f" d="M44 38h1" />
<path stroke="#7ed3d4" d="M45 38h1M45 39h1" />
<path stroke="#90304f" d="M46 38h1" />
<path stroke="#d34779" d="M47 38h1" />
<path stroke="#000c00" d="M26 39h1" />
<path stroke="#5a7268" d="M28 39h2M26 44h2M27 45h1" />
<path stroke="#59726c" d="M30 39h1M30 43h1" />
<path stroke="#f3403b" d="M34 39h1" />
<path stroke="#a02d2d" d="M35 39h1" />
<path stroke="#c73321" d="M44 39h1" />
<path stroke="#4ab6cf" d="M46 39h1" />
<path stroke="#080500" d="M47 39h1" />
<path stroke="#69d1f1" d="M34 40h1" />
<path stroke="#963c45" d="M35 40h1" />
<path stroke="#bc3028" d="M40 40h1M41 41h1" />
<path stroke="#7c59bd" d="M42 40h1M43 41h1" />
<path stroke="#5a3929" d="M43 40h1M34 42h1" />
<path stroke="#a4483f" d="M44 40h1" />
<path stroke="#000c08" d="M45 40h1M35 51h1" />
<path stroke="#57aebf" d="M34 41h1" />
<path stroke="#643a27" d="M35 41h1" />
<path stroke="#bf4973" d="M40 41h1" />
<path stroke="#66e3f8" d="M42 41h1M35 43h1" />
<path stroke="#502c27" d="M44 41h1" />
<path stroke="#2a8e80" d="M35 42h1M34 43h1" />
<path stroke="#7ed4c2" d="M36 42h1M36 43h1" />
<path stroke="#a73531" d="M37 42h1M37 43h1" />
<path stroke="#536b61" d="M25 44h1M25 45h1" />
<path stroke="#88504d" d="M44 44h1M44 45h1" />
<path stroke="#a53e3a" d="M36 46h1" />
<path stroke="#60504b" d="M37 46h1M37 47h1" />
<path stroke="#375567" d="M38 46h1" />
<path stroke="#66b6cf" d="M39 46h1" />
<path stroke="#7b4746" d="M43 46h1M34 49h1" />
<path stroke="#41504a" d="M36 47h1" />
<path stroke="#000800" d="M38 47h2" />
<path stroke="#984848" d="M43 47h1M35 48h1" />
<path stroke="#e6504c" d="M34 50h1" />
<path stroke="#993b37" d="M35 50h1M34 51h1" />
</svg>