<svg xmlns="http://www.w3.org/2000/svg" viewBox="0 -0.5 68 56" shape-rendering="crispEdges">
<metadata>Made with Pixels to Svg https://codepen.io/shshaw/pen/XbxvNj</metadata>
<path stroke="#000000" d="M32 14h1M30 15h2M33 15h1M29 16h1M33 16h1M27 17h2M32 17h1M31 18h1M24 19h2M31 19h1M22 20h2M30 20h1M21 21h1M29 21h1M28 22h1M32 22h3M19 23h1M29 23h3M35 23h1M19 24h1M34 24h1M18 25h1M32 25h2M18 26h1M20 26h1M31 26h1M19 27h1M21 27h1M30 27h1M32 27h3M20 28h1M35 28h1M20 29h1M33 29h2M20 30h1M31 30h2M20 31h1M30 31h1M46 31h2M31 32h1M48 32h1M19 33h1M31 33h1M43 33h1M47 33h1M19 34h1M32 34h1M46 34h1M18 35h1M23 35h1M32 35h1M41 35h1M47 35h1M33 36h1M34 37h2M48 37h1M19 38h1M36 38h1M39 38h1M48 38h1M20 39h1M38 39h1M47 39h1M21 40h1M24 40h1M36 40h2M24 41h1M23 42h1M48 42h1M22 43h1M44 43h4M22 44h1M43 44h1M23 45h1M43 45h1M22 46h1M35 46h4M22 47h1M34 47h1M37 47h1M39 47h1M44 47h1M23 48h1M28 48h1M34 48h2M38 48h1M40 48h2M44 48h1M23 49h1M26 49h2M29 49h1M33 49h1M36 49h1M38 49h1M45 49h1M21 50h2M25 50h1M30 50h1M32 50h1M35 50h1M38 50h1M45 50h1M20 51h1M24 51h1M30 51h1M33 51h1M36 51h2M41 51h1M45 51h1M19 52h1M21 52h1M24 52h1M29 52h1M32 52h1M42 52h3M19 53h2M22 53h2M28 53h1M32 53h1M28 54h1M30 54h1M32 54h1M29 55h1M31 55h1" />
<path stroke="#eeea5d" d="M32 15h1M30 16h3M29 17h3M28 18h3M28 19h3M28 20h2M32 23h3M30 24h4M29 25h3M32 28h3M32 29h1M25 34h1M29 34h1M25 35h1M28 35h1M46 35h1M44 36h2M44 37h1M46 37h2M43 38h5M43 39h2M46 39h1M44 40h2M45 41h2" />
<path stroke="#080000" d="M26 18h1" />
<path stroke="#dfd857" d="M27 18h1M29 24h1M28 25h1" />
<path stroke="#f0e8a1" d="M26 19h1" />
<path stroke="#554e4f" d="M27 19h1" />
<path stroke="#dbd38f" d="M24 20h3M25 21h3M24 22h4M24 23h5M24 24h4M24 25h3M24 26h4M24 27h2M28 27h2M24 28h1M29 28h2M28 29h1M30 29h1M28 30h1M22 31h2M28 31h2M22 32h2M30 32h1M22 33h3M20 34h1M22 34h2M31 34h1M19 35h1M21 35h2M31 35h1M26 36h1M30 36h3M24 37h3M28 37h2M31 37h3M28 38h3M32 38h4M28 39h3M33 39h1M28 40h4M34 40h1M29 41h3M34 41h2M25 42h3M29 42h1M32 42h1M34 42h3M23 43h1M25 43h4M30 43h4M35 43h1M24 44h7M24 45h1M26 45h2M29 45h3M23 46h2M26 46h2M29 46h3M23 47h1M25 47h3M29 47h1M26 48h2" />
<path stroke="#5a5152" d="M27 20h1M24 21h1M23 22h1M23 23h1M28 24h1M27 25h1M26 27h2M23 28h1M28 28h1M31 28h1M22 29h1M29 29h1M31 29h1M22 30h2M26 30h1M29 30h1M26 31h1M24 36h2M28 41h1M28 42h1M30 42h2M29 43h1" />
<path stroke="#a19b60" d="M22 21h2M22 22h1M22 23h1M19 25h1M19 26h1M21 26h1M22 28h1M23 29h1M25 40h1M25 41h1M23 44h1" />
<path stroke="#555555" d="M28 21h1" />
<path stroke="#000408" d="M20 22h1M20 32h1" />
<path stroke="#ded792" d="M21 22h1M20 23h1M23 25h1M23 26h1M21 32h1M20 33h1M24 38h1M27 38h1M27 41h1M33 41h1" />
<path stroke="#979057" d="M21 23h1M21 33h1" />
<path stroke="#9f995f" d="M20 24h2M20 25h2M21 34h1M20 35h1M30 37h1M31 38h1M31 39h2M24 42h1M33 42h1M24 43h1M34 43h1M31 44h1M25 45h1M28 45h1M25 46h1M28 46h1M24 47h1M28 47h1" />
<path stroke="#9d965c" d="M22 24h1M22 27h1M25 39h3M26 40h1M32 40h1M26 41h1" />
<path stroke="#575357" d="M23 24h1M22 25h1M22 26h1M23 27h1M25 38h1M24 39h1M33 40h1M32 41h1" />
<path stroke="#9a935a" d="M28 26h1" />
<path stroke="#57524f" d="M29 26h1" />
<path stroke="#5a5352" d="M30 26h1M30 30h1M39 46h1M32 48h2M32 49h1" />
<path stroke="#2cff89" d="M21 28h1M26 28h1M21 29h1M26 29h2M27 30h1M27 31h1" />
<path stroke="#634d4a" d="M25 28h1M24 29h1" />
<path stroke="#dee7de" d="M27 28h1" />
<path stroke="#7ba28f" d="M25 29h1" />
<path stroke="#70a483" d="M21 30h1M21 31h1" />
<path stroke="#91ffbd" d="M24 30h1" />
<path stroke="#6ca389" d="M25 30h1M24 31h1M24 32h2" />
<path stroke="#2e7c65" d="M25 31h1" />
<path stroke="#6acb90" d="M26 32h1" />
<path stroke="#4a5152" d="M27 32h1M26 33h1" />
<path stroke="#424142" d="M28 32h2M25 33h1M26 34h1M30 34h1M26 35h1M30 35h1M22 36h2M28 36h2M43 36h1M20 37h2M43 37h1M42 38h1M40 39h1M42 39h1M35 40h1M43 40h1M42 41h1M44 41h1M33 45h1M30 47h2M30 53h1" />
<path stroke="#000008" d="M44 32h2M40 36h1M40 37h1" />
<path stroke="#39619c" d="M46 32h2M46 33h1M44 42h2" />
<path stroke="#92933a" d="M27 33h1" />
<path stroke="#e7ea5d" d="M28 33h1M27 34h1" />
<path stroke="#a0962c" d="M29 33h1M27 35h1" />
<path stroke="#4a4b4a" d="M30 33h1" />
<path stroke="#d6ce8b" d="M44 33h1M41 37h1" />
<path stroke="#63697b" d="M45 33h1M41 36h1" />
<path stroke="#39414a" d="M24 34h1" />
<path stroke="#9a9533" d="M28 34h1M29 35h1" />
<path stroke="#000018" d="M42 34h1" />
<path stroke="#5e6987" d="M43 34h1M43 35h1" />
<path stroke="#707786" d="M44 34h1" />
<path stroke="#31384a" d="M45 34h1M44 35h1" />
<path stroke="#a0962e" d="M24 35h1" />
<path stroke="#d4cc89" d="M42 35h1" />
<path stroke="#dfe35d" d="M45 35h1" />
<path stroke="#000808" d="M18 36h1M18 37h1" />
<path stroke="#4aea8f" d="M19 36h1" />
<path stroke="#9fa2aa" d="M20 36h1" />
<path stroke="#d7cf8c" d="M21 36h1" />
<path stroke="#424542" d="M27 36h1" />
<path stroke="#39639c" d="M42 36h1M42 37h1M40 38h2M41 39h1M42 40h1M43 41h1" />
<path stroke="#857824" d="M46 36h1" />
<path stroke="#080808" d="M47 36h1" />
<path stroke="#285342" d="M19 37h1" />
<path stroke="#989158" d="M22 37h2" />
<path stroke="#938c54" d="M27 37h1" />
<path stroke="#dac73f" d="M45 37h1M45 39h1" />
<path stroke="#999259" d="M20 38h2M21 39h1" />
<path stroke="#4f4b4a" d="M22 38h1" />
<path stroke="#dfd893" d="M23 38h1M25 48h1" />
<path stroke="#57565d" d="M26 38h1M27 40h1" />
<path stroke="#080400" d="M22 39h2M35 39h1" />
<path stroke="#4c4a4a" d="M34 39h1" />
<path stroke="#424342" d="M39 39h1M29 48h1M44 49h1" />
<path stroke="#5a5252" d="M38 40h2M38 41h2M38 42h2M38 43h2M36 44h2M36 45h2M40 46h2M40 47h2M30 48h2M30 49h2" />
<path stroke="#5a5052" d="M40 40h1M40 41h2M39 44h1M34 45h2M39 45h1M33 46h1M32 47h2" />
<path stroke="#414041" d="M41 40h1M34 44h2M38 44h1M38 45h1M32 46h1" />
<path stroke="#827723" d="M46 40h1" />
<path stroke="#000400" d="M47 40h1M47 41h1M43 46h1" />
<path stroke="#3c3b3c" d="M36 41h1M44 50h1" />
<path stroke="#5a595a" d="M37 41h1M42 46h1M44 51h1" />
<path stroke="#4a494a" d="M37 42h1M36 43h2" />
<path stroke="#524952" d="M40 42h1" />
<path stroke="#5d56af" d="M41 42h1M40 43h1" />
<path stroke="#4d4d5d" d="M42 42h1" />
<path stroke="#424539" d="M43 42h1M43 43h1" />
<path stroke="#525352" d="M46 42h1" />
<path stroke="#e7e65a" d="M47 42h1" />
<path stroke="#574f80" d="M41 43h1" />
<path stroke="#635da5" d="M42 43h1" />
<path stroke="#d9d18d" d="M32 44h2" />
<path stroke="#544d81" d="M40 44h1M41 45h1" />
<path stroke="#5a51ad" d="M41 44h1" />
<path stroke="#524b6b" d="M42 44h1M42 45h1" />
<path stroke="#a7a165" d="M32 45h1" />
<path stroke="#4f4955" d="M40 45h1" />
<path stroke="#424242" d="M34 46h1M35 47h2M36 48h2M37 49h1M36 50h2" />
<path stroke="#3c3c3c" d="M42 47h2" />
<path stroke="#4c554a" d="M24 48h1M24 49h1" />
<path stroke="#39384c" d="M42 48h2" />
<path stroke="#081000" d="M25 49h1" />
<path stroke="#080800" d="M42 49h1" />
<path stroke="#525173" d="M43 49h1" />
<path stroke="#5a715a" d="M23 50h1" />
<path stroke="#5a7b5a" d="M24 50h1M31 50h1M21 51h1M31 51h2M20 52h1M22 52h2M30 52h2M29 53h1M31 53h1M29 54h1M31 54h1" />
<path stroke="#101000" d="M42 50h1" />
<path stroke="#7369a5" d="M43 50h1" />
<path stroke="#3c4b3c" d="M22 51h2" />
<path stroke="#413c52" d="M42 51h2" />
</svg>