<svg xmlns="http://www.w3.org/2000/svg" viewBox="0 -0.5 68 56" shape-rendering="crispEdges">
<metadata>Made with Pixels to Svg https://codepen.io/shshaw/pen/XbxvNj</metadata>
<path stroke="#000000" d="M29 6h2M28 7h1M31 7h2M26 8h2M33 8h1M25 9h1M34 9h2M24 10h1M36 10h1M24 11h1M37 11h3M23 12h1M40 12h1M23 13h1M40 13h1M41 14h1M21 15h1M42 15h1M20 16h1M42 16h1M20 17h1M42 17h1M20 18h1M41 18h1M21 19h1M41 19h1M44 19h2M21 20h2M39 20h2M43 20h1M46 20h1M23 21h3M38 21h1M41 21h2M46 21h1M27 22h1M36 22h1M40 22h1M47 22h1M35 23h1M38 23h2M48 23h2M26 24h2M29 24h1M50 24h1M25 25h1M28 25h1M51 25h5M23 26h2M56 26h1M22 27h1M55 27h1M20 28h2M55 28h1M19 29h1M54 29h1M18 30h1M53 30h1M18 31h1M53 31h1M17 32h1M52 32h1M17 33h1M52 33h1M15 34h1M14 35h1M53 35h1M14 36h1M54 36h2M13 37h1M56 37h1M13 38h1M57 38h1M58 39h1M11 40h2M9 41h2M13 41h1M8 42h1M58 42h1M9 43h1M55 43h1M9 44h1M51 44h4M10 45h1M50 45h1M10 46h1M49 46h1M11 47h1M48 47h1M12 48h1M47 48h1M13 49h1M18 49h4M45 49h2M15 50h3M22 50h4M43 50h2M26 51h2M40 51h3M28 52h1M38 52h1M29 53h1M37 53h1M30 54h1M35 54h2M31 55h4" />
<path stroke="#ae8b00" d="M29 7h2M25 10h1M25 11h1M37 14h1M36 15h2M22 16h1M35 16h1M22 17h2M32 17h4M34 28h1" />
<path stroke="#b18c00" d="M28 8h4M28 9h4M28 10h4M28 11h4M28 12h4M28 13h4M30 18h2M30 19h2" />
<path stroke="#ae8200" d="M32 8h1M32 9h1M31 17h1M34 20h1" />
<path stroke="#765600" d="M26 9h1M21 17h1" />
<path stroke="#b28100" d="M27 9h1M21 16h1" />
<path stroke="#745600" d="M33 9h1" />
<path stroke="#af8900" d="M26 10h1M26 11h2M32 11h1M34 11h1M24 12h4M32 12h2M35 12h1M25 13h1M27 13h1M33 13h1M28 14h3M32 14h1M38 14h1M39 15h1M36 16h1M38 16h1M37 17h1M39 17h1M22 18h1M24 18h2M32 18h2M35 18h2M23 19h1M28 19h2M32 19h1M34 19h1M28 20h5M29 21h2M35 26h1M35 27h1" />
<path stroke="#785000" d="M27 10h1M32 10h4M33 11h1M35 11h1M34 12h1M38 12h2M24 13h1M26 13h1M32 13h1M34 13h2M38 13h2M26 14h2M31 14h1M33 14h1M39 14h1M26 15h8M38 15h1M37 16h1M39 16h3M36 17h1M38 17h1M40 17h2M23 18h1M26 18h4M34 18h1M37 18h3M22 19h1M24 19h4M33 19h1M35 19h5M33 20h1M28 21h1M31 21h3M34 26h1M34 27h1" />
<path stroke="#774f00" d="M36 11h1M40 14h1M40 15h2M21 18h1M40 18h1M40 19h1M23 20h3M38 20h1M26 25h2" />
<path stroke="#795000" d="M36 12h1M37 13h1M24 14h2M34 14h2M34 15h1M28 16h2M30 22h2M35 25h1M28 26h3M30 27h2M38 27h2" />
<path stroke="#424142" d="M37 12h1M36 13h1M36 14h1M23 16h1M32 16h3M24 17h2M28 17h2M43 21h1M45 21h1M30 23h2M33 24h3M40 24h1M29 25h1M34 25h1M41 25h1M42 26h2M44 27h1M45 28h1M53 28h1M53 29h1M50 33h1M16 40h2M48 40h1M46 41h2M15 42h1M50 42h1M16 43h1M33 43h2M50 43h2M17 44h1M26 44h2M32 44h1M35 44h3M40 44h3M50 44h1M17 45h1M30 45h3M35 45h1M18 46h1M30 46h1M38 46h3M18 47h1M29 47h1M40 47h1M40 48h1M17 49h1M28 50h1M28 51h1M29 52h1" />
<path stroke="#180400" d="M22 14h1" />
<path stroke="#825b03" d="M23 14h1" />
<path stroke="#ba8600" d="M22 15h1" />
<path stroke="#422d0e" d="M23 15h1" />
<path stroke="#e75d63" d="M24 15h2" />
<path stroke="#424041" d="M35 15h1M49 37h1" />
<path stroke="#d64952" d="M24 16h2" />
<path stroke="#314131" d="M26 16h1" />
<path stroke="#7f5f0f" d="M27 16h1M27 17h1" />
<path stroke="#7f6013" d="M30 16h1M35 20h1" />
<path stroke="#394139" d="M31 16h1M30 17h1M34 21h2" />
<path stroke="#ae7a00" d="M26 17h1" />
<path stroke="#735b23" d="M26 20h1" />
<path stroke="#4b3c1f" d="M27 20h1M27 21h1" />
<path stroke="#7e5206" d="M36 20h2M28 22h2" />
<path stroke="#104298" d="M44 20h2M44 21h1M52 28h1M52 29h1M50 32h2M51 33h1M49 40h1M48 41h2M51 42h1M43 44h1M26 45h2M40 45h4M19 46h1M28 46h2M41 46h1M19 47h1M28 47h1M41 47h1M41 48h1M40 49h2" />
<path stroke="#180000" d="M26 21h1" />
<path stroke="#53350a" d="M36 21h1M29 23h1" />
<path stroke="#100000" d="M37 21h1M28 23h1M51 34h1M14 39h1" />
<path stroke="#553700" d="M32 22h1" />
<path stroke="#475d52" d="M33 22h1M32 23h1" />
<path stroke="#ff4948" d="M34 22h2M34 23h1M23 27h1M20 29h2M37 32h1" />
<path stroke="#0a72c6" d="M41 22h1M46 22h1M40 23h2M46 23h2M54 37h2" />
<path stroke="#0b78c2" d="M42 22h2" />
<path stroke="#0b6cc2" d="M44 22h2M51 26h1M51 27h1" />
<path stroke="#ff0c40" d="M33 23h1" />
<path stroke="#bfc3a3" d="M42 23h1" />
<path stroke="#ffe9a3" d="M43 23h1" />
<path stroke="#ffe4a5" d="M44 23h1M50 27h1" />
<path stroke="#9dada2" d="M45 23h1M50 26h1" />
<path stroke="#b28c41" d="M30 24h1M31 25h1" />
<path stroke="#7e6231" d="M31 24h1M30 25h1" />
<path stroke="#7e622e" d="M32 24h1M32 25h2" />
<path stroke="#001008" d="M36 24h2" />
<path stroke="#b2aaa2" d="M38 24h1M38 25h1" />
<path stroke="#9c928c" d="M39 24h1M39 25h1" />
<path stroke="#d1c287" d="M41 24h1" />
<path stroke="#ce9480" d="M42 24h1" />
<path stroke="#ce284a" d="M43 24h1" />
<path stroke="#ffe9b2" d="M44 24h2M45 25h1M44 26h6M45 27h2M49 27h1M48 28h1M50 28h1M48 29h3M14 42h1M14 43h2M10 44h2M16 44h1M11 45h1M16 45h1M11 46h1M14 46h3M31 46h1M15 47h1M30 47h6M32 48h4M29 49h1M29 50h1M29 51h1" />
<path stroke="#026fcd" d="M46 24h4M46 25h4M52 36h2M52 37h2M18 42h2M18 43h2" />
<path stroke="#37483c" d="M36 25h1" />
<path stroke="#a5baa5" d="M37 25h1" />
<path stroke="#9f977e" d="M40 25h1" />
<path stroke="#cfcb84" d="M42 25h2" />
<path stroke="#d6244a" d="M44 25h1M47 27h2M49 28h1" />
<path stroke="#0564d0" d="M50 25h1M20 43h2" />
<path stroke="#6ba639" d="M25 26h1M24 27h2M42 27h2M28 28h1M38 28h2M34 29h2M31 30h1" />
<path stroke="#837a0f" d="M26 26h1" />
<path stroke="#a28400" d="M27 26h1" />
<path stroke="#b58e42" d="M31 26h1" />
<path stroke="#735f21" d="M32 26h1" />
<path stroke="#905a1d" d="M33 26h1M32 27h1" />
<path stroke="#8a5d00" d="M36 26h1M36 27h2" />
<path stroke="#b5aa9c" d="M37 26h1" />
<path stroke="#a59e94" d="M38 26h2" />
<path stroke="#7a3f24" d="M40 26h1" />
<path stroke="#6d4c00" d="M41 26h1M40 27h1" />
<path stroke="#403d47" d="M52 26h1M50 36h1M25 44h1" />
<path stroke="#184f91" d="M53 26h1M53 27h1M51 36h1M50 37h1M24 45h2" />
<path stroke="#114997" d="M54 26h2M54 27h1M54 28h1M52 30h1M52 31h1M52 35h1M56 38h1M56 39h2M54 42h2M54 43h1M48 46h1M20 48h2M44 48h3M44 49h1M26 50h2M40 50h3" />
<path stroke="#639631" d="M26 27h1" />
<path stroke="#829303" d="M27 27h1" />
<path stroke="#5e5e00" d="M28 27h1" />
<path stroke="#bda284" d="M29 27h1M30 28h1M30 29h1M28 30h2" />
<path stroke="#9e7300" d="M33 27h1" />
<path stroke="#739239" d="M41 27h1" />
<path stroke="#0069cd" d="M52 27h1M51 37h1M24 44h1" />
<path stroke="#ff4653" d="M22 28h2M22 29h2M46 30h2M46 31h2M42 32h2M42 33h2M40 34h2M40 35h2" />
<path stroke="#fe505b" d="M24 28h1" />
<path stroke="#6bbe42" d="M25 28h1M24 29h1" />
<path stroke="#6ba239" d="M26 28h2" />
<path stroke="#d6c79c" d="M29 28h1M28 29h2" />
<path stroke="#6ba43c" d="M31 28h1M40 28h4M31 29h1M40 29h4" />
<path stroke="#817912" d="M32 28h1" />
<path stroke="#7b8c03" d="M33 28h1" />
<path stroke="#8b9c03" d="M35 28h1" />
<path stroke="#5d5800" d="M36 28h1" />
<path stroke="#54b24a" d="M37 28h1" />
<path stroke="#b0a768" d="M44 28h1M44 29h2" />
<path stroke="#423c42" d="M46 28h1M47 29h1" />
<path stroke="#ffd3c6" d="M47 28h1" />
<path stroke="#c89c71" d="M51 28h1M51 29h1M34 46h2" />
<path stroke="#b79878" d="M25 29h1" />
<path stroke="#b7b27b" d="M26 29h1" />
<path stroke="#deba9c" d="M27 29h1" />
<path stroke="#6b9e39" d="M32 29h2" />
<path stroke="#7bd34a" d="M36 29h2" />
<path stroke="#86be49" d="M38 29h1" />
<path stroke="#94cb52" d="M39 29h1" />
<path stroke="#c0a09a" d="M46 29h1" />
<path stroke="#fe5c6b" d="M19 30h4M19 31h2M35 31h1M34 32h1M35 33h1" />
<path stroke="#73d64d" d="M23 30h1M34 30h2M22 31h2M34 31h1" />
<path stroke="#c0a084" d="M24 30h1M24 31h1M24 34h1M26 35h2M25 36h1M25 37h1" />
<path stroke="#ffebc6" d="M25 30h1M25 31h1M25 34h3M24 35h2M24 36h1M24 37h1M22 40h2M22 41h1M20 42h2" />
<path stroke="#dac6a0" d="M26 30h2" />
<path stroke="#70d649" d="M30 30h1M30 31h2" />
<path stroke="#6ba439" d="M32 30h2M32 31h1" />
<path stroke="#fe616d" d="M36 30h2M36 31h2" />
<path stroke="#fe5151" d="M38 30h1M38 31h2" />
<path stroke="#73d84c" d="M39 30h1" />
<path stroke="#9cbe52" d="M40 30h2M44 30h1M41 31h1M44 31h2M48 32h1M41 33h1M48 33h1" />
<path stroke="#6aa339" d="M42 30h2" />
<path stroke="#fe4952" d="M45 30h1M40 31h1M40 32h2M40 33h1" />
<path stroke="#424939" d="M48 30h1M49 31h1" />
<path stroke="#fff7b5" d="M49 30h1" />
<path stroke="#e7c794" d="M50 30h1" />
<path stroke="#b49f77" d="M51 30h1M50 31h1" />
<path stroke="#c6e76b" d="M21 31h1M24 32h1M35 32h1M38 32h1M24 33h1M33 33h2M29 34h2M36 34h1M43 34h1M28 35h4M36 35h3M42 35h3M18 36h2M30 36h4M30 37h1M32 37h1M25 38h3M33 38h1M38 38h4M25 39h1M32 39h2M40 39h1M30 40h2" />
<path stroke="#f7ebc6" d="M26 31h1" />
<path stroke="#bda27b" d="M27 31h1" />
<path stroke="#70d84c" d="M28 31h2" />
<path stroke="#73d74a" d="M33 31h1" />
<path stroke="#9cbd52" d="M42 31h2" />
<path stroke="#a0a077" d="M48 31h1" />
<path stroke="#244989" d="M51 31h1" />
<path stroke="#c3e86b" d="M18 32h6M18 33h6M18 34h4M32 34h4M18 35h4M32 35h4M26 36h4M34 36h10M26 37h4M34 37h10M28 38h4M34 38h4M28 39h4M34 39h4" />
<path stroke="#c09f83" d="M25 32h1M25 33h1M28 34h1M24 38h1M24 39h1" />
<path stroke="#fcebc8" d="M26 32h2M26 33h2M22 36h2M22 37h2M22 38h2M22 39h2M20 40h2M20 41h2" />
<path stroke="#bac086" d="M28 32h1M29 33h1" />
<path stroke="#75b547" d="M29 32h1" />
<path stroke="#70d64c" d="M30 32h2M30 33h2" />
<path stroke="#73d749" d="M32 32h2M32 33h1M31 34h1M31 37h1M33 37h1M32 38h1" />
<path stroke="#fe6172" d="M36 32h1M36 33h2" />
<path stroke="#ff4456" d="M39 32h1M38 33h2M37 34h3M42 34h1M39 35h1" />
<path stroke="#9fbd52" d="M44 32h4M44 33h4M46 34h2M46 35h2M44 36h2M44 37h1" />
<path stroke="#215d3b" d="M49 32h1M49 33h1M24 43h2" />
<path stroke="#ffcbc6" d="M28 33h1" />
<path stroke="#001410" d="M16 34h1" />
<path stroke="#bdeb73" d="M17 34h1M17 35h1" />
<path stroke="#d0c391" d="M22 34h1M20 36h1" />
<path stroke="#bdaa7b" d="M23 34h1M22 35h1M21 36h1M20 37h1" />
<path stroke="#9fbb52" d="M44 34h2M45 35h1" />
<path stroke="#007834" d="M48 34h2M48 35h2M46 36h2M46 37h2" />
<path stroke="#107539" d="M50 34h1M50 35h1M14 38h2" />
<path stroke="#007734" d="M15 35h1M15 36h1M14 37h2" />
<path stroke="#3f5b31" d="M16 35h1" />
<path stroke="#f7f7bd" d="M23 35h1M21 37h1" />
<path stroke="#43414a" d="M51 35h1M49 38h1M48 39h1M45 42h1M44 43h1M28 44h1M39 44h1M29 45h1M38 45h1" />
<path stroke="#007934" d="M16 36h2M48 36h2M16 37h1M18 37h2M45 37h1M48 37h1M19 38h1M44 38h2M47 38h1M26 39h2M38 39h2M41 39h1M44 39h1M46 39h2M24 40h2M32 40h2M36 40h2M43 40h1M45 40h3M23 41h1M30 41h2M33 41h1M44 41h2M41 42h1M40 43h2M30 44h2" />
<path stroke="#73aa32" d="M17 37h1M16 38h1M18 38h1M46 38h1M16 39h4M45 39h1M42 40h1M44 40h1M24 41h2M32 41h1M36 41h2M42 41h2M24 42h2M40 42h1" />
<path stroke="#d3ee63" d="M17 38h1" />
<path stroke="#acbb96" d="M20 38h1" />
<path stroke="#ffe3bd" d="M21 38h1M21 39h1" />
<path stroke="#c5e363" d="M42 38h1M29 40h1M35 40h1" />
<path stroke="#00752c" d="M43 38h1M42 39h1M28 40h1M34 40h1M29 41h1M35 41h1M38 43h2" />
<path stroke="#00793c" d="M48 38h1M44 42h1M29 44h1M38 44h1" />
<path stroke="#0e459d" d="M50 38h1M52 38h1M55 38h1M50 39h3M55 39h1M18 45h6" />
<path stroke="#0171ce" d="M51 38h1M53 38h2M53 39h2M18 44h6" />
<path stroke="#104e26" d="M15 39h1" />
<path stroke="#086d31" d="M20 39h1" />
<path stroke="#68b151" d="M43 39h1M28 41h1M34 41h1M39 42h1" />
<path stroke="#104598" d="M49 39h1M50 40h8M50 41h8M46 42h4M52 42h2M45 43h5M52 43h2M44 44h6M28 45h1M39 45h1M44 45h6M20 46h8M42 46h6M20 47h8M42 47h6M22 48h6M42 48h2M22 49h6M42 49h2" />
<path stroke="#100400" d="M14 40h1" />
<path stroke="#1272c2" d="M15 40h1M15 41h1" />
<path stroke="#006d3f" d="M18 40h2" />
<path stroke="#74aa36" d="M26 40h2M38 40h2M26 41h2M38 41h2M26 42h2M30 42h2M36 42h2M26 43h2M30 43h2M36 43h2" />
<path stroke="#087128" d="M40 40h1M29 43h1" />
<path stroke="#d7eb52" d="M41 40h1M28 42h1" />
<path stroke="#3f3834" d="M58 40h1M56 42h1" />
<path stroke="#000308" d="M59 40h1M59 41h1M56 43h2" />
<path stroke="#ffffff" d="M11 41h1M9 42h1M12 42h1M34 44h1M33 45h2M37 45h1M38 47h2" />
<path stroke="#bdbdc6" d="M12 41h1" />
<path stroke="#16385b" d="M14 41h1" />
<path stroke="#086dc9" d="M16 41h2M16 42h2M17 43h1" />
<path stroke="#529380" d="M18 41h1" />
<path stroke="#f7dfce" d="M19 41h1" />
<path stroke="#6caf48" d="M40 41h2M29 42h1M28 43h1" />
<path stroke="#c39f7e" d="M58 41h1M57 42h1" />
<path stroke="#cea25d" d="M10 42h1" />
<path stroke="#fffff7" d="M11 42h1" />
<path stroke="#c49c70" d="M13 42h1M12 43h2" />
<path stroke="#e7e7d6" d="M22 42h1" />
<path stroke="#18325a" d="M23 42h1" />
<path stroke="#73ac32" d="M32 42h4M32 43h1M35 43h1" />
<path stroke="#d5ea5b" d="M38 42h1" />
<path stroke="#7c9734" d="M42 42h1" />
<path stroke="#08653a" d="M43 42h1M42 43h1" />
<path stroke="#ece1cd" d="M10 43h1" />
<path stroke="#dec092" d="M11 43h1" />
<path stroke="#5d6f83" d="M22 43h2" />
<path stroke="#2b7437" d="M43 43h1" />
<path stroke="#ffe9b6" d="M12 44h4M12 45h4M30 48h2M30 49h2" />
<path stroke="#c0bfc0" d="M33 44h1M36 45h1" />
<path stroke="#966934" d="M12 46h2M12 47h1M32 50h1M35 50h1M35 51h1M32 53h2" />
<path stroke="#dec580" d="M17 46h1M16 47h2" />
<path stroke="#e4c38d" d="M32 46h1" />
<path stroke="#c49e67" d="M33 46h1" />
<path stroke="#f7ffff" d="M36 46h1" />
<path stroke="#cbbeb2" d="M37 46h1" />
<path stroke="#b28d3f" d="M13 47h1M33 50h2M32 51h3M32 52h2" />
<path stroke="#946931" d="M14 47h1M13 48h1M32 49h2M31 50h1M31 51h1M31 52h1" />
<path stroke="#bb9b81" d="M36 47h2" />
<path stroke="#c6924a" d="M14 48h1" />
<path stroke="#866231" d="M15 48h1M15 49h1" />
<path stroke="#dac584" d="M16 48h2M16 49h1M38 50h1M36 52h2M35 53h2M31 54h4" />
<path stroke="#424042" d="M18 48h2" />
<path stroke="#424752" d="M28 48h2M28 49h1" />
<path stroke="#ddc67f" d="M36 48h1M36 49h2" />
<path stroke="#c39f71" d="M37 48h1" />
<path stroke="#fff3ef" d="M38 48h1" />
<path stroke="#c0b6b2" d="M39 48h1M38 49h1" />
<path stroke="#080400" d="M14 49h1" />
<path stroke="#946939" d="M34 49h1" />
<path stroke="#e2bc7e" d="M35 49h1" />
<path stroke="#423c39" d="M39 49h1" />
<path stroke="#ffedb0" d="M30 50h1" />
<path stroke="#dac680" d="M36 50h2M36 51h2" />
<path stroke="#474239" d="M39 50h1M38 51h1" />
<path stroke="#e1bf77" d="M30 51h1" />
<path stroke="#010008" d="M39 51h1" />
<path stroke="#dac57f" d="M30 52h1M30 53h2" />
<path stroke="#946734" d="M34 52h2M34 53h1" />
</svg>