<svg xmlns="http://www.w3.org/2000/svg" viewBox="0 -0.5 68 56" shape-rendering="crispEdges">
<metadata>Made with Pixels to Svg https://codepen.io/shshaw/pen/XbxvNj</metadata>
<path stroke="#000400" d="M25 24h1M24 25h1M26 25h1M36 25h2M23 26h1M26 26h1M38 26h1M20 27h1M23 27h1M26 27h1M33 27h1M37 27h1M19 28h1M21 28h1M26 28h1M36 28h1M19 29h1M26 29h1M31 29h1M37 29h1M40 29h4M19 30h1M27 30h1M30 30h1M38 30h2M44 30h1M20 31h1M27 31h1M30 31h1M20 32h1M27 32h1M29 32h1M41 32h2M20 33h1M27 33h1M29 33h1M40 33h1M21 34h1M28 34h1M39 34h1M21 35h1M28 35h1M22 36h1M44 36h1M22 37h1M44 37h1M23 38h1M20 39h2M23 39h1M44 39h3M20 40h1M22 40h1M47 40h1M21 41h1M46 41h1M20 42h1M47 42h1M20 43h1M48 43h1M19 44h1M48 44h1M17 45h2M49 45h2M16 46h1M50 46h1M17 47h2M18 48h1M33 48h1M50 48h2M16 49h2M26 49h2M32 49h1M34 49h1M52 49h1M15 50h1M23 50h3M31 50h1M35 50h1M50 50h2M22 51h1M50 51h1M15 52h1M21 52h1M36 52h1M46 52h4M16 53h5M37 53h1M40 53h2M47 53h1M37 54h1M39 54h1M44 54h3M38 55h1" />
<path stroke="#efae6b" d="M25 25h1M36 26h2M36 27h1M37 52h1M46 53h1M38 54h1" />
<path stroke="#cb8868" d="M24 26h2" />
<path stroke="#100800" d="M34 26h2" />
<path stroke="#ff91a8" d="M24 27h1" />
<path stroke="#fb6d8a" d="M25 27h1M41 31h1" />
<path stroke="#ffd3dd" d="M34 27h1" />
<path stroke="#d5617c" d="M35 27h1" />
<path stroke="#a47d7e" d="M20 28h1M20 29h2" />
<path stroke="#000008" d="M22 28h1M32 28h1" />
<path stroke="#ff97ad" d="M23 28h1M33 28h1" />
<path stroke="#ffaec0" d="M24 28h1M34 28h2M38 31h2M38 32h1" />
<path stroke="#ad4c66" d="M25 28h1M43 39h1M45 40h2M45 41h1M24 42h1M46 42h1M46 43h2M47 44h1M47 45h2M22 46h1M48 48h1M40 49h1M49 49h1" />
<path stroke="#545c57" d="M22 29h2M32 29h2M36 29h1M37 33h1M35 35h1M27 36h1" />
<path stroke="#76545b" d="M24 29h2" />
<path stroke="#4b534d" d="M34 29h2M22 30h3M32 30h6M23 31h2M32 31h1M34 31h4M24 32h1M30 32h2M24 33h2M30 33h2M22 34h4M30 34h3M22 35h4M30 35h4M24 36h2M29 36h5M25 37h1M29 37h2M32 37h2" />
<path stroke="#4f5751" d="M20 30h2M21 31h1M33 38h1M33 39h1" />
<path stroke="#525a54" d="M25 30h2M25 31h2M25 32h2M26 33h1M26 34h2M36 34h1M27 35h1M42 39h1M33 40h1M33 43h1" />
<path stroke="#4c544e" d="M31 30h1M31 31h1M29 34h1M26 35h1M29 35h1M23 36h1M23 37h1" />
<path stroke="#ffa6ba" d="M40 30h1M40 31h1" />
<path stroke="#b59e73" d="M41 30h1" />
<path stroke="#f7ae73" d="M42 30h2" />
<path stroke="#6a3244" d="M22 31h1M33 31h1M34 32h1M24 37h1" />
<path stroke="#a7754f" d="M42 31h1" />
<path stroke="#080408" d="M43 31h1" />
<path stroke="#551f2f" d="M21 32h1" />
<path stroke="#c85b76" d="M22 32h1M24 38h1" />
<path stroke="#622d3c" d="M23 32h1M23 33h1M32 33h1M25 38h1M25 39h1" />
<path stroke="#922345" d="M32 32h1" />
<path stroke="#cb5c77" d="M33 32h1" />
<path stroke="#4a524c" d="M35 32h3M35 33h2M34 34h2M34 35h1M26 36h1M26 37h2M26 38h2" />
<path stroke="#ae4d66" d="M39 32h1M38 33h2M35 36h1M34 37h1M23 42h1M22 43h2M21 45h1M21 46h1M49 46h1M21 47h1M19 51h1" />
<path stroke="#b24f69" d="M40 32h1M21 40h1M17 46h1M20 52h1" />
<path stroke="#49514b" d="M21 33h1" />
<path stroke="#592333" d="M22 33h1M24 39h1" />
<path stroke="#a54660" d="M33 33h1" />
<path stroke="#64303f" d="M34 33h1M33 34h1M31 37h1" />
<path stroke="#af4d67" d="M37 34h1M36 35h1M34 38h1M35 39h1M35 40h1M35 41h1M22 44h2M22 45h1M20 50h1M20 51h1" />
<path stroke="#424142" d="M38 34h1M37 35h2M43 35h2M36 36h1M39 36h1M35 37h1M35 38h1M38 38h1M38 39h1M38 40h1M44 40h1M44 41h1M39 42h2M38 43h1M40 43h1M42 44h1M46 44h1M43 45h1M46 45h1M35 46h1M43 46h1M35 47h1M44 47h1M36 48h1M44 48h1M47 48h1M49 48h1M36 49h1M44 49h1M47 49h2M41 50h1" />
<path stroke="#262626" d="M28 36h1M28 37h1M28 38h1M28 39h1M34 39h1M29 40h1M34 40h1M26 41h2M30 41h1M34 41h1M27 42h3M31 42h3M26 43h1M28 43h1M30 43h1M32 43h1M24 44h1M26 44h1M23 45h1M26 45h1M25 46h1M28 46h1M30 46h1M33 46h2M25 47h1M28 47h2M22 48h1M25 48h1M22 49h1M25 49h1" />
<path stroke="#515953" d="M34 36h1M43 42h1M42 43h1M41 48h1" />
<path stroke="#f6c2d3" d="M37 36h2M36 37h4" />
<path stroke="#000000" d="M41 36h1" />
<path stroke="#001010" d="M42 36h1" />
<path stroke="#ce716b" d="M43 36h1M43 37h1" />
<path stroke="#6f5339" d="M40 37h1" />
<path stroke="#dea673" d="M41 37h1" />
<path stroke="#44302e" d="M42 37h1" />
<path stroke="#363e39" d="M29 38h1M29 39h1M26 40h3M30 40h2M28 41h2M31 41h1M26 42h1M27 43h1M25 44h1M27 44h1M24 45h2M27 45h1M24 46h1M26 46h2M29 46h1M24 47h1M26 47h2M23 48h2M23 49h2M22 50h1" />
<path stroke="#8e1f41" d="M30 38h1M31 39h1" />
<path stroke="#e57698" d="M31 38h1" />
<path stroke="#6a2f44" d="M32 38h1" />
<path stroke="#b57470" d="M36 38h1" />
<path stroke="#42384a" d="M37 38h1M36 39h1" />
<path stroke="#e686a3" d="M39 38h1M39 39h1" />
<path stroke="#8f2042" d="M40 38h1M41 39h1M44 50h1" />
<path stroke="#c45577" d="M41 38h1" />
<path stroke="#902143" d="M42 38h1M48 46h1M48 47h1M21 50h1" />
<path stroke="#080000" d="M43 38h1M49 47h1M36 50h1M16 51h1M21 51h1M36 51h1M42 53h2" />
<path stroke="#363d39" d="M26 39h2M32 40h1M32 41h2M26 48h2" />
<path stroke="#612c3b" d="M30 39h1" />
<path stroke="#39403b" d="M32 39h1" />
<path stroke="#ef9284" d="M37 39h1" />
<path stroke="#ff8090" d="M40 39h1M45 50h1" />
<path stroke="#ff798a" d="M23 40h1M39 40h1M22 41h2M38 41h2M21 42h2M38 42h1M41 42h2M21 43h1M39 43h1M41 43h1M43 43h1M20 44h2M41 44h1M43 44h1M20 45h1M41 45h2M20 46h1M42 46h1M44 46h2M20 47h1M42 47h2M45 47h1M19 48h1M37 48h1M40 48h1M43 48h1M45 48h2M18 49h2M37 49h1M41 49h1M43 49h1M45 49h2M18 50h2M40 50h1M46 50h2M18 51h1M40 51h2M46 51h1M40 52h2" />
<path stroke="#ff7586" d="M24 40h1M36 41h1M43 41h1M44 43h1M38 45h1M19 46h1M19 47h1M47 47h1" />
<path stroke="#861739" d="M25 40h1M39 45h1M47 46h1M28 48h1" />
<path stroke="#b3506a" d="M36 40h2M24 41h2M38 44h2M46 46h1M46 47h1" />
<path stroke="#ff7c8c" d="M40 40h2M40 41h2M36 42h2M36 43h2M36 44h2M44 44h2M36 45h2M44 45h2M36 46h6M36 47h6M38 48h2M38 49h2M38 50h2M42 50h2M38 51h2M42 51h2" />
<path stroke="#b4506a" d="M42 40h1M45 42h1" />
<path stroke="#394142" d="M43 40h1M42 41h1M44 42h1M45 43h1M40 44h1M42 49h1" />
<path stroke="#4a3839" d="M37 41h1" />
<path stroke="#262326" d="M25 42h1M24 43h1M23 46h1M22 47h1" />
<path stroke="#bc4d6f" d="M30 42h1M31 43h1M31 46h2M30 47h5" />
<path stroke="#524531" d="M34 42h1M35 43h1" />
<path stroke="#ffc9d5" d="M35 42h1" />
<path stroke="#39413c" d="M25 43h1M23 47h1" />
<path stroke="#ffcf42" d="M29 43h1M30 45h1" />
<path stroke="#b5be94" d="M34 43h1" />
<path stroke="#394152" d="M28 44h1M29 45h1" />
<path stroke="#f7cb52" d="M29 44h1" />
<path stroke="#c55678" d="M30 44h2M31 45h1" />
<path stroke="#cb5c7e" d="M32 44h2" />
<path stroke="#ffb65a" d="M34 44h1" />
<path stroke="#4a3452" d="M35 44h1M35 45h1" />
<path stroke="#424042" d="M19 45h1" />
<path stroke="#786f52" d="M28 45h1" />
<path stroke="#e07193" d="M32 45h1" />
<path stroke="#ffb642" d="M33 45h1" />
<path stroke="#a47556" d="M34 45h1" />
<path stroke="#b6516b" d="M40 45h1M42 48h1" />
<path stroke="#df7092" d="M18 46h1" />
<path stroke="#b14e68" d="M20 48h2M20 49h2" />
<path stroke="#bf5072" d="M29 48h1" />
<path stroke="#831436" d="M30 48h1" />
<path stroke="#e27395" d="M31 48h1M31 49h1" />
<path stroke="#e47597" d="M32 48h1" />
<path stroke="#bd4e70" d="M34 48h2M35 49h1" />
<path stroke="#000800" d="M28 49h2" />
<path stroke="#001008" d="M30 49h1" />
<path stroke="#ce6d6b" d="M50 49h2M39 52h1" />
<path stroke="#91929a" d="M16 50h1" />
<path stroke="#4c494d" d="M17 50h1" />
<path stroke="#ff7083" d="M37 50h1M42 52h1" />
<path stroke="#bd8162" d="M48 50h1" />
<path stroke="#4a3842" d="M49 50h1" />
<path stroke="#ff6f81" d="M17 51h1" />
<path stroke="#ba536d" d="M37 51h1M43 52h1" />
<path stroke="#9c405a" d="M44 51h1" />
<path stroke="#6d1832" d="M45 51h1" />
<path stroke="#a45351" d="M47 51h1" />
<path stroke="#f7a673" d="M48 51h2" />
<path stroke="#a75351" d="M16 52h2" />
<path stroke="#716668" d="M18 52h2" />
<path stroke="#eeae70" d="M38 52h1M38 53h2" />
<path stroke="#efaf70" d="M44 52h2M44 53h2" />
</svg>