<svg xmlns="http://www.w3.org/2000/svg" viewBox="0 -0.5 68 56" shape-rendering="crispEdges">
<metadata>Made with Pixels to Svg https://codepen.io/shshaw/pen/XbxvNj</metadata>
<path stroke="#000000" d="M39 19h2M37 20h2M41 20h1M34 21h3M41 21h1M30 22h4M41 22h1M26 23h4M42 23h1M23 24h3M42 24h1M22 25h1M41 25h1M21 26h1M41 26h1M21 27h1M42 27h1M21 28h1M42 28h1M22 29h2M42 29h1M23 30h1M36 30h3M42 30h1M24 31h1M35 31h1M39 31h3M23 32h1M35 32h1M23 33h1M36 33h1M39 33h2M48 33h2M23 34h1M38 34h1M41 34h1M49 34h1M22 35h1M28 35h1M39 35h2M44 35h2M48 35h1M21 36h1M37 36h2M43 36h1M48 36h1M20 37h1M36 37h1M42 37h1M20 38h1M37 38h1M41 38h1M47 38h1M20 39h1M23 39h1M37 39h1M40 39h1M48 39h1M18 40h2M22 40h1M24 40h1M28 40h1M38 40h2M48 40h1M17 41h1M20 41h2M25 41h1M27 41h1M29 41h1M48 41h1M18 42h2M26 42h2M29 42h1M28 43h1M48 43h1M28 44h1M45 44h3M27 45h1M38 45h2M44 45h1M27 46h1M37 46h1M40 46h1M44 46h1M28 47h1M36 47h1M41 47h1M45 47h1M28 48h1M31 48h1M36 48h1M45 48h1M25 49h3M30 49h1M37 49h1M41 49h1M45 49h1M24 50h1M29 50h1M33 50h1M36 50h1M40 50h1M45 50h1M25 51h4M32 51h1M37 51h1M41 51h4M31 52h1M35 52h2M32 53h3" />
<path stroke="#a68a44" d="M39 20h2M38 21h3M35 22h5M36 23h6M26 24h4M36 24h6M26 25h4M36 25h5M26 26h6M38 26h2M26 27h5M37 27h5M32 28h1M37 28h5M32 29h1M37 29h4M40 30h2M27 35h1M35 43h1M33 46h1M33 47h1" />
<path stroke="#a98843" d="M37 21h1M30 25h2M29 28h1M26 30h1M39 30h1M37 40h1M37 42h1M39 42h1M36 43h1M38 43h1M34 44h1M33 45h2M34 46h1M36 46h1" />
<path stroke="#424142" d="M34 22h1M34 23h2M35 24h1M32 25h1M35 25h1M32 26h1M35 26h3M31 27h2M36 27h1M33 28h1M36 28h1M33 29h1M36 29h1M41 29h1M26 32h1M29 33h2M24 34h1M26 34h2M24 35h1M26 35h1M25 36h5M35 36h1M34 37h1M43 37h1M33 38h2M32 39h1M34 39h2M29 40h3M35 40h2M40 40h2M30 41h1M36 41h1M31 42h2M34 42h2M40 42h1M30 43h1M32 43h1M34 43h1M40 43h1M30 44h1M33 44h1M44 44h1M32 45h1M32 46h1M32 47h1M34 47h2M44 50h1M33 51h1" />
<path stroke="#44494a" d="M40 22h1M40 26h1" />
<path stroke="#84645d" d="M30 23h2M36 38h1M36 39h1M26 40h2M26 41h1" />
<path stroke="#a5795a" d="M32 23h2M33 24h2M33 25h2M34 26h1M34 27h2M27 32h5M27 33h2M31 33h1M33 34h1M23 35h1M22 36h3M30 36h1M24 37h6M31 37h1M18 41h2M34 41h2M33 42h1M33 43h1" />
<path stroke="#4f4647" d="M30 24h2" />
<path stroke="#846652" d="M32 24h1M26 33h1M34 40h1" />
<path stroke="#bba031" d="M23 25h2M22 26h3M22 27h2M22 28h1M44 40h4M44 41h4" />
<path stroke="#5a4d26" d="M25 25h1" />
<path stroke="#605730" d="M25 26h1M24 27h1" />
<path stroke="#a57963" d="M33 26h1M29 31h1M32 38h1" />
<path stroke="#a98b42" d="M25 27h1" />
<path stroke="#846658" d="M33 27h1M33 39h1" />
<path stroke="#393b39" d="M23 28h1" />
<path stroke="#4a4142" d="M24 28h1M25 29h1" />
<path stroke="#ab8b43" d="M25 28h1" />
<path stroke="#a58846" d="M26 28h2M30 28h2M26 29h1M31 29h1" />
<path stroke="#63494a" d="M28 28h1M27 29h1M29 29h2M29 38h1" />
<path stroke="#a7795a" d="M34 28h2M34 29h2" />
<path stroke="#6d6868" d="M24 29h1" />
<path stroke="#706162" d="M28 29h1" />
<path stroke="#7b6563" d="M24 30h1M25 31h1M21 38h3" />
<path stroke="#524342" d="M25 30h1M21 39h2" />
<path stroke="#544647" d="M27 30h1M26 31h2" />
<path stroke="#42414a" d="M28 30h1" />
<path stroke="#84665a" d="M29 30h1M28 31h1" />
<path stroke="#a77a5a" d="M30 30h1M30 31h2M24 32h2M32 32h1M25 33h1M33 33h1M32 36h1M32 37h2M30 38h2M31 39h1" />
<path stroke="#5f4b49" d="M31 30h1M33 32h1M24 33h1M32 33h1M33 36h1M30 39h1" />
<path stroke="#948038" d="M32 30h1" />
<path stroke="#423c39" d="M33 30h1M33 31h1" />
<path stroke="#946d63" d="M34 30h2" />
<path stroke="#5a5757" d="M32 31h1" />
<path stroke="#624842" d="M34 31h1" />
<path stroke="#94825a" d="M34 32h1M34 33h2" />
<path stroke="#84635e" d="M25 34h1M25 35h1M28 38h1M35 38h1M28 39h2M31 41h1" />
<path stroke="#424042" d="M28 34h1M29 45h1M29 46h1M29 47h1M42 50h1" />
<path stroke="#6a522d" d="M29 34h1M29 35h1M29 44h1M37 44h1M28 45h1M28 46h1M30 46h1" />
<path stroke="#635752" d="M30 34h1" />
<path stroke="#a57d63" d="M31 34h1" />
<path stroke="#5e4a49" d="M32 34h1M32 35h2" />
<path stroke="#867554" d="M34 34h1" />
<path stroke="#9c865a" d="M35 34h1M34 35h1" />
<path stroke="#443e3f" d="M36 34h1M36 35h1" />
<path stroke="#000408" d="M37 34h1" />
<path stroke="#7e8468" d="M39 34h1M38 35h1" />
<path stroke="#8c7173" d="M40 34h1M36 36h1" />
<path stroke="#000008" d="M46 34h2" />
<path stroke="#4a5594" d="M48 34h1" />
<path stroke="#42454a" d="M30 35h2" />
<path stroke="#5a554a" d="M35 35h1" />
<path stroke="#897876" d="M37 35h1" />
<path stroke="#b29e59" d="M46 35h1" />
<path stroke="#4c558e" d="M47 35h1" />
<path stroke="#836360" d="M31 36h1M22 37h2M30 37h1" />
<path stroke="#584d4a" d="M34 36h1" />
<path stroke="#a99443" d="M44 36h1M41 39h1" />
<path stroke="#4e5790" d="M45 36h2M44 37h2M44 38h1" />
<path stroke="#b2a24c" d="M47 36h1M46 37h1M45 42h1" />
<path stroke="#7f635e" d="M21 37h1M25 40h1" />
<path stroke="#84655a" d="M35 37h1" />
<path stroke="#000010" d="M47 37h1M47 42h1" />
<path stroke="#83645f" d="M24 38h4M24 39h4" />
<path stroke="#4d5791" d="M42 38h2M42 39h2" />
<path stroke="#bba230" d="M45 38h2M44 39h4" />
<path stroke="#8f8556" d="M20 40h2" />
<path stroke="#4a3c42" d="M32 40h1" />
<path stroke="#7b925a" d="M33 40h1M33 41h1" />
<path stroke="#5c5839" d="M42 40h1" />
<path stroke="#bba33c" d="M43 40h1M43 41h1" />
<path stroke="#6a7552" d="M32 41h1" />
<path stroke="#5f502b" d="M37 41h1M32 44h1M35 46h1" />
<path stroke="#a58746" d="M38 41h1M38 44h1" />
<path stroke="#44474a" d="M39 41h1M39 44h1" />
<path stroke="#5e615e" d="M40 41h2M41 42h1M41 43h1M41 46h1M41 50h1" />
<path stroke="#393c5a" d="M42 41h1" />
<path stroke="#625429" d="M30 42h1M29 43h1M31 43h1M31 44h1M30 45h2" />
<path stroke="#655025" d="M36 42h1M38 42h1M37 43h1M39 43h1M35 44h1M35 45h1" />
<path stroke="#524d6d" d="M42 42h1M42 43h1" />
<path stroke="#39494a" d="M43 42h1" />
<path stroke="#897b39" d="M44 42h1" />
<path stroke="#a8a362" d="M46 42h1" />
<path stroke="#8455b5" d="M43 43h1" />
<path stroke="#393c63" d="M44 43h1" />
<path stroke="#575642" d="M45 43h1" />
<path stroke="#5b5b43" d="M46 43h2" />
<path stroke="#a58845" d="M36 44h1M36 45h2M31 46h1M30 47h2" />
<path stroke="#5f615f" d="M40 44h2M40 45h2" />
<path stroke="#4c5173" d="M42 44h2M42 45h1" />
<path stroke="#8451b5" d="M43 45h1" />
<path stroke="#4f525f" d="M42 46h1" />
<path stroke="#4a517b" d="M43 46h1" />
<path stroke="#545344" d="M42 47h2" />
<path stroke="#524f46" d="M44 47h1" />
<path stroke="#4e694a" d="M29 48h2M28 49h2M25 50h1M28 50h1" />
<path stroke="#3d4935" d="M32 48h2" />
<path stroke="#5a6457" d="M34 48h2M34 49h1" />
<path stroke="#081400" d="M42 48h1" />
<path stroke="#8c65aa" d="M43 48h1" />
<path stroke="#524f44" d="M44 48h1M44 49h1" />
<path stroke="#080008" d="M32 49h1" />
<path stroke="#739263" d="M33 49h1" />
<path stroke="#73965a" d="M35 49h2M34 50h2M36 51h1M34 52h1" />
<path stroke="#4a3c55" d="M42 49h2" />
<path stroke="#364336" d="M26 50h1" />
<path stroke="#526552" d="M27 50h1" />
<path stroke="#636163" d="M43 50h1" />
<path stroke="#4e6949" d="M34 51h2" />
<path stroke="#739a63" d="M32 52h1" />
<path stroke="#4c6642" d="M33 52h1" />
</svg>