<svg xmlns="http://www.w3.org/2000/svg" viewBox="0 -0.5 68 56" shape-rendering="crispEdges">
<metadata>Made with Pixels to Svg https://codepen.io/shshaw/pen/XbxvNj</metadata>
<path stroke="#000000" d="M34 20h3M30 21h4M37 21h3M27 22h3M40 22h2M25 23h2M42 23h1M24 24h1M40 24h2M43 24h1M23 25h1M40 25h1M42 25h1M44 25h1M23 26h3M40 26h1M43 26h1M45 26h1M26 27h1M41 27h1M44 27h1M46 27h1M26 28h1M41 28h1M44 28h1M46 28h1M25 29h1M41 29h1M45 29h1M47 29h1M25 30h1M41 30h1M45 30h1M47 30h1M24 31h1M40 31h1M45 31h1M47 31h1M23 32h1M39 32h1M46 32h1M48 32h1M23 33h1M39 33h1M46 33h1M48 33h1M20 34h3M24 34h1M38 34h1M46 34h1M48 34h1M18 35h2M23 35h1M38 35h1M46 35h1M48 35h1M17 36h1M38 36h1M45 36h1M47 36h1M17 37h1M38 37h1M45 37h1M47 37h1M16 38h1M39 38h1M44 38h1M46 38h3M16 39h1M18 39h2M33 39h1M39 39h1M42 39h2M49 39h2M16 40h2M20 40h1M40 40h2M51 40h2M21 41h1M53 41h1M22 42h1M54 42h1M22 43h1M50 43h4M23 44h1M48 44h2M24 45h3M47 45h1M18 46h4M26 46h1M46 46h1M17 47h1M22 47h1M26 47h1M44 47h2M18 48h1M23 48h1M26 48h1M39 48h5M19 49h1M24 49h2M28 49h1M38 49h1M20 50h3M26 50h2M29 50h2M36 50h2M23 51h3M31 51h5" />
<path stroke="#b49c5a" d="M34 21h2M38 22h2M40 23h2M42 24h1M31 40h1" />
<path stroke="#525a52" d="M36 21h1M33 22h3" />
<path stroke="#8e795f" d="M30 22h1M27 23h2M32 23h1M25 24h3M31 24h1M24 25h2M30 25h1M30 26h1M37 26h1M29 27h1M38 27h1M29 28h1M22 36h3M21 37h2M24 37h2M20 38h4M25 38h2M20 39h5M26 39h1M21 40h5M27 40h1M22 41h4M27 41h1M42 41h4M23 42h4M40 42h2M23 43h4M39 43h1M24 44h3M38 44h1" />
<path stroke="#c4af95" d="M31 22h2M36 22h1M29 23h3M33 23h5M29 24h2M32 24h7M28 25h2M31 25h9M27 26h3M31 26h6M38 26h2M27 27h2M30 27h7M39 27h2M27 28h2M30 28h6M39 28h2M27 29h9M40 29h1M28 30h7M40 30h1M28 31h4M28 32h1M44 39h4M43 40h6M48 41h2M42 42h8M41 43h8M41 44h7M41 45h6M42 46h3" />
<path stroke="#414141" d="M37 22h1M38 23h2M28 24h1M39 24h1M26 25h2M26 26h1M37 27h1M36 28h3M26 29h1M36 29h1M38 29h2M27 30h1M35 30h1M39 30h1M27 31h1M32 31h5M39 31h1M26 32h2M29 32h8M47 32h1M26 33h1M28 33h9M47 33h1M28 34h5M34 34h2M47 34h1M24 35h1M28 35h4M47 35h1M25 36h1M37 36h1M46 36h1M26 37h2M35 37h2M46 37h1M27 38h8M45 38h1M27 39h1M28 40h1M28 41h1M39 41h1M28 42h1M38 42h1M27 43h1M38 43h1M27 44h1M37 44h1M37 45h1M37 46h1M38 47h1M27 48h1M23 49h1" />
<path stroke="#83735a" d="M43 25h1M44 26h1M45 27h1M45 28h1M46 29h1M46 30h1M46 31h1M26 49h2M23 50h3" />
<path stroke="#799ee8" d="M37 29h1M26 30h1M36 30h3M37 31h2M38 32h1M26 34h1M27 35h1M34 35h1M32 36h2" />
<path stroke="#b2ceff" d="M25 31h2M24 32h2M37 32h1M24 33h2M37 33h2M25 34h1M36 34h2M25 35h2M35 35h3M26 36h6M34 36h3M28 37h7" />
<path stroke="#ffffff" d="M27 33h1M27 34h1M33 34h1M32 35h2M35 38h1M31 39h2M34 39h2M32 40h3" />
<path stroke="#a48f75" d="M20 35h3M18 36h4M18 37h3M17 38h3M17 39h1M48 39h1M42 40h1M49 40h2M40 41h2M46 41h2M50 41h3M39 42h1M50 42h4M40 43h1M49 43h1M39 44h2M38 45h3M38 46h4M45 46h1M39 47h5" />
<path stroke="#6b563c" d="M23 37h1M24 38h1M25 39h1M26 40h1M26 41h1M27 42h1" />
<path stroke="#9ece55" d="M37 37h1M37 38h2M36 39h3M29 40h2M35 40h1M37 40h3M37 41h2M37 42h1M36 43h2M36 44h1M36 45h1M35 46h2M34 47h4M21 48h2M32 48h3M37 48h2M20 49h3M29 49h5M36 49h2M31 50h5" />
<path stroke="#9c834a" d="M36 38h1M29 39h2" />
<path stroke="#d5d5d5" d="M28 39h1" />
<path stroke="#bcff5d" d="M36 40h1M29 41h8M29 42h8M28 43h8M28 44h1M30 44h4M27 45h6M35 45h1M27 46h8M18 47h4M27 47h4M32 47h2M19 48h2M28 48h4" />
<path stroke="#d7c2a8" d="M29 44h1M34 44h2M33 45h2M31 47h1" />
<path stroke="#a89379" d="M35 48h2M34 49h2" />
</svg>