<svg xmlns="http://www.w3.org/2000/svg" viewBox="0 -0.5 68 56" shape-rendering="crispEdges">
<metadata>Made with Pixels to Svg https://codepen.io/shshaw/pen/XbxvNj</metadata>
<path stroke="#000000" d="M27 21h7M24 22h3M34 22h3M23 23h1M37 23h2M42 23h7M20 24h3M39 24h3M49 24h2M18 25h2M51 25h1M17 26h1M52 26h1M16 27h1M52 27h1M16 28h1M52 28h1M16 29h1M51 29h1M17 30h1M52 30h1M17 31h1M53 31h1M16 32h1M53 32h1M16 33h1M53 33h1M16 34h1M52 34h1M17 35h1M50 35h2M18 36h1M47 36h3M19 37h2M43 37h4M21 38h4M42 38h1M25 39h1M42 39h1M22 40h3M42 40h1M21 41h1M43 41h2M21 42h1M25 42h2M45 42h3M22 43h3M27 43h1M42 43h1M48 43h1M27 44h1M41 44h1M43 44h1M48 44h1M28 45h1M40 45h1M44 45h4M29 46h1M39 46h1M27 47h2M33 47h4M39 47h1M26 48h1M32 48h1M37 48h1M40 48h1M26 49h1M30 49h2M36 49h1M41 49h1M27 50h3M36 50h1M41 50h1M37 51h1M41 51h1M38 52h3" />
<path stroke="#f9ccba" d="M27 22h1M29 22h1M42 24h1M45 24h1M20 26h1M22 26h1M25 26h2M46 26h1M49 26h1M40 28h1M25 29h1M28 29h1M44 29h1M47 29h1M23 31h1M30 31h1M33 31h1M40 31h1M47 31h1M49 31h1M28 32h1M32 32h1M43 32h1M30 34h1M33 34h1" />
<path stroke="#ffe6de" d="M28 22h1M43 24h2M21 26h1M47 26h2M39 28h1M26 29h2M45 29h2M22 31h1M31 31h2M41 31h2M48 31h1M23 32h2M29 32h3M41 32h2M31 34h2" />
<path stroke="#ffa270" d="M30 22h2M25 23h5M46 24h1M20 25h5M40 25h8M19 26h1M23 26h2M27 26h1M41 26h5M20 27h7M27 28h4M41 28h6M23 29h2M29 29h5M37 29h7M48 29h1M22 30h14M37 30h13M21 31h1M24 31h6M34 31h3M38 31h2M43 31h4M22 32h1M25 32h3M33 32h4M39 32h2M44 32h3M25 33h11M40 33h4M28 34h2M34 34h1" />
<path stroke="#414141" d="M32 22h2M30 23h2M23 24h2M29 24h1M25 25h5M39 25h1M28 26h1M40 26h1M27 27h4M39 27h8M23 28h4M31 28h3M37 28h2M47 28h3M20 29h3M34 29h3M50 29h1M18 30h2M36 30h1M37 31h1M38 32h1M38 33h1M39 34h1M39 35h1M39 36h2M38 37h1M41 37h2M35 38h3M26 39h9M26 40h1M26 41h1M29 42h1M33 42h1M30 43h3M30 46h1M38 46h1M31 47h2M37 47h1M27 49h1M40 51h1" />
<path stroke="#f3884a" d="M24 23h1M25 24h4M47 24h2M48 25h3M18 26h1M50 26h2M17 27h3M47 27h5M17 28h6M50 28h1M17 29h3M49 29h1M20 30h2M50 30h2M18 31h3M50 31h3M17 32h5M37 32h1M47 32h6M17 33h8M36 33h2M44 33h8M18 34h10M35 34h3M41 34h10M19 35h18M42 35h7M20 36h16M22 37h12M25 38h5" />
<path stroke="#ffa452" d="M32 23h5M31 24h1M37 24h1M30 25h9M32 26h5" />
<path stroke="#c59441" d="M30 24h1M38 24h1M29 26h3M37 26h3M31 27h8M34 28h3" />
<path stroke="#d56a41" d="M32 24h5" />
<path stroke="#ca5129" d="M51 28h1M39 33h1M52 33h1M17 34h1M38 34h1M40 34h1M51 34h1M18 35h1M37 35h2M40 35h2M49 35h1M19 36h1M36 36h3M41 36h6M21 37h1M34 37h4M30 38h5" />
<path stroke="#009a2f" d="M39 37h2M38 38h4M35 39h4M40 39h2M25 40h1M37 40h1M39 40h1M41 40h1M22 41h4M38 41h1M40 41h3M22 42h3M38 42h5M38 43h4M47 43h1M28 44h1M37 44h4M44 44h1M29 45h1M35 45h5M31 46h7M29 47h2M38 47h1M27 48h5M38 48h2M28 49h2M37 49h1M40 49h1" />
<path stroke="#4bc963" d="M39 39h1M27 40h1M29 40h8M38 40h1M40 40h1M27 41h7M35 41h3M39 41h1M27 42h2M30 42h3M34 42h4M43 42h2M28 43h2M33 43h5M43 43h4M29 44h8M45 44h3M30 45h5M38 49h2M37 50h4M38 51h2" />
<path stroke="#e16840" d="M28 40h1M34 41h1" />
</svg>