<svg xmlns="http://www.w3.org/2000/svg" viewBox="0 -0.5 68 56" shape-rendering="crispEdges">
<metadata>Made with Pixels to Svg https://codepen.io/shshaw/pen/XbxvNj</metadata>
<path stroke="#000000" d="M35 8h2M34 9h1M37 9h1M23 10h2M34 10h1M37 10h1M22 11h1M25 11h1M34 11h1M37 11h1M22 12h1M25 12h1M33 12h1M37 12h1M22 13h1M25 13h1M31 13h2M37 13h1M22 14h1M26 14h2M30 14h1M38 14h1M46 14h2M22 15h1M28 15h1M30 15h1M38 15h1M45 15h1M48 15h1M21 16h1M28 16h1M30 16h1M38 16h1M45 16h1M48 16h1M21 17h1M28 17h1M30 17h1M38 17h1M41 17h4M47 17h1M21 18h1M29 18h1M37 18h1M47 18h1M16 19h2M21 19h1M37 19h1M39 19h1M46 19h1M15 20h1M18 20h1M22 20h1M36 20h1M38 20h1M46 20h1M15 21h1M19 21h3M37 21h1M46 21h1M16 22h1M46 22h1M17 23h1M45 23h1M17 24h1M44 24h1M17 25h1M45 25h2M49 25h2M18 26h1M48 26h1M51 26h1M19 27h1M51 27h1M19 28h1M50 28h1M18 29h1M48 29h2M47 30h1M47 31h1M18 32h1M44 32h3M17 33h1M41 33h3M17 34h1M39 34h2M18 35h1M38 35h1M19 36h1M23 36h1M25 36h1M40 36h3M19 37h1M24 37h1M38 37h2M43 37h1M20 38h2M41 38h2M22 39h1M38 39h3M21 40h1M36 40h1M19 41h2M23 41h1M37 41h2M48 41h2M18 42h1M22 42h1M32 42h1M35 42h1M40 42h2M47 42h1M49 42h1M19 43h3M23 43h1M33 43h1M42 43h2M45 43h2M48 43h1M50 43h1M22 44h1M30 44h1M32 44h2M35 44h1M49 44h1M51 44h1M21 45h1M30 45h1M34 45h1M50 45h1M22 46h1M30 46h1M32 46h2M41 46h3M48 46h2M22 47h1M31 47h1M40 47h1M44 47h4M22 48h1M39 48h1M23 49h1M38 49h1M24 50h1M37 50h1M25 51h2M34 51h3M27 52h7" />
<path stroke="#fffff2" d="M35 9h2M23 11h2M33 13h1M18 21h1M17 22h1" />
<path stroke="#fffffd" d="M35 10h2M35 11h2M23 12h2M36 12h1M23 13h2M36 13h1M23 14h1M31 14h1M23 15h1M26 15h2M31 15h1M34 15h2M46 15h2M46 16h2M24 17h2M44 18h1M45 19h1M16 20h2M16 21h2M49 26h2M48 27h3M48 28h2" />
<path stroke="#fffffb" d="M34 12h2M34 13h1M24 14h2M36 14h2M25 15h1M37 15h1M22 16h2M22 17h1M27 24h2M22 25h2M26 25h3" />
<path stroke="#929a9e" d="M35 13h1M24 15h1M36 15h1M23 17h1" />
<path stroke="#ffffff" d="M32 14h1M33 15h1M26 16h2M37 16h1M27 17h1M45 17h2M41 18h3M46 18h1M45 20h1M45 21h1M24 25h2M23 26h1M46 26h1M22 27h1M47 27h1M22 28h1M21 29h1M32 29h2M21 30h1M33 30h1M21 31h1M21 32h1M30 39h2M30 40h1M27 47h1M26 48h3M27 49h1" />
<path stroke="#6ea998" d="M33 14h1" />
<path stroke="#93969e" d="M34 14h2M24 16h2M45 18h1M44 19h1" />
<path stroke="#1cb88c" d="M32 15h1M42 19h1M44 21h1" />
<path stroke="#d6d6d6" d="M31 16h1M31 17h1M30 18h4M36 18h1M30 19h4M36 19h1M34 20h2M39 20h1M34 21h2M38 21h2M38 22h4M44 22h2M38 23h4M44 23h1M40 24h3M31 25h1M40 25h1M43 25h2M19 26h1M22 26h1M24 26h2M32 26h2M41 26h1M24 27h2M33 27h1M40 27h2M34 28h2M42 28h2M35 29h1M42 29h2M22 30h2M36 30h1M46 30h1M22 31h2M36 31h2M46 31h1M29 32h2M36 32h2M28 33h1M36 33h2M20 34h2M34 34h4M21 35h1M34 35h4M26 36h4M26 37h4M40 43h2M38 44h2M35 45h1M38 45h2M32 47h2M34 48h2M34 49h2" />
<path stroke="#72c4ad" d="M32 16h1M35 17h1M26 18h1M24 19h1M41 20h1M22 22h1M43 22h1M42 27h1M43 30h1" />
<path stroke="#d5d5d5" d="M33 16h2M33 17h2M22 18h1M24 18h2M27 18h2M34 18h1M22 19h2M25 19h2M28 19h1M34 19h2M23 20h2M26 20h2M30 20h1M32 20h2M40 20h1M42 20h1M23 21h3M41 21h3M19 22h3M37 22h1M42 22h1M18 23h1M37 23h1M43 23h1M18 24h1M38 24h2M18 25h2M39 25h1M26 26h1M44 26h2M23 27h1M45 27h1M23 28h2M40 28h1M44 28h1M47 28h1M22 29h2M41 29h1M44 29h1M46 29h2M20 30h1M35 30h1M42 30h1M45 30h1M20 31h1M35 31h1M43 31h3M22 32h2M35 32h1M22 33h1M24 33h1M34 33h2M23 34h1M32 34h2M22 35h2M31 35h1M30 36h2M34 36h2M26 38h2M27 39h1M27 40h1M29 44h1M36 44h2M40 44h4M47 44h1M29 45h1M36 45h1M40 45h1M34 46h1M37 46h3M34 47h4M32 48h2M36 48h2M33 49h1" />
<path stroke="#08b080" d="M35 16h1M43 27h1M29 38h1" />
<path stroke="#14ac81" d="M36 16h1M26 17h1M30 30h1M26 32h1" />
<path stroke="#7f9e95" d="M32 17h1M27 19h1M40 21h1M42 23h1M42 31h1" />
<path stroke="#dedcde" d="M36 17h2" />
<path stroke="#08ac7e" d="M23 18h1M30 26h1M30 27h2M19 29h1M29 30h1M44 30h1M28 31h2M24 32h2M25 33h1M32 35h2M32 36h2M30 37h6M40 37h3M25 38h1M32 38h2M38 38h3M25 39h2M33 39h1M25 40h2M28 40h1M25 41h5M36 41h1M26 42h4M26 43h4M32 43h1M27 44h2M26 45h1M28 45h1M24 46h1M28 46h2M25 47h1M29 47h2M31 48h1" />
<path stroke="#8c8b99" d="M35 18h1M25 20h1M31 20h1M26 21h2M30 21h4M18 22h1M26 22h3M34 22h1M19 23h3M26 23h1M29 23h1M34 23h1M19 24h1M21 24h1M32 24h2M35 24h1M34 25h2M38 25h1M44 27h1M39 28h1M41 28h1M45 28h2M38 29h3M45 29h1M38 30h2M39 31h1M34 32h1M39 32h1M23 33h1M39 33h1M22 34h1M29 34h3M28 35h3M20 36h1M20 37h2" />
<path stroke="#080408" d="M40 18h1" />
<path stroke="#353431" d="M29 19h1M22 21h1" />
<path stroke="#c6c6c6" d="M40 19h2" />
<path stroke="#70a898" d="M43 19h1M44 20h1" />
<path stroke="#d1d1d1" d="M28 20h1M24 22h1M39 26h1M34 27h1M36 29h1M41 30h1M27 35h1" />
<path stroke="#313031" d="M29 20h1M29 21h1M36 21h1M29 22h1M35 22h1M24 23h2M27 23h2M35 23h1M22 24h2M26 24h1M29 24h3M34 24h1M43 24h1M21 25h1M29 25h1M32 25h2M41 25h2M20 26h1M34 26h1M40 26h1M32 27h1M35 27h1M39 27h1M33 28h1M36 28h1M38 28h1M31 29h1M34 29h1M37 29h1M31 30h1M37 30h1M30 31h1M32 31h2M38 31h1M41 31h1M27 32h1M31 32h1M38 32h1M29 33h2M38 33h1M27 34h2M38 34h1M20 35h1M26 35h1M21 36h1" />
<path stroke="#fffff7" d="M43 20h1M24 24h2M27 26h1" />
<path stroke="#939c9b" d="M28 21h1M25 22h1M30 25h1M31 26h1M35 26h1M38 26h1M38 27h1M37 28h1M40 30h1M40 31h1M26 34h1" />
<path stroke="#313038" d="M23 22h1M23 23h1" />
<path stroke="#8a8a9c" d="M30 22h4M30 23h4M36 24h2M36 25h2M36 26h2M36 27h2M32 32h2M31 33h3M20 42h2" />
<path stroke="#2e3031" d="M36 22h1M34 30h1" />
<path stroke="#41967e" d="M22 23h1" />
<path stroke="#9a9a96" d="M36 23h1M34 31h1" />
<path stroke="#2e8a7d" d="M20 24h1" />
<path stroke="#3d857d" d="M20 25h1" />
<path stroke="#b1bcbb" d="M21 26h1M28 26h1M21 27h1M26 27h2M21 28h1M25 28h1M20 29h1M24 29h1M28 32h1" />
<path stroke="#09ad7f" d="M29 26h1M29 27h1" />
<path stroke="#d2d2d2" d="M42 26h2M28 38h1M28 39h1" />
<path stroke="#000307" d="M47 26h1M18 30h1M18 31h1" />
<path stroke="#1fb386" d="M20 27h1" />
<path stroke="#328e81" d="M28 27h1" />
<path stroke="#b6b6b6" d="M46 27h1" />
<path stroke="#f6fdcd" d="M20 28h1M26 28h3M25 29h4M25 30h3" />
<path stroke="#427676" d="M29 28h1M29 29h1M26 31h2" />
<path stroke="#07ae7f" d="M30 28h2M34 40h1M35 41h1M25 42h1M25 43h1" />
<path stroke="#a19a96" d="M32 28h1" />
<path stroke="#3c6460" d="M30 29h1" />
<path stroke="#1cbb8e" d="M19 30h1" />
<path stroke="#258678" d="M24 30h1M24 31h2" />
<path stroke="#288b81" d="M28 30h1M24 39h1M32 39h1M24 40h1M29 40h1M24 41h1M26 44h1M27 45h1M28 47h1M30 48h1M30 49h2" />
<path stroke="#d8d8d8" d="M32 30h1" />
<path stroke="#097a67" d="M19 31h1" />
<path stroke="#386561" d="M31 31h1M27 33h1" />
<path stroke="#959799" d="M19 32h1M41 32h1M18 33h1M40 33h1M18 34h1M19 35h1M22 37h2M23 38h1M22 40h1M23 44h1M22 45h1" />
<path stroke="#acbeb9" d="M20 32h1M20 33h2" />
<path stroke="#303132" d="M40 32h1M19 33h1M19 34h1M22 36h1M22 38h1M23 39h1M23 40h1M22 41h1M23 45h1" />
<path stroke="#343431" d="M42 32h1" />
<path stroke="#d1daca" d="M43 32h1" />
<path stroke="#818696" d="M26 33h1" />
<path stroke="#93989c" d="M24 34h1" />
<path stroke="#dae3e8" d="M25 34h1" />
<path stroke="#080808" d="M24 35h1M37 36h1M33 41h1" />
<path stroke="#28292a" d="M25 35h1" />
<path stroke="#08755d" d="M36 36h1M32 41h1" />
<path stroke="#d4d5d6" d="M25 37h1" />
<path stroke="#0fb586" d="M36 37h2M32 40h2" />
<path stroke="#022f21" d="M24 38h1" />
<path stroke="#238a79" d="M30 38h2M48 42h1M47 43h1M48 44h1M50 44h1M48 45h2M23 46h1M40 46h1M44 46h4M23 47h1M29 48h1M38 48h1M26 49h1M28 49h2M25 50h3M34 50h3M27 51h1" />
<path stroke="#1db88c" d="M34 38h1" />
<path stroke="#268c72" d="M35 38h1M35 39h1" />
<path stroke="#13372d" d="M36 38h1M30 43h1" />
<path stroke="#199881" d="M37 38h1M36 39h1M30 42h2" />
<path stroke="#2c8778" d="M29 39h1" />
<path stroke="#313438" d="M34 39h1M24 44h1" />
<path stroke="#000007" d="M37 39h1M31 43h1" />
<path stroke="#1a9684" d="M31 40h1M30 41h2M26 46h2M26 47h1" />
<path stroke="#113c2f" d="M35 40h1M24 43h1" />
<path stroke="#848597" d="M21 41h1M19 42h1" />
<path stroke="#00000e" d="M34 41h1M24 42h1M39 42h1M36 43h1M44 44h1" />
<path stroke="#143c34" d="M36 42h1M37 43h1" />
<path stroke="#16aa80" d="M37 42h1" />
<path stroke="#2fa881" d="M38 42h1" />
<path stroke="#1c3b35" d="M38 43h1" />
<path stroke="#26715a" d="M39 43h1" />
<path stroke="#11b284" d="M25 44h1M24 45h1" />
<path stroke="#458b86" d="M45 44h1" />
<path stroke="#2a8c80" d="M46 44h1M46 45h2M24 48h2M24 49h1M28 50h1M30 50h4M29 51h1M31 51h3" />
<path stroke="#208a6b" d="M25 45h1" />
<path stroke="#268a7c" d="M37 45h1M41 45h1M35 46h2M38 47h2M32 49h1M36 49h2" />
<path stroke="#2d8d82" d="M42 45h2" />
<path stroke="#304d47" d="M44 45h2" />
<path stroke="#218e6c" d="M25 46h1" />
<path stroke="#4a4f51" d="M24 47h1" />
<path stroke="#42434b" d="M23 48h1" />
<path stroke="#484b4d" d="M25 49h1M29 50h1M28 51h1M30 51h1" />
</svg>