<svg xmlns="http://www.w3.org/2000/svg" viewBox="0 -0.5 96 96" shape-rendering="crispEdges">
<metadata>Made with Pixels to Svg https://codepen.io/shshaw/pen/XbxvNj</metadata>
<path stroke="#181010" d="M34 34h2M34 35h2M36 36h2M36 37h2M32 38h2M38 38h2M32 39h2M38 39h2M30 40h2M40 40h6M30 41h2M40 41h6M30 42h2M34 42h2M44 42h2M48 42h4M30 43h2M34 43h2M44 43h2M48 43h4M30 44h2M34 44h2M46 44h2M54 44h2M30 45h2M34 45h2M46 45h2M54 45h2M30 46h2M34 46h2M50 46h2M58 46h2M66 46h4M30 47h2M34 47h2M50 47h2M58 47h2M66 47h4M28 48h4M34 48h2M54 48h2M60 48h2M64 48h2M70 48h2M28 49h4M34 49h2M54 49h2M60 49h2M64 49h2M70 49h2M26 50h4M36 50h2M56 50h2M62 50h2M70 50h2M26 51h4M36 51h2M56 51h2M62 51h2M70 51h2M24 52h2M28 52h2M36 52h2M62 52h2M68 52h2M24 53h2M28 53h2M36 53h2M62 53h2M68 53h2M22 54h2M26 54h2M36 54h2M58 54h2M62 54h2M70 54h2M22 55h2M26 55h2M36 55h2M58 55h2M62 55h2M70 55h2M20 56h2M26 56h2M38 56h2M58 56h2M62 56h2M68 56h2M72 56h2M20 57h2M26 57h2M38 57h2M58 57h2M62 57h2M68 57h2M72 57h2M20 58h2M24 58h2M38 58h2M58 58h2M62 58h2M66 58h2M70 58h4M20 59h2M24 59h2M38 59h2M58 59h2M62 59h2M66 59h2M70 59h4M20 60h2M24 60h2M38 60h2M58 60h6M68 60h6M20 61h2M24 61h2M38 61h2M58 61h6M68 61h6M20 62h2M24 62h2M40 62h2M58 62h4M68 62h4M74 62h2M20 63h2M24 63h2M40 63h2M58 63h4M68 63h4M74 63h2M20 64h2M24 64h2M40 64h2M56 64h4M74 64h2M20 65h2M24 65h2M40 65h2M56 65h4M74 65h2M20 66h2M26 66h2M42 66h2M54 66h6M64 66h8M20 67h2M26 67h2M42 67h2M54 67h6M64 67h8M22 68h2M28 68h2M44 68h2M50 68h8M68 68h2M22 69h2M28 69h2M44 69h2M50 69h8M68 69h2M24 70h2M30 70h26M66 70h2M24 71h2M30 71h26M66 71h2" />
<path stroke="#48a058" d="M32 36h2M32 37h2M30 38h2M30 39h2M34 40h2M46 40h2M34 41h2M46 41h2M52 42h2M52 43h2M36 44h2M56 44h2M36 45h2M56 45h2M36 46h2M52 46h2M36 47h2M52 47h2M36 48h4M36 49h4M30 50h2M38 50h2M30 51h2M38 51h2M26 52h2M38 52h2M58 52h2M26 53h2M38 53h2M58 53h2M24 54h2M28 54h2M38 54h4M24 55h2M28 55h2M38 55h4M22 56h4M28 56h2M36 56h2M40 56h2M22 57h4M28 57h2M36 57h2M40 57h2M26 58h4M36 58h2M40 58h4M26 59h4M36 59h2M40 59h4M26 60h4M40 60h4M66 60h2M26 61h4M40 61h4M66 61h2M26 62h4M38 62h2M42 62h4M56 62h2M62 62h6M72 62h2M26 63h4M38 63h2M42 63h4M56 63h2M62 63h6M72 63h2M26 64h6M38 64h2M42 64h6M54 64h2M60 64h14M26 65h6M38 65h2M42 65h6M54 65h2M60 65h14M24 66h2M28 66h6M40 66h2M44 66h10M60 66h2M72 66h2M24 67h2M28 67h6M40 67h2M44 67h10M60 67h2M72 67h2M26 68h2M30 68h8M46 68h4M58 68h6M66 68h2M26 69h2M30 69h8M46 69h4M58 69h6M66 69h2M28 70h2M56 70h6M64 70h2M28 71h2M56 71h6M64 71h2" />
<path stroke="#ffffff" d="M34 36h2M34 37h2M34 38h4M34 39h4M36 40h4M36 41h4M36 42h4M36 43h4M40 44h4M50 44h4M40 45h4M50 45h4M42 46h6M56 46h2M42 47h6M56 47h2M44 48h10M58 48h2M66 48h4M44 49h10M58 49h2M66 49h4M32 50h2M46 50h8M60 50h2M64 50h6M32 51h2M46 51h8M60 51h2M64 51h6M32 52h2M48 52h8M64 52h4M32 53h2M48 53h8M64 53h4M32 54h2M50 54h8M64 54h2M32 55h2M50 55h8M64 55h2M32 56h4M50 56h8M70 56h2M32 57h4M50 57h8M70 57h2M32 58h4M50 58h8M68 58h2M32 59h4M50 59h8M68 59h2M32 60h4M52 60h6M32 61h4M52 61h6M22 62h2M32 62h4M22 63h2M32 63h4M22 64h2M34 64h4M22 65h2M34 65h4M36 66h2M36 67h2M38 68h2M38 69h2" />
<path stroke="#a0d080" d="M32 40h2M32 41h2M32 42h2M40 42h4M46 42h2M32 43h2M40 43h4M46 43h2M32 44h2M38 44h2M44 44h2M48 44h2M32 45h2M38 45h2M44 45h2M48 45h2M32 46h2M38 46h4M48 46h2M54 46h2M32 47h2M38 47h4M48 47h2M54 47h2M32 48h2M40 48h4M56 48h2M32 49h2M40 49h4M56 49h2M34 50h2M40 50h6M54 50h2M58 50h2M34 51h2M40 51h6M54 51h2M58 51h2M30 52h2M34 52h2M40 52h8M56 52h2M60 52h2M30 53h2M34 53h2M40 53h8M56 53h2M60 53h2M30 54h2M34 54h2M42 54h8M60 54h2M66 54h4M30 55h2M34 55h2M42 55h8M60 55h2M66 55h4M30 56h2M42 56h8M60 56h2M64 56h4M30 57h2M42 57h8M60 57h2M64 57h4M22 58h2M30 58h2M44 58h6M60 58h2M64 58h2M22 59h2M30 59h2M44 59h6M60 59h2M64 59h2M22 60h2M30 60h2M36 60h2M44 60h8M64 60h2M22 61h2M30 61h2M36 61h2M44 61h8M64 61h2M30 62h2M36 62h2M46 62h10M30 63h2M36 63h2M46 63h10M32 64h2M48 64h6M32 65h2M48 65h6M22 66h2M34 66h2M38 66h2M62 66h2M22 67h2M34 67h2M38 67h2M62 67h2M24 68h2M40 68h4M64 68h2M24 69h2M40 69h4M64 69h2M26 70h2M62 70h2M26 71h2M62 71h2" />
</svg>