<svg xmlns="http://www.w3.org/2000/svg" viewBox="0 -0.5 96 96" shape-rendering="crispEdges">
<metadata>Made with Pixels to Svg https://codepen.io/shshaw/pen/XbxvNj</metadata>
<path stroke="#787890" d="M24 28h2M24 29h2M42 32h2M42 33h2M48 34h2M48 35h2M30 36h2M30 37h2M28 38h2M28 39h2M52 40h4M52 41h4M52 42h4M52 43h4M28 48h2M28 49h2M30 50h4M62 50h2M30 51h4M62 51h2M28 52h2M28 53h2M54 54h2M54 55h2M48 58h2M48 59h2M52 60h2M52 61h2M38 62h2M38 63h2M36 64h4M36 65h4M36 66h4M48 66h2M36 67h4M48 67h2M38 68h2M42 68h10M38 69h2M42 69h10M34 70h4M40 70h12M34 71h4M40 71h12" />
<path stroke="#181010" d="M26 28h2M26 29h2M22 30h2M28 30h2M54 30h4M22 31h2M28 31h2M54 31h4M22 32h2M30 32h2M36 32h6M52 32h2M58 32h2M22 33h2M30 33h2M36 33h6M52 33h2M58 33h2M24 34h2M32 34h4M44 34h4M50 34h2M58 34h2M24 35h2M32 35h4M44 35h4M50 35h2M58 35h2M24 36h2M48 36h2M56 36h2M24 37h2M48 37h2M56 37h2M26 38h2M54 38h2M26 39h2M54 39h2M26 40h2M26 41h2M26 42h2M56 42h2M26 43h2M56 43h2M24 44h2M56 44h2M24 45h2M56 45h2M24 46h2M58 46h2M24 47h2M58 47h2M22 48h2M60 48h2M22 49h2M60 49h2M22 50h2M22 51h2M22 52h2M52 52h2M62 52h2M22 53h2M52 53h2M62 53h2M24 54h2M52 54h2M62 54h2M24 55h2M52 55h2M62 55h2M24 56h2M50 56h2M60 56h2M24 57h2M50 57h2M60 57h2M26 58h2M34 58h4M54 58h4M60 58h2M26 59h2M34 59h4M54 59h4M60 59h2M28 60h6M38 60h2M48 60h4M58 60h2M66 60h4M28 61h6M38 61h2M48 61h4M58 61h2M66 61h4M30 62h4M40 62h10M64 62h2M70 62h2M30 63h4M40 63h10M64 63h2M70 63h2M32 64h2M40 64h6M50 64h2M64 64h2M72 64h2M32 65h2M40 65h6M50 65h2M64 65h2M72 65h2M30 66h6M40 66h4M50 66h2M62 66h2M68 66h4M30 67h6M40 67h4M50 67h2M62 67h2M68 67h4M28 68h2M36 68h2M40 68h2M52 68h2M60 68h2M66 68h2M28 69h2M36 69h2M40 69h2M52 69h2M60 69h2M66 69h2M28 70h2M38 70h2M52 70h2M58 70h2M64 70h2M28 71h2M38 71h2M52 71h2M58 71h2M64 71h2" />
<path stroke="#ffffff" d="M24 30h4M24 31h4M24 32h4M54 32h4M24 33h4M54 33h4M26 34h2M36 34h6M52 34h4M26 35h2M36 35h6M52 35h4M32 36h14M50 36h4M32 37h14M50 37h4M30 38h18M30 39h18M28 40h20M28 41h20M28 42h22M28 43h22M26 44h24M26 45h24M26 46h24M56 46h2M26 47h24M56 47h2M26 48h2M30 48h20M54 48h6M26 49h2M30 49h20M54 49h6M34 50h14M54 50h6M34 51h14M54 51h6M30 52h16M56 52h2M30 53h16M56 53h2M32 54h10M32 55h10M34 60h2M34 61h2M66 62h4M66 63h4M66 64h4M66 65h4M30 68h4M30 69h4" />
<path stroke="#d0a8b0" d="M28 32h2M28 33h2M28 34h4M42 34h2M56 34h2M28 35h4M42 35h2M56 35h2M26 36h4M46 36h2M54 36h2M26 37h4M46 37h2M54 37h2M48 38h6M48 39h6M48 40h4M48 41h4M50 42h2M50 43h2M50 44h6M50 45h6M50 46h6M50 47h6M24 48h2M50 48h4M24 49h2M50 49h4M24 50h6M48 50h6M60 50h2M24 51h6M48 51h6M60 51h2M24 52h4M46 52h6M54 52h2M58 52h4M24 53h4M46 53h6M54 53h2M58 53h4M26 54h6M42 54h10M56 54h6M26 55h6M42 55h10M56 55h6M26 56h24M52 56h8M26 57h24M52 57h8M28 58h6M38 58h10M50 58h4M58 58h2M28 59h6M38 59h10M50 59h4M58 59h2M36 60h2M40 60h8M36 61h2M40 61h8M34 62h4M34 63h4M34 64h2M46 64h4M70 64h2M34 65h2M46 65h4M70 65h2M44 66h4M64 66h4M44 67h4M64 67h4M34 68h2M62 68h4M34 69h2M62 69h4M30 70h4M60 70h4M30 71h4M60 71h4" />
</svg>