<svg xmlns="http://www.w3.org/2000/svg" viewBox="0 -0.5 96 96" shape-rendering="crispEdges">
<metadata>Made with Pixels to Svg https://codepen.io/shshaw/pen/XbxvNj</metadata>
<path stroke="#181010" d="M42 22h4M42 23h4M40 24h2M46 24h2M52 24h4M40 25h2M46 25h2M52 25h4M40 26h2M46 26h2M50 26h2M54 26h2M40 27h2M46 27h2M50 27h2M54 27h2M32 28h6M40 28h2M48 28h2M56 28h2M32 29h6M40 29h2M48 29h2M56 29h2M32 30h2M38 30h4M48 30h2M56 30h2M32 31h2M38 31h4M48 31h2M56 31h2M32 32h2M56 32h2M32 33h2M56 33h2M32 34h2M56 34h2M32 35h2M56 35h2M28 36h6M58 36h2M28 37h6M58 37h2M28 38h2M34 38h2M58 38h2M28 39h2M34 39h2M58 39h2M28 40h2M58 40h8M28 41h2M58 41h8M30 42h2M58 42h2M66 42h2M30 43h2M58 43h2M66 43h2M20 44h4M32 44h2M58 44h2M68 44h2M20 45h4M32 45h2M58 45h2M68 45h2M20 46h2M26 46h12M56 46h18M20 47h2M26 47h12M56 47h18M20 48h2M32 48h10M54 48h10M74 48h2M20 49h2M32 49h10M54 49h10M74 49h2M22 50h2M34 50h20M72 50h4M22 51h2M34 51h20M72 51h4M22 52h2M70 52h4M22 53h2M70 53h4M22 54h2M68 54h6M22 55h2M68 55h6M24 56h2M66 56h6M24 57h2M66 57h6M24 58h2M64 58h6M24 59h2M64 59h6M26 60h2M62 60h8M26 61h2M62 61h8M26 62h2M60 62h4M66 62h4M26 63h2M60 63h4M66 63h4M26 64h4M58 64h4M68 64h4M26 65h4M58 65h4M68 65h4M26 66h2M30 66h2M56 66h6M68 66h4M26 67h2M30 67h2M56 67h6M68 67h4M26 68h2M32 68h2M52 68h12M70 68h2M26 69h2M32 69h2M52 69h12M70 69h2M26 70h2M34 70h26M62 70h2M70 70h2M26 71h2M34 71h26M62 71h2M70 71h2" />
<path stroke="#ffffff" d="M42 24h4M42 25h4M42 26h4M52 26h2M42 27h4M52 27h2M42 28h2M50 28h4M42 29h2M50 29h4M34 30h4M42 30h2M50 30h2M34 31h4M42 31h2M50 31h2M34 32h4M40 32h10M34 33h4M40 33h10M34 34h2M38 34h8M34 35h2M38 35h8M38 36h4M38 37h4M30 38h4M36 38h4M30 39h4M36 39h4M30 40h4M36 40h2M30 41h4M36 41h2M32 42h2M36 42h2M32 43h2M36 43h2M36 44h2M36 45h2M22 46h4M38 46h2M22 47h4M38 47h2M22 48h10M72 48h2M22 49h10M72 49h2M24 50h8M24 51h8M24 52h6M24 53h6M24 54h4M24 55h4M26 56h2M26 57h2M26 58h2M26 59h2M66 64h2M66 65h2M68 68h2M68 69h2" />
<path stroke="#e0a078" d="M44 28h4M54 28h2M44 29h4M54 29h2M44 30h4M52 30h4M44 31h4M52 31h4M38 32h2M50 32h6M38 33h2M50 33h6M36 34h2M46 34h10M36 35h2M46 35h10M34 36h4M42 36h14M34 37h4M42 37h14M40 38h16M40 39h16M34 40h2M38 40h16M34 41h2M38 41h16M34 42h2M38 42h16M60 42h2M34 43h2M38 43h16M60 43h2M34 44h2M38 44h14M34 45h2M38 45h14M40 46h10M40 47h10M42 48h4M42 49h4M32 50h2M54 50h2M32 51h2M54 51h2M30 52h26M30 53h26M28 54h28M28 55h28M28 56h26M28 57h26M28 58h26M28 59h26M28 60h24M28 61h24M28 62h24M28 63h24M30 64h20M30 65h20M28 66h2M32 66h14M66 66h2M28 67h2M32 67h14M66 67h2M28 68h2M66 68h2M28 69h2M66 69h2M28 70h2M68 70h2M28 71h2M68 71h2" />
<path stroke="#a87048" d="M56 36h2M56 37h2M56 38h2M56 39h2M54 40h4M54 41h4M54 42h4M62 42h4M54 43h4M62 43h4M24 44h2M52 44h6M60 44h8M24 45h2M52 45h6M60 45h8M50 46h6M50 47h6M46 48h8M64 48h8M46 49h8M64 49h8M56 50h16M56 51h16M56 52h14M56 53h14M56 54h12M56 55h12M54 56h12M54 57h12M54 58h10M54 59h10M52 60h10M52 61h10M52 62h8M64 62h2M52 63h8M64 63h2M50 64h8M62 64h4M50 65h8M62 65h4M46 66h10M62 66h4M46 67h10M62 67h4M30 68h2M34 68h18M64 68h2M30 69h2M34 69h18M64 69h2M30 70h4M64 70h4M30 71h4M64 71h4" />
</svg>