<svg xmlns="http://www.w3.org/2000/svg" viewBox="0 -0.5 96 96" shape-rendering="crispEdges">
<metadata>Made with Pixels to Svg https://codepen.io/shshaw/pen/XbxvNj</metadata>
<path stroke="#181010" d="M45 18h10M45 19h10M41 20h4M55 20h4M41 21h4M55 21h4M37 22h4M59 22h4M37 23h4M59 23h4M35 24h2M63 24h2M35 25h2M63 25h2M33 26h2M65 26h2M33 27h2M65 27h2M31 28h2M61 28h2M67 28h2M31 29h2M61 29h2M67 29h2M31 30h2M61 30h4M67 30h2M31 31h2M61 31h4M67 31h2M29 32h2M63 32h2M69 32h2M29 33h2M63 33h2M69 33h2M29 34h2M71 34h2M29 35h2M71 35h2M29 36h2M71 36h2M29 37h2M71 37h2M27 38h2M71 38h2M27 39h2M71 39h2M27 40h2M55 40h8M67 40h4M27 41h2M55 41h8M67 41h4M27 42h2M53 42h2M63 42h4M27 43h2M53 43h2M63 43h4M27 44h2M51 44h2M65 44h2M27 45h2M51 45h2M65 45h2M27 46h10M51 46h2M65 46h4M27 47h10M51 47h2M65 47h4M25 48h4M37 48h4M51 48h2M65 48h2M69 48h2M25 49h4M37 49h4M51 49h2M65 49h2M69 49h2M23 50h2M41 50h2M61 50h6M71 50h2M23 51h2M41 51h2M61 51h6M71 51h2M23 52h2M41 52h2M63 52h6M71 52h2M23 53h2M41 53h2M63 53h6M71 53h2M21 54h2M43 54h4M63 54h2M67 54h2M71 54h2M21 55h2M43 55h4M63 55h2M67 55h2M71 55h2M21 56h2M43 56h2M47 56h2M63 56h6M73 56h2M21 57h2M43 57h2M47 57h2M63 57h6M73 57h2M21 58h2M37 58h2M45 58h2M63 58h6M73 58h2M21 59h2M37 59h2M45 59h2M63 59h6M73 59h2M21 60h2M39 60h2M45 60h4M63 60h2M67 60h2M73 60h2M21 61h2M39 61h2M45 61h4M63 61h2M67 61h2M73 61h2M21 62h2M39 62h2M45 62h2M49 62h2M57 62h6M67 62h2M73 62h2M21 63h2M39 63h2M45 63h2M49 63h2M57 63h6M67 63h2M73 63h2M21 64h2M39 64h2M45 64h4M51 64h2M67 64h2M71 64h2M21 65h2M39 65h2M45 65h4M51 65h2M67 65h2M71 65h2M21 66h2M41 66h2M47 66h4M53 66h2M67 66h2M71 66h2M21 67h2M41 67h2M47 67h4M53 67h2M67 67h2M71 67h2M23 68h2M41 68h2M47 68h2M51 68h2M55 68h2M65 68h4M71 68h2M23 69h2M41 69h2M47 69h2M51 69h2M55 69h2M65 69h4M71 69h2M23 70h2M41 70h2M47 70h10M65 70h6M23 71h2M41 71h2M47 71h10M65 71h6" />
<path stroke="#f0b0c0" d="M45 20h10M45 21h10M41 22h2M49 22h10M41 23h2M49 23h10M37 24h4M55 24h8M37 25h4M55 25h8M39 26h2M51 26h4M59 26h4M39 27h2M51 27h4M59 27h4M33 28h2M37 28h2M47 28h12M33 29h2M37 29h2M47 29h12M33 30h4M45 30h14M33 31h4M45 31h14M31 32h2M45 32h16M31 33h2M45 33h16M31 34h2M43 34h18M31 35h2M43 35h18M31 36h2M43 36h16M65 36h6M31 37h2M43 37h16M65 37h6M31 38h2M43 38h24M31 39h2M43 39h24M29 40h2M41 40h2M45 40h10M29 41h2M41 41h2M45 41h10M31 42h2M43 42h10M55 42h4M31 43h2M43 43h10M55 43h4M29 44h2M41 44h2M45 44h6M53 44h2M59 44h2M29 45h2M41 45h2M45 45h6M53 45h2M59 45h2M43 46h2M47 46h4M53 46h2M57 46h4M43 47h2M47 47h4M53 47h2M57 47h4M29 48h2M45 48h2M49 48h2M53 48h6M29 49h2M45 49h2M49 49h2M53 49h6M25 50h2M31 50h2M47 50h2M51 50h10M25 51h2M31 51h2M47 51h2M51 51h10M25 52h2M31 52h2M51 52h10M25 53h2M31 53h2M51 53h10M23 54h2M27 54h4M41 54h2M53 54h8M65 54h2M23 55h2M27 55h4M41 55h2M53 55h8M65 55h2M23 56h4M41 56h2M55 56h4M23 57h4M41 57h2M55 57h4M23 58h2M27 58h2M31 58h2M43 58h2M23 59h2M27 59h2M31 59h2M43 59h2M23 60h4M29 60h2M43 60h2M23 61h4M29 61h2M43 61h2M23 62h6M31 62h2M43 62h2M63 62h4M23 63h6M31 63h2M43 63h2M63 63h4M23 64h8M33 64h2M57 64h2M61 64h2M65 64h2M23 65h8M33 65h2M57 65h2M61 65h2M65 65h2M23 66h10M55 66h2M59 66h2M63 66h2M23 67h10M55 67h2M59 67h2M63 67h2M27 68h4M33 68h2M27 69h4M33 69h2M27 70h2M31 70h2M27 71h2M31 71h2" />
<path stroke="#e078a8" d="M43 22h6M43 23h6M41 24h14M41 25h14M41 26h10M55 26h4M63 26h2M41 27h10M55 27h4M63 27h2M39 28h8M59 28h2M65 28h2M39 29h8M59 29h2M65 29h2M37 30h8M65 30h2M37 31h8M65 31h2M35 32h10M65 32h4M35 33h10M65 33h4M35 34h8M61 34h10M35 35h8M61 35h10M33 36h10M59 36h2M33 37h10M59 37h2M29 38h2M33 38h10M67 38h4M29 39h2M33 39h10M67 39h4M31 40h10M43 40h2M63 40h4M31 41h10M43 41h2M63 41h4M29 42h2M33 42h10M59 42h4M29 43h2M33 43h10M59 43h4M31 44h10M43 44h2M61 44h4M31 45h10M43 45h2M61 45h4M37 46h6M45 46h2M61 46h4M37 47h6M45 47h2M61 47h4M31 48h6M41 48h4M47 48h2M59 48h6M67 48h2M31 49h6M41 49h4M47 49h2M59 49h6M67 49h2M33 50h8M43 50h4M49 50h2M67 50h4M33 51h8M43 51h4M49 51h2M67 51h4M33 52h8M43 52h8M61 52h2M69 52h2M33 53h8M43 53h8M61 53h2M69 53h2M25 54h2M31 54h10M47 54h6M61 54h2M69 54h2M25 55h2M31 55h10M47 55h6M61 55h2M69 55h2M27 56h14M45 56h2M49 56h6M59 56h4M69 56h4M27 57h14M45 57h2M49 57h6M59 57h4M69 57h4M25 58h2M29 58h2M33 58h4M39 58h4M47 58h16M69 58h4M25 59h2M29 59h2M33 59h4M39 59h4M47 59h16M69 59h4M27 60h2M31 60h8M41 60h2M49 60h14M69 60h4M27 61h2M31 61h8M41 61h2M49 61h14M69 61h4M29 62h2M33 62h6M41 62h2M47 62h2M51 62h6M69 62h4M29 63h2M33 63h6M41 63h2M47 63h2M51 63h6M69 63h4M31 64h2M35 64h4M41 64h4M49 64h2M53 64h4M59 64h2M63 64h2M69 64h2M31 65h2M35 65h4M41 65h4M49 65h2M53 65h4M59 65h2M63 65h2M69 65h2M33 66h8M43 66h4M51 66h2M57 66h2M61 66h2M65 66h2M69 66h2M33 67h8M43 67h4M51 67h2M57 67h2M61 67h2M65 67h2M69 67h2M31 68h2M35 68h6M43 68h4M49 68h2M53 68h2M57 68h8M69 68h2M31 69h2M35 69h6M43 69h4M49 69h2M53 69h2M57 69h8M69 69h2M29 70h2M33 70h8M43 70h4M57 70h8M29 71h2M33 71h8M43 71h4M57 71h8" />
<path stroke="#ffffff" d="M35 26h4M35 27h4M35 28h2M63 28h2M35 29h2M63 29h2M59 30h2M59 31h2M33 32h2M61 32h2M33 33h2M61 33h2M33 34h2M33 35h2M61 36h4M61 37h4M55 44h4M55 45h4M55 46h2M55 47h2M27 50h4M27 51h4M27 52h4M27 53h4M65 60h2M65 61h2M25 68h2M25 69h2M25 70h2M25 71h2" />
</svg>