<svg xmlns="http://www.w3.org/2000/svg" viewBox="0 -0.5 96 96" shape-rendering="crispEdges">
<metadata>Made with Pixels to Svg https://codepen.io/shshaw/pen/XbxvNj</metadata>
<path stroke="#181010" d="M61 22h2M61 23h2M63 24h2M63 25h2M59 26h2M59 27h2M57 28h2M65 28h2M57 29h2M65 29h2M55 30h2M67 30h2M55 31h2M67 31h2M53 32h2M53 33h2M51 34h2M61 34h6M69 34h2M51 35h2M61 35h6M69 35h2M49 36h2M59 36h2M67 36h4M49 37h2M59 37h2M67 37h4M45 38h4M59 38h2M63 38h2M67 38h4M45 39h4M59 39h2M63 39h2M67 39h4M41 40h4M59 40h2M67 40h4M41 41h4M59 41h2M67 41h4M35 42h6M61 42h10M35 43h6M61 43h10M37 44h2M65 44h6M37 45h2M65 45h6M39 46h2M67 46h2M39 47h2M67 47h2M41 48h4M65 48h4M41 49h4M65 49h4M43 50h4M63 50h2M67 50h2M43 51h4M63 51h2M67 51h2M43 52h6M61 52h2M67 52h2M43 53h6M61 53h2M67 53h2M41 54h2M47 54h4M63 54h2M41 55h2M47 55h4M63 55h2M41 56h2M49 56h4M63 56h4M41 57h2M49 57h4M63 57h4M37 58h4M51 58h4M61 58h2M37 59h4M51 59h4M61 59h2M35 60h2M41 60h2M61 60h4M35 61h2M41 61h2M61 61h4M33 62h4M43 62h2M59 62h2M33 63h4M43 63h2M59 63h2M31 64h2M35 64h2M43 64h2M57 64h2M61 64h2M31 65h2M35 65h2M43 65h2M57 65h2M61 65h2M29 66h2M37 66h2M45 66h2M55 66h6M29 67h2M37 67h2M45 67h2M55 67h6M27 68h4M37 68h2M47 68h2M53 68h2M57 68h2M27 69h4M37 69h2M47 69h2M53 69h2M57 69h2M25 70h2M29 70h2M37 70h2M45 70h2M49 70h8M25 71h2M29 71h2M37 71h2M45 71h2M49 71h8" />
<path stroke="#48a058" d="M59 24h2M59 25h2M65 26h2M65 27h2M59 28h2M59 29h2M65 32h2M69 32h2M65 33h2M69 33h2M63 36h2M63 37h2M61 38h2M65 38h2M61 39h2M65 39h2M63 40h2M63 41h2M39 44h2M63 44h2M39 45h2M63 45h2M41 46h4M63 46h2M69 46h2M41 47h4M63 47h2M69 47h2M45 48h2M61 48h2M45 49h2M61 49h2M47 50h2M65 50h2M47 51h2M65 51h2M49 52h2M59 52h2M65 52h2M49 53h2M59 53h2M65 53h2M51 54h2M57 54h6M67 54h2M51 55h2M57 55h6M67 55h2M53 56h10M53 57h10M55 58h6M65 58h2M55 59h6M65 59h2M55 60h6M55 61h6M53 62h6M63 62h2M53 63h6M63 63h2M51 64h6M51 65h6M49 66h6M49 67h6M49 68h4M49 69h4M47 70h2M47 71h2" />
<path stroke="#a0d080" d="M61 24h2M61 25h2M61 26h2M61 27h2M61 28h2M61 29h2M57 30h4M65 30h2M57 31h4M65 31h2M55 32h6M67 32h2M55 33h6M67 33h2M53 34h8M67 34h2M53 35h8M67 35h2M51 36h8M51 37h8M49 38h10M49 39h10M45 40h14M45 41h14M41 42h18M41 43h18M41 44h18M41 45h18M45 46h12M65 46h2M45 47h12M65 47h2M47 48h10M63 48h2M47 49h10M63 49h2M49 50h6M61 50h2M49 51h6M61 51h2M51 52h2M63 52h2M51 53h2M63 53h2M43 54h4M65 54h2M43 55h4M65 55h2M43 56h6M43 57h6M41 58h10M63 58h2M41 59h10M63 59h2M37 60h4M43 60h8M37 61h4M43 61h8M37 62h6M45 62h4M61 62h2M37 63h6M45 63h4M61 63h2M33 64h2M37 64h6M45 64h2M59 64h2M33 65h2M37 65h6M45 65h2M59 65h2M31 66h6M39 66h6M31 67h6M39 67h6M31 68h6M39 68h4M55 68h2M31 69h6M39 69h4M55 69h2M27 70h2M31 70h6M27 71h2M31 71h6" />
<path stroke="#ffffff" d="M63 26h2M63 27h2M63 28h2M63 29h2M61 30h4M61 31h4M61 32h4M61 33h4M61 36h2M65 36h2M61 37h2M65 37h2M61 40h2M65 40h2M61 41h2M65 41h2M59 42h2M59 43h2M59 44h4M59 45h4M57 46h6M57 47h6M57 48h4M57 49h4M55 50h6M55 51h6M53 52h6M53 53h6M53 54h4M53 55h4M51 60h4M51 61h4M49 62h4M49 63h4M47 64h4M47 65h4M47 66h2M47 67h2M43 68h4M43 69h4M39 70h6M39 71h6" />
</svg>