<svg xmlns="http://www.w3.org/2000/svg" viewBox="0 -0.5 96 96" shape-rendering="crispEdges">
<metadata>Made with Pixels to Svg https://codepen.io/shshaw/pen/XbxvNj</metadata>
<path stroke="#787890" d="M31 44h2M31 45h2M37 48h2M37 49h2M37 50h2M37 51h2M47 52h2M57 52h2M47 53h2M57 53h2M53 54h2M53 55h2M29 56h2M49 56h4M57 56h2M29 57h2M49 57h4M57 57h2M57 58h2M57 59h2M31 60h2M31 61h2M29 62h2M69 62h2M29 63h2M69 63h2M27 64h2M31 64h2M67 64h4M27 65h2M31 65h2M67 65h4M27 66h4M63 66h6M27 67h4M63 67h6M25 68h4M61 68h2M25 69h4M61 69h2M25 70h4M61 70h4M25 71h4M61 71h4" />
<path stroke="#181010" d="M33 44h2M33 45h2M29 46h2M35 46h2M29 47h2M35 47h2M27 48h2M45 48h2M27 49h2M45 49h2M27 50h2M43 50h2M47 50h2M55 50h2M27 51h2M43 51h2M47 51h2M55 51h2M27 52h2M37 52h2M43 52h2M53 52h2M27 53h2M37 53h2M43 53h2M53 53h2M27 54h2M39 54h4M49 54h4M57 54h2M27 55h2M39 55h4M49 55h4M57 55h2M27 56h2M59 56h2M27 57h2M59 57h2M27 58h4M59 58h2M67 58h4M27 59h4M59 59h2M67 59h4M27 60h4M61 60h2M65 60h2M71 60h2M27 61h4M61 61h2M65 61h2M71 61h2M27 62h2M31 62h2M63 62h2M71 62h2M27 63h2M31 63h2M63 63h2M71 63h2M25 64h2M29 64h2M71 64h2M25 65h2M29 65h2M71 65h2M25 66h2M69 66h2M25 67h2M69 67h2M23 68h2M63 68h6M23 69h2M63 69h6M23 70h2M65 70h2M23 71h2M65 71h2" />
<path stroke="#d0a8b0" d="M31 46h4M31 47h4M29 48h4M35 48h2M29 49h4M35 49h2M29 50h2M35 50h2M45 50h2M29 51h2M35 51h2M45 51h2M29 52h2M33 52h4M45 52h2M55 52h2M29 53h2M33 53h4M45 53h2M55 53h2M29 54h4M35 54h4M43 54h6M55 54h2M29 55h4M35 55h4M43 55h6M55 55h2M31 56h18M53 56h4M31 57h18M53 57h4M31 58h6M41 58h16M31 59h6M41 59h16M33 60h2M37 60h24M67 60h4M33 61h2M37 61h24M67 61h4M33 62h30M65 62h4M33 63h30M65 63h4M33 64h34M33 65h34M31 66h32M31 67h32M29 68h32M29 69h32M29 70h32M29 71h32" />
<path stroke="#ffffff" d="M33 48h2M33 49h2M31 50h4M31 51h4M31 52h2M31 53h2M33 54h2M33 55h2M37 58h4M37 59h4M35 60h2M35 61h2" />
</svg>