<svg xmlns="http://www.w3.org/2000/svg" viewBox="0 -0.5 96 96" shape-rendering="crispEdges">
<metadata>Made with Pixels to Svg https://codepen.io/shshaw/pen/XbxvNj</metadata>
<path stroke="#181010" d="M31 24h6M31 25h6M31 26h2M37 26h6M31 27h2M37 27h6M33 28h2M43 28h4M33 29h2M43 29h4M35 30h2M47 30h4M35 31h2M47 31h4M27 32h12M51 32h2M27 33h12M51 33h2M27 34h2M39 34h2M53 34h2M27 35h2M39 35h2M53 35h2M29 36h2M41 36h2M53 36h2M29 37h2M41 37h2M53 37h2M31 38h10M43 38h6M55 38h2M31 39h10M43 39h6M55 39h2M31 40h2M49 40h8M31 41h2M49 41h8M31 42h2M47 42h2M55 42h4M31 43h2M47 43h2M55 43h4M33 44h2M49 44h2M53 44h2M57 44h2M33 45h2M49 45h2M53 45h2M57 45h2M35 46h2M51 46h6M59 46h2M35 47h2M51 47h6M59 47h2M35 48h2M55 48h2M61 48h2M35 49h2M55 49h2M61 49h2M37 50h2M53 50h4M61 50h2M37 51h2M53 51h4M61 51h2M39 52h2M51 52h2M57 52h6M39 53h2M51 53h2M57 53h6M41 54h2M53 54h2M41 55h2M53 55h2M43 56h2M55 56h2M43 57h2M55 57h2M39 58h6M55 58h10M39 59h6M55 59h10M37 60h2M43 60h2M55 60h2M65 60h2M37 61h2M43 61h2M55 61h2M65 61h2M35 62h2M41 62h2M53 62h2M67 62h2M35 63h2M41 63h2M53 63h2M67 63h2M33 64h2M41 64h2M51 64h2M67 64h2M33 65h2M41 65h2M51 65h2M67 65h2M33 66h2M39 66h2M49 66h2M67 66h2M33 67h2M39 67h2M49 67h2M67 67h2M31 68h2M39 68h2M49 68h2M67 68h2M31 69h2M39 69h2M49 69h2M67 69h2M67 70h2M67 71h2" />
<path stroke="#90a0d8" d="M33 26h2M33 27h2M35 28h2M35 29h2M37 30h2M37 31h2M39 32h2M39 33h2M37 34h2M41 34h2M49 34h4M37 35h2M41 35h2M49 35h4M31 36h6M43 36h10M31 37h6M43 37h10M41 38h2M49 38h6M41 39h2M49 39h6M45 40h2M45 41h2M49 46h2M49 47h2M39 48h2M49 48h6M59 48h2M39 49h2M49 49h6M59 49h2M41 50h2M47 50h6M57 50h4M41 51h2M47 51h6M57 51h4M43 52h8M43 53h8M45 54h6M45 55h6M47 56h2M47 57h2M49 58h4M49 59h4M51 60h4M61 60h4M51 61h4M61 61h4M51 62h2M61 62h6M51 63h2M61 63h6M37 64h4M49 64h2M61 64h6M37 65h4M49 65h2M61 65h6M35 66h4M57 66h10M35 67h4M57 67h10M33 68h6M53 68h14M33 69h6M53 69h14" />
<path stroke="#ffffff" d="M35 26h2M35 27h2M37 28h6M37 29h6M39 30h8M39 31h8M41 32h10M41 33h10M29 34h8M43 34h6M29 35h8M43 35h6M35 40h10M35 41h10M35 42h12M49 42h6M35 43h12M49 43h6M37 44h12M51 44h2M37 45h12M51 45h2M37 46h12M57 46h2M37 47h12M57 47h2M41 48h8M57 48h2M41 49h8M57 49h2M43 50h4M43 51h4M45 58h4M45 59h4M39 60h4M45 60h6M57 60h4M39 61h4M45 61h6M57 61h4M37 62h4M43 62h8M55 62h6M37 63h4M43 63h8M55 63h6M35 64h2M43 64h6M53 64h8M35 65h2M43 65h6M53 65h8M41 66h8M51 66h6M41 67h8M51 67h6M41 68h8M51 68h2M41 69h8M51 69h2M32 70h35M32 71h35" />
<path stroke="#5878b8" d="M37 36h4M37 37h4M33 40h2M47 40h2M33 41h2M47 41h2M33 42h2M33 43h2M35 44h2M55 44h2M59 44h2M35 45h2M55 45h2M59 45h2M37 48h2M37 49h2M39 50h2M39 51h2M41 52h2M41 53h2M43 54h2M51 54h2M43 55h2M51 55h2M45 56h2M49 56h6M45 57h2M49 57h6M53 58h2M53 59h2" />
<path stroke="rgba(0,0,0,0.3137254901960784)" d="M31 70h1" />
<path stroke="rgba(0,0,0,0.2784313725490196)" d="M31 71h1" />
</svg>