<svg xmlns="http://www.w3.org/2000/svg" viewBox="0 -0.5 96 96" shape-rendering="crispEdges">
<metadata>Made with Pixels to Svg https://codepen.io/shshaw/pen/XbxvNj</metadata>
<path stroke="#181010" d="M50 22h2M50 23h2M48 24h2M52 24h2M72 24h2M48 25h2M52 25h2M72 25h2M48 26h2M54 26h2M70 26h2M74 26h2M48 27h2M54 27h2M70 27h2M74 27h2M48 28h2M56 28h2M68 28h2M74 28h2M48 29h2M56 29h2M68 29h2M74 29h2M50 30h2M58 30h2M68 30h2M74 30h2M50 31h2M58 31h2M68 31h2M74 31h2M50 32h2M66 32h2M74 32h2M50 33h2M66 33h2M74 33h2M52 34h2M66 34h2M52 35h2M66 35h2M52 36h14M52 37h14M50 38h2M64 38h2M50 39h2M64 39h2M48 40h2M62 40h2M66 40h2M48 41h2M62 41h2M66 41h2M46 42h2M68 42h2M46 43h2M68 43h2M44 44h2M44 45h2M44 46h2M70 46h2M44 47h2M70 47h2M44 48h2M68 48h2M72 48h2M44 49h2M68 49h2M72 49h2M44 50h2M66 50h2M72 50h2M44 51h2M66 51h2M72 51h2M44 52h2M66 52h2M72 52h2M44 53h2M66 53h2M72 53h2M38 54h8M66 54h2M70 54h4M38 55h8M66 55h2M70 55h4M34 56h4M46 56h2M66 56h6M34 57h4M46 57h2M66 57h6M32 58h2M48 58h2M68 58h6M32 59h2M48 59h2M68 59h6M30 60h4M50 60h2M30 61h4M50 61h2M26 62h16M50 62h2M70 62h2M26 63h16M50 63h2M70 63h2M24 64h8M42 64h2M52 64h2M68 64h2M24 65h8M42 65h2M52 65h2M68 65h2M22 66h8M44 66h2M52 66h4M66 66h2M22 67h8M44 67h2M52 67h4M66 67h2M20 68h4M26 68h2M44 68h2M52 68h2M56 68h2M64 68h2M20 69h4M26 69h2M44 69h2M52 69h2M56 69h2M64 69h2M20 70h2M24 70h4M42 70h4M52 70h2M58 70h4M20 71h2M24 71h4M42 71h4M52 71h2M58 71h4" />
<path stroke="#ffffff" d="M50 24h2M50 25h2M50 26h4M72 26h2M50 27h4M72 27h2M50 28h6M70 28h4M50 29h6M70 29h4M52 30h6M70 30h4M52 31h6M70 31h4M52 32h6M68 32h6M52 33h6M68 33h6M54 34h4M68 34h6M54 35h4M68 35h6M66 36h6M66 37h6M52 38h12M66 38h6M52 39h12M66 39h6M50 40h12M64 40h2M68 40h4M50 41h12M64 41h2M68 41h4M48 42h20M70 42h2M48 43h20M70 43h2M46 44h24M46 45h24M46 46h22M46 47h22M46 48h20M70 48h2M46 49h20M70 49h2M46 50h20M68 50h2M46 51h20M68 51h2M46 52h18M46 53h18M46 54h16M46 55h16M38 56h8M48 56h14M38 57h8M48 57h14M34 58h12M50 58h10M34 59h12M50 59h10M34 60h12M52 60h4M34 61h12M52 61h4M42 62h2M42 63h2M36 64h2M36 65h2M32 66h4M40 66h2M32 67h4M40 67h2M40 68h2M40 69h2M22 70h2M30 70h4M36 70h2M54 70h4M22 71h2M30 71h4M36 71h2M54 71h4" />
<path stroke="#d0a000" d="M58 32h2M58 33h2M74 34h2M74 35h2M72 36h2M72 37h2M70 44h2M70 45h2M68 46h2M68 47h2M66 48h2M66 49h2M70 52h2M70 53h2M68 54h2M68 55h2M72 56h2M72 57h2M66 58h2M66 59h2M68 60h4M68 61h4M52 62h2M66 62h4M52 63h2M66 63h4M32 64h4M40 64h2M54 64h2M62 64h6M32 65h4M40 65h2M54 65h2M62 65h6M30 66h2M42 66h2M50 66h2M56 66h10M30 67h2M42 67h2M50 67h2M56 67h10M42 68h2M48 68h4M54 68h2M58 68h6M42 69h2M48 69h4M54 69h2M58 69h6M46 70h6M62 70h2M46 71h6M62 71h2" />
<path stroke="#f8e070" d="M58 34h2M58 35h2M72 38h2M72 39h2M70 50h2M70 51h2M64 52h2M68 52h2M64 53h2M68 53h2M62 54h4M62 55h4M62 56h4M62 57h4M46 58h2M60 58h6M46 59h2M60 59h6M46 60h4M56 60h12M46 61h4M56 61h12M44 62h6M54 62h12M44 63h6M54 63h12M38 64h2M44 64h8M56 64h6M38 65h2M44 65h8M56 65h6M36 66h4M46 66h4M36 67h4M46 67h4M24 68h2M28 68h12M46 68h2M24 69h2M28 69h12M46 69h2M28 70h2M34 70h2M38 70h4M28 71h2M34 71h2M38 71h4" />
</svg>