<svg xmlns="http://www.w3.org/2000/svg" viewBox="0 -0.5 96 96" shape-rendering="crispEdges">
<metadata>Made with Pixels to Svg https://codepen.io/shshaw/pen/XbxvNj</metadata>
<path stroke="#181010" d="M28 18h2M28 19h2M32 20h2M58 20h2M32 21h2M58 21h2M26 22h2M36 22h2M40 22h12M26 23h2M36 23h2M40 23h12M26 24h2M60 24h2M26 25h2M60 25h2M26 26h2M26 27h2M58 28h2M58 29h2M26 30h2M58 30h2M26 31h2M58 31h2M24 32h2M24 33h2M24 34h2M30 34h6M60 34h2M24 35h2M30 35h6M60 35h2M24 36h6M62 36h2M24 37h6M62 37h2M24 38h2M32 38h6M62 38h2M24 39h2M32 39h6M62 39h2M22 40h2M28 40h4M62 40h2M22 41h2M28 41h4M62 41h2M22 42h2M26 42h2M62 42h2M22 43h2M26 43h2M62 43h2M20 44h2M26 44h2M56 44h2M60 44h4M20 45h2M26 45h2M56 45h2M60 45h4M20 46h2M24 46h4M56 46h2M20 47h2M24 47h4M56 47h2M20 48h2M24 48h6M58 48h2M20 49h2M24 49h6M58 49h2M20 50h2M24 50h2M30 50h4M42 50h8M58 50h2M20 51h2M24 51h2M30 51h4M42 51h8M58 51h2M20 52h2M26 52h2M32 52h2M40 52h2M50 52h2M60 52h2M66 52h6M20 53h2M26 53h2M32 53h2M40 53h2M50 53h2M60 53h2M66 53h6M22 54h2M26 54h2M32 54h2M38 54h2M52 54h2M60 54h2M64 54h2M72 54h2M22 55h2M26 55h2M32 55h2M38 55h2M52 55h2M60 55h2M64 55h2M72 55h2M22 56h2M28 56h4M36 56h2M54 56h6M64 56h2M74 56h2M22 57h2M28 57h4M36 57h2M54 57h6M64 57h2M74 57h2M22 58h4M28 58h2M36 58h2M54 58h2M64 58h4M74 58h2M22 59h4M28 59h2M36 59h2M54 59h2M64 59h4M74 59h2M22 60h4M30 60h2M36 60h2M46 60h6M54 60h2M62 60h2M68 60h2M74 60h2M22 61h4M30 61h2M36 61h2M46 61h6M54 61h2M62 61h2M68 61h2M74 61h2M22 62h2M26 62h2M32 62h2M36 62h2M44 62h2M50 62h6M62 62h2M68 62h2M72 62h4M22 63h2M26 63h2M32 63h2M36 63h2M44 63h2M50 63h6M62 63h2M68 63h2M72 63h4M22 64h2M26 64h4M38 64h2M44 64h2M52 64h4M64 64h4M72 64h2M22 65h2M26 65h4M38 65h2M44 65h2M52 65h4M64 65h4M72 65h2M22 66h2M26 66h2M30 66h4M40 66h6M54 66h2M66 66h2M72 66h2M22 67h2M26 67h2M30 67h4M40 67h6M54 67h2M66 67h2M72 67h2M20 68h2M28 68h2M46 68h2M56 68h2M64 68h2M70 68h2M20 69h2M28 69h2M46 69h2M56 69h2M64 69h2M70 69h2M20 70h2M28 70h2M48 70h2M58 70h2M62 70h2M68 70h2M20 71h2M28 71h2M48 71h2M58 71h2M62 71h2M68 71h2" />
<path stroke="#807098" d="M30 18h2M54 18h4M30 19h2M54 19h4M26 20h2M34 20h2M52 20h2M26 21h2M34 21h2M52 21h2M34 22h2M38 22h2M60 22h2M34 23h2M38 23h2M60 23h2M30 24h4M30 25h4M28 26h2M58 26h2M28 27h2M58 27h2M26 28h2M26 29h2M60 32h2M60 33h2M34 36h4M56 36h2M34 37h4M56 37h2M50 38h4M58 38h2M50 39h4M58 39h2M54 40h2M58 40h2M54 41h2M58 41h2M56 42h2M60 42h2M56 43h2M60 43h2M52 44h2M58 44h2M52 45h2M58 45h2M52 46h2M60 46h2M52 47h2M60 47h2M54 48h4M54 49h4M30 52h2M30 53h2M28 54h4M28 55h4M52 56h2M52 57h2M52 58h2M52 59h2M52 60h2M72 60h2M52 61h2M72 61h2M30 62h2M30 63h2M30 64h4M42 64h2M30 65h4M42 65h2M70 66h2M70 67h2M26 68h2M44 68h2M66 68h4M26 69h2M44 69h2M66 69h4M24 70h4M56 70h2M64 70h4M24 71h4M56 71h2M64 71h4" />
<path stroke="#f0b088" d="M28 20h4M54 20h4M28 21h4M54 21h4M30 22h4M56 22h4M30 23h4M56 23h4M46 24h8M58 24h2M46 25h8M58 25h2M50 26h6M50 27h6M48 28h2M52 28h6M48 29h2M52 29h6M50 30h8M50 31h8M52 32h8M52 33h8M36 34h2M50 34h2M54 34h6M36 35h2M50 35h2M54 35h6M30 36h4M38 36h2M52 36h2M58 36h4M30 37h4M38 37h2M52 37h2M58 37h4M28 38h4M38 38h2M48 38h2M60 38h2M28 39h4M38 39h2M48 39h2M60 39h2M46 40h4M60 40h2M46 41h4M60 41h2M46 42h8M58 42h2M46 43h8M58 43h2M48 44h4M48 45h4M48 46h4M48 47h4M44 48h10M44 49h10M28 50h2M40 50h2M50 50h8M28 51h2M40 51h2M50 51h8M28 52h2M52 52h8M28 53h2M52 53h8M50 54h2M54 54h6M50 55h2M54 55h6M26 56h2M48 56h4M26 57h2M48 57h4M26 58h2M46 58h6M72 58h2M26 59h2M46 59h6M72 59h2M26 60h4M38 60h2M44 60h2M70 60h2M26 61h4M38 61h2M44 61h2M70 61h2M28 62h2M38 62h6M70 62h2M28 63h2M38 63h6M70 63h2M34 64h2M40 64h2M68 64h4M34 65h2M40 65h2M68 65h4M24 66h2M34 66h2M68 66h2M24 67h2M34 67h2M68 67h2M22 68h4M42 68h2M54 68h2M22 69h4M42 69h2M54 69h2M22 70h2M40 70h8M52 70h4M22 71h2M40 71h8M52 71h4" />
<path stroke="#ffffff" d="M28 22h2M52 22h4M28 23h2M52 23h4M28 24h2M34 24h12M54 24h4M28 25h2M34 25h12M54 25h4M30 26h20M56 26h2M30 27h20M56 27h2M28 28h20M50 28h2M28 29h20M50 29h2M28 30h22M28 31h22M26 32h26M26 33h26M26 34h4M38 34h12M52 34h2M26 35h4M38 35h12M52 35h2M40 36h12M54 36h2M40 37h12M54 37h2M26 38h2M40 38h8M54 38h4M26 39h2M40 39h8M54 39h4M24 40h4M32 40h14M50 40h4M56 40h2M24 41h4M32 41h14M50 41h4M56 41h2M24 42h2M28 42h18M54 42h2M24 43h2M28 43h18M54 43h2M22 44h4M28 44h20M54 44h2M22 45h4M28 45h20M54 45h2M22 46h2M28 46h20M54 46h2M58 46h2M22 47h2M28 47h20M54 47h2M58 47h2M22 48h2M30 48h14M22 49h2M30 49h14M22 50h2M26 50h2M34 50h6M22 51h2M26 51h2M34 51h6M22 52h4M34 52h6M42 52h8M22 53h4M34 53h6M42 53h8M24 54h2M34 54h4M40 54h10M66 54h6M24 55h2M34 55h4M40 55h10M66 55h6M24 56h2M32 56h4M38 56h10M66 56h8M24 57h2M32 57h4M38 57h10M66 57h8M30 58h6M38 58h8M68 58h4M30 59h6M38 59h8M68 59h4M32 60h4M40 60h4M64 60h4M32 61h4M40 61h4M64 61h4M24 62h2M34 62h2M46 62h4M64 62h4M24 63h2M34 63h2M46 63h4M64 63h4M24 64h2M36 64h2M46 64h6M24 65h2M36 65h2M46 65h6M28 66h2M36 66h4M46 66h8M28 67h2M36 67h4M46 67h8M30 68h12M48 68h6M30 69h12M48 69h6M30 70h10M50 70h2M30 71h10M50 71h2" />
</svg>