<svg xmlns="http://www.w3.org/2000/svg" viewBox="0 -0.5 96 96" shape-rendering="crispEdges">
<metadata>Made with Pixels to Svg https://codepen.io/shshaw/pen/XbxvNj</metadata>
<path stroke="#a87048" d="M47 30h2M51 30h2M47 31h2M51 31h2M43 32h2M55 32h2M43 33h2M55 33h2M37 34h4M45 34h2M37 35h4M45 35h2M33 36h2M45 36h2M53 36h6M33 37h2M45 37h2M53 37h6M43 38h2M47 38h8M57 38h6M43 39h2M47 39h8M57 39h6M45 40h12M59 40h2M45 41h12M59 41h2M41 42h2M61 42h4M41 43h2M61 43h4M35 44h2M47 44h2M51 44h4M35 45h2M47 45h2M51 45h4M49 46h8M71 46h2M49 47h8M71 47h2M41 48h14M41 49h14M39 50h14M63 50h2M39 51h14M63 51h2M39 52h12M39 53h12M39 54h12M63 54h2M39 55h12M63 55h2M39 56h12M39 57h12M39 58h12M39 59h12M41 60h12M41 61h12M41 62h12M41 63h12M41 64h10M41 65h10M39 66h12M39 67h12M37 68h12M37 69h12M35 70h14M35 71h14" />
<path stroke="#181010" d="M49 30h2M49 31h2M45 32h2M53 32h2M45 33h2M53 33h2M41 34h4M57 34h2M41 35h4M57 35h2M35 36h2M47 36h6M59 36h2M35 37h2M47 37h6M59 37h2M31 38h2M55 38h2M31 39h2M55 39h2M29 40h2M57 40h2M61 40h2M29 41h2M57 41h2M61 41h2M27 42h2M43 42h18M27 43h2M43 43h18M25 44h2M37 44h4M49 44h2M55 44h4M61 44h4M25 45h2M37 45h4M49 45h2M55 45h4M61 45h4M25 46h2M31 46h4M43 46h6M57 46h2M63 46h8M25 47h2M31 47h4M43 47h6M57 47h2M63 47h8M23 48h2M27 48h4M37 48h4M55 48h4M61 48h4M67 48h4M23 49h2M27 49h4M37 49h4M55 49h4M61 49h4M67 49h4M23 50h4M29 50h2M35 50h4M53 50h4M65 50h4M23 51h4M29 51h2M35 51h4M53 51h4M65 51h4M23 52h2M29 52h2M33 52h2M37 52h2M51 52h4M65 52h2M23 53h2M29 53h2M33 53h2M37 53h2M51 53h4M65 53h2M29 54h4M37 54h2M51 54h4M67 54h2M29 55h4M37 55h2M51 55h4M67 55h2M29 56h2M37 56h2M51 56h4M65 56h6M29 57h2M37 57h2M51 57h4M65 57h6M37 58h2M51 58h4M63 58h2M37 59h2M51 59h4M63 59h2M39 60h2M53 60h4M63 60h2M39 61h2M53 61h4M63 61h2M39 62h2M63 62h2M39 63h2M63 63h2M39 64h2M63 64h2M39 65h2M63 65h2M37 66h2M63 66h2M37 67h2M63 67h2M35 68h2M65 68h2M35 69h2M65 69h2M33 70h2M65 70h2M33 71h2M65 71h2" />
<path stroke="#e0a078" d="M47 32h6M47 33h6M47 34h10M47 35h10M39 36h6M39 37h6M33 38h2M37 38h6M45 38h2M33 39h2M37 39h6M45 39h2M35 40h2M39 40h6M35 41h2M39 41h6M37 42h4M37 43h4M41 44h6M41 45h6M37 46h2M41 46h2M37 47h2M41 47h2M59 48h2M65 48h2M59 49h2M65 49h2M57 50h2M57 51h2M55 52h2M55 53h2M55 54h2M65 54h2M55 55h2M65 55h2M55 56h10M55 57h10M55 58h8M55 59h8M57 60h6M57 61h6M53 62h10M53 63h10M51 64h12M51 65h12M51 66h12M51 67h12M49 68h16M49 69h16M49 70h16M49 71h16" />
<path stroke="#ffffff" d="M37 36h2M37 37h2M35 38h2M35 39h2M31 40h4M37 40h2M31 41h4M37 41h2M29 42h8M29 43h8M27 44h8M59 44h2M27 45h8M59 45h2M27 46h4M35 46h2M39 46h2M59 46h4M27 47h4M35 47h2M39 47h2M59 47h4M25 48h2M31 48h6M25 49h2M31 49h6M31 50h4M59 50h4M31 51h4M59 51h4M31 52h2M57 52h8M31 53h2M57 53h8M57 54h6M57 55h6" />
</svg>