<svg xmlns="http://www.w3.org/2000/svg" viewBox="0 -0.5 96 96" shape-rendering="crispEdges">
<metadata>Made with Pixels to Svg https://codepen.io/shshaw/pen/XbxvNj</metadata>
<path stroke="#5878b8" d="M30 26h2M36 26h2M54 26h2M62 26h2M30 27h2M36 27h2M54 27h2M62 27h2M58 28h2M64 28h2M58 29h2M64 29h2M28 30h2M48 30h2M28 31h2M48 31h2M24 32h2M44 32h4M62 32h6M24 33h2M44 33h4M62 33h6M60 34h2M66 34h2M60 35h2M66 35h2M22 36h2M46 36h2M62 36h4M68 36h2M22 37h2M46 37h2M62 37h4M68 37h2M62 38h6M62 39h6M40 40h2M60 40h6M40 41h2M60 41h6M22 42h2M38 42h2M58 42h2M62 42h4M22 43h2M38 43h2M58 43h2M62 43h4M36 44h2M46 44h2M62 44h2M36 45h2M46 45h2M62 45h2M24 46h2M36 46h2M60 46h2M64 46h2M70 46h2M24 47h2M36 47h2M60 47h2M64 47h2M70 47h2M26 48h2M34 48h2M26 49h2M34 49h2M74 50h2M74 51h2M34 58h2M34 59h2M68 60h2M68 61h2M22 62h2M28 62h2M62 62h2M22 63h2M28 63h2M62 63h2M64 64h2M64 65h2M22 66h2M22 67h2M20 68h2M32 68h2M64 68h2M20 69h2M32 69h2M64 69h2M34 70h2M62 70h2M34 71h2M62 71h2" />
<path stroke="#181010" d="M32 26h4M56 26h2M60 26h2M32 27h4M56 27h2M60 27h2M28 28h2M38 28h4M50 28h2M54 28h2M28 29h2M38 29h4M50 29h2M54 29h2M42 30h2M52 30h2M62 30h4M42 31h2M52 31h2M62 31h4M26 32h2M48 32h2M60 32h2M68 32h2M26 33h2M48 33h2M60 33h2M68 33h2M22 34h2M44 34h4M58 34h2M62 34h4M68 34h2M22 35h2M44 35h4M58 35h2M62 35h4M68 35h2M44 36h2M58 36h4M66 36h2M44 37h2M58 37h4M66 37h2M22 38h2M42 38h2M46 38h2M58 38h4M22 39h2M42 39h2M46 39h2M58 39h4M22 40h2M46 40h2M58 40h2M66 40h2M22 41h2M46 41h2M58 41h2M66 41h2M46 42h2M60 42h2M66 42h2M46 43h2M60 43h2M66 43h2M24 44h2M60 44h2M64 44h2M24 45h2M60 45h2M64 45h2M48 46h2M62 46h2M68 46h2M48 47h2M62 47h2M68 47h2M50 48h2M72 48h2M50 49h2M72 49h2M28 50h4M34 50h2M52 50h4M28 51h4M34 51h2M52 51h4M32 52h4M70 52h2M74 52h2M32 53h4M70 53h2M74 53h2M34 54h2M68 54h2M74 54h2M34 55h2M68 55h2M74 55h2M34 56h2M72 56h2M34 57h2M72 57h2M26 58h2M36 58h2M68 58h4M26 59h2M36 59h2M68 59h4M24 60h2M28 60h2M32 60h2M64 60h4M70 60h2M24 61h2M28 61h2M32 61h2M64 61h4M70 61h2M30 62h2M64 62h2M68 62h2M30 63h2M64 63h2M68 63h2M22 64h2M30 64h2M66 64h2M22 65h2M30 65h2M66 65h2M32 66h2M64 66h2M32 67h2M64 67h2M34 68h2M34 69h2M20 70h2M36 70h2M20 71h2M36 71h2" />
<path stroke="#ffffff" d="M30 28h8M56 28h2M60 28h2M30 29h8M56 29h2M60 29h2M30 30h12M50 30h2M54 30h8M30 31h12M50 31h2M54 31h8M28 32h16M50 32h10M28 33h16M50 33h10M24 34h20M48 34h10M24 35h20M48 35h10M24 36h18M48 36h10M24 37h18M48 37h10M24 38h12M44 38h2M48 38h10M24 39h12M44 39h2M48 39h10M24 40h8M42 40h4M48 40h10M24 41h8M42 41h4M48 41h10M24 42h8M40 42h6M50 42h6M24 43h8M40 43h6M50 43h6M26 44h4M38 44h8M26 45h4M38 45h8M26 46h4M38 46h10M26 47h4M38 47h10M28 48h2M36 48h14M60 48h12M28 49h2M36 49h14M60 49h12M36 50h16M56 50h16M36 51h16M56 51h16M36 52h34M36 53h34M36 54h32M36 55h32M38 56h12M52 56h16M38 57h12M52 57h16M40 58h8M50 58h16M40 59h8M50 59h16M48 60h16M48 61h16M24 62h2M46 62h16M66 62h2M24 63h2M46 63h16M66 63h2M24 64h4M34 64h2M38 64h2M42 64h14M58 64h2M24 65h4M34 65h2M38 65h2M42 65h14M58 65h2M24 66h4M36 66h2M40 66h20M24 67h4M36 67h2M40 67h20M22 68h4M28 68h2M38 68h24M22 69h4M28 69h2M38 69h24M22 70h2M26 70h2M38 70h24M22 71h2M26 71h2M38 71h24" />
<path stroke="#90a0d8" d="M62 28h2M62 29h2M42 36h2M42 37h2M36 38h6M36 39h6M32 40h8M32 41h8M32 42h6M48 42h2M56 42h2M32 43h6M48 43h2M56 43h2M30 44h6M48 44h12M66 44h2M30 45h6M48 45h12M66 45h2M30 46h6M50 46h10M66 46h2M30 47h6M50 47h10M66 47h2M30 48h4M52 48h8M30 49h4M52 49h8M32 50h2M72 50h2M32 51h2M72 51h2M72 52h2M72 53h2M70 54h4M70 55h4M36 56h2M50 56h2M68 56h4M36 57h2M50 57h2M68 57h4M38 58h2M48 58h2M66 58h2M38 59h2M48 59h2M66 59h2M26 60h2M34 60h14M26 61h2M34 61h14M26 62h2M32 62h14M26 63h2M32 63h14M28 64h2M32 64h2M36 64h2M40 64h2M56 64h2M60 64h4M28 65h2M32 65h2M36 65h2M40 65h2M56 65h2M60 65h4M28 66h4M34 66h2M38 66h2M60 66h4M28 67h4M34 67h2M38 67h2M60 67h4M26 68h2M30 68h2M36 68h2M62 68h2M26 69h2M30 69h2M36 69h2M62 69h2M24 70h2M28 70h6M24 71h2M28 71h6" />
</svg>