<svg xmlns="http://www.w3.org/2000/svg" viewBox="0 -0.5 96 96" shape-rendering="crispEdges">
<metadata>Made with Pixels to Svg https://codepen.io/shshaw/pen/XbxvNj</metadata>
<path stroke="#181010" d="M32 34h2M36 34h2M58 34h6M32 35h2M36 35h2M58 35h6M30 36h2M34 36h2M38 36h2M56 36h2M64 36h2M30 37h2M34 37h2M38 37h2M56 37h2M64 37h2M30 38h2M40 38h2M54 38h2M64 38h4M30 39h2M40 39h2M54 39h2M64 39h4M28 40h2M42 40h2M52 40h2M64 40h4M28 41h2M42 41h2M52 41h2M64 41h4M28 42h2M44 42h2M50 42h2M64 42h4M28 43h2M44 43h2M50 43h2M64 43h4M30 44h2M44 44h2M52 44h2M64 44h4M30 45h2M44 45h2M52 45h2M64 45h4M28 46h2M46 46h2M50 46h2M64 46h4M28 47h2M46 47h2M50 47h2M64 47h4M30 48h2M46 48h2M50 48h2M64 48h4M30 49h2M46 49h2M50 49h2M64 49h4M32 50h2M46 50h2M50 50h2M64 50h4M32 51h2M46 51h2M50 51h2M64 51h4M48 52h4M64 52h2M48 53h4M64 53h2M34 54h2M48 54h4M62 54h4M34 55h2M48 55h4M62 55h4M38 56h2M48 56h4M60 56h6M38 57h2M48 57h4M60 57h6M40 58h2M48 58h2M58 58h6M40 59h2M48 59h2M58 59h6M42 60h4M58 60h4M42 61h4M58 61h4M42 62h2M60 62h2M42 63h2M60 63h2M36 64h2M40 64h2M54 64h2M62 64h2M36 65h2M40 65h2M54 65h2M62 65h2M34 66h2M38 66h4M52 66h2M56 66h2M64 66h2M34 67h2M38 67h4M52 67h2M56 67h2M64 67h2M34 68h2M40 68h2M50 68h2M56 68h2M64 68h2M34 69h2M40 69h2M50 69h2M56 69h2M64 69h2M34 70h2M42 70h2M48 70h2M56 70h2M64 70h2M34 71h2M42 71h2M48 71h2M56 71h2M64 71h2" />
<path stroke="#ffffff" d="M32 36h2M36 36h2M58 36h6M32 37h2M36 37h2M58 37h6M32 38h8M56 38h6M32 39h8M56 39h6M30 40h6M40 40h2M54 40h6M30 41h6M40 41h2M54 41h6M30 42h6M42 42h2M52 42h8M30 43h6M42 43h2M52 43h8M32 44h2M42 44h2M54 44h4M32 45h2M42 45h2M54 45h4M30 46h4M44 46h2M52 46h2M30 47h4M44 47h2M52 47h2M32 48h2M52 48h2M32 49h2M52 49h2M44 62h4M44 63h4M42 64h6M42 65h6M42 66h4M54 66h2M42 67h4M54 67h2M36 68h2M42 68h2M52 68h2M36 69h2M42 69h2M52 69h2M36 70h4M50 70h4M36 71h4M50 71h4" />
<path stroke="#d8b0c0" d="M62 38h2M62 39h2M36 40h4M60 40h4M36 41h4M60 41h4M36 42h6M60 42h4M36 43h6M60 43h4M34 44h8M58 44h6M34 45h8M58 45h6M34 46h10M54 46h10M34 47h10M54 47h10M34 48h12M54 48h10M34 49h12M54 49h10M34 50h10M52 50h10M34 51h10M52 51h10M34 52h10M52 52h6M34 53h10M52 53h6M36 54h6M52 54h4M36 55h6M52 55h4M46 60h8M46 61h8M48 62h10M48 63h10M48 64h6M56 64h4M48 65h6M56 65h4M36 66h2M46 66h6M58 66h2M36 67h2M46 67h6M58 67h2M38 68h2M44 68h6M54 68h2M38 69h2M44 69h6M54 69h2M40 70h2M44 70h4M54 70h2M40 71h2M44 71h4M54 71h2" />
<path stroke="#a878b8" d="M44 50h2M62 50h2M44 51h2M62 51h2M32 52h2M44 52h4M58 52h6M32 53h2M44 53h4M58 53h6M42 54h6M56 54h6M42 55h6M56 55h6M36 56h2M40 56h8M52 56h8M36 57h2M40 57h8M52 57h8M42 58h6M50 58h8M42 59h6M50 59h8M54 60h4M54 61h4M58 62h2M58 63h2M60 64h2M60 65h2M60 66h4M60 67h4M58 68h6M58 69h6M58 70h6M58 71h6" />
</svg>