<svg xmlns="http://www.w3.org/2000/svg" viewBox="0 -0.5 96 96" shape-rendering="crispEdges">
<metadata>Made with Pixels to Svg https://codepen.io/shshaw/pen/XbxvNj</metadata>
<path stroke="#181010" d="M33 40h6M47 40h4M59 40h6M33 41h6M47 41h4M59 41h6M31 42h6M41 42h2M55 42h2M63 42h4M31 43h6M41 43h2M55 43h2M63 43h4M31 44h4M39 44h2M43 44h2M53 44h2M63 44h4M31 45h4M39 45h2M43 45h2M53 45h2M63 45h4M31 46h2M37 46h2M45 46h4M63 46h4M31 47h2M37 47h2M45 47h4M63 47h4M31 48h2M35 48h2M43 48h4M59 48h2M65 48h2M31 49h2M35 49h2M43 49h4M59 49h2M65 49h2M33 50h2M43 50h2M47 50h2M63 50h2M33 51h2M43 51h2M47 51h2M63 51h2M33 52h2M41 52h4M61 52h2M33 53h2M41 53h4M61 53h2M31 54h2M41 54h2M45 54h2M31 55h2M41 55h2M45 55h2M31 56h2M41 56h2M63 56h2M31 57h2M41 57h2M63 57h2M31 58h8M43 58h2M31 59h8M43 59h2M31 60h2M41 60h2M45 60h2M65 60h2M31 61h2M41 61h2M45 61h2M65 61h2M29 62h2M37 62h2M43 62h2M47 62h2M67 62h2M29 63h2M37 63h2M43 63h2M47 63h2M67 63h2M33 64h2M33 65h2M27 66h2M31 66h2M37 66h2M41 66h2M45 66h2M63 66h4M27 67h2M31 67h2M37 67h2M41 67h2M45 67h2M63 67h4M27 68h2M31 68h2M37 68h2M41 68h2M45 68h2M63 68h2M27 69h2M31 69h2M37 69h2M41 69h2M45 69h2M63 69h2M33 70h4M41 70h2M45 70h2M33 71h4M41 71h2M45 71h2" />
<path stroke="#e078a8" d="M45 40h2M51 40h2M57 40h2M65 40h2M45 41h2M51 41h2M57 41h2M65 41h2M37 42h4M43 42h2M53 42h2M61 42h2M37 43h4M43 43h2M53 43h2M61 43h2M37 44h2M51 44h2M37 45h2M51 45h2M49 46h2M49 47h2M61 48h4M61 49h4M63 54h2M63 55h2M39 58h2M63 58h2M39 59h2M63 59h2M35 62h2M39 62h2M35 63h2M39 63h2M27 64h2M41 64h2M45 64h2M63 64h2M67 64h2M27 65h2M41 65h2M45 65h2M63 65h2M67 65h2M43 68h2M43 69h2M27 70h2M39 70h2M43 70h2M61 70h2M27 71h2M39 71h2M43 71h2M61 71h2" />
<path stroke="#ffffff" d="M45 42h4M57 42h4M45 43h4M57 43h4M45 44h4M57 44h6M45 45h4M57 45h6M33 46h2M43 46h2M57 46h4M33 47h2M43 47h2M57 47h4M33 48h2M39 48h4M47 48h4M55 48h4M33 49h2M39 49h4M47 49h4M55 49h4M35 50h8M45 50h2M49 50h2M53 50h8M35 51h8M45 51h2M49 51h2M53 51h8M35 52h6M45 52h2M49 52h12M35 53h6M45 53h2M49 53h12M33 54h8M43 54h2M49 54h14M33 55h8M43 55h2M49 55h14M33 56h8M43 56h2M47 56h16M33 57h8M43 57h2M47 57h16M41 58h2M49 58h14M41 59h2M49 59h14M33 60h2M43 60h2M49 60h14M33 61h2M43 61h2M49 61h14M31 62h4M45 62h2M49 62h14M65 62h2M31 63h4M45 63h2M49 63h14M65 63h2M29 64h4M35 64h6M47 64h16M29 65h4M35 65h6M47 65h16M29 66h2M33 66h4M39 66h2M47 66h14M29 67h2M33 67h4M39 67h2M47 67h14M29 68h2M33 68h4M47 68h10M29 69h2M33 69h4M47 69h10M29 70h4M47 70h6M29 71h4M47 71h6" />
<path stroke="#f0b0c0" d="M49 42h4M49 43h4M35 44h2M41 44h2M49 44h2M55 44h2M35 45h2M41 45h2M49 45h2M55 45h2M35 46h2M39 46h4M51 46h6M61 46h2M35 47h2M39 47h4M51 47h6M61 47h2M37 48h2M51 48h4M37 49h2M51 49h4M51 50h2M61 50h2M51 51h2M61 51h2M47 52h2M63 52h2M47 53h2M63 53h2M47 54h2M47 55h2M45 56h2M45 57h2M45 58h4M45 59h4M35 60h6M47 60h2M63 60h2M35 61h6M47 61h2M63 61h2M41 62h2M63 62h2M41 63h2M63 63h2M43 64h2M65 64h2M43 65h2M65 65h2M43 66h2M61 66h2M43 67h2M61 67h2M39 68h2M57 68h6M39 69h2M57 69h6M37 70h2M53 70h8M37 71h2M53 71h8" />
</svg>