<svg xmlns="http://www.w3.org/2000/svg" viewBox="0 -0.5 96 96" shape-rendering="crispEdges">
<metadata>Made with Pixels to Svg https://codepen.io/shshaw/pen/XbxvNj</metadata>
<path stroke="#f8a050" d="M43 28h2M43 29h2M41 30h2M41 31h2M37 32h2M45 32h2M49 32h2M53 32h2M37 33h2M45 33h2M49 33h2M53 33h2M35 34h2M39 34h4M47 34h2M51 34h2M55 34h2M35 35h2M39 35h4M47 35h2M51 35h2M55 35h2M33 36h2M37 36h6M45 36h10M57 36h2M33 37h2M37 37h6M45 37h10M57 37h2M35 38h6M55 38h4M35 39h6M55 39h4M21 40h2M41 40h2M63 40h2M21 41h2M41 41h2M63 41h2M23 42h2M33 42h4M39 42h2M59 42h4M23 43h2M33 43h4M39 43h2M59 43h4M35 44h2M41 44h2M59 44h2M63 44h2M35 45h2M41 45h2M59 45h2M63 45h2M33 46h2M37 46h2M43 46h2M51 46h2M57 46h6M33 47h2M37 47h2M43 47h2M51 47h2M57 47h6M35 48h6M55 48h6M63 48h2M35 49h6M55 49h6M63 49h2M41 50h12M57 50h2M61 50h2M41 51h12M57 51h2M61 51h2M43 52h10M59 52h2M43 53h10M59 53h2M41 54h2M45 54h2M49 54h2M73 54h2M41 55h2M45 55h2M49 55h2M73 55h2M21 58h2M71 58h2M21 59h2M71 59h2M23 60h2M69 60h2M23 61h2M69 61h2M67 62h2M67 63h2M29 64h2M65 64h2M29 65h2M65 65h2M63 66h2M63 67h2" />
<path stroke="#d05030" d="M45 28h2M57 28h2M45 29h2M57 29h2M27 30h2M39 30h2M45 30h14M27 31h2M39 31h2M45 31h14M27 32h10M39 32h2M43 32h2M47 32h2M51 32h2M55 32h6M27 33h10M39 33h2M43 33h2M47 33h2M51 33h2M55 33h6M25 34h10M37 34h2M45 34h2M49 34h2M53 34h2M57 34h6M25 35h10M37 35h2M45 35h2M49 35h2M53 35h2M57 35h6M23 36h10M35 36h2M55 36h2M59 36h4M67 36h2M23 37h10M35 37h2M55 37h2M59 37h4M67 37h2M21 38h14M59 38h2M63 38h6M21 39h14M59 39h2M63 39h6M53 40h2M61 40h2M65 40h6M53 41h2M61 41h2M65 41h6M29 42h4M43 42h10M63 42h12M29 43h4M43 43h10M63 43h12M27 44h8M39 44h2M55 44h2M61 44h2M65 44h8M27 45h8M39 45h2M55 45h2M61 45h2M65 45h8M23 46h10M35 46h2M53 46h2M63 46h10M23 47h10M35 47h2M53 47h2M63 47h10M25 48h10M61 48h2M65 48h8M25 49h10M61 49h2M65 49h8M21 50h2M25 50h14M59 50h2M63 50h10M21 51h2M25 51h14M59 51h2M63 51h10M23 52h14M39 52h4M53 52h2M61 52h10M73 52h2M23 53h14M39 53h4M53 53h2M61 53h10M73 53h2M23 54h12M37 54h4M43 54h2M47 54h2M51 54h8M61 54h6M23 55h12M37 55h4M43 55h2M47 55h2M51 55h8M61 55h6M21 56h2M25 56h8M35 56h24M63 56h2M71 56h2M21 57h2M25 57h8M35 57h24M63 57h2M71 57h2M23 58h2M31 58h2M35 58h26M69 58h2M23 59h2M31 59h2M35 59h26M69 59h2M25 60h2M35 60h28M67 60h2M25 61h2M35 61h28M67 61h2M27 62h2M37 62h4M57 62h6M65 62h2M27 63h2M37 63h4M57 63h6M65 63h2M31 64h2M31 65h2M61 66h2M61 67h2M57 68h2M57 69h2M35 70h2M57 70h2M35 71h2M57 71h2" />
<path stroke="#181010" d="M47 28h10M47 29h10M29 30h10M43 30h2M59 30h2M29 31h10M43 31h2M59 31h2M25 32h2M41 32h2M61 32h2M25 33h2M41 33h2M61 33h2M23 34h2M43 34h2M63 34h2M23 35h2M43 35h2M63 35h2M21 36h2M43 36h2M63 36h4M21 37h2M43 37h2M63 37h4M41 38h14M61 38h2M69 38h2M41 39h14M61 39h2M69 39h2M23 40h18M43 40h10M55 40h6M71 40h2M23 41h18M43 41h10M55 41h6M71 41h2M25 42h4M37 42h2M41 42h2M53 42h2M57 42h2M25 43h4M37 43h2M41 43h2M53 43h2M57 43h2M25 44h2M37 44h2M43 44h10M57 44h2M73 44h2M25 45h2M37 45h2M43 45h10M57 45h2M73 45h2M39 46h4M55 46h2M73 46h2M39 47h4M55 47h2M73 47h2M23 48h2M41 48h14M73 48h2M23 49h2M41 49h14M73 49h2M23 50h2M39 50h2M53 50h4M73 50h2M23 51h2M39 51h2M53 51h4M73 51h2M21 52h2M37 52h2M55 52h4M71 52h2M21 53h2M37 53h2M55 53h4M71 53h2M21 54h2M35 54h2M59 54h2M67 54h6M21 55h2M35 55h2M59 55h2M67 55h6M23 56h2M33 56h2M59 56h4M65 56h6M23 57h2M33 57h2M59 57h4M65 57h6M25 58h6M33 58h2M61 58h8M25 59h6M33 59h2M61 59h8M27 60h8M63 60h4M27 61h8M63 61h4M29 62h8M41 62h16M63 62h2M29 63h8M41 63h16M63 63h2M33 64h32M33 65h32M35 66h26M35 67h26M35 68h22M35 69h22M37 70h20M37 71h20" />
<path stroke="#ffffff" d="M55 42h2M55 43h2M53 44h2M53 45h2M45 46h6M45 47h6" />
</svg>