<svg xmlns="http://www.w3.org/2000/svg" viewBox="0 -0.5 96 96" shape-rendering="crispEdges">
<metadata>Made with Pixels to Svg https://codepen.io/shshaw/pen/XbxvNj</metadata>
<path stroke="#787890" d="M40 42h2M50 42h2M40 43h2M50 43h2M54 44h2M54 45h2M50 46h4M50 47h4M48 48h4M48 49h4M40 50h2M46 50h4M40 51h2M46 51h4M38 52h2M48 52h2M38 53h2M48 53h2M28 54h2M32 54h2M36 54h2M58 54h2M64 54h2M68 54h2M28 55h2M32 55h2M36 55h2M58 55h2M64 55h2M68 55h2M28 56h2M34 56h4M48 56h2M60 56h2M28 57h2M34 57h4M48 57h2M60 57h2M30 58h2M46 58h2M58 58h4M64 58h2M30 59h2M46 59h2M58 59h4M64 59h2M52 60h2M56 60h2M60 60h2M64 60h2M52 61h2M56 61h2M60 61h2M64 61h2M34 62h2M50 62h2M54 62h2M58 62h2M34 63h2M50 63h2M54 63h2M58 63h2M36 64h2M44 64h2M48 64h2M52 64h2M56 64h4M62 64h2M36 65h2M44 65h2M48 65h2M52 65h2M56 65h4M62 65h2M38 66h2M42 66h2M46 66h2M50 66h2M54 66h4M38 67h2M42 67h2M46 67h2M50 67h2M54 67h4M40 68h14M56 68h2M40 69h14M56 69h2M40 70h2M40 71h2" />
<path stroke="#181010" d="M42 42h2M46 42h4M42 43h2M46 43h4M36 44h4M44 44h2M52 44h2M36 45h4M44 45h2M52 45h2M34 46h2M40 46h4M54 46h4M34 47h2M40 47h4M54 47h4M32 48h2M42 48h2M52 48h2M58 48h10M32 49h2M42 49h2M52 49h2M58 49h10M30 50h4M42 50h4M50 50h2M60 50h4M68 50h2M30 51h4M42 51h4M50 51h2M60 51h4M68 51h2M28 52h6M40 52h2M46 52h2M50 52h2M60 52h4M68 52h2M28 53h6M40 53h2M46 53h2M50 53h2M60 53h4M68 53h2M26 54h2M30 54h2M34 54h2M38 54h2M48 54h2M60 54h4M26 55h2M30 55h2M34 55h2M38 55h2M48 55h2M60 55h4M26 56h2M30 56h4M38 56h2M62 56h2M66 56h2M26 57h2M30 57h4M38 57h2M62 57h2M66 57h2M28 58h2M32 58h2M38 58h2M62 58h2M66 58h2M28 59h2M32 59h2M38 59h2M62 59h2M66 59h2M30 60h4M62 60h2M66 60h2M30 61h4M62 61h2M66 61h2M32 62h2M60 62h6M32 63h2M60 63h6M34 64h2M60 64h2M34 65h2M60 65h2M36 66h2M58 66h2M36 67h2M58 67h2M38 68h2M54 68h2M38 69h2M54 69h2M42 70h12M42 71h12" />
<path stroke="#ffffff" d="M40 44h4M46 44h4M40 45h4M46 45h4M36 46h4M44 46h2M36 47h4M44 47h2M34 48h6M54 48h2M34 49h6M54 49h2M34 50h4M52 50h4M66 50h2M34 51h4M52 51h4M66 51h2M42 52h4M54 52h2M42 53h4M54 53h2M40 54h4M40 55h4M40 56h4M40 57h4" />
<path stroke="#d0a8b0" d="M50 44h2M50 45h2M46 46h4M46 47h4M40 48h2M44 48h4M56 48h2M40 49h2M44 49h4M56 49h2M38 50h2M56 50h4M64 50h2M38 51h2M56 51h4M64 51h2M34 52h4M52 52h2M56 52h4M64 52h4M34 53h4M52 53h2M56 53h4M64 53h4M44 54h4M50 54h8M66 54h2M44 55h4M50 55h8M66 55h2M44 56h4M50 56h10M64 56h2M44 57h4M50 57h10M64 57h2M34 58h4M40 58h6M48 58h10M34 59h4M40 59h6M48 59h10M34 60h18M54 60h2M58 60h2M34 61h18M54 61h2M58 61h2M36 62h14M52 62h2M56 62h2M36 63h14M52 63h2M56 63h2M38 64h6M46 64h2M50 64h2M54 64h2M38 65h6M46 65h2M50 65h2M54 65h2M40 66h2M44 66h2M48 66h2M52 66h2M40 67h2M44 67h2M48 67h2M52 67h2" />
</svg>