<svg xmlns="http://www.w3.org/2000/svg" viewBox="0 -0.5 96 96" shape-rendering="crispEdges">
<metadata>Made with Pixels to Svg https://codepen.io/shshaw/pen/XbxvNj</metadata>
<path stroke="#181010" d="M44 20h8M44 21h8M28 22h2M42 22h2M54 22h2M64 22h2M28 23h2M42 23h2M54 23h2M64 23h2M26 24h2M40 24h2M58 24h2M26 25h2M40 25h2M58 25h2M24 26h2M62 26h2M66 26h2M24 27h2M62 27h2M66 27h2M22 28h2M36 28h2M46 28h2M60 28h2M22 29h2M36 29h2M46 29h2M60 29h2M22 30h2M34 30h2M38 30h2M42 30h2M62 30h2M66 30h2M22 31h2M34 31h2M38 31h2M42 31h2M62 31h2M66 31h2M20 32h2M24 32h2M40 32h2M52 32h4M62 32h2M66 32h2M20 33h2M24 33h2M40 33h2M52 33h4M62 33h2M66 33h2M20 34h2M26 34h2M32 34h2M50 34h2M56 34h2M20 35h2M26 35h2M32 35h2M50 35h2M56 35h2M20 36h2M28 36h2M50 36h4M58 36h2M62 36h2M66 36h4M20 37h2M28 37h2M50 37h4M58 37h2M62 37h2M66 37h4M20 38h2M50 38h2M54 38h2M62 38h2M66 38h2M20 39h2M50 39h2M54 39h2M62 39h2M66 39h2M20 40h2M70 40h2M20 41h2M70 41h2M20 42h2M52 42h2M64 42h2M20 43h2M52 43h2M64 43h2M22 44h2M36 44h2M52 44h2M62 44h4M22 45h2M36 45h2M52 45h2M62 45h4M24 46h2M34 46h2M38 46h2M52 46h2M64 46h4M24 47h2M34 47h2M38 47h2M52 47h2M64 47h4M26 48h2M32 48h2M38 48h2M54 48h2M66 48h2M26 49h2M32 49h2M38 49h2M54 49h2M66 49h2M38 50h2M54 50h2M72 50h2M38 51h2M54 51h2M72 51h2M24 52h2M40 52h2M24 53h2M40 53h2M26 54h2M40 54h2M52 54h2M58 54h2M26 55h2M40 55h2M52 55h2M58 55h2M22 56h2M28 56h2M38 56h2M50 56h2M56 56h2M60 56h2M70 56h2M74 56h2M22 57h2M28 57h2M38 57h2M50 57h2M56 57h2M60 57h2M70 57h2M74 57h2M22 58h2M34 58h2M56 58h2M64 58h2M22 59h2M34 59h2M56 59h2M64 59h2M24 60h2M48 60h2M56 60h2M70 60h2M24 61h2M48 61h2M56 61h2M70 61h2M24 62h2M56 62h2M24 63h2M56 63h2M22 64h2M46 64h2M56 64h2M22 65h2M46 65h2M56 65h2M20 66h2M42 66h2M20 67h2M42 67h2M20 68h2M36 68h4M20 69h2M36 69h4M20 70h2M34 70h2M20 71h2M34 71h2" />
<path stroke="#d05030" d="M52 20h2M64 20h2M52 21h2M64 21h2M30 22h2M56 22h2M30 23h2M56 23h2M38 24h2M62 24h2M66 24h2M38 25h2M62 25h2M66 25h2M26 26h2M42 26h2M60 26h2M26 27h2M42 27h2M60 27h2M24 28h2M30 28h2M64 28h2M24 29h2M30 29h2M64 29h2M54 30h2M54 31h2M34 32h2M56 32h2M34 33h2M56 33h2M48 34h2M54 34h2M58 34h2M64 34h2M48 35h2M54 35h2M58 35h2M64 35h2M30 36h2M46 36h2M56 36h2M30 37h2M46 37h2M56 37h2M44 38h2M48 38h2M56 38h2M60 38h2M68 38h4M44 39h2M48 39h2M56 39h2M60 39h2M68 39h4M46 40h8M62 40h4M46 41h8M62 41h4M36 42h2M44 42h8M66 42h2M36 43h2M44 43h8M66 43h2M34 44h2M38 44h2M44 44h8M66 44h2M70 44h2M34 45h2M38 45h2M44 45h8M66 45h2M70 45h2M32 46h2M44 46h8M32 47h2M44 47h8M28 48h4M42 48h12M68 48h2M72 48h2M28 49h4M42 49h12M68 49h2M72 49h2M40 50h14M40 51h14M20 52h2M26 52h2M44 52h8M54 52h2M72 52h2M20 53h2M26 53h2M44 53h8M54 53h2M72 53h2M22 54h2M44 54h8M56 54h2M74 54h2M22 55h2M44 55h8M56 55h2M74 55h2M26 56h2M30 56h2M42 56h8M26 57h2M30 57h2M42 57h8M32 58h2M36 58h2M42 58h6M50 58h2M62 58h2M74 58h2M32 59h2M36 59h2M42 59h6M50 59h2M62 59h2M74 59h2M40 60h8M68 60h2M72 60h2M40 61h8M68 61h2M72 61h2M26 62h2M36 62h8M48 62h2M26 63h2M36 63h8M48 63h2M34 64h8M34 65h8M30 66h2M34 66h2M44 66h2M56 66h2M30 67h2M34 67h2M44 67h2M56 67h2M28 68h2M32 68h4M40 68h2M28 69h2M32 69h4M40 69h2M26 70h8M58 70h2M26 71h8M58 71h2" />
<path stroke="#ffffff" d="M44 22h10M44 23h10M44 24h12M64 24h2M44 25h12M64 25h2M44 26h14M64 26h2M44 27h14M64 27h2M50 28h2M54 28h6M50 29h2M54 29h6M36 30h2M44 30h2M48 30h2M58 30h4M64 30h2M36 31h2M44 31h2M48 31h2M58 31h4M64 31h2M22 32h2M36 32h4M42 32h2M60 32h2M64 32h2M22 33h2M36 33h4M42 33h2M60 33h2M64 33h2M22 34h2M34 34h8M60 34h2M22 35h2M34 35h8M60 35h2M22 36h4M34 36h6M64 36h2M22 37h4M34 37h6M64 37h2M22 38h16M52 38h2M64 38h2M22 39h16M52 39h2M64 39h2M22 40h14M56 40h6M22 41h14M56 41h6M24 42h10M54 42h10M24 43h10M54 43h10M26 44h6M54 44h8M68 44h2M26 45h6M54 45h8M68 45h2M26 46h6M54 46h10M26 47h6M54 47h10M56 48h10M70 48h2M56 49h10M70 49h2M56 50h16M56 51h16M58 52h14M58 53h14M60 54h8M70 54h2M60 55h8M70 55h2M40 56h2M62 56h8M72 56h2M40 57h2M62 57h8M72 57h2M24 58h6M38 58h2M48 58h2M66 58h6M24 59h6M38 59h2M48 59h2M66 59h6M26 60h6M36 60h2M26 61h6M36 61h2M28 62h6M46 62h2M50 62h4M28 63h6M46 63h2M50 63h4M24 64h6M44 64h2M48 64h8M24 65h6M44 65h2M48 65h8M24 66h2M46 66h10M24 67h2M46 67h10M22 68h2M42 68h14M22 69h2M42 69h14M22 70h2M38 70h20M22 71h2M38 71h20" />
<path stroke="#f8a050" d="M42 24h2M56 24h2M42 25h2M56 25h2M58 26h2M58 27h2M44 28h2M48 28h2M52 28h2M62 28h2M66 28h2M44 29h2M48 29h2M52 29h2M62 29h2M66 29h2M46 30h2M50 30h4M56 30h2M46 31h2M50 31h4M56 31h2M44 32h8M58 32h2M44 33h8M58 33h2M24 34h2M42 34h6M52 34h2M62 34h2M66 34h2M24 35h2M42 35h6M52 35h2M62 35h2M66 35h2M26 36h2M32 36h2M40 36h6M48 36h2M54 36h2M60 36h2M26 37h2M32 37h2M40 37h6M48 37h2M54 37h2M60 37h2M38 38h6M46 38h2M58 38h2M38 39h6M46 39h2M58 39h2M36 40h10M54 40h2M66 40h4M36 41h10M54 41h2M66 41h4M22 42h2M34 42h2M38 42h6M68 42h4M22 43h2M34 43h2M38 43h6M68 43h4M24 44h2M32 44h2M40 44h4M24 45h2M32 45h2M40 45h4M40 46h4M68 46h4M40 47h4M68 47h4M40 48h2M40 49h2M22 52h2M42 52h2M52 52h2M56 52h2M22 53h2M42 53h2M52 53h2M56 53h2M24 54h2M42 54h2M54 54h2M68 54h2M72 54h2M24 55h2M42 55h2M54 55h2M68 55h2M72 55h2M24 56h2M52 56h4M24 57h2M52 57h4M30 58h2M40 58h2M52 58h4M72 58h2M30 59h2M40 59h2M52 59h4M72 59h2M32 60h4M38 60h2M50 60h6M66 60h2M32 61h4M38 61h2M50 61h6M66 61h2M34 62h2M44 62h2M54 62h2M34 63h2M44 63h2M54 63h2M30 64h4M42 64h2M30 65h4M42 65h2M22 66h2M26 66h4M32 66h2M36 66h6M22 67h2M26 67h4M32 67h2M36 67h6M24 68h4M30 68h2M56 68h2M24 69h4M30 69h2M56 69h2M24 70h2M36 70h2M24 71h2M36 71h2" />
</svg>