<svg xmlns="http://www.w3.org/2000/svg" viewBox="0 -0.5 96 96" shape-rendering="crispEdges">
<metadata>Made with Pixels to Svg https://codepen.io/shshaw/pen/XbxvNj</metadata>
<path stroke="#787890" d="M46 30h2M50 30h2M46 31h2M50 31h2M44 32h2M52 32h2M44 33h2M52 33h2M40 38h2M48 38h2M56 38h4M40 39h2M48 39h2M56 39h4M40 40h2M56 40h2M40 41h2M56 41h2M34 42h2M38 42h4M56 42h4M62 42h4M34 43h2M38 43h4M56 43h4M62 43h4M34 44h6M58 44h6M34 45h6M58 45h6M58 48h6M58 49h6M60 50h6M60 51h6M60 52h4M60 53h4M58 54h6M58 55h6M30 56h2M58 56h6M30 57h2M58 57h6M30 58h4M36 58h2M56 58h8M66 58h2M30 59h4M36 59h2M56 59h8M66 59h2M32 60h2M36 60h4M54 60h8M64 60h2M32 61h2M36 61h4M54 61h8M64 61h2M24 62h4M30 62h6M38 62h22M62 62h6M70 62h2M24 63h4M30 63h6M38 63h22M62 63h6M70 63h2M26 64h6M40 64h16M64 64h6M26 65h6M40 65h16M64 65h6M22 66h2M32 66h2M42 66h14M68 66h2M22 67h2M32 67h2M42 67h14M68 67h2M24 68h2M30 68h2M42 68h2M54 68h2M24 69h2M30 69h2M42 69h2M54 69h2M20 70h2M44 70h2M52 70h2M74 70h2M20 71h2M44 71h2M52 71h2M74 71h2" />
<path stroke="#181010" d="M48 30h2M48 31h2M36 32h2M42 32h2M48 32h2M54 32h2M60 32h2M36 33h2M42 33h2M48 33h2M54 33h2M60 33h2M34 34h2M38 34h2M44 34h2M52 34h2M58 34h2M62 34h2M34 35h2M38 35h2M44 35h2M52 35h2M58 35h2M62 35h2M32 36h4M40 36h2M46 36h6M56 36h2M62 36h4M32 37h4M40 37h2M46 37h6M56 37h2M62 37h4M30 38h8M42 38h2M46 38h2M50 38h2M54 38h2M60 38h8M30 39h8M42 39h2M46 39h2M50 39h2M54 39h2M60 39h8M28 40h2M34 40h6M42 40h14M58 40h6M68 40h2M28 41h2M34 41h6M42 41h14M58 41h6M68 41h2M28 42h4M36 42h2M42 42h2M54 42h2M60 42h2M66 42h2M28 43h4M36 43h2M42 43h2M54 43h2M60 43h2M66 43h2M30 44h4M40 44h2M54 44h4M64 44h2M30 45h4M40 45h2M54 45h4M64 45h2M32 46h8M56 46h8M32 47h8M56 47h8M34 48h4M34 49h4M34 50h2M34 51h2M28 52h2M34 52h2M64 52h4M28 53h2M34 53h2M64 53h4M26 54h2M30 54h2M34 54h2M64 54h2M68 54h2M26 55h2M30 55h2M34 55h2M64 55h2M68 55h2M24 56h4M32 56h4M64 56h2M68 56h4M24 57h4M32 57h4M64 57h2M68 57h4M22 58h8M34 58h2M64 58h2M68 58h6M22 59h8M34 59h2M64 59h2M68 59h6M20 60h2M26 60h6M34 60h2M62 60h2M66 60h4M74 60h2M20 61h2M26 61h6M34 61h2M62 61h2M66 61h4M74 61h2M20 62h4M28 62h2M36 62h2M60 62h2M68 62h2M72 62h2M20 63h4M28 63h2M36 63h2M60 63h2M68 63h2M72 63h2M22 64h4M32 64h2M38 64h2M58 64h6M70 64h2M22 65h4M32 65h2M38 65h2M58 65h6M70 65h2M24 66h8M40 66h2M56 66h2M62 66h6M72 66h2M24 67h8M40 67h2M56 67h2M62 67h6M72 67h2M20 68h2M26 68h4M44 68h10M74 68h2M20 69h2M26 69h4M44 69h10M74 69h2M46 70h2M50 70h2M46 71h2M50 71h2" />
<path stroke="#ffffff" d="M46 32h2M50 32h2M46 33h2M50 33h2M36 36h4M58 36h4M36 37h4M58 37h4M38 38h2M38 39h2M32 40h2M64 40h2M32 41h2M64 41h2M32 42h2M32 43h2M44 44h4M44 45h4M44 46h4M44 47h4M42 48h2M42 49h2M28 56h2M66 56h2M28 57h2M66 57h2M24 60h2M70 60h2M24 61h2M70 61h2M24 70h4M58 70h4M24 71h4M58 71h4" />
<path stroke="#d0a8b0" d="M36 34h2M46 34h6M60 34h2M36 35h2M46 35h6M60 35h2M30 40h2M66 40h2M30 41h2M66 41h2M44 42h10M44 43h10M42 44h2M48 44h6M42 45h2M48 45h6M40 46h4M48 46h8M40 47h4M48 47h8M38 48h4M44 48h14M38 49h4M44 49h14M36 50h24M36 51h24M36 52h24M36 53h24M28 54h2M36 54h22M66 54h2M28 55h2M36 55h22M66 55h2M36 56h22M36 57h22M38 58h18M38 59h18M22 60h2M40 60h14M72 60h2M22 61h2M40 61h14M72 61h2M34 64h4M56 64h2M34 65h4M56 65h2M34 66h6M58 66h4M70 66h2M34 67h6M58 67h4M70 67h2M22 68h2M32 68h10M56 68h18M22 69h2M32 69h10M56 69h18M22 70h2M28 70h16M54 70h4M62 70h12M22 71h2M28 71h16M54 71h4M62 71h12" />
</svg>