<svg xmlns="http://www.w3.org/2000/svg" viewBox="0 -0.5 96 96" shape-rendering="crispEdges">
<metadata>Made with Pixels to Svg https://codepen.io/shshaw/pen/XbxvNj</metadata>
<path stroke="#181010" d="M44 16h4M54 16h8M44 17h4M54 17h8M42 18h2M48 18h2M52 18h2M62 18h2M42 19h2M48 19h2M52 19h2M62 19h2M40 20h2M50 20h2M64 20h2M40 21h2M50 21h2M64 21h2M38 22h4M48 22h2M64 22h2M38 23h4M48 23h2M64 23h2M30 24h4M38 24h4M46 24h2M54 24h6M66 24h8M30 25h4M38 25h4M46 25h2M54 25h6M66 25h8M28 26h2M34 26h4M44 26h2M50 26h4M60 26h4M66 26h4M74 26h2M28 27h2M34 27h4M44 27h2M50 27h4M60 27h4M66 27h4M74 27h2M28 28h2M42 28h8M64 28h4M74 28h2M28 29h2M42 29h8M64 29h4M74 29h2M30 30h2M42 30h6M64 30h2M72 30h2M30 31h2M42 31h6M64 31h2M72 31h2M30 32h2M40 32h6M60 32h4M72 32h2M30 33h2M40 33h6M60 33h4M72 33h2M30 34h2M40 34h4M56 34h6M70 34h2M74 34h2M30 35h2M40 35h4M56 35h6M70 35h2M74 35h2M28 36h2M38 36h6M54 36h4M60 36h2M70 36h2M74 36h2M28 37h2M38 37h6M54 37h4M60 37h2M70 37h2M74 37h2M28 38h2M38 38h4M50 38h4M58 38h2M68 38h2M74 38h2M28 39h2M38 39h4M50 39h4M58 39h2M68 39h2M74 39h2M28 40h2M38 40h2M58 40h2M68 40h2M74 40h2M28 41h2M38 41h2M58 41h2M68 41h2M74 41h2M26 42h2M36 42h4M56 42h2M66 42h2M70 42h2M74 42h2M26 43h2M36 43h4M56 43h2M66 43h2M70 43h2M74 43h2M22 44h6M36 44h2M56 44h2M66 44h2M70 44h2M74 44h2M22 45h6M36 45h2M56 45h2M66 45h2M70 45h2M74 45h2M20 46h2M36 46h2M70 46h2M74 46h2M20 47h2M36 47h2M70 47h2M74 47h2M20 48h2M72 48h4M20 49h2M72 49h4M22 50h2M26 50h6M56 50h4M72 50h2M22 51h2M26 51h6M56 51h4M72 51h2M24 52h2M32 52h2M60 52h6M72 52h2M24 53h2M32 53h2M60 53h6M72 53h2M24 54h2M34 54h2M66 54h4M72 54h2M24 55h2M34 55h2M66 55h4M72 55h2M22 56h2M34 56h2M70 56h4M22 57h2M34 57h2M70 57h4M22 58h2M34 58h2M70 58h4M22 59h2M34 59h2M70 59h4M22 60h2M34 60h2M66 60h4M74 60h2M22 61h2M34 61h2M66 61h4M74 61h2M22 62h2M34 62h2M60 62h4M74 62h2M22 63h2M34 63h2M60 63h4M74 63h2M20 64h2M34 64h2M56 64h4M74 64h2M20 65h2M34 65h2M56 65h4M74 65h2M20 66h2M34 66h2M54 66h2M62 66h2M74 66h2M20 67h2M34 67h2M54 67h2M62 67h2M74 67h2M20 68h2M34 68h2M56 68h2M64 68h2M74 68h2M20 69h2M34 69h2M56 69h2M64 69h2M74 69h2M20 70h2M34 70h2M58 70h2M66 70h2M74 70h2M20 71h2M34 71h2M58 71h2M66 71h2M74 71h2" />
<path stroke="#ffffff" d="M44 18h4M54 18h4M44 19h4M54 19h4M42 20h4M52 20h4M42 21h4M52 21h4M50 22h4M50 23h4M30 26h4M38 26h2M54 26h6M70 26h4M30 27h4M38 27h2M54 27h6M70 27h4M30 28h8M50 28h14M68 28h4M30 29h8M50 29h14M68 29h4M32 30h2M36 30h2M48 30h6M62 30h2M66 30h4M32 31h2M36 31h2M48 31h6M62 31h2M66 31h4M32 32h4M46 32h6M64 32h4M32 33h4M46 33h6M64 33h4M32 34h2M44 34h4M62 34h2M32 35h2M44 35h4M62 35h2M30 36h2M44 36h2M50 36h4M30 37h2M44 37h2M50 37h4M30 38h2M42 38h4M54 38h4M70 38h2M30 39h2M42 39h4M54 39h4M70 39h2M30 40h2M40 40h4M50 40h4M30 41h2M40 41h4M50 41h4M28 42h2M40 42h2M68 42h2M28 43h2M40 43h2M68 43h2M28 44h2M38 44h2M68 44h2M28 45h2M38 45h2M68 45h2M22 46h4M28 46h2M38 46h2M68 46h2M22 47h4M28 47h2M38 47h2M68 47h2M28 48h2M38 48h2M70 48h2M28 49h2M38 49h2M70 49h2M36 50h2M70 50h2M36 51h2M70 51h2M26 52h2M36 52h2M54 52h6M70 52h2M26 53h2M36 53h2M54 53h6M70 53h2M26 54h4M52 54h12M70 54h2M26 55h4M52 55h12M70 55h2M24 56h6M52 56h8M62 56h8M24 57h6M52 57h8M62 57h8M24 58h6M38 58h4M52 58h2M56 58h2M60 58h2M24 59h6M38 59h4M52 59h2M56 59h2M60 59h2M24 60h4M40 60h4M58 60h2M72 60h2M24 61h4M40 61h4M58 61h2M72 61h2M24 62h2M40 62h4M72 62h2M24 63h2M40 63h4M72 63h2M22 64h2M42 64h4M72 64h2M22 65h2M42 65h4M72 65h2M22 66h2M44 66h4M50 66h4M70 66h4M22 67h2M44 67h4M50 67h4M70 67h4M22 68h2M44 68h12M62 68h2M70 68h4M22 69h2M44 69h12M62 69h2M70 69h4M22 70h2M46 70h6M64 70h2M68 70h6M22 71h2M46 71h6M64 71h2M68 71h6" />
<path stroke="#d0a8b0" d="M58 18h4M58 19h4M46 20h4M56 20h8M46 21h4M56 21h8M44 22h4M54 22h2M60 22h4M44 23h4M54 23h2M60 23h4M42 24h2M48 24h4M62 24h4M42 25h2M48 25h4M62 25h4M46 26h2M64 26h2M46 27h2M64 27h2M38 28h2M72 28h2M38 29h2M72 29h2M34 30h2M54 30h8M70 30h2M34 31h2M54 31h8M70 31h2M36 32h2M52 32h8M68 32h2M36 33h2M52 33h8M68 33h2M34 34h4M48 34h8M64 34h4M72 34h2M34 35h4M48 35h8M64 35h4M72 35h2M32 36h4M46 36h4M58 36h2M62 36h4M72 36h2M32 37h4M46 37h4M58 37h2M62 37h4M72 37h2M32 38h4M46 38h4M60 38h4M72 38h2M32 39h4M46 39h4M60 39h4M72 39h2M32 40h4M44 40h6M54 40h2M60 40h2M72 40h2M32 41h4M44 41h6M54 41h2M60 41h2M72 41h2M30 42h4M42 42h6M50 42h4M58 42h2M62 42h2M30 43h4M42 43h6M50 43h4M58 43h2M62 43h2M30 44h4M40 44h10M60 44h2M64 44h2M30 45h4M40 45h10M60 45h2M64 45h2M26 46h2M30 46h4M40 46h8M50 46h2M56 46h4M62 46h2M66 46h2M26 47h2M30 47h4M40 47h8M50 47h2M56 47h4M62 47h2M66 47h2M22 48h4M30 48h2M40 48h10M52 48h2M56 48h2M60 48h2M64 48h2M68 48h2M22 49h4M30 49h2M40 49h10M52 49h2M56 49h2M60 49h2M64 49h2M68 49h2M38 50h18M60 50h10M38 51h18M60 51h10M28 52h2M38 52h16M66 52h4M28 53h2M38 53h16M66 53h4M30 54h2M36 54h16M30 55h2M36 55h16M30 56h2M36 56h16M60 56h2M30 57h2M36 57h16M60 57h2M30 58h2M36 58h2M42 58h10M54 58h2M58 58h2M62 58h4M30 59h2M36 59h2M42 59h10M54 59h2M58 59h2M62 59h4M28 60h4M36 60h4M44 60h14M60 60h2M70 60h2M28 61h4M36 61h4M44 61h14M60 61h2M70 61h2M26 62h6M36 62h4M44 62h8M54 62h2M64 62h8M26 63h6M36 63h4M44 63h8M54 63h2M64 63h8M24 64h8M36 64h6M46 64h6M60 64h12M24 65h8M36 65h6M46 65h6M60 65h12M24 66h6M36 66h8M48 66h2M56 66h6M64 66h6M24 67h6M36 67h8M48 67h2M56 67h6M64 67h6M24 68h6M36 68h8M58 68h4M66 68h4M24 69h6M36 69h8M58 69h4M66 69h4M24 70h4M36 70h10M52 70h6M60 70h4M24 71h4M36 71h10M52 71h6M60 71h4" />
<path stroke="#787890" d="M42 22h2M56 22h4M42 23h2M56 23h4M44 24h2M52 24h2M60 24h2M44 25h2M52 25h2M60 25h2M40 26h4M48 26h2M40 27h4M48 27h2M40 28h2M40 29h2M38 30h4M38 31h4M38 32h2M70 32h2M38 33h2M70 33h2M38 34h2M68 34h2M38 35h2M68 35h2M36 36h2M66 36h4M36 37h2M66 37h4M36 38h2M64 38h4M36 39h2M64 39h4M36 40h2M56 40h2M62 40h6M70 40h2M36 41h2M56 41h2M62 41h6M70 41h2M34 42h2M48 42h2M54 42h2M60 42h2M64 42h2M72 42h2M34 43h2M48 43h2M54 43h2M60 43h2M64 43h2M72 43h2M34 44h2M50 44h6M58 44h2M62 44h2M72 44h2M34 45h2M50 45h6M58 45h2M62 45h2M72 45h2M34 46h2M48 46h2M52 46h4M60 46h2M64 46h2M72 46h2M34 47h2M48 47h2M52 47h4M60 47h2M64 47h2M72 47h2M26 48h2M32 48h6M50 48h2M54 48h2M58 48h2M62 48h2M66 48h2M26 49h2M32 49h6M50 49h2M54 49h2M58 49h2M62 49h2M66 49h2M24 50h2M32 50h4M24 51h2M32 51h4M30 52h2M34 52h2M30 53h2M34 53h2M32 54h2M64 54h2M32 55h2M64 55h2M32 56h2M32 57h2M32 58h2M66 58h4M32 59h2M66 59h4M32 60h2M62 60h4M32 61h2M62 61h4M32 62h2M52 62h2M56 62h4M32 63h2M52 63h2M56 63h4M32 64h2M52 64h4M32 65h2M52 65h4M30 66h4M30 67h4M30 68h4M30 69h4M28 70h6M28 71h6" />
</svg>