<svg xmlns="http://www.w3.org/2000/svg" viewBox="0 -0.5 40 30" shape-rendering="crispEdges">
<metadata>Made with Pixels to Svg https://codepen.io/shshaw/pen/XbxvNj</metadata>
<path stroke="#202020" d="M21 5h2M21 6h2M12 7h2M21 7h1M24 7h2M11 8h1M14 8h1M20 8h1M24 8h2M11 9h1M15 9h1M18 9h2M23 9h2M11 10h1M16 10h3M21 10h2M27 10h4M12 11h1M19 11h2M25 11h2M31 11h1M12 12h1M18 12h1M23 12h2M32 12h1M11 13h1M18 13h1M22 13h1M32 13h1M10 14h1M19 14h1M21 14h1M31 14h1M10 15h1M20 15h1M31 15h1M10 16h1M30 16h1M10 17h1M16 17h1M29 17h1M11 18h1M28 18h1M10 19h3M27 19h1M9 20h1M13 20h1M27 20h1M8 21h1M11 21h1M14 21h1M25 21h2M8 22h1M12 22h1M14 22h1M25 22h1M8 23h1M12 23h1M14 23h1M26 23h1M9 24h3M15 24h3M20 24h2M26 24h1M18 25h2M22 25h1M25 25h2M23 26h2M26 26h2M27 27h3M28 28h2" />
<path stroke="#525252" d="M20 7h1M12 8h1M19 8h1M23 8h1M22 9h1M15 10h1M14 11h2M13 12h1M17 12h1M20 16h1M20 17h1M19 18h1M17 19h2M14 20h1M19 20h3M10 21h1M19 21h1M23 21h2M10 22h1M19 22h1M9 23h1M17 23h1M20 23h1" />
<path stroke="#ddae55" d="M13 8h1M14 9h1M14 10h1M22 16h1M21 17h1M24 17h1M20 18h1M22 18h1M25 19h1" />
<path stroke="#803d8b" d="M12 9h2M12 10h2M13 11h1M27 12h3M25 13h6M23 14h2M27 14h4M22 15h4M27 15h4M21 16h1M25 16h2M28 16h2M25 17h1M28 17h1M12 18h1M23 18h2M27 18h1M19 19h5M26 19h1M15 20h2M22 20h5M17 21h2M20 21h1M15 22h1M18 22h1M20 22h1M24 22h1M16 23h1M23 23h3M24 24h2M23 25h2" />
<path stroke="#c1945b" d="M16 11h3M14 12h3M13 13h3M13 14h1" />
<path stroke="#fff379" d="M27 11h4M25 12h2M30 12h2M23 13h2M31 13h1M22 14h1M21 15h1M23 16h2M27 16h1M22 17h2M26 17h2M21 18h1M25 18h2M24 19h1" />
<path stroke="#efe0a8" d="M12 13h1M16 13h2M11 14h2M14 14h5M12 15h4M18 15h1M12 16h3M12 17h3" />
<path stroke="#ff5b67" d="M25 14h2M26 15h1M21 23h1M22 24h2" />
<path stroke="#4a6bce" d="M11 15h1M17 16h1M17 17h1M16 18h1M22 21h1" />
<path stroke="#4aa5ff" d="M16 15h2M11 16h1M15 16h1M15 17h1M15 18h1M17 18h1M21 21h1M21 22h3" />
<path stroke="#c6b77f" d="M19 15h1M18 16h1M11 17h1M13 18h2M17 20h1M15 21h2M16 22h2M19 23h1" />
<path stroke="#ffffff" d="M16 16h1" />
<path stroke="#ad9e66" d="M19 16h1M18 17h2M18 18h1M13 19h4M18 20h1M15 23h1M18 23h1M18 24h2" />
<path stroke="#e33f2c" d="M22 23h1" />
</svg>