<svg xmlns="http://www.w3.org/2000/svg" viewBox="0 -0.5 40 30" shape-rendering="crispEdges">
<metadata>Made with Pixels to Svg https://codepen.io/shshaw/pen/XbxvNj</metadata>
<path stroke="#202020" d="M11 2h1M10 3h1M12 3h1M21 3h3M10 4h1M12 4h1M19 4h2M23 4h1M9 5h1M13 5h1M18 5h1M23 5h1M9 6h1M13 6h1M17 6h1M23 6h1M9 7h1M13 7h1M16 7h1M22 7h1M10 8h1M14 8h1M16 8h1M22 8h1M10 9h1M15 9h1M22 9h1M10 10h1M21 10h1M10 11h1M21 11h1M10 12h1M21 12h1M10 13h1M21 13h1M11 14h1M22 14h1M11 15h1M22 15h1M24 15h2M10 16h2M23 16h1M26 16h2M9 17h1M28 17h1M8 18h1M12 18h2M24 18h2M29 18h1M8 19h1M11 19h1M14 19h1M23 19h1M26 19h1M29 19h1M9 20h1M11 20h1M15 20h1M24 20h1M26 20h1M30 20h1M10 21h1M14 21h1M23 21h1M27 21h1M29 21h2M13 22h1M22 22h1M28 22h2M13 23h1M18 23h2M23 23h1M14 24h1M16 24h1M18 24h1M20 24h1M24 24h1M14 25h2M17 25h1M20 25h1M25 25h2M21 26h1M26 26h1M21 27h1M23 27h1M25 27h1M22 28h1M24 28h1" />
<path stroke="#bf9d4a" d="M11 3h1M11 4h1M10 5h1M12 5h1M10 6h1M12 6h1M21 6h1M10 7h3M20 7h1M11 8h1M14 9h1M20 9h1M14 10h1M20 11h1M20 12h1M20 13h1M21 14h1M14 18h1M17 18h1M15 19h2M16 20h1M23 20h1" />
<path stroke="#fde075" d="M21 4h2M19 5h3M18 6h3M22 6h1M17 7h3M21 7h1M17 8h4M16 9h4M21 9h1M16 10h5M15 11h3M15 12h2M14 13h2M14 14h1M20 15h1M20 16h2M19 17h1M18 18h3M19 19h3M20 20h3M22 21h1" />
<path stroke="#946a35" d="M11 5h1M22 5h1M11 6h1M21 8h1" />
<path stroke="#bd4a42" d="M29 5h2M6 6h2M28 6h1M30 6h1M6 7h1M8 7h1M27 7h1M29 7h1M7 8h1M9 8h1M27 8h1M29 8h1M7 9h1M9 9h1M27 9h1M30 9h1M33 9h1M6 10h1M9 10h1M28 10h1M30 10h1M32 10h1M34 10h1M5 11h1M8 11h1M28 11h1M30 11h1M32 11h1M34 11h1M5 12h1M7 12h1M27 12h1M30 12h1M32 12h1M34 12h1M4 13h1M7 13h1M26 13h1M29 13h1M32 13h1M35 13h1M4 14h1M7 14h1M16 14h1M26 14h1M29 14h1M32 14h1M35 14h1M4 15h1M8 15h1M27 15h1M29 15h1M31 15h1M35 15h1M5 16h1M8 16h1M29 16h2M34 16h1M6 17h1M29 17h1M33 17h1M7 18h1M33 18h1M31 19h2" />
<path stroke="#ef9442" d="M29 6h1M7 7h1M28 7h1M8 8h1M28 8h1M8 9h1M28 9h2M7 10h2M29 10h1M33 10h1M6 11h2M29 11h1M33 11h1M29 12h1M33 12h1M33 13h2M33 14h2M32 15h3M6 16h1M31 16h1M30 17h1" />
<path stroke="#525252" d="M12 8h2M11 9h1M13 9h1M13 10h1M13 11h1M17 12h1M19 12h1M11 13h1M16 13h1M19 13h1M20 14h1M19 15h1M21 15h1M12 16h1M14 16h2M17 16h1M19 16h1M10 17h1M13 17h2M17 17h2M20 17h1M10 18h1M15 18h2M21 18h1M10 19h1M22 19h1" />
<path stroke="#d75a3c" d="M12 9h1M11 10h1M11 11h1M11 12h3M12 13h1M19 14h1M12 15h2M13 16h1M18 16h1M24 16h2M22 17h3M22 18h1M18 20h1M18 21h2M19 22h1M23 24h1M21 25h1M23 25h2M22 26h3M22 27h1M24 27h1" />
<path stroke="#ab433c" d="M12 10h1M12 11h1M18 11h2M18 12h1M18 13h1M12 14h1M18 14h1M14 15h2M17 15h2M16 16h1M22 16h1M15 17h2M21 17h1M23 18h1M17 21h1M20 21h1M18 22h1M15 24h1M22 25h1M25 26h1" />
<path stroke="#816938" d="M15 10h1M14 11h1M14 12h1M13 13h1M13 14h1M15 14h1M11 17h2M26 17h1M11 18h1M27 18h1M28 20h1" />
<path stroke="#f7de31" d="M6 12h1M28 12h1M5 13h2M17 13h1M27 13h2M5 14h2M17 14h1M27 14h2M5 15h3M16 15h1M28 15h1M7 16h1M28 16h1M32 16h2M7 17h2M31 17h2M30 18h3M30 19h1" />
<path stroke="#b38e56" d="M25 17h1M27 17h1M9 18h1M26 18h1M28 18h1M27 19h2M10 20h1M27 20h1" />
<path stroke="#ffffff" d="M9 19h1M29 20h1M28 21h1" />
<path stroke="#5f4e42" d="M17 19h2M17 20h1M19 20h1M15 21h2M21 21h1M14 22h4M20 22h2M14 23h3M20 23h3M21 24h2" />
<path stroke="#863c34" d="M17 23h1M17 24h1" />
</svg>