<svg xmlns="http://www.w3.org/2000/svg" viewBox="0 -0.5 40 30" shape-rendering="crispEdges">
<metadata>Made with Pixels to Svg https://codepen.io/shshaw/pen/XbxvNj</metadata>
<path stroke="#202020" d="M14 3h5M12 4h2M19 4h2M11 5h1M21 5h1M10 6h1M22 6h1M10 7h1M23 7h1M10 8h1M23 8h1M11 9h1M24 9h1M29 9h1M12 10h1M20 10h1M24 10h1M27 10h2M30 10h1M12 11h1M16 11h2M24 11h1M26 11h1M30 11h2M11 12h1M17 12h1M22 12h2M26 12h1M32 12h1M11 13h1M16 13h1M21 13h1M27 13h1M32 13h1M11 14h1M14 14h1M20 14h1M27 14h1M30 14h2M12 15h2M15 15h2M20 15h2M28 15h1M30 15h1M16 16h1M22 16h1M28 16h1M30 16h1M15 17h1M23 17h1M27 17h1M30 17h1M14 18h1M23 18h1M26 18h1M29 18h1M13 19h2M24 19h2M29 19h1M12 20h1M28 20h1M12 21h1M27 21h1M13 22h1M25 22h2M13 23h1M16 23h2M24 23h1M12 24h1M16 24h1M18 24h3M24 24h1M12 25h4M20 25h1M25 25h1M21 26h1M23 26h1M25 26h1M21 27h2M24 27h2" />
<path stroke="#b54727" d="M14 4h1M18 4h1M12 5h1M20 5h1M21 6h1M21 7h2M11 8h1M19 8h1M22 8h1M12 9h1M18 9h1M23 9h1M15 10h1M17 10h1M23 10h1M23 11h1M27 11h1M30 12h1M31 13h1M22 20h1M15 21h2M22 21h1M16 22h2M23 22h1M14 23h2M23 23h1M21 24h2" />
<path stroke="#e85a2e" d="M15 4h3M15 5h5M11 6h1M15 6h6M11 7h1M14 7h7M12 8h7M13 9h5M16 10h1M31 12h1M29 13h1M28 14h2M21 22h2M21 23h2" />
<path stroke="#ec7550" d="M13 5h2M12 6h3M12 7h2M28 13h1" />
<path stroke="#813823" d="M20 8h2M22 9h1M18 10h1M21 12h1M27 12h1M30 13h1M21 20h1M17 21h1M21 21h1M23 21h1M14 22h2M18 23h1M20 23h1" />
<path stroke="#dd9c00" d="M19 9h1M21 9h1M19 11h1M21 11h1M14 20h1M14 24h1M22 25h1M24 25h1" />
<path stroke="#ffda21" d="M20 9h1M21 10h1M20 11h1M13 20h1M13 21h1M19 21h2M19 22h1M13 24h1M22 26h1M24 26h1" />
<path stroke="#525252" d="M13 10h2M22 10h1M15 11h1M18 11h1M22 11h1M28 11h1M19 12h2M28 12h2M17 13h1M29 15h1M17 19h1M20 19h4M15 20h3M20 20h1M23 20h1M14 21h1M18 21h1M24 21h1M18 22h1M20 22h1M24 22h1M19 23h1M15 24h1M23 24h1M21 25h1M23 25h1" />
<path stroke="#ffe174" d="M19 10h1" />
<path stroke="#f2c273" d="M29 10h1M13 11h2M29 11h1M15 12h1M18 13h2M16 14h4M17 15h2M19 16h1M20 17h3M21 18h1M25 20h2" />
<path stroke="#d4a455" d="M12 12h1M18 12h1M20 13h1M13 14h1M19 15h1M20 16h1M19 17h1M20 18h1M28 19h1M24 20h1M27 20h1M25 21h2" />
<path stroke="#ffffff" d="M13 12h1M16 12h1M12 13h1" />
<path stroke="#ffdda2" d="M14 12h1M13 13h3M12 14h1M17 16h2M29 16h1M17 17h2M28 17h2M15 18h4M22 18h1M27 18h2M15 19h2M18 19h2M26 19h2M18 20h2" />
<path stroke="#b9893a" d="M15 14h1M21 16h1M16 17h1M19 18h1" />
</svg>