<svg xmlns="http://www.w3.org/2000/svg" viewBox="0 -0.5 40 30" shape-rendering="crispEdges">
<metadata>Made with Pixels to Svg https://codepen.io/shshaw/pen/XbxvNj</metadata>
<path stroke="#202020" d="M22 9h1M24 9h1M21 10h1M23 10h1M25 10h1M20 11h2M25 11h1M18 12h2M26 12h2M17 13h1M28 13h1M13 14h1M16 14h1M29 14h1M12 15h1M14 15h2M29 15h1M12 16h1M29 16h1M12 17h1M29 17h1M11 18h1M28 18h1M11 19h1M27 19h1M10 20h1M27 20h1M10 21h1M18 21h1M28 21h1M11 22h1M16 22h2M28 22h1M11 23h1M16 23h1M28 23h1M12 24h2M27 24h1M14 25h6M25 25h2M19 26h1M24 26h1M20 27h4" />
<path stroke="#61f422" d="M22 10h1M24 10h1M23 11h1" />
<path stroke="#3fce01" d="M22 11h1M24 11h1M20 12h1M23 12h1M25 12h1M18 13h2M21 13h1M23 13h1M25 13h2M18 14h1M20 14h2M23 14h2M26 14h2M20 15h1M22 15h4M27 15h1M22 16h4" />
<path stroke="#288428" d="M21 12h2M24 12h1M20 13h1M22 13h1M24 13h1M27 13h1M19 14h1M22 14h1M25 14h1M28 14h1M18 15h1M21 15h1M26 15h1M21 16h1M26 16h1M21 17h1M26 17h1M26 18h1M25 19h1" />
<path stroke="#429e42" d="M17 14h1M17 15h1M19 15h1M28 15h1M19 16h2M27 16h2M20 17h1M22 17h4M27 17h2M23 18h3M27 18h1M23 19h2" />
<path stroke="#9de123" d="M13 15h1M13 16h3M13 17h2M12 18h3M18 18h1M13 19h9M13 20h3M17 20h4M11 21h4M16 21h1M20 21h1M12 22h4M13 23h3" />
<path stroke="#525252" d="M16 15h1M17 16h2M19 17h1M20 18h3M22 19h1M26 19h1M21 20h1M23 20h3M17 21h1M19 21h1M23 22h1M24 23h1M20 24h1M24 24h1M24 25h1M23 26h1" />
<path stroke="#6ca914" d="M16 16h1M15 17h1M18 17h1M19 18h1M12 19h1M16 20h1M22 20h1M26 20h1M21 21h5M20 22h3M24 22h2M12 23h1M19 23h3M25 23h3M14 24h6M21 24h1M25 24h1M20 25h4M21 26h1" />
<path stroke="#427a03" d="M16 17h2M15 18h3M12 20h1M15 21h1M26 21h2M26 22h2M22 23h2M22 24h2" />
<path stroke="#bd4a42" d="M11 20h1" />
<path stroke="#ffffff" d="M18 22h2M18 23h1M20 26h1M22 26h1" />
<path stroke="#e64a42" d="M17 23h1" />
<path stroke="#bdbdbd" d="M26 24h1" />
</svg>