<svg xmlns="http://www.w3.org/2000/svg" viewBox="0 -0.5 40 30" shape-rendering="crispEdges">
<metadata>Made with Pixels to Svg https://codepen.io/shshaw/pen/XbxvNj</metadata>
<path stroke="#202020" d="M15 6h4M13 7h2M19 7h2M24 7h2M12 8h1M21 8h3M26 8h1M11 9h1M26 9h1M11 10h1M27 10h1M10 11h1M28 11h1M10 12h1M16 12h1M29 12h2M10 13h1M31 13h1M9 14h1M31 14h1M8 15h1M12 15h1M30 15h1M7 16h1M11 16h1M13 16h3M30 16h1M7 17h1M11 17h1M15 17h1M31 17h1M7 18h1M11 18h1M15 18h1M31 18h1M8 19h1M11 19h1M14 19h1M31 19h1M8 20h1M12 20h1M14 20h1M30 20h1M9 21h1M12 21h1M15 21h1M30 21h1M10 22h1M12 22h1M14 22h1M19 22h1M31 22h1M11 23h2M14 23h5M20 23h2M31 23h1M22 24h1M30 24h1M21 25h1M28 25h2M21 26h4M26 26h2M24 27h2" />
<path stroke="#75a7cf" d="M15 7h3M14 8h6M15 9h6M12 10h3M16 10h1M20 10h1M11 11h5M20 11h2M12 12h2M21 12h1M21 13h2M10 14h1M21 14h4M9 15h3M24 15h2M8 16h3M24 16h3M8 17h3M25 17h3M8 18h3M25 18h4M10 19h1M15 19h1M25 19h4M11 20h1M15 20h1M26 20h4M11 21h1M16 21h1M23 21h1M26 21h4M11 22h1M22 22h3M26 22h3M22 23h2M26 23h1M25 24h2M25 25h2M25 26h1" />
<path stroke="#567b91" d="M18 7h1M13 9h2M15 10h1M21 10h1M25 14h1M20 15h2M26 15h1M19 16h2M27 16h1M16 17h1M18 17h2M16 20h1M23 20h2M22 21h1M24 21h1M17 22h1M24 23h1M23 24h1" />
<path stroke="#4e617a" d="M13 8h1M24 8h2M22 9h3M17 10h1M23 10h2M16 11h1M18 11h1M23 11h1M26 11h2M11 12h1M14 12h1M18 12h2M23 12h1M27 12h2M11 13h4M17 13h3M28 13h3M12 14h3M16 14h3M29 14h1M13 15h1M15 15h1M17 15h1M29 15h1M17 16h1M22 16h1M29 16h1M21 17h1M29 17h1M21 18h2M30 18h1M9 20h1M10 21h1M15 22h1M30 22h1M27 24h1M29 24h1M22 25h1" />
<path stroke="#3d4c5a" d="M20 8h1M12 9h1M21 9h1M25 9h1M18 10h2M25 10h2M19 11h1M24 11h2M22 12h1M24 12h3M23 13h1M26 13h2M19 14h1M27 14h2M30 14h1M22 15h1M28 15h1M21 16h1M20 17h1M22 17h2M30 17h1M16 18h1M20 18h1M23 18h1M16 19h1M20 19h4M30 19h1M17 20h1M22 20h1M17 21h1M21 21h1M16 22h1M18 22h1M21 22h1M29 22h1M27 23h4M28 24h1M27 25h1" />
<path stroke="#525252" d="M22 10h1M22 11h1M20 12h1M20 13h1M24 13h2M11 14h1M15 14h1M20 14h1M26 14h1M14 15h1M16 15h1M18 15h2M23 15h1M27 15h1M16 16h1M18 16h1M23 16h1M28 16h1M17 17h1M24 17h1M28 17h1M24 18h1M29 18h1M9 19h1M24 19h1M29 19h1M10 20h1M25 20h1M25 21h1M25 22h1M25 23h1M24 24h1M23 25h2" />
<path stroke="#ffffff" d="M17 11h1M17 12h1M16 13h1" />
<path stroke="#97c4ad" d="M15 12h1M15 13h1M18 19h2M19 21h2" />
<path stroke="#79a5a5" d="M17 18h3M17 19h1M18 20h4M18 21h1M20 22h1" />
</svg>