<svg xmlns="http://www.w3.org/2000/svg" viewBox="0 -0.5 40 30" shape-rendering="crispEdges">
<metadata>Made with Pixels to Svg https://codepen.io/shshaw/pen/XbxvNj</metadata>
<path stroke="#202020" d="M16 10h1M24 10h2M15 11h1M17 11h1M22 11h2M25 11h1M15 12h1M17 12h1M20 12h2M24 12h1M10 13h2M15 13h1M18 13h2M24 13h2M10 14h1M12 14h3M26 14h1M11 15h1M27 15h1M11 16h1M28 16h1M11 17h1M28 17h1M11 18h1M28 18h1M10 19h1M28 19h1M10 20h1M27 20h1M10 21h1M27 21h1M10 22h1M28 22h1M9 23h1M24 23h3M29 23h1M9 24h5M22 24h2M27 24h3M14 25h2M18 25h4M15 26h1M17 26h1M15 27h2" />
<path stroke="#bfff86" d="M16 11h1M24 11h1M16 12h1M22 12h2M16 13h2M21 13h2M16 14h2M19 14h2M14 15h1M16 15h7M24 15h1M13 16h1M16 16h4M21 16h3M25 16h1M12 17h2M15 17h6M22 17h2M12 18h1M14 18h8M12 19h1M14 19h4M20 19h2M13 20h4M14 21h2" />
<path stroke="#94df52" d="M20 13h1M21 14h4M23 15h1M25 15h2M14 16h1M20 16h1M24 16h1M14 17h1M21 17h1M27 17h1M13 18h1M24 18h2M27 18h1M13 19h1M23 19h3M27 19h1M12 20h1M22 20h1M24 20h2M11 21h1M21 21h2M24 21h2M13 22h1M21 22h2M24 22h1M26 22h2M10 23h2M13 23h4M20 23h2M23 23h1M27 23h2M14 24h7M17 25h1M16 26h1" />
<path stroke="#64af22" d="M23 13h1M15 14h1M18 14h1M25 14h1M13 15h1M15 15h1M12 16h1M15 16h1M27 16h1M25 17h1M22 18h1M26 18h1M18 19h2M22 19h1M26 19h1M23 20h1M26 20h1M12 21h1M23 21h1M26 21h1M11 22h2M23 22h1M25 22h1M22 23h1M21 24h1M16 25h1" />
<path stroke="#b0fb6e" d="M11 14h1M12 15h1M26 16h1M24 17h1M26 17h1M23 18h1M11 19h1M11 20h1M21 20h1M13 21h1M14 22h2" />
<path stroke="#bb383d" d="M17 20h1M19 20h1M16 21h1M19 21h1M19 22h1" />
<path stroke="#f75257" d="M18 20h1M18 21h1M17 22h2" />
<path stroke="#525252" d="M20 20h1M20 21h1M16 22h1M20 22h1M12 23h1M17 23h3" />
<path stroke="#e6d6ce" d="M17 21h1" />
</svg>