<svg xmlns="http://www.w3.org/2000/svg" viewBox="0 -0.5 40 30" shape-rendering="crispEdges">
<metadata>Made with Pixels to Svg https://codepen.io/shshaw/pen/XbxvNj</metadata>
<path stroke="#202020" d="M17 8h2M16 9h1M19 9h1M15 10h1M18 10h1M15 11h1M19 11h2M16 12h1M21 12h2M15 13h1M23 13h1M14 14h1M24 14h1M14 15h1M24 15h1M13 16h1M25 16h1M13 17h1M25 17h1M13 18h1M25 18h1M14 19h1M19 19h1M24 19h1M14 20h1M24 20h1M15 21h1M23 21h1M16 22h1M22 22h1M15 23h1M23 23h2M15 24h1M25 24h1M15 25h1M23 25h2M16 26h2M22 26h1M19 27h3" />
<path stroke="#dab5e2" d="M17 9h2M16 10h2M16 11h2M17 12h2M20 12h1M16 13h1M18 13h5M15 14h9M15 15h9M15 16h10M16 17h1M22 17h3M22 18h2M22 19h1M17 23h1M21 23h1M16 24h7M17 25h1M19 25h3M20 26h2" />
<path stroke="#525252" d="M18 11h1M17 13h1M14 17h1M19 18h1M18 19h1M18 21h1M17 22h1M21 22h1M18 26h1" />
<path stroke="#97729f" d="M19 12h1M16 23h1M16 25h1M18 25h1M19 26h1" />
<path stroke="#fff200" d="M14 16h1M18 17h3M14 18h2M17 18h1M20 18h2M15 19h3M20 19h2M18 20h3" />
<path stroke="#dab071" d="M15 17h1M17 17h1M21 17h1M16 18h1M17 20h1M21 20h1" />
<path stroke="#c5c5c5" d="M18 18h1" />
<path stroke="#b18cb9" d="M24 18h1M23 19h1M15 20h2M22 20h2M16 21h2M19 21h4M18 22h3M18 23h3M22 23h1M23 24h2M22 25h1" />
</svg>