<svg xmlns="http://www.w3.org/2000/svg" viewBox="0 -0.5 40 30" shape-rendering="crispEdges">
<metadata>Made with Pixels to Svg https://codepen.io/shshaw/pen/XbxvNj</metadata>
<path stroke="#202020" d="M17 6h2M17 7h1M19 7h2M18 8h1M21 8h1M17 9h1M21 9h1M16 10h1M21 10h1M13 11h1M15 11h1M22 11h1M12 12h1M14 12h1M23 12h3M12 13h1M26 13h1M12 14h1M26 14h1M13 15h1M26 15h1M13 16h1M26 16h1M14 17h1M25 17h1M14 18h1M18 18h1M23 18h2M14 19h1M22 19h1M12 20h2M23 20h2M11 21h1M15 21h3M25 21h1M11 22h1M14 22h1M18 22h1M26 22h1M12 23h2M17 23h1M27 23h1M17 24h1M27 24h1M18 25h4M26 25h1M22 26h1M26 26h1M23 27h3" />
<path stroke="#e74d71" d="M18 7h1M19 8h1M18 9h3M19 10h1M16 11h6M15 12h3M19 12h4M15 13h1M20 13h3M21 14h1M14 16h1M20 17h1M22 20h1M23 21h1M22 22h1M24 22h2M23 24h1M23 25h2" />
<path stroke="#b4486c" d="M20 8h1M18 10h1M20 10h1M18 12h1M16 13h2M19 13h1M15 14h1M14 20h2M21 20h1M14 21h1M19 21h1M24 21h1M18 23h1M23 23h1M19 24h1M22 24h1M22 25h1" />
<path stroke="#525252" d="M17 10h1M14 13h1M23 13h1M22 14h1M22 15h1M18 17h1M15 19h1M21 19h1M16 20h1M19 20h2M18 21h1M21 21h2M19 22h1M23 22h1M19 23h1M24 23h1M18 24h1M20 24h1M24 24h1M25 25h1" />
<path stroke="#dec573" d="M13 12h1M13 13h1M16 14h1M17 16h1M17 17h1M20 18h2M20 19h1M17 20h2M13 21h1M20 21h1M12 22h1M21 22h1M20 23h1M22 23h1M25 24h1" />
<path stroke="#f7e6a5" d="M18 13h1M24 13h1M14 14h1M17 14h4M23 14h3M15 15h3M20 15h2M23 15h1M25 15h1M15 16h2M21 16h2M25 16h1M15 17h2M21 17h2M24 17h1M15 18h3M16 19h2M20 22h1M21 23h1M25 23h1M21 24h1M26 24h1M23 26h1M25 26h1" />
<path stroke="#bd9c52" d="M25 13h1M13 14h1M22 18h1M18 19h2M12 21h1M13 22h1M26 23h1M24 26h1" />
<path stroke="#ef6b52" d="M14 15h1M18 15h2M20 16h1" />
<path stroke="#c44434" d="M24 15h1M24 16h1" />
<path stroke="#ffffff" d="M18 16h1M19 17h1M19 18h1" />
<path stroke="#d6d6d6" d="M19 16h1" />
<path stroke="#882f25" d="M23 16h1M23 17h1" />
<path stroke="#c54a3a" d="M29 16h1M27 17h2M26 18h1M28 18h1M26 19h1M29 19h1M25 20h1M29 20h1M28 21h1M28 22h1" />
<path stroke="#ff5a3a" d="M27 18h1M27 19h2M26 20h1M28 20h1" />
<path stroke="#ff943a" d="M27 20h1M26 21h1" />
<path stroke="#f7ce42" d="M27 21h1M27 22h1" />
</svg>