<svg xmlns="http://www.w3.org/2000/svg" viewBox="0 -0.5 40 30" shape-rendering="crispEdges">
<metadata>Made with Pixels to Svg https://codepen.io/shshaw/pen/XbxvNj</metadata>
<path stroke="#202020" d="M11 6h4M9 7h2M15 7h1M8 8h1M14 8h1M7 9h1M13 9h1M6 10h1M12 10h1M5 11h1M12 11h1M6 12h2M11 12h1M14 12h2M28 12h4M8 13h1M11 13h1M13 13h1M15 13h1M25 13h3M32 13h2M9 14h1M12 14h1M15 14h1M18 14h3M23 14h2M34 14h1M10 15h1M16 15h2M20 15h1M22 15h1M31 15h3M11 16h1M19 16h1M23 16h1M30 16h1M10 17h1M18 17h1M22 17h1M29 17h1M10 18h1M18 18h1M21 18h1M29 18h1M10 19h1M19 19h2M25 19h4M8 20h2M22 20h3M7 21h1M10 21h1M19 21h3M7 22h1M9 22h1M11 22h1M19 22h1M8 23h1M12 23h2M17 23h2M20 23h2M14 24h3M19 24h1M22 24h1M20 25h1M23 25h1M20 26h1M23 26h1M21 27h1M23 27h1M22 28h1" />
<path stroke="#f2b9f0" d="M11 7h2M9 8h2M8 9h1M6 11h1M14 13h1M28 13h4M13 14h2M26 14h2M32 14h2M13 15h1M18 15h2M23 15h1M25 15h1M12 16h4M17 16h2M24 16h1M11 17h6M23 17h1M11 18h7M22 18h1M11 19h1M13 19h1M17 19h1M21 19h1M14 20h1" />
<path stroke="#db79d6" d="M13 7h2M11 8h3M9 9h4M7 10h1M9 10h3M8 11h4M8 12h3M9 13h2M10 14h2M12 15h1M15 15h1M24 15h1M16 16h1M17 17h1M18 19h1M17 20h2M20 20h1M8 21h2M15 21h4M8 22h1M12 22h6M14 23h3M19 23h1M20 24h2M21 25h2M22 26h1M22 27h1" />
<path stroke="#525252" d="M8 10h1M7 11h1M25 14h1M11 15h1M14 15h1M10 20h1M19 20h1M11 21h1M18 22h1M21 26h1" />
<path stroke="#657c01" d="M28 14h4M26 15h2M25 16h1M27 16h1M24 17h1M28 17h1M23 18h1M28 18h1M22 19h1M21 20h1" />
<path stroke="#98b622" d="M28 15h3M26 16h1M28 16h2M25 17h3M24 18h4M23 19h2" />
<path stroke="#ffffff" d="M12 19h1M11 20h3M12 21h1M14 21h1" />
<path stroke="#f7f729" d="M14 19h1M16 19h1M15 20h1" />
<path stroke="#ce525a" d="M15 19h1" />
<path stroke="#adad10" d="M16 20h1" />
<path stroke="#a5a5a5" d="M13 21h1" />
</svg>