<svg xmlns="http://www.w3.org/2000/svg" viewBox="0 -0.5 40 30" shape-rendering="crispEdges">
<metadata>Made with Pixels to Svg https://codepen.io/shshaw/pen/XbxvNj</metadata>
<path stroke="#202020" d="M13 11h3M12 12h1M16 12h1M12 13h1M16 13h1M19 13h4M12 14h1M16 14h3M23 14h1M26 14h1M28 14h1M13 15h1M18 15h1M23 15h1M26 15h3M12 16h1M23 16h1M26 16h4M9 17h1M11 17h1M22 17h1M27 17h1M8 18h4M13 18h1M23 18h1M26 18h1M9 19h1M11 19h1M23 19h1M26 19h2M10 20h2M17 20h1M24 20h1M27 20h2M12 21h1M24 21h1M28 21h1M11 22h1M24 22h1M27 22h1M12 23h1M24 23h3M12 24h1M23 24h1M13 25h4M23 25h1M17 26h3M22 26h1M19 27h3" />
<path stroke="#efc50f" d="M13 12h2M15 13h1M20 14h2M19 15h1M22 15h1M22 16h1M21 17h1M14 23h1M17 25h2" />
<path stroke="#525252" d="M15 12h1M19 14h1M22 14h1M15 15h1M13 16h1M12 17h1M20 18h2M20 20h1M22 20h1M19 21h5M20 22h1M22 22h1M13 23h1M19 23h1" />
<path stroke="#ffff34" d="M13 13h2M13 14h3M14 15h1M20 15h2M19 16h3M19 17h2M15 23h1M15 24h2" />
<path stroke="#b37656" d="M16 15h1M14 16h4M14 17h4M14 18h5M13 19h1M15 19h2M19 19h1M16 20h1M19 20h1M13 21h1M16 21h2M12 22h1M14 22h4M16 23h1M18 23h1M13 24h1M20 26h1" />
<path stroke="#8d553b" d="M17 15h1M18 16h1M18 17h1M19 18h1M14 19h1M18 19h1M20 19h3M12 20h1M18 20h1M21 20h1M23 20h1M21 22h1M23 22h1M20 23h4M14 24h1M19 24h4M19 25h1M22 25h1M21 26h1" />
<path stroke="#ffffff" d="M13 17h1M12 18h1M12 19h1M17 19h1M14 20h1M18 21h1M18 22h2" />
<path stroke="#6e3d26" d="M22 18h1M13 20h1M13 22h1M17 23h1M17 24h2M20 25h2" />
<path stroke="#c55252" d="M15 20h1M15 21h1" />
<path stroke="#9c4a4a" d="M14 21h1" />
</svg>