<svg xmlns="http://www.w3.org/2000/svg" viewBox="0 -0.5 40 30" shape-rendering="crispEdges">
<metadata>Made with Pixels to Svg https://codepen.io/shshaw/pen/XbxvNj</metadata>
<path stroke="#202020" d="M10 5h2M10 6h1M12 6h1M14 6h1M7 7h3M13 7h1M15 7h1M20 7h2M23 7h3M7 8h1M15 8h1M18 8h2M21 8h2M26 8h1M8 9h1M16 9h2M25 9h1M9 10h1M26 10h2M8 11h1M28 11h1M9 12h1M26 12h2M10 13h1M26 13h1M9 14h2M27 14h1M8 15h1M14 15h1M25 15h2M9 16h2M23 16h2M11 17h1M25 17h2M30 17h3M9 18h2M14 18h3M27 18h1M29 18h1M33 18h1M8 19h1M10 19h1M13 19h1M17 19h1M27 19h2M32 19h1M8 20h2M11 20h2M15 20h2M31 20h1M14 21h1M31 21h1M13 22h1M29 22h2M14 23h1M28 23h1M13 24h1M16 24h3M29 24h1M14 25h2M18 25h3M23 25h1M25 25h1M27 25h2M21 26h2M25 26h2M23 27h2" />
<path stroke="#ff4356" d="M11 6h1M11 7h2M8 8h4M23 8h3M10 9h2M21 9h3M10 10h1M21 10h2M24 10h2M9 11h2M20 11h8M19 12h6M20 13h6M15 14h1M21 14h6M23 15h2M23 22h1M25 22h1M22 23h3" />
<path stroke="#cf2f30" d="M10 7h1M12 8h1M9 9h1M12 9h1M11 10h1M20 10h1M25 12h1M18 13h2M9 15h1" />
<path stroke="#d0cec6" d="M14 7h1M13 8h2M20 8h1M13 9h2M18 9h2M12 10h2M17 10h2M12 11h1M15 11h3M13 12h5M12 13h6M11 14h2M14 14h1M17 14h1M10 15h2M13 15h1M30 18h3M29 19h3M27 20h4M28 21h2" />
<path stroke="#72706c" d="M15 9h1M15 10h1M15 17h2M26 20h1" />
<path stroke="#831123" d="M20 9h1M19 10h1M19 11h1M18 12h1M22 15h1" />
<path stroke="#c12636" d="M24 9h1M23 10h1M11 11h1M10 12h2M11 13h1M15 15h1" />
<path stroke="#a9a79f" d="M14 10h1M13 11h2M18 11h1M12 12h1M13 14h1M12 15h1M20 15h1M19 16h1M17 17h3M17 18h1M19 18h2M20 19h1M26 21h2M30 21h1M27 22h2" />
<path stroke="#525252" d="M16 10h1M20 14h1M19 15h1M21 15h1M21 19h2M20 20h1M23 20h1M20 21h1M22 21h1M21 22h2M15 23h2M14 24h2M24 25h1M23 26h2" />
<path stroke="#ffffff" d="M16 14h1M18 14h2M16 15h2M11 16h5" />
<path stroke="#d6d6d6" d="M18 15h1M16 16h1M18 18h1M19 19h1M19 20h1M18 21h1" />
<path stroke="#737373" d="M17 16h2M9 19h1M21 20h2M21 21h1" />
<path stroke="#a175d5" d="M20 16h2M21 17h3M12 18h2M22 18h5M11 19h2M23 19h3M16 21h2M23 21h2M14 22h2M17 22h2M20 22h1M24 22h1M17 23h1M20 23h2M25 23h2M19 24h10M22 25h1M26 25h1" />
<path stroke="#624a95" d="M22 16h1M12 17h3M20 17h1M24 17h1M11 18h1M21 18h1M26 19h1M24 20h2M19 21h1M25 21h1M19 22h1M26 22h1M18 23h2M27 23h1M21 25h1" />
<path stroke="#9c9c9c" d="M18 19h1M17 20h2" />
<path stroke="#bc87eb" d="M15 21h1M16 22h1" />
</svg>