<svg xmlns="http://www.w3.org/2000/svg" viewBox="0 -0.5 40 30" shape-rendering="crispEdges">
<metadata>Made with Pixels to Svg https://codepen.io/shshaw/pen/XbxvNj</metadata>
<path stroke="#202020" d="M13 3h1M12 4h1M14 4h1M16 4h1M12 5h1M15 5h1M17 5h1M22 5h1M29 5h1M11 6h1M15 6h1M17 6h3M21 6h1M23 6h1M28 6h1M30 6h1M10 7h1M14 7h1M20 7h1M23 7h1M26 7h2M30 7h1M10 8h1M23 8h1M25 8h1M30 8h1M10 9h1M24 9h2M29 9h1M11 10h1M30 10h1M11 11h1M19 11h1M30 11h1M9 12h2M29 12h1M8 13h1M29 13h1M7 14h1M28 14h1M7 15h1M29 15h1M6 16h1M30 16h1M6 17h1M30 17h1M6 18h1M30 18h3M7 19h1M10 19h1M32 19h1M8 20h2M11 20h1M33 20h1M11 21h1M29 21h1M31 21h2M10 22h1M16 22h2M28 22h1M30 22h2M10 23h1M15 23h1M18 23h4M28 23h1M11 24h4M22 24h1M28 24h1M23 25h1M27 25h1M23 26h1M27 26h1M24 27h3" />
<path stroke="#6d8cfe" d="M13 4h1M13 5h2M12 6h3M29 6h1M11 7h3M28 7h2M11 8h3M26 8h4M11 9h3M26 9h3M12 10h1M24 10h1M26 10h1M28 10h2M25 11h1M28 11h2M28 12h1M28 13h1M8 14h3M11 15h1M16 15h1M23 15h1M26 16h2M28 17h1M29 18h1M29 19h1M12 20h2M29 20h1M13 21h5M22 21h2M28 21h1M18 22h6M22 23h1M24 23h1" />
<path stroke="#655959" d="M16 5h1M16 6h1M22 6h1M15 7h2M22 7h1M15 8h2M20 8h3M16 9h1M19 9h3M16 10h4M18 11h1M23 12h1M9 13h1M22 13h2M26 13h1M11 14h1M8 15h3M27 15h2M7 16h1M10 16h2M14 16h4M22 16h3M28 16h1M7 17h1M13 17h2M17 17h6M25 17h3M29 17h1M7 18h4M13 18h1M17 18h1M20 18h2M24 18h5M12 19h2M21 19h1M24 19h1M27 19h2M14 20h1M17 20h1M21 20h2M27 20h2M12 21h1M20 21h2M26 21h2M11 22h4M23 23h1M27 23h1M24 24h4M24 25h3" />
<path stroke="#525252" d="M17 7h1M21 7h1M14 8h1M19 8h1M15 9h1M18 9h1M22 9h1M14 10h1M20 10h2M25 10h1M24 11h1M27 13h1M12 15h2M24 15h1M12 16h1M25 16h1M29 16h1M11 17h1M24 17h1M11 18h1M23 18h1M11 19h1M23 19h1M30 19h2M23 20h1M30 20h3M24 21h2M30 21h1M15 22h1M24 22h1M27 22h1M14 23h1M25 23h2M23 24h1" />
<path stroke="#db7501" d="M18 7h2M17 8h1M23 9h1M23 11h1M11 12h1M13 12h1M22 12h1M11 13h1M19 13h1M12 14h1M25 14h2M25 15h1" />
<path stroke="#ff8e0e" d="M18 8h1M17 9h1M22 10h2M15 11h1M22 11h1M19 12h2M14 13h1M16 13h3M15 14h1M20 14h1M18 16h1" />
<path stroke="#a55a31" d="M14 9h1M13 10h1M13 11h1M15 13h1M20 13h1M16 14h4" />
<path stroke="#ffffff" d="M15 10h1M14 11h1M20 11h1M14 12h1M21 12h1M21 13h1M9 16h1M8 17h3M8 19h2M25 19h2M24 20h2M11 23h1M13 23h1M24 26h1M26 26h1" />
<path stroke="#a8e6ff" d="M27 10h1M12 11h1M26 11h2M12 12h1M24 12h4M12 13h2M24 13h2M13 14h2M21 14h4M14 15h2M17 15h6M19 16h3" />
<path stroke="#6f85d7" d="M16 11h2M15 12h2" />
<path stroke="#d66b42" d="M21 11h1M18 12h1" />
<path stroke="#586ec0" d="M17 12h1" />
<path stroke="#8ec6f7" d="M10 13h1M13 16h1M12 17h1M16 17h1M23 17h1M12 18h1M15 18h1M22 18h1M15 19h5M22 19h1M19 20h1M18 21h1" />
<path stroke="#b7f1ff" d="M27 14h1M26 15h1M15 17h1M14 18h1M16 18h1M18 18h2M14 19h1M20 19h1M15 20h2M18 20h1M20 20h1M19 21h1" />
<path stroke="#bdbdbd" d="M8 16h1M26 20h1M25 22h2M12 23h1M25 26h1" />
</svg>