<svg xmlns="http://www.w3.org/2000/svg" viewBox="0 -0.5 40 30" shape-rendering="crispEdges">
<metadata>Made with Pixels to Svg https://codepen.io/shshaw/pen/XbxvNj</metadata>
<path stroke="#202020" d="M19 3h1M18 4h1M20 4h1M17 5h1M20 5h1M15 6h2M21 6h1M14 7h1M21 7h1M14 8h1M20 8h1M23 8h2M14 9h1M21 9h2M24 9h1M13 10h1M24 10h1M13 11h1M25 11h1M13 12h1M25 12h3M13 13h1M28 13h1M13 14h1M27 14h1M14 15h1M19 15h1M26 15h1M12 16h2M26 16h1M11 17h1M27 17h1M10 18h1M14 18h2M28 18h2M11 19h3M15 19h1M30 19h1M14 20h1M30 20h1M14 21h1M31 21h1M13 22h1M31 22h1M14 23h1M32 23h1M15 24h1M26 24h1M32 24h1M16 25h3M25 25h1M27 25h2M32 25h1M19 26h2M24 26h1M29 26h4M21 27h3" />
<path stroke="#f3ff3a" d="M19 4h1M19 5h1M17 6h3M18 7h3M18 8h1M18 9h1M23 9h1M18 10h1M23 10h1M17 11h1M22 11h2M17 12h1M23 12h1M17 13h1M22 13h2M16 14h2M22 14h1M16 15h2M21 15h2M16 16h1M18 16h4M16 17h3M21 26h1M23 26h1" />
<path stroke="#bdbb3a" d="M18 5h1M20 6h1M15 7h1M17 7h1M15 8h2M19 8h1M15 9h1M14 10h2M17 10h1M22 10h1M14 11h1M18 11h1M14 12h1M14 13h1M16 13h1M14 14h2M15 15h1M17 16h1M19 17h1M14 22h1M22 26h1" />
<path stroke="#424242" d="M16 7h1M17 8h1M17 9h1M19 9h1M16 10h1M19 10h1M21 10h1M16 11h1M19 11h1M21 11h1M16 12h1M18 12h1M22 12h1M15 13h1M18 13h1M18 14h1M14 16h1M25 16h1M12 17h4M23 17h2M26 17h1M21 18h2M23 19h1M23 20h3M24 21h1M26 21h1M15 22h1M24 22h1M27 22h1M25 23h1" />
<path stroke="#3a5873" d="M16 9h1M20 9h1M20 10h1M15 11h1M20 11h1M24 11h1M15 12h1M20 12h2M24 12h1M20 13h1M24 13h2M23 14h1M15 16h1M25 17h1M16 18h1M23 18h5M22 19h1M24 19h6M21 20h2M26 20h4M22 21h2M27 21h4M20 22h1M22 22h2M28 22h3M22 23h3M29 23h2M18 24h8M19 25h6" />
<path stroke="#5bd4dc" d="M19 12h1M19 13h1M21 13h1M27 13h1M21 14h1M25 14h2M24 15h2M23 16h2M22 17h1M20 18h1M18 19h1M18 20h1M17 21h1M25 21h1M16 22h2M25 22h2M15 23h3M26 23h3M31 23h1M17 24h1M27 24h5M29 25h3" />
<path stroke="#50aac2" d="M26 13h1M19 14h2M24 14h1M23 15h1M22 16h1M20 17h2M11 18h3M17 18h3M17 19h1M17 20h1M16 21h1M18 21h1M16 24h1" />
<path stroke="#ffffff" d="M18 15h1M20 15h1M19 19h2M19 20h1M19 21h2M19 22h1M21 22h1M18 23h1M20 23h1" />
<path stroke="#bdbdbd" d="M16 19h1M15 20h2M15 21h1M18 22h1" />
<path stroke="#658ba1" d="M21 19h1M20 20h1M21 21h1M19 23h1M21 23h1" />
</svg>