<svg xmlns="http://www.w3.org/2000/svg" viewBox="0 -0.5 40 30" shape-rendering="crispEdges">
<metadata>Made with Pixels to Svg https://codepen.io/shshaw/pen/XbxvNj</metadata>
<path stroke="#202020" d="M20 10h3M14 11h2M19 11h1M23 11h1M13 12h1M16 12h1M18 12h1M24 12h1M12 13h1M17 13h1M24 13h1M27 13h2M12 14h1M25 14h2M29 14h1M11 15h1M30 15h1M11 16h1M30 16h1M10 17h1M15 17h1M28 17h1M31 17h1M9 18h1M18 18h1M31 18h1M9 19h1M30 19h1M8 20h1M30 20h1M8 21h1M28 21h2M8 22h1M15 22h2M28 22h1M9 23h1M14 23h1M17 23h3M25 23h1M28 23h1M10 24h4M20 24h1M27 24h1M20 25h1M27 25h1M21 26h1M26 26h1M22 27h4" />
<path stroke="#e8c301" d="M20 11h1M22 11h1M14 12h1M19 12h1M23 12h1M13 13h1M23 14h1M12 15h2M22 15h3M29 15h1M13 16h1M22 16h2M23 17h1M30 17h1M10 18h1M17 18h1M21 18h1M29 18h2M15 19h1M20 19h2M27 19h3M14 20h1M19 20h2M28 20h1M9 21h6M16 21h5M10 22h1M13 22h1M17 22h3M27 22h1M11 23h2M21 23h1M23 23h1M27 23h1M21 24h1M23 24h4M22 25h1M25 25h1M23 26h2" />
<path stroke="#bf8b01" d="M21 11h1M15 12h1M21 12h1M22 13h2M13 14h1M22 14h1M24 14h1M14 15h1M18 16h2M25 16h1M27 16h2M17 17h1M23 18h1M12 19h2M24 19h1M9 20h1M11 20h1M16 20h1M24 20h1M26 20h1M29 20h1M25 21h1M9 22h1M14 22h1M24 22h3M10 23h1M13 23h1M22 24h1M21 25h1M26 25h1M22 26h1M25 26h1" />
<path stroke="#fff108" d="M20 12h1M22 12h1M16 13h1M20 13h2M17 14h3M21 14h1M27 14h2M16 15h5M26 15h3M16 16h2M20 16h1M26 16h1M29 16h1M11 17h2M16 17h1M20 17h2M25 17h2M11 18h3M15 18h2M20 18h1M26 18h3M10 19h2M16 19h4M25 19h1M10 20h1M22 20h2M25 20h1M22 21h3M26 21h1M21 22h3M22 23h1" />
<path stroke="#f7f729" d="M14 13h2M14 14h2" />
<path stroke="#525252" d="M18 13h2M16 14h1M20 14h1M15 15h1M21 15h1M25 15h1M12 16h1M14 16h1M21 16h1M24 16h1M13 17h2M22 17h1M24 17h1M14 18h1M22 18h1M24 18h2M14 19h1M22 19h2M26 19h1M12 20h1M15 20h1M17 20h2M21 20h1M27 20h1M15 21h1M21 21h1M27 21h1M11 22h2M20 22h1M20 23h1M23 25h2" />
<path stroke="#ffffff" d="M15 16h1M18 17h2M27 17h1M29 17h1M19 18h1M13 20h1M24 23h1M26 23h1" />
</svg>