<svg xmlns="http://www.w3.org/2000/svg" viewBox="0 -0.5 40 30" shape-rendering="crispEdges">
<metadata>Made with Pixels to Svg https://codepen.io/shshaw/pen/XbxvNj</metadata>
<path stroke="#202020" d="M26 13h2M25 14h1M27 14h3M24 15h1M29 15h1M16 16h4M22 16h1M24 16h1M29 16h1M15 17h1M20 17h1M22 17h2M28 17h1M14 18h1M21 18h1M26 18h2M12 19h2M28 19h1M13 20h2M18 20h1M25 20h3M14 21h1M24 21h1M14 22h1M25 22h1M15 23h1M26 23h1M15 24h1M25 24h1M16 25h1M23 25h2M17 26h3M21 26h2M19 27h2" />
<path stroke="#6f4b4b" d="M26 14h1M25 15h4M26 16h3M24 17h2M24 18h2M14 19h2M19 19h1M25 19h3M15 20h2M19 20h1M18 21h1M23 21h1M24 22h1" />
<path stroke="#ffffff" d="M25 16h1M26 17h2M18 19h1M24 23h2M23 24h2" />
<path stroke="#c5523a" d="M16 17h1M19 17h1M18 18h1M17 19h1M21 19h1M17 20h1M21 20h1M19 21h1M16 24h1" />
<path stroke="#e6845a" d="M17 17h2M15 18h3M19 18h2M16 19h1M20 19h1M15 21h3M20 21h2M15 22h6M16 23h4M18 24h2" />
<path stroke="#525252" d="M22 18h2M24 19h1M24 20h1M20 26h1" />
<path stroke="#a8785d" d="M22 19h1M22 21h1M21 22h1M20 23h1M20 24h1M17 25h1M21 25h2" />
<path stroke="#f4c390" d="M23 19h1M22 20h2M22 22h2M21 23h3M17 24h1M22 24h1M18 25h3" />
<path stroke="#ffd63a" d="M20 20h1" />
<path stroke="#d19a71" d="M21 24h1" />
</svg>