<svg xmlns="http://www.w3.org/2000/svg" viewBox="0 -0.5 40 30" shape-rendering="crispEdges">
<metadata>Made with Pixels to Svg https://codepen.io/shshaw/pen/XbxvNj</metadata>
<path stroke="#202020" d="M9 6h1M8 7h1M10 7h2M8 8h1M12 8h1M14 8h3M22 8h1M9 9h1M13 9h1M17 9h2M20 9h2M23 9h1M9 10h1M19 10h1M23 10h1M10 11h1M23 11h1M9 12h1M22 12h1M9 13h2M15 13h1M22 13h1M9 14h1M21 14h1M10 15h1M15 15h1M20 15h1M10 16h1M21 16h1M24 16h2M11 17h2M20 17h1M23 17h1M26 17h1M13 18h2M20 18h1M22 18h1M26 18h3M15 19h1M21 19h1M29 19h1M15 20h1M29 20h1M14 21h1M29 21h1M14 22h1M29 22h1M13 23h1M30 23h1M13 24h1M30 24h1M14 25h4M23 25h2M27 25h3M18 26h2M22 26h1M25 26h2M20 27h2" />
<path stroke="#6f5f3a" d="M9 7h1M9 8h3M10 9h1M11 14h3M14 15h1M16 15h2M17 16h1M17 17h2M18 18h2M25 19h1M26 20h1M27 21h1M23 22h2" />
<path stroke="#525252" d="M11 9h2M14 9h1M10 10h1M12 10h1M14 10h1M18 10h1M12 11h2M17 11h1M17 14h1M18 15h2M11 16h1M19 17h1M23 18h3M26 19h1M27 20h2M15 21h1M28 22h1M14 23h1M19 23h1M25 23h3M29 23h1M15 24h1M20 24h4M27 24h1" />
<path stroke="#8e7e59" d="M15 9h2M22 9h1M15 10h2M20 10h3M11 11h1M14 11h2M18 11h5M11 12h4M16 12h6M11 13h4M16 13h6M14 14h1M16 14h1M18 14h3M18 16h3M24 17h2M19 19h2M22 19h3M27 19h2M19 20h3M24 20h2M19 21h6M20 22h3" />
<path stroke="#c69d4f" d="M11 10h1M10 14h1M16 17h1M17 18h1M17 19h1M28 21h1M25 22h3M23 23h2" />
<path stroke="#ffffff" d="M13 10h1M10 12h1M15 14h1" />
<path stroke="#f7d429" d="M17 10h1M16 11h1M15 12h1M15 16h2M18 19h1M18 20h1M18 21h1M19 22h1M20 23h3" />
<path stroke="#ff9a90" d="M11 15h3M12 16h3M13 17h3M16 20h2M22 20h2M16 21h2M15 22h4M16 23h2" />
<path stroke="#ef6e62" d="M15 18h2M16 19h1M25 21h2M15 23h1M18 23h1M28 23h1M14 24h1M16 24h4M24 24h3M28 24h2M18 25h5M25 25h2M20 26h2" />
</svg>