<svg xmlns="http://www.w3.org/2000/svg" viewBox="0 -0.5 40 30" shape-rendering="crispEdges">
<metadata>Made with Pixels to Svg https://codepen.io/shshaw/pen/XbxvNj</metadata>
<path stroke="#202020" d="M10 4h1M12 4h1M14 4h1M9 5h1M11 5h1M13 5h1M15 5h1M9 6h1M16 6h3M8 7h1M19 7h2M8 8h1M21 8h2M7 9h1M23 9h1M6 10h1M12 10h1M22 10h3M6 11h1M21 11h1M25 11h1M7 12h1M20 12h1M25 12h1M29 12h1M31 12h1M33 12h1M6 13h1M20 13h1M25 13h2M28 13h1M30 13h1M32 13h1M34 13h1M7 14h1M20 14h1M24 14h1M26 14h1M28 14h1M35 14h1M8 15h1M19 15h1M23 15h1M27 15h1M35 15h1M6 16h2M18 16h1M23 16h1M35 16h1M5 17h1M12 17h3M17 17h1M23 17h1M35 17h1M4 18h1M12 18h1M15 18h1M17 18h1M22 18h1M36 18h1M5 19h1M11 19h1M14 19h1M17 19h1M22 19h1M35 19h1M4 20h1M9 20h2M13 20h1M16 20h1M21 20h1M34 20h1M5 21h2M8 21h1M13 21h1M16 21h1M21 21h1M32 21h2M7 22h1M13 22h1M16 22h1M21 22h1M31 22h1M14 23h1M18 23h3M28 23h3M15 24h4M21 24h1M28 24h1M20 25h1M27 25h1M21 26h1M27 26h1M22 27h5" />
<path stroke="#cdd600" d="M10 5h1M12 5h1M14 5h1M10 6h1M12 6h1M14 6h1M10 7h1M12 7h1M14 7h2M9 8h1M11 8h1M13 8h1M19 8h2M8 9h1M10 9h1M12 9h1M16 9h1M22 9h1M15 10h1M15 11h1M22 11h2M14 12h2M21 12h2M7 13h1M9 13h1M15 13h2M21 13h2M24 13h1M29 13h1M31 13h1M33 13h1M16 14h1M22 14h2M29 14h1M31 14h1M33 14h1M16 15h1M21 15h1M20 16h3M18 17h1M21 17h1M19 18h1M20 19h2M23 20h1M22 21h3M26 21h1M23 22h1M26 22h1" />
<path stroke="#525252" d="M11 6h1M13 6h1M15 6h1M11 7h1M13 7h1M16 7h1M18 7h1M10 8h1M12 8h1M15 8h2M18 8h1M9 9h1M11 9h1M13 9h3M17 9h1M21 9h1M8 10h1M10 10h1M14 10h1M18 10h1M8 11h1M10 11h1M14 11h1M19 11h1M24 11h1M9 12h1M11 12h3M18 12h1M10 13h3M14 13h1M17 13h1M13 14h1M15 14h1M17 14h1M21 14h1M9 15h4M15 15h1M17 15h1M22 15h1M9 16h1M14 16h1M16 16h1M27 16h3M7 17h1M10 17h2M24 17h1M28 17h1M30 17h3M34 17h1M6 18h2M18 18h1M25 18h1M29 18h1M33 18h1M8 19h1M15 19h1M19 19h1M23 19h3M28 19h3M32 19h3M6 20h2M15 20h1M20 20h1M25 20h2M28 20h1M31 20h1M14 21h1M17 21h1M19 21h1M25 21h1M27 21h5M18 22h1M20 22h1M25 22h1M27 22h2M17 23h1M22 23h3M23 24h1M25 24h1M23 25h1M25 25h1M22 26h1M24 26h1M26 26h1" />
<path stroke="#afba00" d="M9 7h1M17 7h1M14 8h1M17 8h1M18 9h2M7 10h1M9 10h1M11 10h1M16 10h1M7 11h1M9 11h1M11 11h1M8 12h1M10 12h1M16 12h1M8 13h1M28 15h1M30 15h1M32 15h1M34 15h1M24 16h1M26 16h1M30 16h5M25 17h2M29 17h1M33 17h1M30 18h3M26 19h1M31 19h1M22 20h1M24 20h1M27 20h1M29 20h2M22 22h1M24 22h1M21 23h1M25 23h3M22 24h1M24 24h1M26 24h2M22 25h1M24 25h1M26 25h1" />
<path stroke="#ffffff" d="M20 9h1M17 10h1M19 10h3M16 11h3M13 13h1M11 14h1M25 14h1M24 15h3M6 17h1M27 17h1M5 18h1M26 18h3M35 18h1M6 19h1M18 19h1M5 20h1M17 20h1M19 20h1M33 20h1M18 21h1M17 22h1M30 22h1" />
<path stroke="#f7de4a" d="M13 10h1M12 11h1" />
<path stroke="#ad9442" d="M13 11h1" />
<path stroke="#bdbdbd" d="M20 11h1M17 12h1M9 14h1M25 16h1M34 18h1M7 19h1M27 19h1M8 20h1M32 20h1M7 21h1M20 21h1M19 22h1M29 22h1M21 25h1M23 26h1M25 26h1" />
<path stroke="#8c8473" d="M19 12h1M18 13h2M8 14h1M10 14h1M12 14h1M14 14h1M18 14h2M13 15h2M18 15h1M10 16h3M15 16h1M17 16h1M15 17h2M16 18h1M23 18h2M16 19h1" />
<path stroke="#6b6b63" d="M23 12h2M23 13h1M20 15h1M8 16h1M13 16h1M19 16h1M8 17h2M19 17h2M22 17h1M8 18h4M20 18h2M9 19h2M18 20h1" />
<path stroke="#7e8900" d="M30 14h1M32 14h1M34 14h1M29 15h1M31 15h1M33 15h1M14 20h1M15 21h1M14 22h2M15 23h2" />
</svg>