<svg xmlns="http://www.w3.org/2000/svg" viewBox="0 -0.5 40 30" shape-rendering="crispEdges">
<metadata>Made with Pixels to Svg https://codepen.io/shshaw/pen/XbxvNj</metadata>
<path stroke="#202020" d="M11 4h2M10 5h1M12 5h1M9 6h1M12 6h1M20 6h1M9 7h1M11 7h1M14 7h2M19 7h1M21 7h1M8 8h1M12 8h2M16 8h2M19 8h1M21 8h1M8 9h1M18 9h1M21 9h1M7 10h1M21 10h1M7 11h1M21 11h1M7 12h1M20 12h1M7 13h1M9 13h2M21 13h1M23 13h1M7 14h1M9 14h1M11 14h1M14 14h1M22 14h1M24 14h1M8 15h1M11 15h1M24 15h1M31 15h2M10 16h1M15 16h1M25 16h1M30 16h1M32 16h1M9 17h1M13 17h2M16 17h1M25 17h1M28 17h2M32 17h1M9 18h1M11 18h1M13 18h1M16 18h1M26 18h2M31 18h1M10 19h1M12 19h1M15 19h1M31 19h1M14 20h1M30 20h1M13 21h1M29 21h1M12 22h2M28 22h1M11 23h1M17 23h1M21 23h1M27 23h1M11 24h2M14 24h1M16 24h1M18 24h3M22 24h1M26 24h1M12 25h2M15 25h2M23 25h1M27 25h1M22 26h1M24 26h1M28 26h1M22 27h2M25 27h4" />
<path stroke="#f34e3e" d="M11 5h1M10 6h1M10 7h1M20 7h1M9 8h1M20 8h1M9 9h1M20 9h1M8 10h2M20 10h1M8 11h1M20 11h1M8 12h1M19 12h1M8 13h1M15 13h1M19 13h1M8 14h1M15 14h1M19 14h1M14 15h1M18 15h1M18 16h1M17 17h1M21 20h1M22 21h1M24 21h1M23 26h1M25 26h1M27 26h1" />
<path stroke="#6b6b6b" d="M11 6h1M10 8h1M10 9h1M19 9h1M19 10h1M9 11h2M18 11h2M9 12h1M17 12h2M17 13h2M16 14h3M12 15h2M15 15h1M17 15h1M13 16h1M17 16h1M31 16h1M30 17h2M18 18h3M30 18h1M17 19h4M28 19h1M17 20h3M15 21h2M20 21h1M15 22h2M20 22h1M23 22h1M23 23h2M24 24h1" />
<path stroke="#525252" d="M11 8h1M11 9h1M10 10h1M18 10h1M11 11h1M15 11h1M17 11h1M10 12h1M15 12h2M14 13h1M16 13h1M20 13h1M13 14h1M20 14h1M16 15h1M19 15h1M21 15h2M12 16h1M14 16h1M16 16h1M19 16h1M23 16h1M18 17h1M21 17h1M24 17h1M17 18h1M22 18h1M24 18h1M16 19h1M21 19h2M25 19h1M16 20h1M20 20h1M25 20h1M29 20h1M17 21h1M21 21h1M23 21h1M25 21h1M22 22h1M24 22h1M26 22h1M13 23h3M26 23h1M23 24h1M25 24h1M24 25h3M26 26h1" />
<path stroke="#5e5b49" d="M14 8h1M13 9h3M11 10h4M12 11h3M12 12h2M11 13h3M12 14h1M11 16h1M21 16h2M10 17h1M22 17h2M23 18h1M28 18h1M23 19h2M26 19h2M22 20h3" />
<path stroke="#434133" d="M15 8h1M12 9h1M17 9h1M15 10h1M17 10h1M16 11h1M11 12h1M14 12h1M21 14h1M23 14h1M20 15h1M23 15h1M20 16h1M11 17h2M19 17h2M21 18h1M29 18h1M29 19h2M15 20h1M26 20h3M14 21h1M18 21h2M26 21h2M17 22h3M21 22h1M25 22h1M16 23h1M19 23h2M22 23h1M25 23h1" />
<path stroke="#28261e" d="M16 9h1M16 10h1M24 16h1M25 18h1M28 21h1M14 22h1M27 22h1M18 23h1" />
<path stroke="#a93030" d="M10 18h1M12 18h1M12 23h1M13 24h1M15 24h1" />
</svg>