<svg xmlns="http://www.w3.org/2000/svg" viewBox="0 -0.5 40 30" shape-rendering="crispEdges">
<metadata>Made with Pixels to Svg https://codepen.io/shshaw/pen/XbxvNj</metadata>
<path stroke="#202020" d="M15 3h2M14 4h1M17 4h1M13 5h1M17 5h1M25 5h2M32 5h3M12 6h1M18 6h2M25 6h1M27 6h1M31 6h1M35 6h1M12 7h1M20 7h1M26 7h1M28 7h1M30 7h1M35 7h1M11 8h1M21 8h1M27 8h1M29 8h1M34 8h1M11 9h1M22 9h1M26 9h2M35 9h1M10 10h1M23 10h1M25 10h1M35 10h1M10 11h1M23 11h2M34 11h1M9 12h1M14 12h1M22 12h1M24 12h1M35 12h1M9 13h1M23 13h1M25 13h3M34 13h1M10 14h1M23 14h1M28 14h2M31 14h3M10 15h1M13 15h2M22 15h1M29 15h1M31 15h1M11 16h2M14 16h1M23 16h1M28 16h1M31 16h1M12 17h2M24 17h1M26 17h2M30 17h1M11 18h1M25 18h1M30 18h1M12 19h1M15 19h1M29 19h1M10 20h2M14 20h1M16 20h1M26 20h1M28 20h1M9 21h1M13 21h1M16 21h1M27 21h1M8 22h1M12 22h1M15 22h1M28 22h1M7 23h1M12 23h1M14 23h1M24 23h2M28 23h1M7 24h1M11 24h1M14 24h1M18 24h2M23 24h1M26 24h1M29 24h1M8 25h2M12 25h1M15 25h1M18 25h1M20 25h1M24 25h1M26 25h1M29 25h1M10 26h2M14 26h1M17 26h1M19 26h1M25 26h1M27 26h2M15 27h2M18 27h1M25 27h1M19 28h1M22 28h3M20 29h2" />
<path stroke="#ff95b4" d="M15 4h2M16 5h1M14 6h2M17 6h1M33 6h2M13 7h3M17 7h1M19 7h1M31 7h2M14 8h1M17 8h1M20 8h1M30 8h1M18 9h1M11 10h1M20 10h1M26 10h2M11 11h1M17 11h2M20 11h1M25 11h1M30 11h1M20 12h1M31 12h1M18 13h2M22 13h1M32 13h1M22 14h1M20 15h1M16 16h2M19 16h1M18 17h1M16 18h3M17 19h1M25 20h1M10 21h1M24 21h2M9 22h1M22 22h1M27 22h1M8 23h1M21 23h2M26 23h2M8 24h1M22 24h1M28 24h1M21 25h1M27 25h2M20 26h2M20 27h1M20 28h1" />
<path stroke="#d66a89" d="M14 5h2M13 6h1M16 6h1M26 6h1M32 6h1M16 7h1M27 7h1M19 9h1M21 9h1M34 9h1M19 10h1M22 10h1M32 10h3M22 11h1M26 11h1M32 11h1M21 12h1M25 12h1M33 12h2M21 13h1M28 13h2M20 16h1M12 20h1M21 22h1M21 24h1M27 24h1M22 25h1M15 26h2" />
<path stroke="#414141" d="M18 7h1M18 8h2M28 8h1M17 9h1M20 9h1M29 9h1M32 9h2M12 10h1M16 10h1M18 10h1M21 10h1M28 10h1M30 10h2M12 11h1M15 11h2M19 11h1M21 11h1M29 11h1M31 11h1M33 11h1M10 12h2M13 12h1M15 12h1M17 12h1M19 12h1M28 12h3M32 12h1M17 13h1M20 13h1M30 13h2M33 13h1M15 14h1M18 14h1M20 14h2M11 15h1M18 15h1M21 15h1M15 16h1M21 16h1M15 17h1M19 17h2M15 18h1M21 18h1M23 18h2M16 19h1M21 19h1M24 19h1M13 20h1M20 20h1M23 20h1M11 21h2M19 21h1M22 21h1M26 21h1M10 22h1M16 22h1M20 22h1M23 22h1M25 22h1M9 23h1M17 23h1M20 23h1M23 23h1M9 24h1M15 24h1M20 24h1M16 25h2M23 25h1M23 26h1M23 27h1" />
<path stroke="#98950d" d="M33 7h2M31 8h3M30 9h2M29 10h1M27 11h2M26 12h2M12 14h1M16 14h2M30 14h1M15 15h3M30 15h1M18 16h1M30 16h1M14 17h1M16 17h2M13 18h2M29 18h1M25 19h1M28 19h1M27 20h1M23 21h1M11 22h1M17 22h1M24 22h1M10 23h2M15 23h2M18 23h2M10 24h1M16 24h2M10 25h2" />
<path stroke="#bd5265" d="M12 8h2M15 8h2M12 9h5M13 10h3M17 10h1M13 11h2M18 12h1M19 14h1M19 15h1M22 26h1M21 27h2M21 28h1" />
<path stroke="#cfcc44" d="M28 9h1M12 12h1M13 13h4M13 14h2M12 15h1M29 16h1M28 17h2M20 18h1M26 18h3M20 19h1M26 19h2M19 20h1M24 20h1M17 21h2M18 22h2M26 22h1M19 27h1" />
<path stroke="#ffffff" d="M16 12h1M12 18h1M22 18h1M13 19h1M22 19h2M21 20h2M20 21h2" />
<path stroke="#f5f26a" d="M10 13h3M11 14h1M22 16h1M21 17h3M14 19h1" />
<path stroke="#626262" d="M19 18h1M18 19h2M17 20h2M24 26h1M24 27h1" />
</svg>