<svg xmlns="http://www.w3.org/2000/svg" viewBox="0 -0.5 40 30" shape-rendering="crispEdges">
<metadata>Made with Pixels to Svg https://codepen.io/shshaw/pen/XbxvNj</metadata>
<path stroke="#202020" d="M18 9h3M16 10h2M21 10h2M15 11h1M23 11h1M14 12h1M24 12h1M15 13h2M25 13h1M17 14h1M25 14h1M17 15h1M25 15h1M15 16h2M26 16h1M14 17h1M26 17h1M15 18h1M22 18h1M26 18h1M14 19h1M26 19h1M15 20h2M26 20h1M17 21h1M25 21h1M17 22h1M25 22h1M15 23h2M25 23h1M14 24h1M24 24h1M15 25h1M23 25h1M16 26h2M21 26h2M18 27h3" />
<path stroke="#d6d66b" d="M18 10h3M16 11h5M22 11h1M15 12h1M19 12h2M22 12h1M20 13h2M23 13h1M21 14h4M21 15h1M18 16h1M15 17h5M20 20h1M18 21h2M18 22h2M17 23h2" />
<path stroke="#bda55a" d="M21 11h1M16 12h1M21 12h1M23 12h1M17 13h2M22 13h1M18 14h2M18 15h2M24 15h1M20 16h1M25 16h1M25 17h1M25 18h1M15 19h5M25 19h1M18 20h1M25 20h1M21 21h1M24 21h1M21 22h4M20 23h3M19 24h3M23 24h1M16 25h6M18 26h3" />
<path stroke="#7b7342" d="M17 12h2M19 13h1M20 14h1M20 15h1M17 16h1M19 16h1M21 16h1M24 16h1M20 17h1M20 19h1M17 20h1M19 20h1M21 20h1M24 20h1M20 21h1M20 22h1M19 23h1M23 23h1M15 24h4M22 24h1M22 25h1" />
<path stroke="#525252" d="M24 13h1M22 15h2M22 16h2M21 17h1M24 17h1M16 18h6M24 18h1M21 19h1M24 19h1M22 20h2M22 21h2M24 23h1" />
<path stroke="#4783f9" d="M22 17h1M23 18h1M22 19h1" />
<path stroke="#445ec2" d="M23 17h1M23 19h1" />
</svg>