<svg xmlns="http://www.w3.org/2000/svg" viewBox="0 -0.5 40 30" shape-rendering="crispEdges">
<metadata>Made with Pixels to Svg https://codepen.io/shshaw/pen/XbxvNj</metadata>
<path stroke="#202020" d="M17 6h4M15 7h2M21 7h1M14 8h1M22 8h1M13 9h1M21 9h2M13 10h1M22 10h1M14 11h1M23 11h3M14 12h1M26 12h2M12 13h2M19 13h1M28 13h2M9 14h3M18 14h1M30 14h1M8 15h1M31 15h1M7 16h1M32 16h1M7 17h1M32 17h1M7 18h1M31 18h1M8 19h1M14 19h1M25 19h1M31 19h1M9 20h2M13 20h1M15 20h1M25 20h2M29 20h2M11 21h2M15 21h1M24 21h1M27 21h2M14 22h1M24 22h1M14 23h1M25 23h1M14 24h1M18 24h3M26 24h1M15 25h3M21 25h1M26 25h1M22 26h1M27 26h1M23 27h5" />
<path stroke="#52525a" d="M17 7h1M20 7h1M16 8h1M18 8h1M15 9h1M17 9h1M20 9h1M15 10h1M17 10h1M19 10h1M15 11h1M17 11h2M16 12h1M20 12h2M23 12h1M23 13h1M13 14h1M11 15h2M14 15h1M16 15h1M22 15h1M28 15h1M12 16h1M14 16h2M20 16h2M24 16h1M26 16h2M12 17h1M14 17h1M16 17h3M20 17h1M25 17h1M11 18h1M14 18h1M19 18h1M25 18h1M24 19h1M22 20h2M17 21h1M21 21h1M16 22h1M22 22h2M21 23h3M15 24h1M21 24h2" />
<path stroke="#ceb56b" d="M18 7h2M21 8h1M19 9h1M14 10h1M18 10h1M16 11h1M24 20h1M16 21h1M18 21h1M20 21h1M22 21h2M17 22h1M21 22h1M18 23h1M20 23h1" />
<path stroke="#f7e694" d="M15 8h1M17 8h1M19 8h2M14 9h1M16 9h1M18 9h1M16 10h1M19 21h1M18 22h1M20 22h1M19 23h1" />
<path stroke="#a9cf79" d="M20 10h2M19 11h3M15 12h1M17 12h3M14 13h5M14 14h4M10 15h1M15 15h1M30 15h1M9 16h1M11 16h1M29 16h3M8 17h1M10 17h1M15 17h1M21 17h1M27 17h3M9 18h1M15 18h2M18 18h1M20 18h2M26 18h1M28 18h3M16 19h1M18 19h3M27 19h1M29 19h1M27 20h1M24 26h1M26 26h1" />
<path stroke="#789e48" d="M22 11h1M22 12h1M24 12h1M21 13h2M24 13h1M26 13h2M12 14h1M21 14h5M27 14h2M9 15h1M13 15h1M17 15h5M23 15h4M8 16h1M10 16h1M16 16h4M22 16h2M25 16h1M9 17h1M11 17h1M13 17h1M22 17h3M26 17h1M8 18h1M10 18h1M12 18h2M22 18h3M27 18h1M9 19h5M15 19h1M21 19h3M26 19h1M28 19h1M30 19h1M11 20h2M16 20h2M19 20h3M28 20h1M15 22h1M15 23h3M24 23h1M16 24h2M23 24h3M22 25h1M23 26h1" />
<path stroke="#5c822c" d="M25 12h1M25 13h1M26 14h1M29 14h1M27 15h1M13 16h1M17 18h1M17 19h1M18 20h1M23 25h3M25 26h1" />
<path stroke="#bdbdb5" d="M20 13h1" />
<path stroke="#2a82ff" d="M19 14h1M29 15h1M28 16h1M30 17h2M19 22h1" />
<path stroke="#ffffff" d="M20 14h1M19 17h1" />
</svg>