<svg xmlns="http://www.w3.org/2000/svg" viewBox="0 -0.5 40 30" shape-rendering="crispEdges">
<metadata>Made with Pixels to Svg https://codepen.io/shshaw/pen/XbxvNj</metadata>
<path stroke="#202020" d="M19 0h4M17 1h2M23 1h1M16 2h1M19 2h2M24 2h1M15 3h1M18 3h1M21 3h1M24 3h1M14 4h1M19 4h2M24 4h1M12 5h1M14 5h1M24 5h1M11 6h1M13 6h1M25 6h1M11 7h1M26 7h1M12 8h1M27 8h1M13 9h1M28 9h1M13 10h1M28 10h1M13 11h1M18 11h1M22 11h2M29 11h1M14 12h1M21 12h1M24 12h1M29 12h1M14 13h1M20 13h1M24 13h1M29 13h1M15 14h1M21 14h1M23 14h1M29 14h1M15 15h1M22 15h2M28 15h1M15 16h1M24 16h1M28 16h1M14 17h1M25 17h1M27 17h1M13 18h1M26 18h1M13 19h1M26 19h1M14 20h1M25 20h1M14 21h1M18 21h1M23 21h3M13 22h1M17 22h1M19 22h1M22 22h1M12 23h1M18 23h1M20 23h1M23 23h1M11 24h1M14 24h2M18 24h1M20 24h1M23 24h1M11 25h1M13 25h1M15 25h1M17 25h1M19 25h1M24 25h1M10 26h1M13 26h1M16 26h1M19 26h1M24 26h1M10 27h1M14 27h1M20 27h1M22 27h2M10 28h1M14 28h1M21 28h1M11 29h3" />
<path stroke="#eaeaea" d="M19 1h3M17 2h1M21 2h2M16 3h1M22 3h2M22 4h2M17 5h3M22 5h1M16 6h2M19 6h1M21 6h2M24 6h1M15 7h2M18 7h1M20 7h2M24 7h2M15 8h2M18 8h4M23 8h3M14 9h4M19 9h6M14 10h2M17 10h2M21 10h1M15 11h1M17 11h1M19 11h1M15 12h2M16 13h1M21 15h1M21 16h2M22 17h3M20 18h2M23 18h2M19 19h3M23 19h1M19 20h4M20 21h2" />
<path stroke="#6f6f6f" d="M22 1h1M23 2h1M15 4h1M20 6h1M23 7h1M22 8h1M16 16h1M15 17h1M15 18h1" />
<path stroke="#c7c7c7" d="M18 2h1M16 4h1M15 5h1M21 5h1M12 6h1M12 7h2M22 7h1M13 8h1M16 10h1M16 11h1M21 11h1M19 12h2M15 13h1M17 13h3M17 14h1M20 15h1M19 16h1M23 16h1M17 17h4M17 18h2M16 19h2M17 20h1M20 22h2M21 23h1M21 24h2M21 25h1" />
<path stroke="#9c9c9c" d="M17 3h1M23 5h1M18 9h1M20 10h1M20 11h1M16 14h1M20 14h1M18 15h2M18 16h1M15 20h1M15 21h2M22 21h1M16 22h1M16 23h2M22 23h1M17 24h1" />
<path stroke="#525252" d="M17 4h2M21 4h1M16 5h1M20 5h1M14 6h2M18 6h1M23 6h1M14 7h1M17 7h1M19 7h1M14 8h1M17 8h1M19 10h1M22 10h1M14 11h1M17 12h1M18 14h2M16 15h2M17 16h1M20 16h1M16 17h1M21 17h1M16 18h1M19 18h1M22 18h1M15 19h1M18 19h1M22 19h1M16 20h1M18 20h1M23 20h1M17 21h1M19 21h1M15 22h1M15 23h1M20 26h1M22 26h1M11 28h1M13 28h1" />
<path stroke="#aff20c" d="M26 8h1M25 9h1M23 10h1" />
<path stroke="#8dd301" d="M26 9h1M24 10h2M25 19h1M24 20h1M23 25h1M21 26h1M23 26h1M21 27h1" />
<path stroke="#6fad01" d="M27 9h1M26 10h2M24 11h5M25 12h4M25 13h4M26 14h2M25 18h1M24 19h1M16 24h1M16 25h1M20 25h1M22 25h1M11 26h2M11 27h3M12 28h1" />
<path stroke="#78b801" d="M18 12h1" />
<path stroke="#548501" d="M24 14h2M28 14h1M24 15h4M25 16h3M26 17h1M14 18h1M14 19h1M14 22h1M13 23h2M12 24h2M12 25h1" />
</svg>