<svg xmlns="http://www.w3.org/2000/svg" viewBox="0 -0.5 40 30" shape-rendering="crispEdges">
<metadata>Made with Pixels to Svg https://codepen.io/shshaw/pen/XbxvNj</metadata>
<path stroke="#202020" d="M9 8h1M8 9h1M10 9h1M13 9h1M30 9h2M8 10h1M11 10h2M14 10h1M26 10h1M28 10h2M31 10h1M7 11h1M14 11h1M20 11h2M25 11h1M27 11h1M31 11h1M7 12h1M15 12h1M18 12h2M21 12h1M24 12h1M30 12h1M8 13h1M15 13h3M20 13h1M24 13h1M30 13h1M8 14h1M19 14h1M21 14h3M29 14h1M9 15h1M20 15h1M26 15h3M10 16h2M25 16h1M12 17h1M24 17h1M28 17h3M13 18h1M25 18h3M30 18h1M13 19h1M31 19h2M12 20h1M32 20h1M12 21h1M19 21h2M23 21h1M31 21h1M11 22h1M16 22h1M19 22h1M21 22h2M24 22h1M32 22h2M10 23h1M18 23h1M25 23h1M34 23h1M9 24h1M12 24h6M26 24h2M31 24h4M9 25h3M28 25h3" />
<path stroke="#ffa53a" d="M9 9h1M9 10h1M13 10h1M30 10h1M12 11h1M26 11h1M29 11h1M10 12h1M25 12h1M27 12h1M29 12h1M12 13h1M18 13h2M27 13h1M17 15h1M16 16h2M14 17h1M23 18h1M28 18h1M27 19h2M24 20h1M30 20h2M26 21h1M27 22h1M30 22h1M29 23h1" />
<path stroke="#f76b3a" d="M10 10h1M9 11h2M13 11h1M30 11h1M11 12h2M14 12h1M20 12h1M26 12h1M11 13h1M13 13h2M25 13h2M28 13h2M13 14h3M17 14h2M24 14h5M14 15h1M18 15h1M24 15h2M13 16h1M15 17h2M14 18h4M24 18h1M29 18h1M15 19h2M23 19h3M26 20h2M29 20h1M27 21h4M29 22h1M30 23h4" />
<path stroke="#fab7ed" d="M8 11h1M8 12h2M9 13h2M9 14h4M10 15h4M16 15h1M21 15h2M12 16h1M19 16h5M18 17h5M19 18h4M19 19h1M21 19h2M13 20h2M22 20h2M25 20h1M14 21h2M24 21h2M25 22h2M28 22h1M26 23h3M28 24h3" />
<path stroke="#ad423a" d="M11 11h1M13 12h1M16 14h1M15 15h1M19 15h1M14 16h2M18 16h1M24 16h1M13 17h1M17 17h1M23 17h1M18 18h1M14 19h1M17 19h1M26 19h1M29 19h2M15 20h2M28 20h1M31 22h1" />
<path stroke="#ffde42" d="M28 11h1M28 12h1" />
<path stroke="#d390a5" d="M23 15h1M20 19h1M17 20h1M16 21h1" />
<path stroke="#f4a9e5" d="M18 19h1M18 20h3M18 21h1M15 22h1M18 22h1M15 23h3" />
<path stroke="#525252" d="M21 20h1M13 21h1M22 21h1M14 22h1M14 23h1" />
<path stroke="#ffffff" d="M17 21h1M17 22h1" />
<path stroke="#d85759" d="M21 21h1M12 22h2M11 23h3M10 24h2" />
</svg>