<svg xmlns="http://www.w3.org/2000/svg" viewBox="0 -0.5 40 30" shape-rendering="crispEdges">
<metadata>Made with Pixels to Svg https://codepen.io/shshaw/pen/XbxvNj</metadata>
<path stroke="#202020" d="M23 6h2M21 7h2M25 7h2M16 8h3M20 8h1M27 8h1M29 8h2M14 9h2M19 9h1M24 9h2M28 9h1M31 9h1M12 10h2M23 10h1M26 10h2M31 10h1M11 11h1M24 11h2M28 11h3M10 12h1M15 12h1M26 12h2M10 13h1M14 13h1M16 13h2M28 13h1M11 14h1M13 14h1M16 14h1M29 14h1M11 15h1M13 15h1M15 15h1M29 15h1M11 16h1M13 16h1M15 16h1M30 16h1M10 17h1M14 17h1M30 17h1M10 18h1M30 18h1M9 19h1M30 19h1M9 20h1M30 20h1M9 21h1M29 21h1M10 22h1M21 22h1M29 22h1M10 23h1M21 23h1M26 23h3M11 24h1M25 24h1M12 25h3M17 25h1M25 25h1M15 26h2M18 26h2M23 26h2M20 27h3" />
<path stroke="#bd8cef" d="M23 7h2M21 8h6M16 9h3M20 9h4M26 9h2M29 9h2M15 10h2M18 10h5M28 10h3M12 11h3M17 11h3M11 12h4M16 12h2M11 13h3M12 14h1M12 15h1M12 16h1M12 17h2M11 18h1M13 18h1M10 19h2M13 19h1M10 20h1M12 20h2M21 20h1M10 21h5M21 21h1M24 21h2M27 21h1M11 22h4M24 22h2M27 22h2M11 23h4M12 24h5M15 25h2" />
<path stroke="#6e54b7" d="M14 10h1M17 10h1M15 11h2M11 17h1M12 18h1M12 19h1M11 20h1M15 23h2M17 24h1" />
<path stroke="#525252" d="M20 11h4M18 12h2M14 18h1M14 19h1M27 19h1M14 20h1M23 20h1M27 20h1M15 21h1M20 21h1M23 21h1M26 21h1M15 22h1M23 22h1M26 22h1M24 23h2" />
<path stroke="#4e9ecb" d="M20 12h5M18 13h9M17 14h11M16 15h1M18 15h1M21 15h8M24 16h5M25 17h3M25 18h1M25 19h2M25 20h2" />
<path stroke="#3888b5" d="M25 12h1M28 17h1M26 18h2M24 20h1" />
<path stroke="#2575a2" d="M27 13h1M28 14h1M29 16h1M29 17h1M28 18h2M24 19h1M28 19h2M28 20h2M28 21h1" />
<path stroke="#ffb4bb" d="M17 15h1M19 15h2M16 16h5M22 16h1M16 17h8M15 18h9M15 19h9M16 20h5M22 20h1M16 21h4M22 21h1M17 22h4M22 22h1M17 23h4M22 23h1M18 24h6M19 25h3" />
<path stroke="#f38792" d="M21 16h1M23 16h1M15 17h1M24 17h1M24 18h1M15 20h1M16 22h1M23 23h1M24 24h1M18 25h1M22 25h3M20 26h3" />
</svg>