<svg xmlns="http://www.w3.org/2000/svg" viewBox="0 -0.5 40 30" shape-rendering="crispEdges">
<metadata>Made with Pixels to Svg https://codepen.io/shshaw/pen/XbxvNj</metadata>
<path stroke="#202020" d="M16 7h1M15 8h1M17 8h1M22 8h2M15 9h1M17 9h3M21 9h1M24 9h1M15 10h1M20 10h1M25 10h1M15 11h1M25 11h1M14 12h2M25 12h1M12 13h3M19 13h1M24 13h1M11 14h1M23 14h1M10 15h1M23 15h1M25 15h2M10 16h1M24 16h1M27 16h2M11 17h1M29 17h1M11 18h1M29 18h1M12 19h1M17 19h1M29 19h1M13 20h4M18 20h1M28 20h1M18 21h1M26 21h2M17 22h2M20 22h1M24 22h2M16 23h1M19 23h1M21 23h1M23 23h1M17 24h2M20 24h1M24 24h1M19 25h1M23 25h1M20 26h3" />
<path stroke="#dddef8" d="M16 8h1M16 9h1M22 10h3M23 11h1M20 12h1M23 12h2M22 13h1M25 17h1M13 18h2M23 18h2M28 18h1M13 19h1M15 19h1M27 19h2M25 20h1M27 20h1M24 21h2M19 22h1M23 24h1" />
<path stroke="#f7f7fd" d="M22 9h2M24 11h1M23 13h1M12 14h1M11 15h2M11 16h3M17 16h1M25 16h2M12 17h2M26 17h2M12 18h1M25 18h3M23 19h4M23 20h2M21 24h2" />
<path stroke="#6a6a4a" d="M16 10h1M17 14h1M20 16h1M20 17h2M28 17h1M21 18h2M14 19h1M22 19h1M22 20h1M26 20h1" />
<path stroke="#f6eea4" d="M17 10h3M21 10h1M16 11h3M20 11h3M17 12h2M21 12h2M18 13h1M20 13h2M18 14h5M16 15h7M19 16h1M21 16h3M18 17h2M22 17h3M17 18h4M18 19h2" />
<path stroke="#bdb473" d="M19 11h1M16 16h1M18 16h1M15 17h1M17 17h1M20 19h2M19 20h3" />
<path stroke="#c58b8b" d="M16 12h1M17 13h1M22 22h1M17 23h2M22 23h1M21 25h1" />
<path stroke="#ffffff" d="M19 12h1" />
<path stroke="#ffbdbd" d="M15 13h2M14 14h2M14 15h1M20 25h1M22 25h1" />
<path stroke="#394152" d="M13 14h1M16 14h1M13 15h1M15 15h1M14 16h2M14 17h1M16 17h1M15 18h2M16 19h1M19 21h2M23 21h1M21 22h1M23 22h1" />
<path stroke="#c5c5c5" d="M21 21h2" />
</svg>