<svg xmlns="http://www.w3.org/2000/svg" viewBox="0 -0.5 40 30" shape-rendering="crispEdges">
<metadata>Made with Pixels to Svg https://codepen.io/shshaw/pen/XbxvNj</metadata>
<path stroke="#202020" d="M21 6h4M20 7h1M25 7h1M19 8h1M26 8h1M17 9h2M26 9h1M16 10h1M27 10h1M14 11h2M27 11h1M13 12h1M28 12h1M12 13h1M28 13h1M12 14h1M29 14h1M11 15h2M30 15h1M10 16h1M13 16h1M30 16h1M10 17h1M30 17h1M9 18h1M29 18h1M9 19h1M13 19h1M28 19h1M9 20h1M12 20h1M14 20h2M29 20h1M9 21h1M11 21h1M16 21h3M24 21h1M30 21h1M10 22h1M18 22h1M23 22h1M25 22h1M30 22h1M18 23h1M23 23h1M26 23h1M28 23h2M18 24h1M22 24h1M26 24h1M28 24h1M19 25h1M21 25h1M27 25h1M19 26h1M21 26h1M20 27h1" />
<path stroke="#a04735" d="M21 7h1M24 7h1M25 8h1M26 10h1M27 12h1M28 14h1M29 15h1" />
<path stroke="#ec7760" d="M22 7h2M20 8h5M19 9h1M23 9h2M18 10h3M16 11h9M15 12h1M20 12h2M24 12h1M15 13h2M22 13h1M17 14h7M15 15h8M17 16h1M21 16h1" />
<path stroke="#f7ad63" d="M20 9h1M22 9h1M21 10h1M24 10h1M16 12h1M19 12h1M14 13h1M17 13h1M21 13h1M23 13h1M16 14h1M18 16h1" />
<path stroke="#f7de42" d="M21 9h1M22 10h2M17 12h2M22 12h2M13 13h1M18 13h3M14 14h2M19 16h2" />
<path stroke="#ba5f47" d="M25 9h1M17 10h1M25 10h1M25 11h2M14 12h1M25 12h2M26 13h2M13 14h1M24 14h4M13 15h2M23 15h6M14 16h3M22 16h5M16 17h4M23 17h2M29 17h1M19 18h2M23 18h6M24 19h3" />
<path stroke="#bda542" d="M24 13h2M28 16h2M20 17h3M26 17h2" />
<path stroke="#f5b957" d="M11 16h1M12 17h2M11 18h2M11 19h2M10 20h2M23 20h1M10 21h1M23 21h1M25 21h1M26 22h1M22 23h1M27 23h1M19 24h1M21 24h1M27 24h1M20 26h1" />
<path stroke="#fff054" d="M12 16h1M11 17h1M10 18h1M10 19h1M21 19h2M20 20h3M19 21h4M26 21h1M19 22h4M27 22h1M19 23h3M20 24h1M20 25h1" />
<path stroke="#bd8452" d="M27 16h1M25 17h1M28 17h1" />
<path stroke="#525252" d="M14 17h2M13 18h1M16 18h3M21 18h2M16 19h1M19 19h2M23 19h1M27 19h1M16 20h1M19 20h1M24 20h3M27 21h1M28 22h1" />
<path stroke="#ffffff" d="M14 18h1M17 19h1" />
<path stroke="#bdbdbd" d="M15 18h1M14 19h1M18 19h1M17 20h1" />
<path stroke="#a5a594" d="M15 19h1M18 20h1" />
<path stroke="#ad5a3a" d="M27 20h2M28 21h2M29 22h1" />
</svg>