<svg xmlns="http://www.w3.org/2000/svg" viewBox="0 -0.5 40 30" shape-rendering="crispEdges">
<metadata>Made with Pixels to Svg https://codepen.io/shshaw/pen/XbxvNj</metadata>
<path stroke="#202020" d="M16 8h2M15 9h1M17 9h1M27 9h2M15 10h1M17 10h1M26 10h1M29 10h1M14 11h1M17 11h1M22 11h4M30 11h1M14 12h1M17 12h1M20 12h2M30 12h1M13 13h2M16 13h1M19 13h1M29 13h1M12 14h1M17 14h2M28 14h1M11 15h1M27 15h1M11 16h1M21 16h2M26 16h1M10 17h1M17 17h1M21 17h1M23 17h1M27 17h1M10 18h1M16 18h1M22 18h1M24 18h1M27 18h1M11 19h1M23 19h1M26 19h1M10 20h1M25 20h1M11 21h3M26 21h1M14 22h1M25 22h1M14 23h1M24 23h1M15 24h1M24 24h1M16 25h3M23 25h1M19 26h2M22 26h1M21 27h1" />
<path stroke="#525252" d="M16 9h1M16 10h1M22 12h3M22 13h2M22 14h1M21 15h1M17 18h1M12 20h1M23 20h1M18 21h1M24 21h1M17 22h1M20 22h1M24 22h1M18 23h2M23 24h1" />
<path stroke="#f7ae31" d="M27 10h1M26 11h1M25 12h1M20 13h2M14 14h3M19 14h3M12 15h6M19 15h2M12 16h4M17 16h3M11 17h4M18 17h3M11 18h1M13 18h3M18 18h4M12 19h5M19 19h4M14 20h3M19 20h3M16 21h2M19 21h5M18 22h2M21 22h2M20 23h4M18 24h5M19 25h4M21 26h1" />
<path stroke="#c58629" d="M28 10h1M15 11h2M27 11h3M15 12h1M26 12h4M15 13h1M24 13h5M13 14h1M23 14h5M22 15h5M16 16h1M23 16h3M15 17h1M24 17h3M25 18h2M24 19h2M13 20h1M14 21h2M15 22h2M15 23h3M16 24h2" />
<path stroke="#9c7242" d="M16 12h1M18 15h1M20 16h1M12 18h1" />
<path stroke="#ffffff" d="M16 17h1" />
<path stroke="#f76352" d="M17 19h2M17 20h2" />
<path stroke="#bd7421" d="M11 20h1" />
<path stroke="#b55729" d="M22 20h1M23 22h1" />
<path stroke="#a55431" d="M24 20h1M25 21h1" />
</svg>