<svg xmlns="http://www.w3.org/2000/svg" viewBox="0 -0.5 40 30" shape-rendering="crispEdges">
<metadata>Made with Pixels to Svg https://codepen.io/shshaw/pen/XbxvNj</metadata>
<path stroke="#202020" d="M18 7h3M17 8h1M20 8h2M16 9h1M21 9h1M16 10h1M21 10h1M15 11h2M20 11h2M14 12h1M19 12h2M22 12h2M14 13h1M20 13h2M24 13h1M11 14h2M15 14h1M24 14h1M10 15h1M13 15h3M23 15h1M10 16h1M24 16h2M28 16h1M10 17h1M26 17h2M29 17h1M11 18h1M29 18h1M12 19h1M29 19h1M12 20h1M28 20h1M12 21h1M27 21h1M12 22h1M26 22h1M12 23h1M26 23h1M12 24h1M26 24h1M13 25h1M25 25h1M14 26h5M24 26h1M19 27h5" />
<path stroke="#6b6159" d="M18 8h2M17 9h1M20 9h1M17 10h1M20 10h1M18 11h1M15 12h2M18 12h1M16 13h1M19 13h1M23 13h1M16 14h4M21 14h2M11 15h1M17 15h4M11 16h2M14 16h1M17 16h2M20 16h2M13 17h1M15 17h4M20 17h3M24 17h1M28 17h1M15 18h1M18 18h4M23 18h3M27 18h2M16 19h2M19 19h9M16 20h4M22 20h1M25 20h3M17 21h2" />
<path stroke="#484543" d="M18 9h2M18 10h1M19 11h1M20 14h1M12 15h1M22 15h1M15 16h1M23 16h1M11 17h1M12 18h1M13 19h1M15 19h1M20 20h1M16 21h1M19 21h1M18 22h1" />
<path stroke="#58524d" d="M19 10h1M17 11h1M15 13h1M17 13h1M22 13h1M23 14h1M21 15h1M13 16h1M22 16h1M12 17h1M14 17h1M23 17h1M25 17h1M13 18h2M17 18h1M22 18h1M26 18h1M14 19h1M28 19h1M21 20h1M24 20h1M25 21h2" />
<path stroke="#525252" d="M17 12h1M18 13h1M23 20h1M22 21h1M24 21h1" />
<path stroke="#e6cb00" d="M16 15h1M19 16h1M14 20h2M15 21h1M20 22h2" />
<path stroke="#ffe957" d="M16 16h1M19 17h1M20 21h2" />
<path stroke="#bdbdbd" d="M16 18h1M18 19h1" />
<path stroke="#8f359b" d="M13 20h1M25 22h1M13 24h1M14 25h1" />
<path stroke="#b057bc" d="M13 21h1M23 21h1M14 22h1M16 22h2M19 22h1M22 22h3M13 23h2M16 23h2M19 23h4M24 23h2M14 24h2M17 24h1M19 24h2M24 24h2M15 25h1M17 25h1M20 25h1M23 25h2M19 26h5" />
<path stroke="#d27ade" d="M14 21h1M13 22h1M15 22h1M15 23h1M18 23h1M23 23h1M16 24h1M18 24h1M21 24h3M16 25h1M18 25h2M21 25h2" />
</svg>