<svg xmlns="http://www.w3.org/2000/svg" viewBox="0 -0.5 40 30" shape-rendering="crispEdges">
<metadata>Made with Pixels to Svg https://codepen.io/shshaw/pen/XbxvNj</metadata>
<path stroke="#202020" d="M17 9h2M16 10h1M19 10h1M15 11h1M20 11h1M15 12h1M20 12h1M15 13h1M19 13h1M21 13h1M14 14h1M18 14h3M22 14h1M15 15h1M22 15h1M13 16h2M21 16h1M12 17h1M22 17h1M12 18h1M23 18h1M25 18h1M12 19h2M24 19h1M26 19h1M13 20h1M26 20h1M13 21h1M25 21h1M13 22h1M24 22h1M14 23h1M23 23h1M15 24h2M22 24h1M17 25h5" />
<path stroke="#6b6159" d="M17 10h2M16 11h1M19 11h1M16 12h1M19 12h1M17 13h1M15 14h1M17 14h1M21 14h1M16 15h1M18 15h1M20 15h1M16 16h4M13 17h1M16 17h2M19 17h2M14 18h4M19 18h2M22 18h1M17 19h3M21 19h2M15 20h2M18 20h7M16 21h3M21 21h1M23 21h2" />
<path stroke="#484543" d="M17 11h2M17 12h1M18 13h1M19 15h1M14 17h1M21 17h1M14 20h1M19 21h1M16 22h2" />
<path stroke="#58524d" d="M18 12h1M16 13h1M21 15h1M20 16h1M13 18h1M21 18h1M14 19h1M16 19h1M20 19h1M23 19h1M25 19h1M25 20h1M20 21h1" />
<path stroke="#525252" d="M16 14h1M17 15h1M22 21h1M21 22h1M23 22h1" />
<path stroke="#e6cb00" d="M15 16h1M18 17h1M15 21h1M15 22h1M18 23h2" />
<path stroke="#ffe957" d="M15 17h1M18 18h1M18 22h2" />
<path stroke="#bdbdbd" d="M15 19h1M17 20h1" />
<path stroke="#b057bc" d="M14 21h1M14 22h1M20 22h1M22 22h1M15 23h3M21 23h1M17 24h1M19 24h2" />
<path stroke="#d27ade" d="M20 23h1M22 23h1M18 24h1M21 24h1" />
</svg>