<svg xmlns="http://www.w3.org/2000/svg" viewBox="0 -0.5 40 30" shape-rendering="crispEdges">
<metadata>Made with Pixels to Svg https://codepen.io/shshaw/pen/XbxvNj</metadata>
<path stroke="#202020" d="M14 9h3M18 9h3M13 10h1M16 10h1M18 10h1M21 10h1M12 11h1M15 11h1M19 11h1M22 11h1M12 12h1M16 12h3M22 12h1M13 13h1M21 13h1M12 14h1M20 14h1M24 14h2M12 15h1M20 15h1M22 15h2M26 15h1M11 16h1M21 16h1M26 16h1M11 17h1M27 17h2M10 18h1M29 18h1M10 19h1M29 19h1M10 20h1M27 20h2M11 21h1M26 21h1M12 22h1M27 22h1M13 23h1M25 23h3M13 24h1M24 24h1M14 25h3M23 25h1M17 26h2M22 26h1M19 27h3" />
<path stroke="#b5c5c5" d="M14 10h1M20 10h1M14 13h1M20 13h1M16 14h3" />
<path stroke="#ffffff" d="M15 10h1M19 10h1M13 11h2M20 11h2M13 12h3M19 12h3M15 13h5" />
<path stroke="#f6ce77" d="M13 14h1M14 15h2M19 15h1M24 15h2M13 16h1M16 16h2M19 16h1M22 16h2M12 17h1M15 17h3M11 18h1M15 18h4M26 18h3M14 19h3M11 20h1M14 20h2M17 20h2M12 21h1M14 21h2M19 21h1M13 22h1M15 22h1M17 22h1M16 23h1M20 23h1M20 24h1" />
<path stroke="#525252" d="M14 14h2M19 14h1M16 15h3M25 17h2M11 19h1M16 21h2M14 23h1M17 23h2M15 24h2M23 24h1" />
<path stroke="#dbab58" d="M13 15h1M12 16h1M15 16h1M24 16h2M14 17h1M18 17h2M21 17h1M23 17h2M14 18h1M19 18h2M22 18h1M24 18h2M13 19h1M17 19h1M19 19h2M22 19h1M24 19h5M13 20h1M16 20h1M20 20h1M22 20h2M25 20h1M13 21h1M22 21h2M25 21h1M14 22h1M16 22h1M18 22h1M23 22h1M25 22h2M15 23h1M19 23h1M24 23h1M14 24h1M19 25h2" />
<path stroke="#fee6b0" d="M14 16h1M13 17h1M12 18h2M12 19h1M12 20h1M19 24h1" />
<path stroke="#917756" d="M18 16h1M18 19h1M19 20h1M18 21h1M21 21h1M20 22h3M21 23h2M17 24h1M22 24h1M17 25h1M22 25h1M21 26h1" />
<path stroke="#736b63" d="M20 16h1M20 17h1M22 17h1M21 18h1M23 18h1M21 19h1M23 19h1M21 20h1M24 20h1M26 20h1M20 21h1M24 21h1M19 22h1M24 22h1M23 23h1M18 24h1M21 24h1M18 25h1M21 25h1M19 26h2" />
</svg>