<svg xmlns="http://www.w3.org/2000/svg" viewBox="0 -0.5 40 30" shape-rendering="crispEdges">
<metadata>Made with Pixels to Svg https://codepen.io/shshaw/pen/XbxvNj</metadata>
<path stroke="#202020" d="M19 8h2M16 9h3M20 9h1M15 10h1M20 10h1M14 11h1M20 11h3M25 11h2M14 12h1M23 12h2M26 12h1M13 13h2M26 13h1M12 14h1M25 14h1M12 15h1M23 15h2M11 16h1M22 16h1M11 17h1M17 17h1M22 17h1M26 17h2M11 18h1M17 18h1M22 18h1M24 18h2M28 18h1M12 19h1M23 19h1M28 19h1M13 20h2M29 20h1M15 21h2M29 21h1M16 22h1M27 22h2M15 23h1M26 23h1M14 24h1M26 24h1M14 25h1M25 25h1M15 26h4M23 26h2M19 27h4" />
<path stroke="#cecec5" d="M19 9h1M17 10h3M18 11h1M25 13h1" />
<path stroke="#47a6ab" d="M16 10h1M15 11h3M15 12h3M15 13h3M13 14h1M17 14h1M20 16h1M21 17h1M20 18h2M19 19h2M19 20h2M20 22h1M21 23h2" />
<path stroke="#525252" d="M19 11h1M18 12h2M18 13h1M18 14h1M21 16h1M12 17h1M13 18h1M18 19h1M21 19h2M21 20h1M23 20h1M17 21h1M25 23h1M15 24h1M16 25h1M22 26h1" />
<path stroke="#69cdc4" d="M20 12h1M19 13h3M14 14h3M19 14h4M13 15h10M13 16h4M18 16h2M13 17h3M19 17h2M19 18h1M26 19h1M22 20h1M25 20h3M20 21h3M24 21h3M21 22h6M23 23h2" />
<path stroke="#89ede4" d="M21 12h1M22 13h1" />
<path stroke="#ffffff" d="M22 12h1M25 12h1M23 13h2M23 14h2M17 16h1" />
<path stroke="#ffdab1" d="M12 16h1M16 17h1M18 17h1M12 18h1M18 18h1M26 18h2M13 19h4M24 19h1M17 20h1M24 20h1M28 20h1M27 21h1M20 23h1M21 24h2" />
<path stroke="#cb9860" d="M14 18h3M17 19h1M25 19h1M27 19h1M15 20h2M18 20h1M19 21h1M23 21h1M28 21h1M19 22h1M23 24h2" />
<path stroke="#69945a" d="M18 21h1M17 22h2M25 24h1M15 25h1M18 25h1M24 25h1M19 26h1M21 26h1" />
<path stroke="#81b573" d="M16 23h4M16 24h5M17 25h1M19 25h5M20 26h1" />
</svg>