<svg xmlns="http://www.w3.org/2000/svg" viewBox="0 -0.5 40 30" shape-rendering="crispEdges">
<metadata>Made with Pixels to Svg https://codepen.io/shshaw/pen/XbxvNj</metadata>
<path stroke="#202020" d="M16 8h3M20 8h2M15 9h1M19 9h1M22 9h1M14 10h1M22 10h1M14 11h1M23 11h1M14 12h1M23 12h1M14 13h1M23 13h1M13 14h1M22 14h1M13 15h1M22 15h1M12 16h1M23 16h1M12 17h1M18 17h1M23 17h3M12 18h1M18 18h1M25 18h3M13 19h1M25 19h1M27 19h1M14 20h2M27 20h1M16 21h2M28 21h1M17 22h1M28 22h1M16 23h1M27 23h1M15 24h1M27 24h1M15 25h1M26 25h1M16 26h4M24 26h2M20 27h4" />
<path stroke="#e1455d" d="M16 9h2M20 9h2M15 10h2M18 10h2M17 11h3M21 11h2M20 12h3M21 13h2" />
<path stroke="#525252" d="M18 9h1M17 10h1M20 10h2M16 11h1M20 11h1M16 12h1M19 12h1M16 13h1M19 13h1M18 14h1M21 15h1M13 17h1M14 18h1M23 18h1M19 19h1M22 19h1M22 20h1M24 20h1M18 21h1M25 21h2M26 23h1M16 24h1M17 25h1M23 26h1" />
<path stroke="#ff968b" d="M15 11h1M15 12h1M17 12h2M17 13h2M20 13h1M14 14h1M17 14h1M20 14h2M14 15h2M14 16h4M19 16h3M14 17h3M20 17h3M20 18h2M26 19h1M23 20h1M26 20h1M22 21h3M22 22h2" />
<path stroke="#d3685c" d="M15 13h1M15 14h2M16 15h5M22 18h1M24 18h1M20 19h2M24 19h1M20 20h2M25 20h1M21 21h1M27 21h1M21 22h1M24 22h4M22 23h4" />
<path stroke="#d63a52" d="M19 14h1M22 16h1M23 19h1" />
<path stroke="#ffdf97" d="M13 16h1M17 17h1M19 17h1M13 18h1M19 18h1M14 19h4M18 20h1M20 22h1M21 23h1M22 24h2" />
<path stroke="#ffffff" d="M18 16h1M17 23h3M17 24h4M18 25h1M20 25h2M21 26h1" />
<path stroke="#ce9e36" d="M15 18h3M18 19h1M16 20h2M19 20h1M20 21h1M24 24h2" />
<path stroke="#bdbdc5" d="M19 21h1M18 22h2M20 23h1M21 24h1M26 24h1M16 25h1M19 25h1M22 25h4M20 26h1M22 26h1" />
</svg>