<svg xmlns="http://www.w3.org/2000/svg" viewBox="0 -0.5 40 30" shape-rendering="crispEdges">
<metadata>Made with Pixels to Svg https://codepen.io/shshaw/pen/XbxvNj</metadata>
<path stroke="#202020" d="M18 8h1M17 9h1M19 9h1M17 10h1M19 10h1M16 11h1M20 11h2M15 12h1M22 12h2M14 13h1M24 13h1M13 14h1M25 14h1M13 15h2M20 15h3M25 15h1M13 16h1M19 16h1M23 16h1M25 16h1M14 17h1M18 17h1M23 17h1M26 17h1M14 18h1M17 18h2M22 18h1M27 18h1M15 19h1M19 19h3M27 19h1M14 20h1M26 20h1M13 21h1M27 21h1M13 22h1M27 22h1M14 23h1M25 23h2M15 24h3M24 24h1M18 25h1M23 25h1M19 26h4" />
<path stroke="#40a6a6" d="M18 9h1M18 10h1M18 11h2M16 12h1M18 12h2M21 12h1M15 13h1M17 13h6M15 14h9M15 15h5M23 15h2M15 16h4M24 16h1M16 17h2M20 17h1M24 17h1M20 18h1M23 18h1M25 18h2M26 19h1M15 20h1M14 21h4M15 22h4M16 23h4M23 23h2M19 24h5M20 25h3" />
<path stroke="#525252" d="M17 11h1M17 12h1M20 16h1M22 16h1M25 17h1M24 18h1M23 19h1M16 20h2M18 21h3" />
<path stroke="#1e8484" d="M20 12h1M16 13h1M23 13h1M14 14h1M24 14h1M15 17h1M15 18h2M16 19h3M22 19h1M24 19h2M18 20h8M21 21h6M14 22h1M19 22h8M15 23h1M20 23h3M18 24h1M19 25h1" />
<path stroke="#bda542" d="M14 16h1M19 17h1" />
<path stroke="#7ccdd6" d="M21 16h1M21 17h2M21 18h1" />
<path stroke="#f7f729" d="M19 18h1" />
</svg>