<svg xmlns="http://www.w3.org/2000/svg" viewBox="0 -0.5 40 30" shape-rendering="crispEdges">
<metadata>Made with Pixels to Svg https://codepen.io/shshaw/pen/XbxvNj</metadata>
<path stroke="#202020" d="M13 0h2M16 0h4M11 1h2M15 1h1M20 1h1M9 2h2M19 2h1M8 3h1M19 3h3M7 4h1M21 4h1M7 5h1M10 5h1M20 5h1M8 6h2M11 6h1M19 6h2M10 7h1M21 7h1M10 8h1M20 8h1M11 9h1M18 9h2M10 10h1M18 10h1M9 11h1M19 11h1M9 12h1M13 12h1M19 12h1M29 12h4M8 13h1M13 13h1M20 13h1M27 13h2M32 13h1M8 14h1M20 14h1M26 14h1M31 14h1M8 15h2M21 15h1M25 15h1M30 15h1M9 16h1M11 16h2M22 16h1M24 16h1M30 16h1M10 17h1M12 17h1M22 17h3M30 17h1M12 18h1M31 18h1M12 19h1M28 19h1M32 19h1M13 20h2M27 20h1M29 20h3M14 21h1M27 21h1M13 22h1M22 22h2M28 22h1M13 23h1M21 23h1M24 23h1M28 23h1M14 24h1M20 24h1M25 24h2M28 24h1M12 25h2M16 25h2M20 25h1M26 25h1M28 25h1M11 26h1M15 26h1M18 26h1M20 26h1M25 26h1M28 26h1M12 27h3M17 27h2M21 27h1M25 27h3M16 28h1M20 28h1M16 29h4" />
<path stroke="#eeecc8" d="M13 1h2M12 2h3M12 3h2M15 3h1M11 4h5M11 5h4M12 6h1M12 9h1M12 10h1M14 10h3M12 11h2M11 12h2M16 12h1M18 12h1M11 13h1M19 13h1M18 14h2M17 15h4M17 16h1M19 16h3M18 17h1M20 17h1M18 18h2M20 19h2M15 20h2M18 20h2M21 20h2M16 21h1M18 21h3M14 22h1M16 22h2M19 22h2M14 23h1M16 23h2M19 23h1M16 24h2" />
<path stroke="#ac82ef" d="M16 1h4M16 2h2M17 4h4M16 5h3M18 7h3M18 8h1M14 12h1M14 13h1M29 15h1M28 16h2M28 17h2M29 18h1" />
<path stroke="#bcb987" d="M11 2h1M9 3h2M8 4h2M9 5h1M11 10h1M11 11h1M17 11h1M10 12h1M17 12h1M9 13h1M16 13h2M29 13h1M13 14h3M27 14h1M11 15h3M10 16h1M25 16h1" />
<path stroke="#5a5252" d="M15 2h1M11 3h1M16 3h3M10 4h1M16 4h1M8 5h1M15 5h1M16 6h3M12 7h1M14 7h1M17 7h1M12 8h1M15 8h1M17 8h1M15 9h2M17 10h1M10 11h1M15 11h2M18 11h1M15 12h1M10 13h1M12 13h1M15 13h1M18 13h1M9 14h4M16 14h2M10 15h1M14 15h2M13 16h1M18 16h1M16 17h1M19 17h1M14 18h1M17 18h1M20 18h1M22 18h4M14 19h1M17 19h3M23 19h2M17 20h1M20 20h1M24 20h1M15 21h1M17 21h1M21 21h1M23 21h2M15 22h1M18 22h1M21 22h1M24 22h3M18 23h1M20 23h1M26 23h2M18 24h2" />
<path stroke="#765ebb" d="M18 2h1M19 5h1M19 8h1" />
<path stroke="#bbb886" d="M14 3h1M13 6h3M13 7h1M15 7h2M13 8h1M16 8h1M17 9h1M14 11h1M16 15h1M14 16h3M13 17h3M17 17h1M13 18h1M15 18h2M13 19h1M15 19h2" />
<path stroke="#41caa1" d="M11 7h1M11 8h1M14 8h1M13 9h2M13 10h1" />
<path stroke="#39629c" d="M30 13h2M28 14h2M27 15h2M26 16h2M26 17h2M27 18h2M29 19h3" />
<path stroke="#906dd0" d="M30 14h1M30 18h1" />
<path stroke="#414141" d="M26 15h1M21 17h1M25 17h1M21 18h1M26 18h1M22 19h1M27 19h1M23 20h1M22 21h1M27 22h1M15 23h1M25 23h1M15 24h1M26 26h2" />
<path stroke="#4a4183" d="M25 19h2M25 21h2M27 24h1" />
<path stroke="#625aac" d="M25 20h2M27 25h1" />
<path stroke="#416252" d="M14 25h2M12 26h3M18 28h1" />
<path stroke="#5a7b5a" d="M18 25h2M19 26h1M19 27h2M17 28h1M19 28h1" />
</svg>