<svg xmlns="http://www.w3.org/2000/svg" viewBox="0 -0.5 40 30" shape-rendering="crispEdges">
<metadata>Made with Pixels to Svg https://codepen.io/shshaw/pen/XbxvNj</metadata>
<path stroke="#202020" d="M15 8h3M14 9h1M18 9h1M13 10h1M19 10h1M13 11h1M20 11h2M24 11h3M13 12h1M22 12h2M27 12h1M14 13h1M28 13h1M15 14h1M28 14h1M14 15h1M16 15h1M28 15h1M14 16h1M20 16h1M27 16h1M14 17h1M21 17h1M25 17h2M15 18h1M25 18h1M15 19h1M24 19h1M15 20h1M23 20h1M14 21h1M24 21h1M14 22h1M25 22h1M15 23h1M25 23h1M14 24h1M24 24h1M15 25h4M23 25h1M19 26h1M23 26h1M20 27h3" />
<path stroke="#8bdb67" d="M15 9h1M14 10h5M14 11h1M17 11h1M20 12h1M24 12h1M16 13h1M18 13h4M23 13h1M25 13h3M18 14h2M21 14h4M27 14h1M17 15h1M20 15h4M15 16h1M19 16h1M22 16h2M22 17h1M21 18h1M16 20h3M16 21h2M19 21h2M22 21h1M18 22h3M23 22h2M19 23h3M23 23h2M20 25h2" />
<path stroke="#aef28b" d="M16 9h2M25 12h2M24 13h1M17 19h2" />
<path stroke="#525252" d="M15 11h2M18 11h2M15 12h2M15 15h1M24 15h2M24 16h2M20 17h1M17 18h2M16 19h1M19 19h1M19 20h1M22 20h1M18 21h1M22 23h1M17 24h1M23 24h1" />
<path stroke="#40b947" d="M14 12h1M17 12h1M21 12h1M15 13h1M22 13h1M25 14h2M26 15h2M26 16h1M24 17h1M23 18h2M21 19h3M20 20h2M15 21h1M21 21h1M23 21h1M16 22h2M22 22h1M16 24h1M18 24h1M20 24h3M19 25h1M22 25h1M21 26h1" />
<path stroke="#ffebb9" d="M18 12h2M17 13h1M17 14h1M20 14h1M18 15h2" />
<path stroke="#ffffff" d="M16 14h1M21 16h1M15 24h1M20 26h1M22 26h1" />
<path stroke="#ffff52" d="M16 16h1M18 16h1M15 17h5M16 18h1M19 18h2" />
<path stroke="#848473" d="M17 16h1" />
<path stroke="#62cc55" d="M23 17h1M22 18h1M15 22h1M21 22h1M16 23h3M19 24h1" />
<path stroke="#bda542" d="M20 19h1" />
</svg>