<svg xmlns="http://www.w3.org/2000/svg" viewBox="0 -0.5 40 30" shape-rendering="crispEdges">
<metadata>Made with Pixels to Svg https://codepen.io/shshaw/pen/XbxvNj</metadata>
<path stroke="#202020" d="M19 7h2M17 8h2M21 8h2M16 9h1M23 9h1M15 10h1M23 10h1M15 11h1M24 11h1M15 12h1M24 12h1M14 13h1M14 14h1M25 14h1M14 15h1M16 15h1M25 15h1M15 16h1M19 16h1M25 16h1M15 17h1M23 17h2M16 18h1M22 18h1M17 19h1M22 19h2M15 20h2M24 20h1M14 21h1M25 21h1M14 22h2M25 22h1M16 23h1M26 23h1M15 24h1M18 24h3M26 24h1M16 25h3M21 25h1M24 25h2M20 26h1M24 26h1M21 27h3" />
<path stroke="#e1e2c7" d="M19 8h2M16 10h1M16 11h2M20 11h3M17 12h7M16 13h1M18 13h5M17 14h2M21 14h1M24 14h1M17 15h1M23 15h1M16 16h3M17 17h2M20 20h1M22 20h2M20 21h2M23 21h2M24 23h2M24 24h1M22 25h2" />
<path stroke="#525252" d="M17 9h1M21 9h1M18 10h1M16 12h1M24 13h1M22 15h1M22 16h1M17 18h1M21 18h1M18 19h3M17 20h1M19 20h1M18 21h1M22 21h1M17 22h1M22 22h2M17 23h1M23 23h1M23 24h1" />
<path stroke="#9a9b80" d="M18 9h1M21 10h1M18 11h1M15 13h1M23 13h1M16 14h1M19 14h2M22 14h1M18 15h1M24 16h1M18 20h1M15 21h3M16 22h1" />
<path stroke="#c4c5aa" d="M19 9h2M22 9h1M17 10h1M19 10h2M22 10h1M19 11h1M23 11h1M17 13h1M23 14h1M21 15h1M24 15h1M21 16h1M23 16h1M16 17h1M19 17h4M20 18h1M21 19h1M21 20h1M25 24h1" />
<path stroke="#bdbdbd" d="M15 14h1" />
<path stroke="#ffffff" d="M15 15h1M20 15h1M20 16h1M19 21h1M20 22h2M24 22h1" />
<path stroke="#b93200" d="M19 15h1" />
<path stroke="#c56363" d="M18 18h2" />
<path stroke="#4a89ff" d="M18 22h2M19 23h1M21 23h2M21 24h1M21 26h2" />
<path stroke="#2262d9" d="M18 23h1M20 23h1M16 24h2M22 24h1M23 26h1" />
</svg>