<svg xmlns="http://www.w3.org/2000/svg" viewBox="0 -0.5 40 30" shape-rendering="crispEdges">
<metadata>Made with Pixels to Svg https://codepen.io/shshaw/pen/XbxvNj</metadata>
<path stroke="#202020" d="M19 10h4M18 11h1M23 11h1M17 12h1M24 12h1M17 13h1M24 13h1M16 14h1M25 14h1M16 15h1M25 15h1M16 16h1M20 16h1M25 16h1M16 17h1M19 17h1M25 17h1M16 18h1M24 18h1M16 19h1M23 19h1M16 20h1M19 20h2M24 20h1M16 21h1M19 21h1M21 21h1M25 21h1M16 22h1M19 22h1M22 22h1M25 22h1M16 23h1M19 23h1M23 23h2M16 24h1M19 24h1M16 25h1M19 25h1M16 26h1M19 26h1M17 27h2" />
<path stroke="#1456b2" d="M19 11h1M22 11h1M20 12h2M22 13h1M23 14h1M23 15h1M17 16h1M23 16h1M17 17h1M23 17h1M17 18h1M23 18h1M17 19h2M22 19h1M18 20h1M21 20h1M23 20h1M18 21h1M24 21h1M18 22h1M24 22h1M18 23h1M18 24h1M18 25h1M18 26h1" />
<path stroke="#4385e1" d="M20 11h2M18 12h2M23 12h1M24 16h1M22 20h1M17 21h1M23 21h1M17 22h1M17 23h1M17 24h1M17 25h1M17 26h1" />
<path stroke="#71acff" d="M22 12h1M23 13h1M24 14h1M24 15h1M22 18h1M21 19h1" />
<path stroke="#2d6fcb" d="M18 13h1M17 14h1M17 15h1M24 17h1M17 20h1M22 21h1M23 22h1" />
<path stroke="#a9ccff" d="M19 13h1M21 13h1M18 14h1M22 14h1M18 18h1M19 19h1" />
<path stroke="#eaf2ff" d="M20 13h1M19 14h3M18 15h1M21 15h2M18 16h1M21 16h2M18 17h1M21 17h2M19 18h3M20 19h1" />
<path stroke="#525252" d="M19 15h1M20 17h1" />
<path stroke="#848484" d="M20 15h1" />
<path stroke="#a5a5a5" d="M19 16h1" />
</svg>