<svg xmlns="http://www.w3.org/2000/svg" viewBox="0 -0.5 40 30" shape-rendering="crispEdges">
<metadata>Made with Pixels to Svg https://codepen.io/shshaw/pen/XbxvNj</metadata>
<path stroke="#202020" d="M25 7h3M13 8h1M25 8h1M28 8h4M12 9h1M14 9h1M18 9h3M25 9h1M31 9h1M12 10h1M14 10h1M16 10h2M21 10h1M26 10h1M31 10h1M11 11h1M15 11h1M20 11h1M26 11h1M29 11h2M11 12h1M19 12h1M25 12h1M28 12h1M11 13h1M20 13h1M24 13h1M28 13h1M11 14h1M21 14h4M28 14h1M10 15h1M12 15h1M28 15h1M10 16h1M27 16h1M9 17h1M12 17h1M27 17h1M9 18h1M17 18h1M26 18h1M10 19h1M16 19h1M26 19h1M10 20h1M26 20h1M11 21h1M27 21h1M12 22h2M22 22h3M27 22h1M14 23h2M21 23h1M25 23h1M27 23h1M15 24h1M20 24h1M25 24h2M14 25h1M20 25h1M15 26h2M19 26h1M17 27h2" />
<path stroke="#e297f9" d="M26 8h1M26 9h2M29 9h2M28 10h2M27 12h1M27 13h1M26 14h1M13 15h1M16 15h2M13 16h1M15 16h4M13 17h3M18 17h1M12 18h3M19 18h1M24 18h1M13 19h2M24 19h2M23 20h3M24 21h1M19 23h2M18 24h2M18 25h1M17 26h2" />
<path stroke="#d76df7" d="M27 8h1M27 10h1M30 10h1M27 14h1M26 15h2M14 16h1M25 16h2M16 17h1M24 17h2M18 18h1M25 18h1M17 19h2M14 20h3M23 21h1M25 21h2M20 22h2M25 22h2M16 23h1M26 23h1M16 24h1M15 25h1M19 25h1" />
<path stroke="#893ac5" d="M13 9h1M13 10h1M18 10h3M13 11h1M16 11h2M27 11h1M13 12h1M15 12h2M26 12h1M14 13h2M19 13h1M26 13h1M14 14h7M25 14h1M14 15h2M18 15h1M21 15h4M19 16h2" />
<path stroke="#525252" d="M28 9h1M14 11h1M28 11h1M14 12h1M13 13h1M16 13h1M25 13h1M12 14h2M19 15h2M25 15h1M11 16h1M24 16h1M11 17h1M17 17h1M23 17h1M11 18h1M22 18h1M19 19h3M12 20h1M14 21h3M22 21h1M19 22h1M17 23h1M17 24h1M17 25h1" />
<path stroke="#bda542" d="M12 11h1M18 11h1M17 12h1M21 16h3M19 17h2M21 18h1" />
<path stroke="#efe684" d="M19 11h1M12 12h1M18 12h1M12 13h1M17 13h2M21 17h2M20 18h1" />
<path stroke="#bdbdbd" d="M11 15h1M10 17h1M11 19h1M19 20h2M13 21h1M18 21h1M16 22h1" />
<path stroke="#ffffff" d="M12 16h1M10 18h1M16 18h1M22 19h1M11 20h1M21 20h1M12 21h1M19 21h2M14 22h2M17 22h2" />
<path stroke="#a15bb6" d="M26 17h1M15 18h1M23 18h1M12 19h1M15 19h1M23 19h1M13 20h1M17 20h2M22 20h1M17 21h1M21 21h1M18 23h1M16 25h1" />
</svg>