<svg xmlns="http://www.w3.org/2000/svg" viewBox="0 -0.5 40 30" shape-rendering="crispEdges">
<metadata>Made with Pixels to Svg https://codepen.io/shshaw/pen/XbxvNj</metadata>
<path stroke="#202020" d="M21 8h5M19 9h2M26 9h2M18 10h1M28 10h1M15 11h4M29 11h1M13 12h2M18 12h1M29 12h1M10 13h3M29 13h1M10 14h1M28 14h1M10 15h1M26 15h2M11 16h1M26 16h1M11 17h1M25 17h1M12 18h1M26 18h1M12 19h1M18 19h1M27 19h1M11 20h1M16 20h2M27 20h1M11 21h1M27 21h1M12 22h1M22 22h2M26 22h1M13 23h2M21 23h1M23 23h1M26 23h1M15 24h1M21 24h1M24 24h2M16 25h1M20 25h1M16 26h1M20 26h1M17 27h3" />
<path stroke="#ad7028" d="M21 9h1M23 9h1M20 10h1M22 10h1M25 10h1M20 11h1M22 11h1M24 11h1M27 11h2M15 12h1M17 12h1M20 12h1M24 12h1M26 12h1M14 13h1M16 13h1M25 13h1M27 13h2M14 14h1M16 14h1" />
<path stroke="#ffbd32" d="M22 9h1M24 9h2M21 10h1M23 10h2M26 10h2M21 11h1M23 11h1M25 11h2M16 12h1M25 12h1M27 12h2M13 13h1M15 13h1M17 13h2M26 13h1M18 14h1M27 14h1M14 15h1M16 15h1M13 16h3M14 17h1" />
<path stroke="#525252" d="M19 10h1M19 13h1M12 14h1M19 14h2M13 15h1M17 15h2M21 15h1M16 16h1M21 16h4M13 17h1M15 17h1M21 17h1M14 18h2M20 19h1M22 21h1M26 21h1M18 22h1M15 23h2M18 24h1M18 25h1M17 26h1" />
<path stroke="#d78638" d="M19 11h1M19 12h1M21 12h1M23 12h1M20 13h1M22 13h1M24 13h1M13 14h1M15 14h1M17 14h1M22 14h1M24 14h1M26 14h1M15 15h1M23 15h1M25 15h1M25 16h1" />
<path stroke="#80592c" d="M22 12h1M21 13h1M23 13h1M21 14h1M23 14h1M25 14h1M22 15h1M24 15h1" />
<path stroke="#e7c31a" d="M11 14h1M11 15h2M12 16h1M17 16h1M12 17h1M19 18h1M25 18h1M16 19h1M19 19h1M24 19h3M12 20h1M19 20h8M15 21h7M23 21h3M13 22h5M19 22h3M18 23h3M19 24h1" />
<path stroke="#ffe426" d="M19 15h2M18 16h2M16 17h3M22 17h3M13 18h1M16 18h1M21 18h4M13 19h3M21 19h3M13 20h3M12 21h1M14 21h1" />
<path stroke="#967d0b" d="M20 16h1M19 17h1M17 18h2M20 18h1M18 20h1M13 21h1M17 23h1M17 25h1M19 25h1" />
<path stroke="#c6990a" d="M20 17h1M24 22h2M24 23h2M16 24h2M20 24h1M18 26h2" />
<path stroke="#ffffff" d="M17 19h1" />
</svg>