<svg xmlns="http://www.w3.org/2000/svg" viewBox="0 -0.5 80 80" shape-rendering="crispEdges">
<metadata>Made with Pixels to Svg https://codepen.io/shshaw/pen/XbxvNj</metadata>
<path stroke="#101010" d="M47 6h7M45 7h11M44 8h4M53 8h4M43 9h3M55 9h3M42 10h3M56 10h3M42 11h2M57 11h2M41 12h3M51 12h4M57 12h3M41 13h2M50 13h6M58 13h2M40 14h3M49 14h3M54 14h2M58 14h2M40 15h2M49 15h2M55 15h1M58 15h2M40 16h2M49 16h2M58 16h2M39 17h3M49 17h3M57 17h2M39 18h3M50 18h3M56 18h3M39 19h3M51 19h7M39 20h2M52 20h4M38 21h3M38 22h3M38 23h3M37 24h4M37 25h4M56 30h1M51 31h2M57 31h1M52 32h3M58 32h1M49 33h1M52 33h2M55 33h1M59 33h1M49 34h1M52 34h2M56 34h1M17 35h1M49 35h1M53 35h2M56 35h1M60 35h1M49 36h1M54 36h4M61 36h1M16 37h1M56 37h2M61 37h1M54 38h1M57 38h1M62 38h1M15 39h1M55 39h2M62 39h1M62 40h1M14 41h1M62 41h1M14 42h1M62 42h1M13 43h1M61 43h1M13 44h1M60 44h2M13 45h1M59 45h1M61 45h1M12 46h1M57 46h2M61 46h1M12 47h1M55 47h2M60 47h1M12 48h1M60 48h1M12 49h1M60 49h1M11 50h1M59 50h1M67 50h1M11 51h1M59 51h1M67 51h2M11 52h1M49 52h1M58 52h1M11 53h1M49 53h1M58 53h2M70 53h1M11 54h1M49 54h1M56 54h2M70 54h1M11 55h1M50 55h1M52 55h3M69 55h1M10 56h2M47 56h4M69 56h1M10 57h1M43 57h3M70 57h1M10 58h1M70 58h1M10 59h1M65 59h2M70 59h1M10 60h1M63 60h2M67 60h3M10 61h1M61 61h2M9 62h2M58 62h3M9 63h1M56 63h3M9 64h1M54 64h3M9 65h1M52 65h3M9 66h1M49 66h4M9 67h1M47 67h2M52 67h1M8 68h2M52 68h1M8 69h1M53 69h1M8 70h1M53 70h1M8 71h1M53 71h1M8 72h1M53 72h1M8 73h1M53 73h1" />
<path stroke="#317b00" d="M35 24h2M41 24h6M31 25h4M47 25h3M28 26h2M38 26h2M50 26h2M26 27h1M52 27h2M24 28h2M54 28h1M23 29h1M55 29h1M22 30h1M21 31h1M50 31h1M53 31h1M20 32h1M19 33h1M18 34h1M59 34h2M17 36h1M60 36h1M49 37h1M16 38h1M50 38h1M61 38h1M50 39h1M57 39h1M15 40h1M51 40h1M57 40h1M54 42h2M61 42h1M14 43h1M58 45h1M13 46h1M13 47h1M12 50h1M12 51h1M60 53h1M58 54h1M55 55h1M51 56h1M11 57h1M40 57h3M46 57h1M62 60h1M60 61h1M10 63h1M45 67h2M9 69h1" />
<path stroke="#9cee31" d="M35 25h2M41 25h5M31 26h7M40 26h9M28 27h24M26 28h25M52 28h1M24 29h19M48 29h2M51 29h1M53 29h1M23 30h17M52 30h1M54 30h1M22 31h17M22 32h3M28 32h9M20 33h3M29 33h5M19 34h2M19 35h1M18 36h1" />
<path stroke="#7bbd18" d="M46 25h1M30 26h1M49 26h1M27 27h1M51 28h1M53 28h1M43 29h5M50 29h1M52 29h1M54 29h1M40 30h12M53 30h1M55 30h1M39 31h11M54 31h3M21 32h1M25 32h3M37 32h13M55 32h3M23 33h6M34 33h15M56 33h3M21 34h28M57 34h2M18 35h1M20 35h29M57 35h3M19 36h30M58 36h2M17 37h32M58 37h3M17 38h33M58 38h3M16 39h34M58 39h4M16 40h35M58 40h4M15 41h38M57 41h5M15 42h39M56 42h5M15 43h46M14 44h46M14 45h36M53 45h5M14 46h35M54 46h3M14 47h34M13 48h35M13 49h35M13 50h35M13 51h36M12 52h37M12 53h37M12 54h37M59 54h3M12 55h38M56 55h7M12 56h35M52 56h11M12 57h28M47 57h17M11 58h53M11 59h53M11 60h51M11 61h49M11 62h47M11 63h45M10 64h44M10 65h42M10 66h39M10 67h35M10 68h37M10 69h37M9 70h37M9 71h37M9 72h37M9 73h37" />
<path stroke="#527b73" d="M50 32h1M52 35h1M52 36h1M53 41h1M56 41h1" />
<path stroke="#cdcdcd" d="M51 32h1M54 34h1M55 35h1M51 39h1" />
<path stroke="#ffffff" d="M50 33h2M54 33h1M50 34h2M55 34h1M50 35h2M50 36h2M50 37h3M51 38h3M52 39h3M52 40h5M54 41h2" />
<path stroke="#b41831" d="M53 36h1M53 37h3M55 38h2M51 45h2M49 46h1M53 46h1M48 47h1M54 47h1M48 48h1M54 48h1M48 49h1M54 49h1M48 50h1M54 50h1M49 51h1M53 51h1M50 52h3" />
<path stroke="#e66a31" d="M50 45h1M52 46h1M52 47h2M49 48h1M51 48h3M49 49h5M49 50h5M50 51h3" />
<path stroke="#e6b429" d="M60 45h1M59 46h2M57 47h3M55 48h5M55 49h4M64 49h1M55 50h4M54 51h4M53 52h5M50 53h7M61 53h1M50 54h6M62 54h1M51 55h1M63 55h1M63 56h1M66 56h2M64 57h6M64 58h6M64 59h1M67 59h3M49 67h3M48 68h4M48 69h4M47 70h5M47 71h6M47 72h6M47 73h6" />
<path stroke="#ff94c5" d="M50 46h2M49 47h3M50 48h1" />
<path stroke="#9c6200" d="M64 48h3M59 49h1M63 49h1M67 49h1M63 50h1M58 51h1M62 51h1M69 51h1M61 52h1M66 52h1M70 52h1M57 53h1M68 56h1M47 68h1M47 69h1M52 69h1M46 70h1M52 70h1M46 71h1M46 72h1M46 73h1" />
<path stroke="#ffe652" d="M65 49h2M64 50h3M63 51h4M62 52h4M67 52h3M62 53h8M63 54h7M64 55h5M64 56h2" />
</svg>