<svg xmlns="http://www.w3.org/2000/svg" viewBox="0 -0.5 80 80" shape-rendering="crispEdges">
<metadata>Made with Pixels to Svg https://codepen.io/shshaw/pen/XbxvNj</metadata>
<path stroke="#62396a" d="M22 17h1M21 18h1M23 18h1M21 19h1M23 19h1M21 20h1M23 20h1M21 21h1M23 21h1M21 22h1M23 22h1M21 23h1M23 23h1M21 24h1M23 24h1M21 25h1M23 25h1M17 26h3M21 26h1M23 26h1M17 27h1M20 27h2M23 27h1M18 28h1M23 28h2M19 29h1M20 30h1M20 31h1M22 31h2M19 32h1M21 32h1M67 32h2M19 33h1M21 33h1M66 33h1M68 33h1M18 34h1M20 34h1M66 34h1M68 34h1M18 35h1M20 35h1M65 35h1M68 35h1M18 36h2M65 36h1M64 37h1M60 38h2M64 38h1M62 39h2M66 40h2M59 41h1M68 41h2M63 42h1M70 42h1M65 43h1M68 43h1M71 43h1M65 44h1M71 44h1M65 45h1M65 46h1M66 47h1M66 48h1" />
<path stroke="#ee73e6" d="M22 18h1M22 19h1M22 20h1M22 21h1" />
<path stroke="#104a83" d="M38 19h9M35 20h2M47 20h3M32 21h2M50 21h2M30 22h2M52 22h2M29 23h1M54 23h1M28 24h1M55 24h1M56 25h1M58 28h1M60 32h1M24 36h1M25 39h1M26 41h1M27 42h1M8 47h5M54 47h1M6 48h2M13 48h2M34 48h1M52 48h1M5 49h1M15 49h1M48 49h1M16 50h1M39 50h1M4 51h1M17 51h1M17 52h1M18 53h1M27 53h2M18 54h1M25 54h2M41 54h1M4 55h1M25 55h1M5 57h1M7 59h1M9 60h1M11 61h1M41 61h1M15 62h1" />
<path stroke="#397bc5" d="M37 20h1M46 20h1M34 21h1M30 23h1M45 24h5M53 24h1M28 25h1M44 25h9M54 25h1M27 26h1M44 26h8M53 26h1M55 26h1M26 27h1M44 27h9M54 27h1M56 27h2M43 28h15M42 29h17M41 30h19M39 31h21M26 32h3M35 32h25M24 33h37M24 34h37M24 35h37M25 36h36M25 37h36M25 38h35M26 39h33M26 40h33M27 41h32M28 42h32M28 43h32M29 44h30M30 45h28M31 46h25M33 47h21M35 48h17M33 49h15M32 50h7M31 51h9M30 52h11M13 53h5M29 53h12M11 54h7M27 54h14M10 55h9M26 55h16M10 56h10M24 56h18M10 57h11M23 57h19M9 58h13M24 58h18M9 59h15M26 59h16M10 60h32M12 61h29M16 62h25M21 63h19" />
<path stroke="#73bdff" d="M38 20h8M35 21h15M32 22h20M31 23h23M29 24h15M51 24h2M54 24h1M29 25h15M53 25h1M55 25h1M28 26h16M54 26h1M27 27h16M26 28h17M25 29h17M25 30h15M25 31h2M28 31h10M24 32h2M29 32h5M8 48h5M7 49h8M6 50h10M5 51h12M4 52h13M4 53h8M4 54h7M5 55h5M5 56h5M6 57h3M6 58h3" />
<path stroke="#d55ad5" d="M22 22h1M22 23h1M22 24h1M22 25h1M22 26h1M18 27h2M22 27h1M19 28h2M67 33h1M67 34h1M66 35h2" />
<path stroke="#529ce6" d="M44 24h1M50 24h1M52 26h1M56 26h1M43 27h1M53 27h1M55 27h1M40 30h1M27 31h1M38 31h1M34 32h1M6 49h1M5 50h1M12 53h1M9 57h1M8 59h1" />
<path stroke="#102973" d="M27 25h1M26 26h1M57 26h1M25 27h1M58 27h1M25 28h1M59 28h1M24 29h1M59 29h1M24 30h1M60 30h1M24 31h1M60 31h1M61 32h1M61 33h1M61 34h1M61 35h1M61 36h1M61 37h1M56 46h1M32 49h1M4 50h1M31 50h1M30 51h1M40 51h3M29 52h1M41 53h1M19 55h1M24 55h1M42 55h1M20 56h1M23 56h1M21 57h2M22 58h2M24 59h2M42 60h1M41 62h1M15 63h1M20 63h1M40 63h2" />
<path stroke="#9462a4" d="M21 28h2M20 29h4M21 30h3M21 31h1M20 32h1M20 33h1M19 34h1M19 35h1M66 36h1M65 37h2M65 38h1M59 39h3M64 39h2M59 40h7M61 41h7M64 42h6M64 43h1M69 43h2M64 44h1M64 45h1M64 46h1M65 47h1M65 48h1M65 49h1" />
<path stroke="#101010" d="M23 32h1M23 33h1M23 34h1M23 35h1M23 36h1M67 36h1M24 37h1M67 37h1M24 38h1M66 38h1M24 39h1M66 39h1M25 40h1M25 41h1M60 41h1M26 42h1M60 42h3M27 43h1M60 43h1M63 43h1M66 43h2M28 44h1M59 44h1M63 44h1M68 44h3M29 45h1M58 45h1M63 45h1M30 46h1M57 46h1M63 46h1M31 47h2M55 47h2M64 47h1M32 48h2M53 48h2M64 48h1M49 49h4M64 49h1M66 49h1M40 50h9M65 50h2M3 52h1M41 52h1M3 53h1M3 54h1M42 54h1M3 55h1M4 56h1M42 56h1M4 57h1M42 57h1M5 58h1M42 58h1M6 59h1M42 59h1M7 60h2M9 61h2M42 61h1M11 62h4M16 63h4" />
</svg>