<svg xmlns="http://www.w3.org/2000/svg" viewBox="0 -0.5 80 80" shape-rendering="crispEdges">
<metadata>Made with Pixels to Svg https://codepen.io/shshaw/pen/XbxvNj</metadata>
<path stroke="#7b4120" d="M34 3h3M34 4h1M37 4h1M38 5h1M39 6h1M34 8h1M35 12h1M38 20h2M34 22h1M40 22h1M41 23h1M35 24h1M36 25h1M67 28h1M67 29h1M56 30h1M68 30h1M68 31h1M59 32h1M56 33h1M61 34h1M66 34h1M68 34h1M54 35h1M73 36h1M43 56h1M53 66h1M54 67h1" />
<path stroke="#181818" d="M33 4h1M33 5h1M33 6h1M33 7h1M40 7h1M33 8h1M41 8h1M34 9h1M42 9h1M34 10h1M43 10h1M34 11h1M44 11h1M34 12h1M45 12h1M35 13h1M46 13h1M35 14h1M47 14h1M36 15h1M48 15h1M35 16h2M49 16h1M34 17h2M37 17h1M50 17h1M34 18h1M37 18h1M51 18h1M34 19h1M38 19h1M52 19h2M34 20h1M54 20h2M34 21h1M39 21h1M56 21h4M60 22h3M35 23h1M63 23h2M65 24h1M27 25h8M66 25h1M35 26h4M67 26h1M39 27h2M68 27h1M41 28h2M68 28h1M43 29h2M69 29h1M17 30h1M45 30h2M57 30h1M69 30h1M16 31h1M47 31h1M56 31h3M63 31h1M66 31h2M70 31h1M15 32h1M48 32h1M56 32h3M63 32h1M66 32h1M68 32h1M70 32h1M14 33h1M49 33h1M57 33h3M63 33h1M66 33h3M71 33h1M14 34h1M50 34h1M57 34h4M67 34h1M73 34h1M13 35h1M51 35h3M57 35h2M67 35h1M73 35h2M13 36h1M52 36h5M74 36h2M12 37h1M52 37h4M75 37h1M12 38h1M53 38h2M75 38h1M12 39h1M22 39h7M53 39h2M64 39h3M75 39h1M11 40h1M20 40h3M28 40h4M54 40h1M64 40h1M69 40h3M74 40h1M11 41h1M19 41h2M32 41h2M54 41h1M61 41h2M64 41h1M72 41h2M11 42h1M18 42h1M34 42h2M55 42h1M60 42h1M63 42h2M11 43h1M18 43h1M36 43h1M55 43h1M59 43h1M11 44h1M17 44h1M37 44h1M56 44h1M59 44h1M11 45h1M16 45h1M38 45h1M56 45h1M59 45h1M11 46h1M15 46h1M39 46h1M56 46h1M59 46h1M12 47h1M40 47h1M56 47h1M12 48h1M14 48h1M41 48h1M57 48h1M60 48h1M12 49h2M41 49h1M57 49h1M60 49h1M12 50h1M42 50h1M57 50h1M61 50h1M11 51h1M42 51h1M57 51h1M62 51h2M10 52h2M43 52h1M57 52h1M64 52h1M10 53h1M43 53h1M57 53h1M65 53h1M9 54h1M44 54h1M57 54h1M59 54h1M64 54h1M8 55h1M44 55h1M57 55h1M60 55h4M8 56h1M44 56h2M57 56h1M7 57h1M46 57h1M56 57h2M6 58h2M47 58h1M56 58h1M6 59h1M48 59h1M56 59h1M5 60h2M49 60h1M56 60h1M5 61h1M50 61h1M55 61h2M67 61h4M4 62h2M51 62h1M55 62h1M60 62h1M71 62h1M4 63h1M51 63h1M55 63h1M58 63h1M70 63h1M4 64h1M52 64h1M55 64h1M57 64h1M68 64h4M3 65h2M53 65h4M72 65h1M3 66h1M70 66h2M3 67h1M68 67h2M2 68h2M67 68h2M2 69h1M2 70h1M40 70h2M64 70h1M2 71h1M41 71h3M63 71h1" />
<path stroke="#ee7b18" d="M35 4h2M36 5h2M36 6h3M37 7h3M38 8h3M39 9h3M39 10h4M40 11h4M41 12h4M42 13h4M42 14h5M43 15h5M45 16h3M55 21h1M56 22h4M58 23h3M60 24h2M66 26h1M67 27h1M70 33h1M70 34h2M71 35h2M16 46h5M15 47h7M15 48h7M14 49h8M13 50h8M12 51h7M12 52h5M11 53h5M10 54h5M9 55h5M9 56h5M8 57h5M8 58h5M8 59h4" />
<path stroke="#ac5a20" d="M34 5h1M34 6h2M34 7h3M35 8h3M35 9h3M35 10h4M35 11h5M36 12h5M36 13h5M36 14h6M37 15h6M37 16h7M48 16h1M36 17h1M38 17h8M47 17h3M35 18h2M38 18h13M35 19h3M39 19h13M35 20h3M40 20h14M35 21h4M40 21h14M35 22h5M41 22h14M36 23h5M42 23h15M36 24h23M37 25h26M39 26h25M41 27h23M43 28h20M45 29h18M68 29h1M47 30h9M58 30h5M48 31h8M59 31h4M69 31h1M49 32h7M60 32h3M69 32h1M50 33h6M60 33h3M69 33h1M51 34h6M62 34h2M69 34h1M72 34h1M55 35h2M63 35h3M68 35h3M65 36h6M23 40h5M21 41h11M19 42h15M19 43h17M18 44h19M17 45h1M20 45h18M22 46h17M14 47h1M22 47h18M22 48h19M22 49h19M23 50h19M24 51h18M24 52h19M24 53h19M24 54h20M24 55h20M23 56h20M23 57h23M23 58h24M7 59h1M22 59h26M7 60h5M22 60h27M6 61h6M22 61h28M6 62h6M21 62h30M5 63h6M20 63h31M5 64h6M20 64h32M5 65h6M19 65h34M4 66h7M18 66h35M54 66h1M4 67h7M17 67h37M4 68h8M15 68h41M3 69h55M3 70h37M42 70h15M3 71h38M44 71h13" />
<path stroke="#cd6a18" d="M35 5h1M38 9h1M41 13h1M44 16h1M46 17h1M54 21h1M55 22h1M57 23h1M59 24h1M63 25h1M18 45h2M21 46h1M57 70h1" />
<path stroke="#f6f6b4" d="M61 23h2M62 24h3M64 25h2M64 27h2M63 28h3M63 29h1M66 29h1M71 36h2M64 37h11M66 38h9M69 39h6M21 50h1M19 51h2M17 52h3M16 53h3M20 53h1M15 54h5M14 55h5M20 55h1M14 56h3M19 56h1M13 57h3M17 57h1M13 58h2M12 59h1M64 61h3M62 62h3M67 62h4M60 63h10M58 64h9M57 65h15M55 66h15M55 67h13M56 68h10M58 69h7M58 70h6M57 71h6" />
<path stroke="#9c6200" d="M26 25h1M23 26h3M21 27h2M19 28h2M18 29h1M15 33h1M14 35h1M51 36h1M13 37h1M12 40h1M54 42h1M55 44h1M12 46h1M56 48h1M56 56h1M55 60h1" />
<path stroke="#ffde00" d="M26 26h9M23 27h16M21 28h20M20 29h23M18 30h27M17 31h30M17 32h4M33 32h15M16 33h2M36 33h13M39 34h9M49 34h1M41 35h6M48 35h1M43 36h5M49 36h1M44 37h1M46 37h1M48 37h1M45 38h1M47 38h1" />
<path stroke="#6a6a6a" d="M64 26h2M66 27h1M64 29h2M63 30h1M66 30h1M62 39h2M67 39h1M61 40h1M68 40h1M60 41h1M59 47h1M63 52h1M65 52h1M58 53h1M58 54h1M64 60h3M62 61h2M61 62h1M59 63h1" />
<path stroke="#cdbd83" d="M66 28h1M67 30h1M59 35h4M57 36h8M56 37h8M55 38h11M55 39h7M68 39h1M55 40h6M72 40h2M55 41h5M56 42h4M56 43h3M57 44h2M57 45h2M57 46h2M57 47h2M58 48h2M58 49h2M22 50h1M58 50h3M21 51h3M58 51h4M20 52h4M58 52h5M19 53h1M21 53h3M59 53h6M20 54h4M60 54h4M19 55h1M21 55h3M17 56h2M20 56h3M16 57h1M18 57h5M15 58h8M13 59h9M12 60h10M12 61h10M12 62h9M65 62h2M11 63h9M11 64h9M67 64h1M11 65h8M11 66h7M11 67h6M12 68h3" />
<path stroke="#e6a431" d="M19 29h1M16 32h1M21 32h12M18 33h18M15 34h24M48 34h1M15 35h26M47 35h1M49 35h2M14 36h29M48 36h1M50 36h1M14 37h30M45 37h1M47 37h1M49 37h3M13 38h32M46 38h1M48 38h5M13 39h9M29 39h24M13 40h7M32 40h22M12 41h7M34 41h20M12 42h6M36 42h18M12 43h6M37 43h18M12 44h5M38 44h17M12 45h4M39 45h17M13 46h2M40 46h16M13 47h1M41 47h15M13 48h1M42 48h14M42 49h15M43 50h14M43 51h14M44 52h13M44 53h13M45 54h12M45 55h12M46 56h10M47 57h9M48 58h8M49 59h7M50 60h5M51 61h4M52 62h3M52 63h3M53 64h2" />
<path stroke="#d5d5cd" d="M64 30h2M64 31h2M64 32h2M67 32h1M64 33h2M64 34h2M66 35h1M62 40h2" />
<path stroke="#ffffff" d="M63 41h1" />
<path stroke="#2062a4" d="M66 68h1M65 69h1M66 70h1M66 71h1" />
<path stroke="#62bde6" d="M65 70h1M64 71h2" />
</svg>