<svg xmlns="http://www.w3.org/2000/svg" viewBox="0 -0.5 32 32" shape-rendering="crispEdges">
<metadata>Made with Pixels to Svg https://codepen.io/shshaw/pen/XbxvNj</metadata>
<path stroke="#202020" d="M14 5h4M13 6h1M18 6h1M12 7h1M19 7h4M12 8h1M16 8h1M18 8h1M23 8h1M13 9h1M15 9h1M17 9h1M24 9h1M13 10h1M16 10h1M25 10h1M10 11h3M15 11h1M18 11h1M20 11h3M25 11h1M8 12h2M20 12h1M23 12h1M26 12h1M7 13h1M12 13h1M15 13h1M17 13h1M21 13h1M24 13h1M26 13h1M6 14h1M12 14h1M16 14h1M22 14h1M24 14h1M26 14h1M5 15h1M11 15h3M17 15h2M22 15h1M25 15h1M5 16h1M7 16h1M10 16h1M14 16h3M19 16h1M22 16h1M5 17h1M8 17h2M18 17h1M22 17h1M5 18h1M10 18h6M22 18h1M5 19h1M22 19h1M5 20h1M22 20h1M5 21h1M22 21h1M5 22h1M21 22h1M6 23h1M21 23h1M7 24h1M20 24h1M8 25h2M18 25h2M10 26h8" />
<path stroke="#c5c54a" d="M14 6h4M15 7h1M21 8h2M19 9h1M21 9h3M17 10h2M22 10h2M19 11h1M23 11h1M14 12h1M16 12h1M13 13h2M11 14h1M13 14h2M21 16h1M20 17h2M19 18h3M19 19h3M19 20h3M19 21h3M19 22h2M19 23h2M19 24h1" />
<path stroke="#ffff8b" d="M13 7h1M13 8h2M19 8h1M14 9h1M18 9h1M20 9h1M19 10h2M7 14h1M6 16h1M6 17h2M6 18h1M8 18h2M6 19h1M10 19h2M6 20h1M6 21h1M6 22h1" />
<path stroke="#eeee73" d="M14 7h1M20 8h1M15 10h1M21 10h1M13 11h2M16 11h1M10 12h2M13 12h1M18 12h1M8 13h2M20 13h1M21 14h1M6 15h1M21 15h1M20 16h1M19 17h1M7 18h1M17 18h2M7 19h2M12 19h5M7 20h2M7 21h2M7 22h2M7 23h2M8 24h1" />
<path stroke="#949429" d="M16 7h3M15 8h1M17 8h1M14 10h1M24 10h1M17 11h1M24 11h1M12 12h1M15 12h1M17 12h1M19 12h1M24 12h2M10 13h2M16 13h1M18 13h2M25 13h1M8 14h3M15 14h1M17 14h4M25 14h1M7 15h4M14 15h3M19 15h2M8 16h2M17 17h1M16 18h1" />
<path stroke="#e6e662" d="M9 19h1M9 20h3M9 21h3M9 22h3M9 23h3M9 24h3M10 25h2" />
<path stroke="#d5d552" d="M17 19h2M12 20h7M12 21h7M12 22h7M12 23h7M12 24h7M12 25h6" />
</svg>