<svg xmlns="http://www.w3.org/2000/svg" viewBox="0 -0.5 80 80" shape-rendering="crispEdges">
<metadata>Made with Pixels to Svg https://codepen.io/shshaw/pen/XbxvNj</metadata>
<path stroke="#101010" d="M29 18h2M51 18h1M28 19h1M30 19h1M52 19h1M28 20h1M30 20h1M27 21h1M29 21h1M34 21h1M27 22h1M29 22h1M35 22h1M42 22h1M19 23h2M27 23h1M29 23h1M36 23h1M41 23h1M52 23h1M18 24h1M20 24h1M27 24h4M37 24h1M52 24h1M18 25h1M20 25h1M28 25h3M38 25h1M40 25h1M45 25h2M17 26h1M19 26h1M29 26h2M44 26h1M51 26h1M17 27h1M19 27h2M39 27h1M43 27h1M51 27h1M18 28h4M39 28h1M43 28h1M19 29h2M43 29h1M20 30h1M40 30h1M43 30h1M51 30h1M26 31h1M36 31h1M40 31h1M44 31h1M51 31h1M24 32h3M36 32h1M40 32h1M45 32h1M50 32h1M25 33h1M36 33h1M46 33h4M35 34h1M46 34h1M48 34h1M21 35h2M35 35h1M40 35h1M46 35h1M48 35h1M17 36h1M23 36h1M34 36h1M40 36h2M45 36h1M47 36h2M55 36h2M22 37h1M24 37h1M32 37h2M45 37h1M47 37h1M54 37h1M23 38h1M38 38h1M46 38h2M53 38h1M20 39h1M24 39h2M38 39h2M44 39h1M46 39h1M48 39h1M53 39h1M21 40h1M26 40h2M36 40h2M43 40h3M49 40h1M52 40h2M60 40h1M23 41h1M26 41h1M31 41h6M44 41h1M50 41h2M53 41h1M60 41h1M27 42h1M34 42h2M49 42h1M52 42h2M60 42h1M28 43h1M33 43h2M48 43h1M50 43h2M54 43h1M59 43h1M28 44h5M47 44h3M55 44h4M28 45h1M33 45h2M48 45h1M51 45h1M21 46h1M28 46h5M34 46h1M50 46h4M21 47h1M28 47h1M49 47h1M54 47h1M22 48h1M26 48h2M34 48h2M48 48h1M55 48h1M23 49h3M33 49h4M48 49h1M55 49h1M35 50h1M37 50h1M48 50h1M36 51h1M38 51h1M48 51h2M56 51h1M36 52h1M40 52h2M46 52h2M49 52h1M56 52h1M28 53h1M36 53h1M39 53h7M50 53h1M56 53h1M28 54h1M35 54h1M38 54h4M51 54h1M56 54h1M29 55h1M34 55h1M38 55h1M40 55h1M51 55h1M55 55h1M30 56h4M37 56h2M40 56h1M52 56h3M37 57h1M39 57h1M37 58h1M39 58h1M36 59h2M39 59h1M38 60h2M39 61h1M40 62h1M31 63h1M40 63h1M32 64h2M39 64h1M34 65h5" />
<path stroke="#732010" d="M48 18h3M46 19h2M31 20h2M44 20h2M52 20h1M33 21h1M43 21h1M47 21h3M52 21h1M45 22h2M52 22h1M44 23h1M41 24h1M43 24h1M31 25h1M22 26h1M31 26h1M38 26h1M40 26h1M42 26h1M22 27h1M30 27h2M21 29h1M39 29h1M21 30h1M31 30h1M36 30h1M21 31h1M20 32h2M30 32h1M21 33h1M26 33h1M30 33h1M40 33h1M16 34h1M22 34h1M30 34h1M40 34h1M16 35h1M23 35h1M31 36h1M42 36h2M39 37h1M44 37h1M39 38h1M28 40h1M38 40h4M43 41h1M45 41h1M49 41h1M47 43h1M50 44h1M47 45h1M49 45h2M48 46h2M48 47h1M55 50h1M47 51h1M44 52h2M52 55h1M33 59h3M37 60h1M30 62h1" />
<path stroke="#6a6a6a" d="M29 19h1M29 20h1M28 21h1M28 22h1M28 23h1M19 24h1M19 25h1M47 25h2M18 26h1M49 26h1M18 27h1M44 27h2M50 27h1M45 28h1M51 28h1M46 29h1M51 29h1M53 29h3M25 30h1M47 30h2M52 30h1M56 30h2M25 31h1M49 31h2M58 31h1M59 32h1M59 33h1M47 34h1M60 34h1M47 35h1M60 35h1M46 36h1M57 36h1M60 36h1M46 37h1M58 37h1M60 37h1M45 38h1M54 38h1M59 38h1M45 39h1M55 39h1M59 39h1M55 40h1M24 41h2M52 41h1M56 41h1M23 42h1M50 42h2M56 42h1M22 43h1M27 43h1M49 43h1M57 43h1M21 44h1M26 44h1M33 44h2M21 45h1M26 45h1M29 45h4M25 46h1M24 47h1M27 47h1M24 48h1M27 49h1M31 49h2M28 50h1M30 50h1M34 50h1M36 50h1M29 51h1M28 52h1M34 52h2M33 53h1M32 54h1M31 55h1M39 55h1M39 56h1M38 57h1M38 58h1M38 59h1" />
<path stroke="#c5395a" d="M48 19h4M26 21h1M50 21h1M25 22h1M34 22h1M51 22h1M24 23h1M35 23h1M23 24h1M36 24h1M23 25h1M36 25h2M37 26h1M37 27h2M40 27h2M22 28h1M37 28h2M40 28h2M38 29h1M40 29h2M24 30h1M38 30h2M41 30h1M30 31h1M38 31h2M19 32h1M38 32h2M17 33h2M38 33h2M39 34h1M30 35h1M39 35h1M39 36h1M40 37h1M43 37h1M40 38h1M44 38h1M26 39h1M40 39h2M47 39h1M42 40h1M46 40h3M46 41h3M45 42h4M46 43h1M50 47h1M53 47h1M49 48h1M53 48h2M49 49h1M51 49h4M49 50h6M50 51h6M50 52h6M51 53h5M52 54h4M53 55h2M32 59h1M31 60h1M30 61h1M35 61h4M33 62h7M32 63h8M34 64h5" />
<path stroke="#ff8383" d="M46 20h4M30 21h2M44 21h3M26 22h1M30 22h1M43 22h1M25 23h2M42 23h1M25 24h2M24 25h4M23 26h5M23 27h5M23 28h5M22 29h5M22 30h1M22 31h1M22 32h1M19 33h2M17 34h3M17 35h1" />
<path stroke="#ff4a41" d="M50 20h2M32 21h1M51 21h1M31 22h3M44 22h1M30 23h5M43 23h1M24 24h1M31 24h5M42 24h1M32 25h4M41 25h2M28 26h1M32 26h5M41 26h1M28 27h2M32 27h5M28 28h5M35 28h2M27 29h5M36 29h2M23 30h1M26 30h5M37 30h1M23 31h1M27 31h3M37 31h1M23 32h1M27 32h3M37 32h1M22 33h3M27 33h3M37 33h1M23 34h7M24 35h6M24 36h7M25 37h7M41 37h2M26 38h7M41 38h3M27 39h4M42 39h2M51 47h2M50 48h3M50 49h1M32 60h5M31 61h4M31 62h2" />
<path stroke="#f6e673" d="M47 22h4M46 23h5M45 24h6M44 25h1M49 25h2M50 26h1M20 35h1M36 35h3M18 36h4M35 36h4M19 37h3M34 37h4M21 38h2M33 38h5M32 39h2M35 39h2M30 40h5M38 41h4M37 42h7M35 43h1M37 43h8M35 44h2M38 44h8M35 45h2M38 45h7M35 46h3M39 46h6M36 47h2M39 47h5M38 48h1M40 48h2" />
<path stroke="#cdb439" d="M45 23h1M51 23h1M44 24h1M51 24h1M43 26h1M42 28h1M42 29h1M42 30h1M42 31h2M42 32h3M42 33h4M37 34h1M42 34h4M19 35h1M42 35h4M44 36h1M38 37h1M20 38h1M22 39h2M23 40h3M35 40h1M27 41h3M28 42h6M31 43h2M45 45h2M38 46h1M45 46h2M44 47h4M36 48h2M42 48h6M37 49h3M41 49h7M38 50h3M43 50h4M40 51h3" />
<path stroke="#a47b00" d="M43 25h1M51 25h1M42 27h1M41 31h1M41 32h1M41 33h1M20 34h1M36 34h1M38 34h1M41 34h1M18 35h1M41 35h1M18 37h1M19 38h1M21 39h1M31 39h1M34 39h1M37 39h1M22 40h1M29 40h1M30 41h1M37 41h1M42 41h1M36 42h1M44 42h1M29 43h2M36 43h1M45 43h1M37 44h1M46 44h1M37 45h1M47 46h1M35 47h1M38 47h1M39 48h1M40 49h1M41 50h2M47 50h1M39 51h1M43 51h4M42 52h2" />
<path stroke="#b4b4b4" d="M45 26h1M50 28h1M33 29h1M49 29h2M44 30h1M49 30h2M24 31h1M34 31h1M45 31h4M46 32h4M49 34h4M49 35h5M49 36h5M48 37h6M55 37h1M48 38h5M49 39h4M50 40h2M59 40h1M58 41h2M26 42h1M54 42h2M57 42h3M52 43h2M55 43h2M58 43h1M27 44h1M25 45h1M27 45h1M22 46h1M24 46h1M26 46h2M22 47h2M25 47h2M23 48h1M25 48h1M33 50h1M34 51h2M34 53h2M29 54h1M33 54h2M30 55h1M32 55h2" />
<path stroke="#ffffff" d="M46 26h3M46 27h4M44 28h1M46 28h4M34 29h1M44 29h2M47 29h2M33 30h2M45 30h2M33 31h1M56 37h2M55 38h4M54 39h1M56 39h3M54 40h1M56 40h3M57 41h1M24 42h2M23 43h4M22 44h4M22 45h3M23 46h1M31 50h2M30 51h4M29 52h5M29 53h4M30 54h2" />
<path stroke="#00105a" d="M33 28h2M32 29h1M35 29h1M32 30h1M35 30h1M31 31h2M35 31h1M31 32h5M31 33h2M34 33h2M21 34h1M31 34h1M31 35h1M22 36h1" />
<path stroke="#d5d5d5" d="M53 30h3M52 31h6M51 32h8M50 33h9M53 34h7M54 35h6M54 36h1M58 36h2M59 37h1M54 41h2M33 46h1M29 47h6M28 48h6M28 49h3M29 50h1M37 51h1" />
<path stroke="#006ade" d="M33 33h1M32 34h3M32 35h3M32 36h2M23 37h1M24 38h2" />
</svg>