<svg xmlns="http://www.w3.org/2000/svg" viewBox="0 -0.5 80 80" shape-rendering="crispEdges">
<metadata>Made with Pixels to Svg https://codepen.io/shshaw/pen/XbxvNj</metadata>
<path stroke="#624173" d="M31 13h7M28 14h2M38 14h3M26 15h1M41 15h2M24 16h1M43 16h1M22 18h1M21 19h1M20 20h1M19 22h1M33 22h1M49 22h1M33 23h1M49 23h1M18 24h1M31 24h2M18 25h1M21 25h3M50 25h1M18 26h1M20 26h1M25 26h1M19 27h1M51 27h1M17 28h1M19 28h1M52 28h1M17 29h1M19 29h1M52 29h1M17 30h1M20 30h1M53 30h1M17 31h1M21 31h2M53 31h1M17 32h1M20 32h1M17 33h1M20 33h1M17 34h1M20 34h1M21 35h1M25 35h1M22 36h3M55 36h1M18 37h1M18 38h1M18 39h1M15 40h4M14 41h1M18 41h1M38 41h1M41 41h1M47 41h1M50 41h1M13 42h1M16 42h1M19 42h1M37 42h1M40 42h1M48 42h1M13 43h1M15 43h1M19 43h1M37 43h1M40 43h1M48 43h1M51 43h1M13 44h1M15 44h1M37 44h1M40 44h1M48 44h1M51 44h1M14 45h2M20 45h1M38 45h1M40 45h1M48 45h1M16 46h1M20 46h1M39 46h2M17 47h4M21 49h1M22 51h1M22 52h1M22 56h1M21 57h1M20 58h1M20 59h1M19 60h1M22 63h1M24 64h1M41 64h1M43 65h1M51 65h1M33 66h1M40 66h1" />
<path stroke="#9462d5" d="M30 14h1M27 15h1M25 16h1M23 17h1M20 21h1M31 21h2M20 22h1M30 22h1M48 22h1M21 23h1M30 23h1M21 24h1M19 25h2M24 25h1M24 26h1M26 27h1M24 34h3M22 35h3M26 35h2M18 36h1M25 36h3M24 37h3M55 37h1M55 38h1M55 39h1M54 40h2M16 41h1M52 41h4M15 42h1M41 42h1M50 42h1M52 42h4M41 43h1M47 43h1M50 43h1M52 43h4M14 44h1M19 44h1M41 44h1M47 44h1M50 44h1M52 44h4M16 45h1M39 45h1M41 45h1M47 45h1M49 45h2M52 45h4M17 46h1M42 46h1M46 46h1M48 46h2M51 46h5M50 47h7M21 48h1M50 48h9M52 49h8M22 50h1M52 50h9M51 51h11M51 52h12M50 53h13M65 53h1M41 54h1M50 54h14M66 54h1M24 55h1M30 55h1M41 55h1M49 55h7M57 55h1M59 55h6M29 56h1M41 56h3M48 56h7M56 56h1M58 56h8M22 57h1M41 57h5M48 57h8M57 57h1M59 57h8M21 58h1M41 58h2M44 58h11M56 58h1M58 58h1M60 58h1M62 58h5M21 59h1M40 59h4M45 59h1M47 59h9M57 59h1M59 59h1M61 59h5M20 60h3M40 60h1M42 60h1M44 60h1M46 60h1M48 60h15M20 61h5M29 61h4M39 61h3M43 61h1M45 61h1M47 61h14M21 62h22M44 62h1M46 62h9M56 62h4M23 63h31M25 64h4M31 64h10M42 64h11M32 65h10M44 65h7M34 66h6" />
<path stroke="#b483f6" d="M31 14h7M31 15h10M32 16h11M33 17h11M33 18h12M33 19h13M21 20h1M32 20h15M21 21h1M33 21h15M21 22h2M34 22h14M22 23h2M28 23h2M34 23h15M22 24h9M33 24h17M25 25h25M19 26h1M23 26h1M26 26h25M18 27h1M23 27h3M27 27h24M18 28h1M20 28h32M18 29h1M20 29h10M32 29h20M18 30h2M21 30h9M34 30h19M18 31h3M23 31h7M35 31h18M18 32h2M21 32h10M36 32h18M18 33h2M23 33h9M36 33h18M18 34h2M23 34h1M27 34h6M38 34h17M18 35h3M28 35h5M39 35h16M19 36h3M28 36h6M39 36h16M19 37h5M27 37h9M38 37h17M19 38h36M19 39h36M19 40h35M15 41h1M17 41h1M19 41h19M40 41h1M42 41h5M48 41h2M51 41h1M18 42h1M20 42h4M31 42h6M39 42h1M44 42h4M49 42h1M18 43h1M20 43h2M33 43h4M38 43h2M44 43h3M49 43h1M16 44h3M20 44h1M34 44h3M38 44h2M44 44h3M49 44h1M17 45h3M35 45h3M42 45h5M18 46h2M36 46h3M43 46h3M36 47h5M37 48h4M37 49h3M38 50h1M38 51h1M38 52h2M39 53h2M63 53h2M39 54h2M64 54h2M39 55h2M56 55h1M58 55h1M65 55h2M39 56h2M55 56h1M57 56h1M66 56h1M39 57h2M56 57h1M58 57h1M22 58h1M39 58h2M43 58h1M55 58h1M57 58h1M59 58h1M61 58h1M22 59h2M30 59h2M38 59h2M44 59h1M46 59h1M56 59h1M58 59h1M60 59h1M23 60h1M28 60h6M38 60h2M41 60h1M43 60h1M45 60h1M47 60h1M25 61h4M33 61h6M42 61h1M44 61h1M46 61h1M43 62h1M45 62h1" />
<path stroke="#c5a4ff" d="M28 15h3M26 16h6M24 17h9M23 18h10M22 19h11M22 20h10M22 21h9M23 22h7M24 23h4M21 26h2M20 27h3M21 33h2M21 34h2M39 41h1M14 42h1M17 42h1M24 42h7M38 42h1M42 42h2M14 43h1M16 43h2M22 43h11M42 43h2M21 44h4M26 44h8M42 44h2M21 45h3M27 45h8M21 46h3M28 46h8M21 47h2M29 47h7M22 48h1M30 48h7M22 49h1M31 49h6M32 50h6M33 51h5M33 52h5M32 53h7M31 54h8M31 55h8M23 56h2M30 56h9M23 57h3M29 57h10M23 58h4M28 58h11M24 59h6M32 59h6M24 60h4M34 60h4" />
<path stroke="#101010" d="M44 17h1M45 18h1M46 19h1M47 20h1M48 21h1M50 24h1M51 26h1M54 32h1M54 33h1M55 34h1M55 35h1M56 37h1M56 38h1M57 39h1M57 40h1M57 41h1M58 42h1M58 43h1M58 44h1M51 45h1M59 45h1M47 46h1M50 46h1M59 46h1M42 47h5M48 47h2M60 47h1M60 48h1M60 49h1M66 53h1M67 55h1M68 56h1M68 57h1M68 58h1M67 59h1M66 60h1M19 61h1M63 61h3M20 62h1M61 62h1M21 63h1M59 63h2M23 64h1M29 64h1M53 64h1M55 64h4M25 65h4M31 65h1M42 65h1M52 65h1M32 66h1M41 66h1M44 66h7M34 67h6" />
<path stroke="#ffffff" d="M31 22h1M19 23h1" />
<path stroke="#de2094" d="M32 22h1M20 23h1M31 23h2M19 24h2" />
<path stroke="#837b41" d="M30 29h2M33 30h1M34 31h1M31 32h2M35 32h1M16 33h1M32 33h1M35 33h1M16 34h1M33 34h1M36 34h2M15 35h2M33 35h1M38 35h1M14 36h1M34 36h2M38 36h1M14 37h1M17 37h1M36 37h2M15 38h2" />
<path stroke="#ffd55a" d="M30 30h3M32 31h2M33 32h1M33 33h2M34 34h2M35 35h3M15 36h2" />
<path stroke="#deb441" d="M30 31h2M34 32h1M17 35h1M34 35h1M17 36h1M36 36h2M15 37h2" />
<path stroke="#525252" d="M56 39h1M56 40h1M56 41h1M56 42h1M56 43h1M25 44h1M56 44h1M24 45h1M26 45h1M56 45h1M24 46h1M27 46h1M41 46h1M56 46h1M23 47h1M28 47h1M41 47h1M57 47h1M23 48h1M29 48h1M41 48h1M44 48h1M49 48h1M30 49h1M40 49h1M45 49h1M51 49h1M61 49h1M31 50h1M39 50h1M45 50h1M51 50h1M61 50h1M32 51h1M39 51h1M44 51h1M62 51h1M32 52h1M40 52h1M44 52h1M63 52h2M23 53h1M31 53h1M41 53h1M43 53h1M23 54h1M30 54h1M42 54h2M23 55h1M42 55h1M25 56h1M44 56h1M26 57h1M28 57h1M27 58h1" />
<path stroke="#734a94" d="M51 42h1M67 56h1M67 57h1M67 58h1M66 59h1M63 60h3M61 61h2M55 62h1M60 62h1M54 63h5M30 64h1M30 65h1" />
<path stroke="#313131" d="M57 42h1M57 43h1M57 44h1M57 45h2M57 46h2M47 47h1M58 47h2M45 48h4M59 48h1M46 49h5M46 50h5M45 51h6M45 52h6M44 53h6M44 54h6M43 55h6M45 56h3M46 57h2" />
<path stroke="#6a6a6a" d="M25 45h1M25 46h2M24 47h4M24 48h5M42 48h2M23 49h7M41 49h4M23 50h8M40 50h5M23 51h9M40 51h4M23 52h9M41 52h3M24 53h7M42 53h1M24 54h6M25 55h5M26 56h3M27 57h1" />
</svg>