<svg xmlns="http://www.w3.org/2000/svg" viewBox="0 -0.5 80 80" shape-rendering="crispEdges">
<metadata>Made with Pixels to Svg https://codepen.io/shshaw/pen/XbxvNj</metadata>
<path stroke="#394183" d="M39 2h3M38 3h1M42 3h2M38 4h1M44 4h1M31 5h1M38 5h1M22 6h1M35 6h1M45 6h1M21 7h1M38 7h1M44 7h1M14 8h3M21 8h1M42 8h2M13 9h1M17 9h1M46 9h1M13 10h1M20 10h1M28 10h1M33 10h6M14 11h2M18 11h1M29 11h2M36 11h2M44 11h3M15 12h1M26 12h4M35 12h5M46 12h2M16 13h4M21 13h1M25 13h15M17 14h2M20 14h2M26 14h2M34 14h6M19 15h3M36 15h4M62 15h8M36 16h3M59 16h2M55 17h3M52 19h7M50 20h16M47 21h19M46 22h19M47 23h17M45 24h2M49 24h14M52 25h10M30 26h2M53 26h8M28 27h2M54 27h6M27 28h1M55 28h5M27 29h1M55 29h1M58 29h1M58 30h1M63 30h3M62 31h5M62 32h6M60 33h6M46 34h3M60 34h4M46 35h4M59 35h4M46 36h4M59 36h3M11 37h2M14 37h1M46 37h4M59 37h3M11 38h6M46 38h4M59 38h3M10 39h9M37 39h1M46 39h5M60 39h1M10 40h11M37 40h1M47 40h4M60 40h1M10 41h5M21 41h1M37 41h1M49 41h3M10 42h3M35 42h1M48 42h1M50 42h1M52 42h1M10 43h1M34 43h1M36 43h1M47 43h1M61 43h1M33 44h1M36 44h1M47 44h1M50 44h1M61 44h1M36 45h1M51 45h1M61 45h1M36 46h1M52 46h1M62 46h1M35 47h1M51 47h2M62 47h1M74 47h2M10 48h1M35 48h1M50 48h1M52 48h1M62 48h1M73 48h1M10 49h1M35 49h1M49 49h2M53 49h1M62 49h1M72 49h1M10 50h1M35 50h2M45 50h1M50 50h1M54 50h1M71 50h1M10 51h1M35 51h1M37 51h1M44 51h1M50 51h1M53 51h2M70 51h1M74 51h1M11 52h1M35 52h1M38 52h1M43 52h1M51 52h2M11 53h1M36 53h1M39 53h1M42 53h1M47 53h1M60 53h1M69 53h1M11 54h1M40 54h2M47 54h1M60 54h2M73 54h1M12 55h1M27 55h1M48 55h1M61 55h2M12 56h1M24 56h2M27 56h3M61 56h2M13 57h1M25 57h5M39 57h1M47 57h2M55 57h1M62 57h1M66 57h1M13 58h1M26 58h4M40 58h1M45 58h6M55 58h2M61 58h1M65 58h1M67 58h1M69 58h4M14 59h1M27 59h4M41 59h12M54 59h1M58 59h2M61 59h1M65 59h1M67 59h1M69 59h2M14 60h1M27 60h5M42 60h13M57 60h1M59 60h4M64 60h2M67 60h1M71 60h2M27 61h4M44 61h12M58 61h5M64 61h1M66 61h1M69 61h4M31 62h1M46 62h11M58 62h4M68 62h6M28 63h4M49 63h9M62 63h1M71 63h3M32 64h1M59 64h4M69 64h1M73 64h1M28 65h4M33 65h1M63 65h1M70 65h1M32 66h2M59 66h5M71 66h1M27 67h7M64 67h1M72 67h1M29 68h4M58 68h1M64 68h1M31 69h1M27 70h1M29 70h1M57 70h1M30 71h1" />
<path stroke="#7b7bcd" d="M39 3h3M39 4h4M42 5h2M14 9h3M16 10h2M28 28h2M28 29h1M12 34h2M14 35h2" />
<path stroke="#c59410" d="M24 4h3M23 5h1M28 5h1M26 6h1M27 7h1M28 8h1M23 9h1M24 11h1M25 12h1M33 12h1M38 41h1M44 41h1M37 42h1M46 44h1M37 45h1M46 45h1" />
<path stroke="#292952" d="M27 4h4M32 5h3M45 5h1M36 6h4M46 6h1M39 7h1M17 8h1M20 8h1M40 8h2M18 9h3M19 10h1M44 10h2M13 11h1M22 11h1M27 11h1M38 11h2M14 12h1M16 12h2M21 12h1M23 12h1M15 13h1M20 13h1M22 13h1M16 14h1M19 14h1M22 14h1M33 14h1M40 14h1M17 15h2M22 15h1M35 15h1M19 16h4M69 16h1M37 17h1M69 17h1M52 18h3M68 18h1M50 19h2M67 19h1M47 20h3M66 20h1M44 21h3M45 22h1M65 22h1M46 23h1M64 23h1M47 24h2M63 24h2M62 25h2M61 26h1M60 27h1M52 28h1M60 28h1M63 28h1M59 29h1M63 29h3M27 30h1M59 30h1M62 30h1M66 30h1M26 31h1M54 31h1M58 31h1M61 31h1M67 31h1M11 32h1M26 32h1M58 32h1M61 32h1M68 32h1M12 33h2M57 33h1M69 33h1M14 34h2M22 34h1M57 34h1M69 34h2M16 35h2M23 35h1M50 35h1M52 35h1M69 35h1M71 35h1M9 36h4M18 36h3M50 36h1M53 36h1M69 36h1M8 37h1M10 37h1M13 37h1M20 37h1M50 37h1M54 37h1M58 37h1M69 37h1M7 38h1M10 38h1M26 38h1M50 38h1M55 38h1M58 38h1M69 38h1M6 39h1M25 39h1M51 39h1M56 39h2M59 39h1M69 39h1M5 40h1M9 40h1M51 40h1M59 40h1M69 40h1M9 41h1M35 41h1M52 41h1M60 41h1M69 41h1M9 42h1M51 42h1M53 42h1M60 42h1M69 42h1M9 43h1M52 43h3M68 43h1M9 44h1M53 44h2M68 44h1M9 45h1M54 45h2M68 45h1M9 46h1M46 46h1M55 46h1M68 46h1M9 47h1M46 47h1M56 47h1M68 47h1M46 48h1M57 48h1M67 48h1M75 48h1M25 49h1M46 49h1M57 49h1M67 49h1M75 49h1M24 50h1M46 50h1M58 50h1M63 50h1M67 50h1M75 50h1M23 51h1M46 51h1M58 51h2M63 51h1M67 51h1M75 51h1M23 52h1M46 52h1M59 52h2M63 52h1M66 52h1M69 52h1M74 52h1M22 53h1M46 53h1M59 53h1M61 53h3M66 53h1M74 53h1M22 54h1M36 54h1M59 54h1M62 54h2M66 54h1M68 54h1M22 55h1M26 55h1M37 55h1M47 55h1M60 55h1M63 55h1M66 55h3M73 55h1M23 56h1M26 56h1M37 56h1M48 56h1M60 56h1M63 56h1M65 56h1M67 56h1M69 56h7M24 57h1M30 57h1M38 57h1M49 57h2M61 57h1M63 57h1M65 57h1M68 57h1M25 58h1M30 58h1M39 58h1M51 58h2M59 58h1M62 58h3M66 58h1M68 58h1M73 58h1M26 59h1M40 59h1M53 59h1M57 59h1M62 59h3M66 59h1M68 59h1M71 59h2M26 60h1M55 60h2M58 60h1M63 60h1M66 60h1M68 60h3M31 61h1M56 61h2M63 61h1M65 61h1M67 61h2M15 62h1M27 62h4M57 62h1M62 62h6M16 63h1M27 63h1M32 63h1M58 63h4M63 63h1M68 63h1M27 64h5M58 64h1M63 64h2M27 65h1M32 65h1M58 65h5M64 65h1M26 66h6M58 66h1M64 66h1M25 67h2M58 67h6M23 68h2M74 68h1M63 73h1M59 74h1M63 74h1M58 75h1M57 76h1M62 76h1" />
<path stroke="#5a62ac" d="M43 4h1M29 5h2M39 5h3M44 5h1M27 6h8M40 6h5M22 7h1M28 7h10M40 7h4M45 7h2M22 8h1M29 8h11M44 8h3M21 9h2M26 9h20M47 9h1M14 10h2M18 10h1M21 10h3M26 10h2M29 10h4M42 10h2M46 10h2M16 11h2M19 11h3M23 11h1M26 11h1M28 11h1M47 11h1M18 12h3M24 12h1M40 15h1M39 16h2M61 16h8M38 17h4M58 17h11M38 18h4M55 18h13M39 19h4M59 19h8M39 20h4M40 21h4M40 22h5M41 23h5M41 24h4M42 25h7M32 26h1M43 26h9M62 26h2M30 27h3M44 27h8M61 27h3M30 28h3M45 28h7M61 28h2M64 28h1M29 29h3M46 29h6M60 29h3M28 30h4M47 30h5M60 30h2M27 31h4M48 31h4M59 31h2M27 32h3M50 32h5M59 32h2M11 33h1M27 33h2M51 33h4M58 33h2M66 33h3M10 34h2M26 34h3M52 34h5M58 34h2M64 34h5M11 35h3M24 35h4M53 35h6M63 35h6M13 36h5M24 36h4M54 36h5M62 36h7M15 37h5M23 37h5M55 37h3M62 37h7M17 38h9M56 38h2M62 38h7M19 39h6M36 39h1M61 39h8M21 40h3M36 40h1M46 40h1M61 40h8M15 41h6M22 41h2M36 41h1M46 41h3M61 41h8M13 42h9M36 42h1M46 42h2M49 42h1M61 42h8M11 43h10M35 43h1M48 43h4M62 43h6M10 44h11M34 44h2M48 44h1M51 44h2M62 44h6M10 45h10M33 45h3M47 45h2M52 45h2M62 45h6M10 46h10M33 46h3M37 46h1M45 46h1M47 46h2M53 46h2M63 46h5M10 47h9M29 47h1M32 47h3M36 47h3M44 47h2M47 47h2M53 47h3M63 47h5M11 48h8M29 48h6M36 48h4M43 48h3M47 48h2M53 48h4M63 48h4M74 48h1M11 49h8M28 49h7M36 49h5M42 49h4M47 49h2M54 49h3M63 49h4M73 49h2M11 50h8M25 50h10M37 50h8M47 50h3M55 50h3M64 50h3M72 50h3M11 51h7M24 51h11M36 51h1M38 51h6M45 51h1M47 51h3M55 51h3M64 51h3M71 51h3M12 52h6M24 52h11M36 52h2M39 52h4M44 52h2M47 52h4M53 52h6M64 52h2M70 52h4M12 53h6M23 53h13M37 53h2M40 53h2M43 53h3M48 53h11M64 53h2M70 53h4M12 54h6M23 54h13M37 54h3M42 54h5M48 54h11M64 54h2M69 54h4M13 55h5M23 55h3M28 55h9M38 55h9M49 55h11M64 55h2M69 55h4M13 56h5M30 56h4M38 56h10M49 56h11M64 56h1M66 56h1M68 56h1M14 57h4M40 57h7M51 57h4M56 57h5M64 57h1M67 57h1M69 57h6M14 58h4M41 58h4M53 58h2M57 58h2M60 58h1M15 59h3M55 59h2M60 59h1M15 60h3M15 61h3M16 62h2M17 63h1M69 63h2M70 64h3M71 65h3M72 66h3M73 67h2M25 68h4M59 68h5M23 69h8M58 69h7M25 70h2M30 70h2M58 70h7M59 71h2M62 71h2M63 72h1" />
<path stroke="#ffd518" d="M24 5h4M23 6h3M23 7h4M23 8h5M24 9h2M24 10h2M25 11h1M33 11h1M32 12h1M39 41h5M38 42h8M37 43h10M37 44h9M38 45h8M38 46h7M39 47h5M40 48h3M41 49h1" />
<path stroke="#101010" d="M47 7h1M47 8h1M48 9h1M39 10h3M48 10h1M31 11h2M34 11h2M42 11h2M48 11h1M30 12h2M34 12h1M40 12h1M44 12h2M48 12h1M24 13h1M40 13h1M46 13h2M25 14h1M28 14h4M26 15h2M29 15h5M41 15h1M30 16h1M41 16h1M42 17h1M42 18h1M43 19h1M43 20h1M49 25h3M52 26h1M52 27h2M54 28h1M54 29h1M56 29h2M54 30h2M57 30h1M57 31h1M57 32h1M32 35h3M29 36h2M35 36h1M36 37h1M24 40h1M24 41h1M22 42h2M21 43h1M21 44h1M31 44h1M20 45h1M32 45h1M20 46h1M27 46h1M19 47h1M28 47h1M19 48h1M19 49h1M19 50h1M18 51h1M18 52h1M18 53h1M18 54h1M18 55h1M18 56h1M34 56h3M18 57h1M31 57h3M75 57h1M18 58h1M74 58h1M18 59h1M31 59h1M73 59h1M18 60h1M32 60h1M41 60h1M73 60h1M18 61h1M32 61h1M42 61h2M73 61h1M18 62h1M32 62h1M44 62h2M74 62h1M18 63h1M33 63h1M46 63h3M74 63h1M17 64h2M33 64h1M49 64h9M74 64h1M34 65h1M74 65h1M34 66h1M75 66h1M34 67h1M65 67h1M75 67h1M33 68h1M65 68h1M75 68h1M32 69h1M65 69h1M32 70h1M65 70h1M20 71h2M31 71h1M66 71h1M29 72h2M66 72h1M21 73h2M25 73h3M66 73h1M66 74h1M62 75h1M64 75h1M66 75h1M60 76h1M65 76h1M61 77h1" />
<path stroke="#ffffff" d="M32 14h1M34 15h1M35 17h1M29 18h1M34 18h1M32 19h1M28 20h1M32 20h1M64 25h3M64 26h5M64 27h6M53 28h1M65 28h5M52 29h2M67 29h4M53 30h1M56 30h1M68 30h3M24 31h1M55 31h2M70 31h1M24 32h1M56 32h1M7 33h4M24 33h2M6 34h4M21 34h1M24 34h1M5 35h3M21 35h2M5 36h2M21 36h2M4 37h3M21 37h1M4 38h2M4 39h1M30 44h1M49 44h1M30 45h2M49 45h2M26 46h1M30 46h2M49 46h2M26 47h2M30 47h1M49 47h2M26 48h2M51 48h1M26 49h1M51 49h2M51 50h2M51 51h1M22 69h1M20 70h2M23 70h1M28 70h1M22 71h3M27 71h2M58 71h1M65 71h1M21 72h1M26 72h1M58 72h1M61 72h1M64 72h2M57 73h2M61 73h2M64 73h2M57 74h1M61 74h1M65 74h1M57 75h1M61 75h1M61 76h1" />
<path stroke="#6a4a29" d="M31 16h5M31 17h1M30 18h1M33 19h1M29 20h1M29 21h2" />
<path stroke="#737b83" d="M29 17h1M28 18h1M28 19h1M27 20h1M27 21h1M65 24h2M67 25h2M69 26h1M70 27h1M70 28h1M71 29h1M23 30h2M71 30h1M23 31h1M25 31h1M72 31h1M8 32h3M23 32h1M72 32h1M6 33h1M20 33h2M23 33h1M72 33h1M5 34h1M20 34h1M23 34h1M72 34h1M4 35h1M20 35h1M4 36h1M3 37h1M3 38h1M3 39h1M4 41h1M29 43h2M29 44h1M25 45h2M29 45h1M25 46h1M29 46h1M25 47h1M25 48h1M20 69h1M19 70h1M22 70h1M26 71h1M57 71h1M20 72h1M24 72h2M57 72h1M60 72h1M56 73h1M60 73h1M56 74h1M60 74h1M64 74h1M56 75h1M60 75h1M56 76h1" />
<path stroke="#c5cdd5" d="M30 17h1M34 19h1M33 20h1M66 29h1M52 30h1M67 30h1M52 31h2M68 31h2M71 31h1M25 32h1M55 32h1M69 32h3M26 33h1M55 33h2M70 33h2M25 34h1M71 34h1M8 35h3M7 36h2M23 36h1M7 37h1M22 37h1M6 38h1M5 39h1M4 40h1M32 46h1M51 46h1M31 47h1M28 48h1M49 48h1M27 49h1M53 50h1M52 51h1M21 69h1M24 70h1M25 71h1M29 71h1M61 71h1M64 71h1M22 72h2M27 72h2M59 72h1M62 72h1M59 73h1M58 74h1M62 74h1M65 75h1" />
<path stroke="#bd737b" d="M32 17h3M31 18h3M30 19h2M30 20h2" />
<path stroke="#e64a31" d="M36 17h1M36 18h2M35 19h2M34 20h2M32 21h3M29 22h4M40 23h1M40 24h1M39 25h3M39 26h4M40 27h4M33 28h1M40 28h5M32 29h3M39 29h7M32 30h15M31 31h17M30 32h14M47 32h3M29 33h3M33 33h11M49 33h2M29 34h2M34 34h11M28 35h2M35 35h10M28 36h1M36 36h9M37 37h8M37 38h8M38 39h7M38 40h8M45 41h1" />
<path stroke="#5a1000" d="M35 18h1M29 19h1M37 20h1M28 21h1M31 21h1M37 21h1M28 22h1M35 22h2M29 23h6M32 24h1M32 25h1M33 26h1M33 27h1M34 28h1M39 28h1M35 29h1M38 29h1M44 32h2M32 33h1M46 33h3M33 34h1M49 34h3M31 35h1M28 37h1M36 38h1" />
<path stroke="#bd3941" d="M37 19h2M36 20h1M38 20h1M35 21h2M38 21h2M33 22h2M37 22h3M35 23h5M33 24h7M33 25h6M34 26h5M34 27h6M35 28h4M36 29h2M46 32h1M44 33h2M31 34h2M45 34h1M30 35h1M45 35h1M45 36h1M45 37h1M45 38h1M45 39h1" />
</svg>