<svg xmlns="http://www.w3.org/2000/svg" viewBox="0 -0.5 56 56" shape-rendering="crispEdges">
<metadata>Made with Pixels to Svg https://codepen.io/shshaw/pen/XbxvNj</metadata>
<path stroke="#ffffff" d="M0 0h56M0 1h56M0 2h21M23 2h7M33 2h23M0 3h20M21 3h2M24 3h3M30 3h3M34 3h22M0 4h19M20 4h4M27 4h7M35 4h21M0 5h18M19 5h13M33 5h1M35 5h21M0 6h18M19 6h8M28 6h2M31 6h3M35 6h9M50 6h6M0 7h13M19 7h11M31 7h2M34 7h6M44 7h3M52 7h4M0 8h12M13 8h5M20 8h4M25 8h5M31 8h2M34 8h4M42 8h6M53 8h3M0 9h12M13 9h2M16 9h4M22 9h2M25 9h5M31 9h2M34 9h3M38 9h2M42 9h7M54 9h2M0 10h3M5 10h8M14 10h1M16 10h6M23 10h1M25 10h2M28 10h2M31 10h2M34 10h2M37 10h13M54 10h2M0 11h3M4 11h1M6 11h7M14 11h1M16 11h2M19 11h4M25 11h2M29 11h1M31 11h2M34 11h1M36 11h5M43 11h7M54 11h2M0 12h3M4 12h2M7 12h6M14 12h1M16 12h2M19 12h5M25 12h2M29 12h1M31 12h2M35 12h5M41 12h9M55 12h1M0 13h3M4 13h3M8 13h6M15 13h1M17 13h1M19 13h6M26 13h2M29 13h1M32 13h1M34 13h1M37 13h2M40 13h9M55 13h1M0 14h3M4 14h4M9 14h5M15 14h1M17 14h1M19 14h4M24 14h1M32 14h1M34 14h1M37 14h1M39 14h4M45 14h4M55 14h1M0 15h3M5 15h4M10 15h3M21 15h1M23 15h3M33 15h4M38 15h10M55 15h1M0 16h4M6 16h4M26 16h1M37 16h8M54 16h2M0 17h4M7 17h3M37 17h5M54 17h2M0 18h4M7 18h4M37 18h3M54 18h2M0 19h4M8 19h3M53 19h3M0 20h4M8 20h2M15 20h4M42 20h4M51 20h5M0 21h4M14 21h1M19 21h1M39 21h7M50 21h6M0 22h4M13 22h1M20 22h1M39 22h6M49 22h7M0 23h4M13 23h1M15 23h2M20 23h1M38 23h1M41 23h3M49 23h7M0 24h3M13 24h1M15 24h2M20 24h1M37 24h1M41 24h2M48 24h8M0 25h3M13 25h1M20 25h1M38 25h9M48 25h8M0 26h2M14 26h1M19 26h1M39 26h8M48 26h8M0 27h1M15 27h4M42 27h6M49 27h7M40 28h2M44 28h5M50 28h6M2 29h1M5 29h1M40 29h4M45 29h5M51 29h5M11 30h1M41 30h10M52 30h4M0 31h1M10 31h3M41 31h2M45 31h6M52 31h4M0 32h2M9 32h5M41 32h2M46 32h6M53 32h3M0 33h3M6 33h8M31 33h2M41 33h4M46 33h6M53 33h3M0 34h3M5 34h9M29 34h3M37 34h4M43 34h2M49 34h3M53 34h3M0 35h3M5 35h9M28 35h4M35 35h8M52 35h4M0 36h4M5 36h9M27 36h4M35 36h9M51 36h5M0 37h3M4 37h1M6 37h1M10 37h4M26 37h4M36 37h10M50 37h6M0 38h2M3 38h1M5 38h1M26 38h3M37 38h19M0 39h1M2 39h1M4 39h3M10 39h8M23 39h1M26 39h2M36 39h1M38 39h18M1 40h6M9 40h9M19 40h2M23 40h1M28 40h2M36 40h2M40 40h16M1 41h5M9 41h8M18 41h3M23 41h1M27 41h3M36 41h4M41 41h15M1 42h4M9 42h6M17 42h3M22 42h2M27 42h4M35 42h1M37 42h4M42 42h14M0 43h1M5 43h2M9 43h3M15 43h5M22 43h3M28 43h8M37 43h4M42 43h14M0 44h8M9 44h11M22 44h3M28 44h14M43 44h13M0 45h9M10 45h9M21 45h4M28 45h1M31 45h11M43 45h13M0 46h10M11 46h8M21 46h4M29 46h1M31 46h3M35 46h1M37 46h5M43 46h13M0 47h11M14 47h3M22 47h2M29 47h1M31 47h3M35 47h1M37 47h6M44 47h12M0 48h13M14 48h2M23 48h1M28 48h3M32 48h2M35 48h1M37 48h6M44 48h12M0 49h13M28 49h3M32 49h2M35 49h1M37 49h6M44 49h12M0 50h13M14 50h1M27 50h4M32 50h1M34 50h3M38 50h4M43 50h13M0 51h14M15 51h3M23 51h9M34 51h3M38 51h4M43 51h13M0 52h15M17 52h1M22 52h11M34 52h3M38 52h3M42 52h14M0 53h17M21 53h13M35 53h2M38 53h2M41 53h15M0 54h35M40 54h16M0 55h56" />
<path stroke="#000000" d="M21 2h2M31 2h1M20 3h1M23 3h1M28 3h1M33 3h1M19 4h1M25 4h1M32 5h1M34 5h1M18 6h1M27 6h1M45 6h4M13 7h4M30 7h1M41 7h2M50 7h1M12 8h1M19 8h1M30 8h1M33 8h1M38 8h1M40 8h2M52 8h1M20 9h1M24 9h1M30 9h1M33 9h1M37 9h1M40 9h1M4 10h1M15 10h1M22 10h1M24 10h1M30 10h1M33 10h1M36 10h1M53 10h1M3 11h1M5 11h1M13 11h1M15 11h1M23 11h2M27 11h1M30 11h1M33 11h1M35 11h1M41 11h1M3 12h1M6 12h1M18 12h1M24 12h1M28 12h1M40 12h1M3 13h1M7 13h1M18 13h1M33 13h1M39 13h1M54 13h1M3 14h1M8 14h1M14 14h1M16 14h1M23 14h1M25 14h2M31 14h1M35 14h2M38 14h1M44 14h1M54 14h1M9 15h1M14 15h6M22 15h1M27 15h1M37 15h1M10 16h3M19 16h6M32 16h1M4 17h1M21 17h6M53 17h1M4 18h1M11 18h1M23 18h5M35 18h1M4 19h1M11 19h1M16 19h2M23 19h6M31 19h1M43 19h1M51 19h1M4 20h1M10 20h1M14 20h1M19 20h1M24 20h6M31 20h1M34 20h1M40 20h1M50 20h1M4 21h2M9 21h1M13 21h1M16 21h2M20 21h1M24 21h7M37 21h1M49 21h1M4 22h1M7 22h1M15 22h4M25 22h2M28 22h4M33 22h1M35 22h1M4 23h1M12 23h1M14 23h1M17 23h3M21 23h1M25 23h2M28 23h5M34 23h1M12 24h1M14 24h1M17 24h3M21 24h1M25 24h3M29 24h1M32 24h1M39 24h1M3 25h1M15 25h4M25 25h3M32 25h2M47 25h1M3 26h4M13 26h1M16 26h2M20 26h1M25 26h2M32 26h2M1 27h1M8 27h1M14 27h1M19 27h1M25 27h2M32 27h2M38 27h3M48 27h1M0 28h1M9 28h1M17 28h2M25 28h1M33 28h3M42 28h1M49 28h1M3 29h2M6 29h1M20 29h3M24 29h2M29 29h2M34 29h1M50 29h1M0 30h1M10 30h1M18 30h4M24 30h1M29 30h2M51 30h1M1 31h1M24 31h1M33 31h1M43 31h1M3 32h5M17 32h4M23 32h1M33 32h1M44 32h2M18 33h3M38 33h2M52 33h1M3 34h1M41 34h1M4 35h1M32 35h1M43 35h1M51 35h1M17 36h1M26 36h1M31 36h1M44 36h1M50 36h1M3 37h1M15 37h2M25 37h1M47 37h2M2 38h1M4 38h1M11 38h2M22 38h1M25 38h1M29 38h1M33 38h1M36 38h1M1 39h1M9 39h1M22 39h1M28 39h1M34 39h1M37 39h1M22 40h1M27 40h1M35 40h1M38 40h1M0 41h1M8 41h1M26 41h1M5 42h1M8 42h1M15 42h1M31 42h1M36 42h1M2 43h2M7 43h2M13 43h1M21 43h1M41 43h1M27 44h1M9 45h1M27 45h1M29 45h1M42 45h1M10 46h1M20 46h1M27 46h2M30 46h1M12 47h1M21 47h1M27 47h1M34 47h1M36 47h1M13 48h1M19 48h1M21 48h2M27 48h1M34 48h1M36 48h1M43 48h1M13 49h2M18 49h1M23 49h1M31 49h1M16 50h1M20 50h1M24 50h2M42 50h1M19 51h1M22 51h1M32 51h2M37 51h1M15 52h1M21 52h1M33 52h1M37 52h1M18 53h2M34 53h1M37 53h1M40 53h1M36 54h3" />
<path stroke="#555555" d="M30 2h1M32 2h1M27 3h1M29 3h1M24 4h1M26 4h1M34 4h1M18 5h1M30 6h1M34 6h1M44 6h1M49 6h1M17 7h2M33 7h1M40 7h1M43 7h1M51 7h1M18 8h1M24 8h1M39 8h1M12 9h1M15 9h1M21 9h1M41 9h1M53 9h1M3 10h1M13 10h1M27 10h1M18 11h1M28 11h1M42 11h1M53 11h1M13 12h1M15 12h1M27 12h1M30 12h1M33 12h2M54 12h1M14 13h1M16 13h1M25 13h1M28 13h1M31 13h1M35 13h2M18 14h1M27 14h1M33 14h1M43 14h1M3 15h1M13 15h1M20 15h1M26 15h1M31 15h2M54 15h1M4 16h1M13 16h6M25 16h1M27 16h1M36 16h1M53 16h1M11 17h10M27 17h1M32 17h1M35 17h1M12 18h11M28 18h1M31 18h1M53 18h1M12 19h4M18 19h5M29 19h1M34 19h1M42 19h1M44 19h1M52 19h1M5 20h1M11 20h3M20 20h4M30 20h1M39 20h1M41 20h1M10 21h3M15 21h1M18 21h1M21 21h3M31 21h1M33 21h1M38 21h1M5 22h2M8 22h5M14 22h1M19 22h1M21 22h4M27 22h1M32 22h1M36 22h1M48 22h1M5 23h7M22 23h3M27 23h1M39 23h2M48 23h1M3 24h9M22 24h3M28 24h1M30 24h2M33 24h1M38 24h1M40 24h1M47 24h1M4 25h9M14 25h1M19 25h1M21 25h4M28 25h4M2 26h1M7 26h6M15 26h1M18 26h1M21 26h4M27 26h5M47 26h1M9 27h5M20 27h5M27 27h5M34 27h1M37 27h1M41 27h1M2 28h5M10 28h7M19 28h6M26 28h7M36 28h1M43 28h1M0 29h2M7 29h1M10 29h1M12 29h8M23 29h1M26 29h3M31 29h3M44 29h1M8 30h1M13 30h5M22 30h2M25 30h4M31 30h4M9 31h1M14 31h10M25 31h8M44 31h1M51 31h1M2 32h1M8 32h1M14 32h3M21 32h2M24 32h8M43 32h1M52 32h1M3 33h1M15 33h3M21 33h9M33 33h1M37 33h1M40 33h1M45 33h1M15 34h13M32 34h1M35 34h2M42 34h1M52 34h1M3 35h1M15 35h12M34 35h1M4 36h1M15 36h2M18 36h3M23 36h3M34 36h1M45 36h1M5 37h1M14 37h1M17 37h2M22 37h1M30 37h1M32 37h1M35 37h1M46 37h1M49 37h1M6 38h1M10 38h1M13 38h1M20 38h1M3 39h1M7 39h1M19 39h1M25 39h1M0 40h1M8 40h1M18 40h1M26 40h1M39 40h1M17 41h1M22 41h1M35 41h1M40 41h1M0 42h1M6 42h1M16 42h1M21 42h1M26 42h1M41 42h1M1 43h1M4 43h1M12 43h1M14 43h1M27 43h1M36 43h1M8 44h1M21 44h1M42 44h1M20 45h1M30 45h1M34 46h1M36 46h1M42 46h1M11 47h1M13 47h1M20 47h1M28 47h1M30 47h1M43 47h1M31 48h1M21 49h1M27 49h1M34 49h1M36 49h1M43 49h1M13 50h1M15 50h1M17 50h1M23 50h1M26 50h1M31 50h1M33 50h1M37 50h1M14 51h1M42 51h1M16 52h1M41 52h1M17 53h1M20 53h1M35 54h1M39 54h1" />
<path stroke="#aaaaaa" d="M47 7h3M48 8h4M49 9h4M50 10h3M50 11h3M50 12h4M30 13h1M49 13h5M28 14h3M49 14h5M4 15h1M28 15h3M48 15h6M5 16h1M28 16h4M33 16h3M45 16h8M5 17h2M10 17h1M28 17h4M33 17h2M36 17h1M42 17h11M5 18h2M29 18h2M32 18h3M36 18h1M40 18h13M5 19h3M30 19h1M32 19h2M35 19h7M45 19h6M6 20h2M32 20h2M35 20h4M46 20h4M6 21h3M32 21h1M34 21h3M46 21h3M34 22h1M37 22h2M45 22h3M33 23h1M35 23h3M44 23h4M34 24h3M43 24h4M34 25h4M34 26h5M2 27h6M35 27h2M1 28h1M7 28h2M37 28h3M8 29h2M11 29h1M35 29h5M1 30h7M9 30h1M12 30h1M35 30h6M2 31h7M13 31h1M34 31h7M32 32h1M34 32h7M4 33h2M14 33h1M30 33h1M34 33h3M4 34h1M14 34h1M28 34h1M33 34h2M45 34h4M14 35h1M27 35h1M33 35h1M44 35h7M14 36h1M21 36h2M32 36h2M46 36h4M7 37h3M19 37h3M23 37h2M31 37h1M33 37h2M7 38h3M14 38h6M21 38h1M23 38h2M30 38h3M34 38h2M8 39h1M18 39h1M20 39h2M24 39h1M29 39h5M35 39h1M7 40h1M21 40h1M24 40h2M30 40h5M6 41h2M21 41h1M24 41h2M30 41h5M7 42h1M20 42h1M24 42h2M32 42h3M20 43h1M25 43h2M20 44h1M25 44h2M19 45h1M25 45h2M19 46h1M25 46h2M17 47h3M24 47h3M16 48h3M20 48h1M24 48h3M15 49h3M19 49h2M22 49h1M24 49h3M18 50h2M21 50h2M18 51h1M20 51h2M18 52h3" />
</svg>