<svg xmlns="http://www.w3.org/2000/svg" viewBox="0 -0.5 56 56" shape-rendering="crispEdges">
<metadata>Made with Pixels to Svg https://codepen.io/shshaw/pen/XbxvNj</metadata>
<path stroke="#ffffff" d="M0 0h25M28 0h28M0 1h22M25 1h3M30 1h4M37 1h19M0 2h20M22 2h6M31 2h1M39 2h17M0 3h22M23 3h3M41 3h15M0 4h23M33 4h4M41 4h15M0 5h25M30 5h8M42 5h14M0 6h13M24 6h15M42 6h1M47 6h9M0 7h11M26 7h14M48 7h8M0 8h9M27 8h13M44 8h2M49 8h7M0 9h8M26 9h1M29 9h4M37 9h1M44 9h3M50 9h6M0 10h3M4 10h3M26 10h2M46 10h2M51 10h5M0 11h2M5 11h1M26 11h2M47 11h2M52 11h4M0 12h2M26 12h2M41 12h2M48 12h1M52 12h4M0 13h1M2 13h2M25 13h3M42 13h4M49 13h1M53 13h3M0 14h1M2 14h2M24 14h3M43 14h4M53 14h3M0 15h1M3 15h2M20 15h2M23 15h4M43 15h4M53 15h3M0 16h2M3 16h4M19 16h3M23 16h3M44 16h3M53 16h3M0 17h2M4 17h2M19 17h3M23 17h2M44 17h3M53 17h3M0 18h3M19 18h4M45 18h2M48 18h1M52 18h4M0 19h2M45 19h2M52 19h4M0 20h2M6 20h1M10 20h2M45 20h5M53 20h3M0 21h2M10 21h1M45 21h4M53 21h3M0 22h2M46 22h3M53 22h3M0 23h2M46 23h2M54 23h2M0 24h2M17 24h1M46 24h2M50 24h1M54 24h2M0 25h2M16 25h2M49 25h3M54 25h2M0 26h3M48 26h1M50 26h2M54 26h2M0 27h3M49 27h1M51 27h1M54 27h2M0 28h4M49 28h2M53 28h3M0 29h4M37 29h5M51 29h1M53 29h3M0 30h5M37 30h7M51 30h5M0 31h7M37 31h8M52 31h4M0 32h6M36 32h10M52 32h4M0 33h5M35 33h12M52 33h4M0 34h4M35 34h13M51 34h5M0 35h4M34 35h22M0 36h4M34 36h22M0 37h4M24 37h2M34 37h22M0 38h5M19 38h7M33 38h23M0 39h6M17 39h8M34 39h22M0 40h8M17 40h8M34 40h22M0 41h9M18 41h7M34 41h22M0 42h10M18 42h8M33 42h23M0 43h10M18 43h8M32 43h24M0 44h11M17 44h8M32 44h24M0 45h12M16 45h9M32 45h24M0 46h24M32 46h24M0 47h24M32 47h24M0 48h23M32 48h24M0 49h23M32 49h24M0 50h22M32 50h24M0 51h22M32 51h24M0 52h22M32 52h24M0 53h23M31 53h25M0 54h56M0 55h56" />
<path stroke="#555555" d="M25 0h1M27 0h1M22 1h1M24 1h1M28 1h1M34 1h1M36 1h1M21 2h1M30 2h1M32 2h1M38 2h1M40 3h1M24 4h1M31 4h1M38 4h1M25 5h1M29 5h1M41 5h1M13 6h1M23 6h1M39 6h1M43 6h1M45 6h1M11 7h1M13 7h11M25 7h1M47 7h1M9 8h1M11 8h15M40 8h1M43 8h1M46 8h1M48 8h1M9 9h16M28 9h1M33 9h1M36 9h1M38 9h1M42 9h1M47 9h1M49 9h1M3 10h1M8 10h17M30 10h1M32 10h5M44 10h1M48 10h1M50 10h1M4 11h1M7 11h18M33 11h2M38 11h1M46 11h1M49 11h1M51 11h1M2 12h1M6 12h20M30 12h2M33 12h1M40 12h1M44 12h1M47 12h1M1 13h1M4 13h20M30 13h3M41 13h1M46 13h1M48 13h1M50 13h1M52 13h1M6 14h1M9 14h1M12 14h1M17 14h2M22 14h1M30 14h3M49 14h1M1 15h1M13 15h1M17 15h3M22 15h1M28 15h1M30 15h4M42 15h1M47 15h1M2 16h1M12 16h1M29 16h5M35 16h1M48 16h1M50 16h1M8 17h1M22 17h1M27 17h1M29 17h5M43 17h1M52 17h1M3 18h1M7 18h1M26 18h1M28 18h6M43 18h2M49 18h1M51 18h1M2 19h2M18 19h1M25 19h1M27 19h7M43 19h1M47 19h1M3 20h2M17 20h2M22 20h2M26 20h7M43 20h1M52 20h1M3 21h3M16 21h4M21 21h3M25 21h8M34 21h1M43 21h2M49 21h1M3 22h5M15 22h2M19 22h2M26 22h6M35 22h1M42 22h4M52 22h1M3 23h6M15 23h1M19 23h2M26 23h5M43 23h2M48 23h1M53 23h1M3 24h5M14 24h1M19 24h2M25 24h5M41 24h1M43 24h3M2 25h6M18 25h2M25 25h4M34 25h1M42 25h6M4 26h6M14 26h1M17 26h3M25 26h4M34 26h1M40 26h1M42 26h5M4 27h5M14 27h5M24 27h4M34 27h2M38 27h1M42 27h7M53 27h1M5 28h4M14 28h5M24 28h4M34 28h3M41 28h6M4 29h4M9 29h5M15 29h2M18 29h1M23 29h5M33 29h3M42 29h1M45 29h1M50 29h1M52 29h1M5 30h1M7 30h1M10 30h3M14 30h1M16 30h1M21 30h6M33 30h1M44 30h1M10 31h3M14 31h1M17 31h1M19 31h7M32 31h2M36 31h1M51 31h1M6 32h1M10 32h4M17 32h1M19 32h7M32 32h2M35 32h1M46 32h1M5 33h1M9 33h1M14 33h2M18 33h6M31 33h3M47 33h1M51 33h1M4 34h1M11 34h12M29 34h6M50 34h1M10 35h1M12 35h8M27 35h1M31 35h2M12 36h7M26 36h1M32 36h1M4 37h1M12 37h4M23 37h1M30 37h4M8 38h3M12 38h3M18 38h1M27 38h5M6 39h1M8 39h4M13 39h1M16 39h1M26 39h7M11 40h2M26 40h7M12 41h1M17 41h1M25 41h7M33 41h1M11 42h1M27 42h5M10 43h1M17 43h1M29 43h2M11 44h1M16 44h1M25 44h1M12 45h1M15 45h1M24 46h1M30 46h1M29 47h2M28 48h3M24 49h3M23 50h3M23 51h2M22 52h1M31 52h1M23 53h1M30 53h1" />
<path stroke="#000000" d="M26 0h1M23 1h1M29 1h1M35 1h1M20 2h1M33 2h5M22 3h1M31 3h9M23 4h1M30 4h1M39 4h2M26 5h3M39 5h2M14 6h9M40 6h2M44 6h1M12 7h1M24 7h1M40 7h7M10 8h1M26 8h1M41 8h2M47 8h1M8 9h1M25 9h1M27 9h1M34 9h2M39 9h3M48 9h1M7 10h1M25 10h1M28 10h2M31 10h1M37 10h7M49 10h1M2 11h1M6 11h1M25 11h1M29 11h4M39 11h7M50 11h1M4 12h2M29 12h1M32 12h1M45 12h2M50 12h2M24 13h1M29 13h1M33 13h1M47 13h1M51 13h1M1 14h1M5 14h1M7 14h2M10 14h2M13 14h4M19 14h3M23 14h1M29 14h1M33 14h1M42 14h1M47 14h2M52 14h1M6 15h1M9 15h1M12 15h1M29 15h1M34 15h1M48 15h2M52 15h1M8 16h1M18 16h1M22 16h1M28 16h1M34 16h1M43 16h1M47 16h1M49 16h1M52 16h1M2 17h1M11 17h1M18 17h1M28 17h1M34 17h2M47 17h1M49 17h2M5 18h1M18 18h1M27 18h1M34 18h2M47 18h1M50 18h1M4 19h2M7 19h1M10 19h2M26 19h1M34 19h2M44 19h1M48 19h4M2 20h1M5 20h1M7 20h1M9 20h1M12 20h1M19 20h1M24 20h2M33 20h3M44 20h1M50 20h2M2 21h1M6 21h2M9 21h1M12 21h1M20 21h1M24 21h1M33 21h1M35 21h1M50 21h1M52 21h1M2 22h1M10 22h2M17 22h2M21 22h5M32 22h3M49 22h1M2 23h1M16 23h1M18 23h1M21 23h5M31 23h4M42 23h1M45 23h1M2 24h1M8 24h1M15 24h2M18 24h1M21 24h4M30 24h5M42 24h1M48 24h1M53 24h1M8 25h1M14 25h1M20 25h5M29 25h5M41 25h1M48 25h1M53 25h1M3 26h1M15 26h2M20 26h5M29 26h5M41 26h1M47 26h1M49 26h1M53 26h1M3 27h1M9 27h1M19 27h5M28 27h6M39 27h3M50 27h1M4 28h1M9 28h5M19 28h5M28 28h6M37 28h4M48 28h1M51 28h2M8 29h1M14 29h1M17 29h1M19 29h4M28 29h5M36 29h1M43 29h2M49 29h1M6 30h1M8 30h2M13 30h1M15 30h1M17 30h4M27 30h6M34 30h3M49 30h2M7 31h3M13 31h1M15 31h2M18 31h1M26 31h6M34 31h2M45 31h1M48 31h3M7 32h3M14 32h2M18 32h1M26 32h6M34 32h1M47 32h5M10 33h4M16 33h2M24 33h7M34 33h1M48 33h3M10 34h1M23 34h6M48 34h2M4 35h1M11 35h1M20 35h7M33 35h1M4 36h1M11 36h1M19 36h7M33 36h1M11 37h1M16 37h7M26 37h1M5 38h1M11 38h1M15 38h3M26 38h1M32 38h1M7 39h1M12 39h1M14 39h2M25 39h1M33 39h1M8 40h1M13 40h4M25 40h1M33 40h1M9 41h1M13 41h4M32 41h1M10 42h1M12 42h6M26 42h1M32 42h1M11 43h6M26 43h1M31 43h1M12 44h4M31 44h1M13 45h2M25 45h1M31 45h1M31 46h1M24 47h1M31 47h1M23 48h5M31 48h1M23 49h1M27 49h5M22 50h1M26 50h6M22 51h1M25 51h7M23 52h8M24 53h6" />
<path stroke="#aaaaaa" d="M28 2h2M26 3h5M25 4h5M32 4h1M37 4h1M38 5h1M46 6h1M43 9h1M45 10h1M3 11h1M28 11h1M35 11h3M3 12h1M28 12h1M34 12h6M43 12h1M49 12h1M28 13h1M34 13h7M4 14h1M27 14h2M34 14h8M50 14h2M2 15h1M5 15h1M7 15h2M10 15h2M14 15h3M27 15h1M35 15h7M50 15h2M7 16h1M9 16h3M13 16h5M26 16h2M36 16h7M51 16h1M3 17h1M6 17h2M9 17h2M12 17h6M25 17h2M36 17h7M48 17h1M51 17h1M4 18h1M6 18h1M8 18h10M23 18h3M36 18h7M6 19h1M8 19h2M12 19h6M19 19h6M36 19h7M8 20h1M13 20h4M20 20h2M36 20h7M8 21h1M11 21h1M13 21h3M36 21h7M51 21h1M8 22h2M12 22h3M36 22h6M50 22h2M9 23h6M17 23h1M35 23h7M49 23h4M9 24h5M35 24h6M49 24h1M51 24h2M9 25h5M15 25h1M35 25h6M52 25h1M10 26h4M35 26h5M52 26h1M10 27h4M36 27h2M52 27h1M47 28h1M46 29h3M45 30h4M46 31h2M16 32h1M6 33h3M5 34h5M5 35h5M28 35h3M5 36h6M27 36h5M5 37h6M27 37h3M6 38h2M9 40h2M10 41h2M27 43h2M26 44h5M26 45h5M25 46h5M25 47h4" />
</svg>