<svg xmlns="http://www.w3.org/2000/svg" viewBox="0 -0.5 56 56" shape-rendering="crispEdges">
<metadata>Made with Pixels to Svg https://codepen.io/shshaw/pen/XbxvNj</metadata>
<path stroke="#ffffff" d="M0 0h56M0 1h48M51 1h5M0 2h8M14 2h32M52 2h4M0 3h6M13 3h32M55 3h1M0 4h5M13 4h28M43 4h1M54 4h2M0 5h5M13 5h8M22 5h18M53 5h3M0 6h4M13 6h7M23 6h17M52 6h4M0 7h4M12 7h8M23 7h16M52 7h4M0 8h2M12 8h4M18 8h1M24 8h15M51 8h5M0 9h1M11 9h4M24 9h15M50 9h1M55 9h1M0 10h1M13 10h2M24 10h14M12 11h2M24 11h14M12 12h1M24 12h11M55 12h1M11 13h1M24 13h9M55 13h1M24 14h8M53 14h3M10 15h1M24 15h7M53 15h3M23 16h8M51 16h2M54 16h2M0 17h1M21 17h10M55 17h1M0 18h2M17 18h12M54 18h2M0 19h2M17 19h11M54 19h2M0 20h2M18 20h8M53 20h3M0 21h3M17 21h8M52 21h4M0 22h4M17 22h7M51 22h5M0 23h4M17 23h6M48 23h8M0 24h5M18 24h5M47 24h9M0 25h5M14 25h1M19 25h2M46 25h10M0 26h6M13 26h2M50 26h6M0 27h6M48 27h8M0 28h6M46 28h10M0 29h5M45 29h11M0 30h4M12 30h1M44 30h12M0 31h4M10 31h3M39 31h17M0 32h3M9 32h5M35 32h21M0 33h2M8 33h6M33 33h23M0 34h2M7 34h8M33 34h23M0 35h1M6 35h9M33 35h23M4 36h12M35 36h2M43 36h13M3 37h14M44 37h12M0 38h17M45 38h11M0 39h17M45 39h11M0 40h18M45 40h11M0 41h19M27 41h2M46 41h10M0 42h21M26 42h3M47 42h9M0 43h23M27 43h3M49 43h1M54 43h2M0 44h24M28 44h3M54 44h2M0 45h25M29 45h5M55 45h1M0 46h26M31 46h4M55 46h1M0 47h26M33 47h2M55 47h1M0 48h26M34 48h1M55 48h1M0 49h26M30 49h2M34 49h2M51 49h2M54 49h2M0 50h26M32 50h4M50 50h6M0 51h26M33 51h4M44 51h1M50 51h6M0 52h27M33 52h5M44 52h2M49 52h7M0 53h27M33 53h6M43 53h13M0 54h28M33 54h23M0 55h30M32 55h24" />
<path stroke="#aaaaaa" d="M48 1h3M11 2h3M46 2h1M51 2h1M12 3h1M52 3h3M6 4h2M12 4h1M53 4h1M6 5h1M12 5h1M41 5h2M48 5h2M52 5h1M12 6h1M20 6h1M41 6h2M44 6h7M40 7h3M44 7h7M4 8h1M8 8h1M11 8h1M19 8h1M23 8h1M40 8h4M45 8h5M2 9h1M4 9h1M6 9h4M23 9h1M40 9h4M45 9h4M51 9h1M53 9h2M2 10h1M4 10h5M10 10h3M39 10h5M45 10h5M54 10h2M1 11h3M5 11h4M14 11h1M22 11h1M39 11h5M45 11h4M55 11h1M1 12h4M6 12h2M11 12h1M13 12h1M19 12h4M38 12h6M45 12h3M1 13h5M10 13h1M18 13h5M35 13h8M44 13h3M54 13h1M1 14h5M10 14h1M18 14h5M33 14h9M43 14h3M1 15h5M7 15h2M17 15h6M32 15h10M43 15h2M50 15h1M1 16h6M13 16h7M32 16h10M46 16h3M53 16h1M2 17h5M12 17h5M32 17h8M45 17h3M49 17h6M3 18h4M12 18h4M31 18h10M44 18h10M3 19h4M12 19h4M29 19h13M43 19h4M53 19h1M3 20h4M10 20h7M28 20h13M42 20h1M44 20h3M52 20h1M4 21h3M10 21h3M26 21h13M41 21h1M9 22h1M13 22h3M26 22h12M39 22h5M50 22h1M8 23h8M26 23h10M38 23h2M47 23h1M8 24h5M15 24h2M26 24h9M36 24h4M46 24h1M8 25h4M13 25h1M15 25h2M26 25h9M36 25h4M45 25h1M9 26h2M15 26h2M26 26h8M35 26h1M44 26h1M46 26h4M7 27h1M10 27h2M14 27h4M19 27h1M25 27h8M46 27h2M7 28h2M12 28h8M24 28h9M45 28h1M6 29h3M16 29h3M23 29h10M34 29h3M43 29h2M5 30h3M16 30h4M21 30h9M33 30h5M40 30h4M5 31h2M15 31h1M17 31h12M30 31h5M38 31h1M4 32h2M15 32h10M27 32h2M30 32h3M3 33h2M15 33h12M3 34h1M16 34h12M2 35h1M16 35h8M25 35h4M1 36h1M17 36h7M25 36h4M37 36h1M42 36h1M18 37h6M25 37h4M35 37h1M43 37h1M19 38h5M26 38h4M44 38h1M18 39h1M21 39h2M29 39h1M36 39h2M41 39h2M19 40h2M34 40h5M41 40h2M35 41h8M36 42h9M37 43h8M48 43h1M50 43h1M53 43h1M38 44h8M40 45h5M54 45h1M42 46h2M43 47h1M43 48h5M54 48h1M42 49h6M43 50h1M45 50h3M46 51h3" />
<path stroke="#555555" d="M8 2h1M10 2h1M47 2h1M50 2h1M7 3h5M46 3h6M5 4h1M8 4h4M41 4h1M45 4h8M7 5h5M21 5h1M40 5h1M43 5h5M50 5h2M5 6h7M22 6h1M4 7h8M20 7h3M39 7h1M43 7h1M51 7h1M3 8h1M5 8h3M9 8h2M17 8h1M21 8h2M44 8h1M50 8h1M5 9h1M10 9h1M15 9h3M20 9h3M39 9h1M49 9h1M52 9h1M3 10h1M9 10h1M16 10h7M38 10h1M50 10h4M0 11h1M10 11h2M16 11h6M49 11h6M9 12h2M14 12h5M35 12h1M37 12h1M44 12h1M48 12h7M6 13h4M12 13h1M14 13h4M33 13h1M47 13h6M7 14h3M12 14h6M42 14h1M46 14h6M6 15h1M11 15h6M23 15h1M31 15h1M45 15h5M52 15h1M0 16h1M7 16h1M10 16h3M20 16h1M22 16h1M42 16h4M50 16h1M7 17h1M9 17h3M17 17h1M20 17h1M31 17h1M42 17h3M2 18h1M7 18h1M9 18h3M16 18h1M30 18h1M42 18h2M7 19h5M47 19h6M2 20h1M7 20h3M27 20h1M43 20h1M47 20h5M7 21h2M13 21h1M39 21h1M42 21h10M5 22h4M12 22h1M16 22h1M25 22h1M38 22h1M44 22h6M4 23h4M24 23h2M40 23h7M5 24h2M13 24h1M23 24h3M35 24h1M40 24h6M6 25h1M12 25h1M21 25h1M23 25h3M40 25h5M7 26h1M11 26h1M17 26h2M20 26h1M22 26h4M34 26h1M36 26h8M45 26h1M8 27h2M12 27h1M18 27h1M21 27h4M33 27h1M35 27h11M6 28h1M9 28h1M11 28h1M21 28h3M33 28h12M9 29h2M15 29h1M20 29h3M37 29h6M4 30h1M8 30h2M11 30h1M14 30h1M20 30h1M30 30h1M32 30h1M38 30h2M7 31h2M13 31h2M16 31h1M29 31h1M35 31h1M37 31h1M6 32h2M14 32h1M25 32h1M34 32h1M2 33h1M5 33h2M27 33h1M32 33h1M4 34h2M28 34h4M3 35h2M15 35h1M24 35h1M29 35h4M0 36h1M2 36h1M29 36h5M38 36h4M2 37h1M17 37h1M24 37h1M29 37h4M34 37h1M36 37h7M18 38h1M24 38h1M30 38h14M17 39h1M20 39h1M23 39h4M28 39h1M30 39h2M33 39h3M38 39h3M43 39h2M22 40h6M39 40h2M43 40h2M20 41h2M26 41h1M30 41h1M32 41h2M43 41h3M21 42h1M24 42h1M29 42h3M33 42h2M45 42h2M24 43h2M30 43h3M34 43h2M45 43h3M51 43h2M25 44h2M31 44h1M34 44h3M46 44h8M26 45h2M35 45h3M39 45h1M45 45h9M27 46h2M30 46h1M36 46h3M41 46h1M44 46h11M27 47h3M32 47h1M36 47h2M39 47h1M41 47h2M44 47h11M27 48h2M30 48h1M35 48h3M39 48h2M48 48h3M52 48h2M27 49h2M33 49h1M37 49h2M40 49h1M48 49h2M27 50h3M36 50h3M48 50h1M26 51h2M29 51h2M32 51h1M38 51h2M43 51h1M49 51h1M28 52h1M30 52h2M39 52h2M42 52h1M46 52h1M48 52h1M27 53h3M31 53h1M40 53h1M42 53h1M28 54h1M32 54h1M31 55h1" />
<path stroke="#000000" d="M9 2h1M48 2h2M6 3h1M45 3h1M42 4h1M44 4h1M5 5h1M4 6h1M21 6h1M40 6h1M43 6h1M51 6h1M2 8h1M16 8h1M20 8h1M39 8h1M1 9h1M3 9h1M18 9h2M44 9h1M1 10h1M15 10h1M23 10h1M44 10h1M4 11h1M9 11h1M15 11h1M23 11h1M38 11h1M44 11h1M0 12h1M5 12h1M8 12h1M23 12h1M36 12h1M0 13h1M13 13h1M23 13h1M34 13h1M43 13h1M53 13h1M0 14h1M6 14h1M11 14h1M23 14h1M32 14h1M52 14h1M0 15h1M9 15h1M42 15h1M51 15h1M8 16h2M21 16h1M31 16h1M49 16h1M1 17h1M8 17h1M18 17h2M40 17h2M48 17h1M8 18h1M29 18h1M41 18h1M2 19h1M16 19h1M28 19h1M42 19h1M17 20h1M26 20h1M41 20h1M3 21h1M9 21h1M14 21h3M25 21h1M40 21h1M4 22h1M10 22h2M24 22h1M16 23h1M23 23h1M36 23h2M7 24h1M14 24h1M17 24h1M5 25h1M7 25h1M17 25h2M22 25h1M35 25h1M6 26h1M8 26h1M12 26h1M19 26h1M21 26h1M6 27h1M13 27h1M20 27h1M34 27h1M10 28h1M20 28h1M5 29h1M11 29h4M19 29h1M33 29h1M10 30h1M13 30h1M15 30h1M31 30h1M4 31h1M9 31h1M36 31h1M3 32h1M8 32h1M26 32h1M29 32h1M33 32h1M7 33h1M14 33h1M28 33h4M2 34h1M6 34h1M15 34h1M32 34h1M1 35h1M5 35h1M3 36h1M16 36h1M24 36h1M34 36h1M0 37h2M33 37h1M17 38h1M25 38h1M19 39h1M27 39h1M32 39h1M18 40h1M21 40h1M28 40h6M19 41h1M22 41h4M29 41h1M31 41h1M34 41h1M22 42h2M25 42h1M32 42h1M35 42h1M23 43h1M26 43h1M33 43h1M36 43h1M24 44h1M27 44h1M32 44h2M37 44h1M25 45h1M28 45h1M34 45h1M38 45h1M26 46h1M29 46h1M35 46h1M39 46h2M26 47h1M30 47h2M35 47h1M38 47h1M40 47h1M26 48h1M29 48h1M31 48h3M38 48h1M41 48h2M51 48h1M26 49h1M29 49h1M32 49h1M36 49h1M39 49h1M41 49h1M50 49h1M53 49h1M26 50h1M30 50h2M39 50h4M44 50h1M49 50h1M28 51h1M31 51h1M37 51h1M40 51h3M45 51h1M27 52h1M29 52h1M32 52h1M38 52h1M41 52h1M43 52h1M47 52h1M30 53h1M32 53h1M39 53h1M41 53h1M29 54h3M30 55h1" />
</svg>