<svg xmlns="http://www.w3.org/2000/svg" viewBox="0 -0.5 56 56" shape-rendering="crispEdges">
<metadata>Made with Pixels to Svg https://codepen.io/shshaw/pen/XbxvNj</metadata>
<path stroke="#ffffff" d="M0 0h23M25 0h31M0 1h23M26 1h30M0 2h17M28 2h3M38 2h18M0 3h15M17 3h7M35 3h3M40 3h16M0 4h13M15 4h12M34 4h6M41 4h15M0 5h12M13 5h11M26 5h2M34 5h7M42 5h14M0 6h11M12 6h3M16 6h6M26 6h2M30 6h1M33 6h9M43 6h13M0 7h10M11 7h2M15 7h5M22 7h1M26 7h2M30 7h2M33 7h10M44 7h12M0 8h7M10 8h1M14 8h4M21 8h1M26 8h1M29 8h3M33 8h11M45 8h11M0 9h3M13 9h4M21 9h1M29 9h2M36 9h8M45 9h11M0 10h4M13 10h3M21 10h1M28 10h2M34 10h1M36 10h9M46 10h10M0 11h5M12 11h3M20 11h2M27 11h2M35 11h10M46 11h10M0 12h7M10 12h4M19 12h9M35 12h11M48 12h8M0 13h6M9 13h3M15 13h1M18 13h10M35 13h11M50 13h6M0 14h6M8 14h3M14 14h1M17 14h5M25 14h4M36 14h10M52 14h4M0 15h5M7 15h2M12 15h1M17 15h5M25 15h4M36 15h10M48 15h4M53 15h3M0 16h4M7 16h1M10 16h2M16 16h4M21 16h1M23 16h1M26 16h4M34 16h2M37 16h9M47 16h5M53 16h3M0 17h4M9 17h2M14 17h6M22 17h1M26 17h4M34 17h2M37 17h8M47 17h6M54 17h2M0 18h3M8 18h2M13 18h6M23 18h7M33 18h3M37 18h8M47 18h6M54 18h2M0 19h3M7 19h2M12 19h7M24 19h6M33 19h3M39 19h6M46 19h8M55 19h1M0 20h3M6 20h2M12 20h8M25 20h6M34 20h2M40 20h5M46 20h8M55 20h1M0 21h3M5 21h3M12 21h2M15 21h5M26 21h5M35 21h1M41 21h4M46 21h8M55 21h1M0 22h3M4 22h3M11 22h2M14 22h8M29 22h1M35 22h1M41 22h3M47 22h7M55 22h1M0 23h3M4 23h3M11 23h1M14 23h9M42 23h2M47 23h7M55 23h1M0 24h7M13 24h11M42 24h1M48 24h6M55 24h1M0 25h7M13 25h8M22 25h2M48 25h5M54 25h2M0 26h8M12 26h10M23 26h1M48 26h5M54 26h2M0 27h8M12 27h10M47 27h5M53 27h3M0 28h8M12 28h10M26 28h4M47 28h4M52 28h4M0 29h8M13 29h6M20 29h2M25 29h9M47 29h3M51 29h5M0 30h7M14 30h4M20 30h1M23 30h12M46 30h2M52 30h4M0 31h7M14 31h3M22 31h14M45 31h2M53 31h3M0 32h7M15 32h1M21 32h16M47 32h4M54 32h2M0 33h7M19 33h18M47 33h5M54 33h2M0 34h7M16 34h22M48 34h6M55 34h1M0 35h7M16 35h3M22 35h16M48 35h6M55 35h1M0 36h8M14 36h5M24 36h2M29 36h9M48 36h6M55 36h1M0 37h8M14 37h4M30 37h9M48 37h6M55 37h1M0 38h8M13 38h5M31 38h8M47 38h6M54 38h2M0 39h8M13 39h4M33 39h7M47 39h5M53 39h3M0 40h8M13 40h4M18 40h3M33 40h8M45 40h6M52 40h4M0 41h8M12 41h4M18 41h2M38 41h4M45 41h4M51 41h5M0 42h9M12 42h4M17 42h2M40 42h3M51 42h5M0 43h9M11 43h4M17 43h1M41 43h3M47 43h2M52 43h4M0 44h8M11 44h3M37 44h1M41 44h3M47 44h3M52 44h4M0 45h8M10 45h3M18 45h2M30 45h1M37 45h1M41 45h3M46 45h5M52 45h4M0 46h7M10 46h2M18 46h3M30 46h1M36 46h2M39 46h1M41 46h3M45 46h6M52 46h4M0 47h6M9 47h3M19 47h2M29 47h3M33 47h5M39 47h1M41 47h3M45 47h5M51 47h5M0 48h5M8 48h3M12 48h1M19 48h1M29 48h3M33 48h4M38 48h2M42 48h3M46 48h4M51 48h5M0 49h3M8 49h2M11 49h3M25 49h1M28 49h3M32 49h5M38 49h2M42 49h3M47 49h2M50 49h6M0 50h2M8 50h1M10 50h3M18 50h2M23 50h2M27 50h4M32 50h4M37 50h3M43 50h3M49 50h7M0 51h1M10 51h2M17 51h8M26 51h4M32 51h2M36 51h4M43 51h3M48 51h8M0 52h1M9 52h4M16 52h8M25 52h1M27 52h1M34 52h5M43 52h1M45 52h1M47 52h9M0 53h1M8 53h7M24 53h1M34 53h3M44 53h2M47 53h9M0 54h2M7 54h16M29 54h3M37 54h3M47 54h9M0 55h41M46 55h10" />
<path stroke="#555555" d="M23 0h1M17 2h1M23 2h1M25 2h1M27 2h1M31 2h1M37 2h1M16 3h1M24 3h1M27 3h1M30 3h1M38 3h1M14 4h1M28 4h1M25 5h1M31 5h1M22 6h1M24 6h1M29 6h1M32 6h1M21 7h1M7 8h1M9 8h1M20 8h1M23 8h2M44 8h1M3 9h1M6 9h1M12 9h1M23 9h2M32 9h1M35 9h1M11 10h1M22 10h2M25 10h1M32 10h1M45 10h1M5 11h1M10 11h1M31 11h1M33 11h1M8 12h1M15 12h2M29 12h1M32 12h2M46 12h1M7 13h1M34 13h1M48 13h1M6 14h1M12 14h1M22 14h1M24 14h1M32 14h1M35 14h1M50 14h1M10 15h1M14 15h1M5 16h1M24 16h1M31 16h1M36 16h1M52 16h1M4 17h1M25 17h1M30 17h1M46 17h1M3 18h1M30 18h1M45 18h1M9 19h1M23 19h1M54 19h1M24 20h1M31 20h1M4 21h1M8 21h1M23 21h1M31 21h1M45 21h1M7 22h1M25 22h1M28 22h1M36 22h1M3 23h1M28 23h1M35 23h1M25 24h1M29 24h1M54 24h1M7 25h1M10 25h1M24 25h1M35 25h1M26 26h1M31 26h1M34 26h1M53 26h1M29 27h1M23 28h1M30 28h1M34 28h2M8 29h1M23 29h1M35 29h2M7 30h2M37 30h1M48 30h1M8 31h1M12 31h2M8 32h1M18 32h1M20 32h1M37 32h2M44 32h1M46 32h1M8 33h1M12 33h1M14 33h1M17 33h1M39 33h1M43 33h1M53 33h1M8 34h2M11 34h1M54 34h1M7 35h4M14 35h1M8 36h2M19 36h1M26 36h1M38 36h1M54 37h1M19 38h2M27 38h1M39 38h1M11 39h1M18 39h3M27 39h3M17 40h1M21 40h1M26 40h5M32 40h1M42 40h1M8 41h1M10 41h1M26 41h5M34 41h1M44 41h1M49 41h1M16 42h1M25 42h1M27 42h4M45 42h1M48 42h1M9 43h1M24 43h1M26 43h4M36 43h1M44 43h1M51 43h1M15 44h1M18 44h1M27 44h2M31 44h1M8 45h1M14 45h4M23 45h1M28 45h1M32 45h1M40 45h1M13 46h3M51 46h1M13 47h2M18 47h1M21 47h1M27 47h1M38 47h1M44 47h1M50 47h1M13 48h1M20 48h1M32 48h1M37 48h1M45 48h1M4 49h1M14 49h1M19 49h1M26 49h1M46 49h1M49 49h1M2 50h1M13 50h1M17 50h1M25 50h1M31 50h1M48 50h1M1 51h1M6 51h1M9 51h1M12 51h1M15 51h1M34 51h1M40 51h1M47 51h1M2 52h1M5 52h1M13 52h1M26 52h1M33 52h1M1 53h1M15 53h1M23 53h1M25 53h1M29 53h1M37 53h1M43 53h1M2 54h1M6 54h1M23 54h1M28 54h1M32 54h1M36 54h1M46 54h1M41 55h1M45 55h1" />
<path stroke="#000000" d="M24 0h1M23 1h3M18 2h5M26 2h1M32 2h5M15 3h1M28 3h2M39 3h1M13 4h1M30 4h1M40 4h1M12 5h1M24 5h1M29 5h1M41 5h1M11 6h1M23 6h1M25 6h1M42 6h1M10 7h1M24 7h2M32 7h1M43 7h1M8 8h1M25 8h1M32 8h1M4 9h2M20 9h1M22 9h1M25 9h1M33 9h2M44 9h1M4 10h1M10 10h1M19 10h1M35 10h1M6 11h4M18 11h1M24 11h1M34 11h1M45 11h1M7 12h1M17 12h1M30 12h1M34 12h1M47 12h1M6 13h1M14 13h1M16 13h1M30 13h1M32 13h1M46 13h1M49 13h1M13 14h1M15 14h1M23 14h1M30 14h2M46 14h1M51 14h1M5 15h1M11 15h1M13 15h1M23 15h2M30 15h2M35 15h1M46 15h1M52 15h1M4 16h1M9 16h1M12 16h1M30 16h1M46 16h1M8 17h1M11 17h1M20 17h1M24 17h1M36 17h1M53 17h1M7 18h1M10 18h1M21 18h1M36 18h1M53 18h1M3 19h1M6 19h1M22 19h1M36 19h1M45 19h1M3 20h1M5 20h1M8 20h1M23 20h1M36 20h1M45 20h1M54 20h1M3 21h1M25 21h1M36 21h1M54 21h1M3 22h1M24 22h1M26 22h2M30 22h2M44 22h1M54 22h1M7 23h1M24 23h1M29 23h3M44 23h1M54 23h1M7 24h1M11 24h1M35 24h1M43 24h1M25 25h1M30 25h1M42 25h1M53 25h1M8 26h1M10 26h1M24 26h1M27 26h1M41 26h1M8 27h2M24 27h1M28 27h1M31 27h1M34 27h1M40 27h1M52 27h1M8 28h2M31 28h3M39 28h1M51 28h1M10 29h1M38 29h1M50 29h1M10 30h2M22 30h1M36 30h1M49 30h1M51 30h1M7 31h1M11 31h1M21 31h1M37 31h1M47 31h1M52 31h1M7 32h1M9 32h1M13 32h1M19 32h1M45 32h1M53 32h1M7 33h1M9 33h1M16 33h1M38 33h1M40 33h3M7 34h1M10 34h1M14 34h2M38 34h1M11 35h1M38 35h1M54 35h1M11 36h1M54 36h1M8 37h1M11 37h1M19 37h1M27 37h1M39 37h1M8 38h1M11 38h1M18 38h1M28 38h1M53 38h1M8 39h1M21 39h6M30 39h1M40 39h1M52 39h1M8 40h1M10 40h1M25 40h1M31 40h1M41 40h1M51 40h1M17 41h1M20 41h1M25 41h1M31 41h3M42 41h2M50 41h1M9 42h1M19 42h1M26 42h1M31 42h1M35 42h2M43 42h1M46 42h2M50 42h1M15 43h2M18 43h1M31 43h1M37 43h2M8 44h1M14 44h1M16 44h2M24 44h1M38 44h2M44 44h1M51 44h1M13 45h1M27 45h1M38 45h1M44 45h1M51 45h1M7 46h1M12 46h1M17 46h1M23 46h1M27 46h1M32 46h1M38 46h1M40 46h1M44 46h1M6 47h1M12 47h1M16 47h2M22 47h1M32 47h1M40 47h1M5 48h1M11 48h1M18 48h1M26 48h1M40 48h1M50 48h1M3 49h1M10 49h1M15 49h4M31 49h1M37 49h1M40 49h1M45 49h1M9 50h1M14 50h1M36 50h1M40 50h1M46 50h2M3 51h1M8 51h1M13 51h1M16 51h1M25 51h1M30 51h1M35 51h1M46 51h1M1 52h1M8 52h1M14 52h1M24 52h1M30 52h3M39 52h1M41 52h1M44 52h1M46 52h1M2 53h1M5 53h1M7 53h1M16 53h7M30 53h2M38 53h3M46 53h1M3 54h3M24 54h4M33 54h3M40 54h1M43 54h1M42 55h3" />
<path stroke="#aaaaaa" d="M24 2h1M25 3h2M31 3h4M27 4h1M29 4h1M31 4h3M28 5h1M30 5h1M32 5h2M15 6h1M28 6h1M31 6h1M13 7h2M20 7h1M23 7h1M28 7h2M11 8h3M18 8h2M22 8h1M27 8h2M7 9h5M17 9h3M26 9h3M31 9h1M5 10h5M12 10h1M16 10h3M20 10h1M24 10h1M26 10h2M30 10h2M33 10h1M11 11h1M15 11h3M19 11h1M22 11h2M25 11h2M29 11h2M32 11h1M9 12h1M14 12h1M18 12h1M28 12h1M31 12h1M8 13h1M12 13h2M17 13h1M28 13h2M31 13h1M33 13h1M47 13h1M7 14h1M11 14h1M16 14h1M29 14h1M33 14h2M47 14h3M6 15h1M9 15h1M15 15h2M22 15h1M29 15h1M32 15h3M47 15h1M6 16h1M8 16h1M13 16h3M20 16h1M22 16h1M25 16h1M32 16h2M5 17h3M12 17h2M21 17h1M23 17h1M31 17h3M45 17h1M4 18h3M11 18h2M19 18h2M22 18h1M31 18h2M46 18h1M4 19h2M10 19h2M19 19h3M30 19h3M37 19h2M4 20h1M9 20h3M20 20h3M32 20h2M37 20h3M9 21h3M14 21h1M20 21h3M24 21h1M32 21h3M37 21h4M8 22h3M13 22h1M22 22h2M32 22h3M37 22h4M45 22h2M8 23h3M12 23h2M23 23h1M25 23h3M32 23h3M36 23h6M45 23h2M8 24h3M12 24h1M24 24h1M26 24h3M30 24h5M36 24h6M44 24h4M8 25h2M11 25h2M21 25h1M26 25h4M31 25h4M36 25h6M43 25h5M9 26h1M11 26h1M22 26h1M25 26h1M28 26h3M32 26h2M35 26h6M42 26h6M10 27h2M22 27h2M25 27h3M30 27h1M32 27h2M35 27h5M41 27h6M10 28h2M22 28h1M24 28h2M36 28h3M40 28h7M9 29h1M11 29h2M19 29h1M22 29h1M24 29h1M34 29h1M37 29h1M39 29h8M9 30h1M12 30h2M18 30h2M21 30h1M35 30h1M38 30h8M50 30h1M9 31h2M17 31h4M36 31h1M38 31h7M48 31h4M10 32h3M14 32h1M16 32h2M39 32h5M51 32h2M10 33h2M13 33h1M15 33h1M18 33h1M37 33h1M44 33h3M52 33h1M12 34h2M39 34h9M12 35h2M15 35h1M19 35h3M39 35h9M10 36h1M12 36h2M20 36h4M27 36h2M39 36h9M9 37h2M12 37h2M18 37h1M20 37h7M28 37h2M40 37h8M9 38h2M12 38h1M21 38h6M29 38h2M40 38h7M9 39h2M12 39h1M17 39h1M31 39h2M41 39h6M9 40h1M11 40h2M22 40h3M43 40h2M9 41h1M11 41h1M16 41h1M21 41h4M35 41h3M10 42h2M20 42h5M32 42h3M37 42h3M44 42h1M49 42h1M10 43h1M19 43h5M25 43h1M30 43h1M32 43h4M39 43h2M45 43h2M49 43h2M9 44h2M19 44h5M25 44h2M29 44h2M32 44h5M40 44h1M45 44h2M50 44h1M9 45h1M20 45h3M24 45h3M29 45h1M31 45h1M33 45h4M39 45h1M45 45h1M8 46h2M16 46h1M21 46h2M24 46h3M28 46h2M31 46h1M33 46h3M7 47h2M15 47h1M23 47h4M28 47h1M6 48h2M14 48h4M21 48h5M27 48h2M41 48h1M5 49h3M20 49h5M27 49h1M41 49h1M3 50h5M15 50h2M20 50h3M26 50h1M41 50h2M2 51h1M4 51h2M7 51h1M14 51h1M31 51h1M41 51h2M3 52h2M6 52h2M15 52h1M28 52h2M40 52h1M42 52h1M3 53h2M6 53h1M26 53h3M32 53h2M41 53h2M41 54h2M44 54h2" />
</svg>