<svg xmlns="http://www.w3.org/2000/svg" viewBox="0 -0.5 80 80" shape-rendering="crispEdges">
<metadata>Made with Pixels to Svg https://codepen.io/shshaw/pen/XbxvNj</metadata>
<path stroke="#7b7373" d="M37 0h2M36 1h1M39 1h1M29 2h1M35 2h1M39 2h1M28 3h1M30 3h1M35 3h1M38 3h1M27 4h1M34 4h1M27 5h1M33 5h1M30 6h1M37 6h1M31 7h1M37 7h1M39 7h2M28 8h1M31 8h1M38 8h1M31 9h1M38 9h1M63 9h2M50 10h3M62 10h1M65 10h1M49 11h1M61 11h1M44 12h1M48 12h1M61 12h1M43 13h1M47 13h1M56 13h1M60 13h1M55 14h1M60 14h1M63 14h1M55 15h1M49 16h1M52 16h1M55 16h1M49 17h1M52 17h1M55 17h1M58 17h1M54 18h1M66 18h2M54 19h1M68 19h1M54 20h1M1 24h1M1 25h1M55 25h1M2 26h1M1 29h1M0 30h1M0 31h1M76 31h2M1 32h1M75 32h1M75 33h1M5 34h1M74 34h1M77 34h1M5 35h1M4 36h1M35 36h2M3 37h1M37 37h2M8 38h1M39 38h1M9 39h1M77 39h1M8 40h2M38 40h1M7 41h3M6 42h2M5 43h2M38 43h1M5 44h1M38 44h1M4 45h2M37 45h1M4 46h1M25 46h1M3 47h2M25 47h1M3 48h1M26 48h1M30 48h1M34 48h1M3 49h1M35 49h1M3 50h1M31 50h1M34 50h2M3 51h1M3 52h2M24 52h1M26 52h1M4 53h1M23 53h1M25 53h1M4 54h1M23 54h1M25 54h1M4 55h1M22 55h1M24 55h1M4 56h1M22 56h1M24 56h1M3 57h1M24 57h1M1 58h2M24 58h1M24 59h1M24 60h1M24 61h1M22 62h1M25 62h1M23 63h1M25 63h1M23 64h1M26 64h1M29 64h2M27 65h2M61 71h1M57 72h5M61 73h1M64 74h3M66 75h1M69 75h1M66 76h4M68 77h1M68 78h1M69 79h1" />
<path stroke="#f6f6f6" d="M37 1h2M36 2h3M29 3h1M36 3h2M28 4h2M35 4h3M28 5h2M34 5h4M28 6h2M34 6h3M28 7h3M33 7h4M29 8h2M33 8h4M29 9h2M32 9h5M29 10h2M32 10h5M63 10h2M28 11h4M34 11h3M50 11h2M62 11h3M28 12h3M35 12h2M49 12h2M62 12h2M28 13h2M44 13h1M48 13h3M61 13h3M43 14h2M47 14h3M56 14h1M61 14h2M65 14h1M43 15h7M56 15h1M60 15h6M43 16h6M56 16h1M60 16h5M44 17h1M48 17h1M56 17h1M59 17h5M55 18h3M59 18h2M55 19h3M59 19h2M55 20h4M55 21h4M55 22h3M55 23h2M12 24h1M55 24h2M12 25h1M56 25h1M24 26h2M23 27h3M23 28h2M23 29h1M10 32h1M76 32h2M10 33h2M76 33h1M6 34h1M17 34h1M75 34h1M6 35h2M17 35h2M5 36h4M4 37h5M4 38h2M34 39h5M32 40h6M34 41h3M35 42h1M31 45h2M30 46h3M10 47h1M30 47h4M10 48h1M31 48h3M15 49h1M32 49h3M15 50h1M23 56h1M23 57h1M23 58h1M23 59h1M23 60h1" />
<path stroke="#181818" d="M30 4h1M38 4h1M30 5h1M38 5h1M27 6h1M33 6h1M27 7h1M32 7h1M32 8h1M37 8h1M41 8h1M37 9h1M41 9h1M10 10h1M37 10h1M41 10h1M10 11h1M37 11h1M40 11h1M52 11h1M65 11h1M10 12h1M40 12h1M51 12h1M64 12h1M26 13h1M40 13h2M45 13h1M51 13h1M64 13h2M11 14h1M26 14h1M42 14h1M45 14h2M50 14h1M57 14h1M64 14h1M66 14h1M11 15h1M14 15h1M25 15h1M42 15h1M50 15h1M57 15h1M59 15h1M66 15h1M11 16h1M14 16h1M24 16h1M50 16h2M57 16h1M59 16h1M65 16h1M14 17h1M24 17h1M43 17h1M65 17h1M15 18h1M18 18h1M23 18h1M43 18h1M51 18h1M58 18h1M64 18h1M1 19h1M10 19h1M12 19h1M17 19h1M22 19h1M37 19h1M44 19h1M50 19h1M58 19h1M64 19h2M2 20h1M11 20h2M22 20h1M35 20h1M44 20h4M49 20h1M64 20h1M68 20h1M3 21h2M8 21h1M12 21h1M21 21h1M24 21h2M32 21h2M48 21h1M54 21h1M67 21h1M1 22h1M9 22h1M12 22h1M14 22h1M21 22h3M30 22h2M48 22h1M54 22h1M66 22h1M1 23h1M9 23h1M15 23h1M28 23h1M46 23h2M54 23h1M66 23h1M26 24h1M34 24h1M43 24h3M54 24h1M65 24h1M8 25h1M23 25h2M35 25h2M41 25h3M46 25h1M61 25h3M65 25h1M21 26h2M37 26h1M40 26h2M46 26h1M55 26h1M65 26h1M2 27h1M13 27h1M16 27h1M34 27h3M39 27h1M46 27h1M65 27h2M2 28h1M32 28h2M35 28h1M46 28h2M67 28h2M21 29h1M36 29h2M45 29h1M47 29h1M38 30h1M44 30h1M47 30h1M8 31h1M38 31h1M43 31h1M48 31h1M2 32h2M8 32h1M33 32h5M43 32h1M48 32h1M78 32h1M4 33h1M8 33h1M12 33h1M14 33h3M30 33h2M33 33h2M41 33h1M48 33h1M78 33h1M8 34h1M11 34h1M21 34h1M30 34h1M34 34h8M48 34h1M8 35h1M21 35h1M37 35h1M48 35h1M72 35h1M77 35h1M9 36h1M11 36h1M18 36h1M21 36h1M32 36h3M47 36h1M72 36h1M76 36h1M9 37h1M11 37h1M17 37h3M33 37h1M43 37h1M47 37h1M76 37h1M3 38h1M6 38h2M9 38h1M12 38h1M17 38h3M30 38h3M40 38h3M46 38h1M76 38h1M4 39h2M10 39h1M12 39h1M16 39h4M22 39h1M27 39h1M41 39h1M46 39h2M10 40h1M12 40h1M18 40h3M22 40h1M26 40h1M39 40h2M45 40h1M48 40h1M77 40h1M13 41h1M20 41h1M22 41h1M26 41h1M37 41h1M44 41h1M48 41h1M8 42h1M11 42h1M25 42h1M37 42h1M42 42h2M48 42h1M7 43h1M10 43h1M24 43h2M48 43h1M56 43h1M63 43h1M76 43h1M6 44h1M21 44h1M24 44h1M57 44h1M61 44h1M65 44h1M76 44h1M6 45h1M25 45h2M35 45h2M75 45h1M5 46h1M8 46h1M22 46h3M27 46h2M34 46h1M47 46h1M58 46h1M60 46h1M66 46h1M76 46h1M5 47h1M21 47h1M23 47h1M29 47h1M34 47h1M47 47h1M60 47h1M67 47h1M73 47h1M77 47h1M4 48h1M7 48h1M21 48h1M24 48h1M46 48h1M48 48h1M68 48h3M77 48h1M4 49h1M7 49h1M20 49h1M24 49h1M26 49h1M30 49h1M44 49h2M48 49h1M59 49h1M68 49h1M77 49h1M4 50h1M8 50h1M20 50h1M24 50h1M26 50h1M43 50h2M48 50h1M54 50h1M59 50h1M68 50h1M4 51h1M10 51h2M19 51h1M24 51h1M26 51h1M31 51h3M40 51h3M48 51h1M59 51h1M68 51h1M5 52h1M12 52h2M18 52h2M31 52h1M34 52h6M48 52h1M55 52h1M76 52h1M5 53h1M15 53h4M48 53h1M69 53h1M76 53h1M5 54h1M56 54h1M58 54h1M70 54h5M5 55h1M56 55h2M75 55h1M5 56h1M56 56h1M0 57h1M4 57h1M22 57h1M51 57h1M56 57h1M0 58h1M3 58h2M22 58h1M45 58h1M51 58h1M1 59h3M22 59h1M33 59h3M42 59h2M51 59h1M74 59h1M22 60h1M33 60h1M36 60h6M51 60h1M55 60h1M72 60h2M22 61h1M74 61h1M54 62h1M74 62h1M50 63h1M49 64h1M52 64h1M24 65h1M30 65h1M36 65h1M48 65h3M25 66h1M29 66h1M37 66h2M45 66h3M26 67h3M39 67h6M75 67h1M75 68h1M75 69h1M65 72h1M74 72h1M64 73h1M74 73h1M63 74h1M73 75h1M73 76h1M72 77h1M72 78h1M70 79h2" />
<path stroke="#eedede" d="M39 8h2M39 9h2M31 10h1M38 10h3M32 11h2M38 11h2M31 12h4M37 12h3M30 13h10M29 14h10M29 15h8M30 16h6M31 17h3M45 17h3M50 17h2M57 17h1M64 17h1M32 18h1M44 18h7M61 18h3M45 19h5M61 19h3M66 19h2M48 20h1M59 20h5M65 20h3M59 21h8M58 22h8M2 23h1M12 23h1M57 23h9M2 24h3M57 24h8M2 25h4M57 25h3M64 25h1M3 26h3M26 26h1M56 26h2M64 26h1M3 27h4M3 28h3M2 29h4M24 29h1M1 30h6M1 31h7M4 32h4M5 33h3M77 33h1M7 34h1M10 34h1M76 34h1M74 35h3M17 36h1M74 36h2M34 37h3M75 37h1M33 38h6M75 38h1M28 39h6M39 39h2M76 39h1M27 40h5M76 40h1M27 41h7M26 42h9M36 42h1M26 43h12M25 44h13M27 45h4M33 45h2M29 46h1M33 46h1M24 47h1M25 48h1M25 49h1M31 49h1M25 50h1M32 50h2M25 51h1M25 52h1M24 53h1M24 54h1M23 55h1M23 61h1M23 62h2M24 63h1M66 63h2M24 64h2M65 64h2M72 64h1M25 65h2M29 65h1M64 65h3M71 65h2M26 66h3M63 66h3M71 66h2M62 67h4M70 67h3M61 68h4M70 68h3M60 69h5M69 69h4M60 70h4M68 70h4M59 71h2M62 71h2M67 71h5M62 72h1M66 72h6M65 73h7M67 74h5M67 75h2M70 75h1M70 76h1M69 77h2M69 78h1" />
<path stroke="#730000" d="M11 9h1M27 9h2M12 10h1M26 10h1M28 10h1M12 11h1M25 11h1M27 11h1M13 12h1M27 12h1M11 13h1M13 13h1M23 13h1M13 14h1M22 14h1M21 15h1M26 15h2M20 16h1M29 16h1M42 16h1M11 17h1M19 17h1M30 17h1M12 18h1M31 18h1M33 18h4M0 19h1M9 19h1M16 19h1M30 19h3M0 20h1M8 20h1M15 20h1M27 20h3M36 20h1M1 21h1M14 21h1M19 21h1M26 21h1M34 21h1M2 22h1M5 22h2M20 22h1M33 22h1M3 23h2M7 23h1M13 23h1M29 23h1M34 23h1M5 24h1M9 24h1M13 24h1M15 24h1M27 24h1M33 24h1M6 25h1M9 25h1M25 25h1M53 25h2M8 26h1M11 26h2M52 26h1M63 26h1M7 27h1M17 27h1M20 27h1M64 27h1M6 28h1M14 28h2M18 28h2M65 28h1M6 29h1M20 29h1M50 29h1M65 29h1M69 29h1M7 30h1M21 30h3M50 30h2M70 30h1M49 31h1M66 31h1M71 31h1M66 32h1M71 32h1M32 33h1M42 33h1M66 33h1M72 33h1M66 34h1M72 34h1M31 35h1M38 35h1M60 35h1M73 35h1M39 36h5M61 36h1M61 37h1M72 37h1M74 37h1M28 38h2M47 38h1M62 38h1M72 38h1M74 38h1M62 39h1M71 39h1M75 39h1M49 40h4M62 40h1M71 40h1M75 40h1M53 41h2M62 41h1M70 41h1M76 41h1M55 42h1M76 42h1M39 43h3M48 44h1M47 45h2M74 46h1M49 48h3M52 49h2M77 50h1M77 51h1M49 53h1M47 54h1M50 54h1M47 55h1M50 55h1M46 56h1M51 56h1M75 56h1M45 57h2M75 57h1M44 58h1M74 58h1M68 60h2M71 60h1M51 61h1M66 61h2M50 62h1M65 62h1M74 63h1M75 64h1M75 65h1M75 66h1M74 70h1M58 71h1M74 71h1M73 74h1" />
<path stroke="#bd1839" d="M11 10h1M11 11h1M11 12h2M12 13h1M12 14h1M19 14h3M23 14h1M40 14h2M12 15h2M17 15h2M22 15h2M37 15h1M40 15h2M13 16h1M16 16h1M21 16h2M25 16h4M40 16h2M13 17h1M15 17h1M20 17h2M25 17h2M34 17h2M40 17h3M19 18h2M24 18h3M41 18h2M18 19h2M23 19h3M33 19h4M41 19h3M16 20h4M23 20h3M30 20h5M41 20h3M15 21h4M22 21h2M29 21h3M40 21h3M45 21h3M15 22h5M32 22h1M39 22h3M47 22h1M16 23h5M30 23h4M38 23h4M17 24h3M28 24h5M35 24h8M26 25h9M37 25h4M44 25h2M23 26h1M30 26h7M38 26h2M42 26h4M54 26h1M26 27h1M31 27h3M37 27h2M40 27h6M51 27h1M55 27h1M25 28h1M34 28h1M36 28h10M50 28h1M34 29h2M38 29h7M34 30h4M39 30h5M45 30h1M48 30h1M52 30h3M65 30h2M30 31h8M39 31h4M45 31h1M55 31h2M29 32h4M38 32h5M56 32h3M29 33h1M35 33h6M46 33h1M58 33h1M28 34h2M31 34h3M42 34h1M46 34h1M59 34h1M27 35h4M32 35h1M39 35h5M46 35h2M62 35h2M65 35h2M26 36h6M44 36h3M60 36h1M62 36h2M73 36h1M26 37h7M44 37h3M59 37h2M62 37h1M73 37h1M25 38h3M43 38h3M59 38h3M24 39h3M42 39h4M48 39h1M59 39h3M74 39h1M23 40h3M41 40h4M59 40h2M74 40h1M23 41h3M39 41h5M58 41h2M74 41h2M24 42h1M40 42h2M58 42h2M74 42h2M42 43h2M57 43h2M73 43h3M41 44h4M47 44h1M56 44h1M58 44h1M72 44h4M24 45h1M42 45h3M46 45h1M55 45h3M73 45h2M42 46h5M55 46h3M73 46h1M42 47h5M55 47h4M42 48h4M55 48h3M42 49h2M55 49h2M41 50h2M53 50h1M55 50h2M43 51h2M52 51h3M42 52h4M47 52h1M49 52h2M53 52h2M43 53h5M53 53h3M73 53h1M43 54h4M48 54h2M53 54h3M43 55h4M49 55h1M52 55h4M43 56h3M49 56h2M52 56h3M43 57h2M49 57h2M52 57h2M42 58h2M49 58h2M52 58h1M44 59h2M49 59h2M71 59h1M43 60h4M49 60h2M44 61h7M45 62h5M45 63h5M69 63h1M46 64h3M67 64h4M46 65h2M67 65h1M69 65h2M66 66h1M69 66h2M66 67h1M68 67h2M65 68h1M68 68h1M65 69h1M67 69h1M64 70h1M64 71h1M66 71h1M63 72h1" />
<path stroke="#9c0008" d="M27 10h1M26 11h1M24 12h3M24 13h2M24 14h2M39 14h1M24 15h1M38 15h2M12 16h1M23 16h1M12 17h1M22 17h2M13 18h2M21 18h2M13 19h3M20 19h2M13 20h2M20 20h2M13 21h1M20 21h1M27 21h2M13 22h1M24 22h6M14 23h1M21 23h7M14 24h1M16 24h1M20 24h6M14 25h9M6 26h1M14 26h7M10 27h1M14 27h2M18 27h2M16 30h1M27 34h1M26 35h1M25 36h1M25 37h1M24 38h1M23 39h1M76 47h1M73 48h1M75 48h2M73 49h4M74 50h3M74 51h3M74 52h2M74 53h2M73 55h2M73 56h2M72 57h3M72 58h2M72 59h2M70 60h1M68 61h6M66 62h8M64 63h2M68 63h1M70 63h4M63 64h2M71 64h1M73 64h2M62 65h2M73 65h2M61 66h2M73 66h2M60 67h2M73 67h2M59 68h2M69 68h1M73 68h2M58 69h2M68 69h1M73 69h2M57 70h3M67 70h1M72 70h2M57 71h1M72 71h2M72 72h2M62 73h1M72 73h2M62 74h1M72 74h1M71 75h2M71 76h2M71 77h1M70 78h2" />
<path stroke="#5a3920" d="M27 13h1M28 14h1M28 15h1M60 25h1M58 26h2M56 27h2M9 29h1M11 29h1M8 30h1M12 30h2M10 31h1M14 31h6M11 32h2M20 32h1M17 33h1M21 33h1M16 34h1M18 34h1M10 35h2M16 35h1M19 35h1M16 36h1M19 36h1M65 36h1M21 37h1M65 37h1M21 38h2M64 38h1M63 39h1M11 41h1M23 42h1M62 42h1M68 42h2M21 43h1M23 43h1M61 43h1M64 43h4M10 44h1M9 45h1M23 45h1M58 45h1M61 45h1M65 45h1M20 46h1M67 46h1M7 47h1M19 47h1M59 47h1M68 47h1M18 48h1M59 48h1M71 48h2M17 49h1M17 50h1M9 51h1M15 51h2M55 51h1M59 52h1M68 52h2M14 53h1M31 53h1M56 53h1M58 53h1M31 54h1M31 55h1M69 55h1M32 56h1M69 56h1M32 57h1M69 57h1M33 58h1M56 58h1M69 58h1M55 59h1M70 59h1M33 61h1M54 61h1M34 62h1M34 63h1M53 63h1M35 64h1M51 64h1" />
<path stroke="#ff6a6a" d="M19 15h2M17 16h3M16 17h2M8 27h1M11 27h2M53 27h2M7 28h2M11 28h2M16 28h2M52 28h5M7 29h1M16 29h3M51 29h7M55 30h4M50 31h5M57 31h2M49 32h7M49 33h8M49 34h8M49 35h8M48 36h9M40 37h2M48 37h8M48 38h8M49 39h6" />
<path stroke="#e6414a" d="M36 16h4M18 17h1M27 17h3M36 17h4M16 18h2M27 18h4M37 18h4M26 19h4M38 19h3M1 20h1M9 20h2M26 20h1M37 20h4M2 21h1M9 21h3M35 21h5M43 21h2M3 22h2M10 22h2M34 22h5M42 22h5M5 23h2M10 23h2M35 23h3M42 23h4M6 24h2M10 24h2M7 25h1M10 25h2M7 26h1M9 26h2M27 26h3M53 26h1M60 26h3M9 27h1M27 27h4M52 27h1M58 27h6M9 28h2M13 28h1M26 28h6M51 28h1M57 28h8M66 28h1M8 29h1M12 29h4M19 29h1M25 29h9M46 29h1M58 29h7M66 29h3M14 30h2M17 30h4M24 30h10M46 30h1M59 30h6M67 30h3M20 31h10M46 31h2M59 31h7M67 31h4M21 32h8M46 32h2M59 32h1M62 32h4M67 32h4M22 33h7M47 33h1M57 33h1M63 33h3M67 33h5M22 34h5M47 34h1M57 34h2M63 34h3M67 34h5M22 35h4M33 35h4M57 35h3M64 35h1M67 35h5M22 36h3M37 36h2M57 36h3M66 36h6M22 37h3M39 37h1M42 37h1M56 37h3M66 37h6M23 38h1M56 38h1M67 38h5M55 39h1M69 39h2M47 40h1M53 40h2M70 40h1M72 40h2M47 41h1M49 41h4M71 41h3M47 42h1M49 42h6M71 42h3M47 43h1M49 43h7M72 43h1M49 44h7M49 45h6M48 46h5M48 47h4M49 49h3M49 50h4M49 51h3M68 65h1M67 66h2M67 67h1M66 68h2M66 69h1M65 70h2M65 71h1M64 72h1M63 73h1" />
<path stroke="#bd3162" d="M13 25h1M13 26h1M21 27h2M16 41h3M14 42h6M16 43h5M18 44h3M18 45h3M18 46h2M12 47h1M17 47h2M13 48h5M16 49h1M16 50h1" />
<path stroke="#ee6241" d="M20 28h1M22 28h1M22 29h1M13 43h3M12 44h6M12 45h6M12 46h6M13 47h4" />
<path stroke="#6a1820" d="M21 28h1M13 33h1M12 34h4M12 35h4M12 36h4M12 37h5M13 38h4M13 39h3M13 40h5M14 41h2M19 41h1M13 42h1M20 42h1M12 43h1M11 45h1M10 46h2M9 47h1M11 47h1M9 48h1M11 48h2M10 49h5M13 50h2" />
<path stroke="#f6deac" d="M10 29h1M9 30h3M9 31h1M11 31h2M14 32h5M60 32h2M18 33h2M59 33h4M20 34h1M60 34h3M61 35h1M57 38h2M66 38h1M56 39h2M66 39h3M55 40h2M67 40h2M55 41h2M9 46h1M53 46h2M8 47h1M52 47h2M8 48h1M52 48h1M8 49h2M9 50h3M12 51h3M14 52h3" />
<path stroke="#cdac7b" d="M13 31h1M44 31h1M9 32h1M13 32h1M19 32h1M44 32h2M9 33h1M20 33h1M43 33h3M9 34h1M19 34h1M43 34h3M9 35h1M20 35h1M44 35h2M10 36h1M20 36h1M64 36h1M10 37h1M20 37h1M63 37h2M10 38h2M20 38h1M63 38h1M65 38h1M73 38h1M11 39h1M20 39h2M58 39h1M64 39h2M72 39h2M11 40h1M21 40h1M46 40h1M57 40h2M61 40h1M63 40h4M69 40h1M12 41h1M21 41h1M38 41h1M45 41h2M57 41h1M60 41h2M63 41h7M12 42h1M21 42h2M38 42h2M44 42h3M56 42h2M60 42h2M63 42h5M70 42h1M11 43h1M22 43h1M44 43h3M59 43h2M68 43h4M11 44h1M22 44h2M39 44h2M45 44h2M59 44h2M66 44h6M10 45h1M21 45h2M38 45h4M45 45h1M59 45h2M66 45h7M21 46h1M35 46h7M59 46h1M68 46h5M75 46h1M20 47h1M35 47h7M54 47h1M69 47h4M74 47h2M19 48h2M35 48h7M47 48h1M53 48h2M58 48h1M74 48h1M18 49h2M36 49h6M46 49h2M54 49h1M57 49h2M69 49h4M12 50h1M18 50h2M36 50h5M45 50h3M57 50h2M69 50h5M17 51h2M34 51h6M45 51h3M56 51h3M69 51h5M17 52h1M32 52h2M40 52h2M46 52h1M51 52h2M56 52h3M70 52h4M32 53h11M50 53h3M57 53h1M70 53h3M32 54h11M51 54h2M57 54h1M32 55h11M48 55h1M51 55h1M70 55h3M33 56h10M47 56h2M55 56h1M70 56h3M33 57h10M47 57h2M54 57h2M70 57h2M34 58h8M46 58h3M53 58h3M70 58h2M36 59h6M46 59h3M52 59h3M34 60h2M42 60h1M47 60h2M52 60h3M34 61h10M52 61h2M35 62h10M51 62h3M35 63h10M51 63h2M36 64h10M50 64h1M37 65h9M39 66h6" />
</svg>