<svg xmlns="http://www.w3.org/2000/svg" viewBox="0 -0.5 80 80" shape-rendering="crispEdges">
<metadata>Made with Pixels to Svg https://codepen.io/shshaw/pen/XbxvNj</metadata>
<path stroke="#cd4120" d="M24 20h2M23 21h1M22 22h1M27 22h1M22 23h1M27 23h1M23 24h1M26 24h2M19 25h2M24 25h3M18 26h1M17 27h1M22 27h1M17 28h1M22 28h1M30 28h1M18 29h1M21 29h2M30 29h1M19 30h3M26 30h1M29 30h2M27 31h3M52 41h2M55 43h1M45 44h2M51 44h1M54 44h2M44 45h1M53 45h3M43 46h1M48 46h1M53 46h2M43 47h1M48 47h1M44 48h1M47 48h2M45 49h3M55 49h1M55 50h1M51 51h1M54 51h2M52 52h3" />
<path stroke="#941800" d="M26 20h1M27 21h1M28 22h1M22 24h1M21 25h1M23 25h1M22 26h1M27 26h3M23 27h1M26 27h1M30 27h1M25 28h1M31 28h1M17 29h1M25 29h1M18 30h1M25 30h1M19 31h2M26 31h1M54 41h1M51 42h1M55 42h1M50 43h1M56 43h1M47 44h1M48 45h1M49 46h1M52 47h3M43 48h1M51 48h1M55 48h1M44 49h1M50 49h1M56 49h1M50 50h1M50 51h1M51 52h1" />
<path stroke="#527310" d="M37 20h2M36 21h1M45 21h3M41 22h1M44 22h1M48 22h1M38 23h1M42 23h2M40 25h1M37 26h2M43 27h1M26 32h1M27 33h1M25 34h1M27 34h2M25 35h1M29 35h3M26 36h1M27 37h2M29 38h1M44 38h1M30 39h1M45 39h2M47 40h1M48 41h1M49 42h1M30 43h1M49 43h1M30 44h1M48 44h1M50 44h1M30 45h1M50 45h2M30 46h1M51 46h1M41 47h1M42 48h1M31 49h1M31 50h1M32 52h1M44 52h1M31 53h2M30 54h1M32 54h1M29 55h1M33 55h1M44 55h1M29 56h1M39 56h1M44 56h1M29 57h1M39 57h1M29 58h1M34 58h2M46 58h2M30 59h1M37 59h1M40 59h1M31 60h1M50 60h1M30 61h1M32 61h1M34 61h1M51 61h1M29 62h1M34 62h1M28 63h1M33 63h1M28 64h1" />
<path stroke="#101010" d="M39 20h1M40 21h1M36 22h1M28 23h1M37 23h1M48 23h1M28 24h1M39 24h1M45 24h3M27 25h1M43 25h2M24 26h3M42 26h1M44 27h1M23 28h1M45 28h1M23 29h1M31 29h1M45 29h1M22 30h1M31 30h1M36 30h1M40 30h1M45 30h1M21 31h1M23 31h1M30 31h1M45 31h1M24 32h1M27 32h3M44 32h1M24 33h1M44 33h1M44 34h1M43 35h1M43 36h1M44 37h1M42 40h2M42 41h1M44 41h2M41 42h1M46 42h1M41 43h1M47 43h1M41 44h1M56 44h1M41 45h1M52 45h1M56 45h1M41 46h1M52 46h1M55 46h1M49 47h1M49 48h1M42 49h1M48 49h1M43 50h1M45 50h3M56 50h1M43 51h1M56 51h1M55 52h1M44 53h1M52 53h3M44 54h1M33 56h1M43 56h1M34 57h1M43 57h1M36 58h1M40 58h1M44 58h1M48 58h1M33 59h2M38 59h2M41 59h1M45 59h1M49 59h1M34 60h1M42 60h1M31 61h1M35 61h1M43 61h2M35 62h1M45 62h1M51 62h1M34 63h1M46 63h2M51 63h1M32 64h2M48 64h3M29 65h3" />
<path stroke="#ffb47b" d="M24 21h2M24 22h2M19 26h2M19 27h2M27 27h2M27 28h2M45 45h2M45 46h2M52 48h2M52 49h2" />
<path stroke="#f66239" d="M26 21h1M23 22h1M26 22h1M23 23h4M24 24h2M21 26h1M18 27h1M21 27h1M29 27h1M18 28h4M26 28h1M29 28h1M19 29h2M26 29h4M27 30h2M52 42h3M51 43h4M52 44h2M47 45h1M44 46h1M47 46h1M44 47h4M45 48h2M54 48h1M51 49h1M54 49h1M51 50h4M52 51h2" />
<path stroke="#cde65a" d="M37 21h2M37 22h2M46 22h2M46 23h2M37 27h5M35 28h8M35 29h1M37 29h3M41 29h2M34 30h2M37 30h3M41 30h2M34 31h9M37 32h5M26 33h1M34 33h1M26 34h1M33 34h4M41 34h1M26 35h2M33 35h8M27 36h4M33 36h2M36 36h4M29 37h2M32 37h2M37 37h3M32 38h2M37 38h3M32 39h3M36 39h4M32 40h8M31 41h9M31 42h5M37 42h2M31 43h5M38 43h1M31 44h2M34 44h2M38 44h1M31 45h2M35 45h1M37 45h2M31 46h2M35 46h4M31 47h2M34 47h4M32 48h5M32 49h5M32 50h5M33 51h2M36 51h2M39 51h1M33 52h1M36 52h4M33 53h1M36 53h3M31 54h1M33 54h1M36 54h3M30 55h2M34 55h1M36 55h1M30 56h2M30 57h1M30 62h2M29 63h2" />
<path stroke="#accd39" d="M39 21h1M39 22h2M45 22h1M39 23h3M44 23h2M40 24h5M41 25h2M39 26h2M36 27h1M25 32h1M34 32h1M42 32h1M25 33h1M35 33h2M42 33h1M37 34h4M28 35h1M41 35h1M31 36h2M35 36h1M40 36h1M31 37h1M34 37h1M40 37h1M30 38h2M34 38h1M36 42h1M39 42h1M37 43h1M39 43h1M33 44h1M39 44h1M34 45h1M36 45h1M39 45h1M39 46h1M33 47h1M38 47h2M37 48h1M40 48h1M37 49h1M40 49h1M40 50h1M35 51h1M40 51h1M34 52h1M40 52h1M34 53h1M39 53h2M39 54h2M32 55h1M37 55h3M34 56h5M31 57h1M30 58h2M46 59h3M46 60h4M47 61h4M32 62h1M31 63h1M29 64h3" />
<path stroke="#839c31" d="M36 26h1M41 26h1M24 27h2M35 27h1M42 27h1M24 28h1M34 28h1M43 28h2M24 29h1M34 29h1M36 29h1M40 29h1M43 29h2M23 30h2M33 30h1M43 30h2M24 31h2M33 31h1M43 31h2M33 32h1M43 32h1M33 33h1M41 33h1M43 33h1M32 34h1M42 34h2M32 35h1M42 35h1M41 36h2M36 37h1M41 37h3M36 38h1M40 38h4M31 39h1M35 39h1M40 39h5M31 40h1M40 40h2M44 40h3M30 41h1M40 41h2M46 41h2M30 42h1M40 42h1M47 42h2M40 43h1M48 43h1M37 44h1M40 44h1M49 44h1M40 45h1M49 45h1M34 46h1M40 46h1M50 46h1M30 47h1M40 47h1M50 47h2M31 48h1M39 48h1M41 48h1M50 48h1M39 49h1M41 49h1M37 50h1M39 50h1M41 50h2M32 51h1M38 51h1M41 51h2M41 52h3M41 53h3M34 54h1M41 54h3M35 55h1M40 55h4M32 56h1M40 56h3M32 57h2M35 57h4M40 57h3M32 58h2M37 58h3M41 58h3M31 59h2M42 59h3M32 60h2M43 60h3M33 61h1M45 61h2M33 62h1M46 62h5M32 63h1M48 63h3" />
<path stroke="#ffffff" d="M35 32h2M37 33h4" />
<path stroke="#ffcd00" d="M35 37h1M36 43h1M33 45h1M38 48h1M38 49h1M35 52h1" />
<path stroke="#de9400" d="M35 38h1M36 44h1M33 46h1M38 50h1M35 53h1M35 54h1" />
</svg>