<svg xmlns="http://www.w3.org/2000/svg" viewBox="0 -0.5 80 80" shape-rendering="crispEdges">
<metadata>Made with Pixels to Svg https://codepen.io/shshaw/pen/XbxvNj</metadata>
<path stroke="#101010" d="M31 13h3M29 14h7M28 15h1M31 15h6M27 16h1M30 16h1M35 16h3M27 17h1M29 17h1M31 17h2M36 17h3M27 18h1M29 18h1M32 18h2M37 18h2M28 19h6M38 19h2M29 20h4M38 20h2M39 21h1M39 22h1M37 23h4M41 24h2M27 25h1M25 27h1M38 27h2M24 28h1M37 28h1M39 28h2M37 29h3M37 30h2M25 31h3M49 31h1M26 32h5M50 32h1M28 33h6M50 33h1M55 33h2M61 33h1M30 34h4M35 34h2M51 34h1M57 34h1M62 34h1M31 35h2M38 35h2M51 35h1M61 35h2M17 36h2M24 36h1M30 36h2M51 36h1M55 36h1M63 36h1M16 37h1M25 37h2M29 37h1M52 37h1M54 37h1M63 37h1M16 38h1M52 38h2M16 39h1M42 39h1M49 39h3M62 39h1M17 40h1M42 40h1M59 40h2M19 41h2M41 41h1M58 41h1M22 42h1M39 42h2M57 42h1M29 43h1M37 43h2M55 43h2M26 44h2M29 44h1M53 44h2M42 45h1M46 45h1M53 45h1M43 46h1M46 46h2M53 46h1M40 47h1M43 47h3M49 47h1M53 47h1M41 48h2M46 48h1M49 48h1M52 48h1M47 49h2M50 49h1M52 49h1M27 50h1M47 50h1M50 50h1M52 50h1M27 51h1M51 51h1M28 52h1M50 52h2M28 53h1M50 53h1M29 54h1M46 54h1M50 54h1M30 55h1M40 55h1M46 55h1M49 55h1M31 56h2M40 56h1M46 56h1M48 56h1M33 57h3M41 57h1M45 57h3M36 58h9M34 59h1M39 59h1M31 60h2M39 60h1M28 63h1M31 63h1M38 63h1M29 64h3M34 64h2M38 64h1M32 65h2M36 65h2" />
<path stroke="#838383" d="M29 15h2M28 16h2M34 16h1M28 17h1M28 18h1M39 18h1M38 21h1M40 21h1M40 22h1M26 25h1M25 26h1M24 27h1" />
<path stroke="#39629c" d="M32 23h5M30 24h1M28 25h1M43 25h2M27 26h1M45 26h1M26 27h1M46 27h1M25 28h1M47 28h1M24 29h1M48 29h1M24 30h1M49 30h1M28 31h1M38 31h3M34 33h1M37 34h1M55 37h1M27 38h2M48 39h1M21 41h1M23 43h2M25 44h1M28 44h1M52 44h1M28 45h2M50 45h3M28 46h1M28 47h1M27 48h1M27 49h1M41 49h1M41 50h1M41 51h1M47 51h1M50 51h1M46 52h1M40 53h1M46 53h1M48 53h1M27 54h1M40 54h1M48 54h2M26 55h1M47 55h2M26 56h1M47 56h1M26 57h1M27 58h1M28 59h2M35 59h1M38 59h1M30 60h1M33 60h1M32 61h1M38 61h2M31 62h1M38 62h1" />
<path stroke="#6a94d5" d="M29 24h1M31 24h1M39 24h2M38 25h5M37 26h1M42 26h3M43 27h3M43 28h4M26 29h1M29 29h1M36 29h1M43 29h5M35 30h2M42 30h7M29 31h1M33 31h5M41 31h8M31 32h19M35 33h15M38 34h4M44 34h7M45 35h6M45 36h6M23 37h2M45 37h7M23 38h4M44 38h8M21 39h7M43 39h5M21 40h7M43 40h7M22 41h6M42 41h8M23 42h6M41 42h10M56 42h1M25 43h4M39 43h16M30 44h2M37 44h7M46 44h6M39 45h2M47 45h3M49 46h4M50 47h3M50 48h2M51 49h1M48 50h1M51 50h1M47 52h3M29 53h2M47 53h1M49 53h1M28 54h1M30 54h4M47 54h1M27 55h3M31 55h4M27 56h4M33 56h5M27 57h6M36 57h5M28 58h8M30 59h4M36 59h2M34 60h5M33 61h5M34 62h2" />
<path stroke="#aceeff" d="M32 24h5M29 25h9M28 26h9M41 26h1M27 27h9M42 27h1M26 28h10M25 29h1M27 29h2M30 29h6M25 30h9M41 30h1M31 31h1" />
<path stroke="#73c5ff" d="M37 24h2M36 27h1M36 28h1M34 30h1M30 31h1M32 31h1M54 38h3M52 39h6M50 40h9M50 41h8M51 42h5M32 47h4M31 48h6M43 48h3M30 49h3M36 49h2M42 49h5M49 49h1M30 50h2M36 50h2M42 50h5M49 50h1M29 51h3M34 51h4M42 51h5M48 51h2M29 52h3M35 52h2M41 52h5M31 53h2M41 53h1M45 53h1" />
<path stroke="#ffffff" d="M26 26h1M38 26h3M37 27h1M41 27h1M38 28h1M41 28h2M41 29h2M44 45h1M41 46h1M47 47h1" />
<path stroke="#cdcdcd" d="M40 27h1" />
<path stroke="#b41831" d="M40 29h1M39 30h2M34 34h1M33 35h5M40 35h1M35 36h6M30 37h1M37 37h2M41 37h1M44 37h1M29 38h1M37 38h2M42 38h2M29 39h1M36 39h2M29 40h1M35 40h2M30 41h5" />
<path stroke="#b4528b" d="M58 32h3M19 33h2M22 33h2M57 33h1M18 34h1M21 34h1M24 34h1M54 34h1M17 35h1M21 35h1M24 35h1M54 35h1M60 36h1M19 37h1M63 38h1M59 39h1M61 40h1M18 41h1M28 41h1M29 42h1M30 43h2M32 44h5M44 44h2M41 45h1M43 45h1M40 46h1M48 46h1M46 47h1M42 53h3M41 54h1M45 54h1M41 55h1M45 55h1M41 56h1M45 56h1M29 61h2M28 62h1M32 62h2M36 62h2M34 63h2" />
<path stroke="#ffcdf6" d="M58 33h2M55 34h2M58 34h3M55 35h5M56 36h4M61 36h2M39 37h2M56 37h7M39 38h3M57 38h6M38 39h4M58 39h1M60 39h2M37 40h5M35 41h6M30 42h9M32 43h5M31 45h8M45 45h1M30 46h10M42 46h1M44 46h2M29 47h2M37 47h3M41 47h2M48 47h1M28 48h2M38 48h3M47 48h2M28 49h2M33 49h2M38 49h3M28 50h1M32 50h4M38 50h3M28 51h1M32 51h2M38 51h3M32 52h3M37 52h3M33 53h5M43 54h1M42 55h3M42 56h3M43 57h1" />
<path stroke="#e68be6" d="M60 33h1M19 34h2M22 34h2M61 34h1M18 35h3M22 35h2M60 35h1M19 36h5M17 37h2M20 37h3M17 38h6M17 39h4M28 39h1M18 40h3M28 40h1M29 41h1M30 45h1M29 46h1M40 52h1M38 53h2M34 54h6M42 54h1M44 54h1M35 55h5M38 56h2M42 57h1M44 57h1M29 62h2M29 63h2M32 63h2M36 63h2M32 64h2M36 64h2" />
<path stroke="#e66a31" d="M42 34h2M41 35h1M44 35h1M32 36h3M31 37h6M30 38h7M30 39h6M30 40h5" />
<path stroke="#ff94c5" d="M42 35h2M41 36h4M42 37h2" />
<path stroke="#bdcdff" d="M31 47h1M36 47h1M30 48h1M37 48h1M35 49h1M29 50h1" />
</svg>