<svg xmlns="http://www.w3.org/2000/svg" viewBox="0 -0.5 80 80" shape-rendering="crispEdges">
<metadata>Made with Pixels to Svg https://codepen.io/shshaw/pen/XbxvNj</metadata>
<path stroke="#832000" d="M39 5h2M38 7h1M30 8h2M38 8h1M30 9h1M37 9h1M39 9h1M30 10h1M37 10h1M31 11h1M37 11h1M31 12h1M36 12h1M44 12h1M32 13h1M44 13h1M34 14h1M45 14h1M37 17h3M36 18h3M36 19h1M41 19h1M35 20h1M41 20h2M38 21h1M49 21h3M48 22h5M36 23h3M49 23h6M34 24h6M49 24h1M52 24h5M29 25h1M34 25h5M54 25h5M33 26h2M37 26h2M56 26h5M37 27h1M58 27h1M58 28h1M46 29h1M39 30h1M42 30h1M46 30h1M39 31h5M45 31h2M41 32h7M38 33h1M43 33h4M35 34h1M34 36h1M46 36h1M52 36h1M48 37h1M52 37h1M44 38h1M50 38h1M44 39h1M47 39h2M45 40h1M49 40h1M45 41h1M50 41h1M34 43h1M33 45h1M60 45h1M31 48h1M30 49h1" />
<path stroke="#412918" d="M38 6h1M40 6h5M40 7h1M45 7h2M40 8h1M47 8h2M32 9h1M49 9h1M32 10h1M39 10h1M51 10h1M33 11h1M43 11h2M52 11h1M33 12h1M42 12h1M53 12h1M34 13h1M38 13h1M55 13h1M32 14h1M35 14h1M38 14h1M56 14h1M32 15h1M40 15h1M57 15h1M33 16h1M37 16h2M58 16h1M33 17h1M59 17h1M39 18h2M60 18h1M38 19h1M42 19h1M61 19h1M39 20h1M49 20h2M62 20h1M34 21h1M41 21h1M48 21h1M52 21h1M63 21h1M14 22h1M34 22h1M38 22h1M53 22h2M61 22h1M13 23h1M16 23h1M33 23h1M35 23h1M39 23h1M48 23h1M55 23h1M62 23h1M12 24h1M16 24h1M30 24h3M57 24h1M63 24h1M12 25h1M25 25h4M39 25h1M43 25h1M45 25h1M49 25h1M53 25h1M60 25h1M64 25h1M12 26h1M21 26h2M35 26h2M52 26h1M55 26h1M65 26h1M14 27h1M18 27h1M31 27h1M42 27h1M46 27h1M53 27h1M57 27h1M61 27h1M65 27h1M12 28h1M15 28h1M20 28h1M29 28h1M47 28h1M49 28h1M53 28h1M10 29h1M21 29h1M35 29h1M41 29h1M47 29h1M50 29h1M57 29h1M62 29h1M9 30h1M17 30h1M21 30h1M25 30h1M35 30h1M51 30h1M9 31h1M12 31h1M18 31h1M22 31h1M9 32h1M12 32h1M19 32h1M22 32h1M65 32h2M10 33h1M13 33h1M19 33h1M30 33h5M64 33h1M11 34h1M18 34h1M30 34h1M36 34h1M49 34h1M63 34h1M67 34h1M18 35h1M50 35h1M32 36h2M47 36h1M51 36h1M59 36h1M65 36h1M69 36h1M36 37h1M49 37h1M53 37h1M58 37h1M62 37h3M70 37h1M36 38h1M51 38h1M54 38h1M57 38h1M61 38h1M66 38h1M68 38h1M70 38h1M34 39h1M55 39h1M57 39h1M35 40h1M56 40h1M34 41h1M48 41h2M57 41h1M34 42h1M45 42h1M58 42h1M45 43h1M59 43h1M33 44h1M32 46h1M31 47h1M47 47h2M51 47h1M61 47h1M50 48h1M48 49h1M29 50h1M28 51h1M51 51h1M28 52h1M27 53h1M61 53h1M27 54h1M50 54h1M61 54h1M26 55h1M39 55h1M61 55h1M26 56h1M26 57h1M60 57h1M25 58h1M25 59h1M47 59h1M61 59h1M24 60h1M38 60h1M46 60h1M60 60h1M62 60h1M24 61h1M62 61h1M23 63h1M23 64h1M38 64h1M47 64h1M63 64h1M40 65h1M51 66h2M57 66h1M21 67h1M54 67h1M40 69h1M24 71h1M27 71h1M34 71h3M38 71h1M21 72h1M29 72h1M30 74h1" />
<path stroke="#de5a39" d="M39 6h1M39 7h1M39 8h1M31 9h1M38 9h1M31 10h1M38 10h1M32 11h1M38 11h1M32 12h1M37 12h2M33 13h1M37 13h1M33 14h1M36 14h2M33 15h5M34 16h3M34 17h2M34 18h2M34 19h2M30 25h2M28 26h4M29 27h2M38 34h2M38 35h5M37 36h6M37 37h6M37 38h6M36 39h7M36 40h6M35 41h7M35 42h6M35 43h6M34 44h7M34 45h6M33 46h7M32 47h7M32 48h6M31 49h7M30 50h4M35 50h2M29 51h4M35 51h1M29 52h4M29 53h3M29 54h2M29 55h2M29 56h1" />
<path stroke="#947b6a" d="M36 7h2M35 8h1M34 9h1M33 10h1M50 10h1M41 12h1M54 13h1M52 16h1M54 17h1M55 18h1M57 19h1M58 20h1M60 21h1M57 23h1M44 24h1M48 24h1M59 24h1M16 25h1M24 25h1M15 26h2M23 26h1M27 26h1M46 26h1M62 26h1M15 27h3M28 27h1M16 28h4M25 28h1M28 28h1M41 28h1M55 28h1M60 28h2M11 29h1M14 29h5M23 29h1M25 29h2M39 29h1M59 29h3M13 30h2M18 30h1M59 30h2M11 31h1M19 31h1M61 31h2M10 32h1M20 32h1M60 32h1M21 33h1M62 33h2M61 34h1M64 34h1M60 35h1M63 35h3M62 36h3M66 36h2M60 37h2M69 37h1M58 38h3M69 38h1M58 39h1M68 39h2M49 48h1" />
<path stroke="#ffffff" d="M41 7h4M36 8h2M41 8h5M35 9h2M40 9h7M34 10h3M40 10h8M34 11h3M40 11h3M45 11h3M34 12h2M40 12h1M45 12h4M35 13h1M39 13h1M45 13h4M46 14h3M45 15h2M48 15h2M45 16h2M48 16h2M46 17h1M49 17h1M46 18h2M46 19h2M45 20h3M44 21h4M43 22h5M40 23h4M45 23h3M40 24h4M45 24h3M13 25h2M40 25h3M46 25h2M13 26h1M39 26h4M47 26h3M38 27h4M47 27h3M38 28h3M48 28h1M37 29h2M40 29h1M48 29h1M38 30h1M11 33h2" />
<path stroke="#e6dede" d="M46 8h1M47 9h2M48 10h2M48 11h3M49 12h4M49 13h5M49 14h6M47 15h1M50 15h1M52 15h5M44 16h1M47 16h1M50 16h2M54 16h4M45 17h1M47 17h2M50 17h3M55 17h4M44 18h2M48 18h6M56 18h4M43 19h3M48 19h8M58 19h3M43 20h2M48 20h1M51 20h6M59 20h3M42 21h2M53 21h1M55 21h4M61 21h2M41 22h2M56 22h4M58 23h3M60 24h3M48 25h1M61 25h3M53 26h1M63 26h2M35 27h2M50 27h1M54 27h2M35 28h3M50 28h1M56 28h1M36 29h1M36 30h1" />
<path stroke="#101010" d="M39 11h1M39 12h1M40 13h1M39 14h2M38 15h2M44 15h1M43 16h1M44 17h1M33 18h1M41 18h1M43 18h1M33 19h1M37 19h1M39 19h2M34 20h1M36 20h1M40 20h1M15 22h1M36 22h2M62 22h2M34 23h1M56 23h1M50 24h2M58 24h1M17 25h1M52 25h1M59 25h1M14 26h1M17 26h4M54 26h1M61 26h1M13 27h1M32 27h3M56 27h1M62 27h3M30 28h1M34 28h1M54 28h1M57 28h1M62 28h1M27 29h2M49 29h1M52 29h1M56 29h1M58 29h1M15 30h2M22 30h3M37 30h1M40 30h2M47 30h2M52 30h1M58 30h1M63 30h1M13 31h2M36 31h1M38 31h1M47 31h1M59 31h1M63 31h1M38 32h1M48 32h1M59 32h1M64 32h1M22 33h1M49 33h1M60 33h1M67 33h1M12 34h1M21 34h1M37 34h1M60 34h1M19 35h2M31 35h1M37 35h1M59 35h1M68 35h1M31 36h1M36 36h1M68 36h1M32 37h1M65 37h1M68 37h1M33 38h1M62 38h1M35 39h1M49 39h2M60 39h1M67 39h1M70 39h1M58 40h1M61 40h1M67 40h1M69 40h1M47 41h1M59 41h3M67 41h2M47 42h1M46 43h2M45 44h1M48 44h1M60 44h1M44 45h1M49 45h1M61 45h1M44 46h1M50 46h1M61 46h1M43 47h1M42 48h1M47 48h1M51 48h1M62 48h1M42 49h1M51 49h1M62 49h1M41 50h1M48 50h1M51 50h1M62 50h1M41 51h1M49 51h1M62 51h1M40 52h1M50 52h1M40 53h1M50 53h1M40 54h1M49 55h1M39 56h1M49 56h1M39 57h1M39 58h1M48 58h1M60 58h1M39 59h1M48 59h1M60 59h1M48 60h1M38 61h1M45 61h1M63 61h1M38 62h1M46 62h1M64 62h1M38 63h1M45 63h1M65 63h1M46 64h1M64 64h1M48 65h1M22 66h1M41 66h1M60 66h4M40 67h1M49 67h2M53 67h1M58 67h2M20 68h1M39 68h1M55 68h2M21 69h1M39 70h1M25 71h1M28 71h1M22 72h2M26 72h1M33 72h1M37 72h2M32 73h1M31 74h1" />
<path stroke="#b49c94" d="M51 11h1M55 14h1M51 15h1M53 16h1M53 17h1M54 18h1M56 19h1M37 20h1M57 20h1M35 21h3M54 21h1M59 21h1M35 22h1M39 22h2M55 22h1M60 22h1M44 23h1M61 23h1M13 24h3M15 25h1M50 25h2M24 26h1M50 26h2M19 27h1M22 27h1M25 27h1M51 27h2M23 28h1M51 28h2M19 29h2M51 29h1M12 30h1M19 30h2M61 30h2M10 31h1M20 31h2M60 31h1M21 32h1M61 32h3M61 33h1M65 33h2M62 34h1M65 34h2M61 35h2M66 35h2M60 36h2M59 37h1M48 48h1M49 49h2M49 50h2M50 51h1" />
<path stroke="#a43120" d="M43 12h1M36 13h1M42 13h2M42 14h3M42 15h2M42 16h1M36 17h1M40 17h4M42 18h1M38 20h1M39 21h2M33 24h1M32 25h2M32 26h1M59 27h2M59 28h1M39 32h2M39 33h4M47 33h2M31 34h4M40 34h9M32 35h5M43 35h7M35 36h1M43 36h3M48 36h3M33 37h3M43 37h5M50 37h2M34 38h2M43 38h1M45 38h5M52 38h2M43 39h1M45 39h2M51 39h4M42 40h3M46 40h3M50 40h6M42 41h3M46 41h1M51 41h6M41 42h4M46 42h1M48 42h10M41 43h4M48 43h11M41 44h4M49 44h11M40 45h4M50 45h10M40 46h4M51 46h10M39 47h4M52 47h9M38 48h4M52 48h9M38 49h4M52 49h9M37 50h4M52 50h8M36 51h5M52 51h4M57 51h3M36 52h4M52 52h3M57 52h3M36 53h4M52 53h3M58 53h1M36 54h4M53 54h1M58 54h1M37 55h2M37 56h2M37 57h1" />
<path stroke="#d58b29" d="M41 13h1M41 16h1M44 25h1M44 26h2M43 27h3M42 28h5M43 29h3M44 30h1M61 48h1M61 49h1M60 50h2M33 51h1M56 51h1M60 51h2M34 52h2M51 52h1M55 52h2M60 52h1M28 53h1M34 53h2M51 53h1M55 53h3M59 53h2M31 54h1M34 54h2M51 54h2M54 54h4M59 54h2M33 55h4M50 55h11M33 56h4M50 56h10M29 57h1M33 57h4M38 57h1M50 57h10M32 58h7M49 58h11M32 59h7M49 59h11M31 60h7M49 60h11M61 60h1M31 61h7M49 61h13M31 62h7M48 62h16M30 63h3M34 63h4M46 63h19M30 64h2M34 64h3M48 64h14M29 65h2M34 65h3M38 65h1M49 65h14M29 66h1M33 66h1M35 66h2M38 66h3M50 66h1M53 66h4M58 66h1M34 67h3M38 67h2M55 67h1M28 68h1M33 68h1M35 68h4M22 69h1M27 69h2M32 69h1M34 69h6M25 70h4M33 70h2M36 70h3M26 71h1M32 71h2M37 71h1M31 72h2M31 73h1" />
<path stroke="#ffcd31" d="M41 14h1M41 15h1M39 16h2M34 50h1M34 51h1M33 52h1M32 53h2M28 54h1M32 54h2M27 55h2M31 55h2M27 56h2M30 56h3M27 57h2M30 57h3M26 58h6M26 59h6M25 60h6M25 61h6M25 62h6M24 63h6M33 63h1M24 64h6M32 64h2M24 65h5M31 65h3M23 66h6M30 66h3M34 66h1M22 67h12M21 68h7M29 68h4M34 68h1M23 69h4M29 69h3M33 69h1M23 70h2M29 70h4M22 71h2M29 71h3M30 72h1" />
<path stroke="#dec5c5" d="M14 23h2M25 26h2M20 27h2M23 27h2M26 27h2M13 28h2M21 28h2M24 28h1M26 28h2M12 29h2M22 29h1M24 29h1M10 30h2M11 32h1M20 33h1M66 37h1M59 39h1M68 40h1" />
<path stroke="#a45a41" d="M43 26h1M42 29h1M43 30h1M45 30h1M44 31h1M61 52h1M60 56h1M49 57h1M47 60h1M46 61h3M24 62h1M47 62h1M37 64h1M62 64h1M23 65h1M37 65h1M39 65h1M63 65h1M37 66h1M49 66h1M59 66h1M37 67h1M56 67h1M22 70h1M35 70h1M21 71h1M30 73h1" />
<path stroke="#fff6ac" d="M19 34h2M67 37h1M67 38h1M59 40h2" />
</svg>