<svg xmlns="http://www.w3.org/2000/svg" viewBox="0 -0.5 80 80" shape-rendering="crispEdges">
<metadata>Made with Pixels to Svg https://codepen.io/shshaw/pen/XbxvNj</metadata>
<path stroke="#b46a41" d="M36 7h2M30 8h2M35 8h1M30 9h1M34 9h1M27 10h2M30 10h1M37 10h2M27 11h1M30 11h1M27 12h1M39 12h1M28 13h1M32 13h1M35 13h1M40 13h1M28 14h1M32 14h4M38 14h1M29 15h1M31 15h1M35 15h3M32 16h7M29 17h3M37 17h3M29 18h1M37 18h2M31 19h2M38 19h1M29 20h3M38 28h1M46 28h1M39 29h1M48 29h3M41 30h1M51 30h2M35 31h2M53 31h1M51 32h1M26 33h1M28 33h1M34 33h1M38 33h1M52 33h1M25 34h1M29 34h1M31 34h4M38 34h1M24 35h1M30 35h1M34 35h2M37 35h1M50 35h2M54 35h1M36 36h3M50 36h3M54 36h2M23 37h1M34 37h1M50 37h1M52 37h2M22 38h1M39 38h1M42 38h1M49 38h2M22 39h1M25 39h1M36 39h3M41 39h1M49 39h2M21 40h1M28 40h1M31 40h8M50 40h1M20 41h4M26 41h1M31 41h9M23 42h1M28 42h1M32 42h4M39 42h1M23 43h1M32 43h3M39 43h1M41 43h1M33 44h1M39 44h1M42 44h1M30 45h1M33 45h1M39 45h1M22 46h1M39 46h1M50 46h1M55 46h2M22 47h1M32 47h1M50 47h2M54 47h2M58 47h1M30 48h1M32 48h1M38 48h1M41 48h1M51 48h2M54 48h2M29 49h1M32 49h1M36 49h2M52 49h3M29 50h1M33 50h3M53 50h2M59 50h1M57 51h1M59 51h1M32 52h1M37 52h1M60 52h1M51 53h1M57 53h1M60 53h1M55 54h1M61 54h1M62 55h1M50 56h1M63 56h1M26 57h1M26 58h1M44 58h1M49 58h1M62 58h1M23 59h1M25 59h1M27 59h1M32 59h1M45 59h1M25 60h1M27 60h1M32 60h1M43 60h1M48 60h1M25 61h1M28 61h1M34 61h1M46 61h1M28 62h1M31 62h1M29 63h1M38 64h1M39 65h1" />
<path stroke="#ffcd73" d="M36 8h1M35 9h2M36 10h1M36 11h3M33 12h6M36 13h4M42 30h3M47 31h1M48 32h2M48 33h4M49 34h4M49 35h1M52 35h2M49 36h1M53 36h1M49 37h1M51 37h1M51 38h2M51 39h2M51 40h3M50 41h5M50 42h4M50 43h4M50 44h4M50 45h5M51 46h4M57 46h1M52 47h2M56 47h2M49 48h2M53 48h1M56 48h3M49 49h3M55 49h4M49 50h4M55 50h4M48 51h9M58 51h1M48 52h9M58 52h2M37 53h1M47 53h4M52 53h4M58 53h2M45 54h6M57 54h3M45 55h6M58 55h3M26 56h1M44 56h6M60 56h1M23 57h1M43 57h7M23 58h1M25 58h1M42 58h2M45 58h4M31 59h1M41 59h3M46 59h3M31 60h1M34 60h1M39 60h4M46 60h2M30 61h2M35 61h8M47 61h1M29 62h2M36 62h6M30 63h1M37 63h5M39 64h2" />
<path stroke="#292929" d="M37 8h1M32 9h1M37 9h1M33 10h1M39 10h1M29 11h1M39 11h1M30 12h1M33 13h2M31 14h1M36 14h2M39 14h2M30 15h1M38 15h1M29 16h1M39 16h1M43 16h1M50 16h1M56 16h1M44 17h1M51 17h1M53 17h1M56 17h1M28 18h1M45 18h1M52 18h1M28 19h1M46 19h1M56 25h1M54 26h2M51 27h3M35 28h2M47 28h4M32 29h2M30 30h1M54 30h1M28 31h1M54 31h1M57 31h1M27 32h1M52 32h1M57 32h1M36 33h1M53 33h1M55 33h1M58 33h1M61 33h1M36 34h1M54 34h1M61 34h1M28 35h1M55 35h2M62 35h1M20 36h3M28 36h1M39 36h3M56 36h1M42 37h1M65 38h1M32 39h4M53 39h1M64 39h1M24 40h1M29 40h2M41 40h1M54 40h3M63 40h1M25 41h1M30 41h1M41 41h1M60 41h2M27 42h1M31 42h1M41 42h1M61 42h1M29 43h1M31 43h1M54 43h1M60 43h1M22 44h1M29 44h1M32 44h1M54 44h1M59 44h1M20 45h1M22 45h1M32 45h1M42 45h1M55 45h4M17 46h1M20 46h1M30 46h1M32 46h1M42 46h1M58 46h1M18 47h1M21 47h1M30 47h1M42 47h1M18 48h1M22 48h1M59 48h1M16 49h1M41 49h1M59 49h1M17 50h1M40 50h1M17 51h1M26 51h1M30 51h1M39 51h1M25 52h1M31 52h1M38 52h1M57 52h1M24 53h1M33 53h4M24 54h1M51 54h1M56 54h1M24 55h1M51 55h1M16 56h1M23 56h1M59 56h1M17 57h1M50 57h1M60 57h1M64 57h1M18 58h1M22 58h1M61 58h1M63 58h1M19 59h1M44 59h1M49 59h1M58 59h1M61 59h1M20 60h4M33 60h1M45 60h1M57 60h2M61 60h1M24 61h1M32 61h1M43 61h1M48 61h1M57 61h2M61 61h1M25 62h1M35 62h1M42 62h1M47 62h1M56 62h2M60 62h1M31 63h1M36 63h1M42 63h1M60 63h1M30 64h1M37 64h1M41 64h1M48 64h3M59 64h1M40 65h1M47 65h2M52 65h1M58 65h1M44 66h3M54 66h3M39 67h5M39 68h1M38 70h1M38 71h1M31 72h7" />
<path stroke="#fff694" d="M31 9h1M31 10h2M34 10h2M28 11h1M31 11h5M28 12h2M31 12h2M29 13h3M29 14h2M43 31h4M42 32h6M42 33h6M41 34h8M41 35h8M42 36h4M48 36h1M24 37h1M43 37h3M23 38h3M43 38h3M47 38h1M23 39h2M43 39h2M47 39h2M22 40h2M44 40h1M47 40h2M24 41h1M42 41h1M46 41h4M24 42h3M42 42h2M46 42h4M24 43h4M42 43h8M25 44h3M43 44h7M26 45h1M29 45h1M43 45h7M24 46h1M28 46h2M43 46h6M24 47h2M28 47h2M43 47h5M23 48h7M42 48h6M26 49h3M42 49h5M27 50h2M43 50h4M27 51h3M45 51h1M26 52h4M41 52h2M25 53h5M38 53h1M41 53h4M27 54h2M31 54h1M34 54h4M40 54h5M60 54h1M28 55h1M31 55h2M35 55h3M40 55h5M61 55h1M30 56h4M36 56h1M39 56h5M61 56h2M27 57h1M30 57h5M39 57h4M61 57h3M27 58h9M38 58h4M28 59h3M33 59h8M28 60h3M35 60h4M29 61h1" />
<path stroke="#d5b44a" d="M32 15h3M30 16h2M32 17h2M36 17h1M30 18h3M29 19h2M40 29h1M42 31h1M41 33h1M40 35h1M25 36h1M46 36h2M25 37h1M46 37h3M46 38h1M48 38h1M42 39h1M45 39h2M42 40h2M45 40h2M49 40h1M43 41h3M44 42h2M28 43h1M23 44h2M28 44h1M23 45h3M27 45h2M23 46h1M25 46h3M49 46h1M23 47h1M26 47h2M48 47h2M48 48h1M47 49h2M41 50h2M47 50h2M40 51h5M46 51h2M30 52h1M39 52h2M43 52h5M30 53h3M39 53h2M45 53h2M25 54h2M29 54h2M32 54h2M38 54h2M25 55h3M29 55h2M33 55h2M38 55h2M24 56h2M27 56h3M34 56h2M37 56h2M24 57h2M28 57h2M35 57h4M24 58h1M36 58h2M24 59h1M24 60h1" />
<path stroke="#185a5a" d="M41 15h2M49 15h1M55 15h1M48 16h1M54 16h1M34 17h2M40 17h1M47 17h1M33 18h1M36 18h1M39 18h1M46 18h1M56 18h1M33 19h1M37 19h1M39 19h1M56 19h1M28 20h1M32 20h1M38 20h1M57 20h1M30 21h3M57 21h1M31 22h1M57 22h1M22 23h1M57 23h1M23 24h1M57 24h1M15 25h1M16 26h1M17 27h1M39 27h6M37 28h1M34 29h1M54 29h1M31 30h1M29 31h1M15 32h1M55 32h1M65 32h1M15 33h1M15 34h1M56 34h1M66 34h1M16 35h2M66 35h1M18 36h2M23 36h1M66 36h1M55 37h1M65 37h1M57 40h1M62 40h1M55 41h1M58 41h2M54 42h1M20 44h1M58 44h1M17 47h1M19 49h1M23 49h3M16 50h1M26 50h1M13 51h1M18 52h1M24 52h1M14 53h1M23 53h1M52 54h3M15 55h1M56 55h2M58 56h1M22 57h1M19 58h2M59 59h1M59 60h1M56 61h1M26 62h1M58 62h1M26 63h1M56 63h2M27 64h1M51 64h1M27 65h1M53 65h1M28 66h1M37 66h2M57 66h1M28 67h1M28 68h1M28 69h1M38 69h1M29 70h1M29 71h1M30 72h1" />
<path stroke="#8bcdcd" d="M41 16h1M41 17h1M34 18h1M40 18h3M34 19h3M40 19h3M33 20h5M39 20h5M33 21h11M34 22h11M34 23h11M34 24h6M20 25h1M35 25h2M15 26h1M20 26h1M15 27h2M19 27h2M15 28h3M19 28h3M15 29h7M15 30h7M58 30h1M16 31h6M38 31h4M60 31h1M16 32h4M32 32h3M39 32h2M62 32h1M16 33h3M30 33h4M39 33h2M64 33h1M16 34h2M30 34h1M39 34h1M64 34h2M38 35h2M65 35h1M54 38h2M54 39h1M19 44h1M18 45h1M16 48h1M23 50h3M15 51h2M24 51h2M15 52h1M15 53h1M16 54h1M16 55h1M53 55h3M17 56h1M51 56h6M51 57h5M50 58h5M50 59h5M51 60h3M32 63h1M29 64h1M31 64h2M28 65h5M29 66h3" />
<path stroke="#62a49c" d="M42 16h1M49 16h1M55 16h1M42 17h2M48 17h3M54 17h2M35 18h1M43 18h2M47 18h5M53 18h3M26 19h1M43 19h3M47 19h9M26 20h1M44 20h13M26 21h1M29 21h1M44 21h13M25 22h1M45 22h12M25 23h1M45 23h12M25 24h1M40 24h6M54 24h2M37 25h3M35 26h1M31 27h1M28 28h1M35 29h4M32 30h9M55 30h3M30 31h5M37 31h1M55 31h2M58 31h2M20 32h1M28 32h4M38 32h1M41 32h1M56 32h1M59 32h3M19 33h1M27 33h1M29 33h1M56 33h2M59 33h2M62 33h2M18 34h1M26 34h1M40 34h1M57 34h1M59 34h2M63 34h1M26 35h1M57 35h5M63 35h2M57 36h5M63 36h3M56 37h9M56 38h9M55 39h9M58 40h4M56 41h2M55 42h6M55 43h5M56 44h2M19 45h1M18 46h2M19 47h2M17 48h1M19 48h3M17 49h2M20 49h3M18 50h5M18 51h6M16 52h2M19 52h5M16 53h7M17 54h7M17 55h7M52 55h1M18 56h5M57 56h1M18 57h4M56 57h4M21 58h1M55 58h6M20 59h3M26 59h1M55 59h2M60 59h1M44 60h1M49 60h2M54 60h3M60 60h1M33 61h1M44 61h2M49 61h7M59 61h2M32 62h3M43 62h4M48 62h8M59 62h1M33 63h3M43 63h13M58 63h2M33 64h4M42 64h6M52 64h7M33 65h6M41 65h6M54 65h4M32 66h5M39 66h5M29 67h10M29 68h10M29 69h9M30 70h8M30 71h8" />
<path stroke="#418b7b" d="M27 19h1M21 22h1M20 23h1M20 24h1M46 24h8M56 24h1M14 25h1M19 25h1M24 25h1M40 25h16M14 26h1M19 26h1M36 26h18M14 27h1M18 27h1M32 27h7M45 27h6M57 27h3M14 28h1M18 28h1M29 28h6M55 28h2M60 28h2M14 29h1M26 29h6M62 29h1M14 30h1M24 30h6M63 30h1M15 31h1M22 31h6M64 31h1M21 32h6M58 32h1M20 33h6M65 33h1M19 34h6M58 34h1M62 34h1M18 35h6M26 36h1M62 36h1M26 37h1M54 37h1M53 38h1M17 42h2M16 43h1M19 43h1M15 44h1M55 44h1M15 45h1M14 46h1M14 47h1M13 48h1M13 49h1M13 50h1M14 52h1M15 54h1M57 59h1" />
<path stroke="#a4dede" d="M27 20h1M27 21h2M26 22h5M32 22h2M21 23h1M26 23h8M21 24h2M26 24h8M21 25h3M25 25h10M21 26h14M21 27h10M22 28h6M57 28h3M22 29h4M55 29h7M22 30h2M59 30h4M61 31h3M63 32h2M17 43h2M16 44h3M16 45h2M15 46h2M15 47h2M14 48h2M14 49h2M14 50h2M14 51h1M26 60h1M26 61h2M27 62h1M27 63h2M28 64h1" />
<path stroke="#deac5a" d="M39 28h7M41 29h7M45 30h6M48 31h5M50 32h1M53 34h1M25 35h1M24 36h1M56 53h1" />
<path stroke="#cdcdde" d="M35 32h1M27 34h1M27 37h1" />
<path stroke="#ffffff" d="M36 32h2M35 33h1M37 33h1M28 34h1M35 34h1M37 34h1M27 35h1M29 35h1M36 35h1M27 36h1M29 36h1M28 37h1" />
<path stroke="#f6a462" d="M31 35h3M31 36h3M30 37h3M35 37h4M29 38h9M26 39h5M31 48h1M39 48h1M30 49h2M38 49h2M30 50h3M36 50h4M31 51h8M33 52h4" />
<path stroke="#c58373" d="M30 36h1M34 36h2M29 37h1M33 37h1M39 37h3M26 38h3M38 38h1M40 38h2M31 39h1M39 39h2M25 40h3M39 40h2M27 41h3M40 41h1M29 42h2M36 42h3M40 42h1M30 43h1M35 43h4M40 43h1M30 44h2M34 44h5M40 44h2M31 45h1M34 45h5M40 45h2M31 46h1M33 46h6M40 46h2M31 47h1M33 47h9M33 48h5M40 48h1M33 49h3M40 49h1" />
</svg>