<svg xmlns="http://www.w3.org/2000/svg" viewBox="0 -0.5 80 80" shape-rendering="crispEdges">
<metadata>Made with Pixels to Svg https://codepen.io/shshaw/pen/XbxvNj</metadata>
<path stroke="#6a0000" d="M18 11h1M42 11h1M17 12h1M19 12h1M43 12h1M17 13h1M19 13h1M43 13h1M16 14h1M20 14h1M43 14h1M16 15h1M20 15h1M44 15h1M16 16h1M21 16h1M44 16h1M16 17h1M21 17h1M44 17h1M16 18h1M44 18h1M41 19h1M44 19h1M42 20h1M40 21h1M42 21h1M17 22h1M42 22h1M15 23h2M37 23h1M37 24h1M44 24h1M14 25h1M37 25h1M43 25h1M15 26h1M43 26h1M16 27h1M42 27h1M44 27h1M39 28h1M41 28h2M44 28h1M39 29h1M41 29h1M33 30h1M22 31h2M30 31h2M20 32h1M24 32h1M34 32h1M19 33h1M25 33h1M27 33h1M33 33h1M40 33h1M25 34h1M31 34h2M26 35h1M39 35h1M22 36h2M26 36h1M39 36h1M19 37h1M21 37h1M27 37h1M39 37h1M16 38h1M22 38h1M27 38h1M13 39h1M28 39h1M38 39h1M40 39h1M51 39h2M28 40h1M53 40h2M29 41h1M50 41h1M22 42h1M29 42h1M52 42h1M29 43h2M53 43h1M23 44h1M28 44h2M21 45h1M25 45h3M33 45h1M35 45h1M19 46h1M17 47h1M24 47h1M34 47h1M16 48h1M24 48h1M34 48h1M23 49h1M33 49h1M17 51h1M23 53h2M23 54h1M18 55h2M16 56h2M28 56h1M37 56h1M15 57h1M26 57h1M39 57h1M15 58h1M15 59h1M23 59h3M43 59h1M23 60h3M43 60h1M25 61h1M43 61h1M48 61h1M41 62h1M40 63h1M48 65h1M43 66h3M47 67h1" />
<path stroke="#e67b52" d="M18 12h1M42 12h1M18 13h1M41 13h2M17 14h2M41 14h2M17 15h2M40 15h3M17 16h2M40 16h3M17 17h1M39 17h3M17 18h1M39 18h2M10 19h1M17 19h1M39 19h2M11 20h1M38 20h2M39 21h1M8 25h3M43 32h3M41 33h1M20 34h3M45 34h3M17 35h1M20 35h2M40 35h1M45 35h3M18 36h1M40 36h2M44 36h3M16 37h1M40 37h1M42 37h4M47 37h1M13 38h2M40 38h1M42 38h3M46 38h1M42 39h3M25 43h3M64 44h2M66 45h3M17 48h2M58 48h2M17 49h3M24 49h3M59 49h1M18 50h3M24 50h5M35 50h3M60 50h1M35 51h3M60 51h1M36 52h3M42 62h4M41 63h6" />
<path stroke="#b46a39" d="M31 12h4M29 13h2M24 14h2M28 14h1M23 15h1M27 15h1M31 15h1M33 15h5M22 16h1M26 16h1M32 16h1M22 17h1M26 17h1M36 17h2M21 18h1M25 18h1M45 18h4M20 19h1M20 20h1M19 21h1M46 21h3M19 22h1M49 22h3M18 23h1M52 23h4M18 24h1M17 25h1M17 26h1M17 27h1M51 27h2M16 28h1M53 28h4M55 29h1M17 30h1M21 30h1M32 30h1M17 31h1M21 31h1M52 31h1M18 32h1M29 32h1M54 32h2M28 33h1M56 33h1M30 34h1M54 34h1M57 34h1M55 36h1M56 39h1M35 40h1M18 41h1M25 41h1M31 41h1M18 42h1M17 43h1M17 44h1M17 45h1M47 47h1M48 49h1M65 49h1M49 50h1M66 50h2M68 51h2M67 53h1M70 54h6M74 55h1M72 56h1M69 57h1M66 58h1M69 58h1M70 59h2" />
<path stroke="#940800" d="M41 12h1M40 13h1M40 14h1M39 15h1M39 16h1M38 17h1M38 18h1M41 18h1M38 19h1M37 20h1M40 20h1M37 21h1M37 22h1M42 23h1M14 24h1M16 24h1M41 26h1M19 31h1M43 31h3M21 32h1M23 32h1M41 32h2M46 32h2M17 34h2M40 34h1M48 34h1M16 35h1M14 36h2M48 36h1M13 37h1M22 37h3M49 37h1M12 38h1M41 38h1M39 39h1M41 39h1M45 39h1M39 40h1M41 40h1M45 40h1M39 41h2M46 41h1M39 42h4M31 43h1M35 43h2M38 43h6M35 44h10M28 45h1M34 45h1M36 45h9M20 46h1M34 46h2M39 46h7M18 47h1M41 47h5M42 48h5M43 49h4M17 50h1M22 50h1M31 50h2M43 50h4M18 51h5M24 51h1M28 51h5M43 51h4M18 52h6M25 52h8M42 52h5M19 53h4M26 53h7M34 53h1M42 53h4M21 54h2M24 54h2M28 54h6M35 54h2M41 54h5M22 55h6M35 55h10M22 56h6M38 56h7M21 57h5M40 57h5M19 58h4M25 58h1M42 58h3M16 59h4M44 59h2M42 60h1M44 60h2M47 60h1M42 61h1M44 61h2M47 61h1M48 62h1M48 63h1M46 64h3M41 65h7M43 67h4M43 68h4" />
<path stroke="#ffffee" d="M31 13h2M30 14h2M24 15h1M28 15h3M24 16h1M27 16h3M33 16h3M23 17h2M27 17h3M31 17h4M22 18h3M26 18h12M21 19h4M26 19h12M45 19h3M21 20h16M45 20h2M20 21h17M45 21h1M20 22h17M45 22h4M19 23h18M45 23h7M19 24h18M45 24h2M51 24h3M18 25h19M44 25h5M18 26h19M44 26h6M18 27h8M27 27h9M45 27h6M17 28h3M23 28h2M26 28h8M45 28h8M17 29h3M26 29h6M46 29h4M51 29h4M18 30h1M26 30h3M47 30h3M52 30h2M27 31h1M48 31h3M27 32h1M48 32h3M50 33h1M50 34h2M51 35h1M20 38h1M23 38h3M20 39h1M19 40h2M19 41h1M19 42h1M18 43h1M28 43h1M24 44h4M63 48h1M63 49h2M64 50h2M64 51h4M65 52h4M66 53h1M67 54h2M69 55h5M71 56h1M66 59h4" />
<path stroke="#101010" d="M33 13h1M32 14h1M25 15h1M13 16h2M25 16h1M31 16h1M36 16h1M11 17h1M15 17h1M25 17h1M35 17h1M12 18h1M16 19h1M48 19h1M6 20h1M14 20h1M16 20h1M41 20h1M44 20h1M47 20h1M7 21h1M16 21h1M41 21h1M44 21h1M8 22h2M40 22h2M44 22h1M17 23h1M40 23h2M44 23h1M17 24h1M40 24h2M54 24h1M40 25h2M53 25h1M3 26h1M40 26h1M52 26h1M5 27h2M14 27h2M40 27h1M8 28h5M16 29h1M16 30h1M34 30h1M54 30h1M18 31h1M33 31h2M53 31h1M17 32h1M30 32h1M33 32h1M18 33h1M48 33h1M49 34h1M55 34h2M49 35h1M55 35h1M49 36h1M20 37h1M50 37h1M56 37h1M64 37h3M17 38h3M21 38h1M39 38h1M50 38h1M56 38h1M61 38h2M70 38h1M14 39h2M19 39h1M22 39h6M59 39h1M69 39h1M18 40h1M23 40h5M38 40h1M40 40h1M57 40h2M67 40h2M23 41h1M26 41h3M35 41h1M38 41h1M41 41h2M47 41h3M56 41h1M64 41h3M20 42h1M31 42h1M35 42h2M38 42h1M43 42h4M51 42h1M19 43h1M21 43h2M32 43h1M34 43h1M37 43h1M44 43h1M54 43h1M18 44h1M22 44h1M32 44h1M34 44h1M45 44h1M55 44h1M23 45h2M45 45h1M55 45h1M24 46h1M46 46h1M55 46h1M60 46h1M46 47h1M55 47h1M61 47h2M47 48h1M56 48h1M62 48h1M64 48h3M16 49h1M47 49h1M56 49h1M68 49h6M16 50h1M23 50h1M33 50h1M47 50h1M23 51h1M33 51h1M47 51h1M57 51h1M70 51h1M17 52h1M24 52h1M33 52h1M47 52h1M69 52h1M18 53h1M25 53h1M33 53h1M46 53h1M58 53h1M68 53h1M19 54h2M26 54h2M34 54h1M46 54h1M59 54h1M21 55h1M28 55h7M45 55h1M60 55h1M29 56h1M35 56h2M45 56h1M61 56h1M73 56h1M27 57h2M38 57h1M45 57h1M70 57h2M23 58h2M27 58h1M29 58h1M40 58h2M45 58h2M67 58h2M20 59h3M27 59h1M30 59h2M42 59h1M46 59h2M16 60h4M22 60h1M27 60h1M32 60h2M41 60h1M46 60h1M48 60h1M68 60h2M23 61h2M27 61h1M34 61h3M41 61h1M46 61h1M66 61h2M25 62h2M37 62h4M49 62h1M63 62h3M49 63h1M61 63h2M40 64h1M49 64h4M58 64h3M40 65h1M49 65h1M53 65h5M41 66h2M46 66h3M41 67h1M48 67h1M41 68h1M47 68h1M42 69h5" />
<path stroke="#bd3129" d="M19 14h1M19 15h1M43 15h1M19 16h2M43 16h1M18 17h3M42 17h2M18 18h3M42 18h2M18 19h2M42 19h2M12 20h1M17 20h3M43 20h1M12 21h2M17 21h2M38 21h1M43 21h1M13 22h2M18 22h1M38 22h2M43 22h1M38 23h2M43 23h1M10 24h2M15 24h1M38 24h2M42 24h2M11 25h2M15 25h2M38 25h2M42 25h1M16 26h1M38 26h2M42 26h1M38 27h2M41 27h1M22 32h1M20 33h5M44 33h4M19 34h1M23 34h2M43 34h1M22 35h4M42 35h1M48 35h1M19 36h3M24 36h2M42 36h1M47 36h1M17 37h2M25 37h2M41 37h1M46 37h1M48 37h1M15 38h1M45 38h1M47 38h3M46 39h5M62 39h4M42 40h3M46 40h7M60 40h3M43 41h3M51 41h4M24 42h5M53 42h1M24 43h1M60 43h3M30 44h2M62 44h2M22 45h1M29 45h4M57 45h1M21 46h3M25 46h9M36 46h3M57 46h2M19 47h5M25 47h9M35 47h6M58 47h1M19 48h5M25 48h9M35 48h7M20 49h3M27 49h6M34 49h9M21 50h1M29 50h2M34 50h1M38 50h5M25 51h3M34 51h1M38 51h5M34 52h2M39 52h3M35 53h7M37 54h4M20 55h1M18 56h4M16 57h5M16 58h3M26 58h1M26 59h1M26 60h1M26 61h1M46 62h2M47 63h1M41 64h5M42 67h1M42 68h1" />
<path stroke="#eede9c" d="M29 14h1M25 19h1M47 24h4M49 25h4M50 26h2M36 27h2M20 28h3M34 28h4M21 29h3M25 29h1M32 29h6M50 29h1M19 30h2M22 30h2M25 30h1M29 30h3M35 30h4M50 30h1M20 31h1M25 31h2M28 31h2M35 31h4M26 32h1M35 32h5M26 33h1M34 33h6M49 33h1M51 33h1M26 34h3M33 34h6M27 35h11M50 35h1M27 36h10M51 36h2M28 37h9M52 37h1M28 38h9M21 39h1M29 39h8M21 40h2M29 40h6M36 40h2M21 41h2M30 41h1M32 41h3M36 41h2M30 42h1M32 42h3M37 42h1M33 43h1M33 44h1M64 52h1M65 53h1M66 54h1M67 55h2M69 56h2M65 59h1M67 60h1" />
<path stroke="#5a9c00" d="M3 15h4M3 16h1M8 16h2M11 16h2M10 17h1M4 18h1M5 19h1M13 19h2M8 21h1M10 22h2M5 23h2M12 23h1M3 24h1M2 25h1M4 26h1M7 27h1M13 27h1M67 37h4M63 38h1M60 39h1M55 41h1M57 41h1M61 41h3M54 42h1M65 42h3M69 43h1M71 44h1M59 45h1M73 45h1M61 46h1M74 46h1M63 47h1M75 47h1M67 48h1M76 48h1M62 49h1M74 49h3M57 50h1M63 50h1M63 51h1M58 52h1M63 52h1M63 53h1M62 55h1M62 56h1" />
<path stroke="#acf641" d="M4 16h3M5 17h5M5 18h7M6 19h4M11 19h2M7 20h4M9 21h2M8 23h3M5 24h5M3 25h5M5 26h7M65 43h3M66 44h4M63 45h3M69 45h3M62 46h12M60 47h1M64 47h11M60 48h2M68 48h8M57 49h2M60 49h2M58 50h2M61 50h2M58 51h2M61 51h2M59 52h4M59 53h4M60 54h2M61 55h1" />
<path stroke="#83cd31" d="M7 16h1M4 17h1M12 17h3M13 18h3M15 19h1M13 20h1M15 20h1M11 21h1M14 21h2M12 22h1M15 22h2M7 23h1M11 23h1M13 23h2M4 24h1M12 24h2M13 25h1M12 26h3M8 27h5M64 38h6M61 39h1M66 39h3M59 40h1M63 40h4M58 41h3M55 42h10M55 43h5M63 43h2M68 43h1M56 44h6M70 44h1M56 45h1M58 45h1M60 45h3M72 45h1M56 46h1M59 46h1M56 47h2M59 47h1M57 48h1M62 54h1" />
<path stroke="#dec552" d="M23 16h1M30 16h1M30 17h1M37 26h1M26 27h1M43 27h1M25 28h1M38 28h1M40 28h1M43 28h1M20 29h1M24 29h1M38 29h1M40 29h1M42 29h4M24 30h1M39 30h8M51 30h1M24 31h1M39 31h4M46 31h2M51 31h1M25 32h1M28 32h1M40 32h1M51 32h3M52 33h4M29 34h1M39 34h1M52 34h2M38 35h1M52 35h3M37 36h2M50 36h1M53 36h2M37 37h2M51 37h1M53 37h3M26 38h1M37 38h2M51 38h5M37 39h1M53 39h3M55 40h2M20 41h1M24 41h1M21 42h1M23 42h1M47 42h4M23 43h1M45 43h8M46 44h9M46 45h9M47 46h8M48 47h7M48 48h8M49 49h7M48 50h1M50 50h7M48 51h9M48 52h10M47 53h11M64 53h1M47 54h12M63 54h3M69 54h1M46 55h14M63 55h4M30 56h5M46 56h15M63 56h6M29 57h9M46 57h23M30 58h10M47 58h19M32 59h10M48 59h17M34 60h7M49 60h18M37 61h4M49 61h17M50 62h13M50 63h11M53 64h5" />
<path stroke="#ffd562" d="M32 31h1M19 32h1M31 32h2M29 33h4" />
<path stroke="#ffc583" d="M42 33h2M41 34h2M44 34h1M18 35h2M41 35h1M43 35h2M16 36h2M43 36h1M14 37h2" />
</svg>