<svg xmlns="http://www.w3.org/2000/svg" viewBox="0 -0.5 80 80" shape-rendering="crispEdges">
<metadata>Made with Pixels to Svg https://codepen.io/shshaw/pen/XbxvNj</metadata>
<path stroke="#527b83" d="M27 19h3M34 19h2M26 20h1M30 20h4M24 23h1M43 24h1M45 27h1M26 28h1M29 28h1M23 30h1M26 30h1M30 30h1M24 31h1M26 32h2M33 32h2M25 33h1M29 33h4M29 35h1M37 35h5M47 35h1M32 36h10M30 37h1M48 37h1M31 38h1M29 40h1M28 41h3M51 41h1M29 42h2M33 43h1M31 46h2M44 46h1M33 47h1M35 48h1M40 48h3M38 49h4M38 50h1M43 52h1M31 53h1M34 53h1M46 53h2M33 54h3M45 54h5M35 55h2M47 55h4M36 56h1M51 56h1" />
<path stroke="#101010" d="M36 19h3M39 20h2M25 21h1M41 21h1M24 22h1M42 22h1M43 23h1M24 24h1M44 24h1M24 25h1M35 25h1M44 25h1M45 26h1M22 27h1M46 27h1M22 28h1M46 28h1M22 29h1M47 29h1M22 30h1M27 30h3M39 30h1M47 30h1M25 31h2M31 31h3M37 31h2M48 31h1M23 32h1M35 32h2M48 32h1M24 33h1M48 33h1M25 34h2M49 34h1M27 35h2M45 35h1M49 35h1M29 36h2M45 36h1M49 36h1M29 37h1M31 37h1M46 37h1M50 37h1M29 38h1M32 38h1M46 38h1M50 38h1M28 39h1M32 39h1M47 39h1M51 39h1M28 40h1M31 40h1M33 40h1M47 40h1M51 40h1M27 41h1M31 41h1M33 41h1M48 41h1M52 41h1M31 42h1M33 42h1M48 42h1M52 42h1M25 43h2M30 43h1M48 43h1M52 43h1M30 44h1M32 44h1M47 44h1M29 45h2M32 45h1M47 45h1M53 45h1M28 46h2M53 46h1M28 47h1M31 47h1M43 47h1M46 47h1M54 47h1M27 48h1M30 48h1M34 48h1M43 48h1M46 48h1M54 48h1M26 49h1M30 49h1M36 49h2M42 49h1M46 49h1M54 49h1M19 50h2M26 50h1M29 50h1M39 50h4M46 50h1M55 50h1M21 51h5M29 51h1M37 51h2M42 51h1M46 51h1M49 51h1M55 51h1M29 52h1M36 52h1M42 52h1M47 52h1M49 52h1M52 52h3M30 53h1M35 53h1M43 53h1M48 53h4M32 54h1M36 54h1M44 54h1M50 54h1M28 55h2M37 55h1M45 55h2M51 55h1M27 56h1M37 56h1M47 56h1M52 56h1M27 57h1M29 57h1M31 57h1M35 57h2M45 57h2M52 57h1M28 58h7M44 58h1M51 58h1M44 59h1M46 59h1M48 59h1M51 59h1M45 60h6" />
<path stroke="#9ce6e6" d="M27 20h2M26 21h6M25 22h8M27 23h6M27 24h5M28 25h2M31 49h1M30 50h3M30 51h3M31 52h1" />
<path stroke="#73c5cd" d="M29 20h1M34 20h5M32 21h9M33 22h9M35 23h2M39 23h4M32 24h1M39 24h4M27 25h1M30 25h3M39 25h5M26 26h7M39 26h6M26 27h7M39 27h2M43 27h2M25 28h1M27 28h2M30 28h4M38 28h2M44 28h2M23 29h16M45 29h2M24 30h2M31 30h8M45 30h2M34 31h3M45 31h3M24 32h2M37 32h3M44 32h4M26 33h3M33 33h8M43 33h5M27 34h17M45 34h4M30 35h7M42 35h2M46 35h1M49 37h1M47 38h3M48 39h3M48 40h3M49 41h2M28 42h1M47 42h1M49 42h3M27 43h3M46 43h2M51 43h1M28 44h2M33 44h2M44 44h3M33 45h14M33 46h11M45 46h1M32 47h1M34 47h9M44 47h2M31 48h3M36 48h4M44 48h2M32 49h4M43 49h3M33 50h5M43 50h3M33 51h4M43 51h3M30 52h1M32 52h4M44 52h3M32 53h2M44 53h2" />
<path stroke="#39416a" d="M25 23h2M33 23h1M38 23h1M23 24h1M26 24h1M23 25h1M26 25h1M22 26h1M25 26h1M24 27h2M49 43h2M25 44h3M48 44h4M22 45h7M48 45h5M20 46h2M26 46h2M48 46h5M19 47h2M26 47h2M47 47h6M19 48h1M25 48h2M47 48h1M52 48h2M19 49h1M24 49h2M47 49h1M52 49h2M24 50h1M47 50h1M52 50h3M47 51h2M53 51h1M48 52h1M28 56h1M30 56h2M28 57h1M30 57h1M32 57h2M47 57h2M45 58h1M47 58h1M49 58h2M45 59h1M47 59h1M49 59h1" />
<path stroke="#313141" d="M34 23h1M37 23h1M33 24h1M35 24h2M38 24h1M33 25h1M38 25h1M33 26h1M38 26h1M33 27h2M37 27h2M23 28h2M34 28h4M23 31h1M44 34h1M44 35h1M48 35h1M31 36h1M42 36h3M46 36h3M32 37h13M47 37h1M30 38h1M34 38h9M29 39h3M30 40h1M26 42h2M22 44h3M52 44h1M20 45h2M19 46h1M22 46h1M46 46h2M18 47h1M21 47h1M25 47h1M53 47h1M18 48h1M20 48h1M24 48h1M48 48h1M51 48h1M18 49h1M20 49h1M23 49h1M48 49h1M51 49h1M23 50h1M25 50h1M48 50h1M51 50h1M52 51h1M54 51h1M30 55h5M29 56h1M32 56h4M48 56h3M34 57h1M49 57h3M46 58h1M48 58h1M50 59h1" />
<path stroke="#f6e618" d="M25 24h1M25 25h1M34 25h1M36 25h2M23 26h2M34 26h4M23 27h1M35 27h2" />
<path stroke="#ac9410" d="M34 24h1M37 24h1" />
<path stroke="#9c3152" d="M41 27h2M40 28h1M43 28h1M39 29h1M44 29h1M44 30h1M39 31h1M44 31h1M40 32h1M43 32h1M41 33h2M23 46h1M25 46h1M50 48h1M21 50h1M51 52h1" />
<path stroke="#f66aac" d="M41 28h2M40 29h1M43 29h1M40 30h1M43 30h1M40 31h4M41 32h2M24 46h1M22 47h3M21 48h3M49 48h1M21 49h2M49 49h2M22 50h1M49 50h2M50 51h2M50 52h1" />
<path stroke="#ffa4de" d="M41 29h2M41 30h2" />
<path stroke="#eeeeff" d="M27 31h1M29 31h1M29 32h1M31 32h2M44 38h2M43 39h3M43 40h1M46 40h1M45 41h2M42 42h4M35 43h9M36 44h6" />
<path stroke="#a4a4d5" d="M28 31h1M30 31h1M28 32h1M30 32h1M33 39h2M42 39h1M34 40h9M44 40h1M35 41h7M44 41h1M47 41h1M34 42h1M46 42h1M34 43h1M44 43h2M35 44h1M42 44h2" />
<path stroke="#626a9c" d="M45 37h1M33 38h1M43 38h1M35 39h7M46 39h1M45 40h1M34 41h1M42 41h2M35 42h7" />
</svg>