<svg xmlns="http://www.w3.org/2000/svg" viewBox="0 -0.5 68 56" shape-rendering="crispEdges">
<metadata>Made with Pixels to Svg https://codepen.io/shshaw/pen/XbxvNj</metadata>
<path stroke="#000000" d="M30 23h5M30 24h1M35 24h2M31 25h1M37 25h1M25 26h1M27 26h1M32 26h1M38 26h1M24 27h1M26 27h1M28 27h1M30 27h2M39 27h1M23 28h1M39 28h2M42 28h1M23 29h1M41 29h1M43 29h1M23 30h1M44 30h1M23 31h1M44 31h1M24 32h1M44 32h1M23 33h1M43 33h1M23 34h1M43 34h1M23 35h1M44 35h1M44 36h1M23 37h1M43 37h1M22 38h1M42 38h1M22 39h1M43 39h1M22 40h1M43 40h1M23 41h1M43 41h1M24 42h1M28 42h1M43 42h1M25 43h3M29 43h1M42 43h1M41 44h1M27 45h1M40 45h1M27 46h1M39 46h1M28 47h1M38 47h1M27 48h1M39 48h1M26 49h1M40 49h1M27 50h1M41 50h1M28 51h3M34 51h2M39 51h2M31 52h3M36 52h3" />
<path stroke="#ffffee" d="M31 24h1M34 24h1M34 25h3M36 26h2M36 27h3M30 28h1M33 28h1M36 28h2M33 29h1M24 40h2M24 41h1M36 41h1M25 42h1M36 42h2M36 43h4M32 47h2M29 48h1M31 48h2M30 49h2" />
<path stroke="#fefeee" d="M32 24h2M33 25h1M34 26h2M34 27h1" />
<path stroke="#ffffff" d="M32 25h1M35 27h1" />
<path stroke="#fffad5" d="M33 26h1M32 27h2" />
<path stroke="#9cc65f" d="M25 27h1M24 29h1M26 32h1" />
<path stroke="#5a8a36" d="M27 27h1M27 28h1M26 29h2M40 29h1M24 30h2M39 30h2M38 31h3M42 32h2M33 38h1M33 39h1" />
<path stroke="#9cc75a" d="M24 28h1" />
<path stroke="#9cc660" d="M25 28h1M25 29h1M42 29h1M27 30h1M42 30h1M27 31h1M42 31h2M27 32h1M39 32h2M39 33h2" />
<path stroke="#738a39" d="M26 28h1" />
<path stroke="#5a8b34" d="M28 28h1" />
<path stroke="#084d31" d="M29 28h1M28 29h1M39 29h1M26 30h1M38 30h1M26 31h1M25 32h1M41 32h1M42 34h1M41 35h2" />
<path stroke="#e9d65a" d="M31 28h1M30 29h1M28 48h1M29 49h1" />
<path stroke="#f6ee9c" d="M32 28h1M29 29h1M32 29h1M36 29h2M29 30h4M35 30h3M29 31h2M34 31h3M29 32h5M37 32h1M24 33h1M30 33h4M37 33h1M24 34h2M37 34h2M36 35h1M39 35h1M25 38h1M30 38h3M24 39h2M29 39h4M32 40h2M38 40h1M38 41h2M30 42h4M42 42h1M31 43h2M36 46h3M37 47h1M27 49h1M35 49h1M28 50h4M34 50h2M38 50h3M31 51h3M36 51h3" />
<path stroke="#ffffe6" d="M34 28h1M35 41h1M40 43h1M30 46h1" />
<path stroke="#f1e5a7" d="M35 28h1" />
<path stroke="#eee683" d="M38 28h1M38 29h1" />
<path stroke="#f4eaa4" d="M31 29h1M28 49h1" />
<path stroke="#e3cb68" d="M34 29h1" />
<path stroke="#d5b229" d="M35 29h1M39 42h1" />
<path stroke="#709b4c" d="M28 30h1M41 30h1M43 30h1M28 31h1M41 31h1M38 32h1M26 33h2M38 33h1M39 34h1M40 35h1" />
<path stroke="#e6d65a" d="M33 30h1M31 31h3M29 33h1M27 34h1M29 34h5M24 35h3M28 35h1M30 35h1M32 35h2M25 36h2M31 36h1M24 37h1M30 37h2M39 38h3M38 39h1M39 40h3M25 41h1M40 41h1M33 43h1M29 44h1M35 44h1M38 44h3M28 45h1M34 45h1M30 48h1M34 48h2M34 49h1M32 50h2M36 50h2" />
<path stroke="#cdae39" d="M34 30h1M36 34h1M37 35h1M24 38h1M23 40h1M41 41h1M40 42h2" />
<path stroke="#5a8a31" d="M24 31h1" />
<path stroke="#5a8935" d="M25 31h1M42 33h1" />
<path stroke="#a48531" d="M37 31h1M28 32h1M28 33h1M40 37h2M42 39h1M35 40h1M34 41h1M30 43h1M32 44h2" />
<path stroke="#f6f294" d="M34 32h2M27 41h1" />
<path stroke="#ac8520" d="M36 32h1" />
<path stroke="#aca362" d="M25 33h1" />
<path stroke="#dbce70" d="M34 33h1" />
<path stroke="#a48529" d="M35 33h1M39 37h1" />
<path stroke="#c5a84a" d="M36 33h1" />
<path stroke="#416f35" d="M41 33h1M41 34h1" />
<path stroke="#c5ac44" d="M26 34h1" />
<path stroke="#a48331" d="M28 34h1M29 35h1M31 35h1M30 36h1" />
<path stroke="#eed24a" d="M34 34h1" />
<path stroke="#9c873d" d="M35 34h1M34 35h1" />
<path stroke="#9cc763" d="M40 34h1" />
<path stroke="#a4822e" d="M27 35h1" />
<path stroke="#4a3c31" d="M35 35h1M27 38h1M29 40h1" />
<path stroke="#ffe69c" d="M38 35h1" />
<path stroke="#e6ba4a" d="M43 35h1" />
<path stroke="#000010" d="M24 36h1M28 44h1" />
<path stroke="#414041" d="M27 36h1M26 37h2M36 37h1M38 38h1M39 39h3M32 41h2M34 44h1M36 44h1M35 45h1M37 45h3M36 47h1" />
<path stroke="#7b9242" d="M28 36h1M28 37h1M34 39h2" />
<path stroke="#f9f9f9" d="M29 36h1" />
<path stroke="#ac8d29" d="M32 36h2" />
<path stroke="#f6c25a" d="M34 36h1M35 37h1" />
<path stroke="#523041" d="M35 36h1" />
<path stroke="#eede73" d="M36 36h2M37 37h1M26 38h1M26 39h1M28 40h1M28 41h1" />
<path stroke="#fff68b" d="M38 36h1" />
<path stroke="#e0d16a" d="M39 36h1M38 37h1" />
<path stroke="#e6d652" d="M40 36h1M34 42h1M34 43h1" />
<path stroke="#c5ae41" d="M41 36h1" />
<path stroke="#998c3c" d="M42 36h1" />
<path stroke="#e6d25a" d="M43 36h1M42 37h1" />
<path stroke="#4c4729" d="M25 37h1M29 45h1" />
<path stroke="#41701e" d="M29 37h1M34 38h1" />
<path stroke="#c8b36d" d="M32 37h1" />
<path stroke="#fcfcfc" d="M33 37h1" />
<path stroke="#bf9152" d="M34 37h1" />
<path stroke="#dec24a" d="M23 38h1M23 39h1" />
<path stroke="#949788" d="M28 38h1" />
<path stroke="#739544" d="M29 38h1" />
<path stroke="#eed65a" d="M35 38h1" />
<path stroke="#8b7d4c" d="M36 38h1M31 44h1" />
<path stroke="#524429" d="M37 38h1M30 44h1" />
<path stroke="#9c8d52" d="M27 39h1M29 41h1" />
<path stroke="#523439" d="M28 39h1" />
<path stroke="#ffee94" d="M36 39h2M30 45h2" />
<path stroke="#e3d262" d="M26 40h1M26 41h1" />
<path stroke="#d0b231" d="M27 40h1" />
<path stroke="#ffde94" d="M30 40h1" />
<path stroke="#866a57" d="M31 40h1" />
<path stroke="#e0d6a9" d="M34 40h1" />
<path stroke="#f4eaa1" d="M36 40h2M33 46h1M33 48h1M32 49h1" />
<path stroke="#a48431" d="M42 40h1M42 41h1" />
<path stroke="#4a3039" d="M30 41h2" />
<path stroke="#e9d654" d="M37 41h1M32 46h1M33 49h1" />
<path stroke="#fff6cd" d="M26 42h2" />
<path stroke="#414241" d="M29 42h1" />
<path stroke="#988b45" d="M35 42h1" />
<path stroke="#e3cb6a" d="M38 42h1" />
<path stroke="#4a4039" d="M35 43h1" />
<path stroke="#eee4ac" d="M41 43h1" />
<path stroke="#fff6c5" d="M37 44h1M36 45h1" />
<path stroke="#fff28b" d="M32 45h1" />
<path stroke="#e0ce6d" d="M33 45h1" />
<path stroke="#54534f" d="M28 46h1" />
<path stroke="#fffaee" d="M29 46h1M29 47h1" />
<path stroke="#d5b629" d="M31 46h1" />
<path stroke="#cac691" d="M34 46h1" />
<path stroke="#625518" d="M35 46h1" />
<path stroke="#e3ce68" d="M30 47h2" />
<path stroke="#ffffcd" d="M34 47h1" />
<path stroke="#968d54" d="M35 47h1" />
<path stroke="#fff694" d="M36 48h1M36 49h1" />
<path stroke="#4a4839" d="M37 48h1" />
<path stroke="#dec652" d="M38 48h1M38 49h2" />
<path stroke="#c2bc75" d="M37 49h1" />
</svg>