<svg xmlns="http://www.w3.org/2000/svg" viewBox="0 -0.5 68 56" shape-rendering="crispEdges">
<metadata>Made with Pixels to Svg https://codepen.io/shshaw/pen/XbxvNj</metadata>
<path stroke="#000000" d="M20 15h1M19 16h1M21 16h1M19 17h1M22 17h1M49 17h2M23 18h1M47 18h2M51 18h1M19 19h1M24 19h1M40 19h2M45 19h2M51 19h1M19 20h1M25 20h1M27 20h1M39 20h1M50 20h1M20 21h1M26 21h1M28 21h1M37 21h2M48 21h2M20 22h1M28 22h1M21 23h1M28 23h1M48 23h3M35 24h1M51 24h1M20 25h2M36 25h1M49 25h2M19 26h1M28 26h1M37 26h1M48 26h1M18 27h1M29 27h1M31 27h1M33 27h1M37 27h1M49 27h1M17 28h1M34 28h1M50 28h1M17 29h1M35 29h1M48 29h2M16 30h1M46 30h1M16 31h1M47 31h1M16 32h1M45 32h3M17 33h1M26 33h1M44 33h1M20 34h1M25 34h1M27 34h1M42 34h3M21 35h4M26 35h1M26 36h1M40 36h1M42 36h2M27 37h1M41 37h1M44 37h1M43 38h1M25 39h1M44 39h1M25 40h1M43 40h1M26 41h1M40 41h1M42 41h1M27 42h1M29 42h1M31 42h1M33 42h1M30 43h1M42 43h1M33 44h1M40 44h2M29 45h2M32 45h1M41 45h1M28 46h1M31 46h1M34 46h3M39 46h2M29 47h1M27 48h2M34 48h1M26 49h1M29 49h1M34 49h1M27 50h2M30 50h1M33 50h1M30 51h1M32 51h1M31 52h1" />
<path stroke="#2995d5" d="M20 16h1M20 17h2M49 18h2M47 19h4M48 20h2M21 22h1M44 24h2M48 24h3M45 25h1M48 25h1M48 27h1M48 28h2M46 31h1M40 45h1M29 48h1M27 49h2M31 50h1M31 51h1" />
<path stroke="#180800" d="M20 18h1M44 20h1M39 43h1" />
<path stroke="#3199d5" d="M21 18h1M20 19h1M45 20h1M45 21h1M46 23h2M46 27h2M46 28h2M40 43h2" />
<path stroke="#89a4a9" d="M22 18h1" />
<path stroke="#203847" d="M21 19h1M44 21h1" />
<path stroke="#445254" d="M22 19h1" />
<path stroke="#cdf6ff" d="M23 19h1" />
<path stroke="#3f403f" d="M20 20h1M21 21h1" />
<path stroke="#bdc2bd" d="M21 20h1" />
<path stroke="#d5b2ac" d="M22 20h1M31 41h1" />
<path stroke="#4c3b39" d="M23 20h1M22 21h1M30 40h1M30 41h1" />
<path stroke="#ffffff" d="M24 20h1M41 20h1M39 21h1M41 21h1M23 28h3M22 29h1M24 29h2M24 30h1" />
<path stroke="#414041" d="M40 20h1M42 20h2M40 21h1M42 21h1M24 22h2M38 22h1M38 23h1M24 24h2M40 24h2M44 25h1M24 27h2M27 30h1M39 30h2M24 31h2M37 31h1M39 31h1M22 32h2M25 32h1M30 32h1M36 32h1M38 32h1M43 32h2M24 33h1M30 33h1M36 33h1M39 33h2M21 34h1M28 34h2M38 35h2M33 37h1M28 38h2M32 38h1M36 38h2M28 39h1M33 39h1M37 40h1M36 41h1M38 41h2M32 50h1" />
<path stroke="#2e97d3" d="M46 20h2M46 21h2M44 22h2M44 23h1M46 24h2M46 25h2M44 26h1M44 27h2M42 28h4M42 29h2M44 30h2M45 31h1" />
<path stroke="#917673" d="M23 21h1M31 40h1" />
<path stroke="#545454" d="M24 21h1" />
<path stroke="#a9a9a9" d="M25 21h1" />
<path stroke="#d5aa52" d="M27 21h1M24 23h2M34 29h1M36 30h3M36 31h1M38 31h1M35 34h1M27 35h1M34 35h1M27 36h1M32 36h2M32 37h1M40 37h1M42 37h2M42 38h1M42 39h2M38 40h4M41 41h1" />
<path stroke="#bfbfbf" d="M43 21h1M25 30h1" />
<path stroke="#185d94" d="M22 22h1M43 27h1M41 28h1" />
<path stroke="#546b73" d="M23 22h1M22 23h1M43 26h1M42 27h1M40 28h1M41 29h1" />
<path stroke="#d5a854" d="M26 22h2M26 23h2" />
<path stroke="#080400" d="M36 22h1M36 23h1" />
<path stroke="#ffde83" d="M37 22h1" />
<path stroke="#de716a" d="M39 22h1M39 23h1M28 29h1M26 30h1M21 31h1M26 31h2M33 38h1M32 39h1" />
<path stroke="#b75a54" d="M40 22h1M41 23h1" />
<path stroke="#4a3c39" d="M41 22h1" />
<path stroke="#8b3c29" d="M42 22h1" />
<path stroke="#62565d" d="M43 22h1M42 23h1" />
<path stroke="#206691" d="M46 22h1M46 26h1M46 29h1M40 42h1" />
<path stroke="#000008" d="M47 22h1M47 26h1M47 29h1M41 42h1M38 45h1" />
<path stroke="#cd8931" d="M23 23h1M42 26h1M40 29h1" />
<path stroke="#ac9557" d="M37 23h1" />
<path stroke="#ee6962" d="M40 23h1" />
<path stroke="#1089c5" d="M43 23h1" />
<path stroke="#29699c" d="M45 23h1M45 26h1M44 29h2M44 31h1M30 42h1M29 46h1" />
<path stroke="#180408" d="M22 24h1" />
<path stroke="#133a39" d="M23 24h1" />
<path stroke="#d5aa5a" d="M26 24h1" />
<path stroke="#000408" d="M27 24h1M27 25h1" />
<path stroke="#ffd28b" d="M36 24h2M37 25h1M31 32h3M31 33h1M33 33h1M28 35h2M35 36h2M34 37h4" />
<path stroke="#c2a55f" d="M38 24h1M39 25h1" />
<path stroke="#4a4439" d="M39 24h1" />
<path stroke="#c2a16a" d="M42 24h1M40 27h1" />
<path stroke="#4a4039" d="M43 24h1M41 27h1" />
<path stroke="#0d6f6a" d="M22 25h1" />
<path stroke="#08a59c" d="M23 25h1" />
<path stroke="#009d94" d="M24 25h1" />
<path stroke="#157e78" d="M25 25h1" />
<path stroke="#473b23" d="M26 25h1" />
<path stroke="#ffd673" d="M38 25h1" />
<path stroke="#ffd67b" d="M40 25h1M31 36h1M38 38h1" />
<path stroke="#bfa468" d="M41 25h1" />
<path stroke="#ffd283" d="M42 25h2M40 26h2" />
<path stroke="#25c2bd" d="M20 26h2M21 27h1" />
<path stroke="#20c2bd" d="M22 26h1M19 27h1M22 27h1" />
<path stroke="#007573" d="M23 26h1M23 27h1M20 30h2M20 31h1M29 39h1" />
<path stroke="#00a19c" d="M24 26h2M27 26h1M20 27h1M26 27h1M28 27h1M18 30h2M18 31h2M36 39h2M36 40h1M37 41h1" />
<path stroke="#007670" d="M26 26h1M27 27h1" />
<path stroke="#fcd289" d="M38 26h2M38 27h2M38 28h2M38 29h2M32 30h2M32 31h2M30 34h2M30 35h2" />
<path stroke="#007973" d="M18 28h1M19 29h1M21 29h1" />
<path stroke="#1bc4bf" d="M19 28h1" />
<path stroke="#18c6bd" d="M20 28h1" />
<path stroke="#0c9f98" d="M21 28h1M20 29h1" />
<path stroke="#205d5a" d="M22 28h1M23 29h1" />
<path stroke="#4a5954" d="M26 28h1M26 29h1M31 30h1M31 31h1" />
<path stroke="#005552" d="M27 28h1M30 30h1" />
<path stroke="#00857b" d="M28 28h2M29 29h1" />
<path stroke="#000818" d="M30 28h1" />
<path stroke="#9cbe7b" d="M31 28h1" />
<path stroke="#100800" d="M32 28h1M36 28h1" />
<path stroke="#af9957" d="M33 28h1M32 29h1M36 29h2" />
<path stroke="#ffe283" d="M37 28h1M33 29h1" />
<path stroke="#0d9f99" d="M18 29h1" />
<path stroke="#de615a" d="M27 29h1M30 31h1" />
<path stroke="#68815a" d="M30 29h1" />
<path stroke="#344439" d="M31 29h1" />
<path stroke="#00a59c" d="M17 30h1" />
<path stroke="#ffdad5" d="M22 30h1" />
<path stroke="#100000" d="M23 30h1" />
<path stroke="#e07268" d="M28 30h2M28 31h2" />
<path stroke="#947131" d="M34 30h1M35 31h1M34 32h1M35 33h1M33 34h1M32 35h1M38 37h1M41 39h1M42 40h1" />
<path stroke="#c9a35a" d="M35 30h1M35 32h1M33 35h1" />
<path stroke="#26699f" d="M41 30h1M40 31h2M37 32h1M39 32h4M37 33h2M41 33h3M38 34h2M30 46h1M30 47h2" />
<path stroke="#2b6f9f" d="M42 30h1M43 31h1M32 48h2" />
<path stroke="#2089cd" d="M43 30h1M33 49h1" />
<path stroke="#006e68" d="M17 31h1" />
<path stroke="#af918e" d="M22 31h2" />
<path stroke="#ffd683" d="M34 31h1M34 33h1M32 34h1M29 36h1" />
<path stroke="#413c41" d="M42 31h1M34 38h1M35 39h1M30 49h1M32 49h1" />
<path stroke="#00776f" d="M17 32h1" />
<path stroke="#184b47" d="M18 32h1" />
<path stroke="#20716a" d="M19 32h1" />
<path stroke="#e6757b" d="M20 32h1" />
<path stroke="#41404a" d="M21 32h1M20 33h1" />
<path stroke="#ba5e68" d="M24 32h1M25 33h1" />
<path stroke="#cd6152" d="M26 32h2M27 33h1" />
<path stroke="#bf564c" d="M28 32h2M28 33h2M34 44h2M34 45h2" />
<path stroke="#080000" d="M18 33h2M26 38h1" />
<path stroke="#af636a" d="M21 33h1" />
<path stroke="#af6983" d="M22 33h2" />
<path stroke="#916e34" d="M32 33h1M34 36h1M37 36h1" />
<path stroke="#bdbebd" d="M22 34h1M27 40h1M27 41h1" />
<path stroke="#3f3f3f" d="M23 34h1M26 40h1" />
<path stroke="#bd554a" d="M24 34h1M33 45h1" />
<path stroke="#8f7131" d="M34 34h1M35 35h1" />
<path stroke="#d5a552" d="M36 34h1M37 35h1" />
<path stroke="#414039" d="M37 34h1" />
<path stroke="#31699c" d="M40 34h1M40 35h1" />
<path stroke="#20364e" d="M41 34h1" />
<path stroke="#8b7345" d="M36 35h1" />
<path stroke="#100400" d="M41 35h1" />
<path stroke="#96722b" d="M28 36h1" />
<path stroke="#86724a" d="M30 36h1M39 38h1" />
<path stroke="#d5a752" d="M38 36h2M39 37h1M40 38h2M40 39h1" />
<path stroke="#caa457" d="M28 37h2" />
<path stroke="#4a4031" d="M30 37h1M38 39h1" />
<path stroke="#c2a462" d="M31 37h1M39 39h1" />
<path stroke="#4f3a39" d="M27 38h1" />
<path stroke="#005d5a" d="M30 38h1" />
<path stroke="#415652" d="M31 38h1M30 39h1" />
<path stroke="#ffbe83" d="M35 38h1" />
<path stroke="#deaeac" d="M26 39h1" />
<path stroke="#967473" d="M27 39h1" />
<path stroke="#c54841" d="M31 39h1" />
<path stroke="#bf936d" d="M34 39h1" />
<path stroke="#bd5952" d="M28 40h1M29 41h1M34 42h2" />
<path stroke="#5e302d" d="M29 40h1M35 43h1" />
<path stroke="#fffaf6" d="M32 40h1" />
<path stroke="#655352" d="M33 40h1M33 41h1" />
<path stroke="#fff2ee" d="M34 40h1" />
<path stroke="#6a2420" d="M35 40h1" />
<path stroke="#000808" d="M28 41h1M34 43h1" />
<path stroke="#180000" d="M32 41h1" />
<path stroke="#9c6965" d="M34 41h2" />
<path stroke="#393c41" d="M36 42h1" />
<path stroke="#009994" d="M37 42h1" />
<path stroke="#2d3a4a" d="M38 42h1M38 43h1" />
<path stroke="#416d94" d="M39 42h1" />
<path stroke="#137a78" d="M36 43h2" />
<path stroke="#543736" d="M36 44h2M32 46h1M32 47h1" />
<path stroke="#206696" d="M38 44h2" />
<path stroke="#a9625d" d="M36 45h1M33 46h1" />
<path stroke="#000c10" d="M37 45h1M33 47h1" />
<path stroke="#3199de" d="M39 45h1" />
<path stroke="#2991d5" d="M30 48h1M31 49h1" />
<path stroke="#3175a4" d="M31 48h1" />
</svg>