<svg xmlns="http://www.w3.org/2000/svg" viewBox="0 -0.5 68 56" shape-rendering="crispEdges">
<metadata>Made with Pixels to Svg https://codepen.io/shshaw/pen/XbxvNj</metadata>
<path stroke="#000400" d="M40 29h5M27 30h7M35 30h1M38 30h2M25 31h2M34 31h1M24 32h1M46 32h1M22 33h2M47 33h1M21 34h1M47 34h1M20 35h1M46 35h1M20 36h1M20 37h1M48 37h1M21 38h1M48 38h1M20 39h1M48 39h1M19 40h1M49 40h1M18 41h1M50 41h1M17 42h1M50 42h1M16 43h1M51 43h1M16 44h1M44 44h1M51 44h1M17 45h1M45 45h1M52 45h1M19 46h1M42 46h1M52 46h1M19 47h1M43 47h1M45 47h1M52 47h1M19 48h1M26 48h1M28 48h1M32 48h1M35 48h1M43 48h1M45 48h1M52 48h1M18 49h1M25 49h1M27 49h1M29 49h1M33 49h2M43 49h1M48 49h2M18 50h1M25 50h1M30 50h1M37 50h1M44 50h1M19 51h1M24 51h1M36 51h1M44 51h1M36 52h1M43 52h1M37 53h1M42 53h1" />
<path stroke="#000000" d="M36 30h2" />
<path stroke="#a587c8" d="M40 30h1M42 30h1M42 31h1" />
<path stroke="#8451ad" d="M41 30h1M43 31h1" />
<path stroke="#e7f3ff" d="M43 30h1M30 31h2M38 31h4M29 32h1M40 32h2M36 33h2M35 34h3M32 35h2M44 35h1M30 38h4M33 39h1M20 43h2M51 46h1M48 47h2M51 47h1M48 48h2M37 51h1" />
<path stroke="#ffefff" d="M44 30h1" />
<path stroke="#000008" d="M45 30h1M45 31h1M40 53h2" />
<path stroke="#ffffff" d="M27 31h3M32 31h2M25 32h1M32 32h3M42 32h4M24 33h4M33 33h1M43 33h2M22 34h5M29 34h1M40 34h2M22 35h4M28 35h4M40 35h2M28 36h3M40 36h2M28 37h2M38 37h1M22 38h1M36 38h4M24 39h2M35 39h4M23 40h3M36 40h2M22 41h3M18 42h1M17 43h1M30 43h1M30 44h1M30 45h2M29 46h3" />
<path stroke="#8451b5" d="M35 31h1M26 32h2M36 32h3M28 33h2M39 33h3M32 34h2M42 34h3M34 35h4M45 35h1M36 36h3M39 37h1M21 39h1M25 41h1M22 44h1M23 45h1M37 52h1" />
<path stroke="#9a9aaa" d="M36 31h1" />
<path stroke="#e7e7ff" d="M37 31h1" />
<path stroke="#7f7783" d="M44 31h1" />
<path stroke="#a587cd" d="M28 32h1M34 34h1M45 34h1" />
<path stroke="#effbff" d="M30 32h2M42 35h2M24 36h2M36 37h2M26 40h2M24 42h2" />
<path stroke="#e6f4ff" d="M35 32h1M34 33h2M45 33h1M27 34h2M26 35h2M31 36h1M30 37h2M23 38h1M34 38h2M22 39h2M34 39h1M39 39h1M22 40h1M19 42h1M18 43h2" />
<path stroke="#9f84c0" d="M39 32h1M38 33h1" />
<path stroke="#7b51ad" d="M30 33h1M30 34h1M40 37h1M26 41h1" />
<path stroke="#a189c8" d="M31 33h1M27 41h1" />
<path stroke="#a085c1" d="M32 33h1M42 33h1M38 35h1M20 41h1" />
<path stroke="#bdd3de" d="M46 33h1M21 36h1M21 37h1M44 39h1M32 40h1M44 40h1M33 41h2M38 41h2M44 41h1M33 42h1M37 42h1M43 42h1M32 43h2M37 43h1M23 44h1M33 44h3M37 44h1M20 45h3M34 45h1M36 45h1M39 46h2M39 47h2M42 47h1M42 48h1M42 49h1" />
<path stroke="#a78bc8" d="M31 34h1M41 37h1" />
<path stroke="#eff7ff" d="M38 34h2M39 35h1M20 40h2M21 41h1" />
<path stroke="#8ca2b5" d="M46 34h1M21 35h1M48 40h1M48 41h2M17 44h1M42 44h2M50 44h1M50 45h2M24 48h2M27 48h1M33 48h2M19 49h1M24 49h1" />
<path stroke="#8ea2b0" d="M22 36h2M28 38h2M44 42h2M47 42h1M44 43h1M46 43h2M23 48h1M22 49h1" />
<path stroke="#f7fbff" d="M26 36h2M27 37h1" />
<path stroke="#e4f4ff" d="M32 36h4M42 36h4M32 37h4M42 37h4M28 40h2M28 41h2" />
<path stroke="#ad8bcd" d="M39 36h1" />
<path stroke="#d6e7f7" d="M46 36h1M47 37h1" />
<path stroke="#000808" d="M47 36h1" />
<path stroke="#424142" d="M22 37h2M24 38h2M26 39h4M30 40h2M47 40h1M32 41h1M47 41h1M32 42h1M46 42h1M45 43h1M32 44h1M40 44h2M32 45h2M38 45h2M33 46h1M37 46h1M32 47h1M36 47h1M22 48h1M23 49h1" />
<path stroke="#8ca2b1" d="M24 37h3M30 39h3M24 43h2M48 46h2" />
<path stroke="#8e9ca7" d="M46 37h1" />
<path stroke="#bdd3e7" d="M26 38h1M46 40h1M38 44h1M40 45h1M37 47h1" />
<path stroke="#94a2b0" d="M27 38h1M46 41h1M39 44h1M41 45h1M36 46h1" />
<path stroke="#def7ff" d="M40 38h1" />
<path stroke="#634173" d="M41 38h1M41 39h1M41 40h1M41 41h1M41 42h1M50 43h1M40 48h2M42 52h1" />
<path stroke="#7e56af" d="M42 38h1M42 39h1" />
<path stroke="#9998c2" d="M43 38h1" />
<path stroke="#8ba2b1" d="M44 38h2M45 39h1M34 40h2M38 40h2M45 40h1M35 41h3M45 41h1M36 42h1M42 42h1M36 43h1M42 43h2M20 44h2M36 44h1M35 45h1M37 45h1M38 46h1M41 46h1M38 47h1M41 47h1" />
<path stroke="#bdd3e1" d="M46 38h2M46 39h2M34 42h2M38 42h2M34 43h2M38 43h2" />
<path stroke="#a09cb9" d="M40 39h1" />
<path stroke="#b5dbd6" d="M43 39h1" />
<path stroke="#94a2aa" d="M33 40h1" />
<path stroke="#8fa2af" d="M40 40h1M40 41h1M40 42h1M40 43h2" />
<path stroke="#7b57ac" d="M42 40h1" />
<path stroke="#bdd7de" d="M43 40h1M43 41h1" />
<path stroke="#9c86bd" d="M19 41h1" />
<path stroke="#e7f7ff" d="M30 41h1" />
<path stroke="#949ca0" d="M31 41h1" />
<path stroke="#9c97c5" d="M42 41h1" />
<path stroke="#9f84c3" d="M20 42h2" />
<path stroke="#9f8dc0" d="M22 42h1M23 43h1" />
<path stroke="#f7fff7" d="M23 42h1" />
<path stroke="#9187b5" d="M26 42h1" />
<path stroke="#8c51b5" d="M27 42h1" />
<path stroke="#8e9ea7" d="M28 42h2" />
<path stroke="#525152" d="M30 42h1M31 43h1" />
<path stroke="#c5c5c5" d="M31 42h1" />
<path stroke="#5f615f" d="M48 42h1M48 43h1M22 46h2" />
<path stroke="#8ea2af" d="M49 42h1M49 43h1M22 47h2" />
<path stroke="#7355a5" d="M22 43h1" />
<path stroke="#94a2b5" d="M26 43h2" />
<path stroke="#bdd7e7" d="M28 43h1" />
<path stroke="#5f6568" d="M29 43h1" />
<path stroke="#8698a2" d="M18 44h2" />
<path stroke="#decf9c" d="M24 44h1M25 45h1" />
<path stroke="#4a346b" d="M25 44h1" />
<path stroke="#f7d342" d="M26 44h2M26 45h1" />
<path stroke="#867891" d="M28 44h1" />
<path stroke="#5f5665" d="M29 44h1M28 45h1" />
<path stroke="#aaafac" d="M31 44h1" />
<path stroke="#424042" d="M45 44h1M19 50h1M24 50h1" />
<path stroke="#9496bd" d="M46 44h1" />
<path stroke="#683a75" d="M47 44h1M46 45h1" />
<path stroke="#684e75" d="M48 44h2" />
<path stroke="#080c08" d="M18 45h1M31 49h1" />
<path stroke="#c6dfef" d="M19 45h1" />
<path stroke="#7b677b" d="M24 45h1" />
<path stroke="#8351b5" d="M27 45h1" />
<path stroke="#ad9abd" d="M29 45h1" />
<path stroke="#343b3c" d="M42 45h1" />
<path stroke="#080800" d="M43 45h1" />
<path stroke="#7e6899" d="M47 45h1" />
<path stroke="#8449ad" d="M48 45h1" />
<path stroke="#5a515a" d="M49 45h1" />
<path stroke="#5a615f" d="M20 46h2" />
<path stroke="#bdc7ef" d="M24 46h1M27 46h1" />
<path stroke="#817b97" d="M25 46h2" />
<path stroke="#5a5952" d="M28 46h1M28 47h1" />
<path stroke="#9caaad" d="M32 46h1M33 47h1" />
<path stroke="#8ca2b2" d="M34 46h2M34 47h2" />
<path stroke="#100408" d="M46 46h1" />
<path stroke="#5a535a" d="M47 46h1M47 47h1" />
<path stroke="#635165" d="M50 46h1M50 47h1" />
<path stroke="#424139" d="M20 47h1" />
<path stroke="#8ca2ad" d="M21 47h1" />
<path stroke="#63556b" d="M24 47h4" />
<path stroke="#c8c7c5" d="M29 47h1" />
<path stroke="#d6d8d6" d="M30 47h1" />
<path stroke="#adb2ad" d="M31 47h1" />
<path stroke="#eff3ff" d="M46 47h1" />
<path stroke="#8c9eb5" d="M20 48h1M21 49h1" />
<path stroke="#4a304a" d="M21 48h1" />
<path stroke="#5e615e" d="M29 48h1" />
<path stroke="#e7e7de" d="M30 48h1M30 49h1" />
<path stroke="#9c9e96" d="M31 48h1" />
<path stroke="#4c4552" d="M36 48h1M37 49h1" />
<path stroke="#c6cfe7" d="M37 48h1" />
<path stroke="#633f73" d="M38 48h2" />
<path stroke="#423347" d="M46 48h1M51 48h1" />
<path stroke="#63496b" d="M47 48h1M50 48h1" />
<path stroke="#60546d" d="M20 49h1" />
<path stroke="#100008" d="M36 49h1" />
<path stroke="#8452b5" d="M38 49h2" />
<path stroke="#99a2ba" d="M40 49h1" />
<path stroke="#b5d3de" d="M41 49h1" />
<path stroke="#000800" d="M46 49h2M50 49h2" />
<path stroke="#4e4d62" d="M20 50h1M23 50h1" />
<path stroke="#949abd" d="M21 50h2" />
<path stroke="#8f85a7" d="M38 50h1" />
<path stroke="#bbc2d3" d="M39 50h1" />
<path stroke="#bbc1d0" d="M40 50h1" />
<path stroke="#634573" d="M41 50h1M41 51h2" />
<path stroke="#e7fbff" d="M42 50h1M43 51h1" />
<path stroke="#bbbed0" d="M43 50h1" />
<path stroke="#080008" d="M20 51h4M38 53h2" />
<path stroke="#63497b" d="M38 51h1" />
<path stroke="#e7ffff" d="M39 51h2" />
<path stroke="#554f5a" d="M38 52h1" />
<path stroke="#efefff" d="M39 52h1" />
<path stroke="#efe3ff" d="M40 52h1" />
<path stroke="#777183" d="M41 52h1" />
</svg>