<svg xmlns="http://www.w3.org/2000/svg" viewBox="0 -0.5 68 56" shape-rendering="crispEdges">
<metadata>Made with Pixels to Svg https://codepen.io/shshaw/pen/XbxvNj</metadata>
<path stroke="#000000" d="M32 32h1M29 33h1M31 33h1M33 33h1M28 34h1M35 34h2M28 35h1M34 35h1M36 35h1M26 36h2M36 36h1M38 36h2M26 37h1M35 37h1M37 37h1M40 37h2M26 38h1M36 38h1M41 38h1M44 38h1M27 39h1M40 39h1M43 39h1M45 39h1M26 40h1M41 40h1M43 40h1M45 40h1M25 41h1M42 41h1M46 41h1M24 42h1M46 42h1M20 43h2M24 43h1M46 43h1M22 44h2M45 44h1M42 45h1M45 45h1M19 46h1M30 46h1M43 46h1M45 46h1M30 47h1M42 47h1M44 47h1M20 48h1M43 48h1M21 49h1M42 49h1M22 50h1M37 50h2M41 50h1M22 51h1M36 51h1M39 51h2M22 52h1M34 52h2M23 53h2M31 53h3M25 54h6" />
<path stroke="#ffffff" d="M32 33h1M29 34h1M32 34h1M29 35h1M31 35h2M29 36h4M27 37h1M29 37h3M27 38h4M28 39h2M31 44h1M29 46h1M32 46h1M39 46h2M29 47h1M32 47h1M38 47h2M30 48h2M35 48h8M37 49h3M39 50h2" />
<path stroke="#100c10" d="M30 34h1M41 46h1" />
<path stroke="#5f5d5f" d="M31 34h1M30 35h1M40 47h2" />
<path stroke="#080408" d="M33 34h1M20 47h1" />
<path stroke="#acabac" d="M33 35h1" />
<path stroke="#bdbebd" d="M35 35h1M34 36h2M34 37h1M38 37h1M38 38h3M39 39h1M40 40h1M22 45h1M20 46h3M22 47h1M21 48h2" />
<path stroke="#6b6a6b" d="M28 36h1M28 37h1M40 49h2" />
<path stroke="#bdbcbd" d="M33 36h1M32 37h2" />
<path stroke="#3f3f3f" d="M39 37h1M40 41h2M23 45h1" />
<path stroke="#c0bfc0" d="M31 38h1" />
<path stroke="#424142" d="M32 38h4M30 39h2M38 39h1M39 40h1M23 46h1M38 46h1M23 47h1M36 49h1M28 50h2M31 50h1M33 50h1M36 50h1M30 51h1" />
<path stroke="#b5b6b5" d="M37 38h1" />
<path stroke="#6b6b6b" d="M32 39h4M44 39h1M27 40h1M30 40h2M38 40h1M44 40h1M26 41h2M30 41h2M38 41h2M43 41h3M28 42h3M42 42h2M28 43h2M26 44h3M26 45h3M36 45h1M24 46h4M24 47h4" />
<path stroke="#787978" d="M36 39h1" />
<path stroke="#3c3c3c" d="M37 39h1" />
<path stroke="#f7fbf7" d="M28 40h1M37 47h1" />
<path stroke="#393c39" d="M29 40h1M28 41h1M37 46h1M36 47h1" />
<path stroke="#6b696b" d="M32 40h6M32 41h1M37 41h1M27 42h1M26 43h2M24 44h1M24 45h1" />
<path stroke="#787b78" d="M29 41h1M36 46h1" />
<path stroke="#de5921" d="M33 41h4M32 42h1M37 42h1M28 46h1M31 46h1M28 47h1M31 47h1" />
<path stroke="#737573" d="M25 42h1M25 43h1" />
<path stroke="#7f7d7f" d="M26 42h1M25 44h1M25 45h1" />
<path stroke="#d65521" d="M31 42h1M30 43h2M30 44h1M30 45h2" />
<path stroke="#60a557" d="M33 42h1M32 43h2" />
<path stroke="#6bbd63" d="M34 42h2M34 43h2M24 50h4M24 51h4M26 52h2M26 53h2" />
<path stroke="#6abd63" d="M36 42h1M36 43h2" />
<path stroke="#ce5121" d="M38 42h1M39 43h1" />
<path stroke="#808c57" d="M39 42h1" />
<path stroke="#6e4e44" d="M40 42h1" />
<path stroke="#424952" d="M41 42h1M41 43h1M26 49h2" />
<path stroke="#c54f1b" d="M44 42h2" />
<path stroke="#5aaa73" d="M38 43h1" />
<path stroke="#c65929" d="M40 43h1" />
<path stroke="#c65121" d="M42 43h2" />
<path stroke="#529e42" d="M44 43h2M44 46h1" />
<path stroke="#000400" d="M20 44h1M20 45h1" />
<path stroke="#c6c3c6" d="M21 44h1" />
<path stroke="#ce5521" d="M29 44h1M29 45h1" />
<path stroke="#78ae73" d="M32 44h1M33 45h1" />
<path stroke="#398631" d="M33 44h1" />
<path stroke="#6abd62" d="M34 44h2M35 45h1M28 48h1M28 49h2" />
<path stroke="#6bbe63" d="M36 44h2M37 45h1M33 46h1M35 46h1M33 47h1M23 50h1M23 51h1M28 51h2M23 52h3M28 52h1M25 53h1" />
<path stroke="#63c352" d="M38 44h1" />
<path stroke="#589949" d="M39 44h1M38 45h1" />
<path stroke="#5a9a4a" d="M40 44h1M41 45h1" />
<path stroke="#546c4c" d="M41 44h1" />
<path stroke="#529c42" d="M42 44h3M43 45h2M30 50h1M32 50h1M31 51h3M30 52h4M30 53h1" />
<path stroke="#636363" d="M21 45h1" />
<path stroke="#f7fff7" d="M32 45h1" />
<path stroke="#4a7142" d="M34 45h1M29 48h1" />
<path stroke="#424539" d="M39 45h1M35 47h1M32 49h1" />
<path stroke="#4f3e4f" d="M40 45h1" />
<path stroke="#4f6d47" d="M34 46h1M34 47h1" />
<path stroke="#626162" d="M21 47h1" />
<path stroke="#445244" d="M23 48h1M22 49h2" />
<path stroke="#473c44" d="M24 48h1M25 49h1" />
<path stroke="#5d7957" d="M25 48h1" />
<path stroke="#765147" d="M26 48h1" />
<path stroke="#de6131" d="M27 48h1" />
<path stroke="#4d6f44" d="M32 48h1" />
<path stroke="#63c35a" d="M33 48h1" />
<path stroke="#425142" d="M34 48h1M34 49h2" />
<path stroke="#73b66b" d="M24 49h1" />
<path stroke="#4a5942" d="M30 49h2" />
<path stroke="#58994f" d="M33 49h1" />
<path stroke="#4a7342" d="M34 50h1M34 51h1" />
<path stroke="#529d42" d="M35 50h1M35 51h1" />
<path stroke="#529b42" d="M29 52h1M28 53h2" />
</svg>