<svg xmlns="http://www.w3.org/2000/svg" viewBox="0 -0.5 68 56" shape-rendering="crispEdges">
<metadata>Made with Pixels to Svg https://codepen.io/shshaw/pen/XbxvNj</metadata>
<path stroke="#000000" d="M23 9h3M31 9h1M33 9h1M21 10h2M26 10h1M30 10h1M34 10h1M48 10h1M20 11h1M27 11h1M30 11h1M34 11h1M47 11h1M49 11h1M19 12h1M28 12h1M31 12h1M38 12h1M44 12h1M50 12h1M18 13h1M29 13h1M31 13h1M37 13h1M39 13h1M43 13h1M45 13h1M50 13h1M18 14h1M36 14h1M40 14h1M51 14h2M18 15h1M41 15h1M53 15h1M18 16h1M54 16h1M19 17h1M54 17h1M19 18h1M13 19h1M20 19h1M56 19h1M12 20h1M14 20h1M19 20h1M56 20h1M13 21h1M15 21h1M18 21h1M56 21h1M12 22h1M16 22h2M56 22h1M13 23h1M14 24h1M53 24h2M15 25h1M52 25h1M16 26h1M52 26h1M15 27h1M53 27h1M14 28h1M54 28h1M14 29h1M54 29h1M14 30h1M55 30h1M14 31h1M55 31h1M14 32h1M56 32h1M14 33h1M56 33h1M15 34h1M57 34h1M15 35h1M57 35h1M15 36h1M50 36h1M52 36h2M57 36h1M14 37h1M50 37h1M54 37h3M12 38h2M10 39h2M9 40h1M48 40h1M10 41h2M12 42h3M48 42h1M15 43h1M48 43h1M16 44h1M48 44h1M17 45h1M47 45h1M18 46h1M47 46h1M16 47h2M28 47h1M35 47h1M46 47h1M15 48h1M26 48h1M29 48h6M36 48h1M46 48h1M16 49h2M27 49h1M37 49h1M47 49h1M18 50h2M25 50h2M37 50h1M48 50h1M20 51h2M24 51h1M36 51h1M44 51h4M37 52h7" />
<path stroke="#83816a" d="M23 10h1M21 11h2M26 11h1M26 12h1M19 13h1M28 13h1M24 14h1M29 14h1M25 15h1M28 15h1M44 15h1M31 16h1M30 17h1M44 17h1M46 20h1M46 21h2M47 22h1M49 22h1M38 23h1M46 23h1M43 24h1M40 25h1M42 25h2M40 26h2M44 26h1M49 26h1M41 27h1M48 27h1M17 28h1M16 29h1M19 32h1M20 33h2M31 35h1M34 35h2M31 36h1M34 36h1M31 37h1" />
<path stroke="#83836a" d="M24 10h2M25 13h1M20 15h2" />
<path stroke="#9fa19f" d="M31 10h1M31 11h1" />
<path stroke="#080408" d="M32 10h1M42 14h1" />
<path stroke="#a4a19c" d="M33 10h1M33 11h1M41 35h1" />
<path stroke="#2b2b23" d="M23 11h1" />
<path stroke="#293029" d="M24 11h2M24 12h2M24 13h1M20 14h2" />
<path stroke="#3c3839" d="M32 11h1" />
<path stroke="#41a1ac" d="M48 11h1M16 48h2" />
<path stroke="#837d6a" d="M20 12h1" />
<path stroke="#41473f" d="M21 12h1" />
<path stroke="#263029" d="M22 12h2M22 13h2" />
<path stroke="#5e615e" d="M27 12h1M26 13h2M25 14h1M28 14h1M24 15h1M29 15h1M30 16h1M31 17h1M20 18h2M21 19h1M21 20h1M24 20h1M44 20h2M47 20h1M19 21h1M21 21h1M24 21h1M44 21h1M18 22h3M40 22h2M19 23h2M40 23h1M50 23h1M23 24h4M31 24h1M42 24h1M47 24h1M46 25h2M39 26h1M38 27h3M37 28h1M44 28h2M36 29h2M45 29h1M18 30h1M35 30h1M40 30h2M46 30h2M18 31h1M28 31h1M30 31h5M40 31h1M47 31h1M15 32h1M27 32h2M30 32h2M34 32h1M36 32h4M47 32h1M15 33h1M26 33h4M31 33h1M34 33h2M37 33h2M46 33h1M16 34h1M18 34h2M28 34h2M42 34h1M16 35h2M19 35h6M28 35h1M42 35h2M16 36h2M27 36h2M30 36h1M39 36h1M43 36h1M17 37h1M27 37h1M29 37h2M39 37h1M43 37h1M16 38h1M18 38h1M22 38h4M28 38h2M38 38h1M16 39h1M18 39h2M38 39h1M17 40h1M20 40h4M26 40h1M28 40h2M38 40h2M17 41h1M23 41h1M26 41h2M29 41h1M39 41h1M29 42h1M28 43h1" />
<path stroke="#94918b" d="M32 12h1M15 22h1" />
<path stroke="#414041" d="M33 12h1M33 13h1M32 14h1M34 14h1M37 14h1M39 14h1M32 15h6M39 15h2M33 16h3M38 16h1M40 16h1M42 16h2M34 17h1M36 17h3M40 17h2M43 17h1M24 18h1M34 18h1M36 18h2M40 18h2M44 18h1M24 19h1M31 19h1M34 19h1M37 19h3M44 19h1M20 20h1M25 20h1M30 20h2M50 20h2M20 21h1M25 21h1M29 21h1M32 21h1M45 21h1M50 21h1M14 22h1M21 22h1M26 22h1M29 22h1M32 22h1M35 22h2M43 22h1M50 22h2M15 23h1M21 23h1M26 23h1M30 23h1M33 23h1M36 23h2M41 23h1M51 23h1M16 24h1M18 24h3M22 24h1M27 24h1M29 24h2M34 24h1M17 25h1M20 25h1M22 25h10M34 25h1M17 26h2M20 26h1M23 26h1M27 26h1M29 26h2M32 26h1M50 26h2M16 27h3M21 27h1M23 27h3M27 27h2M30 27h2M52 27h1M21 28h1M24 28h2M28 28h1M32 28h3M36 28h1M43 28h1M50 28h3M22 29h1M25 29h2M28 29h2M35 29h1M44 29h1M49 29h1M52 29h1M15 30h1M19 30h2M22 30h1M26 30h1M28 30h7M42 30h1M45 30h1M19 31h1M27 31h1M29 31h1M35 31h1M41 31h1M46 31h1M17 32h1M24 32h1M26 32h1M29 32h1M35 32h1M40 32h1M46 32h1M48 32h1M50 32h1M17 33h1M25 33h1M30 33h1M36 33h1M39 33h1M47 33h1M50 33h1M17 34h1M20 34h6M32 34h2M46 34h2M49 34h1M18 35h1M25 35h1M29 35h1M37 35h1M46 35h1M49 35h1M18 36h1M26 36h1M29 36h1M38 36h1M47 36h2M56 36h1M16 37h1M26 37h1M28 37h1M33 37h1M38 37h1M46 37h1M48 37h1M17 38h1M19 38h2M31 38h1M39 38h1M17 39h1M22 39h4M28 39h2M39 39h1M14 40h1M16 40h1M42 40h1M14 41h1M16 41h1M20 41h3M28 41h1M15 42h3M19 42h1M23 42h1M28 42h1M43 42h1M17 43h2M29 43h1M42 43h1M20 44h4M26 44h4M36 44h1M40 44h2M18 45h2M24 45h1M29 45h3M38 45h2M25 46h1M36 46h2M25 48h1M22 49h3M20 50h2" />
<path stroke="#9c9d94" d="M34 12h1" />
<path stroke="#000400" d="M35 12h1M35 13h1M55 23h1" />
<path stroke="#080000" d="M46 12h1M55 18h1M51 35h1M47 41h1" />
<path stroke="#4f7ca4" d="M47 12h1M47 13h1M50 34h2M46 40h1M46 41h1" />
<path stroke="#413839" d="M48 12h1M48 13h1M46 18h1M47 19h1" />
<path stroke="#4aa1ac" d="M49 12h1M47 18h1" />
<path stroke="#202c29" d="M20 13h2M22 14h1" />
<path stroke="#787673" d="M32 13h1M14 23h1" />
<path stroke="#686a62" d="M34 13h1" />
<path stroke="#acaeac" d="M38 13h1M34 22h1M34 23h1M32 24h1M33 25h1M42 36h1M42 37h1M32 43h1M32 44h1" />
<path stroke="#c5c2bd" d="M44 13h1M51 21h1M48 25h1M50 27h2M50 29h2M44 32h1M42 33h2M44 34h2M56 35h1M55 36h1M34 39h2M10 40h1M32 40h2M43 40h1M42 41h2M22 42h1M34 42h1M37 42h1M40 42h2M21 43h3M39 43h2M24 44h2M35 44h1M37 44h3M25 45h1M36 45h2M28 46h2M34 46h2M29 47h6M46 49h1M46 50h2M37 51h1" />
<path stroke="#2b3e52" d="M46 13h1M50 35h1M47 40h1" />
<path stroke="#445b5f" d="M49 13h1M46 19h1" />
<path stroke="#838573" d="M19 14h1" />
<path stroke="#62625a" d="M23 14h1M23 15h1" />
<path stroke="#838268" d="M26 14h2M26 15h2M24 16h6M24 17h6M26 18h4M42 18h1M26 19h4M43 19h1M26 20h2M37 20h3M26 21h2M36 21h1M45 22h1M44 23h2M38 24h1M44 24h2M38 25h1M44 25h2M37 26h1M43 26h1M36 27h1M43 27h1M22 33h2" />
<path stroke="#080810" d="M30 14h1" />
<path stroke="#343331" d="M31 14h1" />
<path stroke="#757575" d="M33 14h1M35 14h1M31 26h1M33 26h1M32 27h2M24 29h1M23 30h1M22 31h2" />
<path stroke="#a9afa9" d="M38 14h1M38 15h1M39 16h1M39 17h1M39 18h1M33 20h1M33 21h1M31 22h1M31 23h2M21 24h1M35 24h1M21 25h1M19 26h1M22 26h1M20 27h1M22 27h1M20 28h1M23 28h1M21 29h1M23 29h1M21 30h1M15 40h1M15 41h1" />
<path stroke="#47443c" d="M43 14h1M42 15h1" />
<path stroke="#363839" d="M44 14h2M45 15h1" />
<path stroke="#447c99" d="M46 14h2" />
<path stroke="#45a1ac" d="M48 14h2M48 15h1M54 20h2M55 21h1M55 32h1M54 33h2" />
<path stroke="#4a9db4" d="M50 14h1M51 15h1M54 30h1" />
<path stroke="#57594c" d="M19 15h1" />
<path stroke="#837d73" d="M22 15h1" />
<path stroke="#8b8973" d="M30 15h1" />
<path stroke="#5f5e52" d="M31 15h1" />
<path stroke="#868570" d="M43 15h1" />
<path stroke="#393841" d="M46 15h1" />
<path stroke="#4a9dc5" d="M47 15h1" />
<path stroke="#395d7b" d="M49 15h1M54 32h1M53 33h1M52 34h1M43 44h1M42 45h1" />
<path stroke="#316978" d="M50 15h1M54 31h1" />
<path stroke="#4a79a4" d="M52 15h1M51 18h1M52 22h2M53 23h1M52 31h1M51 32h1M51 33h1M45 42h3M47 43h1M20 45h4M40 45h2M24 46h1M38 46h2M42 46h1M46 46h1M24 47h2M40 47h4M45 47h1M22 48h2M37 48h1M42 48h1M21 49h1M42 49h1M44 50h2" />
<path stroke="#524e45" d="M19 16h1" />
<path stroke="#4f4e44" d="M20 16h2M40 20h2M41 36h1M41 37h1M36 38h1M36 39h2" />
<path stroke="#52504a" d="M22 16h2M48 23h1M45 26h1M44 27h1M40 34h1M40 35h1M42 38h2M26 39h2M32 39h2" />
<path stroke="#838468" d="M32 16h1M36 16h2M41 16h1M32 17h2M35 17h1M42 17h1M25 18h1M30 18h2M35 18h1M45 18h1M25 19h1M30 19h1M35 19h2M40 19h2M45 19h1M28 20h2M28 21h1M27 22h2M37 22h1M27 23h3M28 24h1M35 28h1M32 29h3M27 30h1M26 31h1M25 32h1M24 33h1M32 35h2M32 36h2M32 37h1M12 39h2" />
<path stroke="#414044" d="M44 16h1M45 17h1M38 22h1M39 23h1M30 34h2M34 34h1M35 36h1M34 37h1" />
<path stroke="#626157" d="M45 16h1M39 22h1M35 34h1M30 35h1M35 37h1" />
<path stroke="#393839" d="M46 16h1M48 19h1M18 23h1M37 24h1M17 30h1M17 31h1M25 31h1M15 37h1" />
<path stroke="#44a1ac" d="M47 16h1M46 17h2M48 18h2M49 19h1" />
<path stroke="#4c99a4" d="M48 16h1" />
<path stroke="#52d294" d="M49 16h1M52 18h1" />
<path stroke="#d5ffff" d="M50 16h1M50 17h1" />
<path stroke="#317973" d="M51 16h1" />
<path stroke="#47a0af" d="M52 16h1M53 17h1" />
<path stroke="#447e99" d="M53 16h1" />
<path stroke="#5d5f5f" d="M20 17h2M40 21h2M40 36h1M40 37h1M37 38h1" />
<path stroke="#62615a" d="M22 17h1M42 22h1M43 23h1M42 28h1M48 28h2M43 29h1M44 30h1M45 31h1M16 32h1M41 32h1M40 33h1M36 34h2M19 36h1M19 37h1M21 38h1M26 38h1M30 38h1M33 38h1M20 39h1M31 39h1M42 39h1M30 44h1" />
<path stroke="#414039" d="M23 17h1M27 38h1M32 38h1M43 39h1" />
<path stroke="#4a7dac" d="M48 17h2M55 22h1M54 23h1" />
<path stroke="#68a5a1" d="M51 17h1" />
<path stroke="#415d83" d="M52 17h1" />
<path stroke="#5f615f" d="M22 18h2M22 19h2M22 20h2M42 20h2M22 21h2M42 21h2M22 22h4M22 23h4M38 28h4M38 29h4M36 30h4M36 31h4M32 32h2M32 33h2M26 34h2M38 34h2M26 35h2M38 35h2M20 36h6M36 36h2M20 37h6M36 37h2M40 38h2M40 39h2M12 40h2M18 40h2M24 40h2M12 41h2M18 41h2M24 41h2M26 42h2M26 43h2" />
<path stroke="#44433c" d="M32 18h1M33 19h1M14 38h1M14 39h1" />
<path stroke="#787a70" d="M33 18h1M15 38h1" />
<path stroke="#757875" d="M38 18h1M32 20h1M30 22h1M33 22h1M35 25h1M21 26h1M19 27h1M22 28h1M20 29h1M20 31h2" />
<path stroke="#524f44" d="M43 18h1M42 19h1M36 20h1M37 21h3M44 22h1M39 24h1M39 25h1M36 26h1M42 26h1M37 27h1M42 27h1M22 32h2M34 40h2M34 41h2" />
<path stroke="#44a1af" d="M50 18h1M50 19h2M52 30h2M53 31h1M46 43h1M44 44h2M44 45h2M43 46h3M44 47h1M18 48h4M18 49h3" />
<path stroke="#4181b4" d="M53 18h1" />
<path stroke="#395e78" d="M54 18h1M55 19h1" />
<path stroke="#acb2a4" d="M32 19h1M15 39h1" />
<path stroke="#479ca9" d="M52 19h2" />
<path stroke="#528db4" d="M54 19h1" />
<path stroke="#94958b" d="M13 20h1M14 21h1" />
<path stroke="#524f4c" d="M34 20h2" />
<path stroke="#83856a" d="M48 20h1M49 21h1" />
<path stroke="#363a3f" d="M49 20h1" />
<path stroke="#4aa1b4" d="M52 20h1M53 21h1" />
<path stroke="#478191" d="M53 20h1" />
<path stroke="#acb2ac" d="M30 21h1M19 25h1" />
<path stroke="#656665" d="M31 21h1M18 25h1" />
<path stroke="#737573" d="M34 21h1M36 24h1M36 25h1" />
<path stroke="#413c39" d="M35 21h1M46 22h1M49 27h1M20 32h1" />
<path stroke="#5d5f54" d="M48 21h1" />
<path stroke="#41404a" d="M52 21h1M55 35h1" />
<path stroke="#41487b" d="M54 21h1" />
<path stroke="#777577" d="M13 22h1M15 24h1" />
<path stroke="#626154" d="M48 22h1M49 23h1M45 27h1" />
<path stroke="#315473" d="M54 22h1" />
<path stroke="#737478" d="M16 23h1" />
<path stroke="#393a3c" d="M17 23h1" />
<path stroke="#898989" d="M35 23h1" />
<path stroke="#4c4b4a" d="M42 23h1M42 29h1M48 29h1M44 31h1M16 33h1M41 33h1M36 35h1M18 37h1M21 39h1M30 39h1M31 44h1" />
<path stroke="#57534a" d="M47 23h1M48 26h1M21 32h1" />
<path stroke="#8b3420" d="M52 23h1" />
<path stroke="#5d5b5d" d="M17 24h1" />
<path stroke="#6a695a" d="M33 24h1" />
<path stroke="#474644" d="M40 24h1M41 25h1M38 42h2M38 43h1M34 44h1M34 45h2" />
<path stroke="#656357" d="M41 24h1" />
<path stroke="#525041" d="M46 24h1M38 26h1M43 34h1M27 40h1M38 41h1" />
<path stroke="#575b54" d="M48 24h2M49 25h1" />
<path stroke="#5f5f57" d="M50 24h1" />
<path stroke="#4a4841" d="M51 24h1M50 25h1M47 28h1M44 35h2" />
<path stroke="#b44829" d="M52 24h1" />
<path stroke="#787678" d="M16 25h1" />
<path stroke="#969791" d="M32 25h1" />
<path stroke="#4c4c4c" d="M37 25h1" />
<path stroke="#8b8d83" d="M51 25h1" />
<path stroke="#6a6b5e" d="M24 26h3M28 26h1M26 27h1M29 27h1M29 28h1M28 45h1" />
<path stroke="#7b7973" d="M34 26h2M24 30h1" />
<path stroke="#5a5952" d="M46 26h1M47 27h1M37 40h1M36 41h1" />
<path stroke="#c8c2ba" d="M47 26h1M46 27h1M36 40h1M37 41h1" />
<path stroke="#686762" d="M34 27h1" />
<path stroke="#414441" d="M35 27h1M44 38h1" />
<path stroke="#414036" d="M15 28h1" />
<path stroke="#3c3b3f" d="M16 28h1M17 29h1M18 32h1M19 33h1" />
<path stroke="#393439" d="M18 28h1" />
<path stroke="#444344" d="M19 28h1M19 29h1" />
<path stroke="#5d5e57" d="M26 28h1" />
<path stroke="#6a6d62" d="M27 28h1M30 28h1M27 29h1M30 29h2" />
<path stroke="#5e6162" d="M31 28h1" />
<path stroke="#a4aeac" d="M46 28h1M47 29h1" />
<path stroke="#47a1af" d="M53 28h1M53 29h1" />
<path stroke="#83816d" d="M15 29h1" />
<path stroke="#5a615a" d="M18 29h1" />
<path stroke="#686a65" d="M46 29h1" />
<path stroke="#4c4c4a" d="M16 30h1" />
<path stroke="#65635f" d="M25 30h1M24 31h1" />
<path stroke="#626257" d="M43 30h1M42 31h2" />
<path stroke="#626362" d="M48 30h1" />
<path stroke="#393c41" d="M49 30h1M48 31h1" />
<path stroke="#3f3e41" d="M50 30h2M51 31h1" />
<path stroke="#626162" d="M15 31h1" />
<path stroke="#5f615a" d="M16 31h1" />
<path stroke="#8b8983" d="M49 31h2M46 38h1M17 44h1M26 49h1" />
<path stroke="#524e44" d="M42 32h2M45 32h1M44 33h2M34 38h2M32 41h2M35 42h1M34 43h2" />
<path stroke="#8b8b7f" d="M49 32h1M48 33h2M48 34h1M47 35h2M20 42h2M16 43h1M20 43h1M41 43h1M18 44h2M30 46h4" />
<path stroke="#4a7aa7" d="M52 32h2M52 33h1M53 34h1M52 35h2M39 48h1M38 49h2" />
<path stroke="#5f5e54" d="M18 33h1" />
<path stroke="#cdcac5" d="M41 34h1" />
<path stroke="#477e96" d="M54 34h1M54 35h1" />
<path stroke="#4a9dbd" d="M55 34h1" />
<path stroke="#41403f" d="M56 34h1M54 36h1M11 40h1" />
<path stroke="#413c41" d="M44 36h1M45 37h1M41 40h1M40 41h1M24 42h1M25 43h1" />
<path stroke="#c5bebd" d="M45 36h1M41 41h1M24 43h1" />
<path stroke="#cdc6bd" d="M46 36h1M26 45h1" />
<path stroke="#b4482b" d="M49 36h1M49 37h1" />
<path stroke="#6d676a" d="M44 37h1M40 40h1M25 42h1" />
<path stroke="#87837f" d="M47 37h1M27 45h1" />
<path stroke="#83857f" d="M45 38h1" />
<path stroke="#5a3b36" d="M47 38h1M46 39h2" />
<path stroke="#ac5039" d="M48 38h1" />
<path stroke="#000408" d="M49 38h1M49 39h1" />
<path stroke="#c5c6bd" d="M44 39h2" />
<path stroke="#562a20" d="M48 39h1" />
<path stroke="#686b65" d="M30 40h1M30 43h1" />
<path stroke="#4a4c41" d="M31 40h1M30 41h1M30 42h1M31 43h1" />
<path stroke="#b4c2cd" d="M44 40h1" />
<path stroke="#39404a" d="M45 40h1M44 41h1" />
<path stroke="#a4aaac" d="M31 41h1M31 42h1" />
<path stroke="#77818b" d="M45 41h1" />
<path stroke="#65655f" d="M18 42h1" />
<path stroke="#544f44" d="M32 42h2M33 43h1" />
<path stroke="#4c4844" d="M36 42h1M36 43h2" />
<path stroke="#6a8394" d="M42 42h1M43 43h1" />
<path stroke="#395e7e" d="M44 42h1M44 43h2M40 46h2M38 47h2" />
<path stroke="#89897e" d="M19 43h1" />
<path stroke="#4a4441" d="M33 44h1M32 45h2" />
<path stroke="#4485a1" d="M42 44h1" />
<path stroke="#315e73" d="M46 44h1" />
<path stroke="#4a8dac" d="M47 44h1M46 45h1" />
<path stroke="#4a99b4" d="M43 45h1" />
<path stroke="#62a1a9" d="M19 46h1M18 47h1" />
<path stroke="#b4f2ff" d="M20 46h1M20 47h1M43 48h1M43 49h1" />
<path stroke="#478fac" d="M21 46h1M21 47h1" />
<path stroke="#8bbeb4" d="M22 46h2M23 47h1M40 49h2" />
<path stroke="#393f4a" d="M26 46h1" />
<path stroke="#acbecd" d="M27 46h1" />
<path stroke="#94f2ff" d="M19 47h1" />
<path stroke="#4a7ba8" d="M22 47h1M40 48h2" />
<path stroke="#737e8b" d="M26 47h1" />
<path stroke="#000008" d="M27 47h1M22 51h2" />
<path stroke="#477ca9" d="M36 47h1M24 48h1" />
<path stroke="#445e75" d="M37 47h1M25 49h1" />
<path stroke="#8bbcb2" d="M38 48h1" />
<path stroke="#b4eaff" d="M44 48h1" />
<path stroke="#31597b" d="M45 48h1M45 49h1" />
<path stroke="#5d89a7" d="M44 49h1" />
<path stroke="#7b8d94" d="M22 50h1" />
<path stroke="#525e65" d="M23 50h1" />
<path stroke="#395f7f" d="M24 50h1" />
<path stroke="#41617b" d="M38 50h2" />
<path stroke="#4c7d9c" d="M40 50h1M41 51h1" />
<path stroke="#83bebd" d="M41 50h1" />
<path stroke="#4a7ca7" d="M42 50h2M42 51h2" />
<path stroke="#cdc6b4" d="M38 51h1" />
<path stroke="#879398" d="M39 51h1" />
<path stroke="#315d8b" d="M40 51h1" />
</svg>