<svg xmlns="http://www.w3.org/2000/svg" viewBox="0 -0.5 68 56" shape-rendering="crispEdges">
<metadata>Made with Pixels to Svg https://codepen.io/shshaw/pen/XbxvNj</metadata>
<path stroke="#000400" d="M21 14h2M20 15h1M23 15h1M20 16h1M24 16h1M20 17h1M25 17h2M51 17h4M20 18h1M48 18h2M55 18h1M20 19h1M28 19h1M46 19h2M55 19h1M21 20h1M29 20h1M44 20h2M54 20h1M21 21h1M29 21h1M43 21h1M55 21h1M22 22h1M30 22h1M42 22h1M55 22h1M23 23h1M31 23h1M41 23h1M54 23h1M41 24h1M53 24h1M22 25h1M32 25h1M40 25h1M52 25h1M21 26h1M32 26h1M40 26h1M53 26h1M18 27h1M20 27h1M40 27h1M53 27h1M17 28h1M40 28h1M52 28h1M17 29h1M32 29h1M39 29h1M16 30h1M37 30h2M50 30h1M16 31h1M34 31h3M16 32h1M49 32h1M17 33h1M48 33h1M17 34h1M46 34h2M17 35h1M18 36h1M43 36h2M17 37h1M42 37h1M43 38h2M29 39h1M45 39h2M15 40h1M24 40h2M28 40h1M30 40h1M47 40h1M15 41h1M26 41h2M30 41h1M48 41h1M16 42h1M18 42h1M23 42h1M34 42h1M40 42h2M46 42h2M17 43h1M19 43h1M22 43h1M27 43h1M35 43h1M44 43h2M20 44h2M26 44h1M33 44h1M35 44h1M40 44h1M26 45h1M32 45h1M34 45h1M26 46h2M29 46h1M32 46h1M34 46h1M40 46h1M29 47h1M32 47h1M35 47h1M40 47h1M28 48h1M31 48h1M39 48h1M29 49h2M39 49h1M35 50h1M38 50h1M36 51h2" />
<path stroke="#b54929" d="M21 15h1M21 16h1M21 17h1M24 17h1M21 18h1M52 18h1M21 19h1M48 19h2M28 20h1M46 20h3M28 21h1M44 21h3M23 22h1M43 22h2M42 23h2M26 24h2M42 24h1M26 25h1M41 25h2M41 26h1M41 27h1M41 28h1M40 29h2M39 30h2M37 31h3M20 32h1M20 33h2M18 34h2M32 34h2M18 35h1M22 35h2M21 36h1M21 37h1" />
<path stroke="#424042" d="M22 15h1M52 24h1M28 38h2M28 39h1" />
<path stroke="#424142" d="M22 16h1M23 17h1M23 18h1M25 18h1M23 19h1M25 19h1M25 20h1M27 20h1M27 21h1M52 21h2M50 22h2M48 23h2M28 24h1M50 25h2M48 26h2M28 27h1M23 28h1M29 28h1M24 29h2M29 29h1M48 29h2M22 32h1M26 32h1M46 32h2M22 33h1M25 33h1M27 33h3M21 34h1M26 34h1M34 34h1M21 35h1M41 35h2M39 36h1M30 37h1M37 37h1M40 37h2M38 38h2M41 38h1M30 39h1M41 39h1M42 40h2M32 41h1M36 43h2M38 46h1" />
<path stroke="#b5492c" d="M23 16h1M22 17h1M22 18h1M24 18h1M22 19h1M24 19h1M24 20h1M26 20h1M24 21h3M20 34h1M20 35h1" />
<path stroke="#b54d31" d="M26 18h1M26 19h1" />
<path stroke="#001010" d="M27 18h1" />
<path stroke="#001029" d="M50 18h1" />
<path stroke="#b54d42" d="M51 18h1M50 19h1" />
<path stroke="#474e81" d="M53 18h1M52 19h2M49 20h1M48 21h2M45 22h1M44 23h2M41 30h1M40 31h2" />
<path stroke="#4c588e" d="M54 18h1M54 19h1M31 40h1M31 41h1" />
<path stroke="#5a2e20" d="M27 19h1" />
<path stroke="#5a2e35" d="M51 19h1" />
<path stroke="#b5482b" d="M22 20h2M22 21h2M24 22h4M24 23h4M32 32h2M32 33h2" />
<path stroke="#42497b" d="M50 20h1M47 21h1M46 22h1M43 24h1M43 25h1M42 26h1M42 27h1M42 28h1M42 29h1M38 32h2M36 34h1M36 35h1M35 36h1" />
<path stroke="#4e5790" d="M51 20h3M50 21h2M47 22h3M46 23h2M50 23h2M50 24h2M43 26h1M43 27h1M48 27h2M43 28h1M48 28h2M43 29h1M38 33h2M46 33h2M37 34h1M40 34h4M37 35h1M40 35h1M43 35h1M36 36h3M40 36h2M36 37h1M38 37h2M30 38h2M31 39h1M38 39h2M32 40h2M33 41h1M36 42h2" />
<path stroke="#4a5594" d="M54 21h1M54 22h1M48 32h1M42 36h1M35 42h1M32 44h1" />
<path stroke="#ba3f2c" d="M28 22h1M34 32h1M18 33h1M31 33h1" />
<path stroke="#423c42" d="M29 22h1M29 23h1M19 32h1M30 32h1M35 32h1M19 33h1M30 33h1M34 33h1" />
<path stroke="#4d5791" d="M52 22h2M52 23h2M44 24h6M44 25h6M44 26h4M50 26h2M44 27h4M50 27h2M44 28h4M44 29h4M42 30h6M42 31h6M40 32h6M40 33h6M38 34h2M38 35h2M34 40h2M34 41h2" />
<path stroke="#7e3d37" d="M28 23h1M18 32h1M31 32h1M35 33h1" />
<path stroke="#7f2835" d="M30 23h1M44 39h1" />
<path stroke="#000808" d="M24 24h1M24 25h1M28 42h2M36 48h1M36 49h1" />
<path stroke="#ad5139" d="M25 24h1" />
<path stroke="#842835" d="M29 24h1M28 25h2M28 26h2M29 27h1M35 34h1M34 35h2M40 38h1M40 39h1" />
<path stroke="#7b3039" d="M30 24h1M31 25h1M31 26h1M30 27h1M30 28h1M30 29h1" />
<path stroke="#000c08" d="M31 24h1M31 27h1M31 28h1" />
<path stroke="#562c20" d="M25 25h1" />
<path stroke="#832835" d="M27 25h1M21 32h1M22 34h2M19 35h1M20 36h1M20 37h1" />
<path stroke="#522428" d="M30 25h1M30 26h1M31 29h1" />
<path stroke="#fffbff" d="M22 26h1M22 27h1" />
<path stroke="#000000" d="M23 26h1" />
<path stroke="#c8bd97" d="M24 26h1" />
<path stroke="#8c716b" d="M25 26h1M24 27h1" />
<path stroke="#5a3842" d="M26 26h2M27 27h1M30 30h2M31 31h1M24 34h2M24 35h1M21 40h1M20 41h2" />
<path stroke="#525984" d="M52 26h1" />
<path stroke="#ffffff" d="M21 27h1M18 28h1M21 28h2M18 29h1M20 29h4M17 30h2M20 30h3M25 30h1M17 31h2M21 31h2M24 31h2M17 32h1M23 32h3M23 33h2M28 34h2M26 35h4M25 36h1" />
<path stroke="#555355" d="M23 27h1" />
<path stroke="#e7e3ad" d="M25 27h1" />
<path stroke="#e7e3b5" d="M26 27h1M24 28h2M28 28h1M28 29h1M28 30h2" />
<path stroke="#363c58" d="M52 27h1" />
<path stroke="#080808" d="M19 28h1" />
<path stroke="#5f5f5f" d="M20 28h1M19 30h1M23 30h2M19 31h1M23 31h1" />
<path stroke="#4a4542" d="M26 28h1M27 29h1M27 30h1M26 31h1" />
<path stroke="#c2c1ba" d="M27 28h1M27 31h1" />
<path stroke="#353846" d="M50 28h2M44 34h2" />
<path stroke="#5a5a5a" d="M19 29h1" />
<path stroke="#fffff7" d="M26 29h1M26 30h1" />
<path stroke="#5a618c" d="M50 29h1M44 35h1" />
<path stroke="#101000" d="M51 29h1M45 35h1" />
<path stroke="#4c3034" d="M32 30h1M33 31h1" />
<path stroke="#001008" d="M33 30h1" />
<path stroke="#4f5a8e" d="M48 30h2M32 42h1M38 42h1M32 43h1M38 43h1" />
<path stroke="#842839" d="M20 31h1" />
<path stroke="#8c736f" d="M28 31h2" />
<path stroke="#ceba8c" d="M30 31h1M27 32h3M26 33h1" />
<path stroke="#73414a" d="M32 31h1" />
<path stroke="#2b3347" d="M48 31h1M33 42h1M39 42h1" />
<path stroke="#080c00" d="M49 31h1M33 43h1M39 43h1" />
<path stroke="#b54129" d="M36 32h2" />
<path stroke="#8e4144" d="M36 33h1" />
<path stroke="#42417b" d="M37 33h1" />
<path stroke="#c0bfc0" d="M27 34h1" />
<path stroke="#f7fbff" d="M30 34h1" />
<path stroke="#393c4a" d="M31 34h1M30 35h1M25 38h1M24 39h1" />
<path stroke="#c6c3bd" d="M25 35h1M28 37h2M27 38h1M26 39h1M26 40h2" />
<path stroke="#787b86" d="M31 35h1" />
<path stroke="#4c5691" d="M32 35h2" />
<path stroke="#4292f7" d="M19 36h1M18 37h2" />
<path stroke="#655252" d="M22 36h2" />
<path stroke="#5f6591" d="M24 36h1M24 37h2" />
<path stroke="#fffbf7" d="M26 36h1" />
<path stroke="#5a5d5a" d="M27 36h1" />
<path stroke="#686965" d="M28 36h1" />
<path stroke="#393c39" d="M29 36h1" />
<path stroke="#6269aa" d="M30 36h2M31 37h1" />
<path stroke="#5f67aa" d="M32 36h1M32 37h2M32 38h2M36 38h1M37 39h1M36 40h1M38 40h1M37 41h1" />
<path stroke="#4c568e" d="M33 36h1M37 38h1M32 39h2M36 39h1M37 40h1M39 40h1M36 41h1M38 41h2" />
<path stroke="#4f5791" d="M34 36h1M35 37h1" />
<path stroke="#180000" d="M22 37h1" />
<path stroke="#fff7f7" d="M23 37h1" />
<path stroke="#c8c6c2" d="M26 37h2" />
<path stroke="#5d66a7" d="M34 37h1" />
<path stroke="#000408" d="M16 38h1M16 39h1" />
<path stroke="#736931" d="M17 38h1" />
<path stroke="#f7d342" d="M18 38h2M18 39h1M20 40h1M17 42h1M36 44h1" />
<path stroke="#baa24a" d="M20 38h1M20 39h1M31 46h1M31 47h1" />
<path stroke="#42414a" d="M21 38h1M36 46h1M30 47h1M37 47h1" />
<path stroke="#000018" d="M22 38h1" />
<path stroke="#eff3ff" d="M23 38h1" />
<path stroke="#7b7b8c" d="M24 38h1" />
<path stroke="#5d615f" d="M26 38h1M27 39h1" />
<path stroke="#6069aa" d="M34 38h2M34 39h2" />
<path stroke="#842936" d="M42 38h1M42 39h2" />
<path stroke="#e7cf5a" d="M17 39h1" />
<path stroke="#c0a24f" d="M19 39h1" />
<path stroke="#f7d34a" d="M21 39h1M30 46h1" />
<path stroke="#77798b" d="M22 39h2" />
<path stroke="#bdbace" d="M25 39h1" />
<path stroke="#f4d342" d="M16 40h2M16 41h2" />
<path stroke="#efd34a" d="M18 40h2" />
<path stroke="#3f3b26" d="M22 40h1" />
<path stroke="#bda252" d="M23 40h1M22 41h1M22 42h1M30 43h1M36 47h1M38 48h1M38 49h1" />
<path stroke="#4a3442" d="M40 40h1M40 41h1M44 41h2" />
<path stroke="#735444" d="M41 40h1M44 40h1" />
<path stroke="#c6964a" d="M45 40h1M41 41h1" />
<path stroke="#738889" d="M46 40h1M46 41h2" />
<path stroke="#4f4623" d="M18 41h1" />
<path stroke="#000010" d="M19 41h1" />
<path stroke="#000810" d="M23 41h1M28 45h1" />
<path stroke="#c0a24c" d="M42 41h2M39 46h1M38 47h2" />
<path stroke="#080000" d="M20 42h1" />
<path stroke="#914e31" d="M21 42h1M20 43h1" />
<path stroke="#44485d" d="M30 42h2M31 43h1" />
<path stroke="#547a9f" d="M42 42h1" />
<path stroke="#2e3f4f" d="M43 42h1" />
<path stroke="#4a79a5" d="M44 42h2" />
<path stroke="#d6754a" d="M21 43h1" />
<path stroke="#3f3b23" d="M28 43h1M37 49h1" />
<path stroke="#bda25a" d="M29 43h1M37 48h1" />
<path stroke="#080400" d="M42 43h2" />
<path stroke="#424242" d="M27 44h1" />
<path stroke="#786c47" d="M28 44h1" />
<path stroke="#3c3a2b" d="M29 44h1" />
<path stroke="#bda24f" d="M30 44h2M30 45h2" />
<path stroke="#c0a747" d="M37 44h1" />
<path stroke="#4f4d3e" d="M38 44h2" />
<path stroke="#636163" d="M27 45h1" />
<path stroke="#b59e63" d="M29 45h1" />
<path stroke="#5e615e" d="M35 45h1M35 46h1M29 48h2M36 50h2" />
<path stroke="#525152" d="M36 45h2" />
<path stroke="#efd75a" d="M38 45h1" />
<path stroke="#000831" d="M39 45h1" />
<path stroke="#6b614c" d="M37 46h1" />
</svg>