<svg xmlns="http://www.w3.org/2000/svg" viewBox="0 -0.5 68 56" shape-rendering="crispEdges">
<metadata>Made with Pixels to Svg https://codepen.io/shshaw/pen/XbxvNj</metadata>
<path stroke="#000000" d="M35 4h5M42 4h4M32 5h3M40 5h2M46 5h2M30 6h2M48 6h2M29 7h1M50 7h1M28 8h1M51 8h1M28 9h1M52 9h1M27 10h1M52 10h1M24 11h2M27 11h1M53 11h1M55 11h1M24 12h1M26 12h1M54 12h1M56 12h1M24 13h1M56 13h1M24 14h1M56 14h1M25 15h1M55 15h1M25 16h1M55 16h1M26 17h1M54 17h1M26 18h1M54 18h1M27 19h1M53 19h1M25 20h1M28 20h1M52 20h1M24 21h1M26 21h1M28 21h1M51 21h1M24 22h1M27 22h1M31 22h2M49 22h2M24 23h1M30 23h1M33 23h1M47 23h2M24 24h1M30 24h1M32 24h1M46 24h1M25 25h1M31 25h1M47 25h1M23 26h2M22 27h1M21 28h1M46 28h1M21 29h1M44 29h2M44 31h2M22 32h1M48 32h2M22 33h1M50 33h5M21 34h1M55 34h1M21 35h1M53 35h2M22 36h2M52 36h1M50 37h2M48 38h1M23 39h1M48 39h1M22 40h1M24 40h1M26 40h1M45 40h1M49 40h1M22 41h2M25 41h1M27 41h2M44 41h1M46 41h2M50 41h1M25 42h2M29 42h1M40 42h1M44 42h1M48 42h1M50 42h1M29 43h1M39 43h1M41 43h1M45 43h1M48 43h1M50 43h1M29 44h1M32 44h1M36 44h2M39 44h1M41 44h1M47 44h1M49 44h1M28 45h1M31 45h1M33 45h1M37 45h1M40 45h1M47 45h2M27 46h1M30 46h1M38 46h2M43 46h1M45 46h1M51 46h2M28 47h2M43 47h2M46 47h3M50 47h1M53 47h2M33 48h2M37 48h2M45 48h1M52 48h1M55 48h1M25 49h2M36 49h1M39 49h2M42 49h3M53 49h2M28 50h1M31 50h1M36 50h1M40 50h2M46 50h1M50 50h1M28 51h1M30 51h1M34 51h1M37 51h3M41 51h1M47 51h3M25 52h3M30 52h1M34 52h1M42 52h3M31 53h1" />
<path stroke="#b4caff" d="M35 5h5M42 5h4M38 6h3M40 7h2M44 26h2M40 27h2M45 27h1M36 28h1M40 28h1" />
<path stroke="#4f718b" d="M32 6h1M35 6h1M33 7h2" />
<path stroke="#acbaff" d="M33 6h2" />
<path stroke="#4e578f" d="M36 6h2M44 6h4M40 8h2" />
<path stroke="#ffffff" d="M41 6h1M41 11h1M25 12h1M41 12h2M55 12h1M25 13h1M42 13h1M54 13h2M25 14h2M37 24h1M40 24h1M35 25h2M34 26h4M23 27h1M22 28h1M40 33h1M40 36h1M40 37h1M40 38h1M40 39h1" />
<path stroke="#f6ffff" d="M42 6h1M38 26h1" />
<path stroke="#bdc7db" d="M43 6h1" />
<path stroke="#296d4e" d="M30 7h2M48 7h2M29 8h1M50 8h1M29 9h1M50 9h2M42 10h2M43 11h1M52 11h1M52 12h1M52 13h1M28 14h2M45 14h1M52 14h1M29 15h1M45 15h1M52 15h1M44 25h3M43 26h1M42 27h1M39 28h1M42 28h1M44 28h2M48 33h2M54 34h1M50 36h2" />
<path stroke="#204c52" d="M32 7h1M35 7h1" />
<path stroke="#296d4a" d="M36 7h2M44 7h4M40 9h2M40 26h2M44 27h1M37 28h1M41 28h1M36 29h2M40 29h2" />
<path stroke="#4c5691" d="M38 7h2" />
<path stroke="#4a5994" d="M42 7h2" />
<path stroke="#296e4c" d="M30 8h10M42 8h2M45 8h5M30 9h10M42 9h3M46 9h4M28 10h12M44 10h1M46 10h6M28 11h12M44 11h2M47 11h5M28 12h12M44 12h2M47 12h5M28 13h12M44 13h2M47 13h5M30 14h10M46 14h6M30 15h10M46 15h6M30 16h10M48 16h4M30 17h1M32 17h1M34 17h6M48 17h2M33 18h1M35 18h1M37 18h2M32 19h1M34 19h1M36 19h1M47 34h5M46 35h4" />
<path stroke="#395d4a" d="M44 8h1M45 9h1M45 10h1M46 11h1M46 12h1M46 13h1M31 17h1M33 17h1M50 17h2M32 18h1M34 18h1M36 18h1M39 18h1M44 18h2M48 18h2M33 19h1M35 19h1M37 19h3M44 19h2M48 19h2M36 20h2M36 21h2M46 34h1M44 35h2M50 35h2" />
<path stroke="#395041" d="M40 10h2M40 11h1M28 16h2M29 17h1" />
<path stroke="#414041" d="M42 11h1M27 12h1M43 12h1M53 12h1M26 13h2M43 13h1M53 13h1M40 14h1M44 14h1M53 14h1M28 15h1M40 15h1M44 15h1M53 15h1M40 16h1M44 16h1M46 16h1M40 17h1M44 17h1M46 17h1M40 18h1M43 18h1M46 18h1M40 19h1M43 19h1M51 19h1M29 20h1M32 20h2M40 20h1M42 20h1M45 20h1M30 21h1M34 21h2M39 21h1M42 21h1M44 21h1M46 21h2M26 22h1M29 22h2M36 22h3M41 22h1M44 22h2M25 23h5M34 23h3M27 24h1M43 24h3M26 25h1M42 25h2M32 26h1M42 26h1M32 27h2M36 27h2M43 27h1M25 28h1M34 28h2M38 28h1M43 28h1M25 29h1M35 29h1M38 29h2M42 29h2M34 30h4M40 30h2M25 31h1M32 31h1M34 31h1M36 31h1M25 32h1M32 32h1M34 32h1M36 32h1M32 33h1M35 33h1M37 33h1M39 33h1M42 33h1M24 34h1M26 34h3M30 34h1M32 34h1M35 34h1M37 34h2M40 34h2M24 35h1M26 35h1M28 35h3M33 35h1M35 35h1M37 35h1M40 35h1M42 35h1M27 36h1M30 36h2M34 36h3M39 36h1M42 36h4M26 37h2M32 37h3M38 37h2M44 37h1M46 37h2M36 38h2M39 38h1M41 38h1M45 38h1M32 39h4M38 39h2M41 39h1M45 39h1M28 40h1M40 40h1M31 42h1M34 42h1M36 42h2M32 43h1M36 43h1M42 43h2M38 49h1M43 50h1" />
<path stroke="#414441" d="M40 12h1M40 13h1M40 25h2" />
<path stroke="#808280" d="M41 13h1M41 24h1" />
<path stroke="#4a4841" d="M27 14h1M29 38h1M28 39h1" />
<path stroke="#c5c2cd" d="M41 14h1M41 15h1M26 16h2M41 16h1M54 16h1M27 17h2M41 17h1M53 17h1M27 18h1M42 32h2M43 33h1M42 34h4M43 35h1" />
<path stroke="#8b8983" d="M42 14h1M35 24h1M34 25h1" />
<path stroke="#c8c2d0" d="M43 14h1M42 15h2M42 16h2M43 17h1M28 18h2M28 19h1M44 32h2M44 33h2" />
<path stroke="#949494" d="M54 14h1" />
<path stroke="#dedede" d="M55 14h1M54 15h1" />
<path stroke="#868580" d="M26 15h2" />
<path stroke="#2b6e4c" d="M45 16h1M47 16h1M35 20h1M46 36h1" />
<path stroke="#414844" d="M52 16h2M52 17h1M47 33h1" />
<path stroke="#8b9194" d="M42 17h1M29 19h2M49 21h1M33 22h1M48 22h1M43 23h1" />
<path stroke="#365747" d="M45 17h1M47 17h1M34 20h1M47 36h1" />
<path stroke="#395047" d="M30 18h2M31 19h1" />
<path stroke="#879194" d="M41 18h2M41 19h2M30 20h2M41 20h1M31 21h3M40 21h2M34 22h2M39 22h2M37 23h5M44 23h2M42 24h1M37 31h1M40 31h2M38 32h2M38 33h1M41 35h1" />
<path stroke="#365b4a" d="M47 18h1M50 18h2M46 19h2M50 19h1M38 20h2M43 20h2M46 20h2M38 21h1M43 21h1M45 21h1" />
<path stroke="#414347" d="M52 18h1" />
<path stroke="#c5cad5" d="M53 18h1" />
<path stroke="#83868e" d="M52 19h1" />
<path stroke="#3f4841" d="M48 20h2M48 21h1M42 22h2M42 23h1" />
<path stroke="#44484a" d="M50 20h1" />
<path stroke="#899194" d="M51 20h1M50 21h1M46 22h2M46 23h1M38 30h2M38 31h2" />
<path stroke="#5e615e" d="M25 21h1M28 22h1M42 37h2M44 38h1M44 39h1M32 42h2M35 42h1M33 43h3M44 43h1M33 44h1" />
<path stroke="#626162" d="M29 21h1M25 22h1M29 40h1M29 41h1" />
<path stroke="#6244b4" d="M25 24h1" />
<path stroke="#624ea9" d="M26 24h1" />
<path stroke="#7b5dd5" d="M28 24h2M42 44h2M44 50h1M26 51h2M44 51h1" />
<path stroke="#444244" d="M33 24h1" />
<path stroke="#c5c4c1" d="M34 24h1" />
<path stroke="#8b8b7f" d="M36 24h1M37 25h1M33 26h1" />
<path stroke="#4f578e" d="M38 24h2" />
<path stroke="#7355de" d="M27 25h1" />
<path stroke="#2e2947" d="M28 25h1M43 45h1M26 50h1M45 50h1" />
<path stroke="#081000" d="M29 25h1M30 26h1M24 37h1M35 45h1M42 45h1M27 50h1M45 51h1" />
<path stroke="#898489" d="M32 25h1" />
<path stroke="#cdc6cd" d="M33 25h1" />
<path stroke="#8e8a80" d="M38 25h2" />
<path stroke="#eedaff" d="M25 26h1M24 27h2M24 28h1M24 29h1M23 30h3M24 31h1M24 32h1M24 33h2M25 34h1M25 35h1M26 36h1M53 48h2" />
<path stroke="#dec6ff" d="M26 26h1" />
<path stroke="#39384a" d="M27 26h1M26 27h1" />
<path stroke="#755ad5" d="M28 26h2M28 27h2M26 28h4M26 29h4" />
<path stroke="#2e2b4c" d="M31 26h1" />
<path stroke="#41404a" d="M39 26h1M38 27h1M40 32h1M41 37h1" />
<path stroke="#acd6ff" d="M46 26h1" />
<path stroke="#000c00" d="M47 26h1M47 27h1" />
<path stroke="#8b7fa4" d="M27 27h1" />
<path stroke="#7b61e6" d="M30 27h1" />
<path stroke="#544699" d="M31 27h1" />
<path stroke="#41444a" d="M34 27h1" />
<path stroke="#a0a1a4" d="M35 27h1" />
<path stroke="#babfc2" d="M39 27h1" />
<path stroke="#394f54" d="M46 27h1" />
<path stroke="#ebdafe" d="M23 28h1M22 29h2" />
<path stroke="#5f44af" d="M30 28h1M32 28h1M31 29h1M33 29h1M30 32h1" />
<path stroke="#7559d3" d="M31 28h1M33 28h1M30 29h1M32 29h1M31 32h1M30 33h2" />
<path stroke="#7359d5" d="M34 29h1M32 30h2M33 31h1M35 31h1M33 32h1M35 32h1M33 33h2M22 34h1M31 34h1M33 34h2M36 34h1M31 35h2M34 35h1M36 35h1M32 36h2M29 45h1M28 46h2M44 46h1M37 49h1M38 50h2M42 50h1M47 50h1M31 51h1M42 51h1M31 52h1" />
<path stroke="#202020" d="M22 30h1M23 31h1" />
<path stroke="#413c41" d="M26 30h1M26 38h1M26 39h1" />
<path stroke="#7355d5" d="M27 30h1M26 31h1" />
<path stroke="#896ecd" d="M28 30h1" />
<path stroke="#5a3cb4" d="M29 30h1M28 31h1" />
<path stroke="#7b5ec8" d="M30 30h1M31 31h1" />
<path stroke="#5a3cbd" d="M31 30h1" />
<path stroke="#83858e" d="M42 30h1" />
<path stroke="#000400" d="M43 30h1M24 50h1M24 51h1M32 53h2" />
<path stroke="#624ca4" d="M27 31h1" />
<path stroke="#e6d2ff" d="M29 31h1" />
<path stroke="#bda1de" d="M30 31h1" />
<path stroke="#c5c6d5" d="M42 31h2" />
<path stroke="#e6d6f6" d="M23 32h1" />
<path stroke="#6d6286" d="M26 32h1M27 33h1" />
<path stroke="#e6ceff" d="M27 32h1" />
<path stroke="#eed6ff" d="M28 32h1" />
<path stroke="#baa9c5" d="M29 32h1" />
<path stroke="#7e76b4" d="M37 32h1M36 33h1" />
<path stroke="#bfbfc2" d="M41 32h1M41 33h1M41 36h1" />
<path stroke="#000800" d="M46 32h2" />
<path stroke="#4c4752" d="M23 33h1" />
<path stroke="#312c4a" d="M26 33h1" />
<path stroke="#525052" d="M28 33h2" />
<path stroke="#c5cacd" d="M46 33h1" />
<path stroke="#6553a1" d="M23 34h1" />
<path stroke="#524e44" d="M29 34h1M41 40h1M40 41h2M30 42h1M42 42h2M30 43h2M37 43h1" />
<path stroke="#006dcd" d="M39 34h1M38 35h2M37 36h2M30 37h2M35 37h3M31 38h5" />
<path stroke="#2d674a" d="M52 34h2M52 35h1" />
<path stroke="#4a4839" d="M22 35h1" />
<path stroke="#574e6d" d="M23 35h1" />
<path stroke="#5d46af" d="M27 35h1" />
<path stroke="#393252" d="M24 36h2" />
<path stroke="#4a3c41" d="M28 36h1M29 37h1" />
<path stroke="#2061d5" d="M29 36h1" />
<path stroke="#396552" d="M48 36h2" />
<path stroke="#6a55a4" d="M25 37h1" />
<path stroke="#2e54a4" d="M28 37h1" />
<path stroke="#bda5d5" d="M45 37h1M46 40h3M48 41h2M49 42h1M49 43h1M48 44h1" />
<path stroke="#294336" d="M48 37h1" />
<path stroke="#080000" d="M49 37h1" />
<path stroke="#000008" d="M24 38h1M25 39h1" />
<path stroke="#5d4e91" d="M25 38h1" />
<path stroke="#6d5a99" d="M27 38h1" />
<path stroke="#624cac" d="M28 38h1" />
<path stroke="#4c4c4a" d="M30 38h1M30 39h2" />
<path stroke="#8979ba" d="M38 38h1" />
<path stroke="#5f615f" d="M42 38h2M42 39h2" />
<path stroke="#bda7d3" d="M46 38h2M46 39h2" />
<path stroke="#8b75d5" d="M24 39h1" />
<path stroke="#8369c5" d="M27 39h1" />
<path stroke="#524a65" d="M29 39h1" />
<path stroke="#9c91de" d="M36 39h2M33 40h1M37 40h2M34 41h1" />
<path stroke="#8b79bd" d="M23 40h1M27 40h1M26 41h1" />
<path stroke="#4f4e44" d="M30 40h1M30 41h1M42 41h2" />
<path stroke="#5d5f5f" d="M31 40h1M42 40h2M31 41h1" />
<path stroke="#414039" d="M32 40h1M34 40h1M36 40h1M33 41h1M35 41h1M37 41h1" />
<path stroke="#5f5b70" d="M35 40h1M32 41h1M36 41h1" />
<path stroke="#4a4441" d="M39 40h1M38 41h2" />
<path stroke="#524e45" d="M44 40h1M41 42h1" />
<path stroke="#524f44" d="M38 42h2M38 43h1M38 44h1M38 45h2" />
<path stroke="#474641" d="M30 44h2M30 45h1" />
<path stroke="#2e2f41" d="M34 44h1" />
<path stroke="#544e83" d="M35 44h1" />
<path stroke="#2e2547" d="M44 44h1M33 46h1M34 47h1M32 51h1" />
<path stroke="#080800" d="M45 44h1M45 45h1M32 46h1M35 46h1M32 47h1M35 47h1M32 50h2" />
<path stroke="#7b6dc5" d="M34 45h1" />
<path stroke="#7b61d5" d="M44 45h1M34 46h1M33 47h1M33 51h1" />
<path stroke="#b4b2e6" d="M51 47h2" />
<path stroke="#5a528f" d="M46 48h1" />
<path stroke="#7b65cd" d="M47 48h1M46 49h2" />
<path stroke="#b4b6ee" d="M48 48h1M49 49h1" />
<path stroke="#080008" d="M49 48h1" />
<path stroke="#aca1e6" d="M50 48h1M50 49h1" />
<path stroke="#3f384c" d="M51 48h1" />
<path stroke="#5a5094" d="M45 49h1M37 50h1" />
<path stroke="#7b79a1" d="M48 49h1" />
<path stroke="#080400" d="M51 49h1" />
<path stroke="#7b65d5" d="M25 50h1M33 52h1" />
<path stroke="#7b69c5" d="M48 50h2" />
<path stroke="#52448e" d="M25 51h1M32 52h1" />
<path stroke="#5a4c8b" d="M43 51h1" />
</svg>