<svg xmlns="http://www.w3.org/2000/svg" viewBox="0 -0.5 68 56" shape-rendering="crispEdges">
<metadata>Made with Pixels to Svg https://codepen.io/shshaw/pen/XbxvNj</metadata>
<path stroke="#000000" d="M25 25h1M24 26h1M26 26h1M23 27h1M26 27h1M28 27h2M22 28h1M21 29h1M30 29h1M46 29h1M21 30h1M31 30h1M47 30h1M17 31h2M20 31h1M31 31h1M43 31h1M47 31h1M17 32h1M19 32h1M32 32h2M48 32h1M18 33h1M34 33h1M41 33h1M48 33h1M40 34h1M17 35h1M34 35h1M40 35h1M26 36h1M36 36h1M39 36h1M49 36h1M17 37h1M37 37h3M48 37h1M17 38h1M47 38h1M16 39h1M46 39h1M16 40h1M45 40h1M16 41h1M45 41h1M16 42h1M18 42h1M21 42h1M45 42h1M17 43h1M19 43h2M44 43h1M22 44h1M43 44h1M23 45h1M43 45h1M23 46h1M42 46h1M24 47h1M40 47h2M25 48h2M39 48h1M27 49h1M38 49h1M30 50h1M32 50h1M38 50h1M25 51h1M28 51h1M31 51h1M33 51h1M39 51h1M26 52h2M29 52h2M38 52h1M31 53h1M37 53h1M32 54h2M35 54h1M37 54h1M34 55h1M36 55h1" />
<path stroke="#685e9a" d="M25 26h1M24 27h2M23 28h1M22 29h2M22 30h2M46 30h1M22 31h1M46 31h1M46 32h1M32 33h2M47 33h1M41 34h1M41 35h1M27 36h3M40 36h4M26 37h2M40 37h1M21 38h6M28 38h1M37 38h1M44 38h2M20 39h3M28 39h2M36 39h1M18 40h2M30 40h2M38 40h1M44 40h1M18 41h1M30 41h1M38 41h2M44 41h1M28 44h1M38 44h2M28 45h1M31 46h3M33 47h1" />
<path stroke="#685e99" d="M24 28h2M24 29h1M30 32h1M24 33h2M30 33h2M20 34h1M23 34h1M46 34h2M20 35h4M46 35h1M38 43h2M37 46h1M36 47h1" />
<path stroke="#39344a" d="M26 28h1M29 29h1M42 33h1M32 35h1M19 37h1M34 37h1" />
<path stroke="#080800" d="M27 28h1M29 28h1M42 32h1M33 34h1M25 35h2M18 36h1M35 36h1" />
<path stroke="#6b6194" d="M28 28h1M26 29h3M43 32h1M43 33h1M24 34h2M32 34h1M33 35h1M19 36h1M22 36h1M34 36h1M18 37h1M35 37h1" />
<path stroke="#4a4573" d="M25 29h1M45 34h1M47 35h1M34 42h1M38 42h2M34 43h2M32 44h1M33 45h1M36 46h1M27 47h1M37 47h1" />
<path stroke="#424142" d="M24 30h1M29 30h1M23 31h1M25 31h1M28 31h1M20 32h1M23 32h1M26 32h2M47 32h1M21 33h2M46 33h1M31 36h1M28 37h3M32 37h2M41 37h3M20 38h1M27 38h1M29 38h1M32 38h1M36 38h1M40 38h1M43 38h1M23 39h5M30 39h3M37 39h2M42 39h1M44 39h2M21 40h2M25 40h1M32 40h1M39 40h1M43 40h1M19 41h2M23 41h2M31 41h1M40 41h3M30 42h1M41 42h1M25 43h1M28 43h2M41 43h1M43 43h1M27 44h1M29 44h1M40 44h1M26 45h1M29 45h1M38 45h2M30 46h1M39 46h1M30 47h3M38 47h1M34 48h5M28 49h2M36 49h1M37 51h1M35 52h1M34 53h1" />
<path stroke="#626694" d="M25 30h1M28 30h1M21 32h2" />
<path stroke="#685f99" d="M26 30h2M26 31h2M30 34h2M30 35h2M44 36h2M44 37h2M26 40h4M26 41h4M34 44h2M34 45h2" />
<path stroke="#737dbd" d="M30 30h1M30 31h1M18 32h1M24 32h2M31 32h1M19 33h1M26 33h2M21 34h2M33 38h2M17 39h1M33 39h2M33 40h2M32 41h2M31 42h3M30 43h3M30 44h2M36 45h1M35 47h1M34 54h1M36 54h1" />
<path stroke="#000400" d="M44 30h2M49 34h1M49 35h1M22 43h1" />
<path stroke="#6b5d9c" d="M21 31h1M48 36h1M36 37h1M46 38h1M17 42h1M42 42h2M40 45h2M33 50h1M38 51h1" />
<path stroke="#7379bd" d="M24 31h1M29 31h1M20 33h1M23 33h1M24 45h1" />
<path stroke="#37344a" d="M44 31h1M48 34h1" />
<path stroke="#6e6594" d="M45 31h1M48 35h1" />
<path stroke="#7379b5" d="M28 32h1" />
<path stroke="#65669c" d="M29 32h1" />
<path stroke="#5a5184" d="M44 32h1M44 33h1M28 34h1M42 34h1M42 35h1M46 36h1M44 42h1M27 43h1M23 44h1M31 45h1M30 51h1" />
<path stroke="#6a5e9a" d="M45 32h1M45 33h1M29 34h1M43 34h1M28 35h2M43 35h1M47 36h1M46 37h2M26 42h2M26 43h1" />
<path stroke="#4a416b" d="M28 33h1" />
<path stroke="#575383" d="M29 33h1" />
<path stroke="#080408" d="M18 34h1" />
<path stroke="#7b82c6" d="M19 34h1M18 35h1" />
<path stroke="#292731" d="M26 34h2" />
<path stroke="#655f99" d="M44 34h1M45 35h1" />
<path stroke="#545886" d="M19 35h1" />
<path stroke="#292531" d="M24 35h1" />
<path stroke="#6b6594" d="M27 35h1" />
<path stroke="#575286" d="M44 35h1" />
<path stroke="#44404a" d="M20 36h1" />
<path stroke="#6b619c" d="M21 36h1M20 37h1" />
<path stroke="#080400" d="M23 36h1M23 37h1M26 50h1M34 51h1" />
<path stroke="#ffe7ef" d="M24 36h1" />
<path stroke="#100000" d="M25 36h1M25 37h1" />
<path stroke="#635d9c" d="M30 36h1M33 36h1M43 39h1M43 41h1M25 42h1M29 42h1M27 45h1" />
<path stroke="#58537e" d="M32 36h1M31 37h1M42 38h1M42 40h1M24 42h1M28 42h1M24 43h1M26 44h1" />
<path stroke="#313021" d="M21 37h1" />
<path stroke="#292331" d="M22 37h1" />
<path stroke="#877377" d="M24 37h1" />
<path stroke="#423c42" d="M18 38h1M33 48h1" />
<path stroke="#626294" d="M19 38h1M19 39h1M32 48h1M33 49h1" />
<path stroke="#565184" d="M30 38h2M38 38h2M41 38h1M39 39h3M40 40h2M34 49h2" />
<path stroke="#423842" d="M35 38h1" />
<path stroke="#7375bd" d="M18 39h1M32 49h1" />
<path stroke="#524f6b" d="M35 39h1" />
<path stroke="#6e6eaa" d="M17 40h1M17 41h1" />
<path stroke="#736788" d="M20 40h1M21 41h1" />
<path stroke="#7f6d73" d="M23 40h1M22 41h1M19 42h2" />
<path stroke="#736984" d="M24 40h1" />
<path stroke="#4a4473" d="M35 40h1M34 41h2M33 43h1" />
<path stroke="#656096" d="M36 40h1M37 41h1M36 42h1M36 43h1" />
<path stroke="#7b7dbd" d="M37 40h1M37 43h1" />
<path stroke="#625b6e" d="M25 41h1" />
<path stroke="#4f4470" d="M36 41h1M37 42h1" />
<path stroke="#3c3c4c" d="M22 42h1M23 43h1" />
<path stroke="#5a5973" d="M23 42h1" />
<path stroke="#565183" d="M35 42h1M33 44h1M32 45h1" />
<path stroke="#625b9a" d="M40 42h1M38 46h1" />
<path stroke="#524e6e" d="M40 43h1M39 47h1" />
<path stroke="#5d537e" d="M42 43h1M41 44h1" />
<path stroke="#423c4a" d="M24 44h1" />
<path stroke="#525070" d="M25 44h1M25 45h1" />
<path stroke="#4c4470" d="M36 44h2M34 46h2" />
<path stroke="#5d598e" d="M42 44h1M42 45h1" />
<path stroke="#625f97" d="M30 45h1" />
<path stroke="#5f6096" d="M37 45h1M34 47h1" />
<path stroke="#737db5" d="M24 46h1M25 47h1" />
<path stroke="#393e5a" d="M25 46h1" />
<path stroke="#575186" d="M26 46h1M26 47h1" />
<path stroke="#655d99" d="M27 46h1" />
<path stroke="#4a4670" d="M28 46h2M28 47h2M28 48h2" />
<path stroke="#4a476f" d="M40 46h2M27 48h1" />
<path stroke="#3f3f55" d="M30 48h1M30 49h1" />
<path stroke="#767eaa" d="M31 48h1" />
<path stroke="#080000" d="M31 49h1" />
<path stroke="#736268" d="M37 49h1M36 50h2M36 51h1" />
<path stroke="#5a5a7e" d="M27 50h1M27 51h1" />
<path stroke="#736468" d="M28 50h2M29 51h1" />
<path stroke="#70627e" d="M34 50h1M35 51h1" />
<path stroke="#3c333f" d="M35 50h1" />
<path stroke="#8486bd" d="M26 51h1" />
<path stroke="#100c00" d="M32 52h1" />
<path stroke="#363442" d="M33 52h1" />
<path stroke="#625978" d="M34 52h1" />
<path stroke="#6b6163" d="M36 52h1" />
<path stroke="#474042" d="M37 52h1M36 53h1" />
<path stroke="#8486c6" d="M32 53h1" />
<path stroke="#5d5d84" d="M33 53h1" />
<path stroke="#736594" d="M35 53h1" />
</svg>