<svg xmlns="http://www.w3.org/2000/svg" viewBox="0 -0.5 68 56" shape-rendering="crispEdges">
<metadata>Made with Pixels to Svg https://codepen.io/shshaw/pen/XbxvNj</metadata>
<path stroke="#000000" d="M12 9h1M11 10h1M13 10h1M55 10h2M11 11h1M13 11h1M54 11h1M56 11h1M11 12h1M14 12h1M53 12h1M56 12h1M11 13h1M14 13h1M52 13h1M56 13h1M11 14h1M15 14h1M22 14h1M51 14h1M56 14h1M12 15h1M15 15h1M21 15h1M23 15h1M49 15h2M55 15h1M12 16h1M16 16h1M21 16h1M23 16h1M25 16h1M48 16h1M55 16h1M12 17h1M17 17h1M20 17h1M24 17h1M26 17h1M28 17h1M46 17h2M54 17h1M13 18h1M18 18h1M27 18h1M29 18h1M44 18h2M13 19h1M19 19h1M29 19h1M42 19h2M54 19h3M14 20h1M30 20h2M41 20h1M57 20h1M14 21h1M32 21h1M34 21h2M38 21h3M58 21h1M15 22h1M33 22h1M36 22h2M56 22h2M15 23h1M33 23h1M54 23h2M24 24h2M32 24h1M52 24h1M24 25h2M33 25h1M53 25h2M16 26h1M55 26h1M16 27h1M54 27h1M15 28h1M15 29h1M50 29h1M15 30h1M51 30h1M15 31h1M50 31h1M15 32h1M17 32h1M19 32h2M48 32h1M16 33h1M21 33h1M48 33h1M20 34h1M43 34h2M46 34h2M21 35h1M42 35h1M22 36h1M44 36h2M22 37h1M46 37h3M22 38h1M49 38h1M23 39h1M44 39h2M48 39h1M24 40h2M40 40h1M42 40h2M46 40h2M40 41h1M27 42h1M26 43h1M32 43h3M40 43h1M25 44h1M28 44h2M31 44h1M35 44h2M40 44h1M24 45h1M30 45h2M37 45h1M24 46h1M26 46h1M30 46h1M37 46h1M39 46h1M24 47h2M36 47h1M40 47h1M35 48h1M39 48h1M41 48h1M34 49h1M38 49h1M40 49h2M33 50h1M35 50h1M38 50h1M34 51h1M38 51h1M37 52h1" />
<path stroke="#6b599c" d="M12 10h1M12 11h1M55 11h1M53 13h1M12 14h3M52 14h4M13 15h2M22 15h1M51 15h2M54 15h1M22 16h1M49 16h2M53 16h2M16 17h1M21 17h3M25 17h1M48 17h2M52 17h2M24 18h1M24 19h1M44 19h2M50 20h7M30 21h2M41 21h1M50 21h1M55 21h3M19 22h1M27 22h1M44 22h1M49 22h1M54 22h2M19 23h1M27 23h1M44 23h6M28 24h2M31 24h1M39 24h1M42 24h6M28 25h1M30 25h3M38 25h2M42 25h1M47 25h1M52 25h1M18 26h1M26 26h2M29 26h1M32 26h1M37 26h1M40 26h2M46 26h2M54 26h1M19 27h1M29 27h1M34 27h4M41 27h1M18 28h1M22 28h4M27 28h2M31 28h1M43 28h1M18 29h3M24 29h1M26 29h5M42 29h1M28 30h1M32 30h1M34 30h2M50 30h1M28 31h2M33 31h1M35 31h1M16 32h1M24 32h2M28 32h4M25 33h1M28 33h1M24 34h4M30 34h2M26 35h1M30 35h1M27 36h3M26 37h3M38 37h1M44 37h2M24 38h4M34 38h2M34 39h1M36 40h2M35 49h1M37 49h1" />
<path stroke="#6b5a9c" d="M12 12h2M54 12h2M12 13h2M54 13h2M14 16h2M14 17h2M46 18h3M50 18h2M46 19h2M49 19h3M22 20h1M26 20h3M42 20h2M46 20h4M22 21h2M26 21h4M42 21h2M46 21h4M21 22h3M28 22h2M40 22h2M50 22h2M20 23h4M28 23h2M40 23h2M50 23h2M20 24h2M20 25h2M30 26h2M42 26h4M48 26h2M30 27h2M42 27h4M48 27h2M34 28h1M38 28h2M47 28h1M34 29h1M38 29h4M46 29h1M17 30h1M26 30h2M40 30h2M16 31h2M26 31h2M40 31h2M26 32h2M26 33h2M36 36h2M36 37h2M36 38h2M36 39h2" />
<path stroke="#f74142" d="M53 15h1M51 21h1M54 21h1M45 22h1M48 22h1M43 25h1M46 25h1M49 25h1M39 27h1M33 28h1M45 28h1M36 30h1M43 32h1" />
<path stroke="#6b61a5" d="M13 16h1M36 23h1M25 27h1M42 36h1" />
<path stroke="#ff595a" d="M51 16h2M50 17h2M52 21h2M46 22h2M44 25h2M40 27h1M42 31h1" />
<path stroke="#47406e" d="M13 17h1M37 23h1" />
<path stroke="#4a487b" d="M14 18h1M14 19h2M34 22h1M42 22h2M34 23h2M42 23h1M40 36h1M40 37h2M28 39h2M39 40h1M38 41h2" />
<path stroke="#6b589c" d="M15 18h1M35 22h1M43 23h1M41 36h1" />
<path stroke="#424142" d="M16 18h1M22 18h1M25 18h1M16 19h1M23 19h1M25 19h1M16 20h1M19 20h1M24 20h1M16 21h1M24 21h1M39 22h1M38 23h1M30 24h1M38 24h1M29 25h1M19 26h1M28 26h1M34 26h3M18 27h1M26 27h3M46 27h2M16 28h2M19 28h3M26 28h1M29 28h2M42 28h1M21 29h3M25 29h1M31 29h1M43 29h1M20 30h1M33 30h1M46 30h1M32 31h1M47 31h1M35 32h2M39 32h2M30 33h2M37 33h2M41 33h1M23 34h1M29 34h1M22 35h1M27 35h2M31 35h1M34 35h1M26 36h1M35 36h1M38 36h2M24 37h2M29 37h1M34 37h1M39 37h1M38 38h2M35 39h1M38 39h1M32 40h1M35 40h1M32 41h1M35 41h1M28 42h2M36 48h2M36 49h1" />
<path stroke="#7379bd" d="M17 18h1M28 18h1M17 19h1M28 19h1M17 20h2M17 21h3M21 21h1M31 36h1M30 37h1M23 38h1M28 38h2M39 39h1M38 40h1" />
<path stroke="#080800" d="M20 18h1M53 23h1M49 31h1M45 33h1M36 51h1" />
<path stroke="#6b5d9c" d="M21 18h1M20 19h1M24 22h2M52 22h2M21 27h1M48 30h2M44 32h1M44 33h1M37 50h1M37 51h1" />
<path stroke="#626394" d="M23 18h1M25 21h1M17 29h1M34 40h1" />
<path stroke="#737db5" d="M26 18h1M26 19h1M17 27h1" />
<path stroke="#ff4d4a" d="M49 18h1M48 19h1M35 28h1M40 28h2M46 28h1M35 29h1M47 29h1M38 30h1M38 31h1" />
<path stroke="#7365a5" d="M52 18h1" />
<path stroke="#101008" d="M53 18h1" />
<path stroke="#424342" d="M18 19h1M21 32h1M27 43h1M37 44h1" />
<path stroke="#39324e" d="M21 19h1M52 23h1M48 31h1M45 32h1M36 50h1" />
<path stroke="#7375bd" d="M22 19h1M25 20h1M16 29h1M34 41h1" />
<path stroke="#393e5a" d="M27 19h1M17 26h1" />
<path stroke="#524870" d="M52 19h1" />
<path stroke="#312c3c" d="M53 19h1" />
<path stroke="#4a4b7b" d="M15 20h1M15 21h1M21 34h1M42 34h1M44 38h2M48 38h1M34 42h2M35 43h1M30 44h1M25 45h1M25 46h1M40 48h1M34 50h1" />
<path stroke="#525370" d="M20 20h1" />
<path stroke="#42414a" d="M21 20h1M20 21h1" />
<path stroke="#737cbd" d="M23 20h1M29 20h1M20 22h1M16 30h1" />
<path stroke="#6a599c" d="M44 20h1M45 21h1M27 24h1M40 24h1M27 25h1M41 25h1M36 29h2M31 30h1M30 31h1" />
<path stroke="#4a497b" d="M45 20h1M44 21h1M16 22h1M16 23h1M26 24h1M41 24h1M26 25h1M40 25h1M36 28h2M29 30h2M44 30h1M31 31h1M34 31h1M45 31h1M32 32h1M34 32h1M24 33h1M29 33h1M33 33h3M34 34h5M40 34h2M35 35h1M38 35h1M33 36h1M33 37h1M32 38h1M30 39h3M29 40h1M28 41h1M30 42h2" />
<path stroke="#414041" d="M17 22h1M17 23h1M45 30h1M44 31h1M33 32h1M32 33h1M39 34h1M36 35h2M39 35h3M32 36h1M32 37h1M30 38h2M33 38h1M33 39h1M28 40h1M29 41h1M30 43h2" />
<path stroke="#737abd" d="M18 22h1M18 23h1M24 39h4M36 41h2" />
<path stroke="#312821" d="M26 22h1" />
<path stroke="#6e629a" d="M30 22h1M17 25h1" />
<path stroke="#000400" d="M31 22h1M31 23h1M16 24h1M16 25h1M39 42h1M27 45h1" />
<path stroke="#554d70" d="M38 22h1M46 31h1M36 33h1M39 33h2M22 34h1M28 34h1M24 36h1M34 36h1M33 41h1" />
<path stroke="#292134" d="M24 23h1" />
<path stroke="#080400" d="M25 23h1M34 24h1M41 39h1M26 41h1" />
<path stroke="#574873" d="M26 23h1" />
<path stroke="#37334d" d="M30 23h1M17 24h1" />
<path stroke="#68599f" d="M39 23h1M47 30h1M37 32h2M41 32h1M23 35h1M29 35h1M25 36h1M35 37h1M33 40h1" />
<path stroke="#7b71c6" d="M18 24h1" />
<path stroke="#685f9a" d="M19 24h1M19 25h1" />
<path stroke="#837d87" d="M22 24h1" />
<path stroke="#100c10" d="M23 24h1M22 25h1" />
<path stroke="#524d73" d="M35 24h1M34 25h1M40 38h2M26 40h1M27 41h1" />
<path stroke="#4f4d76" d="M36 24h1M36 25h1M25 30h1M24 31h1" />
<path stroke="#6559a2" d="M37 24h1M25 31h1" />
<path stroke="#5d517e" d="M48 24h2M48 25h1M32 28h1M44 28h1M32 29h2M44 29h2M42 32h1M42 33h2" />
<path stroke="#39455a" d="M50 24h2" />
<path stroke="#423c42" d="M18 25h1M30 36h1" />
<path stroke="#f7efff" d="M23 25h1" />
<path stroke="#39344c" d="M35 25h1M40 39h1M27 40h1" />
<path stroke="#39414a" d="M37 25h1M24 30h1" />
<path stroke="#f75d6b" d="M50 25h1" />
<path stroke="#784d5f" d="M51 25h1" />
<path stroke="#312c21" d="M20 26h2" />
<path stroke="#002042" d="M22 26h1" />
<path stroke="#f75163" d="M23 26h1" />
<path stroke="#000408" d="M24 26h1M50 27h2M43 36h1M39 45h1" />
<path stroke="#474270" d="M25 26h1M24 27h1M42 37h2" />
<path stroke="#f7494a" d="M33 26h1M32 27h2" />
<path stroke="#524e84" d="M38 26h2M38 27h1" />
<path stroke="#9a475a" d="M50 26h1" />
<path stroke="#e76984" d="M51 26h1" />
<path stroke="#de5573" d="M52 26h1M48 29h1" />
<path stroke="#943a52" d="M53 26h1M49 29h1" />
<path stroke="#443c4a" d="M20 27h1" />
<path stroke="#52304d" d="M22 27h2" />
<path stroke="#000410" d="M52 27h2M48 28h2" />
<path stroke="#736689" d="M18 30h1M19 31h1" />
<path stroke="#393744" d="M19 30h1" />
<path stroke="#7b6b73" d="M21 30h1M20 31h2M38 46h1M37 47h3M38 48h1" />
<path stroke="#7b6c73" d="M22 30h2" />
<path stroke="#5d538e" d="M37 30h1M36 31h2" />
<path stroke="#5a4d70" d="M39 30h1M39 31h1" />
<path stroke="#5a517b" d="M42 30h2M43 31h1" />
<path stroke="#000800" d="M18 31h1" />
<path stroke="#414241" d="M22 31h2" />
<path stroke="#4a4a7b" d="M22 32h2M46 32h2M22 33h2M46 33h2M42 38h2M46 38h2M42 39h2M46 39h2M30 40h2M30 41h2M36 42h2M36 43h2" />
<path stroke="#62629c" d="M32 34h1" />
<path stroke="#423c4a" d="M33 34h1" />
<path stroke="#3f4044" d="M24 35h1" />
<path stroke="#554c70" d="M25 35h1" />
<path stroke="#7375c6" d="M32 35h1" />
<path stroke="#524f73" d="M33 35h1" />
<path stroke="#424242" d="M23 36h1M23 37h1" />
<path stroke="#626494" d="M31 37h1" />
<path stroke="#525173" d="M32 42h1" />
<path stroke="#36364c" d="M33 42h1" />
<path stroke="#52556b" d="M38 42h1M39 43h1M27 44h1M26 45h1" />
<path stroke="#5a595a" d="M28 43h2" />
<path stroke="#363a47" d="M38 43h1M26 44h1" />
<path stroke="#584f54" d="M38 44h2" />
<path stroke="#84757b" d="M38 45h1" />
</svg>