<svg xmlns="http://www.w3.org/2000/svg" viewBox="0 -0.5 68 56" shape-rendering="crispEdges">
<metadata>Made with Pixels to Svg https://codepen.io/shshaw/pen/XbxvNj</metadata>
<path stroke="#000000" d="M35 24h1M37 24h1M41 24h2M25 25h2M32 25h3M36 25h1M38 25h1M40 25h1M43 25h2M24 26h1M27 26h2M31 26h1M45 26h1M23 27h1M29 27h2M44 27h1M23 28h4M34 28h1M42 28h2M27 29h1M40 29h2M29 30h1M39 30h1M39 31h1M31 32h1M39 32h1M32 33h1M38 33h1M31 34h1M36 34h2M30 35h1M26 36h1M29 36h1M36 36h2M25 37h1M27 37h1M29 37h1M38 37h1M24 38h1M28 38h1M37 38h1M39 38h3M24 39h1M36 39h1M38 39h1M42 39h1M23 40h1M37 40h1M43 40h1M23 41h1M36 41h1M43 41h1M23 42h1M44 42h1M23 43h1M44 43h1M24 44h2M38 44h1M45 44h1M26 45h1M39 45h1M45 45h1M27 46h1M38 46h1M41 46h2M45 46h1M28 47h2M40 47h1M43 47h1M45 47h1M30 48h1M33 48h1M39 48h1M44 48h1M29 49h1M32 49h1M34 49h1M36 49h1M38 49h1M29 50h5M35 50h1M37 50h1M31 51h1M34 51h1M36 51h1M38 51h1M32 52h6" />
<path stroke="#3171ad" d="M35 25h1M37 25h1M41 25h2M32 26h4M44 26h1M32 27h1M40 28h2M35 30h1M29 38h1M28 39h2M39 39h3M42 40h1M37 41h1M42 41h1M35 43h1M39 44h1M43 44h2M43 45h2M44 46h1M44 47h1" />
<path stroke="#ffbe42" d="M25 26h2M24 27h5M31 27h1M32 30h3M34 31h2" />
<path stroke="#3173ad" d="M36 26h2M40 26h4M36 27h2M40 27h4M36 28h2M36 29h2M36 30h2M37 31h1M30 38h2M30 39h2M38 40h4M38 41h3M36 42h2M40 42h1M42 42h2M36 43h1M40 43h2M43 43h1M34 44h2M34 45h2" />
<path stroke="#204b7b" d="M38 26h1M40 44h1" />
<path stroke="#000008" d="M39 26h1M35 40h1M37 45h1M40 45h1" />
<path stroke="#9cdf5a" d="M33 27h3M35 28h1M34 29h2" />
<path stroke="#3171b5" d="M38 27h2M41 44h1M41 45h1" />
<path stroke="#bd8e31" d="M27 28h1M32 32h2M35 32h1M33 33h3" />
<path stroke="#ac862c" d="M28 28h1M29 29h1" />
<path stroke="#ffc742" d="M29 28h1" />
<path stroke="#ffbd42" d="M30 28h2M30 29h2" />
<path stroke="#106184" d="M32 28h1" />
<path stroke="#a4bd58" d="M33 28h1M33 29h1" />
<path stroke="#3174ac" d="M38 28h2M30 37h2M38 42h1M38 43h1M32 46h3" />
<path stroke="#080400" d="M28 29h1" />
<path stroke="#efeb42" d="M32 29h1" />
<path stroke="#184a83" d="M38 29h2M30 36h2M39 42h1M39 43h1M35 46h1M32 47h4" />
<path stroke="#bd8e39" d="M30 30h1M31 31h1" />
<path stroke="#3f3423" d="M31 30h1" />
<path stroke="#2971b5" d="M38 30h1M36 45h1" />
<path stroke="#000818" d="M30 31h1" />
<path stroke="#424142" d="M32 31h2M34 32h1M35 36h1M35 37h1M27 38h1M34 38h1M26 39h1M34 39h1M27 40h1M24 42h1M34 42h2M24 43h1M34 43h1M33 44h1M32 45h1" />
<path stroke="#184984" d="M36 31h1M38 32h1M31 35h1M26 37h1M25 38h1M25 39h1M24 40h1M24 41h1M41 41h1M41 42h1M37 43h1M42 43h1M39 46h2M43 46h1M30 47h2M38 47h2M32 48h1M34 48h4M35 49h1M37 49h1" />
<path stroke="#1b4b78" d="M38 31h1" />
<path stroke="#184a84" d="M36 32h2M36 33h2M32 34h2M32 35h2" />
<path stroke="#214d7b" d="M34 34h2" />
<path stroke="#1b3452" d="M34 35h1" />
<path stroke="#100400" d="M35 35h1" />
<path stroke="#41536d" d="M32 36h1" />
<path stroke="#31414a" d="M33 36h1M32 37h1" />
<path stroke="#7379ad" d="M34 36h1M34 37h1M36 37h2M35 38h2M35 39h1M26 44h2M27 45h1M28 46h2" />
<path stroke="#6379b5" d="M33 37h1" />
<path stroke="#2c5b89" d="M26 38h1" />
<path stroke="#2e5678" d="M32 38h1" />
<path stroke="#333b44" d="M33 38h1" />
<path stroke="#2169ad" d="M27 39h1" />
<path stroke="#2971ad" d="M32 39h2" />
<path stroke="#414042" d="M25 40h1M25 41h1M30 46h2" />
<path stroke="#9caede" d="M26 40h1M26 41h2M32 42h2M32 43h1M28 44h2" />
<path stroke="#39414a" d="M28 40h1M31 40h1M33 40h1M29 41h2M32 41h1" />
<path stroke="#5e7598" d="M29 40h2M32 40h1" />
<path stroke="#9caee7" d="M34 40h1M34 41h1" />
<path stroke="#84aae7" d="M28 41h1M31 41h1M33 41h1" />
<path stroke="#68749c" d="M35 41h1" />
<path stroke="#94a6de" d="M25 42h1" />
<path stroke="#9cadde" d="M26 42h6M26 43h6" />
<path stroke="#7884aa" d="M25 43h1" />
<path stroke="#737bac" d="M33 43h1M28 45h2" />
<path stroke="#737bad" d="M30 44h2M30 45h2" />
<path stroke="#5275ad" d="M32 44h1M33 45h1" />
<path stroke="#1b4b7b" d="M36 44h2" />
<path stroke="#1c4c7b" d="M42 44h1" />
<path stroke="#08284a" d="M42 45h1" />
<path stroke="#184884" d="M36 46h2M36 47h1" />
<path stroke="#082842" d="M37 47h1" />
<path stroke="#424242" d="M31 48h1M30 49h2M34 50h1M36 50h1M32 51h2M35 51h1M37 51h1" />
<path stroke="#424342" d="M38 48h1" />
</svg>