<svg xmlns="http://www.w3.org/2000/svg" viewBox="0 -0.5 68 56" shape-rendering="crispEdges">
<metadata>Made with Pixels to Svg https://codepen.io/shshaw/pen/XbxvNj</metadata>
<path stroke="#000400" d="M23 24h1M22 25h1M24 25h1M26 25h1M35 25h1M40 25h2M22 26h1M27 26h1M34 26h1M36 26h1M38 26h2M42 26h1M22 27h1M27 27h1M34 27h1M37 27h1M41 27h1M22 28h1M27 28h1M33 28h1M40 28h1M23 29h1M27 29h1M33 29h1M39 29h1M23 30h1M27 30h1M30 30h2M40 30h1M24 31h1M28 31h2M38 31h2M24 32h1M25 33h1M38 33h1M25 34h1M39 34h1M24 35h1M40 35h1M24 36h1M30 36h1M39 36h1M24 37h1M31 37h1M40 37h1M25 38h1M24 39h1M25 40h1M38 40h1M23 41h2M38 41h1M22 42h1M39 42h1M21 43h1M40 43h1M22 44h2M40 44h1M24 45h1M41 45h2M25 46h1M43 46h2M26 47h1M45 47h1M25 48h1M46 48h1M25 49h1M46 49h1M24 50h1M46 50h1M24 51h1M45 51h1M25 52h1M43 52h2M26 53h2M30 53h1M39 53h4M31 54h3M38 54h1M34 55h2" />
<path stroke="#ffffff" d="M23 25h1M23 26h1M35 26h1M40 26h2M23 27h1M35 27h2M38 27h3M23 28h2M34 28h6M24 29h2M34 29h5M24 30h3M34 30h6M25 31h3M34 31h4M25 32h3M32 32h4M26 33h2M32 33h3M26 34h8M27 35h3M33 35h3M31 36h1M34 36h3M30 37h1M32 37h1M35 37h3M32 38h1M35 38h3M34 39h2M33 40h2M30 41h6M29 42h4M30 43h4M31 44h1M42 46h1M42 47h3M42 48h4M38 49h1M43 49h2" />
<path stroke="#fffbff" d="M24 26h1M24 27h1M33 30h1M33 31h1" />
<path stroke="#000000" d="M25 26h1M32 30h1M30 38h2M39 38h1M39 39h1M36 55h2" />
<path stroke="#c6c3bd" d="M26 26h1M26 27h1M26 28h1M26 29h1M38 34h1M25 35h1M38 35h2M25 36h1M38 36h1M25 37h1M38 37h2M25 41h1M25 44h3M33 44h1M25 45h1M27 45h1M32 45h1M27 46h3M32 46h1M28 47h1M32 47h1M36 47h2M44 50h2M44 51h1M39 52h4" />
<path stroke="#7f7d7f" d="M25 27h1" />
<path stroke="#757575" d="M25 28h1" />
<path stroke="#ef5131" d="M30 31h2M38 42h1M37 43h3M36 44h2M37 45h1M40 45h1M34 46h2M38 46h3M34 47h1M39 47h2M33 48h1M32 49h2M34 50h1M34 51h2M34 52h2" />
<path stroke="#555355" d="M32 31h1" />
<path stroke="#5a3431" d="M28 32h1M31 32h1M29 33h2M35 48h1M34 49h1M36 50h1M37 51h1" />
<path stroke="#91736d" d="M29 32h2M34 48h1M36 51h1" />
<path stroke="#522423" d="M36 32h1" />
<path stroke="#001018" d="M37 32h1" />
<path stroke="#fff3e7" d="M28 33h1M31 33h1M35 49h1M37 50h1" />
<path stroke="#424142" d="M35 33h1M26 35h1M30 35h3M32 36h2M33 37h2M33 38h2M32 39h2M26 40h1M32 40h1M35 40h1M27 41h1M25 42h1M34 42h2M25 43h1M34 43h1M32 44h1M26 45h1M33 45h1M33 46h1M36 46h2M41 46h1M29 47h1M33 47h1M35 47h1M38 47h1M41 47h1M27 48h1M32 48h1M39 48h1M39 49h1M35 50h1M38 50h2M39 51h1M34 53h2" />
<path stroke="#f74d39" d="M36 33h1" />
<path stroke="#a4382e" d="M37 33h1" />
<path stroke="#7b3439" d="M34 34h2" />
<path stroke="#b52c31" d="M36 34h1" />
<path stroke="#e1b8ba" d="M37 34h1" />
<path stroke="#f7ffff" d="M36 35h2" />
<path stroke="#080000" d="M26 36h1M26 37h1" />
<path stroke="#fff7e7" d="M27 36h1" />
<path stroke="#fffbef" d="M28 36h1" />
<path stroke="#4a3c31" d="M29 36h1M29 37h1" />
<path stroke="#c8c3bd" d="M37 36h1M36 39h2M26 42h3M33 42h1M26 43h4M28 44h3M28 45h4M42 49h1M45 49h1M40 50h4M40 51h4" />
<path stroke="#837b73" d="M27 37h1" />
<path stroke="#867b70" d="M28 37h1" />
<path stroke="#f7db6b" d="M26 38h2M25 39h2M34 54h2" />
<path stroke="#ffd763" d="M28 38h1" />
<path stroke="#a56d39" d="M29 38h1M28 39h1" />
<path stroke="#f7fbf7" d="M38 38h1M31 39h1" />
<path stroke="#9f6e3f" d="M27 39h1" />
<path stroke="#e1b355" d="M29 39h1" />
<path stroke="#525352" d="M30 39h1M38 39h1" />
<path stroke="#d6ba7b" d="M27 40h1M26 41h1" />
<path stroke="#a8a287" d="M28 40h1" />
<path stroke="#524531" d="M29 40h1M28 41h1" />
<path stroke="#7b7d7b" d="M30 40h1" />
<path stroke="#393c39" d="M31 40h1" />
<path stroke="#deb2ad" d="M36 40h1M28 48h1M29 51h1" />
<path stroke="#523031" d="M37 40h1M36 41h1M29 48h1M28 49h1M29 50h1M28 51h1" />
<path stroke="#ffffde" d="M29 41h1" />
<path stroke="#805b5a" d="M37 41h1M29 49h1M28 50h1" />
<path stroke="#bd2c31" d="M23 42h1M22 43h2M25 50h1M25 51h1M26 52h2M30 52h2M31 53h1" />
<path stroke="#ba2b2c" d="M24 42h1M24 43h1M35 43h1M26 48h1M26 49h2M38 51h1" />
<path stroke="#bd2b31" d="M36 42h2M36 43h1M36 45h1" />
<path stroke="#42433f" d="M24 44h1M26 46h1M27 47h1M38 52h1M38 53h1" />
<path stroke="#efb29c" d="M34 44h1M31 46h1M41 49h1" />
<path stroke="#553b34" d="M35 44h1M34 45h1M30 46h1M31 47h1M41 48h1M40 49h1" />
<path stroke="#ef4f2e" d="M38 44h2M38 45h2M30 48h2M30 49h2M32 50h2M32 51h2" />
<path stroke="#a27668" d="M35 45h1M30 47h1M40 48h1" />
<path stroke="#8c9294" d="M36 48h1" />
<path stroke="#c8c2ba" d="M37 48h1M36 49h2" />
<path stroke="#c0bfc0" d="M38 48h1" />
<path stroke="#bd2b2e" d="M26 50h2M26 51h2M32 52h2M32 53h2" />
<path stroke="#ba3a31" d="M30 50h1M31 51h1" />
<path stroke="#f73c29" d="M31 50h1" />
<path stroke="#423842" d="M30 51h1" />
<path stroke="#b53839" d="M28 52h1" />
<path stroke="#5a2220" d="M29 52h1" />
<path stroke="#ef4129" d="M36 52h1" />
<path stroke="#b53f31" d="M37 52h1" />
<path stroke="#000c08" d="M28 53h2" />
<path stroke="#423c42" d="M36 53h2" />
<path stroke="#a48747" d="M36 54h1" />
<path stroke="#f7cb6b" d="M37 54h1" />
</svg>