<svg xmlns="http://www.w3.org/2000/svg" viewBox="0 -0.5 68 56" shape-rendering="crispEdges">
<metadata>Made with Pixels to Svg https://codepen.io/shshaw/pen/XbxvNj</metadata>
<path stroke="#000400" d="M28 14h2M31 14h2M27 15h1M30 15h1M33 15h1M26 16h1M34 16h1M26 17h1M34 17h1M27 18h1M40 18h2M43 18h2M20 19h3M26 19h1M35 19h2M39 19h1M42 19h1M45 19h1M19 20h1M24 20h1M27 20h1M46 20h1M18 21h1M25 21h1M46 21h1M17 22h1M28 22h1M45 22h1M7 23h2M13 23h1M17 23h1M26 23h2M46 23h1M7 24h1M9 24h1M11 24h1M14 24h1M17 24h1M45 24h1M8 25h1M10 25h1M15 25h1M17 25h1M44 25h1M9 26h1M16 26h1M18 26h1M43 26h1M9 27h1M16 27h1M18 27h1M37 27h1M44 27h1M9 28h1M16 28h1M19 28h1M44 28h1M7 29h2M15 29h1M19 29h1M26 29h2M45 29h2M6 30h1M10 30h2M19 30h1M7 31h3M12 31h2M16 31h1M14 32h1M16 32h1M20 32h1M47 32h1M14 33h1M17 33h1M20 33h1M48 33h1M14 34h1M21 34h1M23 34h1M31 34h1M48 34h1M14 35h1M18 35h2M21 35h1M23 35h1M32 35h1M48 35h1M15 36h2M23 36h1M28 36h2M32 36h1M17 37h1M24 37h2M30 37h2M26 38h2M50 38h1M29 39h1M50 39h1M28 40h1M41 40h2M17 41h1M27 41h1M40 41h1M43 41h1M26 42h1M51 42h1M15 43h1M26 43h1M50 43h1M52 43h4M14 44h1M35 44h1M56 44h1M14 45h1M35 45h1M53 45h3M15 46h2M36 46h1M51 46h2M17 47h1M36 47h1M50 47h1M18 48h2M22 48h1M51 48h1M20 49h2M23 49h1M51 49h1M25 50h1M50 50h1M26 51h2M30 51h1M33 51h3M42 51h2M46 51h4M28 52h2M31 52h2M36 52h1M41 52h1M44 52h2M37 53h4" />
<path stroke="#a49384" d="M28 15h2M27 16h1M27 17h1" />
<path stroke="#6f5b4a" d="M31 15h2M27 19h1M14 25h1M17 46h1" />
<path stroke="#ac9d89" d="M28 16h2M28 17h2M40 22h2M40 23h2M36 36h2M36 37h2M24 44h2M44 44h2M24 45h2M44 45h2M20 46h2M24 46h2M20 47h2M24 47h2" />
<path stroke="#94df84" d="M30 16h1M30 17h2M31 18h1M29 49h1M28 50h2" />
<path stroke="#735a47" d="M31 16h1M40 19h2M28 37h2M28 38h2M28 39h1M15 44h1M15 45h1" />
<path stroke="#705c47" d="M32 16h2M32 17h2M42 24h2M48 47h2M36 50h2M36 51h2" />
<path stroke="#ad9e88" d="M28 18h2M29 19h1M11 26h1M10 27h2M22 42h2M23 43h1" />
<path stroke="#ac9c89" d="M30 18h1M30 19h2M28 48h2M28 49h1M28 51h2" />
<path stroke="#ada28c" d="M32 18h1M31 38h1M31 39h1" />
<path stroke="#080c10" d="M33 18h1" />
<path stroke="#735d4a" d="M28 19h1M10 26h1M12 26h1M13 27h1M10 28h1M11 29h1M22 43h1" />
<path stroke="#3f3e39" d="M32 19h2" />
<path stroke="#424042" d="M34 19h1M19 21h1" />
<path stroke="#ad9e8c" d="M43 19h1M11 25h1M24 31h1M47 36h1M20 38h1M19 39h2M16 43h2M48 43h1M47 44h1M46 45h1M23 48h1M37 52h1M40 52h1" />
<path stroke="#9c8a84" d="M44 19h1M44 24h1" />
<path stroke="#c09f42" d="M20 20h1" />
<path stroke="#424142" d="M21 20h1M30 20h2M20 21h1M19 22h1M18 23h1M24 24h2M42 25h2M30 26h4M31 27h3M22 28h1M25 28h1M22 29h1M24 29h1M22 30h1M23 31h1M30 31h1M22 32h1M30 32h1M22 33h1M42 34h1M42 35h1M19 37h1M44 38h1M45 39h1M48 40h1M47 41h1M47 42h1M24 43h2M46 43h1M23 44h1M42 44h2M22 45h1M41 45h1M22 46h1M32 46h2M48 46h2M32 47h1M38 47h2M47 47h1M41 48h1M40 49h1" />
<path stroke="#554520" d="M22 20h1" />
<path stroke="#000010" d="M23 20h1" />
<path stroke="#a59284" d="M28 20h2M39 20h1M39 21h1M44 22h1M45 23h1" />
<path stroke="#70975a" d="M32 20h2M32 21h2M36 22h2M36 23h2M34 24h2M34 25h2M28 28h2M40 28h4M28 29h2M40 29h4M34 30h2M34 31h2M34 32h2M40 32h2M34 33h2M40 33h2M40 34h2M40 35h2M34 38h2M34 39h2" />
<path stroke="#73965a" d="M34 20h2M31 22h2M30 23h2M29 26h1M41 26h2M28 27h2M41 27h3M26 28h2M44 29h1M36 30h1M39 30h1M44 30h2M36 31h4M42 33h1M32 34h2M33 35h1M33 36h1M22 37h2M33 37h1M41 38h1M41 39h1M21 40h1M21 41h1" />
<path stroke="#4c6844" d="M36 20h1M36 21h1" />
<path stroke="#000408" d="M37 20h1M26 32h1M26 33h1M38 40h2M44 42h1M51 44h1M36 48h1" />
<path stroke="#000000" d="M38 20h1M28 21h1" />
<path stroke="#73594a" d="M40 20h2" />
<path stroke="#6b6542" d="M42 20h1" />
<path stroke="#f7c7de" d="M43 20h1" />
<path stroke="#ffc3e7" d="M44 20h1M44 21h2M16 33h1M46 34h1M45 35h2M45 36h1M37 38h1M37 39h1M24 40h2M25 41h1" />
<path stroke="#9c8a7f" d="M45 20h1" />
<path stroke="#ffcf42" d="M21 21h4M21 22h3" />
<path stroke="#524942" d="M29 21h1M38 21h1" />
<path stroke="#6f985a" d="M30 21h2M24 25h2" />
<path stroke="#4e6949" d="M34 21h2M33 22h1M32 23h2M40 38h1M40 39h1M20 40h1M20 41h1" />
<path stroke="#739a63" d="M37 21h1" />
<path stroke="#94ad76" d="M40 21h1" />
<path stroke="#a5d78c" d="M41 21h1" />
<path stroke="#b19690" d="M42 21h2" />
<path stroke="#c09d42" d="M18 22h1M19 23h1" />
<path stroke="#c19e42" d="M20 22h1M20 23h2" />
<path stroke="#e7d35a" d="M24 22h1" />
<path stroke="#000418" d="M25 22h1" />
<path stroke="#ce96d6" d="M29 22h2M28 23h2M36 26h2M36 27h1M21 29h1M20 30h2" />
<path stroke="#4c6a49" d="M34 22h1M26 26h1M35 27h1M35 28h1M38 33h1M40 37h1" />
<path stroke="#70985a" d="M35 22h1M34 23h2M27 26h1M34 26h2M26 27h2M34 27h1M34 28h1M34 29h2M40 30h3M40 31h1M42 31h2M38 32h2M39 33h1M34 34h2M34 35h1M34 36h1M40 36h2M34 37h1M41 37h1M22 38h2M22 39h1M34 40h1M34 41h1" />
<path stroke="#424542" d="M38 22h1M39 23h1M40 24h1M41 25h1M45 32h1M44 33h1M28 42h1M28 43h1M49 44h1M48 45h1M40 46h2M38 49h2" />
<path stroke="#a5a67b" d="M39 22h1M41 24h1M45 33h1" />
<path stroke="#add394" d="M42 22h1" />
<path stroke="#9ca97e" d="M43 22h1M42 23h1" />
<path stroke="#5f625d" d="M22 23h2" />
<path stroke="#4d492e" d="M24 23h1" />
<path stroke="#9a8e44" d="M25 23h1" />
<path stroke="#848568" d="M38 23h1M40 25h1M44 32h1" />
<path stroke="#7b5552" d="M43 23h1" />
<path stroke="#6e6258" d="M44 23h1" />
<path stroke="#8e8b7e" d="M8 24h1M9 25h1" />
<path stroke="#423831" d="M12 24h1" />
<path stroke="#c6c3b5" d="M13 24h1M13 25h1M13 26h1M10 29h1" />
<path stroke="#c09d3f" d="M18 24h2M18 25h2" />
<path stroke="#bd9e42" d="M20 24h1" />
<path stroke="#5a755d" d="M21 24h1M20 25h2M20 28h2M20 29h1" />
<path stroke="#94e37b" d="M22 24h2" />
<path stroke="#395b49" d="M26 24h2M26 25h1" />
<path stroke="#ce92de" d="M28 24h1M28 25h1" />
<path stroke="#000008" d="M29 24h1M47 30h1" />
<path stroke="#818378" d="M30 24h1" />
<path stroke="#fffff7" d="M31 24h1M42 41h1" />
<path stroke="#f7f7ef" d="M32 24h1M33 25h1" />
<path stroke="#788570" d="M33 24h1" />
<path stroke="#768070" d="M36 24h1M39 24h1" />
<path stroke="#4a7142" d="M37 24h2M36 25h1M39 25h1" />
<path stroke="#6e665d" d="M12 25h1" />
<path stroke="#66945e" d="M22 25h1" />
<path stroke="#394542" d="M23 25h1" />
<path stroke="#73975a" d="M27 25h1" />
<path stroke="#896196" d="M29 25h1" />
<path stroke="#424539" d="M30 25h2" />
<path stroke="#394d31" d="M32 25h1" />
<path stroke="#ce9ece" d="M37 25h2" />
<path stroke="#735b4a" d="M14 26h1" />
<path stroke="#83826b" d="M15 26h1M14 27h2" />
<path stroke="#476847" d="M19 26h1" />
<path stroke="#579f5d" d="M20 26h2M20 27h2" />
<path stroke="#6ea468" d="M22 26h1" />
<path stroke="#84db7b" d="M23 26h1" />
<path stroke="#394344" d="M24 26h1" />
<path stroke="#415647" d="M25 26h1" />
<path stroke="#8451b5" d="M28 26h1M40 26h1M40 27h1M36 29h1M39 29h1M37 30h2" />
<path stroke="#d095d6" d="M38 26h2M38 27h2" />
<path stroke="#aaa191" d="M12 27h1M11 28h1" />
<path stroke="#6b9a6b" d="M19 27h1" />
<path stroke="#586e55" d="M22 27h1" />
<path stroke="#423842" d="M23 27h1" />
<path stroke="#4a694a" d="M24 27h2" />
<path stroke="#ffffff" d="M30 27h1M30 30h2M31 31h2M31 32h1M30 33h2M29 41h1M40 42h4M27 43h1M29 43h1M41 43h2M28 44h1M30 44h1M29 45h1M31 45h1M30 46h1M35 46h1M31 47h1M33 47h2M32 48h1" />
<path stroke="#838368" d="M12 28h2M12 29h2M44 40h2M44 41h2M44 50h2M44 51h2" />
<path stroke="#848368" d="M14 28h2M14 29h1M12 30h2M15 32h1M15 33h1M15 34h1M15 35h1M50 48h1M50 49h1M42 50h2M48 50h2" />
<path stroke="#4f694a" d="M23 28h1M23 29h1M23 30h1M22 31h1" />
<path stroke="#586c4d" d="M24 28h1" />
<path stroke="#73816f" d="M30 28h1" />
<path stroke="#e7f7de" d="M31 28h1" />
<path stroke="#f7ffef" d="M32 28h1M32 32h1" />
<path stroke="#7b8777" d="M33 28h1M33 29h1" />
<path stroke="#d094d6" d="M36 28h4M37 29h2" />
<path stroke="#c6c3bd" d="M9 29h1M7 30h1" />
<path stroke="#6e9758" d="M25 29h1" />
<path stroke="#000c00" d="M30 29h2M20 31h1M20 36h1M30 39h1M37 41h1M34 43h1" />
<path stroke="#001000" d="M32 29h1M32 41h1" />
<path stroke="#cec7bd" d="M8 30h1" />
<path stroke="#89867e" d="M9 30h1" />
<path stroke="#605a47" d="M14 30h1" />
<path stroke="#080400" d="M15 30h1M28 30h2M27 45h1" />
<path stroke="#393a34" d="M24 30h1M19 38h1M17 42h1" />
<path stroke="#000808" d="M25 30h1M25 31h1M18 38h1M18 39h1M16 42h1M37 42h1" />
<path stroke="#52b2ff" d="M26 30h2M26 31h1M30 34h1M30 35h2M17 36h1M24 36h2M30 36h2M19 42h1M18 43h2M45 49h2M46 50h2" />
<path stroke="#55575f" d="M32 30h1" />
<path stroke="#000410" d="M33 30h1M33 31h1" />
<path stroke="#395d4a" d="M43 30h1M41 31h1M36 34h1M35 35h1M35 36h1M35 37h1M36 38h1M23 39h1M36 39h1M35 40h1M35 41h1" />
<path stroke="#739263" d="M46 30h1" />
<path stroke="#8c866b" d="M14 31h2M26 39h1M34 50h1" />
<path stroke="#443a47" d="M21 31h1" />
<path stroke="#4c5691" d="M27 31h1" />
<path stroke="#5ab6f7" d="M28 31h1" />
<path stroke="#233f52" d="M29 31h1" />
<path stroke="#3d4d45" d="M44 31h2" />
<path stroke="#394935" d="M46 31h1" />
<path stroke="#4e694a" d="M21 32h1M21 33h1M52 44h4M52 45h1M50 46h1" />
<path stroke="#aa9d89" d="M23 32h1M23 33h1M43 34h1M43 35h1M49 40h1M48 41h2M24 42h2M42 45h2M23 46h1M38 46h2M22 47h2" />
<path stroke="#adba84" d="M24 32h1" />
<path stroke="#738258" d="M25 32h1M25 33h1" />
<path stroke="#8eabac" d="M27 32h1" />
<path stroke="#52b4ff" d="M28 32h2M28 33h2M26 34h2M26 35h2" />
<path stroke="#000800" d="M33 32h1M32 33h1M49 36h1M49 37h1M51 40h1M51 41h1M24 49h1" />
<path stroke="#798965" d="M36 32h1M39 34h1M33 38h1" />
<path stroke="#4d6d47" d="M37 32h1M36 33h1M38 34h1M39 35h1M32 38h1M33 39h1" />
<path stroke="#3d5345" d="M42 32h2M43 33h1" />
<path stroke="#aa9e89" d="M46 32h1M46 33h2M22 34h1M22 35h1M26 40h2M26 41h1M37 46h1M37 47h1M26 50h2M30 50h4M31 51h2M38 52h2" />
<path stroke="#001400" d="M24 33h1" />
<path stroke="#d6ffff" d="M27 33h1" />
<path stroke="#7b8377" d="M33 33h1" />
<path stroke="#a5a684" d="M37 33h1M38 35h1M32 39h1" />
<path stroke="#42677f" d="M16 34h1" />
<path stroke="#211400" d="M17 34h1" />
<path stroke="#5ab2ff" d="M24 34h1M25 35h1M27 36h1M26 37h1" />
<path stroke="#100408" d="M25 34h1M27 37h1" />
<path stroke="#f7ffff" d="M28 34h2" />
<path stroke="#ad9d86" d="M37 34h1M36 35h2" />
<path stroke="#ac9e88" d="M44 34h2M44 35h1M24 41h1" />
<path stroke="#918479" d="M47 34h1" />
<path stroke="#63baff" d="M16 35h2" />
<path stroke="#355b83" d="M24 35h1M26 36h1" />
<path stroke="#3169b5" d="M28 35h1" />
<path stroke="#739bcd" d="M29 35h1" />
<path stroke="#5a6542" d="M47 35h1" />
<path stroke="#848468" d="M18 36h2M18 37h1M45 38h1M44 39h1M46 40h2M46 41h1" />
<path stroke="#aaa089" d="M21 36h1M20 37h1M35 42h1M35 43h1" />
<path stroke="#4c653c" d="M22 36h1M32 37h1" />
<path stroke="#aa9e86" d="M38 36h1" />
<path stroke="#656147" d="M39 36h1M38 37h2" />
<path stroke="#6b965a" d="M42 36h1" />
<path stroke="#394142" d="M43 36h1M43 37h1" />
<path stroke="#ad9a8f" d="M44 36h1M44 37h1" />
<path stroke="#65684a" d="M46 36h1M46 37h1M48 42h1M49 43h1" />
<path stroke="#b5a68c" d="M48 36h1M19 40h1M50 40h1" />
<path stroke="#555644" d="M21 37h1M34 42h1" />
<path stroke="#495d4a" d="M42 37h1" />
<path stroke="#848663" d="M45 37h1M46 38h1M42 49h1" />
<path stroke="#89836b" d="M47 37h1M49 42h1" />
<path stroke="#78715d" d="M48 37h1M50 41h1" />
<path stroke="#4f6a4a" d="M21 38h1M21 39h1" />
<path stroke="#426542" d="M24 38h1" />
<path stroke="#a09690" d="M25 38h1M25 39h1" />
<path stroke="#73705d" d="M30 38h1" />
<path stroke="#6b5d42" d="M38 38h2" />
<path stroke="#365c49" d="M42 38h1M42 39h1" />
<path stroke="#84826b" d="M43 38h1M43 39h1M50 42h1M17 44h1M19 46h1M27 49h1M49 49h1" />
<path stroke="#636452" d="M47 38h1M43 48h1" />
<path stroke="#aa9c86" d="M48 38h2M18 42h1M43 46h3M42 47h1" />
<path stroke="#ffc7de" d="M24 39h1" />
<path stroke="#5d5a47" d="M27 39h1M35 50h1" />
<path stroke="#f7c7e7" d="M38 39h1" />
<path stroke="#b19294" d="M39 39h1" />
<path stroke="#424241" d="M46 39h2M42 48h1M43 49h1" />
<path stroke="#868268" d="M48 39h1M42 46h1M44 47h1" />
<path stroke="#63694a" d="M49 39h1M43 47h1M45 47h1" />
<path stroke="#080c08" d="M18 40h1" />
<path stroke="#738265" d="M22 40h1" />
<path stroke="#395f47" d="M23 40h1M22 41h1" />
<path stroke="#aaabaa" d="M29 40h1M28 41h1M27 42h1" />
<path stroke="#fff7f7" d="M30 40h1M32 42h1" />
<path stroke="#180000" d="M31 40h1M33 42h1" />
<path stroke="#a5aa8c" d="M32 40h1" />
<path stroke="#525d46" d="M33 40h1M33 41h1" />
<path stroke="#aa9094" d="M36 40h1M36 41h1" />
<path stroke="#ffd3de" d="M37 40h1" />
<path stroke="#aaa69f" d="M40 40h1" />
<path stroke="#7f817b" d="M43 40h1" />
<path stroke="#413f34" d="M18 41h1" />
<path stroke="#7b7260" d="M19 41h1" />
<path stroke="#ada684" d="M23 41h1" />
<path stroke="#655252" d="M30 41h2M32 43h2" />
<path stroke="#7b692d" d="M38 41h1" />
<path stroke="#f7cf52" d="M39 41h1" />
<path stroke="#fff7ef" d="M41 41h1" />
<path stroke="#ad9a84" d="M20 42h1" />
<path stroke="#425142" d="M21 42h1" />
<path stroke="#a0a2a0" d="M29 42h1" />
<path stroke="#ad4931" d="M30 42h2" />
<path stroke="#a59e84" d="M36 42h1" />
<path stroke="#ffcf4a" d="M38 42h1" />
<path stroke="#42414a" d="M39 42h1" />
<path stroke="#848370" d="M45 42h1" />
<path stroke="#897f6e" d="M46 42h1M22 44h1M41 49h1" />
<path stroke="#89816e" d="M20 43h1" />
<path stroke="#656958" d="M21 43h1" />
<path stroke="#cea498" d="M30 43h1" />
<path stroke="#efffff" d="M31 43h1" />
<path stroke="#373a31" d="M36 43h1" />
<path stroke="#6e6c5a" d="M37 43h1" />
<path stroke="#c09f4a" d="M38 43h2" />
<path stroke="#6b654a" d="M40 43h1M43 43h1M37 44h1" />
<path stroke="#42433c" d="M44 43h2" />
<path stroke="#ad9e84" d="M47 43h1M23 45h1M40 47h1M38 48h1M40 48h1" />
<path stroke="#705a4a" d="M16 44h1M16 45h2M18 46h1M18 47h2M26 48h2M48 48h2M26 49h1M48 49h1" />
<path stroke="#6bbeff" d="M18 44h1" />
<path stroke="#8b8a86" d="M19 44h1M19 45h1" />
<path stroke="#735d47" d="M20 44h2" />
<path stroke="#473326" d="M26 44h1" />
<path stroke="#86624c" d="M27 44h1" />
<path stroke="#7b4539" d="M29 44h1M28 45h1M31 46h1M34 46h1M30 47h1M35 47h1" />
<path stroke="#a0a2a4" d="M31 44h1" />
<path stroke="#b54929" d="M32 44h2" />
<path stroke="#adaead" d="M34 44h1" />
<path stroke="#ad9c88" d="M36 44h1M36 45h2" />
<path stroke="#66674a" d="M38 44h1M38 45h2" />
<path stroke="#bda252" d="M39 44h1" />
<path stroke="#c0a24c" d="M40 44h2M40 45h1" />
<path stroke="#67674a" d="M46 44h1M47 45h1M46 46h2M46 47h1" />
<path stroke="#84866b" d="M48 44h1" />
<path stroke="#364739" d="M50 44h1" />
<path stroke="#9c714a" d="M18 45h1" />
<path stroke="#ad9e86" d="M20 45h2" />
<path stroke="#c69273" d="M26 45h1" />
<path stroke="#42454a" d="M30 45h1" />
<path stroke="#aaafad" d="M32 45h2" />
<path stroke="#393c39" d="M34 45h1" />
<path stroke="#585a4f" d="M49 45h1" />
<path stroke="#526952" d="M50 45h2" />
<path stroke="#a79d86" d="M26 46h2M39 50h1M39 51h1" />
<path stroke="#4c3a36" d="M28 46h1M29 47h1" />
<path stroke="#896454" d="M29 46h1" />
<path stroke="#6b5d4a" d="M26 47h1M36 49h2M38 50h1" />
<path stroke="#897d68" d="M27 47h1M38 51h1" />
<path stroke="#c68e73" d="M28 47h1" />
<path stroke="#656258" d="M41 47h1M39 48h1" />
<path stroke="#736558" d="M20 48h1" />
<path stroke="#ad9684" d="M21 48h1" />
<path stroke="#ada284" d="M24 48h1" />
<path stroke="#736e58" d="M25 48h1M25 49h1" />
<path stroke="#4a4142" d="M30 48h2" />
<path stroke="#6b4539" d="M33 48h1M32 49h2" />
<path stroke="#b54d31" d="M34 48h2" />
<path stroke="#473f34" d="M37 48h1" />
<path stroke="#524d42" d="M44 48h2M44 49h1" />
<path stroke="#63554a" d="M46 48h2M47 49h1" />
<path stroke="#addb8c" d="M30 49h1" />
<path stroke="#8ca773" d="M31 49h1" />
<path stroke="#5a2e20" d="M34 49h1" />
<path stroke="#001010" d="M35 49h1" />
<path stroke="#ac9c86" d="M40 50h1M40 51h2" />
<path stroke="#838268" d="M41 50h1" />
</svg>