<svg xmlns="http://www.w3.org/2000/svg" viewBox="0 -0.5 68 56" shape-rendering="crispEdges">
<metadata>Made with Pixels to Svg https://codepen.io/shshaw/pen/XbxvNj</metadata>
<path stroke="#000000" d="M25 20h7M24 21h1M32 21h3M36 21h2M23 22h1M35 22h1M38 22h1M22 23h1M39 23h2M22 24h1M41 24h1M23 25h1M41 25h1M23 27h1M42 27h2M23 28h1M44 28h1M22 29h1M45 29h1M21 30h1M45 30h1M20 31h1M45 31h1M44 32h1M42 33h2M21 34h1M39 34h3M38 35h1M23 36h1M39 36h1M41 36h1M21 37h2M40 37h1M42 37h1M45 37h1M20 38h1M25 38h2M44 38h1M46 38h1M19 39h1M24 39h1M27 39h1M46 39h1M19 40h1M22 40h2M28 40h2M39 40h1M41 40h1M46 40h1M18 41h1M30 41h2M38 41h1M46 41h1M18 42h1M20 42h1M28 42h2M36 42h1M38 42h1M42 42h1M46 42h1M19 43h1M26 43h2M37 43h1M39 43h1M41 43h1M46 43h1M25 44h1M39 44h1M41 44h1M45 44h1M24 45h1M39 45h1M45 45h1M24 46h2M31 46h1M40 46h1M42 46h1M44 46h1M32 47h2M40 47h1M43 47h1M27 48h1M30 48h1M34 48h2M39 48h1M26 49h1M30 49h1M39 49h1M25 50h1M28 50h3M36 50h1M40 50h1M26 51h2M36 51h1M40 51h1M36 52h2M41 52h1M38 53h3" />
<path stroke="#d5b6d5" d="M25 21h5M24 22h1M26 22h2M30 22h1M23 23h1M27 23h1M30 23h1M19 41h1M19 42h1M35 44h1M44 44h1M34 45h1M44 45h1M43 46h1M38 52h2" />
<path stroke="#6d508e" d="M30 21h1M31 40h1M33 46h1" />
<path stroke="#a479d5" d="M31 21h1M30 40h1M32 46h1" />
<path stroke="#414041" d="M25 22h1M24 23h3M36 23h3M24 25h5M30 26h2M39 26h1M34 27h2M24 28h2M27 28h1M36 28h2M23 29h1M26 29h1M37 29h3M24 30h1M40 30h1M22 31h1M40 31h1M33 32h1M32 33h1M36 34h1M37 35h1M24 36h1M30 36h1M24 37h2M31 37h3M27 38h1M33 38h1M33 39h1M32 41h2M31 42h1M30 43h1M36 44h1M36 45h1M37 47h2M27 49h1" />
<path stroke="#d5b4d5" d="M28 22h2M28 23h2" />
<path stroke="#623c94" d="M31 22h1M31 23h1M33 28h1M32 29h1M42 32h2M38 34h1M23 37h1M24 38h1M38 40h1M34 42h1M32 44h1M32 45h1M38 48h1M38 49h1" />
<path stroke="#ac84cd" d="M32 22h2M32 23h2M28 28h2M28 29h2M32 30h6M32 31h6M26 32h2M25 33h3M34 39h2M44 40h2M44 41h1" />
<path stroke="#ac85cd" d="M34 22h1M34 23h2M34 26h2M36 27h2M38 28h2M36 29h1M40 29h1M28 30h1M41 30h1M29 31h1M41 31h1M28 32h2M28 33h1M45 38h1M44 39h2M32 40h2M43 42h1M42 43h2M37 44h1M37 45h1M36 46h2M36 47h1" />
<path stroke="#7e797b" d="M36 22h2" />
<path stroke="#9c7d9c" d="M23 24h9M29 25h3M26 50h2M40 52h1" />
<path stroke="#5e3c94" d="M32 24h1M32 25h2M38 26h1M38 27h2M42 30h1M42 31h2M26 34h2M23 38h1M22 39h2M32 42h2M32 43h1M26 45h2M29 48h1M28 49h2" />
<path stroke="#8b61bd" d="M33 24h1M30 27h2M24 29h2M44 29h1M22 30h2M25 30h1M43 30h1M23 31h3M37 34h1M26 35h2M36 35h1M41 37h1M21 38h2M20 39h2M30 42h1M28 43h2M31 43h1M33 43h1M36 43h1M38 43h1M26 44h2M38 44h1M25 45h1M38 45h1M38 46h2M39 47h1M28 48h1M37 50h1M37 51h1" />
<path stroke="#8b5dc5" d="M34 24h1M26 26h1M29 27h1M23 32h1M35 36h1M29 39h1M38 50h1" />
<path stroke="#3f3c47" d="M35 24h1M35 25h1M29 26h1M26 27h3M22 32h1M23 33h1M34 37h2M28 38h2M38 51h2" />
<path stroke="#fef95a" d="M36 24h2M36 25h2" />
<path stroke="#bfbb20" d="M38 24h2M38 25h2" />
<path stroke="#bdba20" d="M40 24h1M40 25h1" />
<path stroke="#654c86" d="M34 25h1M27 26h2M22 33h1M34 36h1M28 39h1M39 50h1" />
<path stroke="#000008" d="M24 26h1" />
<path stroke="#8b61c5" d="M25 26h1M24 27h1M44 30h1" />
<path stroke="#41384a" d="M32 26h1M33 27h1M39 30h1M39 31h1M39 32h1M29 35h1M34 40h1M35 41h1" />
<path stroke="#ac7dd5" d="M33 26h1M38 30h1M31 39h1M35 40h1" />
<path stroke="#5f3c91" d="M36 26h2M40 28h2M41 29h1M29 30h1M28 31h1M29 33h1" />
<path stroke="#45345a" d="M40 26h1M43 39h1" />
<path stroke="#000400" d="M41 26h1M43 38h1M21 41h1M37 41h1M42 41h1M29 46h1M29 47h1" />
<path stroke="#5d4086" d="M25 27h1" />
<path stroke="#654f78" d="M32 27h1M38 31h1M34 41h1" />
<path stroke="#8b65b4" d="M40 27h2M42 38h1M42 39h1" />
<path stroke="#8969a9" d="M26 28h1M32 38h1" />
<path stroke="#ac81cd" d="M30 28h1M30 29h1M33 29h1" />
<path stroke="#9169ba" d="M31 28h1" />
<path stroke="#946aba" d="M32 28h1" />
<path stroke="#654e7e" d="M34 28h1M30 30h1M30 33h1M41 33h1" />
<path stroke="#413452" d="M35 28h1M26 30h1M31 31h1M40 32h1M31 33h1" />
<path stroke="#8b63bd" d="M42 28h2M42 29h2M28 37h2M35 42h1M34 43h2" />
<path stroke="#ac7dde" d="M27 29h1M27 30h1M32 39h1" />
<path stroke="#5a3894" d="M31 29h1M44 43h1" />
<path stroke="#ac81d5" d="M34 29h2M31 30h1M30 31h1M30 32h2M41 32h1M40 33h1" />
<path stroke="#d53031" d="M21 31h1M32 36h2" />
<path stroke="#8965af" d="M26 31h1" />
<path stroke="#654c80" d="M27 31h1" />
<path stroke="#5d4083" d="M44 31h1" />
<path stroke="#100000" d="M20 32h1M20 33h1" />
<path stroke="#fff2f6" d="M21 32h1" />
<path stroke="#8b62bd" d="M24 32h2M24 33h1M34 38h2M45 41h1" />
<path stroke="#d5819c" d="M32 32h1M33 33h1" />
<path stroke="#414441" d="M34 32h2" />
<path stroke="#654789" d="M36 32h2" />
<path stroke="#895ec2" d="M38 32h1M38 33h1M29 34h1M28 35h1" />
<path stroke="#5f5052" d="M21 33h1" />
<path stroke="#bf6d62" d="M34 33h1" />
<path stroke="#ff8173" d="M35 33h1" />
<path stroke="#3f354c" d="M36 33h1" />
<path stroke="#8b59c5" d="M37 33h1" />
<path stroke="#654b86" d="M39 33h1M28 34h1" />
<path stroke="#bdb6bd" d="M22 34h1M23 35h1" />
<path stroke="#5e5b66" d="M23 34h1" />
<path stroke="#623c9c" d="M24 34h2" />
<path stroke="#732c20" d="M30 34h1" />
<path stroke="#ffeade" d="M31 34h1" />
<path stroke="#bd6f68" d="M32 34h1" />
<path stroke="#ff7d62" d="M33 34h1M35 34h1M33 35h2" />
<path stroke="#ac5f77" d="M34 34h1" />
<path stroke="#000010" d="M22 35h1M42 45h1" />
<path stroke="#bdbabd" d="M24 35h1" />
<path stroke="#8066a7" d="M25 35h1" />
<path stroke="#b98b7f" d="M30 35h2" />
<path stroke="#9c696a" d="M32 35h1" />
<path stroke="#5a408b" d="M35 35h1" />
<path stroke="#ffffff" d="M25 36h1" />
<path stroke="#c2b8c8" d="M26 36h1" />
<path stroke="#fffaff" d="M27 36h1" />
<path stroke="#bdbeb4" d="M28 36h2" />
<path stroke="#af4b78" d="M31 36h1M30 37h1" />
<path stroke="#392452" d="M36 36h1" />
<path stroke="#6a4f80" d="M37 36h1M36 37h1" />
<path stroke="#997c99" d="M38 36h1M38 37h1" />
<path stroke="#4a345a" d="M26 37h1" />
<path stroke="#867691" d="M27 37h1" />
<path stroke="#cda5de" d="M37 37h1" />
<path stroke="#4c3e4c" d="M39 37h1" />
<path stroke="#41305a" d="M30 38h1" />
<path stroke="#654a83" d="M31 38h1M30 39h1" />
<path stroke="#623c8b" d="M36 38h1M36 39h1" />
<path stroke="#d5b6cd" d="M37 38h1" />
<path stroke="#413c41" d="M38 38h1M39 39h1" />
<path stroke="#9f80a9" d="M39 38h1" />
<path stroke="#342941" d="M40 38h1M36 48h1" />
<path stroke="#8b65c5" d="M41 38h1M37 49h1" />
<path stroke="#9c79ac" d="M37 39h1" />
<path stroke="#cda1de" d="M38 39h1" />
<path stroke="#080c00" d="M40 39h1M30 45h1M36 49h1" />
<path stroke="#5f4783" d="M41 39h1M37 48h1" />
<path stroke="#4a3b54" d="M20 40h1" />
<path stroke="#9472a9" d="M21 40h1M20 41h1" />
<path stroke="#a479cd" d="M36 40h1M43 41h1" />
<path stroke="#6d5289" d="M37 40h1M42 40h1" />
<path stroke="#362b44" d="M43 40h1M36 41h1" />
<path stroke="#a47dcd" d="M44 42h1" />
<path stroke="#8b66ba" d="M45 42h1M45 43h1" />
<path stroke="#5f3e94" d="M28 44h2M28 45h2" />
<path stroke="#392f41" d="M30 44h1" />
<path stroke="#9c75c5" d="M31 44h1M31 45h1" />
<path stroke="#8965ac" d="M33 44h1" />
<path stroke="#9471ac" d="M34 44h1M35 45h1" />
<path stroke="#c599d5" d="M42 44h1M43 45h1" />
<path stroke="#624c73" d="M43 44h1" />
<path stroke="#d5b6de" d="M33 45h1" />
<path stroke="#392f47" d="M26 46h2" />
<path stroke="#413157" d="M28 46h1" />
<path stroke="#cdaade" d="M34 46h1" />
<path stroke="#39344a" d="M35 46h1M35 47h1" />
<path stroke="#081000" d="M26 47h1" />
<path stroke="#6a4e8e" d="M27 47h1" />
<path stroke="#624883" d="M28 47h1" />
<path stroke="#6a5b7b" d="M34 47h1" />
</svg>