<svg xmlns="http://www.w3.org/2000/svg" viewBox="0 -0.5 68 56" shape-rendering="crispEdges">
<metadata>Made with Pixels to Svg https://codepen.io/shshaw/pen/XbxvNj</metadata>
<path stroke="#000000" d="M27 16h1M36 16h2M25 17h2M28 17h1M35 17h1M38 17h1M24 18h1M29 18h1M34 18h1M39 18h1M23 19h1M29 19h1M34 19h1M40 19h1M22 20h1M30 20h1M33 20h1M41 20h1M22 21h1M31 21h2M41 21h1M21 22h1M42 22h2M21 23h1M44 23h1M21 24h1M45 24h1M21 25h1M46 25h1M21 26h1M47 26h1M22 27h1M47 27h1M22 28h1M47 28h1M22 29h1M48 29h1M21 30h1M48 30h1M21 31h1M48 31h1M22 32h1M49 32h1M20 33h2M49 33h1M19 34h1M48 34h1M18 35h1M48 35h1M19 36h1M48 36h1M20 37h1M48 37h1M21 38h1M49 38h1M19 39h2M22 39h1M50 39h1M19 40h1M21 40h1M51 40h1M19 41h1M29 41h1M51 41h1M20 42h1M47 42h2M52 42h1M21 43h1M47 43h1M49 43h3M21 44h1M46 44h1M22 45h1M47 45h1M21 46h1M38 46h1M47 46h1M21 47h1M37 47h1M39 47h1M47 47h1M22 48h2M32 48h1M36 48h1M40 48h1M46 48h1M24 49h1M27 49h1M31 49h1M33 49h2M36 49h1M40 49h1M46 49h1M25 50h2M28 50h1M30 50h1M35 50h1M40 50h1M47 50h1M29 51h1M40 51h1M42 51h1M47 51h1M41 52h1M43 52h1M46 52h1M44 53h2" />
<path stroke="#627383" d="M27 17h1M36 17h2M25 18h1M35 18h4M24 19h1M35 19h5M23 20h1M34 20h7M34 21h7M35 22h7M30 23h2M37 23h4M29 24h3M38 24h3M28 25h4M39 25h1M29 26h2" />
<path stroke="#395273" d="M26 18h1M28 18h1M27 19h1M24 20h1M28 20h1M23 21h1M25 21h1M27 21h1M29 21h1M33 21h1M22 22h1M24 22h1M28 22h1M33 22h2M22 23h1M25 23h1M33 23h4M41 23h1M22 24h2M26 24h1M33 24h5M42 24h1M22 25h2M25 25h1M33 25h6M41 25h1M22 26h3M26 26h1M28 26h1M31 26h2M34 26h5M40 26h1M42 26h1M23 27h2M27 27h6M34 27h6M41 27h1M43 27h1M24 28h2M27 28h6M34 28h6M42 28h1M25 29h2M28 29h4M35 29h6M35 30h6M36 31h3M25 33h1M24 34h3M33 34h1M24 35h2M32 35h2M24 36h1M31 36h4M23 37h2M30 37h3M23 38h1M29 38h2M23 39h1M29 39h1M20 40h1M23 40h1M28 40h2M20 41h2M28 41h1M35 41h1M21 42h2M34 42h1M22 43h1M31 43h3M22 44h1M28 44h5M23 45h1M27 45h3M25 46h4M34 46h2M33 47h4M31 48h1M33 48h3M28 49h3M35 49h1M29 50h1" />
<path stroke="#414141" d="M27 18h1M28 19h1M27 20h1M29 20h1M24 21h1M26 21h1M28 21h1M30 21h1M23 22h1M25 22h1M29 22h4M23 23h2M28 23h2M32 23h1M42 23h1M24 24h2M27 24h2M32 24h1M41 24h1M43 24h1M24 25h1M26 25h2M32 25h1M40 25h1M42 25h2M25 26h1M27 26h1M33 26h1M39 26h1M41 26h1M43 26h1M25 27h2M33 27h1M40 27h1M42 27h1M44 27h2M23 28h1M26 28h1M33 28h1M40 28h2M43 28h1M46 28h1M24 29h1M27 29h1M32 29h3M41 29h2M24 30h3M28 30h4M34 30h1M41 30h2M23 31h1M25 31h1M35 31h1M39 31h3M25 32h1M35 32h4M42 32h1M24 33h1M26 33h1M33 33h1M35 33h1M44 33h2M23 34h1M27 34h3M32 34h1M34 34h1M46 34h1M23 35h1M26 35h1M30 35h2M34 35h1M47 35h1M22 36h2M25 36h1M30 36h1M35 36h1M22 37h1M25 37h1M29 37h1M33 37h2M46 37h2M22 38h1M24 38h1M28 38h1M31 38h2M35 38h1M45 38h1M24 39h1M28 39h1M30 39h1M35 39h1M45 39h1M22 40h1M24 40h1M27 40h1M35 40h2M44 40h1M22 41h2M27 41h1M34 41h1M36 41h1M41 41h4M23 42h1M28 42h1M31 42h3M35 42h1M37 42h4M44 42h1M23 43h1M28 43h3M34 43h1M36 43h1M42 43h2M45 43h1M23 44h1M27 44h1M33 44h1M35 44h1M41 44h1M24 45h1M26 45h1M30 45h3M34 45h2M40 45h1M22 46h3M29 46h1M33 46h1M36 46h2M39 46h1M22 47h7M31 47h2M24 48h7M25 49h2" />
<path stroke="#ffbd4a" d="M25 19h1M26 20h1M26 22h1M27 23h1" />
<path stroke="#b49c5a" d="M26 19h1M25 20h1M27 22h1M26 23h1" />
<path stroke="#b4ac94" d="M43 23h1M44 24h1M45 25h1M46 29h1M27 30h1M45 30h1M47 30h1M26 31h7M46 31h1M26 32h7M47 32h1M22 33h2M27 33h5M42 33h1M46 33h1M48 33h1M22 34h1M30 34h2M40 34h6M47 34h1M22 35h1M38 35h9M38 36h10M37 37h9M37 38h8M38 39h2M41 39h1M43 39h2M38 40h1M40 40h1M42 40h1M39 41h1" />
<path stroke="#83735a" d="M44 25h1M44 26h3M46 27h1M44 28h2M23 29h1M43 29h2M22 30h2M33 30h1M43 30h1M22 31h1M24 31h1M34 31h1M42 31h2M24 32h1M34 32h1M39 32h3M43 32h2M34 33h1M36 33h4M35 34h3M35 35h2M36 36h1M35 37h1M36 39h1M37 41h1M41 42h3M38 43h3M37 44h1M36 45h1" />
<path stroke="#525a6a" d="M45 29h1M47 29h1M32 30h1M44 30h1M33 31h1M44 31h1M23 32h1M33 32h1M45 32h1M32 33h1M40 33h2M43 33h1M38 34h2M37 35h1M37 36h1M36 37h1M36 38h1M37 39h1M37 40h1M38 41h1" />
<path stroke="#9c9462" d="M46 30h1M45 31h1M47 31h1M46 32h1M48 32h1M47 33h1M40 39h1M42 39h1M39 40h1M41 40h1M43 40h1M40 41h1" />
<path stroke="#d5d5d5" d="M20 34h1M19 35h2M21 39h1" />
<path stroke="#8b5a5a" d="M21 34h1M21 35h1M20 36h1M32 39h1M32 40h1M24 44h1M26 44h1M41 47h1M45 47h1M42 48h1M44 48h1M41 50h1M43 50h3M46 51h1" />
<path stroke="#cdac9c" d="M27 35h3M26 36h4M26 37h3M25 38h3M46 38h3M25 39h3M46 39h3M25 40h2M45 40h3M24 41h3M24 42h3M24 43h3M44 43h1M42 44h4M25 45h1M41 45h5M41 46h5M42 47h3" />
<path stroke="#a4836a" d="M21 36h1M21 37h1M33 38h2M33 39h2M49 39h1M33 40h2M48 40h1M32 41h2M45 41h3M27 42h1M35 43h1M25 44h1M34 44h1M33 45h1M46 45h1M30 46h3M40 46h1M46 46h1M29 47h2M40 47h1M46 47h1M41 48h1M43 48h1M45 48h1M41 49h5M42 50h1M46 50h1" />
<path stroke="#ffffff" d="M31 39h1M31 40h1M49 40h2M31 41h1M48 41h3M30 42h1M45 42h2M49 42h3M46 43h1M41 51h1M43 51h3M44 52h2" />
<path stroke="#ff6241" d="M30 40h1M30 41h1M29 42h1" />
<path stroke="#625231" d="M36 42h1M27 43h1M37 43h1M41 43h1M36 44h1M38 44h3M37 45h3" />
</svg>