<svg xmlns="http://www.w3.org/2000/svg" viewBox="0 -0.5 68 56" shape-rendering="crispEdges">
<metadata>Made with Pixels to Svg https://codepen.io/shshaw/pen/XbxvNj</metadata>
<path stroke="#000000" d="M33 24h3M32 25h1M36 25h2M33 26h1M38 26h1M37 27h1M24 28h3M38 28h1M23 29h1M27 29h1M31 29h1M39 29h1M24 30h1M28 30h1M40 30h1M47 30h2M23 31h1M29 31h1M41 31h1M45 31h2M49 31h1M22 32h1M42 32h2M49 32h1M22 33h1M48 33h1M22 34h1M47 34h1M22 35h1M48 35h1M23 36h1M48 36h1M48 37h1M24 38h1M47 38h1M23 39h1M46 39h1M22 40h1M40 40h1M42 40h1M45 40h1M22 41h1M42 41h1M45 41h1M22 42h1M39 42h1M41 42h1M46 42h1M23 43h1M40 43h1M47 43h1M22 44h1M47 44h1M22 45h1M47 45h1M23 46h1M34 46h3M24 47h2M37 47h1M27 48h1M34 48h1M36 48h1M47 48h1M27 49h1M34 49h1M36 49h1M46 49h1M34 50h1M44 50h1M27 52h6M36 52h1M43 52h1M37 53h6" />
<path stroke="#639ea5" d="M33 25h1M46 38h1M42 42h4M37 46h1M38 48h2M46 48h1" />
<path stroke="#5d9ca4" d="M34 25h2M46 34h1M46 35h2M25 38h1M24 39h2M38 42h1M38 43h2M23 44h1M23 45h1" />
<path stroke="#589296" d="M34 26h2" />
<path stroke="#8cdfc6" d="M36 26h2M36 27h1M38 29h1M38 30h1M47 31h2M30 32h1M40 32h2M46 32h2M30 33h2M40 33h1M46 33h1M26 34h1M28 34h2M32 34h6M42 34h2M27 35h2M40 36h1M42 36h1M44 36h1M40 37h1M44 37h1M42 38h2M38 39h2M42 39h1M37 40h3M35 41h3M30 44h2M33 44h3M33 45h2M40 46h1M40 47h1M43 47h1" />
<path stroke="#000008" d="M34 27h1" />
<path stroke="#84dbde" d="M35 27h1" />
<path stroke="#000010" d="M32 28h2" />
<path stroke="#7bd3d6" d="M34 28h1M31 35h1" />
<path stroke="#424152" d="M35 28h1M30 35h1" />
<path stroke="#424552" d="M36 28h1" />
<path stroke="#84dbce" d="M37 28h1M37 29h1M29 32h1M28 33h1M39 33h1M36 43h1" />
<path stroke="#4a79a5" d="M24 29h2M25 30h2M37 30h1M24 31h5M37 31h1M23 32h1M23 33h1M23 34h1M23 35h1M32 36h1M37 39h1M35 40h1M34 41h1" />
<path stroke="#424142" d="M26 29h1M27 30h1M31 32h1M39 32h1M48 32h1M32 33h7M41 33h1M27 34h1M40 34h1M26 35h1M26 36h1M39 36h1M26 37h1M39 37h1M26 38h1M27 39h1M28 40h1M28 41h2M36 42h2M39 44h2M30 45h2M36 45h3M40 45h1M39 46h1M39 47h1" />
<path stroke="#deef73" d="M32 29h1" />
<path stroke="#949f52" d="M33 29h1" />
<path stroke="#5e8a94" d="M34 29h2M30 34h2" />
<path stroke="#639090" d="M36 29h1" />
<path stroke="#080000" d="M30 30h1M24 37h1M41 39h1M39 41h1M47 46h1M33 47h1M47 47h1M36 50h1M36 51h1" />
<path stroke="#4f7ca4" d="M31 30h1M31 31h1" />
<path stroke="#ffef42" d="M32 30h1M34 30h1M32 31h1M34 31h1M34 32h2M24 33h2M42 35h2M36 36h1M41 36h1M43 36h1M34 37h2M41 37h3M34 38h1" />
<path stroke="#5f9daa" d="M33 30h1M35 30h1M33 31h1M35 31h1M34 36h2M37 36h1M36 37h2M35 38h1M34 39h2" />
<path stroke="#609ca5" d="M36 30h1M36 31h1M33 36h1M32 37h2M36 38h2M36 39h1" />
<path stroke="#4a79a9" d="M39 30h1M38 31h2M32 35h6M38 38h2M36 40h1M32 44h1M32 45h1" />
<path stroke="#2b3e52" d="M30 31h1" />
<path stroke="#524f46" d="M40 31h1M37 52h1M42 52h1" />
<path stroke="#75beb5" d="M24 32h2" />
<path stroke="#5e9094" d="M26 32h2M30 42h1M30 43h1" />
<path stroke="#393852" d="M28 32h1" />
<path stroke="#5d9da4" d="M32 32h2M36 32h2M38 36h1M38 37h1M29 40h1M38 44h1M39 45h1M38 46h1M38 47h1" />
<path stroke="#6ea79f" d="M38 32h1M37 43h1" />
<path stroke="#000408" d="M44 32h1" />
<path stroke="#8ce7de" d="M45 32h1" />
<path stroke="#84dfd6" d="M26 33h1M31 43h1" />
<path stroke="#394152" d="M27 33h1M31 42h1" />
<path stroke="#5e8990" d="M29 33h1M32 43h1M35 43h1" />
<path stroke="#8ce3d6" d="M42 33h1" />
<path stroke="#5d978e" d="M43 33h1" />
<path stroke="#5d9b96" d="M44 33h2" />
<path stroke="#5d9ca7" d="M47 33h1M43 39h1M35 45h1" />
<path stroke="#ffef3f" d="M24 34h2M24 35h2" />
<path stroke="#7bd7d6" d="M38 34h1M27 50h1" />
<path stroke="#568594" d="M39 34h1M38 35h1" />
<path stroke="#b5e79c" d="M41 34h1M40 35h2" />
<path stroke="#5a6163" d="M44 34h1M45 35h1M43 48h1M43 49h1" />
<path stroke="#6fa098" d="M45 34h1M42 49h1" />
<path stroke="#4f4f47" d="M29 35h1" />
<path stroke="#313452" d="M39 35h1" />
<path stroke="#84dfce" d="M44 35h1M42 48h1" />
<path stroke="#5a8ea5" d="M24 36h2" />
<path stroke="#528ca4" d="M27 36h1M27 37h1M27 38h1M26 39h1M36 44h2" />
<path stroke="#524d42" d="M28 36h1M28 37h1" />
<path stroke="#9f7842" d="M29 36h1" />
<path stroke="#c0913c" d="M30 36h1M30 37h1" />
<path stroke="#525142" d="M31 36h1M31 37h1" />
<path stroke="#605f5d" d="M45 36h1M45 37h1M41 46h1M41 47h1" />
<path stroke="#5f9da7" d="M46 36h2M46 37h2M30 46h2M30 47h2" />
<path stroke="#3e5e6e" d="M25 37h1" />
<path stroke="#c68e42" d="M29 37h1M26 43h1M41 45h1" />
<path stroke="#5a4d42" d="M28 38h1M32 38h1M29 39h1M33 39h1" />
<path stroke="#ac9c42" d="M29 38h1M32 39h1" />
<path stroke="#c0923f" d="M30 38h2M30 39h2" />
<path stroke="#ffeb42" d="M33 38h1M28 39h1" />
<path stroke="#364a42" d="M40 38h1M40 39h1" />
<path stroke="#94dfc6" d="M41 38h1" />
<path stroke="#63615f" d="M44 38h1M45 39h1M24 44h4M24 45h1M26 45h1" />
<path stroke="#639ea7" d="M45 38h1M44 39h1M25 45h1M27 45h1" />
<path stroke="#ce9a4a" d="M23 40h1M46 45h1M37 49h1" />
<path stroke="#9f7042" d="M24 40h4M24 42h2M42 45h4M30 48h3M33 49h1M38 51h4" />
<path stroke="#4a4942" d="M30 40h1M30 41h2" />
<path stroke="#c29142" d="M31 40h1" />
<path stroke="#6b5942" d="M32 40h2M32 41h1" />
<path stroke="#609bb0" d="M34 40h1" />
<path stroke="#476668" d="M43 40h2M24 46h1" />
<path stroke="#896631" d="M23 41h1M46 44h1M37 48h1" />
<path stroke="#c39342" d="M24 41h4M24 43h2M42 44h4M33 48h1M30 49h3M38 50h4" />
<path stroke="#5f9ca4" d="M33 41h1" />
<path stroke="#344a42" d="M38 41h1" />
<path stroke="#6b9a9c" d="M43 41h2M25 46h1" />
<path stroke="#bd9242" d="M23 42h1M41 43h1M46 43h1M44 46h2" />
<path stroke="#9a7242" d="M26 42h2" />
<path stroke="#393c42" d="M28 42h1" />
<path stroke="#8cdbc6" d="M29 42h1M28 43h1" />
<path stroke="#393c4a" d="M32 42h4" />
<path stroke="#423c42" d="M27 43h1" />
<path stroke="#70a69a" d="M29 43h1" />
<path stroke="#84d7d6" d="M33 43h2" />
<path stroke="#9f703c" d="M42 43h4M38 49h2" />
<path stroke="#4a4542" d="M28 44h1M29 45h1" />
<path stroke="#527da5" d="M29 44h1" />
<path stroke="#9a7442" d="M41 44h1" />
<path stroke="#4c5763" d="M28 45h1" />
<path stroke="#52686e" d="M26 46h1" />
<path stroke="#739aa5" d="M27 46h1" />
<path stroke="#60534a" d="M28 46h1M41 48h1" />
<path stroke="#42454a" d="M29 46h1M28 47h1M40 48h1M41 49h1" />
<path stroke="#394b4e" d="M32 46h2" />
<path stroke="#a2804c" d="M42 46h2M42 47h1" />
<path stroke="#4e6d63" d="M46 46h1" />
<path stroke="#100400" d="M26 47h1" />
<path stroke="#313637" d="M27 47h1" />
<path stroke="#9c714a" d="M29 47h1M40 49h1" />
<path stroke="#6b969c" d="M32 47h1" />
<path stroke="#5e615e" d="M44 47h2" />
<path stroke="#94dbc6" d="M46 47h1" />
<path stroke="#c19142" d="M28 48h2M29 49h1" />
<path stroke="#94e7d6" d="M44 48h1" />
<path stroke="#3c5252" d="M45 48h1" />
<path stroke="#9c6d42" d="M28 49h1M29 50h3" />
<path stroke="#689c94" d="M44 49h1" />
<path stroke="#100810" d="M45 49h1" />
<path stroke="#080400" d="M26 50h1M26 51h1" />
<path stroke="#73d3d6" d="M28 50h1M28 51h4M38 52h4" />
<path stroke="#546968" d="M32 50h1" />
<path stroke="#739e9c" d="M33 50h1M32 51h1" />
<path stroke="#606962" d="M37 50h1" />
<path stroke="#4d3b31" d="M42 50h2" />
<path stroke="#2e4a47" d="M27 51h1" />
<path stroke="#180000" d="M33 51h1" />
<path stroke="#8c9e94" d="M37 51h1" />
<path stroke="#9a7252" d="M42 51h1" />
<path stroke="#000410" d="M43 51h1" />
</svg>