<svg xmlns="http://www.w3.org/2000/svg" viewBox="0 -0.5 68 56" shape-rendering="crispEdges">
<metadata>Made with Pixels to Svg https://codepen.io/shshaw/pen/XbxvNj</metadata>
<path stroke="#000000" d="M32 27h5M29 28h3M37 28h2M27 29h2M39 29h2M26 30h1M41 30h1M25 31h1M41 31h1M42 32h1M23 33h1M42 33h1M23 34h1M42 34h1M22 35h1M42 35h1M22 36h1M42 36h1M22 37h1M41 37h1M23 38h1M23 39h1M42 39h1M20 40h2M23 40h1M42 40h1M19 41h1M22 41h1M43 41h1M18 42h1M23 42h1M44 42h1M18 43h1M44 43h1M19 44h1M44 44h1M19 45h1M44 45h1M19 46h1M43 46h1M20 47h2M42 47h1M23 48h2M28 48h2M40 48h2M25 49h3M42 49h2M29 50h1M44 50h1M28 51h1M45 51h1M29 52h4M36 52h1M42 52h2M45 52h1M33 53h1M37 53h1M41 53h1M44 53h1M38 54h3" />
<path stroke="#3770d1" d="M32 28h4M32 29h4M30 30h10M31 31h9M26 32h2M30 32h12M26 33h16M34 34h2M38 34h2M34 35h2M38 35h2M32 40h4M32 41h4" />
<path stroke="#3971ce" d="M36 28h1M29 29h3M36 29h3M40 30h1M40 31h1M30 34h4M40 34h1M33 35h1M34 36h2M34 37h1M26 40h1M26 41h2M30 41h2M24 42h2M28 42h1M30 42h2M36 42h1M28 43h3M37 43h1" />
<path stroke="#4275d6" d="M27 30h1M26 31h2" />
<path stroke="#4c82de" d="M28 30h2M28 31h2" />
<path stroke="#4d83dc" d="M30 31h1M28 32h2" />
<path stroke="#21498c" d="M24 32h2M25 33h1" />
<path stroke="#efeb18" d="M24 33h1M24 34h2M25 35h1M30 35h3M28 36h2M33 36h1M28 37h1M33 37h1M26 38h1M24 39h4M27 40h5M28 41h1M22 44h1M23 45h1M38 45h1M26 46h1M38 46h2M37 52h2M38 53h2" />
<path stroke="#316dc6" d="M26 34h2M29 34h1M29 35h1" />
<path stroke="#e7db00" d="M28 34h1M27 35h1" />
<path stroke="#3771d0" d="M36 34h2M37 35h1" />
<path stroke="#1d59b8" d="M41 34h1M40 35h2" />
<path stroke="#9c9e10" d="M23 35h1M35 37h1M37 38h1M36 39h1M29 42h1M25 45h1M25 48h1M34 49h2M33 52h1" />
<path stroke="#a0a010" d="M24 35h1M32 36h1M32 37h1M27 38h1M29 41h1" />
<path stroke="#aab642" d="M26 35h1M28 35h1" />
<path stroke="#2159b5" d="M36 35h1M40 36h2M40 37h1M39 50h1M44 51h1" />
<path stroke="#73c3d6" d="M23 36h1M23 37h1M24 38h2" />
<path stroke="#000010" d="M24 36h1M25 37h1" />
<path stroke="#f7ffff" d="M25 36h1" />
<path stroke="#ece91b" d="M26 36h2M26 37h2" />
<path stroke="#bddb6b" d="M30 36h1M31 37h1M28 38h1M29 39h1" />
<path stroke="#809347" d="M31 36h1M28 39h1" />
<path stroke="#2145a5" d="M36 36h1" />
<path stroke="#5d706e" d="M37 36h1" />
<path stroke="#1b59ba" d="M38 36h2M39 37h1M38 49h2" />
<path stroke="#52555f" d="M24 37h1" />
<path stroke="#ffffff" d="M29 37h1" />
<path stroke="#080400" d="M30 37h1M29 38h1M41 38h1" />
<path stroke="#d6c700" d="M36 37h1" />
<path stroke="#999b37" d="M37 37h1" />
<path stroke="#424142" d="M38 37h1M36 38h1M39 38h1M37 39h2M36 40h1M36 41h1M40 41h3M32 42h3M37 42h3M43 42h1M21 43h1M24 43h2M31 43h1M35 43h2M38 43h1M20 44h2M27 44h1M29 44h2M41 44h1M28 45h1M34 45h1M40 45h1M29 46h1M35 46h1M37 46h1M28 47h1M30 47h1M34 47h1M36 47h2M37 48h3M37 49h1M32 50h2M32 51h1" />
<path stroke="#709e94" d="M30 38h1" />
<path stroke="#63aad6" d="M31 38h1M30 39h1" />
<path stroke="#aab744" d="M32 38h1" />
<path stroke="#e7df08" d="M33 38h1M32 39h1" />
<path stroke="#3169c6" d="M34 38h1M34 39h1" />
<path stroke="#d6cb00" d="M35 38h1" />
<path stroke="#4a61b5" d="M38 38h1M39 39h1M40 40h2" />
<path stroke="#313a5e" d="M40 38h1" />
<path stroke="#8c8610" d="M31 39h1" />
<path stroke="#3169bd" d="M33 39h1" />
<path stroke="#9faa42" d="M35 39h1" />
<path stroke="#5a71bd" d="M40 39h2" />
<path stroke="#9aa33c" d="M24 40h1" />
<path stroke="#e7ef31" d="M25 40h1" />
<path stroke="#786cb0" d="M37 40h1M37 41h1M20 42h2M20 43h1M32 43h2M39 43h1M26 44h1M34 44h2M40 44h1M26 45h2M35 45h1M41 45h1" />
<path stroke="#786cb2" d="M38 40h2M38 41h2M40 42h2M40 43h2" />
<path stroke="#736db5" d="M20 41h2M19 42h1M19 43h1M31 44h1M30 45h1M40 52h2M40 53h1" />
<path stroke="#000c52" d="M24 41h1" />
<path stroke="#4d5747" d="M25 41h1" />
<path stroke="#7366aa" d="M22 42h1M22 43h2" />
<path stroke="#335ea7" d="M26 42h1" />
<path stroke="#316dd6" d="M27 42h1M27 43h1" />
<path stroke="#586fc0" d="M35 42h1M34 43h1M28 44h1M29 45h1" />
<path stroke="#636dbd" d="M42 42h1M42 43h2" />
<path stroke="#39414a" d="M26 43h1" />
<path stroke="#989828" d="M23 44h1" />
<path stroke="#7068aa" d="M24 44h2M24 45h1" />
<path stroke="#776db1" d="M32 44h1" />
<path stroke="#635d9c" d="M33 44h1M32 45h2M42 46h1M34 48h2M29 51h1M40 51h1M42 51h2M44 52h1" />
<path stroke="#6860ac" d="M36 44h1M36 45h1" />
<path stroke="#76735a" d="M37 44h1" />
<path stroke="#555165" d="M38 44h2M39 45h1" />
<path stroke="#6d65a7" d="M42 44h1M42 45h1" />
<path stroke="#2965c6" d="M43 44h1M43 45h1" />
<path stroke="#625b9a" d="M20 45h2M28 46h1M30 46h2M34 46h1M36 46h1M29 47h1M31 47h1M35 47h1M33 51h1" />
<path stroke="#424539" d="M22 45h1" />
<path stroke="#625e8e" d="M31 45h1" />
<path stroke="#848608" d="M37 45h1" />
<path stroke="#625c9a" d="M20 46h2" />
<path stroke="#3c3b26" d="M22 46h2" />
<path stroke="#424139" d="M24 46h1M25 47h1" />
<path stroke="#efeb10" d="M25 46h1" />
<path stroke="#4a4963" d="M27 46h1M26 47h2" />
<path stroke="#635c9c" d="M32 46h2M40 46h2M32 47h2M40 47h2" />
<path stroke="#080829" d="M22 47h1" />
<path stroke="#a5a221" d="M23 47h1" />
<path stroke="#7b792b" d="M24 47h1" />
<path stroke="#655b9c" d="M38 47h2" />
<path stroke="#847c58" d="M26 48h2" />
<path stroke="#767118" d="M30 48h1" />
<path stroke="#3f3c18" d="M31 48h1" />
<path stroke="#5a574a" d="M32 48h2M34 50h1M35 51h1" />
<path stroke="#7e7f1b" d="M36 48h1" />
<path stroke="#080818" d="M30 49h1" />
<path stroke="#ada618" d="M31 49h1" />
<path stroke="#6b6900" d="M32 49h1M35 50h1" />
<path stroke="#494594" d="M33 49h1M34 51h1" />
<path stroke="#9c9e08" d="M36 49h1" />
<path stroke="#9f9f10" d="M40 49h2" />
<path stroke="#4a458c" d="M30 50h1" />
<path stroke="#656160" d="M31 50h1" />
<path stroke="#42414a" d="M36 50h1" />
<path stroke="#625b96" d="M37 50h1M36 51h1" />
<path stroke="#6b61a0" d="M38 50h1M38 51h2" />
<path stroke="#2157b8" d="M40 50h4M41 51h1" />
<path stroke="#9c9a08" d="M30 51h2" />
<path stroke="#7369bd" d="M37 51h1" />
<path stroke="#e7df4a" d="M34 52h1" />
<path stroke="#736f31" d="M35 52h1" />
<path stroke="#756bb2" d="M39 52h1" />
<path stroke="#000018" d="M34 53h2" />
</svg>