<svg xmlns="http://www.w3.org/2000/svg" viewBox="0 -0.5 68 56" shape-rendering="crispEdges">
<metadata>Made with Pixels to Svg https://codepen.io/shshaw/pen/XbxvNj</metadata>
<path stroke="#000000" d="M21 16h2M20 17h1M23 17h1M21 18h1M24 18h1M26 18h1M19 19h2M25 19h1M27 19h1M18 20h1M27 20h1M19 21h1M27 21h1M45 21h3M55 21h3M20 22h1M26 22h1M31 22h2M48 22h1M53 22h1M58 22h2M21 23h1M30 23h1M33 23h1M41 23h1M48 23h1M53 23h1M59 23h1M11 24h4M22 24h1M24 24h1M29 24h1M32 24h1M34 24h3M38 24h1M42 24h2M52 24h1M60 24h1M9 25h2M15 25h2M22 25h1M25 25h1M28 25h1M33 25h1M37 25h1M39 25h1M44 25h1M50 25h1M52 25h1M60 25h1M8 26h1M17 26h1M22 26h1M28 26h1M39 26h1M45 26h1M50 26h1M52 26h1M60 26h1M7 27h1M18 27h1M22 27h1M26 27h1M28 27h1M40 27h3M45 27h1M49 27h1M53 27h1M7 28h1M19 28h1M23 28h1M43 28h1M46 28h1M49 28h1M53 28h2M58 28h2M6 29h1M19 29h1M44 29h2M48 29h1M55 29h1M6 30h1M9 30h1M19 30h1M54 30h1M57 30h1M6 31h1M8 31h1M10 31h1M20 31h1M48 31h1M53 31h1M57 31h1M7 32h1M9 32h1M11 32h1M20 32h1M23 32h1M49 32h1M51 32h1M57 32h1M8 33h1M10 33h1M20 33h1M22 33h1M50 33h1M57 33h1M8 34h1M17 34h1M56 34h1M9 35h1M16 35h1M56 35h1M10 36h1M14 36h2M18 36h1M56 36h1M11 37h3M19 37h1M55 37h1M19 38h1M55 38h1M54 39h1M54 40h1M19 41h1M53 41h1M53 42h1M52 43h1M17 44h1M52 44h1M17 45h1M51 45h1M17 46h1M50 46h1M16 47h1M49 47h1M17 48h2M25 48h3M49 48h1M19 49h6M28 49h5M38 49h2M49 49h1M33 50h5M41 50h1M48 50h1M40 51h1M49 51h1M41 52h3M46 52h3M44 53h2" />
<path stroke="#f6da6a" d="M21 17h1M26 19h1M19 20h1M32 23h1M32 25h1M38 25h1M26 30h1M26 31h1M29 31h3M38 31h2M28 32h2M24 34h1M32 34h1M24 35h2M46 35h1M24 36h1M26 36h2M35 36h1M47 36h1M26 37h1M28 37h8M48 37h1M28 38h1M31 38h1M33 38h1M35 38h1M35 39h1M24 42h1M35 42h1M24 43h1M26 43h1M28 43h1M35 43h1M26 44h4M32 44h1M35 44h1M28 45h10M33 46h3M44 46h1M46 46h1M44 47h3M44 48h1M47 48h1" />
<path stroke="#6a89a4" d="M22 17h1M11 25h1M49 25h1M39 35h1" />
<path stroke="#65717e" d="M22 18h1M22 19h2M46 22h1M46 23h2M15 26h1M10 27h1M14 27h2M43 36h1M38 37h1M42 37h2" />
<path stroke="#6889a1" d="M23 18h1M47 22h1M10 26h2M14 26h1M11 27h1M38 36h2M42 36h1M39 37h1" />
<path stroke="#414041" d="M21 19h1M24 19h1M21 20h2M24 20h1M22 21h1M24 21h1M57 22h1M56 23h2M48 24h2M58 24h2M31 25h1M36 25h1M58 25h1M31 26h1M33 26h1M47 26h1M53 26h1M30 27h1M55 28h1M10 29h1M13 29h1M10 30h2M16 30h1M32 30h2M38 30h3M11 31h1M16 31h1M41 31h1M38 32h3M46 32h1M54 32h1M9 33h1M12 33h1M17 33h1M36 33h2M44 33h2M10 34h2M14 34h1M39 34h4M45 34h1M49 34h3M53 34h1M38 35h1M43 35h1M45 35h1M50 35h1M21 36h2M44 36h1M51 36h1M22 37h2M45 37h1M51 37h1M24 38h1M36 38h1M45 38h1M47 38h1M49 38h1M52 38h1M25 39h1M36 39h1M38 39h1M41 39h1M46 39h1M48 39h2M52 39h1M22 40h1M26 40h1M35 40h2M38 40h1M41 40h1M46 40h1M22 41h1M24 41h1M26 41h1M28 41h1M35 41h1M37 41h2M40 41h1M46 41h1M21 42h1M23 42h1M25 42h1M28 42h2M34 42h1M36 42h1M38 42h2M42 42h2M45 42h1M21 43h1M25 43h1M29 43h1M31 43h1M34 43h1M36 43h1M39 43h1M43 43h1M45 43h2M22 44h2M34 44h1M37 44h1M44 44h1M47 44h1M22 45h1M38 45h2M43 45h1M48 45h1M18 46h1M22 46h1M25 46h2M40 46h2M18 47h2M23 47h1M26 47h1M36 47h2M41 47h1M24 48h1M34 48h2M37 49h1" />
<path stroke="#62737f" d="M20 20h1M23 20h1M25 20h2M20 21h2M23 21h1M25 21h2M21 22h1M56 22h1M58 23h1M23 24h1M44 24h2M14 25h1M23 25h2M45 25h1M59 25h1M9 26h1M16 26h1M23 26h1M32 26h1M38 26h1M46 26h1M48 26h2M8 27h2M16 27h2M23 27h1M32 27h2M38 27h2M46 27h3M10 28h4M18 28h1M47 28h2M7 29h1M11 29h2M18 29h1M46 29h2M7 30h2M18 30h1M56 30h1M7 31h1M18 31h2M32 31h2M56 31h1M36 32h2M41 32h1M44 32h2M55 32h1M38 33h4M51 33h1M54 33h2M9 34h1M43 34h2M52 34h1M42 35h1M44 35h1M51 35h3M19 36h2M20 37h2M37 38h5M37 39h1M39 39h2M39 40h1M39 41h1M46 42h2M52 42h1M42 43h1M47 43h1M45 44h2M23 45h1M44 45h4M24 46h1M27 46h1M24 47h2M27 47h1M28 48h2M32 48h2M48 48h1M33 49h1M48 49h1M41 51h1M48 51h1M44 52h2" />
<path stroke="#627480" d="M22 22h2M22 23h2M8 28h2M14 28h4M8 29h2M14 29h4M28 30h4M44 30h2M28 31h1M44 31h2M18 32h2M18 33h2M28 33h2M46 36h1M46 37h2M22 38h2M22 39h2M45 46h1M47 46h1M47 47h1M42 48h2M45 48h2M42 49h6" />
<path stroke="#65757e" d="M24 22h2M56 28h1M56 29h1M46 30h1M46 31h1M19 34h1M19 35h1M41 48h1M41 49h1" />
<path stroke="#000010" d="M42 22h3M25 26h1" />
<path stroke="#dece83" d="M45 22h1M25 27h1" />
<path stroke="#080400" d="M54 22h1M25 23h1M59 27h1M57 29h1M24 30h1M47 30h1M24 31h1M52 32h1M21 34h1M18 35h1M20 39h1M40 49h1" />
<path stroke="#393c41" d="M55 22h1M55 23h1M58 26h2M52 33h2M20 34h1M21 35h1M20 38h1M21 39h1" />
<path stroke="#363c3f" d="M24 23h1M57 28h1M47 31h1M18 34h1M40 48h1" />
<path stroke="#4e596a" d="M31 23h1M29 25h1M29 26h1M29 27h1M42 28h1M42 29h2M16 34h1M11 36h3M54 38h1M50 44h2M50 45h1M17 47h1M19 48h1M22 48h2M38 48h2" />
<path stroke="#eeda83" d="M42 23h1" />
<path stroke="#776d4a" d="M43 23h1" />
<path stroke="#94895d" d="M44 23h1M24 26h1" />
<path stroke="#4a4436" d="M45 23h1M24 27h1" />
<path stroke="#6a7583" d="M54 23h1M35 25h1M53 25h1M58 27h1M53 32h1M20 35h1M21 38h1" />
<path stroke="#4f5a68" d="M30 24h2M30 25h1M16 32h2M47 32h1M16 33h1M46 33h2M15 34h1M48 34h1M14 35h2M48 35h2M50 36h1M53 36h1M50 37h1M52 37h2M44 38h1M50 38h2M53 38h1M43 39h3M50 39h2M53 39h1M23 40h3M44 40h2M48 40h1M50 40h2M23 41h1M25 41h1M44 41h2M50 41h1M20 42h1M44 42h1M49 42h1M51 42h1M20 43h1M38 43h1M44 43h1M48 43h3M38 44h6M48 44h2M40 45h3M49 45h1M19 46h1M40 47h1M36 48h2M36 49h1M42 50h1M44 50h2M47 50h1M43 51h1M46 51h1" />
<path stroke="#75745a" d="M46 24h1M31 32h2M37 37h1" />
<path stroke="#39404a" d="M47 24h1M46 25h1M33 32h1M30 33h3M37 36h1M36 37h1" />
<path stroke="#353a41" d="M53 24h1M34 25h1" />
<path stroke="#414039" d="M54 24h1M54 25h1M54 26h1M55 27h1M30 28h1M31 29h1M13 30h1M12 31h1M15 32h1M14 33h1M43 40h1M42 41h1M40 42h1M41 43h1M24 45h1M30 46h1M30 47h1" />
<path stroke="#4c504f" d="M55 24h1M55 26h1M30 29h1M13 31h1M14 32h1M43 41h1M41 42h1M31 46h1" />
<path stroke="#627280" d="M56 24h1M56 25h2M33 28h4M38 28h2M28 29h1M32 29h2M35 29h1M37 29h2M15 30h1M15 31h1M43 32h1M42 33h1M26 34h3M36 34h2M28 35h2" />
<path stroke="#524f44" d="M57 24h1M28 28h2M37 28h1M29 29h1M36 29h1M39 29h1M29 34h1M26 35h2M36 35h2" />
<path stroke="#688ca4" d="M12 25h2" />
<path stroke="#eeda7b" d="M47 25h1M34 26h1M30 32h1M33 33h1M36 36h1" />
<path stroke="#5d7183" d="M48 25h1M38 34h1" />
<path stroke="#62717b" d="M55 25h1M54 27h1M31 28h1M12 30h1M15 33h1M42 40h1M40 43h1M31 47h1" />
<path stroke="#688aa1" d="M12 26h2M12 27h2M40 36h2M40 37h2" />
<path stroke="#525a62" d="M30 26h1M41 30h1M17 31h1M10 35h1M44 37h1M47 39h1M47 40h1M37 43h1M22 47h1M35 49h1" />
<path stroke="#414452" d="M35 26h1M35 27h1" />
<path stroke="#eed67b" d="M36 26h1" />
<path stroke="#4a4c52" d="M37 26h1M37 27h1" />
<path stroke="#627180" d="M56 26h1M34 31h1" />
<path stroke="#4a4844" d="M57 26h1M56 27h2M34 30h2M35 31h1" />
<path stroke="#627483" d="M31 27h1M17 30h1M40 31h1M11 35h1M45 36h1M46 38h1M47 41h1M37 42h1M23 46h1M34 49h1" />
<path stroke="#7b765f" d="M34 27h1" />
<path stroke="#807a5f" d="M36 27h1" />
<path stroke="#524b31" d="M24 28h1" />
<path stroke="#f6da73" d="M25 28h1M25 29h1M36 31h2M35 32h1M34 33h1M43 46h1M42 47h1" />
<path stroke="#4a4e4c" d="M26 28h1M26 29h1" />
<path stroke="#080000" d="M27 28h1" />
<path stroke="#73ceff" d="M32 28h1M34 29h1M33 34h2M32 35h2" />
<path stroke="#4f4f44" d="M40 28h1" />
<path stroke="#4c5a68" d="M41 28h1M40 29h2" />
<path stroke="#000410" d="M24 29h1M20 40h1" />
<path stroke="#6a7573" d="M27 29h1" />
<path stroke="#4a4744" d="M14 30h1M14 31h1M42 32h1M43 33h1" />
<path stroke="#314854" d="M25 30h1" />
<path stroke="#4a4841" d="M27 30h1M27 31h1M26 32h2M30 44h2M26 45h2" />
<path stroke="#787462" d="M36 30h1M35 33h1M43 47h1" />
<path stroke="#39405a" d="M37 30h1M34 32h1M42 46h1" />
<path stroke="#5a5f65" d="M42 30h1" />
<path stroke="#524e47" d="M43 30h1M42 31h1" />
<path stroke="#6a7173" d="M55 30h1" />
<path stroke="#83d2ff" d="M25 31h1" />
<path stroke="#627183" d="M43 31h1M12 34h1M55 34h1" />
<path stroke="#474b4c" d="M54 31h2" />
<path stroke="#524e44" d="M12 32h2M13 33h1M25 34h1M28 36h7M31 40h1M40 40h1M30 41h1M41 41h1" />
<path stroke="#5f7580" d="M24 32h1M25 33h1" />
<path stroke="#7bceff" d="M25 32h1M26 33h1" />
<path stroke="#525d6a" d="M48 32h1M49 33h1M55 36h1M54 37h1M53 40h1M52 41h1M21 48h1M30 48h1" />
<path stroke="#474e52" d="M56 32h1" />
<path stroke="#524e45" d="M11 33h1M32 40h1" />
<path stroke="#bda152" d="M23 33h1M22 34h2M21 40h1M21 41h1M21 46h1M38 46h1" />
<path stroke="#524841" d="M24 33h1" />
<path stroke="#5a7580" d="M27 33h1" />
<path stroke="#363e47" d="M48 33h1M54 36h1M52 40h1M20 48h1M31 48h1" />
<path stroke="#6a757b" d="M56 33h1" />
<path stroke="#414047" d="M13 34h1M54 35h1" />
<path stroke="#f6e27b" d="M30 34h2" />
<path stroke="#52555a" d="M35 34h1M34 35h2" />
<path stroke="#4a4852" d="M46 34h2M47 35h1M48 36h2M49 37h1" />
<path stroke="#525965" d="M54 34h1M12 35h2M55 35h1" />
<path stroke="#4a6362" d="M22 35h2" />
<path stroke="#4a7dac" d="M30 35h1" />
<path stroke="#839f9c" d="M31 35h1" />
<path stroke="#668ba0" d="M40 35h2" />
<path stroke="#47797b" d="M23 36h1M34 40h1M34 41h1" />
<path stroke="#4a797b" d="M25 36h1M24 37h2M27 37h1M26 38h2M32 38h1M32 39h2M33 40h1M32 41h2" />
<path stroke="#65747e" d="M52 36h1M42 38h2M42 39h1M49 40h1M48 41h2M51 41h1M48 42h1M50 42h1M51 43h1M43 50h1M46 50h1M42 51h1M44 51h2M47 51h1" />
<path stroke="#4aa1ac" d="M25 38h1" />
<path stroke="#4a858b" d="M29 38h2M28 39h4" />
<path stroke="#4a6562" d="M34 38h1M34 39h1" />
<path stroke="#bfa14c" d="M48 38h1M22 42h1M22 43h2" />
<path stroke="#446165" d="M24 39h1" />
<path stroke="#45a1b0" d="M26 39h2" />
<path stroke="#47a1af" d="M27 40h3M27 41h1M29 41h1" />
<path stroke="#41a1ac" d="M30 40h1" />
<path stroke="#54757e" d="M37 40h1M36 41h1" />
<path stroke="#3f3826" d="M20 41h1" />
<path stroke="#4a7878" d="M31 41h1" />
<path stroke="#000008" d="M18 42h1M18 43h1" />
<path stroke="#5a5235" d="M19 42h1" />
<path stroke="#4a4441" d="M26 42h2M27 43h1M32 46h1M32 47h2" />
<path stroke="#5a757e" d="M30 42h2M30 43h1" />
<path stroke="#31404a" d="M32 42h1M33 43h1" />
<path stroke="#6d7457" d="M33 42h1" />
<path stroke="#b4a562" d="M19 43h1" />
<path stroke="#e6da73" d="M32 43h1" />
<path stroke="#bfa14f" d="M18 44h2M21 44h1M19 45h3" />
<path stroke="#52596a" d="M20 44h1M18 45h1" />
<path stroke="#baa454" d="M24 44h1M25 45h1" />
<path stroke="#f6d662" d="M25 44h1M36 46h1" />
<path stroke="#bda14f" d="M33 44h1M34 47h2" />
<path stroke="#baa75d" d="M36 44h1" />
<path stroke="#4f5968" d="M20 46h1M39 46h1M20 47h2M38 47h2" />
<path stroke="#4a5052" d="M28 46h1M29 47h1" />
<path stroke="#bda55a" d="M29 46h1" />
<path stroke="#baa457" d="M37 46h1" />
<path stroke="#3c434c" d="M48 46h1" />
<path stroke="#5a6573" d="M49 46h1M48 47h1" />
<path stroke="#706d54" d="M28 47h1" />
</svg>