<svg xmlns="http://www.w3.org/2000/svg" viewBox="0 -0.5 68 56" shape-rendering="crispEdges">
<metadata>Made with Pixels to Svg https://codepen.io/shshaw/pen/XbxvNj</metadata>
<path stroke="#000000" d="M28 14h2M27 15h1M30 15h1M37 15h2M27 16h1M30 16h1M33 16h1M39 16h1M27 17h1M30 17h1M32 17h1M34 17h1M39 17h1M28 18h1M31 18h1M39 18h1M28 19h1M38 19h1M19 21h3M27 21h1M38 21h1M22 22h1M26 22h1M39 22h1M45 22h3M17 23h1M23 23h1M25 23h1M40 23h1M44 23h1M48 23h1M17 24h1M25 24h1M40 24h1M42 24h2M49 24h1M24 25h1M39 25h1M41 25h1M49 25h1M19 26h2M47 26h2M21 27h1M46 27h1M12 28h3M23 28h1M43 28h2M12 29h1M15 29h3M24 29h2M42 29h1M13 30h1M18 30h4M39 30h2M13 31h1M22 31h4M38 31h1M14 32h1M37 32h1M49 32h1M54 32h2M14 33h1M38 33h11M55 33h1M15 34h12M54 34h1M27 35h1M54 35h1M37 36h5M53 36h1M27 37h1M36 37h1M42 37h2M53 37h1M37 38h1M46 38h3M52 38h1M25 39h1M38 39h1M49 39h1M25 40h1M30 40h1M38 40h1M25 41h1M30 41h1M38 41h1M25 42h1M29 42h1M33 42h1M38 42h1M25 43h1M28 43h1M33 43h1M38 43h1M27 44h1M34 44h1M38 44h1M26 45h1M35 45h1M39 45h1M24 46h1M26 46h1M39 46h1M25 47h1M39 47h1M37 48h1M39 48h1M37 49h1M39 49h1M38 50h1" />
<path stroke="#cdc6cd" d="M28 15h1M38 17h1M29 18h1M29 25h1M35 27h1" />
<path stroke="#898489" d="M29 15h1M38 16h1M29 19h1" />
<path stroke="#c5c4c2" d="M28 16h1M36 43h1" />
<path stroke="#ffffff" d="M29 16h1M37 16h1M29 17h1M36 18h1M30 20h1M35 20h1M31 22h1M34 22h1M32 23h1M35 23h1M26 24h1M35 24h2M27 25h1M27 26h2M28 27h2M28 28h2M13 29h2M29 29h1M14 30h4M14 31h8M15 32h9M26 32h1M15 33h9M27 33h1M34 33h1M50 33h1M52 33h1M54 33h1M28 34h1M37 34h1M40 34h8M49 34h1M51 34h1M53 34h1M36 35h1M40 35h5M46 35h1M48 35h1M50 35h1M52 35h1M42 36h2M45 36h1M47 36h1M49 36h4M28 37h2M46 37h1M48 37h1M50 37h1M52 37h1M29 38h1M31 38h1M33 38h2M49 38h1M51 38h1M26 39h2M32 39h4M26 40h2M33 40h2M27 41h1M35 42h3M34 43h2M25 45h1M25 46h1M38 46h1M37 47h2M38 48h1M38 49h1" />
<path stroke="#000400" d="M36 16h1M36 17h1M24 44h1M24 45h1M36 46h1M36 47h1" />
<path stroke="#8b8a86" d="M28 17h1M37 43h1" />
<path stroke="#ff8952" d="M33 17h1M28 22h2M36 22h2M28 23h1M37 23h1M30 36h1" />
<path stroke="#7f817f" d="M37 17h1M25 44h1M37 46h1" />
<path stroke="#525252" d="M30 18h1M31 19h1" />
<path stroke="#fe8854" d="M32 18h2M32 19h2" />
<path stroke="#ff895a" d="M34 18h1M34 19h1" />
<path stroke="#000810" d="M35 18h1" />
<path stroke="#8b8983" d="M37 18h1M36 19h1M27 42h1M26 44h1M35 44h1M38 45h1" />
<path stroke="#c5c2cd" d="M38 18h1M38 24h2M38 25h1M33 28h3M34 29h1M36 32h1M49 33h1" />
<path stroke="#f6f6f6" d="M30 19h1" />
<path stroke="#543329" d="M35 19h1" />
<path stroke="#c5c4c1" d="M37 19h1" />
<path stroke="#000c18" d="M28 20h1M37 20h1" />
<path stroke="#523731" d="M29 20h1M29 21h1" />
<path stroke="#414041" d="M31 20h1M31 21h1M29 23h1M28 24h1M37 24h1M28 25h1M36 25h1M26 26h1M29 26h1M34 26h2M39 26h1M26 27h2M38 27h1M27 28h1M32 28h1M36 28h2M28 29h1M32 29h2M35 29h1M29 30h1M33 30h2M38 30h1M32 31h1M36 31h2M28 32h2M34 32h2M29 33h1M35 33h1M29 34h1M28 35h2M36 36h1" />
<path stroke="#c88f73" d="M32 20h1M37 40h1M29 41h1" />
<path stroke="#ac5931" d="M33 20h1M32 21h1M29 40h1M36 40h1M28 41h1M37 41h1" />
<path stroke="#414441" d="M34 20h1M34 21h1" />
<path stroke="#9f6d54" d="M36 20h1" />
<path stroke="#f68d62" d="M28 21h1" />
<path stroke="#bfbfbf" d="M30 21h1M37 25h1" />
<path stroke="#fffaf6" d="M33 21h1M28 40h1M36 41h1" />
<path stroke="#808280" d="M35 21h1" />
<path stroke="#4f3c36" d="M36 21h1" />
<path stroke="#ee9d73" d="M37 21h1" />
<path stroke="#080408" d="M18 22h1M23 24h1M18 25h1M25 26h1M40 26h1M22 27h1M45 27h1M41 29h1" />
<path stroke="#ffd64a" d="M19 22h1M18 23h1M18 24h2M24 26h1M41 26h1M45 26h1M25 27h1M40 27h1M44 27h1M41 28h1M40 29h1" />
<path stroke="#c29c3f" d="M20 22h1M21 23h1M20 24h1M44 24h2M47 24h1M21 25h1M45 25h2M42 26h2M42 27h1M39 28h1M38 29h1" />
<path stroke="#f6d241" d="M21 22h1M20 23h1M22 23h1M45 23h1M21 24h1M30 24h1M33 24h1M46 24h1M20 25h1M31 25h2M44 25h1M47 25h1M21 26h1M46 26h1M43 27h1M38 28h1M42 28h1M36 29h1M39 29h1M37 30h1M27 32h1M26 33h1M28 33h1M27 34h1M36 34h1M37 35h1" />
<path stroke="#a99f94" d="M27 22h1" />
<path stroke="#4a4441" d="M30 22h1M35 22h1" />
<path stroke="#c5c4c5" d="M32 22h2M34 25h2" />
<path stroke="#e6a18b" d="M38 22h1M39 23h1" />
<path stroke="#ac9034" d="M19 23h1M19 25h1M44 26h1M24 27h1M41 27h1M40 28h1" />
<path stroke="#ffeede" d="M26 23h1" />
<path stroke="#544f4a" d="M27 23h1" />
<path stroke="#868280" d="M30 23h1M34 23h1" />
<path stroke="#c2c0bf" d="M31 23h1" />
<path stroke="#8b898b" d="M33 23h1M34 24h1" />
<path stroke="#a05b3d" d="M36 23h1M31 36h1M30 37h2" />
<path stroke="#996b5d" d="M38 23h1" />
<path stroke="#a99131" d="M46 23h1M48 24h1M43 25h1M25 28h1" />
<path stroke="#ffda4a" d="M47 23h1M42 25h1M48 25h1M24 28h1" />
<path stroke="#ac9539" d="M22 24h1M22 25h1M22 26h2" />
<path stroke="#83817f" d="M27 24h1" />
<path stroke="#878387" d="M29 24h1M34 27h1" />
<path stroke="#8e897e" d="M31 24h2M30 25h1M33 25h1" />
<path stroke="#ffde52" d="M23 25h1M23 27h1" />
<path stroke="#080400" d="M26 25h1" />
<path stroke="#deca8b" d="M30 26h1M33 26h1M38 26h1M31 27h2M39 27h1" />
<path stroke="#8f876a" d="M31 26h2" />
<path stroke="#c8c2d0" d="M36 26h2M36 27h2M26 42h1M26 43h2M36 44h2M36 45h2" />
<path stroke="#41444a" d="M30 27h1M33 27h1" />
<path stroke="#f6ce41" d="M26 28h1M28 31h1M35 31h1" />
<path stroke="#fff6ee" d="M30 28h1" />
<path stroke="#4a3831" d="M31 28h1M30 29h1" />
<path stroke="#ba9f41" d="M26 29h2M28 30h1M35 30h1M29 31h1M34 31h1" />
<path stroke="#867870" d="M31 29h1" />
<path stroke="#baa141" d="M37 29h1M36 30h1" />
<path stroke="#000018" d="M26 30h1" />
<path stroke="#eed252" d="M27 30h1" />
<path stroke="#ff8152" d="M30 30h1" />
<path stroke="#a05f45" d="M31 30h1M31 31h1" />
<path stroke="#f6ae4a" d="M32 30h1M33 31h1" />
<path stroke="#4f462b" d="M26 31h2" />
<path stroke="#413c39" d="M30 31h1" />
<path stroke="#9c9162" d="M24 32h1M24 33h1M39 34h1M39 35h1" />
<path stroke="#bdb68e" d="M25 32h1M38 34h1" />
<path stroke="#41404a" d="M30 32h2M30 35h2" />
<path stroke="#4a4431" d="M32 32h2M32 35h2" />
<path stroke="#000408" d="M50 32h4M44 37h2M50 39h2M32 40h1M32 41h1" />
<path stroke="#ffffe6" d="M25 33h1M38 35h1" />
<path stroke="#eed25a" d="M30 33h1M30 34h1" />
<path stroke="#988952" d="M31 33h1M31 34h1" />
<path stroke="#ffffc5" d="M32 33h1M33 34h1M35 34h1" />
<path stroke="#c2c094" d="M33 33h1M32 34h1" />
<path stroke="#414044" d="M36 33h2" />
<path stroke="#a9abac" d="M51 33h1M53 33h1M44 36h1M50 38h1M33 41h1" />
<path stroke="#c5c294" d="M34 34h1" />
<path stroke="#c8c3d0" d="M48 34h1M50 34h1M52 34h1M45 35h1M47 35h1M49 35h1M51 35h1M53 35h1M46 36h1M48 36h1M47 37h1M49 37h1M51 37h1M28 38h1M32 38h1M28 39h2M35 40h1M34 41h2M34 42h1" />
<path stroke="#524831" d="M34 35h2" />
<path stroke="#200400" d="M28 36h1M31 39h1" />
<path stroke="#6a5754" d="M29 36h1M30 39h1" />
<path stroke="#c28068" d="M32 36h1" />
<path stroke="#b45d39" d="M33 36h1M32 37h1" />
<path stroke="#f6ffff" d="M34 36h2" />
<path stroke="#dec6c5" d="M33 37h1" />
<path stroke="#d8c7bf" d="M34 37h1" />
<path stroke="#9c5941" d="M35 37h1M35 38h1M28 42h1" />
<path stroke="#080808" d="M26 38h1" />
<path stroke="#acacac" d="M27 38h1" />
<path stroke="#b4aba9" d="M30 38h1" />
<path stroke="#f6855a" d="M36 38h1" />
<path stroke="#a4593c" d="M36 39h2" />
<path stroke="#8b8b7f" d="M26 41h1" />
</svg>