<svg xmlns="http://www.w3.org/2000/svg" viewBox="0 -0.5 68 56" shape-rendering="crispEdges">
<metadata>Made with Pixels to Svg https://codepen.io/shshaw/pen/XbxvNj</metadata>
<path stroke="#000000" d="M19 20h1M18 21h1M20 21h1M28 21h1M18 22h1M21 22h1M27 22h1M29 22h1M17 23h1M21 23h1M26 23h1M29 23h1M33 23h1M17 24h1M30 24h1M32 24h1M34 24h1M57 24h2M17 25h1M22 25h2M25 25h1M30 25h1M32 25h1M34 25h1M55 25h2M58 25h1M24 26h1M30 26h1M32 26h1M34 26h1M53 26h2M29 27h1M32 27h1M34 27h1M51 27h2M15 28h1M29 28h1M32 28h1M35 28h1M49 28h1M58 28h1M15 29h1M28 29h1M32 29h1M35 29h1M47 29h2M14 30h1M32 30h1M35 30h1M45 30h2M56 30h1M14 31h1M30 31h1M32 31h1M35 31h1M43 31h2M54 31h2M14 32h1M36 32h1M41 32h2M51 32h2M14 33h1M36 33h1M39 33h2M50 33h1M15 34h3M38 34h1M49 34h1M18 35h6M47 35h2M24 36h2M46 36h1M26 37h1M27 38h1M44 38h1M26 39h1M45 39h3M48 40h3M23 41h3M50 41h1M21 42h1M27 42h1M29 42h1M49 42h1M20 43h1M26 43h1M29 43h1M48 43h1M21 44h1M24 44h2M30 44h1M49 44h1M22 45h2M31 45h1M48 45h1M32 46h2M43 46h2M48 46h1M34 47h2M42 47h1M45 47h2M49 47h1M38 48h1M40 48h1M47 48h3M39 49h1" />
<path stroke="#acaeac" d="M19 21h1M20 22h1M20 23h1M28 26h2M28 27h1M28 28h1M23 32h1M20 33h4M18 34h6M30 35h1M26 36h2M27 37h1M32 37h2M27 39h1M27 40h1M29 40h5M26 41h1M29 41h1M33 41h1M38 41h2M26 42h1" />
<path stroke="#94999c" d="M19 22h1M18 23h2" />
<path stroke="#d5dede" d="M28 22h1" />
<path stroke="#dedede" d="M27 23h1M26 26h1M29 34h1M32 35h2M36 37h2M38 38h2M36 39h2M36 40h2M37 41h1" />
<path stroke="#8e9494" d="M28 23h1" />
<path stroke="#a9afa9" d="M18 24h2M18 25h1M26 30h2M26 31h1M34 40h1M34 41h2" />
<path stroke="#acb2ac" d="M20 24h1" />
<path stroke="#080408" d="M21 24h1" />
<path stroke="#080808" d="M26 24h1" />
<path stroke="#a1a1a1" d="M27 24h1M27 25h1" />
<path stroke="#869194" d="M28 24h1M28 25h1M25 42h1M24 43h1" />
<path stroke="#a9aeac" d="M29 24h1M29 25h1M24 42h1M25 43h1" />
<path stroke="#4a79a4" d="M33 24h1M33 25h1M57 25h1M33 26h1M55 26h1M33 27h1M54 27h2M16 28h1M33 28h2M54 28h2M19 29h1M33 29h2M54 29h1M33 30h2M54 30h2M33 31h2M34 32h2M50 32h1M46 34h2M46 35h1M48 41h2M44 42h1M48 42h1M44 43h1M31 44h1M36 44h2M43 44h2M46 44h3M32 45h2M36 45h1M43 45h1M45 45h2M42 46h1M46 46h2M47 47h2" />
<path stroke="#414041" d="M19 25h1M24 28h1M23 29h1M55 29h1M27 31h1M27 32h1M32 32h1M26 33h1M33 33h3M35 39h1M44 39h1M35 40h1M36 41h1M38 42h1M45 42h1M39 43h1M42 43h1M45 43h1M38 44h1M42 44h1M45 44h1M37 45h1M42 45h1M44 45h1M47 45h1M45 46h1" />
<path stroke="#3f3e3f" d="M20 25h2" />
<path stroke="#eeeeee" d="M26 25h1" />
<path stroke="#080000" d="M16 26h1M57 26h1M16 27h1M57 27h1M50 28h1M57 29h1M36 47h2" />
<path stroke="#2e3e4f" d="M17 26h1M56 27h1M37 46h1" />
<path stroke="#203c5a" d="M18 26h1" />
<path stroke="#94bbc8" d="M19 26h1" />
<path stroke="#52b2ff" d="M20 26h1M20 27h2M53 27h1M21 28h3M20 29h2M49 29h1M47 30h2M45 31h3M16 32h4M43 32h3M16 33h1M41 33h3M34 34h2M39 34h3M38 35h2M38 36h3M40 37h2M42 38h1M43 39h1M39 44h1M38 45h2" />
<path stroke="#395d7f" d="M21 26h1M34 35h2M38 37h2" />
<path stroke="#395e7e" d="M22 26h1M23 27h1" />
<path stroke="#7bb2d5" d="M23 26h1M22 27h1" />
<path stroke="#4a4a47" d="M25 26h1M24 27h1" />
<path stroke="#a8aeac" d="M27 26h1M26 27h2M28 34h1M28 35h2" />
<path stroke="#547c9f" d="M56 26h1M17 27h1M36 46h1" />
<path stroke="#cdfaff" d="M18 27h1" />
<path stroke="#5a7c91" d="M19 27h1" />
<path stroke="#deded5" d="M25 27h1" />
<path stroke="#ffffff" d="M17 28h3M16 29h3M39 48h1" />
<path stroke="#4a79a8" d="M20 28h1M49 30h1M48 31h2M17 33h3M44 33h2M40 35h2M41 36h1M43 38h1M42 39h1" />
<path stroke="#dee2de" d="M25 28h1M24 29h1M27 33h1M35 38h1M39 42h1" />
<path stroke="#a9afac" d="M26 28h2M26 29h2M24 30h2M24 31h2M24 32h2M24 33h2M24 34h4M24 35h4M28 36h4M28 37h4M28 38h6M29 39h5" />
<path stroke="#5ab6ff" d="M51 28h1M50 29h1M15 31h1M15 32h1" />
<path stroke="#4a7ca7" d="M52 28h2M52 29h2M50 30h2M50 31h2M46 32h4M46 33h4M42 34h4M42 35h4M42 36h2M42 37h2M44 40h4M44 41h4M30 42h2M46 42h2M30 43h2M46 43h2" />
<path stroke="#4f7ca4" d="M56 28h2" />
<path stroke="#4a79a0" d="M22 29h1" />
<path stroke="#a9aca9" d="M25 29h1M26 32h1M34 38h1M34 39h1M38 43h1" />
<path stroke="#3f79a9" d="M51 29h1" />
<path stroke="#2b3e52" d="M56 29h1" />
<path stroke="#3c79a9" d="M15 30h1" />
<path stroke="#eeffff" d="M16 30h1M38 46h1" />
<path stroke="#397db4" d="M17 30h1M16 31h1M39 46h1M38 47h1" />
<path stroke="#708dbd" d="M18 30h1" />
<path stroke="#41aef6" d="M19 30h1M18 31h1" />
<path stroke="#ffeae6" d="M20 30h1" />
<path stroke="#987573" d="M21 30h1M21 31h1" />
<path stroke="#f6ffff" d="M22 30h1M22 31h1" />
<path stroke="#293c52" d="M23 30h1" />
<path stroke="#474e54" d="M28 30h1M29 31h1" />
<path stroke="#000410" d="M29 30h1" />
<path stroke="#4a7dac" d="M52 30h1M52 31h1M44 36h2" />
<path stroke="#315473" d="M53 30h1M44 37h1" />
<path stroke="#75a8cd" d="M17 31h1M39 47h1" />
<path stroke="#cd4c4a" d="M19 31h1" />
<path stroke="#310000" d="M20 31h1" />
<path stroke="#6d7d8b" d="M23 31h1" />
<path stroke="#d5e2de" d="M28 31h1" />
<path stroke="#000400" d="M53 31h1M45 37h1" />
<path stroke="#4a7aa7" d="M20 32h3M32 42h1M32 43h2M34 44h2" />
<path stroke="#dedfdb" d="M28 32h2M28 33h2M34 36h2M34 37h2" />
<path stroke="#475465" d="M30 32h1M31 33h1" />
<path stroke="#000c20" d="M31 32h1" />
<path stroke="#4a7ba0" d="M33 32h1" />
<path stroke="#2d5b7f" d="M15 33h1" />
<path stroke="#d5e6ee" d="M30 33h1" />
<path stroke="#52b6ff" d="M32 33h1M36 35h2M40 46h1M40 47h1" />
<path stroke="#deded8" d="M30 34h2M31 35h1M32 36h2M38 40h2" />
<path stroke="#395d7b" d="M32 34h2M36 36h2M33 42h1" />
<path stroke="#263f54" d="M36 34h1M41 46h1" />
<path stroke="#100400" d="M37 34h1M41 47h1" />
<path stroke="#395f7f" d="M48 34h1" />
<path stroke="#4f5a6a" d="M36 38h2M38 39h2" />
<path stroke="#31618b" d="M40 38h1M41 39h1" />
<path stroke="#7ba3c1" d="M41 38h1" />
<path stroke="#52596a" d="M28 39h1" />
<path stroke="#c5e6f6" d="M40 39h1" />
<path stroke="#000008" d="M26 40h1M28 41h1" />
<path stroke="#56575a" d="M28 40h1M27 41h1" />
<path stroke="#4a5d6a" d="M40 40h1M40 41h1" />
<path stroke="#d5e6de" d="M41 40h1" />
<path stroke="#395d83" d="M42 40h1M43 41h1" />
<path stroke="#5a7d99" d="M43 40h1" />
<path stroke="#395f80" d="M30 41h3" />
<path stroke="#a7b8b7" d="M41 41h1" />
<path stroke="#9cbec5" d="M42 41h1" />
<path stroke="#000408" d="M22 42h1" />
<path stroke="#687886" d="M23 42h1" />
<path stroke="#396183" d="M34 42h1M35 43h1" />
<path stroke="#a4aeb4" d="M35 42h1" />
<path stroke="#a4aeac" d="M36 42h1M37 43h1" />
<path stroke="#313c4a" d="M37 42h1" />
<path stroke="#cddee6" d="M40 42h1" />
<path stroke="#394c62" d="M41 42h1M40 43h1" />
<path stroke="#445e75" d="M42 42h1" />
<path stroke="#477ca9" d="M43 42h1M43 43h1" />
<path stroke="#a4bebd" d="M21 43h1M22 44h1" />
<path stroke="#343e47" d="M22 43h1" />
<path stroke="#9cb2c5" d="M23 43h1" />
<path stroke="#5d7a94" d="M34 43h1" />
<path stroke="#57626a" d="M36 43h1" />
<path stroke="#6a7d8e" d="M41 43h1" />
<path stroke="#363f3f" d="M23 44h1" />
<path stroke="#ff6139" d="M32 44h2" />
<path stroke="#52b4fe" d="M40 44h2M40 45h2" />
<path stroke="#bd3c5a" d="M34 45h2" />
<path stroke="#835b7e" d="M34 46h2" />
</svg>