<svg xmlns="http://www.w3.org/2000/svg" viewBox="0 -0.5 68 56" shape-rendering="crispEdges">
<metadata>Made with Pixels to Svg https://codepen.io/shshaw/pen/XbxvNj</metadata>
<path stroke="#000400" d="M26 23h2M37 23h1M49 23h2M23 24h3M27 24h1M36 24h1M38 24h1M47 24h2M51 24h1M22 25h1M26 25h1M36 25h1M38 25h1M46 25h1M50 25h1M23 26h1M26 26h1M35 26h1M39 26h1M45 26h1M49 26h1M21 27h2M25 27h1M35 27h1M39 27h1M43 27h2M48 27h1M20 28h1M26 28h2M34 28h1M39 28h1M42 28h1M49 28h1M20 29h1M28 29h1M33 29h1M39 29h1M41 29h1M48 29h1M19 30h1M29 30h1M33 30h1M39 30h1M41 30h1M49 30h1M19 31h1M29 31h1M32 31h1M39 31h1M42 31h1M49 31h1M19 32h1M30 32h1M32 32h1M38 32h1M42 32h1M49 32h1M19 33h1M31 33h1M38 33h1M43 33h1M48 33h1M19 34h1M37 34h1M43 34h1M47 34h1M20 35h1M37 35h1M42 35h1M47 35h1M35 36h2M41 36h1M45 36h2M19 37h1M34 37h1M41 37h1M44 37h1M40 38h1M45 38h1M34 39h1M40 39h1M44 39h1M21 40h1M33 40h1M40 40h1M42 40h2M21 41h1M32 41h1M36 41h4M41 41h1M22 42h1M33 42h3M40 42h1M23 43h1M40 43h1M25 44h1M40 44h1M41 45h1M25 46h1M35 46h2M42 46h2M24 47h1M34 47h1M37 47h1M44 47h1M25 48h2M42 48h2M27 49h1M26 50h1M33 50h1M38 50h1M41 50h1M26 51h1M32 51h1M34 51h1M39 51h2M27 52h2M31 52h1M33 52h2M29 53h2" />
<path stroke="#428663" d="M26 24h1M23 25h1M37 26h1M47 26h1M23 27h1M37 27h1M46 27h1M37 28h1M46 28h1M36 29h1M45 29h1M44 30h1M44 31h1M47 31h1M45 32h2M45 33h1M45 34h1M44 35h1" />
<path stroke="#478662" d="M37 24h1M24 25h2M37 25h1M24 26h2M24 27h1M21 28h1M21 29h1" />
<path stroke="#4c8868" d="M49 24h1M48 25h1" />
<path stroke="#84cba5" d="M50 24h1M47 25h1M38 26h1M48 26h1M38 27h1M45 27h1M35 28h1M48 28h1M26 29h2M34 29h2M24 30h2M28 30h1M37 30h2M42 30h2M25 31h1M28 31h1M33 31h1M37 31h2M43 31h1M28 32h1M43 32h1M48 32h1M26 34h2M46 34h1M26 35h1M43 35h1M46 35h1M41 46h1M25 47h1M42 47h2M32 50h1M33 51h1" />
<path stroke="#73cb9c" d="M49 25h1" />
<path stroke="#7ecca5" d="M36 26h1M46 26h1M36 27h1M47 27h1M36 28h1M44 28h2M47 28h1M37 29h1M44 29h1M46 29h2M45 30h3M45 31h2M44 32h1M47 32h1M44 33h1M46 33h2M44 34h1M45 35h1" />
<path stroke="#39775d" d="M22 28h1" />
<path stroke="#7b4131" d="M23 28h1M22 29h1" />
<path stroke="#4f7463" d="M24 28h1" />
<path stroke="#394542" d="M25 28h1M24 29h1" />
<path stroke="#528868" d="M38 28h1M43 29h1M48 31h1" />
<path stroke="#7bcb9c" d="M43 28h1M38 29h1M42 29h1M48 30h1" />
<path stroke="#5a5c47" d="M23 29h1" />
<path stroke="#7bd3a5" d="M25 29h1" />
<path stroke="#658d52" d="M20 30h1" />
<path stroke="#7b4531" d="M21 30h1M21 31h1" />
<path stroke="#523c39" d="M22 30h1M23 31h1" />
<path stroke="#94c79c" d="M23 30h1" />
<path stroke="#80cba2" d="M26 30h2M26 31h2M26 32h2M26 33h2" />
<path stroke="#6b7b57" d="M34 30h1" />
<path stroke="#7bcfa5" d="M35 30h1M34 31h1" />
<path stroke="#7b4931" d="M36 30h1M36 31h1M34 32h1M34 33h1M33 34h3M33 35h1M32 36h1M22 40h1M29 40h1M28 41h2" />
<path stroke="#5ab263" d="M20 31h1" />
<path stroke="#686a5a" d="M22 31h1" />
<path stroke="#524e47" d="M24 31h1" />
<path stroke="#635131" d="M35 31h1" />
<path stroke="#a4a34c" d="M20 32h1" />
<path stroke="#734d31" d="M21 32h1M21 33h1" />
<path stroke="#845542" d="M22 32h1M22 33h2" />
<path stroke="#73ba5a" d="M23 32h1" />
<path stroke="#4f4f47" d="M24 32h2M25 33h1M29 46h1M28 47h1M29 49h1" />
<path stroke="#424142" d="M29 32h1M28 33h2M27 35h1M26 36h1M31 42h1M39 42h1M28 43h3M33 47h1M38 47h1M28 50h1M28 51h1" />
<path stroke="#ade38c" d="M33 32h1M32 33h2" />
<path stroke="#9c5a3e" d="M35 32h1M35 33h1M28 40h1" />
<path stroke="#734931" d="M36 32h1M36 33h1" />
<path stroke="#6f8a66" d="M37 32h1" />
<path stroke="#bdcf5a" d="M20 33h1" />
<path stroke="#debe52" d="M24 33h1M30 33h1M20 34h2M21 35h1M28 36h1M41 38h1M25 39h1M41 39h1M32 40h1M41 40h1M40 41h1M27 42h4M26 43h2M31 43h1M30 44h2M30 45h1M28 46h1M37 46h1M29 47h1M28 48h2M28 49h1" />
<path stroke="#6bcb9c" d="M37 33h1" />
<path stroke="#525142" d="M22 34h1M25 34h1M22 35h1M24 35h1M30 36h1M30 39h1M30 48h1" />
<path stroke="#ffef84" d="M23 34h1M23 35h1M27 36h1M29 36h1M31 36h1M33 36h2M26 37h8M23 38h3M30 38h2M23 39h2M31 39h3M23 40h1M22 41h2M26 42h1M38 42h1M34 43h2M38 43h2M36 44h2M31 45h1M37 45h1M40 45h1M32 46h2M38 46h2M32 47h1M39 47h1M31 48h1M30 49h2" />
<path stroke="#afc578" d="M24 34h1M25 35h1" />
<path stroke="#4a4539" d="M28 34h1" />
<path stroke="#c2b95a" d="M29 34h1M28 35h1" />
<path stroke="#c2ba62" d="M30 34h1" />
<path stroke="#4a4942" d="M31 34h1M30 35h1" />
<path stroke="#bdef84" d="M32 34h1M36 34h1M32 35h1M34 35h3" />
<path stroke="#fff36b" d="M29 35h1" />
<path stroke="#fff373" d="M31 35h1M31 40h1" />
<path stroke="#000810" d="M20 36h1" />
<path stroke="#ceb252" d="M21 36h1M20 37h1" />
<path stroke="#ffef80" d="M22 36h2M22 37h2M24 40h2M24 41h2M36 42h2M36 43h2M32 44h4M38 44h2M32 45h4M38 45h2" />
<path stroke="#42715a" d="M24 36h1M25 37h1" />
<path stroke="#98b677" d="M25 36h1" />
<path stroke="#94c75a" d="M42 36h1M44 36h1M42 37h1M44 38h1" />
<path stroke="#418560" d="M43 36h1M43 37h1" />
<path stroke="#444026" d="M21 37h1" />
<path stroke="#effb94" d="M24 37h1" />
<path stroke="#080000" d="M20 38h1M20 39h1" />
<path stroke="#fffbf7" d="M21 38h1" />
<path stroke="#634539" d="M22 38h1M22 39h1" />
<path stroke="#c8ba65" d="M26 38h1M30 46h1" />
<path stroke="#ffef7b" d="M27 38h1M26 39h1M31 46h1M31 47h1" />
<path stroke="#634d42" d="M28 38h2M29 39h1" />
<path stroke="#554f31" d="M32 38h1" />
<path stroke="#000008" d="M33 38h1" />
<path stroke="#428e63" d="M42 38h1" />
<path stroke="#aab457" d="M43 38h1" />
<path stroke="#5a5352" d="M21 39h1" />
<path stroke="#5a5139" d="M27 39h1M30 47h1" />
<path stroke="#ffffff" d="M28 39h1" />
<path stroke="#dec752" d="M42 39h2" />
<path stroke="#6b4139" d="M26 40h1M27 41h1" />
<path stroke="#9c784f" d="M27 40h1" />
<path stroke="#844929" d="M30 40h1" />
<path stroke="#ffe77b" d="M26 41h1" />
<path stroke="#d6ba5a" d="M30 41h2" />
<path stroke="#9c5942" d="M23 42h1M39 50h2M29 52h2" />
<path stroke="#fff77b" d="M24 42h2" />
<path stroke="#e7cf63" d="M32 42h1M32 43h2" />
<path stroke="#100c00" d="M24 43h1" />
<path stroke="#afa852" d="M25 43h1" />
<path stroke="#4a422e" d="M26 44h2" />
<path stroke="#e1be4f" d="M28 44h2M28 45h2" />
<path stroke="#000418" d="M26 45h1" />
<path stroke="#debe5a" d="M27 45h1" />
<path stroke="#8b7273" d="M36 45h1" />
<path stroke="#478957" d="M26 46h1M27 47h1" />
<path stroke="#65ae75" d="M27 46h1" />
<path stroke="#424042" d="M34 46h1M27 48h1" />
<path stroke="#468663" d="M40 46h1M40 47h2" />
<path stroke="#84d394" d="M26 47h1" />
<path stroke="#e7f38c" d="M32 48h1" />
<path stroke="#000808" d="M33 48h1M33 49h1" />
<path stroke="#000000" d="M38 48h1M38 49h1" />
<path stroke="#e7ae52" d="M39 48h1" />
<path stroke="#e7ae5a" d="M40 48h1" />
<path stroke="#4d3a28" d="M41 48h1" />
<path stroke="#737d4a" d="M32 49h1" />
<path stroke="#9a7436" d="M39 49h1" />
<path stroke="#9a7441" d="M40 49h1" />
<path stroke="#000010" d="M41 49h1" />
<path stroke="#7e4731" d="M27 50h1M27 51h1" />
<path stroke="#604a42" d="M29 50h1" />
<path stroke="#c6c752" d="M30 50h1" />
<path stroke="#a29d4c" d="M31 50h1" />
<path stroke="#9c5d42" d="M29 51h1" />
<path stroke="#7e7347" d="M30 51h1" />
<path stroke="#5a4942" d="M31 51h1" />
</svg>