<svg xmlns="http://www.w3.org/2000/svg" viewBox="0 -0.5 68 56" shape-rendering="crispEdges">
<metadata>Made with Pixels to Svg https://codepen.io/shshaw/pen/XbxvNj</metadata>
<path stroke="#000000" d="M29 30h6M27 31h2M35 31h2M26 32h1M37 32h1M25 33h1M38 33h1M25 34h1M39 34h1M24 35h1M39 35h1M24 36h1M40 36h1M24 37h1M40 37h1M25 38h1M27 38h1M40 38h1M28 39h1M41 39h1M28 40h1M41 40h1M27 41h1M41 41h1M41 42h1M25 43h1M41 43h1M26 44h1M41 44h1M27 45h1M41 45h1M28 46h1M40 46h1M25 47h1M27 47h1M40 47h1M24 48h1M39 48h1M24 49h1M39 49h1M25 50h1M38 50h1M26 51h1M36 51h2M27 52h3M34 52h2M30 53h4" />
<path stroke="#decf6b" d="M29 31h6M27 32h1M26 33h2M28 34h4M34 34h1M36 34h1M38 34h1M25 35h1M28 35h1M34 35h1M36 35h1M38 35h1M25 36h1M34 36h2M37 36h1M25 37h1M35 37h3M38 38h2M39 39h2M39 40h1M39 41h1M32 42h1M28 43h2M27 48h4M26 49h1M31 49h1M28 50h3" />
<path stroke="#decf6a" d="M28 32h8M28 33h8M26 34h2M32 34h2M26 35h2M32 35h2M38 36h2M38 37h2" />
<path stroke="#d6c363" d="M36 32h1M36 33h2" />
<path stroke="#bda55a" d="M35 34h1M37 34h1M35 35h1M37 35h1M30 36h2M36 36h1M30 37h2M34 37h1M38 39h1M28 42h2M38 44h2M38 45h2M34 46h2M38 46h2M34 47h2M38 47h2M31 50h1M34 50h2M28 51h4M34 51h2" />
<path stroke="#424142" d="M29 35h3M28 36h1M32 36h1M33 37h1M35 38h2M34 39h4M33 40h1M36 40h3M33 41h1M37 41h2M33 42h1M37 42h2M32 43h2M36 43h3M27 44h4M34 44h4M35 45h2M31 48h2M28 49h3" />
<path stroke="#ceba63" d="M26 36h1M27 37h1M40 40h1M40 41h1M25 48h1M25 49h1" />
<path stroke="#443e2b" d="M27 36h1" />
<path stroke="#bda65a" d="M29 36h1M33 36h1M28 37h2M32 37h1M28 38h5M34 38h1M37 38h1M29 39h1M31 39h3M30 40h1M30 41h2M40 42h1M40 43h1M31 44h3M40 44h1M30 45h2M34 45h1M37 45h1M40 45h1M36 46h2M30 47h2M37 47h1M33 48h2M36 48h1M38 48h1M32 49h3M36 49h1M38 49h1M26 50h2M32 50h1M37 50h1M27 51h1M32 51h2M30 52h4" />
<path stroke="#000010" d="M26 37h1M26 48h1" />
<path stroke="#80743c" d="M33 38h1M30 39h1M31 40h1M32 45h2M30 46h2M36 47h1M35 48h1M37 48h1M35 49h1M37 49h1M33 50h1" />
<path stroke="#7e713c" d="M29 40h1M28 41h1" />
<path stroke="#bda652" d="M32 40h1M29 45h1" />
<path stroke="#4d292b" d="M34 40h1M34 43h1" />
<path stroke="#e75d73" d="M35 40h1M34 41h1M34 42h1M35 43h1" />
<path stroke="#bdaa5a" d="M29 41h1" />
<path stroke="#7f734a" d="M32 41h1M28 45h1" />
<path stroke="#001008" d="M35 41h1M35 42h1" />
<path stroke="#e75973" d="M36 41h1M36 42h1" />
<path stroke="#080400" d="M26 42h1" />
<path stroke="#736b35" d="M27 42h1" />
<path stroke="#b29f5d" d="M30 42h1" />
<path stroke="#e7cf6b" d="M31 42h1M30 43h1" />
<path stroke="#e7d36b" d="M39 42h1" />
<path stroke="#ded36b" d="M26 43h2" />
<path stroke="#4a4142" d="M31 43h1" />
<path stroke="#b0a25d" d="M39 43h1" />
<path stroke="#897942" d="M29 46h1" />
<path stroke="#baa555" d="M32 46h1M32 47h1" />
<path stroke="#7e7347" d="M33 46h1" />
<path stroke="#ceb663" d="M28 47h2" />
<path stroke="#424139" d="M33 47h1" />
<path stroke="#4a452e" d="M27 49h1" />
<path stroke="#7e6e3c" d="M36 50h1" />
</svg>