<svg xmlns="http://www.w3.org/2000/svg" viewBox="0 -0.5 68 56" shape-rendering="crispEdges">
<metadata>Made with Pixels to Svg https://codepen.io/shshaw/pen/XbxvNj</metadata>
<path stroke="#000000" d="M29 32h1M28 33h1M30 33h1M33 33h1M27 34h1M30 34h1M32 34h1M34 34h3M27 35h1M31 35h1M37 35h1M37 36h1M25 37h1M37 37h1M25 38h1M24 39h1M38 39h3M24 40h1M40 40h1M25 41h1M41 41h2M24 42h1M40 42h1M43 42h1M25 43h1M44 43h1M26 44h1M39 44h1M44 44h1M25 45h1M27 45h1M38 45h1M40 45h1M43 45h1M25 46h1M27 46h1M42 46h1M26 47h1M29 48h1M39 48h2M28 49h1M32 49h2M38 49h1M29 50h2M34 50h1M37 50h1M33 51h1M36 51h1M34 52h2" />
<path stroke="#636363" d="M29 33h1M41 42h1M40 43h2M35 50h2M34 51h2" />
<path stroke="#393839" d="M28 34h1M29 35h1M29 36h1M28 37h1" />
<path stroke="#787778" d="M29 34h1M29 37h1" />
<path stroke="#6e6662" d="M33 34h1M33 35h1" />
<path stroke="#f7f7f7" d="M28 35h1M28 36h1" />
<path stroke="#ad9e94" d="M30 35h1M31 36h3M32 37h1M36 39h2M28 40h1M28 41h2M28 42h4M30 45h2M37 46h1M37 48h2" />
<path stroke="#a59a94" d="M32 35h1" />
<path stroke="#424242" d="M34 35h2M36 36h1M36 37h1M28 38h4M28 39h1M31 39h1" />
<path stroke="#424342" d="M36 35h1M25 39h1M38 44h1M29 49h1" />
<path stroke="#080808" d="M26 36h1M39 46h1" />
<path stroke="#413b36" d="M27 36h1M39 47h1" />
<path stroke="#424142" d="M30 36h1M34 36h1M31 37h1M33 37h1M29 40h1M36 46h1M36 47h2M35 48h1M34 49h1" />
<path stroke="#ffffff" d="M35 36h1M34 37h2M35 38h1M28 43h1M30 43h1M29 44h1M31 44h1" />
<path stroke="#b5a294" d="M26 37h1M27 44h1M38 47h1" />
<path stroke="#7b6e65" d="M27 37h1M38 46h1" />
<path stroke="#65605d" d="M30 37h1" />
<path stroke="#9f7947" d="M26 38h1M26 39h1" />
<path stroke="#efb663" d="M27 38h1" />
<path stroke="#ac9b94" d="M32 38h3M33 39h3M28 44h1M28 45h2" />
<path stroke="#393a36" d="M36 38h1" />
<path stroke="#000808" d="M37 38h1" />
<path stroke="#000010" d="M27 39h1M32 41h1" />
<path stroke="#636463" d="M29 39h2" />
<path stroke="#ffbe42" d="M32 39h1" />
<path stroke="#8c7163" d="M25 40h1M25 42h1M26 46h1M32 48h2" />
<path stroke="#d6ae73" d="M26 40h1M27 41h1" />
<path stroke="#000008" d="M27 40h1" />
<path stroke="#39455a" d="M30 40h1" />
<path stroke="#f7be5a" d="M31 40h1M31 41h1" />
<path stroke="#553f23" d="M32 40h1" />
<path stroke="#ffbe4a" d="M33 40h1M33 41h1" />
<path stroke="#ad9c94" d="M34 40h2M34 41h2M34 42h2M34 43h2M32 44h2M32 45h2" />
<path stroke="#ad9d94" d="M36 40h1M36 41h2M36 42h1M36 43h2M34 44h2M34 45h1M30 46h2M33 46h1M30 47h1M32 47h1" />
<path stroke="#8c7362" d="M37 40h1M37 42h1M35 45h1M32 46h1M31 47h1M33 47h1" />
<path stroke="#b59e94" d="M38 40h2M38 42h2M37 44h1" />
<path stroke="#8e744f" d="M26 41h1" />
<path stroke="#b7955a" d="M30 41h1" />
<path stroke="#7b6a62" d="M38 41h1M38 43h1" />
<path stroke="#080400" d="M39 41h1M39 43h1M28 47h1" />
<path stroke="#817168" d="M26 42h1M26 43h1" />
<path stroke="#4a4542" d="M27 42h1" />
<path stroke="#aca488" d="M32 42h2" />
<path stroke="#636163" d="M42 42h1M43 43h1M40 44h2M43 44h1M42 45h1" />
<path stroke="#b89e8e" d="M27 43h1" />
<path stroke="#c8beb7" d="M29 43h1M31 43h1M30 44h1" />
<path stroke="#ffffe7" d="M32 43h1" />
<path stroke="#5a4929" d="M33 43h1" />
<path stroke="#424042" d="M42 43h1M42 44h1M41 45h1" />
<path stroke="#474241" d="M36 44h1M37 45h1" />
<path stroke="#786c62" d="M26 45h1" />
<path stroke="#7e706a" d="M36 45h1" />
<path stroke="#806d62" d="M28 46h1M29 47h1" />
<path stroke="#bda294" d="M29 46h1" />
<path stroke="#8c7363" d="M34 46h2M34 47h2M34 48h1M35 49h1" />
<path stroke="#8c796b" d="M40 46h1M40 47h1" />
<path stroke="#5d524a" d="M41 46h1" />
<path stroke="#000408" d="M41 47h1M36 48h1M31 49h1M37 49h1" />
<path stroke="#443e39" d="M30 48h1M30 49h1" />
<path stroke="#89786a" d="M31 48h1" />
<path stroke="#393736" d="M36 49h1" />
</svg>