<svg xmlns="http://www.w3.org/2000/svg" viewBox="0 -0.5 68 56" shape-rendering="crispEdges">
<metadata>Made with Pixels to Svg https://codepen.io/shshaw/pen/XbxvNj</metadata>
<path stroke="#000000" d="M25 19h1M19 20h2M24 20h1M26 20h1M18 21h1M20 21h1M24 21h1M27 21h2M18 22h1M21 22h1M23 22h1M29 22h2M33 22h2M17 23h1M20 23h1M23 23h1M31 23h2M35 23h1M17 24h1M20 24h1M23 24h1M35 24h1M20 25h1M22 25h1M34 25h1M40 25h2M18 26h1M20 26h1M34 26h1M39 26h1M41 26h1M19 27h1M21 27h1M38 27h1M41 27h1M20 28h1M33 28h1M36 28h2M40 28h1M21 29h1M34 29h2M41 29h1M20 30h1M39 30h2M21 31h1M35 31h4M50 31h2M22 32h7M34 32h1M48 32h2M52 32h1M29 33h1M33 33h1M47 33h1M52 33h1M29 34h1M34 34h1M46 34h1M53 34h1M23 35h1M26 35h2M35 35h1M46 35h1M50 35h3M22 36h1M28 36h2M35 36h1M45 36h1M48 36h2M21 37h1M36 37h1M45 37h1M47 37h1M21 38h1M37 38h1M44 38h1M47 38h1M20 39h1M26 39h1M38 39h1M44 39h1M46 39h1M20 40h1M27 40h2M46 40h1M21 41h1M29 41h1M40 41h1M46 41h1M21 42h1M25 42h1M29 42h1M43 42h1M46 42h1M21 43h1M24 43h1M29 43h1M42 43h1M45 43h1M20 44h1M24 44h1M44 44h1M20 45h1M27 45h1M43 45h1M21 46h2M27 46h1M42 46h1M41 47h1M27 48h1M30 48h1M33 48h1M35 48h1M41 48h1M28 49h2M31 49h2M40 49h1M36 50h1M38 50h1M40 50h1M37 51h1M39 51h1" />
<path stroke="#c5beb4" d="M25 20h1M25 21h2M30 23h1M19 26h1M20 27h1M32 28h1M32 29h1M29 32h1M32 33h1M34 35h1M28 37h2M27 38h1M27 39h1M44 42h2M43 43h2M39 44h1M42 44h2M36 45h4M28 48h1M37 50h1M39 50h1" />
<path stroke="#bda152" d="M19 21h1M19 22h2M18 23h2M38 30h1" />
<path stroke="#baacbf" d="M24 22h1M25 23h1" />
<path stroke="#414041" d="M25 22h1M24 23h1M30 24h1M29 27h1M21 28h1M28 28h1M31 30h3M30 32h2M30 36h1M32 36h2M31 37h1M24 38h1M30 38h1M35 38h1M24 39h1M29 39h1M29 40h1M33 40h1M33 41h1M35 41h1M34 42h1M36 42h2M30 43h1M34 43h1M36 43h1M35 44h1M35 45h1M40 48h1M39 49h1" />
<path stroke="#41404a" d="M26 22h1M51 33h1" />
<path stroke="#8e7ca7" d="M27 22h1M50 33h1" />
<path stroke="#9485c5" d="M28 22h1M28 23h2" />
<path stroke="#b499d5" d="M26 23h2M50 32h2M23 44h1M22 45h1M31 46h1M30 47h1" />
<path stroke="#ffffff" d="M33 23h2M24 24h1M28 24h2M31 24h4M23 25h11M23 26h10M23 27h3M28 27h1M30 27h3M29 28h3M28 29h3M23 30h7M34 30h4M22 31h5M30 31h5M32 34h2M24 35h1M31 35h3M23 36h3M46 36h2M22 37h3M32 37h2M46 37h1M22 38h2M31 38h4M36 38h1M45 38h2M21 39h3M30 39h3M34 39h2M45 39h1M21 40h3M30 40h3M45 40h1M22 41h2M30 41h3M30 42h4M31 43h2" />
<path stroke="#9f9068" d="M18 24h2" />
<path stroke="#8678bd" d="M25 24h3" />
<path stroke="#100c00" d="M18 25h1" />
<path stroke="#e6d29c" d="M19 25h1" />
<path stroke="#080400" d="M22 26h1M33 27h1M30 35h1" />
<path stroke="#acaba9" d="M33 26h1M22 27h1M30 34h2" />
<path stroke="#eed68b" d="M40 26h1M39 27h2M22 28h2M38 28h2M22 29h2M38 29h3" />
<path stroke="#b49bcd" d="M26 27h2" />
<path stroke="#fff6ff" d="M24 28h1M24 29h1" />
<path stroke="#bfb7bf" d="M25 28h1" />
<path stroke="#cd91cd" d="M26 28h1" />
<path stroke="#4a3044" d="M27 28h1" />
<path stroke="#413841" d="M25 29h1" />
<path stroke="#080000" d="M26 29h1" />
<path stroke="#8b6189" d="M27 29h1" />
<path stroke="#c2bcb4" d="M31 29h1M27 31h1M26 36h2M25 37h3M33 39h1M36 40h2M36 41h2" />
<path stroke="#413f3c" d="M33 29h1M32 32h2M26 38h1M42 45h1M29 48h1" />
<path stroke="#fffad5" d="M36 29h1" />
<path stroke="#a9a78e" d="M37 29h1" />
<path stroke="#bd488b" d="M21 30h2" />
<path stroke="#bfbfbf" d="M30 30h1" />
<path stroke="#7b7d7b" d="M28 31h1" />
<path stroke="#393c39" d="M29 31h1" />
<path stroke="#bfbcb4" d="M30 33h2M25 38h1M28 38h2M25 39h1M28 39h1M35 42h1M35 43h1" />
<path stroke="#b49dcd" d="M48 33h2M50 34h3M24 42h1M23 43h1M34 44h1M34 45h1M33 46h1M32 47h2M31 48h2" />
<path stroke="#000400" d="M24 34h2M44 40h1M44 41h1" />
<path stroke="#9c89c5" d="M47 34h1M47 35h1" />
<path stroke="#b49ccd" d="M48 34h2M48 35h2" />
<path stroke="#a9aba9" d="M25 35h1M45 41h1" />
<path stroke="#fffff6" d="M31 36h1M35 40h1" />
<path stroke="#fffaff" d="M34 36h1M35 37h1" />
<path stroke="#bfbfba" d="M30 37h1M34 40h1M34 41h1" />
<path stroke="#545354" d="M34 37h1" />
<path stroke="#545454" d="M36 39h1" />
<path stroke="#a9a9a9" d="M37 39h1" />
<path stroke="#bdaec5" d="M24 40h1M40 43h1" />
<path stroke="#000008" d="M25 40h1M39 40h1M25 41h1M41 42h1M23 45h1" />
<path stroke="#c5bacd" d="M38 40h1" />
<path stroke="#7e7486" d="M24 41h1M40 42h1" />
<path stroke="#413e4a" d="M38 41h1" />
<path stroke="#837c8b" d="M39 41h1" />
<path stroke="#735da0" d="M22 42h2M22 43h1M32 46h1M38 48h2M38 49h1" />
<path stroke="#8679ba" d="M38 42h2M38 43h1M36 47h4" />
<path stroke="#705da1" d="M33 43h1" />
<path stroke="#8979ba" d="M37 43h1" />
<path stroke="#705d9f" d="M39 43h1M36 46h4" />
<path stroke="#3f3a47" d="M41 43h1" />
<path stroke="#b495d5" d="M21 44h1M31 45h1" />
<path stroke="#786691" d="M22 44h1" />
<path stroke="#000010" d="M28 44h1" />
<path stroke="#bdb2d5" d="M29 44h1" />
<path stroke="#413c47" d="M30 44h1M30 45h1" />
<path stroke="#7b698e" d="M31 44h1" />
<path stroke="#705ba1" d="M32 44h1M32 45h1" />
<path stroke="#8e7ab7" d="M33 44h1" />
<path stroke="#735d9f" d="M36 44h3" />
<path stroke="#bdb2cd" d="M40 44h1" />
<path stroke="#41385a" d="M41 44h1" />
<path stroke="#78638e" d="M21 45h1" />
<path stroke="#7e7694" d="M28 45h2" />
<path stroke="#ac99cd" d="M33 45h1" />
<path stroke="#6a6180" d="M40 45h1" />
<path stroke="#9489a7" d="M41 45h1" />
<path stroke="#8b7dbd" d="M28 46h2M35 46h1M35 47h1" />
<path stroke="#41384a" d="M30 46h1" />
<path stroke="#34313f" d="M34 46h1M29 47h1" />
<path stroke="#8b79bd" d="M40 46h2M40 47h1" />
<path stroke="#080c00" d="M28 47h1M34 47h1" />
<path stroke="#7b698f" d="M31 47h1" />
<path stroke="#3f374c" d="M36 48h1M37 49h1" />
<path stroke="#756699" d="M37 48h1" />
<path stroke="#080800" d="M36 49h1" />
</svg>