<svg xmlns="http://www.w3.org/2000/svg" viewBox="0 -0.5 68 56" shape-rendering="crispEdges">
<metadata>Made with Pixels to Svg https://codepen.io/shshaw/pen/XbxvNj</metadata>
<path stroke="#000400" d="M20 9h1M19 10h2M20 11h1M39 11h2M18 12h2M38 12h1M40 12h1M17 13h1M19 13h1M37 13h1M39 13h1M16 14h1M18 14h1M36 14h1M38 14h1M16 15h1M18 15h1M32 15h4M37 15h1M16 16h2M29 16h3M37 16h1M15 17h1M17 17h1M27 17h2M36 17h1M15 18h1M17 18h1M25 18h1M35 18h1M54 18h2M15 19h1M17 19h1M19 19h1M22 19h3M35 19h1M53 19h1M56 19h1M15 20h1M20 20h2M34 20h1M37 20h6M52 20h1M55 20h1M14 21h1M35 21h2M43 21h1M52 21h1M54 21h1M56 21h5M14 22h1M42 22h1M50 22h2M55 22h1M61 22h1M14 23h1M48 23h2M62 23h1M14 24h1M40 24h1M42 24h6M60 24h3M13 25h1M40 25h2M58 25h2M13 26h1M57 26h1M13 27h1M41 27h2M56 27h1M12 28h1M40 28h1M56 28h1M11 29h1M39 29h1M41 29h1M57 29h1M10 30h1M40 30h1M52 30h3M57 30h1M11 31h1M48 31h4M55 31h1M57 31h1M48 32h1M57 32h1M11 33h1M49 33h1M53 33h1M56 33h1M12 34h1M55 34h1M13 35h1M54 35h1M12 36h1M49 36h5M13 37h1M48 37h1M14 38h1M13 39h1M15 39h1M13 40h2M16 40h1M50 40h1M16 41h2M50 41h1M18 42h2M43 42h1M50 42h1M32 43h2M42 43h1M49 43h1M19 44h1M31 44h1M34 44h1M42 44h1M45 44h1M20 45h1M30 45h1M34 45h1M41 45h1M45 45h1M21 46h1M30 46h1M35 46h1M41 46h1M22 47h1M35 47h1M40 47h1M43 47h1M21 48h1M28 48h1M40 48h1M42 48h1M49 48h1M20 49h1M35 49h1M40 49h1M42 49h1M48 49h1M19 50h1M27 50h1M41 50h1M43 50h1M45 50h1M47 50h1M20 51h2M26 51h1M33 51h1M41 51h1M22 52h2M32 52h1M42 52h1M33 53h1M41 53h1M34 54h1M36 54h1M38 54h1M40 54h1" />
<path stroke="#424042" d="M19 11h1M34 21h1M44 25h2M56 26h1M13 28h1M12 29h2M55 30h1M13 34h1M40 46h1M21 49h1M40 50h1M40 51h1" />
<path stroke="#524e44" d="M39 12h1M38 13h1M37 14h1M36 15h1M54 19h2M16 20h1M33 20h1M16 21h1M32 21h2M32 22h1M56 22h2M32 23h1M56 23h1M28 24h1M30 24h2M57 24h3M31 25h1M42 25h2M46 25h2M57 25h1M14 26h1M22 26h1M14 27h1M22 27h2M14 28h1M24 28h1M26 28h1M37 28h1M54 28h1M14 29h1M24 29h2M27 29h1M36 29h1M54 29h1M27 30h2M43 30h3M48 30h4M26 31h3M42 31h1M42 32h2M43 33h1M14 34h2M41 35h1M38 37h2M19 38h1M22 38h2M46 38h2M18 39h1M20 39h2M23 39h1M46 39h1M17 40h1M20 40h2M44 40h2M20 41h1M42 41h1M44 41h1M41 42h1M41 43h1M40 44h2M39 45h2M43 48h1M43 49h1M23 50h1M23 51h1" />
<path stroke="#424142" d="M18 13h1M35 16h1M34 17h2M17 20h1M32 20h1M17 21h1M31 21h1M16 22h1M18 22h1M33 22h1M52 22h2M16 23h1M18 23h1M33 23h1M57 23h1M18 24h1M20 24h2M29 24h1M56 24h1M18 25h2M22 25h1M28 25h3M38 25h2M56 25h1M15 26h1M23 26h1M28 26h1M36 26h2M15 27h1M24 27h1M28 27h1M15 28h1M25 28h1M27 28h1M36 28h1M55 28h1M15 29h1M26 29h1M37 29h1M55 29h1M13 30h2M26 30h1M29 30h1M42 30h1M13 31h2M29 31h1M43 31h3M14 32h1M40 32h2M42 33h1M20 34h4M26 34h2M40 34h2M14 35h2M26 35h3M40 35h1M15 36h1M24 36h1M29 36h3M38 36h2M14 37h1M16 37h1M18 37h2M22 37h2M25 37h2M32 37h6M17 38h2M20 38h2M24 38h2M37 38h1M16 39h2M19 39h1M22 39h1M24 39h1M32 39h2M37 39h1M47 39h1M18 40h2M24 40h1M27 40h1M36 40h2M42 40h2M46 40h1M19 41h1M21 41h1M24 41h3M28 41h1M37 41h1M43 41h1M45 41h1M47 41h1M24 42h1M27 42h4M38 42h3M24 43h2M31 43h1M39 43h2M23 44h1M36 44h4M22 45h2M36 45h1M38 45h1M47 47h1M22 50h1M22 51h1M36 51h1" />
<path stroke="#3c3e3c" d="M17 14h1" />
<path stroke="#787878" d="M17 15h1" />
<path stroke="#c19242" d="M32 16h1M25 21h1" />
<path stroke="#f7d342" d="M33 16h2M32 17h2M24 20h2M24 21h1M40 21h3M19 22h1M27 22h1M19 23h1M27 23h1M19 24h1M24 26h2M33 28h3M31 29h3M30 30h2M22 36h2M25 36h2M27 37h5M32 38h2M28 40h1M29 41h1M37 42h1M34 43h5M46 44h2M46 46h2M27 47h1M46 47h1M48 48h1" />
<path stroke="#524f46" d="M36 16h1M54 20h1M15 21h1M48 33h1M48 36h1M42 42h1M26 50h1M33 52h1" />
<path stroke="#5e615e" d="M16 17h1M16 18h1M16 19h1M15 30h1M15 31h1" />
<path stroke="#ffefde" d="M29 17h1M30 19h2M30 20h2M30 21h1M37 21h1M21 22h1M30 22h1M34 22h3M21 23h1M35 23h1M38 23h2M17 24h1M22 24h2M38 24h2M16 25h2M23 25h1M32 26h4M32 27h1M11 30h2M35 30h5M56 30h1M12 31h1M32 31h5M56 31h1M30 32h6M56 32h1M30 33h1M35 33h1M40 33h2M28 34h2M32 34h3M36 34h1M54 34h1M20 35h4M29 35h1M32 35h1M35 35h5M16 36h4M32 36h6M17 37h1M35 38h2M34 39h1M36 39h1M47 40h1M49 40h1M18 41h1M22 41h1M36 41h1M46 41h1M48 41h2M25 42h2M31 42h1M48 42h2M26 43h5M48 43h1M22 44h1M24 44h1M27 44h2M30 44h1M28 45h2M37 45h1M46 45h2" />
<path stroke="#ffe7b5" d="M30 17h1" />
<path stroke="#aa9b78" d="M31 17h1" />
<path stroke="#080400" d="M26 18h1M41 23h1M52 34h1" />
<path stroke="#ffdf84" d="M27 18h1M26 19h1M41 22h1M40 23h1" />
<path stroke="#fcefdb" d="M28 18h2M28 19h2M34 24h4M34 25h4M36 32h4M36 33h4M30 34h2M30 35h2M32 40h4M32 41h4M22 42h2M22 43h2" />
<path stroke="#bd9242" d="M30 18h2M25 19h1M37 22h3M34 23h1M36 23h2M16 24h1" />
<path stroke="#c29342" d="M32 18h1" />
<path stroke="#4a4542" d="M33 18h1M32 19h2M31 22h1M59 22h1M30 23h2M58 23h2M31 26h1M30 27h2M30 28h2M30 29h1M25 32h1M24 33h2M19 34h1M24 34h2M18 35h2M25 35h1M22 40h2M23 41h1M25 44h2M24 45h4M26 46h2M26 47h1M38 48h2M38 49h1" />
<path stroke="#8e9394" d="M34 18h1M53 20h1" />
<path stroke="#ac9658" d="M27 19h1M40 22h1" />
<path stroke="#474b4a" d="M34 19h1M53 21h1" />
<path stroke="#000010" d="M18 20h1M44 46h1M22 48h1" />
<path stroke="#efd34a" d="M19 20h1M19 21h1M45 46h1M44 47h1" />
<path stroke="#fff3ce" d="M22 20h1" />
<path stroke="#635139" d="M23 20h1M22 21h1" />
<path stroke="#9c8862" d="M26 20h1M24 22h1" />
<path stroke="#ffefd6" d="M27 20h1M21 21h1M26 21h1M25 22h1M24 23h1" />
<path stroke="#5a5139" d="M28 20h1M29 21h1M25 24h1M24 25h1" />
<path stroke="#fffbad" d="M29 20h1M24 24h1M30 39h1" />
<path stroke="#4f4623" d="M18 21h1M45 47h1" />
<path stroke="#555247" d="M20 21h1M13 33h1" />
<path stroke="#97876a" d="M23 21h1" />
<path stroke="#6b5529" d="M27 21h1M25 23h1" />
<path stroke="#c8c286" d="M28 21h1M25 25h1" />
<path stroke="#aa9031" d="M38 21h1" />
<path stroke="#ffd74a" d="M39 21h1" />
<path stroke="#7b7573" d="M15 22h1M40 26h1" />
<path stroke="#c09142" d="M17 22h1M17 23h1" />
<path stroke="#525142" d="M20 22h1M20 23h1M50 24h2M54 24h2M52 25h2M55 25h1M38 26h1M46 26h2M54 26h1M33 27h1M39 27h1M48 27h2M48 28h3M44 29h1M51 29h3M19 30h3M32 30h3M18 31h3M37 31h1M45 32h1M44 33h1M37 34h3M43 34h1M48 34h2M42 35h1M44 36h2M46 37h2M40 38h2M41 39h3" />
<path stroke="#735921" d="M22 22h1" />
<path stroke="#a18c58" d="M23 22h1M23 23h1" />
<path stroke="#524e47" d="M26 22h1M26 23h1M32 28h1M34 29h2M30 31h2M50 35h1M48 38h1M20 42h1M44 42h2M21 43h1M28 46h1M28 47h1M27 48h1M26 49h1" />
<path stroke="#918870" d="M28 22h1" />
<path stroke="#5a4d31" d="M29 22h1M28 23h1M23 48h1M23 49h1" />
<path stroke="#474442" d="M54 22h1M54 23h2M15 24h1M14 25h2M42 26h2M43 27h1M40 52h2M40 53h1" />
<path stroke="#889294" d="M58 22h1M30 26h1M40 40h1" />
<path stroke="#464b4a" d="M60 22h1M61 23h1" />
<path stroke="#524f4c" d="M15 23h1M41 26h1M40 27h1M36 46h1M36 47h1" />
<path stroke="#fff3c6" d="M22 23h1M46 43h1" />
<path stroke="#ffffef" d="M29 23h1" />
<path stroke="#f7f7de" d="M50 23h4M52 24h2" />
<path stroke="#8c9294" d="M60 23h1" />
<path stroke="#f7cf42" d="M26 24h1M37 51h1" />
<path stroke="#c0a342" d="M27 24h1M26 25h1" />
<path stroke="#4a4131" d="M32 24h1M32 25h1M28 32h1M28 33h1M21 36h1M20 37h1M27 38h3M26 39h1M24 48h2" />
<path stroke="#a49877" d="M33 24h1M29 32h1M21 37h1M27 39h2M24 49h1" />
<path stroke="#524f44" d="M48 24h2M48 25h2M20 26h2M44 26h2M50 26h4M20 27h2M44 27h2M50 27h4M28 28h2M46 28h2M28 29h2M46 29h2M16 32h2M26 32h2M46 32h2M16 33h2M26 33h2M46 33h2M44 34h2M44 35h2M42 36h2M42 37h2M38 38h2M44 38h2M38 39h2M44 39h2M38 46h2M38 47h2" />
<path stroke="#63615a" d="M20 25h1M15 32h1M14 33h1" />
<path stroke="#4d4b4a" d="M21 25h1M15 33h1" />
<path stroke="#524d42" d="M27 25h1" />
<path stroke="#ffefbd" d="M33 25h1M29 33h1M20 36h1M26 38h1M29 39h1M25 49h1" />
<path stroke="#899194" d="M50 25h2M54 25h1M48 26h2M55 26h1M46 27h2M54 27h2M44 28h2M51 28h3M45 29h1M48 29h3M44 32h1M45 33h1M40 39h1" />
<path stroke="#efdff7" d="M16 26h1" />
<path stroke="#423c4a" d="M17 26h1M16 27h1" />
<path stroke="#5d6160" d="M18 26h2" />
<path stroke="#978b6a" d="M26 26h1" />
<path stroke="#635539" d="M27 26h1M26 27h1" />
<path stroke="#737573" d="M29 26h1M37 27h1M46 34h1M40 37h1M24 46h1M37 47h1" />
<path stroke="#757773" d="M39 26h1M38 27h1M42 34h1M43 35h1M48 35h2M46 36h2M44 37h2M42 38h2" />
<path stroke="#b5a8bd" d="M17 27h1" />
<path stroke="#84a2de" d="M18 27h2" />
<path stroke="#baa242" d="M25 27h1M27 36h2M24 37h1M29 40h1" />
<path stroke="#fff7ce" d="M27 27h1M31 40h1" />
<path stroke="#525252" d="M29 27h1M36 27h1" />
<path stroke="#4a4942" d="M34 27h2M38 31h2M34 38h1M35 39h1M41 40h1M40 41h2" />
<path stroke="#424531" d="M16 28h1" />
<path stroke="#9c92de" d="M17 28h1" />
<path stroke="#9c8ade" d="M18 28h1" />
<path stroke="#dec570" d="M19 28h1M18 29h1" />
<path stroke="#bdef84" d="M20 28h1" />
<path stroke="#ff6139" d="M21 28h2M20 29h2" />
<path stroke="#554e44" d="M23 28h1M22 29h2" />
<path stroke="#4d4a44" d="M38 28h2M38 29h1M41 30h1M40 31h2M20 44h2M21 45h1" />
<path stroke="#080800" d="M42 28h1" />
<path stroke="#919494" d="M43 28h1" />
<path stroke="#605e6a" d="M16 29h2" />
<path stroke="#ffe339" d="M19 29h1" />
<path stroke="#4c4e4a" d="M42 29h2" />
<path stroke="#bd9e42" d="M56 29h1M13 36h1M15 38h1M14 39h1" />
<path stroke="#4a79a5" d="M16 30h1M16 31h1M21 31h1" />
<path stroke="#545e63" d="M17 30h1" />
<path stroke="#ff8a52" d="M18 30h1" />
<path stroke="#4a7ba4" d="M22 30h2M24 32h1M22 33h2" />
<path stroke="#638c98" d="M24 30h1" />
<path stroke="#42454a" d="M25 30h1M25 31h1" />
<path stroke="#898f94" d="M46 30h2" />
<path stroke="#5a5142" d="M17 31h1" />
<path stroke="#94dfde" d="M22 31h2M22 32h2M18 34h1" />
<path stroke="#84d3e7" d="M24 31h1" />
<path stroke="#44474a" d="M46 31h1" />
<path stroke="#000000" d="M47 31h1M12 32h1M50 34h2M49 38h1M49 39h1M20 43h1M44 43h1M29 47h1M27 49h1" />
<path stroke="#aaa48e" d="M13 32h1" />
<path stroke="#554f44" d="M18 32h1M18 33h2" />
<path stroke="#adaead" d="M19 32h1" />
<path stroke="#5e889c" d="M20 32h1M21 33h1" />
<path stroke="#7bcfe7" d="M21 32h1" />
<path stroke="#080c00" d="M54 32h1M49 44h1M49 45h1M49 46h1M49 47h1" />
<path stroke="#acae8e" d="M55 32h1M54 33h1" />
<path stroke="#fff7d6" d="M12 33h1" />
<path stroke="#424152" d="M20 33h1" />
<path stroke="#cdbb8c" d="M31 33h4M35 34h1M33 35h2M48 40h1M29 44h1" />
<path stroke="#ffffd6" d="M55 33h1" />
<path stroke="#5e8998" d="M16 34h1" />
<path stroke="#84d7e7" d="M17 34h1" />
<path stroke="#524e41" d="M47 34h1M46 35h2M40 36h2M41 37h1M25 46h1M24 47h2" />
<path stroke="#ffefc6" d="M53 34h1M52 35h1" />
<path stroke="#393c4a" d="M16 35h2" />
<path stroke="#c29e42" d="M24 35h1" />
<path stroke="#f7ebd6" d="M51 35h1M48 39h1M21 42h1M45 43h1M29 46h1M26 48h1" />
<path stroke="#aca084" d="M53 35h1" />
<path stroke="#c09d42" d="M14 36h1M15 37h1M16 38h1M25 39h1M25 40h2M27 41h1" />
<path stroke="#4a4539" d="M30 38h1M31 39h1M46 42h1" />
<path stroke="#c2be86" d="M31 38h1" />
<path stroke="#c6a231" d="M30 40h1M31 41h1" />
<path stroke="#393c42" d="M38 40h1" />
<path stroke="#949390" d="M39 40h1M39 41h1" />
<path stroke="#d9be65" d="M30 41h1" />
<path stroke="#efebde" d="M38 41h1" />
<path stroke="#ffefb5" d="M32 42h1" />
<path stroke="#aaa078" d="M33 42h1" />
<path stroke="#c29c3f" d="M34 42h3" />
<path stroke="#c2b997" d="M47 42h1M47 43h1" />
<path stroke="#4a4744" d="M35 44h1M35 45h1M20 50h2" />
<path stroke="#acae78" d="M48 44h1M48 47h1" />
<path stroke="#ffffb5" d="M48 45h1M48 46h1" />
<path stroke="#4c4c47" d="M22 46h2" />
<path stroke="#423c39" d="M37 46h1" />
<path stroke="#73716b" d="M23 47h1" />
<path stroke="#080808" d="M36 48h1" />
<path stroke="#5a5a5a" d="M37 48h1M37 49h1" />
<path stroke="#f7d752" d="M44 48h1M46 48h1" />
<path stroke="#524d31" d="M45 48h1M47 48h1M45 49h1M47 49h1" />
<path stroke="#b59a52" d="M22 49h1" />
<path stroke="#ffffff" d="M36 49h1M39 49h1" />
<path stroke="#000821" d="M44 49h1M46 49h1" />
<path stroke="#c69e4a" d="M24 50h1" />
<path stroke="#423a1e" d="M25 50h1" />
<path stroke="#000410" d="M34 50h1" />
<path stroke="#aa903c" d="M35 50h1" />
<path stroke="#ba9f42" d="M36 50h2" />
<path stroke="#a89c66" d="M38 50h1M39 51h1" />
<path stroke="#fff3b5" d="M39 50h1" />
<path stroke="#000808" d="M24 51h2" />
<path stroke="#554a26" d="M34 51h1" />
<path stroke="#ffd752" d="M35 51h1" />
<path stroke="#524518" d="M38 51h1" />
<path stroke="#4f452b" d="M34 52h1M36 52h1M38 52h1M34 53h1M36 53h1M38 53h1" />
<path stroke="#efcf52" d="M35 52h1M37 52h1M39 52h1" />
<path stroke="#000018" d="M35 53h1M37 53h1M39 53h1" />
</svg>