<svg xmlns="http://www.w3.org/2000/svg" viewBox="0 -0.5 68 56" shape-rendering="crispEdges">
<metadata>Made with Pixels to Svg https://codepen.io/shshaw/pen/XbxvNj</metadata>
<path stroke="#181818" d="M30 22h3M26 23h1M28 23h2M33 23h4M24 24h2M27 24h1M37 24h1M23 25h1M36 25h1M22 26h1M37 26h2M21 27h1M39 27h1M21 28h1M40 28h1M42 28h3M21 29h1M41 29h1M45 29h1M20 30h1M46 30h1M20 31h1M46 31h1M20 32h1M46 32h1M20 33h1M25 33h1M45 33h1M46 34h1M19 35h1M46 35h1M46 36h1M19 38h1M22 38h1M26 38h2M29 38h1M44 38h1M23 39h1M28 39h1M44 39h1M25 40h1M28 40h1M43 40h1M25 41h1M29 41h1M42 41h1M22 42h1M24 42h1M30 42h1M42 42h1M23 43h1M31 43h1M43 43h1M30 44h1M35 44h3M43 44h1M30 45h1M34 45h1M44 45h1M29 46h1M34 46h1M39 46h1M45 46h1M28 47h2M34 47h1M39 47h1M45 47h1M27 48h1M33 48h1M39 48h1M46 48h1M28 49h5M40 49h1M45 49h1M40 50h1M46 50h1M40 51h1M46 51h1M41 52h5" />
<path stroke="#5a5a5a" d="M30 23h2M28 24h2M24 25h2M28 25h2M24 26h6M32 26h4M24 27h1M26 27h4M35 27h1M22 28h5M22 29h4M21 30h4M21 31h3M21 32h2M24 32h2M21 33h1M24 33h1" />
<path stroke="#5a595a" d="M32 23h1M26 24h1M34 24h3M26 25h1M30 26h2M22 27h1M29 30h1" />
<path stroke="#5a585a" d="M30 24h2M33 24h1M30 25h1M32 25h2M22 34h2M22 35h1" />
<path stroke="#414041" d="M32 24h1M31 25h1M23 35h1" />
<path stroke="#444344" d="M27 25h1M23 26h1M23 27h1" />
<path stroke="#424142" d="M34 25h2M40 30h1M43 30h1M30 31h1M43 31h1M38 32h1M42 32h1M38 33h1M28 34h1M29 35h1M32 35h1M41 35h1M40 36h1M40 46h3M30 47h1" />
<path stroke="#575557" d="M36 26h1M36 27h2" />
<path stroke="#949494" d="M25 27h1M41 30h2M44 30h2M40 31h3M44 31h2M40 32h2M43 32h1M41 33h3M31 38h2M31 39h3M32 40h2M43 46h1M42 47h2" />
<path stroke="#313031" d="M30 27h2M28 30h1M32 30h1M32 31h1M26 32h1M38 34h1M39 35h1M28 36h1M30 36h1M32 36h3M39 36h1M29 37h3M35 37h1M39 37h1M36 38h1M37 39h1M35 40h2M38 40h2M34 41h1M40 41h2M31 42h5M39 42h1M36 43h3" />
<path stroke="#ffffff" d="M32 27h3M27 28h1M30 28h2M33 28h3M26 29h2M31 29h1M34 29h2M25 30h1M24 31h2M23 32h1M22 33h2M30 33h2M21 34h1M29 34h2M20 35h1M20 36h2M42 36h1M42 37h1" />
<path stroke="#524a52" d="M38 27h1M38 28h2M38 29h2M34 30h2M34 31h2M28 32h2M28 33h2M33 38h2M34 39h2M29 40h1M40 42h2M40 43h3M40 44h2M40 45h2" />
<path stroke="#f7f7f7" d="M28 28h1M26 30h1M19 36h1" />
<path stroke="#292829" d="M29 28h1M28 29h1" />
<path stroke="#393839" d="M32 28h1M32 29h2M36 34h1M37 35h1M36 36h1M37 37h1" />
<path stroke="#f7ffff" d="M36 28h1" />
<path stroke="#524d52" d="M37 28h1M20 37h1M39 39h1M42 44h1M42 45h1" />
<path stroke="#6d6d6d" d="M29 29h1" />
<path stroke="#949394" d="M30 29h1M37 34h1M36 35h1" />
<path stroke="#c0c3c5" d="M36 29h2" />
<path stroke="#414241" d="M40 29h1M42 29h1M42 35h2M23 38h1M32 48h1M41 50h5M42 51h1M44 51h1" />
<path stroke="#949694" d="M43 29h2M44 32h2M44 33h1M38 35h1M34 37h1M34 40h1M44 46h1M41 51h1M43 51h1M45 51h1" />
<path stroke="#686768" d="M27 30h1M26 31h1" />
<path stroke="#949294" d="M30 30h1M39 32h1M37 36h1M32 37h1M41 47h1" />
<path stroke="#5d5c5d" d="M31 30h1M31 31h1" />
<path stroke="#bdcfce" d="M33 30h1M37 30h2M33 31h1M37 31h2M35 32h1M33 33h1M35 33h1M32 34h2M33 35h1M22 36h1M40 38h4M42 39h1M42 40h1M34 43h2M33 44h2M38 44h1M39 45h1" />
<path stroke="#524952" d="M36 30h1M36 31h1M34 32h1M34 33h1M27 34h1M26 35h2M31 36h1M41 36h1M43 36h1M40 37h2M43 37h1M40 39h2M43 39h1M40 40h2M31 41h1M32 43h2" />
<path stroke="#49454a" d="M39 30h1M39 31h1" />
<path stroke="#212021" d="M27 31h1" />
<path stroke="#4c4b4c" d="M28 31h2" />
<path stroke="#ff5994" d="M27 32h1M26 33h2M26 34h1" />
<path stroke="#423c42" d="M30 32h2" />
<path stroke="#49474a" d="M32 32h2M32 33h1M23 36h1M22 37h2" />
<path stroke="#bdcbce" d="M36 32h1M36 33h1M20 38h1" />
<path stroke="#5a5b60" d="M37 32h1" />
<path stroke="#292429" d="M37 33h1" />
<path stroke="#787778" d="M39 33h1M40 47h1" />
<path stroke="#737273" d="M40 33h1M29 36h1M28 37h1M30 38h1M30 39h1M37 40h1M32 41h2M36 41h4M36 42h2" />
<path stroke="#101410" d="M20 34h1" />
<path stroke="#f7619c" d="M24 34h1" />
<path stroke="#082821" d="M25 34h1" />
<path stroke="#393c39" d="M31 34h1M30 35h1" />
<path stroke="#575758" d="M34 34h2" />
<path stroke="#737473" d="M39 34h1M42 34h2M35 36h1M35 38h1M35 41h1" />
<path stroke="#737373" d="M40 34h2M44 34h2M40 35h1M44 35h2M28 38h1M29 39h1M30 40h2M30 41h1M30 46h4M31 47h3M28 48h2M42 48h2M42 49h2" />
<path stroke="#5f625f" d="M21 35h1" />
<path stroke="#573b4a" d="M24 35h2" />
<path stroke="#c0bfc0" d="M28 35h1" />
<path stroke="#bdbebd" d="M31 35h1" />
<path stroke="#b5c7c6" d="M34 35h1M27 36h1" />
<path stroke="#292021" d="M35 35h1" />
<path stroke="#101010" d="M18 36h1M18 37h1" />
<path stroke="#5a2839" d="M24 36h1" />
<path stroke="#fff7ff" d="M25 36h1M24 37h1" />
<path stroke="#474a47" d="M26 36h1M26 37h1" />
<path stroke="#474547" d="M38 36h1" />
<path stroke="#444244" d="M44 36h1M44 37h1" />
<path stroke="#707070" d="M45 36h1" />
<path stroke="#5d5d5d" d="M19 37h1" />
<path stroke="#c5c3c5" d="M21 37h1" />
<path stroke="#916d7b" d="M25 37h1" />
<path stroke="#100c08" d="M27 37h1" />
<path stroke="#525052" d="M33 37h1M36 39h1M39 43h1" />
<path stroke="#757475" d="M36 37h1" />
<path stroke="#737173" d="M38 37h1M37 38h1M38 42h1" />
<path stroke="#181418" d="M45 37h1M20 39h2M22 40h1M22 41h1M38 45h1" />
<path stroke="#4f5154" d="M21 38h1" />
<path stroke="#ac5678" d="M24 38h1" />
<path stroke="#5a3744" d="M25 38h1" />
<path stroke="#313131" d="M38 38h1M38 39h1" />
<path stroke="#413f41" d="M39 38h1" />
<path stroke="#ff75ad" d="M24 39h1M23 41h1" />
<path stroke="#081810" d="M25 39h1" />
<path stroke="#b2547b" d="M23 40h1" />
<path stroke="#ff79ad" d="M24 40h1M24 41h1M23 42h1" />
<path stroke="#444444" d="M31 44h1M31 48h1" />
<path stroke="#4a454a" d="M32 44h1M32 45h2" />
<path stroke="#4f5254" d="M39 44h1" />
<path stroke="#707170" d="M31 45h1M30 48h1" />
<path stroke="#3e3b3e" d="M43 45h1" />
<path stroke="#6a6c6a" d="M44 47h1" />
<path stroke="#737573" d="M40 48h2M44 48h2" />
<path stroke="#545654" d="M41 49h1M44 49h1" />
</svg>