<svg xmlns="http://www.w3.org/2000/svg" viewBox="0 -0.5 68 56" shape-rendering="crispEdges">
<metadata>Made with Pixels to Svg https://codepen.io/shshaw/pen/XbxvNj</metadata>
<path stroke="#000000" d="M31 32h2M30 33h1M32 33h1M30 34h1M32 34h1M42 34h2M29 35h1M32 35h1M38 35h4M44 35h1M29 36h1M32 36h1M36 36h2M45 36h1M29 37h1M32 37h2M35 37h1M45 37h1M28 38h1M34 38h1M44 38h1M27 39h1M43 39h1M26 40h1M42 40h1M26 41h1M33 41h1M41 41h1M26 42h1M38 42h1M42 42h1M26 43h1M37 43h1M39 43h1M42 43h1M27 44h1M38 44h1M41 44h1M40 45h1M39 46h1M40 47h1M39 48h1M38 49h1M29 50h3M37 50h1M32 51h3M36 51h1M35 52h1" />
<path stroke="#414141" d="M31 33h1M31 34h1M38 36h3M38 37h2M38 38h1M37 39h1M37 40h1M27 41h1M37 41h1M33 42h1M37 42h1M21 45h2M25 45h2M28 45h1M38 45h1M20 46h1M23 46h2M27 46h1M38 46h1M19 47h1M28 47h1M32 47h1M35 47h1M38 47h1M19 48h1M28 48h1M33 48h2M38 48h1M19 49h1M28 49h1M37 49h1M20 50h1M27 50h1M21 51h1M26 51h1M22 52h1M25 52h1M23 53h2" />
<path stroke="#c5a429" d="M30 35h2M43 35h1M30 36h1M42 36h3M31 37h1M41 37h4M29 38h1M39 38h5M38 39h5M32 40h1M38 40h4M31 41h1M38 41h3M39 42h3M40 43h2M28 44h1M39 44h2M29 45h2M29 46h4M30 47h2M30 48h3M30 49h3" />
<path stroke="#ffd529" d="M42 35h1M41 36h1M36 37h2M40 37h1M30 38h4M35 38h3M28 39h6M35 39h2M28 40h4M33 40h3M28 41h3M34 41h3M27 42h1M29 42h3M34 42h3M27 43h6M35 43h2M29 44h4M35 44h2M32 45h6M34 46h3M33 47h2M36 47h2M35 48h3M33 49h4M33 50h4M35 51h1" />
<path stroke="#9c8341" d="M31 36h1M34 39h1M36 40h1M28 42h1" />
<path stroke="#735229" d="M30 37h1M33 46h1" />
<path stroke="#ffffff" d="M27 40h1M32 41h1M21 44h2M25 44h2M20 45h1M23 45h2M27 45h1M19 46h1M28 46h1M18 47h1M21 47h1M29 47h1M18 48h1M29 48h1M18 49h1M29 49h1M19 50h1M28 50h1M20 51h1M27 51h1M21 52h1M26 52h1M22 53h1M25 53h1M23 54h2" />
<path stroke="#945a18" d="M32 42h1" />
<path stroke="#f66252" d="M33 43h2M33 44h2" />
<path stroke="#b47329" d="M37 44h1M37 46h1" />
<path stroke="#debd62" d="M31 45h1" />
<path stroke="#a46a31" d="M39 45h1M39 47h1" />
<path stroke="#f67ba4" d="M21 46h2M25 46h2M20 47h1M23 47h2M27 47h1M20 48h1M27 48h1M20 49h1M27 49h1M21 50h1M26 50h1M22 51h4M23 52h2" />
<path stroke="#ffc5ee" d="M22 47h1M25 47h2M21 48h6M21 49h6M22 50h4" />
<path stroke="#a47310" d="M32 50h1" />
</svg>