<svg xmlns="http://www.w3.org/2000/svg" viewBox="0 -0.5 68 56" shape-rendering="crispEdges">
<metadata>Made with Pixels to Svg https://codepen.io/shshaw/pen/XbxvNj</metadata>
<path stroke="#000000" d="M26 35h2M25 36h1M28 36h1M33 36h2M25 37h1M29 37h1M32 37h1M35 37h1M38 37h2M25 38h1M29 38h1M32 38h1M37 38h1M40 38h1M25 39h1M30 39h1M32 39h1M36 39h1M40 39h1M22 40h2M30 40h2M40 40h1M21 41h1M24 41h1M40 41h1M42 41h2M21 42h1M44 42h1M44 43h1M22 44h1M44 44h1M23 45h1M45 45h1M23 46h1M46 46h1M22 47h1M46 47h1M22 48h1M46 48h1M22 49h1M45 49h1M22 50h1M43 50h2M23 51h1M42 51h1M24 52h1M40 52h2M25 53h3M37 53h3M28 54h9" />
<path stroke="#ef5a9c" d="M26 36h2M26 37h2M38 38h2M38 39h2" />
<path stroke="#ce2c73" d="M28 37h1M33 37h1M38 42h2M38 43h1M37 44h2M42 44h2M42 45h1M30 46h3M31 47h1" />
<path stroke="#ef599c" d="M34 37h1M27 38h2M33 38h1M27 39h3M33 39h1M37 39h1M37 40h2M22 41h2M36 41h2M36 42h2M42 42h2M36 43h1M42 43h1M23 44h1M30 44h1M30 45h1" />
<path stroke="#ca2c73" d="M26 38h1M26 39h1M39 40h1M38 41h2M37 43h1M43 43h1M31 44h1M31 45h1" />
<path stroke="#f7559c" d="M34 38h1M34 39h1M23 42h1M23 43h1" />
<path stroke="#080000" d="M35 38h1M26 40h1M26 41h1M22 43h1" />
<path stroke="#a73868" d="M35 39h1M22 42h1" />
<path stroke="#ff55a5" d="M27 40h1" />
<path stroke="#f74994" d="M28 40h1M32 44h1M41 44h1M29 50h1" />
<path stroke="#ba4478" d="M29 40h1M32 45h1M41 45h1" />
<path stroke="#424142" d="M32 40h3M36 40h1M35 41h1M26 42h2M35 42h1M35 43h1M39 43h1M24 44h1M29 44h1M29 45h1M43 45h1M29 46h1M33 46h1M41 46h1M30 47h1M32 47h2M31 48h2M43 48h1M42 49h2M40 50h3M24 51h1M37 51h5M25 52h1M28 52h10M28 53h9" />
<path stroke="#52524a" d="M35 40h1M34 41h1M34 42h1M34 43h1M25 44h1M34 44h2M24 45h2M34 45h2M24 46h5M34 46h7M24 47h6M34 47h8M23 48h1M26 48h5M33 48h10M23 49h1M26 49h16M30 50h10M30 51h7" />
<path stroke="#ac386e" d="M27 41h1" />
<path stroke="#423c42" d="M28 41h2M33 44h1M40 44h1M33 45h1M40 45h1" />
<path stroke="#67615e" d="M30 41h2" />
<path stroke="#55514f" d="M32 41h1M26 43h1M28 45h1" />
<path stroke="#68615d" d="M33 41h1M27 43h1M28 44h1" />
<path stroke="#ff59a5" d="M24 42h1" />
<path stroke="#000c08" d="M25 42h1" />
<path stroke="#686160" d="M28 42h2M29 43h1M26 44h1" />
<path stroke="#735160" d="M30 42h1" />
<path stroke="#394942" d="M31 42h1M30 43h1" />
<path stroke="#63615a" d="M32 42h1" />
<path stroke="#52504c" d="M33 42h1M33 43h1" />
<path stroke="#4f2f3c" d="M40 42h1M40 43h1" />
<path stroke="#001408" d="M41 42h1" />
<path stroke="#aa3f70" d="M24 43h1" />
<path stroke="#55253c" d="M25 43h1" />
<path stroke="#52514a" d="M28 43h1M27 44h1M26 45h2M24 48h2M24 49h1M27 50h1M26 51h2" />
<path stroke="#e7619c" d="M31 43h1" />
<path stroke="#41403e" d="M32 43h1" />
<path stroke="#ef65a5" d="M41 43h1" />
<path stroke="#4a4747" d="M36 44h1M39 44h1M36 45h4" />
<path stroke="#ffffff" d="M44 45h1M44 46h2M44 47h2" />
<path stroke="#4c4d47" d="M42 46h1M42 47h2" />
<path stroke="#c6c7c6" d="M43 46h1M44 48h2M25 49h1M44 49h1M24 50h3M25 51h1M26 52h1" />
<path stroke="#52534a" d="M23 47h1M23 50h1" />
<path stroke="#524d4a" d="M28 50h1M28 51h1" />
<path stroke="#c04a7b" d="M29 51h1" />
<path stroke="#424242" d="M27 52h1" />
<path stroke="#424042" d="M38 52h2" />
</svg>