<svg xmlns="http://www.w3.org/2000/svg" viewBox="0 -0.5 68 56" shape-rendering="crispEdges">
<metadata>Made with Pixels to Svg https://codepen.io/shshaw/pen/XbxvNj</metadata>
<path stroke="#000000" d="M31 33h1M23 34h2M32 34h1M45 34h3M23 35h1M25 35h2M29 35h1M33 35h1M39 35h2M43 35h2M48 35h1M23 36h1M28 36h1M34 36h2M40 36h1M43 36h1M24 37h1M36 37h2M40 37h1M42 37h1M22 38h2M42 38h1M49 38h1M22 39h1M41 39h1M49 39h1M22 40h1M41 40h1M48 40h1M23 41h1M40 41h1M47 41h1M44 42h3M42 43h2M22 44h1M24 44h1M22 45h1M42 45h1M21 46h1M42 46h1M22 47h1M42 47h1M23 48h1M23 49h1M40 49h1M22 50h1M24 50h2M37 50h2M40 50h1M22 51h2M26 51h2M35 51h2M39 51h2M28 52h3M34 52h1M31 53h1M32 54h1" />
<path stroke="#100000" d="M30 34h1" />
<path stroke="#528e8c" d="M31 34h1" />
<path stroke="#257b77" d="M24 35h1M24 36h2M25 37h1M36 42h1M36 43h1" />
<path stroke="#314746" d="M30 35h2" />
<path stroke="#424142" d="M32 35h1M36 39h2M25 40h1M28 40h2M35 40h1M37 40h1M28 41h1M30 41h1M34 41h1M37 41h1M26 45h1M30 47h2" />
<path stroke="#429294" d="M45 35h3M44 36h2M43 37h2M43 38h1M42 39h2M42 40h1M41 41h1M37 42h1M37 43h1M38 44h2M38 45h1M36 46h2M30 48h3" />
<path stroke="#397876" d="M26 36h1" />
<path stroke="#080408" d="M27 36h1" />
<path stroke="#5aaea5" d="M29 36h1M28 37h2M34 37h2M23 39h1M23 40h2M30 40h2M34 40h1M36 40h1M24 41h2M29 41h1M31 41h1M35 41h2M24 42h2M29 42h3M25 43h1M28 43h3M26 44h4M27 45h2" />
<path stroke="#5aaea7" d="M30 36h4M30 37h4M26 38h10M26 39h10M26 40h2M32 40h2M26 41h2M32 41h2M26 42h2M32 42h4M26 43h2M32 43h4M34 44h3M34 45h2M34 46h1" />
<path stroke="#000808" d="M38 36h1M39 40h1M22 42h1M22 43h1" />
<path stroke="#429a94" d="M39 36h1M38 37h1M38 40h1M38 41h1" />
<path stroke="#bdcb63" d="M46 36h2" />
<path stroke="#6e8c60" d="M48 36h1" />
<path stroke="#000008" d="M49 36h1M49 37h1M40 47h2M33 53h1" />
<path stroke="#203e3f" d="M26 37h1" />
<path stroke="#52b2ad" d="M27 37h1M36 38h1M33 46h1" />
<path stroke="#2c6965" d="M39 37h1M39 41h1" />
<path stroke="#c0cd6d" d="M45 37h1M43 40h1M42 41h2M36 47h2M35 49h1" />
<path stroke="#739e63" d="M46 37h1" />
<path stroke="#297163" d="M47 37h1" />
<path stroke="#a5d38c" d="M48 37h1" />
<path stroke="#180408" d="M24 38h1" />
<path stroke="#313e3f" d="M25 38h1M24 39h1" />
<path stroke="#4c8c89" d="M37 38h1" />
<path stroke="#429e9c" d="M38 38h1" />
<path stroke="#000400" d="M39 38h1M39 39h1" />
<path stroke="#c0ce6d" d="M44 38h2M44 39h2M44 40h2M44 41h2M28 50h2M28 51h2" />
<path stroke="#217d73" d="M46 38h1M47 39h1" />
<path stroke="#bdcf6b" d="M47 38h2M46 39h1M48 39h1M46 41h1M42 42h2M26 50h2M35 50h2M34 51h1M31 52h1" />
<path stroke="#63b2ad" d="M25 39h1" />
<path stroke="#2c6a68" d="M38 39h1" />
<path stroke="#7e8a47" d="M46 40h2M34 50h1" />
<path stroke="#525a5a" d="M23 42h1" />
<path stroke="#237a73" d="M28 42h1M24 43h1M31 43h1M29 45h1" />
<path stroke="#419191" d="M38 42h2M38 43h2M37 44h1M36 45h2M35 46h1M34 47h2" />
<path stroke="#424139" d="M40 42h1M40 43h1" />
<path stroke="#bdcf63" d="M41 42h1" />
<path stroke="#f7ffff" d="M23 43h1M31 44h1M31 45h1" />
<path stroke="#7f884e" d="M41 43h1" />
<path stroke="#f7fbf7" d="M23 44h1" />
<path stroke="#94aaaa" d="M25 44h1" />
<path stroke="#525f5f" d="M30 44h1" />
<path stroke="#417873" d="M32 44h1" />
<path stroke="#52aea5" d="M33 44h1M33 45h1" />
<path stroke="#3f4331" d="M40 44h1M41 45h1" />
<path stroke="#000010" d="M41 44h1" />
<path stroke="#525352" d="M23 45h1" />
<path stroke="#deffff" d="M24 45h1" />
<path stroke="#4a5555" d="M25 45h1" />
<path stroke="#001010" d="M30 45h1" />
<path stroke="#314241" d="M32 45h1" />
<path stroke="#7e8741" d="M39 45h1" />
<path stroke="#7e8752" d="M40 45h1" />
<path stroke="#427f63" d="M22 46h2M23 47h1" />
<path stroke="#4a3842" d="M24 46h1M27 46h1" />
<path stroke="#ff5d94" d="M25 46h1" />
<path stroke="#f7699c" d="M26 46h1M27 47h1" />
<path stroke="#316963" d="M28 46h1M28 47h2" />
<path stroke="#ffffff" d="M29 46h3" />
<path stroke="#39454a" d="M32 46h1" />
<path stroke="#bdce6e" d="M38 46h2M38 47h1" />
<path stroke="#3f4329" d="M40 46h1" />
<path stroke="#7e874a" d="M41 46h1" />
<path stroke="#c25078" d="M24 47h2" />
<path stroke="#bd587e" d="M26 47h1" />
<path stroke="#498d8c" d="M32 47h2" />
<path stroke="#7b8642" d="M39 47h1" />
<path stroke="#424d39" d="M24 48h1M25 49h1" />
<path stroke="#ef8294" d="M25 48h1" />
<path stroke="#f76594" d="M26 48h1" />
<path stroke="#ba5778" d="M27 48h1" />
<path stroke="#29495a" d="M28 48h1" />
<path stroke="#6d8470" d="M29 48h1" />
<path stroke="#f7fb94" d="M33 48h3M30 49h5M30 50h2M39 50h1M31 51h1" />
<path stroke="#c0c36d" d="M36 48h1" />
<path stroke="#ffff9c" d="M37 48h2M38 49h1M32 51h1M32 52h1" />
<path stroke="#080800" d="M39 48h1" />
<path stroke="#7b5e57" d="M24 49h1" />
<path stroke="#423c42" d="M26 49h2" />
<path stroke="#f7fb9c" d="M28 49h2" />
<path stroke="#81883e" d="M36 49h2" />
<path stroke="#acac68" d="M39 49h1" />
<path stroke="#7e873c" d="M23 50h1M30 51h1" />
<path stroke="#c0c66d" d="M32 50h2" />
<path stroke="#818d3e" d="M33 51h1" />
<path stroke="#555539" d="M33 52h1" />
<path stroke="#aaaa6a" d="M32 53h1" />
</svg>