<svg xmlns="http://www.w3.org/2000/svg" viewBox="0 -0.5 68 56" shape-rendering="crispEdges">
<metadata>Made with Pixels to Svg https://codepen.io/shshaw/pen/XbxvNj</metadata>
<path stroke="#000400" d="M30 19h2M28 20h2M31 20h1M27 21h1M30 21h1M26 22h1M29 22h1M42 22h4M25 23h1M29 23h1M40 23h2M46 23h1M25 24h1M28 24h1M38 24h2M43 24h3M24 25h1M28 25h1M37 25h1M42 25h1M24 26h1M29 26h1M36 26h1M41 26h1M24 27h1M30 27h3M35 27h1M40 27h1M58 27h2M25 28h1M33 28h1M40 28h1M50 28h1M24 29h1M41 29h4M49 29h1M51 29h1M55 29h1M23 30h1M45 30h1M48 30h1M51 30h1M54 30h1M58 30h1M22 31h1M41 31h3M45 31h1M47 31h1M52 31h2M57 31h1M39 32h2M44 32h2M47 32h1M57 32h1M21 33h1M38 33h1M43 33h2M46 33h1M56 33h1M21 34h1M38 34h1M55 34h1M21 35h1M38 35h1M45 35h1M50 35h1M54 35h1M21 36h1M39 36h1M45 36h1M48 36h2M51 36h1M54 36h1M22 37h1M39 37h1M44 37h1M47 37h1M51 37h1M23 38h1M39 38h1M44 38h1M47 38h1M52 38h1M22 39h1M40 39h1M44 39h1M46 39h1M22 40h1M41 40h1M44 40h1M46 40h1M22 41h1M41 41h1M45 41h1M47 41h1M23 42h2M42 42h1M45 42h1M48 42h3M25 43h1M42 43h1M46 43h2M51 43h2M25 44h1M43 44h1M48 44h3M53 44h1M24 45h1M44 45h1M51 45h1M53 45h1M24 46h1M45 46h2M53 46h1M25 47h1M47 47h3M52 47h1M31 48h4M42 48h1M44 48h2M51 48h1M24 49h2M31 49h1M35 49h1M41 49h1M46 49h5M23 50h1M29 50h2M42 50h1M26 51h3M35 51h1M42 51h1M35 52h1M40 52h2" />
<path stroke="#5e494a" d="M30 20h1M28 21h2M27 22h2M26 23h3M25 25h1M25 26h1M25 27h1M23 39h1M23 40h1M23 41h1M26 50h2" />
<path stroke="#84625d" d="M42 23h4M38 25h2M37 26h1M36 27h2" />
<path stroke="#5f4a4a" d="M26 24h2M26 25h2" />
<path stroke="#84655a" d="M40 24h2M38 26h1M36 30h1M36 31h1" />
<path stroke="#f7db6b" d="M42 24h1M39 26h2M39 27h1M40 29h1M50 29h1M40 30h4M49 30h2M55 30h3M40 31h1M48 31h4M54 31h3M49 32h1M53 32h1M48 33h1M52 33h2M49 34h3M54 34h1M48 35h1M51 35h1" />
<path stroke="#bda05e" d="M40 25h1M37 31h1" />
<path stroke="#f7db63" d="M41 25h1M37 30h1" />
<path stroke="#5e4b4a" d="M26 26h2M26 27h1" />
<path stroke="#424042" d="M28 26h1M28 27h2M44 46h1M44 47h3M28 50h1" />
<path stroke="#424142" d="M27 27h1M26 28h1M33 30h1M33 31h1M52 32h1M30 33h2M36 33h2M29 34h1M32 34h1M24 35h1M29 35h1M32 35h1M30 36h2M24 38h1M27 38h1M25 39h2M26 41h1M32 41h2M31 42h1M31 43h1M36 43h1M27 44h1M32 44h4M27 45h1M35 45h1M34 46h1M30 47h1M34 47h1M38 50h1M39 51h1" />
<path stroke="#bda062" d="M38 27h1" />
<path stroke="#ffcf42" d="M27 28h1M25 29h3M30 29h1M25 30h1M28 30h2" />
<path stroke="#ffce3f" d="M28 28h2M28 29h2M26 30h2M26 31h2" />
<path stroke="#e6b142" d="M30 28h2M31 29h1M24 30h1M24 31h2M28 31h2" />
<path stroke="#e7b242" d="M32 28h1M32 29h2M32 30h1M32 31h1M30 32h2M24 34h2M28 34h1M33 34h1M25 35h1M28 35h1M33 35h1M22 36h2M23 37h1M30 37h2M26 38h1M29 38h1M36 38h1M27 39h3M30 40h4M38 40h1M31 41h1M36 41h4M36 42h2M40 42h1M37 43h1M40 43h2M40 44h1M40 45h1M36 46h2M40 46h1M37 47h1" />
<path stroke="#000808" d="M34 28h1M25 41h1M36 50h1" />
<path stroke="#846563" d="M35 28h1M35 29h1M40 40h1" />
<path stroke="#83635e" d="M36 28h2M36 29h1" />
<path stroke="#f7da6b" d="M38 28h2M38 29h2M38 30h2M38 31h2M50 32h2M54 32h2M50 33h2M54 33h2M52 34h2M52 35h2" />
<path stroke="#000800" d="M56 28h2M59 28h1M59 29h1M24 51h2M36 53h4" />
<path stroke="#ffe373" d="M58 28h1M57 29h1M47 34h1" />
<path stroke="#423635" d="M34 29h1" />
<path stroke="#bda252" d="M37 29h1M56 32h1M47 33h1M46 36h2M45 37h2M45 38h2M45 39h1M45 40h1M46 41h1" />
<path stroke="#aa9a4c" d="M56 29h1M58 29h1" />
<path stroke="#e7b13f" d="M30 30h2M30 31h2M24 32h6M32 32h2M24 33h6M32 33h2M26 34h2M34 34h4M26 35h2M34 35h4M24 36h6M36 36h2M24 37h6M36 37h2M30 38h2M30 39h2M38 42h2M38 43h2M36 44h4M36 45h4M38 46h2M38 47h2" />
<path stroke="#83645f" d="M34 30h2M34 31h2M32 42h2M32 43h2" />
<path stroke="#9f9042" d="M44 30h1" />
<path stroke="#ffffff" d="M23 31h1" />
<path stroke="#efd763" d="M44 31h1" />
<path stroke="#000818" d="M22 32h1" />
<path stroke="#4d4028" d="M23 32h1M22 33h1" />
<path stroke="#42414a" d="M34 32h1M35 33h1" />
<path stroke="#79664a" d="M35 32h1" />
<path stroke="#84635e" d="M36 32h2" />
<path stroke="#7f635e" d="M38 32h1" />
<path stroke="#bda24f" d="M48 32h1M49 33h1M48 34h1M49 35h1" />
<path stroke="#e7b24a" d="M23 33h1M34 33h1" />
<path stroke="#cda55f" d="M22 34h1M22 35h1" />
<path stroke="#ffffef" d="M23 34h1" />
<path stroke="#fff7f7" d="M30 34h1" />
<path stroke="#423839" d="M31 34h1M30 35h1M37 50h1M37 51h1" />
<path stroke="#080800" d="M46 34h1M53 37h1" />
<path stroke="#b57918" d="M23 35h1" />
<path stroke="#817778" d="M31 35h1" />
<path stroke="#ac9a4c" d="M46 35h2" />
<path stroke="#e6b042" d="M32 36h1M35 36h1M32 39h1M35 39h1" />
<path stroke="#ffef84" d="M33 36h2M32 37h4M32 38h4M33 39h2" />
<path stroke="#bd9242" d="M38 36h1M38 37h1M25 45h1M25 46h1M30 48h1M35 48h1M40 48h2M30 49h1M40 49h1" />
<path stroke="#ffdf6b" d="M52 36h1M52 37h1" />
<path stroke="#ac9747" d="M53 36h1" />
<path stroke="#efb242" d="M25 38h1M34 41h2" />
<path stroke="#5d4b4c" d="M28 38h1M39 40h1" />
<path stroke="#c19142" d="M37 38h1M36 39h2M36 40h2M41 42h1M41 46h1M36 47h1M40 47h2" />
<path stroke="#ce9e42" d="M38 38h1M38 39h2" />
<path stroke="#b58c42" d="M24 39h1" />
<path stroke="#634d52" d="M24 40h1M24 41h1" />
<path stroke="#423639" d="M25 40h1" />
<path stroke="#f7f7de" d="M26 40h2M27 41h3M30 42h1M30 43h1M30 44h2M30 45h1" />
<path stroke="#efc342" d="M28 40h2" />
<path stroke="#4a4142" d="M34 40h1" />
<path stroke="#b88c42" d="M35 40h1" />
<path stroke="#f3d442" d="M30 41h1" />
<path stroke="#584442" d="M40 41h1" />
<path stroke="#000000" d="M26 42h1" />
<path stroke="#f7f3d6" d="M27 42h1M27 43h1" />
<path stroke="#f7f7db" d="M28 42h2M28 43h2M28 44h2M28 45h2" />
<path stroke="#a57849" d="M34 42h1" />
<path stroke="#e7ae39" d="M35 42h1M35 43h1" />
<path stroke="#363f47" d="M46 42h1M52 44h1" />
<path stroke="#525d6b" d="M47 42h1M52 45h1" />
<path stroke="#525147" d="M26 43h1" />
<path stroke="#845d52" d="M34 43h1" />
<path stroke="#4e596b" d="M48 43h3M51 44h1M52 46h1M46 48h5" />
<path stroke="#c09142" d="M26 44h1M26 45h1M35 46h1M35 47h1" />
<path stroke="#63494a" d="M41 44h1M40 51h1" />
<path stroke="#7b6563" d="M42 44h1" />
<path stroke="#ceba8c" d="M31 45h4M30 46h2M31 47h1" />
<path stroke="#bb8f44" d="M41 45h1" />
<path stroke="#524442" d="M42 45h2" />
<path stroke="#c0923f" d="M26 46h2M26 47h2M36 48h4M36 49h4" />
<path stroke="#424139" d="M28 46h1M29 47h1" />
<path stroke="#deba73" d="M29 46h1" />
<path stroke="#cebc8c" d="M32 46h2M32 47h2" />
<path stroke="#c6964a" d="M42 46h1" />
<path stroke="#423a28" d="M43 46h1M42 47h1" />
<path stroke="#080400" d="M50 46h1" />
<path stroke="#3e3f42" d="M51 46h1M50 47h1" />
<path stroke="#aa915f" d="M28 47h1" />
<path stroke="#000c18" d="M43 47h1" />
<path stroke="#5a5d63" d="M51 47h1" />
<path stroke="#000810" d="M26 48h1" />
<path stroke="#9a7152" d="M27 48h1" />
<path stroke="#9f7042" d="M28 48h2" />
<path stroke="#4d3c31" d="M26 49h2" />
<path stroke="#c39342" d="M28 49h2" />
<path stroke="#635152" d="M24 50h1M36 51h1M36 52h1M38 52h1" />
<path stroke="#423836" d="M25 50h1M37 52h1M39 52h1" />
<path stroke="#9c6d42" d="M39 50h1" />
<path stroke="#9f6f3e" d="M40 50h2M41 51h1" />
<path stroke="#604f42" d="M38 51h1" />
</svg>