<svg xmlns="http://www.w3.org/2000/svg" viewBox="0 -0.5 68 56" shape-rendering="crispEdges">
<metadata>Made with Pixels to Svg https://codepen.io/shshaw/pen/XbxvNj</metadata>
<path stroke="#000000" d="M31 24h5M29 25h2M36 25h2M17 26h2M27 26h2M38 26h2M16 27h1M19 27h2M26 27h1M40 27h1M15 28h1M21 28h1M25 28h1M41 28h1M15 29h1M21 29h1M24 29h1M41 29h1M15 30h1M22 30h1M24 30h1M42 30h1M16 31h1M22 31h2M42 31h1M16 32h1M21 32h1M23 32h1M43 32h1M17 33h1M21 33h1M23 33h1M43 33h1M18 34h1M43 34h1M19 35h2M43 35h1M21 36h2M44 36h2M23 37h1M46 37h2M24 38h1M43 38h2M48 38h1M24 39h1M42 39h1M45 39h1M49 39h1M25 40h1M41 40h1M45 40h1M50 40h1M26 41h1M40 41h1M44 41h1M50 41h1M27 42h1M39 42h1M44 42h1M51 42h1M26 43h1M39 43h1M45 43h1M51 43h1M25 44h1M40 44h1M45 44h1M51 44h1M25 45h1M41 45h1M46 45h2M50 45h1M24 46h1M41 46h1M48 46h2M24 47h1M42 47h1M25 48h1M42 48h1M25 49h1M42 49h1M26 50h1M41 50h1M27 51h1M40 51h1M28 52h1M38 52h2M29 53h1M36 53h2M30 54h1M35 54h1M31 55h4" />
<path stroke="#ffe739" d="M31 25h5M29 26h3M36 26h2M17 27h2M27 27h3M37 27h3M20 28h1M26 28h2M40 28h1M20 29h1M25 29h2M40 29h1M16 30h2M19 30h1M25 30h1M40 30h2M17 31h1M24 31h2M30 31h1M41 31h1M17 32h2M24 32h1M29 32h2M42 32h1M18 33h2M24 33h1M31 33h1M42 33h1M19 34h3M24 34h1M34 34h4M42 34h1M21 35h1M24 35h1M37 35h1M42 35h1M24 36h1M24 37h2M44 37h2M25 38h1M41 38h1M45 38h1M25 39h1M40 39h2M48 39h1M26 40h2M39 40h2M48 40h2M27 41h1M38 41h2M45 41h2M49 41h1M28 42h3M38 42h1M45 42h1M49 42h2M27 43h2M35 43h1M38 43h1M48 43h3M26 44h2M38 44h2M46 44h2M50 44h1M26 45h1M39 45h2M25 46h2M40 46h1M25 47h2M40 47h2M26 48h1M26 49h2M27 50h2M39 50h2M28 51h2M38 51h2M30 52h1M35 52h3M30 53h2M34 53h2M31 54h4" />
<path stroke="#424142" d="M32 26h3M30 27h2M35 27h2M28 28h2M37 28h2M27 29h1M32 29h3M39 29h1M26 30h1M30 30h2M35 30h1M39 30h1M26 31h1M29 31h1M31 31h1M40 31h1M25 32h1M28 32h1M31 32h1M40 32h1M25 33h1M28 33h3M32 33h1M35 33h1M38 33h1M41 33h1M25 34h1M27 34h1M32 34h2M38 34h1M41 34h1M25 35h1M27 35h1M33 35h4M38 35h1M41 35h1M25 36h1M28 36h2M33 36h1M37 36h2M41 36h1M26 37h1M28 37h1M30 37h4M38 37h1M40 37h1M26 38h1M29 38h1M34 38h1M40 38h1M27 39h1M34 39h2M39 39h1M28 40h1M32 40h2M38 40h1M29 41h2M36 41h2M31 42h1M34 42h2M29 43h3M34 43h1M36 44h2M27 45h1M38 45h1M27 46h1M39 46h1M27 47h1M39 47h1M27 48h1M39 48h1M39 49h1M29 50h1M38 50h1M30 51h2M35 51h3M31 52h1M34 52h1M32 53h2" />
<path stroke="#ffb642" d="M35 26h1M34 27h1M39 28h1M38 29h1M41 32h1M40 33h1M40 36h1M41 37h1M27 38h1M26 39h1M29 40h1M28 41h1" />
<path stroke="#ff8642" d="M32 27h2M32 28h5M28 29h2M35 29h3M27 30h3M38 30h1M27 31h2M38 31h2M38 32h2M39 33h1M26 34h1M39 34h2M26 35h1M32 35h1M39 35h2M26 36h2M30 36h2M39 36h1M27 37h1M39 37h1M28 38h1M38 38h2M28 39h2M38 39h1M30 40h2M35 40h3M31 41h5M32 42h1M32 43h1M30 44h1M32 44h1M30 45h4M36 46h2M37 47h1M30 48h1" />
<path stroke="#ffe63c" d="M16 28h4M16 29h4M20 30h2M20 31h2M42 36h2M42 37h2M32 38h2M46 38h2M32 39h2M46 39h2M36 42h2M46 42h2M36 43h2M46 43h2M48 44h2M48 45h2M40 48h2M40 49h2" />
<path stroke="#ff873f" d="M30 28h2M30 29h2M26 32h2M26 33h2M30 46h2M30 47h2" />
<path stroke="#f79e18" d="M18 30h1M18 31h2M19 32h1M46 40h2M47 41h2M48 42h1" />
<path stroke="#736b52" d="M32 30h3M32 31h4M32 32h4M33 33h2M28 34h2M28 35h2M23 36h1M34 36h3M29 37h1M34 37h4M35 38h1M42 38h1M29 52h1" />
<path stroke="#42454a" d="M36 30h1M37 31h1M31 34h1M30 35h1M37 38h1M36 39h1" />
<path stroke="#ff8e42" d="M37 30h1M31 35h1M37 39h1" />
<path stroke="#815d47" d="M36 31h1M30 34h1M36 38h1" />
<path stroke="#ffc329" d="M20 32h1M20 33h1" />
<path stroke="#817347" d="M36 32h1M30 38h1" />
<path stroke="#423c4a" d="M37 32h1M36 33h1M31 38h1M30 39h1" />
<path stroke="#ffe342" d="M37 33h1M31 39h1" />
<path stroke="#000010" d="M22 34h1" />
<path stroke="#7f712d" d="M23 34h1" />
<path stroke="#ffe34a" d="M22 35h2" />
<path stroke="#de5d39" d="M32 36h1M38 46h1M38 47h1M38 48h1M38 49h1M30 50h2M34 50h4M34 51h1M32 52h2" />
<path stroke="#db5c39" d="M34 40h1M33 42h1M33 43h1M31 44h1M33 44h1M36 47h1M31 48h1M30 49h2" />
<path stroke="#843818" d="M28 44h1" />
<path stroke="#ad795d" d="M29 44h1M29 45h1" />
<path stroke="#c26a3c" d="M34 44h1" />
<path stroke="#4a3c42" d="M35 44h1" />
<path stroke="#fffbe7" d="M28 45h1" />
<path stroke="#ff8239" d="M34 45h2" />
<path stroke="#ff7d39" d="M36 45h1" />
<path stroke="#c0693c" d="M37 45h1" />
<path stroke="#e1c6bd" d="M28 46h1" />
<path stroke="#d65d39" d="M29 46h1M29 47h1" />
<path stroke="#e76939" d="M32 46h2M32 47h1" />
<path stroke="#fffbff" d="M34 46h1M35 47h1" />
<path stroke="#fbc88b" d="M35 46h1" />
<path stroke="#e7fbff" d="M28 47h1" />
<path stroke="#ffffff" d="M33 47h1" />
<path stroke="#f79618" d="M34 47h1" />
<path stroke="#fff3e7" d="M28 48h1" />
<path stroke="#a76e57" d="M29 48h1M29 49h1" />
<path stroke="#e9d2b2" d="M32 48h1" />
<path stroke="#ef9a18" d="M33 48h1M33 49h1" />
<path stroke="#e77929" d="M34 48h1M35 49h1" />
<path stroke="#e7cdb7" d="M35 48h1" />
<path stroke="#dc5d39" d="M36 48h2M36 49h2" />
<path stroke="#7b2c10" d="M28 49h1" />
<path stroke="#e7efff" d="M32 49h1" />
<path stroke="#e7f7ff" d="M34 49h1" />
<path stroke="#eeb094" d="M32 50h1" />
<path stroke="#fffff7" d="M33 50h1" />
<path stroke="#de6131" d="M32 51h2" />
</svg>