<svg xmlns="http://www.w3.org/2000/svg" viewBox="0 -0.5 68 56" shape-rendering="crispEdges">
<metadata>Made with Pixels to Svg https://codepen.io/shshaw/pen/XbxvNj</metadata>
<path stroke="#000000" d="M27 17h2M26 18h1M37 18h2M25 19h1M30 19h2M34 19h3M39 19h1M25 20h1M32 20h2M39 20h1M24 21h1M38 21h1M24 22h1M38 22h1M24 23h1M37 23h1M24 24h1M37 24h1M25 25h1M36 25h1M25 26h1M36 26h1M25 27h1M36 27h1M26 28h1M35 28h1M27 29h1M35 29h1M28 30h2M36 30h2M23 31h2M38 31h1M17 32h2M21 32h1M25 32h1M31 32h1M38 32h1M16 33h1M19 33h2M25 33h1M31 33h1M39 33h2M46 33h2M17 34h2M26 34h1M29 34h2M41 34h1M44 34h2M48 34h2M19 35h1M27 35h2M42 35h2M50 35h1M21 36h1M50 36h1M21 37h1M29 37h1M49 37h1M18 38h3M24 38h1M27 38h2M30 38h1M49 38h1M17 39h1M22 39h2M25 39h2M29 39h1M50 39h1M16 40h1M19 40h3M29 40h1M17 41h2M28 41h1M50 41h1M27 42h1M51 42h1M27 43h1M52 43h1M27 44h1M51 44h1M28 45h1M50 45h1M29 46h1M48 46h2M27 47h2M36 47h2M47 47h1M26 48h1M31 48h1M34 48h2M38 48h1M45 48h2M27 49h4M39 49h2M43 49h2M41 50h2" />
<path stroke="#8be2a4" d="M27 18h1M26 19h2M37 19h2M26 20h1M28 20h4M34 20h5M25 21h2M28 21h3M32 21h6M25 22h1M27 22h2M31 22h3M25 23h1M27 23h1M29 23h4M25 24h2M28 24h2M26 25h3M26 26h4M26 27h1M28 27h2M27 28h1M24 32h1M34 32h1M21 33h1M24 33h1M32 33h4M21 34h1M23 34h1M32 34h5M46 34h2M21 35h1M25 35h2M32 35h6M44 35h3M30 36h10M43 36h3M31 37h3M38 37h2M42 37h2M32 38h1M34 38h1M36 38h2M40 38h2M30 39h2M33 39h1M35 39h2M38 39h4M31 40h3M35 40h1M37 40h1M42 40h1M37 41h1M42 41h4M38 42h3M44 42h4M50 42h1M38 43h3M50 43h2M38 44h4M47 44h1M50 44h1M38 45h4M46 45h4M40 46h1M44 46h2M47 46h1M29 47h1M44 47h3M30 48h1" />
<path stroke="#36483c" d="M28 18h1M29 19h1" />
<path stroke="#100008" d="M29 18h1" />
<path stroke="#5d9170" d="M28 19h1" />
<path stroke="#4f976d" d="M27 20h1M27 21h1M31 21h1M26 22h1M29 22h2M26 23h1M28 23h1M27 24h1M35 26h1M27 27h1M35 27h1M33 30h1M32 31h2M32 32h2M34 37h2M33 38h1M32 39h1M46 44h1M41 46h1M40 47h2" />
<path stroke="#83e2a4" d="M34 22h3M31 35h1M40 37h1M41 40h1M37 43h1M49 43h1M37 44h1M28 48h1M43 48h1M41 49h1" />
<path stroke="#57976d" d="M37 22h1M36 23h1M31 34h1M30 35h1M29 48h1M40 48h3M42 49h1" />
<path stroke="#414041" d="M33 23h1M32 24h1M29 25h1M35 30h1M35 31h1M35 32h1M38 33h1M37 34h1M39 34h1M38 35h2M47 35h1M22 36h2M25 36h3M40 36h3M23 37h2M30 37h1M36 37h2M44 37h2M35 38h1M38 38h2M42 38h2M34 39h1M42 39h1M43 40h3M40 41h2M46 41h2M36 42h2M41 42h3M48 42h1M41 43h1M44 43h5M42 44h2M32 45h1M42 45h1M34 46h5M42 46h1M39 47h1M43 47h1M44 48h1" />
<path stroke="#394041" d="M34 23h1" />
<path stroke="#5e9173" d="M35 23h1" />
<path stroke="#524a2b" d="M30 24h2" />
<path stroke="#f6e241" d="M33 24h1M32 25h2" />
<path stroke="#e65962" d="M34 24h1M34 25h1M33 28h1M28 29h5M31 42h5" />
<path stroke="#52956a" d="M35 24h2M35 25h1M17 33h2M19 34h1M29 35h1M28 36h2M49 36h1M28 37h1M48 37h1M21 38h3M25 38h2M18 39h4M48 39h2M17 40h2M30 42h1M30 43h6M28 44h2M29 45h1M27 48h1M39 48h1" />
<path stroke="#f6de52" d="M30 25h1" />
<path stroke="#000018" d="M31 25h1" />
<path stroke="#ee5d5a" d="M30 26h1M31 27h1" />
<path stroke="#c2c375" d="M31 26h1" />
<path stroke="#ffda52" d="M32 26h1" />
<path stroke="#cd6657" d="M33 26h1M32 27h1" />
<path stroke="#9c4041" d="M34 26h1M34 27h1M28 28h5M33 29h1M32 30h1M32 41h2" />
<path stroke="#acf683" d="M30 27h1" />
<path stroke="#b42c5a" d="M33 27h1" />
<path stroke="#776b56" d="M34 28h1M34 29h1" />
<path stroke="#de6d73" d="M30 30h2" />
<path stroke="#4e956a" d="M34 30h1M34 31h1M24 36h1M22 37h1M25 37h3M43 39h1M46 40h2M32 44h2M33 45h1M43 45h1" />
<path stroke="#002418" d="M30 31h1" />
<path stroke="#6f4845" d="M31 31h1" />
<path stroke="#f6da52" d="M36 31h1" />
<path stroke="#a49136" d="M37 31h1" />
<path stroke="#100000" d="M22 32h1" />
<path stroke="#94dea4" d="M23 32h1M23 33h1" />
<path stroke="#ffe252" d="M36 32h2" />
<path stroke="#526f52" d="M22 33h1" />
<path stroke="#4a4052" d="M36 33h1" />
<path stroke="#c2ac52" d="M37 33h1" />
<path stroke="#344b3c" d="M20 34h1" />
<path stroke="#5a6157" d="M22 34h1M22 35h2" />
<path stroke="#5a7962" d="M24 34h2" />
<path stroke="#3c694f" d="M38 34h1M45 38h1M47 39h1M29 42h1M29 43h1M42 43h2M45 45h1M34 47h2" />
<path stroke="#3d694e" d="M40 34h1M40 35h2M29 41h1" />
<path stroke="#080008" d="M20 35h1M49 40h1" />
<path stroke="#414441" d="M24 35h1" />
<path stroke="#529973" d="M48 35h1" />
<path stroke="#36664c" d="M49 35h1" />
<path stroke="#3f3f3f" d="M46 36h1M31 45h1" />
<path stroke="#4a956a" d="M47 36h1M46 37h1M31 44h1M30 45h1M39 46h1M43 46h1" />
<path stroke="#366347" d="M48 36h1M48 38h1" />
<path stroke="#629173" d="M41 37h1M40 40h1M49 42h1M36 43h1" />
<path stroke="#446a54" d="M47 37h1M30 44h1" />
<path stroke="#5d976d" d="M31 38h1" />
<path stroke="#4f956d" d="M44 38h1M46 38h2M44 39h3M28 42h1M28 43h1M44 44h2M44 45h1" />
<path stroke="#6a5e5d" d="M37 39h1M36 40h1M36 41h1" />
<path stroke="#b74b4c" d="M30 40h1M30 41h2" />
<path stroke="#624041" d="M34 40h1M34 41h2" />
<path stroke="#83de9c" d="M38 40h1" />
<path stroke="#52725a" d="M39 40h1" />
<path stroke="#2e4a3c" d="M48 40h1" />
<path stroke="#393c39" d="M38 41h2" />
<path stroke="#549470" d="M48 41h2" />
<path stroke="#4f956a" d="M34 44h2M34 45h2M30 46h2M30 47h2" />
<path stroke="#5e9373" d="M36 44h1M37 45h1" />
<path stroke="#3f6952" d="M48 44h2" />
<path stroke="#394441" d="M36 45h1" />
<path stroke="#5a9173" d="M32 46h1" />
<path stroke="#314839" d="M33 46h1" />
<path stroke="#457152" d="M46 46h1" />
<path stroke="#080000" d="M32 47h2" />
<path stroke="#456b56" d="M38 47h1M42 47h1" />
</svg>