<svg xmlns="http://www.w3.org/2000/svg" viewBox="0 -0.5 68 56" shape-rendering="crispEdges">
<metadata>Made with Pixels to Svg https://codepen.io/shshaw/pen/XbxvNj</metadata>
<path stroke="#000000" d="M29 25h4M27 26h2M31 26h1M36 26h2M26 27h1M29 27h2M36 27h1M38 27h1M25 28h1M29 28h1M34 28h2M39 28h1M25 29h1M30 29h4M38 29h1M26 30h2M36 30h2M28 31h1M32 31h2M24 32h1M28 32h1M31 32h1M23 33h1M25 33h1M27 33h1M31 33h1M42 33h2M23 34h1M33 34h1M41 34h1M44 34h1M23 35h1M32 35h1M34 35h1M38 35h3M43 35h1M22 36h1M34 36h1M37 36h1M42 36h1M21 37h1M35 37h2M44 37h3M20 38h1M42 38h2M47 38h1M20 39h1M47 39h1M45 40h2M43 41h2M21 42h1M42 42h1M43 43h2M21 44h1M45 44h1M21 45h1M43 45h2M21 46h1M42 46h1M22 47h1M40 47h2M23 48h2M26 48h1M38 48h1M27 49h2M37 49h1M29 50h2M36 50h1M31 51h1M34 51h2M32 52h2" />
<path stroke="#bdbebd" d="M29 26h2M28 27h1M38 28h1" />
<path stroke="#ffffff" d="M27 27h1M37 27h1M26 28h2M37 28h1M27 29h3M34 29h3M29 30h6" />
<path stroke="#7f7f7f" d="M28 28h1" />
<path stroke="#bdbcbd" d="M36 28h1M26 29h1M37 29h1" />
<path stroke="#aaaaaa" d="M28 30h1" />
<path stroke="#aaabaa" d="M35 30h1" />
<path stroke="#555555" d="M29 31h1" />
<path stroke="#424142" d="M30 31h2M28 34h2M35 38h1M37 38h1M41 38h1M35 39h1M36 40h1M36 41h1M36 42h1M32 43h4M23 44h1M34 44h1M36 44h1M23 45h1M27 45h5M33 45h1M36 45h2M32 46h1M34 46h2M35 47h1M37 47h1M35 48h1M35 49h1" />
<path stroke="#000400" d="M34 31h2" />
<path stroke="#ad964a" d="M29 32h2M28 33h3M25 34h1M24 35h1M34 38h1M40 38h1M34 39h1M40 39h2M25 40h1M31 40h1M42 40h3M24 41h1M30 41h1M42 41h1M37 42h1M36 43h2M42 43h1M22 44h1M26 44h4M37 44h1M42 44h3M22 45h1M26 45h1M42 45h1M22 46h2M40 46h2M23 47h1" />
<path stroke="#dec76b" d="M24 33h1M42 34h2M28 35h4M33 35h1M41 35h2M29 36h2M38 36h2M30 37h2M37 37h1M21 38h1M32 38h1M36 38h1M44 38h2M21 39h1M32 39h2M36 39h2M27 40h1M26 41h2M25 42h1M28 42h2M32 42h2M25 43h1M34 47h1M32 48h2M33 49h1" />
<path stroke="#d9c67b" d="M24 34h1M30 40h1M25 41h1" />
<path stroke="#080408" d="M26 34h1" />
<path stroke="#554d3c" d="M27 34h1M27 35h1" />
<path stroke="#4a422e" d="M30 34h1" />
<path stroke="#000010" d="M31 34h1" />
<path stroke="#efdf94" d="M25 35h1M24 40h1M31 41h1" />
<path stroke="#efdfa5" d="M26 35h1" />
<path stroke="#e7d78c" d="M23 36h1M22 37h2" />
<path stroke="#efde9c" d="M24 36h2M24 37h2M26 38h4M26 39h4" />
<path stroke="#736139" d="M26 36h1M33 40h1" />
<path stroke="#efdf9c" d="M27 36h1M27 37h1M23 38h2M23 39h2M26 40h1" />
<path stroke="#eedf9c" d="M28 36h1M28 37h2" />
<path stroke="#ac944a" d="M31 36h1M38 37h2M33 38h1M44 39h2M32 49h1" />
<path stroke="#dec66b" d="M32 36h2M32 37h2M30 38h2M30 39h2M28 40h2M28 41h2M26 42h2M26 43h2" />
<path stroke="#efcf6b" d="M40 36h1" />
<path stroke="#a28b47" d="M41 36h1M40 37h1" />
<path stroke="#9c8b5a" d="M26 37h1" />
<path stroke="#6b5942" d="M34 37h1M24 44h1M24 45h1" />
<path stroke="#080400" d="M41 37h1M22 43h1" />
<path stroke="#554d44" d="M22 38h1M22 39h1" />
<path stroke="#ad934a" d="M25 38h1M25 39h1" />
<path stroke="#ad9449" d="M38 38h2M39 39h1M34 40h2M35 41h1M38 44h1M38 45h1" />
<path stroke="#e7cf6b" d="M46 38h1M42 39h1" />
<path stroke="#6b5a41" d="M38 39h1M34 41h1M39 44h1M39 45h1" />
<path stroke="#9a8a47" d="M43 39h1M46 39h1" />
<path stroke="#000008" d="M20 40h1M20 41h1M25 47h1M39 47h1" />
<path stroke="#4a422b" d="M21 40h1" />
<path stroke="#393839" d="M22 40h1" />
<path stroke="#dec36b" d="M23 40h1M23 41h1" />
<path stroke="#a18d57" d="M32 40h1" />
<path stroke="#dec363" d="M37 40h1M34 48h1" />
<path stroke="#735a3c" d="M38 40h1" />
<path stroke="#ad904f" d="M39 40h1M39 41h1" />
<path stroke="#ad944a" d="M40 40h2M40 41h2M38 42h4M38 43h4M40 44h2M40 45h2" />
<path stroke="#dec773" d="M21 41h1" />
<path stroke="#706649" d="M22 41h1" />
<path stroke="#ffe794" d="M32 41h1" />
<path stroke="#d0ba75" d="M33 41h1" />
<path stroke="#aa9758" d="M37 41h1M34 49h1" />
<path stroke="#e7c763" d="M38 41h1" />
<path stroke="#9c8847" d="M22 42h1" />
<path stroke="#e7cb6b" d="M23 42h1M23 43h1" />
<path stroke="#a49055" d="M24 42h1M28 43h1" />
<path stroke="#424242" d="M30 42h2M30 43h2" />
<path stroke="#ad924a" d="M34 42h1M31 44h3" />
<path stroke="#655c44" d="M35 42h1M30 44h1M32 45h1" />
<path stroke="#6a5a3f" d="M24 43h1M29 43h1" />
<path stroke="#dec763" d="M25 44h1" />
<path stroke="#847973" d="M35 44h1M34 45h2M27 46h5M36 46h2M36 47h1M27 48h1M30 48h1M31 50h1" />
<path stroke="#a49052" d="M25 45h1" />
<path stroke="#554a2b" d="M24 46h1" />
<path stroke="#aa944f" d="M25 46h1M24 47h1" />
<path stroke="#424041" d="M26 46h1M26 47h6M31 48h1M30 49h2" />
<path stroke="#e7cf7b" d="M33 46h1M32 47h2" />
<path stroke="#473e39" d="M38 46h1M38 47h1" />
<path stroke="#6b5d52" d="M39 46h1" />
<path stroke="#847c73" d="M28 48h2M37 48h1M36 49h1M35 50h1" />
<path stroke="#423e39" d="M36 48h1M29 49h1M34 50h1" />
<path stroke="#42414a" d="M32 50h1M33 51h1" />
<path stroke="#ad965a" d="M33 50h1" />
<path stroke="#897954" d="M32 51h1" />
</svg>