<svg xmlns="http://www.w3.org/2000/svg" viewBox="0 -0.5 68 56" shape-rendering="crispEdges">
<metadata>Made with Pixels to Svg https://codepen.io/shshaw/pen/XbxvNj</metadata>
<path stroke="#000000" d="M25 15h1M24 16h1M26 16h1M23 17h1M26 17h1M23 18h1M26 18h1M23 19h1M26 19h1M22 20h1M26 20h1M22 21h1M27 21h1M22 22h1M28 22h2M22 23h1M30 23h1M46 23h6M21 24h1M31 24h1M44 24h2M52 24h1M20 25h1M30 25h1M41 25h3M49 25h3M19 26h1M30 26h1M40 26h1M48 26h1M19 27h1M31 27h1M39 27h1M49 27h2M18 28h1M26 28h1M31 28h1M38 28h1M51 28h2M18 29h1M32 29h1M38 29h1M53 29h1M17 30h1M33 30h1M37 30h1M52 30h1M17 31h1M20 31h2M25 31h1M33 31h1M36 31h1M51 31h1M17 32h3M22 32h3M27 32h1M34 32h1M36 32h1M52 32h1M35 33h1M50 33h2M28 34h1M48 34h2M29 35h1M42 35h6M29 36h1M40 36h1M47 36h3M29 37h1M41 37h1M43 37h4M49 37h1M30 38h1M48 38h1M30 39h1M48 39h1M30 40h1M44 40h1M47 40h1M31 41h1M43 41h1M45 41h2M31 42h1M40 42h1M42 42h2M32 43h1M40 43h1M33 44h1M36 44h2M41 44h1M33 45h1M35 45h1M41 45h1M31 46h2M35 46h1M37 46h1M40 46h1M29 47h2M34 47h1M36 47h1M28 48h1M35 48h1M28 49h4M40 49h1M33 50h1M35 50h2M38 50h1M40 50h1M33 51h2M38 51h1M40 51h1M39 52h1" />
<path stroke="#d5daf6" d="M25 16h1M24 17h2M24 18h1M24 19h1M23 20h1M23 21h1M26 22h1M25 23h5M28 24h3M28 25h1M24 26h2M41 26h1M24 27h1M40 27h2M19 28h1M39 28h1M42 28h2M19 29h1M39 29h1M42 29h1M20 30h2M40 30h1M34 34h1M34 35h2M33 36h1M36 36h1M32 37h2M36 37h2M31 38h1M38 38h1M31 39h1M39 39h1M34 50h1M39 50h1M39 51h1" />
<path stroke="#afafca" d="M25 18h1M25 19h1M24 22h2M24 23h1M39 38h1M38 39h1" />
<path stroke="#b2b0ca" d="M24 20h2M24 21h2M40 38h2M40 39h2" />
<path stroke="#b4aecd" d="M26 21h1M23 22h1M23 23h1M29 26h1M28 27h2M28 28h1M28 29h1M22 31h2M37 31h1M37 32h1M36 33h2M36 34h1M40 37h1M36 42h4M37 43h2M29 48h1" />
<path stroke="#414041" d="M27 22h1M29 25h1M28 26h1M47 26h1M25 27h1M30 27h1M45 27h4M25 28h1M29 28h1M24 29h1M29 29h1M43 29h1M22 30h2M30 30h1M46 30h6M31 31h1M44 31h2M50 31h1M42 32h2M34 33h1M40 33h2M44 33h6M35 34h1M37 34h3M42 34h2M36 35h2M39 35h1M37 36h1M36 43h1M39 43h1" />
<path stroke="#d5daf2" d="M22 24h2M23 25h1M20 26h1M23 26h1M21 27h3" />
<path stroke="#d5daf4" d="M24 24h4M24 25h4M42 26h2M42 27h2M20 28h4M40 28h2M20 29h4M40 29h2M18 30h2M38 30h2M18 31h2M38 31h2M34 36h2M34 37h2M32 38h4M32 39h4" />
<path stroke="#eef0f6" d="M46 24h2M46 25h2" />
<path stroke="#eeeef6" d="M48 24h4M21 25h2M44 25h2M48 25h1M21 26h2M46 26h1M20 27h1" />
<path stroke="#524a2b" d="M26 26h2" />
<path stroke="#dee2f6" d="M44 26h2M44 27h1" />
<path stroke="#000018" d="M26 27h1" />
<path stroke="#f6de52" d="M27 27h1" />
<path stroke="#dedeff" d="M24 28h1M39 37h1" />
<path stroke="#ded273" d="M27 28h1M26 29h2" />
<path stroke="#9495ac" d="M30 28h1M30 29h2M32 30h1M32 31h1" />
<path stroke="#413c39" d="M44 28h1M42 30h1" />
<path stroke="#9f444a" d="M45 28h1M44 29h1M43 30h1M42 31h1" />
<path stroke="#d35062" d="M46 28h4M46 29h4" />
<path stroke="#d55062" d="M50 28h1M50 29h3M44 30h2M48 31h2M46 32h6" />
<path stroke="#a9a9bf" d="M25 29h1" />
<path stroke="#cd4852" d="M45 29h1M43 31h1" />
<path stroke="#6d7489" d="M24 30h2M34 44h2" />
<path stroke="#b4b2cd" d="M26 30h2M40 40h1M40 41h1M38 46h2" />
<path stroke="#afafcd" d="M28 30h2M28 31h1M36 40h1M39 40h1M36 41h3" />
<path stroke="#9495b4" d="M31 30h1" />
<path stroke="#624041" d="M41 30h1M40 31h2" />
<path stroke="#a4aecd" d="M24 31h1M34 43h1M34 45h1" />
<path stroke="#000400" d="M26 31h1M41 41h1M38 45h1M39 47h1" />
<path stroke="#3c3e44" d="M27 31h1M41 40h1M38 47h1" />
<path stroke="#62718b" d="M29 31h1M29 34h1M47 37h1M31 40h1M37 40h2M45 40h1M39 41h1M34 46h1M31 47h1M37 47h1" />
<path stroke="#5d5d68" d="M30 31h1" />
<path stroke="#9f4852" d="M46 31h1" />
<path stroke="#cd4c5a" d="M47 31h1" />
<path stroke="#6a758b" d="M28 32h1M29 33h1M38 48h1M38 49h1" />
<path stroke="#4a4f5f" d="M29 32h1M39 49h1" />
<path stroke="#627187" d="M30 32h1M30 33h1M31 34h2M30 35h3M30 36h2M46 38h2M46 39h1" />
<path stroke="#525573" d="M31 32h1M31 33h1M30 34h1M33 34h1M33 35h1M32 36h1M30 37h2M47 39h1" />
<path stroke="#414347" d="M32 32h1M33 33h1" />
<path stroke="#9499b4" d="M33 32h1" />
<path stroke="#bda5bd" d="M38 32h1" />
<path stroke="#523839" d="M39 32h1M38 33h1" />
<path stroke="#9c4041" d="M40 32h2M44 32h2M42 33h2M44 34h4M38 35h1" />
<path stroke="#080408" d="M28 33h1M39 48h1" />
<path stroke="#6a6e7e" d="M32 33h1" />
<path stroke="#755d65" d="M39 33h1" />
<path stroke="#9c484a" d="M40 34h2" />
<path stroke="#4e2a29" d="M40 35h1" />
<path stroke="#000c08" d="M41 35h1" />
<path stroke="#41444a" d="M38 36h1" />
<path stroke="#a9abc2" d="M39 36h1M38 37h1" />
<path stroke="#627189" d="M48 37h1M42 40h2M42 41h1M33 46h1M32 47h2" />
<path stroke="#d5daee" d="M36 38h1M37 39h1M32 40h2" />
<path stroke="#afb6ca" d="M37 38h1M33 41h1" />
<path stroke="#080400" d="M42 38h1M32 49h1M37 49h1" />
<path stroke="#6a7289" d="M43 38h1M43 39h1M32 48h2M36 48h2" />
<path stroke="#657189" d="M44 38h2M44 39h2" />
<path stroke="#626d83" d="M36 39h1M32 41h1" />
<path stroke="#393b44" d="M42 39h1M33 49h1M36 49h1" />
<path stroke="#d5d6ee" d="M34 40h1M35 49h1" />
<path stroke="#627183" d="M35 40h1M35 41h1" />
<path stroke="#565573" d="M46 40h1" />
<path stroke="#afb4ca" d="M34 41h1" />
<path stroke="#acaecd" d="M32 42h1M33 43h1M39 44h2M30 48h1" />
<path stroke="#737489" d="M33 42h1M40 45h1" />
<path stroke="#6f7587" d="M34 42h2" />
<path stroke="#393c41" d="M35 43h1" />
<path stroke="#393c44" d="M38 44h1" />
<path stroke="#737589" d="M39 45h1" />
<path stroke="#565766" d="M31 48h1" />
<path stroke="#47474f" d="M34 48h1M34 49h1" />
</svg>