<svg xmlns="http://www.w3.org/2000/svg" viewBox="0 -0.5 68 56" shape-rendering="crispEdges">
<metadata>Made with Pixels to Svg https://codepen.io/shshaw/pen/XbxvNj</metadata>
<path stroke="#000000" d="M19 24h3M19 25h1M22 25h2M20 26h1M24 26h1M21 27h1M25 27h1M28 27h2M46 27h4M21 28h1M25 28h1M27 28h1M30 28h2M44 28h2M50 28h4M20 29h1M26 29h1M32 29h1M41 29h3M54 29h1M20 30h1M33 30h1M40 30h1M52 30h2M21 31h1M34 31h1M41 31h1M51 31h1M22 32h1M34 32h1M42 32h1M50 32h1M23 33h1M35 33h1M42 33h1M50 33h1M24 34h1M35 34h1M50 34h1M24 35h1M35 35h1M38 35h1M41 35h1M50 35h1M23 36h1M36 36h2M39 36h1M41 36h1M47 36h4M23 37h1M40 37h1M46 37h1M30 38h1M45 38h1M21 39h1M31 39h1M45 39h1M21 40h1M30 40h1M42 40h4M22 41h1M41 41h1M23 42h2M40 42h1M25 43h1M41 43h1M26 44h2M40 44h1M41 45h1M45 45h2M29 46h1M42 46h1M47 46h1M30 47h2M36 47h1M43 47h1M46 47h1M32 48h2M37 48h3M41 48h2M43 49h1M44 50h3" />
<path stroke="#67675a" d="M20 25h2M21 26h1M44 29h2M50 29h4M41 30h1M50 30h2M50 31h1M46 36h1M41 37h1M44 38h1M44 39h1M38 40h2M38 41h1M39 46h1M38 47h1" />
<path stroke="#6b655a" d="M22 26h1" />
<path stroke="#524e45" d="M23 26h1M22 27h2" />
<path stroke="#524f46" d="M24 27h1M21 29h1M21 30h1M23 32h1" />
<path stroke="#524f44" d="M22 28h3M22 29h4M22 30h4M22 31h4" />
<path stroke="#529ace" d="M28 28h2M30 29h2M32 30h1M32 31h2M32 32h2M33 33h2M25 34h1M33 34h2M25 35h4M33 35h2M26 36h2M32 36h2M27 37h1M33 37h1M31 42h1" />
<path stroke="#68675d" d="M46 28h4M46 29h4M42 30h2M46 30h4M42 31h2M46 31h4M44 32h2M48 32h2M44 33h2M48 33h2M46 34h4M46 35h4M42 36h2M42 37h2M40 38h4M40 39h4M24 40h2M24 41h2" />
<path stroke="#4a79a5" d="M27 29h1M28 30h1M29 31h1M33 38h1M33 39h1M28 43h2" />
<path stroke="#497aa4" d="M28 29h2M32 33h1M26 34h4M32 34h1M29 35h1M32 35h1M32 37h1" />
<path stroke="#424142" d="M26 30h1M26 31h1M25 32h1M25 33h1M26 37h1M27 38h1M36 38h1M36 39h1M28 40h2M29 41h1M39 41h1M32 42h2M38 42h1M40 45h1M38 46h1M39 47h1M44 48h2" />
<path stroke="#89b5c0" d="M27 30h1" />
<path stroke="#b5f3ff" d="M29 30h1M28 31h1M26 33h3M30 34h2M38 36h1M38 37h2M37 38h1M37 39h1M34 42h2M35 43h1" />
<path stroke="#497aaa" d="M30 30h1M31 31h1" />
<path stroke="#5a98c8" d="M31 30h1" />
<path stroke="#65665d" d="M44 30h2M47 32h1M46 33h1M45 36h1M45 37h1" />
<path stroke="#adefff" d="M27 31h1M30 32h1" />
<path stroke="#6bb6e7" d="M30 31h1" />
<path stroke="#4f4f47" d="M44 31h2M46 32h1M47 33h1M44 36h1M44 37h1" />
<path stroke="#524e44" d="M24 32h1M24 33h1" />
<path stroke="#6db5e3" d="M26 32h2" />
<path stroke="#7eb7d3" d="M28 32h1" />
<path stroke="#477ca7" d="M29 32h1M29 33h1" />
<path stroke="#4279ad" d="M31 32h1" />
<path stroke="#6b6d63" d="M43 32h1" />
<path stroke="#77b4d6" d="M30 33h2" />
<path stroke="#474842" d="M43 33h1" />
<path stroke="#000400" d="M42 34h1M47 48h1M47 49h1" />
<path stroke="#47473c" d="M43 34h1" />
<path stroke="#66675a" d="M44 34h2M45 35h1" />
<path stroke="#4179ad" d="M30 35h1" />
<path stroke="#7bb6d6" d="M31 35h1" />
<path stroke="#6b695a" d="M42 35h2" />
<path stroke="#525142" d="M44 35h1" />
<path stroke="#ffe3e7" d="M24 36h1" />
<path stroke="#7b7783" d="M25 36h1" />
<path stroke="#529ad0" d="M28 36h2M34 36h2M28 37h2M34 37h2M34 38h2M34 39h2" />
<path stroke="#528ec6" d="M30 36h2M30 37h1" />
<path stroke="#bdadb5" d="M24 37h1" />
<path stroke="#394152" d="M25 37h1" />
<path stroke="#ffffff" d="M31 37h1M32 38h1M32 39h1M32 40h1M28 41h1M28 42h2" />
<path stroke="#3f4f52" d="M36 37h1" />
<path stroke="#bdeff7" d="M37 37h1" />
<path stroke="#081810" d="M22 38h1" />
<path stroke="#ff92a5" d="M23 38h1" />
<path stroke="#ff869c" d="M24 38h2" />
<path stroke="#f78aa5" d="M26 38h1M26 39h2M43 48h1M44 49h2" />
<path stroke="#314952" d="M28 38h1M29 39h1" />
<path stroke="#6d6173" d="M29 38h1" />
<path stroke="#42433c" d="M31 38h1M40 41h1M36 46h1" />
<path stroke="#b5ebf7" d="M38 38h1M36 40h1" />
<path stroke="#423c39" d="M39 38h1M38 39h1M37 40h1M27 41h1M36 41h1" />
<path stroke="#5a4041" d="M22 39h1" />
<path stroke="#ac6973" d="M23 39h1" />
<path stroke="#705d54" d="M24 39h1" />
<path stroke="#b77178" d="M25 39h1" />
<path stroke="#e792b5" d="M28 39h1" />
<path stroke="#63655a" d="M30 39h1M40 40h2M37 46h1M37 47h1" />
<path stroke="#687678" d="M39 39h1M37 41h1" />
<path stroke="#e7e7e7" d="M22 40h1" />
<path stroke="#4d4d4d" d="M23 40h1M23 41h1" />
<path stroke="#c06775" d="M26 40h1M26 41h1" />
<path stroke="#ff7d94" d="M27 40h1" />
<path stroke="#475255" d="M31 40h1" />
<path stroke="#4a86b5" d="M33 40h1M32 41h2" />
<path stroke="#739aa4" d="M34 40h1" />
<path stroke="#39414a" d="M35 40h1M34 41h1" />
<path stroke="#8ea4aa" d="M30 41h1" />
<path stroke="#d6f7ff" d="M31 41h1" />
<path stroke="#adf3ff" d="M35 41h1" />
<path stroke="#c65d6b" d="M25 42h1M46 46h1M42 47h1" />
<path stroke="#bd697b" d="M26 42h1" />
<path stroke="#394d5a" d="M27 42h1M26 43h1" />
<path stroke="#474644" d="M30 42h1M30 43h2" />
<path stroke="#bdf3ff" d="M36 42h1M36 43h1" />
<path stroke="#4a4142" d="M37 42h1" />
<path stroke="#a5bebd" d="M39 42h1M32 43h3M38 43h3M36 44h4M29 45h1M37 45h1M32 46h2M33 47h1" />
<path stroke="#655665" d="M27 43h1" />
<path stroke="#96b7c0" d="M37 43h1" />
<path stroke="#3c3f3f" d="M28 44h2" />
<path stroke="#a4bebd" d="M30 44h6M30 45h6" />
<path stroke="#080000" d="M28 45h1" />
<path stroke="#5a8590" d="M36 45h1M32 47h1" />
<path stroke="#636a65" d="M38 45h1" />
<path stroke="#424139" d="M39 45h1" />
<path stroke="#9cc3c6" d="M30 46h1" />
<path stroke="#688284" d="M31 46h1" />
<path stroke="#94bece" d="M34 46h1" />
<path stroke="#627e8c" d="M35 46h1" />
<path stroke="#946468" d="M40 46h1" />
<path stroke="#4a3634" d="M41 46h1" />
<path stroke="#000808" d="M44 46h1" />
<path stroke="#bd616b" d="M45 46h1M44 47h1" />
<path stroke="#000008" d="M34 47h2" />
<path stroke="#000800" d="M40 47h1" />
<path stroke="#de929c" d="M41 47h1" />
<path stroke="#5e3439" d="M45 47h1" />
<path stroke="#f78ea5" d="M46 48h1" />
<path stroke="#523237" d="M46 49h1" />
</svg>