<svg xmlns="http://www.w3.org/2000/svg" viewBox="0 -0.5 68 56" shape-rendering="crispEdges">
<metadata>Made with Pixels to Svg https://codepen.io/shshaw/pen/XbxvNj</metadata>
<path stroke="#000000" d="M36 13h1M41 13h3M34 14h2M39 14h2M43 14h1M33 15h1M38 15h1M41 15h2M31 16h2M40 16h1M42 16h5M30 17h1M41 17h1M47 17h1M29 18h1M44 18h3M29 19h1M42 19h2M30 20h1M40 20h2M30 21h1M38 21h2M31 22h1M37 22h1M31 23h1M38 23h1M31 24h1M37 24h1M27 25h2M32 25h1M38 25h1M18 26h2M25 26h1M32 26h1M37 26h1M43 26h2M17 27h1M20 27h1M24 27h1M30 27h1M32 27h1M38 27h1M42 27h1M45 27h1M51 27h2M17 28h1M23 28h1M31 28h1M37 28h1M41 28h1M46 28h1M53 28h1M16 29h1M22 29h1M38 29h1M40 29h1M46 29h1M48 29h2M53 29h1M54 30h1M54 31h1M16 32h1M35 32h1M54 32h1M17 33h1M54 33h1M19 34h2M37 34h1M39 34h1M53 34h1M21 35h1M38 35h1M50 35h3M21 36h1M49 36h1M21 37h1M49 37h1M22 38h1M49 38h1M22 39h1M48 39h1M23 40h1M48 40h1M23 41h1M47 41h1M23 42h1M27 42h1M44 42h3M23 43h1M27 43h1M29 43h1M24 44h1M26 44h1M29 44h1M42 44h1M24 45h1M26 45h1M28 45h1M33 45h1M41 45h1M24 46h1M26 46h1M28 46h1M30 46h1M32 46h1M34 46h1M41 46h1M25 47h1M29 47h1M34 47h1M40 47h1M35 48h1M39 48h1M36 49h1M39 49h1M37 50h2" />
<path stroke="#f6ea4a" d="M36 14h1M38 32h1" />
<path stroke="#000018" d="M37 14h1M39 30h1M38 33h1" />
<path stroke="#ffee41" d="M41 14h1M34 15h2M39 15h2M33 16h2M31 17h3M35 17h1M30 18h1M33 18h3M32 19h2M25 27h1M43 27h2M41 29h1M23 30h1M48 30h3M23 31h1M48 31h1M51 31h2M22 32h1M29 32h1M45 32h2M48 32h4M22 33h1M46 33h2M49 33h1M52 33h1M22 34h2M42 34h1M47 34h1M50 34h2M22 35h1M42 35h1M46 35h1M30 36h1M37 36h1M41 36h2M46 36h1M30 37h1M37 37h1M41 37h1M46 37h1M41 38h1M45 38h1M40 39h2" />
<path stroke="#ff8952" d="M42 14h1M38 18h2M38 19h1M31 20h1M31 21h1M36 22h1M36 23h2M32 24h2M36 24h1M33 25h1M36 25h2M33 26h1M36 26h1M33 27h1M36 27h2M30 28h1M34 28h1M30 29h2M31 30h3M32 31h1M32 32h1M32 33h1M31 34h3M44 34h1M33 35h2M44 35h1M44 36h1M32 39h3M30 40h7M31 41h1M33 41h1M35 41h3M39 41h1M36 42h2M37 43h1M29 45h1" />
<path stroke="#524e29" d="M36 15h2M39 32h1M39 33h1" />
<path stroke="#414041" d="M35 16h1M34 17h1M39 17h2M26 30h1M37 30h1M26 31h1M37 31h1M26 32h1M26 33h1M21 34h1M26 34h1M29 34h1M52 34h1M26 35h1M32 35h1M48 35h2M28 36h2M36 36h1M36 37h1M28 38h1M30 38h1M27 39h1M30 39h2M27 40h1M27 41h1M30 41h1M36 43h1M36 44h1M39 44h1M37 45h1M39 45h1M37 46h1M39 46h1M38 47h1" />
<path stroke="#52344a" d="M36 16h1" />
<path stroke="#ffe241" d="M37 16h1M36 17h1" />
<path stroke="#ffaa4a" d="M38 16h2M38 17h1" />
<path stroke="#c5a844" d="M37 17h1" />
<path stroke="#9f593c" d="M42 17h4M42 18h2M35 46h1M35 47h1M36 48h3M37 49h2" />
<path stroke="#9c5941" d="M46 17h1M34 42h1M35 43h1M29 46h1" />
<path stroke="#ff8756" d="M31 18h2M30 19h2M34 19h2" />
<path stroke="#fe8854" d="M36 18h2M36 19h2M32 20h6M32 21h6M32 22h4M32 23h4M34 24h2M34 25h2M34 26h2M34 27h2M32 28h2M32 29h2M32 42h2M32 43h2" />
<path stroke="#9f5a3f" d="M40 18h2M40 19h2" />
<path stroke="#a05b3d" d="M39 19h1M32 41h1M34 41h1M35 44h1M34 45h2" />
<path stroke="#f6895a" d="M38 20h1" />
<path stroke="#a45b3c" d="M39 20h1" />
<path stroke="#000010" d="M26 26h1M29 26h1M43 43h1" />
<path stroke="#94863c" d="M27 26h2M27 27h2" />
<path stroke="#a99f36" d="M18 27h1" />
<path stroke="#ffee52" d="M19 27h1M38 30h1M24 38h1" />
<path stroke="#4a4326" d="M26 27h1M29 27h1" />
<path stroke="#bfa14f" d="M18 28h2M19 29h1M18 30h1M21 30h1M18 31h4M42 40h1M44 40h1M42 41h4" />
<path stroke="#ffee5a" d="M20 28h1" />
<path stroke="#080008" d="M21 28h1M47 30h1" />
<path stroke="#c8bb8e" d="M24 28h1M41 30h1M41 33h1" />
<path stroke="#ac9962" d="M25 28h1M24 29h1M40 30h1M41 31h1M41 32h1M40 33h1" />
<path stroke="#9c887e" d="M26 28h1" />
<path stroke="#4a4441" d="M27 28h1M26 29h2M28 32h1M28 33h2M30 34h1M34 34h2M30 35h2M35 35h1M38 36h1M38 37h1M36 38h1M36 39h2M38 40h2M38 41h1" />
<path stroke="#414841" d="M28 28h1M29 29h1" />
<path stroke="#f6954a" d="M29 28h1" />
<path stroke="#525041" d="M35 28h1M34 29h2M22 30h1M22 31h1M33 31h1M21 32h1M25 32h1M33 32h1M21 33h1M25 33h1M33 33h1M34 38h2M35 39h1M37 40h1M41 42h1M40 43h2M34 44h1" />
<path stroke="#545454" d="M36 28h1" />
<path stroke="#feee3f" d="M42 28h4M42 29h4M42 30h4M42 31h4M42 32h2M42 33h2" />
<path stroke="#080408" d="M50 28h1" />
<path stroke="#837b25" d="M51 28h1" />
<path stroke="#948636" d="M52 28h1M52 29h1" />
<path stroke="#948939" d="M17 29h2M19 30h2M42 38h1M42 39h1M43 40h1M45 40h1" />
<path stroke="#ac9f3f" d="M20 29h2" />
<path stroke="#524e45" d="M23 29h1M35 42h1M34 43h1M25 46h1M40 46h1" />
<path stroke="#ffffe6" d="M25 29h1M40 31h1M40 32h1" />
<path stroke="#9c6f45" d="M28 29h1" />
<path stroke="#ffffff" d="M36 29h2M25 30h1M35 30h1M34 31h1M24 32h1M24 33h1M40 34h1M24 35h1M39 35h2M24 36h1M25 37h1M32 37h1M35 37h1M39 37h1M39 38h1M43 38h1M43 39h1M40 42h1" />
<path stroke="#fff241" d="M50 29h2" />
<path stroke="#000400" d="M16 30h1M16 31h1" />
<path stroke="#c5ae52" d="M17 30h1" />
<path stroke="#918880" d="M24 30h1M24 31h1M24 37h1" />
<path stroke="#8f8735" d="M27 30h1M27 31h1M27 32h1M27 33h1M27 34h2M27 35h3M29 38h1M31 38h1M28 39h2" />
<path stroke="#86813f" d="M28 30h1" />
<path stroke="#4a4841" d="M29 30h1M34 30h1M28 31h1M35 31h1M31 36h5M31 37h1M33 37h2M32 38h2" />
<path stroke="#416162" d="M30 30h1M30 31h2" />
<path stroke="#47a1af" d="M36 30h1M36 31h1" />
<path stroke="#ffee4a" d="M46 30h1M46 31h1" />
<path stroke="#918836" d="M51 30h3M49 31h2M53 31h1M44 32h1M52 32h2M44 33h2M50 33h2M53 33h1M43 34h1M43 35h1M46 38h1M46 39h1" />
<path stroke="#837536" d="M17 31h1" />
<path stroke="#5a4c41" d="M25 31h1M25 36h1" />
<path stroke="#fff239" d="M29 31h1" />
<path stroke="#a99f3f" d="M38 31h1" />
<path stroke="#544f2b" d="M39 31h1" />
<path stroke="#ac9f34" d="M47 31h1" />
<path stroke="#bda152" d="M17 32h1M48 36h1M48 37h1M23 38h1M47 38h2M23 39h1M47 39h1M46 40h2M46 41h1" />
<path stroke="#8b7936" d="M18 32h2" />
<path stroke="#bfa14c" d="M20 32h1M20 33h1" />
<path stroke="#9c877f" d="M23 32h1M23 33h1M41 34h1M46 34h1M23 35h1M41 35h1M47 35h1M40 36h1M40 37h1M40 38h1" />
<path stroke="#70825a" d="M30 32h1M36 32h1" />
<path stroke="#31485a" d="M31 32h1M37 32h1M31 33h1M36 33h1" />
<path stroke="#8ea7a9" d="M34 32h1" />
<path stroke="#bda14f" d="M47 32h1M48 33h1" />
<path stroke="#080800" d="M18 33h1" />
<path stroke="#cdb252" d="M19 33h1" />
<path stroke="#eef65a" d="M30 33h1M37 33h1" />
<path stroke="#475354" d="M34 33h1" />
<path stroke="#d5faff" d="M35 33h1" />
<path stroke="#8b8880" d="M24 34h1" />
<path stroke="#524c41" d="M25 34h1M25 35h1" />
<path stroke="#474641" d="M36 34h1M36 35h2" />
<path stroke="#918936" d="M45 34h1M45 35h1" />
<path stroke="#bfaf47" d="M48 34h1" />
<path stroke="#ffe64a" d="M49 34h1" />
<path stroke="#ffee39" d="M22 36h1M23 37h1" />
<path stroke="#9c8573" d="M23 36h1" />
<path stroke="#413c41" d="M26 36h1M27 37h1" />
<path stroke="#8b8539" d="M27 36h1" />
<path stroke="#868280" d="M39 36h1" />
<path stroke="#94874e" d="M43 36h1M42 37h2" />
<path stroke="#9c897f" d="M45 36h1M44 37h2" />
<path stroke="#98875a" d="M47 36h1M47 37h1" />
<path stroke="#bda85f" d="M22 37h1" />
<path stroke="#5a543f" d="M26 37h1" />
<path stroke="#524e44" d="M28 37h2M26 38h2M26 39h1M26 40h1M26 41h1" />
<path stroke="#8b8552" d="M25 38h1" />
<path stroke="#bda04c" d="M37 38h1" />
<path stroke="#524841" d="M38 38h1M38 39h1" />
<path stroke="#9c855a" d="M44 38h1M44 39h1" />
<path stroke="#525052" d="M24 39h2" />
<path stroke="#8b8580" d="M39 39h1" />
<path stroke="#bda852" d="M45 39h1" />
<path stroke="#834c31" d="M24 40h1" />
<path stroke="#fffff6" d="M25 40h1M25 41h1" />
<path stroke="#8e8644" d="M28 40h1" />
<path stroke="#474326" d="M29 40h1" />
<path stroke="#5a5039" d="M40 40h1M41 41h1" />
<path stroke="#918a75" d="M41 40h1" />
<path stroke="#ac8873" d="M24 41h1" />
<path stroke="#000008" d="M28 41h2" />
<path stroke="#ffffee" d="M40 41h1" />
<path stroke="#b09d8f" d="M24 42h1" />
<path stroke="#fff2e6" d="M25 42h1" />
<path stroke="#4a4744" d="M26 42h1M26 43h1" />
<path stroke="#001418" d="M30 42h1" />
<path stroke="#543e31" d="M31 42h1M31 43h1" />
<path stroke="#523c31" d="M38 42h1M38 43h1" />
<path stroke="#a8998b" d="M39 42h1" />
<path stroke="#5a4e35" d="M42 42h1M42 43h1" />
<path stroke="#b49d5a" d="M43 42h1" />
<path stroke="#624839" d="M24 43h2" />
<path stroke="#ff9162" d="M30 43h1" />
<path stroke="#fff6e6" d="M39 43h1" />
<path stroke="#524f44" d="M25 44h1M40 44h2M25 45h1M40 45h1" />
<path stroke="#9c5d41" d="M30 44h1M30 45h1" />
<path stroke="#683f2e" d="M31 44h1" />
<path stroke="#ff895a" d="M32 44h1M32 45h1" />
<path stroke="#a95b3c" d="M33 44h1" />
<path stroke="#ff8552" d="M37 44h1" />
<path stroke="#a0593d" d="M38 44h1M38 45h1M36 46h1M38 46h1M36 47h2M39 47h1" />
<path stroke="#000408" d="M31 45h1" />
<path stroke="#a0634a" d="M36 45h1" />
</svg>