<svg xmlns="http://www.w3.org/2000/svg" viewBox="0 -0.5 68 56" shape-rendering="crispEdges">
<metadata>Made with Pixels to Svg https://codepen.io/shshaw/pen/XbxvNj</metadata>
<path stroke="#000000" d="M39 17h4M38 18h1M43 18h1M32 19h1M37 19h1M44 19h1M47 19h1M31 20h1M33 20h1M36 20h1M46 20h1M48 20h1M31 21h1M33 21h1M36 21h1M48 21h1M31 22h1M34 22h2M48 22h1M31 23h1M48 23h1M31 24h1M48 24h1M29 25h2M47 25h1M48 26h2M24 27h2M49 27h1M22 28h2M28 28h1M44 28h1M47 28h2M21 29h1M29 29h1M44 29h3M25 30h1M28 30h1M42 30h1M45 30h1M19 31h1M24 31h1M27 31h1M43 31h1M46 31h1M18 32h1M24 32h1M27 32h1M42 32h1M44 32h1M46 32h1M18 33h1M23 33h1M28 33h1M44 33h1M47 33h1M17 34h1M22 34h1M27 34h1M29 34h1M48 34h1M17 35h1M26 35h1M48 35h1M16 36h1M25 36h1M48 36h1M16 37h1M24 37h1M16 38h1M21 38h1M24 38h1M47 38h1M16 39h1M22 39h1M25 39h1M47 39h1M16 40h1M22 40h1M25 40h1M42 40h1M44 40h1M46 40h1M16 41h1M22 41h1M24 41h1M41 41h1M43 41h1M46 41h1M16 42h1M23 42h1M45 42h1M17 43h1M23 43h1M45 43h1M48 43h1M17 44h1M46 44h2M49 44h1M17 45h1M48 45h1M18 46h1M47 46h1M19 47h1M46 47h1M20 48h1M45 48h1M21 49h2M44 49h1M23 50h2M42 50h2M25 51h1M29 51h2M34 51h2M41 51h1M31 52h3M37 52h4" />
<path stroke="#eeeaf6" d="M39 18h1M42 18h1M38 19h2M42 19h2M40 20h2M43 20h1M47 20h1M40 21h1M42 21h3M46 21h2M40 22h1M42 22h2M45 22h1M40 23h2M44 23h2M42 24h2M34 34h1M34 35h1M43 44h1M42 45h3M40 46h1M42 46h3M34 47h4M40 47h2M43 47h1M40 48h2M33 49h1M40 49h1" />
<path stroke="#ebeaf6" d="M40 18h2M40 19h2M38 46h2M38 47h2M34 48h6M34 49h6" />
<path stroke="#a46dbd" d="M32 20h1M32 21h1M43 34h1M42 35h2M40 37h1M27 38h2M34 38h1M35 39h1M36 41h1M17 42h1M29 43h1M19 46h1M21 48h3M23 49h1M25 50h1" />
<path stroke="#e6e6f6" d="M37 20h1M28 32h1" />
<path stroke="#41384a" d="M38 20h1M39 21h1" />
<path stroke="#eedaff" d="M39 20h1" />
<path stroke="#414041" d="M42 20h1M41 21h1M36 22h2M39 22h1M41 22h1M44 22h1M47 22h1M36 23h1M39 23h1M42 23h2M46 23h1M32 24h2M41 26h3M41 27h1M44 27h1M24 28h1M29 28h1M31 28h1M40 28h1M42 28h1M24 29h1M38 29h1M41 29h1M30 30h2M33 30h1M39 30h1M43 30h1M34 31h2M31 32h1M40 32h1M31 33h1M36 33h1M41 33h3M46 33h1M30 34h1M33 34h1M35 34h1M44 34h1M30 35h4M35 35h1M39 35h1M45 35h1M28 36h2M34 36h4M30 37h1M37 37h1M30 38h1M38 38h2M44 38h1M31 39h1M44 39h1M26 40h2M31 40h1M30 41h1M33 42h1M40 42h1M34 43h2M40 43h1M31 44h3M36 44h3M42 44h1M31 45h1M34 45h2M38 45h1M24 46h1M27 46h1M31 46h1M46 46h1M25 47h2M30 47h1M30 48h1M29 49h1" />
<path stroke="#202020" d="M44 20h1M45 21h1" />
<path stroke="#4c4c52" d="M37 21h1M29 32h1M29 33h1" />
<path stroke="#9889a4" d="M38 21h1" />
<path stroke="#a16fbf" d="M32 22h2M32 23h2M18 44h4M24 44h2M28 44h2M18 45h4M24 45h2M28 45h2M20 46h4M28 46h2M20 47h4M28 47h2M24 48h4M24 49h4" />
<path stroke="#a46ebf" d="M38 22h1M37 23h2M28 37h2M30 44h1M30 45h1M25 46h2M24 47h1M27 47h1M28 48h2M28 49h1" />
<path stroke="#eee6ee" d="M46 22h1M41 24h1M41 45h1" />
<path stroke="#3f5431" d="M34 23h1" />
<path stroke="#7ea962" d="M35 23h1" />
<path stroke="#b4afb4" d="M47 23h1" />
<path stroke="#7eb45d" d="M34 24h2M32 25h4M40 26h1M40 27h1M42 27h2M38 28h2M41 28h1M39 29h2M31 34h2M30 36h2M31 37h1M36 37h1M31 38h3M36 38h2M30 39h1M32 39h2M36 39h4M34 40h2M34 41h2" />
<path stroke="#414839" d="M36 24h1M39 24h1M37 25h2" />
<path stroke="#a495a4" d="M37 24h2" />
<path stroke="#b4afb2" d="M40 24h1M41 25h1M40 44h1M40 45h1" />
<path stroke="#b4acac" d="M44 24h2M44 25h2M46 26h2M46 27h2M32 46h2M32 47h2M42 48h2M42 49h2M32 50h2M38 50h2M32 51h2M38 51h2" />
<path stroke="#b4aeac" d="M46 24h2M42 25h2M46 25h1M44 26h2M45 27h1M48 27h1M45 28h2M41 42h1M41 43h4M39 44h1M44 44h2M48 44h1M32 45h2M36 45h2M39 45h1M45 45h3M34 46h4M41 46h1M45 46h1M42 47h1M44 47h2M31 48h3M44 48h1M30 49h3M41 49h1M30 50h2M40 50h2M31 51h1M40 51h1" />
<path stroke="#7bb25a" d="M31 25h1M41 34h1M41 35h1M26 37h2M32 40h2" />
<path stroke="#837c80" d="M36 25h1M39 25h1" />
<path stroke="#414039" d="M40 25h1M37 34h1M40 34h1M27 36h1M32 41h1M41 44h1" />
<path stroke="#000008" d="M26 26h2M21 36h1M21 37h1" />
<path stroke="#000410" d="M28 26h1" />
<path stroke="#bda56a" d="M29 26h1M28 27h1" />
<path stroke="#394841" d="M30 26h1M31 27h1" />
<path stroke="#989b62" d="M31 26h1" />
<path stroke="#7eb35a" d="M32 26h2M35 26h1M38 26h2M32 27h1M34 27h2M39 27h1M42 34h1M40 36h2M41 37h1M26 38h1M29 38h1M35 38h1M26 39h4M34 39h1M36 40h2M37 41h1" />
<path stroke="#4f6b39" d="M34 26h1M33 27h1M38 27h1" />
<path stroke="#7bb65a" d="M36 26h2M32 28h1M33 29h1" />
<path stroke="#78635f" d="M26 27h1" />
<path stroke="#b4958b" d="M27 27h1" />
<path stroke="#3f3a2e" d="M29 27h1" />
<path stroke="#f6ee83" d="M30 27h1" />
<path stroke="#414439" d="M36 27h1M32 29h1" />
<path stroke="#546a44" d="M37 27h1M33 28h1" />
<path stroke="#7b4c8f" d="M25 28h1M25 29h1M45 34h1M44 35h1M45 38h1M45 39h1M36 42h2" />
<path stroke="#7e578e" d="M26 28h1" />
<path stroke="#3f2d47" d="M27 28h1" />
<path stroke="#ffe283" d="M30 28h1M30 29h1M23 31h1" />
<path stroke="#808878" d="M34 28h1M32 33h1" />
<path stroke="#414c39" d="M35 28h1M34 29h1M32 32h1M33 33h1M28 40h1M29 41h1" />
<path stroke="#ffe28b" d="M36 28h2M37 29h1M21 32h1M19 36h1M18 37h2M18 38h1M20 38h1M18 39h1M20 39h2M18 40h2M21 40h1M19 41h3" />
<path stroke="#5e8d41" d="M43 28h1M42 29h2M41 32h1M40 33h1M38 34h2M38 35h1M32 42h1M34 42h2M32 43h2M34 44h2" />
<path stroke="#b4a56a" d="M22 29h2" />
<path stroke="#000400" d="M26 29h2M42 42h1M26 51h1" />
<path stroke="#bfac6d" d="M31 29h1" />
<path stroke="#fffff6" d="M35 29h1M33 32h1" />
<path stroke="#b7a568" d="M36 29h1" />
<path stroke="#000010" d="M20 30h1M21 42h1M21 43h1" />
<path stroke="#4c423f" d="M21 30h1" />
<path stroke="#c2af6d" d="M22 30h1" />
<path stroke="#4a4841" d="M23 30h1" />
<path stroke="#7b4c94" d="M24 30h1M44 36h1" />
<path stroke="#f6f6ff" d="M29 30h1M38 30h1M28 31h2M38 31h2" />
<path stroke="#ffffff" d="M32 30h1M30 31h4M34 32h2" />
<path stroke="#ffde83" d="M34 30h1M23 32h1M22 33h1" />
<path stroke="#bfa96d" d="M35 30h1" />
<path stroke="#c2c0ac" d="M36 30h1" />
<path stroke="#4a4439" d="M37 30h1M36 31h1" />
<path stroke="#4f5b52" d="M40 30h2" />
<path stroke="#784e8e" d="M44 30h1M44 31h2M19 32h1M45 32h1M19 33h1M45 33h1M17 38h1M46 38h1M17 39h1M46 39h1M45 40h1M44 41h2" />
<path stroke="#99846d" d="M20 31h1" />
<path stroke="#e6c69c" d="M21 31h1" />
<path stroke="#867c57" d="M22 31h1" />
<path stroke="#ffffe6" d="M37 31h1" />
<path stroke="#eef2f6" d="M40 31h1M36 32h2M37 33h1" />
<path stroke="#001000" d="M41 31h1" />
<path stroke="#7b4e91" d="M20 32h1M20 33h2M18 36h1M18 41h1M38 41h2" />
<path stroke="#a99457" d="M22 32h1" />
<path stroke="#f6f2ff" d="M30 32h1M30 33h1M35 50h1" />
<path stroke="#e6eee6" d="M38 32h1" />
<path stroke="#394431" d="M39 32h1M38 33h1" />
<path stroke="#eaeaf6" d="M34 33h2" />
<path stroke="#737d6d" d="M39 33h1" />
<path stroke="#b79194" d="M18 34h1" />
<path stroke="#392862" d="M19 34h1" />
<path stroke="#78508e" d="M20 34h2M46 36h1M46 37h1" />
<path stroke="#628d41" d="M28 34h1M27 35h3M25 37h1M25 38h1M36 43h2" />
<path stroke="#7bb652" d="M36 34h1M34 37h1M30 40h1" />
<path stroke="#4a3862" d="M46 34h1" />
<path stroke="#bda16a" d="M47 34h1M47 35h1" />
<path stroke="#785d7b" d="M18 35h1" />
<path stroke="#f6c6ac" d="M19 35h1" />
<path stroke="#3c2c47" d="M20 35h1M47 36h1" />
<path stroke="#000800" d="M21 35h1M47 37h1M43 39h1M22 44h2" />
<path stroke="#688f4a" d="M36 35h2" />
<path stroke="#688c4f" d="M40 35h1M26 36h1M33 41h1" />
<path stroke="#705b65" d="M46 35h1" />
<path stroke="#ac71c5" d="M17 36h1M17 41h1" />
<path stroke="#4c4431" d="M20 36h1" />
<path stroke="#7eb45a" d="M32 36h1M32 37h2M40 38h2M40 39h1" />
<path stroke="#5f8f41" d="M33 36h1M41 39h1" />
<path stroke="#527941" d="M38 36h1M38 37h1" />
<path stroke="#6d7c6a" d="M39 36h1" />
<path stroke="#7ba55a" d="M42 36h1" />
<path stroke="#9c61bd" d="M43 36h1M42 37h1" />
<path stroke="#4a5a41" d="M45 36h1M44 37h2" />
<path stroke="#734b83" d="M17 37h1M17 40h1" />
<path stroke="#99895a" d="M20 37h1" />
<path stroke="#688f4c" d="M35 37h1M31 41h1" />
<path stroke="#a481bd" d="M39 37h1" />
<path stroke="#91789c" d="M43 37h1" />
<path stroke="#9c8952" d="M19 38h1M19 39h1M20 40h1" />
<path stroke="#83c262" d="M42 38h1" />
<path stroke="#578441" d="M43 38h1M42 39h1" />
<path stroke="#7f7f7f" d="M29 40h1" />
<path stroke="#a46fbf" d="M38 40h2" />
<path stroke="#68795d" d="M40 40h2M40 41h1" />
<path stroke="#c599d5" d="M25 41h3" />
<path stroke="#bdb2c5" d="M28 41h1" />
<path stroke="#7b489c" d="M18 42h1M19 43h1" />
<path stroke="#ffde94" d="M19 42h1" />
<path stroke="#ffd6a4" d="M20 42h1" />
<path stroke="#a16ebd" d="M24 42h1M24 43h2" />
<path stroke="#bf98d5" d="M25 42h1" />
<path stroke="#c298d8" d="M26 42h2M26 43h2" />
<path stroke="#bf98d8" d="M28 42h2M28 43h1" />
<path stroke="#415039" d="M30 42h1M31 43h1" />
<path stroke="#625f62" d="M31 42h1" />
<path stroke="#7b4e8f" d="M38 42h2" />
<path stroke="#3c3c39" d="M43 42h1" />
<path stroke="#3c3a39" d="M44 42h1" />
<path stroke="#a77a99" d="M18 43h1" />
<path stroke="#7f6b5a" d="M20 43h1" />
<path stroke="#a47db4" d="M30 43h1" />
<path stroke="#526941" d="M38 43h2" />
<path stroke="#735486" d="M26 44h1" />
<path stroke="#a46dc2" d="M27 44h1M26 45h1" />
<path stroke="#a475bd" d="M22 45h1" />
<path stroke="#362c3f" d="M23 45h1" />
<path stroke="#413c4a" d="M27 45h1" />
<path stroke="#ac8db4" d="M30 46h1M31 47h1" />
<path stroke="#9c71b4" d="M26 50h1" />
<path stroke="#4e3a5a" d="M27 50h1" />
<path stroke="#565252" d="M28 50h1" />
<path stroke="#aca5a4" d="M29 50h1" />
<path stroke="#a4a1a9" d="M34 50h1" />
<path stroke="#eeeef6" d="M36 50h2" />
<path stroke="#080400" d="M36 51h1" />
<path stroke="#a1a0a4" d="M37 51h1" />
</svg>