<svg xmlns="http://www.w3.org/2000/svg" viewBox="0 -0.5 68 56" shape-rendering="crispEdges">
<metadata>Made with Pixels to Svg https://codepen.io/shshaw/pen/XbxvNj</metadata>
<path stroke="#000000" d="M29 5h2M32 5h1M29 6h1M31 6h1M34 6h1M30 7h1M35 7h1M48 7h2M51 7h1M31 8h1M35 8h1M46 8h2M50 8h1M52 8h1M29 9h2M34 9h1M45 9h1M51 9h1M28 10h1M32 10h1M35 10h1M50 10h1M28 11h1M31 11h1M33 11h1M35 11h1M38 11h3M28 12h1M33 12h1M41 12h1M45 12h1M49 12h1M26 13h1M29 13h1M32 13h1M42 13h1M45 13h1M49 13h1M25 14h1M27 14h1M29 14h1M31 14h1M39 14h2M43 14h2M48 14h1M25 15h1M27 15h1M29 15h1M38 15h1M41 15h1M48 15h1M25 16h1M28 16h1M42 16h2M47 16h1M25 17h1M38 17h2M44 17h3M25 18h1M40 18h2M25 19h1M41 19h1M25 20h1M40 20h1M39 21h1M25 22h1M25 23h1M40 23h1M25 24h1M42 24h1M43 25h1M44 26h1M23 27h1M44 27h1M22 28h1M44 28h1M22 29h1M44 29h1M22 30h1M45 30h1M15 31h1M20 31h2M46 31h1M48 31h3M51 32h1M51 33h1M14 34h1M41 34h1M51 34h1M14 35h1M27 35h1M40 35h1M42 35h1M51 35h1M15 36h2M26 36h1M40 36h1M43 36h2M49 36h2M17 37h1M24 37h2M40 37h2M45 37h4M19 38h3M23 38h1M26 38h2M42 38h2M22 39h1M25 39h1M44 39h1M46 39h2M21 40h1M23 40h1M47 40h1M21 41h1M46 41h1M22 42h1M46 42h1M20 43h2M46 43h1M20 44h1M46 44h1M21 45h1M45 45h1M22 46h1M32 46h1M34 46h1M38 46h1M40 46h1M23 47h1M34 47h2M37 47h1M40 47h1M46 47h1M30 48h1M34 48h1M36 48h1M40 48h1M47 48h1M21 49h1M29 49h1M41 49h6M29 50h1M28 51h1M21 52h6" />
<path stroke="#313031" d="M30 6h1M31 7h1M32 8h1M34 8h1M49 8h1M33 10h1M35 12h1M33 13h1M32 14h1M34 14h1M36 14h1M32 15h1M34 15h1M36 15h1M27 16h1M32 16h1M27 17h1M31 17h1M27 18h1M29 18h1M39 18h1M27 19h1M29 19h1M28 20h1M30 20h1M29 21h1M28 22h1M28 38h2M30 39h2M40 39h1M32 40h1M40 40h1M32 41h1M34 41h1M38 41h1M40 41h1M32 42h1M34 42h1M38 42h1M40 42h2M33 43h2M38 43h2M43 43h1M34 44h1M40 44h3M34 45h1" />
<path stroke="#3d2225" d="M32 6h1M33 7h1M38 44h1M38 45h1" />
<path stroke="#001008" d="M33 6h1M39 45h1" />
<path stroke="#7b3441" d="M32 7h1M39 44h1" />
<path stroke="#8b2439" d="M34 7h1M31 9h1M29 12h1M46 16h1M39 26h1M43 26h1M39 27h1M42 27h2M34 29h1M44 35h2M17 36h1M37 36h1M45 36h1M48 36h1M31 37h1M37 37h1M34 38h4M34 39h1M37 39h1M37 40h1M46 40h1M26 41h1M30 41h1M36 41h2M30 42h1M30 43h2M25 46h1M25 47h1M27 47h1M27 48h1M26 49h1" />
<path stroke="#89253c" d="M33 8h1M32 9h2M29 10h3M29 11h2M37 14h1M45 14h1M37 15h1M44 15h2M44 16h2M50 34h1M50 35h1M46 36h2M30 38h2M33 40h3M38 40h2M33 41h1M35 41h1M39 41h1M33 42h1M35 42h1M39 42h1M42 42h2M32 43h1M35 43h1M40 43h3M35 44h1M35 45h1M35 46h3M36 47h1" />
<path stroke="#4f5968" d="M48 8h1M48 9h2M34 12h1M34 13h2M35 14h1M35 15h1M30 16h2M30 17h1M28 18h1M28 19h1M29 20h1M28 21h1" />
<path stroke="#4e596a" d="M51 8h1M46 9h2M50 9h1M34 10h1M34 11h1" />
<path stroke="#000408" d="M44 10h1M44 11h1" />
<path stroke="#6d3444" d="M45 10h1" />
<path stroke="#b4384a" d="M46 10h1M47 11h1M40 12h1M48 12h1M40 13h2M48 13h1M38 14h1M41 14h1M40 19h1M32 20h1M34 20h2M32 21h1M35 22h3M34 23h3M37 28h2M24 29h1M36 29h2M39 29h1M23 30h5M33 30h4M41 30h1M22 31h3M27 31h1M36 31h1M38 31h1M41 31h1M29 32h1M32 32h1M35 32h3M29 33h1M37 33h1M39 33h1M15 34h1M30 34h3M35 34h3M40 34h1M15 35h1M31 35h4M37 35h1M22 40h1M22 41h2M21 44h1" />
<path stroke="#52596a" d="M47 10h1M46 11h1" />
<path stroke="#9c596a" d="M48 10h1" />
<path stroke="#68404c" d="M49 10h1M48 11h1" />
<path stroke="#a44c62" d="M45 11h1" />
<path stroke="#001010" d="M49 11h1M26 21h1" />
<path stroke="#832c41" d="M30 12h1M31 13h1" />
<path stroke="#000c08" d="M31 12h1" />
<path stroke="#000808" d="M36 12h2M18 37h1" />
<path stroke="#b7374c" d="M38 12h2M46 12h2M38 13h2M46 13h2M36 20h2M36 21h2M30 32h2M30 33h2" />
<path stroke="#411c25" d="M30 13h1" />
<path stroke="#3c1920" d="M36 13h1" />
<path stroke="#b43c52" d="M37 13h1" />
<path stroke="#de556a" d="M26 14h1M33 14h1M26 15h1M33 15h1M26 16h1M33 16h1M26 17h1M32 17h2" />
<path stroke="#525968" d="M30 14h1M30 15h1M29 16h1M29 17h1" />
<path stroke="#bd3852" d="M42 14h1M42 15h1M38 20h1M38 21h1M23 42h1M23 43h1M30 46h1M23 49h1" />
<path stroke="#89273c" d="M46 14h2M46 15h2M32 38h2M32 39h2M36 42h2M36 43h2M36 44h2M36 45h2" />
<path stroke="#292c34" d="M31 15h1M28 17h1" />
<path stroke="#7e2536" d="M43 15h1M39 20h1M22 43h1" />
<path stroke="#293839" d="M34 16h1M35 17h1M31 18h1M30 19h1" />
<path stroke="#62444c" d="M35 16h1M30 18h1" />
<path stroke="#3c2326" d="M36 16h1M37 17h1" />
<path stroke="#001410" d="M37 16h1" />
<path stroke="#d55d73" d="M34 17h1M31 19h1" />
<path stroke="#b44052" d="M36 17h1" />
<path stroke="#e64c6a" d="M26 18h1" />
<path stroke="#e3546a" d="M32 18h1M32 19h1" />
<path stroke="#ffffff" d="M33 18h1M33 19h1M33 20h1M33 21h3M32 22h3M37 23h1M35 24h1M35 25h1M26 26h1M30 26h2M27 27h1M29 27h2M40 27h1M23 28h4M39 28h1M23 29h1M25 29h2M38 29h1M31 30h2M37 30h4M25 31h2M30 31h6M37 31h1M39 31h2M22 32h2M25 32h3M33 32h2M38 32h2M23 33h2M26 33h1M32 33h5M38 33h1M24 34h2M33 34h2M24 35h1M35 35h2M26 39h3M26 40h3M27 41h1M27 42h1" />
<path stroke="#e6506a" d="M34 18h1M34 19h1" />
<path stroke="#312c31" d="M35 18h1M37 18h1" />
<path stroke="#b4344a" d="M36 18h1M36 19h1" />
<path stroke="#b4354c" d="M38 18h1M38 19h2M31 20h1M30 21h2M28 31h2M40 32h2M40 33h1M22 44h2M28 44h2M22 45h1M29 45h1" />
<path stroke="#a94357" d="M26 19h1" />
<path stroke="#a94457" d="M35 19h1" />
<path stroke="#893141" d="M37 19h1" />
<path stroke="#a45062" d="M26 20h1" />
<path stroke="#36252b" d="M27 20h1" />
<path stroke="#6d3b47" d="M27 21h1" />
<path stroke="#393439" d="M26 22h2M27 23h1" />
<path stroke="#d5c66a" d="M29 22h1M26 23h1M28 23h2M28 28h1M28 29h2M17 32h1M19 32h1M16 33h1M18 33h2M22 50h1M24 50h1M23 51h1M25 51h1" />
<path stroke="#4a4439" d="M30 22h1M31 23h1" />
<path stroke="#eee6bd" d="M31 22h1" />
<path stroke="#73595e" d="M38 22h1" />
<path stroke="#200000" d="M39 22h1M33 45h1" />
<path stroke="#b7b091" d="M30 23h1" />
<path stroke="#4a444a" d="M32 23h1" />
<path stroke="#c2c0c2" d="M33 23h1" />
<path stroke="#c5b2bd" d="M38 23h2M44 40h1M44 46h1" />
<path stroke="#a49d4a" d="M26 24h1M27 25h1" />
<path stroke="#524e29" d="M27 24h1" />
<path stroke="#a99f47" d="M28 24h5M29 25h1M32 25h1M33 26h1M32 27h2M31 28h1M30 29h1M49 32h2M48 33h1M50 33h1M18 34h1M21 34h1M47 34h1M47 35h1" />
<path stroke="#414041" d="M33 24h1M28 25h1M30 25h2M33 25h1M32 26h1M31 27h1M27 28h1M29 28h2M27 29h1M31 29h1M28 30h3M43 31h1M16 32h1M18 32h1M21 32h1M48 32h1M17 33h1M20 33h1M22 33h1M41 33h1M45 33h1M49 33h1M20 34h1M22 34h1M46 34h1M20 35h2M46 35h1M22 38h1M24 44h2M23 45h1M28 45h1M23 46h1M29 46h1M29 47h1M42 48h2M23 50h1M25 50h1M22 51h1M24 51h1" />
<path stroke="#7b3c4a" d="M34 24h1M34 25h1M27 26h1M26 27h1" />
<path stroke="#ac344a" d="M36 24h1M38 34h1" />
<path stroke="#f6ffff" d="M37 24h1M36 25h1M39 34h1M38 35h1M34 36h2" />
<path stroke="#bab7bf" d="M38 24h2M38 25h2M42 28h2M42 29h2M42 30h2M42 31h1M42 32h4M42 33h3M28 34h2M28 35h2M21 36h3M22 37h2M24 45h2M28 46h1M42 46h2M28 47h1M42 47h2" />
<path stroke="#653a3f" d="M40 24h1M40 25h1" />
<path stroke="#310000" d="M41 24h1M24 40h1" />
<path stroke="#000008" d="M26 25h1M16 30h4M20 50h1M20 51h1" />
<path stroke="#debbc2" d="M37 25h1M39 35h1" />
<path stroke="#cdaebd" d="M41 25h1" />
<path stroke="#b4b6bd" d="M42 25h1M42 34h2M43 35h1M24 36h2M40 38h2M41 39h3M41 40h1M41 41h1M43 44h3M40 45h5M41 46h1M41 47h1M41 48h1M28 50h1" />
<path stroke="#180000" d="M24 26h2M45 46h1" />
<path stroke="#bfc0bf" d="M28 26h1" />
<path stroke="#414441" d="M29 26h1M28 27h1" />
<path stroke="#99957b" d="M34 26h1" />
<path stroke="#414439" d="M35 26h1M34 27h1" />
<path stroke="#623441" d="M36 26h1M37 27h1" />
<path stroke="#bab6bf" d="M37 26h1M36 27h1" />
<path stroke="#b7b6bd" d="M38 26h1M42 26h1M38 27h1M34 28h2M35 29h1M44 34h2M30 36h2M36 36h1M30 37h1M36 37h1M38 38h1M35 39h2M38 39h1M30 40h2M36 40h1M31 41h1M31 42h1M24 46h1M26 46h2M24 47h1M26 47h1M26 48h1M27 49h1" />
<path stroke="#b9b6c1" d="M40 26h2M41 27h1M24 32h1M25 33h1M27 33h1M25 35h1" />
<path stroke="#fff6ff" d="M24 27h1" />
<path stroke="#655254" d="M25 27h1" />
<path stroke="#c5be9c" d="M35 27h1" />
<path stroke="#b49141" d="M32 28h1M49 34h1" />
<path stroke="#4a3041" d="M33 28h1M32 29h1M48 34h1M48 35h1" />
<path stroke="#bab7c2" d="M36 28h1M28 32h1M28 33h1M30 35h1" />
<path stroke="#b7374a" d="M40 28h1M40 29h1M32 36h2M25 42h1M29 42h1M24 43h2M28 43h2M31 44h1M30 45h1" />
<path stroke="#892539" d="M41 28h1M41 29h1M32 37h2M24 42h1M28 42h1M30 44h1M31 45h1" />
<path stroke="#6d5041" d="M33 29h1M49 35h1" />
<path stroke="#3f3c3f" d="M44 30h1M27 34h1M29 48h1" />
<path stroke="#d5c673" d="M16 31h1M18 31h1M21 51h1" />
<path stroke="#47422b" d="M17 31h1M19 31h1M21 50h1" />
<path stroke="#bdb6bd" d="M44 31h2M26 34h1M26 35h1M28 48h1M28 49h1" />
<path stroke="#000400" d="M14 32h1M14 33h1" />
<path stroke="#e6d26a" d="M15 32h1" />
<path stroke="#d5ca62" d="M20 32h1" />
<path stroke="#524c34" d="M46 32h1M47 33h1" />
<path stroke="#000010" d="M47 32h1" />
<path stroke="#998d47" d="M15 33h1" />
<path stroke="#a49c57" d="M21 33h1" />
<path stroke="#a49957" d="M46 33h1" />
<path stroke="#8e2d41" d="M16 34h1M16 35h1" />
<path stroke="#413841" d="M17 34h1" />
<path stroke="#733041" d="M19 34h1M18 35h2M20 36h1M20 37h2" />
<path stroke="#fffaff" d="M23 34h1M23 35h1" />
<path stroke="#b42841" d="M17 35h1" />
<path stroke="#bfbcbf" d="M22 35h1" />
<path stroke="#833041" d="M18 36h2" />
<path stroke="#100000" d="M28 36h1M28 37h1M45 40h1" />
<path stroke="#cdb2bd" d="M29 36h1" />
<path stroke="#b7b7bd" d="M38 36h1" />
<path stroke="#6a2839" d="M39 36h1M38 37h2" />
<path stroke="#57232e" d="M19 37h1" />
<path stroke="#4f3b3f" d="M29 37h1" />
<path stroke="#832439" d="M34 37h1" />
<path stroke="#d0b6bd" d="M35 37h1" />
<path stroke="#5a2c39" d="M39 38h1M39 39h1" />
<path stroke="#bababa" d="M29 39h1" />
<path stroke="#fff2f6" d="M25 40h1" />
<path stroke="#9c2c41" d="M29 40h1M28 41h2M25 48h1M24 49h2" />
<path stroke="#c5aab4" d="M42 40h1M45 43h1" />
<path stroke="#392429" d="M43 40h1M42 41h1M45 42h1M44 43h1" />
<path stroke="#755052" d="M24 41h2" />
<path stroke="#685057" d="M43 41h1M44 42h1" />
<path stroke="#4c3b3f" d="M44 41h2" />
<path stroke="#a4304a" d="M26 42h1M26 43h2" />
<path stroke="#523439" d="M26 44h1M27 45h1" />
<path stroke="#7b5b65" d="M27 44h1" />
<path stroke="#573c3f" d="M32 44h1" />
<path stroke="#c5b6bd" d="M33 44h1M32 45h1" />
<path stroke="#cdaabd" d="M26 45h1" />
<path stroke="#802536" d="M31 46h1M30 47h1M23 48h1M22 49h1" />
<path stroke="#080000" d="M31 47h1M22 48h1M27 51h1" />
<path stroke="#523b3f" d="M44 47h2" />
<path stroke="#b7b6bf" d="M24 48h1" />
<path stroke="#948c3c" d="M44 48h2" />
<path stroke="#948941" d="M46 48h1" />
<path stroke="#ac594a" d="M26 50h1M26 51h1" />
<path stroke="#753b31" d="M27 50h1" />
</svg>