<svg xmlns="http://www.w3.org/2000/svg" viewBox="0 -0.5 68 56" shape-rendering="crispEdges">
<metadata>Made with Pixels to Svg https://codepen.io/shshaw/pen/XbxvNj</metadata>
<path stroke="#000400" d="M40 8h1M39 9h1M41 9h1M37 10h1M42 10h1M35 11h2M42 11h1M54 11h2M33 12h1M40 12h2M52 12h2M56 12h1M31 13h2M49 13h3M55 13h1M40 14h2M45 14h4M54 14h1M29 15h1M41 15h1M43 15h2M53 15h1M42 16h1M52 16h1M27 17h1M51 17h1M52 18h1M25 19h1M27 19h1M51 19h1M22 20h1M50 20h1M21 21h1M23 21h1M50 21h1M21 22h1M48 22h2M20 23h1M20 24h1M46 24h1M20 25h1M42 25h4M41 26h1M45 26h1M19 27h1M40 27h1M44 27h1M46 27h1M40 28h1M46 28h1M53 28h1M55 28h2M17 29h1M41 29h1M47 29h1M52 29h1M54 29h1M56 29h1M17 30h1M48 30h1M51 30h1M55 30h1M49 31h2M55 31h1M54 32h1M16 33h2M52 33h2M13 35h1M52 36h1M52 37h1M12 38h1M53 38h1M12 39h1M38 39h1M54 39h1M13 40h1M15 40h1M18 40h1M39 40h5M55 40h1M14 41h1M19 41h1M46 41h2M55 41h1M19 42h1M30 42h4M55 42h1M20 43h1M30 43h1M32 43h1M34 43h2M38 43h1M54 43h1M21 44h2M26 44h1M33 44h1M39 44h6M52 44h2M23 45h1M26 45h1M33 45h1M38 45h1M43 45h1M45 45h3M50 45h2M25 46h1M27 46h2M33 46h1M37 46h1M43 46h1M46 46h1M25 47h1M28 47h1M33 47h1M36 47h1M42 47h1M45 47h1M24 48h1M28 48h1M33 48h1M36 48h1M41 48h1M45 48h1M23 49h1M27 49h1M33 49h1M36 49h1M42 49h3M24 50h3M36 50h1M31 51h1M35 51h1M31 52h1M35 52h1M32 53h3" />
<path stroke="#dedf84" d="M40 9h1M37 11h1M33 13h1M52 14h2M52 15h1M46 16h4M46 17h1M50 18h2M44 19h4M50 19h1M41 20h5M41 21h2M40 22h2M40 23h1M23 24h1M39 24h1M42 24h4M23 25h1M38 25h2M22 26h2M29 26h1M37 26h3M23 27h1M29 27h1M36 27h2M45 27h1M35 28h1M44 28h2M23 29h1M31 29h1M35 29h1M18 30h1M20 30h1M24 30h2M30 30h2M34 30h2M37 30h1M42 30h2M19 31h1M25 31h5M34 31h1M37 31h2M42 31h1M22 34h1M44 35h2M28 36h1M43 36h1M29 37h1M42 37h1M26 38h2M41 38h1M14 39h2M26 39h1M14 40h1M27 40h1M33 40h1M37 40h1M26 41h2M30 41h8M42 41h2M26 42h1M38 42h2M45 42h1M26 43h1M39 43h5M27 44h1M46 44h2M27 45h1" />
<path stroke="#080c00" d="M38 10h1M30 14h1M28 16h1" />
<path stroke="#e7e77b" d="M39 10h1M38 11h1M31 14h1M30 15h1M29 16h1M28 17h1" />
<path stroke="#bdb93f" d="M40 10h2M40 11h2M32 14h2M38 14h2M32 15h2M38 15h2M34 16h2M34 17h2M30 20h4M30 21h4M30 22h2M30 23h2M16 36h1M16 37h2" />
<path stroke="#9c9e52" d="M39 11h1M31 15h1M29 17h1" />
<path stroke="#081000" d="M34 12h1" />
<path stroke="#f7f773" d="M35 12h1" />
<path stroke="#bdba42" d="M36 12h4M36 13h1M34 14h1M37 14h1M35 15h3M40 15h1M30 16h3M36 16h2M32 17h2M31 18h3M30 19h3M36 19h1M34 20h1M37 20h1M22 21h1M36 21h4M22 22h1M21 23h2M30 24h1M25 28h1M39 28h1M38 29h2M16 34h1M16 35h1M13 38h1M13 39h1" />
<path stroke="#e7e794" d="M54 12h2M54 13h1" />
<path stroke="#a7aa4c" d="M34 13h2" />
<path stroke="#424142" d="M37 13h1M35 14h2M34 15h1M33 16h1M38 16h4M30 17h2M36 17h2M39 17h2M47 17h3M30 18h1M34 18h2M44 18h4M33 19h1M40 19h2M35 20h2M38 20h3M46 20h4M34 21h2M40 21h1M43 21h3M23 22h1M25 22h1M35 22h1M38 22h2M23 23h1M25 23h1M27 23h1M35 23h1M39 23h1M41 23h1M22 24h1M24 24h1M27 24h1M31 24h1M38 24h1M22 25h1M24 25h1M27 25h1M30 25h2M36 25h2M30 26h1M36 26h1M30 27h1M35 27h1M38 27h2M24 28h1M30 28h2M34 28h1M38 28h1M24 29h2M30 29h1M32 29h1M34 29h1M26 30h4M32 30h2M38 30h2M41 30h1M32 31h2M39 31h1M41 31h1M43 31h1M28 32h1M45 32h1M48 32h2M28 33h1M45 33h3M23 34h1M34 34h2M44 34h2M22 35h2M48 35h2M19 36h1M21 36h1M24 36h2M38 36h1M47 36h1M19 37h1M25 37h1M38 37h1M46 37h2M45 38h1M48 38h1M23 39h1M45 39h1M48 39h1M20 40h4M22 41h1M51 41h1M23 42h1M52 42h1M52 43h1M36 45h2" />
<path stroke="#3f4020" d="M38 13h1" />
<path stroke="#000410" d="M39 13h1M14 34h2" />
<path stroke="#efeb9c" d="M52 13h2M40 18h2" />
<path stroke="#f7efa5" d="M49 14h1M48 15h2M43 16h1M42 17h2" />
<path stroke="#fffbb5" d="M50 14h1M45 15h3M44 16h1M41 17h1M50 44h2" />
<path stroke="#e1e183" d="M51 14h1M50 15h2M45 16h1M44 17h2" />
<path stroke="#424042" d="M50 16h2M50 17h1M40 26h1M40 29h1M46 29h1M51 31h1M38 38h2M39 39h1M25 48h1M42 48h3M24 49h2M32 52h3" />
<path stroke="#4a79a5" d="M38 17h1M34 19h2M24 22h1M26 22h2M24 23h1M26 23h1M25 24h2M25 25h2M46 32h2M38 35h2M23 41h1" />
<path stroke="#100400" d="M28 18h1M20 26h1M24 45h1" />
<path stroke="#35404e" d="M29 18h1M29 19h1M21 26h1M21 27h1M24 44h1M25 45h1" />
<path stroke="#496984" d="M36 18h2M37 19h1" />
<path stroke="#4a4942" d="M38 18h1" />
<path stroke="#ffffb5" d="M39 18h1M38 19h1" />
<path stroke="#e1e083" d="M42 18h2M48 18h2M42 19h2M48 19h2M40 24h2M40 25h2" />
<path stroke="#5a7d9c" d="M28 19h1M20 27h1M25 44h1" />
<path stroke="#c2c28e" d="M39 19h1" />
<path stroke="#080400" d="M24 20h1M26 20h1M31 33h1M44 41h2" />
<path stroke="#4f7aa4" d="M25 20h1M27 20h1M25 21h1M27 21h1" />
<path stroke="#626d5a" d="M28 20h1M26 26h1" />
<path stroke="#39455a" d="M29 20h1M28 21h1M27 26h1M26 27h1" />
<path stroke="#2b3f52" d="M24 21h1M26 21h1" />
<path stroke="#b5be5a" d="M29 21h1M27 27h1" />
<path stroke="#73a6f7" d="M46 21h4M34 22h1M34 23h1M38 23h1M32 24h2M35 24h3M32 25h1M34 25h2M31 26h2M34 26h2M31 27h4M32 28h2M33 29h1M40 30h1M46 30h2M30 31h2M40 31h1M47 31h2M36 34h1M41 34h1M34 35h3M40 35h2M14 36h1M33 36h3M39 36h1M34 37h1M39 37h1M26 40h1M34 40h2M46 40h2M34 42h2" />
<path stroke="#424139" d="M28 22h1M29 23h1M18 38h1M19 39h1" />
<path stroke="#b0af5a" d="M29 22h1" />
<path stroke="#738583" d="M32 22h1M36 22h1" />
<path stroke="#524d31" d="M33 22h1M37 22h1M32 23h1M36 23h1" />
<path stroke="#39454a" d="M42 22h1" />
<path stroke="#6baaff" d="M43 22h1" />
<path stroke="#7b9fb2" d="M44 22h1" />
<path stroke="#4a7dbd" d="M45 22h1M44 23h1" />
<path stroke="#677573" d="M46 22h2M19 28h1M19 29h1" />
<path stroke="#e7e76b" d="M28 23h1" />
<path stroke="#94bed6" d="M33 23h1M37 23h1" />
<path stroke="#5277a4" d="M42 23h2" />
<path stroke="#dee39c" d="M45 23h1" />
<path stroke="#cee3b5" d="M46 23h1M18 29h1" />
<path stroke="#000831" d="M47 23h1M18 28h1" />
<path stroke="#5e615e" d="M21 24h1M21 25h1" />
<path stroke="#efeb63" d="M28 24h1" />
<path stroke="#4a4531" d="M29 24h1" />
<path stroke="#4a7ba4" d="M34 24h1M33 25h1M33 26h1M35 31h1M46 31h1M40 34h1M15 36h1M29 36h1M14 37h2M28 37h1M35 37h1M36 40h1M27 42h1M27 43h1" />
<path stroke="#b8b352" d="M28 25h2" />
<path stroke="#f7cf8c" d="M24 26h1" />
<path stroke="#4a3c42" d="M25 26h1M25 27h1" />
<path stroke="#605f5d" d="M28 26h1M28 27h1" />
<path stroke="#de8384" d="M22 27h1M22 28h2M22 29h1M21 30h1M20 31h2M24 31h1M42 36h1M43 37h1M40 38h1M27 39h1M40 39h2M30 40h3M40 42h5M44 43h2" />
<path stroke="#bd9e73" d="M24 27h1" />
<path stroke="#6d7768" d="M20 28h1M36 29h1M45 31h1" />
<path stroke="#394152" d="M21 28h1M37 28h1M20 29h1M37 29h1M45 30h1M44 31h1" />
<path stroke="#a59e31" d="M26 28h2" />
<path stroke="#636152" d="M28 28h1" />
<path stroke="#dee373" d="M29 28h1M29 29h1" />
<path stroke="#d6e394" d="M36 28h1M21 29h1M44 30h1" />
<path stroke="#000008" d="M42 28h2M18 31h1M18 32h1M18 33h1M29 34h2M28 35h1M31 35h1M32 38h2M36 43h2" />
<path stroke="#5a8ae7" d="M26 29h1" />
<path stroke="#8c976d" d="M27 29h1" />
<path stroke="#b5b768" d="M28 29h1" />
<path stroke="#4a4a34" d="M42 29h1M19 33h1M28 34h1" />
<path stroke="#dedf8c" d="M43 29h1M19 32h1M34 32h1M34 33h1M29 35h1" />
<path stroke="#6090d0" d="M44 29h2M36 30h1M36 31h1" />
<path stroke="#de8284" d="M53 29h1M55 29h1M52 30h1M54 30h1M52 31h3M22 32h2M52 32h2M48 33h2M48 34h2M46 36h1M44 38h1M51 38h2M44 39h1M52 39h2M53 40h2M54 41h1M54 42h1M33 43h1M36 44h3" />
<path stroke="#4a4a31" d="M19 30h1" />
<path stroke="#ce9073" d="M22 30h1M23 31h1M21 32h1M21 33h1" />
<path stroke="#efd394" d="M23 30h1M20 33h1M28 40h1" />
<path stroke="#9c593c" d="M53 30h1M22 33h2M50 38h1M50 39h2M52 40h1M52 41h2" />
<path stroke="#ad4d52" d="M22 31h1M20 32h1" />
<path stroke="#836d52" d="M24 32h1" />
<path stroke="#e7df84" d="M25 32h1M24 33h1" />
<path stroke="#c0c1ad" d="M26 32h1" />
<path stroke="#424539" d="M27 32h1M26 33h1" />
<path stroke="#aabfc0" d="M29 32h1M29 33h1" />
<path stroke="#adc3bd" d="M30 32h1M30 33h1" />
<path stroke="#3f433f" d="M31 32h1" />
<path stroke="#7ba6f7" d="M32 32h1M30 36h1M24 42h1M28 42h1" />
<path stroke="#333c52" d="M33 32h1M33 33h1" />
<path stroke="#6a7870" d="M35 32h1" />
<path stroke="#a7aab8" d="M36 32h1" />
<path stroke="#39414a" d="M37 32h1M36 33h1" />
<path stroke="#214163" d="M38 32h1" />
<path stroke="#99adc0" d="M39 32h1" />
<path stroke="#73a4f9" d="M40 32h2M40 33h2M46 38h2M46 39h2" />
<path stroke="#21456b" d="M42 32h1" />
<path stroke="#657b8e" d="M43 32h1M42 33h1" />
<path stroke="#6ba6ff" d="M44 32h1" />
<path stroke="#e18384" d="M50 32h2M50 33h2M46 34h2M46 35h2M44 36h2M50 36h2M44 37h2M50 37h2M42 38h2M42 39h2" />
<path stroke="#523439" d="M25 33h1" />
<path stroke="#ffffe7" d="M27 33h1" />
<path stroke="#100800" d="M32 33h1" />
<path stroke="#314563" d="M35 33h1" />
<path stroke="#dedfef" d="M37 33h1" />
<path stroke="#d6e3ef" d="M38 33h1" />
<path stroke="#5d7791" d="M39 33h1" />
<path stroke="#efe7d6" d="M43 33h1" />
<path stroke="#5673a0" d="M44 33h1" />
<path stroke="#dee084" d="M17 34h1M17 35h1" />
<path stroke="#efd784" d="M18 34h1" />
<path stroke="#080000" d="M19 34h1M18 35h1M50 42h1M51 43h1" />
<path stroke="#4a3839" d="M20 34h1M20 35h1" />
<path stroke="#7e6e4f" d="M21 34h1" />
<path stroke="#525252" d="M24 34h1M24 35h1" />
<path stroke="#000000" d="M25 34h1M32 50h1" />
<path stroke="#ac9798" d="M26 34h1" />
<path stroke="#fffbf7" d="M27 34h1M26 35h1" />
<path stroke="#bdd3a5" d="M31 34h1M32 39h1M37 42h1" />
<path stroke="#080800" d="M32 34h1M31 36h1M30 37h1M25 42h1M29 42h1M49 42h1M25 43h1M28 43h1" />
<path stroke="#39384c" d="M33 34h1M33 35h1" />
<path stroke="#56759c" d="M37 34h1" />
<path stroke="#ffe7bd" d="M38 34h2M20 36h1M20 37h2M24 37h1M22 38h2M21 39h2M36 46h1M43 47h1M34 50h2M34 51h1" />
<path stroke="#ada6de" d="M42 34h1M40 36h1" />
<path stroke="#524139" d="M43 34h1M42 35h1M41 36h1M40 37h1" />
<path stroke="#4a3234" d="M50 34h1" />
<path stroke="#000808" d="M51 34h1M51 35h1M31 38h1" />
<path stroke="#6e7a52" d="M14 35h1" />
<path stroke="#a5b673" d="M15 35h1" />
<path stroke="#7b6b42" d="M19 35h1" />
<path stroke="#e7db7b" d="M21 35h1" />
<path stroke="#f7f7f7" d="M25 35h1" />
<path stroke="#5a3439" d="M27 35h1" />
<path stroke="#7e8c70" d="M30 35h1M33 39h1M36 42h1" />
<path stroke="#525173" d="M32 35h1" />
<path stroke="#394542" d="M37 35h1" />
<path stroke="#8e84a7" d="M43 35h1M41 37h1" />
<path stroke="#de868c" d="M50 35h1" />
<path stroke="#000800" d="M12 36h1M26 36h2M12 37h1M16 39h2M36 39h2M24 40h1M25 41h1M48 45h2" />
<path stroke="#73aaf7" d="M13 36h1M27 37h1M37 38h1M24 41h1" />
<path stroke="#948734" d="M17 36h1" />
<path stroke="#948f3c" d="M18 36h1" />
<path stroke="#fce5c0" d="M22 36h2M22 37h2M34 46h2M34 47h2M34 48h2M34 49h2" />
<path stroke="#634942" d="M32 36h1M32 37h2" />
<path stroke="#427dbd" d="M36 36h1M37 37h1" />
<path stroke="#7ea0c5" d="M37 36h1" />
<path stroke="#4a596b" d="M48 36h1M48 37h1" />
<path stroke="#e7796b" d="M49 36h1" />
<path stroke="#4c74a4" d="M13 37h1M26 37h1M36 38h1M25 40h1" />
<path stroke="#bdb639" d="M18 37h1" />
<path stroke="#2e3c52" d="M31 37h1M24 43h1M29 43h1" />
<path stroke="#f7e7d6" d="M36 37h1" />
<path stroke="#98696b" d="M49 37h1" />
<path stroke="#918836" d="M14 38h2" />
<path stroke="#84812c" d="M16 38h1" />
<path stroke="#c6be42" d="M17 38h1" />
<path stroke="#e7827b" d="M19 38h1" />
<path stroke="#e28383" d="M20 38h2M20 39h1" />
<path stroke="#4f512e" d="M24 38h1" />
<path stroke="#9f9e54" d="M25 38h1" />
<path stroke="#ffc794" d="M28 38h1" />
<path stroke="#52344a" d="M29 38h1" />
<path stroke="#4a4031" d="M30 38h1" />
<path stroke="#737777" d="M34 38h1" />
<path stroke="#e7e7de" d="M35 38h1" />
<path stroke="#a0593d" d="M49 38h1M49 39h1M50 40h2M20 41h2M50 41h1M22 42h1M53 42h1M22 43h2M53 43h1" />
<path stroke="#94615a" d="M18 39h1" />
<path stroke="#000408" d="M24 39h1" />
<path stroke="#efeb7b" d="M25 39h1" />
<path stroke="#c5967b" d="M28 39h2" />
<path stroke="#deb284" d="M30 39h2M40 41h2" />
<path stroke="#000810" d="M34 39h2" />
<path stroke="#9c5942" d="M19 40h1M23 44h1" />
<path stroke="#afa283" d="M29 40h1" />
<path stroke="#dea284" d="M38 40h1M38 41h2" />
<path stroke="#2e3f4f" d="M44 40h1" />
<path stroke="#547a9f" d="M45 40h1" />
<path stroke="#4e3429" d="M48 40h1" />
<path stroke="#9c5d42" d="M49 40h1M49 41h1" />
<path stroke="#707173" d="M28 41h1" />
<path stroke="#314163" d="M29 41h1" />
<path stroke="#000c10" d="M48 41h1" />
<path stroke="#9f5a3c" d="M20 42h2M21 43h1" />
<path stroke="#dee37b" d="M46 42h2" />
<path stroke="#acac6e" d="M48 42h1" />
<path stroke="#837556" d="M51 42h1" />
<path stroke="#ce8e63" d="M46 43h1" />
<path stroke="#d3aa6b" d="M47 43h1" />
<path stroke="#ffffa5" d="M48 43h2" />
<path stroke="#ffebad" d="M50 43h1" />
<path stroke="#000500" d="M28 44h2M28 45h2" />
<path stroke="#423c42" d="M34 44h1M35 45h1" />
<path stroke="#c0a094" d="M35 44h1" />
<path stroke="#efe3a5" d="M45 44h1M44 45h1" />
<path stroke="#aaac68" d="M48 44h1" />
<path stroke="#ffff9c" d="M49 44h1" />
<path stroke="#ffd3bd" d="M34 45h1" />
<path stroke="#8e8b7e" d="M26 46h1M26 47h2" />
<path stroke="#a49884" d="M44 46h1" />
<path stroke="#f7e3c6" d="M45 46h1M44 47h1" />
<path stroke="#8c8a84" d="M26 48h2" />
<path stroke="#464742" d="M26 49h1" />
<path stroke="#f7dfc6" d="M33 50h1" />
<path stroke="#524a42" d="M32 51h2" />
</svg>