<svg xmlns="http://www.w3.org/2000/svg" viewBox="0 -0.5 80 80" shape-rendering="crispEdges">
<metadata>Made with Pixels to Svg https://codepen.io/shshaw/pen/XbxvNj</metadata>
<path stroke="#734a4a" d="M70 13h4M21 14h2M68 14h1M24 15h1M66 15h2M26 16h1M64 16h1M27 17h1M63 17h1M29 18h1M61 18h1M30 19h1M60 19h1M31 20h1M59 20h1M32 21h1M58 21h1M70 21h2M33 22h1M46 22h1M57 22h1M34 23h1M46 23h1M50 23h1M41 24h1M46 24h1M50 24h1M53 24h1M56 24h1M35 25h1M42 25h1M50 25h1M53 25h1M55 25h1M67 25h2M36 26h1M53 26h1M55 26h1M36 27h2M54 27h1M18 35h3M15 36h3M20 36h1M13 37h2M16 37h1M19 37h1M12 38h1M15 38h1M15 39h1M17 43h2M45 43h1M9 44h1M48 44h1M18 45h2M32 46h2M51 46h1M56 46h2M31 47h1M8 48h1M21 48h2M30 48h1M23 49h3M26 50h2M28 51h1M62 51h1M33 52h1M33 53h1M61 53h1M63 53h1M34 54h1M62 55h1M51 56h1M8 57h1M62 58h1M61 59h1M9 60h1M60 61h1M10 63h1M59 63h1" />
<path stroke="#a5634a" d="M69 14h1M72 14h1M23 15h1M71 15h2M25 16h1M65 16h1M69 16h3M22 17h1M28 17h1M62 17h1M68 17h4M22 18h2M28 18h1M62 18h1M66 18h6M23 19h1M65 19h6M23 20h2M64 20h7M23 21h3M63 21h7M24 22h3M45 22h1M49 22h2M61 22h9M24 23h4M44 23h1M48 23h1M56 23h2M60 23h9M24 24h5M34 24h2M40 24h1M43 24h1M47 24h1M52 24h1M59 24h9M25 25h5M40 25h1M43 25h1M51 25h1M54 25h1M58 25h9M26 26h6M40 26h1M58 26h9M26 27h8M39 27h1M57 27h9M27 28h10M38 28h1M54 28h1M57 28h8M28 29h8M37 29h2M56 29h8M29 30h6M37 30h1M40 30h1M46 30h1M50 30h1M52 30h2M56 30h7M31 31h4M36 31h2M39 31h2M42 31h1M45 31h2M49 31h6M56 31h5M33 32h1M36 32h7M44 32h16M35 33h24M35 34h22M35 35h24M34 36h25M34 37h25M34 38h26M34 39h26M34 40h27M34 41h27M35 42h4M45 42h16M35 43h2M48 43h12M35 44h1M49 44h11M51 45h1M56 45h3M59 49h1M13 50h2M16 50h2M25 50h1M60 50h1M10 51h1M13 51h6M27 51h1M60 51h1M9 52h3M13 52h7M28 52h1M61 52h1M9 53h12M29 53h1M8 54h14M61 54h1M8 55h16M28 55h1M30 55h1M8 56h18M27 56h1M29 56h1M31 56h1M9 57h18M28 57h1M30 57h2M34 57h2M9 58h24M34 58h3M42 58h4M48 58h1M51 58h1M9 59h24M34 59h4M40 59h12M10 60h23M35 60h18M10 61h24M35 61h20M10 62h24M35 62h20M11 63h23M35 63h18M54 63h1M11 64h23M35 64h18M54 64h2M11 65h23M35 65h17M54 65h2M12 66h22M35 66h17M53 66h3" />
<path stroke="#d69c4a" d="M70 14h2M22 15h1M68 15h3M22 16h3M66 16h3M23 17h4M64 17h4M24 18h4M63 18h3M24 19h6M61 19h4M25 20h6M60 20h4M26 21h6M59 21h4M27 22h6M58 22h3M28 23h6M58 23h2M29 24h5M57 24h2M30 25h5M45 25h2M56 25h2M32 26h4M42 26h5M48 26h4M54 26h1M56 26h2M34 27h2M40 27h14M55 27h2M39 28h15M55 28h2M39 29h17M38 30h2M41 30h5M47 30h3M51 30h1M54 30h2M38 31h1M41 31h1M43 31h2M47 31h2M55 31h1M43 32h1M17 49h2M22 49h1M18 50h7M19 51h8M20 52h8M21 53h8M22 54h8M24 55h4M29 55h1M26 56h1M28 56h1M30 56h1M27 57h1M29 57h1" />
<path stroke="#523121" d="M73 14h1M21 15h1M73 15h1M21 16h1M72 16h2M21 17h1M21 18h1M72 18h1M21 19h2M71 19h2M71 20h1M22 22h2M70 22h1M69 23h1M68 24h1M24 26h2M39 26h1M67 26h1M38 27h1M37 28h1M36 29h1M35 30h2M30 31h1M61 31h1M30 32h1M32 32h1M34 32h2M61 32h1M32 33h1M59 33h1M57 34h1M33 35h2M59 37h1M18 38h1M60 38h1M18 39h1M60 39h1M17 40h1M10 41h1M17 41h1M17 42h1M33 42h2M39 42h6M37 43h2M46 43h2M60 43h1M8 44h1M18 44h1M36 44h1M34 45h2M49 45h2M52 45h4M59 45h1M19 46h1M20 47h1M58 47h2M7 48h1M60 48h1M30 49h1M61 49h1M29 50h1M62 50h1M29 51h1M29 52h1M63 52h1M30 53h1M30 54h2M64 54h1M34 55h1M45 55h1M33 56h1M35 56h1M38 56h1M44 56h1M48 56h1M62 56h1M64 56h1M7 57h1M32 57h2M36 57h1M39 57h1M42 57h2M45 57h1M47 57h1M51 57h1M62 57h1M65 57h1M37 58h1M39 58h3M46 58h2M49 58h2M52 58h1M65 58h1M38 59h2M52 59h1M54 59h1M63 59h1M66 59h1M8 60h1M33 60h2M53 60h1M61 60h1M63 60h1M55 61h1M55 62h1M60 62h1M62 62h1M53 63h1M55 63h1M10 64h1M59 64h1M52 65h1M58 65h1M58 66h1" />
<path stroke="#000000" d="M72 17h1M22 20h1M22 21h1M23 23h1M23 24h1M24 25h1M25 27h1M66 27h1M26 28h1M65 28h1M27 29h1M64 29h1M28 30h1M63 30h1M29 31h1M35 31h1M62 31h1M31 32h1M60 32h1M33 33h2M60 33h1M34 34h1M58 34h2M59 35h1M33 36h1M59 36h1M33 37h1M33 38h1M11 39h1M33 39h1M10 40h1M33 40h1M61 40h1M33 41h1M61 41h1M9 42h1M61 42h1M9 43h1M34 43h1M61 43h1M34 44h1M60 44h1M8 45h1M8 46h1M58 46h1M8 47h1M7 49h1M7 50h1M7 51h1M7 52h1M7 53h1M7 54h1M7 55h1M31 55h1M64 55h1M7 56h1M32 56h1M34 56h1M45 56h1M44 57h1M48 57h1M8 58h1M33 58h1M8 59h1M33 59h1M54 60h1M64 60h3M9 61h1M34 61h1M63 61h1M9 62h1M34 62h1M9 63h1M34 63h1M60 63h1M62 63h1M34 64h1M53 64h1M56 64h1M61 64h2M10 65h1M34 65h1M53 65h1M56 65h1M11 66h1M34 66h1M52 66h1M56 66h2" />
<path stroke="#e6bd7b" d="M45 23h1M49 23h1M44 24h2M48 24h2M41 25h1M44 25h1M47 25h3M52 25h1M41 26h1M47 26h1M52 26h1" />
<path stroke="#bd9c7b" d="M18 36h2M15 37h1M17 37h2M13 38h2M16 38h2M12 39h3M16 39h2M11 40h5M11 41h5M10 42h4M15 42h1M10 43h4M39 43h6M10 44h4M37 44h11M9 45h5M36 45h13M9 46h5M35 46h16M52 46h4M9 47h6M35 47h23M9 48h6M31 48h1M34 48h24M8 49h9M33 49h26M8 50h5M15 50h1M30 50h1M33 50h27M8 51h2M11 51h2M30 51h1M32 51h28M8 52h1M12 52h1M30 52h3M34 52h27M8 53h1M31 53h2M34 53h27M32 54h2M35 54h26M62 54h1M32 55h2M35 55h10M46 55h16M36 56h2M39 56h5M46 56h2M49 56h2M52 56h10M63 56h1M37 57h2M40 57h2M46 57h1M49 57h2M52 57h10M63 57h2M38 58h1M53 58h9M63 58h2M53 59h1M55 59h6M62 59h1M64 59h2M55 60h6M62 60h1M56 61h4M61 61h2M56 62h4M61 62h1M56 63h3M61 63h1M57 64h2M57 65h1" />
<path stroke="#e6c594" d="M16 40h1M16 41h1M14 42h1M16 42h1M14 43h3M14 44h4M14 45h4M14 46h5M34 46h1M15 47h5M32 47h3M15 48h6M32 48h2M58 48h2M19 49h3M31 49h2M60 49h1M31 50h2M61 50h1M31 51h1M61 51h1M62 52h1M62 53h1M63 54h1M63 55h1" />
</svg>