<svg xmlns="http://www.w3.org/2000/svg" viewBox="0 -0.5 80 80" shape-rendering="crispEdges">
<metadata>Made with Pixels to Svg https://codepen.io/shshaw/pen/XbxvNj</metadata>
<path stroke="#7b5229" d="M51 6h1M55 8h1M50 9h1M55 9h2M11 11h1M49 11h1M57 11h1M12 12h1M13 13h1M55 13h1M58 13h1M35 14h6M46 14h1M55 14h1M30 15h3M42 15h1M54 15h3M59 15h1M19 16h2M26 16h2M54 16h3M22 17h2M53 17h5M60 17h1M53 18h5M52 19h6M60 19h1M12 20h2M51 20h8M12 21h3M26 21h1M50 21h9M11 22h5M25 22h1M33 22h1M49 22h10M11 23h6M24 23h1M33 23h1M47 23h12M11 24h7M45 24h15M12 25h8M23 25h1M32 25h2M39 25h1M41 25h1M43 25h17M12 26h10M30 26h5M36 26h1M38 26h1M40 26h1M42 26h1M44 26h16M12 27h11M28 27h8M37 27h1M39 27h1M41 27h19M13 28h9M23 28h1M27 28h9M37 28h23M13 29h9M23 29h1M26 29h9M38 29h22M13 30h9M23 30h11M35 30h2M39 30h21M14 31h8M23 31h10M34 31h5M40 31h20M14 32h7M22 32h10M33 32h7M41 32h19M15 33h6M22 33h9M32 33h8M41 33h18M16 34h5M22 34h8M31 34h10M42 34h17M17 35h4M22 35h7M30 35h1M36 35h5M42 35h18M18 36h3M22 36h6M39 36h2M42 36h17M19 37h1M22 37h5M42 37h16M22 38h4M42 38h15M22 39h3M44 39h11M22 40h3M29 40h3M43 40h1M45 40h8M22 41h2M28 41h1M32 41h1M46 41h6M22 42h2M27 42h1M47 42h4M17 43h1M22 43h1M24 43h1M47 43h2M24 44h2M16 45h1M23 45h3M23 46h2M12 47h1M22 47h3M48 47h1M11 48h1M22 48h3M11 49h1M22 49h3M7 51h1M23 51h2M27 51h1M7 52h1M19 52h2M22 52h3M26 52h4M16 53h5M22 53h3M26 53h6M14 54h3M18 54h2M21 54h3M25 54h9M11 55h1M17 55h1M19 55h1M21 55h3M25 55h10M10 56h1M18 56h1M21 56h3M25 56h11M37 56h1M9 57h1M19 57h1M21 57h2M25 57h12M20 58h1M29 58h9M19 59h2M22 59h2M25 59h3M31 59h8M18 60h2M21 60h2M24 60h6M33 60h7M17 61h3M21 61h2M24 61h7M35 61h6M15 62h5M21 62h2M24 62h8M33 62h2M37 62h4M14 63h6M21 63h1M23 63h10M34 63h3M39 63h2M12 64h7M20 64h2M23 64h11M35 64h4M41 64h3M11 65h8M20 65h2M23 65h12M36 65h7M9 66h10M20 66h2M24 66h12M37 66h7M8 67h8M20 67h2M26 67h11M38 67h8M49 67h1M6 68h7M18 68h1M20 68h2M23 68h2M28 68h10M39 68h8M50 68h1M6 69h4M14 69h3M18 69h1M20 69h2M23 69h4M30 69h9M40 69h8M51 69h1M11 70h5M18 70h1M20 70h1M22 70h6M29 70h1M32 70h8M41 70h11M10 71h6M17 71h2M20 71h1M22 71h6M29 71h3M34 71h7M42 71h11M9 72h7M17 72h2M21 72h6M28 72h6M36 72h5M42 72h11" />
<path stroke="#523119" d="M52 6h2M51 7h1M54 7h1M50 8h1M49 10h1M56 10h1M10 11h1M9 12h1M48 12h1M57 12h1M9 13h1M47 13h1M45 14h1M58 14h1M43 15h2M59 16h1M60 18h1M9 19h1M61 19h1M9 20h1M10 21h1M61 22h2M24 24h1M34 24h1M10 25h2M34 25h1M23 26h1M35 26h1M36 27h1M11 28h2M22 28h1M36 28h1M35 29h1M37 29h1M34 30h1M37 30h1M13 31h1M33 31h1M61 31h2M21 32h1M32 32h1M31 33h1M40 33h1M15 34h1M30 34h1M60 34h2M16 35h1M29 35h1M35 35h1M28 36h1M37 36h2M60 36h1M27 37h1M39 37h1M40 38h1M42 39h1M55 39h1M57 39h1M55 40h1M17 41h1M20 41h1M41 41h1M43 41h1M53 41h1M15 42h1M19 42h1M33 42h1M42 42h1M45 42h1M14 43h1M18 43h1M27 43h1M34 43h1M39 43h1M41 43h1M14 44h1M16 44h2M26 44h1M35 44h1M13 45h1M15 45h1M22 45h1M26 45h1M36 45h1M14 46h1M22 46h1M25 46h1M37 46h1M39 46h1M47 46h1M13 47h1M21 47h1M25 47h1M38 47h1M12 48h1M39 48h2M48 48h1M10 49h1M40 49h1M49 49h1M9 50h1M20 50h1M41 50h1M50 50h1M8 51h1M18 51h1M25 51h2M29 51h1M42 51h1M51 51h1M6 52h1M15 52h1M18 52h1M25 52h1M32 52h1M43 52h1M52 52h1M5 53h1M25 53h1M34 53h1M44 53h1M53 53h1M4 54h1M24 54h1M36 54h1M45 54h1M54 54h1M4 55h1M24 55h1M38 55h1M46 55h1M9 56h1M11 56h1M24 56h1M40 56h1M47 56h1M10 57h1M42 57h1M48 57h1M9 58h1M17 58h1M28 58h1M44 58h1M48 58h1M8 59h1M14 59h1M17 59h1M8 60h1M11 60h1M20 60h1M32 60h1M16 61h1M13 62h1M23 62h1M13 63h1M20 63h1M22 63h1M44 63h1M10 64h1M19 64h1M46 64h1M10 65h1M48 65h1M7 66h1M7 67h1M16 67h1M25 67h1M13 68h1M27 68h1M10 69h1M16 70h2M21 70h1M41 72h1" />
<path stroke="#cea573" d="M52 7h2M51 8h4M51 9h1M54 9h1M50 10h2M50 11h1M11 12h1M49 12h2M11 13h2M48 13h2M12 14h2M47 14h3M13 15h3M34 15h8M45 15h4M14 16h4M29 16h19M16 17h5M25 17h21M18 18h14M21 19h7" />
<path stroke="#9c7331" d="M52 9h2M52 10h3M51 11h6M10 12h1M51 12h6M10 13h1M50 13h5M56 13h2M10 14h2M14 14h2M34 14h1M41 14h1M50 14h5M56 14h2M10 15h3M16 15h2M29 15h1M33 15h1M49 15h5M57 15h2M10 16h4M18 16h1M25 16h1M28 16h1M48 16h6M57 16h2M10 17h6M21 17h1M24 17h1M47 17h6M58 17h2M10 18h8M33 18h20M58 18h2M10 19h10M29 19h23M58 19h2M10 20h2M14 20h37M59 20h2M11 21h1M15 21h11M27 21h23M59 21h2M16 22h9M26 22h7M34 22h15M59 22h2M17 23h7M25 23h8M34 23h13M59 23h3M18 24h6M25 24h9M35 24h10M60 24h2M20 25h3M24 25h8M35 25h4M40 25h1M42 25h1M60 25h2M22 26h1M24 26h6M37 26h1M39 26h1M41 26h1M43 26h1M60 26h2M24 27h4M38 27h1M40 27h1M60 27h2M24 28h3M60 28h2M24 29h2M60 29h2M60 30h2M60 31h1M60 32h1M59 33h2M59 34h1M31 35h4M29 36h3M28 37h2M27 38h2M26 39h2M26 40h3M25 41h3M20 42h1M25 42h2M34 42h2M43 42h2M15 43h1M19 43h2M25 43h2M29 43h2M35 43h4M42 43h1M45 43h1M15 44h1M18 44h4M27 44h6M36 44h3M41 44h2M45 44h2M14 45h1M17 45h5M27 45h8M37 45h2M41 45h2M44 45h3M15 46h7M26 46h11M38 46h1M41 46h6M14 47h7M26 47h12M39 47h1M41 47h7M13 48h8M26 48h13M42 48h6M12 49h9M26 49h14M44 49h4M10 50h10M28 50h13M45 50h3M9 51h9M30 51h12M46 51h1M8 52h7M33 52h10M47 52h1M6 53h7M35 53h9M48 53h1M5 54h6M17 54h1M37 54h8M49 54h1M5 55h4M13 55h4M18 55h1M39 55h7M50 55h1M12 56h6M19 56h1M41 56h6M50 56h2M11 57h8M43 57h5M51 57h3M10 58h7M45 58h3M51 58h4M9 59h5M9 60h2M43 65h3M44 66h4M46 67h3M47 68h3M48 69h3" />
<path stroke="#bd8c42" d="M55 10h1M46 17h1M32 18h1M20 19h1M28 19h1M32 36h5M30 37h9M20 38h1M29 38h11M19 39h2M28 39h14M18 40h3M32 40h11M18 41h2M29 41h3M33 41h8M17 42h2M28 42h5M36 42h4M28 43h1M31 43h3M43 43h2M33 44h2M43 44h2M35 45h1M43 45h1M48 49h1M48 50h2M47 51h4M48 52h4M49 53h4M50 54h4M51 55h4M52 56h3M54 57h1" />
<path stroke="#000000" d="M9 14h1M9 15h1M9 16h1M9 17h1M9 18h1M61 20h1M61 21h1M10 22h1M10 23h1M62 23h1M10 24h1M62 24h1M62 25h1M11 26h1M62 26h1M11 27h1M23 27h1M62 27h1M62 28h1M12 29h1M22 29h1M36 29h1M62 29h1M12 30h1M22 30h1M38 30h1M62 30h1M12 31h1M22 31h1M39 31h1M13 32h1M40 32h1M61 32h1M14 33h1M21 33h1M61 33h1M14 34h1M21 34h1M41 34h1M15 35h1M21 35h1M41 35h1M60 35h1M16 36h2M21 36h1M41 36h1M59 36h1M17 37h2M20 37h2M40 37h2M58 37h2M18 38h2M21 38h1M26 38h1M41 38h1M57 38h2M18 39h1M21 39h1M25 39h1M43 39h1M56 39h1M17 40h1M21 40h1M25 40h1M44 40h1M53 40h2M16 41h1M21 41h1M24 41h1M42 41h1M44 41h2M52 41h1M16 42h1M21 42h1M24 42h1M40 42h2M46 42h1M51 42h1M16 43h1M21 43h1M23 43h1M40 43h1M46 43h1M49 43h2M72 43h1M22 44h2M39 44h2M47 44h3M68 44h1M39 45h2M47 45h1M67 45h1M73 45h1M13 46h1M40 46h1M66 46h1M40 47h1M66 47h1M21 48h1M25 48h1M41 48h1M65 48h2M71 48h1M74 48h1M21 49h1M25 49h1M41 49h3M66 49h1M21 50h7M42 50h1M44 50h1M66 50h1M19 51h4M28 51h1M45 51h1M75 51h1M16 52h2M21 52h1M30 52h2M46 52h1M75 52h1M13 53h3M21 53h1M32 53h2M47 53h1M72 53h1M75 53h1M11 54h3M20 54h1M34 54h2M48 54h1M72 54h1M75 54h1M9 55h2M12 55h1M20 55h1M35 55h3M49 55h1M55 55h1M72 55h1M75 55h1M5 56h4M20 56h1M36 56h1M38 56h2M49 56h1M55 56h1M58 56h1M72 56h1M75 56h1M8 57h1M20 57h1M23 57h2M37 57h2M40 57h2M50 57h1M55 57h3M72 57h1M75 57h1M18 58h2M21 58h7M38 58h1M42 58h2M50 58h1M55 58h2M63 58h1M72 58h1M75 58h1M15 59h2M18 59h1M21 59h1M24 59h1M28 59h3M39 59h1M44 59h4M51 59h4M72 59h1M75 59h1M12 60h3M16 60h2M23 60h1M30 60h2M40 60h1M72 60h1M75 60h1M9 61h3M15 61h1M20 61h1M23 61h1M31 61h4M41 61h1M72 61h1M75 61h1M14 62h1M20 62h1M32 62h1M35 62h2M41 62h1M75 62h1M12 63h1M33 63h1M37 63h2M41 63h3M75 63h1M11 64h1M22 64h1M34 64h1M39 64h2M44 64h2M75 64h1M9 65h1M19 65h1M22 65h1M35 65h1M46 65h2M71 65h1M74 65h1M8 66h1M19 66h1M22 66h2M36 66h1M48 66h2M71 66h1M74 66h1M6 67h1M17 67h3M22 67h3M37 67h1M50 67h1M74 67h1M5 68h1M14 68h4M19 68h1M22 68h1M25 68h2M38 68h1M51 68h1M74 68h1M5 69h1M11 69h3M17 69h1M19 69h1M22 69h1M27 69h3M39 69h1M52 69h1M70 69h1M73 69h1M5 70h6M19 70h1M28 70h1M30 70h2M40 70h1M52 70h2M73 70h1M9 71h1M16 71h1M19 71h1M21 71h1M28 71h1M32 71h2M41 71h1M53 71h1M73 71h1M8 72h1M16 72h1M19 72h2M27 72h1M34 72h2M53 72h2M61 72h1M69 72h1M72 72h1" />
<path stroke="#4a4a63" d="M66 36h3M65 37h1M69 37h1M65 38h1M70 38h1M70 39h1M64 40h1M71 40h1M64 41h1M71 41h1M72 42h1M63 43h1M68 43h2M63 44h1M67 44h1M69 44h2M73 44h1M62 45h1M66 45h1M70 45h1M62 46h1M71 46h1M73 46h2M61 47h1M65 47h1M71 47h1M74 47h1M61 48h1M60 49h1M64 49h2M72 49h1M74 49h2M59 50h1M64 50h1M72 50h1M75 50h1M58 51h1M63 51h1M66 51h1M72 51h1M55 52h2M62 52h1M65 52h1M72 52h1M54 53h1M61 53h1M65 53h1M60 54h1M64 54h1M59 55h1M63 55h1M62 56h1M62 57h1M63 59h1M64 60h1M64 61h1M64 62h1M72 62h1M64 63h1M72 63h1M64 64h1M71 64h1M64 65h1M64 66h1M63 67h1M71 67h1M63 68h1M70 68h1M73 68h1M63 69h1M62 70h1M70 70h1M62 71h1M69 71h1M72 71h1" />
<path stroke="#ffffff" d="M66 37h3M66 38h4M66 39h4M65 40h3M65 41h2M65 42h2M64 43h2M64 44h2M63 45h2M63 46h1M63 47h1M62 48h1M61 49h2M60 50h2M59 51h2M58 52h2M55 53h5M55 54h3" />
<path stroke="#b5ad9c" d="M65 39h1M64 42h1M68 45h2M67 46h4M62 47h1M67 47h4M64 48h1M67 48h4M67 49h5M63 50h1M67 50h5M67 51h5M57 52h1M68 52h4M68 53h4M69 54h3M69 55h3M69 56h3M70 57h2M70 58h2M70 59h2M70 60h2M70 61h2M70 62h2M70 63h2M70 64h1M70 65h1M69 66h2M69 67h2M69 68h1M69 69h1M68 70h2M68 71h1M68 72h1" />
<path stroke="#e6e6d6" d="M68 40h3M67 41h4M67 42h5M66 43h2M70 43h2M66 44h1M71 44h2M65 45h1M71 45h2M64 46h2M72 46h1M64 47h1M72 47h2M63 48h1M72 48h2M63 49h1M73 49h1M62 50h1M73 50h2M61 51h2M73 51h2M60 52h2M66 52h2M73 52h2M60 53h1M66 53h2M73 53h2M58 54h2M65 54h4M73 54h2M56 55h3M64 55h5M73 55h2M56 56h2M63 56h6M73 56h2M63 57h7M73 57h2M64 58h6M73 58h2M64 59h6M73 59h2M65 60h5M73 60h2M65 61h5M73 61h2M65 62h5M73 62h2M65 63h5M73 63h2M65 64h5M72 64h3M65 65h5M72 65h2M65 66h4M72 66h2M64 67h5M72 67h2M64 68h5M71 68h2M64 69h5M71 69h2M63 70h5M71 70h2M63 71h5M70 71h2M62 72h6M70 72h2" />
</svg>