<svg xmlns="http://www.w3.org/2000/svg" viewBox="0 -0.5 80 80" shape-rendering="crispEdges">
<metadata>Made with Pixels to Svg https://codepen.io/shshaw/pen/XbxvNj</metadata>
<path stroke="#734a4a" d="M35 18h2M34 19h1M37 19h1M33 20h1M38 20h1M33 21h1M39 21h1M32 22h1M40 22h1M55 22h3M31 23h1M41 23h1M53 23h2M17 24h3M31 24h1M42 24h1M51 24h2M16 25h1M20 25h3M30 25h1M43 25h1M49 25h2M16 26h1M23 26h3M47 26h2M16 27h1M26 27h3M46 27h1M16 28h2M22 28h2M42 28h2M51 28h1M17 29h1M22 29h1M40 29h2M49 29h2M57 29h1M17 30h1M21 30h1M25 30h1M39 30h1M48 30h1M17 31h2M21 31h1M26 31h1M37 31h2M47 31h1M20 32h1M28 32h1M36 32h1M56 32h1M29 33h1M34 33h2M33 34h1M56 35h1M57 36h1M14 37h3M49 37h2M63 37h4M13 38h1M17 38h1M48 38h1M61 38h2M66 38h1M13 39h1M28 39h2M47 39h1M60 39h1M13 40h1M27 40h1M37 40h2M55 40h1M59 40h1M13 41h1M26 41h1M36 41h1M39 41h2M58 41h1M13 42h1M25 42h1M40 42h2M55 42h1M58 42h1M66 42h1M13 43h2M24 43h1M42 43h1M58 43h1M14 44h1M57 44h1M14 45h1M57 45h1M65 45h1M14 46h1M57 46h1M57 47h1M64 47h1M58 48h1M58 49h1M59 50h1" />
<path stroke="#f7d6a5" d="M35 19h2M34 20h4M34 21h2M33 22h2M32 23h2M55 23h2M32 24h1M53 24h3M17 25h3M31 25h1M51 25h4M19 26h4M49 26h4M20 27h5M47 27h5M32 28h6M48 28h2M23 29h1M29 29h11M42 29h2M22 30h2M27 30h12M40 30h3M22 31h2M28 31h9M39 31h3M21 32h2M30 32h6M37 32h3M21 33h2M36 33h3M21 34h1M35 34h2M21 35h1M15 38h1M63 38h3M14 39h4M61 39h6M14 40h3M60 40h7M14 41h3M59 41h7M15 42h2M59 42h7M59 43h6M60 44h3" />
<path stroke="#ce9c73" d="M36 21h3M35 22h5M34 23h7M57 23h1M33 24h9M56 24h2M32 25h11M55 25h3M17 26h2M30 26h14M53 26h5M17 27h3M25 27h1M29 27h3M38 27h7M52 27h6M18 28h4M24 28h5M41 28h1M44 28h4M50 28h1M52 28h6M18 29h4M25 29h2M45 29h4M51 29h6M18 30h3M24 30h1M43 30h2M46 30h2M49 30h8M19 31h2M24 31h2M42 31h4M48 31h9M19 32h1M23 32h5M40 32h16M19 33h2M23 33h6M31 33h3M39 33h17M20 34h1M22 34h9M34 34h1M37 34h19M20 35h1M22 35h34M20 36h37M21 37h28M51 37h6M14 38h1M16 38h1M22 38h26M52 38h5M22 39h6M30 39h17M53 39h3M23 40h4M31 40h6M39 40h7M54 40h1M23 41h3M32 41h4M41 41h4M66 41h1M14 42h1M24 42h1M33 42h2M42 42h2M15 43h1M65 43h1M15 44h1M58 44h2M63 44h3M15 45h1M58 45h7M58 46h7M58 47h6M59 48h5M59 49h4M60 50h2" />
<path stroke="#000000" d="M58 23h1M58 24h1M58 25h1M29 26h1M44 26h1M58 26h1M45 27h1M58 27h1M58 28h1M24 29h1M44 29h1M58 29h1M26 30h1M45 30h1M57 30h1M27 31h1M46 31h1M57 31h1M18 32h1M29 32h1M57 32h1M18 33h1M30 33h1M56 33h1M18 34h2M31 34h2M56 34h1M19 35h1M19 36h1M19 37h2M57 37h1M18 38h1M21 38h1M51 38h1M58 38h1M67 38h1M18 39h1M21 39h1M52 39h1M56 39h1M59 39h1M67 39h1M17 40h1M22 40h1M30 40h1M46 40h1M53 40h1M56 40h1M67 40h1M17 41h1M22 41h1M31 41h1M45 41h1M54 41h2M67 41h1M17 42h1M23 42h1M32 42h1M35 42h1M44 42h1M67 42h1M16 43h1M33 43h2M43 43h1M66 43h1M16 44h1M66 44h1M16 45h1M66 45h1M15 46h1M65 46h1M15 47h1M65 47h1M15 48h1M64 48h1M15 49h1M63 49h1M15 50h1M62 50h1M15 51h1M60 51h2M15 52h1M61 52h1M15 53h1M61 53h1M15 54h1M61 54h1M16 55h1M61 55h1M16 56h1M60 56h1M16 57h1M60 57h1M17 58h1M60 58h1M17 59h1M59 59h1M18 60h1M59 60h1M18 61h1M58 61h1M19 62h1M57 62h2M20 63h1M56 63h2" />
<path stroke="#94735a" d="M32 27h6M29 28h3M38 28h3M27 29h2" />
<path stroke="#d6dede" d="M19 38h2M49 38h2M19 39h2M48 39h3M18 40h4M28 40h2M47 40h3M18 41h4M27 41h4M37 41h1M46 41h4M18 42h5M26 42h6M36 42h4M45 42h5M17 43h6M25 43h8M35 43h7M44 43h5M17 44h30M48 44h1M17 45h29M47 45h1M49 45h1M16 46h29M46 46h1M48 46h1M16 47h28M16 48h2M20 48h23M16 49h1M21 49h21M22 50h18M22 51h16M17 52h2M23 52h11M23 53h6" />
<path stroke="#7b8c94" d="M57 38h1M16 54h1M60 55h1M17 57h1M59 58h1M58 60h1" />
<path stroke="#b5b5c5" d="M51 39h1M57 39h2M50 40h3M57 40h2M38 41h1M50 41h4M56 41h2M50 42h5M56 42h2M23 43h1M49 43h9M47 44h1M49 44h8M46 45h1M48 45h1M50 45h7M45 46h1M47 46h1M49 46h8M44 47h13M43 48h15M42 49h16M40 50h19M38 51h22M34 52h14M51 52h10M16 53h4M29 53h18M52 53h9M17 54h3M24 54h23M53 54h8M17 55h4M24 55h23M49 55h1M54 55h6M17 56h3M24 56h23M49 56h3M55 56h5M18 57h1M23 57h9M35 57h12M49 57h3M56 57h4M22 58h9M36 58h11M49 58h4M56 58h3M21 59h9M37 59h10M49 59h4M56 59h3M20 60h10M33 60h1M37 60h10M50 60h2M56 60h2M19 61h10M32 61h3M38 61h9M55 61h3M20 62h9M32 62h3M38 62h10M55 62h2M21 63h7M31 63h5M39 63h10M53 63h3" />
<path stroke="#c54242" d="M18 48h2M17 49h4M16 50h5M16 51h6M16 52h1M19 52h3M48 52h2M20 53h3M48 53h4M21 54h3M47 54h6M21 55h3M47 55h2M51 55h3M20 56h4M47 56h2M52 56h3M19 57h4M47 57h2M53 57h2M18 58h4M47 58h2M53 58h3M18 59h3M47 59h2M53 59h3M19 60h1M47 60h2M52 60h4M48 61h7M48 62h7M50 63h3" />
<path stroke="#de736b" d="M21 50h1M22 52h1M50 52h1M47 53h1M20 54h1M50 55h1M52 57h1M55 57h1M49 60h1M47 61h1M49 63h1" />
<path stroke="#3163ad" d="M32 57h3M31 58h5M31 59h5M30 60h3M34 60h3M30 61h2M35 61h2M29 62h2M36 62h2M28 63h3M36 63h3" />
<path stroke="#4a84c5" d="M30 59h1M36 59h1M29 61h1M37 61h1M31 62h1M35 62h1" />
</svg>