<svg xmlns="http://www.w3.org/2000/svg" viewBox="0 -0.5 80 80" shape-rendering="crispEdges">
<metadata>Made with Pixels to Svg https://codepen.io/shshaw/pen/XbxvNj</metadata>
<path stroke="#427310" d="M7 11h9M7 12h1M17 12h4M22 12h1M7 13h1M7 14h1M7 15h1M7 16h1M8 18h1M23 18h7M67 18h3M8 19h1M70 19h1M8 20h1M53 20h3M71 20h1M8 21h1M20 21h1M28 21h1M53 21h1M56 21h1M72 21h1M8 22h5M14 22h1M21 22h1M53 22h1M57 22h2M73 22h1M22 23h1M53 23h1M59 23h1M74 23h1M23 24h1M53 24h1M75 24h1M13 25h1M23 25h1M27 25h5M33 25h1M45 25h3M76 25h1M13 26h1M24 26h1M45 26h1M48 26h3M77 26h1M12 27h1M25 27h1M45 27h1M51 27h1M53 27h1M65 27h7M78 27h1M25 28h1M45 28h1M61 28h4M12 29h1M26 29h1M58 29h3M16 30h1M20 30h1M27 30h1M44 30h1M55 30h3M27 31h1M44 31h1M53 31h2M19 32h1M28 32h1M33 32h1M52 32h1M63 32h1M65 32h1M19 33h1M29 33h1M36 33h1M38 33h6M50 33h2M63 33h1M66 33h1M18 34h1M29 34h1M49 34h1M67 34h1M30 35h1M47 35h2M68 35h1M18 36h1M24 36h1M30 36h1M46 36h1M31 37h1M44 37h2M55 37h1M24 38h1M31 38h1M43 38h1M57 38h2M23 39h1M31 39h1M35 39h1M38 39h1M42 39h1M59 39h2M23 40h1M32 40h1M41 40h1M61 40h1M63 40h1M32 41h1M40 41h1M48 41h1M23 42h1M29 42h1M32 42h1M39 42h1M50 42h2M32 43h1M38 43h1M52 43h1M28 44h1M33 44h1M40 44h1M42 44h2M53 44h1M55 44h1M28 45h1M33 45h1M37 45h1M44 45h2M33 46h1M46 46h1M48 46h1M33 47h1M33 48h1M38 48h1M40 48h1M33 49h1M35 49h1M33 50h1" />
<path stroke="#9cde5a" d="M8 12h8M9 13h1M11 13h10M8 14h1M10 14h1M19 14h1M21 14h1M9 15h1M20 15h1M27 19h1M67 19h3M26 20h1M28 20h1M66 20h2M27 21h1M54 21h2M65 21h1M54 22h1M56 22h1M54 23h1M46 26h2M46 27h1M46 28h1M45 29h2M45 30h1M45 31h1M39 34h3M39 35h1M39 36h1" />
<path stroke="#63a531" d="M16 12h1M12 15h2M14 16h2M16 17h1M17 18h1M22 18h1M18 19h1M19 20h1M69 20h1M25 21h2M68 21h1M70 21h1M23 22h1M25 22h3M65 22h1M67 22h6M24 23h1M26 23h2M56 23h1M58 23h1M64 23h1M66 23h8M22 24h1M25 24h2M55 24h1M57 24h3M62 24h13M14 25h1M19 25h4M24 25h3M55 25h21M15 26h1M17 26h7M25 26h6M32 26h1M54 26h23M13 27h2M16 27h9M26 27h4M31 27h1M47 27h1M54 27h11M72 27h6M13 28h12M26 28h5M48 28h1M50 28h11M65 28h13M16 29h10M27 29h5M47 29h1M49 29h9M61 29h15M21 30h6M28 30h3M46 30h9M58 30h13M72 30h3M21 31h6M28 31h3M46 31h7M55 31h15M71 31h1M73 31h1M20 32h1M22 32h6M29 32h2M46 32h6M53 32h10M66 32h5M22 33h7M30 33h4M45 33h5M52 33h11M67 33h4M21 34h1M23 34h6M30 34h4M35 34h1M44 34h5M50 34h13M68 34h2M20 35h1M22 35h8M31 35h2M34 35h1M40 35h1M42 35h5M49 35h13M25 36h5M31 36h3M41 36h5M47 36h15M25 37h6M32 37h3M40 37h4M46 37h9M57 37h4M62 37h1M25 38h6M32 38h3M40 38h3M44 38h11M59 38h1M61 38h1M24 39h1M26 39h5M32 39h2M39 39h3M43 39h11M62 39h1M25 40h1M27 40h5M33 40h1M35 40h6M42 40h12M24 41h1M26 41h6M33 41h1M35 41h5M41 41h7M50 41h3M54 41h1M30 42h2M33 42h1M36 42h3M40 42h8M53 42h1M30 43h2M33 43h3M37 43h1M39 43h9M54 43h1M29 44h4M34 44h3M38 44h2M44 44h4M29 45h4M34 45h2M38 45h2M46 45h2M28 46h5M34 46h2M37 46h3M29 47h4M34 47h1M36 47h4M31 48h2M34 48h1M36 48h2M32 49h1" />
<path stroke="#000000" d="M21 12h1M22 13h1M22 14h1M22 15h1M22 16h1M22 17h1M29 19h1M66 19h1M29 20h1M65 20h1M64 21h1M13 22h1M28 22h1M63 22h1M14 23h1M28 23h1M62 23h1M14 24h1M27 24h1M60 24h2M32 25h1M53 25h1M33 26h1M53 26h1M33 27h1M52 27h1M12 28h1M32 28h1M78 28h1M13 29h3M32 29h1M76 29h2M17 30h3M31 30h1M75 30h1M20 31h1M31 31h1M74 31h1M31 32h2M44 32h1M64 32h1M72 32h2M34 33h2M44 33h1M71 33h1M36 34h1M38 34h1M63 34h1M70 34h1M18 35h1M36 35h1M38 35h1M63 35h1M69 35h1M19 36h5M35 36h1M38 36h1M63 36h1M24 37h1M35 37h1M38 37h1M56 37h1M63 37h1M35 38h1M38 38h1M55 38h1M63 38h1M34 39h1M36 39h2M55 39h1M63 39h1M34 40h1M55 40h1M62 40h1M23 41h1M34 41h1M49 41h1M55 41h1M24 42h5M34 42h2M48 42h1M55 42h1M29 43h1M36 43h1M48 43h1M55 43h1M37 44h1M41 44h1M48 44h1M54 44h1M36 45h1M40 45h1M48 45h1M27 46h1M36 46h1M40 46h1M47 46h1M23 47h1M28 47h1M35 47h1M40 47h1M21 48h1M29 48h2M35 48h1M39 48h1M47 48h7M31 49h1M34 49h1M36 49h2M44 49h2M32 50h1M34 50h2M41 50h1M33 51h1M50 52h1M49 53h1M48 54h1M11 55h1M47 55h1M10 56h1M46 56h1M53 56h1M46 57h1M45 58h1M9 59h1M45 59h1M52 59h1M45 60h1M51 60h1M44 61h1M50 61h1M8 62h1M50 62h1M4 63h3M8 63h1M49 63h1M3 64h1M7 64h2M49 64h1M3 65h1M3 66h1M14 66h1M12 67h1M8 68h3" />
<path stroke="#7bce5a" d="M8 13h1M10 13h1M21 13h1M9 14h1M11 14h8M20 14h1M8 15h1M10 15h2M14 15h6M21 15h1M8 16h6M16 16h6M8 17h8M17 17h5M9 18h8M18 18h4M9 19h9M19 19h8M28 19h1M9 20h10M20 20h6M27 20h1M68 20h1M70 20h1M9 21h11M21 21h4M66 21h2M69 21h1M71 21h1M15 22h6M22 22h1M24 22h1M55 22h1M64 22h1M66 22h1M15 23h7M23 23h1M25 23h1M55 23h1M57 23h1M63 23h1M65 23h1M15 24h7M24 24h1M54 24h1M56 24h1M15 25h4M54 25h1M14 26h1M16 26h1M31 26h1M15 27h1M30 27h1M32 27h1M48 27h3M31 28h1M47 28h1M49 28h1M48 29h1M71 30h1M70 31h1M72 31h1M21 32h1M45 32h1M71 32h1M20 33h2M19 34h2M22 34h1M34 34h1M42 34h2M19 35h1M21 35h1M33 35h1M35 35h1M41 35h1M62 35h1M34 36h1M40 36h1M62 36h1M39 37h1M61 37h1M39 38h1M60 38h1M62 38h1M25 39h1M54 39h1M61 39h1M24 40h1M26 40h1M54 40h1M25 41h1M53 41h1M52 42h1M54 42h1M53 43h1" />
<path stroke="#8c0010" d="M11 42h4M10 43h1M15 43h3M10 44h1M18 44h2M9 45h1M20 45h2M9 46h1M22 46h1M9 47h1M24 47h4M9 48h1M20 48h1M22 48h1M9 49h1M18 49h2M38 49h2M43 49h1M46 49h1M54 49h1M9 50h1M40 50h1M42 50h1M54 50h1M9 51h1M38 51h2M51 51h1M54 51h1M9 52h1M37 52h1M54 52h1M10 53h1M13 53h1M36 53h1M50 53h1M54 53h1M10 54h1M12 54h1M49 54h2M54 54h1M10 55h1M48 55h3M53 55h1M47 56h4M10 57h1M47 57h3M53 57h1M9 58h1M46 58h4M52 58h1M46 59h3M9 60h1M46 60h2M8 61h1M45 61h2M12 62h4M44 62h1M10 63h2M16 63h1M9 64h1M48 64h1M47 65h1M49 65h1M13 66h1M15 66h1M49 66h1M4 67h1M11 67h1M16 67h1M50 67h1M5 68h3M50 68h1M7 69h1M50 69h1" />
<path stroke="#ff7384" d="M11 43h4M11 44h1M15 44h3M18 45h2M23 48h4M20 49h3M47 49h6M18 50h2M43 50h4M53 50h1M40 51h2" />
<path stroke="#f75252" d="M12 44h3M10 45h2M17 45h1M10 46h1M12 46h1M20 46h2M11 47h1M27 48h2M23 49h8M53 49h1M20 50h12M36 50h4M47 50h3M16 51h10M34 51h4M42 51h2M46 51h1M48 51h1M50 51h1M15 52h7M38 52h2M47 52h1M49 52h1M14 53h5M13 54h2M12 55h2M4 64h3M4 65h5M48 65h1M4 66h6M48 66h1M5 67h5M48 67h2M47 68h1M49 68h1M48 69h2" />
<path stroke="#ef3129" d="M12 45h5M11 46h1M13 46h7M10 47h1M12 47h11M10 48h10M10 49h8M10 50h8M50 50h3M10 51h6M26 51h7M44 51h2M47 51h1M49 51h1M52 51h2M10 52h5M22 52h15M40 52h7M48 52h1M51 52h3M11 53h2M19 53h17M37 53h12M51 53h3M11 54h1M15 54h33M51 54h3M14 55h33M51 55h2M11 56h35M51 56h2M11 57h35M50 57h3M10 58h35M50 58h2M10 59h35M49 59h3M10 60h35M48 60h3M9 61h35M47 61h3M9 62h3M16 62h28M45 62h5M9 63h1M12 63h4M17 63h32M10 64h38M9 65h38M10 66h3M16 66h32M10 67h1M13 67h3M17 67h31M11 68h36M48 68h1M8 69h40" />
</svg>