<svg xmlns="http://www.w3.org/2000/svg" viewBox="0 -0.5 80 80" shape-rendering="crispEdges">
<metadata>Made with Pixels to Svg https://codepen.io/shshaw/pen/XbxvNj</metadata>
<path stroke="#5a7b21" d="M49 4h2M48 5h1M51 5h1M24 6h6M47 6h1M23 7h1M30 7h1M46 7h1M23 8h1M45 8h1M23 9h1M40 9h5M24 10h1M35 10h5M44 10h1M24 11h1M34 11h1M43 11h1M24 12h1M42 12h1M24 13h1M54 18h2M56 19h1M33 25h2M32 26h1M32 27h1M32 28h1M32 29h1M31 30h1M31 31h1M57 31h1M31 32h1M54 32h2M30 33h2M34 33h1M30 34h1M33 34h1M30 35h1M30 36h1M29 37h1M42 37h1M29 38h1M32 38h2M72 44h1M73 45h1M72 46h2M74 47h1M20 48h1M22 48h1M21 49h1M72 49h2M21 50h1M75 50h1M18 51h1M20 51h1M75 51h1M17 52h1M19 52h1M23 52h2M42 52h1M76 52h1M16 53h1M18 53h1M43 53h1M15 54h1M22 54h1M73 54h2M56 58h1M56 59h1M12 60h1M48 60h1M55 60h1M12 61h1M55 61h1M11 62h1M54 62h1M11 63h1M10 64h1M10 65h1M14 65h1M9 66h1M13 66h1M9 67h1M8 68h1M69 68h1M8 69h1M70 69h1M7 70h2M71 70h2M7 71h1M73 71h1" />
<path stroke="#73ad31" d="M49 5h1M48 6h2M24 7h1M47 7h4M24 8h3M46 8h5M24 9h5M45 9h6M25 10h6M45 10h7M25 11h7M33 11h1M44 11h8M25 12h11M43 12h9M25 13h28M26 14h27M26 15h27M26 16h29M26 17h30M27 18h27M56 18h1M27 19h27M27 20h27M57 20h1M28 21h26M28 22h26M28 23h27M29 24h26M29 25h4M35 25h21M29 26h3M33 26h1M35 26h12M48 26h9M30 27h2M33 27h1M35 27h13M49 27h9M30 28h2M33 28h1M35 28h13M51 28h7M30 29h2M33 29h1M35 29h12M56 29h2M30 30h1M32 30h2M35 30h12M56 30h2M30 31h1M32 31h2M35 31h11M55 31h2M30 32h1M32 32h2M35 32h11M32 33h2M35 33h11M31 34h2M34 34h12M31 35h2M34 35h12M29 36h1M31 36h2M34 36h11M30 37h3M34 37h8M30 38h2M34 38h8M28 39h4M33 39h8M31 40h1M33 40h8M33 41h7M34 42h6M34 43h5M35 44h4M35 45h4M35 46h3M22 47h1M35 47h3M63 47h1M21 48h1M23 48h1M34 48h4M20 49h1M22 49h2M34 49h4M20 50h1M22 50h3M33 50h4M62 50h1M19 51h1M21 51h3M25 51h2M31 51h8M67 51h1M18 52h1M20 52h3M25 52h13M66 52h1M74 52h2M17 53h1M19 53h4M24 53h14M67 53h1M74 53h2M16 54h2M23 54h15M67 54h2M15 55h1M24 55h15M66 55h1M14 56h1M25 56h14M13 57h1M26 57h15M65 57h1M12 58h2M26 58h16M44 58h2M11 59h2M27 59h20M64 59h1M11 60h1M27 60h10M39 60h9M63 60h3M10 61h2M27 61h10M38 61h1M41 61h9M63 61h5M10 62h1M12 62h1M27 62h10M43 62h8M63 62h7M9 63h2M12 63h2M26 63h10M44 63h9M64 63h7M9 64h1M11 64h3M26 64h10M46 64h9M65 64h7M8 65h2M11 65h3M25 65h11M38 65h1M47 65h9M66 65h8M7 66h2M10 66h3M14 66h2M24 66h12M49 66h8M58 66h1M67 66h8M7 67h2M10 67h3M14 67h4M22 67h14M50 67h8M68 67h8M6 68h2M9 68h3M13 68h23M51 68h6M70 68h7M6 69h2M9 69h3M13 69h23M52 69h3M71 69h6M5 70h2M9 70h2M12 70h23M73 70h5M5 71h2M8 71h3M12 71h23M74 71h5" />
<path stroke="#9cd64a" d="M50 5h1M50 6h2M25 7h5M51 7h2M27 8h7M51 8h3M29 9h7M51 9h3M31 10h4M40 10h4M52 10h3M32 11h1M35 11h8M52 11h3M36 12h6M52 12h4M53 13h3M53 14h3M53 15h4M55 16h2M56 17h1M57 18h1M57 19h1M57 26h2M58 27h1M58 28h1M72 35h1M71 36h2M70 37h3M70 38h3M69 39h4M68 40h4M68 41h4M67 42h5M67 43h4M66 44h5M66 45h5M72 45h1M65 46h5M71 46h1M65 47h5M71 47h3M64 48h5M70 48h4M64 49h5M70 49h2M64 50h4M69 50h6M63 51h4M69 51h6M38 52h3M61 52h1M63 52h3M68 52h6M38 53h5M60 53h2M63 53h3M68 53h3M38 54h6M60 54h1M62 54h4M39 55h5M59 55h2M62 55h3M39 56h6M58 56h2M61 56h4M41 57h4M58 57h2M61 57h3M42 58h2M57 58h7M57 59h7M56 60h7M37 61h1M56 61h7M37 62h1M55 62h6M36 63h2M55 63h7M36 64h2M56 64h5M36 65h2M56 65h4M36 66h3M57 66h1M36 67h3M36 68h3M36 69h4M35 70h5M35 71h5" />
<path stroke="#3a6321" d="M52 6h1M53 7h1M54 8h1M54 9h1M25 14h1M25 15h1M25 16h1M25 17h1M26 18h1M26 19h1M26 20h1M27 21h1M57 21h1M27 22h1M27 23h1M28 24h1M58 24h1M28 25h1M58 25h1M28 26h1M34 26h1M47 26h1M59 26h1M29 27h1M34 27h1M48 27h1M59 27h1M29 28h1M34 28h1M49 28h2M59 28h1M29 29h1M34 29h1M51 29h5M58 29h1M29 30h1M34 30h1M58 30h1M29 31h1M34 31h1M29 32h1M34 32h1M29 33h1M29 34h1M72 34h2M29 35h1M33 35h1M71 35h1M28 36h1M33 36h1M70 36h1M28 37h1M33 37h1M69 37h1M28 38h1M42 38h1M69 38h1M27 39h1M32 39h1M68 39h1M32 40h1M67 40h1M67 41h1M66 42h1M39 43h1M66 43h1M65 44h1M65 45h1M38 46h1M64 46h1M64 47h1M63 48h1M63 49h1M19 50h1M37 50h1M63 50h1M24 51h1M62 51h1M41 52h1M62 52h1M23 53h1M62 53h1M71 53h1M44 54h1M59 54h1M61 54h1M14 55h1M58 55h1M61 55h1M60 56h1M57 57h1M60 57h1M46 58h1M47 59h2M37 60h2M49 60h1M66 60h2M50 61h1M68 61h2M51 62h2M61 62h1M70 62h1M53 63h2M62 63h1M71 63h1M55 64h1M61 64h1M72 64h2M74 65h1M75 66h1M13 67h1M76 67h1M12 68h1M39 68h1M77 68h1M12 69h1M55 69h1M77 69h1M11 70h1M78 70h1M11 71h1M79 71h1" />
<path stroke="#101010" d="M31 7h3M34 8h2M36 9h2M55 10h1M55 11h1M56 12h1M56 13h1M56 14h1M57 15h1M57 16h1M57 17h2M58 18h1M58 19h1M58 20h1M57 22h1M57 23h1M55 30h1M54 31h1M53 32h1M56 32h1M52 33h1M51 34h1M49 35h1M73 35h1M45 36h3M73 36h1M43 37h2M73 37h1M73 38h1M41 39h1M73 39h1M41 40h1M72 40h1M40 41h1M72 41h1M40 42h1M72 42h1M40 43h1M71 43h1M39 44h1M71 44h1M39 45h1M64 45h1M71 45h1M22 46h1M39 46h1M63 46h1M70 46h1M21 47h1M38 47h1M62 47h1M70 47h1M38 48h1M62 48h1M69 48h1M74 48h1M38 49h1M62 49h1M69 49h1M74 49h1M38 50h2M61 50h1M68 50h1M39 51h2M61 51h1M68 51h1M60 52h1M67 52h1M59 53h1M66 53h1M72 53h2M76 53h1M66 54h1M69 54h2M72 54h1M75 54h1M44 55h1M65 55h1M67 55h2M72 55h2M13 56h1M45 56h1M57 56h1M65 56h2M12 57h1M45 57h1M64 57h1M66 57h1M11 58h1M64 58h2M10 59h1M65 59h1M10 60h1M9 61h1M39 61h2M9 62h1M38 62h1M41 62h2M62 62h1M8 63h1M38 63h1M43 63h1M63 63h1M8 64h1M38 64h1M44 64h2M64 64h1M7 65h1M39 65h1M46 65h1M60 65h1M65 65h1M6 66h1M39 66h1M47 66h2M59 66h1M66 66h1M6 67h1M39 67h1M49 67h1M58 67h1M67 67h1M5 68h1M40 68h1M50 68h1M57 68h1M68 68h1M5 69h1M40 69h1M51 69h1M56 69h1M4 70h1M40 70h1M52 70h4M4 71h1M40 71h1" />
<path stroke="#8c2929" d="M54 19h1M54 20h1M50 34h1M48 35h1" />
<path stroke="#ffe66b" d="M55 19h1M55 20h1M55 21h2M55 22h2M56 23h1M56 24h2M27 41h3M25 42h6M25 43h6M16 44h2M24 44h6M15 45h4M25 45h4M16 46h2M18 55h2M16 56h5M15 57h7M6 58h2M15 58h7M5 59h4M14 59h7M6 60h2M15 60h4" />
<path stroke="#ffc552" d="M56 20h1M30 41h1M31 42h2M17 43h3M31 43h2M15 44h1M18 44h4M30 44h4M19 45h3M24 45h1M29 45h5M14 46h2M18 46h3M24 46h10M14 47h7M24 47h10M14 48h6M25 48h8M15 49h5M25 49h8M15 50h4M27 50h4M17 51h1M20 55h2M21 56h3M7 57h3M22 57h3M5 58h1M8 58h3M22 58h3M9 59h1M21 59h5M4 60h2M8 60h2M14 60h1M19 60h7M4 61h5M14 61h12M4 62h5M14 62h12M5 63h3M15 63h10M5 64h3M15 64h10M16 65h8M18 66h4" />
<path stroke="#d6523a" d="M54 21h1M54 22h1M55 23h1M55 24h1M56 25h2M48 28h1M47 29h4M47 30h8M46 31h8M46 32h7M46 33h6M46 34h4M46 35h2" />
<path stroke="#c5843a" d="M27 40h4M25 41h2M31 41h1M24 42h1M16 43h1M20 43h1M24 43h1M33 43h1M23 44h1M14 45h1M22 45h2M21 46h1M23 46h1M23 47h1M24 48h1M18 54h4M16 55h2M22 55h1M15 56h1M6 57h1M10 57h1M14 57h1M14 58h1M4 59h1M14 63h1" />
<path stroke="#7b635a" d="M32 41h1M17 42h3M33 42h1M15 43h1M21 43h1M14 44h1M22 44h1M34 44h1M34 45h1M13 46h1M34 46h1M13 47h1M34 47h1M13 48h1M33 48h1M14 49h1M24 49h1M33 49h1M14 50h1M25 50h2M31 50h2M15 51h2M27 51h4M23 55h1M7 56h3M24 56h1M5 57h1M11 57h1M25 57h1M4 58h1M25 58h1M13 59h1M26 59h1M3 60h1M13 60h1M26 60h1M3 61h1M13 61h1M26 61h1M3 62h1M13 62h1M26 62h1M4 63h1M25 63h1M4 64h1M14 64h1M25 64h1M5 65h2M15 65h1M24 65h1M16 66h2M22 66h2M18 67h4" />
</svg>