<svg xmlns="http://www.w3.org/2000/svg" viewBox="0 -0.5 80 80" shape-rendering="crispEdges">
<metadata>Made with Pixels to Svg https://codepen.io/shshaw/pen/XbxvNj</metadata>
<path stroke="#636352" d="M34 18h5M32 19h2M38 19h2M31 20h1M39 20h1M32 23h1M38 23h1M33 24h6M33 25h6M34 26h5M34 27h5M35 28h4M47 28h1M35 29h4M35 30h4M26 31h1M54 32h1M28 33h1M44 33h1M54 33h1M28 34h1M31 34h1M41 34h1M44 34h1M31 35h1M41 35h1M53 35h2M21 38h2M50 38h1M23 39h1M48 39h1M50 39h1M23 40h1M25 40h1M45 40h1M48 40h1M57 40h2M63 40h1M25 41h1M29 41h1M42 41h1M45 41h1M29 42h1M42 42h1M63 43h1M18 44h2M53 44h1M51 45h1M53 45h1M21 46h1M49 46h1M51 46h1M61 46h1M21 47h1M24 47h1M46 47h1M49 47h1M60 47h1M24 48h1M28 48h1M42 48h1M46 48h1M59 48h1M28 49h1M42 49h1" />
<path stroke="#dedede" d="M34 19h4M33 20h6M32 21h7M33 22h5M34 23h3M40 27h4M31 28h3M40 28h7M29 29h5M42 29h6M49 29h1M27 30h7M45 30h3M49 30h3M27 31h8M49 31h4M24 32h2M27 32h7M50 32h4M23 33h4M29 33h5M52 33h2M23 34h5M32 34h1M53 34h1M55 34h2M22 35h2M26 35h5M55 35h2M21 36h1M27 36h2M55 36h3M56 37h2M56 38h2M59 38h2M20 39h1M57 39h1M59 39h3M20 40h2M59 40h4M19 41h2M22 41h1M58 41h6M19 42h1M21 42h1M23 42h1M61 42h3M19 43h2M22 43h1M62 43h1M17 44h1M21 44h1M62 44h1M16 45h2M15 46h4M15 47h5M17 48h2" />
<path stroke="#b5b5a5" d="M32 20h1M32 22h1M38 22h1M33 23h1M37 23h1M41 29h1M34 30h1M44 30h1M34 32h1M51 33h1M25 35h1M22 36h1M26 36h1M29 36h1M55 37h1M21 39h1M62 39h1M22 40h1M21 41h1M20 42h1M22 42h1M60 42h1M21 43h1M61 43h1M18 45h1M19 46h1M20 47h1M16 48h1M19 48h1" />
<path stroke="#423a29" d="M31 21h1M39 21h1M31 22h1M31 23h1M40 26h5M30 27h3M44 27h4M28 28h3M48 28h2M26 29h3M34 29h1M39 29h1M48 29h1M50 29h1M25 30h2M48 30h1M52 30h1M25 31h1M47 31h1M53 31h2M26 32h1M46 32h1M27 33h1M45 33h1M55 33h1M21 34h2M29 34h2M42 34h2M54 34h1M32 35h9M53 36h1M21 37h1M52 37h1M58 37h1M60 37h2M51 38h1M58 38h1M61 38h2M22 39h1M49 39h1M58 39h1M24 40h1M46 40h2M26 41h3M43 41h2M57 41h1M30 42h12M56 42h1M16 43h2M55 43h1M15 44h2M54 44h1M14 45h2M19 45h1M52 45h1M62 45h1M14 46h1M20 46h1M50 46h1M22 47h2M47 47h2M62 47h1M25 48h3M43 48h3M62 48h1M14 49h2M29 49h13M60 49h1M62 49h1M59 50h2M62 50h2M59 51h2M63 51h1M53 52h1M59 52h2M63 52h1M19 53h1M50 53h1M60 53h2M18 54h1M21 54h1M47 54h1M60 54h3M18 55h1M25 55h1M42 55h1M61 55h2M18 56h1M62 56h1M18 57h1M18 58h1M18 59h2M19 63h2M20 65h2M21 67h2M61 67h2M22 68h2M62 68h2M63 69h2" />
<path stroke="#101010" d="M39 22h1M39 23h1M32 24h1M39 24h1M32 25h1M39 25h1M33 26h1M39 26h1M33 27h1M39 27h1M34 28h1M39 28h1M51 29h1M53 30h1M24 31h1M23 32h1M55 32h1M22 33h1M56 33h1M57 34h1M21 35h1M57 35h2M20 36h1M58 36h1M20 37h1M59 37h1M19 38h2M19 39h1M63 39h1M18 40h2M64 40h1M18 41h1M64 41h1M18 42h1M64 42h1M18 43h1M64 43h1M63 44h1M63 45h1M62 46h1M14 47h1M61 47h1M14 48h1M60 48h1M58 49h2M15 50h1M57 50h2M16 51h1M55 51h3M17 52h1M54 52h2M18 53h1M51 53h3M63 53h1M19 54h2M48 54h3M63 54h1M21 55h4M43 55h5M63 55h1M25 56h18M63 56h1M63 57h1M63 58h1M63 59h1M19 60h1M63 60h1M19 61h1M62 61h2M19 62h1M62 62h1M62 63h1M20 64h1M61 64h2M61 65h1M21 66h1M60 66h2M60 67h1M59 68h2M23 69h2M58 69h2M24 70h2M57 70h2M64 70h1M25 71h2M55 71h3M64 71h1" />
<path stroke="#948c7b" d="M40 29h1M39 30h5M35 31h12M48 31h1M35 32h11M47 32h3M34 33h10M46 33h5M33 34h8M45 34h8M24 35h1M42 35h11M23 36h3M30 36h23M54 36h1M22 37h30M53 37h2M23 38h27M52 38h4M24 39h24M51 39h6M26 40h19M49 40h8M23 41h2M30 41h12M46 41h11M24 42h5M43 42h13M57 42h3M23 43h32M56 43h5M20 44h1M22 44h31M55 44h7M20 45h31M54 45h8M22 46h27M52 46h9M25 47h21M50 47h10M15 48h1M20 48h4M29 48h13M47 48h12M16 49h12M43 49h15M16 50h41M17 51h38M18 52h35M20 53h30M22 54h25M26 55h16" />
<path stroke="#ffefbd" d="M61 48h1M61 49h1M61 50h1M61 51h2M62 52h1M61 68h1M60 69h3" />
<path stroke="#e6c59c" d="M58 51h1M57 52h2M57 53h2M57 54h3M58 55h2M58 56h3M59 57h4M59 58h4M61 59h1M61 70h3" />
<path stroke="#63423a" d="M56 52h1M54 53h3M51 54h6M19 55h2M48 55h9M19 56h6M43 56h15M19 57h39M19 58h40M20 59h40M20 60h43M20 61h42M20 62h42M21 63h41M21 64h40M22 65h39M22 66h38M23 67h37M24 68h35M25 69h33M26 70h31M27 71h28" />
<path stroke="#946b5a" d="M61 52h1M59 53h1M62 53h1M57 55h1M60 55h1M61 56h1M58 57h1M60 59h1M62 59h1" />
<path stroke="#c59c6b" d="M59 70h2M58 71h6" />
</svg>