<svg xmlns="http://www.w3.org/2000/svg" viewBox="0 -0.5 80 80" shape-rendering="crispEdges">
<metadata>Made with Pixels to Svg https://codepen.io/shshaw/pen/XbxvNj</metadata>
<path stroke="#4a4a52" d="M41 4h2M40 5h1M43 5h1M40 6h5M43 7h3M44 8h2M65 12h2M64 13h1M66 13h2M46 14h2M66 14h1M46 15h1M65 15h2M45 16h2M64 16h3M43 17h3M64 17h2M43 18h2M65 18h1M56 20h1M55 21h6M56 22h5M33 40h2M41 40h3M58 40h2M31 41h1M45 41h2M55 41h7M29 42h3M53 42h10M29 43h3M48 43h1M52 43h11M29 44h3M49 44h1M52 44h11M29 45h3M50 45h12M29 46h3M51 46h10M29 47h3M52 47h8M29 48h4M53 48h5M29 49h4M54 49h3M29 50h4M55 50h1M28 51h6M28 52h6M28 53h7M57 53h1M27 54h8M27 55h9M58 55h1M27 56h10M58 56h1M15 57h1M26 57h13M14 58h1M26 58h14M59 58h1M14 59h1M25 59h17M59 59h1M13 60h1M24 60h19M59 60h1M13 61h1M23 61h22M59 61h1M13 62h1M22 62h25M59 62h1M12 63h1M21 63h5M31 63h18M59 63h1M12 64h1M20 64h4M33 64h26M12 65h1M18 65h1M21 65h2M34 65h23M12 66h1M16 66h1M21 66h2M34 66h23M13 67h1M21 67h1M35 67h15M53 67h3M21 68h1M35 68h13M55 68h1M35 69h12M61 69h1M35 70h11M35 71h10M60 71h1M22 72h1M34 72h11M51 72h5M34 73h10M50 73h7M23 74h1M33 74h11M49 74h8M24 75h2M31 75h13M49 75h9" />
<path stroke="#101010" d="M43 4h1M44 5h1M45 6h1M41 7h2M43 8h1M44 9h1M45 11h1M38 12h3M45 12h1M37 13h1M41 13h1M45 13h1M37 14h1M42 14h1M44 14h1M64 14h1M67 14h1M42 15h1M44 15h1M64 15h1M67 15h1M39 16h1M42 16h2M47 16h1M55 16h2M63 16h1M67 16h1M41 17h2M46 17h1M54 17h1M57 17h1M63 17h1M66 17h1M36 18h1M45 18h1M58 18h1M62 18h1M66 18h1M37 19h1M44 19h2M55 19h2M58 19h1M60 19h2M65 19h1M39 20h5M45 20h1M52 20h1M57 20h3M64 20h1M41 21h2M45 21h1M53 21h1M63 21h1M44 22h1M54 22h2M61 22h2M44 23h1M56 23h5M59 24h1M59 25h1M58 26h1M57 27h1M56 28h1M21 37h1M60 37h1M21 38h1M60 38h1M21 39h1M34 39h10M60 39h1M21 40h1M30 40h3M44 40h3M21 41h1M28 41h3M32 41h1M47 41h1M53 41h2M22 42h1M27 42h2M32 42h1M47 42h1M52 42h1M22 43h1M26 43h1M28 43h1M32 43h1M64 43h1M22 44h2M28 44h1M32 44h1M51 44h1M63 44h1M23 45h1M28 45h1M32 45h1M62 45h2M28 46h1M32 46h1M61 46h2M28 47h1M32 47h1M60 47h2M28 48h1M33 48h1M58 48h3M28 49h1M33 49h1M57 49h2M28 50h1M33 50h1M56 50h2M27 51h1M34 51h1M27 52h1M34 52h1M27 53h1M35 53h1M26 54h1M35 54h1M26 55h1M36 55h1M26 56h1M37 56h1M25 57h1M25 58h1M24 59h1M63 63h1M63 64h1M19 65h2M63 65h1M17 66h2M20 66h1M63 66h1M14 67h3M20 67h1M50 67h3M62 67h1M19 68h1M48 68h2M54 68h1M62 68h1M19 69h1M21 69h1M47 69h1M55 69h1M62 69h1M19 70h1M21 70h1M46 70h1M56 70h1M61 70h1M19 71h1M21 71h1M45 71h1M52 71h3M56 71h1M61 71h1M19 72h1M45 72h1M50 72h1M56 72h2M60 72h1M19 73h1M22 73h1M44 73h1M49 73h1M57 73h1M59 73h2M19 74h2M22 74h1M44 74h1M57 74h3M20 75h1M23 75h1M44 75h1M48 75h1M58 75h1" />
<path stroke="#8c8c94" d="M41 5h2M65 13h1M45 14h1M65 14h1M45 15h1M44 16h1M35 40h1M40 40h1M60 40h4M33 41h1M44 41h1M62 41h2M46 42h1M63 42h1M27 43h1M25 44h1M24 45h1M23 46h1M22 47h1M33 47h1M21 48h1M20 49h1M19 50h1M27 50h1M34 50h1M18 51h1M55 51h1M18 52h1M35 52h1M56 52h1M17 53h1M26 53h1M16 54h1M36 54h1M57 54h1M16 55h1M15 56h1M25 56h1M58 57h1M24 58h1M40 58h1M23 60h1M43 60h1M49 63h1" />
<path stroke="#8c6b52" d="M46 7h1M47 8h1M37 9h5M47 9h1M36 10h1M42 10h1M44 10h1M48 10h1M35 11h1M43 11h1M48 11h1M34 12h1M41 12h1M44 12h1M48 12h1M34 13h1M42 13h1M48 13h1M54 13h4M34 14h1M53 14h1M58 14h1M34 15h1M37 15h1M52 15h1M59 15h1M34 16h1M38 16h1M51 16h1M60 16h1M35 17h1M40 17h1M51 17h1M60 17h1M37 18h1M51 18h1M61 18h1M38 19h2M43 19h1M51 19h1M64 19h1M53 20h1M60 20h1M63 20h1M44 21h1M54 21h1M62 21h1M56 24h1M54 25h2M58 25h1M57 26h1M56 27h1M62 52h1M62 53h1M62 54h1M63 55h1M63 56h1M63 57h1" />
<path stroke="#deb552" d="M46 8h1M45 9h2M45 10h3M41 11h2M46 11h2M37 12h1M42 12h2M47 12h1M43 13h2M47 13h1M35 14h2M43 14h1M35 15h2M43 15h1M57 15h2M35 16h3M54 16h1M57 16h3M36 17h4M58 17h2M38 18h5M52 18h2M59 18h2M63 18h2M40 19h3M52 19h3M59 19h1M62 19h2M44 20h1M54 20h2M61 20h2M43 21h1M61 21h1M42 22h2M57 24h2M56 25h2M54 26h3M55 27h1M56 51h4M57 52h3M58 53h2M58 54h3M59 55h2M59 56h3M26 63h1M30 63h1M24 64h1M32 64h1M23 65h1M33 65h1M57 65h2M57 66h4M34 67h1M56 67h6M56 68h6M56 69h5M57 70h4M34 71h1M59 71h1M23 73h1M33 73h1M24 74h1M32 74h1M26 75h1M30 75h1" />
<path stroke="#ffe652" d="M37 10h5M36 11h5M35 12h2M46 12h1M35 13h2M46 13h1M54 14h4M53 15h4M52 16h2M52 17h2M60 52h2M60 53h2M61 54h1M61 55h2M62 56h1M62 57h1M27 63h3M25 64h7M24 65h9M23 66h11M22 67h12M22 68h13M22 69h13M22 70h13M22 71h12M23 72h11M24 73h9M25 74h7M27 75h3" />
<path stroke="#4a526b" d="M48 14h1M47 15h1M54 18h1M46 24h4M50 25h2M52 26h2M54 27h1M55 28h1M56 29h1M57 30h1M58 31h1M58 32h1M59 33h1M59 34h1M60 36h1M61 39h3M64 40h1M64 41h1M64 42h1M63 43h1M60 49h1M61 50h1M61 51h1M63 58h1M63 59h1M63 60h1M63 61h1M63 62h1M62 66h1M58 73h1" />
<path stroke="#ce3a52" d="M34 22h2M33 23h1M30 24h1M28 25h1M23 30h1M22 32h1M21 33h1M21 72h1M20 73h2M21 74h1M21 75h2" />
<path stroke="#8c314a" d="M36 22h6M31 23h2M42 23h2M29 24h1M44 24h2M27 25h1M46 25h2M26 26h1M48 26h1M25 27h1M49 27h1M24 28h1M50 28h1M23 29h1M51 29h1M52 30h1M22 31h1M53 31h1M54 32h1M55 33h1M21 34h1M56 34h1M21 35h1M57 35h1M21 36h1M57 36h2M58 37h1M59 38h1M32 39h2M59 39h1M29 40h1M47 40h3M56 40h2M22 41h1M27 41h1M50 41h3M26 42h1M23 43h1M51 43h1M24 44h1M20 68h1M50 68h1M48 69h1M47 70h1M46 71h1M51 71h1M55 71h1M49 72h1M45 73h1M48 74h1" />
<path stroke="#f78473" d="M34 23h8M31 24h13M29 25h17M27 26h5M41 26h7M26 27h4M44 27h5M25 28h3M46 28h4M24 29h2M48 29h3M24 30h1M49 30h3M23 31h1M51 31h2M23 32h1M52 32h2M22 33h1M22 34h1" />
<path stroke="#a5b5c5" d="M48 25h2M49 26h3M50 27h4M51 28h4M54 29h2M56 30h1M57 31h1M59 49h1M58 50h3M60 51h1M62 58h1M62 59h1M62 60h1M62 61h1" />
<path stroke="#e65263" d="M32 26h9M30 27h14M28 28h18M26 29h22M25 30h24M24 31h27M24 32h28M23 33h32M23 34h33M22 35h35M22 36h35M22 37h36M22 38h37M22 39h10M44 39h15M22 40h7M50 40h6M23 41h4M48 41h2M23 42h3M48 42h4M24 43h2M49 43h2M50 44h1M51 68h3M20 69h1M49 69h6M20 70h1M48 70h8M20 71h1M47 71h4M20 72h1M46 72h3M46 73h3M45 74h3M45 75h3" />
<path stroke="#7b8ca5" d="M52 29h2M53 30h3M54 31h3M55 32h3M56 33h3M57 34h2M58 35h2M59 36h1M59 37h1M59 57h3M60 58h2M60 59h2M60 60h2M60 61h2M60 62h3M60 63h3M59 64h4M59 65h4M61 66h1M57 71h2M58 72h2" />
<path stroke="#dedede" d="M36 40h4M34 41h10M33 42h13M33 43h15M26 44h2M33 44h16M25 45h3M33 45h17M24 46h4M33 46h18M24 47h4M34 47h18M23 48h5M34 48h18M23 49h5M34 49h19M22 50h5M35 50h18M54 50h1M19 51h1M21 51h6M35 51h19M21 52h6M36 52h18M20 53h6M36 53h19M17 54h1M19 54h7M37 54h18M19 55h7M37 55h19M18 56h7M38 56h18M17 57h8M39 57h17M17 58h7M41 58h16M16 59h8M42 59h15M16 60h7M44 60h13M15 61h8M45 61h12M15 62h7M47 62h8M14 63h7M14 64h6M14 65h4" />
<path stroke="#ffffff" d="M23 47h1M22 48h1M52 48h1M21 49h2M53 49h1M20 50h2M53 50h1M20 51h1M54 51h1M19 52h2M54 52h2M18 53h2M55 53h2M18 54h1M55 54h2M17 55h2M56 55h2M16 56h2M56 56h2M16 57h1M56 57h2M15 58h2M57 58h2M15 59h1M57 59h2M14 60h2M57 60h2M14 61h1M57 61h2M14 62h1M55 62h4M13 63h1M50 63h9M13 64h1M13 65h1M13 66h3" />
</svg>