<svg xmlns="http://www.w3.org/2000/svg" viewBox="0 -0.5 80 80" shape-rendering="crispEdges">
<metadata>Made with Pixels to Svg https://codepen.io/shshaw/pen/XbxvNj</metadata>
<path stroke="#ad9c6b" d="M23 23h9M44 23h9M20 24h3M43 24h1M52 24h1M19 25h1M23 25h1M31 25h1M41 25h1M43 25h1M54 25h1M18 26h1M21 26h1M33 26h1M43 26h1M54 26h2M23 27h1M31 27h1M36 27h1M42 27h1M54 27h2M18 28h1M42 28h1M54 28h2M19 29h1M41 29h2M54 29h3M18 30h1M20 30h1M22 30h1M32 30h2M42 30h1M54 30h3M17 31h1M19 31h1M21 31h2M24 31h3M28 31h6M35 31h1M54 31h3M17 32h6M24 32h2M27 32h8M55 32h2M16 33h7M24 33h1M26 33h9M55 33h2M16 34h7M25 34h10M40 34h1M42 34h2M55 34h3M15 35h8M24 35h12M42 35h2M58 35h1M17 36h5M23 36h14M38 36h1M45 36h2M50 36h1M53 36h5M59 36h1M15 37h2M18 37h4M23 37h13M37 37h3M45 37h3M49 37h2M52 37h6M59 37h2M15 38h3M19 38h3M23 38h9M34 38h1M37 38h3M46 38h5M52 38h3M57 38h2M60 38h2M15 39h4M20 39h1M22 39h8M32 39h2M36 39h5M46 39h4M53 39h1M57 39h1M60 39h1M11 40h1M15 40h4M20 40h1M22 40h7M30 40h5M36 40h5M44 40h1M47 40h3M10 41h8M22 41h6M29 41h7M37 41h5M44 41h1M48 41h1M11 42h3M15 42h2M18 42h4M23 42h3M29 42h7M38 42h3M44 42h1M12 43h1M17 43h6M24 43h1M26 43h3M30 43h6M39 43h1M18 44h2M21 44h2M25 44h4M30 44h1M33 44h2M18 45h1M22 45h2M26 45h3M33 45h1M23 46h1M27 46h2M73 58h1M73 59h2M73 60h2M73 61h4M73 62h4M73 63h4" />
<path stroke="#524a31" d="M42 23h2M32 24h4M41 24h1M24 25h7M40 25h1M53 25h1M22 26h11M40 26h1M53 26h1M17 27h1M24 27h7M40 27h1M53 27h1M17 28h1M19 28h1M35 28h1M39 28h1M53 28h1M17 29h1M20 29h3M32 29h3M53 29h1M16 30h1M23 30h9M34 30h1M53 30h1M23 31h1M27 31h1M34 31h1M41 31h1M53 31h1M23 32h1M26 32h1M35 32h1M54 32h1M23 33h1M25 33h1M35 33h1M41 33h1M54 33h1M23 34h2M35 34h1M41 34h1M46 34h4M54 34h1M23 35h1M36 35h1M38 35h4M45 35h1M50 35h1M13 36h4M22 36h1M37 36h1M42 36h3M51 36h2M11 37h2M17 37h1M22 37h1M36 37h1M44 37h1M51 37h1M58 37h1M10 38h1M18 38h1M22 38h1M32 38h2M35 38h2M44 38h1M59 38h1M10 39h1M19 39h1M21 39h1M30 39h2M35 39h1M10 40h1M19 40h1M21 40h1M29 40h1M9 41h1M28 41h1M17 42h1M26 42h3M25 43h1M29 43h1M24 44h1M29 44h1M35 44h1M24 45h1M29 45h1M34 45h1" />
<path stroke="#d6d684" d="M23 24h9M42 24h1M44 24h8M20 25h3M32 25h4M42 25h1M44 25h9M19 26h2M34 26h3M41 26h2M44 26h9M18 27h5M32 27h4M37 27h1M41 27h1M43 27h10M20 28h15M36 28h2M40 28h2M43 28h10M18 29h1M23 29h9M35 29h4M40 29h1M43 29h10M17 30h1M19 30h1M21 30h1M35 30h5M41 30h1M43 30h10M18 31h1M20 31h1M36 31h4M43 31h10M36 32h5M42 32h1M44 32h10M36 33h5M42 33h1M44 33h10M36 34h4M45 34h1M50 34h4M37 35h1M46 35h4M51 35h2M59 35h2M39 36h3M47 36h3M60 36h2M13 37h2M40 37h4M48 37h1M61 37h1M11 38h4M40 38h4M11 39h4M41 39h4M12 40h3M41 40h3M73 57h1M74 58h1M75 59h1M75 60h1" />
<path stroke="#191919" d="M53 24h2M36 25h1M55 25h1M37 26h1M56 26h1M38 27h1M56 27h1M38 28h1M56 28h2M39 29h1M57 29h1M63 29h1M40 30h1M57 30h1M62 30h1M16 31h1M40 31h1M42 31h1M57 31h1M62 31h1M16 32h1M41 32h1M43 32h1M57 32h1M61 32h1M15 33h1M43 33h1M57 33h1M61 33h1M15 34h1M44 34h1M58 34h3M14 35h1M44 35h1M53 35h5M61 35h1M67 35h1M58 36h1M62 36h1M67 36h1M62 37h1M67 37h1M45 38h1M62 38h1M34 39h1M45 39h1M56 39h1M64 39h1M5 40h1M35 40h1M45 40h1M56 40h1M64 40h1M66 40h1M72 40h1M5 41h1M18 41h4M36 41h1M43 41h1M45 41h1M56 41h1M64 41h1M72 41h1M5 42h2M22 42h1M36 42h1M43 42h1M48 42h1M63 42h1M71 42h1M6 43h1M23 43h1M63 43h1M71 43h1M6 44h1M23 44h1M44 44h1M63 44h1M70 44h1M64 45h1M69 45h1M3 49h1M3 50h1M2 51h1M2 52h1M72 52h8M2 53h1M1 54h2M70 54h1M1 55h1M70 55h1M1 56h1M71 56h1M74 56h1M1 57h1M71 57h1M74 57h1M1 58h1M71 58h1M75 58h1M0 59h2M72 59h1M76 59h1M0 60h1M72 60h1M76 60h1M0 61h1M72 61h1M77 61h1M0 62h1M72 62h1M77 62h1M0 63h1M72 63h1M77 63h1" />
<path stroke="#633a42" d="M64 28h1M65 29h1M65 30h1M66 31h1M66 32h1M66 33h1M67 34h1M51 38h1M55 38h2M63 38h2M67 38h1M5 39h3M50 39h1M52 39h1M54 39h1M59 39h1M61 39h2M66 39h1M69 39h4M7 40h2M46 40h1M50 40h1M53 40h1M59 40h2M67 40h2M8 41h1M42 41h1M47 41h1M49 41h1M53 41h1M59 41h1M66 41h1M9 42h2M14 42h1M37 42h1M41 42h1M45 42h1M47 42h1M49 42h1M56 42h1M65 42h1M10 43h2M13 43h1M15 43h2M36 43h1M38 43h1M40 43h1M44 43h1M48 43h1M65 43h1M11 44h3M16 44h1M20 44h1M31 44h2M38 44h1M6 45h1M12 45h1M17 45h1M19 45h1M21 45h1M25 45h1M30 45h1M32 45h1M39 45h1M45 45h1M5 46h1M18 46h1M22 46h1M24 46h1M26 46h1M29 46h1M33 46h1M65 46h1M68 46h5M4 47h1M23 47h1M27 47h2M66 47h1M73 47h2M4 48h1M27 48h1M67 48h1M75 48h2M67 49h1M77 49h1M68 50h1M78 50h1M3 51h1M68 51h3M79 51h1M69 52h1M71 52h1M69 53h1M73 53h1M73 54h1M73 55h1M73 56h1" />
<path stroke="#ff9429" d="M64 29h1M64 30h1M64 31h2M65 32h1M65 33h1M65 34h2M66 35h1M55 39h1M63 39h1M6 40h1M54 40h2M62 40h1M70 40h2M6 41h2M54 41h1M62 41h1M7 42h2M53 42h1M8 43h1M14 43h1M14 44h2M15 45h1M63 46h2M62 47h3M38 48h1M40 48h1M59 48h1M61 48h5M73 48h2M37 49h1M39 49h1M58 49h1M60 49h1M62 49h5M73 49h4M38 50h1M40 50h1M59 50h1M61 50h1M63 50h5M75 50h3M64 51h4M65 52h3M65 53h4M66 54h3M68 55h2M68 56h2" />
<path stroke="#e66b19" d="M63 30h1M63 31h1M62 32h3M62 33h3M61 34h4M62 35h4M63 36h4M8 37h2M63 37h4M8 38h1M65 38h2M8 39h1M51 39h1M65 39h1M51 40h2M58 40h1M61 40h1M63 40h1M65 40h1M69 40h1M46 41h1M50 41h3M55 41h1M57 41h2M60 41h2M63 41h1M65 41h1M67 41h5M42 42h1M46 42h1M50 42h3M54 42h2M57 42h2M60 42h3M64 42h1M66 42h5M7 43h1M9 43h1M37 43h1M41 43h3M45 43h3M49 43h14M64 43h1M66 43h5M7 44h4M36 44h2M40 44h4M45 44h18M64 44h6M7 45h4M13 45h2M20 45h1M31 45h1M35 45h4M40 45h5M46 45h18M65 45h4M6 46h6M13 46h4M20 46h2M25 46h1M30 46h3M34 46h29M66 46h2M5 47h18M24 47h2M29 47h33M65 47h1M67 47h6M5 48h22M28 48h10M39 48h1M41 48h18M60 48h1M66 48h1M68 48h5M4 49h33M38 49h1M40 49h18M59 49h1M61 49h1M68 49h5M4 50h34M39 50h1M41 50h18M60 50h1M62 50h1M69 50h6M4 51h60M71 51h8M3 52h62M68 52h1M70 52h1M3 53h57M70 53h3M3 54h44M52 54h7M69 54h1M71 54h2M2 55h44M53 55h5M67 55h1M71 55h2M2 56h43M54 56h4M67 56h1M70 56h1M72 56h1M2 57h43M54 57h4M62 57h1M67 57h4M72 57h1M2 58h43M49 58h1M54 58h3M61 58h3M68 58h3M72 58h1M2 59h32M38 59h6M48 59h3M55 59h2M61 59h3M68 59h4M1 60h31M40 60h4M48 60h3M55 60h2M60 60h5M68 60h4M1 61h31M40 61h4M47 61h5M55 61h2M60 61h5M68 61h4M1 62h30M41 62h3M47 62h5M55 62h2M60 62h5M68 62h4M1 63h30M35 63h2M41 63h3M47 63h5M55 63h2M60 63h5M68 63h4" />
<path stroke="#bd4a31" d="M9 38h1M9 39h1M58 39h1M9 40h1M57 40h1M59 42h1M39 44h1M11 45h1M16 45h1M12 46h1M17 46h1M19 46h1M26 47h1" />
<path stroke="#9c6b84" d="M17 44h1M60 53h1M64 53h1M47 54h1M51 54h1M59 54h1M65 54h1M46 55h1M52 55h1M58 55h1M66 55h1M45 56h1M53 56h1M61 57h1M63 57h1M48 58h1M50 58h1M57 58h1M67 58h1M34 59h1M37 59h1M44 59h1M54 59h1M60 59h1M64 59h1M32 60h1M39 60h1M47 60h1M51 60h1M31 62h1M40 62h1M34 63h1M37 63h1" />
<path stroke="#5273ef" d="M61 53h3M48 54h3M60 54h5M47 55h5M59 55h7M46 56h7M58 56h9M45 57h9M58 57h3M64 57h3M45 58h3M51 58h3M58 58h3M64 58h3M35 59h2M45 59h3M51 59h3M57 59h3M65 59h3M33 60h6M44 60h3M52 60h3M57 60h3M65 60h3M32 61h8M44 61h3M52 61h3M57 61h3M65 61h3M32 62h8M44 62h3M52 62h3M57 62h3M65 62h3M31 63h3M38 63h3M44 63h3M52 63h3M57 63h3M65 63h3" />
</svg>