<svg xmlns="http://www.w3.org/2000/svg" viewBox="0 -0.5 80 80" shape-rendering="crispEdges">
<metadata>Made with Pixels to Svg https://codepen.io/shshaw/pen/XbxvNj</metadata>
<path stroke="#9c6b21" d="M42 3h1M41 4h1M41 5h1M40 6h1M39 7h1M46 7h1M39 8h1M38 9h1M45 9h1M38 10h1M37 11h1M37 12h1M36 13h1M44 13h1M35 14h1M35 15h1M11 16h2M34 16h1M44 16h1M11 17h1M13 17h1M33 17h1M43 17h1M45 17h1M11 18h1M14 18h1M32 18h1M43 18h1M11 19h1M15 19h1M32 19h1M11 20h1M16 20h3M33 20h1M36 20h1M42 20h1M12 21h1M19 21h1M35 21h1M20 22h1M35 22h1M43 23h1M69 23h2M67 24h2M17 25h1M62 25h5M14 26h1M18 26h2M22 26h2M43 26h1M58 26h4M64 26h1M20 27h1M22 27h1M33 27h1M42 27h2M57 27h1M63 27h1M16 28h1M21 28h2M57 28h1M17 29h1M22 29h2M57 29h1M18 30h1M23 30h1M57 30h1M66 30h1M18 31h2M64 31h2M19 32h2M26 32h1M61 32h3M66 32h1M19 33h2M25 33h1M55 33h1M60 33h2M66 33h1M59 34h4M58 35h3M53 36h1M57 36h3M56 37h4M38 38h1M55 38h4M54 39h2M40 42h1M25 43h1M15 44h1M39 44h1M12 45h1M36 45h4M42 45h1M36 46h4M35 47h1M37 47h2M63 48h3M58 49h5M66 49h1M15 50h1M36 50h1M67 50h1M36 51h1M54 51h3M68 51h2M36 52h2M43 52h1M52 52h7M70 52h1M36 53h2M41 53h1M52 53h6M60 53h2M71 53h3M36 54h4M68 54h2M74 54h3M36 55h4M72 55h1M77 55h3M37 56h2M79 56h1M21 58h1M15 63h1M24 63h1M12 66h1M52 66h3M9 67h1M13 67h1M52 67h5M12 68h1M17 68h1M49 68h2M53 68h5M59 68h1M12 69h1M28 69h1M52 69h1M54 69h7M54 70h4M56 71h2M26 73h1M58 73h1M52 74h1M61 74h1M26 75h1M32 75h1M52 75h4M31 76h6M54 76h3" />
<path stroke="#634a19" d="M43 3h1M44 4h1M44 5h1M45 6h1M46 8h1M45 10h1M45 11h1M45 12h1M42 13h1M42 14h1M44 14h1M41 15h1M44 15h1M41 16h1M40 18h1M45 18h1M45 19h1M32 20h1M46 20h1M11 21h1M33 21h1M46 21h1M12 22h1M33 22h1M45 22h2M12 23h1M21 23h1M33 23h2M44 23h2M12 24h1M22 24h1M34 24h1M43 24h1M71 24h1M12 25h1M22 25h1M34 25h1M71 25h1M12 26h2M33 26h1M70 26h2M13 27h1M23 27h1M32 27h1M38 27h4M44 27h2M69 27h2M13 28h1M20 28h1M23 28h1M28 28h2M31 28h1M36 28h2M42 28h2M47 28h2M68 28h2M13 29h1M21 29h1M26 29h1M31 29h1M35 29h1M50 29h1M67 29h2M13 30h2M22 30h1M24 30h1M31 30h1M34 30h1M52 30h1M56 30h1M67 30h1M14 31h4M23 31h1M32 31h2M53 31h1M55 31h1M66 31h1M17 32h2M22 32h1M27 32h3M54 32h2M18 33h1M21 33h1M30 33h1M54 33h1M18 34h3M25 34h1M31 34h1M54 34h1M63 34h4M19 35h1M25 35h1M31 35h1M53 35h1M61 35h3M18 36h1M25 36h1M30 36h1M52 36h1M60 36h2M16 37h3M25 37h1M28 37h1M38 37h3M52 37h1M15 38h1M17 38h1M26 38h2M37 38h1M41 38h1M52 38h1M11 39h4M17 39h1M37 39h1M42 39h1M52 39h1M56 39h2M60 39h1M8 40h3M13 40h1M17 40h1M37 40h1M42 40h1M53 40h4M60 40h1M3 41h6M13 41h1M17 41h1M37 41h1M42 41h1M61 41h1M2 42h1M13 42h1M16 42h1M37 42h1M42 42h1M61 42h1M3 43h1M12 43h1M16 43h1M22 43h3M36 43h1M42 43h1M5 44h1M12 44h1M16 44h1M21 44h1M25 44h1M36 44h1M42 44h1M62 44h1M7 45h1M11 45h1M15 45h1M21 45h1M24 45h1M35 45h1M62 45h1M11 46h1M15 46h1M21 46h1M24 46h1M35 46h1M43 46h1M62 46h1M11 47h1M15 47h1M21 47h1M23 47h1M43 47h1M62 47h1M11 48h1M15 48h1M22 48h2M34 48h1M43 48h1M62 48h1M11 49h1M15 49h1M34 49h1M43 49h1M56 49h2M34 50h1M43 50h1M54 50h2M13 51h2M34 51h1M43 51h1M52 51h2M12 52h2M34 52h1M51 52h1M21 53h2M34 53h1M42 53h1M51 53h1M20 54h1M23 54h1M35 54h1M41 54h1M52 54h4M14 55h1M20 55h1M23 55h1M35 55h1M40 55h1M57 55h1M20 56h1M23 56h1M36 56h1M39 56h1M58 56h1M20 57h1M37 57h2M61 57h1M78 57h2M24 58h1M70 58h1M75 58h1M15 59h1M21 59h1M24 59h1M22 60h2M60 60h1M16 62h1M14 63h1M16 63h1M23 63h1M13 64h1M17 64h1M22 64h1M24 64h1M12 65h1M17 65h1M22 65h1M25 65h1M52 65h3M57 65h1M9 66h3M18 66h1M24 66h2M50 66h2M8 67h1M19 67h1M49 67h3M57 67h1M7 68h1M28 68h1M48 68h1M51 68h2M58 68h1M7 69h1M21 69h1M27 69h1M29 69h1M47 69h1M53 69h1M6 70h1M26 70h1M29 70h1M47 70h2M61 70h1M6 71h1M24 71h2M30 71h1M48 71h2M61 71h1M5 72h1M13 72h1M30 72h1M51 72h1M61 72h1M5 73h1M31 73h1M47 73h1M52 73h1M61 73h1M5 74h1M32 74h2M42 74h1M53 74h1M59 74h2M62 74h1M5 75h1M62 75h1M53 76h1M63 76h1" />
<path stroke="#c59442" d="M42 4h2M42 5h2M41 6h3M40 7h4M40 8h4M39 9h5M39 10h5M39 11h4M39 12h4M38 13h4M38 14h4M37 15h4M37 16h4M37 17h4M44 17h1M37 18h3M44 18h1M38 19h2M43 19h2M43 20h3M16 21h1M42 21h4M16 22h1M19 22h1M41 22h4M19 23h2M40 23h3M17 24h1M19 24h3M39 24h1M41 24h2M18 25h4M38 25h1M40 25h3M16 26h2M20 26h2M34 26h1M39 26h4M65 26h1M14 27h2M17 27h3M21 27h1M36 27h2M14 28h2M17 28h3M32 28h4M62 28h2M14 29h3M18 29h3M32 29h3M61 29h2M15 30h3M19 30h3M32 30h2M60 30h2M65 30h1M20 31h3M56 31h6M21 32h1M56 32h5M64 32h2M56 33h4M62 33h4M55 34h4M26 35h2M54 35h4M26 36h3M54 36h3M26 37h2M53 37h3M39 38h2M53 38h2M38 39h4M53 39h1M38 40h4M38 41h4M15 42h1M38 42h2M41 42h1M13 43h3M37 43h5M6 44h4M11 44h1M13 44h2M37 44h2M40 44h2M8 45h3M13 45h2M40 45h2M9 46h2M12 46h3M22 46h2M40 46h3M10 47h1M12 47h3M22 47h1M36 47h1M39 47h4M12 48h3M35 48h8M12 49h3M35 49h8M12 50h3M35 50h1M37 50h6M12 51h1M35 51h1M37 51h6M57 51h1M35 52h1M38 52h5M59 52h1M35 53h1M38 53h3M58 53h2M62 53h2M21 54h2M40 54h1M56 54h7M64 54h1M70 54h1M73 54h1M21 55h2M58 55h6M71 55h1M73 55h4M21 56h2M59 56h7M72 56h7M21 57h2M62 57h6M73 57h5M22 58h2M71 58h4M22 59h2M23 64h1M16 65h1M23 65h2M15 66h3M14 67h5M13 68h4M13 69h4M48 69h4M11 70h5M27 70h2M49 70h5M11 71h5M26 71h4M50 71h6M8 72h1M11 72h2M26 72h4M52 72h6M7 73h2M27 73h4M53 73h5M6 74h2M27 74h5M54 74h5M27 75h5M56 75h6M26 76h5M57 76h6" />
<path stroke="#deb519" d="M44 6h1M38 11h1M43 11h1M38 12h1M37 13h1M36 14h2M36 15h1M42 15h1M35 16h2M42 16h1M34 17h3M41 17h2M33 18h4M41 18h2M33 19h5M40 19h3M12 20h1M34 20h2M37 20h5M13 21h1M34 21h1M36 21h6M13 22h3M34 22h1M36 22h5M13 23h5M35 23h5M13 24h4M18 24h1M35 24h4M40 24h1M13 25h4M35 25h3M39 25h1M15 26h1M35 26h4M66 26h2M16 27h1M34 27h2M64 27h3M64 28h2M67 28h1M63 29h4M59 30h1M62 30h3M62 31h2M26 33h4M26 34h5M28 35h3M16 38h1M15 39h2M11 40h2M14 40h3M9 41h4M14 41h3M3 42h10M14 42h1M4 43h8M10 44h1M22 44h3M22 45h2M63 54h1M65 54h3M64 55h7M66 56h6M68 57h5M14 64h3M13 65h3M13 66h2M10 67h3M8 68h4M8 69h4M7 70h4M58 70h3M7 71h4M58 71h3M6 72h2M9 72h2M58 72h3M6 73h1M9 73h2M59 73h2" />
<path stroke="#efde6b" d="M44 7h2M44 8h2M44 9h1M44 10h1M44 11h1M43 12h2M43 13h1M43 14h1M43 15h1M43 16h1M12 17h1M12 18h2M12 19h3M13 20h3M14 21h2M17 21h2M17 22h2M18 23h1M69 24h2M67 25h4M62 26h2M68 26h2M58 27h5M67 27h2M58 28h4M66 28h1M58 29h3M58 30h1M63 49h3M56 50h11M58 51h10M60 52h10M64 53h7M71 54h2" />
<path stroke="#101010" d="M43 25h1M44 26h1M60 37h1M59 38h2M58 39h2M2 43h1M3 44h2M5 45h2M7 46h2M8 47h2M9 48h2M10 49h1M11 50h1M11 51h1M11 52h1M12 53h2M13 54h1M13 55h1M55 55h2M14 56h1M57 56h1M14 57h1M58 57h3M14 58h1M61 58h9M76 58h3M14 59h1M61 59h1M70 59h6M15 60h1M61 60h1M15 61h1M60 61h1M15 62h1M59 62h2M59 63h1M58 64h2M58 65h1M55 66h3M18 68h3M17 69h2M20 69h1M16 70h2M21 70h2M16 71h1M22 71h2M14 72h3M24 72h2M49 72h2M11 73h3M25 73h1M48 73h2M51 73h1M8 74h4M26 74h1M43 74h5M51 74h1M6 75h3M25 75h1M33 75h10M51 75h1M25 76h1M37 76h1M51 76h2" />
<path stroke="#bd5a10" d="M30 28h1M38 28h4M46 28h1M27 29h1M36 29h6M49 29h1M25 30h1M35 30h7M51 30h1M30 31h2M34 31h9M30 32h14M31 33h14M24 34h1M32 34h15M22 35h3M32 35h17M21 36h4M31 36h20M20 37h5M29 37h9M41 37h11M20 38h6M28 38h9M42 38h10M19 39h18M43 39h9M19 40h18M43 40h10M18 41h19M43 41h13M17 42h20M43 42h13M17 43h5M26 43h10M43 43h14M61 43h1M17 44h4M26 44h10M43 44h14M16 45h5M25 45h10M43 45h15M16 46h5M25 46h10M44 46h14M16 47h5M24 47h11M44 47h15M16 48h6M24 48h10M44 48h15M16 49h18M44 49h12M16 50h18M44 50h10M15 51h19M44 51h8M14 52h20M44 52h7M14 53h7M23 53h11M43 53h8M14 54h6M24 54h11M42 54h10M15 55h5M24 55h11M41 55h14M15 56h5M24 56h12M40 56h17M15 57h5M24 57h13M39 57h19M15 58h6M25 58h35M16 59h5M25 59h35M16 60h5M24 60h36M16 61h44M17 62h42M17 63h6M25 63h34M18 64h4M25 64h33M18 65h4M26 65h26M55 65h2M19 66h4M26 66h24M20 67h29M21 68h7M29 68h19M22 69h5M30 69h17M23 70h3M30 70h17M31 71h17M31 72h18M33 73h14M35 74h7" />
<path stroke="#e69400" d="M44 28h2M28 29h3M43 29h6M26 30h5M43 30h8M24 31h5M43 31h10M23 32h3M44 32h10M22 33h3M46 33h8M21 34h2M48 34h6M20 35h2M50 35h3M19 36h2M51 36h1M19 37h1M18 38h1M18 39h1M57 40h3M56 41h5M57 42h4M57 43h4M58 44h4M58 45h4M59 46h3M59 47h3M59 48h3M60 58h1M60 59h1" />
<path stroke="#d67b00" d="M42 29h1M42 30h1M29 31h1M45 33h1M23 34h1M47 34h1M49 35h1M19 38h1M18 40h1M56 42h1M57 44h1M58 46h1" />
<path stroke="#a55200" d="M29 36h1M23 57h1M21 60h1M23 66h1M32 73h1M34 74h1" />
</svg>