<svg xmlns="http://www.w3.org/2000/svg" viewBox="0 -0.5 80 80" shape-rendering="crispEdges">
<metadata>Made with Pixels to Svg https://codepen.io/shshaw/pen/XbxvNj</metadata>
<path stroke="#315ace" d="M37 20h10M35 21h2M34 22h1M47 22h1M33 23h1M45 23h3M31 24h2M43 24h7M28 25h4M42 25h4M50 25h3M19 26h3M26 26h2M30 26h1M41 26h3M53 26h2M18 27h1M24 27h2M29 27h1M40 27h3M55 27h4M17 28h1M21 28h3M28 28h2M39 28h3M53 28h3M59 28h2M16 29h1M21 29h2M28 29h1M38 29h3M51 29h3M61 29h1M15 30h1M20 30h3M27 30h2M38 30h3M50 30h2M62 30h1M14 31h1M20 31h2M27 31h1M37 31h3M49 31h1M63 31h1M14 32h1M19 32h3M26 32h2M37 32h2M48 32h1M64 32h1M13 33h2M19 33h2M26 33h1M36 33h3M47 33h1M65 33h1M13 34h1M19 34h2M26 34h1M36 34h2M46 34h1M66 34h1M13 35h1M19 35h2M26 35h1M35 35h3M45 35h1M63 35h3M12 36h2M18 36h3M35 36h3M44 36h1M61 36h5M12 37h1M18 37h2M35 37h2M59 37h5M12 38h1M18 38h2M34 38h3M57 38h5M12 39h1M18 39h2M25 39h1M34 39h2M56 39h4M11 40h2M18 40h2M34 40h2M55 40h4M11 41h2M18 41h2M34 41h2M39 41h2M54 41h3M10 42h1M18 42h2M33 42h3M53 42h3M10 43h1M18 43h2M33 43h2M52 43h3M9 44h2M18 44h2M24 44h1M33 44h2M51 44h3M70 44h2M8 45h3M18 45h2M33 45h2M50 45h3M69 45h1M7 46h1M9 46h2M18 46h2M33 46h2M50 46h2M68 46h2M6 47h2M9 47h2M18 47h3M32 47h3M49 47h3M68 47h1M6 48h1M9 48h2M19 48h2M32 48h2M48 48h3M67 48h1M73 48h1M5 49h2M9 49h2M19 49h2M32 49h2M47 49h3M66 49h1M5 50h1M9 50h2M13 50h1M19 50h3M32 50h2M47 50h2M65 50h1M5 51h1M9 51h2M20 51h2M32 51h2M46 51h3M63 51h1M5 52h1M9 52h3M20 52h3M32 52h2M46 52h2M61 52h2M5 53h1M10 53h2M14 53h1M21 53h2M32 53h1M45 53h2M59 53h2M10 54h2M22 54h2M32 54h1M45 54h2M57 54h3M11 55h2M15 55h1M23 55h1M32 55h1M44 55h2M55 55h3M6 56h1M12 56h2M44 56h2M52 56h4M13 57h3M43 57h10M15 58h2M43 58h7M67 59h1M65 60h1" />
<path stroke="#7bbdff" d="M37 21h10M35 22h12M34 23h10M33 24h9M32 25h9M28 26h2M31 26h3M48 26h5M19 27h2M26 27h3M30 27h2M49 27h6M18 28h3M24 28h4M30 28h1M52 28h1M56 28h3M17 29h3M23 29h3M29 29h2M54 29h7M16 30h3M23 30h1M29 30h1M52 30h10M15 31h3M28 31h1M50 31h3M55 31h8M15 32h2M28 32h1M49 32h2M57 32h7M15 33h1M27 33h1M48 33h2M58 33h7M14 34h2M27 34h1M47 34h1M59 34h6M14 35h1M46 35h1M60 35h2M14 36h1M45 36h1M13 37h1M44 37h1M13 38h1M13 39h1M66 39h1M13 40h1M65 40h2M65 41h3M11 42h1M66 42h2M11 43h1M66 43h3M11 44h1M67 44h2M11 45h1M67 45h1M70 45h2M8 46h1M70 46h2M8 47h1M69 47h3M7 48h2M68 48h3M7 49h2M67 49h3M6 50h2M66 50h3M6 51h2M66 51h2M6 52h1M65 52h1M6 53h1M64 53h1M62 54h1" />
<path stroke="#31427b" d="M47 21h1M48 22h1M48 23h1M22 27h2M25 35h1M66 35h1M25 36h1M66 36h1M25 37h1M43 37h1M65 37h2M25 38h1M42 38h1M66 38h1M24 39h1M41 39h1M67 39h1M24 40h1M40 40h1M67 40h1M24 41h1M68 41h1M12 42h1M24 42h1M39 42h1M68 42h1M12 43h1M24 43h1M38 43h1M69 43h1M12 44h1M23 44h1M38 44h1M69 44h1M72 44h1M12 45h1M23 45h1M37 45h1M73 45h1M12 46h1M23 46h1M37 46h1M12 47h1M23 47h1M36 47h1M12 48h1M23 48h1M36 48h1M12 49h1M23 49h1M35 49h1M12 50h1M23 50h1M35 50h1M13 51h1M23 51h1M34 51h1M13 52h1M23 52h1M34 52h1M13 53h1M23 53h1M33 53h2M5 54h1M14 54h1M33 54h1M5 55h1M14 55h1M33 55h1M15 56h1M16 57h1M70 57h1M17 58h1M69 58h2M68 59h3M66 60h2M70 60h1" />
<path stroke="#639cf7" d="M44 23h1M42 24h1M41 25h1M46 25h4M34 26h7M44 26h4M21 27h1M32 27h8M43 27h6M31 28h8M42 28h10M20 29h1M26 29h2M31 29h7M41 29h10M19 30h1M24 30h3M30 30h8M41 30h9M18 31h2M22 31h5M29 31h8M40 31h9M53 31h2M17 32h2M22 32h4M29 32h8M39 32h9M51 32h6M16 33h3M21 33h5M28 33h8M39 33h8M50 33h8M16 34h3M21 34h5M28 34h8M38 34h8M48 34h11M65 34h1M15 35h4M21 35h4M27 35h8M38 35h7M47 35h13M62 35h1M15 36h3M21 36h4M26 36h9M38 36h6M46 36h15M14 37h4M20 37h5M26 37h9M37 37h6M45 37h14M64 37h1M14 38h4M20 38h5M26 38h8M37 38h5M43 38h14M62 38h4M14 39h4M20 39h4M26 39h8M36 39h5M42 39h14M60 39h6M14 40h4M20 40h4M25 40h9M36 40h4M41 40h14M59 40h6M13 41h5M20 41h4M25 41h9M36 41h3M41 41h13M57 41h8M13 42h5M20 42h4M25 42h8M36 42h3M40 42h13M56 42h10M13 43h5M20 43h4M25 43h8M35 43h3M39 43h13M55 43h11M13 44h5M20 44h3M25 44h8M35 44h3M39 44h12M54 44h13M13 45h5M20 45h3M24 45h9M35 45h2M38 45h12M53 45h14M68 45h1M72 45h1M11 46h1M13 46h5M20 46h3M24 46h9M35 46h2M38 46h12M52 46h16M72 46h1M11 47h1M13 47h5M21 47h2M24 47h8M35 47h1M37 47h12M52 47h16M72 47h1M11 48h1M13 48h6M21 48h2M24 48h8M34 48h2M37 48h11M51 48h16M71 48h2M11 49h1M13 49h6M21 49h2M24 49h8M34 49h1M36 49h11M50 49h16M70 49h4M8 50h1M11 50h1M14 50h5M22 50h1M24 50h8M34 50h1M36 50h11M49 50h16M69 50h5M8 51h1M11 51h2M14 51h6M22 51h1M24 51h8M35 51h11M49 51h14M64 51h2M68 51h6M7 52h2M12 52h1M14 52h6M24 52h8M35 52h11M48 52h13M63 52h2M66 52h8M7 53h3M12 53h1M15 53h6M24 53h8M35 53h10M47 53h12M61 53h3M65 53h9M6 54h4M12 54h2M15 54h7M24 54h8M34 54h11M47 54h10M60 54h2M63 54h10M6 55h5M13 55h1M16 55h7M24 55h8M34 55h10M46 55h9M58 55h14M7 56h5M14 56h1M16 56h28M46 56h6M56 56h15M7 57h6M17 57h26M53 57h17M7 58h8M18 58h25M50 58h19M8 59h59M9 60h56M68 60h2" />
<path stroke="#3a3a63" d="M73 46h1M73 47h1M74 48h1M74 49h1M74 50h1M74 51h1M74 52h1M74 53h1M73 54h2M72 55h2M5 56h1M71 56h2M6 57h1M71 57h1M6 58h1M6 59h2M7 60h2" />
</svg>