<svg xmlns="http://www.w3.org/2000/svg" viewBox="0 -0.5 80 80" shape-rendering="crispEdges">
<metadata>Made with Pixels to Svg https://codepen.io/shshaw/pen/XbxvNj</metadata>
<path stroke="#bd4a29" d="M50 10h6M49 11h2M58 11h1M48 12h1M55 12h1M59 12h1M57 14h4M45 15h1M51 15h1M56 15h6M56 16h1M60 16h2M55 17h1M57 17h2M61 17h1M46 18h1M50 18h1M54 18h2M57 18h3M61 18h2M46 19h6M53 19h4M58 19h2M61 19h2M43 20h2M46 20h6M53 20h7M61 20h2M43 21h3M47 21h6M54 21h6M61 21h1M44 22h2M47 22h7M55 22h4M60 22h2M44 23h3M48 23h7M59 23h2M46 24h2M49 24h6M57 24h3M51 25h3M56 25h3M47 26h3M54 26h5M47 27h11M47 28h7M55 28h2M48 29h1M50 29h4M55 29h2M48 30h1M50 30h3M55 30h1M50 31h2M50 32h1M20 41h5M18 42h2M25 42h1M16 43h2M27 43h1M31 44h1M24 45h1M33 45h1M23 46h1M33 46h1M11 47h1M22 47h1M34 47h1M10 48h1M32 48h1M9 49h1M30 49h1M36 49h1M29 50h1M38 50h1M13 51h1M18 51h1M28 51h1M11 52h1M13 52h6M40 52h1M7 53h1M11 53h1M13 53h6M26 53h1M36 53h3M6 54h1M9 54h3M13 54h6M20 54h1M25 54h1M34 54h6M9 55h4M14 55h5M20 55h6M33 55h8M9 56h4M14 56h5M20 56h5M26 56h1M32 56h1M37 56h4M8 57h1M10 57h4M15 57h4M20 57h5M26 57h2M31 57h1M33 57h4M38 57h4M6 58h3M10 58h5M16 58h3M21 58h4M26 58h5M32 58h6M39 58h3M6 59h4M11 59h5M18 59h2M21 59h4M26 59h5M32 59h6M39 59h3M6 60h5M13 60h4M22 60h3M26 60h5M32 60h6M39 60h3M5 61h1M7 61h6M18 61h2M23 61h2M27 61h4M33 61h5M39 61h2M5 62h1M7 62h9M18 62h3M27 62h5M33 62h4M38 62h3M5 63h2M8 63h7M17 63h5M23 63h1M28 63h8M37 63h4M6 64h2M10 64h4M17 64h5M23 64h2M26 64h2M30 64h4M36 64h4M6 65h4M14 65h3M18 65h4M23 65h2M26 65h3M34 65h5M8 66h4M15 66h2M18 66h3M22 66h2M26 66h4M32 66h7M12 67h2M15 67h3M19 67h2M22 67h2M25 67h4M31 67h7M13 68h2M16 68h2M19 68h2M22 68h2M25 68h4M30 68h7" />
<path stroke="#732100" d="M48 11h1M56 11h2M47 12h1M54 12h1M60 12h1M45 13h2M53 13h1M61 13h1M44 14h1M46 14h1M52 14h1M62 14h1M43 15h1M52 15h1M62 15h1M43 16h1M45 16h1M51 16h1M57 16h1M59 16h1M63 16h1M42 17h1M45 17h1M51 17h1M56 17h1M59 17h2M51 18h1M56 18h1M52 19h1M57 19h1M46 21h1M60 21h1M43 22h1M59 22h1M43 23h1M55 23h1M58 23h1M45 24h1M48 24h1M55 24h1M60 24h1M46 25h2M50 25h1M54 25h1M59 25h1M50 26h1M59 26h1M58 27h1M46 28h1M54 28h1M57 28h1M47 29h1M49 29h1M72 30h1M49 31h1M55 31h1M70 31h1M72 31h1M49 32h1M49 33h2M26 42h2M28 43h2M15 44h1M26 44h5M14 45h1M25 45h1M32 45h1M13 46h2M34 46h1M12 47h2M35 47h1M13 48h1M21 48h1M33 48h4M12 49h1M20 49h1M31 49h1M37 49h2M9 50h1M12 50h1M20 50h1M39 50h1M8 51h1M12 51h1M19 51h1M40 51h1M8 52h1M19 52h1M27 52h1M41 52h1M8 53h1M19 53h1M27 53h1M41 53h1M8 54h1M26 54h1M42 54h1M6 55h1M13 55h1M26 55h1M42 55h1M5 56h1M25 56h1M33 56h4M42 56h1M5 57h1M9 57h1M25 57h1M32 57h1M37 57h1M42 57h1M19 58h2M31 58h1M38 58h1M42 58h1M4 59h1M17 59h1M4 60h1M21 60h1M20 61h1M22 61h1M25 61h2M31 61h2M41 61h2M16 62h1M21 62h1M23 62h3M32 62h1M15 63h1M40 64h1M22 65h1M29 65h1M39 65h1M13 66h1M21 66h1M24 66h2M31 66h1M8 67h1M29 67h2M37 68h1" />
<path stroke="#de7329" d="M51 11h5M49 12h5M56 12h3M47 13h6M54 13h7M45 14h1M47 14h5M53 14h4M61 14h1M44 15h1M46 15h5M53 15h3M44 16h1M46 16h5M52 16h4M62 16h1M43 17h2M46 17h5M52 17h3M62 17h1M43 18h2M47 18h3M52 18h2M43 19h2M20 42h5M18 43h9M16 44h10M15 45h9M26 45h6M15 46h8M24 46h9M14 47h8M23 47h11M11 48h2M14 48h7M22 48h10M10 49h2M13 49h7M21 49h9M32 49h4M10 50h2M13 50h7M21 50h8M30 50h8M9 51h3M14 51h4M20 51h8M29 51h11M9 52h2M20 52h7M28 52h12M9 53h2M20 53h6M28 53h8M39 53h2M7 54h1M21 54h4M27 54h7M40 54h2M7 55h1M27 55h6M41 55h1M6 56h2M27 56h5M41 56h1M6 57h2M28 57h3" />
<path stroke="#101010" d="M58 16h1M63 17h1M42 18h1M45 18h1M60 18h1M63 18h1M74 18h1M42 19h1M45 19h1M60 19h1M63 19h1M74 19h1M42 20h1M45 20h1M52 20h1M60 20h1M63 20h1M74 20h1M42 21h1M53 21h1M74 21h1M46 22h1M54 22h1M62 22h1M37 23h1M47 23h1M56 23h2M61 23h2M37 24h1M44 24h1M56 24h1M45 25h1M48 25h2M55 25h1M38 26h1M46 26h1M51 26h3M72 26h1M46 27h1M39 28h1M71 28h1M54 29h1M57 29h1M71 29h1M40 30h1M47 30h1M49 30h1M53 30h2M56 30h1M70 30h1M41 31h2M48 31h1M52 31h1M42 32h1M51 32h1M42 33h1M43 34h1M43 35h1M44 36h1M44 37h1M45 39h1M46 41h1M74 41h1M73 42h1M47 43h1M72 43h1M47 44h1M71 44h1M70 45h1M68 46h1M45 47h1M66 47h1M63 48h2M62 49h1M61 50h1M41 51h1M60 51h1M12 52h1M60 52h1M12 53h1M60 53h1M12 54h1M19 54h1M60 54h1M8 55h1M19 55h1M8 56h1M13 56h1M19 56h1M14 57h1M19 57h1M5 58h1M9 58h1M15 58h1M25 58h1M5 59h1M10 59h1M16 59h1M20 59h1M25 59h1M31 59h1M38 59h1M42 59h1M5 60h1M11 60h2M17 60h4M25 60h1M31 60h1M38 60h1M42 60h1M4 61h1M6 61h1M13 61h5M21 61h1M38 61h1M4 62h1M6 62h1M17 62h1M22 62h1M26 62h1M37 62h1M41 62h1M4 63h1M7 63h1M16 63h1M22 63h1M24 63h4M36 63h1M41 63h1M5 64h1M8 64h2M14 64h3M22 64h1M25 64h1M28 64h2M34 64h2M54 64h1M63 64h1M5 65h1M10 65h4M17 65h1M25 65h1M30 65h4M40 65h1M63 65h1M6 66h2M12 66h1M14 66h1M17 66h1M30 66h1M39 66h1M55 66h1M63 66h1M9 67h3M14 67h1M18 67h1M21 67h1M24 67h1M38 67h1M55 67h1M12 68h1M15 68h1M18 68h1M21 68h1M24 68h1M29 68h1M38 68h1M56 68h1" />
<path stroke="#bd735a" d="M71 17h2M68 18h3M66 19h2M73 19h1M65 20h1M72 20h2M38 21h3M64 21h1M71 21h3M63 22h2M70 22h4M38 23h1M63 23h3M69 23h4M38 24h3M61 24h1M63 24h10M39 25h6M60 25h2M63 25h9M39 26h7M60 26h3M64 26h8M40 27h6M59 27h13M40 28h6M58 28h13M41 29h6M58 29h13M42 30h1M44 30h3M57 30h13M71 30h1M44 31h4M53 31h2M56 31h14M44 32h5M52 32h19M72 32h1M44 33h5M51 33h20M45 34h26M73 34h1M45 35h27M45 36h27M45 37h28M46 38h28M46 39h29M47 40h27M47 41h27M48 42h25M48 43h24M48 44h23M48 45h21M47 46h20M46 47h19M45 48h18M46 49h15M43 50h1M47 50h14M42 51h1M49 51h1M51 51h1M53 51h7M50 52h1M52 52h1M54 52h6M49 53h1M51 53h1M53 53h1M55 53h5M50 54h1M52 54h1M54 54h6M51 55h1M53 55h6M60 55h1M52 56h7M43 57h1M50 57h8M61 57h2M43 58h15M43 59h15M43 60h16M43 61h17M42 62h19M42 63h12M55 63h8M41 64h13M55 64h8M41 65h12M56 65h7M40 66h13M56 66h7M39 67h14M57 67h6M39 68h13M57 68h7" />
<path stroke="#733100" d="M73 17h2M64 20h1M41 21h1M62 21h2M37 22h1M74 22h1M73 23h1M62 24h1M73 24h1M38 25h1M62 25h1M72 25h2M63 26h1M39 27h1M72 27h1M40 29h1M41 30h1M43 30h1M43 31h1M43 32h1M43 33h1M73 33h1M44 34h1M44 35h1M74 35h1M75 36h1M75 37h1M45 38h1M75 38h1M75 39h1M46 40h1M74 40h1M46 42h2M46 45h2M69 45h1M46 46h1M67 46h1M69 46h1M65 47h1M67 47h1M44 48h1M65 48h1M43 49h1M61 49h1M42 50h1M61 55h1M61 56h1M62 58h1M62 59h1M62 60h1M62 61h1M62 62h1M54 63h1M63 63h1M54 65h2M56 67h1M63 67h1M64 68h1" />
<path stroke="#e6946b" d="M71 18h3M68 19h5M66 20h6M65 21h6M38 22h5M65 22h5M39 23h4M66 23h3M41 24h3M71 31h1M71 32h1M71 33h2M71 34h2M72 35h2M72 36h3M73 37h2M74 38h1M44 49h2M44 50h3M43 51h6M50 51h1M52 51h1M42 52h8M51 52h1M53 52h1M42 53h7M50 53h1M52 53h1M54 53h1M43 54h7M51 54h1M53 54h1M43 55h8M52 55h1M59 55h1M43 56h9M59 56h2M44 57h6M58 57h3M58 58h4M58 59h4M59 60h3M60 61h2M61 62h1" />
<path stroke="#ffde94" d="M53 65h1M53 66h2M53 67h2M52 68h4" />
</svg>