<svg xmlns="http://www.w3.org/2000/svg" viewBox="0 -0.5 80 80" shape-rendering="crispEdges">
<metadata>Made with Pixels to Svg https://codepen.io/shshaw/pen/XbxvNj</metadata>
<path stroke="#101010" d="M32 12h3M30 13h2M35 13h2M28 14h2M37 14h1M27 15h1M37 15h1M62 15h1M26 16h1M38 16h1M50 16h1M63 16h1M25 17h2M38 17h1M50 17h1M64 17h1M25 18h1M38 18h1M50 18h1M65 18h1M24 19h2M37 19h2M50 19h1M66 19h1M24 20h1M37 20h1M50 20h1M66 20h1M23 21h2M36 21h2M50 21h2M66 21h2M23 22h1M30 22h1M36 22h1M51 22h1M67 22h1M23 23h1M31 23h1M36 23h1M51 23h1M67 23h1M23 24h1M31 24h1M36 24h1M51 24h1M57 24h1M66 24h2M24 25h14M51 25h1M57 25h2M66 25h1M21 26h4M38 26h4M51 26h1M57 26h1M59 26h3M64 26h3M19 27h2M42 27h3M50 27h1M57 27h1M61 27h4M17 28h2M45 28h3M50 28h1M56 28h1M16 29h1M48 29h3M56 29h1M15 30h1M50 30h1M55 30h1M14 31h1M51 31h2M14 32h1M53 32h2M13 33h1M55 33h1M13 34h1M56 34h1M12 35h1M57 35h1M12 36h1M12 37h1M27 37h12M12 38h1M24 38h3M39 38h4M60 38h1M12 39h1M22 39h2M43 39h3M12 40h1M21 40h1M46 40h2M61 40h1M12 41h1M48 41h2M12 42h1M20 42h1M50 42h2M12 43h1M20 43h1M63 43h1M12 44h2M20 44h1M51 44h1M63 44h1M13 45h1M19 45h1M51 45h1M63 45h1M13 46h1M19 46h1M51 46h1M64 46h1M13 47h1M19 47h1M51 47h1M64 47h1M14 48h1M18 48h2M51 48h1M64 48h1M14 49h1M18 49h1M50 49h1M64 49h1M15 50h1M18 50h1M50 50h1M65 50h1M15 51h1M18 51h1M50 51h1M65 51h1M16 52h1M18 52h1M50 52h1M65 52h1M17 53h2M50 53h1M65 53h1M17 54h1M49 54h1M65 54h1M17 55h1M49 55h1M64 55h2M17 56h1M49 56h1M64 56h1M17 57h1M27 57h1M48 57h1M64 57h1M16 58h2M26 58h2M48 58h1M63 58h2M16 59h1M26 59h1M28 59h1M48 59h1M63 59h1M16 60h1M25 60h1M28 60h1M47 60h1M62 60h2M16 61h1M25 61h1M29 61h1M47 61h1M62 61h1M16 62h1M24 62h1M29 62h1M47 62h1M61 62h1M16 63h1M24 63h1M30 63h1M46 63h1M61 63h1M16 64h1M23 64h1M30 64h1M46 64h1M61 64h1M15 65h2M23 65h1M30 65h1M46 65h1M61 65h2M15 66h1M22 66h1M31 66h1M45 66h1M62 66h1M66 66h1M15 67h1M22 67h1M31 67h1M45 67h1M62 67h1M66 67h1M15 68h1M21 68h1M32 68h1M44 68h1M62 68h1M66 68h1M15 69h1M21 69h1M32 69h1M44 69h1M62 69h1M65 69h1M15 70h1M33 70h1M43 70h1M62 70h1M64 70h2M15 71h1M20 71h1M33 71h1M43 71h1M62 71h2" />
<path stroke="#524a42" d="M54 12h3M52 13h2M57 13h3M51 14h1M60 14h2M36 15h1M51 15h1M30 16h2M36 16h2M53 16h5M28 17h10M52 17h6M59 17h1M61 17h1M27 18h11M51 18h8M60 18h1M62 18h1M26 19h11M51 19h9M61 19h3M65 19h1M25 20h12M51 20h14M25 21h11M52 21h14M24 22h6M31 22h5M52 22h15M24 23h7M32 23h4M52 23h15M24 24h7M32 24h4M52 24h5M58 24h8M52 25h5M59 25h7M52 26h5M62 26h2M51 27h6M51 28h5M51 29h5M51 30h4M53 31h2M27 38h12M24 39h19M22 40h24M21 41h27M21 42h29M21 43h31M21 44h30M20 45h31M20 46h31M20 47h31M20 48h31M19 49h31M19 50h31M19 51h31M19 52h31M19 53h31M18 54h31M18 55h31M18 56h31M18 57h9M28 57h20M18 58h8M28 58h20M17 59h9M29 59h19M17 60h8M29 60h18M17 61h8M30 61h17M17 62h7M30 62h17M62 62h2M17 63h7M31 63h15M64 63h2M17 64h6M31 64h15M65 64h1M17 65h6M31 65h15M66 65h1M16 66h6M32 66h13M65 66h1M16 67h6M32 67h13M63 67h3M17 68h4M33 68h11M63 68h3M17 69h4M33 69h11M63 69h2M17 70h4M34 70h9M63 70h1M17 71h3M34 71h9" />
<path stroke="#7b7363" d="M32 13h3M54 13h3M30 14h7M52 14h8M28 15h8M52 15h10M27 16h3M32 16h4M51 16h2M58 16h5M27 17h1M51 17h1M58 17h1M60 17h1M62 17h2M26 18h1M59 18h1M61 18h1M63 18h2M60 19h1M64 19h1M65 20h1M62 63h2M62 64h3M63 65h3M63 66h2" />
<path stroke="#ffefad" d="M25 26h13M21 27h5M36 27h6M19 28h2M41 28h4M17 29h2M44 29h4M16 30h1M47 30h3M49 31h2M50 32h3M52 33h3M54 34h2M55 35h2M56 36h2M57 37h2M58 38h2M59 39h1M60 40h1M60 41h2M61 42h1M61 43h2M62 44h1M62 45h1M62 46h1M63 47h1M63 48h1M63 49h1M64 50h1M64 51h1M64 52h1M64 53h1" />
<path stroke="#e6c56b" d="M26 27h10M21 28h20M19 29h25M17 30h30M16 31h33M15 32h35M14 33h38M14 34h40M14 35h41M13 36h43M13 37h13M40 37h17M13 38h10M44 38h14M13 39h9M47 39h12M13 40h8M49 40h11M13 41h8M51 41h9M13 42h7M52 42h9M13 43h7M53 43h8M14 44h6M54 44h8M14 45h5M55 45h7M14 46h5M56 46h6M63 46h1M15 47h4M57 47h6M15 48h3M58 48h5M16 49h2M59 49h4M16 50h2M59 50h5M17 51h1M60 51h4M17 52h1M60 52h4M61 53h3M61 54h4M61 55h3M61 56h3M62 57h2M62 58h1" />
<path stroke="#8c6b08" d="M15 31h1M13 35h1M58 36h1M26 37h1M39 37h1M59 37h1M23 38h1M43 38h1M46 39h1M60 39h2M48 40h1M50 41h1M62 41h1M62 42h1M14 47h1M15 49h1M16 51h1M62 59h1" />
<path stroke="#633100" d="M52 43h1M53 44h1M54 45h1M55 46h1M56 47h1M57 48h1M51 49h1M58 49h1M58 50h1M59 51h1M59 52h1M60 53h1M60 54h1M60 55h1M60 56h1M49 57h1M61 57h1M61 58h1M61 59h1M26 60h1M48 60h1M61 60h1M26 61h1M28 61h1M61 61h1M26 62h1M26 63h1M29 63h1M47 63h1M26 64h1M25 65h1M25 66h1M30 66h1M46 66h1M25 67h1M25 68h1M31 68h1M45 68h1M25 69h1M25 70h1M32 70h1M44 70h1M25 71h1" />
<path stroke="#b54a3a" d="M52 44h1M52 45h2M52 46h3M52 47h4M52 48h5M52 49h6M51 50h7M51 51h8M51 52h8M51 53h9M50 54h10M50 55h10M50 56h10M50 57h11M49 58h12M27 59h1M49 59h12M27 60h1M49 60h12M27 61h1M48 61h13M25 62h1M27 62h2M48 62h12M25 63h1M27 63h2M48 63h12M24 64h2M27 64h3M47 64h12M24 65h1M26 65h4M47 65h12M23 66h2M26 66h4M47 66h12M61 66h1M23 67h2M26 67h5M46 67h13M16 68h1M22 68h3M26 68h5M46 68h13M16 69h1M22 69h3M26 69h6M45 69h14M16 70h1M21 70h4M26 70h6M45 70h14M16 71h1M21 71h4M26 71h7M44 71h15" />
<path stroke="#e66b63" d="M60 62h1M60 63h1M59 64h2M59 65h2M59 66h2M59 67h3M59 68h3M59 69h3M59 70h3M59 71h3" />
</svg>