<svg xmlns="http://www.w3.org/2000/svg" viewBox="0 -0.5 80 80" shape-rendering="crispEdges">
<metadata>Made with Pixels to Svg https://codepen.io/shshaw/pen/XbxvNj</metadata>
<path stroke="#101010" d="M34 6h2M33 7h1M36 7h2M33 8h1M38 8h2M33 9h1M40 9h1M34 10h1M41 10h1M35 11h1M41 11h1M35 12h1M42 12h1M36 13h1M42 13h1M36 14h7M35 15h1M43 15h2M34 16h1M45 16h1M34 17h1M46 17h1M34 18h1M46 18h1M35 19h1M46 19h1M34 20h7M45 20h1M33 21h1M41 21h4M32 22h1M45 22h2M32 23h1M47 23h1M32 24h1M47 24h1M32 25h1M47 25h1M33 26h1M47 26h1M34 27h7M47 27h1M32 28h2M41 28h6M31 29h1M46 29h1M30 30h1M47 30h1M30 31h1M47 31h1M42 34h3M22 55h1M23 56h1M26 67h1M29 67h1M26 68h1M28 68h1M30 68h1M51 68h1M54 68h2M26 69h2M30 69h1M51 69h2M55 69h1M26 70h2M31 70h1M50 70h1M53 70h3M26 71h1M50 71h1M26 72h1M34 72h1M48 72h1M50 72h1M56 72h1M25 73h1M32 73h1M34 73h1M48 73h3M57 73h1M25 74h1M31 74h1M33 74h1M35 74h1M47 74h1M51 74h1M58 74h1M25 75h1M30 75h1M35 75h1M38 75h1M46 75h1M52 75h1M58 75h1M26 76h1M30 76h1M36 76h1M38 76h1M46 76h1M53 76h1M58 76h1M27 77h2M37 77h1M39 77h1M43 77h1M45 77h1M54 77h1M57 77h1M39 78h1M42 78h1M44 78h1M55 78h2M39 79h1M41 79h1" />
<path stroke="#5a5a5a" d="M34 7h2M35 8h3M35 9h2M36 16h3M34 22h4M34 23h1M33 29h4M32 30h1" />
<path stroke="#3a3a42" d="M34 8h1M34 9h1M37 9h3M35 10h6M36 15h3M35 16h1M39 16h3M35 17h5M41 17h1M34 21h5M33 22h1M38 22h2M35 23h4M34 28h5M32 29h1M37 29h3M33 30h5" />
<path stroke="#292931" d="M36 11h5M36 12h6M37 13h5M39 15h4M42 16h3M40 17h1M42 17h4M35 18h11M36 19h10M41 20h4M39 21h2M40 22h5M33 23h1M39 23h8M33 24h14M33 25h14M34 26h13M41 27h6M39 28h2M40 29h6M31 30h1M41 30h6M31 31h2M41 31h6M41 32h6M42 33h4" />
<path stroke="#c59452" d="M38 30h3M33 31h5M40 31h1M30 32h3M40 32h1M47 32h4M28 33h2M41 33h1M46 33h1M51 33h3M27 34h1M41 34h1M45 34h1M54 34h2M26 35h1M41 35h1M44 35h1M56 35h1M25 36h1M40 36h1M44 36h1M57 36h1M24 37h1M40 37h1M44 37h1M58 37h1M23 38h1M39 38h1M44 38h1M58 38h1M23 39h1M39 39h1M59 39h1M22 40h1M38 40h1M45 40h1M59 40h1M22 41h1M36 41h2M60 41h1M22 42h1M34 42h2M46 42h1M60 42h1M22 43h3M31 43h3M46 43h1M60 43h1M25 44h6M47 44h1M61 44h1M25 45h2M48 45h2M61 45h1M24 46h2M50 46h3M61 46h1M22 47h2M25 47h1M28 47h2M38 47h4M50 47h1M53 47h9M21 48h1M25 48h1M27 48h1M30 48h1M35 48h3M41 48h1M50 48h1M56 48h1M19 49h1M25 49h1M30 49h1M33 49h2M42 49h1M47 49h2M51 49h1M57 49h1M18 50h1M24 50h1M31 50h2M42 50h1M46 50h1M49 50h3M57 50h1M18 51h1M24 51h1M31 51h1M42 51h1M46 51h1M52 51h1M57 51h2M17 52h1M23 52h1M31 52h1M42 52h1M46 52h1M53 52h1M56 52h1M59 52h1M17 53h1M23 53h1M31 53h1M39 53h3M46 53h1M54 53h1M56 53h1M59 53h1M17 54h5M31 54h1M38 54h1M42 54h1M46 54h1M55 54h1M59 54h1M23 55h1M30 55h1M37 55h1M43 55h1M55 55h1M60 55h1M26 56h7M36 56h1M44 56h1M56 56h1M60 56h1M23 57h3M33 57h1M36 57h1M44 57h1M47 57h1M56 57h1M60 57h1M22 58h2M33 58h3M45 58h1M47 58h1M57 58h1M60 58h1M21 59h1M33 59h3M45 59h1M48 59h1M57 59h4M21 60h1M33 60h1M35 60h1M45 60h1M49 60h2M57 60h1M20 61h1M32 61h1M35 61h1M45 61h1M49 61h1M51 61h6M19 62h1M32 62h1M35 62h1M45 62h1M49 62h1M57 62h1M19 63h1M32 63h1M36 63h1M44 63h1M50 63h1M57 63h1M19 64h1M31 64h1M36 64h1M44 64h1M51 64h1M58 64h1M19 65h2M29 65h2M37 65h1M43 65h1M51 65h1M58 65h1M21 66h2M26 66h3M38 66h2M42 66h1M52 66h3M58 66h1M23 67h3M40 67h2M52 67h2M55 67h4M53 68h1M48 71h1M47 73h1" />
<path stroke="#314a3a" d="M38 31h2M34 32h6M33 33h8M47 33h4M32 34h9M46 34h8M31 35h10M42 35h2M45 35h11M29 36h11M41 36h3M45 36h12M28 37h12M41 37h3M45 37h13M27 38h12M40 38h4M45 38h13M26 39h13M40 39h19M25 40h13M39 40h6M46 40h13M24 41h12M38 41h22M23 42h11M36 42h10M47 42h13M25 43h6M34 43h12M47 43h13M31 44h16M48 44h13M27 45h21M50 45h11M26 46h24M53 46h8M26 47h2M30 47h8M42 47h8M51 47h2M26 48h1M31 48h4M38 48h3M42 48h8M51 48h5M24 49h1M31 49h2M35 49h7M43 49h4M49 49h2M52 49h5M23 50h1M30 50h1M33 50h9M43 50h3M47 50h2M52 50h5M22 51h2M28 51h3M32 51h10M43 51h3M47 51h5M53 51h4M22 52h1M24 52h1M27 52h4M32 52h10M43 52h3M47 52h6M54 52h2M57 52h2M21 53h2M26 53h5M32 53h7M42 53h4M47 53h7M55 53h1M57 53h2M22 54h2M25 54h6M32 54h6M39 54h1M41 54h1M43 54h3M47 54h8M56 54h3M24 55h6M31 55h6M41 55h2M44 55h11M56 55h4M24 56h2M33 56h3M40 56h4M45 56h11M57 56h3M26 57h7M34 57h2M39 57h5M45 57h2M48 57h8M57 57h3M24 58h2M28 58h5M38 58h7M46 58h1M48 58h9M58 58h2M27 59h6M37 59h8M46 59h2M49 59h8M25 60h8M34 60h1M36 60h9M46 60h3M51 60h6M24 61h8M33 61h2M36 61h9M46 61h3M50 61h1M22 62h10M33 62h2M36 62h9M46 62h3M50 62h7M21 63h11M33 63h3M37 63h7M45 63h5M51 63h6M21 64h10M32 64h4M37 64h7M45 64h6M52 64h6M21 65h8M31 65h6M38 65h5M44 65h7M52 65h6M23 66h3M29 66h9M40 66h2M43 66h9M55 66h3M27 67h2M30 67h10M42 67h10M54 67h1M27 68h1M31 68h20M52 68h1M31 69h20M53 69h2M32 70h18M32 71h16M49 71h1M32 72h2M35 72h13M49 72h1M33 73h1M35 73h12M36 74h11M36 75h2M39 75h7M37 76h1M39 76h7M40 77h3M44 77h1M40 78h2M40 79h1" />
<path stroke="#527342" d="M33 32h1M30 33h3M28 34h4M27 35h4M26 36h3M25 37h3M24 38h3M24 39h2M23 40h2M23 41h1M24 47h1M22 48h3M28 48h2M20 49h4M26 49h4M19 50h4M25 50h5M19 51h3M25 51h3M18 52h4M25 52h2M18 53h3M24 53h2M24 54h1M40 54h1M38 55h3M37 56h3M37 57h2M26 58h2M36 58h2M22 59h5M36 59h1M22 60h3M21 61h3M20 62h2M20 63h1M20 64h1" />
<path stroke="#8c6b4a" d="M29 68h1M28 69h2M28 70h1M27 71h2M27 72h1M26 73h2M26 74h1M26 75h1" />
<path stroke="#634a3a" d="M29 70h2M51 70h2M29 71h3M51 71h5M28 72h4M51 72h5M28 73h4M51 73h6M27 74h4M52 74h6M27 75h3M53 75h5M27 76h3M54 76h4M29 77h1M55 77h2" />
</svg>