<svg xmlns="http://www.w3.org/2000/svg" viewBox="0 -0.5 80 80" shape-rendering="crispEdges">
<metadata>Made with Pixels to Svg https://codepen.io/shshaw/pen/XbxvNj</metadata>
<path stroke="#101010" d="M25 16h1M24 17h1M24 18h1M11 19h1M24 19h1M11 20h1M24 20h1M61 20h1M12 21h1M59 21h1M12 22h1M25 22h1M58 22h1M13 23h1M26 23h1M46 23h1M58 23h1M14 24h1M26 24h1M46 24h1M58 24h1M14 25h1M25 25h1M47 25h1M58 25h1M13 26h1M24 26h1M47 26h1M58 26h1M12 27h2M23 27h1M57 27h2M12 28h1M23 28h1M48 28h1M58 28h1M11 29h2M22 29h1M37 29h1M49 29h1M58 29h1M11 30h1M22 30h1M37 30h1M50 30h2M58 30h1M65 30h1M11 31h1M22 31h1M38 31h1M47 31h6M55 31h2M59 31h1M65 31h1M11 32h1M21 32h1M38 32h1M45 32h3M57 32h3M64 32h2M11 33h1M21 33h1M39 33h1M43 33h3M60 33h1M64 33h1M11 34h1M21 34h1M39 34h1M41 34h3M61 34h2M64 34h1M11 35h1M21 35h1M39 35h2M11 36h1M21 36h1M39 36h1M11 37h1M21 37h1M39 37h1M11 38h1M21 38h1M66 38h1M11 39h1M21 39h1M42 39h2M67 39h1M11 40h1M21 40h1M44 40h1M11 41h1M21 41h1M46 41h2M68 41h1M11 42h1M22 42h1M50 42h2M68 42h1M12 43h1M22 43h1M53 43h3M66 43h1M68 43h1M12 44h1M22 44h1M56 44h4M67 44h1M69 44h1M12 45h1M23 45h1M60 45h4M65 45h1M67 45h1M69 45h1M13 46h1M23 46h1M65 46h1M67 46h3M13 47h1M24 47h1M61 47h1M67 47h1M70 47h1M14 48h1M24 48h1M62 48h2M67 48h1M70 48h1M15 49h1M25 49h1M70 49h1M16 50h1M26 50h1M64 50h1M66 50h1M17 51h2M27 51h2M19 52h3M29 52h2M39 52h1M60 52h1M19 53h1M28 53h1M38 53h1M18 54h1M27 54h1M38 54h2M58 54h1M66 54h2M17 55h1M27 55h1M37 55h1M40 55h2M57 55h1M64 55h2M17 56h1M26 56h1M37 56h1M41 56h3M56 56h1M62 56h2M16 57h1M26 57h1M36 57h1M41 57h1M44 57h3M55 57h1M16 58h1M25 58h1M36 58h1M41 58h1M45 58h1M48 58h7M16 59h1M25 59h1M35 59h1M42 59h3M54 59h1M17 60h2M24 60h2M34 60h2M54 60h1M60 60h1M18 61h6M25 61h1M33 61h2M54 61h1M60 61h1M26 62h1M32 62h2M55 62h1M59 62h1M27 63h5M56 63h3" />
<path stroke="#526b8c" d="M26 16h2M12 17h4M28 17h2M11 18h1M17 18h1M30 18h1M19 19h1M31 19h1M20 20h1M32 20h1M21 21h1M25 21h1M33 21h1M22 22h1M33 22h1M23 23h1M24 24h1M34 24h1M35 25h1M35 26h1M36 27h1M13 28h1M36 28h1M12 30h1M12 31h1M38 33h1M40 40h1M22 41h1M41 41h1M12 42h1M42 42h2M45 43h2M23 44h1M47 44h2M13 45h1M40 45h1M49 45h3M24 46h1M40 46h1M52 46h3M14 47h1M40 47h1M56 47h4M15 48h1M25 48h1M40 48h1M60 48h2M16 49h1M26 49h1M39 49h2M68 49h2M17 50h1M27 50h1M39 50h1M19 51h1M29 51h1M39 51h1M31 52h1M69 52h1M20 53h1M29 53h1M39 53h2M59 53h1M61 53h1M68 53h1M19 54h1M28 54h1M40 54h2M61 54h1M18 55h1M42 55h1M61 55h1M44 56h1M61 56h1M17 57h1M47 57h1M61 57h1M35 58h1M61 58h1M17 59h1M19 60h1M23 60h1M26 61h1M27 62h1M31 62h1" />
<path stroke="#7394ad" d="M25 17h1M12 18h1M16 18h1M18 19h1M12 20h1M32 21h1M13 22h1M14 23h1M34 23h1M15 24h1M23 24h1M24 25h1M23 26h1M24 27h1M22 28h1M13 29h1M23 29h1M13 30h2M13 31h3M12 32h4M22 32h1M12 33h4M12 34h3M12 35h3M12 36h3M12 37h3M12 38h3M38 38h2M12 39h3M37 39h3M12 40h3M36 40h4M12 41h3M36 41h5M13 42h3M24 42h1M26 42h1M36 42h6M13 43h3M23 43h1M25 43h1M27 43h1M36 43h9M13 44h4M24 44h1M26 44h2M36 44h11M14 45h3M24 45h4M36 45h4M41 45h8M14 46h4M25 46h4M36 46h4M41 46h11M15 47h5M25 47h5M35 47h5M41 47h15M16 48h5M26 48h5M34 48h6M41 48h19M17 49h8M27 49h12M41 49h23M18 50h8M28 50h11M40 50h24M70 50h1M20 51h7M30 51h9M40 51h24M69 51h1M22 52h7M32 52h7M40 52h20M61 52h2M21 53h7M30 53h8M41 53h18M67 53h1M20 54h2M26 54h1M29 54h9M42 54h16M65 54h1M19 55h2M28 55h2M33 55h4M43 55h14M63 55h1M18 56h2M27 56h2M34 56h3M45 56h11M18 57h2M27 57h1M34 57h2M42 57h2M48 57h7M17 58h4M24 58h1M26 58h2M34 58h1M42 58h3M55 58h1M18 59h7M26 59h2M33 59h2M60 59h1M20 60h3M26 60h3M32 60h2M27 61h6M55 61h1M28 62h3" />
<path stroke="#94d6e6" d="M26 17h2M13 18h3M25 18h5M12 19h6M25 19h6M13 20h7M25 20h7M13 21h8M26 21h6M14 22h8M26 22h7M15 23h8M27 23h7M16 24h7M27 24h7M15 25h9M26 25h9M14 26h9M25 26h10M14 27h9M25 27h3M31 27h5M14 28h5M24 28h3M32 28h4M14 29h4M24 29h3M33 29h4M15 30h2M23 30h3M33 30h4M23 31h3M34 31h4M23 32h3M34 32h4M22 33h4M34 33h4M22 34h4M35 34h4M22 35h4M35 35h4M22 36h4M35 36h4M22 37h4M35 37h4M22 38h4M36 38h2M22 39h4M36 39h1M22 40h4M23 41h4M23 42h1M25 42h1M24 43h1M26 43h1M25 44h1M67 50h3M64 51h5M63 52h6M60 53h1M62 53h5M59 54h2M62 54h3M58 55h3M62 55h1M57 56h4M56 57h5M56 58h5M55 59h5M55 60h5M56 61h4M56 62h3" />
<path stroke="#29293a" d="M60 20h1M62 21h1M47 22h4M59 22h1M63 22h1M47 23h1M52 23h1M59 23h2M63 23h1M47 24h2M59 24h2M64 24h1M48 25h3M59 25h2M64 25h1M48 26h4M59 26h3M65 26h1M48 27h7M59 27h4M65 27h1M49 28h9M59 28h4M65 28h1M50 29h8M59 29h5M65 29h1M52 30h6M59 30h6M53 31h2M57 31h2M60 31h5M48 32h9M60 32h4M46 33h14M61 33h3M44 34h17M63 34h1M41 35h23M40 36h21M40 37h21M40 38h21M44 39h19M66 39h1M45 40h19M66 40h2M48 41h20M52 42h16M56 43h8M67 43h1M60 44h4M68 44h1M68 45h1" />
<path stroke="#31425a" d="M60 21h1M60 22h1M51 23h1M49 24h1M53 24h2M61 24h1M51 25h1M55 25h1M61 25h1M52 26h1M56 26h1M55 27h1M63 28h1M61 36h1M64 36h1M65 37h1M65 40h1M62 46h2M62 47h2" />
<path stroke="#426b84" d="M61 21h1M61 22h2M48 23h3M61 23h2M50 24h3M62 24h2M52 25h3M62 25h2M53 26h3M62 26h3M56 27h1M63 27h2M64 28h1M64 29h1M62 36h2M61 37h4M61 38h5M63 39h3M64 40h1" />
<path stroke="#ad8cbd" d="M28 27h1M30 27h1M19 28h1M27 28h1M31 28h1M18 29h1M32 29h1M17 30h1M26 30h1M33 31h1M34 34h1M35 38h1M26 40h1" />
<path stroke="#c54a94" d="M29 27h1M20 28h2M28 28h3M19 29h3M27 29h5M18 30h4M27 30h6M16 31h5M26 31h7M17 32h4M26 32h8M18 33h3M26 33h8M19 34h2M26 34h8M18 35h1M20 35h1M26 35h9M19 36h1M26 36h9M26 37h9M26 38h9M26 39h10M27 40h8M27 41h6M27 42h3M46 42h3M47 43h6M65 43h1M49 44h7M64 44h1M52 45h8M64 45h1M55 46h6M64 46h1M64 47h1M66 47h1M68 47h2M64 48h3M68 48h2M65 49h1" />
<path stroke="#73427b" d="M21 31h1M16 32h1M16 33h2M15 34h4M15 35h3M19 35h1M15 36h4M20 36h1M15 37h6M15 38h6M15 39h6M40 39h2M15 40h6M35 40h1M41 40h3M15 41h6M33 41h3M42 41h4M16 42h6M30 42h6M44 42h2M49 42h1M16 43h6M28 43h8M64 43h1M17 44h5M28 44h8M65 44h1M17 45h6M28 45h8M18 46h5M29 46h7M61 46h1M66 46h1M20 47h4M30 47h5M60 47h1M65 47h1M21 48h3M31 48h3M64 49h1M66 49h2M65 50h1M22 54h4M21 55h6M30 55h3M20 56h6M29 56h5M20 57h6M28 57h6M21 58h3M28 58h6M28 59h5M29 60h3" />
<path stroke="#efffff" d="M66 44h1M66 45h1" />
</svg>