<svg xmlns="http://www.w3.org/2000/svg" viewBox="0 -0.5 80 80" shape-rendering="crispEdges">
<metadata>Made with Pixels to Svg https://codepen.io/shshaw/pen/XbxvNj</metadata>
<path stroke="#009c00" d="M25 18h9M22 19h3M34 19h2M19 20h3M36 20h1M17 21h2M36 21h1M15 22h2M37 22h1M14 23h2M37 23h1M13 24h1M37 24h1M12 25h1M36 25h1M11 26h1M36 26h1M10 27h1M35 27h1M9 28h1M34 28h1M8 29h2M33 29h1M8 30h1M31 30h2M8 31h1M30 31h1M8 32h1M29 32h1M8 33h2M29 33h1M9 34h1M30 34h1M9 35h3M18 35h3M30 35h1M11 36h8M20 36h2M31 36h1M21 37h1M31 37h1M21 38h2M32 38h1M22 39h1M32 39h1M22 40h2M33 40h1M23 41h1M33 41h1M23 42h2M34 42h1M24 43h1M34 43h1M24 44h2M35 44h1M25 45h1M36 45h1M25 46h2M37 46h1M26 47h1M38 47h1M26 48h2M39 48h1M27 49h1M40 49h10M58 49h7M27 50h1M50 50h4M56 50h2M65 50h2M25 51h3M54 51h2M67 51h2M23 52h2M69 52h1M21 53h2M70 53h1M20 54h1M71 54h1M19 55h1M72 55h1M18 56h2M72 56h1M15 57h4M73 57h1M14 58h1M73 58h1M12 59h2M73 59h1M11 60h1M74 60h1M10 61h1M74 61h1M9 62h1M74 62h1M8 63h1M74 63h1M7 64h1M74 64h1M6 65h2M74 65h1M6 66h1M74 66h1M5 67h2M74 67h1M5 68h1M74 68h1M5 69h1M74 69h1M5 70h1M73 70h1M5 71h1M73 71h1M5 72h1M72 72h1M5 73h2M71 73h1" />
<path stroke="#00ce00" d="M25 19h9M22 20h14M19 21h6M34 21h2M17 22h5M35 22h2M16 23h4M35 23h2M14 24h4M35 24h2M13 25h3M34 25h2M12 26h3M33 26h3M11 27h3M32 27h3M10 28h3M31 28h3M10 29h2M29 29h4M9 30h2M27 30h4M9 31h2M26 31h4M9 32h2M26 32h3M10 33h2M20 33h3M27 33h2M10 34h13M27 34h3M12 35h6M21 35h3M28 35h2M22 36h2M28 36h3M22 37h3M29 37h2M23 38h2M29 38h3M23 39h3M30 39h2M24 40h2M30 40h3M24 41h3M31 41h2M25 42h2M31 42h3M25 43h3M32 43h2M26 44h2M32 44h3M26 45h3M33 45h3M27 46h2M34 46h3M27 47h3M35 47h3M28 48h2M36 48h3M28 49h2M37 49h3M28 50h2M38 50h12M58 50h7M28 51h2M39 51h15M56 51h11M25 52h5M49 52h10M65 52h4M23 53h8M52 53h5M67 53h3M21 54h10M54 54h2M68 54h3M20 55h5M29 55h1M69 55h3M20 56h3M70 56h2M19 57h3M70 57h3M15 58h6M71 58h2M14 59h2M20 59h1M71 59h2M12 60h3M71 60h3M11 61h3M72 61h2M10 62h3M72 62h2M9 63h3M72 63h2M8 64h3M72 64h2M8 65h2M72 65h2M7 66h2M72 66h2M7 67h1M72 67h2M6 68h2M72 68h2M6 69h2M72 69h2M6 70h2M71 70h2M6 71h2M71 71h2M6 72h3M70 72h2M7 73h2M56 73h2M68 73h3" />
<path stroke="#7b3a21" d="M25 21h9M22 22h3M20 23h2M18 24h2M16 25h2M15 26h1M14 27h1M13 28h1M29 28h1M12 29h1M27 29h1M11 30h1M25 30h1M11 31h1M22 31h1M12 32h1M18 32h1M30 41h1M30 42h1M31 43h1M31 44h1M32 45h1M33 46h1M34 47h1M35 48h1M36 49h1M37 50h1M38 51h1M30 52h2M39 52h1M40 53h1M51 53h1M53 54h1M46 55h1M54 55h1M41 56h1M47 56h1M28 57h1M40 57h1M48 57h1M62 57h3M27 58h1M31 58h1M39 58h1M48 58h1M65 58h1M16 59h3M26 59h1M38 59h1M49 59h1M66 59h1M15 60h1M25 60h1M37 60h1M49 60h1M59 60h1M67 60h1M14 61h1M25 61h1M35 61h2M50 61h1M59 61h1M67 61h1M13 62h1M24 62h1M28 62h7M50 62h1M59 62h1M12 63h1M24 63h4M50 63h1M20 64h1M50 64h1M68 64h1M14 65h2M60 65h1M68 65h1M60 66h1M68 66h1M8 67h2M61 67h1M51 68h1M62 68h1M63 69h3M9 71h1M10 73h1" />
<path stroke="#c54a19" d="M25 22h1M33 22h1M22 23h1M20 24h1M33 24h1M18 25h1M16 26h1M15 27h1M29 27h2M14 28h2M26 28h3M13 29h4M21 29h6M12 30h13M12 31h10M13 32h5M23 32h2M24 33h2M24 34h2M25 35h2M25 36h2M26 37h2M26 38h2M27 39h2M27 40h2M28 41h1M28 42h1M29 43h1M29 44h1M30 45h1M30 46h2M31 47h2M31 48h2M31 49h3M31 50h3M31 51h4M32 52h3M40 52h9M32 53h4M41 53h1M49 53h2M32 54h4M52 54h1M32 55h5M42 55h4M30 56h1M32 56h6M29 57h2M32 57h8M28 58h3M32 58h7M61 58h4M27 59h11M50 59h1M60 59h6M26 60h11M50 60h2M60 60h7M26 61h9M49 61h1M51 61h2M60 61h7M25 62h3M51 62h2M60 62h8M28 63h1M51 63h2M60 63h8M21 64h1M51 64h2M60 64h8M16 65h1M29 65h6M50 65h1M52 65h1M61 65h7M10 66h1M22 66h14M52 66h1M61 66h7M15 67h22M52 67h2M62 67h6M9 68h1M11 68h26M52 68h2M63 68h4M9 69h28M51 69h1M53 69h2M9 70h29M53 70h2M10 71h28M53 71h3M10 72h29M53 72h2M11 73h28M53 73h1" />
<path stroke="#ef7329" d="M26 22h7M23 23h3M29 23h5M21 24h3M29 24h4M19 25h5M28 25h5M17 26h15M16 27h13M16 28h10M17 29h4M29 41h1M29 42h1M30 43h1M30 44h1M31 45h1M32 46h1M33 47h1M33 48h2M34 49h2M34 50h3M35 51h3M35 52h4M36 53h4M42 53h2M36 54h11M51 54h1M37 55h5M47 55h2M53 55h1M38 56h3M42 56h1M46 56h1M48 56h3M53 56h1M44 57h4M49 57h5M42 58h6M49 58h4M41 59h8M51 59h2M16 60h2M40 60h9M52 60h1M15 61h2M39 61h10M14 62h2M35 62h1M38 62h12M13 63h2M29 63h5M37 63h13M12 64h2M22 64h28M11 65h2M17 65h12M35 65h15M11 66h11M36 66h15M10 67h5M37 67h14M10 68h1M37 68h14M37 69h14M38 70h14M38 71h14M39 72h13M39 73h13" />
<path stroke="#101010" d="M34 22h1M34 23h1M34 24h1M33 25h1M32 26h1M31 27h1M30 28h1M28 29h1M26 30h1M23 31h3M11 32h1M19 32h4M25 32h1M12 33h8M23 33h1M26 33h1M23 34h1M26 34h1M24 35h1M27 35h1M24 36h1M27 36h1M25 37h1M28 37h1M25 38h1M28 38h1M26 39h1M29 39h1M26 40h1M29 40h1M27 41h1M27 42h1M28 43h1M28 44h1M29 45h1M29 46h1M30 47h1M30 48h1M30 49h1M30 50h1M30 51h1M59 52h6M31 53h1M57 53h2M65 53h2M31 54h1M56 54h2M67 54h1M25 55h4M30 55h2M55 55h2M68 55h1M23 56h3M29 56h1M31 56h1M54 56h2M69 56h1M22 57h2M31 57h1M54 57h1M69 57h1M21 58h2M53 58h2M70 58h1M19 59h1M21 59h1M53 59h1M70 59h1M20 60h2M53 60h1M70 60h1M20 61h1M53 61h1M71 61h1M21 62h1M53 62h1M71 62h1M21 63h1M53 63h1M71 63h1M11 64h1M53 64h1M71 64h1M10 65h1M51 65h1M53 65h2M71 65h1M9 66h1M51 66h1M53 66h2M71 66h1M51 67h1M54 67h1M71 67h1M8 68h1M54 68h2M71 68h1M8 69h1M52 69h1M55 69h1M70 69h2M8 70h1M52 70h1M55 70h2M70 70h1M8 71h1M52 71h1M56 71h2M69 71h2M9 72h1M52 72h1M55 72h4M67 72h3M9 73h1M54 73h2M58 73h4M65 73h3" />
<path stroke="#ffad84" d="M26 23h3M24 24h5M24 25h4M44 53h5M47 54h4M49 55h4M43 56h3M51 56h2M41 57h3M40 58h2M39 59h2M38 60h2M37 61h2M36 62h2M34 63h3" />
<path stroke="#292929" d="M59 53h1M64 53h1M62 54h5M60 55h8M26 56h3M56 56h1M59 56h10M24 57h4M55 57h2M58 57h4M65 57h4M23 58h4M55 58h6M66 58h4M22 59h4M54 59h6M67 59h3M18 60h2M22 60h3M54 60h5M68 60h2M17 61h3M21 61h4M54 61h5M68 61h3M16 62h5M22 62h2M54 62h5M68 62h3M15 63h6M22 63h2M54 63h6M68 63h3M14 64h6M54 64h6M69 64h2M13 65h1M55 65h5M69 65h2M55 66h5M69 66h2M55 67h6M68 67h3M56 68h6M67 68h4M56 69h7M66 69h4M57 70h13M58 71h11M59 72h8M52 73h1M62 73h3" />
<path stroke="#4a4a52" d="M60 53h4M58 54h4M57 55h3M57 56h2M57 57h1" />
</svg>