<svg xmlns="http://www.w3.org/2000/svg" viewBox="0 -0.5 80 80" shape-rendering="crispEdges">
<metadata>Made with Pixels to Svg https://codepen.io/shshaw/pen/XbxvNj</metadata>
<path stroke="#10633a" d="M40 10h10M36 11h4M52 11h8M33 12h3M31 13h2M30 14h1M28 15h2M27 16h1M65 18h3M24 19h1M63 19h8M69 20h3M22 21h1M23 22h1M37 22h1M73 22h1M25 23h1M29 23h1M38 23h1M69 23h1M64 24h1M71 24h3M42 25h1M62 25h1M66 25h8M47 26h1M57 26h1M64 26h11M64 27h11M65 28h10M66 29h9M66 30h9M67 31h8M67 32h8M68 33h6M68 34h6M69 35h5M69 36h6M70 37h5M22 38h1M71 38h5M21 39h1M73 39h4M20 40h1M76 40h2M19 41h2M19 42h1M18 43h1M10 56h1M8 57h2M7 58h1M6 59h1M5 60h1M4 61h1M3 62h1M55 62h3M52 63h1M58 63h2M2 64h1M5 64h1M61 64h1M1 65h1M4 65h2M45 65h1M52 65h1M1 66h1M3 66h1M8 66h1M43 66h1M53 66h2M65 66h1M0 67h1M3 67h1M42 67h1M55 67h1M66 67h1M2 68h1M42 68h1M56 68h1M67 68h1M2 69h1M57 69h1" />
<path stroke="#4aa57b" d="M40 11h1M49 11h1M36 12h2M47 12h1M33 13h9M48 13h1M31 14h8M46 14h3M30 15h7M44 15h5M28 16h8M42 16h8M67 16h2M27 17h8M41 17h11M61 17h9M26 18h8M40 18h25M25 19h8M39 19h24M23 20h9M38 20h28M23 21h8M38 21h31M24 22h6M38 22h35M26 23h3M39 23h30M40 24h24M43 25h19M48 26h9M36 33h3M34 34h5M33 35h6M32 36h7M32 37h7M31 38h7M22 39h1M31 39h6M21 40h2M21 41h2M20 42h3M19 43h2M56 44h2M46 45h3M55 45h3M45 46h4M55 46h2M44 47h5M44 48h5M43 49h5M43 50h5M23 51h1M43 51h4M22 52h2M44 52h3M22 53h2M22 54h3M10 57h1M33 57h3M51 57h1M8 58h3M33 58h4M50 58h2M7 59h3M33 59h5M49 59h3M9 60h1M33 60h5M49 60h2M9 61h1M25 61h2M34 61h4M48 61h3M9 62h1M24 62h3M34 62h3M48 62h2M2 63h1M8 63h2M24 63h3M35 63h1M53 63h1M60 63h1M8 64h2M24 64h2M51 64h2M62 64h1M6 65h2M9 65h1M53 65h1M63 65h2M4 66h4M46 66h2M55 66h1M64 66h1M1 67h2M4 67h5M44 67h2M56 67h1M1 68h1M3 68h6M43 68h2M57 68h1M66 68h1M1 69h1M3 69h6M43 69h2M58 69h1M66 69h2M1 70h8M59 70h1M64 70h5M1 71h8M60 71h10" />
<path stroke="#b5e69c" d="M41 11h8M39 12h8M51 12h9M50 13h13M50 14h15M50 15h17M51 16h13" />
<path stroke="#000000" d="M50 11h2M48 12h3M60 12h3M46 13h2M63 13h2M39 14h1M44 14h2M65 14h2M37 15h1M42 15h2M67 15h2M36 16h1M41 16h1M69 16h1M26 17h1M35 17h1M40 17h1M70 17h1M25 18h1M34 18h1M39 18h1M68 18h4M23 19h1M33 19h1M38 19h1M71 19h2M21 20h2M32 20h1M37 20h1M66 20h3M72 20h1M21 21h1M31 21h1M37 21h1M69 21h5M22 22h1M30 22h2M36 22h1M74 22h2M23 23h2M30 23h1M35 23h3M70 23h5M25 24h5M34 24h2M37 24h3M65 24h6M74 24h1M28 25h2M33 25h2M39 25h3M63 25h3M74 25h1M28 26h1M33 26h1M41 26h6M58 26h6M75 26h1M27 27h2M32 27h1M46 27h13M63 27h1M75 27h1M27 28h1M32 28h1M64 28h1M75 28h1M26 29h2M31 29h1M33 29h1M64 29h2M75 29h1M26 30h1M30 30h2M49 30h2M65 30h1M75 30h1M25 31h1M30 31h1M52 31h1M66 31h1M75 31h1M25 32h1M29 32h1M54 32h1M75 32h1M25 33h1M29 33h1M74 33h1M24 34h2M28 34h2M56 34h1M74 34h1M24 35h1M28 35h1M57 35h1M74 35h1M24 36h1M28 36h1M58 36h1M75 36h1M23 37h2M28 37h1M59 37h1M69 37h1M75 37h1M23 38h1M27 38h2M60 38h1M70 38h1M76 38h1M23 39h1M27 39h1M60 39h1M70 39h3M77 39h1M23 40h1M27 40h1M61 40h1M69 40h1M72 40h4M78 40h1M23 41h1M27 41h1M62 41h1M69 41h1M75 41h5M23 42h1M27 42h1M69 42h1M23 43h1M27 43h1M63 43h1M69 43h1M23 44h1M27 44h1M63 44h1M23 45h1M27 45h1M62 45h2M68 45h1M23 46h1M27 46h1M62 46h1M68 46h1M23 47h1M27 47h1M67 47h1M15 48h1M23 48h1M27 48h1M61 48h1M66 48h1M23 49h1M27 49h2M64 49h1M14 50h1M23 50h2M28 50h1M59 50h4M24 51h1M28 51h1M58 51h2M13 52h1M24 52h1M28 52h1M58 52h1M13 53h1M24 53h1M28 53h2M57 53h1M12 54h1M25 54h1M29 54h1M56 54h1M11 55h2M25 55h1M29 55h1M11 56h1M26 56h1M29 56h2M55 56h1M11 57h1M26 57h1M30 57h1M11 58h1M26 58h1M30 58h2M10 59h1M27 59h1M31 59h1M54 59h1M10 60h1M27 60h1M31 60h2M54 60h1M10 61h1M28 61h1M32 61h2M54 61h1M10 62h1M28 62h1M33 62h1M53 62h2M10 63h1M29 63h1M34 63h1M51 63h1M6 64h2M10 64h1M29 64h2M35 64h1M49 64h2M8 65h1M10 65h1M30 65h1M36 65h1M46 65h6M9 66h1M31 66h1M37 66h1M44 66h2M9 67h1M32 67h1M38 67h1M43 67h1M0 68h1M9 68h1M33 68h1M39 68h3M0 69h1M9 69h1M34 69h1M41 69h2M68 69h1M0 70h1M9 70h1M35 70h2M43 70h2M58 70h1M69 70h1M0 71h1M9 71h1M36 71h2M45 71h2M59 71h1M70 71h1" />
<path stroke="#8cc57b" d="M38 12h1M49 13h1M49 14h1M49 15h1M50 16h1M64 16h3M52 17h9M6 60h3M5 61h4M4 62h5M3 63h5M54 63h4M3 64h2M53 64h8M2 65h2M54 65h9M2 66h1M48 66h5M56 66h8M46 67h9M57 67h9M45 68h11M58 68h8M45 69h12M59 69h7M45 70h13M60 70h4M47 71h12" />
<path stroke="#635229" d="M42 13h4M40 14h1M43 14h1M38 15h1M40 16h1M36 17h4M35 18h4M34 19h4M33 20h4M32 21h5M32 22h4M31 23h4M30 24h4M30 25h3M29 26h4M29 27h3M28 28h4M28 29h3M34 29h1M27 30h3M32 30h1M26 31h4M51 31h1M26 32h3M53 32h1M26 33h3M26 34h2M25 35h3M25 36h3M25 37h3M24 38h3M24 39h3M24 40h3M60 40h1M24 41h3M60 41h1M24 42h3M24 43h3M17 44h1M24 44h3M17 45h1M24 45h3M60 45h1M16 46h1M24 46h3M60 46h1M15 47h1M24 47h3M60 47h1M24 48h3M14 49h2M24 49h3M25 50h3M13 51h2M25 51h3M25 52h3M57 52h1M12 53h1M25 53h3M56 53h1M13 54h1M26 54h3M26 55h3M55 55h2M12 56h1M27 56h2M27 57h3M55 57h1M27 58h3M54 58h1M11 59h1M28 59h3M28 60h3M29 61h3M29 62h4M30 63h4M31 64h4M31 65h5M10 66h1M32 66h5M10 67h1M33 67h5M34 68h5M35 69h6M37 70h6M38 71h7" />
<path stroke="#a57b31" d="M41 14h2M39 15h3M37 16h3M35 29h1M33 30h1M31 31h1M59 38h1M60 42h1M60 43h1M18 44h1M60 44h1M16 47h1" />
<path stroke="#c55a21" d="M36 24h1M35 25h4M34 26h7M34 27h12M59 27h3M33 28h2M44 28h19M48 29h16M52 30h13M54 31h12M55 32h11M56 33h11M57 34h10M59 35h9M60 36h8M61 37h7M61 38h8M62 39h7M62 40h7M63 41h6M64 42h5M64 43h5M64 44h4M64 45h4M64 46h4M63 47h4M63 48h2M61 49h2" />
<path stroke="#841900" d="M33 27h1M62 27h1M35 28h9M63 28h1M32 29h1M44 29h4M48 30h1M51 30h1M53 31h1M66 32h1M55 33h1M67 33h1M67 34h1M58 35h1M68 35h1M59 36h1M68 36h1M60 37h1M68 37h1M69 38h1M61 39h1M69 39h1M62 42h2M68 44h2M63 46h1M62 47h1M62 48h1M65 48h1M60 49h1M63 49h1M65 49h1M60 51h1" />
<path stroke="#debd52" d="M36 29h8M34 30h14M32 31h19M30 32h23M30 33h6M39 33h16M30 34h4M39 34h17M29 35h4M39 35h18M29 36h3M39 36h19M29 37h3M39 37h20M29 38h2M38 38h21M28 39h3M37 39h23M28 40h32M28 41h32M28 42h32M28 43h32M28 44h28M58 44h2M28 45h18M49 45h6M58 45h2M28 46h17M49 46h6M57 46h3M28 47h16M49 47h11M22 48h1M28 48h16M49 48h12M21 49h2M29 49h14M48 49h12M20 50h3M29 50h14M48 50h11M19 51h4M29 51h14M47 51h11M17 52h5M29 52h15M47 52h10M16 53h6M30 53h26M14 54h8M30 54h26M13 55h12M30 55h25M13 56h13M31 56h24M12 57h14M31 57h2M36 57h15M52 57h3M12 58h14M32 58h1M37 58h13M52 58h2M12 59h15M32 59h1M38 59h11M52 59h2M11 60h16M38 60h11M51 60h3M11 61h14M27 61h1M38 61h10M51 61h3M11 62h13M27 62h1M37 62h11M50 62h3M11 63h13M27 63h2M36 63h15M11 64h13M26 64h3M36 64h13M11 65h19M37 65h8M11 66h20M38 66h5M11 67h21M39 67h3M10 68h23M10 69h24M10 70h25M10 71h26" />
<path stroke="#bdc5c5" d="M61 41h1M61 42h1M61 43h2M61 44h2M61 45h1M61 46h1" />
<path stroke="#efd66b" d="M21 43h2M19 44h4M18 45h5M17 46h6M17 47h6M16 48h6M16 49h5M15 50h5M15 51h4M14 52h3M14 53h2" />
<path stroke="#ffffff" d="M61 47h1" />
</svg>