<svg xmlns="http://www.w3.org/2000/svg" viewBox="0 -0.5 80 80" shape-rendering="crispEdges">
<metadata>Made with Pixels to Svg https://codepen.io/shshaw/pen/XbxvNj</metadata>
<path stroke="#a5844a" d="M36 9h3M35 10h1M38 10h1M34 11h1M33 12h1M32 13h1M30 14h2M28 15h2M26 16h2M25 17h1M36 17h3M27 19h1M35 20h1M28 21h6M29 22h3M29 23h1M70 45h2M71 46h1M73 46h1M73 47h1M76 47h1M67 48h1" />
<path stroke="#efdead" d="M36 10h2M35 11h2M34 12h2M33 13h2M32 14h2M30 15h3M28 16h4M26 17h5M68 44h1M68 45h2M67 46h4M70 47h3M73 48h4M75 49h3M77 50h1" />
<path stroke="#635210" d="M37 11h1M36 12h1M35 13h1M34 14h1M35 18h1M33 19h1M34 21h1M34 22h1M32 23h1M68 43h1M69 44h1M72 46h1M69 47h1M74 47h2M70 48h1M72 48h1M77 48h1M74 49h1M78 49h1M78 50h1M78 51h1" />
<path stroke="#946b5a" d="M16 14h2M11 15h2M18 15h2M13 16h2M18 18h1M7 19h2M17 19h3M12 20h1M16 20h7M26 20h1M12 21h13M27 21h1M11 22h15M6 23h1M10 23h18M10 24h19M9 25h21M9 26h22M9 27h21M9 28h20M8 29h21M52 29h2M8 30h22M48 30h2M52 30h1M54 30h2M58 30h2M8 31h21M50 31h1M56 31h1M58 31h1M60 31h1M8 32h20M61 32h2M10 33h17M46 33h1M59 33h1M62 33h1M11 34h4M18 34h9M46 34h1M54 34h2M58 34h2M63 34h2M11 35h3M19 35h7M45 35h1M52 35h9M64 35h1M12 36h1M19 36h4M43 36h3M49 36h14M65 36h1M19 37h2M48 37h16M66 37h1M47 38h17M47 39h18M47 40h18M46 41h19M46 42h19M43 43h23M67 43h1M42 44h26M43 45h24M44 46h22M44 47h22M45 48h1M49 48h17M50 49h17M50 50h15M49 51h15M48 52h16M24 53h1M50 53h12M25 54h1M30 54h2M52 54h6M60 54h1M18 55h3M26 55h4M31 55h1M16 56h7M13 57h12M26 57h2M10 58h21M34 58h1M10 59h23M34 59h1M9 60h30M9 61h29M8 62h29M6 63h34M6 64h32M4 65h34M4 66h35M42 66h2M4 67h35M4 68h35M4 69h36M3 70h37M3 71h37" />
<path stroke="#523a19" d="M15 15h1M11 16h1M10 17h1M9 18h1M25 18h1M26 19h1M7 20h1M27 20h1M7 21h1M7 22h1M28 22h1M28 23h1M6 24h1M29 24h1M6 25h1M30 25h1M5 26h1M7 30h1M30 30h1M48 31h1M52 31h1M57 31h1M28 32h1M48 32h1M60 32h1M27 33h1M47 33h1M13 36h1M18 37h1M43 37h1M42 39h1M65 39h1M67 39h1M65 42h1M42 43h1M67 45h1M66 46h1M66 47h1M46 48h1M66 48h1M65 50h2M23 53h1M23 54h1M51 54h1M15 55h2M21 55h2M52 55h1M57 55h1M13 56h3M32 56h1M9 57h4M33 57h2M35 58h1M9 59h1M35 59h3M7 62h1M38 62h2M40 63h1M5 64h1M40 64h1M41 65h1M3 66h1M41 66h1M3 67h1M43 67h1M3 68h1M43 68h1M44 69h1M44 70h1" />
<path stroke="#dead73" d="M16 15h2M12 16h1M15 16h5M11 17h10M10 18h8M19 18h6M9 19h8M20 19h6M8 20h4M13 20h2M23 20h3M8 21h3M25 21h2M8 22h3M26 22h2M7 23h3M7 24h3M7 25h2M7 26h2M7 27h2M7 28h1M53 30h1M49 31h1M53 31h3M59 31h1M49 32h11M48 33h11M60 33h2M47 34h7M56 34h2M60 34h3M46 35h6M61 35h3M46 36h3M63 36h2M44 37h4M64 37h2M44 38h3M64 38h2M43 39h4M43 40h4M44 41h2M44 42h2" />
<path stroke="#101010" d="M20 15h3M33 15h1M20 16h1M22 16h2M32 16h1M21 17h4M31 17h1M29 18h2M34 18h1M38 18h1M28 19h2M32 19h1M37 19h1M28 20h4M36 20h1M35 21h1M32 22h2M30 23h2M30 24h1M31 26h1M5 27h1M30 27h1M6 28h1M29 28h1M6 29h1M29 29h1M7 31h1M29 31h2M51 31h1M7 32h1M7 33h3M9 34h2M15 34h3M27 34h1M10 35h1M14 35h5M26 35h2M11 36h1M14 36h5M23 36h3M12 37h6M21 37h3M13 38h8M43 38h1M66 38h1M12 39h5M12 40h4M42 40h1M65 40h1M67 40h1M12 41h2M15 41h1M43 41h1M65 41h3M12 42h2M15 42h1M43 42h1M66 42h2M12 43h2M15 43h1M66 43h1M12 44h2M15 44h1M41 44h1M12 45h2M16 45h1M42 45h1M13 46h2M16 46h1M43 46h1M13 47h2M16 47h1M43 47h1M67 47h2M13 48h3M17 48h1M43 48h2M47 48h2M71 48h1M14 49h2M17 49h1M43 49h7M67 49h1M73 49h1M14 50h4M42 50h8M67 50h10M14 51h5M40 51h9M64 51h3M76 51h2M15 52h4M38 52h10M64 52h1M15 53h5M37 53h7M47 53h3M62 53h3M16 54h5M36 54h6M49 54h2M58 54h2M61 54h1M17 55h1M35 55h5M53 55h4M60 55h1M34 56h5M35 57h3M9 58h1M36 58h2M8 59h1M38 59h1M8 60h1M39 60h1M7 61h2M38 61h1M5 62h2M37 62h1M5 63h1M3 64h2M3 65h1M2 69h2M2 70h1M2 71h1M43 71h2" />
<path stroke="#ffffff" d="M21 16h1M66 39h1M66 40h1" />
<path stroke="#debd8c" d="M26 18h3M36 18h2M34 19h3M32 20h3M68 48h2M68 49h5" />
<path stroke="#bd8c52" d="M15 20h1M11 21h1M6 26h1M6 27h1M8 28h1M7 29h1M24 54h1M23 55h3M30 55h1M23 56h9M25 57h1M28 57h5M31 58h3M33 59h1M38 64h2M38 65h3M39 66h2M39 67h4M39 68h4M40 69h4M40 70h4M40 71h3" />
<path stroke="#636363" d="M14 41h1M14 42h1M14 43h1M14 44h1M14 45h2M15 46h1M15 47h1M16 48h1M16 49h1" />
</svg>