<svg xmlns="http://www.w3.org/2000/svg" viewBox="0 -0.5 80 80" shape-rendering="crispEdges">
<metadata>Made with Pixels to Svg https://codepen.io/shshaw/pen/XbxvNj</metadata>
<path stroke="#524a4a" d="M70 3h1M69 4h1M68 5h1M67 6h1M66 7h1M65 8h1M64 9h1M63 10h1M62 11h1M61 12h1M60 13h1M59 14h1M58 15h1M19 16h7M57 16h3M16 17h2M27 17h1M55 17h1M13 18h2M29 18h1M43 18h7M53 18h1M10 19h2M31 19h1M41 19h1M51 19h2M62 19h1M8 20h2M33 20h1M39 20h1M62 20h1M7 21h1M34 21h2M38 21h1M52 21h2M62 21h1M7 22h1M36 22h1M54 22h1M62 22h1M6 23h1M37 23h1M54 23h2M60 23h2M31 24h1M38 24h1M42 24h1M30 25h2M41 27h1M12 28h1M41 28h1M48 28h1M61 28h2M65 28h1M5 29h1M12 29h1M47 29h1M66 29h1M11 30h1M40 30h1M46 30h1M63 30h1M67 30h1M7 31h1M34 31h3M39 31h2M44 31h2M68 31h1M7 32h1M37 32h4M42 32h2M64 32h1M69 32h1M4 33h1M7 33h1M38 33h3M49 33h2M64 33h2M70 33h1M4 34h1M8 34h1M38 34h3M46 34h3M64 34h1M66 34h1M71 34h1M3 35h1M8 35h1M38 35h4M44 35h2M63 35h1M3 36h1M8 36h1M38 36h4M43 36h1M65 36h1M72 36h1M3 37h1M8 37h1M38 37h4M3 38h1M8 38h1M25 38h1M38 38h4M64 38h1M73 38h1M3 39h1M8 39h1M25 39h1M37 39h5M61 39h1M73 39h1M3 40h1M8 40h1M24 40h1M37 40h1M39 40h3M61 40h1M69 40h1M71 40h1M3 41h1M8 41h1M11 41h1M23 41h1M36 41h1M38 41h1M40 41h2M72 41h1M3 42h2M9 42h2M12 42h2M20 42h1M25 42h1M35 42h5M41 42h1M64 42h2M70 42h1M4 43h1M9 43h6M19 43h6M26 43h1M34 43h7M65 43h1M70 43h1M7 44h19M27 44h1M34 44h7M62 44h1M66 44h1M71 44h1M8 45h22M33 45h8M62 45h1M67 45h1M70 45h3M8 46h4M23 46h2M26 46h5M32 46h8M57 46h1M62 46h1M68 46h1M73 46h1M6 47h1M8 47h1M27 47h13M41 47h1M56 47h1M60 47h1M62 47h1M69 47h1M73 47h2M29 48h10M41 48h2M44 48h1M62 48h2M74 48h1M31 49h8M41 49h4M46 49h2M61 49h1M63 49h1M70 49h1M74 49h2M6 50h1M29 50h1M32 50h6M40 50h1M42 50h7M64 50h1M71 50h1M75 50h1M5 51h2M33 51h4M40 51h1M42 51h9M65 51h1M75 51h1M5 52h3M33 52h3M40 52h2M44 52h7M63 52h1M66 52h1M76 52h1M4 53h3M34 53h1M41 53h3M47 53h4M67 53h1M74 53h1M4 54h2M28 54h1M35 54h1M42 54h4M52 54h3M69 54h1M75 54h1M4 55h2M28 55h1M36 55h1M43 55h5M50 55h4M56 55h1M71 55h2M3 56h3M37 56h1M44 56h5M50 56h3M57 56h1M68 56h1M3 57h4M29 57h1M37 57h1M46 57h4M51 57h1M57 57h2M3 58h3M29 58h1M38 58h1M47 58h4M58 58h1M2 59h3M24 59h1M30 59h1M38 59h1M48 59h4M59 59h1M2 60h3M22 60h3M28 60h1M32 60h1M38 60h1M49 60h3M59 60h1M2 61h3M19 61h2M25 61h1M27 61h1M39 61h1M50 61h3M2 62h3M19 62h1M39 62h1M51 62h2M2 63h3M6 63h2M39 63h1M51 63h3M55 63h1M59 63h1M2 64h2M5 64h4M26 64h1M39 64h1M52 64h8M2 65h1M4 65h5M18 65h1M26 65h1M53 65h7M3 66h7M11 66h1M17 66h1M26 66h1M54 66h6M3 67h8M56 67h3M3 68h10M15 68h1M29 68h1M4 69h13M18 69h1M24 69h1M26 69h5M33 69h1M36 69h2M4 70h14M19 70h1M21 70h1M25 70h9M36 70h1M39 70h1M4 71h15M23 71h12M36 71h1M39 71h1M5 72h14M20 72h16M40 72h1M5 73h14M20 73h16M40 73h1M6 74h12M19 74h16M41 74h1M7 75h11M19 75h16M41 75h1M9 76h9M19 76h14M11 77h6M19 77h12M13 78h4M18 78h10M40 78h2M15 79h2M18 79h7M29 79h5M39 79h2" />
<path stroke="#101010" d="M71 3h1M72 4h1M73 5h1M73 6h1M73 7h1M73 8h1M72 9h1M72 10h1M72 11h1M71 12h1M71 13h1M71 14h1M70 15h1M60 16h1M70 16h1M70 17h1M69 18h1M69 19h1M52 20h1M69 20h1M68 21h1M38 22h1M68 22h1M38 23h1M68 23h1M6 24h1M61 24h1M67 24h1M6 25h1M39 25h1M41 25h1M62 25h1M67 25h1M5 26h1M40 26h1M63 26h1M67 26h1M5 27h1M64 27h1M66 27h1M5 28h1M66 28h1M41 29h1M4 30h1M41 30h1M4 31h1M41 31h1M4 32h1M41 32h1M41 33h1M41 34h1M42 35h1M42 36h1M42 37h1M65 37h2M42 38h1M67 38h1M42 39h1M64 39h1M68 39h1M9 40h1M38 40h1M42 40h1M64 40h1M73 40h1M9 41h2M24 41h1M37 41h1M39 41h1M42 41h1M64 41h1M69 41h1M73 41h1M8 42h1M11 42h1M21 42h4M40 42h1M42 42h1M69 42h1M73 42h1M8 43h1M15 43h4M25 43h1M41 43h1M69 43h1M71 43h2M4 44h1M26 44h1M33 44h1M41 44h1M70 44h1M72 44h1M4 45h2M7 45h1M32 45h1M41 45h1M68 45h2M73 45h1M5 46h1M7 46h1M12 46h2M25 46h1M31 46h1M40 46h2M5 47h1M7 47h1M9 47h2M26 47h1M40 47h1M42 47h1M6 48h3M27 48h2M39 48h2M43 48h1M5 49h3M29 49h2M39 49h2M45 49h1M5 50h1M7 50h1M31 50h1M38 50h2M41 50h1M60 50h2M4 51h1M7 51h1M32 51h1M37 51h3M41 51h1M57 51h6M4 52h1M36 52h2M39 52h1M42 52h2M54 52h4M61 52h2M3 53h1M35 53h2M39 53h2M44 53h3M51 53h6M62 53h2M76 53h1M3 54h1M6 54h1M40 54h2M46 54h6M56 54h1M63 54h1M76 54h1M3 55h1M6 55h1M41 55h2M48 55h2M63 55h2M77 55h1M2 56h1M6 56h1M42 56h2M49 56h1M64 56h4M73 56h1M77 56h1M2 57h1M43 57h3M50 57h1M66 57h4M74 57h1M77 57h1M2 58h1M45 58h2M51 58h1M69 58h2M75 58h2M1 59h1M5 59h1M23 59h1M29 59h1M47 59h1M52 59h1M70 59h6M1 60h1M5 60h1M21 60h1M25 60h1M48 60h1M52 60h1M1 61h1M5 61h1M26 61h1M49 61h1M53 61h1M59 61h1M1 62h1M5 62h2M26 62h1M50 62h1M53 62h1M59 62h2M1 63h1M5 63h1M26 63h1M50 63h1M54 63h1M60 63h1M1 64h1M4 64h1M51 64h1M60 64h1M1 65h1M3 65h1M9 65h1M39 65h1M52 65h1M60 65h1M2 66h1M10 66h1M39 66h1M53 66h1M60 66h1M2 67h1M11 67h2M17 67h1M26 67h1M38 67h2M54 67h2M59 67h1M2 68h1M13 68h2M16 68h2M26 68h3M37 68h2M55 68h4M2 69h2M17 69h1M25 69h1M31 69h2M38 69h1M3 70h1M18 70h1M22 70h3M34 70h2M37 70h2M3 71h1M19 71h4M35 71h1M37 71h1M3 72h2M19 72h1M36 72h2M4 73h1M19 73h1M36 73h1M4 74h2M18 74h1M35 74h2M5 75h2M18 75h1M35 75h1M6 76h3M18 76h1M33 76h2M41 76h1M8 77h3M17 77h2M31 77h3M41 77h1M10 78h3M17 78h1M28 78h5M12 79h3M17 79h1M25 79h4" />
<path stroke="#f7efef" d="M70 4h1M69 5h2M68 6h2M67 7h2M66 8h2M65 9h2M64 10h2M63 11h1M62 12h2M62 13h1M57 17h3M55 18h4M43 19h4M53 19h4M41 20h5M53 20h2M39 21h4M39 22h2M48 22h3M46 23h6M47 24h4M48 25h2M52 28h2M50 29h6M49 30h6M47 31h6M47 32h4M65 39h2M65 40h3M65 41h4M66 42h3M66 43h3M67 44h2" />
<path stroke="#bdb5b5" d="M71 4h1M71 5h2M70 6h3M69 7h4M68 8h4M67 9h5M66 10h6M65 11h6M65 12h6M64 13h7M63 14h7M62 15h8M61 16h9M62 17h7M60 18h2M63 18h6M58 19h4M63 19h6M56 20h6M63 20h5M48 21h1M55 21h7M63 21h5M43 22h2M47 22h1M52 22h2M55 22h7M64 22h4M7 23h1M39 23h4M52 23h1M59 23h1M64 23h3M7 24h3M51 24h2M54 24h3M65 24h2M7 25h4M50 25h2M53 25h5M65 25h2M7 26h4M23 26h7M49 26h2M52 26h7M66 26h1M7 27h5M13 27h1M19 27h12M48 27h1M51 27h8M7 28h5M13 28h2M17 28h1M19 28h13M49 28h3M54 28h5M7 29h5M15 29h18M48 29h2M56 29h4M7 30h4M12 30h22M47 30h2M55 30h6M8 31h3M12 31h21M46 31h1M55 31h6M8 32h2M11 32h20M44 32h3M53 32h9M8 33h1M10 33h20M43 33h6M51 33h11M10 34h19M43 34h3M49 34h14M9 35h19M46 35h17M9 36h18M44 36h16M62 36h1M9 37h17M44 37h16M9 38h16M44 38h16M66 38h1M9 39h16M44 39h16M67 39h1M10 40h14M44 40h16M68 40h1M12 41h11M45 41h14M14 42h6M45 42h14M45 43h14M63 43h2M45 44h13M63 44h3M69 44h1M46 45h12M63 45h4M14 46h9M46 46h11M60 46h1M63 46h5M72 46h1M11 47h15M47 47h9M61 47h1M63 47h6M71 47h2M12 48h15M48 48h6M64 48h6M71 48h3M16 49h13M49 49h3M64 49h6M71 49h3M20 50h8M65 50h6M72 50h3M24 51h3M28 51h1M66 51h6M73 51h2M27 52h2M67 52h6M74 52h2M69 53h5M75 53h1M71 54h4M54 55h2M73 55h2M53 56h4M53 57h4M53 58h5M53 59h6M54 60h5M55 61h4M55 62h4M56 63h2" />
<path stroke="#847b7b" d="M72 8h1M71 11h1M70 14h1M18 17h1M26 17h1M56 17h1M61 17h1M69 17h1M15 18h1M28 18h1M54 18h1M62 18h1M12 19h1M30 19h1M42 19h1M50 19h1M32 20h1M40 20h1M68 20h1M49 21h3M45 22h2M63 22h1M8 23h1M33 23h2M43 23h2M53 23h1M56 23h1M62 23h2M67 23h1M32 24h1M39 24h3M53 24h1M62 24h3M29 25h1M40 25h1M52 25h1M63 25h2M6 26h1M11 26h1M30 26h1M51 26h1M64 26h2M6 27h1M12 27h1M31 27h1M49 27h2M65 27h1M6 28h1M15 28h2M18 28h1M32 28h1M42 28h1M46 28h2M59 28h2M6 29h1M13 29h2M33 29h1M42 29h5M60 29h4M5 30h2M34 30h1M42 30h4M61 30h2M5 31h2M11 31h1M33 31h1M37 31h2M42 31h2M53 31h2M61 31h4M5 32h2M10 32h1M31 32h6M51 32h2M62 32h2M5 33h2M9 33h1M30 33h8M42 33h1M62 33h2M5 34h3M9 34h1M29 34h9M42 34h1M63 34h1M65 34h1M4 35h4M28 35h10M43 35h1M64 35h4M71 35h1M4 36h4M27 36h11M63 36h2M66 36h3M4 37h4M26 37h12M43 37h1M62 37h3M67 37h3M72 37h1M4 38h4M26 38h12M43 38h1M61 38h3M68 38h3M4 39h4M26 39h11M43 39h1M62 39h2M69 39h2M4 40h4M25 40h12M43 40h1M62 40h2M70 40h1M4 41h4M25 41h11M43 41h2M61 41h3M70 41h2M5 42h3M26 42h9M43 42h2M62 42h2M71 42h2M5 43h3M27 43h7M42 43h3M62 43h1M5 44h2M28 44h5M42 44h3M58 44h1M6 45h1M30 45h2M42 45h4M58 45h1M6 46h1M42 46h4M58 46h2M69 46h3M43 47h4M57 47h3M70 47h1M9 48h3M45 48h3M54 48h8M70 48h1M8 49h8M48 49h1M52 49h9M62 49h1M8 50h12M28 50h1M49 50h11M62 50h2M8 51h16M27 51h1M29 51h1M51 51h6M63 51h2M72 51h1M8 52h19M29 52h1M51 52h3M64 52h2M73 52h1M7 53h22M64 53h3M68 53h1M7 54h21M55 54h1M64 54h5M70 54h1M7 55h21M65 55h6M75 55h2M7 56h23M69 56h4M74 56h3M7 57h22M52 57h1M70 57h4M75 57h2M6 58h23M52 58h1M71 58h4M6 59h17M25 59h4M31 59h1M6 60h15M26 60h2M29 60h3M33 60h1M53 60h1M6 61h13M21 61h4M28 61h8M54 61h1M7 62h12M20 62h6M27 62h11M54 62h1M8 63h18M27 63h12M58 63h1M9 64h17M27 64h12M10 65h8M19 65h7M27 65h12M12 66h5M18 66h8M27 66h12M13 67h4M18 67h8M27 67h11M18 68h8M30 68h7M19 69h5M34 69h2M20 70h1M38 71h1M38 72h2M37 73h3M37 74h4M36 75h5M35 76h6M34 77h7M33 78h7M34 79h5" />
<path stroke="#ded6d6" d="M64 11h1M64 12h1M61 13h1M63 13h1M60 14h3M59 15h3M19 17h7M60 17h1M16 18h12M59 18h1M13 19h17M47 19h3M57 19h1M10 20h22M46 20h6M55 20h1M8 21h26M43 21h5M54 21h1M8 22h28M41 22h2M51 22h1M9 23h24M35 23h2M45 23h1M57 23h2M10 24h21M33 24h5M43 24h4M57 24h4M11 25h18M32 25h7M42 25h6M58 25h4M12 26h11M31 26h9M41 26h8M59 26h4M14 27h5M32 27h9M42 27h6M59 27h5M33 28h8M43 28h3M63 28h2M34 29h7M64 29h2M35 30h5M64 30h3M65 31h3M65 32h4M66 33h4M67 34h4M68 35h3M60 36h2M69 36h3M60 37h2M70 37h2M60 38h1M65 38h1M71 38h2M60 39h1M71 39h2M60 40h1M72 40h1M59 41h2M59 42h3M59 43h3M59 44h3M59 45h3M61 46h1M30 50h1M30 51h2M30 52h3M29 53h5M29 54h6M29 55h7M30 56h7M30 57h7M30 58h8M32 59h6M34 60h4M36 61h3M38 62h1" />
</svg>