<svg xmlns="http://www.w3.org/2000/svg" viewBox="0 -0.5 40 30" shape-rendering="crispEdges">
<metadata>Made with Pixels to Svg https://codepen.io/shshaw/pen/XbxvNj</metadata>
<path stroke="#202020" d="M14 14h2M13 15h1M15 15h1M19 15h2M12 16h1M14 16h1M18 16h1M20 16h1M23 16h2M11 17h1M13 17h1M17 17h1M19 17h1M22 17h1M25 17h1M11 18h1M13 18h1M15 18h2M18 18h1M21 18h1M25 18h1M10 19h1M12 19h1M14 19h1M19 19h3M24 19h1M27 19h2M10 20h1M13 20h1M23 20h1M26 20h1M29 20h1M11 21h1M18 21h1M24 21h3M30 21h1M12 22h1M30 22h1M12 23h1M14 23h1M30 23h1M13 24h1M19 24h2M27 24h1M30 24h1M14 25h2M17 25h2M21 25h2M26 25h1M28 25h2M23 26h3" />
<path stroke="#528cd6" d="M14 15h1M13 16h1M12 17h1M24 17h1M12 18h1M11 19h1M11 20h1M22 20h1M12 21h1M28 21h1M13 23h1M16 23h1M29 23h1M14 24h2" />
<path stroke="#6bb5ff" d="M19 16h1M18 17h1M23 17h1M17 18h1M22 18h1M24 18h1M16 19h1M22 19h2M16 20h1M27 20h2M15 21h1M13 22h4M29 22h1M15 23h1M17 24h1M28 24h1" />
<path stroke="#525252" d="M23 18h1M15 19h1M17 19h1M12 20h1M15 20h1M17 20h1M13 21h2M16 21h1M17 22h1M20 22h2M17 23h1M21 23h3M25 23h2M16 24h1M18 24h1M23 24h3" />
<path stroke="#bdbdbd" d="M18 19h1M14 20h1M18 20h4M17 21h1M19 21h5M18 22h2M22 22h1" />
<path stroke="#4a6ba5" d="M27 21h1M29 21h1M28 22h1M28 23h1M29 24h1" />
<path stroke="#8c8c8c" d="M23 22h5M18 23h3M24 23h1M27 23h1M21 24h2M26 24h1M23 25h3" />
</svg>