<svg xmlns="http://www.w3.org/2000/svg" viewBox="0 -0.5 40 30" shape-rendering="crispEdges">
<metadata>Made with Pixels to Svg https://codepen.io/shshaw/pen/XbxvNj</metadata>
<path stroke="#202020" d="M19 6h3M17 7h2M22 7h1M16 8h1M23 8h1M17 9h1M24 9h1M12 10h2M17 10h1M23 10h1M11 11h1M15 11h2M20 11h1M23 11h1M10 12h1M13 12h2M24 12h1M9 13h1M24 13h1M27 13h2M9 14h1M25 14h1M28 14h2M9 15h1M26 15h2M30 15h1M10 16h1M13 16h2M31 16h1M11 17h2M14 17h1M31 17h1M15 18h1M31 18h1M14 19h1M26 19h2M30 19h1M13 20h1M26 20h1M28 20h2M12 21h1M26 21h1M12 22h1M27 22h1M13 23h1M27 23h1M12 24h1M17 24h2M20 24h1M27 24h1M13 25h5M19 25h1M21 25h1M27 25h1M22 26h1M28 26h1M22 27h6" />
<path stroke="#ffffff" d="M19 7h3M17 8h1M19 8h3M18 9h4M23 9h1M18 10h3M22 10h1M18 11h2M21 11h2M11 12h2M20 12h4M10 13h4M21 13h3M10 14h3M22 14h3M11 15h2M22 15h4M29 15h1M23 16h4M28 16h3M17 17h2M21 17h1M23 17h1M25 17h1M28 17h3M18 18h1M20 18h1M23 18h1M28 18h2M15 19h1M20 19h4M14 20h2M17 20h8M13 21h4M18 21h8M13 22h3M17 22h4M22 22h4M14 23h1M18 23h1M20 23h1M22 23h4M23 24h2M24 26h1M26 26h1" />
<path stroke="#adbdce" d="M18 8h1M22 8h1M22 9h1M21 10h1M17 11h1M15 12h1M19 12h1M15 13h1M10 15h1M14 15h1M28 15h1M11 16h2M16 18h1M26 18h2M30 18h1M16 19h2M19 19h1M24 19h1M28 19h2M16 20h1M25 20h1M17 21h1M21 22h1M26 22h1M15 23h2M19 23h1M26 23h1M13 24h4M19 24h1M22 24h1M25 24h2M24 25h3M23 26h1M25 26h1M27 26h1" />
<path stroke="#525252" d="M12 11h1M17 12h2M13 14h2M27 16h1M26 17h2M24 18h1M25 19h1M21 23h1M21 24h1" />
<path stroke="#4294d6" d="M16 12h1M16 13h1M20 13h1M15 14h1M17 14h1M21 14h1M15 15h1M17 15h1M19 15h1M21 15h1M19 16h1M22 16h1M19 17h1" />
<path stroke="#84949c" d="M14 13h1M13 15h1M24 17h1M25 18h1M16 22h1M17 23h1M22 25h2" />
<path stroke="#63c5c5" d="M17 13h2M18 14h1M20 14h1M17 16h1" />
<path stroke="#a5deff" d="M19 13h1M16 14h1M19 14h1M16 15h1M18 15h1M20 15h1M15 16h1M18 16h1M20 16h2" />
<path stroke="#3a73a5" d="M16 16h1M15 17h2M20 17h1M22 17h1M17 18h1M19 18h1M21 18h2M18 19h1" />
</svg>