<svg xmlns="http://www.w3.org/2000/svg" viewBox="0 -0.5 40 30" shape-rendering="crispEdges">
<metadata>Made with Pixels to Svg https://codepen.io/shshaw/pen/XbxvNj</metadata>
<path stroke="#202020" d="M15 6h1M14 7h1M16 7h1M13 8h1M16 8h3M21 8h2M13 9h1M19 9h2M23 9h1M13 10h1M23 10h1M27 10h4M12 11h1M24 11h1M26 11h1M31 11h1M12 12h1M25 12h1M32 12h1M12 13h1M18 13h1M32 13h1M12 14h1M32 14h1M13 15h1M32 15h1M13 16h1M32 16h1M14 17h1M31 17h1M13 18h1M31 18h1M13 19h1M30 19h1M12 20h2M30 20h1M11 21h1M29 21h1M11 22h1M28 22h1M12 23h1M27 23h1M13 24h3M25 24h2M16 25h2M23 25h2M18 26h1M22 26h1M19 27h3" />
<path stroke="#f7e68c" d="M15 7h1M15 8h1M14 9h2M21 9h1M16 10h2M19 10h4M13 11h1M15 11h3M20 11h2M16 12h1M21 12h1M27 13h1M29 15h1M29 16h1M16 19h1M18 19h1M20 19h1M16 20h3M17 21h1" />
<path stroke="#ceb563" d="M14 8h1M22 9h1M18 11h2M17 12h1M20 12h1M20 13h1M26 13h1M28 13h1M19 14h1M28 14h2M30 16h2M16 18h3M17 19h1M19 19h1M20 20h1M19 25h2" />
<path stroke="#8c633a" d="M16 9h1M18 10h1M22 11h1M22 12h1M24 12h1M21 13h1M20 14h1M23 14h1M20 16h1M18 17h1M14 18h1M14 19h1M23 19h1M14 20h1M23 20h1M15 23h1M16 24h1" />
<path stroke="#b5844a" d="M17 9h2M15 10h1M23 12h1M22 13h3M21 14h2M19 15h5M18 16h2M21 16h2M17 17h1M19 17h2M23 17h1M21 18h4M21 19h2M24 19h1M21 20h1M24 20h2M13 21h1M15 21h2M19 21h3M23 21h3M14 22h4M20 22h1M22 22h4M14 23h1M16 23h2M21 23h4M22 24h2" />
<path stroke="#ffffff" d="M14 10h1M14 11h1M18 12h2M17 13h1M19 13h1M18 14h1M14 16h2M15 17h1" />
<path stroke="#525252" d="M23 11h1M25 13h1M24 14h1M15 15h1M24 15h1M16 16h2M23 16h1M16 17h1M21 17h2M24 17h1M15 18h1M19 18h2M25 18h1M15 19h1M25 19h1M15 20h1M22 20h1M26 20h1M14 21h1M18 21h1M22 21h1M26 21h1M18 22h1M21 22h1M26 22h1M18 23h3M25 23h1M17 24h1M21 24h1M24 24h1M22 25h1" />
<path stroke="#6b5a4a" d="M27 11h4M14 12h1M26 12h6M13 13h1M15 13h2M29 13h3M13 14h5M25 14h3M30 14h2M16 15h3M25 15h4M30 15h2M24 16h5M25 17h6M26 18h5M26 19h4M19 20h1M27 20h3M12 21h1M27 21h2M12 22h2M19 22h1M27 22h1M13 23h1M26 23h1M18 24h3M18 25h1M21 25h1M19 26h3" />
<path stroke="#c5a55a" d="M13 12h1M15 12h1" />
<path stroke="#f76352" d="M14 13h1" />
<path stroke="#c5c5c5" d="M14 15h1" />
</svg>