<svg xmlns="http://www.w3.org/2000/svg" viewBox="0 -0.5 40 30" shape-rendering="crispEdges">
<metadata>Made with Pixels to Svg https://codepen.io/shshaw/pen/XbxvNj</metadata>
<path stroke="#202020" d="M18 4h3M18 5h1M21 5h1M24 5h3M19 6h1M22 6h2M27 6h1M20 7h1M25 7h2M20 8h1M23 8h2M19 9h2M22 9h1M17 10h2M23 10h2M16 11h1M25 11h1M15 12h1M26 12h1M16 13h1M27 13h1M9 14h3M15 14h1M26 14h1M7 15h2M12 15h3M27 15h1M6 16h1M27 16h1M4 17h2M12 17h1M28 17h2M4 18h1M11 18h1M13 18h1M30 18h3M4 19h1M11 19h1M13 19h1M33 19h1M4 20h1M12 20h2M29 20h2M34 20h1M5 21h1M28 21h1M30 21h1M34 21h1M6 22h3M11 22h1M29 22h1M34 22h1M9 23h2M12 23h1M15 23h1M29 23h1M35 23h1M13 24h2M16 24h2M23 24h2M27 24h2M30 24h1M34 24h2M18 25h5M25 25h1M27 25h1M31 25h3M26 26h2" />
<path stroke="#eee6a4" d="M19 5h2M20 6h2M21 7h1M19 10h4M18 11h3M22 11h2M16 12h1M19 12h1M23 12h3M26 13h1" />
<path stroke="#bdb473" d="M24 6h3M22 7h3M21 8h2M21 9h1M17 11h1M21 11h1M24 11h1M20 12h1M22 12h1M23 13h1M25 13h1" />
<path stroke="#4abde6" d="M17 12h1M21 12h1M17 13h1M19 13h2M16 14h1M18 14h3M23 14h1M16 15h5M23 15h1M18 16h1M21 16h2M6 20h2M8 21h1M26 25h1" />
<path stroke="#ffffff" d="M18 12h1M21 13h2M24 13h1M17 14h1M24 14h2M9 15h2M15 15h1M21 15h2M24 15h2M7 16h5M13 16h1M17 16h1M23 16h4M8 17h4M15 17h1M21 17h2M25 17h3M5 18h3M10 18h1M14 18h4M24 18h1M26 18h1M28 18h2M8 19h2M14 19h1M18 19h8M28 19h2M31 19h1M10 20h1M14 20h1M23 20h3M32 20h2M13 21h1M15 21h3M23 21h2M31 21h2M12 22h2M16 22h7M25 22h2M25 23h2M26 24h1" />
<path stroke="#525252" d="M18 13h1M21 14h2M14 16h1M13 17h1M27 19h1M32 19h1M28 20h1M31 20h1M9 21h1M11 21h1M26 21h1M14 22h1M27 22h1M14 23h1M24 23h1M27 23h1M25 24h1" />
<path stroke="#bdb4bd" d="M11 15h1M26 15h1M12 16h1M15 16h1M6 17h2M14 17h1M24 17h1M8 18h2M25 18h1M27 18h1M10 19h1M26 19h1M30 19h1M9 20h1M11 20h1M26 20h2M10 21h1M12 21h1M14 21h1M25 21h1M27 21h1M33 21h1M9 22h2M15 22h1M23 22h2M28 22h1M30 22h4M16 23h1M22 23h2M30 23h5M31 24h3" />
<path stroke="#c56273" d="M16 16h1M19 16h2M16 17h4M23 17h1M18 18h1M23 18h1" />
<path stroke="#eeacb4" d="M20 17h1M19 18h4" />
<path stroke="#4a94b4" d="M5 19h3M8 20h1M13 23h1M18 23h1M28 23h1M19 24h3" />
<path stroke="#736a9c" d="M15 19h2M5 20h1M16 20h6M6 21h2M19 21h4M17 23h1M19 23h3M18 24h1M22 24h1" />
<path stroke="#bdbdd5" d="M17 19h1M15 20h1M22 20h1M18 21h1" />
</svg>