<svg xmlns="http://www.w3.org/2000/svg" viewBox="0 -0.5 40 30" shape-rendering="crispEdges">
<metadata>Made with Pixels to Svg https://codepen.io/shshaw/pen/XbxvNj</metadata>
<path stroke="#202020" d="M21 7h3M20 8h1M24 8h1M19 9h1M25 9h1M19 10h1M25 10h1M27 10h3M18 11h1M22 11h1M26 11h1M30 11h1M14 12h3M18 12h1M21 12h1M23 12h1M31 12h1M12 13h2M17 13h2M21 13h1M23 13h1M31 13h1M11 14h1M21 14h1M23 14h1M31 14h1M10 15h1M20 15h1M22 15h1M32 15h2M10 16h1M21 16h1M33 16h1M8 17h2M11 17h1M31 17h2M7 18h1M10 18h1M30 18h1M7 19h1M30 19h1M7 20h1M30 20h1M8 21h1M16 21h2M31 21h1M8 22h1M15 22h1M17 22h1M30 22h1M9 23h2M14 23h1M30 23h1M11 24h1M14 24h1M19 24h3M24 24h1M28 24h2M12 25h2M22 25h2M25 25h3" />
<path stroke="#73aca4" d="M21 8h3M20 9h5M20 10h3M24 10h1M19 11h3M24 11h2M19 12h2M25 12h1M19 13h2M25 13h1M20 14h1M25 14h2M23 15h1M26 15h1M22 16h1M26 16h3M25 17h3M29 17h1M9 18h1M13 18h1M26 18h3M8 19h6M16 19h1M28 19h2M8 20h1M10 20h2M14 20h2M26 20h3M9 21h2" />
<path stroke="#527b73" d="M23 10h1M8 18h1" />
<path stroke="#acd5ac" d="M23 11h1M24 12h1M24 13h1M24 14h1M24 15h2M23 16h3M22 17h3M23 18h1M27 19h1M16 20h1M12 21h2M15 21h1M10 22h1M12 22h2" />
<path stroke="#eef6ee" d="M27 11h3M27 12h4M14 13h2M27 13h4M12 14h7M28 14h2M13 15h4M18 15h2M13 16h1M16 16h2M19 16h1M17 17h2M18 18h1M18 19h2M25 19h1M18 20h2M23 20h2M29 20h1M18 21h2M22 21h2M27 21h4M18 22h1M22 22h7M23 23h4M28 23h2M22 24h2M26 24h2" />
<path stroke="#525252" d="M26 12h1M26 13h1M19 14h1M27 14h1M27 15h1M14 16h2M30 16h1M13 17h1M16 17h1M21 17h1M28 17h1M11 18h2M17 18h1M22 18h1M24 18h2M29 18h1M17 19h1M22 19h2M26 19h1M9 20h1M12 20h2M17 20h1M22 20h1M11 21h1M14 21h1M20 21h2M25 21h2M9 22h1M20 22h1M11 23h1M18 23h2" />
<path stroke="#9c9483" d="M16 13h1M12 15h1M12 16h1M19 17h1M19 18h1M20 19h1M20 20h1M12 23h2M22 23h1" />
<path stroke="#bdbdac" d="M30 14h1M17 15h1M28 15h4M18 16h1M20 16h1M29 16h1M31 16h2M12 17h1M20 17h1M30 17h1M20 18h2M21 19h1M24 19h1M21 20h1M25 20h1M24 21h1M19 22h1M21 22h1M29 22h1M20 23h2M27 23h1M12 24h2M25 24h1" />
<path stroke="#f6de31" d="M11 15h1M11 16h1M14 17h2M16 18h1" />
<path stroke="#f68bc5" d="M14 18h2" />
<path stroke="#ffa4d5" d="M14 19h2" />
<path stroke="#83a483" d="M11 22h1M14 22h1" />
</svg>