<svg xmlns="http://www.w3.org/2000/svg" viewBox="0 -0.5 40 30" shape-rendering="crispEdges">
<metadata>Made with Pixels to Svg https://codepen.io/shshaw/pen/XbxvNj</metadata>
<path stroke="#202020" d="M17 9h1M19 9h1M16 10h1M18 10h1M20 10h1M16 11h1M20 11h1M16 12h1M21 12h1M15 13h1M22 13h1M14 14h1M22 14h1M14 15h1M23 15h1M14 16h1M19 16h1M23 16h1M25 16h1M13 17h1M19 17h1M24 17h1M26 17h1M12 18h1M26 18h1M13 19h2M27 19h1M15 20h2M27 20h1M16 21h1M27 21h1M15 22h1M26 22h1M15 23h1M23 23h3M16 24h1M25 24h1M16 25h1M24 25h1M17 26h3M23 26h1M20 27h3" />
<path stroke="#a5d6ff" d="M17 10h1M19 10h1M17 11h3M18 12h1M20 12h1M16 13h5M16 14h6M15 15h4M20 15h3M17 16h1M21 16h2M21 17h3M25 17h1M20 18h1M24 18h1M26 19h1M23 20h4M22 21h4M22 22h3" />
<path stroke="#5273a5" d="M17 12h1M15 16h1M20 19h1M23 19h1M17 20h1M20 20h1M22 20h1M25 22h1" />
<path stroke="#525252" d="M19 12h1M22 18h2M17 19h2M21 19h1M24 19h2M18 21h1M17 22h1M19 22h1M21 22h1M19 23h1M22 23h1M18 24h1M19 25h2M22 25h1" />
<path stroke="#7bb5de" d="M21 13h1M15 14h1M16 16h1M21 18h1M25 18h1M19 19h1M22 19h1M18 20h2M21 20h1M17 21h1M19 21h3M20 22h1" />
<path stroke="#ffffff" d="M19 15h1M18 16h1M20 16h1M18 17h1M20 17h1M19 18h1" />
<path stroke="#cead42" d="M14 17h1M15 19h2M17 25h1M21 25h1" />
<path stroke="#f7f729" d="M15 17h2M13 18h5M20 26h3" />
<path stroke="#8c8c73" d="M17 17h1M18 18h1M18 25h1" />
<path stroke="#5284f7" d="M26 21h1M16 22h1M18 22h1M16 23h3M20 23h2M17 24h1M19 24h6M23 25h1" />
</svg>