<svg xmlns="http://www.w3.org/2000/svg" viewBox="0 -0.5 40 30" shape-rendering="crispEdges">
<metadata>Made with Pixels to Svg https://codepen.io/shshaw/pen/XbxvNj</metadata>
<path stroke="#202020" d="M20 7h2M18 8h2M21 8h1M17 9h1M20 9h1M17 10h1M21 10h1M16 11h1M20 11h1M14 12h2M21 12h1M13 13h1M22 13h2M13 14h1M24 14h2M14 15h1M26 15h2M13 16h1M28 16h1M12 17h1M29 17h1M12 18h1M28 18h1M12 19h1M28 19h1M13 20h1M27 20h1M12 21h1M27 21h1M12 22h1M26 22h1M13 23h1M25 23h1M14 24h2M24 24h1M16 25h3M25 25h1M19 26h1M24 26h1M20 27h4" />
<path stroke="#9c9c94" d="M20 8h1M18 9h2M18 10h3M17 11h3M16 12h5M15 13h2M18 13h3M14 14h1M19 14h3M20 15h3M21 16h5M27 16h1M21 17h2M26 17h3M22 18h6M22 19h5M22 20h1M24 20h2M13 21h1M15 21h2M19 21h1M22 21h2M14 22h1M17 22h2M15 23h1" />
<path stroke="#737373" d="M14 13h1M15 14h2M23 15h1M25 15h1M17 17h1M23 17h1M13 18h1M16 18h1M16 20h1M21 21h1M26 21h1M20 22h6M20 23h5M16 24h1M19 24h4M21 25h4M20 26h4" />
<path stroke="#525252" d="M17 13h1M21 13h1M18 14h1M22 14h1M19 15h1M20 16h1M26 16h1M13 17h1M18 17h1M20 17h1M24 17h2M17 18h3M21 18h1M13 19h1M16 19h1M19 19h1M21 19h1M27 19h1M18 20h2M21 20h1M23 20h1M26 20h1M14 21h1M17 21h2M20 21h1M24 21h2M13 22h1M16 22h1M19 22h1M16 23h1M19 23h1M17 24h2M23 24h1M19 25h2" />
<path stroke="#efefd6" d="M17 14h1M23 14h1M15 15h4M24 15h1M14 16h5M14 17h3M19 17h1M14 18h2M15 19h1" />
<path stroke="#bdbda5" d="M19 16h1M20 18h1M14 19h1M20 19h1M14 20h2M20 20h1M15 22h1M14 23h1M17 23h2" />
<path stroke="#f7635a" d="M17 19h1" />
<path stroke="#9c524a" d="M18 19h1M17 20h1" />
</svg>