<svg xmlns="http://www.w3.org/2000/svg" viewBox="0 -0.5 40 30" shape-rendering="crispEdges">
<metadata>Made with Pixels to Svg https://codepen.io/shshaw/pen/XbxvNj</metadata>
<path stroke="#202020" d="M17 4h6M15 5h2M23 5h2M14 6h1M25 6h1M13 7h1M26 7h1M12 8h1M26 8h1M12 9h1M27 9h1M11 10h1M15 10h2M27 10h1M11 11h1M14 11h1M17 11h1M27 11h1M11 12h1M13 12h1M16 12h1M26 12h2M12 13h2M15 13h1M28 13h1M15 14h1M28 14h1M14 15h1M27 15h1M30 15h2M14 16h1M27 16h1M29 16h1M31 16h1M14 17h1M27 17h2M30 17h1M13 18h1M30 18h1M12 19h1M29 19h1M11 20h1M29 20h1M10 21h1M27 21h2M9 22h1M11 22h2M21 22h2M26 22h1M9 23h2M12 23h1M20 23h1M22 23h1M25 23h1M13 24h1M19 24h1M21 24h1M24 24h1M14 25h4M19 25h1M21 25h1M23 25h1M17 26h2M20 26h1M22 26h1M20 27h2" />
<path stroke="#ef739c" d="M17 5h3M15 6h2M14 7h1M13 8h1M13 9h1M12 10h1M12 11h1M12 12h1M24 22h1M23 23h1" />
<path stroke="#d63a42" d="M20 5h3M17 6h8M15 7h11M14 8h4M23 8h3M14 9h3M24 9h3M13 10h2M25 10h2M13 11h1M25 11h2M19 16h1M14 18h1M13 19h1M25 20h2M11 21h1M26 21h1M10 22h1M24 23h1M18 25h1M22 25h1M21 26h1" />
<path stroke="#525252" d="M18 8h2M21 8h2M17 9h1M23 9h1M23 10h2M24 11h1M25 12h1M24 13h1M23 14h1M22 15h1M18 16h1M21 16h1M17 17h3M21 17h1M26 17h1M15 18h3M20 18h2M25 18h1M28 18h2M14 19h1M22 19h1M25 19h2M13 20h1M23 20h2M27 20h1M12 21h1M23 21h1M23 22h1M18 24h1" />
<path stroke="#7b7b7b" d="M20 8h1M18 9h1M20 9h1M22 9h1M18 10h1M20 10h3M19 11h2M18 12h1M25 13h1M16 14h1M18 14h1M20 14h3M15 15h1M17 15h1M19 15h1M21 15h1M25 15h2M24 16h1M24 17h1M18 19h1M24 19h1M19 20h1M17 21h1M19 21h2M16 22h1M18 22h1M16 23h2" />
<path stroke="#a5a5a5" d="M19 9h1M21 9h1M19 10h1M21 11h3M19 12h1M21 12h4M21 13h3M26 14h2M24 15h1M15 16h1M25 16h2M16 17h1M23 17h1M25 17h1M23 18h2M27 18h1M23 19h1M28 19h1M17 20h2M28 20h1M18 21h1M17 22h1M19 22h2M25 22h1M15 23h1M18 23h2M14 24h4M23 24h1" />
<path stroke="#c5c5c5" d="M17 10h1M18 11h1M17 12h1M20 12h1M16 13h5M26 13h2M17 14h1M19 14h1M24 14h2M16 15h1M18 15h1M23 15h1M16 16h2M22 16h2M30 16h1M15 17h1M22 17h1M29 17h1M22 18h1M26 18h1M15 19h3M27 19h1M12 20h1M14 20h3M13 21h4M24 21h2M13 22h3M13 23h2M22 24h1" />
<path stroke="#f7f729" d="M20 15h1" />
<path stroke="#d6a542" d="M20 16h1M18 18h2M19 19h2" />
<path stroke="#ffffff" d="M20 17h1" />
<path stroke="#29529c" d="M21 19h1M20 20h1M22 21h1" />
<path stroke="#4284ff" d="M21 20h2M21 21h1" />
</svg>