<svg xmlns="http://www.w3.org/2000/svg" viewBox="0 -0.5 40 30" shape-rendering="crispEdges">
<metadata>Made with Pixels to Svg https://codepen.io/shshaw/pen/XbxvNj</metadata>
<path stroke="#202020" d="M15 6h4M13 7h2M19 7h3M12 8h1M22 8h1M11 9h1M22 9h1M10 10h1M23 10h1M10 11h1M23 11h1M11 12h1M23 12h1M11 13h1M22 13h1M12 14h2M23 14h1M12 15h1M17 15h1M19 15h1M23 15h1M11 16h2M17 16h1M20 16h3M24 16h1M10 17h1M24 17h1M28 17h2M11 18h1M24 18h1M27 18h1M30 18h1M12 19h1M23 19h1M27 19h1M30 19h1M24 20h1M27 20h3M12 21h1M23 21h1M25 21h2M28 21h1M12 22h1M24 22h1M28 22h1M13 23h1M27 23h1M12 24h1M15 24h2M25 24h2M13 25h2M17 25h3M23 25h2M19 26h1M22 26h1M20 27h2" />
<path stroke="#ffffff" d="M15 7h3M13 8h2M16 8h5M12 9h1M14 9h1M16 9h1M19 9h3M12 10h1M15 10h1M17 10h2M20 10h2M13 11h3M17 11h1M19 11h2M14 12h3M19 12h1M13 13h1M16 15h1M20 17h1M22 17h1M13 18h1M19 18h4M28 18h1M13 19h2M16 19h1M18 19h3M15 20h3" />
<path stroke="#b5d6d6" d="M18 7h1M13 9h1M13 10h1M22 10h1M18 11h1M22 11h1M18 12h1M22 12h1M16 13h2M23 16h1M23 17h1M18 18h1M23 18h1M15 19h1M17 19h1M21 19h1M19 20h2M13 24h1M20 26h1" />
<path stroke="#525252" d="M15 8h1M11 10h1M11 11h2M20 12h2M12 13h1M18 13h3M19 14h1M21 14h2M21 15h2M16 16h1M19 16h1M13 17h1M14 18h3M13 20h2M21 20h1M15 21h3M19 21h2M22 21h1M26 22h1M24 23h1M26 23h1M23 24h1M20 25h1" />
<path stroke="#94a5a5" d="M21 8h1M15 9h1M17 9h2M14 10h1M16 10h1M19 10h1M16 11h1M21 11h1M13 12h1M17 12h1M14 13h2M19 17h1M21 17h1M12 18h1M17 18h1M22 19h1M18 20h1" />
<path stroke="#a54a6b" d="M12 12h1M12 17h1M17 17h2M14 22h1M18 22h1M27 22h1M14 23h1M18 23h1M25 23h1M19 24h1M24 24h1M21 25h2" />
<path stroke="#de7394" d="M21 13h1M18 14h1M20 14h1M20 15h1M13 16h1M18 16h1M14 17h3M14 21h1M27 21h1M23 22h1M25 22h1M15 23h1M23 23h1M14 24h1M22 24h1M21 26h1" />
<path stroke="#f79ca5" d="M14 14h1M17 14h1M13 15h1M18 15h1M11 17h1M22 20h1M13 21h1M18 21h1M21 21h1M13 22h1M15 22h3M19 22h1M22 22h1M16 23h2M19 23h1M22 23h1M17 24h2M20 24h2" />
<path stroke="#ffb5a5" d="M15 14h2M14 15h2M14 16h2M23 20h1M20 22h2M20 23h2" />
<path stroke="#8c7bff" d="M29 18h1M28 19h1" />
<path stroke="#a5c5ff" d="M29 19h1" />
</svg>