<svg xmlns="http://www.w3.org/2000/svg" viewBox="0 -0.5 40 30" shape-rendering="crispEdges">
<metadata>Made with Pixels to Svg https://codepen.io/shshaw/pen/XbxvNj</metadata>
<path stroke="#202020" d="M14 2h4M13 3h1M18 3h2M13 4h1M20 4h1M10 5h3M21 5h1M9 6h1M21 6h1M8 7h1M20 7h1M28 7h3M8 8h1M20 8h2M27 8h1M31 8h1M9 9h1M22 9h1M27 9h1M31 9h1M10 10h1M23 10h1M26 10h1M30 10h1M10 11h1M23 11h1M25 11h1M30 11h1M11 12h1M14 12h1M21 12h2M25 12h1M29 12h1M10 13h1M21 13h1M23 13h2M29 13h1M9 14h1M22 14h1M27 14h2M10 15h1M27 15h1M11 16h1M27 16h1M12 17h1M28 17h1M11 18h1M28 18h1M11 19h1M23 19h2M28 19h1M12 20h2M23 20h1M25 20h1M29 20h1M13 21h1M22 21h1M24 21h1M29 21h1M12 22h1M21 22h1M24 22h1M29 22h1M12 23h1M17 23h1M22 23h1M24 23h2M28 23h2M12 24h1M16 24h1M22 24h1M25 24h3M13 25h3M17 25h1M22 25h1M17 26h1M21 26h1M18 27h3" />
<path stroke="#525252" d="M14 3h1M13 5h1M12 6h1M19 8h1M19 9h1M22 11h1M11 13h3M16 13h1M25 13h1M11 14h6M26 14h1M13 15h4M22 15h1M18 16h1M23 16h1M18 17h1M23 17h1M18 18h1M18 19h1M14 20h1M19 20h1M15 21h1M19 21h1M16 22h1M18 22h1M20 22h1M26 22h2M18 23h1M26 23h2M13 24h2M17 24h1M18 26h2" />
<path stroke="#dee6ce" d="M15 3h3M14 4h6M14 5h5M11 6h1M14 6h4M9 7h3M16 7h1M10 8h3M12 9h3M15 10h5M19 11h2M18 14h3M23 14h3M19 15h2M24 15h2M19 16h2M24 16h3M19 17h3M24 17h3M19 18h3M23 18h1M25 18h3M20 19h1M26 19h1M17 20h2M19 22h1M19 23h1" />
<path stroke="#a5ad8c" d="M19 5h2M10 6h1M18 6h3M17 7h3M11 9h1M20 9h2M14 10h1M20 10h3M18 11h1M18 13h3M18 15h1M26 15h1M21 16h1M27 17h1M24 18h1M19 19h1M17 21h2" />
<path stroke="#94de5a" d="M13 6h1M15 7h1M29 8h1M28 9h3M27 10h3M26 11h4M28 12h1M17 18h1M16 19h2M21 19h2M15 20h2M20 20h2M27 20h2M16 21h1M25 21h4M25 22h1M28 22h1M21 23h1M18 24h1M20 24h2M18 25h4" />
<path stroke="#63bd42" d="M12 7h3M13 8h3M18 9h1M11 11h1M13 11h1M12 12h1M26 12h2M27 13h2M15 16h1M17 16h1M15 17h3M14 18h3M14 19h2M25 19h1M27 19h1M22 20h1M26 20h1M14 21h1M20 21h2M13 22h3M13 23h4M20 23h1M15 24h1M19 24h1M20 26h1" />
<path stroke="#848c6b" d="M9 8h1M10 9h1M11 10h3M14 11h4M21 11h1M18 12h3M23 15h1M12 16h1M13 17h1M17 22h1" />
<path stroke="#5a8442" d="M16 8h3M28 8h1M30 8h1M15 9h3M12 11h1M26 13h1M12 18h1M12 19h1" />
<path stroke="#4a737b" d="M13 12h1M10 14h1" />
<path stroke="#d63131" d="M15 12h1" />
<path stroke="#ffffff" d="M16 12h1M14 13h2" />
<path stroke="#424242" d="M17 12h1M17 13h1M17 14h1M21 14h1M11 15h2M17 15h1M21 15h1M13 16h2M16 16h1M22 16h1M14 17h1M22 17h1M13 18h1M22 18h1M13 19h1" />
</svg>