<svg xmlns="http://www.w3.org/2000/svg" viewBox="0 -0.5 40 30" shape-rendering="crispEdges">
<metadata>Made with Pixels to Svg https://codepen.io/shshaw/pen/XbxvNj</metadata>
<path stroke="#202020" d="M22 6h2M20 7h2M23 7h1M20 8h1M24 8h1M20 9h1M24 9h1M29 9h1M15 10h2M19 10h1M25 10h2M28 10h1M30 10h2M14 11h1M16 11h3M27 11h1M31 11h1M12 12h2M31 12h1M11 13h1M30 13h1M10 14h1M31 14h1M9 15h1M30 15h1M7 16h2M31 16h1M6 17h1M30 17h1M6 18h2M13 18h1M31 18h1M7 19h1M32 19h1M8 20h1M19 20h1M32 20h1M8 21h2M33 21h1M9 22h1M13 22h2M20 22h2M29 22h1M33 22h1M8 23h1M12 23h1M15 23h1M19 23h1M21 23h1M28 23h1M30 23h1M32 23h1M8 24h1M10 24h1M12 24h1M14 24h1M19 24h1M22 24h1M28 24h1M31 24h2M8 25h2M11 25h1M14 25h1M18 25h1M23 25h1M27 25h1M14 26h1M16 26h1M18 26h1M23 26h1M26 26h1M14 27h2M17 27h1M24 27h2" />
<path stroke="#7b9cff" d="M22 7h1M21 8h1M29 10h1M28 11h1M15 16h1M14 17h1M17 17h1M16 18h1M18 19h1M9 20h1M31 23h1M25 26h1" />
<path stroke="#636bce" d="M22 8h2M21 9h1M29 11h2M16 12h1M30 12h1M14 14h1M29 14h2M13 15h1M30 16h1M13 19h1M20 19h1M18 20h1M20 20h1M19 21h1" />
<path stroke="#525252" d="M22 9h2M20 10h1M17 12h1M28 12h2M13 13h1M15 13h3M29 13h1M13 14h1M15 14h1M17 14h2M21 14h2M27 14h2M14 15h1M19 15h2M22 15h1M27 15h1M29 15h1M13 16h1M22 16h2M27 16h1M12 17h1M23 17h1M25 17h1M27 17h1M12 18h1M24 18h1M26 18h1M11 19h2M23 19h1M26 19h1M10 20h1M12 20h1M23 20h1M26 20h1M13 21h1M17 21h2M22 21h2M27 21h1M15 22h2M18 22h1M22 22h1M27 22h1M31 22h2M25 25h1M24 26h1" />
<path stroke="#b594ad" d="M21 10h1M20 11h1M25 11h2M19 12h2M24 12h2M18 13h2M21 13h1M23 13h2M28 13h1M19 14h2M23 14h2M23 15h1M26 15h1M24 16h2M24 17h1M22 19h1M13 20h2M21 20h1M15 21h2M20 21h1" />
<path stroke="#cea519" d="M22 10h1M24 10h1M15 11h1M19 11h1M21 11h1M14 12h2M27 12h1M14 13h1M11 14h1M12 15h1M25 15h1M11 16h2M21 16h1M29 16h1M8 17h1M22 18h1M28 18h1M30 18h1M8 19h1M24 19h1M27 19h1M31 19h1M17 20h1M27 20h1M12 21h1M26 21h1M28 21h1M31 21h1M23 22h1M28 22h1M18 23h1M27 23h1M15 24h1M23 24h1M24 25h1" />
<path stroke="#ffe652" d="M23 10h1M22 11h3M18 12h1M21 12h3M26 12h1M12 13h1M20 13h1M22 13h1M25 13h3M12 14h1M16 14h1M25 14h2M11 15h1M15 15h4M21 15h1M24 15h1M28 15h1M9 16h2M14 16h1M16 16h5M28 16h1M7 17h1M9 17h3M15 17h2M18 17h5M28 17h2M8 18h4M14 18h2M17 18h5M25 18h1M29 18h1M9 19h2M14 19h4M21 19h1M25 19h1M28 19h3M11 20h1M15 20h2M24 20h2M28 20h4M10 21h2M24 21h2M29 21h2M32 21h1M10 22h3M17 22h1M24 22h3M30 22h1M9 23h3M16 23h2M22 23h5M9 24h1M11 24h1M16 24h3M24 24h4M15 25h3M26 25h1M15 26h1M17 26h1" />
<path stroke="#846b19" d="M10 15h1M23 18h1M27 18h1" />
<path stroke="#846b84" d="M26 16h1M26 17h1M22 20h1M14 21h1M21 21h1M19 22h1" />
<path stroke="#ffffff" d="M13 17h1M19 19h1" />
</svg>