<svg xmlns="http://www.w3.org/2000/svg" viewBox="0 -0.5 40 30" shape-rendering="crispEdges">
<metadata>Made with Pixels to Svg https://codepen.io/shshaw/pen/XbxvNj</metadata>
<path stroke="#202020" d="M15 5h4M14 6h1M19 6h4M13 7h1M15 7h1M23 7h4M13 8h1M27 8h1M14 9h1M28 9h1M12 10h2M28 10h1M11 11h1M27 11h2M10 12h1M24 12h3M10 13h1M23 13h1M11 14h1M22 14h1M12 15h1M22 15h2M26 15h1M10 16h2M24 16h2M27 16h1M9 17h1M14 17h1M22 17h2M27 17h1M8 18h1M11 18h3M15 18h2M22 18h1M24 18h1M28 18h1M8 19h3M17 19h1M21 19h1M25 19h1M28 19h1M15 20h2M22 20h2M25 20h1M29 20h1M14 21h1M18 21h1M24 21h1M26 21h1M29 21h1M13 22h1M17 22h1M19 22h1M25 22h1M27 22h1M29 22h1M14 23h1M18 23h1M20 23h2M26 23h1M28 23h2M14 24h1M18 24h1M22 24h2M26 24h1M15 25h3M24 25h1M27 25h1M24 26h1M27 26h1M23 27h1M28 27h1M24 28h4" />
<path stroke="#d8b5d6" d="M15 6h3M14 7h1M16 7h3M17 8h3M21 15h1M20 16h1M10 17h1M21 17h1M9 18h1M28 21h1M28 22h1M15 24h1M25 27h2" />
<path stroke="#525252" d="M18 6h1M15 9h2M20 9h1M25 9h3M17 10h6M13 11h1M18 11h5M12 12h1M16 12h2M21 12h3M13 13h3M22 13h1M21 14h1M19 15h2M13 16h6M21 16h1M25 17h1M21 18h1M18 19h3M18 20h1M21 20h1M21 21h1M22 22h1M15 23h2M22 23h1M25 24h1" />
<path stroke="#8c62be" d="M19 7h1M20 8h4M23 9h2M14 10h1M24 10h1M24 11h3M20 13h2M20 14h1M22 16h2M15 17h1M19 18h1M25 18h2M26 19h1M17 20h1M19 20h2M26 20h1M15 21h3M19 21h2M14 22h2M25 25h2M25 26h2M24 27h1M27 27h1" />
<path stroke="#ae83cf" d="M20 7h3M21 9h2M15 10h2M23 10h1M25 10h3M12 11h1M14 11h4M23 11h1M13 12h3M18 12h3M12 13h1M16 13h3M13 14h4M19 16h1M26 16h1M17 17h1M19 17h2M26 17h1M18 18h1M20 18h1M27 18h1M27 19h1M22 21h2M23 22h2M23 23h3M24 24h1" />
<path stroke="#8e737b" d="M14 8h3M17 9h3M16 24h1" />
<path stroke="#e6edf7" d="M24 8h3" />
<path stroke="#ed504e" d="M11 12h1M11 13h1M19 13h1M18 14h1M17 15h1" />
<path stroke="#ffffff" d="M12 14h1M13 15h1M15 15h1" />
<path stroke="#ff9b92" d="M17 14h1" />
<path stroke="#ff7a5f" d="M19 14h1M16 15h1M18 15h1" />
<path stroke="#bdbdb5" d="M14 15h1" />
<path stroke="#7351a6" d="M12 16h1M11 17h3M16 17h1M18 17h1M24 17h1M10 18h1M17 18h1M27 20h2M27 21h1M16 22h1M20 22h2M17 23h1M17 24h1" />
</svg>