<svg xmlns="http://www.w3.org/2000/svg" viewBox="0 -0.5 40 30" shape-rendering="crispEdges">
<metadata>Made with Pixels to Svg https://codepen.io/shshaw/pen/XbxvNj</metadata>
<path stroke="#202020" d="M11 13h2M9 14h2M13 14h1M25 14h4M8 15h2M14 15h1M24 15h1M29 15h1M8 16h1M14 16h1M24 16h1M30 16h1M8 17h1M13 17h1M18 17h2M21 17h2M24 17h1M30 17h1M9 18h1M14 18h1M16 18h2M23 18h1M25 18h1M31 18h1M10 19h1M14 19h2M24 19h1M26 19h1M31 19h1M10 20h1M24 20h1M26 20h1M31 20h1M10 21h1M25 21h2M30 21h1M11 22h1M16 22h1M30 22h1M11 23h1M14 23h1M21 23h1M29 23h1M12 24h2M15 24h1M20 24h1M25 24h2M29 24h1M16 25h1M24 25h1M27 25h2M17 26h2M22 26h2M19 27h3" />
<path stroke="#525252" d="M11 14h1M12 15h1M26 15h1M28 15h1M10 16h1M12 16h1M26 16h1M28 16h1M10 17h1M12 17h1M25 17h2M28 17h1M10 18h2M27 18h3M15 20h1M14 21h1M14 22h1M22 22h1M25 22h1M12 23h1M15 23h1M21 24h1" />
<path stroke="#bdb58c" d="M12 14h1M10 15h2M13 15h1M25 15h1M27 15h1M9 16h1M11 16h1M13 16h1M25 16h1M27 16h1M29 16h1M9 17h1M11 17h1M27 17h1M29 17h1M21 18h2M26 18h1M30 18h1M16 19h1M20 19h4M27 19h4M16 20h6M23 20h1M27 20h2M30 20h1M17 21h2M20 21h3M24 21h1M28 21h1M17 22h1M19 22h2M28 22h2M19 23h1M23 23h1" />
<path stroke="#948c6b" d="M12 18h2M18 18h2M11 19h3M17 19h1M12 20h3M22 20h1M29 20h1M11 21h1M13 21h1M19 21h1M23 21h1M29 21h1M13 22h1M21 22h1M23 22h1M26 22h1M13 23h1M16 23h2M20 23h1M25 23h3M16 24h4M23 24h2M27 24h2M17 25h7M20 26h2" />
<path stroke="#736b4a" d="M20 18h1M18 19h2M11 20h1M12 21h1M16 21h1M27 21h1M12 22h1M18 22h1M24 22h1M27 22h1M18 23h1M24 23h1M28 23h1M19 26h1" />
<path stroke="#ffffff" d="M15 21h1M15 22h1M22 23h1M22 24h1" />
</svg>