<svg xmlns="http://www.w3.org/2000/svg" viewBox="0 -0.5 40 30" shape-rendering="crispEdges">
<metadata>Made with Pixels to Svg https://codepen.io/shshaw/pen/XbxvNj</metadata>
<path stroke="#202020" d="M21 6h2M20 7h1M23 7h1M19 8h1M22 8h2M19 9h1M21 9h1M18 10h1M22 10h1M14 11h4M23 11h1M13 12h1M24 12h1M12 13h1M14 13h4M25 13h2M12 14h1M14 14h1M17 14h1M22 14h2M27 14h1M12 15h1M15 15h1M18 15h1M22 15h1M24 15h3M28 15h1M13 16h2M18 16h1M22 16h1M26 16h1M29 16h1M18 17h1M22 17h1M26 17h1M29 17h1M17 18h1M22 18h1M27 18h1M29 18h1M17 19h1M23 19h1M28 19h1M16 20h1M23 20h1M15 21h1M24 21h1M15 22h1M24 22h1M15 23h1M24 23h1M15 24h1M24 24h1M16 25h1M23 25h1M17 26h3M22 26h1M20 27h2" />
<path stroke="#6b523a" d="M21 7h2M20 8h1M17 20h1M22 20h1M16 21h1M20 21h1M23 21h1M17 22h1M19 22h2M23 22h1M18 23h1M20 23h2M23 23h1M16 24h1M20 24h1M22 25h1M21 26h1" />
<path stroke="#ce735a" d="M21 8h1M22 11h1M15 12h2M18 13h1M23 13h1M19 14h1M26 14h1M28 18h1M17 24h1" />
<path stroke="#ad5a52" d="M20 9h1M22 12h1M21 13h1M18 14h1M20 14h1M24 14h1M13 15h1M19 15h1M27 16h1M21 25h1" />
<path stroke="#ef8c63" d="M19 10h2M18 11h4M14 12h1M18 12h4M23 12h1M13 13h1M19 13h2M24 13h1M13 14h1M25 14h1M14 15h1M27 15h1M28 16h1M27 17h2" />
<path stroke="#525252" d="M21 10h1M17 12h1M22 13h1" />
<path stroke="#a5733a" d="M21 14h1M18 18h1M21 18h1M20 19h1" />
<path stroke="#ffa508" d="M20 15h1M17 21h1M21 22h1M17 23h1M19 23h1M21 24h1M20 25h1" />
<path stroke="#c59452" d="M21 15h1M19 16h1M21 16h1M19 17h3M19 18h2M18 19h2M19 20h1" />
<path stroke="#ffbd63" d="M20 16h1M18 24h2M19 25h1" />
<path stroke="#524231" d="M21 19h2M18 20h1M20 20h2M18 21h2M21 21h2M16 22h1M18 22h1M22 22h1M16 23h1M22 23h1M22 24h2M17 25h2M20 26h1" />
</svg>