<svg xmlns="http://www.w3.org/2000/svg" viewBox="0 -0.5 40 30" shape-rendering="crispEdges">
<metadata>Made with Pixels to Svg https://codepen.io/shshaw/pen/XbxvNj</metadata>
<path stroke="#202020" d="M20 5h3M19 6h1M23 6h1M18 7h1M22 7h2M18 8h1M21 8h1M17 9h1M22 9h1M14 10h3M23 10h1M12 11h2M23 11h1M11 12h1M14 12h3M24 12h1M10 13h1M13 13h1M16 13h1M25 13h2M10 14h1M13 14h1M17 14h1M22 14h2M27 14h2M10 15h1M14 15h1M17 15h1M22 15h1M24 15h2M29 15h1M11 16h1M13 16h1M17 16h1M22 16h1M26 16h1M30 16h1M12 17h2M16 17h1M23 17h1M27 17h1M30 17h1M16 18h1M23 18h1M26 18h1M30 18h1M15 19h1M24 19h1M27 19h1M29 19h1M14 20h1M24 20h1M27 20h2M14 21h1M25 21h1M14 22h1M25 22h1M14 23h1M25 23h1M15 24h1M25 24h1M15 25h1M18 25h1M24 25h1M16 26h2M19 26h2M23 26h1M21 27h2" />
<path stroke="#6b523a" d="M20 6h3M19 7h2M19 8h1M17 19h1M19 19h2M23 19h1M15 20h1M17 20h1M19 20h2M23 20h1M15 21h3M19 21h1M22 21h1M24 21h1M17 22h1M19 22h4M24 22h1M19 23h2M22 23h1M24 23h1M16 24h1M23 24h1M17 25h1M20 25h1M23 25h1M22 26h1" />
<path stroke="#ef8c63" d="M21 7h1M20 8h1M18 9h1M21 9h1M17 10h6M14 11h1M17 11h4M22 11h1M12 12h2M18 12h2M22 12h2M11 13h2M18 13h1M23 13h1M11 14h2M24 14h2M12 15h2M26 15h3M12 16h1M28 16h2M28 17h2M27 18h3M28 19h1M20 21h1" />
<path stroke="#525252" d="M19 9h1M16 11h1M22 13h1" />
<path stroke="#ce735a" d="M20 9h1M15 11h1M17 12h1M24 13h1M16 23h1" />
<path stroke="#ad5a52" d="M21 11h1M20 12h1M17 13h1M19 13h1M26 14h1M11 15h1M27 16h1M16 19h1M21 24h1" />
<path stroke="#a5733a" d="M21 12h1M21 13h1M18 14h1M18 16h1M17 17h1M22 17h1M20 18h1" />
<path stroke="#ffa508" d="M20 13h1M21 20h1M16 22h1M18 22h1M21 23h1M20 24h1" />
<path stroke="#c59452" d="M19 14h1M21 14h1M19 15h3M19 16h3M18 17h4M17 18h3M18 19h1" />
<path stroke="#ffbd63" d="M20 14h1M16 20h1M21 21h1M17 23h2M18 24h2" />
<path stroke="#f79cce" d="M18 15h1" />
<path stroke="#524231" d="M21 18h2M21 19h2M18 20h1M22 20h1M18 21h1M23 21h1M15 22h1M23 22h1M15 23h1M23 23h1M17 24h1M22 24h1M24 24h1M16 25h1M19 25h1M21 25h2M21 26h1" />
</svg>