<svg xmlns="http://www.w3.org/2000/svg" viewBox="0 -0.5 40 30" shape-rendering="crispEdges">
<metadata>Made with Pixels to Svg https://codepen.io/shshaw/pen/XbxvNj</metadata>
<path stroke="#202020" d="M13 8h2M12 9h1M15 9h1M18 9h2M24 9h4M11 10h1M16 10h2M20 10h1M22 10h2M28 10h2M11 11h1M21 11h1M24 11h2M30 11h1M11 12h1M31 12h1M10 13h1M19 13h1M31 13h1M9 14h1M32 14h1M8 15h1M27 15h1M32 15h1M7 16h1M27 16h1M33 16h1M6 17h1M33 17h1M6 18h1M33 18h1M6 19h1M33 19h1M6 20h1M13 20h3M33 20h1M7 21h1M13 21h3M33 21h1M8 22h1M27 22h1M32 22h1M9 23h3M16 23h2M25 23h2M28 23h1M32 23h1M12 24h4M18 24h1M25 24h1M29 24h3M18 25h1M25 25h1M19 26h1M22 26h1M25 26h1M20 27h2M23 27h2" />
<path stroke="#737373" d="M13 9h2M14 10h2M18 10h2M24 10h2M14 11h2M17 11h4M23 11h1M26 11h1M28 11h1M12 12h1M16 12h3M24 12h2M28 12h1M30 12h1M16 13h2M22 13h1M29 13h1M17 14h2M23 14h2M27 14h1M30 14h1M23 15h2M26 15h1M28 15h1M8 16h4M24 16h1M26 16h1M28 16h1M9 17h5M27 17h1M7 18h1M9 18h8M7 19h1M9 19h4M16 19h2M9 20h3M17 20h1M32 20h1M8 21h4M17 21h1M29 21h3M9 22h4M16 22h1M20 22h2M24 22h2M12 23h4M21 23h3M30 23h1M19 24h2M24 24h1M21 25h4" />
<path stroke="#c54231" d="M12 10h1M12 11h1" />
<path stroke="#525252" d="M13 10h1M26 10h2M13 11h1M16 11h1M22 11h1M27 11h1M29 11h1M13 12h1M15 12h1M19 12h1M21 12h3M26 12h2M29 12h1M11 13h2M21 13h1M23 13h6M30 13h1M16 14h1M20 14h1M22 14h1M25 14h2M28 14h2M31 14h1M9 15h3M17 15h3M22 15h1M25 15h1M29 15h2M12 16h2M23 16h1M25 16h1M29 16h2M7 17h2M14 17h3M24 17h3M28 17h2M8 18h1M17 18h1M26 18h3M8 19h1M13 19h3M18 19h1M21 19h1M29 19h1M32 19h1M7 20h2M12 20h1M16 20h1M18 20h1M20 20h1M26 20h1M29 20h3M12 21h1M16 21h1M18 21h1M20 21h2M24 21h3M28 21h1M32 21h1M13 22h3M17 22h1M19 22h1M22 22h2M26 22h1M28 22h4M18 23h3M24 23h1M21 24h3M20 25h1M20 26h1M24 26h1" />
<path stroke="#d6c55a" d="M14 12h1M13 13h3M10 14h6M13 15h4M20 15h2M15 16h7M31 16h1M17 17h4M22 17h2M30 17h3M18 18h8M29 18h4M19 19h2M22 19h6M30 19h2M21 20h5M22 21h2" />
<path stroke="#e64a31" d="M20 12h1M18 13h1M20 13h1M19 14h1" />
<path stroke="#ad9c4a" d="M21 14h1M12 15h1M31 15h1M14 16h1M22 16h1M32 16h1M21 17h1M28 19h1M19 20h1M27 20h2M19 21h1M27 21h1M18 22h1" />
<path stroke="#ffffff" d="M29 23h1M31 23h1M19 25h1M21 26h1M23 26h1" />
</svg>