<svg xmlns="http://www.w3.org/2000/svg" viewBox="0 -0.5 40 30" shape-rendering="crispEdges">
<metadata>Made with Pixels to Svg https://codepen.io/shshaw/pen/XbxvNj</metadata>
<path stroke="#202020" d="M19 8h4M17 9h2M23 9h2M16 10h1M25 10h1M15 11h1M26 11h1M14 12h1M26 12h1M14 13h1M27 13h1M13 14h1M27 14h1M10 15h2M13 15h1M17 15h1M27 15h1M9 16h1M12 16h2M21 16h1M28 16h1M9 17h1M28 17h1M9 18h2M28 18h1M11 19h1M13 19h2M28 19h1M11 20h2M15 20h1M28 20h1M14 21h1M28 21h1M13 22h1M28 22h1M13 23h1M28 23h1M14 24h1M29 24h1M15 25h2M27 25h2M17 26h2M24 26h3M19 27h5" />
<path stroke="#fff794" d="M19 9h3M17 10h4M23 10h1M16 11h1M19 11h1M22 11h3M23 12h3M15 13h1M24 13h2M14 14h1M24 14h2M14 15h1M24 15h2M14 16h1M24 16h1M14 17h1M24 17h1M24 18h1M23 19h1M23 20h1M22 21h1" />
<path stroke="#c5bd6b" d="M22 9h1M21 10h2M24 10h1M20 11h2M25 11h1M15 12h1M17 12h2M20 12h1M22 13h1M26 13h1M26 14h1M26 15h1M25 16h3M25 17h1M27 17h1M15 18h1M23 18h1M25 18h1M27 18h1M15 19h1M24 19h2M27 19h1M24 20h1" />
<path stroke="#525252" d="M17 11h2M16 12h1M19 12h1M21 12h2M16 13h1M20 13h1M23 13h1M15 14h1M23 14h1M15 15h1M23 15h1M15 16h1M23 16h1M13 17h1M15 17h2M23 17h1M14 18h1M16 18h3M22 18h1M16 19h1M18 19h5M26 19h1M22 20h1M25 20h1M27 20h1M21 21h1M23 21h2M22 22h1M27 22h1M22 23h1M26 23h1M22 24h1M25 24h1M23 25h2" />
<path stroke="#947bce" d="M17 13h3M21 13h1M16 14h1M19 14h4M19 15h2M16 16h1M19 16h1M11 17h2M17 17h1M20 17h1M11 18h3M20 18h2M24 22h2M25 23h1M24 24h1" />
<path stroke="#ffffff" d="M17 14h1M18 15h1M21 15h1M17 16h1M22 16h1M21 17h1M26 21h2M26 22h1" />
<path stroke="#c5a5ce" d="M18 14h1M16 15h1M22 15h1M11 16h1M18 16h1M20 16h1M10 17h1M22 17h1M12 19h1M23 22h1M24 23h1M23 24h1" />
<path stroke="#735a94" d="M10 16h1M23 23h1" />
<path stroke="#e68ca5" d="M18 17h2M19 18h1" />
<path stroke="#9c944a" d="M26 17h1M26 18h1" />
<path stroke="#f76352" d="M17 19h1M17 20h2M20 20h2M15 21h2M20 21h1M15 22h3M19 22h1M14 23h4M19 23h1M21 23h1M15 24h2M18 24h2M21 24h1M18 25h2M21 25h2M20 26h4" />
<path stroke="#ffde63" d="M16 20h1M19 20h1M17 21h3M20 22h2" />
<path stroke="#bdbdbd" d="M26 20h1M25 21h1" />
<path stroke="#b55242" d="M14 22h1M18 22h1M18 23h1M20 23h1M27 23h1M17 24h1M20 24h1M26 24h3M17 25h1M20 25h1M25 25h2M19 26h1" />
</svg>