<svg xmlns="http://www.w3.org/2000/svg" viewBox="0 -0.5 40 30" shape-rendering="crispEdges">
<metadata>Made with Pixels to Svg https://codepen.io/shshaw/pen/XbxvNj</metadata>
<path stroke="#202020" d="M10 3h3M9 4h1M13 4h1M9 5h1M13 5h1M22 5h2M9 6h1M14 6h1M20 6h2M23 6h1M9 7h1M13 7h1M15 7h2M19 7h1M23 7h1M9 8h1M17 8h2M23 8h1M8 9h1M24 9h3M6 10h2M27 10h2M5 11h1M29 11h1M5 12h1M12 12h1M30 12h1M6 13h1M9 13h2M16 13h2M30 13h1M32 13h1M6 14h1M9 14h1M11 14h1M16 14h1M31 14h1M33 14h1M6 15h1M8 15h1M11 15h1M33 15h1M6 16h2M10 16h1M33 16h1M9 17h1M33 17h1M9 18h1M13 18h1M32 18h1M10 19h1M12 19h1M14 19h1M32 19h1M10 20h1M12 20h1M15 20h1M30 20h2M11 21h1M14 21h1M28 21h2M13 22h1M17 22h2M20 22h1M27 22h1M14 23h3M19 23h1M21 23h2M28 23h1M23 24h1M28 24h1M22 25h1M24 25h2M27 25h1M22 26h2M25 26h1M27 26h1M26 27h1" />
<path stroke="#7b7b7b" d="M10 4h1M12 4h1M10 7h1M12 7h1M11 8h1M7 14h2" />
<path stroke="#ffffff" d="M11 4h1M10 5h1M17 14h1M21 22h1M23 23h1M23 25h1M26 26h1" />
<path stroke="#bdbdb5" d="M11 5h2M10 6h3M11 7h1M8 13h1M18 13h1M7 15h1M14 22h1" />
<path stroke="#525252" d="M13 6h1M10 8h1M12 8h1M11 9h2M23 9h1M11 10h1M22 10h1M7 11h1M10 11h2M22 11h1M8 12h3M18 12h1M23 12h2M7 13h1M12 13h1M23 13h1M25 13h1M23 14h1M25 14h1M20 15h3M26 15h1M31 15h1M13 16h1M15 16h1M19 16h1M21 16h1M25 16h2M31 16h1M12 17h2M15 17h2M19 17h1M22 17h4M27 17h1M12 18h1M14 18h1M17 18h1M20 18h1M23 18h1M27 18h1M15 19h4M21 19h2M26 19h1M31 19h1M18 20h1M21 20h1M25 20h1M27 20h1M18 21h1M20 21h1M25 21h1M22 22h1M24 22h1M24 23h1M27 23h1" />
<path stroke="#f7de3a" d="M22 6h1M21 7h1M14 8h3M19 8h2M9 9h2M13 9h1M15 9h6M12 10h1M16 10h4M8 11h2M12 11h2M15 11h4M13 12h4M14 13h2M14 14h1M12 15h1M14 15h1M11 16h1M14 16h1M17 16h1M10 17h2M18 17h1M10 18h2M18 18h2M19 19h2M23 19h2M20 20h1M22 20h3M22 21h2" />
<path stroke="#9c8431" d="M14 7h1M22 7h1M21 8h1M21 9h1M8 10h3M19 11h1M11 12h1M19 12h1M22 12h1M13 13h1M19 13h1M12 14h1M18 14h1M22 14h1M13 15h1M15 15h3M18 16h1M17 17h1M15 21h3M15 22h1M26 25h1" />
<path stroke="#c5ad31" d="M20 7h1M13 8h1M22 8h1M22 9h1M20 10h2M23 10h4M6 11h1M20 11h2M23 11h6M6 12h2M17 12h1M20 12h2M25 12h5M11 13h1M20 13h3M27 13h3M13 14h1M15 14h1M19 14h3M29 14h2M32 14h1M18 15h2M29 15h2M32 15h1M12 16h1M16 16h1M30 16h1M32 16h1M14 17h1M26 17h1M30 17h3M24 18h3M30 18h2M25 19h1M30 19h1M16 20h2M26 20h1M29 20h1M21 21h1M24 21h1M26 21h2M16 22h1M23 22h1M25 22h2M25 23h2M24 24h4" />
<path stroke="#f76352" d="M14 9h1M13 10h3M14 11h1" />
<path stroke="#b5845a" d="M24 13h1M24 14h1M23 15h3M24 16h1" />
<path stroke="#8c6b4a" d="M26 13h1M26 14h3M27 15h2M20 16h1M22 16h2M27 16h3M20 17h2M28 17h2M15 18h2M21 18h2M28 18h2M27 19h3M28 20h1" />
<path stroke="#ffef8c" d="M11 19h1M11 20h1M19 20h1M19 21h1M19 22h1" />
</svg>