<svg xmlns="http://www.w3.org/2000/svg" viewBox="0 -0.5 40 30" shape-rendering="crispEdges">
<metadata>Made with Pixels to Svg https://codepen.io/shshaw/pen/XbxvNj</metadata>
<path stroke="#202020" d="M15 2h5M22 2h4M14 3h1M20 3h2M26 3h2M13 4h1M28 4h1M8 5h4M13 5h1M29 5h1M6 6h2M12 6h2M30 6h3M5 7h1M10 7h2M33 7h1M5 8h1M9 8h1M12 8h2M34 8h1M4 9h1M9 9h1M14 9h1M34 9h1M4 10h1M8 10h1M15 10h1M34 10h1M4 11h1M8 11h1M14 11h1M34 11h1M4 12h1M8 12h2M15 12h1M34 12h1M4 13h1M10 13h1M14 13h1M31 13h3M5 14h1M11 14h1M13 14h1M29 14h2M5 15h1M11 15h2M29 15h1M5 16h1M30 16h1M6 17h1M30 17h1M33 17h2M6 18h1M31 18h2M34 18h1M7 19h1M33 19h1M7 20h1M33 20h1M7 21h1M31 21h2M8 22h3M31 22h1M11 23h1M30 23h1M12 24h1M28 24h2M12 25h1M16 25h1M23 25h1M27 25h1M13 26h3M17 26h2M22 26h1M24 26h3M19 27h3" />
<path stroke="#b5b5b5" d="M15 3h1M14 4h1M19 4h1M15 5h1M18 6h1M14 7h1M15 8h1M25 8h2M31 8h3M16 9h1M25 9h1M30 9h2M33 9h1M29 10h2M30 11h1M30 12h2M33 12h1M16 13h1M29 13h1M22 15h1M18 19h1M32 20h1M16 21h1M24 21h1M30 22h1M27 23h1M15 24h2M13 25h3M17 25h2M21 25h1M26 25h1M19 26h3" />
<path stroke="#ffffff" d="M16 3h4M22 3h4M16 4h3M20 4h8M16 5h13M20 6h1M23 6h7M25 7h8M27 8h4M29 9h1M32 9h1M31 10h3M15 11h2M19 11h1M31 11h3M16 12h4M32 12h1M17 13h1M19 13h5M17 14h1M19 14h1M21 14h1M23 14h4M21 15h1M24 15h1M21 16h1M33 18h1M29 19h4M28 20h4M18 21h3M25 21h5M16 22h8M25 22h2M29 22h1M16 23h9M18 24h3M22 24h3" />
<path stroke="#d6d6d6" d="M15 4h1M14 5h1M14 6h2M15 7h1M29 11h1M28 12h2M24 13h1M30 13h1M22 14h1M30 18h1M17 19h1M17 20h3M27 20h1M17 21h1M30 21h1M24 22h1M27 22h2M25 23h2M29 23h1M17 24h1M21 24h1M25 24h3M19 25h2M22 25h1M24 25h2" />
<path stroke="#947352" d="M8 6h4M6 7h4M12 7h1M6 8h2M5 9h3M5 10h3M5 11h3M18 11h1M6 12h2M22 12h1M6 13h1M8 13h1M6 14h3M6 15h3M7 16h3M8 17h4M8 18h4M9 19h3M10 20h3M8 21h1M11 21h4M12 22h2M12 23h3" />
<path stroke="#525252" d="M16 6h2M19 6h1M21 6h2M13 7h1M16 7h1M18 7h1M20 7h1M22 7h3M14 8h1M16 8h1M20 8h1M22 8h1M24 8h1M15 9h1M17 9h1M26 9h3M16 10h1M25 10h1M28 10h1M28 11h1M27 12h1M7 13h1M15 13h1M28 13h1M16 14h1M18 14h1M27 14h2M16 15h2M19 15h2M25 15h2M11 16h2M18 16h1M20 16h1M22 16h1M12 17h3M18 17h1M21 17h1M15 18h1M17 18h2M29 18h1M16 19h1M19 19h1M28 19h1M8 20h1M16 20h1M20 20h1M25 20h2M15 21h1M21 21h3M14 22h2M15 23h1M28 23h1M13 24h2" />
<path stroke="#ffa529" d="M17 7h1M17 8h2M20 9h1M22 9h1M17 10h1M19 10h5M26 10h2M20 11h2M24 11h3M20 12h1M24 12h3M14 14h2M14 15h2M27 15h1M16 16h2M23 16h1M25 16h2M16 17h2M19 17h2M22 17h4M19 18h4M24 18h4M20 19h1M23 19h2M26 19h1" />
<path stroke="#ff6b73" d="M19 7h1M21 7h1M23 8h1M8 9h1M9 13h1M9 14h2M10 15h1M14 16h2M27 16h2M15 17h1M26 17h3M13 18h2M23 18h1M13 19h3M21 19h2M25 19h1M14 20h2" />
<path stroke="#d6313a" d="M8 8h1M19 8h1M21 8h1M23 9h1M9 15h1M10 16h1M19 16h1M29 16h1M29 17h1M12 18h1M12 19h1M13 20h1M21 20h2" />
<path stroke="#ffd65a" d="M18 9h1M22 11h2M23 12h1" />
<path stroke="#ce7b19" d="M19 9h1M21 9h1M24 9h1M24 10h1M17 11h1M27 11h1M25 13h3M13 15h1M18 15h1M28 15h1M13 16h1M16 18h1M28 18h1M23 20h1" />
<path stroke="#c59c5a" d="M18 10h1M21 12h1" />
<path stroke="#7b5a3a" d="M5 12h1M5 13h1M6 16h1M7 17h1M7 18h1M8 19h1M9 20h1M9 21h2M11 22h1" />
<path stroke="#737373" d="M18 13h1M20 14h1M23 15h1M24 16h1M27 19h1M24 20h1" />
</svg>