<svg xmlns="http://www.w3.org/2000/svg" viewBox="0 -0.5 40 30" shape-rendering="crispEdges">
<metadata>Made with Pixels to Svg https://codepen.io/shshaw/pen/XbxvNj</metadata>
<path stroke="#202020" d="M20 7h2M18 8h2M22 8h1M17 9h1M19 9h1M22 9h1M14 10h3M18 10h1M20 10h2M29 10h1M12 11h2M18 11h1M28 11h1M30 11h1M11 12h1M14 12h2M19 12h1M27 12h1M30 12h1M10 13h1M12 13h2M16 13h1M20 13h3M27 13h1M30 13h1M9 14h1M11 14h1M16 14h1M23 14h2M26 14h1M30 14h1M8 15h1M12 15h1M15 15h1M25 15h1M30 15h1M7 16h1M13 16h2M31 16h1M7 17h1M13 17h1M31 17h1M7 18h1M13 18h1M30 18h1M8 19h1M12 19h1M31 19h1M9 20h3M27 20h2M31 20h1M11 21h1M26 21h1M29 21h2M11 22h1M17 22h1M26 22h1M11 23h1M26 23h1M12 24h1M27 24h1M13 25h4M24 25h1M27 25h1M17 26h3M23 26h1M25 26h2M20 27h3" />
<path stroke="#bda542" d="M20 8h1M30 16h1M30 17h1M29 18h1M19 19h1M29 19h2M20 20h1M29 20h2M12 21h1M20 21h1M19 23h1" />
<path stroke="#f7f729" d="M21 8h1M20 9h1M9 15h3M8 16h5M8 17h1M12 17h1M8 18h1M12 18h1M18 18h3M17 19h1M20 19h2M16 20h1M21 20h1M16 21h1M21 21h1M12 22h1M15 22h2M20 22h1M12 23h7M13 24h3" />
<path stroke="#6384de" d="M18 9h1M16 12h1M29 13h1M29 14h1M24 15h1M28 15h2M24 16h2M28 16h2M25 17h2M28 17h2M25 18h4M25 19h4M24 20h3M24 21h2M25 22h1M20 23h3M18 24h5M17 25h6M20 26h2" />
<path stroke="#ffffff" d="M21 9h1M9 17h3M9 18h3M9 19h3M18 20h2M19 21h1" />
<path stroke="#4263ad" d="M17 10h1M17 11h1M17 14h1M20 14h1M16 15h1M27 17h1M23 22h2M23 25h1M22 26h1" />
<path stroke="#8cadf7" d="M14 11h3M29 11h1M12 12h2M17 12h2M28 12h2M11 13h1M17 13h3M28 13h1M18 14h2M21 14h2M27 14h2M17 15h7M27 15h1M15 16h9M27 16h1M14 17h11M14 18h4M21 18h4M13 19h4M22 19h3M12 20h4M22 20h2M13 21h3M22 21h2M13 22h2M21 22h2" />
<path stroke="#525252" d="M10 14h1M26 15h1M26 16h1M25 23h1M16 24h2M23 24h1" />
<path stroke="#847331" d="M18 19h1M17 20h1M19 22h1" />
<path stroke="#f7738c" d="M17 21h1" />
<path stroke="#d63a52" d="M18 21h1M18 22h1" />
<path stroke="#a5d6ff" d="M23 23h2M24 24h2" />
<path stroke="#d6e6f7" d="M26 24h1M25 25h2" />
</svg>