<svg xmlns="http://www.w3.org/2000/svg" viewBox="0 -0.5 40 30" shape-rendering="crispEdges">
<metadata>Made with Pixels to Svg https://codepen.io/shshaw/pen/XbxvNj</metadata>
<path stroke="#202020" d="M11 7h2M16 7h2M10 8h1M13 8h3M18 8h1M9 9h2M19 9h1M8 10h1M19 10h1M9 11h1M19 11h1M9 12h1M18 12h1M10 13h1M14 13h1M18 13h1M22 13h3M9 14h1M14 14h1M18 14h1M20 14h2M25 14h2M9 15h1M19 15h1M27 15h1M10 16h1M27 16h1M11 17h4M28 17h1M15 18h1M28 18h1M15 19h1M28 19h1M15 20h1M28 20h2M14 21h1M30 21h1M12 22h2M26 22h1M31 22h1M11 23h1M25 23h1M27 23h4M10 24h1M14 24h2M26 24h1M11 25h3M16 25h3M27 25h1M20 26h2M28 26h1M22 27h6" />
<path stroke="#4a6bbd" d="M11 8h2M11 9h1M14 9h1M14 10h1M16 10h1M12 11h1M16 11h1M10 12h1M17 12h1M16 14h1M14 15h2M17 15h1M13 16h1M17 16h2M17 17h1M25 22h1M27 22h1M12 23h1M13 24h1" />
<path stroke="#63bdff" d="M16 8h2M15 9h4M9 10h1M12 10h2M15 10h1M17 10h2M10 11h2M13 11h3M17 11h1M11 12h4M11 13h3M16 13h1M10 14h3M15 14h1M10 15h4M11 16h1M19 19h1M19 20h2M19 21h3M20 22h1M24 24h1M23 25h4M25 26h3" />
<path stroke="#525252" d="M12 9h2M11 10h1M13 14h1M18 15h1M19 16h1M19 17h1M20 18h1M20 19h1M27 19h1M21 20h1M25 20h2M22 21h3M14 22h1M14 23h1M20 23h1M23 23h2M19 24h1M25 24h1M19 25h1" />
<path stroke="#4a8cde" d="M10 10h1M18 11h1M15 12h2M17 13h1M17 14h1M12 16h1M18 17h1M18 18h2M18 19h1M27 20h1M25 21h5M21 22h4M28 22h3M13 23h1M21 23h2M11 24h2M21 24h3" />
<path stroke="#ffffff" d="M15 13h1" />
<path stroke="#bdbdb5" d="M22 14h3M20 15h2M23 15h3M21 16h3M25 16h2M20 17h1M22 17h5M21 18h1M23 18h2M27 18h1M21 19h1M25 19h2M22 20h3" />
<path stroke="#cebd73" d="M16 15h1M14 16h3M15 17h2M16 18h2M15 21h1M15 23h1M16 24h1M20 25h1" />
<path stroke="#848484" d="M22 15h1M26 15h1M20 16h1M24 16h1M21 17h1M27 17h1M22 18h1M25 18h2M22 19h3" />
<path stroke="#efe69c" d="M16 19h2M16 20h2M16 21h3M15 22h4M16 23h4M17 24h2M21 25h1M22 26h2" />
<path stroke="#9cbdbd" d="M18 20h1M19 22h1M20 24h1M22 25h1M24 26h1" />
</svg>