<svg xmlns="http://www.w3.org/2000/svg" viewBox="0 -0.5 40 30" shape-rendering="crispEdges">
<metadata>Made with Pixels to Svg https://codepen.io/shshaw/pen/XbxvNj</metadata>
<path stroke="#202020" d="M17 11h3M15 12h2M20 12h2M24 12h3M14 13h1M22 13h2M27 13h2M11 14h3M29 14h1M10 15h1M19 15h1M29 15h1M9 16h1M30 16h1M9 17h1M31 17h1M10 18h1M12 18h2M29 18h2M11 19h1M14 19h1M29 19h1M13 20h1M28 20h1M12 21h1M28 21h1M11 22h1M28 22h1M11 23h1M26 23h2M10 24h1M25 24h1M10 25h1M17 25h1M25 25h1M10 26h1M16 26h1M18 26h3M24 26h1M11 27h1M15 27h1M21 27h3M12 28h3" />
<path stroke="#efb5bd" d="M17 12h3M15 13h7M16 14h3" />
<path stroke="#ef949c" d="M24 13h2M15 14h1M21 14h2M24 14h3M14 15h2M17 15h2M21 15h2M24 15h3M15 16h8M25 16h1M16 17h1M21 17h1M24 18h1M24 19h3M23 20h5M22 21h1M25 21h3M21 22h3M23 23h1M20 24h1M23 24h2M20 25h1M23 25h2" />
<path stroke="#bd6b73" d="M26 13h1M27 14h2M11 15h2M28 15h1M10 16h3M14 16h1M23 16h1M26 16h2M29 16h1M10 17h4M15 17h1M17 17h1M20 17h1M22 17h2M25 17h3M29 17h2M21 18h3M27 18h2M22 19h2M28 19h1M22 20h1M24 22h1M18 23h2M25 23h1M18 25h1M21 25h2M23 26h1" />
<path stroke="#525252" d="M14 14h1M20 14h1M23 14h1M13 15h1M23 15h1M27 15h1M13 16h1M24 16h1M28 16h1M14 17h1M18 17h2M24 17h1M28 17h1M15 18h6M25 18h2M15 19h1M17 19h1M20 19h1M27 19h1M18 21h1M23 21h2M17 22h1M25 22h1M27 22h1M17 23h1M20 23h1M24 23h1M16 24h1M19 24h1M16 25h1M19 25h1" />
<path stroke="#ffffff" d="M19 14h1M26 22h1M21 26h2" />
<path stroke="#b54a5a" d="M16 15h1M20 15h1M16 19h1M18 19h2M14 20h1M16 20h4M15 21h1M14 22h1M13 23h1M13 24h1M15 26h1" />
<path stroke="#cec5c5" d="M11 18h1" />
<path stroke="#c5bd6b" d="M14 18h1M21 19h1M20 20h2M19 21h2M18 22h1M17 24h2" />
<path stroke="#e6635a" d="M15 20h1M13 21h2M16 21h2M12 22h2M15 22h2M12 23h1M14 23h3M11 24h2M14 24h2M11 25h5M11 26h4M12 27h3" />
<path stroke="#f7e69c" d="M21 21h1M19 22h2M21 23h2M21 24h2" />
</svg>