<svg xmlns="http://www.w3.org/2000/svg" viewBox="0 -0.5 40 30" shape-rendering="crispEdges">
<metadata>Made with Pixels to Svg https://codepen.io/shshaw/pen/XbxvNj</metadata>
<path stroke="#202020" d="M20 7h2M15 8h1M17 8h2M20 8h1M22 8h2M12 9h3M16 9h1M19 9h1M23 9h2M12 10h1M24 10h1M12 11h1M24 11h1M13 12h1M25 12h1M13 13h1M25 13h1M13 14h1M26 14h1M14 15h1M25 15h1M14 16h1M26 16h1M13 17h1M27 17h1M13 18h1M25 18h3M13 19h1M25 19h1M12 20h1M26 20h1M12 21h1M26 21h1M11 22h1M26 22h1M11 23h1M26 23h1M11 24h3M27 24h1M14 25h1M24 25h1M27 25h1M15 26h2M19 26h1M22 26h2M25 26h3M17 27h2M20 27h2" />
<path stroke="#e68c42" d="M21 8h1M15 9h1M17 9h1M22 9h1M15 10h4M23 10h1M16 11h2M19 11h1M18 12h1M20 12h1M17 13h4M22 13h3M18 14h2M23 14h3M16 16h1M19 17h1" />
<path stroke="#ffffff" d="M18 9h1M20 11h1M19 12h1M23 12h1M16 15h1M17 16h3M17 17h2M20 17h1" />
<path stroke="#f7e629" d="M20 9h1M20 10h2M21 11h2M20 19h1M18 20h1M16 25h1M18 26h1M21 26h1" />
<path stroke="#ce5a19" d="M21 9h1M19 10h1M22 10h1M18 11h1M17 12h1M21 12h2M24 12h1M21 13h1M20 14h1M22 14h1M23 15h2" />
<path stroke="#7bc54a" d="M13 10h1M13 11h1M14 12h1M23 16h1M24 17h3M15 19h1M13 20h2M21 20h1M21 21h2M22 22h2" />
<path stroke="#525252" d="M14 10h1M15 11h1M23 11h1M16 12h1M14 13h1M17 14h1M21 14h1M18 15h3M22 16h1M15 17h1M22 17h1M15 18h1M23 18h1M14 19h1M21 19h1M23 19h1M20 20h1M22 20h1M13 21h1M20 21h1M23 21h1M21 22h1M24 22h1M22 23h2M24 24h1M15 25h1M23 25h1M17 26h1" />
<path stroke="#4a9c3a" d="M14 11h1M15 12h1M22 15h1M24 16h2M12 22h2M12 23h1M24 23h2M25 24h2M25 25h2" />
<path stroke="#427b3a" d="M15 13h2M23 17h1M24 18h1M16 19h1M15 20h1M14 21h1M25 22h1M13 23h1" />
<path stroke="#cef79c" d="M14 14h2M21 16h1M14 17h1M21 17h1M14 18h1M22 18h1M22 19h1M15 21h1M17 21h2M14 22h1M16 22h4M14 23h1M16 23h5M17 24h3M22 24h1M21 25h1" />
<path stroke="#94bd4a" d="M16 14h1M15 15h1M17 15h1M21 15h1M15 16h1M24 19h1M16 20h2M23 20h3M16 21h1M24 21h2M15 22h1M15 23h1M21 23h1M14 24h1M16 24h1M21 24h1M17 25h2M20 25h1" />
<path stroke="#ced6de" d="M20 16h1M16 17h1M17 18h3" />
<path stroke="#848484" d="M16 18h1M20 18h1M18 19h2" />
<path stroke="#b5d63a" d="M21 18h1M19 21h1M20 22h1M15 24h1M20 24h1M23 24h1M19 25h1M22 25h1" />
<path stroke="#b5a55a" d="M17 19h1M19 20h1M20 26h1" />
</svg>