<svg xmlns="http://www.w3.org/2000/svg" viewBox="0 -0.5 40 30" shape-rendering="crispEdges">
<metadata>Made with Pixels to Svg https://codepen.io/shshaw/pen/XbxvNj</metadata>
<path stroke="#202020" d="M14 7h1M13 8h1M15 8h1M19 8h1M13 9h1M15 9h1M18 9h1M20 9h1M13 10h1M16 10h3M21 10h1M13 11h1M18 11h1M21 11h1M13 12h1M22 12h1M28 12h1M30 12h2M12 13h1M22 13h1M27 13h1M29 13h1M31 13h1M12 14h1M22 14h1M27 14h1M32 14h1M11 15h1M23 15h1M26 15h1M30 15h2M9 16h2M17 16h1M23 16h1M26 16h1M29 16h1M8 17h1M11 17h1M23 17h1M26 17h1M28 17h1M9 18h2M12 18h1M22 18h1M26 18h1M29 18h1M13 19h2M21 19h1M27 19h1M29 19h1M15 20h2M22 20h1M27 20h1M29 20h1M17 21h1M23 21h1M26 21h1M29 21h1M16 22h1M23 22h3M28 22h1M16 23h1M27 23h1M15 24h1M24 24h3M14 25h1M23 25h1M15 26h2M20 26h3M17 27h3" />
<path stroke="#4a5a7b" d="M14 8h1M19 9h1M15 10h1M20 10h1M15 11h1M17 11h1M20 11h1M14 12h1M18 12h1M20 12h2M16 13h6M28 13h1M30 13h1M13 14h1M19 14h3M28 14h3M15 15h1M21 15h2M28 15h2M12 16h1M14 16h2M21 16h2M27 16h1M13 17h2M21 17h2M27 17h1M21 18h1M27 18h1M20 19h1M28 19h1M18 21h2M19 22h2M19 23h1M21 23h3M21 24h3M19 25h1M22 25h1" />
<path stroke="#c5c5c5" d="M14 9h1M14 10h1M19 10h1M19 11h1M19 12h1" />
<path stroke="#b44a39" d="M14 11h1M17 12h1M13 13h1M15 13h1M18 14h1M9 17h2M20 17h1M16 18h1M19 18h1M17 19h2M17 23h1M15 25h2" />
<path stroke="#394162" d="M16 11h1M31 14h1M12 15h1M16 15h5M27 15h1M11 16h1M20 16h1M28 16h1M28 18h1M17 20h3M28 20h1M20 21h1M27 21h2M17 22h2M21 22h2M26 22h2M18 23h1M20 23h1M24 23h3M16 24h3M20 24h1M17 25h2M20 25h2M19 26h1" />
<path stroke="#ee524a" d="M15 12h2M14 13h1M14 14h4M14 15h1M12 17h1M15 17h1M17 17h1M13 18h3M20 18h1M15 19h2M19 19h1M20 20h2M21 21h2M19 24h1M17 26h2" />
<path stroke="#cdbd31" d="M13 15h1M13 16h1" />
<path stroke="#ffee31" d="M16 16h1M18 16h2M16 17h1M18 17h2M17 18h2" />
</svg>