<svg xmlns="http://www.w3.org/2000/svg" viewBox="0 -0.5 40 30" shape-rendering="crispEdges">
<metadata>Made with Pixels to Svg https://codepen.io/shshaw/pen/XbxvNj</metadata>
<path stroke="#202020" d="M11 6h2M16 6h2M10 7h1M12 7h1M15 7h1M18 7h1M24 7h2M10 8h1M13 8h1M16 8h1M19 8h1M24 8h1M26 8h1M11 9h1M14 9h2M19 9h1M21 9h1M24 9h1M26 9h1M11 10h1M20 10h1M22 10h2M27 10h1M10 11h1M27 11h1M30 11h2M10 12h1M26 12h1M30 12h1M32 12h1M10 13h1M26 13h1M30 13h1M33 13h1M11 14h1M27 14h1M29 14h1M33 14h1M10 15h1M17 15h1M28 15h1M32 15h1M10 16h1M32 16h1M11 17h1M33 17h1M10 18h1M33 18h1M9 19h1M31 19h2M9 20h1M30 20h1M10 21h3M30 21h1M12 22h1M29 22h1M13 23h1M16 23h2M28 23h1M12 24h1M16 24h1M18 24h3M26 24h2M13 25h3M21 25h1M25 25h1M21 26h1M25 26h1M22 27h3" />
<path stroke="#c55a5a" d="M11 7h1M11 8h2M12 9h2M12 10h2M21 10h1M11 11h2M21 11h1M11 12h2M20 12h2M31 12h1M11 13h1M20 13h1M31 13h2M26 14h1M30 14h3M26 15h1M29 15h3M21 16h1M25 16h2M28 16h4M22 17h4M27 17h6M20 18h1M27 18h6M18 19h1M28 19h3M18 20h1M29 20h1M16 21h2M29 21h1M14 24h2M24 25h1" />
<path stroke="#f7de31" d="M16 7h2M17 8h1M16 9h3M15 10h3M15 11h4M14 12h3M14 13h2M15 14h1M14 19h1M19 19h2M24 19h2M15 20h1M19 20h2M18 21h2M27 21h1M16 22h3M24 22h4M25 23h1M27 23h1M25 24h1" />
<path stroke="#f7a531" d="M18 8h1M14 11h1M17 12h1" />
<path stroke="#f76b31" d="M25 8h1M25 9h1M18 10h1M24 10h3M19 11h1M23 11h4M18 12h2M23 12h3M13 13h1M16 13h4M22 13h4M13 14h2M16 14h3M21 14h5M14 15h3M21 15h5M22 16h3M16 20h2M15 21h1M23 25h1" />
<path stroke="#525252" d="M14 10h1M19 10h1M13 11h1M20 11h1M22 11h1M13 12h1M22 12h1M12 13h1M21 13h1M12 14h1M19 14h2M11 15h1M13 15h1M19 15h2M27 15h1M12 16h1M14 16h5M20 16h1M27 16h1M13 17h1M19 17h3M26 17h1M12 18h3M18 18h2M22 18h5M13 19h1M15 19h3M23 19h1M27 19h1M12 20h1M14 20h1M21 20h3M26 20h3M14 21h1M20 21h1M23 21h4M28 21h1M13 22h1M15 22h1M19 22h1M23 22h1M14 23h2M19 23h1M24 23h1M23 24h2M22 25h1M23 26h1" />
<path stroke="#bda542" d="M12 15h1M11 18h1M21 18h1M10 19h3M21 19h2M11 20h1M28 22h1M18 23h1M26 23h1" />
<path stroke="#ffffff" d="M18 15h1M22 26h1M24 26h1" />
<path stroke="#73736b" d="M11 16h1M12 17h1M26 19h1M10 20h1M24 20h2" />
<path stroke="#ce7b7b" d="M13 16h1M19 16h1M15 17h2M18 17h1M17 18h1M13 20h1M13 21h1M14 22h1M23 23h1M21 24h2" />
<path stroke="#ff9c8c" d="M14 17h1M17 17h1M15 18h2M21 21h2M20 22h3M20 23h3" />
<path stroke="#bdbdbd" d="M13 24h1" />
</svg>