<svg xmlns="http://www.w3.org/2000/svg" viewBox="0 -0.5 40 30" shape-rendering="crispEdges">
<metadata>Made with Pixels to Svg https://codepen.io/shshaw/pen/XbxvNj</metadata>
<path stroke="#202020" d="M17 9h1M16 10h1M18 10h1M23 10h1M16 11h1M19 11h2M22 11h1M24 11h1M16 12h1M21 12h1M24 12h1M17 13h1M24 13h1M16 14h1M23 14h1M15 15h1M23 15h1M14 16h1M16 16h1M24 16h1M13 17h1M16 17h1M20 17h2M24 17h1M12 18h2M19 18h1M25 18h1M11 19h1M25 19h1M11 20h1M26 20h1M11 21h1M27 21h1M12 22h2M27 22h1M14 23h1M28 23h1M13 24h1M28 24h1M14 25h5M27 25h1M19 26h2M24 26h3M21 27h3" />
<path stroke="#f7ef73" d="M17 10h1M17 11h2M23 11h1M17 12h1M19 12h2M22 12h2M19 13h1M22 13h1M18 14h1M21 14h1M16 15h7M15 16h1M17 16h6M15 17h1M17 17h3M22 17h2M16 18h3M20 18h3M17 19h4M14 21h1M14 22h2M15 23h2M17 24h3M21 26h2" />
<path stroke="#525252" d="M18 12h1M17 14h1M22 14h1M14 19h1M16 19h1M21 19h1M14 20h1M17 20h4M24 20h1M13 21h1M15 21h2M22 21h2M25 21h2M17 22h5M24 22h1M17 23h3M23 23h1M15 24h1M23 24h1M22 25h1M24 25h1" />
<path stroke="#ad8442" d="M18 13h1M21 13h1M23 13h1M19 14h2M15 20h1M16 22h1M22 22h1M16 24h1M21 25h1M23 25h1" />
<path stroke="#e6bd4a" d="M20 13h1M23 16h1M15 18h1M15 19h1M23 19h1M16 20h1M21 20h1M25 20h1M17 21h5M24 21h1M23 22h1M20 23h3M14 24h1M20 24h3M19 25h2M23 26h1" />
<path stroke="#f7737b" d="M14 17h1M14 18h1M23 18h2M22 19h1M24 19h1M22 20h2" />
<path stroke="#9c9cbd" d="M12 19h1M12 20h2M25 22h2M24 23h3M24 24h2" />
<path stroke="#73737b" d="M13 19h1M12 21h1M27 23h1M26 24h2M25 25h2" />
</svg>