<svg xmlns="http://www.w3.org/2000/svg" viewBox="0 -0.5 40 30" shape-rendering="crispEdges">
<metadata>Made with Pixels to Svg https://codepen.io/shshaw/pen/XbxvNj</metadata>
<path stroke="#202020" d="M17 1h1M16 2h1M18 2h1M10 3h2M16 3h1M18 3h1M10 4h1M12 4h1M15 4h1M18 4h1M21 4h3M8 5h1M11 5h1M13 5h2M19 5h2M24 5h1M7 6h1M9 6h1M11 6h1M23 6h1M7 7h1M10 7h1M12 7h1M22 7h1M5 8h2M10 8h1M12 8h1M23 8h1M28 8h1M4 9h1M10 9h1M12 9h1M21 9h2M26 9h2M29 9h3M3 10h1M11 10h1M20 10h1M25 10h1M32 10h3M3 11h2M6 11h2M21 11h2M26 11h1M35 11h1M5 12h1M8 12h1M23 12h1M27 12h1M36 12h1M6 13h1M9 13h2M22 13h1M25 13h2M35 13h1M5 14h1M7 14h2M11 14h1M21 14h1M23 14h2M32 14h3M36 14h1M4 15h1M9 15h1M12 15h1M22 15h1M28 15h2M31 15h1M35 15h2M4 16h1M10 16h2M21 16h1M23 16h1M25 16h1M27 16h1M30 16h1M3 17h1M20 17h1M24 17h1M26 17h1M32 17h1M3 18h1M21 18h2M29 18h1M31 18h1M33 18h1M3 19h1M6 19h2M11 19h2M23 19h2M28 19h1M30 19h1M34 19h1M3 20h1M5 20h1M8 20h1M10 20h1M12 20h1M25 20h3M35 20h1M3 21h1M5 21h1M9 21h1M13 21h1M35 21h1M4 22h1M12 22h1M22 22h2M36 22h1M12 23h1M22 23h1M24 23h1M30 23h2M36 23h1M11 24h1M17 24h1M23 24h1M25 24h1M27 24h1M29 24h1M32 24h2M36 24h1M11 25h2M14 25h1M16 25h1M18 25h1M23 25h1M26 25h1M28 25h1M34 25h1M37 25h1M13 26h1M15 26h3M23 26h1M35 26h1M37 26h1M17 27h1M19 27h1M21 27h1M23 27h1M35 27h1M37 27h1M18 28h1M20 28h1M22 28h1M36 28h2" />
<path stroke="#ffeecd" d="M17 2h1M17 3h1M11 4h1M16 4h2M12 5h1M16 5h3M21 5h3M12 6h1M16 6h2M20 6h3M20 7h2M19 8h4M5 9h2M19 9h2M4 10h1M6 10h3M5 11h1M8 11h2M19 11h2M31 11h4M9 12h2M18 12h5M30 12h3M35 12h1M11 13h1M18 13h3M29 13h6M6 14h1M17 14h3M28 14h4M35 14h1M5 15h2M16 15h2M20 15h2M27 15h1M30 15h1M5 16h2M20 16h1M26 16h1M4 17h4M4 18h6M19 18h1M32 18h1M4 19h2M8 19h3M19 19h2M22 19h1M31 19h3M4 20h1M9 20h1M18 20h4M31 20h4M4 21h1M18 21h3M30 21h5M19 22h2M28 22h8M25 23h5M32 23h4M26 24h1M28 24h1M34 24h2M35 25h2M36 26h1M36 27h1" />
<path stroke="#41414a" d="M15 5h1M13 6h1M13 7h1M11 11h1M11 12h1M12 13h1M17 13h1M13 14h4M20 14h1M13 15h1M12 16h1M11 17h1M12 18h1M20 18h1M13 19h1M21 19h1M22 20h3M14 21h1M21 21h2M15 22h1M17 22h1M13 23h1M16 23h3" />
<path stroke="#eede73" d="M8 6h1M14 6h1M9 7h1M14 7h1M18 7h1M7 8h1M13 8h1M16 8h2M9 9h1M13 9h1M15 9h2M28 9h1M10 10h1M13 10h3M17 10h2M26 10h1M28 10h1M30 10h1M12 11h3M17 11h1M27 11h1M29 11h1M12 12h3M28 12h1M13 13h1M15 13h1M27 13h1M25 14h2M8 15h1M14 15h1M23 15h2M8 16h2M13 16h3M18 16h1M10 17h1M12 17h3M16 17h1M18 17h1M15 18h3M14 19h1M16 19h1M29 19h1M13 20h3M28 20h2M23 21h5M13 22h2M16 22h1M21 23h1M12 24h1M18 24h2M21 24h2M13 25h1M15 25h1M21 25h1M18 26h1M20 26h1M22 26h1M18 27h1M20 27h1M22 27h1" />
<path stroke="#83735a" d="M15 6h1M18 6h2M8 7h1M15 7h3M19 7h1M8 8h2M14 8h2M18 8h1M7 9h2M17 9h2M5 10h1M9 10h1M12 10h1M19 10h1M27 10h1M29 10h1M31 10h1M10 11h1M18 11h1M30 11h1M15 12h3M29 12h1M33 12h2M14 13h1M21 13h1M28 13h1M12 14h1M27 14h1M7 15h1M15 15h1M18 15h2M25 15h2M7 16h1M16 16h2M19 16h1M24 16h1M8 17h2M19 17h1M10 18h2M18 18h1M18 19h1M17 20h1M30 20h1M17 21h1M28 21h2M18 22h1M21 22h1M24 22h4M14 23h2M19 23h2M13 24h4M20 24h1M19 25h2M22 25h1M19 26h1M21 26h1" />
<path stroke="#c5944a" d="M14 9h1M16 13h1M15 17h1M17 17h1M13 18h2M15 19h1M17 19h1M16 20h1M15 21h2" />
<path stroke="#ff5a39" d="M16 10h1M16 11h1" />
<path stroke="#62c5ee" d="M15 11h1" />
<path stroke="#deac41" d="M28 11h1" />
</svg>