<svg xmlns="http://www.w3.org/2000/svg" viewBox="0 -0.5 40 30" shape-rendering="crispEdges">
<metadata>Made with Pixels to Svg https://codepen.io/shshaw/pen/XbxvNj</metadata>
<path stroke="#202020" d="M19 4h2M18 5h1M20 5h1M18 6h1M20 6h1M16 7h2M19 7h1M25 7h3M15 8h1M20 8h1M22 8h3M27 8h1M9 9h1M15 9h1M21 9h1M26 9h1M8 10h1M10 10h1M14 10h1M25 10h1M7 11h1M10 11h1M14 11h1M25 11h1M7 12h1M10 12h1M14 12h1M25 12h1M6 13h1M11 13h1M13 13h1M24 13h1M6 14h1M12 14h1M23 14h1M32 14h2M6 15h1M24 15h2M31 15h1M33 15h1M6 16h1M25 16h1M30 16h1M33 16h1M6 17h1M16 17h1M25 17h1M28 17h2M32 17h1M6 18h1M10 18h2M24 18h1M26 18h2M32 18h1M6 19h2M9 19h1M12 19h1M25 19h1M31 19h1M7 20h2M13 20h1M31 20h1M14 21h1M30 21h1M13 22h1M29 22h1M13 23h1M16 23h2M27 23h2M14 24h2M18 24h3M25 24h2M21 25h1M24 25h1M20 26h1M24 26h1M21 27h3" />
<path stroke="#525252" d="M19 5h1M19 6h1M18 7h1M16 8h1M19 8h1M25 8h2M17 9h1M19 9h1M22 9h4M16 10h1M18 10h3M24 10h1M17 11h3M22 11h1M24 11h1M16 12h3M20 12h1M23 12h2M10 13h1M16 13h1M22 13h2M10 14h2M20 14h2M9 15h2M19 15h1M9 16h2M18 16h1M9 17h3M18 17h3M9 18h1M13 18h6M13 19h1M15 19h2M21 20h5M22 21h3M14 22h1M22 22h3M14 23h2M21 23h1M21 24h1M22 25h1" />
<path stroke="#4a946b" d="M17 8h2M16 9h1M18 9h1M15 10h1M21 10h3M15 11h1M20 11h1" />
<path stroke="#424242" d="M20 9h1M21 11h1M15 12h1M21 12h1M9 13h1M15 13h1M17 13h3M9 14h1M15 14h2M19 14h1M22 14h1M8 15h1M11 15h1M14 15h1M18 15h1M20 15h2M8 16h1M11 16h1M19 16h2M7 17h2M12 17h1M21 17h1M8 18h1M12 18h1M19 18h2M14 19h1M17 19h2M21 19h4M26 19h1M15 20h2M20 20h1M26 20h1M19 21h1M21 21h1M25 21h1M15 22h2M18 22h1M21 22h1M25 22h1M20 23h1M22 23h3M22 24h1M23 25h1M22 26h1" />
<path stroke="#8452b5" d="M9 10h1M8 11h2M8 12h2M7 13h2M7 14h2M7 15h1M32 15h1M7 16h1M31 16h2M30 17h2M28 18h4M27 19h4M27 20h4M20 21h1M26 21h4M19 22h2M26 22h3M25 23h2" />
<path stroke="#5ac58c" d="M17 10h1M16 11h1M23 11h1M19 12h1M22 12h1M20 13h2M15 17h1" />
<path stroke="#943131" d="M14 13h1M13 14h2M12 15h2M12 16h1M21 26h1M23 26h1" />
<path stroke="#c53131" d="M17 14h2M15 15h3M13 16h4M13 17h2M7 18h1M8 19h1M23 24h2" />
<path stroke="#b5b5b5" d="M22 15h2M21 16h2M24 16h1M22 17h3M21 18h3M20 19h1M15 21h1" />
<path stroke="#ffd63a" d="M17 16h1M17 17h1" />
<path stroke="#848484" d="M23 16h1" />
<path stroke="#e6e6e6" d="M19 19h1M14 20h1M17 20h3M16 21h3M17 22h1" />
<path stroke="#634a8c" d="M18 23h2" />
</svg>