<svg xmlns="http://www.w3.org/2000/svg" viewBox="0 -0.5 40 30" shape-rendering="crispEdges">
<metadata>Made with Pixels to Svg https://codepen.io/shshaw/pen/XbxvNj</metadata>
<path stroke="#202020" d="M21 4h1M20 5h1M22 5h1M19 6h1M23 6h1M19 7h1M23 7h1M20 8h1M22 8h1M18 9h2M22 9h1M17 10h1M23 10h1M12 11h2M16 11h1M24 11h1M11 12h1M14 12h1M16 12h1M25 12h1M10 13h1M15 13h2M25 13h1M10 14h1M26 14h2M10 15h1M27 15h3M11 16h1M30 16h1M11 17h1M31 17h1M10 18h2M31 18h1M9 19h1M30 19h1M9 20h1M30 20h1M10 21h1M29 21h1M11 22h2M29 22h2M13 23h1M31 23h1M13 24h1M31 24h1M14 25h4M29 25h2M18 26h2M24 26h5M20 27h4" />
<path stroke="#e6626a" d="M21 5h1M20 6h3M20 7h1M22 7h1M21 8h1M21 9h1" />
<path stroke="#b45a62" d="M21 7h1" />
<path stroke="#f6bd7b" d="M20 9h1M19 10h4M17 11h3M21 11h3M12 12h2M18 12h7M11 13h1M14 13h1M18 13h1M20 13h1M22 13h1M24 13h1M11 14h3M15 14h1M18 14h1M20 14h1M22 14h3M11 15h1M13 15h1M15 15h1M17 15h2M20 15h1M22 15h3M26 15h1M13 16h1M15 16h2M19 16h5M25 16h2M28 16h2M12 17h2M15 17h4M24 17h2M27 17h1M30 17h1M13 18h1M15 18h2M19 18h7M27 18h4M10 19h2M13 19h1M15 19h1M20 19h3M24 19h1M27 19h1M29 19h1M10 20h6M21 20h4M26 20h2M29 20h1M11 21h5M21 21h3M25 21h4M13 22h4M21 22h8M14 23h8M23 23h8M15 24h10M26 24h5M19 25h10M21 26h2" />
<path stroke="#cd8b5a" d="M18 10h1M20 11h1M12 13h2M23 13h1M28 17h2M23 19h1M20 20h1M17 22h1M22 23h1M14 24h1M25 24h1M18 25h1M20 26h1M23 26h1" />
<path stroke="#735239" d="M17 12h1M19 13h1M21 13h1M19 14h1M12 15h1M12 16h1M17 18h2M26 18h1M16 19h4M26 19h1M28 19h1M16 20h4M28 20h1M16 21h5M19 22h2" />
<path stroke="#ffffff" d="M17 13h1M21 14h1" />
<path stroke="#6a624a" d="M14 14h1M16 14h1M25 14h1M14 15h1M16 15h1M25 15h1M14 16h1M17 16h2M24 16h1M27 16h1M14 17h1M19 17h5M26 17h1M12 18h1M14 18h1M12 19h1M14 19h1M25 19h1M25 20h1M24 21h1" />
<path stroke="#94624a" d="M17 14h1M19 15h1M21 15h1M18 22h1" />
</svg>