<svg xmlns="http://www.w3.org/2000/svg" viewBox="0 -0.5 40 30" shape-rendering="crispEdges">
<metadata>Made with Pixels to Svg https://codepen.io/shshaw/pen/XbxvNj</metadata>
<path stroke="#202020" d="M18 4h2M17 5h1M19 5h2M14 6h3M21 6h2M24 6h2M13 7h1M23 7h1M25 7h1M12 8h1M25 8h1M12 9h1M25 9h3M7 10h3M13 10h1M27 10h1M7 11h1M10 11h1M13 11h1M26 11h1M8 12h3M13 12h1M19 12h1M26 12h1M11 13h2M16 13h2M25 13h1M12 14h1M14 14h1M26 14h1M9 15h3M13 15h1M27 15h2M8 16h1M13 16h1M29 16h1M8 17h1M14 17h1M29 17h1M8 18h2M13 18h2M30 18h2M9 19h5M21 19h1M32 19h2M12 20h1M21 20h1M34 20h1M11 21h1M22 21h1M26 21h2M33 21h1M11 22h1M23 22h7M34 22h1M11 23h1M16 23h4M25 23h6M32 23h2M12 24h1M15 24h2M20 24h1M25 24h2M28 24h2M31 24h2M13 25h3M19 25h1M27 25h1M20 26h2M23 26h1M25 26h2M21 27h2M24 27h2" />
<path stroke="#ffffff" d="M18 5h1M17 6h2M20 6h1M15 7h1M17 7h1M19 7h2M15 8h5M14 9h5M14 10h6M14 11h1M16 11h5M14 12h1M16 12h1M20 12h2M13 13h3M19 13h2M15 14h2M16 17h1M15 18h3M19 18h1M15 19h5M16 20h3" />
<path stroke="#525252" d="M19 6h1M16 7h1M24 7h1M14 8h1M20 8h2M23 8h2M19 9h1M22 9h3M20 10h1M22 10h1M24 10h2M21 11h1M24 11h1M18 12h1M23 12h1M25 12h1M18 13h1M23 13h1M13 14h1M20 14h1M22 14h1M25 14h1M12 15h1M19 15h1M21 15h1M10 16h3M14 16h1M16 16h1M18 16h1M28 16h1M10 17h1M12 17h2M15 17h1M17 17h1M19 17h1M23 17h2M10 18h1M12 18h1M18 18h1M20 18h1M22 18h2M29 18h1M14 19h1M23 19h3M28 19h4M13 20h3M23 20h1M25 20h9M12 21h5M18 21h1M20 21h2M23 21h1M25 21h1M28 21h5M12 22h11M30 22h4M12 23h4M20 23h2M31 23h1M13 24h2M22 25h1M24 25h1M22 26h1M24 26h1" />
<path stroke="#6b6b73" d="M14 7h1M13 8h1M13 9h1M20 9h2M21 10h1M26 10h1M25 11h1M24 12h1M24 13h1M23 14h2M20 15h1M22 15h5M9 16h1M15 16h1M19 16h9M9 17h1M11 17h1M18 17h1M20 17h3M25 17h4M11 18h1M21 18h1M24 18h5M22 19h1M26 19h2M22 20h1M24 20h1M24 21h1M22 23h3M21 24h4M20 25h2M23 25h1M25 25h2" />
<path stroke="#adad9c" d="M18 7h1M21 7h1M15 11h1M15 12h1M17 12h1" />
<path stroke="#c5bdb5" d="M22 7h1M22 8h1M23 10h1M22 11h2M22 12h1M21 13h2M17 14h3M21 14h1M14 15h5M17 16h1M20 19h1M19 20h2M17 21h1M19 21h1" />
<path stroke="#10bd29" d="M8 11h2" />
</svg>