<svg xmlns="http://www.w3.org/2000/svg" viewBox="0 -0.5 40 30" shape-rendering="crispEdges">
<metadata>Made with Pixels to Svg https://codepen.io/shshaw/pen/XbxvNj</metadata>
<path stroke="#202020" d="M14 7h3M12 8h2M17 8h2M11 9h1M19 9h1M27 9h2M10 10h1M20 10h1M26 10h1M29 10h1M10 11h1M20 11h1M25 11h1M30 11h1M10 12h1M20 12h1M24 12h1M30 12h1M9 13h1M20 13h4M29 13h1M8 14h1M28 14h1M7 15h1M27 15h1M8 16h2M21 16h2M26 16h1M10 17h1M17 17h1M21 17h1M23 17h1M27 17h1M10 18h1M16 18h1M22 18h1M24 18h1M27 18h1M11 19h1M23 19h1M26 19h1M10 20h1M25 20h1M11 21h3M26 21h1M14 22h1M25 22h1M14 23h1M24 23h1M15 24h1M24 24h1M16 25h3M23 25h1M19 26h2M22 26h1M21 27h1" />
<path stroke="#b4525a" d="M14 8h1M16 8h1M15 9h1M16 10h1M17 11h1M17 12h1M19 12h1M17 13h3M11 14h2M17 14h2" />
<path stroke="#e65252" d="M15 8h1M16 9h3M17 10h3M18 11h2M18 12h1M9 14h2M8 15h8M10 16h3" />
<path stroke="#ffffff" d="M12 9h1M14 9h1M11 10h1M13 10h3M11 11h1M13 11h4M13 12h4M14 13h3M13 14h4M16 17h1" />
<path stroke="#dedede" d="M13 9h1M12 10h1" />
<path stroke="#f6d531" d="M27 10h1M26 11h1M25 12h1M20 14h1M19 15h3M17 16h3M14 17h1M18 17h3M13 18h3M18 18h4M12 19h5M19 19h4M14 20h3M19 20h3M16 21h2M19 21h5M18 22h2M21 22h2M20 23h4M18 24h5M19 25h4M21 26h1" />
<path stroke="#c5a429" d="M28 10h1M27 11h3M26 12h4M24 13h5M25 14h3M24 15h3M16 16h1M23 16h3M13 17h1M15 17h1M24 17h3M11 18h2M25 18h2M24 19h2M11 20h1M13 20h1M14 21h2M15 22h2M15 23h3M16 24h2" />
<path stroke="#62cd62" d="M12 11h1M11 12h1M11 13h3" />
<path stroke="#bde6bd" d="M12 12h1" />
<path stroke="#525252" d="M10 13h1M19 14h1M21 14h4M16 15h3M22 15h2M13 16h3M11 17h2M17 18h1M12 20h1M23 20h1M18 21h1M24 21h1M17 22h1M20 22h1M24 22h1M18 23h2M23 24h1" />
<path stroke="#9c8341" d="M20 16h1" />
<path stroke="#f66252" d="M17 19h2M17 20h2" />
<path stroke="#a46a31" d="M22 20h1M24 20h1M25 21h1M23 22h1" />
</svg>