<svg xmlns="http://www.w3.org/2000/svg" viewBox="0 -0.5 40 30" shape-rendering="crispEdges">
<metadata>Made with Pixels to Svg https://codepen.io/shshaw/pen/XbxvNj</metadata>
<path stroke="#202020" d="M17 7h2M16 8h1M18 8h1M16 9h1M18 9h1M28 9h2M15 10h1M18 10h1M24 10h4M30 10h1M15 11h1M18 11h1M22 11h2M31 11h1M15 12h1M18 12h2M21 12h1M31 12h1M14 13h1M20 13h1M30 13h1M13 14h1M29 14h1M12 15h1M28 15h1M12 16h1M19 16h1M27 16h1M12 17h1M24 17h1M28 17h1M12 18h1M23 18h1M25 18h1M28 18h1M13 19h1M24 19h1M27 19h1M26 20h1M25 21h1M26 22h1M25 23h1M24 24h1M15 25h3M23 25h1M18 26h3M22 26h1M21 27h1" />
<path stroke="#525252" d="M17 8h1M17 9h1M24 11h3M24 12h2M24 13h1M23 14h1M23 15h1M13 16h1M23 16h1M19 17h1M23 17h1M14 20h1M24 20h1M24 21h1M18 22h1M21 22h1M24 22h1M19 23h2M24 23h1M23 24h1" />
<path stroke="#c5a429" d="M16 10h2M29 10h1M16 11h1M28 11h3M17 12h1M27 12h4M15 13h1M25 13h5M24 14h5M18 15h1M24 15h4M17 16h1M24 16h3M25 17h3M26 18h2M14 19h1M25 19h2M15 20h2M15 21h4M16 22h2M16 23h3M16 24h3" />
<path stroke="#ffd529" d="M28 10h1M27 11h1M22 12h2M26 12h1M16 13h4M21 13h3M14 14h6M21 14h2M14 15h4M19 15h3M14 16h3M20 16h3M13 17h1M15 17h3M20 17h3M13 18h6M21 18h2M15 19h4M21 19h2M18 20h6M20 21h3M19 22h2M22 22h2M21 23h3M19 24h4M19 25h4M21 26h1" />
<path stroke="#9c8341" d="M17 11h1M20 14h1M22 15h1M14 17h1" />
<path stroke="#735229" d="M16 12h1M19 21h1" />
<path stroke="#ffffff" d="M13 15h1M18 16h1M7 19h2M11 19h2M6 20h1M9 20h2M13 20h1M5 21h1M14 21h1M4 22h1M7 22h1M15 22h1M4 23h1M15 23h1M4 24h1M15 24h1M5 25h1M14 25h1M6 26h1M13 26h1M7 27h1M12 27h1M8 28h1M11 28h1M9 29h2" />
<path stroke="#945a18" d="M18 17h1" />
<path stroke="#f66252" d="M19 18h2M19 19h2" />
<path stroke="#b47329" d="M23 19h1M23 21h1" />
<path stroke="#414141" d="M7 20h2M11 20h2M6 21h1M9 21h2M13 21h1M5 22h1M14 22h1M5 23h1M14 23h1M5 24h1M14 24h1M6 25h1M13 25h1M7 26h1M12 26h1M8 27h1M11 27h1M9 28h2" />
<path stroke="#debd62" d="M17 20h1" />
<path stroke="#a46a31" d="M25 20h1M25 22h1" />
<path stroke="#f67ba4" d="M7 21h2M11 21h2M6 22h1M9 22h2M13 22h1M6 23h1M13 23h1M6 24h1M13 24h1M7 25h1M12 25h1M8 26h4M9 27h2" />
<path stroke="#ffc5ee" d="M8 22h1M11 22h2M7 23h6M7 24h6M8 25h4" />
<path stroke="#a47310" d="M18 25h1" />
</svg>