<svg xmlns="http://www.w3.org/2000/svg" viewBox="0 -0.5 40 30" shape-rendering="crispEdges">
<metadata>Made with Pixels to Svg https://codepen.io/shshaw/pen/XbxvNj</metadata>
<path stroke="#202020" d="M20 7h2M14 8h1M20 8h1M22 8h2M13 9h1M15 9h1M20 9h1M24 9h1M13 10h1M15 10h1M21 10h1M25 10h1M12 11h1M16 11h1M21 11h1M25 11h1M12 12h1M16 12h1M19 12h3M26 12h1M12 13h1M17 13h2M26 13h1M12 14h1M16 14h1M26 14h1M13 15h1M15 15h1M20 15h1M26 15h1M14 16h1M27 16h1M14 17h1M27 17h1M14 18h1M28 18h1M15 19h1M28 19h1M15 20h1M28 20h1M13 21h2M29 21h1M9 22h4M30 22h1M8 23h1M14 23h2M30 23h1M8 24h2M11 24h3M16 24h1M29 24h1M10 25h2M16 25h1M20 25h3M27 25h2M17 26h3M22 26h1M27 26h1M23 27h4" />
<path stroke="#ffffff" d="M21 8h1M22 9h1M22 10h2M22 11h3M22 12h3M23 13h1M21 15h1M19 16h1M21 16h1M16 18h1M18 18h1M9 23h1M26 24h1M28 24h1M25 26h1" />
<path stroke="#bdbdb5" d="M14 9h1M21 9h1M23 9h1M14 10h1M24 10h1M13 11h2M13 12h3M25 12h1M13 13h4M22 13h1M24 13h2M14 14h2M23 14h2M14 15h1M20 16h1M16 20h1M18 20h2M17 22h1M19 22h1M10 24h1M23 26h1" />
<path stroke="#8c8473" d="M15 11h1M13 14h1M19 18h1M20 20h1M20 22h1" />
<path stroke="#ceb594" d="M19 13h2M17 14h3M16 15h3M16 16h2M15 17h1M22 17h1M21 18h2M26 18h1" />
<path stroke="#525252" d="M21 13h1M22 14h1M25 14h1M23 15h2M16 17h4M25 17h2M15 18h1M17 18h1M20 18h1M24 18h1M16 19h6M24 19h1M17 20h1M21 20h1M24 20h1M16 21h6M25 21h2M16 22h1M18 22h1M21 22h1M24 22h2M27 22h1M16 23h5M23 23h1M26 23h1M18 24h1M22 24h1M25 24h1M17 25h1M19 25h1M26 25h1" />
<path stroke="#a58463" d="M20 14h1M25 15h1M18 16h1M23 16h4M20 17h2M23 17h2M23 18h1M25 18h1M25 19h3M22 20h2M26 20h2M22 21h3M28 22h2M11 23h2M21 23h2M24 23h2M27 23h3M20 24h2M23 25h3M26 26h1" />
<path stroke="#846342" d="M21 14h1M19 15h1M22 15h1M15 16h1M22 16h1M27 18h1M22 19h2M25 20h1M15 21h1M27 21h2M13 22h3M22 22h2M26 22h1M10 23h1M13 23h1M17 24h1M19 24h1M23 24h2M27 24h1M18 25h1M24 26h1" />
</svg>