<svg xmlns="http://www.w3.org/2000/svg" viewBox="0 -0.5 40 30" shape-rendering="crispEdges">
<metadata>Made with Pixels to Svg https://codepen.io/shshaw/pen/XbxvNj</metadata>
<path stroke="#202020" d="M11 7h2M10 8h1M13 8h1M23 8h2M10 9h1M14 9h1M22 9h1M25 9h1M9 10h1M14 10h1M21 10h1M26 10h2M9 11h1M15 11h1M21 11h1M28 11h1M9 12h1M16 12h1M20 12h1M29 12h1M9 13h1M17 13h3M29 13h1M10 14h1M29 14h1M10 15h1M28 15h1M8 16h1M10 16h1M27 16h1M7 17h1M9 17h2M28 17h1M11 18h1M28 18h1M8 19h1M10 19h2M16 19h1M29 19h1M9 20h1M12 20h1M29 20h1M13 21h1M29 21h1M12 22h1M28 22h1M12 23h1M25 23h1M28 23h1M13 24h1M16 24h1M24 24h1M26 24h2M14 25h2M17 25h3M24 25h1M20 26h1M23 26h1M21 27h2" />
<path stroke="#947bce" d="M11 8h1M11 9h1M13 9h1M24 9h1M11 10h2M22 10h1M24 10h1M10 11h1M12 11h2M23 11h1M25 11h1M10 12h1M12 12h1M21 12h3M25 12h1M21 13h4M21 14h1M23 14h2M23 15h1M23 16h1M17 17h1M16 18h3M15 19h1" />
<path stroke="#6b5ab5" d="M12 8h1M12 9h1M23 9h1M10 10h1M13 10h1M23 10h1M11 11h1M22 11h1M24 11h1M24 12h1" />
<path stroke="#525252" d="M25 10h1M26 11h1M26 12h1M25 13h1M27 13h1M22 14h1M25 14h1M27 14h1M22 15h1M24 15h3M24 16h1M23 17h1M25 17h1M22 18h1M26 18h1M21 19h1M26 19h1M13 20h1M19 20h2M24 20h1M26 20h1M14 21h4M25 21h1M25 22h1M14 23h1M21 23h1M15 24h1M19 24h2" />
<path stroke="#94a5b5" d="M14 11h1M27 11h1M13 12h2M28 12h1M10 13h1M12 13h1M15 13h2M20 13h1M28 13h1M13 14h8M12 15h8M11 16h8M22 16h1M25 16h2M12 17h5M22 17h1M26 17h2M12 18h3M20 18h2M25 18h1M27 18h1M18 19h1M20 19h1M22 19h1M24 19h1M27 19h1M16 20h3M23 20h1M25 20h1M24 21h1M14 22h2M19 22h2M22 22h1M15 23h6M26 23h2M17 24h2M22 24h2" />
<path stroke="#ff7b94" d="M11 12h1M11 13h1M11 14h1M21 15h1M20 16h2M20 17h1" />
<path stroke="#6b7b84" d="M15 12h1M27 12h1M13 13h2M26 13h1M12 14h1M26 14h1M28 14h1M11 15h1M20 15h1M27 15h1M19 16h1M11 17h1M21 17h1M12 19h1M23 19h1M28 19h1M27 20h2M18 21h2M26 21h3M13 22h1M16 22h3M23 22h2M26 22h2M13 23h1M22 23h3M14 24h1M21 24h1M20 25h4" />
<path stroke="#ffffff" d="M18 17h2M24 17h1M15 18h1M19 18h1M23 18h2M13 19h2M19 19h1M25 19h1M14 20h2M21 20h2M20 21h4M21 22h1M21 26h2" />
<path stroke="#ffde31" d="M17 19h1" />
</svg>