<svg xmlns="http://www.w3.org/2000/svg" viewBox="0 -0.5 40 30" shape-rendering="crispEdges">
<metadata>Made with Pixels to Svg https://codepen.io/shshaw/pen/XbxvNj</metadata>
<path stroke="#202020" d="M14 6h3M18 6h3M14 7h1M17 7h1M21 7h2M15 8h1M23 8h1M13 9h2M24 9h1M31 9h1M10 10h3M24 10h3M30 10h1M32 10h1M9 11h1M23 11h1M27 11h1M30 11h1M32 11h1M10 12h2M17 12h1M22 12h1M28 12h1M30 12h1M32 12h1M12 13h3M28 13h1M30 13h1M33 13h1M12 14h1M27 14h1M29 14h1M33 14h1M11 15h1M28 15h1M33 15h1M9 16h2M33 16h1M8 17h1M33 17h1M7 18h1M33 18h1M7 19h1M12 19h1M33 19h1M8 20h1M11 20h1M13 20h1M33 20h1M9 21h2M14 21h1M32 21h1M13 22h1M32 22h1M13 23h1M32 23h1M14 24h1M17 24h3M28 24h1M32 24h1M15 25h3M20 25h2M29 25h3M23 27h4" />
<path stroke="#c5bdb5" d="M15 7h2M16 8h2M13 10h1M15 10h1M10 11h1M12 11h2M15 11h1M12 12h1M14 12h1M18 15h1M17 17h3M10 18h1M8 19h1M10 20h1M29 24h1M31 24h1M23 26h1M26 26h1" />
<path stroke="#f79429" d="M18 7h3M20 8h2M18 10h2M17 11h2M24 11h3M23 12h3M27 12h1M22 13h3M23 14h1M22 15h1M29 15h1M21 16h3M28 16h2M22 17h1M28 17h2M14 18h1M28 18h1M14 19h1M14 20h1M18 20h1M22 20h1M17 21h3M21 21h3M17 22h3M21 22h3" />
<path stroke="#525252" d="M18 8h2M15 9h1M20 9h1M23 9h1M21 10h1M19 11h1M21 11h1M21 13h1M25 13h3M13 14h1M16 14h3M21 14h2M24 14h2M14 15h2M20 15h2M23 15h2M14 16h1M16 16h5M24 16h2M27 16h1M14 17h2M21 17h1M23 17h1M26 17h2M13 18h1M15 18h2M22 18h1M25 18h1M27 18h1M9 19h2M13 19h1M17 19h3M21 19h4M27 19h2M20 20h1M27 20h1M32 20h1M27 21h1M15 22h1M24 22h4M16 23h2M19 23h3M23 23h1M28 23h1M22 24h1M27 24h1M22 25h1M27 25h1M22 26h1M27 26h1" />
<path stroke="#d66342" d="M22 8h1M22 10h2M22 11h1M18 12h1M26 12h1M15 16h1M15 19h1M26 19h1M15 20h1M19 20h1M21 20h1M25 20h2M15 21h1M25 21h1M18 23h1M22 23h1M24 24h2M24 25h2" />
<path stroke="#948473" d="M16 9h4M16 10h2M20 10h1M31 10h1M16 11h1M20 11h1M31 11h1M15 12h2M20 12h2M31 12h1M15 13h6M31 13h2M14 14h2M20 14h1M26 14h1M30 14h3M16 15h1M19 15h1M25 15h3M31 15h2M26 16h1M30 16h1M32 16h1M16 17h1M20 17h1M24 17h2M30 17h1M32 17h1M17 18h5M23 18h2M30 18h1M32 18h1M20 19h1M29 19h2M32 19h1M28 20h4M28 21h4M28 22h4M25 23h1M29 23h3M23 24h1M26 24h1" />
<path stroke="#ad5a42" d="M21 9h2M26 18h1M16 19h1M25 19h1M16 20h2M23 20h2M16 21h1M20 21h1M24 21h1M26 21h1M16 22h1M20 22h1" />
<path stroke="#ada59c" d="M14 10h1M11 11h1M14 11h1M13 12h1" />
<path stroke="#ffffff" d="M19 12h1M19 14h1M17 15h1" />
<path stroke="#7b6352" d="M12 15h2M30 15h1M11 16h3M31 16h1M9 17h5M31 17h1M8 18h2M11 18h2M29 18h1M31 18h1M11 19h1M31 19h1M9 20h1M14 22h1M14 23h2M24 23h1M26 23h2M15 24h2M20 24h2M30 24h1M23 25h1M26 25h1M24 26h2" />
</svg>