<svg xmlns="http://www.w3.org/2000/svg" viewBox="0 -0.5 40 30" shape-rendering="crispEdges">
<metadata>Made with Pixels to Svg https://codepen.io/shshaw/pen/XbxvNj</metadata>
<path stroke="#f7de63" d="M9 7h3M18 7h5M8 8h5M16 8h3M22 8h3M8 9h2M11 9h2M15 9h2M24 9h2M9 10h2M15 10h1M25 10h1M10 11h6M19 11h1M25 11h2M12 12h3M26 12h1M14 13h1M23 13h1M26 13h2M14 14h1M26 14h4M14 15h2M18 15h2M25 15h2M28 15h4M15 16h1M19 16h1M25 16h2M30 16h3M15 17h2M24 17h2M32 17h2M16 18h2M22 18h3M28 18h4M33 18h1M15 19h2M23 19h2M28 19h2M32 19h2M14 20h2M24 20h2M29 20h4M14 21h1M25 21h1M14 22h1M25 22h1M14 23h2M25 23h1M15 24h2M24 24h2M16 25h2M23 25h2M18 26h1M22 26h1M19 27h3" />
<path stroke="#202020" d="M19 8h3M17 9h2M21 9h3M16 10h2M24 10h1M16 11h1M24 11h1M15 12h1M25 12h1M15 13h1M25 13h1M15 14h1M25 14h1M16 15h1M24 15h1M16 16h1M24 16h1M17 17h1M22 17h2M18 18h2M21 18h1M17 19h2M22 19h1M16 20h1M23 20h1M15 21h1M24 21h1M15 22h1M24 22h1M16 23h1M24 23h1M17 24h2M23 24h1M18 25h1M22 25h1M19 26h3" />
<path stroke="#f79c19" d="M10 9h1M13 9h1M11 10h2M29 17h3M32 18h1M30 19h2M17 21h1M17 22h1M20 22h1M20 23h1" />
<path stroke="#f78c42" d="M19 9h2M18 10h1M24 12h1M18 13h3M24 13h1M17 16h1M18 17h1M20 17h1M19 19h3M18 20h5M19 21h1M22 21h1" />
<path stroke="#d66342" d="M19 10h1M20 12h2M21 13h2M20 14h2M24 14h1M18 16h1M19 17h1M20 18h1M17 20h1M18 21h1M23 21h1M18 22h1M22 22h2M18 23h1M22 23h2M21 24h2M20 25h1" />
<path stroke="#525252" d="M20 10h1M18 11h1M20 11h2M18 12h2M22 12h2M17 13h1M18 14h2M22 14h2M17 15h1M20 15h2M20 16h1" />
<path stroke="#736b52" d="M21 10h3M17 11h1M22 11h2M16 12h2M16 13h1M16 14h2M22 15h2M21 16h3M21 17h1M19 25h1M21 25h1" />
<path stroke="#ffffff" d="M16 21h1M20 21h2M21 22h1M17 23h1M19 23h1M19 24h2" />
<path stroke="#bdbdbd" d="M16 22h1M19 22h1M21 23h1" />
</svg>