<svg xmlns="http://www.w3.org/2000/svg" viewBox="0 -0.5 40 30" shape-rendering="crispEdges">
<metadata>Made with Pixels to Svg https://codepen.io/shshaw/pen/XbxvNj</metadata>
<path stroke="#202020" d="M8 4h3M12 4h2M8 5h1M11 5h1M13 5h1M15 5h1M9 6h1M14 6h1M16 6h1M23 6h2M26 6h3M10 7h1M17 7h1M19 7h2M22 7h1M25 7h1M28 7h1M9 8h1M17 8h2M20 8h2M27 8h1M10 9h2M26 9h1M11 10h1M25 10h1M12 11h1M26 11h1M13 12h1M23 12h3M28 12h2M13 13h1M21 13h2M26 13h2M29 13h1M12 14h1M21 14h1M25 14h1M27 14h1M30 14h1M11 15h1M16 15h1M20 15h1M24 15h2M30 15h1M11 16h1M21 16h3M29 16h1M12 17h1M28 17h1M13 18h1M28 18h1M14 19h1M28 19h1M14 20h1M28 20h1M15 21h1M28 21h1M15 22h1M18 22h1M23 22h3M29 22h1M15 23h1M17 23h1M19 23h1M22 23h1M26 23h2M29 23h1M15 24h1M17 24h1M19 24h1M22 24h1M27 24h1M29 24h1M15 25h2M19 25h1M21 25h1M27 25h2M19 26h1M21 26h1M19 27h2" />
<path stroke="#4a9c4a" d="M9 5h2M12 5h1M10 6h4M15 6h1M11 7h3M15 7h2M23 7h2M26 7h2M10 8h7M19 8h1M22 8h5M16 9h1M18 9h8M19 10h1M23 10h2M24 11h2M23 17h1" />
<path stroke="#525252" d="M14 7h1M12 9h2M15 9h1M17 9h1M16 10h1M18 10h1M20 10h3M14 11h1M19 11h1M23 11h1M17 12h1M22 12h1M19 14h1M29 14h1M26 16h1M15 17h2M27 17h1M14 18h1M24 20h1M18 21h1M17 22h1M22 22h1" />
<path stroke="#ffe694" d="M14 9h1M17 10h1M15 16h2M13 17h2M16 18h1M15 19h3M15 20h3M16 21h2" />
<path stroke="#bd7b5a" d="M12 10h1M13 11h1M16 11h1M20 11h3M14 12h3M19 12h1M14 13h5M28 13h1M13 14h3M20 14h1M26 14h1M28 14h1M12 15h3M19 15h1M27 15h3M13 16h1M19 16h2M24 16h2M28 16h1M18 17h4M24 17h3M17 18h8M26 18h2M18 19h10M19 20h4M25 20h3M19 21h3M26 21h2M20 22h2M26 22h3M20 23h2M28 23h1M20 24h1M20 25h1" />
<path stroke="#8c5252" d="M13 10h1M15 10h1M15 11h1M18 11h1M18 12h1M20 12h2M19 13h2M15 15h1M26 15h1M12 16h1M18 16h1M27 16h1M17 17h1M18 20h1M25 21h1M19 22h1M16 23h1M16 24h1M21 24h1M28 24h1M20 26h1" />
<path stroke="#debd5a" d="M14 10h1M17 11h1M14 16h1M17 16h1M15 18h1M23 20h1M22 21h3M16 22h1" />
<path stroke="#ffa53a" d="M16 14h1M18 14h1M18 15h1" />
<path stroke="#ffffff" d="M17 14h1M17 15h1" />
<path stroke="#63bd42" d="M22 17h1M25 18h1" />
</svg>