<svg xmlns="http://www.w3.org/2000/svg" viewBox="0 -0.5 40 30" shape-rendering="crispEdges">
<metadata>Made with Pixels to Svg https://codepen.io/shshaw/pen/XbxvNj</metadata>
<path stroke="#202020" d="M6 6h1M8 6h1M14 6h4M5 7h1M7 7h1M9 7h1M12 7h2M18 7h2M5 8h1M10 8h2M20 8h1M6 9h1M20 9h1M29 9h1M6 10h1M21 10h1M28 10h1M30 10h1M32 10h1M7 11h1M21 11h1M28 11h1M31 11h1M33 11h1M8 12h1M21 12h1M28 12h1M31 12h1M33 12h1M9 13h1M13 13h1M20 13h1M27 13h1M33 13h1M9 14h1M20 14h1M25 14h3M33 14h1M10 15h1M12 15h2M21 15h1M23 15h2M33 15h1M11 16h1M14 16h1M21 16h2M31 16h2M13 17h1M29 17h2M13 18h1M29 18h1M12 19h1M30 19h1M12 20h1M30 20h1M12 21h1M27 21h1M30 21h1M12 22h1M25 22h2M28 22h1M30 22h1M11 23h1M22 23h3M28 23h2M11 24h1M13 24h2M21 24h1M11 25h2M15 25h3M21 25h1M18 26h1M20 26h1M18 27h2" />
<path stroke="#ce7384" d="M6 7h1M8 7h1M15 7h2M13 8h1M29 10h1M32 11h1M25 15h2M23 16h1" />
<path stroke="#bd5a6b" d="M14 7h1M17 7h1M6 8h1M8 8h2M12 8h1M15 8h3M19 8h1M7 9h1M9 9h1M13 9h2M16 9h1M18 9h1M10 10h1M12 10h1M14 10h1M16 10h1M19 10h1M8 11h1M11 11h1M13 11h1M16 11h3M20 11h1M29 11h1M12 12h1M19 12h1M32 12h1M10 13h2M17 13h2M28 13h2M10 14h1M18 14h1M31 14h2M20 15h1M28 15h1M32 15h1M18 16h2M25 16h3M30 16h1M17 17h2M21 17h1M24 17h1M26 17h1M28 17h1M17 18h2M20 18h1M22 18h1M24 18h1M19 19h1M22 19h1M27 19h2M17 20h2M20 20h1M22 20h1M25 20h1M29 20h1M17 21h2M20 21h1M22 21h2M29 21h1M18 22h1M21 22h2M19 23h2M19 24h2M19 25h1" />
<path stroke="#525252" d="M7 8h1M8 9h1M11 9h1M8 10h1M11 10h1M9 11h1M12 11h1M30 11h1M10 12h2M15 12h1M30 12h1M12 13h1M15 13h2M30 13h1M11 14h1M16 14h1M30 14h1M14 15h1M16 15h2M27 15h1M28 16h1M16 17h1M14 18h2M15 19h2M13 20h1M16 20h1M15 21h1M26 21h1M15 22h3M23 22h1M29 22h1M12 23h3M17 23h1M15 24h4M18 25h1" />
<path stroke="#8c4252" d="M14 8h1M12 9h1M15 9h1M13 10h1M15 10h1M20 10h1M14 11h2M19 11h1M9 12h1M17 12h2M31 13h1M18 15h2M29 15h1M17 16h1M24 16h1M29 16h1M20 17h1M22 17h2M25 17h1M19 18h1M21 18h1M23 18h1M26 18h1M17 19h2M21 19h1M24 19h1M26 19h1M29 19h1M21 20h1M24 20h1M26 20h3M21 21h1M24 21h2M28 21h1M20 22h1M18 23h1M20 25h1" />
<path stroke="#a56bef" d="M18 8h1M10 9h1M17 9h1M19 9h1M9 10h1M17 10h2M10 11h1M16 12h1M20 12h1M29 12h1M19 13h1M32 13h1M17 14h1M19 14h1M28 14h2M30 15h2M20 16h1M14 17h1M19 17h1M27 17h1M16 18h1M25 18h1M27 18h2M13 19h1M20 19h1M23 19h1M25 19h1M19 20h1M23 20h1M16 21h1M19 21h1" />
<path stroke="#8c5ace" d="M7 10h1M19 22h1M24 22h1" />
<path stroke="#6b6b6b" d="M13 12h1M12 14h4M11 15h1M15 15h1M15 16h2M15 17h1M14 19h1M14 20h2M13 21h2M13 22h2M15 23h2M21 23h1M12 24h1M19 26h1" />
<path stroke="#bd946b" d="M14 12h1" />
<path stroke="#f7f729" d="M14 13h1" />
</svg>