<svg xmlns="http://www.w3.org/2000/svg" viewBox="0 -0.5 40 30" shape-rendering="crispEdges">
<metadata>Made with Pixels to Svg https://codepen.io/shshaw/pen/XbxvNj</metadata>
<path stroke="#202020" d="M18 14h5M11 15h2M16 15h2M23 15h5M10 16h1M13 16h3M28 16h2M10 17h1M30 17h3M33 18h1M10 19h1M31 19h2M9 20h1M27 20h4M9 21h1M15 21h1M27 21h1M8 22h1M26 22h1M8 23h1M24 23h2M9 24h1M23 24h1M10 25h2M15 25h2M23 25h1M12 26h3M17 26h1M22 26h1M18 27h4" />
<path stroke="#f7a6d6" d="M18 15h5M16 16h2M21 16h3M26 16h2M24 17h1M28 17h2M29 18h1M12 19h1M22 19h1M12 20h2" />
<path stroke="#deb200" d="M11 16h2M12 17h2M18 17h1M19 18h1" />
<path stroke="#525252" d="M18 16h3M25 16h1M15 17h3M21 17h1M26 17h1M17 18h1M21 18h1M26 18h1M21 19h1M27 19h1M20 20h1M20 21h1M18 24h1M17 25h1" />
<path stroke="#efaad6" d="M24 16h1" />
<path stroke="#ceaa19" d="M11 17h1" />
<path stroke="#f7e700" d="M14 17h1M14 18h3M32 18h1M13 19h1" />
<path stroke="#f4e500" d="M19 17h1M12 18h2M18 18h1" />
<path stroke="#c3af16" d="M20 17h1" />
<path stroke="#f4a6d6" d="M22 17h2M22 18h2" />
<path stroke="#c177a9" d="M25 17h1M24 18h2M28 18h1M23 19h3M22 20h3M18 21h2M22 21h2M18 22h1M23 22h1" />
<path stroke="#f7a2d6" d="M27 17h1" />
<path stroke="#675519" d="M11 18h1" />
<path stroke="#ffe700" d="M20 18h1" />
<path stroke="#ba82a5" d="M27 18h1" />
<path stroke="#f7c66b" d="M30 18h2" />
<path stroke="#f7c2e6" d="M11 19h1M10 20h2" />
<path stroke="#debe00" d="M14 19h2" />
<path stroke="#e6ca00" d="M16 19h2" />
<path stroke="#c39b7b" d="M18 19h1M19 20h1" />
<path stroke="#4a4d29" d="M19 19h1" />
<path stroke="#c077aa" d="M20 19h1M21 20h1M21 21h1M20 22h2M18 23h2M19 24h1" />
<path stroke="#89587b" d="M26 19h1" />
<path stroke="#bd75ad" d="M28 19h3M26 21h1M22 25h1" />
<path stroke="#e4c6aa" d="M14 20h1" />
<path stroke="#e6caff" d="M15 20h1" />
<path stroke="#f7d2ef" d="M16 20h2" />
<path stroke="#ffc2a5" d="M18 20h1" />
<path stroke="#a5558c" d="M25 20h1M19 22h1M22 22h1" />
<path stroke="#ce7db5" d="M26 20h1" />
<path stroke="#948452" d="M10 21h2M12 24h1" />
<path stroke="#947963" d="M12 21h1M13 22h1" />
<path stroke="#b59d76" d="M13 21h1" />
<path stroke="#fffff7" d="M14 21h1M15 22h1" />
<path stroke="#ffffff" d="M16 21h2M16 22h2M18 26h1" />
<path stroke="#c571ad" d="M24 21h1M25 22h1" />
<path stroke="#9a6089" d="M25 21h1" />
<path stroke="#c5ae6b" d="M9 22h1M12 25h3" />
<path stroke="#f7ef8c" d="M10 22h2M9 23h5M10 24h2M13 24h1" />
<path stroke="#f7e39c" d="M12 22h1" />
<path stroke="#84807b" d="M14 22h1" />
<path stroke="#423d42" d="M24 22h1" />
<path stroke="#f7eb8c" d="M14 23h1" />
<path stroke="#947f50" d="M15 23h1" />
<path stroke="#ffe7ff" d="M16 23h1" />
<path stroke="#debdcb" d="M17 23h1" />
<path stroke="#c078aa" d="M20 23h2M20 24h2M20 25h2M20 26h2" />
<path stroke="#ce79ad" d="M22 23h1M22 24h1" />
<path stroke="#8c5176" d="M23 23h1" />
<path stroke="#c5b56e" d="M14 24h2" />
<path stroke="#9c6963" d="M16 24h1" />
<path stroke="#bd9397" d="M17 24h1" />
<path stroke="#a2558c" d="M18 25h2M19 26h1" />
</svg>