<svg xmlns="http://www.w3.org/2000/svg" viewBox="0 -0.5 40 30" shape-rendering="crispEdges">
<metadata>Made with Pixels to Svg https://codepen.io/shshaw/pen/XbxvNj</metadata>
<path stroke="#202020" d="M13 5h3M12 6h1M16 6h1M20 6h3M12 7h1M17 7h3M23 7h1M29 7h1M13 8h1M23 8h1M28 8h1M30 8h1M12 9h1M23 9h1M25 9h1M28 9h1M30 9h1M12 10h1M18 10h1M22 10h1M24 10h1M26 10h2M30 10h1M11 11h1M22 11h1M24 11h1M31 11h1M34 11h2M10 12h1M22 12h1M25 12h1M31 12h1M33 12h1M35 12h1M10 13h1M22 13h1M24 13h1M32 13h1M35 13h1M11 14h1M22 14h1M24 14h1M34 14h1M10 15h1M23 15h1M33 15h1M9 16h1M34 16h1M9 17h1M34 17h1M9 18h1M29 18h1M34 18h1M10 19h1M34 19h1M9 20h1M33 20h1M9 21h1M33 21h1M9 22h1M30 22h3M10 23h1M24 23h2M29 23h1M11 24h3M23 24h1M26 24h3M14 25h4M23 25h1M18 26h1M22 26h1M19 27h3" />
<path stroke="#ad6b6b" d="M13 6h1M15 7h2M20 7h1M22 7h1M12 16h1M12 17h1M19 17h2M11 18h1M18 18h1M10 20h1M24 20h1M26 20h1M10 21h1M18 21h1M25 21h2M10 22h2M11 23h1M20 26h1" />
<path stroke="#d68484" d="M14 6h2M13 7h2M21 8h1M19 9h1M22 9h1M21 10h1M20 11h2M19 12h3M20 13h2M20 14h2M11 15h1M19 15h2M22 15h1M10 16h2M10 17h2M19 20h1M24 21h1M22 22h2M25 22h1M22 23h2M18 24h1M21 24h2M19 25h4" />
<path stroke="#ffada5" d="M21 7h1M14 8h5M20 8h1M22 8h1M13 9h5M20 9h1M16 10h1M20 10h1M21 15h1M18 16h5M13 17h1M17 17h2M21 17h2M12 18h6M19 18h4M13 19h4M18 19h4M23 19h1M20 20h2M23 20h1M22 21h1M20 22h2M18 23h4M19 24h2" />
<path stroke="#525252" d="M19 8h1M21 9h1M26 11h1M28 11h2M26 12h1M11 13h1M13 13h1M27 13h1M30 13h1M13 14h3M19 14h1M28 14h2M32 14h1M12 15h1M14 15h3M18 15h1M24 15h1M13 16h1M17 16h1M23 16h1M25 16h2M32 16h1M14 17h3M23 17h1M27 17h5M23 18h2M11 19h1M17 19h1M22 19h1M24 19h3M11 20h1M17 20h1M22 20h1M27 20h2M11 21h1M17 21h1M20 21h2M23 21h1M28 21h2M32 21h1M12 22h1M18 22h2M24 22h1M26 22h3M12 23h1M17 23h1M17 24h1M18 25h1" />
<path stroke="#cecece" d="M29 8h1M29 9h1M25 10h1M28 10h2M25 11h1M27 11h1M30 11h1M28 12h2M26 13h1M25 14h3M26 15h4M27 16h2M10 18h1M30 18h1M19 26h1M21 26h1" />
<path stroke="#ffffff" d="M18 9h1M17 10h1M19 10h1M17 11h3M18 12h1M12 13h1M17 15h1M24 16h1M28 18h1M18 20h1M25 20h1M19 21h1M27 21h1" />
<path stroke="#a59452" d="M13 10h3M16 11h1M14 13h1M19 13h1M12 14h1M16 14h2M13 15h1M14 16h3" />
<path stroke="#f7e69c" d="M12 11h4M13 12h2M16 12h1M15 13h3M12 20h1M13 21h4M13 23h4" />
<path stroke="#cebd73" d="M11 12h2M17 12h1M18 13h1M18 14h1M12 21h1M13 22h5M14 24h3" />
<path stroke="#848473" d="M15 12h1M27 12h1M30 12h1M34 12h1M25 13h1M28 13h2M31 13h1M33 13h2M30 14h2M33 14h1M25 15h1M30 15h3M29 16h3M33 16h1M24 17h3M32 17h2M25 18h3M31 18h3M12 19h1M27 19h7M13 20h4M29 20h4M30 21h2M29 22h1M26 23h3" />
</svg>