<svg xmlns="http://www.w3.org/2000/svg" viewBox="0 -0.5 40 30" shape-rendering="crispEdges">
<metadata>Made with Pixels to Svg https://codepen.io/shshaw/pen/XbxvNj</metadata>
<path stroke="#202020" d="M31 1h2M12 2h3M30 2h1M33 2h1M10 3h2M15 3h1M19 3h2M29 3h1M33 3h1M9 4h1M15 4h1M18 4h1M21 4h1M25 4h4M32 4h1M8 5h1M16 5h2M21 5h4M32 5h1M7 6h1M31 6h1M7 7h1M31 7h1M6 8h1M32 8h1M5 9h2M33 9h2M4 10h1M35 10h1M3 11h2M36 11h1M2 12h1M13 12h1M36 12h1M1 13h1M35 13h1M1 14h1M29 14h1M35 14h1M2 15h4M21 15h1M26 15h3M30 15h1M36 15h1M6 16h2M22 16h1M25 16h1M31 16h1M37 16h1M8 17h5M19 17h2M23 17h2M30 17h1M37 17h1M12 18h1M16 18h3M30 18h1M38 18h1M13 19h3M23 19h2M29 19h1M39 19h1M22 20h1M25 20h1M28 20h1M39 20h1M22 21h1M26 21h3M36 21h3M23 22h1M33 22h3M24 23h1M33 23h1M24 24h1M33 24h1M20 25h2M23 25h1M31 25h2M18 26h2M22 26h1M30 26h1M17 27h1M23 27h1M26 27h2M31 27h1M16 28h1M22 28h1M24 28h2M28 28h1M31 28h1M17 29h5M29 29h2" />
<path stroke="#ffc5de" d="M31 2h1M30 3h1M32 3h1M30 4h2M23 15h1M25 15h1M23 16h1M35 18h2M36 19h2M23 20h1M18 27h3M17 28h2M30 28h1" />
<path stroke="#ffffff" d="M32 2h1M31 3h1M15 11h1M15 12h1M11 14h2" />
<path stroke="#a4acb4" d="M12 3h3M10 4h2M19 4h2M9 5h2M12 5h4M18 5h3M25 5h2M8 6h3M12 6h2M17 6h3M22 6h3M26 6h2M8 7h1M11 7h2M14 7h5M23 7h3M27 7h1M7 8h1M9 8h4M14 8h3M21 8h2M24 8h1M29 8h1M31 8h1M7 9h1M9 9h3M13 9h3M20 9h2M23 9h1M29 9h1M31 9h1M8 10h3M12 10h3M19 10h1M22 10h3M7 11h4M12 11h1M20 11h4M6 12h1M8 12h1M10 12h2M18 12h4M5 13h1M18 13h2M6 14h1M14 14h2M17 14h1M20 14h1M7 15h1M13 15h5M19 15h2M35 15h1M10 16h5M16 16h2M33 16h4M13 17h2M32 17h2M31 18h1M31 19h2M34 19h1M27 22h1M26 23h2M26 24h1" />
<path stroke="#6a7b9c" d="M12 4h3M27 5h1M14 6h1M20 6h1M28 6h1M9 7h1M13 7h1M20 7h2M29 7h1M8 8h1M13 8h1M19 8h2M28 8h1M8 9h1M18 9h2M7 10h1M11 10h1M18 10h1M13 11h1M17 11h1M24 11h1M17 12h1M22 12h2M6 13h1M13 13h1M16 13h1M20 13h4M27 13h1M31 13h1M7 14h1M10 14h1M18 14h2M21 14h1M26 14h3M30 14h2M6 15h1M8 15h4M31 15h2M8 16h2M34 17h3M33 18h1M29 20h2M32 20h2M29 21h1M33 21h3M26 22h1M25 23h1M27 24h2M24 25h2M27 25h2M23 26h3M27 26h1M24 27h1" />
<path stroke="#c5e6ee" d="M29 4h1M28 5h4M24 14h1M24 16h1M37 20h2M25 21h1M24 22h2M29 26h1M21 27h2M28 27h1M19 28h3" />
<path stroke="#5a6a73" d="M11 5h1M11 6h1M15 6h2M10 7h1M19 7h1M17 8h2M12 9h1M20 10h2M11 11h1M18 11h2M5 12h1M28 13h1M18 15h1M15 16h1M18 16h1M15 17h1" />
<path stroke="#525252" d="M21 6h1M25 6h1M22 7h1M26 7h1M23 8h1M25 8h1M27 8h1M30 8h1M16 9h2M22 9h1M24 9h1M26 9h1M28 9h1M32 9h1M6 10h1M15 10h3M25 10h2M28 10h1M32 10h2M5 11h2M14 11h1M16 11h1M25 11h1M27 11h1M32 11h1M34 11h1M7 12h1M12 12h1M16 12h1M24 12h4M31 12h2M34 12h1M2 13h3M8 13h5M14 13h2M17 13h1M24 13h3M30 13h1M32 13h2M5 14h1M13 14h1M16 14h1M22 14h2M25 14h1M32 14h3M12 15h1M22 15h1M33 15h2M32 16h1M18 17h1M15 18h1M37 18h1M30 19h1M33 19h1M31 20h1M34 20h2M30 21h3M28 22h3M32 22h1M28 23h2M31 23h1M25 24h1M29 24h1M31 24h2M26 25h1M29 25h2M26 26h1M28 26h1M25 27h1" />
<path stroke="#fff6bd" d="M29 6h2M28 7h1M30 7h1M24 15h1M34 18h1M35 19h1M24 21h1M20 26h2M29 27h1" />
<path stroke="#008bcd" d="M26 8h1M25 9h1M27 9h1M27 10h1M34 10h1M26 11h1M33 11h1M35 11h1M14 12h1M33 12h1M35 12h1M34 13h1M31 22h1M30 23h1M32 23h1M30 24h1" />
<path stroke="#cdd5d5" d="M30 9h1M29 10h3M28 11h4M28 12h3M7 13h1M29 13h1M8 14h2M19 16h2M16 17h2M13 18h2" />
<path stroke="#7b838b" d="M5 10h1M3 12h2M9 12h1M2 14h3M31 17h1M32 18h1M38 19h1M24 20h1M36 20h1M23 21h1M30 27h1M29 28h1" />
</svg>