<svg xmlns="http://www.w3.org/2000/svg" viewBox="0 -0.5 40 30" shape-rendering="crispEdges">
<metadata>Made with Pixels to Svg https://codepen.io/shshaw/pen/XbxvNj</metadata>
<path stroke="#202020" d="M21 17h3M19 18h2M24 18h2M17 19h2M26 19h1M16 20h1M25 20h1M15 21h1M24 21h1M14 22h1M24 22h1M13 23h1M23 23h1M13 24h1M22 24h1M13 25h1M17 25h1M20 25h2M13 26h1M18 26h2M14 27h4" />
<path stroke="#ffffff" d="M21 18h2M19 19h5M18 20h2M18 21h1M15 22h3M19 22h1M14 23h5M14 24h3M16 25h1" />
<path stroke="#ceffff" d="M23 18h1M17 20h1M20 20h1M24 20h1M22 22h1M20 23h2M18 24h1M20 24h1M15 25h1" />
<path stroke="#a5c5ff" d="M24 19h2M21 20h3M16 21h2M19 21h2M23 21h1M18 22h1M23 22h1M19 23h1M19 24h1M18 25h1M16 26h1" />
<path stroke="#f7f729" d="M21 21h2M20 22h2" />
<path stroke="#849cb5" d="M22 23h1M17 24h1M21 24h1M19 25h1M17 26h1" />
<path stroke="#d66384" d="M14 25h1M15 26h1" />
<path stroke="#f78c8c" d="M14 26h1" />
</svg>