<svg xmlns="http://www.w3.org/2000/svg" viewBox="0 -0.5 40 30" shape-rendering="crispEdges">
<metadata>Made with Pixels to Svg https://codepen.io/shshaw/pen/XbxvNj</metadata>
<path stroke="#202020" d="M15 11h2M15 12h1M17 12h3M15 13h1M20 13h2M14 14h1M22 14h1M14 15h1M22 15h1M13 16h1M23 16h1M13 17h1M19 17h1M23 17h1M12 18h1M18 18h1M23 18h1M12 19h1M22 19h1M13 20h1M22 20h1M26 20h1M14 21h2M21 21h1M25 21h1M27 21h1M16 22h1M22 22h1M24 22h1M27 22h1M16 23h1M22 23h1M24 23h1M26 23h1M17 24h1M23 24h1M25 24h1M18 25h1M25 25h1M19 26h1M23 26h2M20 27h3" />
<path stroke="#ffffff" d="M16 12h1M16 13h2M16 14h1M18 17h1" />
<path stroke="#94633a" d="M18 13h1M18 14h1M16 15h2M14 17h1M21 20h1" />
<path stroke="#d6ad4a" d="M19 13h1M19 14h2M15 15h1M18 15h4M14 16h9M15 17h3M20 17h3M16 18h2M20 18h2M17 19h3M18 23h2" />
<path stroke="#b5843a" d="M15 14h1M21 14h1M22 18h1M20 19h2M17 20h4M16 21h4M20 22h2M21 23h1M18 24h3M22 24h1M24 24h1M21 25h3M20 26h1M22 26h1" />
<path stroke="#bdbdbd" d="M17 14h1M26 21h1M25 22h2M25 23h1" />
<path stroke="#ef739c" d="M13 18h1" />
<path stroke="#d64a73" d="M14 18h1M13 19h3M14 20h2M17 23h1M20 23h1M21 26h1" />
<path stroke="#525252" d="M15 18h1M19 18h1M16 19h1M16 20h1M20 21h1M17 22h3M21 24h1M19 25h2M24 25h1" />
</svg>