<svg xmlns="http://www.w3.org/2000/svg" viewBox="0 -0.5 64 64" shape-rendering="crispEdges">
<metadata>Made with Pixels to Svg https://codepen.io/shshaw/pen/XbxvNj</metadata>
<path stroke="#888868" d="M39 10h5M38 11h1M44 11h1M26 14h1M30 14h1M44 14h1M47 14h1M25 15h1M31 15h2M48 15h1M16 16h1M33 16h1M17 17h1M42 18h1M47 19h1M29 20h3M45 20h1M33 21h1M34 22h1M43 23h1M51 23h1M12 24h3M50 24h1M53 24h1M11 25h1M34 25h1M42 25h1M54 26h2M26 27h1M49 27h1M56 27h1M14 28h1M27 28h2M48 28h1M16 29h1M27 29h1M31 29h1M37 29h1M27 30h1M17 31h1M26 31h1M30 31h1M31 32h1M14 33h1M31 33h1M17 34h1M18 35h1M22 36h1" />
<path stroke="#e8e8e8" d="M39 11h1M38 12h1M43 12h3M37 13h1M43 13h4M35 14h1M45 14h2M26 15h1M30 15h1M40 15h2M46 15h2M22 16h2M31 16h2M34 16h1M37 16h5M46 16h2M21 17h1M31 17h11M46 17h2M17 18h1M19 18h1M28 18h14M45 18h3M18 19h1M27 19h1M33 19h14M18 20h1M35 20h10M19 21h6M36 21h9M21 22h3M36 22h8M36 23h7M15 24h3M29 24h1M36 24h7M12 25h6M30 25h1M36 25h6M50 25h1M52 25h1M12 26h4M36 26h6M50 26h3M36 27h1M39 27h3M50 27h3M55 27h1M40 28h2M49 28h3M28 29h1M40 29h2M49 29h5M15 30h1M29 30h1M40 30h2M48 30h4M15 31h2M47 31h3M15 32h2M46 32h2M15 33h2M45 33h2M44 34h2M43 35h2M42 36h2M42 37h1" />
<path stroke="#f8f8f8" d="M40 11h4M39 12h4M38 13h5M36 14h6M27 15h3M33 15h7M24 16h7M35 16h2M15 17h2M20 17h1M22 17h9M14 18h3M20 18h8M16 19h1M19 19h8M19 20h7M32 23h1M51 24h2M28 25h2M51 25h1M28 26h2M37 27h2M53 27h2M37 28h3M52 28h3M38 29h2" />
<path stroke="#585830" d="M45 11h1M37 12h1M46 12h1M35 13h2M47 13h1M27 14h3M33 14h2M42 14h2M22 15h3M42 15h1M45 15h1M15 16h1M20 16h2M48 16h1M14 17h1M18 17h2M13 18h1M18 18h1M13 19h1M17 19h1M29 19h3M14 20h1M17 20h1M27 20h2M32 20h2M26 21h1M34 21h1M18 22h1M25 22h1M35 22h1M15 23h3M24 23h1M35 23h1M52 23h2M24 24h1M35 24h1M43 24h1M54 24h1M24 25h1M49 25h1M54 25h1M11 26h1M25 26h1M34 26h1M49 26h1M33 27h1M31 28h2M15 29h1M29 29h2M48 29h1M17 30h1M30 30h1M37 30h1M42 30h1M47 30h1M36 31h1M46 31h1M52 31h1M14 32h1M26 32h1M45 32h1M50 32h1M26 33h1M44 33h1M49 33h1M15 34h2M25 34h1M34 34h1M43 34h1M48 34h1M25 35h1M28 35h1M36 43h1M36 44h1M38 45h1" />
<path stroke="#282828" d="M43 15h2M42 16h4M42 17h3M48 17h1M43 18h1M48 18h1M48 19h1M46 20h2M15 21h2M45 21h1M16 22h1M30 22h3M44 22h1M30 23h2M33 23h1M30 24h3M31 25h1M42 26h1M11 27h1M42 27h1M12 28h2M42 28h1M57 28h1M14 29h1M42 29h1M57 29h1M14 30h1M38 30h2M56 30h1M14 31h1M40 31h2M53 31h3M35 32h1M51 32h1M35 33h1M31 34h1M35 34h1M17 35h1M29 35h4M34 35h1M47 35h1M18 36h4M25 36h3M33 36h2M46 36h1M22 37h3M45 37h1M44 38h1M43 39h1M22 40h1M43 40h1M43 41h1M18 42h1M35 42h2M42 42h1M19 43h1M32 43h2M40 43h2M38 44h1M37 45h1M17 48h1M40 48h1M16 49h1M16 50h1M41 50h1M16 51h1M41 51h1M16 52h1M31 52h1M40 52h1M17 53h1M30 53h1M39 53h1" />
<path stroke="#c8c8b0" d="M45 17h1M44 18h1M14 19h2M28 19h1M32 19h1M15 20h2M26 20h1M34 20h1M17 21h2M25 21h1M27 21h2M35 21h1M17 22h1M19 22h2M24 22h1M26 22h1M18 23h6M25 23h1M29 23h1M18 24h6M28 24h1M18 25h6M35 25h1M53 25h1M16 26h9M35 26h1M53 26h1M12 27h14M34 27h2M15 28h12M33 28h4M55 28h2M17 29h10M32 29h5M54 29h3M16 30h1M18 30h9M28 30h1M31 30h6M52 30h4M18 31h8M27 31h3M31 31h5M50 31h2M17 32h9M27 32h4M32 32h3M48 32h2M17 33h9M27 33h4M32 33h3M47 33h2M18 34h7M26 34h5M32 34h2M46 34h2M19 35h6M26 35h2M33 35h1M45 35h2M23 36h2M44 36h2M43 37h2M42 38h2M37 43h2M37 44h1" />
<path stroke="#503018" d="M29 21h4M27 22h3M33 22h1M26 23h3M34 23h1M25 24h1M27 24h1M27 25h1M30 26h1M36 33h2M39 34h2M42 35h1M32 36h1M39 36h3M35 37h4M41 37h1M18 38h3M23 38h1M22 39h1M16 40h1M17 41h1M21 41h1M34 42h1M37 42h1M30 43h2M39 43h1M15 44h1M17 44h2M29 44h1M15 45h1M16 46h1M37 46h1M39 46h1M17 47h1M29 47h1M37 47h1M40 47h1M30 48h1M37 48h1M30 49h1M37 49h1M41 49h1M31 50h1M36 50h1M15 51h1M31 51h1M36 51h1M13 52h2M35 52h1M11 53h2M33 53h2" />
<path stroke="#906830" d="M26 24h1M33 24h2M25 25h2M32 25h2M26 26h2M31 26h3M27 27h6M29 28h2M38 33h1M36 34h1M41 34h2M35 35h3M28 36h4M35 36h4M25 37h8M17 38h1M21 38h2M24 38h11M16 39h1M19 39h3M23 39h15M42 39h1M18 40h4M23 40h17M18 41h3M22 41h21M19 42h15M38 42h4M20 43h10M16 44h1M19 44h10M30 44h1M16 45h15M17 46h13M18 47h11M18 48h11M17 49h11M17 50h11M37 50h1M40 50h1M17 51h11M37 51h4M15 52h1M17 52h12M36 52h4M13 53h4M18 53h12M35 53h4" />
<path stroke="#c09848" d="M37 34h2M38 35h4M33 37h2M39 37h1M35 38h7M17 39h2M38 39h4M17 40h1M40 40h3M38 46h1M38 47h2M29 48h1M38 48h2M28 49h2M38 49h3M28 50h3M38 50h2M28 51h3M29 52h2" />
<path stroke="#d8b868" d="M40 37h1M31 44h1M30 46h1M30 47h1" />
<path stroke="#f8d0a0" d="M34 43h2M33 44h3M31 45h6M31 46h5M31 47h4M31 48h3M31 49h4M36 49h1M33 50h3" />
<path stroke="#f0e0c8" d="M32 44h1M36 46h1M35 47h2M34 48h3M35 49h1" />
<path stroke="#e0b088" d="M32 50h1M32 51h4M32 52h3M31 53h2" />
</svg>