<svg xmlns="http://www.w3.org/2000/svg" viewBox="0 -0.5 64 64" shape-rendering="crispEdges">
<metadata>Made with Pixels to Svg https://codepen.io/shshaw/pen/XbxvNj</metadata>
<path stroke="#884060" d="M22 12h3M21 13h1M24 14h2M20 15h1M23 15h4M21 16h9M11 17h1M14 17h1M23 17h9M13 18h1M24 18h7M12 19h1M25 19h9M11 20h1M25 20h10M19 21h2M25 21h10M18 22h1M21 22h1M23 22h1M25 22h11M17 23h1M21 23h14M36 23h1M17 24h1M20 24h17M18 25h1M20 25h7M28 25h9M9 26h1M20 26h6M27 26h11M19 27h7M27 27h11M18 28h9M28 28h1M33 28h5M15 29h1M17 29h1M19 29h9M34 29h4M12 30h1M14 30h1M16 30h1M18 30h6M9 31h2M13 31h1M15 31h6M28 31h1M32 31h2M35 31h1M9 32h10M29 32h7M43 32h1M10 33h7M28 33h7M10 34h5M29 34h5M45 34h1M10 35h4M46 35h3M11 36h2M48 36h1M11 37h1M14 37h1M49 37h1M8 38h2M12 38h2M48 38h1M7 39h1M12 39h1M14 39h1M47 39h3M7 40h1M13 40h1M15 40h1M47 40h3M11 41h2M14 41h1M16 41h1M46 41h5M11 42h5M38 42h3M45 42h6M10 43h5M16 43h1M18 43h1M44 43h8M8 44h10M42 44h1M45 44h7M8 45h11M20 45h1M42 45h10M7 46h1M9 46h11M21 46h1M40 46h13M7 47h16M36 47h1M40 47h13M7 48h9M19 48h4M35 48h18M56 48h1M6 49h8M21 49h2M34 49h6M44 49h10M56 49h1M6 50h7M14 50h4M35 50h4M45 50h9M55 50h2M6 51h6M13 51h6M36 51h2M45 51h9M55 51h2" />
<path stroke="#d090a8" d="M22 13h3M12 17h2M16 17h3M11 18h2M15 18h1M18 18h2M34 18h2M11 19h1M14 19h1M18 19h2M34 19h2M13 20h2M17 20h2M12 21h6M12 22h1M14 22h3M19 22h2M13 23h1M15 23h1M18 23h2M12 24h1M14 24h1M18 24h1M13 25h1M8 28h2M8 29h2M29 29h4M8 30h2M28 30h6M22 32h1M24 32h1M19 33h7M18 34h3M24 34h3M17 35h3M25 35h3M16 36h3M24 36h1M26 36h3M16 37h3M23 37h1M25 37h4M17 38h3M22 38h1M24 38h4M8 39h3M17 39h8M26 39h1M28 39h1M8 40h3M18 40h6M25 40h1M27 40h1M7 41h4M20 41h3M24 41h1M26 41h1M7 42h3M23 42h1M7 43h2M38 43h3M38 44h4M38 45h3" />
<path stroke="#602840" d="M25 13h1M20 14h1M26 14h1M17 15h2M27 15h1M12 16h1M15 16h2M30 16h2M32 17h1M34 17h2M10 18h1M31 18h1M36 18h1M37 19h1M37 20h1M10 21h1M10 22h1M22 22h1M24 22h1M9 23h1M37 23h1M9 24h1M27 25h1M8 26h1M18 26h1M26 26h1M38 26h1M26 27h1M7 28h1M27 28h1M24 30h1M37 30h1M23 31h1M40 31h1M8 32h1M20 32h1M41 32h1M44 32h3M18 33h1M47 33h1M16 34h1M44 34h1M48 34h1M9 35h1M14 35h1M49 35h1M47 36h1M10 38h1M6 41h1M6 42h1M6 43h1M37 43h1M41 43h1M36 44h1M44 44h1M54 45h1M6 46h1M8 46h1M35 46h1M55 46h1M16 48h3M53 48h1M57 48h1M5 49h1M14 49h7M54 49h1M13 50h1M19 50h3M12 51h1M20 51h2" />
<path stroke="#f8e000" d="M39 13h4M38 14h6M38 15h1M41 15h4M42 16h2M41 20h3M40 21h5M40 22h5M40 23h6M48 23h3M41 24h11M45 25h8M46 26h4M52 26h1M6 27h2M46 27h3M3 28h4M46 28h3M2 29h5M45 29h5M1 30h6M45 30h8M1 31h5M45 31h8M2 32h4M47 32h7M2 33h3M48 33h6M49 34h3M55 34h3M50 35h3M55 35h4M50 36h9M50 37h9M50 38h9M51 39h2M57 39h1M51 40h1M5 41h1M1 42h2M4 42h2M1 43h5M0 44h7M0 45h2M5 45h2M27 46h3M24 47h8M24 48h7M32 48h1M24 49h6M31 49h1M33 49h1M25 50h4M30 50h1M32 50h1" />
<path stroke="#b06888" d="M21 14h3M21 15h2M17 16h4M15 17h1M19 17h4M14 18h1M20 18h4M13 19h1M20 19h5M36 19h1M12 20h1M19 20h6M35 20h2M11 21h1M18 21h1M21 21h4M35 21h2M11 22h1M13 22h1M17 22h1M10 23h3M14 23h1M16 23h1M20 23h1M10 24h2M13 24h1M15 24h2M19 24h1M10 25h3M14 25h4M19 25h1M10 26h8M19 26h1M9 27h10M10 28h8M10 29h5M16 29h1M18 29h1M28 29h1M33 29h1M10 30h2M13 30h1M15 30h1M17 30h1M11 31h2M14 31h1M24 31h3M29 31h3M36 31h2M21 32h1M23 32h1M25 32h1M27 32h2M36 32h5M26 33h2M35 33h8M44 33h3M17 34h1M27 34h2M34 34h10M46 34h2M15 35h2M28 35h18M14 36h2M29 36h18M13 37h1M15 37h1M29 37h19M14 38h3M28 38h20M11 39h1M13 39h1M15 39h2M25 39h1M27 39h1M29 39h18M11 40h2M14 40h1M16 40h2M24 40h1M26 40h1M28 40h19M13 41h1M15 41h1M17 41h3M23 41h1M25 41h1M27 41h19M10 42h1M16 42h7M24 42h14M41 42h4M9 43h1M15 43h1M17 43h1M19 43h18M43 43h1M18 44h18M37 44h1M19 45h1M21 45h15M37 45h1M41 45h1M20 46h1M22 46h4M31 46h4M36 46h4M54 46h1M23 47h1M33 47h3M37 47h3M54 47h2M34 48h1M54 48h2M55 49h1" />
<path stroke="#101010" d="M19 15h1M28 15h2M13 16h1M32 18h2M10 19h1M37 21h1M36 22h1M35 23h1M37 24h1M9 25h1M37 25h1M8 27h1M38 27h1M29 28h4M38 28h1M7 29h1M38 29h1M7 30h1M25 30h3M34 30h3M8 31h1M21 31h2M27 31h1M34 31h1M38 31h2M19 32h1M26 32h1M42 32h1M9 33h1M17 33h1M43 33h1M9 34h1M15 34h1M10 36h1M13 36h1M49 36h1M10 37h1M12 37h1M48 37h1M11 38h1M49 38h1M50 39h1M50 40h1M51 41h1M51 42h1M42 43h1M52 43h1M7 44h1M43 44h1M52 44h1M7 45h1M36 45h1M52 45h2M53 46h1M6 47h1M53 47h1M56 47h1M6 48h1M57 49h1M5 50h1M18 50h1M54 50h1M57 50h1M5 51h1M19 51h1M54 51h1M57 51h1" />
<path stroke="#e0c838" d="M39 15h2M39 16h3M44 16h1M40 17h4M39 18h3M39 19h4M39 22h1M39 23h1M39 24h2M40 25h4M41 26h2M45 26h1M50 26h2M49 27h4M2 28h1M49 28h3M1 29h1M50 29h2M44 30h1M6 31h2M44 31h1M1 32h1M6 32h2M5 33h3M54 33h3M3 34h3M52 34h3M53 35h2M53 39h4M5 40h2M52 40h6M52 41h5M52 42h5M0 43h1M2 45h3M0 46h6M26 46h1M30 46h1M1 47h5M32 47h1M3 48h3M23 48h1M31 48h1M33 48h1M3 49h2M23 49h1M30 49h1M32 49h1M40 49h4M22 50h3M29 50h1M31 50h1M33 50h2M39 50h6M22 51h14M38 51h7" />
<path stroke="#e8a8c0" d="M16 18h2M15 19h3M15 20h2M21 34h3M20 35h5M19 36h5M25 36h1M19 37h4M24 37h1M20 38h2M23 38h1" />
</svg>