<svg xmlns="http://www.w3.org/2000/svg" viewBox="0 -0.5 64 64" shape-rendering="crispEdges">
<metadata>Made with Pixels to Svg https://codepen.io/shshaw/pen/XbxvNj</metadata>
<path stroke="#a07030" d="M26 14h1M25 15h1M27 15h1M28 16h1M24 17h1M28 17h1M28 18h2M28 19h3M23 20h1M28 20h3M27 21h5M26 22h7M22 23h1M27 23h6M27 24h7M27 25h8M21 26h1M27 26h8M50 26h1M27 27h9M46 27h1M27 28h10M41 28h1M20 29h1M26 29h11M51 29h3M25 30h10M48 30h5M26 31h8M35 31h1M45 31h8M20 32h1M26 32h6M34 32h2M41 32h11M19 33h1M21 33h1M26 33h5M32 33h19M18 34h1M22 34h1M26 34h4M31 34h19M16 35h1M23 35h1M26 35h2M29 35h21M14 36h1M24 36h1M26 36h1M28 36h21M12 37h1M23 37h2M27 37h21M10 38h1M20 38h5M26 38h21M8 39h1M16 39h3M24 39h1M30 39h17M12 40h3M24 40h3M28 40h2M34 40h12M8 41h3M24 41h1M28 41h1M30 41h4M39 41h6M23 42h2M31 42h8M43 42h2M23 43h4M32 43h11M23 44h3M34 44h9M22 45h4M35 45h7M22 46h6M36 46h5M23 47h4M36 47h1M38 47h2M24 48h3M25 49h4M40 49h1M21 50h1M26 50h2M40 50h1" />
<path stroke="#684020" d="M27 14h1M28 15h1M25 16h1M27 16h1M27 17h1M24 18h1M27 18h1M24 19h1M27 19h1M27 20h1M23 21h1M23 22h1M26 23h1M33 23h1M22 24h1M26 24h1M22 25h1M26 25h1M26 26h1M51 26h3M21 27h1M26 27h1M47 27h3M54 27h1M21 28h1M26 28h1M42 28h4M52 28h2M37 29h4M49 29h2M20 30h1M35 30h2M46 30h2M53 30h1M20 31h1M25 31h1M34 31h1M43 31h2M25 32h1M32 32h2M39 32h2M52 32h1M25 33h1M31 33h1M17 34h1M25 34h1M30 34h1M50 34h2M15 35h1M25 35h1M28 35h1M13 36h1M25 36h1M27 36h1M11 37h1M25 37h2M9 38h1M25 38h1M47 38h2M7 39h1M25 39h5M6 40h1M27 40h1M30 40h4M6 41h1M25 41h1M29 41h1M34 41h5M45 41h2M7 42h1M25 42h1M30 42h1M39 42h4M9 43h1M31 43h1M43 43h2M11 44h1M26 44h1M33 44h1M13 45h1M26 45h1M34 45h1M15 46h1M35 46h1M16 47h2M21 47h2M27 47h1M37 47h1M15 48h1M23 48h1M27 48h1M38 48h1M18 49h3M39 49h1M16 50h1M28 50h1M41 50h1" />
<path stroke="#e8d0a8" d="M26 15h1M26 16h1M25 17h2M25 18h2M25 19h2M24 20h3M24 21h2M24 22h2M23 23h3M23 24h3M23 25h3M22 26h3M23 27h1M50 27h3M46 28h5M44 29h4M20 33h1M19 34h3M17 35h6M15 36h9M13 37h10M11 38h9M9 39h7M7 40h5M23 40h1M7 41h1M22 41h1M21 42h2M21 43h2M20 44h2M19 45h3M18 46h4M17 50h3" />
<path stroke="#101010" d="M29 16h1M29 17h1M30 18h1M31 19h1M31 20h1M32 21h1M33 22h1M34 24h1M35 25h1M35 26h1M36 27h1M37 28h1M54 28h1M54 29h1M53 31h1M51 33h1M50 35h1M49 36h1M48 37h1M47 39h1M46 40h1M45 42h1M8 43h1M10 44h1M45 44h1M12 45h1M45 45h1M14 46h1M46 46h1M46 47h1M47 48h1M15 49h3M21 49h1M24 49h1M47 49h1M22 50h1M25 50h1M48 50h1" />
<path stroke="#d0b070" d="M26 21h1M25 26h1M22 27h1M24 27h2M53 27h1M22 28h4M51 28h1M21 29h5M41 29h3M48 29h1M21 30h4M37 30h9M21 31h4M36 31h7M21 32h4M36 32h3M22 33h3M23 34h2M24 35h1M19 39h5M15 40h8M11 41h11M23 41h1M26 41h2M8 42h13M26 42h4M10 43h11M27 43h4M12 44h8M22 44h1M27 44h6M43 44h2M14 45h5M27 45h7M42 45h3M16 46h2M28 46h7M41 46h5M28 47h8M40 47h6M28 48h10M39 48h8M29 49h10M41 49h6M20 50h1M29 50h11M42 50h6" />
<path stroke="#c0a810" d="M18 47h3M22 48h1M22 49h2M23 50h2" />
<path stroke="#f0d050" d="M16 48h6" />
</svg>