<svg xmlns="http://www.w3.org/2000/svg" viewBox="0 -0.5 64 64" shape-rendering="crispEdges">
<metadata>Made with Pixels to Svg https://codepen.io/shshaw/pen/XbxvNj</metadata>
<path stroke="#707070" d="M15 6h2M25 6h1M14 7h1M17 7h1M23 7h2M44 7h4M22 8h1M42 8h2M48 8h2M57 8h2M19 9h3M27 9h1M41 9h1M56 9h1M24 10h1M40 10h1M47 10h1M55 10h1M16 11h2M29 11h1M40 11h1M43 11h1M49 11h1M52 11h1M54 11h1M20 12h2M39 12h1M42 12h1M39 13h1M40 14h2M52 14h1" />
<path stroke="#101010" d="M26 6h2M28 7h2M14 8h1M17 8h1M30 8h1M14 9h1M18 9h1M25 9h2M31 9h1M35 9h1M50 9h1M59 9h1M15 10h1M23 10h1M28 10h1M36 10h1M44 10h3M51 10h1M59 10h1M22 11h1M37 11h1M48 11h1M53 11h1M58 11h1M18 12h2M38 12h1M50 12h1M57 12h1M38 13h1M42 13h1M51 13h1M55 13h2M42 14h1M53 14h2M50 27h1M50 28h1M50 29h1M49 31h1M48 32h1M48 33h1M47 34h1M40 35h1M43 35h4M19 36h1M40 36h1M19 37h1M40 37h3M55 37h1M19 38h1M40 38h1M55 38h1M19 39h1M40 39h1M56 39h1M56 40h1M41 41h1M5 42h1M18 42h1M41 42h1M57 42h1M5 43h1M18 43h1M57 43h1M18 44h1M42 44h1M6 45h1M42 45h1M58 45h1M6 46h1M58 46h1M0 47h1M17 47h1M0 48h1M7 48h1M17 48h1M59 48h1M0 49h1M8 49h1M0 50h1M10 50h1M16 50h1M60 50h1M0 51h1M12 51h2M16 51h1M36 51h1M60 51h1M0 52h1M15 52h2M36 52h1M0 53h1M36 53h1M61 53h1M36 54h1M61 54h1M1 56h1M19 56h1M62 56h1M1 57h1M19 57h1" />
<path stroke="#f8f8f8" d="M15 7h1M25 7h2M15 8h2M23 8h6M45 8h2M16 9h1M22 9h2M28 9h1M43 9h6M16 10h6M29 10h1M42 10h2M48 10h3M18 11h3M41 11h2M50 11h2" />
<path stroke="#d0d0d8" d="M16 7h1M27 7h1M29 8h1M44 8h1M47 8h1M15 9h1M17 9h1M24 9h1M29 9h2M42 9h1M49 9h1M57 9h2M22 10h1M30 10h2M41 10h1M56 10h3M21 11h1M30 11h2M55 11h3M40 12h2M51 12h6M40 13h2M52 13h3" />
<path stroke="#706038" d="M33 8h2M33 9h1M32 10h1M32 11h1M29 12h3M28 13h2M32 13h1M37 13h1M27 14h1M34 14h2M42 15h1M43 16h1M44 17h1M24 18h1M44 18h1M23 19h1M45 19h1M23 20h1M45 20h1M22 21h1M46 21h1M22 22h1M46 22h1M22 23h1M47 23h1M21 24h1M48 24h1M21 25h1M49 25h1M21 26h1M50 26h1M21 27h1M21 28h1M20 29h1M20 30h1M49 30h1M20 31h1M20 32h1M40 32h1M20 33h1M40 33h1M20 34h1M40 34h1M19 35h1M42 35h1M43 36h2M53 36h2M50 39h1M19 40h1M40 40h1M50 40h1M3 41h2M18 41h1M49 41h1M56 41h1M1 42h1M49 42h1M1 43h1M41 43h1M48 43h1M5 44h1M47 44h1M57 44h1M18 45h1M45 45h2M0 46h1M17 46h1M41 46h4M6 47h1M38 47h3M58 47h1M37 48h1M16 49h1M37 49h1M59 49h1M9 50h1M36 50h1M11 51h1M14 52h1M17 52h1M60 52h1M18 53h1M0 54h1M18 54h1M1 55h1M19 55h1M36 55h1M61 55h1M37 56h1M38 57h1M62 57h1" />
<path stroke="#f8c850" d="M34 9h1M33 10h3M34 11h2M32 12h1M34 12h2M30 13h2M33 13h2M28 14h5M39 14h1M31 15h1M33 15h2M38 15h4M32 16h1M34 16h9M25 17h1M33 17h1M35 17h9M32 18h1M34 18h10M24 19h1M33 19h12M24 20h1M32 20h13M23 21h2M31 21h14M23 22h3M30 22h16M23 23h24M22 24h25M22 25h16M41 25h7M22 26h15M42 26h6M22 27h14M42 27h7M22 28h13M42 28h8M21 29h14M43 29h7M21 30h13M43 30h6M21 31h12M44 31h5M21 32h12M21 33h11M21 34h10M32 34h1M20 35h12M33 35h1M20 36h11M32 36h1M20 37h10M31 37h1M54 37h1M20 38h11M32 38h1M20 39h10M31 39h1M52 39h1M20 40h10M51 40h2M20 41h9M50 41h1M52 41h2M4 42h1M19 42h10M52 42h2M4 43h1M20 43h9M49 43h1M52 43h2M3 44h2M19 44h1M21 44h8M48 44h1M52 44h2M1 45h5M20 45h9M52 45h2M1 46h5M19 46h1M21 46h7M51 46h3M1 47h5M18 47h1M20 47h1M23 47h4M51 47h3M1 48h3M6 48h1M51 48h3M1 49h2M7 49h1M51 49h3M1 50h2M50 50h4M1 51h1M50 51h3M1 52h1M50 52h3M1 53h1M8 53h1M49 53h4M1 54h1M8 54h1M49 54h4M8 55h2M49 55h3M9 56h2M48 56h4M9 57h3M48 57h4" />
<path stroke="#f8e078" d="M33 11h1M33 12h1M27 15h4M32 15h1M26 16h6M33 16h1M26 17h7M34 17h1M25 18h7M33 18h1M25 19h8M25 20h7M25 21h6M26 22h4M47 24h1M48 25h1M48 26h2M49 27h1M52 37h2M51 38h2M51 39h1M2 42h2M2 43h2M2 44h1" />
<path stroke="#d0b058" d="M36 11h1M36 12h2M35 13h2M33 14h1M36 14h3M26 15h1M35 15h3M25 16h1M24 17h1M45 21h1M38 25h3M37 26h5M36 27h6M35 28h7M35 29h8M34 30h9M33 31h11M33 32h7M41 32h7M32 33h8M41 33h7M31 34h1M33 34h7M41 34h6M32 35h1M34 35h6M41 35h1M31 36h1M33 36h7M41 36h2M52 36h1M30 37h1M32 37h8M51 37h1M31 38h1M33 38h7M50 38h1M53 38h2M30 39h1M32 39h8M53 39h3M30 40h10M53 40h3M2 41h1M19 41h1M29 41h12M51 41h1M54 41h2M29 42h12M50 42h2M54 42h3M19 43h1M29 43h12M50 43h2M54 43h3M1 44h1M20 44h1M29 44h13M49 44h3M54 44h3M0 45h1M19 45h1M29 45h13M47 45h5M54 45h4M18 46h1M20 46h1M28 46h13M45 46h6M54 46h4M19 47h1M21 47h2M27 47h11M41 47h10M54 47h4M4 48h2M18 48h19M38 48h13M54 48h5M3 49h4M17 49h20M38 49h13M54 49h5M3 50h6M17 50h19M37 50h13M54 50h6M2 51h9M17 51h19M37 51h13M53 51h7M2 52h12M18 52h18M37 52h13M53 52h7M2 53h6M9 53h9M19 53h17M37 53h12M53 53h8M2 54h6M9 54h9M19 54h17M37 54h12M53 54h8M2 55h6M10 55h9M20 55h16M37 55h12M52 55h9M2 56h7M11 56h8M20 56h17M38 56h10M52 56h10M2 57h7M12 57h7M20 57h18M39 57h9M52 57h10" />
</svg>