<svg xmlns="http://www.w3.org/2000/svg" viewBox="0 -0.5 64 64" shape-rendering="crispEdges">
<metadata>Made with Pixels to Svg https://codepen.io/shshaw/pen/XbxvNj</metadata>
<path stroke="#984880" d="M39 9h1M43 9h1M37 10h1M35 11h1M49 13h1M32 16h1M50 16h1M29 17h1M52 18h1M47 21h1M52 21h1M36 24h4M44 24h1M34 25h3M39 25h1M34 26h1M37 26h4M35 27h1M38 27h4M47 27h2M41 28h8M44 29h3M22 34h1M37 35h2M23 36h1M39 37h5M41 38h5M42 39h5M43 40h5M46 41h3M48 42h1M47 43h1M47 44h3M47 45h3M47 46h3M46 47h4M45 48h4M44 49h4M43 50h5M42 51h5M40 52h6M37 53h1M39 53h6M35 54h4M40 54h4" />
<path stroke="#101010" d="M40 9h3M45 10h1M47 11h1M48 12h1M50 14h1M46 15h1M48 15h1M50 15h1M46 16h1M48 16h1M45 17h1M47 17h1M45 18h2M54 19h1M54 20h1M48 21h4M53 21h1M46 22h2M51 22h2M45 23h1M45 24h1M48 24h1M37 25h1M44 25h1M48 25h1M35 26h2M44 26h1M48 26h1M34 27h1M36 27h2M33 28h1M38 28h2M49 28h1M32 29h1M41 29h2M47 29h2M32 30h1M44 30h3M16 31h1M32 31h1M16 32h1M33 32h1M35 33h1M17 34h1M37 34h2M16 35h1M40 35h2M43 36h1M15 37h1M45 37h1M15 38h1M25 38h1M46 38h1M15 39h1M26 39h1M47 39h1M14 40h1M28 40h1M48 40h1M30 41h1M49 41h1M13 42h1M32 42h1M13 43h1M34 43h1M13 44h1M35 44h2M50 44h1M12 45h1M37 45h1M50 45h1M13 46h1M37 46h1M50 46h1M13 47h1M36 47h1M14 48h1M35 48h1M49 48h1M14 49h1M34 49h1M49 49h1M31 50h2M48 50h1M13 51h1M28 51h2M48 51h1M12 52h2M26 52h1M47 52h1M14 53h1M24 53h1M46 53h1M15 54h1M22 54h1M45 54h1" />
<path stroke="#682058" d="M38 10h1M44 10h1M36 11h1M46 11h1M34 12h1M33 13h1M32 14h1M31 15h1M51 15h1M31 16h1M49 16h1M52 16h1M30 17h1M53 17h1M28 18h1M54 18h1M27 19h1M26 20h1M25 21h1M24 22h1M50 22h1M46 23h2M38 25h1M45 27h2M49 27h1M40 28h1M43 29h1M21 30h1M21 31h1M22 32h1M22 33h1M34 33h1M36 34h1M23 35h1M39 35h1M38 36h5M24 37h1M36 37h2M44 37h1M35 38h1M34 39h1M27 40h1M34 40h1M29 41h1M33 41h1M42 41h4M31 42h1M33 42h1M40 42h2M46 42h2M49 42h1M33 43h1M39 43h1M48 43h3M38 44h1M38 45h1M50 47h1M33 49h1M48 49h1M30 50h1M27 51h1M33 51h3M47 51h1M25 52h1M36 52h2M46 52h1M23 53h1M38 53h1M45 53h1M21 54h1M39 54h1M44 54h1" />
<path stroke="#d8a0c0" d="M39 10h3M37 11h6M36 12h7M36 13h6M37 14h3M33 16h2M31 17h3M29 18h4M28 19h4M28 20h2M25 28h1M23 29h3M23 30h3M23 31h2M30 36h2M30 37h4M31 38h4M32 39h2M35 39h2M35 40h4M36 41h4M38 42h2M40 43h1M39 44h2M39 45h1M38 46h2M37 47h2M36 48h2M35 49h1M30 51h3M27 52h4M25 53h3M23 54h3" />
<path stroke="#b870a0" d="M42 10h2M43 11h3M35 12h1M43 12h5M34 13h2M42 13h2M47 13h2M33 14h4M40 14h3M48 14h2M32 15h10M49 15h1M35 16h7M51 16h1M34 17h9M48 17h5M33 18h11M47 18h5M53 18h1M32 19h22M27 20h1M30 20h24M26 21h1M29 21h18M31 22h15M33 23h12M34 24h2M40 24h4M40 25h4M41 26h3M42 27h3M26 28h2M26 29h4M22 30h1M26 30h5M22 31h1M25 31h7M23 32h10M23 33h11M23 34h13M24 35h13M24 36h6M32 36h6M25 37h5M34 37h2M38 37h1M26 38h5M36 38h5M27 39h5M37 39h5M29 40h5M39 40h4M31 41h2M34 41h2M40 41h2M34 42h4M42 42h4M35 43h4M41 43h6M37 44h1M41 44h6M40 45h7M40 46h7M39 47h7M38 48h7M36 49h8M33 50h10M36 51h6M31 52h5M38 52h2M28 53h9M26 54h9" />
<path stroke="#805010" d="M44 13h3M43 14h1M45 14h1M47 14h1M42 15h1M42 16h1M43 17h1M44 18h1M27 21h2M25 22h2M29 22h2M23 23h2M31 23h2M33 24h1M22 25h1M25 27h3M23 28h2M28 28h2M21 29h2M30 29h1M15 30h1M31 30h1M14 31h1M14 32h1M13 33h1M17 33h1M13 34h1M12 35h1M14 35h1M11 36h1M15 36h1M11 37h1M11 38h1M11 39h1M10 40h1M12 40h1M9 41h1M13 41h1M9 42h1M9 43h1M9 44h1M10 45h1M9 46h1M11 46h1M9 47h1M8 48h1M8 49h1M8 50h1M14 50h1M9 51h1M9 52h1M11 52h1M10 53h1M9 54h1" />
<path stroke="#f8f8f8" d="M44 14h1M44 15h1M25 23h1M24 24h2M23 25h3M23 26h2M22 27h3M22 28h1M15 32h1M15 33h1M13 36h1M13 37h1M10 41h2M10 42h2M10 47h2M10 48h2M11 54h1" />
<path stroke="#f8e098" d="M46 14h1M43 15h1M45 15h1M43 16h3M27 22h2M26 23h4M26 24h3M26 25h3M26 26h2M15 31h1M14 33h1M13 35h1M12 36h1M12 37h1M11 40h1M10 46h1M9 48h1M11 53h1M10 54h1M12 54h1" />
<path stroke="#f8d068" d="M47 15h1M47 16h1M44 17h1M46 17h1M30 23h1M29 24h4M29 25h3M25 26h1M28 26h4M28 27h3M30 28h1M14 36h1M14 37h1M12 38h2M12 41h1M12 42h1M10 43h2M12 46h1M12 47h1M12 48h1M9 49h4M9 50h3M12 53h2M13 54h2" />
<path stroke="#e0a070" d="M23 24h1M32 25h2M22 26h1M32 26h2M21 27h1M31 27h3M21 28h1M31 28h2M31 29h1M16 33h1M14 34h3M15 35h1M14 38h1M12 39h3M13 40h1M12 43h1M10 44h3M11 45h1M13 48h1M13 49h1M12 50h2M10 51h3M10 52h1" />
<path stroke="#f07048" d="M46 24h2M47 25h1M47 26h1" />
<path stroke="#c04018" d="M45 25h2M45 26h2" />
</svg>