<svg xmlns="http://www.w3.org/2000/svg" viewBox="0 -0.5 64 64" shape-rendering="crispEdges">
<metadata>Made with Pixels to Svg https://codepen.io/shshaw/pen/XbxvNj</metadata>
<path stroke="#5890b0" d="M37 11h1M36 13h1M46 13h1M30 14h1M45 14h1M29 15h1M22 16h2M38 16h1M21 17h1M32 17h1M37 17h1M45 17h1M48 17h1M43 19h1M44 20h1M48 20h1M21 21h1M45 21h1M18 22h1M46 22h1M17 23h1M47 23h1M47 24h1M49 24h1M48 25h1M48 26h1M48 27h1M48 28h1M19 29h1M48 29h2M18 30h1M48 30h2M18 31h1M31 31h2M47 31h3M55 31h1M23 32h1M31 32h1M35 32h2M46 32h4M24 33h1M29 33h2M35 33h3M44 33h5M55 33h1M25 34h1M36 34h3M41 34h7M19 35h1M29 35h1M36 35h4M41 35h5M24 36h2M36 36h10M23 37h1M36 37h8M21 38h1M28 38h1M36 38h4M14 39h1M28 39h1M35 39h5M52 39h1M13 40h1M34 40h3M51 40h1M55 40h1M32 41h3M55 41h3M30 42h3M36 42h1M52 42h1M54 42h3M19 43h1M42 43h5M50 43h6M19 44h1M35 44h1M40 44h3M45 44h3M49 44h5M39 45h2M47 45h1M49 45h2M22 46h1M38 46h1M49 46h1M21 47h1M25 47h1M29 47h1M37 47h2M20 48h1M29 48h1M35 48h1M37 48h2M27 49h2M37 49h1M37 50h1M48 50h1M28 51h1M37 51h1M23 52h3M38 52h1M49 52h1M22 53h1M26 53h1M50 53h1" />
<path stroke="#385860" d="M38 11h1M36 12h1M39 12h1M31 14h1M37 14h1M47 14h1M32 15h1M38 15h1M45 15h1M47 15h1M24 16h1M29 16h1M43 16h2M47 16h1M25 17h1M35 17h2M22 18h1M28 18h3M32 18h1M48 18h1M23 19h2M48 19h1M23 20h1M22 21h1M34 21h1M19 22h2M35 22h1M49 23h1M17 24h1M34 24h1M51 24h1M18 25h2M33 25h2M52 25h1M32 26h1M53 26h1M31 27h1M53 27h1M31 28h1M49 28h1M54 28h1M20 29h1M30 29h1M54 29h1M30 30h1M34 30h1M54 30h1M29 31h1M33 31h1M56 31h2M18 32h1M24 32h1M29 32h1M55 32h1M58 32h1M19 33h1M59 33h1M19 34h1M28 34h1M30 34h1M26 35h2M60 35h1M20 36h1M29 36h1M20 37h1M22 37h1M29 37h1M20 38h1M35 38h1M60 38h1M15 39h1M20 39h1M34 39h1M40 39h3M59 39h2M16 40h2M28 40h1M33 40h1M38 40h1M43 40h2M52 40h1M13 41h1M28 41h1M31 41h1M37 41h1M45 41h1M52 41h1M54 41h1M13 42h1M20 42h1M29 42h1M46 42h1M53 42h1M14 43h1M16 43h1M21 43h1M36 43h1M47 43h1M14 44h2M22 44h1M43 44h2M48 44h1M54 44h1M15 45h1M18 45h1M22 45h1M35 45h1M41 45h1M45 45h2M48 45h1M51 45h1M18 46h1M26 46h3M35 46h1M39 46h1M48 46h1M14 47h1M18 47h1M26 47h3M35 47h1M47 47h1M19 48h1M26 48h3M36 49h1M38 49h1M48 49h1M12 50h1M36 50h1M49 50h1M10 51h1M29 51h1M8 52h1M19 52h1M37 52h1M6 53h1M23 53h3" />
<path stroke="#d8f8f8" d="M37 12h1M37 13h2M38 14h2M46 14h1M39 15h1M22 17h3M33 17h1M24 18h3M33 18h2M35 19h1M24 20h1M23 21h1M21 22h2M18 23h3M18 24h1M19 30h2M19 31h3M19 32h2M32 32h2M20 33h1M31 33h3M31 34h3M30 35h3M30 36h3M31 37h1M14 40h2M53 40h2M14 41h2M38 41h3M53 41h1M37 42h5M20 43h1M37 43h3M20 44h1M38 44h1M19 45h2M19 46h1M41 46h3M45 46h1M40 47h3M44 47h1M46 47h1M41 48h3M45 48h1M42 49h3M46 49h1" />
<path stroke="#c0e0e8" d="M38 12h1M39 13h1M40 14h1M30 15h1M40 15h2M46 15h1M30 16h2M39 16h4M45 16h2M31 17h1M34 17h1M38 17h2M23 18h1M31 18h1M35 18h4M25 19h8M34 19h1M36 19h2M25 20h9M35 20h2M24 21h10M35 21h2M23 22h12M36 22h1M21 23h12M36 23h1M19 24h12M36 24h1M21 25h9M35 25h1M51 25h1M22 26h7M33 26h1M51 26h2M23 27h6M32 27h2M51 27h2M23 28h5M32 28h1M51 28h3M25 29h3M31 29h2M52 29h1M31 30h1M30 31h1M21 32h2M30 32h1M21 33h2M56 33h2M20 34h3M29 34h1M57 34h1M20 35h2M28 35h1M33 35h1M21 36h1M26 36h3M33 36h1M21 37h1M24 37h5M30 37h1M32 37h1M22 38h6M29 38h3M21 39h7M29 39h2M20 40h8M29 40h1M39 40h2M19 41h9M41 41h3M14 42h2M18 42h2M21 42h8M42 42h1M15 43h1M17 43h2M22 43h8M40 43h1M16 44h3M23 44h6M36 44h2M16 45h2M23 45h5M36 45h2M42 45h3M15 46h3M23 46h3M40 46h1M44 46h1M46 46h1M15 47h3M19 47h1M22 47h3M39 47h1M43 47h1M45 47h1M14 48h5M21 48h4M39 48h2M44 48h1M46 48h2M13 49h12M40 49h2M45 49h1M47 49h1M13 50h10M35 50h1M41 50h6M11 51h5M18 51h3M33 51h4M43 51h3M9 52h7M31 52h6M7 53h8M32 53h8" />
<path stroke="#101010" d="M40 13h1M41 14h1M42 15h1M33 16h2M26 17h2M30 17h1M33 19h1M34 20h1M49 21h1M49 22h1M35 23h1M35 24h1M50 24h1M20 25h1M50 25h1M21 26h1M34 26h1M50 26h1M22 27h1M35 27h1M50 27h1M22 28h1M35 28h1M23 29h1M35 29h1M21 30h1M24 30h1M22 31h1M24 31h1M26 31h1M35 31h2M25 32h1M27 32h2M34 32h1M37 32h1M25 33h1M34 33h1M38 33h1M26 34h1M35 34h1M39 34h1M59 34h1M35 35h1M40 35h1M35 36h1M60 36h1M35 37h1M60 37h1M53 39h3M19 40h1M56 40h3M18 41h1M58 41h1M17 42h1M57 42h1M56 43h1M55 44h1M52 45h2M14 46h1M47 46h1M50 46h1M48 47h2M13 48h1M48 48h1M12 49h1M11 50h1M38 50h1M9 51h1M38 51h1M49 51h1M7 52h1M30 52h1M39 52h1M50 52h1M5 53h1M19 53h1M31 53h1M40 53h1M51 53h1" />
<path stroke="#88c0c8" d="M31 15h1M32 16h1M40 17h5M46 17h2M27 18h1M39 18h9M38 19h2M44 19h4M37 20h2M45 20h3M37 21h2M46 21h3M37 22h1M47 22h2M33 23h2M37 23h1M48 23h1M31 24h3M37 24h1M48 24h1M30 25h3M36 25h1M49 25h1M29 26h3M35 26h2M49 26h1M29 27h2M34 27h1M36 27h1M49 27h1M28 28h3M33 28h2M36 28h1M50 28h1M24 29h1M28 29h2M33 29h2M36 29h2M50 29h2M53 29h1M25 30h5M32 30h2M35 30h3M50 30h4M25 31h1M27 31h2M34 31h1M37 31h2M50 31h5M38 32h2M50 32h5M23 33h1M39 33h2M49 33h6M58 33h1M23 34h2M34 34h1M40 34h1M48 34h9M58 34h1M22 35h4M34 35h1M46 35h14M22 36h2M34 36h1M46 36h14M33 37h2M44 37h16M32 38h3M40 38h20M31 39h3M43 39h9M56 39h3M30 40h3M37 40h1M41 40h2M45 40h6M16 41h2M29 41h2M35 41h2M44 41h1M46 41h6M16 42h1M33 42h3M43 42h3M47 42h5M30 43h6M41 43h1M48 43h2M21 44h1M29 44h6M39 44h1M21 45h1M28 45h7M38 45h1M20 46h2M29 46h6M36 46h2M20 47h1M30 47h5M36 47h1M25 48h1M30 48h5M36 48h1M25 49h2M29 49h7M39 49h1M23 50h12M39 50h2M47 50h1M16 51h2M21 51h7M30 51h3M39 51h4M46 51h3M16 52h3M20 52h3M26 52h4M40 52h9M15 53h4M20 53h2M27 53h4M41 53h9" />
<path stroke="#183870" d="M40 19h3M39 20h5M39 21h6M38 22h8M38 23h9M38 24h2M43 24h4M37 25h2M45 25h3M37 26h2M46 26h2M37 27h2M46 27h2M37 28h2M47 28h1M38 29h1M47 29h1M38 30h2M47 30h1M39 31h2M40 32h5M41 33h3" />
<path stroke="#1060b0" d="M40 24h3M39 25h6M39 26h3M45 26h1M39 27h2M39 28h2M39 29h2M40 30h2M41 31h2" />
<path stroke="#4880f0" d="M42 26h3M41 27h5M41 28h6M41 29h6M42 30h5M43 31h4M45 32h1" />
<path stroke="#f8f8f8" d="M56 32h2" />
</svg>