<svg xmlns="http://www.w3.org/2000/svg" viewBox="0 -0.5 64 64" shape-rendering="crispEdges">
<metadata>Made with Pixels to Svg https://codepen.io/shshaw/pen/XbxvNj</metadata>
<path stroke="#b860b8" d="M32 9h2M17 10h2M31 10h1M16 11h1M31 11h1M16 12h1M32 12h1M17 13h1M32 13h1M17 15h1M16 16h1M29 16h1M39 16h1M16 17h1M29 17h1M40 17h1M29 18h1M29 19h1M28 20h1M30 20h2M27 21h1M29 21h4M18 22h1M26 22h1M28 22h4M17 23h1M27 23h4M17 24h1M26 24h1M28 24h3M27 25h5M26 26h1M28 26h5M43 26h1M47 26h1M25 27h1M27 27h6M34 27h2M46 27h1M26 28h1M29 28h2M33 28h1M35 28h1M20 29h1M31 29h3M35 29h2M19 30h1M27 30h2M31 30h4M36 30h2M19 31h1M28 31h2M31 31h5M37 31h2M41 31h1M25 32h2M28 32h2M33 32h6M21 33h2M28 33h2M34 33h3M38 33h1M21 34h3M28 34h1M35 34h1M37 34h1M22 35h3M31 35h2M36 35h1M45 35h1M47 35h1M22 36h3M31 36h2M46 36h1M49 36h1M16 37h1M22 37h2M31 37h2M48 37h1M15 38h1M18 38h2M31 38h2M19 39h3M30 39h2M19 40h2M27 40h4M47 40h1M20 41h1M27 41h3M14 42h2M24 42h1M27 42h2M46 42h1M13 43h1M24 43h1M27 43h1M13 44h1M24 44h1M45 44h1M24 45h1M17 46h2M18 47h2M40 47h1M42 47h1M19 48h1M35 48h2M39 48h1M41 48h2M19 49h1M35 49h2M38 49h2M41 49h2M19 50h1M35 50h2M38 50h1M40 50h3M15 51h1M19 51h1M34 51h3M38 51h1M40 51h3M15 52h1M20 52h1M34 52h2M37 52h1M39 52h4M16 53h1M20 53h2M33 53h3M38 53h5M17 54h4M22 54h2M31 54h4M40 54h4M19 55h3M25 55h9M45 55h1" />
<path stroke="#e8b8e8" d="M32 10h2M17 11h2M32 11h3M17 12h3M25 12h1M33 12h1M18 13h1M25 13h1M33 13h1M25 14h1M34 14h1M18 15h1M34 15h1M17 16h1M34 16h1M17 17h1M34 17h1M34 18h1M34 19h1M34 20h1M34 21h1M33 22h2M18 23h2M32 23h2M18 24h1M46 25h1M45 26h1M41 27h1M41 28h1M41 29h1M20 30h2M20 31h1M20 32h1M18 37h2M16 38h1M16 39h2M17 40h1M14 43h1M14 44h1" />
<path stroke="#604068" d="M34 10h2M19 11h1M25 11h1M20 12h1M24 12h1M37 12h1M40 12h1M21 13h2M24 13h1M41 13h1M18 14h1M23 14h2M33 14h1M29 15h1M33 15h1M39 15h1M28 16h1M40 16h1M28 17h1M17 18h1M17 19h1M17 20h1M18 21h1M19 22h1M46 24h2M18 25h1M44 25h2M33 26h1M44 26h1M40 27h1M45 27h1M47 27h1M27 28h2M40 28h1M46 28h1M21 29h1M26 29h1M38 29h3M47 29h1M22 30h1M39 30h3M43 30h1M45 30h1M48 30h1M23 31h1M25 31h1M27 31h1M36 31h1M40 31h1M48 31h1M19 32h1M24 32h1M49 32h1M20 33h1M25 33h2M31 33h2M49 33h1M27 34h1M50 34h1M34 35h1M18 36h3M17 37h1M20 37h1M34 37h1M36 37h1M49 37h1M22 38h1M27 38h2M48 38h1M15 39h1M26 39h1M29 39h1M48 39h1M16 40h1M17 41h1M24 41h1M32 41h3M40 41h1M23 42h1M25 42h1M31 42h5M40 42h2M26 43h1M31 43h5M39 43h3M46 43h1M15 44h1M31 44h4M39 44h2M14 45h1M31 45h2M39 45h1M45 45h1M14 46h1M22 46h1M36 46h1M44 46h1M36 47h1M41 47h1M37 48h1M40 48h1M14 49h1M18 49h1M29 50h3M39 50h1M44 50h1M29 51h4M14 52h1M30 52h3M36 52h1M38 52h1M21 54h1M38 54h2M22 55h1M39 55h1" />
<path stroke="#e098d0" d="M35 11h1M34 12h3M19 13h2M34 13h2M37 13h2M40 13h1M19 14h4M26 14h1M35 14h1M38 14h1M40 14h1M19 15h8M35 15h1M40 15h1M18 16h10M35 16h1M18 17h10M35 17h1M18 18h11M35 18h1M18 19h11M30 19h1M35 19h1M18 20h10M29 20h1M35 20h1M19 21h8M28 21h1M35 21h1M20 22h6M27 22h1M35 22h1M20 23h7M34 23h2M19 24h7M27 24h1M32 24h4M22 25h5M33 25h3M47 25h1M23 26h3M27 26h1M34 26h3M46 26h1M26 27h1M36 27h1M44 27h1M36 28h2M42 28h1M44 28h2M27 29h2M37 29h1M42 29h1M44 29h3M29 30h1M38 30h1M42 30h1M44 30h1M46 30h2M21 31h2M30 31h1M39 31h1M42 31h3M47 31h1M21 32h3M30 32h3M39 32h6M48 32h1M23 33h2M30 33h1M33 33h1M37 33h1M39 33h6M24 34h3M29 34h1M31 34h2M34 34h1M36 34h1M38 34h7M49 34h1M25 35h5M35 35h1M37 35h8M48 35h2M25 36h5M33 36h1M35 36h11M47 36h2M24 37h6M33 37h1M37 37h11M20 38h2M23 38h4M29 38h1M33 38h15M22 39h4M27 39h2M32 39h16M21 40h5M31 40h16M18 41h1M21 41h3M25 41h1M30 41h2M35 41h5M41 41h6M17 42h2M20 42h3M29 42h2M36 42h4M42 42h4M15 43h1M19 43h4M25 43h1M28 43h3M36 43h3M42 43h4M16 44h7M25 44h6M35 44h4M41 44h4M16 45h7M25 45h6M33 45h6M40 45h5M15 46h1M19 46h3M23 46h13M37 46h7M16 47h1M20 47h16M37 47h3M43 47h2M16 48h2M20 48h15M38 48h1M43 48h2M15 49h3M20 49h15M43 49h2M15 50h4M20 50h9M32 50h3M43 50h1M16 51h3M20 51h9M33 51h1M43 51h1M16 52h4M21 52h9M33 52h1M43 52h1M17 53h3M22 53h11M43 53h1M24 54h7" />
<path stroke="#101010" d="M36 11h1M26 12h1M38 12h1M26 13h1M36 13h1M39 13h1M27 14h1M36 14h2M39 14h1M41 14h1M27 15h1M36 15h1M38 15h1M41 15h1M30 16h1M33 16h1M36 16h1M38 16h1M41 16h1M30 17h1M33 17h1M36 17h1M39 17h1M41 17h1M30 18h1M33 18h1M36 18h1M40 18h2M31 19h1M33 19h1M36 19h1M41 19h2M32 20h2M36 20h1M42 20h1M33 21h1M36 21h1M43 21h1M32 22h1M36 22h1M43 22h1M31 23h1M36 23h1M43 23h1M31 24h1M43 24h1M19 25h3M32 25h1M43 25h1M48 25h1M22 26h1M42 26h1M48 26h1M23 27h2M33 27h1M42 27h2M25 28h1M31 28h2M34 28h1M43 28h1M47 28h1M29 29h2M34 29h1M43 29h1M26 30h1M30 30h1M35 30h1M26 31h1M46 31h1M27 32h1M47 32h1M27 33h1M47 33h2M20 34h1M30 34h1M33 34h1M48 34h1M21 35h1M30 35h1M33 35h1M50 35h1M21 36h1M30 36h1M34 36h1M50 36h1M21 37h1M30 37h1M35 37h1M50 37h1M17 38h1M30 38h1M50 38h1M18 39h1M50 39h1M18 40h1M26 40h1M48 40h1M16 41h1M19 41h1M26 41h1M47 41h1M16 42h1M19 42h1M26 42h1M47 42h1M16 43h3M23 43h1M23 44h1M46 44h1M15 45h1M23 45h1M16 46h1M45 46h1M15 47h1M17 47h1M45 47h1M15 48h1M18 48h1M45 48h1M37 49h1M40 49h1M45 49h1M14 50h1M37 50h1M14 51h1M37 51h1M39 51h1M44 51h1M44 52h1M15 53h1M36 53h2M44 53h1M16 54h1M35 54h1M45 54h1M17 55h2M23 55h2M34 55h1M40 55h5" />
<path stroke="#006040" d="M37 15h1M37 16h1M37 17h2M37 18h3M37 19h4M37 20h5M38 21h5M39 22h4M40 23h3M36 24h1M40 24h3M36 25h1M41 25h2M37 26h1M41 26h1M37 27h1M38 28h1" />
<path stroke="#00a070" d="M37 21h1M37 22h2M37 23h3M37 24h3M37 25h4M38 26h3M38 27h2M39 28h1" />
<path stroke="#c8c8c8" d="M45 31h1" />
<path stroke="#f8f8f8" d="M45 32h1M45 33h2M45 34h1M46 35h1M49 38h1M49 39h1M44 54h1" />
<path stroke="#b01800" d="M46 32h1M46 34h2" />
<path stroke="#808080" d="M49 40h1" />
</svg>