<svg xmlns="http://www.w3.org/2000/svg" viewBox="0 -0.5 64 64" shape-rendering="crispEdges">
<metadata>Made with Pixels to Svg https://codepen.io/shshaw/pen/XbxvNj</metadata>
<path stroke="#e08078" d="M29 13h2M37 13h1M28 14h1M22 15h1M44 16h1M24 18h1M13 25h2M17 25h1M12 26h1M13 29h1M19 31h3M38 31h1M32 32h2M18 33h1M31 33h3M37 33h1M32 35h1M37 38h1M36 39h2M9 40h1M25 40h1M26 41h1M52 41h1M24 42h1M26 42h1M51 42h1M24 43h1M26 43h1M47 43h2M24 44h1M26 44h1M45 44h1M23 45h1M25 45h2M45 45h2M9 46h1M23 46h3M45 46h1M44 47h2M11 48h1M17 48h2M28 48h1M43 48h3M12 49h1M16 49h5M26 49h4M42 49h2M45 49h2M13 50h16M41 50h2M44 50h3" />
<path stroke="#985850" d="M31 13h6M27 14h1M38 14h2M23 15h2M26 15h1M45 15h2M25 16h1M40 16h4M24 17h1M39 17h1M38 18h1M19 22h1M18 23h1M16 24h1M18 24h1M15 25h2M16 26h2M12 27h1M18 27h2M37 27h3M12 28h1M20 28h2M35 28h2M40 28h1M22 29h1M33 29h2M40 29h1M13 30h1M30 30h3M39 30h1M13 31h1M39 31h1M47 31h2M12 32h1M19 32h4M38 32h1M11 33h1M15 33h3M23 33h2M38 33h1M11 34h1M13 34h2M25 34h2M37 34h1M46 34h2M11 35h2M27 35h1M37 35h1M51 35h1M11 36h1M28 36h1M37 36h1M52 36h1M11 37h1M29 37h1M31 37h1M38 37h1M52 37h2M10 38h1M29 38h1M32 38h1M54 38h1M10 39h1M20 39h1M23 39h1M30 39h1M34 39h1M54 39h1M19 40h1M30 40h1M53 40h1M9 41h1M18 41h1M9 42h1M18 42h1M9 43h1M17 43h1M45 43h2M49 43h2M9 44h1M17 44h1M25 44h1M9 45h1M17 45h1M24 45h1M29 45h1M18 46h1M46 46h1M10 47h1M18 47h1M10 48h1M19 48h2M26 48h1M46 48h1M11 49h1M21 49h1M25 49h1M44 49h1M12 50h1M43 50h1M47 50h1" />
<path stroke="#985020" d="M14 14h8M47 15h6" />
<path stroke="#f8c0a0" d="M29 14h6M21 15h1M27 15h10M19 16h6M26 16h11M45 16h1M18 17h6M25 17h13M41 17h4M17 18h7M25 18h13M39 18h6M17 19h28M16 20h28M16 21h28M16 22h3M20 22h24M16 23h2M19 23h24M17 24h1M19 24h24M19 25h23M13 26h3M18 26h24M13 27h4M20 27h17M40 27h2M13 28h6M22 28h13M37 28h2M41 28h1M14 29h7M23 29h10M36 29h2M41 29h3M14 30h16M34 30h4M40 30h5M14 31h4M22 31h15M40 31h5M13 32h4M23 32h9M34 32h2M39 32h6M12 33h3M25 33h5M34 33h2M39 33h6M12 34h1M16 34h3M27 34h9M39 34h7M14 35h6M28 35h4M34 35h3M38 35h10M13 36h7M29 36h8M38 36h12M12 37h7M32 37h4M39 37h12M12 38h6M39 38h2M47 38h4M11 39h6M11 40h6M20 40h3M10 41h6M19 41h4M10 42h1M12 42h3M19 42h3M11 43h1M13 43h1M15 43h1M18 43h4M12 44h1M14 44h1M18 44h2" />
<path stroke="#f89880" d="M35 14h3M37 15h3M37 16h3M46 16h1M38 17h1M40 17h1M45 17h1M18 25h1M17 27h1M19 28h1M39 28h1M44 28h3M21 29h1M35 29h1M38 29h2M44 29h3M33 30h1M38 30h1M45 30h2M18 31h1M37 31h1M45 31h2M17 32h2M36 32h2M45 32h3M19 33h4M30 33h1M36 33h1M46 33h2M15 34h1M19 34h6M36 34h1M38 34h1M13 35h1M20 35h7M33 35h1M12 36h1M20 36h8M19 37h10M30 37h1M36 37h2M11 38h1M18 38h11M30 38h2M34 38h3M41 38h6M51 38h1M17 39h3M24 39h6M31 39h3M39 39h14M10 40h1M17 40h2M23 40h1M26 40h4M31 40h5M38 40h15M16 41h2M23 41h2M27 41h3M31 41h21M11 42h1M15 42h3M22 42h2M27 42h3M31 42h20M10 43h1M12 43h1M14 43h1M16 43h1M22 43h2M27 43h3M31 43h14M10 44h2M13 44h1M15 44h2M20 44h4M27 44h3M31 44h14M10 45h7M18 45h5M27 45h2M30 45h15M10 46h8M19 46h4M26 46h3M30 46h15M11 47h7M19 47h9M29 47h15M12 48h5M21 48h5M29 48h14M13 49h3M30 49h12M29 50h12" />
<path stroke="#702808" d="M13 15h1M13 16h1M13 17h1M52 17h1M13 18h1M51 18h2M49 19h3M14 20h1M47 20h4M14 21h1M46 21h5M15 22h1M45 22h5M15 23h1M44 23h6M43 24h6M43 25h6M42 26h6M42 27h6M42 28h2" />
<path stroke="#c88050" d="M14 15h3M14 16h2M48 16h4M48 17h2" />
<path stroke="#a86030" d="M17 15h4M16 16h3M47 16h1M52 16h1M14 17h4M46 17h2M50 17h2M14 18h3M45 18h6M14 19h3M45 19h4M15 20h1M44 20h3M15 21h1M44 21h2M44 22h1M43 23h1M42 25h1M45 33h1M50 36h1M51 37h1M52 38h1M53 39h1" />
<path stroke="#101010" d="M40 15h2M53 16h1M53 17h1M53 18h1M52 19h1M51 20h1M51 21h1M50 22h1M50 23h1M49 24h1M49 25h1M48 26h1M48 27h1M47 28h1M47 29h1M47 30h1M48 32h1M48 33h1M48 34h1M48 35h2M33 38h1M38 38h1M21 39h2M35 39h1M38 39h1M24 40h1M36 40h2M25 41h1M30 41h1M53 41h1M25 42h1M30 42h1M52 42h1M25 43h1M30 43h1M51 43h1M30 44h1M46 44h4M47 45h1M29 46h1M28 47h1M46 47h1M27 48h1M47 48h1M22 49h3M47 49h1M48 50h1" />
<path stroke="#f8f8f8" d="M51 36h1M53 38h1" />
</svg>