<svg xmlns="http://www.w3.org/2000/svg" viewBox="0 -0.5 64 64" shape-rendering="crispEdges">
<metadata>Made with Pixels to Svg https://codepen.io/shshaw/pen/XbxvNj</metadata>
<path stroke="#c89860" d="M48 4h2M50 5h2M49 6h1M52 6h1M32 7h4M36 8h6M48 8h1M42 9h1M47 9h1M51 9h1M27 11h5M25 12h2M23 13h2M22 14h1M31 17h1M25 18h1M22 29h4M20 30h2M18 31h2M37 31h1M13 32h1M17 32h1M30 32h2M59 32h1M11 33h2M16 33h1M10 34h1M15 34h1M43 34h5M9 35h1M27 35h1M48 35h2M7 36h2M26 36h1M6 37h1M5 38h1M4 39h1M55 39h1M3 40h1M2 41h1M2 42h1M9 44h1M57 44h1M4 45h1M58 45h1M59 46h1" />
<path stroke="#806828" d="M48 5h1M53 6h1M49 7h1M54 7h2M32 8h1M49 8h2M56 8h1M33 9h1M43 9h4M57 9h1M34 10h2M58 10h1M36 11h3M32 12h4M59 14h4M21 15h1M58 15h2M20 16h1M26 16h1M29 16h1M57 16h1M19 17h1M22 17h1M25 17h1M28 17h3M56 17h1M26 18h2M24 19h1M53 19h2M23 20h1M29 20h1M51 20h2M30 21h1M36 21h1M48 21h3M60 21h1M37 22h1M47 22h1M61 22h1M43 23h1M61 23h1M43 24h1M61 24h1M42 25h1M61 25h1M42 26h1M62 26h1M41 27h1M41 28h1M63 28h1M26 29h3M40 29h1M29 30h2M38 30h2M31 31h6M58 31h1M14 32h3M37 32h2M54 32h1M60 32h1M39 33h1M40 34h1M14 35h1M40 35h3M13 36h1M41 36h1M50 36h1M7 37h1M12 37h1M26 37h1M41 37h1M51 37h1M54 37h1M6 38h1M12 38h1M25 38h1M41 38h1M51 38h1M54 38h1M6 39h1M11 39h1M25 39h1M42 39h1M52 39h1M5 40h1M11 40h1M25 40h1M52 40h1M55 40h1M5 41h1M10 41h1M24 41h1M52 41h1M4 42h1M10 42h1M24 42h1M53 42h2M1 43h1M4 43h1M10 43h1M24 43h1M53 43h1M56 43h1M1 44h1M4 44h1M24 44h1M53 44h1M1 45h1M9 45h1M23 45h1M53 45h1M0 46h1M3 46h1M9 46h1M23 46h1M0 47h1M3 47h1M9 47h1M23 47h1M59 47h1M0 48h1M3 48h1M9 48h1M23 48h1M60 48h1M0 49h1M3 49h1M9 49h1M42 51h1M53 51h1M41 52h1M60 53h1M0 54h1M3 55h1M9 55h1M41 55h1M52 55h1M23 56h1M59 56h1M1 57h1M24 57h1M51 57h1M4 58h1M10 58h1M40 58h1M58 58h1" />
<path stroke="#f8e8b0" d="M49 5h1M50 6h2M50 7h3M33 8h3M36 9h3M27 12h3M25 13h4M23 14h4M22 15h3M60 15h2M58 16h3M22 30h4M20 31h7M18 32h9M32 32h5M13 33h3M17 33h7M25 33h1M30 33h9M11 34h4M16 34h4M21 34h2M24 34h1M26 34h1M29 34h11M10 35h4M17 35h2M21 35h1M23 35h1M25 35h1M28 35h12M43 35h5M9 36h1M11 36h2M28 36h1M31 36h5M37 36h2M45 36h5M31 37h2M38 37h1M46 37h5M13 38h1M47 38h1M49 38h2M5 39h1M12 39h3M4 40h1M6 40h1M8 40h1M12 40h3M18 40h2M22 40h1M27 40h1M37 40h1M6 41h4M11 41h12M25 41h5M33 41h1M36 41h3M47 41h2M5 42h5M11 42h11M25 42h5M32 42h7M45 42h1M47 42h3M51 42h2M5 43h5M11 43h11M25 43h14M45 43h5M51 43h2M54 43h2M6 44h2M11 44h2M14 44h3M18 44h3M25 44h2M28 44h6M36 44h3M46 44h7M54 44h3M6 45h1M11 45h1M14 45h2M18 45h2M25 45h1M29 45h4M36 45h2M46 45h1M48 45h2M52 45h1M54 45h4M14 46h1M30 46h2M37 46h1M49 46h1M55 46h1M57 46h2M30 47h1M57 47h2" />
<path stroke="#f0e070" d="M53 7h1M51 8h5M35 9h1M39 9h3M48 9h3M52 9h5M37 10h21M41 11h17M30 12h2M37 12h17M58 12h1M29 13h23M27 14h1M34 14h17M52 14h1M25 15h1M37 15h13M51 15h1M21 16h4M40 16h7M48 16h1M50 16h1M52 16h1M61 16h1M20 17h2M39 17h6M49 17h1M51 17h1M57 17h4M19 18h1M38 18h4M56 18h5M55 19h5M54 20h5M53 21h5M52 22h6M51 23h6M50 24h7M48 25h8M60 25h1M43 26h12M60 26h2M42 27h12M60 27h2M42 28h10M61 28h2M41 29h10M61 29h2M26 30h3M40 30h11M62 30h1M27 31h4M38 31h12M27 32h3M39 32h11M24 33h1M26 33h3M40 33h10M20 34h1M23 34h1M25 34h1M27 34h1M41 34h2M48 34h2M15 35h2M19 35h2M22 35h1M24 35h1M26 35h1M10 36h1M14 36h12M27 36h1M29 36h2M36 36h1M39 36h2M42 36h3M8 37h4M13 37h13M27 37h4M33 37h5M39 37h2M42 37h4M7 38h5M14 38h11M26 38h15M42 38h5M48 38h1M7 39h4M15 39h10M26 39h15M43 39h9M7 40h1M9 40h2M15 40h3M20 40h2M23 40h2M26 40h1M28 40h9M38 40h3M43 40h9M3 41h2M23 41h1M30 41h3M34 41h2M39 41h2M43 41h4M49 41h3M3 42h1M22 42h2M30 42h2M39 42h2M43 42h2M46 42h1M50 42h1M2 43h2M22 43h2M39 43h1M43 43h2M50 43h1M2 44h2M5 44h1M8 44h1M10 44h1M13 44h1M17 44h1M21 44h2M27 44h1M34 44h2M39 44h1M44 44h2M2 45h2M5 45h1M7 45h2M10 45h1M12 45h2M16 45h2M20 45h3M24 45h1M26 45h3M33 45h3M38 45h2M44 45h2M47 45h1M50 45h2M1 46h2M4 46h5M10 46h4M15 46h7M24 46h6M32 46h5M38 46h2M44 46h5M50 46h3M54 46h1M56 46h1M1 47h2M4 47h5M10 47h12M24 47h6M31 47h8M44 47h9M54 47h3M1 48h2M4 48h5M10 48h11M24 48h15M45 48h7M55 48h5M1 49h2M4 49h5M10 49h11M24 49h15M45 49h7M55 49h4M1 50h2M4 50h5M10 50h3M14 50h7M25 50h13M45 50h6M56 50h3M1 51h2M4 51h5M10 51h3M14 51h6M24 51h14M46 51h4M56 51h2M1 52h2M4 52h5M10 52h3M15 52h2M18 52h2M25 52h7M33 52h4M46 52h4M56 52h2M1 53h1M5 53h3M11 53h2M15 53h2M18 53h1M24 53h1M26 53h5M33 53h4M46 53h3M4 54h1M6 54h1M10 54h1M12 54h1M16 54h1M25 54h1M27 54h4M33 54h3M5 55h1M7 55h1M11 55h1M24 55h1M26 55h4M33 55h2M6 56h1M12 56h1M25 56h1M27 56h1M29 56h1M5 57h1M11 57h1M13 57h1M26 57h1M28 57h1M12 58h1M25 58h1M27 58h1" />
<path stroke="#e0c068" d="M34 9h1M36 10h1M39 11h2M36 12h1M54 12h4M52 13h7M28 14h6M51 14h1M53 14h6M26 15h11M50 15h1M52 15h6M25 16h1M30 16h10M47 16h1M49 16h1M51 16h1M53 16h4M32 17h7M45 17h4M50 17h1M52 17h4M28 18h10M42 18h14M25 19h28M30 20h21M53 20h1M59 20h1M37 21h11M51 21h2M58 21h2M48 22h4M58 22h3M44 23h7M57 23h4M44 24h6M57 24h4M43 25h5M56 25h4M55 26h5M54 27h6M52 28h9M51 29h10M51 30h11M50 31h5M59 31h4M50 32h4M29 33h1M50 33h4M28 34h1M50 34h4M50 35h4M51 36h3M52 37h2M52 38h2M41 39h1M53 39h2M41 40h1M53 40h2M41 41h1M53 41h2M41 42h1M40 43h2M23 44h1M40 44h2M43 44h1M40 45h2M43 45h1M22 46h1M40 46h2M43 46h1M22 47h1M39 47h3M43 47h1M21 48h2M39 48h3M43 48h2M52 48h1M54 48h1M21 49h2M39 49h3M43 49h2M52 49h1M54 49h1M59 49h1M13 50h1M21 50h2M24 50h1M38 50h4M43 50h2M51 50h2M54 50h2M59 50h1M13 51h1M20 51h3M38 51h4M43 51h3M50 51h3M54 51h2M58 51h2M13 52h2M17 52h1M20 52h3M24 52h1M32 52h1M37 52h4M42 52h4M50 52h2M53 52h3M58 52h2M2 53h1M4 53h1M8 53h1M10 53h1M13 53h2M17 53h1M19 53h4M25 53h1M31 53h2M37 53h4M42 53h4M49 53h3M53 53h7M1 54h2M5 54h1M7 54h2M11 54h1M13 54h3M17 54h6M24 54h1M26 54h1M31 54h2M36 54h5M42 54h10M53 54h6M2 55h1M4 55h1M6 55h1M8 55h1M10 55h1M12 55h11M25 55h1M30 55h3M35 55h6M42 55h10M53 55h6M2 56h2M5 56h1M7 56h3M11 56h1M13 56h10M24 56h1M26 56h1M28 56h1M30 56h10M41 56h10M52 56h7M2 57h2M6 57h4M12 57h1M14 57h10M25 57h1M27 57h1M29 57h11M41 57h10M52 57h6M3 58h1M5 58h5M11 58h1M13 58h11M26 58h1M28 58h12M41 58h9M51 58h7M4 59h1M6 59h5M12 59h12M25 59h14M40 59h9M50 59h7" />
<path stroke="#101010" d="M58 11h1M59 12h1M59 13h1M62 15h1M27 16h2M62 16h1M23 17h2M61 17h1M18 18h1M20 18h2M61 18h1M18 19h2M60 19h1M24 20h5M60 20h1M31 21h5M38 22h9M62 27h1M63 29h1M63 30h1M55 31h3M63 31h1M61 32h2M54 33h1M54 34h1M54 35h1M54 36h1M42 40h1M42 41h1M55 41h1M42 42h1M55 42h1M42 43h1M42 44h1M42 45h1M42 46h1M53 46h1M42 47h1M53 47h1M42 48h1M53 48h1M23 49h1M42 49h1M53 49h1M60 49h1M0 50h1M3 50h1M9 50h1M23 50h1M42 50h1M53 50h1M60 50h1M0 51h1M3 51h1M9 51h1M23 51h1M60 51h1M0 52h1M3 52h1M9 52h1M23 52h1M52 52h1M60 52h1M0 53h1M3 53h1M9 53h1M23 53h1M41 53h1M52 53h1M3 54h1M9 54h1M23 54h1M41 54h1M52 54h1M59 54h1M1 55h1M23 55h1M59 55h1M1 56h1M4 56h1M10 56h1M40 56h1M51 56h1M4 57h1M10 57h1M40 57h1M58 57h1M2 58h1M24 58h1M50 58h1M3 59h1M5 59h1M11 59h1M24 59h1M39 59h1M49 59h1M57 59h1" />
</svg>