<svg xmlns="http://www.w3.org/2000/svg" viewBox="0 -0.5 64 64" shape-rendering="crispEdges">
<metadata>Made with Pixels to Svg https://codepen.io/shshaw/pen/XbxvNj</metadata>
<path stroke="#d66b6b" d="M31 14h2M30 15h1M33 15h2M35 16h1M36 20h2M36 21h4M36 22h5M36 23h6M37 24h6M37 25h6M37 26h7M37 27h8M16 28h4M38 28h8M15 29h1M20 29h3M38 29h5M45 29h1M38 30h4M38 31h4M39 32h3M43 32h1M39 33h4M44 33h1M38 34h5M44 34h5M22 35h7M37 35h6M44 35h4M49 35h2M24 36h5M36 36h7M44 36h4M50 36h1M25 37h4M36 37h8M45 37h4M51 37h1M26 38h3M35 38h9M45 38h4M28 39h2M32 39h1M34 39h10M45 39h5M29 40h1M31 40h1M33 40h1M35 40h10M46 40h4M30 41h1M32 41h1M34 41h11M46 41h5M33 42h1M35 42h10M46 42h5M33 43h17M34 44h14M34 45h13M34 46h5M40 46h6M33 47h5M42 47h2M32 48h5M31 49h5M30 50h5M30 51h5M29 52h5M28 53h6M30 54h4M20 55h1M18 56h1M20 56h1M16 57h3M20 57h4M15 58h4M20 58h5M14 59h6M21 59h6M12 60h1M14 60h4M21 60h7M30 60h7M43 60h2M11 61h1M14 61h3M22 61h16M43 61h3M50 61h1M15 62h1M23 62h16M42 62h10M24 63h28" />
<path stroke="#ffad84" d="M31 15h2M31 16h4M33 17h2M35 18h1M16 29h4M16 30h7M21 31h4" />
<path stroke="#734a31" d="M30 16h1M30 17h1M36 17h1M31 18h1M37 18h1M38 19h1M32 22h1M46 28h1M23 29h1M44 29h1M15 30h1M24 30h4M32 30h1M47 31h1M48 32h1M19 33h1M30 33h1M43 33h1M19 34h1M29 35h1M51 35h1M23 36h1M23 37h1M44 37h1M52 37h1M27 39h1M30 39h1M27 40h1M51 41h1M45 42h1M47 45h1M39 46h1M38 47h1M41 47h1M37 48h1M36 49h1M26 50h1M35 50h1M23 51h1M29 51h1M35 51h1M22 52h1M28 52h1M34 52h1M34 53h1M27 54h1M34 54h1M21 55h1M25 55h2M34 55h1M21 56h4M35 56h1M35 57h1M45 57h2M36 58h1M44 58h1M13 59h1M20 59h1M36 59h1M43 59h1M37 60h1M42 60h1M38 61h1M42 61h1M10 62h1M39 62h3M15 63h1" />
<path stroke="#ff844a" d="M31 17h2M35 17h1M32 18h3M36 18h1M32 19h6M32 20h4M38 20h1M32 21h4M33 22h3M33 23h3M33 24h4M33 25h4M34 26h3M34 27h3M34 28h4M34 29h4M23 30h1M34 30h4M43 30h2M46 30h1M17 31h4M25 31h3M32 31h6M43 31h3M18 32h13M32 32h7M44 32h4M20 33h10M31 33h8M45 33h4M21 34h9M31 34h7M49 34h1M30 35h7M30 36h6M30 37h6M30 38h5M31 39h1M33 39h1M32 40h1M34 40h1M33 41h1M32 42h1M34 42h1M21 53h1M20 54h1M28 54h2M27 55h1M30 55h4M25 56h2M31 56h4M24 57h3M31 57h4M47 57h1M25 58h2M31 58h5M45 58h4M31 59h5M44 59h6M13 60h1M45 60h6M12 61h2M46 61h4M11 62h4M10 63h5" />
<path stroke="#181818" d="M31 19h1M31 20h1M39 20h1M31 21h1M40 21h1M41 22h1M32 23h1M42 23h1M32 24h1M32 25h1M43 25h1M33 26h1M44 26h1M33 27h1M45 27h1M33 28h1M33 29h1M43 29h1M46 29h1M33 30h1M42 30h1M45 30h1M47 30h1M16 31h1M28 31h4M42 31h1M46 31h1M17 32h1M31 32h1M42 32h1M18 33h1M49 33h1M20 34h1M30 34h1M43 34h1M50 34h1M21 35h1M43 35h1M22 36h1M29 36h1M43 36h1M51 36h1M24 37h1M29 37h1M25 38h1M29 38h1M44 38h1M52 38h1M26 39h1M44 39h1M52 39h1M28 40h1M30 40h1M45 40h1M52 40h1M29 41h1M31 41h1M45 41h1M30 42h2M51 42h1M32 43h1M50 43h1M33 44h1M48 44h2M33 45h1M33 46h1M46 46h1M32 47h1M44 47h2M31 48h1M40 48h4M30 49h1M39 49h1M27 50h3M39 50h1M24 51h2M40 51h1M21 52h1M41 52h1M20 53h1M42 53h1M19 54h1M18 55h2M45 55h2M16 56h2M19 56h1M47 56h1M15 57h1M19 57h1M48 57h1M14 58h1M19 58h1M49 58h1M50 59h1M18 60h3M51 60h1M17 61h1M21 61h1M51 61h1M16 62h1M22 62h1M52 62h1M9 63h1M23 63h1M52 63h1" />
<path stroke="#73d6ad" d="M48 35h1M49 36h1M49 37h2M50 38h2M50 39h2M28 56h2M27 57h4M27 58h4M27 59h4M28 60h2" />
<path stroke="#52ad7b" d="M48 36h1M49 38h1M50 40h2M28 55h2M27 56h1M30 56h1M18 61h3M17 62h4M16 63h4" />
<path stroke="#73736b" d="M39 47h2M38 48h2M37 49h2M36 50h3M26 51h3M36 51h4M25 52h3M35 52h6M26 53h2M35 53h7M43 53h1M35 54h6M44 54h1M42 59h1M38 60h4M39 61h3" />
<path stroke="#9c9c84" d="M23 52h2M22 53h4M21 54h6M41 54h3M22 55h3M35 55h10M36 56h11M36 57h9M37 58h7M37 59h5" />
<path stroke="#39635a" d="M21 62h1M20 63h1" />
</svg>