<svg xmlns="http://www.w3.org/2000/svg" viewBox="0 -0.5 64 64" shape-rendering="crispEdges">
<metadata>Made with Pixels to Svg https://codepen.io/shshaw/pen/XbxvNj</metadata>
<path stroke="#50a878" d="M53 9h4M52 10h1M58 10h2M51 11h1M60 11h1M51 14h2M52 15h4M50 16h1M52 16h5M61 16h2M52 17h3M56 17h2M60 17h1M51 18h4M56 18h4M51 19h3M56 19h4M51 20h3M55 20h5M51 21h3M55 21h5M51 22h2M55 22h4M49 23h1M54 23h3M54 24h1M53 25h1M51 26h2M50 27h2M27 28h2M49 28h1M25 29h5M47 29h1M25 30h4M45 30h1M24 31h4M43 31h1M41 32h1M39 33h1M18 38h2M16 39h2M12 40h1M15 40h1M9 43h1M8 45h1M10 48h1M10 49h1M11 50h1M12 51h1M13 52h1M13 53h1" />
<path stroke="#c06840" d="M25 10h1M23 11h2M27 11h1M22 12h1M26 12h4M26 13h6M25 14h7M14 15h2M18 15h2M25 15h8M51 15h1M13 16h1M25 16h8M51 16h1M12 17h1M24 17h10M50 17h2M55 17h1M13 18h1M24 18h9M37 18h1M50 18h1M55 18h1M13 19h3M24 19h9M41 19h1M50 19h1M54 19h2M14 20h4M23 20h10M50 20h1M54 20h1M16 21h2M23 21h9M50 21h1M54 21h1M19 22h1M23 22h9M36 22h1M50 22h1M53 22h2M19 23h2M23 23h9M33 23h4M42 23h1M51 23h3M20 24h12M33 24h9M21 25h12M34 25h4M21 26h11M22 27h5M29 31h3M23 32h1M28 32h5M35 32h3M24 33h14M25 34h13M26 35h6M33 35h5M17 36h1M26 36h5M33 36h4M6 37h1M13 37h4M25 37h6M33 37h4M4 38h1M20 38h11M32 38h2M35 38h1M20 39h14M35 39h1M18 40h15M34 40h1M1 41h1M21 41h6M29 41h4M22 42h4M29 42h5M0 43h1M23 43h3M28 43h4M23 44h9M24 45h7M24 46h6M1 47h2M16 47h2M25 47h5M2 48h1M15 48h1M2 49h2M14 49h1M37 49h1M3 50h3M14 50h1M19 50h2M36 50h2M5 51h3M14 51h1M19 51h2M35 51h3M7 52h2M18 52h3M34 52h5M18 53h4M23 53h4M35 53h4M17 54h5M23 54h6M35 54h4" />
<path stroke="#704830" d="M26 10h2M28 11h2M30 12h1M21 13h1M20 14h1M32 14h1M16 15h2M20 15h1M33 15h1M19 16h1M33 16h1M19 17h1M34 17h3M12 18h1M19 18h1M33 18h1M38 18h3M12 19h1M18 19h1M33 19h1M42 19h1M13 20h1M18 20h1M43 20h1M14 21h2M18 21h1M32 21h1M43 21h1M16 22h3M32 22h4M18 23h1M32 23h1M37 23h5M19 24h1M32 24h1M20 25h1M33 25h1M38 25h1M20 26h1M32 26h1M36 26h1M21 27h1M30 29h5M29 30h1M35 30h2M21 31h3M28 31h1M37 31h1M19 32h2M24 32h4M38 32h1M18 33h1M17 34h1M16 35h1M10 36h7M7 37h3M17 37h1M32 37h1M5 38h1M11 38h1M15 38h1M31 38h1M3 39h1M7 39h1M34 39h1M2 40h1M18 41h3M28 41h1M33 41h1M1 42h1M20 42h1M28 42h1M3 43h1M21 43h1M26 43h2M0 44h1M2 44h1M22 44h1M0 45h1M2 45h1M23 45h1M34 45h2M0 46h1M2 46h1M23 46h1M33 46h1M36 46h1M0 47h1M3 47h1M24 47h1M33 47h1M1 48h1M3 48h1M19 48h1M25 48h4M31 48h2M4 49h2M20 49h1M22 49h2M38 49h1M6 50h2M21 50h1M8 51h1M21 51h1M9 52h1M21 52h1M24 52h1M32 52h1M39 52h1M7 53h1M9 53h1M22 53h1M27 53h8M9 54h1M22 54h1M34 54h1" />
<path stroke="#70d0a8" d="M53 10h4M52 11h4M57 11h3M52 12h3M56 12h5M51 13h3M55 13h4M53 14h1M55 14h2M59 14h3M57 15h6M57 16h4M58 17h2M14 18h2M16 19h2M33 21h3M37 22h4M52 24h2M51 25h2M50 26h1M48 27h2M47 28h2M45 29h2M24 30h1M44 30h1M41 31h2M39 32h2M14 40h1M12 41h2M11 42h2M10 43h2M10 44h1M9 45h1M9 46h1M9 47h1M12 54h1" />
<path stroke="#386058" d="M57 10h1M56 11h1M51 12h1M55 12h1M61 12h1M50 13h1M54 13h1M59 13h3M50 14h1M54 14h1M57 14h2M62 14h1M50 15h1M56 15h1M63 15h1M49 16h1M63 16h1M49 17h1M61 17h2M49 18h1M60 18h1M49 19h1M49 20h1M49 21h1M49 22h1M48 23h1M48 24h1M47 25h1M54 25h1M46 26h1M45 27h1M43 28h2M24 29h1M40 29h3M49 29h1M23 30h1M37 30h3M47 30h1M45 31h1M43 32h1M41 33h1M18 37h2M16 38h2M14 39h2M18 39h2M13 40h1M16 40h2M11 41h1M10 42h1M9 44h1M10 45h1M8 46h1M8 47h1M9 48h1M11 48h1M11 49h1M12 50h1M11 51h1M13 51h1M12 52h1M14 52h1M12 53h1M14 53h1M11 54h1M13 54h1" />
<path stroke="#f88048" d="M25 11h2M23 12h3M22 13h4M21 14h4M21 15h4M14 16h5M20 16h5M13 17h6M20 17h4M16 18h3M20 18h4M34 18h3M19 19h5M34 19h7M19 20h4M33 20h10M19 21h4M36 21h7M20 22h3M41 22h2M21 23h2M50 23h1M49 24h3M48 25h3M47 26h3M46 27h2M45 28h2M43 29h2M30 30h5M40 30h4M32 31h5M38 31h3M21 32h2M33 32h2M19 33h5M18 34h7M17 35h9M18 36h8M10 37h3M20 37h5M6 38h5M4 39h3M3 40h2M2 41h2M2 42h1M21 42h1M1 43h2M22 43h1M1 44h1M1 45h1M1 46h1M34 46h2M34 47h3M16 48h3M33 48h4M15 49h5M31 49h6M15 50h4M31 50h5M15 51h4M31 51h4M15 52h3M22 52h2M33 52h1M8 53h1M15 53h3M8 54h1M14 54h3M29 54h5" />
<path stroke="#181818" d="M60 19h1M60 20h1M60 21h1M43 22h1M59 22h1M43 23h1M57 23h2M42 24h1M55 24h2M39 25h2M33 26h3M53 26h1M27 27h5M52 27h1M22 28h5M29 28h1M50 28h2M48 29h1M46 30h1M44 31h1M42 32h1M38 33h1M40 33h1M38 34h2M38 35h1M37 36h1M12 38h3M36 38h1M8 39h3M36 39h1M5 40h2M35 40h1M4 41h1M14 41h2M34 41h1M3 42h1M13 42h1M12 43h1M32 43h1M11 44h1M32 44h1M31 45h1M10 46h1M30 46h1M10 47h1M30 47h1M37 47h1M24 48h1M29 48h1M37 48h1M1 49h1M9 49h1M24 49h1M26 49h1M28 49h1M30 49h1M2 50h1M10 50h1M24 50h1M26 50h1M28 50h1M30 50h1M38 50h1M3 51h2M24 51h1M26 51h1M28 51h1M30 51h1M38 51h1M5 52h2M25 52h1M29 52h1M31 52h1M39 53h1M7 54h1M39 54h1" />
<path stroke="#0030c0" d="M32 35h1M31 36h2M31 37h1M34 38h1M33 40h1M27 41h1M26 42h2" />
<path stroke="#707068" d="M25 49h1M27 49h1M29 49h1M22 50h2M25 50h1M27 50h1M29 50h1M22 51h2M25 51h1M27 51h1M29 51h1M26 52h3M30 52h1" />
</svg>