<svg xmlns="http://www.w3.org/2000/svg" viewBox="0 -0.5 64 64" shape-rendering="crispEdges">
<metadata>Made with Pixels to Svg https://codepen.io/shshaw/pen/XbxvNj</metadata>
<path stroke="#c8c8c8" d="M52 9h2M51 10h1M8 11h2M50 11h1M10 12h2M49 12h1M12 13h1" />
<path stroke="#f8f8f8" d="M52 10h2M51 11h3M9 12h1M50 12h3M10 13h2M49 13h4M11 14h2M48 14h4M12 15h2M47 15h5M12 16h3M48 16h4M13 17h1M49 17h2M48 41h1M48 42h1M48 43h1M48 44h2M48 45h2M48 46h2M49 47h1" />
<path stroke="#c86860" d="M54 10h1M30 12h4M28 13h2M35 13h1M48 13h1M13 14h1M27 14h1M47 14h1M14 15h1M46 15h1M15 16h1M32 16h1M44 17h2M32 18h1M33 19h1M51 19h1M30 20h5M50 20h2M27 21h2M33 21h2M42 21h1M50 21h1M24 22h3M49 22h2M22 23h2M37 23h1M48 23h2M14 24h4M39 24h1M48 24h1M14 25h6M47 25h2M15 26h3M46 26h2M16 27h1M45 27h3M44 28h3M43 29h3M42 30h3M41 31h2M41 32h4M42 33h3M42 34h3M43 35h1M47 46h1M39 49h1M41 49h1M43 49h1M51 49h1M38 50h1M40 50h1M42 50h4M53 50h1M39 51h1M41 51h1M43 51h5M40 52h1M42 52h8M54 52h1M39 53h6M46 53h8M39 54h7M49 54h3M38 55h11" />
<path stroke="#101010" d="M54 11h1M54 12h1M8 13h1M54 13h1M8 14h1M9 15h1M53 15h1M9 16h1M27 16h1M53 16h1M27 17h1M10 18h1M28 18h1M39 18h1M10 19h1M29 19h3M52 19h1M29 20h1M40 20h1M52 20h1M11 21h1M40 21h1M34 22h2M40 22h1M51 22h1M12 23h1M20 23h1M36 23h1M50 23h1M38 24h1M13 25h1M39 25h1M49 25h1M14 26h1M15 27h1M48 27h1M16 28h1M47 28h1M15 29h1M46 29h1M14 31h1M14 32h1M47 34h1M13 35h1M47 35h1M13 36h1M13 37h1M48 37h1M13 38h1M48 38h1M12 41h1M12 42h1M12 43h1M12 44h1M50 45h1M50 46h1M11 47h1M50 47h1M11 48h1M11 49h1M10 51h1M10 52h1M55 52h1M54 53h1M47 54h2M52 54h2M9 55h1M50 55h2" />
<path stroke="#984848" d="M8 12h1M34 13h1M28 14h1M36 14h1M54 14h1M27 15h1M37 15h1M38 16h1M45 16h1M9 17h1M16 17h1M33 17h1M39 17h1M53 17h1M17 18h1M33 18h1M44 18h1M52 18h1M18 19h1M32 19h1M40 19h1M43 19h1M10 20h1M19 20h1M42 20h1M19 21h1M29 21h4M41 21h1M51 21h1M11 22h1M20 22h1M33 22h1M41 22h1M40 23h1M12 24h1M21 24h1M40 24h1M49 24h1M18 26h1M39 26h1M48 26h1M17 27h1M39 27h1M15 30h1M45 30h1M43 31h2M46 31h1M46 32h1M14 33h1M47 33h1M13 34h1M48 36h1M13 39h1M48 39h1M12 40h1M49 40h1M49 41h1M49 42h1M49 43h1M50 44h1M12 45h1M11 46h1M48 47h1M49 48h2M52 49h1M11 50h1M54 50h1M55 51h1M10 53h1M45 53h1M9 54h1M46 54h1M49 55h1" />
<path stroke="#f8d8c8" d="M30 13h4M29 14h5M30 15h3" />
<path stroke="#f8c0a8" d="M34 14h2M28 15h2M33 15h4M28 16h1M33 16h2M46 16h2M14 17h2M46 17h1M15 18h2M45 18h1M16 19h2M44 19h1M17 20h2M18 21h1M18 22h2M27 22h5M19 23h1M24 23h12M23 24h15M22 25h17M22 26h16M23 27h4M28 27h1M30 27h7M25 28h1M27 28h1M29 28h1M31 28h3M26 29h1M28 29h1M30 29h1M48 40h1M50 50h3M50 51h5" />
<path stroke="#f09090" d="M29 16h3M35 16h3M28 17h5M34 17h5M47 17h2M13 18h2M29 18h3M34 18h5M46 18h4M12 19h4M34 19h6M45 19h6M11 20h6M35 20h5M43 20h7M12 21h6M35 21h5M43 21h7M12 22h6M32 22h1M36 22h4M42 22h7M13 23h6M38 23h2M41 23h7M13 24h1M18 24h3M22 24h1M41 24h7M20 25h2M40 25h7M19 26h3M38 26h1M40 26h6M18 27h5M27 27h1M29 27h1M37 27h2M40 27h5M17 28h8M26 28h1M28 28h1M30 28h1M34 28h10M16 29h10M27 29h1M29 29h1M31 29h12M16 30h26M15 31h26M45 31h1M15 32h26M45 32h1M15 33h27M45 33h2M14 34h28M45 34h2M14 35h29M44 35h3M14 36h34M14 37h34M14 38h34M14 39h34M13 40h35M13 41h35M13 42h35M13 43h35M13 44h35M13 45h35M12 46h35M12 47h36M12 48h37M12 49h27M40 49h1M42 49h1M44 49h7M12 50h26M39 50h1M41 50h1M46 50h4M11 51h28M40 51h1M42 51h1M48 51h2M11 52h29M41 52h1M50 52h4M11 53h28M10 54h29M10 55h28" />
</svg>