<svg xmlns="http://www.w3.org/2000/svg" viewBox="0 -0.5 64 64" shape-rendering="crispEdges">
<metadata>Made with Pixels to Svg https://codepen.io/shshaw/pen/XbxvNj</metadata>
<path stroke="#a88028" d="M20 13h3M19 14h1M23 14h1M42 14h4M40 15h2M46 15h1M39 16h1M19 17h1M28 17h6M26 18h2M20 19h1M25 19h1M44 22h1M43 24h1M18 32h1M16 33h2M14 34h4M44 35h1M45 36h2M23 38h1M26 38h3M27 39h5M21 40h1M27 40h7M21 41h1M26 41h7M21 42h1M26 42h7M22 43h1M26 43h6M24 44h6M21 46h1M45 47h1M47 47h1M42 48h1M44 48h1M48 48h1" />
<path stroke="#f0f0a0" d="M20 14h2M21 15h2M42 15h4M40 16h5M41 17h2M28 18h6M27 19h8M26 20h9M25 21h10M26 22h7M13 45h1M46 47h1M30 48h1M47 48h1M27 49h1M29 49h1M31 49h1M48 49h1M26 50h3M30 50h1M32 50h1M27 51h3M31 51h1M33 51h1" />
<path stroke="#f8e828" d="M22 14h1M20 15h1M23 15h2M20 16h5M20 17h4M38 17h3M43 17h1M20 18h4M37 18h6M21 19h3M26 19h1M35 19h7M21 20h5M35 20h7M21 21h4M35 21h6M21 22h5M33 22h8M20 23h21M20 24h21M19 25h20M40 25h1M19 26h17M37 26h1M39 26h1M19 27h16M36 27h1M38 27h1M20 28h16M37 28h1M39 28h1M20 29h15M36 29h1M38 29h1M21 30h13M25 31h7M16 43h2M21 43h1M43 43h1M16 44h2M21 44h3M42 44h3M15 45h2M21 45h9M42 45h3M13 46h1M15 46h2M18 46h1M20 46h1M22 46h5M42 46h3M13 47h2M17 47h1M20 47h1M23 47h2M27 47h4M41 47h1M43 47h2M14 48h4M19 48h2M26 48h4M31 48h1M39 48h1M41 48h1M45 48h2M19 49h2M25 49h2M28 49h1M30 49h1M32 49h2M38 49h3M42 49h6M19 50h1M29 50h1M31 50h1M33 50h3M40 50h1M46 50h4M30 51h1M32 51h1M34 51h5M47 51h3" />
<path stroke="#805810" d="M24 14h1M19 15h1M25 15h1M19 16h1M38 16h1M35 18h1M46 18h1M20 21h1M45 21h1M19 22h1M44 23h1M19 24h1M18 25h1M43 27h1M18 28h1M44 28h1M19 29h1M44 29h1M16 40h1M19 41h1M15 42h1M19 42h1M40 42h1M44 42h1M15 43h1M18 43h1M13 44h2M18 44h1M41 44h1M45 44h1M12 45h1M14 45h1M39 45h1M17 46h1M27 46h5M38 46h1M46 46h1M25 47h1M32 47h2M37 47h1M40 47h1M24 48h1M34 48h1M40 48h1M43 48h1M35 49h2M41 49h1M13 50h1M21 50h1M37 50h3M22 51h1M40 51h4" />
<path stroke="#d8c820" d="M25 16h1M45 16h1M24 17h3M34 17h1M44 17h2M24 18h2M34 18h1M43 18h1M45 18h1M24 19h1M42 19h1M42 20h1M44 20h1M41 21h1M44 21h1M20 22h1M41 22h1M43 22h1M41 23h3M41 24h2M39 25h1M41 25h2M36 26h1M38 26h1M40 26h3M35 27h1M37 27h1M39 27h4M19 28h1M36 28h1M38 28h1M40 28h4M35 29h1M37 29h1M39 29h5M34 30h10M23 31h2M32 31h7M32 32h5M17 39h1M17 40h2M43 40h1M16 41h3M41 41h3M16 42h3M41 42h3M38 43h1M41 43h2M44 43h1M15 44h1M35 44h4M17 45h2M30 45h9M32 46h6M18 47h1M22 47h1M31 47h1M34 47h3M13 48h1M22 48h2M25 48h1M32 48h2M35 48h1M14 49h4M23 49h1M34 49h1M14 50h3M18 50h1M20 50h1M24 50h2M36 50h1M42 50h4M15 51h2M18 51h4M24 51h3M39 51h1M44 51h3" />
<path stroke="#101010" d="M26 16h1M46 16h1M27 17h1M37 17h1M46 17h1M36 18h1M45 19h1M20 20h1M45 20h1M19 23h1M43 25h1M18 26h1M43 26h1M18 27h1M44 30h1M44 31h1M25 32h5M23 33h13M13 34h1M22 34h14M13 35h1M22 35h14M14 36h1M22 36h14M15 37h1M22 37h14M48 37h1M16 38h2M21 38h1M30 38h7M46 38h2M16 39h1M19 39h2M33 39h5M44 39h2M19 40h1M38 40h5M44 40h1M40 41h1M44 41h1M20 42h1M20 43h1M39 43h1M20 44h1M39 44h1M41 45h1M45 45h1M12 46h1M14 46h1M41 46h1M45 46h1M12 47h1M15 47h2M19 47h1M21 47h1M26 47h1M38 47h2M42 47h1M12 48h1M21 48h1M36 48h3M13 49h1M18 49h1M21 49h2M24 49h1M37 49h1M49 49h1M22 50h2M41 50h1M50 50h1M14 51h1M17 51h1M23 51h1M50 51h1" />
<path stroke="#906810" d="M44 18h1M43 19h2M43 20h1M42 21h2M42 22h1M15 31h2M19 31h2M14 32h1M19 32h4M31 32h1M39 32h5M18 33h4M37 33h6M18 34h4M36 34h8M14 35h8M36 35h8M15 36h6M36 36h9M16 37h5M37 37h11M18 38h3M37 38h9M38 39h5M33 41h5M33 42h5M32 43h6M30 44h5" />
<path stroke="#603000" d="M17 30h4M21 31h2M39 31h5M23 32h2M30 32h1M37 32h2M44 32h2M13 33h1M22 33h1M36 33h1M46 33h1M47 34h1M48 35h1M21 36h1M48 36h1M21 37h1M36 37h1M22 38h1M29 38h1M18 39h1M21 39h1M32 39h1M43 39h1M34 40h4M20 41h1M38 41h1M38 42h1M19 45h2M19 46h1M18 48h1M17 50h1" />
<path stroke="#d0b050" d="M17 31h2M15 32h3M14 33h2M43 33h3M44 34h3M45 35h3M47 36h1M24 38h2M22 39h5M22 40h5M22 41h4M22 42h4M23 43h3" />
</svg>