<svg xmlns="http://www.w3.org/2000/svg" viewBox="0 -0.5 64 64" shape-rendering="crispEdges">
<metadata>Made with Pixels to Svg https://codepen.io/shshaw/pen/XbxvNj</metadata>
<path stroke="#708050" d="M38 13h3M36 14h2M31 16h1M31 17h1M38 17h1M30 18h1M32 18h1M38 18h1M30 19h1M38 19h2M42 19h2M33 20h1M41 21h1M29 22h1M35 22h1M39 22h3M33 23h3M38 23h4M32 24h5M38 24h1M29 25h1M31 25h6M29 26h7M29 27h7M28 28h9M33 29h4M31 30h1M39 30h1M22 31h2M30 31h3M29 32h3M39 32h2M37 33h1M39 33h4M18 34h3M22 34h2M37 34h3M42 34h2M47 34h1M15 35h1M21 35h4M36 35h4M48 35h1M14 36h1M19 36h7M37 36h3M13 37h1M19 37h8M38 37h2M13 38h1M19 38h8M50 38h1M12 39h1M18 39h7M48 39h3M12 40h1M17 40h6M30 40h2M37 40h3M49 40h3M13 41h1M17 41h5M31 41h2M36 41h5M50 41h2M19 42h2M28 42h3M32 42h10M49 42h1M51 42h1M14 43h1M20 43h1M27 43h18M47 43h4M9 44h1M26 44h25M8 45h1M24 45h28M25 46h15M44 46h8M53 46h1M28 47h10M46 47h6M53 47h1M8 48h1M13 48h2M27 48h10M43 48h1M47 48h5M53 48h2M7 49h1M26 49h10M41 49h2M48 49h6M11 50h1M18 50h2M21 50h1M23 50h12M36 50h1M41 50h2M49 50h4M17 51h17M41 51h2M49 51h3" />
<path stroke="#504810" d="M41 13h1M32 15h2M35 15h1M37 15h1M34 16h1M38 16h1M40 16h1M34 17h1M33 18h1M31 19h1M40 19h1M44 19h1M30 20h1M32 20h1M41 20h1M45 20h1M30 21h2M42 21h1M46 21h1M36 22h1M42 22h1M29 23h1M36 23h2M42 23h2M29 24h1M37 24h1M39 24h1M28 25h1M27 28h1M26 29h2M32 29h1M24 30h2M32 30h1M24 31h1M33 31h1M39 31h1M20 32h2M32 32h1M41 32h1M18 33h2M38 33h1M43 33h1M16 34h2M21 34h1M40 34h2M44 34h3M18 35h3M42 35h2M25 39h1M47 39h1M23 40h2M28 40h1M48 40h1M12 41h1M22 41h1M49 41h1M11 42h1M13 42h1M21 42h1M31 42h1M50 42h1M13 43h1M21 43h1M10 44h1M8 46h1M40 46h4M8 47h1M38 47h2M44 47h2M52 47h1M15 48h2M37 48h1M52 48h1M55 48h1M12 49h1M17 49h1M36 49h4M54 49h1M7 50h1M20 50h1M35 50h1M40 50h1M53 50h2M7 51h1M11 51h1M34 51h1M40 51h1M43 51h1M52 51h3" />
<path stroke="#c0d080" d="M38 14h4M32 16h1M31 18h1M42 20h3M45 21h1M26 30h1M28 30h1M25 31h1M34 31h1M36 31h1M33 32h1M35 32h1M16 35h2M44 35h1M15 36h3M42 36h4M14 37h3M43 37h3M14 38h3M44 38h2M13 39h2M13 40h1M25 40h3M23 41h6M22 42h5M22 43h4M11 44h1M9 45h3M9 46h3M9 47h1M40 47h3M9 48h1M38 48h5M44 48h2M8 49h2M13 49h3M43 49h4M8 50h1M12 50h4M37 50h2M43 50h2M8 51h1M12 51h3M35 51h4" />
<path stroke="#101010" d="M42 14h1M42 15h1M41 16h1M39 17h1M39 18h1M46 22h1M44 23h2M40 24h2M37 25h2M28 26h1M36 26h1M28 27h1M36 27h1M37 28h1M28 29h4M37 29h1M33 30h6M40 31h1M42 32h1M49 36h1M50 37h1M51 38h1M26 39h2M51 39h1M29 40h1M52 40h1M30 41h1M52 41h1M52 42h1M11 43h1M51 43h1M51 44h1M52 45h2M52 46h1M54 46h1M54 47h1M46 48h1M18 49h2M47 49h1M55 49h1M48 50h1M55 50h1M48 51h1M55 51h1" />
<path stroke="#a0b070" d="M36 15h1M38 15h4M33 16h1M35 16h3M39 16h1M32 17h2M35 17h3M34 18h4M32 19h6M31 20h1M34 20h7M32 21h9M43 21h2M30 22h5M37 22h2M43 22h3M30 23h3M30 24h2M30 25h1M27 30h1M29 30h2M26 31h4M35 31h1M37 31h2M22 32h7M34 32h1M36 32h3M20 33h17M24 34h13M25 35h11M40 35h2M45 35h3M18 36h1M26 36h11M40 36h2M46 36h3M17 37h2M27 37h11M40 37h3M46 37h4M17 38h2M27 38h17M46 38h4M15 39h3M28 39h19M14 40h3M32 40h5M40 40h8M14 41h3M29 41h1M33 41h3M41 41h8M12 42h1M14 42h5M27 42h1M42 42h7M12 43h1M15 43h5M26 43h1M45 43h2M12 44h14M12 45h12M12 46h13M10 47h18M43 47h1M10 48h3M17 48h10M10 49h2M16 49h1M20 49h6M40 49h1M9 50h2M16 50h2M22 50h1M39 50h1M45 50h3M9 51h2M15 51h2M39 51h1M44 51h4" />
</svg>