<svg xmlns="http://www.w3.org/2000/svg" viewBox="0 -0.5 64 64" shape-rendering="crispEdges">
<metadata>Made with Pixels to Svg https://codepen.io/shshaw/pen/XbxvNj</metadata>
<path stroke="#7868c0" d="M39 10h2M38 11h1M41 11h1M42 12h1M18 13h3M42 13h1M17 14h1M21 14h2M43 14h1M23 15h1M43 15h1M24 16h1M25 17h1M42 18h1M18 19h1M33 19h3M43 19h1M31 20h2M43 20h1M22 21h1M29 21h2M43 21h1M23 22h1M44 22h1M27 23h1M26 24h1M20 25h1M23 25h1M42 26h1M46 27h1M46 28h1M45 29h2M44 30h3M41 31h7M13 32h4M40 32h8M11 33h2M40 33h6M10 34h1M26 34h1M38 34h8M36 35h12M36 36h11M13 37h3M38 37h8M12 38h1M39 38h5M41 40h3M16 41h2M42 41h5M10 42h1M15 42h1M42 42h4M8 43h1M15 43h1M43 43h2M43 44h2M43 45h2M44 46h3M44 47h5M4 48h1M9 48h1M44 48h7M53 48h1M9 49h2M46 49h6M53 49h1M2 50h1M49 50h2" />
<path stroke="#e0e8e0" d="M39 11h2M39 12h3M40 13h2M18 14h3M41 14h2M18 15h5M39 15h2M42 15h1M19 16h5M39 16h2M42 16h2M20 17h5M39 17h3M43 17h1M19 18h1M21 18h5M40 18h2M43 18h2M19 19h1M21 19h5M40 19h3M44 19h1M20 20h1M22 20h4M40 20h3M44 20h1M20 21h2M23 21h3M41 21h2M44 21h1M21 22h2M24 22h1M41 22h3M21 23h3M41 23h3M22 24h1M41 24h3M21 25h1M42 25h2M13 33h4M11 34h8M10 35h10M10 36h11M32 36h1M9 37h4M16 37h5M26 37h1M9 38h3M17 38h5M37 38h1M9 39h4M18 39h4M38 39h1M10 40h2M18 40h5M39 40h1M18 41h5M40 41h1M9 42h1M17 42h3M22 42h1M9 43h3M16 43h3M23 43h1M41 43h1M9 44h10M23 44h1M8 45h10M7 46h11M41 46h2M8 47h9M41 47h2M5 48h3M10 48h7M41 48h2M4 49h5M11 49h5M17 49h1M41 49h2M3 50h4M11 50h6M18 50h1M41 50h2M3 51h3M11 51h5M17 51h1M41 51h2M3 52h2M12 52h3M16 52h1M18 52h1M40 52h2M4 53h1M13 53h3M17 53h1M40 53h2" />
<path stroke="#504078" d="M38 12h1M39 14h2M17 15h1M38 15h1M41 15h1M18 16h1M41 16h1M44 16h1M18 17h2M42 17h1M44 17h1M18 18h1M20 18h1M26 18h1M45 18h1M36 19h3M45 19h1M19 20h1M27 20h1M39 20h1M45 20h1M19 21h1M46 21h1M20 22h1M28 22h1M20 23h1M21 24h1M40 24h1M22 25h1M26 25h1M39 25h1M41 25h1M20 26h1M25 26h1M46 26h1M20 27h1M25 27h1M45 27h1M21 28h1M24 28h1M40 28h1M47 28h1M22 29h1M24 29h1M47 29h1M47 30h1M48 31h1M48 32h1M17 33h2M25 33h1M48 33h1M19 34h1M48 34h1M9 35h1M20 35h1M9 36h1M8 37h1M21 37h1M16 38h1M22 38h1M8 39h1M40 39h2M44 39h1M9 40h1M23 40h1M47 41h2M49 42h2M24 43h1M51 43h1M8 44h1M52 44h1M7 45h1M5 46h1M4 47h4M24 47h1M3 48h1M8 48h1M3 49h1M52 49h1M23 50h1M48 50h1M2 51h1M49 51h1M2 52h1M10 52h1M24 52h1M3 53h1" />
<path stroke="#101010" d="M39 13h1M38 16h1M38 17h1M39 18h1M20 19h1M26 19h1M39 19h1M21 20h1M27 21h1M40 21h1M40 22h1M46 22h1M40 23h1M46 23h1M46 24h1M46 25h1M39 26h1M39 27h1M45 28h1M23 29h1M40 29h1M44 29h1M24 30h1M41 30h3M24 31h1M24 32h1M25 34h1M21 36h1M47 36h1M28 37h1M36 37h1M46 37h1M8 38h1M38 38h1M44 38h2M17 39h1M22 39h1M39 39h1M42 39h2M17 40h1M27 40h1M40 40h1M44 40h3M9 41h1M23 41h1M28 41h1M11 42h1M16 42h1M23 42h1M41 42h1M12 43h3M24 44h1M31 44h1M42 44h1M24 45h1M32 45h1M36 45h1M42 45h1M53 45h1M24 46h1M32 46h2M54 46h2M32 47h1M43 47h1M56 47h1M23 48h1M32 48h1M43 48h1M55 48h1M23 49h1M32 49h1M43 49h3M54 49h1M56 49h1M10 50h1M32 50h1M43 50h1M46 50h2M53 50h3M10 51h1M32 51h1M46 51h1M50 51h2M53 51h1M52 52h2M9 53h1M24 53h1M31 53h1M42 53h1M45 53h1" />
<path stroke="#c0d0d8" d="M26 20h1M26 21h1M45 21h1M25 22h3M45 22h1M24 23h3M44 23h2M23 24h3M44 24h2M24 25h2M40 25h1M44 25h2M21 26h4M40 26h2M43 26h3M21 27h4M40 27h5M22 28h2M41 28h4M41 29h3M13 38h3M13 39h4M12 40h5M10 41h6M12 42h3M20 42h2M19 43h4M19 44h4M18 45h6M6 46h1M18 46h6M17 47h7M17 48h6M16 49h1M18 49h5M55 49h1M7 50h3M17 50h1M19 50h4M6 51h4M16 51h1M18 51h6M5 52h5M11 52h1M15 52h1M17 52h1M19 52h5M5 53h4M10 53h3M16 53h1M18 53h6" />
<path stroke="#d0b8f8" d="M33 20h4M31 21h7M29 22h9M29 23h8M30 24h5M47 33h1M46 34h2" />
<path stroke="#a888e8" d="M37 20h2M38 21h2M38 22h2M28 23h1M37 23h3M27 24h3M35 24h5M27 25h12M26 26h13M26 27h13M25 28h15M25 29h15M25 30h16M25 31h16M25 32h15M26 33h14M46 33h1M27 34h11M33 35h3M46 42h3M45 43h6M45 44h7M45 45h8M47 46h7M49 47h5M51 48h2" />
<path stroke="#906060" d="M26 35h1M32 35h1M24 36h2M35 36h1M27 37h1M29 37h2M24 38h2M31 38h3M23 39h1M32 39h4M26 40h1M32 40h5M32 41h6M31 42h8M31 43h9M29 44h2M32 44h6M27 45h5M33 45h2M38 45h2M25 46h7M36 46h4M25 47h7M35 47h5M24 48h8M34 48h6M24 49h8M34 49h6M24 50h8M33 50h7M24 51h6M31 51h1M33 51h7M25 52h4M30 52h1M33 52h6M25 53h3M29 53h1M32 53h7" />
<path stroke="#684818" d="M27 35h5M33 36h2M23 37h1M37 37h1M28 38h1M27 39h1M25 41h1M41 41h1M24 42h1M29 42h1M30 43h1M42 43h1M38 44h2M35 45h1M37 45h1M34 46h1M40 46h1M43 46h1M40 47h1M40 48h1M40 49h1M40 50h1M40 51h1M43 51h1M32 52h1M39 52h1M42 52h1M46 52h1M39 53h1" />
<path stroke="#f8f8f8" d="M26 36h6M24 37h2M31 37h5M23 38h1M34 38h3M36 39h2M37 40h2M38 41h2M39 42h2M40 43h1M40 44h2M40 45h2M54 47h2M54 48h1M51 50h2M52 51h1" />
<path stroke="#c88020" d="M26 38h2M29 38h2M24 39h3M28 39h4M24 40h2M28 40h4M24 41h1M26 41h2M29 41h3M25 42h4M30 42h1M25 43h5M25 44h4M25 45h2M35 46h1M33 47h2M33 48h1M33 49h1M30 51h1M29 52h1M31 52h1M28 53h1M30 53h1" />
<path stroke="#d8c088" d="M44 50h2M44 51h2M43 52h3M43 53h2" />
</svg>