<svg xmlns="http://www.w3.org/2000/svg" viewBox="0 -0.5 32 32" shape-rendering="crispEdges">
<metadata>Made with Pixels to Svg https://codepen.io/shshaw/pen/XbxvNj</metadata>
<path stroke="#ffffff" d="M13 3h6M9 4h5M18 4h5M6 5h4M22 5h4M5 6h2M14 6h2M25 6h2M4 7h2M26 7h2M4 8h1M27 8h1M3 9h2M27 9h2M3 10h1M28 10h1M3 11h1M28 11h1M3 12h2M27 12h2M4 13h2M26 13h2M5 14h2M25 14h2M6 15h3M23 15h3M5 16h6M21 16h3M3 17h3M10 17h3M19 17h3M2 18h2M12 18h1M19 18h2M1 19h2M20 19h7M1 20h1M4 20h1M20 20h1M26 20h3M1 21h1M28 21h2M1 22h2M29 22h1M2 23h2M29 23h1M3 24h3M28 24h2M5 25h3M27 25h2M7 26h1M25 26h3M7 27h2M24 27h2M8 28h2M20 28h5M9 29h4M19 29h2M12 30h8" />
<path stroke="#202020" d="M14 4h4M10 5h4M18 5h4M7 6h3M22 6h3M6 7h1M25 7h1M5 8h1M26 8h1M5 9h1M26 9h1M4 10h1M27 10h1M4 11h1M27 11h1M5 12h1M26 12h1M6 13h1M25 13h1M7 14h2M23 14h2M9 15h2M21 15h2M11 16h2M19 16h2M6 17h4M13 17h1M18 17h1M4 18h2M10 18h2M13 18h1M18 18h1M3 19h1M12 19h1M19 19h1M2 20h1M19 20h1M21 20h5M2 21h1M20 21h1M26 21h2M3 22h1M28 22h1M4 23h2M28 23h1M6 24h2M27 24h1M8 25h1M25 25h2M8 26h1M24 26h1M9 27h1M20 27h4M10 28h3M19 28h1M13 29h6" />
<path stroke="#b7447b" d="M14 5h2M23 8h1M23 9h1M11 10h1M21 11h1M14 12h4" />
<path stroke="#b7304c" d="M16 5h1" />
<path stroke="#ff345a" d="M17 5h1" />
<path stroke="#d84a70" d="M10 6h2" />
<path stroke="#ffb6cd" d="M12 6h2M16 6h4M10 7h3M19 7h3M9 8h2M14 8h4M21 8h2M8 9h3M13 9h2M18 9h1M21 9h2M10 10h1M13 10h3M20 10h2M10 11h2M15 11h6M12 12h2M14 13h4M6 18h2M4 19h2M6 21h2" />
<path stroke="#ff2839" d="M20 6h2M22 7h2M8 8h1M20 12h2" />
<path stroke="#ffdae6" d="M7 7h1M24 7h1" />
<path stroke="#ff384a" d="M8 7h2" />
<path stroke="#b23f8b" d="M13 7h1M16 7h3M11 8h3M18 8h3M11 9h2M15 9h3M19 9h2M16 10h4M14 11h1M6 19h2M6 20h2" />
<path stroke="#ac408b" d="M14 7h2" />
<path stroke="#ffb2c5" d="M6 8h1M25 8h1" />
<path stroke="#f95062" d="M7 8h1M6 9h1" />
<path stroke="#ff2439" d="M24 8h1M24 9h1" />
<path stroke="#f62031" d="M7 9h1" />
<path stroke="#fe5368" d="M25 9h1" />
<path stroke="#ffa5b4" d="M5 10h1M14 17h1M17 17h1M13 20h1M13 21h1M18 22h1M18 23h1M18 24h1M14 26h3" />
<path stroke="#e95f6a" d="M6 10h1" />
<path stroke="#de1420" d="M7 10h1M6 11h1" />
<path stroke="#fe6375" d="M8 10h1" />
<path stroke="#feafba" d="M9 10h1" />
<path stroke="#b74280" d="M12 10h1M12 11h2" />
<path stroke="#c54c7b" d="M22 10h1M22 25h2" />
<path stroke="#e23c5a" d="M23 10h1" />
<path stroke="#fffaff" d="M24 10h2M8 11h1M9 21h1" />
<path stroke="#f6384a" d="M26 10h1M3 20h1" />
<path stroke="#7b444c" d="M5 11h1" />
<path stroke="#fff6ff" d="M7 11h1" />
<path stroke="#ff1831" d="M9 11h1" />
<path stroke="#ff2c39" d="M22 11h2" />
<path stroke="#d85965" d="M24 11h1" />
<path stroke="#c50818" d="M25 11h1" />
<path stroke="#b2303c" d="M26 11h1M3 21h1" />
<path stroke="#bd4868" d="M6 12h1M25 12h1" />
<path stroke="#832c3c" d="M7 12h1M24 12h1" />
<path stroke="#ac1018" d="M8 12h2M22 12h2M14 14h4M6 22h4M11 22h1" />
<path stroke="#d95d6a" d="M10 12h1" />
<path stroke="#ffaec5" d="M11 12h1M21 22h1" />
<path stroke="#b9447b" d="M18 12h2M21 25h1" />
<path stroke="#f66594" d="M7 13h1M24 13h1" />
<path stroke="#cd4e70" d="M8 13h1M23 13h1M14 15h1M17 15h1M6 23h1M8 23h1" />
<path stroke="#de6d9c" d="M9 13h1M22 13h1M15 15h2M7 23h1M9 23h1" />
<path stroke="#b40c10" d="M10 13h2" />
<path stroke="#b41018" d="M12 13h2M18 13h2M10 21h2M20 24h4M20 25h1" />
<path stroke="#b21218" d="M20 13h2" />
<path stroke="#7b6370" d="M9 14h1M22 14h1" />
<path stroke="#ee6d9c" d="M10 14h1M21 14h1M11 15h1M20 15h1" />
<path stroke="#ac5375" d="M11 14h1M20 14h1" />
<path stroke="#e67194" d="M12 14h2M18 14h2M13 15h1M18 15h1" />
<path stroke="#ba4378" d="M12 15h1M19 15h1" />
<path stroke="#b7a1a9" d="M13 16h1M18 16h1M13 19h1M18 19h1" />
<path stroke="#e67398" d="M14 16h4M15 17h2M19 22h1M19 23h1M19 24h1M18 25h2M17 26h1M14 27h4" />
<path stroke="#f6b2cd" d="M8 18h2" />
<path stroke="#fea4b2" d="M14 18h4M14 19h1M17 19h1M17 24h1M16 25h2M10 26h1M13 26h1M10 27h4" />
<path stroke="#e64e75" d="M8 19h1" />
<path stroke="#de1c4a" d="M9 19h1" />
<path stroke="#ba7183" d="M10 19h1" />
<path stroke="#ff99b4" d="M11 19h1" />
<path stroke="#feb3bf" d="M15 19h2M16 24h1M11 26h2" />
<path stroke="#c85a6a" d="M5 20h1" />
<path stroke="#e9bed3" d="M8 20h1" />
<path stroke="#bd447b" d="M9 20h1M8 21h1" />
<path stroke="#e63344" d="M10 20h1" />
<path stroke="#ff445a" d="M11 20h1" />
<path stroke="#b41020" d="M12 20h1" />
<path stroke="#fcb3bd" d="M14 20h1M17 20h1M14 21h1M17 21h1M14 22h1M17 22h1M14 23h1M17 23h1M10 24h2M10 25h1" />
<path stroke="#ffc2cd" d="M15 20h2M15 21h2M15 22h2M15 23h2M11 25h1" />
<path stroke="#ffa1b4" d="M18 20h1M18 21h1" />
<path stroke="#ac0820" d="M4 21h1" />
<path stroke="#e3acb4" d="M5 21h1" />
<path stroke="#e67483" d="M12 21h1" />
<path stroke="#ba7886" d="M19 21h1" />
<path stroke="#9c7f87" d="M21 21h1" />
<path stroke="#94637b" d="M22 21h1" />
<path stroke="#ffa5cd" d="M23 21h1" />
<path stroke="#ff89a4" d="M24 21h1" />
<path stroke="#ba6575" d="M25 21h1" />
<path stroke="#cd345a" d="M4 22h1" />
<path stroke="#962d47" d="M5 22h1" />
<path stroke="#cd5070" d="M10 22h1" />
<path stroke="#de6a80" d="M12 22h1M13 23h1" />
<path stroke="#f699b4" d="M13 22h1" />
<path stroke="#bd0810" d="M20 22h1M20 23h1" />
<path stroke="#b43c8b" d="M22 22h2" />
<path stroke="#cd5977" d="M24 22h1" />
<path stroke="#f6aecd" d="M25 22h1M24 23h1" />
<path stroke="#f6f6ff" d="M26 22h1" />
<path stroke="#ac0c18" d="M27 22h1M12 23h1M26 23h1" />
<path stroke="#de719c" d="M10 23h2" />
<path stroke="#d33f4c" d="M21 23h1" />
<path stroke="#fffaf6" d="M22 23h1" />
<path stroke="#e6bbd3" d="M23 23h1" />
<path stroke="#a40420" d="M25 23h1" />
<path stroke="#c55a65" d="M27 23h1" />
<path stroke="#ee859c" d="M8 24h2M9 25h1" />
<path stroke="#f6a3af" d="M12 24h1M13 25h1" />
<path stroke="#e67594" d="M13 24h1" />
<path stroke="#d5557b" d="M14 24h1M22 26h2M14 28h4" />
<path stroke="#ffaeb4" d="M15 24h1M15 25h1" />
<path stroke="#872e41" d="M24 24h1" />
<path stroke="#d54473" d="M25 24h1M24 25h1" />
<path stroke="#98818b" d="M26 24h1M13 28h1M18 28h1" />
<path stroke="#ffbabd" d="M12 25h1" />
<path stroke="#e3728e" d="M14 25h1" />
<path stroke="#bab0b7" d="M9 26h1" />
<path stroke="#e6759c" d="M18 26h1" />
<path stroke="#d55470" d="M19 26h1M18 27h1" />
<path stroke="#a13347" d="M20 26h1" />
<path stroke="#de3c5a" d="M21 26h1" />
<path stroke="#b41418" d="M19 27h1" />
</svg>