<svg xmlns="http://www.w3.org/2000/svg" viewBox="0 -0.5 80 80" shape-rendering="crispEdges">
<metadata>Made with Pixels to Svg https://codepen.io/shshaw/pen/XbxvNj</metadata>
<path stroke="#5a5252" d="M33 16h13M29 17h3M47 17h3M26 18h3M50 18h3M24 19h2M53 19h2M22 20h2M56 20h1M20 21h2M58 21h1M19 22h1M17 23h1M61 23h1M16 24h1M15 25h1M63 25h1M14 26h1M13 27h1M65 27h1M12 28h1M11 29h1M67 29h1M10 30h1M9 32h1M69 32h1M8 33h1M70 33h1M8 34h1M70 34h1M7 35h1M71 35h1M7 36h1M61 36h3M71 36h1M6 37h1M60 37h1M64 37h1M72 37h1M6 38h1M59 38h1M66 38h1M72 38h1M5 39h1M67 39h1M73 39h1M58 40h1M68 40h1M73 40h1M5 41h1M58 41h1M69 41h1M73 41h1M4 42h1M70 42h1M74 42h1M71 43h1M74 43h1M71 44h1M74 44h1M4 45h1M75 45h1M3 46h1M75 46h1M3 47h1M75 47h1M71 48h1M75 48h1" />
<path stroke="#a49c9c" d="M32 17h1M46 17h1M55 20h1M57 21h1M20 22h1M59 22h2M18 23h1M60 23h1M17 24h1M62 24h1M64 26h1M66 28h1M11 30h1M68 30h1M10 31h1M68 31h1M9 33h1M8 35h1M7 37h1M59 37h1M65 37h1M65 38h1M6 39h1M58 39h2M5 42h1M58 42h1M72 42h1M74 45h1M4 46h1M71 49h1M69 54h1M67 55h1M64 56h1M12 57h1M61 57h1M15 58h1M57 58h1M71 58h1M19 59h1M52 59h1M45 60h1M73 60h1" />
<path stroke="#eeeeee" d="M33 17h13M29 18h21M26 19h27M24 20h31M22 21h33M21 22h36M19 23h29M51 23h7M18 24h7M27 24h21M54 24h5M16 25h7M25 25h24M56 25h4M62 25h1M15 26h6M25 26h24M58 26h3M14 27h6M24 27h25M59 27h3M64 27h1M13 28h6M24 28h24M61 28h2M65 28h1M12 29h6M24 29h24M62 29h2M12 30h5M25 30h22M63 30h1M11 31h5M25 31h21M64 31h1M10 32h5M27 32h17M10 33h4M29 33h12M9 34h4M9 35h3M67 35h1M8 36h3M8 37h3M7 38h3M69 38h1M7 39h3M6 40h3M6 41h3M7 42h1M71 59h2M69 60h4M68 61h4M64 62h8M61 63h11" />
<path stroke="#ffffff" d="M55 21h2M57 22h2M58 23h2M59 24h2M60 25h2M61 26h3M62 27h2M63 28h2M64 29h3M64 30h3M65 31h3M65 32h4M66 33h3M67 34h3M68 35h3M68 36h3M69 37h3M70 38h2M70 39h2M73 42h1M72 43h2M72 44h2M72 45h2M72 46h3M72 47h3M72 48h3M72 49h3M72 50h2M72 51h1" />
<path stroke="#cdcdde" d="M48 23h3M25 24h2M48 24h6M61 24h1M23 25h2M49 25h7M21 26h4M49 26h9M20 27h4M49 27h10M19 28h5M48 28h13M18 29h6M48 29h14M17 30h8M47 30h16M67 30h1M16 31h9M46 31h18M15 32h12M44 32h21M14 33h15M41 33h25M69 33h1M13 34h54M12 35h55M11 36h50M64 36h4M11 37h48M61 37h3M66 37h3M10 38h49M60 38h5M67 38h2M10 39h48M60 39h7M68 39h2M72 39h1M9 40h49M59 40h9M69 40h4M9 41h49M59 41h10M70 41h3M6 42h1M8 42h50M59 42h11M71 42h1M5 43h66M5 44h66M5 45h66M5 46h66M4 47h67M4 48h67M4 49h67M4 50h68M5 51h67M5 52h67M6 53h65M7 54h62M8 55h59M10 56h54M13 57h48M73 57h1M16 58h41M72 58h2M20 59h32M69 59h2M73 59h1M26 60h19M67 60h2M63 61h5M72 61h1M59 62h5M72 62h1M59 63h2" />
<path stroke="#101010" d="M5 40h1M4 43h1M4 44h1M71 45h1M71 46h1M71 47h1M3 48h1M3 49h1M3 50h1M3 51h1M3 52h1M3 53h1M3 54h1M3 55h1M3 56h1M9 56h1M11 57h1M75 57h1M13 58h1M69 58h1M4 59h1M16 59h2M67 59h1M4 60h1M20 60h4M64 60h2M74 60h1M60 61h2M74 61h1M5 62h1M6 63h1M58 63h1" />
<path stroke="#394ad5" d="M75 49h1M74 50h2M73 51h1M75 51h1M72 52h1M75 52h1M4 53h1M71 53h1M75 53h1M4 54h2M75 54h1M4 55h3M69 55h2M74 55h2M4 56h4M67 56h4M74 56h1M4 57h6M64 57h7M72 57h1M74 57h1M5 58h7M61 58h8M74 58h1M5 59h10M57 59h10M5 60h14M52 60h11M6 61h19M46 61h13M6 62h52M7 63h51" />
<path stroke="#103183" d="M4 51h1M4 52h1M5 53h1M6 54h1M70 54h1M7 55h1M68 55h1M8 56h1M65 56h2M73 56h1M75 56h1M3 57h1M10 57h1M62 57h2M71 57h1M3 58h2M12 58h1M14 58h1M58 58h3M70 58h1M75 58h1M15 59h1M18 59h1M53 59h4M68 59h1M74 59h1M19 60h1M24 60h2M46 60h6M63 60h1M66 60h1M4 61h2M25 61h21M59 61h1M62 61h1M58 62h1M73 62h2M5 63h1M73 63h1" />
<path stroke="#2073ff" d="M74 51h1M73 52h2M72 53h3M72 54h3M72 55h2M72 56h1" />
<path stroke="#3162ee" d="M71 54h1M71 55h1M71 56h1M73 61h1M72 63h1" />
</svg>