<svg xmlns="http://www.w3.org/2000/svg" viewBox="0 -0.5 80 80" shape-rendering="crispEdges">
<metadata>Made with Pixels to Svg https://codepen.io/shshaw/pen/XbxvNj</metadata>
<path stroke="#9c3910" d="M52 10h3M50 11h1M54 11h1M49 12h1M53 12h1M48 13h1M52 13h1M47 14h1M52 14h1M46 15h1M51 15h1M45 16h1M51 16h1M5 17h5M44 17h1M50 17h1M5 18h1M10 18h3M43 18h1M6 19h2M13 19h2M50 19h1M8 20h1M16 20h1M42 20h1M49 20h1M10 21h1M18 21h1M41 21h1M72 21h7M11 22h1M19 22h1M41 22h1M68 22h3M12 23h1M21 23h1M40 23h1M49 23h1M65 23h2M75 23h1M13 24h1M22 24h1M40 24h1M48 24h1M63 24h1M73 24h1M14 25h1M23 25h1M39 25h1M61 25h1M71 25h2M15 26h1M24 26h1M39 26h1M59 26h2M70 26h1M16 27h1M25 27h1M39 27h1M58 27h1M69 27h1M17 28h1M38 28h1M47 28h2M57 28h1M68 28h1M56 29h1M67 29h1M66 30h1M38 31h1M65 31h1M37 32h1M64 32h1M30 33h2M64 33h1M2 34h5M52 34h1M8 35h3M1 36h2M11 36h3M32 36h1M37 36h1M3 37h3M14 37h2M6 38h2M16 38h2M25 38h1M33 38h1M8 39h2M18 39h2M61 39h1M20 40h1M34 40h1M26 41h1M12 42h1M48 42h1M62 42h4M35 43h1M59 43h1M66 43h3M56 44h1M69 44h2M27 45h1M47 45h1M54 45h1M72 45h1M27 46h1M36 46h1M46 46h1M52 46h1M58 46h1M37 47h1M51 47h1M58 47h7M75 47h1M28 48h1M50 48h1M54 48h1M56 48h15M76 48h1M46 49h1M49 49h1M54 49h8M71 49h2M77 49h1M21 50h1M29 50h1M37 50h1M46 50h1M49 50h1M53 50h6M74 50h1M78 50h1M37 51h1M48 51h1M52 51h4M22 52h1M30 52h1M48 52h1M51 52h3M16 53h1M50 53h3M16 54h1M32 54h1M38 54h1M41 54h1M47 54h1M50 54h2M55 54h1M13 55h1M26 55h1M29 55h1M33 55h1M37 55h1M42 55h1M46 55h1M49 55h3M55 55h1M9 56h1M11 56h1M49 56h1M65 56h1M9 57h1M69 57h1M21 58h1M70 58h2M18 59h1M46 59h1M72 59h1M33 60h1M35 60h1M73 60h1M35 61h1M47 61h1M57 61h1M74 61h1M20 62h1M36 62h1M57 62h1M61 62h1M75 62h1M3 63h1M29 63h1M48 63h1M64 63h1M76 63h1M19 64h1M66 64h1M77 64h1M2 65h1M28 65h1M37 65h2M49 65h1M66 65h1M77 65h1M78 66h1M1 67h1M10 67h2M27 67h1M79 68h1M9 69h1" />
<path stroke="#c56239" d="M51 11h3M50 12h3M49 13h3M48 14h4M48 15h3M48 16h1M6 18h4M8 19h5M42 19h2M9 20h7M11 21h4M17 21h1M14 22h2M20 22h1M71 22h1M67 23h1M64 24h1M62 25h1M28 33h1M45 33h1M63 33h1M28 34h3M42 34h1M45 34h1M54 34h1M7 35h1M26 35h1M29 35h3M39 35h1M42 35h1M44 35h3M52 35h3M57 35h1M10 36h1M26 36h2M29 36h3M38 36h2M41 36h6M51 36h4M56 36h2M60 36h2M13 37h1M25 37h8M37 37h10M51 37h7M59 37h2M26 38h7M37 38h10M50 38h11M17 39h1M26 39h8M37 39h10M50 39h10M11 40h1M16 40h4M26 40h8M37 40h10M49 40h11M12 41h1M17 41h4M27 41h8M37 41h10M49 41h10M15 42h2M18 42h4M27 42h8M37 42h10M49 42h10M15 43h8M27 43h8M37 43h10M48 43h9M16 44h8M27 44h9M37 44h10M48 44h7M68 44h1M17 45h8M28 45h8M37 45h10M48 45h5M55 45h8M71 45h1M18 46h8M28 46h8M37 46h9M47 46h5M53 46h5M73 46h2M19 47h8M28 47h9M38 47h8M47 47h4M52 47h4M20 48h8M29 48h8M38 48h8M47 48h3M51 48h3M21 49h7M29 49h8M38 49h8M47 49h2M50 49h3M22 50h7M30 50h7M38 50h8M47 50h2M50 50h2M22 51h7M30 51h7M38 51h10M49 51h2M23 52h7M31 52h17M49 52h1M24 53h6M31 53h16M48 53h1M21 54h2M27 54h3M33 54h5M42 54h5M48 54h1M23 55h3M30 55h3M35 55h1M38 55h4M44 55h2M47 55h1M56 55h7M12 56h1M24 56h2M28 56h1M32 56h3M36 56h2M43 56h1M45 56h1M47 56h1M53 56h12M10 57h4M33 57h2M36 57h1M47 57h1M51 57h17M8 58h6M33 58h1M47 58h1M49 58h19M7 59h6M15 59h3M48 59h16M67 59h2M6 60h11M23 60h2M26 60h1M40 60h1M43 60h1M46 60h1M48 60h17M5 61h11M21 61h8M40 61h5M46 61h1M58 61h8M4 62h11M21 62h9M38 62h1M40 62h8M62 62h1M4 63h10M20 63h9M38 63h10M3 64h10M20 64h9M38 64h11M3 65h9M19 65h9M39 65h10M2 66h9M19 66h9M39 66h11M2 67h8M18 67h9M39 67h11M1 68h9M18 68h9M39 68h12M1 69h8M18 69h9M39 69h12" />
<path stroke="#e6834a" d="M47 15h1M46 16h2M49 16h2M45 17h5M44 18h6M45 19h3M46 20h1M15 21h2M12 22h2M16 22h3M72 22h6M13 23h6M20 23h1M68 23h7M14 24h5M69 24h4M16 25h1M18 25h1M40 25h1M68 25h3M40 26h1M45 26h1M40 27h1M42 27h1M44 27h2M59 27h1M39 28h2M42 28h4M61 28h1M24 29h1M39 29h7M57 29h1M59 29h2M25 30h1M39 30h7M56 30h5M62 30h1M23 31h1M25 31h2M28 31h1M39 31h8M55 31h8M23 32h7M38 32h9M54 32h8M23 33h5M29 33h1M38 33h7M46 33h1M53 33h10M23 34h5M38 34h4M43 34h2M46 34h1M53 34h1M55 34h8M1 35h6M24 35h2M27 35h2M38 35h1M40 35h2M43 35h1M55 35h2M58 35h4M3 36h7M24 36h2M28 36h1M40 36h1M55 36h1M58 36h2M6 37h7M58 37h1M8 38h8M10 39h7M12 40h4M13 41h4M14 42h1M17 42h1M60 43h4M57 44h9M63 45h4M65 46h3M17 54h4M14 55h9M13 56h11M29 56h3M38 56h5M14 57h10M26 57h7M37 57h8M14 58h7M24 58h9M35 58h11M68 58h2M13 59h2M23 59h10M36 59h10M64 59h3M69 59h3M22 60h1M25 60h1M27 60h5M37 60h3M41 60h2M44 60h2M65 60h8M29 61h2M37 61h3M45 61h1M66 61h8M39 62h1M63 62h12M65 63h11M67 64h10M68 65h9M69 66h9M70 67h8M71 68h8M72 69h7" />
<path stroke="#101010" d="M50 18h1M49 21h1M49 22h1M78 22h1M76 23h2M74 24h1M48 25h1M48 26h1M48 27h1M26 28h1M18 29h1M27 29h1M38 29h1M47 29h1M19 30h1M28 30h1M38 30h1M47 30h1M55 30h1M20 31h1M29 31h1M47 31h1M54 31h1M21 32h1M30 32h1M47 32h1M53 32h1M22 33h1M37 33h1M47 33h1M52 33h1M0 34h2M22 34h1M31 34h1M37 34h1M47 34h1M51 34h1M63 34h1M0 35h1M23 35h1M32 35h1M37 35h1M47 35h1M51 35h1M62 35h1M23 36h1M47 36h1M50 36h1M62 36h1M24 37h1M33 37h1M36 37h1M47 37h1M50 37h1M61 37h1M24 38h1M36 38h1M47 38h1M49 38h1M61 38h1M25 39h1M34 39h1M36 39h1M47 39h3M60 39h1M10 40h1M25 40h1M36 40h1M47 40h2M60 40h1M11 41h1M21 41h1M25 41h1M35 41h2M47 41h2M59 41h2M13 42h1M22 42h1M26 42h1M35 42h2M47 42h1M59 42h3M14 43h1M23 43h1M26 43h1M36 43h1M47 43h1M57 43h2M15 44h1M24 44h1M26 44h1M36 44h1M47 44h1M55 44h1M16 45h1M25 45h2M36 45h1M53 45h1M17 46h1M26 46h1M59 46h6M18 47h1M27 47h1M46 47h1M56 47h2M65 47h3M19 48h1M37 48h1M46 48h1M55 48h1M20 49h1M28 49h1M37 49h1M53 49h1M62 49h3M68 49h3M20 50h1M52 50h1M59 50h3M72 50h2M21 51h1M29 51h1M51 51h1M56 51h3M75 51h4M21 52h1M50 52h1M54 52h2M17 53h7M30 53h1M47 53h1M49 53h1M53 53h2M13 54h3M23 54h4M30 54h2M39 54h2M49 54h1M52 54h2M56 54h7M11 55h2M27 55h2M34 55h1M36 55h1M43 55h1M48 55h1M52 55h3M63 55h3M10 56h1M26 56h2M35 56h1M44 56h1M46 56h1M48 56h1M50 56h3M66 56h2M8 57h1M24 57h2M35 57h1M45 57h2M48 57h3M68 57h1M7 58h1M22 58h2M34 58h1M46 58h1M48 58h1M6 59h1M19 59h4M33 59h3M47 59h1M5 60h1M17 60h2M21 60h1M32 60h1M34 60h1M36 60h1M47 60h1M4 61h1M16 61h1M20 61h1M31 61h1M33 61h2M36 61h1M48 61h9M3 62h1M15 62h1M19 62h1M30 62h1M35 62h1M37 62h1M48 62h2M58 62h3M2 63h1M14 63h1M19 63h1M30 63h1M36 63h2M49 63h1M61 63h3M2 64h1M13 64h1M18 64h1M29 64h1M37 64h1M49 64h1M61 64h1M64 64h2M1 65h1M12 65h1M18 65h1M29 65h1M50 65h1M61 65h1M67 65h1M1 66h1M11 66h1M18 66h1M28 66h1M38 66h1M50 66h1M60 66h1M62 66h1M68 66h1M0 67h1M17 67h1M28 67h1M38 67h1M50 67h1M59 67h1M68 67h2M78 67h1M0 68h1M10 68h1M17 68h1M27 68h1M29 68h1M38 68h1M51 68h1M57 68h1M63 68h1M68 68h1M70 68h1M0 69h1M10 69h1M17 69h1M27 69h1M32 69h1M38 69h1M51 69h1M63 69h1M67 69h1M71 69h1M79 69h1" />
<path stroke="#ffbd6a" d="M44 19h1M48 19h2M43 20h3M47 20h2M42 21h7M42 22h7M19 23h1M41 23h8M19 24h3M41 24h7M65 24h4M15 25h1M17 25h1M19 25h4M41 25h7M63 25h5M16 26h8M41 26h4M46 26h2M61 26h9M17 27h8M41 27h1M43 27h1M46 27h2M60 27h9M18 28h8M41 28h1M46 28h1M58 28h3M62 28h6M19 29h5M25 29h2M46 29h1M58 29h1M61 29h6M20 30h5M26 30h2M46 30h1M61 30h1M63 30h3M21 31h2M24 31h1M27 31h1M63 31h2M22 32h1M62 32h2M64 43h2M66 44h2M67 45h4M68 46h5M68 47h7M71 48h5M73 49h4M75 50h3" />
<path stroke="#e6ac5a" d="M59 51h2M57 52h4M55 53h6M62 64h2M63 65h3M63 66h5M64 67h4M64 68h3M64 69h3" />
<path stroke="#734110" d="M61 51h3M64 52h1M65 53h1M66 54h1M67 55h1" />
<path stroke="#a46a20" d="M56 52h1M63 52h1M54 54h1M66 55h1M67 68h1" />
<path stroke="#ffde6a" d="M61 52h2M61 53h4M63 54h3" />
<path stroke="#947300" d="M32 61h1M34 62h1M50 62h2M60 65h1M62 65h1M58 67h1M62 67h2M30 68h1M56 68h1M31 69h1M33 69h1M54 69h2" />
<path stroke="#cdac00" d="M31 62h3M52 62h5M31 63h5M50 63h11M30 64h7M50 64h11M30 65h7M51 65h9M29 66h9M51 66h9M61 66h1M29 67h9M51 67h7M60 67h2M28 68h1M31 68h7M52 68h4M58 68h5M28 69h3M34 69h4M52 69h2M56 69h7" />
</svg>