<svg xmlns="http://www.w3.org/2000/svg" viewBox="0 -0.5 80 80" shape-rendering="crispEdges">
<metadata>Made with Pixels to Svg https://codepen.io/shshaw/pen/XbxvNj</metadata>
<path stroke="#4a524a" d="M32 11h3M31 12h2M35 12h1M36 13h1M16 15h3M37 15h1M15 16h1M29 17h3M38 17h4M26 18h2M39 18h1M24 19h2M32 19h1M16 20h2M33 20h1M33 21h1M49 21h1M17 22h2M20 22h1M33 22h1M50 22h1M19 23h1M51 23h1M19 24h1M45 25h1M48 25h1M17 26h2M44 26h1M49 26h1M44 27h1M50 27h1M17 28h1M43 28h1M54 28h1M43 29h1M51 29h1M54 29h1M42 30h1M54 30h1M42 31h1M52 31h1M42 32h1M55 32h1M33 33h1M42 33h1M55 33h1M33 34h1M42 34h1M49 34h1M56 34h1M32 35h1M43 35h1M16 36h1M32 36h1M43 36h1M52 36h1M43 37h2M51 37h1M42 38h1M44 38h1M51 38h1M45 39h1M49 39h2M18 40h1M35 40h1M39 40h1M46 40h3M61 40h1M38 41h1M60 41h1M62 41h1M33 42h1M37 42h1M48 42h1M62 42h1M34 43h1M62 43h1M23 44h1M36 44h1M48 44h1M50 44h1M62 44h1M25 45h1M33 45h1M49 45h1M61 45h1M27 46h1M31 46h1M33 46h1M53 46h1M60 46h1M50 47h3M55 48h1M63 49h2M61 51h1M60 53h1M67 53h2M60 54h1M67 54h1M70 54h1M68 55h1M71 55h1M59 57h1M57 58h2M70 58h2M55 59h2M70 59h1M53 60h2M63 60h1M68 60h1M52 61h1M50 62h1M52 64h1M50 65h1" />
<path stroke="#cdbdbd" d="M33 12h2M32 13h3M32 14h2M32 15h2M18 16h1M32 16h3M16 17h1M33 17h2M16 18h2M33 18h3M17 19h2M33 19h3M18 20h2M31 20h2M34 20h3M18 21h3M27 21h6M34 21h3M19 22h1M25 22h8M34 22h4M20 23h1M23 23h10M34 23h4M20 24h1M22 24h17M19 25h20M19 26h20M50 26h1M18 27h21M51 27h1M18 28h21M51 28h2M17 29h22M52 29h1M17 30h21M48 30h1M52 30h1M17 31h21M17 32h16M34 32h3M17 33h16M34 33h3M50 33h1M17 34h16M34 34h2M17 35h15M33 35h2M17 36h15M33 36h2M50 36h1M18 37h13M32 37h2M52 37h1M18 38h12M31 38h2M52 38h1M19 39h11M31 39h2M51 39h2M19 40h11M31 40h3M49 40h3M20 41h11M32 41h4M49 41h1M21 42h11M34 42h3M38 42h1M49 42h2M57 42h1M23 43h11M38 43h2M48 43h4M56 43h6M24 44h12M39 44h2M49 44h1M51 44h1M55 44h6M26 45h7M41 45h4M51 45h2M55 45h6M28 46h3M51 46h2M54 46h6M55 47h4M56 48h2M63 53h2M63 54h2M62 55h5M62 56h7M63 57h7M64 58h6M64 59h5M61 60h2M59 61h1M56 62h2M53 63h2M47 64h5M47 65h3M38 67h2" />
<path stroke="#292929" d="M31 13h1M31 14h1M31 15h1M31 16h1M15 17h1M32 17h1M15 18h1M32 18h1M16 19h1M17 21h1M18 23h1M18 24h1M18 25h1M46 25h2M17 27h1M50 28h1M16 29h1M47 29h1M16 30h1M47 30h1M51 30h1M16 31h1M49 31h2M16 32h1M49 32h1M52 32h1M16 33h1M49 33h1M52 33h1M16 34h1M50 34h1M52 34h1M16 35h1M50 35h1M52 35h1M17 37h1M31 37h1M17 38h1M30 38h1M18 39h1M30 39h1M57 39h1M30 40h1M57 40h2M19 41h1M31 41h1M57 41h3M20 42h1M32 42h1M58 42h3M21 43h1M35 43h3M47 43h1M22 44h1M37 44h2M46 44h2M23 45h2M34 45h3M39 45h2M45 45h1M50 45h1M25 46h2M32 46h1M41 46h4M50 46h1M27 47h3M59 47h1M27 48h2M52 48h3M58 48h1M24 49h3M41 49h1M49 49h2M55 49h3M43 50h5M44 51h1M19 52h1M45 52h1M20 53h1M21 54h1M22 55h1M39 55h1M60 55h1M60 56h1M71 56h1M40 57h1M71 57h1M19 58h1M20 59h1M69 59h1M20 60h1M48 60h1M64 60h4M19 61h1M43 61h1M48 61h1M51 61h1M61 61h2M18 62h1M34 62h1M44 62h2M48 62h2M59 62h1M35 63h1M47 63h2M56 63h2M15 64h1M36 64h1M46 64h1M53 64h2M12 65h2M37 65h1M46 65h1M51 65h2M9 66h2M38 66h1M47 66h4M8 67h2M37 67h1M46 67h1" />
<path stroke="#e6dede" d="M35 13h1M34 14h2M34 15h3M16 16h2M35 16h2M17 17h4M35 17h3M18 18h6M29 18h3M36 18h3M19 19h5M26 19h6M36 19h4M20 20h2M24 20h7M37 20h4M22 21h5M37 21h5M21 22h4M38 22h6M21 23h2M38 23h7M21 24h1M39 24h6M39 25h6M39 26h5M39 27h5M39 28h4M39 29h4M38 30h4M38 31h4M37 32h5M37 33h5M36 34h6M36 35h7M36 36h7M35 37h8M38 38h4M43 38h1M42 39h3M42 40h4M44 41h5M61 41h1M46 42h2M61 42h1M46 43h1M54 43h1M43 44h3M53 45h1M63 52h2M62 53h1M65 53h1M62 54h1M65 54h1M61 55h1M67 55h1M61 56h1M69 56h1M60 57h3M70 57h1M59 58h5M57 59h7M55 60h6M53 61h6M51 62h5M49 63h4" />
<path stroke="#838373" d="M36 14h1M19 16h2M37 16h1M21 17h3M42 17h1M24 18h2M28 18h1M43 18h3M40 19h1M45 19h3M22 20h2M47 20h2M21 21h1M33 23h1M52 24h1M49 25h2M53 25h1M51 26h1M53 26h1M52 27h1M54 27h1M55 31h1M33 32h1M35 35h1M56 35h1M35 36h1M57 36h2M34 37h1M59 37h1M33 38h2M60 38h1M33 39h1M40 39h2M58 39h1M61 39h1M34 40h1M59 40h1M36 41h2M22 43h1M40 43h1M41 44h2M54 44h1M61 44h1M54 45h1M62 49h1M65 49h1M61 50h2M66 50h1M66 51h1M60 52h2M67 52h1M69 53h1M60 61h1M58 62h1M55 63h1" />
<path stroke="#ffffff" d="M40 18h3M41 19h4M41 20h6M42 21h7M44 22h6M45 23h6M45 24h7M51 25h2M52 26h1M53 27h1M53 28h1M53 29h1M53 30h1M48 31h1M53 31h2M47 32h2M50 32h1M53 32h2M47 33h2M53 33h2M47 34h2M53 34h3M48 35h2M53 35h3M48 36h2M53 36h4M53 37h6M35 38h3M53 38h7M34 39h6M53 39h4M59 39h2M36 40h3M40 40h2M52 40h5M60 40h1M39 41h5M50 41h7M39 42h7M51 42h6M41 43h5M52 43h2M55 43h1M52 44h2M63 50h3M62 51h4M62 52h1M65 52h2M61 53h1M66 53h1M61 54h1M66 54h1M68 54h2M69 55h2M70 56h1" />
<path stroke="#4a6231" d="M45 26h4M45 27h5M44 28h6M44 29h3M49 29h2M43 30h4M50 30h1M43 31h4M51 31h1M43 32h4M51 32h1M43 33h4M51 33h1M43 34h4M51 34h1M44 35h3M51 35h1M44 36h3M51 36h1M45 37h3M50 37h1M45 38h6M46 39h3M37 45h2M46 45h3M34 46h7M45 46h5M31 47h19M29 48h8M40 48h11M28 49h12M42 49h6M19 50h23M19 51h25M20 52h24M22 53h16M39 53h4M46 53h1M23 54h16M40 54h2M46 54h1M24 55h15M40 55h2M47 55h1M22 56h18M47 56h1M19 57h21M20 58h21M48 58h1M22 59h11M34 59h6M48 59h1M21 60h1M23 60h10M34 60h6M20 61h14M35 61h5M19 62h15M35 62h6M18 63h17M36 63h5M17 64h12M30 64h6M37 64h5M15 65h13M30 65h7M39 65h5M12 66h16M29 66h9M40 66h7M10 67h18M29 67h8M43 67h3" />
<path stroke="#204100" d="M48 29h1M49 30h1M47 31h1M47 35h1M47 36h1M48 37h2M30 47h1M53 47h2M37 48h3M51 48h1M19 49h5M27 49h1M40 49h1M48 49h1M51 49h2M18 50h1M42 50h1M48 50h1M18 51h1M45 51h1M21 53h1M38 53h1M22 54h1M39 54h1M21 55h1M23 55h1M18 56h4M40 56h1M18 57h1M41 58h1M21 59h1M33 59h1M41 59h1M22 60h1M33 60h1M42 60h1M34 61h1M46 62h1M17 63h1M16 64h1M29 64h1M14 65h1M28 65h2M38 65h1M11 66h1M28 66h1M39 66h1M28 67h1M40 67h3M47 67h1" />
<path stroke="#bda48b" d="M44 52h1M43 53h1M42 54h2M42 55h2M41 56h3M41 57h4M42 58h3M42 59h4M43 60h5M44 61h4M47 62h1" />
<path stroke="#e6d5b4" d="M44 53h2M44 54h2M44 55h3M44 56h3M45 57h3M45 58h3M46 59h2" />
<path stroke="#6a8b4a" d="M40 59h1M40 60h2M40 61h3M41 62h3M41 63h6M42 64h4M44 65h2" />
</svg>