<svg xmlns="http://www.w3.org/2000/svg" viewBox="0 -0.5 80 80" shape-rendering="crispEdges">
<metadata>Made with Pixels to Svg https://codepen.io/shshaw/pen/XbxvNj</metadata>
<path stroke="#a49c08" d="M51 17h9M48 18h2M61 18h2M46 19h1M64 19h1M34 20h3M45 20h1M66 20h1M39 21h1M67 21h1M68 22h1M28 23h1M69 23h1M27 24h1M26 25h1M60 25h1M62 25h1M73 31h1M48 32h1M62 33h1M35 34h1M48 34h1M75 34h1M69 35h1M74 36h1M47 37h1M61 37h1M46 41h1M16 42h4M13 43h2M24 43h1M11 44h1M27 44h1M9 45h2M29 45h1M31 45h1M8 46h1M31 46h1M61 46h1M7 47h1M45 49h1M63 50h1M63 51h1M63 52h2M44 53h1M61 53h1M63 53h2M61 54h1M63 54h2M62 55h4M40 56h1M62 56h4M62 57h3" />
<path stroke="#c5bd29" d="M50 18h1M60 18h1M47 19h1M63 19h1M33 20h1M65 20h1M31 21h2M58 21h5M29 22h2M37 22h1M56 22h9M37 23h1M42 23h1M44 23h1M54 23h13M36 24h3M41 24h1M43 24h1M45 24h1M51 24h17M36 25h3M40 25h1M42 25h1M44 25h1M46 25h14M63 25h6M35 26h3M39 26h16M64 26h6M34 27h4M39 27h14M55 27h1M65 27h5M33 28h4M38 28h14M53 28h1M61 28h1M65 28h6M32 29h5M38 29h13M60 29h3M64 29h9M25 30h1M30 30h6M37 30h13M59 30h4M64 30h6M71 30h2M24 31h12M37 31h12M59 31h4M64 31h5M72 31h1M24 32h11M36 32h12M49 32h1M58 32h5M64 32h5M72 32h1M24 33h11M36 33h12M58 33h4M64 33h5M72 33h1M23 34h11M36 34h11M57 34h5M63 34h6M72 34h1M23 35h11M35 35h12M57 35h5M63 35h6M72 35h2M23 36h11M35 36h12M56 36h6M63 36h7M71 36h3M23 37h10M34 37h12M55 37h6M63 37h13M23 38h10M34 38h12M47 38h2M53 38h8M62 38h14M23 39h9M33 39h13M47 39h14M62 39h14M23 40h7M32 40h14M47 40h14M62 40h13M23 41h6M30 41h1M33 41h13M47 41h14M62 41h11M25 42h3M34 42h11M46 42h15M62 42h6M15 43h1M36 43h9M46 43h15M62 43h4M12 44h1M38 44h7M46 44h15M62 44h3M42 45h3M46 45h15M62 45h3M43 46h2M46 46h15M63 46h1M43 47h2M46 47h16M63 47h1M43 48h2M46 48h16M63 48h1M42 49h3M46 49h16M63 49h1M42 50h2M45 50h17M27 51h4M41 51h3M45 51h17M25 52h8M36 52h2M40 52h4M45 52h17M23 53h15M39 53h5M45 53h16M3 54h2M21 54h18M40 54h3M44 54h17M3 55h2M20 55h19M40 55h21M3 56h3M18 56h22M41 56h20M2 57h7M15 57h25M41 57h20M2 58h30M33 58h7M41 58h21M2 59h30M33 59h7M41 59h21M1 60h31M33 60h8M42 60h20M1 61h31M33 61h8M42 61h19M1 62h30M32 62h9M42 62h18M1 63h29M32 63h9M42 63h17" />
<path stroke="#ffff9c" d="M51 18h9M51 19h11M54 20h7" />
<path stroke="#eeee5a" d="M48 19h3M62 19h1M46 20h8M61 20h4M33 21h4M44 21h14M63 21h4M31 22h6M43 22h13M65 22h3M29 23h8M43 23h1M45 23h9M67 23h2M28 24h8M42 24h1M44 24h1M46 24h5M68 24h2M27 25h9M41 25h1M43 25h1M45 25h1M69 25h2M27 26h8M70 26h1M26 27h8M56 27h4M70 27h2M26 28h7M54 28h7M71 28h1M25 29h7M52 29h8M26 30h4M51 30h8M50 31h9M50 32h8M73 32h1M49 33h9M73 33h2M49 34h8M73 34h2M48 35h9M74 35h2M48 36h8M75 36h1M48 37h7M49 38h4M31 41h2M29 42h5M16 43h8M28 43h8M13 44h14M30 44h8M11 45h18M32 45h10M9 46h22M33 46h10M8 47h25M34 47h9M7 48h27M35 48h8M6 49h29M36 49h6M5 50h31M37 50h5M5 51h22M31 51h6M38 51h3M4 52h21M33 52h3M39 52h1M4 53h19M5 54h16M5 55h15M6 56h12M9 57h6" />
<path stroke="#7b7300" d="M44 20h1M37 21h1M43 21h1M38 22h1M42 22h1M38 23h1M41 23h1M40 24h1M70 24h1M39 25h1M61 25h1M71 25h1M26 26h1M38 26h1M55 26h5M63 26h1M71 26h1M25 27h1M38 27h1M53 27h2M60 27h2M72 27h1M25 28h1M37 28h1M52 28h1M62 28h1M72 28h1M24 29h1M37 29h1M51 29h1M73 29h1M24 30h1M50 30h1M73 30h1M23 31h1M36 31h1M49 31h1M69 31h1M71 31h1M23 32h1M74 32h1M23 33h1M35 33h1M48 33h1M63 33h1M75 33h1M22 34h1M47 34h1M47 35h1M71 35h1M76 35h1M34 36h1M47 36h1M70 36h1M76 36h1M46 37h1M62 37h1M33 38h1M46 38h1M61 38h1M46 39h1M61 39h1M30 40h2M46 40h1M29 41h1M73 41h1M20 42h5M28 42h1M45 42h1M68 42h1M72 42h1M25 43h3M45 43h1M66 43h1M28 44h2M45 44h1M61 44h1M65 44h1M30 45h1M45 45h1M61 45h1M32 46h1M45 46h1M64 46h1M33 47h1M45 47h1M6 48h1M34 48h1M45 48h1M67 48h1M5 49h1M35 49h1M69 49h2M4 50h1M44 50h1M71 50h1M4 51h1M44 51h1M64 51h1M72 51h1M3 52h1M44 52h1M65 52h1M73 52h1M3 53h1M38 53h1M65 53h1M74 53h1M2 54h1M43 54h1M62 54h1M65 54h1M75 54h1M2 55h1M39 55h1M76 55h1M76 56h1M1 57h1M77 57h1M32 58h1M77 58h1M32 59h1M40 59h1M78 59h1M41 60h1M78 60h1M79 61h1M79 62h1M30 63h1M79 63h1" />
<path stroke="#101010" d="M38 21h1M40 22h1M39 24h1M64 27h1M64 28h1M63 29h1M36 30h1M63 30h1M70 30h1M63 31h1M35 32h1M63 32h1M69 32h1M71 32h1M69 33h3M34 34h1M62 34h1M69 34h3M22 35h1M34 35h1M62 35h1M70 35h1M22 36h1M62 36h1M22 37h1M33 37h1M76 37h1M22 38h1M76 38h1M22 39h1M32 39h1M76 39h1M22 40h1M61 40h1M75 40h1M22 41h1M61 41h1M74 41h1M61 42h1M69 42h3M61 43h1M67 43h2M66 44h1M65 45h1M62 46h1M65 46h1M62 47h1M64 47h4M62 48h1M64 48h1M68 48h2M62 49h1M64 49h1M36 50h1M62 50h1M64 50h1M37 51h1M62 51h1M38 52h1M62 52h1M62 53h1M39 54h1M61 55h1M66 55h1M2 56h1M61 56h1M66 56h1M40 57h1M61 57h1M65 57h2M1 58h1M40 58h1M62 58h4M1 59h1M62 59h2M66 59h1M0 60h1M32 60h1M63 60h1M67 60h1M0 61h1M32 61h1M41 61h1M64 61h1M67 61h1M0 62h1M31 62h1M41 62h1M64 62h2M68 62h1M0 63h1M31 63h1M41 63h1M65 63h2M68 63h1" />
<path stroke="#ffffff" d="M39 22h1M39 23h1M60 26h3M70 31h1" />
<path stroke="#ded5de" d="M40 23h1M62 27h2M63 28h1M70 32h1" />
<path stroke="#de6262" d="M65 48h2M65 49h4M65 50h6M65 51h4M66 52h2M66 53h2M66 54h3M67 55h3M67 56h4M67 57h4M66 58h6M67 59h5M68 60h5M68 61h5M69 62h5M69 63h5" />
<path stroke="#ff837b" d="M69 51h1M68 52h3M68 53h4M69 54h4M70 55h3M71 56h3M71 57h3M72 58h3M72 59h3M73 60h3M73 61h3M74 62h3M74 63h3" />
<path stroke="#ffaca4" d="M70 51h2M71 52h2M72 53h2M73 54h2M73 55h3M74 56h2M74 57h3M75 58h2M75 59h3M76 60h2M76 61h3M77 62h2M77 63h2" />
<path stroke="#837b20" d="M62 60h1M63 61h1M60 62h1M59 63h1" />
<path stroke="#e6d573" d="M61 61h2M61 62h3M60 63h5" />
</svg>