<svg xmlns="http://www.w3.org/2000/svg" viewBox="0 -0.5 80 80" shape-rendering="crispEdges">
<metadata>Made with Pixels to Svg https://codepen.io/shshaw/pen/XbxvNj</metadata>
<path stroke="#8b4a8b" d="M49 4h6M47 5h1M55 5h2M46 6h1M57 6h1M45 7h1M45 8h1M44 9h1M44 10h1M60 10h1M44 11h1M60 11h3M45 12h1M60 12h1M64 12h1M45 13h1M59 13h1M65 13h1M46 14h1M66 14h1M47 15h1M66 15h1M46 16h1M45 17h1M67 17h1M45 18h1M68 18h1M45 19h1M68 19h1M46 20h1M68 20h1M7 21h3M46 21h1M68 21h1M5 22h1M11 22h1M15 22h4M47 22h2M67 22h1M4 23h1M12 23h2M20 23h1M49 23h4M67 23h1M3 24h1M13 24h1M21 24h1M53 24h1M56 24h1M66 24h1M3 25h1M53 25h1M56 25h3M64 25h2M2 26h1M22 26h1M55 26h1M59 26h5M2 27h1M22 27h1M2 28h1M22 28h1M2 29h1M22 29h1M2 30h1M21 30h1M3 31h1M21 31h1M3 32h1M16 32h1M20 32h1M4 33h1M17 33h3M5 34h2M10 34h2M16 34h1M7 35h4M14 35h2M11 36h3M12 42h2M11 43h1M10 44h1M8 45h3M7 46h1M10 46h1M6 47h1M6 48h1M5 49h1M5 50h1M5 51h1M5 52h1M6 53h1M7 54h2M12 54h1M9 55h3M11 56h1M12 57h2M70 64h4M69 65h1M75 65h1M68 66h1M76 66h1M77 67h1M6 68h4M66 68h2M78 68h1M4 69h2M10 69h2M65 69h1M3 70h1M12 70h1M64 70h1M79 70h1M2 71h1M13 71h1M64 71h1M79 71h1M2 72h1M12 72h3M64 72h1M79 72h1M1 73h1M15 73h2M65 73h1M78 73h1M0 74h1M17 74h1M65 74h1M78 74h1M0 75h1M17 75h1M66 75h1M77 75h1" />
<path stroke="#b47bb4" d="M48 5h1M58 7h1M47 8h5M59 8h1M45 9h9M59 9h1M45 10h10M45 11h11M46 12h10M63 12h1M46 13h10M47 14h8M48 15h6M47 16h6M54 16h1M56 16h1M58 16h4M66 16h1M46 17h8M55 17h1M57 17h1M59 17h4M46 18h9M56 18h7M67 18h1M46 19h18M66 19h2M47 20h21M47 21h21M6 22h1M10 22h1M49 22h18M14 23h1M19 23h1M53 23h14M54 24h2M57 24h9M17 25h1M21 25h1M54 25h2M59 25h5M16 26h1M18 26h1M20 26h2M54 26h1M14 27h2M17 27h1M19 27h3M13 28h9M13 29h9M4 30h2M12 30h9M4 31h5M11 31h10M4 32h12M17 32h3M5 33h12M7 34h3M12 34h4M11 35h3M11 48h1M6 49h1M11 49h1M16 49h1M6 50h1M10 50h3M15 50h2M6 51h10M6 52h10M7 53h9M9 54h3M13 54h3M12 55h4M12 56h3M70 65h1M74 65h1M68 67h1M78 69h1M7 70h2M5 71h6M78 71h1M3 72h9M65 72h1M71 72h1M77 72h2M2 73h10M66 73h1M71 73h3M76 73h2M1 74h13M66 74h2M69 74h9M1 75h14M67 75h10" />
<path stroke="#de9cd5" d="M49 5h6M47 6h10M46 7h12M46 8h1M52 8h7M54 9h5M55 10h5M56 11h4M56 12h4M61 12h2M56 13h3M60 13h5M55 14h11M54 15h12M53 16h1M55 16h1M57 16h1M62 16h4M54 17h1M56 17h1M58 17h1M63 17h4M55 18h1M63 18h4M64 19h2M7 22h3M5 23h7M15 23h4M4 24h9M14 24h7M4 25h13M18 25h3M3 26h13M17 26h1M19 26h1M3 27h11M16 27h1M18 27h1M3 28h10M3 29h10M3 30h1M6 30h6M9 31h2M12 43h2M11 44h3M11 45h4M8 46h2M11 46h5M7 47h10M7 48h4M12 48h5M7 49h4M12 49h4M7 50h3M13 50h2M71 65h3M69 66h7M69 67h8M68 68h10M6 69h4M66 69h12M4 70h3M9 70h3M65 70h14M3 71h2M11 71h2M65 71h13M66 72h5M72 72h5M12 73h3M67 73h4M74 73h2M14 74h3M68 74h1M15 75h2" />
<path stroke="#41737b" d="M33 25h3M31 26h2M37 26h1M51 26h3M30 27h1M38 27h1M49 27h1M54 27h2M29 28h1M39 28h1M48 28h1M41 29h8M57 31h1M29 32h1M56 32h2M28 33h1M57 33h1M26 34h2M25 35h1M60 35h1M24 36h1M60 36h1M23 37h1M59 37h1M22 38h1M59 38h1M16 39h6M59 39h1M15 40h1M21 40h1M14 41h2M65 41h1M14 42h1M20 42h1M61 42h2M66 42h1M14 43h1M19 43h1M66 43h1M14 44h1M19 44h1M67 44h1M18 45h1M67 45h1M48 46h1M17 47h2M49 47h1M57 47h1M50 48h1M58 48h1M60 48h2M50 49h1M59 49h1M50 50h1M60 50h2M16 51h2M50 51h1M63 51h2M41 52h1M49 52h1M42 53h1M48 53h1M43 54h1M47 54h1M16 55h1M15 56h1M17 58h1M17 59h1M17 60h1M14 61h1M18 61h1M22 68h1M40 68h1M40 69h1M23 70h1M32 70h1M39 70h1M33 71h1M38 71h2M26 72h1M34 72h1M38 72h1M58 72h1M21 73h1M27 73h1M57 73h1M57 74h1M28 75h1" />
<path stroke="#94c5cd" d="M33 26h3M34 27h4M50 27h3M34 28h5M49 28h4M35 29h5M49 29h5M38 30h11M51 30h3M38 31h16M37 32h15M37 33h15M28 34h1M37 34h16M27 35h2M38 35h16M25 36h4M39 36h11M53 36h3M24 37h5M41 37h8M55 37h3M23 38h5M43 38h4M56 38h3M62 38h1M22 39h1M24 39h1M26 39h1M57 39h2M63 39h1M16 40h4M23 40h1M25 40h1M58 40h1M16 41h4M59 41h1M64 41h1M17 42h2M59 42h2M63 42h3M60 43h6M60 44h7M61 45h6M44 46h3M61 46h5M43 47h1M45 47h4M62 47h1M42 48h1M44 48h5M43 49h1M45 49h4M48 50h1M66 51h2M63 52h5M64 53h4" />
<path stroke="#73949c" d="M36 26h1M50 26h1M31 27h3M53 27h1M30 28h4M56 28h1M30 29h5M40 29h1M57 29h1M30 30h8M49 30h2M57 30h1M30 31h8M30 32h7M55 32h1M29 33h8M29 34h8M58 34h2M26 35h1M29 35h9M29 36h10M50 36h3M29 37h12M49 37h6M28 38h15M47 38h9M23 39h1M25 39h1M27 39h30M20 40h1M22 40h1M24 40h1M26 40h32M59 40h1M64 40h1M20 41h39M60 41h1M63 41h1M15 42h2M19 42h1M21 42h38M15 43h4M20 43h40M15 44h4M20 44h40M16 45h2M19 45h42M17 46h1M19 46h25M47 46h1M49 46h12M19 47h24M44 47h1M50 47h7M58 47h4M63 47h1M18 48h24M43 48h1M49 48h1M51 48h7M18 49h25M44 49h1M49 49h1M51 49h8M18 50h30M49 50h1M51 50h9M18 51h32M51 51h12M17 52h24M42 52h7M50 52h13M17 53h25M44 53h4M49 53h15M17 54h26M48 54h17M17 55h47M16 56h47M66 56h2M15 57h48M65 57h3M14 58h3M18 58h45M65 58h2M14 59h3M18 59h45M66 59h1M14 60h3M18 60h46M66 60h1M15 61h3M19 61h46M15 62h3M19 62h42M63 62h3M16 63h2M20 63h41M65 63h1M20 64h43M21 65h44M22 66h40M63 66h1M22 67h39M63 67h1M23 68h17M41 68h22M23 69h17M41 69h21M21 70h2M24 70h8M33 70h6M40 70h21M21 71h12M34 71h4M40 71h22M21 72h5M27 72h7M39 72h19M59 72h3M22 73h5M28 73h29M58 73h4M22 74h6M29 74h27M58 74h3M23 75h5M31 75h23" />
<path stroke="#b4e6ee" d="M53 28h3M54 29h3M54 30h3M54 31h3M52 32h3M52 33h5M53 34h5M54 35h6M56 36h4M58 37h1" />
<path stroke="#101010" d="M29 29h1M29 30h1M29 31h1M61 37h1M15 45h1M16 46h1M18 46h1M66 46h1M64 47h2M17 48h1M59 48h1M62 48h3M17 49h1M63 49h1M17 50h1M63 50h1M66 50h2M65 51h1M68 51h1M16 52h1M68 52h1M16 53h1M43 53h1M68 53h1M16 54h1M44 54h3M68 54h1M68 55h1M68 56h1M14 57h1M68 57h1M13 58h1M67 58h1M13 59h1M67 59h1M13 60h1M67 60h1M66 61h2M14 62h1M18 62h1M66 62h1M15 63h1M18 63h2M66 63h1M16 64h4M65 64h2M19 65h2M65 65h1M20 66h2M64 66h2M20 67h2M64 67h1M21 68h1M63 68h1M21 69h2M62 69h2M20 70h1M61 70h2M20 71h1M62 71h1M20 72h1M35 72h3M62 72h1M62 73h1M21 74h1M28 74h1M56 74h1M61 74h1M22 75h1M29 75h2M54 75h7" />
<path stroke="#dedede" d="M60 37h1M60 38h1M60 39h1M60 40h1" />
<path stroke="#ffffff" d="M61 38h1M61 39h2M61 40h3M61 41h2M61 49h2M62 50h1" />
<path stroke="#d53920" d="M60 49h1" />
<path stroke="#f6ee94" d="M65 54h3M64 55h4M63 56h3M63 57h2M63 58h2M63 59h3M64 60h2" />
<path stroke="#d5cd6a" d="M65 61h1M61 62h2M61 63h4M63 64h2M62 66h1M61 67h2" />
</svg>