<svg xmlns="http://www.w3.org/2000/svg" viewBox="0 -0.5 80 80" shape-rendering="crispEdges">
<metadata>Made with Pixels to Svg https://codepen.io/shshaw/pen/XbxvNj</metadata>
<path stroke="#5a5a62" d="M62 9h2M63 10h1M63 11h1M63 12h1M63 13h1M63 14h1M63 15h1M58 16h1M63 16h1M57 17h1M63 17h1M57 18h1M63 18h1M56 19h1M56 20h3M60 21h3M62 22h1M64 23h1M65 31h1M65 34h1M22 42h1M22 43h1M22 44h1M22 45h1M18 47h1M17 49h1M23 50h1M16 51h1M15 52h1M24 52h1M15 53h1M18 57h1M18 58h4" />
<path stroke="#8b8b94" d="M61 10h1M60 11h1M60 12h1M59 13h1M59 14h1M58 15h1M66 34h1M21 42h1M20 43h1M19 44h1M18 45h1M18 46h1M17 48h1M16 50h1" />
<path stroke="#ffffff" d="M62 10h1M61 11h2M61 12h2M60 13h2M60 14h2M59 15h3M59 16h2M58 17h3M58 18h2M57 19h3M66 31h1M21 43h1M21 44h1M20 45h2M19 46h3M19 47h2M18 48h3M18 49h3M17 50h3M17 51h3M16 52h3M16 53h1" />
<path stroke="#c5c5c5" d="M62 13h1M62 14h1M62 15h1M61 16h2M61 17h2M60 18h3M60 19h3M59 20h4M20 44h1M19 45h1M21 47h1M21 48h1M21 49h1M20 50h3M20 51h3M19 52h5M17 53h7M16 54h8M16 55h8M17 56h6M19 57h3" />
<path stroke="#181818" d="M63 19h1M63 20h1M63 21h1M63 22h1M41 32h1M65 32h2M41 33h1M65 33h2M41 34h1M41 35h1M42 38h1M70 38h1M42 39h1M66 39h1M69 39h1M43 40h1M66 40h3M43 41h2M66 41h1M45 42h1M65 42h1M46 43h1M63 43h1M49 44h1M60 44h2M52 45h8M22 46h1M59 46h1M22 47h1M40 47h1M59 47h1M22 48h1M40 48h1M59 48h1M22 49h1M40 49h1M59 49h1M62 49h1M62 50h1M23 51h1M41 51h1M61 51h2M41 52h1M59 52h3M24 53h1M42 53h1M57 53h2M15 54h1M24 54h1M43 54h1M56 54h2M15 55h1M24 55h1M44 55h1M55 55h2M16 56h1M23 56h1M48 56h8M17 57h1M22 57h1M10 58h1M54 58h1M9 59h1M13 59h1M39 59h1M54 59h1M9 60h1M12 60h1M54 60h1M9 61h1M12 61h1M25 61h1M53 61h1M56 61h1M10 62h3M25 62h1M53 62h1M55 62h2M12 63h1M25 63h1M36 63h1M52 63h4M12 64h1M25 64h1M50 64h3M13 65h1M15 65h2M47 65h3M51 65h1M13 66h2M51 66h1M14 67h1M18 67h1M22 67h2M40 67h1M14 68h1M18 68h3M50 68h1M13 69h1M15 69h3M34 69h1M41 69h1M50 69h1M13 70h1M28 70h1M34 70h1M41 70h1M48 70h2" />
<path stroke="#de8b10" d="M51 20h3M49 21h2M59 21h1M43 26h1M66 26h1M42 27h1M66 27h1M42 28h1M67 28h1M41 29h1M42 35h1M67 35h1M66 36h1M46 42h1M58 44h1M56 46h2M58 47h1M41 54h1M44 54h1M55 54h1M46 55h1M53 55h1M39 56h1M52 57h1M24 59h1M52 62h1M13 63h1M33 63h1M51 63h1M14 64h1M33 64h1M49 64h1M32 65h1M50 67h1" />
<path stroke="#bd6a00" d="M54 20h2M63 23h1M64 24h1M65 25h1M67 29h1M41 30h1M67 30h1M41 31h1M67 31h1M67 32h1M67 33h1M67 34h1M41 36h2M41 37h2M66 37h1M43 38h1M66 38h1M43 39h1M44 40h1M65 40h1M45 41h1M65 41h1M42 42h1M64 42h1M41 43h1M47 43h1M62 43h1M64 43h1M41 44h1M48 44h1M50 44h1M59 44h1M62 44h1M40 45h1M51 45h1M40 46h1M58 46h1M40 50h1M59 50h1M58 51h1M58 52h1M41 53h1M40 54h1M40 55h1M45 55h1M54 55h1M15 56h1M46 56h2M14 57h1M23 57h1M39 57h1M53 57h2M13 58h1M24 58h1M39 58h1M38 59h1M25 60h1M37 60h1M39 60h2M36 61h1M40 61h1M36 62h1M41 62h1M34 63h2M42 63h1M13 64h1M24 64h1M26 64h1M32 64h1M37 64h2M43 64h2M14 65h1M24 65h1M27 65h1M29 65h3M39 65h1M45 65h2M50 65h1M23 66h2M27 66h2M32 66h1M40 66h1M21 67h1M28 67h1M33 67h1M51 67h1M21 68h1M28 68h1M33 68h1M41 68h1M14 69h1M28 69h1M49 69h1M14 70h1M27 70h1M29 70h1" />
<path stroke="#ffb400" d="M48 21h1M51 21h8M46 22h3M52 22h10M45 23h2M53 23h10M44 24h1M53 24h11M43 25h1M52 25h11M64 25h1M46 26h2M51 26h12M65 26h1M45 27h18M45 28h19M66 28h1M44 29h20M66 29h1M44 30h20M43 31h21M43 32h21M43 33h21M43 34h21M43 35h21M43 36h22M43 37h22M44 38h22M44 39h22M45 40h20M46 41h19M43 42h2M47 42h17M42 43h4M48 43h14M44 44h4M51 44h7M41 45h1M45 45h6M45 46h11M45 47h13M44 48h15M43 49h16M43 50h16M43 51h15M42 52h16M43 53h14M42 54h1M45 54h10M42 55h2M47 55h6M43 56h3M15 57h2M43 57h9M14 58h4M22 58h1M43 58h11M14 59h8M40 59h1M42 59h12M13 60h9M38 60h1M41 60h13M13 61h10M37 61h1M41 61h12M13 62h10M37 62h1M42 62h10M14 63h9M37 63h1M43 63h8M15 64h9M39 64h1M42 64h1M45 64h4M18 65h6M38 65h1M40 65h5M19 66h4M31 66h1M33 66h1M38 66h2M41 66h10M19 67h2M24 67h2M32 67h1M37 67h3M41 67h9M22 68h5M34 68h7M42 68h8M18 69h10M29 69h1M32 69h2M35 69h6M42 69h7M15 70h12M30 70h4M35 70h6M42 70h6" />
<path stroke="#ffee00" d="M49 22h3M47 23h6M45 24h8M44 25h8M63 25h1M44 26h2M48 26h3M63 26h2M43 27h2M63 27h3M43 28h2M64 28h2M42 29h2M64 29h2M42 30h2M64 30h3M42 31h1M64 31h1M42 32h1M64 32h1M42 33h1M64 33h1M42 34h1M64 34h1M64 35h3M65 36h1M65 37h1M42 44h2M42 45h3M41 46h4M41 47h4M41 48h3M41 49h2M41 50h2M42 51h1M41 55h1M40 56h3M40 57h3M23 58h1M40 58h3M22 59h2M41 59h1M22 60h3M23 61h2M38 61h2M23 62h2M38 62h3M23 63h2M38 63h4M34 64h3M40 64h2M25 65h2M33 65h5M25 66h2M29 66h2M34 66h4M26 67h2M29 67h3M34 67h3M27 68h1M29 68h4M30 69h2" />
<path stroke="#ac527b" d="M68 33h1M69 34h1M70 35h1M70 36h1M70 37h1M69 38h1M67 39h2M60 47h2M61 48h2M11 58h2M55 58h1M56 59h1M56 60h1M17 65h1M18 66h1" />
<path stroke="#e6eef6" d="M68 34h1" />
<path stroke="#e6cdd5" d="M68 35h2M69 36h1M60 48h1M60 49h2M11 59h1M16 66h1" />
<path stroke="#e69cac" d="M67 36h2M67 37h3M67 38h2M60 50h2M59 51h2M10 59h1M12 59h1M55 59h1M10 60h2M55 60h1M10 61h2M54 61h2M54 62h1M15 66h1M17 66h1M15 67h3M15 68h3" />
</svg>