<svg xmlns="http://www.w3.org/2000/svg" viewBox="0 -0.5 80 80" shape-rendering="crispEdges">
<metadata>Made with Pixels to Svg https://codepen.io/shshaw/pen/XbxvNj</metadata>
<path stroke="#000000" d="M31 3h4M29 4h1M27 5h2M26 6h2M26 7h1M25 8h1M25 9h1M33 9h2M25 10h1M25 11h1M40 11h1M42 11h1M25 12h1M36 12h1M40 12h2M9 13h1M25 13h2M36 13h1M40 13h1M9 14h1M19 14h1M26 14h1M40 14h1M9 15h1M18 15h1M27 15h1M35 15h1M9 16h1M17 16h1M28 16h2M34 16h1M9 17h2M16 17h1M30 17h2M44 17h1M10 18h1M16 18h1M44 18h1M10 19h2M15 19h1M11 20h2M15 20h1M13 21h3M15 22h1M46 22h1M44 24h1M47 24h1M14 25h1M44 25h1M47 25h1M14 26h1M44 26h2M47 26h1M14 27h1M45 27h1M14 28h1M48 28h1M14 29h1M35 29h1M48 29h1M14 30h1M48 30h1M14 31h1M48 31h1M14 32h1M48 32h1M14 33h1M33 33h1M48 33h1M33 34h1M40 34h1M48 34h1M15 35h1M33 35h1M42 35h1M48 35h1M15 36h1M33 36h1M48 36h1M15 37h1M44 37h1M48 37h1M15 38h1M44 38h1M47 38h1M15 39h1M34 39h1M45 39h2M15 40h1M34 40h1M43 40h3M15 41h1M34 41h9M15 42h1M33 42h2M15 43h1M33 43h1M15 44h1M33 44h1M33 45h1M32 46h1M14 47h1M32 47h1M14 48h1M32 48h1M14 49h1M32 49h1M32 50h1M32 51h1M13 52h1M32 52h1M13 53h1M13 54h1M33 54h1M33 55h1M33 56h1M12 57h1M12 58h1M34 58h2M42 58h1M12 59h1M31 59h2M42 59h1M29 60h1M11 61h1M27 61h1M40 61h1M11 62h1M26 62h1M37 62h2M60 62h1M10 63h1M25 63h1M34 63h2M59 63h1M10 64h1M24 64h1M32 64h1M58 64h1M65 64h1M9 65h2M22 65h1M27 65h3M57 65h1M65 65h1M9 66h1M20 66h1M30 66h1M65 66h1M8 67h1M18 67h2M31 67h1M65 67h1M8 68h1M16 68h1M24 68h1M33 68h1M51 68h4M65 68h1M7 69h1M14 69h1M24 69h1M55 69h1M64 69h2M7 70h1M13 70h1M22 70h2M49 70h1M56 70h1M7 71h1M12 71h1M19 71h2M25 71h1M49 71h1M68 71h1M6 72h1M11 72h1M17 72h1M48 72h1M57 72h1M69 72h2M6 73h1M11 73h1M16 73h1M26 73h1M70 73h2M6 74h1M10 74h1M15 74h1M26 74h1M71 74h2M6 75h1M10 75h1M15 75h1M72 75h2" />
<path stroke="#290062" d="M30 4h1M35 4h2M37 5h1M38 6h1M14 7h5M39 7h1M12 8h2M19 8h2M26 8h1M39 8h1M11 9h1M21 9h1M32 9h1M40 9h1M10 10h1M22 10h1M31 10h1M35 10h1M40 10h1M43 10h2M10 11h1M22 11h3M36 11h1M45 11h1M9 12h1M21 12h2M45 12h1M20 13h1M45 13h1M36 14h1M45 14h1M39 15h1M45 15h1M33 16h1M39 16h1M44 16h1M17 17h1M32 17h1M43 18h1M16 19h1M44 19h1M13 20h1M45 20h1M20 21h2M45 21h1M19 22h3M43 22h1M15 23h1M19 23h3M44 23h1M46 23h1M14 24h1M18 24h4M18 25h4M18 26h3M18 27h3M47 27h1M18 28h2M35 28h1M42 28h1M43 29h1M36 30h1M44 30h2M22 31h1M36 31h1M21 32h3M37 32h1M21 33h3M38 33h2M15 34h1M21 34h3M39 34h1M41 34h1M22 35h1M41 35h1M43 36h1M47 37h1M44 39h1M33 41h1M32 44h1M15 45h1M32 45h1M14 46h2M14 50h1M13 51h2M32 53h1M32 54h1M13 55h1M12 56h2M16 57h1M33 57h2M15 58h2M15 59h2M11 60h2M15 60h1M11 63h1M13 63h1M13 64h1M12 65h2M12 66h2M11 67h2M11 68h2M11 69h1" />
<path stroke="#6a319c" d="M31 4h1M29 5h1M28 6h1M30 6h1M27 7h3M31 7h1M27 8h8M12 9h3M26 9h6M35 9h1M11 10h6M26 10h5M32 10h3M36 10h1M11 11h8M26 11h10M43 11h1M10 12h10M26 12h10M37 12h1M42 12h1M10 13h10M27 13h9M37 13h1M39 13h1M41 13h2M10 14h9M21 14h1M23 14h1M25 14h1M27 14h9M37 14h3M41 14h1M10 15h8M19 15h2M22 15h1M24 15h3M28 15h7M36 15h3M40 15h2M44 15h1M10 16h7M18 16h10M30 16h3M35 16h4M11 17h5M18 17h12M33 17h7M42 17h1M11 18h5M17 18h22M12 19h3M17 19h22M14 20h1M16 20h23M44 20h1M16 21h4M22 21h17M16 22h3M22 22h17M16 23h3M22 23h18M42 23h1M15 24h3M22 24h18M42 24h1M45 24h2M15 25h3M22 25h18M15 26h3M21 26h20M15 27h3M21 27h22M15 28h3M20 28h15M36 28h6M47 28h1M15 29h20M36 29h7M15 30h19M37 30h7M15 31h7M23 31h11M37 31h8M15 32h6M24 32h9M38 32h7M15 33h6M24 33h9M40 33h6M16 34h5M24 34h9M42 34h4M16 35h6M23 35h10M43 35h4M16 36h17M44 36h3M16 37h17M45 37h2M16 38h18M45 38h2M16 39h18M16 40h18M16 41h17M16 42h17M16 43h17M16 44h16M16 45h16M16 46h16M15 47h17M15 48h17M15 49h17M15 50h17M15 51h17M14 52h18M14 53h18M14 54h18M14 55h19M14 56h19M13 57h3M17 57h16M13 58h2M17 58h17M13 59h2M17 59h14M13 60h2M16 60h13M12 61h15M12 62h14M12 63h1M14 63h11M11 64h2M14 64h10M11 65h1M14 65h8M10 66h2M14 66h6M9 67h2M13 67h4M9 68h2M13 68h2M8 69h3M12 69h2M8 70h5M8 71h4M7 72h4M7 73h4M7 74h3M7 75h3" />
<path stroke="#ac83f6" d="M32 4h1M30 5h2M29 6h1M31 6h1M30 7h1M32 7h1M38 7h1M14 8h5M35 8h1M15 9h6M36 9h2M39 9h1M17 10h5M37 10h3M19 11h3M37 11h3M44 11h1M20 12h1M23 12h2M38 12h2M21 13h4M38 13h1M20 14h1M22 14h1M24 14h1M42 14h1M21 15h1M23 15h1M40 16h1M43 17h1M39 18h1M42 18h1M43 19h1M44 21h1M39 22h1M42 22h1M45 22h1M40 24h1M40 25h2M46 25h1M41 26h1M46 26h1M46 27h1M46 28h1M47 29h1M45 32h1M46 34h1M47 36h1" />
<path stroke="#cdacff" d="M33 4h2M32 5h5M32 6h6M33 7h5M36 8h3M38 9h1M43 12h2M43 13h2M43 14h2M42 15h2M41 16h3M40 17h2M40 18h2M39 19h4M39 20h5M39 21h5M40 22h2M44 22h1M40 23h2M45 23h1M41 24h1M46 29h1M46 30h2M45 31h3M46 32h2M46 33h2M47 34h1M47 35h1" />
<path stroke="#f6eee6" d="M43 23h1M43 24h1M42 25h2M45 25h1M42 26h2M43 27h1M43 28h2M44 29h2M45 56h3M46 57h2M39 58h3M48 58h1M40 59h2M48 59h1M51 62h2M62 62h2M51 63h4M63 63h2M53 64h4M55 65h2" />
<path stroke="#5a4a41" d="M44 27h1M45 28h1M34 30h1M34 31h1M33 32h1M33 37h1M34 38h1M35 40h1M42 40h1" />
<path stroke="#f6bd94" d="M35 30h1M35 31h1M34 32h3M34 33h4M34 34h5M34 35h7M34 36h9M34 37h10M35 38h8M35 39h7M36 40h4" />
<path stroke="#ffd5bd" d="M43 38h1M42 39h2M40 40h2" />
<path stroke="#524a4a" d="M44 55h2M43 56h1M39 57h5M36 58h2M43 58h1M49 58h1M33 59h2M49 59h1M30 60h2M41 60h2M49 60h3M28 61h1M41 61h1M49 61h1M52 61h2M61 61h3M27 62h1M36 62h1M39 62h1M54 62h2M64 62h1M33 63h1M36 63h1M50 63h1M56 63h1M65 63h1M31 64h1M33 64h1M50 64h1M57 64h1M23 65h1M26 65h1M30 65h1M21 66h1M25 66h1M58 66h1M17 67h1M24 67h1M32 67h1M15 68h1M17 68h1M34 68h1M61 68h2M15 69h1M23 69h1M35 69h2M50 69h1M63 69h1M66 69h1M21 70h1M25 70h1M66 70h2M18 71h1M56 71h1M12 72h1M16 72h1M18 72h1M25 72h2M49 72h1M15 73h1M48 73h1M57 73h1M11 74h1M27 74h1M14 75h1" />
<path stroke="#a49494" d="M46 55h2M48 56h1M44 57h1M48 57h2M38 58h1M44 58h3M35 59h1M43 59h3M43 60h2M29 61h4M42 61h3M50 61h2M28 62h4M40 62h5M49 62h2M53 62h1M26 63h4M37 63h9M55 63h1M60 63h2M25 64h3M34 64h13M59 64h6M24 65h2M31 65h19M58 65h7M22 66h3M26 66h4M31 66h18M57 66h1M59 66h6M20 67h4M25 67h4M33 67h17M56 67h9M18 68h6M25 68h4M35 68h16M55 68h6M63 68h2M16 69h7M25 69h5M34 69h1M37 69h13M56 69h7M14 70h7M24 70h1M26 70h5M34 70h15M50 70h2M57 70h9M13 71h5M21 71h4M26 71h23M50 71h6M57 71h9M13 72h3M19 72h6M27 72h21M50 72h7M58 72h8M12 73h3M17 73h9M27 73h21M49 73h8M58 73h8M12 74h3M16 74h10M28 74h38M11 75h3M16 75h49" />
<path stroke="#d5cdc5" d="M44 56h1M45 57h1M47 58h1M36 59h4M46 59h2M32 60h9M45 60h4M33 61h7M45 61h4M32 62h4M45 62h4M61 62h1M30 63h3M46 63h4M62 63h1M28 64h3M47 64h3M51 64h2M50 65h5M49 66h8M29 67h2M50 67h6M29 68h4M30 69h4M51 69h4M31 70h3M52 70h4M66 71h2M66 72h3M66 73h4M66 74h5M65 75h7" />
</svg>