<svg xmlns="http://www.w3.org/2000/svg" viewBox="0 -0.5 80 80" shape-rendering="crispEdges">
<metadata>Made with Pixels to Svg https://codepen.io/shshaw/pen/XbxvNj</metadata>
<path stroke="#0839c5" d="M41 5h3M39 6h2M45 6h1M11 64h5M10 65h1M17 65h1M11 69h2M16 69h1M10 70h8M10 71h8M10 72h8M10 73h8M11 74h6" />
<path stroke="#316aee" d="M44 5h1M42 7h2M10 68h2M17 68h1M10 69h1M17 69h1M9 70h1M18 70h1M9 71h1M18 71h1M9 72h1M18 72h1M9 73h1M18 73h1M10 74h1M17 74h1M10 75h8" />
<path stroke="#101010" d="M21 6h3M49 6h4M20 7h1M38 7h3M44 7h1M53 7h1M20 8h1M30 8h2M41 8h3M53 8h1M20 9h2M29 9h2M43 9h1M50 9h4M20 10h2M28 10h1M42 10h1M48 10h6M20 11h2M25 11h3M42 11h1M48 11h6M20 12h2M24 12h3M42 12h3M49 12h3M53 12h1M21 13h1M24 13h3M42 13h4M21 14h1M24 14h2M43 14h4M52 14h1M22 15h1M24 15h2M43 15h10M22 16h3M44 16h8M23 17h2M46 17h5M24 18h1M47 18h2M24 19h1M46 19h1M24 20h1M53 20h1M24 21h1M53 21h1M24 22h1M53 22h2M24 23h1M54 23h1M24 24h1M25 25h1M25 26h1M25 27h1M58 27h1M25 28h1M58 28h1M26 29h1M58 29h1M26 30h1M58 30h1M26 31h2M27 32h1M57 32h1M27 33h2M54 33h3M28 34h1M51 34h3M28 35h2M47 35h4M29 36h1M42 36h4M29 37h1M40 37h3M29 38h1M40 38h1M30 39h1M39 39h1M30 40h1M39 40h1M30 41h1M39 41h1M30 42h1M39 42h1M30 43h1M30 44h1M33 44h5M30 45h8M40 45h1M30 46h8M40 46h1M30 47h3M40 47h1M29 48h2M41 48h1M29 49h2M41 49h1M29 50h1M33 50h6M41 50h1M29 51h10M42 51h1M29 52h10M42 52h1M28 53h5M42 53h1M28 54h2M43 54h1M28 55h1M43 55h1M28 56h1M33 56h7M43 56h2M28 57h1M31 57h9M44 57h1M27 58h14M44 58h2M27 59h14M45 59h1M27 60h5M45 60h2M26 61h3M46 61h1M26 62h2M46 62h2M26 63h1M47 63h1M16 64h1M26 64h1M45 64h4M9 65h1M18 65h1M8 66h1M19 66h1M25 66h1M7 67h2M20 67h1M25 67h1M67 67h2M7 68h1M20 68h1M25 68h1M70 68h1M6 69h2M21 69h1M25 69h1M72 69h1M6 70h1M21 70h1M24 70h1M73 70h1M6 71h1M21 71h1M24 71h1M73 71h1M6 72h1M21 72h1M24 72h1M72 72h2M6 73h1M21 73h1M23 73h1M71 73h2M6 74h2M21 74h1M23 74h1M70 74h2M7 75h1M20 75h1M23 75h1M69 75h1" />
<path stroke="#8b4a73" d="M24 6h3M48 6h1M34 7h4M45 7h2M32 8h1M24 11h1M45 12h1M52 12h1M22 14h1M47 14h1M53 15h1M25 16h1M45 17h1M54 17h1M45 19h1M53 19h1M55 19h1M55 20h1M56 21h1M25 23h1M53 23h1M57 23h1M25 24h1M54 24h1M57 24h1M58 26h1M26 27h1M26 28h1M57 31h1M56 32h1M53 33h1M50 34h1M46 35h1M41 36h1M30 38h1M39 38h1M39 43h1M32 44h1M33 47h1M31 48h1M40 48h1M30 50h1M32 50h1M39 50h1M33 53h1M30 54h1M32 56h1M30 57h1M32 60h1M29 61h1M43 64h2M49 64h7M26 65h1M57 65h5M62 66h4M66 67h1M69 68h1M71 69h1" />
<path stroke="#7bb4f6" d="M41 6h2M41 7h1M11 65h6M9 66h4M16 66h3M9 67h3M17 67h3M8 68h2M18 68h2M8 69h2M18 69h3M7 70h2M19 70h2M7 71h2M19 71h2M7 72h2M19 72h2M7 73h2M19 73h2M8 74h2M18 74h3M8 75h2M18 75h2" />
<path stroke="#ffffff" d="M43 6h2M54 20h1M54 21h1" />
<path stroke="#626a6a" d="M21 7h1M27 7h3M52 7h1M21 8h2M44 8h2M48 8h5M44 9h1M48 9h2M25 10h3M43 10h2M43 11h2M38 44h1M38 45h2M38 46h2M39 47h1M39 51h3M39 52h3M39 53h3M42 54h1M40 56h1M40 57h3M41 58h3M41 59h4M42 60h3M44 61h2" />
<path stroke="#acacac" d="M22 7h2M50 7h2M28 8h2M26 9h3" />
<path stroke="#b47b9c" d="M24 7h1M47 7h3M23 8h1M33 8h1M39 8h1M46 8h2M22 9h4M31 9h1M38 9h1M40 9h1M42 9h1M45 9h3M22 10h3M29 10h1M35 10h3M39 10h1M41 10h1M45 10h3M22 11h2M28 11h1M32 11h10M45 11h3M22 12h2M27 12h1M30 12h12M46 12h3M22 13h2M27 13h1M29 13h13M46 13h7M23 14h1M26 14h17M48 14h4M23 15h1M26 15h17M26 16h18M53 16h1M25 17h20M25 18h22M49 18h2M54 18h1M25 19h20M47 19h5M54 19h1M25 20h28M25 21h28M55 21h1M25 22h28M56 22h1M26 23h27M26 24h28M26 25h29M57 25h1M26 26h30M27 27h29M27 28h30M27 29h30M27 30h30M28 31h29M28 32h28M29 33h24M29 34h21M30 35h16M30 36h11M30 37h10M31 38h8M31 39h8M31 40h8M31 41h8M31 42h8M31 43h8M31 44h1M39 44h1M34 47h5M32 48h6M31 49h7M31 50h1M34 53h5M31 54h8M41 54h1M29 55h10M29 56h3M29 57h1M33 60h8M30 61h11M28 62h14M27 63h16M27 64h16M27 65h21M56 65h1M26 66h24M61 66h1M26 67h27M65 67h1M26 68h31M67 68h2M26 69h45M25 70h48M25 71h48M25 72h47M24 73h47M24 74h46M24 75h45" />
<path stroke="#d5a4c5" d="M25 7h2M24 8h4M34 8h5M40 8h1M32 9h6M39 9h1M41 9h1M30 10h5M38 10h1M40 10h1M29 11h3M28 12h2M28 13h1M51 17h1M51 18h1M52 19h1M55 24h1M55 25h1M56 26h1M56 27h1M57 29h1M57 30h1M38 48h2M38 49h3M40 50h1M39 54h2M39 55h4M41 56h2M43 57h1M41 60h1M41 61h3M42 62h4M43 63h4M48 65h8M50 66h11M53 67h12M57 68h10" />
<path stroke="#ffc5ee" d="M52 16h1M52 17h2M52 18h2M55 22h1M55 23h2M56 24h1M56 25h1M57 26h1M57 27h1M57 28h1" />
<path stroke="#bde6ff" d="M13 66h3M12 67h5M12 68h5M13 69h3" />
</svg>