<svg xmlns="http://www.w3.org/2000/svg" viewBox="0 -0.5 80 80" shape-rendering="crispEdges">
<metadata>Made with Pixels to Svg https://codepen.io/shshaw/pen/XbxvNj</metadata>
<path stroke="#185294" d="M39 21h1M44 21h1M38 22h1M36 23h1M46 23h1M47 24h2M48 25h2M49 26h2M32 27h1M49 27h2M50 28h2M50 29h2M30 30h1M50 30h3M50 31h3M50 32h3M50 33h3M50 34h3M30 35h1M49 35h4M49 36h3M32 37h1M48 37h4M33 38h1M47 38h4M52 38h1M33 39h2M46 39h5M52 39h1M30 40h1M34 40h3M44 40h6M51 40h2M29 41h1M35 41h18M28 42h1M34 42h1M37 42h10M49 42h4M33 43h2M39 43h6M52 43h1M32 44h2M52 44h1M31 45h2M48 45h1M52 45h1M26 46h1M30 46h2M48 46h1M52 46h1M28 47h3M48 47h1M52 47h1M48 48h1M52 48h1M48 49h1M52 49h1M48 50h1M52 50h1M48 51h1M52 51h1M48 52h1M52 52h1M48 53h1M52 53h1M52 54h1M51 55h2M49 56h4M49 57h4M48 58h1M50 58h2M53 58h1M49 59h1M52 59h1" />
<path stroke="#101010" d="M40 21h4M37 22h1M45 22h2M35 23h1M47 23h2M34 24h1M49 24h1M33 25h1M50 25h1M32 26h1M51 26h1M51 27h1M31 28h1M52 28h1M31 29h1M52 29h1M53 30h1M30 31h1M53 31h1M30 32h1M53 32h1M30 33h1M53 33h1M30 34h1M53 34h1M53 35h1M31 36h1M52 36h2M31 37h1M52 37h2M32 38h1M51 38h1M53 38h1M31 39h2M51 39h1M53 39h1M33 40h1M50 40h1M53 40h1M34 41h1M53 41h1M35 42h2M47 42h2M53 42h1M27 43h1M35 43h1M37 43h2M45 43h2M48 43h1M53 43h1M26 44h1M34 44h1M39 44h6M48 44h1M53 44h1M26 45h1M33 45h1M53 45h1M32 46h1M53 46h1M27 47h1M31 47h1M53 47h1M28 48h3M53 48h1M53 49h1M53 50h1M53 51h1M53 52h1M53 53h1M48 54h1M53 54h1M48 55h1M53 55h1M48 56h1M53 56h1M48 57h1M53 57h1M49 58h1M52 58h1M50 59h2" />
<path stroke="#296abd" d="M39 22h6M37 23h9M35 24h12M34 25h2M39 25h9M33 26h2M40 26h9M33 27h2M40 27h9M32 28h3M40 28h10M32 29h4M39 29h11M31 30h19M31 31h19M31 32h19M31 33h19M31 34h19M31 35h18M32 36h17M33 37h15M34 38h13M35 39h11M31 40h2M37 40h7M30 41h1M32 41h2M29 42h1M32 42h2M28 43h1M31 43h2M50 43h2M27 44h1M30 44h2M51 44h1M27 45h4M51 45h1M27 46h3M51 46h1M51 47h1M51 48h1M51 49h1M51 50h1M51 51h1M51 52h1M50 53h2M49 54h3M49 55h2" />
<path stroke="#62a4e6" d="M36 25h3M35 26h1M39 26h1M35 27h1M39 27h1M35 28h1M39 28h1M36 29h3M31 41h1M30 42h2M30 43h1M49 43h1M29 44h1M49 44h2M50 45h1M50 46h1M50 47h1M50 48h1M50 49h1M50 50h1M50 51h1M49 52h2M49 53h1" />
<path stroke="#dedede" d="M36 26h3M36 27h3M36 28h3M29 43h1M28 44h1M49 45h1M49 46h1M49 47h1M49 48h1M49 49h1M49 50h1M49 51h1" />
</svg>