<svg xmlns="http://www.w3.org/2000/svg" viewBox="0 -0.5 80 80" shape-rendering="crispEdges">
<metadata>Made with Pixels to Svg https://codepen.io/shshaw/pen/XbxvNj</metadata>
<path stroke="#185294" d="M44 15h2M43 16h1M46 16h1M42 17h1M42 18h1M46 20h1M46 21h1M46 22h1M46 23h1M46 24h1M46 25h1M45 26h2M44 27h3M25 28h3M42 28h5M24 29h1M28 29h1M41 29h1M39 30h1M49 30h1M50 31h2M24 32h1M51 32h2M25 33h1M52 33h2M26 34h1M35 34h1M52 34h2M27 35h1M53 35h2M28 36h1M53 36h2M29 37h1M33 37h1M53 37h3M30 38h1M53 38h3M31 39h1M53 39h3M31 40h1M53 40h3M53 41h3M28 42h1M33 42h1M52 42h4M27 43h1M33 43h1M52 43h3M26 44h1M32 44h2M35 44h1M51 44h4M25 45h1M31 45h2M35 45h2M50 45h4M30 46h2M36 46h2M49 46h5M24 47h1M29 47h2M37 47h3M47 47h6M24 48h2M28 48h2M38 48h14M24 49h5M40 49h10M25 50h3M42 50h6M43 51h1M43 52h4M44 53h3M45 54h2M46 55h1M46 56h1M46 57h1M46 58h1M46 59h1M46 60h1M45 61h2M42 62h5M43 63h3" />
<path stroke="#dedede" d="M44 16h2M43 17h3M43 18h2M25 29h2M25 30h2M39 33h3M39 34h3M39 35h3M43 56h1M43 57h1M43 58h1" />
<path stroke="#62a4e6" d="M46 17h1M45 18h2M43 19h3M43 20h2M43 21h1M43 22h1M43 23h1M27 29h1M24 30h1M27 30h1M25 31h4M27 32h3M39 32h3M28 33h3M38 33h1M42 33h1M30 34h1M38 34h1M42 34h1M38 35h1M42 35h1M39 36h3M30 42h1M29 43h2M28 44h2M27 45h2M26 46h2M25 47h2M43 53h1M43 54h1M43 55h2M44 56h1M44 57h1M44 58h1M43 59h2M43 60h1" />
<path stroke="#101010" d="M47 17h1M47 18h1M42 19h1M47 19h1M42 20h1M47 20h1M42 21h1M47 21h1M42 22h1M47 22h1M42 23h1M47 23h1M42 24h1M47 24h1M42 25h1M47 25h1M42 26h1M47 26h1M42 27h1M47 27h1M47 28h1M40 29h1M48 29h2M23 30h1M29 30h1M38 30h1M50 30h2M23 31h1M30 31h1M37 31h1M52 31h1M23 32h1M31 32h1M36 32h1M53 32h1M24 33h1M32 33h1M35 33h1M54 33h1M25 34h1M33 34h1M54 34h1M26 35h1M34 35h1M55 35h1M27 36h1M34 36h1M55 36h1M28 37h1M56 37h1M29 38h1M33 38h1M56 38h1M30 39h1M33 39h1M56 39h1M30 40h1M33 40h1M56 40h1M29 41h1M33 41h1M56 41h1M56 42h1M34 43h1M55 43h1M34 44h1M55 44h1M33 45h1M54 45h1M24 46h1M32 46h1M35 46h1M54 46h1M23 47h1M31 47h1M36 47h1M53 47h1M23 48h1M30 48h1M37 48h1M52 48h1M23 49h1M29 49h1M38 49h2M50 49h2M24 50h1M28 50h1M40 50h2M48 50h2M25 51h3M42 51h1M44 51h4M42 52h1M47 52h1M42 53h1M47 53h1M42 54h1M47 54h1M42 55h1M47 55h1M42 56h1M47 56h1M42 57h1M47 57h1M42 58h1M47 58h1M42 59h1M47 59h1M42 60h1M47 60h1M42 61h1M47 61h1M47 62h1M46 63h1M44 64h2" />
<path stroke="#296abd" d="M46 19h1M45 20h1M44 21h2M44 22h2M44 23h2M43 24h3M43 25h3M43 26h2M43 27h1M42 29h6M28 30h1M40 30h9M24 31h1M29 31h1M38 31h12M25 32h2M30 32h1M37 32h2M42 32h9M26 33h2M31 33h1M36 33h2M43 33h9M27 34h3M31 34h2M36 34h2M43 34h9M28 35h6M35 35h3M43 35h10M29 36h5M35 36h4M42 36h11M30 37h3M34 37h19M31 38h2M34 38h19M32 39h1M34 39h19M32 40h1M34 40h19M30 41h3M34 41h19M29 42h1M31 42h2M34 42h18M28 43h1M31 43h2M35 43h17M27 44h1M30 44h2M36 44h15M26 45h1M29 45h2M37 45h13M25 46h1M28 46h2M38 46h11M27 47h2M40 47h7M26 48h2M44 54h1M45 55h1M45 56h1M45 57h1M45 58h1M45 59h1M44 60h2M43 61h2" />
</svg>