<svg xmlns="http://www.w3.org/2000/svg" viewBox="0 -0.5 80 80" shape-rendering="crispEdges">
<metadata>Made with Pixels to Svg https://codepen.io/shshaw/pen/XbxvNj</metadata>
<path stroke="#7394ee" d="M19 9h4M15 10h3M23 10h4M11 11h3M27 11h2M8 12h2M29 12h2M14 13h1M31 13h2M14 14h10M33 14h2M9 15h18M35 15h2M9 16h20M37 16h2M10 17h22M39 17h2M10 18h24M41 18h2M11 19h25M43 19h2M11 20h5M21 20h17M45 20h1M12 21h5M24 21h16M12 22h6M27 22h15M13 23h7M29 23h15M59 23h1M13 24h9M31 24h15M58 24h3M14 25h10M33 25h15M58 25h3M16 26h10M35 26h15M56 26h1M58 26h4M18 27h10M37 27h14M59 27h4M20 28h10M39 28h14M60 28h3M22 29h10M41 29h13M60 29h4M24 30h10M43 30h13M61 30h4M26 31h10M45 31h13M62 31h3M28 32h10M47 32h13M62 32h4M30 33h10M49 33h12M63 33h4M32 34h9M51 34h11M64 34h3M34 35h5M53 35h10M64 35h4M36 36h2M55 36h8M65 36h4M57 37h7M65 37h4M58 38h7M66 38h4M59 39h6M66 39h5M60 40h6M67 40h4M62 41h10M66 42h6M62 43h3M69 43h4M59 44h8M71 44h3M57 45h10M72 45h3M56 46h11M72 46h3M55 47h13M74 47h1M54 48h14M54 49h15M53 50h16M52 51h17M52 52h16M51 53h16M51 54h14M50 55h13M50 56h11M49 57h9M48 58h8M47 59h8M46 60h8M44 61h9M45 62h7M39 63h1M46 63h5M38 64h3M47 64h4M38 65h4M48 65h3M39 66h4M48 66h2M39 67h5M49 67h1M40 68h4M49 68h1M41 69h4M50 69h1M42 70h3M42 71h4M43 72h4M43 73h5M44 74h6M44 75h6M44 76h6M44 77h6M44 78h7M43 79h8" />
<path stroke="#9cdeff" d="M18 10h1M14 11h1M10 12h1M24 12h2M24 13h4M26 14h4M28 15h7M30 16h7M32 17h7M34 18h7M36 19h7M38 20h7M40 21h7M42 22h7M59 22h1M44 23h7M57 23h2M46 24h7M57 24h1M48 25h7M50 26h6M52 27h6M54 28h5M56 29h3M58 30h2" />
<path stroke="#def6ff" d="M19 10h3M15 11h7M23 11h4M11 12h9M23 12h1M26 12h3M8 13h6M28 13h3M8 14h1M30 14h3M57 22h2" />
<path stroke="#ffffff" d="M22 10h1M22 11h1M20 12h3M68 45h1M68 46h2M69 47h1M70 48h1M74 49h2M75 50h3M77 51h1M29 57h6M27 58h11M25 59h15M61 59h5M24 60h2M36 60h6M59 60h10M23 61h1M38 61h5M58 61h13M40 62h4M58 62h5M66 62h7M41 63h4M58 63h3M69 63h5M42 64h4M58 64h2M71 64h4M43 65h4M73 65h3M44 66h3M74 66h3M45 67h3M75 67h2M45 68h3M76 68h2M46 69h3M77 69h1M47 70h2" />
<path stroke="#394a94" d="M7 13h1M15 13h9M7 14h1M9 14h5M24 14h2M8 15h1M27 15h1M29 16h1M9 17h1M10 19h1M20 20h1M46 20h1M11 21h1M18 21h3M23 21h1M47 21h2M57 21h2M20 22h4M49 22h2M56 22h1M12 23h1M22 23h5M51 23h2M56 23h1M24 24h5M53 24h2M24 25h7M55 25h1M61 25h1M15 26h1M26 26h7M17 27h1M28 27h7M51 27h1M19 28h1M30 28h6M53 28h1M63 28h1M21 29h1M32 29h6M54 29h2M23 30h1M34 30h6M56 30h2M25 31h1M36 31h6M58 31h3M65 31h1M27 32h1M38 32h6M60 32h1M29 33h1M40 33h3M61 33h1M31 34h1M62 34h1M67 34h1M33 35h1M35 36h1M54 36h1M63 36h2M56 37h1M69 37h1M65 38h1M65 39h1M66 40h1M71 40h1M65 42h1M72 42h1M61 43h1M65 43h1M68 43h1M71 45h1M67 46h1M68 47h1M68 48h2M53 49h1M69 49h1M69 50h1M69 51h1M68 52h1M67 53h1M65 54h2M63 55h2M61 56h2M58 57h2M56 58h2M55 59h1M54 60h1M53 61h1M52 62h1M51 63h1M51 64h1M50 66h1M50 67h1M50 68h1M50 77h1" />
<path stroke="#101010" d="M8 16h1M9 18h1M10 20h1M16 20h4M17 21h1M21 21h2M59 21h1M11 22h1M18 22h2M24 22h3M60 22h1M20 23h2M27 23h2M60 23h1M12 24h1M22 24h2M29 24h2M56 24h1M61 24h1M13 25h1M31 25h2M56 25h2M62 25h1M14 26h1M33 26h2M57 26h1M62 26h1M16 27h1M35 27h2M58 27h1M63 27h1M18 28h1M36 28h3M59 28h1M64 28h1M20 29h1M38 29h3M59 29h1M64 29h1M22 30h1M40 30h3M60 30h1M65 30h1M23 31h2M42 31h3M61 31h1M66 31h1M25 32h2M44 32h3M61 32h1M66 32h1M17 33h6M27 33h2M43 33h6M62 33h1M67 33h1M14 34h3M23 34h3M29 34h2M41 34h3M49 34h2M63 34h1M68 34h1M26 35h2M31 35h2M39 35h2M51 35h2M63 35h1M68 35h1M28 36h2M33 36h2M38 36h1M53 36h1M69 36h1M19 37h6M30 37h1M35 37h3M55 37h1M64 37h1M70 37h1M17 38h1M26 38h1M31 38h1M36 38h1M57 38h1M70 38h1M15 39h1M28 39h1M32 39h1M35 39h1M58 39h1M71 39h1M14 40h1M29 40h1M33 40h2M55 40h3M59 40h1M72 40h1M30 41h1M34 41h2M53 41h2M60 41h2M72 41h1M32 42h1M36 42h2M61 42h4M73 42h1M34 43h1M59 43h2M66 43h2M73 43h1M37 44h2M57 44h2M67 44h1M69 44h2M74 44h1M10 45h1M56 45h1M67 45h1M75 45h1M55 46h1M71 46h1M75 46h1M9 47h1M54 47h1M72 47h2M75 47h1M2 48h1M9 48h1M53 48h1M72 48h1M2 49h1M2 50h1M8 50h1M52 50h1M8 51h1M51 51h1M1 52h1M8 52h1M51 52h1M1 53h1M8 53h1M34 53h4M50 53h1M1 54h1M8 54h1M28 54h5M50 54h1M1 55h1M8 55h1M25 55h2M49 55h1M73 55h2M1 56h1M23 56h2M49 56h1M1 57h1M9 57h1M22 57h1M48 57h1M76 57h1M1 58h1M9 58h1M21 58h1M47 58h1M74 58h2M1 59h1M10 59h1M21 59h1M46 59h1M72 59h2M2 60h1M10 60h1M20 60h1M30 60h6M44 60h2M71 60h1M2 61h1M11 61h1M20 61h1M28 61h2M2 62h1M12 62h1M20 62h1M26 62h2M3 63h1M12 63h1M25 63h1M38 63h1M55 63h1M63 63h1M3 64h2M13 64h1M24 64h1M37 64h1M54 64h2M63 64h1M66 64h1M4 65h1M13 65h1M24 65h1M37 65h1M54 65h1M64 65h2M4 66h1M38 66h1M53 66h1M5 67h1M14 67h1M24 67h1M38 67h1M52 67h1M5 68h1M14 68h1M18 68h1M25 68h2M39 68h1M52 68h1M5 69h1M14 69h1M18 69h1M22 69h1M27 69h1M40 69h1M51 69h2M5 70h1M14 70h1M18 70h1M22 70h1M28 70h2M40 70h2M4 71h2M14 71h1M17 71h1M22 71h1M30 71h1M41 71h1M4 72h1M14 72h1M17 72h1M21 72h1M31 72h1M42 72h1M4 73h1M14 73h1M17 73h1M21 73h1M32 73h1M42 73h1M3 74h2M17 74h1M21 74h1M33 74h1M43 74h1M2 75h2M13 75h1M17 75h1M21 75h1M43 75h1M50 75h1M2 76h1M13 76h1M16 76h1M21 76h1M34 76h1M43 76h1M50 76h1M1 77h2M12 77h1M16 77h1M20 77h1M34 77h1M43 77h1M51 77h1M0 78h2M12 78h1M16 78h1M20 78h1M33 78h1M43 78h1M51 78h1M0 79h1M11 79h1M16 79h1M20 79h1M42 79h1M51 79h1" />
<path stroke="#3931c5" d="M17 34h6M44 34h1M48 34h1M13 35h1M16 35h1M18 35h8M41 35h6M15 36h1M17 36h1M19 36h9M39 36h11M52 36h1M14 37h1M16 37h1M26 37h4M38 37h17M15 38h1M19 38h6M27 38h4M37 38h20M14 39h1M17 39h1M24 39h3M29 39h3M36 39h22M23 40h1M25 40h1M27 40h2M30 40h3M35 40h8M44 40h10M58 40h1M24 41h1M26 41h1M28 41h2M31 41h3M36 41h3M40 41h3M44 41h8M55 41h5M25 42h1M27 42h4M33 42h3M39 42h3M43 42h8M53 42h8M5 43h1M23 43h10M36 43h4M42 43h7M51 43h8M20 44h16M40 44h8M49 44h8M4 45h1M19 45h28M48 45h8M18 46h37M3 47h1M17 47h37M17 48h36M16 49h28M45 49h7M16 50h27M44 50h7M15 51h26M43 51h8M2 52h1M15 52h24M41 52h9M2 53h1M14 53h20M40 53h10M2 54h1M13 54h14M35 54h15M2 55h2M6 55h2M9 55h1M12 55h13M28 55h7M36 55h1M38 55h11M2 56h6M10 56h13M25 56h3M35 56h1M37 56h1M39 56h10M2 57h7M10 57h12M23 57h2M38 57h10M2 58h7M10 58h11M22 58h2M40 58h7M3 59h7M11 59h10M22 59h1M42 59h3M3 60h7M11 60h9M21 60h1M3 61h8M12 61h8M21 61h1M30 61h2M34 61h2M4 62h8M13 62h7M28 62h10M4 63h8M13 63h8M26 63h11M5 64h8M14 64h6M25 64h12M5 65h8M14 65h6M25 65h12M5 66h8M15 66h4M24 66h14M6 67h8M15 67h4M25 67h13M6 68h8M15 68h3M24 68h1M27 68h12M6 69h8M15 69h3M23 69h3M29 69h10M6 70h8M15 70h3M23 70h5M30 70h10M6 71h8M15 71h2M23 71h7M31 71h10M5 72h9M15 72h2M22 72h9M32 72h9M5 73h9M15 73h2M22 73h10M33 73h9M5 74h8M15 74h2M22 74h11M34 74h8M4 75h9M14 75h3M22 75h11M35 75h8M3 76h10M14 76h2M22 76h12M35 76h8M3 77h9M13 77h3M21 77h13M35 77h8M2 78h10M13 78h3M21 78h12M34 78h9M1 79h10M12 79h4M21 79h10M33 79h9" />
<path stroke="#318bff" d="M45 34h3M14 35h2M17 35h1M47 35h4M12 36h3M16 36h1M18 36h1M50 36h2M11 37h3M15 37h1M17 37h1M10 38h5M9 39h5M18 39h6M8 40h6M15 40h8M24 40h1M26 40h1M7 41h6M14 41h10M25 41h1M27 41h1M6 42h6M13 42h12M26 42h1M6 43h5M13 43h10M5 44h6M12 44h8M5 45h5M11 45h8M4 46h6M11 46h7M4 47h5M10 47h7M3 48h6M10 48h7M3 49h5M10 49h6M3 50h5M9 50h7M3 51h5M9 51h6M3 52h5M9 52h6M3 53h5M9 53h5M3 54h5M9 54h4M4 55h2M10 55h2M35 55h1M37 55h1M28 56h1M36 56h1M38 56h1M25 57h2M24 58h1M23 59h1M22 60h1M32 61h2" />
<path stroke="#00089c" d="M12 35h1M11 36h1M10 37h1M18 37h1M25 37h1M9 38h1M16 38h1M18 38h1M25 38h1M8 39h1M16 39h1M27 39h1M7 40h1M43 40h1M54 40h1M6 41h1M13 41h1M39 41h1M43 41h1M52 41h1M5 42h1M12 42h1M31 42h1M38 42h1M42 42h1M51 42h2M11 43h2M33 43h1M35 43h1M40 43h2M49 43h2M4 44h1M11 44h1M36 44h1M39 44h1M48 44h1M47 45h1M3 46h1M10 46h1M8 49h2M44 49h1M52 49h1M43 50h1M51 50h1M1 51h2M41 51h2M39 52h2M50 52h1M38 53h2M27 54h1M33 54h2M27 55h1M8 56h2M2 59h1M45 59h1M43 60h1M3 62h1M37 63h1M13 66h2M26 69h1M28 69h1M39 69h1M41 72h1M13 74h2M42 74h1M33 75h2M31 79h2" />
<path stroke="#c5c5cd" d="M68 44h1M69 45h1M71 48h1M73 48h1M72 49h2M70 50h4M70 51h5M78 51h1M69 52h10M68 53h11M67 54h12M65 55h7M75 55h4M63 56h12M76 56h2M60 57h16M58 58h3M66 58h7M56 59h3M69 59h2M26 60h4M55 60h3M24 61h4M54 61h3M22 62h4M53 62h3M22 63h3M52 63h3M57 63h1M64 63h2M21 64h3M52 64h2M57 64h1M64 64h2M21 65h3M51 65h2M57 65h3M20 66h3M51 66h2M57 66h3M20 67h3M51 67h1M58 67h3M19 68h4M51 68h1M58 68h3M19 69h3M59 69h3M19 70h3M46 70h1M49 70h1M59 70h3M18 71h4M47 71h5M58 71h4M18 72h3M48 72h14M18 73h3M50 73h11M18 74h3M52 74h7M18 75h3M17 76h4M17 77h3M17 78h3M17 79h3" />
<path stroke="#d51010" d="M70 45h1M70 46h1M70 47h2" />
<path stroke="#52525a" d="M74 48h2M70 49h2M79 51h1M79 52h1M79 53h1M79 54h1M72 55h1M79 55h1M75 56h1M78 56h1M77 57h1M73 58h1M71 59h1M36 61h2M21 62h1M38 62h1M56 62h1M64 62h1M40 63h1M62 63h1M66 63h2M20 64h1M41 64h1M60 64h1M69 64h1M75 64h1M42 65h1M53 65h1M60 65h1M71 65h1M76 65h1M19 66h1M43 66h1M73 66h1M77 66h1M23 67h1M61 67h1M74 67h1M23 68h1M44 68h1M75 68h1M78 68h1M62 69h1M76 69h1M78 69h1M45 70h1M62 70h1M77 70h2M46 71h1M62 71h1M47 72h1M62 72h1M48 73h2M61 73h1M50 74h1M60 74h1M52 75h7" />
<path stroke="#8b8b94" d="M76 49h2M78 50h1M29 56h6M27 57h2M35 57h3M25 58h2M38 58h2M61 58h5M24 59h1M40 59h2M59 59h2M66 59h3M23 60h1M42 60h1M58 60h1M69 60h2M22 61h1M43 61h1M57 61h1M71 61h2M39 62h1M44 62h1M57 62h1M63 62h1M65 62h1M73 62h1M21 63h1M45 63h1M56 63h1M61 63h1M68 63h1M74 63h1M46 64h1M56 64h1M70 64h1M20 65h1M47 65h1M56 65h1M72 65h1M23 66h1M47 66h1M56 66h1M60 66h1M19 67h1M44 67h1M48 67h1M57 67h1M77 67h1M48 68h1M57 68h1M61 68h1M45 69h1M49 69h1M58 69h1M50 70h2M58 70h1M52 71h6M51 74h1M59 74h1" />
<path stroke="#e6e6ee" d="M74 50h1M75 51h2" />
</svg>