<svg xmlns="http://www.w3.org/2000/svg" viewBox="0 -0.5 80 80" shape-rendering="crispEdges">
<metadata>Made with Pixels to Svg https://codepen.io/shshaw/pen/XbxvNj</metadata>
<path stroke="#318b00" d="M35 6h10M32 7h3M29 8h3M27 9h2M50 9h1M26 10h1M52 10h1M25 11h1M25 12h1M51 12h1M52 13h1M53 14h1M55 14h1M54 65h1M25 66h4M51 66h3M57 66h1M10 67h2M24 67h1M28 67h1M45 67h3M49 67h1M53 67h2M60 67h1M9 68h1M43 68h2M48 68h1M55 68h1M63 68h1M8 69h1M29 69h1M42 69h2M49 69h1M66 69h1M7 70h1M42 70h1M50 70h1M59 70h2M69 70h1M42 71h1M53 71h1M61 71h2M6 72h1M53 72h1M55 72h1M63 72h2" />
<path stroke="#83de20" d="M35 7h10M32 8h13M29 9h6M27 10h5M51 10h1M27 11h3M52 11h2M53 12h2M53 13h2M54 14h1M55 15h1M55 16h1M54 66h3M50 67h3M55 67h5M24 68h3M45 68h3M49 68h6M57 68h6M23 69h5M45 69h4M50 69h6M59 69h7M22 70h6M46 70h4M51 70h8M61 70h8M22 71h6M46 71h5M54 71h7M63 71h9M21 72h7M47 72h6M56 72h7M65 72h8" />
<path stroke="#101010" d="M45 7h3M48 8h3M51 9h2M53 10h1M54 11h1M55 12h1M55 13h1M56 14h1M25 15h2M56 15h1M26 16h3M56 16h1M28 17h2M52 17h1M55 17h2M29 18h2M51 18h2M54 18h2M30 19h1M51 19h2M54 19h1M30 20h1M31 21h1M52 21h1M31 22h1M52 22h1M31 23h1M49 23h1M30 25h1M29 27h1M28 29h1M5 33h2M7 34h2M9 35h1M11 36h4M36 58h1M36 59h1M36 60h1M37 62h1M37 63h1M54 63h1M37 64h2M55 64h1M38 65h1M56 65h2M38 66h2M58 66h3M29 67h1M39 67h1M61 67h3M29 68h1M39 68h2M56 68h1M64 68h3M30 69h1M40 69h1M57 69h2M67 69h3M30 70h1M41 70h1M70 70h2M15 71h1M30 71h1M41 71h1M51 71h2M72 71h1M15 72h1M30 72h1M42 72h1M54 72h1M73 72h1" />
<path stroke="#62b429" d="M45 8h3M35 9h15M32 10h4M46 10h5M26 11h1M30 11h3M49 11h3M27 12h4M52 12h1M54 15h1M53 65h1M55 65h1M50 66h1M25 67h3M10 68h3M23 68h1M27 68h2M9 69h5M22 69h1M28 69h1M44 69h1M56 69h1M8 70h7M21 70h1M28 70h2M43 70h3M7 71h8M21 71h1M28 71h2M43 71h3M7 72h8M20 72h1M28 72h2M43 72h4" />
<path stroke="#a4a4c5" d="M36 10h10M33 11h16M26 12h1M31 12h20M25 13h27M25 14h28M27 15h24M29 16h22M30 17h20M31 18h19M31 19h18M32 20h17M51 20h2M32 21h17M32 22h17M32 23h17M51 23h1M32 24h18M36 25h12M37 26h10M37 27h9M37 28h9M37 29h8M36 30h9M36 31h9M35 32h10M34 33h11M5 34h1M33 34h12M4 35h3M32 35h13M4 36h4M30 36h15M3 37h6M26 37h19M3 38h9M21 38h24M3 39h42M3 40h42M3 41h43M3 42h43M4 43h42M4 44h42M4 45h39M44 45h3M4 46h39M44 46h3M4 47h3M9 47h38M5 48h1M10 48h34M45 48h2M5 49h1M11 49h23M35 49h9M45 49h3M11 50h23M35 50h13M11 51h23M35 51h10M46 51h2M12 52h22M35 52h10M46 52h3M12 53h22M36 53h10M47 53h3M12 54h23M36 54h10M47 54h4M13 55h22M36 55h11M48 55h3M13 56h22M36 56h8M48 56h3M14 57h21M37 57h5M49 57h1M14 58h22M37 58h4M15 59h21M37 59h4M16 60h20M37 60h4M17 61h19M38 61h3M18 62h19M38 62h4M19 63h18M38 63h4M20 64h17M39 64h4M21 65h17M39 65h4M23 66h2M29 66h9M40 66h4M30 67h9M40 67h5M30 68h8M41 68h2M41 69h1" />
<path stroke="#7b6a83" d="M24 13h1M24 14h1M51 15h2M53 16h1M51 17h1M53 17h1M53 18h1M49 19h1M53 19h1M31 20h1M49 20h1M49 21h1M51 21h1M49 22h1M51 22h1M30 24h2M29 26h2M28 28h2M27 30h1M26 31h1M25 32h1M4 33h1M7 33h1M24 33h1M3 34h2M22 34h2M3 35h1M8 35h1M10 35h1M20 35h2M2 36h2M10 36h1M15 36h5M2 37h1M2 38h1M2 39h1M2 40h1M2 41h1M2 42h1M2 43h2M3 44h1M3 45h1M43 45h1M3 46h1M43 46h1M3 47h1M4 48h1M44 48h1M4 49h1M34 49h1M44 49h1M4 50h1M34 50h1M4 51h1M34 51h1M45 51h1M34 52h1M45 52h1M34 53h2M46 53h1M35 54h1M46 54h1M35 55h1M47 55h1M35 56h1M47 56h1M35 57h2M48 57h1M49 58h1M50 59h1M51 60h1M36 61h2M52 61h1M53 62h1" />
<path stroke="#e6cdf6" d="M53 15h1M51 16h2M54 16h1M50 17h1M54 17h1M50 18h1M50 19h1M50 20h1M50 21h1M50 22h1M50 23h1M50 24h1M35 25h1M36 26h1M36 29h1M31 35h1M29 36h1M9 37h1M25 37h1M12 38h1M20 38h1M44 56h1M42 57h1M48 58h1M41 61h1M42 63h1M43 65h1" />
<path stroke="#8b4a39" d="M53 20h1M52 23h1M55 23h1M51 24h1M56 24h1M50 25h1M74 26h1M46 27h1M50 27h1M75 27h1M46 28h1M51 28h1M71 28h3M45 29h1M53 29h3M45 30h1M59 30h5M77 30h1M45 31h1M77 31h1M45 32h1M77 32h1M45 33h1M77 33h1M45 34h1M77 34h1M45 35h1M77 35h1M45 36h1M77 36h1M45 37h1M77 37h1M45 38h1M77 38h1M45 39h1M77 39h1M77 40h1M46 41h1M77 41h1M46 42h1M77 42h1M46 43h1M76 43h1M46 44h1M76 44h1M76 45h1M47 46h1M76 46h1M47 47h1M76 47h1M47 48h1M75 48h1M48 49h1M75 49h1M48 50h1M75 50h1M74 51h1M4 52h2M74 52h1M5 53h1M74 53h1M5 54h1M73 54h1M5 55h2M73 55h1M6 56h1M72 56h1M6 57h1M6 58h2M7 59h1M7 60h2M8 61h1M16 61h1M8 62h2M17 62h1M9 63h1M18 63h1M9 64h2M19 64h1M10 65h1M20 65h1M11 66h1M21 66h2M12 67h1M23 67h1M13 68h1M14 69h1M15 70h1M16 71h1M17 72h2" />
<path stroke="#d58b18" d="M54 20h1M55 21h1M55 22h1M57 24h1M66 24h5M48 25h2M59 25h7M71 25h2M47 26h1M73 26h1M52 28h1M70 28h1M74 28h1M76 28h1M56 29h2M68 29h2M75 29h2M58 30h1M64 30h4M45 40h2M76 42h1M47 45h1M7 47h2M75 47h1M6 48h1M9 48h1M6 49h1M10 49h1M5 50h1M10 50h1M74 50h1M5 51h1M10 51h1M48 51h2M11 52h1M49 52h1M11 53h1M50 53h1M73 53h1M11 54h1M51 54h1M12 55h1M51 55h1M72 55h1M12 56h1M51 56h1M13 57h1M50 57h2M71 57h2M13 58h1M50 58h1M70 58h2M14 59h1M70 59h1M15 60h1M69 60h1M68 61h1M67 62h1M66 63h1M65 64h1M11 65h1M63 65h2M61 66h2M38 68h1M31 69h7M17 71h1M19 72h1" />
<path stroke="#f6bd41" d="M53 21h2M53 22h2M53 23h1M52 24h1M51 25h3M58 25h1M48 26h7M47 27h3M51 27h6M47 28h4M53 28h7M68 28h2M46 29h7M58 29h10M70 29h5M46 30h12M68 30h9M46 31h31M46 32h31M46 33h31M46 34h31M46 35h31M46 36h31M46 37h30M46 38h30M46 39h30M47 40h29M47 41h29M47 42h28M47 43h28M47 44h28M48 45h27M48 46h26M48 47h26M7 48h2M48 48h26M7 49h3M49 49h24M6 50h4M49 50h24M6 51h4M50 51h22M6 52h5M50 52h22M6 53h5M51 53h20M6 54h5M52 54h19M7 55h5M52 55h18M7 56h5M52 56h18M7 57h6M52 57h17M8 58h5M51 58h17M8 59h6M51 59h16M9 60h6M52 60h14M9 61h7M53 61h12M10 62h7M54 62h9M10 63h8M55 63h6M11 64h8M56 64h1M12 65h8M12 66h9M13 67h10M14 68h9M15 69h7M38 69h2M16 70h5M31 70h10M18 71h3M31 71h10M31 72h11" />
<path stroke="#ffde83" d="M54 23h1M53 24h3M54 25h4M66 25h5M55 26h18M57 27h18M60 28h8M75 28h1M76 37h1M76 38h1M76 39h1M76 40h1M76 41h1M75 42h1M75 43h1M75 44h1M75 45h1M74 46h2M74 47h1M74 48h1M73 49h2M73 50h1M72 51h2M72 52h2M71 53h2M71 54h2M70 55h2M70 56h2M69 57h2M68 58h2M67 59h3M66 60h3M65 61h3M63 62h4M61 63h5M57 64h8M58 65h5" />
<path stroke="#ffffff" d="M31 25h4M31 26h5M30 27h7M30 28h7M29 29h7M28 30h8M27 31h9M26 32h9M25 33h9M6 34h1M24 34h9M7 35h1M22 35h9M8 36h2M20 36h9M10 37h15M13 38h7M45 56h2M43 57h5M41 58h7M41 59h9M41 60h10M42 61h10M42 62h11M43 63h11M43 64h12M44 65h9M44 66h6M48 67h1" />
</svg>