<svg xmlns="http://www.w3.org/2000/svg" viewBox="0 -0.5 80 80" shape-rendering="crispEdges">
<metadata>Made with Pixels to Svg https://codepen.io/shshaw/pen/XbxvNj</metadata>
<path stroke="#4aa4cd" d="M37 9h9M34 10h3M46 10h1M31 11h3M49 11h1M29 12h2M28 13h1M27 14h1M29 14h1M48 14h2M26 15h1M28 15h1M51 15h1M26 16h2M52 16h1M25 17h1M27 17h1M26 18h1M25 19h2M56 19h1M25 20h2M56 20h2M25 21h3M49 21h1M53 21h2M56 21h2M24 22h7M47 22h8M56 22h3M24 23h13M49 23h7M57 23h2M24 24h14M50 24h6M57 24h2M24 25h12M51 25h5M57 25h2M24 26h1M26 26h9M52 26h4M57 26h2M24 27h1M26 27h10M53 27h3M57 27h1M24 28h1M26 28h11M53 28h3M57 28h1M26 29h12M54 29h1M56 29h2M26 30h12M54 30h1M56 30h1M25 31h1M27 31h10M54 31h3M25 32h1M27 32h10M53 32h1M55 32h1M27 33h11M39 33h1M52 33h1M54 33h1M28 34h10M39 34h2M51 34h1M28 35h11M40 35h1M29 36h11M30 37h11M31 38h13M32 39h14M34 40h10M36 41h5M39 44h2M39 45h4M40 46h4M40 47h2M39 48h2M43 48h2M37 49h3M43 49h2M37 50h2M44 50h2M36 51h3M44 51h3M36 52h2M45 52h4M36 53h2M45 53h6M35 54h2M46 54h3M35 55h2M34 56h2M33 57h3M32 58h3M31 59h4M57 59h2M31 60h3M57 60h3M32 61h2M57 61h5M32 62h1M58 62h5M32 63h1M59 63h6M26 64h1M60 64h6M61 65h2M64 65h3M61 66h2M64 66h2M62 67h2M65 67h2M63 68h1M65 68h3M67 69h2" />
<path stroke="#c5f6f6" d="M37 10h9M34 11h15M33 12h18M31 13h13M47 13h6M30 14h17M50 14h4M29 15h21M52 15h3M28 16h24M53 16h3M28 17h25M54 17h1M28 18h7M38 18h16M29 19h5M41 19h7M50 19h2M32 20h3" />
<path stroke="#107bac" d="M47 10h2M50 11h1M51 12h2M53 13h1M54 14h1M56 16h1M53 17h1M25 18h1M54 18h1M24 19h1M54 19h1M57 19h1M24 20h1M55 20h1M24 21h1M55 21h1M23 22h1M55 22h1M59 22h1M23 23h1M37 23h1M56 23h1M59 23h1M23 24h1M56 24h1M23 25h1M50 25h1M56 25h1M23 26h1M25 26h1M56 26h1M23 27h1M25 27h1M52 27h1M56 27h1M58 27h1M23 28h1M25 28h1M52 28h1M56 28h1M23 29h3M52 29h2M55 29h1M23 30h3M52 30h2M55 30h1M57 30h1M26 31h1M53 31h1M26 32h1M37 32h1M54 32h1M25 33h2M38 33h1M53 33h1M26 34h1M38 34h1M52 34h1M26 35h1M39 35h1M27 36h1M40 36h2M28 37h1M41 37h2M44 38h2M44 40h1M34 41h2M41 41h1M39 43h2M38 44h1M41 44h1M37 45h1M43 45h1M37 46h1M37 47h1M42 47h3M37 48h1M42 48h1M36 49h1M45 49h1M36 50h1M39 50h1M46 50h1M35 51h1M47 51h1M35 52h1M49 52h2M35 53h1M34 54h1M49 54h2M34 55h1M47 55h3M53 55h1M33 56h1M36 56h1M52 56h3M32 57h1M53 57h3M31 58h1M35 58h1M54 58h4M30 59h1M55 59h2M29 60h1M34 60h1M56 60h1M60 60h1M28 61h1M27 62h1M33 62h1M63 62h1M26 63h1M25 65h1M60 65h1M63 65h1M24 66h1M63 66h1M66 66h1M23 67h1M64 67h1M67 67h1M22 68h1M22 69h1M66 69h1M21 70h1M21 71h1" />
<path stroke="#8bcde6" d="M31 12h2M29 13h2M44 13h3M28 14h1M47 14h1M27 15h1M50 15h1M26 17h1M55 17h1M27 18h1M55 18h2M27 19h2M48 19h2M52 19h2M55 19h1M27 20h5M43 20h12M28 21h8M45 21h4M50 21h3M31 22h6M38 45h1M38 46h2M38 47h2M38 48h1M30 60h1M29 61h3M28 62h4M27 63h5M27 64h5M26 65h5M25 66h6M24 67h6M23 68h7M23 69h6M22 70h7M22 71h6" />
<path stroke="#101010" d="M55 15h1M56 17h1M57 18h1M58 20h1M36 21h1M43 21h2M58 21h1M37 22h1M46 22h1M47 23h2M38 24h1M49 24h1M59 24h1M38 25h2M59 25h1M59 26h1M36 27h1M59 27h1M37 28h1M51 28h1M58 28h2M38 29h1M51 29h1M58 29h1M38 30h1M58 30h1M24 31h1M37 31h1M52 31h1M57 31h2M24 32h1M38 32h3M52 32h1M56 32h2M24 33h1M40 33h1M51 33h1M55 33h2M25 34h1M27 34h1M41 34h1M50 34h1M53 34h3M25 35h1M27 35h1M41 35h1M48 35h2M51 35h3M26 36h1M28 36h1M42 36h2M46 36h2M27 37h1M29 37h1M43 37h1M45 37h1M28 38h3M30 39h2M46 39h1M32 40h2M45 40h1M47 40h1M42 41h2M48 41h1M36 42h5M48 42h1M38 43h1M48 43h2M49 44h1M41 48h1M40 49h1M42 49h1M40 50h1M43 50h1M39 51h1M43 51h1M38 52h1M44 52h1M55 52h1M38 53h1M44 53h1M54 53h1M37 54h1M45 54h1M53 54h2M37 55h1M46 55h1M51 55h2M54 55h1M46 56h1M51 56h1M55 56h2M36 57h1M46 57h1M51 57h2M56 57h2M36 58h1M52 58h2M58 58h2M35 59h1M52 59h1M54 59h1M59 59h2M35 60h1M45 60h1M53 60h1M55 60h1M61 60h1M34 61h1M53 61h1M56 61h1M62 61h2M34 62h1M44 62h1M53 62h2M57 62h1M64 62h1M33 63h1M43 63h1M54 63h1M58 63h1M65 63h1M32 64h1M54 64h1M59 64h1M66 64h1M31 65h2M54 65h2M59 65h1M67 65h1M31 66h1M55 66h1M60 66h1M67 66h1M30 67h2M55 67h1M61 67h1M68 67h1M30 68h1M55 68h1M62 68h1M64 68h1M68 68h1M29 69h2M55 69h2M63 69h3M69 69h1M29 70h1M56 70h1M66 70h4M28 71h1M56 71h1" />
<path stroke="#8b52a4" d="M35 18h3M34 19h1M38 19h3M35 20h1M41 20h2M45 22h1M48 24h1M36 25h2M48 25h1M35 26h1M48 26h1M39 29h1M49 31h1M41 32h1M50 32h1M42 33h1M42 35h3M50 35h1M44 36h2M47 41h1M46 58h1M51 58h1M46 59h1M52 60h1M45 61h1M53 63h1M42 64h1M40 65h2M38 66h2M54 66h1M36 67h2M34 68h2M31 69h3M30 70h1M55 70h1M55 71h1" />
<path stroke="#fff6ff" d="M35 19h3M36 20h5M37 21h6M38 22h6M38 23h8M39 24h8M40 25h7M36 26h11M37 27h10M38 28h9M40 29h6M39 30h7M38 31h7M42 32h2M42 42h1M41 43h3M43 44h3M44 45h5M45 46h4M45 47h4M46 48h3M47 49h2M47 50h3M48 51h2M44 63h1M43 64h2M42 65h4M40 66h7M38 67h9M36 68h8M45 68h1M35 69h10M46 69h1M31 70h13M45 70h1M29 71h14M44 71h1" />
<path stroke="#d5acde" d="M44 22h1M46 23h1M47 24h1M47 25h1M47 26h1M47 27h1M47 28h1M46 29h3M46 30h3M45 31h4M51 31h1M44 32h6M51 32h1M41 33h1M43 33h8M42 34h8M45 35h3M44 37h1M46 40h1M44 41h3M41 42h1M43 42h5M44 43h4M46 44h2M46 49h1M50 55h1M47 56h4M47 57h4M47 58h4M47 59h5M46 60h6M46 61h7M45 62h8M45 63h8M45 64h9M46 65h8M47 66h7M47 67h8M44 68h1M46 68h9M34 69h1M45 69h1M47 69h8M44 70h1M46 70h9M43 71h1M45 71h10" />
<path stroke="#ffffff" d="M49 25h1M49 26h1M49 27h1M51 27h1M49 28h1M49 29h1" />
<path stroke="#e68331" d="M50 26h1M50 27h1M50 28h1M50 29h1M50 30h1M49 46h2M49 47h5M50 48h5M50 49h5M42 50h1M50 50h5M42 51h1M51 51h4M42 52h2M51 52h3M43 53h1M51 53h3M43 54h2M51 54h2M44 55h2" />
<path stroke="#7b5231" d="M51 26h1M51 30h1M49 45h7M56 46h1M56 47h1M56 48h1M41 49h1M56 49h1M41 50h1M55 50h1M41 51h1M50 51h1M55 51h1M41 52h1M54 52h1M42 53h1M42 54h1M43 55h1M44 56h2" />
<path stroke="#b47bc5" d="M48 27h1M48 28h1M49 30h1M42 44h1M48 44h1M44 46h1M45 48h1M49 48h1M49 49h1" />
<path stroke="#ffc55a" d="M50 31h1M51 46h5M54 47h2M55 48h1M55 49h1" />
</svg>