<svg xmlns="http://www.w3.org/2000/svg" viewBox="0 -0.5 80 80" shape-rendering="crispEdges">
<metadata>Made with Pixels to Svg https://codepen.io/shshaw/pen/XbxvNj</metadata>
<path stroke="#5a3110" d="M55 11h1M54 12h1M56 12h1M20 13h2M54 13h1M20 14h1M22 14h1M54 14h1M20 15h1M23 15h1M54 15h1M56 15h2M20 16h1M24 16h1M54 16h1M25 17h1M54 17h1M21 18h1M26 18h1M53 18h1M21 19h1M27 19h1M27 20h1M57 20h1M22 21h1M28 21h1M22 22h1M29 22h1M22 23h1M29 23h2M43 23h4M52 23h2M30 24h1M40 24h1M46 24h3M23 25h1M31 25h1M37 25h1M48 25h3M58 25h1M23 26h1M31 26h1M33 26h1M14 27h3M14 28h1M17 28h2M24 28h1M52 28h1M19 29h2M29 29h1M21 30h1M22 31h2M59 31h1M24 32h2M47 33h1M26 35h1M26 36h1M48 36h1M25 37h1M60 37h1M49 40h1M55 42h1M30 45h1M37 45h3M23 46h2M42 46h1M21 47h2M26 47h1M20 48h1M19 49h1M18 50h1M45 50h2M18 51h1M18 52h1M28 53h4M39 53h1M47 53h2M27 54h1M32 54h1M40 54h1M48 54h1M17 55h1M26 55h1M49 55h1M60 55h5M17 56h1M25 56h1M42 56h1M49 56h1M60 56h1M64 56h1M16 57h1M20 57h2M25 57h1M37 57h1M50 57h1M57 57h1M16 58h1M19 58h1M25 58h1M50 58h1M53 58h2M66 58h3M18 59h1M35 59h1M49 59h2M45 63h1M61 63h1" />
<path stroke="#ffcd6a" d="M55 12h1M55 13h1M55 14h1M56 17h1M56 18h1M56 19h1M43 24h3M45 25h3M46 26h5M48 27h4M49 28h2" />
<path stroke="#101010" d="M56 13h1M56 14h1M57 16h1M20 17h1M57 17h1M57 18h1M53 19h1M57 19h1M21 20h1M53 20h1M58 20h1M53 21h1M58 21h1M53 22h1M58 22h1M40 23h3M58 23h1M22 24h1M37 24h3M52 24h1M58 24h1M33 25h4M52 25h1M59 25h1M32 26h1M52 26h1M59 26h1M23 27h1M31 27h1M52 27h1M59 27h1M30 28h1M51 28h1M59 28h1M14 29h1M24 29h1M46 29h2M51 29h1M59 29h1M15 30h1M24 30h1M46 30h1M48 30h1M51 30h1M59 30h1M15 31h1M24 31h1M46 31h1M49 31h1M51 31h1M60 31h1M16 32h1M46 32h1M50 32h2M60 32h1M16 33h1M46 33h1M51 33h1M60 33h1M17 34h1M47 34h1M52 34h1M60 34h1M18 35h1M47 35h1M60 35h1M18 36h1M47 36h1M60 36h1M19 37h1M48 37h1M61 37h1M20 38h1M25 38h1M48 38h1M61 38h1M20 39h1M25 39h1M48 39h1M61 39h1M21 40h1M25 40h1M48 40h1M61 40h1M22 41h1M24 41h3M49 41h1M61 41h1M23 42h2M26 42h1M49 42h1M54 42h1M60 42h2M27 43h1M49 43h1M52 43h2M59 43h1M27 44h1M50 44h2M59 44h1M28 45h2M59 45h1M26 46h2M40 46h2M58 46h2M25 47h1M43 47h1M58 47h1M26 48h1M44 48h1M57 48h2M27 49h1M45 49h1M57 49h1M27 50h1M56 50h1M26 51h1M46 51h1M54 51h2M25 52h1M47 52h1M50 52h5M18 53h2M24 53h1M49 53h2M17 54h1M20 54h3M33 55h1M39 55h3M16 56h1M33 56h1M38 56h1M41 56h1M58 56h2M65 56h2M33 57h1M42 57h1M55 57h2M67 57h1M15 58h1M22 58h1M32 58h1M36 58h1M42 58h2M51 58h2M15 59h1M23 59h1M26 59h1M31 59h1M36 59h1M43 59h1M68 59h1M14 60h2M18 60h1M23 60h1M27 60h1M30 60h1M35 60h1M43 60h2M68 60h1M14 61h1M18 61h1M22 61h1M28 61h2M35 61h1M44 61h1M66 61h1M68 61h1M14 62h1M19 62h3M35 62h2M44 62h1M67 62h1M13 63h2M36 63h1M44 63h1M58 63h3M67 63h1" />
<path stroke="#d59452" d="M21 14h1M21 15h2M55 15h1M21 16h3M55 16h2M22 17h3M22 18h4M22 19h5M23 20h4M56 20h1M23 21h5M56 21h2M23 22h6M57 22h1M23 23h6M57 23h1M24 24h6M42 24h1M57 24h1M24 25h1M26 25h1M28 25h1M44 25h1M57 25h1M25 26h1M27 26h1M57 26h2M26 27h1M47 27h1M58 27h1M25 28h1M58 28h1M50 29h1M58 29h1M61 56h3M58 57h9M55 58h11M52 59h16M53 60h7M65 60h1M54 61h4" />
<path stroke="#735231" d="M21 17h1M55 17h1M54 18h2M54 19h2M22 20h1M54 20h2M54 21h2M54 22h3M54 23h3M23 24h1M41 24h1M53 24h4M25 25h1M27 25h1M29 25h2M38 25h6M53 25h4M24 26h1M26 26h1M28 26h3M34 26h12M51 26h1M53 26h4M24 27h2M27 27h4M32 27h15M53 27h5M15 28h2M26 28h4M31 28h18M53 28h5M15 29h4M25 29h4M30 29h16M48 29h2M52 29h6M16 30h5M25 30h21M47 30h1M49 30h2M52 30h7M16 31h6M25 31h21M47 31h2M50 31h1M52 31h7M17 32h7M26 32h20M47 32h3M52 32h8M17 33h29M48 33h3M52 33h8M18 34h29M48 34h4M53 34h7M19 35h7M27 35h20M48 35h12M19 36h7M27 36h20M49 36h11M20 37h5M26 37h22M49 37h11M21 38h4M26 38h22M49 38h12M21 39h4M26 39h22M49 39h12M22 40h3M26 40h22M50 40h11M23 41h1M27 41h22M50 41h11M27 42h22M50 42h4M56 42h4M28 43h21M50 43h2M54 43h5M28 44h22M52 44h7M31 45h6M40 45h19M28 46h12M43 46h15M27 47h16M44 47h14M27 48h17M45 48h12M28 49h17M46 49h11M28 50h17M47 50h9M27 51h19M47 51h7M26 52h21M48 52h2M25 53h3M32 53h7M40 53h7M18 54h2M23 54h4M33 54h7M41 54h7M18 55h8M34 55h5M42 55h7M18 56h7M34 56h4M43 56h6M17 57h3M22 57h3M34 57h3M43 57h7M17 58h2M23 58h2M33 58h3M44 58h6M16 59h2M24 59h2M32 59h3M44 59h5M16 60h2M24 60h3M31 60h4M45 60h7M61 60h3M15 61h3M23 61h5M30 61h5M45 61h8M59 61h7M15 62h4M22 62h13M45 62h22M15 63h21M46 63h12M62 63h5" />
<path stroke="#83ffbd" d="M23 47h2M22 48h4M20 49h5M19 50h6M20 51h3" />
<path stroke="#4aff83" d="M21 48h1M25 49h1M19 51h1M23 51h1" />
<path stroke="#10c54a" d="M26 49h1M25 50h2M24 51h2M19 52h6M20 53h4" />
<path stroke="#ffff83" d="M28 54h4M27 55h5M27 56h4M28 57h3" />
<path stroke="#f6bd00" d="M32 55h1M26 56h1M31 56h1M27 57h1M20 58h2M28 58h2M19 59h3M19 60h2" />
<path stroke="#de8b00" d="M32 56h1M26 57h1M31 57h2M26 58h2M30 58h2M22 59h1M27 59h4M21 60h2M28 60h2M19 61h3" />
<path stroke="#ac7339" d="M51 59h1M52 60h1M60 60h1M64 60h1M66 60h2M53 61h1M58 61h1M67 61h1" />
</svg>