<svg xmlns="http://www.w3.org/2000/svg" viewBox="0 -0.5 80 80" shape-rendering="crispEdges">
<metadata>Made with Pixels to Svg https://codepen.io/shshaw/pen/XbxvNj</metadata>
<path stroke="#6a7b29" d="M51 5h2M53 6h2M51 7h1M54 7h1M23 8h2M51 8h2M25 9h2M52 9h1M57 9h1M27 10h2M52 10h2M53 11h1M30 12h1M53 12h2M33 13h1M53 13h2M47 14h1M52 14h4M45 15h4M51 15h6M38 16h1M45 16h4M50 16h8M39 17h1M45 17h3M50 17h5M58 17h1M61 17h1M45 18h3M49 18h5M59 18h1M40 19h1M45 19h2M49 19h4M60 19h1M36 20h6M44 20h3M48 20h5M60 20h1M62 20h1M23 21h1M34 21h8M44 21h3M48 21h4M61 21h1M23 22h2M33 22h9M43 22h3M47 22h5M61 22h1M23 23h4M31 23h10M42 23h4M47 23h5M61 23h1M74 23h1M23 24h16M41 24h5M47 24h5M62 24h1M66 24h1M71 24h1M24 25h13M39 25h7M47 25h5M62 25h1M75 25h1M27 26h9M38 26h8M47 26h5M62 26h1M74 26h1M30 27h5M36 27h10M47 27h5M62 27h1M68 27h1M72 27h2M23 28h2M32 28h2M35 28h11M47 28h5M62 28h4M71 28h2M24 29h2M35 29h11M47 29h5M62 29h6M70 29h1M72 29h1M24 30h4M37 30h9M48 30h4M62 30h7M25 31h5M38 31h9M48 31h5M61 31h8M26 32h5M38 32h9M49 32h4M61 32h7M27 33h6M37 33h11M49 33h5M60 33h8M28 34h6M36 34h12M50 34h5M59 34h9M29 35h20M51 35h5M60 35h8M28 36h1M30 36h20M53 36h15M13 37h2M27 37h2M31 37h3M35 37h17M56 37h12M15 38h2M26 38h5M34 38h22M58 38h11M13 39h1M17 39h1M19 39h1M25 39h47M13 40h2M19 40h1M24 40h49M14 41h2M24 41h36M61 41h13M14 42h3M23 42h1M27 42h33M61 42h13M15 43h4M25 43h35M62 43h11M16 44h5M25 44h34M68 44h5M17 45h6M25 45h33M70 45h3M18 46h39M71 46h1M19 47h38M20 48h37M21 49h36M22 50h36M19 51h3M25 51h33M18 52h41M18 53h42M17 54h34M58 54h2M7 55h1M17 55h32M51 55h3M4 56h4M11 56h1M16 56h31M49 56h4M60 56h2M4 57h8M17 57h29M47 57h6M62 57h1M5 58h11M19 58h26M46 58h8M63 58h1M6 59h13M20 59h24M45 59h11M63 59h1M7 60h13M21 60h22M45 60h14M64 60h1M8 61h35M44 61h18M64 61h1M9 62h33M44 62h19M10 63h32M43 63h21M11 64h31M43 64h12M60 64h4M12 65h30M43 65h9M55 65h5M62 65h1M13 66h6M20 66h22M44 66h6M52 66h9M14 67h3M19 67h24M44 67h5M50 67h12M13 68h1M18 68h25M45 68h3M49 68h12M63 68h1M12 69h32M46 69h1M49 69h11M12 70h33M48 70h12M12 71h35M48 71h13M63 71h1M11 72h37M49 72h12M65 72h1M11 73h37M50 73h12" />
<path stroke="#394a00" d="M50 6h1M50 7h1M55 7h1M22 8h1M56 8h1M21 9h1M51 9h1M21 10h1M57 10h1M22 11h1M29 11h1M45 11h2M52 11h1M58 11h1M23 12h1M31 12h2M44 12h1M47 12h1M58 12h1M34 13h1M44 13h1M47 13h1M52 13h1M59 13h1M35 14h2M51 14h1M37 15h2M50 15h1M60 15h2M24 17h1M48 17h2M55 17h1M57 17h1M62 17h1M23 18h1M40 18h1M58 18h1M22 19h1M41 19h1M44 19h1M47 19h2M59 19h1M43 20h1M53 20h1M59 20h1M63 20h1M43 21h1M47 21h1M52 21h1M60 21h1M63 21h1M42 22h1M46 22h1M60 22h1M41 23h1M60 23h1M64 23h1M75 23h1M22 24h1M39 24h2M61 24h1M72 24h2M76 24h1M37 25h2M61 25h1M65 25h2M69 25h2M76 25h1M23 26h4M37 26h1M61 26h1M63 26h1M67 26h2M75 26h1M22 27h1M27 27h3M61 27h1M63 27h1M69 27h1M74 27h1M22 28h1M30 28h2M61 28h1M70 28h1M73 28h1M23 29h1M32 29h3M46 29h1M52 29h1M71 29h1M35 30h2M46 30h2M52 30h2M71 30h1M37 31h1M69 31h2M72 31h1M37 32h1M47 32h2M53 32h1M68 32h1M70 32h1M72 32h1M68 33h1M71 33h1M48 34h2M56 34h1M71 34h1M73 34h1M27 35h1M50 35h1M56 35h1M59 35h1M74 35h1M26 36h2M52 36h1M26 37h1M29 37h1M34 37h1M52 37h1M55 37h1M68 37h1M74 37h1M12 38h1M25 38h1M33 38h1M56 38h2M69 38h1M72 38h1M75 38h1M18 39h1M72 39h1M20 40h2M23 40h1M13 41h1M22 41h2M60 41h1M24 42h3M61 43h1M73 43h1M67 44h1M73 44h1M69 45h1M74 47h1M18 49h2M19 50h3M18 51h1M24 51h1M17 53h1M51 54h7M4 55h3M16 55h1M49 55h2M58 55h3M3 56h1M8 56h3M47 56h2M12 57h5M16 58h1M18 58h1M19 59h1M20 60h1M43 60h2M42 62h2M64 62h1M64 63h1M55 64h1M59 64h1M64 64h1M52 65h1M54 65h1M60 65h2M19 66h1M42 66h2M51 66h1M61 66h2M12 67h1M18 67h1M43 67h1M62 67h1M12 68h1M17 68h1M44 68h1M62 68h1M10 69h2M45 69h1M48 69h1M63 69h1M11 70h1M63 70h2M11 71h1M49 73h1M64 73h2" />
<path stroke="#83a441" d="M51 6h2M52 7h2M53 8h3M22 9h3M53 9h4M22 10h5M54 10h3M23 11h6M54 11h4M24 12h6M45 12h2M55 12h3M25 13h8M45 13h2M55 13h4M26 14h9M45 14h2M56 14h4M26 15h11M57 15h3M25 16h13M58 16h3M25 17h14M59 17h2M24 18h16M60 18h2M23 19h17M61 19h1M23 20h13M61 20h1M24 21h10M62 21h1M25 22h8M62 22h1M27 23h4M62 23h1M74 24h2M64 25h1M71 25h4M64 26h3M69 26h5M23 27h4M64 27h4M70 27h2M25 28h5M66 28h4M26 29h6M68 29h2M28 30h7M69 30h2M30 31h7M71 31h1M31 32h6M71 32h1M33 33h4M72 33h1M34 34h2M72 34h1M73 35h1M73 36h1M73 37h1M13 38h2M73 38h2M14 39h3M73 39h2M15 40h4M73 40h2M16 41h6M74 41h1M17 42h6M74 42h1M19 43h6M74 43h1M21 44h4M74 44h1M23 45h2M73 45h2M72 46h2M54 55h4M53 56h4M53 57h4M54 58h4M56 59h4M59 60h5M62 61h2M63 62h1M61 68h1M60 69h3M60 70h3M61 71h2M61 72h3M62 73h2" />
<path stroke="#101010" d="M50 8h1M51 10h1M52 12h1M24 13h1M25 14h1M44 14h1M48 14h1M60 14h1M25 15h1M44 15h1M49 15h1M24 16h1M39 16h1M44 16h1M49 16h1M61 16h1M23 17h1M40 17h1M44 17h1M56 17h1M41 18h1M44 18h1M48 18h1M54 18h1M62 18h1M42 19h1M53 19h1M62 19h1M22 20h1M42 20h1M47 20h1M22 21h1M42 21h1M22 22h1M52 22h1M63 22h1M22 23h1M46 23h1M52 23h1M63 23h1M46 24h1M52 24h1M63 24h3M23 25h1M46 25h1M52 25h1M63 25h1M67 25h2M36 26h1M46 26h1M52 26h1M35 27h1M46 27h1M52 27h1M34 28h1M46 28h1M52 28h1M74 28h1M73 29h1M23 30h1M72 30h1M24 31h1M47 31h1M53 31h1M25 32h1M26 33h1M48 33h1M54 33h1M73 33h1M27 34h1M55 34h1M28 35h1M49 35h1M57 35h2M70 35h1M72 35h1M29 36h1M50 36h2M70 36h1M72 36h1M74 36h1M30 37h1M53 37h2M72 37h1M31 38h2M71 38h1M12 39h1M24 39h1M75 39h1M12 40h1M75 40h1M75 41h1M13 42h1M60 42h1M75 42h1M14 43h1M60 43h1M75 43h1M15 44h1M61 44h6M75 44h1M16 45h1M68 45h1M75 45h1M17 46h1M70 46h1M74 46h2M18 47h1M57 47h1M71 47h3M19 48h1M57 48h1M71 48h1M20 49h1M70 49h1M18 50h1M69 50h1M17 51h1M22 51h2M58 51h1M66 51h2M17 52h1M59 52h1M63 52h2M16 53h1M60 53h2M16 54h1M60 54h1M15 55h1M15 56h1M3 57h1M46 57h1M4 58h1M17 58h1M45 58h1M5 59h1M44 59h1M6 60h1M7 61h1M43 61h1M8 62h1M9 63h1M42 63h1M10 64h1M42 64h1M56 64h3M11 65h1M42 65h1M53 65h1M63 65h1M11 66h2M50 66h1M63 66h1M11 67h1M13 67h1M17 67h1M49 67h1M11 68h1M14 68h3M43 68h1M48 68h1M44 69h1M47 69h1M10 70h1M45 70h3M10 71h1M47 71h1M64 71h1M10 72h1M48 72h1M64 72h1M10 73h1M48 73h1" />
<path stroke="#e68394" d="M55 18h3M54 19h5M54 20h5M53 21h1M57 21h3M53 22h1M58 22h2M59 23h1M59 24h2M60 25h1M60 26h1M59 45h9M58 46h12M58 47h13M58 48h11M58 49h10M59 50h6M60 51h3" />
<path stroke="#bd5a62" d="M54 21h3M54 22h4M53 23h6M53 24h6M53 25h7M53 26h7M53 27h8M53 28h8M53 29h9M54 30h8M54 31h7M54 32h7M55 33h5M57 34h2M70 34h1M70 37h2M59 44h2M58 45h1M57 46h1M57 49h1M58 50h1M68 50h1M59 51h1M65 51h1M60 52h3M65 52h1M62 53h1" />
<path stroke="#d5d5d5" d="M69 32h1M70 33h1M68 34h1M68 35h1M68 36h1M69 37h1M70 38h1" />
<path stroke="#ffffff" d="M69 33h1M69 34h1M69 35h1M71 35h1M69 36h1M71 36h1" />
<path stroke="#ffacb4" d="M69 48h2M68 49h2M65 50h3M63 51h2" />
<path stroke="#c5de7b" d="M57 56h3M57 57h5M58 58h5M60 59h3" />
</svg>