<svg xmlns="http://www.w3.org/2000/svg" viewBox="0 -0.5 80 80" shape-rendering="crispEdges">
<metadata>Made with Pixels to Svg https://codepen.io/shshaw/pen/XbxvNj</metadata>
<path stroke="#943110" d="M37 6h6M36 7h1M44 7h2M35 8h1M46 8h2M35 9h1M48 9h2M35 10h1M50 10h2M36 11h1M52 11h1M37 12h1M54 12h1M55 13h1M38 14h1M56 14h1M57 15h1M58 16h1M59 17h1M59 18h1M43 19h1M60 19h1M60 20h1M46 21h1M61 21h1M48 22h1M11 23h8M51 23h1M10 24h1M21 24h2M60 24h1M9 25h1M24 25h2M9 26h1M26 26h2M50 26h1M59 26h1M28 27h2M10 28h1M30 28h1M58 28h1M32 29h1M11 30h1M33 30h1M34 31h1M35 32h1M36 33h1M16 35h1M22 38h1M25 39h1M29 40h1M66 45h1M65 55h2M67 56h2M69 57h1M70 58h1M45 59h1M46 60h1M69 60h1M44 61h1M45 62h1M49 62h1M45 63h1M45 64h1M50 65h1M46 66h1M49 66h1M48 67h1M43 69h1M47 70h1M41 71h1M47 71h1M47 72h1M45 73h4" />
<path stroke="#ee7341" d="M37 7h6M36 8h10M36 9h1M42 9h6M45 10h5M48 11h4M50 12h3M52 13h3M54 14h2M56 15h1M57 16h1M11 24h8M10 25h13M51 25h1M10 26h1M19 26h7M51 26h1M23 27h5M50 27h1M25 28h5M27 29h4M29 30h4M31 31h3M33 32h2M34 33h2M35 34h2M37 35h1M63 35h2M38 36h1M64 37h1M64 38h1M65 56h2M65 57h3" />
<path stroke="#cd3929" d="M43 7h1M37 9h5M36 10h9M37 11h11M38 12h12M53 12h1M38 13h14M39 14h15M39 15h17M40 16h17M41 17h18M42 18h17M44 19h16M45 20h15M47 21h14M49 22h12M52 23h9M19 24h2M51 24h9M23 25h1M52 25h8M11 26h8M55 26h4M10 27h13M56 27h3M11 28h14M57 28h1M11 29h16M31 29h1M57 29h1M12 30h17M12 31h19M13 32h20M14 33h20M15 34h20M17 35h17M62 35h1M18 36h15M61 36h3M20 37h12M61 37h3M23 38h9M61 38h3M26 39h6M61 39h4M30 40h3M61 40h2M61 41h2M62 42h4M62 43h4M63 44h4M64 45h2M64 57h1M68 57h1M63 58h7M46 59h1M63 59h7M44 60h2M64 60h5M47 61h2M46 62h3M46 63h4M46 64h4M46 65h4M47 66h2M47 67h1M46 68h2M44 69h4M41 70h6M42 71h5M42 72h5M42 73h3" />
<path stroke="#101010" d="M36 12h1M37 13h1M37 14h1M38 15h1M39 16h1M40 17h1M41 18h1M42 19h1M43 20h2M44 21h2M46 22h2M61 22h1M48 23h3M61 23h1M50 24h1M61 24h1M50 25h1M60 25h1M60 26h1M9 27h1M59 27h1M9 28h1M59 28h1M10 29h1M58 29h1M10 30h1M11 31h1M12 32h1M13 33h1M14 34h1M15 35h1M16 36h2M18 37h2M20 38h2M22 39h3M25 40h4M67 40h1M29 41h8M67 41h1M36 42h1M67 42h1M36 43h1M67 43h1M36 44h1M67 44h1M36 45h1M67 45h1M36 46h1M66 46h1M36 47h1M66 47h1M37 48h1M65 48h1M37 49h1M64 49h2M38 50h1M63 50h2M39 51h1M62 51h2M40 52h1M61 52h2M41 53h2M59 53h3M43 54h3M46 55h5M48 56h1M47 57h1M45 58h2M44 59h1M70 59h1M43 60h1M47 60h2M62 60h2M70 60h1M43 61h1M45 61h2M49 61h1M63 61h7M43 62h2M63 62h1M44 63h1M50 63h1M44 64h1M50 64h1M64 64h1M45 65h1M64 65h1M45 66h1M50 66h2M64 66h1M45 67h2M64 67h1M43 68h3M64 68h1M41 69h2M64 69h1M40 70h1M63 70h1M40 71h1M63 71h1M41 72h1M48 72h1M62 72h1M41 73h1M49 73h3M53 73h3M62 73h1" />
<path stroke="#eebd62" d="M52 26h3M52 27h4M52 28h5M51 29h6M50 30h7M51 31h5M49 32h1M52 32h3M56 32h1M48 33h12M45 34h17M34 35h1M43 35h19M33 36h3M41 36h20M64 36h2M32 37h5M39 37h22M65 37h1M32 38h6M39 38h22M65 38h2M32 39h5M38 39h23M65 39h2M33 40h4M38 40h23M63 40h4M38 41h23M63 41h4M37 42h25M66 42h1M37 43h25M66 43h1M37 44h26M37 45h27M37 46h29M38 47h27M38 48h27M39 49h25M40 50h23M41 51h21M42 52h18M44 53h14M47 54h9M59 54h4M52 55h10M50 56h13M48 57h1M50 57h14M47 58h16M47 59h1M49 59h11M62 59h1M50 60h10M50 61h13M50 62h13M51 63h13M51 64h13M51 65h13M52 66h12M49 67h3M53 67h11M48 68h16M48 69h15M48 70h15M48 71h5M54 71h8M49 72h3M54 72h8M56 73h5" />
<path stroke="#8b6231" d="M49 27h1M49 28h1M49 29h1M49 30h1M57 30h3M45 31h1M56 31h1M61 31h1M43 32h1M62 32h1M42 33h1M63 33h1M37 34h1M41 34h1M64 34h1M38 35h1M40 35h1M65 35h1M39 36h1M66 36h1M38 37h1M66 37h1M67 38h1M67 39h1M37 40h1M37 47h1M65 47h1M38 49h1M39 50h1M40 51h1M41 52h1M60 52h1M43 53h1M62 53h1M46 54h1M63 54h2M49 56h1M48 59h1M61 59h1M49 60h1M64 63h1M52 67h1M63 69h1M62 71h1M52 72h1M52 73h1M61 73h1" />
<path stroke="#ffe69c" d="M51 27h1M50 28h2M50 29h1M47 31h2M57 31h3M45 32h4M57 32h5M43 33h5M60 33h3M42 34h3M62 34h2M35 35h2M41 35h2M36 36h2M40 36h1M37 37h1M62 55h3M63 56h2" />
<path stroke="#cd9c62" d="M47 30h2M46 31h1M49 31h2M60 31h1M44 32h1M50 32h2M55 32h1M38 38h1M37 39h1M37 41h1M58 53h1M56 54h3M51 55h1M49 57h1M60 59h1M60 60h2M53 71h1M53 72h1" />
</svg>