<svg xmlns="http://www.w3.org/2000/svg" viewBox="0 -0.5 80 80" shape-rendering="crispEdges">
<metadata>Made with Pixels to Svg https://codepen.io/shshaw/pen/XbxvNj</metadata>
<path stroke="#31834a" d="M56 5h3M55 6h1M60 6h1M54 7h1M61 7h1M54 8h1M62 8h1M53 9h1M63 9h1M16 10h5M53 10h1M63 10h1M15 11h1M21 11h2M53 11h1M64 11h1M14 12h1M23 12h2M53 12h1M64 12h1M14 13h1M53 13h1M64 13h1M14 14h1M27 14h1M65 14h1M14 15h1M28 15h1M65 15h1M14 16h2M29 16h1M65 16h1M15 17h1M30 17h1M66 17h1M15 18h1M31 18h1M66 18h1M32 19h1M66 19h1M33 20h1M54 20h1M66 20h1M66 21h1M18 22h1M66 22h1M55 23h1M66 23h1M35 24h1M66 24h1M20 25h1M36 25h1M56 25h1M66 25h1M21 26h1M36 26h1M66 26h1M22 27h1M37 27h1M23 28h1M37 28h1M24 29h1M38 29h1M65 29h1M25 30h1M38 30h1M38 31h1M28 32h1M30 33h1M63 33h1M61 36h1M59 49h1M58 51h1M30 54h3M31 57h1M32 59h1M35 60h1M54 60h2M56 61h1M29 62h1M34 62h1M57 62h1M57 63h1M32 64h3M56 64h1M28 65h1M31 65h1M30 67h1M27 68h1M30 68h1M30 69h1M31 70h1M32 71h1M31 72h1M26 73h1M28 74h3" />
<path stroke="#8bdea4" d="M56 6h3M55 7h6M55 8h7M54 9h2M60 9h3M54 10h1M61 10h2M16 11h5M54 11h1M62 11h2M15 12h8M62 12h2M15 13h2M21 13h4M63 13h1M15 14h1M23 14h4M63 14h2M15 15h1M24 15h4M64 15h1M26 16h3M64 16h1M27 17h3M64 17h2M28 18h3M65 18h1M29 19h3M65 19h1M30 20h3M65 20h1M31 21h3M65 21h1M32 22h2M65 22h1M33 23h2M65 23h1M33 24h2M65 24h1M34 25h2M65 25h1M35 26h1M35 27h2M36 28h1M36 29h2M56 29h1M37 30h1M56 30h2M30 55h3M30 56h1M53 60h1M52 61h4M54 62h3" />
<path stroke="#52a46a" d="M59 6h1M56 9h4M55 10h6M55 11h7M54 12h8M17 13h4M25 13h2M54 13h9M16 14h7M54 14h9M16 15h8M54 15h10M16 16h10M54 16h10M16 17h11M54 17h10M16 18h12M54 18h11M17 19h12M54 19h11M17 20h13M55 20h10M18 21h13M34 21h1M55 21h10M19 22h13M34 22h1M55 22h10M19 23h14M35 23h1M56 23h9M20 24h13M56 24h9M21 25h13M57 25h8M22 26h13M57 26h9M23 27h12M57 27h9M24 28h12M57 28h9M25 29h8M57 29h8M26 30h6M58 30h7M27 31h4M59 31h6M29 32h2M60 32h4M61 33h2M61 34h2M61 35h1M60 36h1M57 46h3M56 47h4M55 48h5M55 49h2M54 50h3M54 51h4M54 52h4M54 53h3M55 54h1M33 55h1M31 56h3M32 57h1M30 59h2M30 60h5M30 61h5M30 62h4M51 62h3M29 63h5M51 63h6M29 64h3M51 64h5M29 65h2M28 66h3M28 67h2M28 68h2M27 69h3M27 70h4M26 71h6M26 72h5M27 73h4" />
<path stroke="#101010" d="M53 14h1M53 15h1M53 16h1M53 17h1M53 18h1M16 19h1M53 19h1M16 20h1M53 20h1M17 21h1M54 21h1M17 22h1M54 22h1M18 23h1M54 23h1M19 24h1M55 24h1M19 25h1M55 25h1M20 26h1M56 26h1M21 27h1M56 27h1M66 27h1M22 28h1M56 28h1M66 28h1M23 29h1M55 29h1M66 29h1M24 30h1M55 30h1M65 30h1M25 31h2M65 31h1M26 32h2M64 32h2M28 33h2M64 33h1M30 34h1M63 34h1M31 35h1M62 35h2M62 36h1M31 37h1M60 37h2M58 38h2M30 39h1M29 42h1M29 43h1M29 44h1M29 45h1M60 45h1M29 46h1M60 46h1M29 47h1M60 47h1M29 48h1M60 48h1M30 49h1M60 49h1M30 50h1M59 50h1M31 51h1M59 51h1M32 52h1M58 52h1M33 53h1M57 53h2M33 54h3M56 54h2M29 55h1M35 55h3M55 55h2M29 56h1M37 56h2M52 56h3M30 57h1M50 57h3M30 58h3M29 59h1M33 59h2M29 60h1M29 61h1M35 61h1M28 62h1M35 62h1M28 63h1M34 63h1M28 64h1M57 64h1M27 65h1M49 65h8M27 66h1M49 66h1M27 67h1M49 67h1M26 68h1M49 68h1M26 69h1M49 69h1M26 70h1M48 70h2M25 71h1M48 71h1M25 72h1M32 72h1M47 72h2M25 73h1M31 73h1M47 73h1M26 74h2M31 74h1M46 74h1" />
<path stroke="#f6cd6a" d="M33 29h3M32 30h4M31 31h5M57 31h2M31 32h6M57 32h3M31 33h5M56 33h5M32 34h2M40 34h8M54 34h7M37 35h14M52 35h1M54 35h7M35 36h25M33 37h26M32 38h24M31 39h26M31 40h27M31 41h27M30 42h29M30 43h29M30 44h29M30 45h30M30 46h27M30 47h26M31 48h24M31 49h23M57 49h2M32 50h22M57 50h2M33 51h21M34 52h20M35 53h19M36 54h18M38 55h16M34 56h3M40 56h12M33 57h3M37 57h11M34 58h1M36 58h13M36 59h14M36 60h14M36 61h15M36 62h15M35 63h12M48 63h3M35 64h12M50 64h1M32 65h3M36 65h13M31 66h18M31 67h18M31 68h18M31 69h18M32 70h3M36 70h12M36 71h12M34 72h13M36 73h10M40 74h5" />
<path stroke="#ffeea4" d="M36 30h1M36 31h2M56 31h1M40 32h9M55 32h2M37 33h14M54 33h2M35 34h5M48 34h5M34 35h3M51 35h1M33 36h2M57 39h1M58 40h1M58 41h1M59 42h1M59 43h1M59 44h1M50 59h2M50 60h3M51 61h1" />
<path stroke="#8b624a" d="M40 31h9M54 31h2M37 32h2M50 32h2M54 32h1M52 33h2M31 34h1M53 34h1M32 35h2M32 36h1M59 37h1M31 38h1M57 38h1M58 39h1M30 40h1M59 40h1M29 41h1M59 41h1M60 42h1M60 43h1M60 44h1M30 48h1M31 50h1M32 51h1M33 52h1M34 53h1M34 55h1M54 55h1M39 56h1M33 58h1M35 58h1M50 58h2M52 59h2M47 63h1M48 64h2M35 65h1M35 70h1M33 71h2M32 73h1M34 73h2M46 73h1M32 74h1M36 74h3" />
<path stroke="#cd9c52" d="M39 32h1M49 32h1M36 33h1M51 33h1M34 34h1M53 35h1M32 37h1M56 38h1M30 41h1M54 49h1M54 54h1M36 57h1M48 57h2M49 58h1M35 59h1M47 64h1M35 71h1M33 72h1M33 73h1M33 74h3M39 74h1M45 74h1" />
</svg>