<svg xmlns="http://www.w3.org/2000/svg" viewBox="0 -0.5 80 80" shape-rendering="crispEdges">
<metadata>Made with Pixels to Svg https://codepen.io/shshaw/pen/XbxvNj</metadata>
<path stroke="#a473bd" d="M36 22h11M32 23h3M48 23h3M29 24h1M51 24h1M27 25h1M25 26h1M23 27h2M22 28h1M21 29h1M20 30h1M15 36h1M69 39h1M72 40h1M12 42h1M74 42h1M65 44h1M11 45h1M68 45h1M70 46h1M10 49h1M62 50h1M64 51h1M9 53h1M54 54h1M57 56h1M56 57h1M59 57h1M63 57h1" />
<path stroke="#bd94e6" d="M35 23h1M47 23h1M30 24h2M28 25h1M26 26h1M39 26h8M37 27h14M37 28h17M59 28h1M37 29h19M37 30h21M36 31h24M36 32h25M35 33h27M35 34h28M65 34h1M34 35h29M69 35h1M33 36h32M17 37h2M31 37h38M16 38h5M29 38h42M74 38h1M15 39h49M70 39h5M14 40h55M73 40h3M13 41h59M75 41h1M13 42h61M12 43h64M12 44h49M66 44h11M12 45h53M69 45h8M11 46h57M71 46h5M11 47h59M72 47h4M11 48h60M73 48h2M11 49h62M10 50h49M63 50h10M7 51h2M10 51h52M65 51h7M6 52h2M10 52h54M66 52h4M4 53h4M10 53h56M68 53h1M3 54h5M9 54h44M55 54h12M3 55h1M7 55h1M9 55h45M56 55h11M5 56h3M9 56h46M58 56h7M3 57h5M9 57h47M60 57h3" />
<path stroke="#deb4e6" d="M36 23h11M32 24h11M44 24h7M29 25h1M31 25h12M44 25h10M27 26h3M31 26h8M47 26h9M25 27h12M51 27h7M23 28h14M54 28h5M22 29h15M56 29h5M21 30h16M58 30h4M20 31h16M60 31h3M19 32h17M61 32h3M18 33h17M17 34h18M63 34h2M16 35h18M63 35h6M16 36h17M65 36h6M15 37h2M19 37h12M69 37h4M14 38h2M21 38h8M71 38h3M14 39h1M13 40h1" />
<path stroke="#101010" d="M43 24h1M30 25h1" />
<path stroke="#8b4a9c" d="M52 24h2M54 25h2M56 26h2M58 27h1M60 28h1M61 29h1M62 30h1M19 31h1M63 31h1M18 32h1M64 32h1M17 33h1M62 33h4M16 34h1M66 34h3M15 35h1M70 35h1M71 36h2M14 37h1M73 37h2M13 38h1M75 38h1M13 39h1M64 39h2M75 39h2M12 40h1M12 41h1M76 43h1M61 44h1M76 46h1M75 48h1M74 49h1M59 50h1M5 51h1M5 52h1M70 52h1M67 53h1M6 55h1M4 56h1M2 57h1" />
<path stroke="#eecdf6" d="M43 25h1M30 26h1" />
<path stroke="#5a2073" d="M66 39h3M69 40h3M76 40h1M72 41h3M76 41h1M11 42h1M75 42h2M11 43h1M77 43h1M11 44h1M62 44h3M77 44h1M10 45h1M65 45h3M77 45h1M10 46h1M68 46h2M77 46h1M10 47h1M70 47h2M76 47h1M9 48h2M71 48h2M76 48h1M9 49h1M73 49h1M75 49h1M7 50h3M60 50h2M73 50h2M6 51h1M9 51h1M62 51h2M72 51h2M4 52h1M8 52h2M64 52h2M71 52h2M3 53h1M8 53h1M66 53h1M69 53h3M2 54h1M8 54h1M53 54h1M67 54h3M71 54h1M2 55h1M4 55h2M8 55h1M54 55h2M67 55h1M71 55h1M2 56h2M8 56h1M55 56h2M65 56h2M71 56h1M1 57h1M8 57h1M57 57h2M64 57h2M70 57h1" />
<path stroke="#cdb483" d="M70 54h1M68 55h3M67 56h3M66 57h4" />
<path stroke="#6a624a" d="M70 56h1" />
</svg>