<svg xmlns="http://www.w3.org/2000/svg" viewBox="0 -0.5 80 80" shape-rendering="crispEdges">
<metadata>Made with Pixels to Svg https://codepen.io/shshaw/pen/XbxvNj</metadata>
<path stroke="#cd9c7b" d="M24 23h9M47 23h9M21 24h3M48 24h1M20 25h1M24 25h1M32 25h1M48 25h1M19 26h1M22 26h1M34 26h1M48 26h1M59 26h1M24 27h1M32 27h1M37 27h1M47 27h1M59 27h2M19 28h1M47 28h1M59 28h2M20 29h1M46 29h2M59 29h2M19 30h1M21 30h1M23 30h1M33 30h2M45 30h1M47 30h1M59 30h3M18 31h1M20 31h1M22 31h2M25 31h3M29 31h6M36 31h1M59 31h3M18 32h6M25 32h2M28 32h8M60 32h2M17 33h7M25 33h1M27 33h9M43 33h1M60 33h2M17 34h7M26 34h10M43 34h2M47 34h2M60 34h3M16 35h8M25 35h12M43 35h6M63 35h1M18 36h5M24 36h13M39 36h1M45 36h4M50 36h2M55 36h1M58 36h5M64 36h1M16 37h2M19 37h4M24 37h13M38 37h3M46 37h2M49 37h4M54 37h2M57 37h6M64 37h2M16 38h3M20 38h3M24 38h9M35 38h1M38 38h3M48 38h8M57 38h3M62 38h2M65 38h2M16 39h4M21 39h1M23 39h8M33 39h2M37 39h5M49 39h3M54 39h1M56 39h2M62 39h1M65 39h1M12 40h1M16 40h4M21 40h1M23 40h7M31 40h5M37 40h5M45 40h1M50 40h1M55 40h2M11 41h8M23 41h6M30 41h7M38 41h5M45 41h1M50 41h1M12 42h3M16 42h2M19 42h4M24 42h3M30 42h7M39 42h3M45 42h1M13 43h1M18 43h6M25 43h1M27 43h3M31 43h6M40 43h1M19 44h2M22 44h2M26 44h4M31 44h1M34 44h2M19 45h1M23 45h2M27 45h3M34 45h1M24 46h1M28 46h2" />
<path stroke="#e6cdac" d="M24 24h9M47 24h1M49 24h7M21 25h3M33 25h4M46 25h2M49 25h9M20 26h2M35 26h3M46 26h2M49 26h9M19 27h5M33 27h4M38 27h1M45 27h2M48 27h10M21 28h15M37 28h2M44 28h3M48 28h10M19 29h1M24 29h9M36 29h4M43 29h3M48 29h10M18 30h1M20 30h1M22 30h1M36 30h5M42 30h3M46 30h1M48 30h10M19 31h1M21 31h1M37 31h4M42 31h2M48 31h10M37 32h5M45 32h3M49 32h10M37 33h5M44 33h4M49 33h10M37 34h5M45 34h2M50 34h1M55 34h4M38 35h1M51 35h4M56 35h2M64 35h2M40 36h3M52 36h3M65 36h2M14 37h2M41 37h4M53 37h1M66 37h1M12 38h4M41 38h4M12 39h4M42 39h4M13 40h3M42 40h3" />
<path stroke="#8b624a" d="M33 24h4M46 24h1M25 25h7M45 25h1M23 26h11M45 26h1M58 26h1M18 27h1M25 27h7M44 27h1M58 27h1M18 28h1M20 28h1M36 28h1M43 28h1M58 28h1M18 29h1M21 29h3M33 29h3M42 29h1M58 29h1M17 30h1M24 30h9M35 30h1M58 30h1M24 31h1M28 31h1M35 31h1M44 31h3M58 31h1M24 32h1M27 32h1M36 32h1M43 32h2M59 32h1M24 33h1M26 33h1M36 33h1M42 33h1M59 33h1M24 34h2M36 34h1M42 34h1M51 34h4M59 34h1M24 35h1M37 35h1M39 35h4M50 35h1M55 35h1M14 36h4M23 36h1M37 36h2M43 36h2M49 36h1M56 36h2M12 37h2M18 37h1M23 37h1M37 37h1M45 37h1M48 37h1M56 37h1M63 37h1M11 38h1M19 38h1M23 38h1M33 38h2M36 38h2M45 38h1M64 38h1M11 39h1M20 39h1M22 39h1M31 39h2M36 39h1M11 40h1M20 40h1M22 40h1M30 40h1M10 41h1M29 41h1M18 42h1M27 42h3M26 43h1M30 43h1M25 44h1M30 44h1M36 44h1M25 45h1M30 45h1M35 45h1" />
<path stroke="#181818" d="M56 24h2M37 25h1M58 25h2M38 26h1M60 26h1M39 27h1M61 27h1M39 28h1M61 28h1M40 29h1M61 29h2M41 30h1M62 30h1M17 31h1M41 31h1M47 31h1M62 31h1M17 32h1M42 32h1M48 32h1M62 32h1M16 33h1M48 33h1M62 33h1M16 34h1M49 34h1M63 34h3M15 35h1M49 35h1M58 35h5M66 35h1M63 36h1M67 36h1M67 37h1M46 38h2M67 38h1M35 39h1M46 39h1M61 39h1M6 40h1M36 40h1M46 40h1M61 40h1M70 40h1M6 41h1M19 41h4M37 41h1M44 41h1M46 41h1M61 41h1M69 41h1M6 42h2M23 42h1M37 42h1M44 42h1M69 42h1M7 43h1M24 43h1M68 43h1M7 44h1M24 44h1M45 44h1M68 44h1M7 45h1M69 45h1M3 50h1M3 51h1M2 52h1M75 52h1M2 53h1M76 53h1M2 54h1M77 54h1M1 55h2M77 55h1M1 56h1M78 56h1M1 57h1M78 57h1M1 58h1M78 58h1M1 59h1M79 59h1M0 60h2M79 60h1M0 61h1M79 61h1M0 62h1M79 62h1M0 63h1M79 63h1" />
<path stroke="#73738b" d="M9 37h1M9 38h1M9 39h1M47 39h1M47 40h1M52 40h2M63 40h1M66 40h1M69 40h1M47 41h2M52 41h3M57 41h1M60 41h1M62 41h2M65 41h2M68 41h1M43 42h1M47 42h3M51 42h6M58 42h3M62 42h2M65 42h4M8 43h1M10 43h1M38 43h1M42 43h3M46 43h22M8 44h4M37 44h2M41 44h4M46 44h22M8 45h4M14 45h2M21 45h1M32 45h1M36 45h4M41 45h5M47 45h22M7 46h6M14 46h4M21 46h2M26 46h1M31 46h3M35 46h33M6 47h18M25 47h2M30 47h37M5 48h23M29 48h10M40 48h1M42 48h22M65 48h1M5 49h33M39 49h1M41 49h22M64 49h1M66 49h1M4 50h35M40 50h1M42 50h22M65 50h1M67 50h1M4 51h65M4 52h66M3 53h62M3 54h61M71 54h1M3 55h60M72 55h1M2 56h49M56 56h7M72 56h1M77 56h1M2 57h48M57 57h6M67 57h1M72 57h3M76 57h2M2 58h47M58 58h4M66 58h3M73 58h5M2 59h34M40 59h9M58 59h4M66 59h3M73 59h6M2 60h32M42 60h7M53 60h1M58 60h4M65 60h5M73 60h6M1 61h33M42 61h6M52 61h3M59 61h3M65 61h5M73 61h6M1 62h32M43 62h5M52 62h3M59 62h3M65 62h5M73 62h6M1 63h32M37 63h2M43 63h5M51 63h5M59 63h3M65 63h5M73 63h6" />
<path stroke="#4a4a62" d="M10 38h1M10 39h1M63 39h1M10 40h1M62 40h1M64 42h1M40 44h1M12 45h1M17 45h1M13 46h1M18 46h1M20 46h1M27 47h1" />
<path stroke="#393952" d="M56 38h1M60 38h2M68 38h3M6 39h2M48 39h1M52 39h2M55 39h1M58 39h2M64 39h1M66 39h2M70 39h1M8 40h2M48 40h2M51 40h1M54 40h1M57 40h1M64 40h2M9 41h1M43 41h1M49 41h1M51 41h1M55 41h2M64 41h1M10 42h2M15 42h1M38 42h1M42 42h1M46 42h1M50 42h1M61 42h1M11 43h2M14 43h1M16 43h2M37 43h1M39 43h1M41 43h1M45 43h1M12 44h3M17 44h1M21 44h1M32 44h2M39 44h1M13 45h1M18 45h1M20 45h1M22 45h1M26 45h1M31 45h1M33 45h1M40 45h1M46 45h1M6 46h1M19 46h1M23 46h1M25 46h1M27 46h1M30 46h1M34 46h1M70 46h1M5 47h1M24 47h1M28 47h2M71 47h1M4 48h1M28 48h1M72 48h1M4 49h1M73 49h1M74 50h1M75 51h1M3 52h1" />
<path stroke="#9494ac" d="M60 39h1M68 39h2M7 40h1M58 40h3M67 40h2M7 41h2M58 41h2M67 41h1M8 42h2M57 42h1M9 43h1M15 43h1M15 44h2M16 45h1M68 46h2M67 47h4M39 48h1M41 48h1M64 48h1M66 48h6M38 49h1M40 49h1M63 49h1M65 49h1M67 49h6M39 50h1M41 50h1M64 50h1M66 50h1M68 50h6M69 51h6M70 52h5M70 53h6M72 54h5M73 55h4M73 56h4M75 57h1" />
<path stroke="#bdb483" d="M18 44h1M65 53h1M69 53h1M64 54h1M70 54h1M63 55h1M71 55h1M51 56h1M55 56h1M50 57h1M56 57h1M66 57h1M68 57h1M49 58h1M57 58h1M62 58h1M72 58h1M36 59h1M39 59h1M65 59h1M69 59h1M34 60h1M41 60h1M52 60h1M54 60h1M48 61h1M58 61h1M33 62h1M42 62h1M51 62h1M55 62h1M36 63h1M39 63h1" />
<path stroke="#ffee73" d="M66 53h3M65 54h5M64 55h7M52 56h3M63 56h9M51 57h5M63 57h3M69 57h3M50 58h7M63 58h3M69 58h3M37 59h2M49 59h9M62 59h3M70 59h3M35 60h6M49 60h3M55 60h3M62 60h3M70 60h3M34 61h8M49 61h3M55 61h3M62 61h3M70 61h3M34 62h8M48 62h3M56 62h3M62 62h3M70 62h3M33 63h3M40 63h3M48 63h3M56 63h3M62 63h3M70 63h3" />
</svg>