<svg xmlns="http://www.w3.org/2000/svg" viewBox="0 -0.5 80 80" shape-rendering="crispEdges">
<metadata>Made with Pixels to Svg https://codepen.io/shshaw/pen/XbxvNj</metadata>
<path stroke="#184a39" d="M38 13h10M35 14h2M49 14h2M51 15h2M54 16h1M55 17h1M28 18h1M56 18h1M27 19h1M57 19h1M26 20h1M58 20h1M25 21h1M59 21h1M24 22h1M55 22h4M60 22h1M23 23h1M59 23h2M22 24h1M61 24h1M56 25h1M61 25h1M21 26h1M62 26h1M62 27h1M20 28h1M56 28h1M62 28h1M20 29h1M58 30h1M63 30h1M19 31h1M63 31h1M19 32h1M63 32h1M19 33h1M63 33h1M18 34h1M18 35h1M54 35h1M18 36h1M36 36h1M18 37h1M35 37h1M18 38h1M35 38h1M42 38h1M50 38h1M18 39h1M35 39h1M42 39h1M42 40h1M52 40h1M41 41h1M62 41h1M48 44h3M61 44h1M19 46h1M60 47h1M20 49h1M59 49h1M21 51h1M25 52h9M22 53h1M24 53h2M34 53h2M23 54h2M36 54h2M35 55h1M38 55h1M27 56h1M38 56h2M40 57h1M20 58h1M24 58h1M18 59h1M41 59h1M17 60h1M42 60h1M16 61h1M15 62h1M21 62h1M14 63h1M20 64h1M13 65h1M19 66h1" />
<path stroke="#5a7b6a" d="M37 14h1M48 14h1M33 15h2M31 16h1M53 16h1M29 17h2M39 18h9M39 19h12M39 20h15M38 21h17M28 22h1M37 22h18M27 23h3M36 23h19M56 23h1M26 24h29M56 24h2M22 25h1M25 25h30M57 25h2M24 26h32M57 26h3M21 27h1M23 27h33M57 27h4M23 28h33M58 28h3M22 29h35M58 29h3M62 29h1M20 30h1M22 30h35M59 30h3M21 31h37M59 31h3M21 32h37M59 32h3M20 33h38M59 33h4M20 34h34M59 34h4M20 35h30M55 35h8M20 36h16M41 36h9M51 36h12M19 37h16M42 37h8M51 37h12M19 38h16M43 38h7M52 38h11M19 39h16M43 39h8M52 39h11M19 40h17M43 40h8M53 40h10M19 41h18M42 41h10M53 41h9M19 42h33M53 42h9M19 43h31M53 43h9M19 44h29M51 44h10M19 45h42M20 46h41M20 47h40M20 48h40M21 49h38M21 50h38M22 51h36M22 52h3M34 52h23M23 53h1M26 53h8M36 53h20M25 54h11M38 54h17M36 55h2M39 55h15M24 56h2M28 56h7M40 56h13M22 57h3M26 57h12M41 57h10M21 58h3M25 58h15M42 58h7M19 59h4M24 59h17M44 59h2M18 60h4M23 60h19M17 61h4M22 61h21M16 62h5M22 62h19M15 63h5M21 63h19M14 64h6M21 64h18M45 64h2M14 65h5M20 65h19M44 65h4M13 66h6M20 66h18M43 66h6" />
<path stroke="#7bac9c" d="M38 14h10M36 15h15M37 16h16M37 17h18M37 18h2M48 18h8M28 19h1M37 19h2M51 19h6M27 20h3M36 20h3M54 20h4M26 21h5M35 21h3M55 21h4M25 22h3M29 22h8M59 22h1M24 23h3M30 23h6M57 23h1M23 24h3M58 24h2M23 25h2M59 25h2M22 26h2M60 26h2M22 27h1M61 27h1M21 28h2M61 28h1M21 29h1M61 29h1M21 30h1M62 30h1M20 31h1M62 31h1M20 32h1M62 32h1M19 34h1M19 35h1M19 36h1" />
<path stroke="#a4d5bd" d="M35 15h1M32 16h5M31 17h6M29 18h8M29 19h8M30 20h6M31 21h4" />
<path stroke="#202020" d="M55 23h1M58 23h1M55 24h1M60 24h1M55 25h1M56 26h1M56 27h1M57 28h1M57 29h1M57 30h1M58 31h1M58 32h1M58 33h1M54 34h5M63 34h1M50 35h4M63 35h1M37 36h1M39 36h2M50 36h1M63 36h1M36 37h2M39 37h3M50 37h1M63 37h1M36 38h2M51 38h1M63 38h1M40 39h2M51 39h1M63 39h1M18 40h1M36 40h3M40 40h2M51 40h1M63 40h1M18 41h1M37 41h2M40 41h1M52 41h1M63 41h1M18 42h1M52 42h1M62 42h1M18 43h1M50 43h3M62 43h1M18 44h1M62 44h1M18 45h1M61 45h1M18 46h1M61 46h1M19 47h1M61 47h1M19 48h1M60 48h1M19 49h1M60 49h1M20 50h1M59 50h1M20 51h1M58 51h2M21 52h1M57 52h2M21 53h1M56 53h2M22 54h1M55 54h2M23 55h12M54 55h2M21 56h3M26 56h1M35 56h3M53 56h2M20 57h2M25 57h1M38 57h2M51 57h3M18 58h2M40 58h2M49 58h3M17 59h1M23 59h1M42 59h2M46 59h4M16 60h1M22 60h1M43 60h4M15 61h1M21 61h1M14 62h1M46 62h1M13 63h1M20 63h1M47 63h1M13 64h1M47 64h2M12 65h1M19 65h1M48 65h2M12 66h1M49 66h2" />
<path stroke="#399418" d="M38 36h1M41 38h1M36 39h1M39 41h1M42 62h1" />
<path stroke="#ffffff" d="M38 37h1M38 38h3M37 39h3M39 40h1" />
<path stroke="#414131" d="M43 61h2M41 62h1M45 62h1M40 63h1M46 63h1M39 64h1M44 64h1M43 65h1M38 66h1M42 66h1" />
<path stroke="#83de62" d="M43 62h2M41 63h5M40 64h4M39 65h4M39 66h3" />
</svg>