<svg xmlns="http://www.w3.org/2000/svg" viewBox="0 -0.5 80 80" shape-rendering="crispEdges">
<metadata>Made with Pixels to Svg https://codepen.io/shshaw/pen/XbxvNj</metadata>
<path stroke="#8383ac" d="M27 7h1M26 8h1M28 8h1M27 9h1M29 9h1M27 10h1M30 10h1M27 11h2M31 11h1M45 11h3M28 12h2M32 12h1M43 12h2M28 13h2M33 13h1M40 13h3M45 13h1M28 14h3M34 14h1M37 14h3M43 14h2M28 15h4M35 15h2M41 15h3M24 16h3M29 16h3M39 16h5M19 17h5M29 17h4M37 17h6M18 18h1M29 18h5M35 18h7M21 19h5M29 19h12M24 20h17M27 21h2M36 21h4M38 22h3M42 22h1M39 23h2M40 24h2M43 24h1M41 25h1M42 26h1M44 26h1M42 27h2M43 28h1M46 48h1M47 49h1M47 50h1M47 51h1M47 52h1M47 53h1M74 56h1M74 57h1M75 58h1M75 59h1M76 60h1M76 61h1M68 64h1M65 65h1M75 65h1M72 66h1M69 67h1M51 68h1" />
<path stroke="#fff68b" d="M27 8h1M28 9h1M28 10h2M29 11h2M30 12h2M45 12h2M32 13h1M43 13h2M40 14h3M37 15h4M35 16h4M24 17h4M34 17h3M19 18h8" />
<path stroke="#101010" d="M26 9h1M26 10h1M26 11h1M26 12h2M47 12h1M27 13h1M46 13h1M27 14h1M45 14h2M27 15h1M44 15h2M27 16h2M44 16h1M28 17h1M43 17h1M28 18h1M42 18h2M18 19h3M28 19h1M41 19h2M20 20h4M41 20h1M23 21h4M42 21h1M26 22h2M26 23h1M43 23h1M25 24h1M24 25h1M44 25h1M23 26h1M22 27h1M45 27h1M21 28h1M45 28h1M21 29h1M43 29h3M20 30h1M36 30h2M20 31h1M34 31h6M19 32h1M34 32h2M39 32h1M19 33h1M33 33h2M40 33h1M18 34h1M33 34h2M38 34h1M40 34h1M18 35h1M32 35h3M40 35h1M18 36h1M32 36h1M34 36h2M39 36h2M17 37h1M32 37h1M34 37h7M17 38h1M32 38h1M36 38h2M40 38h1M17 39h1M33 39h1M39 39h1M17 40h1M33 40h1M39 40h1M75 40h1M16 41h1M34 41h1M37 41h1M75 41h1M16 42h1M76 42h1M16 43h1M53 43h1M76 43h1M16 44h1M77 44h1M15 45h1M52 45h1M72 45h2M77 45h1M15 46h1M74 46h1M77 46h1M15 47h1M51 47h1M75 47h1M77 47h1M15 48h1M51 48h1M75 48h1M77 48h1M14 49h1M50 49h1M76 49h2M14 50h1M50 50h1M69 50h2M76 50h1M14 51h1M30 51h1M50 51h1M71 51h2M76 51h1M13 52h2M29 52h1M49 52h1M72 52h2M76 52h1M13 53h1M28 53h1M49 53h1M73 53h4M13 54h1M27 54h1M47 54h1M49 54h1M73 54h1M6 55h1M12 55h2M26 55h1M47 55h1M49 55h1M73 55h1M6 56h1M12 56h1M26 56h1M41 56h1M49 56h1M68 56h1M73 56h1M6 57h1M12 57h1M25 57h1M49 57h1M69 57h4M6 58h1M11 58h2M24 58h1M35 58h4M49 58h1M68 58h5M7 59h1M11 59h1M34 59h2M38 59h2M49 59h2M67 59h7M7 60h1M10 60h2M33 60h2M39 60h1M50 60h1M52 60h3M67 60h7M7 61h2M10 61h1M33 61h2M40 61h1M50 61h2M55 61h1M66 61h7M7 62h1M9 62h2M32 62h1M34 62h2M41 62h1M46 62h1M50 62h1M56 62h1M66 62h6M76 62h1M6 63h1M9 63h1M35 63h2M42 63h2M46 63h1M48 63h2M55 63h2M65 63h6M76 63h1M5 64h1M8 64h2M36 64h2M44 64h4M54 64h3M64 64h4M76 64h1M4 65h1M8 65h1M37 65h2M53 65h2M57 65h1M64 65h1M76 65h1M4 66h1M7 66h2M37 66h3M52 66h2M58 66h1M63 66h1M73 66h3M3 67h1M7 67h1M37 67h1M39 67h2M46 67h1M50 67h2M59 67h4M70 67h3M3 68h1M6 68h2M37 68h1M41 68h2M45 68h1M49 68h2M67 68h3M4 69h3M36 69h1M42 69h3M46 69h3M51 69h3M65 69h3M5 70h1M36 70h1M41 70h1M44 70h1M53 70h4M62 70h4M4 71h2M36 71h1M39 71h2M45 71h1M56 71h7M3 72h2M35 72h1M38 72h1M45 72h1" />
<path stroke="#f6bd00" d="M30 13h2M31 14h3M32 15h3M32 16h3M33 17h1M27 18h1M34 18h1M26 19h2M40 21h2M41 22h1M41 23h2M42 24h1M42 25h2M43 26h1M44 27h1M44 28h1" />
<path stroke="#bd5200" d="M29 21h7M28 22h1M36 22h2M27 23h1M38 23h1M39 24h1M40 25h1M41 26h1M41 27h1M22 28h1M42 28h1M42 29h1M35 30h1M38 30h1M43 30h1M33 32h1M40 32h1M44 32h1M19 34h1M32 34h1M45 34h1M45 35h1M33 36h1M64 36h5M18 37h1M33 37h1M46 37h1M61 37h2M70 37h2M33 38h3M38 38h2M46 38h1M59 38h1M73 38h1M32 39h1M34 39h5M40 39h1M46 39h1M57 39h1M74 39h1M34 40h5M42 40h1M56 40h1M17 41h1M35 41h2M41 41h1M43 41h1M47 41h1M55 41h1M41 42h1M44 42h1M47 42h1M54 42h1M40 43h1M47 43h1M45 44h1M47 44h1M53 44h1M16 45h1M47 45h1M74 45h1M47 46h1M52 46h1M71 46h1M46 47h1M76 48h1M15 49h1M51 49h1M10 50h4M32 50h4M71 50h1M8 51h2M31 51h1M36 51h2M68 51h1M7 52h1M38 52h1M50 52h1M6 53h1M39 53h1M72 53h1M6 54h1M40 54h1M17 55h8M27 55h1M40 55h1M14 56h4M24 56h2M69 56h1M13 57h2M26 57h1M36 57h3M41 57h1M7 58h1M13 58h1M25 58h1M34 58h1M39 58h1M41 58h1M50 58h1M12 59h1M33 59h1M36 59h2M41 59h1M52 59h3M8 60h1M35 60h4M41 60h1M51 60h1M55 60h1M9 61h1M32 61h1M35 61h2M39 61h1M41 61h1M56 61h1M8 62h1M33 62h1M36 62h1M55 62h1M8 63h1M57 64h1M5 65h1M46 65h1M58 65h1M63 65h1M46 66h1M51 66h1M62 66h1M41 67h1M12 68h13M36 68h1M43 68h2M46 68h1M48 68h1M8 69h5M24 69h3M6 70h3M27 70h2M6 71h1M29 71h1M35 71h1M44 71h1M5 72h1M30 72h1M39 72h1" />
<path stroke="#de6a08" d="M29 22h7M28 23h10M26 24h13M25 25h15M24 26h17M23 27h18M23 28h18M22 29h18M21 30h14M39 30h1M21 31h13M40 31h1M43 31h1M20 32h13M20 33h13M44 33h1M20 34h12M19 35h13M41 35h1M19 36h13M41 36h1M45 36h1M19 37h13M41 37h1M63 37h1M69 37h1M18 38h14M41 38h2M60 38h1M72 38h1M18 39h14M41 39h2M58 39h1M69 39h3M18 40h15M40 40h2M46 40h1M67 40h7M18 41h16M38 41h3M66 41h9M17 42h24M65 42h11M17 43h23M44 43h1M64 43h12M17 44h23M64 44h13M17 45h22M45 45h1M54 45h3M63 45h9M75 45h2M16 46h23M46 46h1M53 46h6M62 46h9M72 46h2M75 46h2M16 47h22M52 47h23M76 47h1M16 48h22M52 48h23M16 49h22M52 49h24M15 50h17M36 50h1M51 50h18M72 50h4M15 51h15M51 51h17M69 51h2M73 51h3M15 52h14M32 52h3M51 52h21M74 52h2M7 53h1M11 53h2M14 53h14M30 53h6M50 53h22M7 54h6M14 54h13M28 54h9M50 54h23M7 55h5M14 55h3M25 55h1M28 55h9M50 55h23M7 56h5M13 56h1M18 56h6M27 56h13M50 56h18M70 56h3M7 57h5M15 57h10M27 57h9M39 57h2M50 57h19M8 58h3M14 58h10M26 58h8M40 58h1M51 58h17M8 59h3M13 59h20M40 59h1M51 59h1M55 59h12M9 60h1M12 60h21M40 60h1M56 60h11M11 61h21M37 61h2M52 61h3M57 61h9M11 62h21M37 62h4M51 62h4M57 62h9M7 63h1M10 63h25M37 63h5M50 63h5M57 63h8M6 64h2M10 64h26M38 64h6M48 64h6M58 64h6M6 65h2M9 65h28M39 65h7M47 65h6M59 65h4M5 66h2M9 66h28M40 66h6M47 66h4M59 66h3M4 67h3M8 67h29M42 67h4M47 67h3M4 68h2M8 68h4M25 68h11M47 68h1M7 69h1M13 69h11M27 69h9M9 70h18M29 70h7M42 70h2M7 71h22M30 71h5M41 71h3M6 72h24M31 72h4M40 72h5" />
<path stroke="#ff9400" d="M41 28h1M40 29h2M40 30h3M41 31h2M41 32h3M41 33h3M41 34h4M42 35h3M42 36h3M42 37h4M64 37h5M43 38h3M61 38h11M43 39h3M59 39h10M72 39h2M43 40h3M57 40h10M74 40h1M44 41h3M56 41h10M45 42h2M55 42h10M45 43h2M54 43h10M46 44h1M54 44h10M46 45h1M53 45h1M57 45h6M59 46h3M10 51h4M32 51h4M8 52h5M30 52h2M35 52h3M8 53h3M29 53h1M36 53h3M37 54h3M37 55h3M40 56h1" />
<path stroke="#acacde" d="M36 32h3M35 33h5M35 34h3M39 34h1M35 35h5M36 36h3" />
<path stroke="#c5cdee" d="M42 41h1M42 42h2M41 43h3M41 44h3M42 45h2M43 46h1M42 58h1M42 59h1M42 60h2M42 61h2M73 61h1M42 62h3M72 62h3M44 63h1M71 63h4M69 64h6M55 65h2M66 65h9M54 66h4M64 66h8M38 67h1M52 67h7M63 67h6M38 68h3M52 68h15M37 69h5M54 69h11M37 70h4M57 70h5M37 71h2M36 72h2" />
<path stroke="#8b41a4" d="M40 44h1M39 45h1M41 45h1M39 46h1M42 46h1M38 47h1M43 47h1M38 48h2M43 48h1M38 49h1M40 49h1M44 49h1M37 50h1M41 50h1M44 50h1M42 51h1M45 51h1M43 52h1M43 53h1M46 53h1M44 54h1M44 55h1M42 56h1M47 56h1M42 57h1M45 57h1M47 57h1M43 58h1M45 58h1M47 58h1M43 59h1M47 59h1M44 60h1M46 60h1M44 61h1M46 61h1M45 62h1M45 63h1" />
<path stroke="#d5d5e6" d="M44 44h1M44 45h1M44 46h2M44 47h2M44 48h2M45 49h2M45 50h2M46 51h1M46 52h1M73 57h1M73 58h2M74 59h1M74 60h2M74 61h2M75 62h1M75 63h1M75 64h1" />
<path stroke="#b46acd" d="M40 45h1M40 46h2M39 47h4M40 48h3M39 49h1M41 49h3M38 50h3M42 50h2M38 51h4M43 51h1M39 52h4M45 52h1M40 53h3M41 54h3M46 54h1M41 55h3M43 56h3M43 57h2M44 58h1M46 58h1M44 59h3M45 60h1M45 61h1" />
<path stroke="#e69cee" d="M44 51h1M44 52h1M44 53h2M45 54h1M45 55h2M46 56h1M46 57h1" />
</svg>