<svg xmlns="http://www.w3.org/2000/svg" viewBox="0 -0.5 80 80" shape-rendering="crispEdges">
<metadata>Made with Pixels to Svg https://codepen.io/shshaw/pen/XbxvNj</metadata>
<path stroke="#104162" d="M36 4h3M39 5h2M41 6h2M43 7h1M44 8h2M46 9h1M47 10h2M49 11h1M60 11h3M50 12h2M57 12h3M62 12h1M52 13h1M55 13h2M62 13h1M62 14h1M32 15h4M52 15h1M63 15h1M27 16h5M63 16h1M24 17h3M63 17h1M22 18h2M63 18h1M21 19h1M63 19h1M21 20h1M64 20h1M21 21h1M64 21h1M20 22h1M65 22h1M20 23h1M20 24h1M19 25h1M19 26h1M19 27h1M19 28h1M19 29h1M18 30h1M65 30h1M68 30h1M18 31h1M66 31h2M18 32h1M67 32h2M18 33h1M43 33h1M67 33h2M18 34h1M42 34h2M67 34h1M69 34h1M18 35h1M42 35h1M69 35h1M17 36h1M41 36h2M69 36h1M17 37h1M41 37h1M17 38h1M40 38h1M68 38h1M17 39h1M39 39h2M64 39h2M17 40h1M39 40h1M66 40h1M17 41h1M38 41h2M16 42h1M38 42h1M16 43h1M37 43h2M63 43h1M16 44h1M37 44h1M61 44h1M16 45h1M36 45h2M59 45h1M16 46h1M36 46h1M55 46h1M15 47h1M51 47h1M64 48h7M62 49h2M71 49h1M33 50h1M41 50h1M72 50h1M15 51h1M40 51h1M73 51h1M39 52h1M66 52h1M73 52h1M31 53h1M38 53h1M61 53h1M74 53h1M14 54h1M38 54h1M58 54h1M75 54h1M37 55h1M75 55h1M8 56h1M37 56h1M55 56h1M76 56h1M37 57h1M76 57h1M36 58h1M77 58h1M36 59h1M57 59h1M77 59h1M4 60h1M36 60h1M57 60h1M77 60h1M11 61h1M15 61h1M26 61h1M35 61h1M58 61h1M78 61h1M35 62h1M58 62h1M78 62h1M6 63h1M35 63h1M59 63h1M65 63h1M78 63h1M34 64h1M59 64h1M79 64h1M34 65h1M59 65h1M79 65h1M33 66h1M60 66h1M66 66h1M73 66h1M79 66h1M33 67h1M60 67h1M74 67h1M79 67h1M32 68h1M69 68h1M75 68h1M32 69h1M73 71h1M59 73h1M31 75h1M58 75h1" />
<path stroke="#101010" d="M35 5h1M35 6h1M35 7h1M35 8h1M34 9h2M34 10h1M34 11h1M33 12h2M33 13h1M33 14h1M53 14h2M69 37h1M69 38h1M68 39h1M67 40h2M67 41h1M62 44h2M60 45h2M56 46h4M35 47h4M52 47h4M15 48h1M35 48h1M38 48h6M48 48h4M15 49h1M34 49h2M42 49h1M48 49h2M60 49h2M15 50h1M34 50h1M49 50h4M57 50h3M14 51h1M33 51h1M53 51h4M14 52h1M32 52h2M64 52h2M14 53h1M32 53h1M62 53h2M13 54h1M31 54h1M59 54h3M63 54h1M8 55h6M30 55h2M56 55h3M63 55h1M2 56h6M30 56h1M56 56h1M63 56h1M2 57h1M29 57h2M56 57h1M63 57h2M2 58h1M29 58h1M56 58h1M64 58h1M2 59h2M28 59h2M64 59h1M3 60h1M28 60h1M64 60h1M4 61h1M12 61h3M27 61h2M64 61h1M4 62h2M12 62h1M15 62h12M64 62h1M5 63h1M12 63h2M64 63h1M6 64h1M13 64h1M65 64h1M6 65h2M13 65h2M65 65h1M7 66h2M14 66h1M65 66h1M2 67h8M14 67h2M66 67h1M2 68h1M15 68h1M60 68h1M66 68h1M74 68h1M79 68h1M2 69h2M15 69h1M60 69h1M66 69h1M69 69h2M74 69h3M79 69h1M3 70h1M6 70h10M60 70h1M66 70h1M68 70h1M70 70h2M73 70h1M76 70h1M78 70h1M3 71h2M7 71h2M60 71h1M66 71h2M71 71h2M76 71h2M4 72h1M8 72h1M60 72h1M0 73h6M8 73h2M60 73h1M0 74h1M9 74h1M59 74h1M0 75h3M10 75h1M59 75h1" />
<path stroke="#4a839c" d="M36 5h1M36 6h2M36 7h3M36 8h4M36 9h5M35 10h7M35 11h8M35 12h9M34 13h11M61 13h1M34 14h12M60 14h2M37 15h10M59 15h4M37 16h11M50 16h1M59 16h4M35 17h16M58 17h5M33 18h19M57 18h6M31 19h22M56 19h7M29 20h34M27 21h36M25 22h40M25 23h40M24 24h41M24 25h41M23 26h43M23 27h43M23 28h43M22 29h41M64 29h2M22 30h22M45 30h19M22 31h22M45 31h20M21 32h22M44 32h21M21 33h22M44 33h21M21 34h21M44 34h22M20 35h22M43 35h23M20 36h21M43 36h24M20 37h20M42 37h27M19 38h21M41 38h23M65 38h3M19 39h20M41 39h23M19 40h20M40 40h24M18 41h20M40 41h24M17 42h21M39 42h25M17 43h20M39 43h24M17 44h20M38 44h23M17 45h19M38 45h21M17 46h19M37 46h18M16 47h19M39 47h12M16 48h19M44 48h4M16 49h18M43 49h5M16 50h17M43 50h6M60 50h9M16 51h17M41 51h12M57 51h14M15 52h17M40 52h24M67 52h5M15 53h16M39 53h22M64 53h8M15 54h16M39 54h19M64 54h9M14 55h16M38 55h18M64 55h9M9 56h21M38 56h17M64 56h10M3 57h26M38 57h18M65 57h9M3 58h26M37 58h17M65 58h10M4 59h24M37 59h16M65 59h10M5 60h23M37 60h16M65 60h10M5 61h6M16 61h10M36 61h17M65 61h11M6 62h6M36 62h17M65 62h11M7 63h5M36 63h18M66 63h11M7 64h6M35 64h19M66 64h11M8 65h5M35 65h20M66 65h12M9 66h5M34 66h22M67 66h6M74 66h4M10 67h4M34 67h23M67 67h7M75 67h4M3 68h12M33 68h25M67 68h2M70 68h4M76 68h3M4 69h11M33 69h26M67 69h2M71 69h2M77 69h2M4 70h2M36 70h23M67 70h1M72 70h1M77 70h1M5 71h2M37 71h23M5 72h3M37 72h23M6 73h2M34 73h25M1 74h8M32 74h27M3 75h7M32 75h26" />
<path stroke="#73a4c5" d="M37 5h2M38 6h3M39 7h4M40 8h4M41 9h5M42 10h5M43 11h6M44 12h6M60 12h2M45 13h7M57 13h4M46 14h7M55 14h5M47 15h5M53 15h6M32 16h5M48 16h2M52 16h7M27 17h8M51 17h7M24 18h9M52 18h5M22 19h9M53 19h3M22 20h7M22 21h5M21 22h4M21 23h4M21 24h3M65 24h1M20 25h4M65 25h1M20 26h3M66 26h1M20 27h3M66 27h1M20 28h3M66 28h2M20 29h2M66 29h2M19 30h3M66 30h2M19 31h3M19 32h2M19 33h2M19 34h2M19 35h1M18 36h2M18 37h2M18 38h1M18 39h1M18 40h1M64 49h7M69 50h3M71 51h2M72 52h1M72 53h2M73 54h2M73 55h2M74 56h2M74 57h2M54 58h2M75 58h2M53 59h4M75 59h2M53 60h4M75 60h2M53 61h5M76 61h2M53 62h5M76 62h2M54 63h5M77 63h1M54 64h5M77 64h2M55 65h4M78 65h1M56 66h4M78 66h1M57 67h3M58 68h2M59 69h1M59 70h1" />
<path stroke="#29627b" d="M36 15h1M51 16h1M63 20h1M63 21h1M65 23h1M66 24h1M66 25h1M67 26h1M67 27h1M68 28h1M63 29h1M68 29h1M44 30h1M64 30h1M44 31h1M43 32h1M40 37h1M64 38h1M66 39h2M42 50h1M73 69h1" />
<path stroke="#ac2939" d="M65 31h1M65 32h1M65 33h1M66 34h1M68 34h1M66 35h1M68 35h1M67 36h2" />
<path stroke="#ffffff" d="M66 32h1M66 33h1" />
<path stroke="#c5415a" d="M67 35h1" />
<path stroke="#522000" d="M64 40h1M64 41h1M64 42h1M64 43h1M64 44h1M64 45h1M64 46h3M19 66h2M24 66h1M19 67h1M23 67h2M19 68h1M24 68h1M19 69h2M20 70h1M18 71h4M17 72h1M34 72h3M17 73h2M31 73h3M18 74h2M29 74h3M19 75h3M29 75h1" />
<path stroke="#c58b29" d="M65 40h1M65 41h1M65 42h1M65 43h1M65 44h1M65 45h1M25 66h1M20 67h2M26 67h1M22 68h2M26 68h2M27 69h2M27 70h3M28 71h8M29 72h4M28 73h3M27 74h2M28 75h1" />
<path stroke="#8b4a18" d="M66 41h1M66 42h1M67 43h1M67 44h1M67 45h1M67 46h1M24 65h2M21 66h1M26 66h1M22 67h1M27 67h1M28 68h2M29 69h2M30 70h6M36 71h1M33 72h1" />
<path stroke="#deb439" d="M66 43h1M66 44h1M66 45h1" />
<path stroke="#a46210" d="M25 67h1M20 68h2M25 68h1M21 69h6M21 70h6M22 71h6M18 72h11M19 73h9M20 74h7M22 75h6" />
</svg>