<svg xmlns="http://www.w3.org/2000/svg" viewBox="0 -0.5 80 80" shape-rendering="crispEdges">
<metadata>Made with Pixels to Svg https://codepen.io/shshaw/pen/XbxvNj</metadata>
<path stroke="#73005a" d="M38 14h5M36 15h2M43 15h2M34 16h2M45 16h1M33 17h1M46 17h1M32 18h1M46 18h1M31 19h1M46 19h1M30 20h1M30 21h1M29 22h1M29 23h1M28 24h1M28 25h1M28 26h1M27 27h3M42 27h3M26 28h2M45 28h2M25 29h1M47 29h2M24 30h1M49 30h1M23 31h1M46 31h3M50 31h1M22 32h1M49 32h3M21 33h1M51 33h2M21 34h1M53 34h2M20 35h1M55 35h2M20 36h1M57 36h1M20 37h1M58 37h1M19 38h1M44 38h1M46 38h1M59 38h1M48 39h1M60 39h1M61 40h1M62 41h1M63 42h1M64 43h1M20 44h1M64 44h1M19 45h1M54 45h1M65 45h1M18 46h1M51 46h1M55 46h1M65 46h1M18 47h1M21 47h1M65 47h1M17 48h1M50 48h1M56 48h1M66 48h1M17 49h1M66 49h1M16 50h1M66 50h1M16 51h1M66 51h1M15 52h1M56 52h1M67 52h1M15 53h1M44 53h1M67 53h1M14 54h1M23 54h1M42 54h1M67 54h1M14 55h1M35 55h1M40 55h1M44 55h1M67 55h1M13 56h1M22 56h1M33 56h1M45 56h1M55 56h1M67 56h1M13 57h1M32 57h1M45 57h1M12 58h1M31 58h1M46 58h1M64 58h1M12 59h1M23 59h1M46 59h1M59 59h1M23 60h1M30 60h1M47 60h1M24 61h1M47 61h1M25 62h1M29 62h1M47 62h1M26 63h1M48 63h1M27 64h1M48 64h1" />
<path stroke="#e67bd5" d="M38 15h5M36 16h9M34 17h12M33 18h13M32 19h10M45 19h1M31 20h10M31 21h9M30 22h10M30 23h9M29 24h10M29 25h10M29 26h10M30 27h12M28 28h17M26 29h21M25 30h5M39 30h10M24 31h3M42 31h4M49 31h1M23 32h2M45 32h4M22 33h2M48 33h3M22 34h1M50 34h3M21 35h1M52 35h3M54 36h3M56 37h2M57 38h2M58 39h2M59 40h2M60 41h2M61 42h2M62 43h2M63 44h1M63 45h2M19 46h1M64 46h1M19 47h1M64 47h1M18 48h2M64 48h2M18 49h1M65 49h1M17 50h2M65 50h1M17 51h1M65 51h1M16 52h2M65 52h2M16 53h1M66 53h1M15 54h2M66 54h1M15 55h1M43 55h1M66 55h1M14 56h2M42 56h3M66 56h1M14 57h1M43 57h2M13 58h2M43 58h3M13 59h1M22 59h1M44 59h2M13 60h1M22 60h1M44 60h3M23 61h1M44 61h3M23 62h2M45 62h2M24 63h2M45 63h3M26 64h1M45 64h3" />
<path stroke="#bd41c5" d="M42 19h3M41 20h5M40 21h6M40 22h6M39 23h7M39 24h6M39 25h6M39 26h5M30 30h9M27 31h15M25 32h20M24 33h24M23 34h27M22 35h30M21 36h33M21 37h35M20 38h24M47 38h10M20 39h26M49 39h9M20 40h28M50 40h9M20 41h29M51 41h9M20 42h30M52 42h9M20 43h31M53 43h9M21 44h31M54 44h9M21 45h31M55 45h8M21 46h30M56 46h8M22 47h29M56 47h8M20 48h1M22 48h28M57 48h7M19 49h2M23 49h26M57 49h8M19 50h3M24 50h24M57 50h8M18 51h5M25 51h22M57 51h8M18 52h6M27 52h19M57 52h8M17 53h7M29 53h15M56 53h10M17 54h6M32 54h10M56 54h10M16 55h7M36 55h4M56 55h10M16 56h6M34 56h8M56 56h10M15 57h7M33 57h10M55 57h12M15 58h7M32 58h11M55 58h9M14 59h8M31 59h13M55 59h4M14 60h8M31 60h13M14 61h9M30 61h14M14 62h9M30 62h15M15 63h9M29 63h16M16 64h10M29 64h16" />
<path stroke="#101010" d="M46 20h1M46 21h1M46 22h1M46 23h1M45 24h2M45 25h1M44 26h2M45 38h1M19 39h1M46 39h2M19 40h1M48 40h2M19 41h1M49 41h2M19 42h1M50 42h2M19 43h1M51 43h2M19 44h1M52 44h2M20 45h1M52 45h2M20 46h1M52 46h1M54 46h1M20 47h1M51 47h1M55 47h1M21 48h1M51 48h1M55 48h1M21 49h2M49 49h2M56 49h1M22 50h2M48 50h2M56 50h1M23 51h2M47 51h2M56 51h1M24 52h3M46 52h2M55 52h1M24 53h1M26 53h3M45 53h2M55 53h1M24 54h1M28 54h4M43 54h2M55 54h1M23 55h1M31 55h4M41 55h2M55 55h1M23 56h1M32 56h1M54 56h1M22 57h1M31 57h1M54 57h1M67 57h1M22 58h1M30 58h1M54 58h1M65 58h2M30 59h1M54 59h1M60 59h5M12 60h1M29 60h1M55 60h5M12 61h2M29 61h1M13 62h1M28 62h1M13 63h2M28 63h1M14 64h2M28 64h1" />
</svg>