<svg xmlns="http://www.w3.org/2000/svg" viewBox="0 -0.5 80 80" shape-rendering="crispEdges">
<metadata>Made with Pixels to Svg https://codepen.io/shshaw/pen/XbxvNj</metadata>
<path stroke="#5a5262" d="M62 14h4M56 15h6M66 15h2M55 16h1M68 16h6M74 17h2M76 18h1M70 23h1M42 24h1M66 24h1M40 25h2M71 25h1M38 26h2M67 26h1M72 26h1M36 27h2M49 27h1M64 27h1M68 27h1M73 27h1M33 28h3M48 28h1M62 28h1M68 28h1M73 28h1M31 29h2M48 29h1M69 29h1M73 29h1M45 30h2M69 30h1M74 30h1M42 31h3M61 31h2M68 31h3M74 31h1M41 32h1M58 32h1M62 32h3M67 32h1M71 32h2M75 32h1M40 33h1M55 33h1M64 33h1M66 33h1M72 33h1M75 33h1M23 34h7M38 34h3M49 34h6M57 34h1M65 34h1M73 34h1M76 34h1M21 35h2M30 35h3M36 35h3M46 35h3M56 35h1M65 35h1M76 35h1M19 36h2M33 36h3M44 36h3M56 36h1M65 36h1M76 36h1M18 37h1M35 37h2M41 37h3M55 37h1M76 37h1M16 38h2M37 38h1M39 38h2M53 38h2M76 38h1M15 39h1M38 39h1M51 39h2M76 39h1M14 40h1M40 40h5M49 40h2M65 40h1M75 40h1M13 41h1M17 41h11M46 41h4M65 41h1M15 42h2M27 42h3M48 42h1M66 42h1M14 43h1M29 43h3M66 43h1M13 44h1M32 44h1M42 44h1M47 44h1M60 44h1M64 44h5M13 45h1M33 45h1M47 45h1M61 45h3M68 45h2M34 46h1M43 46h1M46 46h1M70 46h2M12 47h1M35 47h1M46 47h1M36 48h1M36 49h1M44 49h1M37 50h1M37 51h1M37 52h2M38 53h1M45 53h1M38 54h1M38 55h2M39 56h1M39 57h1M39 58h1M39 59h1M39 60h1M39 61h1M39 62h1M45 62h1M39 63h1M38 64h2M38 65h1M38 66h1M43 66h1" />
<path stroke="#eeeef6" d="M62 15h4M57 16h11M60 17h6M71 17h3M73 18h3M42 25h2M68 25h3M40 26h5M68 26h4M38 27h7M69 27h4M36 28h10M69 28h4M33 29h13M70 29h3M38 30h7M70 30h4M71 31h3M73 33h2M74 34h2M23 35h7M75 35h1M21 36h4M29 36h4M75 36h1M19 37h4M33 37h2M75 37h1M18 38h4M35 38h2M75 38h1M16 39h4M37 39h1M75 39h1M15 40h2M38 40h1M14 41h1M39 41h1" />
<path stroke="#101010" d="M48 16h7M47 17h1M47 18h1M46 19h1M76 19h1M46 20h1M76 20h1M45 21h1M74 21h3M45 22h1M72 22h3M44 23h1M71 23h2M43 24h1M67 24h4M65 25h3M64 26h2M63 27h1M63 28h1M30 29h1M62 29h1M29 30h1M61 30h1M27 31h2M60 31h1M26 32h1M59 32h2M25 33h1M56 33h4M59 34h1M60 35h1M60 36h1M60 37h1M60 38h1M60 39h1M39 40h1M59 40h2M76 40h1M40 41h1M59 41h1M75 41h1M13 42h1M41 42h1M59 42h1M74 42h2M12 43h1M42 43h1M59 43h1M74 43h1M12 44h1M43 44h1M58 44h2M74 44h1M12 45h1M43 45h1M58 45h1M73 45h2M12 46h1M26 46h3M44 46h1M57 46h2M72 46h2M11 47h1M25 47h1M30 47h1M44 47h1M56 47h2M71 47h2M11 48h1M24 48h1M31 48h1M44 48h1M56 48h1M68 48h4M14 49h1M23 49h1M32 49h1M45 49h1M55 49h4M66 49h3M14 50h1M45 50h1M55 50h1M58 50h9M14 51h1M33 51h1M45 51h1M54 51h2M33 52h1M45 52h1M53 52h2M6 53h1M15 53h1M33 53h1M46 53h1M53 53h1M5 54h1M15 54h1M31 54h3M46 54h1M52 54h2M15 55h1M20 55h1M28 55h3M46 55h1M51 55h2M4 56h1M15 56h1M20 56h1M25 56h3M46 56h1M50 56h2M4 57h1M11 57h5M20 57h5M46 57h1M49 57h2M4 58h1M8 58h3M13 58h1M46 58h1M48 58h2M4 59h4M13 59h2M46 59h1M48 59h1M14 60h1M46 60h3M14 61h1M29 61h2M46 61h2M14 62h2M27 62h2M30 62h1M46 62h2M15 63h1M25 63h2M30 63h1M45 63h2M15 64h2M22 64h3M30 64h1M45 64h1M16 65h6M30 65h1M44 65h2M17 66h1M29 66h1M44 66h1" />
<path stroke="#7b7383" d="M56 16h1M48 17h2M57 17h2M67 17h2M50 18h1M60 18h5M51 19h1M51 20h1M51 21h1M50 23h1M50 24h1M50 25h1M61 25h4M49 26h1M58 26h6M66 26h1M57 27h6M65 27h3M56 28h6M64 28h4M55 29h7M63 29h6M47 30h2M54 30h7M62 30h7M53 31h7M63 31h5M42 32h1M52 32h6M61 32h1M65 32h2M41 33h1M51 33h4M60 33h4M65 33h1M58 34h1M60 34h5M39 35h3M57 35h3M61 35h4M36 36h8M57 36h3M61 36h4M37 37h4M56 37h4M61 37h5M38 38h1M55 38h5M61 38h5M53 39h7M61 39h5M51 40h8M61 40h4M41 41h5M50 41h9M60 41h5M17 42h10M42 42h6M49 42h10M60 42h6M15 43h14M43 43h16M60 43h6M14 44h18M44 44h3M48 44h10M61 44h3M14 45h19M44 45h3M48 45h10M59 45h2M64 45h4M13 46h13M29 46h5M45 46h1M47 46h10M59 46h11M13 47h12M31 47h4M43 47h1M45 47h1M47 47h9M58 47h13M12 48h12M32 48h4M42 48h2M45 48h11M57 48h11M15 49h8M33 49h3M37 49h1M41 49h3M46 49h9M59 49h7M15 50h7M33 50h4M39 50h6M46 50h9M15 51h6M34 51h3M38 51h7M46 51h8M15 52h6M34 52h3M39 52h6M46 52h7M16 53h4M34 53h4M39 53h6M47 53h6M16 54h4M34 54h4M39 54h7M47 54h5M16 55h4M31 55h7M40 55h6M47 55h4M16 56h4M28 56h11M40 56h6M47 56h3M16 57h4M25 57h14M40 57h6M47 57h2M14 58h25M40 58h6M47 58h1M15 59h24M40 59h6M47 59h1M15 60h24M40 60h6M15 61h14M31 61h8M40 61h6M16 62h11M31 62h8M40 62h5M16 63h9M31 63h8M40 63h5M17 64h5M31 64h7M40 64h5M31 65h7M39 65h5M30 66h8M39 66h4" />
<path stroke="#aca4b4" d="M50 17h7M59 17h1M66 17h1M69 17h2M48 18h2M51 18h9M65 18h8M47 19h4M52 19h24M47 20h4M52 20h24M46 21h5M52 21h22M46 22h26M45 23h5M51 23h19M44 24h6M51 24h15M44 25h6M51 25h10M45 26h4M50 26h8M45 27h4M50 27h7M46 28h2M49 28h7M46 29h2M49 29h6M30 30h8M49 30h5M29 31h13M45 31h8M27 32h14M43 32h9M68 32h3M73 32h2M26 33h14M42 33h9M67 33h5M30 34h8M41 34h8M55 34h2M66 34h7M33 35h3M42 35h4M49 35h7M66 35h9M25 36h4M47 36h9M66 36h9M23 37h10M44 37h11M66 37h9M22 38h13M41 38h12M66 38h9M20 39h17M39 39h12M66 39h9M17 40h21M45 40h4M66 40h9M15 41h2M28 41h11M66 41h9M14 42h1M30 42h11M67 42h7M13 43h1M32 43h10M67 43h7M33 44h9M69 44h5M34 45h9M70 45h3M35 46h8M36 47h7M37 48h5M38 49h3M38 50h1" />
<path stroke="#cd7b08" d="M26 47h3M27 48h4M27 49h5M25 50h7M11 51h3M24 51h9M9 52h5M23 52h10M8 53h7M22 53h11M6 54h9M22 54h8M6 55h9M21 55h6M5 56h10M21 56h3M5 57h5M5 58h2M29 62h1M28 63h2M26 64h4M23 65h6M18 66h11" />
<path stroke="#8b4100" d="M29 47h1M11 49h3M9 50h2M22 50h1M32 50h1M8 51h1M21 51h1M7 52h1M14 52h1M21 52h1M20 53h1M20 54h1M30 54h1M5 55h1M27 55h1M24 56h1M10 57h1M7 58h1M27 63h1M25 64h1M22 65h1M29 65h1" />
<path stroke="#ffde5a" d="M25 48h2M24 49h3M11 50h3M23 50h2M9 51h2M22 51h2M8 52h1M22 52h1M7 53h1M21 53h1M21 54h1" />
</svg>