<svg xmlns="http://www.w3.org/2000/svg" viewBox="0 -0.5 80 80" shape-rendering="crispEdges">
<metadata>Made with Pixels to Svg https://codepen.io/shshaw/pen/XbxvNj</metadata>
<path stroke="#399483" d="M30 14h7M29 15h1M37 15h2M46 15h4M26 16h1M33 16h1M36 16h1M39 16h1M45 16h1M50 16h3M24 17h1M31 17h1M38 17h1M40 17h1M53 17h2M22 18h1M29 18h1M55 18h2M57 19h1M58 20h1M59 21h1M60 22h1M61 23h1M62 24h1M63 25h1M63 26h1M64 28h1M65 30h1M8 33h2M66 33h1M7 34h1M67 34h1M5 35h1M69 38h1M2 39h1M70 39h2M63 40h4M72 40h2M67 41h2M74 41h1M75 42h1M76 43h1M9 44h7M77 44h1M16 45h4M77 45h1M31 46h13M20 47h1M44 47h8M74 47h1M78 47h1M52 48h3M74 48h1M79 48h1M30 49h1M74 49h2M21 50h1M75 50h1M10 51h1M75 51h1M11 52h1M75 52h1M12 53h2M22 53h1M75 53h1M14 54h2M75 54h1M16 55h2M23 55h1M53 55h3M75 55h1M18 56h3M49 56h4M74 56h2M20 57h1M34 57h15M74 57h1M20 58h1M28 58h1M34 58h1M74 58h1M21 59h1M34 59h1M73 59h1M21 60h1M34 60h1M73 60h1M22 61h1M33 61h1M22 62h1M33 62h1M23 63h1M33 63h1M24 64h1M32 64h1M25 65h1M32 65h1" />
<path stroke="#085a41" d="M27 15h2M25 16h1M34 16h2M44 16h1M23 17h1M32 17h6M43 17h1M21 18h1M30 18h13M20 19h1M28 19h9M41 19h1M19 20h1M27 20h7M40 20h1M18 21h1M26 21h6M39 21h1M17 22h1M25 22h6M38 22h1M16 23h1M24 23h6M38 23h1M15 24h1M24 24h5M37 24h1M14 25h1M23 25h5M36 25h1M13 26h1M23 26h5M36 26h1M13 27h1M22 27h5M35 27h1M64 27h1M12 28h1M22 28h5M35 28h1M12 29h1M22 29h4M34 29h1M65 29h1M11 30h1M21 30h5M34 30h1M11 31h1M21 31h4M66 31h1M10 32h1M21 32h4M33 32h1M66 32h1M10 33h1M20 33h5M33 33h1M6 34h1M10 34h1M20 34h4M33 34h1M10 35h1M20 35h4M67 35h1M4 36h1M9 36h1M20 36h4M32 36h1M67 36h1M3 37h1M9 37h1M20 37h4M32 37h1M67 37h1M2 38h1M9 38h1M20 38h4M32 38h1M65 38h4M9 39h1M20 39h4M63 39h2M1 40h1M9 40h1M20 40h4M31 40h1M61 40h2M1 41h1M8 41h1M20 41h4M31 41h1M60 41h1M0 42h1M20 42h4M31 42h1M59 42h1M20 43h4M31 43h1M58 43h1M20 44h4M30 44h1M57 44h1M20 45h4M30 45h1M57 45h1M20 46h4M30 46h1M56 46h1M78 46h1M21 47h3M30 47h1M56 47h1M21 48h4M30 48h1M55 48h1M21 49h4M29 49h1M55 49h1M79 49h1M9 50h1M22 50h3M29 50h1M55 50h1M79 50h1M22 51h4M29 51h1M55 51h1M79 51h1M22 52h4M29 52h1M79 52h1M23 53h4M29 53h1M79 53h1M23 54h4M29 54h1M56 54h1M78 54h1M24 55h4M29 55h1M56 55h1M24 56h6M57 56h1M77 56h1M25 57h4M26 58h2M58 58h1" />
<path stroke="#c5eee6" d="M30 15h7M27 16h6M37 16h2M25 17h6M39 17h1M44 17h1M23 18h6M43 18h3M21 19h7M42 19h4M55 19h2M20 20h7M41 20h6M55 20h3M19 21h1M22 21h4M40 21h9M53 21h6M18 22h1M23 22h2M39 22h21M39 23h22M38 24h11M55 24h7M37 25h10M57 25h6M37 26h7M59 26h4M60 27h4M61 28h3M62 29h3M63 30h2M63 31h3M64 32h2M64 33h2M8 34h2M65 34h2M6 35h4M65 35h2M5 36h4M65 36h2M4 37h5M65 37h2M3 38h2M6 38h3M3 39h1M65 39h5M2 40h1M69 40h3M69 41h5M1 42h1M68 42h1M71 42h4M1 43h1M68 43h3M72 43h4M1 44h1M68 44h4M73 44h4M68 45h5M74 45h3M69 46h4M74 46h1M76 46h2M70 47h4M77 47h1M77 48h2M78 49h1M78 50h1M78 51h1M78 52h1M78 53h1" />
<path stroke="#ffffff" d="M46 16h4M45 17h8M46 18h9M46 19h9M47 20h8M49 21h4" />
<path stroke="#8b836a" d="M37 19h4M35 20h5M36 21h3" />
<path stroke="#6a6a52" d="M34 20h1M32 21h4M31 22h7M30 23h8M29 24h8M28 25h8M28 26h8M27 27h8M27 28h8M26 29h8M26 30h8M25 31h9M25 32h8M25 33h8M24 34h9M24 35h9M24 36h8M24 37h8M24 38h8M24 39h8M24 40h7M24 41h7M24 42h7M24 43h7M24 44h6M24 45h6M24 46h6M24 47h6M25 48h5M25 49h4M25 50h4M26 51h3M26 52h3M27 53h2M27 54h2M28 55h1M8 57h2M8 58h3M8 59h3M7 60h5M7 61h5M7 62h6M73 62h1M6 63h6M71 63h4M6 64h6M68 64h7M6 65h6M69 65h7" />
<path stroke="#62bd8b" d="M20 21h2M19 22h4M17 23h7M16 24h8M49 24h6M15 25h8M47 25h10M14 26h9M44 26h15M14 27h8M36 27h24M13 28h9M36 28h25M13 29h9M35 29h27M12 30h9M35 30h28M12 31h9M34 31h29M11 32h10M34 32h30M11 33h9M34 33h30M11 34h9M34 34h31M11 35h9M33 35h32M10 36h10M33 36h32M10 37h10M33 37h32M5 38h1M10 38h10M33 38h32M4 39h5M10 39h10M32 39h31M3 40h6M10 40h10M32 40h29M67 40h2M2 41h6M9 41h11M32 41h28M61 41h6M2 42h6M9 42h11M32 42h27M60 42h8M69 42h1M2 43h6M9 43h11M32 43h26M59 43h9M71 43h1M2 44h6M16 44h4M31 44h26M58 44h10M72 44h1M1 45h7M9 45h7M31 45h26M58 45h10M1 46h7M9 46h11M44 46h12M57 46h12M73 46h1M75 46h1M1 47h7M9 47h11M31 47h13M52 47h4M57 47h13M75 47h2M2 48h6M9 48h12M31 48h21M56 48h18M75 48h2M2 49h6M9 49h12M31 49h24M56 49h18M76 49h2M3 50h5M10 50h11M30 50h25M56 50h19M76 50h2M3 51h6M11 51h11M30 51h25M56 51h19M76 51h2M4 52h5M10 52h1M12 52h10M30 52h25M56 52h19M76 52h2M5 53h4M10 53h2M14 53h8M30 53h25M56 53h19M76 53h2M6 54h3M11 54h3M16 54h7M30 54h25M57 54h18M76 54h2M8 55h2M11 55h5M18 55h5M30 55h23M57 55h18M76 55h2M11 56h7M21 56h3M30 56h19M53 56h3M58 56h16M76 56h1M12 57h8M21 57h4M29 57h5M49 57h8M58 57h16M75 57h2M12 58h8M21 58h5M29 58h5M35 58h22M59 58h15M75 58h1M13 59h8M22 59h12M35 59h23M60 59h13M74 59h1M13 60h8M22 60h12M35 60h24M61 60h12M14 61h8M23 61h10M34 61h26M63 61h9M14 62h8M23 62h10M34 62h28M65 62h5M15 63h8M24 63h9M34 63h29M16 64h8M25 64h7M33 64h29M17 65h8M26 65h6M33 65h28" />
<path stroke="#181818" d="M8 42h1M0 43h1M8 43h1M0 44h1M8 44h1M0 45h1M8 45h1M0 46h1M8 46h1M0 47h1M8 47h1M0 48h2M8 48h1M1 49h1M8 49h1M1 50h2M8 50h1M2 51h1M9 51h1M2 52h2M9 52h1M55 52h1M3 53h2M9 53h1M55 53h1M4 54h2M9 54h2M55 54h1M79 54h1M5 55h3M10 55h1M78 55h1M7 56h4M56 56h1M78 56h1M7 57h1M10 57h2M57 57h1M77 57h1M7 58h1M11 58h1M57 58h1M76 58h2M6 59h2M11 59h2M58 59h2M75 59h2M6 60h1M12 60h1M59 60h2M74 60h2M6 61h1M12 61h2M60 61h3M72 61h3M5 62h2M13 62h1M62 62h3M70 62h3M74 62h1M5 63h1M12 63h3M63 63h8M75 63h1M5 64h1M12 64h1M14 64h2M62 64h2M66 64h2M75 64h1M5 65h1M12 65h1M15 65h2M61 65h2M67 65h2M76 65h1" />
<path stroke="#9ce6c5" d="M70 42h1M73 45h1" />
</svg>