<svg xmlns="http://www.w3.org/2000/svg" viewBox="0 -0.5 80 80" shape-rendering="crispEdges">
<metadata>Made with Pixels to Svg https://codepen.io/shshaw/pen/XbxvNj</metadata>
<path stroke="#73a46a" d="M30 5h1M27 6h1M26 7h1M28 7h2M17 8h3M26 8h1M20 9h1M24 9h2M21 10h1M23 10h1M17 11h1M22 11h1M50 11h2M54 11h2M23 12h2M49 12h1M51 12h3M15 13h1M24 13h5M51 13h1M28 14h4M31 15h2M44 15h2M54 15h1M42 16h2M41 17h1M40 18h1M37 19h1M39 19h1M38 20h1M38 21h1M37 22h1M37 23h1M36 24h1M36 25h1M36 26h1M34 59h1M33 60h2M33 61h2M33 62h3M33 63h3M33 64h4M34 65h3M49 65h1M54 65h1M34 66h2M49 66h2M52 66h3M49 67h5M48 68h10M48 69h9M49 70h7M49 71h8" />
<path stroke="#41414a" d="M31 5h1M28 6h1M32 6h1M33 7h1M29 8h1M34 8h2M17 9h1M35 9h4M17 10h1M38 10h1M14 11h3M41 11h1M14 12h1M43 12h1M55 12h1M14 13h1M44 13h1M48 13h1M55 13h1M15 14h1M46 14h2M54 14h1M14 15h1M33 15h1M55 15h4M13 16h1M34 16h1M59 16h2M12 17h1M35 17h1M61 17h1M36 18h1M57 21h1M56 23h1M55 30h1M54 33h1M20 51h5M18 52h2M25 52h1M17 53h1M17 54h1M10 62h1M10 63h1M10 64h1" />
<path stroke="#ffffff" d="M30 6h2M27 7h1M30 7h3M27 8h2M30 8h4M18 9h2M26 9h9M18 10h3M24 10h14M18 11h4M23 11h18M15 12h8M25 12h18M50 12h1M54 12h1M16 13h8M29 13h15M49 13h2M52 13h3M16 14h12M32 14h13M48 14h6M15 15h16M34 15h10M46 15h8M14 16h20M35 16h7M44 16h15M13 17h22M36 17h5M42 17h15M60 17h1M12 18h24M37 18h3M41 18h13M12 19h24M38 19h1M40 19h12M11 20h25M39 20h11M11 21h25M39 21h10M11 22h24M38 22h10M11 23h3M16 23h18M39 23h8M11 24h2M17 24h16M40 24h6M12 25h1M18 25h14M41 25h3M19 26h11M20 27h7M28 27h1M25 28h1M27 28h1M29 28h1M26 29h1M28 29h1M47 40h1M47 41h1M47 42h1M47 43h1M48 45h1" />
<path stroke="#000000" d="M39 10h3M42 11h2M44 12h1M45 13h1M45 14h1M11 18h1M60 18h1M10 19h2M59 19h1M10 20h1M58 20h1M10 21h1M58 21h1M9 22h2M57 22h1M9 23h1M57 23h1M9 24h1M56 24h1M9 25h1M56 25h1M9 26h1M13 26h1M56 26h1M9 27h1M13 27h1M56 27h1M9 28h2M13 28h1M56 28h1M10 29h1M13 29h1M56 29h1M10 30h1M13 30h1M56 30h1M11 31h1M13 31h1M49 31h1M55 31h1M7 32h1M11 32h1M13 32h1M48 32h1M55 32h1M8 33h1M13 33h1M47 33h1M55 33h1M9 34h1M14 34h1M46 34h1M54 34h1M9 35h2M14 35h1M46 35h1M53 35h2M10 36h1M46 36h1M52 36h2M11 37h1M45 37h1M51 37h2M11 38h2M45 38h1M51 38h1M12 39h1M45 39h1M51 39h1M12 40h2M45 40h1M50 40h1M13 41h1M45 41h1M50 41h1M13 42h2M44 42h1M48 42h1M50 42h1M14 43h2M44 43h1M48 43h1M50 43h1M15 44h3M43 44h1M49 44h1M17 45h2M43 45h1M49 45h1M18 46h2M42 46h1M48 46h1M19 47h2M41 47h1M43 47h2M47 47h1M21 48h2M40 48h4M45 48h2M23 49h4M38 49h3M27 50h2M35 50h4M27 51h1M32 51h4M26 52h1M32 52h1M25 53h2M33 53h1M24 54h1M26 54h1M33 54h3M54 54h1M16 55h1M22 55h2M30 55h2M33 55h1M36 55h2M55 55h1M59 55h5M16 56h1M21 56h1M32 56h1M34 56h1M38 56h1M56 56h1M64 56h2M16 57h1M20 57h1M32 57h1M34 57h1M39 57h1M66 57h1M13 58h3M19 58h1M21 58h1M28 58h1M32 58h1M34 58h1M39 58h1M43 58h1M66 58h1M12 59h1M17 59h1M20 59h1M28 59h1M32 59h2M35 59h1M39 59h1M43 59h1M67 59h1M11 60h1M16 60h1M27 60h1M32 60h1M35 60h1M39 60h1M43 60h1M67 60h1M11 61h1M15 61h1M27 61h1M32 61h1M35 61h2M38 61h1M43 61h1M67 61h1M14 62h1M26 62h1M32 62h1M36 62h1M38 62h1M43 62h1M67 62h1M12 63h2M26 63h1M32 63h1M36 63h2M43 63h1M67 63h1M11 64h2M15 64h1M25 64h1M32 64h1M37 64h1M44 64h1M67 64h1M10 65h1M14 65h1M25 65h1M32 65h1M37 65h1M44 65h1M55 65h1M66 65h1M9 66h1M13 66h1M24 66h1M32 66h1M38 66h1M45 66h1M51 66h1M55 66h1M66 66h2M8 67h1M24 67h1M32 67h1M34 67h1M38 67h1M45 67h1M55 67h4M68 67h1M4 68h1M12 68h1M23 68h1M32 68h1M34 68h1M39 68h1M46 68h1M58 68h1M68 68h1M4 69h1M11 69h1M23 69h1M32 69h1M35 69h1M39 69h1M57 69h1M69 69h1M5 70h1M11 70h1M22 70h1M32 70h1M35 70h1M69 70h1M4 71h1M10 71h1M22 71h1M32 71h1M36 71h1M57 71h1M69 71h1" />
<path stroke="#c5cdd5" d="M57 17h3M54 18h6M36 19h1M52 19h7M36 20h2M50 20h8M36 21h2M49 21h8M35 22h2M48 22h9M10 23h1M34 23h3M38 23h1M47 23h9M10 24h1M33 24h3M37 24h3M46 24h10M10 25h2M32 25h4M37 25h4M44 25h12M10 26h3M30 26h6M37 26h19M10 27h3M27 27h1M29 27h27M11 28h2M22 28h3M26 28h1M28 28h1M30 28h7M39 28h17M11 29h2M23 29h3M27 29h1M29 29h6M39 29h17M11 30h2M24 30h10M39 30h6M49 30h6M12 31h1M25 31h8M39 31h4M50 31h5M12 32h1M26 32h6M38 32h3M49 32h6M12 33h1M27 33h4M38 33h2M48 33h6M27 34h4M38 34h1M47 34h7M28 35h2M37 35h1M47 35h1M49 35h4M28 36h1M50 36h2M50 37h1M50 38h1M47 44h1" />
<path stroke="#204a00" d="M14 23h2M13 24h1M16 24h1M13 25h1M17 25h1M18 26h1M19 27h1M20 28h2M37 28h2M22 29h1M35 29h2M38 29h1M23 30h1M34 30h1M38 30h1M45 30h4M7 31h3M24 31h1M33 31h1M38 31h1M43 31h2M10 32h1M25 32h1M32 32h1M37 32h1M41 32h2M26 33h1M31 33h1M37 33h1M40 33h1M26 34h1M31 34h1M37 34h1M39 34h1M27 35h1M30 35h1M36 35h1M38 35h1M48 35h1M14 36h1M29 36h1M36 36h2M15 37h1M36 37h1M47 37h2M15 38h1M47 38h1M16 39h1M47 39h1M49 39h1M46 40h1M46 41h1M46 42h1M46 43h1M46 44h1M47 45h1M21 47h1M23 48h1M28 51h3M31 52h1M25 54h1M27 54h3M24 55h2M29 55h1M23 56h1M29 56h1M22 57h1M28 57h2M18 58h1M18 59h1M27 59h1M19 60h1M18 61h1M26 61h1M17 62h1M16 63h1M25 63h1M49 64h1M54 64h2M24 65h1M33 65h1M50 65h1M52 65h2M33 66h1M37 66h1M48 66h1M4 67h4M12 67h2M23 67h1M48 67h1M54 67h1M38 68h1M47 68h1M5 69h1M22 69h1M43 69h3M40 70h3M56 70h1" />
<path stroke="#73ac20" d="M14 24h2M14 25h3M14 26h4M14 27h5M15 28h2M37 29h1M35 30h2M45 31h4M43 32h2M17 60h2M20 60h2M16 61h2M19 61h7M29 61h1M31 61h1M15 62h2M18 62h7M28 62h1M30 62h1M14 63h2M17 63h8M27 63h1M29 63h1M31 63h1M13 64h2M16 64h9M26 64h6M15 65h9M26 65h6M14 66h9M25 66h7M15 67h8M25 67h7M18 68h4M24 68h8M24 69h6" />
<path stroke="#316a00" d="M14 28h1M17 28h3M14 29h8M14 30h9M37 30h1M14 31h10M34 31h4M8 32h2M14 32h11M33 32h4M45 32h3M9 33h3M14 33h12M32 33h5M41 33h6M10 34h4M15 34h11M32 34h5M40 34h6M11 35h3M15 35h12M31 35h5M39 35h7M11 36h3M15 36h13M30 36h6M38 36h8M47 36h3M12 37h3M16 37h20M37 37h8M46 37h1M49 37h1M13 38h2M16 38h29M46 38h1M49 38h1M13 39h3M17 39h28M46 39h1M50 39h1M14 40h31M14 41h31M15 42h29M45 42h1M16 43h28M45 43h1M49 43h1M18 44h25M44 44h2M19 45h24M44 45h3M20 46h22M44 46h4M22 47h19M45 47h2M24 48h16M27 49h11M29 50h6M31 51h1M26 55h3M22 56h1M24 56h5M30 56h2M33 56h1M21 57h1M23 57h5M30 57h2M33 57h1M20 58h1M22 58h6M29 58h3M33 58h1M19 59h1M21 59h6M29 59h3M22 60h5M28 60h4M28 61h1M30 61h1M25 62h1M27 62h1M29 62h1M31 62h1M28 63h1M30 63h1M11 65h3M10 66h3M23 66h1M9 67h3M14 67h1M33 67h1M5 68h7M13 68h5M22 68h1M33 68h1M6 69h5M12 69h10M30 69h2M33 69h2M6 70h5M12 70h10M23 70h9M33 70h2M5 71h5M11 71h11M23 71h9M33 71h3" />
<path stroke="#eee64a" d="M48 38h1M48 39h1M48 40h2M49 41h1M49 42h1M27 52h4M27 53h6M30 54h3M32 55h1" />
<path stroke="#de94ff" d="M48 41h1M48 44h1M48 54h5M46 55h9M45 56h11M58 56h5M45 57h11M57 57h8M44 58h22M44 59h22M44 60h22M44 61h22M44 62h21M45 63h20M46 64h3M50 64h4M56 64h8M51 65h1M56 65h6M65 68h1M67 68h1M64 69h1M66 69h1M65 70h1M67 70h1" />
<path stroke="#cdff73" d="M43 46h1M42 47h1M36 66h1M35 67h3M35 68h3M36 69h3M46 69h2M36 70h4M43 70h6M37 71h12" />
<path stroke="#9c9ca4" d="M20 52h4M18 53h7M18 54h6M18 55h4M34 55h2M35 56h3M35 57h4M35 58h3" />
<path stroke="#6a6a73" d="M24 52h1M17 55h1M17 56h4M17 57h3M16 58h2M38 58h1M13 59h4M36 59h3M12 60h4M36 60h3M12 61h3M37 61h1M11 62h3M37 62h1M11 63h1" />
<path stroke="#8339a4" d="M48 53h5M46 54h2M53 54h1M45 55h1M58 55h1M44 56h1M57 56h1M63 56h1M44 57h1M56 57h1M65 57h1M66 59h1M44 63h1M66 64h1M45 65h1M65 66h1M46 67h1M67 67h1M68 69h1" />
<path stroke="#b46ad5" d="M66 60h1M66 61h1M65 62h2M65 63h2M45 64h1M64 64h2M46 65h3M62 65h4M46 66h2M56 66h9M47 67h1M59 67h8M59 68h6M66 68h1M58 69h6M65 69h1M67 69h1M57 70h8M66 70h1M68 70h1M58 71h11" />
</svg>