<svg xmlns="http://www.w3.org/2000/svg" viewBox="0 -0.5 80 80" shape-rendering="crispEdges">
<metadata>Made with Pixels to Svg https://codepen.io/shshaw/pen/XbxvNj</metadata>
<path stroke="#8b2941" d="M43 12h1M42 13h1M44 13h1M50 13h1M41 14h2M44 14h1M49 14h1M41 15h1M45 15h1M48 15h1M51 15h1M21 16h2M40 16h2M45 16h1M47 16h2M23 17h2M40 17h1M45 17h1M47 17h1M52 17h1M25 18h2M39 18h2M46 18h1M15 19h2M27 19h1M39 19h1M17 20h1M28 20h1M39 20h1M53 20h2M19 21h1M29 21h1M38 21h2M20 22h2M30 22h1M32 25h2M34 26h3M33 27h2M37 27h1M15 29h2M34 30h2M17 32h1M54 32h10M51 33h4M63 33h5M18 34h1M48 34h4M67 34h3M46 35h3M70 35h1M44 36h3M68 36h1M43 37h2M68 37h1M42 38h1M66 38h1M41 39h1M65 39h3M24 40h1M68 40h3M24 41h1M26 41h1M26 42h2M14 43h2M24 43h1M11 44h4M24 44h1M9 45h2M66 45h1M7 46h2M41 46h1M66 46h1M6 47h1M43 47h1M45 47h1M62 47h1M5 48h1M40 48h2M45 48h1M49 48h1M59 48h1M62 48h1M4 49h1M30 49h1M42 49h2M49 49h1M59 49h1M4 50h2M29 50h1M34 50h1M43 50h2M9 51h1M28 51h1M33 51h2M45 51h1M8 52h1M46 52h1M7 53h1M25 53h1M46 53h2M6 54h1M23 54h1M25 54h1M32 54h2M21 55h1M23 55h1M47 55h2M18 56h1M21 56h1M48 58h2M27 63h1M29 63h1M25 64h1M27 64h1M34 64h1M24 65h2M23 66h2M35 66h1M41 66h2M49 66h2M43 67h1M50 67h1M22 68h2M44 68h1M50 68h2M22 69h1M30 69h1M40 69h2M45 69h1M26 70h1M30 70h1M38 70h1M46 70h1M30 71h1M39 71h1" />
<path stroke="#ff94cd" d="M43 13h1M43 14h1M50 14h1M42 15h3M49 15h2M42 16h3M49 16h3M41 17h4M48 17h4M24 18h1M41 18h5M47 18h6M26 19h1M40 19h13M40 20h13M18 21h1M40 21h14M39 22h15M39 23h15M39 24h15M39 25h15M31 26h1M39 26h15M30 27h1M32 27h1M39 27h15M16 28h1M29 28h1M31 28h1M33 28h1M39 28h14M28 29h1M30 29h1M32 29h1M39 29h14M26 30h4M31 30h1M33 30h1M43 30h10M17 31h1M24 31h11M46 31h6M21 32h14M48 32h4M18 33h17M50 33h1M19 34h16M19 35h16M20 36h15M47 36h3M21 37h11M45 37h6M22 38h8M43 38h9M23 39h6M42 39h11M25 40h4M41 40h13M58 40h1M60 40h1M62 40h6M27 41h1M42 41h16M59 41h1M61 41h10M42 42h28M42 43h27M15 44h1M19 44h5M42 44h26M11 45h1M19 45h9M42 45h24M9 46h1M18 46h11M43 46h22M7 47h1M18 47h11M46 47h16M17 48h13M50 48h9M17 49h13M38 49h4M10 50h19M35 50h8M10 51h18M35 51h10M9 52h18M34 52h12M8 53h17M34 53h12M7 54h16M34 54h13M8 55h13M33 55h14M11 56h7M33 56h15M33 57h15M33 58h15M33 59h16M33 60h16M33 61h16M34 62h15M30 63h3M34 63h15M28 64h5M35 64h14M26 65h8M35 65h14M26 66h8M36 66h5M43 66h5M27 67h8M36 67h5M42 67h1M44 67h4M28 68h8M37 68h4M42 68h2M45 68h3M26 69h1M31 69h6M38 69h2M42 69h3M46 69h1M48 69h1M31 70h7M39 70h1M41 70h5M48 70h2M31 71h5M38 71h1M41 71h9" />
<path stroke="#101010" d="M51 14h1M52 15h1M52 16h1M21 17h1M53 17h1M21 18h1M53 18h1M21 19h1M53 19h1M15 20h1M21 20h1M15 21h1M21 21h1M54 21h1M15 22h1M38 22h1M54 22h1M15 23h1M31 23h1M38 23h1M54 23h1M15 24h1M32 24h1M38 24h1M54 24h1M15 25h1M38 25h1M54 25h1M15 26h1M33 26h1M38 26h1M54 26h1M15 27h1M38 27h1M54 27h1M15 28h1M34 28h1M38 28h1M53 28h2M34 29h1M38 29h1M53 29h1M16 30h1M53 30h1M16 31h1M35 31h1M52 31h2M16 32h1M35 32h1M52 32h1M17 33h1M35 33h1M17 34h1M35 34h1M18 35h1M35 35h1M19 36h1M35 36h1M69 36h1M20 37h1M67 37h1M21 38h1M22 39h1M23 40h1M29 40h1M25 41h1M71 41h1M28 42h1M41 42h1M70 42h1M16 43h8M28 43h1M41 43h1M69 43h1M25 44h4M41 44h1M68 44h1M67 45h1M29 46h1M40 46h1M42 46h1M65 46h1M29 47h2M44 47h1M63 47h2M30 48h3M38 48h1M46 48h3M60 48h2M32 49h5M50 49h9M6 50h4M56 50h1M56 51h1M27 52h1M33 52h1M55 52h2M26 53h1M33 53h1M55 53h1M24 54h1M47 54h1M55 54h1M6 55h2M22 55h1M32 55h1M54 55h1M8 56h3M19 56h2M22 56h1M32 56h1M48 56h1M53 56h2M10 57h8M22 57h2M32 57h1M48 57h1M52 57h2M23 58h2M32 58h1M51 58h2M24 59h2M32 59h1M49 59h3M25 60h3M32 60h1M49 60h2M27 61h3M32 61h1M49 61h1M29 62h5M49 62h1M28 63h1M33 63h1M49 63h1M26 64h1M33 64h1M49 64h1M34 65h1M49 65h1M34 66h1M48 66h1M23 67h1M35 67h1M41 67h1M48 67h1M36 68h1M41 68h1M48 68h1M27 69h3M37 69h1M47 69h1M51 69h1M22 70h4M40 70h1M47 70h1M51 70h1M40 71h1M51 71h1" />
<path stroke="#ffc5e6" d="M22 17h1M22 18h2M22 19h4M16 20h1M22 20h6M16 21h2M22 21h7M16 22h4M22 22h8M16 23h15M16 24h16M16 25h16M16 26h15M32 26h1M16 27h14M31 27h1M17 28h12M30 28h1M32 28h1M17 29h11M29 29h1M31 29h1M33 29h1M17 30h9M30 30h1M32 30h1M18 31h6M18 32h3M55 33h8M52 34h15M49 35h21M50 36h18M51 37h16M52 38h14M53 39h12M54 40h4M59 40h1M61 40h1M58 41h1M60 41h1M16 44h3M12 45h7M10 46h8M8 47h10M6 48h11M5 49h12M25 66h1M24 67h3M49 67h1M24 68h4M49 68h1M23 69h3M49 69h2M50 70h1M50 71h1" />
<path stroke="#ff9cc5" d="M35 27h2M35 28h2M35 29h1" />
<path stroke="#e65283" d="M37 28h1M36 29h2" />
<path stroke="#ac5200" d="M36 30h7M43 31h3M46 32h2M48 33h2M32 37h6M30 38h3M37 38h3M21 39h1M29 39h2M39 39h2M20 40h2M40 40h1M20 41h1M28 41h2M40 41h2M20 42h1M28 45h2M40 45h2M39 47h2M37 48h1M39 48h1M37 49h1M55 51h1M54 54h1M27 70h1M28 71h1" />
<path stroke="#ffcd6a" d="M36 31h6M36 32h8M36 33h8M37 34h6M32 39h2M31 40h4M31 41h4M32 42h2" />
<path stroke="#ffa429" d="M42 31h1M44 32h2M44 33h4M36 34h1M43 34h5M36 35h10M36 36h8M38 37h5M33 38h4M40 38h2M31 39h1M34 39h5M22 40h1M30 40h1M35 40h5M21 41h3M30 41h1M35 41h5M21 42h5M29 42h3M34 42h7M25 43h3M29 43h12M29 44h12M30 45h10M30 46h10M31 47h8M41 47h2M33 48h4M42 48h3M31 49h1M44 49h5M30 50h4M45 50h11M29 51h4M46 51h9M28 52h5M47 52h8M27 53h6M48 53h7M26 54h6M48 54h6M24 55h8M49 55h5M23 56h9M49 56h4M24 57h8M49 57h3M25 58h7M50 58h1M26 59h6M28 60h4M30 61h2M28 70h2M29 71h1M36 71h2" />
</svg>