<svg xmlns="http://www.w3.org/2000/svg" viewBox="0 -0.5 80 80" shape-rendering="crispEdges">
<metadata>Made with Pixels to Svg https://codepen.io/shshaw/pen/XbxvNj</metadata>
<path stroke="#8b3900" d="M22 21h3M50 21h3M54 21h3M16 22h2M21 22h1M24 22h2M49 22h2M53 22h1M57 22h1M15 23h1M19 23h1M21 23h1M49 23h1M53 23h1M57 23h1M15 24h1M19 24h1M48 24h1M57 24h1M13 25h3M20 25h1M24 25h1M48 25h1M52 25h1M56 25h1M58 25h3M16 26h1M20 26h1M52 26h1M56 26h2M61 26h1M16 27h1M21 27h1M13 28h1M21 28h5M18 29h1M20 29h2M26 29h1M46 29h3M51 29h1M19 30h1M27 30h1M45 30h1M49 30h2M52 30h2M18 31h1M27 31h1M44 31h1M54 31h1M16 32h2M28 32h1M44 32h1M55 32h2M28 33h1M43 34h1M29 35h1M42 36h1M17 37h1M30 37h1M55 37h1M41 38h1M18 39h1M54 40h1M19 41h1M53 42h1M28 48h1" />
<path stroke="#000000" d="M18 22h1M25 23h1M20 24h1M25 24h1M12 26h1M24 26h1M48 26h1M12 27h1M24 27h1M48 27h1M55 27h1M61 27h1M48 28h1M55 28h1M61 28h1M13 29h1M54 29h1M60 29h1M14 30h1M54 30h1M58 30h2M15 31h1M57 31h1M16 33h1M29 33h1M43 33h1M56 33h1M16 34h1M29 34h1M56 34h1M16 35h1M30 35h1M42 35h1M56 35h1M16 36h1M30 36h1M56 36h1M16 37h1M31 37h1M41 37h1M56 37h1M17 38h1M31 38h1M55 38h1M17 39h1M31 39h1M40 39h1M55 39h1M18 40h1M31 40h2M40 40h1M55 40h1M18 41h1M32 41h1M40 41h1M54 41h1M19 42h1M33 42h1M39 42h1M54 42h1M19 43h2M39 43h1M53 43h1M20 44h2M38 44h1M52 44h1M21 45h2M38 45h1M51 45h1M22 46h3M32 46h1M38 46h1M50 46h1M24 47h3M32 47h1M37 47h1M48 47h2M26 48h2M32 48h1M37 48h1M46 48h3M28 49h4M37 49h1M43 49h4M32 50h2M38 50h6M34 51h3M26 52h1M56 52h1M19 53h1M26 53h1M56 53h1M19 54h1M56 54h2M19 55h1M25 55h1M57 55h1M20 56h1M25 56h1M46 56h1M55 56h1M57 56h1M21 57h1M25 57h1M46 57h1M55 57h3M23 58h1M25 58h1M46 58h1M55 58h3M25 59h1M48 59h1M54 59h4M25 60h2M49 60h2M54 60h3M26 61h1M54 61h1M56 61h1M26 62h1M54 62h1M56 62h1M26 63h2M56 63h1M27 64h1M55 64h1M27 65h2M28 66h2M29 67h2M57 67h1M30 68h2M52 68h1M31 69h3M48 69h3M55 69h2M33 70h4M45 70h4M50 70h4M36 71h10" />
<path stroke="#f6a420" d="M22 22h2M51 22h2M22 23h3M50 23h3M21 24h4M50 24h3M21 25h3M49 25h3M13 26h3M49 26h3M58 26h2M13 27h3M57 27h4M14 28h3M56 28h4M14 29h3M23 29h3M56 29h3M24 30h3M46 30h3M25 31h2M45 31h4M26 32h2M45 32h3M26 33h2M44 33h4M26 34h3M44 34h3M27 35h2M44 35h2M47 35h1M28 36h2M43 36h2M46 36h1M48 36h1M28 37h2M42 37h4M47 37h1M29 38h1M42 38h2M46 38h1M29 39h1M42 39h2M42 40h1M42 41h1" />
<path stroke="#d5f6f6" d="M54 22h3M16 23h3M54 23h3M16 24h3M53 24h4M16 25h4M53 25h3M17 26h3M53 26h3M17 27h2M53 27h2M30 38h1M30 39h1M30 40h1M41 40h1M30 41h2M41 41h1M31 42h2M40 42h3M40 43h2M40 44h1" />
<path stroke="#de7308" d="M49 24h1M21 26h3M60 26h1M22 27h2M49 27h3M56 27h1M17 28h1M49 28h3M60 28h1M17 29h1M22 29h1M49 29h2M55 29h1M59 29h1M15 30h4M20 30h4M51 30h1M55 30h3M16 31h2M19 31h6M49 31h5M55 31h2M18 32h8M48 32h7M17 33h9M48 33h8M17 34h9M47 34h9M17 35h10M43 35h1M46 35h1M48 35h8M17 36h11M45 36h1M47 36h1M49 36h7M18 37h10M46 37h1M48 37h7M18 38h11M44 38h2M47 38h8M19 39h10M41 39h1M44 39h11M19 40h11M43 40h11M20 41h9M43 41h11M20 42h9M43 42h10M21 43h7M32 43h2M44 43h9M22 44h4M32 44h1M39 44h1M46 44h6M31 45h1M39 45h1M30 46h2M39 46h2M28 47h4M38 47h4M29 48h3M38 48h8M32 49h1M38 49h5" />
<path stroke="#a4cdcd" d="M19 27h2M52 27h1M18 28h3M52 28h3M19 29h1M52 29h2M29 41h1M29 42h2M28 43h4M42 43h2M26 44h6M41 44h5M23 45h8M40 45h11M25 46h5M41 46h9M27 47h1M42 47h6" />
<path stroke="#625a39" d="M34 43h3M33 44h1M37 44h1M32 45h1M37 46h1M52 46h1M53 47h1M54 48h1M33 49h1M54 49h1M27 50h1M55 50h1M26 51h2M37 51h1M55 51h1M20 52h4M20 53h1M25 54h2M47 54h4M46 55h2M51 55h1M19 56h1M52 56h1M20 57h1M22 57h1M22 58h1M24 58h1M47 58h1M54 58h1M47 59h1M51 60h1M55 61h1M57 62h1M55 63h1M58 63h1M58 64h1M54 65h2M58 65h1M53 66h2M57 66h2M52 67h2M50 68h2M56 68h2M54 69h1M54 70h1" />
<path stroke="#f6f662" d="M34 44h3M33 45h5M33 46h4M51 46h1M33 47h4M50 47h3M34 48h2M50 48h4M51 49h3M52 50h3M53 51h2M53 52h3M21 53h3M54 53h2M22 54h3M54 54h2M48 55h3M54 55h3M49 56h3M56 56h1M57 63h1M56 64h2M56 65h2M30 66h1M32 66h1M55 66h2M31 67h1M33 67h1M32 68h1M34 68h1" />
<path stroke="#bdb452" d="M33 48h1M36 48h1M49 48h1M34 49h3M47 49h4M28 50h4M34 50h4M44 50h8M28 51h6M38 51h15M27 52h26M24 53h2M27 53h27M20 54h2M27 54h20M51 54h3M20 55h5M26 55h20M52 55h2M21 56h4M26 56h20M47 56h2M53 56h2M23 57h2M26 57h20M47 57h8M26 58h20M48 58h6M26 59h21M49 59h5M27 60h22M52 60h2M27 61h27M27 62h27M55 62h1M28 63h27M28 64h27M29 65h25M31 66h1M33 66h20M32 67h1M34 67h18M54 67h3M33 68h1M35 68h15M53 68h3M34 69h14M51 69h3M37 70h8" />
</svg>