<svg xmlns="http://www.w3.org/2000/svg" viewBox="0 -0.5 80 80" shape-rendering="crispEdges">
<metadata>Made with Pixels to Svg https://codepen.io/shshaw/pen/XbxvNj</metadata>
<path stroke="#204a29" d="M36 9h6M34 10h2M33 11h1M43 15h2M29 16h3M42 16h1M27 17h2M33 17h1M41 17h1M25 18h1M41 18h1M23 19h3M34 19h2M39 19h2M22 20h2M36 20h3M21 21h2M17 22h5M15 23h2M21 23h1M33 23h8M54 23h1M14 24h1M30 24h3M41 24h2M52 24h1M23 25h1M29 25h2M43 25h2M52 25h1M23 26h1M28 26h2M44 26h2M51 26h1M23 27h1M27 27h2M45 27h2M51 27h1M23 28h1M26 28h2M33 28h2M37 28h2M46 28h2M51 28h1M23 29h1M26 29h1M47 29h1M51 29h1M25 30h1M48 30h1M52 30h1M22 31h1M25 31h1M48 31h1M52 31h1M20 32h2M24 32h1M33 32h2M37 32h2M49 32h1M53 32h2M18 33h2M24 33h1M34 33h1M37 33h1M49 33h1M55 33h2M24 34h1M30 34h1M49 34h1M57 34h1M61 34h1M23 35h1M31 35h1M36 35h1M45 35h1M50 35h1M61 35h1M23 36h1M27 36h1M32 36h1M36 36h1M40 36h1M45 36h1M50 36h1M58 36h1M61 36h1M23 37h1M28 37h1M32 37h2M36 37h1M39 37h2M44 37h1M50 37h1M58 37h1M61 37h1M23 38h1M29 38h5M36 38h8M50 38h1M58 38h1M61 38h1M23 39h1M34 39h5M50 39h1M58 39h1M61 39h1M23 40h1M35 40h2M50 40h1M58 40h1M23 41h1M36 41h1M50 41h1M58 41h1M23 42h1M30 42h1M36 42h1M46 42h1M50 42h1M58 42h1M23 43h1M26 43h1M31 43h1M36 43h1M41 43h1M46 43h1M50 43h1M24 44h1M27 44h1M31 44h2M36 44h1M41 44h1M45 44h1M49 44h1M57 44h1M60 44h1M24 45h1M28 45h5M36 45h1M39 45h6M49 45h1M20 46h2M24 46h1M32 46h8M49 46h1M22 47h1M25 47h1M34 47h3M48 47h1M22 48h1M25 48h1M35 48h2M48 48h1M23 49h1M26 49h1M36 49h1M47 49h1M23 50h1M26 50h2M36 50h1M46 50h2M23 51h1M27 51h2M36 51h1M45 51h2M23 52h1M28 52h2M44 52h2M23 53h1M29 53h3M42 53h2M22 54h1M31 54h3M40 54h2M21 55h1M34 55h6M41 62h2" />
<path stroke="#316a31" d="M36 10h6M34 11h1M37 11h7M38 12h6M33 13h1M38 13h7M33 14h2M37 14h8M33 15h10M33 16h9M34 17h7M26 18h1M34 18h7M36 19h3M17 23h4M55 23h5M15 24h1M18 24h4M33 24h8M53 24h1M56 24h6M19 25h4M31 25h12M58 25h4M14 26h1M19 26h4M30 26h5M37 26h7M52 26h1M58 26h5M14 27h2M18 27h5M29 27h5M35 27h2M38 27h7M52 27h2M56 27h7M14 28h9M28 28h5M35 28h2M39 28h7M52 28h11M14 29h9M25 29h1M27 29h6M34 29h4M39 29h8M48 29h1M52 29h11M15 30h8M26 30h7M34 30h4M39 30h9M53 30h10M15 31h7M24 31h1M26 31h7M34 31h4M39 31h9M49 31h1M53 31h9M16 32h4M25 32h8M35 32h2M39 32h10M55 32h3M61 32h1M25 33h9M35 33h2M38 33h11M58 33h3M17 34h1M23 34h1M25 34h3M31 34h4M37 34h5M45 34h4M50 34h1M58 34h3M24 35h3M28 35h3M32 35h3M37 35h4M42 35h3M46 35h4M58 35h3M24 36h3M28 36h4M33 36h2M37 36h3M41 36h4M46 36h4M59 36h2M24 37h4M29 37h3M34 37h1M37 37h2M41 37h3M45 37h5M59 37h2M24 38h5M44 38h6M59 38h2M24 39h10M39 39h11M59 39h2M24 40h11M37 40h13M59 40h2M24 41h3M30 41h5M37 41h6M46 41h4M59 41h2M17 42h1M24 42h2M27 42h3M31 42h4M37 42h5M43 42h3M47 42h3M59 42h2M24 43h2M27 43h4M32 43h3M37 43h4M42 43h4M47 43h3M57 43h4M23 44h1M25 44h2M28 44h3M33 44h2M37 44h2M42 44h3M46 44h3M50 44h1M58 44h2M23 45h1M25 45h3M45 45h4M16 46h4M25 46h7M40 46h9M56 46h4M15 47h1M18 47h4M24 47h1M26 47h8M37 47h11M49 47h1M54 47h1M57 47h5M19 48h3M26 48h9M37 48h11M58 48h4M19 49h4M25 49h1M27 49h8M37 49h10M48 49h1M53 49h1M58 49h5M15 50h1M18 50h5M28 50h7M37 50h9M53 50h2M57 50h6M15 51h8M29 51h6M37 51h8M53 51h10M15 52h8M30 52h14M53 52h10M16 53h7M32 53h10M44 53h1M54 53h8M16 54h6M30 54h1M34 54h6M42 54h1M54 54h8M18 55h3M22 55h1M33 55h1M40 55h1M53 55h1M56 55h4M52 56h3M51 57h2M49 58h3M35 59h3M48 59h2M33 60h1M36 60h4M46 60h3M31 61h1M37 61h3M41 61h1M43 61h4M32 62h1M37 62h4M43 62h2M32 63h2M36 63h7M32 64h12M32 65h12M33 66h10M33 67h9M35 68h5" />
<path stroke="#101010" d="M42 10h2M44 11h1M33 12h1M44 12h1M32 13h1M45 13h1M32 14h1M45 14h1M32 15h1M45 15h1M32 16h1M33 18h1M54 22h6M53 23h1M60 23h2M22 24h1M62 24h1M14 25h1M62 25h1M13 26h1M35 26h2M63 26h1M13 27h1M34 27h1M37 27h1M63 27h1M13 28h1M63 28h1M13 29h1M33 29h1M38 29h1M63 29h1M14 30h1M33 30h1M38 30h1M63 30h1M14 31h1M33 31h1M38 31h1M62 31h1M15 32h1M58 32h3M62 32h1M16 33h2M57 33h1M61 33h1M16 34h1M28 34h2M35 34h2M42 34h3M16 35h1M27 35h1M35 35h1M41 35h1M16 36h1M35 36h1M16 37h1M35 37h1M16 38h1M34 38h2M16 39h1M16 40h1M61 40h1M16 41h1M27 41h3M35 41h1M43 41h3M61 41h1M16 42h1M26 42h1M35 42h1M42 42h1M61 42h1M17 43h1M35 43h1M61 43h1M17 44h1M35 44h1M39 44h2M16 45h4M33 45h3M37 45h2M56 45h5M15 46h1M54 46h2M60 46h2M53 47h1M62 47h1M14 48h1M53 48h1M62 48h1M14 49h1M35 49h1M52 49h1M63 49h1M14 50h1M35 50h1M52 50h1M63 50h1M14 51h1M35 51h1M52 51h1M63 51h1M14 52h1M52 52h1M63 52h1M15 53h1M53 53h1M62 53h1M15 54h1M53 54h1M62 54h1M16 55h2M54 55h2M60 55h2M18 56h5M55 56h5M22 57h2M53 57h2M23 58h2M35 58h3M52 58h2M24 59h3M33 59h2M38 59h2M50 59h2M26 60h3M32 60h1M40 60h1M49 60h2M28 61h3M32 61h1M40 61h1M47 61h2M31 62h1M45 62h2M31 63h1M43 63h2M31 64h1M44 64h1M31 65h1M32 66h1M43 66h1M32 67h1M42 67h1M33 68h2M40 68h2M35 69h5" />
<path stroke="#4a9441" d="M35 11h2M34 12h4M34 13h4M35 14h2M46 15h1M46 16h3M29 17h1M49 17h2M27 18h1M31 18h2M42 18h3M51 18h1M28 19h6M41 19h6M52 19h2M26 20h10M39 20h10M54 20h1M25 21h25M55 21h1M22 22h29M22 23h11M41 23h11M16 24h2M23 24h7M43 24h9M54 24h2M15 25h4M24 25h5M45 25h7M53 25h5M15 26h4M24 26h4M46 26h5M53 26h5M16 27h2M24 27h3M47 27h4M54 27h2M24 28h2M48 28h3M24 29h1M49 29h2M23 30h2M49 30h3M23 31h1M50 31h2M22 32h2M50 32h3M20 33h4M50 33h5M18 34h5M51 34h5M18 35h5M51 35h6M18 36h5M51 36h6M18 37h5M51 37h6M18 38h5M51 38h6M18 39h5M51 39h6M18 40h5M51 40h6M17 41h6M51 41h7M18 42h5M51 42h7M18 43h5M51 43h6M18 44h5M51 44h6M20 45h3M50 45h6M22 46h2M50 46h4M16 47h2M23 47h1M50 47h3M55 47h2M15 48h4M23 48h2M49 48h4M54 48h4M15 49h4M24 49h1M49 49h3M54 49h4M16 50h2M24 50h2M48 50h4M55 50h2M24 51h3M47 51h5M24 52h4M46 52h6M24 53h5M45 53h8M23 54h7M43 54h10M23 55h10M41 55h12M24 56h28M26 57h25M25 58h1M28 58h7M38 58h11M27 59h1M30 59h3M40 59h8M29 60h1M31 60h1M34 60h2M41 60h5M33 61h4M42 61h1M33 62h4M34 63h2" />
<path stroke="#7bde7b" d="M43 16h3M30 17h3M42 17h7M28 18h3M45 18h5M26 19h2M47 19h5M24 20h2M49 20h4M23 21h2M50 21h4M51 22h3M52 23h1M23 56h1M24 57h2M26 58h2M28 59h2M30 60h1" />
<path stroke="#73bd6a" d="M50 18h1M53 20h1M54 21h1M56 34h1M17 35h1M57 35h1M17 36h1M57 36h1M17 37h1M57 37h1M17 38h1M57 38h1M17 39h1M57 39h1M17 40h1M57 40h1" />
</svg>