<svg xmlns="http://www.w3.org/2000/svg" viewBox="0 -0.5 80 80" shape-rendering="crispEdges">
<metadata>Made with Pixels to Svg https://codepen.io/shshaw/pen/XbxvNj</metadata>
<path stroke="#6a626a" d="M43 0h4M41 1h2M47 1h2M40 2h1M40 3h1M39 4h1M39 5h1M49 7h1M48 9h1M46 10h1" />
<path stroke="#ffffff" d="M43 1h3M42 2h5M41 3h7M40 4h8M41 5h6M42 6h4" />
<path stroke="#ded5de" d="M46 1h1M41 2h1M47 2h1M40 5h1M47 5h1M41 6h1M46 6h1" />
<path stroke="#bdacbd" d="M48 2h1M48 3h1M48 4h2M48 5h2M40 6h1M47 6h3M40 7h9M42 8h7M43 9h5M43 10h3" />
<path stroke="#000000" d="M49 2h1M49 3h1M50 4h1M50 5h1M39 6h1M50 6h1M39 7h1M50 7h1M40 8h1M49 8h1M49 9h1M47 10h2M43 11h4M42 12h1M42 13h1M41 14h1M41 15h1M37 17h1M37 18h1M38 19h1M39 20h1M34 24h2M50 24h1M32 25h1M50 25h1M31 26h1M49 26h1M30 27h1M48 27h1M29 28h1M29 29h1M28 30h1M52 30h2M28 31h1M28 32h1M28 33h1M28 34h2M29 35h2M57 35h1M30 36h2M57 36h1M57 37h1M59 40h1M61 42h1M25 43h1M62 44h1M62 45h1M62 46h1M62 47h1M24 48h1M62 48h1M24 49h1M62 49h1M24 50h2M48 50h1M61 50h1M21 51h1M25 51h1M47 51h1M61 51h1M21 52h2M25 52h2M46 52h1M51 52h1M60 52h1M22 53h1M26 53h1M52 53h1M58 53h2M22 54h2M27 54h1M54 54h4M23 55h2M28 55h2M41 55h2M54 55h1M24 56h2M30 56h9M53 56h1M26 57h2M31 57h1M52 57h1M28 58h5M51 58h1M32 59h3M49 59h2M34 60h4M46 60h3M44 61h2M77 63h1M77 64h1M34 65h2M77 65h1M32 66h2M52 66h1M77 66h1M5 67h1M30 67h2M53 67h1M76 67h1M6 68h1M27 68h3M54 68h1M76 68h1M7 69h1M23 69h4M56 69h1M75 69h1M8 70h2M17 70h6M47 70h1M53 70h1M57 70h1M59 70h2M73 70h2M10 71h7M47 71h1M53 71h1M58 71h1M61 71h3M71 71h2M27 72h1M40 72h1M46 72h1M52 72h1M54 72h1M58 72h1M64 72h7M27 73h1M39 73h1M41 73h5M48 73h4M54 73h1M58 73h1M27 74h1M35 74h3M54 74h1M57 74h2M27 75h2M54 75h4M28 76h2M34 76h1M53 76h1M56 76h1M30 77h1M34 77h1M53 77h1M55 77h2M31 78h1M35 78h1M52 78h4" />
<path stroke="#295a41" d="M41 8h1M40 9h1M40 10h1M39 11h1M42 11h1M39 12h1M38 13h1M41 13h1M38 14h1M37 15h1M37 16h1M42 16h1M43 17h1M44 18h2M46 19h2M48 20h1M39 21h1M49 21h1M38 22h1M50 22h1M36 23h2M50 23h1M33 25h1M49 25h1M48 28h2M49 29h3M51 30h1M53 31h2M55 32h1M56 33h1M57 34h1M29 37h2M56 37h1M28 38h1M56 38h1M27 39h1M57 39h2M26 40h1M58 40h1M60 40h1M26 41h1M60 41h2M25 42h1M24 43h1M61 43h2M23 44h2M22 45h1M24 45h1M22 46h1M24 46h1M21 47h1M24 47h1M21 48h1M21 49h1M48 49h1M61 49h1M21 50h1M49 50h1M50 51h1M60 51h1M59 52h1M45 53h1M53 53h1M57 53h1M43 54h2M40 55h1M39 56h1M47 72h1M53 72h1M46 73h2M52 73h2M34 74h1M38 74h1M45 74h9M34 75h1M45 75h9M44 76h9M35 77h1M42 77h11M36 78h16" />
<path stroke="#39946a" d="M41 9h2M41 10h2M41 16h1M40 17h3M38 18h6M39 19h7M40 20h8M40 21h9M40 22h10M41 23h9M36 24h1M42 24h8M34 25h1M41 25h8M32 26h1M41 26h8M31 27h1M40 27h8M30 28h1M40 28h8M39 29h10M29 30h1M38 30h12M30 31h1M36 31h15M29 32h1M31 32h1M33 32h1M35 32h17M30 33h1M32 33h1M34 33h1M36 33h17M31 34h1M33 34h1M35 34h19M56 34h1M31 35h23M32 36h23M32 37h24M34 38h22M38 39h19M27 40h1M38 40h17M38 41h16M38 42h16M38 43h16M25 44h1M37 44h17M25 45h2M36 45h19M25 46h4M33 46h22M61 46h1M25 47h31M60 47h2M25 48h37M25 49h23M49 49h12M26 50h22M50 50h11M22 51h3M26 51h21M51 51h9M23 52h2M27 52h19M52 52h7M23 53h3M27 53h18M54 53h3M24 54h3M28 54h15M25 55h3M30 55h10M26 56h4M28 57h3M40 73h1M39 74h6M35 75h10M35 76h9M36 77h6" />
<path stroke="#5ac58b" d="M40 11h2M40 12h2M39 13h2M39 14h2M38 15h3M38 16h3M38 17h2M39 22h1M38 23h3M37 24h5M35 25h6M33 26h8M32 27h8M31 28h9M30 29h9M30 30h8M50 30h1M29 31h1M31 31h5M51 31h2M30 32h1M32 32h1M34 32h1M52 32h3M29 33h1M31 33h1M33 33h1M35 33h1M53 33h3M30 34h1M32 34h1M34 34h1M54 34h2M54 35h3M55 36h2M31 37h1M29 38h5M28 39h10M28 40h10M55 40h3M27 41h11M54 41h6M26 42h12M54 42h7M26 43h12M54 43h7M26 44h11M54 44h8M23 45h1M27 45h9M55 45h7M23 46h1M29 46h4M55 46h6M22 47h2M56 47h4M22 48h2M22 49h2M22 50h2" />
<path stroke="#e69cbd" d="M48 51h2M47 52h4M46 53h6M45 54h8M43 55h10M41 56h11M32 57h19M34 58h16M36 59h12M39 60h6M38 62h7M35 63h12M32 64h4M37 64h11M49 64h2M5 65h1M10 65h2M27 65h1M30 65h4M36 65h13M51 65h3M76 65h1M6 66h7M23 66h1M28 66h4M34 66h8M46 66h5M53 66h3M70 66h1M75 66h1M7 67h7M25 67h4M32 67h9M45 67h1M47 67h6M54 67h5M69 67h7M8 68h6M22 68h4M32 68h1M37 68h4M46 68h1M48 68h1M53 68h1M56 68h7M69 68h6M9 69h13M38 69h3M46 69h1M48 69h1M52 69h1M54 69h1M59 69h9M69 69h5M11 70h5M38 70h4M45 70h2M48 70h5M54 70h3M62 70h11M28 71h1M33 71h1M37 71h3M41 71h6M48 71h5M54 71h4M65 71h5M34 72h6M42 72h4M48 72h4M55 72h3M31 73h2M35 73h4M55 73h3M28 74h6M55 74h2M29 75h4M33 76h1M54 76h2M31 77h3M54 77h1M32 78h3" />
<path stroke="#732073" d="M53 54h1M53 55h1M40 56h1M52 56h1M51 57h1M33 58h1M50 58h1M35 59h1M48 59h1M38 60h1M45 60h1M6 61h4M38 61h6M5 62h1M10 62h2M35 62h3M45 62h3M73 62h4M4 63h1M12 63h1M32 63h3M47 63h4M71 63h2M76 63h1M4 64h1M13 64h1M27 64h5M36 64h1M48 64h1M51 64h3M70 64h1M4 65h1M13 65h1M22 65h5M49 65h2M54 65h3M69 65h1M5 66h1M14 66h9M42 66h4M51 66h1M56 66h4M69 66h1M76 66h1M6 67h1M29 67h1M41 67h1M46 67h1M59 67h5M68 67h1M7 68h1M26 68h1M31 68h1M33 68h1M47 68h1M52 68h1M55 68h1M63 68h6M75 68h1M8 69h1M22 69h1M29 69h4M47 69h1M53 69h1M55 69h1M57 69h2M68 69h1M74 69h1M10 70h1M16 70h1M28 70h1M32 70h1M61 70h1M27 71h1M32 71h1M40 71h1M64 71h1M70 71h1M32 72h2M41 72h1M33 73h2M33 75h1M30 76h3" />
<path stroke="#ffd5de" d="M6 62h3M5 63h5M6 64h3M72 64h3M71 65h3M42 67h2M34 68h2M42 68h2M50 68h1M34 69h2M29 70h2M29 71h2" />
<path stroke="#ffbdcd" d="M9 62h1M10 63h2M73 63h3M5 64h1M9 64h4M71 64h1M75 64h2M6 65h4M12 65h1M28 65h2M70 65h1M74 65h2M13 66h1M24 66h4M71 66h4M14 67h11M44 67h1M14 68h8M36 68h1M41 68h1M44 68h2M49 68h1M51 68h1M33 69h1M36 69h2M41 69h5M49 69h3M31 70h1M33 70h5M42 70h3M31 71h1M34 71h3M28 72h4M28 73h3" />
</svg>