<svg xmlns="http://www.w3.org/2000/svg" viewBox="0 -0.5 80 80" shape-rendering="crispEdges">
<metadata>Made with Pixels to Svg https://codepen.io/shshaw/pen/XbxvNj</metadata>
<path stroke="#528b83" d="M16 6h2M15 7h1M17 7h1M14 8h1M17 8h1M13 9h1M17 9h1M12 10h1M17 10h1M38 10h7M12 11h1M35 11h2M46 11h4M11 12h1M16 12h1M33 12h1M51 12h4M11 13h1M16 13h1M19 13h2M31 13h1M56 13h3M10 14h1M16 14h1M18 14h1M20 14h1M29 14h1M60 14h3M10 15h1M17 15h1M20 15h1M26 15h2M64 15h2M9 16h1M19 16h1M24 16h1M67 16h2M9 17h1M19 17h1M22 17h1M70 17h2M8 18h1M20 18h2M72 18h1M8 19h1M62 19h11M7 20h1M63 20h1M7 21h1M6 22h1M6 23h1M57 23h2M6 24h1M59 24h2M5 25h1M62 25h2M5 26h1M65 26h2M5 27h1M68 27h2M4 28h1M70 28h3M3 29h1M72 29h1M3 30h1M2 31h1M73 31h1M2 32h1M1 33h1M74 33h1M1 34h1M0 35h1M31 35h1M75 35h1M0 36h1M30 36h1M0 37h1M29 37h1M76 37h1M1 38h1M1 39h1M77 39h1M2 40h1M77 40h1M2 41h1M31 41h2M77 41h1M2 42h1M31 42h1M77 42h1M2 43h1M77 43h1M1 44h1M27 44h1M30 44h1M77 44h1M1 45h1M25 45h1M29 45h1M33 45h1M77 45h1M0 46h1M23 46h1M0 47h1M31 47h1M76 47h1M0 48h1M30 48h1M76 48h1M1 49h1M76 49h1M2 50h1M76 50h1M3 51h1M4 52h1M77 52h1M5 53h1M77 53h1M6 54h1M77 54h1M3 55h5M77 55h1M3 56h1M77 56h1M0 57h6M0 58h1M4 58h3M78 58h1M1 59h1M7 59h2M78 59h1M2 60h1M73 60h1M78 60h1M3 61h1M73 61h1M78 61h1M4 62h2M78 62h1M6 63h1M71 63h1M78 63h1M7 64h2M68 64h1M72 64h1M78 64h1M68 65h1M78 65h1M67 66h1M78 66h1M76 67h1M78 67h1M76 68h1M78 68h1M76 69h1M78 69h1M77 70h2" />
<path stroke="#73c5cd" d="M16 7h1M15 8h2M14 9h3M14 10h3M13 11h3M38 11h7M12 12h4M35 12h15M12 13h4M33 13h22M11 14h5M19 14h1M31 14h28M11 15h4M18 15h2M29 15h7M41 15h22M10 16h5M17 16h2M26 16h8M43 16h23M10 17h5M16 17h3M24 17h9M44 17h25M9 18h9M22 18h10M45 18h27M9 19h9M20 19h12M45 19h15M8 20h23M46 20h17M8 21h23M46 21h19M7 22h24M46 22h13M7 23h24M46 23h3M53 23h3M7 24h22M47 24h1M54 24h5M6 25h21M55 25h6M6 26h13M21 26h4M55 26h9M6 27h12M55 27h12M5 28h13M55 28h15M4 29h6M15 29h3M54 29h18M4 30h4M17 30h1M53 30h19M3 31h4M54 31h19M3 32h3M56 32h17M2 33h4M60 33h14M2 34h3M61 34h13M1 35h4M61 35h14M1 36h4M64 36h11M1 37h4M65 37h11M2 38h3M66 38h10M2 39h4M66 39h11M3 40h3M69 40h8M3 41h4M71 41h6M3 42h5M72 42h5M3 43h7M73 43h4M2 44h9M73 44h4M2 45h9M74 45h3M1 46h10M74 46h2M1 47h10M74 47h2M1 48h10M74 48h2M2 49h10M74 49h2M3 50h9M73 50h3M4 51h7M73 51h3M5 52h5M72 52h5M6 53h4M71 53h6M7 54h4M32 54h1M34 54h1M69 54h8M8 55h4M33 55h1M35 55h1M64 55h13M4 56h10M34 56h1M65 56h12M6 57h9M34 57h1M65 57h12M1 58h3M7 58h8M34 58h1M65 58h13M2 59h5M9 59h5M33 59h3M64 59h14M3 60h11M31 60h2M35 60h2M64 60h9M74 60h4M4 61h10M30 61h2M36 61h2M64 61h5M70 61h3M74 61h4M6 62h8M30 62h1M37 62h1M64 62h5M71 62h1M75 62h3M7 63h8M30 63h1M37 63h1M63 63h6M75 63h3M9 64h7M37 64h1M59 64h1M62 64h6M76 64h2M11 65h11M58 65h10M76 65h2M13 66h10M58 66h9M76 66h2M15 67h8M57 67h9M77 67h1M17 68h6M55 68h10M77 68h1M19 69h4M53 69h11M77 69h1M18 70h5M52 70h11M16 71h7M52 71h10M52 72h9M52 73h8" />
<path stroke="#52a4b4" d="M13 10h1M16 11h1M37 11h1M45 11h1M34 12h1M50 12h1M32 13h1M55 13h1M30 14h1M59 14h1M28 15h1M63 15h1M25 16h1M66 16h1M23 17h1M69 17h1M60 19h2M56 23h1M29 24h2M46 24h1M27 25h5M45 25h2M61 25h1M25 26h7M45 26h2M64 26h1M22 27h11M44 27h3M67 27h1M22 28h12M43 28h4M18 29h1M21 29h15M41 29h7M18 30h31M72 30h1M18 31h36M19 32h37M73 32h1M19 33h39M20 34h37M74 34h1M20 35h11M32 35h25M20 36h10M31 36h27M60 36h4M75 36h1M20 37h9M30 37h35M20 38h8M29 38h37M76 38h1M19 39h8M28 39h38M19 40h7M27 40h37M18 41h7M26 41h5M33 41h29M17 42h7M25 42h4M32 42h29M15 43h8M24 43h3M29 43h2M32 43h28M11 44h11M23 44h2M28 44h2M31 44h29M11 45h10M22 45h1M26 45h3M30 45h1M34 45h25M11 46h9M24 46h5M31 46h1M33 46h26M76 46h1M11 47h20M32 47h27M11 48h19M31 48h28M12 49h17M30 49h29M14 50h15M30 50h30M15 51h15M31 51h7M41 51h19M76 51h1M16 52h13M31 52h6M43 52h18M16 53h12M32 53h5M45 53h17M15 54h12M33 54h1M35 54h1M47 54h17M14 55h13M34 55h1M48 55h16M14 56h12M33 56h1M49 56h16M15 57h1M20 57h5M49 57h16M77 57h1M21 58h4M50 58h15M22 59h3M50 59h10M62 59h2M22 60h3M50 60h9M63 60h1M22 61h2M50 61h8M22 62h2M51 62h7M72 62h1M21 63h3M51 63h8M72 63h1M20 64h4M51 64h4M57 64h2M22 65h2M51 65h3M51 66h3M51 67h4M52 68h3M52 69h1" />
<path stroke="#4a7b5a" d="M15 15h1M15 16h2M15 17h1M18 18h1M18 19h2M65 21h1M59 22h7M28 38h1M27 39h1M26 40h1M25 41h1M24 42h1M29 42h2M23 43h1M27 43h2M31 43h1M22 44h1M25 44h2M21 45h1M23 45h2M31 45h2M20 46h3M29 46h2M32 46h1M29 49h1M30 51h1M31 53h1M32 55h1M69 61h1M69 62h2M74 62h1M69 63h1M74 63h1M75 64h1M9 65h2M75 65h1M11 66h2M75 66h1M13 67h2M66 67h1M15 68h2M65 68h1M17 69h2M64 69h1M16 70h2M63 70h1M15 71h1M62 71h1M15 72h8M61 72h1M60 73h1" />
<path stroke="#bd41cd" d="M36 15h5M34 16h9M33 17h11M32 18h5M40 18h5M32 19h3M42 19h3M31 20h4M42 20h4M31 21h3M43 21h3M31 22h3M43 22h3M31 23h3M43 23h3M49 23h4M31 24h4M42 24h4M48 24h6M32 25h3M42 25h3M47 25h8M19 26h2M32 26h5M40 26h5M47 26h8M18 27h4M33 27h11M47 27h8M18 28h4M34 28h9M47 28h8M10 29h5M19 29h2M36 29h5M48 29h6M8 30h9M49 30h4M7 31h11M6 32h5M14 32h5M6 33h3M16 33h3M58 33h2M5 34h4M16 34h4M57 34h4M5 35h3M17 35h3M57 35h4M5 36h3M17 36h3M58 36h2M5 37h3M17 37h3M5 38h4M16 38h4M6 39h3M16 39h3M6 40h5M14 40h5M64 40h5M7 41h11M62 41h9M8 42h9M61 42h11M10 43h5M60 43h5M68 43h5M60 44h3M70 44h3M59 45h4M70 45h4M59 46h3M71 46h3M59 47h3M71 47h3M59 48h3M71 48h3M59 49h4M70 49h4M12 50h2M60 50h3M70 50h3M11 51h4M60 51h5M68 51h5M10 52h6M61 52h11M10 53h6M62 53h9M11 54h4M64 54h5M12 55h2M16 57h4M15 58h6M14 59h3M19 59h3M60 59h2M14 60h2M20 60h2M59 60h4M14 61h2M20 61h2M58 61h6M14 62h3M19 62h3M58 62h6M15 63h6M59 63h4M16 64h4M55 64h2M60 64h2M54 65h4M54 66h4M55 67h2" />
<path stroke="#de62ac" d="M37 18h3M35 19h7M35 20h2M40 20h2M34 21h2M41 21h2M34 22h2M41 22h2M34 23h2M41 23h2M35 24h2M40 24h2M35 25h7M37 26h3M11 32h3M9 33h7M9 34h2M14 34h2M8 35h2M15 35h2M8 36h2M15 36h2M8 37h2M15 37h2M9 38h2M14 38h2M9 39h7M11 40h3M65 43h3M63 44h7M63 45h2M68 45h2M62 46h2M69 46h2M62 47h2M69 47h2M62 48h2M69 48h2M63 49h2M68 49h2M63 50h7M65 51h3M17 59h2M16 60h1M19 60h1M16 61h1M19 61h1M17 62h2" />
<path stroke="#ff9cb4" d="M37 20h3M36 21h5M36 22h5M36 23h5M37 24h3M11 34h3M10 35h5M10 36h5M10 37h5M11 38h3M65 45h3M64 46h5M64 47h5M64 48h5M65 49h3M17 60h2M17 61h2" />
<path stroke="#101010" d="M29 50h1M30 52h1M28 53h1M27 54h1M31 54h1M27 55h1M26 56h1M32 56h1M25 57h1M33 57h1M35 57h1M25 58h1M33 58h1M35 58h1M25 59h1M31 59h2M36 59h1M49 59h1M25 60h1M30 60h1M49 60h1M24 61h1M29 61h1M32 61h1M49 61h1M24 62h1M29 62h1M31 62h1M38 62h1M24 63h1M31 63h1M38 63h1M50 63h1M24 64h1M38 64h1M50 64h1M24 65h1M37 65h1M50 65h1M23 66h1M50 66h1M23 67h1M50 67h1M23 68h1M51 68h1M23 69h1M51 69h1M23 70h1M51 70h1M23 71h1M51 71h1M23 72h1M51 72h1M23 73h1M51 73h1" />
<path stroke="#524152" d="M38 51h3M29 52h1M37 52h1M41 52h2M37 53h1M43 53h2M36 54h1M45 54h2M36 55h1M47 55h1M35 56h1M48 56h1M26 57h1M48 57h1M49 58h1M33 60h2M37 60h1M25 61h1M35 61h1M38 61h1M36 62h1M49 62h2M29 63h1M36 63h1M30 64h1M36 64h1M38 65h1M24 66h1M50 68h1" />
<path stroke="#b49c94" d="M38 52h3M29 53h2M38 53h5M28 54h3M37 54h8M28 55h4M37 55h10M28 56h2M38 56h10M40 57h6M47 57h1M42 58h3M47 58h2M48 59h1M48 60h1M48 61h1M48 62h1M48 63h2M49 64h1M49 65h1M49 66h1" />
<path stroke="#836a62" d="M27 56h1M30 56h2M36 56h2M27 57h6M36 57h4M46 57h1M26 58h7M36 58h6M45 58h2M26 59h5M37 59h11M26 60h4M38 60h10M26 61h3M33 61h2M39 61h9M25 62h4M32 62h4M39 62h9M25 63h4M32 63h4M39 63h9M25 64h5M31 64h5M39 64h10M25 65h12M39 65h10M25 66h24M24 67h26M24 68h26M24 69h27M24 70h27M24 71h27M24 72h27M24 73h27" />
</svg>