<svg xmlns="http://www.w3.org/2000/svg" viewBox="0 -0.5 80 80" shape-rendering="crispEdges">
<metadata>Made with Pixels to Svg https://codepen.io/shshaw/pen/XbxvNj</metadata>
<path stroke="#736a20" d="M37 0h1M22 1h2M21 2h1M24 2h1M21 3h1M24 3h1M35 3h1M21 4h1M25 4h1M34 4h2M21 5h1M25 5h1M34 5h1M20 6h1M25 6h2M34 6h1M20 7h1M26 7h1M33 7h2M20 8h1M26 8h2M33 8h1M20 9h1M33 9h1M33 10h1M27 11h2M33 11h1M32 12h2M28 15h1M42 16h1M21 18h1M29 19h1M28 20h1M27 21h1M25 22h2M32 22h1M22 23h3M33 23h1M34 24h2M43 24h1M36 25h5M44 25h1M41 26h1M44 26h1M47 44h1M45 45h1M41 48h2M51 50h1M49 51h2M60 51h1M46 52h4M42 53h5M57 53h1M52 54h1M22 64h1M21 67h1M25 68h1" />
<path stroke="#101010" d="M38 0h1M39 1h1M39 2h1M40 3h1M40 4h1M40 5h2M41 6h1M41 7h1M41 8h2M27 9h1M41 9h2M20 10h1M27 10h1M42 10h1M20 11h1M42 11h1M20 12h1M28 12h1M42 12h1M20 13h1M28 13h1M32 13h1M42 13h1M20 14h1M28 14h2M32 14h1M42 14h2M20 15h1M29 15h1M32 15h1M42 15h2M20 16h1M29 16h1M32 16h1M43 16h1M20 17h1M29 17h2M32 17h1M43 17h1M20 18h1M29 18h2M32 18h1M43 18h1M20 19h2M30 19h3M43 19h1M21 20h1M32 20h1M43 20h1M21 21h1M32 21h1M43 21h2M21 22h1M43 22h2M43 23h2M44 24h1M45 25h1M19 26h1M45 26h1M18 27h1M18 28h1M18 29h1M24 31h1M24 32h1M36 32h1M23 33h1M36 33h1M23 34h1M36 34h1M47 34h1M22 35h1M32 35h1M37 35h1M65 35h2M70 35h1M75 35h1M22 36h1M32 36h1M37 36h1M66 36h1M76 36h1M21 37h1M31 37h1M37 37h1M62 37h1M67 37h1M74 37h4M21 38h1M31 38h1M37 38h1M62 38h1M68 38h1M73 38h1M77 38h2M20 39h1M31 39h1M37 39h1M78 39h1M19 40h2M30 40h1M37 40h2M79 40h1M10 41h1M19 41h1M30 41h1M38 41h1M79 41h1M9 42h1M18 42h1M38 42h1M51 42h1M79 42h1M18 43h2M38 43h1M49 43h2M57 43h1M78 43h2M8 44h1M18 44h3M22 44h1M29 44h1M38 44h1M46 44h1M48 44h1M56 44h1M73 44h6M17 45h1M20 45h2M29 45h1M38 45h1M47 45h1M55 45h1M70 45h4M17 46h1M21 46h1M38 46h2M46 46h1M55 46h1M68 46h3M6 47h1M17 47h1M20 47h1M39 47h1M44 47h2M54 47h1M66 47h3M16 48h1M20 48h1M39 48h1M43 48h1M53 48h1M65 48h2M5 49h1M16 49h1M20 49h1M39 49h4M52 49h1M63 49h3M16 50h1M19 50h1M39 50h1M62 50h2M4 51h1M15 51h1M19 51h1M39 51h1M61 51h2M4 52h1M15 52h1M19 52h1M39 52h2M59 52h2M14 53h1M18 53h1M27 53h1M39 53h1M41 53h1M58 53h2M3 54h1M14 54h1M18 54h1M27 54h1M39 54h1M42 54h1M53 54h5M3 55h1M13 55h1M18 55h1M27 55h1M39 55h1M42 55h1M50 55h4M3 56h1M13 56h1M18 56h1M27 56h1M39 56h1M43 56h1M47 56h4M3 57h1M12 57h1M18 57h1M27 57h1M38 57h2M43 57h1M45 57h3M11 58h2M18 58h1M27 58h1M38 58h1M40 58h1M43 58h3M5 59h1M9 59h3M18 59h1M27 59h1M38 59h1M40 59h1M43 59h1M6 60h4M19 60h1M26 60h1M28 60h1M37 60h1M40 60h1M43 60h1M20 61h1M24 61h3M28 61h2M37 61h1M40 61h1M43 61h1M21 62h4M29 62h3M35 62h2M39 62h1M42 62h2M30 63h5M39 63h1M42 63h1M17 64h1M30 64h1M39 64h1M41 64h2M17 65h1M21 65h1M26 65h1M30 65h1M38 65h1M40 65h2M17 66h1M21 66h1M26 66h1M30 66h1M38 66h3M17 67h1M20 67h1M26 67h1M29 67h2M37 67h2M18 68h1M20 68h1M26 68h1M29 68h1M37 68h1M18 69h3M25 69h1M28 69h1M36 69h1M20 70h1M25 70h3M36 70h1M19 71h1M25 71h1M36 71h1M19 72h1M25 72h1M36 72h1M18 73h1M24 73h2M36 73h1M17 74h1M24 74h1M36 74h1M16 75h1M23 75h2M15 76h1M23 76h1M38 76h1M14 77h1M22 77h2M38 77h2M13 78h1M21 78h2M39 78h1M12 79h1M20 79h2M40 79h1" />
<path stroke="#aca429" d="M36 1h1M38 1h1M23 2h1M35 2h1M39 3h1M24 4h1M22 5h1M21 6h2M36 6h2M40 6h1M21 7h3M35 7h3M21 8h3M34 8h5M21 9h3M34 9h5M21 10h4M34 10h5M41 10h1M21 11h4M34 11h6M21 12h4M34 12h6M21 13h5M33 13h7M21 14h5M33 14h7M21 15h5M33 15h6M40 15h1M21 16h5M33 16h5M39 16h1M21 17h6M33 17h6M40 17h1M42 17h1M22 18h5M33 18h5M39 18h1M22 19h5M33 19h6M40 19h1M22 20h6M33 20h8M22 21h5M33 21h9M22 22h3M33 22h9M34 23h8M36 24h6M41 25h1M42 26h1M47 40h4M20 41h4M44 41h7M19 42h4M39 42h12M20 43h3M39 43h10M21 44h1M39 44h7M57 44h1M39 45h6M46 45h1M40 46h6M56 46h1M61 46h3M40 47h4M55 47h2M59 47h4M40 48h1M54 48h11M53 49h10M53 50h9M53 51h7M54 52h5M51 54h1M23 64h2M22 65h4M22 66h4M22 67h4M21 68h4M21 69h4M21 70h4M20 71h5M20 72h5M19 73h5M18 74h6M17 75h6M16 76h7M15 77h7M14 78h7M13 79h7" />
<path stroke="#e6ee7b" d="M37 1h1M22 2h1M36 2h3M22 3h2M36 3h3M22 4h2M36 4h4M23 5h2M35 5h5M23 6h2M35 6h1M38 6h2M24 7h2M38 7h3M24 8h2M39 8h2M24 9h3M39 9h2M25 10h2M39 10h2M25 11h2M40 11h2M25 12h3M40 12h2M26 13h2M40 13h2M26 14h2M40 14h2M26 15h2M39 15h1M41 15h1M26 16h3M38 16h1M40 16h2M27 17h2M39 17h1M41 17h1M27 18h2M38 18h1M40 18h3M27 19h2M39 19h1M41 19h2M41 20h2M42 21h1M42 22h1M42 23h1M42 24h1M42 25h2M43 26h1M43 27h2M44 28h2M45 29h1M46 31h1M52 50h1M51 51h2M50 52h4M47 53h10M43 54h8M43 55h7M44 56h3M44 57h1" />
<path stroke="#628ba4" d="M29 20h3M28 21h4M27 22h5M25 23h7M22 24h11M23 25h10M24 26h10M26 27h5M68 35h2M72 35h3M67 36h2M70 36h5M68 37h5M9 38h2M69 38h4M75 38h2M8 39h4M70 39h2M73 39h4M7 40h4M12 40h3M70 40h7M6 41h4M11 41h5M70 41h6M5 42h4M11 42h5M69 42h5M5 43h3M10 43h6M24 43h2M67 43h3M4 44h4M9 44h6M23 44h4M30 44h4M66 44h2M3 45h4M8 45h7M23 45h5M30 45h5M65 45h1M3 46h3M7 46h7M22 46h6M30 46h5M2 47h4M7 47h7M22 47h6M29 47h7M2 48h3M7 48h6M22 48h6M29 48h7M2 49h3M6 49h7M21 49h6M29 49h7M1 50h3M6 50h6M21 50h6M29 50h7M1 51h3M5 51h6M21 51h6M29 51h7M1 52h2M5 52h5M20 52h7M28 52h8M6 53h3M20 53h7M28 53h8M40 53h1M20 54h6M28 54h8M40 54h2M20 55h6M28 55h8M40 55h2M20 56h5M28 56h7M40 56h2M23 57h2M28 57h1M33 57h2" />
<path stroke="#39525a" d="M21 23h1M20 24h1M19 25h1M45 27h1M46 28h1M20 29h4M46 29h1M18 30h2M21 30h1M24 30h1M31 30h2M34 30h2M47 30h1M17 31h1M20 31h1M30 31h1M33 31h1M36 31h1M47 31h1M16 32h1M19 32h1M23 32h1M29 32h1M33 32h1M44 32h1M47 32h1M14 33h2M18 33h1M29 33h1M33 33h1M44 33h1M47 33h1M62 33h2M13 34h1M17 34h1M22 34h1M28 34h1M32 34h1M44 34h1M48 34h1M62 34h1M64 34h1M67 34h3M72 34h3M12 35h1M16 35h1M27 35h1M36 35h1M48 35h1M62 35h1M71 35h1M10 36h2M15 36h1M21 36h1M27 36h1M62 36h1M69 36h1M9 37h1M14 37h1M26 37h1M49 37h1M8 38h1M13 38h1M20 38h1M26 38h1M50 38h2M7 39h1M12 39h1M25 39h1M47 39h2M51 39h2M61 39h2M6 40h1M11 40h1M21 40h1M24 40h1M44 40h3M52 40h1M60 40h1M62 40h1M5 41h1M24 41h1M37 41h1M39 41h5M59 41h1M62 41h1M4 42h1M23 42h1M30 42h1M58 42h1M63 42h1M67 42h1M3 43h1M8 43h2M23 43h1M29 43h1M64 43h3M3 44h1M17 44h1M2 45h1M7 45h1M22 45h1M56 45h1M2 46h1M6 46h1M28 46h2M1 47h1M16 47h1M21 47h1M28 47h1M38 47h1M1 48h1M5 48h1M28 48h1M1 49h1M28 49h1M0 50h1M4 50h1M15 50h1M20 50h1M27 50h2M0 51h1M27 51h1M0 52h1M14 52h1M27 52h1M0 53h1M3 53h1M1 54h1M13 54h1M1 55h1M2 56h1M12 56h1M38 56h1M3 58h2M4 59h1M19 59h1M37 59h1M27 60h1M18 61h2M36 61h1M18 62h3M34 62h1M17 63h9M29 63h1M18 64h4M25 64h1M28 64h2M18 65h3M27 65h3M18 66h3M27 66h3M18 67h2M27 67h2M19 68h1M27 68h2M26 69h2" />
<path stroke="#527383" d="M32 23h1M21 24h1M33 24h1M20 25h3M33 25h3M20 26h4M34 26h7M19 27h7M31 27h12M19 28h25M19 29h1M24 29h21M20 30h1M22 30h2M25 30h6M33 30h1M36 30h11M18 31h2M21 31h3M25 31h5M31 31h2M34 31h2M37 31h8M17 32h2M20 32h3M25 32h4M30 32h3M34 32h2M37 32h7M16 33h2M19 33h4M24 33h5M30 33h3M34 33h2M37 33h7M14 34h3M18 34h4M24 34h4M29 34h3M33 34h3M37 34h7M13 35h3M17 35h5M23 35h4M28 35h4M33 35h3M38 35h7M67 35h1M12 36h3M16 36h5M23 36h4M28 36h4M33 36h4M38 36h8M48 36h1M75 36h1M10 37h4M15 37h6M22 37h4M27 37h4M32 37h5M38 37h9M48 37h1M73 37h1M11 38h2M14 38h6M22 38h4M27 38h4M32 38h5M38 38h12M74 38h1M13 39h7M21 39h4M26 39h5M32 39h5M38 39h9M49 39h2M69 39h1M72 39h1M77 39h1M15 40h4M22 40h2M25 40h5M31 40h6M39 40h5M51 40h1M61 40h1M69 40h1M77 40h2M16 41h3M25 41h5M31 41h6M51 41h1M60 41h2M68 41h2M76 41h3M10 42h1M16 42h2M24 42h6M31 42h7M59 42h4M68 42h1M74 42h5M4 43h1M16 43h2M26 43h3M30 43h8M58 43h6M70 43h8M15 44h2M27 44h2M34 44h4M58 44h8M68 44h5M15 45h2M28 45h1M35 45h3M57 45h8M66 45h4M14 46h3M35 46h3M57 46h4M64 46h4M14 47h2M36 47h2M57 47h2M63 47h3M6 48h1M13 48h3M21 48h1M36 48h3M13 49h3M27 49h1M36 49h3M5 50h1M12 50h3M36 50h3M11 51h4M20 51h1M28 51h1M36 51h3M3 52h1M10 52h4M36 52h3M1 53h2M4 53h2M9 53h5M19 53h1M36 53h3M2 54h1M4 54h9M19 54h1M26 54h1M36 54h3M2 55h1M4 55h9M19 55h1M26 55h1M36 55h3M4 56h8M19 56h1M25 56h2M35 56h3M42 56h1M4 57h8M19 57h4M25 57h2M29 57h4M35 57h3M40 57h3M5 58h6M19 58h8M28 58h10M41 58h2M6 59h3M20 59h7M28 59h9M41 59h2M20 60h6M29 60h8M41 60h2M21 61h3M27 61h1M30 61h6M41 61h2M25 62h4M32 62h2M40 62h2M26 63h3M40 63h2M26 64h2M40 64h1M39 65h1" />
<path stroke="#ffffff" d="M45 31h1M45 32h1M45 33h1M45 34h1M63 34h1M45 35h1M63 35h2M46 36h1M63 36h3M63 37h4M63 38h5M63 39h4" />
<path stroke="#de528b" d="M46 32h1M46 33h1M46 34h1M46 35h2M47 36h1M47 37h1" />
<path stroke="#acc5cd" d="M67 39h2M63 40h6M63 41h5M64 42h3" />
<path stroke="#7bb4cd" d="M39 58h1M39 59h1M38 60h2M38 61h2M37 62h2M35 63h4M32 64h7M32 65h6M33 66h5M33 67h4M34 68h3M34 69h1M37 77h1M37 78h2M38 79h2" />
<path stroke="#5a83ac" d="M31 64h1M31 65h1M31 66h2M31 67h2M30 68h4M29 69h5M35 69h1M28 70h8M26 71h10M26 72h10M26 73h10M25 74h11M25 75h12M24 76h13M24 77h13M23 78h14M22 79h16" />
<path stroke="#394a5a" d="M37 74h1M37 75h1M37 76h1" />
</svg>