<svg xmlns="http://www.w3.org/2000/svg" viewBox="0 -0.5 80 80" shape-rendering="crispEdges">
<metadata>Made with Pixels to Svg https://codepen.io/shshaw/pen/XbxvNj</metadata>
<path stroke="#dea429" d="M31 21h4M30 22h1M35 22h4M48 22h1M33 24h3M32 25h7M53 25h2M32 26h9M47 26h5M55 26h1M58 26h1M33 27h10M45 27h7M57 27h2M35 28h17M58 28h1M36 29h16M59 29h1M37 30h16M59 30h1M38 31h15M59 31h1M37 32h1M39 32h16M58 32h4M64 32h1M37 33h29M36 34h29M36 35h25M63 35h3M36 36h18M55 36h3M64 36h1M36 37h19M36 38h19M36 39h19M37 40h18M37 41h18M37 42h19M38 43h18M38 44h19M39 45h18M38 46h20M37 47h23M37 48h14M55 48h3M36 49h13M35 50h13M34 51h1M36 51h12M33 52h1M35 52h1M37 52h10M34 53h1M36 53h1M38 53h9M37 54h9M40 55h6M67 55h1M70 55h1M40 56h7M67 56h5M39 57h10M51 57h1M67 57h6M39 58h13M66 58h7M38 59h14M66 59h6M10 60h1M38 60h15M65 60h7M10 61h3M37 61h7M46 61h8M64 61h7M10 62h3M36 62h10M48 62h8M63 62h7M9 63h4M20 63h1M35 63h12M49 63h7M57 63h1M62 63h7M9 64h4M20 64h1M34 64h13M50 64h8M60 64h8M9 65h4M19 65h3M32 65h15M51 65h16M9 66h5M19 66h5M29 66h18M52 66h13M9 67h5M18 67h28M54 67h10M9 68h5M18 68h28M55 68h8M9 69h6M18 69h20M40 69h5M57 69h4M10 70h5M17 70h18M41 70h4M10 71h6M17 71h19M42 71h2" />
<path stroke="#945200" d="M48 21h6M43 22h5M54 22h2M39 23h4M56 23h1M43 24h1M57 24h1M30 25h1M51 25h2M58 25h1M52 26h1M59 26h1M52 27h1M34 28h1M52 28h1M52 29h1M61 29h1M53 30h1M62 30h2M37 31h1M53 31h1M58 31h1M64 31h1M38 32h1M56 32h2M65 32h1M35 33h2M35 34h1M65 34h1M61 35h2M54 36h1M58 36h1M55 37h3M56 42h1M56 43h1M57 44h1M37 45h2M57 45h1M37 46h1M58 46h2M36 47h1M36 48h1M35 49h1M14 50h2M34 50h1M13 51h3M33 51h1M13 52h3M32 52h1M47 52h1M13 53h2M31 53h1M65 53h2M12 54h3M30 54h1M61 54h1M67 54h1M12 55h3M28 55h2M60 55h2M68 55h2M11 56h4M26 56h2M60 56h1M72 56h1M11 57h4M25 57h1M52 57h1M59 57h2M10 58h1M12 58h2M24 58h1M52 58h1M59 58h1M10 59h1M13 59h1M23 59h1M52 59h1M58 59h1M9 60h1M13 60h1M22 60h1M53 60h1M58 60h1M9 61h1M13 61h1M21 61h1M44 61h1M54 61h2M57 61h1M9 62h1M13 62h1M20 62h1M56 62h2M13 63h1M19 63h1M47 63h1M56 63h1M13 64h1M19 64h1M48 64h1M13 65h1M18 65h1M18 66h1M65 66h1M17 67h1M53 67h1M17 68h1M17 69h1M38 69h2M61 69h1M16 70h1M40 70h1M41 71h1" />
<path stroke="#ffe600" d="M31 22h4M49 22h5M30 23h9M43 23h13M30 24h3M36 24h7M44 24h13M31 25h1M39 25h12M55 25h3M41 26h6M56 26h2M43 27h2M60 30h2M60 31h4M62 32h2M35 51h1M34 52h1M36 52h1M32 53h2M35 53h1M37 53h1M47 53h2M31 54h6M46 54h4M64 54h3M30 55h10M46 55h5M62 55h5M28 56h12M47 56h4M61 56h6M26 57h13M49 57h2M61 57h6M11 58h1M25 58h14M60 58h6M11 59h2M24 59h14M59 59h7M11 60h2M23 60h15M59 60h6M22 61h15M58 61h6M21 62h15M58 62h5M21 63h14M58 63h4M21 64h13M58 64h2M22 65h10M24 66h5M35 70h5M36 71h5" />
<path stroke="#101010" d="M29 23h1M29 24h1M29 25h1M30 26h2M53 26h2M32 27h1M55 27h2M59 27h1M33 28h1M55 28h1M57 28h1M59 28h1M34 29h2M56 29h3M60 29h1M35 30h2M57 30h2M36 31h1M36 32h1M66 33h1M66 34h1M35 35h1M66 35h1M35 36h1M59 36h2M63 36h1M65 36h1M35 37h1M61 37h1M63 37h2M35 38h1M55 38h1M62 38h1M35 39h1M55 39h1M36 40h1M55 40h1M36 41h1M55 41h1M36 42h1M37 43h1M58 43h2M37 44h1M59 44h1M59 45h1M60 46h1M60 47h1M51 48h4M58 48h2M49 49h2M54 49h4M64 49h1M69 49h1M48 50h1M65 50h1M70 50h1M48 51h1M65 51h1M71 51h1M48 52h2M61 52h1M65 52h1M71 52h2M49 53h1M61 53h1M71 53h1M73 53h1M50 54h1M71 54h1M73 54h1M51 55h1M71 55h1M73 55h1M51 56h1M73 56h1M73 57h1M73 58h1M72 59h1M72 60h1M45 61h1M71 61h1M46 62h2M70 62h1M8 63h1M48 63h1M69 63h1M8 64h1M49 64h1M68 64h1M8 65h1M49 65h2M67 65h1M8 66h1M14 66h1M49 66h1M51 66h1M66 66h1M8 67h1M14 67h1M49 67h1M52 67h1M64 67h2M8 68h1M14 68h1M49 68h1M53 68h2M63 68h1M8 69h1M15 69h1M48 69h2M55 69h2M62 69h1M9 70h1M15 70h1M48 70h1M57 70h5M9 71h1M16 71h1M48 71h1" />
<path stroke="#ffb410" d="M8 26h1M8 27h2M9 28h2M16 28h2M11 29h1M15 29h3M14 30h3M14 31h3M21 31h1M14 32h3M21 32h1M13 33h5M21 33h1M13 34h2M16 34h2M20 34h3M13 35h1M15 35h1M17 35h4M14 36h1M17 36h3M18 37h1M18 41h1M18 42h2M19 43h2M18 44h3M17 45h3M10 46h2M18 46h1M10 47h3M9 48h7M9 49h8M9 50h5M16 50h1M9 51h4M16 51h1M11 52h2M15 53h1" />
<path stroke="#b4b4b4" d="M53 27h2M62 36h1M62 37h1M68 51h1M67 52h1M70 52h1M62 53h1M70 53h1M72 53h1M62 54h2M69 54h2M72 54h1M72 55h1" />
<path stroke="#ff6220" d="M8 28h1M9 29h2M10 30h2M10 31h2M11 32h1M15 34h1M14 35h1M16 35h1M21 35h1M13 36h1M15 36h2M20 36h2M13 37h5M19 37h3M13 38h9M13 39h9M13 40h10M13 41h5M19 41h4M13 42h5M20 42h3M14 43h5M21 43h3M15 44h3M21 44h3M20 45h3M19 46h3M19 47h3M19 48h3M20 49h3M20 50h4M20 51h4M19 52h2M22 52h2M18 53h2M21 53h2M21 54h2M20 55h2M19 56h1M17 57h2M14 58h4M14 59h2" />
<path stroke="#ffffff" d="M53 28h2M56 28h1M53 29h2M54 30h2M54 31h4M55 32h1M61 36h1M58 44h1M58 45h1M64 50h1M69 50h1M63 51h2M69 51h1M62 52h3M68 52h2M63 53h2M67 53h3M68 54h1" />
<path stroke="#6a6a6a" d="M55 29h1M56 30h1M65 49h1M68 49h1M63 50h1M68 50h1M62 51h1M67 51h1M70 51h1" />
<path stroke="#ffe631" d="M12 36h1M12 37h1M8 38h1M11 38h2M7 39h1M11 39h2M7 40h1M11 40h2M6 41h3M11 41h2M6 42h4M11 42h2M7 43h4M12 43h2M8 44h7M8 45h9M8 46h2M12 46h6M7 47h3M13 47h6M7 48h2M16 48h3M6 49h3M17 49h3M6 50h3M17 50h3M6 51h3M17 51h3M7 52h4M16 52h3M21 52h1M7 53h6M16 53h2M20 53h1M8 54h4M15 54h6M9 55h3M15 55h5M9 56h2M15 56h4M10 57h1M15 57h2" />
<path stroke="#eede5a" d="M47 64h1M47 65h2M47 66h2M46 67h3M46 68h3M45 69h3M45 70h3M44 71h4" />
</svg>