<svg xmlns="http://www.w3.org/2000/svg" viewBox="0 -0.5 80 80" shape-rendering="crispEdges">
<metadata>Made with Pixels to Svg https://codepen.io/shshaw/pen/XbxvNj</metadata>
<path stroke="#9c5a6a" d="M36 24h10M35 25h1M46 25h3M32 26h1M48 26h2M30 27h1M50 27h1M51 28h1M53 30h1M46 32h5M54 32h1M44 33h9M42 34h12M41 35h15M40 36h16M24 37h1M39 37h17M39 38h17M38 39h19M38 40h19M23 41h1M37 41h20M37 42h20M37 43h20M36 44h21M36 45h21M22 46h1M36 46h21M35 47h22M35 48h22M35 49h22M35 50h21M34 51h22M21 52h1M34 52h22M34 53h22M34 54h22M34 55h22" />
<path stroke="#523129" d="M33 25h2M31 26h1M50 26h1M29 27h1M51 27h1M28 28h1M52 28h1M27 29h1M53 29h1M26 30h1M54 30h1M26 31h1M54 31h1M25 32h1M55 32h1M25 33h1M55 33h1M24 34h1M55 34h1M24 35h1M56 35h1M24 36h1M56 36h1M23 37h1M56 37h1M23 38h1M56 38h2M23 39h1M57 39h1M23 40h1M57 40h1M22 41h1M57 41h1M22 42h1M22 43h1M22 44h1M22 45h1M21 46h1M21 47h1M21 48h1M21 49h1M21 50h1M56 50h2M21 51h1M20 52h1M20 53h1M20 54h1M20 55h1" />
<path stroke="#bd7352" d="M36 25h10M33 26h11M31 27h13M29 28h16M28 29h19M51 29h2M27 30h26M27 31h27M26 32h20M51 32h3M26 33h18M53 33h2M25 34h17M54 34h1M25 35h16M25 36h15M25 37h14M24 38h15M24 39h14M24 40h14M24 41h13M23 42h14M23 43h14M23 44h13M23 45h13M23 46h13M22 47h13M22 48h13M22 49h13M22 50h13M22 51h12M22 52h12M21 53h13M21 54h13M21 55h13" />
<path stroke="#d59c6a" d="M44 26h4M44 27h6M45 28h6M47 29h4" />
<path stroke="#08297b" d="M58 40h1M59 42h1M59 43h1M59 44h1M59 45h1M58 46h1M58 47h1" />
<path stroke="#3152a4" d="M58 41h2M58 42h1M58 43h1M58 44h1M58 45h1" />
<path stroke="#101010" d="M57 42h1M57 43h1M57 44h1M57 45h1M57 46h1M57 47h1M57 48h1M57 49h1M56 51h1M56 52h1M56 53h1M56 54h1M56 55h1" />
</svg>