<svg xmlns="http://www.w3.org/2000/svg" viewBox="0 -0.5 56 56" shape-rendering="crispEdges">
<metadata>Made with Pixels to Svg https://codepen.io/shshaw/pen/XbxvNj</metadata>
<path stroke="#ffffff" d="M0 0h56M0 1h27M29 1h27M0 2h25M27 2h1M30 2h26M0 3h24M25 3h2M30 3h26M0 4h23M24 4h3M29 4h27M0 5h19M20 5h2M23 5h3M29 5h27M0 6h18M19 6h1M22 6h4M30 6h21M53 6h3M0 7h18M19 7h2M23 7h2M29 7h21M51 7h2M54 7h2M0 8h19M24 8h1M28 8h22M51 8h2M54 8h2M0 9h19M24 9h1M27 9h22M50 9h3M54 9h2M0 10h19M20 10h1M23 10h1M27 10h22M50 10h3M54 10h2M0 11h18M19 11h5M27 11h21M49 11h1M51 11h2M54 11h2M0 12h14M16 12h1M19 12h5M27 12h19M49 12h1M51 12h2M54 12h2M0 13h10M12 13h1M14 13h2M17 13h1M20 13h4M26 13h19M46 13h2M51 13h1M55 13h1M0 14h9M10 14h2M15 14h2M20 14h4M26 14h20M51 14h1M54 14h2M0 15h8M10 15h2M15 15h2M20 15h3M27 15h18M46 15h1M50 15h2M53 15h3M0 16h8M10 16h2M19 16h4M28 16h16M45 16h2M50 16h2M53 16h3M0 17h8M11 17h1M17 17h6M29 17h12M42 17h1M44 17h3M49 17h2M52 17h4M0 18h8M16 18h7M25 18h1M28 18h12M41 18h1M43 18h3M49 18h2M52 18h4M0 19h7M8 19h1M17 19h6M25 19h15M42 19h1M44 19h1M48 19h2M51 19h5M0 20h5M7 20h1M15 20h1M17 20h5M31 20h8M48 20h2M52 20h4M0 21h4M5 21h2M16 21h2M21 21h1M25 21h6M34 21h5M47 21h2M53 21h3M0 22h3M4 22h2M10 22h5M16 22h1M18 22h2M26 22h5M36 22h2M47 22h1M52 22h4M0 23h2M3 23h2M9 23h6M16 23h2M26 23h3M46 23h2M50 23h6M0 24h2M3 24h1M8 24h8M17 24h2M26 24h1M46 24h1M48 24h8M0 25h2M4 25h1M8 25h8M17 25h3M45 25h2M48 25h8M0 26h3M4 26h1M8 26h9M18 26h1M27 26h1M44 26h2M47 26h9M0 27h4M5 27h1M9 27h3M15 27h3M33 27h1M43 27h2M47 27h9M0 28h4M5 28h1M16 28h1M42 28h4M47 28h9M0 29h5M6 29h1M10 29h1M12 29h2M41 29h2M46 29h1M48 29h8M0 30h5M6 30h1M10 30h1M12 30h2M18 30h1M40 30h3M47 30h9M0 31h6M10 31h1M18 31h1M28 31h1M40 31h2M43 31h13M0 32h6M9 32h2M18 32h2M27 32h1M31 32h1M42 32h14M0 33h6M7 33h3M18 33h3M40 33h3M45 33h11M0 34h7M8 34h1M17 34h3M27 34h1M30 34h2M39 34h1M43 34h2M46 34h1M49 34h7M0 35h8M39 35h2M42 35h2M47 35h2M50 35h6M0 36h10M26 36h1M42 36h2M47 36h2M51 36h5M0 37h12M29 37h1M47 37h2M51 37h5M0 38h13M47 38h1M51 38h5M0 39h13M18 39h1M51 39h5M0 40h12M13 40h2M17 40h3M50 40h6M0 41h11M12 41h3M17 41h4M35 41h1M43 41h1M50 41h6M0 42h10M11 42h4M17 42h3M35 42h2M50 42h6M0 43h9M10 43h4M18 43h1M36 43h6M48 43h8M0 44h8M10 44h3M37 44h19M0 45h8M11 45h1M18 45h4M34 45h1M37 45h19M0 46h7M8 46h3M19 46h2M38 46h18M0 47h7M8 47h3M38 47h18M0 48h6M7 48h4M35 48h1M38 48h18M0 49h6M7 49h3M19 49h4M38 49h18M0 50h6M8 50h2M18 50h2M37 50h19M0 51h5M7 51h1M39 51h17M0 52h4M5 52h2M10 52h2M15 52h3M23 52h2M41 52h15M0 53h3M4 53h2M9 53h2M15 53h12M35 53h2M42 53h14M0 54h4M14 54h16M41 54h15M0 55h56" />
<path stroke="#191010" d="M27 1h2M25 2h2M29 2h1M24 3h1M29 3h1M23 4h1M28 4h1M19 5h1M22 5h1M28 5h1M18 6h1M20 6h2M27 6h1M29 6h1M52 6h1M18 7h1M22 7h1M27 7h2M19 8h1M22 8h1M27 8h1M50 8h1M53 8h1M19 9h3M26 9h1M53 9h1M19 10h1M26 10h1M49 10h1M53 10h1M18 11h1M26 11h1M48 11h1M53 11h1M14 12h2M17 12h2M26 12h1M46 12h3M53 12h1M10 13h2M13 13h1M16 13h1M19 13h1M25 13h1M49 13h1M52 13h1M54 13h1M9 14h1M12 14h1M17 14h1M19 14h1M25 14h1M46 14h1M49 14h1M52 14h2M12 15h2M17 15h2M25 15h2M45 15h1M47 15h2M52 15h1M8 16h1M12 16h2M25 16h1M27 16h1M44 16h1M8 17h1M12 17h3M16 17h1M25 17h1M28 17h1M41 17h1M43 17h1M51 17h1M8 18h1M11 18h1M13 18h3M24 18h1M26 18h2M42 18h1M51 18h1M7 19h1M9 19h1M11 19h2M14 19h2M24 19h1M40 19h1M43 19h1M50 19h1M5 20h2M9 20h3M13 20h1M16 20h1M24 20h6M40 20h1M43 20h1M50 20h2M4 21h1M9 21h7M18 21h3M24 21h1M31 21h2M39 21h1M41 21h2M49 21h1M52 21h1M3 22h1M9 22h1M15 22h1M17 22h1M21 22h1M25 22h1M34 22h2M38 22h1M48 22h1M50 22h2M2 23h1M7 23h2M15 23h1M18 23h1M21 23h1M25 23h1M36 23h2M48 23h2M2 24h1M4 24h4M16 24h1M19 24h2M25 24h1M37 24h1M47 24h1M2 25h2M6 25h2M16 25h1M24 25h1M27 25h1M35 25h1M37 25h1M47 25h1M3 26h1M7 26h1M17 26h1M24 26h1M28 26h2M35 26h1M38 26h1M46 26h1M4 27h1M8 27h1M12 27h3M18 27h1M23 27h1M27 27h2M34 27h1M38 27h1M45 27h2M4 28h1M9 28h3M15 28h1M17 28h6M33 28h2M38 28h1M46 28h1M5 29h1M9 29h1M16 29h5M39 29h1M43 29h1M47 29h1M5 30h1M9 30h1M17 30h1M19 30h1M28 30h4M39 30h1M43 30h4M6 31h1M8 31h2M17 31h1M19 31h1M27 31h1M29 31h4M39 31h1M42 31h1M6 32h3M17 32h1M20 32h1M26 32h1M30 32h1M33 32h1M39 32h3M6 33h1M17 33h1M21 33h1M25 33h2M28 33h4M33 33h1M38 33h2M43 33h2M7 34h1M16 34h1M22 34h4M29 34h1M33 34h1M38 34h1M40 34h3M45 34h1M47 34h2M8 35h2M16 35h1M25 35h6M32 35h2M37 35h1M41 35h1M46 35h1M49 35h1M10 36h2M15 36h1M17 36h1M25 36h1M28 36h1M30 36h3M34 36h4M41 36h1M45 36h2M12 37h3M17 37h1M25 37h1M28 37h1M31 37h1M36 37h1M45 37h2M50 37h1M13 38h1M18 38h1M26 38h5M36 38h1M41 38h2M44 38h3M50 38h1M13 39h2M17 39h1M19 39h1M24 39h5M35 39h1M41 39h5M47 39h1M50 39h1M12 40h1M15 40h2M20 40h4M29 40h3M34 40h2M40 40h2M43 40h2M46 40h2M49 40h1M11 41h1M16 41h1M32 41h3M36 41h1M39 41h4M45 41h1M47 41h3M10 42h1M16 42h1M34 42h1M37 42h13M9 43h1M17 43h1M23 43h4M33 43h1M35 43h1M42 43h6M8 44h2M17 44h6M27 44h4M32 44h2M36 44h1M8 45h3M17 45h1M30 45h3M36 45h1M7 46h1M11 46h1M18 46h1M31 46h1M35 46h1M37 46h1M7 47h1M12 47h1M18 47h1M23 47h3M30 47h1M35 47h1M37 47h1M6 48h1M13 48h1M18 48h5M26 48h1M29 48h1M34 48h1M37 48h1M6 49h1M14 49h2M17 49h2M27 49h2M32 49h2M37 49h1M6 50h2M15 50h3M26 50h6M36 50h1M5 51h2M9 51h4M14 51h4M23 51h7M31 51h1M33 51h2M36 51h3M4 52h1M9 52h1M13 52h2M18 52h5M25 52h8M35 52h2M39 52h2M3 53h1M8 53h1M14 53h1M27 53h5M37 53h1M41 53h1M4 54h10M30 54h11" />
<path stroke="#e6a57b" d="M28 2h1M27 3h2M27 4h1M26 5h1M26 6h1M21 7h1M25 7h2M20 8h2M23 8h1M25 8h1M22 9h2M25 9h1M21 10h2M24 10h2M24 11h1M50 11h1M24 12h1M50 12h1M18 13h1M24 13h1M48 13h1M50 13h1M14 14h1M18 14h1M24 14h1M50 14h1M9 15h1M19 15h1M23 15h2M49 15h1M9 16h1M18 16h1M23 16h1M49 16h1M9 17h2M23 17h1M47 17h2M10 18h1M23 18h1M46 18h3M23 19h1M41 19h1M45 19h3M8 20h1M14 20h1M22 20h2M44 20h4M7 21h1M22 21h2M44 21h3M6 22h1M20 22h1M22 22h2M31 22h3M43 22h4M5 23h1M19 23h2M22 23h2M29 23h7M43 23h3M21 24h2M27 24h9M42 24h4M5 25h1M20 25h3M25 25h2M28 25h7M42 25h3M5 26h1M19 26h3M25 26h2M30 26h3M41 26h3M6 27h1M19 27h2M24 27h3M29 27h4M40 27h3M6 28h1M12 28h3M23 28h10M40 28h2M7 29h1M11 29h1M14 29h2M21 29h11M40 29h1M44 29h2M7 30h1M11 30h1M14 30h1M20 30h8M7 31h1M11 31h3M20 31h7M11 32h2M21 32h5M28 32h2M32 32h1M10 33h2M22 33h3M27 33h1M32 33h1M9 34h2M20 34h2M26 34h1M28 34h1M32 34h1M17 35h7M31 35h1M38 35h1M44 35h1M16 36h1M18 36h7M38 36h2M44 36h1M49 36h1M15 37h2M18 37h7M26 37h2M30 37h1M37 37h2M42 37h2M49 37h1M14 38h2M19 38h5M37 38h1M43 38h1M48 38h2M29 39h1M48 39h1M24 40h5M15 41h1M21 41h7M44 41h1M15 42h1M20 42h3M14 43h3M19 43h2M27 43h4M13 44h3M23 44h4M31 44h1M34 44h1M12 45h3M22 45h4M33 45h1M35 45h1M12 46h2M21 46h3M32 46h3M11 47h1M19 47h4M26 47h1M33 47h2M36 47h1M11 48h2M27 48h2M33 48h1M36 48h1M10 49h2M34 49h3M10 50h1M20 50h3M34 50h2M8 51h1M18 51h2M35 51h1M7 52h2M12 52h1M33 52h2M37 52h2M6 53h1M11 53h2M34 53h1M38 53h3" />
<path stroke="#ad734a" d="M27 5h1M28 6h1M51 6h1M50 7h1M53 7h1M26 8h1M49 9h1M25 11h1M25 12h1M45 13h1M53 13h1M13 14h1M47 14h2M8 15h1M14 15h1M14 16h4M24 16h1M26 16h1M47 16h2M52 16h1M15 17h1M24 17h1M26 17h2M9 18h1M12 18h1M40 18h1M10 19h1M13 19h1M16 19h1M12 20h1M30 20h1M39 20h1M41 20h2M8 21h1M33 21h1M40 21h1M43 21h1M50 21h2M7 22h2M24 22h1M39 22h4M49 22h1M6 23h1M24 23h1M38 23h5M23 24h2M36 24h1M38 24h4M23 25h1M36 25h1M38 25h4M6 26h1M22 26h2M33 26h2M36 26h2M39 26h2M7 27h1M21 27h2M35 27h3M39 27h1M7 28h2M35 28h3M39 28h1M8 29h1M32 29h7M8 30h1M15 30h2M32 30h7M14 31h3M33 31h6M13 32h4M34 32h5M12 33h5M34 33h4M11 34h5M34 34h4M10 35h6M24 35h1M34 35h3M45 35h1M12 36h3M27 36h1M29 36h1M33 36h1M40 36h1M50 36h1M32 37h4M39 37h3M44 37h1M16 38h2M24 38h2M31 38h5M38 38h3M15 39h2M20 39h4M30 39h5M36 39h5M46 39h1M49 39h1M32 40h2M36 40h4M42 40h1M45 40h1M48 40h1M28 41h4M37 41h2M46 41h1M23 42h11M21 43h2M31 43h2M34 43h1M16 44h1M35 44h1M15 45h2M26 45h4M14 46h4M24 46h7M36 46h1M13 47h5M27 47h3M31 47h2M14 48h4M23 48h3M30 48h3M12 49h2M16 49h1M23 49h4M29 49h3M11 50h4M23 50h3M32 50h2M13 51h1M20 51h3M30 51h1M32 51h1M7 53h1M13 53h1M32 53h2" />
</svg>