<svg xmlns="http://www.w3.org/2000/svg" viewBox="0 -0.5 56 56" shape-rendering="crispEdges">
<metadata>Made with Pixels to Svg https://codepen.io/shshaw/pen/XbxvNj</metadata>
<path stroke="#ffffff" d="M0 0h56M0 1h56M0 2h17M24 2h23M49 2h7M0 3h16M25 3h12M41 3h5M47 3h1M50 3h6M0 4h15M26 4h10M43 4h2M46 4h2M49 4h1M51 4h5M0 5h15M18 5h1M27 5h8M44 5h1M46 5h2M49 5h2M52 5h4M0 6h14M15 6h2M18 6h1M27 6h7M45 6h3M49 6h2M53 6h3M0 7h14M15 7h3M27 7h7M38 7h1M45 7h2M48 7h3M53 7h3M0 8h14M16 8h2M27 8h2M45 8h2M48 8h3M54 8h2M0 9h14M16 9h2M20 9h2M40 9h2M45 9h2M48 9h3M54 9h2M0 10h14M17 10h5M40 10h2M45 10h2M48 10h3M54 10h2M0 11h13M19 11h3M43 11h1M45 11h6M55 11h1M0 12h12M43 12h1M45 12h6M55 12h1M0 13h12M47 13h4M55 13h1M0 14h11M44 14h1M49 14h2M54 14h2M0 15h11M31 15h6M43 15h3M54 15h2M0 16h10M29 16h3M42 16h4M54 16h2M0 17h9M29 17h2M32 17h2M41 17h4M53 17h3M0 18h9M39 18h5M52 18h4M0 19h9M39 19h3M52 19h4M0 20h8M51 20h5M0 21h8M50 21h6M0 22h8M49 22h7M0 23h8M49 23h7M0 24h8M45 24h1M49 24h7M0 25h8M43 25h3M49 25h7M0 26h8M40 26h2M43 26h4M49 26h7M0 27h9M38 27h1M40 27h2M43 27h4M52 27h4M0 28h9M31 28h1M36 28h3M40 28h2M43 28h3M49 28h3M54 28h2M0 29h9M30 29h3M35 29h3M40 29h2M43 29h3M49 29h3M55 29h1M0 30h10M31 30h6M39 30h2M42 30h3M49 30h1M54 30h1M0 31h10M37 31h4M42 31h1M44 31h1M48 31h1M0 32h10M35 32h5M41 32h1M0 33h11M37 33h2M40 33h2M0 34h11M39 34h2M0 35h12M39 35h1M55 35h1M0 36h12M54 36h2M0 37h13M53 37h3M0 38h13M50 38h6M0 39h14M50 39h6M0 40h14M50 40h6M0 41h13M28 41h8M49 41h7M0 42h13M27 42h11M49 42h7M0 43h12M26 43h13M48 43h8M0 44h12M25 44h13M47 44h9M0 45h11M24 45h13M46 45h10M0 46h10M23 46h14M47 46h9M0 47h9M22 47h15M48 47h8M0 48h8M20 48h19M49 48h7M0 49h7M20 49h20M49 49h7M0 50h6M19 50h23M48 50h8M0 51h5M19 51h37M0 52h4M18 52h38M0 53h4M17 53h39M0 54h5M14 54h42M0 55h56" />
<path stroke="#5a7bbd" d="M17 2h1M23 2h1M48 2h1M16 3h1M24 3h1M37 3h1M40 3h1M15 4h1M25 4h1M36 4h1M42 4h1M35 5h1M43 5h1M51 5h1M14 6h1M22 6h1M26 6h1M34 6h1M41 6h2M48 6h1M23 7h1M42 7h1M47 7h1M20 8h1M24 8h1M30 8h1M53 8h1M15 9h1M19 9h1M25 9h1M14 10h1M16 10h1M25 10h1M47 10h1M13 11h1M17 11h1M24 11h1M51 11h1M54 11h1M12 12h1M19 12h1M22 12h1M53 12h1M52 13h2M11 14h1M31 14h1M37 14h2M52 14h2M29 15h1M39 15h1M50 15h3M10 16h1M28 16h1M32 16h1M37 16h1M40 16h1M51 16h2M27 17h1M31 17h1M51 17h1M9 18h1M50 19h1M39 20h1M49 20h1M8 21h1M48 21h1M46 22h2M40 23h5M41 24h2M46 24h1M8 25h1M18 25h1M19 26h1M39 26h1M20 27h2M37 27h1M51 27h1M9 28h1M22 28h3M30 28h1M32 28h1M35 28h1M53 28h1M33 29h2M39 29h1M42 29h1M46 29h1M24 30h1M38 30h1M55 30h1M10 31h1M25 31h1M31 31h1M36 31h1M41 31h1M45 31h1M53 31h1M11 33h1M26 33h1M44 33h1M55 34h1M12 35h1M27 35h1M31 35h1M37 35h1M42 35h1M41 36h1M13 37h1M28 37h2M39 37h1M52 37h1M29 38h2M37 38h1M49 40h1M13 41h1M26 41h1M37 41h1M38 42h1M48 42h1M12 43h1M25 43h1M47 43h1M24 44h1M38 44h1M46 44h1M11 45h1M23 45h1M10 46h1M22 46h1M46 46h1M9 47h1M20 47h1M37 47h1M47 47h1M8 48h1M19 48h1M39 48h1M48 48h1M7 49h1M40 49h1M48 49h1M6 50h1M42 50h1M47 50h1M5 51h1M18 51h1M4 52h1M17 52h1M4 53h1M16 53h1M5 54h1M13 54h1" />
<path stroke="#191010" d="M18 2h5M47 2h1M17 3h7M38 3h2M46 3h1M48 3h2M16 4h9M37 4h5M45 4h1M48 4h1M50 4h1M15 5h1M19 5h7M36 5h7M45 5h1M48 5h1M19 6h2M23 6h3M35 6h5M43 6h2M51 6h2M14 7h1M18 7h3M24 7h3M34 7h4M39 7h1M43 7h2M51 7h2M14 8h1M18 8h2M25 8h2M31 8h5M37 8h3M43 8h2M47 8h1M51 8h1M14 9h1M18 9h1M26 9h10M37 9h3M43 9h2M47 9h1M51 9h1M53 9h1M15 10h1M26 10h11M38 10h1M42 10h3M51 10h1M53 10h1M14 11h3M25 11h6M32 11h2M35 11h3M41 11h2M44 11h1M13 12h6M23 12h20M44 12h1M54 12h1M12 13h33M54 13h1M12 14h19M39 14h5M11 15h18M40 15h3M53 15h1M11 16h17M33 16h4M41 16h1M53 16h1M10 17h17M34 17h7M52 17h1M10 18h29M51 18h1M9 19h30M51 19h1M9 20h30M50 20h1M9 21h31M49 21h1M8 22h32M48 22h1M8 23h32M45 23h4M8 24h33M43 24h2M47 24h2M9 25h9M19 25h24M47 25h2M9 26h10M20 26h19M42 26h1M47 26h2M9 27h11M22 27h15M39 27h1M42 27h1M47 27h4M10 28h12M25 28h5M33 28h2M39 28h1M42 28h1M47 28h2M52 28h1M10 29h14M26 29h1M29 29h1M38 29h1M47 29h2M53 29h2M10 30h14M26 30h1M30 30h1M37 30h1M41 30h1M46 30h3M53 30h1M11 31h14M27 31h1M32 31h4M46 31h2M49 31h1M52 31h1M55 31h1M11 32h15M27 32h1M40 32h1M45 32h3M50 32h2M55 32h1M12 33h14M28 33h1M39 33h1M45 33h3M55 33h1M12 34h15M29 34h2M37 34h2M44 34h4M13 35h14M32 35h5M43 35h6M54 35h1M13 36h15M42 36h8M53 36h1M14 37h14M40 37h12M14 38h15M38 38h12M14 39h36M14 40h35M14 41h12M38 41h11M13 42h13M39 42h9M13 43h12M39 43h8M12 44h12M39 44h7M12 45h11M37 45h9M11 46h11M37 46h9M10 47h10M38 47h9M9 48h10M40 48h8M8 49h11M41 49h7M7 50h12M43 50h4M6 51h12M5 52h12M5 53h11M6 54h7" />
<path stroke="#94a5de" d="M16 5h2M26 5h1M17 6h1M21 6h1M40 6h1M21 7h2M40 7h2M15 8h1M21 8h3M29 8h1M36 8h1M40 8h3M52 8h1M22 9h3M36 9h1M42 9h1M52 9h1M22 10h3M37 10h1M39 10h1M52 10h1M18 11h1M22 11h2M31 11h1M34 11h1M38 11h3M52 11h2M20 12h2M51 12h2M45 13h2M51 13h1M32 14h5M45 14h4M51 14h1M30 15h1M37 15h2M46 15h4M38 16h2M46 16h5M9 17h1M28 17h1M45 17h6M44 18h7M42 19h8M8 20h1M40 20h9M40 21h8M40 22h6M46 25h1M8 26h1M46 28h1M9 29h1M24 29h2M27 29h2M52 29h1M25 30h1M27 30h3M45 30h1M50 30h3M26 31h1M28 31h3M43 31h1M50 31h2M54 31h1M10 32h1M26 32h1M28 32h7M42 32h3M48 32h2M52 32h3M27 33h1M29 33h8M42 33h2M48 33h7M11 34h1M27 34h2M31 34h6M41 34h3M48 34h7M28 35h3M38 35h1M40 35h2M49 35h5M12 36h1M28 36h13M50 36h3M30 37h9M13 38h1M31 38h6M27 41h1M36 41h1M26 42h1M21 47h1M19 49h1" />
</svg>