<svg xmlns="http://www.w3.org/2000/svg" viewBox="0 -0.5 24 24" shape-rendering="crispEdges">
<metadata>Made with Pixels to Svg https://codepen.io/shshaw/pen/XbxvNj</metadata>
<path stroke="#424242" d="M6 1h5M4 2h2M11 2h2M3 3h1M3 4h1M13 4h1" />
<path stroke="#f77b7b" d="M6 2h4M7 3h4M4 4h1M7 4h5M4 5h8M4 6h8M5 7h6M7 8h2M7 14h3" />
<path stroke="#ef4a4a" d="M10 2h1M4 3h1M11 3h2M12 4h1M3 5h1M12 5h2M3 6h1M12 6h2M3 7h2M11 7h3M3 8h4M9 8h5M3 9h11M4 10h9M5 11h7M6 12h5M8 13h1" />
<path stroke="#f7adad" d="M5 3h2M5 4h2" />
<path stroke="#313131" d="M13 3h1M2 5h1M14 5h1M2 6h1M14 6h1M2 7h1M14 7h1M2 8h1M14 8h1M2 9h1M14 9h1M3 10h1M13 10h1M3 11h1M13 11h1M4 12h2M11 12h2M6 13h1M10 13h1M6 14h1M10 14h1M7 15h3M8 16h1M8 17h1M14 17h3M9 18h1M13 18h1M17 18h1M10 19h3M18 19h1M18 20h1M17 21h1M19 21h1M17 22h3" />
<path stroke="#a53131" d="M4 11h1M12 11h1M7 13h1M9 13h1" />
<path stroke="#cece9c" d="M18 21h1" />
</svg>