<svg xmlns="http://www.w3.org/2000/svg" viewBox="0 -0.5 24 24" shape-rendering="crispEdges">
<metadata>Made with Pixels to Svg https://codepen.io/shshaw/pen/XbxvNj</metadata>
<path stroke="#303030" d="M8 3h4M7 4h1M12 4h2M7 5h1M15 5h2M6 6h1M17 6h1M5 7h1M18 7h1M4 8h2M18 8h1M4 9h1M19 9h1M3 10h1M19 10h1M3 11h1M19 11h1M3 12h1M19 12h1M3 13h1M19 13h1M4 14h1M19 14h1M4 15h1M19 15h1M5 16h1M19 16h1M6 17h2M18 17h1M8 18h1M18 18h1M9 19h2M16 19h2M11 20h6" />
<path stroke="#e8e878" d="M8 4h2M12 5h2" />
<path stroke="#c8c860" d="M10 4h2M13 6h2M14 7h1" />
<path stroke="#384880" d="M8 5h4M12 6h1M13 7h1M13 8h1M13 9h1M14 10h1M14 11h1M14 12h1M14 13h1M14 14h1M15 15h1M15 16h1M16 17h1M16 18h1M15 19h1" />
<path stroke="#786018" d="M14 5h1M15 6h1M15 7h1M14 8h1M14 9h1" />
<path stroke="#90a8e0" d="M7 6h2M11 6h1M6 7h1M10 7h2M10 8h2M5 9h1M9 9h3M5 10h2M9 10h3M5 11h5M11 11h1M6 12h1M8 12h1M10 12h1M5 13h1M7 13h1M9 13h1" />
<path stroke="#c0d0e8" d="M9 6h2M7 7h3M6 8h4M6 9h3M7 10h2" />
<path stroke="#b8d868" d="M16 6h1M16 7h1M16 8h2M16 9h2M16 10h1" />
<path stroke="#6880b8" d="M12 7h1M12 8h1M12 9h1M4 10h1M12 10h2M4 11h1M10 11h1M12 11h2M4 12h2M7 12h1M9 12h1M11 12h3M4 13h1M6 13h1M8 13h1M10 13h4M5 14h9M5 15h9M6 16h4M11 16h1M10 17h1M12 17h1" />
<path stroke="#88b048" d="M17 7h1M15 8h1M15 9h1M18 9h1M17 10h1M16 11h2M16 12h2M17 13h1" />
<path stroke="#588020" d="M15 10h1M15 11h1M15 12h1M16 13h1M16 14h1M16 15h1M16 16h1M17 18h1" />
<path stroke="#709830" d="M18 10h1M18 11h1M18 12h1M15 13h1M18 13h1M15 14h1M17 14h2M17 15h2M17 16h2M17 17h1" />
<path stroke="#5068a0" d="M14 15h1M10 16h1M12 16h3M8 17h2M11 17h1M13 17h3M9 18h7M11 19h4" />
</svg>