<svg xmlns="http://www.w3.org/2000/svg" viewBox="0 -0.5 24 24" shape-rendering="crispEdges">
<metadata>Made with Pixels to Svg https://codepen.io/shshaw/pen/XbxvNj</metadata>
<path stroke="#303030" d="M11 2h5M9 3h2M15 3h3M7 4h2M15 4h1M18 4h1M6 5h1M15 5h1M19 5h1M5 6h1M15 6h1M19 6h1M4 7h1M13 7h2M20 7h1M4 8h1M20 8h1M3 9h1M20 9h1M3 10h1M21 10h1M2 11h1M21 11h1M2 12h1M21 12h1M2 13h1M21 13h1M2 14h1M21 14h1M2 15h1M21 15h1M3 16h1M21 16h1M3 17h1M20 17h1M4 18h1M20 18h1M5 19h1M18 19h2M6 20h2M16 20h2M8 21h8" />
<path stroke="#f0e050" d="M11 3h2M14 3h1M9 4h1M16 4h1M7 5h1M16 5h1M6 6h2M16 6h1M5 7h2M15 7h3M5 8h2M15 8h5M7 9h1M14 9h1M17 9h3M5 10h1M8 10h1M12 10h2M15 10h2M18 10h2M3 11h2M7 11h3M13 11h1M16 11h1M18 11h1M3 12h6M11 12h1M13 12h2M17 12h2M4 13h5M10 13h2M13 13h5M5 14h5M12 14h5M6 15h9" />
<path stroke="#807040" d="M13 3h1M13 4h1M12 5h1M12 6h1M14 6h1M20 16h1M19 18h1M8 20h1" />
<path stroke="#f8f868" d="M10 4h3M8 5h2M8 6h1M11 6h1M7 7h3M7 8h8M8 9h6M9 10h3" />
<path stroke="#c8b048" d="M14 4h1M17 4h1M13 5h2M13 6h1M12 7h1M20 10h1M20 11h1M19 12h2M20 13h1M3 14h1M18 14h3M3 15h2M16 15h1M19 15h2M6 16h1M13 16h4M19 16h1M6 17h2M9 17h4M16 17h4M5 18h2M10 18h2M13 18h1M16 18h3M6 19h1M8 19h1M10 19h2M15 19h3M11 20h5" />
<path stroke="#b0d8c8" d="M10 5h2M9 6h2M10 7h2" />
<path stroke="#a8c0b0" d="M17 5h2M17 6h2M18 7h2M4 9h3M15 9h2M4 10h1M6 10h2M14 10h1M17 10h1M5 11h2M10 11h3M14 11h2M17 11h1M9 12h2M12 12h1M15 12h2M9 13h1M12 13h1M10 14h2" />
<path stroke="#e0d058" d="M19 11h1M3 13h1M18 13h1M4 14h1M17 14h1M5 15h1M15 15h1M7 16h6" />
<path stroke="#809080" d="M19 13h1M17 15h2M4 16h2M17 16h2M4 17h2M8 17h1M13 17h3M7 18h3M12 18h1M14 18h2M7 19h1M9 19h1M12 19h3M9 20h2" />
</svg>