<svg xmlns="http://www.w3.org/2000/svg" viewBox="0 -0.5 24 24" shape-rendering="crispEdges">
<metadata>Made with Pixels to Svg https://codepen.io/shshaw/pen/XbxvNj</metadata>
<path stroke="#585858" d="M14 1h1M9 3h1M12 8h1M15 8h1M11 9h1M13 9h2M11 10h1M11 11h1M7 12h1M11 12h1M8 13h3" />
<path stroke="#303030" d="M15 1h3M12 2h2M18 2h1M10 3h2M18 3h1M7 4h2M18 4h1M6 5h1M17 5h1M6 6h1M14 6h1M16 6h1M6 7h1M16 7h1M6 8h1M17 8h1M6 9h1M18 9h1M6 10h1M18 10h1M6 11h1M18 11h1M6 12h1M18 12h1M6 13h1M18 13h1M6 14h1M18 14h1M6 15h1M18 15h1M6 16h1M18 16h1M6 17h1M18 17h1M6 18h1M18 18h1M6 19h1M17 19h1M7 20h1M15 20h2M8 21h7" />
<path stroke="#f8f8f8" d="M14 2h4M12 3h4M9 4h5M7 5h5M9 6h1" />
<path stroke="#c8c8c8" d="M16 3h1M14 4h1M12 5h1M7 6h2M10 6h1M7 7h3M7 8h3M7 9h3M7 10h1M9 10h1M7 11h1M9 11h1M8 12h2" />
<path stroke="#989898" d="M17 3h1M15 4h3M13 5h4M11 6h3M15 6h1M10 7h6M10 8h2M13 8h2M10 9h1M10 10h1M10 11h1M10 12h1" />
<path stroke="#58c0d0" d="M16 8h1M15 9h3M15 10h2M14 11h2M12 12h1M7 13h1M8 14h2M12 17h4M8 18h2M12 18h6M7 19h3M12 19h5M8 20h2M12 20h3" />
<path stroke="#48b0c0" d="M12 9h1M12 10h3M8 11h1M12 11h2" />
<path stroke="#80e8f8" d="M8 10h1M13 12h2M12 13h3M7 14h1M12 14h3M7 15h3M12 15h3M7 16h3M12 16h3M7 17h3M7 18h1" />
<path stroke="#68d0e0" d="M17 10h1M16 11h2M15 12h3M11 13h1M15 13h3M10 14h1M15 14h3M15 15h3M15 16h3M16 17h2" />
<path stroke="#d0f8f8" d="M11 14h1M10 15h2M10 16h2M10 17h2M10 18h2M10 19h2M10 20h2" />
</svg>