<svg xmlns="http://www.w3.org/2000/svg" viewBox="0 -0.5 24 24" shape-rendering="crispEdges">
<metadata>Made with Pixels to Svg https://codepen.io/shshaw/pen/XbxvNj</metadata>
<path stroke="#486880" d="M7 1h2M7 2h1M9 2h2M6 3h1M11 3h2M6 4h1M13 4h2M5 5h1M16 5h2M5 6h1M15 6h1M17 6h1M4 7h1M12 7h7M4 8h1M10 8h1M13 8h1M15 8h1M17 8h1M3 9h1M8 9h12M3 10h1M6 10h1M8 10h1M10 10h1M13 10h1M15 10h1M17 10h1M19 10h1M4 11h17M2 12h1M4 12h1M6 12h1M8 12h1M10 12h1M13 12h1M15 12h1M17 12h1M19 12h1M2 13h20M4 14h1M6 14h1M8 14h1M10 14h1M13 14h1M15 14h1M17 14h1M19 14h1M21 14h1M3 15h17M4 16h1M6 16h1M8 16h1M10 16h1M13 16h1M15 16h1M17 16h1M4 17h12M6 18h1M8 18h1M10 18h1M13 18h1M5 19h7M6 20h1M8 20h1M6 21h2" />
<path stroke="#80a0b8" d="M8 2h1M7 3h1M9 3h2M7 4h1M11 4h2M6 5h1M13 5h1M6 6h1M14 6h1M16 6h1M5 7h1M5 8h1M16 8h1M18 8h1M4 9h1M7 10h1M18 10h1M3 12h1M5 12h1M18 12h1M20 12h1M3 14h1M5 14h1M18 14h1M20 14h1M5 16h1M16 16h1M5 18h1M7 18h1M7 20h1M9 20h1" />
<path stroke="#a8c8e0" d="M8 3h1M8 4h3M7 5h6M7 6h5M6 7h4M6 8h2M5 9h1" />
<path stroke="#303030" d="M16 4h2M14 5h2M18 5h1M12 6h2M18 6h1M10 7h2M19 7h1M8 8h2M19 8h1M6 9h2M20 9h1M4 10h2M20 10h1M2 11h2M21 11h1M1 12h1M21 12h1M1 13h1M22 13h1M2 14h1M22 14h1M2 15h1M20 15h2M3 16h1M18 16h2M3 17h1M16 17h2M4 18h1M14 18h2M4 19h1M12 19h2M5 20h1M10 20h2M5 21h1M8 21h2M6 22h2" />
<path stroke="#e89858" d="M11 8h2M14 8h1M9 10h1M14 10h1M16 10h1M7 12h1M16 12h1M7 14h1M16 14h1M7 16h1M9 16h1M14 16h1M9 18h1M11 18h2" />
<path stroke="#e06050" d="M11 10h2M9 12h1M14 12h1M9 14h1M14 14h1M11 16h2" />
<path stroke="#f0d078" d="M11 12h2M11 14h2" />
</svg>