<svg xmlns="http://www.w3.org/2000/svg" viewBox="0 -0.5 24 24" shape-rendering="crispEdges">
<metadata>Made with Pixels to Svg https://codepen.io/shshaw/pen/XbxvNj</metadata>
<path stroke="#303030" d="M16 2h2M15 3h1M18 3h1M8 4h4M13 4h3M18 4h1M7 5h1M15 5h1M18 5h1M5 6h3M14 6h1M17 6h2M4 7h1M11 7h1M16 7h2M19 7h1M3 8h1M10 8h1M16 8h1M20 8h1M3 9h1M10 9h1M16 9h1M20 9h1M3 10h1M11 10h1M16 10h1M20 10h1M3 11h1M12 11h1M15 11h1M21 11h1M2 12h1M21 12h1M2 13h1M21 13h1M2 14h1M20 14h1M2 15h1M20 15h1M3 16h1M21 16h1M3 17h1M21 17h1M4 18h1M21 18h1M4 19h1M17 19h1M20 19h1M4 20h1M16 20h4M5 21h5M13 21h3M10 22h3" />
<path stroke="#78c840" d="M16 3h2M16 4h2M13 7h1M11 8h3M11 9h2" />
<path stroke="#384078" d="M8 5h1M12 5h1M12 6h2M8 7h1M8 8h2M8 9h2M8 10h3M17 10h1M19 10h1M4 11h1M7 11h1M11 11h1M18 11h2M5 12h2M12 12h3M19 12h1M13 13h2M19 13h1M13 14h3M6 15h1M13 15h3M6 16h2M12 16h2M4 17h5M11 17h2M8 18h5M17 18h1M20 18h1M9 19h1M13 19h1M16 19h1M18 19h2M5 20h1M8 20h2M13 20h3M10 21h1" />
<path stroke="#b070e8" d="M9 5h2M9 6h2M4 8h1M7 8h1M5 9h2M4 12h1M10 12h1M16 12h1M5 13h1M7 13h1M10 13h2M5 14h1M7 14h5M3 15h2M8 15h3M18 16h1M14 17h1M5 19h1" />
<path stroke="#8058c8" d="M11 5h1M13 5h2M8 6h1M11 6h1M9 7h2M18 7h1M17 8h3M17 9h3M18 10h1M16 11h2M20 11h1M15 12h1M17 12h2M20 12h1M15 13h4M20 13h1M16 14h2" />
<path stroke="#409840" d="M16 5h2M15 6h2M12 7h1M15 7h1M13 9h3M12 10h3" />
<path stroke="#e090f8" d="M5 7h2M5 8h2M8 12h2M3 13h2M8 13h2M3 14h2" />
<path stroke="#7050b8" d="M7 7h1M4 9h1M7 9h1M4 10h4M5 11h2M8 11h3M3 12h1M7 12h1M11 12h1M6 13h1M12 13h1M6 14h1M12 14h1M5 15h1M7 15h1M11 15h2M18 15h2M4 16h2M8 16h4M14 16h2M17 16h1M19 16h2M9 17h2M13 17h1M15 17h1M17 17h4M5 18h3M13 18h4M18 18h2M6 19h3M10 19h3M14 19h2M6 20h2M10 20h3M11 21h2" />
<path stroke="#407040" d="M14 7h1M14 8h2M15 10h1M13 11h2" />
<path stroke="#384060" d="M18 14h2M16 15h2M16 16h1M16 17h1" />
</svg>