<svg xmlns="http://www.w3.org/2000/svg" viewBox="0 -0.5 24 24" shape-rendering="crispEdges">
<metadata>Made with Pixels to Svg https://codepen.io/shshaw/pen/XbxvNj</metadata>
<path stroke="#525252" d="M7 1h2M7 2h1M9 2h2M6 3h1M11 3h2M6 4h1M13 4h2M5 5h1M5 6h1M4 7h1M4 8h1M3 9h1M3 10h1" />
<path stroke="#cec5ff" d="M8 2h1M8 3h2M7 4h1M10 4h2M7 5h1M12 5h2M6 6h1M6 7h1M17 7h1M5 8h1M15 8h3M5 9h1M13 9h6M11 10h6M9 11h6M17 11h2M7 12h6M15 12h2M5 13h6M13 13h2M4 14h5M11 14h2M15 14h2M4 15h3M9 15h2M13 15h5M7 16h2M11 16h7M5 17h2M9 17h7M10 18h4M10 19h2" />
<path stroke="#948cf7" d="M7 3h1M10 3h1M8 4h2M12 4h1M6 5h1M8 5h4M17 5h1M7 6h5M17 6h1M5 7h1M7 7h3M16 7h1M18 7h1M6 8h2M14 8h1M18 8h1M4 9h1M12 9h1M19 9h1M10 10h1M17 10h3M8 11h1M15 11h2M19 11h2M2 12h1M6 12h1M13 12h2M17 12h4M2 13h1M4 13h1M11 13h2M15 13h7M3 14h1M9 14h2M13 14h2M17 14h3M3 15h1M7 15h2M11 15h2M4 16h3M9 16h2M4 17h1M7 17h2M5 18h5M5 19h5M6 20h2" />
<path stroke="#313131" d="M16 4h2M14 5h2M18 5h1M12 6h2M18 6h1M10 7h2M19 7h1M8 8h2M19 8h1M6 9h2M20 9h1M4 10h2M20 10h1M2 11h2M21 11h1M1 12h1M21 12h1M1 13h1M22 13h1M2 14h1M22 14h1M2 15h1M20 15h2M3 16h1M18 16h2M3 17h1M16 17h2M4 18h1M14 18h2M4 19h1M12 19h2M5 20h1M10 20h2M5 21h1M8 21h2M6 22h2" />
<path stroke="#efe6ff" d="M16 5h1M14 6h3M12 7h4M10 8h4M8 9h4M6 10h4M4 11h4M3 12h3M3 13h1" />
<path stroke="#5a52ef" d="M20 14h2M18 15h2M8 20h2M6 21h2" />
</svg>