<svg xmlns="http://www.w3.org/2000/svg" viewBox="0 -0.5 24 24" shape-rendering="crispEdges">
<metadata>Made with Pixels to Svg https://codepen.io/shshaw/pen/XbxvNj</metadata>
<path stroke="#525252" d="M7 1h2M7 2h1M9 2h2M6 3h1M11 3h2M6 4h1M13 4h2M5 5h1M5 6h1M4 7h1M4 8h1M3 9h1M3 10h1" />
<path stroke="#a5efff" d="M8 2h1M7 3h1M9 3h2M7 4h1M11 4h2M6 5h1M13 5h1M6 6h1M16 6h2M5 7h1M14 7h2M5 8h1M12 8h2M4 9h1M10 9h2M8 10h2M6 11h2M17 11h1M4 12h2M18 12h2M2 13h2M15 13h1M15 14h1M20 14h2M9 15h1M15 15h1M18 15h2M10 16h2M16 16h2M7 17h1M14 17h2M7 18h1M12 18h2M7 19h1M10 19h2M8 20h1M6 21h2" />
<path stroke="#19def7" d="M8 3h1M8 4h3M7 5h6M16 5h2M7 6h5M14 6h2M6 7h4M12 7h2M16 7h3M6 8h2M10 8h2M14 8h5M5 9h1M8 9h2M12 9h8M6 10h2M10 10h10M4 11h2M8 11h8M18 11h3M2 12h2M6 12h10M17 12h1M20 12h1M4 13h11M16 13h1M18 13h2M3 14h12M16 14h1M3 15h5M10 15h5M4 16h4M9 16h1M12 16h2M4 17h3M8 17h1M10 17h2M5 18h2M8 18h1M5 19h2" />
<path stroke="#313131" d="M16 4h2M14 5h2M18 5h1M12 6h2M18 6h1M10 7h2M19 7h1M8 8h2M19 8h1M6 9h2M20 9h1M4 10h2M20 10h1M2 11h2M21 11h1M1 12h1M21 12h1M1 13h1M22 13h1M2 14h1M22 14h1M2 15h1M20 15h2M3 16h1M18 16h2M3 17h1M16 17h2M4 18h1M14 18h2M4 19h1M12 19h2M5 20h1M10 20h2M5 21h1M8 21h2M6 22h2" />
<path stroke="#e6ffff" d="M16 11h1M16 12h1M17 13h1M20 13h2M17 14h3M8 15h1M16 15h2M8 16h1M14 16h2M9 17h1M12 17h2M9 18h3M8 19h2M6 20h2" />
</svg>