<svg xmlns="http://www.w3.org/2000/svg" viewBox="0 -0.5 24 24" shape-rendering="crispEdges">
<metadata>Made with Pixels to Svg https://codepen.io/shshaw/pen/XbxvNj</metadata>
<path stroke="#40a0b0" d="M7 1h2M7 2h1M9 2h2M6 3h1M11 3h2M6 4h1M13 4h2M5 5h1M5 6h1M4 7h1M4 8h1M3 9h1M3 10h1" />
<path stroke="#90c8e8" d="M8 2h1M7 3h1M9 3h2M7 4h1M11 4h2M6 5h1M13 5h1M6 6h1M5 7h1M15 7h1M5 8h1M4 9h1M12 9h1M11 10h1M13 10h1M8 11h1M12 11h1M15 12h1M7 13h2M19 13h3M6 14h1M9 14h1M17 14h5M6 15h1M9 15h1M15 15h5M7 16h2M13 16h5M11 17h5M9 18h5M7 19h5M6 20h4M6 21h2" />
<path stroke="#b8e0f0" d="M8 3h1M8 4h3M7 5h6M7 6h5M6 7h4M6 8h2M5 9h1" />
<path stroke="#303030" d="M16 4h2M14 5h2M18 5h1M12 6h2M18 6h1M10 7h2M19 7h1M8 8h2M19 8h1M6 9h2M20 9h1M4 10h2M20 10h1M2 11h2M21 11h1M1 12h1M21 12h1M1 13h1M22 13h1M2 14h1M22 14h1M2 15h1M20 15h2M3 16h1M18 16h2M3 17h1M16 17h2M4 18h1M14 18h2M4 19h1M12 19h2M5 20h1M10 20h2M5 21h1M8 21h2M6 22h2" />
<path stroke="#28b0e8" d="M16 5h2M14 6h4M12 7h3M16 7h3M10 8h9M8 9h4M13 9h7M6 10h5M12 10h1M14 10h6M4 11h4M9 11h3M13 11h6M2 12h13M16 12h1M2 13h5M9 13h6M3 14h3M7 14h2M10 14h3M3 15h3M7 15h2M10 15h1M4 16h3M4 17h3" />
<path stroke="#68c0e0" d="M19 11h2M17 12h4M15 13h4M13 14h4M11 15h4M9 16h4M7 17h4M5 18h4M5 19h2" />
</svg>