<svg xmlns="http://www.w3.org/2000/svg" viewBox="0 -0.5 24 24" shape-rendering="crispEdges">
<metadata>Made with Pixels to Svg https://codepen.io/shshaw/pen/XbxvNj</metadata>
<path stroke="#303030" d="M13 3h7M10 4h3M20 4h1M8 5h2M20 5h1M7 6h1M20 6h1M6 7h1M20 7h1M5 8h1M20 8h1M4 9h1M20 9h1M4 10h1M20 10h1M3 11h1M19 11h1M3 12h1M19 12h1M3 13h1M19 13h1M2 14h1M18 14h1M2 15h1M18 15h1M2 16h1M17 16h1M2 17h1M16 17h1M2 18h1M15 18h1M2 19h1M13 19h2M2 20h1M10 20h3M3 21h7" />
<path stroke="#305878" d="M13 4h1M19 4h1M10 5h1M8 6h1M5 9h1M19 10h1M4 11h1M18 13h1M3 14h1M17 15h1M14 18h1M12 19h1M3 20h1M9 20h1" />
<path stroke="#3070a8" d="M14 4h5M11 5h3M18 5h2M9 6h2M17 6h3M7 7h2M19 7h1M6 8h2M19 8h1M6 9h1M19 9h1M5 10h1M5 11h1M18 11h1M4 12h1M9 12h1M18 12h1M4 13h1M8 13h3M17 13h1M4 14h1M7 14h5M17 14h1M3 15h1M6 15h5M16 15h1M3 16h1M6 16h4M15 16h2M3 17h1M5 17h3M14 17h2M3 18h4M12 18h2M3 19h3M9 19h3M4 20h5" />
<path stroke="#28c8d8" d="M14 5h4M11 6h2M9 7h2M18 7h1M8 8h2M18 8h1M7 9h2M18 9h1M6 10h3M18 10h1M6 11h3M5 12h4M17 12h1M5 13h3M16 13h1M5 14h2M12 14h1M15 14h2M4 15h2M11 15h5M4 16h2M10 16h5M4 17h1M8 17h6M7 18h5M6 19h3" />
<path stroke="#80f0f8" d="M13 6h3M11 7h4M10 8h3M17 8h1M9 9h3M16 9h2M9 10h2M16 10h2M9 11h1M15 11h3M14 12h3M13 13h3M13 14h2" />
<path stroke="#50a0d0" d="M16 6h1M15 7h3M13 8h4M12 9h1M15 9h1M11 10h1M15 10h1M10 11h2M14 11h1M10 12h4M11 13h2" />
<path stroke="#70b8e8" d="M13 9h2M12 10h3M12 11h2" />
</svg>