<svg xmlns="http://www.w3.org/2000/svg" viewBox="0 -0.5 24 24" shape-rendering="crispEdges">
<metadata>Made with Pixels to Svg https://codepen.io/shshaw/pen/XbxvNj</metadata>
<path stroke="#303030" d="M14 2h3M11 3h10M10 4h1M21 4h1M10 5h1M22 5h1M10 6h1M22 6h1M9 7h1M22 7h1M9 8h1M21 8h1M9 9h1M21 9h1M8 10h1M21 10h1M8 11h1M20 11h1M8 12h11M20 12h1M6 13h2M17 13h3M4 14h2M17 14h1M2 15h2M17 15h1M1 16h1M17 16h1M1 17h1M17 17h1M19 17h3M1 18h1M15 18h2M18 18h1M21 18h1M1 19h1M13 19h2M20 19h1M1 20h1M11 20h2M17 20h3M2 21h9M16 21h1M19 21h1M18 22h1" />
<path stroke="#404040" d="M17 2h1M20 4h1M20 5h2M20 6h2M19 7h3M19 8h2M19 9h2M18 10h3M18 11h2M19 12h1M15 14h2M13 15h4M11 16h6M10 17h7M7 18h1M11 18h4M5 19h3M11 19h2" />
<path stroke="#781010" d="M11 4h1M12 5h8M12 6h1M11 7h1M11 8h1M11 9h1M10 10h1M10 11h1" />
<path stroke="#a83838" d="M12 4h8M11 5h1M11 6h1M13 6h7M10 7h1M12 7h7M10 8h1M12 8h2M10 9h1M12 9h2M9 10h1M11 10h2M9 11h1M11 11h2" />
<path stroke="#c85858" d="M14 8h5M14 9h5M13 10h5M13 11h5" />
<path stroke="#f8f8f8" d="M8 13h1M11 13h1M14 13h1M6 14h1M9 14h1M12 14h1M4 15h1M7 15h1M10 15h1M2 16h1M5 16h1M8 16h1" />
<path stroke="#e8e878" d="M9 13h1M12 13h1M15 13h1M7 14h1M10 14h1M13 14h1M5 15h1M8 15h1M11 15h1M3 16h1M6 16h1M9 16h1M5 18h1M19 18h2M17 21h2" />
<path stroke="#c0a838" d="M10 13h1M13 13h1M16 13h1M8 14h1M11 14h1M14 14h1M6 15h1M9 15h1M12 15h1M4 16h1M7 16h1M10 16h1M6 18h1M18 19h2M16 22h2" />
<path stroke="#787878" d="M2 17h8M2 18h3M8 18h3M2 19h3M8 19h3M2 20h9" />
</svg>