<svg xmlns="http://www.w3.org/2000/svg" viewBox="0 -0.5 24 24" shape-rendering="crispEdges">
<metadata>Made with Pixels to Svg https://codepen.io/shshaw/pen/XbxvNj</metadata>
<path stroke="#303030" d="M16 4h2M14 5h2M18 5h1M12 6h2M18 6h1M10 7h2M19 7h1M8 8h2M19 8h1M6 9h2M20 9h1M4 10h2M20 10h1M2 11h2M21 11h1M1 12h1M21 12h1M1 13h1M19 13h2M2 14h1M17 14h2M2 15h1M15 15h2M3 16h1M13 16h2M3 17h1M11 17h2M4 18h1M9 18h2M4 19h1M7 19h2M5 20h2" />
<path stroke="#f8f8f8" d="M16 5h2M14 6h4M15 7h4M15 8h4M16 9h4M16 10h4M17 11h4M17 12h4M18 13h1" />
<path stroke="#80e898" d="M12 7h2M10 8h4M8 9h2M13 9h2M6 10h3M14 10h1M4 11h1M8 11h1M15 11h1M2 12h2M15 12h1M2 13h2M15 13h2M3 14h1M15 14h2M3 15h1M10 16h1M10 17h1M5 18h1M5 19h2" />
<path stroke="#d0d8d8" d="M14 7h1M10 9h3M15 9h1M13 10h1M5 11h3M14 11h1M16 11h1M8 12h1M14 12h1M14 13h1M17 13h1M14 14h1M13 15h2M9 16h1M11 16h2M8 17h2M6 18h3" />
<path stroke="#98a0a0" d="M14 8h1M15 10h1M16 12h1" />
<path stroke="#90b8f0" d="M9 10h3M9 14h1M9 15h1" />
<path stroke="#5890e8" d="M12 10h1M13 11h1M13 12h1M13 13h1M13 14h1M10 15h3" />
<path stroke="#505858" d="M9 11h4M9 12h3M4 13h4M9 13h3M4 14h3M12 14h1M4 15h3M7 16h1" />
<path stroke="#f09090" d="M4 12h3M12 12h1M12 13h1M7 14h1M7 15h1M4 16h1M4 17h1" />
<path stroke="#d85858" d="M7 12h1M8 13h1M8 14h1M10 14h2M8 15h1M5 16h2M8 16h1M5 17h3" />
</svg>