<svg xmlns="http://www.w3.org/2000/svg" viewBox="0 -0.5 24 24" shape-rendering="crispEdges">
<metadata>Made with Pixels to Svg https://codepen.io/shshaw/pen/XbxvNj</metadata>
<path stroke="#303030" d="M15 2h4M13 3h2M19 3h1M12 4h1M20 4h1M7 5h7M16 5h3M20 5h1M5 6h2M14 6h2M18 6h1M21 6h1M4 7h1M16 7h1M19 7h1M21 7h1M3 8h1M17 8h1M20 8h1M3 9h1M18 9h1M2 10h1M18 10h1M2 11h1M19 11h1M2 12h1M19 12h1M2 13h1M19 13h1M2 14h1M19 14h1M2 15h1M19 15h1M2 16h1M18 16h1M3 17h1M18 17h1M3 18h1M17 18h1M4 19h1M15 19h2M5 20h2M13 20h2M7 21h6" />
<path stroke="#f0d068" d="M15 3h4M13 4h4" />
<path stroke="#a08030" d="M17 4h3M14 5h2M19 5h1M19 6h2M20 7h1" />
<path stroke="#f0a870" d="M7 6h1M11 6h2M6 7h2M11 7h2M12 8h1M14 8h2M13 9h2M13 10h1M13 11h1M16 11h1M4 12h1M13 12h4M4 13h5M13 13h3M5 14h1M7 14h2M12 14h3M8 15h2M11 15h2M7 16h1M10 16h1" />
<path stroke="#e85040" d="M8 6h3M8 7h3M13 7h2M5 8h2M13 8h1M4 9h2M15 9h2M4 10h2M14 10h3M4 11h2M14 11h2M5 12h2M12 12h1M9 13h4M16 13h1M6 14h1M9 14h3M5 15h3M10 15h1M8 16h2M11 16h1" />
<path stroke="#c04040" d="M13 6h1M5 7h1M15 7h1M4 8h1M16 8h1M17 9h1M3 10h1M17 12h1M3 13h1M17 13h1M15 14h4M4 15h1M13 15h1M16 15h2M3 16h3M12 16h2M4 17h1M7 17h2M11 17h3M15 17h1M6 18h3M10 18h3M15 18h2M6 19h3M10 19h3M7 20h2M11 20h2" />
<path stroke="#f8c0a0" d="M7 8h1M11 8h1M10 9h1M12 9h1M8 11h1M7 12h2" />
<path stroke="#f87870" d="M8 8h3M6 9h2M11 9h1M6 10h2M10 10h3M6 11h2M9 11h4M9 12h3" />
<path stroke="#f8d8c8" d="M8 9h2M8 10h2" />
<path stroke="#d07830" d="M17 10h1M3 11h1M17 11h2M3 12h1M18 12h1M18 13h1M3 14h2M3 15h1M14 15h2M18 15h1M6 16h1M14 16h4M5 17h2M9 17h2M14 17h1M16 17h2M4 18h2M9 18h1M13 18h2M5 19h1M9 19h1M13 19h2M9 20h2" />
</svg>