<svg xmlns="http://www.w3.org/2000/svg" viewBox="0 -0.5 24 24" shape-rendering="crispEdges">
<metadata>Made with Pixels to Svg https://codepen.io/shshaw/pen/XbxvNj</metadata>
<path stroke="#303030" d="M10 3h6M8 4h2M16 4h2M7 5h1M18 5h1M6 6h1M19 6h1M5 7h1M19 7h1M5 8h1M20 8h1M4 9h1M20 9h1M4 10h1M20 10h1M3 11h1M20 11h1M3 12h1M20 12h1M3 13h1M20 13h1M3 14h1M19 14h1M3 15h1M19 15h1M3 16h1M18 16h1M4 17h1M18 17h1M4 18h1M17 18h1M5 19h1M16 19h1M6 20h2M14 20h2M8 21h6" />
<path stroke="#90f8e8" d="M10 4h6M8 5h3M16 5h2M7 6h1M10 6h2M17 6h2M6 7h1M9 7h1M12 7h1M18 7h1M6 8h1M9 8h1M12 8h1M5 9h1M10 9h2M5 10h1M4 11h1M11 11h2M4 12h1M10 12h4M4 13h1M11 13h2" />
<path stroke="#18f8d8" d="M11 5h1M7 8h1M16 8h1M19 8h1M8 9h2M12 9h1M14 9h2M19 9h1M8 10h8M19 10h1M9 11h2M13 11h2M19 11h1M8 12h2M19 12h1M9 13h2M13 13h1M19 13h1M4 14h1M11 14h2M18 14h1M4 15h1M18 15h1M4 16h1M17 16h1M5 17h1M17 17h1M5 18h1M16 18h1M6 19h2M13 19h3M8 20h6" />
<path stroke="#10c8c0" d="M12 5h4M8 6h2M12 6h5M8 7h1M13 7h4M8 8h1M13 8h3M17 8h1M6 9h2M13 9h1M16 9h1M6 10h2M6 11h3M18 12h1M5 13h1M16 13h1M11 17h1M6 18h1M12 19h1" />
<path stroke="#08d8b0" d="M7 7h1M17 7h1M7 12h1M14 12h4M6 13h3M14 13h2M9 14h2M13 14h2M8 15h8M5 16h1M8 16h2M11 16h2M14 16h2M7 17h1M12 17h1M16 17h1M12 18h1M8 19h1" />
<path stroke="#f8f8f8" d="M10 7h2M10 8h2" />
<path stroke="#18b0a0" d="M18 8h1M17 9h2M16 10h3M5 11h1M15 11h4M5 12h2M17 13h2M5 14h4M15 14h3M5 15h3M16 15h2M6 16h2M10 16h1M13 16h1M16 16h1M6 17h1M8 17h3M13 17h3M7 18h5M13 18h3M9 19h3" />
</svg>