<svg xmlns="http://www.w3.org/2000/svg" viewBox="0 -0.5 24 24" shape-rendering="crispEdges">
<metadata>Made with Pixels to Svg https://codepen.io/shshaw/pen/XbxvNj</metadata>
<path stroke="#b08030" d="M13 2h1M6 7h1M5 8h1M10 8h1M18 8h1M18 9h1M8 10h1M16 10h1M19 10h1M4 11h1M16 11h1M17 12h1M4 13h1M15 13h1M2 14h1M16 14h1M13 15h1M10 16h1M14 16h1M9 17h2M16 17h1M2 18h1M8 18h3M4 19h7M12 19h1M5 20h5M13 20h1" />
<path stroke="#303030" d="M14 2h3M12 3h1M17 3h2M11 4h1M19 4h1M10 5h1M20 5h1M9 6h1M20 6h1M21 7h1M21 8h1M12 9h1M21 9h1M13 10h1M21 10h1M3 11h1M10 11h1M14 11h1M20 11h1M3 12h1M5 12h1M11 12h1M19 12h1M12 13h1M18 13h1M9 14h1M17 14h1M2 15h1M2 16h1M2 17h1M11 18h1M15 18h1M3 19h1M4 20h1M11 20h2M6 21h3" />
<path stroke="#a09090" d="M13 3h4M12 4h1M14 4h2M18 4h1M11 5h1M18 5h2M10 6h1M19 6h1M11 7h1M19 7h2M20 8h1M20 9h1" />
<path stroke="#e8d0b8" d="M13 4h1M12 5h1M11 6h1M20 10h1M19 11h1M18 12h1M17 13h1" />
<path stroke="#f8f8f8" d="M16 4h1M15 5h3M14 6h3M13 7h3M13 8h2" />
<path stroke="#f8e0c8" d="M17 4h1M12 8h1M10 9h1M13 9h1M11 10h1M8 11h1M9 12h1M6 14h2M5 15h3M5 16h2" />
<path stroke="#e0b858" d="M13 5h2M17 6h2M17 7h2M7 8h1M8 9h1M5 10h1M14 10h1M17 10h2M5 11h2M17 11h2M7 12h1M12 12h1M16 12h1M5 13h1M13 13h1M3 14h2M10 14h1M14 14h1M3 15h1M9 15h1M11 15h1M14 15h1M3 16h1M8 16h2M11 16h2M3 17h1M7 17h2M12 17h1M4 18h4" />
<path stroke="#c89030" d="M12 6h2M9 7h1M12 7h1M16 7h1M6 8h1M17 8h1M7 9h1M14 9h1M17 9h1M4 10h1M15 10h1M13 11h1M15 11h1M14 12h1M11 13h1M14 13h1M12 14h1M15 14h1M12 15h1M15 15h1M13 16h1M15 16h1M13 17h1M15 17h1M3 18h1M12 18h2M13 19h1" />
<path stroke="#783808" d="M7 7h2M11 8h1M4 9h3M3 10h1M9 10h1M4 12h1M6 12h1M15 12h1M3 13h1M8 13h1M13 14h1M10 15h1M16 15h1M16 16h1M11 17h1M14 17h1M14 18h1M11 19h1M14 19h1M10 20h1M5 21h1M9 21h1" />
<path stroke="#f8d080" d="M10 7h1M8 8h2M15 8h2M19 8h1M9 9h1M11 9h1M15 9h2M19 9h1M6 10h2M10 10h1M12 10h1M7 11h1M9 11h1M11 11h2M8 12h1M10 12h1M13 12h1M6 13h2M9 13h2M16 13h1M5 14h1M8 14h1M11 14h1M4 15h1M8 15h1M4 16h1M7 16h1M4 17h3" />
</svg>