<svg xmlns="http://www.w3.org/2000/svg" viewBox="0 -0.5 24 24" shape-rendering="crispEdges">
<metadata>Made with Pixels to Svg https://codepen.io/shshaw/pen/XbxvNj</metadata>
<path stroke="#407898" d="M13 5h1M18 5h1M10 6h2M19 6h1M8 7h1M6 8h1M22 8h1M2 12h1M21 13h1M1 14h1M17 17h1M15 18h1M12 19h1" />
<path stroke="#303030" d="M14 5h4M12 6h1M20 6h1M9 7h1M21 7h1M7 8h1M5 9h1M22 9h1M4 10h1M22 10h1M3 11h1M22 11h1M22 12h1M2 13h1M21 14h1M1 15h1M20 15h1M1 16h1M19 16h1M1 17h1M18 17h1M1 18h1M16 18h1M1 19h1M13 19h2M1 20h11" />
<path stroke="#a8e8d8" d="M13 6h4M11 7h2M11 8h2M11 9h2M11 10h3M11 11h10M11 12h10" />
<path stroke="#f0f0a8" d="M17 6h2M16 7h5M17 8h4" />
<path stroke="#a8e8f8" d="M10 7h1M8 8h1M6 9h1M5 10h1M4 11h1M3 12h1M2 14h1M2 15h1M2 16h1M2 17h1M2 18h1M2 19h1" />
<path stroke="#d0e8b8" d="M13 7h3M13 8h4M13 9h8M14 10h7" />
<path stroke="#98d8f8" d="M9 8h1M8 9h2M6 10h1M8 10h2M5 11h2M8 11h2M5 12h2M8 12h2M3 13h1M5 13h2M8 13h12M3 14h1M5 14h2M8 14h11M3 15h1M5 15h2M3 16h1M5 16h11M3 17h1M5 17h9M3 18h1" />
<path stroke="#90d0e8" d="M10 8h1M7 9h1M10 9h1M7 10h1M10 10h1M7 11h1M10 11h1M4 12h1M7 12h1M10 12h1M4 13h1M7 13h1M20 13h1M4 14h1M7 14h1M19 14h1M4 15h1M7 15h12M4 16h1M16 16h1M4 17h1M14 17h1M4 18h8M3 19h1" />
<path stroke="#68a8c8" d="M21 8h1M21 9h1M21 10h1M21 11h1M21 12h1M20 14h1M19 15h1M17 16h2M15 17h2M12 18h3M4 19h8" />
</svg>