<svg xmlns="http://www.w3.org/2000/svg" viewBox="0 -0.5 24 24" shape-rendering="crispEdges">
<metadata>Made with Pixels to Svg https://codepen.io/shshaw/pen/XbxvNj</metadata>
<path stroke="#484848" d="M12 2h1M7 6h1M18 6h1M18 7h2M6 8h1M18 8h4M17 9h4M16 10h2M20 10h1M5 11h1M15 11h2M14 12h2M11 13h5M17 13h2M10 14h8M9 15h7M4 16h1M8 16h4M7 17h2M2 18h1M7 19h1M3 21h1" />
<path stroke="#303030" d="M13 2h4M10 3h2M17 3h1M9 4h1M18 4h1M8 5h1M19 5h1M20 6h1M7 7h1M20 7h1M6 9h1M21 9h1M6 10h1M21 10h1M21 11h1M5 12h1M21 12h1M5 13h1M20 13h1M5 14h1M20 14h1M5 15h1M19 15h1M17 16h2M3 17h1M14 17h3M11 18h3M2 19h1M8 19h3M2 20h1M6 20h2M4 21h2" />
<path stroke="#f0f0e0" d="M12 3h1M10 4h2M14 4h2M9 5h2M15 5h2M9 6h1M15 6h2M9 7h1M15 7h2M14 8h2M13 9h2M11 10h3M9 11h4M8 12h2M8 13h1M7 14h1M6 15h1M5 17h1M3 18h1M5 18h1M3 19h1" />
<path stroke="#e0d8c0" d="M13 3h2M12 4h2M16 4h1M14 5h1M17 5h1M14 6h1M17 6h1M16 8h1M15 9h1M14 10h2M13 11h1M18 11h2M10 12h2M17 12h1M7 13h1M9 13h1M6 14h1M8 14h1M7 15h1M6 16h1M4 17h1M6 18h1M4 19h1M6 19h1M3 20h2" />
<path stroke="#c8b8a0" d="M15 3h2M17 4h1M11 5h1M8 6h1M10 6h1M8 7h1M10 7h1M14 7h1M17 7h1M9 8h2M13 8h1M12 9h1M16 9h1M10 10h1M18 10h2M8 11h1M14 11h1M17 11h1M20 11h1M7 12h1M12 12h1M16 12h1M18 12h2M6 13h1M16 13h1M19 13h1M18 14h1M16 15h2M5 16h1M12 16h2M6 17h1M9 17h2M4 18h1M5 19h1M5 20h1" />
<path stroke="#808080" d="M12 5h2M18 5h1M13 6h1M19 6h1M13 7h1M7 8h1M12 8h1M17 8h1M7 9h1M10 9h2M7 10h3M6 11h2M6 12h1M13 12h1M10 13h1M9 14h1M8 15h1M7 16h1M7 18h1" />
<path stroke="#b0b0b0" d="M11 6h2M11 7h2M8 8h1M11 8h1M8 9h2" />
<path stroke="#b0a088" d="M20 12h1M19 14h1M18 15h1M14 16h3M11 17h3M8 18h3" />
</svg>