<svg xmlns="http://www.w3.org/2000/svg" viewBox="0 -0.5 24 24" shape-rendering="crispEdges">
<metadata>Made with Pixels to Svg https://codepen.io/shshaw/pen/XbxvNj</metadata>
<path stroke="#787820" d="M11 2h1M18 2h1M20 4h1M13 5h1M20 5h1M13 6h2M3 10h1M19 13h1M2 14h1M16 14h3M17 15h2M4 16h1M17 16h1M5 19h1M4 20h3M11 21h1M4 22h1" />
<path stroke="#303030" d="M12 2h6M9 3h2M19 3h2M8 4h1M21 4h1M7 5h1M21 5h1M6 6h1M21 6h1M5 7h1M21 7h1M4 8h1M21 8h1M4 9h1M21 9h1M21 10h1M3 11h1M21 11h1M3 12h1M21 12h1M3 13h1M20 13h1M20 14h1M2 15h1M19 15h1M2 16h1M19 16h1M2 17h1M18 17h1M2 18h1M17 18h1M2 19h1M16 19h1M2 20h1M15 20h1M3 21h1M12 21h3M5 22h6" />
<path stroke="#e0e078" d="M11 3h2M14 3h2M9 4h1M14 4h3M8 5h1M15 5h1M7 6h1M19 6h1M6 7h1M19 7h1M5 8h1M18 8h2M18 9h1M20 9h1M20 10h1M20 11h1M20 12h1M3 15h1M3 16h1M3 17h1" />
<path stroke="#c0c068" d="M13 3h1M10 4h4M19 4h1M11 5h2M14 5h1M16 5h2M19 5h1M12 6h1M15 6h1M20 6h1M18 7h1M20 7h1M17 8h1M20 8h1M17 9h1M19 9h1M19 10h1M19 11h1M18 12h2M17 13h2M16 18h1M15 19h1M11 20h4M9 21h2" />
<path stroke="#f8f8e8" d="M16 3h3M17 4h1M9 5h2M8 6h4M7 7h1M10 7h2M6 8h1M9 8h2M5 9h1M4 10h2M4 11h1M4 12h1M4 13h1M3 14h1M4 17h1M3 18h2M3 19h2M3 20h1" />
<path stroke="#f8f888" d="M18 4h1M15 11h1M14 12h2M14 13h2M14 14h2" />
<path stroke="#f0e830" d="M18 5h1M16 6h3M15 7h3M14 8h3M14 9h3M14 10h4M13 11h2M16 11h2M10 12h4M16 12h1M8 13h5M8 14h3M13 14h1M9 15h2M13 15h1M9 17h1" />
<path stroke="#f8e898" d="M8 7h2M7 8h2M11 8h1M6 9h6M6 10h5M5 11h4M5 12h2M6 16h2M5 17h2M5 18h1" />
<path stroke="#a0a048" d="M12 7h3M18 10h1M18 11h1M17 12h1M16 13h1M4 14h1M19 14h1M4 15h1M15 15h2M18 16h1M16 17h2M14 18h2M12 19h3M9 20h2M4 21h5" />
<path stroke="#f09030" d="M12 8h2M12 9h2M11 10h3M9 11h4M7 12h3M5 13h3M13 13h1M5 14h3M11 14h2M5 15h4M11 15h2M5 16h1M8 16h4M7 17h2" />
<path stroke="#d8c810" d="M14 15h1M13 16h4M10 17h6M8 18h6M8 19h4" />
<path stroke="#d87010" d="M12 16h1M6 18h2M6 19h2M7 20h2" />
</svg>