<svg xmlns="http://www.w3.org/2000/svg" viewBox="0 -0.5 24 24" shape-rendering="crispEdges">
<metadata>Made with Pixels to Svg https://codepen.io/shshaw/pen/XbxvNj</metadata>
<path stroke="#424242" d="M11 5h4M9 6h2M15 6h2M7 7h2M17 7h1M6 8h1M18 8h1M5 9h1M18 9h1M5 10h1M4 11h1M4 12h1" />
<path stroke="#e6e6d6" d="M11 6h1M9 7h2M12 7h1M16 7h1M8 8h2M11 8h1M17 8h1M6 9h2M9 9h2M12 9h1M6 10h6M7 11h1M9 11h3M6 12h1M8 12h1M10 12h1M7 13h1" />
<path stroke="#cecebd" d="M12 6h3M11 7h1M13 7h3M7 8h1M10 8h1M12 8h5M8 9h1M11 9h1M13 9h1M17 9h1M12 10h1M6 11h1M8 11h1M5 12h1M7 12h1M9 12h1M11 12h1M5 13h2M8 13h4M6 14h5" />
<path stroke="#adad9c" d="M14 9h3M13 10h2M16 10h1M5 11h1M12 11h4M17 11h1M12 12h1M14 12h1M16 12h1M18 12h1M12 13h2M15 13h1M5 14h1M11 14h2M7 15h1M9 15h3M13 15h1M8 16h1M10 16h1" />
<path stroke="#9c948c" d="M15 10h1M17 10h1M16 11h1M18 11h1M13 12h1M17 12h1M16 13h1M18 13h1M13 14h3M5 15h1M8 15h1M12 15h1M9 16h1M11 16h2" />
<path stroke="#8c8473" d="M18 10h1M15 12h1M14 13h1M17 13h1M16 14h2M6 15h1M14 15h3M6 16h2M13 16h1" />
<path stroke="#313131" d="M19 10h1M19 11h1M19 12h1M4 13h1M19 13h1M4 14h1M18 14h1M4 15h1M17 15h1M5 16h1M14 16h3M6 17h8" />
</svg>