<svg xmlns="http://www.w3.org/2000/svg" viewBox="0 -0.5 24 24" shape-rendering="crispEdges">
<metadata>Made with Pixels to Svg https://codepen.io/shshaw/pen/XbxvNj</metadata>
<path stroke="#525252" d="M7 1h2M7 2h1M9 2h2M6 3h1M11 3h2M6 4h1M13 4h2M5 5h1M5 6h1M4 7h1M4 8h1M3 9h1M3 10h1" />
<path stroke="#ef73e6" d="M8 2h1M7 3h4M7 4h1M10 4h3M6 5h2M12 5h2M16 5h2M6 6h1M17 6h1M5 7h2M17 7h2M5 8h1M18 8h1M4 9h2M18 9h2M19 10h1M19 11h2M2 12h1M20 12h1M2 13h2M20 13h2M3 14h1M21 14h1M3 15h2M4 16h1M4 17h2M5 18h1M5 19h2M6 20h1M6 21h2" />
<path stroke="#ffffff" d="M8 4h2M8 5h4M7 6h5M14 6h3M7 7h3M12 7h5M6 8h2M10 8h8M8 9h9M6 10h7M14 10h2M18 10h1M4 11h11M17 11h1M3 12h8M12 12h3M16 12h1M4 13h6M13 13h1M16 13h1M4 14h7M12 14h2M15 14h1M5 15h8M15 15h1M5 16h8M14 16h1M6 17h6M14 17h1M6 18h4" />
<path stroke="#313131" d="M16 4h2M14 5h2M18 5h1M12 6h2M18 6h1M10 7h2M19 7h1M8 8h2M19 8h1M6 9h2M20 9h1M4 10h2M20 10h1M2 11h2M21 11h1M1 12h1M21 12h1M1 13h1M22 13h1M2 14h1M22 14h1M2 15h1M20 15h2M3 16h1M18 16h2M3 17h1M16 17h2M4 18h1M14 18h2M4 19h1M12 19h2M5 20h1M10 20h2M5 21h1M8 21h2M6 22h2" />
<path stroke="#ffb5ff" d="M17 9h1M13 10h1M16 10h2M15 11h2M18 11h1M11 12h1M15 12h1M17 12h3M10 13h3M14 13h2M17 13h3M11 14h1M14 14h1M16 14h5M13 15h2M16 15h4M13 16h1M15 16h3M12 17h2M15 17h1M10 18h4M7 19h5M7 20h3" />
</svg>