<svg xmlns="http://www.w3.org/2000/svg" viewBox="0 -0.5 24 24" shape-rendering="crispEdges">
<metadata>Made with Pixels to Svg https://codepen.io/shshaw/pen/XbxvNj</metadata>
<path stroke="#303030" d="M7 1h8M5 2h1M15 2h2M4 3h1M17 3h1M3 4h1M18 4h1M2 5h1M19 5h1M19 6h1M1 7h1M11 7h3M20 7h1M1 8h1M9 8h2M14 8h1M20 8h1M1 9h1M8 9h1M13 9h2M20 9h1M1 10h1M8 10h1M11 10h1M15 10h1M20 10h1M1 11h1M7 11h1M10 11h1M15 11h1M20 11h1M1 12h1M7 12h1M13 12h3M20 12h2M2 13h1M7 13h1M9 13h1M13 13h1M15 13h1M20 13h1M2 14h1M6 14h1M9 14h1M13 14h2M20 14h1M22 14h1M3 15h1M6 15h1M9 15h1M19 15h1M22 15h1M4 16h1M6 16h1M10 16h1M19 16h1M22 16h1M5 17h2M11 17h2M18 17h1M22 17h1M13 18h5M21 18h1M17 19h1M21 19h1M16 20h1M20 20h1M15 21h1M18 21h2M15 22h3" />
<path stroke="#585858" d="M6 2h1M2 6h1M12 9h1M9 12h1M22 13h1M18 18h1" />
<path stroke="#f8f8f8" d="M7 2h4M6 3h3M4 4h4M4 5h3M3 6h3M2 7h3M2 8h3M2 9h3M2 10h3M2 11h3M3 12h2M3 13h2M4 14h1" />
<path stroke="#b8d8d8" d="M11 2h1M5 3h1M9 3h1M3 5h1M5 7h1M2 12h1M3 14h1M4 15h1" />
<path stroke="#809898" d="M12 2h2M10 3h4M8 4h2M12 4h2M7 5h1M12 5h2M6 6h1M11 6h3M6 7h1M10 7h1M5 8h1M5 9h1M5 10h1M7 10h1M5 11h1M5 12h1M5 13h2M5 14h1" />
<path stroke="#486050" d="M14 2h1M16 3h1M18 5h1M19 7h1M12 10h3M11 11h4M12 12h1M12 13h1M21 13h1M19 14h1M21 14h1M21 15h1M18 16h1M21 16h1M13 17h1M17 17h1M20 17h2M20 18h1M20 19h1M19 20h1" />
<path stroke="#507060" d="M14 3h2M14 4h4M14 5h4M14 6h5M15 7h4M16 8h4M16 9h4M17 10h3M17 11h3M11 12h1M17 12h3M11 13h1M17 13h3M12 14h1M17 14h2M10 15h1M16 15h3M11 16h1M15 16h3M14 17h3M19 19h1" />
<path stroke="#90a8a8" d="M10 4h2M8 5h4M7 6h4M7 7h3M6 8h3M6 9h2M6 10h1M6 11h1M6 12h1M5 15h1M5 16h1" />
<path stroke="#709078" d="M14 7h1M15 8h1M15 9h1M10 12h1M10 13h1M10 14h2M11 15h1M20 15h1M20 16h1M19 17h1M19 18h1M18 19h1M18 20h1M17 21h1" />
<path stroke="#88a090" d="M16 10h1M16 11h1M16 12h1M16 13h1M15 14h2M12 15h4M12 16h3M17 20h1M16 21h1" />
</svg>