<svg xmlns="http://www.w3.org/2000/svg" viewBox="0 -0.5 24 24" shape-rendering="crispEdges">
<metadata>Made with Pixels to Svg https://codepen.io/shshaw/pen/XbxvNj</metadata>
<path stroke="#313131" d="M9 3h2M8 4h1M11 4h2M7 5h1M13 5h2M7 6h1M15 6h2M6 7h1M17 7h2M6 8h1M19 8h1M5 9h1M20 9h1M5 10h1M20 10h1M4 11h1M19 11h1M4 12h1M19 12h1M3 13h1M18 13h1M3 14h1M18 14h1M3 15h2M17 15h1M3 16h1M17 16h1M4 17h3M16 17h1M7 18h3M16 18h1M10 19h2M15 19h1M12 20h3" />
<path stroke="#e6bd7b" d="M9 4h1M10 5h2M8 6h1M10 6h4M7 7h1M9 7h4M7 8h1M9 8h2M6 9h1M8 9h4M6 10h1M9 10h3M9 12h2M9 13h2M14 14h3M14 15h2M13 16h1" />
<path stroke="#ef8c52" d="M10 4h1M9 5h1M9 6h1M8 7h1M8 8h1M7 9h1M7 10h1M6 11h1M6 12h1M5 13h1M5 14h2M7 15h2M9 16h2M11 17h2M13 18h2" />
<path stroke="#c59c73" d="M8 5h1M12 5h1M14 6h1" />
<path stroke="#efc594" d="M13 7h2M11 8h3M12 9h3M8 10h1M12 10h3M5 11h1M10 11h3M8 12h1M8 13h1M16 13h1M13 14h1M13 15h1M12 16h1" />
<path stroke="#f7d694" d="M15 7h1M14 8h4M15 9h4M15 10h4M7 11h3M13 11h5M5 12h1M7 12h1M11 12h7M4 13h1M6 13h2M11 13h5M4 14h1M7 14h6M5 15h2M9 15h4M7 16h2M11 16h1M14 16h2M9 17h2M13 17h2M11 18h2M13 19h1" />
<path stroke="#dead6b" d="M16 7h1M18 8h1M19 9h1M19 10h1M18 11h1M18 12h1M17 13h1M17 14h1M16 15h1M16 16h1M15 17h1M14 19h1" />
<path stroke="#ad844a" d="M4 16h3M7 17h2M10 18h1M12 19h1" />
<path stroke="#c56b42" d="M15 18h1" />
</svg>