<svg xmlns="http://www.w3.org/2000/svg" viewBox="0 -0.5 24 24" shape-rendering="crispEdges">
<metadata>Made with Pixels to Svg https://codepen.io/shshaw/pen/XbxvNj</metadata>
<path stroke="#303030" d="M8 3h7M7 4h1M15 4h1M6 5h1M16 5h1M5 6h1M17 6h1M4 7h1M18 7h1M3 8h1M19 8h1M3 9h1M19 9h1M3 10h1M19 10h1M3 11h1M19 11h1M3 12h1M19 12h1M3 13h1M19 13h1M3 14h1M19 14h1M3 15h1M19 15h1M4 16h1M18 16h1M5 17h1M17 17h1M6 18h1M16 18h1M7 19h1M15 19h1M8 20h7" />
<path stroke="#f8f0f0" d="M8 4h7M9 5h5M10 6h4M11 7h2M12 8h1" />
<path stroke="#e8e0e0" d="M7 5h2M7 6h3M7 7h4M7 8h5M7 9h4M7 10h3M7 11h2M7 12h1" />
<path stroke="#c8c0c8" d="M14 5h1M6 6h1M5 7h2M13 7h1M4 8h3M4 9h3M5 10h2M6 11h1" />
<path stroke="#989090" d="M15 5h1M14 6h3M14 7h4M13 8h6" />
<path stroke="#b0a8a8" d="M11 9h1M10 10h2M9 11h3M8 12h4M8 13h4M9 14h3M10 15h2M11 16h1" />
<path stroke="#787070" d="M12 9h7M4 10h1M12 10h6M4 11h2M12 11h5M4 12h3M12 12h4M4 13h3M12 13h3M4 14h2M12 14h2M4 15h1M12 15h1" />
<path stroke="#605858" d="M18 10h1M17 11h2M16 12h3M7 13h1M15 13h4M6 14h2M14 14h5M5 15h3M13 15h6M5 16h3M6 17h2M7 18h1" />
<path stroke="#504848" d="M8 14h1M8 15h2M8 16h3M12 16h6M8 17h3M13 17h4M8 18h2M14 18h2M8 19h1" />
<path stroke="#484040" d="M11 17h2M10 18h4M9 19h6" />
</svg>