<svg xmlns="http://www.w3.org/2000/svg" viewBox="0 -0.5 24 24" shape-rendering="crispEdges">
<metadata>Made with Pixels to Svg https://codepen.io/shshaw/pen/XbxvNj</metadata>
<path stroke="#303030" d="M10 2h6M8 3h2M17 3h1M7 4h1M18 4h1M5 5h1M19 5h1M3 6h2M19 6h1M2 7h1M20 7h1M2 8h1M20 8h1M2 9h1M20 9h1M2 10h1M21 10h1M2 11h1M21 11h1M2 12h1M21 12h1M2 13h1M21 13h1M2 14h1M21 14h1M3 15h1M21 15h1M3 16h1M19 16h2M4 17h1M18 17h1M4 18h1M18 18h1M5 19h1M16 19h2M6 20h1M15 20h1M7 21h1M11 21h4M8 22h3" />
<path stroke="#c09838" d="M10 3h1M12 3h1M15 3h1M8 4h2M16 4h2M10 5h1M16 5h1M8 7h3M6 8h1M18 8h1M8 9h3M16 9h1M7 10h1M14 10h1M6 11h1M11 11h1M20 11h1M13 12h1M7 13h1M19 13h1" />
<path stroke="#e8d890" d="M11 3h1M7 5h1M16 8h1M15 9h1" />
<path stroke="#785000" d="M13 3h1M16 3h1M6 5h1M11 5h1M15 5h1M18 5h1M13 6h1M16 6h1M5 7h1M11 7h1M14 7h1M16 7h1M19 7h1M5 8h1M14 8h2M19 8h1M11 9h2M6 12h1M15 12h1M19 12h1M3 13h1M18 13h1M4 14h1M19 14h2M5 15h1M20 15h1M6 16h1M15 16h1M17 16h1M6 17h1M17 17h1M5 18h1M7 18h1M14 18h2M17 18h1M6 19h1M9 19h1M12 19h4M10 20h2M13 20h2M8 21h1M10 21h1" />
<path stroke="#d8b868" d="M14 3h1M10 4h3M15 4h1M8 5h2M17 5h1M5 6h1M7 6h4M14 6h2M17 6h1M4 7h1M6 7h2M13 7h1M15 7h1M17 7h2M7 8h4M13 8h1M17 8h1M3 9h1M6 9h2M13 9h2M3 10h1M6 10h1M8 10h4M7 11h4M7 12h2M16 15h1M10 18h1M12 18h1" />
<path stroke="#b89028" d="M13 4h2M12 5h1M11 6h1M18 6h1M4 8h1M11 8h1M4 9h1M4 10h1M19 10h1M4 11h1M18 11h1M3 12h2M17 12h1M4 13h2M16 13h1M5 14h1M16 14h2M6 15h1M14 15h2M18 15h2M5 16h1M7 16h1M12 16h3M18 16h1M5 17h1M7 17h7M15 17h2M8 18h2M11 18h1M16 18h1M7 19h1M7 20h1M9 20h1M12 20h1M9 21h1" />
<path stroke="#684000" d="M13 5h2M12 6h1M12 7h1M12 8h1M13 10h1M18 10h1M12 11h1M14 11h3M9 12h2M8 13h1M11 13h3M20 13h1M9 14h4M18 14h1M8 15h3M17 15h1M16 16h1M14 17h1M13 18h1M8 19h1M10 19h2" />
<path stroke="#403000" d="M6 6h1M5 9h1M19 9h1M5 10h1M5 11h1M13 11h1M14 12h1M6 13h1M14 13h1M7 14h1M7 15h1" />
<path stroke="#a07800" d="M3 7h1M3 8h1M17 9h2M12 10h1M15 10h3M20 10h1M3 11h1M17 11h1M19 11h1M5 12h1M11 12h2M16 12h1M18 12h1M20 12h1M9 13h2M15 13h1M17 13h1M3 14h1M6 14h1M8 14h1M13 14h3M4 15h1M11 15h3M4 16h1M8 16h4M6 18h1M8 20h1" />
</svg>