<svg xmlns="http://www.w3.org/2000/svg" viewBox="0 -0.5 24 24" shape-rendering="crispEdges">
<metadata>Made with Pixels to Svg https://codepen.io/shshaw/pen/XbxvNj</metadata>
<path stroke="#303030" d="M7 2h10M5 3h2M17 3h2M4 4h1M19 4h1M3 5h1M20 5h1M3 6h1M20 6h1M3 7h1M20 7h1M3 8h1M20 8h1M3 9h1M20 9h1M3 10h1M20 10h1M2 11h1M21 11h1M2 12h1M21 12h1M2 13h1M21 13h1M2 14h1M21 14h1M2 15h1M21 15h1M2 16h1M21 16h1M3 18h1M20 18h1M4 19h1M19 19h1M5 20h1M18 20h1M7 21h10" />
<path stroke="#d8f8f8" d="M7 3h10M5 4h5M14 4h5M4 5h4M16 5h4M4 6h4M16 6h4M5 7h5M14 7h5M7 8h10" />
<path stroke="#f8b848" d="M10 4h4M8 5h2M14 5h2M8 6h2M14 6h2M10 7h4M3 13h1M20 13h1M3 14h1M6 14h1M17 14h1M20 14h1M3 15h1M6 15h7M15 15h3M20 15h1M6 16h7M15 16h3M4 17h1M7 17h6M15 17h2M19 17h1M5 18h1M9 18h6M18 18h1M6 19h2M16 19h2M8 20h8" />
<path stroke="#f8f0b8" d="M10 5h4M10 6h4M13 14h2M13 15h2M13 16h2M13 17h2" />
<path stroke="#509898" d="M4 7h1M19 7h1M5 8h2M17 8h3M7 9h10M5 10h1M18 10h1M7 11h1M16 11h1" />
<path stroke="#60b8c0" d="M4 8h1M4 9h3M17 9h3M6 10h12M8 11h8" />
<path stroke="#785020" d="M4 10h1M19 10h1M3 11h1M5 11h2M17 11h2M20 11h1M7 12h10M3 17h1M20 17h1M6 20h1M17 20h1" />
<path stroke="#c87000" d="M4 11h1M19 11h1M6 12h1M17 12h1" />
<path stroke="#e89000" d="M3 12h3M18 12h3M4 13h16M4 14h2M7 14h6M15 14h2M18 14h2M4 15h2M18 15h2M3 16h3M18 16h3M5 17h2M17 17h2M4 18h1M6 18h3M15 18h3M19 18h1M5 19h1M8 19h8M18 19h1M7 20h1M16 20h1" />
</svg>