<svg xmlns="http://www.w3.org/2000/svg" viewBox="0 -0.5 24 24" shape-rendering="crispEdges">
<metadata>Made with Pixels to Svg https://codepen.io/shshaw/pen/XbxvNj</metadata>
<path stroke="#525252" d="M7 1h2M7 2h1M9 2h2M6 3h1M11 3h2M6 4h1M13 4h2M5 5h1M5 6h1M4 7h1M4 8h1M3 9h1M3 10h1" />
<path stroke="#84a5f7" d="M8 2h1M7 3h4M7 4h1M10 4h3M6 5h2M12 5h2M16 5h2M6 6h1M17 6h1M5 7h2M17 7h2M5 8h1M18 8h1M4 9h2M18 9h2M19 10h1M19 11h2M2 12h1M20 12h1M2 13h2M20 13h2M3 14h1M21 14h1M3 15h2M4 16h1M4 17h2M5 18h1M5 19h2M6 20h1M6 21h2" />
<path stroke="#9cdeff" d="M8 4h2M8 5h4M7 6h5M7 7h3M6 8h2M3 12h1M4 13h2M9 13h2M12 13h1M14 13h2M19 13h1M4 14h2M7 14h1M9 14h2M14 14h2M17 14h1M19 14h2M6 16h2M11 16h2M17 16h1M6 17h3M10 17h4M15 17h1M6 18h8M7 19h5M7 20h3" />
<path stroke="#313131" d="M16 4h2M14 5h2M18 5h1M12 6h2M18 6h1M10 7h2M19 7h1M8 8h2M19 8h1M6 9h2M20 9h1M4 10h2M20 10h1M2 11h2M21 11h1M1 12h1M21 12h1M1 13h1M22 13h1M2 14h1M22 14h1M2 15h1M20 15h2M3 16h1M18 16h2M3 17h1M16 17h2M4 18h1M14 18h2M4 19h1M12 19h2M5 20h1M10 20h2M5 21h1M8 21h2M6 22h2" />
<path stroke="#ffffff" d="M14 6h3M12 7h5M10 8h8M8 9h10M6 10h13M4 11h15M4 12h16M6 13h3M11 13h1M13 13h1M16 13h3M6 14h1M8 14h1M11 14h3M16 14h1M18 14h1M5 15h15M5 16h1M8 16h3M13 16h4M9 17h1M14 17h1" />
</svg>