<svg xmlns="http://www.w3.org/2000/svg" viewBox="0 -0.5 24 24" shape-rendering="crispEdges">
<metadata>Made with Pixels to Svg https://codepen.io/shshaw/pen/XbxvNj</metadata>
<path stroke="#303030" d="M19 2h2M14 3h5M20 3h1M12 4h2M20 4h1M11 5h1M18 5h2M11 6h1M17 6h1M10 7h1M16 7h1M10 8h1M14 8h2M10 9h1M13 9h1M16 9h4M10 10h1M12 10h1M14 10h2M20 10h1M6 11h3M10 11h1M12 11h2M21 11h1M4 12h2M9 12h1M12 12h1M22 12h1M3 13h1M8 13h1M13 13h2M19 13h2M22 13h1M2 14h1M8 14h1M11 14h2M15 14h4M21 14h1M2 15h1M9 15h4M1 16h1M12 16h1M1 17h1M12 17h1M1 18h1M12 18h1M1 19h1M11 19h1M2 20h1M11 20h1M3 21h1M9 21h2M4 22h5" />
<path stroke="#409840" d="M19 3h1M17 4h3M15 5h3M13 6h2M12 7h1M11 8h1M11 9h2M14 11h4M13 12h2M11 13h2M16 13h1M21 13h1M9 14h2" />
<path stroke="#58d050" d="M14 4h3M13 5h2M12 6h1M15 6h2M11 7h1M13 7h2M12 8h2M16 10h4M18 11h3M15 12h6M9 13h1M17 13h2" />
<path stroke="#307040" d="M12 5h1M15 7h1M11 10h1M11 11h1M10 12h2M21 12h1M10 13h1M15 13h1" />
<path stroke="#f89030" d="M6 12h3M4 13h1M7 13h1M3 14h2M7 14h1M3 15h6M3 16h5M4 17h3" />
<path stroke="#f8d830" d="M5 13h2M5 14h2" />
<path stroke="#e8e060" d="M2 16h1M2 17h1M2 18h1M3 19h1M7 19h1M3 20h5M5 21h3" />
<path stroke="#e07030" d="M8 16h1M3 17h1M7 17h1" />
<path stroke="#c84830" d="M9 16h3M8 17h4M3 18h9M4 19h3M8 19h3M8 20h2" />
<path stroke="#b0a060" d="M2 19h1M4 21h1M8 21h1" />
<path stroke="#985038" d="M10 20h1" />
</svg>