<svg xmlns="http://www.w3.org/2000/svg" viewBox="0 -0.5 24 24" shape-rendering="crispEdges">
<metadata>Made with Pixels to Svg https://codepen.io/shshaw/pen/XbxvNj</metadata>
<path stroke="#525252" d="M7 1h2M7 2h1M9 2h2M6 3h1M11 3h2M6 4h1M13 4h2M5 5h1M5 6h1M4 7h1M4 8h1M3 9h1M3 10h1" />
<path stroke="#29cec5" d="M8 2h1M7 3h1M10 3h1M8 4h2M12 4h1M6 5h1M8 5h4M7 6h5M16 6h2M5 7h1M7 7h3M14 7h5M6 8h2M12 8h3M16 8h3M4 9h1M11 9h2M14 9h6M8 10h1M12 10h8M6 11h4M11 11h9M4 12h3M8 12h10M20 12h1M2 13h3M6 13h10M18 13h2M3 14h11M16 14h2M3 15h9M14 15h2M4 16h6M12 16h2M4 17h4M10 17h2M5 18h1M8 18h2M6 19h2" />
<path stroke="#7be6d6" d="M8 3h2M7 4h1M10 4h2M7 5h1M12 5h2M16 5h2M6 6h1M14 6h2M6 7h1M12 7h2M5 8h1M10 8h2M5 9h1M8 9h2M6 10h2M4 11h2M20 11h1M2 12h2M18 12h2M16 13h2M20 13h2M14 14h2M18 14h4M12 15h2M16 15h4M10 16h2M14 16h4M8 17h2M12 17h4M6 18h2M10 18h4M5 19h1M8 19h4M6 20h4M6 21h2" />
<path stroke="#313131" d="M16 4h2M14 5h2M18 5h1M12 6h2M18 6h1M10 7h2M19 7h1M8 8h2M19 8h1M6 9h2M20 9h1M4 10h2M20 10h1M2 11h2M21 11h1M1 12h1M21 12h1M1 13h1M22 13h1M2 14h1M22 14h1M2 15h1M20 15h2M3 16h1M18 16h2M3 17h1M16 17h2M4 18h1M14 18h2M4 19h1M12 19h2M5 20h1M10 20h2M5 21h1M8 21h2M6 22h2" />
<path stroke="#ceffe6" d="M15 8h1M10 9h1M13 9h1M9 10h3M10 11h1M7 12h1M5 13h1" />
</svg>