<svg xmlns="http://www.w3.org/2000/svg" viewBox="0 -0.5 24 24" shape-rendering="crispEdges">
<metadata>Made with Pixels to Svg https://codepen.io/shshaw/pen/XbxvNj</metadata>
<path stroke="#485848" d="M11 3h2M15 3h1M9 4h2M16 4h2M11 7h4M20 7h1M10 8h6M9 9h7M9 10h3M19 10h1M9 11h2M18 11h2M9 12h1M17 12h3M16 13h4M16 14h3M5 15h1M16 15h2M5 16h1M16 16h1M12 19h1M12 20h1" />
<path stroke="#303030" d="M13 3h2M8 5h1M18 5h1M7 6h1M19 6h1M6 7h1M5 8h1M20 8h1M4 9h1M20 9h1M12 10h3M20 10h1M3 11h1M11 11h1M13 11h1M20 11h1M3 12h1M10 12h1M12 12h1M20 12h1M3 13h1M9 13h1M11 13h1M20 13h1M3 14h1M8 14h1M19 14h1M4 15h1M7 15h1M10 15h1M18 15h1M6 16h1M10 16h1M17 16h1M10 17h1M16 17h1M10 18h1M15 18h1M11 19h1M14 19h1M13 20h1" />
<path stroke="#a8b8a8" d="M11 4h1M9 5h1M8 6h1M13 6h2M7 7h1M15 7h1M19 7h1M8 8h2M16 8h1M18 8h2M16 9h1M18 9h2M15 10h1M17 10h2M14 11h1M15 12h1" />
<path stroke="#90a090" d="M12 4h4M10 5h8M9 6h4M15 6h4M8 7h3M16 7h3M17 8h1M17 9h1M16 10h1M15 11h3M16 12h1" />
<path stroke="#f89890" d="M6 8h2M5 9h4M4 10h4M6 11h1" />
<path stroke="#703838" d="M3 10h1M8 10h1M7 11h2M7 12h2M7 13h2M7 14h1" />
<path stroke="#a85050" d="M4 11h1M4 12h3M4 13h3M4 14h3M6 15h1" />
<path stroke="#f8b8b8" d="M5 11h1" />
<path stroke="#9098f8" d="M13 12h2M12 13h4M11 14h4M13 15h1" />
<path stroke="#383870" d="M10 14h1M15 14h1M14 15h2M14 16h2M14 17h2M14 18h1" />
<path stroke="#5858b0" d="M11 15h1M11 16h3M11 17h3M11 18h3M13 19h1" />
<path stroke="#c0c0f8" d="M12 15h1" />
</svg>