<svg xmlns="http://www.w3.org/2000/svg" viewBox="0 -0.5 24 24" shape-rendering="crispEdges">
<metadata>Made with Pixels to Svg https://codepen.io/shshaw/pen/XbxvNj</metadata>
<path stroke="#303030" d="M9 3h6M7 4h2M15 4h2M6 5h1M17 5h1M5 6h1M18 6h1M4 7h1M19 7h1M4 8h1M19 8h1M3 9h1M20 9h1M3 10h1M20 10h1M3 11h1M20 11h1M3 12h1M20 12h1M3 13h1M20 13h1M3 14h1M20 14h1M4 15h1M19 15h1M4 16h1M19 16h1M5 17h1M18 17h1M6 18h1M17 18h1M7 19h2M15 19h2M9 20h6" />
<path stroke="#78c038" d="M9 4h6M8 5h8M9 6h7M5 7h1M10 7h4M5 8h1M4 9h3M16 9h1M5 10h4M14 10h2M5 11h11M6 12h9M7 13h1M11 13h2" />
<path stroke="#a8a848" d="M7 5h1M16 5h1M6 6h1M17 6h1M17 7h1M19 9h1M19 10h1M18 11h2M4 12h1M17 12h2M5 13h1M16 13h2M14 14h2" />
<path stroke="#f0f098" d="M7 6h1M6 7h1M9 8h1M7 9h2" />
<path stroke="#b0f038" d="M8 6h1M9 7h1M6 8h1" />
<path stroke="#e0e080" d="M16 6h1M14 7h3M10 8h7M9 9h7M4 10h1M9 10h5M4 11h1M5 12h1M6 13h1" />
<path stroke="#f8f8f8" d="M7 7h2M7 8h2M9 14h1M8 15h3M6 16h1M9 16h1M7 17h1" />
<path stroke="#609040" d="M18 7h1M17 8h2M17 9h2M16 10h3M16 11h2M15 12h2M13 13h3M12 14h2" />
<path stroke="#507838" d="M19 12h1M18 13h1" />
<path stroke="#485050" d="M4 13h1M8 13h3M19 13h1M4 14h4M11 14h1M16 14h4M6 15h2M11 15h7M11 16h5" />
<path stroke="#a0a0c0" d="M8 14h1M10 14h1M8 16h1M10 16h1M18 16h1M17 17h1M7 18h1M15 18h2M9 19h6" />
<path stroke="#787880" d="M5 15h1M18 15h1M7 16h1M16 16h1M8 17h3" />
<path stroke="#d8c8f0" d="M5 16h1M17 16h1M6 17h1M11 17h6M8 18h7" />
</svg>