<svg xmlns="http://www.w3.org/2000/svg" viewBox="0 -0.5 24 24" shape-rendering="crispEdges">
<metadata>Made with Pixels to Svg https://codepen.io/shshaw/pen/XbxvNj</metadata>
<path stroke="#303030" d="M7 3h4M13 3h3M6 4h1M11 4h2M16 4h1M5 5h1M11 5h1M17 5h1M5 6h1M17 6h1M4 7h1M18 7h1M4 8h1M18 8h1M4 9h1M19 9h1M3 10h1M19 10h1M3 11h1M20 11h1M3 12h1M20 12h1M2 13h1M21 13h1M2 14h1M21 14h1M2 15h1M21 15h1M2 16h1M21 16h1M3 17h1M20 17h1M3 18h1M20 18h1M4 19h1M19 19h1M5 20h2M17 20h2M7 21h10" />
<path stroke="#d8a070" d="M7 4h4M13 4h2M6 5h1M6 7h1M6 8h3M12 8h2M6 9h3M12 9h2M5 10h1M8 10h2M12 10h1M5 11h1M8 11h1M12 11h1M5 12h3M13 12h2M4 13h3M14 13h1M4 14h2M9 14h4M15 14h1M3 15h3M8 15h5M15 15h1M4 16h2M7 16h6M15 16h1M5 17h8M14 17h2M8 18h7" />
<path stroke="#c09068" d="M15 4h1M16 5h1M15 7h1M14 8h2M9 9h1M14 9h2M15 10h1M15 11h2M15 12h2M15 13h2M16 14h1M16 15h2M16 16h2M16 17h2M6 18h2M15 18h1" />
<path stroke="#f8c098" d="M7 5h3M14 5h2M7 6h2M13 6h2M5 7h1M8 7h1M5 8h1M5 9h1M4 10h1M4 11h1M4 12h1M3 13h1M9 13h2M3 14h1M8 14h1" />
<path stroke="#806850" d="M10 5h1M9 6h1M11 6h1M10 7h1M17 7h1M11 9h1M18 9h1M7 10h1M11 10h1M14 10h1M7 11h1M10 11h2M14 11h1M19 11h1M9 12h2M12 12h1M19 12h1M8 13h1M13 13h1M20 13h1M7 14h1M14 14h1M20 14h1M14 15h1M20 15h1M19 16h2M19 17h1M4 18h1M17 18h3M5 19h1M14 19h5M7 20h1M13 20h4" />
<path stroke="#a08060" d="M12 5h1M16 6h1M11 7h1M16 7h1M11 8h1M16 8h2M16 9h2M16 10h3M17 11h2M17 12h2M11 13h1M17 13h3M17 14h3M7 15h1M18 15h2M3 16h1M6 16h1M14 16h1M18 16h1M4 17h1M13 17h1M18 17h1M5 18h1M16 18h1M6 19h8M8 20h5" />
<path stroke="#f8d0b8" d="M13 5h1M6 6h1M12 6h1M15 6h1M7 7h1M12 7h3" />
<path stroke="#685040" d="M10 6h1M9 7h1M9 8h2M10 9h1M6 10h1M10 10h1M13 10h1M6 11h1M9 11h1M13 11h1M8 12h1M11 12h1M7 13h1M12 13h1M6 14h1M13 14h1M6 15h1M13 15h1M13 16h1" />
</svg>