<svg xmlns="http://www.w3.org/2000/svg" viewBox="0 -0.5 24 24" shape-rendering="crispEdges">
<metadata>Made with Pixels to Svg https://codepen.io/shshaw/pen/XbxvNj</metadata>
<path stroke="#303030" d="M11 5h10M10 6h1M21 6h1M9 7h1M21 7h1M8 8h1M21 8h1M7 9h1M21 9h1M6 10h1M21 10h1M5 11h1M21 11h1M4 12h1M21 12h1M3 13h1M20 13h1M3 14h1M19 14h1M3 15h1M18 15h1M3 16h1M17 16h1M3 17h1M16 17h1M3 18h1M15 18h1M3 19h1M14 19h1M4 20h10" />
<path stroke="#707070" d="M21 5h1M3 20h1" />
<path stroke="#a86898" d="M11 6h10M19 7h1M18 8h1M17 9h1M16 10h1M15 11h1M14 12h1M4 13h1M13 13h1" />
<path stroke="#b880a8" d="M10 7h1M9 8h1M8 9h1M7 10h1M6 11h1M5 12h1M5 13h8" />
<path stroke="#a05088" d="M11 7h8M10 8h8M9 9h8M8 10h8M7 11h8M6 12h8M4 14h1M13 14h1M4 15h1M13 15h1M4 16h1M13 16h1M4 17h1M13 17h1M4 18h1M13 18h1M4 19h1M13 19h1" />
<path stroke="#683858" d="M20 7h1M19 8h2M18 9h3M17 10h4M16 11h5M15 12h6M14 13h6M14 14h5M14 15h4M14 16h3M14 17h2M14 18h1" />
<path stroke="#804070" d="M5 14h8M5 15h8M5 16h8M5 17h8M5 18h8M5 19h8" />
</svg>