<svg xmlns="http://www.w3.org/2000/svg" viewBox="0 -0.5 24 24" shape-rendering="crispEdges">
<metadata>Made with Pixels to Svg https://codepen.io/shshaw/pen/XbxvNj</metadata>
<path stroke="#303030" d="M13 3h3M11 4h1M16 4h1M8 5h3M17 5h1M6 6h2M17 6h1M5 7h1M18 7h1M4 8h1M19 8h1M4 9h1M20 9h1M3 10h1M20 10h1M3 11h1M21 11h1M3 12h1M21 12h1M3 13h1M21 13h1M3 14h1M21 14h1M4 15h1M21 15h1M4 16h1M20 16h1M5 17h1M20 17h1M6 18h1M19 18h1M7 19h3M17 19h2M10 20h7" />
<path stroke="#505080" d="M12 4h1M12 5h1M10 6h1M12 6h2M13 7h4M12 8h1M17 8h1M13 9h4M15 11h1M10 14h1M19 15h1M8 16h1M7 18h1M14 18h1M18 18h1M10 19h1M16 19h1" />
<path stroke="#e0e8f8" d="M13 4h3M14 5h3" />
<path stroke="#98a0b8" d="M11 5h1M16 6h1M11 7h1M13 8h1" />
<path stroke="#b8c0f8" d="M13 5h1M11 6h1M14 6h2M12 7h1M17 7h1M14 8h3" />
<path stroke="#50a0f0" d="M8 6h2M6 7h2M5 8h1M5 9h1M12 9h1M18 9h1M5 10h1M9 10h1M12 10h8M4 11h3M11 11h4M16 11h2M19 11h2M5 12h16M4 13h8M13 13h7M5 14h5M11 14h8M6 15h11M9 16h5" />
<path stroke="#58d0f8" d="M8 7h3M7 8h5M6 9h6M6 10h3M10 10h2M8 11h3" />
<path stroke="#6868b8" d="M6 8h1M4 10h1M7 11h1M18 11h1M4 12h1M12 13h1M4 14h1M20 14h1M18 15h1M20 15h1M5 16h2M15 16h5M6 17h14M8 18h6M15 18h3M11 19h5" />
<path stroke="#5078c8" d="M18 8h1M17 9h1M19 9h1M20 13h1M19 14h1M5 15h1M17 15h1M7 16h1M14 16h1" />
</svg>