<svg xmlns="http://www.w3.org/2000/svg" viewBox="0 -0.5 24 24" shape-rendering="crispEdges">
<metadata>Made with Pixels to Svg https://codepen.io/shshaw/pen/XbxvNj</metadata>
<path stroke="#525252" d="M4 7h4M10 7h4M16 7h4M8 8h2M14 8h2M4 15h1M19 15h1M4 16h1M19 16h1" />
<path stroke="#313131" d="M3 8h1M20 8h1M2 9h1M21 9h1M1 10h1M22 10h1M1 11h1M22 11h1M1 12h1M22 12h1M1 13h1M22 13h1M2 14h1M21 14h1M3 15h1M8 15h2M14 15h2M20 15h1M5 16h3M10 16h4M16 16h3" />
<path stroke="#bdbdbd" d="M4 8h1M10 8h1M16 8h1M2 10h1M7 10h2M13 10h2M19 10h1M6 11h2M12 11h2M18 11h3M2 12h1M6 12h3M12 12h3M18 12h1M20 12h1M4 13h1M10 13h1M16 13h1" />
<path stroke="#ffffce" d="M5 8h1M11 8h1M17 8h1M3 11h1M9 11h1M15 11h1M3 12h1M9 12h1M15 12h1" />
<path stroke="#b5e6de" d="M6 8h1M12 8h1M18 8h1M20 9h1" />
<path stroke="#7b8c8c" d="M7 8h1M13 8h1M19 8h1M8 9h1M14 9h1M21 10h1M2 13h1M5 13h1M11 13h1M17 13h1M21 13h1M4 14h1M8 14h1M10 14h1M14 14h1M16 14h1M20 14h1M6 15h2M10 15h1M12 15h2M16 15h1M18 15h1" />
<path stroke="#e6e6e6" d="M3 9h3M9 9h3M15 9h3M3 10h1M6 10h1M9 10h1M12 10h1M15 10h1M18 10h1M2 11h1M8 11h1M14 11h1M5 12h1M11 12h1M17 12h1" />
<path stroke="#efefbd" d="M6 9h2M12 9h2M18 9h2M20 10h1" />
<path stroke="#ffffff" d="M4 10h2M10 10h2M16 10h2M4 11h2M10 11h2M16 11h2M4 12h1M10 12h1M16 12h1" />
<path stroke="#9ccec5" d="M21 11h1M3 14h1M9 14h1M15 14h1" />
<path stroke="#94a5a5" d="M19 12h1M3 13h1M9 13h1M15 13h1" />
<path stroke="#d6adad" d="M21 12h1M7 13h2M13 13h2M19 13h2M6 14h2M12 14h2M18 14h2M5 15h1M11 15h1M17 15h1" />
<path stroke="#a5a5a5" d="M6 13h1M12 13h1M18 13h1M5 14h1M11 14h1M17 14h1" />
</svg>