<svg xmlns="http://www.w3.org/2000/svg" viewBox="0 -0.5 24 24" shape-rendering="crispEdges">
<metadata>Made with Pixels to Svg https://codepen.io/shshaw/pen/XbxvNj</metadata>
<path stroke="#303030" d="M16 2h4M15 3h1M20 3h1M14 4h1M21 4h1M13 5h1M21 5h1M12 6h1M16 6h2M21 6h1M7 7h5M16 7h2M21 7h1M5 8h2M14 8h2M20 8h1M4 9h1M15 9h1M19 9h1M3 10h1M18 10h1M3 11h1M17 11h1M2 12h1M16 12h1M2 13h1M16 13h1M2 14h1M16 14h1M2 15h1M16 15h1M2 16h1M16 16h1M2 17h1M15 17h1M1 18h1M3 18h2M15 18h1M1 19h1M3 19h3M14 19h1M1 20h1M4 20h2M12 20h2M2 21h1M6 21h6M3 22h3" />
<path stroke="#e8d060" d="M16 3h1M19 3h1M18 4h2M14 5h1M16 5h2M13 6h1M15 6h1M18 6h1M12 7h1M14 7h2M18 7h1M16 8h1M16 9h1M5 16h2M3 17h3" />
<path stroke="#f8f080" d="M17 3h2M15 5h1M14 6h1M13 7h1M4 16h1" />
<path stroke="#d05038" d="M15 4h3M18 5h1M5 10h3M8 11h1M3 12h1M8 12h3M3 13h2M7 13h5M3 14h2M6 14h6M3 15h1M7 15h5M8 16h4M9 17h2" />
<path stroke="#c0a830" d="M20 4h1M19 5h2M20 6h1M20 7h1M17 8h2M17 9h2M16 10h2M16 11h1M3 16h1M6 17h2M2 18h1M5 18h3M6 19h2M6 20h1" />
<path stroke="#a02008" d="M19 6h1M19 7h1M19 8h1M4 10h1M8 10h1M9 11h2M11 12h1M12 13h1M12 14h1M4 15h3M13 15h1M7 16h1M13 16h1M8 17h1M13 17h1M8 18h1M13 18h1M8 19h1M13 19h1" />
<path stroke="#e8e8f0" d="M7 8h5M5 9h8M9 10h5M11 11h3M12 12h2M13 13h1" />
<path stroke="#787880" d="M12 8h2M14 9h1M15 10h1M15 11h1" />
<path stroke="#c8c8d0" d="M13 9h1M14 10h1M14 11h1M14 12h2M14 13h2M13 14h3M14 15h2M14 16h2M14 17h1M14 18h1" />
<path stroke="#f07058" d="M4 11h1M7 11h1M4 12h1M7 12h1M5 13h2M5 14h1" />
<path stroke="#f8f8f8" d="M5 11h2M5 12h2" />
<path stroke="#b83820" d="M12 15h1M12 16h1M11 17h2M9 18h4M9 19h4M8 20h4" />
<path stroke="#906028" d="M2 19h1M2 20h2M7 20h1M3 21h3" />
</svg>