<svg xmlns="http://www.w3.org/2000/svg" viewBox="0 -0.5 24 24" shape-rendering="crispEdges">
<metadata>Made with Pixels to Svg https://codepen.io/shshaw/pen/XbxvNj</metadata>
<path stroke="#504858" d="M8 2h1M6 4h1M9 5h1M10 6h1M10 7h1M9 8h1M7 9h2M4 10h1M3 11h1M2 13h1M17 14h1M5 16h1M10 16h1M20 16h1M10 17h1M14 17h1M16 17h1M21 17h1M17 18h1" />
<path stroke="#303030" d="M9 2h3M7 3h1M12 3h2M19 3h1M14 4h1M18 4h1M20 4h1M6 5h1M15 5h3M20 5h1M6 6h1M15 6h1M21 6h1M6 7h1M16 7h1M18 7h3M7 8h1M16 8h1M19 8h1M6 9h1M16 9h1M20 9h1M5 10h1M17 10h1M19 10h2M17 11h1M21 11h1M3 12h1M17 12h4M17 13h1M2 14h1M2 15h1M18 15h1M2 16h1M19 16h1M2 17h1M5 17h1M2 18h1M4 18h1M6 18h1M10 18h1M14 18h1M18 18h2M21 18h1M3 19h1M6 19h1M9 19h1M11 19h1M13 19h1M15 19h1M17 19h1M20 19h2M6 20h1M9 20h1M11 20h1M13 20h1M16 20h2M7 21h1M9 21h1M12 21h1M8 22h1" />
<path stroke="#9080a8" d="M8 3h3M7 4h1M9 4h2M10 5h2M13 5h1M11 6h2M14 6h1M11 7h1M13 8h1M15 8h1M12 9h4M7 10h2M11 10h5M5 11h3M12 11h5M4 12h6M15 12h2M4 13h1M6 13h4M13 13h1M3 14h1M7 14h2M13 14h3M8 15h1M13 15h3M17 15h1M4 16h1M6 16h1M8 16h1M12 16h2M15 16h2M18 16h1M3 17h1M9 17h1M12 17h2M15 17h1M19 17h1M15 18h2M7 19h1M12 19h1M8 20h1" />
<path stroke="#806888" d="M11 3h1M13 4h1M19 4h1M14 5h1M18 5h2M8 6h1M20 6h1M7 7h2M15 7h1M8 8h1M6 10h1M16 10h1M4 11h1M3 13h1M5 15h1M10 15h1M14 16h1M4 17h1M6 17h1M17 17h2M20 17h1M3 18h1M9 18h1M11 18h1M13 18h1M16 19h1M7 20h1M12 20h1M8 21h1" />
<path stroke="#a898b8" d="M8 4h1M11 4h2M7 5h1M12 5h1M7 6h1M13 6h1M12 7h3M10 8h3M14 8h1M9 9h3M9 10h2M8 11h4M10 12h5M5 13h1M10 13h3M14 13h3M4 14h3M9 14h4M16 14h1M3 15h2M6 15h2M9 15h1M11 15h2M16 15h1M3 16h1M7 16h1M9 16h1M11 16h1M17 16h1M7 17h2M11 17h1M7 18h2M12 18h1M8 19h1" />
<path stroke="#685878" d="M8 5h1M9 6h1M16 6h4M9 7h1M17 7h1M17 8h2M17 9h3M18 10h1M18 11h3M20 18h1" />
</svg>