<svg xmlns="http://www.w3.org/2000/svg" viewBox="0 -0.5 24 24" shape-rendering="crispEdges">
<metadata>Made with Pixels to Svg https://codepen.io/shshaw/pen/XbxvNj</metadata>
<path stroke="#313131" d="M7 4h9M6 5h1M16 5h1M5 6h1M17 6h1M5 7h1M17 7h1M5 8h1M17 8h1M5 9h1M17 9h1M6 10h1M16 10h1M5 11h1M17 11h1M4 12h1M18 12h1M4 13h1M18 13h1M4 14h1M18 14h1M5 15h1M17 15h1M5 16h1M17 16h1M6 17h1M16 17h1M7 18h1M15 18h1M8 19h7" />
<path stroke="#adadad" d="M7 5h1M15 5h1M6 6h1M16 6h1M6 7h1M15 7h1M7 8h3M11 8h1M15 8h1M6 13h1M9 13h1M11 13h1M16 13h1M6 14h1" />
<path stroke="#949c9c" d="M8 5h7M6 8h1M16 8h1M9 9h1M11 9h1M14 9h1M8 10h2M11 10h2M14 10h1M6 12h2M16 12h1M7 13h1M15 13h1M8 14h3M13 14h2M8 15h2M11 15h2M14 15h1" />
<path stroke="#7b8c8c" d="M7 6h2M14 6h2M7 10h1M10 10h1M13 10h1M15 10h1M6 11h1M16 11h1M5 12h1M13 12h1M15 12h1M17 12h1M5 13h1M17 13h1M7 14h1M11 14h2M15 14h2M7 15h1M10 15h1M13 15h1M15 15h1M9 16h1" />
<path stroke="#5a7b7b" d="M9 6h5M7 9h2M10 9h1M12 9h2M15 9h1M8 12h5M14 12h1M7 16h1M13 16h1M15 16h1M8 17h2M11 17h1M13 17h2" />
<path stroke="#c5c5bd" d="M7 7h1M16 7h1M10 8h1M12 8h1M14 8h1M8 13h1M10 13h1M12 13h1M14 13h1" />
<path stroke="#426b6b" d="M8 7h7M6 9h1M16 9h1M7 11h9M5 14h1M17 14h1M6 15h1M16 15h1M8 16h1M10 16h2M14 16h1" />
<path stroke="#d6d6ce" d="M13 8h1M13 13h1" />
<path stroke="#3a6363" d="M6 16h1M12 16h1M16 16h1M7 17h1M10 17h1M12 17h1M15 17h1M8 18h7" />
</svg>