<svg xmlns="http://www.w3.org/2000/svg" viewBox="0 -0.5 24 24" shape-rendering="crispEdges">
<metadata>Made with Pixels to Svg https://codepen.io/shshaw/pen/XbxvNj</metadata>
<path stroke="#303030" d="M14 5h3M12 6h2M16 6h1M10 7h2M16 7h1M8 8h2M16 8h1M7 9h1M16 9h1M7 10h1M16 10h1M7 11h1M16 11h1M7 12h1M16 12h1M7 13h1M16 13h1M7 14h1M16 14h1M7 15h1M16 15h1M7 16h1M14 16h2M7 17h1M12 17h2M7 18h1M10 18h2M7 19h3" />
<path stroke="#f8f8f8" d="M14 6h2M12 7h3M10 8h5M8 9h6M9 10h5M9 11h4M10 12h3M10 13h2M11 14h1" />
<path stroke="#e0e078" d="M15 7h1M15 8h1M14 9h2M8 10h1M14 10h2M8 11h1M13 11h3M8 12h2M13 12h3M8 13h2M12 13h4M8 14h3M12 14h4M8 15h3M8 16h2M8 17h1" />
<path stroke="#a0a038" d="M11 15h5M10 16h4M9 17h3M8 18h2" />
</svg>