<svg xmlns="http://www.w3.org/2000/svg" viewBox="0 -0.5 24 24" shape-rendering="crispEdges">
<metadata>Made with Pixels to Svg https://codepen.io/shshaw/pen/XbxvNj</metadata>
<path stroke="#303030" d="M7 2h1M9 2h1M6 3h1M10 3h1M5 4h1M4 5h1M3 7h1M3 8h1M2 10h1M22 10h1M2 11h1M11 11h1M7 12h1M11 12h1M22 12h1M1 13h2M8 13h1M11 13h1M22 13h1M1 14h1M9 14h1M11 14h2M22 14h1M3 15h1M7 15h1M11 15h1M5 16h2M11 16h1M13 16h1M21 16h1M1 17h1M11 17h1M14 17h1M20 17h1M10 18h1M16 18h3M2 19h1M9 19h1M3 20h1M4 21h1M9 21h1M6 22h2" />
<path stroke="#907028" d="M8 2h1M7 5h1M2 9h1M5 10h1M10 10h1M10 11h1M1 12h1M10 12h1M10 13h1M2 14h1M8 14h1M12 15h1" />
<path stroke="#e8f0f8" d="M7 3h1M6 4h1M5 5h1M14 9h1M18 9h2M16 11h1M21 11h1M4 12h2M3 13h1M7 13h1M15 13h1M4 15h2M3 18h1M4 19h3" />
<path stroke="#705008" d="M8 3h1M9 4h1M9 5h1M10 6h1M10 7h1M10 8h1M10 9h1" />
<path stroke="#687888" d="M9 3h1M11 4h2M14 5h6M21 6h1M11 7h1M11 8h1M19 8h1M22 8h1M11 9h1M21 10h1M22 11h1M10 14h1M1 15h1M10 15h1M21 15h1M1 16h1M10 16h1M14 16h1M20 16h1M9 17h1M15 17h5M2 18h1M8 18h1" />
<path stroke="#e8c048" d="M7 4h1M6 5h1M8 5h1M4 6h1M8 6h2M7 7h3M6 8h4M6 9h4M7 10h3M7 11h3M8 12h2M9 13h1" />
<path stroke="#f0e850" d="M8 4h1M5 6h3M4 7h3M4 8h2M3 9h3M3 10h2M6 10h1M3 11h1M2 12h1" />
<path stroke="#405060" d="M10 4h1M11 5h1M12 6h1M13 7h1M14 8h5M20 9h1M22 9h1M11 10h1M16 10h3M4 11h3M12 11h1M15 11h1M3 12h1M12 12h1M14 12h1M6 13h1M12 13h1M14 13h1M4 14h3M14 14h1M13 15h1M22 15h1M4 16h1M11 18h1M15 18h1M19 18h1M11 19h1M8 20h1M10 20h1M5 22h1M8 22h1" />
<path stroke="#90a0b0" d="M13 4h1M12 5h1M20 5h1M14 6h1M14 7h2M22 7h1M21 9h1M12 10h1M13 11h1M13 12h1M13 13h1M13 14h1M21 14h1M14 15h1M20 15h1M15 16h1M19 16h1M10 17h1M9 18h1M10 19h1M5 21h4" />
<path stroke="#a0b0c0" d="M10 5h1M13 5h1M13 6h1M15 6h1M20 7h1M12 8h1M21 8h1M12 9h2M13 10h3M19 10h1M14 11h1M20 11h1M21 12h1M21 13h1M8 15h2M7 16h1M9 16h1M4 17h3M8 17h1M3 19h1M7 19h2M4 20h4M9 20h1" />
<path stroke="#c0d0e0" d="M11 6h1M16 6h5M12 7h1M21 7h1M13 8h1M15 9h3M20 10h1M6 12h1M3 14h1M7 14h1M15 14h1M2 15h1M6 15h1M16 15h2M2 16h2M8 16h1M2 17h2M7 17h1M4 18h4" />
<path stroke="#5070a8" d="M16 7h4M20 8h1M19 11h1M20 12h1M5 13h1M20 13h1M20 14h1M15 15h1M19 15h1M16 16h3" />
<path stroke="#7898d0" d="M17 11h2M15 12h5M4 13h1M16 13h1M18 13h2M16 14h4M18 15h1" />
<path stroke="#d05848" d="M17 13h1" />
</svg>