<svg xmlns="http://www.w3.org/2000/svg" viewBox="0 -0.5 24 24" shape-rendering="crispEdges">
<metadata>Made with Pixels to Svg https://codepen.io/shshaw/pen/XbxvNj</metadata>
<path stroke="#303030" d="M16 2h2M14 3h2M18 3h1M11 4h3M19 4h1M9 5h2M14 5h2M19 5h1M8 6h1M15 6h1M18 6h1M6 7h2M16 7h3M5 8h1M19 8h1M4 9h1M19 9h1M4 10h1M19 10h1M3 11h1M19 11h1M3 12h1M20 12h1M3 13h1M20 13h1M3 14h1M20 14h1M3 15h1M20 15h1M4 16h1M20 16h1M4 17h1M19 17h1M5 18h1M19 18h1M6 19h1M17 19h2M6 20h1M15 20h2M7 21h8" />
<path stroke="#508048" d="M16 3h2M15 4h1M18 4h1M16 5h3" />
<path stroke="#68d058" d="M14 4h1M16 4h2M16 6h2" />
<path stroke="#f8e868" d="M11 5h3M9 6h2M13 6h2M9 7h2M13 7h3M7 8h1M9 8h8M5 9h4M10 9h3M14 9h3M5 10h1M8 10h8M4 11h2M8 11h4M13 11h3M5 12h5M11 12h3M4 13h5M12 13h5M4 14h2M7 14h2M11 14h2M15 14h2M4 15h9M15 15h1M6 16h9M8 17h2M11 17h2" />
<path stroke="#e0b040" d="M11 6h2M11 7h2M13 9h1M6 10h2M6 11h2M4 12h1M10 12h1M9 13h3M6 14h1M9 14h2M13 14h2M13 15h2M10 17h1" />
<path stroke="#887038" d="M8 7h1M6 8h1M18 8h1M18 11h1M15 12h3M19 12h1M5 17h1M18 18h1M7 19h1M9 20h2" />
<path stroke="#d0b048" d="M8 8h1M17 8h1M9 9h1M17 9h2M17 10h2M12 11h1M16 11h2M14 12h1M18 12h1M18 13h2M17 14h2M17 15h3M16 16h4M6 17h1M14 17h3M18 17h1M6 18h7M15 18h3M8 19h4M15 19h2M7 20h2M11 20h4" />
<path stroke="#e8d058" d="M16 10h1M17 13h1M16 15h1M5 16h1M15 16h1M7 17h1M13 17h1" />
<path stroke="#a87030" d="M19 14h1M17 17h1M13 18h2M12 19h3" />
</svg>