<svg xmlns="http://www.w3.org/2000/svg" viewBox="0 -0.5 24 24" shape-rendering="crispEdges">
<metadata>Made with Pixels to Svg https://codepen.io/shshaw/pen/XbxvNj</metadata>
<path stroke="#303030" d="M14 2h2M13 3h1M15 3h1M7 4h2M12 4h1M15 4h1M6 5h1M10 5h2M15 5h1M5 6h1M14 6h1M5 7h1M9 7h1M13 7h1M5 8h1M12 8h2M5 9h1M18 11h1M6 12h1M6 14h1M19 14h1M6 15h1M19 15h1M19 16h1M15 17h2M19 17h1M15 18h2M18 18h1M17 19h2M9 20h1M16 20h2M12 21h4" />
<path stroke="#f8b8b8" d="M14 3h1M13 4h2M7 5h1M6 6h1M7 7h1M6 8h1" />
<path stroke="#803030" d="M9 4h1M12 5h2M7 6h2M6 7h1M10 8h1M10 9h1M6 10h1M7 11h1" />
<path stroke="#d07068" d="M8 5h2M14 5h1M9 6h5M8 7h1M10 7h3M9 8h1M6 9h1" />
<path stroke="#505050" d="M7 8h2M11 8h1M14 8h1M9 9h1M16 9h2M7 10h1M18 10h1M8 11h1M6 13h1M17 13h1M19 13h1M16 15h1M6 16h1M15 16h2M14 17h1M7 18h1M13 18h2M7 19h1M11 19h1M8 20h1M11 21h1" />
<path stroke="#a0a0a0" d="M7 9h1M15 9h1M8 10h1M10 10h1M13 10h2M9 11h1M12 11h3M12 12h2M18 12h1M11 13h3M11 14h2M17 14h2M7 15h1M17 15h2M7 16h2M18 16h1M7 17h1M18 17h1M12 19h4M10 20h1M14 20h2" />
<path stroke="#e0e0e0" d="M8 9h1M12 9h2M9 10h1M11 10h1M10 11h1M17 11h1M7 12h1M10 13h1M16 13h1M10 14h1M9 15h2M11 18h1M9 19h1" />
<path stroke="#c8c8c8" d="M11 9h1M14 9h1M12 10h1M15 10h1M11 11h1M15 11h1M8 12h4M14 12h1M17 12h1M7 13h1M14 13h1M18 13h1M7 14h1M13 14h1M16 14h1M8 15h1M12 15h1M15 15h1M9 16h3M14 16h1M17 16h1M8 17h2M13 17h1M17 17h1M12 18h1M17 18h1M10 19h1M16 19h1M11 20h3" />
<path stroke="#787878" d="M16 10h1M16 11h1M15 12h1M15 13h1M14 14h1M13 15h1M12 16h1M10 17h2M8 18h2" />
<path stroke="#f8f8f8" d="M17 10h1M16 12h1M8 13h2M8 14h2M15 14h1M11 15h1M14 15h1M13 16h1M12 17h1M10 18h1M8 19h1" />
</svg>