<svg xmlns="http://www.w3.org/2000/svg" viewBox="0 -0.5 24 24" shape-rendering="crispEdges">
<metadata>Made with Pixels to Svg https://codepen.io/shshaw/pen/XbxvNj</metadata>
<path stroke="#303030" d="M13 1h2M12 2h1M15 2h1M4 3h2M11 3h1M15 3h1M4 4h1M7 4h1M15 4h1M4 5h1M8 5h1M17 5h1M19 5h3M18 6h1M22 6h1M22 7h1M5 8h1M19 8h1M21 8h1M20 9h1M4 10h1M19 10h1M4 11h1M19 11h1M3 12h1M19 12h1M2 13h1M20 13h1M1 14h1M21 14h1M1 15h1M22 15h1M2 16h1M4 16h2M22 16h1M6 17h1M17 17h5M16 18h1M6 19h1M16 19h1M6 20h1M10 20h2M16 20h1M6 21h1M9 21h1M12 21h1M15 21h1M7 22h2M13 22h2" />
<path stroke="#f8e8c8" d="M13 2h2M12 3h1M5 4h1M10 5h3M15 5h1M5 6h1M7 6h2M14 6h1M6 7h2M6 8h1M10 8h3M5 9h1M9 9h2M18 9h1M8 10h2M11 10h1M8 11h1M10 11h1M8 12h1M3 13h1M5 13h1M2 14h1M20 14h1M21 15h1M6 16h1M7 21h1" />
<path stroke="#f8a870" d="M13 3h1M5 5h1M11 6h3M15 6h1M20 6h2M8 7h1M13 7h2M7 8h2M14 8h3M6 9h2M11 9h5M17 9h1M10 10h1M12 10h3M16 10h1M9 11h1M11 11h1M13 11h2M6 12h1M9 12h1M13 12h1M9 13h2M3 14h1M5 14h1M2 15h1M8 16h1M19 16h1M7 17h2M7 19h1M15 19h1M7 20h1M13 20h2M14 21h1" />
<path stroke="#e07038" d="M14 3h1M6 4h1M11 4h2M6 5h1M9 5h1M13 5h2M9 6h2M19 6h1M9 7h1M13 8h1M18 8h1M16 9h1M6 10h1M15 10h1M17 10h2M6 11h1M12 11h1M15 11h3M10 12h3M14 12h1M16 12h3M6 13h1M8 13h1M11 13h3M16 13h1M7 14h1M9 14h4M16 14h1M3 15h2M17 15h1M19 15h2M21 16h1M12 17h1M10 18h1M12 18h1M8 19h1M8 20h1M8 21h1M13 21h1" />
<path stroke="#804828" d="M9 4h2M13 4h1M16 4h1M7 5h1M18 5h1M4 6h1M6 6h1M17 6h1M5 7h1M18 7h1M4 9h1M19 9h1M18 11h1M4 12h1M4 13h1M14 13h1M19 13h1M4 14h1M13 14h1M19 14h1M5 15h1M11 15h2M3 16h1M16 16h3M13 17h1M15 17h2M7 18h2M13 18h1M15 18h1M9 19h6M15 20h1" />
<path stroke="#c06028" d="M14 4h1M16 5h1M16 6h1M10 7h3M15 7h1M19 7h3M9 8h1M20 8h1M8 9h1M7 10h1M7 11h1M5 12h1M7 12h1M15 12h1M7 13h1M15 13h1M17 13h1M8 14h1M14 14h2M6 15h2M9 15h2M13 15h4M18 15h1M7 16h1M9 16h6M20 16h1M10 17h2M14 17h1M9 18h1M14 18h1M9 20h1M12 20h1" />
<path stroke="#f08048" d="M16 7h2M17 8h1M5 10h1M5 11h1M18 13h1M6 14h1M17 14h2M8 15h1M15 16h1M9 17h1M11 18h1" />
</svg>