<svg xmlns="http://www.w3.org/2000/svg" viewBox="0 -0.5 24 24" shape-rendering="crispEdges">
<metadata>Made with Pixels to Svg https://codepen.io/shshaw/pen/XbxvNj</metadata>
<path stroke="#303030" d="M9 1h6M7 2h2M15 2h2M5 3h2M17 3h2M4 4h1M19 4h1M3 5h1M20 5h1M3 6h1M20 6h1M2 7h1M21 7h1M2 8h1M21 8h1M1 9h1M22 9h1M1 10h1M22 10h1M1 11h1M22 11h1M1 12h1M22 12h1M1 13h1M22 13h1M1 14h1M22 14h1M2 15h1M21 15h1M2 16h1M21 16h1M3 17h1M20 17h1M3 18h1M20 18h1M4 19h1M19 19h1M5 20h2M17 20h2M7 21h2M15 21h2M9 22h6" />
<path stroke="#98d058" d="M9 2h2M7 3h2M5 4h3M13 4h3M11 5h5M7 7h1M14 8h1M2 9h2M9 9h1M13 9h2M2 10h2M8 10h2M2 11h3M6 11h1M9 11h2M2 12h1M4 12h2M9 12h1M6 15h1M6 17h1M9 17h1M6 18h1" />
<path stroke="#70a830" d="M11 2h1M13 3h4M8 4h1M17 4h1M4 5h4M11 6h5M3 8h2M10 8h1M4 9h1M10 9h1M19 9h1M10 10h1M19 10h1M7 11h2M19 11h3M3 12h1M6 12h1M8 12h1M21 12h1M2 13h1M4 13h2M8 13h1M21 13h1M15 14h1M20 14h2M14 15h2M19 15h2M14 16h2M19 16h2M14 17h2M13 18h4M13 19h6M11 20h1M15 20h2" />
<path stroke="#f8c0a8" d="M12 2h3M4 6h2M3 7h2M11 7h4M11 8h3M11 9h2M11 10h1M7 12h1M3 13h1M6 13h2M5 14h3" />
<path stroke="#b0e880" d="M9 3h3M11 4h1M8 8h2M7 9h2M6 10h2M5 11h1" />
<path stroke="#88c048" d="M12 3h1M9 4h2M12 4h1M16 4h1M10 5h1M16 5h1M16 6h1M8 7h2M16 7h4M7 8h1M18 8h2M6 9h1M4 10h2M10 12h6M9 13h7M14 14h1M7 15h1M10 16h2M10 17h1M7 18h1M7 19h1M10 19h1M10 20h1" />
<path stroke="#f0a890" d="M18 4h1M18 5h2M15 8h1M15 9h3M12 10h6M16 11h2M17 12h1M17 13h1M3 14h1M3 15h3M8 15h5M4 16h6M4 17h2M7 17h2M5 18h1M8 18h1" />
<path stroke="#f8d8c8" d="M8 5h2M6 6h5M5 7h2M10 7h1M5 8h2M5 9h1" />
<path stroke="#589038" d="M17 5h1M17 6h3M15 7h1M20 7h1M16 8h2M20 8h1M18 9h1M20 9h1M18 10h1M20 10h2M11 11h5M18 11h1M16 12h1M18 12h3M16 13h1M20 13h1M4 14h1M8 14h6M16 14h1M19 14h1M13 15h1M16 15h1M13 16h1M16 16h1M13 17h1M16 17h1M19 17h1M12 18h1M17 18h2M6 19h1M8 19h1M12 19h1M13 20h2" />
<path stroke="#d89078" d="M21 9h1M18 13h2M2 14h1M17 14h2M17 15h2M3 16h1M12 16h1M17 16h2M11 17h2M17 17h2M4 18h1M9 18h3M19 18h1M5 19h1M9 19h1M11 19h1M7 20h3M12 20h1M9 21h6" />
</svg>