<svg xmlns="http://www.w3.org/2000/svg" viewBox="0 -0.5 24 24" shape-rendering="crispEdges">
<metadata>Made with Pixels to Svg https://codepen.io/shshaw/pen/XbxvNj</metadata>
<path stroke="#313131" d="M5 3h2M9 3h6M4 4h1M7 4h1M15 4h2M3 5h1M8 5h1M17 5h1M3 6h1M18 6h1M4 7h1M19 7h1M5 8h1M19 8h1M3 9h1M20 9h1M3 10h1M20 10h1M3 11h1M20 11h1M3 12h1M20 12h1M3 13h1M20 13h1M3 14h1M20 14h1M4 15h1M19 15h1M4 16h1M19 16h1M5 17h1M18 17h1M6 18h1M17 18h1M7 19h2M15 19h2M9 20h6" />
<path stroke="#e6b48b" d="M5 4h2M9 4h2M4 5h2M11 5h1" />
<path stroke="#735241" d="M8 4h1M8 6h1M4 8h1M6 8h1M11 9h1M10 10h1M4 11h1M8 11h2M5 12h3" />
<path stroke="#a46229" d="M11 4h1M12 5h1M4 6h2M12 6h1M5 7h2M12 7h1M11 8h1M4 9h2M4 10h3M5 11h3" />
<path stroke="#ffffff" d="M12 4h2M13 5h4M13 6h5M13 7h5M12 8h7M12 9h7M11 10h9M10 11h10M9 12h11M9 13h11M10 14h9M12 15h5" />
<path stroke="#b4c5d5" d="M14 4h1M18 7h1M19 9h1M4 12h1M4 13h5M5 14h4M19 14h1M5 15h6M18 15h1M6 16h12M6 17h12M8 18h8M10 19h4" />
<path stroke="#cd9462" d="M6 5h2M9 5h2M6 6h2M9 6h3M7 7h5M7 8h4M6 9h5M7 10h3" />
<path stroke="#d5dee6" d="M8 12h1M9 14h1M11 15h1M17 15h1" />
<path stroke="#737b83" d="M4 14h1M5 16h1M18 16h1M7 18h1M16 18h1M9 19h1M14 19h1" />
</svg>