<svg xmlns="http://www.w3.org/2000/svg" viewBox="0 -0.5 24 24" shape-rendering="crispEdges">
<metadata>Made with Pixels to Svg https://codepen.io/shshaw/pen/XbxvNj</metadata>
<path stroke="#303030" d="M11 1h3M10 2h1M14 2h1M10 3h1M15 3h2M6 4h4M17 4h2M5 5h1M18 5h2M5 6h1M20 6h1M5 7h1M20 7h1M5 8h1M21 8h1M4 9h1M21 9h1M4 10h1M21 10h1M3 11h1M21 11h1M3 12h1M22 12h1M3 13h1M22 13h1M3 14h1M20 14h2M2 15h1M20 15h1M2 16h1M19 16h1M3 17h1M19 17h1M4 18h1M18 18h1M5 19h1M16 19h2M6 20h2M16 20h1M8 21h5M16 21h1M13 22h3" />
<path stroke="#9070e0" d="M11 2h3M10 4h4M7 5h1M9 5h1M6 6h2M19 6h1M19 7h1M6 8h2M19 8h1M5 9h4M13 9h2M18 9h2M5 10h3M10 10h1M12 10h7M5 11h3M9 11h2M12 11h7M7 12h2M11 12h7M20 12h1M6 13h1M8 13h4M14 13h2M5 14h2M8 14h3M13 14h1M3 15h1M9 15h2M12 15h2M17 15h1M9 18h1" />
<path stroke="#384078" d="M11 3h1M14 3h1M14 4h3M13 5h1M17 5h1M13 6h1M18 6h1M13 7h1M18 7h1M14 8h1M18 8h1M15 9h3M4 11h1M20 11h1M19 12h1M4 13h1M7 13h1M19 13h1M4 14h1M7 14h1M11 14h1M14 14h1M17 14h2M4 15h3M11 15h1M14 15h1M16 15h1M19 15h1M4 16h1M12 16h2M16 16h1M4 17h1M9 17h2M17 17h2M8 18h1M11 18h1M8 19h1M11 19h1M9 20h2M14 20h2M13 21h1" />
<path stroke="#6058a8" d="M12 3h2M8 5h1M8 6h1M6 7h2M20 8h1M9 9h2M20 9h1M8 10h1M11 10h1M20 10h1M8 11h1M11 11h1M19 11h1M4 12h3M9 12h2M21 12h1M12 13h2M17 13h2M20 13h2M15 14h2M19 14h1M7 15h1M15 15h1M18 15h1M3 16h1M5 16h7M14 16h2M17 16h2M5 17h4M11 17h6M5 18h3M10 18h1M12 18h6M6 19h2M9 19h2M12 19h4M8 20h1M11 20h3M14 21h2" />
<path stroke="#c8a0f8" d="M6 5h1M10 5h3M9 6h4M8 7h5M8 8h6M11 9h2M9 10h1M5 13h1M12 14h1" />
<path stroke="#409840" d="M14 5h1M16 5h1M17 6h1M17 7h1M16 8h1" />
<path stroke="#58d050" d="M15 5h1M14 6h1M14 7h1M15 8h1" />
<path stroke="#486040" d="M15 6h2M15 7h2M17 8h1" />
<path stroke="#8058c8" d="M19 10h1M18 12h1M16 13h1M8 15h1" />
</svg>