<svg xmlns="http://www.w3.org/2000/svg" viewBox="0 -0.5 24 24" shape-rendering="crispEdges">
<metadata>Made with Pixels to Svg https://codepen.io/shshaw/pen/XbxvNj</metadata>
<path stroke="#484048" d="M8 5h1M6 6h1M4 7h1M2 8h1M1 9h1M19 10h1M17 11h1M20 11h1M8 12h1M15 12h1M18 12h1M5 13h1M16 13h1M14 14h1M2 15h1M8 17h1M9 18h1M11 18h2" />
<path stroke="#303030" d="M9 5h2M7 6h4M5 7h3M10 7h1M3 8h3M10 8h1M2 9h3M1 10h1M4 10h1M20 10h2M1 11h1M5 11h1M18 11h1M21 11h1M1 12h1M5 12h1M9 12h3M16 12h1M19 12h1M21 12h1M1 13h1M6 13h2M12 13h3M17 13h1M21 13h1M1 14h1M5 14h3M15 14h1M21 14h1M5 15h1M7 15h1M13 15h2M3 16h2M7 16h1M13 16h1M13 17h1M8 18h1M13 18h1M10 19h3" />
<path stroke="#605860" d="M2 10h2M4 11h1M19 11h1M4 12h1M17 12h1M4 13h1M8 13h4M15 13h1M4 14h1M8 14h1M12 14h2M3 15h2M8 15h1M12 15h1M8 16h1M12 16h1M12 17h1M10 18h1" />
<path stroke="#f8f8f8" d="M2 11h1M9 14h2M9 15h1" />
<path stroke="#609090" d="M3 11h1M2 14h1M11 14h1M9 17h1" />
<path stroke="#a8f8f8" d="M2 12h1M2 13h2M3 14h1M10 15h1M9 16h3M10 17h2" />
<path stroke="#88c8c8" d="M3 12h1M11 15h1" />
</svg>