<svg xmlns="http://www.w3.org/2000/svg" viewBox="0 -0.5 32 32" shape-rendering="crispEdges">
<metadata>Made with Pixels to Svg https://codepen.io/shshaw/pen/XbxvNj</metadata>
<path stroke="#ffffff" d="M16 8h7M13 9h4M22 9h4M11 10h3M25 10h2M9 11h3M26 11h1M7 12h3M26 12h1M6 13h2M26 13h1M5 14h2M25 14h2M4 15h2M25 15h2M4 16h1M26 16h1M3 17h2M26 17h1M3 18h1M26 18h1M3 19h1M26 19h1M3 20h1M8 20h2M20 20h3M26 20h1M3 21h1M8 21h2M11 21h3M15 21h3M19 21h4M25 21h2M3 22h2M8 22h2M11 22h3M15 22h3M19 22h3M25 22h1M4 23h2M11 23h3M15 23h3M19 23h2M24 23h2M5 24h2M23 24h2M6 25h3M21 25h3M8 26h3M19 26h3M10 27h10" />
<path stroke="#202020" d="M17 9h5M14 10h3M22 10h3M12 11h2M25 11h1M10 12h2M25 12h1M8 13h2M25 13h1M7 14h1M24 14h1M6 15h1M24 15h1M5 16h1M25 16h1M5 17h1M25 17h1M4 18h1M25 18h1M4 19h1M25 19h1M4 20h1M25 20h1M4 21h1M24 21h1M5 22h1M24 22h1M6 23h1M23 23h1M7 24h2M21 24h2M9 25h2M19 25h2M11 26h8" />
<path stroke="#8b836a" d="M17 10h1M20 10h2M14 11h7M18 12h1M21 12h1" />
<path stroke="#b4b49c" d="M18 10h2M21 11h1M13 12h2M16 12h1M19 12h1M24 12h1M12 13h1M15 13h1M18 13h1M20 13h1M22 13h3M8 14h1M17 14h1M20 14h1M22 14h1M7 15h1M19 15h1M22 15h1M6 16h1M5 21h1M6 22h1M23 22h1M22 23h1M10 24h1M14 25h1M18 25h1" />
<path stroke="#ffffee" d="M22 11h2M23 12h1M13 13h2M16 13h1M11 14h3M15 14h2M18 14h2M21 14h1M10 15h3M14 15h2M17 15h2M20 15h2M10 16h2M13 16h3M17 16h2M20 16h2M12 17h3M16 17h3M8 23h2M11 24h3M15 24h3M19 24h1M12 25h2M15 25h2" />
<path stroke="#ded5c5" d="M24 11h1M12 12h1M15 12h1M17 12h1M20 12h1M22 12h1M10 13h2M17 13h1M19 13h1M21 13h1M9 14h2M14 14h1M23 14h1M9 15h1M13 15h1M16 15h1M12 16h1M16 16h1M19 16h1M15 17h1M5 20h1M24 20h1M6 21h1M7 22h1M7 23h1M10 23h1M21 23h1M9 24h1M14 24h1M18 24h1M20 24h1M11 25h1M17 25h1" />
<path stroke="#dedeac" d="M8 15h1M8 16h1M22 16h1M11 17h1M19 17h1M22 17h1M11 18h1M15 18h1M19 18h1" />
<path stroke="#fffff6" d="M23 15h1M9 16h1M23 16h1M9 17h2M20 17h2M23 17h1M8 18h3M12 18h3M16 18h3M20 18h2M23 18h1M8 19h2M12 19h3M16 19h2M19 19h4M11 20h3M16 20h2M19 20h1" />
<path stroke="#f6decd" d="M7 16h1M24 16h1M7 17h2M24 17h1M7 18h1M22 18h1M10 19h2M15 19h1M18 19h1M10 20h1M14 20h2M18 20h1" />
<path stroke="#eef6ee" d="M6 17h1M6 18h1M5 19h2M22 22h1" />
<path stroke="#d5eee6" d="M5 18h1M24 18h1M7 19h1M23 19h2M6 20h2M23 20h1M7 21h1M10 21h1M14 21h1M18 21h1M23 21h1M10 22h1M14 22h1M18 22h1M14 23h1M18 23h1" />
</svg>