<svg xmlns="http://www.w3.org/2000/svg" viewBox="0 -0.5 40 40" shape-rendering="crispEdges">
<metadata>Made with Pixels to Svg https://codepen.io/shshaw/pen/XbxvNj</metadata>
<path stroke="#ffffff" d="M0 0h40M0 1h40M0 2h40M0 3h40M0 4h40M0 5h40M0 6h40M0 7h40M0 8h17M24 8h16M0 9h15M26 9h14M0 10h13M17 10h1M19 10h1M28 10h12M0 11h12M14 11h3M18 11h1M20 11h1M29 11h11M0 12h11M13 12h5M19 12h1M21 12h1M30 12h10M0 13h10M12 13h7M20 13h1M31 13h9M0 14h10M11 14h1M13 14h5M19 14h1M21 14h1M31 14h9M0 15h9M12 15h7M20 15h1M32 15h8M0 16h9M11 16h1M13 16h5M19 16h1M32 16h8M0 17h9M12 17h1M14 17h1M16 17h1M18 17h1M20 17h1M33 17h7M0 18h8M13 18h1M15 18h1M17 18h1M33 18h7M0 19h8M19 19h2M33 19h7M0 20h8M18 20h2M33 20h7M0 21h8M10 21h1M18 21h1M33 21h7M0 22h8M10 22h1M22 22h1M33 22h7M0 23h8M20 23h4M33 23h7M0 24h9M12 24h1M18 24h6M32 24h8M0 25h9M17 25h1M19 25h4M32 25h8M0 26h10M31 26h9M0 27h10M31 27h9M0 28h11M12 28h1M30 28h10M0 29h12M13 29h2M29 29h11M0 30h13M15 30h3M28 30h12M0 31h15M17 31h3M26 31h14M0 32h17M24 32h16M0 33h40M0 34h40M0 35h40M0 36h40M0 37h40M0 38h40M0 39h40" />
<path stroke="#ff4a42" d="M17 8h1M15 9h1M17 9h7M13 10h1M15 10h2M18 10h1M20 10h6M13 11h1M17 11h1M19 11h1M21 11h7M12 12h1M18 12h1M20 12h1M22 12h7M10 13h2M19 13h1M21 13h9M12 14h1M18 14h1M20 14h1M22 14h8M9 15h3M19 15h1M21 15h10M10 16h1M12 16h1M18 16h1M20 16h11M10 17h2M13 17h1M15 17h1M17 17h1M19 17h1M21 17h11M8 18h5M14 18h1M16 18h1M18 18h14M9 19h1M11 19h8M21 19h11M9 20h1M12 20h6M20 20h3M25 20h6M9 21h1M12 21h6M19 21h2M23 21h8M9 22h1M13 22h3M17 22h2M23 22h7M9 23h2M13 23h3M24 23h6M10 24h1M13 24h3M24 24h5M10 25h2M13 25h4M24 25h4M11 26h6M22 26h5M10 27h1M13 27h12M15 28h7" />
<path stroke="#000000" d="M18 8h6M16 9h1M24 9h2M14 10h1M26 10h2M12 11h1M28 11h1M11 12h1M29 12h1M30 13h1M10 14h1M30 14h1M31 15h1M9 16h1M31 16h1M9 17h1M32 17h1M32 18h1M8 19h1M10 19h1M32 19h1M8 20h1M11 20h1M23 20h2M31 20h2M8 21h1M11 21h1M21 21h2M31 21h2M8 22h1M12 22h1M16 22h1M19 22h2M30 22h1M32 22h1M8 23h1M11 23h2M16 23h3M30 23h1M32 23h1M9 24h1M11 24h1M16 24h1M29 24h1M31 24h1M9 25h1M12 25h1M18 25h1M28 25h1M31 25h1M10 26h1M17 26h5M27 26h1M30 26h1M11 27h2M25 27h2M30 27h1M11 28h1M13 28h2M22 28h3M29 28h1M12 29h1M15 29h7M28 29h1M13 30h2M26 30h2M15 31h2M24 31h2M17 32h7" />
<path stroke="#cebd8c" d="M10 20h1M11 22h1M21 22h1M31 22h1M19 23h1M31 23h1M17 24h1M30 24h1M23 25h1M29 25h2M28 26h2M27 27h3M25 28h4M22 29h6M18 30h8M20 31h4" />
</svg>