<svg xmlns="http://www.w3.org/2000/svg" viewBox="0 -0.5 40 40" shape-rendering="crispEdges">
<metadata>Made with Pixels to Svg https://codepen.io/shshaw/pen/XbxvNj</metadata>
<path stroke="#ffffff" d="M0 0h27M29 0h11M0 1h14M17 1h8M27 1h2M30 1h10M0 2h13M20 2h3M25 2h4M30 2h10M0 3h13M17 3h3M23 3h1M29 3h11M0 4h13M15 4h7M29 4h11M0 5h12M14 5h5M28 5h12M0 6h12M15 6h3M29 6h11M0 7h4M7 7h3M23 7h1M30 7h10M0 8h3M4 8h1M23 8h1M30 8h10M0 9h2M3 9h3M19 9h2M24 9h1M31 9h9M0 10h1M2 10h5M16 10h1M19 10h2M24 10h1M31 10h9M0 11h1M2 11h4M19 11h2M24 11h1M28 11h2M32 11h8M0 12h1M3 12h1M23 12h1M27 12h3M33 12h7M15 13h2M23 13h1M27 13h2M34 13h6M1 14h1M17 14h4M35 14h5M1 15h1M35 15h5M0 16h1M2 16h1M35 16h5M0 17h2M12 17h2M35 17h5M0 18h3M5 18h5M11 18h3M34 18h6M0 19h11M32 19h2M35 19h5M0 20h13M32 20h2M35 20h5M0 21h11M30 21h2M33 21h2M36 21h4M0 22h6M8 22h1M29 22h3M33 22h3M37 22h3M0 23h5M15 23h3M28 23h5M35 23h2M39 23h1M0 24h4M15 24h5M28 24h5M36 24h3M0 25h4M14 25h7M28 25h6M36 25h3M0 26h4M14 26h7M29 26h5M37 26h1M0 27h4M11 27h1M13 27h1M15 27h3M19 27h1M29 27h5M35 27h3M39 27h1M0 28h5M8 28h4M14 28h1M16 28h1M18 28h1M20 28h1M30 28h5M38 28h2M0 29h12M15 29h1M17 29h1M19 29h1M31 29h9M0 30h11M33 30h7M0 31h10M35 31h5M0 32h9M37 32h3M0 33h9M38 33h2M0 34h9M38 34h2M0 35h10M37 35h3M0 36h10M34 36h6M0 37h9M10 37h4M18 37h2M30 37h10M0 38h10M15 38h9M25 38h3M30 38h10M0 39h25M29 39h11" />
<path stroke="#734221" d="M27 0h1M14 1h1M25 1h1M19 2h1M23 2h1M15 3h1M13 4h2M22 4h1M21 5h1M4 7h1M29 7h1M16 8h1M21 8h1M15 9h1M21 9h2M1 10h1M21 10h2M30 10h1M16 11h1M21 11h2M18 12h4M24 12h2M0 13h1M22 13h1M31 13h2M21 14h1M25 14h1M31 14h4M8 15h1M22 15h1M24 15h1M30 15h4M9 16h1M22 16h2M29 16h5M28 17h6M3 18h1M16 18h3M21 18h4M26 18h6M15 19h1M17 19h6M25 19h6M34 19h1M14 20h3M18 20h12M13 21h2M16 21h13M6 22h1M11 22h4M16 22h12M6 23h2M9 23h5M19 23h7M38 23h1M4 24h5M10 24h4M21 24h4M26 24h1M5 25h4M10 25h3M22 25h5M5 26h3M9 26h2M22 26h7M5 27h2M23 27h5M34 27h1M23 28h6M35 28h1M25 29h4M23 30h6M30 30h1M12 31h1M23 31h6M30 31h3M9 32h1M11 32h2M22 32h8M31 32h4M10 33h1M12 33h2M22 33h8M31 33h6M10 34h5M22 34h8M31 34h6M10 35h6M18 35h1M21 35h1M23 35h7M31 35h3M13 36h5M20 36h2M23 36h7M14 37h1M24 37h2M28 37h1" />
<path stroke="#000000" d="M28 0h1M15 1h2M26 1h1M29 1h1M13 2h1M17 2h2M24 2h1M29 2h1M13 3h1M16 3h1M20 3h3M28 3h1M28 4h1M12 5h1M27 5h1M12 6h1M28 6h1M5 7h2M10 7h2M17 7h5M3 8h1M7 8h3M15 8h1M17 8h4M22 8h1M29 8h1M2 9h1M14 9h1M16 9h3M23 9h1M30 9h1M14 10h2M17 10h2M23 10h1M28 10h2M1 11h1M7 11h2M14 11h2M17 11h2M23 11h1M27 11h1M31 11h1M1 12h1M6 12h4M15 12h3M22 12h1M26 12h1M31 12h2M6 13h4M17 13h5M26 13h1M30 13h1M33 13h1M0 14h1M7 14h3M26 14h1M30 14h1M0 15h1M27 15h3M34 15h1M1 16h1M6 16h3M28 16h1M34 16h1M2 17h1M5 17h5M16 17h3M21 17h7M34 17h1M4 18h1M10 18h1M14 18h2M19 18h2M25 18h1M32 18h2M11 19h4M16 19h1M23 19h2M31 19h1M13 20h1M17 20h1M30 20h2M34 20h1M11 21h2M15 21h1M29 21h1M32 21h1M35 21h1M7 22h1M9 22h2M15 22h1M28 22h1M32 22h1M36 22h1M5 23h1M8 23h1M14 23h1M26 23h2M33 23h1M37 23h1M9 24h1M14 24h1M25 24h1M27 24h1M33 24h1M39 24h1M4 25h1M9 25h1M13 25h1M27 25h1M34 25h1M39 25h1M4 26h1M8 26h1M11 26h3M34 26h1M39 26h1M4 27h1M7 27h4M12 27h1M28 27h1M38 27h1M5 28h3M12 28h1M29 28h1M36 28h2M12 29h1M23 29h2M29 29h2M11 30h2M22 30h1M29 30h1M31 30h2M10 31h1M13 31h1M22 31h1M29 31h1M33 31h2M13 32h1M21 32h1M30 32h1M35 32h2M9 33h1M14 33h1M21 33h1M30 33h1M37 33h1M9 34h1M15 34h1M21 34h1M30 34h1M37 34h1M16 35h2M22 35h1M30 35h1M34 35h3M10 36h1M18 36h2M22 36h1M30 36h4M9 37h1M15 37h3M20 37h4M29 37h1M10 38h5M24 38h1M29 38h1M25 39h4" />
<path stroke="#b5845a" d="M14 2h3M14 3h1M24 3h4M23 4h5M13 5h1M19 5h2M22 5h5M13 6h2M18 6h10M12 7h5M22 7h1M24 7h5M5 8h2M10 8h5M24 8h5M6 9h8M25 9h5M7 10h7M25 10h3M6 11h1M9 11h5M25 11h2M30 11h1M2 12h1M4 12h2M10 12h5M30 12h1M1 13h5M10 13h5M24 13h2M29 13h1M2 14h5M10 14h7M22 14h3M27 14h3M2 15h6M9 15h13M23 15h1M25 15h2M3 16h3M10 16h12M24 16h4M3 17h2M10 17h2M14 17h2M19 17h2M18 23h1M34 23h1M20 24h1M34 24h2M21 25h1M35 25h1M21 26h1M35 26h2M38 26h1M14 27h1M18 27h1M20 27h3M13 28h1M15 28h1M17 28h1M19 28h1M21 28h2M13 29h2M16 29h1M18 29h1M20 29h3M13 30h9M11 31h1M14 31h8M10 32h1M14 32h7M11 33h1M15 33h6M16 34h5M19 35h2M11 36h2M26 37h2M28 38h1" />
</svg>