<svg xmlns="http://www.w3.org/2000/svg" viewBox="0 -0.5 48 48" shape-rendering="crispEdges">
<metadata>Made with Pixels to Svg https://codepen.io/shshaw/pen/XbxvNj</metadata>
<path stroke="#ffffff" d="M0 0h39M42 0h6M0 1h26M28 1h9M42 1h6M0 2h25M29 2h6M41 2h7M0 3h24M29 3h3M40 3h8M0 4h23M40 4h8M0 5h23M39 5h9M0 6h22M39 6h9M0 7h21M27 7h2M38 7h10M0 8h20M21 8h1M23 8h6M30 8h1M38 8h10M0 9h20M22 9h7M39 9h9M0 10h19M20 10h12M39 10h9M0 11h19M21 11h2M26 11h4M40 11h8M0 12h19M40 12h8M0 13h19M40 13h8M0 14h20M41 14h7M0 15h6M9 15h11M41 15h7M0 16h6M7 16h2M10 16h1M12 16h9M41 16h7M0 17h7M8 17h2M13 17h9M41 17h7M0 18h7M8 18h2M14 18h8M41 18h7M0 19h7M8 19h1M10 19h1M15 19h8M41 19h7M0 20h6M9 20h1M16 20h8M25 20h2M42 20h6M0 21h6M8 21h1M10 21h1M16 21h9M26 21h2M29 21h1M42 21h6M0 22h5M17 22h8M26 22h3M30 22h1M42 22h6M0 23h5M17 23h9M27 23h1M29 23h1M43 23h5M0 24h4M18 24h8M28 24h1M30 24h1M43 24h5M0 25h4M18 25h7M44 25h4M0 26h3M18 26h7M45 26h3M0 27h3M18 27h7M46 27h2M0 28h3M18 28h8M46 28h2M0 29h3M17 29h9M46 29h2M0 30h3M18 30h7M45 30h3M0 31h3M20 31h3M43 31h5M0 32h4M42 32h6M0 33h4M42 33h6M0 34h4M22 34h1M42 34h6M0 35h5M21 35h1M23 35h1M43 35h5M0 36h5M22 36h1M43 36h5M0 37h5M43 37h5M0 38h6M25 38h1M43 38h5M0 39h6M24 39h1M26 39h1M43 39h5M0 40h7M23 40h1M25 40h1M27 40h1M29 40h1M42 40h6M0 41h8M24 41h1M26 41h1M28 41h1M42 41h6M0 42h9M41 42h7M0 43h10M40 43h8M0 44h12M39 44h9M0 45h14M40 45h8M0 46h17M40 46h8M0 47h48" />
<path stroke="#000000" d="M39 0h1M38 1h1M25 2h1M28 2h1M35 2h2M40 2h1M28 3h1M32 3h3M39 3h1M27 4h5M39 4h1M23 5h3M38 5h1M23 6h1M38 6h1M21 7h2M30 7h2M37 7h1M20 8h1M22 8h1M29 8h1M31 8h1M37 8h1M20 9h1M29 9h2M38 9h1M19 10h1M38 10h1M19 11h1M23 11h3M39 11h1M19 12h1M22 12h1M25 12h2M39 12h1M19 13h1M39 13h1M20 14h1M40 14h1M7 15h1M20 15h1M40 15h1M6 16h1M9 16h1M11 16h1M21 16h1M40 16h1M7 17h1M10 17h1M22 17h1M40 17h1M7 18h1M22 18h1M40 18h1M14 19h1M23 19h1M40 19h1M6 20h1M15 20h1M24 20h1M41 20h1M6 21h1M15 21h1M25 21h1M41 21h1M5 22h1M16 22h1M25 22h1M41 22h1M5 23h1M16 23h1M26 23h1M42 23h1M4 24h1M17 24h1M26 24h1M42 24h1M4 25h1M17 25h1M43 25h1M3 26h1M17 26h1M25 26h1M29 26h1M43 26h2M3 27h1M14 27h1M17 27h1M25 27h1M30 27h1M45 27h1M3 28h1M15 28h1M17 28h1M26 28h1M30 28h1M45 28h1M3 29h1M16 29h1M26 29h1M30 29h1M40 29h2M45 29h1M3 30h1M17 30h1M25 30h1M27 30h3M41 30h4M3 31h1M18 31h2M23 31h2M42 31h1M4 32h1M20 32h3M41 32h1M4 33h1M41 33h1M4 34h1M41 34h1M5 35h1M42 35h1M5 36h1M42 36h1M5 37h1M42 37h1M6 38h1M42 38h1M6 39h1M42 39h1M7 40h1M41 40h1M8 41h1M41 41h1M9 42h1M40 42h1M10 43h2M39 43h1M12 44h2M21 44h3M37 44h2M14 45h2M20 45h1M24 45h1M34 45h3M39 45h1M17 46h23" />
<path stroke="#734a10" d="M40 0h2M26 1h2M37 1h1M41 1h1M27 2h1M24 3h1M27 3h1M38 3h1M23 4h1M26 4h1M32 4h2M36 4h3M26 5h12M22 6h1M24 6h4M33 6h5M24 7h2M29 7h1M34 7h3M35 8h2M21 9h1M31 9h1M35 9h3M35 10h3M20 11h1M30 11h2M34 11h5M34 12h5M20 13h1M30 13h2M36 13h3M37 14h3M6 15h1M38 15h2M38 16h2M12 17h1M39 17h1M10 18h1M13 18h1M39 18h1M7 19h1M14 20h1M8 23h1M10 23h3M40 23h1M6 24h2M9 24h1M11 24h4M41 24h1M5 25h4M10 25h1M12 25h4M25 25h1M4 26h4M9 26h1M11 26h6M4 27h7M15 27h2M27 27h3M42 27h3M4 28h5M16 28h1M27 28h3M42 28h3M4 29h4M27 29h3M42 29h3M4 30h3M14 30h3M4 31h3M12 31h1M14 31h1M16 31h2M25 31h1M5 32h1M11 32h1M13 32h1M15 32h2M24 32h3M5 33h1M10 33h3M14 33h1M19 33h3M24 33h3M5 34h1M10 34h4M18 34h1M20 34h1M24 34h4M9 35h5M17 35h1M19 35h1M25 35h5M40 35h2M6 36h1M9 36h4M17 36h2M20 36h1M25 36h8M38 36h4M6 37h1M9 37h4M16 37h4M26 37h16M9 38h4M16 38h4M27 38h15M9 39h4M16 39h4M28 39h13M10 40h3M16 40h5M30 40h10M10 41h4M17 41h4M32 41h6M11 42h3M17 42h5M12 43h3M18 43h6M14 44h2M19 44h2M16 45h2M25 45h2" />
<path stroke="#bdad21" d="M39 1h2M26 2h1M37 2h3M25 3h2M35 3h3M24 4h2M34 4h2M28 6h5M23 7h1M26 7h1M32 7h2M32 8h3M32 9h3M32 10h3M32 11h2M20 12h2M23 12h2M27 12h7M21 13h9M32 13h4M21 14h16M8 15h1M21 15h17M22 16h16M11 17h1M23 17h16M11 18h2M23 18h16M9 19h1M11 19h3M24 19h16M7 20h2M10 20h4M27 20h14M7 21h1M9 21h1M11 21h4M28 21h1M30 21h11M6 22h10M29 22h1M31 22h10M6 23h2M9 23h1M13 23h3M28 23h1M30 23h10M41 23h1M5 24h1M8 24h1M10 24h1M15 24h2M27 24h1M29 24h1M31 24h10M9 25h1M11 25h1M16 25h1M26 25h17M8 26h1M10 26h1M26 26h3M30 26h13M11 27h3M26 27h1M31 27h11M9 28h6M31 28h11M8 29h8M31 29h9M7 30h7M26 30h1M30 30h11M7 31h5M13 31h1M15 31h1M26 31h16M6 32h5M12 32h1M14 32h1M17 32h3M23 32h1M27 32h14M6 33h4M13 33h1M15 33h4M22 33h2M27 33h14M6 34h4M14 34h4M19 34h1M21 34h1M23 34h1M28 34h13M6 35h3M14 35h3M18 35h1M20 35h1M22 35h1M24 35h1M30 35h10M7 36h2M13 36h4M19 36h1M21 36h1M23 36h2M33 36h5M7 37h2M13 37h3M20 37h6M7 38h2M13 38h3M20 38h5M26 38h1M7 39h2M13 39h3M20 39h4M25 39h1M27 39h1M41 39h1M8 40h2M13 40h3M21 40h2M24 40h1M26 40h1M28 40h1M40 40h1M9 41h1M14 41h3M21 41h3M25 41h1M27 41h1M29 41h3M38 41h3M10 42h1M14 42h3M22 42h18M15 43h3M24 43h15M16 44h3M24 44h13M18 45h2M21 45h3M27 45h7M37 45h2" />
</svg>