<svg xmlns="http://www.w3.org/2000/svg" viewBox="0 -0.5 40 40" shape-rendering="crispEdges">
<metadata>Made with Pixels to Svg https://codepen.io/shshaw/pen/XbxvNj</metadata>
<path stroke="#ffffff" d="M0 0h31M36 0h4M0 1h29M36 1h4M0 2h25M29 2h1M36 2h4M0 3h25M27 3h2M31 3h1M36 3h4M0 4h25M30 4h2M36 4h4M0 5h22M26 5h1M30 5h1M34 5h6M0 6h22M23 6h1M27 6h1M34 6h6M0 7h6M8 7h2M12 7h10M28 7h1M34 7h6M0 8h4M9 8h1M13 8h9M30 8h10M0 9h2M14 9h1M17 9h5M25 9h1M30 9h10M0 10h1M18 10h3M26 10h1M30 10h10M0 11h2M3 11h1M18 11h3M28 11h6M38 11h2M0 12h3M4 12h2M19 12h2M27 12h4M34 12h4M39 12h1M0 13h4M5 13h1M19 13h1M26 13h3M31 13h1M33 13h1M35 13h1M37 13h1M39 13h1M0 14h5M6 14h1M11 14h1M24 14h2M34 14h1M36 14h1M39 14h1M0 15h8M10 15h2M38 15h2M0 16h17M37 16h3M0 17h17M36 17h4M0 18h14M35 18h5M0 19h11M35 19h5M0 20h9M11 20h1M25 20h2M35 20h5M0 21h7M10 21h1M25 21h2M36 21h4M0 22h6M7 22h1M9 22h1M37 22h3M0 23h5M6 23h1M8 23h1M10 23h1M16 23h2M37 23h3M0 24h5M6 24h2M9 24h1M16 24h2M38 24h2M0 25h6M38 25h2M0 26h9M38 26h2M0 27h12M38 27h2M0 28h12M37 28h3M0 29h12M37 29h3M0 30h12M36 30h4M0 31h13M37 31h3M0 32h13M37 32h3M0 33h14M37 33h3M0 34h15M31 34h2M36 34h4M0 35h16M29 35h11M0 36h18M26 36h14M0 37h21M26 37h14M0 38h22M25 38h15M0 39h40" />
<path stroke="#000000" d="M31 0h4M29 1h2M35 1h1M27 2h2M32 2h1M35 2h1M25 3h1M30 3h1M35 3h1M25 4h1M28 4h2M34 4h2M24 5h2M27 5h1M33 5h1M22 6h1M26 6h1M33 6h1M6 7h2M10 7h2M22 7h1M25 7h1M30 7h4M4 8h2M8 8h1M10 8h1M12 8h1M22 8h1M24 8h1M29 8h1M2 9h2M9 9h1M13 9h1M15 9h2M22 9h1M24 9h1M29 9h1M1 10h1M4 10h5M14 10h1M17 10h1M21 10h1M23 10h1M27 10h3M2 11h1M9 11h4M17 11h1M21 11h1M23 11h1M27 11h1M34 11h4M3 12h1M13 12h2M18 12h1M21 12h1M26 12h1M31 12h3M38 12h1M4 13h1M6 13h1M11 13h1M15 13h2M18 13h1M20 13h1M24 13h2M29 13h2M38 13h1M5 14h1M7 14h1M10 14h1M12 14h1M17 14h1M19 14h2M23 14h1M26 14h3M38 14h1M8 15h2M12 15h5M20 15h1M22 15h4M37 15h1M17 16h1M20 16h1M22 16h1M36 16h1M17 17h2M20 17h1M35 17h1M14 18h4M34 18h1M11 19h3M16 19h1M33 19h2M9 20h2M15 20h1M34 20h1M7 21h2M14 21h1M35 21h1M6 22h1M14 22h1M36 22h1M5 23h1M28 23h1M36 23h1M5 24h1M13 24h1M26 24h2M37 24h1M6 25h3M13 25h1M24 25h2M32 25h1M37 25h1M9 26h4M21 26h3M33 26h1M37 26h1M12 27h1M17 27h4M29 27h1M33 27h1M37 27h1M12 28h1M29 28h1M33 28h1M36 28h1M12 29h1M30 29h3M36 29h1M12 30h1M18 30h1M35 30h1M13 31h1M19 31h1M34 31h1M36 31h1M13 32h1M15 32h1M19 32h1M33 32h1M36 32h1M14 33h1M16 33h3M31 33h2M36 33h1M15 34h1M29 34h2M33 34h3M16 35h2M26 35h3M18 36h8M21 37h1M25 37h1M22 38h3" />
<path stroke="#5abd31" d="M35 0h1M31 1h4M25 2h2M30 2h2M33 2h2M26 3h1M29 3h1M32 3h3M26 4h2M32 4h2M22 5h2M28 5h2M31 5h2M24 6h2M28 6h5M23 7h2M26 7h2M29 7h1M6 8h2M11 8h1M23 8h1M25 8h4M4 9h5M10 9h3M23 9h1M26 9h3M2 10h2M9 10h5M15 10h2M22 10h1M24 10h2M4 11h5M13 11h4M22 11h1M24 11h3M6 12h7M15 12h3M22 12h4M7 13h4M12 13h3M17 13h1M21 13h3M8 14h2M13 14h4M18 14h1M21 14h2M17 15h3M21 15h1M18 16h2M21 16h1M19 17h1" />
<path stroke="#ad4219" d="M32 13h1M34 13h1M36 13h1M29 14h5M35 14h1M37 14h1M26 15h11M23 16h13M21 17h14M18 18h16M14 19h2M17 19h16M12 20h3M16 20h9M27 20h7M9 21h1M11 21h3M15 21h10M27 21h8M8 22h1M10 22h4M15 22h21M7 23h1M9 23h1M11 23h5M18 23h10M29 23h7M8 24h1M10 24h3M14 24h2M18 24h8M28 24h9M9 25h4M14 25h10M26 25h6M33 25h4M13 26h8M24 26h9M34 26h3M13 27h4M21 27h8M30 27h3M34 27h3M13 28h16M30 28h3M34 28h2M13 29h17M33 29h3M13 30h5M19 30h16M14 31h5M20 31h14M35 31h1M14 32h1M16 32h3M20 32h13M34 32h2M15 33h1M19 33h12M33 33h3M16 34h13M18 35h8M22 37h3" />
</svg>