<svg xmlns="http://www.w3.org/2000/svg" viewBox="0 -0.5 40 40" shape-rendering="crispEdges">
<metadata>Made with Pixels to Svg https://codepen.io/shshaw/pen/XbxvNj</metadata>
<path stroke="#ffffff" d="M0 0h40M0 1h40M0 2h40M0 3h6M9 3h13M25 3h15M0 4h5M10 4h10M26 4h14M0 5h4M12 5h7M27 5h13M0 6h4M6 6h1M16 6h2M23 6h1M27 6h13M0 7h3M6 7h2M22 7h3M28 7h12M0 8h3M5 8h4M21 8h5M28 8h12M0 9h3M5 9h3M21 9h5M28 9h3M34 9h6M0 10h4M6 10h1M21 10h4M28 10h2M31 10h2M35 10h5M0 11h4M22 11h1M27 11h2M30 11h2M36 11h4M0 12h5M16 12h2M26 12h3M30 12h1M37 12h3M0 13h1M4 13h2M7 13h1M16 13h2M24 13h4M37 13h3M0 14h1M2 14h2M14 14h1M16 14h2M38 14h2M0 15h2M4 15h3M18 15h2M22 15h5M28 15h1M38 15h2M0 16h4M7 16h1M12 16h11M27 16h2M38 16h2M0 17h6M7 17h6M16 17h4M23 17h7M34 17h1M38 17h2M0 18h7M8 18h1M17 18h2M23 18h8M33 18h2M38 18h2M0 19h8M9 19h3M17 19h2M23 19h12M38 19h2M0 20h8M9 20h3M17 20h1M24 20h10M38 20h2M0 21h9M11 21h1M16 21h2M24 21h10M37 21h3M0 22h10M15 22h2M18 22h1M25 22h9M37 22h3M0 23h9M12 23h3M17 23h3M26 23h7M37 23h3M0 24h8M15 24h4M26 24h6M36 24h4M0 25h7M13 25h6M27 25h4M36 25h4M0 26h7M10 26h1M12 26h6M19 26h2M27 26h2M35 26h5M0 27h8M9 27h3M13 27h4M18 27h4M34 27h6M0 28h8M9 28h2M12 28h5M18 28h1M20 28h1M33 28h7M0 29h9M10 29h2M13 29h4M20 29h1M31 29h9M0 30h10M13 30h6M29 30h11M0 31h9M14 31h4M29 31h11M0 32h9M15 32h3M28 32h12M0 33h10M17 33h2M28 33h12M0 34h9M28 34h12M0 35h8M9 35h3M16 35h4M27 35h13M0 36h7M8 36h1M10 36h1M13 36h8M22 36h2M27 36h13M0 37h8M11 37h9M21 37h1M23 37h1M26 37h14M0 38h21M22 38h1M24 38h16M0 39h40" />
<path stroke="#944a8c" d="M6 3h1M24 3h1M4 5h1M6 5h2M11 5h1M22 5h3M26 5h1M7 6h1M11 6h1M21 6h2M24 6h2M3 7h1M8 7h1M20 7h2M25 7h1M27 7h1M17 8h1M20 8h1M8 9h1M19 9h2M31 9h1M5 10h1M20 10h1M25 10h1M5 11h3M16 11h1M21 11h1M24 11h1M18 12h1M20 12h4M29 12h1M32 12h1M36 12h1M8 13h1M15 13h1M19 13h3M33 13h1M12 14h1M19 14h3M27 14h1M33 14h1M37 14h1M3 15h1M13 15h1M16 15h2M29 15h1M33 15h1M6 16h1M10 16h1M26 16h1M32 16h2M35 16h1M6 17h1M15 17h1M31 17h2M7 18h1M11 18h1M16 18h1M20 18h2M14 19h2M19 19h3M13 20h3M19 20h4M34 20h1M13 21h2M18 21h5M20 22h4M20 23h1M23 23h2M35 23h1M8 24h1M12 24h1M24 24h1M32 24h1M34 24h1M11 25h2M24 25h2M31 25h1M34 25h2M24 26h2M31 26h3M8 27h1M23 27h4M29 27h4M19 28h1M22 28h5M28 28h4M17 29h1M19 29h1M22 29h6M12 30h1M23 30h5M13 31h1M24 31h4M10 32h1M13 32h1M19 32h1M23 32h5M11 33h4M16 33h1M19 33h8M13 34h3M20 34h7M22 35h3M25 36h1" />
<path stroke="#000000" d="M7 3h2M22 3h2M5 4h1M9 4h1M20 4h2M25 4h1M10 5h1M19 5h1M4 6h1M12 6h4M18 6h1M26 6h1M10 7h2M16 7h2M3 8h1M9 8h1M27 8h1M3 9h1M27 9h1M32 9h2M4 10h1M7 10h1M27 10h1M30 10h1M34 10h1M4 11h1M17 11h1M26 11h1M29 11h1M35 11h1M5 12h3M15 12h1M24 12h2M33 12h1M1 13h3M6 13h1M14 13h1M22 13h2M28 13h1M32 13h1M34 13h1M36 13h1M1 14h1M4 14h5M13 14h1M15 14h1M22 14h5M28 14h1M32 14h1M34 14h1M2 15h1M7 15h1M14 15h2M20 15h2M27 15h1M34 15h1M37 15h1M4 16h2M23 16h3M29 16h1M34 16h1M37 16h1M13 17h2M21 17h2M30 17h1M33 17h1M35 17h1M37 17h1M12 18h4M22 18h1M31 18h2M35 18h1M37 18h1M8 19h1M12 19h2M16 19h1M22 19h1M35 19h1M37 19h1M8 20h1M12 20h1M16 20h1M18 20h1M23 20h1M37 20h1M9 21h1M12 21h1M15 21h1M23 21h1M34 21h1M36 21h1M10 22h5M17 22h1M24 22h1M34 22h1M36 22h1M9 23h1M11 23h1M15 23h2M25 23h1M33 23h1M36 23h1M13 24h2M19 24h1M25 24h1M33 24h1M35 24h1M7 25h1M19 25h1M23 25h1M26 25h1M32 25h1M7 26h1M11 26h1M18 26h1M23 26h1M26 26h1M29 26h2M34 26h1M12 27h1M17 27h1M22 27h1M27 27h2M33 27h1M8 28h1M11 28h1M17 28h1M21 28h1M27 28h1M32 28h1M9 29h1M12 29h1M18 29h1M21 29h1M28 29h3M10 30h2M19 30h2M28 30h1M9 31h1M18 31h1M28 31h1M9 32h1M14 32h1M18 32h1M10 33h1M15 33h1M27 33h1M9 34h1M11 34h2M16 34h4M27 34h1M8 35h1M13 35h3M20 35h2M25 35h2M7 36h1M9 36h1M11 36h2M21 36h1M26 36h1M8 37h1M10 37h1M20 37h1M22 37h1M24 37h2M21 38h1M23 38h1" />
<path stroke="#b57bf7" d="M6 4h3M22 4h3M5 5h1M8 5h2M20 5h2M25 5h1M5 6h1M8 6h3M19 6h2M4 7h2M9 7h1M12 7h4M18 7h2M26 7h1M4 8h1M10 8h7M18 8h2M26 8h1M4 9h1M9 9h10M26 9h1M8 10h12M26 10h1M33 10h1M8 11h8M18 11h3M23 11h1M25 11h1M32 11h3M8 12h7M19 12h1M31 12h1M34 12h2M9 13h5M18 13h1M29 13h3M35 13h1M9 14h3M18 14h1M29 14h3M35 14h2M8 15h5M30 15h3M35 15h2M8 16h2M11 16h1M30 16h2M36 16h1M20 17h1M36 17h1M9 18h2M19 18h1M36 18h1M36 19h1M35 20h2M10 21h1M35 21h1M19 22h1M35 22h1M10 23h1M21 23h2M34 23h1M9 24h3M20 24h4M8 25h3M20 25h3M33 25h1M8 26h2M21 26h2M21 30h2M10 31h3M19 31h5M11 32h2M20 32h3M10 34h1M12 35h1M24 36h1M9 37h1" />
</svg>