<svg xmlns="http://www.w3.org/2000/svg" viewBox="0 -0.5 40 40" shape-rendering="crispEdges">
<metadata>Made with Pixels to Svg https://codepen.io/shshaw/pen/XbxvNj</metadata>
<path stroke="#ffffff" d="M0 0h40M0 1h40M0 2h40M0 3h40M0 4h40M0 5h40M0 6h16M21 6h19M0 7h13M24 7h16M0 8h11M13 8h4M26 8h14M0 9h10M11 9h6M27 9h5M34 9h6M0 10h9M10 10h6M28 10h4M34 10h6M0 11h8M11 11h3M29 11h3M34 11h3M38 11h2M0 12h7M31 12h2M34 12h3M38 12h2M0 13h7M35 13h2M38 13h2M0 14h6M38 14h2M0 15h3M4 15h2M31 15h1M39 15h1M0 16h2M4 16h2M33 16h2M37 16h1M0 17h2M4 17h1M30 17h1M32 17h3M36 17h4M0 18h3M30 18h1M32 18h3M36 18h4M0 19h4M29 19h11M2 20h1M6 20h1M28 20h12M0 21h1M4 21h1M7 21h1M27 21h6M37 21h3M0 22h2M4 22h2M7 22h2M26 22h6M33 22h4M38 22h2M0 23h1M5 23h1M7 23h4M24 23h7M32 23h6M39 23h1M2 24h2M5 24h8M24 24h7M32 24h6M39 24h1M1 25h15M25 25h6M32 25h6M39 25h1M0 26h16M26 26h4M31 26h7M39 26h1M0 27h15M27 27h3M32 27h5M38 27h2M0 28h15M27 28h2M31 28h1M33 28h1M35 28h1M38 28h2M0 29h14M32 29h1M34 29h1M37 29h3M0 30h14M36 30h4M0 31h13M34 31h6M0 32h12M13 32h2M31 32h9M0 33h12M27 33h13M0 34h12M29 34h11M0 35h13M18 35h1M23 35h1M30 35h10M0 36h14M17 36h7M30 36h10M0 37h25M29 37h11M0 38h40M0 39h40" />
<path stroke="#524273" d="M16 6h1M13 7h1M11 8h1M10 9h1M33 9h1M9 10h1M33 10h1M8 11h1M37 11h1M7 12h1M24 12h1M28 12h3M31 13h2M34 13h1M6 14h1M35 14h1M37 14h1M3 15h1M19 15h1M33 15h1M38 15h1M2 16h1M15 16h1M31 16h1M35 16h1M2 17h1M10 17h1M5 18h1M4 19h1M6 19h1M3 20h1M2 21h1M2 23h1M4 23h1M21 23h1M0 24h1M16 24h2M18 26h3M17 28h1M21 28h2M18 29h4M13 31h2M17 31h1M22 31h2M12 32h1M18 32h5M27 32h1M25 34h2M25 35h1" />
<path stroke="#000000" d="M17 6h4M14 7h2M21 7h3M12 8h1M24 8h2M26 9h1M32 9h1M21 10h1M27 10h1M32 10h1M28 11h1M32 11h2M33 12h1M37 12h1M7 13h1M10 13h1M24 13h1M28 13h3M33 13h1M37 13h1M22 14h2M29 14h6M36 14h1M6 15h1M20 15h2M30 15h1M32 15h1M34 15h4M3 16h1M6 16h1M9 16h1M16 16h3M30 16h1M32 16h1M36 16h1M38 16h2M3 17h1M5 17h2M11 17h4M29 17h1M31 17h1M35 17h1M3 18h2M6 18h1M29 18h1M31 18h1M35 18h1M5 19h1M7 19h1M28 19h1M0 20h2M4 20h2M7 20h1M27 20h1M1 21h1M3 21h1M5 21h2M8 21h1M26 21h1M33 21h4M2 22h2M6 22h1M9 22h2M24 22h2M32 22h1M37 22h1M1 23h1M3 23h1M6 23h1M11 23h2M22 23h2M31 23h1M38 23h1M1 24h1M4 24h1M13 24h3M23 24h1M31 24h1M38 24h1M0 25h1M16 25h1M24 25h1M31 25h1M38 25h1M16 26h1M25 26h1M30 26h1M38 26h1M15 27h1M26 27h1M30 27h1M37 27h1M15 28h1M26 28h1M29 28h1M37 28h1M14 29h1M27 29h2M36 29h1M14 30h1M27 30h1M34 30h2M15 31h1M27 31h1M31 31h3M16 32h1M26 32h1M28 32h3M12 33h1M17 33h1M25 33h2M12 34h1M17 34h2M23 34h2M27 34h2M13 35h1M17 35h1M19 35h4M24 35h1M29 35h1M14 36h3M24 36h1M29 36h1M25 37h4" />
<path stroke="#84a5ce" d="M16 7h5M17 8h7M17 9h9M16 10h5M22 10h5M9 11h2M14 11h14M8 12h16M25 12h3M8 13h2M11 13h13M25 13h3M7 14h15M24 14h5M7 15h12M22 15h8M7 16h2M10 16h5M19 16h11M7 17h3M15 17h14M7 18h22M8 19h20M8 20h19M9 21h17M11 22h13M13 23h8M18 24h5M17 25h7M17 26h1M21 26h4M16 27h10M31 27h1M16 28h1M18 28h3M23 28h3M30 28h1M32 28h1M34 28h1M36 28h1M15 29h3M22 29h5M29 29h3M33 29h1M35 29h1M15 30h12M28 30h6M16 31h1M18 31h4M24 31h3M28 31h3M15 32h1M17 32h1M23 32h3M13 33h4M18 33h7M13 34h4M19 34h4M14 35h3M26 35h3M25 36h4" />
</svg>