<svg xmlns="http://www.w3.org/2000/svg" viewBox="0 -0.5 56 56" shape-rendering="crispEdges">
<metadata>Made with Pixels to Svg https://codepen.io/shshaw/pen/XbxvNj</metadata>
<path stroke="#ffffff" d="M0 0h38M41 0h15M0 1h37M38 1h2M41 1h15M0 2h19M22 2h15M39 2h2M42 2h14M0 3h16M19 3h3M24 3h12M40 3h1M42 3h14M0 4h14M16 4h2M22 4h2M26 4h6M34 4h2M40 4h1M42 4h14M0 5h14M24 5h2M27 5h4M32 5h1M35 5h1M42 5h14M0 6h15M25 6h1M28 6h3M32 6h1M42 6h14M0 7h16M26 7h1M28 7h2M31 7h1M42 7h14M0 8h16M37 8h2M42 8h14M0 9h16M39 9h2M42 9h14M0 10h15M40 10h2M43 10h13M0 11h15M41 11h1M44 11h12M0 12h15M42 12h1M44 12h12M0 13h15M34 13h1M44 13h12M0 14h15M35 14h1M47 14h9M0 15h3M5 15h11M31 15h2M35 15h1M44 15h2M47 15h9M0 16h3M4 16h1M6 16h3M12 16h4M32 16h2M42 16h2M46 16h10M0 17h3M4 17h2M9 17h2M12 17h6M31 17h1M33 17h1M46 17h10M0 18h3M9 18h2M12 18h8M33 18h1M45 18h11M0 19h3M12 19h10M23 19h1M33 19h1M45 19h11M0 20h2M13 20h8M45 20h11M0 21h2M4 21h2M12 21h1M14 21h5M22 21h1M45 21h11M0 22h2M4 22h2M12 22h1M19 22h2M45 22h11M0 23h2M11 23h3M15 23h3M19 23h1M47 23h9M0 24h2M10 24h2M45 24h2M49 24h7M0 25h3M8 25h1M46 25h2M49 25h7M0 26h4M22 26h1M47 26h2M50 26h6M0 27h5M21 27h2M48 27h1M50 27h6M0 28h6M21 28h2M48 28h1M50 28h6M0 29h8M12 29h7M20 29h2M23 29h1M33 29h2M50 29h6M0 30h19M20 30h1M22 30h1M32 30h2M35 30h1M43 30h2M50 30h6M0 31h19M20 31h2M31 31h4M42 31h2M49 31h7M0 32h19M20 32h1M31 32h3M40 32h2M49 32h7M0 33h20M30 33h2M38 33h6M48 33h8M0 34h20M30 34h1M37 34h3M48 34h8M0 35h15M17 35h4M36 35h2M47 35h9M0 36h14M16 36h1M18 36h3M32 36h2M35 36h2M47 36h9M0 37h7M10 37h4M17 37h1M19 37h1M25 37h1M35 37h1M47 37h9M0 38h6M7 38h1M17 38h1M24 38h1M26 38h1M47 38h9M0 39h6M8 39h2M23 39h1M25 39h1M48 39h8M0 40h7M12 40h2M19 40h1M24 40h1M26 40h1M34 40h1M46 40h2M49 40h7M0 41h7M18 41h2M25 41h1M27 41h1M34 41h2M46 41h3M50 41h6M0 42h8M18 42h2M47 42h2M50 42h6M0 43h9M18 43h2M36 43h2M51 43h5M0 44h10M17 44h1M49 44h1M51 44h5M0 45h12M17 45h4M50 45h1M52 45h4M0 46h14M47 46h1M49 46h2M52 46h4M0 47h16M43 47h4M50 47h1M52 47h4M0 48h17M52 48h4M0 49h18M52 49h4M0 50h17M51 50h5M0 51h16M17 51h2M51 51h5M0 52h16M29 52h10M51 52h5M0 53h21M23 53h2M27 53h12M40 53h1M49 53h1M51 53h5M0 54h22M23 54h1M25 54h13M39 54h3M48 54h3M52 54h4M0 55h23M24 55h14M42 55h6M52 55h4" />
<path stroke="#000000" d="M38 0h2M37 1h1M40 1h1M20 2h2M37 2h1M17 3h2M23 3h1M41 3h1M14 4h2M24 4h1M32 4h2M36 4h1M41 4h1M14 5h1M26 5h1M34 5h1M36 5h1M15 6h2M19 6h3M27 6h1M31 6h1M35 6h2M40 6h1M16 7h1M18 7h6M27 7h1M30 7h1M36 7h2M40 7h2M16 8h1M18 8h7M28 8h2M40 8h2M18 9h1M20 9h6M28 9h1M41 9h1M17 10h9M29 10h1M42 10h1M15 11h1M17 11h2M20 11h7M29 11h1M15 12h1M17 12h3M21 12h6M43 12h1M15 13h1M18 13h1M20 13h1M22 13h4M35 13h1M43 13h1M18 14h2M21 14h1M23 14h2M31 14h2M44 14h3M16 15h1M19 15h2M22 15h2M30 15h1M33 15h1M36 15h1M42 15h2M46 15h1M3 16h1M5 16h1M9 16h2M17 16h1M22 16h2M29 16h3M36 16h1M40 16h2M45 16h1M3 17h1M6 17h3M11 17h1M18 17h2M29 17h2M32 17h1M34 17h1M45 17h1M3 18h2M8 18h1M11 18h1M20 18h4M30 18h2M34 18h1M44 18h1M3 19h1M9 19h3M22 19h1M32 19h1M44 19h1M2 20h1M4 20h3M12 20h1M21 20h1M28 20h1M42 20h3M2 21h2M6 21h1M13 21h1M20 21h2M28 21h1M44 21h1M2 22h2M6 22h1M14 22h5M21 22h1M29 22h1M44 22h1M2 23h1M4 23h2M14 23h1M18 23h1M27 23h1M30 23h1M37 23h1M43 23h4M14 24h1M19 24h1M23 24h1M28 24h1M31 24h3M38 24h1M43 24h1M3 25h1M14 25h1M19 25h1M22 25h2M29 25h1M34 25h2M41 25h2M48 25h1M4 26h1M14 26h1M19 26h1M21 26h1M24 26h1M30 26h2M36 26h6M5 27h1M13 27h1M18 27h1M20 27h1M24 27h1M32 27h9M49 27h1M7 28h1M12 28h7M20 28h1M25 28h1M33 28h2M39 28h2M43 28h3M49 28h1M9 29h3M19 29h1M25 29h1M32 29h1M40 29h1M42 29h1M46 29h2M49 29h1M19 30h1M31 30h1M40 30h2M47 30h1M19 31h1M26 31h1M30 31h1M40 31h2M48 31h1M26 32h1M30 32h1M38 32h2M42 32h2M48 32h1M20 33h1M26 33h1M29 33h1M36 33h2M44 33h1M47 33h1M20 34h1M25 34h1M29 34h1M35 34h1M45 34h1M47 34h1M15 35h2M21 35h1M24 35h1M29 35h1M31 35h4M46 35h1M17 36h1M21 36h3M29 36h1M31 36h1M34 36h1M46 36h1M8 37h2M14 37h1M18 37h1M20 37h3M30 37h1M32 37h1M46 37h1M6 38h1M10 38h5M18 38h2M22 38h1M30 38h1M33 38h1M45 38h2M6 39h1M11 39h2M14 39h1M18 39h1M22 39h1M31 39h1M33 39h2M45 39h3M7 40h1M10 40h1M15 40h1M17 40h1M32 40h2M35 40h1M44 40h1M7 41h1M9 41h1M17 41h1M33 41h1M36 41h1M43 41h1M8 42h2M17 42h1M23 42h1M25 42h1M33 42h5M41 42h2M49 42h1M9 43h1M16 43h2M22 43h2M27 43h2M35 43h1M38 43h3M50 43h1M10 44h2M16 44h1M18 44h4M23 44h1M30 44h9M40 44h1M48 44h1M50 44h1M12 45h2M16 45h1M24 45h1M37 45h1M41 45h1M47 45h2M14 46h3M24 46h1M37 46h1M43 46h4M51 46h1M16 47h1M25 47h1M37 47h1M51 47h1M17 48h1M25 48h2M37 48h1M51 48h1M18 49h1M22 49h4M27 49h2M38 49h1M17 50h5M26 50h1M28 50h3M38 50h2M43 50h5M50 50h1M16 51h1M19 51h1M27 51h1M29 51h10M40 51h3M48 51h3M16 52h5M27 52h2M39 52h1M50 52h1M21 53h2M25 53h2M39 53h1M41 53h1M48 53h1M50 53h1M22 54h1M24 54h1M38 54h1M42 54h6M51 54h1M23 55h1M38 55h4M48 55h4" />
<path stroke="#3a84ce" d="M40 0h1M19 2h1M38 2h1M41 2h1M16 3h1M22 3h1M36 3h4M18 4h4M25 4h1M37 4h3M15 5h9M31 5h1M33 5h1M37 5h5M17 6h2M22 6h3M26 6h1M33 6h2M37 6h3M41 6h1M17 7h1M24 7h2M32 7h4M38 7h2M17 8h1M25 8h3M30 8h7M39 8h1M16 9h2M26 9h2M29 9h10M15 10h2M26 10h3M30 10h10M16 11h1M27 11h2M30 11h11M42 11h2M16 12h1M27 12h15M16 13h2M26 13h8M36 13h7M15 14h3M25 14h6M33 14h2M36 14h8M3 15h2M17 15h2M24 15h6M34 15h1M37 15h5M11 16h1M16 16h1M18 16h4M24 16h5M34 16h2M37 16h3M44 16h1M20 17h9M35 17h10M5 18h3M24 18h6M32 18h1M35 18h9M4 19h5M24 19h3M28 19h4M34 19h10M3 20h1M7 20h5M22 20h4M29 20h13M7 21h5M19 21h1M23 21h3M29 21h15M7 22h5M13 22h1M22 22h5M30 22h14M3 23h1M6 23h5M20 23h7M31 23h6M38 23h5M2 24h8M12 24h2M15 24h4M20 24h3M24 24h4M34 24h4M39 24h4M44 24h1M47 24h2M4 25h4M9 25h5M15 25h4M20 25h2M24 25h5M36 25h5M43 25h3M5 26h9M15 26h4M20 26h1M25 26h5M42 26h5M49 26h1M6 27h7M14 27h4M19 27h1M25 27h7M41 27h7M6 28h1M8 28h4M19 28h1M26 28h7M41 28h2M46 28h2M8 29h1M26 29h6M41 29h1M43 29h3M48 29h1M26 30h5M42 30h1M45 30h2M48 30h2M27 31h3M44 31h4M19 32h1M27 32h3M44 32h4M27 33h2M45 33h2M26 34h3M36 34h1M40 34h5M46 34h1M25 35h4M35 35h1M38 35h8M14 36h2M24 36h5M37 36h9M7 37h1M15 37h2M23 37h2M26 37h4M33 37h2M36 37h10M8 38h2M15 38h2M20 38h2M23 38h1M25 38h1M27 38h3M34 38h11M7 39h1M10 39h1M13 39h1M15 39h3M19 39h3M24 39h1M26 39h5M35 39h10M8 40h2M11 40h1M14 40h1M16 40h1M18 40h1M20 40h4M25 40h1M27 40h5M36 40h8M45 40h1M48 40h1M8 41h1M10 41h7M20 41h5M26 41h1M28 41h5M37 41h6M44 41h2M49 41h1M10 42h7M20 42h3M26 42h7M38 42h3M43 42h4M10 43h6M20 43h2M26 43h1M29 43h6M41 43h9M12 44h4M22 44h1M24 44h1M29 44h1M39 44h1M41 44h7M14 45h2M21 45h3M25 45h1M38 45h3M42 45h5M49 45h1M51 45h1M17 46h7M26 46h1M38 46h5M48 46h1M17 47h8M26 47h3M38 47h5M47 47h3M18 48h7M29 48h8M38 48h13M19 49h3M26 49h1M39 49h13M22 50h4M27 50h1M31 50h1M40 50h3M48 50h2M20 51h7M28 51h1M39 51h1M43 51h5M21 52h6M40 52h10M42 53h6" />
<path stroke="#b5ad31" d="M19 9h1M19 11h1M20 12h1M19 13h1M21 13h1M20 14h1M22 14h1M21 15h1M27 19h1M26 20h2M26 21h2M27 22h2M28 23h2M29 24h2M30 25h4M23 26h1M32 26h4M23 27h1M23 28h2M35 28h4M22 29h1M24 29h1M35 29h5M21 30h1M23 30h3M34 30h1M36 30h4M22 31h4M35 31h5M21 32h5M34 32h4M21 33h5M32 33h4M21 34h4M31 34h4M22 35h2M30 35h1M30 36h1M31 37h1M31 38h2M32 39h1M24 42h1M24 43h2M25 44h4M26 45h11M25 46h1M27 46h10M29 47h8M27 48h2M29 49h9M32 50h6" />
</svg>