<svg xmlns="http://www.w3.org/2000/svg" viewBox="0 -0.5 48 48" shape-rendering="crispEdges">
<metadata>Made with Pixels to Svg https://codepen.io/shshaw/pen/XbxvNj</metadata>
<path stroke="#ffffff" d="M0 0h48M0 1h48M0 2h48M0 3h48M0 4h13M14 4h6M24 4h2M30 4h18M0 5h18M20 5h1M22 5h1M32 5h16M0 6h1M2 6h15M19 6h1M21 6h1M26 6h2M35 6h4M40 6h8M0 7h9M10 7h6M18 7h1M20 7h1M22 7h3M34 7h1M37 7h7M46 7h2M0 8h8M9 8h1M11 8h5M21 8h1M23 8h1M29 8h1M31 8h1M33 8h1M35 8h1M38 8h6M46 8h2M0 9h8M11 9h4M17 9h2M22 9h1M28 9h1M30 9h1M32 9h1M36 9h1M39 9h9M0 10h3M5 10h3M9 10h1M12 10h3M17 10h2M31 10h1M37 10h1M39 10h9M0 11h3M5 11h3M10 11h1M13 11h1M36 11h1M40 11h8M0 12h9M11 12h1M30 12h2M40 12h8M0 13h9M10 13h1M12 13h1M30 13h2M40 13h8M0 14h1M2 14h8M39 14h4M44 14h4M0 15h11M39 15h9M0 16h6M8 16h4M38 16h10M0 17h6M8 17h5M39 17h9M0 18h11M41 18h4M46 18h2M0 19h10M42 19h6M0 20h9M17 20h1M43 20h5M0 21h9M10 21h1M15 21h2M41 21h1M43 21h5M0 22h8M9 22h1M11 22h1M13 22h3M37 22h1M40 22h1M42 22h1M44 22h4M0 23h8M10 23h1M13 23h2M37 23h2M41 23h1M44 23h4M0 24h8M9 24h1M32 24h1M37 24h2M40 24h1M43 24h5M0 25h8M33 25h1M36 25h3M41 25h1M43 25h5M0 26h1M2 26h6M32 26h1M34 26h1M36 26h3M40 26h1M42 26h6M0 27h9M10 27h2M18 27h2M31 27h1M33 27h1M36 27h4M41 27h7M0 28h14M20 28h3M36 28h12M0 29h4M5 29h4M12 29h2M23 29h2M36 29h12M0 30h8M13 30h1M25 30h3M37 30h5M43 30h5M0 31h8M14 31h1M25 31h1M27 31h1M39 31h9M0 32h2M4 32h4M14 32h1M25 32h1M27 32h1M40 32h4M46 32h2M0 33h2M4 33h5M27 33h1M40 33h4M46 33h2M0 34h9M33 34h2M40 34h8M0 35h10M18 35h2M27 35h1M32 35h4M39 35h9M0 36h10M17 36h6M31 36h17M0 37h11M16 37h8M29 37h19M0 38h12M15 38h9M27 38h12M40 38h8M0 39h23M27 39h21M0 40h22M27 40h21M0 41h22M28 41h20M0 42h23M29 42h19M0 43h23M30 43h18M0 44h24M30 44h18M0 45h25M29 45h19M0 46h48M0 47h48" />
<path stroke="#ff733a" d="M13 4h1M21 5h1M23 5h1M26 5h4M1 6h1M18 6h1M20 6h1M24 6h2M28 6h4M39 6h1M17 7h1M19 7h1M25 7h8M44 7h2M17 8h3M22 8h1M24 8h5M30 8h1M32 8h1M36 8h1M44 8h2M9 9h1M16 9h1M19 9h1M21 9h1M23 9h5M29 9h1M31 9h1M33 9h1M35 9h1M37 9h1M3 10h2M10 10h1M16 10h1M20 10h11M32 10h3M36 10h1M3 11h2M9 11h1M11 11h1M15 11h4M20 11h15M37 11h2M10 12h1M12 12h1M15 12h4M20 12h10M32 12h3M36 12h3M11 13h1M13 13h1M15 13h4M20 13h10M32 13h3M36 13h3M1 14h1M11 14h4M16 14h4M21 14h13M35 14h3M43 14h1M12 15h4M17 15h3M21 15h13M35 15h3M6 16h2M15 16h2M19 16h2M22 16h11M34 16h3M6 17h2M18 17h1M23 17h9M33 17h2M13 18h8M25 18h5M36 18h3M45 18h1M11 19h6M30 19h3M35 19h6M10 20h5M30 20h5M36 20h6M11 21h2M30 21h5M38 21h3M10 22h1M31 22h5M39 22h1M41 22h1M9 23h1M32 23h4M40 23h1M42 23h1M10 24h1M33 24h3M41 24h1M9 25h1M17 25h3M32 25h1M34 25h1M40 25h1M1 26h1M9 26h1M16 26h2M20 26h3M33 26h1M16 27h2M23 27h2M32 27h1M17 28h3M25 28h2M30 28h2M4 29h1M19 29h4M27 29h2M22 30h3M28 30h1M42 30h1M26 31h1M2 32h2M44 32h2M2 33h2M44 33h2M39 38h1" />
<path stroke="#000000" d="M20 4h4M26 4h4M18 5h2M24 5h2M30 5h2M17 6h1M22 6h2M32 6h3M9 7h1M16 7h1M21 7h1M33 7h1M35 7h2M8 8h1M10 8h1M16 8h1M20 8h1M34 8h1M37 8h1M8 9h1M10 9h1M15 9h1M20 9h1M34 9h1M38 9h1M8 10h1M11 10h1M15 10h1M35 10h1M38 10h1M8 11h1M12 11h1M14 11h1M19 11h1M35 11h1M39 11h1M9 12h1M13 12h2M19 12h1M35 12h1M39 12h1M9 13h1M14 13h1M35 13h1M39 13h1M10 14h1M15 14h1M20 14h1M34 14h1M38 14h1M11 15h1M16 15h1M20 15h1M34 15h1M38 15h1M12 16h3M17 16h2M21 16h1M33 16h1M37 16h1M13 17h4M20 17h3M32 17h1M36 17h3M11 18h2M21 18h4M30 18h6M39 18h2M10 19h1M17 19h13M34 19h1M41 19h1M9 20h1M15 20h2M18 20h2M27 20h3M35 20h1M42 20h1M9 21h1M13 21h2M17 21h1M22 21h1M29 21h1M35 21h3M42 21h1M8 22h1M12 22h1M16 22h1M18 22h4M27 22h1M30 22h1M36 22h1M38 22h1M43 22h1M8 23h1M11 23h2M15 23h1M27 23h1M30 23h2M36 23h1M39 23h1M43 23h1M8 24h1M11 24h1M14 24h2M18 24h2M27 24h2M31 24h1M36 24h1M39 24h1M42 24h1M8 25h1M10 25h3M14 25h1M20 25h3M29 25h3M35 25h1M39 25h1M42 25h1M8 26h1M10 26h5M18 26h2M23 26h2M31 26h1M35 26h1M39 26h1M41 26h1M9 27h1M12 27h3M20 27h3M25 27h2M30 27h1M34 27h2M40 27h1M14 28h2M23 28h2M27 28h2M32 28h4M9 29h3M14 29h2M17 29h2M25 29h2M29 29h3M34 29h2M8 30h1M12 30h1M14 30h3M18 30h1M20 30h2M29 30h2M36 30h1M8 31h1M13 31h1M15 31h3M19 31h1M21 31h4M29 31h1M31 31h1M33 31h1M37 31h2M8 32h4M13 32h1M16 32h3M20 32h1M22 32h1M24 32h1M26 32h1M28 32h1M30 32h1M32 32h3M39 32h1M9 33h3M14 33h8M23 33h1M25 33h1M29 33h7M39 33h1M9 34h4M14 34h1M16 34h11M28 34h5M35 34h5M10 35h3M16 35h2M21 35h6M28 35h4M36 35h3M10 36h4M15 36h2M23 36h7M11 37h5M24 37h5M12 38h3M24 38h3M23 39h4M22 40h5M22 41h3M27 41h1M23 42h2M28 42h1M23 43h3M29 43h1M24 44h3M29 44h1M25 45h4" />
<path stroke="#424a6b" d="M19 10h1M19 13h1M17 17h1M19 17h1M35 17h1M33 19h1M20 20h7M18 21h4M23 21h6M17 22h1M22 22h5M28 22h2M16 23h11M28 23h2M12 24h2M16 24h2M20 24h7M29 24h2M13 25h1M15 25h2M23 25h6M15 26h1M25 26h6M15 27h1M27 27h3M16 28h1M29 28h1M16 29h1M32 29h2M9 30h3M17 30h1M19 30h1M31 30h5M9 31h4M18 31h1M20 31h1M28 31h1M30 31h1M32 31h1M34 31h3M12 32h1M15 32h1M19 32h1M21 32h1M23 32h1M29 32h1M31 32h1M35 32h4M12 33h2M22 33h1M24 33h1M26 33h1M28 33h1M36 33h3M13 34h1M15 34h1M27 34h1M13 35h3M20 35h1M14 36h1M30 36h1M25 41h2M25 42h3M26 43h3M27 44h2" />
</svg>