<svg xmlns="http://www.w3.org/2000/svg" viewBox="0 -0.5 40 40" shape-rendering="crispEdges">
<metadata>Made with Pixels to Svg https://codepen.io/shshaw/pen/XbxvNj</metadata>
<path stroke="#ffffff" d="M0 0h27M30 0h10M0 1h5M9 1h17M32 1h8M0 2h4M11 2h14M33 2h7M0 3h3M12 3h13M34 3h6M0 4h3M12 4h13M35 4h5M0 5h3M15 5h11M35 5h5M0 6h4M13 6h2M16 6h5M22 6h4M36 6h4M0 7h5M11 7h1M14 7h2M17 7h1M19 7h1M21 7h1M23 7h1M26 7h1M38 7h2M0 8h4M10 8h1M12 8h1M15 8h1M18 8h1M20 8h2M24 8h2M29 8h1M39 8h1M0 9h3M9 9h2M12 9h1M16 9h3M20 9h2M23 9h2M29 9h1M0 10h3M8 10h3M12 10h1M14 10h11M29 10h1M0 11h2M8 11h3M13 11h12M29 11h2M0 12h2M9 12h1M12 12h14M30 12h3M39 12h1M0 13h2M12 13h13M30 13h3M39 13h1M0 14h3M11 14h1M14 14h6M21 14h2M31 14h3M39 14h1M0 15h4M11 15h1M13 15h1M16 15h3M20 15h2M23 15h1M31 15h3M39 15h1M0 16h6M11 16h1M13 16h1M15 16h1M18 16h1M20 16h1M22 16h2M32 16h2M39 16h1M0 17h8M11 17h1M17 17h1M22 17h2M32 17h2M39 17h1M0 18h5M8 18h1M11 18h2M39 18h1M0 19h4M5 19h3M11 19h2M39 19h1M0 20h4M8 20h2M11 20h3M38 20h2M0 21h3M10 21h1M13 21h1M38 21h2M0 22h3M38 22h2M0 23h2M31 23h2M37 23h3M0 24h1M31 24h2M37 24h3M30 25h2M36 25h4M11 26h1M36 26h4M0 27h1M10 27h3M35 27h5M0 28h2M9 28h4M34 28h6M0 29h4M9 29h5M15 29h2M19 29h1M32 29h8M0 30h5M10 30h11M22 30h2M30 30h10M0 31h5M10 31h13M29 31h11M0 32h6M9 32h12M27 32h13M0 33h20M30 33h10M0 34h20M32 34h8M0 35h21M33 35h7M0 36h23M33 36h7M0 37h24M29 37h1M32 37h8M0 38h25M29 38h11M0 39h26M28 39h12" />
<path stroke="#9c4a3a" d="M27 0h1M5 1h1M8 1h1M10 2h1M25 2h1M3 3h3M11 3h1M26 3h1M29 3h1M32 3h1M4 4h2M7 4h1M26 4h5M32 4h2M4 5h1M6 5h2M9 5h2M14 5h1M27 5h4M32 5h2M7 6h1M9 6h2M21 6h1M28 6h2M6 7h1M32 7h4M5 8h4M16 8h1M26 8h1M35 8h3M3 9h2M6 9h1M13 9h1M15 9h1M19 9h1M22 9h1M25 9h1M38 9h1M5 10h1M13 10h1M31 10h2M38 10h1M2 11h1M4 11h1M6 11h1M12 11h1M25 11h1M34 11h2M37 11h2M11 12h1M28 12h1M36 12h1M11 13h1M34 13h4M10 14h1M20 14h1M25 14h1M35 14h3M10 15h1M12 15h1M19 15h1M24 15h1M36 15h1M9 16h1M12 16h1M19 16h1M24 16h1M31 16h1M35 16h1M37 16h1M9 17h1M24 17h1M29 17h1M5 18h1M15 18h1M19 18h1M21 18h2M28 18h1M4 19h1M15 19h4M20 19h1M27 19h1M6 20h1M17 20h4M27 20h1M3 21h1M5 21h1M7 21h1M11 21h1M4 22h1M6 22h1M12 22h1M2 23h1M5 23h2M12 23h1M5 24h1M10 24h1M12 24h1M0 25h1M4 25h1M10 25h1M25 25h2M33 25h1M3 26h2M7 26h1M9 26h1M24 26h1M27 26h1M32 26h1M34 26h1M2 27h4M7 27h2M15 27h1M23 27h1M26 27h1M28 27h1M30 27h4M4 28h4M13 28h1M19 28h1M21 28h1M25 28h1M27 28h1M30 28h2M5 29h2M14 29h1M26 29h1M28 29h1M7 30h1M21 30h1M25 30h4M6 31h1M8 31h1M24 31h3M21 32h1M23 32h3M21 33h4M21 34h8M22 35h3M28 35h2M24 36h2M29 36h1M25 37h1M26 38h2" />
<path stroke="#000000" d="M28 0h2M6 1h2M26 1h1M30 1h2M4 2h1M9 2h1M32 2h1M25 3h1M30 3h1M33 3h1M3 4h1M6 4h1M8 4h1M11 4h1M25 4h1M31 4h1M34 4h1M3 5h1M5 5h1M8 5h1M11 5h3M26 5h1M31 5h1M34 5h1M4 6h3M8 6h1M11 6h2M15 6h1M26 6h2M30 6h6M5 7h1M7 7h4M12 7h2M16 7h1M18 7h1M20 7h1M22 7h1M24 7h2M28 7h4M36 7h2M4 8h1M9 8h1M11 8h1M13 8h2M17 8h1M19 8h1M22 8h2M28 8h1M30 8h1M38 8h1M8 9h1M11 9h1M14 9h1M26 9h1M28 9h1M30 9h1M33 9h1M36 9h1M39 9h1M3 10h1M7 10h1M11 10h1M25 10h2M28 10h1M30 10h1M33 10h1M36 10h1M39 10h1M7 11h1M11 11h1M28 11h1M31 11h3M36 11h1M39 11h1M2 12h1M7 12h2M10 12h1M29 12h1M33 12h3M37 12h2M2 13h1M9 13h2M29 13h1M33 13h1M38 13h1M3 14h1M12 14h2M23 14h2M30 14h1M34 14h1M38 14h1M4 15h2M14 15h2M22 15h1M30 15h1M34 15h1M38 15h1M6 16h2M14 16h1M16 16h2M21 16h1M34 16h1M38 16h1M8 17h1M13 17h3M18 17h4M30 17h2M34 17h1M38 17h1M6 18h2M9 18h1M14 18h1M16 18h1M20 18h1M31 18h3M38 18h1M8 19h2M14 19h1M19 19h1M21 19h1M38 19h1M4 20h1M10 20h1M15 20h2M21 20h1M37 20h1M17 21h4M29 21h2M35 21h3M3 22h1M7 22h3M31 22h4M37 22h1M3 23h2M7 23h1M10 23h1M30 23h1M33 23h1M36 23h1M1 24h1M4 24h1M6 24h1M11 24h1M30 24h1M33 24h1M36 24h1M5 25h2M11 25h1M29 25h1M32 25h1M35 25h1M0 26h1M5 26h2M10 26h1M12 26h1M28 26h4M35 26h1M1 27h1M6 27h1M9 27h1M13 27h1M29 27h1M34 27h1M2 28h2M8 28h1M15 28h2M23 28h1M29 28h1M32 28h2M4 29h1M8 29h1M17 29h2M20 29h1M22 29h3M29 29h3M5 30h1M9 30h1M24 30h1M29 30h1M5 31h1M9 31h1M23 31h1M27 31h2M6 32h3M22 32h1M26 32h1M20 33h1M25 33h5M20 34h1M30 34h2M21 35h1M26 35h2M32 35h1M23 36h1M28 36h1M32 36h1M24 37h1M28 37h1M30 37h2M25 38h1M28 38h1M26 39h2" />
<path stroke="#efa55a" d="M27 1h3M5 2h4M26 2h6M6 3h5M27 3h2M31 3h1M9 4h2M27 7h1M27 8h1M31 8h4M5 9h1M7 9h1M27 9h1M31 9h2M34 9h2M37 9h1M4 10h1M6 10h1M27 10h1M34 10h2M37 10h1M3 11h1M5 11h1M26 11h2M3 12h4M26 12h2M3 13h6M25 13h4M4 14h6M26 14h4M6 15h4M25 15h5M35 15h1M37 15h1M8 16h1M10 16h1M25 16h6M36 16h1M10 17h1M12 17h1M16 17h1M25 17h4M35 17h3M10 18h1M13 18h1M17 18h2M23 18h5M29 18h2M34 18h4M10 19h1M13 19h1M22 19h5M28 19h10M5 20h1M7 20h1M14 20h1M22 20h5M28 20h9M4 21h1M6 21h1M8 21h2M12 21h1M14 21h3M21 21h8M31 21h4M5 22h1M10 22h2M13 22h18M35 22h2M8 23h2M11 23h1M13 23h17M34 23h2M2 24h2M7 24h3M13 24h17M34 24h2M1 25h3M7 25h3M12 25h13M27 25h2M34 25h1M1 26h2M8 26h1M13 26h11M25 26h2M33 26h1M14 27h1M16 27h7M24 27h2M27 27h1M14 28h1M17 28h2M20 28h1M22 28h1M24 28h1M26 28h1M28 28h1M7 29h1M21 29h1M25 29h1M27 29h1M6 30h1M8 30h1M7 31h1M29 34h1M25 35h1M30 35h2M26 36h2M30 36h2M26 37h2" />
</svg>