<svg xmlns="http://www.w3.org/2000/svg" viewBox="0 -0.5 48 48" shape-rendering="crispEdges">
<metadata>Made with Pixels to Svg https://codepen.io/shshaw/pen/XbxvNj</metadata>
<path stroke="#ffffff" d="M0 0h48M0 1h48M0 2h6M9 2h39M0 3h5M6 3h3M10 3h38M0 4h4M5 4h5M11 4h37M0 5h4M5 5h5M11 5h6M20 5h28M0 6h5M6 6h5M12 6h4M17 6h3M21 6h27M0 7h6M8 7h4M13 7h2M16 7h5M22 7h26M0 8h7M11 8h2M15 8h6M22 8h26M0 9h2M6 9h2M15 9h5M21 9h4M28 9h20M0 10h1M2 10h4M16 10h2M20 10h3M30 10h18M1 11h7M18 11h4M24 11h3M31 11h17M1 12h6M18 12h4M23 12h1M27 12h1M34 12h14M0 13h1M2 13h3M17 13h4M22 13h1M24 13h1M28 13h1M36 13h12M0 14h2M18 14h1M22 14h1M28 14h1M40 14h8M0 15h7M8 15h1M22 15h1M28 15h1M42 15h6M0 16h5M7 16h2M23 16h1M27 16h1M38 16h3M43 16h5M0 17h4M5 17h4M24 17h3M37 17h1M41 17h1M44 17h4M0 18h3M4 18h4M36 18h1M38 18h1M42 18h1M44 18h4M0 19h3M4 19h2M10 19h3M24 19h6M36 19h1M44 19h4M0 20h3M9 20h5M22 20h10M36 20h1M44 20h4M0 21h4M8 21h8M21 21h3M31 21h3M37 21h1M43 21h5M0 22h16M20 22h3M33 22h2M38 22h2M43 22h5M0 23h16M19 23h2M26 23h4M34 23h2M43 23h5M0 24h15M19 24h2M24 24h8M35 24h2M44 24h4M0 25h15M18 25h2M23 25h3M31 25h2M36 25h1M44 25h4M0 26h15M18 26h2M22 26h2M33 26h2M36 26h2M45 26h3M0 27h15M18 27h1M22 27h2M26 27h4M34 27h1M37 27h1M46 27h2M0 28h15M18 28h1M21 28h2M25 28h2M30 28h2M34 28h2M37 28h1M47 28h1M0 29h16M21 29h2M25 29h1M31 29h2M35 29h1M47 29h1M0 30h16M22 30h1M25 30h1M28 30h2M31 30h2M40 30h1M42 30h3M0 31h16M26 31h3M39 31h2M42 31h4M0 32h17M39 32h1M41 32h1M43 32h3M0 33h17M40 33h3M44 33h2M0 34h17M40 34h5M0 35h16M39 35h1M41 35h3M47 35h1M0 36h16M39 36h2M42 36h1M47 36h1M0 37h15M19 37h1M37 37h2M46 37h2M0 38h13M19 38h3M35 38h5M44 38h4M0 39h11M20 39h6M35 39h13M0 40h10M20 40h11M38 40h10M0 41h9M11 41h2M20 41h11M40 41h8M0 42h9M19 42h12M36 42h2M41 42h7M0 43h9M17 43h15M41 43h7M0 44h10M15 44h17M40 44h8M0 45h35M39 45h9M0 46h48M0 47h48" />
<path stroke="#42297b" d="M6 2h1M4 4h1M10 4h1M17 5h1M19 5h1M21 7h1M2 9h1M19 10h1M28 10h1M0 11h1M22 11h1M28 11h2M29 12h2M33 12h1M30 13h4M2 14h1M33 14h3M39 14h1M34 15h3M41 15h1M5 16h1M35 16h1M42 16h1M15 17h1M30 17h1M43 17h1M3 18h1M13 18h4M33 18h1M14 19h3M3 20h1M16 20h2M4 21h1M7 21h1M17 21h1M25 21h1M30 21h1M42 21h1M17 22h1M23 22h1M41 22h2M17 23h1M22 23h1M30 23h1M40 23h3M15 24h3M21 24h1M39 24h4M16 25h2M20 25h1M30 25h1M39 25h4M16 26h2M38 26h5M16 27h2M38 27h7M15 28h3M23 28h1M29 28h1M38 28h4M43 28h3M17 29h1M38 29h2M45 29h1M17 30h1M23 30h1M27 30h1M38 30h1M46 30h1M16 31h2M18 32h1M37 32h1M18 33h1M34 33h1M37 33h1M18 34h2M36 34h1M17 35h1M35 35h1M17 36h1M31 36h1M38 36h1M16 37h2M20 37h1M45 37h1M13 38h1M16 38h2M22 38h1M40 38h1M11 39h1M13 39h6M26 39h1M11 40h8M33 40h1M37 40h1M9 41h2M15 41h4M32 41h6M10 42h1M15 42h2M32 42h2M39 42h1M10 43h5M33 43h2M38 43h2M10 44h1M32 44h1M35 44h4M35 45h1" />
<path stroke="#000000" d="M7 2h2M5 3h1M9 3h1M4 5h1M10 5h1M18 5h1M5 6h1M11 6h1M16 6h1M20 6h1M6 7h1M12 7h1M15 7h1M7 8h1M13 8h2M21 8h1M3 9h3M8 9h1M20 9h1M25 9h3M1 10h1M6 10h4M18 10h1M23 10h1M29 10h1M17 11h1M30 11h1M0 12h1M17 12h1M22 12h1M24 12h3M31 12h2M1 13h1M16 13h1M21 13h1M23 13h1M25 13h3M34 13h2M3 14h4M16 14h2M19 14h2M23 14h5M36 14h3M7 15h1M16 15h1M18 15h1M23 15h5M40 15h1M6 16h1M15 16h1M24 16h3M4 17h1M10 17h1M13 17h2M38 17h3M10 18h3M37 18h1M39 18h3M43 18h1M3 19h1M9 19h1M13 19h1M37 19h5M43 19h1M8 20h1M14 20h2M37 20h5M43 20h1M5 21h2M16 21h1M26 21h4M38 21h3M16 22h1M24 22h8M16 23h1M23 23h2M31 23h3M22 24h2M32 24h3M43 24h1M15 25h1M21 25h2M27 25h3M34 25h2M43 25h1M15 26h1M20 26h2M25 26h8M35 26h1M43 26h2M15 27h1M19 27h2M24 27h2M30 27h4M35 27h2M45 27h1M19 28h2M24 28h1M28 28h1M32 28h2M36 28h1M42 28h1M46 28h1M16 29h1M19 29h2M23 29h2M27 29h3M33 29h2M36 29h1M40 29h5M46 29h1M16 30h1M19 30h2M24 30h1M26 30h1M30 30h1M33 30h2M36 30h1M39 30h1M41 30h1M45 30h1M47 30h1M20 31h2M24 31h1M30 31h2M33 31h2M38 31h1M41 31h1M46 31h2M17 32h1M20 32h2M24 32h2M30 32h2M33 32h2M38 32h1M40 32h1M42 32h1M47 32h1M17 33h1M21 33h2M25 33h6M33 33h1M38 33h2M43 33h1M47 33h1M17 34h1M22 34h2M26 34h4M32 34h2M37 34h3M47 34h1M16 35h1M18 35h3M24 35h2M31 35h2M36 35h3M40 35h1M46 35h1M16 36h1M18 36h5M26 36h5M34 36h4M41 36h1M46 36h1M15 37h1M18 37h1M21 37h6M31 37h6M39 37h1M44 37h1M14 38h2M18 38h1M23 38h12M41 38h3M12 39h1M19 39h1M27 39h8M10 40h1M19 40h1M31 40h2M34 40h3M19 41h1M31 41h1M38 41h2M9 42h1M17 42h2M31 42h1M40 42h1M9 43h1M15 43h2M32 43h1M40 43h1M11 44h4M33 44h2M39 44h1M36 45h3" />
<path stroke="#8484d6" d="M7 7h1M8 8h3M9 9h6M10 10h6M24 10h4M8 11h9M23 11h1M27 11h1M7 12h10M28 12h1M5 13h11M29 13h1M7 14h9M21 14h1M29 14h4M9 15h7M17 15h1M19 15h3M29 15h5M37 15h3M9 16h6M16 16h7M28 16h7M36 16h2M41 16h1M9 17h1M11 17h2M16 17h8M27 17h3M31 17h6M42 17h1M8 18h2M17 18h16M34 18h2M6 19h3M17 19h7M30 19h6M42 19h1M4 20h4M18 20h4M32 20h4M42 20h1M18 21h3M24 21h1M34 21h3M41 21h1M18 22h2M32 22h1M35 22h3M40 22h1M18 23h1M21 23h1M25 23h1M36 23h4M18 24h1M37 24h2M26 25h1M33 25h1M37 25h2M24 26h1M21 27h1M27 28h1M18 29h1M26 29h1M30 29h1M37 29h1M18 30h1M21 30h1M35 30h1M37 30h1M18 31h2M22 31h2M25 31h1M29 31h1M32 31h1M35 31h3M19 32h1M22 32h2M26 32h4M32 32h1M35 32h2M46 32h1M19 33h2M23 33h2M31 33h2M35 33h2M46 33h1M20 34h2M24 34h2M30 34h2M34 34h2M45 34h2M21 35h3M26 35h5M33 35h2M44 35h2M23 36h3M32 36h2M43 36h3M27 37h4M40 37h4M13 41h2M11 42h4M34 42h2M38 42h1M35 43h3" />
</svg>