<svg xmlns="http://www.w3.org/2000/svg" viewBox="0 -0.5 40 40" shape-rendering="crispEdges">
<metadata>Made with Pixels to Svg https://codepen.io/shshaw/pen/XbxvNj</metadata>
<path stroke="#ffffff" d="M0 0h30M34 0h6M0 1h30M31 1h2M38 1h2M0 2h28M31 2h2M35 2h1M39 2h1M0 3h27M0 4h26M27 4h1M0 5h26M27 5h1M0 6h24M0 7h23M0 8h18M21 8h1M39 8h1M0 9h14M37 9h3M0 10h13M14 10h2M19 10h2M29 10h11M0 11h12M13 11h3M20 11h2M28 11h12M0 12h10M28 12h12M0 13h9M13 13h2M29 13h11M0 14h9M12 14h4M29 14h11M0 15h9M13 15h1M26 15h1M29 15h11M0 16h10M16 16h2M25 16h2M29 16h11M0 17h9M15 17h1M26 17h1M30 17h10M0 18h9M30 18h10M0 19h10M30 19h10M0 20h10M17 20h1M19 20h2M30 20h10M0 21h10M17 21h1M19 21h3M29 21h11M0 22h11M29 22h11M0 23h12M28 23h12M0 24h11M27 24h13M0 25h6M9 25h1M26 25h14M0 26h5M6 26h3M24 26h16M0 27h5M6 27h2M11 27h3M16 27h1M22 27h18M0 28h2M11 28h1M15 28h25M0 29h1M2 29h3M15 29h25M0 30h1M2 30h2M14 30h26M0 31h2M14 31h26M0 32h2M14 32h26M0 33h3M14 33h26M0 34h1M15 34h25M1 35h1M17 35h23M15 36h2M18 36h22M0 37h1M16 37h1M18 37h22M0 38h5M11 38h2M17 38h23M0 39h40" />
<path stroke="#000000" d="M30 0h4M30 1h1M34 1h4M28 2h2M38 2h1M27 3h1M29 3h1M39 3h1M26 4h1M29 4h1M39 4h1M26 5h1M30 5h1M33 5h1M39 5h1M24 6h3M30 6h2M33 6h1M36 6h1M39 6h1M23 7h1M27 7h1M31 7h2M36 7h1M39 7h1M18 8h3M22 8h1M28 8h5M35 8h1M37 8h2M14 9h4M21 9h3M28 9h9M13 10h1M24 10h3M28 10h1M12 11h1M27 11h1M10 12h3M25 12h3M9 13h1M28 13h1M28 14h1M28 15h1M10 16h1M28 16h1M9 17h1M25 17h1M29 17h1M9 18h1M17 18h3M25 18h1M29 18h1M10 19h1M20 19h1M29 19h1M10 20h1M21 20h1M29 20h1M10 21h1M12 21h1M18 21h1M28 21h1M11 22h2M12 23h1M27 23h1M11 24h1M15 24h2M26 24h1M6 25h3M10 25h1M15 25h1M24 25h2M5 26h1M9 26h1M11 26h3M15 26h2M22 26h2M5 27h1M9 27h2M14 27h2M17 27h5M3 28h3M9 28h2M14 28h1M1 29h1M5 29h1M10 29h1M14 29h1M1 30h1M6 30h1M10 30h1M13 30h1M2 31h1M13 31h1M2 32h1M7 32h1M13 32h1M3 33h1M13 33h1M1 34h4M14 34h1M0 35h1M15 35h2M0 36h1M17 36h1M1 37h4M11 37h2M17 37h1M5 38h6M13 38h4" />
<path stroke="#948c7b" d="M33 1h1M30 2h1M33 2h2M36 2h1M28 3h1M30 3h8M28 4h1M30 4h3M34 4h4M28 5h2M31 5h2M34 5h2M37 5h1M27 6h3M34 6h2M37 6h1M24 7h3M23 8h4M18 9h3M24 9h1M16 10h3M21 10h3M16 11h2M19 11h1M22 11h4M13 12h3M19 12h5M11 13h2M15 13h2M18 13h1M21 13h2M24 13h3M10 14h2M16 14h3M21 14h4M27 14h1M11 15h2M14 15h7M22 15h2M25 15h1M27 15h1M12 16h4M18 16h6M27 16h1M10 17h3M14 17h1M16 17h6M23 17h2M27 17h1M11 18h1M14 18h2M20 18h2M24 18h1M26 18h3M17 19h3M21 19h8M12 20h2M22 20h4M13 21h3M22 21h2M26 21h1M14 22h9M24 22h3M13 23h9M23 23h3M12 24h3M18 24h2M22 24h2M11 25h3M21 25h1M10 26h1M8 27h1M6 28h3M12 28h2M6 29h4M11 29h3M4 30h2M7 30h3M11 30h2M3 31h3M8 31h2M11 31h2M3 32h4M8 32h5M4 33h9M5 34h2M11 34h3M2 35h3M12 35h3M1 36h1M13 36h2M13 37h3" />
<path stroke="#425a3a" d="M37 2h1M38 3h1M33 4h1M38 4h1M36 5h1M38 5h1M32 6h1M38 6h1M28 7h3M33 7h3M37 7h2M27 8h1M33 8h2M36 8h1M25 9h3M27 10h1M18 11h1M26 11h1M16 12h3M24 12h1M10 13h1M17 13h1M19 13h2M23 13h1M27 13h1M9 14h1M19 14h2M25 14h2M9 15h2M21 15h1M24 15h1M11 16h1M24 16h1M13 17h1M22 17h1M28 17h1M10 18h1M12 18h2M16 18h1M22 18h2M11 19h6M11 20h1M14 20h3M18 20h1M26 20h3M11 21h1M16 21h1M24 21h2M27 21h1M13 22h1M23 22h1M27 22h2M22 23h1M26 23h1M17 24h1M20 24h2M24 24h2M14 25h1M16 25h5M22 25h2M14 26h1M17 26h5M2 28h1M6 31h2M10 31h1M7 34h4M5 35h7M2 36h11M5 37h6" />
</svg>