<svg xmlns="http://www.w3.org/2000/svg" viewBox="0 -0.5 56 56" shape-rendering="crispEdges">
<metadata>Made with Pixels to Svg https://codepen.io/shshaw/pen/XbxvNj</metadata>
<path stroke="#ffffff" d="M0 0h56M0 1h19M21 1h19M42 1h14M0 2h19M20 2h1M22 2h17M40 2h1M42 2h14M0 3h19M20 3h1M22 3h16M39 3h1M42 3h14M0 4h19M21 4h1M23 4h13M38 4h1M42 4h14M0 5h19M23 5h2M33 5h2M42 5h14M0 6h19M26 6h4M42 6h14M0 7h19M24 7h7M41 7h15M0 8h18M23 8h8M41 8h15M0 9h18M22 9h9M41 9h15M0 10h18M22 10h8M41 10h15M0 11h18M23 11h5M42 11h14M0 12h18M40 12h2M44 12h12M0 13h16M40 13h4M45 13h11M0 14h15M16 14h1M41 14h4M46 14h10M0 15h5M7 15h7M15 15h2M20 15h2M31 15h3M41 15h4M46 15h10M0 16h4M5 16h2M8 16h6M15 16h2M20 16h1M30 16h1M32 16h3M41 16h3M45 16h1M47 16h9M0 17h4M5 17h1M9 17h4M14 17h4M43 17h2M47 17h9M0 18h4M9 18h4M14 18h4M23 18h2M33 18h2M41 18h1M45 18h1M47 18h9M0 19h1M4 19h1M10 19h3M16 19h2M22 19h3M32 19h1M40 19h1M42 19h1M47 19h9M1 20h3M10 20h2M14 20h2M17 20h2M21 20h3M41 20h1M43 20h1M46 20h10M1 21h2M13 21h1M17 21h2M21 21h3M36 21h3M44 21h1M47 21h9M0 22h1M10 22h2M17 22h1M22 22h1M36 22h3M40 22h3M48 22h8M0 23h2M16 23h1M18 23h2M36 23h2M40 23h2M49 23h7M0 24h3M15 24h1M17 24h4M35 24h1M37 24h1M40 24h2M49 24h7M0 25h1M14 25h1M17 25h4M36 25h1M41 25h1M44 25h2M50 25h6M1 26h2M16 26h6M35 26h1M40 26h1M44 26h2M50 26h6M1 27h1M16 27h1M18 27h5M26 27h2M34 27h1M36 27h1M39 27h1M41 27h1M44 27h1M50 27h6M0 28h1M18 28h4M23 28h6M40 28h1M50 28h6M0 29h3M19 29h1M23 29h6M50 29h6M0 30h2M3 30h1M23 30h6M50 30h6M0 31h2M6 31h2M17 31h2M23 31h7M51 31h5M0 32h3M5 32h4M15 32h6M24 32h5M51 32h5M0 33h11M13 33h9M24 33h2M27 33h1M29 33h1M51 33h5M0 34h22M25 34h1M28 34h1M30 34h1M51 34h5M0 35h22M50 35h6M0 36h21M50 36h6M0 37h20M48 37h8M0 38h19M46 38h10M0 39h18M19 39h1M21 39h1M47 39h9M0 40h18M20 40h1M22 40h1M47 40h9M0 41h17M19 41h1M21 41h1M48 41h8M0 42h17M20 42h1M30 42h4M37 42h1M39 42h3M48 42h8M0 43h17M28 43h7M36 43h3M40 43h3M48 43h8M0 44h17M28 44h7M36 44h3M41 44h3M48 44h8M0 45h18M29 45h5M35 45h3M42 45h2M48 45h8M0 46h19M29 46h5M35 46h2M42 46h2M47 46h9M0 47h17M29 47h5M35 47h2M42 47h2M46 47h10M0 48h16M28 48h6M35 48h3M41 48h3M47 48h9M0 49h15M16 49h1M19 49h1M22 49h1M28 49h7M36 49h7M46 49h1M48 49h8M0 50h15M21 50h3M27 50h8M38 50h4M48 50h8M0 51h16M26 51h10M47 51h9M0 52h18M20 52h1M25 52h13M42 52h14M0 53h56M0 54h56M0 55h56" />
<path stroke="#000000" d="M19 1h2M40 1h2M19 2h1M39 2h1M41 2h1M19 3h1M21 3h1M38 3h1M41 3h1M19 4h1M36 4h2M40 4h2M19 5h1M22 5h1M26 5h6M35 5h2M39 5h3M19 6h1M23 6h2M33 6h2M39 6h2M19 7h1M22 7h1M38 7h1M40 7h1M40 8h1M18 9h1M40 9h1M18 10h1M40 10h1M18 11h1M39 11h1M18 12h1M39 12h1M42 12h1M17 13h1M39 13h1M44 13h1M15 14h1M17 14h1M20 14h2M31 14h2M6 15h1M14 15h1M17 15h1M19 15h1M22 15h1M30 15h1M40 15h1M45 15h1M7 16h1M14 16h1M17 16h1M21 16h1M31 16h1M40 16h1M46 16h1M4 17h1M22 17h1M29 17h2M34 17h2M40 17h1M46 17h1M4 18h1M8 18h1M13 18h1M18 18h1M21 18h1M29 18h1M40 18h1M46 18h1M2 19h2M5 19h1M9 19h1M13 19h1M15 19h1M18 19h1M20 19h1M29 19h1M39 19h1M44 19h1M46 19h1M4 20h2M9 20h1M12 20h2M16 20h1M19 20h2M29 20h1M36 20h4M45 20h1M0 21h1M5 21h2M10 21h3M16 21h1M19 21h2M29 21h1M35 21h1M40 21h4M45 21h2M1 22h1M6 22h1M16 22h1M20 22h1M29 22h1M34 22h1M44 22h1M47 22h1M2 23h1M15 23h1M20 23h1M28 23h1M32 23h2M44 23h1M48 23h1M3 24h2M14 24h1M21 24h1M27 24h2M31 24h1M45 24h2M48 24h1M2 25h4M13 25h1M21 25h1M26 25h5M39 25h1M47 25h1M49 25h1M13 26h1M22 26h1M26 26h1M30 26h1M33 26h1M39 26h1M47 26h1M49 26h1M0 27h1M12 27h1M14 27h1M23 27h3M47 27h1M49 27h1M2 28h3M10 28h2M15 28h1M29 28h1M32 28h1M38 28h1M43 28h1M48 28h2M3 29h1M7 29h3M16 29h1M18 29h1M29 29h1M32 29h1M38 29h1M42 29h1M48 29h2M6 30h2M17 30h1M29 30h1M32 30h1M42 30h1M48 30h2M2 31h1M5 31h1M8 31h1M15 31h2M20 31h1M30 31h1M32 31h1M37 31h1M41 31h1M45 31h1M48 31h1M50 31h1M3 32h2M9 32h1M13 32h2M21 32h1M30 32h1M33 32h1M37 32h1M41 32h1M45 32h1M48 32h1M50 32h1M11 33h2M22 33h1M31 33h1M33 33h1M36 33h1M38 33h4M44 33h1M47 33h1M50 33h1M22 34h2M32 34h4M39 34h1M42 34h2M46 34h1M50 34h1M22 35h1M24 35h1M27 35h1M29 35h3M34 35h1M40 35h1M44 35h2M49 35h1M22 36h2M28 36h1M35 36h1M40 36h3M48 36h2M20 37h1M23 37h1M35 37h1M43 37h5M19 38h1M24 38h1M36 38h1M44 38h2M36 39h1M46 39h1M18 40h1M37 40h1M46 40h1M29 41h5M37 41h5M17 42h1M27 42h2M34 42h3M38 42h1M42 42h2M47 42h1M17 43h1M26 43h1M39 43h1M44 43h1M47 43h1M26 44h2M35 44h1M39 44h1M44 44h1M47 44h1M18 45h1M23 45h1M28 45h1M39 45h2M45 45h1M19 46h4M28 46h1M34 46h1M38 46h1M41 46h1M45 46h2M18 47h1M28 47h1M34 47h1M38 47h1M41 47h1M45 47h1M16 48h1M27 48h1M39 48h2M45 48h2M18 49h1M21 49h1M27 49h1M35 49h1M44 49h1M47 49h1M15 50h1M17 50h1M20 50h1M26 50h1M47 50h1M16 51h2M20 51h1M25 51h1M37 51h1M42 51h1M44 51h3M19 52h1M22 52h3M39 52h2" />
<path stroke="#9c635a" d="M21 2h1M22 4h1M25 5h1M32 5h1M38 6h1M41 6h1M39 7h1M18 8h2M37 8h1M39 10h1M40 11h2M43 12h1M16 13h1M33 14h1M39 14h2M45 14h1M5 15h1M34 15h1M39 15h1M4 16h1M22 16h1M29 16h1M35 16h1M39 16h1M8 17h1M13 17h1M18 17h1M31 17h3M38 17h2M41 17h2M28 18h1M30 18h2M38 18h2M43 18h1M1 19h1M14 19h1M28 19h1M30 19h1M37 19h2M0 20h1M27 20h2M30 20h1M27 21h2M30 21h2M34 21h1M18 22h1M27 22h2M30 22h4M14 23h1M17 23h1M26 23h2M29 23h3M10 24h4M16 24h1M25 24h2M29 24h2M39 24h1M1 25h1M8 25h5M16 25h1M22 25h4M33 25h1M0 26h1M8 26h5M15 26h1M23 26h3M7 27h5M15 27h1M29 27h1M32 27h1M43 27h1M1 28h1M7 28h3M22 28h1M6 29h1M10 29h2M15 29h1M33 29h1M39 29h1M2 30h1M8 30h5M15 30h2M18 30h1M21 30h1M30 30h1M33 30h9M43 30h1M46 30h1M9 31h6M19 31h1M21 31h1M31 31h1M33 31h4M38 31h3M42 31h3M46 31h1M10 32h3M31 32h2M34 32h3M38 32h3M42 32h3M46 32h2M49 32h1M32 33h1M34 33h2M37 33h1M42 33h2M45 33h2M48 33h2M26 34h1M36 34h3M40 34h2M44 34h2M47 34h3M23 35h1M25 35h1M32 35h2M35 35h5M41 35h3M46 35h3M21 36h1M29 36h2M37 36h3M43 36h5M38 37h5M39 38h5M18 39h1M41 39h5M29 40h5M17 41h1M27 41h2M34 41h3M47 41h1M26 42h1M29 42h1M46 42h1M18 43h1M24 43h2M27 43h1M35 43h1M45 43h2M17 44h9M45 44h2M19 45h4M24 45h4M34 45h1M46 45h2M23 46h5M39 46h2M17 47h1M25 47h3M39 47h2M22 48h1M26 48h1M34 48h1M15 49h1M17 49h1M20 49h1M26 49h1M35 50h1M44 50h2M36 51h1M43 51h1M18 52h1M21 52h1M38 52h1M41 52h1" />
<path stroke="#f7a53a" d="M40 3h1M20 4h1M39 4h1M20 5h2M37 5h2M20 6h3M25 6h1M30 6h3M35 6h3M20 7h2M23 7h1M31 7h7M20 8h3M31 8h6M38 8h2M19 9h3M31 9h9M19 10h3M30 10h9M19 11h4M28 11h11M19 12h20M18 13h21M18 14h2M22 14h9M34 14h5M18 15h1M23 15h7M35 15h4M18 16h2M23 16h6M36 16h3M44 16h1M6 17h2M19 17h3M23 17h6M36 17h2M45 17h1M5 18h3M19 18h2M22 18h1M25 18h3M32 18h1M35 18h3M42 18h1M44 18h1M6 19h3M19 19h1M21 19h1M25 19h3M31 19h1M33 19h4M41 19h1M43 19h1M45 19h1M6 20h3M24 20h3M31 20h5M40 20h1M42 20h1M44 20h1M3 21h2M7 21h3M14 21h2M24 21h3M32 21h2M39 21h1M2 22h4M7 22h3M12 22h4M19 22h1M21 22h1M23 22h4M35 22h1M39 22h1M43 22h1M45 22h2M3 23h11M21 23h5M34 23h2M38 23h2M42 23h2M45 23h3M5 24h5M22 24h3M32 24h3M36 24h1M38 24h1M42 24h3M47 24h1M6 25h2M15 25h1M31 25h2M34 25h2M37 25h2M40 25h1M42 25h2M46 25h1M48 25h1M3 26h5M14 26h1M27 26h3M31 26h2M34 26h1M36 26h3M41 26h3M46 26h1M48 26h1M2 27h5M13 27h1M17 27h1M28 27h1M30 27h2M33 27h1M35 27h1M37 27h2M40 27h1M42 27h1M45 27h2M48 27h1M5 28h2M12 28h3M16 28h2M30 28h2M33 28h5M39 28h1M41 28h2M44 28h4M4 29h2M12 29h3M17 29h1M20 29h3M30 29h2M34 29h4M40 29h2M43 29h5M4 30h2M13 30h2M19 30h2M22 30h1M31 30h1M44 30h2M47 30h1M3 31h2M22 31h1M47 31h1M49 31h1M22 32h2M29 32h1M23 33h1M26 33h1M28 33h1M30 33h1M24 34h1M27 34h1M29 34h1M31 34h1M26 35h1M28 35h1M24 36h4M31 36h4M36 36h1M21 37h2M24 37h11M36 37h2M20 38h4M25 38h11M37 38h2M20 39h1M22 39h14M37 39h4M19 40h1M21 40h1M23 40h6M34 40h3M38 40h8M18 41h1M20 41h1M22 41h5M42 41h5M18 42h2M21 42h5M44 42h2M19 43h5M43 43h1M40 44h1M38 45h1M41 45h1M44 45h1M37 46h1M44 46h1M19 47h6M37 47h1M44 47h1M17 48h5M23 48h3M38 48h1M44 48h1M23 49h3M43 49h1M45 49h1M16 50h1M18 50h2M24 50h2M36 50h2M42 50h2M46 50h1M18 51h2M21 51h4M38 51h4" />
</svg>