<svg xmlns="http://www.w3.org/2000/svg" viewBox="0 -0.5 56 56" shape-rendering="crispEdges">
<metadata>Made with Pixels to Svg https://codepen.io/shshaw/pen/XbxvNj</metadata>
<path stroke="#ffffff" d="M0 0h26M28 0h28M0 1h20M22 1h3M26 1h2M29 1h3M34 1h22M0 2h19M20 2h2M23 2h2M29 2h2M32 2h1M35 2h21M0 3h19M21 3h1M23 3h2M29 3h1M35 3h21M0 4h15M17 4h2M24 4h1M29 4h1M34 4h22M0 5h14M15 5h2M18 5h2M24 5h1M34 5h22M0 6h14M19 6h1M33 6h4M39 6h17M0 7h15M19 7h2M33 7h2M37 7h2M40 7h16M0 8h16M20 8h1M40 8h16M0 9h11M14 9h2M39 9h17M0 10h10M12 10h2M15 10h2M38 10h18M0 11h6M9 11h1M14 11h1M16 11h1M42 11h14M0 12h5M6 12h3M23 12h2M41 12h1M43 12h13M0 13h5M9 13h1M16 13h2M43 13h13M0 14h4M10 14h1M15 14h4M42 14h14M0 15h4M10 15h1M14 15h5M26 15h4M44 15h12M0 16h4M9 16h1M15 16h2M18 16h1M25 16h6M45 16h2M50 16h6M0 17h3M9 17h1M16 17h3M25 17h7M48 17h2M51 17h5M0 18h3M12 18h1M18 18h1M24 18h2M27 18h5M38 18h2M49 18h1M51 18h5M0 19h3M12 19h1M24 19h8M36 19h3M49 19h1M51 19h5M0 20h2M14 20h1M36 20h3M51 20h5M0 21h1M3 21h1M14 21h1M35 21h3M50 21h1M52 21h4M0 22h1M2 22h1M15 22h1M36 22h1M52 22h4M21 23h1M31 23h1M52 23h4M21 24h2M26 24h1M30 24h1M53 24h3M23 25h1M25 25h1M29 25h1M53 25h3M9 26h1M53 26h3M9 27h1M53 27h3M54 28h2M12 29h1M53 29h1M55 29h1M12 30h5M54 30h1M0 31h1M12 31h8M50 31h1M0 32h1M12 32h9M50 32h3M0 33h2M12 33h10M32 33h1M51 33h5M0 34h2M12 34h12M30 34h4M51 34h5M0 35h3M11 35h25M52 35h4M0 36h3M11 36h27M52 36h4M0 37h4M11 37h28M52 37h4M0 38h5M10 38h29M52 38h4M0 39h6M9 39h30M51 39h5M0 40h36M37 40h2M51 40h5M0 41h35M51 41h5M0 42h35M51 42h5M0 43h34M35 43h1M51 43h5M0 44h34M35 44h1M50 44h6M0 45h34M35 45h1M50 45h6M0 46h34M35 46h1M49 46h7M0 47h34M49 47h7M0 48h34M48 48h8M0 49h34M47 49h9M0 50h35M45 50h11M0 51h35M44 51h12M0 52h36M42 52h14M0 53h37M41 53h15M0 54h56M0 55h56" />
<path stroke="#000000" d="M26 0h2M20 1h2M25 1h1M28 1h1M32 1h2M19 2h1M22 2h1M25 2h1M28 2h1M31 2h1M34 2h1M19 3h1M22 3h1M25 3h1M28 3h1M30 3h1M34 3h1M15 4h2M19 4h1M23 4h1M25 4h1M28 4h1M30 4h1M33 4h1M14 5h1M17 5h1M20 5h1M23 5h1M25 5h1M28 5h2M33 5h1M14 6h1M18 6h1M20 6h1M24 6h2M28 6h2M32 6h1M37 6h2M15 7h1M18 7h1M21 7h1M24 7h2M28 7h1M32 7h1M35 7h2M39 7h1M16 8h1M19 8h1M21 8h1M25 8h1M31 8h2M34 8h2M39 8h1M12 9h2M16 9h1M20 9h2M33 9h1M38 9h1M14 10h1M17 10h1M36 10h2M10 11h1M15 11h1M17 11h2M22 11h7M35 11h7M9 12h2M16 12h2M20 12h2M29 12h2M42 12h1M5 13h1M10 13h2M15 13h1M18 13h1M31 13h1M42 13h1M6 14h1M11 14h2M14 14h1M27 14h3M32 14h1M39 14h3M4 15h1M7 15h1M9 15h1M11 15h3M19 15h1M25 15h1M30 15h2M33 15h1M38 15h5M4 16h1M7 16h2M13 16h1M17 16h1M19 16h1M24 16h1M31 16h1M36 16h2M44 16h1M47 16h2M3 17h1M7 17h2M12 17h2M19 17h1M24 17h1M32 17h1M35 17h1M45 17h2M3 18h1M6 18h3M11 18h1M13 18h1M19 18h1M23 18h1M26 18h1M32 18h1M34 18h1M46 18h1M3 19h3M8 19h1M13 19h2M23 19h1M33 19h1M47 19h1M50 19h1M2 20h5M9 20h1M13 20h1M15 20h1M28 20h4M33 20h1M48 20h1M50 20h1M1 21h2M7 21h3M15 21h1M32 21h1M48 21h1M51 21h1M1 22h1M8 22h2M16 22h1M21 22h1M31 22h2M49 22h1M51 22h1M0 23h1M9 23h1M16 23h2M20 23h1M22 23h1M26 23h1M30 23h1M32 23h1M49 23h1M51 23h1M0 24h1M10 24h1M18 24h3M23 24h1M25 24h1M27 24h1M29 24h1M31 24h1M49 24h1M52 24h1M0 25h1M10 25h1M20 25h1M24 25h1M28 25h1M31 25h1M50 25h1M52 25h1M0 26h1M11 26h1M31 26h1M50 26h1M52 26h1M0 27h1M11 27h1M31 27h1M38 27h1M50 27h1M52 27h1M0 28h1M11 28h2M15 28h1M31 28h2M36 28h2M50 28h1M52 28h2M0 29h1M3 29h1M11 29h1M13 29h4M31 29h1M33 29h3M41 29h1M50 29h1M54 29h1M0 30h1M3 30h2M10 30h2M17 30h3M21 30h1M31 30h1M40 30h3M50 30h1M55 30h1M1 31h5M10 31h2M20 31h1M32 31h1M39 31h5M49 31h1M51 31h2M55 31h1M1 32h1M5 32h2M10 32h2M21 32h1M32 32h1M39 32h5M49 32h1M53 32h3M2 33h1M6 33h1M9 33h1M11 33h1M22 33h2M30 33h2M33 33h1M38 33h7M49 33h2M2 34h1M7 34h1M9 34h1M11 34h1M24 34h6M34 34h2M38 34h7M49 34h1M3 35h1M8 35h1M10 35h1M36 35h2M39 35h6M48 35h1M3 36h1M10 36h1M39 36h6M48 36h1M51 36h1M4 37h1M10 37h1M40 37h5M48 37h1M51 37h1M5 38h1M9 38h1M40 38h4M49 38h1M51 38h1M6 39h3M40 39h3M50 39h1M36 40h1M40 40h3M50 40h1M35 41h1M37 41h1M39 41h4M50 41h1M35 42h1M38 42h4M50 42h1M34 43h1M39 43h5M50 43h1M34 44h1M40 44h2M44 44h1M49 44h1M34 45h1M49 45h1M34 46h1M45 46h1M48 46h1M34 47h1M45 47h1M48 47h1M34 48h1M45 48h1M47 48h1M34 49h1M45 49h2M35 50h1M43 50h2M35 51h1M42 51h2M36 52h1M41 52h1M37 53h4" />
<path stroke="#ef8c4a" d="M26 2h2M33 2h1M20 3h1M26 3h1M31 3h3M21 4h2M31 4h1M22 5h1M15 6h3M36 8h3M11 10h1M11 11h3M11 12h5M22 12h1M25 12h2M39 12h2M6 13h3M12 13h3M22 13h3M5 14h1M7 14h2M13 14h1M5 15h2M8 15h1M5 16h2M10 16h1M12 16h1M4 17h3M10 17h2M38 17h4M47 17h1M4 18h2M9 18h2M36 18h2M40 18h1M45 18h1M47 18h2M6 19h2M9 19h2M35 19h1M39 19h2M46 19h1M48 19h1M7 20h2M10 20h3M35 20h1M39 20h3M47 20h1M49 20h1M4 21h2M10 21h3M34 21h1M38 21h2M47 21h1M49 21h1M3 22h1M10 22h5M34 22h2M37 22h2M46 22h3M50 22h1M1 23h2M12 23h4M35 23h3M47 23h2M50 23h1M1 24h1M7 24h1M11 24h1M13 24h5M46 24h3M50 24h2M1 25h1M8 25h1M11 25h2M14 25h6M21 25h2M26 25h2M30 25h1M45 25h1M47 25h1M51 25h1M8 26h1M12 26h2M15 26h16M33 26h2M46 26h1M48 26h1M51 26h1M8 27h1M12 27h2M15 27h16M33 27h3M45 27h1M47 27h1M51 27h1M9 28h1M13 28h2M16 28h15M9 29h1M18 29h5M30 29h1M51 29h2M20 30h1M23 30h7M51 30h3M21 31h11M53 31h2M22 32h10M33 32h1M24 33h6M34 33h1M50 34h1M49 35h2M49 36h2M49 37h2M50 38h1M45 41h2M36 42h1M43 42h4M36 43h1M44 43h2M36 44h1M45 44h1M36 45h2M36 46h2M35 47h3M35 48h2M36 49h1" />
<path stroke="#ef2921" d="M27 3h1M20 4h1M26 4h2M32 4h1M21 5h1M26 5h2M30 5h3M21 6h3M26 6h2M30 6h2M16 7h2M22 7h2M26 7h2M29 7h3M17 8h2M22 8h3M26 8h5M33 8h1M11 9h1M17 9h3M22 9h11M34 9h4M10 10h1M18 10h18M6 11h3M19 11h3M29 11h6M5 12h1M18 12h2M27 12h2M31 12h8M19 13h3M25 13h6M32 13h10M4 14h1M9 14h1M19 14h8M30 14h2M33 14h6M20 15h5M32 15h1M34 15h4M43 15h1M11 16h1M14 16h1M20 16h4M32 16h4M38 16h6M49 16h1M14 17h2M20 17h4M33 17h2M36 17h2M42 17h3M50 17h1M14 18h4M20 18h3M33 18h1M35 18h1M41 18h4M50 18h1M11 19h1M15 19h8M32 19h1M34 19h1M41 19h5M16 20h12M32 20h1M34 20h1M42 20h5M6 21h1M13 21h1M16 21h16M33 21h1M40 21h7M4 22h4M17 22h4M22 22h9M33 22h1M39 22h7M3 23h6M10 23h2M18 23h2M23 23h3M27 23h3M33 23h2M38 23h9M2 24h5M8 24h2M12 24h1M24 24h1M28 24h1M32 24h14M2 25h6M9 25h1M13 25h1M32 25h13M46 25h1M48 25h2M1 26h7M10 26h1M14 26h1M32 26h1M35 26h11M47 26h1M49 26h1M1 27h7M10 27h1M14 27h1M32 27h1M36 27h2M39 27h6M46 27h1M48 27h2M1 28h8M10 28h1M33 28h3M38 28h12M51 28h1M1 29h2M4 29h5M10 29h1M17 29h1M23 29h7M32 29h1M36 29h5M42 29h8M1 30h2M5 30h5M22 30h1M30 30h1M32 30h8M43 30h7M6 31h4M33 31h6M44 31h5M2 32h3M7 32h3M34 32h5M44 32h5M3 33h3M7 33h2M10 33h1M35 33h3M45 33h4M3 34h4M8 34h1M10 34h1M36 34h2M45 34h4M4 35h4M9 35h1M38 35h1M45 35h3M51 35h1M4 36h6M38 36h1M45 36h3M5 37h5M39 37h1M45 37h3M6 38h3M39 38h1M44 38h5M39 39h1M43 39h7M39 40h1M43 40h7M36 41h1M38 41h1M43 41h2M47 41h3M37 42h1M42 42h1M47 42h3M37 43h2M46 43h4M37 44h3M42 44h2M46 44h3M38 45h11M38 46h7M46 46h2M38 47h7M46 47h2M37 48h8M46 48h1M35 49h1M37 49h8M36 50h7M36 51h6M37 52h4" />
</svg>