<svg xmlns="http://www.w3.org/2000/svg" viewBox="0 -0.5 96 96" shape-rendering="crispEdges">
<metadata>Made with Pixels to Svg https://codepen.io/shshaw/pen/XbxvNj</metadata>
<path stroke="#4a9441" d="M46 20h6M44 21h2M52 21h2M43 22h1M54 23h1M42 24h1M53 24h3M42 25h2M51 25h3M41 26h12M41 27h13M41 28h14M43 29h14M43 30h1M46 30h11M42 31h1M46 31h10M45 32h11M44 33h11M44 34h10M46 35h6M52 47h1M51 48h3M49 49h5M40 50h2M47 50h7M39 51h16M39 52h16M39 53h17M39 54h17M38 55h19M40 56h17M44 57h11M38 58h2M58 58h1M40 59h4M55 59h3M44 60h11M38 61h2M58 61h1M40 62h4M55 62h2M44 63h10" />
<path stroke="#94d541" d="M46 21h6M44 22h10M43 23h10M44 24h8M45 25h5M43 40h1M49 40h2M42 41h2M48 41h3M42 42h3M47 42h5M42 43h3M46 43h6M41 44h11M41 45h11M41 46h11M40 47h11M40 48h10M41 49h7M43 50h3" />
<path stroke="#296a29" d="M54 22h1M42 23h1M55 23h1M41 24h1M56 24h1M41 25h1M54 25h1M40 26h1M40 27h1M54 27h1M40 28h1M55 28h1M57 28h1M40 29h1M57 29h1M42 40h1M41 41h1M41 42h1M41 43h1M52 43h1M40 44h1M52 44h1M40 45h1M40 46h1M39 47h1M39 48h1M39 49h1M39 50h1M38 51h1M38 52h1" />
<path stroke="#73bd41" d="M53 23h1M43 24h1M52 24h1M44 25h1M50 25h1M43 39h1M49 39h1M48 40h1M44 41h1M47 41h1M51 41h1M46 42h1M45 43h1M51 47h1M50 48h1M40 49h1M48 49h1M42 50h1M46 50h1" />
<path stroke="#101010" d="M55 25h2M53 26h1M56 26h2M55 27h3M56 28h1M62 28h1M62 29h1M42 30h1M57 30h1M62 30h1M41 31h1M45 31h1M56 31h1M61 31h1M40 32h2M44 32h1M56 32h1M39 33h1M43 33h1M55 33h1M38 34h1M43 34h1M54 34h1M37 35h1M42 35h1M44 35h2M52 35h2M36 36h1M42 36h1M44 36h9M35 37h1M41 37h1M43 37h11M34 38h1M41 38h1M43 38h11M33 39h1M40 39h1M42 39h1M44 39h5M50 39h4M32 40h1M40 40h1M44 40h4M51 40h3M31 41h1M39 41h1M45 41h2M52 41h2M30 42h1M39 42h1M45 42h1M52 42h1M29 43h1M38 43h1M28 44h1M38 44h1M27 45h1M37 45h1M52 45h1M26 46h1M37 46h1M52 46h1M25 47h1M36 47h1M24 48h1M36 48h1M54 48h1M23 49h1M35 49h1M54 49h1M58 49h1M22 50h1M35 50h1M54 50h1M58 50h1M21 51h1M34 51h1M55 51h1M58 51h1M19 52h2M34 52h1M55 52h1M58 52h1M33 53h1M38 53h1M56 53h1M59 53h1M33 54h1M38 54h1M56 54h1M59 54h1M32 55h1M37 55h1M57 55h1M59 55h1M32 56h1M37 56h1M59 56h1M31 57h1M37 57h1M59 57h1M31 58h1M37 58h1M59 58h1M30 59h1M37 59h1M59 59h1M29 60h2M37 60h1M59 60h1M37 61h1M59 61h1M38 62h2M57 62h2M40 63h4M54 63h3M42 64h1M44 64h10M49 65h1M53 65h1M45 66h3M42 67h3M38 68h4M53 69h9M46 70h7" />
<path stroke="#cdcdcd" d="M54 26h1M53 46h1M57 50h1M57 51h1M56 52h2M57 53h2M58 54h1M58 55h1M39 67h2M59 68h2M47 69h2" />
<path stroke="#525252" d="M55 26h1M54 39h1M55 40h1M55 41h1M53 42h1M56 42h1M53 43h1M56 43h1M57 45h1M57 46h1M53 47h1M57 54h1M58 56h1M48 65h1M39 66h2M38 67h1M59 67h2M47 68h2M61 68h1M46 69h1" />
<path stroke="#8b5a00" d="M58 26h1M59 27h3M59 30h2M57 31h2M55 50h1" />
<path stroke="#ffbd31" d="M58 27h1M58 28h4M59 29h2M56 46h1M56 47h1" />
<path stroke="#832900" d="M41 29h2M40 30h1M44 30h2M39 31h1M43 31h2M37 32h2M42 32h1M36 33h1M41 33h1M35 34h1M40 34h1M33 35h2M40 35h1M32 36h1M39 36h1M30 37h2M38 37h1M29 38h1M37 38h1M28 39h1M37 39h1M26 40h2M36 40h1M25 41h1M35 41h1M23 42h2M34 42h1M22 43h1M34 43h1M21 44h1M33 44h1M19 45h2M32 45h1M18 46h1M31 46h1M17 47h1M31 47h1M17 48h1M30 48h1M17 49h1M29 49h1M18 50h1M28 50h1M18 51h1M28 51h1M27 52h1M26 53h1M26 54h1M25 55h1M25 56h1M25 57h1M26 58h1M27 59h1M28 60h1M41 65h2M51 65h1M51 66h1M53 66h5M49 67h3M58 67h1" />
<path stroke="#b48b20" d="M58 29h1M61 29h1M58 30h1M61 30h1M55 48h2M55 49h1M38 56h2M57 56h1M38 57h6M55 57h4M40 58h18M38 59h2M44 59h11M58 59h1M38 60h6M55 60h4M40 61h18M44 62h11" />
<path stroke="#b43100" d="M41 30h1M40 31h1M39 32h1M43 32h1M37 33h2M42 33h1M36 34h2M41 34h2M35 35h2M41 35h1M34 36h2M40 36h2M33 37h2M39 37h2M32 38h2M38 38h3M30 39h3M38 39h2M29 40h3M37 40h3M28 41h3M37 41h2M27 42h3M36 42h3M26 43h3M36 43h2M24 44h4M35 44h3M56 44h1M23 45h4M34 45h3M55 45h1M22 46h4M34 46h3M55 46h1M20 47h5M33 47h3M54 47h2M57 47h1M19 48h5M32 48h4M57 48h1M18 49h5M31 49h4M56 49h2M19 50h3M31 50h4M56 50h1M19 51h2M30 51h4M56 51h1M29 52h5M29 53h4M28 54h5M28 55h4M27 56h5M26 57h5M27 58h4M28 59h2M43 64h1M43 65h4M52 65h1M41 66h4M52 66h1M41 67h1M52 67h3M57 67h1M49 68h8M49 69h4" />
<path stroke="#ee3900" d="M33 36h1M32 37h1M30 38h2M29 39h1M28 40h1M26 41h2M36 41h1M25 42h2M35 42h1M23 43h3M35 43h1M22 44h2M34 44h1M21 45h2M33 45h1M56 45h1M19 46h3M32 46h2M54 46h1M18 47h2M32 47h1M18 48h1M31 48h1M30 49h1M29 50h2M29 51h1M28 52h1M27 53h2M27 54h1M26 55h2M26 56h1M55 67h2M57 68h2" />
<path stroke="#ffffff" d="M54 40h1M54 41h1M54 42h2M54 43h2M53 44h3M53 45h2" />
<path stroke="#949494" d="M47 65h1" />
</svg>