<svg xmlns="http://www.w3.org/2000/svg" viewBox="0 -0.5 96 96" shape-rendering="crispEdges">
<metadata>Made with Pixels to Svg https://codepen.io/shshaw/pen/XbxvNj</metadata>
<path stroke="#8b4a8b" d="M31 24h3M30 25h1M34 25h1M29 26h1M35 26h1M29 27h1M28 28h1M34 28h2M28 29h1M34 29h2M28 30h1M34 30h2M27 31h1M30 31h1M32 31h3M27 32h1M32 32h3M27 33h1M29 34h1M28 35h2M28 36h2M45 36h2M58 36h2M28 37h2M44 37h1M47 37h1M57 37h1M60 37h1M28 38h2M43 38h1M50 38h3M29 39h1M43 39h1M46 39h2M49 39h1M59 39h2M29 40h2M42 40h1M45 40h2M58 40h4M29 41h2M42 41h1M44 41h2M53 41h2M57 41h5M30 42h1M43 42h3M51 42h11M30 43h2M43 43h2M46 43h16M31 44h1M38 44h2M44 44h1M46 44h16M63 44h1M31 45h2M37 45h1M42 45h1M46 45h11M58 45h3M32 46h2M44 46h2M49 46h9M33 47h2M36 47h1M45 47h12M34 48h4M43 48h13M35 49h21M34 50h21M33 51h23M33 52h1M37 52h2M40 52h17M31 53h3M40 53h6M50 53h7M29 54h5M40 54h6M51 54h6M28 55h1M30 55h5M39 55h7M52 55h5M27 56h1M30 56h6M39 56h6M48 56h1M54 56h4M27 57h4M37 57h8M46 57h3M55 57h5M27 58h3M36 58h8M47 58h2M57 58h2M36 59h5M35 60h1M37 60h3M35 61h1M37 61h2M35 62h3" />
<path stroke="#d59cd5" d="M31 25h3M30 26h3M45 37h2M58 37h2M44 38h2M57 38h2M50 39h5M57 39h1M48 40h6M47 41h5M48 42h2M38 45h4M37 46h6M37 47h7M39 48h3" />
<path stroke="#b473bd" d="M33 26h2M30 27h5M29 28h3M33 28h1M29 29h2M32 29h1M29 30h2M32 30h1M28 31h2M28 32h2M28 33h2M28 34h1M46 38h2M53 38h2M59 38h2M44 39h2M55 39h1M58 39h1M43 40h2M54 40h1M56 40h2M43 41h1M52 41h1M56 41h1M47 42h1M50 42h1M36 46h1M43 46h1M44 47h1M38 48h1M42 48h1M57 54h1M57 55h2M58 56h1" />
<path stroke="#4a2941" d="M35 27h1M32 28h1M36 28h1M31 29h1M33 29h1M36 29h1M31 30h1M33 30h1M31 31h1M35 31h1M31 32h1M27 34h1M27 35h1M27 36h1M48 38h1M56 38h1M61 38h1M48 39h1M56 39h1M61 39h1M47 40h1M55 40h1M62 40h1M46 41h1M55 41h1M62 41h1M42 42h1M46 42h1M42 43h1M45 43h1M63 43h1M40 44h2M43 44h1M45 44h1M36 45h1M43 45h3M57 45h1M35 46h1M46 46h3M35 47h1M34 49h1M55 50h1M32 51h1M56 51h1M31 52h2M34 52h1M39 52h1M57 52h1M29 53h2M34 53h1M39 53h1M46 53h1M49 53h1M57 53h1M28 54h1M34 54h1M39 54h1M46 54h1M50 54h1M58 54h1M27 55h1M38 55h1M46 55h1M37 56h2M45 56h1M49 56h1M59 56h1M49 57h1M45 58h2" />
<path stroke="#101010" d="M36 30h1M30 32h1M35 32h1M30 33h1M32 33h3M30 34h1M30 35h1M30 36h1M27 37h1M30 37h1M27 38h1M30 38h1M28 39h1M30 39h1M28 40h1M31 40h1M28 41h1M31 41h1M29 42h1M31 42h1M62 42h1M29 43h1M32 43h1M62 43h1M30 44h1M32 44h1M62 44h1M30 45h1M33 45h1M61 45h1M31 46h1M34 46h1M58 46h3M32 47h1M33 48h1M62 48h2M33 49h1M63 49h1M33 50h1M60 51h1M59 52h1M62 52h1M59 53h1M35 55h1M48 55h4M59 55h1M36 56h1M46 56h2M52 56h2M31 57h6M45 57h1M54 57h1M30 58h1M35 58h1M44 58h1M51 58h1M55 58h2M62 58h1M23 59h1M29 59h1M35 59h1M41 59h3M46 59h1M50 59h2M57 59h1M24 60h2M28 60h1M34 60h1M40 60h1M47 60h3M58 60h2M62 60h2M26 61h2M34 61h1M39 61h1M60 61h2M34 62h1M35 63h1M36 64h2M38 65h3" />
<path stroke="#a47308" d="M64 44h4M63 45h1M57 47h1M61 47h1M56 48h1M56 49h1M35 52h2M37 53h2M47 53h2M38 63h1M39 64h1" />
<path stroke="#624a08" d="M62 45h1M68 45h1M65 46h4M62 47h3M61 49h1M60 50h1M26 56h1M60 56h2M25 57h1M50 57h1M62 57h1M23 58h2M61 58h1M26 59h1M49 59h1M60 59h1M63 59h1M61 60h1M39 62h1M40 63h1M38 64h1M40 64h1" />
<path stroke="#eedeb4" d="M64 45h4M63 46h2M61 57h1M26 58h1M24 59h2M27 59h1M61 59h1" />
<path stroke="#cdac62" d="M61 46h2M58 47h3M57 48h5M57 49h4M56 50h4M57 51h3M58 52h1M35 53h2M58 53h1M35 54h4M47 54h3M36 55h2M47 55h1M26 57h1M60 57h1M25 58h1M49 58h2M59 58h2M28 59h1M47 59h2M58 59h2M62 59h1M26 60h2M60 60h1M38 62h1M36 63h2M39 63h1" />
<path stroke="#ffffff" d="M62 49h1M61 50h2M62 51h1" />
<path stroke="#5a5a5a" d="M63 50h1M61 51h1M63 51h1M61 52h1" />
<path stroke="#e65a73" d="M29 55h1M28 56h2M36 60h1M36 61h1" />
</svg>