<svg xmlns="http://www.w3.org/2000/svg" viewBox="0 -0.5 96 96" shape-rendering="crispEdges">
<metadata>Made with Pixels to Svg https://codepen.io/shshaw/pen/XbxvNj</metadata>
<path stroke="#62396a" d="M60 33h1M59 34h1M61 34h1M59 35h1M61 35h1M59 36h1M61 36h1M59 37h1M61 37h1M63 37h3M59 38h1M61 38h2M58 39h1M60 39h1M64 39h1M61 40h2M32 41h1M59 41h1M61 41h1M33 42h1M59 42h1M62 42h1M31 43h1M34 43h1M62 43h1M32 44h1M35 44h1M63 44h1M33 45h1M35 45h2M63 45h1M33 46h2M37 46h1M63 46h1M31 47h2M30 48h1M30 49h1M34 49h1M34 50h1M34 51h1" />
<path stroke="#9462a4" d="M61 33h1M60 38h1M63 38h2M61 39h2M59 40h2M31 41h1M60 41h1M31 42h1M61 42h1M61 43h1M34 44h1M62 44h1M62 45h1M35 47h1M35 48h1M35 49h1M35 50h1" />
<path stroke="#397bc5" d="M45 34h6M43 35h2M41 36h2M49 36h5M40 37h1M47 37h9M46 38h11M45 39h12M45 40h13M38 41h1M43 41h15M38 42h20M38 43h20M38 44h20M38 45h19M39 46h18M39 47h17M40 48h15M42 49h11M44 50h5M50 50h1M47 51h2M46 52h4M45 53h6M32 54h2M45 54h6M30 55h2M44 55h8M29 56h1M34 56h4M44 56h8M33 57h8M45 57h7M31 58h20M32 59h7M45 59h4M41 60h4M50 60h4M41 61h3M50 61h4" />
<path stroke="#d55ad5" d="M60 34h1M60 35h1M60 36h1M60 37h1M59 39h1M32 42h1M32 43h2M33 44h1M34 45h1M35 46h2M33 47h2M31 48h2" />
<path stroke="#73bdff" d="M45 35h5M43 36h5M41 37h5M40 38h5M40 39h5M39 40h5M40 41h2M32 55h3M30 56h3M30 57h2" />
<path stroke="#529ce6" d="M50 35h1M48 36h1M46 37h1M45 38h1M39 39h1M44 40h1M39 41h1M42 41h1M35 55h1M33 56h1M32 57h1M30 58h1" />
<path stroke="#104a83" d="M51 35h3M54 36h2M56 37h1M39 38h1M57 38h1M38 39h1M57 39h1M38 40h1M58 40h1M37 41h1M58 41h1M37 42h1M37 43h1M37 44h1M58 44h1M37 45h1M57 45h1M38 46h1M57 46h1M38 47h1M41 49h1M54 49h1M49 50h1M46 51h1M49 51h1M45 52h1M44 53h1M34 54h2M44 54h1M36 55h1M43 55h1M38 56h1M43 56h1M29 57h1M41 57h1M44 57h1M29 58h1M30 59h2M39 59h1M44 59h1M51 59h3M32 60h2M38 60h1M40 60h1M49 60h1M54 60h1M44 61h1" />
<path stroke="#101010" d="M65 38h1M63 39h1M58 42h1M60 42h1M58 43h1M60 43h1M61 44h1M61 45h1M62 46h1M36 47h1M56 47h1M33 48h2M36 48h1M39 48h1M55 48h1M31 49h2M36 49h1M40 49h1M53 49h1M36 50h1M42 50h2M51 50h2M35 51h1M44 51h2M50 51h1M50 52h1M51 53h1M51 54h1M37 55h1M52 55h1M39 56h2M52 56h1M42 57h2M52 57h1M51 58h1M40 59h4M49 59h2M34 60h4M45 60h4M40 61h1M45 61h1M49 61h1M54 61h1M41 62h3M50 62h4" />
</svg>