<svg xmlns="http://www.w3.org/2000/svg" viewBox="0 -0.5 96 96" shape-rendering="crispEdges">
<metadata>Made with Pixels to Svg https://codepen.io/shshaw/pen/XbxvNj</metadata>
<path stroke="#523100" d="M53 15h8M50 16h3M63 17h1M69 23h1M41 24h1M65 24h1M39 25h2M71 25h1M38 26h1M65 26h2M72 26h1M63 27h2M73 28h1M36 29h1M62 29h1M72 29h2M62 30h1M35 31h1M62 31h1M34 35h1M30 36h1M34 36h1M29 37h1M55 37h1M29 38h1M38 38h1M65 38h1M29 39h1M42 39h1M30 40h1M40 40h2M62 40h1M31 41h1M33 45h1M51 45h1M32 46h1M34 46h1M36 46h3M43 46h1M66 46h4M32 47h1M35 47h1M39 47h2M65 47h1M70 47h3M32 48h1M41 48h1M44 48h1M48 48h2M65 48h1M73 48h2M32 49h1M42 49h1M50 49h4M66 49h1M75 49h1M32 50h1M42 50h1M49 50h1M67 50h2M76 50h1M32 51h1M43 51h1M45 51h2M48 51h1M69 51h3M32 52h1M44 52h2M73 52h3M44 53h2M44 54h2M43 55h3M43 56h4M57 56h1M42 57h2M47 57h2M58 57h1M49 58h1M56 58h1M55 59h1M73 65h1M75 65h1M73 66h1M73 67h1M73 68h1M74 69h1" />
<path stroke="#bd4100" d="M53 16h1M60 16h1M50 17h2M55 18h2M58 19h1M59 20h1M60 21h1M66 21h1M64 22h3M61 23h7M62 24h3M68 26h2M65 27h3M69 27h2M72 27h1M64 28h5M72 28h1M63 29h6M63 30h6M36 31h1M63 31h1M35 32h1M40 32h3M39 33h5M61 33h1M39 34h5M59 34h4M39 35h4M58 35h6M38 36h5M57 36h8M38 37h5M56 37h11M39 38h4M55 38h10M39 39h3M56 39h8M57 40h5M59 41h2M43 47h1M69 47h1M72 48h1M44 49h1M49 49h1M67 49h1M74 49h1M43 50h2M48 50h1M69 50h1M44 51h1M72 51h1M75 68h1" />
<path stroke="#ee5200" d="M54 16h6M52 17h11M57 18h7M59 19h6M60 20h6M61 21h5M61 22h3M69 24h1M41 25h1M69 25h2M39 26h2M70 26h2M38 27h2M71 27h1M37 28h2M37 29h1M36 30h1M65 32h5M62 33h10M63 34h11M64 35h11M31 36h1M65 36h11M30 37h2M67 37h10M30 38h2M73 38h4M30 39h2M76 39h1M31 40h2M76 40h1M32 41h1M78 41h1M78 42h1M78 43h1M32 44h1M78 44h1M32 45h1M37 45h3M31 46h1M39 46h3M41 47h2M66 47h3M42 48h2M50 48h3M66 48h6M43 49h1M48 49h1M68 49h6M47 50h1M70 50h6M73 51h3M74 65h1M74 66h2M74 67h2M74 68h1" />
<path stroke="#292939" d="M61 16h2M48 17h2M64 17h1M46 18h2M52 18h3M65 19h1M66 20h1M67 21h1M60 22h1M67 22h1M68 23h1M61 24h1M66 24h3M59 25h1M61 25h4M68 25h1M72 25h1M42 26h1M67 26h1M73 26h2M41 27h1M68 27h1M75 27h2M53 28h1M69 28h1M54 29h1M60 29h1M69 29h1M55 30h1M69 30h1M56 31h1M56 32h1M57 33h1M35 34h1M57 34h1M35 35h1M34 37h1M27 38h2M34 38h1M54 38h1M34 39h1M33 40h1M25 42h1M27 42h1M24 43h3M21 44h1M23 44h1M27 44h1M23 45h1M28 45h2M63 46h2M29 47h1M63 47h1M62 48h1M5 49h1M16 49h2M26 49h1M15 50h1M26 50h2M15 51h1M28 51h1M62 51h1M14 52h1M21 52h1M86 52h1M11 53h3M61 53h1M65 53h1M9 54h2M60 54h1M62 54h2M66 54h1M87 54h1M7 55h2M59 55h1M64 55h1M67 55h2M87 55h1M4 56h1M6 56h1M65 56h2M69 56h1M5 57h1M22 57h1M61 57h1M67 57h2M70 57h1M88 57h1M5 58h1M21 58h1M23 58h2M35 58h1M61 58h1M69 58h1M6 59h1M15 59h2M20 59h1M25 59h1M64 59h1M7 60h2M11 60h3M20 60h1M61 60h1M67 60h1M9 61h2M19 61h1M61 61h1M10 62h1M18 62h1M9 63h1M16 64h1M73 64h1M86 64h1M84 66h2M56 69h1M30 70h1M56 70h1M34 71h1M44 71h2M71 73h1" />
<path stroke="#39394a" d="M48 18h4M65 18h2M46 19h12M67 19h1M46 20h2M53 20h6M68 20h1M56 21h4M69 21h1M57 22h3M70 22h1M58 23h3M71 23h1M59 24h2M72 24h1M17 25h1M19 25h1M60 25h1M65 25h3M43 26h2M60 26h5M18 27h1M50 27h2M61 27h2M73 27h1M52 28h1M61 28h2M74 28h1M19 29h1M42 29h2M61 29h1M74 29h1M41 30h1M46 30h1M60 30h2M74 30h1M20 31h1M47 31h1M60 31h2M75 31h1M20 32h1M60 32h1M72 32h1M21 33h1M35 33h1M74 33h1M21 34h1M34 34h1M22 35h1M22 36h1M23 37h1M23 38h1M43 38h1M49 38h1M66 38h6M24 39h1M43 39h2M50 39h1M64 39h11M24 40h1M26 40h1M42 40h2M51 40h1M63 40h4M72 40h4M25 41h2M30 41h1M51 41h1M61 41h4M74 41h3M26 42h1M29 42h4M52 42h1M60 42h4M75 42h1M77 42h1M27 43h1M29 43h3M53 43h1M62 43h1M77 43h1M24 44h3M28 44h3M34 44h1M54 44h1M61 44h1M76 44h1M9 45h7M24 45h4M54 45h1M76 45h1M16 46h2M24 46h6M55 46h1M76 46h1M18 47h1M25 47h4M56 47h1M75 47h1M19 48h1M23 48h2M26 48h4M57 48h1M20 49h1M24 49h2M27 49h3M57 49h1M6 50h1M20 50h1M28 50h2M58 50h1M6 51h1M21 51h1M59 51h1M80 51h1M7 52h2M29 52h1M60 52h1M76 52h1M80 52h1M9 53h2M30 53h2M76 53h1M29 54h5M61 54h1M76 54h1M20 55h1M29 55h5M60 55h4M20 56h1M28 56h7M59 56h6M4 57h1M19 57h2M28 57h8M62 57h5M18 58h3M22 58h1M28 58h4M44 58h2M64 58h5M5 59h1M17 59h3M21 59h1M31 59h1M45 59h1M67 59h3M5 60h2M14 60h6M46 60h1M6 61h3M11 61h8M46 61h1M7 62h3M11 62h7M47 62h1M10 63h6M47 63h1M74 63h1M55 65h1M55 66h1M55 67h1M47 68h1M56 68h1M47 69h1M46 70h1M54 70h1M57 70h1M29 71h2M53 71h1M57 71h1M29 72h6M58 72h1M30 73h9M59 73h2M70 73h1M73 73h2M30 74h9M61 74h2M67 74h1M74 74h3M57 75h3M75 75h1M58 76h5M75 76h1M58 77h7M75 77h1M58 78h7M74 78h1M61 79h4" />
<path stroke="#101010" d="M64 18h1M45 19h1M45 20h1M48 20h5M74 20h1M45 21h3M53 21h3M74 21h1M44 22h2M56 22h1M73 22h1M43 23h1M57 23h1M73 23h1M17 24h2M42 24h1M58 24h1M16 25h1M42 25h1M16 26h1M41 26h1M59 26h1M16 27h1M37 27h1M40 27h1M60 27h1M16 28h1M36 28h1M39 28h1M60 28h1M71 28h1M77 28h1M17 29h1M35 29h1M38 29h1M78 29h1M17 30h1M35 30h1M37 30h1M40 30h1M59 30h1M79 30h2M17 31h1M34 31h1M37 31h1M39 31h1M59 31h1M64 31h6M81 31h1M18 32h1M34 32h1M36 32h1M39 32h1M47 32h1M59 32h1M61 32h3M70 32h2M75 32h1M83 32h1M18 33h1M34 33h1M36 33h1M38 33h1M47 33h1M59 33h2M72 33h2M75 33h3M84 33h1M18 34h1M33 34h1M38 34h1M47 34h1M58 34h1M74 34h1M79 34h5M19 35h1M30 35h3M38 35h1M47 35h1M57 35h1M76 35h1M19 36h1M29 36h1M32 36h1M37 36h1M46 36h1M49 36h2M56 36h1M76 36h1M19 37h1M28 37h1M32 37h1M37 37h1M46 37h1M48 37h1M51 37h2M77 37h1M20 38h1M32 38h1M37 38h1M46 38h1M48 38h1M53 38h1M77 38h1M20 39h1M27 39h1M32 39h1M38 39h1M45 39h1M48 39h1M55 39h1M77 39h1M20 40h1M27 40h1M39 40h1M44 40h1M49 40h1M56 40h1M67 40h5M77 40h2M21 41h1M27 41h1M33 41h1M40 41h4M49 41h1M57 41h2M65 41h2M72 41h2M77 41h1M79 41h1M21 42h1M33 42h1M50 42h1M59 42h1M64 42h1M74 42h1M76 42h1M79 42h1M21 43h1M28 43h1M32 43h2M50 43h1M60 43h2M63 43h1M75 43h2M79 43h1M22 44h1M31 44h1M33 44h1M37 44h3M50 44h2M62 44h2M75 44h1M79 44h1M21 45h1M30 45h1M34 45h3M40 45h2M50 45h1M52 45h1M64 45h1M75 45h1M78 45h1M7 46h2M21 46h1M23 46h1M30 46h1M35 46h1M42 46h1M51 46h3M65 46h1M75 46h1M78 46h1M6 47h1M22 47h1M24 47h1M30 47h1M34 47h1M44 47h1M50 47h4M74 47h1M77 47h1M5 48h1M22 48h1M25 48h1M30 48h1M33 48h1M53 48h1M75 48h2M4 49h1M23 49h1M30 49h1M33 49h1M45 49h1M47 49h1M54 49h1M62 49h1M4 50h1M24 50h2M30 50h1M33 50h1M45 50h2M54 50h1M62 50h1M4 51h1M26 51h2M29 51h2M33 51h1M55 51h1M76 51h1M81 51h4M3 52h1M28 52h1M30 52h2M33 52h1M43 52h1M47 52h1M56 52h1M63 52h1M77 52h3M85 52h1M3 53h1M21 53h1M29 53h1M32 53h2M43 53h1M47 53h1M56 53h1M64 53h1M87 53h3M3 54h1M21 54h1M28 54h1M34 54h1M43 54h1M47 54h1M57 54h1M90 54h1M3 55h1M21 55h1M28 55h1M34 55h1M47 55h1M57 55h1M91 55h1M3 56h1M21 56h1M27 56h1M35 56h1M42 56h1M47 56h1M58 56h1M91 56h1M3 57h1M21 57h1M27 57h1M36 57h2M41 57h1M44 57h3M59 57h2M91 57h1M4 58h1M27 58h1M32 58h3M38 58h6M47 58h2M57 58h1M60 58h1M62 58h2M70 58h1M89 58h1M4 59h1M26 59h5M49 59h1M56 59h1M60 59h1M65 59h2M70 59h1M89 59h1M4 60h1M50 60h5M60 60h1M68 60h2M89 60h3M5 61h1M62 61h1M92 61h1M6 62h1M63 62h3M88 62h1M92 62h1M7 63h2M16 63h2M66 63h3M72 63h2M88 63h1M92 63h1M9 64h7M69 64h3M74 64h2M87 64h1M91 64h1M16 65h2M76 65h3M86 65h1M89 65h2M18 66h2M76 66h1M79 66h2M89 66h1M20 67h2M76 67h1M81 67h4M86 67h3M22 68h2M76 68h1M24 69h3M75 69h1M27 70h3M55 70h1M75 70h1M28 71h1M31 71h3M46 71h7M74 71h1M28 72h1M35 72h9M72 72h2M28 73h2M40 73h1M72 73h1M29 74h1M39 74h1M58 74h3M68 74h2M30 75h9M57 76h1M78 76h1M57 77h1M78 77h1M57 78h1M75 78h3M58 79h3M70 79h5M61 80h9" />
<path stroke="#7b6a7b" d="M66 19h1M67 20h1M68 21h1M47 22h5M68 22h2M44 23h1M46 23h8M70 23h1M45 24h1M47 24h8M70 24h2M18 25h1M44 25h11M18 26h2M47 26h8M19 27h2M42 27h7M52 27h2M19 28h3M40 28h11M20 29h3M39 29h3M46 29h7M20 30h4M38 30h2M42 30h4M47 30h7M70 30h4M21 31h4M38 31h1M44 31h3M48 31h6M70 31h5M21 32h5M45 32h2M48 32h6M73 32h2M22 33h5M48 33h5M22 34h7M49 34h1M51 34h1M24 35h1M26 35h4M48 35h1M50 35h1M23 36h1M25 36h1M27 36h2M24 37h1M26 37h1M49 37h2M50 38h3M51 39h3M52 40h4M53 41h4M53 42h5M54 43h6M55 44h6M71 44h3M56 45h5M69 45h6M9 46h7M57 46h3M70 46h5M8 47h9M58 47h2M73 47h1M7 48h10M18 48h1M6 49h10M18 49h2M7 50h8M17 50h1M19 50h1M8 51h7M16 51h3M20 51h1M9 52h5M15 52h4M20 52h1M81 52h4M16 53h4M80 53h7M16 54h5M79 54h8M17 55h3M79 55h5M86 55h1M17 56h3M80 56h2M84 56h2M17 57h1M80 57h8M81 58h8M22 59h2M83 59h6M21 60h12M87 60h1M20 61h15M21 62h15M23 63h13M24 64h12M67 64h2M72 64h1M26 65h10M69 65h4M30 66h5M70 66h3M72 67h1M72 68h1" />
<path stroke="#6a6273" d="M72 19h3M69 20h3M78 30h1M78 31h1M79 32h1M78 33h1M80 33h1M78 34h1M89 54h1M90 57h1M90 58h1M88 64h2M77 75h1" />
<path stroke="#cdcdde" d="M72 20h1M70 21h2M71 22h2M74 27h1M75 28h1M75 29h1M75 30h3M77 31h1M81 33h2M88 54h1M88 55h3M89 56h2M90 61h2M91 62h1M76 75h1M76 76h2M76 77h2" />
<path stroke="#eeeeff" d="M73 20h1M72 21h2M70 29h1M76 29h2M79 31h2M80 32h3M83 33h1" />
<path stroke="#5a4a62" d="M48 21h5M46 22h1M52 22h4M45 23h1M54 23h3M43 24h2M46 24h1M55 24h3M43 25h1M55 25h4M17 26h1M20 26h1M45 26h2M55 26h4M17 27h1M21 27h1M49 27h1M54 27h6M17 28h2M22 28h1M51 28h1M54 28h6M76 28h1M18 29h1M23 29h1M44 29h2M53 29h1M55 29h5M18 30h2M24 30h1M54 30h1M56 30h3M18 31h2M25 31h1M43 31h1M54 31h2M57 31h2M19 32h1M26 32h1M37 32h2M44 32h1M54 32h2M57 32h2M19 33h2M27 33h2M37 33h1M45 33h2M53 33h4M58 33h1M19 34h2M29 34h2M36 34h2M45 34h2M48 34h1M50 34h1M52 34h5M20 35h2M23 35h1M25 35h1M36 35h2M44 35h3M49 35h1M51 35h6M20 36h2M24 36h1M26 36h1M35 36h2M44 36h2M47 36h2M51 36h5M20 37h3M25 37h1M27 37h1M35 37h2M44 37h2M47 37h1M53 37h2M21 38h2M24 38h3M35 38h2M44 38h2M47 38h1M21 39h3M25 39h2M28 39h1M35 39h3M46 39h2M49 39h1M54 39h1M21 40h3M25 40h1M28 40h2M34 40h5M45 40h4M50 40h1M22 41h3M28 41h2M34 41h6M44 41h5M50 41h1M52 41h1M67 41h5M22 42h3M28 42h1M34 42h16M51 42h1M58 42h1M65 42h9M22 43h2M34 43h16M51 43h2M64 43h11M35 44h2M40 44h10M52 44h2M64 44h7M74 44h1M22 45h1M42 45h8M53 45h1M55 45h1M61 45h3M65 45h4M22 46h1M44 46h7M54 46h1M56 46h1M60 46h3M7 47h1M17 47h1M23 47h1M45 47h5M54 47h2M57 47h1M60 47h3M64 47h1M6 48h1M17 48h1M45 48h3M54 48h3M58 48h4M63 48h2M46 49h1M55 49h2M58 49h4M63 49h3M5 50h1M16 50h1M18 50h1M55 50h3M59 50h3M63 50h4M5 51h1M7 51h1M19 51h1M56 51h3M60 51h2M63 51h6M4 52h3M19 52h1M57 52h3M61 52h2M64 52h9M4 53h5M14 53h2M20 53h1M57 53h4M62 53h2M66 53h10M77 53h3M4 54h5M11 54h5M58 54h2M64 54h2M67 54h9M77 54h2M4 55h3M9 55h8M58 55h1M65 55h2M69 55h10M84 55h2M5 56h1M7 56h10M67 56h2M70 56h10M82 56h2M86 56h2M6 57h11M18 57h1M69 57h1M71 57h9M6 58h12M36 58h2M46 58h1M58 58h2M71 58h10M7 59h8M24 59h1M32 59h13M46 59h3M57 59h3M61 59h3M71 59h12M9 60h2M33 60h13M47 60h3M55 60h5M62 60h5M70 60h17M88 60h1M35 61h11M47 61h14M63 61h26M19 62h2M36 62h11M48 62h15M66 62h22M18 63h5M36 63h11M48 63h18M69 63h3M75 63h13M17 64h7M36 64h31M76 64h10M18 65h8M36 65h19M56 65h13M79 65h7M20 66h10M35 66h20M56 66h14M81 66h3M22 67h33M56 67h16M24 68h23M48 68h8M57 68h15M27 69h20M48 69h8M57 69h17M31 70h15M47 70h7M58 70h17M35 71h9M58 71h16M59 72h13M39 73h1M61 73h9M63 74h4M70 74h4M60 75h15M63 76h12M65 77h10M65 78h9M65 79h5" />
<path stroke="#948bac" d="M72 23h1M76 31h1M76 32h3M79 33h1M88 56h1M89 57h1M89 61h1M89 62h2M89 63h3M90 64h1M87 65h2M86 66h3" />
<path stroke="#943900" d="M63 28h1M70 28h1M40 31h3M43 32h1M64 32h1M44 33h1M44 34h1M75 34h1M33 35h1M43 35h1M75 35h1M33 36h1M43 36h1M33 37h1M43 37h1M33 38h1M72 38h1M33 39h1M75 39h1M77 44h1M31 45h1M77 45h1M33 46h1M77 46h1M31 47h1M33 47h1M36 47h3M76 47h1M31 48h1M34 48h7M31 49h1M34 49h8M31 50h1M34 50h8M50 50h4M31 51h1M34 51h9M47 51h1M49 51h6M34 52h9M46 52h1M48 52h8M34 53h9M46 53h1M48 53h8M35 54h8M46 54h1M48 54h9M35 55h8M46 55h1M48 55h9M36 56h6M48 56h9M38 57h3M49 57h9M50 58h6M50 59h5" />
<path stroke="#ac2900" d="M71 29h1" />
</svg>