<svg xmlns="http://www.w3.org/2000/svg" viewBox="0 -0.5 48 48" shape-rendering="crispEdges">
<metadata>Made with Pixels to Svg https://codepen.io/shshaw/pen/XbxvNj</metadata>
<path stroke="#ffffff" d="M0 0h48M0 1h48M0 2h18M21 2h27M0 3h17M18 3h3M23 3h25M0 4h17M18 4h1M24 4h24M0 5h17M18 5h1M24 5h24M0 6h11M13 6h3M17 6h2M24 6h24M0 7h9M11 7h2M14 7h2M17 7h1M24 7h5M31 7h17M0 8h8M9 8h3M14 8h2M17 8h1M24 8h4M29 8h2M32 8h16M0 9h7M8 9h2M15 9h1M24 9h3M28 9h2M33 9h15M0 10h7M8 10h1M24 10h2M27 10h2M34 10h14M0 11h8M26 11h1M34 11h14M0 12h8M33 12h15M0 13h7M8 13h1M32 13h16M0 14h6M7 14h2M32 14h16M0 15h5M6 15h4M31 15h17M0 16h5M6 16h4M31 16h17M0 17h4M5 17h5M32 17h16M0 18h4M5 18h4M32 18h16M0 19h3M4 19h5M33 19h15M0 20h3M5 20h1M7 20h1M33 20h8M43 20h5M0 21h3M4 21h1M6 21h1M33 21h7M41 21h1M44 21h4M0 22h3M5 22h1M33 22h6M44 22h4M0 23h3M33 23h6M43 23h5M0 24h3M34 24h4M45 24h3M0 25h4M34 25h3M46 25h2M0 26h4M34 26h3M46 26h2M0 27h5M33 27h2M45 27h3M0 28h5M35 28h1M43 28h5M0 29h6M33 29h1M35 29h2M43 29h5M0 30h7M32 30h3M36 30h1M43 30h5M0 31h9M32 31h3M36 31h1M44 31h4M0 32h11M33 32h2M45 32h3M0 33h13M33 33h1M36 33h2M45 33h3M0 34h12M37 34h5M44 34h4M0 35h11M20 35h3M30 35h2M37 35h11M0 36h10M19 36h5M27 36h2M32 36h1M34 36h1M37 36h11M0 37h10M20 37h3M27 37h1M33 37h1M38 37h10M0 38h10M27 38h1M40 38h8M0 39h9M27 39h1M41 39h7M0 40h9M27 40h2M41 40h7M0 41h9M28 41h2M40 41h8M0 42h8M28 42h3M32 42h2M39 42h9M0 43h8M29 43h1M33 43h2M39 43h9M0 44h8M9 44h1M17 44h3M21 44h2M31 44h2M34 44h1M38 44h10M0 45h8M9 45h11M21 45h3M32 45h2M35 45h1M37 45h11M0 46h7M10 46h7M22 46h2M33 46h1M36 46h12M0 47h7M22 47h3M33 47h2M36 47h12" />
<path stroke="#4a6bef" d="M18 2h1M17 3h1M29 7h1M28 8h1M18 9h2M21 10h1M26 12h1M7 13h1M28 13h1M6 14h1M29 14h1M5 15h1M10 16h1M4 17h1M3 19h1M25 19h1M29 19h1M3 20h1M23 20h1M41 20h1M40 21h1M21 22h1M32 23h1M40 23h1M20 24h1M41 24h1M38 25h1M36 28h1M34 29h1M37 29h1M31 30h1M35 30h1M37 30h1M42 30h1M31 31h1M35 31h1M37 31h1M41 31h1M32 32h1M35 32h1M41 32h1M14 33h1M19 33h1M25 33h1M18 34h1M23 34h2M32 34h1M14 35h1M33 35h2M10 36h1M13 36h1M35 36h1M31 37h1M30 38h1M37 38h1M9 39h1M30 39h1M37 39h1M26 40h1M30 40h2M38 40h1M31 41h3M38 41h1M9 42h1M34 42h1M9 43h2M16 43h4M31 43h2M35 43h1M10 44h7M33 44h1M35 44h1M34 45h1M8 46h2M17 46h4M32 46h1M34 46h1M8 47h13M32 47h1" />
<path stroke="#000000" d="M19 2h2M21 3h2M17 4h1M23 4h1M17 5h1M23 5h1M11 6h2M16 6h1M23 6h1M9 7h2M13 7h1M16 7h1M23 7h1M30 7h1M8 8h1M16 8h1M23 8h1M31 8h1M7 9h1M14 9h1M16 9h1M20 9h1M23 9h1M27 9h1M32 9h1M7 10h1M15 10h1M22 10h2M26 10h1M33 10h1M8 11h1M24 11h2M33 11h1M8 12h1M32 12h1M9 13h1M31 13h1M9 14h1M31 14h1M10 15h1M30 15h1M5 16h1M30 16h1M31 17h1M4 18h1M31 18h1M26 19h3M32 19h1M24 20h1M30 20h1M32 20h1M42 20h1M3 21h1M22 21h1M31 21h2M43 21h1M3 22h1M32 22h1M39 22h1M43 22h1M3 23h1M21 23h1M39 23h1M42 23h1M3 24h1M33 24h1M38 24h1M42 24h3M4 25h1M20 25h1M33 25h1M37 25h1M42 25h1M45 25h1M4 26h1M20 26h1M33 26h1M37 26h1M41 26h1M45 26h1M5 27h1M20 27h1M32 27h1M35 27h2M41 27h1M43 27h2M5 28h1M21 28h1M32 28h3M41 28h2M6 29h1M21 29h1M31 29h2M42 29h1M7 30h2M22 30h1M30 30h1M9 31h2M23 31h2M28 31h2M43 31h1M11 32h2M25 32h3M36 32h2M44 32h1M13 33h1M20 33h5M32 33h1M34 33h2M38 33h4M44 33h1M12 34h3M19 34h4M30 34h2M33 34h1M36 34h1M42 34h2M11 35h1M17 35h3M23 35h2M27 35h3M32 35h1M36 35h1M25 36h2M29 36h3M36 36h1M10 37h1M26 37h1M28 37h1M37 37h1M10 38h1M26 38h1M28 38h1M38 38h2M26 39h1M28 39h1M40 39h1M9 40h1M29 40h1M40 40h1M9 41h1M19 41h2M27 41h1M30 41h1M39 41h1M8 42h1M21 42h1M27 42h1M31 42h1M38 42h1M8 43h1M20 43h3M28 43h1M30 43h1M38 43h1M8 44h1M20 44h1M23 44h1M29 44h2M37 44h1M8 45h1M20 45h1M24 45h1M31 45h1M36 45h1M7 46h1M21 46h1M24 46h1M35 46h1M7 47h1M21 47h1M25 47h1M35 47h1" />
<path stroke="#9c9c94" d="M19 4h4M19 5h4M19 6h4M18 7h5M12 8h2M18 8h5M10 9h4M17 9h1M21 9h2M30 9h2M9 10h6M16 10h5M29 10h4M9 11h15M27 11h6M9 12h17M27 12h5M10 13h18M29 13h2M10 14h19M30 14h1M11 15h19M11 16h19M10 17h21M9 18h22M9 19h16M30 19h2M4 20h1M6 20h1M8 20h15M25 20h5M31 20h1M5 21h1M7 21h15M23 21h8M42 21h1M4 22h1M6 22h15M22 22h10M40 22h3M4 23h17M22 23h10M41 23h1M4 24h16M21 24h12M39 24h2M5 25h15M21 25h12M39 25h3M43 25h2M5 26h15M21 26h12M38 26h3M42 26h3M6 27h14M21 27h11M37 27h4M42 27h1M6 28h15M22 28h10M37 28h4M7 29h14M22 29h9M38 29h4M9 30h13M23 30h7M38 30h4M11 31h12M25 31h3M30 31h1M38 31h3M42 31h1M13 32h12M28 32h4M38 32h3M42 32h2M15 33h4M26 33h6M42 33h2M15 34h3M25 34h5M34 34h2M12 35h2M15 35h2M25 35h2M35 35h1M11 36h2M14 36h5M24 36h1M33 36h1M11 37h9M23 37h3M29 37h2M32 37h1M34 37h3M11 38h15M29 38h1M31 38h6M10 39h16M29 39h1M31 39h6M38 39h2M10 40h16M32 40h6M39 40h1M10 41h9M21 41h6M34 41h4M10 42h11M22 42h5M35 42h3M11 43h5M23 43h5M36 43h2M24 44h5M36 44h1M25 45h6M25 46h7M26 47h6" />
</svg>