<svg xmlns="http://www.w3.org/2000/svg" viewBox="0 -0.5 48 48" shape-rendering="crispEdges">
<metadata>Made with Pixels to Svg https://codepen.io/shshaw/pen/XbxvNj</metadata>
<path stroke="#ffffff" d="M0 0h48M0 1h12M14 1h34M0 2h11M12 2h2M16 2h21M40 2h8M0 3h11M12 3h2M18 3h3M29 3h6M37 3h1M40 3h8M0 4h11M12 4h1M31 4h1M37 4h1M40 4h4M45 4h3M0 5h10M11 5h2M20 5h2M36 5h2M40 5h3M44 5h1M46 5h2M0 6h10M11 6h2M19 6h4M36 6h1M39 6h3M43 6h2M46 6h2M0 7h10M11 7h2M19 7h4M36 7h1M39 7h3M43 7h2M46 7h2M0 8h10M11 8h1M18 8h5M39 8h2M42 8h2M46 8h2M0 9h10M11 9h1M18 9h4M38 9h3M42 9h1M47 9h1M0 10h10M11 10h1M18 10h4M38 10h3M42 10h1M47 10h1M0 11h10M11 11h1M18 11h4M38 11h2M41 11h2M47 11h1M0 12h10M18 12h3M37 12h3M41 12h1M47 12h1M0 13h11M19 13h2M37 13h3M41 13h1M47 13h1M0 14h11M27 14h1M36 14h4M41 14h1M47 14h1M0 15h11M27 15h1M36 15h4M41 15h1M47 15h1M0 16h5M7 16h5M17 16h1M27 16h1M35 16h4M40 16h1M47 16h1M0 17h4M5 17h2M8 17h4M17 17h1M26 17h2M35 17h4M40 17h1M46 17h2M0 18h3M4 18h3M8 18h5M17 18h1M26 18h1M36 18h3M40 18h1M46 18h2M0 19h2M3 19h4M8 19h6M38 19h1M40 19h1M44 19h1M46 19h2M0 20h2M3 20h2M6 20h2M9 20h6M40 20h1M44 20h1M46 20h2M0 21h1M2 21h2M7 21h1M9 21h5M41 21h1M47 21h1M0 22h1M2 22h2M7 22h1M9 22h4M29 22h1M31 22h1M41 22h1M47 22h1M0 23h1M2 23h1M7 23h2M10 23h3M28 23h1M30 23h1M41 23h1M47 23h1M1 24h2M8 24h1M10 24h2M23 24h2M26 24h2M29 24h1M31 24h1M41 24h1M46 24h2M1 25h2M8 25h2M21 25h4M26 25h3M30 25h1M32 25h1M39 25h1M41 25h1M46 25h2M1 26h1M6 26h2M9 26h2M22 26h3M28 26h2M31 26h1M42 26h1M46 26h2M1 27h1M6 27h2M9 27h2M15 27h1M25 27h1M27 27h1M42 27h1M45 27h3M1 28h1M6 28h3M14 28h3M23 28h3M27 28h5M42 28h1M44 28h4M1 29h1M6 29h3M13 29h9M23 29h4M28 29h4M42 29h1M44 29h4M1 30h2M6 30h4M12 30h9M24 30h3M28 30h3M39 30h3M44 30h4M0 31h1M2 31h1M5 31h1M7 31h12M21 31h2M40 31h3M44 31h4M0 32h1M2 32h1M5 32h1M7 32h11M19 32h3M26 32h1M41 32h7M0 33h1M2 33h2M7 33h10M18 33h2M27 33h3M42 33h6M0 34h2M3 34h1M7 34h9M27 34h3M43 34h5M0 35h2M3 35h2M6 35h1M8 35h7M25 35h1M27 35h3M37 35h1M43 35h5M0 36h3M4 36h1M6 36h1M8 36h6M23 36h3M27 36h2M36 36h4M42 36h6M0 37h3M4 37h2M8 37h6M22 37h5M38 37h10M0 38h4M5 38h1M7 38h1M9 38h5M23 38h6M39 38h9M0 39h5M6 39h1M9 39h6M23 39h7M41 39h7M0 40h6M7 40h1M10 40h6M23 40h7M42 40h6M0 41h7M11 41h4M16 41h2M23 41h8M34 41h3M43 41h5M0 42h8M11 42h3M15 42h2M19 42h2M22 42h9M34 42h4M43 42h5M0 43h15M17 43h1M19 43h2M22 43h9M34 43h3M44 43h4M0 44h19M21 44h11M33 44h4M44 44h4M0 45h36M37 45h2M42 45h2M45 45h3M0 46h36M37 46h2M42 46h2M45 46h3M0 47h36M39 47h3M44 47h4" />
<path stroke="#735a42" d="M12 1h1M14 2h1M39 2h1M21 3h1M20 4h1M27 4h2M44 4h1M10 5h1M18 5h1M28 5h3M32 5h1M29 6h2M42 6h1M29 7h2M29 8h2M29 9h1M45 9h2M41 10h1M45 10h1M44 11h1M10 12h1M27 12h1M28 14h1M11 15h1M28 15h1M40 15h1M16 16h1M28 16h1M46 16h1M12 17h1M16 17h1M28 17h1M33 17h1M16 18h1M27 18h1M17 19h1M26 19h1M31 19h1M34 19h2M5 20h1M18 20h1M25 20h1M30 20h1M33 20h5M4 21h1M15 21h1M19 21h1M28 21h1M33 21h5M40 21h1M44 21h1M4 22h1M14 22h4M23 22h4M34 22h3M45 22h1M3 23h1M14 23h3M21 23h2M38 23h2M44 23h2M3 24h1M16 24h2M25 24h1M35 24h1M37 24h1M44 24h2M15 25h2M19 25h1M25 25h1M33 25h1M2 26h1M5 26h1M13 26h2M18 26h1M20 26h1M25 26h3M35 26h1M37 26h2M2 27h1M13 27h1M17 27h1M19 27h1M23 27h2M26 27h1M28 27h4M34 27h1M36 27h1M38 27h3M2 28h1M26 28h1M35 28h1M37 28h4M2 29h1M22 29h1M27 29h1M33 29h2M36 29h1M21 30h1M32 30h4M37 30h1M43 30h1M3 31h1M19 31h1M23 31h1M25 31h1M31 31h1M34 31h2M38 31h1M43 31h1M3 32h1M23 32h1M29 32h1M34 32h2M37 32h1M39 32h1M23 33h1M26 33h1M34 33h2M38 33h1M40 33h1M21 34h4M26 34h1M34 34h2M39 34h3M19 35h4M31 35h1M34 35h2M40 35h2M18 36h3M30 36h1M33 36h2M31 37h1M15 38h1M18 38h2M21 38h1M30 38h1M33 38h1M35 38h3M17 39h3M21 39h1M31 39h1M34 39h5M16 40h1M20 40h2M32 40h1M37 40h4M18 41h2M38 41h4M8 42h1M32 42h1M18 43h1M32 43h1M39 45h1" />
<path stroke="#000000" d="M13 1h1M11 2h1M15 2h1M37 2h2M11 3h1M16 3h2M22 3h7M35 3h2M39 3h1M11 4h1M18 4h2M29 4h2M32 4h3M39 4h1M31 5h1M39 5h1M43 5h1M45 5h1M10 6h1M38 6h1M45 6h1M10 7h1M38 7h1M42 7h1M45 7h1M10 8h1M38 8h1M41 8h1M45 8h1M10 9h1M37 9h1M41 9h1M10 10h1M28 10h1M37 10h1M46 10h1M10 11h1M28 11h1M37 11h1M40 11h1M45 11h2M17 12h1M36 12h1M40 12h1M44 12h1M46 12h1M11 13h1M17 13h1M27 13h1M36 13h1M40 13h1M44 13h1M46 13h1M11 14h1M17 14h1M26 14h1M35 14h1M40 14h1M44 14h1M46 14h1M17 15h1M26 15h1M35 15h1M44 15h1M46 15h1M5 16h2M12 16h1M18 16h1M26 16h1M34 16h1M39 16h1M44 16h1M4 17h1M7 17h1M18 17h1M25 17h1M34 17h1M39 17h1M44 17h2M3 18h1M7 18h1M13 18h1M18 18h1M24 18h2M33 18h3M39 18h1M43 18h1M45 18h1M2 19h1M7 19h1M14 19h1M18 19h2M24 19h2M32 19h2M36 19h2M39 19h1M43 19h1M45 19h1M2 20h1M8 20h1M15 20h2M19 20h1M24 20h1M31 20h2M38 20h2M43 20h1M45 20h1M1 21h1M6 21h1M8 21h1M14 21h1M16 21h2M24 21h1M29 21h2M32 21h1M43 21h1M45 21h2M1 22h1M6 22h1M8 22h1M13 22h1M18 22h2M27 22h2M32 22h2M40 22h1M43 22h2M46 22h1M1 23h1M6 23h1M9 23h1M13 23h1M17 23h1M19 23h2M23 23h4M32 23h6M40 23h1M43 23h1M46 23h1M0 24h1M6 24h2M9 24h1M12 24h2M18 24h5M33 24h2M36 24h1M38 24h3M43 24h1M0 25h1M6 25h2M10 25h2M17 25h2M20 25h1M34 25h5M40 25h1M43 25h1M45 25h1M0 26h1M8 26h1M11 26h1M15 26h3M19 26h1M21 26h1M33 26h2M36 26h1M39 26h3M43 26h1M45 26h1M0 27h1M5 27h1M8 27h1M12 27h1M14 27h1M16 27h1M18 27h1M20 27h3M32 27h2M35 27h1M37 27h1M41 27h1M43 27h2M0 28h1M5 28h1M9 28h1M12 28h2M17 28h6M32 28h3M36 28h1M41 28h1M43 28h1M0 29h1M5 29h1M9 29h1M12 29h1M32 29h1M35 29h1M37 29h5M43 29h1M0 30h1M5 30h1M10 30h2M22 30h2M27 30h1M31 30h1M36 30h1M38 30h1M42 30h1M1 31h1M6 31h1M20 31h1M24 31h1M26 31h5M36 31h2M39 31h1M1 32h1M6 32h1M18 32h1M24 32h2M27 32h2M30 32h1M36 32h1M38 32h1M40 32h1M1 33h1M6 33h1M17 33h1M24 33h2M30 33h1M36 33h2M39 33h1M41 33h1M2 34h1M6 34h1M16 34h1M25 34h1M30 34h1M36 34h3M42 34h1M2 35h1M7 35h1M15 35h2M23 35h2M26 35h1M30 35h1M36 35h1M38 35h2M42 35h1M3 36h1M7 36h1M14 36h1M16 36h1M21 36h2M26 36h1M29 36h1M31 36h1M35 36h1M40 36h2M3 37h1M7 37h1M14 37h1M17 37h5M27 37h4M32 37h1M35 37h3M4 38h1M8 38h1M14 38h1M17 38h1M20 38h1M22 38h1M29 38h1M31 38h2M34 38h1M38 38h1M5 39h1M8 39h1M15 39h2M20 39h1M22 39h1M30 39h1M32 39h2M39 39h2M6 40h1M9 40h1M17 40h3M22 40h1M30 40h2M33 40h4M41 40h1M7 41h1M10 41h1M15 41h1M22 41h1M31 41h3M37 41h1M42 41h1M9 42h2M14 42h1M17 42h2M21 42h1M31 42h1M33 42h1M38 42h1M41 42h2M15 43h2M21 43h1M31 43h1M33 43h1M37 43h1M39 43h3M43 43h1M19 44h2M32 44h1M37 44h2M42 44h2M36 45h1M41 45h1M44 45h1M36 46h1M39 46h3M44 46h1M36 47h3M42 47h2" />
<path stroke="#bd7b5a" d="M14 3h2M38 3h1M13 4h5M21 4h6M35 4h2M38 4h1M13 5h5M19 5h1M22 5h6M33 5h3M38 5h1M13 6h6M23 6h6M31 6h5M37 6h1M13 7h6M23 7h6M31 7h5M37 7h1M12 8h6M23 8h6M31 8h7M44 8h1M12 9h6M22 9h7M30 9h7M43 9h2M12 10h6M22 10h6M29 10h8M43 10h2M12 11h6M22 11h6M29 11h8M43 11h1M11 12h6M21 12h6M28 12h8M42 12h2M45 12h1M12 13h5M18 13h1M21 13h6M28 13h8M42 13h2M45 13h1M12 14h5M18 14h8M29 14h6M42 14h2M45 14h1M12 15h5M18 15h8M29 15h6M42 15h2M45 15h1M13 16h3M19 16h7M29 16h5M41 16h3M45 16h1M13 17h3M19 17h6M29 17h4M41 17h3M14 18h2M19 18h5M28 18h5M41 18h2M44 18h1M15 19h2M20 19h4M27 19h4M41 19h2M17 20h1M20 20h4M26 20h4M41 20h2M5 21h1M18 21h1M20 21h4M25 21h3M31 21h1M38 21h2M42 21h1M5 22h1M20 22h3M30 22h1M37 22h3M42 22h1M4 23h2M18 23h1M27 23h1M29 23h1M31 23h1M42 23h1M4 24h2M14 24h2M28 24h1M30 24h1M32 24h1M42 24h1M3 25h3M12 25h3M29 25h1M31 25h1M42 25h1M44 25h1M3 26h2M12 26h1M30 26h1M32 26h1M44 26h1M3 27h2M11 27h1M3 28h2M10 28h2M3 29h2M10 29h2M3 30h2M4 31h1M32 31h2M4 32h1M22 32h1M31 32h3M4 33h2M20 33h3M31 33h3M4 34h2M17 34h4M31 34h3M5 35h1M17 35h2M32 35h2M5 36h1M15 36h1M17 36h1M32 36h1M6 37h1M15 37h2M33 37h2M6 38h1M16 38h1M7 39h1M8 40h1M8 41h2M20 41h2M39 42h2M38 43h1M42 43h1M39 44h3M40 45h1" />
</svg>