<svg xmlns="http://www.w3.org/2000/svg" viewBox="0 -0.5 56 56" shape-rendering="crispEdges">
<metadata>Made with Pixels to Svg https://codepen.io/shshaw/pen/XbxvNj</metadata>
<path stroke="#ffffff" d="M0 0h48M50 0h6M0 1h24M26 1h2M30 1h17M48 1h2M51 1h5M0 2h23M26 2h1M31 2h15M47 2h4M52 2h4M0 3h23M30 3h15M46 3h2M51 3h1M53 3h3M0 4h23M31 4h14M46 4h1M53 4h3M0 5h22M32 5h12M45 5h2M54 5h2M0 6h19M33 6h11M45 6h1M54 6h2M0 7h19M27 7h1M33 7h10M44 7h2M54 7h2M0 8h20M25 8h1M27 8h1M34 8h8M43 8h2M55 8h1M0 9h22M34 9h6M42 9h2M55 9h1M0 10h22M23 10h1M35 10h3M40 10h3M55 10h1M0 11h21M22 11h2M27 11h1M38 11h3M55 11h1M0 12h21M27 12h4M36 12h3M55 12h1M0 13h21M27 13h4M32 13h4M55 13h1M0 14h6M11 14h11M23 14h1M26 14h5M32 14h3M55 14h1M0 15h5M6 15h3M13 15h11M25 15h7M33 15h2M55 15h1M0 16h4M5 16h2M16 16h5M24 16h5M30 16h2M33 16h2M55 16h1M0 17h4M5 17h1M14 17h2M24 17h5M30 17h2M34 17h1M55 17h1M0 18h3M4 18h1M17 18h1M23 18h7M31 18h1M55 18h1M0 19h3M4 19h1M23 19h7M31 19h1M34 19h1M55 19h1M0 20h3M23 20h5M29 20h1M33 20h1M35 20h1M43 20h1M55 20h1M0 21h2M23 21h2M26 21h2M29 21h2M34 21h1M41 21h4M55 21h1M0 22h2M24 22h1M26 22h2M33 22h1M41 22h6M54 22h2M0 23h2M25 23h1M27 23h2M34 23h1M41 23h7M54 23h2M0 24h2M25 24h2M30 24h4M41 24h7M54 24h2M0 25h1M22 25h1M26 25h7M41 25h6M54 25h2M0 26h1M9 26h1M15 26h3M20 26h5M26 26h7M41 26h6M53 26h3M0 27h1M9 27h1M14 27h10M26 27h9M40 27h7M53 27h3M0 28h1M5 28h1M9 28h1M13 28h11M25 28h1M27 28h3M31 28h1M33 28h1M35 28h1M41 28h6M52 28h4M0 29h1M5 29h1M9 29h1M12 29h12M25 29h4M30 29h1M32 29h1M34 29h2M41 29h6M50 29h6M0 30h1M5 30h1M9 30h14M24 30h3M29 30h1M31 30h1M39 30h1M41 30h2M45 30h2M49 30h7M0 31h1M5 31h1M8 31h15M24 31h2M38 31h2M41 31h1M43 31h1M46 31h10M0 32h1M5 32h18M24 32h2M39 32h1M41 32h1M43 32h2M46 32h10M0 33h1M4 33h12M18 33h6M44 33h1M46 33h10M0 34h2M3 34h12M19 34h4M47 34h9M0 35h13M16 35h2M19 35h3M27 35h2M44 35h1M47 35h9M0 36h12M16 36h1M26 36h4M44 36h2M49 36h7M0 37h12M13 37h1M25 37h6M45 37h1M51 37h5M0 38h12M13 38h1M15 38h3M23 38h10M35 38h1M40 38h5M47 38h1M52 38h4M0 39h13M14 39h5M23 39h13M40 39h9M53 39h3M0 40h15M23 40h12M37 40h2M40 40h9M53 40h3M0 41h12M15 41h7M25 41h10M37 41h1M39 41h11M54 41h2M0 42h10M12 42h5M22 42h3M27 42h9M38 42h12M54 42h2M0 43h8M10 43h4M17 43h5M29 43h21M54 43h2M0 44h6M31 44h19M54 44h2M0 45h5M18 45h8M33 45h16M53 45h3M0 46h4M5 46h1M7 46h3M11 46h3M16 46h13M34 46h14M53 46h3M0 47h4M14 47h17M35 47h11M52 47h4M0 48h3M4 48h1M6 48h2M9 48h2M12 48h21M37 48h6M51 48h5M0 49h3M4 49h1M6 49h1M9 49h1M11 49h24M50 49h6M0 50h3M10 50h29M48 50h8M0 51h3M9 51h32M46 51h10M0 52h3M8 52h48M0 53h4M8 53h48M0 54h4M7 54h49M0 55h5M7 55h49" />
<path stroke="#000000" d="M48 0h2M24 1h2M28 1h2M47 1h1M50 1h1M25 2h1M27 2h1M30 2h1M46 2h1M51 2h1M25 3h2M29 3h1M45 3h1M48 3h2M52 3h1M25 4h1M28 4h3M45 4h1M47 4h1M49 4h1M52 4h1M22 5h1M25 5h1M28 5h1M31 5h1M44 5h1M47 5h1M50 5h1M53 5h1M20 6h3M25 6h1M27 6h1M32 6h1M44 6h1M46 6h1M50 6h1M53 6h1M19 7h1M22 7h1M25 7h2M32 7h1M43 7h1M50 7h1M53 7h1M20 8h2M23 8h2M26 8h1M33 8h1M42 8h1M45 8h1M50 8h1M54 8h1M22 9h2M25 9h2M33 9h1M40 9h2M44 9h1M50 9h1M54 9h1M22 10h1M34 10h1M38 10h2M50 10h1M54 10h1M26 11h1M35 11h3M50 11h1M54 11h1M21 12h1M24 12h2M33 12h2M47 12h1M50 12h1M54 12h1M21 13h1M23 13h1M26 13h1M43 13h1M47 13h1M50 13h1M54 13h1M7 14h3M22 14h1M24 14h2M43 14h1M47 14h1M50 14h1M54 14h1M5 15h1M11 15h2M24 15h1M37 15h1M43 15h1M47 15h1M49 15h1M54 15h1M7 16h3M13 16h3M21 16h3M35 16h1M37 16h1M44 16h1M47 16h1M49 16h1M54 16h1M4 17h1M10 17h2M16 17h1M18 17h3M23 17h1M35 17h1M38 17h1M41 17h1M44 17h1M46 17h1M49 17h1M54 17h1M13 18h2M22 18h1M35 18h1M38 18h1M41 18h1M44 18h1M46 18h1M49 18h1M52 18h1M54 18h1M3 19h1M16 19h7M35 19h1M38 19h1M42 19h3M46 19h1M48 19h1M52 19h1M54 19h1M3 20h1M22 20h1M36 20h2M39 20h1M41 20h2M44 20h1M46 20h1M48 20h1M52 20h1M54 20h1M9 21h1M16 21h1M22 21h1M39 21h2M45 21h2M48 21h1M52 21h1M54 21h1M2 22h1M9 22h1M16 22h1M19 22h1M23 22h1M40 22h1M47 22h2M51 22h1M53 22h1M2 23h1M5 23h1M9 23h1M13 23h1M16 23h1M19 23h1M24 23h1M40 23h1M48 23h1M51 23h1M53 23h1M2 24h1M5 24h1M9 24h1M13 24h1M17 24h1M19 24h1M22 24h1M24 24h1M40 24h1M48 24h1M51 24h1M53 24h1M5 25h1M9 25h1M13 25h1M15 25h3M20 25h2M23 25h3M40 25h1M47 25h1M50 25h1M53 25h1M1 26h1M5 26h1M8 26h1M10 26h1M13 26h2M18 26h2M25 26h1M40 26h1M47 26h1M50 26h1M52 26h1M1 27h1M8 27h1M10 27h1M13 27h1M24 27h1M39 27h1M47 27h1M50 27h1M52 27h1M1 28h1M4 28h1M6 28h1M8 28h1M10 28h1M12 28h1M24 28h1M40 28h1M47 28h1M50 28h2M1 29h1M4 29h1M6 29h1M8 29h1M11 29h1M24 29h1M38 29h3M49 29h1M1 30h1M4 30h1M6 30h1M8 30h1M28 30h1M36 30h2M40 30h1M44 30h1M1 31h1M4 31h1M7 31h1M23 31h1M29 31h2M35 31h1M37 31h1M40 31h1M45 31h1M1 32h1M4 32h1M23 32h1M31 32h3M35 32h1M38 32h1M40 32h1M42 32h1M45 32h1M1 33h1M3 33h1M16 33h2M24 33h1M29 33h2M32 33h1M34 33h1M36 33h1M38 33h4M43 33h1M45 33h1M2 34h1M15 34h1M18 34h1M23 34h1M25 34h1M27 34h3M35 34h2M38 34h1M40 34h1M43 34h4M13 35h3M18 35h1M22 35h1M26 35h1M29 35h1M36 35h2M40 35h1M42 35h2M46 35h1M15 36h1M17 36h1M19 36h3M25 36h1M30 36h1M37 36h1M46 36h3M12 37h1M14 37h4M20 37h1M23 37h2M31 37h2M35 37h3M40 37h5M46 37h5M12 38h1M14 38h1M18 38h1M22 38h1M33 38h2M36 38h1M39 38h1M45 38h2M48 38h2M51 38h1M13 39h1M19 39h1M22 39h1M36 39h1M38 39h2M49 39h1M51 39h2M22 40h1M35 40h1M39 40h1M49 40h2M52 40h1M35 41h1M38 41h1M50 41h1M53 41h1M36 42h2M50 42h1M53 42h1M24 43h5M50 43h1M53 43h1M19 44h5M29 44h2M50 44h1M53 44h1M17 45h1M26 45h3M31 45h2M49 45h1M52 45h1M15 46h1M29 46h2M33 46h1M48 46h1M52 46h1M13 47h1M31 47h2M34 47h1M46 47h2M51 47h1M11 48h1M33 48h4M44 48h2M50 48h1M10 49h1M35 49h6M42 49h1M48 49h2M9 50h1M39 50h2M46 50h2M8 51h1M42 51h4M3 52h1M7 52h1M4 53h1M7 53h1M4 54h1M6 54h1M5 55h2" />
<path stroke="#425a84" d="M23 2h1M29 2h1M23 3h1M27 3h2M23 4h1M26 4h2M48 4h1M23 5h2M26 5h2M48 5h2M19 6h1M23 6h2M26 6h1M47 6h3M21 7h1M23 7h2M28 7h1M46 7h4M28 8h1M46 8h4M27 9h1M45 9h5M25 10h1M43 10h7M21 11h1M41 11h9M26 12h1M32 12h1M39 12h8M48 12h2M22 13h1M24 13h2M31 13h1M36 13h7M44 13h3M48 13h2M6 14h1M10 14h1M31 14h1M35 14h8M44 14h3M48 14h2M32 15h1M35 15h2M38 15h5M44 15h3M48 15h1M53 15h1M4 16h1M29 16h1M32 16h1M36 16h1M38 16h6M45 16h2M48 16h1M53 16h1M6 17h4M17 17h1M29 17h1M32 17h1M36 17h2M39 17h2M42 17h2M45 17h1M47 17h2M53 17h1M3 18h1M5 18h8M30 18h1M32 18h1M36 18h2M39 18h2M42 18h2M45 18h1M47 18h2M53 18h1M5 19h11M30 19h1M32 19h1M36 19h2M39 19h3M45 19h1M47 19h1M53 19h1M4 20h18M28 20h1M31 20h1M40 20h1M45 20h1M47 20h1M53 20h1M2 21h7M10 21h6M17 21h5M25 21h1M28 21h1M31 21h1M47 21h1M53 21h1M3 22h6M10 22h6M17 22h2M20 22h3M25 22h1M29 22h2M52 22h1M3 23h2M6 23h3M10 23h3M14 23h2M17 23h2M20 23h4M26 23h1M29 23h2M52 23h1M3 24h2M6 24h3M10 24h3M14 24h3M18 24h1M20 24h2M23 24h1M27 24h3M52 24h1M1 25h4M6 25h3M10 25h2M14 25h1M18 25h2M51 25h2M2 26h3M6 26h1M12 26h1M37 26h2M48 26h1M51 26h1M2 27h4M7 27h1M11 27h1M25 27h1M35 27h2M49 27h1M51 27h1M2 28h2M26 28h1M34 28h1M48 28h1M2 29h2M7 29h1M10 29h1M33 29h1M47 29h1M2 30h2M23 30h1M33 30h1M38 30h1M43 30h1M47 30h2M3 31h1M6 31h1M36 31h1M42 31h1M44 31h1M2 32h1M36 32h2M31 33h1M33 33h1M37 33h1M42 33h1M16 34h2M24 34h1M30 34h1M32 34h1M34 34h1M37 34h1M39 34h1M41 34h2M24 35h2M31 35h1M33 35h1M35 35h1M38 35h2M41 35h1M45 35h1M12 36h1M14 36h1M18 36h1M22 36h3M32 36h1M34 36h1M36 36h1M38 36h6M18 37h2M21 37h2M33 37h1M38 37h2M19 38h3M37 38h2M50 38h1M20 39h2M37 39h1M50 39h1M15 40h2M36 40h1M51 40h1M12 41h2M24 41h1M36 41h1M51 41h2M10 42h2M17 42h5M25 42h2M51 42h2M8 43h2M14 43h3M22 43h2M51 43h2M6 44h3M12 44h2M18 44h1M24 44h5M51 44h2M5 45h1M7 45h1M11 45h1M16 45h1M29 45h2M50 45h2M4 46h1M6 46h1M10 46h1M14 46h1M31 46h2M50 46h2M4 47h1M6 47h1M9 47h1M12 47h1M33 47h1M3 48h1M5 48h1M8 48h1M43 48h1M3 49h1M5 49h1M7 49h2M41 49h1M3 50h1M5 50h1M7 50h1M3 51h1M5 51h1M41 51h1M5 52h1M5 53h2M5 54h1" />
<path stroke="#5aadff" d="M24 2h1M28 2h1M24 3h1M50 3h1M24 4h1M50 4h2M29 5h2M51 5h2M28 6h4M51 6h2M20 7h1M29 7h3M51 7h2M22 8h1M29 8h4M51 8h3M24 9h1M28 9h5M51 9h3M24 10h1M26 10h8M51 10h3M24 11h2M28 11h7M51 11h3M22 12h2M31 12h1M35 12h1M51 12h3M51 13h3M51 14h3M9 15h2M50 15h3M10 16h3M50 16h3M12 17h2M21 17h2M33 17h1M50 17h3M15 18h2M18 18h4M33 18h2M50 18h2M33 19h1M49 19h3M30 20h1M32 20h1M34 20h1M38 20h1M49 20h3M32 21h2M35 21h4M49 21h3M28 22h1M31 22h2M34 22h6M49 22h2M31 23h3M35 23h5M49 23h2M34 24h6M49 24h2M12 25h1M33 25h7M48 25h2M7 26h1M11 26h1M33 26h4M39 26h1M49 26h1M6 27h1M12 27h1M37 27h2M48 27h1M7 28h1M11 28h1M30 28h1M32 28h1M36 28h4M49 28h1M29 29h1M31 29h1M36 29h2M48 29h1M7 30h1M27 30h1M30 30h1M32 30h1M34 30h2M2 31h1M26 31h3M31 31h4M3 32h1M26 32h5M34 32h1M2 33h1M25 33h4M35 33h1M26 34h1M31 34h1M33 34h1M23 35h1M30 35h1M32 35h1M34 35h1M13 36h1M31 36h1M33 36h1M35 36h1M34 37h1M17 40h5M14 41h1M22 41h2M9 44h3M14 44h4M6 45h1M8 45h3M12 45h4M49 46h1M5 47h1M7 47h2M10 47h2M48 47h3M46 48h4M43 49h5M4 50h1M6 50h1M8 50h1M41 50h5M4 51h1M6 51h2M4 52h1M6 52h1" />
</svg>