<svg xmlns="http://www.w3.org/2000/svg" viewBox="0 -0.5 48 48" shape-rendering="crispEdges">
<metadata>Made with Pixels to Svg https://codepen.io/shshaw/pen/XbxvNj</metadata>
<path stroke="#ffffff" d="M0 0h23M25 0h5M32 0h16M0 1h22M26 1h3M33 1h15M0 2h22M27 2h2M34 2h14M0 3h23M27 3h3M34 3h14M0 4h24M34 4h14M0 5h24M33 5h15M0 6h23M25 6h2M34 6h14M0 7h22M35 7h13M0 8h21M35 8h13M0 9h21M36 9h12M0 10h15M17 10h3M39 10h9M0 11h14M40 11h8M0 12h14M21 12h1M23 12h1M40 12h8M0 13h14M20 13h1M22 13h1M41 13h7M0 14h15M21 14h1M24 14h4M41 14h7M0 15h15M20 15h1M22 15h8M41 15h7M0 16h15M21 16h10M40 16h8M0 17h15M21 17h3M27 17h4M40 17h8M0 18h16M20 18h3M28 18h4M39 18h9M0 19h16M20 19h3M29 19h3M39 19h9M0 20h17M20 20h3M29 20h3M38 20h10M0 21h18M21 21h3M29 21h3M37 21h11M0 22h19M21 22h4M28 22h3M36 22h12M0 23h20M22 23h9M36 23h12M0 24h22M23 24h7M35 24h13M0 25h22M25 25h3M35 25h13M0 26h22M36 26h12M0 27h23M27 27h1M36 27h12M0 28h23M27 28h1M36 28h12M0 29h24M26 29h1M32 29h1M35 29h13M0 30h27M32 30h16M0 31h26M33 31h15M0 32h25M33 32h15M0 33h24M33 33h15M0 34h22M33 34h15M0 35h19M22 35h1M24 35h1M33 35h15M0 36h17M23 36h1M25 36h1M33 36h15M0 37h16M32 37h16M0 38h15M17 38h1M19 38h1M32 38h16M0 39h15M16 39h1M18 39h1M20 39h1M32 39h16M0 40h14M31 40h17M0 41h14M31 41h17M0 42h14M30 42h18M0 43h14M30 43h18M0 44h15M29 44h19M0 45h15M28 45h20M0 46h16M27 46h21M0 47h18M25 47h23" />
<path stroke="#000000" d="M23 0h2M30 0h2M22 1h4M29 1h4M22 2h1M25 2h2M29 2h1M32 2h2M23 3h1M26 3h1M30 3h1M33 3h1M24 4h1M26 4h5M33 4h1M25 5h2M30 5h1M32 5h1M30 6h2M33 6h1M34 7h1M21 8h1M24 8h1M29 8h1M34 8h1M26 9h1M35 9h1M15 10h2M20 10h1M25 10h1M27 10h1M36 10h3M14 11h1M18 11h2M35 11h1M39 11h1M14 12h1M35 12h1M39 12h1M14 13h1M35 13h1M40 13h1M15 14h1M40 14h1M15 15h1M40 15h1M15 16h1M39 16h1M15 17h1M39 17h1M16 18h1M38 18h1M16 19h1M38 19h1M17 20h1M37 20h1M18 21h1M36 21h1M19 22h2M35 22h1M20 23h2M35 23h1M22 24h1M34 24h1M22 25h2M34 25h1M22 26h1M27 26h5M35 26h1M23 27h1M26 27h1M28 27h1M31 27h2M35 27h1M23 28h1M26 28h1M28 28h1M31 28h2M35 28h1M24 29h2M27 29h1M31 29h1M33 29h2M27 30h1M31 30h1M26 31h1M32 31h1M25 32h1M32 32h1M24 33h1M32 33h1M22 34h2M32 34h1M19 35h3M32 35h1M17 36h2M32 36h1M16 37h1M31 37h1M15 38h1M31 38h1M15 39h1M31 39h1M14 40h1M30 40h1M14 41h1M30 41h1M14 42h1M29 42h1M14 43h1M29 43h1M15 44h1M28 44h1M15 45h1M27 45h1M16 46h2M25 46h2M18 47h7" />
<path stroke="#7b3a21" d="M23 2h2M30 2h2M24 3h2M31 3h2M25 4h1M31 4h2M24 5h1M31 5h1M23 6h1M22 7h1M24 7h1M29 7h1M21 9h1M26 10h1M17 11h1M26 11h2M16 12h2M36 12h1M17 13h1M16 14h1M36 14h2M19 19h1M19 20h1M20 21h1M33 24h1M24 25h1M31 25h2M25 26h2M29 27h2M29 28h2M33 28h1M28 29h3M28 30h3M30 31h2M26 32h1M31 32h1M25 33h4M25 34h5M27 35h4M19 36h4M28 36h3M17 37h8M29 37h2M16 38h1M21 38h5M29 38h2M22 39h4M30 39h1M23 40h4M23 41h4M23 42h4M23 43h4M22 44h4M16 45h1M21 45h5M18 46h7" />
<path stroke="#b57b52" d="M27 5h3M24 6h1M27 6h3M32 6h1M23 7h1M25 7h4M30 7h4M22 8h2M25 8h4M30 8h4M22 9h4M27 9h8M21 10h4M28 10h8M15 11h2M20 11h6M28 11h7M36 11h3M15 12h1M18 12h3M22 12h1M24 12h11M37 12h2M15 13h2M18 13h2M21 13h1M23 13h12M36 13h4M17 14h4M22 14h2M28 14h8M38 14h2M16 15h4M21 15h1M30 15h10M16 16h5M31 16h8M16 17h5M24 17h3M31 17h8M17 18h3M23 18h5M32 18h6M17 19h2M23 19h6M32 19h6M18 20h1M23 20h6M32 20h5M19 21h1M24 21h5M32 21h4M25 22h3M31 22h4M31 23h4M30 24h3M28 25h3M33 25h1M23 26h2M32 26h3M24 27h2M33 27h2M24 28h2M34 28h1M27 31h3M27 32h4M29 33h3M24 34h1M30 34h2M23 35h1M25 35h2M31 35h1M24 36h1M26 36h2M31 36h1M25 37h4M18 38h1M20 38h1M26 38h3M17 39h1M19 39h1M21 39h1M26 39h4M15 40h8M27 40h3M15 41h8M27 41h3M15 42h8M27 42h2M15 43h8M27 43h2M16 44h6M26 44h2M17 45h4M26 45h1" />
</svg>