<svg xmlns="http://www.w3.org/2000/svg" viewBox="0 -0.5 40 40" shape-rendering="crispEdges">
<metadata>Made with Pixels to Svg https://codepen.io/shshaw/pen/XbxvNj</metadata>
<path stroke="#ffffff" d="M0 0h40M0 1h40M0 2h40M0 3h40M0 4h40M0 5h40M0 6h40M0 7h40M0 8h18M22 8h18M0 9h16M19 9h1M24 9h16M0 10h15M25 10h15M0 11h14M26 11h14M0 12h13M27 12h13M0 13h12M18 13h4M28 13h12M0 14h12M17 14h6M28 14h12M0 15h11M16 15h3M21 15h3M31 15h9M0 16h11M16 16h2M19 16h1M22 16h2M32 16h8M0 17h11M16 17h2M22 17h2M32 17h8M0 18h11M16 18h3M21 18h3M31 18h9M0 19h12M17 19h6M28 19h12M0 20h12M18 20h4M28 20h12M0 21h13M27 21h13M0 22h14M26 22h14M0 23h15M25 23h15M0 24h16M24 24h16M0 25h18M22 25h18M0 26h17M19 26h1M23 26h17M0 27h16M24 27h16M0 28h15M25 28h15M0 29h14M26 29h14M0 30h13M18 30h4M27 30h13M0 31h10M17 31h6M28 31h12M0 32h9M17 32h6M28 32h12M0 33h9M17 33h6M28 33h12M0 34h10M17 34h6M28 34h12M0 35h13M18 35h4M27 35h13M0 36h14M26 36h14M0 37h15M25 37h15M0 38h16M24 38h16M0 39h17M23 39h17" />
<path stroke="#007b42" d="M18 8h4M17 9h1M22 9h1M15 10h1M24 10h1M14 11h1M25 11h1M13 12h1M18 12h1M21 12h1M26 12h1M16 13h1M23 13h1M12 14h1M27 14h1M15 15h1M19 15h2M24 15h1M28 15h2M18 16h1M21 16h1M31 16h1M18 17h1M21 17h1M31 17h1M15 18h1M19 18h2M24 18h1M28 18h2M12 19h1M27 19h1M16 20h1M23 20h1M13 21h1M18 21h1M21 21h1M26 21h1M14 22h1M25 22h1M15 23h1M24 23h1M17 24h1M22 24h1M18 25h4M18 26h1M21 26h1M16 27h1M23 27h1M15 28h1M24 28h1M14 29h1M18 29h1M21 29h1M25 29h1M17 30h1M22 30h1M11 31h2M16 31h1M23 31h1M9 32h1M9 33h1M11 34h2M16 34h1M23 34h1M17 35h1M22 35h1M14 36h1M18 36h1M21 36h1M25 36h1M15 37h1M24 37h1M16 38h1M23 38h1M18 39h1M21 39h1" />
<path stroke="#5aff7b" d="M16 9h1M20 9h1M23 9h1M19 12h2M12 13h1M17 13h1M22 13h1M27 13h1M16 14h1M23 14h1M11 15h1M30 15h1M11 16h1M15 16h1M24 16h1M11 17h1M15 17h1M24 17h1M11 18h1M30 18h1M16 19h1M23 19h1M12 20h1M17 20h1M22 20h1M27 20h1M19 21h2M16 24h1M23 24h1M17 26h1M20 26h1M22 26h1M19 29h2M13 30h1M26 30h1M10 31h1M27 31h1M16 32h1M23 32h1M27 32h1M16 33h1M23 33h1M27 33h1M10 34h1M27 34h1M13 35h1M26 35h1M19 36h2M17 39h1M22 39h1" />
<path stroke="#000000" d="M18 9h1M21 9h1M16 10h8M15 11h10M14 12h4M22 12h4M13 13h3M24 13h3M13 14h3M24 14h3M12 15h3M25 15h3M12 16h3M20 16h1M25 16h6M12 17h3M19 17h2M25 17h6M12 18h3M25 18h3M13 19h3M24 19h3M13 20h3M24 20h3M14 21h4M22 21h4M15 22h10M16 23h8M18 24h4M17 27h6M16 28h8M15 29h3M22 29h3M14 30h3M23 30h3M13 31h3M24 31h3M10 32h6M24 32h3M10 33h6M24 33h3M13 34h3M24 34h3M14 35h3M23 35h3M15 36h3M22 36h3M16 37h8M17 38h6M19 39h2" />
</svg>