<svg xmlns="http://www.w3.org/2000/svg" viewBox="0 -0.5 48 48" shape-rendering="crispEdges">
<metadata>Made with Pixels to Svg https://codepen.io/shshaw/pen/XbxvNj</metadata>
<path stroke="#ffffff" d="M0 0h21M23 0h25M0 1h10M11 1h9M24 1h24M0 2h9M10 2h1M12 2h7M20 2h1M24 2h24M0 3h9M12 3h6M19 3h1M24 3h24M0 4h9M13 4h4M23 4h25M0 5h9M14 5h1M23 5h25M0 6h10M23 6h25M0 7h10M14 7h1M23 7h25M0 8h9M14 8h1M24 8h24M0 9h9M24 9h24M0 10h10M12 10h2M18 10h3M23 10h4M29 10h19M0 11h14M19 11h7M27 11h1M30 11h9M41 11h7M0 12h14M19 12h7M30 12h6M39 12h2M42 12h6M0 13h9M11 13h3M20 13h1M26 13h1M29 13h6M36 13h2M39 13h2M43 13h5M0 14h8M9 14h1M12 14h3M21 14h2M30 14h4M35 14h3M44 14h4M0 15h8M12 15h3M31 15h3M44 15h4M0 16h8M13 16h2M32 16h3M47 16h1M0 17h4M6 17h5M33 17h4M46 17h1M0 18h3M4 18h2M7 18h5M33 18h5M47 18h1M0 19h2M3 19h2M6 19h7M34 19h4M46 19h2M0 20h1M4 20h1M7 20h6M25 20h3M34 20h5M47 20h1M1 21h2M7 21h5M15 21h1M24 21h1M27 21h1M35 21h5M47 21h1M1 22h3M9 22h3M14 22h1M16 22h1M24 22h1M27 22h1M35 22h6M47 22h1M2 23h1M8 23h1M10 23h2M14 23h1M16 23h1M24 23h3M38 23h3M10 24h2M15 24h2M40 24h2M2 25h1M9 25h3M47 25h1M2 26h1M8 26h4M34 26h2M47 26h1M1 27h1M7 27h4M34 27h2M47 27h1M1 28h1M7 28h2M46 28h2M7 29h1M42 29h6M0 30h1M40 30h8M0 31h1M38 31h10M0 32h2M37 32h11M0 33h3M8 33h4M38 33h10M0 34h14M38 34h10M0 35h14M38 35h10M0 36h10M11 36h2M33 36h1M41 36h7M0 37h9M32 37h3M42 37h6M0 38h9M32 38h3M42 38h6M0 39h9M12 39h2M33 39h2M41 39h7M0 40h10M12 40h2M35 40h1M41 40h7M0 41h10M36 41h1M41 41h7M0 42h11M41 42h7M0 43h12M40 43h8M0 44h10M20 44h4M31 44h3M42 44h6M0 45h9M10 45h2M19 45h16M40 45h1M43 45h5M0 46h8M9 46h2M16 46h20M38 46h3M44 46h4M0 47h9M12 47h26M44 47h4" />
<path stroke="#195a7b" d="M21 0h1M19 2h1M22 2h1M21 3h2M10 4h1M20 4h2M10 5h2M18 5h4M11 6h3M15 6h7M11 7h3M15 7h7M11 8h3M15 8h8M11 9h1M15 9h2M21 9h2M16 10h1M27 10h1M16 11h2M26 11h1M39 11h1M16 12h2M26 12h3M36 12h2M9 13h2M17 13h2M21 13h2M27 13h1M35 13h1M8 14h1M17 14h2M20 14h1M24 14h2M34 14h1M42 14h1M17 15h3M23 15h2M28 15h2M38 15h2M41 15h2M17 16h3M21 16h4M28 16h3M37 16h5M43 16h1M46 16h1M4 17h1M18 17h3M22 17h3M26 17h1M28 17h4M40 17h2M43 17h2M14 18h2M18 18h8M27 18h5M39 18h1M42 18h4M15 19h1M19 19h6M27 19h6M41 19h4M2 20h2M5 20h1M14 20h2M19 20h5M28 20h5M42 20h3M46 20h1M0 21h1M3 21h3M13 21h2M16 21h1M18 21h6M28 21h6M43 21h3M4 22h1M6 22h1M8 22h1M13 22h1M18 22h6M28 22h6M44 22h2M3 23h2M6 23h1M13 23h1M17 23h1M19 23h5M28 23h6M44 23h3M5 24h4M14 24h1M17 24h7M26 24h7M34 24h3M45 24h2M4 25h2M7 25h1M12 25h1M15 25h1M19 25h5M25 25h7M33 25h1M37 25h3M45 25h1M4 26h2M16 26h1M19 26h2M24 26h8M42 26h2M3 27h3M11 27h2M17 27h1M21 27h11M40 27h1M42 27h4M3 28h3M9 28h1M22 28h9M33 28h1M37 28h5M0 29h1M3 29h3M12 29h2M23 29h5M31 29h1M33 29h7M3 30h3M8 30h5M21 30h1M28 30h5M34 30h4M2 31h3M6 31h2M9 31h4M26 31h1M28 31h6M5 32h3M12 32h1M28 32h8M16 33h1M27 33h1M30 33h1M32 33h5M17 34h1M29 34h1M31 34h2M36 34h1M30 35h1M16 36h1M16 37h2M30 37h1M37 37h2M10 38h2M17 38h1M31 38h1M38 38h3M10 39h1M17 39h2M31 39h1M38 39h2M15 40h2M18 40h1M21 40h1M28 40h1M32 40h1M38 40h1M11 41h1M14 41h4M19 41h1M22 41h1M32 41h2M37 41h3M12 42h2M16 42h3M28 42h4M33 42h7M14 43h2M19 43h2M24 43h7M34 43h4M12 44h2M16 44h1M35 44h1M38 44h2M9 45h1M13 45h3M36 45h3" />
<path stroke="#000000" d="M22 0h1M10 1h1M20 1h1M23 1h1M9 2h1M11 2h1M23 2h1M9 3h1M11 3h1M18 3h1M23 3h1M9 4h1M12 4h1M17 4h1M22 4h1M9 5h1M13 5h1M15 5h2M22 5h1M10 6h1M14 6h1M22 6h1M10 7h1M22 7h1M9 8h1M23 8h1M9 9h1M12 9h2M17 9h4M23 9h1M10 10h2M14 10h1M17 10h1M21 10h2M28 10h1M14 11h1M18 11h1M29 11h1M40 11h1M14 12h1M18 12h1M29 12h1M38 12h1M41 12h1M14 13h1M19 13h1M23 13h3M28 13h1M38 13h1M41 13h2M11 14h1M15 14h1M19 14h1M26 14h1M28 14h2M38 14h2M41 14h1M43 14h1M8 15h1M11 15h1M15 15h1M20 15h1M25 15h1M27 15h1M30 15h1M34 15h1M36 15h2M40 15h1M43 15h1M8 16h3M12 16h1M15 16h1M20 16h1M25 16h1M27 16h1M31 16h1M35 16h2M42 16h1M44 16h2M5 17h1M11 17h1M13 17h3M21 17h1M27 17h1M32 17h1M37 17h3M42 17h1M47 17h1M3 18h1M6 18h1M12 18h1M16 18h1M26 18h1M32 18h1M38 18h1M40 18h2M46 18h1M2 19h1M5 19h1M13 19h1M16 19h1M25 19h2M33 19h1M38 19h1M45 19h1M1 20h1M6 20h1M13 20h1M16 20h1M24 20h1M33 20h1M39 20h1M6 21h1M12 21h1M17 21h1M25 21h2M34 21h1M40 21h1M46 21h1M0 22h1M5 22h1M7 22h1M12 22h1M15 22h1M17 22h1M25 22h2M34 22h1M41 22h1M46 22h1M0 23h2M5 23h1M9 23h1M12 23h1M15 23h1M18 23h1M27 23h1M34 23h4M41 23h1M47 23h1M0 24h1M2 24h3M9 24h1M12 24h1M24 24h2M33 24h1M37 24h3M42 24h1M47 24h1M0 25h1M6 25h1M8 25h1M16 25h1M24 25h1M32 25h1M40 25h4M46 25h1M0 26h1M6 26h2M12 26h1M21 26h3M32 26h1M41 26h1M44 26h3M0 27h1M6 27h1M13 27h1M18 27h3M32 27h1M41 27h1M46 27h1M0 28h1M6 28h1M10 28h1M13 28h1M31 28h2M42 28h4M6 29h1M8 29h1M14 29h1M28 29h3M32 29h1M40 29h2M1 30h1M6 30h2M13 30h1M15 30h2M22 30h6M33 30h1M38 30h2M1 31h1M5 31h1M8 31h1M13 31h1M16 31h5M27 31h1M34 31h4M2 32h3M8 32h4M13 32h1M16 32h1M27 32h1M36 32h1M3 33h5M12 33h3M28 33h1M37 33h1M14 34h1M28 34h1M33 34h3M37 34h1M14 35h1M17 35h1M28 35h1M32 35h1M36 35h2M10 36h1M13 36h1M15 36h1M17 36h1M29 36h1M31 36h1M37 36h4M9 37h1M11 37h2M15 37h1M18 37h1M29 37h1M31 37h1M41 37h1M9 38h1M16 38h1M18 38h1M29 38h2M41 38h1M9 39h1M11 39h1M16 39h1M19 39h1M30 39h1M40 39h1M10 40h1M17 40h1M19 40h2M29 40h3M39 40h2M10 41h1M18 41h1M20 41h1M23 41h5M30 41h2M40 41h1M11 42h1M14 42h2M19 42h3M32 42h1M40 42h1M12 43h2M16 43h3M21 43h3M31 43h3M38 43h2M10 44h2M14 44h2M17 44h1M19 44h1M24 44h7M34 44h1M36 44h2M40 44h2M16 45h3M35 45h1M39 45h1M42 45h1M8 46h1M12 46h4M36 46h2M43 46h1M9 47h3M38 47h6" />
<path stroke="#846b9c" d="M21 1h2M21 2h1M10 3h1M20 3h1M11 4h1M18 4h2M12 5h1M17 5h1M10 8h1M10 9h1M14 9h1M15 10h1M15 11h1M28 11h1M15 12h1M15 13h2M10 14h1M16 14h1M23 14h1M27 14h1M40 14h1M9 15h2M16 15h1M21 15h2M26 15h1M35 15h1M11 16h1M16 16h1M26 16h1M12 17h1M16 17h2M25 17h1M45 17h1M13 18h1M17 18h1M14 19h1M17 19h2M39 19h2M17 20h2M40 20h2M45 20h1M41 21h2M42 22h2M7 23h1M42 23h2M1 24h1M13 24h1M43 24h2M1 25h1M3 25h1M13 25h2M17 25h2M34 25h3M44 25h1M1 26h1M3 26h1M13 26h3M17 26h2M33 26h1M36 26h5M2 27h1M14 27h3M33 27h1M36 27h4M2 28h1M11 28h2M14 28h8M34 28h3M1 29h2M9 29h3M15 29h8M2 30h1M14 30h1M17 30h4M14 31h2M21 31h5M14 32h2M17 32h10M15 33h1M17 33h10M29 33h1M31 33h1M15 34h2M18 34h10M30 34h1M15 35h2M18 35h10M29 35h1M31 35h1M33 35h3M14 36h1M18 36h11M30 36h1M32 36h1M34 36h3M10 37h1M13 37h2M19 37h10M35 37h2M39 37h2M12 38h4M19 38h10M35 38h3M14 39h2M20 39h10M32 39h1M35 39h3M11 40h1M14 40h1M22 40h6M33 40h2M36 40h2M12 41h2M21 41h1M28 41h2M34 41h2M22 42h6M18 44h1M12 45h1M41 45h1M11 46h1M41 46h2" />
</svg>