<svg xmlns="http://www.w3.org/2000/svg" viewBox="0 -0.5 48 48" shape-rendering="crispEdges">
<metadata>Made with Pixels to Svg https://codepen.io/shshaw/pen/XbxvNj</metadata>
<path stroke="#ffffff" d="M0 0h48M0 1h2M6 1h42M0 2h1M2 2h4M8 2h40M1 3h7M10 3h38M1 4h1M4 4h6M11 4h4M17 4h31M1 5h1M3 5h1M7 5h1M12 5h2M17 5h20M41 5h7M0 6h1M2 6h4M12 6h1M18 6h15M37 6h1M41 6h7M0 7h1M2 7h1M5 7h1M18 7h13M33 7h2M40 7h8M0 8h1M2 8h1M4 8h1M18 8h11M31 8h1M40 8h8M0 9h2M3 9h4M21 9h6M39 9h9M0 10h8M24 10h2M38 10h6M47 10h1M0 11h9M37 11h6M44 11h3M0 12h10M35 12h7M43 12h2M47 12h1M0 13h10M34 13h7M42 13h3M46 13h2M0 14h10M32 14h9M42 14h3M47 14h1M0 15h9M31 15h10M42 15h2M45 15h2M0 16h9M28 16h12M41 16h3M46 16h1M0 17h8M14 17h2M29 17h11M41 17h2M44 17h1M0 18h8M13 18h3M29 18h10M40 18h3M44 18h1M46 18h2M0 19h7M8 19h1M12 19h3M30 19h8M39 19h3M43 19h2M46 19h2M0 20h7M8 20h1M12 20h3M30 20h7M38 20h3M42 20h2M45 20h3M0 21h7M8 21h1M12 21h2M19 21h1M21 21h2M31 21h4M41 21h2M44 21h4M0 22h7M8 22h1M18 22h1M21 22h3M31 22h2M43 22h5M0 23h7M17 23h2M21 23h3M42 23h6M0 24h8M16 24h3M21 24h2M41 24h7M0 25h8M16 25h6M39 25h9M0 26h8M37 26h11M0 27h9M35 27h13M0 28h10M32 28h16M0 29h12M30 29h8M42 29h6M0 30h18M30 30h6M39 30h1M41 30h1M43 30h5M0 31h1M5 31h12M20 31h1M31 31h2M38 31h1M40 31h1M42 31h6M2 32h3M6 32h5M14 32h3M19 32h2M41 32h7M1 33h1M4 33h2M7 33h3M15 33h1M19 33h2M38 33h10M0 34h1M2 34h1M4 34h2M8 34h1M19 34h1M35 34h13M0 35h2M25 35h1M31 35h6M43 35h5M0 36h3M40 36h1M42 36h1M46 36h2M0 37h4M11 37h2M22 37h2M41 37h1M43 37h1M45 37h1M47 37h1M0 38h5M10 38h3M20 38h1M23 38h2M31 38h1M44 38h1M46 38h2M0 39h6M11 39h3M20 39h2M23 39h2M31 39h4M45 39h3M0 40h6M11 40h4M21 40h1M32 40h6M42 40h6M0 41h7M11 41h6M36 41h12M0 42h8M10 42h8M28 42h2M40 42h8M0 43h21M28 43h3M39 43h1M43 43h5M0 44h21M28 44h5M38 44h1M40 44h1M42 44h1M44 44h4M0 45h22M27 45h8M39 45h1M43 45h5M0 46h23M26 46h12M41 46h7M0 47h48" />
<path stroke="#000000" d="M2 1h4M1 2h1M6 2h2M0 3h1M8 3h2M0 4h1M10 4h1M15 4h2M11 5h1M14 5h1M16 5h1M37 5h4M1 6h1M7 6h2M10 6h2M13 6h1M16 6h2M34 6h3M40 6h1M1 7h1M3 7h2M6 7h4M11 7h3M17 7h1M31 7h2M39 7h1M1 8h1M3 8h1M5 8h8M17 8h1M29 8h2M39 8h1M2 9h1M7 9h6M16 9h5M27 9h2M38 9h1M8 10h4M15 10h2M21 10h3M26 10h1M37 10h1M44 10h3M9 11h4M14 11h1M24 11h2M35 11h2M43 11h1M47 11h1M10 12h3M24 12h1M34 12h1M42 12h1M45 12h2M10 13h2M23 13h1M26 13h3M32 13h2M41 13h1M45 13h1M10 14h1M22 14h1M24 14h2M27 14h1M31 14h1M41 14h1M46 14h1M9 15h1M21 15h3M28 15h3M41 15h1M44 15h1M47 15h1M9 16h1M21 16h1M25 16h3M45 16h1M47 16h1M8 17h1M23 17h6M40 17h1M45 17h3M8 18h1M26 18h3M39 18h1M45 18h1M21 19h4M29 19h1M38 19h1M7 20h1M19 20h4M29 20h1M37 20h1M44 20h1M7 21h1M17 21h2M23 21h3M30 21h1M35 21h5M43 21h1M7 22h1M16 22h2M19 22h1M24 22h1M30 22h1M33 22h2M37 22h6M7 23h1M16 23h1M19 23h2M24 23h2M29 23h4M36 23h6M8 24h1M15 24h1M20 24h1M23 24h1M28 24h3M34 24h6M8 25h2M15 25h1M22 25h1M27 25h2M33 25h5M8 26h1M17 26h5M25 26h2M31 26h5M9 27h1M23 27h2M28 27h6M10 28h3M16 28h1M21 28h11M13 29h17M38 29h4M18 30h1M20 30h10M36 30h2M42 30h1M2 31h2M18 31h1M21 31h4M26 31h1M28 31h3M33 31h3M41 31h1M0 32h2M5 32h1M11 32h2M18 32h1M23 32h1M25 32h1M27 32h1M29 32h4M38 32h3M0 33h1M2 33h2M6 33h1M10 33h1M13 33h2M17 33h1M26 33h1M28 33h1M30 33h1M35 33h3M1 34h1M3 34h1M7 34h1M9 34h1M12 34h6M25 34h2M30 34h5M2 35h1M7 35h11M24 35h1M27 35h1M30 35h1M37 35h6M3 36h1M8 36h9M22 36h3M28 36h1M30 36h7M43 36h3M4 37h1M7 37h4M13 37h4M20 37h2M24 37h1M28 37h4M46 37h1M5 38h5M14 38h3M21 38h2M25 38h1M28 38h3M32 38h3M45 38h1M6 39h5M15 39h3M22 39h1M26 39h1M29 39h2M35 39h3M42 39h3M7 40h4M16 40h2M20 40h1M26 40h1M28 40h4M38 40h4M7 41h4M17 41h2M20 41h1M27 41h3M32 41h4M8 42h2M19 42h3M27 42h1M30 42h1M36 42h4M21 43h1M27 43h1M31 43h2M40 43h3M21 44h2M26 44h2M33 44h2M43 44h1M22 45h1M26 45h1M35 45h3M41 45h2M23 46h3M38 46h3" />
<path stroke="#734a08" d="M2 4h2M0 5h1M2 5h1M4 5h3M8 5h3M15 5h1M6 6h1M9 6h1M14 6h2M10 7h1M14 7h3M13 8h4M13 9h3M12 10h3M17 10h4M13 11h1M15 11h9M13 12h11M12 13h11M11 14h11M26 14h1M28 14h1M45 14h1M10 15h11M24 15h3M10 16h11M22 16h3M40 16h1M44 16h1M9 17h5M16 17h7M43 17h1M9 18h4M16 18h10M43 18h1M7 19h1M9 19h3M15 19h6M25 19h4M42 19h1M45 19h1M9 20h3M15 20h4M23 20h6M41 20h1M9 21h3M14 21h3M20 21h1M26 21h4M40 21h1M9 22h7M20 22h1M25 22h5M35 22h2M8 23h8M26 23h3M33 23h3M9 24h6M19 24h1M24 24h4M31 24h3M40 24h1M10 25h5M23 25h4M29 25h4M38 25h1M9 26h8M22 26h3M27 26h4M36 26h1M10 27h13M25 27h3M34 27h1M13 28h3M17 28h4M12 29h1M19 30h1M1 31h1M4 31h1M17 31h1M19 31h1M25 31h1M27 31h1M13 32h1M17 32h1M21 32h2M24 32h1M26 32h1M28 32h1M11 33h2M16 33h1M18 33h1M21 33h5M27 33h1M29 33h1M6 34h1M10 34h2M18 34h1M20 34h5M27 34h3M3 35h4M18 35h6M26 35h1M28 35h2M4 36h4M17 36h5M25 36h3M29 36h1M5 37h2M17 37h3M25 37h3M13 38h1M17 38h3M26 38h2M14 39h1M18 39h2M25 39h1M27 39h2M6 40h1M15 40h1M18 40h2M22 40h4M27 40h1M19 41h1M21 41h6M18 42h1M22 42h5M22 43h5M23 44h3M23 45h3" />
<path stroke="#8cc5b5" d="M33 6h1M38 6h2M35 7h4M32 8h7M29 9h9M27 10h10M26 11h9M25 12h9M24 13h2M29 13h3M23 14h1M29 14h2M27 15h1M38 30h1M40 30h1M36 31h2M39 31h1M33 32h5M31 33h4M37 36h3M41 36h1M32 37h9M42 37h1M44 37h1M35 38h9M38 39h4M30 41h2M31 42h5M33 43h6M35 44h3M39 44h1M41 44h1M38 45h1M40 45h1" />
</svg>