<svg xmlns="http://www.w3.org/2000/svg" viewBox="0 -0.5 56 56" shape-rendering="crispEdges">
<metadata>Made with Pixels to Svg https://codepen.io/shshaw/pen/XbxvNj</metadata>
<path stroke="#ffffff" d="M0 0h56M0 1h56M0 2h53M0 3h51M53 3h2M0 4h17M19 4h30M51 4h3M55 4h1M0 5h15M19 5h16M40 5h8M49 5h4M54 5h2M0 6h14M18 6h15M41 6h5M48 6h4M53 6h3M0 7h13M18 7h13M39 7h6M46 7h5M52 7h4M0 8h12M18 8h12M38 8h6M46 8h1M48 8h3M52 8h4M0 9h12M17 9h12M37 9h6M45 9h1M47 9h1M49 9h1M51 9h5M0 10h11M17 10h11M37 10h5M48 10h1M50 10h6M0 11h11M17 11h10M36 11h5M50 11h6M0 12h10M17 12h9M36 12h5M49 12h7M0 13h10M16 13h10M35 13h5M49 13h1M54 13h2M0 14h10M16 14h2M25 14h1M35 14h5M54 14h2M0 15h10M35 15h4M53 15h3M0 16h10M36 16h3M53 16h3M0 17h11M38 17h1M52 17h4M0 18h11M52 18h4M0 19h10M51 19h5M0 20h10M11 20h1M21 20h1M33 20h3M42 20h1M51 20h5M0 21h9M34 21h3M41 21h2M50 21h6M0 22h9M34 22h3M38 22h1M40 22h3M50 22h6M0 23h8M35 23h1M38 23h5M50 23h6M0 24h8M37 24h6M49 24h7M0 25h8M35 25h9M49 25h7M0 26h2M6 26h2M15 26h3M35 26h9M49 26h7M0 27h1M7 27h2M36 27h8M48 27h8M0 28h1M39 28h6M48 28h8M0 29h1M40 29h5M48 29h8M0 30h2M40 30h6M49 30h7M0 31h2M40 31h6M49 31h7M0 32h3M40 32h7M49 32h7M0 33h3M10 33h5M39 33h8M50 33h6M0 34h4M9 34h7M38 34h9M50 34h6M0 35h5M8 35h8M37 35h11M50 35h6M0 36h6M8 36h7M37 36h11M51 36h5M0 37h5M8 37h6M37 37h12M52 37h4M0 38h5M8 38h5M37 38h13M52 38h4M0 39h5M9 39h3M37 39h13M53 39h3M0 40h5M38 40h12M53 40h3M0 41h5M38 41h13M53 41h3M0 42h4M38 42h13M53 42h3M0 43h4M38 43h13M53 43h3M0 44h4M38 44h13M53 44h3M0 45h5M38 45h13M53 45h3M0 46h5M38 46h12M53 46h3M0 47h6M38 47h11M52 47h4M0 48h7M39 48h9M52 48h4M0 49h8M42 49h4M51 49h5M0 50h6M36 50h2M50 50h6M0 51h6M18 51h7M36 51h4M48 51h8M0 52h6M16 52h10M36 52h20M0 53h7M14 53h11M35 53h21M0 54h25M34 54h22M0 55h26M31 55h25" />
<path stroke="#000000" d="M53 2h3M51 3h2M55 3h1M17 4h2M49 4h2M54 4h1M15 5h3M36 5h4M48 5h1M53 5h1M14 6h4M34 6h4M39 6h2M46 6h2M52 6h1M13 7h5M32 7h4M38 7h1M45 7h1M51 7h1M12 8h5M30 8h4M37 8h1M44 8h1M51 8h1M14 9h3M29 9h4M36 9h1M43 9h1M50 9h1M11 10h1M13 10h4M28 10h4M36 10h1M42 10h1M49 10h1M13 11h4M27 11h4M35 11h1M41 11h1M49 11h1M10 12h1M13 12h3M27 12h4M35 12h1M41 12h1M48 12h1M10 13h1M12 13h4M26 13h4M34 13h1M40 13h1M48 13h1M50 13h4M10 14h1M12 14h4M20 14h5M26 14h4M34 14h1M40 14h1M48 14h2M53 14h1M10 15h1M12 15h6M25 15h4M34 15h1M39 15h1M52 15h1M10 16h6M25 16h4M35 16h1M39 16h1M52 16h1M11 17h3M25 17h4M36 17h2M39 17h1M51 17h1M11 18h1M26 18h3M38 18h1M44 18h1M51 18h1M11 19h2M22 19h3M26 19h4M33 19h3M38 19h1M42 19h2M50 19h1M10 20h1M12 20h2M20 20h1M22 20h2M27 20h4M32 20h1M36 20h1M38 20h1M41 20h1M43 20h1M50 20h1M9 21h4M20 21h4M29 21h3M33 21h1M37 21h2M40 21h1M43 21h1M49 21h1M9 22h1M11 22h1M21 22h2M33 22h1M37 22h1M39 22h1M43 22h1M49 22h1M8 23h1M14 23h1M32 23h3M36 23h2M43 23h1M49 23h1M8 24h1M12 24h1M33 24h4M43 24h1M48 24h1M8 25h1M13 25h7M34 25h1M44 25h1M48 25h1M2 26h4M8 26h1M14 26h1M18 26h1M34 26h1M44 26h1M48 26h1M1 27h1M4 27h3M9 27h1M15 27h2M35 27h1M44 27h1M47 27h1M1 28h1M3 28h3M7 28h3M33 28h5M45 28h1M47 28h1M1 29h4M9 29h1M31 29h2M34 29h1M37 29h2M45 29h1M47 29h1M2 30h2M29 30h2M33 30h2M37 30h3M46 30h2M2 31h1M8 31h1M28 31h1M33 31h7M47 31h2M3 32h1M33 32h6M47 32h2M3 33h1M7 33h1M33 33h6M47 33h2M4 34h1M6 34h1M34 34h4M48 34h2M5 35h2M35 35h2M48 35h2M6 36h1M33 36h3M49 36h2M5 37h1M30 37h3M35 37h2M49 37h2M5 38h1M34 38h3M50 38h2M5 39h1M33 39h4M50 39h2M5 40h1M34 40h3M51 40h1M5 41h2M25 41h1M37 41h1M51 41h2M4 42h1M6 42h1M24 42h1M36 42h2M51 42h2M4 43h1M7 43h1M23 43h1M35 43h3M51 43h2M4 44h1M7 44h1M23 44h1M34 44h4M51 44h2M5 45h1M8 45h1M22 45h1M35 45h3M51 45h2M5 46h1M9 46h1M22 46h1M37 46h1M50 46h2M6 47h1M10 47h2M22 47h1M37 47h1M50 47h2M7 48h2M12 48h3M23 48h1M36 48h3M49 48h2M9 49h3M16 49h3M23 49h1M36 49h5M47 49h3M7 50h7M18 50h7M35 50h1M38 50h11M6 51h1M10 51h2M16 51h2M25 51h3M33 51h2M41 51h6M6 52h6M14 52h2M26 52h2M29 52h7M7 53h6M25 53h2M30 53h5M25 54h8M26 55h4" />
<path stroke="#ff6300" d="M18 5h1M35 5h1M33 6h1M38 6h1M31 7h1M37 7h1M17 8h1M34 8h1M36 8h1M12 9h2M33 9h1M35 9h1M32 10h1M34 10h1M11 11h1M31 11h1M33 11h1M16 12h1M26 12h1M32 12h1M30 13h1M18 14h2M11 15h1M23 15h2M29 15h1M47 15h1M16 16h1M22 16h1M24 16h1M14 17h2M17 17h1M19 17h1M21 17h1M23 17h2M12 18h5M18 18h1M20 18h1M22 18h4M29 18h1M10 19h1M13 19h9M25 19h1M30 19h1M14 20h6M24 20h3M31 20h1M13 21h7M24 21h5M32 21h1M10 22h1M12 22h9M23 22h10M45 22h1M47 22h1M10 23h4M15 23h9M27 23h5M44 23h1M46 23h1M48 23h1M10 24h2M13 24h10M28 24h5M45 24h1M47 24h1M10 25h3M20 25h3M28 25h6M46 25h2M9 26h5M19 26h4M28 26h6M45 26h3M2 27h2M10 27h5M17 27h7M27 27h8M45 27h2M2 28h1M6 28h1M10 28h23M38 28h1M46 28h1M5 29h4M10 29h21M33 29h1M35 29h2M39 29h1M46 29h1M4 30h8M17 30h12M31 30h2M35 30h2M48 30h1M3 31h5M9 31h1M20 31h8M31 31h2M46 31h1M4 32h5M21 32h7M30 32h3M39 32h1M4 33h3M23 33h10M49 33h1M5 34h1M24 34h10M47 34h1M24 35h11M25 36h8M36 36h1M48 36h1M25 37h5M33 37h2M51 37h1M26 38h8M26 39h7M52 39h1M26 40h8M37 40h1M50 40h1M52 40h1M26 41h11M5 42h1M25 42h11M5 43h2M24 43h1M27 43h8M5 44h2M27 44h7M6 45h2M23 45h1M26 45h9M6 46h3M23 46h14M52 46h1M7 47h3M23 47h14M49 47h1M9 48h3M24 48h12M48 48h1M51 48h1M8 49h1M12 49h4M19 49h4M24 49h12M41 49h1M46 49h1M50 49h1M6 50h1M14 50h4M25 50h10M49 50h1M7 51h1M9 51h1M12 51h4M28 51h5M35 51h1M40 51h1M47 51h1M12 52h2M28 52h1M13 53h1M27 53h1M29 53h1M33 54h1M30 55h1" />
<path stroke="#ffd63a" d="M36 7h1M35 8h1M45 8h1M47 8h1M34 9h1M44 9h1M46 9h1M48 9h1M12 10h1M33 10h1M35 10h1M43 10h5M12 11h1M32 11h1M34 11h1M42 11h7M11 12h2M31 12h1M33 12h2M42 12h6M11 13h1M31 13h3M41 13h7M11 14h1M30 14h4M41 14h7M50 14h3M18 15h5M30 15h4M40 15h7M48 15h4M17 16h5M23 16h1M29 16h6M40 16h12M16 17h1M18 17h1M20 17h1M22 17h1M29 17h7M40 17h11M17 18h1M19 18h1M21 18h1M30 18h8M39 18h5M45 18h6M31 19h2M36 19h2M39 19h3M44 19h6M37 20h1M39 20h2M44 20h6M39 21h1M44 21h5M44 22h1M46 22h1M48 22h1M9 23h1M24 23h3M45 23h1M47 23h1M9 24h1M23 24h5M44 24h1M46 24h1M9 25h1M23 25h5M45 25h1M23 26h5M24 27h3M12 30h5M10 31h10M29 31h2M9 32h12M28 32h2M8 33h2M15 33h8M7 34h2M16 34h8M7 35h1M16 35h8M7 36h1M15 36h10M6 37h2M14 37h11M6 38h2M13 38h13M6 39h3M12 39h14M6 40h20M7 41h18M7 42h17M8 43h15M25 43h2M8 44h15M24 44h3M9 45h13M24 45h2M10 46h12M12 47h10M15 48h8M8 51h1M28 53h1" />
</svg>