<svg xmlns="http://www.w3.org/2000/svg" viewBox="0 -0.5 40 40" shape-rendering="crispEdges">
<metadata>Made with Pixels to Svg https://codepen.io/shshaw/pen/XbxvNj</metadata>
<path stroke="#ffffff" d="M0 0h40M0 1h40M0 2h40M0 3h40M0 4h40M0 5h40M0 6h40M0 7h40M0 8h40M0 9h40M0 10h40M0 11h13M15 11h7M24 11h16M0 12h12M13 12h1M15 12h5M22 12h1M24 12h16M0 13h12M13 13h1M17 13h2M20 13h2M30 13h10M0 14h11M12 14h2M19 14h3M31 14h9M0 15h9M12 15h2M19 15h2M30 15h10M0 16h8M9 16h2M12 16h1M18 16h2M29 16h11M0 17h8M9 17h2M17 17h2M29 17h11M0 18h9M10 18h1M18 18h1M29 18h11M0 19h8M10 19h1M29 19h1M34 19h6M0 20h7M8 20h1M10 20h2M30 20h2M34 20h6M0 21h7M8 21h5M34 21h6M0 22h3M7 22h6M15 22h1M33 22h7M0 23h2M3 23h2M6 23h6M13 23h1M15 23h1M33 23h7M0 24h3M5 24h6M15 24h1M32 24h8M0 25h4M7 25h1M32 25h8M0 26h4M34 26h6M0 27h5M17 27h5M35 27h5M0 28h6M8 28h1M34 28h6M0 29h7M8 29h2M33 29h7M0 30h6M16 30h2M33 30h7M0 31h5M6 31h1M18 31h2M33 31h7M0 32h4M5 32h1M13 32h2M34 32h6M0 33h5M7 33h2M11 33h6M35 33h5M0 34h7M9 34h9M25 34h3M35 34h5M0 35h18M24 35h5M35 35h5M0 36h18M24 36h5M33 36h1M35 36h5M0 37h18M19 37h2M23 37h7M31 37h1M34 37h6M0 38h19M22 38h9M32 38h8M0 39h40" />
<path stroke="#000000" d="M13 11h2M22 11h2M12 12h1M14 12h1M20 12h2M23 12h1M15 13h2M19 13h1M23 13h7M11 14h1M17 14h2M30 14h1M10 15h1M18 15h1M23 15h3M29 15h1M11 16h1M17 16h1M21 16h6M28 16h1M8 17h1M12 17h1M16 17h1M20 17h7M28 17h1M9 18h1M16 18h1M19 18h1M24 18h3M28 18h1M8 19h2M25 19h2M28 19h1M30 19h3M7 20h1M9 20h1M25 20h1M27 20h1M33 20h1M23 21h1M26 21h1M33 21h1M4 22h3M13 22h2M24 22h2M32 22h1M5 23h1M12 23h1M14 23h1M32 23h1M3 24h2M12 24h3M31 24h1M4 25h1M13 25h2M31 25h1M4 26h1M18 26h4M33 26h1M5 27h1M7 27h1M22 27h1M34 27h1M6 28h2M9 28h2M17 28h4M32 28h2M7 29h1M10 29h2M32 29h1M6 30h1M8 30h2M18 30h2M32 30h1M5 31h1M13 31h2M20 31h1M32 31h1M4 32h1M11 32h2M15 32h3M19 32h1M33 32h1M5 33h2M9 33h2M17 33h2M25 33h3M34 33h1M7 34h2M24 34h1M28 34h1M34 34h1M23 35h1M29 35h1M34 35h1M18 36h1M23 36h1M29 36h1M34 36h1M18 37h1M22 37h1M30 37h1M32 37h2M19 38h3M31 38h1" />
<path stroke="#3a8431" d="M12 13h1M14 13h1M22 14h1M9 15h1M11 15h1M26 15h1M28 15h1M8 16h1M13 17h3M13 18h1M20 18h4M19 19h6M33 19h1M19 20h6M29 20h1M7 21h1M14 21h2M20 21h3M30 21h1M3 22h1M30 22h1M2 23h1M31 23h1M26 24h2M6 25h1M8 25h1M11 25h2M15 25h1M26 25h2M17 26h1M27 26h1M32 26h1M8 27h1M29 27h1M32 27h1M21 28h1M28 28h3M12 29h1M16 29h2M28 29h3M29 30h3M10 31h3M17 31h1M31 31h1M6 32h3M18 32h1M25 32h1M30 32h1M19 33h1M28 33h2M18 34h1M18 35h1M33 35h1M19 36h2M31 36h2M21 37h1" />
<path stroke="#9cadff" d="M22 13h1M14 14h3M23 14h7M14 15h4M21 15h2M27 15h1M13 16h4M20 16h1M27 16h1M11 17h1M19 17h1M27 17h1M11 18h2M14 18h2M17 18h1M27 18h1M11 19h8M27 19h1M12 20h7M26 20h1M28 20h1M32 20h1M13 21h1M16 21h4M24 21h2M27 21h3M31 21h2M16 22h8M26 22h4M31 22h1M16 23h15M11 24h1M16 24h10M28 24h3M5 25h1M9 25h2M16 25h10M28 25h3M5 26h12M22 26h5M28 26h4M6 27h1M9 27h8M23 27h6M30 27h2M33 27h1M11 28h6M22 28h6M31 28h1M13 29h3M18 29h10M31 29h1M7 30h1M10 30h6M20 30h9M7 31h3M15 31h2M21 31h10M9 32h2M20 32h5M26 32h4M31 32h2M20 33h5M30 33h4M19 34h5M29 34h5M19 35h4M30 35h3M21 36h2M30 36h1" />
</svg>