<svg xmlns="http://www.w3.org/2000/svg" viewBox="0 -0.5 40 40" shape-rendering="crispEdges">
<metadata>Made with Pixels to Svg https://codepen.io/shshaw/pen/XbxvNj</metadata>
<path stroke="#ffffff" d="M0 0h40M0 1h40M0 2h40M0 3h14M15 3h25M0 4h13M14 4h1M16 4h24M0 5h12M13 5h1M16 5h24M0 6h12M14 6h1M16 6h11M29 6h11M0 7h11M13 7h1M16 7h9M27 7h1M30 7h10M0 8h11M12 8h1M17 8h7M25 8h1M29 8h11M0 9h10M11 9h1M13 9h1M17 9h6M30 9h10M0 10h10M12 10h1M18 10h1M20 10h1M31 10h9M0 11h8M11 11h1M30 11h10M0 12h7M8 12h1M10 12h1M29 12h1M31 12h9M0 13h7M8 13h2M11 13h1M32 13h8M0 14h7M8 14h1M10 14h1M32 14h8M0 15h6M9 15h1M31 15h9M0 16h5M31 16h1M34 16h6M0 17h5M6 17h1M35 17h5M0 18h6M35 18h5M0 19h6M34 19h6M0 20h7M11 20h2M36 20h4M0 21h7M10 21h2M37 21h3M0 22h8M36 22h4M0 23h5M36 23h4M0 24h4M5 24h3M36 24h4M0 25h5M36 25h4M0 26h6M36 26h4M0 27h6M7 27h1M37 27h3M0 28h6M7 28h1M14 28h2M38 28h2M0 29h6M7 29h1M12 29h1M14 29h2M38 29h2M0 30h6M7 30h2M14 30h2M38 30h2M0 31h7M8 31h1M38 31h2M0 32h7M8 32h2M19 32h1M26 32h3M38 32h2M0 33h6M9 33h1M18 33h2M25 33h6M37 33h3M0 34h6M15 34h2M18 34h1M24 34h8M33 34h3M37 34h3M0 35h5M10 35h2M13 35h3M24 35h9M36 35h4M0 36h5M12 36h4M23 36h17M0 37h4M5 37h1M7 37h1M10 37h5M16 37h1M18 37h1M22 37h18M0 38h5M8 38h8M20 38h20M0 39h40" />
<path stroke="#ad1042" d="M14 3h1M12 5h1M27 6h1M11 7h1M25 7h1M27 9h1M21 10h1M27 10h3M8 11h1M27 11h2M7 12h1M27 12h1M27 13h1M26 14h1M24 15h1M26 15h1M28 15h2M5 16h1M8 16h1M10 16h1M12 16h1M14 16h1M18 16h1M23 16h1M26 16h1M28 16h2M9 17h1M11 17h1M13 17h2M22 17h1M24 17h1M26 17h1M28 17h3M8 18h1M10 18h1M12 18h2M17 18h1M21 18h1M23 18h1M25 18h1M27 18h2M30 18h4M7 19h1M9 19h1M11 19h1M14 19h1M20 19h1M22 19h1M25 19h1M27 19h1M31 19h2M8 20h2M21 20h1M24 20h1M31 20h2M8 21h1M16 21h1M19 21h1M22 21h1M24 21h1M26 21h2M32 21h3M9 22h2M23 22h1M25 22h4M34 22h1M5 23h1M22 23h1M25 23h4M4 24h1M20 24h2M26 24h2M31 24h2M34 24h1M5 25h1M32 25h1M34 25h1M9 26h1M16 26h1M21 26h1M34 26h1M8 27h1M10 27h1M20 27h1M22 27h1M24 27h1M26 27h1M33 27h2M8 28h3M20 28h2M23 28h1M25 28h1M28 28h1M33 28h2M36 28h1M6 29h1M8 29h2M21 29h2M24 29h1M26 29h1M28 29h2M32 29h2M35 29h2M6 30h1M13 30h1M16 30h1M19 30h3M23 30h1M25 30h2M28 30h6M35 30h2M14 31h2M22 31h1M24 31h2M29 31h4M34 31h3M12 32h1M23 32h2M33 32h4M8 33h1M22 33h2M32 33h4M7 34h1M11 34h2M22 34h1M6 35h2M16 35h1M21 35h2M6 36h4M17 36h2M20 36h2M4 37h1M6 37h1M15 37h1M17 37h1" />
<path stroke="#000000" d="M13 4h1M15 4h1M15 5h1M12 6h1M15 6h1M28 6h1M15 7h1M26 7h1M29 7h1M11 8h1M16 8h1M24 8h1M28 8h1M10 9h1M16 9h1M23 9h1M26 9h1M28 9h2M10 10h1M17 10h1M19 10h1M22 10h1M25 10h2M30 10h1M9 11h1M17 11h2M20 11h1M24 11h3M29 11h1M9 12h1M17 12h2M22 12h5M28 12h1M30 12h1M7 13h1M17 13h2M21 13h6M28 13h2M31 13h1M7 14h1M16 14h1M18 14h1M20 14h6M27 14h2M31 14h1M6 15h2M16 15h1M19 15h5M25 15h1M27 15h1M30 15h1M7 16h1M15 16h1M19 16h4M24 16h2M27 16h1M30 16h1M32 16h2M5 17h1M15 17h1M18 17h4M23 17h1M25 17h1M27 17h1M31 17h1M34 17h1M6 18h1M14 18h2M18 18h3M22 18h1M24 18h1M26 18h1M29 18h1M34 18h1M6 19h1M12 19h2M15 19h1M17 19h3M21 19h1M23 19h2M26 19h1M28 19h1M30 19h1M33 19h1M7 20h1M10 20h1M14 20h1M17 20h4M22 20h2M25 20h3M30 20h1M33 20h3M7 21h1M9 21h1M14 21h1M17 21h2M20 21h2M23 21h1M25 21h1M31 21h1M36 21h1M8 22h1M14 22h1M16 22h2M20 22h3M24 22h1M33 22h1M35 22h1M6 23h3M13 23h1M16 23h1M19 23h3M23 23h1M34 23h2M19 24h1M22 24h1M35 24h1M6 25h1M20 25h2M29 25h1M35 25h1M6 26h3M20 26h1M28 26h1M35 26h1M6 27h1M9 27h1M14 27h3M28 27h1M35 27h2M6 28h1M13 28h1M16 28h1M27 28h1M35 28h1M37 28h1M13 29h1M16 29h1M20 29h1M27 29h1M34 29h1M37 29h1M12 30h1M27 30h1M34 30h1M37 30h1M7 31h1M12 31h2M19 31h1M26 31h3M33 31h1M37 31h1M7 32h1M18 32h1M25 32h1M29 32h4M37 32h1M6 33h2M15 33h3M24 33h1M31 33h1M36 33h1M6 34h1M8 34h1M13 34h2M17 34h1M23 34h1M32 34h1M36 34h1M5 35h1M8 35h2M12 35h1M23 35h1M33 35h3M5 36h1M10 36h2M16 36h1M22 36h1M8 37h2M19 37h3M5 38h3M16 38h4" />
<path stroke="#de8cb5" d="M14 5h1M13 6h1M12 7h1M14 7h1M28 7h1M13 8h3M26 8h2M12 9h1M14 9h2M24 9h2M11 10h1M13 10h4M23 10h2M10 11h1M12 11h5M19 11h1M21 11h3M11 12h6M19 12h3M10 13h1M12 13h5M19 13h2M30 13h1M9 14h1M11 14h5M17 14h1M19 14h1M29 14h2M8 15h1M10 15h6M17 15h2M6 16h1M9 16h1M11 16h1M13 16h1M16 16h2M7 17h2M10 17h1M12 17h1M16 17h2M32 17h2M7 18h1M9 18h1M11 18h1M16 18h1M8 19h1M10 19h1M16 19h1M29 19h1M13 20h1M15 20h2M28 20h2M12 21h2M15 21h1M28 21h3M35 21h1M11 22h3M15 22h1M18 22h2M29 22h4M9 23h4M14 23h2M17 23h2M24 23h1M29 23h5M8 24h11M23 24h3M28 24h3M33 24h1M7 25h13M22 25h7M30 25h2M33 25h1M10 26h6M17 26h3M22 26h6M29 26h5M11 27h3M17 27h3M21 27h1M23 27h1M25 27h1M27 27h1M29 27h4M11 28h2M17 28h3M22 28h1M24 28h1M26 28h1M29 28h4M10 29h2M17 29h3M23 29h1M25 29h1M30 29h2M9 30h3M17 30h2M22 30h1M24 30h1M9 31h3M16 31h3M20 31h2M23 31h1M10 32h2M13 32h5M20 32h3M10 33h5M20 33h2M9 34h2M19 34h3M17 35h4M19 36h1" />
</svg>