<svg xmlns="http://www.w3.org/2000/svg" viewBox="0 -0.5 32 32" shape-rendering="crispEdges">
<metadata>Made with Pixels to Svg https://codepen.io/shshaw/pen/XbxvNj</metadata>
<path stroke="#ffffff" d="M13 11h6M11 12h3M18 12h3M10 13h2M20 13h2M9 14h2M21 14h2M8 15h2M22 15h2M8 16h1M23 16h1M7 17h2M23 17h2M7 18h1M24 18h1M7 19h1M24 19h1M7 20h1M24 20h1M7 21h1M24 21h1M7 22h2M23 22h2M8 23h1M23 23h1M8 24h2M22 24h2M9 25h2M21 25h2M10 26h2M20 26h2M11 27h3M18 27h3M13 28h6" />
<path stroke="#292929" d="M14 12h4M12 13h2M18 13h2M11 14h1M20 14h1M10 15h1M21 15h1M9 16h1M22 16h1M9 17h1M22 17h1M8 18h1M23 18h1M8 19h1M23 19h1M8 20h1M23 20h1M8 21h1M23 21h1M9 22h1M22 22h1M9 23h1M22 23h1M10 24h1M21 24h1M11 25h1M20 25h1M12 26h2M18 26h2M14 27h4" />
<path stroke="#62c552" d="M14 13h4M12 14h1M16 14h4M11 15h1M17 15h3M10 16h1M18 16h3M18 17h3M9 18h2M18 18h1M10 19h2M20 19h1M11 20h2M16 20h4M13 21h6" />
<path stroke="#73de41" d="M13 14h3M12 15h5M11 16h2M14 16h4M11 17h1M15 17h3M14 18h4M13 20h3" />
<path stroke="#4a9c31" d="M20 15h1M21 16h1M21 18h2M21 19h1M20 20h1M9 21h1M22 21h1M10 22h1M21 22h1M10 23h3M19 23h3M13 24h6M14 26h4" />
<path stroke="#acee8b" d="M13 16h1M12 17h1M14 17h1M13 18h1M12 19h1" />
<path stroke="#cde6e6" d="M10 17h1M19 18h2M17 19h2M9 20h1M10 21h2M11 22h8M14 23h3" />
<path stroke="#eeffe6" d="M13 17h1M11 18h2M13 19h4" />
<path stroke="#a4bdd5" d="M21 17h1M20 21h2M19 22h2M17 23h1M11 24h2M19 24h2M13 25h6" />
<path stroke="#94d59c" d="M9 19h1M19 19h1M10 20h1M12 21h1M19 21h1M13 23h1" />
<path stroke="#73ac83" d="M22 19h1M21 20h1M18 23h1M12 25h1M19 25h1" />
<path stroke="#acc5e6" d="M22 20h1" />
</svg>