<svg xmlns="http://www.w3.org/2000/svg" viewBox="0 -0.5 32 32" shape-rendering="crispEdges">
<metadata>Made with Pixels to Svg https://codepen.io/shshaw/pen/XbxvNj</metadata>
<path stroke="#202020" d="M14 11h4M13 12h1M18 12h1M12 13h1M19 13h1M11 14h1M20 14h1M11 15h1M20 15h1M11 16h1M20 16h1M11 17h1M20 17h1M12 18h1M19 18h1M13 19h1M18 19h1M14 20h4" />
<path stroke="#737373" d="M14 12h1M17 12h1M12 14h1M19 14h1M18 15h1M17 16h2M16 17h2" />
<path stroke="#acacb4" d="M15 12h2M13 13h1M18 13h1M17 14h1M16 15h2M15 16h2M14 17h2" />
<path stroke="#ffffff" d="M14 13h2M14 14h2" />
<path stroke="#d5d5d5" d="M16 13h2M18 14h1M12 15h2M19 15h1M13 16h2M12 17h1M19 17h1M14 19h1M17 19h1" />
<path stroke="#eeeeee" d="M13 14h1M16 14h1M14 15h2M12 16h1M19 16h1M13 17h1M18 17h1M13 18h6M15 19h2" />
</svg>