<svg xmlns="http://www.w3.org/2000/svg" viewBox="0 -0.5 30 30" shape-rendering="crispEdges">
<metadata>Made with Pixels to Svg https://codepen.io/shshaw/pen/XbxvNj</metadata>
<path stroke="#313131" d="M14 9h2M12 10h2M16 10h2M10 11h2M18 11h2M8 12h2M20 12h2M6 13h2M22 13h2M4 14h2M24 14h2M3 15h1M26 15h1M4 16h2M24 16h2M6 17h2M22 17h2M8 18h2M20 18h2M10 19h2M18 19h2M12 20h2M16 20h2M14 21h2" />
<path stroke="#ffffc5" d="M14 10h1M12 11h1M10 12h1M8 13h1M6 14h1M5 15h8" />
<path stroke="#f7ad42" d="M15 10h1M17 11h1M19 12h1M21 13h1M23 14h1" />
<path stroke="#ffffde" d="M13 11h2M11 12h4M9 13h4M7 14h5" />
<path stroke="#ffde6b" d="M15 11h2M18 12h1M17 13h4M15 14h8" />
<path stroke="#b59c4a" d="M15 12h3M15 13h2" />
<path stroke="#b5ad9c" d="M13 13h2M12 14h3" />
<path stroke="#ffbd42" d="M4 15h1M16 15h9M7 16h5M9 17h2M14 17h1M11 18h1M13 19h2" />
<path stroke="#b5ad8c" d="M13 15h2" />
<path stroke="#b58431" d="M15 15h1M12 16h3M11 17h3M12 18h3" />
<path stroke="#ce8442" d="M25 15h1M6 16h1M16 16h1M18 16h5M8 17h1M15 17h3M19 17h2M10 18h1M18 18h1M12 19h1M15 19h2M14 20h1" />
<path stroke="#8c5a31" d="M15 16h1M17 16h1M18 17h1M15 18h3" />
<path stroke="#a55a42" d="M23 16h1M21 17h1M19 18h1M17 19h1M15 20h1" />
</svg>