<svg xmlns="http://www.w3.org/2000/svg" viewBox="0 -0.5 30 30" shape-rendering="crispEdges">
<metadata>Made with Pixels to Svg https://codepen.io/shshaw/pen/XbxvNj</metadata>
<path stroke="#313131" d="M14 5h5M12 6h2M18 6h3M10 7h2M18 7h1M21 7h1M9 8h1M18 8h1M22 8h1M8 9h1M18 9h1M22 9h1M7 10h1M16 10h2M23 10h1M7 11h1M23 11h1M6 12h1M23 12h1M6 13h1M24 13h1M5 14h1M24 14h1M5 15h1M24 15h1M5 16h1M24 16h1M5 17h1M24 17h1M5 18h1M24 18h1M6 19h1M24 19h1M6 20h1M23 20h1M7 21h1M23 21h1M8 22h1M21 22h2M9 23h2M19 23h2M11 24h8" />
<path stroke="#f7e652" d="M14 6h2M17 6h1M12 7h1M19 7h1M10 8h1M19 8h1M9 9h2M19 9h1M8 10h2M18 10h3M8 11h2M18 11h5M10 12h1M17 12h1M20 12h3M8 13h1M11 13h1M15 13h2M18 13h2M21 13h2M6 14h2M10 14h3M16 14h1M19 14h1M21 14h1M6 15h6M14 15h1M16 15h2M20 15h2M7 16h5M13 16h2M16 16h5M8 17h5M15 17h5M9 18h9" />
<path stroke="#847342" d="M16 6h1M16 7h1M15 8h1M15 9h1M17 9h1M23 19h1M22 21h1M11 23h1" />
<path stroke="#ffff6b" d="M13 7h3M11 8h2M11 9h1M14 9h1M10 10h3M10 11h8M11 12h6M12 13h3" />
<path stroke="#ceb54a" d="M17 7h1M20 7h1M16 8h2M16 9h1M15 10h1M23 13h1M23 14h1M22 15h2M23 16h1M6 17h1M21 17h3M6 18h2M19 18h1M22 18h2M9 19h1M16 19h4M22 19h1M9 20h2M12 20h4M19 20h4M8 21h2M13 21h2M16 21h1M19 21h3M9 22h1M11 22h1M13 22h2M18 22h3M14 23h5" />
<path stroke="#b5dece" d="M13 8h2M12 9h2M13 10h2" />
<path stroke="#adc5b5" d="M20 8h2M20 9h2M21 10h2M7 12h3M18 12h2M7 13h1M9 13h2M17 13h1M20 13h1M8 14h2M13 14h3M17 14h2M20 14h1M12 15h2M15 15h1M18 15h2M12 16h1M15 16h1M13 17h2" />
<path stroke="#e6d65a" d="M22 14h1M6 16h1M21 16h1M7 17h1M20 17h1M8 18h1M18 18h1M10 19h6" />
<path stroke="#849484" d="M22 16h1M20 18h2M7 19h2M20 19h2M7 20h2M11 20h1M16 20h3M10 21h3M15 21h1M17 21h2M10 22h1M12 22h1M15 22h3M12 23h2" />
</svg>