<svg xmlns="http://www.w3.org/2000/svg" viewBox="0 -0.5 30 30" shape-rendering="crispEdges">
<metadata>Made with Pixels to Svg https://codepen.io/shshaw/pen/XbxvNj</metadata>
<path stroke="#317321" d="M13 4h1M19 5h1M10 6h1M17 6h2M16 7h1M13 8h3M20 8h1M25 9h1M21 10h1M20 11h1M22 11h1M20 12h1M20 13h1M24 13h1" />
<path stroke="#313131" d="M14 4h5M21 4h2M12 5h1M20 5h1M22 5h1M11 6h1M19 6h1M21 6h2M9 7h1M19 7h1M23 7h1M10 8h3M24 8h1M13 9h2M20 9h1M10 10h3M20 10h1M25 10h1M8 11h2M21 11h1M25 11h1M7 12h1M22 12h2M25 12h1M6 13h1M22 13h1M25 13h1M6 14h1M20 14h1M22 14h1M5 15h1M20 15h3M5 16h1M20 16h1M5 17h1M20 17h1M5 18h1M20 18h1M5 19h1M20 19h1M6 20h1M19 20h1M6 21h1M19 21h1M7 22h1M18 22h1M8 23h2M16 23h2M10 24h6" />
<path stroke="#529c31" d="M13 5h6M12 6h3M10 7h3M20 7h3M22 8h2M23 9h2M24 10h1M21 12h1M21 13h1M21 14h1" />
<path stroke="#9cde73" d="M21 5h1M15 6h2M20 6h1M13 7h3M21 8h1M21 9h2M22 10h2M23 11h2M24 12h1" />
<path stroke="#523a9c" d="M17 7h2M16 8h1M19 8h1M15 9h1M18 11h1M19 12h1M19 13h1M11 21h1M18 21h1M17 22h1M15 23h1" />
<path stroke="#9c7be6" d="M17 8h2M16 9h2M14 11h2M8 12h1M14 12h3M7 13h1M13 13h5M7 14h1M11 14h7M6 15h11M18 15h1M6 16h2M12 16h4M17 16h1M6 17h1M13 17h4M18 17h1M13 18h3M17 18h1M11 19h1M14 19h1M16 19h1M9 20h2M15 20h1M13 23h1" />
<path stroke="#7b5ac5" d="M18 9h2M13 10h7M16 11h2M19 11h1M17 12h2M18 13h1M18 14h2M17 15h1M19 15h1M8 16h4M16 16h1M18 16h2M7 17h1M12 17h1M17 17h1M19 17h1M6 18h1M16 18h1M18 18h2M6 19h1M15 19h1M17 19h3M11 20h1M14 20h1M16 20h3M9 21h2M14 21h4M14 22h3M14 23h1" />
<path stroke="#ceadff" d="M10 11h4M9 12h5M8 13h5M8 14h3M9 19h2" />
<path stroke="#ad9c6b" d="M8 17h2M7 18h1M7 21h1M8 22h1M10 23h1" />
<path stroke="#bdb57b" d="M10 17h2M8 18h1M7 19h1M7 20h1M8 21h1M9 22h1M13 22h1M11 23h2" />
<path stroke="#efe6ad" d="M9 18h4M8 19h1M12 19h2M8 20h1M12 20h2M12 21h2M10 22h3" />
</svg>