<svg xmlns="http://www.w3.org/2000/svg" viewBox="0 -0.5 30 30" shape-rendering="crispEdges">
<metadata>Made with Pixels to Svg https://codepen.io/shshaw/pen/XbxvNj</metadata>
<path stroke="#526b73" d="M13 5h4M11 6h1M18 6h1M10 7h1M19 7h1M9 8h1M20 8h1M8 10h1M21 10h1M8 11h1M21 11h1M8 12h1M21 12h1M8 13h1M21 13h1M9 14h1M20 14h1M11 15h2M17 15h2" />
<path stroke="#6b9cad" d="M12 6h1M17 6h1M9 9h1M20 9h1M12 12h6M10 13h10M10 14h10M13 15h4" />
<path stroke="#ffffff" d="M13 6h4M11 7h2M17 7h2M10 8h1M12 8h2M19 8h1M10 9h1M12 9h2M19 9h1M9 10h1M20 10h1M9 11h1M20 11h1M9 12h1M20 12h1" />
<path stroke="#ceeff7" d="M13 7h1M16 7h1M11 8h1M14 8h1M18 8h1M11 9h1M14 9h1M10 10h1M12 10h2M19 10h1" />
<path stroke="#94c5ef" d="M14 7h2M15 8h3M15 9h4M11 10h1M14 10h5M10 11h10M10 12h2M18 12h2M9 13h1M20 13h1" />
<path stroke="#313131" d="M7 14h1M22 14h1M7 15h1M22 15h1M7 16h1M22 16h1M8 17h1M21 17h1M8 18h1M21 18h1M8 19h1M21 19h1M9 20h1M20 20h1M9 21h1M20 21h1M10 22h1M19 22h1M10 23h1M13 23h4M19 23h1M11 24h2M17 24h2" />
<path stroke="#a5f784" d="M8 14h1M21 14h1M9 15h2M19 15h2M11 16h8" />
<path stroke="#6bc542" d="M8 15h1M21 15h1M8 16h3M19 16h3M9 17h12M11 18h8" />
<path stroke="#3a6321" d="M9 18h2M19 18h2M12 19h6M10 21h1M19 21h1M11 22h1M18 22h1" />
<path stroke="#528c42" d="M9 19h3M18 19h3M10 20h10M11 21h8M12 22h6" />
<path stroke="#ad7b42" d="M11 23h2M17 23h2" />
</svg>