<svg xmlns="http://www.w3.org/2000/svg" viewBox="0 -0.5 30 30" shape-rendering="crispEdges">
<metadata>Made with Pixels to Svg https://codepen.io/shshaw/pen/XbxvNj</metadata>
<path stroke="#5a6b10" d="M21 6h1M20 7h1M19 8h1M18 9h1M17 10h1M16 11h1M15 12h1M14 13h1M22 19h1M21 20h1M19 21h3M10 22h2M18 22h3M10 23h4M16 23h3" />
<path stroke="#b5d6a5" d="M21 7h1M10 11h1M19 11h1M8 12h1M19 12h2" />
<path stroke="#313131" d="M22 7h1M21 8h1M23 8h1M20 9h1M22 9h1M24 9h1M12 10h5M19 10h1M23 10h1M9 11h1M18 11h1M17 12h1M16 13h1M22 13h1M6 14h1M22 14h1M23 15h1M5 16h1M23 16h1M5 17h1M23 17h1M5 18h1M23 18h1M5 19h1M23 19h1M6 20h1M22 20h1M6 21h1M22 21h1M7 22h1M21 22h1M8 23h2M19 23h2M10 24h9" />
<path stroke="#efffff" d="M20 8h1M22 8h1M19 9h1M23 9h1M18 10h1M17 11h1M16 12h1M15 13h1M10 16h1M18 16h2M15 17h3" />
<path stroke="#635221" d="M10 10h2M8 11h1M20 11h1M7 12h1M21 12h1M6 13h1M5 15h1M8 20h1M10 21h1" />
<path stroke="#e6ffd6" d="M11 11h5M9 12h1M8 13h1M20 13h1M20 14h1M8 15h1M20 15h1M9 16h1M11 17h4" />
<path stroke="#cede84" d="M10 12h5M18 12h1M9 13h1M19 13h1M8 14h1M15 19h1M17 19h2M16 20h1" />
<path stroke="#a5945a" d="M7 13h1M21 13h1M22 15h1M21 16h2M7 17h1M19 17h1M21 17h1M8 18h1M10 18h1M19 18h2M7 19h2M11 19h1M14 19h1M9 20h3M13 20h1M7 21h1M14 21h1M8 22h1" />
<path stroke="#ce844a" d="M10 13h4M17 13h2M9 14h2M13 14h4M19 14h1M9 15h1M14 15h2" />
<path stroke="#e6d69c" d="M7 14h1M21 14h1M7 15h1M21 15h1M8 16h1M20 16h1M9 17h2M18 17h1M12 18h6" />
<path stroke="#efbd73" d="M11 14h2M17 14h2M10 15h4M16 15h4M11 16h7" />
<path stroke="#cebd84" d="M6 15h1M6 16h1M6 17h1M8 17h1M6 18h1M9 18h1M11 18h1M13 19h1M16 19h1M14 20h2M17 21h1" />
<path stroke="#84943a" d="M7 16h1M22 17h1M18 18h1M21 18h2M6 19h1M9 19h1M12 19h1M20 19h2M7 20h1M12 20h1M17 20h4M8 21h2M12 21h2M18 21h1M9 22h1M12 22h1M14 22h1M16 22h2M14 23h2" />
<path stroke="#adbd63" d="M20 17h1M19 19h1M15 21h2M13 22h1M15 22h1" />
<path stroke="#8c7b42" d="M7 18h1M10 19h1M11 21h1" />
</svg>