<svg xmlns="http://www.w3.org/2000/svg" viewBox="0 -0.5 30 30" shape-rendering="crispEdges">
<metadata>Made with Pixels to Svg https://codepen.io/shshaw/pen/XbxvNj</metadata>
<path stroke="#313131" d="M12 7h6M10 8h1M19 8h1M9 9h1M20 9h1M8 10h1M21 10h1M7 12h1M22 12h1M7 13h1M22 13h1M7 14h1M22 14h1M7 15h1M22 15h1M7 16h1M22 16h1M7 17h1M22 17h1M8 19h1M21 19h1M9 20h1M20 20h1M10 21h1M19 21h1M12 22h6" />
<path stroke="#4a4a4a" d="M11 8h1M18 8h1M8 11h1M21 11h1M8 18h1M21 18h1M11 21h1M18 21h1" />
<path stroke="#e6e6e6" d="M12 8h3M10 9h2M9 10h1M13 10h3M16 11h2M8 12h1M16 12h3M11 13h1M13 13h1M18 13h1M18 14h1M18 15h1M14 17h1" />
<path stroke="#b5e6de" d="M15 8h2M16 9h2M18 10h1M18 11h2M19 12h1M19 13h1" />
<path stroke="#bdbdbd" d="M17 8h1M18 9h2M20 10h1M14 11h2M15 12h1M21 12h1M15 13h3M21 13h1M11 14h1M14 14h2M17 14h1M21 14h1M10 15h1M14 15h1M10 16h1" />
<path stroke="#efefbd" d="M12 9h1M15 9h1M16 10h2M10 14h1M9 15h1" />
<path stroke="#ffffce" d="M13 9h2M11 10h2M10 11h1M10 12h1M9 13h2M9 14h1" />
<path stroke="#efc5c5" d="M10 10h1M19 10h1M9 11h1M9 12h1M8 13h1M8 14h1M19 14h1M19 15h1M18 16h1" />
<path stroke="#ffffff" d="M11 11h3M11 12h3M12 13h1M11 15h1" />
<path stroke="#9ccec5" d="M20 11h1M20 12h1M9 16h1M10 17h1M17 17h1M11 18h1M16 18h1M13 19h3" />
<path stroke="#94a5a5" d="M14 12h1M14 13h1M12 14h2M16 14h1M12 15h2M15 15h2M11 16h5M11 17h3" />
<path stroke="#d6adad" d="M20 13h1M20 14h1M8 15h1M20 15h1M19 16h2M9 17h1M18 17h2M10 18h1M17 18h3M11 19h2M16 19h2" />
<path stroke="#7b8c8c" d="M17 15h1M16 16h2M15 17h2M20 17h1M9 18h1M12 18h4M20 18h1M10 19h1M18 19h2M11 20h8" />
<path stroke="#a5a5a5" d="M21 15h1M8 16h1M21 16h1M8 17h1M21 17h1M9 19h1M20 19h1M10 20h1M19 20h1M12 21h6" />
</svg>