<svg xmlns="http://www.w3.org/2000/svg" viewBox="0 -0.5 30 30" shape-rendering="crispEdges">
<metadata>Made with Pixels to Svg https://codepen.io/shshaw/pen/XbxvNj</metadata>
<path stroke="#4a424a" d="M11 8h1M9 9h1M7 10h1M5 11h1M4 12h1M6 13h1M22 13h1M7 14h2M20 14h1M23 14h1M7 15h4M18 15h1M21 15h1M7 16h1M10 16h2M19 16h1M6 17h2M14 17h2M17 17h1M5 18h3M14 18h2M14 19h2M11 20h1M14 20h2M12 21h1M14 21h2" />
<path stroke="#313131" d="M12 8h2M10 9h4M8 10h3M13 10h1M6 11h3M13 11h1M5 12h3M4 13h1M7 13h2M23 13h2M4 14h1M9 14h3M21 14h1M24 14h1M4 15h1M12 15h3M19 15h1M22 15h1M24 15h1M4 16h1M8 16h2M15 16h3M20 16h1M24 16h1M4 17h1M8 17h1M10 17h1M18 17h1M24 17h1M4 18h1M8 18h1M10 18h1M16 18h2M5 19h3M10 19h1M16 19h1M16 20h1M11 21h1M16 21h1M13 22h3" />
<path stroke="#635a63" d="M5 13h1M6 14h1M22 14h1M6 15h1M11 15h1M20 15h1M6 16h1M12 16h3M18 16h1M5 17h1M11 17h1M13 17h1M16 17h1M11 18h1M13 18h1M11 19h1M13 19h1M12 20h2M13 21h1" />
<path stroke="#cecece" d="M5 14h1M5 15h1M5 16h1M12 17h1M12 18h1M12 19h1" />
</svg>