<svg xmlns="http://www.w3.org/2000/svg" viewBox="0 -0.5 30 30" shape-rendering="crispEdges">
<metadata>Made with Pixels to Svg https://codepen.io/shshaw/pen/XbxvNj</metadata>
<path stroke="#212121" d="M21 7h2M19 8h2M23 8h1M17 9h2M23 9h1M16 10h1M22 10h1M15 11h1M22 11h1M14 12h1M21 12h1M13 13h1M21 13h1M12 14h1M20 14h1M11 15h1M19 15h1M10 16h1M18 16h1M10 17h1M17 17h1M9 18h1M16 18h1M9 19h1M15 19h1M8 20h1M13 20h2M8 21h1M11 21h2M9 22h2" />
<path stroke="#4284ce" d="M21 8h1M19 9h1M17 10h1" />
<path stroke="#3a63b5" d="M22 8h1M20 9h3M21 10h1M21 11h1M20 13h1" />
<path stroke="#429ce6" d="M18 10h3M17 11h2M20 11h1M16 12h1M19 12h2M19 13h1M18 14h2M18 15h1M17 16h1" />
<path stroke="#5aade6" d="M16 11h1M19 11h1M15 12h1M14 13h1" />
<path stroke="#6bb5ef" d="M17 12h2M15 13h2M18 13h1M13 14h1M17 14h1M12 15h1M17 15h1M11 16h1M16 17h1M15 18h1M14 19h1" />
<path stroke="#94c5ef" d="M17 13h1M14 14h1M16 16h1" />
<path stroke="#b5d6f7" d="M15 14h2M13 15h4M12 16h2M15 16h1M11 17h1M14 17h2M10 18h1M14 18h1M13 19h1M12 20h1" />
<path stroke="#deefff" d="M14 16h1M12 17h1M13 18h1M9 20h1M10 21h1" />
<path stroke="#ffffff" d="M13 17h1M11 18h2M10 19h3M10 20h2M9 21h1" />
</svg>