<svg xmlns="http://www.w3.org/2000/svg" viewBox="0 -0.5 30 30" shape-rendering="crispEdges">
<metadata>Made with Pixels to Svg https://codepen.io/shshaw/pen/XbxvNj</metadata>
<path stroke="#313131" d="M13 8h5M11 9h2M18 9h2M10 10h1M20 10h1M9 11h1M21 11h1M8 12h1M22 12h1M8 13h1M22 13h1M8 14h1M22 14h1M8 15h1M22 15h1M8 16h1M22 16h1M8 17h1M22 17h1M9 18h1M21 18h1M10 19h1M20 19h1M11 20h2M18 20h2M13 21h5" />
<path stroke="#b5bdc5" d="M13 9h1M17 9h1M11 10h1M19 10h1M10 11h1M20 11h1M13 12h1M17 12h1M12 13h1M15 13h1M18 13h1M13 14h1M17 14h1M11 15h1M15 15h1M19 15h1M12 16h1M18 16h1" />
<path stroke="#d6d6de" d="M14 9h1M16 9h1M13 10h1M17 10h1M10 12h1M20 12h1M10 13h1M20 13h1M10 14h1M20 14h1M13 17h5" />
<path stroke="#949cb5" d="M15 9h1M12 10h1M14 10h1M16 10h1M18 10h1M11 11h1M13 11h1M17 11h1M19 11h1M11 12h1M19 12h1M11 13h1M19 13h1M11 14h1M14 14h1M16 14h1M19 14h1M12 15h1M18 15h1M10 16h1M13 16h5M20 16h1M11 17h1M19 17h1M11 18h1M13 18h1M13 19h1" />
<path stroke="#f7f7f7" d="M15 10h1M12 11h1M14 11h1M18 11h1M15 14h1M10 15h1M11 16h1M12 17h1" />
<path stroke="#dee6e6" d="M15 11h2M12 12h1M14 12h3M18 12h1M13 13h2M16 13h2M12 14h1M18 14h1M13 15h2M16 15h2M20 15h1M19 16h1M18 17h1" />
<path stroke="#52637b" d="M9 12h1M21 12h1" />
<path stroke="#6b7b94" d="M9 13h1M21 13h1M9 14h1M21 14h1M9 15h1M21 15h1M9 16h1M21 16h1M15 18h1M17 18h1M19 18h1M11 19h1M15 19h1M17 19h1M19 19h1M13 20h1" />
<path stroke="#4a5a7b" d="M9 17h1M21 17h1M10 18h1M18 18h1M20 18h1M16 19h1M18 19h1M15 20h2" />
<path stroke="#5a739c" d="M10 17h1M20 17h1M12 18h1M14 18h1M16 18h1M12 19h1M14 19h1M14 20h1M17 20h1" />
</svg>