<svg xmlns="http://www.w3.org/2000/svg" viewBox="0 -0.5 30 30" shape-rendering="crispEdges">
<metadata>Made with Pixels to Svg https://codepen.io/shshaw/pen/XbxvNj</metadata>
<path stroke="#296b08" d="M9 4h4M8 5h1M7 6h1M6 7h1M6 8h1M13 8h1M6 9h1M14 9h1M6 10h1M14 10h1M6 11h1M14 11h1M24 11h1M7 12h1M11 12h2M14 12h1M18 12h1M23 12h1M8 13h1M14 13h1M19 13h2M22 13h1M12 14h2M11 15h1M11 16h1M12 17h1M15 17h1M21 17h1M13 18h2M21 18h1M18 19h1M20 19h1M17 20h1M19 20h1" />
<path stroke="#313131" d="M13 4h1M14 5h1M15 6h1M10 7h3M16 7h1M9 8h1M16 8h1M9 9h1M17 9h1M9 10h1M17 10h1M10 11h1M17 11h1M13 12h1M17 12h1M25 12h1M17 13h1M25 13h1M8 14h4M16 14h1M21 14h2M24 14h1M6 15h1M16 15h3M24 15h1M5 16h1M15 16h1M19 16h2M24 16h1M23 17h1M4 18h1M15 18h1M23 18h1M4 19h1M15 19h1M23 19h1M4 20h1M15 20h1M20 20h1M22 20h1M4 21h1M15 21h1M17 21h1M22 21h1M18 22h2M22 22h1M5 23h1M14 23h1M20 23h1M23 23h1M6 24h1M13 24h1M21 24h1M24 24h1M8 25h4M22 25h2" />
<path stroke="#d6f77b" d="M9 5h3M8 6h1M7 7h1M13 7h1M7 8h1M14 8h1M7 9h1M15 9h1M7 10h1M15 10h1M7 11h1M15 11h1M8 12h1M15 12h1M24 12h1M9 13h1M15 13h1M23 13h1M14 14h1M12 15h2M22 15h1M22 16h1M22 17h1M21 19h1M18 20h1M21 20h1M20 21h1" />
<path stroke="#a5e673" d="M12 5h1M9 6h5M8 7h1M14 7h1M15 8h1M8 11h1M9 12h1M10 13h2M18 13h1M15 14h1M19 14h2M23 14h1M14 15h1M21 15h1M12 16h2M13 17h1M22 18h1M18 21h2M21 21h1M20 22h2M22 23h1" />
<path stroke="#7bbd4a" d="M13 5h1M14 6h1M9 7h1M15 7h1M8 8h1M8 9h1M16 9h1M8 10h1M16 10h1M9 11h1M16 11h1M10 12h1M16 12h1M12 13h2M16 13h1M24 13h1M17 14h2M15 15h1M19 15h2M23 15h1M14 16h1M21 16h1M23 16h1M14 17h1M22 19h1M21 23h1M22 24h2" />
<path stroke="#844231" d="M7 14h1M4 17h1M4 22h1M15 22h1M7 25h1M12 25h1" />
<path stroke="#ce5a42" d="M7 15h1M5 17h1M13 19h1M12 20h2M12 21h2M5 22h1M10 22h3M6 23h6" />
<path stroke="#ef6352" d="M8 15h3M6 16h1M10 16h1M10 17h2M10 18h3M9 19h3M8 20h4M5 21h6M7 22h2" />
<path stroke="#ff9c8c" d="M7 16h3M6 17h1M9 17h1M5 18h1M9 18h1M5 19h1M8 19h1M5 20h3" />
<path stroke="#ffdebd" d="M7 17h2M6 18h3M6 19h2" />
<path stroke="#de6b52" d="M12 19h1M11 21h1M6 22h1M9 22h1" />
<path stroke="#bd4a31" d="M14 19h1M14 20h1M14 21h1M13 22h2M12 23h2M7 24h6" />
</svg>