<svg xmlns="http://www.w3.org/2000/svg" viewBox="0 -0.5 30 30" shape-rendering="crispEdges">
<metadata>Made with Pixels to Svg https://codepen.io/shshaw/pen/XbxvNj</metadata>
<path stroke="#313131" d="M14 5h3M12 6h2M17 6h2M11 7h1M19 7h1M9 8h2M20 8h1M8 9h1M20 9h1M7 10h1M21 10h1M7 11h1M21 11h2M6 12h1M23 12h1M6 13h1M23 13h1M6 14h1M24 14h1M6 15h1M24 15h1M6 16h1M24 16h1M6 17h1M24 17h1M6 18h1M24 18h1M6 19h1M23 19h1M6 20h1M20 20h3M7 21h1M17 21h3M7 22h1M15 22h2M8 23h2M13 23h2M10 24h3" />
<path stroke="#ad3131" d="M14 6h1M16 6h1M12 7h1M18 7h1M11 8h1M19 8h1M9 9h2M8 10h1M10 10h1M20 10h1M20 11h1M7 12h1M20 12h1M22 12h1M9 13h1M19 13h1M9 14h1M18 14h1M23 14h1M9 15h1M17 15h1M8 16h3M16 16h1M7 17h1M12 17h1M15 17h1M13 18h2M23 18h1M14 19h1M22 19h1M14 20h1M19 20h1M14 21h1M16 21h1M13 22h2" />
<path stroke="#de4242" d="M15 6h1M13 7h1M16 7h2M17 8h2M11 9h1M17 9h3M9 10h1M17 10h3M8 11h3M16 11h4M9 12h1M16 12h4M21 12h1M7 13h1M15 13h4M20 13h3M7 14h1M10 14h1M14 14h4M19 14h4M7 15h2M10 15h7M18 15h2M22 15h2M7 16h1M11 16h5M17 16h2M22 16h2M13 17h2M16 17h2M21 17h3M15 18h3M20 18h3M15 19h7M15 20h4M15 21h1" />
<path stroke="#ff5252" d="M14 7h2M12 8h2M16 8h1M12 9h1M16 9h1M11 10h1M15 10h2M11 11h1M14 11h2M8 12h1M10 12h6M8 13h1M10 13h5M8 14h1M11 14h3M20 15h2M19 16h3M18 17h3M18 18h2" />
<path stroke="#ff8c7b" d="M14 8h2M15 9h1M12 10h1M12 11h2" />
<path stroke="#ffbda5" d="M13 9h2M13 10h2" />
<path stroke="#efad3a" d="M8 17h2M11 17h1M8 18h1M12 18h1M7 19h1M13 19h1M8 20h1M8 21h1M9 22h1M12 22h1M11 23h1" />
<path stroke="#bd7b21" d="M10 17h1M7 18h1M10 18h1M10 19h2M7 20h1M11 20h3M8 22h1M10 23h1M12 23h1" />
<path stroke="#f7de52" d="M9 18h1M11 18h1M8 19h2M12 19h1M9 20h2M9 21h5M10 22h2" />
</svg>