<svg xmlns="http://www.w3.org/2000/svg" viewBox="0 -0.5 30 30" shape-rendering="crispEdges">
<metadata>Made with Pixels to Svg https://codepen.io/shshaw/pen/XbxvNj</metadata>
<path stroke="#313131" d="M17 5h3M14 6h10M13 7h1M24 7h1M13 8h1M25 8h1M13 9h1M25 9h1M12 10h1M25 10h1M12 11h1M24 11h1M12 12h1M24 12h1M11 13h1M24 13h1M11 14h1M23 14h1M11 15h11M23 15h1M9 16h2M20 16h3M7 17h2M20 17h1M5 18h2M20 18h1M4 19h1M20 19h1M4 20h1M20 20h1M22 20h3M4 21h1M18 21h2M21 21h1M24 21h1M4 22h1M16 22h2M23 22h1M4 23h1M14 23h2M20 23h3M5 24h9M19 24h1M22 24h1M21 25h1" />
<path stroke="#424242" d="M20 5h1M23 7h1M23 8h2M23 9h2M22 10h3M22 11h2M22 12h2M21 13h3M21 14h2M22 15h1M18 17h2M16 18h4M14 19h6M13 20h7M10 21h1M14 21h4M8 22h3M14 22h2" />
<path stroke="#7b1010" d="M14 7h1M15 8h8M15 9h1M14 10h1M14 11h1M14 12h1M13 13h1M13 14h1" />
<path stroke="#ad3a3a" d="M15 7h8M14 8h1M14 9h1M16 9h7M13 10h1M15 10h7M13 11h1M15 11h2M13 12h1M15 12h2M12 13h1M14 13h2M12 14h1M14 14h2" />
<path stroke="#ce5a5a" d="M17 11h5M17 12h5M16 13h5M16 14h5" />
<path stroke="#ffffff" d="M11 16h1M14 16h1M17 16h1M9 17h1M12 17h1M15 17h1M7 18h1M10 18h1M13 18h1M5 19h1M8 19h1M11 19h1" />
<path stroke="#efef7b" d="M12 16h1M15 16h1M18 16h1M10 17h1M13 17h1M16 17h1M8 18h1M11 18h1M14 18h1M6 19h1M9 19h1M12 19h1M8 21h1M22 21h2M20 24h2" />
<path stroke="#c5ad3a" d="M13 16h1M16 16h1M19 16h1M11 17h1M14 17h1M17 17h1M9 18h1M12 18h1M15 18h1M7 19h1M10 19h1M13 19h1M9 21h1M21 22h2M19 25h2" />
<path stroke="#7b7b7b" d="M5 20h8M5 21h3M11 21h3M5 22h3M11 22h3M5 23h9" />
</svg>