<svg xmlns="http://www.w3.org/2000/svg" viewBox="0 -0.5 30 30" shape-rendering="crispEdges">
<metadata>Made with Pixels to Svg https://codepen.io/shshaw/pen/XbxvNj</metadata>
<path stroke="#313131" d="M14 7h2M13 8h1M16 8h2M12 9h1M18 9h2M11 10h1M20 10h2M10 11h1M22 11h2M9 12h1M24 12h1M8 13h1M24 13h1M7 14h1M23 14h1M6 15h1M22 15h1M5 16h1M21 16h1M4 17h1M20 17h1M4 18h1M19 18h1M5 19h2M18 19h1M7 20h2M17 20h1M9 21h2M16 21h1M11 22h2M15 22h1M13 23h2" />
<path stroke="#dedeff" d="M14 8h2M13 9h1M16 9h2M16 10h2M11 11h1M20 11h2M11 12h1M21 12h1M9 13h1M8 14h1M7 15h1M7 16h3M19 16h1M8 17h2M18 17h1" />
<path stroke="#e6634a" d="M14 9h1M16 11h1M18 13h3M8 18h2M10 19h2M12 20h1" />
<path stroke="#9494b5" d="M15 9h1M15 11h1M17 11h1M16 13h1M23 13h1M20 14h1M22 14h1M19 15h1M21 15h1M20 16h1M5 18h2M18 18h1M7 19h2M17 19h1M9 20h2M16 20h1M11 21h2M13 22h2" />
<path stroke="#efeff7" d="M12 10h1M18 10h2M10 12h1M22 12h2M6 16h1M5 17h1" />
<path stroke="#e6ad8c" d="M13 10h3M16 12h1M18 12h3M6 17h2" />
<path stroke="#bdbdde" d="M12 11h1M18 11h2M21 13h2M9 14h1M21 14h1M8 15h2M20 15h1M19 17h1M7 18h1M10 18h2M17 18h1M9 19h1M12 19h5M11 20h1M14 20h2M13 21h1" />
<path stroke="#c5634a" d="M13 11h2M19 14h1M13 20h1M14 21h2" />
<path stroke="#f7ef9c" d="M12 12h3M11 16h1M16 16h2M12 17h5" />
<path stroke="#de7b63" d="M15 12h1M17 12h1" />
<path stroke="#bdb56b" d="M10 13h1M12 13h4M17 13h1M11 14h2M15 14h2M18 14h1M11 15h2M15 15h2M18 15h1M12 18h5" />
<path stroke="#efe66b" d="M11 13h1M10 14h1M13 14h2M17 14h1M10 15h1M13 15h2M17 15h1" />
<path stroke="#ded68c" d="M10 16h1M12 16h4M18 16h1M10 17h2M17 17h1" />
</svg>