<svg xmlns="http://www.w3.org/2000/svg" viewBox="0 -0.5 30 30" shape-rendering="crispEdges">
<metadata>Made with Pixels to Svg https://codepen.io/shshaw/pen/XbxvNj</metadata>
<path stroke="#423100" d="M15 4h3M13 5h1M19 5h1M11 6h1M20 6h1M10 7h1M21 7h1M22 8h1M22 9h1M8 10h1M23 10h1M23 11h1M10 12h1M22 13h1M10 14h1M17 14h1M21 14h1M9 15h1M18 15h1M12 16h1M15 16h1M16 17h1M14 18h1M10 19h1" />
<path stroke="#7b5200" d="M14 5h1M18 5h1M12 6h1M22 10h1M22 11h1M9 12h1M23 14h1M11 15h1M10 16h1M17 16h1M23 16h1M9 17h1M12 17h1M21 17h1M23 17h1M11 18h1M22 18h1M6 19h1M9 19h1M17 19h1M19 19h1M6 20h3M11 20h1M16 20h1M18 20h2M7 21h1M9 21h1M12 21h2M15 21h1M17 21h2M10 22h2M14 22h1M17 22h1M10 23h1M14 23h1" />
<path stroke="#c59c3a" d="M15 5h1M18 6h1M12 7h1M11 8h1M9 9h1M11 9h1M20 9h1M19 10h1M21 10h1M9 11h1M11 11h1M19 11h1M21 11h1M12 12h2M18 12h1M21 12h1M10 13h1M14 13h1M20 13h2M9 14h1M14 14h1M18 14h3M15 15h1M19 15h2M9 16h1M16 16h1M11 17h1M15 17h1M13 18h1" />
<path stroke="#debd6b" d="M16 5h2M13 6h5M19 6h1M11 7h1M14 7h6M10 8h1M13 8h7M10 9h1M12 9h8M10 10h9M20 10h1M7 11h1M12 11h7M20 11h1M15 12h3M19 12h2M12 13h2M17 13h3M12 14h2M10 15h1M12 15h1M11 16h1M21 16h1M6 17h1M10 17h1M14 17h1M20 17h1M13 20h1" />
<path stroke="#efde94" d="M13 7h1M12 8h1M9 10h1M11 13h1M11 14h1" />
<path stroke="#a57b00" d="M20 7h1M20 8h1M7 10h1M10 11h1M8 12h1M11 12h1M14 12h1M22 12h1M6 13h1M15 13h2M8 14h1M15 14h1M8 15h1M13 15h2M16 15h2M23 15h1M14 16h1M18 16h1M8 17h1M13 17h1M17 17h3M8 18h3M12 18h1M17 18h2M21 18h1M21 19h2M20 20h1M8 21h1M16 21h1M8 22h2M12 22h2M15 22h2M11 23h3" />
<path stroke="#6b4200" d="M9 8h1M8 9h1M8 11h1M6 12h1M8 13h2M16 14h1M21 15h1M13 16h1M19 16h2M22 16h1M22 17h1M6 18h1M19 18h2M7 19h1M18 19h1M20 19h1M14 20h2M17 20h1M10 21h2M14 21h1" />
<path stroke="#bd9429" d="M21 8h1M21 9h1M7 12h1M23 12h1M7 13h1M23 13h1M6 14h2M22 14h1M6 15h2M22 15h1M6 16h3M7 17h1M7 18h1M15 18h2M8 19h1M11 19h6M9 20h2M12 20h1" />
<path stroke="#313131" d="M7 9h1M6 10h1M6 11h1M24 12h1M5 13h1M24 13h1M5 14h1M24 14h1M5 15h1M24 15h1M5 16h1M24 16h1M5 17h1M24 17h1M5 18h1M23 18h1M5 19h1M23 19h1M5 20h1M21 20h2M6 21h1M19 21h2M7 22h1M18 22h1M8 23h2M15 23h3M10 24h5" />
</svg>