<svg xmlns="http://www.w3.org/2000/svg" viewBox="0 -0.5 30 30" shape-rendering="crispEdges">
<metadata>Made with Pixels to Svg https://codepen.io/shshaw/pen/XbxvNj</metadata>
<path stroke="#313131" d="M14 6h2M12 7h2M16 7h1M10 8h2M17 8h1M8 9h2M18 9h1M6 10h2M19 10h1M5 11h1M20 11h1M5 12h1M21 12h1M5 13h1M22 13h1M5 14h1M23 14h1M5 15h1M24 15h1M5 16h1M24 16h1M5 17h1M24 17h1M5 18h1M24 18h1M5 19h1M22 19h2M6 20h2M20 20h2M8 21h2M18 21h2M10 22h2M16 22h2M12 23h4" />
<path stroke="#ffde19" d="M14 7h2M13 8h2M16 8h1M14 9h1M17 9h1M15 10h1M17 10h2M8 11h1M17 11h1M19 11h1M6 12h1M9 12h1M20 12h1M7 13h1M9 13h2M18 13h1M20 13h2M8 14h2M11 14h1M19 14h2M22 14h1M9 15h1M12 15h1M20 15h1M23 15h1M10 16h1M12 16h2M21 16h1M11 17h2M14 17h1M12 18h1M15 18h1M13 19h1M15 19h2M14 20h2" />
<path stroke="#c5d6de" d="M12 8h1M10 9h4M8 10h7M9 11h4M10 12h2M11 13h1M18 14h1M17 15h3M14 16h7M15 17h7M16 18h4M17 19h1" />
<path stroke="#8c8c8c" d="M15 8h1M15 9h2M16 10h1M7 11h1M18 11h1M7 12h2M18 12h2M8 13h1M19 13h1M10 14h1M21 14h1M10 15h2M21 15h2M11 16h1M22 16h1M13 17h1M13 18h2M14 19h1" />
<path stroke="#d6b519" d="M6 11h1M23 16h1" />
<path stroke="#ff7321" d="M13 11h4M13 12h4M13 13h4M14 14h2" />
<path stroke="#ff4219" d="M12 12h1M17 12h1M12 13h1M17 13h1M13 14h1M16 14h1" />
<path stroke="#6b8494" d="M6 13h1M6 14h2M6 15h3M6 16h4M6 17h5M6 18h6M6 19h7M8 20h6M10 21h4M12 22h2" />
<path stroke="#b52921" d="M12 14h1M17 14h1M13 15h4" />
<path stroke="#8ca5b5" d="M22 17h2M20 18h4M18 19h4M16 20h4M14 21h4M14 22h2" />
</svg>