<svg xmlns="http://www.w3.org/2000/svg" viewBox="0 -0.5 30 30" shape-rendering="crispEdges">
<metadata>Made with Pixels to Svg https://codepen.io/shshaw/pen/XbxvNj</metadata>
<path stroke="#313131" d="M14 5h2M13 6h1M16 6h1M17 7h1M10 8h2M17 8h1M9 9h1M18 9h1M9 10h1M18 10h1M19 11h1M21 11h2M7 12h1M15 12h1M20 12h1M23 12h1M6 13h1M10 13h1M23 13h1M6 14h1M9 14h1M11 14h1M14 14h1M24 14h1M7 15h1M12 15h2M24 15h1M8 16h1M11 16h1M24 16h1M8 17h3M25 17h1M8 18h1M25 18h1M7 19h1M23 19h2M7 20h1M23 20h1M8 21h1M21 21h2M9 22h2M16 22h2M20 22h2M11 23h5M18 23h2" />
<path stroke="#bdd6ef" d="M14 6h2M15 7h2M16 8h1M10 9h2M10 10h3M13 11h1M21 12h2M12 16h2M12 17h3M21 17h1M14 18h1M17 18h2M21 18h1M17 19h3" />
<path stroke="#424a52" d="M13 7h1M12 8h1M12 9h1M14 10h1M8 11h1M15 11h3M14 13h1M20 13h1M8 15h1M21 15h1M14 16h1M21 16h2M15 17h1M17 17h2M20 17h1M22 17h1M10 18h1M16 18h1M19 18h2M23 18h1M15 19h1M20 19h1M15 20h1M9 21h1M11 21h1M16 21h1M11 22h1" />
<path stroke="#94adce" d="M14 7h1M15 8h1M15 9h3M16 10h1M9 11h1M11 11h2M8 12h2M12 12h2M21 13h2M22 14h1M23 16h1M11 17h1M12 18h2M22 18h1M8 19h2M12 19h3M22 19h1M8 20h1M13 20h1M18 20h2M19 21h1" />
<path stroke="#6b7b94" d="M13 8h2M13 9h2M13 10h1M15 10h1M17 10h1M10 11h1M14 11h1M10 12h2M14 12h1M7 13h3M11 13h3M7 14h2M12 14h2M21 14h1M23 14h1M22 15h2M23 17h2M9 18h1M11 18h1M15 18h1M24 18h1M10 19h2M16 19h1M21 19h1M9 20h4M14 20h1M16 20h2M20 20h3M10 21h1M12 21h4M17 21h2M20 21h1M12 22h4M18 22h2" />
<path stroke="#adc5ff" d="M18 11h1M19 14h2M20 15h1" />
<path stroke="#427bef" d="M16 12h1M16 13h2M10 14h1M17 14h1M9 15h1M18 15h1M9 16h1M18 16h2M19 17h1" />
<path stroke="#6394ef" d="M17 12h1M18 14h1M19 15h1M20 16h1" />
<path stroke="#ffffff" d="M18 12h2M18 13h2" />
<path stroke="#2152e6" d="M15 13h1M15 14h2M10 15h2M14 15h4M10 16h1M15 16h3M16 17h1" />
</svg>