<svg xmlns="http://www.w3.org/2000/svg" viewBox="0 -0.5 30 30" shape-rendering="crispEdges">
<metadata>Made with Pixels to Svg https://codepen.io/shshaw/pen/XbxvNj</metadata>
<path stroke="#313131" d="M10 4h2M9 5h1M12 5h1M8 6h1M12 6h1M7 7h1M12 7h1M6 8h1M12 8h11M5 9h1M12 9h1M23 9h1M5 10h1M13 10h1M23 10h1M6 11h4M23 11h1M9 12h1M15 12h1M23 12h1M9 13h1M16 13h1M23 13h1M9 14h1M17 14h1M20 14h2M23 14h1M18 15h1M22 15h2M7 16h1M23 16h1M6 17h1M24 17h1M6 18h1M18 18h1M24 18h1M5 19h1M19 19h1M24 19h1M5 20h1M19 20h1M24 20h1M5 21h1M19 21h1M24 21h1M4 22h1M8 22h1M19 22h1M24 22h1M4 23h1M8 23h1M20 23h4M4 24h1M18 24h2M5 25h13" />
<path stroke="#ad8463" d="M10 5h1M10 6h1M9 7h1M8 8h1M6 9h2M15 11h4M18 12h1M11 13h1M18 13h1M18 14h1" />
<path stroke="#ffffff" d="M11 5h1M11 6h1M13 15h1M11 16h2M14 16h1M9 17h1M11 17h2M14 17h1M8 18h1M10 18h3M14 18h1M8 19h1M10 19h3M9 21h2M9 22h2M8 24h4" />
<path stroke="#cebd6b" d="M9 6h1M8 7h1M7 8h1M21 9h1M14 10h5M20 10h1M22 10h1M19 11h1M10 12h1M19 12h1M10 13h1M19 13h1M19 14h1" />
<path stroke="#4a4a4a" d="M10 7h1M9 8h2M8 9h3M10 11h1M14 11h1M20 11h2M11 12h1M20 12h2M12 13h1M14 13h1M10 14h1M8 15h1M19 15h1M17 16h1M9 20h2M17 20h2M6 21h1M8 21h1M13 21h4M5 22h1M11 22h1M17 22h2M20 22h1M6 23h1M11 23h1M13 23h4" />
<path stroke="#deeff7" d="M11 7h1M11 8h1M11 9h1M12 10h1M13 11h1M14 12h1M10 15h3M9 16h2M13 16h1M8 17h1M10 17h1M13 17h1M15 17h1M9 18h1M13 18h1M15 18h1M7 19h1M14 19h1M23 20h1M22 21h2M21 22h3M7 24h1M12 24h2" />
<path stroke="#f7e6b5" d="M13 9h8M19 10h1" />
<path stroke="#ad9c42" d="M22 9h1M21 10h1M16 12h2M17 13h1M21 13h2M22 14h1M7 22h1M12 22h1" />
<path stroke="#94bdc5" d="M6 10h6M11 11h2M12 12h2M13 13h1M9 15h1M20 15h2M18 16h1M20 16h3M19 17h1M21 17h3M19 18h2M22 18h2M20 19h1M22 19h2M21 20h2M20 21h2M18 23h1M5 24h2M16 24h2" />
<path stroke="#73633a" d="M22 11h1M22 12h1M20 13h1M7 21h1M11 21h2M13 22h1M7 23h1M9 23h2M12 23h1" />
<path stroke="#3a73c5" d="M15 13h1M16 14h1M17 15h1" />
<path stroke="#6b8484" d="M11 14h5M16 15h1M19 16h1M7 17h1M18 17h1M20 17h1M21 18h1M6 19h1M18 19h1M21 19h1M6 20h1M8 20h1M11 20h1M16 20h1M20 20h1M5 23h1M17 23h1M19 23h1" />
<path stroke="#b5c5ce" d="M14 15h2M8 16h1M15 16h2M16 17h2M7 18h1M16 18h2M9 19h1M13 19h1M15 19h3M7 20h1M12 20h4M14 24h2" />
<path stroke="#ce6331" d="M17 21h2M6 22h1M14 22h3" />
</svg>