<svg xmlns="http://www.w3.org/2000/svg" viewBox="0 -0.5 30 30" shape-rendering="crispEdges">
<metadata>Made with Pixels to Svg https://codepen.io/shshaw/pen/XbxvNj</metadata>
<path stroke="#313131" d="M22 5h2M21 6h1M23 6h1M11 7h7M20 7h1M22 7h1M9 8h2M18 8h2M23 8h2M8 9h1M21 9h2M25 9h1M7 10h1M20 10h2M23 10h2M6 11h1M22 11h1M6 12h1M22 12h1M5 13h1M23 13h1M5 14h1M23 14h1M5 15h1M23 15h1M5 16h1M23 16h1M6 17h1M23 17h1M6 18h1M23 18h1M6 19h1M22 19h1M7 20h1M22 20h1M7 21h1M21 21h1M7 22h1M20 22h1M8 23h5M18 23h2M13 24h5" />
<path stroke="#8cd621" d="M22 6h1M21 8h2M17 9h2M23 9h2M17 10h2" />
<path stroke="#5aa521" d="M21 7h1M20 8h1M20 9h1M19 10h1M18 11h3" />
<path stroke="#ffe63a" d="M11 8h6M9 9h3M8 10h3M8 11h3M7 12h4M7 13h5M17 13h5M7 14h15M7 15h14M8 16h13M9 17h10M11 18h6" />
<path stroke="#9c8c4a" d="M17 8h1M16 9h1M16 10h1M6 16h1M7 19h1M8 21h1M10 22h1M13 23h1M17 23h1" />
<path stroke="#ffff73" d="M12 9h4M11 10h5M11 11h6M11 12h7M12 13h5" />
<path stroke="#316352" d="M19 9h1M17 11h1M21 11h1M18 12h3" />
<path stroke="#efc54a" d="M7 11h1M21 12h1M21 15h1M7 16h1M8 17h1M19 17h1M10 18h1M17 18h1M8 22h2" />
<path stroke="#debd4a" d="M6 13h1M22 13h1M6 14h1M22 14h1M6 15h1M22 15h1M21 16h2M7 17h1M20 17h3M7 18h3M18 18h5M8 19h14M8 20h14M9 21h12M11 22h9M14 23h3" />
</svg>