<svg xmlns="http://www.w3.org/2000/svg" viewBox="0 -0.5 30 30" shape-rendering="crispEdges">
<metadata>Made with Pixels to Svg https://codepen.io/shshaw/pen/XbxvNj</metadata>
<path stroke="#5a5a5a" d="M11 8h10M10 9h1M9 10h1M8 11h1M7 12h1M7 13h1M7 14h1" />
<path stroke="#bd843a" d="M11 9h2M19 9h2M11 10h1M20 11h1M11 12h1M19 12h1M10 13h1M18 13h3M17 14h5M16 15h5M20 17h1M13 18h1M19 18h1M14 19h1M18 19h1M15 20h1M17 20h1" />
<path stroke="#cea552" d="M13 9h6M10 10h1M12 10h8M21 10h1M9 11h3M21 11h2M8 12h3M13 12h6M21 12h3M9 13h1M14 13h4M22 13h1M8 14h1M15 14h2M23 14h1M9 15h1M10 16h1M11 17h1M14 20h1M15 21h1" />
<path stroke="#313131" d="M21 9h1M22 10h1M23 11h1M24 12h1M24 13h1M24 14h1M8 15h1M23 15h1M9 16h1M22 16h1M10 17h1M21 17h1M11 18h1M20 18h1M12 19h1M19 19h1M13 20h1M18 20h1M14 21h1M17 21h1M15 22h2" />
<path stroke="#a56b21" d="M20 10h1M12 11h8M20 12h1M8 13h1M21 13h1M23 13h1M9 14h1M22 14h1M10 15h1M21 15h2M14 16h2M21 16h1M13 17h3M14 18h2M15 19h1M16 21h1" />
<path stroke="#e6c584" d="M12 12h1M11 13h3M10 14h5M11 15h5M12 18h1M13 19h1" />
<path stroke="#734210" d="M11 16h3M20 16h1M12 17h1M19 17h1M18 18h1M17 19h1M16 20h1" />
<path stroke="#6b3a10" d="M16 16h4M16 17h3M16 18h2M16 19h1" />
</svg>