<svg xmlns="http://www.w3.org/2000/svg" viewBox="0 -0.5 30 30" shape-rendering="crispEdges">
<metadata>Made with Pixels to Svg https://codepen.io/shshaw/pen/XbxvNj</metadata>
<path stroke="#313131" d="M14 6h3M19 6h2M13 7h1M17 7h2M21 7h2M12 8h1M19 8h2M23 8h1M11 9h1M21 9h3M10 10h1M23 10h2M9 11h1M25 11h1M9 12h1M25 12h1M9 13h1M11 13h1M25 13h1M10 14h1M24 14h1M9 15h1M23 15h1M8 16h1M22 16h1M7 17h1M17 17h1M21 17h1M6 18h1M16 18h1M18 18h3M6 19h1M15 19h1M5 20h1M14 20h1M5 21h1M13 21h1M5 22h1M12 22h1M5 23h1M10 23h2M6 24h4" />
<path stroke="#a5a5a5" d="M14 7h3M13 8h6M12 9h9M11 10h4M21 10h2M11 11h4M17 11h1M20 11h5M13 12h4M19 12h5M15 13h1M18 13h1M20 13h3M17 14h5M12 15h2M19 15h2M11 16h2M15 16h1M10 17h2M14 17h1M9 18h2M13 18h1M8 19h2M12 19h1M7 20h2M11 20h1M6 21h2M10 21h1M6 22h1M9 22h1" />
<path stroke="#ffffff" d="M19 7h2M21 8h2M11 14h2M10 15h2M14 15h1M9 16h2M13 16h1M16 16h1M8 17h2M12 17h1M15 17h1M7 18h2M11 18h1M14 18h1M7 19h1M10 19h1M13 19h1M6 20h1M9 20h1M12 20h1M8 21h1M11 21h1M7 22h1M10 22h1M7 23h1" />
<path stroke="#6b6b6b" d="M15 10h4M20 10h1M10 11h1M15 11h1M19 11h1M10 12h3M18 12h1M10 13h1M13 13h2M17 13h1M19 13h1M15 14h2M17 15h2M14 16h1M18 16h2M13 17h1M16 17h1M18 17h2M12 18h1M15 18h1M11 19h1M14 19h1M10 20h1M13 20h1M9 21h1M12 21h1M8 22h1M11 22h1M6 23h1M8 23h2" />
<path stroke="#4a424a" d="M19 10h1M16 11h1M18 11h1M17 12h1M24 12h1M12 13h1M16 13h1M23 13h2M13 14h2M22 14h2M15 15h2M21 15h2M17 16h1M20 16h2M20 17h1" />
</svg>