<svg xmlns="http://www.w3.org/2000/svg" viewBox="0 -0.5 30 30" shape-rendering="crispEdges">
<metadata>Made with Pixels to Svg https://codepen.io/shshaw/pen/XbxvNj</metadata>
<path stroke="#4a3a19" d="M14 4h1M13 5h1M13 6h1M12 7h1M12 8h1M16 8h1M12 9h1M6 10h1M11 10h1M10 11h1M16 11h1M22 11h1M10 12h1M17 12h1M5 13h1M8 13h1M10 13h1M18 13h1M20 13h1M5 14h1M7 14h1M9 14h1M11 14h1M16 14h2M21 14h1M25 14h1M9 15h1M11 15h1M16 15h1M19 15h1M22 15h1M25 15h1M9 16h1M16 16h1M10 17h1M16 17h1M10 18h1M16 18h1M18 18h1M25 19h1M25 20h1M25 21h1M24 22h1M8 23h1M17 23h1M22 23h1M21 24h1" />
<path stroke="#f7e67b" d="M14 5h1M13 7h1M13 8h1M12 10h1M11 11h1M11 12h1M14 12h1M16 12h1M13 13h1M12 14h1M7 15h1M12 15h1M7 16h1M12 16h1M6 17h1M11 17h1M6 18h1M11 18h1M6 19h1M9 20h1M13 20h1M9 21h1M11 22h1" />
<path stroke="#313131" d="M15 5h1M15 6h1M15 7h1M17 8h2M7 9h1M16 9h1M19 9h2M8 10h1M16 10h1M21 10h1M6 11h1M9 11h1M23 11h1M6 12h1M24 12h1M17 13h1M19 13h1M25 13h1M5 15h1M20 15h1M24 15h1M5 16h1M19 16h1M21 16h1M23 16h1M25 16h1M5 17h1M18 17h1M22 17h1M25 17h1M5 18h1M25 18h1M5 19h1M16 19h2M6 20h1M6 21h2M23 21h1M8 22h1M22 22h1M9 23h2M16 23h1M10 24h1M15 24h1M17 24h1M20 24h1M11 25h5M17 25h3" />
<path stroke="#e6d65a" d="M14 6h1M14 7h1M14 8h1M13 9h2M17 9h2M7 10h1M13 10h2M19 10h2M7 11h1M12 11h1M14 11h1M7 12h1M12 12h1M15 12h1M22 12h2M6 13h1M12 13h1M14 13h2M24 13h1M13 14h2M24 14h1M13 15h2M13 16h2M20 16h1M24 16h1M7 17h2M12 17h3M19 17h1M23 17h1M7 18h2M12 18h2M15 18h1M8 19h4M13 19h1M18 19h1M7 20h1M10 20h3M10 21h3M18 21h1M10 22h1M12 22h1M18 23h1M18 24h1" />
<path stroke="#a59421" d="M15 8h1M15 9h1M15 10h1M15 11h1M11 13h1M16 13h1M22 13h1M6 14h1M8 14h1M15 14h1M6 15h1M8 15h1M15 15h1M6 16h1M8 16h1M11 16h1M15 16h1M9 17h1M15 17h1M20 17h2M24 17h1M9 18h1M20 18h5M7 19h1M15 19h1M20 19h2M23 19h2M8 20h1M20 20h1M22 20h3M8 21h1M17 21h1M19 21h4M15 22h2M19 22h3M14 23h2M19 23h3M12 24h2M19 24h1" />
<path stroke="#847321" d="M17 10h2M8 11h1M17 11h5M8 12h2M18 12h4M7 13h1M9 13h1M21 13h1M23 13h1M10 14h1M22 14h2M23 15h1M22 16h1" />
<path stroke="#c5b53a" d="M13 11h1M13 12h1M14 18h1M19 18h1M12 19h1M14 19h1M19 19h1M22 19h1M14 20h6M21 20h1M13 21h4M24 21h1M9 22h1M13 22h2M17 22h2M11 23h3M11 24h1M14 24h1" />
</svg>