<svg xmlns="http://www.w3.org/2000/svg" viewBox="0 -0.5 30 30" shape-rendering="crispEdges">
<metadata>Made with Pixels to Svg https://codepen.io/shshaw/pen/XbxvNj</metadata>
<path stroke="#313131" d="M22 5h2M17 6h5M23 6h1M15 7h2M23 7h1M14 8h1M21 8h2M14 9h1M20 9h1M13 10h1M19 10h1M13 11h1M17 11h2M13 12h1M16 12h1M19 12h4M13 13h1M15 13h1M17 13h2M23 13h1M9 14h3M13 14h1M15 14h2M24 14h1M7 15h2M12 15h1M15 15h1M25 15h1M6 16h1M11 16h1M16 16h2M22 16h2M25 16h1M5 17h1M11 17h1M14 17h2M18 17h4M24 17h1M5 18h1M12 18h4M4 19h1M15 19h1M4 20h1M15 20h1M4 21h1M15 21h1M4 22h1M14 22h1M5 23h1M14 23h1M6 24h1M12 24h2M7 25h5" />
<path stroke="#429c42" d="M22 6h1M20 7h3M18 8h3M16 9h2M15 10h1M14 11h1M14 12h2M17 14h4M16 15h2M14 16h2M19 16h1M24 16h1M12 17h2" />
<path stroke="#5ad652" d="M17 7h3M16 8h2M15 9h1M18 9h2M14 10h1M16 10h2M15 11h2M19 13h4M21 14h3M18 15h6M12 16h1M20 16h2" />
<path stroke="#317342" d="M15 8h1M18 10h1M14 13h1M14 14h1M13 15h2M24 15h1M13 16h1M18 16h1" />
<path stroke="#ff9431" d="M9 15h3M7 16h1M10 16h1M6 17h2M10 17h1M6 18h6M6 19h5M7 20h3" />
<path stroke="#ffde31" d="M8 16h2M8 17h2" />
<path stroke="#efe663" d="M5 19h1M5 20h1M5 21h1M6 22h1M10 22h1M6 23h5M8 24h3" />
<path stroke="#e67331" d="M11 19h1M6 20h1M10 20h1" />
<path stroke="#ce4a31" d="M12 19h3M11 20h4M6 21h9M7 22h3M11 22h3M11 23h2" />
<path stroke="#b5a563" d="M5 22h1M7 24h1M11 24h1" />
<path stroke="#9c523a" d="M13 23h1" />
</svg>