<svg xmlns="http://www.w3.org/2000/svg" viewBox="0 -0.5 30 30" shape-rendering="crispEdges">
<metadata>Made with Pixels to Svg https://codepen.io/shshaw/pen/XbxvNj</metadata>
<path stroke="#313131" d="M11 6h7M9 7h2M18 7h2M8 8h1M20 8h1M7 9h1M21 9h1M6 10h1M22 10h1M6 11h1M23 11h1M5 12h1M23 12h1M5 13h1M24 13h1M5 14h1M23 14h2M5 15h1M24 15h1M5 16h1M24 16h1M5 17h1M23 17h1M5 18h1M22 18h2M6 19h1M22 19h1M6 20h1M22 20h1M7 21h1M18 21h1M21 21h1M8 22h1M19 22h2M9 23h2M14 23h1M18 23h1M11 24h7" />
<path stroke="#d6ce94" d="M11 7h2M18 9h1M19 10h1M21 10h1M17 11h2M20 11h1M20 13h1M13 14h1M16 14h1M19 14h1M15 15h1M17 15h3M16 16h1M16 17h1M8 18h1M13 18h1M16 18h1M8 19h1M10 19h1M13 19h4M9 20h1M11 20h2M15 20h1M12 21h1" />
<path stroke="#f7efc5" d="M13 7h1M17 7h1M11 8h1M8 9h2M11 9h1M7 10h2M15 11h2M6 12h2M15 12h5M6 13h1M8 13h1M10 13h1M16 13h4M6 14h1M8 14h1M11 14h1M17 14h2M7 15h2M12 15h1M14 15h1M7 16h2M12 16h4M8 17h2M13 17h3M9 18h1M14 18h2M9 19h1M10 20h1" />
<path stroke="#fffff7" d="M14 7h3M9 8h1M12 8h3M17 8h3M19 9h2M12 10h3M20 10h1M11 11h1M13 11h2M10 12h3M11 13h2M12 14h1M13 15h1" />
<path stroke="#a59c84" d="M10 8h1M10 9h1M12 9h2M11 10h1M17 10h2M7 11h1M12 11h1M19 11h1M20 12h1M7 13h1M9 13h1M7 14h1M9 14h1M6 15h1M16 15h1M6 16h1M20 16h1M12 19h1M7 20h2M16 20h1M8 21h1M9 22h1" />
<path stroke="#ad5210" d="M15 8h2M14 9h1M17 9h1M9 10h1M15 10h2M8 11h1M10 11h1M21 11h1M8 12h2M13 12h2M21 12h1M13 13h1M15 13h1M21 13h2M10 14h1M14 14h2M20 14h1M9 15h1M11 15h1M20 15h1M9 16h1M11 16h1M17 16h3M21 16h1M6 17h2M10 17h1M12 17h1M17 17h1M21 17h1M7 18h1M10 18h1M12 18h1M17 18h1M7 19h1M11 19h1M17 19h1M13 20h2M17 20h1M9 21h3M13 21h1M15 21h2M10 22h1M12 22h2" />
<path stroke="#ffad4a" d="M15 9h2M10 10h1M9 11h1M22 11h1M14 13h1M22 14h1M10 15h1M21 15h2M10 16h1M11 17h1M6 18h1M11 18h1M19 18h2M18 19h2M18 20h1M11 22h1M14 22h3" />
<path stroke="#d67331" d="M22 12h1M23 13h1M23 15h1M22 16h2M20 17h1M22 17h1M21 18h1M20 19h2M19 20h3M17 21h1M19 21h2M17 22h2M11 23h3M15 23h3" />
<path stroke="#ffe6a5" d="M21 14h1M18 17h2M18 18h1M14 21h1" />
</svg>