<svg xmlns="http://www.w3.org/2000/svg" viewBox="0 -0.5 30 30" shape-rendering="crispEdges">
<metadata>Made with Pixels to Svg https://codepen.io/shshaw/pen/XbxvNj</metadata>
<path stroke="#212121" d="M14 11h2M7 12h1M12 12h2M16 12h2M22 12h1M6 13h1M8 13h1M10 13h2M18 13h2M21 13h1M23 13h1M5 14h1M9 14h1M20 14h1M24 14h1M4 15h1M25 15h1M5 16h1M9 16h1M20 16h1M24 16h1M6 17h1M8 17h1M10 17h2M18 17h2M21 17h1M23 17h1M7 18h1M12 18h2M16 18h2M22 18h1M14 19h2" />
<path stroke="#9c8cb5" d="M14 12h1M12 13h1M15 13h2M8 14h1M10 14h1M15 14h4M23 14h1M7 16h1M22 16h1M7 17h1M22 17h1" />
<path stroke="#8c73a5" d="M15 12h1M17 13h1M19 14h1" />
<path stroke="#ded6d6" d="M7 13h1M13 13h2M22 13h1M6 14h2M11 14h4M21 14h2M7 15h1M22 15h1" />
<path stroke="#bdadc5" d="M5 15h2M8 15h7M20 15h2M23 15h2" />
<path stroke="#84639c" d="M15 15h5M6 16h1M11 16h4M21 16h1M13 17h2" />
<path stroke="#63428c" d="M8 16h1M10 16h1M15 16h4M23 16h1M12 17h1M15 17h2M14 18h1" />
<path stroke="#52317b" d="M19 16h1M17 17h1M15 18h1" />
</svg>