<svg xmlns="http://www.w3.org/2000/svg" viewBox="0 -0.5 30 30" shape-rendering="crispEdges">
<metadata>Made with Pixels to Svg https://codepen.io/shshaw/pen/XbxvNj</metadata>
<path stroke="#525252" d="M11 4h2M17 4h2M9 5h1M20 5h1M5 9h1M24 9h1M4 11h1M25 11h1M4 12h1M25 12h1M4 17h1M25 17h1M4 18h1M25 18h1M5 20h1M24 20h1M9 24h1M20 24h1M11 25h2M17 25h2" />
<path stroke="#313131" d="M13 4h4M10 5h1M19 5h1M8 6h1M21 6h1M7 7h1M22 7h1M6 8h1M23 8h1M5 10h1M24 10h1M4 13h1M25 13h1M4 14h1M25 14h1M4 15h1M25 15h1M4 16h1M25 16h1M5 19h1M24 19h1M6 21h1M23 21h1M7 22h1M22 22h1M8 23h1M21 23h1M10 24h1M19 24h1M13 25h4" />
<path stroke="#84dee6" d="M11 5h1M18 5h1M9 6h1M13 6h4M20 6h1M16 7h3M10 8h4M17 8h4M6 9h1M9 9h1M13 9h1M18 9h4M23 9h1M9 10h1M13 10h1M19 10h3M5 11h1M9 11h1M13 11h1M20 11h1M24 11h1M8 12h1M10 12h3M14 12h1M16 12h1M20 12h1M7 13h2M7 14h1M14 14h1M16 14h1M7 15h1M7 16h1M5 18h1M6 20h1" />
<path stroke="#d6f7f7" d="M12 5h1M17 5h1M11 6h1M18 6h1M9 7h1M20 7h1M7 9h1M10 9h1M12 9h1M22 9h1M6 11h1M10 11h1M12 11h1M23 11h1M5 12h1M24 12h1M15 13h1M5 17h1M6 18h1M7 20h1" />
<path stroke="#ffffff" d="M13 5h4M10 6h1M19 6h1M8 7h1M21 7h1M7 8h1M22 8h1M11 9h1M6 10h1M10 10h3M23 10h1M11 11h1M5 13h1M24 13h1M5 14h1M24 14h1M5 15h1M24 15h1M5 16h1M24 16h1M6 19h1M7 21h1M8 22h1" />
<path stroke="#a5def7" d="M12 6h1M10 7h6M9 8h1M14 8h3M8 9h1M8 10h1M8 11h1M7 12h1M15 12h1M14 13h1M16 13h1M15 14h1" />
<path stroke="#b5d6ef" d="M17 6h1M19 7h1M8 8h1M21 8h1M7 10h1M22 10h1M7 11h1M21 11h2M6 12h1M22 12h2M6 13h1M20 13h1M22 13h2M6 14h1M23 14h1M6 15h1M23 15h1M6 16h1M21 16h1M6 17h1M21 17h1M7 18h1M20 18h1M7 19h2M20 19h1M9 20h1M19 20h1M10 21h2M17 21h2M12 22h5" />
<path stroke="#94ceef" d="M14 9h4M14 10h5M14 11h6M9 12h1M13 12h1M17 12h3M9 13h5M17 13h1M8 14h6M17 14h1M8 15h9M9 16h7M10 17h3" />
<path stroke="#b5ceef" d="M21 12h1M21 13h1M20 14h2M20 15h2M20 16h1M7 17h1M19 17h2M8 18h1M19 18h1M9 19h1M18 19h2M10 20h2M16 20h3M12 21h5" />
<path stroke="#a5c5ef" d="M18 13h2M18 14h2M17 15h3M8 16h1M16 16h4M8 17h2M13 17h6M9 18h10M10 19h8M12 20h4" />
<path stroke="#e6c5f7" d="M22 14h1M22 15h1M22 16h2M22 17h2M21 18h2M24 18h1M21 19h2M8 20h1M20 20h2M23 20h1M9 21h1M19 21h2M10 22h2M17 22h3M9 23h1M12 23h6M20 23h1M11 24h1M18 24h1" />
<path stroke="#fff7f7" d="M24 17h1M23 19h1M22 21h1M21 22h1M10 23h1M19 23h1M13 24h4" />
<path stroke="#ffdeef" d="M23 18h1M22 20h1M8 21h1M21 21h1M9 22h1M20 22h1M11 23h1M18 23h1M12 24h1M17 24h1" />
</svg>