<svg xmlns="http://www.w3.org/2000/svg" viewBox="0 -0.5 30 30" shape-rendering="crispEdges">
<metadata>Made with Pixels to Svg https://codepen.io/shshaw/pen/XbxvNj</metadata>
<path stroke="#313131" d="M12 6h6M10 7h2M18 7h2M9 8h1M20 8h1M8 9h1M21 9h1M7 10h1M21 10h1M7 11h1M21 11h1M6 12h1M22 12h1M6 13h1M23 13h1M5 14h1M24 14h1M5 15h1M24 15h1M5 16h1M24 16h1M5 17h1M24 17h1M5 18h1M23 18h1M6 19h1M23 19h1M7 20h1M22 20h1M8 21h1M21 21h1M9 22h2M19 22h2M11 23h8" />
<path stroke="#ff7b63" d="M12 7h1M17 7h1M19 8h1M8 10h1M21 12h1M10 15h4M19 15h1M10 16h4M19 16h2M8 17h1M10 17h4M19 17h2M10 18h3M19 18h1M19 19h1" />
<path stroke="#ffad52" d="M13 7h4M10 8h9M9 9h10M9 10h9M9 11h8M10 12h6M14 13h1M20 13h3M7 14h1M20 14h3M7 15h2M21 15h1M8 16h1" />
<path stroke="#f74242" d="M19 9h1M18 10h1M17 11h1M7 12h1M16 12h1M20 12h1M7 13h1M15 13h1M19 13h1M8 14h1M14 14h1M18 14h1M14 15h1M18 15h1M23 15h1M6 16h1M14 16h1M18 16h1M21 16h2M7 17h1M14 17h1M18 17h1M21 17h1M8 18h2M13 18h1M18 18h1M20 18h1M9 19h2M12 19h4M18 19h1M20 19h1M8 20h1M10 20h1M12 20h5M18 20h2M10 21h1M12 21h6M19 21h1M12 22h6" />
<path stroke="#ef6b21" d="M20 9h1M19 10h2M18 11h3M8 12h1M17 12h3M8 13h2M16 13h3M9 14h5M15 14h3M19 14h1M9 15h1M15 15h3M20 15h1M9 16h1M15 16h3M23 16h1M6 17h1M9 17h1M15 17h3M22 17h2M6 18h2M16 18h2M21 18h2M7 19h2M11 19h1M17 19h1M21 19h2M20 20h2M20 21h1" />
<path stroke="#ffce3a" d="M8 11h1M9 12h1M10 13h4M6 14h1M23 14h1M6 15h1M22 15h1M7 16h1" />
<path stroke="#ce3131" d="M14 18h2M16 19h1M9 20h1M11 20h1M17 20h1M9 21h1M11 21h1M18 21h1M11 22h1M18 22h1" />
</svg>