<svg xmlns="http://www.w3.org/2000/svg" viewBox="0 -0.5 30 30" shape-rendering="crispEdges">
<metadata>Made with Pixels to Svg https://codepen.io/shshaw/pen/XbxvNj</metadata>
<path stroke="#313131" d="M16 6h6M14 7h2M22 7h1M12 8h2M23 8h1M11 9h1M23 9h1M10 10h1M23 10h1M9 11h1M23 11h1M8 12h1M23 12h1M8 13h1M23 13h1M7 14h1M22 14h1M7 15h1M22 15h1M6 16h1M21 16h1M6 17h1M21 17h1M6 18h1M20 18h1M6 19h1M19 19h1M6 20h1M18 20h1M6 21h1M16 21h2M7 22h1M14 22h2M8 23h6" />
<path stroke="#4a7b42" d="M16 7h1M21 7h1M14 8h1M22 8h1M12 9h1M11 10h1M10 11h1M9 12h1M22 13h1M8 14h1M21 15h1M7 16h1M20 17h1M19 18h1M18 19h1M17 20h1M7 21h1M15 21h1M8 22h1M13 22h1" />
<path stroke="#3aad3a" d="M17 7h4M21 8h1M22 9h1M22 10h1M21 11h2M21 12h2M9 13h1M20 13h2M19 14h3M8 15h1M17 15h4M8 16h2M15 16h6M7 17h13M7 18h12M7 19h11M7 20h10M8 21h7M9 22h4" />
<path stroke="#42ce42" d="M15 8h6M13 9h3M19 9h3M12 10h2M19 10h3M11 11h2M18 11h3M10 12h3M16 12h5M10 13h10M9 14h10M9 15h8M10 16h5" />
<path stroke="#8cef8c" d="M16 9h3M14 10h5M13 11h5M13 12h3" />
</svg>