<svg xmlns="http://www.w3.org/2000/svg" viewBox="0 -0.5 30 30" shape-rendering="crispEdges">
<metadata>Made with Pixels to Svg https://codepen.io/shshaw/pen/XbxvNj</metadata>
<path stroke="#212121" d="M14 8h2M12 9h2M16 9h2M5 10h1M10 10h2M18 10h2M24 10h1M4 11h1M6 11h1M8 11h2M20 11h2M23 11h1M25 11h1M3 12h1M7 12h1M22 12h1M26 12h1M2 13h1M27 13h1M1 14h1M28 14h1M2 15h1M27 15h1M3 16h1M7 16h1M22 16h1M26 16h1M4 17h1M6 17h1M8 17h2M20 17h2M23 17h1M25 17h1M5 18h1M10 18h2M18 18h2M24 18h1M12 19h2M16 19h2M14 20h2" />
<path stroke="#f7efbd" d="M14 9h1M16 10h1M15 11h2M18 11h1M6 12h1M15 12h1M19 12h2M25 12h1M6 13h2M15 13h2M18 13h4M25 13h2M5 15h1M24 15h1M5 16h1M24 16h1M5 17h1M24 17h1" />
<path stroke="#d6ce94" d="M15 9h1M17 10h1M19 11h1M21 12h1" />
<path stroke="#ffffde" d="M12 10h1M10 11h1M8 12h1M2 14h3M6 14h3M21 14h3M25 14h3" />
<path stroke="#ffffef" d="M13 10h1M5 11h1M11 11h2M14 11h1M24 11h1M4 12h2M9 12h3M13 12h2M23 12h2M3 13h3M8 13h4M13 13h1M22 13h3M5 14h1M9 14h3M13 14h1M24 14h1" />
<path stroke="#b5b5ad" d="M14 10h1M13 11h1M12 12h1M12 13h1M14 13h1M12 14h1M14 14h1" />
<path stroke="#adad8c" d="M15 10h1M17 11h1M16 12h3M17 13h1" />
<path stroke="#948c63" d="M15 14h1M11 15h2M11 16h2M14 16h1M12 17h1" />
<path stroke="#cebd7b" d="M16 14h5M3 15h2M8 15h3M13 15h2M22 15h2M4 16h1M9 16h2M13 16h1M23 16h1M11 17h1M13 17h2M13 18h2" />
<path stroke="#a59c4a" d="M6 15h2M16 15h1M18 15h4M25 15h2M6 16h1M8 16h1M15 16h1M19 16h2M25 16h1M10 17h1M16 17h1M18 17h1M12 18h1M15 18h2M14 19h1" />
<path stroke="#7b7342" d="M15 15h1M17 15h1M16 16h3M15 17h1M17 17h1" />
<path stroke="#9c8c3a" d="M21 16h1M19 17h1M17 18h1M15 19h1" />
</svg>