<svg xmlns="http://www.w3.org/2000/svg" viewBox="0 -0.5 30 30" shape-rendering="crispEdges">
<metadata>Made with Pixels to Svg https://codepen.io/shshaw/pen/XbxvNj</metadata>
<path stroke="#848408" d="M15 7h1M22 7h1M22 13h1M6 20h1M8 20h2M11 22h1M9 23h1" />
<path stroke="#313131" d="M16 7h6M13 8h2M22 8h1M11 9h2M22 9h1M10 10h1M22 10h1M9 11h1M22 11h1M8 12h1M22 12h1M7 13h1M7 14h1M21 14h1M6 15h1M21 15h1M6 16h1M20 16h1M6 17h1M20 17h1M6 18h1M19 18h1M6 19h1M18 19h1M17 20h1M7 21h1M16 21h1M8 22h1M14 22h2M10 23h4" />
<path stroke="#efef5a" d="M15 8h6M13 9h2M11 10h2M10 11h1M18 11h1M20 11h1M9 12h1M15 12h2M19 12h1M21 12h1M8 13h1M17 13h1M19 13h1M21 13h1M8 14h1M14 14h2M18 14h1M20 14h1M7 15h1M16 15h1M18 15h1M20 15h1M7 16h1M15 16h1M17 16h1M19 16h1M16 17h1M19 17h1M15 18h1M18 18h1M9 19h1M14 19h1M17 19h1M7 20h1M14 21h1" />
<path stroke="#c5c531" d="M21 8h1M20 9h2M18 10h4M16 11h2M19 11h1M21 11h1M17 12h2M20 12h1M14 13h3M18 13h1M20 13h1M16 14h2M19 14h1M15 15h1M17 15h1M19 15h1M16 16h1M18 16h1M7 17h1M15 17h1M17 17h2M7 18h1M16 18h2M7 19h1M15 19h2M10 20h1M13 20h3M8 21h6M9 22h2" />
<path stroke="#ffffef" d="M15 9h5M13 10h5M11 11h5M10 12h5M9 13h5M9 14h4M8 15h4M13 15h1M8 16h3M12 16h2M8 17h2M11 17h3M8 18h1M10 18h4M10 19h3M16 20h1M15 21h1M12 22h2" />
<path stroke="#dede7b" d="M13 14h1M12 15h1M14 15h1M11 16h1M14 16h1M10 17h1M14 17h1M9 18h1M14 18h1M8 19h1M13 19h1M11 20h2" />
</svg>