<svg xmlns="http://www.w3.org/2000/svg" viewBox="0 -0.5 30 30" shape-rendering="crispEdges">
<metadata>Made with Pixels to Svg https://codepen.io/shshaw/pen/XbxvNj</metadata>
<path stroke="#313131" d="M12 5h1M11 7h1M13 7h1M11 8h1M13 8h1M10 10h1M14 10h1M10 11h1M14 11h1M15 12h1M21 12h1M9 13h1M15 13h1M17 13h1M20 13h1M22 13h1M7 14h1M9 14h1M16 14h1M18 14h1M20 14h1M22 14h1M6 15h1M8 15h1M19 15h1M23 15h1M6 16h1M23 16h1M6 17h1M24 18h1M5 19h1M24 19h1M5 20h1M24 20h1M5 21h1M24 21h1M5 22h1M24 22h1M6 23h1M23 23h1M8 24h2M20 24h2M11 25h8" />
<path stroke="#317ba5" d="M11 6h1M13 6h1M10 9h1M14 9h1M9 12h1M16 15h1M24 17h1M5 18h1M21 21h1M20 22h2M5 23h1M20 23h2M24 23h1M7 24h1M13 24h1M22 24h1M10 25h1M19 25h1" />
<path stroke="#f7ffff" d="M12 6h1M12 7h1M12 8h1M11 9h2M11 10h2M11 11h2M10 12h3M10 13h3M21 13h1M10 14h3M21 14h1M10 15h2M20 15h2M7 16h1M10 16h2M17 16h1M20 16h2M7 17h2M10 17h1M16 17h2M20 17h1M7 18h3M16 18h2M8 19h1M16 19h2M10 20h1M16 20h1M10 21h2M10 22h1M10 23h1" />
<path stroke="#73a5c5" d="M13 9h1M13 10h1M13 11h1M13 12h2M13 13h2M13 14h3M13 15h3M18 15h1M22 15h1M14 16h2M18 16h1M22 16h1M14 17h1M18 17h2M23 17h1M14 18h1M18 18h2M23 18h1M13 19h1M18 19h3M23 19h1M8 20h2M13 20h1M17 20h1M19 20h3M23 20h1M7 21h3M12 21h2M16 21h2M19 21h2M23 21h1M6 22h4M11 22h3M15 22h3M23 22h1M7 23h3M11 23h3M15 23h3M22 23h1M10 24h3M14 24h3" />
<path stroke="#def7ff" d="M17 14h1M17 15h1M16 16h1M21 17h2M6 18h1M12 18h2M21 18h2M6 19h2M10 19h3M22 19h1M6 20h2M11 20h2M6 21h1" />
<path stroke="#a5d6e6" d="M7 15h1M9 15h1M12 15h1M8 16h2M12 16h2M19 16h1M9 17h1M11 17h3M15 17h1M10 18h2M15 18h1M20 18h1M9 19h1M14 19h2M21 19h1M14 20h2M18 20h1M22 20h1M14 21h2M18 21h1M22 21h1M14 22h1M18 22h2M22 22h1M14 23h1M18 23h2M17 24h3" />
</svg>