<svg xmlns="http://www.w3.org/2000/svg" viewBox="0 -0.5 30 30" shape-rendering="crispEdges">
<metadata>Made with Pixels to Svg https://codepen.io/shshaw/pen/XbxvNj</metadata>
<path stroke="#313131" d="M23 5h1M20 6h2M24 6h1M20 7h1M14 8h4M23 8h1M12 9h1M22 9h2M10 10h1M9 11h1M21 11h1M21 12h1M8 13h1M21 13h1M21 14h1M7 15h1M21 15h1M7 16h1M21 16h1M7 17h1M20 17h1M7 18h1M20 18h1M19 19h1M6 20h1M18 20h1M6 21h1M16 21h2M5 22h1M11 22h5M5 23h1M8 23h2M6 24h2" />
<path stroke="#636310" d="M24 5h1M22 6h1M23 7h1M13 8h1M18 8h2M11 9h1M19 9h1M20 10h2M8 12h1M7 14h1M7 19h1M10 22h1M5 24h1" />
<path stroke="#e6e64a" d="M23 6h1M21 8h1M16 9h1M17 10h1M18 11h1M17 12h2M17 13h2M16 14h3M16 15h3M15 16h3M14 17h3M12 18h4M8 19h1M11 19h3M10 20h2M8 21h2M7 22h2" />
<path stroke="#f7f763" d="M21 7h1M20 8h1M13 9h3M11 10h3M16 10h1M10 11h1M13 11h5M9 12h1M12 12h5M9 13h1M11 13h6M8 14h1M11 14h5M8 15h1M10 15h6M8 16h1M10 16h5M8 17h1M10 17h4M8 18h4M9 19h2M7 20h3M7 21h1M6 22h1" />
<path stroke="#a5a508" d="M22 7h1M18 9h1M20 9h1M19 10h1M20 11h1M20 12h1M20 16h1M19 18h1M17 20h1M15 21h1" />
<path stroke="#c5c529" d="M22 8h1M17 9h1M21 9h1M18 10h1M19 11h1M19 12h1M19 13h2M19 14h2M19 15h2M18 16h2M17 17h3M16 18h3M14 19h5M12 20h5M10 21h5M9 22h1M6 23h2" />
<path stroke="#fffff7" d="M14 10h2M11 11h2M10 12h2M10 13h1M9 14h2M9 15h1M9 16h1M9 17h1" />
</svg>