<svg xmlns="http://www.w3.org/2000/svg" viewBox="0 -0.5 30 30" shape-rendering="crispEdges">
<metadata>Made with Pixels to Svg https://codepen.io/shshaw/pen/XbxvNj</metadata>
<path stroke="#212121" d="M15 9h5M13 10h2M20 10h1M12 11h1M20 11h1M11 12h1M19 12h1M10 13h1M19 13h1M10 14h1M20 14h1M9 15h1M20 15h1M9 16h1M20 16h1M9 17h1M20 17h1M9 18h1M19 18h1M9 19h1M18 19h1M9 20h1M16 20h2M10 21h1M14 21h2M11 22h3" />
<path stroke="#ef8c3a" d="M15 10h5M13 11h2M19 11h1M12 12h1M12 13h1M18 13h1M19 14h1" />
<path stroke="#ef6b31" d="M15 11h4M13 12h6" />
<path stroke="#f7a542" d="M11 13h1M13 13h5M12 14h7M17 15h2M18 16h1" />
<path stroke="#f7c573" d="M11 14h1M10 15h1M12 15h4M11 16h6M16 17h3M17 18h1" />
<path stroke="#f7b55a" d="M11 15h1M16 15h1M19 15h1M17 16h1M19 16h1M19 17h1" />
<path stroke="#f7de94" d="M10 16h1M10 17h1M12 17h3M10 18h6M15 19h2M15 20h1" />
<path stroke="#f7ce84" d="M11 17h1M15 17h1M16 18h1M18 18h1M17 19h1" />
<path stroke="#ffefce" d="M10 19h1M14 19h1" />
<path stroke="#ffffff" d="M11 19h3M10 20h5M11 21h3" />
</svg>