<svg xmlns="http://www.w3.org/2000/svg" viewBox="0 -0.5 30 30" shape-rendering="crispEdges">
<metadata>Made with Pixels to Svg https://codepen.io/shshaw/pen/XbxvNj</metadata>
<path stroke="#313131" d="M16 4h5M15 5h1M21 5h2M14 6h1M23 6h1M14 7h1M23 7h1M15 8h3M24 8h1M18 9h3M24 9h1M21 10h1M24 10h1M23 11h1M20 12h2M23 12h1M17 13h3M22 13h1M15 14h2M20 14h1M22 14h1M14 15h1M21 15h1M13 16h1M21 16h1M13 17h1M21 17h1M13 18h1M20 18h1M13 19h1M20 19h1M11 20h2M19 20h1M6 21h5M12 21h1M15 21h4M6 22h1M13 22h2M6 23h1M12 23h1M7 24h1M10 24h2M7 25h3" />
<path stroke="#8452de" d="M16 5h1M20 5h1M15 6h1M22 6h1M15 7h2M18 8h2M23 8h1M21 9h1M23 9h1M22 10h2M22 11h1M22 12h1M11 21h1M10 22h2M7 23h3" />
<path stroke="#84d6c5" d="M20 13h2M21 14h1M14 20h1M13 21h2" />
<path stroke="#ffc5e6" d="M17 14h3M16 15h1M19 15h2M15 16h2M19 16h2M14 17h7M14 18h6M15 19h4M16 20h2" />
<path stroke="#de8ca5" d="M15 15h1M14 16h1M19 19h1M18 20h1" />
<path stroke="#ffffde" d="M17 15h2M17 16h2M13 20h1" />
<path stroke="#bd5a63" d="M14 19h1M15 20h1" />
<path stroke="#ad6bff" d="M7 22h3M12 22h1M10 23h2M8 24h2" />
</svg>