<svg xmlns="http://www.w3.org/2000/svg" viewBox="0 -0.5 30 30" shape-rendering="crispEdges">
<metadata>Made with Pixels to Svg https://codepen.io/shshaw/pen/XbxvNj</metadata>
<path stroke="#313131" d="M18 7h3M15 8h3M21 8h1M12 9h3M21 9h1M9 10h3M22 10h1M6 11h3M22 11h1M5 12h1M22 12h1M5 13h1M23 13h1M6 14h1M23 14h1M6 15h1M23 15h1M6 16h1M24 16h1M7 17h1M24 17h1M7 18h1M21 18h3M7 19h1M18 19h3M8 20h1M15 20h3M8 21h1M12 21h3M9 22h3" />
<path stroke="#73b510" d="M18 8h3M18 9h2M17 10h3M17 11h3M21 11h1M17 12h2M21 12h1M16 13h3M21 13h2M16 14h3M20 14h3M16 15h2M20 15h3M15 16h3M20 16h4M15 17h3M19 17h4M15 18h2M19 18h1M14 19h3" />
<path stroke="#c5efde" d="M15 9h2M12 10h5M20 10h1M9 11h8M20 11h1M6 12h4M14 12h2M20 12h1M6 13h1M11 13h5M19 13h1M7 14h4M14 14h2M19 14h1M7 15h1M12 15h3M19 15h1M7 16h5M14 16h1M18 16h1M8 17h1M13 17h2M18 17h1M8 18h6M18 18h1M8 19h6M9 20h5M9 21h2" />
<path stroke="#9cd673" d="M17 9h1M20 9h1M21 10h1M16 12h1M19 12h1M20 13h1M15 15h1M18 15h1M19 16h1M14 18h1M17 18h1" />
<path stroke="#c5ad9c" d="M10 12h1M13 12h1M7 13h1M10 13h1M11 14h1M8 15h1M11 15h1M12 16h1M9 17h1M12 17h1" />
<path stroke="#d67363" d="M11 12h2M8 13h2M12 14h2M9 15h2M13 16h1M10 17h2" />
<path stroke="#3a6b21" d="M23 17h1M20 18h1M17 19h1" />
<path stroke="#6ba58c" d="M14 20h1M11 21h1" />
</svg>