<svg xmlns="http://www.w3.org/2000/svg" viewBox="0 -0.5 30 30" shape-rendering="crispEdges">
<metadata>Made with Pixels to Svg https://codepen.io/shshaw/pen/XbxvNj</metadata>
<path stroke="#313131" d="M14 7h2M13 8h1M16 8h2M12 9h1M18 9h2M11 10h1M20 10h2M10 11h1M22 11h2M9 12h1M24 12h1M8 13h1M24 13h1M7 14h1M23 14h1M6 15h1M22 15h1M5 16h1M21 16h1M4 17h1M20 17h1M4 18h1M19 18h1M5 19h2M18 19h1M7 20h2M17 20h1M9 21h2M16 21h1M11 22h2M15 22h1M13 23h2" />
<path stroke="#dedede" d="M14 8h2M13 9h5M12 10h2M15 10h2M11 11h2M14 11h2M20 11h2M10 12h5M19 12h5M9 13h2M12 13h5M18 13h5" />
<path stroke="#94ce84" d="M14 10h1M17 10h3M13 11h1M16 11h4M15 12h4M11 13h1M17 13h1" />
<path stroke="#e6e6e6" d="M23 13h1M22 14h1M21 15h1M20 16h1M19 17h1M5 18h2M18 18h1M7 19h2M17 19h1M9 20h2M16 20h1M11 21h2M15 21h1M13 22h2" />
<path stroke="#d6d6d6" d="M8 14h2M11 14h2M16 14h6M7 15h2M10 15h3M16 15h5M6 16h5M12 16h7M5 17h5M14 17h4M7 18h2M13 18h4M12 19h4M11 20h4M13 21h1" />
<path stroke="#5aad4a" d="M10 14h1M13 14h3M9 15h1M13 15h3M11 16h1M10 17h4M9 18h4M9 19h3" />
<path stroke="#c5c5c5" d="M19 16h1M18 17h1M17 18h1M16 19h1M15 20h1M14 21h1" />
</svg>