<svg xmlns="http://www.w3.org/2000/svg" viewBox="0 -0.5 30 30" shape-rendering="crispEdges">
<metadata>Made with Pixels to Svg https://codepen.io/shshaw/pen/XbxvNj</metadata>
<path stroke="#313131" d="M16 4h2M15 5h1M18 5h6M12 6h1M14 6h1M18 6h1M24 6h1M11 7h1M13 7h1M17 7h1M24 7h1M11 8h1M13 8h1M21 8h3M10 9h1M18 9h3M9 10h1M16 10h2M9 11h1M15 11h1M10 12h1M14 12h1M10 13h1M13 13h1M10 14h1M12 14h1M10 15h1M12 15h1M9 16h1M11 16h1M9 17h1M11 17h1M9 18h1M11 18h1M8 19h1M10 19h1M8 20h1M10 20h1M8 21h1M10 21h1M7 22h1M9 22h1M7 23h1M9 23h1M7 24h1M9 24h1M8 25h1" />
<path stroke="#cecece" d="M16 5h2M15 6h3M19 6h2M12 7h1M15 7h2M18 7h2M12 8h1M14 8h7M12 9h6M10 10h1M12 10h4M10 11h5M11 12h3" />
<path stroke="#ffffff" d="M21 6h3M20 7h4" />
<path stroke="#a5a5a5" d="M14 7h1M11 9h1M11 10h1M11 13h2" />
<path stroke="#ffef8c" d="M11 14h1M11 15h1M10 16h1M10 17h1M10 18h1M9 19h1M9 20h1" />
<path stroke="#f7ce6b" d="M9 21h1M8 22h1M8 23h1M8 24h1" />
</svg>