<svg xmlns="http://www.w3.org/2000/svg" viewBox="0 -0.5 30 30" shape-rendering="crispEdges">
<metadata>Made with Pixels to Svg https://codepen.io/shshaw/pen/XbxvNj</metadata>
<path stroke="#313131" d="M15 6h2M14 7h1M17 7h2M13 8h1M19 8h2M12 9h1M21 9h2M11 10h1M23 10h2M10 11h1M25 11h1M9 12h1M25 12h1M8 13h1M24 13h1M7 14h1M23 14h1M6 15h1M22 15h1M5 16h1M21 16h1M5 17h1M20 17h1M6 18h2M19 18h1M8 19h2M18 19h1M10 20h2M17 20h1M12 21h2M16 21h1M14 22h2" />
<path stroke="#424a7b" d="M15 7h2M14 8h5M13 9h2M17 9h2M12 10h3M17 10h1M11 11h3M15 11h2M10 12h3M14 12h2M24 12h1M9 13h3M13 13h3M23 13h1M8 14h8M22 14h1M7 15h3M11 15h5M21 15h1M6 16h3M10 16h5M20 16h1M8 17h6M19 17h1M10 18h3M18 18h1M17 19h1M16 20h1" />
<path stroke="#d6ad3a" d="M15 9h2M15 10h2M14 11h1M12 13h1M9 16h1M18 17h1M17 18h1M16 19h1M15 20h1" />
<path stroke="#428cd6" d="M19 9h2M18 10h5M17 11h8M16 12h8M16 13h7M16 14h6M16 15h5M15 16h5M7 17h1M14 17h4M9 18h1M13 18h4M11 19h5M13 20h2M15 21h1" />
<path stroke="#947b29" d="M13 12h1M10 15h1" />
<path stroke="#6bb5f7" d="M6 17h1M8 18h1M10 19h1M12 20h1M14 21h1" />
</svg>