<svg xmlns="http://www.w3.org/2000/svg" viewBox="0 -0.5 30 30" shape-rendering="crispEdges">
<metadata>Made with Pixels to Svg https://codepen.io/shshaw/pen/XbxvNj</metadata>
<path stroke="#636363" d="M14 5h1M19 5h1M21 6h1M8 8h1M24 9h1M5 11h1M25 11h1M4 13h1M25 18h1M4 19h1M24 20h1M5 21h1M23 21h1M8 24h1M10 25h1M15 25h1" />
<path stroke="#313131" d="M15 5h4M12 6h2M20 6h1M10 7h2M22 7h1M9 8h1M23 8h1M7 9h1M6 10h1M24 10h1M5 12h1M25 12h1M25 13h1M4 14h1M12 14h1M25 14h1M4 15h1M12 15h1M25 15h1M4 16h1M12 16h1M25 16h1M4 17h1M25 17h1M4 18h1M13 18h1M14 19h1M24 19h1M5 20h1M22 21h1M6 22h1M20 22h2M7 23h1M18 23h2M9 24h1M16 24h2M11 25h4" />
<path stroke="#21adde" d="M14 6h1M19 6h1M12 7h1M21 7h1M10 8h1M22 8h1M19 9h1M7 10h1M20 10h1M23 10h1M6 11h1M16 11h1M21 11h1M8 12h1M13 12h1M17 12h1M21 12h1M24 12h1M5 13h1M7 13h1M18 13h1M22 13h1M5 14h2M18 14h1M22 14h1M5 15h2M16 15h1M19 15h1M22 15h1M5 16h2M19 16h1M22 16h1M24 16h1M5 17h2M19 17h1M22 17h3M5 18h2M19 18h3M23 18h1M6 19h1M18 19h1M20 19h2M6 20h2M17 20h2M20 20h2M7 21h1M16 21h3M20 21h1M8 22h2M15 22h3M9 23h8M11 24h4" />
<path stroke="#63d6ef" d="M15 6h1M18 6h1M13 7h1M17 7h1M20 7h1M11 8h1M16 8h1M19 8h3M14 9h4M20 9h3M8 10h1M13 10h1M16 10h4M21 10h2M7 11h8M17 11h3M22 11h2M6 12h2M14 12h3M18 12h3M23 12h1M6 13h1M15 13h2M19 13h2M23 13h2M16 14h2M20 14h2M23 14h2M17 15h1M20 15h2M23 15h2M17 16h2M20 16h2M23 16h1M17 17h2M20 17h1M17 18h2M17 19h1" />
<path stroke="#8ceff7" d="M16 6h2M18 7h2M12 8h4M9 10h4" />
<path stroke="#3ac5d6" d="M14 7h3M17 8h2M9 9h5M18 9h1M14 10h2M15 11h1M20 11h1M22 12h1M17 13h1M21 13h1M19 14h1M18 15h1M21 17h1" />
<path stroke="#317bad" d="M8 9h1M23 9h1M24 11h1M12 12h1M9 13h4M14 13h1M7 14h5M15 14h1M7 15h5M15 15h1M7 16h5M16 16h1M7 17h5M16 17h1M7 18h6M16 18h1M24 18h1M5 19h1M8 19h6M16 19h1M8 20h7M16 20h1M23 20h1M6 21h1M9 21h5M15 21h1M21 21h1M7 22h1M14 22h1M19 22h1M8 23h1M17 23h1M10 24h1M15 24h1" />
<path stroke="#314294" d="M9 12h3M8 13h1M13 13h1M14 14h1M15 16h1M12 17h1M15 17h1M15 18h1M15 19h1M15 20h1M14 21h1M11 22h3" />
<path stroke="#2194c5" d="M22 18h1M7 19h1M19 19h1M22 19h2M19 20h1M22 20h1M8 21h1M19 21h1M10 22h1M18 22h1" />
</svg>