<svg xmlns="http://www.w3.org/2000/svg" viewBox="0 -0.5 30 30" shape-rendering="crispEdges">
<metadata>Made with Pixels to Svg https://codepen.io/shshaw/pen/XbxvNj</metadata>
<path stroke="#313131" d="M14 9h2M12 10h2M16 10h2M10 11h2M18 11h2M8 12h2M20 12h2M6 13h2M22 13h2M4 14h2M24 14h2M3 15h1M26 15h1M4 16h2M24 16h2M6 17h2M22 17h2M8 18h2M20 18h2M10 19h2M18 19h2M12 20h2M16 20h2M14 21h2" />
<path stroke="#ffc5ff" d="M14 10h1M12 11h1M10 12h1M8 13h1M6 14h1M5 15h6M13 15h2" />
<path stroke="#ff529c" d="M15 10h1M17 11h1M19 12h1M21 13h1M23 14h1" />
<path stroke="#fff7f7" d="M13 11h2M11 12h2M14 12h1M9 13h4M14 13h1M7 14h5" />
<path stroke="#ff94bd" d="M15 11h2M15 12h1M17 12h2M15 13h1M17 13h4M18 14h5" />
<path stroke="#b5adad" d="M13 12h1M13 13h1M12 14h3" />
<path stroke="#ad6384" d="M16 12h1M16 13h1M15 14h3" />
<path stroke="#ff63a5" d="M4 15h1M15 15h2M19 15h6M7 16h4M13 16h1M9 17h2M13 17h1M11 18h1M13 18h1M13 19h2" />
<path stroke="#b584b5" d="M11 15h2" />
<path stroke="#b54273" d="M17 15h2M11 16h2M14 16h1M11 17h2M14 17h1M12 18h1M14 18h1" />
<path stroke="#ef428c" d="M25 15h1M6 16h1M16 16h1M19 16h4M8 17h1M16 17h1M19 17h2M10 18h1M16 18h1M18 18h1M12 19h1M15 19h2M14 20h1" />
<path stroke="#a52963" d="M15 16h1M17 16h2M15 17h1M17 17h2M15 18h1M17 18h1" />
<path stroke="#b52984" d="M23 16h1M21 17h1M19 18h1M17 19h1M15 20h1" />
</svg>