<svg xmlns="http://www.w3.org/2000/svg" viewBox="0 -0.5 30 30" shape-rendering="crispEdges">
<metadata>Made with Pixels to Svg https://codepen.io/shshaw/pen/XbxvNj</metadata>
<path stroke="#525221" d="M6 4h1M17 4h1M15 5h1M10 6h1M12 6h1M7 7h1M10 7h1M8 8h1M10 8h1M8 9h1M6 10h3M8 11h1M5 12h1M9 12h1M9 13h1M21 13h1M24 14h1M24 17h1M22 18h1M17 19h3M20 20h2M18 21h1M16 22h1M19 22h1M14 23h1M17 23h1M19 24h1" />
<path stroke="#313131" d="M7 4h1M11 4h1M16 4h1M6 5h1M8 5h1M10 5h1M12 5h2M17 5h3M7 6h1M9 6h1M14 6h1M19 6h1M18 7h1M18 8h1M19 9h1M20 10h1M20 11h1M6 12h1M8 12h1M21 12h4M5 13h1M24 13h1M4 14h1M25 14h1M4 15h2M23 15h1M6 16h1M24 16h1M6 17h1M23 17h1M6 18h1M7 19h1M22 19h1M7 20h1M22 20h1M8 21h2M21 21h1M10 22h2M20 22h2M12 23h1M19 23h1M12 24h1M14 24h1M16 24h1M18 24h1M13 25h1M15 25h1" />
<path stroke="#f7efce" d="M7 5h1M11 5h1M16 5h1M8 6h1M11 6h1M13 6h1M15 6h1M17 6h2M8 7h1M11 7h1M13 7h1M15 7h2M9 8h1M11 8h1M13 8h1M9 9h1M11 9h1M9 10h3M7 11h1M10 11h1M10 12h1M6 13h1M23 13h1M5 14h1M20 16h2M18 17h1M17 18h5" />
<path stroke="#c5bd84" d="M16 6h1M9 7h1M12 7h1M14 7h1M17 7h1M12 8h1M14 8h2M10 9h1M12 9h2M12 10h1M9 11h1M11 11h1M6 14h1M22 14h1M21 15h2M22 16h2M19 17h3M17 22h1M15 23h1M18 23h1M13 24h1M15 24h1" />
<path stroke="#948c52" d="M16 8h2M14 9h2M6 11h1M12 11h1M7 12h1M10 13h1M22 13h1M21 14h1M23 14h1M20 15h1M19 16h1M17 17h1M22 17h1M15 18h2M20 19h2M19 20h1M17 21h1M19 21h2M15 22h1M18 22h1M13 23h1M16 23h1" />
<path stroke="#316319" d="M16 9h3M13 10h2M19 10h1M11 12h1M20 12h1M7 13h1M20 13h1M7 14h1M20 14h1M6 15h1M19 15h1M18 16h1M16 17h1M17 20h2M15 21h2M12 22h3" />
<path stroke="#428c29" d="M15 10h4M13 11h1M18 11h2M12 12h1M17 12h1M19 12h1M11 13h1M16 13h1M18 13h2M10 14h1M17 14h1M19 14h1M16 15h1M18 15h1M15 16h1M17 16h1M7 17h1M15 17h1M7 18h1M14 18h1M8 19h2M12 19h5M8 20h9M10 21h5" />
<path stroke="#73bd5a" d="M14 11h4M13 12h4M18 12h1M12 13h4M17 13h1M11 14h6M18 14h1M13 15h3M17 15h1M12 16h1M14 16h1M16 16h1M11 17h1M13 17h2M10 18h1M12 18h2M10 19h2" />
<path stroke="#8cd673" d="M8 13h1M8 14h2M7 15h1M9 15h4M7 16h1M10 16h2M13 16h1M9 17h2M12 17h1M8 18h2M11 18h1" />
<path stroke="#adef8c" d="M8 15h1M8 16h2M8 17h1" />
</svg>