<svg xmlns="http://www.w3.org/2000/svg" viewBox="0 -0.5 30 30" shape-rendering="crispEdges">
<metadata>Made with Pixels to Svg https://codepen.io/shshaw/pen/XbxvNj</metadata>
<path stroke="#524a5a" d="M11 5h1M9 7h1M12 8h1M13 9h1M13 10h1M12 11h1M10 12h2M7 13h1M6 14h1M5 16h1M20 17h1M8 19h1M13 19h1M23 19h1M13 20h1M17 20h1M19 20h1M24 20h1M20 21h1" />
<path stroke="#313131" d="M12 5h3M10 6h1M15 6h2M22 6h1M17 7h1M21 7h1M23 7h1M9 8h1M18 8h3M23 8h1M9 9h1M18 9h1M24 9h1M9 10h1M19 10h1M21 10h3M10 11h1M19 11h1M22 11h1M9 12h1M19 12h1M23 12h1M8 13h1M20 13h1M22 13h2M20 14h1M24 14h1M6 15h1M20 15h4M20 16h1M5 17h1M5 18h1M21 18h1M5 19h1M22 19h1M5 20h1M8 20h1M5 21h1M7 21h1M9 21h1M13 21h1M17 21h1M21 21h2M24 21h1M6 22h1M9 22h1M12 22h1M14 22h1M16 22h1M18 22h1M20 22h1M23 22h2M9 23h1M12 23h1M14 23h1M16 23h1M19 23h2M10 24h1M12 24h1M15 24h1M11 25h1" />
<path stroke="#9484ad" d="M11 6h3M10 7h1M12 7h2M13 8h2M16 8h1M14 9h2M17 9h1M14 10h1M16 11h1M18 11h1M15 12h4M10 13h2M14 13h5M8 14h3M15 14h5M7 15h6M18 15h2M7 16h1M9 16h4M16 16h1M6 17h1M10 17h2M16 17h3M11 18h1M16 18h3M20 18h1M7 19h1M9 19h1M11 19h1M15 19h2M18 19h2M21 19h1M6 20h1M12 20h1M15 20h2M18 20h1M22 20h1M18 21h2M10 22h1M15 22h1M11 23h1" />
<path stroke="#846b8c" d="M14 6h1M16 7h1M22 7h1M17 8h1M21 8h2M11 9h1M23 9h1M10 10h2M18 10h1M11 11h1M9 13h1M19 13h1M7 14h1M6 16h1M8 18h1M13 18h1M17 19h1M7 20h1M9 20h1M20 20h2M23 20h1M6 21h1M12 21h1M14 21h1M16 21h1M19 22h1M10 23h1M15 23h1M11 24h1" />
<path stroke="#ad9cbd" d="M11 7h1M14 7h2M10 8h1M15 8h1M10 9h1M16 9h1M15 10h3M13 11h3M17 11h1M12 12h3M12 13h2M11 14h4M13 15h5M8 16h1M13 16h3M17 16h3M7 17h3M12 17h4M19 17h1M6 18h2M9 18h2M12 18h1M14 18h2M19 18h1M6 19h1M10 19h1M12 19h1M14 19h1M20 19h1M10 20h2M14 20h1M10 21h2M15 21h1M11 22h1" />
<path stroke="#6b5a7b" d="M11 8h1M12 9h1M19 9h4M12 10h1M20 10h1M20 11h2M20 12h3M21 13h1M21 14h3M23 21h1" />
</svg>