<svg xmlns="http://www.w3.org/2000/svg" viewBox="0 -0.5 30 30" shape-rendering="crispEdges">
<metadata>Made with Pixels to Svg https://codepen.io/shshaw/pen/XbxvNj</metadata>
<path stroke="#212121" d="M13 8h3M12 9h1M16 9h4M11 10h1M20 10h1M10 11h1M21 11h1M10 12h1M21 12h1M9 13h1M21 13h1M9 14h1M21 14h1M9 15h1M22 15h1M8 16h1M22 16h1M8 17h1M22 17h1M8 18h1M21 18h1M8 19h1M20 19h1M8 20h1M18 20h2M8 21h1M15 21h3M9 22h6" />
<path stroke="#ef735a" d="M13 9h3M12 10h1M16 10h4M11 11h1M19 11h2M12 12h2M20 12h1M11 13h4M20 13h1M13 14h2M20 14h1M13 15h2M21 15h1M13 16h5M14 17h5M17 18h2M17 19h2M17 20h1" />
<path stroke="#e64229" d="M13 10h2M12 11h6M15 12h4M15 13h5M15 14h5M16 15h5M19 16h2M19 17h3M19 18h2" />
<path stroke="#e65a42" d="M15 10h1M18 11h1M14 12h1M19 12h1M15 15h1M18 16h1M21 16h1M19 19h1" />
<path stroke="#ef9c94" d="M11 12h1M10 13h1M11 14h1M11 15h2M12 16h1M12 17h1M12 18h4M15 19h2M15 20h2" />
<path stroke="#f7cece" d="M10 14h1M10 15h1M9 16h1M11 16h1M11 18h1M11 19h2M14 19h1M9 21h1M14 21h1" />
<path stroke="#ef8c73" d="M12 14h1M13 17h1M16 18h1" />
<path stroke="#ffffff" d="M10 16h1M9 17h3M9 18h2M9 19h2M13 19h1M9 20h6M10 21h4" />
</svg>