<svg xmlns="http://www.w3.org/2000/svg" viewBox="0 -0.5 30 30" shape-rendering="crispEdges">
<metadata>Made with Pixels to Svg https://codepen.io/shshaw/pen/XbxvNj</metadata>
<path stroke="#4a4a4a" d="M10 7h1M18 7h1M9 8h1M11 8h1M17 8h1M19 8h1M9 9h1M11 9h1M17 9h1M19 9h1M8 10h1M11 10h1M17 10h1M20 10h1M8 11h1M11 11h1M17 11h1M20 11h1M8 12h1M20 12h1" />
<path stroke="#313131" d="M6 8h1M22 8h1M5 9h1M7 9h1M14 9h1M21 9h1M23 9h1M5 10h1M7 10h1M13 10h1M15 10h1M21 10h1M23 10h1M4 11h1M7 11h1M12 11h1M16 11h1M21 11h1M24 11h1M4 12h1M7 12h1M12 12h1M16 12h1M21 12h1M24 12h1M4 13h1M8 13h1M12 13h1M16 13h1M20 13h1M24 13h1M4 14h1M8 14h1M11 14h1M17 14h1M20 14h1M24 14h1M4 15h1M9 15h3M17 15h3M24 15h1M4 16h1M11 16h1M17 16h1M24 16h1M5 17h1M11 17h1M17 17h1M23 17h1M5 18h1M23 18h1M6 19h1M22 19h1M6 20h1M9 20h1M19 20h1M22 20h1M7 21h2M10 21h2M17 21h2M20 21h2M12 22h5" />
<path stroke="#5a7b7b" d="M10 8h1M18 9h1M10 11h1M13 11h1M15 11h1M19 11h1M6 13h1M22 13h1M6 14h2M21 14h2M5 15h1M7 15h2M20 15h2M23 15h1M8 16h2M12 16h1M16 16h1M19 16h2M12 17h2M15 17h2M22 17h1M7 18h1M14 18h1M9 19h1M15 19h1M13 20h1M16 20h1M15 21h1" />
<path stroke="#3a6363" d="M18 8h1M10 9h1M9 10h2M18 10h2M9 11h1M18 11h1M10 12h1M18 12h1M7 13h1M21 13h1M5 16h1M7 16h1M10 16h1M18 16h1M21 16h1M23 16h1M6 17h1M9 17h1M19 17h1M6 18h1M11 18h1M17 18h1M22 18h1M7 19h1M21 19h1M7 20h2M20 20h2M12 21h1M16 21h1" />
<path stroke="#c5c5bd" d="M6 9h1M14 10h1M5 11h1M14 11h1M23 12h1M13 15h1" />
<path stroke="#adadad" d="M22 9h1M6 10h1M22 10h1M23 11h1M5 12h1M14 12h1M14 13h2M14 14h1M14 15h2M14 16h1M14 17h1" />
<path stroke="#949c9c" d="M6 11h1M22 11h1M6 12h1M13 12h1M15 12h1M22 12h1M5 13h1M13 13h1M23 13h1M5 14h1M12 14h2M15 14h2M23 14h1M6 15h1M12 15h1M16 15h1M22 15h1M13 16h1M15 16h1M16 18h1M15 20h1" />
<path stroke="#31525a" d="M9 12h1M11 12h1M17 12h1M19 12h1M9 13h3M17 13h3M9 14h2M18 14h2M8 17h1M20 17h1M9 18h2M18 18h2" />
<path stroke="#426b6b" d="M6 16h1M22 16h1M7 17h1M10 17h1M18 17h1M21 17h1M8 18h1M12 18h2M15 18h1M20 18h2M8 19h1M10 19h5M16 19h5M10 20h3M14 20h1M17 20h2M13 21h2" />
</svg>