<svg xmlns="http://www.w3.org/2000/svg" viewBox="0 -0.5 30 30" shape-rendering="crispEdges">
<metadata>Made with Pixels to Svg https://codepen.io/shshaw/pen/XbxvNj</metadata>
<path stroke="#313131" d="M13 11h5M11 12h2M18 12h2M10 13h1M20 13h1M9 14h1M21 14h1M9 15h1M21 15h1M9 16h1M21 16h1M10 17h1M20 17h1M11 18h2M18 18h2M13 19h5" />
<path stroke="#ffce4a" d="M13 12h5M11 13h2M18 13h2M10 14h2M19 14h2M11 15h1M19 15h1" />
<path stroke="#efb519" d="M13 13h5M12 14h7M13 15h5" />
<path stroke="#ffe663" d="M10 15h1M20 15h1M11 16h2M18 16h2M13 17h5" />
<path stroke="#de9c19" d="M12 15h1M18 15h1M13 16h5" />
<path stroke="#ce8c10" d="M10 16h1M20 16h1M11 17h2M18 17h2M13 18h5" />
</svg>