<svg xmlns="http://www.w3.org/2000/svg" viewBox="0 -0.5 30 30" shape-rendering="crispEdges">
<metadata>Made with Pixels to Svg https://codepen.io/shshaw/pen/XbxvNj</metadata>
<path stroke="#313131" d="M14 11h2M12 12h2M16 12h2M10 13h2M18 13h2M8 14h2M20 14h2M7 15h1M22 15h1M8 16h2M20 16h2M10 17h2M18 17h2M12 18h2M16 18h2M14 19h2" />
<path stroke="#efdec5" d="M14 12h1M12 13h1M10 14h1M9 15h6" />
<path stroke="#946b5a" d="M15 12h1M17 13h1M19 14h1" />
<path stroke="#fff7de" d="M13 13h2M11 14h4" />
<path stroke="#bd9c84" d="M15 13h2M15 14h4" />
<path stroke="#9c7b63" d="M8 15h1M15 15h6M11 16h4M13 17h2" />
<path stroke="#845a42" d="M21 15h1M10 16h1M15 16h4M12 17h1M15 17h2M14 18h1" />
<path stroke="#734a31" d="M19 16h1M17 17h1M15 18h1" />
</svg>