<svg xmlns="http://www.w3.org/2000/svg" viewBox="0 -0.5 30 30" shape-rendering="crispEdges">
<metadata>Made with Pixels to Svg https://codepen.io/shshaw/pen/XbxvNj</metadata>
<path stroke="#313131" d="M13 2h3M12 3h1M16 3h2M11 4h1M18 4h1M11 5h1M19 5h1M10 6h1M20 6h3M10 7h1M23 7h2M8 8h2M25 8h1M6 9h2M26 9h1M4 10h2M27 10h1M3 11h1M27 11h2M2 12h1M27 12h2M2 13h1M27 13h2M1 14h1M27 14h1M1 15h1M26 15h1M28 15h1M2 16h1M25 16h2M28 16h1M3 17h7M23 17h2M26 17h1M28 17h1M2 18h1M5 18h2M8 18h1M21 18h3M2 19h1M8 19h1M19 19h2M22 19h1M24 19h3M2 20h1M9 20h1M17 20h2M20 20h1M22 20h1M3 21h1M7 21h1M10 21h8M4 22h3M9 22h1M12 22h2M15 22h1M17 22h2M21 22h1M9 23h1M15 23h1M18 23h3M9 24h1M10 25h1M14 25h1M11 26h3" />
<path stroke="#e6e6de" d="M13 3h3M12 4h1M16 4h1M12 5h1M17 5h1M11 6h1M17 6h2M11 7h1M17 7h2M20 7h3M10 8h1M17 8h1M19 8h1M23 8h1M8 9h2M17 9h1M19 9h1M24 9h1M6 10h2M16 10h1M18 10h1M24 10h2M4 11h2M15 11h2M18 11h1M24 11h2M3 12h2M13 12h2M17 12h1M24 12h2M5 13h1M9 13h4M15 13h2M24 13h1M3 14h3M9 14h2M13 14h2M23 14h2M3 15h7M11 15h2M22 15h2M4 16h4M10 16h2M20 16h3M12 17h1M16 17h6M10 18h3M16 18h4M10 19h8M11 20h5" />
<path stroke="#8c9494" d="M13 4h1M16 5h1M12 7h1M11 8h2M20 8h1M23 9h1M19 11h1M18 12h2M4 13h1M11 17h1M4 18h1M25 18h2M4 19h1M4 20h1M7 20h1M4 21h3M18 21h2M21 21h1M11 22h1M19 22h2M11 23h1M11 24h1M14 24h1M11 25h3" />
<path stroke="#636363" d="M14 4h1M18 8h1M21 8h1M11 9h4M16 9h1M18 9h1M9 10h6M17 10h1M7 11h8M17 11h1M5 12h8M15 12h2M6 13h3M13 13h2M18 13h4M6 14h3M11 14h2M16 14h6M26 14h1M10 15h1M14 15h8M9 16h1M12 16h8M13 17h3M25 17h1M27 17h1M7 18h1M13 18h3M24 18h1M27 18h1M7 19h1M5 20h1M19 20h1M21 20h1M20 21h1M14 23h1M12 24h1" />
<path stroke="#adadad" d="M15 4h1M17 4h1M18 5h1M12 6h1M19 6h1M22 8h1M24 8h1M10 9h1M25 9h1M8 10h1M19 10h1M26 10h1M6 11h1M26 11h1M26 12h1M3 13h1M17 13h1M25 13h2M2 14h1M15 14h1M25 14h1M2 15h1M13 15h1M24 15h1M3 16h1M8 16h1M23 16h1M10 17h1M22 17h1M3 18h1M9 18h1M20 18h1M3 19h1M9 19h1M18 19h1M3 20h1M10 20h1M16 20h1M10 22h1M10 23h1M10 24h1" />
<path stroke="#424a4a" d="M13 5h3M13 6h4M13 7h4M19 7h1M15 8h2M20 9h3M20 10h4M20 11h4M22 12h2M23 13h1M27 15h1M27 16h1M21 19h1M14 22h1" />
<path stroke="#31313a" d="M13 8h2M15 9h1M15 10h1M20 12h2M22 13h1M22 14h1" />
<path stroke="#524a4a" d="M25 15h1M24 16h1" />
<path stroke="#4a4a52" d="M5 19h2M6 20h1M22 21h1M12 23h2M13 24h1" />
</svg>