<svg xmlns="http://www.w3.org/2000/svg" viewBox="0 -0.5 30 30" shape-rendering="crispEdges">
<metadata>Made with Pixels to Svg https://codepen.io/shshaw/pen/XbxvNj</metadata>
<path stroke="#212121" d="M14 6h3M13 7h1M17 7h1M12 8h1M18 8h1M12 9h1M18 9h1M11 10h1M19 10h1M11 11h1M19 11h1M10 12h1M20 12h1M9 13h1M21 13h1M9 14h1M21 14h1M8 15h1M22 15h1M8 16h1M22 16h1M8 17h1M22 17h1M8 18h1M22 18h1M9 19h1M21 19h1M10 20h1M20 20h1M11 21h1M19 21h1M12 22h2M17 22h2M14 23h3" />
<path stroke="#9cf7f7" d="M14 7h3M14 8h3M13 9h5M13 10h5M12 11h4M18 11h1M12 12h3M11 13h3M18 13h2M10 14h4M17 14h4M10 15h3M18 15h3M9 16h3M19 16h3M9 17h3M19 17h3M10 18h2M19 18h2M10 19h3M18 19h3M12 20h2M17 20h2M12 21h7M14 22h3" />
<path stroke="#8cdede" d="M13 8h1M17 8h1M12 10h1M18 10h1M16 11h2M15 12h1M18 12h1M10 13h1M14 13h1M17 13h1M20 13h1M14 14h1M16 14h1M9 15h1M13 15h1M17 15h1M21 15h1M12 16h1M18 16h1M12 17h1M18 17h1M9 18h1M12 18h1M18 18h1M21 18h1M13 19h1M17 19h1M14 20h3" />
<path stroke="#5aada5" d="M11 12h1M19 12h1M11 20h1M19 20h1" />
<path stroke="#21ad3a" d="M16 12h2M15 13h2M15 14h1M14 15h3M13 16h5M13 17h5M13 18h5M14 19h3" />
</svg>