<svg xmlns="http://www.w3.org/2000/svg" viewBox="0 -0.5 30 30" shape-rendering="crispEdges">
<metadata>Made with Pixels to Svg https://codepen.io/shshaw/pen/XbxvNj</metadata>
<path stroke="#313131" d="M18 5h3M17 6h1M21 6h1M16 7h1M21 7h1M13 8h2M16 8h1M21 8h1M12 9h1M15 9h1M20 9h1M9 10h3M16 10h4M9 11h1M18 11h1M9 12h1M18 12h1M10 13h2M16 13h2M10 14h1M12 14h1M15 14h1M17 14h1M10 15h1M12 15h1M15 15h1M17 15h1M9 16h1M11 16h1M13 16h2M16 16h1M18 16h1M8 17h1M11 17h2M15 17h2M19 17h1M8 18h1M19 18h1M7 19h1M20 19h1M6 20h1M21 20h1M6 21h1M21 21h1M7 22h1M20 22h1M8 23h1M19 23h1M9 24h2M17 24h2M11 25h6" />
<path stroke="#4a4a4a" d="M18 6h3M17 7h1M20 7h1M17 8h1M20 8h1M16 9h1M19 9h1M11 14h1M16 14h1M11 15h1M16 15h1M12 16h1M15 16h1" />
<path stroke="#bd73c5" d="M13 9h2M13 10h2M10 11h1M13 11h2M17 11h1M11 12h1M13 12h2M16 12h1M10 17h1M13 17h2M17 17h1M9 18h1M12 18h4M18 18h1M9 19h1M12 19h4M18 19h1M9 20h10M11 21h6" />
<path stroke="#ad63b5" d="M12 10h1M15 10h1M10 18h1M17 18h1M8 19h1M10 19h2M16 19h2M19 19h1M8 20h1M19 20h1M10 21h1M17 21h1" />
<path stroke="#63427b" d="M11 11h1M16 11h1M12 12h1M15 12h1M13 13h2M9 23h1M18 23h1M11 24h1M16 24h1" />
<path stroke="#945aa5" d="M12 11h1M15 11h1M10 12h1M17 12h1M12 13h1M15 13h1M10 16h1M17 16h1M9 17h1M18 17h1M11 18h1M16 18h1M7 20h1M20 20h1M7 21h3M18 21h3M8 22h12M10 23h8M12 24h4" />
<path stroke="#f7d673" d="M13 14h2" />
<path stroke="#d6ad3a" d="M13 15h2" />
</svg>