<svg xmlns="http://www.w3.org/2000/svg" viewBox="0 -0.5 30 30" shape-rendering="crispEdges">
<metadata>Made with Pixels to Svg https://codepen.io/shshaw/pen/XbxvNj</metadata>
<path stroke="#313131" d="M12 6h6M10 7h2M18 7h2M9 8h1M20 8h1M8 9h1M21 9h1M7 10h1M22 10h1M7 11h1M22 11h1M6 12h1M23 12h1M6 13h1M23 13h1M6 14h1M23 14h1M6 15h1M23 15h1M6 16h1M23 16h1M6 17h1M23 17h1M7 18h1M22 18h1M7 19h1M22 19h1M8 20h1M21 20h1M9 21h1M20 21h1M10 22h2M18 22h2M12 23h6" />
<path stroke="#c5b53a" d="M12 7h3M11 8h3M17 8h2M12 9h2M18 9h2M8 10h1M13 10h1M19 10h1M8 11h1M13 11h1M7 12h1M12 12h1M7 13h1M11 13h1M17 14h2M11 15h1M16 15h2M14 16h3M15 17h1" />
<path stroke="#9cb552" d="M15 7h1M14 8h3M15 9h1M7 14h1M13 14h2M8 15h1M13 15h3M9 16h1" />
<path stroke="#4a9463" d="M16 7h2M10 8h1M9 9h1M14 9h1M14 10h2M14 11h6M8 12h2M13 12h7M9 13h2M12 13h7M10 14h3M15 14h2M12 15h1" />
<path stroke="#736300" d="M19 8h1M20 9h1M22 12h1M19 13h4M19 14h4M7 15h1M18 15h3M17 16h3M16 17h1" />
<path stroke="#6bb58c" d="M10 9h2M9 10h1M10 12h1" />
<path stroke="#ded67b" d="M16 9h2M12 10h1M16 10h3M9 11h1M12 11h1M11 12h1M8 13h1M8 14h2M9 15h2" />
<path stroke="#ffffff" d="M10 10h2M10 11h2M12 17h1M11 18h3M9 19h1M12 19h1M10 20h1" />
<path stroke="#637b19" d="M20 10h2M21 11h1M17 17h1" />
<path stroke="#105a31" d="M20 11h1M20 12h2M21 15h1M10 16h1M20 16h2" />
<path stroke="#4a6300" d="M22 15h1M8 16h1M18 17h1" />
<path stroke="#4a5252" d="M7 16h1M11 16h3M22 16h1M7 17h4M14 17h1M19 17h4M9 18h2M14 18h7M14 19h5" />
<path stroke="#a5a5c5" d="M11 17h1M13 17h1M11 19h1M13 19h1M21 19h1M20 20h1M10 21h1M18 21h2M12 22h6" />
<path stroke="#7b7b84" d="M8 18h1M21 18h1M10 19h1M19 19h1M11 20h3" />
<path stroke="#decef7" d="M8 19h1M20 19h1M9 20h1M14 20h6M11 21h7" />
</svg>