<svg xmlns="http://www.w3.org/2000/svg" viewBox="0 -0.5 30 30" shape-rendering="crispEdges">
<metadata>Made with Pixels to Svg https://codepen.io/shshaw/pen/XbxvNj</metadata>
<path stroke="#313131" d="M14 6h2M13 7h1M16 7h1M11 8h1M13 8h1M16 8h1M18 8h2M9 9h1M20 9h1M10 10h2M18 10h2M21 10h1M9 11h3M14 11h2M18 11h3M22 11h1M7 12h1M10 12h1M13 12h4M19 12h1M22 12h1M6 13h1M13 13h4M23 13h1M5 16h1M24 16h1M5 17h1M24 17h1M5 18h1M24 18h1M6 20h1M23 20h1M7 21h1M22 21h1M8 22h3M19 22h3M8 23h1M11 23h8M21 23h1M9 24h2M19 24h2" />
<path stroke="#315a9c" d="M12 7h1M17 7h1M10 8h1M8 10h1M7 11h1M8 13h1M21 13h1M6 14h1M23 14h1M5 15h1M14 15h2M24 15h1M5 19h1M24 19h1M8 21h2M20 21h2M11 22h8M9 23h2M19 23h2" />
<path stroke="#c5def7" d="M14 7h2M14 8h2M11 9h2M17 9h2M12 10h6M13 11h1M16 11h1M8 14h1M21 14h1M9 15h2M19 15h2M7 16h1M11 16h8M22 16h1M8 17h1M21 17h1M9 18h1M13 18h4M20 18h1M12 19h1M17 19h1" />
<path stroke="#84c5ff" d="M12 8h1M17 8h1M8 11h1M9 12h1M10 13h2M7 14h1M22 14h1M10 17h1M12 17h1M17 17h1M19 17h1" />
<path stroke="#adc5de" d="M10 9h1M13 9h1M16 9h1M19 9h1M9 10h1M20 10h1M12 11h1M17 11h1M11 12h2M17 12h2M7 13h1M12 13h1M17 13h1M22 13h1M8 15h1M21 15h1M6 16h1M9 16h2M19 16h2M23 16h1M11 17h1M18 17h1M6 19h1M9 19h1M20 19h1M23 19h1M7 20h2M12 20h1M17 20h1M21 20h2M13 21h4" />
<path stroke="#736331" d="M14 9h2" />
<path stroke="#63a5f7" d="M21 11h1M8 12h1M20 12h1M9 13h1M18 13h3M11 14h8M6 15h2M22 15h2M8 16h1M21 16h1M7 17h1M9 17h1M13 17h4M20 17h1M22 17h1M7 18h2M10 18h1M12 18h1M17 18h1M19 18h1M21 18h2M10 19h2M13 19h4M18 19h2" />
<path stroke="#4a73c5" d="M21 12h1M9 14h2M19 14h2M11 15h3M16 15h3M6 17h1M23 17h1M6 18h1M11 18h1M18 18h1M23 18h1M7 19h2M21 19h2M9 20h3M13 20h4M18 20h3M10 21h3M17 21h3" />
</svg>