<svg xmlns="http://www.w3.org/2000/svg" viewBox="0 -0.5 30 30" shape-rendering="crispEdges">
<metadata>Made with Pixels to Svg https://codepen.io/shshaw/pen/XbxvNj</metadata>
<path stroke="#313131" d="M16 7h5M14 8h2M21 8h2M13 9h1M23 9h1M12 10h1M24 10h1M11 11h1M11 12h1M25 12h1M10 13h1M25 13h1M8 14h2M25 14h1M7 15h1M24 15h1M6 16h1M23 16h1M6 17h1M21 17h2M7 18h1M18 18h3M6 19h3M17 19h1M5 20h1M18 20h1M5 21h1M10 21h2M19 21h2M5 22h1M10 22h1M12 22h3M5 23h1M10 23h1M6 24h4" />
<path stroke="#c5ad00" d="M16 8h5M20 9h3M22 10h2M12 11h1M23 11h2M16 12h1M23 12h2M14 13h1M22 13h3M14 14h2M18 14h1M21 14h4M17 15h1M19 15h5M18 16h5M18 17h3" />
<path stroke="#e6de10" d="M14 9h1M19 9h1M13 10h1M20 10h2M13 11h1M16 11h1M21 11h2M15 12h1M20 12h3M12 13h2M16 13h1M18 13h4M13 14h1M17 14h1M19 14h2M12 15h3M18 15h1M13 16h1M16 17h1M16 18h1M16 19h1" />
<path stroke="#ffff9c" d="M15 9h4M14 10h6M14 11h2M17 11h4M17 12h3M17 13h1M10 14h3M15 15h1M14 16h3M15 17h1" />
<path stroke="#5a4a10" d="M25 11h1M12 12h3M11 13h1M15 13h1M16 14h1M10 15h2M16 15h1M12 16h1M17 16h1M13 17h2M17 17h1M15 18h1M17 18h1M16 20h1M16 21h1M15 22h1" />
<path stroke="#ad9400" d="M8 15h2M7 16h2M7 17h2M8 18h2M9 19h1M15 21h1" />
<path stroke="#634229" d="M9 16h1M9 17h1M12 17h1M10 18h2M10 19h1M10 20h1M15 20h1M14 21h1" />
<path stroke="#8c5229" d="M10 16h2M10 17h2M14 18h1M15 19h1M6 20h1M9 20h1M6 23h1M9 23h1" />
<path stroke="#bd6b21" d="M12 18h2M11 19h1M13 19h2M7 20h2M11 20h4M6 21h1M8 21h2M12 21h2M6 22h4M7 23h2" />
<path stroke="#ffe69c" d="M12 19h1M7 21h1" />
</svg>