<svg xmlns="http://www.w3.org/2000/svg" viewBox="0 -0.5 30 30" shape-rendering="crispEdges">
<metadata>Made with Pixels to Svg https://codepen.io/shshaw/pen/XbxvNj</metadata>
<path stroke="#7b8c8c" d="M20 7h1M19 8h1M18 9h1M25 9h1M22 15h1M15 20h1" />
<path stroke="#4a4a4a" d="M21 7h1M15 8h2M10 9h1M19 9h1M8 10h1M18 10h1M25 10h1M7 11h1M18 11h1M6 12h1M5 14h1M20 14h1M5 15h1M23 15h1M5 16h1M5 17h1M17 18h1M6 19h1M16 19h1M18 19h1M21 19h1M5 20h1M7 20h1M18 20h1M8 21h1M16 21h2M10 22h6M17 23h1M10 24h1" />
<path stroke="#313131" d="M22 7h2M17 8h1M24 8h1M11 9h4M9 10h1M20 10h1M21 11h1M25 11h1M22 12h1M25 12h1M6 13h1M22 13h1M25 13h1M22 14h1M24 14h1M21 15h1M21 16h1M21 17h1M5 18h2M18 18h1M21 18h1M5 19h1M7 19h1M17 19h1M8 20h2M16 20h2M20 20h1M6 21h1M9 21h7M20 21h1M7 22h1M19 22h1M8 23h2M18 23h1M11 24h6" />
<path stroke="#9ccec5" d="M15 9h1M17 11h1M19 11h1M18 12h1M19 13h2M21 14h1" />
<path stroke="#e6e6e6" d="M16 9h2M10 10h1M15 10h1M8 11h1M7 12h1M17 12h1M19 12h1M15 13h2M6 14h1M9 14h1M14 14h1M19 14h1M13 15h1M18 15h1M12 16h1M19 16h1M11 17h1M18 17h1M20 17h1M11 18h1M16 18h1M19 18h1M15 19h1M12 20h3M7 21h1" />
<path stroke="#ffffde" d="M11 10h1M17 10h1M9 11h1M16 11h1M8 12h1M12 12h3M16 12h1M20 12h1M7 13h1M10 13h2M10 14h1M18 14h1M6 15h1M9 15h1M16 15h1M9 16h1M15 16h2M8 17h1M14 17h1M8 18h1M10 18h1M13 18h1M20 18h1M9 19h1M19 19h1M11 20h1M18 21h1M8 22h2M16 22h1M10 23h3" />
<path stroke="#ffffff" d="M12 10h2M10 11h1M12 13h2M7 14h1M11 14h3M10 15h3M17 15h1M10 16h2M17 16h1M7 17h1M9 17h2M15 17h1M9 18h1M14 18h1M13 19h1M19 20h1M17 22h1M13 23h3" />
<path stroke="#d6f7ef" d="M14 10h1M15 12h1M14 13h1M19 15h1M6 16h1M18 16h1M17 17h1M7 18h1M15 18h1M8 19h1M14 19h1M10 20h1" />
<path stroke="#a5b5b5" d="M16 10h1M19 10h1M11 11h2M20 11h1M9 12h2M21 12h1M8 13h1M17 13h1M21 13h1M8 14h1M15 14h2M7 15h1M14 15h1M20 15h1M13 16h1M20 16h1M6 17h1M12 17h1M12 18h1M11 19h1M6 20h1" />
<path stroke="#cecec5" d="M13 11h1M7 16h1M20 19h1" />
<path stroke="#efd6d6" d="M14 11h2M11 12h1M9 13h1M18 13h1M17 14h1M8 15h1M15 15h1M8 16h1M14 16h1M13 17h1M16 17h1M10 19h1M12 19h1" />
<path stroke="#a5a5a5" d="M19 17h1M19 21h1M18 22h1M16 23h1" />
</svg>