<svg xmlns="http://www.w3.org/2000/svg" viewBox="0 -0.5 30 30" shape-rendering="crispEdges">
<metadata>Made with Pixels to Svg https://codepen.io/shshaw/pen/XbxvNj</metadata>
<path stroke="#313131" d="M12 5h6M7 6h5M18 6h2M6 7h1M20 7h1M5 8h1M21 8h2M5 9h1M23 9h1M4 10h1M24 10h1M4 11h1M25 11h1M4 12h1M25 12h1M4 13h1M25 13h1M4 14h1M25 14h1M4 15h1M25 15h1M4 16h1M25 16h1M4 17h1M25 17h1M4 18h1M25 18h1M5 19h1M25 19h1M5 20h1M24 20h1M6 21h1M24 21h1M7 22h3M23 22h1M10 23h1M22 23h1M11 24h3M20 24h2M14 25h6" />
<path stroke="#c57352" d="M12 6h1M17 6h1M9 7h1M11 7h1M19 7h1M8 8h1M10 8h1M20 8h1M7 9h2M22 9h1M6 10h1M21 10h1M23 10h1M19 11h1M24 11h1M19 12h1M8 13h1M11 14h1M21 14h1M6 15h5M20 15h1M23 15h2M10 16h2M16 16h1M19 16h1M22 16h2M9 17h2M20 17h1M23 17h1M8 18h1M10 18h1M17 18h3M12 19h1M17 19h3M24 19h1M13 20h1M18 20h1M22 20h1M15 21h1" />
<path stroke="#e6a573" d="M13 6h3M12 7h1M15 7h2M18 7h1M11 8h1M15 8h2M18 8h2M11 9h1M14 9h3M18 9h2M5 10h1M10 10h6M17 10h1M19 10h1M8 11h1M10 11h5M17 11h2M7 12h1M11 12h4M16 12h3M23 12h1M11 13h7M24 13h1M12 14h4M5 15h1M9 16h1M24 16h1M8 17h1M14 17h1M24 17h1M14 18h2M22 18h1M7 19h1M13 19h1M15 19h1M21 19h1M7 20h1M17 21h2M13 22h1M12 23h1" />
<path stroke="#d68c6b" d="M16 6h1M17 7h1M17 8h1M10 9h1M17 9h1M20 9h1M16 10h1M18 10h1M20 10h1M15 11h2M20 11h2M8 12h1M10 12h1M15 12h1M20 12h2M6 13h2M18 13h4M23 13h1M16 14h5M13 15h7M17 16h2M15 17h1M12 18h1M6 19h1M22 19h1M14 20h1M21 20h1M11 21h2M11 22h2M19 23h1M19 24h1" />
<path stroke="#ffc5a5" d="M7 7h1M13 7h2M6 8h1M12 8h3M12 9h2M7 11h1M6 12h1M5 13h1M6 16h1M7 17h1M13 17h1M13 18h1M21 18h1M14 19h1M15 20h1" />
<path stroke="#de8c63" d="M8 7h1M7 8h1M6 9h1M5 11h1M9 18h1M24 18h1M17 20h1M19 20h1" />
<path stroke="#8c5a3a" d="M10 7h1M9 9h1M7 10h2M6 11h1M9 11h1M23 11h1M5 12h1M22 12h1M24 12h1M22 13h1M9 14h1M22 14h1M12 16h4M20 16h1M11 17h1M19 17h1M21 17h1M7 18h1M16 18h1M20 18h1M8 19h3M16 19h1M16 20h1M23 21h1M10 22h1M11 23h1" />
<path stroke="#523a29" d="M9 8h1M21 9h1M9 10h1M22 10h1M22 11h1M9 12h1M9 13h1M5 14h4M10 14h1M23 14h2M11 15h1M22 15h1M21 16h1M12 17h1M16 17h3M22 17h1M11 18h1M23 18h1M11 19h1M20 19h1M23 19h1M12 20h1M20 20h1M23 20h1M13 21h2M16 21h1M21 21h2M15 22h1M20 23h1" />
<path stroke="#ad6342" d="M10 13h1M12 15h1M21 15h1M5 16h1M7 16h2M5 17h2M5 18h2M6 20h1M9 20h3M7 21h1M9 21h2M19 22h1M21 22h2M13 23h1M15 23h4M21 23h1M16 24h3" />
<path stroke="#73523a" d="M8 20h1M8 21h1M19 21h2M14 22h1M16 22h3M20 22h1M14 23h1M14 24h2" />
</svg>