<svg xmlns="http://www.w3.org/2000/svg" viewBox="0 -0.5 30 30" shape-rendering="crispEdges">
<metadata>Made with Pixels to Svg https://codepen.io/shshaw/pen/XbxvNj</metadata>
<path stroke="#314a4a" d="M13 4h1M16 4h1M12 5h1M17 5h1M12 8h1M17 8h1M11 9h1M14 9h2M18 9h1M12 13h1M17 13h1M13 14h1M16 14h1M10 22h1M19 22h1M10 23h1M19 23h1" />
<path stroke="#313131" d="M14 4h2M12 6h1M17 6h1M12 7h1M17 7h1M11 10h1M18 10h1M11 11h1M18 11h1M11 12h1M18 12h1M11 14h1M18 14h1M19 15h1M10 16h1M19 16h1M10 17h1M19 17h1M10 18h1M19 18h1M10 19h1M19 19h1M10 20h1M19 20h1M10 21h1M19 21h1M11 24h1M18 24h1M12 25h6" />
<path stroke="#529cce" d="M13 5h1M13 7h3M13 8h2" />
<path stroke="#bdd6ff" d="M14 5h1M12 12h1M17 12h1M13 21h1M13 22h1" />
<path stroke="#84ceff" d="M15 5h1M13 6h1M16 6h1" />
<path stroke="#3a84b5" d="M16 5h1M14 6h1M16 7h1M15 8h2" />
<path stroke="#5a7b7b" d="M15 6h1M13 9h1M16 9h1M15 12h1M14 13h2M10 15h1M17 15h1M11 23h1M18 23h1M12 24h1M14 24h4" />
<path stroke="#bdeff7" d="M12 9h1M17 9h1M13 10h2M12 11h2M17 11h1M14 12h1M12 14h1M17 14h1M13 15h3M13 16h1" />
<path stroke="#8cbdc5" d="M12 10h1M15 10h3M14 11h3M13 12h1M16 12h1M13 13h1M16 13h1M14 14h2M12 15h1M16 15h1M14 16h2M13 24h1" />
<path stroke="#efe6e6" d="M11 15h1M12 16h1M12 17h1M14 17h4M12 18h1M14 18h2M17 18h1M12 19h1M14 19h1M16 19h1M15 20h1M17 20h1M12 21h1M14 21h1M16 21h1" />
<path stroke="#c5b5b5" d="M18 15h1M11 16h1M17 16h2M11 17h1M18 17h1M11 18h1M18 19h1M11 20h1M18 20h1" />
<path stroke="#ffffff" d="M16 16h1M13 17h1M13 18h1M13 19h1M13 20h1" />
<path stroke="#9cceef" d="M16 18h1M15 19h1M17 19h1M12 20h1M14 20h1M16 20h1M15 21h1M17 21h1M12 22h1M14 22h4M13 23h1" />
<path stroke="#6bbde6" d="M18 18h1M11 19h1M11 21h1M18 21h1M11 22h1M18 22h1M12 23h1M14 23h4" />
</svg>