<svg xmlns="http://www.w3.org/2000/svg" viewBox="0 -0.5 30 30" shape-rendering="crispEdges">
<metadata>Made with Pixels to Svg https://codepen.io/shshaw/pen/XbxvNj</metadata>
<path stroke="#313131" d="M15 6h2M15 7h1M17 7h2M15 8h1M19 8h2M15 9h1M21 9h2M23 10h1M14 11h1M23 11h1M14 12h1M23 12h1M13 13h1M23 13h1M23 14h1M12 15h1M23 15h1M11 16h1M22 16h1M10 17h1M22 17h1M9 18h1M21 18h1M8 19h1M21 19h1M20 20h1M8 21h1M19 21h1M9 22h2M18 22h1M11 23h2M17 23h1M13 24h3" />
<path stroke="#9c9c9c" d="M16 7h1M17 8h2M16 9h1M19 9h2M17 10h2M21 10h2M19 11h2M17 12h2M21 12h2M14 13h1M19 13h1M13 15h1M21 17h1" />
<path stroke="#525252" d="M16 8h1M17 9h2M15 10h2M19 10h2M15 11h4M21 11h2M15 12h1M19 12h2M16 13h3M20 13h3M13 14h1M15 14h1M19 14h1M21 14h2M17 15h1M19 15h1M21 15h2M19 16h1M7 20h1M16 23h1" />
<path stroke="#cecece" d="M16 12h1M15 13h1M14 14h1M20 14h1M14 15h1M20 15h1M20 16h2M11 17h1M19 17h2M10 18h2M15 18h1M9 19h5M8 20h2M14 20h1M10 21h4M15 21h2M18 21h1M11 22h3M15 22h3M14 23h2" />
<path stroke="#c56363" d="M16 14h3M18 15h1" />
<path stroke="#949494" d="M15 15h1M12 16h2M15 16h1M12 17h3M16 17h3M14 18h1M19 18h2M15 19h6M17 20h3" />
<path stroke="#f79494" d="M16 15h1M16 16h3" />
<path stroke="#ffffff" d="M14 16h1M15 17h1M12 18h2M16 18h3M14 19h1M10 20h4M15 20h2M9 21h1M14 21h1M17 21h1M14 22h1M13 23h1" />
</svg>