<svg xmlns="http://www.w3.org/2000/svg" viewBox="0 -0.5 30 30" shape-rendering="crispEdges">
<metadata>Made with Pixels to Svg https://codepen.io/shshaw/pen/XbxvNj</metadata>
<path stroke="#313131" d="M12 9h6M10 10h1M18 10h1M9 11h1M19 11h1M19 12h1M8 13h1M19 13h1M8 14h1M19 14h1M8 15h1M18 15h1M8 16h1M18 16h2M8 17h1M17 17h1M20 17h1M8 18h1M16 18h1M20 18h1M9 19h1M14 19h2M20 19h1M10 20h4M15 20h1M19 20h1M16 21h3" />
<path stroke="#d63a21" d="M11 10h1M18 11h1M9 12h1M18 12h1M18 13h1M17 14h2M17 15h1M16 16h2M15 17h2M13 18h3M10 19h4" />
<path stroke="#ffa584" d="M12 10h1M10 11h6M10 12h6M9 13h5M10 14h4M11 15h3M11 16h1" />
<path stroke="#f7e663" d="M13 10h2M14 13h1M9 14h1M14 14h1M9 15h2M10 16h1" />
<path stroke="#efd64a" d="M15 10h1M15 13h2M15 14h2M14 15h3M9 16h1M9 17h1" />
<path stroke="#ff735a" d="M16 10h2M16 11h2M16 12h2M17 13h1M12 16h4M10 17h5M9 18h4" />
<path stroke="#b5a5a5" d="M18 17h1M17 18h1M16 19h1" />
<path stroke="#decece" d="M19 17h1M18 18h1M17 19h1M16 20h1" />
<path stroke="#efdede" d="M19 18h1M18 19h2M17 20h2" />
</svg>