<svg xmlns="http://www.w3.org/2000/svg" viewBox="0 -0.5 30 30" shape-rendering="crispEdges">
<metadata>Made with Pixels to Svg https://codepen.io/shshaw/pen/XbxvNj</metadata>
<path stroke="#212121" d="M14 8h2M12 9h2M16 9h2M5 10h1M10 10h2M18 10h2M24 10h1M4 11h1M6 11h1M8 11h2M20 11h2M23 11h1M25 11h1M3 12h1M7 12h1M22 12h1M26 12h1M2 13h1M27 13h1M1 14h1M28 14h1M2 15h1M27 15h1M3 16h1M7 16h1M22 16h1M26 16h1M4 17h1M6 17h1M8 17h2M20 17h2M23 17h1M25 17h1M5 18h1M10 18h2M18 18h2M24 18h1M12 19h2M16 19h2M14 20h2" />
<path stroke="#fff7ce" d="M14 9h1M15 10h2M15 11h4M6 12h1M16 12h1M18 12h3M25 12h1M6 13h2M17 13h5M25 13h2M5 15h1M24 15h1M5 16h1M24 16h1M5 17h1M24 17h1" />
<path stroke="#e6dead" d="M15 9h1M17 10h1M19 11h1M21 12h1" />
<path stroke="#ffffe6" d="M12 10h1M10 11h1M8 12h1M2 14h3M6 14h3M21 14h3M25 14h3" />
<path stroke="#ffffef" d="M13 10h2M5 11h1M11 11h3M24 11h1M4 12h2M9 12h3M13 12h1M23 12h2M3 13h3M8 13h5M22 13h3M5 14h1M9 14h1M24 14h1" />
<path stroke="#b5b5ad" d="M14 11h1M12 12h1M14 12h1M13 13h2M10 14h5" />
<path stroke="#b5b594" d="M15 12h1M17 12h1M15 13h2" />
<path stroke="#9c9473" d="M15 14h5M13 15h2M12 16h1M14 16h1" />
<path stroke="#dece9c" d="M20 14h1M3 15h2M8 15h5M22 15h2M4 16h1M9 16h3M13 16h1M23 16h1M11 17h4M13 18h2" />
<path stroke="#b59c63" d="M6 15h2M17 15h5M25 15h2M6 16h1M8 16h1M16 16h1M18 16h3M25 16h1M10 17h1M16 17h3M12 18h1M15 18h2M14 19h1" />
<path stroke="#847352" d="M15 15h2M15 16h1M17 16h1M15 17h1" />
<path stroke="#a58442" d="M21 16h1M19 17h1M17 18h1M15 19h1" />
</svg>