<svg xmlns="http://www.w3.org/2000/svg" viewBox="0 -0.5 30 30" shape-rendering="crispEdges">
<metadata>Made with Pixels to Svg https://codepen.io/shshaw/pen/XbxvNj</metadata>
<path stroke="#313131" d="M14 5h6M12 6h2M20 6h2M10 7h2M22 7h1M9 8h1M23 8h1M8 9h1M23 9h1M7 10h1M24 10h1M7 11h1M24 11h1M6 12h1M14 12h2M24 12h1M6 13h1M13 13h1M16 13h1M24 13h1M5 14h1M12 14h1M16 14h1M24 14h1M5 15h1M12 15h1M15 15h1M24 15h1M5 16h1M13 16h2M23 16h1M5 17h1M23 17h1M5 18h1M22 18h1M5 19h1M22 19h1M6 20h1M21 20h1M6 21h1M20 21h1M7 22h1M18 22h2M8 23h2M16 23h2M10 24h6" />
<path stroke="#73b5ef" d="M14 6h1M10 8h2M10 9h2M11 10h2M12 11h1M6 15h4" />
<path stroke="#b5d6f7" d="M15 6h1M14 7h1M14 8h1M14 9h1M21 9h2M19 10h2M18 11h1M11 14h1M9 17h1M8 18h1M15 19h1M15 20h1M16 21h1" />
<path stroke="#eff7f7" d="M16 6h2M15 7h1M19 7h1M15 8h1M19 8h1M15 9h1M18 9h1M15 10h3M12 16h1M10 18h1M9 19h1M13 19h1M8 20h1M13 20h1M9 21h1M13 21h1M11 22h3" />
<path stroke="#cee6f7" d="M18 6h1M20 7h1M20 8h2M19 9h2M18 10h1M14 11h2M17 11h1M11 15h1M11 16h1M10 17h1M12 17h2M9 18h1M8 19h1M14 19h1M7 20h1M14 20h1M8 21h1M14 21h2M10 22h1M14 22h1" />
<path stroke="#8cc5ef" d="M19 6h1M12 7h1M21 7h1M12 8h1M22 8h1M12 9h1M13 10h1M10 15h1M6 16h3M13 18h2M6 19h1" />
<path stroke="#a5cef7" d="M13 7h1M13 8h1M13 9h1M14 10h1M13 11h1M16 11h1M12 12h1M11 13h1M9 16h2M6 17h3M11 17h1M14 17h1M6 18h2M12 18h1M7 19h1" />
<path stroke="#ffffff" d="M16 7h3M16 8h3M16 9h2M11 18h1M10 19h3M9 20h4M10 21h3" />
<path stroke="#5aadef" d="M9 9h1M9 10h2M10 11h2M11 12h1M13 12h1M12 13h1M6 14h5" />
<path stroke="#4aa5ef" d="M8 10h1M8 11h2M7 12h4M7 13h4" />
<path stroke="#7b7b94" d="M21 10h2M19 11h2M17 12h2M23 14h1M22 16h1M15 17h1M21 17h1M15 18h1M21 18h1M16 19h1M20 19h1M16 20h1M19 20h1M7 21h1M18 21h1M9 22h1M15 22h2M11 23h4" />
<path stroke="#63637b" d="M23 10h1M16 12h1M23 15h1M22 17h1M21 19h1M20 20h1M17 21h1M19 21h1M8 22h1M17 22h1M10 23h1M15 23h1" />
<path stroke="#84adb5" d="M21 11h2M19 12h4M18 13h2M21 13h2M17 14h2M21 14h1M16 15h5M15 16h5M16 17h2M19 17h1M16 18h4M17 19h2M17 20h1" />
<path stroke="#6b8c8c" d="M23 11h1M23 12h1M17 13h1M20 13h1M23 13h1M19 14h2M22 15h1M21 16h1M18 17h1" />
<path stroke="#a5bdc5" d="M22 14h1M21 15h1M20 16h1M20 17h1M20 18h1M19 19h1M18 20h1" />
</svg>