<svg xmlns="http://www.w3.org/2000/svg" viewBox="0 -0.5 30 30" shape-rendering="crispEdges">
<metadata>Made with Pixels to Svg https://codepen.io/shshaw/pen/XbxvNj</metadata>
<path stroke="#313131" d="M14 4h2M13 5h1M16 5h1M13 6h1M16 6h1M13 7h1M15 7h1M11 8h2M16 8h2M10 9h1M18 9h1M9 10h1M19 10h1M9 11h1M19 11h1M8 12h1M20 12h1M7 13h1M21 13h1M7 14h1M21 14h1M6 15h1M22 15h1M5 16h1M23 16h1M5 17h1M23 17h1M5 18h1M23 18h1M6 19h1M22 19h1M7 20h1M21 20h1M7 21h1M21 21h1M8 22h1M20 22h1M9 23h3M17 23h3M12 24h5" />
<path stroke="#d65a84" d="M14 5h2M14 6h1M13 8h1M15 8h1M12 9h5M11 10h1M14 10h4M10 11h2M14 11h5M10 12h9M11 13h7M13 14h3" />
<path stroke="#c5315a" d="M15 6h1M14 7h1M11 9h1M17 9h1M10 13h1M18 13h1M11 14h2M16 14h2M11 15h7M13 16h3" />
<path stroke="#8c294a" d="M14 8h1M10 10h1M18 10h1M9 12h1M19 12h1M9 13h1M19 13h1M10 14h1M18 14h1M10 15h1M18 15h1M11 16h2M16 16h2M13 17h3" />
<path stroke="#ff94bd" d="M12 10h2M12 11h2" />
<path stroke="#efcec5" d="M8 13h1M20 13h1M6 16h1M9 16h1M18 16h1M20 16h1M22 16h1M6 17h1M11 17h1M17 17h1M19 17h1M22 17h1M6 18h2M13 18h1M15 18h1M21 18h2M7 19h1M9 19h1M20 19h1M8 20h1M11 20h1M13 20h1M19 20h2M8 21h1M10 21h3M16 21h1M18 21h3M9 22h1M11 22h2M14 22h4M19 22h1M12 23h2M15 23h2" />
<path stroke="#ffffff" d="M8 14h1M20 14h1M7 15h2M20 15h2M7 16h1M10 16h1M21 16h1M7 17h1M9 17h2M18 17h1M21 17h1M9 18h3M14 18h1M17 18h3M10 19h2M13 19h3M17 19h3M10 20h1M14 20h3M18 20h1M14 21h2" />
<path stroke="#bd8484" d="M9 14h1M19 14h1" />
<path stroke="#deb5b5" d="M9 15h1M19 15h1M8 16h1M19 16h1M8 17h1M12 17h1M16 17h1M20 17h1M8 18h1M12 18h1M16 18h1M20 18h1M8 19h1M12 19h1M16 19h1M21 19h1M9 20h1M12 20h1M17 20h1M9 21h1M13 21h1M17 21h1M10 22h1M13 22h1M18 22h1M14 23h1" />
</svg>