<svg xmlns="http://www.w3.org/2000/svg" viewBox="0 -0.5 30 30" shape-rendering="crispEdges">
<metadata>Made with Pixels to Svg https://codepen.io/shshaw/pen/XbxvNj</metadata>
<path stroke="#5a5a5a" d="M17 4h1M21 4h1M14 7h1M24 7h1M24 11h1M21 14h1" />
<path stroke="#313131" d="M18 4h3M16 5h1M22 5h1M15 6h1M23 6h1M14 8h1M24 8h1M14 9h1M24 9h1M14 10h1M24 10h1M13 11h1M12 12h1M23 12h1M11 13h1M22 13h1M11 14h1M18 14h3M10 15h1M17 15h1M9 16h1M16 16h1M8 17h1M14 17h2M7 18h1M13 18h1M6 19h1M14 19h1M5 20h1M11 20h1M15 20h1M4 21h1M10 21h1M12 21h1M14 21h1M4 22h1M11 22h1M13 22h1M4 23h1M8 23h1M12 23h1M5 24h3M9 24h1M11 24h1M10 25h1" />
<path stroke="#c57b19" d="M17 5h1M21 5h1M15 7h1M23 7h1M23 11h1M18 13h1M21 13h1" />
<path stroke="#f79c10" d="M18 5h3M16 6h1M22 6h1M15 8h1M23 8h1M15 9h1M23 9h1M15 10h2M22 10h2M16 11h2M21 11h2M17 12h6M19 13h2" />
<path stroke="#ffffff" d="M17 6h3M17 7h3M17 8h3" />
<path stroke="#ffd64a" d="M20 6h2M16 7h1M20 7h3M16 8h1M20 8h3M16 9h7M17 10h5M18 11h3" />
<path stroke="#a5adce" d="M14 11h1M12 13h1M16 13h1M16 14h1M12 15h1M14 15h2M12 16h1M11 17h1M10 18h2M9 19h1M8 20h1M7 21h2M6 22h1M5 23h1" />
<path stroke="#4a527b" d="M15 11h1M16 12h1M17 13h1M12 14h1M15 14h1M13 15h1M16 15h1M14 16h1M13 17h1M10 20h1M14 20h1M13 21h1M7 23h1M11 23h1M10 24h1" />
<path stroke="#737b9c" d="M13 12h1M14 13h1M17 14h1M13 16h1M15 16h1M12 17h1M10 19h1M9 20h1M13 20h1M7 22h1M6 23h1M10 23h1" />
<path stroke="#f7ffff" d="M14 12h2M13 13h1M15 13h1M13 14h2M11 15h1M10 16h1M9 17h1M8 18h1M7 19h1M6 20h1M5 21h1" />
<path stroke="#c5c5e6" d="M11 16h1M10 17h1M9 18h1M12 18h1M8 19h1M11 19h3M7 20h1M12 20h1M6 21h1M9 21h1M5 22h1M8 22h3M9 23h1" />
</svg>