<svg xmlns="http://www.w3.org/2000/svg" viewBox="0 -0.5 68 56" shape-rendering="crispEdges">
<metadata>Made with Pixels to Svg https://codepen.io/shshaw/pen/XbxvNj</metadata>
<path stroke="#f2a56d" d="M30 31h1M29 32h3M28 33h2M31 33h2M28 34h1M32 34h1M26 35h3M32 35h3M24 36h3M34 36h3M23 37h2M36 37h2M22 38h2M37 38h2M22 39h1M38 39h2M22 40h1M38 40h1M40 40h3M22 41h1M38 41h2M41 41h3M18 42h3M22 42h1M38 42h3M42 42h2M17 43h2M20 43h3M38 43h2M17 44h1M21 44h2M38 44h3M17 45h1M21 45h2M38 45h1M40 45h3M17 46h1M21 46h2M33 46h1M38 46h1M41 46h2M17 47h1M21 47h2M33 47h2M37 47h2M17 48h1M36 48h2M17 49h2M26 49h2M35 49h2M18 50h2M24 50h5M31 50h5M19 51h6M28 51h4" />
<path stroke="#000000" d="M30 33h1M29 34h1M31 34h1M29 35h1M31 35h1M27 36h2M32 36h2M25 37h2M34 37h2M24 38h1M36 38h1M23 39h1M37 39h1M23 40h1M37 40h1M23 41h1M37 41h1M23 42h1M37 42h1M19 43h1M23 43h1M37 43h1M18 44h1M20 44h1M23 44h1M37 44h1M18 45h1M20 45h1M23 45h1M37 45h1M18 46h1M20 46h1M23 46h1M37 46h1M18 47h1M20 47h1M23 47h1M36 47h1M18 48h1M21 48h2M26 48h2M35 48h1M19 49h1M24 49h2M28 49h1M31 49h4M20 50h4M29 50h2" />
<path stroke="#ff493a" d="M30 34h1M30 35h1M29 36h3M27 37h1M29 37h3M33 37h1M25 38h9M35 38h1M27 39h3M32 39h2M35 39h1M29 40h3M33 40h2M28 41h2M32 41h3M28 42h2M33 42h2M36 42h1M28 43h2M33 43h2M29 44h2M35 44h2M28 45h1M36 45h1M28 46h3M36 46h1M28 47h3M29 48h2" />
<path stroke="#414141" d="M28 37h1M32 37h1M24 42h1M25 43h2M27 44h2M33 44h2M32 45h4M24 46h2M31 46h2M35 46h1M24 47h1M26 47h1M31 47h2M35 47h1M32 48h2" />
<path stroke="#f1273d" d="M34 38h1M24 39h3M30 39h2M34 39h1M24 40h5M32 40h1M24 41h4M25 42h3M24 43h1M27 43h1M19 44h1M24 44h3M19 45h1M24 45h4M26 46h2M19 47h1M25 47h1M27 47h1M19 48h2M24 48h2M28 48h1M31 48h1M20 49h3" />
<path stroke="#ffffff" d="M36 39h1M30 41h2M36 41h1M30 42h1M35 42h1M32 43h1M31 44h2M34 46h1" />
<path stroke="#0538b0" d="M35 40h1M35 41h1M31 42h1M31 43h1" />
<path stroke="#bdbdbd" d="M36 40h1M32 42h1M30 43h1" />
<path stroke="#f8cdad" d="M39 40h1M40 41h1" />
<path stroke="#737373" d="M35 43h2M29 45h3" />
<path stroke="#ca2d56" d="M19 46h1M23 48h1M34 48h1M23 49h1M29 49h2" />
</svg>