<svg xmlns="http://www.w3.org/2000/svg" viewBox="0 -0.5 68 56" shape-rendering="crispEdges">
<metadata>Made with Pixels to Svg https://codepen.io/shshaw/pen/XbxvNj</metadata>
<path stroke="#000000" d="M34 25h1M33 26h1M35 26h1M40 26h1M29 27h1M33 27h1M35 27h1M39 27h1M41 27h1M28 28h1M30 28h1M32 28h1M36 28h1M38 28h1M41 28h1M28 29h1M30 29h2M37 29h1M41 29h1M44 29h2M23 30h2M27 30h1M42 30h2M45 30h1M23 31h1M25 31h1M27 31h1M45 31h1M23 32h1M26 32h1M44 32h1M24 33h1M44 33h1M24 34h1M44 34h1M24 35h1M43 35h1M25 36h1M42 36h1M26 37h1M42 37h2M27 38h2M44 38h1M29 39h1M44 39h1M26 40h4M40 40h1M43 40h1M26 41h1M39 41h1M41 41h2M27 42h2M39 42h1M43 42h3M22 43h2M29 43h1M40 43h3M45 43h1M18 44h2M21 44h1M24 44h1M28 44h2M44 44h1M18 45h1M20 45h1M25 45h1M27 45h1M31 45h1M40 45h4M19 46h1M26 46h1M30 46h1M32 46h2M39 46h1M20 47h1M31 47h1M34 47h1M40 47h1M21 48h1M32 48h1M34 48h1M40 48h1M22 49h2M33 49h1M41 49h1M24 50h4M41 50h1M28 51h1M41 51h1M29 52h1M40 52h1M30 53h2M38 53h2M32 54h6" />
<path stroke="#efefe7" d="M34 26h1M34 27h1M40 27h1M29 28h1M33 28h3M40 28h1M29 29h1M32 29h1M34 29h1M36 29h1M39 29h2M29 30h2M32 30h1M34 30h1M36 30h1M39 30h1M44 30h1M24 31h1M28 31h3M33 31h4M39 31h1M42 31h2M25 32h1M28 32h1M30 32h1M33 32h2M40 32h1M43 32h1M26 33h1M30 33h2M41 33h1M43 33h1M25 34h2M29 34h2M41 34h2M26 35h1M34 36h2M39 36h1M41 37h1M33 38h3M41 38h1M31 39h1M34 39h3M42 39h1M30 40h2M37 40h1M39 40h1M41 40h2M36 43h1M28 47h2M26 48h2M30 48h2M27 49h4M32 49h1M31 50h2M34 50h1M32 51h2" />
<path stroke="#b6b6b3" d="M39 28h1M28 30h1M31 30h1M37 30h1M41 30h1M32 31h1M37 31h1M41 31h1M44 31h1M24 32h1M27 32h1M32 32h1M36 32h3M41 32h1M25 33h1M27 33h1M33 33h2M38 33h1M40 33h1M32 34h1M37 34h1M43 34h1M25 35h1M28 35h1M31 35h1M33 35h1M36 35h3M26 36h5M32 36h1M27 37h3M31 37h1M29 38h1M43 38h1M30 39h1M43 39h1M32 40h2M34 41h3M36 42h2M30 47h1M34 49h1M33 50h1" />
<path stroke="#21dcb3" d="M33 29h1M35 29h1M38 29h1M33 30h1M35 30h1M38 30h1M31 31h1M31 32h1M36 36h1M36 38h2M39 38h1M37 39h1M39 39h1M38 43h1M43 43h2M23 44h1M39 44h1M41 44h2M19 45h1M21 45h2M24 45h1M34 45h1M37 45h1M20 46h1M22 46h4M34 46h5M21 47h5M35 47h1M37 47h2M23 48h1M35 48h5M36 49h2M40 49h1M36 50h1M39 50h2M29 51h2M36 51h4M31 52h1M35 52h4M33 53h4" />
<path stroke="#09ad91" d="M40 30h1M40 31h1M29 32h1M29 33h1M36 37h1M38 39h1M38 40h1M39 43h1M34 44h1M37 44h1M40 44h1M43 44h1M32 45h2M36 45h1M39 45h1M39 47h1M39 49h1M29 50h1M37 50h1M39 52h1M37 53h1" />
<path stroke="#e0e0da" d="M38 31h1M35 32h1M39 32h1M28 33h1M32 33h1M28 34h1M31 34h1M35 34h1M29 35h2M34 35h1M42 35h1M33 36h1M32 37h1M31 38h1M25 49h2" />
<path stroke="#069386" d="M42 32h1M42 33h1M27 34h1M27 35h1M35 37h1M22 44h1M23 45h1M21 46h1M26 47h1M36 47h1M22 48h1M24 48h1M28 48h2M31 49h1M35 49h1M28 50h1M35 51h1M40 51h1M30 52h1M32 52h1M34 52h1M32 53h1" />
<path stroke="#939393" d="M35 33h1M33 34h2M32 35h1M31 36h1M30 37h1M30 38h1" />
<path stroke="#414141" d="M36 33h2M39 33h1M36 34h1M38 34h1M40 34h1M35 35h1M41 35h1M33 37h2M32 38h1M32 39h2M34 40h3M37 41h2M27 46h3" />
<path stroke="#9e9e9e" d="M39 34h1M40 35h1M38 36h1M41 36h1M39 37h1M40 38h1M42 38h1M40 39h2" />
<path stroke="#84848c" d="M39 35h1" />
<path stroke="#ffffff" d="M37 36h1M40 36h1M37 37h2M38 38h1M29 42h2M38 42h1M30 43h1M32 43h3M37 43h1M30 44h4M36 44h1M38 44h1M28 45h3M35 45h1M38 45h1M38 49h1M38 50h1" />
<path stroke="#d4d4d4" d="M40 37h1" />
<path stroke="#ededed" d="M27 41h2M31 42h2M34 42h1M35 43h1M35 44h1" />
<path stroke="#b7b7b7" d="M29 41h5M33 42h1M35 42h1M31 43h1" />
<path stroke="#afe8db" d="M27 47h1M25 48h1M24 49h1M30 50h1M35 50h1M31 51h1M34 51h1M33 52h1" />
</svg>