<svg xmlns="http://www.w3.org/2000/svg" viewBox="0 -0.5 40 30" shape-rendering="crispEdges">
<metadata>Made with Pixels to Svg https://codepen.io/shshaw/pen/XbxvNj</metadata>
<path stroke="#202020" d="M18 6h6M16 7h2M24 7h2M14 8h2M26 8h2M13 9h1M28 9h1M12 10h1M29 10h1M12 11h1M29 11h1M11 12h1M30 12h1M11 13h1M30 13h1M11 14h1M30 14h1M11 15h1M30 15h1M12 16h2M29 16h1M14 17h3M28 17h1M17 18h1M29 18h1M17 19h1M24 19h1M29 19h1M13 20h4M20 20h1M29 20h1M12 21h1M28 21h1M11 22h1M26 22h2M11 23h1M26 23h1M11 24h1M17 24h1M26 24h1M12 25h1M16 25h1M25 25h1M13 26h3M17 26h2M23 26h2M19 27h4" />
<path stroke="#846b5a" d="M18 7h1M17 8h7M14 9h1M18 9h2M23 9h2M13 10h1M18 10h2M23 10h2M19 11h5M23 12h2M23 13h2M24 14h2M12 15h1M24 15h2M29 15h1M14 16h3M24 16h4M17 17h8M26 18h2M27 19h1M26 20h1M13 22h2M12 23h1M14 23h3M13 24h2M17 25h2M24 25h1M19 26h4" />
<path stroke="#d65a6b" d="M19 7h1M16 8h1M27 9h1M26 10h1M28 10h1M24 11h1M28 12h2M25 13h1M27 13h1M29 13h1M27 14h2M26 15h1M22 22h1M25 22h1M23 23h2" />
<path stroke="#ef7ba5" d="M20 7h4M24 8h2M25 9h2M25 10h1M27 10h1M25 11h4M25 12h3M26 13h1M28 13h1M26 14h1M29 14h1M27 15h2M23 20h2M13 21h3M22 21h2M25 21h1M12 22h1M15 22h2M23 22h2" />
<path stroke="#cecebd" d="M15 9h3M21 9h2M14 10h4M20 10h2M13 11h1M16 11h3M12 12h2M15 12h1M17 12h5M12 13h3M17 13h6M13 14h11M14 15h10M18 16h5M26 19h1M28 19h1M27 20h2M21 21h1M27 21h1M18 22h4M13 23h1M18 23h5M25 23h1M12 24h1M15 24h2M18 24h7M13 25h3M20 25h3" />
<path stroke="#ada59c" d="M20 9h1M22 10h1M14 11h2M14 12h1M16 12h1M22 12h1M15 13h2M12 14h1M13 15h1M17 16h1M23 16h1M28 18h1M18 19h5M17 20h2M22 20h1M17 21h2M25 24h1M19 25h1M23 25h1" />
<path stroke="#525252" d="M28 16h1M25 17h3M18 18h8M25 19h1M25 20h1M16 21h1M24 21h1M26 21h1M17 22h1M17 23h1" />
<path stroke="#ffffff" d="M23 19h1M19 20h1M21 20h1M20 21h1" />
<path stroke="#d6d6d6" d="M19 21h1" />
</svg>