<svg xmlns="http://www.w3.org/2000/svg" viewBox="0 -0.5 40 30" shape-rendering="crispEdges">
<metadata>Made with Pixels to Svg https://codepen.io/shshaw/pen/XbxvNj</metadata>
<path stroke="#202020" d="M14 7h2M18 7h5M13 8h1M16 8h2M23 8h2M12 9h1M25 9h1M12 10h1M26 10h1M12 11h1M26 11h1M13 12h1M26 12h1M14 13h1M25 13h1M27 13h1M12 14h2M27 14h1M11 15h1M27 15h1M11 16h1M26 16h1M11 17h1M19 17h1M26 17h1M12 18h1M27 18h1M13 19h1M27 19h1M12 20h1M26 20h1M12 21h1M26 21h1M13 22h1M25 22h1M14 23h2M23 23h2M16 24h3M22 24h1M19 25h1M21 25h1M19 26h1M21 26h1M20 27h1" />
<path stroke="#94e6d6" d="M14 8h2M13 9h1M24 11h1" />
<path stroke="#4a9c73" d="M18 8h1M22 8h1M14 9h1M13 10h1M18 10h4M25 10h1M25 12h1M17 13h1M23 13h1M26 13h1M12 16h1M12 17h2M25 17h1M13 18h1M26 18h1M14 19h1M26 19h1M13 20h3M13 21h3M25 21h1M14 22h1M16 22h1M23 22h2M17 23h2M20 23h1M19 24h3M20 25h1M20 26h1" />
<path stroke="#6bbdad" d="M19 8h3M16 9h2M22 9h3M14 10h1M23 10h2M14 11h3M22 11h2M25 11h1M15 12h10M18 13h5M26 14h1M12 15h1M26 15h1M24 19h1M22 20h4M16 21h9M17 22h2M22 22h1" />
<path stroke="#525252" d="M15 9h1M16 10h1M22 10h1M17 11h5M24 15h1M19 16h1M20 17h1M25 18h1M19 19h1M22 19h1M25 19h1M20 20h2M15 22h1M20 22h1M16 23h1M19 23h1M21 23h2" />
<path stroke="#427b4a" d="M18 9h4M15 10h1M17 10h1M13 11h1M19 22h1M21 22h1" />
<path stroke="#5a4aad" d="M14 12h1M15 13h2M24 13h1M16 14h8M25 14h1M13 15h1M25 15h1M13 16h1M25 16h1M14 17h1M24 17h1M14 18h1M24 18h1M15 19h1M23 19h1M16 20h2" />
<path stroke="#7b63ce" d="M14 14h2M14 15h3M22 15h2M14 16h3M22 16h1M15 17h2M15 18h3M21 18h3M16 19h3M20 19h2M18 20h2" />
<path stroke="#a5adff" d="M24 14h1M18 15h3M17 16h2M21 16h1M23 16h2M17 17h2M21 17h3M18 18h3" />
<path stroke="#8c7bff" d="M17 15h1M21 15h1" />
<path stroke="#ffffff" d="M20 16h1" />
</svg>