<svg xmlns="http://www.w3.org/2000/svg" viewBox="0 -0.5 40 30" shape-rendering="crispEdges">
<metadata>Made with Pixels to Svg https://codepen.io/shshaw/pen/XbxvNj</metadata>
<path stroke="#202020" d="M17 0h3M17 1h1M20 1h1M18 2h1M21 2h1M9 3h2M17 3h1M22 3h1M8 4h1M11 4h1M17 4h1M23 4h1M29 4h2M8 5h1M12 5h1M18 5h1M23 5h1M29 5h1M31 5h1M7 6h1M13 6h2M19 6h1M23 6h1M27 6h1M29 6h1M32 6h1M7 7h1M15 7h1M19 7h1M23 7h1M26 7h1M28 7h1M32 7h1M8 8h1M16 8h1M18 8h1M24 8h1M26 8h1M29 8h1M33 8h1M9 9h1M17 9h1M19 9h1M25 9h2M29 9h1M33 9h1M8 10h1M16 10h1M20 10h1M30 10h1M32 10h1M9 11h2M16 11h1M21 11h1M32 11h1M11 12h3M17 12h1M22 12h1M31 12h1M3 13h4M14 13h1M17 13h2M20 13h2M31 13h1M2 14h1M7 14h2M10 14h3M14 14h1M27 14h1M32 14h1M3 15h2M9 15h1M13 15h1M32 15h1M5 16h1M31 16h1M5 17h1M30 17h1M6 18h1M23 18h3M29 18h1M6 19h1M24 19h1M26 19h1M30 19h2M7 20h1M25 20h1M27 20h1M32 20h1M7 21h1M25 21h1M28 21h1M33 21h1M8 22h2M24 22h1M28 22h1M34 22h1M10 23h3M23 23h1M29 23h1M33 23h2M12 24h1M16 24h2M24 24h1M28 24h1M31 24h1M33 24h1M11 25h1M16 25h1M18 25h1M23 25h1M29 25h2M32 25h1M11 26h1M13 26h1M17 26h1M19 26h1M24 26h1M11 27h2M14 27h1M16 27h1M20 27h1M22 27h2M15 28h2M21 28h2" />
<path stroke="#94d6ff" d="M18 1h2M19 2h2M19 3h2M18 4h1M20 4h1M22 4h1M20 5h1M22 5h1M20 6h2M29 7h1M19 8h2M30 9h1M30 11h1M30 12h1M16 14h1M23 14h2M30 14h1M22 15h1M24 15h1M30 15h1M22 16h1M19 17h1M23 17h1M19 18h1M29 19h1M28 20h2M31 20h1M29 21h2M30 22h2M33 22h1M32 23h1M29 24h2M32 24h1M14 26h1M15 27h1" />
<path stroke="#73a5d6" d="M18 3h1M21 3h1M19 4h1M21 4h1M19 5h1M21 5h1M22 6h1M22 7h1M22 11h1M16 13h1M25 13h2M15 14h1M16 15h2M23 15h1M28 15h1M18 16h1M23 16h1M29 16h1M18 17h1M20 17h1M24 17h1M30 20h1M31 21h2M29 22h1M32 22h1M30 23h2M14 25h1M15 26h1" />
<path stroke="#848c8c" d="M9 4h2M10 5h2M8 6h1M11 6h2M8 7h2M9 8h2M15 8h1M16 9h1M9 10h2M11 11h1M11 16h1M11 18h2M17 18h1M7 19h1M10 19h2M16 19h2M19 19h1M8 20h1M10 20h1M12 20h1M20 20h2M23 20h2M8 21h2M13 21h1M18 21h2M22 21h3M10 22h1M13 22h1M19 22h2M23 22h1M13 23h1M20 23h2M13 24h1M20 24h2M23 24h1M22 26h2" />
<path stroke="#6b6b6b" d="M9 5h1M10 6h1M11 7h3M11 8h3M10 9h4M21 9h4M11 10h4M23 10h1M12 11h4M14 12h3M23 12h1M15 13h1M22 13h1M5 14h2M20 14h2M5 15h3M6 16h1M16 16h2M27 16h2M6 17h1M9 17h2M15 17h1M27 17h2M8 18h2M16 18h1M21 18h1M27 18h1M20 19h3M16 20h1M18 20h1M17 21h1M17 22h2M18 23h2M15 24h1M18 24h2M19 25h2M21 27h1" />
<path stroke="#d6f7ff" d="M30 5h1M30 6h2M30 7h2M30 8h3M31 9h2M31 10h1M24 11h3M31 11h1M25 12h3M27 13h2M30 13h1M17 14h2M28 14h2M31 14h1M18 15h2M29 15h1M31 15h1M19 16h2M24 16h2M30 16h1M25 17h2M26 18h1" />
<path stroke="#525252" d="M9 6h1M10 7h1M14 7h1M20 7h2M14 8h1M21 8h3M14 9h2M20 9h1M15 10h1M21 10h2M24 10h3M23 11h1M27 11h1M24 12h1M23 13h2M3 14h2M19 14h1M22 14h1M25 14h1M8 15h1M12 15h1M15 15h1M20 15h2M25 15h1M7 16h4M13 16h3M21 16h1M26 16h1M7 17h2M11 17h2M14 17h1M16 17h2M21 17h2M29 17h1M7 18h1M10 18h1M13 18h3M18 18h1M20 18h1M22 18h1M28 18h1M8 19h2M12 19h1M14 19h2M18 19h1M23 19h1M27 19h2M9 20h1M11 20h1M15 20h1M17 20h1M19 20h1M22 20h1M10 21h2M16 21h1M20 21h2M11 22h1M16 22h1M21 22h2M15 23h3M22 23h1M14 24h1M22 24h1M21 25h2M20 26h2" />
<path stroke="#f7f729" d="M27 7h1M27 8h2M27 9h2M28 10h2M29 11h1M29 12h1M26 14h1M26 15h1" />
<path stroke="#f7ad29" d="M27 10h1M29 13h1M27 15h1" />
<path stroke="#adb5b5" d="M28 11h1M28 12h1M10 15h2M12 16h1M13 19h1M13 20h2M12 21h1M14 21h2M12 22h1M14 22h2M14 23h1M12 25h2M15 25h1M16 26h1" />
<path stroke="#ffffff" d="M14 15h1M13 17h1M12 26h1" />
</svg>