<svg xmlns="http://www.w3.org/2000/svg" viewBox="0 -0.5 40 30" shape-rendering="crispEdges">
<metadata>Made with Pixels to Svg https://codepen.io/shshaw/pen/XbxvNj</metadata>
<path stroke="#202020" d="M19 10h1M18 11h1M20 11h1M18 12h1M20 12h1M17 13h1M21 13h1M17 14h1M21 14h1M17 15h1M21 15h1M15 16h2M22 16h2M14 17h1M24 17h1M13 18h1M25 18h1M13 19h1M25 19h1M13 20h1M25 20h1M13 21h1M25 21h1M14 22h1M24 22h1M14 23h1M24 23h1M15 24h1M23 24h1M14 25h1M24 25h1M15 26h2M22 26h2M17 27h5" />
<path stroke="#947bce" d="M19 11h1M19 12h1M18 13h1M20 13h1M18 14h1M20 14h1M19 16h1" />
<path stroke="#ada5ce" d="M19 13h1M19 14h1M16 17h2M21 17h2M17 18h5" />
<path stroke="#849cd6" d="M18 15h1M20 15h1" />
<path stroke="#9cbdce" d="M19 15h1M17 16h1M21 16h1M18 17h3" />
<path stroke="#525252" d="M18 16h1M20 16h1" />
<path stroke="#ffffff" d="M15 17h1M23 17h1M14 18h3M22 18h3M14 19h11M14 20h8M24 20h1M15 21h7M23 21h1M16 22h4M22 22h1M20 23h3M17 24h4M22 24h1M15 25h9M18 26h3" />
<path stroke="#adb5c5" d="M22 20h2M14 21h1M22 21h1M24 21h1M15 22h1M20 22h2M16 23h1M18 23h2M21 24h1M17 26h1M21 26h1" />
<path stroke="#a57321" d="M23 22h1" />
<path stroke="#7b7b7b" d="M15 23h1M17 23h1M16 24h1" />
<path stroke="#cea529" d="M23 23h1" />
</svg>