<svg xmlns="http://www.w3.org/2000/svg" viewBox="0 -0.5 40 30" shape-rendering="crispEdges">
<metadata>Made with Pixels to Svg https://codepen.io/shshaw/pen/XbxvNj</metadata>
<path stroke="#202020" d="M19 8h2M18 9h1M21 9h2M17 10h1M23 10h3M16 11h2M26 11h1M15 12h1M26 12h1M14 13h1M27 13h1M13 14h1M27 14h1M12 15h1M28 15h1M12 16h1M28 16h1M12 17h1M28 17h1M13 18h1M28 18h1M13 19h1M27 19h1M13 20h1M27 20h1M14 21h1M27 21h1M14 22h1M26 22h1M15 23h1M22 23h4M15 24h1M19 24h3M16 25h3" />
<path stroke="#cdc5c5" d="M19 9h1" />
<path stroke="#ffffff" d="M20 9h1M19 10h1M14 15h1M13 16h2" />
<path stroke="#525252" d="M18 10h1M21 10h1M19 11h2M14 14h2M26 14h1M15 15h2M26 15h2M26 16h1M13 17h1M15 17h1M19 17h3M26 17h1M14 18h1M18 18h5M26 18h1M18 19h5M18 20h5M26 20h1M19 21h3M25 21h1M23 22h2M21 23h1M16 24h1" />
<path stroke="#bdb4b4" d="M20 10h1M14 17h1M16 23h1M17 24h2" />
<path stroke="#ac837b" d="M22 10h1M18 11h1M21 11h2M16 12h1M19 12h6M15 13h3M20 13h1M22 13h4M16 14h6M23 14h3M17 15h6M24 15h2M17 16h7M25 16h1M16 17h3M22 17h2M25 17h1M15 18h3M23 18h1M25 18h1M14 19h4M23 19h1M15 20h3" />
<path stroke="#7b524a" d="M23 11h2M17 12h1M25 12h1M13 15h1M16 16h1M27 16h1M27 17h1M14 20h1M15 21h1M26 21h1M15 22h2M22 22h1M25 22h1M17 23h2M20 23h1" />
<path stroke="#946a5a" d="M25 11h1M18 12h1M18 13h2M21 13h1M26 13h1M22 14h1M15 16h1M27 18h1M26 19h1M25 20h1M16 21h3M22 21h2M17 22h5M19 23h1" />
<path stroke="#836252" d="M23 15h1M24 16h1M24 17h1M24 18h1M24 19h2M23 20h2M24 21h1" />
</svg>