<svg xmlns="http://www.w3.org/2000/svg" viewBox="0 -0.5 40 30" shape-rendering="crispEdges">
<metadata>Made with Pixels to Svg https://codepen.io/shshaw/pen/XbxvNj</metadata>
<path stroke="#202020" d="M19 8h2M18 9h1M21 9h1M17 10h1M22 10h1M17 11h1M23 11h3M16 12h1M26 12h1M15 13h1M26 13h1M13 14h2M27 14h1M12 15h1M27 15h1M12 16h1M28 16h1M12 17h1M28 17h1M13 18h1M28 18h1M14 19h1M27 19h1M14 20h1M26 20h1M14 21h1M26 21h1M15 22h1M25 22h1M15 23h1M22 23h3M15 24h1M19 24h3M16 25h3" />
<path stroke="#fff67b" d="M19 9h1M21 10h1M19 11h2M27 16h1M27 17h1M19 19h1M19 20h1M21 22h1M24 22h1" />
<path stroke="#ffffff" d="M20 9h1M19 10h2M14 15h1M13 16h1M26 17h1M20 18h2M26 18h1M20 19h2M16 23h1M17 24h2" />
<path stroke="#bda441" d="M18 10h1M22 11h1M17 12h1M23 12h1M18 13h2M15 14h1M22 14h1M13 15h1M21 15h2M14 18h2M27 18h1M15 21h1M24 21h1M22 22h2M20 23h1M16 24h1" />
<path stroke="#ffe641" d="M18 11h1M21 11h1M18 12h5M17 13h1M20 13h4M16 14h5M23 14h1M15 15h6M15 16h4M22 16h2M15 17h3M23 17h1M23 20h2M16 21h2M22 21h2M16 22h3M17 23h1" />
<path stroke="#d5bd41" d="M24 12h1M16 13h1M25 13h1M21 14h1M24 14h1M26 14h1M23 15h1M25 15h1M19 16h3M24 16h1M18 17h1M22 17h1M24 17h1M16 18h2M23 18h2M15 19h3M23 19h1M25 19h1M15 20h3M22 20h1M25 20h1M18 21h1M20 21h2M19 22h1M18 23h2" />
<path stroke="#fff6bd" d="M25 12h1M25 14h1M24 15h1M26 15h1M14 16h1M25 16h2M14 17h1M19 17h3M25 17h1M18 18h2M22 18h1M25 18h1M18 19h1M22 19h1M24 19h1M26 19h1M18 20h1M20 20h2M19 21h1M25 21h1M20 22h1" />
<path stroke="#525252" d="M24 13h1M13 17h1M21 23h1" />
</svg>