<svg xmlns="http://www.w3.org/2000/svg" viewBox="0 -0.5 40 30" shape-rendering="crispEdges">
<metadata>Made with Pixels to Svg https://codepen.io/shshaw/pen/XbxvNj</metadata>
<path stroke="#202020" d="M19 0h2M15 1h2M18 1h1M20 1h1M14 2h1M17 2h1M20 2h1M13 3h1M19 3h1M21 3h2M12 4h1M19 4h2M22 4h1M11 5h1M22 5h1M11 6h1M21 6h1M23 6h2M30 6h2M11 7h1M21 7h2M24 7h1M29 7h1M32 7h1M12 8h1M24 8h1M29 8h1M32 8h1M11 9h3M16 9h1M23 9h1M28 9h1M32 9h1M11 10h1M14 10h2M17 10h1M24 10h1M28 10h1M31 10h1M12 11h1M15 11h1M17 11h1M24 11h1M27 11h1M31 11h1M12 12h1M18 12h1M25 12h1M27 12h1M30 12h1M6 13h3M13 13h1M15 13h2M19 13h1M25 13h2M28 13h1M30 13h1M5 14h1M9 14h1M13 14h2M18 14h1M23 14h3M29 14h1M5 15h1M9 15h1M13 15h1M16 15h1M19 15h1M23 15h1M25 15h1M30 15h1M6 16h1M10 16h1M12 16h1M15 16h1M18 16h1M23 16h1M25 16h1M31 16h1M6 17h1M10 17h2M14 17h1M16 17h1M19 17h1M22 17h1M25 17h1M31 17h1M7 18h1M13 18h1M17 18h2M22 18h2M26 18h1M30 18h1M32 18h1M7 19h1M14 19h1M18 19h2M21 19h1M24 19h1M27 19h4M32 19h1M8 20h1M14 20h1M17 20h1M19 20h2M22 20h1M25 20h1M28 20h1M30 20h1M32 20h1M8 21h1M14 21h1M16 21h1M19 21h1M22 21h1M24 21h1M28 21h2M31 21h1M7 22h1M14 22h1M16 22h1M19 22h1M22 22h1M24 22h1M29 22h1M7 23h1M14 23h1M16 23h1M18 23h1M23 23h1M6 24h1M9 24h2M14 24h1M16 24h1M18 24h1M6 25h1M8 25h1M10 25h2M13 25h1M17 25h1M7 26h1M10 26h1M12 26h1M7 27h1M9 27h2M12 27h1M8 28h1M10 28h1M12 28h1M11 29h1" />
<path stroke="#7b7b83" d="M19 1h1M21 4h1M14 7h1M23 7h1M31 7h1M13 10h1M23 10h1M29 10h2M23 11h1M24 12h1M18 13h1M21 16h1M30 16h1M29 17h1M8 18h3M27 18h2M23 21h1M12 23h1M17 23h1M7 24h1" />
<path stroke="#5a5a62" d="M15 2h2M18 2h1M14 3h3M18 3h1M13 4h4M12 5h4M17 5h2M20 5h1M13 6h2M16 6h3M20 6h1M15 7h4M30 7h1M15 8h3M19 8h2M22 8h1M30 8h2M18 9h3M22 9h1M29 9h3M16 10h1M18 10h3M14 11h1M19 11h1M21 11h2M21 12h3M23 13h1M27 13h1M6 14h2M15 14h2M20 14h2M26 14h3M6 15h1M8 15h1M14 15h2M18 15h1M22 15h1M27 15h3M7 16h3M13 16h2M27 16h3M7 17h3M18 17h1M28 17h1M12 18h1M12 19h1M22 19h2M31 19h1M18 20h1M23 20h2M31 20h1M17 21h2M17 22h2M7 25h1M9 25h1M9 26h1M11 26h1M8 27h1M11 28h1" />
<path stroke="#41414a" d="M19 2h1M19 5h1M21 5h1M12 6h1M12 7h2M13 8h2M21 8h1M23 8h1M14 9h2M12 10h1M13 11h1M16 11h1M18 11h1M13 12h5M19 12h2M14 13h1M17 13h1M21 13h2M17 14h1M17 15h1M26 15h1M16 16h2M19 16h2M26 16h1M12 17h2M17 17h1M20 17h2M26 17h2M30 17h1M11 18h1M19 18h3M29 18h1M31 18h1M11 19h1M13 19h1M20 19h1M12 20h2M29 20h1M11 21h3M9 22h2M12 22h2M23 22h1M8 23h4M13 23h1M8 24h1M11 24h3M17 24h1M12 25h1" />
<path stroke="#acacac" d="M17 3h1M17 4h2M16 5h1M15 6h1M19 6h1M19 7h2M18 8h1M17 9h1M21 9h1M21 10h2M20 11h1M28 11h3M24 13h1M19 14h1M7 15h1M20 15h1M22 16h1M8 19h3M8 22h1M11 22h1M8 26h1M11 27h1" />
<path stroke="#d5d5bd" d="M28 12h2M29 13h1M8 14h1M9 20h3M9 21h2" />
<path stroke="#6acd4a" d="M20 13h1" />
<path stroke="#de9c4a" d="M22 14h1" />
<path stroke="#d5524a" d="M21 15h1" />
</svg>