<svg xmlns="http://www.w3.org/2000/svg" viewBox="0 -0.5 40 30" shape-rendering="crispEdges">
<metadata>Made with Pixels to Svg https://codepen.io/shshaw/pen/XbxvNj</metadata>
<path stroke="#202020" d="M24 8h2M13 9h2M23 9h1M26 9h1M12 10h1M15 10h1M17 10h5M23 10h1M26 10h1M12 11h1M16 11h1M22 11h1M25 11h1M13 12h2M24 12h2M13 13h1M17 13h2M21 13h2M26 13h1M12 14h1M16 14h1M18 14h1M21 14h1M23 14h1M26 14h1M12 15h1M15 15h1M17 15h1M22 15h1M24 15h1M27 15h1M11 16h1M14 16h1M16 16h1M23 16h1M25 16h1M27 16h1M11 17h1M14 17h1M16 17h1M23 17h1M25 17h1M28 17h1M11 18h1M13 18h1M15 18h1M24 18h1M26 18h1M28 18h1M11 19h1M13 19h1M15 19h1M24 19h1M26 19h1M28 19h1M11 20h1M13 20h1M15 20h1M20 20h1M24 20h1M26 20h1M28 20h1M11 21h1M14 21h1M16 21h1M21 21h1M23 21h1M25 21h1M28 21h1M11 22h1M14 22h1M16 22h1M23 22h1M25 22h1M27 22h1M12 23h1M15 23h1M17 23h1M22 23h1M24 23h1M27 23h1M12 24h1M16 24h1M18 24h4M23 24h1M26 24h1M13 25h1M17 25h1M23 25h1M26 25h1M14 26h1M17 26h1M24 26h2M15 27h2" />
<path stroke="#525252" d="M24 9h1M13 11h1M16 13h1M19 13h1M23 13h1M15 14h1M19 14h1M24 14h1M14 15h1M19 16h3M13 17h1M18 17h1M17 18h1M17 19h1M21 19h1M17 20h1M13 21h1M17 21h1M20 21h1M12 22h1M17 22h1M14 23h1M18 23h1M13 24h1M14 25h1M25 25h1M15 26h1" />
<path stroke="#a5a5a5" d="M25 9h1M14 10h1M24 10h1M15 11h1M17 11h5M16 12h1M14 13h1M13 14h1M19 15h3M18 16h1M17 17h1M21 20h1" />
<path stroke="#848484" d="M13 10h1M25 10h1M14 11h1M23 11h2M15 12h1M17 12h1M22 12h2M15 13h1M24 13h2M14 14h1M25 14h1M13 15h1M18 15h1M25 15h2M13 16h1M17 16h1M22 16h1M26 16h1M12 17h1M26 17h2M12 18h1M16 18h1M23 18h1M27 18h1M12 19h1M20 19h1M23 19h1M27 19h1M12 20h1M23 20h1M27 20h1M12 21h1M26 21h2M13 22h1M26 22h1M13 23h1M26 23h1M14 24h2M25 24h1M15 25h2M24 25h1M16 26h1" />
<path stroke="#6b6b6b" d="M18 12h4M20 13h1M20 14h1M12 16h1M22 17h1M16 19h1M16 20h1M25 23h1M24 24h1" />
<path stroke="#cecece" d="M19 17h1M21 17h1M18 18h1M22 18h1M18 22h1M22 22h1M19 23h1M21 23h1" />
<path stroke="#ffffff" d="M20 17h1M19 18h3M18 19h2M22 19h1M18 20h2M22 20h1M18 21h2M22 21h1M19 22h3M20 23h1" />
</svg>