<svg xmlns="http://www.w3.org/2000/svg" viewBox="0 -0.5 40 30" shape-rendering="crispEdges">
<metadata>Made with Pixels to Svg https://codepen.io/shshaw/pen/XbxvNj</metadata>
<path stroke="#202020" d="M25 3h2M11 4h2M24 4h1M26 4h1M11 5h1M13 5h2M24 5h1M26 5h1M11 6h1M15 6h1M20 6h2M23 6h1M26 6h1M12 7h1M16 7h1M19 7h1M23 7h1M26 7h1M12 8h1M16 8h1M18 8h1M25 8h1M12 9h1M17 9h2M25 9h1M13 10h1M17 10h1M24 10h1M13 11h1M25 11h1M14 12h1M25 12h1M14 13h1M26 13h1M14 14h1M13 15h1M13 16h1M27 16h1M13 17h1M27 17h1M12 18h1M27 18h1M11 19h1M27 19h1M11 20h1M26 20h1M12 21h1M26 21h1M13 22h1M27 22h1M14 23h1M24 23h3M15 24h2M22 24h2M17 25h2M21 25h1M18 26h1M22 26h1M19 27h3" />
<path stroke="#c5c5bd" d="M25 4h1M25 5h1M26 19h1M20 20h1M25 20h1M19 21h7M19 22h6M19 23h5M20 24h2" />
<path stroke="#ffffff" d="M12 5h1M12 6h3M13 7h1M25 14h1M18 15h1M20 15h1M18 16h1M23 16h2M26 16h1M19 17h2M22 17h1M25 17h2M21 18h6M20 19h6M21 20h4" />
<path stroke="#d69c94" d="M24 6h2M24 7h1M24 8h1M13 9h1M22 9h1M18 10h5M19 11h3M24 11h1M15 13h1M15 14h1M14 15h2M14 16h3M14 17h3M13 18h4M12 19h4M12 20h4M13 21h4M14 22h5M15 23h4M17 24h3M19 26h3" />
<path stroke="#525252" d="M14 7h1M22 7h1M14 8h1M23 8h1M15 9h1M23 9h1M15 10h1M23 10h1M14 11h1M16 11h1M18 11h1M22 11h1M15 12h1M19 12h3M16 13h1M26 14h1M27 15h1M25 16h1M23 17h2M19 20h1M17 21h2M25 22h1M19 25h2" />
<path stroke="#ffc5b5" d="M15 7h1M20 7h2M13 8h1M19 8h3M16 9h1M19 9h1M14 10h1M15 11h1M17 11h1M23 11h1M16 12h3M22 12h3M17 13h8M16 14h3M22 14h3M16 15h2M22 15h5M17 16h1M22 16h1M17 17h2M21 17h1M18 18h3M17 19h3M17 20h2" />
<path stroke="#bd7363" d="M25 7h1M15 8h1M22 8h1M14 9h1M20 9h2M24 9h1M16 10h1M17 18h1M16 19h1M16 20h1M26 22h1" />
<path stroke="#73c5ad" d="M25 13h1M19 14h1M21 14h1M19 16h1M21 16h1" />
<path stroke="#428473" d="M20 14h1M19 15h1M21 15h1M20 16h1" />
</svg>