<svg xmlns="http://www.w3.org/2000/svg" viewBox="0 -0.5 32 32" shape-rendering="crispEdges">
<metadata>Made with Pixels to Svg https://codepen.io/shshaw/pen/XbxvNj</metadata>
<path stroke="#ffffff" d="M9 6h5M8 7h2M13 7h10M8 8h1M18 8h2M22 8h2M8 9h1M23 9h2M7 10h2M24 10h1M6 11h2M24 11h1M6 12h1M23 12h2M5 13h2M23 13h2M5 14h1M24 14h1M5 15h1M24 15h1M5 16h1M24 16h1M5 17h1M24 17h1M5 18h2M24 18h2M6 19h2M25 19h1M7 20h1M25 20h1M7 21h1M25 21h1M7 22h2M24 22h2M8 23h2M21 23h4M9 24h4M20 24h2M12 25h2M18 25h3M13 26h6" />
<path stroke="#202020" d="M10 7h3M9 8h1M13 8h5M20 8h2M9 9h1M18 9h2M22 9h1M9 10h1M23 10h1M8 11h1M23 11h1M7 12h1M22 12h1M7 13h1M22 13h1M6 14h1M23 14h1M6 15h1M23 15h1M6 16h1M23 16h1M6 17h1M23 17h1M7 18h1M23 18h1M8 19h1M24 19h1M8 20h1M24 20h1M8 21h1M24 21h1M9 22h1M21 22h3M10 23h3M20 23h1M13 24h1M18 24h2M14 25h4" />
<path stroke="#6aac31" d="M10 8h1M10 9h2M10 10h2M11 11h2M13 13h2M13 14h2M14 15h2M14 16h3M11 17h3M15 17h4M14 18h1M17 18h2M14 19h1M20 19h1M9 20h2M14 20h1M20 20h3M9 21h1M21 21h3" />
<path stroke="#a4e64a" d="M11 8h1M14 9h4M12 10h1M14 11h1M17 11h3M9 12h2M14 12h1M18 12h3M9 13h3M19 13h2M10 14h2M15 14h1M20 14h1M22 14h1M10 15h3M16 15h1M22 15h1M11 16h2M17 16h1M22 16h1M19 17h2M22 17h1M15 19h2M21 19h1M15 20h4M23 20h1M16 21h4M18 22h2" />
<path stroke="#cdf69c" d="M12 8h1M12 9h2M13 10h1M15 11h2M15 12h3M15 13h4M16 14h4M17 15h4M18 16h3M21 18h2M22 19h2" />
<path stroke="#a48331" d="M20 9h1M21 10h1M22 11h1" />
<path stroke="#eed57b" d="M21 9h1M20 10h1M22 10h1M21 11h1" />
<path stroke="#4a6a29" d="M14 10h6M9 11h2M13 11h1M20 11h1M11 12h3M21 12h1M12 13h1M21 13h1M12 14h1M21 14h1M13 15h1M21 15h1M13 16h1M21 16h1M14 17h1M21 17h1M13 18h1M15 18h2M19 18h2M17 19h3M19 20h1M20 21h1M20 22h1" />
<path stroke="#5a7b39" d="M8 12h1M8 13h1M8 14h2M8 15h2M7 16h1M9 16h2M7 17h1M9 17h2M8 18h1M10 19h3M11 20h2M10 21h3M14 21h2M10 22h2M14 22h4M13 23h1M16 23h4M14 24h2" />
<path stroke="#415229" d="M7 14h1M7 15h1M8 16h1M8 17h1M9 18h4M9 19h1M13 19h1M13 20h1M13 21h1M12 22h2M14 23h2M16 24h2" />
</svg>