<svg xmlns="http://www.w3.org/2000/svg" viewBox="0 -0.5 32 32" shape-rendering="crispEdges">
<metadata>Made with Pixels to Svg https://codepen.io/shshaw/pen/XbxvNj</metadata>
<path stroke="#ffffff" d="M20 6h4M16 7h5M23 7h2M13 8h4M24 8h1M11 9h3M24 9h1M9 10h3M24 10h1M8 11h2M24 11h1M7 12h2M24 12h2M7 13h1M25 13h1M6 14h2M25 14h1M6 15h1M25 15h1M6 16h1M25 16h1M6 17h1M25 17h1M6 18h1M25 18h1M6 19h1M25 19h1M6 20h2M25 20h1M7 21h1M24 21h2M7 22h2M24 22h1M8 23h1M23 23h2M8 24h2M22 24h2M9 25h4M20 25h3M12 26h9" />
<path stroke="#202020" d="M21 7h2M17 8h4M23 8h1M14 9h3M23 9h1M12 10h2M23 10h1M10 11h2M23 11h1M9 12h1M23 12h1M8 13h1M24 13h1M8 14h1M24 14h1M7 15h1M24 15h1M7 16h1M24 16h1M7 17h1M24 17h1M7 18h1M24 18h1M7 19h1M24 19h1M8 20h1M24 20h1M8 21h1M23 21h1M9 22h1M23 22h1M9 23h1M22 23h1M10 24h3M20 24h2M13 25h7" />
<path stroke="#cd94ff" d="M21 8h1M16 10h3M14 11h4M13 12h4M11 13h2M14 13h2M10 14h3M10 15h4M10 16h2" />
<path stroke="#9473e6" d="M22 8h1M17 9h3M21 9h2M14 10h2M19 10h1M13 11h1M18 11h3M11 12h1M17 12h4M10 13h1M13 13h1M16 13h4M13 14h7M15 15h5M12 16h3M17 16h2M11 17h5M16 18h2M16 19h2" />
<path stroke="#39417b" d="M20 9h1M21 10h2M12 11h1M10 12h1M9 13h1M9 14h1M9 15h1M9 16h1M15 16h1M9 17h1M17 17h2M23 17h1M10 18h5M19 18h5M15 19h1M15 20h1M16 21h1M17 22h6" />
<path stroke="#625aac" d="M20 10h1M21 11h2M12 12h1M21 12h2M21 13h3M20 14h4M14 15h1M20 15h4M16 16h1M20 16h4M10 17h1M16 17h1M19 17h4M15 18h1M18 19h6M16 20h1M18 20h6M17 21h6" />
<path stroke="#835acd" d="M20 13h1M19 16h1M18 18h1M17 20h1" />
<path stroke="#7b5a4a" d="M8 15h1M14 19h1M9 21h1M16 22h1M10 23h1M14 23h2M13 24h1M19 24h1" />
<path stroke="#eed56a" d="M8 16h1M8 17h1M8 18h1M8 19h2M9 20h1M11 20h3M10 21h3M10 22h2" />
<path stroke="#c5b46a" d="M9 18h1M14 20h1M13 21h1M12 22h1M11 23h1" />
<path stroke="#acac6a" d="M10 19h4M10 20h1M14 21h2M13 22h3M12 23h2M16 23h6M14 24h5" />
</svg>