<svg xmlns="http://www.w3.org/2000/svg" viewBox="0 -0.5 32 32" shape-rendering="crispEdges">
<metadata>Made with Pixels to Svg https://codepen.io/shshaw/pen/XbxvNj</metadata>
<path stroke="#ffffff" d="M21 4h4M20 5h2M24 5h2M19 6h2M25 6h2M19 7h1M26 7h1M18 8h2M26 8h1M17 9h2M25 9h2M15 10h3M24 10h2M9 11h7M24 11h1M6 12h4M23 12h2M5 13h2M23 13h1M5 14h1M22 14h2M5 15h1M22 15h1M5 16h1M22 16h1M5 17h1M22 17h1M5 18h2M22 18h1M6 19h1M22 19h1M6 20h1M22 20h2M6 21h2M23 21h1M7 22h1M23 22h1M7 23h2M23 23h1M8 24h2M23 24h1M9 25h3M22 25h2M11 26h4M21 26h2M14 27h8" />
<path stroke="#202020" d="M22 5h2M21 6h1M24 6h1M20 7h1M25 7h1M20 8h1M25 8h1M19 9h1M24 9h1M18 10h1M23 10h1M16 11h2M23 11h1M10 12h6M22 12h1M7 13h3M22 13h1M6 14h1M21 14h1M6 15h1M21 15h1M6 16h1M21 16h1M6 17h1M21 17h1M7 18h1M21 18h1M7 19h1M21 19h1M7 20h1M21 20h1M8 21h1M22 21h1M8 22h1M22 22h1M9 23h1M22 23h1M10 24h2M22 24h1M12 25h3M21 25h1M15 26h6" />
<path stroke="#d5e67b" d="M22 6h2M22 7h3M23 8h1" />
<path stroke="#8b944a" d="M21 7h1M22 8h1M24 8h1M23 9h1" />
<path stroke="#f6ee8b" d="M21 8h1M20 9h1M20 10h1M16 12h1M12 13h1M18 13h1M10 14h1M16 14h2M10 15h1M14 15h4M11 16h3M16 16h3M11 17h2M15 17h3M15 18h3M14 19h2M17 19h1M14 20h1" />
<path stroke="#e6d594" d="M21 9h1M18 17h1M17 20h1" />
<path stroke="#cdbd7b" d="M22 9h1M21 10h2M21 11h1M21 12h1M20 13h1M20 14h1M19 15h2M19 16h2M8 17h1M20 17h1M8 18h1M20 18h1M8 19h2M19 19h2M8 20h2M18 20h3M9 21h1M17 21h2M20 21h1M9 22h1M11 22h2M20 22h2M10 23h2M15 23h1M19 23h2M12 24h4M17 25h2" />
<path stroke="#ffffd5" d="M19 10h1M18 11h2M17 12h2M13 13h5M11 14h5M11 15h3" />
<path stroke="#ee9431" d="M20 11h1M19 12h2M11 13h1M19 13h1M8 14h2M18 14h2M7 15h3M18 15h1M8 16h3M14 16h2M9 17h2M13 17h2M10 18h5M11 19h2" />
<path stroke="#9c7b39" d="M22 11h1M10 13h1M21 13h1M7 14h1M21 21h1" />
<path stroke="#bd6a41" d="M7 16h1M7 17h1M19 17h1M9 18h1M18 18h2M10 19h1M13 19h1M16 19h1M18 19h1M10 20h4M15 20h2M10 21h7M19 21h1M10 22h1M13 22h7M12 23h3M16 23h3M21 23h1M16 24h6M15 25h2M19 25h2" />
</svg>