<svg xmlns="http://www.w3.org/2000/svg" viewBox="0 -0.5 32 32" shape-rendering="crispEdges">
<metadata>Made with Pixels to Svg https://codepen.io/shshaw/pen/XbxvNj</metadata>
<path stroke="#ffffff" d="M10 6h10M9 7h2M19 7h4M9 8h1M22 8h2M9 9h1M23 9h2M9 10h2M24 10h1M9 11h2M24 11h2M9 12h1M25 12h1M9 13h1M25 13h1M9 14h1M25 14h1M9 15h1M25 15h1M9 16h2M25 16h1M10 17h1M25 17h1M10 18h2M25 18h1M9 19h2M24 19h2M7 20h3M24 20h1M6 21h2M23 21h2M6 22h1M22 22h2M6 23h1M21 23h2M6 24h2M19 24h3M7 25h2M16 25h4M8 26h9" />
<path stroke="#202020" d="M11 7h8M10 8h1M19 8h3M10 9h1M22 9h1M11 10h1M23 10h1M11 11h1M23 11h1M10 12h1M24 12h1M10 13h1M24 13h1M10 14h1M24 14h1M10 15h1M24 15h1M11 16h1M24 16h1M11 17h1M24 17h1M12 18h1M24 18h1M11 19h1M23 19h1M10 20h2M23 20h1M8 21h2M22 21h1M7 22h1M21 22h1M7 23h1M19 23h2M8 24h1M16 24h3M9 25h7" />
<path stroke="#fff6a4" d="M11 8h1M8 22h4M8 23h3" />
<path stroke="#ded573" d="M12 8h1M11 9h1M20 19h1M12 20h1M15 20h1M19 20h2M22 20h1M10 21h1M13 21h3M18 21h2M21 21h1M12 22h2M16 22h5M11 23h6" />
<path stroke="#ac5a41" d="M13 8h2M12 9h1M14 14h1M11 15h2M14 15h1M12 16h3M13 17h1M13 18h1M12 19h1" />
<path stroke="#ffbd9c" d="M15 8h1M18 8h1M13 9h1M20 9h1M12 10h1M20 10h2M12 11h1M20 11h3M12 12h2M19 12h4M13 13h2M17 13h6M15 14h7M15 15h7M15 16h6M14 17h6M15 18h3" />
<path stroke="#ffe69c" d="M16 8h2M14 9h6M13 10h7M13 11h7M14 12h5M15 13h2" />
<path stroke="#e67b73" d="M21 9h1M22 10h1M11 12h1M23 12h1M11 13h1M23 13h1M11 14h3M23 14h1M13 15h1M22 15h2M22 16h2M12 17h1M21 17h3M19 18h5M13 19h6M21 19h2M13 20h1M16 20h2" />
<path stroke="#ff9483" d="M12 13h1M22 14h1M21 16h1M20 17h1M14 18h1M18 18h1" />
<path stroke="#c5ac62" d="M19 19h1M14 20h1M18 20h1M21 20h1M11 21h2M16 21h2M20 21h1M14 22h2M17 23h2M9 24h7" />
</svg>