<svg xmlns="http://www.w3.org/2000/svg" viewBox="0 -0.5 32 32" shape-rendering="crispEdges">
<metadata>Made with Pixels to Svg https://codepen.io/shshaw/pen/XbxvNj</metadata>
<path stroke="#ffffff" d="M15 5h7M12 6h4M21 6h2M10 7h3M22 7h2M9 8h2M23 8h1M8 9h2M23 9h2M7 10h2M24 10h1M7 11h1M24 11h2M6 12h2M25 12h1M6 13h1M25 13h2M6 14h1M26 14h1M6 15h1M26 15h1M5 16h2M26 16h1M5 17h1M26 17h1M5 18h1M26 18h1M5 19h2M25 19h2M6 20h1M25 20h1M6 21h2M24 21h2M7 22h4M24 22h1M10 23h2M24 23h1M11 24h4M23 24h2M14 25h3M21 25h3M16 26h6" />
<path stroke="#202020" d="M16 6h5M13 7h3M21 7h1M11 8h2M22 8h1M10 9h1M22 9h1M9 10h1M23 10h1M8 11h1M23 11h1M8 12h1M24 12h1M7 13h1M24 13h1M7 14h1M25 14h1M7 15h1M25 15h1M7 16h1M25 16h1M6 17h1M25 17h1M6 18h1M8 18h1M25 18h1M7 19h1M9 19h2M24 19h1M7 20h1M11 20h2M24 20h1M8 21h7M21 21h3M11 22h1M13 22h1M16 22h5M23 22h1M12 23h3M23 23h1M15 24h2M21 24h2M17 25h4" />
<path stroke="#ffc59c" d="M16 7h1M19 7h2M13 8h3M20 8h2M11 9h6M19 9h3M10 10h1M13 10h10M9 11h1M14 11h2M18 11h5M9 12h1M14 12h2M18 12h2M22 12h1M9 13h2M13 13h7M22 13h1M9 14h13M10 15h11M11 16h9M13 17h5" />
<path stroke="#ffe69c" d="M17 7h2M16 8h4M17 9h2M11 10h2M10 11h4M16 11h2M10 12h4M16 12h2M20 12h2M11 13h2M20 13h2" />
<path stroke="#ee9473" d="M23 12h1M8 13h1M23 13h1M8 14h1M23 14h2M8 15h1M22 15h3M8 16h2M21 16h4M9 17h4M19 17h6M9 18h2M12 18h13M12 19h12M13 20h10M15 21h6" />
<path stroke="#ffb473" d="M22 14h1M9 15h1M21 15h1M10 16h1M20 16h1M18 17h1" />
<path stroke="#62cd52" d="M7 17h1M7 18h1M8 19h1M9 20h1" />
<path stroke="#ac5a41" d="M8 17h1M11 18h1M11 19h1M23 20h1" />
<path stroke="#317341" d="M8 20h1M14 22h2M22 22h1M15 23h2M17 24h1" />
<path stroke="#5abd41" d="M10 20h1M12 22h1M21 22h1M17 23h6M18 24h3" />
</svg>