<svg xmlns="http://www.w3.org/2000/svg" viewBox="0 -0.5 32 32" shape-rendering="crispEdges">
<metadata>Made with Pixels to Svg https://codepen.io/shshaw/pen/XbxvNj</metadata>
<path stroke="#ffffff" d="M15 6h6M22 6h4M12 7h4M20 7h3M25 7h2M10 8h3M26 8h1M9 9h2M26 9h1M8 10h2M25 10h2M7 11h2M25 11h1M7 12h1M25 12h2M6 13h2M26 13h1M6 14h1M26 14h1M6 15h1M26 15h1M6 16h1M26 16h1M6 17h1M26 17h1M6 18h1M25 18h2M6 19h1M25 19h1M6 20h2M25 20h1M7 21h1M24 21h2M7 22h1M24 22h1M7 23h2M23 23h2M8 24h2M21 24h3M9 25h5M19 25h3M13 26h7" />
<path stroke="#202020" d="M16 7h4M23 7h2M13 8h3M20 8h3M25 8h1M11 9h2M25 9h1M10 10h1M24 10h1M9 11h1M24 11h1M8 12h1M24 12h1M8 13h1M25 13h1M7 14h1M25 14h1M7 15h1M25 15h1M7 16h1M25 16h1M7 17h1M25 17h1M7 18h1M24 18h1M7 19h1M24 19h1M8 20h1M24 20h1M8 21h1M23 21h1M8 22h1M23 22h1M9 23h1M21 23h2M10 24h4M19 24h2M14 25h5" />
<path stroke="#ded573" d="M16 8h1M15 9h2M22 9h3M15 10h1M21 10h3M16 11h1M22 11h1M16 12h1M21 12h3M17 13h2M20 13h5M21 14h4M21 15h1M23 15h1M9 20h1M10 21h1M14 21h1M9 22h1M12 22h3M10 23h1M13 23h1M14 24h2" />
<path stroke="#eef67b" d="M17 8h2M23 8h2M17 9h4M16 10h5M17 11h5M17 12h4M19 13h1M8 17h1M8 18h1M10 19h2M10 20h1" />
<path stroke="#bdb462" d="M19 8h1M19 14h2M20 15h1M22 15h1M24 15h1M8 16h1M21 16h3M9 17h1M9 18h4M9 19h1M12 19h1M11 20h1M14 20h2M11 21h3M11 22h1" />
<path stroke="#ffd583" d="M13 9h2M11 10h1M10 11h1M9 12h1M9 13h1M16 13h1M8 14h2M15 14h4M8 15h3M14 15h6M9 16h11M10 17h9M13 18h6M13 19h4" />
<path stroke="#9c8b4a" d="M21 9h1M23 11h1M8 19h1M9 21h1M15 21h1M10 22h1M15 22h1M22 22h1M11 23h2M14 23h2M16 24h1" />
<path stroke="#fff683" d="M12 10h3M11 11h5M10 12h6M10 13h6M10 14h5M11 15h3" />
<path stroke="#ee9c73" d="M20 16h1M24 16h1M20 17h5M19 18h5M18 19h6M16 20h8M16 21h7M16 22h6M16 23h5M17 24h2" />
<path stroke="#f6bd7b" d="M19 17h1M17 19h1M12 20h2" />
</svg>