<svg xmlns="http://www.w3.org/2000/svg" viewBox="0 -0.5 32 32" shape-rendering="crispEdges">
<metadata>Made with Pixels to Svg https://codepen.io/shshaw/pen/XbxvNj</metadata>
<path stroke="#ffffff" d="M20 5h5M11 6h10M24 6h2M9 7h3M17 7h2M25 7h2M8 8h2M26 8h1M7 9h2M26 9h1M7 10h1M22 10h1M26 10h1M6 11h2M22 11h1M26 11h1M6 12h1M26 12h1M5 13h2M25 13h2M5 14h1M25 14h1M5 15h1M24 15h2M5 16h1M24 16h1M5 17h1M24 17h1M5 18h1M24 18h1M5 19h2M23 19h2M6 20h1M23 20h1M6 21h1M22 21h2M6 22h2M23 22h3M7 23h2M25 23h2M8 24h4M17 24h3M26 24h1M11 25h7M19 25h3M25 25h2M21 26h5" />
<path stroke="#202020" d="M21 6h3M12 7h5M19 7h2M24 7h1M10 8h2M17 8h2M25 8h1M9 9h1M22 9h2M25 9h1M8 10h1M21 10h1M23 10h1M25 10h1M8 11h1M21 11h1M23 11h1M25 11h1M7 12h1M21 12h2M25 12h1M7 13h1M22 13h1M24 13h1M6 14h1M24 14h1M6 15h1M6 16h1M23 16h1M6 17h1M23 17h1M6 18h1M23 18h1M7 19h1M22 19h1M7 20h1M22 20h1M7 21h1M21 21h1M8 22h1M19 22h2M22 22h1M9 23h3M17 23h3M23 23h2M12 24h5M20 24h2M25 24h1M22 25h3" />
<path stroke="#f6ee39" d="M21 7h3M19 8h5M19 9h2M9 19h1M9 20h1M8 21h1M10 21h2M9 22h1" />
<path stroke="#318b31" d="M12 8h1M10 9h1M9 10h1M8 12h1M7 14h1M22 15h1M9 16h1M22 16h1M9 17h2M21 17h2M7 18h1M11 18h1M17 18h3M21 18h1M12 19h7M20 19h2M13 20h4M19 20h2M13 21h2M17 21h3M15 22h3M12 23h4" />
<path stroke="#39ac39" d="M13 8h3M11 9h3M10 10h2M14 10h1M18 10h1M9 11h2M12 11h2M19 11h1M9 12h1M11 12h2M20 12h1M8 13h2M11 13h2M20 13h1M8 14h1M10 14h3M19 14h2M7 15h2M10 15h4M18 15h3M7 16h1M10 16h11M7 17h1M11 17h9M12 18h5" />
<path stroke="#4a7b41" d="M16 8h1M14 9h4M12 10h2M11 11h1M10 12h1M21 13h1M20 17h1" />
<path stroke="#c5b429" d="M24 8h1M21 9h1M24 9h1M20 10h1M24 10h1M24 11h1M23 12h2M10 19h1M8 20h1M11 20h1M10 22h1M22 23h1M22 24h2" />
<path stroke="#395231" d="M18 9h1M19 10h1M20 11h1M10 13h1M9 14h1M21 14h2M9 15h1M21 15h1M23 15h1M8 16h1M21 16h1M8 17h1M8 18h3M20 18h1M22 18h1M11 19h1M19 19h1M12 20h1M17 20h2M21 20h1M12 21h1M15 21h2M20 21h1M12 22h3M18 22h1M16 23h1" />
<path stroke="#41cd41" d="M15 10h3M14 11h1M18 11h1M13 12h2M18 12h2M13 13h7M13 14h6M14 15h4" />
<path stroke="#8bee8b" d="M15 11h3M15 12h3" />
<path stroke="#aca420" d="M23 13h1M23 14h1M8 19h1M10 20h1M9 21h1M11 22h1M21 22h1M20 23h2M24 24h1" />
</svg>