<svg xmlns="http://www.w3.org/2000/svg" viewBox="0 -0.5 32 32" shape-rendering="crispEdges">
<metadata>Made with Pixels to Svg https://codepen.io/shshaw/pen/XbxvNj</metadata>
<path stroke="#202020" d="M11 5h2M11 6h1M13 6h2M10 7h1M15 7h2M10 8h1M17 8h2M20 8h2M9 9h1M18 9h2M22 9h1M9 10h1M16 10h2M22 10h1M8 11h1M14 11h2M23 11h1M8 12h1M12 12h2M23 12h1M7 13h1M10 13h2M24 13h1M7 14h3M24 14h1M6 15h2M25 15h1M5 16h1M25 16h1M5 17h1M26 17h1M6 18h1M26 18h1M6 19h1M24 19h2M7 20h1M22 20h2M7 21h1M20 21h2M8 22h1M18 22h2M8 23h1M16 23h2M9 24h1M14 24h2M9 25h1M12 25h2M10 26h2" />
<path stroke="#a4eeff" d="M12 6h1M11 7h1M13 7h2M11 8h1M15 8h2M10 9h1M17 9h1M10 10h1M20 10h2M9 11h1M18 11h2M9 12h1M16 12h2M8 13h1M14 13h2M12 14h2M10 15h2M21 15h1M8 16h2M22 16h2M6 17h2M19 17h1M19 18h1M24 18h2M13 19h1M19 19h1M22 19h2M14 20h2M20 20h2M11 21h1M18 21h2M11 22h1M16 22h2M11 23h1M14 23h2M12 24h1M10 25h2" />
<path stroke="#18def6" d="M12 7h1M12 8h3M11 9h6M20 9h2M11 10h5M18 10h2M10 11h4M16 11h2M20 11h3M10 12h2M14 12h2M18 12h5M9 13h1M12 13h2M16 13h8M10 14h2M14 14h10M8 15h2M12 15h8M22 15h3M6 16h2M10 16h10M21 16h1M24 16h1M8 17h11M20 17h1M22 17h2M7 18h12M20 18h1M7 19h5M14 19h5M8 20h4M13 20h1M16 20h2M8 21h3M12 21h1M14 21h2M9 22h2M12 22h1M9 23h2" />
<path stroke="#e6ffff" d="M20 15h1M20 16h1M21 17h1M24 17h2M21 18h3M12 19h1M20 19h2M12 20h1M18 20h2M13 21h1M16 21h2M13 22h3M12 23h2M10 24h2" />
</svg>