<svg xmlns="http://www.w3.org/2000/svg" viewBox="0 -0.5 32 32" shape-rendering="crispEdges">
<metadata>Made with Pixels to Svg https://codepen.io/shshaw/pen/XbxvNj</metadata>
<path stroke="#8078d0" d="M11 5h2M11 6h1M13 6h2M10 7h1M15 7h2M10 8h1M17 8h2M9 9h1M9 10h1M8 11h1M8 12h1M7 13h1M7 14h1" />
<path stroke="#d0c8f8" d="M12 6h1M11 7h1M13 7h2M11 8h1M15 8h2M10 9h1M17 9h1M10 10h1M9 11h1M9 12h1M8 13h1" />
<path stroke="#c0f8f0" d="M12 7h1M12 8h1M12 9h1M16 9h1M12 10h1M12 11h1" />
<path stroke="#f8e0e0" d="M13 8h1M13 9h1M13 10h1M13 11h1M9 13h1" />
<path stroke="#f8f8d8" d="M14 8h1M14 9h1M20 9h1M14 10h1M10 11h1M10 12h1" />
<path stroke="#303030" d="M20 8h2M18 9h2M22 9h1M16 10h2M22 10h1M14 11h2M23 11h1M12 12h2M23 12h1M10 13h2M24 13h1M8 14h2M24 14h1M6 15h2M25 15h1M5 16h1M25 16h1M5 17h1M26 17h1M6 18h1M26 18h1M6 19h1M24 19h2M7 20h1M22 20h2M7 21h1M20 21h2M8 22h1M18 22h2M8 23h1M16 23h2M9 24h1M14 24h2M9 25h1M12 25h2M10 26h2" />
<path stroke="#e0f8d0" d="M11 9h1M15 9h1M11 10h1M15 10h1M11 11h1M11 12h1" />
<path stroke="#f8f8f8" d="M21 9h1M18 10h2M18 11h2M22 11h1M16 12h2M20 12h2M12 13h2M16 13h2M20 13h2M10 14h2M14 14h2M18 14h2M22 14h2M10 15h2M14 15h2M18 15h2M22 15h2M8 16h2M12 16h2M16 16h2M20 16h2M24 16h1M8 17h2M12 17h2M16 17h2M20 17h2M24 17h2M7 18h1M10 18h2M14 18h2M18 18h2M22 18h2M7 19h1M10 19h2M14 19h2M18 19h2M22 19h2M8 20h2M12 20h2M16 20h2M20 20h2M8 21h2M13 21h1M16 21h2M10 22h2M14 22h2M10 23h2M14 23h2M12 24h2" />
<path stroke="#b0f080" d="M20 10h2M20 11h2M20 14h2M20 15h2M10 16h2M10 17h2M20 18h2M20 19h2M10 20h2M10 21h2M10 24h2M10 25h2" />
<path stroke="#f8b0b0" d="M16 11h2M16 14h2M16 15h2M6 16h2M6 17h2M16 18h2M16 19h2M16 22h2" />
<path stroke="#c0b8f8" d="M14 12h2M14 13h2M24 15h1M14 16h2M14 17h2M24 18h2M14 20h2M14 21h2" />
<path stroke="#f8e848" d="M18 12h2M18 13h2M8 15h2M18 16h2M18 17h2M8 18h2M8 19h2M18 20h2M18 21h2M9 22h1M9 23h1" />
<path stroke="#80f0e0" d="M22 12h1M22 13h2M12 14h2M12 15h2M22 16h2M22 17h2M12 18h2M12 19h2M12 22h2M12 23h2" />
<path stroke="#e8f0f8" d="M12 21h1" />
</svg>