<svg xmlns="http://www.w3.org/2000/svg" viewBox="0 -0.5 32 32" shape-rendering="crispEdges">
<metadata>Made with Pixels to Svg https://codepen.io/shshaw/pen/XbxvNj</metadata>
<path stroke="#707070" d="M11 5h2M11 6h1M13 6h2M10 7h1M15 7h2M10 8h1M17 8h2M9 9h1M9 10h1M8 11h1M8 12h1M7 13h1M7 14h1" />
<path stroke="#98a0b8" d="M12 6h1M11 7h1M13 7h2M11 8h1M15 8h2M10 9h1M17 9h1M10 10h1M9 11h1M9 12h1M8 13h1" />
<path stroke="#c8c8c8" d="M12 7h1M12 8h3M11 9h6M11 10h5M10 11h4M10 12h2M9 13h1" />
<path stroke="#303030" d="M20 8h2M18 9h2M22 9h1M16 10h2M22 10h1M14 11h2M23 11h1M12 12h2M23 12h1M10 13h2M24 13h1M8 14h2M24 14h1M6 15h2M25 15h1M5 16h1M25 16h1M5 17h1M26 17h1M6 18h1M26 18h1M6 19h1M24 19h2M7 20h1M22 20h2M7 21h1M20 21h2M8 22h1M18 22h2M8 23h1M16 23h2M9 24h1M14 24h2M9 25h1M12 25h2M10 26h2" />
<path stroke="#989898" d="M20 9h2M22 11h1M14 12h1M21 12h1M12 13h1M10 14h1M13 14h3M8 15h1M11 15h5M24 15h1M9 16h5M23 16h1M6 17h1M8 17h4M25 17h1M8 18h2M25 18h1M7 19h1M17 19h1M15 20h4M21 20h1M13 21h4M19 21h1M11 22h4M17 22h1M9 23h1M11 23h2M15 23h1M13 24h1M10 25h2" />
<path stroke="#787880" d="M18 10h1M16 11h1M18 11h2M16 12h1M19 12h1M16 13h2M19 13h2M22 13h2M17 14h1M20 14h4M17 15h2M20 15h3M16 16h3M21 16h1M14 17h6M21 17h2M12 18h5M19 18h1M22 18h1M10 19h5M19 19h2M22 19h2M8 20h5M20 20h1M8 21h3" />
<path stroke="#b0b0b0" d="M19 10h3M17 11h1M20 11h2M15 12h1M17 12h2M20 12h1M22 12h1M13 13h3M18 13h1M21 13h1M11 14h2M16 14h1M18 14h2M9 15h2M16 15h1M19 15h1M23 15h1M6 16h3M14 16h2M19 16h2M22 16h1M24 16h1M7 17h1M12 17h2M20 17h1M23 17h2M7 18h1M10 18h2M17 18h2M20 18h2M23 18h2M8 19h2M15 19h2M18 19h1M21 19h1M13 20h2M19 20h1M11 21h2M17 21h2M9 22h2M15 22h2M10 23h1M13 23h2M10 24h3" />
</svg>