<svg xmlns="http://www.w3.org/2000/svg" viewBox="0 -0.5 32 32" shape-rendering="crispEdges">
<metadata>Made with Pixels to Svg https://codepen.io/shshaw/pen/XbxvNj</metadata>
<path stroke="#202020" d="M11 5h2M11 6h1M13 6h2M10 7h1M15 7h2M10 8h1M17 8h2M20 8h2M9 9h1M18 9h2M22 9h1M9 10h1M16 10h2M22 10h1M8 11h1M14 11h2M23 11h1M8 12h1M12 12h2M23 12h1M7 13h1M10 13h2M24 13h1M7 14h3M24 14h1M6 15h2M25 15h1M5 16h1M25 16h1M5 17h1M26 17h1M6 18h1M26 18h1M6 19h1M24 19h2M7 20h1M22 20h2M7 21h1M20 21h2M8 22h1M18 22h2M8 23h1M16 23h2M9 24h1M14 24h2M9 25h1M12 25h2M10 26h2" />
<path stroke="#52bd7b" d="M12 6h1M11 7h4M11 8h1M14 8h3M10 9h2M16 9h2M10 10h1M9 11h2M9 12h1M8 13h2M25 17h1M24 18h2M10 24h1M10 25h2" />
<path stroke="#ace6bd" d="M12 8h2M12 9h4M11 10h5M11 11h3M10 12h2M14 14h2M13 15h4M14 16h2M14 23h2" />
<path stroke="#ffffff" d="M20 9h2M18 10h2M21 10h1M16 11h3M22 11h1M14 12h3M19 12h1M22 12h1M12 13h10M23 13h1M10 14h4M16 14h8M8 15h2M12 15h1M17 15h6M24 15h1M6 16h2M10 16h4M16 16h7M24 16h1M6 17h1M10 17h13M24 17h1M7 18h1M9 18h13M23 18h1M7 19h2M10 19h12M23 19h1M8 20h13M9 21h11M11 22h7M9 23h2M11 24h3" />
<path stroke="#8bd5a4" d="M20 10h1M19 11h3M17 12h2M20 12h2M22 13h1M10 15h2M23 15h1M8 16h2M23 16h1M7 17h3M23 17h1M8 18h1M22 18h1M9 19h1M22 19h1M21 20h1M8 21h1M9 22h2M11 23h3" />
</svg>