<svg xmlns="http://www.w3.org/2000/svg" viewBox="0 -0.5 32 32" shape-rendering="crispEdges">
<metadata>Made with Pixels to Svg https://codepen.io/shshaw/pen/XbxvNj</metadata>
<path stroke="#6080e0" d="M11 5h2M11 6h1M13 6h2M10 7h1M15 7h2M10 8h1M17 8h2M9 9h1M9 10h1M8 11h1M19 11h4M8 12h1M18 12h1M20 12h3M7 13h1M17 13h4M7 14h1M17 14h2M17 15h1M16 16h2M15 17h2M15 18h2M15 19h2M15 20h2M12 21h6M13 22h5M15 23h1" />
<path stroke="#7898f0" d="M12 6h1M11 7h1M13 7h2M11 8h1M15 8h2M10 9h1M17 9h1M10 10h1M9 11h1M18 11h1M9 12h1M17 12h1M8 13h1M16 13h1M16 14h1M15 15h1M15 16h1M12 20h3" />
<path stroke="#e8f8f8" d="M12 7h1M12 8h3M11 9h6M11 10h5M10 11h4M10 12h2M9 13h1M14 13h1M21 13h1M23 13h1M19 14h2M22 14h1M18 15h1M20 15h2M11 16h1M18 16h2M8 17h2M17 17h1M19 17h1M8 18h2M13 18h1M17 18h2M18 19h1M17 20h1M10 21h1M12 23h1" />
<path stroke="#303030" d="M20 8h2M18 9h2M22 9h1M16 10h2M22 10h1M14 11h2M23 11h1M12 12h2M23 12h1M10 13h2M24 13h1M8 14h2M24 14h1M6 15h2M25 15h1M5 16h1M25 16h1M5 17h1M26 17h1M6 18h1M26 18h1M6 19h1M24 19h2M7 20h1M22 20h2M7 21h1M20 21h2M8 22h1M18 22h2M8 23h1M16 23h2M9 24h1M14 24h2M9 25h1M12 25h2M10 26h2" />
<path stroke="#90d8f0" d="M20 9h2M18 10h4M16 11h2M14 12h3M12 13h2M15 13h1M22 13h1M10 14h6M21 14h1M23 14h1M8 15h7M19 15h1M6 16h5M12 16h3M20 16h1M6 17h2M10 17h5M18 17h1M7 18h1M10 18h3M14 18h1M7 19h8M17 19h1M8 20h4M8 21h2M11 21h1M9 22h4M9 23h3M13 23h2M10 24h4M10 25h2" />
<path stroke="#4060c0" d="M19 12h1M16 15h1" />
<path stroke="#e8d8a8" d="M22 15h2M21 16h1M20 17h1M24 17h2M19 18h1M22 18h1M19 19h1M23 19h1M18 20h1M21 20h1M18 21h1" />
<path stroke="#f8f0e0" d="M24 15h1M22 16h3M21 17h3M20 18h2M23 18h3M20 19h3M19 20h2M19 21h1" />
</svg>