<svg xmlns="http://www.w3.org/2000/svg" viewBox="0 -0.5 80 80" shape-rendering="crispEdges">
<metadata>Made with Pixels to Svg https://codepen.io/shshaw/pen/XbxvNj</metadata>
<path stroke="#526329" d="M32 19h3M31 20h1M35 20h2M30 21h2M33 21h1M36 21h1M32 22h1M34 22h1M37 22h3M32 23h1M35 23h1M40 23h3M30 24h1M36 24h2M43 24h1M38 25h3M41 26h1M42 27h1M42 28h1M43 29h1M25 32h1M25 33h1M30 34h1M26 35h1M31 35h1" />
<path stroke="#a5d642" d="M32 20h1M30 22h2M33 22h1M31 23h1M33 23h2M31 24h1M33 24h3M31 25h1M34 25h4M35 26h4M35 27h5M35 28h5M35 29h5M34 30h5M26 31h1M34 31h4M26 32h2M31 32h5M26 33h4M31 33h3M27 34h3" />
<path stroke="#73ad31" d="M33 20h2M32 21h1M35 21h1M29 22h1M35 22h2M30 23h1M36 23h4M32 24h1M38 24h5M29 25h1M32 25h1M41 25h4M28 26h1M31 26h1M39 26h2M42 26h4M27 27h1M30 27h1M40 27h2M43 27h3M27 28h1M30 28h1M40 28h2M43 28h4M26 29h1M29 29h1M40 29h3M44 29h3M26 30h1M29 30h1M39 30h4M44 30h3M25 31h1M29 31h1M38 31h5M44 31h3M29 32h1M36 32h3M41 32h2M44 32h2M30 33h1M34 33h4M42 33h1M44 33h2M25 34h2M31 34h5M42 34h1M44 34h1M27 35h4M43 35h1M28 36h1" />
<path stroke="#101010" d="M34 21h1M44 24h1M45 25h1M46 26h1M46 27h1M47 28h1M47 29h1M43 30h1M47 30h1M43 31h1M47 31h1M43 32h1M46 32h1M43 33h1M46 33h1M43 34h1M45 34h1M42 35h1M44 35h1M27 36h1M43 36h1M48 37h1M56 37h1M47 38h1M56 38h1M48 39h1M56 39h1M48 40h1M56 40h1M49 41h1M56 41h1M50 42h1M55 42h1M52 43h3M43 44h1M42 45h1M41 46h2M53 46h1M41 47h1M45 47h1M54 47h1M38 48h1M40 48h1M44 48h1M55 48h1M37 49h1M44 49h3M55 49h1M35 50h1M43 50h1M47 50h1M54 50h1M26 51h1M28 51h4M42 51h1M49 51h1M53 51h1M25 52h1M28 52h2M41 52h1M50 52h3M26 53h1M40 53h1M38 54h3M32 55h4M40 55h1M40 56h1M40 57h1M39 58h1" />
<path stroke="#bdff73" d="M30 25h1M33 25h1M29 26h2M32 26h3M28 27h2M31 27h4M28 28h2M31 28h4M27 29h2M30 29h5M27 30h2M30 30h4M27 31h2M30 31h4M28 32h1M30 32h1" />
<path stroke="#194a4a" d="M48 30h3M39 32h2M38 33h1M41 33h1M36 34h1M41 34h1M32 35h3M41 35h1M55 35h1M29 36h3M42 36h1M50 36h2M56 36h1M27 37h2M43 37h1M49 37h1M51 37h1M53 37h1M24 38h3M44 38h1M49 38h1M25 39h1M44 39h1M40 40h1M45 40h1M41 41h1M45 41h1M48 42h1M51 42h1M23 43h1M36 43h1M43 43h1M49 43h3M36 44h1M51 44h1M25 45h1M52 45h1M26 46h1M45 46h1M39 47h1M42 47h1M48 47h2M23 48h1M48 48h2M23 49h1M36 49h1M49 49h2M24 50h1M34 50h1M48 50h1M24 51h2M32 51h1M27 52h1M27 53h1M29 53h6M28 54h2M37 54h1M30 55h2M36 55h1M33 56h1M34 57h1M33 58h1M35 58h1M37 58h1M34 59h5" />
<path stroke="#3a9494" d="M48 31h5M47 32h3M53 32h1M40 33h1M47 33h4M54 33h1M37 34h1M40 34h1M46 34h5M55 34h1M35 35h1M40 35h1M45 35h7M32 36h1M39 36h3M44 36h6M52 36h2M55 36h1M29 37h1M39 37h4M44 37h4M54 37h2M23 38h1M29 38h2M39 38h5M45 38h2M50 38h6M22 39h1M28 39h3M38 39h6M45 39h3M49 39h7M22 40h1M27 40h3M35 40h1M37 40h1M41 40h4M46 40h2M49 40h7M22 41h1M27 41h2M32 41h1M35 41h1M42 41h3M46 41h3M50 41h6M23 42h2M31 42h2M36 42h1M41 42h7M49 42h1M52 42h3M31 43h2M42 43h1M44 43h5M23 44h2M31 44h1M41 44h2M44 44h7M23 45h1M36 45h1M40 45h2M43 45h9M23 46h1M37 46h4M43 46h2M46 46h7M23 47h1M27 47h1M38 47h1M43 47h2M46 47h2M50 47h4M32 48h1M37 48h1M42 48h2M45 48h3M50 48h5M25 49h1M27 49h1M30 49h1M35 49h1M41 49h3M47 49h2M51 49h3M32 50h2M40 50h3M49 50h4M41 51h1M50 51h3M26 52h1M37 52h1M40 52h1M28 53h1M35 53h1M39 53h1M30 54h3M36 54h1M37 55h3M34 56h6M35 57h5" />
<path stroke="#63d6b5" d="M50 32h3M39 33h1M51 33h3M38 34h2M51 34h4M36 35h4M52 35h3M33 36h6M54 36h1M33 37h6M27 38h1M33 38h6M24 39h1M33 39h5M32 40h3M36 40h1M23 41h1M33 41h2M36 41h1M30 42h1M33 42h3M24 43h1M29 43h2M33 43h3M29 44h2M32 44h4M28 45h8M27 46h10M28 47h10M28 48h4M33 48h4M24 49h1M28 49h2M31 49h4M25 50h7M39 51h2M38 52h2M36 53h3M33 54h3" />
<path stroke="#84efc5" d="M30 37h3M28 38h1M31 38h2M23 39h1M26 39h2M31 39h2M23 40h4M30 40h2M24 41h3M29 41h3M25 42h5M25 43h4M25 44h4M26 45h2" />
<path stroke="#cecece" d="M50 37h1M48 38h1M38 40h2M37 41h1M40 41h1M41 43h1M40 44h1M24 45h1M24 48h1M54 49h1M53 50h1M38 58h1" />
<path stroke="#ffffff" d="M52 37h1M38 41h2M39 42h2M40 43h1M37 44h1M37 45h1M24 46h1M24 47h1M26 47h1M40 47h1M26 48h1M27 51h1M34 58h1M36 58h1" />
<path stroke="#bd2921" d="M37 42h1M37 43h2M38 44h1M38 45h1M25 46h1M25 48h1M39 48h1M41 48h1M38 49h3M39 50h1M33 51h1M30 52h3" />
<path stroke="#ff6b63" d="M38 42h1M39 43h1M35 51h4M33 52h4" />
<path stroke="#de4a42" d="M39 44h1M39 45h1M25 47h1M27 48h1M26 49h1M36 50h3M34 51h1" />
</svg>