<svg xmlns="http://www.w3.org/2000/svg" viewBox="0 -0.5 80 80" shape-rendering="crispEdges">
<metadata>Made with Pixels to Svg https://codepen.io/shshaw/pen/XbxvNj</metadata>
<path stroke="#e64a19" d="M15 17h4M13 18h1M20 18h1M22 19h1M12 20h1M23 20h1M11 22h1M14 22h5M24 22h1M13 23h7M12 24h9M11 25h10M11 26h11M11 27h11M24 27h1M10 28h12M10 29h12M10 30h12M10 31h12M10 32h12M24 32h1M36 32h2M39 32h3M11 33h12M36 33h1M41 33h2M11 34h12M25 34h1M35 34h1M41 34h3M11 35h13M35 35h1M40 35h3M12 36h13M34 36h1M39 36h4M12 37h14M33 37h1M38 37h4M13 38h15M36 38h5M13 39h20M37 39h3M14 40h17M37 40h1M15 41h21M17 42h17M19 43h13M22 44h6" />
<path stroke="#9c2110" d="M19 17h2M14 18h1M21 18h2M12 19h1M23 19h1M11 20h1M24 20h1M11 21h1M24 21h1M10 22h1M25 22h1M10 23h1M25 23h1M25 24h1M9 25h1M25 25h1M9 26h1M25 26h1M9 27h1M25 27h1M9 28h1M24 28h1M24 29h1M24 30h1M24 31h1M25 32h1M10 33h1M25 33h1M37 33h1M26 34h1M36 34h1M26 35h1M31 35h1M11 36h1M27 36h1M28 37h2M12 38h1M30 38h2M41 38h1M33 39h3" />
<path stroke="#ff8452" d="M15 18h5M13 19h9M13 20h10M12 21h12M12 22h2M19 22h5M11 23h2M20 23h5M11 24h1M21 24h4M10 25h1M21 25h4M10 26h1M22 26h3M10 27h1M22 27h2M22 28h2M22 29h2M22 30h2M22 31h2M22 32h2M23 33h2M40 33h1M23 34h2M24 35h2M34 35h1M25 36h2M26 37h2M28 38h2M36 39h1M31 40h3M35 40h2" />
<path stroke="#ef736b" d="M37 19h2M34 20h3M32 21h2M60 22h1M58 23h2M31 24h1M56 24h2M31 25h1M29 26h2M49 27h1M49 28h1M28 29h1M42 29h1M49 29h2M65 29h1M29 30h1M43 30h1M48 30h3M65 30h2M29 31h2M44 31h7M66 31h1M70 31h2M30 32h2M45 32h6M66 32h7M31 33h2M46 33h5M58 33h2M67 33h6M31 34h1M45 34h1M47 34h3M67 34h7M28 35h1M44 35h6M68 35h6M30 36h1M44 36h7M60 36h1M68 36h7M43 37h7M59 37h3M68 37h7M42 38h4M47 38h3M58 38h3M66 38h2M71 38h5M41 39h3M47 39h4M54 39h7M66 39h2M73 39h3M40 40h2M47 40h13M66 40h2M47 41h10M66 41h3M46 42h6M66 42h3M46 43h10M65 43h4M46 44h11M65 44h4M46 45h1M48 45h8M64 45h5M46 46h1M48 46h10M62 46h7M48 47h11M60 47h9M48 48h12M61 48h7M33 49h2M48 49h4M56 49h4M61 49h7M49 50h1M58 50h3M62 50h6M59 51h2M62 51h5M48 52h1M59 52h3M63 52h4M46 53h1M58 53h4M63 53h3M45 54h2M59 54h3M63 54h3M35 55h2M43 55h3M47 55h2M59 55h4M64 55h1M36 56h9M47 56h3M55 56h2M59 56h4M38 57h5M47 57h3M52 57h5M59 57h3M47 58h3M53 58h3M59 58h3M48 59h3M58 59h3M48 60h5M56 60h4M49 61h11M50 62h2M55 62h3M57 63h1" />
<path stroke="#ce5231" d="M39 19h4M43 20h2M45 21h1M31 22h1M61 22h3M55 25h1M28 26h1M49 26h1M27 27h1M31 27h1M33 27h1M27 28h1M36 28h1M39 28h1M30 29h1M34 29h2M41 29h1M52 29h1M65 31h1M58 32h1M57 34h1M60 34h1M50 35h1M52 35h1M58 35h1M60 35h1M51 36h1M59 36h1M61 36h1M46 38h1M44 39h2M42 40h2M39 41h3M32 46h1M32 47h1M32 48h3M32 49h1M31 50h1M48 50h1M31 51h1M30 52h3M47 52h1M30 53h3M29 54h5M29 55h5M29 56h1M33 56h2M35 57h1M31 58h2M36 58h2M45 58h1M30 59h4M36 59h5M45 59h2M32 60h2M36 60h8M60 60h1M36 61h7M37 62h4M58 62h1" />
<path stroke="#ffceb5" d="M37 20h6M34 21h11M32 22h8M32 23h7M60 23h4M33 24h4M58 24h6M56 25h9M55 26h10M54 27h10M54 28h10M54 29h9M56 30h4M56 34h1M54 35h4M54 36h4" />
<path stroke="#7b1910" d="M46 21h1M47 22h1M41 23h2M48 23h1M64 23h2M40 24h1M43 24h1M48 24h1M66 24h2M43 25h1M49 25h1M68 25h1M42 26h1M54 26h1M69 26h1M50 27h1M53 27h1M70 27h1M28 28h1M50 28h1M52 28h1M71 28h1M27 29h1M36 29h4M71 29h1M28 30h1M34 30h8M72 30h1M32 31h4M42 31h1M72 31h1M33 32h1M43 32h1M59 32h2M65 32h1M73 32h1M43 33h1M45 33h1M51 33h1M56 33h2M61 33h2M66 33h1M73 33h1M46 34h1M50 34h1M54 34h2M63 34h1M66 34h1M74 34h1M51 35h1M53 35h1M63 35h1M67 35h1M74 35h1M62 36h1M67 36h1M62 37h1M67 37h1M75 37h1M61 38h1M68 38h3M61 39h1M72 39h1M60 40h1M57 41h3M52 42h1M56 43h1M57 44h1M56 45h2M31 46h1M58 46h1M31 47h1M59 47h1M31 48h1M60 48h1M68 48h1M31 49h1M60 49h1M30 50h1M32 50h1M61 50h1M68 50h1M30 51h1M32 51h1M48 51h1M61 51h1M67 51h1M29 52h1M62 52h1M29 53h1M33 53h1M47 53h1M62 53h1M66 53h1M28 54h1M47 54h1M62 54h1M28 55h1M34 55h1M46 55h1M63 55h1M28 56h1M35 56h1M46 56h1M63 56h1M28 57h1M37 57h1M46 57h1M29 58h1M46 58h1M44 59h1M47 59h1M47 60h1M31 61h1M35 61h1M32 62h2M36 62h1M54 62h1M32 63h1M37 63h1M50 63h2M55 63h2M50 64h1" />
<path stroke="#ffa59c" d="M40 22h7M31 23h1M39 23h2M43 23h5M32 24h1M37 24h3M44 24h4M64 24h2M32 25h8M44 25h5M65 25h3M31 26h10M43 26h6M65 26h4M28 27h3M32 27h1M34 27h15M64 27h6M29 28h7M40 28h9M53 28h1M64 28h7M31 29h3M43 29h6M53 29h1M63 29h2M66 29h5M44 30h4M52 30h4M60 30h5M67 30h5M52 31h13M67 31h3M52 32h6M61 32h4M52 33h4M60 33h1M63 33h3M51 34h3M64 34h2M27 35h1M64 35h3M28 36h1M52 36h2M58 36h1M63 36h4M50 37h9M63 37h4M50 38h8M62 38h4M51 39h3M62 39h4M61 40h5M60 41h6M57 42h9M57 43h8M45 44h1M58 44h7M45 45h1M58 45h6M44 46h2M59 46h3M43 47h3M41 48h5M35 49h10M52 49h4M33 50h11M50 50h8M34 51h7M49 51h10M49 52h3M57 52h2M48 53h3M48 54h2M53 54h3M49 55h1M52 55h5M52 56h3" />
<path stroke="#101010" d="M30 23h1M10 24h1M29 24h2M41 24h2M29 25h1M40 25h1M42 25h1M41 26h1M37 28h2M9 29h1M29 29h1M40 29h1M51 29h1M9 30h1M30 30h4M42 30h1M51 30h1M9 31h1M28 31h1M31 31h1M36 31h6M43 31h1M51 31h1M9 32h1M29 32h1M32 32h1M34 32h2M38 32h1M42 32h1M44 32h1M51 32h1M30 33h1M33 33h1M44 33h1M10 34h1M27 34h2M30 34h1M32 34h1M44 34h1M10 35h1M29 35h2M43 35h1M29 36h1M43 36h1M75 36h1M11 37h1M42 37h1M76 38h1M12 39h1M40 39h1M68 39h1M70 39h2M76 39h1M13 40h1M38 40h2M68 40h1M73 40h3M14 41h1M36 41h2M69 41h1M15 42h2M34 42h2M53 42h4M69 42h1M17 43h2M32 43h2M69 43h1M19 44h3M28 44h4M69 44h1M22 45h6M31 45h1M69 45h1M69 46h1M69 47h1M68 49h1M67 52h1M66 54h1M65 55h1M64 56h1M36 57h1M62 57h1M38 58h2M62 58h1M29 59h1M41 59h3M61 59h1M30 60h1M44 60h3M61 60h1M32 61h1M34 61h1M43 61h1M48 61h1M60 61h1M41 62h2M49 62h1M52 62h2M59 62h1M38 63h3M58 63h1M33 64h5M56 64h2M51 65h6" />
<path stroke="#ffffff" d="M30 25h1M41 25h1M58 34h2M61 34h2M61 35h2M52 63h2M51 64h2" />
<path stroke="#ffa594" d="M34 33h2M38 33h2M33 34h2M37 34h4M32 35h2M36 35h4M31 36h3M35 36h4M30 37h3M34 37h4M32 38h4M34 40h1" />
<path stroke="#ded6de" d="M59 35h1M34 62h2M33 63h4M54 63h1M53 64h3" />
<path stroke="#ffffa5" d="M46 39h1M44 40h3M43 41h4M42 42h4M42 43h4M41 44h4M41 45h4M40 46h4M39 47h4M37 48h4M47 48h1M45 49h2M44 50h3M41 51h5M34 52h10M52 52h5M36 53h5M51 53h7M50 54h3M56 54h2M50 55h2" />
<path stroke="#e6d673" d="M38 41h1M42 41h1M36 42h6M34 43h8M32 44h9M32 45h9M47 45h1M33 46h7M47 46h1M33 47h6M46 47h2M35 48h2M46 48h1M47 49h1M47 50h1M33 51h1M46 51h2M33 52h1M44 52h3M34 53h2M41 53h5M34 54h11M58 54h1M37 55h6M57 55h2M30 56h3M50 56h2M57 56h2M29 57h5M50 57h2M57 57h2M50 58h3M56 58h3M51 59h7M53 60h3" />
<path stroke="#bdad21" d="M45 56h1M34 57h1M43 57h3M30 58h1M33 58h3M40 58h5M34 59h2M31 60h1M34 60h2M33 61h1" />
</svg>