<svg xmlns="http://www.w3.org/2000/svg" viewBox="0 -0.5 80 80" shape-rendering="crispEdges">
<metadata>Made with Pixels to Svg https://codepen.io/shshaw/pen/XbxvNj</metadata>
<path stroke="#e6737b" d="M35 17h3M32 18h3M31 19h1M29 20h2M28 21h1M50 27h1M24 28h1M23 29h1M48 29h1M22 30h1M46 31h1M46 32h1M47 33h1M48 34h1M26 36h1M27 37h1M23 38h1M40 38h1M39 39h1M29 40h1M43 40h1M28 41h1M24 45h1" />
<path stroke="#8c4242" d="M38 17h5M44 18h1M46 19h1M47 20h1M26 21h2M16 22h3M23 22h3M27 22h1M15 23h1M19 23h4M26 23h1M50 24h2M13 25h4M20 25h2M52 25h1M12 26h1M17 26h3M23 26h1M53 26h3M21 27h2M56 27h6M13 28h1M19 28h2M51 28h1M62 28h1M14 29h5M52 29h2M13 30h1M32 30h1M49 30h1M54 30h2M60 30h1M21 31h1M33 31h1M50 31h1M56 31h1M14 32h1M19 32h1M51 32h1M60 32h2M15 33h1M18 33h1M52 33h2M62 33h1M54 34h2M48 35h1M56 35h1M49 36h1M19 37h1M50 37h1M19 38h1M28 38h1M23 39h1M29 39h1M54 39h1M24 40h2M38 40h1M27 41h1M37 41h1M43 41h1M37 42h1M41 42h2M56 43h1M25 45h1M20 46h1M24 46h1M26 46h1M37 46h1M39 46h1M58 46h2M21 47h1M24 47h1M27 47h2M34 47h3M39 47h1M54 47h1M56 47h2M21 48h1M24 48h1M29 48h5M39 48h1M54 48h1M22 49h1M25 49h1M39 49h1M53 49h1M22 50h1M25 50h1M38 50h1M53 50h1M23 51h1M26 51h1M38 51h1M52 51h1M24 52h1M27 52h1M37 52h1M25 53h1M28 53h2M35 53h2M31 54h4M24 55h1M27 55h2M23 56h1M29 56h2M46 56h3M22 57h1M30 57h1M33 57h2M45 57h2M50 57h1M22 58h1M45 58h1M51 58h1M23 59h1" />
<path stroke="#ffe6e6" d="M35 18h3M32 19h7M31 20h8M30 21h9M30 22h8M30 23h7M30 24h5" />
<path stroke="#ffd6d6" d="M38 18h5M39 19h5M39 20h6M29 21h1M39 21h7M28 22h2M38 22h8M27 23h3M37 23h10M25 24h5M35 24h12M23 25h8M32 25h16M20 26h3M24 26h7M32 26h6M39 26h9M23 27h8M32 27h6M39 27h9M21 28h3M25 28h13M39 28h12M20 29h3M24 29h24M49 29h3M21 30h1M23 30h9M34 30h2M38 30h11M50 30h2M23 31h10M37 31h9M47 31h2M22 32h24M47 32h3M22 33h11M35 33h12M48 33h3M21 34h26M49 34h4M21 35h26M51 35h3M21 36h4M27 36h21M20 37h7M28 37h20M20 38h3M24 38h4M29 38h2M34 38h6M42 38h7M20 39h3M25 39h4M36 39h3M40 39h9M20 40h3M27 40h1M37 40h1M39 40h4M44 40h5M20 41h4M38 41h4M44 41h4M21 42h4M39 42h1M44 42h4M22 43h3M43 43h4M23 44h2M41 44h4M39 45h4" />
<path stroke="#101010" d="M43 18h1M45 19h1M48 21h1M49 22h1M50 23h1M15 24h1M51 25h1M31 26h1M12 27h1M31 27h1M38 27h1M38 28h1M62 29h1M36 30h1M61 30h1M13 31h1M22 31h1M34 31h2M57 31h3M20 32h2M16 33h2M21 33h1M20 34h1M62 34h1M20 35h1M57 35h2M60 35h2M20 36h1M59 36h1M51 37h1M59 37h1M52 38h2M57 38h2M19 39h1M55 39h2M19 40h1M56 40h1M19 41h1M26 41h1M56 41h1M19 42h1M56 42h1M19 43h1M38 43h3M20 44h1M55 44h1M20 45h1M55 45h1M55 46h1M60 46h1M55 47h1M61 47h1M61 48h1M60 49h1M59 50h1M57 51h2M51 52h1M55 52h2M50 53h1M53 53h2M26 54h2M48 54h5M25 55h1M29 55h1M46 55h3M31 56h2M42 56h4M49 56h1M31 57h1M35 57h7M44 57h1M28 58h3M44 58h1M24 59h4M45 59h1M51 59h1M46 60h2M51 60h1M48 61h3" />
<path stroke="#ffadad" d="M44 19h1M45 20h2M46 21h2M26 22h1M46 22h3M23 23h3M47 23h3M21 24h4M47 24h3M22 25h1M48 25h3M48 26h5M18 27h3M48 27h2M51 27h4M18 28h1M52 28h3M19 29h1M19 30h2M33 30h1M37 30h1M52 30h2M19 31h2M36 31h1M49 31h1M51 31h5M50 32h1M52 32h4M33 33h2M51 33h1M47 34h1M53 34h1M47 35h1M49 35h2M25 36h1M48 36h1M50 36h3M48 37h2M41 38h1M49 38h3M24 39h1M49 39h5M23 40h1M26 40h1M28 40h1M49 40h7M24 41h2M42 41h1M48 41h8M20 42h1M25 42h1M38 42h1M40 42h1M43 42h1M48 42h8M20 43h2M41 43h2M47 43h9M21 44h2M39 44h2M45 44h10M21 45h3M43 45h12M21 46h3M25 46h1M40 46h15M22 47h2M25 47h2M40 47h14M58 47h3M22 48h2M25 48h4M40 48h14M55 48h6M23 49h2M26 49h8M40 49h13M54 49h6M23 50h2M27 50h6M39 50h14M54 50h5M24 51h2M28 51h3M39 51h13M53 51h4M25 52h2M38 52h13M52 52h3M26 53h2M37 53h13M51 53h2M28 54h3M35 54h13M30 55h16M33 56h9" />
<path stroke="#ef5a31" d="M16 23h3M16 24h3M17 25h2M13 26h3M13 27h3M14 28h3M57 28h5M57 29h5M14 30h4M56 30h4M14 31h4M15 32h4M57 32h3M56 33h6M56 34h6M55 35h1M59 35h1M54 36h5M53 37h6M54 38h3M26 55h1M26 56h3M23 57h1M26 57h4M47 57h3M23 58h5M46 58h2M50 58h1M46 59h2M50 59h1M48 60h3" />
<path stroke="#ff845a" d="M19 24h2M19 25h1M16 26h1M16 27h2M55 27h1M17 28h1M55 28h2M54 29h3M18 30h1M18 31h1M56 32h1M54 33h2M54 35h1M53 36h1M52 37h1M38 46h1M37 47h2M34 48h5M34 49h5M26 50h1M33 50h5M27 51h1M31 51h7M28 52h9M30 53h5M24 56h2M24 57h2M48 58h2M48 59h2" />
<path stroke="#ffffff" d="M31 25h1M38 26h1M31 39h1M30 40h3M30 41h4M27 42h7M27 43h7M28 44h5M29 45h3" />
<path stroke="#ada573" d="M31 38h3M30 39h1M34 39h1" />
<path stroke="#e6debd" d="M32 39h2M33 40h3M29 41h1M34 41h3M34 42h3M26 43h1M34 43h4M26 44h2M33 44h5M26 45h3M32 45h6M27 46h10M29 47h5" />
<path stroke="#736b4a" d="M35 39h1M36 40h1M26 42h1M25 43h1M25 44h1M38 44h1M38 45h1" />
</svg>