<svg xmlns="http://www.w3.org/2000/svg" viewBox="0 -0.5 80 80" shape-rendering="crispEdges">
<metadata>Made with Pixels to Svg https://codepen.io/shshaw/pen/XbxvNj</metadata>
<path stroke="#6b5219" d="M36 17h1M35 18h1M35 19h1M37 19h1M60 19h3M35 20h1M58 20h2M35 21h1M57 21h1M34 22h1M38 22h1M56 22h1M61 22h1M55 23h1M60 23h1M54 24h1M59 25h1M35 28h1M39 31h1M36 32h1M49 32h1M36 33h1M38 33h1M47 33h2M57 33h1M58 34h2M46 35h1M50 35h1M60 35h2M23 36h1M48 36h2M58 36h1M17 37h1M15 38h2M13 39h2M51 40h1M48 42h2M48 43h1M49 44h1M61 44h2M56 46h1M44 47h1M42 48h1M40 49h1M50 51h1M50 52h1M45 53h1M45 54h1M48 60h1M48 61h1M48 62h1M48 63h1M48 64h1" />
<path stroke="#c5b54a" d="M36 18h1M37 20h1M61 20h1M37 21h1M61 21h1M37 22h1M60 22h1M59 23h1M58 24h2M57 25h2M57 26h2M36 30h1M36 31h1M37 32h4M52 32h1M37 33h1M45 33h2M49 33h3M46 34h5M47 35h3M59 35h1M59 36h2M59 37h1M19 39h2M18 40h3M16 41h4M52 41h1M17 42h1M50 42h2M49 43h2M56 44h1M56 45h2M9 46h1M57 46h2M40 47h2M43 47h1M57 47h4M39 48h3M58 48h2M39 49h1M47 49h2M48 50h2M48 51h2M49 52h1M49 53h2M47 54h1M64 54h1M46 55h1M63 55h2M64 56h1M64 57h1M50 59h1M49 60h2M49 61h2M49 62h1M49 63h1" />
<path stroke="#000000" d="M37 18h1M38 20h1M62 20h1M38 21h1M62 21h1M39 23h1M61 23h1M34 24h1M39 24h1M60 24h1M34 25h1M39 25h1M34 26h1M39 26h1M59 26h1M34 27h1M39 27h1M58 27h1M38 28h1M58 28h1M35 29h1M38 29h1M57 29h1M35 30h1M38 30h1M56 30h1M35 31h1M54 31h2M46 32h1M53 32h1M31 33h2M39 33h2M52 33h1M54 33h2M23 34h3M30 34h1M33 34h1M36 34h3M45 34h1M51 34h1M55 34h2M23 35h1M25 35h2M45 35h1M51 35h2M55 35h2M26 36h1M46 36h2M50 36h3M56 36h1M61 36h1M27 37h1M45 37h8M60 37h1M23 38h2M28 38h1M36 38h1M46 38h7M54 38h1M59 38h1M22 39h1M24 39h1M29 39h1M37 39h2M47 39h6M56 39h1M21 40h1M24 40h2M30 40h1M37 40h1M39 40h1M48 40h3M52 40h1M20 41h1M23 41h1M40 41h1M48 41h2M53 41h1M59 41h1M10 42h1M18 42h2M22 42h1M26 42h1M29 42h1M38 42h4M52 42h2M60 42h1M9 43h1M15 43h3M22 43h1M27 43h2M38 43h4M46 43h1M51 43h4M61 43h1M13 44h2M21 44h1M38 44h6M47 44h1M50 44h5M8 45h1M12 45h1M21 45h1M23 45h1M37 45h6M47 45h1M50 45h4M55 45h1M62 45h1M7 46h1M10 46h2M21 46h1M23 46h1M37 46h5M48 46h6M63 46h1M7 47h3M21 47h1M23 47h1M32 47h1M37 47h3M48 47h6M56 47h1M63 47h1M30 48h3M34 48h1M37 48h2M43 48h2M49 48h6M57 48h1M63 48h1M30 49h2M33 49h1M36 49h3M41 49h1M44 49h1M49 49h4M58 49h2M63 49h1M29 50h3M36 50h5M44 50h1M50 50h1M59 50h2M64 50h1M21 51h1M35 51h1M37 51h4M43 51h2M60 51h1M64 51h1M19 52h1M34 52h1M44 52h1M61 52h1M64 52h1M25 53h3M51 53h1M61 53h1M65 53h1M32 54h1M51 54h1M62 54h1M65 54h1M31 55h1M45 55h1M51 55h1M62 55h1M65 55h1M28 56h3M46 56h1M51 56h1M63 56h1M65 56h1M46 57h1M51 57h1M63 57h1M65 57h1M47 58h1M51 58h1M64 58h1M47 59h1M51 59h1M51 60h1M51 61h1M50 62h1M50 63h1M49 64h1" />
<path stroke="#ffde42" d="M36 19h1M36 20h1M60 20h1M36 21h1M58 21h3M35 22h2M57 22h3M56 23h3M55 24h3M56 25h1M36 28h2M36 29h2M37 30h1M51 30h2M37 31h2M51 31h3M50 32h2M57 34h1M58 35h1M17 38h3M15 39h4M14 40h4M50 41h2M58 42h2M57 43h4M57 44h4M9 45h1M43 45h1M58 45h4M8 46h1M42 46h2M59 46h4M42 47h1M45 50h3M45 51h3M45 52h4M46 53h3M46 54h1" />
<path stroke="#63319c" d="M34 23h1M53 25h1M52 26h1M52 27h1M56 27h2M51 28h1M55 28h3M51 29h1M54 29h3M50 30h1M54 30h2M50 31h1M20 35h3M18 36h2M23 37h1M22 38h1M53 38h1M55 39h1M12 40h1M57 40h1M11 41h1M54 41h1M15 42h2M45 42h1M54 42h2M14 43h1M44 43h1M55 43h2M8 44h1M11 44h2M44 44h1M55 44h1M10 45h2M44 45h1M44 46h1M22 47h1M22 48h1M48 48h1M60 48h1M60 49h2M61 50h3M61 51h3M62 52h2M62 53h3M49 54h2M63 54h1M49 55h2M48 56h3M47 57h4M48 58h3M48 59h2" />
<path stroke="#bd84e6" d="M35 23h2M35 24h2M35 25h2M55 25h1M35 26h2M35 27h2M20 36h3M18 37h3M13 40h1M12 41h2M11 42h1M23 42h1M22 44h1M31 45h3M32 46h2M46 46h1M33 47h1M46 47h1M29 48h1M33 48h1M46 48h1M29 49h1M32 49h1M46 49h1" />
<path stroke="#9c5ac5" d="M37 23h2M37 24h2M37 25h2M54 25h1M37 26h2M53 26h4M37 27h2M53 27h3M52 28h3M52 29h2M53 30h1M31 34h2M30 35h4M21 37h2M20 38h2M21 39h1M53 39h2M53 40h4M14 41h2M55 41h4M12 42h3M56 42h2M10 43h4M45 43h1M9 44h2M45 44h2M22 45h1M45 45h2M22 46h1M45 46h1M47 46h1M45 47h1M47 47h1M61 47h2M45 48h1M47 48h1M61 48h2M45 49h1M62 49h1M48 54h1M47 55h2M47 56h1" />
<path stroke="#8c2100" d="M43 29h6M41 30h2M35 34h1M34 35h1M28 36h6M34 37h2M30 41h1M37 41h1M41 41h1M37 42h1M37 43h1M42 43h1M32 44h1M37 44h1M48 44h1M48 45h2M54 45h1M54 46h2M29 47h1M54 47h1M23 48h1M28 48h1M36 48h1M22 49h1M28 49h1M42 49h2M32 50h1M35 50h1M42 50h2M24 53h1M32 53h1" />
<path stroke="#ff5a4a" d="M43 30h7M40 31h10M47 32h2M28 37h1M43 37h2M34 38h2M41 38h5M32 39h4M39 39h7M31 40h5M40 40h3M31 41h5M31 42h4M30 43h4M27 44h4M27 45h3M26 46h3M26 47h2M25 48h3M23 49h5M24 50h3" />
<path stroke="#6b6b6b" d="M41 32h5M41 33h4M39 34h6M42 35h3M44 36h2M24 37h1M25 39h1M38 40h1M26 41h1M38 41h2M20 48h1M19 49h1M18 50h1M18 51h1M20 51h1M18 52h1M28 53h1M28 54h1M27 55h1" />
<path stroke="#c54242" d="M54 32h1M53 33h1M52 34h3M53 35h2M53 36h3M57 36h1M53 37h5M37 38h1M55 38h3M46 39h1M57 39h1M36 40h1M43 40h5M36 41h1M42 41h6M30 42h1M35 42h2M42 42h3M46 42h2M29 43h1M34 43h3M43 43h1M47 43h1M31 44h1M34 44h3M30 45h1M35 45h2M29 46h1M35 46h2M28 47h1M35 47h2M35 48h1M34 49h2M23 50h1M27 50h2M33 50h2M24 51h11M24 52h5M32 52h2" />
<path stroke="#520000" d="M56 33h1M57 35h1M58 37h1M58 38h1M36 39h1M58 39h1M58 40h1M33 44h1M34 45h1M34 46h1M34 47h1M55 47h1M22 50h1M41 50h1M23 51h1M42 51h1M23 52h1M33 53h1" />
<path stroke="#ffffff" d="M24 35h1M24 36h2M25 37h2M25 38h2M26 39h2M27 40h1M23 43h1M23 44h1M30 46h2M30 47h2M21 48h1M20 49h2M19 50h2M19 51h1M29 52h2M29 53h3M29 54h2M28 55h2" />
<path stroke="#ff8c73" d="M35 35h7M34 36h10M29 37h5M36 37h7M29 38h5M38 38h3M30 39h2M24 41h2M24 42h2M24 43h3M24 44h3M24 45h3M24 46h2M24 47h2M24 48h1" />
<path stroke="#bdbdbd" d="M27 38h1M28 39h1M26 40h1M28 40h2M27 41h3M27 42h2M21 50h1M31 52h1M31 54h1M30 55h1" />
</svg>