<svg xmlns="http://www.w3.org/2000/svg" viewBox="0 -0.5 80 80" shape-rendering="crispEdges">
<metadata>Made with Pixels to Svg https://codepen.io/shshaw/pen/XbxvNj</metadata>
<path stroke="#73524a" d="M47 6h6M45 7h2M56 7h1M44 8h1M59 9h1M56 14h1M50 15h3M57 15h1M51 16h1M57 16h1M56 17h1M55 18h1M39 19h1M42 19h1M55 19h1M54 21h1M41 22h1M54 22h2M43 23h1M53 23h3M53 24h3M51 25h5M52 26h2M55 26h1M57 29h1M56 34h2M44 35h1M57 35h3M44 36h1M57 36h3M39 37h6M57 37h3M35 38h10M57 38h3M33 39h11M57 39h3M33 40h10M57 40h3M33 41h10M57 41h3M32 42h10M55 42h4M32 43h5M39 43h3M57 43h2M32 44h2M38 44h3M57 44h1M38 45h3M55 45h1M57 45h1M23 47h1M54 47h1M22 48h1M22 49h1M21 50h1M20 51h1M52 51h1M20 52h1M26 52h2M19 53h1M25 53h1M18 54h1M24 54h1M40 54h1M44 54h1M12 55h1M17 55h1M22 55h1M43 55h1M16 56h1M42 56h1M15 57h1M20 57h1M42 58h1M12 60h1M15 61h2M13 62h2M54 62h3M44 63h1M57 63h1M37 64h1M43 64h1M50 64h1M58 64h1M43 65h1M51 65h1M40 66h1M51 66h1M41 67h1M51 67h1M35 68h1M37 68h1M50 68h2M31 69h1M39 70h1" />
<path stroke="#e6b563" d="M47 7h1M46 8h1M45 9h1M51 9h1M56 9h1M44 10h1M48 10h1M41 11h1M43 11h1M43 12h1M40 13h1M42 13h1M40 14h1M42 14h1M54 14h2M40 15h1M54 15h3M41 16h1M43 16h1M55 16h2M41 17h1M43 17h1M55 17h1M42 26h1M42 27h3M43 28h6M44 29h2M27 37h1M26 39h1M44 39h1M45 41h1M47 41h1M21 42h1M43 42h2M46 42h1M48 42h1M20 43h1M22 43h1M30 43h1M43 43h7M53 43h2M56 43h1M21 44h1M23 44h1M26 44h1M29 44h2M36 44h2M42 44h13M56 44h1M19 45h2M22 45h1M24 45h8M34 45h4M42 45h13M56 45h1M19 46h19M41 46h13M55 46h1M18 47h5M24 47h14M39 47h15M55 47h1M18 48h4M23 48h14M38 48h15M54 48h1M17 49h5M23 49h13M37 49h16M17 50h4M22 50h13M36 50h16M16 51h4M21 51h13M35 51h17M16 52h4M21 52h5M28 52h5M34 52h17M15 53h4M20 53h5M26 53h5M33 53h17M14 54h4M19 54h4M25 54h5M31 54h9M41 54h3M45 54h4M13 55h4M18 55h4M23 55h6M30 55h10M41 55h2M44 55h4M13 56h3M17 56h4M22 56h5M30 56h9M40 56h2M43 56h5M13 57h2M16 57h4M21 57h4M31 57h8M42 57h4M13 58h1M15 58h4M20 58h3M31 58h7M43 58h1M14 59h4M19 59h3M33 59h4M13 60h4M18 60h3M34 60h3M13 61h2" />
<path stroke="#ffe68c" d="M48 7h5M45 8h1M47 8h10M44 9h1M46 9h5M57 9h2M42 10h2M45 10h3M42 11h1M44 11h3M41 12h2M44 12h2M41 13h1M43 13h2M41 14h1M43 14h2M41 15h1M43 15h2M47 20h2M45 21h5M45 22h6M45 23h6M36 24h3M44 24h6M30 25h10M43 25h7M32 26h3M43 26h6M45 27h4M49 28h4M46 29h8M44 30h10M45 31h10M45 32h10M45 33h11M45 34h11M45 35h11M27 36h1M45 36h11M24 37h3M45 37h11M23 38h4M45 38h11M23 39h3M45 39h11M22 40h4M44 40h12M22 41h4M44 41h1M46 41h1M48 41h8M22 42h4M45 42h1M47 42h1M49 42h6M21 43h1M23 43h3M50 43h3M20 44h1M22 44h1M24 44h2M21 45h1M23 45h1" />
<path stroke="#101010" d="M53 7h3M57 8h2M42 9h2M54 13h3M50 14h4M63 14h1M38 15h1M48 15h2M53 15h1M63 15h1M38 16h1M47 16h4M54 16h1M62 16h1M48 17h3M54 17h1M62 17h1M39 18h4M45 18h1M48 18h4M54 18h1M61 18h1M38 19h1M43 19h3M48 19h5M60 19h1M44 20h1M49 20h5M55 20h1M57 20h2M50 21h4M55 21h2M42 22h1M44 22h1M51 22h3M56 22h1M21 23h4M40 23h1M44 23h1M51 23h2M56 23h1M19 24h2M39 24h1M43 24h1M51 24h2M56 24h1M40 25h3M50 25h1M56 25h1M37 26h4M50 26h1M56 26h1M40 27h2M56 27h1M30 28h2M42 28h1M57 28h1M29 29h1M58 29h1M28 30h1M43 30h1M58 30h1M27 31h1M59 31h1M26 32h1M44 32h1M59 32h1M25 33h1M44 33h1M60 33h1M24 34h1M44 34h1M60 34h1M24 35h1M27 35h2M60 35h1M23 36h1M25 36h2M60 36h1M60 37h1M22 38h1M56 38h1M60 38h1M22 39h1M56 39h1M60 39h1M21 40h1M43 40h1M56 40h1M60 40h1M21 41h1M43 41h1M56 41h1M60 41h1M20 42h1M30 42h1M42 42h1M59 42h1M19 43h1M29 43h1M42 43h1M55 43h1M59 43h1M19 44h1M41 44h1M55 44h1M58 44h1M18 45h1M41 45h1M58 45h1M18 46h1M38 46h3M54 46h1M57 46h1M17 47h1M38 47h1M56 47h1M17 48h1M37 48h1M53 48h1M55 48h1M16 49h1M36 49h1M53 49h2M16 50h1M35 50h1M52 50h1M15 51h1M34 51h1M15 52h1M33 52h1M51 52h1M14 53h1M31 53h2M50 53h1M13 54h1M23 54h1M30 54h1M49 54h1M40 55h1M48 55h1M12 56h1M21 56h1M27 56h2M48 56h1M12 57h1M25 57h2M39 57h3M47 57h1M12 58h1M14 58h1M19 58h1M23 58h2M30 58h1M38 58h1M44 58h1M47 58h1M13 59h1M18 59h1M22 59h1M32 59h1M37 59h1M42 59h3M17 60h1M21 60h1M28 60h2M33 60h1M37 60h1M44 60h1M12 61h1M18 61h3M27 61h1M33 61h1M37 61h1M45 61h1M50 61h1M19 62h1M26 62h1M33 62h1M37 62h1M45 62h1M51 62h3M21 63h3M25 63h1M32 63h1M37 63h1M24 64h1M31 64h1M25 65h1M30 65h1M38 65h1M45 65h1M58 65h1M28 66h2M43 66h2M47 66h2M52 66h2M57 66h1M48 67h1M54 67h1M27 68h1M30 68h1M36 68h1M41 68h1M48 68h1M54 68h1M27 69h1M35 69h1M38 69h1M41 69h1M49 69h2M27 70h1M40 70h2M34 71h1M32 72h2" />
<path stroke="#ef6342" d="M52 9h4M49 10h11M39 11h2M47 11h13M38 12h3M46 12h12M38 13h2M45 13h8M39 14h1M45 14h5M39 15h1M45 15h3M45 16h2M22 22h5M27 23h3M37 23h1M35 24h1" />
<path stroke="#8c3a21" d="M39 10h3M60 10h1M38 11h1M61 11h1M37 12h1M62 12h1M37 13h1M53 13h1M57 13h1M62 13h1M38 14h1M58 14h2M39 17h1M45 17h1M59 19h1M35 20h2M22 21h5M31 21h4M20 22h1M27 22h4M19 23h1M25 23h1M26 24h2M29 59h1M41 59h1M32 60h1M41 60h1M32 61h1M40 61h1M25 62h1M31 62h1M38 62h2M20 63h1M24 63h1M30 63h1M29 64h2M26 65h4" />
<path stroke="#d63119" d="M60 11h1M58 12h4M58 13h4M60 14h3M59 15h4M39 16h2M44 16h1M59 16h3M40 17h1M44 17h1M58 17h4M43 18h2M56 18h5M56 19h3M56 20h1M35 21h2M21 22h1M31 22h6M20 23h1M26 23h1M30 23h7M28 24h7M27 57h2M25 58h5M39 58h3M23 59h6M30 59h1M38 59h3M22 60h6M30 60h2M38 60h3M21 61h6M28 61h4M38 61h2M20 62h5M27 62h4M32 62h1M26 63h4M31 63h1M25 64h4" />
<path stroke="#ad7b5a" d="M42 15h1M42 16h1M52 16h2M42 17h1M51 17h3M52 18h2M53 19h2M54 20h1M50 24h1M28 25h2M30 26h2M41 26h1M49 26h1M51 26h1M54 26h1M35 27h5M49 27h7M32 28h10M53 28h4M30 29h13M55 29h2M29 30h14M55 30h3M28 31h16M56 31h3M27 32h17M56 32h3M26 33h18M57 33h3M25 34h4M30 34h14M58 34h2M25 35h2M29 35h15M29 36h15M29 37h10M28 38h7M28 39h5M27 40h5M27 41h4M27 42h3M27 43h2M56 46h1M54 63h1M30 67h1" />
<path stroke="#c5b5c5" d="M46 17h1M44 64h1M56 64h1M44 65h1M57 65h1" />
<path stroke="#ffffff" d="M47 17h1M46 18h2M46 19h2M57 64h1M54 65h2M50 66h1M54 66h2M28 67h2M49 67h2M55 67h1M28 68h2M39 68h2M49 68h1M28 69h1M32 69h2M39 69h2M32 70h2M33 71h1" />
<path stroke="#e6a59c" d="M40 19h2M38 20h5M38 21h5M38 22h3M39 23h1M50 63h4M55 63h2M48 64h1M52 64h3M49 65h2M53 65h1M30 66h1M33 66h2M39 66h1M49 66h1M32 67h3M37 67h4M32 68h2M38 68h1" />
<path stroke="#5a3a29" d="M37 20h1M45 20h2M37 21h1M37 22h1M38 23h1M35 26h2M32 27h3M43 29h1M54 29h1M54 30h1M44 31h1M55 31h1M55 32h1M56 33h1M29 34h1M56 35h1M24 36h1M28 36h1M56 36h1M23 37h1M28 37h1M56 37h1M27 38h1M27 39h1M26 40h1M32 40h1M26 41h1M31 41h2M26 42h1M31 42h1M26 43h1M31 43h1M37 43h2M27 44h2M31 44h1M34 44h2M32 45h2M29 55h1M29 56h1M39 56h1M29 57h2M31 59h1M47 59h1M48 60h1M36 61h1M49 61h1M45 63h1M55 64h1M52 65h1M56 65h1M32 66h1M56 66h1M27 67h1M31 67h1M56 67h1M31 68h1M55 68h1M29 69h1M28 70h1M31 70h1M34 70h1M32 71h1" />
<path stroke="#bd7b7b" d="M43 20h1M43 21h2M43 22h1M41 23h2M40 24h3M46 57h1M45 58h2M45 59h2M45 60h3M34 61h2M46 61h3M34 62h3M46 62h5M33 63h4M46 63h4M32 64h5M45 64h3M49 64h1M51 64h1M31 65h7M46 65h3M31 66h1M35 66h4M35 67h2M34 68h1M34 69h1" />
</svg>