<svg xmlns="http://www.w3.org/2000/svg" viewBox="0 -0.5 80 80" shape-rendering="crispEdges">
<metadata>Made with Pixels to Svg https://codepen.io/shshaw/pen/XbxvNj</metadata>
<path stroke="#525252" d="M36 25h2M35 26h1M37 26h1M35 27h1M37 27h1M35 28h1M37 28h1M37 29h1M37 30h1M37 31h1M34 32h4M32 33h2M39 33h1M31 34h1M41 34h1M51 34h1M30 35h1M42 35h1M29 36h1M35 36h2M43 36h1M51 36h1M29 37h1M34 37h1M40 37h1M50 37h1M28 38h1M33 38h1M44 38h1M49 38h1M28 39h1M32 39h1M36 39h1M44 39h1M46 39h1M48 39h1M28 40h1M32 40h1M35 40h1M44 40h4M28 41h1M44 41h3M44 42h1M46 42h1M44 43h1M46 43h1M33 44h1M40 44h1M46 44h1M30 45h1M43 45h1M47 45h1M31 46h1M42 46h1M48 46h1M32 47h1M41 47h1M49 47h1M34 48h6M50 48h2M36 49h2M37 50h1M37 51h1M37 52h1M36 53h2" />
<path stroke="#a5a5a5" d="M36 26h1M36 29h1M36 30h1M35 34h2M34 35h1M50 35h1M33 36h1M49 36h1M32 37h1M31 38h1M38 39h1M30 40h1M35 42h1M38 42h1M42 43h1M41 44h1M48 44h1M40 45h1M49 45h1M37 46h3M50 46h1M36 51h1M36 52h1" />
<path stroke="#101010" d="M38 26h1M38 27h1M38 28h1M35 29h1M38 29h1M35 30h1M38 30h1M35 31h1M38 31h1M38 32h2M40 33h2M50 33h2M42 34h1M49 34h1M52 34h1M43 35h1M48 35h1M52 35h1M37 36h2M44 36h1M47 36h1M52 36h1M39 37h1M44 37h3M51 37h1M40 38h1M45 38h1M50 38h1M37 39h1M41 39h1M45 39h1M49 39h1M37 40h2M41 40h1M48 40h1M32 41h1M35 41h2M38 41h1M41 41h1M47 41h1M28 42h1M32 42h1M36 42h2M41 42h1M45 42h1M48 42h1M28 43h1M33 43h1M40 43h1M45 43h1M49 43h1M29 44h1M34 44h1M39 44h1M44 44h2M50 44h1M29 45h1M35 45h4M44 45h1M46 45h1M51 45h1M30 46h1M43 46h1M47 46h1M52 46h1M31 47h1M42 47h1M48 47h1M52 47h1M32 48h2M40 48h2M49 48h1M52 48h1M34 49h2M38 49h2M50 49h2M35 50h1M38 50h1M35 51h1M38 51h1M35 52h1M38 52h1M35 53h1M38 53h1M36 54h2" />
<path stroke="#dedede" d="M36 27h1M36 28h1M34 34h1M32 35h2M31 36h2M31 37h1M35 37h1M38 37h1M30 38h1M30 39h1M33 39h1M40 39h1M33 42h1M40 42h1M35 44h1M38 44h1" />
<path stroke="#737373" d="M36 31h1M34 33h5M32 34h2M37 34h4M50 34h1M31 35h1M35 35h7M49 35h1M51 35h1M30 36h1M34 36h1M39 36h4M48 36h1M50 36h1M30 37h1M33 37h1M41 37h3M47 37h3M29 38h1M32 38h1M41 38h3M46 38h3M29 39h1M31 39h1M42 39h2M47 39h1M29 40h1M31 40h1M42 40h2M29 41h3M37 41h1M42 41h2M29 42h3M42 42h2M47 42h1M29 43h4M41 43h1M43 43h1M47 43h2M30 44h3M42 44h2M47 44h1M49 44h1M31 45h4M39 45h1M41 45h2M48 45h1M50 45h1M32 46h5M40 46h2M49 46h1M51 46h1M33 47h8M50 47h2M36 50h1" />
<path stroke="#ffffff" d="M36 37h2M34 38h6M34 39h2M39 39h1M33 40h2M36 40h1M39 40h2M33 41h2M39 41h2M34 42h1M39 42h1M34 43h6M36 44h2" />
</svg>