<svg xmlns="http://www.w3.org/2000/svg" viewBox="0 -0.5 80 80" shape-rendering="crispEdges">
<metadata>Made with Pixels to Svg https://codepen.io/shshaw/pen/XbxvNj</metadata>
<path stroke="#525252" d="M36 24h2M34 25h1M43 25h1M32 26h1M45 26h1M31 27h1M36 27h1M43 27h1M47 27h1M30 28h1M45 28h1M48 28h1M29 29h1M37 29h4M49 29h1M28 30h1M32 30h1M35 30h2M50 30h1M31 31h1M33 31h1M44 31h1M51 31h1M27 32h1M30 32h1M32 32h2M45 32h1M38 33h2M46 33h1M50 33h1M52 33h1M26 34h1M29 34h1M32 34h1M37 34h1M43 34h1M52 34h1M31 35h1M36 35h1M47 35h1M52 35h1M31 36h1M35 36h1M39 36h1M47 36h1M50 36h1M52 36h1M31 37h1M35 37h1M38 37h1M47 37h1M51 37h2M31 38h1M47 38h1M49 38h4M47 39h1M47 40h1M36 41h1M43 41h1M27 42h1M29 42h1M33 42h1M46 42h1M34 43h1M45 43h1M28 44h1M35 44h1M44 44h1M37 45h6M34 47h1M32 48h1M34 49h1M40 49h1M36 50h1M40 50h1M38 51h1M40 51h1M40 52h1M40 53h1M39 54h2" />
<path stroke="#101010" d="M38 24h6M35 25h1M44 25h2M33 26h1M46 26h2M37 27h6M48 27h1M34 28h2M44 28h1M49 28h1M33 29h1M41 29h2M46 29h1M50 29h1M33 30h1M43 30h2M47 30h1M51 30h1M28 31h1M34 31h1M45 31h1M48 31h1M52 31h1M31 32h1M46 32h1M49 32h1M52 32h1M27 33h1M30 33h1M32 33h1M40 33h2M47 33h1M49 33h1M53 33h1M30 34h1M42 34h1M47 34h1M50 34h1M53 34h1M26 35h1M29 35h1M43 35h1M48 35h1M50 35h1M53 35h1M26 36h1M29 36h1M40 36h1M44 36h1M48 36h2M53 36h1M26 37h1M29 37h1M40 37h2M44 37h1M48 37h1M53 37h1M26 38h1M29 38h1M35 38h1M38 38h2M41 38h1M44 38h1M48 38h1M53 38h1M26 39h1M29 39h1M31 39h1M35 39h1M39 39h2M44 39h1M48 39h5M26 40h1M29 40h1M31 40h1M36 40h1M43 40h1M48 40h1M26 41h1M29 41h1M32 41h1M37 41h1M42 41h1M47 41h1M26 42h1M30 42h1M32 42h1M38 42h4M47 42h1M27 43h1M30 43h1M33 43h1M46 43h1M27 44h1M31 44h1M34 44h1M45 44h1M28 45h1M32 45h1M35 45h2M43 45h2M29 46h1M33 46h2M37 46h6M30 47h1M35 47h2M31 48h1M37 48h4M32 49h2M41 49h1M34 50h2M41 50h1M36 51h2M41 51h1M38 52h1M41 52h1M38 53h1M41 53h1M38 54h1M41 54h1M39 55h2" />
<path stroke="#737373" d="M36 25h7M34 26h1M38 26h7M32 27h1M44 27h3M31 28h1M46 28h2M30 29h1M47 29h2M29 30h1M37 30h6M48 30h2M32 31h1M35 31h2M40 31h4M49 31h2M28 32h1M34 32h1M38 32h7M50 32h2M33 33h1M37 33h1M42 33h4M51 33h1M27 34h1M33 34h1M36 34h1M44 34h3M51 34h1M27 35h1M32 35h1M35 35h1M44 35h3M51 35h1M32 36h1M34 36h1M45 36h2M51 36h1M28 37h1M32 37h1M34 37h1M45 37h2M50 37h1M28 38h1M32 38h3M40 38h1M45 38h2M28 39h1M32 39h3M45 39h2M27 40h2M32 40h4M44 40h1M46 40h1M27 41h2M33 41h3M45 41h2M28 42h1M34 42h4M42 42h1M44 42h2M28 43h2M35 43h5M43 43h2M29 44h2M36 44h8M29 45h3M30 46h3M31 47h3M33 48h2M35 49h2M37 50h2M39 52h1M39 53h1" />
<path stroke="#a5a5a5" d="M35 26h3M34 27h2M33 28h1M32 29h1M31 30h1M30 31h1M38 31h2M37 32h1M29 33h1M36 33h1M28 34h1M35 34h1M28 35h1M34 35h1M27 36h2M41 36h1M27 37h1M33 37h1M49 37h1M27 38h1M27 39h1M38 39h1M41 39h1M45 40h1M44 41h1M43 42h1M40 43h3M35 48h2M37 49h1M39 51h1" />
<path stroke="#dedede" d="M33 27h1M32 28h1M31 29h1M30 30h1M29 31h1M37 31h1M29 32h1M35 32h2M28 33h1M34 33h2M34 34h1M38 34h1M41 34h1M33 35h1M33 36h1M36 36h1M43 36h1M36 39h1M43 39h1M38 41h1M41 41h1M38 49h2M39 50h1" />
<path stroke="#ffffff" d="M39 34h2M37 35h6M37 36h2M42 36h1M36 37h2M39 37h1M42 37h2M36 38h2M42 38h2M37 39h1M42 39h1M37 40h6M39 41h2" />
</svg>