<svg xmlns="http://www.w3.org/2000/svg" viewBox="0 -0.5 80 80" shape-rendering="crispEdges">
<metadata>Made with Pixels to Svg https://codepen.io/shshaw/pen/XbxvNj</metadata>
<path stroke="#525252" d="M52 28h2M28 29h3M51 29h1M27 30h1M51 30h1M26 31h1M37 31h4M51 31h1M26 32h1M35 32h2M51 32h1M26 33h1M29 33h2M34 33h1M44 33h1M51 33h1M26 34h1M29 34h1M31 34h1M33 34h1M45 34h1M26 35h1M32 35h1M38 35h2M46 35h1M26 36h1M32 36h1M37 36h1M43 36h1M26 37h1M31 37h1M36 37h1M47 37h1M31 38h1M35 38h1M39 38h1M47 38h1M50 38h2M31 39h1M35 39h1M38 39h1M47 39h1M50 39h1M53 39h2M31 40h1M47 40h1M50 40h1M25 41h2M47 41h1M50 41h1M25 42h1M28 42h2M47 42h1M25 43h1M36 43h1M43 43h1M25 44h1M33 44h1M46 44h1M25 45h1M34 45h1M45 45h1M47 45h1M25 46h1M35 46h1M44 46h1M46 46h1M50 46h1M37 47h6M47 47h1M52 47h1M48 48h1M51 48h1M27 50h1" />
<path stroke="#dedede" d="M52 29h1M28 30h2M52 30h1M28 31h1M52 31h1M27 32h1M27 33h1M37 33h1M35 34h2M34 35h2M34 36h1M38 36h1M41 36h1M33 37h1M33 38h1M36 38h1M43 38h1M36 41h1M43 41h1M51 41h1M51 42h1M38 43h1M41 43h1M26 44h1M26 45h1" />
<path stroke="#a5a5a5" d="M53 29h1M30 30h1M29 31h1M28 32h1M52 32h1M38 33h2M52 33h1M27 34h1M37 34h1M52 34h1M27 35h1M36 35h1M52 35h1M27 36h1M35 36h1M52 36h1M27 37h1M34 37h1M52 37h1M27 38h1M41 38h1M52 38h1M27 39h1M33 39h1M52 39h1M27 40h1M51 40h2M27 41h1M38 41h1M41 41h1M27 42h1M45 42h1M26 43h2M44 43h1M51 43h1M43 44h1M51 44h1M40 45h3M26 46h1M26 47h1" />
<path stroke="#101010" d="M54 29h1M31 30h1M54 30h1M32 31h1M41 31h2M54 31h1M33 32h1M43 32h2M54 32h1M45 33h1M54 33h1M30 34h1M46 34h1M51 34h1M54 34h1M29 35h1M31 35h1M40 35h2M47 35h1M51 35h1M54 35h1M29 36h1M42 36h1M47 36h1M51 36h1M54 36h1M29 37h1M43 37h1M48 37h1M51 37h1M54 37h1M26 38h1M29 38h1M40 38h1M44 38h1M48 38h1M54 38h1M26 39h1M29 39h1M40 39h2M44 39h1M48 39h1M26 40h1M29 40h1M35 40h1M38 40h2M41 40h1M44 40h1M48 40h1M53 40h1M29 41h1M31 41h1M35 41h1M39 41h2M44 41h1M48 41h1M53 41h1M31 42h1M36 42h1M43 42h1M48 42h1M50 42h1M53 42h1M28 43h1M32 43h1M37 43h1M42 43h1M47 43h1M50 43h1M53 43h1M28 44h1M32 44h1M38 44h4M47 44h2M50 44h1M53 44h1M28 45h1M33 45h1M46 45h1M49 45h2M53 45h1M28 46h1M34 46h1M45 46h1M53 46h1M25 47h1M28 47h1M35 47h2M43 47h2M46 47h1M53 47h1M25 48h1M28 48h1M37 48h6M47 48h1M52 48h1M25 49h1M28 49h1M48 49h4M25 50h1M28 50h1M26 51h2" />
<path stroke="#737373" d="M53 30h1M27 31h1M30 31h2M53 31h1M29 32h4M37 32h6M53 32h1M28 33h1M31 33h3M35 33h2M40 33h4M53 33h1M28 34h1M32 34h1M34 34h1M38 34h7M53 34h1M28 35h1M33 35h1M37 35h1M42 35h4M53 35h1M28 36h1M33 36h1M36 36h1M44 36h3M53 36h1M28 37h1M32 37h1M35 37h1M44 37h3M53 37h1M28 38h1M32 38h1M34 38h1M45 38h2M53 38h1M28 39h1M32 39h1M34 39h1M45 39h2M51 39h1M28 40h1M32 40h3M40 40h1M45 40h2M28 41h1M32 41h3M45 41h2M52 41h1M26 42h1M32 42h4M44 42h1M46 42h1M52 42h1M33 43h3M45 43h2M52 43h1M27 44h1M34 44h4M42 44h1M44 44h2M52 44h1M27 45h1M35 45h5M43 45h2M48 45h1M51 45h2M27 46h1M36 46h8M47 46h3M51 46h2M27 47h1M48 47h4M26 48h2M49 48h2M26 49h2M26 50h1" />
<path stroke="#ffffff" d="M39 36h2M37 37h6M37 38h2M42 38h1M36 39h2M39 39h1M42 39h2M36 40h2M42 40h2M37 41h1M42 41h1M37 42h6M39 43h2" />
</svg>