<svg xmlns="http://www.w3.org/2000/svg" viewBox="0 -0.5 80 80" shape-rendering="crispEdges">
<metadata>Made with Pixels to Svg https://codepen.io/shshaw/pen/XbxvNj</metadata>
<path stroke="#525252" d="M39 24h2M38 25h1M38 26h1M38 27h1M40 27h1M38 28h1M40 28h1M40 29h1M40 30h1M40 31h1M39 32h2M35 33h2M34 34h1M44 34h1M33 35h1M38 35h2M45 35h1M32 36h1M37 36h1M43 36h1M46 36h1M32 37h1M36 37h1M31 38h1M35 38h1M39 38h1M47 38h1M31 39h1M35 39h1M38 39h1M47 39h1M47 40h1M47 41h1M36 43h1M43 43h1M46 43h1M45 44h1M35 45h1M44 45h1M37 46h1M42 46h1M39 47h2M40 48h1M38 49h1M40 49h1M38 50h1M40 50h1M38 51h1M40 51h1M38 52h1M40 52h1M40 53h1M39 54h2" />
<path stroke="#dedede" d="M39 25h1M39 26h1M38 33h2M36 34h2M35 35h1M34 36h1M38 36h1M41 36h1M34 37h1M33 38h1M36 38h1M43 38h1M36 41h1M43 41h1M38 43h1M41 43h1M39 50h1M39 51h1" />
<path stroke="#a5a5a5" d="M40 25h1M40 26h1M39 27h1M39 28h1M39 29h1M40 33h1M38 34h1M36 35h1M35 36h1M33 37h1M34 38h1M41 38h1M33 39h1M33 40h1M38 41h1M41 41h1M45 41h1M45 42h1M44 43h1M43 44h1M41 45h2M39 49h1M39 52h1M39 53h1" />
<path stroke="#101010" d="M41 25h1M41 26h1M41 27h1M41 28h1M38 29h1M41 29h1M38 30h1M41 30h1M38 31h1M41 31h1M37 32h2M41 32h2M43 33h2M45 34h1M40 35h2M46 35h1M42 36h1M47 36h1M43 37h1M47 37h1M40 38h1M44 38h1M48 38h1M40 39h2M44 39h1M48 39h1M31 40h1M35 40h1M38 40h2M41 40h1M44 40h1M48 40h1M31 41h1M35 41h1M39 41h2M44 41h1M48 41h1M32 42h1M36 42h1M43 42h1M47 42h1M32 43h1M37 43h1M42 43h1M47 43h1M33 44h1M38 44h4M46 44h1M34 45h1M45 45h1M35 46h2M43 46h2M37 47h2M41 47h2M38 48h1M41 48h1M41 49h1M41 50h1M41 51h1M41 52h1M38 53h1M41 53h1M38 54h1M41 54h1M39 55h2" />
<path stroke="#737373" d="M39 30h1M39 31h1M37 33h1M41 33h2M35 34h1M39 34h5M34 35h1M37 35h1M42 35h3M33 36h1M36 36h1M44 36h2M35 37h1M44 37h3M32 38h1M45 38h2M32 39h1M34 39h1M45 39h2M32 40h1M34 40h1M40 40h1M45 40h2M32 41h3M46 41h1M33 42h3M44 42h1M46 42h1M33 43h3M45 43h1M34 44h4M42 44h1M44 44h1M36 45h5M43 45h1M38 46h4M39 48h1" />
<path stroke="#ffffff" d="M39 36h2M37 37h6M37 38h2M42 38h1M36 39h2M39 39h1M42 39h2M36 40h2M42 40h2M37 41h1M42 41h1M37 42h6M39 43h2" />
</svg>