<svg xmlns="http://www.w3.org/2000/svg" viewBox="0 -0.5 80 80" shape-rendering="crispEdges">
<metadata>Made with Pixels to Svg https://codepen.io/shshaw/pen/XbxvNj</metadata>
<path stroke="#3a73a5" d="M38 20h1M37 21h1M39 21h1M27 22h2M37 22h1M39 22h1M25 23h2M29 23h1M36 23h1M24 24h1M29 24h1M36 24h1M42 24h6M23 25h1M27 25h1M35 25h1M42 25h7M23 26h1M27 26h4M41 26h8M25 27h7M41 27h7M52 27h2M27 28h6M41 28h7M51 28h4M29 29h5M40 29h7M50 29h6M27 30h2M30 30h1M46 30h1M48 30h5M28 31h1M47 31h5M48 32h3M39 34h1M25 35h1M29 35h1M24 36h1M27 36h2M26 37h2M49 37h1M24 38h3M29 38h7M42 38h7M53 38h1M39 39h1M42 39h7M55 39h1M39 40h2M25 41h1M28 41h1M40 41h1M24 42h1M27 42h2M32 42h8M26 43h2M46 43h4M51 43h1M26 44h1M52 44h1M33 45h1M35 45h1M32 46h2M27 47h4M32 47h1M37 47h7M45 47h4M30 48h1M37 48h1M45 48h4M35 49h1M45 49h3M29 50h1M31 50h1M37 50h4M47 50h1M49 50h2M28 51h1M30 51h3M39 51h2M46 51h1M48 51h4M29 52h4M48 52h4M30 53h2M35 53h1M37 53h1M45 53h1M49 53h2M39 55h2M39 56h3M40 57h1M40 58h1" />
<path stroke="#84d6d6" d="M38 21h1M38 22h1M42 22h6M37 23h3M42 23h8M37 24h2M48 24h2M37 25h2M53 25h1M37 26h1M53 26h2M54 27h2M49 28h1M55 28h2M48 29h2M56 29h1M30 33h12M28 34h3M33 34h5M40 34h5M27 35h2M32 35h6M42 35h5M48 35h2M31 36h1M44 36h4M49 36h2M36 37h1M50 37h2M36 38h1M51 38h1M36 39h1M28 40h1M41 41h1M41 42h2M25 43h1M30 43h11M42 43h1M24 44h2M29 44h1M33 44h1M35 44h1M38 44h3M42 44h1M24 45h1M28 45h1M36 45h1M27 46h1M36 46h1M31 47h1M36 47h1M31 48h1M36 48h1M42 50h3M42 51h4M42 52h4M43 53h2M37 55h2M37 56h2M38 57h2M38 58h2" />
<path stroke="#294a7b" d="M41 21h7M29 22h2M40 22h1M31 23h2M40 23h1M33 24h1M39 24h1M52 24h2M28 25h3M34 25h1M39 25h1M49 25h1M51 25h1M54 25h1M25 26h2M31 26h1M35 26h1M39 26h1M50 26h1M32 27h1M48 27h1M33 28h1M34 29h1M31 30h1M39 30h2M44 30h2M55 30h2M29 31h1M39 31h1M45 31h1M53 31h2M29 32h2M45 32h1M47 32h1M52 32h3M28 33h2M46 33h2M49 33h4M26 34h2M31 34h2M47 34h1M51 34h1M30 35h2M38 35h1M47 35h1M53 35h1M29 36h2M38 36h1M54 36h1M23 37h1M29 37h1M38 37h1M55 37h1M23 38h1M28 38h1M38 38h2M52 38h1M56 38h1M27 39h2M38 39h1M53 39h2M56 39h1M26 40h1M29 40h2M38 40h1M50 40h1M29 41h1M32 41h8M49 41h4M30 42h2M40 42h1M53 42h1M23 43h1M29 43h1M41 43h1M54 43h1M23 44h1M28 44h1M34 44h1M41 44h1M51 44h1M55 44h1M23 45h1M27 45h1M34 45h1M42 45h1M51 45h1M53 45h1M56 45h1M26 46h1M35 46h1M43 46h1M45 46h5M53 46h3M26 47h1M34 47h1M49 47h2M54 47h2M33 48h2M49 48h2M33 49h1M48 49h2M32 50h1M41 50h1M45 50h1M51 50h1M33 51h1M41 51h1M28 52h1M41 52h1M46 52h1M34 53h1M36 53h1M42 53h1M46 53h1M34 54h1M37 54h5M36 55h1M41 55h1M36 56h1M37 57h1M37 58h1" />
<path stroke="#b5eff7" d="M41 22h1M27 23h2M41 23h1M25 24h4M40 24h2M24 25h3M40 25h1M52 25h1M24 26h1M40 26h1M51 26h2M39 27h2M50 27h2M39 28h1M50 28h1M39 29h1M26 35h1M41 35h1M25 36h2M32 36h5M41 36h3M24 37h2M30 37h6M42 37h6M27 40h1M26 41h2M42 41h7M25 42h2M43 42h7M24 43h1M30 44h3M36 44h2M29 45h4M37 45h5M28 46h4M37 46h6M30 50h1M29 51h1" />
<path stroke="#101010" d="M48 22h2M50 23h1M50 24h1M49 26h1M55 26h1M23 27h2M35 27h1M38 27h1M49 27h1M56 27h1M25 28h2M35 28h1M38 28h1M48 28h1M57 28h1M27 29h2M36 29h2M47 29h1M57 29h1M26 30h1M29 30h1M47 30h1M53 30h2M26 31h2M30 31h1M46 31h1M52 31h1M55 31h1M28 32h1M34 32h1M39 32h1M41 32h1M46 32h1M51 32h1M55 32h1M53 33h3M52 34h1M39 35h1M39 36h1M48 36h1M28 37h1M37 37h1M39 37h1M48 37h1M27 38h1M37 38h1M40 38h1M49 38h2M23 39h4M37 39h1M40 39h1M49 39h1M51 39h2M31 40h7M41 40h9M53 40h4M30 41h2M29 42h1M50 42h1M28 43h1M50 43h1M27 44h1M50 44h1M25 45h2M43 45h8M52 45h1M23 46h2M34 46h1M44 46h1M50 46h3M56 46h1M33 47h1M35 47h1M44 47h1M51 47h3M56 47h1M26 48h1M32 48h1M35 48h1M44 48h1M51 48h1M54 48h3M26 49h7M36 49h9M50 49h1M46 50h1M48 50h1M47 51h1M52 51h1M33 52h2M47 52h1M52 52h1M29 53h1M32 53h1M47 53h2M51 53h1M30 54h2M35 54h2M42 54h5M49 54h2M42 55h1M42 56h1M41 57h1M41 58h1M38 59h3" />
<path stroke="#52adb5" d="M30 23h1M30 24h3M31 25h3M36 25h1M41 25h1M32 26h3M36 26h1M38 26h1M33 27h2M36 27h2M34 28h1M36 28h2M40 28h1M35 29h1M38 29h1M35 30h4M35 31h4M35 32h4M42 33h4M48 33h1M38 34h1M45 34h2M48 34h3M40 35h1M50 35h3M37 36h1M40 36h1M51 36h3M40 37h2M52 37h3M41 38h1M54 38h2M29 39h7M41 39h1M51 42h2M43 43h3M52 43h2M43 44h7M53 44h2M54 45h2M27 48h3M38 48h6M34 49h1M33 50h4M34 51h5M35 52h6M38 53h4" />
<path stroke="#ffffff" d="M32 30h2M42 30h2M31 31h2M43 31h2M31 32h1M33 32h1M40 32h1M43 32h2" />
<path stroke="#9ca5a5" d="M34 30h1M41 30h1M42 31h1" />
<path stroke="#ff4a3a" d="M33 31h2M40 31h2M32 32h1M42 32h1" />
</svg>