<svg xmlns="http://www.w3.org/2000/svg" viewBox="0 -0.5 80 80" shape-rendering="crispEdges">
<metadata>Made with Pixels to Svg https://codepen.io/shshaw/pen/XbxvNj</metadata>
<path stroke="#6b4219" d="M47 22h3M46 23h1M50 23h1M30 24h4M45 24h1M51 24h1M28 25h2M38 25h4M45 25h1M51 25h1M27 26h1M36 26h2M45 26h2M52 26h1M27 27h1M47 27h1M50 27h1M52 27h1M26 28h1M31 28h1M52 28h1M26 29h1M29 29h1M50 29h1M52 29h1M26 30h1M51 30h1M27 31h1M29 31h1M31 31h1M46 31h2M27 32h1M38 32h2M48 32h1M40 33h1M48 33h1M40 34h1M30 35h1M38 35h2M30 36h1M31 37h1M31 38h1M40 42h1M35 43h1M39 43h1M34 44h1M46 44h1M34 45h1M33 46h1M45 46h1M28 47h4M33 47h1M45 47h1M27 48h1M32 48h1M26 49h1M26 50h1M26 51h1M26 52h1M33 53h2M33 54h1M35 54h1M33 55h1M37 55h1M34 56h2" />
<path stroke="#9c6b42" d="M47 23h3M46 24h5M46 25h5M34 26h1M44 26h1M47 26h5M31 27h4M45 27h2M48 27h1M51 27h1M29 28h1M32 28h4M46 28h2M51 28h1M32 29h3M45 29h4M51 29h1M32 30h3M45 30h5M28 31h1M32 31h2M48 31h2M28 32h5M45 32h1M49 32h2M29 33h2M37 33h1M45 33h1M49 33h2M37 34h1M46 34h2M49 34h2M49 35h2M50 36h1M32 38h1M45 38h2M33 39h4M34 40h3M36 41h2M38 42h2M46 46h2M44 47h1M46 47h2M33 48h1M40 48h6M38 49h8M33 50h1M38 50h8M33 51h3M38 51h7M27 52h1M32 52h1M34 52h11M27 53h6M35 53h9M28 54h4M34 54h1M36 54h6M34 55h2M38 55h6M37 56h7" />
<path stroke="#c5a563" d="M30 25h3M28 26h6M38 26h1M28 27h2M36 27h2M27 28h2M36 28h1M42 28h2M27 29h2M35 29h2M41 29h4M27 30h2M35 30h2M41 30h4M34 31h3M42 31h2M45 31h1M33 32h5M31 33h6M31 34h6M31 35h7M31 36h7M32 37h5M33 38h4M42 40h4M41 41h5M41 42h5M36 43h3M40 43h6M35 44h10M35 45h10M34 46h10M34 47h8M28 48h4M34 48h5M27 49h6M34 49h4M27 50h6M34 50h4M27 51h6M36 51h2M28 52h4" />
<path stroke="#b58c3a" d="M33 25h1M30 27h1M39 48h1M33 49h1" />
<path stroke="#101010" d="M34 25h1M42 25h3M35 26h1M35 27h1M49 27h1M30 28h1M48 28h3M30 29h2M49 29h1M29 30h3M50 30h1M30 31h1M50 31h1M47 32h1M51 32h1M28 33h1M39 33h1M46 33h2M51 33h1M29 34h2M38 34h2M51 34h1M51 35h1M51 36h1M50 37h1M44 38h1M50 38h1M32 39h1M42 39h2M45 39h1M49 39h1M33 40h1M41 40h1M46 40h1M48 40h1M34 41h2M40 41h1M46 41h2M36 42h2M46 42h1M46 43h1M45 44h1M45 45h1M47 45h2M44 46h1M49 46h1M42 47h2M46 48h1M48 48h1M46 49h3M46 50h1M45 51h1M33 52h1M45 52h1M26 53h1M44 53h1M27 54h1M32 54h1M42 54h2M28 55h4M36 55h1M36 56h1M45 56h1M37 57h8" />
<path stroke="#dec573" d="M39 26h1M43 26h1M38 27h1M44 27h1M37 28h1M41 28h1M44 28h2M40 29h1M40 30h1M37 31h1M41 31h1M44 31h1M40 32h1M44 33h1M41 34h2" />
<path stroke="#fff7a5" d="M40 26h3M39 27h5M38 28h3M37 29h3M37 30h3M38 31h3M41 32h4M41 33h3M40 35h4M38 36h5M37 37h5M37 38h3" />
<path stroke="#ffffff" d="M46 32h1M38 33h1M44 39h1" />
<path stroke="#6b6b7b" d="M43 34h2M48 47h1M44 55h1" />
<path stroke="#ffd67b" d="M45 34h1M48 34h1M44 35h5M43 36h7M42 37h8M40 38h4M47 38h3M37 39h5M46 39h3M37 40h4M47 40h1M38 41h2" />
<path stroke="#dedede" d="M46 45h1M48 46h1M44 56h1" />
<path stroke="#b5b5bd" d="M47 48h1" />
</svg>