<svg xmlns="http://www.w3.org/2000/svg" viewBox="0 -0.5 80 80" shape-rendering="crispEdges">
<metadata>Made with Pixels to Svg https://codepen.io/shshaw/pen/XbxvNj</metadata>
<path stroke="#31527b" d="M24 8h4M28 9h2M30 10h2M25 11h1M25 12h1M26 13h1M31 14h1M37 14h5M9 15h4M42 15h3M9 16h1M13 16h3M45 16h2M10 17h1M16 17h2M47 17h1M11 18h1M18 18h2M27 18h1M31 18h1M35 18h1M12 19h1M20 19h1M27 19h1M32 19h2M13 20h1M21 20h1M28 20h1M14 21h1M22 21h1M29 21h1M15 22h1M23 22h1M29 22h1M36 22h1M48 22h1M24 23h1M30 23h1M46 23h2M24 24h1M45 24h1M25 25h1M44 25h1M25 26h1M43 26h1M26 27h1M30 27h1M26 28h1M26 29h1M27 30h1M27 31h1M27 32h1M30 36h1M65 37h1M64 38h1M32 39h1M63 39h1M31 40h1M26 41h1M30 41h1M56 41h3M26 42h1M53 42h3M26 43h1M51 43h2M27 44h1M50 44h1M27 45h1M38 45h2M27 46h1M37 46h1M40 46h1M37 47h1M41 47h1M28 49h1M28 50h1M29 51h1M37 51h1M29 52h1M38 52h1M32 59h1M31 60h1M31 61h1M23 62h4M22 63h1M28 63h2M34 63h3M21 64h1M37 64h2M20 65h1M26 65h1M39 65h1M25 67h1M39 67h1M52 67h1M24 68h1M38 68h1M52 68h1M38 69h1M53 69h1M53 70h1" />
<path stroke="#101010" d="M23 9h2M23 10h1M25 10h2M24 11h1M26 11h2M32 11h2M24 12h1M26 12h3M34 12h1M25 13h1M29 13h1M35 13h1M25 14h1M30 14h1M32 14h2M36 14h1M25 15h1M31 15h1M34 15h1M37 15h1M26 16h1M31 16h1M33 16h1M35 16h1M38 16h1M70 16h1M26 17h1M31 17h1M35 17h1M38 17h1M68 17h2M36 18h1M38 18h1M43 18h5M66 18h2M36 19h1M39 19h1M41 19h2M64 19h2M36 20h1M39 20h2M62 20h2M37 21h1M39 21h1M61 21h1M37 22h1M39 22h1M59 22h2M16 23h1M34 23h4M39 23h1M58 23h1M71 23h1M17 24h1M30 24h1M33 24h1M37 24h2M56 24h2M69 24h2M18 25h1M30 25h1M33 25h1M55 25h1M66 25h3M19 26h1M30 26h1M33 26h2M53 26h2M64 26h2M20 27h1M32 27h1M34 27h1M42 27h1M51 27h2M61 27h3M20 28h1M30 28h2M34 28h1M41 28h1M50 28h1M59 28h2M21 29h1M29 29h1M33 29h2M41 29h1M48 29h2M57 29h2M17 30h1M22 30h1M29 30h1M32 30h1M35 30h1M40 30h1M47 30h1M55 30h2M18 31h1M22 31h1M29 31h1M31 31h1M35 31h1M40 31h1M46 31h1M53 31h2M19 32h1M23 32h1M29 32h2M34 32h1M36 32h1M39 32h1M45 32h1M51 32h2M20 33h1M24 33h1M28 33h1M33 33h1M36 33h1M39 33h1M44 33h1M50 33h1M66 33h4M21 34h1M24 34h1M28 34h1M32 34h1M36 34h1M39 34h1M43 34h1M48 34h2M62 34h4M22 35h1M25 35h1M28 35h1M31 35h1M35 35h1M37 35h2M42 35h1M47 35h1M58 35h4M23 36h1M25 36h1M27 36h1M29 36h1M35 36h1M38 36h1M41 36h1M45 36h2M55 36h3M20 37h2M24 37h2M27 37h1M34 37h1M37 37h1M40 37h2M44 37h1M52 37h3M66 37h1M22 38h2M25 38h3M33 38h1M37 38h1M39 38h2M43 38h1M48 38h4M66 38h1M24 39h1M26 39h2M37 39h2M40 39h1M42 39h1M45 39h3M62 39h1M66 39h1M21 40h6M28 40h1M40 40h2M43 40h2M54 40h8M65 40h1M29 41h1M41 41h2M44 41h10M65 41h1M47 42h1M64 42h1M48 43h1M64 43h1M48 44h1M63 44h1M49 45h1M62 45h1M49 46h1M53 46h3M61 46h1M28 47h1M49 47h1M52 47h1M56 47h1M60 47h1M28 48h1M37 48h1M42 48h2M49 48h1M51 48h1M56 48h1M59 48h1M29 49h1M37 49h1M44 49h2M49 49h1M51 49h1M55 49h1M58 49h1M30 50h1M37 50h1M46 50h4M52 50h1M55 50h3M31 51h2M48 51h1M50 51h3M33 52h2M48 52h1M30 53h1M35 53h2M38 53h1M47 53h1M31 54h2M37 54h3M46 54h1M31 55h1M33 55h4M40 55h6M31 56h1M36 56h1M41 56h1M45 56h1M32 57h1M34 57h2M41 57h1M45 57h1M32 58h2M35 58h1M42 58h1M45 58h1M35 59h1M42 59h3M46 59h1M34 60h1M43 60h1M47 60h1M32 61h2M43 61h1M46 61h2M30 62h1M33 62h1M44 62h2M47 62h1M26 63h2M31 63h3M44 63h1M47 63h2M26 64h1M34 64h1M44 64h4M49 64h1M23 65h3M27 65h2M34 65h1M41 65h3M48 65h3M20 66h3M26 66h2M31 66h10M42 66h1M49 66h1M51 66h1M28 67h1M30 67h1M43 67h1M45 67h2M48 67h1M28 68h2M43 68h2M47 68h2M23 69h1M27 69h2M41 69h2M48 69h2M23 70h1M25 70h2M38 70h1M40 70h1M50 70h1M23 71h2M38 71h2M51 71h1M53 71h1M52 72h2" />
<path stroke="#deefff" d="M25 9h3M27 10h3M28 11h4M29 12h2M40 15h2M42 16h3M63 16h7M43 17h4M60 17h8M57 18h9M55 19h9M55 20h7M58 21h3M58 22h1M48 23h1M46 24h3M45 25h3M44 26h4M50 26h3M43 27h8M42 28h8M42 29h6M45 30h2M45 31h1M27 41h1M32 41h1M27 42h6M27 43h5M28 44h4M28 45h4M29 46h3M29 47h4M38 47h2M31 48h2M38 48h4M38 49h4M38 50h4M39 51h2M25 64h1M40 67h1M27 68h1" />
<path stroke="#7b94bd" d="M24 10h1M27 13h2M28 14h2M29 15h2M63 15h7M30 16h1M60 16h3M33 17h1M57 17h3M34 18h1M55 18h2M53 19h2M51 20h2M49 21h2M23 23h1M24 25h1M24 26h1M21 27h1M24 27h2M21 28h5M22 29h4M32 29h1M23 30h4M31 30h1M23 31h4M30 31h1M32 31h1M24 32h3M32 32h1M40 32h3M25 33h3M32 33h1M40 33h3M25 34h3M31 34h1M40 34h3M26 35h2M29 35h2M32 35h1M36 35h1M39 35h3M26 36h1M32 36h1M36 36h2M39 36h2M26 37h1M35 37h2M38 37h2M34 38h3M38 38h1M28 39h1M31 39h1M33 39h4M39 39h1M64 39h1M29 40h2M34 40h6M63 40h1M36 41h5M43 41h1M38 42h3M43 42h4M52 45h1M55 45h2M56 46h2M57 47h1M57 49h1M29 50h1M45 50h1M30 51h1M45 51h3M30 52h3M45 52h3M31 53h4M39 53h1M44 53h3M33 54h4M40 54h6M32 55h1M34 56h2M42 56h3M34 58h1M33 60h1M46 60h1M44 61h1M46 62h1M45 63h2M30 64h1M31 65h1" />
<path stroke="#bdcee6" d="M31 12h3M30 13h5M34 14h2M35 15h2M39 15h1M10 16h3M36 16h1M41 16h1M11 17h5M42 17h1M12 18h6M13 19h7M14 20h3M19 20h2M53 20h2M15 21h2M51 21h7M16 22h1M49 22h9M49 23h9M49 24h7M48 25h7M48 26h2M30 29h2M30 30h1M41 30h4M41 31h4M31 32h1M43 32h2M29 33h3M43 33h1M29 34h2M28 36h1M31 36h1M28 37h4M28 38h4M29 39h2M27 40h1M32 40h1M28 41h1M31 41h1M33 41h1M33 42h2M32 43h5M32 44h5M32 45h5M28 46h1M32 46h4M38 46h2M33 47h3M40 47h1M29 48h2M33 48h2M30 49h4M42 49h1M42 50h1M38 51h1M41 51h1M32 56h2M33 57h1M42 57h3M43 58h2M33 59h2M45 59h1M32 60h1M44 60h2M45 61h1M31 62h2M35 64h2M48 64h1M21 65h2M35 65h4M41 66h1M50 66h1M41 67h2M49 67h1M42 68h1M49 68h1M25 69h2M50 69h1M52 69h1M24 70h1M51 70h2M52 71h1" />
<path stroke="#9cb5d6" d="M26 14h2M26 15h3M38 15h1M27 16h3M37 16h1M39 16h2M27 17h4M32 17h1M36 17h2M39 17h3M28 18h3M32 18h2M37 18h1M39 18h4M28 19h4M34 19h2M37 19h2M40 19h1M17 20h2M29 20h7M37 20h2M17 21h5M30 21h7M38 21h1M17 22h6M30 22h6M38 22h1M17 23h6M31 23h3M38 23h1M18 24h6M31 24h2M19 25h5M31 25h2M20 26h4M31 26h2M22 27h2M31 27h1M33 40h1M62 40h1M34 41h2M59 41h3M35 42h3M41 42h2M56 42h4M37 43h11M53 43h4M37 44h11M51 44h3M37 45h1M40 45h9M50 45h2M36 46h1M41 46h8M50 46h1M36 47h1M42 47h7M35 48h2M44 48h5M57 48h1M34 49h3M43 49h1M46 49h3M56 49h1M31 50h6M43 50h2M33 51h4M42 51h3M35 52h3M39 52h6M37 53h1M40 53h4M29 65h2M44 65h1M28 66h2M43 66h2M47 66h2" />
<path stroke="#ffde00" d="M32 15h1M34 16h1" />
<path stroke="#ce9400" d="M33 15h1M34 17h1" />
<path stroke="#637bad" d="M32 16h1M33 27h1M32 28h2M33 30h2M33 31h2M33 32h1M35 32h1M34 33h2M33 34h3M33 35h2M33 36h2M32 37h2M32 38h1M65 38h1M65 39h1M64 40h1M62 41h3M60 42h4M57 43h7M54 44h9M53 45h2M57 45h5M51 46h2M58 46h3M50 47h2M58 47h2M50 48h1M58 48h1M50 49h1M50 50h2M30 63h1M27 64h3M31 64h3M32 65h2M45 65h3M30 66h1M45 66h2M29 67h1M44 67h1M47 67h1" />
<path stroke="#941019" d="M62 21h5M67 22h4M11 23h4M11 24h1M15 24h2M12 25h1M17 25h1M13 26h1M14 27h1M15 28h1M16 29h1M59 29h4M63 30h4M14 31h4M67 31h2M13 32h1M18 32h1M69 32h1M14 33h2M16 34h1M17 35h2M19 36h1M58 37h2M18 38h2M60 38h2M17 39h1M17 40h4" />
<path stroke="#ff8494" d="M61 22h6M59 23h9M60 24h3M66 31h1M63 32h6M61 33h5M58 34h4" />
<path stroke="#ef5a63" d="M68 23h3M12 24h3M58 24h2M63 24h6M13 25h4M56 25h10M14 26h4M55 26h9M15 27h4M54 27h7M16 28h3M53 28h6M52 29h5M51 30h4M60 31h6M14 32h4M57 32h6M16 33h3M55 33h6M18 34h1M52 34h6M56 38h4M18 39h3M58 39h4" />
<path stroke="#c5314a" d="M18 26h1M19 27h1M53 27h1M19 28h1M51 28h2M17 29h4M50 29h2M18 30h4M48 30h3M57 30h6M19 31h3M47 31h6M55 31h5M20 32h3M46 32h5M53 32h4M19 33h1M21 33h3M45 33h5M51 33h4M17 34h1M19 34h2M22 34h2M44 34h4M50 34h2M19 35h3M23 35h2M43 35h4M48 35h10M20 36h3M24 36h1M42 36h3M47 36h8M22 37h2M42 37h2M45 37h7M55 37h3M20 38h2M24 38h1M41 38h2M44 38h4M52 38h4M21 39h3M25 39h1M41 39h1M43 39h2M48 39h10M42 40h1M45 40h9" />
<path stroke="#ffffff" d="M23 63h3M22 64h3M26 67h2M50 67h2M25 68h2M39 68h3M50 68h2M24 69h1M39 69h2M51 69h1M39 70h1" />
</svg>