<svg xmlns="http://www.w3.org/2000/svg" viewBox="0 -0.5 80 80" shape-rendering="crispEdges">
<metadata>Made with Pixels to Svg https://codepen.io/shshaw/pen/XbxvNj</metadata>
<path stroke="#4a4a52" d="M18 8h3M16 9h2M21 9h1M26 9h5M15 10h1M24 10h2M31 10h2M14 11h1M22 11h2M33 11h2M14 12h1M35 12h1M13 13h1M36 13h1M13 14h1M19 14h1M37 15h1M17 17h1M15 18h3M14 19h5M13 20h7M13 21h8M15 22h3M20 22h5M12 23h1M15 23h1M20 23h6M19 24h7M17 25h9M22 26h3M23 27h1M32 29h1M36 31h2M46 31h2M30 32h1M42 32h2M18 33h1M30 33h2M30 34h1M42 34h1M30 35h1M35 35h3M48 35h1M53 35h1M29 36h1M35 36h4M49 36h1M53 36h1M34 37h5M44 37h1M49 37h2M52 37h3M33 38h7M43 38h2M48 38h7M25 39h1M31 39h9M43 39h3M47 39h9M28 40h12M42 40h14M27 41h29M23 42h1M26 42h31M24 43h22M47 43h10M24 44h22M47 44h10M23 45h15M39 45h3M48 45h9M23 46h2M26 46h5M32 46h6M48 46h9M23 47h3M27 47h1M30 47h1M32 47h6M49 47h8M23 48h3M33 48h6M49 48h8M24 49h2M33 49h6M50 49h6M24 50h2M34 50h5M52 50h3M24 51h2M35 51h4M25 52h1M35 52h5M36 53h4M36 54h4M36 55h4M36 56h4M49 56h1M36 57h2M46 57h1M60 57h1M47 58h1M58 58h2M23 59h1M48 59h1M25 60h2M34 62h1M56 62h3M21 63h3M36 63h2M55 63h1M57 63h3M21 64h4M56 64h2M23 65h1M23 66h1M33 66h3M32 67h1M34 67h3M33 68h2M36 68h1" />
<path stroke="#ced6d6" d="M18 9h2M16 10h4M26 10h4M15 11h4M24 11h7M15 12h3M22 12h8M14 13h4M21 13h7M14 14h2M20 14h6M20 15h5M20 16h3M30 29h2M31 30h3M31 31h3M32 32h2M36 32h3M46 32h3M19 33h1M32 33h2M37 33h4M42 33h3M47 33h4M19 34h1M32 34h2M39 34h3M43 34h3M49 34h2M19 35h1M32 35h1M41 35h1M44 35h3M24 37h1M23 38h3M24 39h1M59 55h1M58 56h1M23 57h1M23 58h3M24 59h2M22 60h2M22 61h3M35 61h3M36 62h2M34 63h1M34 64h4M19 65h1M35 65h2M20 66h1M22 66h1M31 68h1M33 69h1M35 69h1" />
<path stroke="#a59cad" d="M20 9h1M20 10h3M30 10h1M19 11h3M31 11h2M18 12h3M30 12h5M18 13h2M28 13h8M16 14h3M26 14h3M31 14h5M14 15h5M25 15h2M33 15h4M14 16h3M19 16h1M23 16h3M34 16h3M14 17h1M19 17h7M35 17h2M19 18h6M35 18h2M20 19h5M35 19h2M21 20h3M35 20h1M34 21h2M34 22h1M16 24h1M31 32h1M34 32h1M20 33h1M34 33h1M36 33h1M20 34h1M34 34h1M38 34h1M46 34h1M51 34h1M20 35h1M33 35h1M39 35h2M50 35h2M20 36h2M31 36h3M40 36h3M45 36h3M51 36h1M20 37h2M25 37h1M30 37h3M40 37h3M46 37h2M21 38h1M26 38h1M29 38h2M41 38h1M46 38h1M41 39h1M23 40h2M26 40h1M24 41h2M60 55h1M46 56h3M57 56h1M59 56h2M24 57h1M47 57h3M57 57h3M26 58h2M45 58h2M60 58h2M26 59h2M45 59h3M57 59h5M24 60h1M27 60h1M34 60h2M57 60h4M25 61h2M34 61h1M38 61h2M24 62h3M35 62h1M38 62h2M42 62h1M44 62h1M33 63h1M35 63h1M33 64h1M38 64h1M54 64h1M37 65h2M56 65h1M58 65h1" />
<path stroke="#000000" d="M22 9h1M23 10h1M21 12h1M20 13h1M29 14h2M36 14h1M13 15h1M19 15h1M31 15h2M13 16h1M33 16h1M37 16h1M13 17h1M18 17h1M34 17h1M37 17h1M14 18h1M18 18h1M34 18h1M37 18h1M51 18h2M54 18h1M13 19h1M19 19h1M25 19h1M34 19h1M37 19h1M50 19h1M53 19h1M12 20h1M24 20h1M34 20h1M36 20h1M49 20h1M52 20h2M12 21h1M27 21h1M33 21h1M36 21h1M48 21h1M50 21h5M12 22h1M27 22h1M33 22h1M35 22h1M47 22h8M11 23h1M33 23h2M46 23h5M11 24h1M28 24h1M10 25h1M28 25h1M28 26h1M29 27h1M29 28h3M7 29h1M29 29h1M33 29h1M7 30h1M13 30h1M19 30h1M30 30h1M34 30h1M8 31h2M12 31h1M17 31h2M30 31h1M34 31h1M38 31h1M48 31h1M10 32h2M20 32h1M35 32h1M39 32h2M44 32h2M49 32h2M21 33h1M35 33h1M41 33h1M45 33h2M51 33h1M57 33h2M21 34h1M31 34h1M35 34h1M52 34h4M31 35h1M52 35h1M34 36h1M23 37h1M29 37h1M33 37h1M55 37h1M22 38h1M28 38h1M31 38h2M55 38h1M22 39h1M27 39h4M56 39h1M22 40h1M27 40h1M56 40h1M26 41h1M56 41h1M24 42h2M57 42h1M46 43h1M57 43h1M46 44h1M57 44h1M38 45h1M47 45h1M57 45h1M38 46h1M46 46h2M57 46h1M26 47h1M38 47h1M42 47h2M48 47h1M57 47h1M27 48h1M39 48h3M48 48h1M58 48h1M29 49h1M39 49h1M41 49h1M48 49h2M58 49h1M29 50h3M33 50h1M39 50h1M41 50h1M48 50h1M50 50h1M59 50h1M28 51h1M34 51h1M39 51h1M42 51h1M48 51h1M51 51h1M60 51h1M28 52h1M34 52h1M43 52h1M49 52h1M52 52h2M60 52h1M28 53h1M35 53h1M40 53h1M44 53h2M49 53h1M54 53h3M60 53h1M28 54h1M35 54h1M40 54h1M46 54h1M49 54h1M56 54h1M60 54h1M27 55h1M35 55h1M40 55h1M45 55h5M56 55h3M61 55h1M27 56h1M35 56h1M40 56h1M45 56h1M50 56h1M56 56h1M61 56h1M25 57h1M27 57h2M35 57h1M39 57h1M45 57h1M50 57h1M61 57h1M28 58h1M39 58h1M44 58h1M48 58h2M62 58h1M28 59h1M39 59h1M44 59h1M49 59h1M56 59h1M62 59h1M28 60h1M33 60h1M38 60h3M43 60h1M46 60h3M61 60h2M27 61h2M33 61h1M40 61h1M42 61h1M47 61h1M59 61h3M27 62h1M33 62h1M40 62h2M43 62h1M45 62h1M47 62h1M61 62h1M24 63h3M32 63h1M38 63h2M41 63h2M44 63h3M61 63h1M26 64h1M32 64h1M58 64h1M61 64h1M25 65h2M39 65h1M55 65h1M57 65h1M60 65h1M21 66h1M24 66h1M37 66h2M55 66h2M58 66h2M19 67h2M22 67h2M31 67h1M38 67h1M30 68h1M32 68h1M38 68h1M30 69h3M37 69h1M32 70h2M35 70h1" />
<path stroke="#192129" d="M27 15h2M17 16h2M26 16h1M15 17h2M26 17h1M56 17h6M25 18h1M55 18h2M61 18h3M51 19h2M54 19h1M63 19h2M26 20h1M50 20h2M64 20h2M49 21h1M65 21h2M18 22h2M66 22h1M16 23h1M19 23h1M27 23h1M66 23h2M15 24h1M67 24h1M67 25h1M9 26h1M67 26h1M8 27h1M66 27h2M7 28h1M66 28h1M8 29h2M15 29h2M65 29h2M8 30h1M14 30h1M64 30h2M20 31h1M62 31h3M12 32h4M19 32h1M60 32h3M59 33h2M18 34h1M36 34h2M47 34h2M56 34h3M18 35h1M21 35h1M34 35h1M38 35h1M42 35h2M47 35h1M49 35h1M54 35h3M19 36h1M22 36h1M24 36h2M30 36h1M39 36h1M44 36h1M48 36h1M50 36h1M52 36h1M54 36h1M19 37h1M22 37h1M26 37h1M39 37h1M43 37h1M45 37h1M48 37h1M51 37h1M20 38h1M27 38h1M40 38h1M42 38h1M45 38h1M47 38h1M21 39h1M40 39h1M42 39h1M46 39h1M40 40h2M22 41h2M22 42h1M23 43h1M23 44h1M22 45h1M22 46h1M25 46h1M31 46h1M44 46h2M22 47h1M31 47h1M22 48h1M32 48h1M23 49h1M32 49h1M23 50h1M32 50h1M23 51h1M24 52h1M40 52h1M24 53h1M24 54h1M24 55h1M23 56h2M22 57h1M26 57h1M56 57h1M22 58h1M35 58h1M57 58h1M22 59h1M34 59h2M21 60h1M56 60h1M21 61h1M56 61h3M21 62h3M55 62h1M20 63h1M54 63h1M19 64h2M53 64h1M55 64h1M18 65h1M20 65h3M33 65h2M53 65h2M18 66h2M31 66h2M36 66h1M33 67h1M35 68h1M34 69h1" />
<path stroke="#31313a" d="M20 20h1M25 20h1M21 21h6M25 22h2M26 23h1M26 24h2M26 25h2M21 26h1M25 26h3M22 27h1M24 27h5M22 28h7M21 29h8M20 30h10M21 31h9M21 32h9M22 33h8M22 34h8M22 35h8M23 36h1M26 36h3M43 36h1M27 37h2M23 39h1M26 39h1M25 40h1M44 47h4M26 48h1M42 48h6M57 48h1M26 49h3M42 49h6M56 49h2M26 50h3M42 50h6M51 50h1M55 50h4M26 51h2M43 51h5M52 51h8M26 52h2M44 52h5M54 52h6M25 53h3M46 53h3M57 53h3M25 54h3M47 54h2M57 54h3M25 55h2M25 56h2M38 57h1M36 58h3M36 59h3M36 60h2M44 60h2M43 61h4M46 62h1M59 62h2M56 63h1M60 63h1M25 64h1M39 64h1M59 64h2M24 65h1M59 65h1M37 67h1M37 68h1M36 69h1M36 70h1" />
<path stroke="#f79c84" d="M13 22h1M13 23h1M12 24h2M11 25h5M10 26h9M9 27h10M8 28h8M10 29h3M9 30h2" />
<path stroke="#632910" d="M14 22h1M14 23h1M20 26h1M21 27h1M21 28h1M16 31h1" />
<path stroke="#841021" d="M17 23h1M17 24h1" />
<path stroke="#ffffff" d="M18 23h1M18 24h1" />
<path stroke="#a55a4a" d="M14 24h1M16 25h1M19 26h1M19 27h2M16 28h5M13 29h2M17 29h4M11 30h2M15 30h4M10 31h2M13 31h3M42 45h5M39 46h5M28 47h2M39 47h3M28 48h4M30 49h2" />
</svg>