<svg xmlns="http://www.w3.org/2000/svg" viewBox="0 -0.5 80 80" shape-rendering="crispEdges">
<metadata>Made with Pixels to Svg https://codepen.io/shshaw/pen/XbxvNj</metadata>
<path stroke="#522900" d="M50 6h1M51 7h1M51 8h1M59 8h1M52 9h1M58 9h1M52 10h1M59 10h2M52 11h1M57 11h1M53 12h1M59 12h1M62 12h2M57 13h2M64 13h2M43 14h1M52 14h5M66 14h2M40 15h1M44 15h2M51 15h1M65 15h1M40 16h1M66 16h1M41 17h1M67 17h1M42 18h3M65 18h1M46 19h1M66 19h1M61 30h1M65 30h1M62 32h1M53 33h1M46 34h1M53 34h1M59 34h1M67 34h1M53 35h1M63 35h1M53 36h1M40 37h1M53 37h1M41 38h1M68 38h1M52 39h1M40 40h1M52 40h1M64 40h1M40 41h1M52 41h1M64 41h1M67 41h1M40 42h1M52 42h1M64 42h1M67 42h1M69 42h1M39 43h1M52 43h1M64 43h1M68 43h1M39 44h1M52 44h1M68 44h1M70 44h1M40 45h1M52 45h1M68 45h1M45 46h1M52 46h1M66 46h1M41 47h1M44 47h1M66 47h1M41 48h1M43 48h1M53 48h1M63 48h1M41 49h1M43 49h1M46 49h1M48 49h1M53 49h1M33 50h1M42 50h1M47 50h2M50 50h1M53 50h1M33 51h1M48 51h1M51 51h1M53 51h1M32 52h1M40 52h1M30 53h2M34 53h1M41 53h1M70 53h1M22 54h1M29 54h1M38 54h1M71 54h2M17 55h1M24 55h1M28 55h1M73 55h2M75 56h2M16 57h1M15 58h1M74 58h1M15 59h1M41 59h1M53 59h1M62 59h1M15 60h1M41 60h1M53 60h1M68 60h1M72 60h1M41 61h1M53 61h1M63 61h1M68 61h1M25 62h1M41 62h1M54 62h1M65 62h1M67 62h1M25 63h1M40 63h1M54 63h1M19 64h1M26 64h1M40 64h1M55 64h1M16 65h1M18 65h1M20 65h1M23 65h1M27 65h1M39 65h1M50 65h1M55 65h1M13 66h1M15 66h1M22 66h1M24 66h1M38 66h1M41 66h1M44 66h1M47 66h1M49 66h1M51 66h1M39 67h1M41 67h1M43 67h1M41 68h1" />
<path stroke="#c59400" d="M49 7h1M49 8h1M48 9h1M51 9h1M48 10h1M50 10h2M47 11h1M50 11h2M47 12h1M49 12h4M40 13h2M47 13h1M49 13h4M40 14h1M42 14h1M46 14h1M49 14h3M60 14h1M43 15h1M46 15h1M48 15h3M59 15h1M46 16h1M48 16h2M56 16h4M52 17h6M50 18h4M49 19h2M49 20h1" />
<path stroke="#ffe694" d="M50 7h1M50 8h1M49 9h1M49 10h1M48 11h1M48 12h1M48 13h1M41 14h1M47 14h1M41 15h2M47 15h1M42 16h4M47 16h1M43 17h5M46 18h2M47 19h1M57 35h1M56 36h2M55 37h3M59 37h1M55 38h5M54 39h7M54 40h7M54 41h7M54 42h7M54 43h5M60 43h1M54 44h1M56 44h3M60 44h1M54 45h1M56 45h2M54 46h1M56 46h1" />
<path stroke="#84524a" d="M56 7h5M46 8h1M53 8h3M46 9h2M44 10h1M46 10h1M44 11h2M58 11h1M43 12h1M56 12h1M43 13h1M62 14h1M61 15h4M63 16h3M64 17h1M63 18h1M62 19h4M64 20h3M62 26h1M61 27h3M61 28h3M53 29h1M61 29h4M53 30h1M62 30h3M53 31h1M62 31h4M48 32h1M61 32h1M63 32h3M51 33h2M63 33h3M52 34h1M63 34h3M52 35h1M62 35h1M64 35h2M52 36h1M64 36h2M52 37h1M64 37h3M52 38h1M64 38h3M40 39h1M64 39h3M35 40h3M39 40h1M65 40h3M32 41h3M65 41h2M28 42h3M65 42h2M27 43h1M65 43h3M23 44h1M59 44h1M65 44h3M39 45h1M45 45h1M55 45h1M59 45h1M65 45h3M39 46h1M41 46h1M44 46h1M55 46h1M59 46h1M65 46h1M67 46h2M22 47h1M53 47h2M56 47h1M58 47h1M61 47h1M65 47h1M68 47h1M46 48h1M48 48h1M56 48h1M58 48h1M61 48h1M65 48h1M33 49h1M39 49h1M49 49h1M57 49h1M59 49h1M61 49h2M34 50h1M39 50h1M60 50h1M34 51h7M33 52h7M35 53h5M68 53h2M39 54h1M67 54h3M66 55h5M17 56h1M64 56h8M62 57h11M76 57h1M40 58h2M62 58h12M75 58h1M20 59h1M39 59h2M43 59h1M49 59h1M63 59h12M22 60h1M39 60h2M63 60h5M69 60h3M15 61h1M24 61h2M39 61h2M64 61h4M70 61h2M14 62h1M39 62h2M64 62h1M66 62h1M71 62h1M14 63h1M66 63h1M13 64h1M12 65h1M21 65h1M53 65h1M14 67h1" />
<path stroke="#cea563" d="M56 8h3M53 9h5M47 10h1M53 10h3M46 11h1M53 11h1M44 12h1M46 12h1M44 13h3M43 34h1M56 34h2M40 35h1M42 35h6M56 35h1M40 36h1M42 36h7M55 36h1M58 36h1M42 37h7M58 37h1M42 38h8M54 38h1M60 38h1M41 39h9M38 40h1M41 40h9M61 40h1M35 41h5M41 41h9M61 41h1M32 42h8M41 42h9M61 42h1M24 43h2M30 43h9M40 43h11M59 43h1M61 43h1M24 44h15M40 44h5M46 44h5M55 44h1M61 44h1M23 45h16M42 45h3M46 45h5M58 45h1M60 45h2M23 46h16M42 46h2M46 46h5M57 46h2M60 46h1M23 47h18M42 47h2M46 47h2M49 47h2M57 47h1M60 47h1M22 48h11M34 48h7M42 48h1M47 48h1M49 48h2M57 48h1M22 49h11M35 49h4M42 49h1M47 49h1M50 49h2M22 50h10M51 50h1M22 51h9M23 52h6M25 53h3M17 58h2M16 59h3M16 60h2M16 61h2M20 61h1M43 61h2M15 62h3M19 62h2M42 62h4M47 62h1M15 63h7M41 63h8M14 64h5M20 64h2M41 64h5M47 64h3M13 65h3M17 65h1M22 65h1M40 65h6M49 65h1M14 66h1M39 66h2M42 66h2M45 66h2M42 67h1M46 67h1" />
<path stroke="#ffce00" d="M50 9h1M49 11h1M60 12h1M59 13h2M48 14h1M57 14h3M52 15h7M41 16h1M50 16h6M42 17h1M48 17h4M45 18h1M48 18h2M48 19h1M48 20h1" />
<path stroke="#b5844a" d="M56 10h3M54 11h3M59 11h1M45 12h1M54 12h2M57 12h2M54 13h3M62 13h2M44 14h2M63 14h3M48 30h1M49 31h4M60 31h1M43 32h1M54 32h1M56 32h1M60 32h1M43 33h1M47 33h4M54 33h3M60 33h2M66 33h1M44 34h1M47 34h5M54 34h2M60 34h2M66 34h1M48 35h4M54 35h2M58 35h4M66 35h2M49 36h3M54 36h1M59 36h4M66 36h2M49 37h3M54 37h1M60 37h3M67 37h1M50 38h2M53 38h1M61 38h2M67 38h1M50 39h2M53 39h1M61 39h2M67 39h2M50 40h2M53 40h1M62 40h2M68 40h1M50 41h2M53 41h1M62 41h2M68 41h1M31 42h1M50 42h2M53 42h1M62 42h2M68 42h1M28 43h2M51 43h1M53 43h1M62 43h2M69 43h1M45 44h1M51 44h1M53 44h1M62 44h2M69 44h1M41 45h1M51 45h1M53 45h1M62 45h2M69 45h2M40 46h1M51 46h1M53 46h1M61 46h3M70 46h1M45 47h1M48 47h1M51 47h2M59 47h1M62 47h2M33 48h1M44 48h2M51 48h2M59 48h2M62 48h1M34 49h1M40 49h1M44 49h2M52 49h1M60 49h1M32 50h1M35 50h4M40 50h2M43 50h4M49 50h1M52 50h1M21 51h1M31 51h2M41 51h7M49 51h2M52 51h1M21 52h2M29 52h3M41 52h11M22 53h3M28 53h2M42 53h5M23 54h6M70 54h1M25 55h3M71 55h2M72 56h3M17 57h2M73 57h3M16 58h1M19 58h1M19 59h1M42 59h1M50 59h3M18 60h4M42 60h11M18 61h2M21 61h3M42 61h1M45 61h8M18 62h1M21 62h4M46 62h1M48 62h6M22 63h3M49 63h5M22 64h4M46 64h1M50 64h5M24 65h3M46 65h3M51 65h2M25 66h1M48 66h1M52 66h1" />
<path stroke="#101010" d="M60 11h2M61 12h1M53 13h1M61 13h1M61 14h1M60 15h1M60 16h3M58 17h2M63 17h1M65 17h2M54 18h4M62 18h1M64 18h1M45 19h1M52 19h2M61 19h1M39 20h1M44 20h1M47 20h1M52 20h1M54 20h1M67 20h1M41 21h1M46 21h1M66 21h1M56 24h1M64 24h3M40 25h1M56 25h1M61 25h3M56 26h1M61 26h1M63 26h1M42 27h1M47 27h1M56 27h1M64 27h1M42 28h1M47 28h1M53 28h1M56 28h1M60 28h1M64 28h1M24 29h1M47 29h1M51 29h1M56 29h1M60 29h1M65 29h1M24 30h1M43 30h1M45 30h1M47 30h1M49 30h4M54 30h1M60 30h1M42 31h2M46 31h3M54 31h1M56 31h1M61 31h1M66 31h1M25 32h1M42 32h1M47 32h1M49 32h5M55 32h1M57 32h1M59 32h1M66 32h1M25 33h1M42 33h1M44 33h1M46 33h1M57 33h1M59 33h1M62 33h1M67 33h1M15 34h1M25 34h1M28 34h1M37 34h1M42 34h1M45 34h1M58 34h1M62 34h1M16 35h1M28 35h1M38 35h1M41 35h1M68 35h1M18 36h1M34 36h1M39 36h1M41 36h1M63 36h1M68 36h1M19 37h1M36 37h1M41 37h1M63 37h1M68 37h1M21 38h1M38 38h1M63 38h1M63 39h1M69 39h1M69 40h1M69 41h1M6 42h1M23 42h2M6 43h1M23 43h1M26 43h1M70 43h1M7 44h1M64 44h1M22 45h1M64 45h1M71 45h1M22 46h1M64 46h1M69 46h1M71 46h1M17 47h2M64 47h1M67 47h1M69 47h3M19 48h1M21 48h1M64 48h1M66 48h1M68 48h2M20 49h2M64 49h2M3 50h1M14 50h1M21 50h1M64 50h1M3 51h1M14 51h1M64 51h1M4 52h1M13 52h1M18 52h1M52 52h1M63 52h1M68 52h2M5 53h1M12 53h1M17 53h1M32 53h2M40 53h1M47 53h6M61 53h1M63 53h1M67 53h1M7 54h4M17 54h1M35 54h3M40 54h2M53 54h1M55 54h1M60 54h1M62 54h2M66 54h1M39 55h1M41 55h1M53 55h2M59 55h1M64 55h2M18 56h1M25 56h3M29 56h1M39 56h1M41 56h1M53 56h1M58 56h2M62 56h2M19 57h1M29 57h1M39 57h3M53 57h1M57 57h1M60 57h2M77 57h1M20 58h1M29 58h1M39 58h1M42 58h1M50 58h3M61 58h1M76 58h1M21 59h2M28 59h1M38 59h1M44 59h5M75 59h2M23 60h5M38 60h1M62 60h1M73 60h2M77 60h1M26 61h1M38 61h1M69 61h1M72 61h1M77 61h1M38 62h1M63 62h1M68 62h1M70 62h1M72 62h1M77 62h1M39 63h1M63 63h3M67 63h1M71 63h1M75 63h2M39 64h1M66 64h1M75 64h1M54 65h1M67 65h1M73 65h2M26 66h1M53 66h1M69 66h4M13 67h1M25 67h2M40 67h1M44 67h2M47 67h2M54 67h1M14 68h1M26 68h1M42 68h2M55 68h1M19 69h1M23 69h3M43 69h1M56 69h1M17 70h6M43 70h1M56 70h1M54 71h1M56 71h1M45 72h1M50 72h1M54 72h2M48 73h5" />
<path stroke="#e62900" d="M60 17h3M58 18h4M42 19h2M57 19h3M43 20h1M56 21h3M42 22h1M55 22h7M41 23h1M44 23h1M56 23h2M60 23h5M40 24h1M43 24h1M59 24h1M61 24h3M59 25h2M50 26h2M59 26h2M49 27h1M52 27h1M59 27h1M49 28h1M59 28h1M58 29h2M58 30h2M57 31h2M46 32h1M58 32h1M58 33h1" />
<path stroke="#9c0000" d="M40 18h2M40 19h1M44 19h1M56 19h1M60 19h1M41 20h1M56 20h1M61 20h3M42 21h1M44 21h1M54 21h2M64 21h2M45 22h1M66 22h1M59 23h1M67 23h1M60 24h1M67 24h1M41 25h1M48 25h2M42 26h1M48 26h2M48 27h1M60 27h1M43 29h1M59 31h1M44 32h1" />
<path stroke="#ff7b29" d="M41 19h1M54 19h1M42 20h1M46 20h1M53 20h1M55 20h1M57 20h4M43 21h1M59 21h5M43 22h2M62 22h4M42 23h2M58 23h1M65 23h2M41 24h2M57 24h2M42 25h2M57 25h2M43 26h1M57 26h2M43 27h1M50 27h2M57 27h2M43 28h1M50 28h1M57 28h2M44 29h1M50 29h1M57 29h1M44 30h1M57 30h1M44 31h2M45 32h1M45 33h1" />
<path stroke="#6b6b6b" d="M51 19h1M38 20h1M50 20h1M40 21h1M48 21h2M52 21h2M46 22h1M54 22h1M45 23h1M55 23h1M44 24h1M48 24h2M23 25h2M44 25h1M47 25h1M50 25h2M23 26h1M25 26h1M44 26h1M47 26h1M52 26h1M23 27h1M26 27h1M44 27h1M53 27h1M24 28h1M27 28h1M44 28h1M48 28h1M51 28h2M28 29h1M45 29h1M49 29h1M54 29h1M29 30h1M32 30h2M56 30h1M25 31h1M30 31h1M32 31h1M34 31h1M31 32h2M35 32h1M15 33h4M32 33h1M36 33h1M19 34h4M29 34h2M33 34h1M40 34h1M17 35h1M23 35h3M31 35h2M39 35h1M26 36h3M33 36h1M14 37h1M20 37h1M29 37h1M35 37h1M9 38h4M22 38h1M37 38h1M8 39h1M13 39h1M20 39h2M23 39h2M39 39h1M7 40h1M19 40h1M6 41h1M20 41h3M25 42h1M8 45h1M9 46h1M9 47h1M16 47h1M3 48h2M9 48h1M15 48h1M67 48h1M3 49h1M5 49h1M8 49h1M14 49h1M66 49h1M68 49h1M6 50h2M65 50h2M69 50h1M19 51h2M65 51h3M69 51h1M60 52h1M64 52h4M6 53h1M11 53h1M21 53h1M53 53h1M55 53h1M60 53h1M64 53h3M42 54h4M52 54h1M59 54h1M61 54h1M64 54h2M23 55h1M40 55h1M49 55h4M56 55h1M60 55h4M28 56h1M40 56h1M48 56h5M56 56h1M60 56h2M21 57h3M28 57h1M48 57h5M21 58h8M48 58h2M23 59h5M75 61h1M75 62h1M73 63h1M73 64h1M68 65h1M17 66h1M19 67h1M23 67h1M52 67h1M19 68h1M23 68h1M46 68h1M15 69h1M49 69h1M53 69h1M16 70h1M50 70h1M54 70h1M44 71h1M50 71h1M46 72h1M49 72h1M53 72h1M47 73h1" />
<path stroke="#ffffff" d="M55 19h1M45 20h1M45 21h1M47 21h1M50 21h1M34 22h4M47 22h6M33 23h6M46 23h8M33 24h6M45 24h3M50 24h5M33 25h6M45 25h2M52 25h3M24 26h1M29 26h2M33 26h5M45 26h2M24 27h2M27 27h5M33 27h5M46 27h1M25 28h2M29 28h6M26 29h2M31 29h1M33 29h1M52 29h1M23 30h1M27 30h2M22 31h2M28 31h2M33 31h1M22 32h2M29 32h2M33 32h2M22 33h2M30 33h2M34 33h2M16 34h3M32 34h1M35 34h2M19 35h4M29 35h2M36 35h2M22 36h4M30 36h3M15 37h3M25 37h4M32 37h3M15 38h3M28 38h2M34 38h3M9 39h2M14 39h5M22 39h1M37 39h2M8 40h4M13 40h6M20 40h1M8 41h4M13 41h7M8 42h4M13 42h4M18 42h5M9 43h2M14 43h2M19 43h2M10 48h2M9 49h3M8 50h4M6 51h5M67 64h3M69 65h2M16 66h1M19 66h2M15 67h3M20 67h3M15 68h3M20 68h2M49 68h4M45 69h3M50 69h2M54 69h1M45 70h4M51 70h2M46 71h3M51 71h2" />
<path stroke="#adadad" d="M36 20h2M34 21h2M33 22h1M32 23h1M32 24h1M55 24h1M29 25h4M55 25h1M27 26h2M55 26h1M55 27h1M54 28h2M23 29h1M40 29h3M55 29h1M22 30h1M38 30h5M46 30h1M55 30h1M21 31h1M37 31h5M55 31h1M21 32h1M37 32h5M21 33h1M37 33h5M38 34h2M41 34h1M15 36h1M29 36h1M14 38h1M30 38h1M12 40h1M12 41h1M12 42h1M7 43h1M21 46h1M19 47h3M55 47h1M20 48h1M54 48h2M56 49h1M58 49h1M63 49h1M67 49h1M61 50h3M67 50h2M61 51h3M68 51h1M19 52h1M53 52h1M56 52h1M61 52h2M18 53h2M56 53h1M62 53h1M18 54h2M46 54h1M50 54h2M54 54h1M56 54h2M18 55h3M48 55h1M57 55h1M19 56h3M42 56h6M57 56h1M20 57h1M24 57h4M42 57h6M43 58h5M76 60h1M73 61h2M74 62h1M72 65h1M18 66h1M50 66h1M53 67h1M48 69h1M53 70h1M55 70h1M53 71h1M55 71h1M51 72h2" />
<path stroke="#d6d6d6" d="M51 20h1M36 21h4M51 21h1M38 22h4M53 22h1M39 23h2M54 23h1M39 24h1M39 25h1M31 26h2M38 26h4M53 26h2M32 27h1M38 27h4M45 27h1M54 27h1M28 28h1M35 28h7M45 28h2M25 29h1M29 29h2M32 29h1M34 29h6M46 29h1M48 29h1M25 30h2M30 30h2M34 30h4M24 31h1M26 31h2M31 31h1M35 31h2M24 32h1M26 32h3M36 32h1M24 33h1M26 33h4M33 33h1M23 34h2M26 34h2M31 34h1M34 34h1M18 35h1M26 35h2M33 35h3M16 36h2M19 36h3M35 36h4M18 37h1M21 37h4M30 37h2M37 37h3M18 38h3M23 38h5M31 38h3M39 38h2M11 39h2M19 39h1M25 39h12M21 40h14M7 41h1M23 41h9M7 42h1M17 42h1M26 42h2M8 43h1M11 43h3M16 43h3M21 43h2M8 44h15M9 45h13M10 46h11M10 47h6M12 48h3M4 49h1M12 49h2M54 49h2M4 50h2M12 50h2M54 50h6M4 51h2M11 51h3M54 51h7M5 52h8M20 52h1M54 52h2M57 52h3M7 53h4M20 53h1M54 53h1M57 53h3M20 54h2M47 54h3M58 54h1M21 55h2M42 55h6M58 55h1M22 56h3M75 60h1M76 61h1M69 62h1M73 62h1M76 62h1M68 63h3M72 63h1M74 63h1M70 64h3M74 64h1M19 65h1M71 65h1M21 66h1M23 66h1M18 67h1M24 67h1M49 67h3M18 68h1M22 68h1M24 68h2M44 68h2M47 68h2M53 68h2M16 69h3M20 69h3M44 69h1M52 69h1M55 69h1M44 70h1M49 70h1M45 71h1M49 71h1M47 72h2" />
</svg>