<svg xmlns="http://www.w3.org/2000/svg" viewBox="0 -0.5 80 80" shape-rendering="crispEdges">
<metadata>Made with Pixels to Svg https://codepen.io/shshaw/pen/XbxvNj</metadata>
<path stroke="#84424a" d="M34 7h3M33 8h2M37 8h1M33 9h1M33 10h1M33 11h1M33 12h1M34 13h1M34 14h1M35 15h1M35 16h1M38 16h1M36 17h1M36 18h2M32 25h1M46 25h2M31 26h1M48 26h1M29 27h1M45 27h1M44 28h1M30 29h1M40 34h1M39 35h1M39 49h1M26 52h1M36 53h1M25 54h1M36 54h1M33 55h1M35 55h3M35 56h4M24 57h1M31 57h1M33 57h1M35 57h5M49 57h1M24 58h1M30 58h1M32 58h1M35 58h6M49 58h1M24 59h2M31 59h1M33 59h2M36 59h7M48 59h1M26 60h1M30 60h1M32 60h3M36 60h12M27 61h9M37 61h10M28 62h9M39 62h6M28 63h11M28 64h11M27 65h11M28 66h9M30 67h5" />
<path stroke="#e6738c" d="M35 8h2M35 9h1M37 9h1M35 10h3M36 11h3M36 12h3M37 13h2M36 19h4M36 20h6M37 21h6M37 22h7M32 23h2M36 23h8M32 24h13M33 25h4M39 25h2M43 25h2M32 26h5M39 26h2M43 26h2M30 27h3M34 27h11M28 28h4M35 28h5M42 28h2M28 29h2M37 29h3M42 29h1M40 33h1M41 34h1M40 49h5M38 50h9M37 51h11M37 52h11M37 53h12M38 54h11M38 55h6M47 55h2M39 56h4M48 56h1M40 57h3M42 58h1" />
<path stroke="#ce5a73" d="M34 9h1M34 10h1M34 11h2M34 12h2M35 13h2M35 14h4M36 15h3M36 16h2M37 17h1M45 25h1M39 30h3M39 34h1M38 35h1M40 35h1M38 36h2" />
<path stroke="#ef9ca5" d="M36 9h1M34 20h2M33 21h4M33 22h4M34 23h2" />
<path stroke="#101010" d="M38 9h1M38 10h1M39 11h1M39 12h1M39 13h1M39 14h1M39 15h1M38 17h1M26 18h1M38 18h2M27 19h1M40 19h2M28 20h1M42 20h1M28 21h2M43 21h1M29 22h1M44 22h1M28 23h2M44 23h1M25 24h3M45 24h1M24 25h1M24 26h1M29 26h1M23 27h1M28 27h1M49 27h1M23 28h1M27 28h1M46 28h1M49 28h1M23 29h1M27 29h1M31 29h1M34 29h2M47 29h2M23 30h1M28 30h2M31 30h1M34 30h2M43 30h1M22 31h1M31 31h1M42 31h1M22 32h1M32 32h1M22 33h1M32 33h1M33 34h1M43 34h1M19 35h3M34 35h1M42 35h1M55 35h1M22 36h4M34 36h2M55 36h1M26 37h3M54 37h1M29 38h3M45 38h2M52 38h2M32 39h2M44 39h1M51 39h1M33 40h1M37 40h3M42 40h2M49 40h2M33 41h1M41 41h1M48 41h1M34 42h1M41 42h1M48 42h1M34 43h1M41 43h1M47 43h1M33 44h2M42 44h3M47 44h1M45 45h2M33 46h1M42 46h1M32 47h2M43 47h1M29 48h1M40 48h5M28 49h2M35 49h1M38 49h1M45 49h2M27 50h1M30 50h1M34 50h1M37 50h1M47 50h1M26 51h1M30 51h1M33 51h1M36 51h1M31 52h1M33 52h1M36 52h1M25 53h1M32 53h1M35 53h1M33 54h1M35 54h1M24 55h1M24 56h1M34 56h1M23 57h1M34 57h1M23 58h1M34 58h1M23 59h1M35 59h1M23 60h1M35 60h1M48 60h1M23 61h1M36 61h1M47 61h1M23 62h1M37 62h2M45 62h2M39 63h6M24 64h1M39 64h1M41 64h1M44 64h1M25 65h1M38 65h1M41 65h1M26 66h2M37 66h1M42 66h1M28 67h2M35 67h2M43 67h2M30 68h5M36 68h1M33 69h1M36 69h1M36 70h1M35 71h1M33 72h2" />
<path stroke="#8c848c" d="M24 17h2M23 18h1M22 19h1M21 20h1M20 21h1M24 21h1M27 22h1M25 23h1M39 31h3M44 32h1M53 34h2M51 35h1M36 36h1M49 36h2M48 37h1M42 41h1M38 42h1M44 42h1M38 43h1M42 43h1M39 44h1M44 65h1M44 66h1M35 68h1M33 70h1M35 70h1M33 71h1" />
<path stroke="#dedede" d="M24 18h2M23 19h3M22 20h3M26 20h2M21 21h3M25 21h2M21 22h2M28 22h1M21 23h1M26 23h1M21 24h1M20 25h2M20 26h1M20 27h1M20 28h1M20 29h1M44 29h1M44 31h1M36 32h8M35 33h4M42 33h2M35 34h3M42 34h1M36 35h2M52 35h3M51 36h3M49 37h4M47 38h5M46 39h4M45 40h3M35 42h3M35 43h3M35 44h4M35 45h5M36 46h3" />
<path stroke="#52424a" d="M26 19h1M25 20h1M20 22h1M26 22h1M20 23h1M19 24h1M19 25h1M30 25h1M19 26h1M30 26h1M19 27h1M33 27h1M19 28h1M32 28h1M34 28h1M45 28h1M19 29h1M36 29h1M43 29h1M45 29h1M18 30h1M37 30h1M42 30h1M45 30h1M18 31h1M45 31h1M18 32h1M18 33h1M44 33h1M18 34h1M23 34h3M51 34h2M26 35h3M41 35h1M49 35h2M29 36h3M37 36h1M40 36h1M45 36h4M32 37h3M36 37h1M41 37h4M47 37h1M37 38h4M41 39h3M40 40h1M37 41h1M43 41h1M45 41h1M42 42h1M45 42h1M44 43h1M34 45h1M40 45h1M44 45h1M47 45h1M32 48h1M32 49h1M32 50h1M33 53h1" />
<path stroke="#b54a5a" d="M34 19h2M33 20h1M32 21h1M32 22h1M31 23h1M31 24h1M45 26h3M46 27h3M47 28h2M38 30h1M28 50h2M27 51h3M48 51h1M27 52h4M48 52h1M26 53h6M49 53h1M26 54h7M37 54h1M49 54h1M25 55h8M49 55h1M25 56h9M49 56h1M25 57h6M32 57h1M48 57h1M25 58h5M31 58h1M33 58h1M41 58h1M48 58h1M26 59h5M32 59h1M43 59h1M47 59h1M27 60h3M31 60h1" />
<path stroke="#ada5ad" d="M27 21h1M23 22h3M23 23h2M22 24h3M22 25h2M31 25h1M22 26h2M21 27h2M21 28h2M33 28h1M21 29h2M32 29h2M19 30h1M21 30h2M32 30h2M19 31h3M32 31h2M19 32h3M33 32h1M19 33h3M33 33h1M39 33h1M19 34h4M34 34h1M38 34h1M22 35h4M35 35h1M26 36h3M54 36h1M29 37h3M35 37h1M45 37h2M53 37h1M32 38h5M41 38h4M34 39h7M45 39h1M50 39h1M34 40h3M44 40h1M48 40h1M34 41h1M44 41h1M46 41h2M43 42h1M46 42h2M43 43h1M45 43h2M45 44h2M34 46h1M34 47h2M33 48h3M33 49h2M33 50h1M42 64h2M42 65h2M43 66h1M34 69h2M34 70h1M34 71h1" />
<path stroke="#c5c5c5" d="M22 23h1M27 23h1M20 24h1M21 26h1M20 30h1M34 31h1M37 31h2M34 32h2M34 33h1M41 33h1M35 41h2M35 46h1M36 47h1" />
<path stroke="#efbd5a" d="M37 25h1M41 25h1M37 26h2M41 26h2M40 28h1M40 29h2M33 45h1M32 46h1M31 47h1M31 48h1M30 49h2M36 49h2M31 50h1M35 50h2M31 51h2M35 51h1M32 52h1M34 52h2M34 53h1M34 54h1M46 58h2M44 59h3M25 60h1M24 61h3M24 62h4M25 63h3M25 64h2" />
<path stroke="#f7de84" d="M38 25h1M42 25h1M41 28h1M32 45h1M31 46h1M30 47h1M39 47h4M30 48h1M37 48h3M44 55h3M43 56h5M43 57h5M43 58h3" />
<path stroke="#ffffff" d="M36 30h1M44 30h1M35 31h2M43 31h1" />
<path stroke="#a57329" d="M32 44h1M31 45h1M30 46h1M39 46h3M29 47h1M37 47h2M36 48h1M34 51h1M34 55h1M24 60h1M24 63h1M27 64h1M26 65h1" />
</svg>