<svg xmlns="http://www.w3.org/2000/svg" viewBox="0 -0.5 80 80" shape-rendering="crispEdges">
<metadata>Made with Pixels to Svg https://codepen.io/shshaw/pen/XbxvNj</metadata>
<path stroke="#525284" d="M42 21h4M40 22h1M46 22h1M39 23h1M38 24h1M37 25h1M45 25h1M57 25h4M44 26h1M55 26h2M36 27h1M54 27h1M36 28h1M61 29h1M50 30h1M49 31h1M48 32h1M48 33h1M57 33h1M47 34h1M33 40h1M34 41h1M34 42h1M32 43h2M35 43h1M31 44h1M34 44h1M45 52h1M46 53h1M46 54h1M44 56h1" />
<path stroke="#4a73d6" d="M41 22h1M38 25h1M44 25h1M43 26h1M59 26h2M41 27h2M60 27h2M39 28h3M60 28h2M36 29h3M59 29h2M36 30h2M58 30h3M37 31h1M50 31h2M56 31h4M49 32h10M51 33h6M52 34h3M52 35h1M34 38h1M34 39h1M48 41h1M46 42h4M46 43h1M49 43h1M33 44h1M45 44h3M32 45h3M46 45h3M33 46h1M46 49h2M46 50h3M43 54h3M43 55h2M42 56h2M42 57h2" />
<path stroke="#6ba5ef" d="M42 22h4M40 23h6M39 24h7M39 25h5M37 26h6M57 26h2M37 27h4M55 27h5M37 28h2M53 28h7M52 29h7M51 30h7M52 31h4M34 40h1M47 41h1M49 41h1M45 43h1M32 44h1M45 45h1M46 46h1M48 49h1M44 53h2" />
<path stroke="#101010" d="M46 23h1M46 24h1M61 26h1M43 27h1M53 27h1M62 27h1M42 28h1M52 28h1M62 28h1M35 29h1M42 29h1M51 29h1M35 30h1M42 30h1M61 30h1M36 31h1M42 31h1M60 31h1M37 32h1M41 32h1M59 32h1M58 33h1M55 34h2M53 35h2M51 36h2M37 37h1M49 37h2M36 38h2M36 39h1M44 39h1M43 40h2M51 40h1M43 41h1M51 41h1M51 42h1M50 43h1M50 44h1M31 45h1M49 45h1M32 46h1M47 46h2M33 47h1M45 47h2M34 48h1M47 48h2M49 49h1M30 50h1M49 50h1M30 51h1M45 51h4M44 52h1M31 53h1M43 53h1M33 54h3M36 55h1M42 55h1M45 55h1M37 56h1M37 57h1M41 57h1M44 57h1M38 58h1M41 58h3M39 59h2" />
<path stroke="#efce73" d="M39 29h1M38 30h1M42 33h1M50 33h1M45 34h1M51 34h1M46 35h1M51 35h1M50 36h1M49 38h1M49 39h1M48 40h3M35 41h1M50 41h1M35 42h2M50 42h1M36 43h3M44 43h1M36 44h9M48 44h1M35 45h1M37 45h8M34 46h2M37 46h9M34 47h1M37 47h6M35 48h1M38 48h8M39 49h7M41 50h1M44 50h2M31 51h2M35 51h1M43 51h1M32 52h1M35 52h1M41 52h2M32 53h1M35 53h8M36 54h6M37 55h5M38 56h3M40 58h1" />
<path stroke="#ffefc5" d="M40 29h1M39 30h3M38 31h4M38 32h3M39 33h3M49 33h1M37 34h8M48 34h3M36 35h10M48 35h3M35 36h1M38 36h12M35 37h1M38 37h11M35 38h1M38 38h5M45 38h4M35 39h1M38 39h5M45 39h4M35 40h3M39 40h4M45 40h3M36 41h7M45 41h2M39 42h7M43 43h1M47 43h2M49 44h1M36 46h1M36 47h1M36 48h2M31 49h2M35 49h4M31 50h3M35 50h6M33 51h1M36 51h7M33 52h1M36 52h5M33 53h1M38 57h3M39 58h1" />
<path stroke="#8c6b63" d="M41 29h1M37 33h2M36 34h1M46 34h1M35 35h1M47 35h1M34 36h1M34 37h1M33 38h1M50 38h1M33 39h1M37 39h1M44 41h1M40 43h2M35 44h1M44 47h1M31 48h2M30 49h1M33 49h1M34 51h1M44 51h1M34 52h1M43 52h1M34 53h1M32 54h1" />
<path stroke="#c5a56b" d="M42 32h1M43 33h3M36 36h2M43 38h2M50 39h1M38 40h1M37 42h2M39 43h1M42 43h1M36 45h1M35 47h1M43 47h1M33 48h1M46 48h1M34 49h1M34 50h1M42 50h2M31 52h1M42 54h1M41 56h1" />
<path stroke="#ffffff" d="M36 37h1M43 39h1" />
</svg>