<svg xmlns="http://www.w3.org/2000/svg" viewBox="0 -0.5 80 80" shape-rendering="crispEdges">
<metadata>Made with Pixels to Svg https://codepen.io/shshaw/pen/XbxvNj</metadata>
<path stroke="#4a4a52" d="M32 18h1M31 19h1M30 21h1M30 22h1M32 22h1M16 25h3M25 25h1M19 26h3M23 26h2M26 26h1M31 26h1M33 26h1M23 27h1M34 27h1M36 28h1M55 37h1M54 38h1M53 39h1M51 40h1M37 41h1M49 41h1M36 42h1M38 42h2M45 42h3M36 43h1M39 43h2M44 43h1M39 44h3M45 44h2M26 45h1M37 45h5M45 45h3M27 46h1M38 46h4M45 46h4M26 47h3M45 47h4M26 48h3M44 48h6M27 49h1M42 49h8M42 50h8M42 51h8M43 52h2M49 52h1M46 55h2M30 56h1M32 56h1M45 56h4M31 57h4M44 57h1M46 57h3M30 58h3M47 58h2M43 59h2M47 59h2M45 60h1M47 60h2M46 61h2" />
<path stroke="#101010" d="M33 18h1M34 19h1M34 20h1M33 21h1M24 22h2M33 22h1M26 23h1M32 23h1M23 24h2M27 24h1M22 25h1M27 25h1M33 25h1M35 25h2M15 26h1M27 26h1M34 26h1M39 26h1M15 27h1M26 27h1M32 27h1M35 27h1M39 27h1M16 28h10M33 28h1M38 28h1M21 29h1M23 29h1M34 29h4M21 30h1M24 30h1M34 30h1M22 31h1M25 31h1M34 31h1M23 32h1M25 37h1M45 37h1M45 38h1M32 39h1M45 39h1M44 40h1M38 41h2M40 42h1M42 42h3M20 43h1M41 43h1M45 43h2M21 44h2M26 44h1M36 44h1M42 44h1M44 44h1M47 44h1M23 45h3M27 45h1M36 45h1M42 45h1M44 45h1M48 45h1M25 46h1M28 46h1M37 46h1M44 46h1M49 46h1M25 47h1M29 47h1M38 47h2M44 47h1M49 47h1M25 48h1M29 48h1M43 48h1M50 48h1M26 49h1M29 49h1M40 49h2M50 49h1M27 50h2M41 50h1M50 50h1M50 51h1M45 52h4M50 52h1M43 53h1M50 53h1M51 54h1M30 55h3M42 55h1M45 55h1M48 55h1M51 55h1M29 56h1M33 56h1M41 56h2M44 56h1M49 56h1M51 56h1M29 57h1M35 57h1M42 57h1M49 57h2M29 58h1M33 58h2M43 58h1M49 58h1M29 59h4M49 59h1M44 60h1M49 60h1M45 61h1M48 61h1M46 62h2" />
<path stroke="#dedede" d="M32 19h1M16 26h1M24 35h1M23 36h1M46 36h1M47 37h1M49 37h1M23 38h1M36 38h1M46 38h1M48 38h1M50 38h1M35 39h1M46 39h6M45 40h5M44 41h3" />
<path stroke="#8c8c94" d="M33 19h1M31 20h3M31 21h2M31 22h1M25 23h1M26 24h1M26 25h1M17 26h2M25 26h1M32 26h1M16 27h4M24 27h2M33 27h1M43 27h3M34 28h2M42 28h1M45 28h1M45 29h1M45 30h1M45 31h1M50 32h6M47 33h3M56 33h1M46 34h1M56 34h1M56 35h1M55 36h1M52 39h1M50 40h1M47 41h2M37 42h1M37 43h2M37 44h2M26 46h1M31 56h1M30 57h1M45 57h1M44 58h3M45 59h2M46 60h1" />
<path stroke="#8c6b52" d="M22 22h2M21 23h1M30 23h1M35 23h3M20 24h1M30 24h1M33 24h2M38 24h1M20 25h1M30 25h1M39 25h1M22 26h1M37 26h1M36 27h1M31 28h1M31 29h1M33 29h1M26 31h1M32 31h1M32 32h1M32 33h1M33 34h1M34 38h1M34 39h1M33 40h1M41 51h1M42 52h1M30 53h1M31 54h1" />
<path stroke="#deb552" d="M22 23h3M21 24h2M25 24h1M32 24h1M35 24h3M21 25h1M31 25h1M34 25h1M37 25h2M38 26h1M20 27h1M37 27h2M32 28h1M37 28h1M22 29h1M23 30h1M33 30h1M24 31h1M33 31h1M25 32h2M33 32h1M33 33h1M25 36h1M24 37h1M26 37h1M33 37h1M24 38h2M33 38h1M31 39h1M33 39h1M31 40h2M49 45h3M52 46h1M36 47h2M53 47h1M33 48h6M53 48h1M35 49h5M53 49h1M29 50h1M37 50h1M53 50h1M52 51h1M40 52h2M51 52h1M31 53h3M37 53h4M32 54h8" />
<path stroke="#ffe652" d="M31 23h1M31 24h1M32 25h1M21 27h2M32 29h1M22 30h1M32 30h1M23 31h1M32 38h1M50 47h1M52 47h1M30 48h3M51 48h2M30 49h5M51 49h2M30 50h7M51 50h2M51 51h1M34 53h3" />
<path stroke="#ce3a52" d="M28 27h4M26 28h5M39 28h1M25 29h3M38 29h4M25 30h2M38 30h5M39 31h4M21 32h2M40 32h3M20 33h3M41 33h1M20 34h2M41 34h1M21 35h1M18 37h1M18 38h1M18 39h1M44 39h1M18 40h1M19 41h1M42 43h1M23 44h2M43 44h1M43 45h1M42 46h2M39 48h1M44 53h1M48 53h2M43 54h1M46 54h4M43 55h2M50 55h1M43 56h1" />
<path stroke="#8c314a" d="M40 28h2M24 29h1M42 29h1M43 30h1M21 31h1M43 31h1M20 32h1M44 32h1M19 33h1M44 33h1M19 34h1M45 34h1M18 35h1M40 35h1M45 35h1M18 36h1M40 36h2M45 36h1M38 37h2M37 38h1M36 39h1M34 40h1M33 41h1M43 41h1M19 42h1M33 42h1M41 42h1M32 43h1M43 43h1M25 44h1M32 44h1M32 45h1M32 46h4M40 47h1M43 47h1M42 48h1M50 54h1M49 55h1M50 56h1M43 57h1" />
<path stroke="#ffffff" d="M43 28h2M43 29h2M44 30h1M44 31h1M50 33h6M47 34h9M46 35h10M24 36h1M47 36h8M23 37h1M34 37h2M46 37h1M48 37h1M50 37h5M35 38h1M47 38h1M49 38h1M51 38h3M50 46h2M51 47h1" />
<path stroke="#4a526b" d="M28 29h3M27 30h1M36 30h2M38 31h1M24 32h1M34 32h1M39 32h1M23 33h1M25 33h2M34 33h1M40 33h1M22 34h1M40 34h1M22 35h1M21 36h1M21 37h1M21 38h1M21 39h1M28 39h1M22 40h1M26 40h2M22 41h1M23 42h1M27 42h2M24 43h2M29 43h1M27 44h1M28 45h4M28 49h1M34 56h1M40 56h1M37 57h3" />
<path stroke="#a5b5c5" d="M28 30h3M35 30h1M27 31h5M35 31h3M28 32h4M36 32h3M24 33h1M27 33h5M36 33h3M23 34h9M35 34h4M23 35h1M25 35h13M22 36h1M26 36h11M22 37h1M27 37h6M22 38h1M28 38h4M22 39h2M26 39h2M29 39h2M23 40h2M24 41h2M30 51h8M30 52h8" />
<path stroke="#7b8ca5" d="M31 30h1M27 32h1M35 32h1M35 33h1M39 33h1M32 34h1M34 34h1M39 34h1M38 35h2M37 36h3M36 37h2M26 38h2M24 39h2M25 40h1M28 40h3M23 41h1M26 41h7M24 42h3M29 42h4M26 43h3M30 43h2M28 44h4M29 46h3M36 46h1M30 47h6M38 50h3M29 51h1M38 51h3M29 52h1M38 52h2M41 53h2M40 54h3M33 55h9M35 56h5" />
<path stroke="#e65263" d="M43 32h1M42 33h2M42 34h3M19 35h2M41 35h4M19 36h2M42 36h3M20 37h1M40 37h5M20 38h1M38 38h1M42 38h3M37 39h1M42 39h2M21 40h1M35 40h1M39 40h5M20 41h2M34 41h1M40 41h3M20 42h3M34 42h1M21 43h3M33 43h3M33 44h3M33 45h3M42 47h1M40 48h2" />
<path stroke="#f78473" d="M19 37h1M19 38h1M39 38h3M19 39h2M38 39h4M19 40h2M36 40h3M35 41h2M35 42h1M41 47h1M45 53h3M44 54h2" />
</svg>