<svg xmlns="http://www.w3.org/2000/svg" viewBox="0 -0.5 80 80" shape-rendering="crispEdges">
<metadata>Made with Pixels to Svg https://codepen.io/shshaw/pen/XbxvNj</metadata>
<path stroke="#bdada5" d="M33 11h7M31 12h2M41 12h2M29 13h2M44 13h1M28 14h1M45 14h1M27 15h1M46 15h1M17 16h4M26 16h1M15 17h1M21 17h2M26 17h1M58 17h1M14 18h1M23 18h3M60 18h1M13 19h1M61 19h1M12 20h1M14 20h1M62 20h1M11 21h3M15 21h1M62 21h1M11 22h2M14 22h1M16 22h1M18 22h1M63 22h1M11 23h1M13 23h1M15 23h1M17 23h5M36 23h4M51 23h2M63 23h1M11 24h2M14 24h1M16 24h7M33 24h9M49 24h6M62 24h1M11 25h3M15 25h5M21 25h1M23 25h3M30 25h27M60 25h1M62 25h1M12 26h9M22 26h1M24 26h1M26 26h30M57 26h1M59 26h1M61 26h1M11 27h9M21 27h1M23 27h1M25 27h32M58 27h1M60 27h2M11 28h10M22 28h1M24 28h23M53 28h7M11 29h34M55 29h2M12 30h2M15 30h29M15 31h21M37 31h1M39 31h4M16 32h7M26 32h9M36 32h1M38 32h1M40 32h2M18 33h3M28 33h3M34 33h2M35 34h1M35 35h2M39 35h1M49 40h1M50 41h1M51 42h1M52 43h1M53 44h1M55 44h2M54 45h4M55 46h6M55 47h6M55 48h3M59 48h2M46 49h1M55 49h2M58 49h1M22 50h2M56 50h2M59 50h1M13 51h5M21 51h1M24 51h1M40 51h1M56 51h3M12 52h4M17 52h4M25 52h1M37 52h3M56 52h4M67 52h1M12 53h3M16 53h1M18 53h1M25 53h2M30 53h1M36 53h1M57 53h4M11 54h3M15 54h1M17 54h1M31 54h1M35 54h1M50 54h1M58 54h4M68 54h1M11 55h4M16 55h2M19 55h1M31 55h1M49 55h3M59 55h4M68 55h1M11 56h6M18 56h1M20 56h1M25 56h4M31 56h1M34 56h2M39 56h1M41 56h1M46 56h6M60 56h5M67 56h1M13 57h5M19 57h1M24 57h1M29 57h2M33 57h4M38 57h1M40 57h1M42 57h1M45 57h6M61 57h7M12 58h7M20 58h1M22 58h2M32 58h6M39 58h1M41 58h9M61 58h5M67 58h1M12 59h15M31 59h19M62 59h2M67 59h1M14 60h35M62 60h3M66 60h1M15 61h32M62 61h2M65 61h1M16 62h3M24 62h11M40 62h11M62 62h1M29 63h5M42 63h10M30 64h3M46 64h6M47 65h5M57 65h1M60 65h1M19 66h1M22 66h1M25 66h1M36 67h1M39 67h1M42 67h1" />
<path stroke="#d6cec5" d="M33 12h1M40 12h1M31 13h2M43 13h1M29 14h4M28 15h6M42 15h4M27 16h9M39 16h3M49 16h1M53 16h4M16 17h1M27 17h12M52 17h1M57 17h1M15 18h1M22 18h1M26 18h2M30 18h6M58 18h2M14 19h3M21 19h4M32 19h3M13 20h1M15 20h8M14 21h1M16 21h6M61 21h1M13 22h1M15 22h1M17 22h1M19 22h3M36 22h4M51 22h2M60 22h1M62 22h1M12 23h1M14 23h1M16 23h1M22 23h1M33 23h3M40 23h2M49 23h2M53 23h2M57 23h1M59 23h1M61 23h1M13 24h1M15 24h1M23 24h2M31 24h2M42 24h7M55 24h2M58 24h1M60 24h1M14 25h1M20 25h1M22 25h1M26 25h4M57 25h1M59 25h1M61 25h1M21 26h1M23 26h1M25 26h1M56 26h1M58 26h1M60 26h1M20 27h1M22 27h1M24 27h1M57 27h1M59 27h1M21 28h1M23 28h1M36 31h1M38 31h1M35 32h1M37 32h1M39 32h1M36 33h4M36 34h4M37 35h2M47 36h2M48 37h1M48 38h1M49 39h1M51 39h1M42 40h1M50 40h1M52 40h1M42 41h1M51 41h1M53 41h1M42 42h1M52 42h1M54 42h2M53 43h5M64 43h1M54 44h1M65 44h1M44 45h1M58 45h3M44 46h1M61 46h1M66 46h1M45 47h1M61 47h1M66 47h1M45 48h1M58 48h1M61 48h1M66 48h1M42 49h4M57 49h1M59 49h1M65 49h2M42 50h5M58 50h1M65 50h1M22 51h2M41 51h8M59 51h1M66 51h1M16 52h1M21 52h4M40 52h10M15 53h1M17 53h1M19 53h6M27 53h3M37 53h13M61 53h1M67 53h1M14 54h1M16 54h1M18 54h13M36 54h14M62 54h1M15 55h1M18 55h1M20 55h11M35 55h14M63 55h1M17 56h1M19 56h1M21 56h4M29 56h2M36 56h3M40 56h1M42 56h4M65 56h2M18 57h1M20 57h4M25 57h4M37 57h1M39 57h1M41 57h1M43 57h2M19 58h1M21 58h1M24 58h8M38 58h1M40 58h1M66 58h1M27 59h4M64 59h3M65 60h1" />
<path stroke="#efded6" d="M34 12h6M33 13h10M33 14h12M34 15h8M36 16h3M42 16h7M17 17h4M39 17h12M53 17h4M16 18h6M28 18h2M36 18h22M17 19h4M25 19h7M35 19h26M23 20h39M22 21h39M22 22h14M40 22h11M53 22h7M61 22h1M23 23h10M42 23h7M55 23h2M58 23h1M60 23h1M62 23h1M25 24h6M57 24h1M59 24h1M61 24h1M58 25h1M47 35h2M49 37h1M49 38h2M50 39h1M51 40h1M43 41h1M52 41h1M43 42h1M53 42h1M42 43h2M58 43h6M42 44h2M57 44h8M42 45h2M61 45h5M42 46h2M62 46h4M42 47h3M62 47h4M42 48h3M62 48h4M60 49h5M47 50h2M60 50h5M49 51h1M60 51h6M60 52h7M62 53h5M63 54h5M64 55h4M62 65h1M57 66h1M60 66h1M36 68h1M39 68h1M42 68h1" />
<path stroke="#ce5a3a" d="M47 28h6M45 29h1M53 29h1M44 30h2M53 30h2M44 31h1M54 32h1M50 33h1M55 33h1M51 34h1M55 34h2M54 35h3M42 36h1M50 36h7M42 37h4M53 37h5M43 38h3M51 38h2M55 38h3M46 39h2M52 39h3M56 39h2M44 40h5M53 40h6M45 41h5M54 41h5M47 42h1M56 42h3M50 45h1M53 45h1M52 46h2M52 47h3M53 48h2M53 49h2M53 50h3M53 51h3M52 54h5M52 55h4M52 56h3M51 57h2M58 58h1M57 59h2M56 60h2M59 62h2M57 63h4M58 64h2M38 65h3M37 66h2M40 66h2" />
<path stroke="#ef8442" d="M46 29h1M52 29h1M49 31h1M52 31h1M44 32h1M49 32h1M43 33h7M51 33h3M42 34h5M49 34h2M52 34h2M42 35h4M50 35h2M43 36h3M49 45h1M50 46h2M50 47h2M50 48h3M50 49h3M50 50h3M50 53h2M51 54h1" />
<path stroke="#ffad6b" d="M47 29h5M45 31h4M50 31h2M45 32h4" />
<path stroke="#5a313a" d="M54 29h1M55 30h1M56 31h1M56 32h1M56 33h1M57 35h1M46 37h1M50 37h3M46 38h1M53 38h1M58 38h1M42 39h1M44 39h2M43 40h1M44 41h1M45 42h2M34 43h1M47 43h1M48 44h1M32 45h1M57 55h1M56 56h1M59 56h1M55 57h1M60 57h1M54 58h1M60 58h1M53 59h1M51 60h2M49 61h1M61 61h1M61 62h1M21 63h4M28 63h1M36 63h3M62 63h1M27 64h1M39 64h3M62 64h1M19 65h1M22 65h1M25 65h1M27 65h1M56 65h1M59 65h1M24 66h1M26 66h1M36 66h1M39 66h1M34 67h2M38 67h1M41 67h1" />
<path stroke="#3a3a3a" d="M46 30h5M53 31h2M42 32h1M50 32h3M55 32h1M47 34h2M31 35h1M46 35h1M49 35h1M28 36h3M38 36h3M46 36h1M49 36h1M26 37h2M24 38h2M23 39h1M22 40h1M21 41h1M20 43h2M35 43h1M17 44h2M21 44h1M35 44h1M41 44h1M16 45h1M15 46h2M22 46h1M14 47h1M17 47h1M21 47h1M21 48h1M24 48h1M21 49h1M40 49h1M21 50h1M24 50h1M40 50h1M39 51h1M53 52h3M52 53h5M32 55h2M59 59h2M60 60h2M20 62h3M36 62h3M52 62h5M18 63h1M39 63h2M53 63h3M18 64h1M18 65h1M18 66h1M20 66h2M23 66h1M19 67h1M22 67h1M25 67h1M40 68h2M36 69h1M39 69h1M42 69h1" />
<path stroke="#636363" d="M51 30h2M43 32h1M34 36h4M28 37h1M40 37h1M26 38h2M24 39h1M30 39h1M23 40h1M29 40h1M22 41h1M26 41h1M28 41h1M37 41h1M39 41h1M36 42h1M38 42h1M40 42h1M25 43h1M37 43h1M39 43h1M20 44h1M24 44h1M36 44h1M38 44h1M40 44h1M20 45h2M23 45h2M36 45h2M39 45h3M19 46h3M23 46h1M32 46h1M36 46h6M47 46h1M19 47h2M22 47h1M25 47h1M30 47h2M37 47h4M46 47h1M15 48h1M19 48h2M22 48h1M25 48h2M29 48h2M34 48h1M37 48h4M15 49h2M19 49h2M22 49h1M24 49h3M29 49h7M38 49h2M16 50h2M20 50h1M25 50h1M28 50h8M38 50h2M18 51h1M25 51h1M28 51h8M50 51h3M28 52h9M50 52h3M31 53h5M32 54h3M32 56h2M58 60h2M56 61h4M57 62h1M61 65h1M61 66h1M63 66h1" />
<path stroke="#944a4a" d="M43 31h1M53 32h1M42 33h1M54 33h1M41 34h1M54 34h1M41 35h1M52 35h2M41 36h1M57 36h1M47 37h1M42 38h1M47 38h1M54 38h1M43 39h1M48 39h1M55 39h1M58 39h1M24 40h2M31 40h3M23 41h1M25 41h1M30 41h5M22 42h1M29 42h2M34 42h1M48 42h3M28 43h1M48 43h4M28 44h1M47 44h1M49 44h4M47 45h2M51 45h2M49 46h1M54 46h1M49 47h1M49 48h1M49 49h1M49 50h1M56 55h1M58 55h1M55 56h1M57 56h2M53 57h2M56 57h4M50 58h4M55 58h3M59 58h1M50 59h3M54 59h3M49 60h2M53 60h3M47 61h2M51 61h5M60 61h1M58 62h1M19 63h2M25 63h3M34 63h2M56 63h1M61 63h1M19 64h8M34 64h5M42 64h1M53 64h5M60 64h2M20 65h2M23 65h2M26 65h1M34 65h4M41 65h2M54 65h2M58 65h1M34 66h2M37 67h1M40 67h1" />
<path stroke="#101010" d="M55 31h1M57 34h1M32 35h3M40 35h1M34 37h1M41 37h1M58 37h1M33 38h1M41 38h1M25 39h2M31 39h3M26 40h1M30 40h1M34 40h1M59 40h1M29 41h1M35 41h1M41 41h1M59 41h1M21 42h1M25 42h1M28 42h1M35 42h1M41 42h1M59 42h1M24 43h1M41 43h1M19 44h1M23 44h1M27 44h1M34 44h1M19 45h1M22 45h1M26 45h1M28 45h1M33 45h1M35 45h1M18 46h1M25 46h1M29 46h3M35 46h1M18 47h1M24 47h1M29 47h1M36 47h1M41 47h1M14 48h1M18 48h1M28 48h1M36 48h1M41 48h1M14 49h1M18 49h1M23 49h1M28 49h1M37 49h1M15 50h1M19 50h1M27 50h1M37 50h1M20 51h1M27 51h1M37 51h2M27 52h1M57 54h1M34 55h1M31 57h2M50 61h1M51 62h1M52 63h1M33 64h1M43 64h1M52 64h1M33 65h1M43 65h1M53 65h1M33 66h1M42 66h1M54 66h3M58 66h2M62 66h1M33 67h1M57 67h1M60 67h2M34 68h2M37 68h2" />
<path stroke="#848484" d="M31 36h3M29 37h5M35 37h5M28 38h5M34 38h7M27 39h3M34 39h8M27 40h2M35 40h7M27 41h1M36 41h1M38 41h1M40 41h1M26 42h2M37 42h1M39 42h1M26 43h2M36 43h1M38 43h1M40 43h1M25 44h2M37 44h1M39 44h1M17 45h2M25 45h1M27 45h1M34 45h1M38 45h1M17 46h1M24 46h1M26 46h3M33 46h2M48 46h1M15 47h2M23 47h1M26 47h3M32 47h4M47 47h2M16 48h2M23 48h1M27 48h1M31 48h3M35 48h1M46 48h3M17 49h1M27 49h1M36 49h1M41 49h1M47 49h2M18 50h1M26 50h1M36 50h1M41 50h1M19 51h1M26 51h1M36 51h1M26 52h1M61 59h1M19 62h1M23 62h1M35 62h1M39 62h1M41 63h1M63 65h1M43 67h1M43 68h1" />
<path stroke="#ff3a00" d="M24 41h1M23 42h2M31 42h3M44 42h1M22 43h2M29 43h5M44 43h3M22 44h1M29 44h5M44 44h3M29 45h3M45 45h2M45 46h2" />
</svg>