<svg xmlns="http://www.w3.org/2000/svg" viewBox="0 -0.5 80 80" shape-rendering="crispEdges">
<metadata>Made with Pixels to Svg https://codepen.io/shshaw/pen/XbxvNj</metadata>
<path stroke="#c5b563" d="M32 17h9M30 18h2M41 18h2M45 19h1M48 20h1M50 21h1M52 25h1M50 26h2M31 27h1M33 27h1M35 27h1M37 27h1M48 27h4M53 27h1M29 28h2M32 28h1M34 28h1M36 28h4M47 28h2M50 28h2M53 28h4M27 29h14M44 29h6M52 29h5M27 30h4M39 30h3M43 30h15M29 31h1M41 31h2M44 31h14M42 32h1M44 32h15M45 33h2M53 33h6M31 34h1M45 34h1M54 34h5M55 35h5M56 36h4M41 37h1M56 37h4M57 38h3M57 39h3M57 40h3M57 41h3M56 42h4M29 43h13M56 43h4M32 44h8M44 44h1M55 44h2M58 44h2M35 45h3M42 45h3M54 45h1M56 45h2M59 45h1M31 46h4M39 46h5M46 46h1M53 46h1M55 46h1M58 46h1M30 47h14M45 47h8M54 47h1M57 47h2M31 48h12M44 48h12M57 48h2M35 49h8M44 49h6M52 49h4M57 49h1M43 50h6M50 50h2M53 50h3M57 50h1M42 51h6M49 51h4M54 51h2M21 52h3M41 52h2M45 52h3M49 52h4M54 52h3M22 53h3M27 53h2M38 53h4M43 53h2M46 53h2M49 53h4M54 53h2M24 54h7M37 54h5M43 54h3M47 54h1M49 54h4M54 54h1M26 55h17M44 55h2M47 55h2M50 55h2M53 55h1M28 56h16M46 56h4M52 56h1M30 57h2M33 57h1M35 57h1M37 57h1M39 57h13M32 58h1M34 58h1M36 58h1M38 58h1M40 58h11M35 59h1M37 59h1M39 59h10M38 60h1M41 60h1M43 60h1M45 60h2" />
<path stroke="#a59442" d="M29 18h1M43 18h2M27 19h2M46 19h2M25 20h2M49 20h1M24 21h1M51 21h1M23 22h1M52 22h1M22 23h1M53 23h1M49 24h2M54 24h1M27 25h1M35 25h1M48 25h1M51 25h1M55 25h1M26 26h11M48 26h1M52 26h1M56 26h1M22 27h9M32 27h1M34 27h1M36 27h1M56 27h1M23 28h6M31 28h1M33 28h1M35 28h1M57 28h1M25 29h2M57 29h1M28 31h1M29 32h1M30 33h1M31 35h1M35 35h3M32 36h3M29 37h3M27 38h2M25 39h2M24 40h1M35 40h2M25 42h19M28 43h1M42 43h2M31 44h1M40 44h2M38 45h1M44 46h2M29 47h1M56 47h1M28 48h1M43 48h1M41 51h1M56 51h1M39 52h2M25 53h2M48 53h1M31 54h6M42 54h1M48 54h1M43 55h1M49 55h1M44 56h2M50 56h2" />
<path stroke="#f7e673" d="M32 18h9M29 19h16M27 20h21M25 21h15M41 21h1M43 21h1M45 21h1M24 22h17M42 22h1M44 22h1M46 22h1M23 23h5M38 23h2M41 23h1M43 23h1M45 23h1M23 24h3M42 24h1M22 25h5M35 36h3M32 37h3M29 38h4M27 39h2M30 39h1M25 40h3M29 40h1M26 50h3M23 51h10M25 52h14M30 53h6M22 54h1M23 55h2M24 56h2M25 57h3M26 58h4M28 59h4M30 60h4M33 61h4" />
<path stroke="#dece5a" d="M40 21h1M42 21h1M44 21h1M46 21h4M41 22h1M43 22h1M45 22h1M47 22h5M28 23h10M40 23h1M42 23h1M44 23h1M46 23h7M22 24h1M26 24h16M43 24h6M51 24h3M21 25h1M36 25h12M49 25h2M53 25h2M20 26h4M38 26h10M49 26h1M53 26h3M20 27h2M40 27h8M54 27h2M41 28h6M42 29h2M31 30h8M30 31h11M30 32h12M31 33h13M32 34h12M32 35h3M39 35h6M38 36h1M42 36h3M35 37h6M44 37h1M33 38h10M29 39h1M31 39h13M28 40h1M30 40h5M57 44h1M55 45h1M54 46h1M56 46h1M53 47h1M55 47h1M29 48h2M28 49h7M29 50h13M33 51h8M24 52h1M21 53h1M29 53h1M36 53h2M23 54h1M25 55h1M26 56h2M28 57h2M32 57h1M34 57h1M36 57h1M38 57h1M30 58h2M33 58h1M35 58h1M37 58h1M39 58h1M32 59h3M36 59h1M38 59h1M34 60h4M39 60h2M42 60h1M44 60h1M37 61h6" />
<path stroke="#846b42" d="M21 24h1M20 25h1M28 25h7M24 26h2M37 26h1M19 27h1M38 27h2M52 27h1M20 28h3M40 28h1M49 28h1M52 28h1M23 29h2M41 29h1M50 29h2M26 30h1M42 30h1M58 30h1M43 31h1M59 32h1M47 33h1M52 33h1M46 34h1M38 35h1M60 35h1M31 36h1M39 36h3M60 36h1M42 37h1M43 38h1M56 38h1M44 39h1M56 39h1M23 40h1M37 40h2M56 40h1M26 41h1M56 41h1M24 42h1M44 42h1M26 43h2M29 44h2M42 44h1M30 45h5M39 45h1M46 45h1M58 45h1M60 45h1M30 46h1M35 46h1M47 46h1M52 46h1M57 46h1M44 47h1M56 48h1M59 48h1M26 49h2M43 49h1M50 49h2M56 49h1M23 50h3M42 50h1M49 50h1M52 50h1M56 50h1M20 51h3M48 51h1M53 51h1M20 52h1M43 52h2M48 52h1M53 52h1M57 52h1M42 53h1M45 53h1M53 53h1M21 54h1M46 54h1M53 54h1M22 55h1M46 55h1M52 55h1M54 55h1M23 56h1M53 56h1M24 57h1M52 57h1M27 59h1M29 60h1M47 60h1M32 61h1M43 61h2M35 62h4" />
<path stroke="#101010" d="M58 31h1M43 32h1M44 33h1M48 33h4M59 33h1M44 34h1M47 34h7M59 34h1M45 35h10M45 36h11M43 37h1M45 37h2M52 37h4M60 37h1M44 38h2M53 38h1M55 38h1M60 38h1M45 39h1M48 39h2M53 39h1M60 39h1M39 40h7M48 40h2M53 40h1M60 40h1M23 41h3M27 41h19M48 41h2M60 41h1M45 42h1M55 42h1M60 42h1M44 43h3M55 43h1M60 43h1M43 44h1M45 44h6M54 44h1M60 44h1M40 45h2M45 45h1M47 45h7M36 46h3M48 46h4M59 46h1M59 47h1M58 49h1M58 50h1M57 51h1M56 53h1M55 54h1M25 58h1M51 58h1M26 59h1M49 59h2M28 60h1M48 60h1M30 61h2M45 61h2M33 62h2M39 62h4" />
<path stroke="#841029" d="M47 37h1M51 37h1M46 38h1M52 38h1M46 39h1M52 39h1M46 40h1M52 40h1M46 41h1M52 41h1M46 42h1M52 42h1M47 43h1M51 43h1" />
<path stroke="#b51031" d="M48 37h2M47 38h4M47 39h1M50 39h1M47 40h1M50 40h1M47 41h1M50 41h1M48 42h2" />
<path stroke="#d6425a" d="M50 37h1M51 38h1M51 39h1M51 40h1M51 41h1M47 42h1M50 42h2M48 43h3" />
<path stroke="#3a423a" d="M54 38h1M54 39h2M54 40h2M53 41h3M53 42h2M52 43h3M51 44h3" />
</svg>