<svg xmlns="http://www.w3.org/2000/svg" viewBox="0 -0.5 80 80" shape-rendering="crispEdges">
<metadata>Made with Pixels to Svg https://codepen.io/shshaw/pen/XbxvNj</metadata>
<path stroke="#5a5a8c" d="M41 9h4M38 10h2M44 10h1M37 11h1M41 11h2M44 11h1M20 12h1M35 12h2M39 12h1M43 12h2M22 13h1M43 13h1M17 14h2M43 14h1M40 15h1M42 15h1M15 16h1M37 16h3M22 17h1M20 18h1M38 18h1M21 19h1M23 19h1M31 19h1M38 19h1M21 20h1M24 20h1M34 20h1M38 20h2M22 21h1M28 21h1M33 21h1M39 21h1M41 21h1M31 22h1M39 22h1M25 23h1M68 30h1M68 31h1M68 32h1M42 33h1M68 33h1M42 34h2M67 34h1M43 35h2M67 35h1M44 36h1M44 37h2M45 38h1M66 38h1M37 39h1M45 39h2M65 39h1M45 40h2M65 40h1M12 41h1M25 41h1M35 41h1M45 41h2M64 41h1M20 42h3M25 42h2M35 42h1M46 42h2M63 42h1M68 42h1M25 43h2M36 43h1M46 43h2M62 43h1M9 44h1M22 44h4M47 44h1M67 44h1M8 45h1M47 45h2M40 46h1M46 46h1M48 46h1M66 46h1M7 47h1M46 47h1M65 47h1M7 48h1M12 48h1M46 48h1M49 48h1M56 48h1M64 48h2M6 49h1M9 49h1M46 49h1M49 49h1M57 49h1M64 49h1M6 50h1M46 50h1M48 50h2M57 50h3M62 50h3M6 51h1M21 51h2M47 51h3M57 51h7M20 52h1M58 52h6M20 53h1M58 53h5M58 54h4M57 55h4M16 56h1M54 56h6M15 57h1M55 57h4M15 58h1M55 58h3M20 59h1M55 59h1M21 61h1M55 61h1M20 62h1M43 62h1M17 63h1M28 63h1M52 63h1M17 64h1M51 64h2M54 64h1M18 65h1M20 66h3M44 66h1M23 67h1M25 67h1M43 67h1M52 67h3M53 68h2M54 69h1" />
<path stroke="#3a4252" d="M29 10h3M26 11h2M33 12h1M23 14h1M28 15h1M26 16h3M23 17h1M31 17h1M24 18h1M37 20h1M37 21h1M36 22h1M38 22h1M31 23h1M36 23h1M38 23h1M25 24h1M35 24h1M38 24h1M26 25h1M34 25h2M26 26h2M32 26h2M39 26h1M26 27h1M28 27h4M36 27h1M39 27h1M26 28h1M35 28h2M26 29h1M33 29h2M36 29h1M40 29h1M26 30h7M37 30h1M40 30h1M26 31h1M37 31h1M41 31h1M63 31h1M25 32h1M37 32h1M41 32h1M63 32h2M71 32h1M25 33h1M35 33h2M38 33h1M43 33h1M63 33h3M72 33h1M25 34h2M33 34h2M38 34h1M64 34h3M71 34h1M25 35h1M27 35h6M38 35h2M42 35h1M64 35h3M71 35h1M24 36h2M36 36h2M65 36h2M68 36h1M70 36h1M25 37h2M34 37h1M65 37h2M68 37h1M70 37h1M27 38h2M32 38h1M36 38h1M65 38h1M69 38h1M24 39h1M29 39h3M69 39h1M30 40h1M30 41h1M33 41h1M27 42h1M30 42h1M30 43h1M30 44h1M33 44h1M27 45h1M30 45h1M25 47h1M31 47h1M36 47h1M23 48h1M29 48h1M32 48h2M28 49h1M34 49h2M26 50h2M36 50h4M12 51h2M26 51h1M39 51h1M10 52h3M23 52h1M26 52h3M36 52h3M6 53h1M9 53h3M23 53h1M27 53h1M29 53h7M45 53h1M6 54h1M8 54h3M24 54h1M27 54h1M40 54h1M45 54h1M6 55h1M8 55h3M24 55h2M28 55h1M39 55h1M45 55h1M52 55h1M6 56h1M8 56h2M25 56h2M29 56h1M38 56h1M45 56h1M8 57h2M25 57h3M30 57h1M37 57h1M41 57h1M45 57h1M8 58h1M26 58h1M28 58h1M31 58h1M35 58h2M40 58h1M7 59h1M16 59h1M18 59h1M27 59h1M29 59h1M33 59h2M39 59h1M19 60h1M28 60h1M30 60h1M38 60h1M16 61h3M29 61h1M37 61h1M50 61h1M33 62h1M36 62h1M46 62h1M49 62h2M46 63h5M45 64h1M15 67h1M20 67h1M15 68h1M19 68h1M51 71h1" />
<path stroke="#101010" d="M32 10h3M45 10h1M31 11h3M36 11h1M45 11h1M21 12h1M24 12h1M42 12h1M45 12h1M23 13h1M34 13h1M37 13h1M42 13h1M44 13h1M16 14h1M19 14h1M22 14h1M34 14h1M36 14h1M38 14h1M41 14h1M44 14h1M16 15h1M21 15h2M34 15h1M36 15h1M38 15h1M43 15h1M19 16h1M22 16h1M33 16h2M41 16h2M16 17h1M19 17h2M26 17h3M32 17h2M36 17h5M17 18h2M23 18h1M26 18h7M37 18h1M39 18h1M19 19h2M24 19h7M36 19h2M39 19h2M25 20h5M35 20h1M40 20h2M49 20h1M26 21h2M34 21h1M38 21h1M40 21h1M49 21h1M23 22h1M32 22h1M48 22h1M23 23h2M29 23h2M26 24h3M46 24h1M16 25h1M39 25h1M45 25h2M17 26h1M42 26h3M51 26h1M18 27h2M40 27h2M51 27h1M17 28h4M40 28h1M50 28h1M21 29h2M41 29h1M49 29h1M62 29h1M69 29h1M16 30h1M41 30h1M46 30h3M61 30h1M63 30h1M70 30h1M72 30h1M17 31h1M42 31h1M44 31h3M61 31h1M64 31h1M70 31h2M73 31h1M18 32h2M42 32h2M53 32h1M62 32h1M65 32h1M70 32h1M73 32h1M16 33h5M41 33h1M52 33h1M62 33h1M66 33h1M70 33h1M73 33h1M21 34h2M40 34h2M44 34h1M50 34h2M62 34h1M69 34h1M72 34h1M15 35h1M48 35h2M63 35h1M69 35h1M72 35h1M16 36h1M43 36h1M45 36h4M63 36h1M71 36h1M17 37h2M43 37h1M46 37h1M49 37h1M63 37h1M71 37h1M20 38h2M37 38h2M41 38h2M44 38h1M46 38h1M50 38h1M64 38h1M68 38h1M70 38h1M21 39h1M23 39h1M35 39h2M43 39h2M47 39h1M50 39h1M64 39h1M68 39h1M70 39h1M14 40h4M20 40h3M25 40h1M34 40h1M36 40h1M44 40h1M47 40h2M51 40h1M69 40h1M13 41h1M18 41h3M23 41h1M26 41h1M34 41h1M36 41h1M44 41h1M47 41h2M52 41h1M69 41h1M19 42h1M23 42h1M33 42h2M36 42h1M45 42h1M48 42h2M52 42h1M69 42h1M19 43h4M27 43h1M33 43h3M37 43h1M45 43h1M48 43h3M53 43h1M68 43h1M19 44h1M21 44h1M26 44h2M34 44h4M45 44h2M48 44h3M53 44h1M61 44h1M68 44h1M18 45h2M21 45h1M23 45h4M34 45h5M45 45h2M49 45h3M54 45h1M60 45h1M67 45h1M8 46h1M16 46h4M21 46h1M23 46h4M30 46h1M35 46h5M45 46h1M47 46h1M49 46h3M54 46h1M58 46h2M67 46h1M13 47h3M17 47h2M20 47h3M24 47h1M37 47h2M41 47h2M47 47h1M49 47h4M55 47h3M66 47h1M10 48h2M17 48h2M20 48h3M38 48h1M43 48h2M47 48h1M50 48h1M52 48h1M55 48h1M66 48h1M8 49h1M15 49h2M18 49h1M20 49h5M39 49h1M47 49h1M50 49h1M56 49h1M65 49h1M12 50h3M18 50h1M20 50h4M25 50h1M47 50h1M50 50h1M56 50h1M65 50h1M10 51h2M14 51h1M18 51h1M20 51h1M23 51h1M40 51h1M46 51h1M50 51h1M56 51h1M64 51h1M6 52h1M9 52h1M13 52h1M19 52h1M41 52h2M46 52h4M57 52h1M7 53h2M12 53h1M19 53h1M41 53h1M46 53h1M50 53h1M57 53h1M63 53h1M11 54h1M41 54h1M46 54h1M51 54h2M57 54h1M62 54h1M11 55h1M42 55h1M46 55h1M53 55h4M61 55h1M10 56h1M42 56h1M46 56h1M53 56h1M60 56h1M6 57h1M43 57h1M46 57h1M54 57h1M59 57h1M6 58h1M9 58h1M16 58h3M43 58h1M45 58h1M54 58h1M58 58h1M6 59h1M8 59h1M15 59h1M19 59h1M42 59h2M45 59h1M54 59h1M56 59h2M7 60h1M15 60h1M20 60h1M42 60h1M44 60h1M46 60h5M55 60h1M15 61h1M19 61h2M42 61h1M45 61h1M51 61h1M16 62h4M21 62h1M30 62h2M42 62h1M45 62h1M51 62h2M56 62h1M22 63h2M29 63h1M32 63h3M40 63h4M45 63h1M51 63h1M53 63h1M56 63h1M24 64h5M35 64h5M43 64h1M46 64h5M53 64h1M55 64h1M17 65h1M28 65h1M44 65h1M54 65h2M16 66h1M28 66h1M54 66h1M19 67h1M26 67h2M55 67h1M16 68h3M23 68h3M43 68h1M45 68h2M50 68h3M55 68h1M20 69h3M43 69h2M47 69h1M49 69h1M53 69h1M55 69h1M44 70h1M47 70h3M53 70h2M45 71h2M50 71h1M52 71h1" />
<path stroke="#8c8cbd" d="M40 10h1M38 11h1M40 11h1M43 11h1M38 12h1M20 13h2M20 14h2M42 14h1M15 15h1M41 15h1M16 16h1M21 16h1M40 16h1M17 17h1M19 18h1M33 18h2M32 19h3M31 20h3M25 21h1M30 21h3M27 23h1M69 32h1M69 33h1M68 34h1M68 35h1M67 37h1M67 38h1M38 39h4M67 39h1M35 40h1M37 40h1M40 40h2M66 40h2M15 41h3M21 41h2M24 41h1M41 41h2M65 41h2M11 42h1M16 42h2M24 42h1M41 42h2M64 42h3M10 43h1M16 43h3M23 43h2M40 43h3M63 43h3M15 44h3M38 44h4M63 44h2M9 45h1M13 45h4M39 45h2M9 46h7M8 47h5M16 47h1M39 47h2M8 48h2M13 48h4M39 48h4M10 49h5M40 49h2M9 50h3M40 50h2M9 51h1M41 51h2M8 52h1M21 52h2M47 53h3M19 54h1M47 54h4M18 55h1M48 55h4M17 56h1M23 56h2M49 56h3M16 57h4M22 57h3M49 57h2M19 58h5M48 58h2M21 59h2M46 59h3M45 60h1M18 64h4M19 65h5M46 66h4M44 67h8M48 68h2" />
<path stroke="#bdbdde" d="M41 10h3M39 11h1M37 12h1M15 13h5M36 13h1M15 14h1M39 15h1M21 17h1M21 18h2M22 19h1M22 20h2M23 21h2M24 22h3M26 23h1M69 30h1M69 31h1M23 40h2M38 40h2M14 41h1M37 41h4M12 42h4M37 42h4M11 43h5M38 43h2M10 44h5M10 45h3M7 49h1M42 49h2M7 50h2M42 50h3M7 51h2M43 51h2M7 52h1M43 52h2M21 53h2M44 53h1M20 54h4M19 55h5M47 55h1M18 56h5M47 56h2M20 57h2M47 57h2M46 58h2" />
<path stroke="#6b6b7b" d="M28 11h1M30 11h1M25 12h1M24 13h1M28 14h1M26 15h2M18 23h4M22 24h2M34 26h2M27 27h1M32 27h4M21 28h1M27 28h2M30 28h5M23 29h1M27 29h2M30 29h3M35 29h1M23 30h1M33 30h4M62 30h1M27 31h1M30 31h7M62 31h1M72 31h1M26 32h2M30 32h7M72 32h1M26 33h2M30 33h5M37 33h1M71 33h1M27 34h1M30 34h3M35 34h3M63 34h1M70 34h1M26 35h1M33 35h5M70 35h1M26 36h2M30 36h6M64 36h1M69 36h1M27 37h2M30 37h4M64 37h1M69 37h1M29 38h3M30 47h1M30 48h2M51 48h1M30 49h1M32 49h2M51 49h3M28 50h1M31 50h5M51 50h3M27 51h2M30 51h1M32 51h7M51 51h4M29 52h1M31 52h5M39 52h2M51 52h4M28 53h1M36 53h5M42 53h2M53 53h2M7 54h1M28 54h12M42 54h3M7 55h1M29 55h10M43 55h2M30 56h8M43 56h2M7 57h1M31 57h6M44 57h1M7 58h1M32 58h3M44 58h1M17 59h1M44 59h1M16 60h3M46 61h4M47 62h2M46 69h1M52 69h1" />
<path stroke="#b5b5bd" d="M29 11h1M26 12h5M25 13h4M26 14h2M18 17h1M42 21h1M40 22h1M39 23h1M39 24h1M45 24h1M40 25h1M40 26h2M29 28h1M41 28h1M29 29h1M42 30h1M28 31h2M28 32h2M28 33h2M44 33h1M28 34h2M45 35h1M28 36h2M29 37h1M29 49h1M31 49h1M29 50h2M29 51h1M31 51h1M30 52h1M7 56h1M18 66h1M17 67h2M22 67h1M21 68h2M51 69h1M45 70h2M52 70h1" />
<path stroke="#7373ad" d="M34 11h2M15 12h5M34 12h1M14 13h1M35 13h1M14 14h1M35 14h1M14 15h1M35 15h1M35 16h2M34 17h2M35 18h2M35 19h1M30 20h1M29 21h1M27 22h4M28 23h1M67 36h1M39 38h2M42 39h1M66 39h1M42 40h2M68 40h1M43 41h1M67 41h2M18 42h1M43 42h2M67 42h1M43 43h2M66 43h2M18 44h1M42 44h3M62 44h1M65 44h2M17 45h1M41 45h4M61 45h6M41 46h4M60 46h6M43 47h3M48 47h1M58 47h7M45 48h1M48 48h1M57 48h7M44 49h2M48 49h1M58 49h6M45 50h1M60 50h2M45 51h1M45 52h1M52 56h1M42 57h1M51 57h3M24 58h2M27 58h1M41 58h2M50 58h4M23 59h4M28 59h1M40 59h2M49 59h5M21 60h7M29 60h1M39 60h3M43 60h1M51 60h4M22 61h7M30 61h2M38 61h4M43 61h2M52 61h3M22 62h8M32 62h1M37 62h5M44 62h1M53 62h3M18 63h4M24 63h4M35 63h5M44 63h1M54 63h2M22 64h2M44 64h1M24 65h4M45 65h9M19 66h1M23 66h5M45 66h1M50 66h4M24 67h1M44 68h1M47 68h1M48 69h1" />
<path stroke="#ff634a" d="M31 12h1M30 13h3M24 14h1M29 14h4M23 15h3M29 15h3M23 16h3M29 16h2M24 17h2M46 20h3M45 21h4M44 22h4M46 23h1M18 24h2M17 25h4M19 26h1M47 26h3M46 27h5M47 28h3M17 29h2M17 30h3M49 31h4M48 32h5M49 33h3M16 34h3M16 35h4M18 36h1" />
<path stroke="#bd3a00" d="M32 12h1M29 13h1M33 13h1M25 14h1M33 14h1M32 15h2M31 16h2M29 17h2M25 18h1M46 19h3M44 20h2M47 23h1M16 24h2M47 25h3M18 26h1M50 26h1M16 29h1M48 29h1M49 30h4M18 31h1M53 31h1M15 34h1M17 36h1" />
<path stroke="#ffffff" d="M40 12h2M38 13h4M39 14h2M17 15h3M18 16h1M43 21h2M44 23h2M45 26h2M45 27h1M46 28h1M46 29h2M47 31h2M47 32h1M48 33h1M48 34h2M50 70h1" />
<path stroke="#dedede" d="M37 14h1M20 15h1M37 15h1M17 16h1M20 16h1M41 22h3M40 23h4M20 24h2M40 24h5M21 25h3M41 25h4M20 26h4M20 27h4M42 27h3M22 28h2M42 28h4M19 29h2M42 29h4M20 30h3M43 30h3M19 31h4M43 31h1M20 32h3M44 32h3M21 33h2M45 33h3M19 34h2M45 34h3M20 35h3M46 35h2M19 36h3M19 37h3M17 66h1M16 67h1M21 67h1M20 68h1M45 69h1M50 69h1M51 70h1" />
<path stroke="#deb563" d="M36 20h1M35 21h2M33 22h3M37 22h1M32 23h4M37 23h1M24 24h1M29 24h6M36 24h2M24 25h1M27 25h7M36 25h3M24 26h1M28 26h4M36 26h3M24 27h1M37 27h2M24 28h1M37 28h3M24 29h1M37 29h3M38 30h2M23 31h1M38 31h3M23 32h1M38 32h3M23 33h1M39 33h2M23 34h1M39 34h1M23 35h2M41 35h1M22 36h1M38 36h5M22 37h1M35 37h1M38 37h5M47 37h2M33 38h1M43 38h1M47 38h2M28 39h1M48 39h1M26 40h1M28 40h2M49 40h1M28 41h2M49 41h1M28 42h2M50 42h1M28 43h2M51 43h2M20 44h1M28 44h2M31 44h1M51 44h2M20 45h1M22 45h1M28 45h2M31 45h3M52 45h2M20 46h1M22 46h1M27 46h3M31 46h4M52 46h2M19 47h1M23 47h1M26 47h4M32 47h4M53 47h2M19 48h1M24 48h5M34 48h4M53 48h2M19 49h1M25 49h3M36 49h3M54 49h2M19 50h1M54 50h1M19 51h1M50 52h1M24 53h1M51 53h2M55 53h1M25 54h2M53 54h3M26 55h2M40 55h2M27 56h2M39 56h3M28 57h2M38 57h3M29 58h2M37 58h3M30 59h3M35 59h4M31 60h7M32 61h5M34 62h2" />
<path stroke="#ffde6b" d="M25 25h1M25 26h1M25 27h1M25 28h1M25 29h1M24 30h2M24 31h2M24 32h1M24 33h1M24 34h1M40 35h1M23 36h1M23 37h2M36 37h2M22 38h5M34 38h2M49 38h1M22 39h1M25 39h3M32 39h3M49 39h1M27 40h1M31 40h3M50 40h1M27 41h1M31 41h2M50 41h2M31 42h2M51 42h1M31 43h2M32 44h1M24 50h1M55 50h1M24 51h2M55 51h1M24 52h2M55 52h2M25 53h2M56 53h1M56 54h1" />
</svg>