<svg xmlns="http://www.w3.org/2000/svg" viewBox="0 -0.5 80 80" shape-rendering="crispEdges">
<metadata>Made with Pixels to Svg https://codepen.io/shshaw/pen/XbxvNj</metadata>
<path stroke="#5a94de" d="M25 17h5M23 18h2M22 19h1M35 19h1M21 20h1M36 20h1M20 21h1M33 21h1M36 21h2M30 22h1M36 22h2M30 23h1M35 23h4M34 24h5M21 25h1M25 27h1M21 28h2M26 28h4M43 34h2M58 34h1M42 35h2M59 35h1M41 36h3M59 36h1M40 37h4M59 37h1M41 38h4M50 38h1M58 38h2M41 39h5M49 39h1M51 39h1M58 39h1M63 39h1M67 39h1M11 40h2M42 40h7M50 40h1M52 40h2M57 40h2M61 40h2M66 40h4M12 41h2M42 41h13M56 41h2M59 41h11M9 42h1M13 42h2M42 42h13M56 42h8M68 42h3M10 43h1M14 43h2M42 43h14M57 43h5M8 44h1M15 44h2M45 44h11M57 44h3M16 45h2M46 45h11M58 45h1M18 46h1M46 46h11M46 47h1M50 47h7M46 48h1M50 48h7M40 49h1M46 49h1M50 49h7M40 50h2M45 50h2M49 50h7M38 51h17M21 52h1M37 52h9M47 52h7M22 53h2M34 53h12M48 53h5M22 54h26M25 55h10M38 55h13M26 56h8M38 56h3M42 56h12M27 57h7M37 57h4M42 57h10M55 57h1M31 58h10M44 58h4M46 59h3M57 59h1M59 59h2M49 60h5M56 60h2" />
<path stroke="#4a73b5" d="M30 17h3M34 18h1M21 21h1M22 22h1M23 25h1M26 25h1M47 35h1M56 35h2M48 36h1M55 36h1M57 36h1M49 37h2M55 37h1M57 37h1M10 38h2M51 38h1M54 38h1M56 38h1M9 39h1M12 39h1M56 39h1M8 40h2M54 40h1M7 41h1M10 41h2M7 42h1M11 42h2M55 42h1M8 43h2M12 43h2M16 43h1M56 43h1M10 44h5M56 44h1M8 45h8M57 45h1M9 46h9M57 46h1M11 47h8M13 48h6M15 49h4M17 50h3M55 51h1M46 52h1M54 52h1M46 53h1M53 53h2M48 54h1M51 54h3M26 57h1M54 57h1M29 58h2M41 58h1M43 58h1M51 58h1M56 58h1M33 59h8M44 59h2M53 59h1M47 60h2M54 60h1M59 60h2M50 61h5M56 61h2" />
<path stroke="#b5e6ff" d="M25 18h5M24 19h7M24 20h7M25 21h5" />
<path stroke="#7bc5ff" d="M30 18h4M23 19h1M31 19h4M22 20h2M31 20h5M22 21h3M30 21h1M34 21h2M23 22h7M34 22h2M23 23h7M34 23h1M22 24h9M33 24h1M22 25h1M24 25h2M27 25h3M23 26h5M23 27h1M26 27h1M45 34h1M44 35h3M58 35h1M44 36h4M56 36h1M58 36h1M44 37h5M56 37h1M58 37h1M45 38h5M55 38h1M57 38h1M10 39h2M46 39h3M50 39h1M52 39h1M54 39h2M57 39h1M64 39h3M10 40h1M49 40h1M51 40h1M55 40h2M63 40h3M8 41h1M55 41h1M8 42h1M7 43h1M7 44h1M52 57h2M56 57h2M48 58h3M53 58h3M58 58h2M49 59h4M55 59h2" />
<path stroke="#4a5273" d="M35 18h1M36 19h1M37 20h1M31 21h1M20 22h1M33 22h1M38 22h1M19 23h1M22 23h1M33 23h1M19 24h1M21 24h1M31 24h2M24 27h1M23 28h1M25 28h1M21 29h1M27 29h3M45 33h1M58 33h1M46 34h1M57 34h1M59 34h1M60 35h1M60 36h1M60 37h1M52 38h1M60 38h1M63 38h5M53 39h1M59 39h1M61 39h2M68 39h2M13 40h1M59 40h2M70 40h1M9 41h1M14 41h1M58 41h1M70 41h1M10 42h1M15 42h1M64 42h1M67 42h1M71 42h1M11 43h1M62 43h1M71 43h1M9 44h1M17 44h1M60 44h1M18 45h1M57 47h1M57 48h1M19 49h1M20 50h1M21 53h1M47 53h1M49 54h2M51 55h3M41 56h1M54 56h4M25 57h1M41 57h1M58 57h2M28 58h1M42 58h1M52 58h1M57 58h1M60 58h1M32 59h1M41 59h1M43 59h1M54 59h1M58 59h1M46 60h1M55 60h1M58 60h1M49 61h1M55 61h1M58 61h1" />
<path stroke="#101010" d="M32 21h1M38 21h1M32 22h1M20 23h2M31 23h2M39 23h1M20 24h1M39 24h1M20 32h1M20 33h1M21 34h1M22 35h1M22 36h1M65 42h2M6 43h1M63 43h1M69 43h2M6 44h1M61 44h1M7 45h1M59 45h1M8 46h1M58 46h1M9 47h2M11 48h2M13 49h2M57 49h1M15 50h2M56 50h1M18 51h3M56 51h1M20 52h1M55 52h1M55 53h1M21 54h1M54 54h1M22 55h1M23 56h1M24 57h1M26 58h2M29 59h3M42 59h1M61 59h1M33 60h8M44 60h2M61 60h1M47 61h2M59 61h2M50 62h9" />
<path stroke="#ffffff" d="M21 22h1M31 22h1M15 26h8M28 26h12M12 27h3M17 27h4M30 27h14M15 28h5M31 28h7M42 28h1M13 29h2M17 29h2M31 29h10M15 30h2M21 30h1M32 30h5M40 30h2M21 31h1M32 31h7M33 32h3M38 32h2M35 33h2" />
<path stroke="#7b84ad" d="M15 25h6M30 25h10M12 26h2M44 26h2M11 27h1M46 27h1M11 28h1M13 28h1M46 28h1M11 29h2M20 29h1M43 29h3M10 30h1M13 30h1M20 30h1M46 30h1M10 31h1M12 31h1M20 31h1M30 31h1M11 32h1M15 32h1M30 32h1M42 32h1M45 32h1M11 33h1M13 33h1M31 33h1M37 33h1M43 33h2M12 34h1M19 34h1M32 34h1M35 34h1M39 34h1M42 34h1M13 35h1M16 35h1M19 35h1M32 35h1M36 35h1M41 35h1M14 36h3M19 36h1M33 36h1M37 36h1M40 36h1M16 37h1M19 37h1M34 37h2M38 37h2M17 38h2" />
<path stroke="#bdbdd6" d="M14 26h1M40 26h4M15 27h2M21 27h2M27 27h3M14 28h1M20 28h1M38 28h4M15 29h2M42 29h1M14 30h1M37 30h2M45 30h1M16 31h1M39 31h2M46 31h1M14 32h1M17 32h1M36 32h1M41 32h1M14 33h1M17 33h1M19 33h1M34 33h1M38 33h1M16 34h1M38 34h1M40 35h1" />
<path stroke="#dedeff" d="M44 27h2M12 28h1M30 28h1M43 28h3M19 29h1M30 29h1M41 29h1M11 30h2M17 30h3M28 30h1M30 30h2M39 30h1M42 30h3M11 31h1M13 31h3M17 31h3M28 31h1M31 31h1M41 31h5M12 32h2M16 32h1M18 32h2M31 32h2M37 32h1M40 32h1M43 32h2M12 33h1M15 33h2M18 33h1M32 33h2M39 33h4M13 34h3M17 34h2M33 34h2M36 34h2M40 34h2M14 35h2M17 35h2M33 35h3M37 35h3M17 36h2M34 36h2M38 36h2M17 37h2" />
<path stroke="#efcead" d="M24 28h1M24 29h2M23 30h4M23 31h4M22 32h6M29 32h1M21 33h10M22 34h10M23 35h1M25 35h5M31 35h1M24 36h1M30 36h3M25 37h9M36 37h2M27 38h13M30 39h11M34 40h7M35 41h7M35 42h7M35 43h7M34 44h7M43 44h1M33 45h1M35 45h6M42 45h3M34 46h1M36 46h10M33 47h1M35 47h11M48 47h1M32 48h1M34 48h1M36 48h10M47 48h2M31 49h1M33 49h1M35 49h5M41 49h4M47 49h2M30 50h1M32 50h1M34 50h5M42 50h2M28 51h2M31 51h1M33 51h5M26 52h10M25 53h8M24 55h1M35 55h3M25 56h1M34 56h3" />
<path stroke="#bd9c7b" d="M22 29h2M26 29h1M22 30h1M27 30h1M29 30h1M22 31h1M27 31h1M29 31h1M21 32h1M28 32h1M25 36h4" />
<path stroke="#c5b58c" d="M24 35h1M30 35h1M29 36h1M36 36h1M40 38h1M41 40h1M41 44h2M44 44h1M41 45h1M45 45h1M47 47h1M49 47h1M49 48h1M20 49h1M45 49h1M49 49h1M39 50h1M44 50h1M47 50h2M21 51h1M22 52h1M36 52h1M24 53h1M33 53h1M23 55h1M24 56h1M37 56h1M34 57h3" />
<path stroke="#7b6352" d="M21 36h1M21 37h1M21 38h2M21 39h1M21 40h1M20 41h1M20 42h1M20 43h1M19 44h1M19 45h1M19 46h1M19 47h1M19 48h1" />
<path stroke="#ffe6bd" d="M23 36h1M22 37h3M23 38h4M22 39h8M22 40h12M21 41h14M21 42h14M21 43h14M20 44h14M20 45h13M34 45h1M20 46h14M35 46h1M20 47h13M34 47h1M20 48h12M33 48h1M35 48h1M21 49h10M32 49h1M34 49h1M21 50h9M31 50h1M33 50h1M22 51h6M30 51h1M32 51h1M23 52h3" />
</svg>