<svg xmlns="http://www.w3.org/2000/svg" viewBox="0 -0.5 80 80" shape-rendering="crispEdges">
<metadata>Made with Pixels to Svg https://codepen.io/shshaw/pen/XbxvNj</metadata>
<path stroke="#849494" d="M33 18h3M32 19h1M36 19h2M28 22h1M38 22h4M25 23h1M28 23h1M36 23h2M42 23h1M24 24h1M27 24h1M35 24h1M23 25h1M27 25h1M34 25h1M23 26h1M27 26h1M33 26h1M23 27h1M27 27h1M33 27h1M24 28h1M27 28h1M32 28h1M24 29h1M27 29h1M32 29h1M28 30h1M32 30h1M26 31h1M27 32h1M43 35h1M43 36h1M43 37h2M44 38h1" />
<path stroke="#4a4a63" d="M31 19h1M30 20h1M38 20h1M29 21h1M39 21h1M26 22h2M43 24h1M44 25h1M44 26h1M45 27h1M45 28h1M38 29h5M25 30h1M36 30h3M41 30h1M28 31h1M32 31h1M38 31h1M42 31h1M26 32h1M29 32h1M32 32h2M38 32h1M43 32h1M27 33h2M30 33h2M38 33h1M41 33h1M43 33h1M36 34h2M43 34h2M44 35h1M44 36h1M35 37h1M37 37h1M45 37h1M35 38h1M38 38h1M46 38h2M48 39h2M46 40h1M50 40h1M47 41h2M50 41h1M50 42h1M44 43h1M43 44h1M30 45h6M43 45h1M35 46h1M42 46h1M47 46h1M34 47h1M42 47h1M46 47h1M53 47h1M34 48h1M42 48h1M54 48h1M35 49h1M43 49h1M48 49h1M47 50h1M55 50h1M47 51h1M46 52h1M33 53h1M33 54h1M34 55h1M55 55h1M35 56h1M44 56h3M36 57h2M53 58h1M34 59h1M55 59h1M34 60h2M49 60h1" />
<path stroke="#efe6f7" d="M33 19h3M31 20h5M30 21h6M29 22h6M26 23h2M29 23h4M38 23h2M25 24h2M28 24h3M37 24h3M24 25h3M28 25h3M36 25h3M24 26h2M28 26h2M24 27h2M28 27h2" />
<path stroke="#ded6ef" d="M36 20h2M36 21h3M35 22h3M33 23h3M40 23h2M31 24h4M36 24h1M40 24h3M31 25h3M35 25h1M39 25h3M26 26h1M30 26h3M34 26h7M26 27h1M30 27h3M34 27h5M25 28h2M28 28h4M34 28h3M26 29h1M29 29h3M36 31h2M35 32h2M36 38h1M36 39h2M49 40h1M49 41h1" />
<path stroke="#ada5bd" d="M42 25h2M41 26h3M39 27h6M33 28h1M37 28h8M25 29h1M28 29h1M33 29h5M43 29h2M26 30h2M29 30h3M33 30h3M42 30h3M27 31h1M29 31h3M33 31h1M43 31h2M28 32h1M30 32h2M44 32h1M45 38h1M45 39h3M47 40h2" />
<path stroke="#191919" d="M45 29h1M45 30h1M34 31h1M45 31h1M34 32h1M45 32h1M34 33h2M44 33h1M42 35h1M42 36h1M43 38h1M24 39h1M33 39h1M35 39h1M44 39h1M25 40h1M31 40h2M45 40h1M26 41h5M28 42h1M38 42h1M49 42h1M28 43h1M37 43h1M50 43h1M29 44h1M36 44h2M51 44h1M38 45h1M38 46h1M52 46h1M37 47h1M37 48h1M46 48h1M36 49h1M44 49h2M54 49h1M55 51h1M55 52h1M37 53h1M46 53h1M55 53h1M38 54h1M46 54h1M55 54h1M39 55h2M46 55h1M41 56h3M47 56h1M54 56h1M42 57h1M48 57h1M53 57h1M42 58h1M49 58h1M54 58h1M41 59h1M49 59h1M36 60h1M39 60h2M56 60h1M36 61h3M50 61h1M53 61h1M56 61h1M51 62h2M54 62h2" />
<path stroke="#4a7bad" d="M39 30h2M35 31h1M40 31h1M39 32h1M25 33h2M33 33h1M39 33h1M24 34h1M38 34h2M23 35h1M40 35h1M23 36h1M41 36h1M23 37h1M23 38h1M39 39h1M39 40h1M39 41h1M44 42h1M38 43h1M38 44h1M36 45h2M47 45h1M51 45h1M36 46h2M51 47h2M49 48h1M35 50h2M34 51h1M36 51h1M33 52h1M36 52h1M42 52h1M43 53h2M54 53h1M45 54h1M47 54h1M53 54h2M47 55h2M52 55h3M36 56h1M48 56h6M38 57h1M49 57h4M35 58h1M50 58h3M36 59h1M40 59h1M50 59h1M38 60h1M53 60h1" />
<path stroke="#6ba5d6" d="M39 31h1M29 33h1M32 33h1M25 34h1M29 34h7M24 35h1M30 35h10M30 36h11M29 37h6M38 37h5M24 38h11M39 38h4M25 39h8M40 39h4M26 40h5M40 40h5M40 41h7M39 42h5M45 42h4M39 43h5M45 43h5M39 44h4M44 44h7M39 45h4M44 45h3M48 45h3M39 46h3M43 46h1M45 46h2M48 46h4M35 47h2M38 47h4M47 47h4M35 48h2M41 48h1M45 48h1M47 48h2M50 48h4M38 49h2M42 49h1M46 49h2M49 49h5M38 50h1M40 50h1M43 50h4M50 50h5M38 51h1M41 51h1M43 51h4M51 51h4M37 52h2M43 52h3M51 52h4M36 53h1M45 53h1M47 53h1M50 53h4M34 54h4M48 54h5M35 55h4M49 55h3M37 56h4M39 57h3M39 58h3M37 59h1M51 59h4M50 60h1" />
<path stroke="#efce6b" d="M41 31h1M40 32h1M42 32h1M40 33h1M42 33h1M38 40h1M37 41h1M29 42h1M36 42h2M29 43h2M35 43h2M30 44h5M39 50h1M39 51h2M39 52h3" />
<path stroke="#ffffff" d="M37 32h1M36 33h2M36 37h1M37 38h1" />
<path stroke="#bd9c4a" d="M41 32h1M40 34h3M41 35h1M38 41h1M35 44h1M38 53h5M39 54h6M41 55h5" />
<path stroke="#94cef7" d="M26 34h3M25 35h5M24 36h6M24 37h5M44 46h1M43 47h3M38 48h3M43 48h2M37 49h1M40 49h2M37 50h1M41 50h2M48 50h2M35 51h1M37 51h1M42 51h1M48 51h3M34 52h2M47 52h4M34 53h2M48 53h2M36 58h3M35 59h1M38 59h2M37 60h1M51 60h2M54 60h2M51 61h2M54 61h2" />
<path stroke="#9c4219" d="M34 39h1M35 40h2M31 41h1M35 41h2M30 42h1M34 42h2M31 43h4" />
<path stroke="#947342" d="M38 39h1M37 40h1" />
<path stroke="#d67342" d="M33 40h2M32 41h3M31 42h3" />
</svg>