<svg xmlns="http://www.w3.org/2000/svg" viewBox="0 -0.5 80 80" shape-rendering="crispEdges">
<metadata>Made with Pixels to Svg https://codepen.io/shshaw/pen/XbxvNj</metadata>
<path stroke="#6b3a10" d="M18 3h4M22 4h2M24 5h4M28 6h1M27 8h2M29 9h2M23 10h1M31 10h1M29 11h2M18 18h1M17 19h1M19 19h1M17 20h1M19 20h1M42 20h1M16 21h1M19 21h1M40 21h1M16 22h1M18 22h1M20 22h1M39 22h1M16 23h1M18 23h1M21 23h1M38 23h1M17 24h1M37 24h1M17 25h1M21 25h1M17 26h1M20 26h1M36 26h1M18 27h1M36 27h1M41 27h1M73 27h1M18 28h1M74 28h1M19 29h1M40 29h1M19 30h1M38 30h1M70 30h1M61 31h1M67 31h1M60 32h1M60 33h1M59 34h1M59 35h1M21 36h1M31 36h1M59 36h1M21 37h1M30 37h1M58 37h1M22 38h1M25 38h1M28 38h2M58 38h1M57 39h1M57 40h1M55 42h1M54 43h1M48 44h1M52 44h2M34 45h1M49 45h3M34 46h1M27 47h2M34 47h1M48 47h2M25 48h3M38 48h1M41 48h2M50 48h1M23 49h2M42 49h1M42 50h1M30 51h1M43 51h1M28 52h1M26 53h2" />
<path stroke="#19427b" d="M15 4h1M14 5h1M15 7h1M13 8h2M17 9h2M41 23h1M18 24h2M40 24h2M19 25h1M40 25h1M19 26h1M39 26h2M38 27h2M37 28h1M39 28h1M36 29h1M36 30h1M37 31h1M37 32h1M21 59h1M23 59h1M20 60h1M26 62h1M26 63h1M25 64h1M28 64h1M25 65h1M28 65h1M30 65h1M32 65h1M26 66h2M30 66h1M52 66h1M54 66h6M61 66h2M28 67h2M31 67h1M51 67h1M54 67h2M58 67h1M60 67h1M63 67h1M51 68h1M54 68h1M57 68h1M60 68h1M54 69h1M57 69h1M60 69h1" />
<path stroke="#101010" d="M16 4h1M13 6h1M13 7h1M18 8h1M14 9h1M19 9h2M15 10h2M21 10h2M23 11h2M25 12h1M30 12h1M26 13h1M31 13h1M43 21h1M43 22h1M43 23h1M43 24h1M42 25h1M42 26h1M41 28h1M74 29h1M40 30h1M71 30h3M39 31h1M68 31h2M22 32h1M28 32h1M38 32h1M65 32h2M29 33h1M64 33h1M37 34h1M63 34h1M62 35h1M34 36h2M62 36h1M32 37h2M61 37h1M32 38h1M40 38h1M61 38h1M24 39h4M30 39h2M40 39h1M61 39h1M28 40h2M31 40h1M40 40h1M60 40h1M31 41h1M39 41h1M56 41h1M60 41h1M39 42h1M59 42h1M32 43h1M38 43h1M58 43h1M33 44h1M38 44h1M57 44h1M35 45h2M38 45h1M46 45h2M55 45h2M38 46h1M47 46h2M53 46h2M37 47h1M51 47h2M33 48h1M37 48h1M33 49h1M37 49h2M40 49h1M33 50h1M37 50h1M39 50h1M31 51h3M39 51h3M19 52h1M29 52h1M33 52h1M38 52h1M42 52h2M19 53h1M32 53h1M37 53h1M44 53h2M28 54h1M37 54h1M47 54h1M20 55h1M28 55h2M31 55h1M36 55h1M47 55h1M57 55h1M21 56h1M30 56h1M36 56h1M48 56h1M22 57h1M35 57h1M49 57h2M58 57h1M19 58h3M23 58h1M28 58h1M35 58h1M59 58h1M18 59h2M22 59h1M24 59h1M35 59h1M18 60h2M21 60h1M24 60h3M35 60h1M63 60h1M20 61h4M26 61h1M35 61h1M25 62h1M34 62h1M24 63h1M34 63h1M64 63h1M24 64h1M33 64h1M51 64h2M64 64h1M24 65h1M33 65h1M49 65h2M52 65h2M63 65h1M25 66h1M33 66h1M48 66h1M51 66h1M63 66h1M26 67h2M30 67h1M32 67h1M48 67h1M28 68h2M49 68h2M63 68h1M51 69h3M61 69h2M55 70h2M58 70h3" />
<path stroke="#845a08" d="M17 4h1M21 4h1M16 5h1M18 5h3M16 6h1M17 7h5M25 7h2M23 8h2M25 9h2M36 35h3M39 36h1M40 37h1M35 38h2M44 38h1M34 39h1M37 39h1M44 39h1M33 40h1M37 40h1M44 40h1M33 41h1M40 41h1M43 41h1M31 42h1M34 42h1M41 42h1M35 43h1M39 43h2M34 44h1M36 44h2M22 49h1M49 49h3M20 50h2M48 50h1M52 50h1M20 51h1M47 51h1M53 51h1M21 52h1M47 52h1M54 52h1M22 53h1M25 53h1M33 53h1M54 53h1M20 54h1M22 54h1M25 54h1M32 54h1M34 54h1M49 54h1M54 54h1M21 55h1M24 55h1M32 55h1M34 55h1M49 55h1M53 55h1M22 56h2M31 56h1M50 56h1M53 56h1M29 57h2M34 57h1M51 57h2M27 59h1M34 59h1M27 60h1M34 60h1M27 61h1M34 61h1M27 62h1M28 63h1M33 63h1M29 64h4" />
<path stroke="#c59c21" d="M18 4h3M17 5h1M21 5h3M17 6h9M22 7h3M25 8h2M35 21h1M28 22h2M33 22h1M27 23h1M32 23h1M37 23h1M21 30h1M21 32h1M31 32h1M30 33h1M33 38h2M32 39h2M36 39h1M32 40h1M34 40h1M39 40h1M42 40h2M32 41h1M37 41h1M41 41h2M32 42h2M40 42h1M33 43h2M35 44h1M23 50h1M24 51h1M20 52h1M23 52h2M50 52h2M53 52h1M20 53h1M23 53h2M47 53h1M49 53h1M52 53h1M21 54h1M23 54h2M52 54h1M22 55h2M48 55h1M49 56h1M52 56h1M31 57h1M33 58h1M30 59h2M29 60h1M32 60h1M29 61h1M32 61h1M29 62h1M32 62h1M29 63h1M31 63h1" />
<path stroke="#e63a42" d="M45 4h1M43 5h2M42 6h1M41 7h1M43 7h5M45 8h6M38 9h1M41 9h12M37 10h1M39 10h16M36 11h9M48 11h7M36 12h7M49 12h7M27 13h2M35 13h7M49 13h2M55 13h2M24 14h8M34 14h8M54 14h5M60 14h1M62 14h1M23 15h20M51 15h11M63 15h1M23 16h9M36 16h6M50 16h14M21 17h6M34 17h2M37 17h3M53 17h10M21 18h4M32 18h5M39 18h2M56 18h5M20 19h4M33 19h2M57 19h2M20 20h4M20 21h3M21 22h1M24 25h1M31 27h2M31 28h3M20 29h1M22 29h1M30 29h4M22 30h1M25 30h1M28 30h2M32 30h2M22 31h6M32 31h2M23 32h4M32 32h2M23 33h2M31 33h2" />
<path stroke="#f78c4a" d="M73 4h2M69 5h5M43 6h1M67 6h5M42 7h1M65 7h5M39 8h6M64 8h6M39 9h2M64 9h6M38 10h1M63 10h6M45 11h3M63 11h6M43 12h2M48 12h1M62 12h6M42 13h1M51 13h1M54 13h1M60 13h5M42 14h1M53 14h1M59 14h1M61 14h1M63 14h3M44 15h1M50 15h1M62 15h1M64 15h1M32 16h1M35 16h1M42 16h2M48 16h2M27 17h4M33 17h1M36 17h1M40 17h1M47 17h1M25 18h1M37 18h2M45 18h2M24 19h1M32 19h1M35 19h1M39 19h1M43 19h2M24 20h1M33 20h2M23 21h1M23 22h1M24 24h1M21 26h1M21 27h1M30 27h1M20 28h2M28 28h3M27 29h3M26 30h2" />
<path stroke="#4a73c5" d="M15 5h1M14 6h2M14 7h1M16 7h1M15 8h3M15 9h2M38 28h1M37 29h2M37 30h1M28 33h1M20 59h1M22 60h2M25 63h1M27 63h1M26 64h2M26 65h2M29 65h1M31 65h1M28 66h2M31 66h2M49 66h2M53 66h1M49 67h2M52 67h2M56 67h2M59 67h1M61 67h2M52 68h2M55 68h2M58 68h2M61 68h2M55 69h2M58 69h2" />
<path stroke="#ffde52" d="M26 6h2M45 12h3M43 13h6M52 13h2M43 14h10M43 15h1M45 15h5M33 16h2M44 16h4M31 17h2M41 17h6M26 18h6M41 18h4M25 19h7M36 19h3M40 19h3M25 20h8M35 20h7M24 21h11M36 21h4M24 22h4M30 22h3M37 22h2M24 23h3M30 23h1M25 24h1M21 31h1M30 31h2M30 32h1M27 33h1M36 36h3M34 37h6M37 38h3M43 38h1M35 39h1M38 39h2M43 39h1M35 40h2M38 40h1M34 41h3M38 41h1M35 42h4M36 43h2M22 50h1M49 50h3M21 51h3M48 51h5M22 52h1M48 52h2M52 52h1M21 53h1M48 53h1M50 53h2M53 53h1M33 54h1M48 54h1M50 54h2M53 54h1M33 55h1M50 55h3M32 56h3M51 56h1M32 57h2M29 58h4M28 59h2M32 59h2M28 60h1M30 60h2M33 60h1M28 61h1M30 61h2M33 61h1M28 62h1M30 62h2M33 62h1M30 63h1M32 63h1" />
<path stroke="#a57342" d="M19 8h4M21 9h4M27 9h2M24 10h7M25 11h4M26 12h4M29 13h2M18 19h1M18 20h1M17 21h2M41 21h1M17 22h1M22 22h1M17 23h1M23 23h1M31 23h1M23 24h1M26 24h1M30 24h1M18 25h1M25 25h1M37 25h1M39 25h1M41 25h1M18 26h1M24 26h1M38 26h1M41 26h1M68 26h4M19 27h1M22 27h1M37 27h1M40 27h1M66 27h2M72 27h1M19 28h1M22 28h1M36 28h1M40 28h1M64 28h2M73 28h1M39 29h1M63 29h1M72 29h2M23 30h1M39 30h1M62 30h1M38 31h1M61 32h2M21 33h1M26 33h1M61 33h3M24 34h1M29 34h2M60 34h3M21 35h1M32 35h1M60 35h2M30 36h1M32 36h1M60 36h2M23 37h1M26 37h1M31 37h1M59 37h2M23 38h1M30 38h2M59 38h2M28 39h2M58 39h3M58 40h2M57 41h3M56 42h3M55 43h3M54 44h3M37 45h1M48 45h1M52 45h3M35 46h3M46 46h1M49 46h4M29 47h1M35 47h2M43 47h1M50 47h1M28 48h4M36 48h1M43 48h1M25 49h8M41 49h1M43 49h1M24 50h9M40 50h2M25 51h5M34 51h1M37 51h2M42 51h1M25 52h3M34 52h1M37 52h1M44 52h1M46 52h1M46 53h1M35 56h1M34 58h1" />
<path stroke="#e69463" d="M42 21h1M40 22h3M39 23h2M42 23h1M38 24h2M42 24h1M38 25h1M37 26h1M68 27h4M66 28h7M64 29h8M63 30h7M62 31h5M63 32h2M25 34h4M22 35h10M22 36h8M22 37h1M24 37h2M27 37h3M24 38h1M26 38h2M45 47h3M34 48h2M44 48h6M34 49h3M44 49h5M34 50h3M38 50h1M43 50h5M35 51h2M44 51h3M35 52h2M45 52h1M34 53h3M35 54h2M35 55h1" />
<path stroke="#bdc5de" d="M19 22h1M34 22h1M19 23h2M35 23h1M20 24h2M20 25h1M23 25h1M29 25h1M24 27h1M28 27h1M23 29h1M34 29h1M24 30h1M36 31h1M36 32h1M39 32h1M20 33h1M35 33h3M39 33h1M20 34h2M32 34h2M35 34h2M38 34h2M34 35h2M30 40h1M45 40h1M30 41h1M44 41h1M43 42h7M41 43h1M43 43h5M39 44h2M42 44h4M32 45h2M41 45h5M30 46h4M39 46h4M44 46h1M32 47h2M38 47h4M39 48h2M39 49h1M26 54h2M55 54h1M25 55h3M55 55h2M24 56h4M29 56h1M56 56h1M24 57h5M56 57h2M24 58h4M53 58h1M57 58h2M25 59h2M53 59h1M57 59h2M54 60h1M58 60h2M61 60h2M25 61h1M53 61h2M58 61h2M61 61h1M53 62h1M58 62h4M55 63h1M57 63h5M63 63h1M54 64h10M54 65h9M60 66h1" />
<path stroke="#ffffff" d="M35 22h1M22 23h1M28 23h1M33 23h2M22 24h1M27 24h2M31 24h4M36 24h1M22 25h1M26 25h3M30 25h7M22 26h2M25 26h5M33 26h3M23 27h1M25 27h3M34 27h1M42 27h2M23 28h4M34 28h1M24 29h2M35 29h1M35 30h1M35 31h1M29 32h1M34 32h2M34 33h1M40 33h1M40 34h2M39 35h3M40 36h3M41 37h2M41 38h1M41 39h1M54 55h1M54 56h2M53 57h3M52 58h1M54 58h3M52 59h1M54 59h3M53 60h1M55 60h3M55 61h3M55 62h3M56 63h1" />
<path stroke="#737384" d="M36 22h1M29 23h1M36 23h1M29 24h1M35 24h1M43 26h1M35 27h1M44 27h1M35 28h1M42 28h2M41 29h1M19 32h1M40 32h1M19 33h1M38 33h1M41 33h1M19 34h1M34 34h1M42 34h1M20 35h1M33 35h1M42 35h1M20 36h1M33 36h1M43 36h1M43 37h1M42 38h1M42 39h1M45 39h1M41 40h1M46 40h1M29 41h1M45 41h5M30 42h1M42 42h1M50 42h1M42 43h1M48 43h2M32 44h1M41 44h1M46 44h2M30 45h2M39 45h2M29 46h1M43 46h1M45 46h1M30 47h2M42 47h1M44 47h1M32 48h1M55 53h1M56 54h1M28 56h1M57 56h1M23 57h1M22 58h1M50 58h2M51 59h1M59 59h5M52 60h1M60 60h1M52 61h1M60 61h1M62 61h1M52 62h1M54 62h1M62 62h2M53 63h2M62 63h1M53 64h1M51 65h1" />
<path stroke="#842931" d="M30 26h3M20 27h1M29 27h1M33 27h1M27 28h1M21 29h1M26 29h1M20 30h1M30 30h2M34 30h1M20 31h1M28 31h2M34 31h1M20 32h1M27 32h1M22 33h1M25 33h1M33 33h1M22 34h2M31 34h1" />
</svg>