<svg xmlns="http://www.w3.org/2000/svg" viewBox="0 -0.5 80 80" shape-rendering="crispEdges">
<metadata>Made with Pixels to Svg https://codepen.io/shshaw/pen/XbxvNj</metadata>
<path stroke="#de523a" d="M41 20h2M45 20h1M40 21h1M46 21h1M49 25h1M36 26h1M44 26h1M48 26h2M37 27h1M43 27h1M47 27h3M37 28h1M48 28h2M48 29h2M48 30h2M35 31h1M46 31h4M45 32h2M48 32h2M55 32h2M36 33h1M38 33h1M43 33h1M47 33h2M53 33h2M40 34h1M46 34h3M52 34h1M55 34h1M37 35h1M45 35h2M48 35h1M50 35h2M40 36h1M44 36h2M47 36h8M43 37h1M46 37h7M40 38h1M44 38h3M49 38h1M51 38h1M43 39h3M50 39h1M39 40h1M44 40h1M46 43h1M41 44h2M26 45h1M37 45h2M43 45h1M26 46h1M32 46h4M37 46h1M53 46h1M24 47h1M26 47h1M34 47h2M37 47h1M53 47h1M24 48h1M26 48h1M35 48h3M52 48h2M24 49h2M27 49h1M32 49h1M35 49h4M53 49h1M24 50h2M28 50h2M35 50h6M51 50h3M26 51h1M30 51h2M33 51h1M35 51h2M38 51h5M52 51h1M25 52h3M34 52h3M41 52h1M51 52h2M27 53h3M33 53h1M37 53h4M50 53h2M29 54h12M49 54h2M32 55h6M47 55h3M45 56h5M45 57h4M46 58h2M50 58h2M49 59h1" />
<path stroke="#8c2900" d="M43 20h2M47 21h1M48 22h1M49 23h1M49 24h1M50 25h1M50 26h1M47 28h1M47 29h1M47 30h1M44 31h1M35 32h1M47 32h1M35 33h1M44 33h3M56 33h1M36 34h1M41 34h3M51 34h1M38 35h3M44 35h1M47 35h1M41 36h3M40 37h1M44 37h1M41 38h1M50 38h1M45 40h1M39 41h1M46 41h2M40 42h1M44 42h1M46 42h1M25 43h2M40 43h1M44 43h2M25 44h2M32 44h1M34 44h1M39 44h1M31 45h1M33 45h1M35 45h1M36 46h1M54 46h1M36 47h1M31 49h1M52 49h1M32 50h1M25 51h1M37 51h1M51 51h1M40 52h1M26 53h1M41 53h2M27 54h1M29 55h1M44 55h1M32 56h1M41 56h1M50 56h1M33 57h1M51 57h1M52 58h1M51 59h1" />
<path stroke="#ff9442" d="M39 21h1M41 21h5M38 22h1M41 22h7M37 23h1M41 23h8M37 24h1M41 24h8M36 25h3M40 25h9M37 26h7M45 26h3M38 27h5M44 27h1M38 28h6M37 29h7M37 30h7M38 31h6M37 32h8M37 33h1M39 33h4M55 33h1M37 34h3M53 34h2M52 35h5M41 37h2M39 39h1M41 39h2M43 40h1M40 41h1M43 41h3M41 42h3M45 42h1M47 42h1M43 43h1M24 45h1M39 45h4M24 46h1M38 46h6M38 47h6M25 48h1M38 48h5M26 49h1M39 49h4M26 50h2M41 50h2M27 51h3M28 52h5M30 53h3M49 57h2M48 58h2M48 59h1" />
<path stroke="#ffc563" d="M39 22h2M38 23h3M38 24h3M39 25h1M36 31h2M36 32h1M40 39h1M40 40h3M41 41h2M25 45h1M25 46h1M25 47h1" />
<path stroke="#194a31" d="M36 27h1M45 27h2M44 28h3M36 30h1M45 30h1" />
<path stroke="#101010" d="M50 27h1M50 28h1M45 29h1M50 29h1M50 30h1M50 31h1M50 32h1M49 33h1M44 34h1M49 34h2M56 34h1M49 35h1M57 35h1M39 36h1M46 36h1M55 36h2M45 37h1M53 37h2M42 38h2M52 38h1M51 39h1M51 40h1M52 41h1M48 42h1M52 42h1M41 43h2M47 43h1M53 43h1M40 44h1M43 44h4M53 44h1M53 45h1M30 46h1M31 47h1M54 47h1M31 48h1M54 48h1M54 49h1M54 50h1M32 51h1M53 51h1M33 52h1M37 52h3M50 52h1M53 52h1M34 53h3M49 53h1M52 53h1M47 54h2M51 54h1M28 55h1M45 55h2M50 55h1M30 56h2M42 56h3M34 57h7M44 57h1M45 58h1M46 59h2M53 59h1M48 60h5" />
<path stroke="#42a57b" d="M36 28h1M46 29h1M45 31h1" />
<path stroke="#ffffff" d="M36 29h1M44 29h1M44 30h1M45 34h1M32 45h1M34 45h1M50 59h1M52 59h1" />
<path stroke="#94cede" d="M46 30h1" />
<path stroke="#ffd608" d="M32 31h1M31 32h1M29 33h2M27 34h3M26 35h2M29 35h1M26 36h1M28 36h1M25 37h2M24 38h2M32 38h1M24 39h3M28 39h1M23 40h6M23 41h3M27 41h1M24 42h2M27 42h1M24 43h1" />
<path stroke="#f7a500" d="M28 33h1M26 34h1M28 35h1M25 36h1M28 38h1M26 41h1M28 41h1M23 42h1" />
<path stroke="#e63a00" d="M31 33h1M30 34h1M25 35h1M30 35h1M41 35h2M27 36h1M29 36h1M24 37h1M27 37h3M23 38h1M26 38h2M29 38h1M23 39h1M27 39h1M29 39h3M22 40h1M29 40h2M22 41h1M29 41h1M22 42h1M26 42h1M28 42h2M23 43h1M27 43h2M24 44h1M27 44h1" />
<path stroke="#b5b5b5" d="M43 35h1M31 46h1" />
<path stroke="#ffd67b" d="M47 38h2M46 39h4M46 40h5M48 41h4M49 42h3M48 43h5M47 44h6M45 45h8M44 46h8M44 47h8M43 48h9M43 49h8M43 50h7M43 51h5" />
<path stroke="#e6ad5a" d="M44 45h1M52 46h1M32 47h2M52 47h1M32 48h3M33 49h2M51 49h1M33 50h2M50 50h1M34 51h1M48 51h3M42 52h8M43 53h6M28 54h1M41 54h6M30 55h2M38 55h6M33 56h8" />
</svg>