<svg xmlns="http://www.w3.org/2000/svg" viewBox="0 -0.5 80 80" shape-rendering="crispEdges">
<metadata>Made with Pixels to Svg https://codepen.io/shshaw/pen/XbxvNj</metadata>
<path stroke="#bdbdd6" d="M19 18h2M18 19h1M21 19h2M18 20h1M23 20h1M18 21h1M24 21h1M18 22h1M25 22h1M18 23h1M25 23h1M19 24h1M26 24h1M19 25h1M26 25h1M20 26h1M20 27h1M21 28h1M22 29h2M24 30h1M51 42h8M51 43h1M59 43h4M63 44h2M52 45h1M65 45h1M53 46h1M66 46h1M54 47h1M66 47h1M55 48h2M64 48h1M57 49h2M61 49h3M59 50h2" />
<path stroke="#efefff" d="M19 19h2M19 20h4M19 21h5M19 22h6M19 23h6M20 24h6M20 25h6M21 26h5M21 27h5M22 28h3M24 29h1M52 43h7M52 44h11M53 45h12M54 46h12M55 47h11M57 48h7M59 49h2" />
<path stroke="#101010" d="M35 19h1M34 20h3M33 22h1M32 23h1M32 24h1M32 25h1M31 26h1M31 27h1M51 27h1M48 28h4M28 29h1M47 29h2M27 30h1M46 30h1M45 31h1M32 32h1M44 32h1M49 32h1M24 33h1M31 33h1M44 33h1M25 35h1M52 35h1M26 36h1M39 36h1M52 36h1M26 37h1M38 37h1M53 37h1M26 38h1M53 38h1M25 39h1M43 39h1M53 39h1M25 40h1M42 40h1M53 40h1M24 41h1M24 42h1M27 42h1M24 43h1M26 43h1M23 44h1M32 44h1M31 45h1M49 46h1M24 47h1M42 47h7M41 48h1M25 49h1M41 49h1M26 50h2M41 50h1M28 51h2M40 51h1M30 52h3M39 52h1M33 53h6" />
<path stroke="#3a3a42" d="M36 19h1M33 21h1M36 25h1M38 26h1M39 27h1M50 27h1M40 28h1M40 29h1M24 32h1M35 33h1M25 34h1M35 34h1M46 34h1M34 35h1M34 36h1M34 39h1M35 40h1M36 42h1M36 43h1M36 44h1M23 45h1M35 45h1M38 45h2M34 47h1M33 48h1M36 48h1M42 48h2M29 49h4M35 49h1M42 49h2M42 50h1M41 51h2M40 52h2" />
<path stroke="#bd4a00" d="M30 24h2M29 25h1M36 26h1M26 27h1M35 27h1M37 27h1M25 28h1M37 28h1M25 29h1M38 29h1M38 30h1M24 31h1M38 31h3M47 32h1M26 35h1M27 36h2M29 37h5M49 37h1M49 38h1M49 39h1M51 40h1M50 41h1M52 41h1M39 43h2M49 43h1M45 44h1M49 44h1M24 46h1M35 46h1M37 46h1M37 47h1M25 48h1" />
<path stroke="#6b5a00" d="M33 24h2M27 25h2M35 25h1M26 26h1M32 26h2M27 27h1M34 27h1M26 28h1M31 28h1M26 29h1M36 29h1M25 30h1M28 30h1M36 30h1M41 30h4M25 31h1M36 31h1M46 31h2M27 32h1M36 32h1M40 32h4M48 32h1M29 33h1M32 33h1M38 33h1M45 33h1M50 33h1M37 34h1M43 34h1M51 34h1M46 35h1M47 36h1M39 37h1M47 37h1M29 38h4M47 38h1M27 39h1M33 39h1M38 39h1M39 40h2M43 40h1M35 41h1M37 41h1M26 42h1M38 42h1M45 42h1M27 43h1M41 43h4M46 44h1M51 44h1M32 45h1M40 45h5M50 45h1M26 47h1M27 48h1M44 48h1M45 49h1M33 50h2M43 50h1M45 50h1M45 51h1M43 52h2M39 53h4" />
<path stroke="#ef7300" d="M30 25h2M33 25h2M27 26h2M34 26h2M36 27h1M36 28h1M37 29h1M37 30h1M37 31h1M41 31h4M37 32h3M45 32h2M25 33h1M36 33h2M46 33h2M36 34h1M47 34h1M35 35h2M47 35h2M35 36h1M48 36h1M27 37h2M34 37h2M48 37h1M27 38h2M33 38h3M48 38h1M26 39h1M35 39h1M47 39h2M36 40h1M47 40h1M25 41h1M36 41h1M46 41h2M51 41h1M37 42h1M46 42h1M50 42h1M37 43h2M45 43h2M50 43h1M24 44h1M37 44h8M50 44h1M24 45h1M36 45h2M25 46h1M36 46h1M25 47h1M35 47h2M26 48h1M34 48h2M26 49h3M33 49h2M28 50h5" />
<path stroke="#ad8400" d="M29 26h2M28 27h1M35 28h1M40 30h1M25 32h1M31 32h1M26 33h1M39 33h1M48 33h1M26 34h1M48 34h1M27 35h1M37 35h1M49 35h1M36 36h1M38 36h1M49 36h1M36 37h1M36 38h1M36 39h1M42 39h1M46 39h1M26 40h1M37 40h1M46 40h1M48 40h1M26 41h1M45 41h1M48 41h1M25 42h1M47 42h1M25 43h1M47 43h1M25 44h1M31 44h1M25 45h1M45 45h1M40 46h7M44 49h1M40 50h1M44 50h1M30 51h6M43 51h2M33 52h5M42 52h1" />
<path stroke="#c59c00" d="M37 26h1M27 29h1M27 31h1M28 33h1M29 36h1M33 36h1M38 38h1M28 39h1M52 40h1M27 44h1M46 45h1M26 46h1M38 46h2M47 46h1M28 47h1M38 47h4M30 48h1M37 48h4M36 49h5M35 50h5M36 51h4M38 52h1" />
<path stroke="#ffce08" d="M29 27h2M32 27h2M38 27h1M27 28h4M32 28h3M38 28h2M29 29h7M39 29h1M26 30h1M29 30h7M39 30h1M26 31h1M28 31h8M26 32h1M28 32h3M33 32h3M27 33h1M30 33h1M33 33h2M40 33h4M49 33h1M27 34h8M38 34h5M44 34h2M49 34h2M28 35h6M38 35h8M50 35h2M30 36h3M37 36h1M40 36h7M50 36h2M37 37h1M40 37h7M50 37h3M37 38h1M39 38h8M50 38h3M29 39h4M37 39h1M39 39h3M44 39h2M50 39h3M27 40h8M38 40h1M41 40h1M44 40h2M49 40h2M27 41h8M38 41h7M49 41h1M28 42h8M39 42h6M48 42h2M28 43h8M48 43h1M26 44h1M28 44h3M33 44h3M47 44h2M26 45h1M29 45h2M33 45h2M47 45h3M27 46h1M31 46h4M48 46h1M27 47h1M31 47h3M28 48h1M31 48h2" />
<path stroke="#ef738c" d="M27 45h2M29 47h2M29 48h1" />
<path stroke="#de3a3a" d="M28 46h3" />
</svg>