<svg xmlns="http://www.w3.org/2000/svg" viewBox="0 -0.5 80 80" shape-rendering="crispEdges">
<metadata>Made with Pixels to Svg https://codepen.io/shshaw/pen/XbxvNj</metadata>
<path stroke="#7b4221" d="M45 9h2M43 10h2M41 11h2M40 12h1M38 13h2M35 14h3M45 14h1M33 15h2M44 15h1M32 16h1M41 16h1M43 16h1M42 17h1M46 18h1M47 19h2M44 20h2M49 20h1M35 21h1M50 21h1M35 22h1M40 22h1M42 23h1M46 23h1M51 23h1M18 25h3M44 25h1M17 26h1M20 26h3M45 26h1M19 27h1M21 27h1M43 27h1M46 27h1M45 30h1M60 30h1M63 30h4M32 31h1M38 31h1M44 31h1M57 31h2M62 31h1M66 31h1M29 32h1M33 32h1M37 32h1M44 32h1M34 33h3M43 33h1M34 34h1M42 34h1M34 35h1M41 35h1M33 36h1M40 36h1M33 37h1M40 37h1M33 38h1M39 38h1M32 39h1M39 39h1M32 40h1M38 40h1M31 41h1M38 41h1M50 41h1M52 41h1M31 42h1M38 42h1M51 42h1M30 43h1M37 43h1M51 43h1M29 44h1M37 44h1M50 44h1M28 45h1M37 45h1M50 45h1M27 46h1M37 46h1M50 46h1M69 46h5M26 47h1M37 47h1M49 47h1M59 47h1M67 47h2M37 48h1M49 48h1M57 48h2M66 48h1M25 49h1M37 49h1M49 49h1M56 49h1M24 50h1M37 50h1M49 50h1M55 50h1M62 50h1M24 51h1M38 51h1M49 51h1M54 51h1M61 51h1M23 52h1M38 52h1M49 52h1M53 52h1M60 52h1M22 53h1M39 53h1M53 53h1M22 54h1M39 54h1M52 54h1M21 55h1M40 55h1M21 56h1M41 56h1M20 57h1M42 57h1M20 58h1M43 58h2M45 59h2M47 60h1M48 61h1M53 61h1M50 62h3M49 66h2M26 67h2M51 67h1M45 69h1M48 71h1M50 75h1" />
<path stroke="#ef7b19" d="M45 10h2M43 11h3M41 12h4M40 13h4M38 14h4M35 15h6M35 16h6M35 17h7M34 18h3M39 18h4M33 19h3M39 19h5M30 20h5M39 20h5M29 21h6M39 21h6M29 22h6M39 22h1M44 22h1M30 23h6M43 23h1M32 24h3M42 24h1M43 31h1M42 32h2M28 33h1M53 33h2M51 34h3M27 35h2M51 35h2M51 36h1M51 37h4M52 38h2M30 50h1M29 51h2M28 52h3M23 53h1M27 53h4M23 54h1M27 54h4M59 54h2M62 54h2M22 55h2M26 55h5M38 55h2M58 55h6M22 56h2M26 56h5M38 56h3M58 56h6M65 56h1M21 57h4M27 57h3M37 57h5M57 57h9M21 58h4M36 58h7M57 58h8M21 59h5M35 59h9M56 59h9M21 60h7M33 60h10M56 60h8M22 61h21M57 61h7M23 62h19M59 62h1M61 62h1M24 63h2M31 63h10M58 63h1M60 63h1M34 64h5M59 64h1M24 70h2M23 71h2M26 71h2M46 71h2M23 72h1M25 72h1M45 72h5M46 73h2M49 73h1M46 74h1M48 74h1M50 74h1M49 75h1" />
<path stroke="#191919" d="M47 10h1M47 11h1M46 12h1M47 13h1M47 14h1M46 15h1M46 16h1M45 17h1M43 18h1M45 18h1M44 19h1M36 20h2M27 21h2M37 21h1M45 21h1M26 22h1M28 22h1M36 22h2M41 22h3M45 22h1M51 22h1M26 23h1M36 23h1M41 23h1M46 24h1M52 24h1M28 25h3M39 25h1M42 25h2M46 25h1M52 25h1M16 26h1M18 26h1M29 26h10M42 26h3M46 26h1M53 26h1M16 27h1M23 27h1M31 27h6M42 27h1M53 27h1M17 28h1M24 28h1M32 28h5M45 28h1M53 28h1M17 29h1M25 29h2M31 29h1M33 29h2M36 29h1M45 29h1M53 29h1M61 29h2M18 30h1M27 30h1M30 30h1M33 30h1M36 30h1M52 30h1M18 31h1M28 31h3M34 31h2M52 31h1M17 32h1M30 32h1M52 32h5M65 32h1M29 33h1M51 33h2M66 33h1M16 34h1M29 34h1M50 34h1M65 34h1M29 35h1M50 35h1M64 35h1M15 36h1M29 36h1M49 36h1M63 36h1M15 37h1M25 37h1M28 37h1M48 37h1M63 37h1M26 38h1M28 38h1M47 38h1M63 38h1M14 39h1M22 39h1M28 39h1M47 39h1M55 39h1M14 40h1M21 40h1M27 40h1M46 40h1M52 40h3M56 40h1M64 40h1M14 41h1M20 41h1M27 41h1M46 41h1M51 41h1M56 41h1M64 41h1M14 42h1M19 42h1M26 42h1M46 42h1M57 42h1M64 42h1M18 43h1M24 43h2M45 43h1M15 44h2M23 44h1M45 44h1M58 44h1M65 44h1M22 45h1M45 45h1M65 45h1M21 46h1M45 46h1M60 46h1M65 46h1M21 47h1M45 47h1M61 47h1M65 47h1M74 47h1M20 48h1M45 48h1M62 48h1M65 48h1M72 48h2M20 49h1M45 49h1M63 49h2M71 49h1M19 50h1M46 50h1M70 50h1M19 51h1M46 51h1M69 51h1M19 52h1M47 52h1M68 52h1M19 53h1M48 53h2M59 53h1M67 53h1M20 54h1M50 54h1M58 54h1M67 54h1M20 55h1M51 55h1M57 55h1M66 55h1M51 56h1M57 56h1M66 56h1M52 57h1M56 57h1M66 57h1M52 58h1M56 58h1M65 58h1M20 59h1M52 59h1M55 59h1M65 59h1M20 60h1M51 60h1M54 60h1M64 60h1M20 61h1M50 61h1M64 61h1M20 62h1M49 62h1M63 62h1M21 63h1M49 63h1M62 63h1M21 64h1M49 64h1M61 64h1M22 65h1M48 65h1M59 65h2M23 66h1M30 66h6M48 66h1M56 66h3M25 67h1M29 67h1M36 67h3M47 67h1M52 67h4M26 68h1M30 68h1M39 68h2M46 68h1M24 69h2M30 69h1M41 69h1M23 70h1M29 70h1M42 70h1M47 70h1M22 71h1M28 71h1M43 71h1M49 71h1M22 72h1M26 72h2M43 72h1M50 72h1M23 73h3M44 73h1M50 73h1M45 74h1M51 74h1M46 75h2M51 75h1M48 76h3" />
<path stroke="#ad5a21" d="M46 11h1M45 12h1M44 13h3M42 14h3M46 14h1M41 15h3M45 15h1M42 16h1M44 16h2M31 17h1M43 17h2M30 18h1M44 18h1M30 19h1M29 20h1M44 23h2M43 24h3M45 25h1M44 27h2M41 28h4M35 29h1M41 29h4M34 30h2M41 30h4M42 31h1M25 34h1M25 35h2M25 36h4M50 36h1M26 37h2M49 37h2M27 38h1M48 38h4M48 39h7M47 40h5M47 41h3M47 42h4M46 43h5M46 44h4M46 45h4M46 46h4M46 47h3M46 48h3M46 49h3M47 50h2M47 51h2M48 52h1M54 52h1M54 53h2M53 54h5M52 55h5M52 56h5M53 57h3M53 58h3M44 59h1M53 59h2M44 60h3M52 60h2M55 60h1M43 61h5M51 61h2M54 61h3M43 62h6M53 62h6M60 62h1M62 62h1M22 63h1M27 63h3M42 63h7M50 63h8M59 63h1M61 63h1M22 64h11M40 64h9M50 64h9M60 64h1M23 65h25M49 65h10M24 66h6M36 66h12M51 66h5M28 67h1M39 67h8M27 68h3M41 68h5M26 69h4M42 69h3M26 70h3M43 70h4M25 71h1M44 71h2M24 72h1M44 72h1M45 73h1M48 73h1M47 74h1M49 74h1M48 75h1" />
<path stroke="#f7f7b5" d="M33 16h1M32 17h3M31 18h3M37 18h2M31 19h2M36 19h2M35 20h1M27 23h3M38 23h3M28 24h4M35 24h7M32 25h6M40 25h2M19 26h1M17 27h2M20 27h1M22 27h1M18 28h6M19 29h6M20 30h7M61 30h2M21 31h7M59 31h3M63 31h3M22 32h6M41 32h1M57 32h8M25 33h2M40 33h2M55 33h11M35 34h7M54 34h11M35 35h6M53 35h8M63 35h1M34 36h6M52 36h7M34 37h6M55 37h2M34 38h5M54 38h2M33 39h6M33 40h5M32 41h6M32 42h6M31 43h6M30 44h7M29 45h8M28 46h9M27 47h10M69 47h5M26 48h11M67 48h5M26 49h11M65 49h6M25 50h5M31 50h6M63 50h7M25 51h4M31 51h7M62 51h7M24 52h4M31 52h7M61 52h4M66 52h2M24 53h3M31 53h8M60 53h3M65 53h2M24 54h3M31 54h8M61 54h1M64 54h3M24 55h2M31 55h7M64 55h2M24 56h2M31 56h7M25 57h2M30 57h7M25 58h11M26 59h9M28 60h5" />
<path stroke="#cebd84" d="M34 16h1M38 19h1M31 25h1M38 25h1M39 26h3M39 27h3M38 28h3M18 29h1M37 29h4M19 30h1M37 30h4M36 31h2M39 31h3M28 32h1M34 32h3M38 32h3M23 33h2M27 33h1M37 33h3M42 33h1M24 34h1M26 34h3M60 47h1M59 48h3M57 49h6M56 50h6M55 51h6M55 52h5M65 52h1M56 53h3M63 53h2M64 56h1" />
<path stroke="#e6a531" d="M45 19h2M46 20h3M46 21h4M46 22h5M47 23h2M47 24h1M51 24h1M52 26h1M46 28h1M52 29h1M33 31h1M45 31h1M51 32h1M41 36h1M40 38h1M46 39h1M39 40h1M45 42h1M38 43h1M21 48h2M22 49h2M20 50h2M23 50h1M38 50h1M45 50h1M20 51h4M20 52h3M39 52h1M46 52h1M20 53h2M46 53h2M21 54h1M45 54h3M49 54h1M44 55h3M48 55h1M50 55h1M42 56h6M49 56h1M43 57h9M45 58h7M47 59h5M48 60h3M49 61h1" />
<path stroke="#ffffff" d="M38 20h1M36 21h1M38 21h1M38 22h1M37 23h1M37 27h1" />
<path stroke="#6b6b6b" d="M27 22h1M27 24h1M38 27h1M37 28h1" />
<path stroke="#ffde00" d="M49 23h2M48 24h3M47 25h5M47 26h5M47 27h6M47 28h6M32 29h1M46 29h6M31 30h2M46 30h6M31 31h1M46 31h6M31 32h2M45 32h6M30 33h4M44 33h7M30 34h4M43 34h7M30 35h4M42 35h8M30 36h3M42 36h7M29 37h4M41 37h7M29 38h4M41 38h6M29 39h3M40 39h6M28 40h4M40 40h6M28 41h3M39 41h7M27 42h4M39 42h6M26 43h4M39 43h6M24 44h5M38 44h7M23 45h5M38 45h7M22 46h5M38 46h7M22 47h4M38 47h7M23 48h3M38 48h7M21 49h1M24 49h1M38 49h7M22 50h1M39 50h6M39 51h7M40 52h6M40 53h6M40 54h5M48 54h1M41 55h3M47 55h1M49 55h1M48 56h1M50 56h1" />
<path stroke="#2163a5" d="M17 31h1M19 31h2M21 32h1M16 33h1M20 33h1M22 33h1M19 34h2M23 34h1M15 35h1M19 35h1M22 35h1M24 35h1M61 35h2M18 36h1M21 36h1M24 36h1M59 36h2M18 37h1M21 37h1M24 37h1M57 37h2M61 37h1M14 38h1M17 38h1M20 38h1M23 38h1M56 38h1M58 38h1M61 38h1M17 39h1M19 39h1M58 39h1M62 39h1M64 39h1M16 40h1M19 40h1M59 40h1M62 40h1M16 41h1M18 41h1M59 41h1M62 41h1M60 42h1M63 42h1M14 43h2M17 43h1M58 43h1M60 43h1M63 43h1M65 43h1M61 44h1M64 44h1M59 45h1M61 45h1M64 45h1M62 46h1M62 47h1M64 48h1" />
<path stroke="#63bde6" d="M18 32h3M17 33h3M21 33h1M17 34h2M21 34h2M16 35h3M20 35h2M23 35h1M16 36h2M19 36h2M22 36h2M61 36h2M16 37h2M19 37h2M22 37h2M59 37h2M62 37h1M15 38h2M18 38h2M21 38h2M57 38h1M59 38h2M62 38h1M15 39h2M18 39h1M20 39h2M56 39h2M59 39h3M63 39h1M15 40h1M17 40h2M20 40h1M57 40h2M60 40h2M63 40h1M15 41h1M17 41h1M19 41h1M57 41h2M60 41h2M63 41h1M15 42h4M58 42h2M61 42h2M16 43h1M59 43h1M61 43h2M64 43h1M59 44h2M62 44h2M60 45h1M62 45h2M61 46h1M63 46h2M63 47h2M63 48h1" />
<path stroke="#ce6b19" d="M43 60h1M21 61h1M21 62h2M42 62h1M23 63h1M26 63h1M30 63h1M41 63h1M33 64h1M39 64h1" />
</svg>