<svg xmlns="http://www.w3.org/2000/svg" viewBox="0 -0.5 80 80" shape-rendering="crispEdges">
<metadata>Made with Pixels to Svg https://codepen.io/shshaw/pen/XbxvNj</metadata>
<path stroke="#215a73" d="M35 15h1M34 16h1M33 18h1M37 18h1M44 18h1M33 19h1M38 20h1M32 21h1M38 21h1M45 21h1M37 22h1M45 22h1M37 23h1M45 23h1M36 24h2M31 25h1M30 26h1M29 27h1M47 27h1M49 27h1M46 28h1M48 28h1M28 29h1M47 29h1M49 29h2M46 30h1M48 30h3M45 31h6M45 32h6M27 33h1M30 33h2M44 33h5M26 34h1M25 36h1M24 38h2M29 38h2M24 39h8M34 39h2M42 39h4M25 40h6M33 40h2M40 40h5M26 41h3M41 41h2M49 41h1M26 42h3M27 43h1M53 46h1M25 47h1M53 47h1M47 48h1M52 48h3M50 49h5M29 50h1M50 50h6M29 51h3M37 51h2M51 51h2M30 52h9M54 52h1M30 53h9M51 53h5M30 54h2M33 54h6M51 54h3M30 55h1M33 55h3M37 55h3M50 55h1M53 55h1M32 56h3M38 56h2M39 57h1" />
<path stroke="#104242" d="M36 15h1M42 15h2M37 16h1M41 16h1M44 16h1M34 17h1M38 18h1M40 18h1M45 18h1M33 20h1M39 20h1M46 21h1M32 22h1M38 22h1M32 23h1M32 24h1M46 24h1M49 26h1M29 28h1M50 28h1M51 29h1M28 30h1M28 31h1M28 32h1M34 32h1M39 32h1M28 33h2M33 33h1M40 33h1M49 33h2M28 34h1M30 34h1M35 34h4M41 34h7M26 35h1M31 35h1M32 36h1M25 37h1M31 37h1M31 38h2M32 39h2M46 39h1M24 40h1M31 40h1M25 41h1M29 41h2M25 42h1M29 42h1M26 43h1M27 44h1M44 44h1M53 44h1M44 45h2M26 46h1M55 48h1M27 49h1M55 51h1M32 54h1M54 54h1M32 55h1M36 55h1M51 55h2M35 56h1M38 57h1M40 57h1" />
<path stroke="#317b9c" d="M35 16h2M42 16h2M35 17h2M42 17h2M34 18h3M41 18h3M34 19h4M41 19h4M34 20h4M40 20h5M33 21h5M40 21h5M33 22h4M39 22h6M33 23h4M39 23h6M33 24h3M38 24h8M32 25h2M38 25h10M31 26h2M39 26h10M30 27h2M39 27h1M42 27h5M48 27h1M30 28h1M38 28h1M43 28h3M47 28h1M49 28h1M29 29h2M35 29h4M43 29h4M48 29h1M29 30h2M35 30h4M43 30h3M47 30h1M29 31h2M35 31h4M42 31h3M29 32h5M35 32h4M40 32h5M32 33h1M35 33h4M41 33h3M27 35h4M26 36h5M26 37h5M26 38h3M32 40h1M45 40h3M31 41h2M43 41h6M30 42h2M41 42h10M29 43h3M41 43h11M28 44h4M41 44h3M45 44h8M28 45h4M39 45h5M46 45h7M27 46h18M46 46h7M27 47h18M47 47h6M26 48h15M42 48h2M49 48h3M28 49h12M30 50h10M32 51h5" />
<path stroke="#000000" d="M37 17h1M41 17h1M44 17h1M38 19h1M40 19h1M45 19h1M45 20h1M39 21h1M46 22h1M38 23h1M46 23h1M47 24h1M48 25h1M50 27h1M32 28h1M40 28h1M51 30h1M51 31h1M51 32h1M49 35h1M48 36h1M32 37h1M46 37h2M33 38h3M43 38h3M36 39h6M47 39h1M48 40h2M50 41h1M51 42h1M28 43h1M52 43h1M27 45h1M53 45h1M45 46h1M54 46h1M23 47h2M26 47h1M46 47h1M54 47h1M25 48h1M46 48h1M48 48h1M20 49h1M26 49h1M42 49h1M46 49h1M49 49h1M55 49h1M19 50h1M21 50h1M28 50h1M40 50h1M43 50h1M49 50h1M56 50h1M20 51h2M28 51h1M50 51h1M53 51h2M21 52h1M29 52h1M50 52h4M55 52h1M21 53h1M29 53h1M50 53h1M56 53h1M22 54h1M29 54h1M50 54h1M55 54h2M22 55h1M29 55h1M31 55h1M49 55h1M54 55h1M23 56h1M28 56h4M36 56h2M40 56h1M49 56h3M53 56h2M25 57h3M31 57h4M41 57h1M48 57h1M39 58h2M42 58h6" />
<path stroke="#3194b5" d="M34 25h4M33 26h6M34 27h5M35 28h3M31 31h1M34 31h1M39 31h1M27 34h1M29 34h1M31 36h1M40 44h1M32 45h1M38 45h1" />
<path stroke="#cecece" d="M32 27h2M40 27h2M31 28h1M39 28h1M31 30h1M39 30h1M34 34h1M39 34h1M22 49h1M44 49h2M20 50h1M41 50h2M47 50h2" />
<path stroke="#ffffff" d="M33 28h2M41 28h2M31 29h4M39 29h4M32 30h3M40 30h3M32 31h2M40 31h2M34 33h1M39 33h1M24 48h1M45 48h1M21 49h1M24 49h2M41 49h1M48 49h1M22 50h1" />
<path stroke="#efe684" d="M31 34h1M32 35h11M33 36h9M34 37h6M33 41h2M32 42h9M32 43h9M32 44h8M33 45h5M26 50h1M25 51h3M40 51h1M43 51h4M49 51h1M26 52h2M40 52h2M48 52h2M40 53h1M49 53h1" />
<path stroke="#b5b563" d="M32 34h2M40 34h1M48 34h2M43 35h6M42 36h6M33 37h1M40 37h6M36 38h7M35 40h5M35 41h6M23 51h2M22 52h4M42 52h6M22 53h1M25 53h4M41 53h2M46 53h3M26 54h3M40 54h2M47 54h3M23 55h1M26 55h3M41 55h1M47 55h2M25 56h3M41 56h2M46 56h3M42 57h6" />
<path stroke="#524a10" d="M50 34h1M45 47h1M23 48h1M41 48h1M44 48h1M23 49h1M40 49h1M43 49h1M47 49h1M27 50h1M46 50h1M39 51h1M28 52h1M39 52h1M39 53h1M39 54h1M40 55h1M24 56h1" />
<path stroke="#73737b" d="M20 48h3M23 50h3M44 50h2M22 51h1M41 51h2M47 51h2" />
<path stroke="#7b5a31" d="M23 53h2M43 53h3M24 54h1M42 54h5M24 55h2M42 55h5M43 56h3" />
<path stroke="#948442" d="M23 54h1M25 54h1" />
</svg>