<svg xmlns="http://www.w3.org/2000/svg" viewBox="0 -0.5 80 80" shape-rendering="crispEdges">
<metadata>Made with Pixels to Svg https://codepen.io/shshaw/pen/XbxvNj</metadata>
<path stroke="#b53119" d="M5 11h4M4 12h2M9 12h3M4 13h1M12 13h2M4 14h1M14 14h1M1 15h6M15 15h1M0 16h2M7 16h3M16 16h1M0 17h1M9 17h2M17 17h1M0 18h1M11 18h2M72 18h5M13 19h1M68 19h4M77 19h1M14 20h1M66 20h2M15 21h2M64 21h2M75 21h1M17 22h1M62 22h2M70 22h2M60 23h2M67 23h3M58 24h2M64 24h3M62 25h2M60 26h2M59 27h1M48 37h1M37 38h1M48 38h2M37 39h1M48 39h1M43 40h3M19 41h1M36 41h1M43 41h3M44 42h1M23 44h1M39 44h1M20 45h1M22 45h1M38 45h1M40 45h1M19 46h1M39 46h2M20 47h1M22 47h1M34 47h2M38 47h2M20 48h1M22 48h1M32 48h4M37 48h3M21 49h1M32 49h4M37 49h2M32 50h3M36 50h1M32 51h1M49 57h3M48 58h3" />
<path stroke="#f75a52" d="M6 12h3M5 13h7M5 14h9M7 15h8M2 16h5M10 16h6M1 17h8M11 17h6M1 18h10M13 18h5M2 19h11M14 19h5M72 19h5M2 20h12M15 20h5M68 20h9M3 21h12M17 21h3M66 21h9M4 22h12M64 22h6M6 23h11M62 23h5M70 23h5M8 24h9M60 24h4M67 24h8M9 25h8M58 25h4M64 25h10M12 26h4M57 26h3M62 26h11M60 27h11M59 28h10M58 29h8M59 30h4M38 39h1M44 39h1M20 40h1M37 40h3M20 41h1M37 41h3M19 42h1M36 42h5M19 43h1M35 43h5M20 44h2M33 44h1M36 44h3M23 45h2M30 45h5M37 45h1M22 46h2M31 46h3M35 46h1M32 47h2" />
<path stroke="#733100" d="M18 18h1M1 19h1M1 20h1M77 20h1M2 21h1M76 21h1M3 22h1M72 22h3M4 23h2M75 23h1M6 24h2M75 24h1M8 25h1M74 25h1M9 26h3M73 26h1M12 27h1M71 27h2M69 28h2M66 29h3M63 30h3M60 31h3M49 37h1M21 38h1M20 39h1M19 40h1M18 42h1M18 43h1M40 43h1M50 43h3M18 44h1M22 44h1M32 44h1M34 44h1M40 44h1M18 45h1M21 45h1M35 45h2M18 46h1M21 46h1M38 46h1M31 47h1M37 47h1M40 47h1M50 47h1M50 48h2M36 49h1M37 50h1M34 51h1M31 52h1" />
<path stroke="#a5adc5" d="M19 19h1M20 20h1M22 21h1M23 22h1M24 23h1M25 24h1M26 25h1M57 25h1M27 26h1M55 26h1M53 27h2M52 28h1M58 31h1M46 32h2M54 32h1M44 33h2M42 34h1M47 34h1M43 35h2M30 52h1M30 59h1M30 61h1M39 61h1M33 62h1M38 63h1M61 64h2M64 65h1" />
<path stroke="#ffffff" d="M20 21h2M18 22h5M19 23h5M17 24h2M21 24h4M17 25h4M22 25h4M16 26h6M23 26h4M56 26h1M14 27h9M25 27h2M55 27h2M17 28h8M26 28h2M53 28h2M57 28h2M19 29h7M50 29h3M55 29h3M22 30h5M48 30h2M53 30h6M25 31h2M50 31h8M48 32h6M50 33h1M24 38h2M24 39h2M20 42h2M20 43h2M34 46h1M23 51h1M29 51h2M29 52h1M31 59h4M30 60h7M31 61h8M34 62h7M39 63h1M54 64h7M53 65h11M55 66h10M59 67h4" />
<path stroke="#4a4a52" d="M39 21h1M38 22h1M34 23h1M38 23h2M33 24h1M39 24h1M29 25h1M33 25h1M38 25h2M28 26h1M35 26h1M38 26h3M28 27h1M34 27h2M38 27h3M29 28h1M34 28h2M38 28h3M29 29h1M34 29h2M37 29h4M29 30h1M33 30h3M37 30h4M29 31h2M33 31h3M37 31h2M29 32h2M33 32h3M28 33h3M33 33h1M28 34h3M32 34h1M28 35h2M27 36h2M27 37h2M27 38h1M27 39h1M26 40h1M52 41h1M53 42h3M55 43h2M55 44h2M54 45h2M51 46h2M55 46h1M52 47h3M45 48h2M53 48h2M47 49h2M53 49h1M17 50h1M22 50h1M48 50h2M51 50h3M16 51h3M48 51h2M52 51h2M16 52h2M47 52h2M51 52h2M17 53h1M46 53h2M52 53h1M17 54h3M46 54h2M51 54h1M18 55h1M44 55h3M19 56h1M43 56h3M43 57h1M49 67h1M48 68h2M47 69h3M47 70h2M48 71h1M48 72h1M48 73h1" />
<path stroke="#c5cee6" d="M16 22h1M17 23h2M19 24h2M21 25h1M22 26h1M13 27h1M23 27h2M27 27h1M57 27h1M25 28h1M55 28h2M26 29h1M53 29h2M50 30h3M46 31h4M44 32h2M46 33h4M43 34h4M41 35h2M23 50h1M29 50h1M23 52h1M29 53h1M50 64h4M52 65h1" />
<path stroke="#7b7b84" d="M39 22h1M34 24h1M38 24h1M34 25h1M29 26h1M34 26h1M29 27h1M33 27h1M37 27h1M58 27h1M14 28h3M33 28h1M37 28h1M17 29h2M28 29h1M33 29h1M20 30h2M28 30h1M22 31h3M28 31h1M32 31h1M59 31h1M25 32h1M28 32h1M32 32h1M55 32h4M27 33h1M32 33h1M51 33h3M27 34h1M48 34h3M27 35h1M22 51h1M22 52h1M23 53h1M30 53h1M45 53h1M29 54h1M42 55h2M42 57h1M30 58h5M29 59h1M35 59h2M29 60h1M37 60h3M29 61h1M40 61h2M30 62h3M33 63h5M51 63h11M63 64h2M49 65h3M65 65h1M52 66h3M65 66h1M55 67h4M63 67h2M59 68h4" />
<path stroke="#101010" d="M40 22h1M40 23h1M35 24h1M37 24h1M40 24h1M35 25h1M37 25h1M40 25h1M30 26h1M33 26h1M36 26h2M41 26h1M30 27h1M32 27h1M36 27h1M41 27h1M28 28h1M30 28h1M32 28h1M36 28h1M41 28h1M27 29h1M30 29h1M32 29h1M36 29h1M41 29h1M27 30h1M30 30h1M32 30h1M36 30h1M27 31h1M31 31h1M36 31h1M27 32h1M31 32h1M26 33h1M31 33h1M26 34h1M31 34h1M26 35h1M31 35h3M26 36h1M34 36h1M50 36h1M23 37h1M26 37h1M36 37h2M50 37h1M26 38h1M38 38h1M50 38h1M21 39h1M26 39h1M39 39h1M49 39h1M21 40h1M36 40h1M40 40h1M49 40h4M21 41h1M40 41h1M48 41h4M53 41h3M35 42h1M41 42h1M47 42h6M56 42h1M22 43h2M33 43h2M41 43h1M46 43h1M53 43h2M57 43h1M19 44h1M30 44h2M35 44h1M41 44h1M44 44h6M54 44h1M57 44h1M19 45h1M29 45h1M39 45h1M41 45h3M46 45h8M56 45h1M20 46h1M30 46h1M36 46h2M41 46h5M49 46h2M53 46h2M56 46h1M19 47h1M21 47h1M23 47h1M36 47h1M42 47h5M51 47h1M55 47h1M18 48h2M21 48h1M31 48h1M36 48h1M40 48h1M44 48h1M47 48h2M52 48h1M55 48h1M17 49h4M22 49h1M31 49h1M39 49h1M45 49h2M49 49h1M51 49h2M54 49h1M16 50h1M18 50h2M21 50h1M25 50h3M31 50h1M35 50h1M38 50h1M47 50h1M50 50h1M54 50h1M15 51h1M19 51h1M24 51h1M28 51h1M31 51h1M33 51h1M35 51h2M47 51h1M50 51h2M54 51h1M15 52h1M18 52h1M24 52h1M28 52h1M32 52h3M45 52h2M49 52h2M53 52h1M16 53h1M18 53h2M25 53h2M28 53h1M31 53h1M44 53h1M48 53h2M51 53h1M53 53h1M16 54h1M20 54h1M27 54h2M42 54h4M48 54h1M50 54h1M52 54h1M17 55h1M19 55h1M41 55h1M47 55h1M51 55h1M18 56h1M20 56h1M42 56h1M46 56h1M19 57h2M41 57h1M44 57h2M41 58h3M43 65h2M42 66h1M50 66h1M41 67h1M50 67h1M39 68h1M50 68h1M37 69h2M45 69h2M50 69h1M42 70h3M46 70h1M49 70h1M47 71h1M49 71h1M47 72h1M49 72h1M47 73h1M49 73h1M48 74h1" />
<path stroke="#213a19" d="M31 29h1M41 30h3M39 31h2M44 31h2M26 32h1M25 33h1M34 33h4M24 34h1M33 34h1M40 34h1M51 34h1M23 35h1M47 35h1M49 35h1M52 35h2M22 36h1M25 36h1M35 36h1M43 36h1M48 36h2M54 36h1M22 37h1M44 37h1M55 37h1M44 38h1M56 38h1M56 39h1M55 40h1M57 40h1M57 41h1M57 42h1M45 43h1M25 44h3M58 44h1M25 45h2M28 45h1M58 45h1M47 46h1M58 46h1M30 47h1M47 47h1M58 47h1M58 48h1M55 49h1M58 49h1M55 50h2M58 50h1M25 51h3M57 51h2M25 52h3M58 52h1M27 53h1M50 53h1M57 53h1M54 54h2M57 54h1M48 55h3M52 55h2M56 55h2M56 56h1M55 57h2M44 58h1M55 58h1M44 59h2M51 59h2M55 59h1M43 60h1M46 60h5M53 60h2M42 61h1M54 61h1M41 62h1M53 62h1M40 63h1M39 64h1M38 65h1M45 65h1M38 66h1M45 66h1M49 66h1M37 67h1M40 67h1M44 67h1M48 67h1M37 68h1M43 68h1M46 68h2M42 69h1" />
<path stroke="#52844a" d="M31 30h1M36 32h3M43 33h1M34 34h2M24 35h2M45 35h2M30 36h4M36 36h1M39 36h4M44 36h3M29 37h5M38 37h6M45 37h2M29 38h4M39 38h5M45 38h1M28 39h4M40 39h4M28 40h2M27 46h3M24 47h1M27 47h3M25 48h4M46 59h1M44 60h2M43 61h8M42 62h9M41 63h9M40 64h2M44 64h5M39 65h1M46 65h2M46 66h2M45 67h2M44 68h2M43 69h2" />
<path stroke="#739c63" d="M41 31h3M39 32h2M39 33h4M25 34h1M36 34h3M41 34h1M34 35h7M37 36h2M24 37h2M34 37h1M23 38h1M33 38h3M22 39h2M32 39h4M22 40h4M30 40h6M22 41h13M23 42h11M24 43h8M25 46h2M25 47h2" />
<path stroke="#3a5a29" d="M41 32h3M38 33h1M39 34h1M48 35h1M50 35h2M23 36h2M47 36h1M51 36h3M35 37h1M47 37h1M51 37h4M22 38h1M36 38h1M46 38h2M51 38h5M36 39h1M45 39h3M50 39h6M41 40h2M46 40h3M53 40h2M56 40h1M35 41h1M41 41h2M46 41h2M56 41h1M22 42h1M34 42h1M42 42h2M45 42h2M32 43h1M42 43h3M47 43h3M24 44h1M28 44h2M42 44h2M50 44h4M27 45h1M57 45h1M24 46h1M48 46h1M57 46h1M48 47h2M56 47h2M23 48h2M29 48h2M49 48h1M56 48h2M23 49h8M50 49h1M56 49h2M24 50h1M28 50h1M30 50h1M57 50h1M55 51h2M54 52h4M54 53h3M49 54h1M53 54h1M56 54h1M54 55h2M47 56h9M46 57h3M52 57h3M45 58h3M51 58h4M47 59h4M53 59h2M51 60h2M51 61h3M51 62h2M50 63h1M42 64h2M49 64h1M40 65h3M48 65h1M39 66h3M48 66h1M38 67h2M47 67h1M38 68h1" />
<path stroke="#292931" d="M30 35h1M29 36h1M28 38h1M27 40h1" />
</svg>