<svg xmlns="http://www.w3.org/2000/svg" viewBox="0 -0.5 80 80" shape-rendering="crispEdges">
<metadata>Made with Pixels to Svg https://codepen.io/shshaw/pen/XbxvNj</metadata>
<path stroke="#3a5252" d="M24 5h1M25 6h1M26 7h1M32 7h1M26 8h1M32 8h1M23 9h1M27 9h1M33 9h1M23 10h1M25 10h1M33 10h1M23 11h1M33 11h1M22 12h1M34 12h1M22 13h1M27 13h1M34 13h1M21 14h1M34 14h1M40 14h3M21 15h1M26 15h1M43 15h2M20 16h1M45 16h1M20 17h1M46 17h1M20 18h1M29 18h1M19 19h1M28 19h1M47 19h1M19 20h1M28 20h1M19 21h1M27 21h1M18 22h1M27 22h1M42 22h3M18 23h1M27 23h1M40 23h2M18 24h1M27 24h1M17 25h1M28 25h1M17 26h1M17 27h1M37 27h1M17 28h1M22 28h1M16 29h1M24 29h1M36 29h1M16 30h1M26 30h1M34 30h1M16 31h1M29 31h1M36 31h1M16 32h1M33 32h1M39 32h1M16 33h1M39 33h2M15 34h1M34 34h1M51 34h2M15 35h1M36 35h1M51 35h1M53 35h2M15 36h1M47 36h3M51 36h1M55 36h1M15 37h1M50 37h3M56 37h1M15 38h1M38 38h1M48 38h1M57 38h1M15 39h1M51 39h1M58 39h1M15 40h1M52 40h2M59 40h1M14 41h1M42 41h1M59 41h1M14 42h1M60 42h1M14 43h1M43 43h1M60 43h1M14 44h1M61 44h1M14 45h1M61 45h1M14 46h1M61 46h1M14 47h1M62 47h1M14 48h1M62 48h1M14 49h1M61 49h2M14 50h1M59 50h1M61 50h2M14 51h1M59 51h1M62 51h1M14 52h1M60 52h1M62 52h1M14 53h1M61 53h1M14 54h1M14 55h1" />
<path stroke="#101010" d="M32 5h5M38 6h1M40 7h1M27 10h1M43 10h1M27 11h1M44 11h1M27 12h1M45 12h1M45 13h1M27 14h1M46 14h1M33 15h1M46 15h1M26 16h1M31 16h1M47 16h1M26 17h1M30 17h1M47 17h1M25 18h1M47 18h1M25 19h1M48 19h1M25 20h1M48 20h1M24 21h1M53 21h1M24 22h1M52 22h1M23 23h2M50 23h2M23 24h1M39 24h1M49 24h1M23 25h1M38 25h1M40 25h1M46 25h1M22 26h1M28 26h1M37 26h1M47 26h1M22 27h1M29 27h1M48 27h1M23 28h1M30 28h1M36 28h1M45 28h4M25 29h1M31 29h2M43 29h2M27 30h2M33 30h1M37 30h2M41 30h2M22 31h3M30 31h3M35 31h1M38 31h3M20 32h2M25 32h3M34 32h5M40 32h1M20 33h1M28 33h3M41 33h2M20 34h1M31 34h3M43 34h2M20 35h1M34 35h2M19 36h1M33 36h1M37 36h1M46 36h1M19 37h1M33 37h1M38 37h1M46 37h1M19 38h1M34 38h1M46 38h2M19 39h1M35 39h1M45 39h1M49 39h2M19 40h1M36 40h1M39 40h1M45 40h1M18 41h1M38 41h2M53 41h1M18 42h1M39 42h1M43 42h3M53 42h1M18 43h1M37 43h2M47 43h1M54 43h1M18 44h1M48 44h1M54 44h1M18 45h1M49 45h1M55 45h1M18 46h1M50 46h1M55 46h1M17 47h1M33 47h1M50 47h1M56 47h1M17 48h1M33 48h1M50 48h1M56 48h1M17 49h1M34 49h1M49 49h1M57 49h1M17 50h1M35 50h2M50 50h1M57 50h1M17 51h1M41 51h6M58 51h1M16 52h1M38 52h2M47 52h2M16 53h1M37 53h1M49 53h1M16 54h1M35 54h2M50 54h1M16 55h1M34 55h1M51 55h1M57 55h1M15 56h2M33 56h1M52 56h1M58 56h1M32 57h1M53 57h1M59 57h1M32 58h1M53 58h1M60 58h1M24 59h1M31 59h1M54 59h1M61 59h1M24 60h1M31 60h1M54 60h1M62 60h1M23 61h1M31 61h1M55 61h1M23 62h1M55 62h1M63 62h1M22 63h1M30 63h1M56 63h1M64 63h1M22 64h1M30 64h1M56 64h1M65 64h1M21 65h1M30 65h1M56 65h1M66 65h1M21 66h1M30 66h1M57 66h1M67 66h1M21 67h1M30 67h1M57 67h1M67 67h1M20 68h1M30 68h1M57 68h1M68 68h1M20 69h1M30 69h1M57 69h1M68 69h1M19 70h1M30 70h1M58 70h1M69 70h1M19 71h1M29 71h1M58 71h1M69 71h1M19 72h1M27 72h2M59 72h2M68 72h2M20 73h1M25 73h2M61 73h8M21 74h4" />
<path stroke="#42845a" d="M24 6h1M24 7h1M23 8h2M25 9h1M25 11h1M26 12h1M26 13h1M26 14h1M25 15h1M38 15h2M25 16h1M36 16h2M44 16h1M24 17h2M35 17h1M45 17h1M24 18h1M34 18h1M45 18h2M23 19h2M29 19h1M33 19h1M44 19h3M23 20h2M33 20h1M44 20h4M22 21h2M28 21h1M32 21h1M43 21h2M22 22h2M28 22h1M32 22h1M41 22h1M22 23h1M28 23h1M32 23h1M21 24h2M28 24h1M32 24h1M38 24h1M21 25h2M29 25h1M32 25h1M35 25h3M20 26h2M29 26h1M33 26h4M20 27h2M34 27h3M20 28h2M34 28h2M19 29h5M35 29h1M19 30h7M19 31h3M25 31h4M19 32h1M28 32h5M18 33h2M31 33h6M18 34h2M35 34h3M18 35h2M37 35h3M52 35h1M17 36h2M38 36h3M52 36h3M17 37h2M39 37h3M47 37h3M53 37h3M17 38h2M40 38h2M49 38h8M17 39h2M40 39h2M52 39h6M17 40h2M41 40h1M54 40h5M17 41h1M41 41h1M54 41h4M17 42h1M42 42h1M54 42h3M17 43h1M42 43h1M55 43h1M16 44h2M43 44h1M55 44h1M16 45h2M16 46h2M16 47h1M16 48h1M58 48h1M61 48h1M16 49h1M59 49h1M15 50h2M15 51h2M15 52h1M15 53h1M15 54h1M15 55h1" />
<path stroke="#7394a5" d="M32 6h1M34 6h3M34 7h5M35 8h6M35 9h7M35 10h8M35 11h6M42 11h2M36 12h4M41 12h1M43 12h1M36 13h5M42 13h3M35 14h5M43 14h3M45 15h1M32 16h1M46 16h1M30 26h2M30 27h3M31 28h2M33 29h1" />
<path stroke="#7bc5b5" d="M33 6h1M33 7h1M33 8h2M34 9h1M34 10h1M34 11h1M41 11h1M35 12h1M40 12h1M42 12h1M35 13h1M41 13h1M34 15h4M33 16h3M31 17h4M30 18h4M30 19h3M29 20h4M29 21h3M29 22h3M29 23h3M29 24h3M30 25h2" />
<path stroke="#527b84" d="M37 6h1M39 7h1M41 8h1M42 9h1M44 12h1M32 26h1M33 27h1M33 28h1M34 29h1M35 30h2" />
<path stroke="#5ab56b" d="M25 7h1M25 8h1M24 9h1M26 9h1M24 10h1M26 10h1M24 11h1M26 11h1M23 12h3M23 13h3M22 14h4M22 15h3M40 15h3M21 16h4M38 16h6M21 17h3M36 17h9M21 18h3M35 18h10M20 19h3M34 19h10M20 20h3M34 20h10M20 21h2M33 21h10M19 22h3M33 22h8M19 23h3M33 23h7M19 24h2M33 24h5M18 25h3M33 25h2M18 26h2M18 27h2M18 28h2M17 29h2M17 30h2M17 31h2M17 32h2M17 33h1M37 33h2M16 34h2M38 34h3M16 35h2M40 35h1M16 36h1M16 37h1M16 38h1M16 39h1M16 40h1M15 41h2M58 41h1M15 42h2M57 42h3M15 43h2M56 43h4M15 44h1M56 44h5M15 45h1M56 45h5M15 46h1M56 46h5M15 47h1M57 47h5M15 48h1M57 48h1M59 48h2M15 49h1M58 49h1M60 49h1M58 50h1M60 50h1M60 51h2M61 52h1" />
<path stroke="#7b8cad" d="M49 20h5M45 21h3M43 23h1M48 24h1M47 25h1M39 29h1M36 43h1M39 43h1M45 43h2M35 44h1M38 44h1M47 44h1M34 45h1M33 46h1M37 50h1M47 50h3M35 51h2M40 51h1M47 51h1M51 51h1M33 52h2M53 52h1M31 53h2M54 53h1M29 54h2M56 54h1M28 55h1M27 56h1M26 57h1M25 58h1M62 61h1M30 62h1M60 63h1M60 64h1M64 64h1M61 65h1M64 65h1M23 66h1M27 66h1M61 66h1M65 66h1M23 67h1M27 67h1M61 67h1M65 67h1M27 68h1M62 68h1M66 68h1M22 69h1M26 69h1M58 69h1M62 69h1M66 69h1M22 70h1M26 70h1M29 70h1M62 70h1M67 70h1M21 71h1M26 71h1M63 71h1M67 71h1M21 72h1M25 72h1M63 72h1M67 72h1" />
<path stroke="#c5cede" d="M48 21h2M46 22h3M46 23h2M46 24h2M45 25h1M45 26h2M38 27h1M44 27h2M42 28h3M37 29h1M41 29h2M39 30h2M39 38h1M40 40h1M41 42h1M36 44h1M49 46h1M34 47h1M48 47h2M34 48h3M45 48h5M36 49h13M38 50h9M50 52h1M54 58h1M25 59h1M30 59h1M55 59h1M60 59h1M25 60h2M29 60h2M56 60h1M59 60h1M24 61h7M24 62h6M23 63h7M23 64h1M25 64h5M22 65h2M25 65h2M28 65h2M65 65h1M22 66h1M24 66h3M28 66h2M66 66h1M22 67h1M24 67h3M28 67h2M66 67h1M21 68h1M23 68h4M28 68h2M67 68h1M21 69h1M23 69h3M27 69h3M67 69h1M20 70h2M23 70h3M27 70h2M68 70h1M20 71h1M22 71h4M27 71h2M68 71h1M22 72h3M21 73h4" />
<path stroke="#efefff" d="M50 21h3M45 22h1M49 22h2M44 23h2M48 23h2M44 24h2M44 25h1M43 26h2M42 27h2M46 27h2M37 28h5M40 29h1M39 39h1M40 41h1M40 42h1M40 43h2M44 43h1M37 44h1M39 44h4M44 44h3M35 45h14M34 46h15M35 47h13M37 48h8M51 52h1M33 53h3M50 53h4M31 54h4M51 54h4M29 55h5M52 55h5M28 56h5M53 56h5M27 57h5M54 57h5M26 58h6M55 58h5M26 59h4M56 59h4M27 60h2M57 60h2" />
<path stroke="#a5b5ce" d="M51 22h1M43 24h1M43 25h1M42 26h1M39 27h1M41 27h1M38 29h1M35 49h1M37 51h3M48 51h3M35 52h3M49 52h1M52 52h1M36 53h1M55 54h1M55 60h1M60 60h2M56 61h6M56 62h7M57 63h3M61 63h3M24 64h1M57 64h3M61 64h3M24 65h1M27 65h1M57 65h4M62 65h2M58 66h3M62 66h3M58 67h3M62 67h3M22 68h1M58 68h4M63 68h3M59 69h3M63 69h3M59 70h3M63 70h4M59 71h4M64 71h3M20 72h1M26 72h1M61 72h2M64 72h3" />
<path stroke="#ffffff" d="M42 23h1M42 24h1M39 25h1M42 25h1M38 26h1" />
<path stroke="#e6523a" d="M40 24h2M41 25h1M41 26h1M40 27h1M41 35h2M35 36h2M42 36h3M34 37h4M42 37h4M35 38h3M42 38h4M36 39h3M43 39h2M38 40h1M43 40h2M43 41h1" />
<path stroke="#ff9c84" d="M39 26h1M43 35h3M45 36h1" />
<path stroke="#7b5252" d="M40 26h1M41 34h2M45 34h1M46 35h1M34 36h1M41 36h1M42 39h1M37 40h1M42 40h1M44 41h1" />
</svg>