<svg xmlns="http://www.w3.org/2000/svg" viewBox="0 -0.5 80 80" shape-rendering="crispEdges">
<metadata>Made with Pixels to Svg https://codepen.io/shshaw/pen/XbxvNj</metadata>
<path stroke="#084ac5" d="M39 9h2M38 10h1M41 10h2M37 11h1M42 11h1M37 12h1M43 12h1M37 13h1M43 13h1M36 14h1M44 14h1M36 15h1M44 15h1M36 16h1M44 16h1M36 17h1M45 17h1M36 18h1M45 18h1M35 19h1M46 19h1M35 20h1M46 20h4M34 21h2M50 21h4M27 22h7M54 22h2M26 23h1M56 23h1M25 24h1M57 24h1M24 25h1M58 25h1M24 26h1M59 26h1M24 27h1M59 27h1M23 28h1M60 28h1M21 29h2M60 29h1M19 30h2M60 30h1M17 31h2M60 31h1M15 32h2M60 32h1M13 33h2M19 33h2M60 33h1M11 34h2M18 34h1M21 34h1M60 34h1M9 35h2M17 35h1M21 35h1M61 35h1M7 36h2M16 36h1M21 36h1M61 36h1M6 37h1M15 37h1M21 37h1M61 37h1M6 38h1M14 38h1M21 38h1M61 38h1M6 39h1M12 39h1M14 39h1M21 39h1M61 39h1M6 40h1M11 40h2M14 40h1M21 40h1M62 40h2M6 41h1M10 41h1M12 41h1M14 41h1M21 41h1M64 41h2M6 42h1M9 42h1M12 42h1M14 42h1M21 42h1M37 42h1M61 42h2M66 42h2M6 43h1M9 43h4M14 43h1M21 43h1M38 43h1M61 43h1M63 43h1M68 43h2M5 44h1M15 44h2M21 44h1M39 44h1M62 44h1M64 44h1M70 44h2M4 45h1M17 45h2M21 45h1M62 45h1M65 45h1M72 45h2M3 46h1M19 46h2M40 46h1M63 46h1M66 46h1M74 46h2M3 47h1M61 47h1M63 47h1M66 47h1M76 47h1M3 48h1M60 48h2M64 48h1M66 48h1M77 48h1M3 49h1M60 49h1M62 49h1M64 49h1M66 49h1M77 49h1M3 50h1M60 50h1M62 50h1M65 50h1M68 50h4M78 50h1M3 51h1M30 51h1M60 51h1M62 51h1M67 51h2M71 51h1M78 51h1M4 52h1M39 52h1M59 52h1M62 52h1M67 52h1M72 52h1M78 52h1M5 53h1M31 53h1M39 53h1M59 53h1M63 53h1M67 53h1M72 53h1M77 53h1M6 54h10M38 54h2M59 54h1M63 54h1M67 54h1M72 54h1M77 54h1M16 55h2M33 55h1M37 55h2M58 55h1M63 55h1M67 55h1M72 55h6M18 56h6M35 56h2M58 56h1M63 56h1M67 56h1M24 57h1M58 57h1M63 57h1M67 57h1M24 58h1M57 58h1M64 58h1M68 58h4M25 59h1M57 59h1M64 59h1M71 59h1M25 60h1M56 60h1M64 60h1M71 60h1M26 61h1M55 61h1M64 61h1M71 61h1M27 62h1M55 62h1M65 62h1M71 62h1M28 63h1M54 63h1M66 63h5M29 64h1M35 64h5M54 64h1M30 65h5M40 65h4M53 65h1M44 66h1M53 66h1M45 67h1M52 67h1M46 68h1M51 68h1M47 69h4" />
<path stroke="#4a7bff" d="M39 10h2M38 11h4M38 12h1M41 12h2M38 13h1M42 13h1M37 14h2M42 14h2M37 15h1M43 15h1M37 16h1M43 16h1M37 17h1M43 17h2M37 18h1M44 18h1M36 19h2M44 19h2M36 20h1M45 20h1M36 21h1M45 21h5M34 22h3M49 22h5M27 23h8M53 23h3M26 24h2M32 24h1M55 24h2M25 25h2M56 25h2M25 26h1M57 26h2M25 27h1M58 27h1M24 28h2M58 28h2M23 29h2M59 29h1M21 30h3M59 30h1M19 31h5M59 31h1M17 32h6M59 32h1M15 33h4M21 33h2M59 33h1M13 34h1M17 34h1M22 34h1M59 34h1M11 35h2M15 35h2M22 35h1M59 35h2M9 36h2M12 36h1M14 36h2M22 36h1M60 36h1M7 37h2M12 37h1M14 37h1M22 37h1M60 37h1M7 38h2M12 38h2M22 38h1M60 38h1M7 39h2M11 39h1M13 39h1M22 39h1M60 39h1M7 40h2M10 40h1M13 40h1M22 40h1M60 40h2M7 41h2M13 41h1M22 41h1M60 41h4M7 42h2M13 42h1M22 42h1M33 42h4M60 42h1M63 42h3M7 43h2M13 43h1M22 43h1M34 43h4M60 43h1M64 43h4M6 44h9M22 44h1M35 44h4M60 44h2M65 44h2M69 44h1M5 45h2M13 45h4M22 45h1M36 45h4M60 45h2M66 45h1M71 45h1M4 46h2M16 46h3M21 46h2M30 46h1M36 46h4M59 46h4M67 46h1M72 46h2M4 47h1M18 47h6M30 47h1M35 47h4M59 47h2M62 47h1M67 47h2M74 47h2M4 48h1M20 48h4M30 48h2M34 48h4M59 48h1M62 48h2M67 48h3M76 48h1M4 49h1M30 49h8M59 49h1M63 49h1M67 49h10M4 50h1M30 50h8M59 50h1M63 50h2M66 50h2M72 50h2M77 50h1M4 51h2M31 51h8M58 51h2M63 51h4M72 51h2M77 51h1M5 52h2M12 52h3M31 52h8M58 52h1M63 52h4M73 52h1M77 52h1M6 53h11M32 53h7M58 53h1M64 53h3M73 53h1M16 54h3M32 54h6M57 54h2M64 54h3M73 54h4M18 55h7M34 55h3M57 55h1M64 55h3M24 56h2M57 56h1M64 56h3M25 57h1M56 57h2M64 57h3M25 58h2M56 58h1M65 58h3M26 59h2M55 59h2M65 59h6M26 60h2M54 60h2M65 60h6M27 61h2M54 61h1M65 61h6M28 62h2M34 62h1M53 62h2M66 62h5M29 63h2M33 63h8M53 63h1M30 64h5M40 64h5M52 64h2M44 65h2M52 65h1M45 66h2M51 66h2M46 67h2M50 67h2M47 68h4" />
<path stroke="#c54a19" d="M39 12h2M39 13h1M39 14h1M38 15h1M38 16h1M38 17h1M38 18h1M42 18h1M38 19h1M42 19h1M37 20h1M42 20h2M37 21h1M42 21h2M37 22h1M42 22h2M37 23h1M43 23h2M46 23h3M28 24h3M41 24h2M50 24h3M27 25h1M36 25h1M40 25h1M53 25h2M26 26h1M31 26h1M55 26h1M26 27h2M40 27h1M43 27h1M56 27h1M32 28h1M56 28h1M25 29h1M32 29h1M39 29h1M44 29h1M56 29h2M24 30h1M32 30h1M44 30h1M56 30h2M24 31h1M27 31h1M32 31h1M44 31h1M55 31h3M23 32h1M27 32h1M31 32h1M33 32h3M43 32h1M54 32h4M23 33h1M28 33h1M36 33h1M39 33h1M43 33h1M53 33h5M37 34h1M42 34h1M52 34h5M25 35h1M32 35h4M38 35h1M52 35h3M57 35h1M25 36h1M30 36h1M51 36h2M55 36h4M53 37h6M38 38h1M51 38h8M32 39h1M51 39h8M30 40h1M51 40h8M29 41h1M51 41h8M28 42h1M51 42h8M51 43h8M27 44h1M51 44h8M7 45h4M51 45h8M6 46h1M51 46h7M5 47h1M7 47h1M10 47h1M51 47h7M14 48h1M45 48h1M51 48h7M12 49h2M15 49h1M45 49h1M51 49h7M7 50h1M11 50h3M15 50h2M45 50h1M50 50h8M10 51h2M16 51h3M45 51h1M50 51h7M17 52h4M23 52h2M27 52h1M45 52h1M50 52h7M19 53h2M22 53h3M44 53h1M49 53h8M28 54h1M44 54h1M49 54h7M26 55h1M29 55h1M43 55h1M48 55h8M27 56h1M30 56h1M42 56h1M48 56h8M27 57h2M31 57h1M41 57h1M47 57h8M28 58h3M34 58h1M39 58h2M45 58h10M30 59h4M43 59h11M29 60h1M32 60h21M30 61h2M35 61h16M31 62h2M41 62h11M47 63h5M48 64h3M48 65h3M49 66h1" />
<path stroke="#ef7329" d="M40 13h1M39 15h1M41 15h1M41 16h1M41 17h1M41 18h1M41 19h1M38 20h1M40 20h2M40 21h2M40 22h2M40 23h3M35 24h1M37 24h4M44 24h6M29 25h3M33 25h3M37 25h3M41 25h1M45 25h8M27 26h2M32 26h1M34 26h5M40 26h5M46 26h9M32 27h6M39 27h1M44 27h12M33 28h7M44 28h12M26 29h1M33 29h6M45 29h11M25 30h2M33 30h6M45 30h11M33 31h6M45 31h10M24 32h1M32 32h1M36 32h3M44 32h10M24 33h4M31 33h2M37 33h2M44 33h9M24 34h8M38 34h2M43 34h9M26 35h5M39 35h13M24 36h1M31 36h20M24 37h7M38 37h13M24 38h14M45 38h4M24 39h8M39 39h6M49 39h2M24 40h6M41 40h10M24 41h5M42 41h9M24 42h4M43 42h8M24 43h4M44 43h7M24 44h3M44 44h7M24 45h3M45 45h6M7 46h1M24 46h3M45 46h6M6 47h1M12 47h2M15 47h1M25 47h2M45 47h6M11 48h3M15 48h3M25 48h2M46 48h5M6 49h1M11 49h1M16 49h4M25 49h2M46 49h5M6 50h1M17 50h4M22 50h2M25 50h2M46 50h4M7 51h3M19 51h3M23 51h1M25 51h2M46 51h4M21 52h1M26 52h1M46 52h4M26 53h2M45 53h4M26 54h2M45 54h4M27 55h2M44 55h4M28 56h2M43 56h5M29 57h2M42 57h5M31 58h3M41 58h4M34 59h9" />
<path stroke="#7b3a21" d="M41 13h1M41 14h1M42 15h1M42 16h1M42 17h1M43 18h1M43 19h1M44 20h1M44 21h1M44 22h5M35 23h2M45 23h1M49 23h4M31 24h1M33 24h2M36 24h1M43 24h1M53 24h2M32 25h1M44 25h1M55 25h1M33 26h1M39 26h1M45 26h1M56 26h1M38 27h1M57 27h1M26 28h1M57 28h1M58 29h1M58 30h1M58 31h1M28 32h1M29 33h2M42 33h1M23 34h1M40 34h2M57 34h1M23 35h2M55 35h2M23 36h1M26 36h4M53 36h2M23 37h1M31 37h7M51 37h2M23 38h1M39 38h6M49 38h2M23 39h1M45 39h4M23 40h1M23 41h1M23 42h1M23 43h1M43 43h1M23 44h1M11 45h2M23 45h1M27 45h1M44 45h1M13 46h3M23 46h1M14 47h1M16 47h2M24 47h1M5 48h1M18 48h2M24 48h1M5 49h1M14 49h1M20 49h3M24 49h1M5 50h1M10 50h1M14 50h1M21 50h1M24 50h1M6 51h1M12 51h1M22 51h1M24 51h1M7 52h1M11 52h1M15 52h2M22 52h1M25 52h1M44 52h1M17 53h2M21 53h1M25 53h1M19 54h2M25 54h1M25 55h1M26 56h1M26 57h1M29 59h1M28 60h1M30 60h1M29 61h1M34 61h1M51 61h2M30 62h1M33 62h1M40 62h1M31 63h2M46 63h1M46 64h2M47 65h1M48 66h1" />
<path stroke="#ffad84" d="M40 14h1M40 15h1M39 16h2M39 17h2M39 18h2M39 19h2M39 20h1M38 21h2M38 22h2M38 23h2M28 25h1M42 25h2M25 31h2M25 32h2M31 35h1M36 35h1M8 46h5M11 47h1M6 48h1" />
<path stroke="#ffffff" d="M29 26h1M28 27h1M30 27h1M42 27h1M28 28h1M31 28h1M41 28h1M27 29h1M40 29h1M43 29h1M31 30h1M43 30h1M31 31h1M39 31h1M30 32h1M39 32h1M40 33h1M15 34h1M32 34h1M34 34h1M14 35h1M37 35h1M13 36h1M10 37h2M9 38h3M9 39h2M9 40h1M32 44h2M67 44h1M31 45h4M68 45h2M31 46h4M69 46h2M32 47h2M70 47h3M71 48h4M74 51h3M74 52h3" />
<path stroke="#bdbdbd" d="M30 26h1M31 27h1M41 27h1M27 28h1M40 28h1M43 28h1M28 31h1M29 32h1M42 32h1M34 33h1M41 33h1M36 34h1" />
<path stroke="#317bef" d="M29 27h1M42 28h1" />
<path stroke="#0842ad" d="M29 28h2M28 29h3M41 29h2M28 30h3M40 30h3M29 31h2M40 31h3M40 32h2" />
<path stroke="#101010" d="M31 29h1M27 30h1M39 30h1M43 31h1M58 32h1M58 33h1M58 34h1M58 35h1M59 36h1M59 37h1M59 38h1M34 39h5M59 39h1M39 40h2M59 40h1M33 41h3M41 41h1M59 41h1M32 42h1M42 42h1M59 42h1M31 43h1M39 43h1M59 43h1M30 44h1M43 44h1M59 44h1M30 45h1M40 45h1M59 45h1M29 46h1M44 46h1M58 46h1M29 47h1M39 47h2M44 47h1M58 47h1M29 48h1M58 48h1M23 49h1M29 49h1M58 49h1M29 50h1M44 50h1M58 50h1M13 51h3M39 51h2M44 51h1M57 51h1M8 52h3M30 52h1M40 52h1M57 52h1M30 53h1M43 53h1M57 53h1M21 54h4M31 54h1M43 54h1M56 54h1M32 55h1M42 55h1M56 55h1M34 56h1M41 56h1M56 56h1M39 57h2M55 57h1M27 58h1M37 58h2M55 58h1M28 59h1M54 59h1M31 60h1M53 60h1M32 61h2M53 61h1M35 62h5M52 62h1M41 63h5M52 63h1M45 64h1M51 64h1M46 65h1M51 65h1M47 66h1M50 66h1M48 67h2" />
<path stroke="#4a4a52" d="M33 33h1M35 33h1M33 34h1M35 34h1M33 39h1M31 40h8M30 41h3M36 41h5M29 42h3M38 42h4M28 43h3M40 43h3M28 44h2M40 44h3M28 45h2M41 45h3M27 46h2M41 46h3M8 47h2M27 47h2M41 47h3M7 48h4M27 48h2M38 48h7M7 49h4M27 49h2M38 49h7M8 50h2M27 50h2M38 50h6M27 51h3M41 51h3M28 52h2M41 52h3M28 53h2M40 53h3M29 54h2M40 54h3M30 55h2M39 55h3M31 56h3M37 56h4M32 57h7M35 58h2" />
<path stroke="#8cbdf7" d="M14 34h1M16 34h1M13 35h1M11 36h1M9 37h1M13 37h1M9 41h1M32 43h2M31 44h1M34 44h1M68 44h1M35 45h1M67 45h1M70 45h1M35 46h1M68 46h1M71 46h1M31 47h1M34 47h1M69 47h1M73 47h1M32 48h2M70 48h1M75 48h1M74 50h3M74 53h3" />
</svg>