<svg xmlns="http://www.w3.org/2000/svg" viewBox="0 -0.5 80 80" shape-rendering="crispEdges">
<metadata>Made with Pixels to Svg https://codepen.io/shshaw/pen/XbxvNj</metadata>
<path stroke="#84848c" d="M29 0h2M28 1h1M36 1h2M27 2h1M27 3h1M26 4h1M31 4h3M35 4h1M25 5h1M34 5h1M24 6h1M33 6h1M60 6h3M32 7h1M45 7h5M63 7h3M30 8h1M21 9h1M21 10h1M20 11h1M20 12h1M20 13h1M34 17h1M23 18h1M26 18h2M33 18h1M27 20h1M25 21h2M23 22h2M22 23h1M26 28h1M15 34h3M14 35h1M14 36h1M13 37h1M25 39h1M24 40h1M50 40h3M54 40h1M31 41h1M64 41h7M31 42h1M71 42h2M18 43h1M73 43h2M25 45h3M28 46h1M22 47h2M13 48h1M21 48h1M13 49h1M14 51h1M14 52h1M38 53h2M37 54h4M36 55h5M36 56h5M37 57h5M38 58h3M38 59h2M41 59h1M56 59h1M40 60h2M55 60h1M39 61h1M41 64h3M40 65h4M40 66h2M43 66h2M56 66h1M43 67h2M44 68h2M44 69h2M44 70h1M44 71h1M44 72h1" />
<path stroke="#b5b5bd" d="M29 1h1M28 2h2M28 3h2M27 4h4M26 5h3M39 5h1M54 5h6M25 6h1M42 6h1M50 6h4M23 7h1M31 7h1M22 8h1M29 8h1M31 8h1M55 8h1M60 8h1M38 9h1M43 9h1M52 9h1M47 10h1M50 10h1M24 15h1M25 16h1M35 16h1M25 17h1M33 17h1M24 18h2M31 18h1M34 18h1M32 19h3M33 20h2M34 21h2M35 22h1M28 23h1M28 24h1M36 24h1M32 25h3M27 26h1M31 26h2M25 27h2M21 28h1M24 28h2M33 28h1M21 29h4M22 30h2M34 30h1M22 31h1M25 31h1M30 31h2M29 32h2M29 33h1M24 35h1M42 36h1M16 38h1M44 38h1M15 39h2M15 40h2M31 40h1M16 41h2M7 42h1M14 42h4M38 42h1M64 42h1M70 42h1M7 43h1M13 43h5M30 43h2M40 43h1M7 44h2M11 44h5M27 44h5M40 44h3M65 44h1M8 45h5M24 45h1M32 45h2M41 45h3M62 45h1M8 46h5M23 46h4M29 46h6M36 46h1M39 46h6M59 46h2M10 47h2M24 47h1M31 47h3M35 47h1M37 47h8M12 48h1M14 48h1M20 48h1M32 48h3M36 48h1M38 48h6M12 49h1M14 49h5M33 49h9M48 49h1M13 50h5M34 50h6M47 50h2M13 51h1M15 51h1M36 51h2M45 51h2M47 53h1M47 54h2M56 54h1M46 55h4M46 56h2M46 57h1M53 60h1M48 61h2M52 61h2M55 61h1M48 62h5M48 63h5M49 64h4M50 65h2" />
<path stroke="#101010" d="M30 1h1M30 2h1M35 2h1M37 2h1M30 3h1M35 3h1M37 3h1M34 4h1M37 4h2M37 5h1M37 6h1M37 7h1M37 8h1M37 9h1M57 9h9M32 10h1M55 10h2M29 11h1M32 11h1M36 11h1M54 11h1M26 12h1M31 12h1M36 12h1M40 12h6M52 12h2M21 13h1M31 13h1M38 13h2M47 13h5M22 14h1M35 14h1M37 14h1M23 15h1M36 15h1M24 16h1M30 16h1M34 16h1M36 16h1M24 17h1M26 17h1M28 17h2M35 17h1M35 18h1M26 19h6M35 19h1M35 20h1M36 21h1M36 22h1M37 23h1M37 24h1M35 25h2M44 25h3M34 26h1M41 26h3M52 26h1M33 27h1M40 27h1M52 27h1M34 28h1M40 28h1M53 28h1M35 29h1M40 29h1M53 29h1M35 30h1M54 30h1M20 31h1M32 31h3M39 31h4M54 31h1M20 32h1M31 32h1M37 32h2M66 32h1M19 33h1M30 33h1M34 33h1M55 33h1M64 33h2M18 34h1M30 34h1M34 34h5M62 34h2M18 35h1M40 35h2M59 35h3M17 36h1M58 36h1M17 37h1M54 37h2M58 37h1M17 38h1M51 38h3M55 38h1M58 38h1M17 39h1M49 39h2M56 39h1M18 40h1M56 40h1M59 40h1M18 41h1M22 41h1M37 41h2M56 41h1M59 41h1M18 42h2M39 42h2M56 42h1M59 42h1M6 43h1M32 43h1M41 43h2M49 43h1M59 43h1M6 44h1M32 44h1M43 44h1M49 44h1M59 44h1M70 44h6M6 45h1M15 45h1M28 45h4M44 45h1M49 45h1M58 45h1M68 45h2M7 46h1M14 46h1M27 46h1M48 46h1M53 46h1M58 46h1M67 46h1M7 47h1M12 47h2M25 47h2M29 47h2M48 47h1M54 47h1M58 47h1M66 47h1M7 48h1M11 48h1M23 48h2M31 48h1M47 48h1M58 48h1M64 48h2M11 49h1M23 49h1M32 49h1M47 49h1M57 49h1M62 49h2M8 50h1M12 50h1M22 50h1M33 50h1M45 50h2M57 50h5M12 51h1M22 51h1M31 51h2M34 51h2M44 51h1M56 51h2M9 52h1M13 52h1M21 52h1M29 52h2M36 52h5M44 52h1M47 52h1M56 52h1M58 52h1M9 53h1M14 53h1M20 53h1M40 53h1M44 53h1M46 53h1M55 53h1M58 53h1M14 54h1M20 54h1M41 54h1M44 54h1M46 54h1M55 54h1M57 54h1M10 55h1M15 55h1M20 55h2M24 55h2M41 55h1M45 55h1M54 55h3M11 56h1M15 56h1M21 56h3M35 56h1M41 56h1M45 56h1M53 56h2M11 57h1M13 57h1M16 57h1M21 57h1M29 57h1M36 57h1M42 57h1M45 57h1M52 57h1M54 57h1M12 58h1M16 58h1M21 58h1M29 58h1M37 58h1M41 58h2M46 58h1M51 58h1M53 58h1M17 59h1M21 59h1M29 59h1M37 59h1M42 59h1M50 59h1M53 59h1M57 59h1M18 60h1M22 60h1M28 60h2M38 60h1M42 60h1M48 60h2M54 60h1M57 60h1M18 61h1M22 61h1M38 61h1M47 61h1M54 61h1M57 61h1M19 62h1M22 62h1M47 62h1M57 62h1M20 63h1M22 63h1M42 63h2M47 63h1M57 63h1M21 64h1M36 64h5M44 64h1M47 64h1M56 64h1M44 65h1M48 65h1M56 65h1M45 66h1M48 66h1M45 67h1M48 67h1M40 68h1M46 68h2M49 68h1M41 69h1M50 69h1M41 70h1M45 70h1M50 70h1M41 71h1M45 71h1M56 71h1M41 72h1M45 72h1M51 72h1M56 72h1M42 73h1M44 73h1M56 73h1M42 74h1M44 74h1M52 74h1M43 75h2M52 75h1M55 75h1M55 76h1M55 77h1M55 78h1M54 79h1" />
<path stroke="#e6e6ef" d="M36 2h1M36 3h1M36 4h1M29 5h5M35 5h2M38 5h1M26 6h7M34 6h3M38 6h4M54 6h6M24 7h7M33 7h4M38 7h7M50 7h13M25 8h4M32 8h5M38 8h17M61 8h5M25 9h12M44 9h8M24 10h7M33 10h4M48 10h2M24 11h5M33 11h3M24 12h2M32 12h4M32 13h4M31 14h4M31 15h4M31 16h3M30 17h3M28 18h3M28 20h5M27 21h7M25 22h10M23 23h5M29 23h8M22 24h6M29 24h7M22 25h10M21 26h6M28 26h3M21 27h4M27 27h5M22 28h2M27 28h6M26 29h9M26 30h8M26 31h4M25 32h4M25 33h4M25 34h5M15 35h3M25 35h6M32 35h8M15 36h2M24 36h8M33 36h9M14 37h3M24 37h20M14 38h2M24 38h20M12 39h2M24 39h1M26 39h11M42 39h3M10 40h5M25 40h6M32 40h4M45 40h1M49 40h1M53 40h1M8 41h8M23 41h8M32 41h5M49 41h7M8 42h6M22 42h9M32 42h6M50 42h6M65 42h5M8 43h5M20 43h10M33 43h7M50 43h6M60 43h13M9 44h2M18 44h9M33 44h7M50 44h5M60 44h5M13 45h2M16 45h8M34 45h7M50 45h5M59 45h3M13 46h1M15 46h8M35 46h1M37 46h2M49 46h4M14 47h8M34 47h1M36 47h1M49 47h5M15 48h5M22 48h1M35 48h1M37 48h1M48 48h7M19 49h4M49 49h5M18 50h4M49 50h5M16 51h6M48 51h5M15 52h6M48 52h4M57 52h1M16 53h4M48 53h3M56 53h2M17 54h3M49 54h2M18 55h2M19 56h2M19 57h2M53 57h1M20 58h1M52 58h1M20 59h1M51 59h2M50 60h3M56 60h1M50 61h2M56 61h1M54 62h3M54 63h3M48 64h1M53 64h3M49 65h1M52 65h4M49 66h7M49 67h3M53 67h4M50 68h1M53 68h4M54 69h3M54 70h3M54 71h2M55 72h1M55 73h1" />
<path stroke="#5a5a63" d="M40 5h2M43 6h2M66 8h1M38 19h1M33 26h1M32 27h1M31 34h3M31 35h1M32 36h1M12 38h2M10 39h2M14 39h1M8 40h2M7 41h1M6 42h1M60 42h4M7 45h1M8 49h1M9 51h1M37 53h1M10 54h1M36 54h1M13 55h1M35 55h1M13 56h1M40 59h1M39 60h1M39 65h1M39 66h1M40 67h1" />
<path stroke="#b55221" d="M23 8h1M22 9h2M22 10h1M21 11h2M21 12h2" />
<path stroke="#6b1908" d="M24 8h1M24 9h1M23 10h1M39 24h2M37 25h1M40 25h2M35 26h3M40 26h1M34 27h2M38 27h2M38 28h2M55 28h1M38 29h2M38 30h2M38 31h1M35 33h1M40 34h1M60 34h2M50 38h1M48 39h1M47 40h1M58 40h1M47 41h1M41 42h1M46 42h3M43 43h1M46 43h3M44 44h5M47 45h2M46 46h2M57 46h1M9 47h1M46 47h2M57 47h1M8 48h2M25 48h2M45 48h2M57 48h1M9 49h2M25 49h2M31 49h1M44 49h3M9 50h3M25 50h2M29 50h4M42 50h3M56 50h1M10 51h2M25 51h6M39 51h5M10 52h3M25 52h1M28 52h1M41 52h3M10 53h4M15 53h1M24 53h2M41 53h3M11 54h3M16 54h1M25 54h3M42 54h2M11 55h2M26 55h2M42 55h3M53 55h1M12 56h1M28 56h1M42 56h1M44 56h1M12 57h1M45 59h1M45 65h1M46 67h1M51 68h2M51 69h2M51 70h2M52 71h2M52 72h2M53 73h1M53 74h1" />
<path stroke="#5a6373" d="M56 8h4M42 9h1M53 9h4M31 10h1M39 10h8M51 10h4M30 11h2M37 11h2M43 11h10M39 12h1M47 12h4M22 13h4M30 13h1M36 13h2M29 14h2M36 14h1M25 15h3M35 15h1M27 17h1M21 24h1M21 25h1M20 26h1M19 35h1M19 36h2M22 36h2M19 37h2M22 37h2M19 38h2M22 38h2M19 39h2M22 39h2M17 40h1M19 40h3M23 40h1M19 41h3M63 45h1M54 46h1M61 46h3M59 47h6M59 48h5M58 49h4M47 51h1M45 52h2M45 53h1M45 54h1M57 67h1M57 68h1M57 69h1M57 70h1M55 74h2" />
<path stroke="#3a4252" d="M39 9h3M37 10h2M39 11h4M53 11h1M30 12h1M37 12h2M46 12h1M51 12h1M23 14h4M30 15h1M26 16h2M32 18h1M23 19h3M20 27h1M20 28h1M20 29h1M25 29h1M21 30h1M24 30h1M21 31h1M23 31h2M23 32h1M22 33h1M22 34h1M21 35h1M18 36h1M21 36h1M18 37h1M21 37h1M18 38h1M21 38h1M18 39h1M21 39h1M22 40h1M20 42h2M19 43h1M16 44h2" />
<path stroke="#5a1000" d="M23 11h1M23 12h1M37 20h1M39 20h1M37 21h1M39 21h1M37 22h1M40 22h1M40 23h7M38 24h1M47 24h1M52 25h2M54 26h1M36 27h2M55 27h1M35 28h1M37 28h1M56 28h1M37 29h1M56 29h1M37 30h1M40 30h1M57 30h1M37 31h1M57 31h1M62 31h4M36 32h1M43 32h1M55 32h1M58 32h4M44 33h1M39 34h1M44 34h1M53 34h2M42 35h1M45 35h1M51 35h2M43 36h1M46 36h1M48 36h3M44 37h1M47 37h1M53 37h1M45 38h1M56 38h1M37 39h5M45 39h1M58 39h1M36 40h1M42 40h3M46 40h1M48 40h1M55 40h1M45 41h2M48 41h1M49 42h1M56 43h1M55 44h1M45 45h2M55 45h1M45 46h1M55 46h1M8 47h1M27 47h1M45 47h1M55 47h1M10 48h1M27 48h1M44 48h1M55 48h1M24 49h1M27 49h1M29 49h2M42 49h2M54 49h1M24 50h1M27 50h2M40 50h2M54 50h1M24 51h1M38 51h1M53 51h1M24 52h1M52 52h1M23 53h1M28 53h1M51 53h1M22 54h1M28 54h1M51 54h1M17 55h1M28 55h1M50 55h1M18 56h1M26 56h1M29 56h1M48 56h2M18 57h1M26 57h1M47 57h1M19 58h1M27 58h1M45 58h1M19 59h1M27 59h1M49 59h1M20 60h2M40 61h2M37 62h3M36 63h1M41 63h1M42 66h1M41 67h2M52 67h1M41 68h3M42 69h2M53 69h1M42 70h2M53 70h1M42 71h2M51 71h1M42 72h2M54 72h1M43 73h1M52 73h1M54 73h1M43 74h1M53 76h1M53 77h1M53 78h1" />
<path stroke="#c5003a" d="M27 12h1M27 13h1" />
<path stroke="#efb500" d="M28 12h2M26 13h1M28 13h1M28 15h2M28 16h2M38 25h1M38 26h1M56 34h2M26 52h2M26 53h2M44 60h2M45 61h1" />
<path stroke="#b57300" d="M29 13h1M27 14h2M39 25h1M39 26h1M55 34h1M55 35h3M44 61h1M44 62h2" />
<path stroke="#9c3a21" d="M38 20h1M38 21h1M38 22h2M38 23h2M41 24h6M42 25h2M53 26h1M53 27h2M54 28h1M54 29h2M55 30h2M55 31h2M39 32h4M56 32h2M62 32h4M36 33h8M56 33h8M41 34h3M58 34h2M43 35h2M53 35h2M58 35h1M44 36h2M51 36h7M45 37h2M48 37h5M56 37h2M46 38h4M57 38h1M46 39h2M57 39h1M37 40h5M57 40h1M39 41h6M57 41h2M42 42h4M57 42h2M44 43h2M57 43h2M56 44h3M56 45h2M56 46h1M56 47h1M56 48h1M55 49h2M55 50h1M54 51h2M53 52h3M52 53h3M15 54h1M23 54h2M52 54h3M16 55h1M22 55h2M51 55h2M16 56h2M27 56h1M43 56h1M50 56h3M17 57h1M27 57h2M43 57h2M48 57h4M17 58h2M28 58h1M43 58h2M47 58h4M18 59h1M28 59h1M43 59h2M46 59h3M19 60h1M43 60h1M46 60h2M19 61h3M42 61h2M46 61h1M20 62h2M40 62h4M46 62h1M21 63h1M37 63h4M44 63h3M45 64h2M46 65h2M46 66h2M47 67h1M54 74h1M53 75h2M54 76h1M54 77h1M54 78h1" />
<path stroke="#7b8494" d="M25 30h1M21 32h2M24 32h1M20 33h2M23 33h2M19 34h3M23 34h2M20 35h1M22 35h2M66 44h4M64 45h4M64 46h3M65 47h1M53 62h1M53 63h1" />
</svg>