<svg xmlns="http://www.w3.org/2000/svg" viewBox="0 -0.5 80 80" shape-rendering="crispEdges">
<metadata>Made with Pixels to Svg https://codepen.io/shshaw/pen/XbxvNj</metadata>
<path stroke="#634a84" d="M47 4h3M46 5h1M50 5h1M48 6h1M51 6h2M42 7h1M44 7h1M51 7h1M53 7h1M41 8h1M45 8h1M53 8h1M41 11h1M56 11h2M40 12h1M59 12h1M45 13h1M25 16h4M51 16h1M22 17h2M29 17h1M19 18h2M53 18h1M64 18h1M18 19h1M65 19h1M17 20h1M29 20h1M54 20h1M65 20h1M16 21h1M30 21h1M35 21h1M61 21h1M19 22h1M27 22h1M30 22h1M36 22h3M61 22h1M64 22h1M15 23h1M20 23h1M25 23h1M28 23h1M30 23h1M39 23h2M47 23h1M52 23h1M61 23h1M63 23h2M23 24h1M25 24h1M28 24h1M47 24h1M56 24h2M14 25h1M25 25h1M51 25h1M57 25h1M63 25h1M22 26h1M46 26h1M57 26h1M13 27h1M22 27h1M13 28h1M27 28h2M48 28h1M50 28h1M61 28h1M13 29h1M25 29h2M31 29h1M35 29h1M49 29h1M12 30h1M49 30h1M51 30h1M12 31h1M37 31h1M49 31h1M51 31h1M22 32h1M34 32h1M39 32h1M43 32h2M54 32h1M17 33h1M35 33h1M41 33h2M53 33h1M13 34h1M17 34h1M21 34h1M38 34h1M45 34h2M52 34h1M18 35h1M20 35h1M39 35h1M52 35h1M15 36h1M51 36h1M51 37h1M19 38h1M29 38h1M51 38h1M22 39h1M27 39h3M51 39h1M26 40h1M50 40h1M50 41h1M40 42h1M40 43h1M49 43h1M40 44h1M49 44h2M32 45h2M48 45h1M34 46h3M38 46h5M44 46h4M47 47h2M29 49h4M27 50h1M34 50h1M26 51h1M50 51h1M25 52h1M50 52h1M36 53h1M48 53h1M34 54h1M36 54h1M46 54h1M23 55h1M34 55h1M36 55h2M45 55h1M23 56h1M35 56h2M45 56h1M24 57h1M26 57h1M35 57h1M38 57h1M43 57h1M46 57h1M55 57h1M26 58h1M43 58h1M46 58h1M25 59h1M27 59h1M47 59h1M56 59h1M27 60h1M37 60h1M47 60h1M57 60h1M43 61h1M57 61h1M28 62h1M33 62h1M43 62h1M57 62h1M28 63h1M33 63h1M42 63h3M58 63h1M42 64h5M58 64h1M27 65h1M42 65h2M45 65h3M58 65h1M25 66h2M43 66h2M46 66h1M24 67h1M43 67h1M46 67h1M23 68h1M25 68h1M27 68h1M29 68h1M31 68h1M51 68h1M24 69h1M26 69h1" />
<path stroke="#000000" d="M44 5h2M43 6h1M47 6h1M43 7h1M52 8h1M40 9h1M53 9h2M40 10h1M42 10h3M55 10h1M40 13h1M43 13h2M60 13h1M41 14h2M46 14h2M61 14h1M48 15h3M62 15h1M63 16h1M52 17h1M64 17h1M30 18h1M31 19h1M53 19h1M32 20h1M32 21h1M54 21h1M65 21h1M31 22h1M53 22h2M65 22h1M21 23h1M31 23h1M34 23h1M55 23h1M22 24h1M30 24h1M34 24h1M51 24h1M64 24h1M22 25h1M28 25h2M33 25h1M36 25h3M47 25h2M23 26h2M26 26h2M32 26h2M38 26h2M49 26h2M62 26h1M31 27h1M33 27h1M37 27h1M40 27h1M46 27h1M50 27h1M62 27h1M23 28h1M29 28h2M32 28h1M37 28h1M23 29h2M32 29h1M61 29h1M23 30h1M35 30h1M60 30h1M22 31h1M36 31h1M60 31h1M12 32h1M38 32h1M45 32h2M48 32h1M59 32h1M12 33h1M21 33h1M40 33h1M47 33h1M57 33h2M36 34h2M56 34h1M13 35h1M40 35h5M55 35h1M14 36h1M55 36h1M16 37h2M55 37h1M18 38h1M54 38h1M20 39h2M54 39h1M23 40h3M29 40h1M53 40h1M27 41h3M53 41h1M30 42h1M52 42h1M30 43h1M51 43h1M31 44h1M31 45h1M50 45h1M32 46h1M50 46h1M33 47h4M44 47h3M49 47h2M33 48h1M50 48h1M33 49h1M35 49h1M45 49h1M50 49h1M35 50h1M45 50h1M50 50h1M45 51h1M49 51h1M51 51h1M44 52h6M51 52h1M37 53h1M39 53h3M46 53h2M52 53h1M37 54h1M45 54h1M53 54h1M38 55h1M42 55h3M54 55h1M38 56h6M55 56h1M39 57h4M24 58h1M35 58h1M39 58h4M56 58h1M35 59h1M38 59h6M26 60h1M35 60h1M38 60h1M42 60h2M27 61h1M34 61h3M42 61h1M44 61h1M34 62h1M42 62h1M44 62h1M34 63h1M41 63h1M45 63h1M28 64h1M34 64h1M41 64h1M34 65h1M41 65h1M44 65h1M35 66h1M42 66h1M45 66h1M47 66h1M58 66h1M35 67h1M42 67h1M45 67h1M48 67h1M57 67h1M35 68h1M43 68h2M46 68h2M49 68h2M56 68h1M23 69h1M28 69h1M31 69h1M35 69h1M52 69h4M24 70h4M29 70h2M32 70h3" />
<path stroke="#a58cce" d="M47 5h1M44 6h3M45 7h1M42 8h3M41 9h3M49 9h1M41 10h1M50 10h1M44 11h1M41 12h1M41 13h2M52 13h1M51 14h1M26 18h2M29 18h1M28 19h1M62 20h2M19 21h1M29 22h1M55 22h1M60 22h1M53 23h1M56 23h1M24 24h1M26 24h1M55 24h1M58 24h2M56 26h1M56 27h1M22 28h1M31 28h1M55 28h1M22 29h1M22 30h1M54 30h1M33 31h1M50 31h1M52 31h2M13 32h1M27 32h1M33 32h1M47 32h1M49 32h4M32 33h3M48 33h4M20 34h1M22 34h1M28 34h1M31 34h1M34 34h2M47 34h5M17 35h1M19 35h1M23 35h6M45 35h2M48 35h4M16 36h2M28 36h2M43 36h1M49 36h2M39 37h2M50 37h1M30 38h1M40 38h1M50 38h1M40 39h1M50 39h1M49 40h1M30 41h1M40 41h1M48 41h1M31 42h2M38 42h2M41 42h2M46 42h2M33 43h6M42 43h5M28 51h1M24 55h1M32 55h1M24 56h1M25 57h1M28 59h2M34 59h1M53 59h2M32 60h2M51 60h2M55 60h2M46 61h2M50 61h1M46 62h2M47 63h1M57 63h1M29 64h3M57 64h1M33 65h1M57 65h1M34 66h1M49 66h1M51 66h1M57 66h1M25 67h6M34 67h1M56 67h1M34 68h1M54 68h2" />
<path stroke="#8c73b5" d="M48 5h2M46 7h2M52 7h1M48 9h1M54 10h1M42 11h1M44 12h1M58 12h1M54 13h1M59 13h1M55 14h1M51 15h1M24 17h1M21 18h1M29 19h2M30 20h2M64 20h1M27 21h1M31 21h1M62 21h3M28 22h1M35 22h1M62 22h2M22 23h1M29 23h1M35 23h4M46 23h1M57 23h1M60 23h1M62 23h1M27 24h1M29 24h1M35 24h2M60 24h4M23 25h2M26 25h2M34 25h2M41 25h1M58 25h5M34 26h2M43 26h1M48 26h1M58 26h4M32 27h1M34 27h2M48 27h2M57 27h5M33 28h4M40 28h1M43 28h4M49 28h1M56 28h5M30 29h1M33 29h2M50 29h1M55 29h6M32 30h3M43 30h1M46 30h1M50 30h1M55 30h5M26 31h1M34 31h2M54 31h6M17 32h1M26 32h1M35 32h3M53 32h1M55 32h4M13 33h1M27 33h1M36 33h4M43 33h4M52 33h1M54 33h3M27 34h1M32 34h2M39 34h6M53 34h3M21 35h2M31 35h1M34 35h5M53 35h2M18 36h10M30 36h1M37 36h6M52 36h3M18 37h13M52 37h3M20 38h9M52 38h2M23 39h4M52 39h2M27 40h2M51 40h2M49 41h1M51 41h2M48 42h4M31 43h2M39 43h1M41 43h1M47 43h2M50 43h1M32 44h8M41 44h8M34 45h14M49 45h1M33 46h1M37 46h1M43 46h1M48 46h2M28 50h1M32 50h2M34 51h1M34 52h2M24 53h1M26 53h1M35 53h1M49 53h3M24 54h1M26 54h1M35 54h1M47 54h6M25 55h1M33 55h1M35 55h1M46 55h8M25 56h1M32 56h1M34 56h1M37 56h1M44 56h1M46 56h9M31 57h1M36 57h2M44 57h2M47 57h8M25 58h1M31 58h1M36 58h3M44 58h2M47 58h9M26 59h1M30 59h2M36 59h2M44 59h3M48 59h5M55 59h1M28 60h4M34 60h1M36 60h1M44 60h3M48 60h3M28 61h6M45 61h1M48 61h2M29 62h4M45 62h1M49 62h1M29 63h4M46 63h1M32 64h2M47 64h1M48 65h1M48 66h1M32 67h2M44 67h1M47 67h1M49 67h1M52 67h1M24 68h1M52 68h2M25 69h1M27 69h1M29 69h2M32 69h3" />
<path stroke="#bd9ce6" d="M49 6h2M48 7h3M46 8h6M44 9h4M50 9h3M45 10h5M51 10h3M43 11h1M45 11h11M42 12h2M45 12h13M46 13h6M53 13h1M55 13h1M58 13h1M48 14h3M52 14h3M56 14h1M60 14h1M52 15h4M57 15h2M61 15h1M52 16h5M59 16h1M62 16h1M25 17h4M53 17h5M60 17h1M63 17h1M22 18h4M28 18h1M54 18h5M61 18h1M63 18h1M19 19h9M54 19h6M61 19h4M18 20h11M55 20h7M18 21h1M20 21h7M28 21h2M55 21h6M18 22h1M20 22h7M56 22h4M17 23h3M23 23h2M26 23h2M58 23h2M16 24h2M19 24h3M37 24h4M46 24h1M52 24h1M16 25h1M18 25h4M39 25h2M46 25h1M54 25h1M15 26h2M18 26h4M40 26h2M45 26h1M51 26h1M53 26h1M15 27h1M17 27h5M41 27h5M51 27h3M55 27h1M14 28h2M17 28h5M41 28h2M47 28h1M51 28h2M54 28h1M14 29h1M16 29h6M27 29h3M36 29h6M46 29h3M51 29h2M54 29h1M13 30h2M16 30h6M26 30h6M36 30h7M44 30h2M47 30h2M52 30h2M13 31h2M16 31h6M23 31h3M27 31h6M38 31h11M14 32h1M16 32h1M18 32h4M25 32h1M28 32h5M40 32h3M14 33h3M18 33h3M23 33h1M26 33h1M28 33h4M14 34h3M18 34h2M23 34h4M29 34h2M14 35h3M29 35h2M32 35h2M47 35h1M31 36h6M44 36h5M31 37h8M41 37h9M31 38h9M41 38h9M30 39h10M41 39h9M30 40h19M31 41h9M41 41h7M33 42h5M43 42h3M29 50h3M27 51h1M29 51h5M26 52h8M25 53h1M27 53h1M30 53h5M25 54h1M30 54h4M26 55h1M29 55h3M26 56h6M33 56h1M27 57h4M32 57h3M27 58h4M32 58h3M32 59h2M53 60h2M51 61h6M48 62h1M50 62h7M48 63h9M48 64h9M28 65h5M49 65h8M27 66h7M50 66h1M52 66h5M31 67h1M50 67h2M53 67h3" />
<path stroke="#c50000" d="M56 13h2M59 14h1M60 15h1M58 16h1M61 16h1M59 17h1M62 17h1M60 18h1M62 18h1M17 22h1M18 24h1M53 24h1M15 25h1M52 25h1M55 25h1M17 26h1M37 26h1M52 26h1M54 26h1M14 27h1M38 27h1M54 27h1M16 28h1M53 28h1M53 29h1M24 30h1M15 31h1M15 32h1M23 32h2M24 33h2M40 47h1M40 48h1" />
<path stroke="#9c3a7b" d="M57 14h2M56 15h1M59 15h1M57 16h1M60 16h1M58 17h1M61 17h1M59 18h1M60 19h1M17 21h1M16 22h1M16 23h1M54 23h1M15 24h1M54 24h1M17 25h1M53 25h1M56 25h1M14 26h1M47 26h1M55 26h1M16 27h1M47 27h1M38 28h1M15 29h1M15 30h1M25 30h1M22 33h1" />
<path stroke="#523a00" d="M39 17h3M36 18h3M42 18h3M35 19h1M45 19h1M35 20h1M34 22h1M41 24h1M45 24h1M45 25h1M42 26h1M44 26h1M37 47h1M43 47h1M35 48h1M45 48h1M35 51h1M36 52h2M43 52h1" />
<path stroke="#cebd63" d="M39 18h2M40 19h1M43 19h1M36 20h2M41 20h1M44 20h1M36 21h3M42 21h1M39 22h2M43 23h1M45 23h1M39 47h1M41 47h1M38 48h1M42 48h1M44 48h1M37 49h1M43 49h1M47 49h1M37 50h1M43 50h1M47 50h1M36 51h1M38 51h1M42 51h1M44 51h1M39 52h3" />
<path stroke="#847329" d="M41 18h1M39 19h1M42 19h1M40 20h1M43 20h1M46 20h1M41 21h1M44 21h1M46 21h1M42 22h1M44 22h1M46 22h1M42 23h1M43 24h1M43 25h1M38 47h1M42 47h1M37 48h1M43 48h1M36 49h1M39 49h1M41 49h1M44 49h1M49 49h1M36 50h1M39 50h1M41 50h1M44 50h1M37 51h1M40 51h1M43 51h1M38 52h1M42 52h1" />
<path stroke="#efe68c" d="M36 19h3M41 19h1M44 19h1M38 20h2M42 20h1M45 20h1M39 21h2M43 21h1M45 21h1M41 22h1M43 22h1M45 22h1M41 23h1M44 23h1M42 24h1M44 24h1M42 25h1M44 25h1M36 48h1M39 48h1M41 48h1M38 49h1M40 49h1M42 49h1M38 50h1M40 50h1M42 50h1M39 51h1M41 51h1" />
<path stroke="#cedeef" d="M36 26h1M39 27h1" />
<path stroke="#ffffff" d="M36 27h1M39 28h1" />
<path stroke="#cebde6" d="M42 29h4M28 53h2M27 54h3M27 55h2M26 68h1M28 68h1M30 68h1M32 68h2" />
<path stroke="#4a4a63" d="M34 48h1M46 48h4M34 49h1M46 49h1M48 49h1M46 50h1M48 50h2M46 51h3M38 53h1M42 53h4M38 54h7M39 55h3" />
</svg>