<svg xmlns="http://www.w3.org/2000/svg" viewBox="0 -0.5 96 96" shape-rendering="crispEdges">
<metadata>Made with Pixels to Svg https://codepen.io/shshaw/pen/XbxvNj</metadata>
<path stroke="#d63129" d="M48 37h2M55 37h1M45 38h1M58 38h1M43 39h1M35 42h1M35 44h1M27 45h1M34 45h1M52 45h1M34 46h1M53 46h1M26 47h1M34 47h1M54 47h1M64 47h1M35 48h1M55 48h1M55 49h1M25 50h1M55 50h1M64 50h1M56 51h1M56 52h1M57 53h2M57 54h6M54 55h2M57 55h11M53 56h3M57 56h7M53 57h3M57 57h3M53 58h3M57 58h1M52 59h5M52 60h5M59 60h2M43 61h1M52 61h5M58 61h1M60 61h3M51 62h6M58 62h2M61 62h2M51 63h6M58 63h3M62 63h2M42 64h1M51 64h6M58 64h3M62 64h3M51 65h5M57 65h2M63 65h3M50 66h1M52 66h4M63 66h4M49 67h1M51 67h5M61 67h1M63 67h4M50 68h1M52 68h4M60 68h1M62 68h1M64 68h4M49 69h1M51 69h5M61 69h1M64 69h4M46 70h1M48 70h1M50 70h1M52 70h3M62 70h1M64 70h5M45 71h1M47 71h1M49 71h1M51 71h4M61 71h1M63 71h7" />
<path stroke="#000000" d="M50 37h5M46 38h2M56 38h2M44 39h1M59 39h2M34 40h3M42 40h1M61 40h1M32 41h2M37 41h1M41 41h1M62 41h1M30 42h2M37 42h1M40 42h1M63 42h1M29 43h1M36 43h1M39 43h1M64 43h1M28 44h1M36 44h1M38 44h1M51 44h4M64 44h1M37 45h1M49 45h2M55 45h2M65 45h1M27 46h1M37 46h1M48 46h1M57 46h1M62 46h2M65 46h1M36 47h1M47 47h1M58 47h1M62 47h1M66 47h1M26 48h1M36 48h1M46 48h1M58 48h1M63 48h2M66 48h1M26 49h1M35 49h1M46 49h1M58 49h1M63 49h2M67 49h1M35 50h1M45 50h1M57 50h1M63 50h1M68 50h1M25 51h1M34 51h1M45 51h1M57 51h1M68 51h1M25 52h1M34 52h1M44 52h1M57 52h1M69 52h1M25 53h1M33 53h1M44 53h1M56 53h1M67 53h1M69 53h1M25 54h1M33 54h1M44 54h1M56 54h1M69 54h1M25 55h1M32 55h1M44 55h1M56 55h1M68 55h1M26 56h1M32 56h1M43 56h1M56 56h1M64 56h4M26 57h1M31 57h1M43 57h1M56 57h1M60 57h4M26 58h1M31 58h1M43 58h1M56 58h1M58 58h2M26 59h1M31 59h1M43 59h1M57 59h4M27 60h1M30 60h1M43 60h1M57 60h2M61 60h2M27 61h1M30 61h1M57 61h1M59 61h1M63 61h2M27 62h1M29 62h1M42 62h1M57 62h1M60 62h1M65 62h1M27 63h1M29 63h1M42 63h1M57 63h1M61 63h1M66 63h1M28 64h1M57 64h1M61 64h1M67 64h1M27 65h1M41 65h1M56 65h1M59 65h4M68 65h1M26 66h1M56 66h7M68 66h1M26 67h1M56 67h2M59 67h2M62 67h1M69 67h1M25 68h1M56 68h2M59 68h1M61 68h1M63 68h1M69 68h1M25 69h1M56 69h1M58 69h1M60 69h1M62 69h2M70 69h1M24 70h1M55 70h1M58 70h1M60 70h2M63 70h1M70 70h1M24 71h1M55 71h1M59 71h2M62 71h1M70 71h1" />
<path stroke="#ff5294" d="M48 38h1M52 38h4M45 39h2M53 39h6M43 40h3M52 40h9M42 41h5M50 41h12M32 42h3M41 42h22M30 43h6M40 43h24M30 44h5M39 44h12M55 44h9M29 45h1M31 45h3M38 45h11M51 45h1M57 45h8M28 46h1M30 46h4M38 46h10M49 46h4M58 46h4M64 46h1M27 47h1M29 47h5M37 47h10M48 47h6M59 47h3M65 47h1M28 48h1M30 48h5M37 48h9M47 48h8M59 48h4M65 48h1M27 49h1M29 49h6M36 49h10M48 49h7M59 49h4M65 49h2M26 50h9M36 50h9M47 50h1M49 50h6M58 50h5M65 50h3M26 51h8M35 51h10M46 51h1M48 51h1M50 51h6M58 51h10M26 52h8M35 52h9M45 52h1M47 52h1M49 52h7M58 52h11M26 53h7M34 53h10M46 53h1M48 53h8M59 53h8M68 53h1M26 54h7M34 54h10M45 54h1M47 54h9M63 54h6M26 55h6M33 55h11M45 55h9M27 56h5M33 56h10M44 56h9M27 57h4M32 57h11M44 57h9M27 58h4M32 58h11M44 58h9M27 59h4M32 59h11M44 59h8M28 60h2M31 60h12M44 60h8M28 61h2M31 61h12M44 61h8M28 62h1M30 62h12M43 62h8M63 62h2M28 63h1M30 63h12M43 63h8M64 63h2M29 64h13M43 64h8M65 64h2M28 65h1M31 65h10M42 65h9M66 65h2M27 66h1M32 66h18M51 66h1M67 66h1M32 67h17M50 67h1M67 67h2M27 68h1M29 68h1M31 68h19M51 68h1M68 68h1M26 69h1M28 69h1M30 69h1M32 69h17M50 69h1M57 69h1M68 69h2M25 70h1M27 70h1M29 70h1M31 70h15M47 70h1M49 70h1M51 70h1M56 70h2M69 70h1M25 71h2M28 71h1M30 71h15M46 71h1M48 71h1M50 71h1M56 71h3" />
<path stroke="#ffffff" d="M49 38h3M47 39h6M46 40h6M34 41h3M47 41h3M36 42h1M29 44h1M28 45h1M30 45h1M53 45h2M29 46h1M54 46h3M28 47h1M55 47h3M63 47h1M27 48h1M29 48h1M56 48h2M28 49h1M47 49h1M56 49h2M46 50h1M48 50h1M56 50h1M47 51h1M49 51h1M46 52h1M48 52h1M45 53h1M47 53h1M46 54h1M29 65h2M28 66h4M27 67h5M26 68h1M28 68h1M30 68h1M27 69h1M29 69h1M31 69h1M26 70h1M28 70h1M30 70h1M27 71h1M29 71h1" />
</svg>