<svg xmlns="http://www.w3.org/2000/svg" viewBox="0 -0.5 96 96" shape-rendering="crispEdges">
<metadata>Made with Pixels to Svg https://codepen.io/shshaw/pen/XbxvNj</metadata>
<path stroke="#425a84" d="M51 32h1M48 33h1M45 34h1M53 34h2M64 34h1M68 34h1M42 35h1M50 35h2M55 35h2M59 35h1M39 36h1M47 36h2M69 36h1M36 37h1M44 37h2M67 37h1M70 37h1M34 38h1M41 38h3M57 38h3M62 38h1M65 38h2M32 39h1M38 39h4M54 39h2M63 39h3M33 40h1M39 40h1M50 40h4M63 40h2M46 41h5M64 41h1M37 42h1M42 42h6M51 42h1M61 42h1M63 42h1M39 43h4M39 45h1M41 45h1M43 45h1M45 45h1M64 45h2M40 46h1M42 46h1M44 46h1M65 46h1M37 47h1M41 47h1M65 47h2M66 48h1M48 50h1M48 51h1M49 52h1M48 60h1M64 63h1M31 64h1M64 64h1M29 65h1M37 65h1M46 65h1M64 65h1M67 65h1M27 66h1M38 66h2M63 66h1M26 67h1M36 67h6M45 67h1M63 67h1M25 68h1M34 68h5M63 68h1M68 68h1M33 69h1M35 69h1M37 69h1M62 69h1M32 70h1M34 70h1M36 70h1M61 70h1M31 71h1M33 71h1M35 71h1M46 71h1M61 71h1" />
<path stroke="#000000" d="M52 32h2M49 33h2M54 33h1M46 34h2M55 34h2M65 34h3M43 35h2M52 35h3M57 35h2M60 35h4M69 35h1M40 36h2M49 36h2M56 36h4M70 36h1M37 37h2M46 37h2M58 37h3M68 37h2M35 38h1M44 38h2M60 38h2M67 38h1M33 39h1M42 39h2M56 39h7M66 39h1M34 40h5M40 40h2M54 40h3M59 40h1M61 40h2M65 40h1M38 41h2M51 41h3M55 41h1M59 41h3M63 41h1M65 41h1M36 42h1M48 42h3M55 42h1M60 42h1M64 42h1M35 43h1M43 43h6M56 43h1M60 43h1M64 43h1M36 44h12M57 44h2M64 44h2M40 45h1M42 45h1M44 45h1M46 45h2M66 45h2M38 46h2M41 46h1M43 46h1M47 46h1M68 46h1M38 47h3M47 47h1M68 47h1M48 48h1M65 48h1M67 48h1M48 49h1M65 49h2M64 50h1M64 51h1M64 52h1M49 53h1M64 53h1M49 54h1M64 54h1M49 55h1M64 55h1M49 56h1M64 56h1M49 57h1M65 57h1M49 58h1M65 58h1M49 59h1M65 59h1M65 60h1M48 61h1M65 61h1M48 62h1M65 62h1M47 63h1M66 63h1M32 64h5M47 64h1M66 64h1M30 65h1M38 65h2M28 66h1M36 66h2M40 66h2M46 66h1M67 66h1M34 67h2M42 67h1M67 67h1M33 68h1M39 68h2M43 68h2M25 69h1M32 69h1M38 69h1M44 69h1M68 69h1M24 70h1M31 70h1M37 70h1M45 70h2M68 70h1M24 71h1M30 71h1M36 71h1M47 71h3M68 71h1" />
<path stroke="#ffffff" d="M51 33h2M48 34h2M45 35h2M64 35h4M42 36h2M51 36h4M61 36h5M39 37h2M48 37h5M62 37h2M36 38h2M46 38h4M34 39h1M44 39h3M42 40h2M57 40h2M60 40h1M40 41h2M56 41h3M38 42h1M56 42h4M36 43h1M57 43h3M67 46h1M50 48h2M49 49h4M49 50h4M49 51h5M50 52h4M50 53h4M50 54h4M50 55h4M50 56h4M50 57h3M50 58h2M53 58h1M50 59h1M52 59h1M49 60h1M51 60h1M50 61h1M52 61h1M49 62h1M51 62h1M50 63h1M65 63h1M65 64h1M31 65h4M65 65h2M29 66h4M64 66h3M27 67h3M31 67h1M64 67h3M26 68h1M28 68h1M30 68h1M41 68h2M64 68h4M27 69h1M29 69h1M39 69h5M63 69h5M26 70h1M38 70h4M43 70h1M62 70h6M25 71h1M37 71h2M40 71h1M42 71h1M62 71h6" />
<path stroke="#5aadff" d="M53 33h1M50 34h3M47 35h3M68 35h1M44 36h3M55 36h1M60 36h1M66 36h3M41 37h3M53 37h5M61 37h1M64 37h3M38 38h3M50 38h7M63 38h2M35 39h3M47 39h7M44 40h6M42 41h4M54 41h1M62 41h1M39 42h3M52 42h3M62 42h1M37 43h2M49 43h7M61 43h3M48 44h9M59 44h5M48 45h16M48 46h17M66 46h1M48 47h17M67 47h1M49 48h1M52 48h13M53 49h12M53 50h11M54 51h10M54 52h10M54 53h10M54 54h10M54 55h10M54 56h10M53 57h12M52 58h1M54 58h11M51 59h1M53 59h12M50 60h1M52 60h13M49 61h1M51 61h1M53 61h12M50 62h1M52 62h13M48 63h2M51 63h13M48 64h16M35 65h2M47 65h17M33 66h3M47 66h16M30 67h1M32 67h2M46 67h17M27 68h1M29 68h1M31 68h2M45 68h18M26 69h1M28 69h1M30 69h2M34 69h1M36 69h1M45 69h17M25 70h1M27 70h4M33 70h1M35 70h1M42 70h1M44 70h1M47 70h14M26 71h4M32 71h1M34 71h1M39 71h1M41 71h1M43 71h3M50 71h11" />
</svg>