<svg xmlns="http://www.w3.org/2000/svg" viewBox="0 -0.5 96 96" shape-rendering="crispEdges">
<metadata>Made with Pixels to Svg https://codepen.io/shshaw/pen/XbxvNj</metadata>
<path stroke="#ff6319" d="M53 24h3M52 25h3M45 26h3M51 26h3M35 27h3M43 27h2M48 27h2M51 27h1M53 27h1M33 28h1M38 28h1M41 28h1M50 28h1M52 28h3M31 29h1M39 29h2M51 29h1M53 29h4M30 30h1M38 30h1M40 30h1M42 30h1M48 30h2M53 30h1M55 30h1M57 30h2M26 31h1M28 31h2M37 31h1M39 31h1M41 31h1M43 31h1M45 31h1M47 31h4M54 31h1M56 31h1M58 31h3M27 32h1M30 32h3M34 32h1M36 32h1M38 32h1M40 32h1M42 32h3M46 32h1M48 32h3M53 32h1M55 32h1M57 32h3M61 32h1M28 33h3M33 33h1M35 33h1M37 33h3M41 33h1M43 33h8M54 33h1M56 33h3M60 33h1M62 33h1M34 34h7M42 34h10M55 34h5M61 34h1M63 34h1M36 35h2M41 35h12M55 35h6M62 35h1M64 35h1M43 36h10M55 36h5M61 36h1M63 36h2M44 37h9M54 37h7M62 37h1M34 38h1M36 38h1M42 38h6M49 38h1M51 38h1M54 38h10M69 38h1M31 39h2M37 39h1M41 39h1M44 39h3M48 39h1M50 39h1M54 39h8M67 39h1M69 39h1M30 40h1M39 40h2M43 40h1M45 40h1M47 40h1M49 40h1M51 40h1M55 40h6M66 40h1M69 40h1M32 41h2M42 41h1M44 41h7M57 41h1M59 41h2M66 41h1M68 41h1M34 42h1M43 42h1M45 42h8M56 42h1M58 42h4M65 42h1M67 42h1M34 43h1M42 43h1M44 43h1M46 43h8M55 43h1M57 43h1M59 43h8M68 43h1M35 44h2M39 44h1M41 44h1M43 44h1M45 44h10M56 44h1M58 44h8M67 44h1M69 44h1M37 45h2M40 45h1M42 45h3M48 45h19M68 45h3M39 46h5M51 46h4M60 46h11M47 47h1M51 47h2M62 47h9M44 48h1M46 48h1M50 48h1M63 48h7M41 49h1M63 49h5M39 50h1M64 50h4M37 51h1M64 51h3M36 52h1M61 53h1M60 54h1M60 55h1M62 55h1M65 55h1M32 56h1M49 56h2M52 56h1M60 56h1M65 56h1M31 57h1M51 57h1M53 57h1M60 57h1M64 57h1M30 58h1M52 58h1M61 58h1M29 60h1M52 60h1M62 60h1M64 60h1M54 61h1M58 61h4M28 62h1M61 62h1M42 63h1M62 63h1M27 64h1M62 64h1M65 64h1M63 65h1M63 66h1M26 67h1M63 67h1M64 68h1M66 68h1M64 69h1M64 70h1M64 71h1" />
<path stroke="#ffb500" d="M34 27h1M42 27h1M45 27h3M52 27h1M32 28h1M34 28h4M42 28h8M51 28h1M32 29h7M41 29h10M52 29h1M31 30h7M39 30h1M41 30h1M43 30h5M50 30h3M54 30h1M56 30h1M30 31h7M38 31h1M40 31h1M42 31h1M44 31h1M46 31h1M51 31h3M55 31h1M57 31h1M28 32h2M33 32h1M35 32h1M37 32h1M39 32h1M41 32h1M45 32h1M47 32h1M51 32h2M54 32h1M56 32h1M60 32h1M62 32h1M34 33h1M36 33h1M40 33h1M42 33h1M51 33h3M55 33h1M59 33h1M61 33h1M63 33h1M41 34h1M52 34h3M60 34h1M62 34h1M38 35h1M53 35h2M61 35h1M63 35h1M53 36h2M60 36h1M62 36h1M53 37h1M61 37h1M63 37h1M35 38h1M48 38h1M50 38h1M52 38h2M33 39h4M42 39h2M47 39h1M49 39h1M51 39h3M62 39h1M68 39h1M31 40h8M41 40h2M44 40h1M46 40h1M48 40h1M50 40h1M52 40h3M67 40h2M34 41h8M43 41h1M51 41h6M58 41h1M67 41h1M35 42h8M44 42h1M53 42h3M57 42h1M64 42h1M66 42h1M68 42h1M35 43h7M43 43h1M45 43h1M54 43h1M56 43h1M58 43h1M67 43h1M69 43h1M37 44h2M40 44h1M42 44h1M44 44h1M55 44h1M57 44h1M66 44h1M68 44h1M39 45h1M41 45h1M45 45h1M67 45h1M50 46h1M55 46h5M50 47h1M53 47h9M47 48h1M51 48h1M53 48h10M50 49h1M52 49h1M54 49h9M51 50h1M53 50h11M50 51h14M47 52h14M62 52h3M44 53h17M63 53h2M42 54h18M63 54h2M40 55h20M64 55h1M39 56h9M51 56h1M53 56h7M64 56h1M38 57h8M50 57h1M52 57h1M54 57h6M37 58h1M39 58h6M51 58h1M53 58h8M36 59h1M38 59h6M52 59h11M37 60h6M54 60h8M36 61h1M38 61h5M57 61h1M35 62h1M37 62h5M59 62h2M34 63h1M36 63h6M60 63h2M35 64h1M37 64h4M60 64h2M34 65h1M36 65h5M61 65h2M33 66h1M35 66h5M61 66h2M34 67h6M62 67h1M33 68h1M35 68h5M62 68h2M32 69h1M34 69h5M63 69h1M33 70h1M35 70h4M63 70h1M32 71h1M34 71h5" />
<path stroke="#000000" d="M49 46h1M48 47h1M45 48h1M42 49h2M40 50h1M38 51h1M61 52h1M65 52h1M35 53h1M62 53h1M65 53h1M34 54h1M62 54h1M65 54h1M33 55h1M63 55h1M48 56h1M62 56h2M46 57h2M49 57h1M63 57h1M45 58h1M50 58h1M63 58h1M30 59h1M44 59h1M51 59h1M63 59h1M43 60h1M53 60h1M29 61h1M43 61h1M55 61h2M64 61h1M42 62h1M57 62h2M64 62h1M28 63h1M59 63h1M64 63h1M41 64h1M59 64h1M27 65h1M41 65h1M60 65h1M65 65h1M27 66h1M40 66h1M60 66h1M65 66h1M40 67h1M61 67h1M65 67h1M26 68h1M40 68h1M61 68h1M26 69h1M39 69h1M62 69h1M66 69h1M26 70h1M39 70h1M62 70h1M66 70h1M25 71h1M39 71h1M63 71h1M66 71h1" />
<path stroke="#ffffff" d="M49 47h1M48 48h2M52 48h1M44 49h6M51 49h1M53 49h1M41 50h10M52 50h1M39 51h11M37 52h10M36 53h8M35 54h7M61 54h1M34 55h6M61 55h1M33 56h6M61 56h1M32 57h6M61 57h2M31 58h6M38 58h1M62 58h1M31 59h5M37 59h1M30 60h7M63 60h1M30 61h6M37 61h1M62 61h2M29 62h6M36 62h1M62 62h2M29 63h5M35 63h1M63 63h1M28 64h7M36 64h1M63 64h2M28 65h6M35 65h1M64 65h1M28 66h5M34 66h1M64 66h1M27 67h7M64 67h1M27 68h6M34 68h1M65 68h1M27 69h5M33 69h1M65 69h1M27 70h6M34 70h1M65 70h1M26 71h6M33 71h1M65 71h1" />
</svg>