<svg xmlns="http://www.w3.org/2000/svg" viewBox="0 -0.5 96 96" shape-rendering="crispEdges">
<metadata>Made with Pixels to Svg https://codepen.io/shshaw/pen/XbxvNj</metadata>
<path stroke="#5a528c" d="M26 28h2M36 28h1M25 29h1M34 29h1M40 29h1M55 29h1M33 30h1M44 30h1M53 30h1M60 30h1M29 31h1M38 31h1M52 31h1M68 31h1M51 32h1M66 32h1M27 33h1M59 33h1M29 34h1M50 34h1M43 35h2M47 35h2M45 36h2M53 36h1M56 43h1M31 51h1M51 54h1M51 55h1M30 57h1M29 63h1" />
<path stroke="#000000" d="M37 28h2M28 29h1M35 29h1M39 29h1M56 29h3M25 30h1M28 30h1M41 30h1M45 30h1M54 30h1M59 30h1M25 31h1M30 31h3M36 31h2M42 31h1M44 31h1M46 31h1M61 31h2M69 31h1M26 32h1M34 32h2M39 32h1M43 32h1M47 32h1M55 32h4M63 32h1M67 32h1M70 32h1M28 33h1M33 33h1M40 33h1M43 33h1M48 33h1M51 33h1M54 33h1M60 33h1M64 33h2M70 33h1M30 34h3M40 34h3M49 34h1M53 34h1M61 34h1M68 34h2M39 35h2M49 35h2M53 35h1M62 35h2M66 35h2M38 36h1M51 36h2M64 36h2M37 37h1M53 37h1M36 38h1M54 38h1M35 39h1M55 39h1M35 40h1M55 40h1M34 41h1M56 41h1M34 42h1M56 42h1M33 43h1M57 43h1M33 44h1M58 44h1M33 45h1M59 45h1M32 46h1M60 46h1M32 47h1M60 47h1M32 48h1M61 48h1M32 49h1M61 49h1M32 50h1M61 50h1M61 51h1M31 52h1M60 52h1M31 53h1M60 53h1M31 54h1M57 54h3M31 55h1M55 55h2M59 55h1M31 56h1M51 56h1M54 56h1M58 56h1M51 57h1M56 57h2M30 58h1M51 58h1M54 58h2M64 58h2M30 59h1M51 59h3M66 59h1M30 60h1M51 60h1M66 60h1M30 61h1M51 61h1M61 61h1M67 61h1M30 62h1M51 62h1M61 62h1M67 62h1M52 63h1M60 63h1M67 63h1M29 64h1M52 64h1M60 64h1M68 64h1M29 65h1M52 65h1M59 65h1M68 65h1M29 66h1M53 66h1M58 66h1M68 66h1M29 67h1M53 67h1M56 67h2M69 67h1M28 68h1M52 68h4M69 68h1M28 69h1M49 69h3M69 69h1M28 70h1M70 70h1M27 71h1M70 71h1" />
<path stroke="#ffffff" d="M26 29h2M36 29h3M26 30h2M34 30h7M55 30h4M26 31h3M33 31h3M39 31h3M53 31h8M27 32h7M40 32h1M52 32h3M59 32h4M68 32h2M29 33h4M44 33h1M52 33h2M61 33h3M66 33h4M44 34h1M51 34h1M62 34h6M64 35h2M40 37h2M38 38h5M37 39h6M37 40h7M37 41h6M37 42h5M43 42h1M36 43h1M38 43h3M42 43h1M37 44h1M39 44h1M41 44h1M43 44h1M36 45h1M38 45h1M40 45h1M42 45h1M58 45h1M37 46h1M39 46h1M41 46h1M58 46h2M38 47h1M59 47h1M59 48h2M60 49h1M63 59h3M62 60h2M62 61h2M62 62h2M61 63h1M63 63h1M63 64h1M60 65h1M59 66h1M63 68h1M64 69h1M63 70h1M62 71h1M64 71h1" />
<path stroke="#c58c21" d="M45 31h1M41 32h2M44 32h3M41 33h2M45 33h3M43 34h1M45 34h4M52 34h1M41 35h2M45 35h2M51 35h2M39 36h6M47 36h4M38 37h2M42 37h11M37 38h1M43 38h11M36 39h1M43 39h12M36 40h1M44 40h11M35 41h2M43 41h13M35 42h2M42 42h1M44 42h12M34 43h2M37 43h1M41 43h1M43 43h13M34 44h3M38 44h1M40 44h1M42 44h1M44 44h14M34 45h2M37 45h1M39 45h1M41 45h1M43 45h15M33 46h4M38 46h1M40 46h1M42 46h16M33 47h5M39 47h20M33 48h26M33 49h27M33 50h28M32 51h29M32 52h28M32 53h28M32 54h19M52 54h5M32 55h19M52 55h3M57 55h2M32 56h19M52 56h2M55 56h3M31 57h20M52 57h4M31 58h20M52 58h2M63 58h1M31 59h20M62 59h1M31 60h20M61 60h1M64 60h2M31 61h20M64 61h3M31 62h20M64 62h3M30 63h22M62 63h1M64 63h3M30 64h22M61 64h2M64 64h4M30 65h22M61 65h7M30 66h23M60 66h8M30 67h23M58 67h11M29 68h23M56 68h7M64 68h5M29 69h20M52 69h12M65 69h4M29 70h34M64 70h6M28 71h34M63 71h1M65 71h5" />
</svg>