<svg xmlns="http://www.w3.org/2000/svg" viewBox="0 -0.5 96 96" shape-rendering="crispEdges">
<metadata>Made with Pixels to Svg https://codepen.io/shshaw/pen/XbxvNj</metadata>
<path stroke="#000000" d="M42 28h5M39 29h3M48 29h2M37 30h2M51 30h1M35 31h2M45 31h6M53 31h1M34 32h1M42 32h2M55 32h1M33 33h1M41 33h1M54 33h3M32 34h1M38 34h2M54 34h2M57 34h1M31 35h1M37 35h1M53 35h2M58 35h3M31 36h1M36 36h1M52 36h1M56 36h2M61 36h1M30 37h1M35 37h1M49 37h2M63 37h1M30 38h1M34 38h1M48 38h1M30 39h1M34 39h1M46 39h2M29 40h1M33 40h1M44 40h2M64 40h1M29 41h1M33 41h1M42 41h2M46 41h1M61 41h1M64 41h1M29 42h1M40 42h2M61 42h2M64 42h1M29 43h1M32 43h1M38 43h2M45 43h1M61 43h2M64 43h1M29 44h1M32 44h1M37 44h1M61 44h2M64 44h1M30 45h1M32 45h1M35 45h2M44 45h1M61 45h2M65 45h1M30 46h1M34 46h1M44 46h1M61 46h1M65 46h1M30 47h1M33 47h1M44 47h1M65 47h1M31 48h1M33 48h1M44 48h1M64 48h1M32 49h1M44 49h1M64 49h1M63 50h1M42 51h2M63 51h1M41 52h1M63 52h1M41 53h1M63 53h1M42 54h2M45 54h1M63 54h1M40 55h2M45 55h1M51 55h1M57 55h1M39 56h1M46 56h2M51 56h1M57 56h1M52 57h2M58 57h2M64 57h1M62 58h2M35 59h1M62 59h1M62 60h1M33 62h1M37 62h2M33 63h1M35 63h1M35 64h1M63 64h1M32 65h1M36 65h1M63 65h1M32 66h1M37 66h1M63 66h1M61 67h1M63 67h1M33 68h1M60 68h1M63 68h1M33 69h1M39 69h1M58 69h2M63 69h1M34 70h1M40 70h2M56 70h2M63 70h1M34 71h2M42 71h5M55 71h1M57 71h1M62 71h1" />
<path stroke="#19a500" d="M47 28h1M42 29h6M50 29h1M39 30h12M52 30h1M37 31h1M39 31h6M51 31h2M54 31h1M38 32h1M40 32h2M44 32h11M39 33h2M42 33h12M34 34h1M40 34h1M42 34h12M56 34h1M58 34h1M33 35h1M35 35h1M41 35h1M43 35h10M56 35h2M32 36h4M38 36h1M42 36h1M46 36h6M62 36h1M32 37h3M37 37h1M39 37h1M41 37h1M44 37h5M31 38h3M35 38h2M38 38h1M40 38h1M42 38h6M63 38h1M31 39h3M35 39h5M41 39h5M64 39h1M30 40h3M34 40h10M46 40h1M60 40h2M30 41h3M34 41h8M59 41h1M62 41h1M30 42h10M45 42h1M59 42h1M30 43h2M33 43h5M59 43h1M30 44h2M33 44h4M45 44h1M59 44h1M31 45h1M33 45h2M59 45h1M64 45h1M31 46h3M59 46h1M62 46h1M31 47h2M60 47h2M32 48h1M44 50h1M44 51h1M43 52h2M42 53h3M46 53h2M41 54h1M47 54h2M52 54h2M58 54h2M46 55h3M53 55h2M59 55h2M63 55h2M38 56h1M52 56h3M58 56h3M62 56h1M64 56h2M37 57h1M62 57h2M36 58h1M34 60h1M33 61h1M62 61h1M36 62h1M39 62h1M62 62h1M63 63h1M32 64h1M39 65h1M38 66h1M61 66h1M32 67h1M38 69h1" />
<path stroke="#ffffff" d="M38 31h1M35 32h3M39 32h1M34 33h5M33 34h1M35 34h3M41 34h1M32 35h1M34 35h1M36 35h1M38 35h3M42 35h1M37 36h1M39 36h3M36 37h1M38 37h1M40 37h1M37 38h1M39 38h1M49 38h2M48 39h4M47 40h5M47 41h5M60 41h1M46 42h5M60 42h1M46 43h5M60 43h1M46 44h4M60 44h1M46 45h4M60 45h1M45 46h5M60 46h1M45 47h4M45 48h4M45 49h3M45 50h3M45 51h2M42 52h1M46 54h1M40 56h3M63 56h1M38 57h6M37 58h5M36 59h4M35 60h4M34 61h4M34 62h2M34 63h1M36 63h2M33 64h2M36 64h1M33 65h2M33 66h2M33 67h2M34 68h1M34 69h2M35 70h1" />
<path stroke="#adbd63" d="M55 35h1M43 36h3M53 36h3M58 36h3M31 37h1M42 37h2M51 37h12M41 38h1M51 38h12M40 39h1M52 39h12M52 40h8M62 40h2M52 41h7M63 41h1M51 42h8M63 42h1M51 43h8M63 43h1M50 44h9M63 44h1M45 45h1M50 45h9M63 45h1M50 46h9M63 46h2M49 47h11M62 47h3M49 48h15M48 49h16M48 50h15M47 51h16M45 52h18M45 53h1M48 53h15M44 54h1M49 54h3M54 54h4M60 54h3M42 55h3M49 55h2M52 55h1M55 55h2M58 55h1M61 55h2M43 56h3M48 56h3M55 56h2M61 56h1M44 57h8M54 57h4M60 57h2M42 58h20M40 59h22M39 60h23M38 61h24M40 62h22M38 63h25M37 64h26M35 65h1M37 65h2M40 65h23M35 66h2M39 66h22M62 66h1M35 67h26M62 67h1M35 68h25M61 68h2M36 69h2M40 69h18M60 69h3M36 70h4M42 70h14M58 70h5M36 71h6M47 71h8M56 71h1M58 71h4" />
</svg>