<svg xmlns="http://www.w3.org/2000/svg" viewBox="0 -0.5 96 96" shape-rendering="crispEdges">
<metadata>Made with Pixels to Svg https://codepen.io/shshaw/pen/XbxvNj</metadata>
<path stroke="#de3129" d="M49 28h2M58 28h2M57 29h1M51 30h1M57 30h1M49 31h1M57 31h1M57 32h1M49 34h1M59 34h1M55 35h1M48 36h1M53 36h1M44 37h1M55 37h1M58 37h3M43 38h1M57 38h1M61 38h1M42 39h1M57 39h1M62 39h1M39 40h1M45 40h4M56 40h3M62 40h1M37 41h1M43 41h3M54 41h6M62 41h1M30 42h1M35 42h1M42 42h1M51 42h1M53 42h1M56 42h4M62 42h1M34 43h1M36 43h1M41 43h1M51 43h1M54 43h2M57 43h4M65 43h1M33 44h1M40 44h1M48 44h1M50 44h1M53 44h1M55 44h2M58 44h4M64 44h1M67 44h1M32 45h1M35 45h1M39 45h1M47 45h1M49 45h1M54 45h1M56 45h2M59 45h3M65 45h2M39 46h1M48 46h1M50 46h1M54 46h4M59 46h2M63 46h1M67 46h1M31 47h1M38 47h1M47 47h1M49 47h1M56 47h3M60 47h1M68 47h2M36 48h1M38 48h1M40 48h1M48 48h1M55 48h1M57 48h2M62 48h1M30 49h1M35 49h1M37 49h1M41 49h1M56 49h4M34 50h1M36 50h1M38 50h1M55 50h1M57 50h3M64 50h1M69 50h1M29 51h1M35 51h1M42 51h1M54 51h1M56 51h5M62 51h1M68 51h1M26 52h1M29 52h1M34 52h1M36 52h1M50 52h11M33 53h1M35 53h1M50 53h11M34 54h1M49 54h12M67 54h1M42 55h1M48 55h1M50 55h11M65 55h1M28 56h1M33 56h1M49 56h12M64 56h1M66 56h2M69 56h1M28 57h2M41 57h1M48 57h13M68 57h1M39 58h1M46 58h1M50 58h10M62 58h1M68 58h1M36 59h2M45 59h1M47 59h1M52 59h8M69 59h1M37 60h1M44 60h1M46 60h1M48 60h1M53 60h6M28 61h1M37 61h1M45 61h1M47 61h1M53 61h6M27 62h1M41 62h1M43 62h1M46 62h1M53 62h5M38 63h1M40 63h1M42 63h1M52 63h6M61 63h1M36 64h1M39 64h1M41 64h1M43 64h1M52 64h5M37 65h1M39 65h2M42 65h3M51 65h5M58 65h1M63 65h2M38 66h1M40 66h6M49 66h5M65 66h1M39 67h13M42 68h7M65 68h1M64 69h1M63 70h1" />
<path stroke="#d69c42" d="M49 29h1M58 29h1M58 30h1M52 36h1M46 37h2M53 37h2M44 38h5M52 38h5M41 39h1M50 39h7M41 40h1M49 40h1M52 40h4M46 41h6M31 42h1M34 42h1M44 42h7M52 42h1M31 43h3M44 43h4M52 43h2M31 44h2M43 44h4M54 44h1M66 44h1M31 45h1M43 45h3M55 45h1M42 46h4M69 46h1M34 47h2M41 47h5M55 47h1M33 48h3M41 48h6M56 48h1M69 48h1M31 49h4M42 49h5M55 49h1M62 49h3M69 49h1M31 50h3M42 50h6M54 50h1M56 50h1M61 50h3M68 50h1M30 51h4M43 51h6M53 51h1M55 51h1M65 51h3M30 52h3M43 52h7M30 53h3M43 53h7M28 54h1M30 54h3M43 54h6M27 55h2M30 55h3M43 55h5M49 55h1M26 56h2M30 56h3M42 56h7M62 56h1M65 56h1M27 57h1M30 57h4M42 57h6M62 57h2M65 57h1M69 57h1M29 58h1M31 58h4M40 58h6M69 58h1M31 59h5M38 59h7M68 59h1M33 60h4M38 60h6M66 60h3M34 61h3M38 61h6M65 61h3M31 62h1M34 62h3M38 62h3M42 62h1M30 63h2M35 63h3M39 63h1M41 63h1M43 63h1M30 64h3M35 64h1M37 64h1M40 64h1M42 64h1M58 64h2M29 65h4M35 65h2M38 65h1M41 65h1M59 65h1M65 65h1M29 66h3M37 66h1M39 66h1M64 67h2M59 68h1M63 68h2M59 69h5M60 70h3" />
<path stroke="#000000" d="M50 29h1M59 29h1M49 30h2M59 30h1M50 31h2M58 31h2M50 32h2M58 32h2M50 33h2M57 33h3M50 34h2M56 34h3M44 35h9M56 35h3M43 36h1M46 36h2M54 36h5M42 37h1M45 37h1M56 37h2M42 38h1M33 39h3M43 39h7M58 39h2M32 40h1M36 40h1M40 40h1M50 40h2M59 40h2M31 41h1M38 41h1M52 41h2M60 41h1M36 42h2M54 42h2M60 42h1M30 43h1M35 43h1M48 43h3M56 43h1M61 43h1M66 43h1M30 44h1M34 44h2M47 44h1M49 44h1M51 44h2M57 44h1M62 44h1M68 44h1M30 45h1M33 45h2M46 45h1M48 45h1M50 45h4M58 45h1M62 45h1M64 45h1M69 45h1M31 46h4M46 46h2M49 46h1M51 46h3M58 46h1M61 46h1M70 46h1M32 47h2M46 47h1M48 47h1M50 47h5M59 47h1M61 47h1M63 47h1M70 47h1M31 48h2M37 48h1M39 48h1M47 48h1M49 48h6M59 48h2M63 48h2M70 48h1M29 49h1M36 49h1M38 49h3M47 49h8M60 49h2M65 49h1M70 49h1M27 50h2M30 50h1M35 50h1M37 50h1M39 50h3M48 50h6M60 50h1M65 50h1M70 50h1M26 51h1M34 51h1M36 51h6M49 51h4M61 51h1M63 51h2M69 51h1M33 52h1M35 52h1M37 52h6M61 52h2M65 52h4M25 53h1M29 53h1M34 53h1M36 53h7M61 53h1M25 54h1M29 54h1M33 54h1M35 54h8M61 54h1M68 54h1M25 55h1M29 55h1M33 55h9M61 55h2M66 55h1M69 55h1M25 56h1M29 56h1M34 56h8M61 56h1M63 56h1M70 56h1M26 57h1M34 57h7M61 57h1M64 57h1M70 57h1M27 58h2M30 58h1M35 58h4M47 58h3M60 58h2M63 58h1M70 58h1M29 59h2M46 59h1M48 59h4M60 59h1M62 59h2M70 59h1M28 60h1M31 60h2M45 60h1M47 60h1M49 60h4M59 60h1M63 60h1M69 60h1M31 61h3M44 61h1M46 61h1M48 61h5M59 61h1M64 61h1M68 61h1M32 62h2M37 62h1M44 62h2M47 62h6M58 62h1M65 62h3M27 63h1M32 63h3M44 63h8M58 63h2M62 63h3M27 64h1M33 64h2M38 64h1M44 64h8M57 64h1M60 64h3M65 64h1M27 65h1M33 65h2M45 65h6M56 65h2M60 65h2M66 65h1M28 66h1M32 66h1M35 66h2M46 66h3M54 66h2M58 66h3M66 66h1M29 67h3M37 67h2M52 67h2M58 67h1M66 67h1M39 68h3M49 68h3M58 68h1M42 69h7M58 69h1M65 69h1M59 70h1M64 70h1M60 71h4" />
<path stroke="#ffffff" d="M44 36h2M49 36h3M43 37h1M48 37h5M49 38h3M58 38h3M60 39h2M33 40h3M42 40h3M61 40h1M32 41h5M39 41h4M61 41h1M32 42h2M38 42h4M43 42h1M61 42h1M37 43h4M42 43h2M36 44h4M41 44h2M65 44h1M36 45h3M40 45h3M67 45h2M35 46h4M40 46h2M64 46h3M68 46h1M36 47h2M39 47h2M64 47h4M65 48h4M66 49h3M29 50h1M66 50h2M27 51h2M27 52h2M26 53h3M26 54h2M26 55h1M67 55h2M68 56h1M66 57h2M64 58h4M64 59h4M29 60h2M64 60h2M29 61h2M28 62h3M28 63h2M28 64h2M63 64h2M28 65h1M62 65h1M61 66h4M59 67h5M60 68h3" />
</svg>