<svg xmlns="http://www.w3.org/2000/svg" viewBox="0 -0.5 96 96" shape-rendering="crispEdges">
<metadata>Made with Pixels to Svg https://codepen.io/shshaw/pen/XbxvNj</metadata>
<path stroke="#000000" d="M58 25h6M56 26h2M64 26h2M54 27h2M66 27h1M53 28h1M66 28h1M33 29h3M52 29h1M67 29h1M31 30h2M36 30h1M51 30h1M67 30h1M30 31h1M37 31h1M51 31h1M67 31h1M29 32h1M37 32h1M50 32h1M67 32h1M28 33h1M37 33h1M50 33h1M67 33h1M27 34h1M37 34h1M50 34h1M66 34h1M26 35h1M37 35h1M49 35h1M66 35h1M26 36h1M36 36h1M49 36h1M65 36h1M25 37h1M36 37h1M49 37h1M65 37h1M25 38h1M36 38h1M49 38h1M64 38h1M25 39h1M35 39h1M49 39h1M63 39h1M24 40h1M35 40h1M50 40h1M61 40h2M24 41h1M34 41h1M50 41h1M58 41h3M24 42h1M33 42h1M49 42h1M52 42h6M24 43h1M32 43h1M49 43h1M51 43h1M25 44h1M30 44h2M48 44h1M50 44h1M25 45h1M28 45h2M48 45h1M50 45h1M25 46h1M27 46h1M47 46h1M49 46h1M25 47h1M27 47h1M47 47h1M49 47h1M25 48h2M46 48h1M48 48h1M26 49h1M46 49h1M48 49h1M26 50h1M47 50h1M26 51h1M45 51h1M47 51h1M25 52h2M45 52h2M48 52h10M25 53h2M44 53h4M58 53h3M25 54h1M27 54h1M42 54h2M45 54h2M61 54h2M27 55h1M41 55h1M45 55h1M63 55h2M26 56h2M39 56h2M44 56h2M65 56h1M26 57h1M28 57h1M38 57h1M44 57h2M66 57h1M26 58h1M28 58h1M37 58h1M44 58h2M66 58h1M27 59h2M36 59h1M44 59h2M67 59h1M27 60h3M35 60h1M43 60h2M67 60h1M28 61h2M34 61h1M43 61h2M67 61h1M29 62h2M34 62h1M43 62h2M60 62h4M67 62h1M30 63h2M33 63h1M43 63h2M58 63h2M64 63h4M31 64h3M43 64h2M68 64h2M32 65h3M44 65h1M58 65h1M70 65h1M32 66h3M44 66h1M59 66h2M71 66h1M32 67h1M35 67h2M44 67h2M61 67h2M71 67h1M32 68h1M36 68h3M44 68h2M61 68h1M63 68h1M71 68h1M32 69h1M38 69h4M44 69h3M59 69h2M64 69h2M69 69h2M33 70h1M40 70h7M57 70h2M66 70h3M34 71h2M43 71h5M54 71h3" />
<path stroke="#deb53a" d="M58 26h6M56 27h1M59 27h7M54 28h2M60 28h6M53 29h3M60 29h7M33 30h3M52 30h5M59 30h8M31 31h6M52 31h15M30 32h1M33 32h4M51 32h16M29 33h1M34 33h3M51 33h16M28 34h2M34 34h3M51 34h15M27 35h4M33 35h4M50 35h16M27 36h9M50 36h15M26 37h10M50 37h15M26 38h10M50 38h14M26 39h9M50 39h13M25 40h10M51 40h10M25 41h9M52 41h6M25 42h8M25 43h7M26 44h4M26 45h2M60 63h3M58 64h2M62 64h6M59 65h2M64 65h6M61 66h2M65 66h6M63 67h8M64 68h7M66 69h3" />
<path stroke="#ffffff" d="M57 27h2M56 28h4M56 29h4M57 30h2M31 32h2M30 33h4M30 34h4M31 35h2M50 54h4M49 55h7M51 56h4" />
<path stroke="#6b52e6" d="M51 41h1M50 42h2M50 43h1M49 44h1M49 45h1M26 46h1M48 46h1M26 47h1M48 47h1M47 48h1M25 49h1M47 49h1M25 50h1M46 50h1M25 51h1M46 51h1M48 53h10M26 54h1M44 54h1M47 54h3M54 54h7M26 55h1M42 55h3M46 55h3M56 55h7M41 56h3M46 56h5M55 56h10M27 57h1M39 57h5M46 57h20M27 58h1M38 58h6M46 58h20M37 59h7M46 59h21M36 60h7M45 60h22M35 61h8M45 61h22M35 62h8M45 62h15M64 62h3M34 63h9M45 63h13M63 63h1M34 64h9M45 64h13M60 64h2M35 65h9M45 65h13M61 65h3M35 66h9M45 66h14M63 66h2M33 67h2M37 67h7M46 67h15M33 68h3M39 68h5M46 68h15M33 69h5M42 69h2M47 69h12M34 70h6M47 70h10M36 71h7M48 71h6" />
</svg>