<svg xmlns="http://www.w3.org/2000/svg" viewBox="0 -0.5 96 96" shape-rendering="crispEdges">
<metadata>Made with Pixels to Svg https://codepen.io/shshaw/pen/XbxvNj</metadata>
<path stroke="#000000" d="M61 31h5M60 32h1M66 32h3M60 33h1M69 33h1M57 34h3M64 34h2M68 34h1M56 35h1M62 35h2M67 35h1M55 36h1M61 36h1M66 36h1M56 37h1M60 37h1M63 37h1M66 37h1M54 38h2M58 38h2M62 38h4M53 39h1M57 39h1M63 39h1M29 40h4M53 40h1M56 40h1M63 40h1M26 41h3M33 41h2M36 41h2M52 41h2M55 41h1M58 41h2M63 41h1M25 42h1M30 42h2M38 42h1M40 42h2M51 42h1M54 42h1M59 42h4M25 43h1M32 43h2M39 43h1M42 43h1M51 43h1M54 43h1M60 43h1M26 44h1M34 44h3M42 44h1M44 44h2M51 44h1M53 44h1M60 44h1M26 45h1M29 45h2M37 45h3M43 45h1M46 45h2M50 45h4M57 45h3M27 46h2M30 46h1M40 46h2M46 46h1M48 46h1M50 46h1M52 46h1M57 46h1M31 47h1M43 47h2M48 47h1M50 47h1M52 47h1M54 47h1M57 47h1M31 48h1M34 48h2M41 48h2M45 48h2M49 48h1M51 48h1M55 48h2M58 48h6M32 49h2M36 49h1M39 49h2M47 49h1M49 49h1M51 49h1M54 49h4M64 49h3M37 50h2M41 50h5M47 50h1M49 50h2M52 50h1M54 50h2M67 50h1M43 51h3M48 51h2M51 51h1M53 51h1M67 51h1M38 52h5M66 52h1M35 53h3M66 53h1M33 54h2M65 54h1M31 55h1M64 55h1M63 56h1M29 57h1M39 57h1M61 57h2M30 58h1M38 58h1M60 58h1M62 58h1M31 59h1M38 59h1M60 59h1M62 59h1M32 60h2M37 60h1M63 60h1M34 61h2M37 61h1M63 61h1M36 62h1M38 62h3M64 62h1M35 63h3M41 63h2M64 63h1M34 64h1M43 64h1M64 64h1M34 65h1M38 65h3M44 65h1M64 65h1M35 66h3M41 66h1M44 66h1M50 66h3M63 66h1M35 67h1M42 67h1M49 67h1M53 67h1M63 67h1M35 68h1M37 68h3M49 68h1M53 68h1M62 68h1M36 69h1M40 69h1M48 69h1M54 69h1M62 69h1M40 70h1M48 70h1M54 70h1M61 70h1M35 71h1M41 71h1M48 71h1M54 71h1M59 71h2" />
<path stroke="#5abd31" d="M61 32h5M61 33h8M60 34h4M66 34h2M58 35h1M60 35h2M64 35h3M57 36h1M59 36h2M62 36h4M58 37h1M61 37h2M64 37h2M56 38h2M61 38h1M54 39h3M58 39h1M60 39h1M62 39h1M54 40h2M57 40h3M61 40h2M25 41h1M29 41h4M35 41h1M54 41h1M56 41h2M60 41h1M62 41h1M26 42h4M32 42h1M34 42h1M36 42h2M52 42h2M55 42h4M26 43h6M35 43h1M37 43h2M40 43h2M52 43h2M55 43h5M27 44h4M32 44h1M37 44h5M52 44h1M54 44h6M27 45h2M31 45h1M33 45h1M35 45h2M40 45h3M44 45h2M54 45h3M32 46h1M34 46h6M42 46h4M47 46h1M51 46h1M53 46h4M32 47h11M45 47h3M51 47h1M53 47h1M55 47h2M32 48h2M36 48h5M43 48h2M47 48h2M50 48h1M52 48h3M37 49h2M41 49h6M48 49h1M50 49h1M52 49h2M46 50h1M48 50h1M51 50h1M53 50h1" />
<path stroke="#ffffff" d="M57 35h1M59 35h1M56 36h1M58 36h1M57 37h1M59 37h1M60 38h1M59 39h1M61 39h1M60 40h1M61 41h1M33 42h1M35 42h1M34 43h1M36 43h1M31 44h1M33 44h1M32 45h1M34 45h1M31 46h1M33 46h1M61 51h1M63 51h1M65 51h1M59 52h2M62 52h1M64 52h1M44 53h1M46 53h1M65 53h1M35 54h1M42 54h2M45 54h1M32 55h2M41 55h4M30 56h3M34 56h1M36 56h1M40 56h4M45 56h1M30 57h1M33 57h1M35 57h1M40 57h3M44 57h1M39 58h3M43 58h1M39 59h2M42 59h1M38 60h2M41 60h1M38 61h3M42 61h1M50 67h2M50 68h1M37 69h2M36 70h2M36 71h1" />
<path stroke="#ad313a" d="M58 49h6M56 50h11M46 51h2M50 51h1M52 51h1M54 51h7M62 51h1M64 51h1M66 51h1M43 52h16M61 52h1M63 52h1M65 52h1M38 53h6M45 53h1M47 53h18M32 54h1M36 54h6M44 54h1M46 54h19M30 55h1M34 55h7M45 55h19M29 56h1M33 56h1M35 56h1M37 56h3M44 56h1M46 56h17M31 57h2M34 57h1M36 57h3M43 57h1M45 57h16M31 58h7M42 58h1M44 58h16M61 58h1M32 59h6M41 59h1M43 59h17M61 59h1M34 60h3M40 60h1M42 60h21M36 61h1M41 61h1M43 61h20M37 62h1M41 62h23M38 63h3M43 63h21M35 64h8M44 64h20M35 65h3M41 65h3M45 65h19M38 66h3M42 66h2M45 66h5M53 66h10M36 67h6M43 67h6M52 67h1M54 67h9M36 68h1M40 68h9M51 68h2M54 68h8M39 69h1M41 69h7M49 69h5M55 69h7M35 70h1M38 70h2M41 70h7M49 70h5M55 70h6M37 71h4M42 71h6M49 71h5M55 71h4" />
</svg>