<svg xmlns="http://www.w3.org/2000/svg" viewBox="0 -0.5 96 96" shape-rendering="crispEdges">
<metadata>Made with Pixels to Svg https://codepen.io/shshaw/pen/XbxvNj</metadata>
<path stroke="#000000" d="M53 27h3M51 28h2M56 28h2M38 29h4M49 29h2M58 29h1M36 30h1M42 30h2M48 30h1M56 30h3M34 31h1M44 31h2M47 31h1M54 31h2M34 32h6M45 32h3M53 32h7M33 33h1M40 33h2M46 33h1M51 33h2M60 33h2M42 34h1M46 34h1M50 34h1M62 34h1M31 35h1M62 35h1M32 36h5M56 36h6M37 37h3M53 37h6M35 38h2M40 38h2M51 38h2M59 38h2M34 39h1M42 39h1M50 39h1M61 39h1M33 40h1M43 40h1M49 40h1M62 40h1M32 41h1M63 41h1M32 42h1M63 42h1M64 43h1M31 44h1M64 44h1M64 45h1M30 46h1M65 46h1M30 47h1M65 47h1M30 48h1M65 48h1M29 49h1M66 49h1M29 50h1M66 50h1M29 51h1M66 51h1M29 52h1M66 52h1M29 53h1M66 53h1M29 54h1M65 54h1M30 55h1M65 55h1M30 56h1M64 56h1M31 57h1M64 57h1M31 58h1M63 58h1M32 59h1M62 59h1M33 60h1M61 60h1M34 61h2M59 61h2M62 61h1M36 62h3M56 62h3M63 62h1M36 63h1M39 63h4M51 63h5M63 63h1M34 64h2M39 64h1M43 64h8M55 64h1M63 64h1M33 65h1M38 65h2M55 65h1M62 65h1M32 66h1M37 66h1M39 66h1M54 66h1M60 66h2M32 67h1M37 67h1M40 67h1M54 67h1M57 67h3M33 68h1M36 68h1M40 68h1M53 68h1M57 68h1M34 69h3M41 69h1M52 69h1M57 69h1M36 70h1M42 70h2M50 70h2M57 70h1M35 71h1M44 71h6M57 71h1" />
<path stroke="#ffffff" d="M53 28h3M51 29h3M37 30h4M50 30h5M35 31h3M52 31h2M34 33h4M54 33h4M32 34h4M55 34h2M56 35h3M37 38h1M36 39h1M38 39h1M35 40h1M37 40h1M39 40h1M33 41h2M36 41h1M38 41h1M33 42h1M35 42h1M37 42h1M39 42h1M32 43h3M36 43h1M38 43h1M59 43h2M32 44h4M37 44h1M59 44h3M31 45h8M54 45h4M60 45h2M32 46h10M49 46h10M31 47h1M33 47h25M32 48h1M34 48h1M36 48h19M56 48h1M31 49h1M33 49h1M35 49h1M37 49h13M51 49h1M53 49h1M55 49h1M32 50h1M34 50h1M41 50h8M50 50h1M52 50h1M54 50h1M61 61h1M59 62h4M37 63h2M56 63h7M36 64h3M56 64h7M34 65h4M56 65h6M33 66h4M57 66h3M33 67h4M34 68h2" />
<path stroke="#efc521" d="M37 29h1M54 29h4M35 30h1M41 30h1M49 30h1M55 30h1M38 31h6M48 31h4M40 32h5M48 32h5M32 33h1M38 33h2M42 33h4M47 33h4M53 33h1M58 33h2M31 34h1M36 34h6M43 34h3M47 34h3M51 34h4M57 34h5M32 35h24M59 35h3M37 36h19M40 37h13M38 38h2M42 38h9M53 38h6M35 39h1M37 39h1M39 39h3M43 39h7M51 39h10M34 40h1M36 40h1M38 40h1M40 40h3M44 40h5M50 40h12M35 41h1M37 41h1M39 41h24M34 42h1M36 42h1M38 42h1M40 42h23M31 43h1M35 43h1M37 43h1M39 43h20M61 43h3M36 44h1M38 44h21M62 44h2M30 45h1M39 45h15M58 45h2M62 45h2M31 46h1M42 46h7M59 46h6M32 47h1M58 47h7M31 48h1M33 48h1M35 48h1M55 48h1M57 48h8M30 49h1M32 49h1M34 49h1M36 49h1M50 49h1M52 49h1M54 49h1M56 49h10M30 50h2M33 50h1M35 50h6M49 50h1M51 50h1M53 50h1M55 50h11M30 51h36M30 52h36M30 53h36M30 54h35M31 55h34M31 56h33M32 57h32M32 58h31M33 59h29M34 60h27M36 61h23M39 62h17M43 63h8M40 64h3M51 64h4M40 65h15M40 66h14M41 67h13M41 68h12M42 69h10M44 70h6" />
<path stroke="#a5089c" d="M38 66h1M55 66h2M38 67h2M55 67h2M37 68h3M54 68h3M37 69h4M53 69h4M37 70h5M52 70h5M36 71h8M50 71h7" />
</svg>