<svg xmlns="http://www.w3.org/2000/svg" viewBox="0 -0.5 96 96" shape-rendering="crispEdges">
<metadata>Made with Pixels to Svg https://codepen.io/shshaw/pen/XbxvNj</metadata>
<path stroke="#63c508" d="M50 25h1M49 26h1M52 27h3M51 28h5M51 29h5M51 30h5M52 31h5M52 32h5M52 33h5M52 34h6M50 35h1M52 35h6M53 36h5M53 37h6M53 38h6M53 39h7M53 40h7M46 41h1M52 41h10M45 42h1M52 42h11M53 43h11M52 44h1M54 44h7M63 44h2M43 45h1M51 45h1M53 45h10M64 45h2M50 46h1M52 46h1M54 46h4M63 46h1M65 46h2M42 47h2M45 47h1M47 47h1M49 47h1M51 47h1M53 47h6M64 47h3M42 48h1M44 48h1M46 48h1M48 48h1M50 48h1M52 48h7M65 48h3M41 49h3M45 49h1M47 49h1M49 49h10M65 49h3M41 50h19M66 50h3M41 51h19M66 51h3M40 52h20M66 52h3M40 53h21M65 53h5M40 54h23M65 54h4M39 55h24M65 55h3M39 56h25M65 56h2M68 56h1M31 57h1M39 57h25M65 57h3M30 58h1M34 58h3M38 58h30M32 59h6M39 59h28M31 60h8M40 60h26M26 61h1M32 61h8M41 61h2M45 61h20M28 62h1M34 62h7M47 62h7M56 62h8M24 63h1M27 63h5M35 63h7M45 63h2M48 63h6M57 63h7M26 64h16M43 64h1M46 64h2M49 64h4M57 64h7M25 65h13M42 65h1M44 65h1M46 65h2M49 65h4M58 65h7M27 66h9M38 66h4M44 66h1M47 66h2M50 66h3M58 66h7M30 67h5M39 67h5M45 67h1M47 67h2M50 67h4M57 67h9M31 68h3M39 68h5M45 68h4M50 68h5M57 68h9M27 69h6M38 69h7M49 69h6M56 69h3M60 69h7M24 70h1M27 70h6M36 70h10M47 70h2M50 70h9M60 70h7M26 71h6M33 71h12M46 71h4M51 71h9M61 71h6" />
<path stroke="#000000" d="M51 25h4M55 26h1M49 27h1M55 27h1M49 28h1M56 28h1M49 29h1M56 29h1M50 30h1M56 30h1M50 31h1M57 31h1M50 32h1M57 32h1M50 33h1M57 33h1M50 34h1M58 34h1M58 35h1M51 36h1M58 36h1M51 37h1M59 37h1M51 38h1M59 38h1M50 39h2M60 39h1M48 40h2M60 40h2M47 41h1M62 41h1M63 42h1M44 43h1M64 43h1M43 44h1M65 44h1M42 45h1M66 45h1M42 46h1M58 46h3M67 46h1M41 47h1M59 47h1M62 47h2M67 47h1M41 48h1M62 48h1M64 48h1M68 48h1M40 49h1M64 49h1M68 49h1M40 50h1M63 50h1M65 50h1M69 50h1M40 51h1M63 51h3M69 51h1M39 52h1M64 52h1M69 52h2M39 53h1M62 53h3M70 53h1M39 54h1M63 54h2M69 54h2M38 55h1M64 55h1M68 55h2M33 56h2M38 56h1M64 56h1M67 56h1M69 56h1M32 57h1M35 57h2M38 57h1M68 57h1M37 58h1M68 58h1M29 59h1M38 59h1M67 59h1M30 60h1M39 60h1M66 60h1M27 61h2M30 61h2M40 61h1M43 61h2M65 61h1M25 62h1M29 62h5M41 62h2M45 62h2M54 62h1M64 62h1M33 63h2M42 63h1M47 63h1M54 63h2M64 63h1M24 64h1M42 64h1M48 64h1M54 64h3M64 64h1M24 65h1M38 65h4M43 65h1M48 65h1M53 65h5M65 65h1M25 66h2M36 66h2M42 66h2M49 66h1M53 66h5M65 66h1M27 67h2M35 67h1M44 67h1M49 67h1M54 67h3M66 67h1M26 68h4M34 68h1M44 68h1M49 68h1M55 68h1M66 68h1M25 69h1M33 69h1M45 69h4M67 69h1M33 70h1M46 70h1M49 70h1M59 70h1M67 70h1M24 71h1M32 71h1M45 71h1M50 71h1M60 71h1M67 71h1" />
<path stroke="#ffffff" d="M50 26h5M50 27h2M50 28h1M50 29h1M51 31h1M51 32h1M51 33h1M51 34h1M51 35h1M52 36h1M52 37h1M52 38h1M52 39h1M50 40h1M52 40h1M48 41h3M46 42h6M45 43h8M44 44h8M53 44h1M44 45h7M52 45h1M43 46h7M51 46h1M53 46h1M44 47h1M46 47h1M48 47h1M50 47h1M52 47h1M60 47h2M43 48h1M45 48h1M47 48h1M49 48h1M51 48h1M60 48h2M44 49h1M46 49h1M48 49h1M60 49h3M61 50h2M64 50h1M61 51h2M61 52h2M33 57h2M31 58h3M30 59h2M26 62h2M43 62h2M25 63h2M43 63h2M25 64h1M44 64h2M45 65h1M45 66h2M36 67h3M46 67h1M35 68h4M26 69h1M34 69h4M25 70h2M34 70h2M25 71h1" />
<path stroke="#ce3a84" d="M51 40h1M51 41h1M61 44h2M63 45h1M61 46h2M64 46h1M59 48h1M63 48h1M59 49h1M63 49h1M60 50h1M60 51h1M60 52h1M63 52h1M65 52h1M61 53h1M63 55h1M64 57h1M55 62h1M32 63h1M56 63h1M53 64h1M29 67h1M30 68h1M56 68h1M55 69h1M59 69h1" />
</svg>