<svg xmlns="http://www.w3.org/2000/svg" viewBox="0 -0.5 96 96" shape-rendering="crispEdges">
<metadata>Made with Pixels to Svg https://codepen.io/shshaw/pen/XbxvNj</metadata>
<path stroke="#000000" d="M53 25h2M52 26h1M55 26h1M58 26h2M52 27h1M55 27h1M60 27h1M45 28h1M48 28h1M52 28h1M56 28h1M45 29h1M52 29h1M56 29h2M61 29h1M35 30h2M45 30h1M49 30h1M52 30h1M57 30h1M30 31h1M38 31h2M46 31h1M50 31h1M52 31h1M57 31h1M62 31h1M31 32h1M41 32h2M46 32h1M51 32h1M57 32h1M63 32h1M32 33h1M43 33h2M46 33h1M58 33h1M63 33h1M33 34h1M45 34h2M58 34h1M64 34h1M35 35h1M46 35h1M58 35h1M64 35h1M36 36h1M46 36h1M58 36h1M65 36h1M37 37h1M45 37h2M50 37h2M59 37h1M65 37h1M38 38h1M44 38h2M47 38h2M59 38h1M66 38h1M33 39h7M43 39h1M55 39h2M59 39h1M66 39h1M28 40h2M42 40h1M54 40h1M57 40h3M67 40h1M54 41h1M59 41h1M67 41h1M25 42h1M54 42h1M60 42h1M67 42h1M26 43h2M55 43h1M68 43h1M28 44h2M55 44h1M62 44h1M68 44h1M30 45h2M56 45h1M68 45h1M32 46h2M36 46h1M56 46h1M68 46h1M34 47h3M56 47h1M69 47h1M35 48h1M57 48h1M69 48h1M32 49h3M57 49h1M69 49h1M30 50h2M57 50h1M69 50h1M56 51h1M59 51h1M69 51h1M26 52h1M35 52h1M53 52h6M66 52h2M69 52h1M27 53h2M34 53h1M52 53h1M66 53h3M29 54h2M34 54h1M37 54h1M52 54h1M66 54h3M31 55h3M35 55h2M41 55h3M53 55h1M65 55h3M33 56h2M44 56h2M54 56h1M65 56h3M33 57h1M46 57h2M54 57h2M65 57h2M33 58h1M48 58h1M55 58h1M65 58h2M32 59h1M49 59h1M56 59h1M66 59h1M32 60h1M50 60h1M56 60h1M66 60h1M32 61h1M51 61h1M57 61h1M65 61h1M32 62h1M52 62h1M57 62h1M65 62h1M32 63h1M53 63h1M58 63h1M64 63h1M31 64h1M53 64h1M58 64h1M64 64h1M31 65h1M54 65h1M63 65h1M31 66h1M54 66h1M58 66h1M62 66h1M31 67h1M33 67h1M55 67h1M58 67h1M61 67h2M31 68h2M37 68h3M55 68h1M57 68h1M61 68h1M31 69h1M40 69h2M55 69h1M57 69h1M60 69h1M31 70h1M42 70h1M56 70h1M59 70h1M31 71h1M43 71h1M55 71h1M58 71h1" />
<path stroke="#7ba5e6" d="M53 26h2M53 27h2M53 28h3M59 28h2M46 29h1M53 29h3M59 29h2M46 30h2M53 30h4M60 30h2M32 31h6M47 31h2M53 31h4M58 31h1M60 31h2M32 32h9M47 32h4M52 32h5M58 32h1M60 32h3M33 33h10M47 33h11M59 33h1M61 33h2M35 34h10M47 34h11M59 34h1M61 34h3M36 35h10M47 35h11M59 35h5M37 36h9M47 36h5M60 36h5M38 37h7M47 37h2M52 37h7M60 37h5M39 38h5M46 38h1M51 38h8M60 38h6M40 39h3M44 39h1M49 39h6M57 39h2M60 39h6M32 40h10M43 40h1M45 40h1M48 40h6M60 40h7M29 41h14M44 41h1M47 41h7M57 41h2M60 41h7M27 42h15M43 42h1M46 42h8M57 42h3M61 42h6M28 43h12M41 43h2M46 43h9M57 43h4M62 43h6M30 44h9M40 44h2M43 44h1M45 44h10M58 44h4M64 44h4M32 45h9M42 45h1M45 45h11M58 45h10M34 46h2M37 46h3M41 46h1M44 46h12M58 46h10M37 47h4M43 47h13M57 47h12M36 48h4M43 48h14M58 48h11M35 49h4M40 49h1M43 49h14M58 49h11M33 50h5M39 50h1M42 50h15M58 50h11M31 51h8M42 51h14M57 51h2M60 51h9M29 52h6M36 52h2M39 52h1M41 52h12M59 52h7M68 52h1M29 53h5M35 53h4M41 53h11M53 53h13M69 53h1M31 54h3M35 54h2M41 54h11M53 54h12M34 55h1M37 55h1M40 55h1M44 55h9M54 55h11M35 56h2M40 56h4M46 56h8M55 56h10M34 57h3M39 57h7M48 57h6M56 57h9M34 58h2M37 58h1M39 58h9M49 58h6M56 58h9M33 59h4M39 59h10M50 59h6M57 59h8M33 60h3M39 60h11M51 60h5M57 60h9M33 61h2M36 61h1M38 61h13M52 61h5M58 61h7M33 62h3M38 62h14M53 62h4M58 62h7M33 63h2M36 63h1M38 63h15M54 63h4M59 63h5M32 64h2M35 64h1M38 64h15M54 64h4M59 64h1M61 64h3M32 65h3M37 65h17M55 65h3M60 65h1M62 65h1M32 66h2M35 66h1M37 66h17M55 66h3M59 66h1M61 66h1M32 67h1M37 67h18M56 67h2M60 67h1M33 68h1M40 68h15M56 68h1M32 69h3M37 69h3M42 69h13M56 69h1M32 70h2M37 70h5M43 70h13M32 71h1M34 71h1M37 71h6M44 71h11" />
<path stroke="#7b3131" d="M57 26h1M46 27h2M56 27h1M61 28h1M31 29h4M48 29h2M30 30h1M37 30h1M62 30h1M40 31h1M34 34h1M34 35h1M52 36h6M59 36h1M49 37h1M30 39h3M26 40h2M25 41h1M40 43h1M61 43h1M39 44h1M63 44h1M28 50h2M26 51h2M38 54h3M65 54h1M67 57h1M65 59h1M60 64h1M58 65h2M61 65h1M60 66h1M34 67h3M59 67h1M58 68h3M58 69h2M57 70h2M56 71h2" />
<path stroke="#ffffff" d="M57 27h3M46 28h2M57 28h2M47 29h1M58 29h1M31 30h4M48 30h1M58 30h2M31 31h1M49 31h1M59 31h1M59 32h1M60 33h1M60 34h1M49 38h2M45 39h4M30 40h2M44 40h1M46 40h2M55 40h2M26 41h3M43 41h1M45 41h2M55 41h2M26 42h1M42 42h1M44 42h2M55 42h2M43 43h3M56 43h1M42 44h1M44 44h1M56 44h2M41 45h1M43 45h2M57 45h1M40 46h1M42 46h2M57 46h1M41 47h2M40 48h3M39 49h1M41 49h2M32 50h1M38 50h1M40 50h2M28 51h3M39 51h3M27 52h2M38 52h1M40 52h1M39 53h2M38 55h2M37 56h3M37 57h2M36 58h1M38 58h1M37 59h2M36 60h3M35 61h1M37 61h1M36 62h2M35 63h1M37 63h1M34 64h1M36 64h2M35 65h2M34 66h1M36 66h1M34 68h3M35 69h2M34 70h3M33 71h1M35 71h2" />
</svg>