<svg xmlns="http://www.w3.org/2000/svg" viewBox="0 -0.5 96 96" shape-rendering="crispEdges">
<metadata>Made with Pixels to Svg https://codepen.io/shshaw/pen/XbxvNj</metadata>
<path stroke="#000000" d="M40 24h5M41 25h6M41 26h1M43 26h6M25 27h6M42 27h1M45 27h6M24 28h4M29 28h1M31 28h4M43 28h1M47 28h6M27 29h2M30 29h1M32 29h1M34 29h4M44 29h1M49 29h6M29 30h3M33 30h1M35 30h1M37 30h3M45 30h1M51 30h5M31 31h2M34 31h1M36 31h1M38 31h4M45 31h1M52 31h5M31 32h3M35 32h1M37 32h6M46 32h1M53 32h4M32 33h12M47 33h1M54 33h5M33 34h12M47 34h1M55 34h4M33 35h13M48 35h1M55 35h5M34 36h13M48 36h1M56 36h5M34 37h13M49 37h1M56 37h5M33 38h17M57 38h4M33 39h14M50 39h1M57 39h5M32 40h11M50 40h1M58 40h4M31 41h9M50 41h1M58 41h4M29 42h9M50 42h1M58 42h4M27 43h6M34 43h3M50 43h1M57 43h5M26 44h4M35 44h1M49 44h1M57 44h4M62 44h1M26 45h2M34 45h1M49 45h1M56 45h4M63 45h1M25 46h2M48 46h1M54 46h5M64 46h1M25 47h2M29 47h1M33 47h1M47 47h1M52 47h4M64 47h1M25 48h2M30 48h1M32 48h1M48 48h4M65 48h1M26 49h2M29 49h2M32 49h1M46 49h4M66 49h1M27 50h3M45 50h3M66 50h1M31 51h1M45 51h2M50 51h1M31 52h1M45 52h2M51 52h1M67 52h1M31 53h1M45 53h2M51 53h1M67 53h1M30 54h1M46 54h2M50 54h2M67 54h1M30 55h1M47 55h4M67 55h1M30 56h1M29 57h1M66 57h1M29 58h1M66 58h1M29 59h1M65 59h1M29 60h1M64 60h1M29 61h5M64 61h1M28 62h1M30 62h1M32 62h1M34 62h7M60 62h2M63 62h1M28 63h2M31 63h1M33 63h1M35 63h1M37 63h9M62 63h3M28 64h1M30 64h5M36 64h1M38 64h11M65 64h4M28 65h1M34 65h18M66 65h2M69 65h1M27 66h1M41 66h12M67 66h4M27 67h1M46 67h6M67 67h4M27 68h1M68 68h2M27 69h1M68 69h2M26 70h1M67 70h2M26 71h8M65 71h2" />
<path stroke="#ff6300" d="M47 25h1M49 26h1M44 27h1M51 27h1M28 28h1M30 28h1M45 28h1M26 29h1M29 29h1M31 29h1M33 29h1M46 29h1M48 29h1M32 30h1M34 30h1M36 30h1M47 30h1M49 30h1M30 31h1M33 31h1M35 31h1M37 31h1M46 31h1M48 31h1M50 31h1M34 32h1M36 32h1M47 32h1M49 32h1M51 32h1M57 32h1M48 33h1M32 34h1M54 34h1M59 34h1M60 35h1M33 36h1M33 37h1M61 38h1M47 39h3M43 40h7M57 40h1M40 41h10M38 42h2M44 42h6M37 43h1M45 43h5M30 44h1M36 44h1M45 44h4M61 44h1M25 45h1M44 45h5M60 45h3M27 46h1M33 46h1M42 46h6M59 46h5M41 47h6M56 47h8M33 48h1M40 48h7M52 48h13M33 49h1M35 49h1M37 49h1M39 49h7M50 49h14M32 50h1M34 50h1M36 50h1M38 50h7M48 50h15M33 51h1M35 51h1M37 51h1M39 51h6M47 51h3M51 51h12M67 51h1M32 52h1M34 52h1M36 52h1M38 52h7M47 52h4M52 52h10M33 53h1M35 53h1M37 53h8M47 53h4M52 53h10M32 54h1M34 54h1M36 54h10M48 54h2M52 54h10M31 55h1M33 55h1M35 55h12M51 55h12M31 56h32M67 56h1M30 57h34M30 58h36M30 59h35M30 60h34M28 61h1M34 61h30M29 62h1M31 62h1M33 62h1M41 62h19M62 62h1M30 63h1M32 63h1M34 63h1M36 63h1M46 63h14M61 63h1M29 64h1M35 64h1M37 64h1M49 64h10M60 64h1M62 64h1M64 64h1M69 64h1M29 65h1M31 65h1M33 65h1M52 65h6M59 65h1M61 65h1M63 65h3M68 65h1M70 65h1M28 66h1M30 66h1M32 66h1M34 66h7M53 66h6M60 66h1M62 66h5M29 67h1M31 67h1M33 67h1M35 67h11M52 67h15M28 68h1M30 68h1M32 68h1M34 68h34M70 68h1M29 69h1M31 69h1M33 69h1M35 69h33M27 70h2M30 70h1M32 70h35M34 71h31" />
<path stroke="#ffd63a" d="M42 26h1M43 27h1M44 28h1M46 28h1M45 29h1M47 29h1M46 30h1M48 30h1M50 30h1M47 31h1M49 31h1M51 31h1M48 32h1M50 32h1M52 32h1M49 33h5M48 34h6M49 35h6M49 36h7M50 37h6M50 38h7M51 39h6M51 40h6M51 41h7M40 42h4M51 42h7M38 43h7M51 43h6M37 44h8M50 44h7M35 45h9M50 45h6M34 46h8M49 46h5M34 47h7M48 47h4M34 48h6M47 48h1M34 49h1M36 49h1M38 49h1M64 49h2M33 50h1M35 50h1M37 50h1M63 50h2M32 51h1M34 51h1M36 51h1M38 51h1M63 51h1M65 51h1M33 52h1M35 52h1M37 52h1M62 52h3M66 52h1M32 53h1M34 53h1M36 53h1M62 53h2M65 53h1M31 54h1M33 54h1M35 54h1M62 54h3M66 54h1M32 55h1M34 55h1M63 55h4M63 56h4M64 57h2M60 63h1M59 64h1M61 64h1M63 64h1M30 65h1M32 65h1M58 65h1M60 65h1M62 65h1M29 66h1M31 66h1M33 66h1M59 66h1M61 66h1M28 67h1M30 67h1M32 67h1M34 67h1M29 68h1M31 68h1M33 68h1M28 69h1M30 69h1M32 69h1M34 69h1M29 70h1M31 70h1" />
<path stroke="#ffffff" d="M65 50h1M64 51h1M66 51h1M65 52h1M64 53h1M66 53h1M65 54h1" />
</svg>