<svg xmlns="http://www.w3.org/2000/svg" viewBox="0 -0.5 96 96" shape-rendering="crispEdges">
<metadata>Made with Pixels to Svg https://codepen.io/shshaw/pen/XbxvNj</metadata>
<path stroke="#527bff" d="M51 36h1M49 37h1M52 37h5M48 38h1M53 38h6M47 39h1M53 39h7M46 40h1M51 40h10M50 41h1M52 41h10M47 42h1M49 42h1M51 42h9M61 42h1M46 43h1M48 43h1M50 43h10M45 44h15M62 44h1M45 45h15M62 45h1M45 46h15M62 46h1M45 47h15M62 47h1M45 48h16M62 48h1M46 49h18M51 50h7M59 50h5M53 51h6M55 52h7M56 53h5M58 54h2M61 55h6M59 56h8M59 57h7M59 58h7M59 59h6M60 60h3M60 61h1M33 67h1M32 68h4M58 68h2M31 69h5M57 69h3M28 70h9M57 70h4M28 71h4M33 71h6M56 71h5" />
<path stroke="#000000" d="M52 36h5M50 37h1M57 37h2M59 38h1M60 39h1M61 40h1M46 41h1M62 41h1M45 42h1M60 42h1M62 42h1M45 43h1M60 43h1M62 43h1M44 44h1M60 44h1M63 44h1M44 45h1M60 45h2M63 45h1M44 46h1M60 46h2M63 46h1M44 47h1M60 47h2M63 47h1M44 48h1M61 48h1M63 48h1M45 49h1M64 49h1M45 50h6M58 50h1M64 50h1M43 51h2M51 51h2M59 51h5M42 52h1M53 52h2M62 52h1M41 53h1M43 53h8M55 53h1M61 53h1M64 53h2M41 54h2M46 54h1M51 54h2M56 54h2M60 54h4M66 54h1M40 55h1M45 55h1M53 55h1M57 55h4M67 55h1M39 56h1M44 56h1M54 56h1M57 56h2M67 56h1M38 57h1M42 57h3M54 57h1M58 57h1M66 57h1M37 58h1M40 58h2M45 58h1M52 58h2M55 58h1M58 58h1M66 58h1M37 59h1M39 59h1M46 59h1M50 59h2M55 59h1M58 59h1M65 59h1M36 60h1M39 60h1M47 60h3M56 60h1M59 60h1M63 60h2M36 61h1M38 61h1M47 61h1M56 61h1M59 61h1M61 61h2M36 62h1M38 62h1M47 62h1M56 62h1M59 62h2M35 63h1M46 63h1M56 63h1M59 63h1M35 64h1M38 64h1M46 64h1M56 64h1M59 64h1M35 65h1M37 65h2M44 65h2M56 65h1M59 65h1M31 66h3M35 66h2M39 66h1M42 66h2M46 66h1M55 66h1M58 66h1M29 67h2M34 67h2M40 67h2M47 67h1M55 67h1M58 67h2M28 68h1M36 68h1M40 68h1M47 68h1M54 68h1M57 68h1M60 68h1M28 69h1M36 69h1M40 69h1M48 69h1M53 69h1M56 69h1M60 69h1M27 70h1M37 70h2M40 70h1M49 70h1M52 70h1M56 70h1M61 70h1M27 71h1M32 71h1M39 71h2M49 71h1M52 71h1M55 71h1M61 71h1" />
<path stroke="#ffffff" d="M51 37h1M49 38h4M48 39h5M47 40h4M47 41h3M51 41h1M46 42h1M48 42h1M50 42h1M47 43h1M49 43h1M61 43h1M61 44h1M45 51h6M43 52h10M42 53h1M51 53h4M47 54h1M49 54h1M53 54h3M64 54h2M43 55h2M46 55h1M48 55h1M54 55h3M41 56h3M45 56h1M47 56h1M49 56h1M55 56h2M40 57h2M45 57h2M48 57h1M55 57h3M39 58h1M42 58h2M47 58h1M56 58h2M38 59h1M40 59h3M44 59h1M56 59h2M38 60h1M40 60h4M45 60h1M57 60h2M37 61h1M39 61h4M44 61h1M57 61h2M37 62h1M39 62h3M57 62h2M37 63h3M57 63h2M36 64h1M57 64h2M57 65h2M37 66h1M56 66h2M31 67h2M36 67h1M56 67h2M29 68h3M41 68h1M55 68h2M29 69h2M41 69h1M54 69h2M53 70h3M53 71h2" />
<path stroke="#b59442" d="M43 54h3M48 54h1M50 54h1M41 55h2M47 55h1M49 55h4M40 56h1M46 56h1M48 56h1M50 56h4M39 57h1M47 57h1M49 57h5M38 58h1M44 58h1M46 58h1M48 58h4M54 58h1M43 59h1M45 59h1M47 59h3M52 59h3M37 60h1M44 60h1M46 60h1M50 60h6M43 61h1M45 61h2M48 61h8M42 62h5M48 62h8M36 63h1M40 63h6M47 63h9M37 64h1M39 64h7M47 64h9M36 65h1M39 65h5M46 65h10M38 66h1M40 66h2M44 66h2M47 66h8M37 67h3M42 67h5M48 67h7M37 68h3M42 68h5M48 68h6M37 69h3M42 69h6M49 69h4M39 70h1M41 70h8M50 70h2M41 71h8M50 71h2" />
</svg>