<svg xmlns="http://www.w3.org/2000/svg" viewBox="0 -0.5 96 96" shape-rendering="crispEdges">
<metadata>Made with Pixels to Svg https://codepen.io/shshaw/pen/XbxvNj</metadata>
<path stroke="#425a3a" d="M54 33h1M48 35h1M53 35h1M47 36h1M54 36h1M54 37h1M46 38h1M48 38h1M54 38h1M46 39h1M54 39h2M58 39h2M49 40h1M57 41h2M45 42h1M51 42h1M55 42h4M49 43h1M51 43h1M54 43h4M48 44h1M50 44h1M52 44h1M54 44h1M45 45h1M47 45h3M51 45h1M45 46h4M50 46h1M45 47h3M49 47h1M51 47h1M44 48h3M48 48h1M50 48h1M52 48h1M49 49h1M51 49h1M47 50h1M55 50h1M46 51h3M45 52h3M55 52h2M53 53h1M55 53h4M53 54h1M55 54h1M58 54h2M37 55h2M40 55h1M52 55h1M54 55h1M34 56h6M41 56h1M53 56h1M55 56h1M34 57h7M42 57h1M54 57h1M33 58h7M41 58h1M55 58h1M32 59h9M66 59h1M31 60h1M33 60h6M46 60h2M49 60h1M55 60h1M65 60h1M67 60h1M32 61h6M47 61h2M50 61h1M52 61h1M54 61h1M56 61h1M64 61h1M66 61h1M31 62h1M33 62h1M35 62h2M44 62h3M48 62h2M51 62h1M53 62h3M57 62h1M67 62h1M30 63h1M32 63h1M34 63h1M36 63h1M43 63h14M58 63h1M60 63h1M64 63h1M66 63h3M31 64h1M33 64h1M35 64h1M43 64h1M45 64h1M47 64h13M61 64h1M63 64h1M65 64h4M40 65h1M42 65h1M44 65h1M46 65h15M62 65h1M64 65h3M39 66h1M41 66h1M43 66h13M60 66h10M42 67h1M44 67h10M62 67h9M29 68h2M39 68h1M41 68h1M43 68h10M59 68h1M63 68h2M66 68h1M68 68h3M38 69h1M40 69h1M42 69h10M57 69h2M65 69h1M67 69h1M69 69h1M27 70h1M34 70h2M37 70h1M39 70h8M48 70h1M50 70h1M52 70h1M57 70h2M66 70h1M68 70h1M70 70h1M33 71h13M47 71h1M49 71h1M57 71h2M65 71h1M67 71h1M69 71h1" />
<path stroke="#000000" d="M55 33h3M52 34h2M58 34h1M49 35h1M51 35h1M58 35h1M50 36h1M56 36h2M47 37h1M50 37h1M55 37h1M49 38h1M55 38h1M47 39h1M56 39h1M60 39h1M46 40h1M48 40h1M57 40h1M61 40h1M46 41h2M62 41h1M52 42h1M62 42h1M45 43h1M50 43h1M52 43h2M58 43h4M45 44h1M49 44h1M51 44h1M53 44h1M55 44h3M44 45h1M50 45h1M52 45h3M44 46h1M49 46h1M51 46h2M44 47h1M48 47h1M50 47h1M52 47h1M43 48h1M47 48h1M49 48h1M51 48h1M53 48h1M42 49h7M50 49h1M52 49h2M39 50h3M48 50h7M37 51h2M40 51h1M49 51h1M55 51h2M36 52h1M48 52h1M57 52h2M34 53h2M42 53h1M44 53h1M46 53h1M54 53h1M59 53h1M32 54h2M37 54h1M43 54h1M45 54h1M56 54h2M60 54h3M31 55h1M34 55h3M58 55h2M63 55h2M30 56h1M65 56h1M29 57h1M66 57h1M29 58h1M67 58h1M28 59h1M41 59h3M67 59h1M28 60h1M39 60h2M44 60h2M63 60h1M68 60h1M28 61h2M38 61h1M46 61h1M68 61h1M27 62h1M29 62h1M37 62h1M47 62h1M65 62h1M68 62h1M26 63h1M29 63h1M37 63h1M65 63h1M69 63h1M26 64h1M28 64h1M42 64h1M44 64h1M46 64h1M69 64h1M25 65h1M41 65h1M43 65h1M45 65h1M67 65h3M25 66h1M42 66h1M56 66h4M70 66h1M24 67h1M54 67h2M60 67h2M71 67h1M24 68h1M31 68h2M53 68h1M62 68h1M65 68h1M67 68h1M71 68h1M24 69h1M28 69h1M33 69h3M52 69h4M63 69h2M66 69h1M68 69h1M70 69h2M24 70h1M36 70h1M47 70h1M49 70h1M51 70h1M56 70h1M64 70h2M67 70h1M69 70h1M71 70h1M24 71h1M27 71h1M46 71h1M48 71h1M50 71h1M56 71h1M59 71h1M64 71h1M66 71h1M68 71h1M70 71h1" />
<path stroke="#ffffff" d="M54 34h4M48 36h1M47 38h1M58 40h3M61 41h1M42 50h1M44 50h1M41 51h1M50 51h1M52 51h1M49 52h1M51 52h1M32 55h1M60 55h1M31 56h1M33 56h1M57 56h1M59 56h1M61 56h1M30 57h1M32 57h1M56 57h1M58 57h1M60 57h1M57 58h1M59 58h1M61 58h1M58 59h1M41 60h1M43 60h1M40 61h1M42 61h1M39 62h1M41 62h1M27 65h1M29 65h1M26 66h1M28 66h1M25 67h1M27 67h1M29 67h1M56 67h1M58 67h1M26 68h1M28 68h1M55 68h1M57 68h1M60 68h2M29 69h1M31 69h1M59 69h4M28 70h1M30 70h1M53 70h2M59 70h2M29 71h1M51 71h4" />
<path stroke="#8c8c94" d="M52 35h1M54 35h4M49 36h1M51 36h3M55 36h1M48 37h2M51 37h3M50 38h4M48 39h6M47 40h1M50 40h7M48 41h9M59 41h2M46 42h5M53 42h2M59 42h3M46 43h3M46 44h2M46 45h1M43 50h1M45 50h2M39 51h1M42 51h4M51 51h1M53 51h2M37 52h8M50 52h1M52 52h3M36 53h6M43 53h1M45 53h1M47 53h6M34 54h3M38 54h5M44 54h1M46 54h7M54 54h1M33 55h1M39 55h1M41 55h11M53 55h1M55 55h3M61 55h2M32 56h1M40 56h1M42 56h11M54 56h1M56 56h1M58 56h1M60 56h1M62 56h3M31 57h1M33 57h1M41 57h1M43 57h11M55 57h1M57 57h1M59 57h1M61 57h5M30 58h3M40 58h1M42 58h13M56 58h1M58 58h1M60 58h1M62 58h5M29 59h3M44 59h14M59 59h7M29 60h2M32 60h1M42 60h1M48 60h1M50 60h5M56 60h7M64 60h1M66 60h1M30 61h2M39 61h1M41 61h1M43 61h3M49 61h1M51 61h1M53 61h1M55 61h1M57 61h7M65 61h1M67 61h1M28 62h1M30 62h1M32 62h1M34 62h1M38 62h1M40 62h1M42 62h2M50 62h1M52 62h1M56 62h1M58 62h7M66 62h1M27 63h2M31 63h1M33 63h1M35 63h1M38 63h5M57 63h1M59 63h1M61 63h3M27 64h1M29 64h2M32 64h1M34 64h1M36 64h6M60 64h1M62 64h1M64 64h1M26 65h1M28 65h1M30 65h10M61 65h1M63 65h1M27 66h1M29 66h10M40 66h1M26 67h1M28 67h1M30 67h12M43 67h1M57 67h1M59 67h1M25 68h1M27 68h1M33 68h6M40 68h1M42 68h1M54 68h1M56 68h1M58 68h1M25 69h3M30 69h1M32 69h1M36 69h2M39 69h1M41 69h1M56 69h1M25 70h2M29 70h1M31 70h3M38 70h1M55 70h1M61 70h3M25 71h2M28 71h1M30 71h3M55 71h1M60 71h4" />
</svg>