<svg xmlns="http://www.w3.org/2000/svg" viewBox="0 -0.5 56 56" shape-rendering="crispEdges">
<metadata>Made with Pixels to Svg https://codepen.io/shshaw/pen/XbxvNj</metadata>
<path stroke="#ffffff" d="M0 0h40M41 0h4M46 0h10M0 1h40M42 1h2M45 1h1M47 1h9M0 2h40M41 2h1M43 2h1M45 2h1M48 2h8M0 3h34M35 3h5M41 3h2M48 3h8M0 4h34M37 4h3M42 4h2M49 4h7M0 5h35M36 5h1M39 5h1M45 5h3M50 5h6M0 6h21M24 6h11M37 6h2M44 6h5M51 6h5M0 7h19M21 7h3M25 7h11M38 7h2M42 7h8M51 7h5M0 8h16M19 8h3M25 8h11M42 8h2M48 8h3M52 8h4M0 9h14M16 9h2M25 9h12M49 9h2M53 9h3M0 10h12M14 10h3M22 10h16M53 10h3M0 11h12M13 11h3M19 11h19M50 11h2M54 11h2M0 12h11M12 12h2M21 12h18M54 12h2M0 13h9M19 13h1M22 13h17M55 13h1M0 14h8M21 14h1M23 14h17M55 14h1M0 15h7M8 15h1M22 15h1M24 15h15M55 15h1M0 16h6M7 16h1M18 16h2M24 16h15M44 16h1M55 16h1M0 17h5M6 17h1M11 17h3M18 17h3M24 17h13M40 17h1M55 17h1M0 18h4M10 18h4M18 18h18M38 18h1M40 18h2M54 18h2M0 19h3M9 19h5M18 19h18M37 19h2M41 19h1M54 19h2M0 20h2M8 20h6M17 20h17M37 20h3M53 20h3M0 21h2M8 21h11M24 21h9M35 21h1M38 21h2M52 21h4M0 22h2M13 22h3M19 22h5M26 22h7M34 22h2M49 22h7M0 23h2M11 23h2M16 23h2M22 23h4M28 23h4M34 23h3M48 23h8M0 24h3M13 24h1M25 24h2M29 24h2M32 24h1M35 24h2M46 24h10M0 25h4M26 25h2M29 25h1M31 25h2M45 25h11M0 26h5M21 26h1M23 26h1M27 26h2M31 26h3M43 26h13M0 27h6M23 27h2M27 27h2M32 27h1M43 27h13M0 28h7M27 28h2M41 28h15M0 29h9M24 29h4M29 29h2M40 29h16M0 30h11M26 30h2M29 30h2M39 30h17M0 31h12M37 31h19M0 32h12M27 32h2M36 32h20M0 33h12M28 33h1M36 33h20M0 34h12M34 34h22M0 35h12M26 35h2M34 35h22M0 36h13M27 36h1M33 36h23M0 37h13M33 37h23M0 38h13M33 38h23M0 39h14M32 39h24M0 40h14M32 40h24M0 41h15M32 41h24M0 42h16M33 42h23M0 43h6M9 43h7M34 43h22M0 44h6M10 44h2M33 44h1M36 44h20M0 45h7M33 45h1M35 45h1M37 45h19M0 46h8M19 46h2M35 46h1M38 46h18M0 47h9M18 47h6M38 47h18M0 48h7M17 48h9M37 48h1M39 48h17M0 49h6M15 49h10M39 49h17M0 50h6M12 50h12M37 50h1M39 50h17M0 51h22M24 51h1M38 51h18M0 52h21M23 52h1M38 52h18M0 53h22M36 53h20M0 54h21M22 54h1M31 54h25M0 55h21M28 55h28" />
<path stroke="#8c4a29" d="M40 0h1M47 2h1M34 4h1M45 4h1M48 4h1M49 5h1M21 6h1M43 6h1M50 6h1M19 7h1M16 8h1M36 8h1M40 8h1M14 9h1M20 9h2M24 9h1M40 9h1M52 9h1M12 10h1M18 10h1M39 10h2M49 10h1M39 11h3M52 11h2M40 12h2M47 12h2M9 13h1M40 13h3M47 13h3M10 14h1M16 14h4M41 14h3M49 14h6M11 15h2M14 15h1M20 15h1M41 15h2M44 15h1M47 15h2M52 15h2M10 16h1M14 16h1M21 16h1M46 16h8M9 17h1M15 17h1M23 17h1M37 17h1M43 17h1M46 17h8M7 18h1M15 18h1M36 18h1M43 18h3M47 18h6M6 19h2M15 19h1M17 19h1M47 19h4M53 19h1M2 20h1M4 20h2M34 20h1M5 21h2M19 21h1M23 21h1M33 21h1M41 21h1M50 21h2M12 22h1M16 22h1M25 22h1M43 22h5M2 23h1M4 23h4M9 23h1M27 23h1M38 23h1M4 24h2M24 24h1M28 24h1M39 24h5M5 25h1M21 25h1M44 25h1M6 26h1M9 26h1M22 26h1M26 26h1M29 26h1M35 26h1M40 26h2M7 27h4M14 27h2M36 27h5M42 27h1M9 28h6M23 28h3M11 29h3M15 29h1M37 29h1M15 30h1M34 30h3M38 30h1M14 31h3M14 32h3M33 32h2M13 33h4M35 33h1M13 34h5M28 34h1M32 34h1M12 35h6M30 35h3M14 36h5M14 37h6M29 37h2M13 38h10M25 38h4M32 38h1M15 39h8M25 39h6M14 40h9M24 40h6M31 40h1M16 41h14M17 42h12M32 42h1M6 43h1M18 43h11M7 44h1M12 44h1M19 44h8M28 44h2M35 44h1M8 45h1M14 45h2M22 45h10M9 46h1M14 46h2M21 46h1M28 46h3M14 47h2M24 47h1M31 47h2M10 48h1M13 48h2M26 48h1M33 48h3M11 49h1M14 49h1M25 49h1M30 49h1M34 49h1M36 49h1M6 50h1M11 50h1M30 50h1M32 50h1M30 51h1M32 51h1M34 51h1M22 52h1M26 52h2M29 52h1M31 52h1M37 52h1M25 53h1M28 53h2M35 53h1M24 54h4M30 54h1M21 55h1M27 55h1" />
<path stroke="#191919" d="M45 0h1M40 1h2M44 1h1M46 1h1M40 2h1M42 2h1M44 2h1M46 2h1M34 3h1M40 3h1M43 3h2M47 3h1M35 4h2M40 4h1M44 4h1M46 4h2M35 5h1M37 5h2M40 5h2M44 5h1M48 5h1M22 6h2M35 6h1M39 6h4M49 6h1M20 7h1M24 7h1M36 7h1M40 7h1M50 7h1M17 8h2M24 8h1M37 8h1M51 8h1M15 9h1M22 9h2M37 9h3M51 9h1M13 10h1M19 10h3M38 10h1M50 10h3M12 11h1M18 11h1M38 11h1M48 11h1M11 12h1M19 12h2M39 12h1M53 12h1M10 13h1M20 13h2M39 13h1M53 13h1M8 14h2M22 14h1M40 14h1M48 14h1M7 15h1M9 15h2M13 15h1M16 15h4M23 15h1M39 15h2M43 15h1M49 15h3M54 15h1M6 16h1M11 16h3M17 16h1M20 16h1M23 16h1M39 16h4M45 16h1M54 16h1M5 17h1M7 17h1M10 17h1M14 17h1M17 17h1M21 17h2M38 17h2M41 17h2M54 17h1M4 18h1M8 18h2M14 18h1M17 18h1M37 18h1M39 18h1M42 18h1M46 18h1M53 18h1M3 19h1M5 19h1M8 19h1M14 19h1M36 19h1M39 19h1M43 19h4M51 19h2M3 20h1M6 20h2M14 20h3M35 20h2M40 20h1M44 20h9M2 21h3M7 21h1M20 21h3M34 21h1M36 21h1M40 21h1M46 21h4M2 22h1M4 22h8M17 22h2M24 22h1M33 22h1M36 22h1M41 22h2M48 22h1M3 23h1M8 23h1M13 23h3M26 23h1M32 23h2M37 23h1M43 23h5M3 24h1M9 24h1M14 24h1M21 24h3M27 24h1M31 24h1M33 24h1M37 24h2M44 24h2M4 25h1M15 25h1M22 25h4M28 25h1M30 25h1M33 25h1M39 25h5M5 26h1M24 26h2M30 26h1M34 26h1M42 26h1M6 27h1M22 27h1M25 27h2M29 27h2M34 27h2M41 27h1M7 28h2M15 28h1M26 28h1M29 28h3M36 28h5M9 29h2M14 29h1M28 29h1M31 29h1M38 29h2M11 30h4M28 30h1M32 30h2M37 30h1M12 31h2M27 31h3M34 31h3M12 32h2M26 32h1M29 32h2M35 32h1M12 33h1M26 33h1M31 33h4M12 34h1M26 34h2M33 34h1M25 35h1M28 35h2M33 35h1M13 36h1M25 36h2M30 36h3M13 37h1M24 37h1M26 37h2M31 37h2M29 38h3M14 39h1M31 39h1M30 40h1M15 41h1M30 41h2M16 42h1M29 42h3M7 43h2M16 43h2M29 43h1M32 43h2M6 44h1M9 44h1M13 44h6M27 44h1M32 44h1M34 44h1M7 45h1M10 45h3M16 45h6M32 45h1M34 45h1M36 45h1M8 46h1M16 46h3M22 46h6M31 46h1M34 46h1M36 46h2M9 47h3M16 47h2M25 47h6M33 47h1M36 47h2M7 48h3M15 48h2M27 48h6M36 48h1M38 48h1M6 49h1M12 49h2M26 49h4M31 49h3M35 49h1M38 49h1M7 50h4M24 50h6M31 50h1M33 50h3M38 50h1M22 51h2M25 51h1M28 51h2M31 51h1M33 51h1M36 51h2M21 52h1M25 52h1M28 52h1M30 52h1M32 52h1M34 52h1M36 52h1M22 53h1M26 53h2M30 53h5M21 54h1M23 54h1M28 54h2M22 55h5" />
<path stroke="#ef9452" d="M45 3h2M41 4h1M42 5h2M36 6h1M37 7h1M41 7h1M22 8h2M38 8h2M41 8h1M44 8h4M18 9h2M41 9h8M17 10h1M41 10h8M16 11h2M42 11h6M49 11h1M14 12h5M42 12h5M49 12h4M11 13h8M43 13h4M50 13h3M54 13h1M11 14h5M20 14h1M44 14h4M15 15h1M21 15h1M45 15h2M8 16h2M15 16h2M22 16h1M43 16h1M8 17h1M16 17h1M44 17h2M5 18h2M16 18h1M4 19h1M16 19h1M40 19h1M42 19h1M41 20h3M37 21h1M42 21h4M3 22h1M37 22h4M10 23h1M18 23h4M39 23h4M6 24h3M10 24h3M15 24h6M34 24h1M6 25h9M16 25h5M34 25h5M7 26h2M10 26h11M36 26h4M11 27h3M16 27h6M31 27h1M33 27h1M16 28h7M32 28h4M16 29h8M32 29h5M16 30h10M31 30h1M17 31h10M30 31h4M17 32h9M31 32h2M17 33h9M27 33h1M29 33h2M18 34h8M29 34h3M18 35h7M19 36h6M28 36h2M20 37h4M25 37h1M28 37h1M23 38h2M23 39h2M23 40h1M30 43h2M8 44h1M30 44h2M9 45h1M13 45h1M10 46h4M32 46h2M12 47h2M34 47h2M11 48h2M7 49h4M37 49h1M36 50h1M26 51h2M35 51h1M24 52h1M33 52h1M35 52h1M23 53h2" />
</svg>