<svg xmlns="http://www.w3.org/2000/svg" viewBox="0 -0.5 48 48" shape-rendering="crispEdges">
<metadata>Made with Pixels to Svg https://codepen.io/shshaw/pen/XbxvNj</metadata>
<path stroke="#ffffff" d="M0 0h48M0 1h20M24 1h24M0 2h18M21 2h2M24 2h1M28 2h20M0 3h18M22 3h2M27 3h1M31 3h17M0 4h18M23 4h1M29 4h1M31 4h17M0 5h19M24 5h1M28 5h1M31 5h17M0 6h16M18 6h1M28 6h1M30 6h1M32 6h16M0 7h15M17 7h1M27 7h4M32 7h16M0 8h14M19 8h1M29 8h2M32 8h16M0 9h14M30 9h2M33 9h15M0 10h15M30 10h2M33 10h2M39 10h9M0 11h16M31 11h1M35 11h4M41 11h7M0 12h13M33 12h1M37 12h4M42 12h6M0 13h13M37 13h5M43 13h5M0 14h13M37 14h5M43 14h5M0 15h14M38 15h5M44 15h4M0 16h16M25 16h1M42 16h1M44 16h4M0 17h17M23 17h3M44 17h4M0 18h17M43 18h5M0 19h14M43 19h5M0 20h11M14 20h4M42 20h6M0 21h9M12 21h4M41 21h7M0 22h8M10 22h3M39 22h9M0 23h7M8 23h3M27 23h4M37 23h11M0 24h6M7 24h1M26 24h5M33 24h1M36 24h12M0 25h5M26 25h4M34 25h14M0 26h5M32 26h1M35 26h13M0 27h6M33 27h1M36 27h12M0 28h8M31 28h1M35 28h1M38 28h10M0 29h10M19 29h4M30 29h3M37 29h1M40 29h8M0 30h10M18 30h6M31 30h2M39 30h1M41 30h7M0 31h9M18 31h7M40 31h1M42 31h6M0 32h9M18 32h7M28 32h1M42 32h6M0 33h9M19 33h6M30 33h1M42 33h6M0 34h9M20 34h4M30 34h2M37 34h1M41 34h7M0 35h10M29 35h1M31 35h2M36 35h12M0 36h11M30 36h1M32 36h16M0 37h11M31 37h1M33 37h15M0 38h12M31 38h1M33 38h15M0 39h12M25 39h1M32 39h1M34 39h14M0 40h13M24 40h2M32 40h1M34 40h14M0 41h16M22 41h4M34 41h14M0 42h26M33 42h15M0 43h27M33 43h15M0 44h27M33 44h15M0 45h28M33 45h15M0 46h29M32 46h16M0 47h48" />
<path stroke="#191919" d="M20 1h3M19 2h1M23 2h1M25 2h2M18 3h1M24 3h1M28 3h2M18 4h1M24 4h2M28 4h1M30 4h1M19 5h1M25 5h1M16 6h2M19 6h1M26 6h1M29 6h1M15 7h1M18 7h3M31 7h1M14 8h1M20 8h2M31 8h1M14 9h1M15 10h2M32 10h1M36 10h2M17 11h1M32 11h3M39 11h1M14 12h5M32 12h1M41 12h1M13 13h1M21 13h1M32 13h1M13 14h1M22 14h2M31 14h2M42 14h1M14 15h2M22 15h1M24 15h2M30 15h3M16 16h2M23 16h1M31 16h2M43 16h1M18 17h1M31 17h3M43 17h1M18 18h2M31 18h5M42 18h1M15 19h5M29 19h2M33 19h2M36 19h1M38 19h1M41 19h1M12 20h2M19 20h3M27 20h1M30 20h1M34 20h2M37 20h1M39 20h3M10 21h2M20 21h4M26 21h1M29 21h3M34 21h6M9 22h1M20 22h8M31 22h7M7 23h1M21 23h2M32 23h2M36 23h1M6 24h1M21 24h1M32 24h1M34 24h1M21 25h1M32 25h2M5 26h1M19 26h3M30 26h2M33 26h1M6 27h2M16 27h7M28 27h3M34 27h2M9 28h7M22 28h2M27 28h3M32 28h1M34 28h1M36 28h1M10 29h4M24 29h5M33 29h1M38 29h1M10 30h1M12 30h1M25 30h2M33 30h1M40 30h1M12 31h1M25 31h2M29 31h1M32 31h2M9 32h1M11 32h1M26 32h1M29 32h7M41 32h1M9 33h1M11 33h1M26 33h4M32 33h2M36 33h2M40 33h1M11 34h2M26 34h4M32 34h1M36 34h1M38 34h2M10 35h2M13 35h1M26 35h2M30 35h1M33 35h3M11 36h2M26 36h1M31 36h1M12 37h2M15 37h1M25 37h1M32 37h1M12 38h3M16 38h1M18 38h1M24 38h2M32 38h1M13 39h3M17 39h1M19 39h1M21 39h1M23 39h1M26 39h1M14 40h9M26 40h2M33 40h1M17 41h4M26 41h3M33 41h1M26 42h1M29 42h4M27 43h1M31 43h2M27 44h1M32 44h1M28 45h1M29 46h3" />
<path stroke="#8c4a29" d="M23 1h1M18 2h1M27 2h1M19 3h1M25 3h1M30 3h1M19 4h1M20 5h1M26 5h1M29 5h1M20 6h2M31 6h1M21 7h1M15 8h1M22 8h1M15 9h2M32 9h1M17 10h1M35 10h1M38 10h1M16 11h1M18 11h1M40 11h1M13 12h1M34 12h2M22 13h1M31 13h1M33 13h3M42 13h1M14 14h3M24 14h1M30 14h1M33 14h3M16 15h4M33 15h4M43 15h1M18 16h2M22 16h1M26 16h1M30 16h1M33 16h6M17 17h1M19 17h2M30 17h1M34 17h8M17 18h1M20 18h2M30 18h1M36 18h6M14 19h1M20 19h4M31 19h2M35 19h1M37 19h1M39 19h2M42 19h1M11 20h1M18 20h1M22 20h5M28 20h1M31 20h3M36 20h1M38 20h1M9 21h1M18 21h2M24 21h2M27 21h1M32 21h2M40 21h1M8 22h1M18 22h2M28 22h1M30 22h1M38 22h1M17 23h4M23 23h1M17 24h4M22 24h1M35 24h1M5 25h3M16 25h5M22 25h1M6 26h4M13 26h6M22 26h1M29 26h1M34 26h1M8 27h8M23 27h1M27 27h1M8 28h1M16 28h3M21 28h1M24 28h3M30 28h1M37 28h1M14 29h4M23 29h1M39 29h1M11 30h1M13 30h4M24 30h1M27 30h1M29 30h1M34 30h1M9 31h1M11 31h1M13 31h4M30 31h1M34 31h3M41 31h1M12 32h5M25 32h1M36 32h3M12 33h6M31 33h1M34 33h2M38 33h2M41 33h1M9 34h2M13 34h5M25 34h1M33 34h3M40 34h1M12 35h1M14 35h6M24 35h2M28 35h1M13 36h13M27 36h1M11 37h1M14 37h1M16 37h9M26 37h2M15 38h1M17 38h1M19 38h5M26 38h3M12 39h1M16 39h1M18 39h1M20 39h1M22 39h1M24 39h1M27 39h2M33 39h1M13 40h1M23 40h1M28 40h2M16 41h1M21 41h1M29 41h3M27 42h2M28 43h3M28 44h2M32 45h1" />
<path stroke="#ef9452" d="M20 2h1M20 3h2M26 3h1M20 4h3M26 4h2M21 5h3M27 5h1M30 5h1M22 6h4M27 6h1M16 7h1M22 7h5M16 8h3M23 8h6M17 9h13M18 10h12M19 11h12M19 12h13M36 12h1M14 13h7M23 13h8M36 13h1M17 14h5M25 14h5M36 14h1M20 15h2M23 15h1M26 15h4M37 15h1M20 16h2M24 16h1M27 16h3M39 16h3M21 17h2M26 17h4M42 17h1M22 18h8M24 19h5M29 20h1M16 21h2M28 21h1M13 22h5M29 22h1M11 23h6M24 23h3M31 23h1M34 23h2M8 24h9M23 24h3M31 24h1M8 25h8M23 25h3M30 25h2M10 26h3M23 26h6M24 27h3M31 27h2M19 28h2M33 28h1M18 29h1M29 29h1M34 29h3M17 30h1M28 30h1M30 30h1M35 30h4M10 31h1M17 31h1M27 31h2M31 31h1M37 31h3M10 32h1M17 32h1M27 32h1M39 32h2M10 33h1M18 33h1M25 33h1M18 34h2M24 34h1M20 35h4M28 36h2M28 37h3M29 38h2M29 39h3M30 40h2M32 41h1M30 44h2M29 45h3" />
</svg>