<svg xmlns="http://www.w3.org/2000/svg" viewBox="0 -0.5 48 48" shape-rendering="crispEdges">
<metadata>Made with Pixels to Svg https://codepen.io/shshaw/pen/XbxvNj</metadata>
<path stroke="#ffffff" d="M0 0h48M0 1h48M0 2h48M0 3h30M32 3h16M0 4h4M7 4h23M32 4h9M44 4h4M0 5h3M8 5h13M24 5h15M45 5h3M0 6h2M8 6h12M25 6h13M46 6h2M0 7h2M9 7h8M27 7h11M46 7h2M0 8h2M9 8h2M13 8h1M29 8h9M46 8h2M0 9h3M8 9h2M31 9h2M35 9h3M47 9h1M0 10h4M8 10h1M36 10h2M47 10h1M0 11h5M7 11h2M37 11h2M47 11h1M0 12h9M13 12h3M24 12h4M37 12h3M47 12h1M0 13h9M12 13h1M14 13h3M23 13h1M25 13h4M36 13h5M47 13h1M0 14h8M36 14h6M46 14h2M0 15h7M37 15h11M0 16h7M37 16h11M0 17h6M14 17h1M25 17h2M39 17h9M0 18h6M14 18h1M25 18h1M40 18h8M0 19h5M40 19h8M0 20h4M39 20h9M0 21h3M40 21h8M0 22h3M17 22h6M40 22h8M0 23h3M16 23h2M22 23h2M39 23h9M0 24h4M16 24h2M22 24h2M39 24h9M0 25h5M13 25h3M17 25h6M24 25h3M38 25h10M0 26h7M13 26h3M24 26h3M38 26h10M0 27h7M15 27h3M22 27h2M37 27h11M0 28h8M17 28h6M38 28h10M0 29h8M18 29h4M38 29h10M0 30h9M15 30h4M21 30h3M37 30h11M0 31h5M6 31h2M15 31h2M23 31h2M34 31h14M0 32h8M34 32h14M0 33h9M33 33h15M0 34h15M23 34h1M30 34h18M0 35h16M22 35h3M28 35h6M36 35h12M0 36h17M20 36h13M38 36h10M0 37h4M7 37h25M39 37h9M0 38h3M8 38h21M30 38h2M39 38h9M0 39h2M10 39h23M39 39h9M0 40h2M11 40h23M38 40h10M0 41h3M11 41h37M0 42h3M11 42h37M0 43h4M11 43h37M0 44h4M10 44h38M0 45h48M0 46h48M0 47h48" />
<path stroke="#ce7bff" d="M30 3h2M4 4h3M30 4h2M41 4h3M3 5h5M39 5h6M2 6h6M21 6h3M38 6h8M2 7h3M6 7h3M20 7h4M38 7h8M2 8h3M17 8h6M26 8h1M38 8h8M3 9h3M11 9h2M14 9h15M38 9h9M4 10h2M7 10h1M10 10h21M33 10h2M38 10h8M6 11h1M10 11h3M16 11h8M28 11h6M39 11h5M10 12h2M17 12h6M29 12h5M40 12h1M10 13h1M18 13h4M30 13h5M41 13h1M46 13h1M9 14h3M18 14h4M29 14h6M42 14h1M45 14h1M8 15h2M11 15h23M8 16h3M29 16h5M7 17h5M29 17h6M7 18h2M10 18h3M17 18h7M27 18h12M7 19h1M9 19h5M16 19h7M26 19h13M5 20h1M7 20h1M11 20h5M23 20h14M4 21h5M12 21h21M36 21h1M4 22h1M6 22h3M12 22h5M23 22h8M7 23h3M11 23h5M18 23h4M24 23h8M8 24h8M18 24h4M24 24h7M8 25h5M16 25h1M23 25h1M27 25h3M8 26h5M16 26h8M27 26h2M8 27h7M18 27h4M24 27h3M9 28h8M23 28h2M9 29h1M11 29h7M22 29h3M10 30h2M14 30h1M19 30h2M24 30h1M5 31h1M9 31h2M14 31h1M17 31h2M22 31h1M25 31h1M9 32h1M17 32h1M34 35h2M33 36h5M4 37h3M32 37h5M38 37h1M3 38h5M29 38h1M32 38h4M2 39h7M33 39h1M38 39h1M2 40h7M10 40h1M34 40h1M37 40h1M3 41h6M3 42h5M10 43h1M4 44h1M9 44h1" />
<path stroke="#9c00b5" d="M21 5h1M20 6h1M5 7h1M17 7h1M19 7h1M24 7h1M26 7h1M5 8h4M12 8h1M14 8h1M16 8h1M23 8h3M27 8h1M6 9h2M13 9h1M30 9h1M34 9h1M6 10h1M9 10h1M32 10h1M46 10h1M5 11h1M13 11h1M15 11h1M24 11h1M27 11h1M34 11h2M44 11h3M34 12h2M41 12h6M9 13h1M11 13h1M29 13h1M42 13h4M8 14h1M12 14h1M17 14h1M22 14h1M28 14h1M43 14h2M7 15h1M10 15h1M34 15h2M11 16h1M28 16h1M34 16h2M6 17h1M12 17h1M17 17h7M28 17h1M35 17h2M38 17h1M13 18h1M16 18h1M15 19h1M24 19h1M39 19h1M6 20h1M9 20h2M16 20h1M22 20h1M37 20h2M3 21h1M10 21h2M34 21h2M37 21h2M5 22h1M9 22h3M33 22h6M3 23h4M10 23h1M32 23h6M5 24h3M31 24h7M7 25h1M30 25h3M34 25h3M29 26h4M34 26h4M7 27h1M27 27h6M34 27h2M8 28h1M25 28h6M33 28h5M10 29h1M25 29h12M9 30h1M12 30h2M25 30h9M36 30h1M8 31h1M11 31h3M19 31h3M26 31h1M29 31h4M10 32h2M13 32h4M18 32h16M12 33h1M15 33h3M20 33h3M24 33h7M32 33h1M16 34h6M25 34h3M17 35h3M25 35h1M27 35h1M17 36h1M19 36h1M37 37h1M36 38h3M9 39h1M34 39h4M9 40h1M35 40h2M9 41h2M8 42h3M4 43h6M5 44h4" />
<path stroke="#191919" d="M22 5h2M24 6h1M18 7h1M25 7h1M11 8h1M15 8h1M28 8h1M10 9h1M29 9h1M33 9h1M31 10h1M35 10h1M9 11h1M14 11h1M25 11h2M36 11h1M9 12h1M12 12h1M16 12h1M23 12h1M28 12h1M36 12h1M13 13h1M17 13h1M22 13h1M24 13h1M35 13h1M13 14h4M23 14h5M35 14h1M36 15h1M7 16h1M12 16h16M36 16h1M13 17h1M15 17h2M24 17h1M27 17h1M37 17h1M6 18h1M9 18h1M15 18h1M24 18h1M26 18h1M39 18h1M5 19h2M8 19h1M14 19h1M23 19h1M25 19h1M4 20h1M8 20h1M17 20h5M9 21h1M33 21h1M39 21h1M3 22h1M31 22h2M39 22h1M38 23h1M4 24h1M38 24h1M5 25h2M33 25h1M37 25h1M7 26h1M33 26h1M33 27h1M36 27h1M31 28h2M8 29h1M37 29h1M34 30h2M27 31h2M33 31h1M8 32h1M12 32h1M9 33h3M13 33h2M18 33h2M23 33h1M31 33h1M15 34h1M22 34h1M24 34h1M28 34h2M16 35h1M20 35h2M26 35h1M18 36h1" />
</svg>