<svg xmlns="http://www.w3.org/2000/svg" viewBox="0 -0.5 40 40" shape-rendering="crispEdges">
<metadata>Made with Pixels to Svg https://codepen.io/shshaw/pen/XbxvNj</metadata>
<path stroke="#ffffff" d="M0 0h29M33 0h7M0 1h27M35 1h5M0 2h26M36 2h4M0 3h26M37 3h3M0 4h25M37 4h3M0 5h25M38 5h2M0 6h25M38 6h2M0 7h25M38 7h2M0 8h21M25 8h1M38 8h2M0 9h5M7 9h13M26 9h1M38 9h2M0 10h4M8 10h11M27 10h2M38 10h2M0 11h3M9 11h9M27 11h5M37 11h3M0 12h3M9 12h1M28 12h4M37 12h3M0 13h3M28 13h4M37 13h3M0 14h3M28 14h4M37 14h3M0 15h3M28 15h3M36 15h4M0 16h4M27 16h4M36 16h4M0 17h5M17 17h1M35 17h5M0 18h5M14 18h1M17 18h1M34 18h6M33 19h7M0 20h1M3 20h1M23 20h4M32 20h8M0 21h3M13 21h6M21 21h2M33 21h7M0 22h4M5 22h2M11 22h10M33 22h7M0 23h5M6 23h1M8 23h4M14 23h6M33 23h7M0 24h6M8 24h4M14 24h5M34 24h6M0 25h7M8 25h1M10 25h1M14 25h4M34 25h6M0 26h7M13 26h3M34 26h6M0 27h7M12 27h2M35 27h5M0 28h7M11 28h2M35 28h5M0 29h6M27 29h2M35 29h5M0 30h6M26 30h3M35 30h5M0 31h6M12 31h3M26 31h3M31 31h2M35 31h5M0 32h5M7 32h2M11 32h4M25 32h3M30 32h2M34 32h6M0 33h5M7 33h2M10 33h5M22 33h6M29 33h1M34 33h6M0 34h6M9 34h5M15 34h4M21 34h7M32 34h8M0 35h14M16 35h1M20 35h20M0 36h15M19 36h21M0 37h40M0 38h40M0 39h40" />
<path stroke="#5a5a29" d="M29 0h1M27 1h1M29 1h4M26 2h9M27 3h9M25 4h6M32 4h4M26 5h6M33 5h5M26 6h7M34 6h3M25 7h8M34 7h3M27 8h5M33 8h4M21 9h4M29 9h2M32 9h5M5 10h2M20 10h3M24 10h2M32 10h6M3 11h5M19 11h3M25 11h1M33 11h3M6 12h2M10 12h1M19 12h2M26 12h1M33 12h3M7 13h1M10 13h7M18 13h2M26 13h1M33 13h3M8 14h10M19 14h1M26 14h1M33 14h4M3 15h2M6 15h1M8 15h11M25 15h3M31 15h1M33 15h2M5 16h1M7 16h8M18 16h3M24 16h2M32 16h4M5 17h1M8 17h6M16 17h1M19 17h2M23 17h2M29 17h1M31 17h3M8 18h5M18 18h4M24 18h5M0 19h1M4 19h1M6 19h1M8 19h5M17 19h5M28 19h2M32 19h1M2 20h1M4 20h1M7 20h7M16 20h1M19 20h1M22 20h1M29 20h2M3 21h1M8 21h1M10 21h2M20 21h1M27 21h6M8 22h2M24 22h8M22 23h10M6 24h1M12 24h1M20 24h14M12 25h2M20 25h13M7 26h1M9 26h3M17 26h1M19 26h9M29 26h4M11 27h1M15 27h1M18 27h6M25 27h2M29 27h6M8 28h1M10 28h1M17 28h6M29 28h5M6 29h4M17 29h6M30 29h4M7 30h4M17 30h5M30 30h4M7 31h4M15 31h7M25 31h1M29 31h1M34 31h1M16 32h6M24 32h1M28 32h1M5 33h1M19 33h2M33 33h1M8 34h1M28 34h1M31 34h1M14 35h1M15 36h1M18 36h1" />
<path stroke="#191919" d="M30 0h3M28 1h1M33 1h2M35 2h1M26 3h1M36 3h1M31 4h1M36 4h1M25 5h1M32 5h1M25 6h1M33 6h1M37 6h1M33 7h1M37 7h1M21 8h4M26 8h1M32 8h1M37 8h1M5 9h2M20 9h1M25 9h1M27 9h2M31 9h1M37 9h1M4 10h1M7 10h1M19 10h1M23 10h1M26 10h1M29 10h3M8 11h1M18 11h1M22 11h1M26 11h1M32 11h1M36 11h1M3 12h1M5 12h1M8 12h1M11 12h8M21 12h1M27 12h1M32 12h1M36 12h1M3 13h1M6 13h1M8 13h2M17 13h1M20 13h1M27 13h1M32 13h1M36 13h1M3 14h1M6 14h2M18 14h1M20 14h1M27 14h1M32 14h1M7 15h1M19 15h2M32 15h1M35 15h1M4 16h1M6 16h1M15 16h3M21 16h1M26 16h1M31 16h1M6 17h2M14 17h2M18 17h1M21 17h1M25 17h4M30 17h1M34 17h1M5 18h1M7 18h1M13 18h1M16 18h1M22 18h2M29 18h5M1 19h3M5 19h1M7 19h1M13 19h1M16 19h1M22 19h6M30 19h2M1 20h1M5 20h2M14 20h2M20 20h2M28 20h1M31 20h1M4 21h1M7 21h1M9 21h1M24 21h3M4 22h1M22 22h2M32 22h1M5 23h1M7 23h1M12 23h1M20 23h2M32 23h1M7 24h1M13 24h1M19 24h1M7 25h1M18 25h2M33 25h1M8 26h1M12 26h1M18 26h1M28 26h1M33 26h1M7 27h4M16 27h2M24 27h1M28 27h1M7 28h1M9 28h1M14 28h3M23 28h2M27 28h2M34 28h1M10 29h7M23 29h4M29 29h1M34 29h1M6 30h1M11 30h6M22 30h4M29 30h1M34 30h1M6 31h1M11 31h1M22 31h3M5 32h1M10 32h1M15 32h1M22 32h2M33 32h1M6 33h1M9 33h1M15 33h1M21 33h1M28 33h1M30 33h1M32 33h1M6 34h2M14 34h1M20 34h1M29 34h2M15 35h1M17 35h1M19 35h1M16 36h2" />
<path stroke="#a5bd52" d="M23 11h2M4 12h1M22 12h4M4 13h2M21 13h5M4 14h2M21 14h5M5 15h1M21 15h4M22 16h2M22 17h1M6 18h1M15 18h1M14 19h2M17 20h2M27 20h1M5 21h2M12 21h1M19 21h1M23 21h1M7 22h1M10 22h1M21 22h1M13 23h1M9 25h1M11 25h1M16 26h1M14 27h1M27 27h1M13 28h1M25 28h2M30 31h1M33 31h1M6 32h1M9 32h1M29 32h1M32 32h1M16 33h3M31 33h1M19 34h1M18 35h1" />
</svg>