<svg xmlns="http://www.w3.org/2000/svg" viewBox="0 -0.5 56 56" shape-rendering="crispEdges">
<metadata>Made with Pixels to Svg https://codepen.io/shshaw/pen/XbxvNj</metadata>
<path stroke="#ffffff" d="M0 0h26M28 0h28M0 1h25M28 1h28M0 2h24M28 2h28M0 3h23M27 3h21M54 3h2M0 4h22M27 4h16M53 4h3M0 5h21M26 5h14M52 5h4M0 6h21M26 6h13M52 6h4M0 7h20M25 7h13M51 7h5M0 8h20M25 8h12M50 8h6M0 9h19M25 9h11M49 9h7M0 10h19M25 10h10M48 10h8M0 11h19M25 11h9M48 11h8M0 12h19M51 12h5M0 13h19M52 13h4M0 14h20M53 14h3M0 15h21M48 15h5M54 15h2M0 16h21M44 16h6M51 16h2M54 16h2M0 17h21M43 17h7M51 17h2M54 17h2M0 18h20M21 18h1M33 18h1M44 18h7M53 18h3M0 19h13M16 19h3M44 19h12M0 20h12M44 20h12M0 21h12M45 21h11M0 22h12M45 22h1M48 22h8M0 23h13M49 23h7M0 24h13M50 24h6M0 25h14M50 25h6M0 26h15M50 26h6M0 27h16M49 27h7M1 28h16M24 28h5M49 28h7M2 29h1M8 29h10M21 29h7M48 29h8M9 30h9M20 30h7M48 30h8M10 31h6M19 31h8M47 31h9M11 32h4M19 32h7M30 32h1M46 32h10M7 33h1M11 33h3M18 33h8M29 33h3M33 33h1M45 33h11M5 34h4M12 34h1M18 34h8M27 34h1M29 34h3M33 34h2M45 34h11M4 35h6M18 35h8M27 35h1M29 35h7M45 35h11M4 36h6M18 36h8M27 36h9M45 36h11M4 37h7M18 37h9M28 37h8M44 37h12M0 38h1M5 38h6M18 38h9M28 38h4M34 38h2M47 38h9M0 39h1M5 39h3M10 39h2M18 39h10M29 39h2M34 39h2M49 39h7M0 40h1M6 40h2M11 40h1M19 40h9M29 40h2M35 40h2M51 40h5M0 41h1M7 41h1M11 41h1M19 41h9M30 41h1M35 41h2M44 41h1M52 41h4M0 42h1M8 42h1M11 42h2M20 42h8M30 42h1M35 42h2M43 42h5M52 42h4M0 43h2M9 43h4M21 43h5M30 43h2M34 43h3M42 43h7M52 43h4M0 44h2M10 44h3M22 44h2M30 44h6M41 44h8M52 44h4M0 45h2M11 45h1M31 45h3M39 45h9M52 45h4M0 46h2M22 46h1M37 46h10M51 46h5M0 47h3M23 47h3M36 47h10M51 47h5M0 48h3M24 48h8M35 48h10M49 48h7M0 49h3M10 49h2M25 49h19M48 49h8M0 50h3M9 50h5M27 50h16M47 50h9M0 51h4M8 51h8M29 51h11M45 51h11M0 52h4M7 52h11M34 52h2M44 52h12M0 53h4M6 53h15M42 53h14M0 54h4M5 54h20M38 54h18M0 55h56" />
<path stroke="#e67300" d="M26 0h1M25 1h1M27 1h1M24 2h1M23 3h1M26 3h1M49 3h1M53 3h1M22 4h1M44 4h1M50 4h1M52 4h1M21 5h1M25 5h1M41 5h1M48 5h1M39 6h1M46 6h1M51 6h1M20 7h1M24 7h1M38 7h1M44 7h1M37 8h1M43 8h1M19 9h1M36 9h1M42 9h1M24 10h1M40 10h1M47 10h1M35 11h1M39 11h1M34 12h2M48 12h1M50 12h1M19 13h1M25 13h1M35 13h1M20 14h1M23 14h1M36 14h1M38 14h1M48 14h1M52 14h1M22 15h1M39 15h1M44 15h1M47 15h1M53 15h1M41 16h1M43 16h1M50 17h1M53 17h1M43 18h1M52 18h1M13 19h1M15 19h1M19 19h1M23 19h1M35 19h1M12 20h4M18 20h1M22 20h1M26 20h1M34 20h1M43 20h1M13 21h4M19 21h1M44 21h1M12 22h5M19 22h2M23 22h1M35 22h4M46 22h1M14 23h1M18 23h4M24 23h1M30 23h2M34 23h6M44 23h1M46 23h2M13 24h1M20 24h2M27 24h2M34 24h6M44 24h6M20 25h1M26 25h1M28 25h1M34 25h6M42 25h1M44 25h5M35 26h4M41 26h1M44 26h6M21 27h1M40 27h1M46 27h2M0 28h1M22 28h1M29 28h2M47 28h2M4 29h1M7 29h1M19 29h1M28 29h1M30 29h2M2 30h1M4 30h1M6 30h3M27 30h1M29 30h2M32 30h2M47 30h1M3 31h2M6 31h2M9 31h1M16 31h1M29 31h1M32 31h2M38 31h1M3 32h3M8 32h1M10 32h1M17 32h2M26 32h2M31 32h1M34 32h2M39 32h1M4 33h1M6 33h1M9 33h1M17 33h1M27 33h1M32 33h1M41 33h2M44 33h1M3 34h1M11 34h1M13 34h1M28 34h1M35 34h1M42 34h2M2 35h1M10 35h1M12 35h1M36 35h1M38 35h2M43 35h1M3 36h1M26 36h1M39 36h2M43 36h2M0 37h1M11 37h1M39 37h2M1 38h1M13 38h1M27 38h1M36 38h1M39 38h3M45 38h1M4 39h1M13 39h2M17 39h1M37 39h1M40 39h3M48 39h1M5 40h1M12 40h2M18 40h1M28 40h1M40 40h3M49 40h1M6 41h1M14 41h1M17 41h1M29 41h1M40 41h4M46 41h1M50 41h1M1 42h1M13 42h6M40 42h2M48 42h1M51 42h1M2 43h1M14 43h6M15 44h6M29 44h1M40 44h1M51 44h1M15 45h1M18 45h1M22 45h1M30 45h1M37 45h1M48 45h1M2 46h1M11 46h1M14 46h1M23 46h1M25 46h1M47 46h1M50 46h1M3 47h1M11 47h1M13 47h1M21 47h1M26 47h1M31 47h1M46 47h1M49 47h1M10 48h1M22 48h1M32 48h1M34 48h1M45 48h1M48 48h1M13 49h1M44 49h1M47 49h1M3 50h1M15 50h1M26 50h1M43 50h1M46 50h1M4 51h1M17 51h1M28 51h1M41 51h1M18 52h1M20 52h1M29 52h1M32 52h1M37 52h1M43 52h1M21 53h1M24 53h1M41 53h1M4 54h1M25 54h1M30 54h1M36 54h1" />
<path stroke="#ffff00" d="M27 0h1M27 2h1M48 3h1M26 4h1M43 4h1M51 4h1M40 5h1M49 5h2M25 6h1M47 6h4M45 7h5M24 8h1M44 8h5M24 9h1M43 9h5M41 10h6M40 11h7M39 12h9M26 13h9M39 13h12M24 14h12M39 14h9M23 15h15M40 15h4M22 16h18M23 17h10M35 17h7M24 18h8M36 18h7M24 19h8M36 19h7M20 20h1M23 20h2M27 20h6M35 20h8M20 21h24M17 22h1M21 22h2M24 22h8M33 22h2M39 22h5M15 23h3M22 23h2M32 23h2M40 23h4M15 24h4M22 24h3M30 24h4M40 24h3M15 25h4M21 25h5M29 25h5M40 25h2M43 25h1M16 26h4M21 26h5M28 26h7M39 26h2M42 26h2M17 27h4M22 27h18M41 27h5M18 28h3M23 28h1M31 28h16M3 29h1M33 29h14M1 30h1M18 30h1M34 30h13M1 31h1M30 31h1M35 31h1M39 31h7M1 32h1M7 32h1M29 32h1M32 32h2M36 32h3M40 32h5M1 33h1M5 33h1M8 33h1M15 33h2M34 33h1M36 33h5M43 33h1M1 34h1M9 34h1M14 34h3M36 34h6M1 35h1M3 35h1M14 35h3M28 35h1M37 35h1M40 35h3M1 36h2M10 36h1M14 36h3M37 36h2M41 36h2M1 37h2M14 37h3M37 37h2M41 37h2M2 38h2M11 38h1M14 38h3M32 38h2M37 38h2M42 38h1M46 38h1M2 39h2M8 39h2M15 39h2M31 39h3M36 39h1M38 39h2M2 40h3M8 40h3M15 40h3M31 40h4M38 40h2M50 40h1M2 41h4M8 41h3M12 41h1M15 41h2M28 41h1M31 41h4M38 41h2M45 41h1M51 41h1M2 42h5M9 42h2M28 42h1M31 42h4M38 42h2M3 43h5M13 43h1M26 43h3M32 43h2M38 43h3M3 44h6M13 44h1M24 44h5M36 44h1M38 44h1M3 45h7M12 45h2M17 45h1M23 45h7M34 45h3M51 45h1M3 46h8M12 46h2M16 46h5M26 46h4M31 46h5M4 47h7M14 47h7M22 47h1M32 47h3M50 47h1M4 48h6M12 48h10M4 49h5M14 49h10M4 50h4M16 50h9M5 51h2M18 51h9M40 51h1M5 52h1M21 52h8M33 52h1M36 52h1M25 53h5M37 54h1" />
<path stroke="#191919" d="M26 1h1M25 2h2M24 3h2M50 3h3M23 4h3M45 4h5M22 5h3M42 5h6M51 5h1M21 6h4M40 6h6M21 7h3M39 7h5M50 7h1M20 8h4M38 8h5M49 8h1M20 9h4M37 9h5M48 9h1M19 10h5M35 10h5M19 11h6M34 11h1M36 11h3M47 11h1M19 12h15M36 12h3M49 12h1M20 13h5M36 13h3M51 13h1M21 14h2M37 14h1M49 14h3M21 15h1M38 15h1M45 15h2M21 16h1M40 16h1M42 16h1M50 16h1M53 16h1M21 17h2M33 17h2M42 17h1M20 18h1M22 18h2M32 18h1M34 18h2M51 18h1M14 19h1M20 19h3M32 19h3M43 19h1M16 20h2M19 20h1M21 20h1M25 20h1M33 20h1M12 21h1M17 21h2M18 22h1M32 22h1M44 22h1M47 22h1M13 23h1M25 23h5M45 23h1M48 23h1M14 24h1M19 24h1M25 24h2M29 24h1M43 24h1M14 25h1M19 25h1M27 25h1M49 25h1M15 26h1M20 26h1M26 26h2M16 27h1M48 27h1M17 28h1M21 28h1M0 29h2M5 29h2M18 29h1M20 29h1M29 29h1M32 29h1M47 29h1M0 30h1M3 30h1M5 30h1M19 30h1M28 30h1M31 30h1M0 31h1M2 31h1M5 31h1M8 31h1M17 31h2M27 31h2M31 31h1M34 31h1M36 31h2M46 31h1M0 32h1M2 32h1M6 32h1M9 32h1M15 32h2M28 32h1M45 32h1M0 33h1M2 33h2M10 33h1M14 33h1M26 33h1M28 33h1M35 33h1M0 34h1M2 34h1M4 34h1M10 34h1M17 34h1M26 34h1M32 34h1M44 34h1M0 35h1M11 35h1M13 35h1M17 35h1M26 35h1M44 35h1M0 36h1M11 36h3M17 36h1M36 36h1M3 37h1M12 37h2M17 37h1M27 37h1M36 37h1M43 37h1M4 38h1M12 38h1M17 38h1M43 38h2M1 39h1M12 39h1M28 39h1M43 39h5M1 40h1M14 40h1M37 40h1M43 40h6M1 41h1M13 41h1M18 41h1M37 41h1M47 41h3M7 42h1M19 42h1M29 42h1M37 42h1M42 42h1M49 42h2M8 43h1M20 43h1M29 43h1M37 43h1M41 43h1M49 43h3M2 44h1M9 44h1M14 44h1M21 44h1M37 44h1M39 44h1M49 44h2M2 45h1M10 45h1M14 45h1M16 45h1M19 45h3M38 45h1M49 45h2M15 46h1M21 46h1M24 46h1M30 46h1M36 46h1M48 46h2M12 47h1M27 47h4M35 47h1M47 47h2M3 48h1M11 48h1M23 48h1M33 48h1M46 48h2M3 49h1M9 49h1M12 49h1M24 49h1M45 49h2M8 50h1M14 50h1M25 50h1M44 50h2M7 51h1M16 51h1M27 51h1M42 51h3M4 52h1M6 52h1M19 52h1M30 52h2M38 52h5M4 53h2M22 53h2M30 53h11M26 54h4M31 54h5" />
</svg>