<svg xmlns="http://www.w3.org/2000/svg" viewBox="0 -0.5 48 48" shape-rendering="crispEdges">
<metadata>Made with Pixels to Svg https://codepen.io/shshaw/pen/XbxvNj</metadata>
<path stroke="#ffffff" d="M0 0h48M0 1h5M10 1h38M0 2h3M11 2h37M0 3h2M12 3h26M41 3h7M0 4h1M13 4h24M43 4h5M0 5h1M13 5h23M44 5h4M0 6h1M12 6h24M45 6h3M0 7h2M11 7h24M45 7h3M0 8h4M10 8h25M45 8h3M0 9h4M8 9h27M45 9h3M0 10h3M4 10h2M8 10h27M45 10h3M0 11h2M3 11h3M7 11h2M10 11h9M20 11h2M23 11h7M32 11h4M44 11h4M0 12h1M2 12h4M7 12h1M9 12h1M12 12h6M19 12h1M22 12h1M24 12h4M30 12h1M32 12h4M42 12h6M0 13h1M3 13h2M6 13h2M10 13h2M14 13h2M18 13h2M21 13h3M25 13h2M28 13h2M32 13h5M41 13h7M0 14h2M3 14h2M7 14h1M11 14h3M16 14h9M27 14h2M32 14h5M41 14h7M0 15h3M4 15h3M8 15h1M12 15h16M32 15h3M41 15h1M45 15h3M0 16h3M5 16h3M12 16h15M32 16h1M35 16h4M46 16h2M0 17h3M6 17h4M11 17h17M33 17h6M47 17h1M0 18h4M6 18h23M30 18h7M39 18h1M47 18h1M0 19h4M8 19h20M29 19h7M37 19h4M42 19h1M47 19h1M0 20h5M9 20h3M14 20h11M27 20h5M36 20h7M47 20h1M0 21h6M9 21h5M15 21h5M21 21h2M26 21h4M34 21h9M47 21h1M0 22h7M9 22h3M13 22h1M16 22h3M21 22h1M25 22h4M33 22h9M46 22h2M0 23h7M8 23h4M13 23h1M17 23h2M25 23h1M27 23h2M33 23h8M42 23h1M46 23h2M0 24h7M8 24h4M27 24h3M34 24h6M41 24h3M45 24h3M0 25h7M8 25h7M22 25h9M34 25h3M40 25h3M44 25h4M0 26h6M7 26h1M9 26h5M23 26h7M38 26h3M43 26h5M0 27h6M8 27h7M22 27h7M41 27h7M0 28h8M9 28h7M21 28h10M39 28h9M0 29h7M8 29h18M28 29h4M37 29h11M0 30h8M10 30h8M19 30h6M28 30h4M34 30h14M0 31h7M9 31h3M13 31h5M20 31h4M29 31h5M35 31h13M0 32h6M7 32h4M14 32h3M30 32h5M36 32h12M0 33h6M7 33h2M12 33h2M25 33h2M32 33h4M37 33h11M0 34h7M11 34h1M14 34h2M19 34h1M22 34h8M35 34h2M38 34h10M0 35h8M15 35h17M36 35h2M39 35h9M0 36h7M14 36h20M36 36h2M39 36h9M0 37h2M13 37h22M39 37h9M0 38h1M10 38h25M40 38h8M10 39h24M40 39h8M0 40h1M3 40h2M9 40h22M43 40h1M46 40h2M0 41h4M9 41h21M47 41h1M0 42h3M8 42h23M47 42h1M0 43h4M7 43h28M40 43h2M47 43h1M0 44h37M42 44h2M46 44h2M0 45h38M43 45h5M0 46h39M43 46h5M0 47h48" />
<path stroke="#191919" d="M5 1h5M3 2h2M10 2h1M2 3h1M11 3h1M39 3h1M1 4h1M8 4h1M12 4h1M37 4h1M41 4h2M1 5h1M3 5h1M5 5h1M7 5h2M12 5h1M43 5h1M1 6h1M3 6h1M5 6h1M7 6h1M11 6h1M36 6h1M2 7h2M6 7h1M9 7h2M36 7h1M44 7h1M4 8h2M8 8h2M35 8h2M42 8h1M44 8h1M4 9h1M7 9h1M35 9h2M39 9h1M42 9h1M44 9h1M3 10h1M36 10h1M39 10h1M42 10h1M2 11h1M22 11h1M30 11h1M36 11h1M39 11h1M42 11h2M6 12h1M8 12h1M10 12h1M18 12h1M21 12h1M28 12h1M31 12h1M37 12h2M40 12h2M1 13h1M5 13h1M8 13h1M12 13h1M17 13h1M27 13h1M31 13h1M37 13h1M40 13h1M2 14h1M6 14h1M15 14h1M25 14h2M31 14h1M40 14h1M7 15h1M9 15h1M29 15h3M35 15h1M40 15h1M43 15h1M3 16h1M9 16h2M28 16h4M34 16h1M40 16h2M45 16h1M30 17h2M39 17h2M29 18h1M37 18h1M40 18h1M42 18h1M46 18h1M4 19h1M28 19h1M36 19h1M41 19h1M43 19h1M46 19h1M12 20h1M25 20h1M34 20h2M43 20h1M46 20h1M14 21h1M24 21h1M32 21h2M43 21h1M7 22h2M12 22h1M14 22h2M20 22h1M22 22h2M31 22h2M42 22h1M45 22h1M7 23h1M12 23h1M14 23h1M16 23h1M23 23h1M30 23h1M32 23h1M41 23h1M7 24h1M13 24h3M17 24h3M21 24h5M33 24h1M40 24h1M44 24h1M15 25h1M21 25h1M38 25h1M43 25h1M14 26h1M16 26h1M19 26h1M22 26h1M35 26h1M41 26h1M6 27h1M16 27h1M19 27h1M21 27h1M34 27h1M39 27h1M17 28h3M37 28h1M7 29h1M33 29h3M8 30h1M32 30h1M7 31h1M12 31h1M34 31h1M6 32h1M13 32h1M25 32h1M35 32h1M6 33h1M11 33h1M14 33h1M23 33h1M28 33h1M36 33h1M7 34h1M10 34h1M12 34h2M17 34h2M20 34h1M31 34h1M37 34h1M8 35h1M11 35h1M14 35h1M33 35h1M7 36h1M13 36h1M34 36h1M38 36h1M3 37h4M11 37h2M35 37h1M1 38h1M9 38h1M35 38h1M0 39h1M4 39h3M34 39h1M39 39h1M1 40h1M5 40h1M8 40h1M32 40h1M40 40h2M44 40h2M4 41h1M7 41h1M30 41h1M3 42h1M7 42h1M32 42h2M40 42h2M46 42h1M5 43h1M35 43h1M39 43h1M42 43h2M37 44h1M40 44h2M44 44h2M38 45h1M42 45h1M40 46h2" />
<path stroke="#8c4a29" d="M5 2h5M3 3h8M38 3h1M40 3h1M2 4h6M9 4h3M38 4h3M2 5h1M4 5h1M6 5h1M9 5h3M36 5h7M2 6h1M4 6h1M6 6h1M8 6h3M37 6h8M4 7h2M7 7h2M35 7h1M37 7h7M6 8h2M37 8h5M43 8h1M37 9h2M40 9h2M43 9h1M7 10h1M35 10h1M37 10h2M40 10h2M43 10h2M6 11h1M9 11h1M19 11h1M31 11h1M37 11h2M40 11h2M1 12h1M11 12h1M20 12h1M23 12h1M29 12h1M36 12h1M39 12h1M13 13h1M16 13h1M20 13h1M24 13h1M38 13h2M8 14h2M14 14h1M30 14h1M37 14h3M3 15h1M10 15h1M28 15h1M36 15h1M39 15h1M42 15h1M44 15h1M8 16h1M11 16h1M27 16h1M33 16h1M42 16h3M3 17h1M10 17h1M28 17h2M32 17h1M41 17h6M4 18h1M38 18h1M41 18h1M43 18h3M44 19h2M5 20h1M13 20h1M26 20h1M44 20h2M6 21h1M8 21h1M20 21h1M23 21h1M25 21h1M44 21h3M24 22h1M43 22h2M21 23h1M24 23h1M26 23h1M43 23h2M16 24h1M20 24h1M7 25h1M33 25h1M37 25h1M39 25h1M6 26h1M8 26h1M21 26h1M34 26h1M36 26h1M42 26h1M7 27h1M15 27h1M20 27h1M40 27h1M8 28h1M16 28h1M20 28h1M33 28h1M38 28h1M36 29h1M9 30h1M33 30h1M8 31h1M26 32h1M15 33h1M19 33h1M22 33h1M24 33h1M27 33h1M29 33h1M8 34h2M16 34h1M21 34h1M30 34h1M9 35h2M12 35h2M32 35h1M38 35h1M8 36h5M2 37h1M7 37h4M38 37h1M2 38h7M36 38h4M1 39h3M7 39h3M35 39h4M2 40h1M6 40h2M31 40h1M33 40h7M42 40h1M5 41h2M8 41h1M31 41h16M4 42h3M31 42h1M34 42h6M42 42h4M4 43h1M6 43h1M36 43h3M44 43h3M38 44h2M39 45h3M39 46h1M42 46h1" />
<path stroke="#ef9452" d="M5 9h2M6 10h1M2 13h1M9 13h1M30 13h1M5 14h1M10 14h1M29 14h1M11 15h1M37 15h2M4 16h1M39 16h1M4 17h2M5 18h1M5 19h3M6 20h3M32 20h2M7 21h1M30 21h2M19 22h1M29 22h2M15 23h1M19 23h2M22 23h1M29 23h1M31 23h1M45 23h1M12 24h1M26 24h1M30 24h3M16 25h5M31 25h2M15 26h1M17 26h2M20 26h1M30 26h4M37 26h1M17 27h2M29 27h5M35 27h4M31 28h2M34 28h3M26 29h2M32 29h1M18 30h1M25 30h3M18 31h2M24 31h5M11 32h2M17 32h8M27 32h3M9 33h2M16 33h3M20 33h2M30 33h2M32 34h3M34 35h2M35 36h1M36 37h2" />
</svg>