<svg xmlns="http://www.w3.org/2000/svg" viewBox="0 -0.5 96 96" shape-rendering="crispEdges">
<metadata>Made with Pixels to Svg https://codepen.io/shshaw/pen/XbxvNj</metadata>
<path stroke="#945542" d="M45 29h4M43 30h2M49 30h2M42 31h1M51 31h1M51 32h1M52 33h1M38 34h3M52 34h1M55 34h4M36 35h2M52 35h3M59 35h2M35 36h1M61 36h1M51 37h1M61 37h1M62 38h1M62 39h1M44 42h7M42 43h2M51 43h1M41 44h1M40 45h1M54 45h1M59 45h1M30 46h1M39 46h1M55 46h1M57 46h1M29 47h1M38 47h1M56 47h1M38 48h1M56 48h1M37 49h1M37 50h1M37 51h1M37 52h1M37 53h1M37 54h1M57 54h1M37 55h1M57 55h1M38 56h1M56 56h1M38 57h1M39 58h1M55 58h1M40 59h1M54 59h1M41 60h1M53 60h1M42 61h2M51 61h2M63 61h1M40 62h14M39 63h16M41 64h12M44 65h6" />
<path stroke="#ffb463" d="M45 30h4M43 31h6M50 31h1M43 32h1M48 32h1M49 33h3M50 34h2M38 35h2M50 35h2M55 35h4M36 36h5M51 36h1M54 36h5M60 36h1M39 37h3M58 37h1M60 38h2M60 39h2M40 40h4M50 40h1M61 40h1M38 41h13M61 41h1M37 42h7M37 43h5M33 44h1M36 44h5M31 45h3M36 45h4M31 46h2M36 46h3M60 46h3M30 47h2M37 47h1M62 47h1M64 47h1M30 48h1M63 49h3M64 50h2M64 51h2M64 52h1M63 53h1M61 56h2M63 57h1M62 58h2M62 59h1" />
<path stroke="#f0dee7" d="M49 31h1M49 32h2M59 36h1M59 37h2M63 47h1M63 48h2M62 57h1M37 64h2M55 64h1M36 65h2M53 65h4M36 66h1M52 66h5M54 67h4M55 68h3M56 69h1" />
<path stroke="#633829" d="M42 32h1M41 33h1M41 34h1M52 36h1M35 37h1M52 37h1M34 38h1M41 38h1M51 38h1M34 39h1M39 39h2M49 39h2M34 40h1M38 40h1M46 40h3M62 40h1M34 41h1M37 41h1M62 41h1M35 42h2M52 42h1M61 42h1M33 43h3M61 43h1M31 44h2M34 44h1M54 44h1M30 45h1M34 45h1M60 45h3M33 46h1M58 46h2M63 46h2M33 47h1M57 47h1M65 47h1M29 48h1M33 48h1M57 48h1M65 48h1M29 49h1M32 49h1M56 49h1M66 49h1M29 50h1M32 50h1M56 50h1M66 50h1M30 51h1M32 51h1M56 51h1M66 51h1M30 52h3M57 52h1M65 52h1M31 53h2M57 53h1M30 54h1M32 54h1M58 54h1M30 55h1M33 55h1M58 55h1M63 55h1M30 56h1M57 56h1M63 56h1M31 57h1M56 57h1M64 57h1M32 58h1M56 58h1M33 59h1M56 59h1M57 60h1M58 61h1" />
<path stroke="#d6994a" d="M44 32h4M42 33h7M42 34h8M40 35h1M42 35h8M42 36h9M53 36h1M36 37h3M43 37h8M53 37h5M35 38h6M43 38h8M52 38h8M35 39h4M41 39h2M45 39h4M52 39h8M35 40h3M39 40h1M44 40h1M49 40h1M52 40h9M35 41h2M52 41h9M51 42h1M53 42h8M36 43h1M53 43h8M35 44h1M55 44h4M35 45h1M34 46h2M56 46h1M32 47h1M34 47h3M58 47h4M31 48h2M34 48h4M58 48h5M30 49h2M33 49h4M57 49h6M30 50h2M33 50h4M57 50h7M31 51h1M33 51h4M57 51h7M33 52h4M58 52h6M33 53h4M58 53h5M64 53h1M31 54h1M33 54h4M60 54h3M31 55h2M34 55h3M59 55h1M31 56h2M34 56h4M58 56h3M32 57h1M34 57h4M57 57h5M33 58h1M35 58h4M57 58h5M35 59h5M55 59h1M57 59h5M63 59h1M36 60h5M54 60h3M58 60h5M37 61h5M53 61h4M59 61h3M38 62h2M54 62h2" />
<path stroke="#191919" d="M41 35h1M41 36h1M42 37h1M42 38h1M43 39h2M51 39h1M45 40h1M51 40h1M51 41h1M52 43h1M53 44h1M59 44h2M55 45h4M65 53h1M59 54h1M63 54h2M60 55h3M33 56h1M33 57h1M34 58h1M64 58h1M34 59h1M64 59h1M35 60h1M63 60h1M36 61h1M57 61h1M62 61h1M37 62h1M56 62h1M59 62h3M38 63h1M55 63h1M39 64h2M53 64h2M41 65h3M50 65h3M44 66h6M34 67h1M34 68h1M34 69h1M58 69h1M58 70h1M35 71h1M57 71h1M35 72h1M52 72h1M56 72h1M36 73h1M52 73h1M54 73h1M37 74h2M51 74h1M39 75h1M44 75h2M49 75h2M39 76h1M43 76h1M46 76h3M38 77h1M41 77h2M38 78h3" />
<path stroke="#db5070" d="M44 43h7M42 44h11M41 45h5M51 45h3M40 46h5M53 46h2M39 47h4M54 47h2M55 48h1" />
<path stroke="#bf4b6a" d="M46 45h5M45 46h8M43 47h11M39 48h16M38 49h18M38 50h18M38 51h18M38 52h19M38 53h19M38 54h19M38 55h19M39 56h17M39 57h17M40 58h15M41 59h13M42 60h11M44 61h7" />
<path stroke="#5a5155" d="M37 63h1M36 64h1M56 64h1M35 65h1M57 65h1M35 66h1M57 66h1M58 67h1M58 68h1M36 69h1M51 69h1M35 70h1M52 70h1M52 71h1M55 72h1M53 73h1M55 73h1M44 74h1" />
<path stroke="#ccb3c0" d="M38 65h3M37 66h7M50 66h2M35 67h19M35 68h20M35 69h1M37 69h14M52 69h4M57 69h1M36 70h16M53 70h5M36 71h16M53 71h4M36 72h16M53 72h2M37 73h15M39 74h5M45 74h6M40 75h4M46 75h3M40 76h3M39 77h2" />
</svg>