<svg xmlns="http://www.w3.org/2000/svg" viewBox="0 -0.5 96 96" shape-rendering="crispEdges">
<metadata>Made with Pixels to Svg https://codepen.io/shshaw/pen/XbxvNj</metadata>
<path stroke="#252830" d="M49 15h5M47 16h2M50 16h1M54 16h1M45 17h2M49 17h1M55 17h1M65 17h2M43 18h2M48 18h1M56 18h1M64 18h1M67 18h1M41 19h2M47 19h1M64 19h1M68 19h1M40 20h1M46 20h1M55 20h1M63 20h1M69 20h1M39 21h1M45 21h1M63 21h1M70 21h1M38 22h1M54 22h1M62 22h1M71 22h1M37 23h1M62 23h1M72 23h1M53 24h1M61 24h1M72 24h1M61 25h1M72 25h1M52 26h1M60 26h1M72 26h1M60 27h1M72 27h1M58 28h2M72 28h1M56 29h2M72 29h1M66 30h1M72 30h1M63 31h1M68 31h1M72 31h1M63 32h1M69 32h2M72 32h1M62 33h1M62 34h1M61 35h1M61 36h1M60 37h1M71 37h1M60 38h1" />
<path stroke="#393e48" d="M49 16h1M51 16h2M50 17h2M49 18h2M48 19h3M47 20h3M65 20h1M46 21h3M65 21h1M44 22h4M65 22h1M45 23h3M65 23h1M46 24h3M65 24h1M47 25h3M65 25h1M49 26h3M65 26h1M50 27h2M65 27h1M65 28h1M58 29h1M64 29h2M64 30h2M67 30h1M64 31h4M69 31h1M64 32h5M63 33h9M63 34h9M62 35h10M62 36h10M61 37h10M61 38h10M60 39h11M61 40h9M61 41h9M62 42h8M63 43h6M64 44h5M65 45h3M66 46h1M71 52h1M72 53h1M71 54h1M71 55h1M72 56h1M70 57h1M72 57h1M35 73h1M36 74h1M37 75h1M63 75h1M64 76h1M65 77h1" />
<path stroke="#59636a" d="M53 16h1M47 17h2M54 17h1M45 18h3M55 18h1M65 18h2M43 19h4M55 19h1M65 19h3M41 20h5M50 20h2M54 20h1M64 20h1M66 20h3M40 21h5M51 21h4M64 21h1M66 21h4M39 22h5M52 22h2M63 22h2M66 22h5M38 23h2M52 23h2M63 23h2M66 23h6M52 24h1M62 24h3M66 24h6M52 25h1M62 25h3M66 25h6M61 26h4M66 26h6M61 27h4M66 27h6M60 28h5M66 28h6M59 29h5M66 29h6M56 30h8M68 30h4M57 31h6M70 31h2M57 32h6M71 32h1M58 33h4M58 34h4M59 35h2M59 36h2M59 37h1M59 38h1" />
<path stroke="#86522b" d="M52 17h2M51 18h1M54 18h1M51 19h1M54 19h1M52 20h2M49 21h2M48 22h1M51 22h1M48 23h1M49 24h1M50 25h2M47 26h2M49 27h1M49 28h1" />
<path stroke="#f4a82f" d="M52 18h2M52 19h2M49 22h2M49 23h3M50 24h2M47 27h2M47 28h2" />
<path stroke="#101010" d="M56 19h1M55 21h1M54 23h1M53 25h1M52 27h1M29 29h1M29 30h1M30 31h1M41 31h1M30 32h1M40 32h1M31 33h1M39 33h1M72 33h1M31 34h1M38 34h2M72 34h1M31 35h8M72 35h1M31 36h2M72 36h1M71 38h1M58 39h2M71 39h1M58 40h3M70 40h1M58 41h1M70 41h1M58 42h1M70 42h1M57 43h1M69 43h1M29 44h1M41 44h1M56 44h1M69 44h1M29 45h1M41 45h3M54 45h2M68 45h1M40 46h14M67 46h1M20 47h1M30 47h1M40 47h2M20 48h1M30 48h1M38 48h2M20 49h1M29 49h3M37 49h1M20 50h1M28 50h1M31 50h4M21 51h1M26 51h1M32 51h4M22 52h1M24 52h1M33 52h3M23 53h1M25 53h1M34 53h2M51 53h1M22 54h1M35 54h1M51 54h1M72 54h1M21 55h1M36 55h1M51 55h2M59 55h1M21 56h1M36 56h1M50 56h1M53 56h2M60 56h1M65 56h4M21 57h1M37 57h1M48 57h2M55 57h10M69 57h1M22 58h1M38 58h1M47 58h1M56 58h6M71 58h2M22 59h1M39 59h1M45 59h2M54 59h1M61 59h1M22 60h1M40 60h5M47 60h1M53 60h1M23 61h1M41 61h2M46 61h1M52 61h1M23 62h1M42 62h1M24 63h1M38 63h1M45 63h1M51 63h1M25 64h1M45 64h1M51 64h1M25 65h2M39 65h1M45 65h1M51 65h1M25 66h1M27 66h2M43 66h1M51 66h1M25 67h1M29 67h2M40 67h1M43 67h1M46 67h1M51 67h1M31 68h2M43 68h1M47 68h1M65 68h1M26 69h1M33 69h2M41 69h1M43 69h3M52 69h1M65 69h1M26 70h1M35 70h3M41 70h2M46 70h8M65 70h1M26 71h1M36 71h1M38 71h3M53 71h1M64 71h1M35 72h1M53 72h1M64 72h1M25 73h1M52 73h1M63 73h1M25 74h1M52 74h1M62 74h1M25 75h1M51 75h1M26 76h1M33 76h5M51 76h1M28 77h5M51 77h1M52 78h1M61 78h5M54 79h7" />
<path stroke="#592813" d="M40 23h5M36 24h4M45 24h1M34 25h2M46 25h1M33 26h1M46 26h1M31 27h2M46 27h1M30 28h1M46 28h1M50 28h4M45 29h3M54 29h1M31 30h1M43 30h2M55 30h1M31 31h1M42 31h1M56 31h1M27 32h3M56 32h1M26 33h1M28 33h1M30 33h1M32 33h1M56 33h2M25 34h1M28 34h1M30 34h1M57 34h1M24 35h1M29 35h2M58 35h1M24 36h1M29 36h2M33 36h1M38 36h1M58 36h1M23 37h1M30 37h2M58 37h1M22 38h1M30 38h1M58 38h1M22 39h1M30 39h1M21 40h1M29 40h1M21 41h1M29 41h1M59 41h2M20 42h1M29 42h1M55 42h1M61 42h1M20 43h1M29 43h1M41 43h1M45 43h2M54 43h1M62 43h1M20 44h1M42 44h1M48 44h6M60 44h1M63 44h1M20 45h1M28 45h1M37 45h1M40 45h1M44 45h1M59 45h1M64 45h1M20 46h1M28 46h4M36 46h1M58 46h1M65 46h1M27 47h3M32 47h3M39 47h1M48 47h4M57 47h1M66 47h1M27 48h3M31 48h1M40 48h4M50 48h4M56 48h1M63 48h4M26 49h3M36 49h1M38 49h1M47 49h1M51 49h4M62 49h1M25 50h3M29 50h2M35 50h1M51 50h4M61 50h1M23 51h3M27 51h1M31 51h1M48 51h1M51 51h4M60 51h1M23 52h1M25 52h1M28 52h2M32 52h1M48 52h1M51 52h4M60 52h1M26 53h1M30 53h1M33 53h1M48 53h1M52 53h3M59 53h1M23 54h1M31 54h1M34 54h1M48 54h1M52 54h4M59 54h1M32 55h1M35 55h1M47 55h1M53 55h4M33 56h1M46 56h1M55 56h3M34 57h1M67 57h1M35 58h1M45 58h1M48 58h2M67 58h1M36 59h1M44 59h1M47 59h2M66 59h1M37 60h1M45 60h2M66 60h1M37 61h1M40 61h1M43 61h3M65 61h1M38 62h4M43 62h3M65 62h1M39 63h6M37 64h8M35 65h4M40 65h5M33 66h10M44 66h2M31 67h9M41 67h2M44 67h2M33 68h10M44 68h3M35 69h6M42 69h1M46 69h3M38 70h3" />
<path stroke="#966029" d="M40 24h4M36 25h9M34 26h11M33 27h12M32 28h12M32 29h10M32 30h8M45 30h9M32 31h7M44 31h11M33 32h5M42 32h14M34 33h3M41 33h15M41 34h15M41 35h15M34 36h4M41 36h15M33 37h6M41 37h15M32 38h7M41 38h15M31 39h9M42 39h14M31 40h9M42 40h14M30 41h10M43 41h12M30 42h10M44 42h11M30 43h9M48 43h5M30 44h9M31 45h6M32 46h3M68 46h1M42 47h6M67 47h3M46 48h4M67 48h3M48 49h3M67 49h3M49 50h2M68 50h1M49 51h1M65 57h2M64 58h3M65 59h1" />
<path stroke="#754026" d="M44 24h1M45 25h1M45 26h1M45 27h1M31 28h1M44 28h2M30 29h2M42 29h3M48 29h6M30 30h1M40 30h3M54 30h1M39 31h2M43 31h1M55 31h1M31 32h2M38 32h2M41 32h1M27 33h1M29 33h1M33 33h1M37 33h2M40 33h1M26 34h2M29 34h1M32 34h6M40 34h1M56 34h1M25 35h4M39 35h2M56 35h2M25 36h4M39 36h2M56 36h2M24 37h6M32 37h1M39 37h2M56 37h2M23 38h7M31 38h1M39 38h2M56 38h2M23 39h7M40 39h2M56 39h2M22 40h7M30 40h1M40 40h2M56 40h2M22 41h7M40 41h3M55 41h3M21 42h8M40 42h4M56 42h2M59 42h2M21 43h8M39 43h2M42 43h3M47 43h1M53 43h1M55 43h2M58 43h4M21 44h8M39 44h2M43 44h5M54 44h2M57 44h3M61 44h2M21 45h7M30 45h1M38 45h2M45 45h9M56 45h3M60 45h4M69 45h1M21 46h7M35 46h1M37 46h3M54 46h4M59 46h6M69 46h1M21 47h6M31 47h1M35 47h4M52 47h5M58 47h8M70 47h1M21 48h6M32 48h6M44 48h2M54 48h2M57 48h6M70 48h1M21 49h5M32 49h4M39 49h8M55 49h7M70 49h1M21 50h4M36 50h13M55 50h6M69 50h1M22 51h1M28 51h3M36 51h12M50 51h1M55 51h5M26 52h2M30 52h2M36 52h12M49 52h2M55 52h5M24 53h1M27 53h3M31 53h2M36 53h12M49 53h2M55 53h4M24 54h7M32 54h2M36 54h12M49 54h2M56 54h3M22 55h10M33 55h2M37 55h10M48 55h3M57 55h2M22 56h11M34 56h2M37 56h9M47 56h3M51 56h2M58 56h2M22 57h12M35 57h2M38 57h10M50 57h5M23 58h12M36 58h2M39 58h6M46 58h1M50 58h6M62 58h2M23 59h13M37 59h2M40 59h4M49 59h5M62 59h3M23 60h14M38 60h2M48 60h5M63 60h3M24 61h13M38 61h2M47 61h5M64 61h1M24 62h14M46 62h6M64 62h1M25 63h13M46 63h5M26 64h11M46 64h5M27 65h8M46 65h5M29 66h4M46 66h5M47 67h4M48 68h4M49 69h3" />
<path stroke="#b98a6f" d="M63 49h1M62 50h2M61 51h4M61 52h3M65 52h1M68 52h2M60 53h5M66 53h1M70 53h1M60 54h6M60 55h6M61 56h4M56 59h4M54 60h6M53 61h8M53 62h9M52 63h10M52 64h11M52 65h11M26 66h1M52 66h11M64 66h1M26 67h3M52 67h13M27 68h4M53 68h12M27 69h6M53 69h12M28 70h7M54 70h11M27 71h9M55 71h9M27 72h8M54 72h10M26 73h7M53 73h10M26 74h6M53 74h9M26 75h8M52 75h9M28 76h5M52 76h8M52 77h10M54 78h7" />
<path stroke="#d8af8d" d="M64 49h2M64 50h3M65 51h3M64 52h1M66 52h2M65 53h1M60 60h2M61 61h2M62 62h1M62 63h2M63 64h1M63 65h2M63 66h1M33 73h1M32 74h2M61 75h1M60 76h2" />
<path stroke="#805e4f" d="M66 49h1M67 50h1M68 51h3M67 53h1M66 54h1M66 55h1M55 59h1M60 59h1M62 60h1M63 61h1M52 62h1M63 62h1M64 63h1M64 64h1M65 65h1M65 66h1M65 67h1M26 68h1M52 68h1M27 70h1M54 71h1M26 72h1M34 73h1M34 74h1M34 75h1M62 75h1M27 76h1M62 76h1M62 77h1M53 78h1" />
<path stroke="#eeeeee" d="M70 52h1M68 53h2M71 53h1M67 54h4M67 55h4M69 56h3M71 57h1M35 74h1M35 75h2M63 76h1M63 77h2" />
</svg>