<svg xmlns="http://www.w3.org/2000/svg" viewBox="0 -0.5 96 96" shape-rendering="crispEdges">
<metadata>Made with Pixels to Svg https://codepen.io/shshaw/pen/XbxvNj</metadata>
<path stroke="#5a1000" d="M41 29h5M40 30h1M46 30h2M52 30h2M40 31h1M48 31h1M51 31h1M54 31h2M32 32h2M37 32h3M56 32h1M31 33h1M34 33h3M57 33h1M60 33h2M30 34h1M38 34h3M57 34h1M59 34h1M62 34h1M19 35h2M30 35h1M58 35h1M63 35h1M18 36h1M21 36h2M31 36h1M54 36h1M63 36h1M16 37h1M18 37h2M23 37h1M31 37h2M63 37h1M72 37h3M20 38h1M30 38h1M63 38h1M70 38h2M75 38h2M14 39h1M25 39h2M29 39h1M63 39h1M69 39h1M73 39h3M13 40h1M24 40h1M26 40h1M28 40h2M50 40h2M63 40h3M76 40h2M12 41h1M21 41h3M26 41h1M28 41h1M49 41h1M52 41h1M61 41h1M63 41h1M66 41h1M72 41h1M78 41h1M12 42h1M27 42h1M33 42h2M53 42h1M61 42h1M66 42h1M68 42h2M79 42h1M25 43h1M54 43h1M60 43h1M64 43h1M66 43h1M70 43h1M24 44h1M41 44h3M54 44h1M59 44h2M65 44h1M71 44h1M13 45h1M18 45h2M40 45h1M44 45h1M65 45h1M20 46h1M31 46h1M39 46h1M44 46h1M70 46h2M74 46h2M22 47h1M32 47h1M45 47h1M62 47h2M76 47h2M24 48h1M45 48h1M61 48h2M64 48h1M23 49h1M26 49h1M68 49h1M13 50h1M27 50h1M62 50h1M19 51h1M26 51h1M31 51h1M62 51h1M66 51h1M30 52h1M55 52h2M63 52h1M67 52h1M21 53h2M54 53h1M57 53h1M60 53h1M64 53h1M67 53h1M25 54h1M38 54h1M58 54h1M61 54h1M27 55h1M29 55h1M65 55h1M27 56h1M31 56h1M38 56h2M42 56h1M68 56h1M41 57h1M57 57h1M28 58h1M55 58h5M75 58h1M31 59h2M53 59h8M29 60h5M38 60h2M46 60h2M53 60h1M55 60h6M30 61h4M38 61h3M47 61h2M52 61h1M54 61h6M31 62h4M37 62h5M47 62h3M53 62h6M33 63h10M47 63h10M34 64h22M32 65h2M36 65h18M56 65h3M31 66h1M39 66h6M49 66h2M59 66h3M62 67h1M41 68h1M49 68h1M49 69h1" />
<path stroke="#9c2e00" d="M41 30h1M41 31h1M32 33h1M39 33h2M31 34h2M42 34h1M51 34h1M31 35h3M38 35h4M48 35h3M56 35h1M32 36h5M38 36h10M62 36h1M20 37h1M33 37h14M62 37h1M16 38h4M35 38h1M38 38h7M53 38h4M61 38h2M16 39h4M38 39h7M51 39h5M61 39h2M72 39h1M17 40h3M38 40h7M48 40h2M52 40h1M54 40h1M60 40h1M62 40h1M73 40h2M17 41h3M30 41h1M40 41h5M50 41h2M54 41h1M62 41h1M73 41h2M18 42h3M23 42h2M29 42h1M31 42h1M43 42h4M50 42h3M54 42h1M62 42h3M73 42h2M18 43h6M28 43h1M30 43h1M34 43h2M52 43h2M65 43h1M73 43h1M20 44h4M29 44h1M34 44h3M61 44h2M73 44h1M21 45h2M35 45h2M41 45h3M62 45h2M69 45h5M40 46h1M42 46h1M62 46h3M21 47h1M41 47h1M43 47h1M61 47h1M20 48h3M60 48h1M20 49h3M61 49h1M20 50h2M33 50h1M32 51h3M32 52h6M77 52h1M33 53h4M56 53h1M76 53h3M34 54h2M55 54h1M57 54h1M75 54h1M77 54h1M54 55h1M56 55h1M74 55h1M55 56h1M74 56h1M74 57h1M49 58h1M51 58h1M74 58h1M50 59h1M52 59h1M49 60h1M51 60h1M32 66h2M58 66h1M31 67h3M58 67h4M31 68h2M59 68h3" />
<path stroke="#c57e20" d="M42 30h4M42 31h5M52 31h2M42 32h6M53 32h3M37 33h1M43 33h7M54 33h2M36 34h2M46 34h2M61 34h1M35 35h2M61 35h2M60 36h2M59 37h3M59 38h2M56 39h3M57 40h3M59 41h2M59 42h2" />
<path stroke="#bd4f00" d="M47 31h1M51 32h2M33 33h1M38 33h1M41 33h2M50 33h4M56 33h1M33 34h2M43 34h3M48 34h3M53 34h4M60 34h1M34 35h1M43 35h5M51 35h2M54 35h2M59 35h2M19 36h2M48 36h3M52 36h2M55 36h5M17 37h1M21 37h2M47 37h5M53 37h1M55 37h4M47 38h5M72 38h3M48 39h3M70 39h2M25 40h1M55 40h2M24 41h2M55 41h4M64 41h2M55 42h4M65 42h1M56 43h4M63 43h1M69 43h1M63 44h2M69 44h1M60 45h2M64 45h1M59 46h3M58 47h3" />
<path stroke="#7b2200" d="M40 32h2M48 32h1M35 34h1M41 34h1M52 34h1M37 35h1M42 35h1M53 35h1M57 35h1M37 36h1M51 36h1M52 37h1M54 37h1M15 38h1M31 38h1M36 38h2M52 38h1M57 38h2M15 39h1M30 39h1M35 39h3M59 39h2M76 39h1M14 40h3M30 40h1M35 40h3M53 40h1M61 40h1M72 40h1M75 40h1M78 40h1M13 41h4M20 41h1M29 41h1M31 41h1M34 41h6M48 41h1M53 41h1M75 41h3M13 42h5M21 42h2M28 42h1M30 42h1M32 42h1M35 42h8M47 42h3M75 42h4M13 43h5M26 43h2M29 43h1M31 43h1M33 43h1M36 43h16M55 43h1M61 43h2M74 43h6M13 44h7M25 44h4M30 44h1M32 44h2M37 44h4M44 44h10M55 44h4M70 44h1M72 44h1M74 44h6M14 45h4M20 45h1M24 45h7M32 45h3M37 45h3M45 45h15M74 45h6M13 46h7M24 46h7M32 46h7M41 46h1M43 46h1M45 46h14M72 46h2M76 46h4M14 47h7M24 47h8M33 47h8M42 47h1M44 47h1M46 47h12M64 47h1M70 47h6M78 47h2M14 48h2M18 48h2M25 48h20M46 48h14M63 48h1M69 48h2M73 48h5M79 48h1M14 49h1M18 49h2M27 49h12M42 49h19M62 49h2M69 49h1M73 49h2M77 49h2M14 50h1M18 50h2M24 50h2M28 50h5M34 50h5M43 50h19M63 50h2M68 50h2M73 50h1M77 50h1M14 51h1M18 51h1M22 51h3M27 51h4M35 51h4M43 51h19M63 51h3M68 51h1M72 51h2M77 51h1M14 52h1M17 52h7M25 52h5M31 52h1M38 52h2M42 52h13M57 52h6M64 52h3M68 52h1M71 52h3M15 53h3M19 53h2M23 53h1M25 53h4M30 53h3M37 53h17M55 53h1M58 53h2M61 53h3M65 53h2M68 53h6M16 54h1M20 54h4M26 54h3M30 54h4M36 54h2M39 54h16M56 54h1M59 54h2M63 54h8M74 54h1M16 55h1M20 55h4M28 55h1M31 55h7M39 55h15M55 55h1M57 55h1M59 55h4M66 55h5M16 56h1M20 56h2M28 56h3M33 56h5M40 56h2M43 56h12M56 56h1M58 56h7M67 56h1M69 56h1M73 56h1M19 57h2M28 57h11M42 57h15M58 57h6M69 57h1M73 57h1M29 58h20M50 58h1M52 58h3M60 58h3M73 58h1M29 59h2M33 59h17M51 59h1M61 59h2M73 59h2M34 60h4M40 60h3M50 60h1M52 60h1M61 60h1M35 61h2M41 61h1M50 61h2M60 61h1M34 66h2M53 66h5M34 67h5M51 67h7M33 68h8M50 68h9M33 69h6M50 69h10M52 70h5" />
<path stroke="#101010" d="M49 32h2M17 36h1M15 37h1M14 38h1M21 38h3M13 39h1M20 39h1M77 39h2M20 40h1M70 40h2M79 40h1M79 41h1M25 42h2M72 42h1M80 42h1M12 43h1M24 43h1M32 43h1M68 43h1M72 43h1M80 43h1M12 44h1M31 44h1M68 44h1M80 44h1M12 45h1M23 45h1M31 45h1M68 45h1M80 45h1M12 46h1M21 46h3M65 46h1M69 46h1M80 46h1M23 47h1M65 47h1M69 47h1M80 47h1M11 48h1M23 48h1M68 48h1M78 48h1M80 48h1M11 49h1M24 49h2M64 49h1M70 49h1M79 49h1M10 50h1M22 50h2M26 50h1M65 50h1M67 50h1M72 50h1M79 50h1M10 51h1M12 51h2M17 51h1M20 51h2M25 51h1M67 51h1M71 51h1M76 51h1M80 51h1M11 52h1M13 52h1M15 52h2M24 52h1M69 52h2M76 52h1M80 52h1M24 53h1M29 53h1M74 53h2M79 53h2M13 54h1M24 54h1M29 54h1M62 54h1M78 54h1M13 55h1M24 55h3M30 55h1M38 55h1M58 55h1M63 55h2M78 55h1M13 56h1M19 56h1M22 56h2M32 56h1M57 56h1M65 56h2M77 56h1M13 57h2M16 57h3M21 57h1M27 57h1M39 57h2M64 57h1M67 57h2M77 57h1M18 58h3M27 58h1M63 58h1M68 58h1M76 58h1M28 59h1M63 59h1M69 59h1M75 59h1M28 60h1M48 60h1M54 60h1M62 60h1M70 60h5M29 61h1M34 61h1M37 61h1M49 61h1M53 61h1M61 61h1M30 62h1M35 62h2M50 62h3M59 62h2M31 63h2M57 63h2M33 64h1M56 64h1M34 65h2M54 65h2M36 66h3M45 66h4M51 66h2M30 67h1M39 67h6M49 67h2M30 68h1M62 68h1M31 69h2M39 69h2M60 69h2M33 70h6M50 70h2M57 70h3M52 71h5" />
<path stroke="#d58313" d="M32 38h3M45 38h2M31 39h1M47 39h1M31 40h1M34 40h1M32 41h2M45 41h1M39 49h3M39 50h1M42 50h1M39 51h1M42 51h1M40 52h2M69 58h1M72 58h1M72 59h1M43 60h3M42 61h5M42 62h5M43 63h4" />
<path stroke="#f9b62b" d="M32 39h3M45 39h2M32 40h2M45 40h3M46 41h2M40 50h2M40 51h2M70 59h2" />
<path stroke="#1b1c1a" d="M12 47h2M13 48h1M16 48h2M71 48h2M13 49h1M15 49h1M17 49h1M72 49h1M75 49h2M12 50h1M15 50h1M17 50h1M70 50h1M74 50h1M76 50h1M78 50h1M15 51h1M69 51h1M74 51h1M78 51h1M74 52h1M78 52h1M14 53h1M18 53h1M15 54h1M17 54h1M19 54h1M71 54h3M76 54h1M15 55h1M17 55h1M19 55h1M71 55h1M73 55h1M75 55h1M77 55h1M15 56h1M17 56h1M70 56h1M72 56h1M75 56h1M70 57h1M72 57h1M75 57h1M70 58h2" />
<path stroke="#2e312b" d="M12 48h1M12 49h1M16 49h1M71 49h1M11 50h1M16 50h1M71 50h1M75 50h1M11 51h1M16 51h1M70 51h1M75 51h1M79 51h1M75 52h1M79 52h1M14 54h1M18 54h1M14 55h1M18 55h1M72 55h1M76 55h1M14 56h1M18 56h1M71 56h1M76 56h1M71 57h1M76 57h1" />
</svg>