<svg xmlns="http://www.w3.org/2000/svg" viewBox="0 -0.5 96 96" shape-rendering="crispEdges">
<metadata>Made with Pixels to Svg https://codepen.io/shshaw/pen/XbxvNj</metadata>
<path stroke="#806f5e" d="M66 16h4M63 17h3M61 18h2M72 18h5M60 19h1M70 19h2M59 20h1M69 20h1M56 21h1M58 21h1M66 21h1M68 21h1M74 21h1M49 22h1M57 22h1M66 22h2M50 23h2M57 23h1M66 23h1M52 24h2M56 24h1M66 24h1M74 24h5M54 25h1M56 25h1M55 26h2M72 26h1M41 27h4M56 27h1M45 28h3M60 28h1M48 29h3M61 29h1M67 29h3M51 30h1M61 30h1M62 31h1M67 31h3M19 32h5M54 32h1M62 32h1M19 33h1M24 33h3M48 33h3M55 33h2M63 33h1M20 34h2M27 34h2M49 34h1M57 34h1M64 34h1M67 34h5M19 35h2M29 35h2M48 35h1M58 35h1M64 35h1M17 36h2M31 36h1M42 36h2M49 36h1M65 36h1M70 36h1M16 37h1M32 37h1M40 37h2M50 37h1M15 38h1M33 38h1M49 38h1M55 38h1M69 38h1M14 39h1M33 39h1M48 39h1M54 39h1M68 39h1M14 40h1M34 40h1M53 40h1M69 40h1M13 41h1M34 41h1M53 41h1M70 41h1M13 42h1M35 42h1M52 42h1M71 42h1M12 43h1M35 43h1M51 43h1M59 43h1M69 43h1M12 44h1M30 44h1M36 44h1M50 44h1M59 44h1M66 44h1M69 44h1M12 45h1M29 45h1M36 45h1M50 45h1M60 45h1M69 45h1M11 46h1M28 46h1M36 46h1M49 46h1M60 46h1M11 47h1M28 47h1M33 47h1M36 47h1M60 47h1M11 48h1M36 48h1M60 48h1M11 49h1M14 49h1M27 49h1M36 49h1M60 49h1M68 49h1M10 50h1M14 50h1M68 50h1M68 51h1M26 52h1M68 52h1M67 53h1M67 54h1M16 55h1M67 55h1M17 56h1M25 56h1M28 56h1M67 56h1M27 57h1M67 57h1M26 58h1M21 60h1M38 60h1M20 61h2M37 61h1M29 62h1M37 62h1M28 64h1M41 64h1M25 65h1M28 65h1M52 65h1M28 66h1M40 66h1M53 66h3M28 67h1M53 67h1M56 67h1M24 68h1M28 68h2M57 68h1M63 68h1M28 69h1M30 69h2M39 69h1M64 69h3M32 70h1M36 70h1M39 70h1M64 70h1M67 70h1M39 71h1M68 71h1M35 72h1M39 72h1M39 73h3M42 74h1M43 75h1" />
<path stroke="#ece8d7" d="M66 17h3M64 18h4M62 19h5M73 19h3M60 20h6M71 20h4M59 21h7M69 21h5M56 22h1M59 22h6M68 22h5M49 23h1M59 23h3M68 23h4M50 24h2M58 24h1M60 24h1M65 24h1M67 24h1M69 24h1M51 25h3M57 25h1M59 25h1M61 25h1M66 25h1M68 25h1M73 25h5M53 26h2M58 26h1M65 26h1M67 26h1M74 26h3M55 27h1M44 28h1M45 29h3M60 29h1M47 30h4M60 30h1M66 30h2M50 31h1M52 31h1M60 31h2M64 31h1M66 31h1M51 32h1M61 32h1M63 32h1M65 32h4M20 33h4M52 33h1M61 33h2M64 33h1M66 33h2M24 34h3M50 34h2M62 34h2M65 34h2M26 35h3M49 35h4M62 35h2M65 35h6M25 36h6M50 36h2M63 36h2M66 36h3M19 37h3M28 37h4M42 37h2M64 37h1M66 37h1M68 37h1M17 38h6M30 38h3M40 38h3M65 38h1M67 38h1M16 39h5M29 39h1M31 39h1M66 39h1M15 40h1M17 40h1M19 40h1M21 40h1M30 40h1M32 40h1M68 40h1M16 41h1M18 41h1M20 41h1M68 41h2M67 42h1M69 42h2M68 43h1M12 46h1M12 47h2M12 48h2M67 48h1M12 49h1M67 49h1M11 50h2M67 50h1M67 51h1M66 52h2M66 53h1M66 54h1M29 56h1M28 57h2M27 58h3M26 59h3M26 60h1M38 61h1M38 62h1M37 63h2M37 64h1M54 67h2M55 68h2M29 69h1M29 70h3M65 70h2M66 71h2M39 74h3M41 75h2" />
<path stroke="#101010" d="M69 17h1M68 18h1M68 19h1M76 19h1M51 20h1M67 20h1M75 20h1M51 21h1M55 21h1M67 21h1M48 22h1M51 22h1M55 22h1M74 22h1M48 23h1M52 23h1M73 23h1M48 24h1M73 24h1M48 25h1M55 25h1M72 25h1M48 26h1M49 27h1M41 28h1M49 28h1M76 28h1M42 29h1M59 29h1M75 29h1M82 29h3M42 30h1M59 30h1M74 30h1M80 30h2M43 31h1M58 31h1M73 31h1M44 32h1M53 32h1M58 32h1M69 32h1M72 32h1M45 33h1M53 33h1M58 33h1M68 33h1M71 33h1M53 34h1M58 34h1M43 35h1M53 35h1M71 35h1M44 36h1M53 36h1M45 37h2M54 37h1M70 37h1M39 38h1M47 38h2M54 38h1M40 39h2M69 39h1M42 40h2M79 40h4M37 41h2M36 42h1M70 43h2M30 45h2M59 45h1M66 45h2M71 45h1M77 45h2M29 46h1M32 46h1M56 46h3M65 46h2M68 46h2M72 46h2M79 46h3M31 47h1M49 47h7M64 47h1M66 47h2M75 47h3M28 48h1M63 48h1M66 48h1M68 48h1M30 49h1M62 49h1M69 49h1M13 50h1M27 50h1M60 50h2M70 50h1M10 51h3M14 51h1M27 51h1M36 51h1M14 52h1M33 52h1M36 52h1M15 53h1M26 53h1M34 53h1M36 53h1M15 54h1M26 54h1M35 54h3M47 54h1M52 54h6M26 55h1M37 55h1M47 55h4M57 55h1M64 55h1M16 56h1M36 56h1M38 56h1M47 56h1M56 56h1M65 56h1M17 57h1M25 57h1M36 57h1M38 57h1M47 57h1M56 57h1M62 57h1M66 57h1M18 58h1M25 58h1M35 58h1M39 58h1M47 58h1M51 58h1M56 58h1M62 58h1M19 59h1M24 59h2M33 59h2M39 59h1M46 59h2M51 59h1M56 59h1M62 59h1M19 60h1M24 60h2M31 60h2M46 60h2M51 60h1M57 60h1M62 60h1M19 61h1M23 61h1M25 61h1M30 61h1M45 61h1M47 61h1M51 61h1M57 61h1M62 61h1M20 62h1M22 62h1M25 62h1M43 62h2M48 62h1M58 62h1M62 62h1M20 63h2M25 63h1M29 63h1M36 63h1M42 63h1M48 63h1M52 63h1M58 63h1M62 63h1M25 64h1M36 64h1M49 64h1M52 64h1M59 64h1M62 64h1M36 65h1M41 65h1M49 65h1M59 65h1M24 66h1M36 66h1M48 66h1M60 66h1M63 66h1M24 67h1M36 67h1M40 67h1M48 67h1M60 67h1M63 67h1M36 68h1M40 68h1M48 68h1M59 68h2M23 69h1M36 69h1M48 69h1M57 69h2M60 69h1M23 70h1M34 70h1M49 70h2M55 70h2M59 70h1M23 71h1M32 71h2M35 71h1M51 71h4M59 71h1M70 71h1M24 72h2M30 72h2M59 72h1M68 72h2M26 73h4M34 73h1M60 73h2M66 73h2M34 74h1M62 74h4M34 75h1M45 75h1M35 76h2M41 76h4M37 77h4" />
<path stroke="#c7b3a7" d="M63 18h1M61 19h1M67 19h1M72 19h1M66 20h1M70 20h1M58 22h1M65 22h1M73 22h1M56 23h1M58 23h1M62 23h4M67 23h1M72 23h1M49 24h1M57 24h1M59 24h1M61 24h4M68 24h1M70 24h3M49 25h2M58 25h1M60 25h1M62 25h4M67 25h1M69 25h3M49 26h4M57 26h1M59 26h6M66 26h1M68 26h4M73 26h1M50 27h5M57 27h17M42 28h2M50 28h10M61 28h11M43 29h2M51 29h8M62 29h5M43 30h4M52 30h7M62 30h4M44 31h6M51 31h1M53 31h5M59 31h1M63 31h1M65 31h1M45 32h6M52 32h1M55 32h3M59 32h2M64 32h1M46 33h2M51 33h1M54 33h1M57 33h1M59 33h2M65 33h1M22 34h2M52 34h1M54 34h3M59 34h3M21 35h5M54 35h4M59 35h3M19 36h6M52 36h1M54 36h9M69 36h1M17 37h2M22 37h6M44 37h1M51 37h3M55 37h9M65 37h1M67 37h1M69 37h1M16 38h1M23 38h7M43 38h4M50 38h3M56 38h9M66 38h1M68 38h1M15 39h1M21 39h8M30 39h1M32 39h1M42 39h6M49 39h2M55 39h11M67 39h1M16 40h1M18 40h1M20 40h1M22 40h8M31 40h1M33 40h1M44 40h4M54 40h14M14 41h2M17 41h1M19 41h1M21 41h13M54 41h14M14 42h21M53 42h14M68 42h1M13 43h22M52 43h7M60 43h8M13 44h17M31 44h5M51 44h8M60 44h6M67 44h2M13 45h16M32 45h4M51 45h8M61 45h5M68 45h1M13 46h15M33 46h3M50 46h6M61 46h4M14 47h14M34 47h2M61 47h3M14 48h14M33 48h3M61 48h2M13 49h1M15 49h12M33 49h3M61 49h1M15 50h12M33 50h3M15 51h12M34 51h2M15 52h11M34 52h2M16 53h10M35 53h1M16 54h10M65 54h1M17 55h9M35 55h1M65 55h2M18 56h7M34 56h2M66 56h1M18 57h7M32 57h3M19 58h6M30 58h4M44 58h1M20 59h4M29 59h4M44 59h1M20 60h1M22 60h2M27 60h4M40 60h1M43 60h2M22 61h1M26 61h4M39 61h2M43 61h2M21 62h1M26 62h3M39 62h1M42 62h1M26 63h3M39 63h3M26 64h2M38 64h3M26 65h2M37 65h4M51 65h1M25 66h3M37 66h3M49 66h4M62 66h1M25 67h3M37 67h3M49 67h4M61 67h2M25 68h3M37 68h3M49 68h6M61 68h2M24 69h4M37 69h2M49 69h8M61 69h3M24 70h5M37 70h2M51 70h4M60 70h4M24 71h8M36 71h3M60 71h6M26 72h4M36 72h3M60 72h8M35 73h4M62 73h4M35 74h4M35 75h6M37 76h4" />
<path stroke="#362718" d="M52 20h1M53 21h1M54 22h1M55 23h1M74 23h1M80 24h2M78 25h2M81 25h1M77 26h1M81 26h2M74 27h3M81 27h1M83 27h1M72 28h2M80 28h1M84 28h1M70 29h2M68 30h2M43 34h6M70 44h1M70 45h1M71 46h1M71 47h1M71 48h1M71 49h1M71 50h1M56 66h2M57 67h2M30 68h2M32 69h2M67 69h2M68 70h2M42 73h2M43 74h2" />
<path stroke="#846f51" d="M52 21h1M53 22h1M54 23h1M55 24h1M80 25h1M78 26h3M80 27h1M82 27h1M74 28h2M81 28h3M72 29h2M70 30h2M70 31h1M45 35h3M47 36h2M69 47h2M70 48h1M58 68h1M33 70h1M69 71h1M44 75h1" />
<path stroke="#614836" d="M52 22h1M53 23h1M54 24h1M74 29h1M81 29h1M72 30h2M71 31h2M70 32h2M69 33h2M44 35h1M45 36h2M47 37h3M67 46h1M70 46h1M68 47h1M69 48h1M70 49h1" />
<path stroke="#3a77ba" d="M77 27h2M77 28h3M76 29h3M75 30h3M74 31h2M77 33h1M77 34h2M78 35h1M79 37h1M79 38h2M81 39h1M48 41h2M78 41h2M39 42h13M79 42h1M41 43h10M79 43h2M43 44h6M80 44h1M65 49h1M64 50h2M30 51h1M64 51h2M30 52h1M64 52h1M30 53h2M63 53h2M30 54h2M63 54h1M29 55h3M52 55h1M62 55h1M30 56h1M62 56h1M51 57h1" />
<path stroke="#364694" d="M79 27h1M79 29h1M78 30h1M76 31h3M73 32h5M72 33h5M72 34h5M72 35h5M71 36h7M71 37h8M70 38h9M53 39h1M70 39h7M79 39h2M51 40h2M70 40h9M50 41h3M71 41h7M37 42h2M72 42h7M36 43h5M72 43h7M37 44h6M49 44h1M71 44h5M77 44h3M37 45h13M72 45h5M79 45h2M37 46h12M59 46h1M75 46h2M37 47h12M56 47h4M65 47h1M38 48h22M64 48h2M31 49h1M38 49h7M46 49h14M63 49h2M31 50h1M37 50h9M47 50h13M62 50h2M31 51h2M37 51h9M47 51h17M31 52h2M37 52h10M48 52h9M58 52h6M32 53h2M37 53h10M48 53h8M58 53h5M32 54h3M38 54h9M48 54h3M58 54h5M32 55h3M36 55h1M38 55h9M51 55h1M58 55h4M31 56h3M39 56h8M48 56h4M57 56h5M30 57h2M35 57h1M39 57h8M48 57h3M57 57h5M34 58h1M40 58h4M45 58h2M48 58h3M57 58h5M40 59h4M45 59h1M48 59h3M57 59h5M41 60h2M45 60h1M48 60h3M58 60h4M41 61h2M48 61h3M58 61h4M40 62h2M49 62h2M59 62h3M49 63h3M59 63h3M50 64h2M60 64h2M50 65h1M60 65h2M61 66h1" />
<path stroke="#30305a" d="M80 29h1M79 30h1M79 31h1M78 32h1M78 33h1M79 34h1M77 35h1M79 35h1M78 36h2M80 37h1M53 38h1M81 38h1M51 39h2M77 39h2M82 39h1M48 40h3M39 41h9M80 41h1M80 42h1M81 43h1M76 44h1M81 44h1M81 45h1M74 46h1M77 46h1M32 47h1M31 48h2M37 48h1M32 49h1M37 49h1M45 49h1M66 49h1M30 50h1M32 50h1M36 50h1M46 50h1M66 50h1M29 51h1M33 51h1M46 51h1M66 51h1M29 52h1M47 52h1M57 52h1M65 52h1M29 53h1M47 53h1M56 53h2M65 53h1M29 54h1M51 54h1M64 54h1M28 55h1M53 55h1M63 55h1M52 56h1M63 56h1M52 57h1M39 60h1M51 62h1M62 65h1" />
</svg>