<svg xmlns="http://www.w3.org/2000/svg" viewBox="0 -0.5 96 96" shape-rendering="crispEdges">
<metadata>Made with Pixels to Svg https://codepen.io/shshaw/pen/XbxvNj</metadata>
<path stroke="#eeac00" d="M37 33h5M34 34h3M42 34h2M44 35h1M37 36h4M61 36h5M33 37h10M58 37h11M30 38h12M48 38h5M58 38h13M33 39h8M42 39h1M46 39h9M64 39h8M35 40h6M42 40h15M66 40h7M37 41h3M43 41h1M46 41h9M57 41h1M67 41h6M38 42h1M47 42h7M55 42h8M68 42h5M30 43h3M49 43h4M54 43h11M69 43h5M28 44h8M37 44h1M50 44h2M53 44h13M69 44h5M26 45h9M38 45h1M52 45h15M70 45h4M24 46h11M36 46h1M47 46h1M52 46h15M70 46h4M23 47h11M35 47h3M52 47h16M70 47h4M23 48h11M35 48h3M42 48h1M47 48h2M53 48h15M70 48h3M23 49h10M34 49h7M45 49h5M53 49h16M70 49h3M23 50h10M34 50h7M42 50h1M44 50h7M53 50h16M70 50h2M23 51h10M34 51h8M43 51h8M54 51h15M23 52h9M33 52h1M36 52h9M48 52h4M54 52h15M23 53h9M33 53h1M38 53h5M48 53h5M54 53h14M24 54h8M33 54h1M39 54h3M48 54h5M54 54h14M24 55h8M33 55h1M39 55h3M47 55h6M54 55h13M25 56h7M33 56h2M37 56h7M47 56h6M54 56h13M26 57h6M33 57h20M54 57h12M28 58h5M34 58h18M53 58h12M30 59h3M34 59h4M42 59h10M53 59h10M34 60h7M43 60h8M55 60h6M35 61h16M36 62h14M37 63h12M39 64h8" />
<path stroke="#b47b00" d="M48 33h4M61 33h5M46 34h2M52 34h2M59 34h2M66 34h2M32 35h2M45 35h1M54 35h1M58 35h1M68 35h2M31 36h1M44 36h1M55 36h1M57 36h1M70 36h1M30 37h1M43 37h1M56 37h1M71 37h1M29 38h1M42 38h1M57 38h1M72 38h1M28 39h5M59 39h5M72 39h1M26 40h2M33 40h2M57 40h2M64 40h2M25 41h1M35 41h2M41 41h2M44 41h2M56 41h1M66 41h1M24 42h1M37 42h1M39 42h1M43 42h1M46 42h1M67 42h1M24 43h1M38 43h1M46 43h3M68 43h1M36 44h1M39 44h1M49 44h1M52 44h1M68 44h1M35 45h1M47 45h1M51 45h1M69 45h1M38 46h1M41 46h1M44 46h1M69 46h1M38 47h1M43 47h1M69 47h1M38 48h1M73 48h1M42 49h1M70 51h1M34 52h2M45 52h3M34 53h1M37 53h1M43 53h2M47 53h1M38 54h1M42 54h1M47 54h1M35 56h2M45 56h2M38 59h1M41 59h1M41 60h1" />
<path stroke="#ffee10" d="M37 34h5M50 34h2M61 34h5M34 35h10M51 35h3M59 35h9M32 36h4M42 36h2M50 36h5M58 36h2M67 36h3M31 37h1M44 37h12M57 37h1M70 37h1M44 38h3M54 38h3M71 38h1M44 39h2M56 39h2M28 40h5M60 40h3M26 41h9M59 41h7M25 42h12M64 42h3M25 43h4M34 43h4M39 43h1M66 43h2M24 44h3M38 44h1M48 44h1M67 44h1M24 45h1M37 45h1M48 45h2M67 45h2M37 46h1M49 46h1M68 46h1M39 47h1M49 47h2M68 47h1M39 48h2M45 48h1M50 48h2M41 49h1M43 49h2M51 49h1M41 50h1M43 50h1M51 50h1M52 51h1" />
<path stroke="#ffffbd" d="M48 34h2M46 35h5M45 36h5M39 46h2M48 46h1M40 47h1M44 47h5M43 48h2" />
<path stroke="#f6cd10" d="M36 36h1M41 36h1M60 36h1M66 36h1M32 37h1M69 37h1M43 38h1M47 38h1M53 38h1M43 39h1M55 39h1M59 40h1M63 40h1M58 41h1M63 42h1M29 43h1M33 43h1M65 43h1M27 44h1M66 44h1M25 45h1M36 45h1M50 46h1M67 46h1M46 48h1M49 48h1M68 48h1M50 49h1M42 51h1M51 51h1M52 52h1" />
<path stroke="#101010" d="M41 39h1M58 39h1M41 40h1M73 40h1M40 41h1M55 41h1M73 41h1M40 42h3M44 42h2M54 42h1M73 42h1M40 43h6M53 43h1M74 43h1M23 44h1M40 44h2M45 44h3M74 44h1M23 45h1M39 45h2M46 45h1M50 45h1M74 45h1M23 46h1M35 46h1M45 46h2M51 46h1M74 46h1M22 47h1M34 47h1M41 47h2M51 47h1M74 47h1M22 48h1M34 48h1M41 48h1M52 48h1M69 48h1M22 49h1M33 49h1M52 49h1M69 49h1M73 49h1M22 50h1M33 50h1M52 50h1M69 50h1M72 50h1M22 51h1M33 51h1M53 51h1M69 51h1M71 51h1M22 52h1M32 52h1M53 52h1M69 52h1M22 53h1M32 53h1M53 53h1M68 53h1M23 54h1M32 54h1M37 54h1M43 54h1M53 54h1M68 54h1M23 55h1M32 55h1M37 55h1M43 55h1M53 55h1M67 55h1M24 56h1M32 56h1M53 56h1M67 56h1M25 57h1M32 57h1M53 57h1M66 57h1M26 58h2M33 58h1M52 58h1M65 58h1M28 59h2M33 59h1M39 59h2M52 59h1M63 59h2M30 60h4M42 60h1M51 60h1M53 60h2M61 60h2M34 61h1M51 61h1M55 61h6M35 62h1M50 62h1M36 63h1M49 63h1M37 64h2M47 64h2M39 65h8" />
<path stroke="#e69c00" d="M42 44h1M44 44h1M45 45h1M42 46h2" />
<path stroke="#ffcd4a" d="M43 44h1M41 45h4" />
<path stroke="#ffffff" d="M35 53h1M46 53h1M35 54h2M45 54h2M35 55h2M38 55h1M42 55h1M44 55h3" />
<path stroke="#dedede" d="M36 53h1M45 53h1M34 54h1M44 54h1M34 55h1M44 56h1" />
</svg>