<svg xmlns="http://www.w3.org/2000/svg" viewBox="0 -0.5 96 96" shape-rendering="crispEdges">
<metadata>Made with Pixels to Svg https://codepen.io/shshaw/pen/XbxvNj</metadata>
<path stroke="#2f2427" d="M45 0h1M44 1h1M46 1h1M44 2h1M46 2h1M44 3h1M46 3h1M39 4h1M43 4h1M47 4h1M38 5h1M40 5h1M42 5h1M47 5h1M38 6h1M40 6h1M42 6h1M47 6h1M38 7h1M41 7h1M48 7h1M37 8h1M41 8h1M49 8h1M37 9h1M41 9h1M49 9h1M36 10h1M40 10h2M50 10h1M36 11h1M50 11h1M34 12h2M51 12h2M33 13h1M53 13h1M33 14h1M54 14h1M32 15h1M54 15h1M32 16h1M55 16h1M32 17h1M55 17h1M31 18h1M55 18h1M56 19h1M57 20h1M57 21h1M58 22h1M59 23h1M53 44h1M55 49h1M55 53h1M53 56h1M82 62h1M73 63h1M81 63h3M73 64h2M76 64h2M82 64h2M74 65h2M77 65h2M83 65h2M77 66h3M83 66h2M78 67h2M77 90h1M75 91h1" />
<path stroke="#78373b" d="M45 1h1M45 2h1M45 3h1M44 4h3M39 5h1M43 5h4M39 6h1M46 6h1M39 7h2M46 7h2M39 8h2M46 8h3M40 9h1M46 9h3M46 10h4M48 11h2M34 13h1M50 13h3M34 14h1M50 14h4M33 15h1M51 15h3M51 16h4M53 17h2M54 18h1M54 19h2M53 20h1M55 20h2M54 21h1M56 21h1M53 22h1M55 22h3M56 23h3M57 24h1" />
<path stroke="#222426" d="M10 3h1M10 4h1M10 5h1M11 6h1M43 6h3M11 7h1M42 7h1M45 7h1M12 8h1M42 8h1M45 8h1M12 9h1M42 9h1M45 9h1M12 10h1M42 10h1M45 10h1M13 11h1M42 11h1M46 11h1M72 11h1M13 12h1M42 12h1M46 12h1M71 12h1M13 13h1M41 13h1M46 13h1M70 13h1M37 14h2M41 14h1M46 14h1M70 14h1M35 15h2M39 15h1M41 15h1M47 15h1M69 15h1M34 16h1M39 16h1M41 16h1M47 16h1M69 16h1M34 17h1M39 17h1M41 17h1M47 17h1M68 17h1M34 18h1M40 18h2M48 18h1M68 18h1M29 19h4M34 19h1M40 19h1M48 19h1M67 19h1M29 20h1M32 20h1M34 20h1M40 20h1M48 20h1M67 20h1M29 21h1M33 21h2M40 21h1M48 21h1M67 21h1M9 22h2M29 22h1M40 22h1M49 22h1M66 22h1M11 23h2M28 23h1M33 23h1M40 23h1M49 23h1M66 23h1M13 24h1M28 24h1M40 24h1M49 24h1M58 24h2M65 24h1M14 25h2M28 25h1M40 25h1M49 25h1M56 25h2M65 25h1M16 26h1M27 26h1M32 26h1M40 26h1M49 26h1M55 26h1M64 26h1M17 27h2M27 27h1M31 27h1M40 27h1M49 27h1M55 27h1M64 27h1M19 28h1M26 28h1M31 28h1M40 28h1M49 28h1M55 28h1M64 28h1M20 29h1M26 29h1M31 29h1M40 29h1M49 29h1M55 29h1M63 29h1M21 30h1M26 30h1M31 30h1M40 30h1M49 30h1M55 30h1M63 30h1M22 31h1M25 31h1M31 31h1M40 31h1M49 31h1M55 31h1M62 31h1M23 32h1M25 32h1M31 32h1M40 32h1M49 32h1M55 32h1M60 32h2M69 32h1M24 33h1M31 33h1M49 33h1M55 33h1M58 33h2M24 34h1M31 34h1M49 34h1M55 34h1M57 34h1M20 35h1M24 35h1M31 35h1M39 35h1M49 35h1M54 35h1M57 35h1M19 36h1M24 36h1M31 36h1M49 36h1M53 36h1M57 36h1M19 37h1M24 37h1M31 37h1M38 37h1M49 37h1M53 37h1M24 38h1M31 38h1M38 38h1M49 38h1M53 38h1M24 39h1M31 39h1M38 39h1M49 39h1M54 39h1M24 40h1M31 40h1M38 40h1M49 40h1M66 40h1M24 41h1M31 41h1M49 41h1M62 41h1M65 41h1M22 42h2M31 42h1M39 42h1M49 42h1M63 42h1M65 42h1M23 43h1M31 43h1M39 43h1M49 43h1M55 43h1M64 43h1M66 43h1M23 44h1M31 44h1M49 44h1M65 44h2M23 45h1M31 45h1M40 45h1M49 45h1M66 45h7M18 46h2M22 46h2M31 46h1M40 46h1M49 46h1M67 46h1M73 46h3M16 47h2M20 47h2M23 47h1M31 47h1M40 47h1M49 47h1M56 47h1M76 47h4M15 48h1M23 48h1M40 48h1M49 48h1M56 48h1M71 48h2M76 48h1M79 48h1M15 49h1M23 49h1M40 49h1M56 49h1M70 49h1M73 49h1M77 49h4M14 50h1M22 50h2M30 50h1M40 50h1M74 50h1M80 50h3M21 51h1M23 51h1M30 51h1M40 51h1M74 51h1M79 51h1M82 51h1M21 52h1M23 52h1M30 52h1M40 52h1M72 52h2M79 52h1M82 52h1M23 53h1M30 53h1M40 53h1M64 53h1M80 53h3M23 54h1M30 54h1M56 54h1M63 54h1M74 54h2M23 55h1M30 55h1M58 55h1M62 55h1M73 55h1M76 55h1M24 56h1M30 56h1M41 56h1M60 56h2M66 56h1M77 56h1M22 57h1M29 57h1M38 57h1M41 57h1M50 57h1M72 57h1M78 57h1M25 58h1M28 58h1M40 58h1M50 58h1M67 58h1M73 58h1M75 58h1M26 59h1M35 59h2M40 59h1M50 59h1M67 59h1M75 59h2M31 60h1M35 60h1M39 60h1M45 60h2M69 60h1M30 61h1M45 61h1M67 61h1M69 61h1M67 62h2M60 63h1M63 63h3M67 63h1M24 64h1M57 64h1M62 64h1M66 64h2M22 65h1M27 65h1M53 65h2M59 65h3M67 65h5M30 66h3M48 66h3M58 66h1M68 66h1M72 66h1M35 67h9M57 67h4M73 67h1M18 68h1M57 68h1M61 68h2M73 68h1M16 69h2M27 69h1M54 69h1M57 69h1M63 69h2M73 69h1M15 70h1M27 70h1M30 70h1M49 70h1M54 70h1M56 70h1M73 70h1M15 71h1M27 71h1M49 71h1M54 71h1M56 71h1M74 71h1M15 72h1M23 72h1M27 72h1M31 72h1M49 72h1M56 72h1M75 72h1M14 73h1M23 73h1M31 73h1M49 73h1M75 73h1M14 74h1M19 74h1M28 74h1M31 74h1M45 74h1M49 74h1M75 74h1M14 75h1M19 75h1M24 75h1M28 75h1M31 75h1M41 75h1M45 75h1M19 76h1M24 76h3M29 76h1M31 76h1M45 76h1M50 76h1M19 77h1M25 77h1M27 77h1M29 77h1M45 77h1M50 77h1M56 77h3M19 78h1M25 78h1M27 78h1M45 78h1M50 78h1M20 79h1M25 79h1M28 79h1M42 79h1M45 79h1M28 80h1M45 80h1M69 80h1M16 81h1M28 81h1M45 81h1M56 81h1M29 82h1M42 82h1M45 82h1M70 82h1M29 83h1M45 83h1M70 83h1M19 84h1M29 84h1M45 84h1M71 84h1M21 85h1M45 85h1M61 85h3M66 85h2M22 86h1M62 86h1M72 86h1M19 87h3M72 87h1M21 88h3M32 88h1M73 88h1M25 89h1M60 89h3M73 89h1M26 90h1M64 90h2M67 90h1M74 90h1M20 91h1M26 91h1M66 91h1M74 91h1M66 92h1M66 93h1M70 93h1M62 94h1M67 94h1" />
<path stroke="#323a3f" d="M11 3h2M12 4h1M13 5h1M13 6h1M14 7h1M44 7h1M14 8h1M44 8h1M15 9h1M44 9h1M15 10h1M44 10h1M16 11h1M44 11h2M73 11h1M16 12h1M44 12h2M73 12h1M17 13h1M45 13h1M73 13h1M14 14h1M17 14h1M45 14h1M73 14h1M17 15h1M37 15h2M45 15h2M72 15h1M18 16h1M38 16h1M45 16h2M72 16h1M18 17h1M38 17h1M46 17h1M72 17h1M16 18h1M19 18h1M38 18h2M46 18h2M71 18h1M19 19h1M39 19h1M47 19h1M71 19h1M17 20h1M19 20h1M31 20h1M39 20h1M47 20h1M70 20h1M20 21h1M31 21h2M39 21h1M47 21h1M18 22h1M20 22h1M32 22h1M39 22h1M47 22h2M18 23h1M21 23h1M32 23h1M39 23h1M48 23h1M69 23h1M19 24h1M21 24h1M30 24h1M32 24h2M39 24h1M48 24h1M19 25h1M22 25h1M29 25h1M31 25h1M39 25h1M48 25h1M60 25h1M22 26h1M31 26h1M39 26h1M48 26h1M56 26h1M60 26h1M68 26h1M15 27h1M20 27h1M22 27h1M30 27h1M39 27h1M48 27h1M56 27h1M74 27h2M16 28h1M23 28h1M30 28h1M39 28h1M48 28h1M56 28h1M61 28h1M72 28h2M17 29h1M23 29h1M30 29h1M38 29h2M48 29h1M56 29h1M61 29h1M67 29h1M70 29h2M18 30h1M24 30h1M30 30h1M37 30h3M48 30h1M56 30h1M61 30h1M67 30h3M19 31h1M24 31h1M30 31h1M33 31h2M36 31h4M48 31h1M56 31h1M61 31h1M66 31h1M20 32h1M30 32h1M35 32h5M48 32h1M56 32h1M65 32h1M21 33h1M30 33h1M37 33h2M48 33h1M56 33h1M64 33h1M22 34h1M30 34h1M38 34h1M48 34h1M56 34h1M58 34h1M64 34h1M21 35h1M30 35h1M48 35h1M55 35h1M59 35h2M65 35h1M23 36h1M30 36h1M39 36h1M43 36h1M48 36h1M54 36h1M60 36h2M22 37h1M30 37h1M44 37h1M48 37h1M54 37h1M62 37h2M20 38h3M30 38h1M44 38h1M48 38h1M54 38h1M62 38h1M20 39h4M30 39h1M45 39h1M47 39h2M55 39h1M57 39h1M62 39h1M21 40h3M30 40h1M46 40h1M48 40h1M55 40h1M58 40h2M62 40h1M65 40h1M22 41h2M28 41h1M30 41h1M39 41h1M46 41h1M48 41h1M55 41h1M58 41h4M63 41h1M28 42h1M30 42h1M46 42h1M48 42h1M55 42h2M60 42h1M62 42h1M21 43h2M26 43h3M30 43h1M46 43h1M48 43h1M56 43h1M62 43h2M21 44h2M29 44h2M39 44h2M46 44h1M48 44h1M56 44h1M20 45h2M29 45h2M39 45h1M46 45h1M48 45h1M56 45h1M20 46h2M30 46h1M39 46h1M46 46h1M48 46h1M56 46h1M30 47h1M32 47h2M38 47h2M46 47h1M48 47h1M57 47h1M67 47h1M30 48h2M34 48h4M39 48h1M48 48h1M57 48h1M70 48h1M30 49h2M36 49h1M39 49h1M48 49h1M57 49h1M69 49h1M21 50h1M39 50h1M45 50h1M48 50h1M57 50h1M69 50h1M27 51h1M37 51h1M39 51h1M45 51h1M48 51h1M57 51h1M70 51h1M27 52h2M37 52h1M39 52h1M44 52h1M48 52h1M57 52h1M64 52h1M71 52h1M74 52h1M21 53h1M28 53h1M37 53h1M39 53h1M44 53h1M48 53h1M56 53h3M63 53h1M21 54h1M28 54h2M38 54h2M44 54h1M48 54h1M57 54h6M64 54h1M73 54h1M29 55h1M39 55h1M44 55h1M48 55h1M57 55h1M59 55h3M63 55h1M72 55h1M31 56h1M39 56h1M44 56h1M48 56h1M59 56h1M62 56h1M71 56h2M74 56h1M32 57h1M39 57h1M43 57h1M48 57h1M71 57h1M75 57h1M29 58h1M33 58h1M37 58h2M43 58h1M48 58h1M72 58h1M76 58h1M78 58h1M25 59h1M27 59h3M34 59h1M37 59h2M41 59h1M43 59h2M47 59h2M51 59h1M68 59h1M73 59h2M77 59h1M25 60h5M36 60h2M40 60h2M47 60h2M50 60h2M66 60h3M27 61h2M31 61h1M35 61h3M39 61h3M46 61h2M50 61h1M65 61h1M68 61h1M26 62h1M29 62h3M34 62h1M38 62h3M44 62h1M48 62h2M62 62h2M23 63h1M27 63h4M35 63h5M45 63h4M59 63h1M61 63h1M25 64h1M56 64h1M58 64h1M26 65h1M28 65h1M52 65h1M55 65h1M62 65h1M21 66h1M33 66h1M47 66h1M51 66h1M61 66h4M67 66h1M19 67h2M28 67h2M34 67h1M44 67h1M52 67h2M64 67h4M70 67h1M27 68h4M50 68h5M71 68h1M18 69h1M30 69h1M49 69h3M72 69h1M28 70h1M31 70h1M52 70h2M64 70h2M17 71h1M21 71h1M23 71h1M28 71h2M31 71h1M51 71h3M64 71h2M73 71h1M16 72h2M21 72h1M28 72h2M43 72h2M50 72h6M57 72h2M63 72h2M72 72h1M20 73h2M28 73h3M42 73h4M50 73h5M56 73h9M71 73h1M74 73h1M20 74h2M24 74h1M29 74h2M41 74h2M44 74h1M50 74h5M60 74h4M70 74h1M73 74h2M21 75h1M29 75h2M49 75h6M70 75h1M73 75h3M21 76h1M23 76h1M30 76h1M43 76h2M51 76h4M69 76h1M72 76h4M21 77h1M23 77h1M30 77h2M42 77h3M51 77h4M69 77h1M72 77h4M21 78h1M23 78h2M42 78h3M51 78h4M59 78h1M69 78h1M72 78h4M21 79h2M24 79h1M43 79h2M51 79h3M59 79h1M69 79h1M72 79h3M20 80h3M24 80h1M26 80h1M43 80h2M56 80h3M70 80h5M21 81h3M26 81h1M43 81h2M57 81h1M72 81h3M17 82h1M22 82h3M26 82h2M43 82h2M72 82h2M18 83h1M23 83h2M26 83h2M42 83h3M73 83h1M20 84h1M25 84h1M27 84h1M42 84h3M61 84h8M22 85h4M27 85h2M42 85h3M68 85h1M20 86h2M28 86h2M42 86h3M61 86h1M68 86h1M22 87h3M29 87h1M43 87h2M69 87h3M19 88h2M24 88h1M29 88h1M43 88h2M61 88h12M18 89h7M44 89h1M63 89h8M18 90h8M60 90h4M66 90h1M68 90h1M21 91h5M59 91h7M59 92h7M70 92h1M59 93h7M63 94h4" />
<path stroke="#67848c" d="M11 4h1M11 5h2M12 6h1M12 7h2M13 8h1M13 9h2M13 10h2M14 11h2M14 12h2M15 13h2M15 14h2M16 15h1M16 16h2M71 16h1M17 17h1M71 17h1M17 18h2M70 18h1M18 19h1M70 19h1M18 20h1M19 21h1M69 21h1M19 22h1M69 22h1M20 23h1M20 24h1M68 24h1M20 25h2M68 25h1M21 26h1M67 26h1M21 27h1M67 27h1M18 28h1M21 28h2M66 28h2M74 28h1M19 29h1M22 29h1M66 29h1M72 29h2M20 30h1M22 30h2M66 30h1M70 30h2M21 31h1M23 31h1M65 31h1M67 31h2M22 32h1M24 32h1M64 35h1M64 36h2M65 37h2M65 38h2" />
<path stroke="#475258" d="M43 7h1M43 8h1M43 9h1M43 10h1M43 11h1M43 12h1M72 12h1M42 13h3M71 13h2M42 14h3M71 14h1M14 15h1M42 15h3M70 15h1M15 16h1M35 16h3M42 16h3M70 16h1M15 17h1M35 17h3M42 17h4M69 17h1M15 18h1M35 18h3M42 18h4M69 18h1M16 19h1M35 19h4M41 19h6M68 19h2M16 20h1M30 20h1M35 20h4M41 20h6M68 20h1M17 21h1M30 21h1M35 21h4M41 21h6M68 21h1M17 22h1M30 22h2M34 22h5M41 22h6M67 22h2M10 23h1M29 23h3M34 23h3M41 23h7M67 23h1M11 24h1M18 24h1M29 24h1M34 24h1M41 24h7M66 24h2M12 25h1M18 25h1M41 25h7M66 25h1M13 26h1M19 26h1M41 26h7M65 26h2M14 27h1M19 27h1M41 27h7M60 27h1M65 27h1M15 28h1M20 28h1M29 28h1M41 28h7M65 28h1M15 29h2M27 29h3M41 29h7M64 29h1M16 30h2M27 30h3M41 30h7M64 30h1M17 31h2M26 31h4M32 31h1M41 31h7M63 31h2M69 31h2M18 32h2M26 32h4M32 32h3M41 32h7M62 32h3M68 32h1M19 33h2M23 33h1M25 33h5M32 33h5M41 33h7M60 33h4M65 33h3M20 34h2M23 34h1M25 34h5M32 34h6M42 34h6M59 34h5M65 34h2M22 35h2M25 35h5M32 35h7M43 35h5M56 35h1M58 35h1M61 35h3M20 36h3M25 36h5M32 36h7M44 36h4M55 36h1M58 36h2M62 36h2M20 37h2M23 37h1M25 37h5M32 37h6M45 37h3M55 37h1M57 37h5M23 38h1M27 38h3M32 38h6M45 38h3M55 38h1M57 38h5M63 38h2M28 39h2M32 39h6M46 39h1M58 39h4M63 39h2M28 40h2M32 40h6M47 40h1M56 40h1M60 40h2M29 41h1M32 41h7M47 41h1M56 41h1M64 41h1M29 42h1M32 42h7M47 42h1M64 42h1M24 43h2M29 43h1M32 43h7M47 43h1M65 43h1M24 44h5M32 44h7M47 44h1M63 44h2M22 45h1M24 45h5M32 45h7M47 45h1M57 45h1M64 45h2M24 46h6M32 46h7M47 46h1M57 46h1M65 46h2M22 47h1M24 47h6M34 47h4M47 47h1M58 47h2M68 47h1M20 48h3M24 48h6M38 48h1M46 48h2M60 48h1M66 48h4M20 49h3M24 49h6M37 49h2M46 49h2M61 49h3M66 49h3M19 50h2M25 50h5M37 50h2M46 50h2M64 50h1M66 50h3M70 50h1M15 51h2M19 51h2M28 51h2M38 51h1M46 51h2M58 51h1M66 51h4M71 51h1M15 52h6M29 52h1M38 52h1M45 52h3M58 52h1M66 52h5M75 52h1M80 52h1M15 53h6M22 53h1M29 53h1M38 53h1M45 53h3M59 53h1M66 53h11M16 54h5M45 54h3M67 54h6M76 54h2M16 55h6M45 55h3M55 55h2M67 55h5M77 55h2M16 56h6M23 56h1M45 56h3M54 56h5M63 56h1M68 56h3M73 56h1M78 56h2M17 57h5M23 57h1M31 57h1M44 57h4M54 57h10M66 57h1M68 57h3M73 57h2M79 57h1M17 58h4M22 58h2M31 58h2M44 58h4M54 58h10M69 58h3M74 58h1M79 58h2M18 59h3M22 59h2M32 59h2M45 59h2M53 59h10M70 59h3M78 59h3M19 60h2M22 60h2M33 60h2M43 60h2M52 60h11M71 60h11M19 61h2M22 61h3M32 61h1M42 61h1M51 61h11M64 61h1M72 61h10M20 62h1M22 62h4M32 62h2M41 62h3M50 62h11M64 62h1M74 62h6M22 63h1M24 63h3M31 63h4M40 63h5M49 63h10M62 63h1M22 64h2M26 64h30M59 64h3M23 65h3M29 65h23M56 65h3M63 65h1M23 66h7M34 66h13M52 66h6M59 66h2M65 66h1M69 66h2M23 67h5M30 67h4M45 67h7M54 67h3M61 67h3M71 67h1M23 68h4M31 68h19M55 68h2M58 68h3M63 68h4M72 68h1M19 69h2M23 69h4M28 69h1M31 69h18M52 69h2M55 69h2M58 69h5M65 69h4M18 70h4M23 70h4M32 70h17M55 70h1M57 70h7M66 70h5M16 71h1M18 71h3M24 71h3M30 71h1M32 71h17M50 71h1M55 71h1M57 71h7M66 71h6M18 72h3M24 72h3M30 72h1M32 72h11M45 72h4M59 72h4M65 72h7M73 72h1M16 73h4M24 73h4M32 73h10M46 73h3M65 73h6M15 74h4M23 74h1M25 74h3M32 74h9M46 74h3M56 74h4M64 74h6M71 74h1M15 75h4M20 75h1M23 75h1M25 75h3M32 75h9M44 75h1M46 75h3M56 75h14M72 75h1M15 76h4M20 76h1M27 76h2M32 76h9M46 76h4M56 76h13M70 76h2M15 77h4M20 77h1M24 77h1M26 77h1M28 77h1M32 77h9M46 77h4M59 77h10M70 77h2M15 78h4M20 78h1M26 78h1M28 78h13M46 78h4M56 78h3M60 78h9M70 78h2M16 79h4M26 79h2M29 79h13M46 79h5M54 79h1M56 79h3M60 79h9M70 79h2M16 80h4M27 80h1M29 80h13M46 80h9M59 80h10M17 81h4M27 81h1M29 81h13M46 81h10M58 81h14M18 82h4M28 82h1M30 82h12M46 82h10M57 82h13M71 82h1M17 83h1M19 83h4M28 83h1M30 83h11M46 83h10M57 83h13M71 83h2M18 84h1M21 84h4M28 84h1M30 84h11M46 84h11M58 84h3M69 84h2M72 84h1M29 85h1M31 85h10M46 85h11M58 85h3M64 85h2M69 85h3M26 86h1M32 86h9M46 86h10M63 86h5M25 87h3M31 87h1M35 87h7M46 87h7M25 88h3M31 88h1M26 89h3M31 89h1M71 89h2M27 90h3M69 90h5M27 91h1M67 91h7M67 92h3M71 92h3M67 93h3M71 93h1M68 94h1" />
<path stroke="#59282b" d="M38 8h1M38 9h2M37 10h3M37 11h5M47 11h1M36 12h2M39 12h1M41 12h1M47 12h4M35 13h2M39 13h2M47 13h3M35 14h2M39 14h2M47 14h3M34 15h1M40 15h1M48 15h3M33 16h1M40 16h1M48 16h3M33 17h1M40 17h1M48 17h5M32 18h2M49 18h5M33 19h1M49 19h5M33 20h1M49 20h4M54 20h1M49 21h5M55 21h1M50 22h3M54 22h1M50 23h6M50 24h2M53 24h4M50 25h6M50 26h4M50 27h5M50 28h3M54 28h1M50 29h5M50 30h5M50 31h5M50 32h5M50 33h5M50 34h5M50 35h1M52 35h2M50 36h3M50 37h3M50 38h1M52 38h1M50 39h4M51 40h3M50 41h4M50 42h4M50 43h5M50 44h3M54 44h1M50 45h4M50 46h5M50 47h5M50 48h5M50 49h5M50 50h6M50 51h6M50 52h1M52 52h4M50 53h3M54 53h1M50 54h1M53 54h2M50 55h1M53 55h1M51 56h2M52 57h1M52 58h1" />
<path stroke="#ea4649" d="M38 12h1M37 13h2M52 24h1M53 28h1M51 35h1M51 52h1M53 53h1M52 55h1" />
<path stroke="#f37843" d="M40 12h1M54 26h1M51 38h1M50 40h1M51 54h2M51 55h1" />
<path stroke="#58707c" d="M14 13h1M72 14h1M15 15h1M71 15h1M16 17h1M70 17h1M17 19h1M69 20h1M18 21h1M19 23h1M37 23h2M68 23h1M12 24h1M31 24h1M35 24h4M13 25h1M30 25h1M33 25h6M58 25h2M67 25h1M14 26h2M20 26h1M28 26h3M33 26h6M57 26h3M16 27h1M28 27h2M32 27h7M57 27h3M66 27h1M17 28h1M27 28h2M32 28h7M57 28h4M18 29h1M21 29h1M32 29h6M57 29h4M65 29h1M19 30h1M32 30h5M57 30h4M65 30h1M20 31h1M35 31h1M57 31h4M21 32h1M57 32h3M66 32h2M22 33h1M40 33h1M57 33h1M40 34h2M40 35h3M40 36h3M56 36h1M39 37h5M64 37h1M25 38h2M39 38h5M25 39h3M39 39h6M65 39h2M25 40h3M39 40h7M25 41h3M40 41h6M24 42h4M40 42h6M57 42h1M40 43h6M57 43h3M41 44h5M57 44h5M41 45h5M58 45h5M41 46h5M58 46h6M68 46h5M18 47h2M41 47h5M60 47h5M69 47h7M16 48h4M32 48h2M41 48h5M58 48h2M61 48h4M73 48h3M77 48h2M16 49h4M32 49h4M41 49h5M58 49h3M64 49h1M71 49h2M74 49h3M15 50h4M24 50h1M31 50h6M41 50h4M58 50h6M71 50h3M75 50h5M17 51h2M22 51h1M24 51h3M31 51h6M41 51h4M59 51h6M72 51h2M75 51h4M80 51h2M22 52h1M24 52h3M31 52h6M41 52h3M59 52h5M76 52h3M81 52h1M24 53h4M31 53h6M41 53h3M60 53h3M77 53h3M24 54h4M31 54h7M41 54h3M65 54h1M78 54h5M24 55h5M31 55h8M41 55h3M64 55h2M74 55h2M79 55h4M25 56h5M32 56h7M42 56h2M64 56h2M75 56h2M80 56h3M25 57h4M33 57h5M42 57h1M64 57h2M76 57h2M80 57h3M26 58h2M34 58h3M42 58h1M64 58h3M77 58h1M81 58h2M63 59h4M81 59h2M63 60h3M82 60h1M62 61h2M66 61h1M61 62h1M65 62h2M66 63h1M63 64h3M64 65h3M66 66h1M71 66h1M21 67h1M68 67h2M72 67h1M19 68h3M67 68h4M21 69h1M29 69h1M69 69h3M16 70h2M29 70h1M50 70h2M71 70h2M72 71h1M74 72h1M15 73h1M72 73h2M43 74h1M72 74h1M42 75h2M71 75h1M42 76h1" />
<path stroke="#080808" d="M13 14h1M13 15h1M14 16h1M14 17h1M14 18h1M15 19h1M15 20h1M16 21h1M70 21h1M16 22h1M33 22h1M70 22h1M9 23h1M17 23h1M10 24h1M17 24h1M69 24h1M11 25h1M17 25h1M32 25h1M69 25h1M12 26h1M18 26h1M13 27h1M68 27h1M14 28h1M68 28h1M75 28h1M14 29h1M74 29h1M15 30h1M72 30h2M16 31h1M71 31h1M17 32h1M70 32h1M18 33h1M39 33h1M68 33h1M19 34h1M39 34h1M67 34h1M66 35h1M66 36h1M56 37h1M67 37h1M19 38h1M56 38h1M67 38h1M19 39h1M56 39h1M67 39h1M20 40h1M54 40h1M57 40h1M63 40h2M21 41h1M54 41h1M57 41h1M66 41h1M21 42h1M54 42h1M58 42h2M61 42h1M20 43h1M60 43h2M20 44h1M55 44h1M62 44h1M19 45h1M54 45h2M63 45h1M55 46h1M64 46h1M55 47h1M65 47h2M55 48h1M65 48h1M49 49h1M65 49h1M49 50h1M56 50h1M65 50h1M14 51h1M49 51h1M56 51h1M65 51h1M14 52h1M49 52h1M56 52h1M65 52h1M14 53h1M49 53h1M65 53h1M15 54h1M22 54h1M40 54h1M49 54h1M55 54h1M66 54h1M83 54h1M15 55h1M22 55h1M40 55h1M49 55h1M54 55h1M66 55h1M83 55h1M15 56h1M22 56h1M40 56h1M49 56h2M67 56h1M83 56h1M16 57h1M24 57h1M30 57h1M40 57h1M49 57h1M51 57h1M53 57h1M67 57h1M83 57h1M16 58h1M21 58h1M24 58h1M30 58h1M39 58h1M41 58h1M49 58h1M51 58h1M53 58h1M68 58h1M83 58h1M17 59h1M21 59h1M24 59h1M30 59h2M39 59h1M42 59h1M49 59h1M52 59h1M69 59h1M83 59h1M18 60h1M21 60h1M24 60h1M30 60h1M32 60h1M38 60h1M42 60h1M49 60h1M70 60h1M83 60h1M18 61h1M21 61h1M25 61h2M29 61h1M33 61h2M38 61h1M43 61h2M48 61h2M71 61h1M82 61h1M19 62h1M21 62h1M27 62h2M35 62h3M45 62h3M72 62h2M80 62h2M20 63h2M72 63h1M74 63h7M21 64h1M72 64h1M75 64h1M81 64h1M73 65h1M76 65h1M82 65h1M22 66h1M74 66h3M82 66h1M85 66h1M22 67h1M77 67h1M83 67h2M22 68h1M78 68h2M22 69h1M22 70h1M22 71h1M22 72h1M22 73h1M55 73h1M22 74h1M55 74h1M22 75h1M55 75h1M76 75h1M14 76h1M22 76h1M41 76h1M55 76h1M76 76h1M14 77h1M22 77h1M41 77h1M55 77h1M76 77h1M14 78h1M22 78h1M41 78h1M55 78h1M76 78h1M15 79h1M23 79h1M55 79h1M75 79h1M15 80h1M23 80h1M25 80h1M42 80h1M55 80h1M75 80h1M24 81h2M42 81h1M75 81h1M16 82h1M25 82h1M56 82h1M74 82h1M16 83h1M25 83h1M41 83h1M56 83h1M74 83h1M17 84h1M26 84h1M41 84h1M57 84h1M73 84h1M18 85h3M26 85h1M30 85h1M41 85h1M57 85h1M72 85h1M19 86h1M23 86h3M27 86h1M30 86h2M41 86h1M45 86h1M56 86h5M69 86h3M18 87h1M28 87h1M30 87h1M32 87h3M42 87h1M45 87h1M53 87h3M60 87h9M18 88h1M28 88h1M30 88h1M34 88h9M45 88h8M60 88h1M17 89h1M29 89h2M32 89h2M42 89h2M45 89h1M59 89h1M17 90h1M30 90h2M44 90h2M59 90h1M18 91h2M28 91h2M58 91h1M76 91h3M21 92h7M58 92h1M74 92h2M58 93h1M72 93h2M59 94h3M69 94h3M63 95h6" />
<path stroke="#453233" d="M83 61h1M83 62h1M84 63h1M78 64h1M84 64h1M79 65h1M33 88h1M76 89h2M75 90h2" />
<path stroke="#1f1418" d="M84 61h1M84 62h1M85 63h1M79 64h1M85 64h1M80 65h1M85 65h1M80 66h1M80 67h1M73 87h4M77 88h1M78 89h1M78 90h1" />
<path stroke="#58474a" d="M74 88h3M74 89h2" />
</svg>