<svg xmlns="http://www.w3.org/2000/svg" viewBox="0 -0.5 96 96" shape-rendering="crispEdges">
<metadata>Made with Pixels to Svg https://codepen.io/shshaw/pen/XbxvNj</metadata>
<path stroke="#6c7f7d" d="M43 0h4M41 1h2M47 1h1M40 2h1M44 2h1M46 2h1M48 2h1M39 3h1M43 3h1M48 3h1M39 4h1M43 4h1M38 5h1M44 5h1M38 6h1M45 6h2M54 6h2M38 7h1M48 7h3M52 8h1M54 9h1M56 9h1M55 10h1M57 10h1M57 11h1M56 12h1M58 12h1M46 13h3M56 13h1M58 13h1M41 14h2M45 14h1M49 14h3M37 15h3M53 15h3M35 16h2M50 16h1M53 16h1M56 16h1M54 17h1M57 17h1M58 18h1M33 19h1M58 19h1M59 20h1M41 21h1M59 21h1M40 22h1M50 22h1M58 22h2M40 23h1M59 23h1M34 24h1M36 25h1M54 26h1M59 27h3M54 28h1M62 28h1M61 29h1M52 30h1M55 30h1M59 30h1M62 30h1M54 31h1M56 31h1M61 31h2M36 33h1M53 33h1M55 33h1M59 33h1M58 34h1M60 34h1M35 35h1M58 35h1M60 35h1M55 37h1M59 37h1M58 38h1M34 40h1M54 41h1M60 42h1M32 43h1M59 43h2M62 43h1M55 44h1M59 44h1M63 44h1M31 45h1M56 45h1M62 45h1M31 46h1M56 46h1M56 47h1M63 47h1M30 48h1M56 48h1M30 49h1M56 49h1M56 50h1M56 51h1M64 52h1M64 53h2M57 54h1M64 54h1M66 54h1M60 55h1M65 55h1M67 55h1M61 56h1M67 56h1M65 57h1M67 58h1M26 59h1M61 59h2M64 59h1M67 59h1M59 60h2M67 60h1M25 61h1M67 61h1M25 62h1M58 62h1M67 62h1M59 63h1M68 63h1M59 64h1M68 64h1M59 65h1M68 65h2M68 66h1M71 66h1M68 67h1M73 67h1M60 68h1M63 68h1M69 68h1M74 68h1M61 69h1M65 69h1M74 69h1M74 70h1M71 71h1M19 72h1M66 72h1M74 72h1M69 73h1M74 73h1M61 74h1M64 74h1M74 74h1M62 75h1M18 76h1M17 80h1M62 80h1M63 81h1M76 81h1M77 82h1M76 83h2M77 84h3M80 85h4M84 86h2M18 87h1M24 87h1M86 87h1M16 88h2M26 88h1M43 88h1M47 88h1M60 88h1M70 88h2M86 88h1M15 89h2M29 89h1M40 89h1M48 89h1M51 89h1M72 89h2M14 90h1M30 90h1M33 90h1M38 90h1M53 90h1M57 90h1M75 90h2M34 91h1M37 91h1M77 91h1M13 92h1M32 92h1M36 92h1M58 92h1M62 92h1M77 92h1M15 93h1M27 93h1M40 93h1M56 93h1M66 93h1M75 93h1M43 94h1M53 94h1" />
<path stroke="#b8cbca" d="M43 1h4M41 2h2M47 2h1M40 3h2M40 4h2M39 5h3M39 6h4M39 7h5M47 7h1M39 8h7M51 8h1M39 9h10M39 10h14M40 11h16M40 12h15M41 13h5M49 13h7M43 14h1M46 14h3M54 14h2M57 14h1M40 15h3M44 15h6M51 15h1M39 16h3M43 16h7M51 16h1M37 17h5M43 17h6M50 17h2M35 18h7M43 18h6M50 18h3M54 18h2M34 19h7M42 19h7M50 19h3M55 19h1M33 20h8M42 20h7M50 20h4M33 21h8M42 21h7M50 21h5M57 21h1M33 22h7M41 22h9M51 22h5M34 23h6M43 23h7M51 23h6M35 24h4M47 24h4M52 24h7M37 25h2M50 25h2M53 25h7M40 26h3M51 26h1M55 26h4M40 27h7M51 27h1M53 27h2M39 28h13M53 28h1M55 28h2M39 29h13M53 29h2M56 29h1M39 30h13M53 30h2M57 30h1M60 30h1M38 31h15M55 31h1M60 31h1M37 32h1M43 32h10M54 32h2M47 33h6M54 33h1M56 33h1M58 33h1M36 34h1M50 34h4M56 34h2M36 35h1M52 35h2M55 35h1M59 35h1M35 36h5M52 36h2M35 37h12M51 37h3M35 38h19M35 39h19M35 40h19M34 41h20M33 42h1M37 42h18M41 43h14M56 43h1M32 44h1M46 44h9M56 44h3M61 44h1M32 45h2M52 45h4M63 45h1M32 46h4M53 46h3M31 47h9M53 47h3M31 48h13M52 48h4M31 49h25M30 50h26M29 51h1M32 51h24M35 52h22M28 53h1M39 53h18M28 54h1M43 54h14M28 55h2M54 55h4M59 55h1M63 55h1M27 56h5M56 56h2M59 56h1M65 56h1M27 57h8M56 57h2M59 57h1M62 57h2M66 57h1M27 58h12M55 58h3M59 58h6M27 59h16M52 59h6M26 60h32M26 61h32M26 62h32M25 63h34M24 64h35M23 65h2M28 65h31M22 66h2M31 66h29M22 67h1M34 67h26M67 67h1M69 67h1M72 67h1M21 68h2M38 68h22M62 68h1M68 68h1M70 68h1M21 69h2M43 69h18M62 69h1M64 69h1M70 69h2M73 69h1M20 70h4M57 70h4M62 70h1M65 70h3M70 70h4M20 71h6M58 71h3M62 71h2M65 71h6M72 71h2M20 72h8M58 72h3M62 72h4M67 72h3M19 73h11M57 73h4M62 73h3M73 73h1M19 74h14M56 74h5M71 74h1M19 75h18M53 75h9M63 75h2M69 75h2M19 76h43M66 76h3M18 77h44M18 78h44M18 79h44M69 79h1M18 80h44M17 81h46M16 82h47M71 82h4M16 83h47M69 83h7M15 84h48M67 84h6M17 85h46M66 85h6M13 86h4M18 86h45M65 86h13M11 87h7M25 87h37M64 87h19M9 88h7M18 88h7M27 88h16M48 88h12M62 88h6M72 88h13M17 89h10M30 89h10M43 89h5M52 89h7M60 89h6M15 90h15M34 90h4M40 90h10M54 90h3M59 90h11M13 91h21M38 91h12M57 91h16M14 92h18M37 92h15M56 92h2M63 92h13M16 93h11M41 93h11M55 93h1M67 93h8M44 94h9" />
<path stroke="#f0fdff" d="M43 2h1M42 3h1M42 4h1M42 5h2M43 6h2M44 7h3M46 8h5M49 9h5M53 10h2M56 10h1M56 11h1M55 12h1M57 12h1M57 13h1M52 15h1M37 16h2M52 16h1M54 16h2M35 17h2M52 17h2M55 17h2M34 18h1M53 18h1M56 18h2M53 19h2M56 19h2M54 20h5M55 21h2M58 21h1M56 22h2M41 23h2M57 23h2M40 24h7M59 24h1M40 25h10M43 26h8M47 27h4M57 28h5M57 29h4M58 30h1M61 30h1M59 31h1M38 32h5M57 32h1M37 33h10M57 33h1M37 34h13M59 34h1M37 35h15M40 36h12M47 37h4M56 41h1M34 42h3M57 42h1M33 43h8M57 43h2M33 44h13M60 44h1M62 44h1M34 45h18M61 45h1M36 46h17M40 47h13M44 48h8M30 51h2M29 52h6M29 53h10M29 54h14M65 54h1M30 55h24M64 55h1M66 55h1M32 56h24M60 56h1M63 56h2M66 56h1M35 57h21M60 57h2M64 57h1M39 58h16M43 59h9M25 65h3M24 66h7M69 66h1M23 67h11M71 67h1M23 68h15M67 68h1M71 68h3M23 69h20M63 69h1M67 69h3M72 69h1M24 70h33M63 70h2M68 70h2M26 71h32M64 71h1M28 72h30M71 72h1M30 73h27M66 73h1M70 73h3M33 74h23M65 74h6M37 75h16M65 75h4M69 78h2M70 79h1M76 82h1M73 84h4M72 85h8M78 86h6M83 87h3M68 88h2M85 88h1M66 89h6M50 90h2M70 90h5M50 91h4M73 91h4M52 92h4M76 92h1M52 93h3" />
<path stroke="#101010" d="M45 2h1M47 3h1M53 7h1M56 7h1M38 8h1M56 8h1M38 9h1M38 10h1M39 11h1M39 12h1M40 13h1M40 14h1M44 14h1M52 14h2M56 14h1M58 14h1M43 15h1M50 15h1M56 15h2M42 16h1M34 17h1M42 17h1M49 17h1M33 18h1M42 18h1M49 18h1M41 19h1M49 19h1M32 20h1M41 20h1M49 20h1M32 21h1M49 21h1M32 22h1M33 23h1M50 23h1M60 23h1M33 24h1M39 24h1M51 24h1M60 24h1M34 25h2M39 25h1M52 25h1M60 25h1M36 26h4M52 26h2M59 26h1M39 27h1M52 27h1M55 27h4M38 28h1M52 28h1M38 29h1M52 29h1M55 29h1M38 30h1M56 30h1M37 31h1M53 31h1M57 31h2M36 32h1M53 32h1M56 32h1M58 32h4M35 34h1M54 34h2M54 35h1M56 35h2M34 36h1M54 36h1M59 36h1M34 37h1M54 37h1M34 38h1M54 38h1M34 39h1M54 39h1M54 40h1M33 41h1M32 42h1M55 42h1M58 42h1M55 43h1M31 44h1M57 45h2M60 45h1M63 46h1M30 47h1M29 50h1M28 51h1M28 52h1M57 52h1M27 53h1M57 53h1M27 54h1M27 55h1M58 55h1M26 56h1M58 56h1M26 57h1M58 57h1M67 57h1M26 58h1M58 58h1M66 58h1M58 59h1M60 59h1M63 59h1M25 60h1M58 60h1M58 61h1M24 63h1M23 64h1M22 65h1M21 66h1M60 66h1M70 66h1M21 67h1M60 67h1M70 67h1M20 68h1M20 69h1M19 70h1M61 70h1M19 71h1M61 71h1M74 71h1M61 72h1M70 72h1M72 72h2M18 73h1M61 73h1M65 73h1M67 73h2M18 74h1M62 74h2M18 75h1M62 76h1M17 77h1M62 77h1M17 78h1M62 78h1M17 79h1M62 79h1M16 81h1M15 82h1M63 82h1M15 83h1M63 83h1M14 84h1M63 84h1M13 85h4M63 85h1M11 86h2M17 86h1M63 86h1M9 87h2M19 87h5M62 87h2M8 88h1M25 88h1M44 88h3M61 88h1M9 89h6M27 89h2M41 89h2M49 89h2M59 89h1M74 89h12M13 90h1M31 90h2M39 90h1M52 90h1M58 90h1M12 91h1M35 91h2M54 91h3M12 92h1M33 92h3M59 92h3M13 93h2M28 93h4M37 93h3M57 93h1M63 93h3M76 93h1M16 94h11M41 94h2M54 94h2M67 94h8M44 95h9" />
<path stroke="#f75690" d="M54 7h2M53 8h3M55 9h1M55 38h1M59 38h1M55 39h1M58 39h2M58 40h2M59 41h1" />
<path stroke="#4b4f4b" d="M55 36h4M57 37h1" />
<path stroke="#8b7177" d="M56 37h1M58 37h1M56 38h2M56 39h2M57 40h1M58 41h1M59 42h1M65 59h2M62 60h5M62 61h5M62 62h3M67 64h1M65 65h3M63 66h5M63 67h3M65 68h1" />
<path stroke="#5b4549" d="M55 40h2M55 41h1M57 41h1M56 42h1M59 45h1M57 46h2M61 46h2M57 47h2M58 48h1M58 49h1M57 50h2M58 51h2M58 52h2M58 53h2M58 54h2M63 54h1M62 56h1M65 58h1M59 59h1M61 60h1M59 61h3M59 62h3M65 62h1M60 63h3M66 64h1M64 65h1M61 66h2M61 67h2M66 67h1M61 68h1M64 68h1M66 68h1M66 69h1" />
<path stroke="#bb9da5" d="M59 46h2M59 47h3M59 48h2M59 49h2M59 50h3M60 51h1M60 52h1M60 53h2M60 54h3M61 55h2" />
<path stroke="#fe6d26" d="M62 47h1M57 48h1M61 48h3M57 49h1M61 49h2M57 51h1M61 51h2M61 52h3M62 53h2M74 76h1M73 77h3M74 78h2M74 79h2M74 80h1" />
<path stroke="#e8fe17" d="M63 49h1M62 50h2M63 51h1M73 74h1M73 75h2M72 76h2M71 77h2M63 78h2M73 78h1M63 79h1M73 79h1M75 80h1M74 81h1" />
<path stroke="#b977be" d="M66 62h1M63 63h5M60 64h6M60 65h4" />
<path stroke="#232423" d="M72 74h1M72 75h1M63 76h3M71 76h1M63 77h4M69 77h2M65 78h2M68 78h1M71 78h2M64 79h3M68 79h1M71 79h1M63 80h5M69 80h2M73 80h1M64 81h4M73 81h1M75 81h1M64 82h4M69 82h2M75 82h1M64 83h5M64 84h3M64 85h2M64 86h1" />
<path stroke="#424542" d="M71 75h1M69 76h2M67 77h2M67 78h1M67 79h1M72 79h1M68 80h1M71 80h2M68 81h5M68 82h1" />
</svg>