<svg xmlns="http://www.w3.org/2000/svg" viewBox="0 -0.5 96 96" shape-rendering="crispEdges">
<metadata>Made with Pixels to Svg https://codepen.io/shshaw/pen/XbxvNj</metadata>
<path stroke="#83a452" d="M56 16h8M14 17h6M53 17h3M64 17h1M13 18h1M20 18h3M51 18h2M61 18h1M64 18h1M12 19h1M23 19h2M49 19h2M56 19h1M60 19h1M64 19h1M12 20h1M25 20h1M47 20h2M52 20h1M56 20h1M60 20h1M64 20h1M12 21h1M21 21h2M26 21h1M46 21h1M52 21h1M55 21h1M59 21h1M63 21h1M73 21h3M13 22h1M23 22h1M27 22h1M45 22h1M51 22h1M55 22h1M59 22h1M63 22h1M71 22h2M75 22h1M13 23h1M24 23h1M28 23h1M44 23h1M47 23h1M51 23h1M63 23h1M69 23h2M74 23h1M14 24h1M29 24h1M43 24h1M47 24h1M67 24h2M73 24h1M3 25h6M15 25h1M30 25h1M42 25h1M46 25h1M2 26h1M9 26h3M28 26h1M31 26h1M41 26h1M1 27h1M12 27h3M29 27h1M40 27h1M43 27h1M1 28h1M7 28h2M15 28h2M40 28h1M43 28h1M70 28h2M1 29h1M6 29h4M17 29h2M39 29h1M2 30h1M7 30h2M13 30h2M19 30h1M21 30h2M39 30h1M3 31h1M13 31h3M23 31h2M40 31h1M4 32h2M25 32h2M6 33h1M11 33h5M27 33h1M7 34h1M16 34h4M28 34h2M8 35h1M20 35h2M30 35h1M8 36h1M22 36h1M31 36h1M9 37h1M26 37h1M32 37h1M9 38h1M13 38h3M18 38h3M33 38h1M9 39h1M13 39h4M21 39h2M34 39h1M9 40h1M14 40h3M22 40h1M26 40h5M35 40h1M9 41h1M28 41h1M31 41h2M8 42h1M28 42h1M33 42h2M8 43h1M14 43h2M30 43h1M35 43h2M7 44h1M14 44h2M7 45h1M63 45h3M7 46h1M40 46h1M62 46h1M66 46h2M7 47h1M18 47h3M61 47h1M68 47h2M7 48h1M13 48h5M32 48h3M61 48h1M67 48h1M70 48h1M7 49h1M26 49h2M29 49h3M65 49h1M68 49h1M71 49h1M8 50h1M25 50h2M66 50h1M69 50h1M72 50h1M8 51h1M25 51h1M64 51h1M70 51h1M73 51h1M9 52h1M26 52h2M70 52h1M74 52h1M10 53h5M22 53h1M33 53h3M65 53h1M71 53h1M74 53h1M15 54h7M32 54h1M36 54h1M42 54h1M65 54h1M71 54h1M73 54h1M36 55h1M42 55h1M66 55h1M72 55h1M27 56h1M31 56h1M35 56h1M42 56h1M66 56h1M69 56h1M26 57h1M30 57h1M41 57h1M66 57h1M70 57h1M24 58h2M29 58h1M41 58h1M66 58h1M23 59h1M26 59h3M41 59h1M66 59h1M22 60h1M26 60h2M40 60h1M65 60h1M70 60h1M21 61h1M25 61h1M40 61h1M20 62h1M24 62h1M39 62h1M20 63h1M39 63h1M20 64h1M20 65h1M28 65h1M37 65h1M21 66h1M27 66h2M35 66h1M38 66h1M22 67h1M35 67h1M38 67h1M23 68h2M28 68h2M36 68h2M25 69h3" />
<path stroke="#f6fff6" d="M56 17h8M14 18h6M53 18h8M62 18h2M13 19h10M51 19h2M63 19h1M13 20h12M49 20h2M13 21h8M23 21h3M47 21h1M14 22h7M24 22h3M73 22h2M14 23h8M25 23h3M71 23h3M15 24h7M25 24h4M69 24h2M16 25h7M24 25h6M67 25h2M17 26h11M29 26h2M20 27h8M30 27h1M22 28h6M30 28h2M24 29h8M66 29h2M26 30h7M65 30h1M28 31h5M64 31h1M67 31h2M30 32h3M64 32h1M64 33h1M70 33h1M70 34h1M65 35h1M66 36h1M23 41h5M73 41h1M23 42h5M23 43h7M23 44h10M22 45h13M71 45h1M22 46h14M71 46h1M22 47h14M67 47h1M22 48h10M69 48h1M22 49h4M28 49h1M67 49h1M70 49h1M22 50h3M68 50h1M71 50h1M23 51h2M68 51h2M72 51h1M69 52h1M72 52h2M69 53h2M72 53h2M70 54h1M39 55h1M70 55h2M38 56h2M71 56h1M37 57h3M71 57h1M35 58h5M71 58h1M34 59h6M71 59h1M33 60h7M32 61h8M31 62h8M31 63h8M30 64h7M30 65h4" />
<path stroke="#cdee9c" d="M53 19h3M57 19h3M61 19h2M51 20h1M53 20h3M57 20h3M61 20h3M48 21h4M53 21h2M56 21h3M60 21h3M46 22h5M52 22h3M56 22h3M60 22h3M45 23h2M48 23h3M52 23h1M44 24h3M48 24h2M43 25h3M47 25h1M3 26h6M42 26h4M2 27h10M18 27h2M41 27h2M44 27h1M2 28h5M9 28h6M19 28h3M41 28h2M2 29h4M10 29h7M20 29h4M40 29h3M65 29h1M3 30h4M9 30h4M15 30h4M23 30h3M40 30h2M64 30h1M68 30h1M4 31h9M16 31h5M22 31h1M25 31h3M69 31h1M6 32h15M22 32h3M27 32h3M33 32h1M67 32h2M7 33h4M16 33h6M23 33h4M28 33h6M8 34h8M20 34h2M23 34h5M30 34h5M64 34h1M9 35h11M22 35h1M24 35h6M31 35h4M64 35h1M70 35h1M9 36h13M24 36h7M32 36h4M65 36h1M69 36h1M10 37h13M24 37h1M27 37h5M33 37h4M66 37h3M10 38h3M16 38h2M21 38h2M24 38h1M27 38h6M34 38h3M10 39h3M17 39h4M24 39h10M35 39h3M10 40h4M17 40h5M24 40h2M31 40h4M36 40h3M10 41h12M33 41h6M9 42h13M35 42h4M9 43h5M16 43h6M33 43h2M37 43h3M8 44h6M16 44h6M33 44h7M8 45h13M35 45h5M70 45h1M8 46h13M36 46h4M41 46h3M63 46h3M69 46h2M8 47h10M36 47h4M41 47h5M62 47h5M70 47h1M8 48h5M18 48h3M35 48h5M41 48h7M62 48h5M68 48h1M8 49h13M32 49h9M42 49h8M62 49h2M66 49h1M69 49h1M9 50h12M29 50h12M42 50h10M62 50h2M67 50h1M70 50h1M9 51h13M29 51h13M43 51h12M63 51h1M66 51h2M71 51h1M10 52h12M23 52h3M28 52h14M43 52h15M63 52h6M71 52h1M15 53h7M24 53h9M36 53h6M43 53h16M63 53h2M66 53h3M26 54h4M33 54h3M37 54h5M46 54h13M63 54h2M66 54h4M72 54h1M30 55h6M37 55h2M40 55h2M48 55h11M63 55h3M67 55h3M28 56h3M32 56h3M36 56h2M40 56h2M51 56h7M62 56h4M67 56h2M70 56h1M27 57h3M31 57h4M36 57h1M40 57h1M42 57h1M62 57h4M67 57h2M26 58h3M30 58h4M40 58h1M42 58h1M61 58h5M67 58h2M24 59h2M29 59h4M40 59h1M42 59h1M60 59h6M67 59h4M23 60h3M28 60h4M41 60h2M59 60h6M68 60h2M22 61h3M26 61h5M41 61h1M61 61h4M21 62h3M25 62h5M40 62h2M21 63h9M40 63h2M21 64h8M37 64h5M21 65h7M34 65h3M38 65h4M22 66h5M30 66h5M39 66h2M23 67h6M30 67h5M39 67h2M25 68h3M31 68h5M38 68h2M32 69h7M34 70h4" />
<path stroke="#52525a" d="M21 22h2M22 23h2M22 24h3M53 24h6M23 25h1M57 25h2M28 27h1M28 28h2M66 30h2M65 31h1M69 32h1M65 34h1M66 35h1M69 35h1M67 36h2M25 37h1M25 38h2M74 40h1M29 41h2M74 41h1M29 42h4M31 43h2M64 49h1M27 50h2M64 50h2M26 51h3M65 51h1M69 57h1M69 58h2M36 66h2M36 67h2" />
<path stroke="#101010" d="M53 23h5M50 24h3M48 25h9M73 25h1M46 26h14M72 26h1M45 27h15M71 27h1M44 28h8M54 28h7M43 29h10M55 29h6M42 30h11M56 30h5M41 31h6M50 31h4M57 31h5M66 31h1M40 32h1M44 32h5M52 32h2M58 32h4M65 32h2M39 33h1M46 33h4M59 33h3M65 33h5M48 34h2M55 34h2M59 34h3M66 34h4M38 35h1M54 35h3M60 35h2M67 35h2M44 36h1M49 36h2M55 36h1M60 36h3M43 37h2M49 37h3M60 37h3M48 38h3M61 38h2M74 38h1M55 39h2M61 39h2M64 39h5M74 39h1M54 40h3M62 40h1M65 40h3M64 42h4M65 43h2M72 44h1M72 45h1M72 46h1M71 47h1M71 48h1M44 54h1M46 55h1M48 56h2M60 56h1M51 57h9" />
<path stroke="#834a00" d="M58 23h3M60 27h1M52 28h2M65 28h1M64 29h1M61 30h1M47 31h1M49 31h1M63 31h1M43 32h1M51 32h1M63 32h1M45 33h1M58 33h1M63 33h1M39 34h1M47 34h1M54 34h1M63 34h1M59 35h1M62 35h2M72 35h1M38 36h1M43 36h1M51 36h1M56 36h1M64 36h1M72 36h1M48 37h1M65 37h1M69 37h1M73 37h1M51 38h1M60 38h1M66 38h3M72 38h1M54 39h1M69 39h1M71 39h1M61 40h1M64 40h1M68 40h1M70 40h1M62 41h1M65 41h4M70 41h1M72 41h1M70 42h1M64 43h1M71 43h1M73 43h1" />
<path stroke="#bd6a18" d="M61 23h2M63 24h2M65 25h2M60 26h2M67 26h1M61 27h3M68 27h1M61 28h4M66 28h2M69 28h1M53 29h2M61 29h3M68 29h1M70 29h1M53 30h3M62 30h2M69 30h2M48 31h1M54 31h3M62 31h1M71 31h1M41 32h2M49 32h2M54 32h4M62 32h1M71 32h1M40 33h5M50 33h8M62 33h1M71 33h1M40 34h7M50 34h4M57 34h2M62 34h1M72 34h1M39 35h15M57 35h2M39 36h4M45 36h4M52 36h3M57 36h3M63 36h1M70 36h1M38 37h5M45 37h3M52 37h8M63 37h2M70 37h3M38 38h10M52 38h8M63 38h3M69 38h3M39 39h15M57 39h4M63 39h1M70 39h1M39 40h15M57 40h4M63 40h1M69 40h1M72 40h2M39 41h23M63 41h2M69 41h1M71 41h1M40 42h24M68 42h2M73 42h1M40 43h24M67 43h4M40 44h30M41 45h22M66 45h3M45 46h17M47 47h14M49 48h12M51 49h10M53 50h8M56 51h6M59 52h3M60 53h2M60 54h2M60 55h2M59 56h1" />
<path stroke="#e68b31" d="M59 24h4M59 25h6M62 26h5M64 27h4M68 28h1M69 29h1M70 31h1M70 32h1M71 34h1M71 35h1M71 36h1M38 39h1M39 42h1M70 44h2M40 45h1M69 45h1M44 46h1M68 46h1M46 47h1M48 48h1M50 49h1M52 50h1M55 51h1M58 52h1M59 53h1M59 54h1M59 55h1M58 56h1" />
<path stroke="#ffe683" d="M71 24h2M69 25h4M68 26h4M69 27h2" />
<path stroke="#5a6a52" d="M16 26h1M17 27h1M31 27h1M18 28h1M32 28h1M19 29h1M32 29h1M20 30h1M33 30h1M21 31h1M33 31h1M21 32h1M34 32h1M22 33h1M34 33h1M22 34h1M35 34h1M23 35h1M35 35h1M23 36h1M36 36h1M23 37h1M37 37h1M23 38h1M37 38h1M23 39h1M23 40h1M22 41h1M22 42h1M22 43h1M22 44h1M21 45h1M21 46h1M21 47h1M40 47h1M21 48h1M40 48h1M21 49h1M41 49h1M61 49h1M21 50h1M41 50h1M61 50h1M22 51h1M42 51h1M62 51h1M22 52h1M42 52h1M62 52h1M23 53h1M42 53h1M62 53h1M24 54h2M30 54h2M43 54h1M45 54h1M62 54h1M26 55h4M43 55h1M47 55h1M62 55h1M43 56h1M50 56h1M61 56h1M72 56h1M35 57h1M43 57h1M61 57h1M72 57h1M34 58h1M43 58h1M60 58h1M72 58h1M33 59h1M43 59h1M59 59h1M72 59h1M32 60h1M43 60h1M58 60h1M66 60h2M71 60h1M31 61h1M42 61h1M59 61h2M65 61h1M68 61h2M30 62h1M42 62h1M61 62h4M30 63h1M42 63h1M29 64h1M42 64h1M29 65h1M42 65h1M29 66h1M41 66h1M29 67h1M41 67h1M30 68h1M40 68h1M31 69h1M39 69h1M32 70h2M38 70h1M34 71h4" />
<path stroke="#ffc5cd" d="M73 38h1M73 39h1" />
<path stroke="#f67b5a" d="M72 39h1M71 40h1M71 42h2M72 43h1" />
</svg>