<svg xmlns="http://www.w3.org/2000/svg" viewBox="0 -0.5 96 96" shape-rendering="crispEdges">
<metadata>Made with Pixels to Svg https://codepen.io/shshaw/pen/XbxvNj</metadata>
<path stroke="#394129" d="M49 25h2M51 26h1M51 27h1M51 28h1M51 29h1M52 31h1M52 32h1M29 33h4M52 33h1M28 34h1M34 34h3M38 35h2M53 35h1M53 36h1M53 37h1M54 38h2M57 39h4M62 40h3M65 41h1M65 42h1M42 44h1M37 45h2M41 45h1M43 45h1M35 46h2M42 46h1M44 47h2M39 48h1M42 48h1M38 49h1M42 49h1M37 50h1M42 50h1M36 51h1M41 51h1M33 52h1M41 52h1M54 52h1M41 53h1M54 53h1M32 54h1M40 54h1M54 54h1M31 55h1M40 55h1M54 55h1M30 56h1M54 56h1M29 57h1M54 57h1M53 59h1M53 60h1M53 61h1M53 62h1M53 63h1M53 64h1M53 65h1M53 66h1M53 67h1" />
<path stroke="#000000" d="M48 26h1M47 27h1M46 28h1M45 29h1M44 30h1M44 31h1M43 32h1M42 33h1M41 34h1M28 35h1M40 35h1M29 36h1M29 37h1M30 38h1M30 39h1M31 40h1M32 41h1M32 42h1M33 43h1M64 43h1M33 44h1M62 44h2M34 45h1M39 45h2M42 45h1M61 45h1M33 46h2M41 46h1M43 46h1M60 46h1M32 47h1M40 47h1M58 47h2M32 48h1M57 48h1M32 49h1M56 49h1M31 50h2M55 50h1M30 51h1M32 51h1M54 51h1M30 52h1M29 53h1M33 53h1M28 54h1M34 54h1M28 55h1M35 55h1M27 56h1M36 56h1M26 57h1M35 57h3M26 58h1M31 58h4M38 58h2M42 58h1M27 59h4M40 59h4M44 60h1M45 61h1M46 62h1M47 63h1M47 64h1M48 65h1M49 66h1M50 67h1M51 68h2" />
<path stroke="#838b73" d="M49 26h1M48 27h1M47 28h2M46 29h2M45 30h3M45 31h2M44 32h3M43 33h4M42 34h4M29 35h1M41 35h5M30 36h1M41 36h4M30 37h2M41 37h4M31 38h2M41 38h4M52 38h2M31 39h4M42 39h2M51 39h1M32 40h4M42 40h2M50 40h1M33 41h4M42 41h1M33 42h5M42 42h1M47 42h1M34 43h6M41 43h1M43 43h1M45 43h1M59 43h5M34 44h7M51 44h11M35 45h2M47 45h14M37 46h4M44 46h16M35 47h5M41 47h1M43 47h1M46 47h12M35 48h4M40 48h2M48 48h9M36 49h2M39 49h3M50 49h6M36 50h1M38 50h4M43 50h1M52 50h3M31 51h1M37 51h4M42 51h2M31 52h2M37 52h4M42 52h3M30 53h3M38 53h3M42 53h3M29 54h3M33 54h1M39 54h1M41 54h5M29 55h2M32 55h3M41 55h5M28 56h2M31 56h5M41 56h6M27 57h2M30 57h5M42 57h5M27 58h4M43 58h5M44 59h4M45 60h4M46 61h3M47 62h3M48 63h2M49 64h2M49 65h2M50 66h2M51 67h2" />
<path stroke="#d5dec5" d="M50 26h1M50 27h1M50 28h1M50 29h1M50 30h1M50 31h2M50 32h2M50 33h2M51 34h1M51 35h2M51 36h2M52 37h1M53 39h3M55 40h6M59 41h6" />
<path stroke="#626a52" d="M49 27h1M49 28h1M48 29h1M48 30h1M51 30h1M47 31h1M47 32h1M47 33h1M33 34h1M46 34h1M52 34h1M30 35h1M37 35h1M46 35h1M31 36h1M40 36h1M45 36h1M32 37h1M40 37h1M45 37h1M33 38h2M40 38h1M45 38h1M35 39h1M41 39h1M44 39h1M56 39h1M36 40h1M41 40h1M44 40h1M49 40h1M61 40h1M37 41h1M41 41h1M43 41h1M48 41h1M38 42h2M41 42h1M43 42h1M46 42h1M59 42h6M40 43h1M42 43h1M44 43h1M51 43h8M41 44h1M43 44h1M47 44h4M44 45h3M42 47h1M43 48h1M46 48h2M43 49h1M48 49h2M44 50h1M50 50h2M44 51h1M52 51h2M45 52h1M45 53h1M46 54h1M46 55h1M47 56h1M47 57h1M48 58h1M53 58h1M48 59h1M49 60h1M49 61h1M50 62h1M50 63h1M48 64h1M51 64h1M51 65h1" />
<path stroke="#acb49c" d="M49 29h1M49 30h1M48 31h2M48 32h2M48 33h2M29 34h4M47 34h4M31 35h6M47 35h4M32 36h8M46 36h5M33 37h7M46 37h6M35 38h5M46 38h6M36 39h5M45 39h6M52 39h1M37 40h4M45 40h4M51 40h4M38 41h3M44 41h4M49 41h10M40 42h1M44 42h2M48 42h11M46 43h5M44 44h3M44 48h2M44 49h4M45 50h5M45 51h7M46 52h8M46 53h8M47 54h7M47 55h7M48 56h6M48 57h6M49 58h4M49 59h4M50 60h3M50 61h3M51 62h2M51 63h2M52 64h1M52 65h1M52 66h1" />
<path stroke="#eede31" d="M33 47h1M33 48h1" />
<path stroke="#5a4131" d="M34 47h1M34 48h1M35 49h1M35 50h1M35 51h1M36 52h1M37 53h1M38 54h1M39 55h1M40 56h1M41 57h1" />
<path stroke="#cd9429" d="M33 49h2M33 50h2M33 51h2M34 52h1M35 53h2M35 54h3M36 55h3M37 56h3M38 57h3" />
<path stroke="#836a41" d="M35 52h1M34 53h1M40 58h2" />
</svg>