<svg xmlns="http://www.w3.org/2000/svg" viewBox="0 -0.5 96 96" shape-rendering="crispEdges">
<metadata>Made with Pixels to Svg https://codepen.io/shshaw/pen/XbxvNj</metadata>
<path stroke="#315a8b" d="M48 21h2M47 22h1M46 23h1M48 23h1M46 24h1M48 24h1M45 25h1M48 25h1M31 26h2M45 26h1M48 26h1M33 27h2M44 27h1M47 27h1M61 27h3M31 28h1M35 28h2M44 28h1M47 28h1M59 28h2M31 29h1M37 29h2M43 29h1M47 29h1M56 29h3M31 30h2M43 30h1M47 30h1M54 30h2M32 31h2M46 31h1M51 31h3M32 32h2M46 32h1M49 32h2M32 33h3M47 33h2M32 34h4M33 35h3M46 35h1M33 36h4M46 36h1M33 37h5M45 37h1M32 38h1M34 38h4M45 38h1M27 39h6M34 39h5M45 39h1M23 40h4M34 40h6M22 41h1M34 41h6M44 41h1M35 42h6M44 42h1M35 43h7M37 44h5M55 44h1M71 44h2M40 45h3M61 45h11M62 46h8M41 47h1M63 47h6M39 48h3M44 48h1M46 48h1M64 48h3M38 49h3M44 49h2M47 49h2M64 49h2M36 50h5M44 50h3M48 50h3M35 51h5M44 51h3M48 51h6M33 52h7M44 52h4M49 52h7M32 53h7M44 53h5M50 53h8M30 54h9M44 54h6M51 54h9M29 55h9M45 55h5M51 55h12M25 56h1M27 56h11M45 56h6M52 56h13M45 57h7M57 57h10M33 58h5M45 58h7M53 58h4M63 58h6M34 59h3M45 59h6M53 59h7M35 60h1M37 60h1M45 60h6M52 60h1M54 60h6M37 61h2M45 61h6M52 61h1M54 61h6M36 62h3M44 62h6M51 62h3M55 62h5M35 63h5M46 63h4M51 63h3M55 63h6M35 64h5M46 64h4M51 64h3M56 64h5M34 65h7M46 65h3M50 65h3M57 65h4M34 66h5M46 66h3M50 66h3M57 66h4M33 67h5M46 67h3M51 67h1M58 67h3M32 68h4M46 68h2M58 68h3M32 69h3M46 69h2M59 69h3M31 70h2M47 70h1M60 70h2M30 71h2M60 71h2M61 72h1M61 73h1" />
<path stroke="#8bc5f6" d="M48 22h1M47 23h1M47 24h1M46 25h2M46 26h2M45 27h2M45 28h2M61 28h2M45 29h2M59 29h3M46 30h1M56 30h5M54 31h6M51 32h8M49 33h8M49 34h7M50 35h5M50 36h4M51 37h2M51 38h1M27 40h6M23 41h10M27 42h7M31 43h3M33 46h1M32 47h2M31 48h2M30 49h3M29 50h3M29 51h3M28 52h4M27 53h3M26 54h3M25 55h2" />
<path stroke="#527bac" d="M49 22h1M49 23h2M49 24h2M49 25h3M49 26h3M48 27h5M48 28h5M63 28h1M33 29h1M48 29h6M62 29h2M34 30h2M48 30h6M61 30h3M35 31h6M47 31h4M61 31h2M35 32h8M47 32h2M60 32h3M36 33h9M57 33h1M59 33h4M37 34h9M57 34h5M37 35h9M56 35h6M38 36h8M55 36h7M39 37h6M54 37h7M39 38h6M53 38h8M40 39h5M50 39h1M52 39h9M41 40h4M50 40h10M61 40h1M41 41h3M49 41h11M61 41h2M23 42h1M42 42h2M48 42h12M61 42h3M24 43h3M43 43h1M47 43h12M60 43h5M25 44h6M43 44h1M46 44h9M26 45h7M45 45h4M55 45h5M27 46h5M49 46h12M28 47h3M47 47h15M29 48h1M49 48h14M42 49h1M51 49h12M42 50h1M53 50h11M41 51h2M56 51h9M41 52h2M58 52h8M40 53h3M60 53h7M40 54h3M62 54h6M39 55h5M65 55h3M39 56h5M67 56h2M38 57h6M69 57h1M39 58h5M33 59h1M39 59h5M32 60h3M39 60h5M32 61h4M40 61h4M32 62h3M40 62h4M31 63h3M41 63h4M31 64h3M41 64h4M54 64h1M31 65h2M42 65h3M53 65h3M30 66h3M42 66h3M53 66h3M30 67h2M43 67h2M52 67h5M30 68h1M43 68h2M52 68h5M29 69h2M44 69h1M54 69h4M29 70h1M44 70h2M55 70h4M45 71h1M56 71h3M45 72h1M58 72h2M59 73h1" />
<path stroke="#20296a" d="M50 22h1M51 23h1M30 27h2M30 28h1M32 28h1M64 28h1M30 29h1M32 29h1M30 30h1M33 30h1M39 30h2M34 31h1M41 31h2M60 31h1M34 32h1M43 32h2M59 32h1M35 33h1M45 33h2M58 33h1M36 34h1M46 34h1M56 34h1M36 35h1M55 35h1M37 36h1M54 36h1M38 37h1M53 37h1M38 38h1M52 38h1M62 38h1M39 39h1M51 39h1M63 39h3M40 40h1M49 40h1M66 40h2M40 41h1M48 41h1M68 41h3M22 42h1M24 42h3M41 42h1M47 42h1M71 42h2M23 43h1M27 43h4M42 43h1M46 43h1M73 43h1M31 44h3M35 44h2M42 44h1M45 44h1M56 44h3M60 44h11M73 44h1M33 45h1M38 45h2M43 45h2M49 45h1M54 45h1M32 46h1M41 46h2M48 46h1M31 47h1M39 47h2M42 47h1M44 47h3M30 48h1M38 48h1M45 48h1M47 48h2M29 49h1M36 49h2M41 49h1M46 49h1M49 49h2M28 50h1M35 50h1M47 50h1M51 50h2M28 51h1M33 51h2M40 51h1M47 51h1M54 51h2M27 52h1M32 52h1M48 52h1M56 52h2M26 53h1M30 53h2M39 53h1M58 53h2M67 53h1M25 54h1M29 54h1M43 54h1M60 54h2M68 54h1M24 55h1M27 55h2M38 55h1M63 55h2M24 56h1M26 56h1M65 56h2M69 56h1M25 57h1M67 57h2M70 57h1M32 58h1M69 58h2M32 59h1M37 59h1M52 59h1M60 59h1M31 60h1M36 60h1M53 60h1M60 60h1M31 61h1M36 61h1M44 61h1M53 61h1M60 61h1M31 62h1M35 62h1M54 62h1M60 62h1M30 63h1M34 63h1M54 63h1M61 63h1M30 64h1M34 64h1M55 64h1M61 64h1M30 65h1M33 65h1M56 65h1M61 65h1M29 66h1M33 66h1M56 66h1M61 66h1M29 67h1M32 67h1M57 67h1M61 67h1M29 68h1M31 68h1M45 68h1M57 68h1M61 68h1M28 69h1M31 69h1M45 69h1M58 69h1M62 69h1M28 70h1M30 70h1M46 70h1M59 70h1M62 70h1M28 71h2M46 71h1M59 71h1M62 71h1M46 72h1M60 72h1M62 72h1M60 73h1M62 73h1M61 74h1" />
<path stroke="#000000" d="M51 24h1M52 25h1M52 26h1M53 27h1M53 28h1M54 29h1M64 29h1M64 30h1M31 31h1M63 31h1M31 32h1M63 32h1M31 33h1M63 33h1M31 34h1M62 34h1M32 35h1M62 35h1M32 36h1M62 36h1M32 37h1M61 37h1M33 38h1M61 38h1M33 39h1M61 39h1M33 40h1M60 40h1M33 41h1M60 41h1M34 42h1M60 42h1M34 43h1M59 43h1M24 44h1M34 44h1M59 44h1M25 45h1M50 45h4M60 45h1M72 45h1M26 46h1M43 46h5M61 46h1M70 46h2M27 47h1M43 47h1M62 47h1M69 47h1M28 48h1M42 48h2M63 48h1M67 48h2M43 49h1M63 49h1M66 49h1M41 50h1M43 50h1M64 50h2M43 51h1M65 51h1M40 52h1M43 52h1M66 52h1M43 53h1M49 53h1M39 54h1M50 54h1M44 55h1M50 55h1M68 55h1M38 56h1M44 56h1M51 56h1M26 57h12M44 57h1M52 57h5M38 58h1M44 58h1M52 58h1M57 58h6M38 59h1M44 59h1M51 59h1M63 59h7M38 60h1M44 60h1M51 60h1M39 61h1M51 61h1M39 62h1M50 62h1M40 63h1M45 63h1M50 63h1M40 64h1M45 64h1M50 64h1M41 65h1M45 65h1M49 65h1M39 66h3M45 66h1M49 66h1M38 67h1M42 67h1M45 67h1M49 67h2M36 68h2M42 68h1M48 68h1M51 68h1M35 69h1M43 69h1M48 69h1M52 69h2M33 70h2M43 70h1M48 70h1M54 70h1M32 71h1M44 71h1M47 71h1M55 71h1M29 72h3M44 72h1M47 72h1M56 72h2M45 73h2M58 73h1M59 74h2" />
<path stroke="#6aa4d5" d="M32 27h1M33 28h2M34 29h3M44 29h1M36 30h3M44 30h2M43 31h3M45 32h1M47 34h2M47 35h3M47 36h3M46 37h5M46 38h5M46 39h4M62 39h1M45 40h4M62 40h4M45 41h3M63 41h5M45 42h2M64 42h7M44 43h2M65 43h8M44 44h1M34 45h4M34 46h7M34 47h5M33 48h5M33 49h3M32 50h3M32 51h1" />
</svg>