<svg xmlns="http://www.w3.org/2000/svg" viewBox="0 -0.5 96 96" shape-rendering="crispEdges">
<metadata>Made with Pixels to Svg https://codepen.io/shshaw/pen/XbxvNj</metadata>
<path stroke="#7b6252" d="M34 24h3M45 24h1M37 25h2M46 25h1M39 26h1M46 26h1M40 27h2M46 27h1M42 28h1M47 28h1M47 29h1M47 30h1M34 32h5M47 33h1M45 34h2M43 35h2M70 48h1M70 49h2M71 50h1M72 51h1M72 52h1M72 53h1M73 54h1M73 55h1M73 56h1M73 57h1M62 58h1M73 58h1M63 59h1M72 59h1M64 60h1M72 60h1M65 61h1M72 61h1M62 62h1M66 62h1M71 62h1M63 63h4M71 63h1M71 64h1M59 65h1M71 65h1M70 66h1M63 67h1M70 67h1M64 68h1M70 68h1M64 69h1M70 69h1M64 70h1M71 70h1M63 71h1M71 71h1M62 72h1M72 72h1M62 73h2M73 73h2" />
<path stroke="#000000" d="M34 25h1M44 25h1M35 26h1M44 26h1M35 27h1M43 27h1M36 28h1M43 28h1M36 29h1M37 30h1M37 31h1M33 33h1M34 34h1M35 35h2M37 36h2M47 36h2M73 36h2M39 37h1M70 37h2M74 37h1M39 38h1M73 38h1M38 39h1M53 39h2M62 39h1M38 40h1M52 40h1M37 41h1M37 42h1M72 42h1M31 43h1M36 43h1M71 43h1M33 44h1M36 44h1M54 44h2M60 44h1M71 44h1M34 45h1M36 45h1M70 45h1M35 46h2M59 46h1M36 47h1M59 47h1M37 48h1M56 50h2M61 50h1M62 51h1M64 52h1M64 53h3M64 54h1M68 54h2M63 55h1M56 56h2M62 56h1M39 57h1M57 57h1M60 57h2M39 58h3M39 59h1M42 59h2M39 60h1M45 60h2M54 60h3M38 61h1M48 61h3M53 61h1M38 62h1M52 62h2M37 63h1M53 63h1M37 64h1M52 64h1M59 64h1M63 64h1M36 65h1M52 65h1M60 65h2M63 65h1M36 66h1M52 66h1M55 66h1M58 66h1M62 66h2M35 67h1M52 67h1M54 67h1M56 67h1M58 67h1M53 68h1M57 68h2" />
<path stroke="#ffde29" d="M35 25h2M45 25h1M36 26h3M45 26h1M37 27h3M44 27h2M38 28h4M44 28h3M39 29h4M44 29h3M40 30h7M42 31h6M44 32h3M71 47h1M72 48h1M73 50h1M74 53h1M60 58h2M74 58h1M59 59h4M60 60h4M61 61h4M63 62h3" />
<path stroke="#c5ac73" d="M36 27h1M37 28h1M37 29h2M43 29h1M38 30h2M38 31h4M39 32h5M47 32h1M34 33h13M35 34h10M37 35h6M39 36h2M58 59h1M57 60h3M54 61h7M54 62h8M54 63h9M53 64h6M60 64h3M53 65h6M62 65h1M53 66h2M56 66h2M53 67h1M57 67h1M71 69h1M64 71h1M72 71h1M63 72h1M73 72h1" />
<path stroke="#a44100" d="M48 31h2M48 32h1M51 32h2M48 33h1M59 34h2M45 35h1M50 35h2M61 35h2M41 36h2M45 36h2M49 36h1M52 36h1M63 36h1M72 36h1M40 37h1M48 37h1M53 37h1M64 37h1M48 38h1M54 38h1M65 38h1M68 38h2M49 39h2M65 39h2M51 40h1M55 40h1M63 40h2M24 41h4M52 41h1M55 41h1M62 41h1M24 42h1M28 42h2M51 42h1M56 42h1M61 42h1M25 43h2M30 43h1M38 43h3M51 43h1M56 43h1M61 43h1M32 44h1M37 44h1M41 44h2M52 44h2M56 44h1M43 45h1M54 45h1M56 45h1M60 45h1M44 46h1M54 46h1M57 46h1M45 47h1M53 47h1M57 47h1M46 48h1M53 48h1M57 48h1M59 48h1M37 49h1M46 49h1M53 49h2M57 49h1M38 50h1M47 50h1M55 50h1M58 50h1M38 51h1M47 51h1M56 51h1M58 51h1M47 52h1M55 52h1M58 52h1M63 52h1M37 53h1M48 53h1M54 53h1M58 53h1M63 53h1M37 54h1M48 54h1M54 54h1M58 54h1M62 54h1M37 55h1M39 55h1M48 55h1M55 55h1M58 55h1M60 55h2M37 56h1M39 56h2M48 56h1M55 56h1M59 56h1M61 56h1M37 57h1M40 57h1M48 57h1M54 57h1M58 57h1M37 58h1M47 58h1M53 58h1M58 58h2M37 59h1M44 59h1M47 59h1M52 59h3M56 59h2M36 60h1M47 60h5M36 61h1M51 61h1M36 62h1M35 63h1M35 64h1M34 65h1M33 66h2M33 67h1M32 68h1M34 68h1M32 69h2" />
<path stroke="#ffff8b" d="M49 32h1M49 33h3M53 33h3M51 34h2M55 34h4M57 35h3M72 37h2M70 38h3M68 39h3" />
<path stroke="#d57b00" d="M50 32h1M53 32h3M52 33h1M56 33h3M48 34h2M53 34h2M55 35h1M59 40h1M60 41h1M60 42h1" />
<path stroke="#ffde00" d="M47 34h1M50 34h1M46 35h4M52 35h3M56 35h1M60 35h1M50 36h2M53 36h6M62 36h1M49 37h4M54 37h4M63 37h1M49 38h5M55 38h3M64 38h1M51 39h2M57 39h2M67 39h1M65 40h3M63 41h3M25 42h3M62 42h1M27 43h3M29 44h3M31 45h3M33 46h2M34 47h2" />
<path stroke="#ee9c18" d="M43 36h2M59 36h1M41 37h7M58 37h1M40 38h8M58 38h1M39 39h10M55 39h2M39 40h12M53 40h2M56 40h3M38 41h14M53 41h2M56 41h4M38 42h13M52 42h4M57 42h3M63 42h2M37 43h1M41 43h10M52 43h4M57 43h4M62 43h2M38 44h3M43 44h9M57 44h3M61 44h2M37 45h6M44 45h10M55 45h1M57 45h3M61 45h2M37 46h7M45 46h9M55 46h2M58 46h1M60 46h2M37 47h8M46 47h7M54 47h3M58 47h1M60 47h2M35 48h2M38 48h8M47 48h6M54 48h3M58 48h1M60 48h1M36 49h1M38 49h8M47 49h6M55 49h2M58 49h3M36 50h2M39 50h8M48 50h7M59 50h2M37 51h1M39 51h8M48 51h8M57 51h1M59 51h3M37 52h10M48 52h7M56 52h2M59 52h4M38 53h10M49 53h5M55 53h3M59 53h4M38 54h10M49 54h5M55 54h3M59 54h3M63 54h1M38 55h1M40 55h8M49 55h6M56 55h2M59 55h1M62 55h1M38 56h1M41 56h7M49 56h6M58 56h1M60 56h1M38 57h1M41 57h7M49 57h5M55 57h2M59 57h1M38 58h1M42 58h5M48 58h5M54 58h4M38 59h1M45 59h2M48 59h4M55 59h1M37 60h2M52 60h2M37 61h1M52 61h1M37 62h1M36 63h1M36 64h1M35 65h1M35 66h1M34 67h1M33 68h1" />
<path stroke="#cdcdd5" d="M60 36h1M59 37h1M59 39h1M64 39h1M60 40h1M65 43h2M64 44h3M26 45h1M64 45h1M63 46h1M65 46h4M32 47h1M64 47h6M62 48h7M30 49h1M33 49h2M62 49h7M28 50h2M32 50h1M34 50h1M66 50h3M29 51h5M35 51h1M64 51h2M30 52h5M65 52h5M31 53h5M68 53h2M31 54h6M32 55h5M32 56h4M32 57h4M31 58h4M36 58h1M31 59h4M36 59h1M31 60h3M35 60h1M31 61h2M34 61h2M31 62h1M33 62h3M32 63h3M32 64h3M32 65h2" />
<path stroke="#ffffff" d="M61 36h1M60 37h3M59 38h5M60 39h2M63 39h1M61 40h2M71 40h2M61 41h1M68 41h4M66 42h4M67 43h1M70 43h1M69 44h2M27 45h2M67 45h3M26 46h5M69 46h1M29 47h3M27 48h2M31 48h3M28 49h2M30 50h2" />
<path stroke="#525262" d="M71 39h3M68 40h2M73 40h1M66 41h1M72 41h1M64 43h1M25 44h4M63 44h1M25 45h1M29 45h2M63 45h1M25 46h1M31 46h2M62 46h1M70 46h1M26 47h1M33 47h1M62 47h1M70 47h1M26 48h1M34 48h1M61 48h1M69 48h1M27 49h1M35 49h1M61 49h1M69 49h1M27 50h1M35 50h1M69 50h1M28 51h1M36 51h1M63 51h1M70 51h1M29 52h1M36 52h1M70 52h1M30 53h1M67 53h1M70 53h1M30 54h1M70 54h1M31 55h1M31 56h1M31 57h1M30 58h1M30 59h1M30 60h1M30 61h1M30 62h1M30 63h1M31 64h1M31 65h1M32 66h1" />
<path stroke="#8b8ba4" d="M70 40h1M67 41h1M65 42h1M70 42h2M68 43h2M67 44h2M65 45h2M64 46h1M27 47h2M63 47h1M29 48h2M31 49h2M33 50h1M62 50h4M34 51h1M66 51h4M35 52h1M36 53h1M36 56h1M36 57h1M35 58h1M35 59h1M34 60h1M33 61h1M32 62h1M31 63h1" />
<path stroke="#ffeea4" d="M71 48h1M72 49h1M72 50h1M73 51h1M73 52h1M73 53h1M74 54h1M74 55h1M74 56h1M74 57h1M73 59h1M73 60h1M73 61h1M72 62h1M72 63h1M72 64h1M72 65h1M64 66h1M71 66h1M64 67h1M71 67h1M65 68h1M71 68h1M65 69h1M72 69h1M65 70h1M72 70h1M65 71h1M73 71h1M64 72h1M74 72h1" />
</svg>