<svg xmlns="http://www.w3.org/2000/svg" viewBox="0 -0.5 96 96" shape-rendering="crispEdges">
<metadata>Made with Pixels to Svg https://codepen.io/shshaw/pen/XbxvNj</metadata>
<path stroke="#5a524a" d="M54 25h1M57 29h1M52 30h1M57 30h1M52 31h1M35 32h1M52 32h1M35 33h1M52 33h1M35 34h1M52 34h1M53 35h1M53 36h1M46 37h1M53 37h1M47 38h1M48 39h1M51 39h1M54 39h1M48 40h1M51 40h1M54 40h1M47 41h1M30 42h1M46 42h1M31 43h1M46 43h1M31 44h1M38 44h1M45 44h1M61 44h1M31 45h1M39 45h1M45 45h1M61 45h1M40 46h1M45 46h1M41 47h1M45 47h1M42 48h1M62 48h1M43 49h1M62 49h1M43 50h1M44 51h1M61 51h1M44 52h1M63 59h1M48 60h1M62 60h1M47 61h2M51 61h1M62 61h1M50 62h1M60 62h2M54 63h1M59 63h1M55 64h1M57 64h1M59 64h1M56 65h1M54 66h1M57 67h2M53 68h2M59 68h1M55 69h1M59 69h1M41 70h3M45 70h1M55 70h1" />
<path stroke="#837373" d="M53 26h1M55 26h1M53 27h1M56 27h1M52 28h1M56 28h1M52 29h1M35 31h3M38 32h2M40 33h2M42 34h2M44 35h1M45 36h1M53 38h2M50 39h1M52 39h1M49 40h1M58 40h1M30 41h3M55 41h1M59 41h1M34 42h2M60 42h1M37 43h1M60 43h1M32 44h1M33 45h1M33 46h1M49 51h6M47 52h2M55 52h3M46 53h1M58 53h2M60 54h2M46 62h1M46 63h1M57 63h1M45 64h1M45 65h1M43 67h1" />
<path stroke="#d5d5c5" d="M54 26h1M54 27h2M53 28h3M53 29h4M53 30h4M53 31h5M36 32h2M53 32h2M56 32h2M37 33h3M53 33h1M57 33h1M38 34h4M53 34h1M40 35h4M42 36h3M44 37h2M46 38h1M53 39h1M50 40h1M52 40h2M48 41h6M58 41h1M47 42h7M58 42h2M47 43h6M59 43h1M46 44h6M47 45h3M41 48h1M40 49h3M40 50h3M40 51h4M40 52h4M41 53h4M42 54h3M44 55h1M56 67h1M56 68h3M57 69h2" />
<path stroke="#000000" d="M58 31h1M58 32h1M58 33h1M58 34h1M36 35h1M58 35h1M36 36h1M58 36h1M37 37h1M58 37h1M38 38h1M57 38h1M39 39h1M57 39h1M40 40h2M42 41h2M44 42h2M30 46h1M61 46h1M30 47h1M61 47h1M30 48h1M45 48h1M29 49h1M45 49h1M29 50h1M46 50h1M62 50h1M29 51h1M46 51h1M28 52h1M60 52h1M28 53h1M45 53h1M28 54h1M45 54h1M28 55h1M45 55h1M28 56h1M46 56h1M28 57h1M46 57h1M28 58h1M46 58h1M28 59h1M46 59h1M29 60h1M46 60h1M29 61h1M46 61h1M49 61h1M29 62h1M51 62h1M30 63h1M52 63h1M30 64h1M58 64h1M31 65h1M55 65h1M58 65h1M32 66h1M55 66h1M57 66h1M33 67h2M54 67h1M35 68h3M41 68h2M38 69h3M43 69h1M44 70h1M56 70h3M46 71h9" />
<path stroke="#aca49c" d="M55 32h1M36 33h1M54 33h3M36 34h2M54 34h4M37 35h3M54 35h4M37 36h5M54 36h4M38 37h6M54 37h4M39 38h7M55 38h2M40 39h8M55 39h2M42 40h6M55 40h3M44 41h3M54 41h1M56 41h2M54 42h4M53 43h6M52 44h9M46 45h1M50 45h11M46 46h15M46 47h15M46 48h16M37 49h1M46 49h16M34 50h2M37 50h2M47 50h15M30 51h1M34 51h6M47 51h2M55 51h6M29 52h2M33 52h7M58 52h2M29 53h3M33 53h8M29 54h13M29 55h15M29 56h17M29 57h17M29 58h17M29 59h17M30 60h16M30 61h16M30 62h16M47 62h3M31 63h15M47 63h5M53 63h1M31 64h14M46 64h9M32 65h13M46 65h9M57 65h1M33 66h21M56 66h1M35 67h8M44 67h10M55 67h1M38 68h3M43 68h10M55 68h1M41 69h2M44 69h11M56 69h1M46 70h9" />
<path stroke="#dee6ff" d="M31 42h2M33 43h3M34 44h4M35 45h4M35 46h5M36 47h1M38 47h3M36 48h1M39 48h1M60 55h2M61 56h1M61 57h2M62 58h1M62 59h1" />
<path stroke="#bdc5ff" d="M33 42h1M36 43h1M32 45h1M31 46h2M31 47h4M31 48h4M37 48h1M30 49h6M38 49h1M30 50h4M31 51h3M31 52h2M32 53h1M46 55h1M62 55h1M60 56h1M62 56h1M60 57h1M63 57h1M50 58h1M61 58h1M63 58h1M50 59h1M61 59h1M50 60h1M61 60h1M57 61h1M60 61h1M53 62h1M57 62h1" />
<path stroke="#d5deff" d="M32 43h1M33 44h1M34 45h1M34 46h1M35 47h1M37 47h1M35 48h1M38 48h1M40 48h1M36 49h1M39 49h1M36 50h1M39 50h1M45 50h1M45 51h1M45 52h2M49 52h6M47 53h11M46 54h14M47 55h13M47 56h13M47 57h13M47 58h3M51 58h10M47 59h3M51 59h10M47 60h1M49 60h1M51 60h10M50 61h1M52 61h5M58 61h2M61 61h1M52 62h1M54 62h3M58 62h2M55 63h2M58 63h1M56 64h1" />
</svg>