<svg xmlns="http://www.w3.org/2000/svg" viewBox="0 -0.5 96 96" shape-rendering="crispEdges">
<metadata>Made with Pixels to Svg https://codepen.io/shshaw/pen/XbxvNj</metadata>
<path stroke="#cda452" d="M26 25h2M25 26h1M24 27h1M23 28h1M22 29h1M22 30h1M22 31h1M37 31h2M21 32h1M33 32h2M37 32h1M39 32h1M21 33h1M31 33h2M35 33h1M37 33h1M40 33h1M65 33h1M21 34h1M29 34h2M41 34h2M66 34h1M44 36h1M44 37h3M45 38h3M50 38h1M22 39h2M45 39h6M22 40h3M46 40h4M23 41h1M46 41h4M45 42h5M51 42h1M60 42h1M24 43h1M30 43h1M45 43h8M58 43h4M63 43h1M65 43h1M24 44h2M30 44h2M44 44h9M56 44h9M24 45h2M31 45h3M43 45h10M55 45h12M23 46h4M32 46h5M41 46h13M55 46h13M22 47h6M33 47h21M60 47h8M24 48h7M32 48h22M62 48h7M27 49h5M33 49h20M63 49h7M26 50h1M29 50h24M55 50h1M64 50h6M26 51h30M65 51h6M27 52h28M65 52h5M27 53h28M66 53h5M28 54h26M66 54h5M72 54h1M28 55h24M66 55h7M28 56h26M67 56h4M28 57h24M67 57h5M29 58h21M67 58h6M31 59h2M35 59h17M66 59h5M37 60h14M66 60h3M37 61h13M66 61h4M41 62h7M65 62h2" />
<path stroke="#622900" d="M45 25h2M72 25h2M47 26h1M71 26h1M73 26h1M44 27h1M47 27h1M71 27h1M73 27h1M48 28h1M70 28h1M49 29h2M70 29h1M51 30h2M69 30h1M53 31h1M55 31h2M69 31h1M73 31h1M54 32h1M56 32h1M68 32h1M74 32h1M56 33h1M68 33h1M73 33h2M56 34h1M67 34h1M57 35h1M60 35h6M67 35h1M58 36h2M66 36h1M57 37h1M65 37h1M56 38h1M64 38h1M55 39h1M70 39h1M68 40h2M70 42h1M70 43h1M71 44h1M55 47h5M60 48h2M62 49h1M63 50h1M64 51h1M64 52h1M65 53h1M65 54h1M65 55h1M66 56h1M66 57h1M66 58h1M56 59h1M65 59h1M56 60h1M58 60h1M65 60h1M65 61h1M56 62h2M64 62h1M55 63h1M45 64h1M55 64h1M45 65h1M56 65h1M56 66h1M65 66h1M57 67h1M65 67h1M53 68h1M58 68h2M66 68h1M54 69h1M66 69h1M54 70h1" />
<path stroke="#fff694" d="M26 26h1M25 27h1M24 28h1M23 29h2M23 30h2M64 30h1M23 31h3M62 31h2M22 32h4M38 32h1M61 32h3M22 33h5M33 33h2M38 33h2M61 33h3M22 34h7M31 34h6M38 34h3M60 34h5M22 35h16M39 35h4M22 36h22M23 37h21M24 38h20M25 39h20M26 40h19M25 41h3M29 41h16M53 41h1M55 41h1M25 42h4M31 42h13M53 42h2M56 42h1M26 43h3M32 43h12M54 43h1M27 44h3M34 44h9M27 45h3M36 45h5M68 45h1M28 46h3M68 46h2M31 47h1M69 47h2M70 48h1M72 48h1M70 49h3M71 50h1M73 50h1M72 51h2M71 52h3M71 53h1M73 55h1M72 56h2" />
<path stroke="#7b5a29" d="M27 26h1M26 27h1M25 28h1M25 29h1M64 29h2M25 30h1M62 30h2M66 30h1M26 31h1M61 31h1M65 31h1M26 32h1M60 32h1M27 33h2M36 33h1M60 33h1M37 34h1M59 34h1M21 35h1M38 35h1M43 35h2M59 35h1M21 36h1M45 36h2M22 37h1M47 37h1M50 37h1M22 38h1M48 38h2M21 39h1M21 40h1M53 40h1M55 40h2M59 40h1M22 41h1M52 41h1M54 41h1M56 41h1M58 41h1M23 42h1M50 42h1M57 42h2M63 42h1M65 42h1M23 43h1M62 43h1M65 44h1M68 44h1M21 46h2M21 47h1M72 47h2M54 48h1M71 48h1M73 48h1M25 49h2M55 49h2M73 49h1M27 50h2M54 50h1M74 50h1M74 51h1M74 52h1M73 53h1M73 54h2M52 55h1M52 57h1M50 58h2M69 60h1" />
<path stroke="#000000" d="M45 26h1M45 27h1M44 28h1M73 28h1M45 29h1M73 29h1M45 30h1M73 30h1M46 31h1M66 31h1M46 32h1M65 32h1M47 33h1M66 33h1M47 34h1M73 34h1M48 35h1M73 35h1M49 36h1M72 36h1M51 37h1M72 37h1M51 38h2M71 38h1M51 39h1M53 39h2M50 40h1M60 40h1M70 40h1M50 41h2M60 41h1M70 41h1M52 42h1M61 42h1M66 42h1M53 43h1M64 43h1M67 43h1M23 44h1M53 44h1M67 44h1M69 44h1M23 45h1M53 45h1M69 45h1M71 45h1M54 46h1M70 46h2M54 47h1M71 47h1M22 48h2M24 49h1M53 49h1M25 50h1M53 50h1M56 50h1M25 51h1M56 51h1M26 52h1M55 52h1M26 53h1M55 53h1M27 54h1M54 54h1M27 55h1M53 55h1M74 55h1M27 56h1M54 56h1M74 56h1M27 57h1M53 57h2M73 57h1M28 58h1M52 58h1M73 58h1M29 59h2M33 59h2M52 59h1M71 59h2M31 60h2M35 60h2M51 60h1M70 60h1M36 61h1M50 61h1M55 61h1M58 61h1M70 61h1M37 62h4M48 62h2M55 62h1M58 62h1M67 62h3M39 63h1M41 63h7M54 63h1M58 63h1M64 63h3M39 64h1M46 64h1M53 64h1M59 64h1M64 64h1M40 65h1M46 65h1M52 65h1M59 65h1M64 65h1M40 66h1M46 66h1M52 66h1M59 66h1M41 67h1M47 67h1M52 67h1M60 67h1M42 68h1M47 68h1M60 68h1M43 69h4M48 69h1M61 69h1M49 70h1M62 70h4M50 71h4" />
<path stroke="#dea439" d="M46 26h1M72 26h1M46 27h1M72 27h1M46 28h2M71 28h2M47 29h2M71 29h2M48 30h3M70 30h2M49 31h4M70 31h2M50 32h4M55 32h1M69 32h3M51 33h5M69 33h2M53 34h3M68 34h2M55 35h2M68 35h1M60 36h5M67 36h1M58 37h6M66 37h1M59 38h3M64 67h1M64 68h2" />
<path stroke="#b47b31" d="M45 28h1M46 29h1M46 30h2M72 30h1M47 31h2M72 31h1M47 32h3M72 32h2M48 33h3M71 33h2M48 34h5M70 34h3M49 35h6M69 35h4M50 36h8M65 36h1M68 36h4M52 37h5M64 37h1M67 37h5M53 38h3M57 38h2M62 38h2M65 38h6M56 39h14M54 40h1M57 40h2M61 40h7M57 41h1M61 41h9M62 42h1M64 42h1M67 42h3M68 43h2M70 44h1M70 45h1M55 48h5M54 49h1M57 49h5M57 50h6M57 51h7M56 52h8M56 53h9M55 54h10M54 55h11M55 56h11M55 57h11M53 58h13M53 59h3M57 59h8M52 60h4M57 60h1M59 60h6M51 61h4M56 61h2M59 61h6M50 62h5M59 62h5M40 63h1M48 63h6M56 63h2M59 63h5M40 64h5M47 64h6M56 64h3M60 64h4M41 65h4M47 65h5M57 65h2M60 65h4M41 66h5M47 66h5M57 66h2M60 66h5M42 67h5M48 67h4M58 67h2M61 67h3M43 68h4M48 68h5M61 68h3M49 69h5M62 69h4M50 70h4" />
<path stroke="#ffcd7b" d="M65 30h1M64 31h1M64 32h1M64 33h1M65 34h1M66 35h1M23 38h1M44 38h1M24 39h1M25 40h1M45 40h1M24 41h1M28 41h1M45 41h1M59 41h1M24 42h1M29 42h2M44 42h1M55 42h1M59 42h1M25 43h1M29 43h1M31 43h1M44 43h1M55 43h3M66 43h1M26 44h1M32 44h2M43 44h1M54 44h2M66 44h1M26 45h1M30 45h1M34 45h2M41 45h2M54 45h1M67 45h1M27 46h1M31 46h1M37 46h4M28 47h3M32 47h1M68 47h1M31 48h1M69 48h1M32 49h1M70 50h1M72 50h1M71 51h1M70 52h1M72 53h1M71 54h1M71 56h1M72 57h1" />
</svg>