<svg xmlns="http://www.w3.org/2000/svg" viewBox="0 -0.5 96 96" shape-rendering="crispEdges">
<metadata>Made with Pixels to Svg https://codepen.io/shshaw/pen/XbxvNj</metadata>
<path stroke="#c57339" d="M38 26h7M35 27h3M45 27h3M36 29h2M34 30h2M32 31h1M53 34h1M55 35h1M28 36h1M55 36h2M27 38h1M45 50h1M49 50h1M53 51h1M57 53h1M60 55h1" />
<path stroke="#ffde94" d="M38 27h7M35 28h4M46 28h2M33 29h3M39 29h7M31 30h2M36 30h14M31 31h1M34 31h19M32 32h18M52 32h2M33 33h13M54 33h1M32 34h1M34 34h1M36 34h6M33 35h1M35 35h1M37 35h1M34 36h1M36 36h1M45 49h1M49 49h1M53 50h1M57 52h1M60 54h1" />
<path stroke="#9c5210" d="M33 28h2M48 28h2M31 29h2M50 29h2M30 30h1M52 30h1M29 31h1M53 31h1M28 32h1M31 32h1M54 32h1M30 33h1M29 34h1M47 34h1M52 34h1M28 35h1M44 35h1M54 35h1M42 36h1M27 37h1M39 37h1M35 38h1M30 39h1" />
<path stroke="#eea46a" d="M39 28h7M38 29h1M46 29h4M33 30h1M50 30h2M30 31h1M33 31h1M29 32h2M50 32h2M28 33h2M31 33h2M46 33h8M28 34h1M30 34h2M33 34h1M35 34h1M42 34h5M54 34h1M27 35h1M29 35h4M34 35h1M36 35h1M38 35h6M27 36h1M29 36h5M35 36h1M37 36h5M26 37h1M28 37h11M26 38h1M28 38h7M26 39h4M26 40h2M26 41h1M44 49h1M48 49h1M52 50h1M56 52h1M59 54h1" />
<path stroke="#000000" d="M27 33h1M27 34h1M48 34h4M26 35h1M45 35h2M53 35h1M26 36h1M43 36h1M54 36h1M25 37h1M40 37h2M25 38h1M36 38h3M25 39h1M31 39h4M25 40h1M28 40h2M25 41h1M27 41h1M26 42h1M62 49h1M43 50h1M33 56h1M33 57h1M60 57h1M60 58h1M34 59h1M60 59h1M34 60h1M34 61h1M34 62h1M59 62h1M34 63h1M59 63h1M34 64h1M52 64h2M59 64h1M39 65h4M51 65h1M58 65h1M35 66h1M39 66h1M43 66h1M58 66h1M35 67h1M38 67h1M43 67h1M49 67h1M56 67h2M36 68h2M44 68h1M48 68h1M44 69h1M48 69h1M45 70h3" />
<path stroke="#836a00" d="M55 33h1M55 34h1M56 35h1M57 36h1M55 37h2M48 39h1M47 40h1M47 41h1M46 42h1M62 42h1M46 43h1M62 43h1M45 44h1M62 44h1M45 45h1M62 45h1M45 46h1M63 46h1M44 47h1M63 47h1M44 48h1M63 48h1M43 49h1M44 50h1M48 50h1M62 50h1M42 51h1M52 51h1M61 51h1M41 52h1M61 52h1M39 53h2M56 53h1M61 53h1M37 54h2M61 54h1M34 55h3M59 55h1M61 55h1M60 56h1M34 58h1M60 60h1M59 61h1M35 65h1M50 65h1M54 65h1M49 66h1M55 66h1" />
<path stroke="#bdac20" d="M52 36h2M50 37h2M58 37h2M49 38h1M60 38h1M61 39h1M61 40h1M59 41h2M62 41h1M58 42h1M58 43h1M62 46h1M60 47h1M37 56h2M35 59h1M55 62h1M37 63h1M53 63h2M38 64h3M50 64h1M58 64h1M43 65h1M57 65h1M37 66h2M36 67h1M46 68h2M45 69h1" />
<path stroke="#f6ff62" d="M52 37h3M57 37h1M50 38h9M49 39h12M48 40h7M59 40h2M49 41h3M61 41h1M61 42h1M61 43h1M61 44h1M62 47h1M62 48h1M43 52h4M41 53h8M39 54h9M41 55h5M34 56h2M35 57h2" />
<path stroke="#cdcd39" d="M59 38h1M55 40h4M48 41h1M52 41h7M47 42h11M47 43h11M46 44h12M46 45h12M61 45h1M46 46h12M61 46h1M45 47h14M61 47h1M45 48h17M46 49h2M50 49h12M46 50h2M50 50h2M54 50h8M43 51h9M54 51h7M42 52h1M47 52h9M58 52h3M49 53h7M58 53h3M48 54h11M37 55h4M46 55h13M36 56h1M39 56h21M34 57h1M37 57h23M35 58h25M36 59h24M35 60h25M35 61h24M35 62h20M56 62h3M35 63h2M38 63h15M55 63h4M35 64h3M41 64h9M51 64h1M54 64h4M36 65h3M44 65h6M55 65h2M36 66h1M44 66h5M44 67h5M45 68h1" />
<path stroke="#c52929" d="M59 42h1M59 43h1M59 44h1M60 45h1" />
<path stroke="#ffffff" d="M60 42h1M60 43h1M59 46h1" />
<path stroke="#62415a" d="M58 44h1M60 44h1M58 45h1M58 46h1M59 47h1" />
<path stroke="#ee7b7b" d="M59 45h1" />
<path stroke="#c5c5c5" d="M60 46h1M56 66h2M37 67h1M46 69h2" />
</svg>