<svg xmlns="http://www.w3.org/2000/svg" viewBox="0 -0.5 96 96" shape-rendering="crispEdges">
<metadata>Made with Pixels to Svg https://codepen.io/shshaw/pen/XbxvNj</metadata>
<path stroke="#00295a" d="M34 32h3M32 33h2M37 33h2M31 34h1M34 34h3M39 34h1M47 34h2M30 35h1M32 35h2M37 35h2M40 35h1M45 35h2M30 36h1M32 36h1M39 36h1M41 36h1M44 36h1M29 37h1M31 37h1M40 37h1M42 37h2M45 37h2M29 38h1M31 38h1M42 38h1M29 39h1M31 39h1M41 39h1M29 40h1M31 40h1M41 40h1M29 41h1M31 41h1M40 41h1M29 42h1M31 42h1M40 42h1M30 43h1M32 43h1M40 43h1M30 44h1M32 44h1M39 44h1M30 45h1M32 45h1M39 45h1M31 46h1M33 46h1M39 46h1M31 47h1M33 47h1M36 47h4M32 48h1M34 48h2M39 48h1M32 49h1M34 49h1M38 49h1M53 49h1M32 50h2M35 50h1M38 50h1M54 50h1M31 51h1M33 51h1M35 51h1M38 51h1M55 51h1M31 52h1M34 52h1M36 52h1M38 52h1M55 52h1M30 53h1M34 53h1M36 53h1M38 53h1M56 53h1M30 54h1M35 54h1M37 54h2M56 54h1M30 55h1M36 55h1M38 55h1M56 55h1M30 56h1M37 56h1M40 56h1M29 57h3M38 57h1M31 58h1M53 58h1M32 59h1M54 59h1M33 60h1M36 60h1M55 60h1M63 60h1M32 61h1M36 61h1M56 61h2M62 61h1M32 62h1M36 62h1M44 62h1M58 62h4M32 63h1M47 63h1M43 64h1M43 65h1" />
<path stroke="#39acf6" d="M34 33h3M32 34h2M37 34h1M31 35h1M47 35h2M31 36h1M46 36h1M30 37h1M30 38h1M42 47h6M45 48h6M48 49h5M50 50h4M52 51h3M53 52h2M27 54h3M27 55h2M28 56h2M55 56h1M54 57h1M56 57h2M55 58h1M55 59h2M34 60h2M56 60h1M33 61h3M33 62h2M45 62h2M44 63h3M44 64h2" />
<path stroke="#105a9c" d="M49 33h8M57 34h2M59 35h2M61 36h1M62 37h1M40 46h1M42 46h6M40 47h1M48 47h3M33 48h1M40 48h1M51 48h2M33 49h1M39 49h1M34 50h1M39 50h1M34 51h1M39 51h1M35 52h1M39 52h1M27 53h3M35 53h1M39 53h1M26 54h1M36 54h1M39 54h1M26 55h1M37 55h1M39 55h1M55 55h1M27 56h1M38 56h2M56 56h2M28 57h1M39 57h2M53 57h1M58 57h2M60 58h3M34 59h2M63 59h1M45 61h2" />
<path stroke="#317bd5" d="M38 34h1M39 35h1M40 36h1M45 36h1M44 37h1M43 38h1M30 39h1M42 39h1M30 40h1M42 40h1M30 41h1M41 41h1M30 42h1M41 42h1M31 43h1M41 43h1M31 44h1M40 44h1M31 45h1M40 45h1M32 46h1M32 47h1M36 48h3M42 48h3M35 49h3M41 49h7M36 50h2M41 50h9M32 51h1M36 51h2M41 51h11M32 52h2M37 52h1M41 52h12M31 53h3M37 53h1M41 53h15M31 54h4M41 54h15M29 55h1M31 55h5M41 55h14M31 56h6M41 56h14M32 57h6M41 57h12M55 57h1M32 58h21M54 58h1M56 58h2M33 59h1M36 59h18M58 59h2M37 60h16M37 61h8M47 61h4M35 62h1M39 62h5M33 63h2M46 64h1M44 65h2" />
<path stroke="#5ac5e6" d="M49 34h8M57 35h2M59 36h2M61 37h1M62 38h1" />
<path stroke="#000000" d="M49 35h8M47 36h2M57 36h2M59 37h2M44 38h1M61 38h1M43 39h1M43 40h1M42 41h1M42 42h1M42 43h1M41 44h1M41 45h1M41 46h1M41 47h1M41 48h1M40 49h1M40 50h1M40 51h1M69 51h1M40 52h1M63 52h1M68 52h1M40 53h1M64 53h4M40 54h1M40 55h1M53 60h1M51 61h2M37 62h2M47 62h4M35 63h1M39 63h5M33 64h2M47 64h1M46 65h1M44 66h2" />
<path stroke="#8bc541" d="M41 37h1M41 38h1M43 42h1M61 42h1M43 43h2M46 43h2M61 43h1M42 44h6M42 45h7M48 46h1M69 46h1M61 47h1M69 47h1M61 48h1M68 48h2M62 49h1M66 49h4M62 50h8M63 51h6M64 52h4" />
<path stroke="#204108" d="M40 38h1M40 39h1M61 39h1M40 40h1M61 40h1M61 41h1M47 42h1M60 42h1M48 43h1M60 43h1M68 43h1M48 44h1M60 44h1M69 44h1M49 45h1M60 45h1M69 45h1M49 46h1M60 46h1M70 46h1M60 47h1M70 47h1M60 48h1M70 48h1M61 49h1M70 49h1M61 50h1M70 50h1M62 51h1" />
<path stroke="#396a10" d="M63 38h1M44 39h1M64 39h1M45 40h1M65 40h1M46 41h1M66 41h1M67 42h1" />
<path stroke="#c5ff31" d="M62 39h2M62 40h3M62 41h4M62 42h3M62 43h4M61 44h5M61 45h6M68 45h1M61 46h8M62 47h6M62 48h5" />
<path stroke="#ace639" d="M44 40h1M43 41h3M44 42h3M45 43h1M68 47h1M67 48h1M63 49h3" />
<path stroke="#eeff7b" d="M65 42h2M66 43h2M66 44h3M67 45h1" />
<path stroke="#83deee" d="M58 58h2M57 59h1M60 59h3M57 60h6M58 61h4" />
</svg>