<svg xmlns="http://www.w3.org/2000/svg" viewBox="0 -0.5 96 96" shape-rendering="crispEdges">
<metadata>Made with Pixels to Svg https://codepen.io/shshaw/pen/XbxvNj</metadata>
<path stroke="#942908" d="M59 33h1M58 34h1M60 34h1M63 34h1M58 35h1M60 35h1M62 35h1M64 35h1M58 36h1M60 36h1M62 36h1M64 36h1M58 37h1M60 37h1M62 37h1M64 37h3M58 38h1M60 38h3M58 39h1M60 39h1M64 39h2M32 40h1M62 40h1M33 41h1M59 41h1M61 41h1M66 41h1M31 42h1M34 42h1M59 42h1M62 42h1M66 42h1M30 43h1M32 43h1M35 43h1M62 43h1M31 44h1M33 44h1M36 44h1M63 44h1M30 45h1M32 45h1M34 45h1M63 45h1M31 46h1M33 46h1M37 46h1M63 46h1M30 47h2M34 47h2M29 48h1M29 49h1M35 49h1M31 50h1M35 50h1M31 51h1M35 51h1M31 52h1M35 52h1" />
<path stroke="#c55231" d="M60 33h1M64 34h1M64 38h2M61 39h3M31 40h1M59 40h3M63 40h2M31 41h1M60 41h1M64 41h2M61 42h1M65 42h1M29 43h1M34 43h1M61 43h1M29 44h1M35 44h1M62 44h1M36 45h1M62 45h1M35 46h2M33 47h1M36 47h1M32 48h1M36 48h1M32 49h1M36 49h1M32 50h1M36 50h1M32 51h1M36 51h1" />
<path stroke="#d59ca4" d="M45 34h6M43 35h2M41 36h2M49 36h5M40 37h1M47 37h9M46 38h11M45 39h12M45 40h13M38 41h1M43 41h15M38 42h20M38 43h20M38 44h20M38 45h19M39 46h18M39 47h17M40 48h15M42 49h11M44 50h5M50 50h1M47 51h2M46 52h4M45 53h6M32 54h2M45 54h6M30 55h2M44 55h8M29 56h1M34 56h4M44 56h8M33 57h8M45 57h7M31 58h20M32 59h7M45 59h4M41 60h4M50 60h4M41 61h3M50 61h4" />
<path stroke="#ee7352" d="M59 34h1M59 35h1M63 35h1M59 36h1M63 36h1M59 37h1M63 37h1M59 38h1M63 38h1M59 39h1M32 41h1M32 42h2M33 43h1M30 44h1M34 44h1M31 45h1M35 45h1M32 46h1M34 46h1M32 47h1M30 48h2" />
<path stroke="#f6cdd5" d="M45 35h5M43 36h5M41 37h5M40 38h5M40 39h5M39 40h5M40 41h2M32 55h3M30 56h3M30 57h2" />
<path stroke="#e6b4bd" d="M50 35h1M48 36h1M46 37h1M45 38h1M39 39h1M44 40h1M39 41h1M42 41h1M35 55h1M33 56h1M32 57h1M30 58h1" />
<path stroke="#b46273" d="M51 35h3M54 36h2M56 37h1M39 38h1M57 38h1M38 39h1M57 39h1M38 40h1M58 40h1M37 41h1M58 41h1M37 42h1M37 43h1M37 44h1M58 44h1M37 45h1M57 45h1M38 46h1M57 46h1M38 47h1M41 49h1M54 49h1M49 50h1M46 51h1M49 51h1M45 52h1M44 53h1M34 54h2M44 54h1M36 55h1M43 55h1M38 56h1M43 56h1M29 57h1M41 57h1M44 57h1M29 58h1M30 59h2M39 59h1M44 59h1M51 59h3M32 60h2M38 60h1M40 60h1M49 60h1M54 60h1M44 61h1" />
<path stroke="#101010" d="M66 38h1M65 40h1M63 41h1M58 42h1M60 42h1M64 42h1M58 43h1M60 43h1M65 43h2M61 44h1M61 45h1M62 46h1M37 47h1M56 47h1M33 48h1M35 48h1M37 48h1M39 48h1M55 48h1M30 49h2M33 49h1M37 49h1M40 49h1M53 49h1M33 50h1M37 50h1M42 50h2M51 50h2M33 51h1M37 51h1M44 51h2M50 51h1M32 52h1M36 52h1M50 52h1M51 53h1M51 54h1M37 55h1M52 55h1M39 56h2M52 56h1M42 57h2M52 57h1M51 58h1M40 59h4M49 59h2M34 60h4M45 60h4M40 61h1M45 61h1M49 61h1M54 61h1M41 62h3M50 62h4" />
</svg>