<svg xmlns="http://www.w3.org/2000/svg" viewBox="0 -0.5 96 96" shape-rendering="crispEdges">
<metadata>Made with Pixels to Svg https://codepen.io/shshaw/pen/XbxvNj</metadata>
<path stroke="#313141" d="M63 21h2M62 22h1M64 22h1M46 23h2M62 23h1M48 24h2M62 24h1M50 25h1M61 25h1M61 26h1M61 27h1M61 28h1M55 29h1M55 30h1M56 31h1M65 31h1M51 32h2M64 32h2M52 33h3M63 33h2M54 34h2M63 34h2M24 35h2M55 35h3M62 35h3M26 36h2M62 36h2M24 37h1M29 37h1M54 37h1M62 37h2M25 38h1M31 38h1M53 38h1M61 38h2M25 39h2M32 39h1M53 39h1M25 40h3M53 40h1M26 41h4M65 41h1M26 42h5M65 42h1M27 43h5M66 43h1M28 44h3M52 44h1M66 44h1M36 45h1M66 45h1M33 46h2M61 46h1M64 46h1M31 47h5M37 47h1M41 47h5M51 47h1M62 47h1M33 48h5M39 48h2M46 48h1M49 48h1M60 48h1M35 49h4M60 49h1M37 50h3M59 50h2M38 51h3M58 51h3M40 52h1M58 52h2M59 53h1M55 54h1M59 54h1M36 55h1M53 55h2M35 56h3M39 56h1M51 56h3M55 56h1M35 57h4M35 58h4M50 58h3M34 59h5M50 59h3M55 59h1M34 60h5M50 60h3M58 60h1M33 61h4M39 61h2M50 61h3M56 61h2M33 62h3M39 62h2M51 62h2M56 62h3M34 63h1M40 63h1M51 63h2M57 63h2M41 64h1M51 64h2M57 64h2M52 65h3M57 65h3M57 66h2M33 67h2M58 67h1M32 68h3M40 68h1M59 68h3M39 69h3M39 70h3" />
<path stroke="#52525a" d="M63 22h1M47 25h1M62 25h1M64 25h1M48 26h1M51 26h2M64 26h1M48 27h2M53 27h1M63 27h2M48 28h4M54 28h1M63 28h2M49 29h3M63 29h1M49 30h1M55 31h1M53 32h2M61 32h1M55 33h2M61 33h2M56 34h1M61 34h2M61 35h1M24 36h2M25 37h2M26 38h3M60 38h1M63 38h1M27 39h3M57 39h8M28 40h4M54 40h11M30 41h3M53 41h12M31 42h2M53 42h12M53 43h13M35 44h1M53 44h13M34 45h2M52 45h14M32 46h1M35 46h2M52 46h9M62 46h2M36 47h1M52 47h9M50 48h10M40 49h1M48 49h12M40 50h3M47 50h12M41 51h17M37 52h1M41 52h17M36 53h3M40 53h19M36 54h19M56 54h3M37 55h3M41 55h12M56 55h4M41 56h6M48 56h3M56 56h2M40 57h7M55 57h2M40 58h3M45 58h2M55 58h2M58 58h1M40 59h2M44 59h1M56 59h1M58 59h1M40 60h2M43 60h2M56 60h1M43 61h1M32 62h1M42 62h2M32 63h2M39 63h1M32 64h2M38 64h3M53 64h1M32 65h2M38 65h3M32 66h2M38 66h2M59 66h1M32 67h1M38 67h2M59 67h2M38 68h2M38 69h1" />
<path stroke="#62626a" d="M63 23h1M47 24h1M63 24h1M48 25h2M63 25h1M49 26h2M62 26h2M50 27h3M62 27h1M52 28h1M62 28h1M62 29h1M54 31h1M55 32h1M57 36h4M27 37h2M55 37h6M29 38h2M54 38h6M30 39h2M54 39h3M32 40h1M41 48h5M41 49h7M43 50h4" />
<path stroke="#101010" d="M64 23h1M46 24h1M64 24h1M46 25h1M65 25h1M47 26h1M65 26h1M47 27h1M65 27h1M47 28h1M66 28h1M48 29h1M66 29h1M48 30h1M66 30h1M49 31h1M66 31h1M50 32h1M56 32h1M60 32h1M66 32h1M51 33h1M57 33h1M60 33h1M65 33h1M52 34h2M57 34h1M60 34h1M65 34h1M23 35h1M54 35h1M58 35h3M65 35h1M23 36h1M55 36h2M61 36h1M64 36h1M23 37h1M61 37h1M64 37h1M24 38h1M64 38h1M24 39h1M65 39h1M24 40h1M65 40h1M25 41h1M52 41h1M25 42h1M52 42h1M36 43h1M52 43h1M36 44h1M37 45h1M37 46h1M51 46h1M65 46h1M30 47h1M38 47h1M49 47h2M61 47h1M63 47h2M31 48h2M38 48h1M47 48h2M61 48h2M33 49h2M39 49h1M61 49h1M35 50h2M61 50h1M36 51h2M61 51h1M36 52h1M38 52h2M60 52h1M35 53h1M39 53h1M60 53h1M35 54h1M60 54h1M35 55h1M40 55h1M55 55h1M60 55h1M34 56h1M38 56h1M40 56h1M47 56h1M54 56h1M60 56h1M34 57h1M39 57h1M47 57h8M60 57h1M34 58h1M39 58h1M47 58h1M49 58h1M53 58h2M60 58h1M33 59h1M39 59h1M46 59h1M49 59h1M53 59h2M33 60h1M39 60h1M46 60h1M49 60h1M53 60h1M55 60h1M32 61h1M37 61h2M45 61h1M49 61h1M53 61h1M55 61h1M59 61h1M31 62h1M36 62h1M38 62h1M50 62h1M53 62h1M55 62h1M59 62h1M31 63h1M35 63h1M38 63h1M41 63h1M50 63h1M53 63h1M56 63h1M59 63h1M31 64h1M34 64h1M37 64h1M42 64h1M50 64h1M54 64h1M56 64h1M59 64h1M31 65h1M34 65h1M37 65h1M41 65h1M51 65h1M55 65h2M60 65h1M31 66h1M34 66h1M37 66h1M40 66h1M52 66h5M60 66h1M31 67h1M35 67h1M37 67h1M40 67h1M57 67h1M61 67h1M31 68h1M35 68h1M37 68h1M41 68h1M57 68h2M62 68h1M32 69h3M37 69h1M42 69h1M59 69h4M38 70h1M42 70h1M39 71h3" />
<path stroke="#6abdde" d="M53 28h1M52 29h2M61 29h1M53 30h2M61 30h2M61 31h1M33 41h1M33 42h2M34 43h1M58 56h1M57 57h1M43 58h2M57 58h1M42 59h1M42 60h1M41 61h1" />
<path stroke="#4a8bb4" d="M65 28h1M54 29h1M60 29h1M64 29h2M50 30h3M60 30h1M63 30h3M50 31h4M62 31h3M62 32h2M32 43h2M27 44h1M31 44h4M28 45h6M29 46h3M59 56h1M59 57h1M45 59h1M57 59h1M45 60h1M57 60h1M44 61h1M58 61h1M41 62h1M42 63h1" />
<path stroke="#295a8b" d="M60 31h1M33 40h1M34 41h1M35 42h1M26 43h1M35 43h1M26 44h1M27 45h1M28 46h1M29 47h1M58 57h1M59 58h1M43 59h1M59 59h1M59 60h1M42 61h1M44 62h1M43 63h1" />
</svg>