<svg xmlns="http://www.w3.org/2000/svg" viewBox="0 -0.5 96 96" shape-rendering="crispEdges">
<metadata>Made with Pixels to Svg https://codepen.io/shshaw/pen/XbxvNj</metadata>
<path stroke="#185294" d="M48 32h3M46 33h2M52 33h1M44 34h2M49 34h4M42 35h2M47 35h6M41 36h1M45 36h3M50 36h3M40 37h1M43 37h3M51 37h2M39 38h1M42 38h2M51 38h2M38 39h1M41 39h2M51 39h2M37 40h1M40 40h2M50 40h1M53 40h1M36 41h1M39 41h2M49 41h6M36 42h1M38 42h2M47 42h10M35 43h1M38 43h2M50 43h8M35 44h1M37 44h2M45 44h1M50 44h9M35 45h1M37 45h2M45 45h1M50 45h9M34 46h1M36 46h2M44 46h2M50 46h10M34 47h1M36 47h2M44 47h16M36 48h2M44 48h16M35 49h3M44 49h16M36 50h3M45 50h14M36 51h3M45 51h14M36 52h4M46 52h12M37 53h3M47 53h10M37 54h4M49 54h6M38 55h4M39 56h4M40 57h3M41 58h3M42 59h4M43 60h5M45 61h6M48 62h4" />
<path stroke="#101010" d="M51 32h2M53 33h1M53 34h1M53 35h1M48 36h2M53 36h1M46 37h2M50 37h1M53 37h1M44 38h2M50 38h1M53 38h1M43 39h1M50 39h1M53 39h1M42 40h1M49 40h1M54 40h1M41 41h1M47 41h2M55 41h2M40 42h1M46 42h1M57 42h1M40 43h1M45 43h1M58 43h1M39 44h1M44 44h1M59 44h1M39 45h1M44 45h1M59 45h1M38 46h1M43 46h1M60 46h1M38 47h1M43 47h1M60 47h1M34 48h1M38 48h1M43 48h1M60 48h1M34 49h1M38 49h1M43 49h1M60 49h1M35 50h1M39 50h1M44 50h1M59 50h1M35 51h1M39 51h1M44 51h1M59 51h1M35 52h1M40 52h1M45 52h1M58 52h1M36 53h1M40 53h1M46 53h1M57 53h1M36 54h1M41 54h1M47 54h2M55 54h2M37 55h1M42 55h1M49 55h6M38 56h1M43 56h1M39 57h1M44 57h2M40 58h1M46 58h2M41 59h1M48 59h4M42 60h1M52 60h1M43 61h2M52 61h1M45 62h3M52 62h1M48 63h4" />
<path stroke="#62a4e6" d="M48 33h3M47 34h1M45 35h1M43 36h1M37 42h1M47 43h2M36 44h1M46 44h1M49 44h1M46 45h1M49 45h1M35 46h1M47 46h2M35 47h1" />
<path stroke="#296abd" d="M51 33h1M48 34h1M46 35h1M44 36h1M42 37h1M41 38h1M40 39h1M39 40h1M51 40h2M38 41h1M37 43h1M46 43h1M49 43h1M36 45h1M46 46h1M49 46h1M35 48h1M43 57h1M44 58h2M46 59h2M48 60h4M51 61h1" />
<path stroke="#dedede" d="M46 34h1M44 35h1M42 36h1M41 37h1M40 38h1M39 39h1M38 40h1M37 41h1M36 43h1M47 44h2M47 45h2" />
</svg>