<svg xmlns="http://www.w3.org/2000/svg" viewBox="0 -0.5 96 96" shape-rendering="crispEdges">
<metadata>Made with Pixels to Svg https://codepen.io/shshaw/pen/XbxvNj</metadata>
<path stroke="#101010" d="M45 32h6M43 33h2M51 33h2M53 34h2M55 35h2M45 36h6M57 36h1M43 37h2M51 37h2M58 37h1M41 38h2M53 38h2M59 38h1M40 39h1M45 39h6M55 39h1M60 39h1M39 40h1M43 40h2M51 40h2M56 40h1M61 40h1M38 41h1M42 41h1M53 41h1M57 41h1M61 41h1M38 42h1M41 42h1M54 42h1M57 42h1M62 42h1M37 43h1M40 43h1M55 43h1M58 43h1M62 43h1M32 44h1M37 44h1M40 44h1M55 44h1M58 44h1M63 44h1M32 45h1M36 45h1M39 45h1M56 45h1M59 45h1M63 45h1M32 46h1M36 46h1M39 46h1M56 46h1M59 46h1M63 46h1M32 47h1M36 47h1M39 47h1M56 47h1M59 47h1M63 47h1M32 48h1M36 48h1M39 48h1M56 48h1M59 48h1M63 48h1M32 49h1M36 49h1M39 49h1M56 49h1M59 49h1M63 49h1M32 50h1M36 50h1M39 50h1M56 50h1M63 50h1M32 51h1M37 51h1M40 51h1M55 51h1M63 51h1M33 52h1M37 52h1M40 52h1M55 52h1M62 52h1M33 53h1M38 53h1M41 53h1M54 53h1M62 53h1M34 54h1M38 54h1M42 54h1M53 54h1M61 54h1M34 55h1M39 55h1M43 55h2M51 55h2M61 55h1M35 56h1M40 56h1M45 56h2M48 56h3M60 56h1M36 57h1M41 57h2M46 57h1M49 57h1M59 57h1M37 58h1M43 58h2M46 58h1M49 58h1M51 58h2M58 58h1M38 59h1M45 59h1M50 59h1M57 59h1M39 60h1M56 60h1M40 61h2M54 61h2M42 62h3M51 62h3M45 63h6" />
<path stroke="#185294" d="M45 33h6M41 34h12M39 35h2M44 35h11M38 36h1M42 36h3M51 36h6M37 37h1M40 37h3M53 37h5M36 38h1M40 38h1M55 38h4M35 39h1M39 39h1M56 39h4M34 40h1M37 40h2M45 40h6M57 40h4M34 41h1M37 41h1M43 41h10M58 41h3M33 42h1M36 42h2M42 42h1M47 42h7M58 42h4M33 43h1M36 43h1M41 43h2M47 43h8M59 43h3M33 44h1M35 44h2M41 44h2M47 44h8M59 44h4M33 45h1M35 45h1M40 45h3M47 45h9M60 45h3M33 46h3M40 46h16M60 46h3M33 47h3M40 47h16M60 47h3M33 48h3M40 48h16M60 48h3M33 49h3M40 49h16M60 49h3M33 50h3M40 50h16M59 50h4M33 51h4M41 51h14M58 51h1M60 51h3M34 52h3M41 52h14M58 52h1M60 52h2M34 53h4M42 53h12M57 53h1M60 53h2M35 54h3M43 54h10M57 54h1M60 54h1M35 55h4M45 55h6M56 55h1M59 55h2M36 56h4M47 56h1M55 56h1M58 56h2M37 57h4M47 57h2M53 57h2M57 57h2M38 58h5M47 58h2M56 58h2M39 59h6M46 59h4M54 59h3M40 60h16M42 61h12M45 62h6" />
<path stroke="#62a4e6" d="M41 35h2M39 36h2M38 38h1M37 39h1M36 40h1M35 41h1M34 42h1M44 42h2M34 43h1M43 43h1M46 43h1M34 44h1M43 44h1M46 44h1M44 45h2M59 52h1M59 53h1M58 54h1M57 55h1M56 56h1M55 57h1M53 58h2M52 59h1" />
<path stroke="#296abd" d="M43 35h1M41 36h1M39 37h1M39 38h1M38 39h1M36 41h1M35 42h1M43 42h1M46 42h1M35 43h1M34 45h1M43 45h1M46 45h1M59 51h1M58 53h1M59 54h1M58 55h1M57 56h1M56 57h1M55 58h1M51 59h1M53 59h1" />
<path stroke="#dedede" d="M38 37h1M37 38h1M36 39h1M35 40h1M44 43h2M44 44h2" />
</svg>