<svg xmlns="http://www.w3.org/2000/svg" viewBox="0 -0.5 96 96" shape-rendering="crispEdges">
<metadata>Made with Pixels to Svg https://codepen.io/shshaw/pen/XbxvNj</metadata>
<path stroke="#185294" d="M40 34h2M39 35h1M39 36h1M42 36h2M41 37h4M47 37h6M41 38h3M45 38h10M42 39h1M48 39h8M43 40h1M48 40h9M43 41h1M48 41h9M42 42h2M48 42h10M42 43h16M42 44h16M42 45h16M42 46h16M42 47h16M43 48h14M43 49h14M44 50h12M45 51h10M47 52h6M49 53h1M50 54h1M48 55h1M50 55h1M48 56h1M50 56h1M48 57h1M50 57h2M58 57h1M48 58h1M51 58h1M57 58h2M49 59h1M51 59h2M56 59h3M49 60h1M51 60h7M52 61h5" />
<path stroke="#101010" d="M42 34h1M43 35h1M44 36h1M47 36h6M39 37h1M45 37h2M53 37h2M40 38h1M44 38h1M55 38h1M41 39h1M43 39h1M56 39h1M42 40h1M57 40h1M42 41h1M57 41h1M41 42h1M58 42h1M41 43h1M58 43h1M41 44h1M58 44h1M41 45h1M58 45h1M41 46h1M58 46h1M41 47h1M58 47h1M42 48h1M57 48h1M42 49h1M57 49h1M43 50h1M56 50h1M44 51h1M55 51h1M45 52h2M53 52h2M47 53h2M50 53h3M48 54h1M51 54h1M51 55h1M57 55h2M51 56h1M56 56h1M59 56h1M52 57h1M56 57h1M59 57h1M52 58h1M55 58h1M59 58h1M53 59h2M59 59h1M58 60h1M50 61h1M57 61h1M51 62h6" />
<path stroke="#dedede" d="M40 35h1M45 40h2M45 41h2M49 56h1M49 57h1" />
<path stroke="#62a4e6" d="M41 35h1M40 36h1M45 39h2M44 40h1M47 40h1M44 41h1M47 41h1M45 42h2M49 55h1M57 56h1M49 58h1M50 59h1" />
<path stroke="#296abd" d="M42 35h1M41 36h1M40 37h1M44 39h1M47 39h1M44 42h1M47 42h1M49 54h1M58 56h1M57 57h1M50 58h1M56 58h1M55 59h1M50 60h1M51 61h1" />
</svg>