<svg xmlns="http://www.w3.org/2000/svg" viewBox="0 -0.5 96 96" shape-rendering="crispEdges">
<metadata>Made with Pixels to Svg https://codepen.io/shshaw/pen/XbxvNj</metadata>
<path stroke="#185294" d="M34 36h1M33 37h1M57 37h3M33 38h1M35 38h1M60 38h1M33 39h1M35 39h1M56 39h2M61 39h1M33 40h1M35 40h1M45 40h6M55 40h4M61 40h1M33 41h1M35 41h1M43 41h10M54 41h5M61 41h1M33 42h1M35 42h1M42 42h1M47 42h7M55 42h2M58 42h2M61 42h1M33 43h1M35 43h1M41 43h2M47 43h8M59 43h1M61 43h1M33 44h1M35 44h1M41 44h2M47 44h8M59 44h1M61 44h1M33 45h1M35 45h1M40 45h3M47 45h9M59 45h1M61 45h1M33 46h1M35 46h2M40 46h16M59 46h1M61 46h1M33 47h1M36 47h1M40 47h16M59 47h1M61 47h1M34 48h1M36 48h1M40 48h16M59 48h1M61 48h1M34 49h1M36 49h1M40 49h16M59 49h1M62 49h1M34 50h1M36 50h1M40 50h16M59 50h1M62 50h1M34 51h1M36 51h1M41 51h14M60 51h1M62 51h1M34 52h1M36 52h1M41 52h14M60 52h1M62 52h1M36 53h1M39 53h2M42 53h12M60 53h1M62 53h1M35 54h7M43 54h10M60 54h1M62 54h1M35 55h6M45 55h6M60 55h1M62 55h1M36 56h4M60 56h1M60 57h2M60 58h2" />
<path stroke="#101010" d="M35 36h1M36 37h1M36 38h1M56 38h1M36 39h1M45 39h6M55 39h1M36 40h1M43 40h2M51 40h2M54 40h1M36 41h1M42 41h1M53 41h1M36 42h1M41 42h1M54 42h1M57 42h1M36 43h1M40 43h1M55 43h2M58 43h1M36 44h1M40 44h1M55 44h1M58 44h1M36 45h1M39 45h1M56 45h1M58 45h1M37 46h1M39 46h1M56 46h1M58 46h1M37 47h1M39 47h1M56 47h1M58 47h1M37 48h1M39 48h1M56 48h1M58 48h1M37 49h1M39 49h1M56 49h1M58 49h1M37 50h1M39 50h1M56 50h1M58 50h1M37 51h1M40 51h1M55 51h1M59 51h1M37 52h1M39 52h2M55 52h1M59 52h1M34 53h1M37 53h2M41 53h1M54 53h1M59 53h1M34 54h1M42 54h1M53 54h1M59 54h1M34 55h1M41 55h1M43 55h2M51 55h2M59 55h1M35 56h1M40 56h1M45 56h6M59 56h1M62 56h1M36 57h4M59 57h1M62 57h1M59 58h1M62 58h1M60 59h2" />
<path stroke="#62a4e6" d="M34 37h1M57 38h1M58 39h1M60 39h1M59 40h1M34 41h1M34 42h1M44 42h2M60 42h1M34 43h1M43 43h1M46 43h1M60 43h1M34 44h1M43 44h1M46 44h1M60 44h1M34 45h1M44 45h2M60 45h1M34 46h1M60 46h1M34 47h1M60 47h1M35 48h1M60 48h1M60 49h1M61 50h1M35 51h1M61 51h1M35 52h1M61 54h1M61 55h1" />
<path stroke="#296abd" d="M35 37h1M59 41h1M43 42h1M46 42h1M43 45h1M46 45h1M35 47h1M61 49h1M60 50h1M35 53h1M61 56h1" />
<path stroke="#dedede" d="M34 38h1M58 38h2M34 39h1M59 39h1M34 40h1M60 40h1M60 41h1M44 43h2M44 44h2M35 49h1M35 50h1M61 52h1M61 53h1" />
</svg>