<svg xmlns="http://www.w3.org/2000/svg" viewBox="0 -0.5 96 96" shape-rendering="crispEdges">
<metadata>Made with Pixels to Svg https://codepen.io/shshaw/pen/XbxvNj</metadata>
<path stroke="#185294" d="M38 37h2M55 37h2M37 38h1M40 38h1M54 38h1M37 39h1M40 39h2M56 39h2M38 40h1M40 40h3M45 40h6M53 40h5M39 41h3M43 41h14M40 42h1M42 42h1M47 42h7M55 42h1M41 43h2M47 43h8M41 44h2M47 44h8M40 45h3M47 45h9M40 46h16M40 47h16M40 48h16M40 49h16M40 50h16M41 51h14M41 52h14M42 53h12M55 53h1M38 54h1M41 54h1M43 54h12M56 54h1M37 55h1M40 55h3M45 55h6M53 55h2M57 55h1M37 56h1M39 56h3M54 56h2M37 57h1M39 57h2M55 57h3" />
<path stroke="#101010" d="M40 37h1M57 37h1M41 38h1M58 38h1M42 39h1M45 39h6M53 39h1M58 39h1M37 40h1M43 40h2M51 40h2M58 40h1M38 41h1M42 41h1M57 41h1M39 42h1M41 42h1M54 42h1M56 42h1M40 43h1M55 43h1M40 44h1M55 44h1M39 45h1M56 45h1M39 46h1M56 46h1M39 47h1M56 47h1M39 48h1M56 48h1M39 49h1M56 49h1M39 50h1M56 50h1M40 51h1M55 51h1M40 52h1M55 52h1M39 53h1M41 53h1M54 53h1M56 53h1M42 54h1M57 54h1M43 55h2M51 55h2M58 55h1M42 56h1M45 56h6M53 56h1M58 56h1M41 57h1M54 57h1M58 57h1M38 58h3M55 58h3" />
<path stroke="#dedede" d="M38 38h1M56 38h1M44 43h2M44 44h2M39 55h1M38 56h1" />
<path stroke="#62a4e6" d="M39 38h1M57 38h1M38 39h2M55 39h1M44 42h2M43 43h1M46 43h1M43 44h1M46 44h1M44 45h2M40 54h1M55 55h1M56 56h1" />
<path stroke="#296abd" d="M55 38h1M54 39h1M39 40h1M43 42h1M46 42h1M43 45h1M46 45h1M40 53h1M39 54h1M55 54h1M38 55h1M56 55h1M57 56h1M38 57h1" />
</svg>