<svg xmlns="http://www.w3.org/2000/svg" viewBox="0 -0.5 96 96" shape-rendering="crispEdges">
<metadata>Made with Pixels to Svg https://codepen.io/shshaw/pen/XbxvNj</metadata>
<path stroke="#185294" d="M37 33h7M36 34h1M45 34h1M39 35h8M44 36h4M45 37h3M45 38h3M45 39h3M44 40h1M47 40h2M43 41h8M46 42h6M41 43h1M46 43h7M40 44h2M46 44h8M40 45h2M46 45h8M35 46h3M39 46h16M34 47h1M38 47h18M36 48h2M39 48h16M56 48h4M39 49h16M40 50h14M40 51h14M41 52h12M42 53h10M43 54h8M44 55h5M46 56h1M45 57h3M45 58h3M37 59h5M44 59h4M36 60h1M43 60h4M39 61h7" />
<path stroke="#101010" d="M44 33h2M46 34h1M36 35h1M47 35h1M37 36h7M48 36h1M44 37h1M48 37h1M44 38h1M48 38h1M44 39h1M48 39h1M43 40h1M49 40h2M42 41h1M51 41h1M41 42h1M52 42h1M40 43h1M53 43h1M39 44h1M54 44h1M39 45h1M54 45h1M38 46h1M55 46h5M60 47h1M34 48h1M38 48h1M55 48h1M60 48h1M35 49h4M55 49h5M39 50h1M54 50h1M39 51h1M54 51h1M40 52h1M53 52h1M41 53h1M52 53h1M42 54h1M51 54h1M43 55h1M49 55h2M44 56h2M47 56h2M44 57h1M48 57h1M44 58h1M48 58h1M42 59h2M48 59h1M47 60h1M36 61h1M46 61h1M37 62h9" />
<path stroke="#dedede" d="M37 34h6M43 43h2M43 44h2M35 47h1M37 60h3" />
<path stroke="#62a4e6" d="M43 34h1M37 35h1M43 42h2M42 43h1M45 43h1M42 44h1M45 44h1M43 45h2M36 47h1M40 60h2M37 61h1" />
<path stroke="#296abd" d="M44 34h1M38 35h1M45 40h2M42 42h1M45 42h1M42 45h1M45 45h1M37 47h1M56 47h4M35 48h1M42 60h1M38 61h1" />
</svg>