<svg xmlns="http://www.w3.org/2000/svg" viewBox="0 -0.5 96 96" shape-rendering="crispEdges">
<metadata>Made with Pixels to Svg https://codepen.io/shshaw/pen/XbxvNj</metadata>
<path stroke="#185294" d="M39 33h13M56 34h1M39 35h18M46 36h4M48 37h1M48 38h1M46 39h1M48 39h1M46 40h1M48 40h1M48 41h1M47 42h1M45 43h6M43 44h10M42 45h1M47 45h7M41 46h2M47 46h8M41 47h2M47 47h8M40 48h3M47 48h9M40 49h16M40 50h16M40 51h16M40 52h16M40 53h16M41 54h14M41 55h14M42 56h12M43 57h10M45 58h6" />
<path stroke="#101010" d="M52 33h5M38 34h1M57 34h1M38 35h1M57 35h1M39 36h7M50 36h7M46 37h1M49 37h1M46 38h1M49 38h1M49 39h1M49 40h1M46 41h1M49 41h1M45 42h2M48 42h3M43 43h2M51 43h2M42 44h1M53 44h1M41 45h1M54 45h1M40 46h1M55 46h1M40 47h1M55 47h1M39 48h1M56 48h1M39 49h1M56 49h1M39 50h1M56 50h1M39 51h1M56 51h1M39 52h1M56 52h1M39 53h1M56 53h1M40 54h1M55 54h1M40 55h1M55 55h1M41 56h1M54 56h1M42 57h1M53 57h1M43 58h2M51 58h2M45 59h6" />
<path stroke="#296abd" d="M39 34h1M49 34h1M51 34h5M47 37h1M47 38h1M47 41h1M43 45h1M46 45h1M43 48h1M46 48h1" />
<path stroke="#62a4e6" d="M40 34h1M44 34h5M50 34h1M47 39h1M47 40h1M44 45h2M43 46h1M46 46h1M43 47h1M46 47h1M44 48h2" />
<path stroke="#dedede" d="M41 34h3M44 46h2M44 47h2" />
</svg>