<svg xmlns="http://www.w3.org/2000/svg" viewBox="0 -0.5 96 96" shape-rendering="crispEdges">
<metadata>Made with Pixels to Svg https://codepen.io/shshaw/pen/XbxvNj</metadata>
<path stroke="#bd8b29" d="M54 25h6M53 26h1M60 26h2M62 27h1M49 33h2M55 33h4M49 34h10M62 34h1M49 35h12M49 36h9M49 37h6M49 38h5M49 39h4M49 40h4M49 41h4M49 42h3M48 43h4M48 44h4M48 45h4M32 58h2M63 58h2M67 58h1M63 59h3M33 60h1M63 60h4M70 60h1M28 61h1M32 61h2M65 61h4M30 62h4M26 63h1M30 63h3M59 63h3M28 64h3M59 64h6M60 65h8M61 66h7M63 67h4" />
<path stroke="#735210" d="M52 26h1M51 27h1M60 28h1M63 28h1M50 29h1M63 29h1M64 30h1M64 31h1M49 32h1M48 33h1M63 33h1M59 34h2M58 36h1M55 37h1M53 39h1M48 42h1M52 42h1M29 54h3M28 55h1M32 55h2M34 56h1M30 57h1M63 57h2M67 57h3M30 58h2M65 58h2M70 58h1M32 59h1M26 60h3M25 61h1M29 61h1M58 61h2M63 61h2M34 62h1M57 62h4M33 63h1M57 63h2M62 63h1M31 64h1M58 64h1M65 64h3M28 65h1M59 65h1M68 65h1M68 66h1" />
<path stroke="#ffff5a" d="M54 26h4M52 27h7M53 28h5" />
<path stroke="#eec54a" d="M58 26h2M59 27h3M51 28h2M58 28h2M61 28h2M51 29h9M61 29h2M50 30h10M61 30h3M50 31h14M50 32h14M51 33h4M59 33h4M61 34h1M29 55h3M29 56h5M31 57h4M68 58h2M66 59h5M67 60h3M26 61h2M26 62h4M27 63h3" />
<path stroke="#101010" d="M50 28h1M60 29h1M49 30h1M60 30h1M49 31h1M64 32h1M48 34h1M63 34h1M48 35h1M61 35h2M48 36h1M59 36h2M48 37h1M56 37h2M48 38h1M54 38h1M48 39h1M48 40h1M53 40h1M48 41h1M53 41h1M53 42h1M47 43h1M52 43h1M47 44h1M52 44h1M47 45h1M52 45h1M45 46h9M43 47h1M54 47h1M42 48h1M55 48h1M40 49h3M56 49h2M38 50h2M43 50h1M51 50h3M58 50h1M37 51h1M40 51h2M49 51h2M54 51h2M59 51h1M36 52h1M38 52h2M49 52h1M52 52h2M56 52h1M60 52h1M36 53h1M49 53h1M52 53h4M57 53h1M60 53h1M36 54h1M54 54h2M57 54h1M61 54h1M35 55h1M57 55h1M61 55h1M28 56h1M35 56h1M56 56h1M60 56h1M62 56h1M29 57h1M53 57h3M60 57h1M62 57h1M34 58h1M59 58h1M62 58h1M33 59h2M60 59h1M62 59h1M71 59h1M32 60h1M34 60h1M58 60h3M62 60h1M71 60h1M30 61h2M34 61h1M44 61h2M57 61h1M60 61h1M62 61h1M69 61h2M25 62h1M35 62h1M43 62h4M56 62h1M61 62h2M65 62h4M25 63h1M34 63h2M42 63h5M49 63h1M53 63h1M56 63h1M63 63h2M26 64h2M32 64h2M36 64h2M42 64h4M49 64h1M53 64h1M57 64h1M29 65h3M38 65h2M43 65h2M48 65h1M54 65h1M58 65h1M40 66h3M46 66h2M55 66h3M59 66h2M43 67h3M61 67h2M67 67h1M63 68h4" />
<path stroke="#18418b" d="M44 47h1M53 47h1M54 48h1M43 49h1M50 49h3M42 50h1M44 50h4M39 51h1M44 51h1M40 52h1M44 52h1M54 52h1M43 53h1M37 54h1M41 54h2M53 54h1M38 55h3M36 56h1M52 56h1M55 56h1M61 56h1M35 57h1M56 57h3M37 58h1M44 58h3M55 58h1M60 58h1M42 59h2M47 59h1M54 59h1M41 60h1M48 60h2M54 60h1M57 60h1M35 61h1M40 61h1M43 61h1M49 61h1M53 61h1M56 61h1M61 61h1M40 62h1M42 62h1M49 62h1M53 62h1M37 63h1M40 63h1M40 64h1M46 64h1M54 64h1M56 64h1M41 65h1M45 65h1M55 65h1" />
<path stroke="#ffffff" d="M45 47h3M44 48h4M44 49h3M40 50h2M38 51h1M58 51h1M37 52h1M59 52h1M37 53h3M38 54h1M56 58h2M44 59h2M55 59h4M43 60h4M56 60h1" />
<path stroke="#b4cdf6" d="M48 47h1M47 49h1M56 53h1M39 54h1M56 54h1M54 55h2M59 59h1M42 60h1M47 60h1M55 60h1M42 61h1M46 61h2M47 62h1M47 63h1M47 64h1" />
<path stroke="#839ce6" d="M49 47h4M43 48h1M48 48h6M48 49h2M42 51h2M51 51h3M41 52h3M50 52h2M55 52h1M40 53h3M50 53h2M59 53h1M40 54h1M50 54h3M51 55h3M56 55h1M53 56h2M36 57h1M61 57h1M35 58h2M58 58h1M61 58h1M35 59h2M46 59h1M49 59h2M61 59h1M35 60h2M38 60h2M50 60h2M61 60h1M36 61h1M38 61h2M41 61h1M48 61h1M50 61h2M54 61h2M36 62h1M39 62h1M41 62h1M48 62h1M54 62h2M36 63h1M41 63h1M48 63h1M54 63h2M41 64h1M48 64h1M55 64h1M42 65h1M46 65h2M56 65h2M43 66h3" />
<path stroke="#0029ac" d="M53 49h3M48 50h3M57 50h1M57 51h1M58 52h1M58 53h1M49 54h1M59 54h2M50 55h1M51 56h1M42 58h2M47 58h1M49 58h2M37 59h3M41 59h1M48 59h1M51 59h1M37 60h1M40 60h1M52 60h1M37 61h1M52 61h1M37 62h2M50 62h2M39 63h1M51 66h4M46 67h5" />
<path stroke="#0852d5" d="M54 50h3M48 51h1M56 51h1M48 52h1M57 52h1M47 53h2M47 54h2M58 54h1M36 55h1M46 55h4M58 55h3M44 56h7M57 56h3M37 57h1M41 57h12M59 57h1M38 58h4M48 58h1M51 58h4M40 59h1M52 59h2M53 60h1M52 62h1M38 63h1M50 63h3M38 64h2M50 64h3M40 65h1M49 65h5M48 66h3" />
<path stroke="#318bff" d="M45 51h3M45 52h3M44 53h3M43 54h4M37 55h1M41 55h5M37 56h7M38 57h3" />
</svg>