<svg xmlns="http://www.w3.org/2000/svg" viewBox="0 -0.5 96 96" shape-rendering="crispEdges">
<metadata>Made with Pixels to Svg https://codepen.io/shshaw/pen/XbxvNj</metadata>
<path stroke="#83837b" d="M49 24h2M49 25h1M38 26h1M52 26h2M37 27h1M37 28h1M56 29h1M56 30h1M53 32h1M51 33h1M53 33h2M56 33h2M43 34h1M51 34h4M56 34h2M41 35h1M43 35h5M51 35h6M41 36h6M50 36h1M52 36h5M43 37h3M51 37h7M43 38h1M51 38h7M44 39h1M50 39h7M49 40h7M44 41h1M47 41h9M44 42h14M44 43h15M44 44h14M45 45h12M45 46h10M56 46h1M46 47h8M56 47h1M46 48h7M56 48h2M46 49h7M56 49h1M45 50h8M56 50h2M45 51h9M44 52h11M44 53h11M43 54h9M54 54h2M44 55h7M55 55h2M40 56h1M46 56h13M48 57h10M36 58h1M43 58h1M46 58h11M34 59h1M39 59h2M42 59h1M47 59h11M35 60h23M35 61h4M41 61h16M34 62h4M40 62h1M42 62h8M34 63h14M34 64h3M42 64h5" />
<path stroke="#deded5" d="M50 25h1M50 26h2M39 27h1M51 27h3M38 28h1M40 28h2M50 28h5M39 29h4M44 29h1M51 29h4M40 30h3M44 30h2M52 30h3M57 30h1M40 31h6M50 31h3M54 31h3M40 32h5M52 32h1M55 32h1M41 33h2M44 33h1M55 33h1M40 34h1M42 34h1" />
<path stroke="#52524a" d="M51 25h1M39 26h1M49 26h1M38 27h1M40 27h3M49 27h2M54 27h1M39 28h1M43 28h2M49 28h1M55 28h1M38 29h1M43 29h1M45 29h1M50 29h1M55 29h1M57 29h2M39 30h1M46 30h1M49 30h3M55 30h1M58 30h1M39 31h1M46 31h1M49 31h1M38 32h2M45 32h1M38 33h1M40 33h1M58 33h1M39 34h1M45 34h1M47 34h1M50 34h1M58 34h1M48 35h1M57 35h1M47 36h1M51 36h1M57 36h1M41 37h2M44 38h1M58 38h1M43 39h1M43 40h1M56 40h1M43 41h1M56 41h1M43 42h1M43 43h1M43 44h1M44 45h1M57 45h1M54 47h1M57 47h1M53 48h1M55 48h1M58 48h1M55 49h1M58 49h1M55 50h1M55 52h2M41 53h2M57 53h1M40 54h1M52 54h2M40 55h1M51 55h1M54 55h1M36 56h4M34 57h2M58 57h1M33 58h1M37 58h1M44 58h2M43 59h1M46 59h1M34 60h1M39 61h2M33 62h1M38 62h1M41 62h1M55 62h2M33 63h1M33 64h1M40 64h2M34 65h3M42 65h2" />
<path stroke="#b4b4ac" d="M42 28h1M43 30h1M53 31h1M51 32h1M54 32h1M56 32h1M39 33h1M43 33h1M52 33h1M41 34h1M44 34h1M55 34h1M42 35h1M48 36h2M46 37h5M45 38h6M45 39h5M44 40h5M57 40h1M45 41h2M57 41h2M58 42h1M57 49h1M43 53h1M55 53h2M41 54h2M56 54h2M41 55h3M52 55h2M57 55h2M41 56h5M36 57h12M34 58h2M38 58h5M35 59h4M41 59h1M44 59h2M39 62h1" />
<path stroke="#101010" d="M57 31h1M50 32h1M57 32h1M45 33h1M50 33h1M46 34h1M40 35h1M49 35h2M40 36h1M58 36h1M58 37h1M42 38h1M57 39h1M58 40h1M59 41h1M59 42h1M59 43h1M58 44h1M44 46h1M55 46h1M57 46h1M45 47h1M45 48h1M45 49h1M53 49h1M44 50h1M53 50h1M58 50h1M44 51h1M54 51h1M56 51h2M43 52h1M58 54h1M59 55h1M59 56h1M57 58h1M33 59h1M58 59h1M58 60h1M34 61h1M57 61h1M50 62h5M48 63h2M37 64h3M47 64h1M44 65h2" />
</svg>