<svg xmlns="http://www.w3.org/2000/svg" viewBox="0 -0.5 96 96" shape-rendering="crispEdges">
<metadata>Made with Pixels to Svg https://codepen.io/shshaw/pen/XbxvNj</metadata>
<path stroke="#c54131" d="M38 27h3M41 28h2M49 28h1M43 29h1M49 29h1M44 30h1M50 30h1M45 31h1M40 34h1M46 34h1M49 36h1M41 55h2M53 55h3M40 56h1M56 56h1M42 57h2M55 57h1M43 58h1M45 58h1M47 58h1M51 58h1M53 58h1M46 59h1M48 59h2M51 59h2M54 59h2M49 60h3" />
<path stroke="#000000" d="M38 28h1M48 28h1M38 29h1M47 29h1M38 30h1M47 30h1M38 31h1M46 31h1M50 31h1M46 32h1M50 32h1M39 33h1M46 33h1M50 33h1M39 34h1M50 34h1M35 35h1M40 35h1M50 35h1M35 36h1M41 36h1M50 36h1M36 37h1M49 37h1M37 38h1M49 38h1M38 39h2M48 39h1M40 40h1M58 46h1M58 47h1M38 48h1M57 48h1M38 49h1M57 49h1M39 50h1M39 51h1M57 51h1M40 52h1M56 52h1M41 53h2M54 53h2M43 54h2M52 54h2M41 57h1M40 58h1M40 59h1M41 60h1M55 60h1M42 61h1M43 62h2M52 62h2M43 63h1M46 63h6M44 64h1M47 64h1M44 65h1M48 65h1M47 66h2M54 66h1M42 67h3M46 67h1M50 67h3M54 67h1M46 68h4M53 68h1" />
<path stroke="#ff9c39" d="M39 28h2M41 29h2M48 29h1M43 30h1M48 30h2M44 31h1M49 31h1M45 32h1M49 32h1M51 55h2M52 56h4M52 57h3M54 58h1" />
<path stroke="#f66a31" d="M39 29h2M39 30h4M39 31h5M47 31h2M40 32h5M47 32h2M40 33h6M47 33h3M41 34h5M47 34h3M36 35h2M41 35h1M44 35h6M36 36h4M45 36h1M47 36h2M37 37h5M48 37h1M38 38h3M48 38h1M40 39h2M43 55h8M41 56h11M44 57h8M44 58h1M46 58h1M48 58h3M52 58h1M55 58h1M50 59h1" />
<path stroke="#7b4a18" d="M38 32h2M35 34h3M38 35h2M40 36h1M57 45h1M58 48h1M57 50h1M59 50h1M58 51h1M45 63h1M50 64h1M43 65h1M51 65h3M42 66h1M45 67h1M49 67h1" />
<path stroke="#a47b52" d="M42 35h2M42 36h1M44 36h1M46 36h1M42 37h1M45 37h1M47 37h1M41 38h1M47 38h1M50 38h1M42 39h2M51 39h2M41 40h1M53 40h2M40 41h1M55 41h1M39 42h1M56 42h1M39 43h1M57 43h1M38 44h1M57 44h1M38 45h1M58 45h1M38 46h1M56 46h1M38 47h1M56 47h1M56 48h1M45 54h2M51 54h1M43 60h1M54 61h1" />
<path stroke="#d5a452" d="M43 36h1M43 37h2M46 37h1M42 38h5M44 39h4M49 39h2M42 40h6M41 41h10M40 42h13M40 43h14M39 44h17M39 45h18M39 46h17M39 47h17M39 48h17M39 49h18M40 50h17M40 51h17M41 52h15M43 53h11M47 54h4M41 58h2M41 59h5M47 59h1M42 60h1M44 60h5M43 61h9M45 62h6" />
<path stroke="#ffe662" d="M48 40h5M51 41h4M53 42h3M54 43h3M56 44h1M53 59h1M52 60h3M52 61h2M51 62h1" />
<path stroke="#ffffff" d="M57 46h1M57 47h1" />
<path stroke="#ac8373" d="M59 48h1M59 49h1M44 63h1M45 64h2M48 64h2M45 65h3M49 65h1M43 66h4M49 66h2M47 67h2" />
<path stroke="#cdac8b" d="M58 49h1M58 50h1M50 65h1M51 66h1M53 67h1" />
<path stroke="#f6cd8b" d="M52 66h2" />
</svg>