<svg xmlns="http://www.w3.org/2000/svg" viewBox="0 -0.5 96 96" shape-rendering="crispEdges">
<metadata>Made with Pixels to Svg https://codepen.io/shshaw/pen/XbxvNj</metadata>
<path stroke="#000000" d="M53 28h2M51 29h2M50 30h1M49 31h1M48 32h1M48 33h1M47 34h1M47 35h1M33 36h1M44 36h3M32 37h1M32 38h1M58 38h1M31 39h1M56 39h2M31 40h1M55 40h1M60 40h1M66 40h1M31 41h1M54 41h1M61 41h1M65 41h1M63 42h2M34 43h1M33 44h1M33 45h1M33 46h1M32 48h1M32 49h1M32 50h1M31 52h1M31 53h1M59 53h1M31 54h1M59 54h1M31 55h1M32 56h1M32 57h1M37 57h1M56 57h2M33 58h1M37 58h1M34 59h1M54 59h1M35 60h2M53 60h1M37 61h3M51 61h2M42 62h2M45 62h3M53 62h1M36 63h2M44 63h1M53 63h1M38 64h4M45 64h1M52 64h1M48 65h4" />
<path stroke="#94105a" d="M55 28h2M35 34h1M34 35h1M42 36h2M47 36h1M59 36h1M40 37h2M38 38h2M37 39h1M36 40h1M35 41h1M31 42h1M34 42h1M53 42h1M55 42h1M32 43h1M32 47h1M31 51h1M57 51h2M57 52h1M59 52h1M59 55h1M41 56h1M58 56h1M36 57h1M38 57h1M41 57h1M36 58h1M38 58h1M41 58h1M55 58h1M40 59h1M52 60h1M35 61h1M40 61h1M50 61h1M35 62h1M41 62h1M44 62h1M48 62h2M42 63h1M46 64h1M47 65h1" />
<path stroke="#c5399c" d="M57 28h2M59 29h2M50 31h1M36 33h2M48 34h1M59 35h1M47 37h1M58 37h1M57 38h1M53 41h1M35 42h1M52 43h1M55 43h1M34 44h1M56 44h1M56 45h1M56 46h1M57 47h1M57 48h1M57 49h1M57 50h1M36 53h3M57 53h1M35 54h1M39 54h1M40 55h1M37 56h1M56 56h1M34 57h1M55 57h1M34 58h1M35 59h1M37 60h3M38 62h3M38 63h4" />
<path stroke="#f6ace6" d="M53 29h4M54 30h5M56 31h3M59 32h1M36 34h3M36 35h4M34 36h5M34 37h3M43 37h1M40 38h5M39 39h6M37 40h8M37 41h7M36 42h8M36 43h7M54 43h1M37 44h4M54 44h2M54 45h2M54 46h2M55 47h2M55 48h2M56 49h1M58 52h1M58 53h1M36 54h2M35 55h4M35 56h1M50 62h2M50 63h2" />
<path stroke="#62d562" d="M57 29h1M59 31h1M60 33h1M43 34h1M60 34h1M41 35h3M60 35h2M41 36h1M60 36h3M59 37h5M59 38h6M60 39h6M61 40h5M63 41h2M35 51h5M34 52h8M35 53h1M39 53h4M41 54h1M52 63h1" />
<path stroke="#acf68b" d="M58 29h1M59 30h2M60 31h2M60 32h3M38 33h4M61 33h3M39 34h4M61 34h3M40 35h1M62 35h3M63 36h2M64 37h2M65 38h1M52 62h1" />
<path stroke="#e673b4" d="M51 30h3M51 31h5M49 32h10M49 33h11M49 34h11M35 35h1M48 35h11M39 36h2M48 36h11M33 37h1M37 37h3M42 37h1M44 37h3M48 37h10M33 38h5M45 38h12M32 39h5M38 39h1M45 39h11M32 40h4M45 40h10M32 41h3M36 41h1M44 41h9M32 42h2M44 42h9M54 42h1M33 43h1M35 43h1M43 43h9M53 43h1M35 44h2M41 44h13M34 45h20M34 46h20M33 47h22M33 48h22M33 49h23M33 50h24M32 51h3M40 51h17M32 52h2M42 52h15M32 53h3M43 53h14M32 54h3M38 54h1M40 54h1M42 54h17M32 55h3M39 55h1M41 55h18M33 56h2M36 56h1M38 56h3M42 56h14M57 56h1M33 57h1M35 57h1M39 57h2M42 57h13M35 58h1M39 58h2M42 58h13M36 59h4M41 59h13M40 60h12M36 61h1M41 61h9M36 62h2M45 63h5M47 64h5" />
<path stroke="#186220" d="M61 30h1M38 32h4M42 33h2M44 34h1M44 35h1M65 35h1M66 37h1M66 38h1M59 39h1M66 39h1M62 41h1" />
<path stroke="#529c5a" d="M62 31h1M63 32h1M64 33h1M64 34h1M65 36h1" />
</svg>