<svg xmlns="http://www.w3.org/2000/svg" viewBox="0 -0.5 96 96" shape-rendering="crispEdges">
<metadata>Made with Pixels to Svg https://codepen.io/shshaw/pen/XbxvNj</metadata>
<path stroke="#62206a" d="M28 18h4M26 19h2M56 19h6M25 20h1M54 20h2M62 20h2M37 21h1M53 21h1M31 22h1M37 22h1M52 22h1M23 23h2M38 23h1M52 23h1M55 23h1M59 23h1M32 24h1M38 24h1M51 24h1M66 24h1M27 25h1M53 25h1M61 25h1M66 25h1M55 26h1M58 26h1M23 28h2M27 28h1M29 28h1M32 28h1M55 28h1M58 29h1M61 29h1M66 29h1M30 30h1M36 31h1M54 31h1M59 31h1M33 32h1M36 32h1M44 32h2M28 33h1M37 33h1M51 33h1M54 33h1M38 34h1M57 34h1M36 35h1M51 35h1M30 36h3M56 36h1M28 37h2M33 37h1M55 37h1M57 37h1M68 37h3M27 38h1M54 38h1M58 38h1M65 38h1M71 38h2M27 39h1M58 39h1M64 39h1M70 39h1M73 39h1M59 40h1M64 40h1M74 40h1M59 41h1M63 41h1M59 42h1M63 42h1M60 44h1M71 44h1M60 45h1M71 45h1M60 46h1M60 47h1M60 48h1M61 49h1M58 50h2M29 51h2M27 53h1M28 54h1M58 56h1M62 56h1M60 59h1M60 60h1M29 61h2M36 63h2M62 63h1M29 64h1M35 64h1M63 64h1M29 65h1M34 65h1M64 65h1M28 66h1M36 66h1M38 66h1M64 66h1M28 67h1M33 67h1M43 67h1M28 68h1M36 68h1M27 69h1M34 69h2M48 69h2M37 70h1M42 70h6M36 71h1M40 71h1M53 71h1M62 71h1M36 72h3M52 72h1M54 72h1M60 72h1M39 73h1M59 73h2M64 73h2M39 74h1M51 74h1M61 74h2M27 75h1M37 75h2M62 75h1M65 75h1M28 76h1M51 77h1M58 77h1" />
<path stroke="#8352a4" d="M32 18h2M28 19h1M34 19h2M26 20h3M36 20h1M25 21h8M54 21h5M64 21h1M25 22h2M32 22h2M53 22h8M65 22h1M25 23h1M32 23h3M53 23h2M60 23h2M65 23h1M24 24h1M33 24h2M52 24h2M61 24h2M24 25h1M28 25h1M33 25h2M52 25h1M62 25h1M24 26h1M27 26h3M33 26h3M52 26h1M56 26h2M62 26h2M24 27h1M27 27h3M33 27h5M52 27h1M55 27h4M62 27h2M28 28h1M33 28h5M52 28h1M56 28h3M62 28h4M25 29h1M32 29h5M52 29h1M56 29h2M62 29h4M25 30h2M31 30h6M53 30h1M61 30h4M26 31h10M53 31h1M60 31h5M28 32h5M34 32h2M41 32h3M54 32h10M34 33h3M39 33h2M55 33h7M35 34h3M53 34h4M50 35h1M52 35h4M36 36h2M46 36h9M35 37h20M66 37h2M34 38h20M55 38h1M67 38h1M70 38h1M30 39h3M34 39h22M66 39h1M27 40h5M33 40h23M66 40h1M69 40h1M27 41h5M33 41h24M27 42h4M32 42h3M43 42h14M26 43h5M32 43h1M46 43h12M59 43h1M71 43h1M26 44h5M48 44h12M72 44h1M25 45h5M31 45h1M36 45h5M50 45h10M63 45h1M70 45h1M25 46h5M31 46h13M51 46h9M62 46h2M69 46h2M25 47h5M31 47h15M51 47h9M62 47h2M69 47h2M24 48h6M31 48h2M42 48h5M49 48h11M62 48h3M68 48h2M24 49h6M31 49h1M45 49h15M62 49h8M24 50h6M31 50h1M46 50h12M60 50h10M24 51h5M31 51h2M35 51h5M47 51h22M25 52h4M30 52h13M47 52h22M28 53h1M30 53h14M45 53h23M30 54h4M42 54h25M30 55h4M43 55h20M30 56h5M37 56h2M43 56h15M30 57h10M42 57h18M30 58h30M30 59h30M30 60h30M31 61h30M31 62h30M31 63h5M38 63h22M30 64h1M32 64h3M36 64h24M30 65h1M32 65h2M35 65h26M29 66h3M33 66h1M35 66h1M39 66h24M29 67h4M35 67h1M39 67h4M44 67h20M29 68h5M35 68h1M39 68h4M44 68h20M28 69h6M36 69h6M43 69h5M52 69h11M28 70h7M38 70h2M53 70h10M28 71h8M54 71h8M28 72h8M55 72h5M28 73h10M52 73h7M28 74h10M52 74h9M28 75h9M51 75h11M29 76h6M51 76h12M52 77h6" />
<path stroke="#b47bc5" d="M29 19h1M29 20h2M56 20h1M33 21h1M59 21h1M34 22h1M61 22h1M62 23h1M35 25h1M63 25h1M36 26h1M64 27h1M48 33h1M51 34h1M37 35h1M49 35h1M38 36h1M45 36h1M30 37h3M56 37h1M28 38h5M28 39h2M67 39h1M69 39h1M56 40h1M65 40h1M67 40h2M70 40h2M57 41h1M64 41h10M35 42h1M42 42h1M57 42h2M64 42h10M45 43h1M58 43h1M63 43h8M72 43h2M63 44h8M32 45h1M35 45h1M41 45h1M49 45h1M64 45h6M44 46h1M64 46h5M50 47h1M64 47h5M33 48h1M41 48h1M47 48h1M65 48h3M44 49h1M32 50h1M34 51h1M40 51h1M46 52h1M34 54h1M41 54h1M36 56h1M42 56h1M41 57h1M60 63h2M60 64h3M61 65h3M63 66h1" />
<path stroke="#dea4de" d="M30 19h4M31 20h5M57 20h5M34 21h3M60 21h4M35 22h2M62 22h3M35 23h3M63 23h2M35 24h3M63 24h3M36 25h2M64 25h2M37 26h1M64 26h2M65 27h1M41 33h7M39 34h12M38 35h11M39 36h6M56 38h2M66 38h1M68 38h2M56 39h2M65 39h1M68 39h1M71 39h2M57 40h2M72 40h2M58 41h1" />
<path stroke="#101010" d="M24 21h1M24 22h1M27 22h4M26 23h6M56 23h3M23 24h1M25 24h7M54 24h7M23 25h1M25 25h2M29 25h4M38 25h1M51 25h1M54 25h7M23 26h1M25 26h2M30 26h3M38 26h1M51 26h1M53 26h2M59 26h3M66 26h1M23 27h1M25 27h2M30 27h3M38 27h1M51 27h1M53 27h2M59 27h3M66 27h1M25 28h2M30 28h2M38 28h1M51 28h1M53 28h2M59 28h3M66 28h1M24 29h1M26 29h6M37 29h1M51 29h1M53 29h3M59 29h2M24 30h1M27 30h3M37 30h1M52 30h1M54 30h7M65 30h1M25 31h1M52 31h1M55 31h4M65 31h1M26 32h2M46 32h3M53 32h1M64 32h1M29 33h5M49 33h2M53 33h1M62 33h2M34 34h1M52 34h1M58 34h4M35 35h1M56 35h2M35 36h1M55 36h1M34 37h1M33 38h1M33 39h1M26 40h1M32 40h1M26 41h1M32 41h1M74 41h1M26 42h1M31 42h1M74 42h1M25 43h1M31 43h1M62 43h1M74 43h1M25 44h1M31 44h1M62 44h1M73 44h1M24 45h1M30 45h1M62 45h1M72 45h1M24 46h1M30 46h1M61 46h1M71 46h1M24 47h1M30 47h1M61 47h1M71 47h1M23 48h1M30 48h1M61 48h1M70 48h1M23 49h1M30 49h1M60 49h1M70 49h1M23 50h1M30 50h1M70 50h1M23 51h1M69 51h1M24 52h1M29 52h1M69 52h1M25 53h2M29 53h1M68 53h1M29 54h1M67 54h1M29 55h1M63 55h4M29 56h1M59 56h3M29 57h1M29 58h1M29 59h1M63 59h1M29 60h1M63 60h1M61 61h2M30 62h1M61 62h1M30 63h1M31 64h1M31 65h1M32 66h1M34 66h1M37 66h1M34 67h1M36 67h3M64 67h1M34 68h1M37 68h2M43 68h1M64 68h1M42 69h1M50 69h2M63 69h1M27 70h1M35 70h2M40 70h2M52 70h1M63 70h1M27 71h1M37 71h3M52 71h1M27 72h1M51 72h1M53 72h1M61 72h2M27 73h1M51 73h1M63 73h1M27 74h1M50 74h1M66 74h1M50 75h1M66 75h1M35 76h2M50 76h1M63 76h2M29 77h6M50 77h1M59 77h4M51 78h8" />
<path stroke="#b47318" d="M59 39h3M62 40h1M62 41h1M62 42h1M61 44h1M61 45h1M62 57h1M60 58h1M62 58h1" />
<path stroke="#ffde5a" d="M60 40h1M60 41h1" />
<path stroke="#f69c08" d="M61 40h1M61 41h1M36 42h6M60 42h2M33 43h12M60 43h2M32 44h16M33 45h2M42 45h7M45 46h6M46 47h4M34 48h7M48 48h1M32 49h12M33 50h13M33 51h1M41 51h6M43 52h3M44 53h1M35 54h6M34 55h9M35 56h1M39 56h3M40 57h1M60 57h2M61 58h1M61 59h2M61 60h2" />
<path stroke="#cdcdcd" d="M38 73h1M61 73h2M38 74h1M63 74h1M65 74h1M64 75h1" />
<path stroke="#ffffff" d="M64 74h1M63 75h1" />
</svg>