<svg xmlns="http://www.w3.org/2000/svg" viewBox="0 -0.5 96 96" shape-rendering="crispEdges">
<metadata>Made with Pixels to Svg https://codepen.io/shshaw/pen/XbxvNj</metadata>
<path stroke="#732041" d="M45 24h6M44 25h1M51 25h3M54 26h2M56 27h1M43 28h2M48 28h3M57 28h1M45 29h7M58 29h1M38 30h1M46 30h8M59 30h1M46 31h9M60 31h1M37 32h1M45 32h11M61 32h1M45 33h11M61 33h1M45 34h12M62 34h1M36 35h1M45 35h12M62 35h1M36 36h2M45 36h13M59 36h1M63 36h1M34 37h5M45 37h13M63 37h1M30 38h1M32 38h9M45 38h12M64 38h1M28 39h2M31 39h8M40 39h2M45 39h11M60 39h1M64 39h1M26 40h3M30 40h7M38 40h2M41 40h2M46 40h11M64 40h1M24 41h3M29 41h2M32 41h6M39 41h1M46 41h13M65 41h1M23 42h3M29 42h1M32 42h6M40 42h1M46 42h13M65 42h1M22 43h3M32 43h3M41 43h1M49 43h11M63 43h1M65 43h1M21 44h3M42 44h2M52 44h8M62 44h1M64 44h1M66 44h1M21 45h2M34 45h1M37 45h1M43 45h3M53 45h7M61 45h1M66 45h1M20 46h2M34 46h1M45 46h3M53 46h8M67 46h1M46 47h4M52 47h9M67 47h1M50 48h12M63 48h1M68 48h1M48 49h14M63 49h1M68 49h1M48 50h15M64 50h3M69 50h1M49 51h15M67 51h1M70 51h1M49 52h14M67 52h1M71 52h1M50 53h12M67 53h1M72 53h1M28 54h2M51 54h12M66 54h1M73 54h2M51 55h18M70 55h1M75 55h2M24 56h1M29 56h2M52 56h18M77 56h2M26 57h3M49 57h1M53 57h19M73 57h1M79 57h1M26 58h1M44 58h1M47 58h1M54 58h18M80 58h1M48 59h1M55 59h19M77 59h2M81 59h1M56 60h20M81 60h1M57 61h18M82 61h1M59 62h17M82 62h1M61 63h19M64 64h16M68 65h8M30 67h1M29 68h4M43 68h1M40 69h4" />
<path stroke="#101010" d="M43 25h1M41 26h2M40 27h1M39 28h1M45 28h3M51 28h1M38 29h1M42 29h3M52 29h2M37 30h1M41 30h1M45 30h1M54 30h1M37 31h1M40 31h1M45 31h1M55 31h1M36 32h1M39 32h1M44 32h1M56 32h1M36 33h1M39 33h1M44 33h1M56 33h1M36 34h1M38 34h1M44 34h1M57 34h1M35 35h1M38 35h1M44 35h1M57 35h1M34 36h2M38 36h1M44 36h1M58 36h1M32 37h2M39 37h2M44 37h1M58 37h1M28 38h2M31 38h1M41 38h1M44 38h1M57 38h1M26 39h2M30 39h1M39 39h1M42 39h1M44 39h1M56 39h1M24 40h2M29 40h1M37 40h1M40 40h1M45 40h1M57 40h3M22 41h2M27 41h2M38 41h1M41 41h3M45 41h1M59 41h1M21 42h1M26 42h1M28 42h1M39 42h1M43 42h3M59 42h1M20 43h1M25 43h1M40 43h1M46 43h3M60 43h1M19 44h1M24 44h1M36 44h1M41 44h1M49 44h3M60 44h1M18 45h1M23 45h1M35 45h1M42 45h1M52 45h1M60 45h1M64 45h1M18 46h1M22 46h1M36 46h1M43 46h2M52 46h1M64 46h1M19 47h3M36 47h1M45 47h1M50 47h2M61 47h1M63 47h1M46 48h4M62 48h1M47 49h1M62 49h1M47 50h1M63 50h1M30 51h2M38 51h1M48 51h1M64 51h1M32 52h2M48 52h1M63 52h1M49 53h1M62 53h1M66 53h1M26 54h2M38 54h2M44 54h2M50 54h1M63 54h3M67 54h2M23 55h3M34 55h1M40 55h1M46 55h2M50 55h1M69 55h1M71 55h2M74 55h1M22 56h1M34 56h1M41 56h2M48 56h2M51 56h1M70 56h1M74 56h1M22 57h2M29 57h2M33 57h1M43 57h1M50 57h1M52 57h1M23 58h3M27 58h2M33 58h1M46 58h1M49 58h2M53 58h1M72 58h2M25 59h2M44 59h2M47 59h1M49 59h1M54 59h1M74 59h2M30 60h1M48 60h2M55 60h1M76 60h1M56 61h1M75 61h1M79 61h1M29 62h1M35 62h1M46 62h1M57 62h2M76 62h4M28 63h1M35 63h1M46 63h1M59 63h2M80 63h1M82 63h1M28 64h1M35 64h1M47 64h1M61 64h3M80 64h2M28 65h1M36 65h1M47 65h1M64 65h4M76 65h4M29 66h2M36 66h1M46 66h1M68 66h8M29 67h1M31 67h2M36 67h1M43 67h3M28 68h1M33 68h3M37 68h6M44 68h1M28 69h2M31 69h2M39 69h1M44 69h1M39 70h2M42 70h2" />
<path stroke="#b45a83" d="M45 25h2M43 26h6M41 27h11M40 28h3M52 28h2M39 29h3M54 29h1M39 30h2M55 30h1M38 31h2M56 31h1M38 32h1M37 33h2M57 33h1M37 34h1M37 35h1M60 36h1M61 37h1M61 38h1M60 40h1M40 41h1M60 41h1M22 42h1M41 42h2M60 42h2M21 43h1M42 43h4M61 43h2M20 44h1M44 44h5M61 44h1M65 44h1M19 45h2M46 45h6M65 45h1M19 46h1M48 46h4M65 46h2M64 47h3M64 48h4M64 49h4M67 50h2M68 51h2M68 52h3M68 53h4M69 54h4M26 55h5M44 55h2M23 56h1M25 56h4M43 56h5M24 57h2M44 57h5M74 57h2M45 58h1M48 58h1M74 58h3M76 59h1M79 60h1M80 62h1" />
<path stroke="#d583ac" d="M47 25h4M49 26h5M52 27h4M54 28h3M55 29h3M56 30h3M57 31h3M57 32h4M58 33h3M58 34h4M58 35h4M61 36h2M62 37h1M62 38h2M61 39h3M61 40h3M61 41h4M62 42h3M64 43h1M61 46h1M63 46h1M62 47h1M66 52h1M65 53h1M71 56h1M75 56h2M76 57h3M77 58h3M79 59h2M80 60h1M80 61h2M81 62h1M81 63h1" />
<path stroke="#ffffff" d="M59 37h1M58 38h2M57 39h2M63 44h1M62 45h2M62 46h1M34 47h1M34 48h1M65 51h1M64 52h2M63 53h2M73 55h1M72 56h2M72 57h1M76 61h2" />
<path stroke="#cdcdcd" d="M60 37h1M60 38h1M59 39h1M36 45h1M66 51h1M77 60h2M78 61h1" />
<path stroke="#de9441" d="M31 41h1M30 42h2M38 42h1M29 43h3M35 43h5M29 44h6M37 44h3M28 45h6M38 45h2M28 46h6M38 46h2M28 47h5M38 47h1M28 48h5M37 48h2M29 49h10M29 50h3M33 50h5M32 51h5M35 52h4M33 53h6M30 54h4M35 54h2M43 54h1M31 55h1M35 55h4M41 55h1M35 56h4M35 57h5M34 58h6M32 59h1M34 59h6M31 60h10M30 61h2M33 61h2M36 61h5M30 62h1M32 62h2M36 62h2M39 62h2M29 63h2M32 63h2M36 63h2M39 63h3M29 64h1M31 64h3M36 64h3M40 64h2M29 65h1M31 65h2M34 65h2M37 65h2M40 65h3M31 66h2M34 66h2M37 66h3M41 66h2M45 66h1M34 67h1M37 67h3M41 67h2" />
<path stroke="#836229" d="M28 43h1M28 44h1M35 44h1M27 45h1M27 46h1M42 46h1M27 47h1M33 47h1M41 47h1M27 48h1M33 48h1M36 48h1M41 48h1M28 49h1M40 49h1M28 50h1M32 50h1M39 50h1M29 51h1M37 51h1M34 52h1M39 52h2M30 53h3M41 53h3M34 54h1M37 54h1M32 55h2M39 55h1M31 56h1M40 56h1M34 57h1M40 57h1M32 58h1M41 58h2M31 59h1M33 59h1M43 59h1M44 60h1M29 61h1M32 61h1M35 61h1M41 61h1M45 61h1M31 62h1M34 62h1M38 62h1M41 62h1M31 63h1M34 63h1M38 63h1M42 63h1M30 64h1M34 64h1M39 64h1M42 64h1M30 65h1M33 65h1M39 65h1M43 65h1M33 66h1M40 66h1M43 66h1M33 67h1M35 67h1M40 67h1" />
<path stroke="#ffc55a" d="M40 44h1M40 45h2M40 46h2M39 47h2M39 48h2M39 49h1M38 50h1M39 53h2M40 54h3M42 55h2M39 56h1M40 58h1M40 59h3M41 60h3M42 61h3M42 62h4M43 63h3M43 64h4M44 65h3M44 66h1" />
<path stroke="#b43929" d="M35 46h1M37 46h1M37 47h1" />
<path stroke="#ff625a" d="M35 47h1M35 48h1" />
</svg>