<svg xmlns="http://www.w3.org/2000/svg" viewBox="0 -0.5 96 96" shape-rendering="crispEdges">
<metadata>Made with Pixels to Svg https://codepen.io/shshaw/pen/XbxvNj</metadata>
<path stroke="#94a4cd" d="M40 28h3M62 28h1M43 29h1M57 29h1M61 29h1M63 29h1M45 30h1M56 30h1M63 30h1M38 31h3M46 31h1M48 31h1M56 31h1M47 33h1M58 33h1M61 33h1M41 34h1M48 34h1M57 34h1M62 34h1M41 35h2M47 35h1M49 35h1M56 35h1M62 35h1M64 35h2M41 36h4M46 36h1M48 36h2M54 36h2M62 36h1M40 37h11M52 37h3M62 37h2M39 38h12M52 38h3M62 38h1M41 39h10M52 39h2M62 39h1M41 40h4M47 40h3M52 40h2M62 40h1M41 41h4M48 41h2M51 41h2M61 41h2M42 42h3M48 42h2M51 42h2M61 42h1M41 43h1M43 43h2M46 43h2M49 43h1M51 43h2M56 43h1M59 43h3M40 44h2M45 44h2M49 44h1M51 44h2M56 44h1M58 44h3M65 44h2M38 45h2M41 45h5M47 45h1M49 45h1M52 45h1M55 45h4M63 45h1M41 46h1M44 46h2M47 46h2M50 46h1M52 46h2M55 46h3M59 46h1M64 46h1M35 47h1M39 47h1M41 47h1M43 47h1M45 47h1M47 47h2M50 47h2M53 47h8M36 48h1M38 48h4M43 48h2M47 48h3M51 48h2M54 48h6M62 48h1M39 49h4M44 49h6M51 49h9M63 49h1M33 50h2M37 50h6M44 50h16M64 50h1M34 51h2M37 51h4M45 51h15M64 51h1M35 52h2M39 52h2M42 52h7M51 52h11M64 52h1M34 53h1M36 53h3M40 53h2M43 53h5M52 53h13M33 54h10M44 54h5M52 54h5M58 54h7M33 55h21M55 55h3M59 55h4M32 56h13M48 56h3M52 56h2M56 56h2M59 56h2M32 57h12M47 57h4M52 57h7M33 58h6M40 58h12M53 58h6M34 59h5M40 59h12M53 59h6M34 60h5M40 60h3M45 60h7M55 60h4M31 61h9M41 61h1M46 61h5M57 61h3M31 62h3M35 62h3M43 62h1M46 62h5M58 62h4M31 63h3M43 63h4M48 63h2M44 64h3M44 65h3" />
<path stroke="#4a5a9c" d="M40 29h1M44 29h1M41 30h1M61 30h1M41 31h1M49 31h1M59 31h2M63 31h1M38 32h1M47 32h1M49 32h1M56 32h1M63 32h1M39 33h1M49 33h1M59 33h1M40 34h1M49 34h1M54 34h1M61 34h1M40 35h1M52 35h2M40 36h1M65 36h1M38 37h2M51 37h1M64 37h1M38 38h1M39 39h2M64 39h1M40 40h1M45 40h1M50 40h1M47 42h1M62 42h1M39 43h1M45 43h1M38 44h1M42 44h1M44 44h1M48 44h1M55 44h1M57 44h1M62 44h3M35 45h2M46 45h1M50 45h1M59 45h1M34 46h1M40 46h1M42 46h1M54 46h1M58 46h1M34 47h1M49 47h1M52 47h1M35 48h1M46 48h1M53 48h1M60 48h2M64 48h1M33 49h2M37 49h1M50 49h1M60 49h1M62 49h1M64 49h1M32 50h1M60 50h1M63 50h1M65 50h1M33 51h1M41 51h1M43 51h2M60 51h1M65 51h1M34 52h1M38 52h1M49 52h2M65 52h1M33 53h1M35 53h1M39 53h1M48 53h4M65 53h1M32 54h1M43 54h1M49 54h3M57 54h1M32 55h1M54 55h1M58 55h1M45 56h3M51 56h1M54 56h2M61 56h2M44 57h3M51 57h1M60 57h1M63 57h1M31 58h2M39 58h1M52 58h1M30 59h1M33 59h1M39 59h1M30 60h1M33 60h1M39 60h1M43 60h2M53 60h1M61 60h1M30 61h1M40 61h1M45 61h1M61 61h2M30 62h1M38 62h1M41 62h1M63 62h1M34 63h1M36 63h2M62 63h1M35 64h1M43 64h1M47 64h1M48 65h1M49 66h1" />
<path stroke="#b4cdff" d="M41 29h2M62 29h1M42 30h3M57 30h1M62 30h1M42 31h4M57 31h2M61 31h2M39 32h8M48 32h1M57 32h6M40 33h7M48 33h1M56 33h2M62 33h1M42 34h6M55 34h2M43 35h4M48 35h1M54 35h2M45 36h1M47 36h1M51 36h3M63 36h2M63 40h1M46 41h1M39 42h2M46 42h1M40 43h1M61 45h1M64 45h2M36 46h2M60 46h3M37 47h2M61 47h3M63 48h1M36 50h1M31 59h2M59 59h1M31 60h2M59 60h2M43 61h2M60 61h1M44 62h2" />
<path stroke="#101010" d="M58 30h1M55 33h1M63 33h1M63 34h1M50 35h2M63 35h1M50 36h1M51 38h1M63 38h1M51 39h1M63 39h1M46 40h1M51 40h1M64 40h1M38 41h3M45 41h1M47 41h1M50 41h1M63 41h1M38 42h1M41 42h1M45 42h1M50 42h1M42 43h1M48 43h1M50 43h1M62 43h1M39 44h1M43 44h1M47 44h1M50 44h1M61 44h1M37 45h1M40 45h1M48 45h1M51 45h1M60 45h1M62 45h1M66 45h1M35 46h1M38 46h2M43 46h1M46 46h1M49 46h1M51 46h1M63 46h1M65 46h1M36 47h1M40 47h1M42 47h1M44 47h1M46 47h1M64 47h1M37 48h1M42 48h1M45 48h1M50 48h1M35 49h2M38 49h1M43 49h1M35 50h1M43 50h1M36 51h1M42 51h1M63 51h1M37 52h1M41 52h1M63 52h1M42 53h1M65 54h1M64 55h1M31 56h1M58 56h1M64 56h1M31 57h1M59 57h1M59 58h1M52 59h1M60 59h1M52 60h1M54 60h1M42 61h1M51 61h1M55 61h2M34 62h1M39 62h2M42 62h1M51 62h1M57 62h1M30 63h1M35 63h1M42 63h1M47 63h1M50 63h1M58 63h4M30 64h1M48 64h2M31 65h1M35 65h1M43 65h1M32 66h3M44 66h1M45 67h5" />
<path stroke="#7b3120" d="M60 33h1M58 34h3M57 35h5M56 36h3M61 36h1M55 37h3M55 38h3M54 39h3M54 40h3M53 41h5M53 42h5M60 42h1M53 43h3M57 43h2M53 44h2M53 45h2" />
<path stroke="#8b5a31" d="M59 36h2M58 37h4M58 38h4M57 39h5M57 40h5M58 41h3M58 42h2" />
<path stroke="#cdcdcd" d="M61 49h1M63 55h1M62 62h1M31 64h1M33 64h2M32 65h1M34 65h1M47 65h1M45 66h1M47 66h2" />
<path stroke="#ffffff" d="M61 50h1M61 51h1M63 56h1" />
<path stroke="#ff6a52" d="M62 50h1" />
<path stroke="#de4129" d="M62 51h1" />
<path stroke="#b41800" d="M62 52h1" />
<path stroke="#838383" d="M32 64h1M33 65h1M46 66h1" />
</svg>