<svg xmlns="http://www.w3.org/2000/svg" viewBox="0 -0.5 96 96" shape-rendering="crispEdges">
<metadata>Made with Pixels to Svg https://codepen.io/shshaw/pen/XbxvNj</metadata>
<path stroke="#5a2073" d="M7 20h7M4 21h3M14 21h3M68 21h5M2 22h2M16 22h3M73 22h5M19 23h2M67 23h1M78 23h3M5 24h1M11 24h2M21 24h1M81 24h2M1 25h1M5 25h1M12 25h4M22 25h1M50 25h2M83 25h2M13 26h3M48 26h2M85 26h1M14 27h4M46 27h2M86 27h1M15 28h5M44 28h2M87 28h1M16 29h6M88 29h1M16 30h6M26 30h1M89 30h1M17 31h5M89 31h1M17 32h2M90 32h1M17 33h1M90 33h1M27 34h3M91 34h1M24 35h3M91 35h1M24 36h1M91 36h1M18 37h1M25 37h1M92 37h1M18 38h1M92 38h1M18 39h1M92 39h1M16 40h1M92 40h1M14 44h2M22 45h4M18 46h1M20 46h1M26 46h2M19 47h1M28 47h2M30 48h1M31 49h1M32 50h1M33 51h1M34 52h1M35 53h1M35 54h1M36 55h1M84 56h5M37 57h1M89 57h3M38 58h1M85 58h2M92 58h2M38 59h1M87 59h1M39 60h1M90 60h1M39 61h1M81 61h2M40 62h1M41 63h1M42 64h1M68 64h2M75 64h1M43 65h2M76 65h1M45 66h3M48 67h3M73 67h1M51 68h4M71 68h2M55 69h5M67 69h4M60 70h7" />
<path stroke="#9452a4" d="M7 21h7M62 21h6M4 22h12M61 22h1M63 22h1M71 22h2M2 23h3M15 23h4M55 23h1M73 23h5M1 24h1M19 24h2M52 24h3M74 24h7M20 25h2M75 25h8M22 26h1M76 26h9M23 27h1M76 27h9M24 28h1M43 28h1M77 28h7M85 28h1M41 29h2M77 29h8M86 29h1M39 30h2M77 30h7M85 30h1M87 30h1M36 31h3M77 31h8M19 32h3M33 32h3M77 32h8M18 33h5M30 33h3M76 33h9M18 34h5M75 34h11M18 35h6M75 35h11M18 36h6M73 36h13M19 37h6M72 37h14M17 38h1M19 38h8M70 38h17M17 39h1M19 39h10M67 39h20M17 40h14M64 40h23M16 41h20M60 41h27M92 41h1M15 42h28M54 42h33M92 42h1M14 43h73M92 43h1M16 44h71M17 45h5M26 45h61M19 46h1M28 46h59M30 47h56M31 48h55M32 49h54M33 50h53M34 51h52M35 52h51M36 53h49M36 54h49M37 55h48M37 56h47M38 57h45M39 58h46M39 59h44M40 60h42M40 61h40M41 62h36M42 63h39M43 64h25M71 64h4M76 64h8M45 65h26M73 65h3M78 65h3M83 65h4M48 66h25M74 66h4M79 66h4M85 66h2M51 67h22M76 67h3M81 67h4M55 68h16M77 68h4M83 68h3M60 69h7M79 69h4M84 69h1M80 70h4" />
<path stroke="#837383" d="M58 22h3M92 44h1M13 45h1M16 45h1M92 45h1M17 46h1M21 46h1M92 46h1M92 47h1M92 48h1M92 49h1M91 50h1M91 51h1M9 52h2M91 52h1M91 53h1M90 54h1M90 55h1M6 56h3M89 56h1M5 57h1M9 58h1M9 59h1M10 62h1M85 62h1M84 63h1M41 67h1M41 68h1M26 69h2M42 69h1M28 70h1M42 70h1M77 70h1M43 71h1M76 71h1M14 72h1M75 72h1M36 73h1M74 73h1M36 74h1M72 74h2M71 75h1M69 76h1M20 78h1" />
<path stroke="#cd9ce6" d="M62 22h1M64 22h2M63 23h4M68 23h1M64 24h5M64 25h3M62 26h1" />
<path stroke="#b483de" d="M66 22h3M10 23h4M69 23h2M13 24h5M55 24h1M69 24h3M16 25h4M67 25h5M18 26h4M50 26h1M54 26h1M56 26h1M63 26h8M20 27h3M48 27h1M55 27h1M61 27h8M22 28h2M23 29h1M48 29h1M53 29h1M24 30h1M41 30h1M49 30h2M25 31h1M45 32h1M91 42h1M90 47h1M89 50h1M88 53h1" />
<path stroke="#a473c5" d="M69 22h2M5 23h5M14 23h1M56 23h2M71 23h2M2 24h3M18 24h1M72 24h2M52 25h4M72 25h3M55 26h1M71 26h5M56 27h5M69 27h7M85 27h1M46 28h2M55 28h22M84 28h1M86 28h1M24 29h1M43 29h5M54 29h23M85 29h1M87 29h1M25 30h1M45 30h4M51 30h26M84 30h1M86 30h1M88 30h1M39 31h1M46 31h31M85 31h4M36 32h3M46 32h31M85 32h5M33 33h6M44 33h32M85 33h5M30 34h1M36 34h39M86 34h5M27 35h3M36 35h39M86 35h5M25 36h5M35 36h38M86 36h5M26 37h46M86 37h6M27 38h43M87 38h5M29 39h38M87 39h5M31 40h33M87 40h5M36 41h24M87 41h5M43 42h11M87 42h4M87 43h4M87 44h4M87 45h4M87 46h4M86 47h4M86 48h4M86 49h4M86 50h3M86 51h3M86 52h3M85 53h3M85 54h3M85 55h3M83 57h6M87 58h5M83 59h4M90 59h3M85 60h5M80 61h1M87 61h4" />
<path stroke="#101010" d="M1 23h1M0 24h1M6 24h5M0 25h1M2 25h3M11 25h1M0 26h2M12 26h1M16 26h2M23 26h1M13 27h1M18 27h2M24 27h1M14 28h1M20 28h2M25 28h1M15 29h1M22 29h1M25 29h1M15 30h1M22 30h2M16 31h1M22 31h1M24 31h1M26 31h1M16 32h1M22 32h1M25 32h2M16 33h1M23 33h1M17 34h1M23 34h1M17 35h1M17 36h1M17 37h1M16 38h1M16 39h1M15 40h1M15 41h1M14 42h1M13 43h1M13 44h1M12 45h1M12 46h1M11 47h1M11 48h1M10 49h1M10 50h1M10 51h1M9 53h1M9 54h1M9 55h1M9 56h1M4 57h1M9 57h1M4 58h1M5 59h2M88 59h2M93 59h1M7 60h3M82 60h3M91 60h2M9 61h1M85 61h2M91 61h1M9 62h1M77 62h4M87 62h4M10 63h1M81 63h3M10 64h1M70 64h1M84 64h3M10 65h1M71 65h2M77 65h1M81 65h2M87 65h1M11 66h1M73 66h1M78 66h1M83 66h2M87 66h1M11 67h1M74 67h2M79 67h2M85 67h2M11 68h1M76 68h1M81 68h2M86 68h1M12 69h1M77 69h2M83 69h1M85 69h1M12 70h1M78 70h2M84 70h1M13 71h1M29 71h2M80 71h4M13 72h1M31 72h2M43 72h1M14 73h1M33 73h3M43 73h1M15 74h1M37 74h6M16 75h1M17 76h1M70 76h1M18 77h1M67 77h2M19 78h1M65 78h2M20 79h2M63 79h2M22 80h2M61 80h2M24 81h2M58 81h3M26 82h4M53 82h5M30 83h4M46 83h7M34 84h12" />
<path stroke="#b4acb4" d="M58 23h1M56 24h2M56 25h2M51 26h3M57 26h2M49 27h6M48 28h7M49 29h4M42 30h3M42 31h4M43 32h2M39 33h1M42 33h2M31 34h2M35 34h1M30 36h1M34 36h1M14 45h2M13 46h4M22 46h4M12 47h7M20 47h8M12 48h18M11 49h20M11 50h21M12 51h21M12 52h22M12 53h23M12 54h23M12 55h24M13 56h24M6 57h3M13 57h24M5 58h4M13 58h25M7 59h2M14 59h24M15 60h24M16 61h23M83 61h2M18 62h22M81 62h4M19 63h22M19 64h23M20 65h23M20 66h25M21 67h15M40 67h1M42 67h6M21 68h12M42 68h9M21 69h5M28 69h4M43 69h12M71 69h1M21 70h7M29 70h5M43 70h17M67 70h3M20 71h9M31 71h5M44 71h25M20 72h11M33 72h6M44 72h24M21 73h12M37 73h6M44 73h24M22 74h14M43 74h24M23 75h43M24 76h41M25 77h39M26 78h36M28 79h33M31 80h30M34 81h24M36 82h17M45 83h1" />
<path stroke="#eee6ff" d="M59 23h4M58 24h6M58 25h6M59 26h3M40 31h2M39 32h4M40 33h2M33 34h2M30 35h6M31 36h3" />
<path stroke="#d5cdde" d="M91 43h1M91 44h1M91 45h1M91 46h1M91 47h1M90 48h2M90 49h2M90 50h1M11 51h1M89 51h2M11 52h1M89 52h2M10 53h2M89 53h2M10 54h2M88 54h2M10 55h2M88 55h2M10 56h3M10 57h3M10 58h3M10 59h4M10 60h5M10 61h6M11 62h7M11 63h8M11 64h8M11 65h9M12 66h8M12 67h9M36 67h4M12 68h9M33 68h8M73 68h3M13 69h8M32 69h10M72 69h5M13 70h8M34 70h8M70 70h7M14 71h6M36 71h7M69 71h7M15 72h5M39 72h4M68 72h7M15 73h6M68 73h6M16 74h6M67 74h5M17 75h6M66 75h5M18 76h6M65 76h4M19 77h6M64 77h3M21 78h5M62 78h3M22 79h6M61 79h2M24 80h7M26 81h8M30 82h6M34 83h11" />
</svg>