<svg xmlns="http://www.w3.org/2000/svg" viewBox="0 -0.5 96 96" shape-rendering="crispEdges">
<metadata>Made with Pixels to Svg https://codepen.io/shshaw/pen/XbxvNj</metadata>
<path stroke="#088341" d="M28 26h5M75 26h4M28 27h1M32 27h2M73 27h2M28 28h3M76 28h3M29 29h2M75 29h3M30 30h1M75 30h1M74 31h1" />
<path stroke="#101010" d="M27 27h1M79 27h1M27 28h1M79 28h1M28 29h1M78 29h1M29 30h1M76 30h2M30 31h1M75 31h1M31 32h1M74 32h1M32 33h1M73 33h1M33 34h1M71 34h2M34 35h2M70 35h1M36 36h1M68 36h2M28 37h1M37 37h1M29 38h1M38 38h1M67 38h1M74 38h1M30 39h2M64 39h3M73 39h1M32 40h1M62 40h2M71 40h2M33 41h2M60 41h2M70 41h1M35 42h1M68 42h2M66 43h2M28 45h2M30 46h3M74 46h2M33 47h3M71 47h3M41 48h4M53 48h2M67 48h4M37 49h4M55 49h3M68 49h2M34 50h3M38 50h6M58 50h4M70 50h2M75 50h2M29 51h5M35 51h3M44 51h2M62 51h4M72 51h1M33 52h2M66 52h6M76 52h1M32 54h1M67 54h1M76 54h1M32 55h1M68 55h1M75 55h1M31 56h1M43 56h4M68 56h1M73 56h2M31 57h1M47 57h2M30 58h1M50 58h1M30 59h1M51 59h1M30 60h1M43 60h2M52 60h1M30 61h1M41 61h1M45 61h1M30 62h1M37 62h1M37 63h1M46 63h1M53 63h1M31 64h1M38 64h1M46 64h1M53 64h1M31 65h1M38 65h1M53 65h1M32 66h1M39 66h1M45 66h1M53 66h1M32 67h1M40 67h5M33 68h1M52 68h1M34 69h1M52 69h1M35 70h1M50 70h2M37 71h1M49 71h1M52 71h1M64 71h1M39 72h2M46 72h3M52 72h1M63 72h1M38 73h1M42 73h3M47 73h1M52 73h1M63 73h1M38 74h2M46 74h1M53 74h1M64 74h1M40 75h6M53 75h2M61 75h3M55 76h6" />
<path stroke="#39bd62" d="M29 27h3M75 27h4M31 28h2M73 28h3" />
<path stroke="#cd5a5a" d="M34 27h2M51 27h3M36 28h4M49 28h2M40 29h5M48 29h1M45 30h3M46 31h1M45 32h1M28 36h4M32 37h3M67 37h1M70 37h4M35 38h2M65 38h2M68 38h2M37 39h2M63 39h1M39 40h1M40 41h1M41 42h2M58 42h2M28 43h7M43 43h1M56 43h2M27 44h1M44 44h1M54 44h2M67 44h9M45 45h1M53 45h1M76 45h1M31 48h2M71 48h1M30 49h1M72 49h2M29 50h1M74 50h1M46 51h1M74 51h1M76 51h1M31 52h1M47 52h2M77 52h1M31 53h3M49 53h1M73 53h2M77 53h1M68 54h2M72 54h1M74 54h1M70 55h2M41 56h2M72 56h1M39 57h2M49 57h1M68 57h1M38 58h1M49 58h1M68 58h1M38 59h1M68 59h1M37 60h1M42 60h1M68 60h1M37 61h1M52 61h1M68 61h1M41 62h1M45 62h2M53 62h1M67 62h1M31 63h1M67 63h1M67 64h1M45 65h2M67 65h1M66 66h1M33 67h1M52 67h2M66 67h1M66 68h1M51 69h1M53 69h1M65 69h1M36 70h1M65 70h1M36 71h1M38 71h1M38 72h1M41 72h1M45 72h1M41 73h1M45 73h1" />
<path stroke="#de7b7b" d="M54 27h3M68 27h5M57 28h1M64 28h4M58 29h6M57 30h1M38 40h1M64 40h2M37 41h3M62 41h5M37 42h4M60 42h8M37 43h6M58 43h8M36 44h8M56 44h11M36 45h9M54 45h13M33 46h13M52 46h17M36 47h10M52 47h19M34 48h7M55 48h12M33 49h4M58 49h10M31 50h3M62 50h8M66 51h6M54 69h1M62 74h1" />
<path stroke="#ffdede" d="M33 28h3M51 28h6M68 28h5M35 29h5M49 29h9M64 29h7M38 30h7M48 30h3M56 30h1M58 30h9M41 31h5M47 31h1M59 31h4M71 49h1M72 50h2M38 51h2M35 52h6M34 53h7M75 53h2M33 54h7M65 54h1M75 54h1M33 55h6M65 55h3M34 56h3M66 56h2M41 57h2M66 57h2M39 58h4M66 58h2M39 59h3M66 59h2M38 60h4M66 60h2M38 61h2M65 61h3M65 62h2M65 63h2M65 64h2M65 65h2M64 66h2M64 67h2M64 68h2M64 69h1" />
<path stroke="#f6b4b4" d="M31 29h4M71 29h4M31 30h7M51 30h5M67 30h8M31 31h10M48 31h11M63 31h11M32 32h13M46 32h28M33 33h40M34 34h37M36 35h34M37 36h31M38 37h29M39 38h26M39 39h24M40 40h22M41 41h19M43 42h15M44 43h12M45 44h9M46 45h7M46 46h6M46 47h6M45 48h8M41 49h14M70 49h1M37 50h1M44 50h14M34 51h1M40 51h4M47 51h15M73 51h1M75 51h1M32 52h1M41 52h6M49 52h17M72 52h4M41 53h8M50 53h23M40 54h25M66 54h1M70 54h2M73 54h1M39 55h26M72 55h3M32 56h2M37 56h4M47 56h19M32 57h7M43 57h4M50 57h16M31 58h7M43 58h6M51 58h15M31 59h7M42 59h9M52 59h14M31 60h6M45 60h7M53 60h13M31 61h6M40 61h1M42 61h3M46 61h6M53 61h12M31 62h6M38 62h3M42 62h3M47 62h6M54 62h11M32 63h5M38 63h8M47 63h6M54 63h11M32 64h6M39 64h7M47 64h6M54 64h11M32 65h6M39 65h6M47 65h6M54 65h11M33 66h6M40 66h5M46 66h7M54 66h10M34 67h6M45 67h7M54 67h10M34 68h18M53 68h11M35 69h16M55 69h9M37 70h13M52 70h13M39 71h10M53 71h11M42 72h3M53 72h10M39 73h2M46 73h1M53 73h10M40 74h6M54 74h8M55 75h6" />
<path stroke="#ee9c9c" d="M29 37h3M30 38h5M70 38h4M32 39h5M67 39h6M33 40h5M66 40h5M35 41h2M67 41h3M36 42h1M35 43h2M28 44h8M30 45h6M67 45h9M69 46h5M33 48h1M31 49h2M30 50h1" />
<path stroke="#ffffff" d="M63 74h1" />
</svg>