<svg xmlns="http://www.w3.org/2000/svg" viewBox="0 -0.5 96 96" shape-rendering="crispEdges">
<metadata>Made with Pixels to Svg https://codepen.io/shshaw/pen/XbxvNj</metadata>
<path stroke="#4ab4c5" d="M47 29h3M50 30h1M51 31h1M45 32h1M52 32h1M44 33h1M52 33h1M53 34h1M53 35h1M54 36h1M54 37h1M55 38h1M55 39h1M56 41h1M57 43h1M36 49h1M35 51h1M37 52h1M37 53h1M37 54h1M60 54h1M36 55h1M42 55h1M56 55h1M60 55h1M36 56h1M42 56h1M49 56h1M56 56h1M61 56h1M35 57h2M42 57h1M49 57h1M56 57h1M61 57h1M36 58h1M41 58h1M49 58h1M57 58h1M61 58h1M37 59h1M41 59h1M50 59h1M57 59h1M60 59h1M40 60h2M50 60h1M56 60h1M58 60h1M43 61h1M50 61h1M54 61h1" />
<path stroke="#107b8b" d="M46 30h1M45 31h1M44 32h1M43 34h1M56 40h1M57 42h1M58 44h1M58 45h1M59 46h1M59 47h1M60 48h1M60 49h1M61 50h1M61 51h1M62 52h1M62 53h1M63 54h1M63 55h1M63 56h1M62 57h1M35 58h1M62 58h1M39 60h1M57 60h1M42 61h1" />
<path stroke="#83e6ff" d="M47 30h1M46 31h3M46 32h4M45 33h6M44 34h2M48 34h3M43 35h2M49 35h3M43 36h2M49 36h3M42 37h3M49 37h4M42 38h4M48 38h5M41 39h2M45 39h1M47 39h6M41 40h1M45 40h4M50 40h4M40 41h1M45 41h3M51 41h3M40 42h1M45 42h2M52 42h2M39 43h3M44 43h3M51 43h4M39 44h3M43 44h4M50 44h5M38 45h10M49 45h6M38 46h17M37 47h19M37 48h19M37 49h19M36 50h20M36 51h20M35 52h2M38 52h19M59 52h1M35 53h2M38 53h19M59 53h1M34 54h3M38 54h19M34 55h2M37 55h5M43 55h13M57 55h1M34 56h2M37 56h5M43 56h6M50 56h6M57 56h1M37 57h5M43 57h6M50 57h6M57 57h1M37 58h4M42 58h7M50 58h7M38 59h3M42 59h8M51 59h6M58 59h2M42 60h8M51 60h5M44 61h6M51 61h3" />
<path stroke="#acf6ff" d="M48 30h2M49 31h2M50 32h2M51 33h1M51 34h2M52 35h1M52 36h2M53 37h1M53 38h2M53 39h2M54 40h2M54 41h2M54 42h3M55 43h2M55 44h3M55 45h3M55 46h4M56 47h3M56 48h4M56 49h4M56 50h5M56 51h5M57 52h2M60 52h2M57 53h2M60 53h2M57 54h3M61 54h2M58 55h2M61 55h2M58 56h3M62 56h1M58 57h3M58 58h3" />
<path stroke="#ffde31" d="M46 34h2M46 35h3M45 36h4M45 37h4M46 38h2M43 39h1M46 39h1M42 40h3M49 40h1M41 41h4M48 41h3M42 42h3M47 42h5M42 43h2M47 43h4M42 44h1M47 44h3M48 45h1" />
<path stroke="#292020" d="M42 35h1M42 36h1M41 37h1M41 38h1M40 39h1M40 40h1M39 41h1M39 42h1M38 43h1M38 44h1M37 45h1M37 46h1M36 47h1M36 48h1M35 49h1M35 50h1M34 51h1M34 52h1M34 53h1M33 54h1M33 55h1M33 56h1M34 57h1M34 58h1M35 59h2M61 59h1M37 60h2M59 60h2M39 61h3M56 61h3M42 62h13M57 62h1M58 63h1M37 64h1M42 64h2M50 64h1M58 64h1M38 65h4M51 65h2M57 65h1M53 66h4" />
<path stroke="#de9c00" d="M45 35h1M44 39h1M41 42h1" />
<path stroke="#393131" d="M37 61h1M55 61h1M36 62h1M36 63h1M44 63h1M50 63h1M41 64h1" />
<path stroke="#524a4a" d="M38 61h1M37 62h5M55 62h2M37 63h7M51 63h7M38 64h3M51 64h7M53 65h4" />
</svg>