<svg xmlns="http://www.w3.org/2000/svg" viewBox="0 -0.5 96 96" shape-rendering="crispEdges">
<metadata>Made with Pixels to Svg https://codepen.io/shshaw/pen/XbxvNj</metadata>
<path stroke="#52525a" d="M22 21h4M23 22h1M26 22h3M77 22h2M24 23h1M29 23h2M76 23h3M24 24h2M31 24h3M76 24h2M25 25h2M34 25h2M75 25h2M24 26h1M26 26h2M35 26h3M75 26h2M24 27h2M27 27h2M50 27h3M72 27h2M75 27h1M24 28h2M28 28h2M36 28h1M51 28h1M70 28h3M74 28h1M24 29h3M29 29h2M35 29h1M50 29h2M67 29h5M26 30h1M30 30h2M34 30h1M48 30h3M61 30h1M64 30h7M27 31h1M30 31h4M41 31h1M46 31h3M60 31h10M31 32h2M42 32h4M60 32h9M59 33h8M31 34h1M59 34h7M59 35h6M70 35h1M38 36h3M59 36h5M68 36h2M37 37h1M43 37h1M59 37h3M67 37h3M44 38h1M60 38h1M66 38h3M65 39h4M40 40h3M45 40h1M64 40h4M38 41h6M45 41h1M65 41h2M35 42h10M35 43h9M36 44h7M29 45h1M34 45h1M36 45h6M30 46h1M34 46h1M36 46h5M35 47h1M37 47h3M69 49h3M67 50h6M67 51h6M48 52h5M68 52h5M41 53h1M46 53h8M55 53h1M70 53h2M44 54h11M29 55h1M44 55h11M41 56h1M43 56h11M31 57h2M41 57h1M43 57h11M26 58h1M31 58h3M42 58h12M30 59h1M32 59h3M42 59h11M67 59h1M32 60h3M43 60h10M32 61h3M43 61h9M62 61h1M32 62h3M43 62h9M62 62h1M69 62h1M30 63h1M33 63h2M43 63h8M67 63h2M30 64h1M44 64h6M66 64h3M30 65h1M44 65h5M31 66h1M45 66h3M31 67h1M60 69h1M36 71h1M53 71h2M47 73h1M48 74h1" />
<path stroke="#292939" d="M78 21h2M22 22h1M75 22h2M79 22h1M22 23h2M73 23h2M79 23h1M22 24h2M71 24h2M78 24h1M23 25h2M69 25h2M77 25h2M23 26h1M25 26h1M67 26h2M74 26h1M77 26h1M23 27h1M26 27h1M37 27h2M48 27h2M65 27h2M74 27h1M76 27h2M23 28h1M26 28h2M47 28h4M63 28h2M73 28h1M75 28h3M23 29h1M27 29h2M45 29h5M61 29h2M72 29h5M24 30h2M27 30h3M44 30h4M60 30h1M71 30h6M24 31h3M28 31h2M43 31h3M59 31h1M70 31h6M25 32h6M59 32h1M69 32h7M25 33h7M58 33h1M67 33h8M25 34h6M58 34h1M66 34h9M26 35h5M58 35h1M65 35h5M71 35h3M26 36h5M41 36h2M58 36h1M64 36h4M70 36h4M27 37h3M40 37h3M58 37h1M62 37h5M70 37h4M27 38h1M39 38h5M59 38h1M61 38h5M69 38h4M38 39h7M61 39h4M69 39h4M37 40h3M43 40h2M62 40h2M68 40h4M73 40h1M36 41h2M44 41h1M63 41h2M67 41h4M73 41h1M65 42h3M74 42h1M74 43h1M74 44h1M74 45h1M26 46h1M53 46h2M74 46h1M26 47h1M30 47h2M50 47h6M68 47h5M74 47h1M25 48h1M29 48h4M47 48h9M67 48h7M25 49h1M29 49h5M46 49h10M67 49h2M72 49h2M25 50h1M29 50h5M44 50h12M73 50h1M26 51h1M29 51h6M43 51h13M73 51h1M26 52h1M29 52h6M42 52h6M53 52h3M73 52h1M26 53h1M29 53h7M42 53h4M54 53h1M72 53h1M26 54h1M29 54h7M41 54h3M73 54h1M26 55h1M30 55h6M41 55h3M74 55h1M26 56h1M30 56h6M42 56h1M74 56h1M26 57h1M30 57h1M33 57h2M42 57h1M73 57h1M30 58h1M34 58h1M73 58h1M27 59h1M31 59h1M64 59h3M72 59h1M27 60h1M31 60h1M63 60h9M28 61h1M63 61h8M29 62h1M63 62h6M70 62h1M63 63h4M69 63h1M65 64h1M69 64h1M68 65h1M68 66h1M67 67h1M32 68h1M56 68h2M66 68h1M33 69h2M54 69h6M64 69h2M35 70h1M53 70h11M37 71h3M55 71h7M40 72h4M57 72h2M44 73h3M54 73h3M49 74h5" />
<path stroke="#a4a4ac" d="M24 22h2M25 23h4M26 24h4M27 25h4M28 26h1M69 26h3M67 27h4M66 28h3M64 29h2" />
<path stroke="#7b7b83" d="M75 23h1M30 24h1M73 24h3M31 25h3M71 25h4M29 26h6M72 26h2M29 27h8M71 27h1M30 28h6M65 28h1M69 28h1M31 29h4M63 29h1M66 29h1M32 30h2M62 30h2M72 40h1" />
<path stroke="#7b8b94" d="M42 26h5M54 26h3M39 27h3M47 27h1M53 27h1M57 27h3M37 28h2M45 28h2M52 28h1M60 28h2M43 29h2M42 30h2M42 31h1M49 31h1M46 32h1M38 37h2M36 38h3M35 39h3M60 39h1M34 40h3M33 41h3M33 42h2M45 42h1M64 42h1M68 42h1M33 43h2M44 43h1M34 44h2M43 44h1M35 45h1M42 45h1M28 46h2M35 46h1M41 46h1M52 46h1M55 46h1M28 47h2M36 47h1M49 47h1M28 48h1M36 48h3M56 48h1M34 50h1M42 51h1M35 52h1M55 54h1M29 56h1M54 56h1M35 57h1M27 58h1M35 58h1M41 58h1M53 59h1M68 59h1M42 60h1M31 61h1M42 61h1M52 61h1M62 63h1M34 64h1M43 64h1M64 64h1M55 68h1M58 68h1M61 69h1M52 70h1M40 71h1M52 71h1M44 72h1M56 72h1M48 73h1M53 73h1" />
<path stroke="#deeeee" d="M42 27h4M54 27h3M40 28h4M55 28h5M57 29h3M58 30h1M72 41h1M72 42h2M72 43h2M72 44h2M73 45h1M72 55h2M72 56h2M71 57h2M71 58h1" />
<path stroke="#9cb4b4" d="M46 27h1M44 28h1M42 29h1M58 38h1M58 39h2M58 40h4M59 41h4M71 41h1M61 42h3M69 42h3M27 43h1M61 43h10M28 44h1M62 44h9M28 45h1M51 45h5M62 45h9M27 46h1M49 46h3M56 46h1M62 46h11M27 47h1M47 47h2M56 47h1M63 47h5M73 47h1M27 48h1M45 48h2M66 48h1M28 49h1M44 49h2M66 49h1M42 50h2M41 51h1M40 52h2M67 52h1M40 53h1M69 53h1M40 54h1M72 54h1M36 55h1M40 55h1M36 56h1M40 56h1M36 57h1M61 57h4M36 58h1M60 58h8M35 59h3M41 59h1M56 59h8M69 59h2M29 60h2M35 60h4M41 60h1M55 60h8M29 61h2M35 61h7M55 61h7M30 62h2M35 62h8M54 62h8M31 63h2M35 63h8M53 63h9M31 64h3M35 64h8M52 64h12M31 65h13M50 65h15M32 66h13M48 66h18M32 67h33M33 68h22M59 68h6M35 69h19M62 69h2M36 70h16M41 71h11M45 72h11M49 73h4" />
<path stroke="#cddede" d="M39 28h1M53 28h2M36 29h6M52 29h5M60 29h1M35 30h7M51 30h7M59 30h1M34 31h7M50 31h9M33 32h9M47 32h12M32 33h26M32 34h26M31 35h27M31 36h7M43 36h15M30 37h7M44 37h14M29 38h7M45 38h13M28 39h7M45 39h13M28 40h6M46 40h12M27 41h6M46 41h13M27 42h6M46 42h15M28 43h5M45 43h16M71 43h1M29 44h5M44 44h18M71 44h1M30 45h4M43 45h8M56 45h6M71 45h2M31 46h3M42 46h7M57 46h5M73 46h1M32 47h3M40 47h7M57 47h6M26 48h1M33 48h3M39 48h6M57 48h9M26 49h2M34 49h10M56 49h10M26 50h3M35 50h7M56 50h11M27 51h2M35 51h6M56 51h11M27 52h2M36 52h4M56 52h11M27 53h2M36 53h4M56 53h13M27 54h2M36 54h4M56 54h16M27 55h2M37 55h3M55 55h17M27 56h2M37 56h3M55 56h17M27 57h3M37 57h4M54 57h7M65 57h6M28 58h2M37 58h4M54 58h6M68 58h3M72 58h1M28 59h2M38 59h3M54 59h2M71 59h1M28 60h1M39 60h2M53 60h2M53 61h2M52 62h2M51 63h2M50 64h2M49 65h1M65 65h3M66 66h2M65 67h2M65 68h1" />
<path stroke="#52626a" d="M28 38h1M27 39h1M27 40h1M26 41h1M26 42h1M26 43h1M27 44h1M27 45h1" />
</svg>