<svg xmlns="http://www.w3.org/2000/svg" viewBox="0 -0.5 96 96" shape-rendering="crispEdges">
<metadata>Made with Pixels to Svg https://codepen.io/shshaw/pen/XbxvNj</metadata>
<path stroke="#415a29" d="M33 18h1M32 19h1M28 21h2M59 21h1M27 22h1M30 22h1M47 22h1M52 22h1M65 22h1M25 23h2M45 23h2M52 23h1M58 23h1M65 23h1M24 24h1M27 24h1M44 24h1M58 24h1M64 24h1M23 25h1M44 25h1M64 25h1M23 26h1M44 26h1M48 26h1M63 26h1M24 27h1M23 28h2M65 28h1M22 29h1M65 29h1M22 30h1M43 30h1M23 31h2M42 31h1M22 32h1M41 32h1M22 33h1M63 33h2M44 34h1M42 35h1M22 36h4M62 36h1M29 38h1M35 38h1M45 38h1M44 39h1M31 40h1M43 40h1M48 40h1M54 40h1M58 40h1M46 41h1M48 41h1M55 41h1M46 42h1M48 42h1M53 42h1M72 48h1M73 49h1M73 50h1M58 51h1M62 51h1M67 51h1M73 51h1M62 52h1M68 52h1M61 53h1M52 54h1M61 54h1M49 55h1M53 55h1M46 56h1M54 56h1M59 56h1M23 57h1M42 57h1M44 57h1M55 57h1M59 57h1M37 58h1M44 58h1M46 58h1M55 58h1M59 58h1M24 59h1M44 59h1M56 59h1M58 59h1M23 60h1M27 60h1M45 60h1M56 60h1M58 60h1M61 60h1M23 61h1M29 61h1M45 61h1M57 61h1M59 61h2M23 62h1M32 62h1M46 62h2M57 62h2M22 63h1M57 63h1M64 63h1M22 64h1M33 64h1M40 64h1M57 64h1M65 64h6M22 65h1M32 65h1M45 65h2M58 65h1M21 66h1M23 66h3M31 66h2M58 66h1M26 67h5M58 67h1M48 68h1M49 69h7" />
<path stroke="#628b4a" d="M34 18h1M35 19h1M56 19h2M32 20h1M36 20h1M38 20h1M48 20h2M53 20h1M55 20h1M58 20h1M60 20h1M62 20h3M31 21h2M37 21h1M39 21h1M41 21h2M47 21h1M50 21h1M52 21h1M54 21h2M58 21h1M61 21h2M65 21h1M33 22h1M37 22h1M40 22h1M43 22h1M51 22h1M54 22h1M58 22h2M61 22h1M27 23h1M31 23h1M40 23h1M43 23h1M28 24h1M43 24h1M48 24h1M28 25h2M47 25h1M62 25h2M65 25h1M49 26h1M60 26h3M66 26h1M25 27h1M45 27h1M49 27h1M59 27h4M66 27h1M37 28h1M46 28h1M59 28h1M61 28h1M36 29h1M38 29h1M40 29h1M42 29h1M60 29h1M62 29h1M28 30h1M36 30h2M39 30h1M41 30h2M59 30h1M61 30h6M25 31h1M27 31h1M29 31h1M32 31h1M34 31h1M36 31h6M43 31h1M60 31h7M24 32h3M28 32h1M33 32h1M35 32h6M42 32h1M53 32h1M60 32h5M23 33h7M31 33h2M34 33h7M46 33h2M52 33h3M56 33h1M60 33h3M21 34h10M32 34h8M45 34h2M48 34h1M50 34h1M52 34h2M55 34h1M59 34h5M21 35h18M44 35h4M49 35h1M51 35h4M56 35h1M58 35h7M26 36h12M43 36h19M63 36h2M25 37h12M43 37h2M46 37h15M24 38h5M30 38h5M46 38h13M24 39h3M29 39h5M45 39h12M44 40h4M49 40h5M55 40h3M44 41h2M49 41h5M56 41h2M50 42h3M50 43h3" />
<path stroke="#8bbd73" d="M33 19h2M33 20h3M56 20h2M33 21h4M38 21h1M48 21h2M53 21h1M56 21h2M60 21h1M63 21h2M28 22h2M31 22h2M34 22h3M38 22h2M41 22h2M48 22h3M53 22h1M55 22h3M60 22h1M62 22h3M28 23h3M32 23h8M41 23h2M48 23h4M53 23h5M59 23h6M25 24h2M29 24h14M45 24h2M49 24h9M59 24h5M24 25h4M30 25h14M45 25h2M49 25h13M24 26h19M45 26h3M50 26h10M64 26h2M26 27h16M43 27h2M46 27h3M50 27h9M63 27h3M25 28h12M38 28h4M43 28h3M47 28h12M60 28h1M62 28h3M23 29h13M37 29h1M39 29h1M41 29h1M44 29h16M61 29h1M63 29h2M23 30h5M29 30h7M38 30h1M40 30h1M45 30h14M60 30h1M26 31h1M28 31h1M30 31h2M33 31h1M35 31h1M44 31h16M27 32h1M29 32h4M34 32h1M43 32h10M54 32h6M30 33h1M33 33h1M42 33h4M48 33h4M55 33h1M57 33h3M31 34h1M42 34h2M47 34h1M49 34h1M51 34h1M54 34h1M56 34h3M48 35h1M50 35h1M55 35h1M57 35h1" />
<path stroke="#101018" d="M47 23h1M47 24h1M48 25h1M43 26h1M42 27h1M42 28h1M43 29h1M66 29h1M44 30h1M67 30h1M67 31h1M23 32h1M65 32h2M21 33h1M41 33h1M20 34h1M41 34h1M64 34h1M20 35h1M39 35h1M43 35h1M65 35h1M21 36h1M38 36h1M42 36h1M65 36h1M24 37h1M37 37h1M42 37h1M45 37h1M61 37h1M63 37h2M23 38h1M37 38h1M41 38h1M43 38h2M59 38h2M23 39h1M27 39h2M34 39h1M36 39h1M40 39h1M57 39h2M24 40h3M29 40h2M32 40h2M36 40h1M38 40h1M31 41h1M37 41h1M43 41h1M47 41h1M54 41h1M58 41h1M31 42h1M44 42h2M49 42h1M54 42h1M56 42h2M48 43h2M53 43h1M46 44h1M50 44h3M43 45h2M71 47h1M71 49h1M72 51h1M21 54h1M21 55h1M61 55h1M22 56h1M61 56h1M61 57h1M24 58h1M62 58h1M25 59h1M46 59h1M62 59h1M26 60h1M46 60h1M62 60h1M28 61h1M46 61h1M63 61h1M30 62h2M63 62h1M33 63h3M47 63h1M63 63h1M36 64h4M47 64h1M41 65h4M47 65h1M47 66h1M62 66h1M33 67h1M47 67h1M62 67h1M75 67h1M21 68h1M33 68h1M47 68h1M62 68h1M75 68h1M21 69h1M34 69h1M63 69h1M73 69h2M21 70h1M34 70h1M46 70h1M65 70h7M22 71h2M32 71h2M46 71h1M24 72h7M46 72h1M60 72h1M46 73h1M60 73h1M46 74h1M60 74h1M47 75h2M58 75h2M50 76h7" />
<path stroke="#29525a" d="M65 33h1M40 34h1M66 34h1M67 35h1M66 36h2M67 37h1M36 38h1M42 38h1M68 38h1M35 39h1M39 39h1M69 39h1M34 40h1M39 40h1M69 40h1M30 41h1M33 41h1M35 41h1M70 41h1M30 42h1M32 42h1M35 42h2M70 42h1M29 43h1M31 43h1M35 43h1M44 43h1M47 43h1M71 43h1M29 44h1M43 44h1M45 44h1M71 44h1M28 45h1M66 45h4M72 45h1M28 46h1M64 46h2M69 46h2M72 46h1M28 47h1M62 47h2M72 47h1M27 48h1M60 48h2M27 49h1M59 49h2M70 49h1M27 50h1M57 50h2M71 50h1M26 51h1M56 51h1M25 52h1M54 52h2M72 52h1M22 53h2M52 53h2M71 53h1M49 54h3M70 54h1M22 55h1M46 55h3M23 56h2M42 56h4M25 57h3M37 57h5M28 58h9M73 62h1M73 63h1M63 64h1M74 64h1M62 65h1M74 65h1M74 66h1M21 67h1M58 68h1M73 68h1M32 69h1M46 69h2M59 69h1M64 69h1M72 69h1M32 70h1M59 70h1M59 71h1M31 72h1M58 73h1M58 74h1M49 75h1M57 75h1" />
<path stroke="#5aac94" d="M65 34h1M41 35h1M66 35h1M40 36h2M39 37h2M66 37h1M67 38h1M42 39h2M59 39h1M61 39h1M67 39h1M35 40h1M40 40h2M62 40h1M68 40h1M34 41h1M38 41h5M62 41h1M68 41h1M33 42h2M37 42h6M55 42h1M63 42h1M68 42h1M30 43h1M32 43h3M36 43h8M54 43h2M63 43h1M66 43h4M30 44h13M47 44h1M53 44h3M64 44h2M70 44h1M29 45h14M45 45h4M50 45h5M62 45h2M71 45h1M29 46h21M51 46h2M60 46h2M29 47h22M58 47h2M28 48h2M34 48h17M52 48h1M56 48h2M28 49h1M36 49h16M54 49h2M58 49h1M28 50h1M38 50h14M56 50h1M67 50h1M37 51h1M39 51h12M53 51h2M27 52h1M36 52h3M40 52h8M51 52h3M71 52h1M28 53h2M33 53h7M41 53h4M48 53h4M70 53h1M25 54h1M31 54h9M45 54h4M23 55h2M28 55h3M32 55h4M41 55h5M25 56h3M36 56h6M28 57h9M72 63h1M64 64h1M71 64h1M63 65h8M22 66h1M63 66h9M22 67h4M31 67h2M63 67h9M73 67h1M22 68h11M57 68h1M63 68h10M22 69h10M48 69h1M56 69h1M65 69h7M22 70h10M47 70h9M24 71h8M47 71h9M47 72h10M58 72h1M47 73h10M47 74h11M50 75h7" />
<path stroke="#41737b" d="M40 35h1M39 36h1M38 37h1M41 37h1M38 38h3M37 39h2M41 39h1M37 40h1M42 40h1M32 41h1M36 41h1M43 42h1M47 42h1M45 43h2M44 44h1M48 44h2M49 45h1M50 46h1M51 47h1M30 48h4M51 48h1M29 49h1M34 49h2M52 49h1M36 50h2M52 50h2M27 51h1M38 51h1M51 51h2M55 51h1M26 52h1M39 52h1M48 52h3M24 53h1M40 53h1M45 53h3M24 54h1M30 54h1M40 54h5M25 55h3M31 55h1M36 55h5M28 56h8" />
<path stroke="#83cdb4" d="M62 37h1M65 37h1M61 38h3M60 39h1M62 39h1M68 39h1M59 40h1M69 41h1M69 42h1M56 43h1M70 43h1M56 44h1M63 44h1M66 44h4M55 45h3M61 45h1M64 45h2M70 45h1M53 46h5M62 46h2M71 46h1M52 47h6M60 47h2M53 48h3M58 48h2M30 49h4M53 49h1M56 49h2M68 49h1M29 50h7M54 50h2M28 51h9M68 51h1M28 52h8M69 52h2M25 53h3M30 53h3M22 54h2M26 54h4M73 64h1M71 65h1M72 67h1M57 69h2M56 70h3M56 71h3M57 72h1M57 73h1" />
<path stroke="#a4e6cd" d="M64 38h3M63 39h2M60 40h2M63 40h3M67 40h1M59 41h3M63 41h5M58 42h5M64 42h4M57 43h6M64 43h2M57 44h6M58 45h3M58 46h2M69 49h1M68 50h2M69 51h2M72 64h1M72 65h2M72 66h2" />
<path stroke="#ffffff" d="M65 39h2M66 40h1M70 47h1M70 48h1M70 50h1M71 51h1M59 73h1M59 74h1" />
<path stroke="#8b7b41" d="M66 46h3M64 47h1M68 47h1M62 48h1M68 48h2M61 49h1M67 49h1M72 49h1M59 50h1M63 50h1M66 50h1M72 50h1M57 51h1M56 52h1M58 52h2M54 53h2M59 53h1M62 53h2M69 53h1M53 54h4M59 54h1M62 54h3M69 54h1M50 55h3M54 55h4M59 55h1M62 55h3M70 55h1M47 56h5M55 56h4M60 56h1M62 56h4M70 56h1M24 57h1M43 57h1M45 57h6M56 57h3M60 57h1M62 57h5M71 57h1M25 58h3M38 58h6M45 58h1M47 58h4M56 58h3M60 58h2M63 58h4M71 58h1M26 59h18M45 59h1M47 59h5M57 59h1M59 59h3M63 59h5M72 59h1M24 60h2M28 60h17M47 60h5M57 60h1M59 60h2M63 60h5M72 60h1M24 61h4M30 61h15M47 61h6M58 61h1M64 61h5M73 61h1M24 62h6M33 62h13M48 62h5M64 62h5M23 63h10M36 63h11M48 63h6M65 63h5M23 64h10M41 64h6M48 64h6M23 65h9M48 65h7M26 66h5M48 66h7M48 67h8M49 68h7" />
<path stroke="#eef641" d="M65 47h2M69 47h1M64 48h4M63 49h1M66 49h1M62 50h1M64 50h2M60 51h2M63 51h4M60 52h2M64 52h4M60 53h1M65 53h4M65 54h4M66 55h4M53 56h1M67 56h3M52 57h3M67 57h4M52 58h3M68 58h3M53 59h3M68 59h4M53 60h3M69 60h3M54 61h2M69 61h4M55 62h1M70 62h2M55 63h1M71 63h1" />
<path stroke="#c5c539" d="M67 47h1M63 48h1M62 49h1M64 49h2M60 50h2M59 51h1M57 52h1M63 52h1M56 53h3M64 53h1M57 54h2M60 54h1M58 55h1M60 55h1M65 55h1M52 56h1M66 56h1M51 57h1M51 58h1M67 58h1M52 59h1M52 60h1M68 60h1M53 61h1M56 61h1M53 62h2M56 62h1M69 62h1M72 62h1M54 63h1M56 63h1M70 63h1M54 64h3M55 65h3M55 66h3M56 67h2M56 68h1" />
<path stroke="#949494" d="M71 48h1M33 69h1M33 70h1M59 72h1" />
<path stroke="#d5d5d5" d="M74 67h1M74 68h1" />
</svg>