<svg xmlns="http://www.w3.org/2000/svg" viewBox="0 -0.5 96 96" shape-rendering="crispEdges">
<metadata>Made with Pixels to Svg https://codepen.io/shshaw/pen/XbxvNj</metadata>
<path stroke="#624131" d="M42 29h1M45 29h1M41 30h1M40 31h1M40 32h1M41 33h3M41 34h3M45 34h1M43 35h2M50 35h2M52 36h2M54 37h1M40 38h1M50 38h1M55 38h1M40 39h3M49 39h4M56 39h1M39 40h13M39 41h12M39 42h11M39 43h11M39 44h11M55 44h1M60 44h2M38 45h12M55 45h1M37 46h14M36 47h16M57 47h1M30 48h3M40 48h13M32 49h1M41 49h17M33 50h1M41 50h1M44 50h3M48 50h4M53 50h2M57 50h2M45 51h1M49 51h2M54 51h1M57 52h1M36 53h2M50 53h1M58 53h1M35 54h3M44 54h5M58 54h1M31 55h2M35 55h3M42 55h2M47 55h6M32 56h2M35 56h3M42 56h5M48 56h4M33 57h5M44 57h11M31 58h2M35 58h3M43 58h1M47 58h7M32 59h3M43 59h10M55 59h2M34 60h2M44 60h12M46 61h8M48 62h4M45 63h3" />
<path stroke="#000000" d="M43 29h2M40 33h1M44 33h1M46 34h4M42 35h1M41 36h1M40 37h1M39 38h1M39 39h1M38 40h1M38 41h1M55 41h1M38 42h1M54 42h1M56 42h1M38 43h1M54 43h1M56 43h1M54 44h1M56 44h1M61 45h2M58 46h1M38 48h2M57 48h1M33 49h4M28 50h1M37 50h1M42 50h2M47 50h1M52 50h1M55 50h1M28 51h1M37 51h1M41 51h1M46 51h1M51 51h1M55 51h1M58 51h1M28 52h1M38 52h1M45 52h1M49 52h2M55 52h1M29 53h1M38 53h1M29 54h1M38 54h1M30 55h1M38 55h1M41 55h1M58 55h1M31 56h1M38 56h1M41 56h1M58 56h1M32 57h1M38 57h1M41 57h1M58 57h1M30 58h1M33 58h2M38 58h1M42 58h1M57 58h1M35 59h2M42 59h1M57 59h1M43 60h1M56 60h1M37 61h1M44 61h2M54 61h2M38 62h3M46 62h2M52 62h2M41 63h2M48 63h4M39 64h1M45 64h1M47 64h1M53 65h1M39 66h4M44 66h1M47 66h3M53 66h1M44 67h2M51 67h2" />
<path stroke="#8b624a" d="M42 30h2M41 31h2M41 32h2M44 34h1M45 35h5M42 36h8M41 37h10M41 38h9M51 38h1M43 39h6M53 39h1M52 40h1M56 40h1M57 41h1M50 42h1M57 42h1M50 45h1M60 45h1M29 50h1M34 50h3M29 51h2M34 51h3M29 52h2M34 52h4M30 53h2M34 53h2M30 54h2" />
<path stroke="#391818" d="M44 30h1M43 31h1M43 32h1M40 34h1M41 35h1M38 44h1M37 45h1M36 46h1M35 47h1M36 48h2M29 49h1M38 49h1M40 49h1M58 49h1M40 50h1M56 50h1M59 50h1M40 51h1M44 51h1M48 51h1M53 51h1M57 51h1M59 51h1M54 52h1M43 53h6M42 54h2M49 54h2M44 55h3M30 56h1M47 56h1M30 57h2M42 57h2M44 58h3M31 59h1M37 59h1M32 60h2M36 60h1M34 61h3M43 63h2" />
<path stroke="#ffffff" d="M50 36h2M52 37h2M53 38h1M31 50h2M31 51h2M32 52h2M32 53h2M33 54h1" />
<path stroke="#e6d5ac" d="M51 37h1M54 41h1M53 48h1M30 49h2M30 50h1M33 51h1M31 52h1M32 54h1M34 54h1M33 55h2M34 56h1" />
<path stroke="#eeeed5" d="M52 38h1M54 38h1M54 39h2M53 40h3M51 41h3M56 41h1M51 42h3M55 42h1M50 43h4M55 43h1M57 43h1M50 44h4M57 44h1M51 45h4M56 45h1M51 46h6M52 47h5M54 48h3" />
<path stroke="#9c6220" d="M58 43h2M59 46h1M40 63h1M40 64h1M42 64h1M48 64h2M52 64h1M38 65h1M43 65h3M50 65h3M38 66h1M43 66h1M50 66h1M46 67h1" />
<path stroke="#ffc520" d="M58 44h2M58 45h2M47 65h3M45 66h2" />
<path stroke="#d59c00" d="M57 45h1M57 46h1M41 64h1M46 64h1M50 64h2M39 65h4M46 65h1M51 66h2" />
<path stroke="#a47352" d="M39 49h1M38 50h2M42 51h2M47 51h1M52 51h1M56 51h1M42 52h3M46 52h3M51 52h1M56 52h1M42 53h1M49 53h1M54 53h4M53 54h5M39 55h2M53 55h5M39 56h2M52 56h6M39 57h2M55 57h3M39 58h3M54 58h3M38 59h4M53 59h2M37 60h6M38 61h6M41 62h5" />
<path stroke="#c59c83" d="M38 51h2M39 52h3M52 52h2M39 53h3M51 53h3M39 54h3M51 54h2" />
</svg>