<svg xmlns="http://www.w3.org/2000/svg" viewBox="0 -0.5 96 96" shape-rendering="crispEdges">
<metadata>Made with Pixels to Svg https://codepen.io/shshaw/pen/XbxvNj</metadata>
<path stroke="#83526a" d="M60 16h3M56 17h2M59 17h1M63 17h1M55 18h1M58 18h1M64 18h2M54 19h1M66 19h1M54 20h1M66 20h1M53 21h1M67 21h1M67 22h1M64 23h1M54 24h1M65 24h1M65 25h1M55 26h1M60 26h1M61 27h1M37 32h3M41 32h2M40 33h1M43 33h1M44 34h1M44 59h1M53 66h1M44 67h2M51 68h1M45 69h1M50 69h1M39 70h1M41 70h1M48 71h1" />
<path stroke="#f6aca4" d="M60 17h2M56 18h2M60 18h3M55 19h7M63 19h2M55 20h3M59 20h7M56 21h2M60 21h2M63 21h3M64 22h1M39 33h1M41 33h2M38 34h6M38 35h7M39 36h1M41 36h2M46 60h3M47 61h3M51 61h2M48 62h1M52 62h2M54 64h1M54 65h1M51 70h1" />
<path stroke="#d57b9c" d="M62 17h1M59 18h1M63 18h1M62 19h1M65 19h1M58 20h1M54 21h2M58 21h2M62 21h1M66 21h1M54 22h10M65 22h2M54 23h10M65 23h2M55 24h10M55 25h10M56 26h4M61 26h4M57 27h3M62 27h2M37 33h2M36 34h2M36 35h2M37 36h2M40 36h1M35 37h6M35 38h4M36 39h2M35 40h2M36 41h1M45 59h3M49 60h1M51 60h2M50 61h1M49 62h3M40 63h1M48 63h6M40 64h1M47 64h7M41 65h2M46 65h8M43 66h10M43 67h1M46 67h8M39 68h1M41 68h4M47 68h4M52 68h1M39 69h5M46 69h4M40 70h1M42 70h1M46 70h5M49 71h3" />
<path stroke="#523939" d="M53 22h1M53 23h1M67 23h1M53 24h1M66 24h1M54 25h1M66 25h1M53 26h1M56 27h1M52 28h1M57 28h3M61 28h1M52 29h1M51 30h1M51 31h1M61 31h2M51 32h1M51 33h1M50 34h1M50 35h1M50 36h1M41 37h1M47 39h2M50 39h1M45 40h1M50 40h1M56 41h1M57 42h1M42 43h1M58 43h1M41 44h1M58 44h1M40 45h1M59 45h1M37 46h1M40 46h1M59 46h1M59 47h1M38 48h1M59 48h1M58 49h1M39 50h2M46 54h1M50 54h1M45 55h1M51 55h2M43 56h2M53 56h2M41 57h2M45 57h1M55 57h2M40 58h1M44 58h2M57 58h2M39 59h1M43 59h1M52 59h1M59 59h1M39 60h1M42 60h1M45 60h1M53 60h1M58 60h1M60 60h1M40 61h1M42 61h1M46 61h1M53 61h1M59 61h2M40 62h1M47 62h1M54 62h1M56 62h1M39 63h1M54 63h1M39 64h1M41 64h1M55 64h1M39 65h1M55 65h1M54 66h1M38 68h1M45 68h2M51 69h1M44 70h2M52 70h1" />
<path stroke="#9c6a73" d="M54 26h1M53 27h1M56 28h1M60 28h1M56 29h7M55 30h7M55 31h6M54 32h7M54 33h6M51 34h1M53 34h6M51 35h7M35 36h2M43 36h2M51 36h7M34 37h1M42 37h1M46 37h1M51 37h6M34 38h1M40 38h2M51 38h6M35 39h1M39 39h4M46 39h1M51 39h5M38 40h7M46 40h1M51 40h5M38 41h8M49 41h6M37 42h18M56 42h1M37 43h5M43 43h12M37 44h4M42 44h14M37 45h3M41 45h16M38 46h2M41 46h16M38 47h1M40 47h18M40 48h18M40 49h18M41 50h17M41 51h16M42 52h14M44 53h10M47 54h3M46 55h5M45 56h8M43 57h2M46 57h7M41 58h3M46 58h8M40 59h3M48 59h4M53 59h3M58 59h1M40 60h2M50 60h1M54 60h4M45 61h1M56 61h3M44 62h3M42 63h5M43 64h3" />
<path stroke="#101010" d="M65 26h1M60 27h1M64 27h1M62 28h2M63 29h1M62 30h1M61 32h1M60 33h1M59 34h1M58 35h1M58 36h1M50 37h1M57 37h1M50 38h1M57 38h1M49 39h1M56 39h1M56 40h1M55 41h1M36 42h1M36 43h1M36 44h1M36 45h1M37 47h1M39 47h1M39 48h1M39 49h1M58 50h1M40 51h1M57 51h1M41 52h1M56 52h1M42 53h2M54 53h2M44 54h2M51 54h3M43 60h2M41 61h1M54 61h2M41 62h1M57 62h3M41 63h1M47 63h1M42 64h1M46 64h1M40 65h1M43 65h3M40 66h1M39 67h1M54 67h1M53 68h1M38 69h1M44 69h1M52 69h1M38 70h1M43 70h1M39 71h4M46 71h2M52 71h1M48 72h4" />
<path stroke="#bd947b" d="M54 27h2M53 28h3M53 29h3M52 30h3M52 31h3M52 32h2M52 33h2M52 34h1M43 37h3M42 38h6M43 39h3M47 40h3M46 41h3M55 42h1M55 43h3M56 44h2M57 45h2M57 46h2M58 47h1M58 48h1M53 57h2M54 58h3M56 59h2M59 60h1M43 61h2M42 62h2" />
<path stroke="#393139" d="M36 33h1M35 34h1M35 35h1M45 35h1M45 36h1M47 37h1M39 38h1M48 38h1M34 39h1M38 39h1M34 40h1M37 40h1M35 41h1M37 41h1" />
<path stroke="#c5b4bd" d="M41 66h2M40 67h3M40 68h1" />
</svg>