<svg xmlns="http://www.w3.org/2000/svg" viewBox="0 -0.5 96 96" shape-rendering="crispEdges">
<metadata>Made with Pixels to Svg https://codepen.io/shshaw/pen/XbxvNj</metadata>
<path stroke="#5a2008" d="M29 27h4M35 28h1M37 29h1M32 30h1M26 31h6M25 32h1M36 33h1M37 34h1M30 35h1M26 36h2M33 36h2M23 37h3M22 38h1M27 39h1M27 40h1M30 40h1M32 41h1M33 42h1M28 43h3M26 44h2M23 45h3M22 46h1M31 47h1M33 47h2M30 49h2M68 49h1M29 50h1M28 51h1M27 52h1M31 52h1M36 52h1M63 52h1M26 53h1M35 53h1M64 53h1M33 54h2M64 54h1M32 55h1M41 55h1M45 55h1M50 55h1M64 55h1M31 56h1M40 56h1M44 56h2M48 56h1M64 56h1M30 57h1M33 57h1M38 57h1M48 57h1M32 58h1M37 58h1M43 58h1M47 59h1M56 59h1M46 60h1M56 60h1M45 61h1M55 61h1M37 62h1M59 62h1M37 63h1M44 63h1M64 63h2M37 64h1M43 64h1M60 64h1M49 65h1M55 66h1M62 66h1M50 67h1M51 68h1" />
<path stroke="#101010" d="M29 28h1M34 28h1M30 29h1M36 29h1M31 30h1M38 30h1M32 31h2M39 31h1M34 32h2M40 32h1M26 33h3M29 34h2M31 35h2M51 37h1M50 38h1M23 39h4M49 39h1M28 40h2M48 40h2M55 40h1M66 40h1M30 41h2M47 41h1M55 41h1M65 41h1M67 41h1M31 42h2M47 42h1M55 42h1M64 42h1M67 42h1M47 43h1M63 43h1M67 43h1M67 44h1M67 45h1M22 47h9M31 48h2M69 50h1M69 51h1M32 52h4M69 52h1M29 53h2M69 53h1M26 54h3M69 54h1M73 54h1M68 55h1M71 55h2M38 56h2M51 56h1M66 56h2M69 56h2M34 57h4M39 57h1M44 57h1M49 57h1M51 57h1M65 57h1M30 58h2M38 58h1M44 58h1M47 58h1M49 58h1M51 58h1M64 58h1M37 59h1M42 59h2M50 59h1M64 59h1M36 60h1M40 60h2M43 60h1M48 60h1M60 60h1M64 60h1M37 61h3M42 61h1M46 61h1M48 61h1M56 61h4M64 61h1M42 62h1M44 62h1M47 62h2M55 62h1M64 62h1M42 63h2M48 63h1M55 63h1M60 63h1M48 64h1M55 64h1M65 64h1M38 65h1M44 65h1M55 65h1M61 65h1M66 65h1M39 66h5M49 66h1M56 66h1M63 66h3M57 67h1M52 68h5" />
<path stroke="#7b1041" d="M30 28h1M33 28h1M31 29h1M26 32h4M29 33h3M31 34h3M33 35h3M28 36h2M35 36h2M26 37h1M23 38h2M28 39h1M66 41h1M65 42h2M64 43h2M62 44h4M29 45h6M61 45h5M23 46h1M26 46h12M60 46h7M32 47h1M35 47h2M60 47h6M33 48h2M60 48h6M32 49h2M37 49h6M60 49h6M30 50h12M48 50h1M59 50h8M29 51h12M44 51h2M59 51h9M28 52h3M37 52h4M42 52h6M58 52h5M64 52h4M27 53h2M36 53h15M53 53h1M55 53h1M57 53h7M65 53h4M35 54h18M54 54h1M56 54h1M58 54h6M65 54h4M33 55h8M42 55h3M46 55h4M51 55h13M65 55h3M32 56h6M41 56h3M46 56h2M49 56h2M52 56h12M65 56h1M31 57h2M40 57h4M45 57h3M50 57h1M52 57h13M39 58h4M45 58h2M48 58h1M50 58h1M52 58h8M61 58h3M38 59h4M44 59h3M48 59h2M51 59h5M57 59h2M61 59h3M37 60h3M44 60h2M49 60h7M61 60h3M40 61h2M43 61h2M49 61h6M60 61h4M38 62h4M43 62h1M49 62h6M60 62h4M38 63h4M49 63h6M61 63h3M38 64h5M49 64h6M61 64h4M39 65h4M50 65h5M62 65h3M50 66h5M51 67h5" />
<path stroke="#bd1852" d="M31 28h2M32 29h4M33 30h5M34 31h4M30 32h4M36 32h3M32 33h4M37 33h2M34 34h3M38 34h1M36 35h4M30 36h3M37 36h3M27 37h14M25 38h16M29 39h10M31 40h9M33 41h8M34 42h8M31 43h11M28 44h15M26 45h3M35 45h5M24 46h2M38 46h4M37 47h7M35 48h11M59 48h1M68 48h1M34 49h3M43 49h6M57 49h3M42 50h6M54 50h5M68 50h1M41 51h3M46 51h13M68 51h1M41 52h1M48 52h10M68 52h1M51 53h2M54 53h1M56 53h1M53 54h1M55 54h1M57 54h1" />
<path stroke="#de945a" d="M38 31h1M39 33h1M39 34h1M41 34h1M40 35h1M40 36h1M42 36h1M41 38h1M43 38h1M41 39h1M44 40h1M48 41h1M58 41h1M48 42h1M57 42h1M62 42h1M42 43h1M48 43h1M55 43h1M43 44h1M48 44h1M57 44h2M40 45h1M44 45h1M49 45h1M57 45h3M42 46h1M50 46h1M59 46h1M44 47h1M51 47h2M59 47h1M46 48h3M58 48h1M49 49h2M56 49h1M49 50h1M53 50h1M70 53h1M70 54h1M59 59h1M57 60h2" />
<path stroke="#ffd5a4" d="M39 32h1M40 33h1M40 34h1M41 35h1M41 36h1M41 37h2M42 38h1M51 38h1M39 39h2M42 39h2M50 39h1M56 39h1M40 40h4M50 40h1M56 40h2M41 41h4M50 41h2M56 41h2M42 42h4M50 42h2M56 42h1M58 42h4M43 43h4M49 43h1M51 43h2M56 43h7M44 44h3M49 44h2M52 44h3M59 44h3M41 45h3M45 45h3M50 45h7M60 45h1M43 46h6M51 46h8M45 47h6M53 47h6M49 48h9M51 49h5M50 50h3M71 54h2M69 55h1" />
<path stroke="#625a41" d="M41 33h1M42 35h1M43 37h1M52 37h1M52 38h1M56 38h1M44 39h1M51 39h1M55 39h1M57 39h1M51 40h1M58 40h1M45 41h1M49 41h1M52 41h1M59 41h4M46 42h1M49 42h1M52 42h1M63 42h1M50 43h1M53 43h2M47 44h1M51 44h1M55 44h2M48 45h1M49 46h1M68 47h1M70 52h1M71 53h2M70 55h1M60 58h1M60 59h1M42 60h1M47 60h1M59 60h1M47 61h1" />
<path stroke="#f68b4a" d="M66 43h1M66 44h1M66 47h1M67 49h1" />
<path stroke="#834a31" d="M66 45h1M66 48h1M66 49h1M67 50h1" />
<path stroke="#b4b4d5" d="M67 46h1M43 65h1M65 65h1M56 67h1" />
<path stroke="#ffffff" d="M67 47h1M67 48h1" />
</svg>