<svg xmlns="http://www.w3.org/2000/svg" viewBox="0 -0.5 96 96" shape-rendering="crispEdges">
<metadata>Made with Pixels to Svg https://codepen.io/shshaw/pen/XbxvNj</metadata>
<path stroke="#7b1041" d="M41 17h2M39 18h2M37 19h2M36 20h1M40 20h2M35 21h1M34 22h1M22 23h1M25 23h1M33 23h1M24 24h1M32 24h1M21 25h1M31 25h1M21 26h1M23 26h1M35 26h1M20 27h4M33 27h2M20 28h4M29 28h1M32 28h3M20 29h4M28 29h6M19 30h5M28 30h6M39 30h3M51 30h1M19 31h4M27 31h6M37 31h7M48 31h2M19 32h4M27 32h6M36 32h12M13 33h1M19 33h4M26 33h7M35 33h11M48 33h1M53 33h1M13 34h1M18 34h5M26 34h7M34 34h10M46 34h1M56 34h1M12 35h2M18 35h5M25 35h8M34 35h9M44 35h4M59 35h1M12 36h2M18 36h5M24 36h8M33 36h17M12 37h2M18 37h5M24 37h8M33 37h19M12 38h2M18 38h5M24 38h29M59 38h3M12 39h2M17 39h6M24 39h16M44 39h10M62 39h3M11 40h3M17 40h21M42 40h3M51 40h6M65 40h3M11 41h4M17 41h19M49 41h9M61 41h1M11 42h4M17 42h17M48 42h13M11 43h4M17 43h15M51 43h6M61 43h2M11 44h5M17 44h14M53 44h6M64 44h1M11 45h5M17 45h13M56 45h5M11 46h5M17 46h12M58 46h5M11 47h6M18 47h10M40 47h7M59 47h5M11 48h6M18 48h3M22 48h6M38 48h11M61 48h4M12 49h6M19 49h2M22 49h5M37 49h13M52 49h1M57 49h1M62 49h4M12 50h6M19 50h2M23 50h4M36 50h19M57 50h2M64 50h3M12 51h9M23 51h3M35 51h25M66 51h2M13 52h8M24 52h2M34 52h12M47 52h15M67 52h2M13 53h8M24 53h2M34 53h13M48 53h16M65 53h1M68 53h1M13 54h8M33 54h15M49 54h15M65 54h1M14 55h8M33 55h15M49 55h15M65 55h1M14 56h8M32 56h16M49 56h14M64 56h2M15 57h7M32 57h17M50 57h8M61 57h2M64 57h3M15 58h8M32 58h1M34 58h15M50 58h8M59 58h2M64 58h3M68 58h1M16 59h2M20 59h4M32 59h1M34 59h15M50 59h8M61 59h8M17 60h1M32 60h1M34 60h15M50 60h8M59 60h1M63 60h5M18 61h1M33 61h1M35 61h14M50 61h9M60 61h3M64 61h3M33 62h1M35 62h14M50 62h3M54 62h6M62 62h5M35 63h14M50 63h3M54 63h6M61 63h1M64 63h3M35 64h14M50 64h3M54 64h7M63 64h3M68 64h1M24 65h1M35 65h14M50 65h3M54 65h8M65 65h1M25 66h1M28 66h1M37 66h5M43 66h5M49 66h4M54 66h8M63 66h7M29 67h1M38 67h3M43 67h4M49 67h5M55 67h7M63 67h6M43 68h1M48 68h3M55 68h8M56 69h2M59 69h4M56 70h2M59 70h3M61 71h1" />
<path stroke="#bd1852" d="M41 18h1M39 19h2M37 20h3M24 21h1M36 21h4M23 22h2M35 22h4M23 23h2M34 23h4M22 24h2M33 24h5M22 25h2M32 25h5M22 26h1M31 26h4M36 26h1M30 27h3M35 27h1M52 27h5M30 28h2M35 28h1M46 28h10M34 29h1M43 29h11M34 30h1M42 30h9M33 31h1M44 31h4M33 32h1M47 34h7M48 35h9M50 36h10M52 37h10M53 38h6M62 38h2M54 39h8M65 39h1M57 40h8M68 40h1M62 41h5M57 43h4M59 44h5M61 45h5M63 46h4M64 47h4M65 48h4M66 49h4M67 50h5M68 51h4M69 52h4M71 53h3M74 54h2" />
<path stroke="#101010" d="M42 18h1M41 19h1M25 21h1M40 21h1M25 22h1M39 22h1M21 23h1M21 24h1M38 24h1M20 25h1M37 25h1M20 26h1M24 26h1M37 26h1M52 26h6M19 27h1M24 27h1M46 27h5M57 27h1M19 28h1M24 28h1M36 28h1M43 28h2M56 28h1M19 29h1M24 29h1M40 29h2M54 29h2M18 30h1M27 30h1M37 30h1M52 30h2M18 31h1M36 31h1M50 31h2M13 32h1M18 32h1M23 32h1M35 32h1M48 32h2M12 33h1M18 33h1M23 33h1M34 33h1M46 33h2M12 34h1M17 34h1M23 34h1M45 34h1M11 35h1M17 35h1M23 35h1M33 35h1M11 36h1M17 36h1M23 36h1M11 37h1M17 37h1M23 37h1M11 38h1M17 38h1M23 38h1M11 39h1M16 39h1M69 39h1M10 40h1M16 40h1M69 40h1M10 41h1M16 41h1M67 41h2M10 42h1M16 42h1M65 42h2M10 43h1M16 43h1M10 44h1M16 44h1M10 45h1M10 46h1M41 46h5M10 47h1M39 47h1M47 47h1M54 47h1M10 48h1M37 48h1M49 48h1M51 48h2M55 48h1M11 49h1M36 49h1M50 49h2M53 49h2M56 49h1M11 50h1M35 50h1M55 50h2M11 51h1M34 51h1M11 52h1M33 52h1M12 53h1M64 53h1M12 54h1M32 54h1M64 54h1M64 55h1M13 56h1M63 56h1M83 56h1M14 57h1M31 57h1M63 57h1M69 57h1M82 57h1M14 58h1M31 58h1M58 58h1M63 58h1M70 58h2M78 58h2M15 59h1M31 59h1M59 59h2M72 59h4M16 60h1M58 60h1M61 60h2M68 60h1M72 60h1M74 60h1M17 61h1M49 61h1M59 61h1M67 61h1M74 61h1M18 62h2M32 62h1M49 62h1M67 62h1M75 62h1M20 63h1M33 63h2M49 63h1M53 63h1M60 63h1M67 63h1M75 63h1M20 64h1M22 64h2M34 64h1M49 64h1M53 64h1M61 64h2M75 64h1M20 65h1M25 65h3M34 65h1M49 65h1M53 65h1M63 65h2M69 65h1M74 65h1M20 66h1M29 66h7M48 66h1M53 66h1M70 66h4M31 67h1M35 67h1M48 67h1M62 67h1M69 67h3M21 68h1M30 68h1M35 68h1M47 68h1M54 68h1M64 68h5M21 69h1M29 69h1M36 69h1M45 69h2M54 69h1M28 70h1M36 70h1M44 70h1M55 70h1M22 71h1M28 71h1M37 71h1M56 71h1M22 72h1M58 72h1M22 73h1M38 73h1M59 73h1M22 74h1M38 74h1M60 74h1M66 74h1M22 75h1M60 75h1M67 75h1M29 76h3M39 76h1M61 76h7M24 77h4M39 77h1M39 78h1M40 79h9" />
<path stroke="#5a2008" d="M24 20h2M23 21h1M22 22h1M38 23h2M24 25h1M30 26h1M29 27h1M36 27h1M51 27h1M28 28h1M45 28h1M35 29h1M39 29h1M42 29h1M24 30h1M35 30h1M38 30h1M23 31h1M26 31h1M34 31h1M14 32h1M26 32h1M34 32h1M14 33h1M25 33h1M33 33h1M49 33h4M14 34h1M24 34h2M33 34h1M44 34h1M54 34h2M14 35h1M24 35h1M43 35h1M57 35h2M14 36h1M32 36h1M60 36h2M14 37h1M32 37h1M62 37h2M14 38h1M64 38h2M14 39h1M23 39h1M66 39h3M14 40h1M15 41h1M58 41h3M15 42h1M61 42h4M15 43h1M63 43h1M65 44h1M16 45h1M66 45h1M16 46h1M67 46h1M17 47h1M68 47h1M17 48h1M56 48h1M69 48h1M18 49h1M18 50h1M12 52h1M46 52h1M65 52h2M33 53h1M47 53h1M66 53h1M48 54h1M67 54h1M13 55h1M32 55h1M48 55h1M67 55h1M48 56h1M68 56h1M49 57h1M58 57h3M68 57h1M33 58h1M49 58h1M61 58h2M33 59h1M49 59h1M58 59h1M31 60h1M33 60h1M49 60h1M60 60h1M32 61h1M34 61h1M63 61h1M34 62h1M53 62h1M60 62h2M62 63h2M66 64h1M62 65h1M66 65h3M62 66h1M54 67h1M51 68h3M63 68h1M47 69h4M55 69h1M63 69h1M63 70h1M63 71h1" />
<path stroke="#625a41" d="M40 39h1M43 39h1M45 40h2M50 40h1M41 41h1M47 42h1M49 43h2M52 44h1M48 45h1M55 45h1M40 46h1M46 46h1M49 46h1M52 46h2M57 46h1M28 47h1M38 47h1M48 47h1M50 47h1M53 47h1M55 47h1M21 48h1M57 48h1M60 48h1M21 49h1M27 49h1M58 49h1M70 49h2M21 50h2M59 50h1M72 50h1M21 51h1M26 51h1M60 51h1M65 51h1M73 51h2M21 52h1M23 52h1M26 52h1M62 52h1M75 52h2M21 53h1M32 53h1M67 53h1M77 53h3M21 54h1M24 54h2M68 54h1M70 54h1M80 54h5M25 55h1M71 55h2M84 55h1M22 56h1M31 56h1M74 56h3M22 57h1M81 57h1M23 58h1M80 58h1M18 59h2M24 59h1M76 59h2M18 60h1M21 60h5M73 60h1M19 61h1M75 61h1M20 62h1M21 63h1M24 64h1M28 65h1M21 66h1M24 66h1M26 66h1M21 67h1M25 67h1M28 67h1M47 67h1M39 68h1M44 68h1M22 69h1M58 69h1M22 70h1M37 70h1M27 71h1M44 71h1M57 71h1M60 71h1M64 71h1M27 72h1M37 72h1M44 72h1M57 72h1M64 72h1M28 73h1M44 73h1M65 73h1M28 74h1M45 74h1M38 75h1M45 75h1M22 76h2M46 76h1M28 77h1" />
<path stroke="#de945a" d="M41 39h2M38 40h4M47 40h3M36 41h5M42 41h7M34 42h13M32 43h17M31 44h21M30 45h18M49 45h6M29 46h11M47 46h2M50 46h2M54 46h3M29 47h9M49 47h1M51 47h2M56 47h3M28 48h9M50 48h1M53 48h2M58 48h2M28 49h8M55 49h1M59 49h3M27 50h8M60 50h4M22 51h1M27 51h7M61 51h4M72 51h1M22 52h1M27 52h6M63 52h2M73 52h1M22 53h2M26 53h6M69 53h1M74 53h1M22 54h2M26 54h6M69 54h1M73 54h1M76 54h1M22 55h3M26 55h6M68 55h3M82 55h2M23 56h8M69 56h5M79 56h4M23 57h8M70 57h11M24 58h7M72 58h6M25 59h6M19 60h2M26 60h5M69 60h1M20 61h12M68 61h3M73 61h1M21 62h11M68 62h5M22 63h11M68 63h4M21 64h1M25 64h9M69 64h3M21 65h3M29 65h5M70 65h3M22 66h2M27 66h1M36 66h1M42 66h1M22 67h3M26 67h2M30 67h1M36 67h2M41 67h2M22 68h8M36 68h3M40 68h3M45 68h2M23 69h6M37 69h8M23 70h5M38 70h6M58 70h1M62 70h1M23 71h4M38 71h6M58 71h2M62 71h1M23 72h4M38 72h6M59 72h5M23 73h5M39 73h5M60 73h5M23 74h5M39 74h6M61 74h4M23 75h6M39 75h6M61 75h4M24 76h5M40 76h6M40 77h6M40 78h6" />
<path stroke="#ffd5a4" d="M74 52h1M70 53h1M75 53h2M71 54h2M77 54h3M73 55h9M77 56h2M73 62h2M72 63h3M72 64h3M73 65h1" />
<path stroke="#834a31" d="M66 54h1M67 56h1M69 58h1M69 59h2M70 60h1M71 61h1" />
<path stroke="#b45a31" d="M66 55h1M66 56h1M67 57h1M67 58h1" />
<path stroke="#b4b4d5" d="M71 59h1M71 60h1M72 61h1M67 64h1M29 75h2M65 75h2M46 78h2" />
<path stroke="#6a6273" d="M29 74h2M65 74h1M31 75h1M46 77h2M48 78h1" />
</svg>