<svg xmlns="http://www.w3.org/2000/svg" viewBox="0 -0.5 96 96" shape-rendering="crispEdges">
<metadata>Made with Pixels to Svg https://codepen.io/shshaw/pen/XbxvNj</metadata>
<path stroke="#52a4b4" d="M41 22h2M38 23h3M44 23h1M35 24h3M45 24h1M31 25h4M47 25h2M54 25h1M50 26h3M57 26h2M33 27h2M37 27h1M59 27h2M35 28h2M61 28h2M37 29h3M36 30h2M64 30h1M35 31h1M33 32h2M50 32h3M55 32h2M65 32h1M32 33h1M50 33h8M65 33h1M30 34h1M41 34h2M49 34h8M66 34h1M70 34h1M72 34h1M41 35h3M48 35h9M66 35h1M70 35h1M72 35h1M29 36h1M37 36h1M40 36h17M67 36h1M69 36h2M28 37h1M36 37h21M68 37h1M70 37h1M26 38h2M36 38h22M64 38h1M68 38h1M73 38h1M25 39h1M35 39h24M63 39h2M73 39h1M24 40h1M34 40h32M73 40h1M24 41h1M34 41h9M44 41h22M35 42h7M43 42h22M74 42h1M23 43h1M36 43h5M42 43h23M74 43h1M23 44h1M36 44h4M41 44h26M74 44h1M36 45h3M40 45h27M74 45h1M22 46h1M36 46h2M39 46h3M44 46h23M74 46h1M22 47h1M35 47h2M38 47h2M43 47h24M22 48h1M34 48h3M40 48h1M42 48h1M45 48h20M73 48h1M21 49h1M33 49h8M44 49h20M73 49h1M21 50h1M25 50h1M33 50h9M43 50h21M21 51h1M24 51h2M28 51h1M34 51h8M43 51h22M72 51h1M21 52h1M24 52h1M27 52h2M34 52h9M44 52h23M72 52h1M21 53h1M23 53h1M26 53h1M29 53h1M34 53h9M44 53h22M21 54h1M23 54h1M26 54h1M29 54h1M34 54h10M45 54h4M53 54h7M64 54h2M71 54h1M21 55h1M25 55h1M30 55h1M38 55h6M45 55h3M55 55h4M65 55h1M30 56h1M39 56h4M46 56h1M56 56h2M70 56h1M22 57h1M30 57h1M39 57h3M46 57h1M57 57h1M70 57h1M31 58h1M39 58h3M46 58h3M57 58h1M31 59h1M38 59h3M45 59h1M48 59h1M69 59h1M32 60h1M39 60h2M44 60h1M49 60h1M58 60h1M32 61h1M40 61h1M44 61h1M49 61h1M68 61h1M33 62h1M67 62h1M69 62h2M34 63h2M66 63h1M36 64h2M59 64h1M64 64h2M70 64h1M38 65h1M68 65h2M67 66h1M60 67h3M65 67h2M63 68h2" />
<path stroke="#73c5cd" d="M43 22h1M41 23h3M38 24h7M46 24h1M30 25h1M35 25h12M49 25h1M55 25h2M32 26h18M53 26h4M35 27h2M38 27h21M37 28h7M48 28h13M63 28h1M40 29h3M49 29h4M55 29h10M38 30h4M50 30h2M56 30h8M36 31h6M50 31h2M56 31h10M71 31h1M35 32h7M57 32h2M63 32h2M71 32h1M31 33h1M33 33h5M40 33h2M64 33h1M71 33h2M31 34h6M65 34h1M71 34h1M29 35h8M65 35h1M71 35h1M30 36h7M65 36h2M71 36h3M29 37h5M65 37h3M69 37h1M71 37h3M28 38h6M65 38h3M69 38h4M26 39h9M65 39h8M25 40h9M66 40h7M25 41h5M66 41h9M24 42h5M67 42h7M24 43h4M67 43h7M24 44h4M67 44h7M23 45h5M67 45h7M23 46h5M67 46h7M23 47h6M67 47h7M23 48h7M67 48h6M22 49h11M68 49h5M22 50h3M26 50h7M68 50h5M22 51h2M26 51h2M29 51h3M67 51h5M22 52h2M25 52h2M29 52h3M67 52h5M22 53h1M25 53h1M30 53h4M66 53h6M22 54h1M25 54h1M30 54h4M66 54h5M22 55h1M31 55h4M66 55h5M22 56h1M31 56h3M66 56h4M31 57h3M66 57h4M32 58h2M66 58h4M32 59h3M66 59h3M33 60h6M65 60h4M33 61h7M58 61h2M64 61h4M72 61h1M34 62h6M59 62h8M71 62h2M36 63h4M59 63h7M68 63h4M38 64h2M60 64h4M66 64h4M60 65h8M60 66h7M63 67h2" />
<path stroke="#bd41cd" d="M44 28h4M43 29h6M53 29h2M42 30h3M47 30h3M52 30h4M42 31h2M48 31h2M52 31h4M42 32h2M48 32h2M53 32h2M59 32h4M38 33h2M42 33h3M47 33h3M58 33h6M37 34h4M43 34h6M57 34h3M62 34h3M37 35h4M44 35h4M57 35h2M63 35h2M38 36h2M57 36h2M63 36h2M34 37h2M57 37h3M62 37h3M34 38h2M58 38h6M59 39h4M30 41h4M29 42h6M65 42h2M28 43h3M33 43h3M65 43h2M28 44h2M34 44h2M28 45h2M34 45h2M28 46h3M33 46h3M29 47h6M30 48h4M65 48h2M64 49h4M64 50h4M32 51h2M65 51h2M32 52h2M60 54h4M35 55h3M59 55h6M34 56h5M58 56h3M63 56h3M34 57h5M58 57h2M64 57h2M34 58h5M58 58h2M64 58h2M35 59h3M58 59h3M63 59h3M59 60h6M60 61h4" />
<path stroke="#de62ac" d="M45 30h2M44 31h1M47 31h1M44 32h1M47 32h1M45 33h2M60 34h2M59 35h1M62 35h1M59 36h1M62 36h1M60 37h2M31 43h2M30 44h1M33 44h1M30 45h1M33 45h1M31 46h2M61 56h2M60 57h1M63 57h1M60 58h1M63 58h1M61 59h2" />
<path stroke="#ff9cb4" d="M45 31h2M45 32h2M60 35h2M60 36h2M31 44h2M31 45h2M61 57h2M61 58h2" />
<path stroke="#524152" d="M43 41h1M42 42h1M41 43h1M40 44h1M39 45h1M38 46h1M37 47h1M42 47h1M41 48h1M43 48h1M43 49h1M49 54h4M48 55h1M53 55h2M43 56h1M47 56h1M55 56h1M47 57h1M56 57h1M45 58h1M56 58h1M46 59h2M57 59h1M45 60h1M48 60h1M57 60h1M45 61h1M48 61h1M44 62h1M49 62h1M58 64h1M59 65h1M40 68h1M57 68h1M41 69h2M55 69h1M44 70h5M51 70h2M41 71h1M57 71h1M44 72h1M54 72h1" />
<path stroke="#101010" d="M42 46h2M40 47h2M37 48h3M44 48h1M41 49h2M42 50h1M42 51h1M43 52h1M43 53h1M44 54h1M44 55h1M45 56h1M42 57h1M45 57h1M42 58h1M41 59h1M41 60h1M41 61h1M40 62h1M58 62h1M40 63h1M58 63h1M40 64h1M39 66h1M59 66h1M39 67h1M59 67h1M39 68h1M59 68h1M39 69h1M59 69h1M39 70h1M59 70h1M40 71h1M58 71h1M41 72h3M55 72h3M44 73h11" />
<path stroke="#b49c94" d="M49 55h4M44 56h1M48 56h7M44 57h1M48 57h8M44 58h1M49 58h3M55 58h1M55 59h2M56 60h1M56 61h1M57 62h1M57 63h1" />
<path stroke="#9c836a" d="M43 57h1M43 58h1M52 58h3M42 59h2M50 59h5M42 60h2M46 60h2M50 60h6M42 61h2M46 61h2M50 61h6M41 62h3M45 62h4M50 62h7M41 63h16M41 64h17M41 65h18M40 66h19M40 67h18M41 68h16M44 69h10" />
<path stroke="#836a62" d="M44 59h1M49 59h1M57 61h1M39 65h2M58 67h1M58 68h1M40 69h1M43 69h1M54 69h1M56 69h3M40 70h4M49 70h2M53 70h6M42 71h15M45 72h9" />
<path stroke="#528b83" d="M67 63h1" />
</svg>