<svg xmlns="http://www.w3.org/2000/svg" viewBox="0 -0.5 96 96" shape-rendering="crispEdges">
<metadata>Made with Pixels to Svg https://codepen.io/shshaw/pen/XbxvNj</metadata>
<path stroke="#3129a4" d="M54 18h4M39 19h4M58 19h2M38 20h1M43 20h2M47 20h5M54 20h2M60 20h2M39 21h2M46 21h1M52 21h1M54 21h4M62 21h1M40 22h3M44 22h5M55 22h4M40 23h2M43 23h11M55 23h5M41 24h1M43 24h12M56 24h4M43 25h17M44 26h13M62 26h2M25 27h2M44 27h15M62 27h3M25 28h1M27 28h2M45 28h14M26 29h1M29 29h1M45 29h13M26 30h2M30 30h2M46 30h9M56 30h2M27 31h1M32 31h1M46 31h8M58 31h2M27 32h2M33 32h2M46 32h7M60 32h1M28 33h4M35 33h1M50 33h3M28 34h1M30 34h3M36 34h1M46 34h4M30 35h5M37 35h1M50 35h2M29 36h1M31 36h5M38 36h1M46 36h4M29 37h1M31 37h6M39 37h1M50 37h2M32 38h6M40 38h1M45 38h5M34 39h5M45 39h7M35 40h5M44 40h8M33 41h8M43 41h1M45 41h7M31 42h1M33 42h9M44 42h8M33 43h10M44 43h8M32 44h1M34 44h10M45 44h5M51 44h2M32 45h1M34 45h10M45 45h5M51 45h4M34 46h17M52 46h5M33 47h1M35 47h16M52 47h7M37 48h15M55 48h4M66 48h5M38 49h16M57 49h3M63 49h3M71 49h2M22 50h2M39 50h15M59 50h3M72 50h1M24 51h1M37 51h1M39 51h15M61 51h1M70 51h4M36 52h1M39 52h15M62 52h1M66 52h5M74 52h1M35 53h1M38 53h13M53 53h1M65 53h4M75 53h1M23 54h1M33 54h2M38 54h11M50 54h1M66 54h1M76 54h1M23 55h2M31 55h2M34 55h2M37 55h12M76 55h1M23 56h4M29 56h2M32 56h2M37 56h11M49 56h1M77 56h1M23 57h4M28 57h1M35 57h2M38 57h10M49 57h3M77 57h1M22 58h9M32 58h3M36 58h2M39 58h8M48 58h6M78 58h1M16 59h2M22 59h10M33 59h3M37 59h2M40 59h7M48 59h8M78 59h1M18 60h15M34 60h2M37 60h2M40 60h17M78 60h1M20 61h13M34 61h3M38 61h2M41 61h17M79 61h1M22 62h12M35 62h2M38 62h2M41 62h5M47 62h13M79 62h1M25 63h9M35 63h2M38 63h2M41 63h3M47 63h13M79 63h1M31 64h3M35 64h2M38 64h1M48 64h12M49 65h11M50 66h10M51 67h8M52 68h7M32 69h3M52 69h6M31 70h7M53 70h4M31 71h5M53 71h4M30 72h5M53 72h5M29 73h9M52 73h7M29 74h7M52 74h8M51 75h10M51 76h9" />
<path stroke="#101052" d="M53 19h1M53 20h1M38 21h1M44 21h2M53 21h1M39 22h1M43 22h1M54 22h1M63 22h1M39 23h1M42 23h1M54 23h1M64 23h1M40 24h1M42 24h1M55 24h1M64 24h1M41 25h2M65 25h1M43 26h1M57 26h2M65 26h1M43 27h1M59 27h1M44 28h1M59 28h3M25 29h1M44 29h1M58 29h1M45 30h1M58 30h1M26 31h1M45 31h1M60 31h1M45 32h1M27 33h1M45 33h5M29 34h1M45 34h1M50 34h2M28 35h2M45 35h5M30 36h1M45 36h1M50 36h2M30 37h1M45 37h5M31 38h1M44 38h1M50 38h2M33 39h1M41 39h1M44 39h1M32 40h1M34 40h1M42 40h2M30 41h3M42 41h1M44 41h1M52 41h1M30 42h1M32 42h1M43 42h1M53 42h2M31 43h2M43 43h1M55 43h2M31 44h1M33 44h1M44 44h1M50 44h1M57 44h1M33 45h1M44 45h1M50 45h1M57 45h1M32 46h2M51 46h1M57 46h2M32 47h1M34 47h1M51 47h1M59 47h1M33 48h2M36 48h1M60 48h2M62 49h1M22 51h1M22 52h1M25 52h1M38 52h1M22 53h1M25 53h1M51 53h2M22 54h1M26 54h1M49 54h1M53 54h2M22 55h1M26 55h1M49 55h1M55 55h1M22 56h1M27 56h2M36 56h1M48 56h1M56 56h1M22 57h1M27 57h1M29 57h2M34 57h1M37 57h1M48 57h1M57 57h1M70 57h1M15 58h7M31 58h1M35 58h1M38 58h1M47 58h1M58 58h1M71 58h1M15 59h1M32 59h1M36 59h1M39 59h1M47 59h1M58 59h1M16 60h2M33 60h1M36 60h1M39 60h1M59 60h1M33 61h1M37 61h1M40 61h1M59 61h1M34 62h1M37 62h1M40 62h1M46 62h1M34 63h1M37 63h1M40 63h1M44 63h3M60 63h1M25 64h1M30 64h1M34 64h1M37 64h1M39 64h5M47 64h1M60 64h1M62 64h1M27 65h1M35 65h4M48 65h1M60 65h1M28 66h2M49 66h1M49 67h2M31 68h1M46 68h3M31 69h1M43 69h3M30 70h1M38 70h2M57 70h1M30 71h1M36 71h2M57 71h1M35 72h1M58 72h1M28 73h1M51 73h1M59 73h2M51 74h1M58 77h2" />
<path stroke="#4141cd" d="M54 19h1M39 20h4M56 20h1M41 21h3M47 21h5M58 21h1M49 22h5M59 22h1M60 23h1M63 25h1M64 26h1M26 28h1M27 29h1M28 30h1M28 31h2M29 32h2M32 33h1M33 34h1M35 35h1M36 36h1M37 37h1M38 38h1M39 39h2M40 40h2M41 41h1M42 42h1M52 42h1M52 43h3M53 44h4M55 45h2M59 48h1M60 49h2M62 50h2M70 50h2M23 51h1M62 51h8M23 52h2M37 52h1M63 52h3M71 52h3M23 53h2M36 53h2M69 53h6M24 54h2M35 54h3M51 54h2M67 54h9M25 55h1M33 55h1M36 55h1M50 55h5M68 55h8M31 56h1M34 56h2M50 56h6M73 56h4M31 57h3M52 57h5M54 58h4M18 59h4M56 59h2M57 60h2M58 61h1" />
<path stroke="#5a5aee" d="M55 19h3M57 20h3M59 21h2M60 22h1M63 23h1M63 24h1M64 25h1M28 29h1M29 30h1M30 31h2M31 32h2M33 33h2M34 34h2M36 35h1M37 36h1M38 37h1M39 38h1M66 49h5M64 50h6M69 56h4M71 57h6M72 58h6M73 59h5M74 60h4M75 61h4M76 62h3M77 63h2M78 64h1" />
<path stroke="#9cdef6" d="M61 21h1M61 22h2M61 23h2M62 24h1" />
<path stroke="#7394bd" d="M60 24h2M60 25h3M59 26h3M44 64h3M28 65h3M39 65h9M30 66h19M32 67h17M35 68h11M36 74h2" />
<path stroke="#101820" d="M60 27h2M65 27h1M62 28h3M60 29h1M61 30h1M61 31h1M61 32h1M59 33h2M29 38h2M31 39h2M33 40h1M35 48h1M52 48h3M37 49h1M55 49h2M38 50h1M57 50h2M38 51h1M59 51h2M61 52h1M62 53h3M65 54h1M66 55h2M68 56h1M69 57h1M72 59h1M73 60h1M18 61h2M74 61h1M20 62h2M75 62h1M22 63h3M76 63h1M26 64h4M77 64h1M79 64h1M31 65h4M61 65h1M78 65h2M60 66h1M30 67h2M59 67h1M32 68h3M51 68h1M59 68h1M35 69h8M51 69h1M58 69h1M52 70h1M52 71h1M29 72h1M52 72h1M28 74h1M38 74h1M29 75h9M50 75h1M50 76h1M60 76h5M51 77h7" />
<path stroke="#de9c18" d="M59 29h1M59 30h1" />
<path stroke="#521000" d="M55 30h1M57 31h1M59 32h1M57 33h2M55 34h2M54 35h1M53 36h1M53 37h1M53 38h1M53 39h1M53 40h1M55 50h1M55 51h1M56 52h1M56 53h1M57 54h1" />
<path stroke="#ffff18" d="M60 30h1" />
<path stroke="#ac3910" d="M54 31h2M53 32h1M55 32h1M57 32h1M56 33h1M52 34h1M52 39h1M52 40h1M53 41h1M54 49h1M54 50h1M54 51h1M54 52h1M54 53h1" />
<path stroke="#c5cdd5" d="M56 31h1M56 32h1M74 51h2M75 52h3M77 53h2M78 54h1M59 59h4M60 60h2M60 61h1M61 62h1M61 63h1M61 64h1M60 74h2M61 75h2" />
<path stroke="#ee6a08" d="M54 32h1M53 33h3M53 34h2M52 35h2M52 36h1M52 37h1M52 38h1M55 52h1M55 53h1M55 54h2" />
<path stroke="#ffffff" d="M58 32h1M73 50h4M76 51h2M57 56h1M58 57h3M59 58h5M62 63h1M63 75h1" />
<path stroke="#737b83" d="M73 49h4M77 50h1M78 51h1M78 52h1M76 53h1M79 53h1M77 54h1M79 54h1M56 55h2M78 55h2M58 56h3M61 57h4M64 58h1M63 59h1M62 60h1M61 61h1M60 62h1M62 62h2M63 63h1M61 73h1M62 74h2M64 75h1" />
</svg>