<svg xmlns="http://www.w3.org/2000/svg" viewBox="0 -0.5 96 96" shape-rendering="crispEdges">
<metadata>Made with Pixels to Svg https://codepen.io/shshaw/pen/XbxvNj</metadata>
<path stroke="#005273" d="M34 25h3M60 25h4M33 26h1M59 26h1M64 26h1M32 27h1M41 27h1M65 27h1M32 28h1M42 28h1M65 28h1M43 29h1M60 29h3M66 29h1M37 30h4M44 30h1M59 30h5M66 30h1M36 31h7M44 31h1M59 31h5M37 32h7M59 32h6M39 33h5M60 33h5M40 34h6M60 34h5M41 35h5M60 35h5M42 36h4M61 36h4M43 37h4M61 37h4M43 38h4M61 38h4M44 39h3M61 39h3M61 40h3M60 41h4M41 42h1M60 42h3M39 43h2M55 43h1M59 43h4M38 44h1M56 44h1M59 44h3M36 45h2M56 45h2M59 45h3M31 46h6M56 46h3M60 46h1M26 47h1M30 47h1M32 47h5M56 47h3M60 47h1M22 48h2M29 48h1M31 48h1M33 48h5M57 48h3M22 49h1M30 49h1M32 49h6M58 49h3M21 50h3M31 50h7M58 50h4M20 51h5M30 51h8M58 51h5M20 52h17M57 52h7M20 53h17M54 53h12M20 54h17M53 54h11M65 54h1M21 55h17M41 55h2M48 55h1M53 55h10M64 55h1M68 55h1M23 56h15M43 56h4M52 56h10M63 56h1M24 57h15M51 57h12M64 57h1M28 58h12M50 58h12M63 58h1M31 59h11M48 59h15M64 59h1M72 59h1M33 60h31M72 60h1M34 61h32M71 61h3M34 62h40M35 63h40M35 64h40M36 65h39M38 66h15M64 66h11M40 67h8M66 67h9M67 68h6" />
<path stroke="#0083ac" d="M37 25h3M34 26h3M40 26h1M60 26h4M33 27h6M59 27h6M33 28h9M59 28h6M33 29h10M59 29h1M63 29h3M34 30h3M41 30h3M64 30h2M43 31h1M64 31h2M44 32h1M65 32h1M44 33h1M65 33h1M65 34h1M44 41h7M42 42h7M52 42h2M41 43h7M53 43h2M41 44h7M53 44h3M42 45h7M52 45h4M42 46h14M27 47h3M31 47h1M41 47h12M24 48h5M30 48h1M32 48h1M40 48h12M23 49h7M31 49h1M38 49h14M24 50h7M38 50h14M25 51h5M40 51h13M40 52h14M40 53h11M52 53h2M41 54h9M64 54h1M66 54h1M43 55h5M63 55h1M65 55h3M62 56h1M64 56h6M63 57h1M65 57h6M27 58h1M62 58h1M64 58h8M30 59h1M63 59h1M65 59h7M32 60h1M64 60h8M33 61h1M66 61h5M53 66h2M63 66h1M48 67h2M65 67h1" />
<path stroke="#089cc5" d="M37 26h3M39 27h2M49 42h3M48 43h1M52 43h1M48 44h1M52 44h1M49 45h3" />
<path stroke="#003962" d="M58 27h1M58 28h1M66 31h1M45 32h1M66 32h1M37 33h1M45 33h1M66 33h1M46 34h1M66 34h1M46 35h1M65 35h1M46 36h1M60 36h1M65 36h1M47 37h1M60 37h1M65 37h1M42 38h1M47 38h1M60 38h1M65 38h1M43 39h1M47 39h1M60 39h1M64 39h1M43 40h1M60 40h1M64 40h1M59 41h1M64 41h1M59 42h1M63 42h1M58 43h1M63 43h1M58 44h1M62 44h1M32 45h1M62 45h1M27 46h4M24 47h2M21 49h1M61 49h1M20 50h1M62 50h1M63 51h1M64 52h2M66 53h1M67 54h2M69 55h1M70 56h1M71 57h1M72 58h1M73 59h1M73 60h1M74 61h1M74 62h1M75 63h1M75 64h1M75 65h1M75 66h1M75 67h1M73 68h2M72 69h1" />
<path stroke="#000000" d="M32 29h1M58 29h1M33 30h1M58 30h1M34 31h2M58 31h1M36 32h1M58 32h1M38 33h1M59 33h1M39 34h1M59 34h1M40 35h1M59 35h1M41 36h1M42 37h1M44 40h7M41 41h3M51 41h3M39 42h2M54 42h2M38 43h1M56 43h1M36 44h2M57 44h1M33 45h3M58 45h1M59 46h1M61 46h1M59 47h1M61 47h1M60 48h1M19 51h1M19 52h1M19 53h1M19 54h1M20 55h1M21 56h2M23 57h1M24 58h1M25 59h1M27 60h1M28 61h2M30 62h1M31 63h1M32 64h1M33 66h1M34 67h1M35 68h1M62 68h4M36 69h2M52 69h8M68 69h4M38 70h2M48 70h3M40 71h7" />
<path stroke="#6ab4e6" d="M49 43h3M49 44h3M53 47h1M52 48h1M51 53h1M37 54h1M38 55h1M52 55h1M38 56h1M42 56h1M47 56h1M51 56h1M39 57h1M50 57h1M25 58h2M40 58h1M49 58h1M27 59h3M42 59h1M47 59h1M31 60h1M32 61h1M33 62h1M34 63h1M37 66h1M55 66h8M39 67h1M50 67h2M63 67h2M36 68h1M41 68h6M59 68h2M51 69h1M40 70h1M47 70h1" />
<path stroke="#6aacde" d="M39 44h1M38 45h1M37 46h1M37 47h1M55 47h1M38 48h1M56 48h1M57 49h1M57 50h1M38 51h1M57 51h1M37 52h1M55 52h2M37 53h1M38 54h1M40 54h1M52 54h1M39 55h2M51 55h1M39 56h3M48 56h3M40 57h10M41 58h8M43 59h4M29 60h2M30 61h2M31 62h2M32 63h2M33 64h2M34 65h2M34 66h3M35 67h4M52 67h11M37 68h4M47 68h12M38 69h13M41 70h6" />
<path stroke="#d5dee6" d="M40 44h1M41 45h1M41 46h1M40 47h1M54 47h1M39 48h1M53 48h1M52 49h1M52 50h1M39 51h1M53 51h1M38 52h2M54 52h1M38 53h2M39 54h1M50 54h2M49 55h2" />
<path stroke="#ff4a29" d="M39 45h2M39 46h2M54 49h2M54 50h2" />
<path stroke="#ac2920" d="M38 46h1M38 47h2M54 48h2M53 49h1M56 49h1M53 50h1M56 50h1M54 51h3" />
<path stroke="#4a6273" d="M26 59h1M28 60h1M33 65h1M61 68h1M66 68h1M60 69h1M67 69h1M51 70h1M47 71h1" />
</svg>