<svg xmlns="http://www.w3.org/2000/svg" viewBox="0 -0.5 96 96" shape-rendering="crispEdges">
<metadata>Made with Pixels to Svg https://codepen.io/shshaw/pen/XbxvNj</metadata>
<path stroke="#627383" d="M41 13h1M34 14h3M40 14h1M42 14h1M59 14h2M37 15h2M43 15h1M61 15h1M38 16h1M43 16h1M62 16h1M66 16h3M44 17h1M64 17h2M68 17h1M45 18h1M68 18h1M46 19h1M52 19h2M59 19h1M67 19h1M36 20h1M45 20h1M55 20h1M67 20h1M66 21h1M58 22h1M59 23h1M38 25h1M61 25h1M62 27h1M62 30h1M63 31h1M64 32h1M64 33h1M61 34h1M65 34h1M32 35h2M62 35h1M65 35h1M31 36h1M60 36h1M63 36h1M65 36h1M30 37h1M63 37h1M29 38h1M66 38h2M28 39h1M26 40h2M24 41h2M64 41h1M22 42h2M65 42h1M32 43h1M66 43h1M67 44h1M68 45h1M34 46h1M30 47h2M33 47h1M31 48h1M37 48h2M60 48h1M32 50h1M36 50h1M41 50h1M48 50h1M56 50h1M33 51h1M41 51h1M48 51h1M52 51h1M56 51h1M61 51h1M66 51h1M39 52h1M48 52h1M52 52h1M57 52h1M34 53h1M39 53h1M35 54h1M38 54h1M49 54h1M36 55h2M57 55h1M70 56h1M71 60h1M72 61h1M50 69h1M54 70h1" />
<path stroke="#ffffff" d="M41 14h1M35 15h2M41 15h2M60 15h1M36 16h2M42 16h1M60 16h2M38 17h2M42 17h2M61 17h2M67 17h1M42 18h3M62 18h1M65 18h3M44 19h2M65 19h2M46 20h8M66 20h1M44 21h12M42 22h13M67 22h2M41 23h1M43 23h10M67 23h1M40 24h1M42 24h1M44 24h7M66 24h2M43 25h1M45 25h1M65 25h2M42 26h1M44 26h1M63 26h2M61 28h1M60 29h2M60 30h2M61 31h2M62 32h2M63 33h1M63 34h1M34 35h1M64 35h1M32 36h3M64 36h1M31 37h3M60 37h3M30 38h4M61 38h5M29 39h3M63 39h5M28 40h3M64 40h5M26 41h4M66 41h4M24 42h4M68 42h3M22 43h4M69 43h3M21 44h3M70 44h3M20 45h3M70 45h5M20 46h2M71 46h6M19 47h2M72 47h7M72 48h8M73 49h1M75 49h6M78 50h4M81 51h1" />
<path stroke="#202931" d="M34 15h1M39 15h1M59 15h1M34 16h1M39 16h1M59 16h1M34 17h1M59 17h1M63 17h1M35 18h1M59 18h1M35 19h1M47 19h5M58 19h1M33 20h3M44 20h1M54 20h1M57 20h1M33 21h1M42 21h2M56 21h2M67 21h3M34 22h1M41 22h1M69 22h1M35 23h2M40 23h1M68 23h1M37 24h1M39 24h1M60 24h1M68 24h1M37 25h1M39 25h1M67 25h1M38 26h1M61 26h1M65 26h2M38 27h1M63 27h2M37 28h1M62 28h1M37 29h1M62 29h1M40 31h1M34 32h1M41 32h1M48 32h1M55 32h1M39 33h1M42 33h1M48 33h1M54 33h1M56 33h1M35 34h1M42 34h1M56 34h1M35 35h1M42 35h1M49 35h1M56 35h1M36 36h1M41 36h1M49 36h1M51 36h1M56 36h1M61 36h2M37 37h4M50 37h1M55 37h1M64 37h2M51 38h4M33 41h1M47 41h1M54 41h1M38 42h1M41 42h1M47 42h1M53 42h1M55 42h1M20 43h2M34 43h1M41 43h1M55 43h1M19 44h1M31 44h1M34 44h1M41 44h1M55 44h1M18 45h1M30 45h1M35 45h1M40 45h1M48 45h1M50 45h1M55 45h1M17 46h1M30 46h1M37 46h3M49 46h1M54 46h1M68 46h1M17 47h1M50 47h4M69 47h1M16 48h1M32 48h1M64 48h1M70 48h1M16 49h1M31 49h1M60 49h1M64 49h1M70 49h1M15 50h1M31 50h1M60 50h1M65 50h1M69 50h1M15 51h1M31 51h1M35 51h1M65 51h1M68 51h1M15 52h1M31 52h1M34 52h1M61 52h1M65 52h1M67 52h1M14 53h1M30 53h1M52 53h1M57 53h1M61 53h1M63 53h2M68 53h1M14 54h1M30 54h1M50 54h3M57 54h1M61 54h2M69 54h1M14 55h1M29 55h1M52 55h1M58 55h4M70 55h1M14 56h1M29 56h1M56 56h1M14 57h1M26 57h1M28 57h1M53 57h3M71 57h1M14 58h1M26 58h1M28 58h1M71 58h2M14 59h1M21 59h1M26 59h1M28 59h1M40 59h5M71 59h1M73 59h1M89 59h1M15 60h1M21 60h1M27 60h2M38 60h2M45 60h2M74 60h1M89 60h1M15 61h1M20 61h1M22 61h1M27 61h2M34 61h3M47 61h1M74 61h1M89 61h1M15 62h1M19 62h1M22 62h1M26 62h1M30 62h4M48 62h1M72 62h1M75 62h1M84 62h1M88 62h1M16 63h1M19 63h1M23 63h1M26 63h1M48 63h1M72 63h1M76 63h1M84 63h1M88 63h1M16 64h1M18 64h1M24 64h1M27 64h1M49 64h1M72 64h1M77 64h1M83 64h1M17 65h2M28 65h1M49 65h1M72 65h1M78 65h1M82 65h2M87 65h1M29 66h1M49 66h1M78 66h1M81 66h1M83 66h1M86 66h1M28 67h1M49 67h1M71 67h1M78 67h1M80 67h1M83 67h1M85 67h1M26 68h2M49 68h1M71 68h1M78 68h2M83 68h2M23 69h3M48 69h2M70 69h1M23 70h1M30 70h1M48 70h1M50 70h4M69 70h1M24 71h1M31 71h1M47 71h1M54 71h2M67 71h2M70 71h1M25 72h1M33 72h1M45 72h2M56 72h3M65 72h2M70 72h1M26 73h2M32 73h1M35 73h1M43 73h3M55 73h1M59 73h5M67 73h1M69 73h1M28 74h2M31 74h1M41 74h2M45 74h1M53 74h2M68 74h1M30 75h5M40 75h1M43 75h3M52 75h1M65 75h1M69 75h1M29 76h1M34 76h1M39 76h1M43 76h1M52 76h2M56 76h1M66 76h4M28 77h1M33 77h2M38 77h3M43 77h1M54 77h2M67 77h1M28 78h4M34 78h1M37 78h1M41 78h3M55 78h1M64 78h2M68 78h1M34 79h1M36 79h1M61 79h1M66 79h3M35 80h1M54 80h1M58 80h2M54 81h3" />
<path stroke="#c5d5de" d="M40 15h1M35 16h1M40 16h2M35 17h3M40 17h2M60 17h1M66 17h1M36 18h6M60 18h2M63 18h2M36 19h8M61 19h4M37 20h7M59 20h7M34 21h8M58 21h7M35 22h6M55 22h3M59 22h5M65 22h2M37 23h3M42 23h1M53 23h6M60 23h7M38 24h1M41 24h1M43 24h1M51 24h9M61 24h5M40 25h3M44 25h1M46 25h15M62 25h3M39 26h3M43 26h1M45 26h16M62 26h1M39 27h23M38 28h23M38 29h22M39 30h10M52 30h8M41 31h7M54 31h7M42 32h6M56 32h6M43 33h5M57 33h6M43 34h5M57 34h4M62 34h1M43 35h6M57 35h5M63 35h1M42 36h7M57 36h3M34 37h1M36 37h1M41 37h9M56 37h4M35 38h16M55 38h6M32 39h1M38 39h10M52 39h11M31 40h1M40 40h7M53 40h11M41 41h6M55 41h9M65 41h1M42 42h5M56 42h9M66 42h2M26 43h1M33 43h1M42 43h5M56 43h10M67 43h2M24 44h1M32 44h2M42 44h6M56 44h11M68 44h2M32 45h3M41 45h7M56 45h7M64 45h4M69 45h1M33 46h1M35 46h1M40 46h9M55 46h8M64 46h4M69 46h2M34 47h4M40 47h10M54 47h5M60 47h4M65 47h4M70 47h2M79 47h1M33 48h4M39 48h3M43 48h5M49 48h10M61 48h3M65 48h5M71 48h1M80 48h1M33 49h3M38 49h3M42 49h6M49 49h7M57 49h3M61 49h3M66 49h4M71 49h2M74 49h1M34 50h2M37 50h4M42 50h6M49 50h3M53 50h3M57 50h3M61 50h3M67 50h2M70 50h5M77 50h1M34 51h1M36 51h4M42 51h6M49 51h3M53 51h3M57 51h3M62 51h3M69 51h6M80 51h1M36 52h3M41 52h7M49 52h3M53 52h3M58 52h3M62 52h3M70 52h5M33 53h1M35 53h4M40 53h8M50 53h2M53 53h4M58 53h3M62 53h1M65 53h3M71 53h4M32 54h3M36 54h2M39 54h10M53 54h4M58 54h3M63 54h6M32 55h4M38 55h14M53 55h4M62 55h8M32 56h20M54 56h2M57 56h13M32 57h20M56 57h13M33 58h36M34 59h6M45 59h24M36 60h2M47 60h21M48 61h19M49 62h17M50 63h14M51 64h11" />
<path stroke="#acbdcd" d="M60 19h1M58 20h1M65 21h1M64 22h1M34 34h1M64 34h1M33 39h1M32 40h1M30 41h3M28 42h5M27 43h5M25 44h6M23 45h7M31 45h1M22 46h1M24 46h6M31 46h2M21 47h1M24 47h6M32 47h1M38 47h2M59 47h1M19 48h1M24 48h7M42 48h1M48 48h1M59 48h1M24 49h4M30 49h1M32 49h1M36 49h2M41 49h1M56 49h1M24 50h3M30 50h1M33 50h1M64 50h1M24 51h1M30 51h1M32 51h1M40 51h1M32 52h2M35 52h1M40 52h1M66 52h1M68 52h2M31 53h2M49 53h1M69 53h2M31 54h1M30 55h2M30 56h2M53 56h1M29 57h3M69 57h2M29 58h4M69 58h2M29 59h5M69 59h2M29 60h7M68 60h3M29 61h5M67 61h5M66 62h6M49 63h1M64 63h8M50 64h1M62 64h10M50 65h22M50 66h22M50 67h7M59 67h12M50 68h7M60 68h11M51 69h5M62 69h8M55 70h1M65 70h4" />
<path stroke="#29398b" d="M35 30h3M34 39h4M48 39h4M33 40h1M38 40h2M47 40h1M52 40h1M40 41h1M53 41h1M22 47h2M80 47h2M20 48h4M82 48h2M19 49h5M29 49h1M84 49h1M18 50h5M27 50h3M85 50h1M18 51h5M26 51h4M86 51h1M17 52h13M87 52h1M17 53h13M87 53h1M16 54h14M70 54h1M88 54h1M16 55h13M88 55h1M16 56h9M26 56h3M71 56h1M88 56h1M16 57h9M72 57h1M89 57h1M15 58h6M22 58h4M89 58h1M15 59h6M22 59h4M16 60h5M23 60h3M40 60h5M16 61h4M23 61h3M37 61h10M75 61h1M84 61h1M16 62h3M24 62h2M27 62h1M34 62h1M39 62h9M17 63h2M24 63h2M28 63h1M41 63h7M17 64h1M28 64h3M41 64h8M78 64h1M84 64h1M87 64h1M29 65h4M42 65h7M84 65h1M42 66h7M84 66h1M42 67h7M57 67h1M84 67h1M31 68h1M41 68h8M57 68h2M39 69h9M56 69h5M24 70h4M35 70h13M56 70h8M25 71h5M33 71h14M56 71h11M26 72h6M34 72h1M37 72h8M59 72h6M28 73h4M33 73h2M36 73h7M64 73h3M30 74h1M32 74h2M36 74h5M55 74h13M35 75h5M54 75h2M57 75h8M66 75h3M35 76h4M54 76h2M57 76h9M35 77h3M57 77h6M64 77h3M35 78h2M56 78h6M66 78h2M35 79h1M56 79h4M55 80h2" />
<path stroke="#315a9c" d="M38 30h1M49 30h3M38 31h1M48 31h1M52 31h2M35 32h1M39 32h1M49 32h1M54 32h1M36 33h2M40 33h2M49 33h3M36 34h3M40 34h2M50 34h4M55 34h1M37 35h2M40 35h2M50 35h1M52 35h2M55 35h1M39 36h2M55 36h1M52 37h3M51 40h1M34 41h2M48 41h1M35 42h2M39 42h2M48 42h3M35 43h3M39 43h2M48 43h5M54 43h1M20 44h1M36 44h2M39 44h2M49 44h1M51 44h2M54 44h1M19 45h1M38 45h2M54 45h1M18 46h1M23 46h1M51 46h3M18 47h1M17 48h2M17 49h2M28 49h1M81 49h1M16 50h2M23 50h1M16 51h2M23 51h1M25 51h1M82 51h1M16 52h1M30 52h1M86 52h1M15 53h2M75 53h1M15 54h1M71 54h1M73 54h1M75 54h1M87 54h1M15 55h1M71 55h6M72 56h5M73 57h5M83 57h1M88 57h1M73 58h5M84 58h1M88 58h1M74 59h5M84 59h2M87 59h2M75 60h5M83 60h6M76 61h8M85 61h4M28 62h1M35 62h4M76 62h8M85 62h3M29 63h12M77 63h7M85 63h3M31 64h10M79 64h4M85 64h2M33 65h9M79 65h3M85 65h2M32 66h10M79 66h2M85 66h1M29 67h2M32 67h10M58 67h1M79 67h1M28 68h3M32 68h9M59 68h1M26 69h4M31 69h8M61 69h1M28 70h2M31 70h4M64 70h1" />
<path stroke="#183162" d="M34 31h1M39 31h1M40 32h1M34 33h2M38 33h1M53 33h1M55 33h1M39 34h1M48 34h2M54 34h1M36 35h1M39 35h1M51 35h1M54 35h1M37 36h2M50 36h1M52 36h3M51 37h1M39 41h1M33 42h2M37 42h1M52 42h1M54 42h1M38 43h1M47 43h1M53 43h1M35 44h1M38 44h1M48 44h1M50 44h1M53 44h1M36 45h2M49 45h1M51 45h3M36 46h1M50 46h1M15 56h1M25 56h1M15 57h1M25 57h1M27 57h1M21 58h1M27 58h1M27 59h1M22 60h1M26 60h1M26 61h1M23 62h1M29 62h1M27 63h1M25 64h1M30 66h2M72 66h1M31 67h1M30 69h1M30 71h1M32 71h1M69 71h1M32 72h1M35 72h2M67 72h3M56 73h3M68 73h1M34 74h2M43 74h2M41 75h2M53 75h1M56 75h1M30 76h4M40 76h3M29 77h4M41 77h2M56 77h1M63 77h1M32 78h1M62 78h2M54 79h2M60 79h1M57 80h1" />
<path stroke="#3983b4" d="M35 31h3M49 31h3M36 32h3M50 32h4M52 33h1M34 40h4M48 40h3M36 41h3M49 41h4M51 42h1M19 46h1M81 48h1M82 49h2M75 50h2M82 50h3M75 51h5M83 51h3M75 52h11M76 53h11M76 54h11M77 55h11M77 56h11M78 57h5M84 57h4M78 58h6M85 58h3M79 59h5M86 59h1M80 60h3" />
<path stroke="#949cb4" d="M35 36h1M35 37h1M34 38h1M68 39h1M69 40h1M70 41h1M71 42h1M72 43h1M73 44h2M63 45h1M75 45h2M63 46h1M77 46h3M64 47h1M48 49h1M65 49h1M52 50h1M66 50h1M60 51h1M67 51h1M56 52h1M48 53h1M72 54h1M74 54h1M52 56h1M52 57h1" />
</svg>