<svg xmlns="http://www.w3.org/2000/svg" viewBox="0 -0.5 96 96" shape-rendering="crispEdges">
<metadata>Made with Pixels to Svg https://codepen.io/shshaw/pen/XbxvNj</metadata>
<path stroke="#101010" d="M40 17h4M39 18h1M39 19h1M37 20h4M31 21h5M30 22h1M29 23h1M29 24h1M29 25h1M29 26h1M29 27h1M29 28h1M29 29h1M29 30h1M29 31h1M30 32h1M65 32h1M31 33h5M60 33h5M39 34h18M39 35h18M37 36h1M40 36h16M37 37h1M36 38h1M58 38h1M36 39h1M59 39h1M29 40h1M35 40h1M59 40h1M35 41h1M60 41h1M28 42h1M34 42h1M60 42h1M34 43h1M25 44h1M33 44h1M24 46h1M66 46h1M23 47h2M66 47h1M23 48h1M65 48h2M22 49h1M66 49h1M22 50h1M66 50h1M21 51h1M67 51h1M21 52h1M67 52h1M20 53h1M68 53h1M20 54h1M68 54h1M69 55h1M18 56h1M69 56h1M18 57h1M70 57h1M19 58h4M70 58h1M21 59h1M65 59h6M76 59h1M22 60h1M66 60h1M69 60h1M75 60h1M23 61h1M70 61h1M74 61h1M24 62h7M59 62h5M70 62h2M73 62h1M24 63h1M71 63h2M23 64h1M71 64h1M23 65h1M71 65h1M78 65h1M24 66h1M70 66h1M77 66h2M76 67h1M25 68h1M69 68h2M72 68h1M74 68h1M77 68h1M26 69h1M69 69h1M71 69h1M73 69h5M68 70h3M72 70h1M74 70h1M27 71h1M67 71h9M28 72h1M66 72h10M29 73h2M64 73h8M73 73h3M31 74h4M60 74h13M36 75h5M54 75h19M41 76h14M56 76h5M62 76h6M69 76h2M52 77h2M56 77h3M63 77h4" />
<path stroke="#5a2920" d="M44 17h4M41 20h16M66 28h1M66 29h1M66 30h1M66 31h1" />
<path stroke="#7b3129" d="M48 17h8M56 18h1M56 19h1M57 20h4M36 21h2M62 21h3M65 22h1M66 23h1M66 24h1M66 25h1M66 26h1M66 27h1M30 31h1M31 32h6M37 33h23M59 38h1M60 39h1M61 40h1M66 45h1M67 47h1M68 48h1M69 49h1M70 50h1M71 51h1M72 52h1M73 53h1M74 54h1M75 55h1M75 56h1M76 57h1M76 58h1M72 59h2M70 60h2" />
<path stroke="#bd2952" d="M40 18h9M40 19h14M61 21h1M31 22h30M30 23h30M30 24h29M60 24h1M30 25h30M30 26h29M60 26h1M30 27h30M30 28h29M60 28h1M30 29h30M61 29h1M30 30h29M60 30h1M31 31h29M61 31h1M37 32h28M61 41h2M63 42h1M64 43h1M65 44h1M75 58h1M74 59h2M72 60h3M71 61h3M72 62h1" />
<path stroke="#e64a5a" d="M49 18h3M54 19h2M38 21h6M61 22h4M60 23h6M59 24h1M61 24h5M60 25h6M59 26h1M61 26h5M60 27h6M59 28h1M61 28h5M60 29h1M62 29h4M59 30h1M61 30h5M60 31h1M62 31h4M75 57h1M72 58h2" />
<path stroke="#ee7b8b" d="M52 18h4M44 21h17M60 40h1M61 42h2M62 43h2M67 48h1M67 49h2M67 50h3M68 51h3M68 52h4M69 53h4M69 54h5M70 55h5M70 56h5M71 57h4M71 58h1M74 58h1M71 59h1" />
<path stroke="#29394a" d="M36 33h1M38 34h1M57 34h1M38 36h2M56 36h2M43 37h10M58 37h1M30 39h5M28 41h2M26 43h7M57 43h4M32 44h1M57 44h1M62 44h2M25 45h1M33 45h1M56 45h1M65 45h1M33 46h1M56 46h1M30 47h2M34 47h1M55 47h1M30 48h3M34 48h1M55 48h1M58 48h2M30 49h1M32 49h1M35 49h1M54 49h1M57 49h3M30 50h1M32 50h1M35 50h1M54 50h1M57 50h1M59 50h1M30 51h3M35 51h1M54 51h1M57 51h1M59 51h1M31 52h2M36 52h1M53 52h1M57 52h3M36 53h1M53 53h1M57 53h2M37 54h1M52 54h1M19 55h1M37 55h1M52 55h1M36 56h1M52 56h1M29 57h2M36 57h1M53 57h1M59 57h1M23 58h6M35 58h1M53 58h1M60 58h3M35 59h1M54 59h1M34 60h1M55 60h1M24 61h1M32 61h2M56 61h2M31 62h1M58 62h1M73 63h1M75 63h2M72 64h5M72 65h2M76 65h2M71 66h2M24 67h2M69 67h4M71 68h1M73 68h1M68 69h1M70 69h1M72 69h1M26 70h2M71 70h1M73 70h1M35 74h1M59 74h1" />
<path stroke="#524118" d="M38 37h1M41 37h2M53 37h2M57 37h1M37 38h1M39 38h2M53 38h4M41 39h12M40 40h1M53 40h1M40 41h1M54 41h1M57 41h1M40 42h1M55 42h2M39 43h1M56 43h1M39 44h1M56 44h1M39 45h1M38 46h1M25 47h1M38 47h1M38 48h1M64 48h1M26 49h1M37 49h1M26 50h1M37 50h1M63 50h1M37 51h1M63 51h1M27 52h1M27 53h1M62 53h1M62 54h1M28 55h2M19 56h1M30 56h1M59 56h2M19 57h1M28 57h1M63 58h1M29 59h1M60 59h1M64 59h1M29 60h1M59 60h1M30 61h1M34 61h1M58 61h1M65 61h1M34 62h1M64 62h1M25 63h7M33 63h1M61 63h1M70 63h1M25 64h4M33 64h1M61 64h1M67 64h3M27 65h1M29 65h2M33 65h1M61 65h8M26 66h1M28 66h10M57 66h8M66 66h1M68 66h1M27 67h1M29 67h37M67 67h1M28 68h1M30 68h35M66 68h1M29 69h37M29 70h37M67 70h1M30 71h35M30 72h35M31 73h33M36 74h23M41 75h13" />
<path stroke="#83734a" d="M39 37h2M55 37h2M38 38h1M41 38h12M57 38h1M37 39h4M36 40h4M41 40h12M36 41h4M41 41h13M35 42h5M41 42h14M35 43h4M40 43h16M61 43h1M34 44h5M40 44h16M64 44h1M34 45h5M40 45h16M34 46h4M39 46h17M35 47h3M39 47h16M24 48h2M35 48h3M39 48h16M23 49h3M36 49h1M38 49h16M63 49h1M23 50h3M36 50h1M38 50h16M22 51h5M36 51h1M38 51h16M22 52h5M37 52h16M62 52h1M21 53h6M37 53h16M21 54h7M38 54h14M20 55h8M38 55h14M61 55h1M20 56h10M34 56h2M37 56h15M20 57h8M31 57h5M37 57h16M29 58h6M36 58h17M22 59h7M30 59h5M36 59h18M23 60h6M30 60h4M35 60h20M25 61h5M31 61h1M35 61h21M32 62h2M35 62h23M32 63h1M34 63h27M69 63h1M24 64h1M29 64h1M35 64h24M66 64h1M70 64h1M24 65h3M28 65h1M40 65h15M69 65h2M25 66h1M27 66h1M38 66h2M55 66h2M65 66h1M67 66h1M69 66h1M26 67h1M28 67h1M66 67h1M68 67h1M26 68h2M29 68h1M65 68h1M67 68h2M27 69h2M66 69h2M28 70h1M66 70h1M28 71h2M65 71h2M29 72h1M65 72h1" />
<path stroke="#cda45a" d="M53 39h1M54 40h1M58 40h1M30 41h1M55 41h1M58 41h2M29 42h4M57 42h3M33 43h1M61 44h1M64 45h1M25 46h1M32 47h1M26 48h1M57 48h1M64 49h2M64 50h2M27 51h1M64 51h3M30 52h1M63 52h4M59 53h1M63 53h5M28 54h1M63 54h5M53 55h2M62 55h7M53 56h4M61 56h8M54 57h5M60 57h10M54 58h6M64 58h6M55 59h5M61 59h3M56 60h3M60 60h6M67 60h2M59 61h6M66 61h4M65 62h5M62 63h7M30 64h3M34 64h1M59 64h2M62 64h4M31 65h2M34 65h6M55 65h6M40 66h15" />
<path stroke="#ffee9c" d="M54 39h5M30 40h5M55 40h3M31 41h4M56 41h1M33 42h1M58 44h3M57 45h7M57 46h9M56 47h9M56 48h1M60 48h4M31 49h1M55 49h2M60 49h3M31 50h1M55 50h2M58 50h1M60 50h3M55 51h2M58 51h1M60 51h3M54 52h3M60 52h2M54 53h3M60 53h2M53 54h9M55 55h6M57 56h2" />
<path stroke="#f6d55a" d="M26 44h6M26 45h7M26 46h7M26 47h4M33 47h1M65 47h1M27 48h3M33 48h1M27 49h3M33 49h2M27 50h3M33 50h2M28 51h2M33 51h2M28 52h2M33 52h3M28 53h8M29 54h8M30 55h7M31 56h3" />
<path stroke="#394a5a" d="M74 65h2M73 66h4M73 67h3M75 68h2" />
</svg>