<svg xmlns="http://www.w3.org/2000/svg" viewBox="0 -0.5 96 96" shape-rendering="crispEdges">
<metadata>Made with Pixels to Svg https://codepen.io/shshaw/pen/XbxvNj</metadata>
<path stroke="#101010" d="M48 28h5M46 29h2M45 30h1M44 31h1M43 33h1M62 33h3M42 34h2M42 35h1M41 36h1M41 37h1M40 38h1M40 39h1M67 39h1M40 40h1M67 40h1M40 41h1M66 41h1M40 42h1M66 42h1M40 43h1M40 44h1M65 44h1M41 45h1M65 45h1M41 46h1M64 46h1M42 47h1M63 47h1M36 48h1M62 48h1M36 49h1M44 49h2M60 49h1M36 50h1M43 50h1M45 50h1M57 50h3M42 51h1M45 51h1M48 51h9M34 52h3M45 52h1M34 53h1M35 54h1M44 54h1M59 54h2M36 55h2M43 55h1M52 55h1M61 55h2M38 56h2M52 56h1M63 56h5M39 57h1M44 57h1M51 57h2M40 58h1M45 58h1M50 58h1M63 58h1M40 59h1M44 59h1M47 59h3M62 59h1M41 60h1M61 60h1M42 61h1M43 62h1M59 62h1M44 63h1M45 64h1M58 64h1M47 65h1M56 65h2M48 66h8" />
<path stroke="#944a10" d="M54 28h5M52 29h2M59 29h2M50 30h2M61 30h1M49 31h1M62 31h1M43 32h2M48 32h1M63 32h1M48 33h1M60 33h2M57 34h3M65 34h1M44 35h1M55 35h2M66 35h1M44 36h1M54 36h1M66 36h1M53 37h1M67 37h1M67 38h1M66 43h1M43 48h1M61 49h1" />
<path stroke="#ffac62" d="M48 29h3M54 29h5M46 30h2M56 30h5M45 31h1M58 31h4M59 32h3M60 34h4M62 35h4M62 36h4M63 37h2" />
<path stroke="#cd8320" d="M51 29h1M48 30h2M52 30h4M46 31h3M50 31h8M45 32h3M49 32h10M62 32h1M44 33h4M49 33h11M44 34h13M64 34h1M43 35h1M45 35h10M57 35h5M42 36h2M45 36h9M55 36h7M42 37h11M54 37h9M65 37h2M41 38h26M41 39h26M41 40h26M41 41h25M41 42h25M41 43h25M41 44h24M42 45h23M42 46h22M43 47h20M44 48h18M46 49h14M47 50h9" />
<path stroke="#414141" d="M36 47h2M30 48h1M38 48h2M42 48h1M30 49h1M40 49h1M43 49h1M30 50h1M34 50h1M41 50h1M46 50h1M56 50h1M30 51h1M35 51h1M37 51h1M47 51h1M31 52h1M51 52h1M53 52h1M28 53h1M44 53h2M51 53h1M53 53h1M58 53h1M62 53h3M28 54h1M50 54h1M66 54h2M29 55h1M49 55h1M68 55h1M30 56h2M44 56h1M49 56h1M61 56h1M32 57h2M38 57h1M43 57h1M48 57h1M64 57h1M33 58h1M38 58h1M41 58h1M47 58h1M53 58h1M61 58h1M34 59h1M39 59h1M53 59h1M61 59h1M34 60h1M36 60h1M38 60h1M43 60h1M54 60h1M35 61h1M37 61h1M44 61h1M53 61h1M56 61h1M60 61h1M38 62h1M45 62h1M52 62h1M55 62h1M39 63h1M47 63h1M50 63h1M54 63h1M59 63h1M40 64h1M49 64h5M41 65h2M46 65h1M43 66h2M45 67h4" />
<path stroke="#ac6a31" d="M31 48h1M32 49h2M59 51h1M37 52h2M57 52h1M60 52h2M29 53h4M52 54h2M65 54h1M50 55h1M37 56h1M40 56h1M51 56h1M62 56h1M34 57h1M61 57h1M37 58h1M49 58h1M35 59h1M42 60h1M56 60h1M39 61h1M57 61h1M40 62h1M57 62h1M41 63h1M46 63h1M51 63h1M55 63h2M42 64h2M48 64h1M54 64h1M44 65h2M45 66h3" />
<path stroke="#ffe69c" d="M37 48h1M31 49h1M37 49h2M31 50h2M37 50h4M44 50h1M32 51h2M38 51h4M43 51h2M32 52h2M39 52h1M41 52h1M43 52h2M35 53h5M42 53h2M61 53h1M29 54h4M37 54h4M42 54h1M62 54h3M31 55h3M39 55h4M64 55h3M33 56h1M41 56h3M40 57h3M42 58h3M41 59h1M43 59h1M43 61h1M44 62h1M45 63h1M46 64h2M49 65h2" />
<path stroke="#eebd62" d="M39 49h1M33 50h1M31 51h1M34 51h1M57 51h2M42 52h1M52 52h1M54 52h3M58 52h2M33 53h1M52 53h1M54 53h4M59 53h2M33 54h1M36 54h1M43 54h1M51 54h1M54 54h5M61 54h1M30 55h1M38 55h1M51 55h1M53 55h8M63 55h1M67 55h1M32 56h1M34 56h1M36 56h1M50 56h1M53 56h8M35 57h3M49 57h2M53 57h8M62 57h2M34 58h3M48 58h1M54 58h7M62 58h1M36 59h3M42 59h1M54 59h7M35 60h1M37 60h1M55 60h1M57 60h4M38 61h1M54 61h2M58 61h2M39 62h1M53 62h2M58 62h1M40 63h1M52 63h2M57 63h2M41 64h1M55 64h3M43 65h1M48 65h1M51 65h5" />
<path stroke="#ac4141" d="M40 52h1M40 53h2M34 54h1M41 54h1M34 55h2M35 56h1" />
</svg>