<svg xmlns="http://www.w3.org/2000/svg" viewBox="0 -0.5 96 96" shape-rendering="crispEdges">
<metadata>Made with Pixels to Svg https://codepen.io/shshaw/pen/XbxvNj</metadata>
<path stroke="#bd7352" d="M44 37h1M46 38h4M47 39h4M41 40h2M46 40h6M40 41h13M40 42h8M53 42h1M40 43h6M39 44h6M39 45h6M39 46h5M39 47h5M39 48h5M39 49h5M40 50h4M41 51h3M42 52h2" />
<path stroke="#9c5a6a" d="M45 37h1M42 38h2M41 39h1M51 39h1M40 40h1M52 40h1M39 41h1M48 42h5M46 43h8M38 44h1M45 44h10M45 45h10M44 46h11M44 47h11M44 48h11M44 49h11M39 50h1M44 50h11M39 51h2M44 51h11M39 52h3M44 52h11M41 53h14M42 54h11M43 55h9M47 56h1" />
<path stroke="#523129" d="M46 37h4M50 38h2M53 41h1M39 42h1M39 43h1" />
<path stroke="#d59c6a" d="M44 38h2M42 39h5M43 40h3" />
<path stroke="#101010" d="M52 39h1M53 40h1M54 42h1M54 43h1M55 44h1M38 45h1M55 45h1M38 46h1M55 46h1M38 47h1M55 47h1M38 48h1M55 48h1M38 49h1M55 49h1M38 50h1M55 50h1M38 51h1M55 51h1M38 52h1M55 52h1M34 53h1M38 53h2M55 53h2M58 53h1M27 54h1M35 54h1M37 54h1M53 54h1M59 54h1M27 55h1M35 55h1M42 55h1M52 55h1M60 55h1M29 56h1M34 56h1M43 56h1M46 56h1M51 56h2M60 56h1M47 57h1M53 57h1M54 58h1M37 59h1M42 59h1M47 59h1M54 59h1" />
<path stroke="#837b4a" d="M35 49h3M34 50h1M56 50h1M30 51h3M28 52h2M36 52h2M27 53h1M35 53h2M32 54h3M36 54h1M32 55h3M53 55h1M58 55h2M28 56h1M31 56h3M37 56h3M42 56h1M53 56h7M30 57h1M36 57h7M44 57h1M52 57h1M54 57h6M36 58h6M43 58h3M48 58h2M52 58h2M55 58h2M39 59h3M43 59h4M48 59h6M55 59h1M42 60h1M44 60h4M49 60h3M54 60h1" />
<path stroke="#e6e6b4" d="M35 50h3M34 51h2M56 51h1M30 52h3M32 53h2" />
<path stroke="#5a5220" d="M57 50h1M33 51h1M58 51h1M33 52h1M59 52h1M37 53h1M40 53h1M57 53h1M59 53h1M41 54h1M54 54h2M25 55h2M36 55h1M61 55h1M30 56h1M35 56h1M44 56h2M48 56h3M61 56h2M31 57h3M35 57h1M43 57h1M35 58h1M42 58h1M47 58h1M36 59h1M38 59h1M43 60h1" />
<path stroke="#b4ac73" d="M36 51h2M57 51h1M34 52h2M56 52h3M28 53h4M28 54h4M38 54h3M56 54h3M28 55h4M37 55h5M54 55h4M26 56h2M36 56h1M40 56h2M28 57h2M34 57h1M45 57h2M48 57h4M60 57h3M30 58h5M46 58h1M50 58h2M57 58h4M29 59h1M31 59h1M33 59h3M56 59h2M59 59h1M61 59h1M30 60h1M32 60h1M34 60h1M36 60h6M48 60h1M52 60h2M55 60h1M58 60h1M60 60h1M31 61h1M35 61h1M37 61h1M39 61h1M43 61h1M45 61h5M51 61h1M54 61h1M56 61h1M42 62h1M44 62h1M46 62h1M48 62h1M50 62h1M52 62h1M47 63h1M49 63h1" />
</svg>