<svg xmlns="http://www.w3.org/2000/svg" viewBox="0 -0.5 96 96" shape-rendering="crispEdges">
<metadata>Made with Pixels to Svg https://codepen.io/shshaw/pen/XbxvNj</metadata>
<path stroke="#9c7341" d="M49 22h2M64 22h1M51 23h1M65 23h1M52 24h1M65 24h1M53 25h1M65 25h1M50 26h1M53 26h1M66 26h1M54 27h1M66 27h1M51 28h1M54 28h1M61 28h1M66 28h1M51 29h1M61 29h2M66 29h1M51 30h2M60 30h3M66 30h1M51 31h2M54 31h1M60 31h3M50 32h6M60 32h3M50 33h6M59 33h4M51 34h5M59 34h5M51 35h3M56 35h2M59 35h5M65 35h1M52 36h1M54 36h4M59 36h6M66 36h1M53 37h12M66 37h2M53 38h11M67 38h1M52 39h13M52 40h14M52 41h4M59 41h8M49 42h7M57 42h2M61 42h5M47 43h9M57 43h4M62 43h3M48 44h9M58 44h6M50 45h7M59 45h5M49 46h7M57 46h7M48 47h9M59 47h4M51 48h12M66 48h1M51 49h2M54 49h9M51 50h1M54 50h3M58 50h2M61 50h1M55 51h1M59 51h1M32 61h1M31 62h1M51 62h1M57 62h1M30 63h2M51 63h1M57 63h1M28 64h3M37 64h2M50 64h1M52 64h1M56 64h1M28 65h3M36 65h3M52 65h1M56 65h1M28 66h5M36 66h3M47 66h1M52 66h2M55 66h2M29 67h3M36 67h5M45 67h3M52 67h4M29 68h3M37 68h3M45 68h3M53 68h3M29 69h3M37 69h3M46 69h3M53 69h2M30 70h2M37 70h3M46 70h4M53 70h1M56 70h1M30 71h4M38 71h3M42 71h1M46 71h2M49 71h1M58 71h1M30 72h2M33 72h1M38 72h3M54 72h1M57 72h1M39 73h1" />
<path stroke="#4a3110" d="M49 23h1M63 23h1M49 24h1M62 24h1M49 25h1M62 25h1M61 26h1M50 27h1M61 27h1M50 28h1M60 28h1M50 29h1M55 29h1M60 29h1M50 30h1M55 30h1M59 30h1M50 31h1M55 31h1M59 31h1M66 31h2M56 32h1M59 32h1M65 32h1M56 33h1M58 33h1M58 34h1M54 35h1M58 35h1M58 36h1M64 38h1M67 39h1M67 40h1M49 41h3M56 41h3M67 41h2M46 42h3M59 42h2M69 42h2M61 43h1M65 43h1M64 44h1M48 45h2M57 45h1M64 45h1M64 46h1M58 47h1M63 47h1M50 48h1M63 48h1M53 49h1M72 49h1M53 50h1M60 50h1M62 50h1M70 50h1M72 50h1M72 51h1M69 52h1M72 52h1M58 62h1M58 63h1M44 64h1M51 64h1M57 64h1M44 65h1M50 65h1M57 65h1M33 66h1M41 66h1M44 66h1M48 66h1M57 66h1M32 67h1M41 67h1M44 67h1M48 67h1M56 67h1M32 68h1M40 68h1M44 68h1M48 68h1M56 68h1M32 69h1M40 69h1M45 69h1M49 69h1M56 69h1M32 70h2M40 70h1M50 70h1M57 70h1M34 71h1M41 71h1M48 71h1M50 71h1M32 72h1M34 72h1M43 72h1M48 72h1M56 72h1M58 72h1M38 73h1M41 73h1M43 73h1M41 74h2" />
<path stroke="#ffbd73" d="M50 23h1M64 23h1M50 24h2M63 24h2M50 25h3M63 25h2M51 26h2M62 26h4M51 27h3M62 27h4M52 28h2M62 28h4M52 29h3M63 29h3M53 30h2M63 30h3M53 31h1M63 31h3M63 32h2M66 32h1M63 33h4M64 34h2M64 35h1M65 38h2M65 39h2M66 40h1M55 69h1M54 70h2M54 71h4M41 72h2M55 72h1M40 73h1M42 73h1" />
<path stroke="#b49473" d="M69 28h2M68 29h1M70 29h1M67 30h1M70 30h1M70 31h1M70 32h1M69 33h1M69 34h3M68 35h1M71 35h1M70 36h1M69 37h1M68 38h1M71 44h1M71 45h1M72 46h1M66 47h1M72 47h1M72 48h1M70 49h1M69 51h1" />
<path stroke="#000000" d="M49 29h1M49 30h1M49 31h1M49 32h1M67 32h1M49 33h1M67 33h1M50 34h1M56 34h2M66 34h1M27 35h1M50 35h1M55 35h1M66 35h1M27 36h1M51 36h1M53 36h1M65 36h1M27 37h1M52 37h1M65 37h1M27 38h1M52 38h1M27 39h1M51 39h1M51 40h1M28 41h1M70 41h1M25 42h1M28 42h1M56 42h1M71 42h1M25 43h1M28 43h1M46 43h1M56 43h1M70 43h2M26 44h1M47 44h1M57 44h1M26 45h1M58 45h1M48 46h1M56 46h1M27 47h1M47 47h1M57 47h1M28 48h1M48 48h2M28 49h1M34 49h1M49 49h2M63 49h1M65 49h2M29 50h1M34 50h1M48 50h1M50 50h1M52 50h1M57 50h1M64 50h1M66 50h1M30 51h1M34 51h1M46 51h2M51 51h1M54 51h1M56 51h1M58 51h1M60 51h2M67 51h1M70 51h1M31 52h1M55 52h1M59 52h1M61 52h1M67 52h1M71 52h1M62 53h1M68 53h1M63 54h1M28 55h1M28 56h1M27 57h1M61 57h1M25 58h2M61 58h2M24 59h1M28 59h1M34 59h1M62 59h1M64 59h3M23 60h1M27 60h1M32 60h2M40 60h1M46 60h1M57 60h1M62 60h1M23 61h4M31 61h1M33 61h1M40 61h1M46 61h1M51 61h1M57 61h2M63 61h1M26 62h1M30 62h1M32 62h1M39 62h1M45 62h1M50 62h1M52 62h1M56 62h1M59 62h2M63 62h1M25 63h1M28 63h2M32 63h1M37 63h3M44 63h2M50 63h1M52 63h1M56 63h1M61 63h3M25 64h3M31 64h1M35 64h2M39 64h1M43 64h1M45 64h1M49 64h1M53 64h1M55 64h1M27 65h1M31 65h5M39 65h1M41 65h2M45 65h1M47 65h2M51 65h1M53 65h1M55 65h1M27 66h1M35 66h1M39 66h2M45 66h2M51 66h1M54 66h1M28 67h1M35 67h1M51 67h1M28 68h1M36 68h1M52 68h1M28 69h1M36 69h1M52 69h1M29 70h1M36 70h1M45 70h1M52 70h1M29 71h1M37 71h1M45 71h1M53 71h1M29 72h1M37 72h1M46 72h2M49 72h1M53 72h1M30 73h4M37 73h1M54 73h4M38 74h3" />
<path stroke="#ffdeb4" d="M69 29h1M68 30h2M68 31h2M68 32h2M68 33h1M67 34h2M67 35h1M69 35h2M67 36h3M68 37h1M67 42h2M68 43h2M68 44h3M69 45h2M70 46h2M70 47h2M71 48h1" />
<path stroke="#6a6a6a" d="M27 34h2M29 35h1M30 36h1M30 37h1M31 38h1M31 39h1M27 40h1M32 40h1M32 41h1M26 42h1M32 42h1M27 43h1M33 43h1M28 44h2M33 44h1M29 45h1M33 45h1M27 46h1M33 46h1M34 47h1M34 48h1M29 49h1M36 50h7M49 50h1M35 51h1M43 51h3M48 51h3M52 51h2M57 51h1M34 52h1M50 52h5M56 52h3M60 52h1M31 53h1M53 53h9M30 54h3M57 54h6M29 55h5M29 56h7M60 56h1M28 57h12M27 58h17M59 58h2M63 58h1M25 59h3M29 59h5M35 59h14M55 59h7M24 60h3M28 60h4M34 60h6M41 60h5M47 60h4M52 60h5M58 60h4M27 61h4M34 61h6M41 61h5M47 61h4M52 61h5M59 61h4M27 62h3M33 62h6M40 62h5M46 62h4M53 62h3M61 62h2M26 63h2M33 63h4M40 63h4M46 63h4M53 63h3M32 64h3M40 64h3M46 64h3M54 64h1M40 65h1M46 65h1M54 65h1" />
<path stroke="#9c9c9c" d="M28 35h1M28 36h2M28 37h2M28 38h3M28 39h3M28 40h4M29 41h3M29 42h3M26 43h1M29 43h4M27 44h1M30 44h3M27 45h2M30 45h3M28 46h5M28 47h6M29 48h5M30 49h4M30 50h4M31 51h3M36 51h7M32 52h2M35 52h15M33 53h20M33 54h24M34 55h30M36 56h24M61 56h4M40 57h21M62 57h3M44 58h15M64 58h2M49 59h6" />
<path stroke="#414141" d="M69 41h1M30 53h1M32 53h1M29 54h1M64 55h1M65 56h1M65 57h1M66 58h1M51 60h1" />
<path stroke="#cdac8b" d="M66 42h1M66 43h2M65 44h3M65 45h4M65 46h5M64 47h2M67 47h3M64 48h2M67 48h4M64 49h1M67 49h3M71 49h1M67 50h3M71 50h1M68 51h1M71 51h1M68 52h1" />
</svg>