<svg xmlns="http://www.w3.org/2000/svg" viewBox="0 -0.5 96 96" shape-rendering="crispEdges">
<metadata>Made with Pixels to Svg https://codepen.io/shshaw/pen/XbxvNj</metadata>
<path stroke="#623118" d="M28 22h2M30 23h1M27 24h1M30 24h1M30 25h1M29 26h1M32 28h2M34 29h1M34 30h1M47 30h4M51 31h2M53 32h1M54 33h1M55 34h1M56 35h1M56 36h1M57 37h1M57 38h1M57 39h1M57 40h1M73 50h3M72 51h1M76 51h1M76 52h1M74 57h1M75 58h2M75 59h1M77 59h1M73 60h2M74 61h1M67 62h1M70 62h1M63 69h1M62 70h1M64 70h1M61 71h1" />
<path stroke="#101010" d="M27 23h1M25 24h2M24 25h1M26 25h1M24 26h4M37 29h7M35 30h2M44 30h3M33 31h2M37 31h4M47 31h2M32 32h1M35 32h2M41 32h4M49 32h2M18 33h1M32 33h2M45 33h3M51 33h1M18 34h1M31 34h1M48 34h2M18 35h1M30 35h1M18 36h1M30 36h1M19 37h1M19 38h1M20 39h1M21 40h1M22 41h1M27 41h1M23 42h2M27 42h1M25 43h3M27 44h1M27 45h1M26 46h1M26 47h1M26 48h1M26 49h1M26 50h1M55 50h1M26 51h2M56 51h1M25 52h1M28 52h2M57 52h1M25 53h1M30 53h3M58 53h1M74 53h2M25 54h2M33 54h4M54 54h3M59 54h1M73 54h1M25 55h1M27 55h3M37 55h17M56 55h1M59 55h1M24 56h1M30 56h3M56 56h1M60 56h1M24 57h1M33 57h5M54 57h3M60 57h1M24 58h1M38 58h16M57 58h1M61 58h1M24 59h1M58 59h1M62 59h1M25 60h1M58 60h1M63 60h1M77 60h1M25 61h2M59 61h1M64 61h2M75 61h2M24 62h1M66 62h1M24 63h1M34 63h1M48 63h2M67 63h1M70 63h1M24 64h1M35 64h13M67 64h1M70 64h1M23 65h1M35 65h1M40 65h1M43 65h1M45 65h1M48 65h2M68 65h2M23 66h1M34 66h1M40 66h1M43 66h1M45 66h1M48 66h1M50 66h1M23 67h1M34 67h1M40 67h1M43 67h1M45 67h3M50 67h1M23 68h1M35 68h1M41 68h3M51 68h1M23 69h1M35 69h1M51 69h1M24 70h1M33 70h2M51 70h1M25 71h8M52 71h1M64 71h1M53 72h11" />
<path stroke="#ee7329" d="M28 23h2M29 24h1M27 25h2M28 26h1M32 29h2M49 31h2M51 32h2M53 34h2M54 35h2M55 36h1M56 37h1M56 38h1M74 51h2M73 52h1M75 52h1M76 59h1M63 70h1" />
<path stroke="#a45220" d="M28 24h1M25 25h1M29 25h1M33 30h1M52 33h2M73 51h1M74 52h1M74 58h1M74 59h1M75 60h2M68 63h2M68 64h2M62 71h2" />
<path stroke="#292929" d="M23 27h2M28 27h2M22 28h1M30 28h1M21 29h1M31 29h1M20 30h1M32 30h1M19 31h1M32 31h1M19 32h1M52 34h1M50 35h1M53 35h1M51 36h1M54 36h1M29 37h1M52 37h1M55 37h1M29 38h1M53 38h1M55 38h1M28 39h1M54 39h1M56 39h1M28 40h1M54 40h3M68 50h2M70 51h2M26 52h2M72 52h1M26 53h4M73 53h1M27 54h6M30 55h7M54 55h2M74 55h1M33 56h23M74 56h1M38 57h16M73 58h1M73 59h1M72 60h1M27 61h1M56 61h2M70 61h2M28 62h4M53 62h3M60 62h1M68 62h2M32 63h2M50 63h3M60 63h1M61 64h1M41 65h2M46 65h2M61 65h1M41 66h2M46 66h2M61 66h1M41 67h2M62 67h1M62 68h1M62 69h1" />
<path stroke="#deeed5" d="M25 27h3M27 28h2M22 29h5M29 29h2M21 30h6M28 30h1M30 30h2M20 31h6M27 31h3M31 31h1M28 32h3M37 32h4M21 33h4M26 33h2M35 33h10M23 34h2M26 34h5M33 34h15M26 35h4M31 35h1M33 35h17M27 36h3M31 36h2M40 36h8M50 36h1M44 37h2M48 37h4M47 38h6M49 39h5M51 40h3M52 41h1M55 41h1M54 42h2M57 42h2M55 43h2M58 43h2M58 44h3M60 45h2M59 46h1M62 46h1M60 47h2M62 48h3M64 49h1M65 50h1M67 50h1M66 51h1M68 51h2M69 52h2M70 53h1M72 53h1M72 54h1M72 55h2M73 56h1M73 57h1M59 63h1M58 64h3M58 65h3M58 66h3M59 67h3M59 68h3M59 69h3M60 70h1M60 71h1" />
<path stroke="#7b836a" d="M23 28h4M29 28h1M27 29h2M27 30h1M29 30h1M26 31h1M30 31h1M20 32h8M31 32h1M25 33h1M28 33h4M25 34h1M32 34h1M32 35h1M33 36h1M48 36h2M46 37h2M23 41h1M56 41h1M56 42h1M57 43h1M56 44h2M58 45h2M60 46h2M62 47h2M66 50h1M67 51h1M71 52h1M71 53h1M31 63h1M32 64h3M33 65h2" />
<path stroke="#525252" d="M37 30h7M35 31h2M41 31h6M33 32h2M45 32h4M19 33h1M48 33h3M19 34h1M50 34h2M20 35h1M25 35h1M51 35h2M20 36h1M25 36h1M52 36h2M20 37h1M25 37h1M33 37h1M53 37h2M20 38h1M26 38h1M33 38h1M44 38h2M54 38h1M26 39h1M34 39h1M42 39h2M55 39h1M26 40h1M34 40h1M40 40h2M35 41h1M38 41h2M53 41h1M57 41h2M35 42h1M37 42h1M53 42h1M59 42h1M36 43h1M52 43h1M60 43h1M35 44h1M37 44h1M52 44h4M61 44h1M34 45h1M37 45h1M52 45h1M57 45h1M62 45h1M33 46h1M38 46h1M52 46h1M57 46h1M63 46h1M32 47h1M38 47h1M53 47h1M57 47h1M64 47h1M31 48h1M39 48h1M53 48h1M58 48h1M65 48h1M30 49h1M40 49h1M54 49h1M58 49h1M66 49h2M30 50h1M41 50h1M58 50h1M29 51h1M42 51h1M59 51h1M43 52h2M59 52h1M67 52h1M45 53h2M57 53h1M60 53h1M67 53h1M47 54h2M60 54h1M68 54h1M71 54h1M60 55h3M68 55h3M63 56h6M61 57h1M68 57h1M68 58h1M68 59h1M67 60h1M67 61h1" />
<path stroke="#bdcdac" d="M20 33h1M34 33h1M20 34h3M19 35h1M21 35h4M19 36h1M21 36h4M26 36h1M34 36h6M21 37h4M26 37h3M30 37h3M34 37h10M21 38h5M27 38h2M30 38h3M34 38h10M46 38h1M21 39h5M27 39h1M29 39h5M35 39h7M44 39h5M22 40h4M27 40h1M29 40h5M35 40h5M42 40h9M24 41h3M28 41h7M36 41h2M40 41h12M54 41h1M25 42h2M28 42h7M36 42h1M38 42h15M28 43h8M37 43h15M53 43h2M28 44h7M36 44h1M38 44h14M28 45h6M35 45h2M38 45h14M53 45h4M27 46h6M34 46h4M39 46h13M53 46h4M58 46h1M27 47h5M33 47h5M39 47h14M54 47h3M58 47h2M27 48h4M32 48h7M40 48h13M54 48h4M59 48h3M27 49h3M31 49h9M41 49h13M55 49h3M59 49h5M65 49h1M27 50h3M31 50h10M42 50h13M56 50h2M59 50h6M28 51h1M30 51h12M43 51h13M57 51h2M60 51h6M30 52h13M45 52h12M58 52h1M60 52h7M68 52h1M33 53h12M47 53h10M59 53h1M61 53h6M68 53h2M37 54h10M49 54h5M61 54h7M69 54h2M26 55h1M63 55h5M71 55h1M25 56h5M61 56h2M69 56h4M25 57h8M62 57h6M69 57h4M25 58h13M54 58h3M62 58h6M69 58h4M25 59h33M63 59h5M69 59h4M26 60h32M64 60h3M68 60h4M28 61h28M58 61h1M66 61h1M68 61h2M25 62h3M32 62h21M56 62h4M25 63h6M35 63h13M53 63h6M25 64h7M48 64h10M24 65h9M50 65h8M24 66h10M51 66h7M24 67h10M51 67h8M24 68h11M52 68h7M24 69h11M52 69h7M25 70h8M52 70h8M61 70h1M53 71h7" />
</svg>