<svg xmlns="http://www.w3.org/2000/svg" viewBox="0 -0.5 96 96" shape-rendering="crispEdges">
<metadata>Made with Pixels to Svg https://codepen.io/shshaw/pen/XbxvNj</metadata>
<path stroke="#c5b48b" d="M44 34h5M42 35h2M39 36h2M38 37h1M41 37h1M53 39h1M58 42h1M51 43h1M56 43h3M52 44h6M54 45h2M53 47h1M32 48h1M35 48h1M51 48h4M32 49h5M50 49h5M33 50h4M48 50h7M36 51h1M48 51h7M35 52h2M48 52h6M56 52h1M35 53h2M40 53h3M47 53h7M55 53h3M34 54h11M47 54h6M54 54h5M34 55h25M35 56h24M36 57h22M40 58h13M41 59h10M52 59h2M44 60h4" />
<path stroke="#f6f6c5" d="M44 35h5M42 36h9M39 37h1M42 37h10M53 37h2M39 38h15M37 39h16M54 39h3M36 40h6M44 40h14M35 41h6M45 41h14M35 42h5M46 42h12M36 43h4M46 43h5M52 43h4M34 44h4M47 44h5M33 45h3M48 45h5M32 46h3M50 46h4M32 47h3M51 47h2M33 48h2" />
<path stroke="#9c7b41" d="M49 35h2M41 36h1M52 36h3M55 37h1M37 38h2M54 38h1M36 39h1M57 39h1M35 43h1M34 51h2M55 52h1M34 53h1M54 53h1M53 54h1M53 58h2M40 59h1M43 60h1M48 60h1" />
<path stroke="#6a4a00" d="M51 36h1M40 37h1M52 37h1M55 38h2M58 39h1M35 40h1M58 40h1M34 41h1M59 41h1M34 42h1M34 43h1M60 43h1M33 44h1M61 44h1M32 45h1M53 45h1M62 45h1M60 46h2M31 47h1M54 47h1M56 47h4M31 48h1M55 48h1M31 49h1M55 49h1M32 50h1M55 50h1M33 51h1M55 51h1M54 52h1M59 54h1M59 55h1M59 56h1M35 57h1M39 59h1M51 60h3" />
<path stroke="#9c2908" d="M42 40h2M44 41h1M40 42h1M45 42h1M25 43h3M32 43h2M45 43h1M24 44h1M28 44h4M38 44h2M46 44h1M69 44h2M24 45h1M36 45h2M40 45h3M46 45h2M66 45h2M24 46h1M35 46h1M39 46h1M43 46h1M49 46h1M71 46h1M43 47h1M50 47h1M70 47h1M25 48h1M36 48h1M70 48h1M72 48h1M25 49h1M49 49h1M69 49h1M71 49h1M27 50h1M65 50h2M68 50h1M28 51h1M37 51h1M47 51h1M63 51h1M65 51h1M67 51h1M28 52h1M30 52h1M37 52h1M41 52h1M47 52h1M62 52h1M64 52h2M30 53h1M37 53h1M43 53h1M62 53h1M32 54h1M45 54h1M63 54h1" />
<path stroke="#101010" d="M41 41h1M59 42h1M40 43h1M59 43h1M58 44h1M71 44h1M56 45h2M72 45h1M54 46h2M72 46h1M24 47h1M35 47h1M39 47h1M72 47h1M39 48h1M43 48h1M50 48h1M27 49h1M37 49h1M40 49h3M48 49h1M26 50h1M37 50h1M47 50h1M56 50h1M71 50h1M30 51h1M56 51h1M70 51h1M29 52h1M34 52h1M42 52h1M57 52h1M68 52h2M31 53h1M33 53h1M38 53h2M44 53h1M58 53h2M64 53h4M33 54h1M46 54h1M60 54h3M33 55h1M34 56h1M58 57h1M36 58h4M55 58h3M51 59h1M54 59h1M40 60h3M49 60h2M43 61h6" />
<path stroke="#ee9420" d="M42 41h2M42 42h2M41 43h4M25 44h3M32 44h1M40 44h6M25 45h7M44 45h2M63 45h2M69 45h3M26 46h5M45 46h3M62 46h9M27 47h4M60 47h10M29 48h2M59 48h10M61 49h8M67 50h1" />
<path stroke="#c56229" d="M41 42h1M44 42h1M62 44h3M38 45h2M43 45h1M65 45h1M68 45h1M25 46h1M31 46h1M36 46h3M40 46h3M44 46h1M48 46h1M25 47h2M36 47h3M40 47h3M44 47h6M55 47h1M71 47h1M26 48h3M37 48h2M40 48h3M44 48h6M56 48h3M69 48h1M71 48h1M26 49h1M28 49h3M38 49h2M43 49h5M56 49h5M70 49h1M28 50h4M38 50h9M57 50h8M69 50h2M29 51h1M31 51h2M38 51h9M57 51h6M64 51h1M66 51h1M68 51h2M31 52h3M38 52h3M43 52h4M58 52h4M63 52h1M66 52h2M32 53h1M45 53h2M60 53h2M63 53h1" />
<path stroke="#ffffff" d="M59 44h2M59 45h3" />
<path stroke="#cdcdd5" d="M58 45h1M56 46h4" />
</svg>