<svg xmlns="http://www.w3.org/2000/svg" viewBox="0 -0.5 96 96" shape-rendering="crispEdges">
<metadata>Made with Pixels to Svg https://codepen.io/shshaw/pen/XbxvNj</metadata>
<path stroke="#10205a" d="M42 29h6M39 30h3M48 30h3M37 31h2M51 31h2M36 32h1M53 32h1M35 33h1M54 33h1M34 34h1M55 34h1M33 35h1M32 36h1M57 36h1M32 37h1M31 38h1M31 39h1M30 40h1M30 41h1M59 41h1M29 42h1M29 43h1M29 44h1M32 53h1M36 53h1M31 54h1M36 54h1M39 55h1M62 55h1M63 56h1M31 60h1M60 61h1M36 64h1" />
<path stroke="#3962c5" d="M42 30h6M39 31h12M37 32h16M36 33h17M37 34h14M39 35h8M33 54h3M32 55h6M61 55h1M33 56h3M60 56h3M60 57h3M61 58h1" />
<path stroke="#8b529c" d="M54 32h4M57 33h1M56 34h1" />
<path stroke="#204194" d="M53 33h1M35 34h2M51 34h4M34 35h5M47 35h9M33 36h24M33 37h23M32 38h23M32 39h23M31 40h23M31 41h23M30 42h24M30 43h23M30 44h23M29 45h23M29 46h23M29 47h23M29 48h23M29 49h24M29 50h24M29 51h24M29 52h25M30 53h2M37 53h17M30 54h1M32 54h1M39 54h16M30 55h2M38 55h1M40 55h17M31 56h2M36 56h24M31 57h29M31 58h30M62 58h1M32 59h30M32 60h30M33 61h27M34 62h24M36 63h19M40 64h11" />
<path stroke="#bda4ee" d="M55 33h2" />
<path stroke="#000000" d="M56 35h1M56 37h3M55 38h1M59 38h1M60 40h1M54 41h1M54 42h1M59 42h1M53 44h1M28 45h1M52 45h1M28 46h1M52 46h1M28 47h1M52 47h1M28 48h1M52 48h1M28 49h1M53 49h1M28 50h1M53 50h1M28 51h1M53 51h1M64 51h1M28 52h1M54 52h1M64 52h1M29 53h1M33 53h3M54 53h1M63 53h1M29 54h1M37 54h2M55 54h2M61 54h2M29 55h1M57 55h4M30 56h1M30 57h1M63 57h1M30 58h1M63 58h1M31 59h1M62 59h1M62 60h1M32 61h1M61 61h1M33 62h1M58 62h2M34 63h2M55 63h3M37 64h3M51 64h4M40 65h11" />
<path stroke="#7b949c" d="M56 38h3M56 39h3M55 40h4M55 41h4M55 42h4M60 42h3M55 43h4M60 43h3M56 44h6M58 45h2" />
<path stroke="#183131" d="M55 39h1M54 40h1M62 41h1M63 42h1M53 43h1M59 43h1M63 43h1M62 44h1M64 44h1M64 45h1M65 46h1M64 47h2M65 48h1M65 49h1M64 50h1M63 51h1" />
<path stroke="#4a7383" d="M59 39h1M59 40h1M60 41h2M54 43h1M54 44h2M63 44h1M53 45h5M60 45h4M53 46h12M53 47h11M53 48h12M54 49h11M54 50h10M54 51h9M55 52h9M55 53h8M57 54h4" />
</svg>