<svg xmlns="http://www.w3.org/2000/svg" viewBox="0 -0.5 96 96" shape-rendering="crispEdges">
<metadata>Made with Pixels to Svg https://codepen.io/shshaw/pen/XbxvNj</metadata>
<path stroke="#ac6239" d="M30 21h1M29 22h1M50 22h1M52 22h1M29 23h1M36 23h1M49 23h1M51 23h1M53 23h1M29 24h1M37 24h2M45 24h1M53 24h1M29 25h1M39 25h1M44 25h1M53 25h1M28 26h1M53 26h1M28 27h1M36 27h1M54 27h1M37 28h1M54 28h1M47 29h1M26 30h2M46 30h1M23 31h3M35 31h1M46 31h1M58 31h1M46 32h1M58 32h1M58 33h1M23 34h1M57 34h1M23 35h1M57 35h1M21 36h2M55 36h1M58 36h2M20 37h1M60 37h1M21 38h1M61 38h1M22 39h2M20 40h2M18 41h2M17 42h1M57 42h1M18 43h2M23 45h1M22 46h1M22 54h1M26 55h1M25 56h1M33 58h1M48 58h1M33 59h1M44 59h1M48 59h1" />
<path stroke="#837b20" d="M32 21h1M31 22h1M33 22h1M33 23h1M34 24h1M34 25h1M46 25h1M35 26h1M47 26h1M69 28h4M67 29h2M73 29h2M56 30h3M65 30h6M75 30h1M28 31h1M55 31h1M65 31h7M76 31h1M64 32h8M76 32h1M64 33h9M15 34h1M64 34h10M14 35h2M24 35h1M69 35h5M75 35h1M14 36h3M71 36h1M74 36h2M13 37h3M73 37h3M13 38h2M73 38h1M13 39h1M66 39h2M13 40h1M18 40h1M65 40h2M68 40h1M17 41h1M65 41h1M58 42h2M63 42h2M17 43h1M60 43h3M65 43h1M18 44h2M61 44h5M18 45h4M60 45h7M20 46h1M60 46h5M25 57h1M24 58h2M24 59h1M24 60h1M23 61h2M23 62h2M53 62h2M58 62h1M54 63h5M17 67h2M24 68h2M51 68h2M16 69h10M50 69h7M14 70h10M50 70h8M19 71h5M54 71h4M23 72h2M57 72h3M59 73h3" />
<path stroke="#ffcd8b" d="M30 22h1M30 23h1M30 24h1M30 25h1M36 25h1M45 25h1M49 25h2M29 26h3M37 26h1M44 26h3M49 26h2M29 27h3M37 27h2M44 27h3M48 27h4M29 28h4M34 28h3M38 28h3M45 28h2M48 28h4M29 29h5M35 29h8M45 29h2M48 29h4M29 30h5M36 30h9M47 30h5M26 31h2M30 31h5M36 31h10M47 31h6M56 31h1M23 32h5M30 32h6M37 32h9M47 32h6M55 32h3M24 33h3M32 33h2M37 33h4M42 33h8M51 33h4M56 33h2M25 34h2M37 34h3M43 34h4M48 34h2M52 34h3M26 35h2M30 35h2M38 35h1M43 35h3M53 35h2M26 36h2M29 36h3M35 36h1M40 36h1M44 36h1M53 36h2M25 37h8M34 37h3M39 37h3M46 37h2M50 37h2M54 37h3M24 38h6M32 38h11M45 38h3M49 38h4M54 38h3M60 38h1M26 39h2M31 39h4M36 39h8M45 39h2M48 39h3M52 39h5M31 40h3M36 40h4M42 40h4M48 40h2M53 40h5M30 41h3M37 41h2M43 41h3M48 41h1M54 41h2M30 42h1M37 42h1M44 42h1" />
<path stroke="#ffe6ac" d="M32 22h1M31 23h2M52 23h1M31 24h3M36 24h1M51 24h2M31 25h3M37 25h2M41 25h1M51 25h2M32 26h3M38 26h5M51 26h2M32 27h2M39 27h4M52 27h2M41 28h3M52 28h2M43 29h1M52 29h2M52 30h2M29 31h1M53 31h1M57 31h1M28 32h2M53 32h1M27 33h5M34 33h3M41 33h1M50 33h1M27 34h10M40 34h3M47 34h1M50 34h2M56 34h1M28 35h2M32 35h6M39 35h4M46 35h7M56 35h1M28 36h1M32 36h3M36 36h4M41 36h3M45 36h8M56 36h2M33 37h1M37 37h2M42 37h4M48 37h2M52 37h2M57 37h3M43 38h2M48 38h1M53 38h1M57 38h3M44 39h1M57 39h3" />
<path stroke="#000000" d="M35 23h1M35 24h1M41 24h1M49 24h1M35 25h1M40 25h1M42 25h1M48 25h1M36 26h1M43 26h1M48 26h1M34 27h2M43 27h1M47 27h1M28 28h1M33 28h1M47 28h1M28 29h1M34 29h1M54 29h1M28 30h1M34 30h1M54 30h1M54 31h1M22 32h1M54 32h1M23 33h1M55 33h1M63 33h1M24 34h1M55 34h1M63 34h1M55 35h1M64 35h5M63 36h1M69 36h2M77 36h1M16 37h4M62 37h1M76 37h1M15 38h1M62 38h1M65 38h3M72 38h1M75 38h1M14 39h1M18 39h3M60 39h1M62 39h1M64 39h1M68 39h1M72 39h1M14 40h1M17 40h1M59 40h1M62 40h1M64 40h1M69 40h1M72 40h1M14 41h1M16 41h1M57 41h2M63 41h2M69 41h1M71 41h1M14 42h1M16 42h1M56 42h1M69 42h2M14 43h1M16 43h1M15 44h1M17 44h1M20 44h2M60 44h1M16 45h2M22 45h1M59 45h1M67 45h1M21 46h1M58 46h1M65 46h2M19 47h2M60 47h5M18 48h1M19 49h1M18 50h1M17 51h1M18 52h2M20 53h2M55 53h2M55 54h1M57 54h2M22 55h1M59 55h4M22 56h1M26 56h1M22 57h1M24 57h1M26 57h1M22 58h2M26 58h1M25 59h1M32 59h1M49 59h1M59 59h1M25 60h1M31 60h1M33 60h1M44 60h1M48 60h1M50 60h1M52 60h1M60 60h1M30 61h1M34 61h1M43 61h1M45 61h1M47 61h1M51 61h1M53 61h2M60 61h1M34 62h1M43 62h1M45 62h1M47 62h1M55 62h3M60 62h1M22 63h3M35 63h1M42 63h1M46 63h1M50 63h4M20 64h2M28 64h1M35 64h1M37 64h1M41 64h1M49 64h1M54 64h3M19 65h1M28 65h1M36 65h1M38 65h1M41 65h1M49 65h1M57 65h1M17 66h3M28 66h1M38 66h1M40 66h1M49 66h1M58 66h1M14 67h3M19 67h1M24 67h4M39 67h1M50 67h3M58 67h1M13 68h1M20 68h4M50 68h1M53 68h5M13 69h1M49 69h1M58 69h3M13 70h1M27 70h1M49 70h1M61 70h2M14 71h5M27 71h1M50 71h2M63 71h1M19 72h4M26 72h1M53 72h2M63 72h1M23 73h3M55 73h1M62 73h1M56 74h6" />
<path stroke="#de9c6a" d="M50 23h1M50 24h1M44 28h1M44 29h1M35 30h1M45 30h1M36 32h1M25 35h1M23 36h3M21 37h4M22 38h2M30 38h2M24 39h2M28 39h3M35 39h1M47 39h1M51 39h1M22 40h9M34 40h2M40 40h2M46 40h2M50 40h3M58 40h1M20 41h10M33 41h4M39 41h4M46 41h2M49 41h5M56 41h1M18 42h12M31 42h6M38 42h6M45 42h11M20 43h38M22 44h38M24 45h35M23 46h35M21 47h38M19 48h41M20 49h41M19 50h41M18 51h43M20 52h34M55 52h6M22 53h33M57 53h5M23 54h32M59 54h3M23 55h3M27 55h28M23 56h2M27 56h29M23 57h1M27 57h29M27 58h6M34 58h14M49 58h7M26 59h6M34 59h10M45 59h3M50 59h7M26 60h5M34 60h10M45 60h3M51 60h1M53 60h4M26 61h3M35 61h8M46 61h1M52 61h1M55 61h2M26 62h2M35 62h8M46 62h1M36 63h6M36 64h1M38 64h3M39 65h2M39 66h1" />
<path stroke="#5a4a00" d="M67 28h2M65 29h2M64 30h1M64 31h1M17 32h5M63 32h1M15 33h2M22 33h1M74 33h1M77 33h1M14 34h1M74 34h1M77 34h1M13 35h1M74 35h1M77 35h1M13 36h1M72 36h2M12 37h1M72 37h1M12 38h1M74 38h1M12 39h1M65 39h1M73 39h1M12 40h1M13 41h1M59 41h1M13 42h1M60 42h3M68 42h1M58 43h2M63 43h2M68 43h1M67 44h1M18 46h2M59 46h1M59 47h1M60 48h1M61 49h1M60 50h1M61 51h1M54 52h1M61 52h1M62 53h1M62 54h1M55 55h1M56 56h1M56 57h2M56 58h1M58 58h1M23 59h1M57 59h1M23 60h1M57 60h1M22 61h1M25 61h1M29 61h1M57 61h1M22 62h1M25 62h1M28 62h1M52 62h1M59 62h1M25 63h3M59 63h1M57 64h2M17 68h3M26 68h1M26 69h1M57 69h1M58 70h1M52 71h2M55 72h2M56 73h3" />
<path stroke="#acac5a" d="M69 29h4M71 30h1M72 31h1M72 32h3M17 33h5M73 33h1M75 33h2M16 34h7M75 34h2M16 35h7M76 35h1M17 36h4M76 36h1M19 40h1M67 40h1M66 41h3M65 42h3M66 43h2M66 44h1M57 58h1M58 59h1M58 60h2M58 61h2M14 68h3M14 69h2M24 70h3M59 70h2M24 71h3M58 71h5M25 72h1M60 72h3" />
<path stroke="#cdde83" d="M72 30h3M73 31h3M75 32h1" />
<path stroke="#414141" d="M64 36h1M63 37h2M71 37h1M20 38h1M63 38h2M68 38h1M71 38h1M15 39h1M21 39h1M63 39h1M69 39h3M15 40h2M63 40h1M70 40h2M15 41h1M70 41h1M15 42h1M15 43h1M16 44h1M22 64h3M27 64h1M50 64h4M20 65h3M27 65h1M50 65h5M20 66h3M27 66h1M50 66h4M20 67h3M53 67h1M57 67h1" />
<path stroke="#7b7b7b" d="M65 36h4M65 37h6M16 38h4M69 38h2M16 39h2M25 64h2M23 65h4M55 65h2M23 66h4M54 66h4M23 67h1M54 67h3" />
</svg>