<svg xmlns="http://www.w3.org/2000/svg" viewBox="0 -0.5 96 96" shape-rendering="crispEdges">
<metadata>Made with Pixels to Svg https://codepen.io/shshaw/pen/XbxvNj</metadata>
<path stroke="#087b6a" d="M39 25h3M44 25h2M46 26h1M43 27h1M47 27h1M42 28h1M46 30h1M41 33h1M45 33h1M41 34h1M41 35h1M46 35h1M40 36h1M40 37h1M39 38h1M39 39h1M52 43h1M37 44h1M50 44h4M36 45h4M47 45h7M36 46h19M36 47h20M35 48h22M35 49h23M35 50h23M35 51h23M35 52h23M35 53h23M35 54h23M36 55h22M36 56h21M36 57h21M37 58h20M37 59h19M38 60h17M39 61h13M41 62h9M44 63h5" />
<path stroke="#084131" d="M38 26h1M41 26h1M37 27h1M40 27h1M37 28h1M41 28h1M47 28h1M39 31h2M45 31h1M40 32h1M45 32h1M46 34h1M47 36h1M48 37h2M50 38h1M38 40h1M37 41h1M37 42h1M36 43h1M36 44h1M35 45h1M35 46h1M35 47h1M34 48h1M34 49h1M34 50h1M34 51h1M34 52h1M34 53h1M34 54h1M35 55h1M35 56h1M35 57h1M52 61h1M54 61h1M50 62h2M44 64h5" />
<path stroke="#08ac94" d="M39 26h2M44 26h1M38 27h2M44 27h1M38 28h3M43 28h2M38 29h6M45 29h2M39 30h7M41 31h4M41 32h4M42 33h3M42 34h4M42 35h4M41 36h6M41 37h7M40 38h10M40 39h11M39 40h13M38 41h14M38 42h15M37 43h15M38 44h12M40 45h7" />
<path stroke="#10decd" d="M45 26h1M45 27h2M45 28h2M44 29h1" />
<path stroke="#080808" d="M37 29h1M47 29h1M38 30h1M57 46h1M57 47h1M57 48h1M58 49h1M58 50h1M58 51h1M58 52h1M61 52h1M58 53h1M61 53h1M58 54h1M60 54h1M58 55h1M57 56h1M57 57h1M36 58h1M57 58h1M36 59h1M56 59h1M37 60h1M55 60h2M38 61h1M53 61h1M55 61h1M39 62h2M54 62h1M41 63h3M49 63h1M54 63h1M39 64h1M42 64h1M49 64h1M53 64h1M40 65h2M50 65h1M53 65h1M51 66h2" />
<path stroke="#313131" d="M51 38h1M51 39h2M52 40h2M52 41h1M54 41h1M53 42h1M55 42h1M53 43h1M55 43h1M54 44h1M56 44h1M54 45h3M55 46h2M56 47h1M59 50h1M60 51h1M59 54h1M38 62h1M39 63h1" />
<path stroke="#4a4a4a" d="M53 41h1M54 42h1M54 43h1M55 44h1M59 51h1M59 52h2M59 53h2M52 62h2M40 63h1M50 63h4M40 64h2M50 64h3M51 65h2" />
</svg>