<svg xmlns="http://www.w3.org/2000/svg" viewBox="0 -0.5 96 96" shape-rendering="crispEdges">
<metadata>Made with Pixels to Svg https://codepen.io/shshaw/pen/XbxvNj</metadata>
<path stroke="#832962" d="M43 11h9M39 12h4M52 12h3M36 13h3M44 13h8M55 13h2M34 14h2M40 14h4M53 14h2M57 14h2M32 15h2M37 15h3M56 15h2M31 16h1M35 16h2M58 16h2M30 17h1M33 17h2M60 17h2M29 18h1M32 18h1M62 18h1M31 19h1M63 19h1M30 20h1M64 20h1M29 21h1M65 21h1M28 22h1M28 23h1M44 23h6M27 24h1M41 24h3M50 24h3M27 25h1M39 25h2M53 25h2M27 26h1M38 26h1M55 26h1M26 27h1M56 27h1M26 28h1M36 28h1M57 28h1M26 29h1M36 29h1M57 29h1M26 30h1M35 30h1M58 30h1M26 31h1M35 31h1M58 31h1M26 32h1M27 33h1M60 33h2M27 34h1M62 34h1M28 35h1M63 35h1M63 36h1M61 37h2M56 54h1M57 55h1M58 56h2M65 60h2M67 61h2M69 62h1M74 65h2M76 66h2M78 67h2M80 68h1M44 70h4M48 71h1M48 72h1M47 73h1M47 74h1M47 75h1M47 76h1M47 77h1" />
<path stroke="#ff39bd" d="M43 12h9M39 13h5M52 13h3M36 14h4M55 14h2M34 15h3M58 15h1M32 16h3M60 16h1M31 17h2M30 18h2M29 19h2M29 20h1M56 55h1M56 56h2M56 57h3M56 58h4M57 59h3M59 60h1M64 60h1M65 61h2M65 62h4M66 63h4M68 64h2M74 66h2M75 67h3M77 68h3M45 74h2M43 75h4M44 76h3M46 77h1" />
<path stroke="#bd1883" d="M44 14h9M40 15h16M37 16h21M35 17h25M33 18h29M32 19h31M28 20h1M31 20h33M27 21h2M30 21h35M27 22h1M29 22h37M26 23h2M29 23h15M50 23h17M26 24h1M28 24h13M53 24h14M25 25h2M28 25h11M55 25h13M25 26h2M28 26h10M56 26h12M25 27h1M27 27h11M57 27h11M24 28h2M27 28h9M58 28h11M24 29h2M27 29h9M58 29h11M24 30h2M27 30h8M59 30h10M24 31h2M27 31h8M59 31h10M24 32h2M27 32h7M60 32h9M25 33h2M28 33h4M62 33h7M25 34h2M28 34h3M63 34h6M26 35h2M29 35h1M64 35h4M26 36h4M64 36h4M28 37h3M63 37h4M62 38h3M55 58h1M55 59h2M54 60h5M53 61h6M55 62h4M65 63h1M64 64h4M66 65h3M73 67h2M76 68h1M41 70h3M41 71h7M41 72h7M42 73h5M42 74h3" />
<path stroke="#101010" d="M59 15h2M61 16h1M62 17h1M63 18h1M28 19h1M64 19h1M27 20h1M65 20h1M26 21h1M66 21h1M26 22h1M66 22h1M25 23h1M67 23h1M25 24h1M67 24h1M24 25h1M68 25h1M24 26h1M68 26h1M24 27h1M68 27h1M23 28h1M69 28h1M23 29h1M69 29h1M23 30h1M69 30h1M23 31h1M69 31h1M23 32h1M34 32h3M56 32h4M69 32h1M24 33h1M32 33h2M54 33h2M69 33h1M24 34h1M31 34h1M38 34h1M53 34h1M69 34h1M25 35h1M30 35h1M39 35h1M52 35h1M68 35h1M25 36h1M30 36h1M39 36h1M43 36h4M68 36h1M26 37h2M31 37h1M40 37h2M47 37h3M67 37h1M28 38h3M36 38h1M50 38h2M61 38h1M65 38h2M36 39h1M38 39h2M52 39h1M62 39h3M36 40h2M35 41h1M28 42h1M34 42h1M52 42h1M34 43h1M48 43h1M52 43h1M35 44h1M49 44h1M27 45h4M35 45h1M49 45h1M27 46h1M31 46h3M49 46h1M51 46h1M28 47h1M34 47h4M44 47h2M49 47h1M52 47h2M17 48h2M29 48h1M38 48h3M43 48h1M46 48h1M50 48h1M53 48h2M19 49h1M30 49h1M41 49h2M46 49h1M49 49h4M55 49h2M21 50h1M31 50h1M43 50h1M47 50h2M53 50h1M32 51h2M43 51h1M45 51h3M54 51h1M27 52h1M29 52h1M34 52h1M44 52h1M48 52h1M54 52h1M25 53h2M29 53h1M35 53h1M44 53h1M55 53h1M26 54h1M29 54h1M36 54h2M55 54h1M27 55h3M38 55h1M55 55h1M29 56h1M39 56h3M43 56h1M48 56h1M55 56h1M29 57h2M38 57h1M44 57h4M55 57h1M60 57h2M30 58h1M39 58h2M44 58h1M54 58h1M62 58h1M30 59h1M41 59h2M44 59h1M54 59h1M63 59h2M31 60h1M44 60h1M53 60h1M31 61h1M33 61h1M45 61h1M52 61h1M32 62h1M34 62h2M40 62h2M45 62h2M50 62h5M32 63h1M36 63h4M46 63h4M55 63h3M70 63h2M33 64h1M58 64h4M72 64h2M33 65h1M62 65h4M34 66h1M66 66h3M35 67h2M55 67h1M69 67h3M37 68h1M53 68h2M72 68h4M38 69h2M51 69h2M76 69h4M40 70h1M48 70h3M40 71h1M40 72h1M41 73h1M41 74h1M42 75h1M43 76h1M44 77h2M46 78h2" />
<path stroke="#9c9c62" d="M44 24h6M41 25h12M39 26h16M38 27h18M37 28h20M37 29h10M48 29h9M36 30h4M41 30h6M48 30h3M52 30h6M36 31h5M42 31h5M48 31h3M52 31h6M37 32h4M42 32h4M47 32h3M51 32h5M38 33h4M43 33h3M47 33h3M51 33h3M39 34h3M43 34h3M47 34h2M50 34h3M40 35h2M43 35h3M47 35h2M50 35h2M40 36h2M47 36h2M50 36h1M38 37h2M42 37h5M50 37h1M31 38h4M37 38h3M44 38h5M28 39h8M46 39h4M28 40h7M38 40h1M47 40h3M29 41h5M36 41h2M40 41h4M48 41h2M52 41h1M30 42h3M35 42h11M49 42h2M30 43h2M35 43h12M49 43h2M29 44h3M36 44h8M46 44h2M50 44h1M52 44h1M36 45h6M47 45h2M20 46h2M28 46h3M36 46h5M42 46h2M48 46h1M17 47h1M19 47h6M29 47h5M38 47h3M42 47h2M48 47h1M19 48h8M28 48h1M30 48h6M41 48h2M48 48h1M20 49h7M28 49h2M31 49h6M47 49h1M22 50h5M28 50h2M33 50h5M23 51h5M29 51h1M34 51h6M51 51h1M25 52h2M35 52h9M55 52h2M37 53h7M57 53h1M38 54h5M44 54h2M48 54h1M37 55h1M39 55h3M43 55h6M52 55h1M54 55h1M28 56h1M38 56h1M42 56h1M44 56h4M51 56h4M28 57h1M39 57h5M51 57h4M29 58h1M41 58h2M50 58h4M49 59h5M45 60h1M48 60h5M32 61h1M44 61h1M46 61h5M59 61h2M33 62h1M43 62h2M47 62h3M59 62h4M33 63h3M40 63h6M50 63h5M58 63h7M34 64h21M62 64h2M34 65h21M69 65h2M35 66h19M69 66h4M37 67h16M72 67h1M38 68h15M40 69h1M44 69h7" />
<path stroke="#6a6a6a" d="M47 29h1M40 30h1M47 30h1M51 30h1M41 31h1M47 31h1M51 31h1M41 32h1M46 32h1M50 32h1M42 33h1M46 33h1M50 33h1M51 36h1M51 37h1M53 40h1M54 41h1M29 42h1M51 42h1M54 42h1M29 43h1M53 43h1M55 43h1M15 44h3M28 44h1M44 44h2M55 44h1M14 45h1M18 45h1M46 45h1M53 45h1M55 45h1M47 46h1M56 46h1M25 47h2M56 47h1M49 48h1M56 48h1M32 50h1M49 50h1M48 51h3M49 52h2M36 53h1M50 53h1M50 54h1M58 54h1M50 55h1M59 55h1M49 56h1M48 57h2M45 58h4M46 59h2M51 61h1" />
<path stroke="#39414a" d="M36 33h2M42 34h1M46 34h1M49 34h1M42 35h1M46 35h1M49 35h1M38 36h1M42 36h1M49 36h1M32 37h3M37 37h1M35 38h1M40 38h4M27 39h1M37 39h1M44 39h2M27 40h1M46 40h1M28 41h1M47 41h1M51 41h1M48 42h1M14 44h1M53 44h1M19 45h3M42 45h2M50 45h1M15 46h1M22 46h3M35 46h1M41 46h1M16 47h1M27 47h1M41 47h1M47 47h1M27 48h1M44 48h2M47 48h1M51 48h2M27 49h1M43 49h3M48 49h1M20 50h1M27 50h1M44 50h3M50 50h1M22 51h1M28 51h1M44 51h1M23 52h2M28 52h1M51 52h1M27 53h2M49 53h1M51 53h1M27 54h2M43 54h1M49 54h1M51 54h1M36 55h1M42 55h1M49 55h1M51 55h1M27 56h1M37 56h1M50 56h1M27 57h1M50 57h1M28 58h1M43 58h1M49 58h1M29 59h1M31 59h1M45 59h1M48 59h1M32 60h1M46 60h2M43 61h1M42 62h1M57 65h1M56 66h1M41 69h3" />
<path stroke="#cdcdb4" d="M49 38h1M40 39h4M50 39h2M39 40h7M50 40h3M38 41h2M44 41h3M50 41h1M53 41h1M46 42h2M53 42h1M47 43h1M51 43h1M54 43h1M48 44h1M51 44h1M54 44h1M15 45h3M44 45h2M51 45h2M54 45h1M16 46h4M44 46h3M52 46h4M18 47h1M46 47h1M54 47h2M36 48h2M55 48h1M37 49h4M38 50h5M51 50h2M40 51h3M52 51h2M45 52h3M52 52h2M45 53h4M52 53h3M56 53h1M46 54h2M52 54h3M57 54h1M53 55h1M58 55h1M59 57h1M60 58h2M60 59h3M60 60h4M61 61h4M63 62h2M55 64h3M70 64h2M55 65h2M71 65h3M54 66h2M73 66h1M53 67h2" />
<path stroke="#087b6a" d="M35 40h1M34 41h1M33 42h1M32 43h1M32 44h1M31 45h1M30 50h1M30 51h1M30 52h1M30 53h2M34 53h1M30 54h6M30 55h6M30 56h7M31 57h7M31 58h8M32 59h9M43 59h1M33 60h11M34 61h9M36 62h4" />
<path stroke="#08ac94" d="M33 43h1M33 44h2M32 45h3M34 46h1M31 51h1M31 52h3M32 53h2" />
<path stroke="#cd4a10" d="M50 46h1M50 47h1" />
<path stroke="#83a410" d="M51 47h1" />
</svg>