<svg xmlns="http://www.w3.org/2000/svg" viewBox="0 -0.5 96 96" shape-rendering="crispEdges">
<metadata>Made with Pixels to Svg https://codepen.io/shshaw/pen/XbxvNj</metadata>
<path stroke="#94395a" d="M66 15h1M69 15h2M71 16h2M73 17h1M48 18h1M63 18h1M57 19h5M65 19h2M71 19h1M49 20h1M54 20h1M64 23h2M68 23h1M53 24h1M63 24h1M66 24h2M63 25h1M68 25h1M63 26h1M63 27h1M69 27h1M63 28h1M64 29h1M64 30h1M65 31h1M64 32h1M28 38h1M65 38h1M29 39h1M32 39h1M65 39h1M30 40h1M33 40h2M65 40h1M24 41h1M66 41h1M25 42h2M39 42h7M52 42h1M66 42h1M27 43h2M46 43h2M51 43h1M41 44h1M64 45h1M64 46h1M30 47h1M65 47h1M65 48h1M65 49h1M26 50h1M50 50h1M66 50h1M51 51h3M66 51h1M22 53h1M33 55h1M35 68h1M34 69h1M34 70h1M55 72h1M55 73h1M55 74h1M42 75h1M55 75h2M55 76h1" />
<path stroke="#101010" d="M67 15h2M64 17h1M64 18h1M73 18h1M72 19h1M70 20h2M45 21h1M69 21h1M48 22h2M51 23h1M52 24h1M53 25h2M66 25h1M55 26h1M68 26h1M46 28h1M47 29h1M58 29h1M70 29h1M48 30h1M58 30h1M69 30h1M49 31h1M59 31h1M66 31h2M46 32h1M51 32h1M59 32h1M47 33h1M48 34h2M53 34h1M64 34h1M50 35h2M55 35h2M64 35h1M57 36h2M64 36h1M59 37h2M59 38h1M31 39h1M58 39h1M31 40h1M57 40h1M23 41h1M28 41h1M32 41h1M36 41h1M55 41h2M23 42h1M32 42h1M38 42h1M53 42h2M24 43h1M29 43h1M33 43h1M25 44h1M30 44h1M33 44h1M26 45h1M34 45h1M52 45h4M52 46h1M56 46h2M53 47h1M59 47h1M52 48h2M52 49h1M55 49h2M32 50h2M44 50h4M53 50h1M57 50h1M30 51h2M41 51h2M54 51h1M59 51h1M27 52h2M39 52h2M55 52h1M25 53h1M37 53h2M53 53h3M35 54h2M53 54h1M57 54h1M34 55h1M54 55h1M32 56h2M37 56h1M50 56h3M55 56h1M31 57h1M37 57h1M47 57h2M56 57h2M65 57h1M29 58h2M37 58h1M58 58h1M65 58h1M38 59h1M45 59h1M59 59h1M38 60h1M45 60h1M59 60h1M64 60h1M38 61h1M44 61h1M59 61h1M64 61h1M28 62h1M44 62h1M53 62h1M57 62h1M64 62h1M28 63h1M34 63h1M37 63h1M43 63h1M53 63h1M57 63h1M28 64h1M34 64h1M43 64h1M53 64h1M57 64h1M63 64h1M34 65h1M42 65h1M57 65h1M63 65h1M29 66h1M35 66h1M42 66h1M57 66h1M63 66h1M29 67h1M35 67h1M56 67h1M62 67h1M29 68h1M36 68h1M56 68h1M61 68h1M30 69h1M36 69h1M55 69h1M60 69h1M30 70h1M37 70h1M55 70h1M60 70h1M30 71h1M37 71h1M54 71h1M59 71h1M30 72h1M37 72h1M54 72h1M59 72h1M30 73h1M38 73h1M54 73h1M59 73h1M30 74h1M35 74h1M38 74h1M54 74h1M58 74h1M31 75h1M35 75h1M38 75h1M54 75h1M58 75h1M31 76h1M36 76h1M38 76h1M43 76h1M54 76h1M57 76h1M32 77h1M36 77h1M39 77h1M43 77h1M54 77h1M57 77h1M59 77h3M33 78h4M39 78h1M44 78h1M55 78h2M40 79h1M44 79h1M41 80h4" />
<path stroke="#621839" d="M65 16h1M45 18h3M44 19h1M44 20h1M50 20h4M46 21h1M47 22h1M68 22h1M50 23h1M69 24h1M56 27h1M57 28h1M65 32h1M59 33h1M64 33h1M59 34h1M60 35h1M61 37h1M64 37h1M27 38h1M27 39h1M28 40h1M35 41h1M29 42h1M37 42h1M39 43h2M48 43h3M31 45h1M27 46h2M35 46h1M29 47h1M58 47h1M28 48h1M37 48h2M54 48h1M60 48h1M27 49h1M34 49h3M25 50h1M35 50h1M48 50h2M58 50h1M24 51h1M29 51h1M34 51h1M43 51h1M23 52h1M26 52h1M33 52h1M60 52h1M66 52h1M24 53h1M32 53h1M56 53h1M66 53h1M22 54h2M31 54h1M58 54h1M66 54h1M30 55h1M59 55h1M66 55h1M30 56h1M53 56h1M65 56h1M29 57h1M53 57h1M53 58h1M59 58h1M54 59h1M60 59h1M64 59h1M54 60h1M54 61h1M59 62h1M64 63h1M28 65h1M53 65h1M54 66h1M54 67h1M54 68h1M34 71h1M42 71h1M55 71h1M60 71h1M34 72h1M42 72h1M56 72h1M60 72h1M34 73h1M42 73h1M56 73h1M60 73h1M42 74h1M56 74h1M60 74h1M58 76h1M55 77h1" />
<path stroke="#ee8ba4" d="M66 16h5M65 17h1M71 17h2M47 19h3M63 19h2M56 20h7M51 21h7M68 24h1M69 25h1M69 26h1M64 38h1M28 39h1M64 39h1M29 40h1M32 40h1M64 40h1M30 41h2M33 41h2M64 41h2M24 42h1M31 42h1M34 42h3M65 42h1M25 43h2M35 43h4M65 43h2M36 44h5M66 44h1M38 45h5M66 45h1M42 46h3M64 47h1M64 48h1M64 49h1M64 50h2M25 51h3M36 51h3M64 51h2M24 52h2M34 52h4M64 52h2M23 53h1M33 53h3M65 53h1M32 54h3M31 55h2M31 56h1M30 57h1M63 59h1M63 60h1M62 61h2M62 62h2M62 63h1" />
<path stroke="#d5627b" d="M66 17h5M49 18h1M65 18h8M45 19h2M50 19h1M56 19h1M62 19h1M67 19h4M45 20h4M55 20h1M63 20h7M47 21h4M58 21h11M50 22h18M52 23h12M66 23h2M54 24h9M55 25h8M70 25h1M56 26h7M70 26h1M57 27h6M70 27h1M58 28h5M59 29h5M59 30h5M60 31h5M60 32h4M60 33h4M57 34h2M60 34h4M57 35h3M61 35h3M59 36h5M62 37h2M60 38h4M59 39h5M58 40h6M29 41h1M57 41h7M30 42h1M33 42h1M55 42h10M30 43h3M34 43h1M41 43h5M52 43h13M67 43h1M26 44h4M31 44h2M34 44h2M42 44h24M67 44h1M27 45h4M32 45h2M35 45h3M43 45h9M56 45h8M65 45h1M67 45h1M29 46h6M36 46h6M45 46h7M53 46h3M58 46h6M65 46h2M31 47h22M54 47h4M60 47h4M66 47h1M29 48h8M39 48h13M55 48h5M61 48h3M28 49h6M37 49h15M53 49h2M57 49h7M27 50h5M36 50h8M51 50h2M54 50h3M59 50h5M28 51h1M35 51h1M39 51h2M55 51h4M60 51h4M38 52h1M56 52h4M61 52h3M36 53h1M57 53h8M54 54h3M59 54h7M55 55h4M60 55h6M54 56h1M56 56h9M54 57h2M58 57h7M54 58h4M60 58h5M55 59h4M61 59h2M55 60h4M60 60h3M55 61h4M60 61h2M56 62h1M60 62h2M60 63h2M63 63h1M61 64h2M29 65h2M54 65h2M58 65h1M62 65h1M30 66h3M55 66h2M58 66h2M62 66h1M30 67h5M36 67h1M55 67h1M57 67h3M30 68h5M37 68h1M55 68h1M57 68h4M31 69h3M37 69h3M56 69h4M31 70h3M38 70h3M56 70h4M31 71h3M38 71h4M56 71h3M31 72h3M38 72h4M57 72h2M31 73h3M39 73h3M57 73h2M31 74h4M39 74h3M57 74h1M59 74h1M32 75h3M39 75h3M57 75h1M59 75h1M32 76h3M39 76h4M56 76h1M59 76h1M33 77h2M40 77h3M56 77h1M40 78h3M41 79h2" />
<path stroke="#b4b49c" d="M64 24h2M64 25h2M64 26h2M67 26h1M64 27h4M64 28h3M65 29h2M69 29h1M65 30h1M66 49h1M34 50h1M32 51h2M44 51h7M67 51h1M32 52h1M41 52h14M39 53h6M48 53h5M38 54h6M48 54h5M35 55h2M38 55h5M48 55h6M34 56h3M38 56h5M47 56h3M32 57h5M38 57h5M32 58h5M39 58h4M32 59h4M39 59h5M32 60h4M39 60h6M31 61h4M39 61h5M31 62h4M38 62h6M33 63h1M38 63h5M38 64h5M39 65h3M41 66h1" />
<path stroke="#f6f6d5" d="M67 25h1M67 28h3M67 29h2M66 30h2M67 46h1M67 47h1M66 48h2M67 49h1M67 50h1M45 53h2M44 54h3M43 55h4M43 56h3M43 57h3M43 58h2M44 59h1" />
<path stroke="#41417b" d="M66 26h1M70 28h1M61 75h1M35 76h1M61 76h1M35 77h1M43 78h1M43 79h1" />
<path stroke="#9ccd52" d="M68 27h1M48 29h3M49 30h4M51 31h3" />
<path stroke="#4a6229" d="M47 28h3M51 29h2M53 30h2M45 31h4M55 31h2M50 32h1M57 32h1M52 33h1M58 33h1M54 34h1M52 35h1M53 36h4M29 62h2M54 62h2M58 62h1M31 63h2M35 63h1M56 63h1M59 63h1M29 64h1M33 64h1M36 64h2M54 64h2M58 64h1M60 64h1M31 65h2M38 65h1M56 65h1M59 65h1M61 65h1M33 66h2M36 66h1M39 66h2M61 66h1M37 67h1M41 67h1M60 67h1M38 68h2M42 68h1M40 69h1M42 69h1M41 70h2" />
<path stroke="#628b10" d="M50 28h1M50 31h1M54 31h1M47 32h3M52 32h5M48 33h4M53 33h5M50 34h3M55 34h2M53 35h2M29 63h2M54 63h2M58 63h1M30 64h3M35 64h1M56 64h1M59 64h1M33 65h1M35 65h3M60 65h1M37 66h2M60 66h1M38 67h3M61 67h1M40 68h2M41 69h1" />
<path stroke="#6a6a6a" d="M68 30h1M68 46h1M68 47h1M68 48h1M68 49h1M68 50h1M68 51h1M31 52h1M67 52h1M31 53h1M47 53h1M67 53h1M37 54h1M47 54h1M37 55h1M47 55h1M46 56h1M46 57h1M49 57h1M31 58h1M38 58h1M45 58h1M31 59h1M36 59h1M31 60h1M36 60h1M30 61h1M35 61h1M35 62h1M37 62h1" />
<path stroke="#6a73a4" d="M60 75h1M60 76h1" />
</svg>