<svg xmlns="http://www.w3.org/2000/svg" viewBox="0 -0.5 96 96" shape-rendering="crispEdges">
<metadata>Made with Pixels to Svg https://codepen.io/shshaw/pen/XbxvNj</metadata>
<path stroke="#73735a" d="M48 5h5M47 6h2M53 6h4M47 7h1M57 7h2M47 8h1M59 8h2M47 9h1M61 9h1M48 10h1M62 10h1M39 11h1M48 11h1M63 11h1M39 12h1M49 12h1M63 12h1M39 13h1M40 14h1M40 15h1M41 16h1M41 17h1M33 18h1M42 18h1M33 19h1M34 20h1M65 20h1M35 21h1M64 21h1M77 21h1M35 22h1M49 22h1M68 22h2M70 23h2M78 23h1M50 24h1M72 24h1M50 25h1M73 25h2M79 25h1M32 26h1M51 26h1M75 26h1M80 26h1M31 27h1M33 27h2M42 27h1M51 27h1M54 27h5M64 27h4M76 27h1M33 28h1M43 28h1M51 28h1M59 28h3M63 28h2M68 28h4M33 29h1M44 29h1M62 29h1M76 29h1M37 30h1M44 30h1M49 30h1M75 30h2M35 31h2M42 31h2M48 31h1M73 31h1M78 31h1M48 32h1M35 33h1M48 33h1M35 34h1M46 34h2M77 34h1M33 35h2M45 35h1M32 36h1M42 36h1M45 36h1M40 37h2M39 39h1M30 40h3M22 41h2M29 41h1M20 42h2M24 42h2M28 42h1M15 43h3M19 43h1M26 43h2M40 43h1M13 44h2M18 44h1M40 44h1M12 45h1M21 45h1M28 45h4M38 45h2M12 46h3M19 46h2M25 46h3M36 46h2M18 47h1M84 47h2M79 48h2M86 48h2M78 49h1M78 50h1M90 50h1M77 51h1M77 52h1M78 53h1M78 54h1M76 55h2M75 56h1M74 57h1M74 58h1M74 59h1M74 60h1M69 61h5M85 62h2M83 63h2M67 64h1M66 65h1M66 66h1M64 67h3M77 67h1M69 68h1M77 68h1M63 69h1M69 69h1M64 70h1M68 70h1M65 71h3" />
<path stroke="#ffffff" d="M49 6h4M48 7h9M48 8h11M48 9h13M49 10h13M40 11h4M49 11h14M40 12h7M50 12h13M40 13h9M51 13h13M41 14h10M52 14h12M41 15h11M53 15h10M42 16h20M42 17h18M34 18h5M43 18h14M35 19h5M45 19h7M77 22h1M68 23h2M77 23h1M69 24h3M69 25h4M78 25h1M71 26h3M78 26h2M78 27h1M44 28h2M55 28h4M65 28h3M45 29h3M58 29h4M63 29h3M38 30h1M45 30h4M61 30h3M37 31h5M44 31h4M35 32h13M36 33h12M36 34h10M35 35h10M36 36h6M43 36h2M37 37h3M37 38h3M31 41h2M30 42h3M81 48h5M79 49h11M79 50h11M78 51h13M78 52h13M79 53h11M82 54h7M84 55h2" />
<path stroke="#211021" d="M72 8h2M71 9h1M73 9h1M70 10h1M73 10h1M70 11h1M69 12h1M68 13h1M68 14h1M67 15h1M66 16h1M54 30h1M53 31h1M53 32h1M83 44h1M88 44h1M87 45h1M89 45h1M81 46h1M87 46h1M89 46h1M81 47h1M87 47h1M90 47h1M90 48h1M92 49h2M91 50h1M93 50h1M93 51h1M93 52h1M24 56h3M15 57h3M52 57h2M13 58h1M17 58h1M37 58h2M54 58h1M23 59h3M39 59h3M45 59h3M54 59h1M16 60h2M54 60h1M56 60h2M55 61h1M58 61h1M58 62h1M51 63h1M57 63h1M59 63h2M7 64h1M9 64h1M50 64h1M58 64h1M61 64h1M10 65h1M6 66h1M9 66h1M6 67h1M9 67h1M49 67h1M7 68h1M38 68h1M49 68h1M7 69h1M38 69h1M42 69h1M37 70h1M42 70h1M46 70h2M50 70h1M35 71h2M41 71h1M45 71h1M48 71h1M50 71h1M59 71h1M41 72h1M45 72h1M50 72h1M58 72h1M53 74h1M48 75h2M44 76h1M48 76h1M50 76h2M56 76h1M16 77h1M48 77h1M52 77h2M17 78h1M14 79h1M17 79h1M45 79h1M15 80h2M46 81h1M23 83h2M25 84h2M22 85h2M23 86h5" />
<path stroke="#9421b5" d="M72 9h1M72 10h1M71 11h1M70 12h2M70 13h2M69 14h2M68 15h3M67 16h4M66 17h4M55 30h1M54 31h2M54 32h2M60 32h2M52 33h2M60 33h2M58 35h2M58 36h3M58 37h3M59 38h2M67 43h3M66 44h5M66 45h5M82 45h2M88 45h1M66 46h5M82 46h2M88 46h1M66 47h4M82 47h2M88 47h2M67 48h3M69 49h1M92 50h1M92 51h1M92 52h1M13 59h2M37 59h2M14 60h2M36 60h6M14 61h1M36 61h9M35 62h9M35 63h6M8 64h1M7 65h3M7 66h2M7 67h2M8 68h2M15 77h1M14 78h3M15 79h2M22 83h1M22 84h3" />
<path stroke="#101010" d="M40 10h4M44 11h3M72 11h1M47 12h2M72 12h1M49 13h2M64 13h1M72 13h1M51 14h1M64 14h1M71 14h1M52 15h1M65 15h1M71 15h1M65 16h1M71 16h1M34 17h5M65 17h1M70 17h1M39 18h3M66 18h1M70 18h1M42 19h2M66 19h1M44 20h1M66 20h1M29 21h4M59 21h2M76 21h1M28 22h1M33 22h2M59 22h1M61 22h2M67 22h1M74 22h1M76 22h1M28 23h1M35 23h2M50 23h2M60 23h1M62 23h1M67 23h1M74 23h1M76 23h1M29 24h1M52 24h3M60 24h1M68 24h1M74 24h1M79 24h1M29 25h1M55 25h5M68 25h1M30 26h1M41 26h2M57 26h1M69 26h1M30 27h1M43 27h3M69 27h1M80 27h1M31 28h1M35 28h2M46 28h2M54 28h1M80 28h1M32 29h1M37 29h2M48 29h3M55 29h3M66 29h1M79 29h1M39 30h3M58 30h3M64 30h2M67 30h2M79 30h1M61 31h4M69 31h2M74 31h1M79 31h1M34 32h1M75 32h2M78 32h1M72 33h3M76 33h1M50 34h1M66 34h1M68 34h4M76 34h1M50 35h1M64 35h1M50 36h1M64 36h1M32 37h1M43 37h1M65 37h1M32 38h1M40 38h1M44 38h1M64 38h2M33 39h1M40 39h1M49 39h1M40 40h1M49 40h1M41 41h1M49 41h1M41 42h1M42 43h4M32 44h1M48 44h1M15 45h2M22 45h2M33 45h1M50 45h1M17 46h1M24 46h1M34 46h2M14 47h1M31 47h1M14 48h1M31 48h1M52 48h1M88 48h2M14 49h1M16 49h1M33 49h1M52 49h1M90 49h1M14 50h1M30 50h1M33 50h1M53 50h1M14 51h1M17 51h1M30 51h1M53 51h1M67 51h1M91 51h1M17 52h3M29 52h4M54 52h1M68 52h1M91 52h1M15 53h2M20 53h2M27 53h2M33 53h2M54 53h1M68 53h1M92 53h1M14 54h1M22 54h1M26 54h1M35 54h1M53 54h1M69 54h1M93 54h1M14 55h1M22 55h1M26 55h1M35 55h1M53 55h1M69 55h1M93 55h1M3 56h1M13 56h1M23 56h1M27 56h1M36 56h1M52 56h1M65 56h1M92 56h1M3 57h1M13 57h1M23 57h1M28 57h2M36 57h1M50 57h2M65 57h1M91 57h1M4 58h1M8 58h3M14 58h1M23 58h1M30 58h1M36 58h1M48 58h2M64 58h1M91 58h1M4 59h1M6 59h2M11 59h2M22 59h1M29 59h2M36 59h1M64 59h1M91 59h1M5 60h1M13 60h1M22 60h1M26 60h4M35 60h1M64 60h1M90 60h1M5 61h1M13 61h1M15 61h2M20 61h2M26 61h1M35 61h1M64 61h1M89 61h1M4 62h1M14 62h1M17 62h3M27 62h2M33 62h2M63 62h1M68 62h1M87 62h2M4 63h1M14 63h1M29 63h4M34 63h1M63 63h1M67 63h1M4 64h1M14 64h1M35 64h1M63 64h1M83 64h1M5 65h1M13 65h1M36 65h2M58 65h1M62 65h1M81 65h2M5 66h1M13 66h1M38 66h2M62 66h1M78 66h3M11 67h2M40 67h2M59 67h1M70 67h2M10 68h3M42 68h4M59 68h2M72 68h2M8 69h2M13 69h2M46 69h4M59 69h1M74 69h3M7 70h1M15 70h1M59 70h1M7 71h1M15 71h1M6 72h1M16 72h1M35 72h1M49 72h1M6 73h1M16 73h1M36 73h1M39 73h2M45 73h1M50 73h2M58 73h1M6 74h1M16 74h1M37 74h2M45 74h1M52 74h1M58 74h1M7 75h1M15 75h1M45 75h1M57 75h1M7 76h1M15 76h4M57 76h1M4 77h1M8 77h2M13 77h2M19 77h2M44 77h1M56 77h1M4 78h3M10 78h3M21 78h1M43 78h2M49 78h1M21 79h1M42 79h1M49 79h1M12 80h1M22 80h1M42 80h3M46 80h1M48 80h1M12 81h1M22 81h1M28 81h2M43 81h1M47 81h1M12 82h1M22 82h1M26 82h2M30 82h2M44 82h3M13 83h1M21 83h1M25 83h1M32 83h1M13 84h1M21 84h1M32 84h1M14 85h2M19 85h2M33 85h1M16 86h3M33 86h1M25 87h1M32 87h1M25 88h1M32 88h1M26 89h2M30 89h2M26 90h1M28 90h2M26 91h1M26 92h1M26 93h1" />
<path stroke="#5a196b" d="M71 10h1M69 13h1M52 45h1M51 46h3M51 47h3M57 47h3M55 48h6M55 49h7M55 50h7M58 51h4M58 52h2M63 56h1M24 57h4M62 57h2M15 58h2M24 58h6M50 58h4M61 58h3M15 59h3M26 59h3M48 59h6M61 59h3M42 60h12M62 60h1M45 61h10M56 61h2M44 62h14M41 63h10M52 63h5M58 63h1M36 64h14M51 64h7M59 64h2M38 65h20M59 65h3M40 66h18M61 66h1M39 67h1M42 67h7M50 67h6M58 67h1M39 68h3M46 68h3M50 68h9M39 69h3M50 69h9M38 70h4M51 70h8M37 71h4M46 71h2M51 71h8M38 72h3M46 72h3M51 72h7M46 73h4M52 73h6M46 74h6M54 74h4M46 75h2M50 75h7M45 76h3M52 76h4M45 77h3M54 77h2M45 78h4M46 79h3M47 80h1M24 85h4" />
<path stroke="#b5b59c" d="M63 15h2M62 16h3M60 17h5M57 18h9M34 19h1M40 19h2M44 19h1M52 19h14M35 20h9M45 20h20M36 21h23M61 21h3M29 22h4M36 22h13M50 22h9M29 23h6M37 23h13M52 23h8M30 24h20M55 24h5M78 24h1M30 25h20M31 26h1M33 26h8M43 26h8M70 26h1M74 26h1M32 27h1M35 27h7M46 27h5M70 27h6M79 27h1M32 28h1M37 28h6M48 28h3M72 28h8M39 29h5M67 29h9M77 29h2M42 30h2M69 30h6M77 30h2M71 31h2M77 31h1M77 32h1M77 33h1M33 36h3M33 37h4M33 38h4M34 39h5M33 40h7M30 41h1M33 41h8M22 42h2M29 42h1M33 42h8M20 43h6M28 43h12M15 44h3M19 44h13M33 44h7M13 45h2M17 45h4M24 45h4M34 45h4M18 46h1M90 53h2M79 54h3M89 54h4M78 55h6M86 55h7M76 56h16M75 57h16M75 58h16M75 59h16M75 60h15M74 61h15M69 62h16M68 63h15M68 64h15M67 65h14M58 66h3M67 66h11M56 67h2M60 67h4M67 67h3M72 67h5M62 68h7M74 68h3M62 69h1M64 69h5M65 70h3" />
<path stroke="#19294a" d="M67 18h3M70 19h2M72 20h1M73 21h1M63 22h3M73 22h1M63 24h1M64 25h1M65 26h2M66 31h2M66 32h1M51 33h1M67 33h1M49 34h1M65 34h1M48 35h1M47 36h1M47 37h1M49 37h1M45 38h2M49 38h1M66 38h1M43 39h2M46 39h1M71 41h1M49 42h1M71 42h1M46 43h2M62 43h1M72 43h1M50 44h1M62 44h1M72 44h1M49 45h1M62 45h1M72 45h1M50 46h1M72 46h1M72 48h1M65 50h2M68 54h1M66 55h2M74 55h2M70 56h1M71 57h1M71 58h1M72 59h2" />
<path stroke="#849cce" d="M67 19h3M67 20h5M65 21h6M60 22h1M66 22h1M70 22h2M61 23h1M63 23h3M61 24h2M64 24h4M75 24h1M60 25h4M65 25h3M75 25h2M58 26h7M67 26h2M76 26h2M59 27h5M68 27h1M77 27h1M62 28h1M56 30h2M66 30h1M56 31h5M56 32h4M62 32h2M54 33h6M62 33h1M51 34h12M49 35h1M51 35h7M60 35h2M48 36h2M51 36h7M61 36h1M48 37h1M50 37h8M61 37h2M50 38h9M61 38h3M50 39h18M50 40h20M50 41h21M51 42h20M54 43h8M63 43h4M70 43h2M57 44h5M63 44h3M71 44h1M58 45h4M63 45h3M71 45h1M61 46h2M64 46h2M71 46h1M64 47h2M70 47h1M65 48h2M70 48h2M66 49h3M70 49h3M67 50h6M68 51h6M69 52h5M69 53h5M70 54h5M71 55h3M71 56h4M72 57h2M72 58h2" />
<path stroke="#4a638c" d="M71 21h2M66 23h1M75 23h1M76 24h2M77 25h1M65 31h1M68 31h1M75 31h2M64 32h2M67 32h8M63 33h4M68 33h4M63 34h2M62 35h2M62 36h2M42 37h1M63 37h2M41 38h3M47 38h2M67 38h1M41 39h2M45 39h1M47 39h2M68 39h2M41 40h8M70 40h1M42 41h7M42 42h7M50 42h1M48 43h6M49 44h1M51 44h6M51 45h1M53 45h5M54 46h7M63 46h1M54 47h3M60 47h4M71 47h1M53 48h2M61 48h4M53 49h2M62 49h4M73 49h1M54 50h1M62 50h3M73 50h1M54 51h4M62 51h5M74 51h1M55 52h3M60 52h8M74 52h1M55 53h13M74 53h1M54 54h14M75 54h1M54 55h12M70 55h1M53 56h10M64 56h1M54 57h8M64 57h1M55 58h6M55 59h6M55 60h1M58 60h4M63 60h1M59 61h5M59 62h4M61 63h2M62 64h1" />
<path stroke="#e6d600" d="M72 22h1M72 23h1" />
<path stroke="#d69431" d="M73 23h1M73 24h1" />
<path stroke="#212121" d="M32 46h1M15 48h1M16 50h1M33 51h1M33 52h1M4 56h1M22 56h1M28 56h1M5 57h2M20 57h3M18 58h5M35 58h1M18 59h4M33 59h3M18 60h4M30 60h5M17 61h3M27 61h8M5 62h1M29 62h4M5 63h3M12 63h2M5 64h2M10 64h4M6 65h1M11 65h2M10 66h3M10 67h1M7 72h2M36 72h2M7 73h4M15 73h1M37 73h2M7 74h9M6 75h1M8 75h7M5 76h2M8 76h7M5 77h3M10 77h3M13 78h1M13 79h1M43 79h2M13 80h2M45 80h1M13 81h3M44 81h2M13 82h5M21 82h1M14 83h7M14 84h7M27 84h1M16 85h3M28 85h1M30 85h3M28 86h5M26 87h6M26 88h6M28 89h2M27 90h1M27 91h2M27 92h1" />
<path stroke="#313131" d="M32 47h1M32 48h1M15 49h1M31 49h2M15 50h1M31 50h2M15 51h2M31 51h2M14 52h3M14 53h1M17 53h3M29 53h4M15 54h7M27 54h8M15 55h7M27 55h8M14 56h8M29 56h7M4 57h1M14 57h1M18 57h2M30 57h6M5 58h3M31 58h4M5 59h1M8 59h3M31 59h2M6 60h7M6 61h7M6 62h8M8 63h4M10 69h3M8 70h7M8 71h7M9 72h7M11 73h4M17 77h2M18 78h3M18 79h3M17 80h5M16 81h6M18 82h3M28 82h2M26 83h6M28 84h4M29 85h1M14 86h2M14 87h3M14 88h2" />
</svg>