<svg xmlns="http://www.w3.org/2000/svg" viewBox="0 -0.5 96 96" shape-rendering="crispEdges">
<metadata>Made with Pixels to Svg https://codepen.io/shshaw/pen/XbxvNj</metadata>
<path stroke="#4a4a6a" d="M57 6h1M49 7h1M49 8h1M54 8h1M48 9h1M55 9h1M48 10h1M53 11h2M87 12h3M86 13h1M89 13h1M39 14h1M88 14h1M38 15h1M68 15h1M89 15h1M17 16h2M26 16h2M38 16h1M60 16h1M67 16h1M90 16h1M25 17h1M37 17h1M57 17h1M60 17h1M66 17h1M90 17h1M15 18h1M23 18h2M37 18h1M47 18h1M62 18h1M66 18h1M14 19h1M19 19h4M46 19h1M58 19h1M65 19h1M14 20h5M21 20h1M29 20h2M56 20h2M64 20h1M20 21h1M26 21h3M33 21h2M45 21h1M58 21h2M88 21h1M19 22h1M23 22h3M35 22h1M45 22h1M58 22h1M88 22h1M19 23h4M26 23h4M36 23h1M45 23h1M57 23h1M87 23h1M25 24h1M30 24h2M37 24h1M44 24h1M59 24h3M73 24h1M80 24h1M87 24h1M24 25h1M32 25h2M36 25h2M57 25h2M72 25h1M80 25h1M87 25h1M34 26h2M44 26h4M50 26h1M56 26h1M66 26h1M72 26h1M42 27h2M48 27h2M57 27h2M66 27h1M72 27h1M79 27h1M17 28h1M41 28h1M58 28h1M66 28h1M71 28h1M79 28h1M87 28h1M18 29h1M41 29h1M57 29h1M65 29h1M70 29h1M77 29h1M79 29h1M87 29h1M25 30h1M40 30h1M65 30h1M69 30h1M24 31h1M40 31h2M56 31h1M59 31h1M42 32h1M59 32h1M59 33h1M64 33h1M35 34h1M58 34h1M63 34h1M71 34h1M53 35h1M55 35h1M58 35h1M62 35h1M71 35h2M45 36h1M55 36h1M58 36h1M57 37h1M60 38h1M60 39h1M43 40h1M54 40h1M59 40h1M44 41h1M46 41h1M59 41h1M44 42h2M53 42h1M58 42h1M30 43h1M58 43h1M27 44h1M31 44h2M36 44h1M28 45h2M33 45h1M37 45h1M30 46h1M34 46h1M38 46h1M39 47h1M37 48h1M40 48h1M58 48h1M28 49h2M59 49h1M30 50h1M54 50h1M37 51h1M60 51h1M62 51h1M62 52h1M8 53h4M57 53h1M62 53h1M6 54h2M12 54h2M29 54h1M35 54h1M58 54h1M14 55h2M59 55h1M16 56h1M52 56h1M59 56h1M17 57h1M54 57h1M18 58h1M18 59h1M56 59h1M20 60h4M2 61h5M19 61h1M23 61h1M3 62h1M7 62h4M25 62h1M4 63h2M19 63h3M53 63h1M2 64h2M8 64h2M19 64h6M53 64h1M1 65h1M7 65h1M18 65h8M28 65h2M67 65h1M2 66h4M17 66h6M25 66h1M30 66h1M67 66h1M3 67h1M14 67h2M18 67h1M66 67h1M31 68h1M12 69h1M29 69h2M53 69h1M65 69h1M32 70h1M48 71h1M33 72h1M45 72h1M30 73h1M33 73h2M29 74h1M31 74h1M33 74h1M37 74h1M63 74h1M31 75h2M36 75h2M62 75h1M27 76h2M35 76h1M37 76h1M41 76h1M62 76h1M26 77h3M34 77h1M57 77h1M62 77h4M25 78h5M63 78h1M66 78h2M25 79h1M27 79h1M29 79h2M65 79h3M24 80h1M26 80h1M28 80h2M33 80h1M55 80h1M6 81h1M23 81h1M25 81h1M27 81h1M29 81h1M31 81h1M54 81h1M56 81h1M20 82h1M24 82h1M26 82h1M31 82h1M57 82h1M60 82h1M65 82h1M13 83h1M17 83h1M14 84h3M24 84h1M26 84h1M17 85h2M24 85h1M29 85h1M27 86h1M29 86h1M14 87h1M25 87h1M28 87h1M13 88h1M16 88h2M24 88h2M27 88h1M17 89h1M27 89h1" />
<path stroke="#837b9c" d="M58 6h1M50 7h1M58 7h1M51 8h1M58 8h1M49 9h2M52 9h1M59 9h1M32 10h5M50 10h1M56 10h1M59 10h1M23 11h9M37 11h2M47 11h2M57 11h1M60 11h1M19 12h4M39 12h1M42 12h5M61 12h1M81 12h5M16 13h3M24 13h3M40 13h2M57 13h2M61 13h1M73 13h8M87 13h1M14 14h2M21 14h3M59 14h1M62 14h1M70 14h3M13 15h1M19 15h2M29 15h3M62 15h1M69 15h1M13 16h4M28 16h1M58 16h2M62 16h1M16 17h1M47 17h1M61 17h1M63 17h1M64 18h2M18 19h1M23 19h1M45 19h1M59 19h1M63 19h1M88 19h1M31 20h2M45 20h1M88 20h1M57 21h1M81 21h1M57 22h1M62 22h1M66 22h1M74 22h1M81 22h1M56 23h1M66 23h1M73 23h1M80 23h1M46 24h1M56 24h3M67 24h1M44 25h1M46 25h1M56 25h1M67 25h1M79 26h1M71 27h1M85 27h1M57 28h1M33 30h1M83 30h1M48 32h2M61 36h1M61 37h1M44 38h1M48 39h1M46 40h1M52 43h1M57 44h1M59 44h1M59 45h1M59 46h2M35 47h1M60 47h1M33 48h1M60 48h1M30 49h1M34 49h1M38 49h1M61 49h1M63 49h1M31 50h1M55 50h1M59 50h1M61 50h2M64 50h1M32 51h2M56 51h1M58 51h1M64 51h1M56 52h1M60 52h1M64 52h1M31 53h1M55 53h1M61 53h1M65 53h1M61 54h1M65 54h1M62 55h1M65 55h1M9 56h1M53 56h1M56 56h1M65 56h1M12 57h1M60 57h1M63 57h1M65 57h1M13 58h2M34 58h2M64 58h2M65 59h1M57 60h1M66 60h1M66 61h1M67 62h1M67 63h1M46 64h2M67 64h1M35 65h1M41 65h1M53 65h1M26 66h1M35 66h1M42 66h1M16 67h2M22 67h6M42 67h1M53 67h1M13 68h1M20 68h9M36 68h1M42 68h1M57 68h1M22 69h7M36 69h1M55 69h1M57 69h1M25 70h5M36 70h1M56 70h2M26 71h4M33 71h1M35 71h1M37 71h1M12 72h1M26 72h5M36 72h2M13 73h1M27 73h3M35 73h1M37 73h1M2 74h1M27 74h2M30 74h1M27 75h2M26 76h1M36 76h1M25 77h1M35 77h2M41 77h3M34 78h2M40 78h2M62 78h1M26 79h1M28 79h1M34 79h1M64 79h1M25 80h1M27 80h1M65 80h1M69 80h1M24 81h1M26 81h1M28 81h1M32 81h1M66 81h2M10 82h1M22 82h2M25 82h1M27 82h1M30 82h1M56 82h1M20 83h7M29 83h1M55 83h2M17 84h7M28 84h1M55 84h1M16 85h1" />
<path stroke="#000000" d="M56 7h1M56 8h1M53 9h1M56 9h1M53 10h1M51 12h2M50 13h1M90 13h1M49 14h1M91 14h1M49 15h1M90 15h1M48 16h1M48 17h1M48 18h1M57 18h1M90 18h1M37 19h1M48 19h1M57 19h1M61 19h1M91 19h1M37 20h1M48 20h1M91 20h1M38 21h1M49 21h1M56 21h1M64 21h1M91 21h1M38 22h1M49 22h1M56 22h1M63 22h1M91 22h1M38 23h1M50 23h1M55 23h1M63 23h1M91 23h1M38 24h1M50 24h1M55 24h1M62 24h1M91 24h1M50 25h1M55 25h1M62 25h1M91 25h1M16 26h3M24 26h1M61 26h1M86 26h1M91 26h1M15 27h1M19 27h2M23 27h1M56 27h1M61 27h1M86 27h1M90 27h1M16 28h1M21 28h2M56 28h1M60 28h1M78 28h1M85 28h1M90 28h1M27 29h5M56 29h1M60 29h1M71 29h1M84 29h1M90 29h1M18 30h1M26 30h1M32 30h1M36 30h4M56 30h1M60 30h1M71 30h1M77 30h1M79 30h1M84 30h1M87 30h1M89 30h1M19 31h1M33 31h3M55 31h1M65 31h1M68 31h1M71 31h1M76 31h1M79 31h1M83 31h1M88 31h1M20 32h4M32 32h1M55 32h1M65 32h1M67 32h1M71 32h1M75 32h1M79 32h1M82 32h1M33 33h2M46 33h2M54 33h1M65 33h2M71 33h1M74 33h1M79 33h1M81 33h1M36 34h1M45 34h1M48 34h2M53 34h1M73 34h1M80 34h1M37 35h1M45 35h1M50 35h3M37 36h1M44 36h1M47 36h1M38 37h1M44 37h1M46 37h1M39 38h1M43 38h1M46 38h1M48 38h3M56 38h1M40 39h4M46 39h1M52 39h2M55 39h1M47 40h1M54 41h1M29 43h1M44 43h1M26 44h1M29 44h1M43 44h1M26 45h1M30 45h1M35 45h1M43 45h1M27 46h1M31 46h1M35 46h1M42 46h1M28 47h1M32 47h1M36 47h1M42 47h1M29 48h1M41 48h1M57 48h1M40 49h1M57 49h1M27 50h1M39 50h1M57 50h1M28 51h1M38 51h1M54 51h1M57 51h1M29 52h1M36 52h1M54 52h1M58 52h1M30 53h1M35 53h1M54 53h1M58 53h1M5 54h1M55 54h1M62 54h1M4 55h1M31 55h5M55 55h1M5 56h4M55 56h1M9 57h3M28 57h3M52 57h1M56 57h1M7 58h2M23 58h2M32 58h2M52 58h1M55 58h2M6 59h1M20 59h2M53 59h1M7 60h4M19 60h1M42 60h1M53 60h1M11 61h1M24 61h2M43 61h1M54 61h1M11 62h1M19 62h3M26 62h2M38 62h1M54 62h1M10 63h1M18 63h1M22 63h2M26 63h1M34 63h1M39 63h1M44 63h1M18 64h1M25 64h1M35 64h1M40 64h1M44 64h1M17 65h1M26 65h2M30 65h2M40 65h1M16 66h1M23 66h2M27 66h1M31 66h1M36 66h1M41 66h1M45 66h1M19 67h3M28 67h1M31 67h1M35 67h1M41 67h1M45 67h1M2 68h1M29 68h1M32 68h1M34 68h1M37 68h1M41 68h1M45 68h1M54 68h1M66 68h1M2 69h1M32 69h1M34 69h1M37 69h1M42 69h1M45 69h1M54 69h1M1 70h1M12 70h1M30 70h1M33 70h1M37 70h1M42 70h1M52 70h1M55 70h1M65 70h1M1 71h1M12 71h1M30 71h1M36 71h1M42 71h1M44 71h1M49 71h3M56 71h1M64 71h1M1 72h1M31 72h1M35 72h1M38 72h1M42 72h1M44 72h1M46 72h2M56 72h1M63 72h1M1 73h1M31 73h1M38 73h1M42 73h1M55 73h1M63 73h1M1 74h1M38 74h1M41 74h1M55 74h1M2 75h1M29 75h1M38 75h1M41 75h1M56 75h1M2 76h1M29 76h1M38 76h1M40 76h1M42 76h2M56 76h1M3 77h1M29 77h1M37 77h1M40 77h1M44 77h1M3 78h1M36 78h1M39 78h1M42 78h2M57 78h1M4 79h1M24 79h1M33 79h1M35 79h1M39 79h3M56 79h1M68 79h2M5 80h1M23 80h1M30 80h3M34 80h2M38 80h2M70 80h1M7 81h1M22 81h1M33 81h1M37 81h1M68 81h2M8 82h2M21 82h1M28 82h1M32 82h1M36 82h1M54 82h1M58 82h2M66 82h2M10 83h3M18 83h2M27 83h1M30 83h2M34 83h1M54 83h1M57 83h1M61 83h5M11 84h1M25 84h1M29 84h2M32 84h2M54 84h1M56 84h1M12 85h2M19 85h5M27 85h2M54 85h2M14 86h2M25 86h2M16 87h9M13 89h3M23 89h2M17 90h1M21 90h2M24 90h1M26 90h1M17 91h1M19 91h2M24 91h2M17 92h2" />
<path stroke="#ffffff" d="M57 7h1M57 8h1M54 9h1M57 9h2M55 10h1M58 10h1M32 11h5M55 11h2M58 11h2M26 12h13M47 12h2M60 12h1M31 13h9M42 13h6M52 13h4M81 13h5M33 14h6M40 14h5M50 14h4M73 14h14M35 15h3M40 15h3M50 15h3M70 15h19M36 16h2M49 16h2M68 16h18M62 17h1M67 17h17M63 18h1M67 18h15M64 19h1M66 19h13M63 20h1M66 20h9M65 21h1M67 21h2M65 22h1M64 23h2M26 24h4M63 24h2M25 25h7M38 25h1M25 26h9M36 26h3M16 27h3M24 27h14M44 27h3M51 27h1M18 28h3M23 28h11M43 28h8M19 29h8M45 29h5M19 30h6M21 31h2M36 31h4M35 32h7M37 33h5M39 34h5M40 35h3M31 45h2M36 45h1M57 45h2M28 46h2M32 46h2M36 46h2M57 46h2M29 47h3M33 47h2M37 47h2M56 47h4M30 48h3M34 48h3M38 48h2M56 48h1M59 48h1M31 49h3M35 49h3M39 49h1M56 49h1M60 49h1M32 50h7M41 50h4M60 50h1M63 50h1M34 51h3M43 51h4M61 51h1M63 51h1M35 52h1M61 52h1M63 52h1M63 53h2M9 54h3M63 54h2M6 55h8M63 55h2M11 56h5M64 56h1M14 57h3M37 57h1M62 57h1M10 58h3M15 58h2M26 58h4M38 58h1M62 58h2M7 59h8M16 59h2M30 59h2M39 59h2M45 59h2M48 59h1M62 59h3M12 60h7M24 60h5M32 60h1M40 60h2M43 60h3M47 60h1M63 60h3M14 61h5M21 61h1M26 61h3M33 61h1M38 61h2M41 61h1M44 61h3M48 61h1M63 61h3M16 62h2M23 62h2M29 62h2M34 62h1M39 62h2M42 62h1M44 62h4M64 62h3M28 63h4M35 63h1M40 63h1M43 63h1M45 63h1M65 63h2M26 64h5M32 64h1M36 64h1M43 64h1M66 64h1M8 65h1M32 65h2M37 65h1M6 66h2M29 66h1M32 66h2M37 66h1M44 66h1M4 67h3M30 67h1M33 67h1M38 67h1M44 67h1M3 68h3M14 68h4M33 68h1M38 68h1M3 69h2M13 69h7M31 69h1M33 69h1M3 70h2M13 70h7M39 70h1M3 71h1M14 71h3M32 71h1M39 71h1M3 72h1M32 72h1M32 73h1M30 75h1M33 75h1M30 76h4M30 77h4M31 78h2M31 79h1M62 79h2M62 80h3M63 81h3M29 82h1M28 83h1M27 84h1" />
<path stroke="#c5b4ee" d="M50 8h1M51 9h1M49 10h1M51 10h2M54 10h1M57 10h1M49 11h4M23 12h3M49 12h2M53 12h7M19 13h5M27 13h4M48 13h2M51 13h1M56 13h1M59 13h2M88 13h1M16 14h5M24 14h9M45 14h4M54 14h5M60 14h2M87 14h1M89 14h2M14 15h5M21 15h8M32 15h3M39 15h1M43 15h6M53 15h9M19 16h7M29 16h7M39 16h9M51 16h7M61 16h1M86 16h4M17 17h8M26 17h11M38 17h9M49 17h8M58 17h2M84 17h6M16 18h7M25 18h12M38 18h9M49 18h8M58 18h2M61 18h1M82 18h8M15 19h3M24 19h13M38 19h7M49 19h8M60 19h1M79 19h9M89 19h2M22 20h7M33 20h4M38 20h7M49 20h7M58 20h5M65 20h1M75 20h13M89 20h2M21 21h5M35 21h3M39 21h6M50 21h6M60 21h4M66 21h1M69 21h12M82 21h6M89 21h2M20 22h3M36 22h2M39 22h6M50 22h6M59 22h3M64 22h1M67 22h7M75 22h6M82 22h6M89 22h2M37 23h1M39 23h6M51 23h4M58 23h5M67 23h6M74 23h6M81 23h6M88 23h3M39 24h5M45 24h1M51 24h4M65 24h2M68 24h5M74 24h6M81 24h6M88 24h3M39 25h5M45 25h1M51 25h4M63 25h4M68 25h4M73 25h7M81 25h6M88 25h3M39 26h5M51 26h5M62 26h4M67 26h5M73 26h6M80 26h6M87 26h4M38 27h4M47 27h1M50 27h1M52 27h4M62 27h4M67 27h4M73 27h6M80 27h5M87 27h3M34 28h7M42 28h1M51 28h5M61 28h5M67 28h4M72 28h6M80 28h5M88 28h2M32 29h9M42 29h3M50 29h6M61 29h4M66 29h4M72 29h5M80 29h4M88 29h2M34 30h2M41 30h15M61 30h4M66 30h3M72 30h5M80 30h3M88 30h1M20 31h1M23 31h1M42 31h13M60 31h5M66 31h2M72 31h4M80 31h3M33 32h2M43 32h5M50 32h5M60 32h5M66 32h1M72 32h3M80 32h2M35 33h2M42 33h4M48 33h6M60 33h4M72 33h2M80 33h1M37 34h2M44 34h1M50 34h3M59 34h4M72 34h1M38 35h2M43 35h2M54 35h1M59 35h3M38 36h6M59 36h2M39 37h5M45 37h1M58 37h3M40 38h3M45 38h1M57 38h3M44 39h2M49 39h3M56 39h4M44 40h2M48 40h6M55 40h4M45 41h1M47 41h7M55 41h4M46 42h7M54 42h4M45 43h7M53 43h5M30 44h1M44 44h13M58 44h1M27 45h1M44 45h13M43 46h14M43 47h13M42 48h14M41 49h15M58 49h1M28 50h2M40 50h1M45 50h9M56 50h1M58 50h1M29 51h3M39 51h4M47 51h7M55 51h1M59 51h1M30 52h5M37 52h17M55 52h1M57 52h1M59 52h1M32 53h3M36 53h18M56 53h1M59 53h2M8 54h1M30 54h5M36 54h19M56 54h2M59 54h2M5 55h1M36 55h19M56 55h3M60 55h2M10 56h1M38 56h14M54 56h1M57 56h2M60 56h4M13 57h1M40 57h12M53 57h1M55 57h1M57 57h3M61 57h1M64 57h1M9 58h1M17 58h1M41 58h11M53 58h2M57 58h5M15 59h1M36 59h1M42 59h3M47 59h1M49 59h4M54 59h2M57 59h5M11 60h1M37 60h2M46 60h1M48 60h5M54 60h3M58 60h5M12 61h2M20 61h1M22 61h1M29 61h2M47 61h1M49 61h5M55 61h8M4 62h3M12 62h4M18 62h1M22 62h1M28 62h1M31 62h2M48 62h6M55 62h9M6 63h4M11 63h7M24 63h2M27 63h1M32 63h2M46 63h7M54 63h11M4 64h4M10 64h8M31 64h1M33 64h2M41 64h1M45 64h1M48 64h5M54 64h12M2 65h5M9 65h8M34 65h1M46 65h7M54 65h13M8 66h8M28 66h1M34 66h1M46 66h21M7 67h7M29 67h1M32 67h1M34 67h1M46 67h7M54 67h12M6 68h7M18 68h2M30 68h1M35 68h1M46 68h8M55 68h2M58 68h8M5 69h7M20 69h2M35 69h1M46 69h7M56 69h1M58 69h7M2 70h1M5 70h7M20 70h5M31 70h1M34 70h2M46 70h6M58 70h7M2 71h1M4 71h8M13 71h1M17 71h9M31 71h1M34 71h1M45 71h3M57 71h7M2 72h1M4 72h8M13 72h13M34 72h1M57 72h6M2 73h11M14 73h13M36 73h1M56 73h7M3 74h24M32 74h1M34 74h3M56 74h7M3 75h24M34 75h2M57 75h5M3 76h23M34 76h1M57 76h5M4 77h21M58 77h4M4 78h21M30 78h1M33 78h1M58 78h4M64 78h2M5 79h19M32 79h1M57 79h5M6 80h17M56 80h6M66 80h3M8 81h14M30 81h1M55 81h1M57 81h6M11 82h9M55 82h1M61 82h4M14 83h3M12 84h2M14 85h2M25 85h2M16 86h9M28 86h1M15 87h1M26 87h2M14 88h2M18 88h6M26 88h1M18 89h5M25 89h2M18 90h3M25 90h1M18 91h1" />
<path stroke="#bd2031" d="M60 18h1M62 19h1" />
<path stroke="#d5c562" d="M55 33h1M53 37h2M53 38h3M54 39h1M31 56h5M36 57h1M25 58h1M30 58h2M39 58h1M29 59h1M32 59h2M31 60h1M33 60h3M35 61h2M42 61h1M36 62h2M37 63h2M38 64h1M44 65h1M44 68h1M39 69h1M44 69h1M43 70h1M43 71h1M39 72h1M43 72h1M39 73h1M39 74h1M39 75h1M39 76h1M38 77h1M38 78h1M37 79h1M36 80h1M35 81h1M34 82h1" />
<path stroke="#6a5a4a" d="M56 33h1M54 34h1M56 34h1M48 35h2M54 36h1M55 37h1M51 38h1M47 39h1M29 56h2M36 56h2M25 57h3M31 57h1M34 57h2M38 57h2M36 58h1M40 58h1M24 59h2M34 59h2M38 59h1M41 59h1M30 60h1M36 60h1M31 61h2M37 61h1M33 62h1M41 63h1M39 64h1M42 64h1M36 65h1M42 65h1M45 65h1M43 66h1M36 67h2M43 67h1M43 68h1M38 69h1M43 69h1M38 70h1M45 70h1M38 71h1M40 71h1M40 72h1M40 73h1M44 73h1M40 74h1M43 74h1M40 75h1M42 75h1M37 78h1M36 79h1M38 79h1M37 80h1M34 81h1M36 81h1M35 82h1M33 83h1" />
<path stroke="#a48318" d="M55 34h1M48 36h6M47 37h6M47 38h1M52 38h1M32 57h2M37 58h1M22 59h2M26 59h3M37 59h1M29 60h1M39 60h1M34 61h1M40 61h1M35 62h1M41 62h1M43 62h1M36 63h1M42 63h1M37 64h1M38 65h2M43 65h1M38 66h3M39 67h2M39 68h2M40 69h2M40 70h2M44 70h1M41 71h1M41 72h1M41 73h1M43 73h1M42 74h1M39 77h1M33 82h1M32 83h1" />
</svg>