<svg xmlns="http://www.w3.org/2000/svg" viewBox="0 -0.5 96 96" shape-rendering="crispEdges">
<metadata>Made with Pixels to Svg https://codepen.io/shshaw/pen/XbxvNj</metadata>
<path stroke="#101010" d="M42 15h2M35 17h5M32 18h3M40 18h2M31 19h1M31 20h1M26 22h4M40 22h5M22 23h4M45 23h3M61 23h1M20 24h2M48 24h3M61 24h1M19 25h1M51 25h1M61 25h1M18 26h1M52 26h4M60 26h1M18 27h1M53 27h1M56 27h4M18 28h1M21 28h1M23 28h6M53 28h1M57 28h1M19 29h1M22 29h1M29 29h5M54 29h1M57 29h4M20 30h1M34 30h6M54 30h1M21 31h2M38 31h1M40 31h4M53 31h1M23 32h2M34 32h2M39 32h1M44 32h3M53 32h1M25 33h2M33 33h1M39 33h1M47 33h3M52 33h1M27 34h3M33 34h1M40 34h1M50 34h2M30 35h4M40 35h1M41 36h1M45 36h1M67 36h1M41 37h1M45 37h1M64 37h1M67 37h1M69 37h1M40 38h2M46 38h1M63 38h1M69 38h1M39 39h1M42 39h1M47 39h2M52 39h2M68 39h1M39 40h1M42 40h1M47 40h1M49 40h3M54 40h1M61 40h1M67 40h1M38 41h1M42 41h1M46 41h1M50 41h1M55 41h1M59 41h2M65 41h2M28 42h1M34 42h1M37 42h2M43 42h1M46 42h1M49 42h1M56 42h3M62 42h3M28 43h1M33 43h1M36 43h1M38 43h1M43 43h1M45 43h1M49 43h1M56 43h1M29 44h1M33 44h1M37 44h2M43 44h1M45 44h1M48 44h1M53 44h1M56 44h1M59 44h3M29 45h1M32 45h1M35 45h2M38 45h1M43 45h1M45 45h1M48 45h1M53 45h1M59 45h1M32 46h1M34 46h1M39 46h1M43 46h2M48 46h1M54 46h1M60 46h1M30 47h1M32 47h2M39 47h1M43 47h1M48 47h1M54 47h1M60 47h1M42 48h1M48 48h1M55 48h3M61 48h1M31 49h1M41 49h1M47 49h2M55 49h1M58 49h3M62 49h1M40 50h1M46 50h1M49 50h1M53 50h2M63 50h1M35 51h2M38 51h2M50 51h3M63 51h1M34 52h1M37 52h1M44 52h3M64 52h1M33 53h1M36 53h1M44 53h1M47 53h2M74 53h1M35 54h1M45 54h1M49 54h1M66 54h1M75 54h1M35 55h1M45 55h1M50 55h2M66 55h1M75 55h1M34 56h1M46 56h1M67 56h1M76 56h1M29 57h1M34 57h1M47 57h1M68 57h1M76 57h1M28 58h1M34 58h1M47 58h1M69 58h1M76 58h1M34 59h1M48 59h1M52 59h1M70 59h2M34 60h1M49 60h1M54 60h1M72 60h1M34 61h1M49 61h1M55 61h1M73 61h1M25 62h1M29 62h1M35 62h1M47 62h1M50 62h1M56 62h1M74 62h1M25 63h1M28 63h1M30 63h1M35 63h1M46 63h1M51 63h1M57 63h1M75 63h1M25 64h1M27 64h1M30 64h1M35 64h1M46 64h1M51 64h1M58 64h1M27 65h1M30 65h1M35 65h1M45 65h1M52 65h1M56 65h1M59 65h1M26 66h1M30 66h1M36 66h1M44 66h1M52 66h1M56 66h1M60 66h1M26 67h1M30 67h1M36 67h1M55 67h1M25 68h1M36 68h1M53 68h3M62 68h2M25 69h1M37 69h1M55 69h1M24 70h1M37 70h1M24 71h1M38 71h2M24 72h1M30 72h1M23 73h1M30 73h1M54 73h1M31 74h1M54 74h1M22 75h1M32 75h1M53 75h1M23 76h2M31 76h2M53 76h1M25 77h5M53 77h1M61 77h1M53 78h1M59 78h2M62 78h1M53 79h1M56 79h2M54 80h2M58 80h3M61 81h4" />
<path stroke="#522119" d="M45 15h4M41 16h4M49 16h3M52 17h2M31 21h9M30 22h1M25 24h7M32 25h6M20 26h1M38 26h5M20 27h1M47 28h3M59 28h1M23 29h6M50 29h3M23 30h11M53 30h1M60 30h3M24 31h14M61 31h1M63 31h2M25 32h9M43 32h1M62 32h1M65 32h1M27 33h6M43 33h1M62 33h1M66 33h1M30 34h3M38 34h1M44 34h1M48 34h1M52 34h1M63 34h1M38 35h1M41 35h1M44 35h1M48 35h1M53 35h1M63 35h1M68 35h1M37 36h1M47 36h1M53 36h1M64 36h1M37 37h1M47 37h1M54 37h1M38 38h1M42 38h1M47 38h1M49 38h2M54 38h1M40 39h1M51 39h1M54 39h1M62 39h1M28 40h2M35 40h1M60 40h1M28 41h1M30 41h1M34 41h1M36 41h1M39 41h1M53 41h2M31 42h1M41 42h1M52 42h1M55 42h1M29 43h1M32 43h1M41 43h1M51 43h1M57 43h5M41 44h1M51 44h1M54 44h2M41 45h1M50 45h1M56 45h2M62 45h2M30 46h1M35 46h1M41 46h1M50 46h1M52 46h1M58 46h2M64 46h2M36 47h1M42 47h1M44 47h1M50 47h1M53 47h1M66 47h1M31 48h1M36 48h2M40 48h1M44 48h2M50 48h1M58 48h1M67 48h2M37 49h1M43 49h1M45 49h1M49 49h1M51 49h1M54 49h1M61 49h1M69 49h1M32 50h1M38 50h1M43 50h1M70 50h2M32 51h1M41 51h2M46 51h1M72 51h1M33 52h1M39 52h2M73 52h1M35 53h1M37 53h1M39 53h1M41 53h2M46 53h1M65 53h1M32 54h1M34 54h1M43 54h1M47 54h1M31 55h1M33 55h1M38 55h1M44 55h1M48 55h1M30 56h1M33 56h1M38 56h1M45 56h1M49 56h1M51 56h2M32 57h1M37 57h3M50 57h1M53 57h2M32 58h1M36 58h2M40 58h2M48 58h1M51 58h1M55 58h2M75 58h1M27 59h2M31 59h1M37 59h1M42 59h1M53 59h1M57 59h1M73 59h2M76 59h1M27 60h1M31 60h1M37 60h1M43 60h1M48 60h1M58 60h2M76 60h1M26 61h1M30 61h1M37 61h1M44 61h1M47 61h1M50 61h1M60 61h1M76 61h1M26 62h1M30 62h1M33 62h1M37 62h1M45 62h1M61 62h1M76 62h1M33 63h1M37 63h1M62 63h1M26 64h1M33 64h1M37 64h1M45 64h1M57 64h1M62 64h1M31 65h3M63 65h1M53 66h1M63 66h1M29 67h1M38 67h1M43 67h1M53 67h1M59 67h1M61 67h1M63 67h1M29 68h1M38 68h1M42 68h1M59 68h1M29 69h1M38 69h1M41 69h1M59 69h1M29 70h1M38 70h3M54 70h1M60 70h1M29 71h1M54 71h1M60 71h1M29 72h1M54 72h1M60 72h1M60 73h1M23 74h1M61 74h1M61 75h1M29 76h2M62 76h1M62 77h1M63 78h1M58 79h1M64 79h1M65 80h1" />
<path stroke="#d6424a" d="M45 16h4M41 17h8M43 18h7M45 19h5M46 20h5M46 21h5M31 22h9M46 22h5M26 23h19M48 23h4M32 24h16M51 24h1M39 25h12M44 26h8M48 27h5M51 28h2M58 28h1M53 29h1M62 31h1M63 32h1M63 33h3M64 34h2M64 35h2M65 36h2M44 37h1M66 37h1M43 38h3M41 39h1M43 39h4M40 40h2M43 40h4M48 40h1M52 40h2M41 41h1M43 41h3M47 41h3M51 41h2M44 42h2M47 42h2M66 48h1M35 49h2M67 49h2M33 50h5M41 50h2M67 50h3M33 51h2M37 51h1M40 51h1M43 51h2M68 51h3M36 52h1M38 52h1M41 52h3M69 52h4M43 53h1M70 53h4M38 54h1M48 54h1M71 54h3M34 55h1M49 55h1M72 55h3M50 56h1M73 56h2M33 57h1M51 57h2M75 57h1M33 58h1M52 58h3M32 59h2M54 59h3M32 60h2M55 60h3M31 61h3M56 61h4M31 62h2M57 62h4M31 63h2M58 63h4M31 64h2M59 64h3M60 65h3M61 66h2M62 67h1M27 71h2M25 72h4M24 73h6M59 73h1M24 74h6M57 74h4M23 75h7M54 75h7M25 76h4M54 76h8M54 77h7M54 78h5M54 79h2" />
<path stroke="#42423a" d="M40 17h1M35 18h2M42 18h1M34 19h3M43 19h2M34 20h3M45 20h1M45 21h1M45 22h1" />
<path stroke="#943129" d="M49 17h1M50 18h1M54 18h2M50 19h1M56 19h1M51 20h1M57 20h2M51 21h1M59 21h1M51 22h1M60 22h1M52 23h1M22 24h3M52 24h1M55 24h2M20 25h12M38 25h1M52 25h1M57 25h2M19 26h1M21 26h17M43 26h1M19 27h1M21 27h27M54 27h2M19 28h2M22 28h1M29 28h18M50 28h1M54 28h3M20 29h2M34 29h16M55 29h2M21 30h2M40 30h13M55 30h5M23 31h1M39 31h1M44 31h9M54 31h7M40 32h3M47 32h6M54 32h8M64 32h1M40 33h3M44 33h3M50 33h2M53 33h9M39 34h1M41 34h3M45 34h3M49 34h1M53 34h10M67 34h1M39 35h1M42 35h2M45 35h3M49 35h4M54 35h9M38 36h3M42 36h3M46 36h1M48 36h5M54 36h10M38 37h3M42 37h2M46 37h1M48 37h6M55 37h9M65 37h1M39 38h1M48 38h1M51 38h3M55 38h8M64 38h3M49 39h2M55 39h7M63 39h5M55 40h5M62 40h5M29 41h1M35 41h1M40 41h1M56 41h3M61 41h4M29 42h2M35 42h2M39 42h2M42 42h1M50 42h2M59 42h3M30 43h2M34 43h2M37 43h1M39 43h2M42 43h1M44 43h1M46 43h3M50 43h1M30 44h3M34 44h3M39 44h2M42 44h1M44 44h1M46 44h2M49 44h2M30 45h2M33 45h2M39 45h2M42 45h1M44 45h1M46 45h2M49 45h1M54 45h2M60 45h2M31 46h1M33 46h1M40 46h1M42 46h1M45 46h3M49 46h1M53 46h1M55 46h3M61 46h3M31 47h1M34 47h2M40 47h2M45 47h3M49 47h1M55 47h5M61 47h5M32 48h4M41 48h1M43 48h1M46 48h2M49 48h1M59 48h2M62 48h4M32 49h3M42 49h1M44 49h1M46 49h1M50 49h1M63 49h4M44 50h2M50 50h3M64 50h3M45 51h1M64 51h4M71 51h1M35 52h1M65 52h4M34 53h1M45 53h1M66 53h4M33 54h1M44 54h1M46 54h1M67 54h4M74 54h1M32 55h1M46 55h2M67 55h5M31 56h2M47 56h2M68 56h5M75 56h1M30 57h2M48 57h2M69 57h6M29 58h3M38 58h2M49 58h2M70 58h5M29 59h2M35 59h2M38 59h4M49 59h3M72 59h1M28 60h3M35 60h2M38 60h5M50 60h4M27 61h3M35 61h2M38 61h6M51 61h4M27 62h2M36 62h1M38 62h7M51 62h5M26 63h2M29 63h1M36 63h1M38 63h8M52 63h5M28 64h2M36 64h1M38 64h7M52 64h5M28 65h2M36 65h9M53 65h3M57 65h2M27 66h3M37 66h7M54 66h2M57 66h3M27 67h2M37 67h1M39 67h4M54 67h1M56 67h3M26 68h3M37 68h1M39 68h3M56 68h3M26 69h3M39 69h2M56 69h3M25 70h4M55 70h5M25 71h2M55 71h5M55 72h5M55 73h4M30 74h1M55 74h2" />
<path stroke="#ffb5ce" d="M50 17h2M51 18h3M51 19h4M52 20h5M52 21h6M52 22h8M54 23h7M57 24h4M59 25h2M53 42h2M54 43h2M38 53h1M40 53h1M36 54h2M39 54h4M36 55h2M39 55h5M35 56h3M39 56h6M36 57h1M40 57h3M30 75h1M62 79h1M62 80h3" />
<path stroke="#a5a5ad" d="M37 18h3M32 19h2M37 19h3M32 20h2M37 20h3" />
<path stroke="#ffffff" d="M40 19h3M40 20h5M40 21h5M68 36h1" />
<path stroke="#bd7b94" d="M55 19h1M58 21h1M53 23h1M53 24h2M53 25h4M56 26h4M52 43h2M52 44h1M51 45h2M51 46h1M51 47h2M51 48h4M52 49h2M35 57h1M43 57h4M35 58h1M42 58h5M43 59h5M75 59h1M44 60h4M73 60h3M45 61h2M74 61h2M46 62h1M75 62h1M31 75h1M61 78h1M59 79h3M63 79h1M61 80h1" />
<path stroke="#3a3a4a" d="M66 34h1M66 35h1M69 36h1M67 38h1" />
<path stroke="#adadbd" d="M67 35h1M68 37h1" />
<path stroke="#5a5a73" d="M68 38h1" />
</svg>