<svg xmlns="http://www.w3.org/2000/svg" viewBox="0 -0.5 96 96" shape-rendering="crispEdges">
<metadata>Made with Pixels to Svg https://codepen.io/shshaw/pen/XbxvNj</metadata>
<path stroke="#1f4d63" d="M43 26h4M56 26h5M41 27h1M48 27h1M53 27h2M61 27h1M40 28h1M51 28h2M62 28h1M63 30h1M63 31h1M59 32h3M64 32h1M58 33h1M64 33h1M64 34h1M33 57h1M33 58h1M32 59h1M35 59h1M43 59h1M32 60h1M34 60h1M40 60h1M43 60h1M32 61h1M34 61h1M37 61h1M40 61h1M43 61h1M31 62h1M33 62h1M40 62h2M43 62h1M31 63h1M33 63h1M41 63h1M31 64h1M41 64h1M31 65h1M31 66h1M31 67h1" />
<path stroke="#388fa9" d="M42 27h1M47 27h1M55 27h1M62 29h1M59 33h4M58 34h5M59 35h5M59 36h5M59 37h5M60 38h3M60 39h3M60 40h2M60 41h1M34 57h1M34 58h1M33 59h2M42 59h1M33 60h1M35 60h2M41 60h2M33 61h1M35 61h2M38 61h2M41 61h2M32 62h1M34 62h3M38 62h2M42 62h1M32 63h1M34 63h2M39 63h2M42 63h1M32 64h4M39 64h2M42 64h1M32 65h3M40 65h3M32 66h2M40 66h3M32 67h1M41 67h1M41 68h1" />
<path stroke="#51c9d2" d="M43 27h4M56 27h5M41 28h1M53 28h9M53 29h9M55 30h8M56 31h7M57 32h2M62 32h2M63 33h1M63 34h1" />
<path stroke="#163545" d="M42 28h8M39 29h2M51 29h2M37 30h2M53 30h2M36 31h1M55 31h1M56 32h1M57 33h1M57 34h1M33 35h1M58 35h1M58 36h1M32 37h1M58 37h1M59 38h1M59 39h1M31 40h1M35 40h1M59 40h1M30 41h1M34 41h1M47 41h1M59 41h1M30 42h1M34 42h1M41 42h1M47 42h1M59 42h1M33 43h1M41 43h1M46 43h1M59 43h1M33 44h1M40 44h1M59 44h1M33 45h1M42 45h1M59 45h1M33 46h1M59 46h1M33 47h1M37 47h1" />
<path stroke="#325669" d="M41 29h1M50 29h1M52 31h2M37 32h2M50 32h5M35 33h6M47 33h10M34 34h23M34 35h24M33 36h25M33 37h25M32 38h27M32 39h27M32 40h3M36 40h23M31 41h3M35 41h12M48 41h11M32 42h2M35 42h6M42 42h5M48 42h11M34 43h7M42 43h4M47 43h12M34 44h6M43 44h2M47 44h12M32 45h1M35 45h5M41 45h1M46 45h9M32 46h1M38 46h1M40 46h3M45 46h8M32 47h1M39 47h13M32 48h2M37 48h14M32 49h18M33 50h16M33 51h16M33 52h15M34 53h14M34 54h13M35 55h11M35 56h10M36 57h8M36 58h6M37 59h3" />
<path stroke="#3c828e" d="M42 29h8M39 30h14M37 31h15M54 31h1M36 32h1M39 32h11M55 32h1M41 33h6M31 42h1M31 43h2M42 44h1M45 44h1M34 45h1M43 45h2M34 46h4M34 47h3" />
<path stroke="#101010" d="M35 32h1M34 33h1M33 34h1M64 35h1M32 36h1M64 36h1M64 37h1M31 38h1M63 38h1M31 39h1M63 39h1M62 40h1M61 41h1M60 42h1M30 43h1M31 44h2M41 44h1M46 44h1M31 45h1M40 45h1M45 45h1M31 46h1M39 46h1M43 46h2M31 47h1M38 47h1M31 48h1M34 48h3M31 49h1M32 50h1M59 50h1M32 51h1M59 51h1M32 52h1M59 52h1M31 53h1M33 53h1M59 53h1M31 54h1M33 54h1M59 54h1M31 55h1M34 55h1M46 55h1M58 55h1M34 56h1M45 56h1M58 56h1M32 57h1M35 57h1M44 57h1M58 57h1M32 58h1M35 58h1M42 58h2M57 58h1M36 59h1M40 59h2M47 59h1M57 59h1M37 60h3M47 60h1M56 60h1M47 61h1M55 61h1M37 62h1M47 62h1M54 62h1M36 63h3M43 63h1M47 63h1M53 63h1M36 64h1M38 64h1M43 64h1M48 64h1M52 64h1M35 65h2M39 65h1M43 65h1M51 65h1M34 66h1M36 66h1M39 66h1M43 66h2M49 66h2M33 67h1M40 67h1M42 67h1M31 68h2M37 68h1M40 68h1M42 68h1M45 68h1M52 68h2M37 69h1M41 69h1M45 69h1M50 69h2M35 70h1M39 70h3M44 70h1M37 71h2M43 71h1M49 71h7M34 72h3M46 72h2M42 73h3" />
<path stroke="#737373" d="M55 45h1M58 45h1M53 46h1M52 47h1M59 47h1M51 48h1M59 48h1M50 49h1M59 49h1M31 50h1M49 50h1M31 51h1M49 51h1M31 52h1M48 52h1M48 53h1M47 54h1M47 55h1M32 56h1M47 56h1M47 57h1M56 57h1M47 58h1M51 58h1M54 58h1M56 58h1M51 59h1M54 59h1M56 59h1M50 60h1M54 60h1M50 61h1M53 61h1M50 62h1M53 62h1M49 63h1M52 63h1M49 64h1M44 65h1M49 65h1" />
<path stroke="#bfbfbf" d="M56 45h2M54 46h1M58 46h1M53 47h4M52 48h6M51 49h7M50 50h7M50 51h3M56 51h1M49 52h4M56 52h1M32 53h1M49 53h4M56 53h1M32 54h1M48 54h5M56 54h1M32 55h2M48 55h5M56 55h2M33 56h1M46 56h1M48 56h5M56 56h2M45 57h2M48 57h8M57 57h1M44 58h3M48 58h3M52 58h2M55 58h1M44 59h3M48 59h3M52 59h2M55 59h1M44 60h3M48 60h2M51 60h3M55 60h1M44 61h3M48 61h2M51 61h2M54 61h1M44 62h3M48 62h2M51 62h2M44 63h3M48 63h1M50 63h2M37 64h1M44 64h4M50 64h2M37 65h2M45 65h2M50 65h1" />
<path stroke="#f8f8f8" d="M55 46h3M57 47h2M58 48h1M58 49h1" />
<path stroke="#929197" d="M57 50h1M53 51h1M55 51h1M57 54h1M53 56h1M55 56h1" />
<path stroke="#b82525" d="M58 50h1M54 51h1M57 51h2M53 52h3M57 52h2M53 53h3M57 53h2M53 54h3M58 54h1M53 55h3M54 56h1M47 65h1M37 66h2M45 66h3M38 67h2M46 67h2M38 68h2M46 68h3M38 69h3M46 69h2M37 70h2M46 70h6M35 71h2M44 71h4M43 72h2" />
<path stroke="#870505" d="M48 65h1M48 66h1M37 67h1M43 67h1M45 67h1M48 67h1M50 67h2M43 68h2M49 68h1M52 69h3M36 70h1M42 70h2M45 70h1M55 70h1M34 71h1M48 71h1M42 72h1M45 72h1" />
<path stroke="#ff4040" d="M50 68h2M42 69h3M48 69h2M52 70h3" />
</svg>