<svg xmlns="http://www.w3.org/2000/svg" viewBox="0 -0.5 96 96" shape-rendering="crispEdges">
<metadata>Made with Pixels to Svg https://codepen.io/shshaw/pen/XbxvNj</metadata>
<path stroke="#595959" d="M46 27h2M45 28h1M48 28h1M51 28h2M62 28h2M45 29h1M49 29h1M51 29h1M53 29h1M56 29h2M61 29h1M64 29h1M30 30h1M50 30h2M54 30h2M57 30h1M60 30h1M64 30h1M31 31h1M33 31h2M51 31h1M54 31h1M58 31h2M64 31h1M25 32h3M32 32h1M34 32h1M58 32h1M64 32h1M28 33h1M34 33h1M64 33h1M34 34h1M64 34h1M26 35h2M33 35h2M64 35h1M25 36h1M34 36h1M63 36h2M34 37h1M64 37h1M33 38h1M64 38h1M33 39h1M65 39h1M32 40h1M65 40h1M31 41h1M30 42h1M29 43h1M28 44h1M28 45h1M27 46h1M27 47h1M27 48h1M39 48h4M62 48h1M27 49h1M37 49h2M60 49h2M28 50h2M35 50h2M52 50h1M30 51h5M53 51h1M54 52h1M37 54h2M37 56h1M45 56h1M51 56h1M49 57h2M40 58h1M43 61h1M43 62h1M37 63h1M43 63h1M38 64h1M43 64h1M44 65h1M53 65h1M38 66h1M44 67h1" />
<path stroke="#e5e5e5" d="M46 28h2M46 29h3M52 29h1M62 29h2M45 30h5M52 30h1M56 30h1M61 30h3M30 31h1M45 31h6M52 31h2M56 31h2M60 31h4M30 32h2M33 32h1M45 32h2M49 32h9M59 32h5M25 33h3M30 33h2M33 33h1M44 33h1M47 33h17M26 34h3M31 34h3M45 34h19M28 35h5M44 35h16M62 35h2M26 36h8M43 36h19M31 37h2M43 37h21M32 38h1M42 38h22M31 39h1M42 39h21M30 40h2M43 40h19M29 41h2M45 41h15M28 42h2M48 42h9M27 43h2M26 44h2M26 45h1M26 46h1M26 47h1M40 49h7M38 50h11M37 51h13M38 52h10M41 53h4" />
<path stroke="#101010" d="M29 30h1M44 30h1M29 31h1M44 31h1M24 32h1M29 32h1M44 32h1M24 33h1M29 33h1M43 33h1M25 34h1M43 34h1M43 35h1M42 36h1M25 37h5M42 37h1M30 38h1M41 38h1M30 39h1M41 39h1M29 40h1M41 40h1M28 41h1M41 41h1M65 41h1M27 42h1M41 42h1M65 42h1M26 43h1M41 43h1M65 43h1M25 44h1M42 44h1M65 44h1M25 45h1M42 45h1M64 45h1M24 46h1M43 46h1M64 46h1M24 47h1M44 47h1M63 47h1M24 48h1M43 48h3M24 49h1M25 50h1M58 50h2M70 50h1M25 51h1M54 51h4M60 51h1M69 51h2M26 52h1M55 52h1M61 52h1M69 52h1M27 53h2M55 53h1M62 53h1M70 53h1M29 54h8M55 54h1M63 54h1M67 54h4M34 55h1M55 55h1M64 55h2M67 55h1M34 56h1M55 56h1M66 56h2M34 57h1M38 57h2M45 57h1M54 57h1M34 58h1M39 58h1M45 58h1M47 58h3M54 58h1M33 59h1M38 59h2M44 59h3M49 59h1M53 59h1M33 60h1M38 60h2M44 60h1M46 60h1M49 60h1M53 60h1M33 61h1M37 61h1M39 61h1M47 61h1M49 61h1M53 61h1M33 62h1M37 62h1M39 62h1M47 62h1M49 62h1M53 62h1M33 63h1M39 63h1M48 63h2M53 63h1M34 64h1M39 64h1M48 64h2M54 64h1M34 65h1M39 65h1M49 65h1M54 65h1M34 66h1M39 66h1M45 66h1M50 66h4M35 67h4M40 67h1M45 67h1M41 68h4" />
<path stroke="#b3b3b3" d="M53 30h1M55 31h1M47 32h2M32 33h1M45 33h2M29 34h2M44 34h1M60 35h2M62 36h1M30 37h1M33 37h1M31 38h1M32 39h1M63 39h2M42 40h1M62 40h3M42 41h3M60 41h5M42 42h6M57 42h8M42 43h23M43 44h22M27 45h1M43 45h21M25 46h1M44 46h20M25 47h1M45 47h18M25 48h2M46 48h16M25 49h2M39 49h1M47 49h13M26 50h2M37 50h1M49 50h3M53 50h5M26 51h4M35 51h2M50 51h3M27 52h11M48 52h6M29 53h12M45 53h10M39 54h16M35 55h20M35 56h2M38 56h7M46 56h5M52 56h3M35 57h3M40 57h5M46 57h3M51 57h3M35 58h4M41 58h4M46 58h1M40 59h4M47 60h2M50 60h3M34 61h3M48 61h1M50 61h3M34 62h3M40 62h3M40 63h3M50 64h4M35 65h4M50 65h3M35 66h3M40 66h5M41 67h3" />
<path stroke="#732b1d" d="M40 46h3M40 47h1M63 48h3M66 49h4M60 50h1M61 51h1M67 51h2M66 53h2M64 54h1M53 58h1M47 59h2M50 59h1M37 60h1M43 60h1M48 62h1M34 63h1M37 64h1M43 65h1" />
<path stroke="#bf4830" d="M41 47h3M62 49h2M61 50h5M62 51h5M62 52h7M63 53h3M68 53h2M65 54h2M66 55h1M50 58h3M34 59h4M51 59h2M34 60h3M40 60h3M40 61h3M50 62h3M35 63h2M50 63h3M35 64h2M40 64h3M40 65h3" />
<path stroke="#f25b3d" d="M64 49h2M66 50h4" />
</svg>