<svg xmlns="http://www.w3.org/2000/svg" viewBox="0 -0.5 96 96" shape-rendering="crispEdges">
<metadata>Made with Pixels to Svg https://codepen.io/shshaw/pen/XbxvNj</metadata>
<path stroke="#8c3748" d="M63 18h9M61 19h2M72 19h2M59 20h2M74 20h1M58 21h1M75 21h1M57 22h1M76 22h1M56 23h1M77 23h1M55 24h1M67 24h2M77 24h1M66 25h1M70 25h1M78 25h1M54 26h1M65 26h1M78 26h1M64 27h1M63 28h1M53 29h1M76 29h1M62 30h1M77 30h1M52 32h1M61 32h1M60 34h1M59 36h1M51 37h1M58 38h1M52 39h1M55 39h1M58 39h1M52 40h1M55 40h1M52 41h1M55 41h1M57 41h1M54 42h1M51 43h1M56 44h1M53 45h1M34 68h2M32 69h2M44 69h1M29 70h3M42 70h1M25 71h4M40 71h1M21 72h4M38 72h1M17 73h4M35 73h2M56 73h1M15 74h3M32 74h2M54 74h1M19 75h3M29 75h2M51 75h1M17 76h2M27 76h1M47 76h1M24 77h1M29 77h1M42 77h1" />
<path stroke="#e47cae" d="M63 19h9M61 20h1M63 20h11M59 21h2M62 21h13M58 22h2M61 22h3M65 22h11M58 23h5M64 23h13M57 24h9M71 24h6M56 25h1M58 25h7M73 25h5M57 26h1M59 26h1M61 26h1M63 26h1M75 26h3M60 27h1M62 27h1M77 27h2M78 28h1M36 68h5M34 69h9M32 70h9M29 71h10M26 72h11M21 73h13M19 74h3M25 74h6M15 75h4M23 75h5M19 76h7" />
<path stroke="#cf496f" d="M62 20h1M61 21h1M60 22h1M64 22h1M57 23h1M63 23h1M56 24h1M66 24h1M69 24h2M55 25h1M57 25h1M65 25h1M71 25h2M55 26h2M58 26h1M60 26h1M62 26h1M64 26h1M54 27h6M61 27h1M63 27h1M76 27h1M54 28h9M77 28h1M54 29h9M77 29h2M53 30h9M78 30h1M53 31h9M53 32h8M52 33h9M52 34h8M52 35h8M52 36h7M52 37h7M51 38h7M51 39h1M53 39h2M56 39h2M74 39h1M51 40h1M53 40h2M56 40h2M51 41h1M53 41h2M56 41h1M51 42h1M53 42h1M56 42h1M53 43h1M56 43h1M53 44h1M43 66h2M40 67h4M41 68h3M43 69h1M41 70h1M59 70h1M39 71h1M58 71h1M25 72h1M37 72h1M57 72h1M34 73h1M55 73h1M18 74h1M22 74h3M31 74h1M52 74h2M22 75h1M28 75h1M49 75h2M26 76h1M44 76h3M25 77h4M40 77h2" />
<path stroke="#101010" d="M54 25h1M53 27h1M79 27h1M53 28h1M79 28h1M79 29h1M52 30h1M76 30h1M79 30h1M52 31h1M76 31h1M78 31h1M75 32h1M51 33h1M73 33h2M51 34h1M77 34h1M51 35h1M51 36h1M76 36h1M50 38h1M75 38h1M50 39h1M73 39h1M75 39h1M50 40h1M74 40h2M50 41h1M50 42h1M76 42h1M46 43h1M50 43h1M50 44h1M77 44h1M45 45h1M50 45h1M68 45h1M76 45h1M45 46h1M68 46h1M75 46h1M45 47h1M74 47h1M45 48h1M52 48h1M54 48h2M67 48h1M53 49h2M56 49h1M66 49h1M73 49h1M46 50h1M48 50h2M52 50h2M55 50h2M65 50h1M47 51h2M50 51h1M52 51h1M54 51h2M57 51h1M63 51h2M72 51h1M48 52h5M55 52h8M72 52h1M48 53h1M72 53h1M47 54h1M46 55h1M45 56h1M44 57h1M43 58h1M71 58h1M71 59h1M72 60h1M73 61h1M74 62h1M34 63h1M39 63h1M35 64h3M45 64h1M52 64h1M44 65h1M51 65h1M58 65h1M41 66h2M50 66h1M36 67h4M49 67h1M57 67h1M60 67h1M70 67h1M44 68h4M56 68h1M60 68h1M70 68h1M55 69h1M60 69h1M60 70h1M69 70h1M59 71h2M58 72h1M57 73h1M61 73h1M55 74h1M62 74h1M69 74h2M14 75h1M52 75h2M62 75h1M71 75h1M15 76h2M48 76h3M63 76h2M69 76h3M18 77h6M43 77h4M65 77h4M25 78h17" />
<path stroke="#ba665a" d="M67 25h3M66 26h2M65 27h1M73 27h2M75 28h1M75 30h1M76 32h1M76 33h1M75 34h2M75 35h1M75 36h1M74 37h1M74 42h2M72 43h2M72 44h1M72 45h1M48 46h2M62 46h1M48 47h3M60 47h3M49 48h2M58 48h4M57 49h4M71 52h1M71 53h1M71 54h1M71 55h2M72 56h1M72 57h1M73 58h1M69 60h1M74 60h1M40 61h1M43 61h3M68 61h1M38 62h2M42 62h4M49 62h3M67 62h2M35 63h4M41 63h4M48 63h4M54 63h2M67 63h3M40 64h4M47 64h4M54 64h3M68 64h2M39 65h3M46 65h4M54 65h3M68 65h2M37 66h2M46 66h3M54 66h3M69 66h1M45 67h2M55 67h1M69 67h1M55 68h1M43 70h3M41 71h5M39 72h6M37 73h7M67 73h1M34 74h9M67 74h2M31 75h10M28 76h8" />
<path stroke="#9c403a" d="M68 26h4M66 27h7M65 28h10M64 29h10M63 30h12M63 31h13M77 31h1M62 32h12M62 33h10M75 33h1M61 34h14M61 35h14M60 36h15M60 37h14M60 38h14M59 39h13M59 40h13M49 41h1M58 41h4M63 41h9M48 42h2M52 42h1M55 42h1M58 42h3M62 42h10M47 43h3M52 43h1M54 43h2M57 43h4M62 43h6M69 43h3M74 43h1M47 44h3M51 44h2M54 44h2M57 44h3M61 44h7M69 44h3M73 44h4M46 45h3M51 45h2M54 45h6M61 45h7M69 45h3M73 45h3M46 46h2M51 46h9M63 46h5M69 46h6M46 47h2M52 47h6M63 47h4M68 47h6M46 48h3M53 48h1M62 48h5M68 48h5M47 49h4M61 49h5M67 49h6M47 50h1M50 50h1M57 50h8M66 50h6M53 51h1M58 51h5M65 51h7M53 52h2M63 52h8M49 53h22M48 54h23M48 55h23M47 56h24M46 57h25M73 57h1M45 58h26M72 58h1M43 59h27M73 59h1M41 60h28M73 60h1M41 61h2M46 61h1M48 61h20M74 61h1M40 62h1M46 62h1M48 62h1M52 62h1M54 62h13M45 63h1M47 63h1M52 63h1M56 63h3M60 63h7M44 64h1M51 64h1M57 64h1M59 64h3M63 64h5M42 65h1M50 65h1M52 65h1M57 65h1M59 65h2M62 65h6M39 66h1M49 66h1M51 66h2M58 66h3M62 66h7M47 67h1M50 67h4M56 67h1M58 67h2M61 67h8M48 68h6M57 68h3M61 68h9M45 69h10M56 69h4M61 69h8M46 70h13M63 70h6M46 71h12M64 71h4M45 72h12M64 72h4M44 73h11M64 73h3M43 74h9M64 74h3M41 75h8M63 75h6M36 76h8M65 76h4M30 77h10" />
<path stroke="#6d2b27" d="M72 26h3M75 27h1M64 28h1M76 28h1M63 29h1M74 29h2M62 31h1M74 32h1M77 32h1M61 33h1M72 33h1M77 33h1M60 35h1M76 35h1M59 37h1M75 37h1M59 38h1M74 38h1M72 39h1M49 40h1M58 40h1M72 40h1M48 41h1M62 41h1M72 41h1M74 41h3M47 42h1M57 42h1M61 42h1M72 42h2M61 43h1M68 43h1M75 43h3M46 44h1M60 44h1M68 44h1M49 45h1M60 45h1M50 46h1M60 46h2M51 47h1M58 47h2M67 47h1M51 48h1M56 48h2M73 48h1M46 49h1M51 49h1M51 50h1M72 50h1M72 54h1M47 55h1M73 55h1M46 56h1M71 56h1M73 56h1M45 57h1M71 57h1M44 58h1M74 58h1M42 59h1M70 59h1M72 59h1M74 59h1M40 60h1M70 60h1M75 60h1M38 61h2M47 61h1M69 61h1M75 61h1M34 62h4M41 62h1M47 62h1M53 62h1M69 62h1M75 62h1M40 63h1M46 63h1M53 63h1M59 63h1M70 63h1M38 64h2M46 64h1M53 64h1M58 64h1M62 64h1M70 64h1M37 65h2M43 65h1M45 65h1M53 65h1M61 65h1M70 65h1M36 66h1M40 66h1M45 66h1M53 66h1M57 66h1M61 66h1M70 66h1M44 67h1M48 67h1M54 67h1M54 68h1M69 69h1M61 70h2M63 71h1M68 71h1M61 72h1M68 72h1M68 73h1M63 74h1" />
<path stroke="#e5e5e5" d="M52 49h1M55 49h1M54 50h1M49 51h1M51 51h1M56 51h1M69 75h2" />
<path stroke="#ea6f91" d="M61 71h2M62 72h2M62 73h2" />
</svg>