<svg xmlns="http://www.w3.org/2000/svg" viewBox="0 -0.5 96 96" shape-rendering="crispEdges">
<metadata>Made with Pixels to Svg https://codepen.io/shshaw/pen/XbxvNj</metadata>
<path stroke="#717282" d="M16 7h1M8 8h4M17 8h1M21 8h1M12 9h3M18 9h1M22 9h1M25 9h3M8 10h1M16 10h1M19 10h1M23 10h2M27 10h1M68 10h1M20 11h1M23 11h1M27 11h1M67 11h1M69 11h1M9 12h1M27 12h1M67 12h1M69 12h1M72 12h1M79 12h2M6 13h3M28 13h1M66 13h1M70 13h2M73 13h1M77 13h2M80 13h1M84 13h4M10 14h1M28 14h1M66 14h1M70 14h1M74 14h1M76 14h1M80 14h1M82 14h2M87 14h1M28 15h6M66 15h1M75 15h1M80 15h2M87 15h1M5 16h3M27 16h1M33 16h1M65 16h1M87 16h1M1 17h4M14 17h5M32 17h1M65 17h1M87 17h1M11 18h2M32 18h2M65 18h1M86 18h1M10 19h1M34 19h2M65 19h1M86 19h1M9 20h1M25 20h1M36 20h1M65 20h1M85 20h1M8 21h1M26 21h1M35 21h1M58 21h8M73 21h6M84 21h3M27 22h1M34 22h1M58 22h1M70 22h2M81 22h2M87 22h3M4 23h1M7 23h1M27 23h1M35 23h1M58 23h1M68 23h2M83 23h1M90 23h2M3 24h1M28 24h1M36 24h1M59 24h1M67 24h1M92 24h1M2 25h1M6 25h1M28 25h1M37 25h1M55 25h5M91 25h1M1 26h1M5 26h1M36 26h1M55 26h1M89 26h2M5 27h1M29 27h1M35 27h1M56 27h1M65 27h1M87 27h2M4 28h1M29 28h1M34 28h1M57 28h1M65 28h1M89 28h2M3 29h2M29 29h1M35 29h1M57 29h2M64 29h1M91 29h1M2 30h1M4 30h1M34 30h1M56 30h1M64 30h1M87 30h1M89 30h2M2 31h2M35 31h1M55 31h1M64 31h1M87 31h2M1 32h1M3 32h1M35 32h1M56 32h1M89 32h1M1 33h1M3 33h1M36 33h1M58 33h1M88 33h1M90 33h1M3 34h1M33 34h1M56 34h2M88 34h1M91 34h1M55 35h1M92 35h1M54 36h1M89 36h1M93 36h1M27 37h1M30 37h1M89 37h1M27 38h1M95 38h1M59 39h1M26 40h1M29 40h1M58 40h1M3 41h1M25 41h1M57 41h1M61 42h1M65 42h1M24 43h1M61 43h1M65 43h1M4 44h1M61 44h1M65 44h1M88 44h1M23 45h1M61 45h1M66 45h1M22 46h1M62 46h1M16 47h3M21 47h1M54 47h1M62 47h1M67 47h1M87 47h1M19 48h3M55 48h1M21 49h1M56 49h1M71 49h2M10 50h1M22 50h1M28 50h1M57 50h1M70 50h1M22 51h1M27 51h1M29 51h1M58 51h1M60 51h1M69 51h1M23 52h1M27 52h1M29 52h1M59 52h1M61 52h1M69 52h1M23 53h1M26 53h1M29 53h1M59 53h1M62 53h1M68 53h1M23 54h1M26 54h1M57 54h3M62 54h1M68 54h1M22 55h4M30 55h1M57 55h1M59 55h1M63 55h1M65 55h4M21 56h1M29 56h1M57 56h1M60 56h1M63 56h2M68 56h2M24 57h1M27 57h1M29 57h1M38 57h1M57 57h1M62 57h1M70 57h1M31 58h1M44 58h1M55 58h5M23 59h3M28 59h1M51 59h1M21 60h2M28 60h1M27 61h1M71 61h1M20 62h1M27 62h1M38 62h1M21 63h2M24 63h1M31 63h1M44 63h1M59 63h1M22 64h1M51 64h1M58 64h1M63 64h1M21 65h1M24 65h1M26 65h1M58 65h1M63 65h1M23 66h1M26 66h1M57 66h1M61 66h1M64 66h1M67 66h1M23 67h1M26 67h1M57 67h1M59 67h1M64 67h1M68 67h1M23 68h1M62 68h1M64 68h1M23 69h1M64 69h1M66 69h1M66 70h1M20 71h4M61 71h4M66 71h1M19 72h1M24 72h3M58 72h3M65 72h2M68 72h3M18 73h1M27 73h2M56 73h2M66 73h2M71 73h1M18 74h1M29 74h1M54 74h2M66 74h1M72 74h1M17 75h1M53 75h1M62 75h1M67 75h1M72 75h1M17 76h1M22 76h1M62 76h1M67 76h1M73 76h1M17 77h1M22 77h1M68 77h1M73 77h1M31 78h1M54 78h3M68 78h1M73 78h1M26 79h2M68 79h1M26 80h2M26 81h1" />
<path stroke="#101010" d="M7 8h1M15 8h1M7 9h1M15 9h1M20 9h1M20 10h1M8 11h1M9 13h1M5 14h1M6 15h1M1 18h1M2 19h1M3 20h1M4 21h1M5 22h1M1 27h4M39 32h1M40 33h1M48 33h1M57 33h1M1 34h2M34 34h3M41 34h1M47 34h1M2 35h1M33 35h1M46 35h1M2 36h1M33 36h1M42 36h1M45 36h1M2 37h1M31 37h3M55 37h1M91 37h2M2 38h1M30 38h1M43 38h1M56 38h2M89 38h2M2 39h1M30 39h1M43 39h1M58 39h1M89 39h1M2 40h1M43 40h1M89 40h1M26 41h1M29 41h1M89 41h1M3 42h1M25 42h1M27 42h1M29 42h1M57 42h4M89 42h1M3 43h1M28 43h1M89 43h1M24 44h1M36 44h1M4 45h1M35 45h1M41 45h1M47 45h1M50 45h2M88 45h1M5 46h1M34 46h1M37 46h1M39 46h2M43 46h1M48 46h1M66 46h1M88 46h1M6 47h1M36 47h3M44 47h1M49 47h1M64 47h2M7 48h1M35 48h1M63 48h1M67 48h1M87 48h1M8 49h1M34 49h1M68 49h1M86 49h1M9 50h1M33 50h1M69 50h1M85 50h1M10 51h1M32 51h1M84 51h1M10 52h1M31 52h1M82 52h2M10 53h1M31 53h1M81 53h1M11 54h1M30 54h1M81 54h1M11 55h1M26 55h1M81 55h1M11 56h1M23 56h1M26 56h1M80 56h1M12 57h1M80 57h1M12 58h1M24 58h1M79 58h1M13 59h1M55 59h1M78 59h1M14 60h1M56 60h1M76 60h2M15 61h2M20 61h1M57 61h1M72 61h4M17 62h3M21 62h2M58 62h1M71 62h1M20 63h1M23 63h1M70 63h1M21 64h1M68 64h2M64 65h4M21 66h2M60 67h2M25 68h1M57 68h2M66 68h3M24 69h2M62 69h1M25 70h1M63 70h2M25 71h1M23 77h2M60 77h3M16 78h1M22 78h1M25 78h3M57 78h3M62 78h1M16 79h1M21 79h1M25 79h1M28 79h5M55 79h2M63 79h1M16 80h1M21 80h1M25 80h1M28 80h1M33 80h2M53 80h2M63 80h1M16 81h1M21 81h1M24 81h1M28 81h1M35 81h3M50 81h3M63 81h1M70 81h1M16 82h1M20 82h1M24 82h1M27 82h1M38 82h12M64 82h1M70 82h1M16 83h1M20 83h1M24 83h1M27 83h1M64 83h1M71 83h1M16 84h1M20 84h1M24 84h1M26 84h1M65 84h1M71 84h1M16 85h1M19 85h1M24 85h2M65 85h1M72 85h1M16 86h1M19 86h1M66 86h1M73 86h1M16 87h1M18 87h1M67 87h1M16 88h2M68 88h1" />
<path stroke="#f8f8f8" d="M16 8h1M10 9h2M17 9h1M21 9h1M12 10h3M18 10h1M22 10h1M26 10h1M19 11h1M26 11h1M68 11h1M26 12h1M68 12h1M27 13h1M69 13h1M72 13h1M79 13h1M27 14h1M69 14h1M73 14h1M77 14h1M84 14h3M27 15h1M74 15h1M76 15h1M82 15h2M29 16h4M75 16h1M81 16h1M33 19h1M34 20h2M59 22h6M85 22h2M34 23h1M88 23h2M35 24h1M90 24h2M36 25h1M56 26h3M33 28h1M88 28h1M34 29h1M89 29h2M57 30h1M34 31h1M56 31h1M34 32h1M88 32h1M35 33h1M89 33h1M90 34h1M91 35h1M92 36h1M23 44h1M21 45h2M18 46h4M19 47h2M16 48h3M54 48h1M16 49h5M54 49h2M15 50h7M54 50h3M15 51h7M28 51h1M55 51h2M15 52h8M28 52h1M55 52h3M60 52h1M15 53h8M28 53h1M55 53h4M60 53h2M16 54h7M27 54h3M56 54h1M60 54h2M17 55h5M27 55h3M60 55h3M19 56h2M22 56h1M24 56h2M28 56h1M59 56h1M61 56h2M65 56h3M21 57h3M25 57h2M28 57h1M60 57h2M63 57h6M21 58h3M26 58h3M60 58h1M68 58h2M22 59h1M27 59h1M27 60h1M62 65h1M62 66h2M65 66h1M63 67h1M66 67h2M63 68h1M65 68h1M65 69h1M65 70h1M65 71h1M61 72h4M64 73h2M68 73h3M65 74h1M67 74h5M66 75h1M68 75h4M68 76h5M67 77h1M69 77h4M69 78h4M70 79h2M71 80h1" />
<path stroke="#c2c4c9" d="M8 9h2M16 9h1M9 10h3M15 10h1M17 10h1M21 10h1M25 10h1M9 11h10M21 11h2M24 11h2M10 12h16M10 13h17M67 13h2M6 14h4M11 14h16M67 14h2M71 14h2M78 14h2M7 15h20M67 15h7M77 15h3M84 15h3M8 16h19M28 16h1M66 16h9M76 16h5M82 16h5M5 17h9M19 17h13M66 17h21M2 18h9M13 18h19M66 18h20M3 19h7M11 19h22M66 19h20M4 20h5M10 20h15M26 20h8M66 20h19M5 21h3M9 21h17M27 21h8M66 21h7M79 21h5M6 22h21M28 22h6M65 22h5M72 22h9M83 22h2M5 23h2M8 23h19M28 23h6M59 23h9M70 23h13M84 23h4M4 24h24M29 24h6M60 24h7M68 24h22M3 25h3M7 25h21M29 25h7M60 25h31M2 26h3M6 26h30M59 26h30M6 27h23M30 27h5M57 27h8M66 27h21M5 28h24M30 28h3M58 28h7M66 28h22M5 29h24M30 29h4M59 29h5M65 29h24M3 30h1M5 30h29M58 30h6M65 30h22M88 30h1M4 31h30M57 31h7M65 31h22M2 32h1M4 32h30M57 32h31M2 33h1M4 33h31M59 33h29M4 34h29M58 34h30M89 34h1M3 35h30M56 35h35M3 36h30M55 36h34M90 36h2M3 37h24M28 37h2M56 37h33M90 37h1M3 38h24M28 38h2M58 38h31M3 39h27M60 39h29M3 40h23M27 40h2M59 40h30M4 41h21M27 41h2M58 41h31M4 42h21M28 42h1M62 42h3M66 42h23M4 43h20M62 43h3M66 43h23M5 44h18M62 44h3M66 44h22M5 45h16M62 45h4M67 45h21M6 46h12M41 46h2M46 46h2M51 46h1M63 46h3M67 46h21M7 47h9M39 47h5M45 47h4M51 47h3M63 47h1M68 47h19M8 48h8M36 48h18M68 48h19M9 49h7M35 49h19M69 49h2M73 49h13M11 50h4M34 50h20M71 50h14M11 51h4M33 51h22M57 51h1M70 51h14M12 52h3M32 52h23M58 52h1M70 52h12M13 53h2M27 53h1M32 53h23M69 53h10M14 54h2M31 54h25M69 54h8M14 55h3M31 55h3M37 55h20M58 55h1M69 55h7M15 56h4M27 56h1M30 56h3M38 56h8M49 56h8M58 56h1M70 56h5M15 57h6M30 57h2M39 57h6M50 57h7M58 57h2M69 57h1M71 57h3M16 58h5M25 58h1M29 58h2M39 58h5M51 58h4M61 58h7M70 58h4M16 59h6M26 59h1M29 59h2M39 59h5M52 59h3M56 59h18M16 60h5M23 60h4M29 60h2M39 60h5M52 60h4M57 60h18M17 61h3M21 61h6M28 61h3M39 61h5M52 61h5M58 61h13M23 62h4M28 62h3M39 62h5M52 62h6M59 62h12M25 63h6M38 63h6M52 63h7M60 63h10M23 64h9M37 64h8M52 64h6M59 64h4M64 64h4M22 65h2M25 65h1M27 65h6M36 65h10M51 65h7M59 65h3M24 66h2M27 66h20M50 66h7M58 66h3M66 66h1M24 67h2M27 67h30M58 67h1M62 67h1M65 67h1M24 68h1M26 68h13M44 68h13M59 68h3M26 69h11M46 69h16M63 69h1M26 70h10M47 70h16M26 71h9M48 71h13M20 72h4M27 72h7M49 72h9M19 73h8M29 73h5M49 73h7M58 73h6M19 74h10M30 74h3M50 74h4M56 74h9M18 75h15M50 75h3M54 75h8M63 75h3M18 76h4M23 76h10M50 76h12M63 76h4M18 77h4M25 77h8M51 77h9M63 77h4M17 78h5M28 78h3M32 78h1M51 78h3M63 78h5M18 79h3M33 79h1M52 79h3M64 79h4M19 80h2M64 80h4M19 81h1M65 81h2M66 82h1" />
<path stroke="#852c2e" d="M64 19h1M63 20h1M35 73h1M37 73h1M45 73h1M47 73h1M37 74h1M45 74h1M49 77h1M34 78h1M36 78h1M46 78h1M48 78h1M36 79h1M46 79h1M74 79h1M69 80h1M74 80h1M25 81h1M27 81h1M69 81h1M74 81h1M25 82h2M69 82h1M74 82h1M25 83h2M69 83h1M74 83h1M25 84h1M69 84h1M74 84h1M69 85h1M74 85h1M69 86h1M74 86h1M69 87h1M69 88h1" />
<path stroke="#f16050" d="M64 20h1M73 79h1M73 80h1M72 81h2M71 82h3M72 83h2M72 84h2M73 85h1" />
<path stroke="#975f46" d="M40 32h2M50 32h5M42 33h1M49 33h1M52 33h2M43 34h1M50 34h2M42 35h1M44 35h1M49 35h1M44 36h1M48 36h1M43 37h1M45 37h1M47 37h1M46 38h1M45 39h1M45 40h1M42 41h2M45 41h3M40 42h2M48 42h3M38 43h2M51 43h2M37 44h1M42 44h1M46 44h1M49 44h1M53 44h2M38 45h1M42 45h1M46 45h1M49 45h1M55 45h1M35 46h2M45 46h1M50 46h1M52 46h3M56 46h1M50 47h1" />
<path stroke="#fcd8b4" d="M41 33h1M50 33h2M42 34h1M49 34h1M43 35h1M48 35h1M45 42h3M48 43h3M51 44h2M53 45h2" />
<path stroke="#e79d7e" d="M48 34h1M47 35h1M43 36h1M46 36h2M44 37h1M46 37h1M44 38h2M44 39h1M44 40h1M44 41h1M42 42h3M40 43h8M38 44h4M43 44h3M47 44h2M50 44h1M36 45h2M39 45h2M43 45h3M48 45h1M52 45h1M38 46h1M44 46h1M49 46h1M55 46h1" />
<path stroke="#312c3f" d="M11 52h1M12 53h1M79 53h2M13 54h1M77 54h2M13 55h1M34 55h3M76 55h1M14 56h1M33 56h1M37 56h1M46 56h3M75 56h1M14 57h1M32 57h1M45 57h1M49 57h1M74 57h1M15 58h1M38 58h1M50 58h1M74 58h1M15 59h1M31 59h1M38 59h1M44 59h1M74 59h1M15 60h1M31 60h1M38 60h1M44 60h1M51 60h1M75 60h1M31 61h1M38 61h1M44 61h1M51 61h1M31 62h1M44 62h1M51 62h1M37 63h1M51 63h1M32 64h1M36 64h1M45 64h1M33 65h3M46 65h1M50 65h1M47 66h3M39 68h5M37 69h2M44 69h2M36 70h1M46 70h1M35 71h1M47 71h1M34 72h1M48 72h1M34 73h1M48 73h1M33 74h1M49 74h1M33 75h1M49 75h1M33 76h1M49 76h1M33 77h1M50 77h1M33 78h1M50 78h1M34 79h1M51 79h1M35 80h1M52 80h1" />
<path stroke="#3d3a5a" d="M11 53h1M12 54h1M79 54h2M12 55h1M77 55h4M12 56h2M34 56h3M76 56h4M13 57h1M33 57h5M46 57h3M75 57h5M13 58h2M32 58h6M45 58h5M75 58h4M14 59h1M32 59h6M45 59h6M75 59h3M32 60h6M45 60h6M32 61h6M45 61h6M32 62h6M45 62h6M32 63h5M45 63h6M33 64h3M46 64h5M47 65h3M39 69h5M37 70h9M36 71h11M36 72h11M38 73h7M34 74h3M46 74h3M34 75h15M34 76h15M35 77h13M37 78h9M49 78h1M35 79h1M47 79h4M36 80h14M51 80h1M38 81h10" />
<path stroke="#d23135" d="M35 72h1M47 72h1M36 73h1M46 73h1M38 74h7M34 77h1M48 77h1M35 78h1M47 78h1M17 79h1M37 79h9M69 79h1M72 79h1M17 80h2M50 80h1M68 80h1M70 80h1M72 80h1M17 81h2M20 81h1M48 81h2M64 81h1M67 81h2M71 81h1M17 82h3M65 82h1M67 82h2M17 83h3M65 83h4M17 84h3M66 84h3M17 85h2M66 85h3M17 86h2M67 86h2M17 87h1M68 87h1" />
</svg>