<svg xmlns="http://www.w3.org/2000/svg" viewBox="0 -0.5 96 96" shape-rendering="crispEdges">
<metadata>Made with Pixels to Svg https://codepen.io/shshaw/pen/XbxvNj</metadata>
<path stroke="#776066" d="M49 16h4M47 17h2M53 17h2M55 18h1M56 19h1M57 20h1M53 21h1M58 21h1M51 22h2M54 22h1M58 22h1M51 23h1M53 23h1M55 23h1M59 23h1M51 24h1M53 24h2M60 24h2M55 25h2M59 25h1M62 25h3M57 26h2M60 26h1M65 26h1M60 27h3M66 27h1M62 28h1M66 28h1M63 29h1M66 29h1M63 30h1M65 30h1M52 31h1M64 31h1M53 32h1M54 33h1M55 34h1M56 35h1M46 36h1M52 36h2M56 36h1M46 37h1M54 37h1M57 37h1M54 38h1M57 38h1M55 39h1M57 39h1M45 40h1M51 40h1M55 40h1M57 40h1M45 41h1M56 41h1M44 42h1M56 42h1M44 43h1M57 43h1M44 44h1M58 44h1M45 45h1M59 45h2M61 46h1M62 47h1M63 48h1M64 49h2M45 50h1M66 50h2M49 51h1M68 51h1M55 52h1M69 52h1M56 53h2M69 53h1M32 54h4M58 54h1M70 54h1M27 55h5M59 55h1M67 55h1M70 55h1M25 56h2M60 56h1M67 56h1M70 56h1M23 57h2M49 57h1M61 57h1M67 57h1M22 58h1M62 58h1M64 58h1M63 59h1M64 60h1M65 61h1M66 62h1M36 63h3M66 63h1M34 64h2M33 65h1M60 66h1M25 73h3M65 73h3M24 74h1M26 74h1M34 74h3M63 74h2M68 74h2M23 75h1M37 75h1M58 75h2M62 75h1M65 75h2M70 75h1M56 76h2M69 76h3M55 77h1M72 77h1" />
<path stroke="#968b91" d="M49 17h3M47 18h6M46 19h7M46 20h6M45 21h8M45 22h6M53 22h1M45 23h6M52 23h1M54 23h1M45 24h6M52 24h1M55 24h2M45 25h10M57 25h2M46 26h11M59 26h1M46 27h6M56 27h4M64 27h1M47 28h4M59 28h3M47 29h4M61 29h2M47 30h4M48 31h4M48 32h4M48 33h4M48 34h3M47 35h5M47 36h5M45 37h1M47 37h7M44 38h2M47 38h6M44 39h2M47 39h6M43 40h2M48 40h3M52 40h1M43 41h2M48 41h4M53 41h1M42 42h2M48 42h5M54 42h1M42 43h1M48 43h6M42 44h1M47 44h7M55 44h1M43 45h1M47 45h6M56 45h1M44 46h1M46 46h6M57 46h2M46 47h6M59 47h3M45 48h7M61 48h2M44 49h8M62 49h2M43 50h2M46 50h7M64 50h2M42 51h3M46 51h3M50 51h4M66 51h1M41 52h3M46 52h3M50 52h5M67 52h1M39 53h4M46 53h3M50 53h5M68 53h1M36 54h5M46 54h2M49 54h5M57 54h1M69 54h1M34 55h4M41 55h1M45 55h3M49 55h5M32 56h1M38 56h1M40 56h1M45 56h2M48 56h6M35 57h3M39 57h2M45 57h2M48 57h1M50 57h5M34 58h3M38 58h2M44 58h2M47 58h1M52 58h5M34 59h3M38 59h2M44 59h2M53 59h6M34 60h2M37 60h2M43 60h2M53 60h8M33 61h3M37 61h2M43 61h1M45 61h1M54 61h8M25 62h1M33 62h2M37 62h2M42 62h1M44 62h1M56 62h7M24 63h1M32 63h2M43 63h2M59 63h5M30 64h4M43 64h2M60 64h5M23 65h1M29 65h4M43 65h2M60 65h7M23 66h1M29 66h3M39 66h1M43 66h2M61 66h5M23 67h1M29 67h2M39 67h1M42 67h3M60 67h5M24 68h1M29 68h2M38 68h1M42 68h2M60 68h4M24 69h2M41 69h3M59 69h4M25 70h3M39 70h4M59 70h4M27 71h15M59 71h3M30 72h10M60 72h2M60 73h2M31 74h1M60 74h2M67 74h1M24 75h2M32 75h5M67 75h1M63 76h2M68 76h1M56 77h3M65 77h7" />
<path stroke="#cdc5ca" d="M52 17h1M53 18h2M53 19h3M56 20h1M57 21h1M58 23h1M57 24h3M60 25h2M61 26h4M63 27h1M65 27h1M63 28h3M64 29h2M64 30h1M52 32h1M52 33h2M53 34h2M54 35h2M55 36h1M56 37h1M53 38h1M53 39h2M53 40h2M54 41h2M55 42h1M43 43h1M55 43h2M43 44h1M56 44h2M44 45h1M57 45h2M59 46h2M67 51h1M68 52h1M55 53h1M54 54h3M32 55h2M54 55h5M27 56h5M54 56h6M25 57h3M55 57h6M23 58h2M57 58h5M59 59h4M61 60h3M42 61h1M62 61h3M41 62h1M63 62h3M39 63h3M64 63h2M36 64h4M65 64h2M34 65h3M25 74h1M32 74h2M65 74h2M63 75h2M68 75h2M58 76h1M65 76h3" />
<path stroke="#080808" d="M46 18h1M45 19h1M45 20h1M52 20h4M44 21h1M56 21h1M44 22h1M57 22h1M44 23h1M44 24h1M44 25h1M45 26h1M45 27h1M52 27h4M46 28h1M51 28h1M56 28h3M46 29h1M51 29h1M59 29h2M46 30h1M51 30h1M61 30h2M47 31h1M47 32h1M47 33h1M47 34h1M46 35h1M45 36h1M44 37h1M43 38h1M46 38h1M43 39h1M46 39h1M42 40h1M47 40h1M42 41h1M47 41h1M52 41h1M41 42h1M47 42h1M53 42h1M41 43h1M47 43h1M54 43h1M41 44h1M46 44h1M54 44h1M42 45h1M46 45h1M53 45h1M55 45h1M43 46h1M45 46h1M53 46h1M56 46h1M44 47h2M53 47h1M57 47h2M44 48h1M53 48h1M59 48h2M43 49h1M53 49h1M61 49h1M42 50h1M54 50h1M61 50h1M41 51h1M45 51h1M54 51h1M60 51h1M39 52h2M44 52h2M49 52h1M59 52h1M61 52h2M36 53h3M43 53h1M45 53h1M49 53h1M59 53h2M62 53h1M41 54h2M45 54h1M48 54h1M61 54h1M38 55h3M44 55h1M48 55h1M61 55h1M68 55h1M33 56h5M39 56h1M44 56h1M47 56h1M61 56h3M65 56h1M69 56h1M28 57h5M34 57h1M38 57h1M44 57h1M47 57h1M63 57h1M65 57h1M25 58h3M33 58h1M37 58h1M43 58h1M46 58h1M49 58h1M63 58h1M66 58h1M22 59h3M33 59h1M37 59h1M43 59h1M46 59h1M48 59h1M27 60h2M33 60h1M36 60h1M42 60h1M45 60h1M48 60h2M25 61h2M28 61h1M32 61h1M36 61h1M41 61h1M44 61h1M48 61h1M50 61h1M24 62h1M27 62h1M32 62h1M36 62h1M39 62h2M43 62h1M47 62h1M51 62h1M23 63h1M26 63h1M30 63h2M42 63h1M47 63h1M52 63h2M23 64h1M25 64h1M29 64h1M40 64h2M47 64h1M54 64h2M67 64h1M22 65h1M25 65h1M28 65h1M37 65h3M47 65h1M56 65h2M67 65h1M22 66h1M25 66h1M28 66h1M32 66h5M38 66h1M47 66h1M58 66h2M66 66h1M22 67h1M26 67h1M28 67h1M31 67h1M38 67h1M47 67h1M59 67h1M65 67h1M23 68h1M27 68h2M31 68h1M36 68h2M46 68h1M59 68h1M64 68h1M23 69h1M29 69h7M46 69h1M58 69h1M63 69h1M24 70h1M45 70h1M58 70h1M63 70h1M25 71h2M43 71h2M58 71h1M62 71h1M27 72h3M40 72h3M59 72h1M62 72h1M30 73h10M59 73h1M62 73h1M59 74h1M62 74h1M26 75h6M23 76h3M32 76h6M59 77h6M55 78h4M65 78h8" />
<path stroke="#b89dce" d="M54 21h1M55 22h1M57 23h1" />
<path stroke="#dacde4" d="M55 21h1" />
<path stroke="#271d45" d="M56 22h1M56 23h1M50 58h2M52 59h1M52 60h1M53 61h1M35 62h1M54 62h2M34 63h1M56 63h3M59 64h1M59 65h1" />
<path stroke="#d0285a" d="M51 34h2M55 37h1M56 38h1M52 46h1M52 49h1M53 50h1M61 51h4M60 52h1M63 52h4M63 53h4M62 54h1M64 54h1M66 54h1M68 54h1M62 55h1M64 55h1M66 55h1M69 55h1M64 56h1M66 56h1M64 57h1M66 57h1M47 60h1M47 61h1M46 62h1M46 63h1M46 64h1M46 65h1M46 66h1M46 67h1M45 68h1M45 69h1M44 70h1M28 73h1M28 74h2M60 75h1M60 76h2" />
<path stroke="#f9339f" d="M52 35h2M54 36h1M55 38h1M56 39h1M56 40h1M52 47h1M52 48h1" />
<path stroke="#7d2635" d="M62 50h2M65 51h1M67 53h1M63 54h1M65 54h1M67 54h1M63 55h1M65 55h1M48 58h1M47 59h1M46 60h1M46 61h1M45 62h1M45 63h1M45 64h1M45 65h1M45 66h1M45 67h1M44 68h1M44 69h1M43 70h1M42 71h1M29 73h1M27 74h1M30 74h1M61 75h1M59 76h1M62 76h1" />
<path stroke="#1d1d1d" d="M44 53h1M43 54h2M42 55h2M41 56h3M41 57h3M40 58h3M40 59h3M39 60h3M27 61h1M39 61h2M26 62h1M25 63h1M24 64h1M42 64h1M24 65h1M40 65h3M24 66h1M40 66h3M24 67h2M40 67h2M25 68h2M39 68h3M26 69h3M36 69h5M28 70h11" />
<path stroke="#3a3263" d="M49 59h3M50 60h2M51 61h2M52 62h2M35 63h1M54 63h2M56 64h3M58 65h1" />
</svg>