<svg xmlns="http://www.w3.org/2000/svg" viewBox="0 -0.5 96 96" shape-rendering="crispEdges">
<metadata>Made with Pixels to Svg https://codepen.io/shshaw/pen/XbxvNj</metadata>
<path stroke="#4b1d2b" d="M37 23h3M31 24h2M35 24h2M40 24h1M32 25h1M34 25h1M33 26h1M33 27h1M29 28h4M27 29h2M33 29h2M25 30h2M35 30h2M24 31h1M37 31h1M38 32h1M39 33h1M56 33h1M44 34h1M57 34h1M59 34h2M41 35h1M43 35h1M57 35h2M60 35h1M42 36h2M57 36h1M60 36h1M59 37h1M29 38h1M59 38h1M30 39h1M58 39h1M30 40h1M58 40h1M20 47h4" />
<path stroke="#9c4a56" d="M37 24h3M31 25h1M36 25h2M32 26h1M35 26h1M33 31h3M34 32h4M36 33h3M37 34h3M38 35h2M59 35h1M39 36h1M58 36h2M38 37h1M40 37h1M56 37h3M39 38h1M56 38h3M55 39h3M56 40h2" />
<path stroke="#101010" d="M30 25h1M38 25h3M30 26h1M36 26h2M31 27h1M35 27h1M34 28h1M23 32h1M22 33h1M55 33h1M22 34h1M40 34h1M45 34h1M55 34h1M21 35h1M40 35h1M45 35h1M55 35h1M21 36h1M41 36h1M45 36h1M54 36h1M21 37h1M41 37h1M44 37h1M54 37h1M20 38h1M41 38h1M43 38h1M53 38h1M20 39h1M40 39h3M46 39h1M53 39h1M20 40h1M39 40h1M41 40h1M47 40h1M52 40h1M20 41h1M30 41h2M38 41h1M41 41h1M52 41h1M20 42h1M29 42h1M32 42h1M37 42h1M20 43h1M29 43h1M21 44h1M29 44h1M21 45h1M29 45h1M22 46h1M30 46h1M30 47h1M20 48h1M29 48h2M21 49h2M27 49h2M30 49h1M23 50h4M31 50h1M31 51h1M31 52h1M61 52h1M31 53h1M61 53h1M32 54h1M60 54h1M32 55h1M58 55h2M32 56h1M56 56h2M33 57h1M33 58h1M34 59h1M35 60h1M36 61h1M55 61h1M36 62h2M56 62h1M36 63h1M38 63h2M56 63h1M36 64h1M40 64h2M56 64h1M37 65h1M56 65h1M37 66h1M55 66h1M41 67h2M49 67h2M54 67h1M38 68h1M43 68h6M50 68h1M55 68h1M39 69h3M51 69h2M56 69h1M53 70h3" />
<path stroke="#683741" d="M35 25h1M31 26h1M34 26h1M32 27h1M34 27h1M33 28h1M29 29h4M27 30h8M25 31h8M36 31h1M24 32h10M23 33h13M23 34h14M56 34h1M22 35h16M44 35h1M56 35h1M22 36h17M40 36h1M44 36h1M55 36h2M22 37h16M39 37h1M42 37h2M55 37h1M21 38h8M30 38h9M40 38h1M42 38h1M54 38h2M21 39h9M31 39h9M54 39h1M21 40h9M31 40h8M21 41h9M32 41h6M21 42h8M33 42h4M21 43h8M34 43h2M22 44h7M22 45h7M23 46h7M24 47h6M21 48h8M23 49h4" />
<path stroke="#835561" d="M45 37h1M44 38h2M43 39h2M40 40h1M42 40h2M45 40h1M39 41h2M42 41h2M45 41h1M56 41h1M30 42h2M38 42h5M44 42h4M55 42h1M30 43h3M37 43h6M44 43h1M30 44h4M36 44h6M43 44h1M30 45h12M31 46h11M56 46h1M31 47h10M56 47h1M31 48h10M42 48h1M55 48h3M31 49h10M42 49h3M52 49h8M32 50h9M42 50h19M32 51h9M42 51h19M32 52h9M42 52h19M32 53h9M42 53h19M33 54h9M43 54h17M33 55h9M43 55h11M55 55h3M33 56h9M43 56h12M34 57h8M43 57h13M34 58h8M43 58h11M55 58h1M35 59h8M44 59h10M55 59h1M36 60h7M44 60h10M55 60h2M37 61h6M44 61h10M38 62h6M45 62h9M37 63h1M40 63h4M45 63h10M37 64h3M42 64h13M38 65h18M38 66h3M42 66h13M39 67h1M43 67h6M51 67h2M39 68h2M51 68h4M53 69h3" />
<path stroke="#623540" d="M46 37h1M46 38h1M45 39h1M44 40h1M44 41h1M47 41h5M57 41h1M43 42h1M52 42h1M57 42h1M33 43h1M36 43h1M43 43h1M57 43h1M34 44h2M42 44h1M56 44h1M42 45h1M56 45h1M42 46h1M57 46h1M41 47h1M57 47h1M41 48h1M58 48h2M41 49h1M60 49h1M41 50h1M61 50h1M41 51h1M61 51h1M41 52h1M41 53h1M42 54h1M42 55h1M54 55h1M42 56h1M55 56h1M42 57h1M56 57h1M42 58h1M54 58h1M57 58h1M43 59h1M54 59h1M57 59h1M43 60h1M54 60h1M57 60h1M43 61h1M56 61h1M44 62h1M44 63h1M41 66h1M38 67h1M40 67h1M53 67h1M41 68h1" />
<path stroke="#a77880" d="M46 40h1M53 40h3M46 41h1M53 41h3M48 42h4M53 42h2M45 43h10M44 44h12M43 45h13M43 46h13M42 47h14M43 48h12M45 49h7M56 58h1M56 59h1M54 61h1M54 62h2M55 63h1M55 64h1" />
<path stroke="#e5712c" d="M56 42h1M55 43h1" />
<path stroke="#f9a25a" d="M56 43h1" />
</svg>