<svg xmlns="http://www.w3.org/2000/svg" viewBox="0 -0.5 96 96" shape-rendering="crispEdges">
<metadata>Made with Pixels to Svg https://codepen.io/shshaw/pen/XbxvNj</metadata>
<path stroke="#080808" d="M60 29h1M47 30h1M60 30h1M47 31h1M60 31h1M47 32h1M60 32h1M60 33h1M60 34h1M61 35h1M61 36h1M62 37h1M41 38h1M34 39h1M40 39h1M34 40h1M40 40h1M34 41h1M39 41h1M47 41h1M39 42h1M47 42h1M25 43h1M38 43h1M47 43h1M26 44h1M38 44h1M47 44h1M27 45h2M47 45h1M69 45h1M29 46h3M47 46h1M67 46h1M69 46h1M32 47h2M48 47h1M67 47h2M35 48h2M48 48h1M67 48h1M35 49h1M37 49h2M49 49h1M67 49h1M36 50h1M39 50h2M49 50h1M66 50h1M36 51h1M40 51h1M50 51h1M66 51h1M37 52h1M40 52h1M51 52h1M65 52h1M38 53h2M41 53h1M52 53h2M64 53h1M40 54h3M54 54h2M62 54h2M41 55h1M43 55h1M56 55h6M42 56h1M44 56h2M49 56h1M58 56h1M42 57h1M46 57h5M57 57h1M42 58h4M51 58h2M55 58h2M42 59h1M51 59h1M53 59h2M42 60h1M51 60h1M42 61h1M52 61h1M42 62h1M52 62h1M41 63h1M44 63h5M51 63h1M40 64h1M42 64h2M50 64h1M54 64h6M40 65h2M49 65h1M52 65h2M61 65h2M49 66h3" />
<path stroke="#171519" d="M61 29h1M62 30h1M48 31h1M62 31h1M63 32h1M63 33h1M64 34h1M64 35h1M65 36h1M65 37h1M66 38h1M66 39h1M66 40h1M42 47h1M43 48h1" />
<path stroke="#4a4f55" d="M61 30h1M61 31h1M48 32h1M61 32h2M61 33h2M61 34h3M62 35h2M63 36h2M64 37h1M65 38h1" />
<path stroke="#6b5133" d="M52 31h6M49 32h2M59 32h1M47 33h2M45 34h2M44 35h1M43 36h1M42 37h1M58 38h5M35 39h1M56 39h2M63 39h2M30 40h3M36 40h1M39 40h1M54 40h2M65 40h1M27 41h4M33 41h1M37 41h2M48 41h1M53 41h1M66 41h1M25 42h3M30 42h2M34 42h1M49 42h1M52 42h1M66 42h1M27 43h2M32 43h1M35 43h2M48 43h1M50 43h2M67 43h1M29 44h2M37 44h1M49 44h1M52 44h2M67 44h1M38 45h2M50 45h2M67 45h1M40 46h1M48 46h1M52 46h2M34 47h1M41 47h1M49 47h1M37 48h1M42 48h1M46 48h2M50 48h2M39 49h1M43 49h3M41 50h1M38 52h1" />
<path stroke="#b88d55" d="M51 32h1M58 32h1M45 35h1M60 35h1M59 36h2M57 37h5M56 38h2M54 39h2M62 39h1M35 40h1M41 40h1M52 40h2M64 40h1M35 41h2M40 41h4M50 41h3M61 41h5M35 42h4M40 42h7M48 42h1M50 42h2M59 42h7M26 43h1M29 43h3M33 43h1M37 43h1M39 43h8M49 43h1M52 43h2M57 43h10M27 44h2M31 44h5M39 44h8M48 44h1M50 44h2M54 44h13M29 45h9M40 45h7M48 45h2M52 45h15M32 46h8M41 46h6M49 46h3M54 46h13M35 47h6M43 47h5M50 47h17M38 48h4M44 48h2M49 48h1M52 48h15M36 49h1M40 49h3M50 49h17M37 50h2M50 50h16M37 51h3M51 51h15M39 52h1M52 52h13M40 53h1M54 53h10M56 54h6" />
<path stroke="#f6e08c" d="M52 32h6M49 33h11M47 34h13M46 35h14M44 36h15M43 37h14M42 38h14M41 39h13M58 39h4M42 40h10M56 40h8M31 41h2M44 41h3M49 41h1M54 41h7M28 42h2M32 42h2M53 42h6M34 43h1M54 43h3M36 44h1" />
<path stroke="#322f36" d="M62 36h1M63 37h1M63 38h2M65 39h1M67 41h1M68 42h1M69 43h1M70 44h1M68 45h1M46 49h3M45 50h4M46 51h4M47 52h4M49 53h3M51 54h3M53 55h3M44 59h3M44 60h1M47 60h3M54 60h1M56 60h3M44 61h3M50 61h1M55 61h1M58 61h2M51 62h1M53 62h1M55 62h3M60 62h2M49 63h1M62 63h1M60 64h1M62 64h1" />
<path stroke="#979b9e" d="M67 42h1M68 43h1M68 44h2M45 60h2M53 60h1M47 61h3M54 61h1M56 61h2M49 62h2M58 62h2M60 63h2" />
<path stroke="#6c5d64" d="M68 46h1M43 59h1M52 59h1M43 60h1M52 60h1M43 61h1M53 61h1M43 62h6M54 62h1M42 63h2M50 63h1M52 63h8M41 64h1M51 64h3M61 64h1M50 65h2" />
<path stroke="#b4a1a5" d="M42 50h3M41 51h5M41 52h6M42 53h7M43 54h8M42 55h1M44 55h9M43 56h1M46 56h3M50 56h8M43 57h3M51 57h6M53 58h2" />
</svg>