<svg xmlns="http://www.w3.org/2000/svg" viewBox="0 -0.5 96 96" shape-rendering="crispEdges">
<metadata>Made with Pixels to Svg https://codepen.io/shshaw/pen/XbxvNj</metadata>
<path stroke="#231b50" d="M52 26h2M51 27h1M53 27h1M50 28h1M53 28h1M50 29h1M53 29h1M49 30h1M52 30h1M49 31h1M52 31h1M48 32h1M52 32h1M48 33h1M51 33h1M51 34h1M47 35h1M50 35h1M48 36h1M50 36h3M47 37h1M53 37h2M60 37h2M45 38h1M55 38h1M58 38h2M39 39h2M44 39h1M56 39h2M41 40h4M56 40h1M43 41h1M60 41h1M43 42h1M56 42h1M61 42h1M40 43h1M42 43h1M39 44h1M58 44h1M59 45h1M42 46h1M59 46h1M42 47h1M38 55h2M34 56h1M37 56h1M39 56h1M35 57h1M37 57h1M39 57h1M56 57h1M36 58h1M55 58h1M47 59h2M53 59h1M38 60h2M49 60h3M38 61h1M41 61h1M36 62h1M42 62h1M43 63h1M37 65h1M38 66h1M40 67h1" />
<path stroke="#3d3568" d="M40 27h2M42 28h2M51 28h1M44 29h2M51 29h1M42 30h2M46 30h1M50 30h2M43 31h2M47 31h1M50 31h1M44 32h3M49 32h2M45 33h3M49 33h2M46 34h4M48 35h2M49 36h1M48 37h4M46 38h7M45 39h10M45 40h11M58 40h1M44 41h15M42 42h1M44 42h12M58 42h2M41 43h1M43 43h15M40 44h1M43 44h14M43 45h14M43 46h14M43 47h14M43 48h13M45 49h7M38 56h1M46 56h1M38 57h1M46 57h3M54 57h2M34 58h1M37 58h2M47 58h8M35 59h4M49 59h4M35 60h3M36 61h2M39 61h1M37 62h4M37 63h4M37 64h5M44 64h1M38 65h7M39 66h6M41 67h3" />
<path stroke="#4e46ac" d="M52 27h1M41 28h1M52 28h1M42 29h2M52 29h1M44 30h2M45 31h2M51 31h1M47 32h1M51 32h1M50 34h1M52 37h1M53 38h2M60 38h1M55 39h1M58 39h2M40 40h1M57 40h1M41 41h2M59 41h1M60 42h1M57 44h1M57 45h2M57 46h2M57 47h1M34 57h1M35 58h1M40 61h1M41 62h1M41 63h2M42 64h2" />
<path stroke="#101010" d="M40 28h1M41 29h1M41 30h1M42 31h1M43 32h1M44 33h1M45 34h1M46 35h1M47 36h1M46 37h1M61 38h1M60 39h1M39 40h1M59 40h1M40 41h1M41 42h1M57 42h1M58 43h4M41 44h2M39 45h2M42 45h1M42 50h1M43 52h1M44 53h1M45 54h1M57 54h1M45 55h2M56 55h1M33 56h1M45 56h1M47 56h1M55 56h2M58 56h1M33 57h1M45 57h1M49 57h3M58 57h1M33 58h1M39 58h1M46 58h1M56 58h2M34 59h1M39 59h1M46 59h1M54 59h1M34 60h1M40 60h1M52 60h2M55 60h1M35 61h1M52 61h1M52 62h1M36 63h1M36 64h1M51 64h1M36 65h1M51 65h2M37 66h1M50 66h1M38 67h2M48 67h1M50 67h1M40 68h10" />
<path stroke="#f4ebb3" d="M58 47h1M57 48h2M57 49h2M57 50h2M57 51h1M56 52h2M56 53h1" />
<path stroke="#6d6780" d="M59 47h1M42 48h1M59 48h1M42 49h1M59 49h1M59 50h1M43 51h1M58 51h1M58 52h1M57 53h1M57 55h1M48 56h1M54 56h1M52 57h2M56 59h1M43 62h3M53 63h1M49 64h1M53 64h1M49 65h1M48 66h1M47 67h1" />
<path stroke="#cfb763" d="M56 48h1M43 49h2M52 49h5M43 50h14M44 51h13M44 52h12M45 53h11M46 54h11M47 55h9M49 56h5M52 63h1M52 64h1M49 66h1M49 67h1" />
<path stroke="#aea8fb" d="M57 56h1M44 63h4M45 64h2" />
<path stroke="#746ccd" d="M57 57h1M55 59h1M56 60h1M46 62h1M47 64h2M45 65h4M45 66h3M44 67h3" />
<path stroke="#5e5951" d="M46 60h1M45 61h1M51 63h1M50 65h1" />
<path stroke="#9ea488" d="M47 60h2M48 61h4M47 62h1M49 62h3M48 63h3M50 64h1" />
<path stroke="#f4f4ff" d="M46 61h2M48 62h1" />
</svg>