<svg xmlns="http://www.w3.org/2000/svg" viewBox="0 -0.5 96 96" shape-rendering="crispEdges">
<metadata>Made with Pixels to Svg https://codepen.io/shshaw/pen/XbxvNj</metadata>
<path stroke="#25585b" d="M48 28h6M45 29h3M54 29h2M43 30h2M56 30h1M42 31h1M55 31h2M46 32h1M53 32h5M41 33h7M49 33h1M52 33h6M41 34h9M52 34h2M40 35h10M40 36h10M40 37h9M40 38h9M40 39h9M40 40h1M45 40h4M40 41h6M40 42h8M41 43h7M41 44h7M41 45h7M41 46h8M42 47h7M46 48h3M42 49h5M42 50h8M42 51h8M41 52h9M41 53h9M42 54h8M39 55h3M45 55h5M38 56h1M41 56h5M48 56h1M40 57h1M43 57h5M38 58h1M42 58h1M45 58h2M39 59h2M41 60h1" />
<path stroke="#bf3922" d="M54 28h8M64 29h1M57 30h1M63 30h4M58 31h7M67 31h1M58 32h10M58 33h12M56 34h2M65 34h5M54 35h2M68 35h3M54 36h1M56 36h1M69 36h2M53 37h1M70 37h2M52 38h2M70 38h2M52 39h2M71 39h1M51 40h2M71 40h1M51 41h2M54 41h1M71 41h1M51 42h1M61 42h1M67 42h1M51 44h1M51 45h1M52 46h1M26 47h3M52 47h1M28 48h3M52 48h1M54 48h1M30 49h2M52 49h2M31 50h2M34 50h1M53 50h1M32 51h1M34 51h1M32 52h2M35 52h1M53 52h1M33 53h1M35 53h1M53 53h1M33 54h2M53 54h1M34 55h1M52 55h2M34 56h1M52 56h1M35 57h2M51 57h2M54 57h1M35 58h3M51 58h1M36 59h3M49 59h2M37 60h4M48 60h2M38 61h4M46 61h3M41 62h1M43 62h4M44 63h2M46 64h1M47 65h1" />
<path stroke="#8d3123" d="M62 28h2M65 29h1M58 30h5M67 30h1M65 31h2M68 31h1M68 32h2M70 33h1M64 34h1M70 34h1M58 35h8M67 35h1M59 36h9M59 37h11M59 38h11M60 39h11M60 40h10M62 41h5M68 41h2M68 42h3M62 43h4M69 43h2M64 44h6M29 47h2M31 48h2M24 49h4M33 49h1M24 50h6M23 51h9M23 52h9M23 53h9M23 54h9M23 55h10M24 56h9M35 56h1M24 57h11M25 58h7M31 59h4M26 60h10M27 61h4M34 61h4M29 62h1M31 62h3M36 62h3M33 64h1M34 65h1" />
<path stroke="#3e7c80" d="M48 29h6M45 30h11M43 31h12M47 32h6M50 33h2M39 56h2M38 57h1M41 57h2M39 58h2M43 58h2" />
<path stroke="#ff5839" d="M56 29h8M57 36h1M57 37h1M54 40h1M55 41h1M54 47h1M55 48h1M32 49h1M33 50h1M33 51h1M34 52h1M34 53h1M35 54h1M35 55h2M36 56h2M54 56h1M37 57h1M47 62h1M46 63h2M34 64h1M47 64h1" />
<path stroke="#681607" d="M57 31h1M58 34h6M56 35h2M66 35h1M71 35h1M53 36h1M55 36h1M58 36h1M68 36h1M71 36h1M54 37h2M58 37h1M54 38h1M58 38h1M54 39h1M53 40h1M55 40h1M70 40h1M56 41h1M61 41h1M67 41h1M70 41h1M52 42h1M62 42h4M51 43h1M68 43h1M63 44h1M52 45h1M66 45h4M53 46h2M25 47h1M53 47h1M55 47h2M24 48h4M53 48h1M23 49h1M28 49h2M54 49h1M23 50h1M30 50h1M53 51h1M32 53h1M32 54h1M36 54h1M54 54h1M33 55h1M37 55h1M54 55h1M33 56h1M53 56h1M55 56h1M53 57h1M55 57h1M32 58h3M50 58h1M52 58h1M25 59h6M35 59h1M51 59h1M36 60h1M50 60h1M42 61h1M49 61h1M39 62h2M42 62h1M48 62h1M33 63h3M48 63h1M48 64h1M48 65h1" />
<path stroke="#1c3d42" d="M41 32h5M40 33h1M48 33h1M40 34h1M51 34h1M54 34h2M39 35h1M51 35h3M39 36h1M50 36h3M39 37h1M49 37h4M39 38h1M50 38h2M50 39h2M41 40h4M49 40h2M46 41h2M49 41h2M49 42h2M49 43h2M49 44h2M48 45h3M49 46h3M50 47h2M42 48h4M50 48h2M47 49h2M50 49h2M50 50h3M51 51h2M51 52h2M51 53h2M40 54h2M50 54h3M42 55h3M50 55h2M46 56h2M50 56h2M39 57h1M49 57h2M41 58h1M47 58h3M41 59h2M46 59h3M42 60h6M43 61h3" />
<path stroke="#102d2f" d="M50 34h1M50 35h1M49 38h1M39 39h1M49 39h1M39 40h1M39 41h1M48 41h1M39 42h1M48 42h1M40 43h1M48 43h1M40 44h1M48 44h1M40 45h1M40 46h1M41 47h1M49 47h1M41 48h1M49 48h1M41 49h1M49 49h1M41 50h1M41 51h1M50 51h1M40 52h1M50 52h1M40 53h1M50 53h1M39 54h1M38 55h1M49 56h1M48 57h1M43 59h3" />
<path stroke="#101010" d="M56 37h1M72 37h1M57 38h1M72 38h1M59 39h1M72 39h1M59 40h1M72 40h1M53 41h1M60 41h1M72 41h1M53 42h4M60 42h1M66 42h1M71 42h1M28 43h1M52 43h1M60 43h2M66 43h2M71 43h1M23 44h1M26 44h1M28 44h1M52 44h1M62 44h1M70 44h1M28 45h1M64 45h2M28 46h1M56 48h1M68 48h2M55 49h1M66 49h2M70 49h2M54 50h1M22 51h1M54 51h1M22 52h1M54 52h1M22 53h1M54 53h1M22 54h1M22 55h1M23 56h1M23 57h1M24 58h1M53 58h3M24 59h1M25 60h1M26 61h1M27 62h2M29 63h4M36 63h8M32 64h1M35 64h1M44 64h2M33 65h1M35 65h1M46 65h1M33 66h2M47 66h2" />
<path stroke="#be5409" d="M23 43h2M27 43h1M25 44h1M24 45h1M26 45h1M25 46h1M66 46h1M69 46h1M66 47h1M68 47h1M70 47h1M66 48h1M71 48h1" />
<path stroke="#f89e08" d="M24 44h1M27 44h1M25 45h1M27 45h1M26 46h2M67 46h2M67 47h1M69 47h1M67 48h1M70 48h1M31 61h3M30 62h1M34 62h2" />
</svg>