<svg xmlns="http://www.w3.org/2000/svg" viewBox="0 -0.5 96 96" shape-rendering="crispEdges">
<metadata>Made with Pixels to Svg https://codepen.io/shshaw/pen/XbxvNj</metadata>
<path stroke="#36465d" d="M33 18h3M31 19h2M35 19h1M30 20h1M35 20h1M29 21h1M34 21h1M29 22h1M34 22h1M60 22h1M34 23h1M55 23h1M59 23h1M61 23h1M55 24h1M59 24h1M61 24h1M55 25h1M58 25h1M62 25h1M55 26h1M58 26h1M62 26h1M55 27h1M57 27h1M62 27h1M56 28h1M63 28h1M54 29h2M63 29h1M63 30h1M63 31h1M63 32h1M63 33h1M62 34h1M61 36h1M50 38h1M47 44h2M37 45h1M49 45h1M50 46h1M50 47h1M47 48h1M51 48h1M68 48h2M73 48h2M51 49h1M67 49h1M72 49h1M51 50h1M66 50h1M70 50h2M52 51h1M64 51h2M68 51h2M47 52h1M52 52h4M62 52h2M66 52h2M47 53h1M56 53h2M61 53h1M65 53h1M74 53h2M47 54h1M58 54h3M64 54h1M67 54h1M73 54h1M29 55h1M39 55h1M46 55h1M61 55h1M63 55h1M68 55h1M71 55h2M27 56h2M46 56h1M69 56h2M25 57h2M24 58h1M23 59h1M22 60h1M21 61h1M20 62h1M25 62h1M20 63h1M25 63h2M19 64h1M22 64h4M19 65h1M22 65h4M22 66h4M27 66h1M23 67h3M24 68h2M25 69h1" />
<path stroke="#4256ac" d="M33 19h1M31 20h3M30 21h4M30 22h3M29 23h4M29 24h4M28 25h5M59 25h2M28 26h4M59 26h2M28 27h3M58 27h3M28 28h2M57 28h5M28 29h2M57 29h5M28 30h1M56 30h6M53 31h9M53 32h9M53 33h9M52 34h10M52 35h10M51 36h10M51 37h10M51 38h9M50 39h1M53 39h5M49 40h3M48 41h2M46 44h1M45 45h4M37 46h1M44 46h5M36 47h1M44 47h5M36 48h1M43 48h4M48 48h1M36 49h1M42 49h5M48 49h2M41 50h6M49 50h1M68 50h1M40 51h7M49 51h1M67 51h1M39 52h7M50 52h1M69 52h2M39 53h2M42 53h4M51 53h1M66 53h4M39 54h1M43 54h2M52 54h3M65 54h2M54 55h4M62 55h1M64 55h4M58 56h11M72 56h1M29 57h1M66 57h6M27 58h1M68 58h3M25 59h2M24 60h2M22 61h3M21 62h4M21 63h2M20 64h2M26 64h1M20 65h2M26 65h2M20 66h2M26 66h1M20 67h3M27 67h1M21 68h2M27 68h1M22 69h2M23 70h2M23 71h3M25 72h2" />
<path stroke="#5586c9" d="M34 19h1M34 20h1M33 22h1M33 23h1M60 23h1M33 24h1M60 24h1M61 25h1M54 26h1M61 26h1M61 27h1M62 28h1M56 29h1M62 29h1M54 30h2M62 30h1M62 31h1M62 32h1M62 33h1M49 46h1M49 47h1M49 48h2M50 49h1M68 49h1M73 49h1M47 50h1M50 50h1M67 50h1M72 50h1M47 51h1M50 51h2M66 51h1M70 51h2M46 52h1M51 52h1M64 52h2M68 52h1M46 53h1M52 53h4M62 53h3M45 54h2M55 54h3M61 54h3M74 54h1M45 55h1M58 55h3M73 55h1M29 56h1M71 56h1M27 57h2M25 58h2M24 59h1M23 60h1M26 60h1M25 61h1" />
<path stroke="#736e75" d="M38 22h8M36 23h2M46 23h3M54 23h1M34 24h2M49 24h2M53 24h1M33 25h1M51 25h2M53 26h1M54 27h1M55 28h1M53 29h1M29 30h1M53 30h1M29 31h1M52 31h1M29 32h1M52 32h1M52 33h1M51 34h1M31 35h1M51 35h1M31 36h1M30 37h1M39 37h1M39 38h1M38 39h1M48 39h1M29 40h2M59 40h1M37 41h1M59 41h1M46 42h1M58 42h1M56 43h2M36 44h1M55 44h1M56 45h1M38 46h1M57 46h1M35 47h1M38 47h1M42 47h1M37 49h1M36 51h1M30 52h1M31 56h1M36 62h1M43 62h4M34 63h1M37 63h1M47 63h2M37 64h1M49 64h1M52 64h4M38 65h1M50 65h2M56 65h1M39 66h2M57 66h1M41 67h2M57 67h1M43 68h2M45 69h3M44 70h1M48 71h1M55 71h2" />
<path stroke="#101010" d="M28 23h1M28 24h1M27 25h1M27 26h1M32 26h1M27 27h1M31 27h1M27 28h1M30 28h1M27 29h1M30 29h1M27 30h1M28 31h1M28 32h1M28 33h1M28 34h1M28 35h1M62 35h1M27 36h1M50 36h1M27 37h1M50 37h1M61 37h1M27 38h1M30 38h1M49 38h1M60 38h1M27 39h1M30 39h1M49 39h1M51 39h2M58 39h2M26 40h1M38 40h1M48 40h1M52 40h6M26 41h1M29 41h1M38 41h1M47 41h1M50 41h2M53 41h1M26 42h1M29 42h1M37 42h2M47 42h3M53 42h1M26 43h1M29 43h1M37 43h2M46 43h1M52 43h1M26 44h1M29 44h1M38 44h1M45 44h1M52 44h1M56 44h1M25 45h1M29 45h1M36 45h1M38 45h1M44 45h1M52 45h1M25 46h1M29 46h1M36 46h1M43 46h1M53 46h1M25 47h1M28 47h2M37 47h1M43 47h1M54 47h1M57 47h1M25 48h1M28 48h2M35 48h1M37 48h1M42 48h1M54 48h1M56 48h1M25 49h1M27 49h1M29 49h1M35 49h1M41 49h1M47 49h1M54 49h2M69 49h1M74 49h1M25 50h1M27 50h1M29 50h1M35 50h2M40 50h1M48 50h1M54 50h1M69 50h1M73 50h1M26 51h1M29 51h1M35 51h1M39 51h1M48 51h1M72 51h1M29 52h1M35 52h1M38 52h1M49 52h1M71 52h1M30 53h1M35 53h1M37 53h2M50 53h1M70 53h1M30 54h1M35 54h2M38 54h1M51 54h1M68 54h2M75 54h1M30 55h1M35 55h1M52 55h2M74 55h1M30 56h1M35 56h1M39 56h1M54 56h4M73 56h1M30 57h2M35 57h1M39 57h1M58 57h8M72 57h1M28 58h2M31 58h1M35 58h1M38 58h1M66 58h2M71 58h1M27 59h1M31 59h1M35 59h1M37 59h1M68 59h3M27 60h1M32 60h1M36 60h1M41 60h3M26 61h1M32 61h1M36 61h1M40 61h1M44 61h2M26 62h1M33 62h1M39 62h1M23 63h2M27 63h1M33 63h1M38 63h1M43 63h1M27 64h1M34 64h1M38 64h1M44 64h2M28 65h1M35 65h1M46 65h1M19 66h1M28 66h1M36 66h1M47 66h1M53 66h3M19 67h1M26 67h1M28 67h1M35 67h1M37 67h1M48 67h1M52 67h1M56 67h1M20 68h1M23 68h1M26 68h1M28 68h1M35 68h1M38 68h2M48 68h1M51 68h1M21 69h1M24 69h1M27 69h1M34 69h1M40 69h2M51 69h1M22 70h1M25 70h1M34 70h1M42 70h2M52 70h3M22 71h1M26 71h1M34 71h1M45 71h3M23 72h2M27 72h1M35 72h1M48 72h11M25 73h3M48 73h1M36 74h1M47 74h1M28 75h2M35 75h2M47 75h1M57 75h3M30 76h5M48 76h1M56 76h1M50 77h5" />
<path stroke="#ddd7df" d="M38 23h1M41 23h5M36 24h13M34 25h1M41 25h10M54 25h1M45 26h8M47 27h7M49 28h6M51 29h2M52 30h1M58 40h1M57 41h2M56 42h2M56 46h1M56 47h1M52 65h4M51 66h1M56 66h1M53 71h2" />
<path stroke="#f1eef2" d="M39 23h2M54 24h1M53 25h1" />
<path stroke="#a39da5" d="M35 25h6M33 26h12M32 27h15M31 28h18M31 29h20M30 30h22M30 31h22M30 32h22M29 33h23M29 34h22M29 35h2M32 35h19M28 36h3M32 36h18M28 37h2M31 37h8M40 37h10M28 38h2M31 38h8M40 38h9M28 39h2M31 39h7M39 39h9M27 40h2M31 40h7M39 40h9M27 41h2M30 41h7M39 41h8M54 41h3M27 42h2M30 42h7M39 42h7M54 42h2M27 43h2M30 43h7M39 43h7M53 43h3M27 44h2M30 44h6M39 44h6M53 44h2M26 45h3M30 45h6M39 45h5M53 45h3M26 46h3M30 46h6M39 46h4M54 46h2M26 47h2M30 47h5M39 47h3M55 47h1M26 48h2M30 48h5M38 48h4M55 48h1M26 49h1M30 49h5M38 49h3M26 50h1M30 50h5M37 50h3M30 51h5M37 51h2M31 52h4M36 52h2M31 53h4M36 53h1M31 54h4M31 55h4M32 56h3M32 57h3M32 58h3M32 59h3M33 60h3M33 61h3M34 62h2M35 63h2M44 63h3M35 64h2M46 64h3M36 65h2M47 65h3M37 66h2M48 66h3M52 66h1M38 67h3M49 67h3M40 68h3M49 68h2M42 69h3M48 69h3M45 70h7M49 71h4" />
<path stroke="#983585" d="M41 53h1M40 54h3M40 55h5M40 56h6M40 57h5M39 58h7M38 59h2M41 59h5M37 60h3M45 60h2M37 61h2M46 61h3M37 62h1M47 62h3M49 63h2M50 64h2M34 65h1M34 66h2M33 67h2M33 68h2M33 69h1M33 70h1M33 71h1M32 72h2M32 73h3M49 73h3M29 74h7M48 74h4M30 75h5M48 75h4M56 75h1M50 76h5" />
<path stroke="#c734af" d="M45 57h1M46 58h1M46 59h2M47 60h2M49 61h1M50 62h1M34 72h1M30 73h2M53 73h3M52 74h2M56 74h3M52 75h4" />
<path stroke="#6b2e67" d="M46 57h1M47 58h1M40 59h1M48 59h1M40 60h1M44 60h1M49 60h1M39 61h1M50 61h1M38 62h1M51 62h1M51 63h1M33 64h1M33 65h1M33 66h1M32 67h1M32 68h1M32 69h1M32 70h1M32 71h1M30 72h2M29 73h1M35 73h1M52 73h1M56 73h3M28 74h1M54 74h2M59 74h1M49 76h1M55 76h1" />
</svg>