<svg xmlns="http://www.w3.org/2000/svg" viewBox="0 -0.5 96 96" shape-rendering="crispEdges">
<metadata>Made with Pixels to Svg https://codepen.io/shshaw/pen/XbxvNj</metadata>
<path stroke="#c28e16" d="M79 26h2M80 27h1M80 28h1M77 29h2M76 30h3M75 31h3M70 32h2M74 32h4M68 33h2M72 33h1M74 33h4M66 34h6M75 34h2M61 35h2M65 35h12M26 36h2M37 36h2M47 36h2M54 36h2M62 36h1M65 36h5M74 36h2M27 37h1M38 37h1M48 37h1M55 37h1M60 37h1M62 37h1M64 37h4M27 38h1M38 38h1M48 38h1M53 38h1M55 38h1M60 38h1M64 38h3M25 39h1M27 39h1M36 39h1M38 39h1M46 39h1M48 39h1M53 39h1M55 39h1M57 39h1M63 39h3M25 40h1M27 40h1M36 40h1M46 40h1M48 40h1M50 40h1M56 40h5M63 40h2M24 41h2M36 41h1M43 41h1M49 41h5M56 41h3M63 41h1M21 42h1M25 42h1M33 42h1M41 42h6M49 42h3M56 42h1M19 43h7M31 43h6M40 43h5M18 44h7M30 44h5M40 44h3M18 45h4M31 45h2M17 46h3M17 47h2M17 48h1M60 51h1M67 51h3M61 52h2M68 52h2M54 53h4M61 53h2M45 54h2M55 54h2M34 55h1M45 55h4M55 55h1M34 56h4M46 56h2M34 57h3M46 57h1M35 58h1M18 63h2M17 64h3M16 65h5M18 66h3" />
<path stroke="#875716" d="M78 27h1M77 28h1M76 29h1M80 29h1M75 30h1M80 30h1M74 31h1M79 31h1M68 32h2M73 32h1M79 32h1M67 33h1M73 33h1M79 33h1M74 34h1M78 34h1M78 35h1M60 36h1M70 36h4M78 36h1M25 37h1M36 37h1M46 37h1M53 37h1M59 37h1M68 37h2M74 37h2M77 37h1M25 38h1M36 38h1M46 38h1M52 38h1M59 38h1M62 38h1M67 38h1M77 38h1M24 39h1M35 39h1M45 39h1M52 39h1M60 39h1M62 39h1M66 39h1M24 40h1M35 40h1M38 40h1M45 40h1M53 40h1M55 40h1M62 40h1M65 40h1M23 41h1M27 41h1M35 41h1M38 41h1M46 41h1M48 41h1M55 41h1M59 41h2M62 41h1M64 41h1M24 42h1M27 42h1M36 42h1M38 42h1M48 42h1M52 42h3M57 42h2M27 43h1M38 43h2M45 43h3M50 43h2M25 44h2M35 44h3M43 44h2M17 45h1M22 45h3M33 45h2M42 45h1M20 46h2M19 47h1M69 47h1M82 47h1M16 48h1M18 48h1M61 48h1M69 48h1M83 48h1M17 49h1M55 49h2M62 49h1M70 49h1M82 49h1M46 50h1M56 50h1M63 50h1M71 50h1M35 51h1M47 51h1M57 51h1M64 51h1M36 52h1M48 52h1M37 53h1M49 53h1M69 53h1M38 54h1M62 54h1M56 55h1M47 57h1M35 59h1M18 62h2M17 63h1M20 63h1M16 64h1M20 64h1M15 65h1M21 65h1M17 66h1M21 66h1" />
<path stroke="#f5c212" d="M79 27h1M78 28h2M79 29h1M79 30h1M78 31h1M78 32h1M70 33h2M78 33h1M72 34h2M77 34h1M77 35h1M61 36h1M76 36h2M26 37h1M37 37h1M47 37h1M54 37h1M61 37h1M76 37h1M26 38h1M37 38h1M47 38h1M54 38h1M61 38h1M26 39h1M37 39h1M47 39h1M54 39h1M58 39h2M61 39h1M26 40h1M37 40h1M47 40h1M51 40h2M54 40h1M61 40h1M26 41h1M37 41h1M44 41h2M47 41h1M54 41h1M22 42h2M26 42h1M34 42h2M37 42h1M47 42h1M26 43h1M37 43h1M68 48h1M82 48h1M61 49h1M68 49h2M55 50h1M61 50h2M67 50h4M46 51h1M55 51h2M61 51h3M35 52h1M46 52h2M54 52h4M34 53h3M45 53h4M34 54h4M47 54h3M35 55h4" />
<path stroke="#111111" d="M66 33h1M65 34h1M64 35h1M64 36h1M63 37h1M57 38h2M63 38h1M50 39h2M56 39h1M43 40h2M49 40h1M21 41h2M33 41h2M41 41h2M19 42h2M31 42h2M40 42h1M18 43h1M30 43h1M17 44h1M29 44h1M16 45h1M16 46h1M16 47h1M70 51h1M58 52h1M63 52h1M70 52h1M11 53h1M58 53h1M63 53h1M11 54h1M50 54h1M57 54h1M69 54h1M11 55h1M39 55h1M49 55h1M57 55h1M62 55h1M68 55h1M78 55h1M11 56h1M38 56h1M48 56h1M56 56h1M61 56h1M67 56h1M76 56h2M11 57h1M37 57h1M56 57h1M60 57h1M65 57h2M73 57h3M77 57h1M11 58h1M36 58h1M47 58h1M49 58h1M55 58h1M59 58h6M66 58h8M77 58h1M15 59h4M47 59h1M50 59h1M54 59h4M59 59h4M66 59h1M70 59h4M75 59h2M12 60h1M14 60h7M35 60h1M40 60h1M46 60h2M53 60h3M59 60h4M64 60h2M71 60h4M12 61h11M29 61h1M35 61h1M41 61h1M45 61h7M53 61h3M57 61h2M61 61h3M13 62h5M20 62h4M30 62h1M34 62h4M43 62h2M46 62h4M53 62h4M13 63h4M21 63h5M31 63h11M43 63h1M46 63h4M51 63h2M14 64h2M21 64h10M32 64h1M36 64h5M43 64h1M47 64h4M22 65h7M32 65h1M36 65h7M16 66h1M22 66h8M32 66h1M37 66h4M16 67h7M25 67h7M17 68h5M26 68h4" />
<path stroke="#8b5845" d="M70 37h4M68 38h6M67 39h6M66 40h8M65 41h11M59 42h2M64 42h14M52 43h2M57 43h4M66 43h13M45 44h4M52 44h4M59 44h4M67 44h13M25 45h2M35 45h3M43 45h8M53 45h4M60 45h4M68 45h13M22 46h7M33 46h7M44 46h7M54 46h3M61 46h2M65 46h2M69 46h12M15 47h1M20 47h10M34 47h7M45 47h5M55 47h1M58 47h2M62 47h1M64 47h2M70 47h11M14 48h2M19 48h12M35 48h6M46 48h3M51 48h3M57 48h2M63 48h3M70 48h11M14 49h3M18 49h12M35 49h5M42 49h3M47 49h2M50 49h3M57 49h1M63 49h2M71 49h10M13 50h16M31 50h2M36 50h4M41 50h3M47 50h1M49 50h4M57 50h1M64 50h1M72 50h9M13 51h16M30 51h2M36 51h3M40 51h4M49 51h3M71 51h9M13 52h15M29 52h3M37 52h2M40 52h3M49 52h3M65 52h1M71 52h8M12 53h16M29 53h2M38 53h1M40 53h3M50 53h2M64 53h2M70 53h7M12 54h16M29 54h2M40 54h3M51 54h1M58 54h1M64 54h3M70 54h4M12 55h16M29 55h2M40 55h3M50 55h2M58 55h2M65 55h3M12 56h16M29 56h2M40 56h3M49 56h4M58 56h2M12 57h16M29 57h2M38 57h1M40 57h3M48 57h1M50 57h4M13 58h15M29 58h3M37 58h2M40 58h4M48 58h1M51 58h3M20 59h8M29 59h3M36 59h4M41 59h4M23 60h6M30 60h3M37 60h3M42 60h3M24 61h4M31 61h3" />
<path stroke="#b6886e" d="M74 38h2M73 39h4M74 40h4M76 41h3M61 42h1M78 42h1M54 43h1M61 43h3M79 43h1M49 44h1M56 44h1M63 44h2M27 45h2M38 45h2M51 45h1M57 45h1M65 45h2M29 46h2M40 46h2M58 46h2M64 46h1M30 47h3M41 47h1M52 47h2M57 47h1M42 48h3M50 48h1M31 49h3M41 49h1M30 50h1" />
<path stroke="#673f34" d="M76 38h1M77 39h1M78 40h1M79 41h1M62 42h2M79 42h1M64 43h2M27 44h2M38 44h2M65 44h2M29 45h2M40 45h2M58 45h2M64 45h1M31 46h2M42 46h1M51 46h3M57 46h1M63 46h1M42 47h2M50 47h2M56 47h1M63 47h1M81 47h1M31 48h3M41 48h1M49 48h1M56 48h1M81 48h1M30 49h1M34 49h1M40 49h1M49 49h1M81 49h1M29 50h1M40 50h1M48 50h1M29 51h1M39 51h1M80 51h1M28 52h1M39 52h1M64 52h1M79 52h1M28 53h1M77 53h3M74 54h5M64 55h1M69 55h8M57 56h1M60 56h1M62 56h2M65 56h2M68 56h7M39 57h1M49 57h1M58 57h2M62 57h3M67 57h5M12 58h1M28 58h1M39 58h1M54 58h1M56 58h2M13 59h1M28 59h1M40 59h1M48 59h2M52 59h2M22 60h1M29 60h1M36 60h1M41 60h1M45 60h1M49 60h3M23 61h1M28 61h1M30 61h1M37 61h4M42 61h3M25 62h5M31 62h3M39 62h3M27 63h4" />
<path stroke="#452925" d="M61 41h1M55 42h1M48 43h2M55 43h2M80 43h1M50 44h2M57 44h2M80 44h1M52 45h1M67 45h1M81 45h1M15 46h1M43 46h1M60 46h1M68 46h1M81 46h1M14 47h1M33 47h1M44 47h1M54 47h1M61 47h1M13 48h1M34 48h1M45 48h1M55 48h1M62 48h1M13 49h1M46 49h1M12 50h1M35 50h1M81 50h1M12 51h1M48 51h1M81 51h1M12 52h1M80 52h1M39 53h1M80 53h1M28 54h1M39 54h1M63 54h1M79 54h1M28 55h1M63 55h1M77 55h1M28 56h1M39 56h1M64 56h1M75 56h1M28 57h1M57 57h1M61 57h1M72 57h1M50 58h1M58 58h1M12 59h1M14 59h1M19 59h1M51 59h1M13 60h1M21 60h1M48 60h1M52 60h1M34 61h1M36 61h1M24 62h1M38 62h1M42 62h1M26 63h1" />
<path stroke="#af9aa2" d="M67 46h1M60 47h1M66 47h1M54 48h1M59 48h1M45 49h1M53 49h1M58 49h1M65 49h1M67 49h1M33 50h1M44 50h1M58 50h1M60 50h1M65 50h1M32 51h1M52 51h1M54 51h1M58 51h1M65 51h2M34 52h1M43 52h1M45 52h1M52 52h1M59 52h2M66 52h2M31 53h1M43 53h1M52 53h1M59 53h2M66 53h3M31 54h1M33 54h1M43 54h1M52 54h3M59 54h3M67 54h2M31 55h1M33 55h1M43 55h2M52 55h3M60 55h2M31 56h3M43 56h3M53 56h3M31 57h3M43 57h3M54 57h2M32 58h3M44 58h3M32 59h3M45 59h2M33 60h2" />
<path stroke="#f2fcff" d="M67 47h2M60 48h1M66 48h2M54 49h1M59 49h2M66 49h1M34 50h1M45 50h1M53 50h2M59 50h1M66 50h1M33 51h2M44 51h2M53 51h1M59 51h1M32 52h2M44 52h1M53 52h1M32 53h2M44 53h1M53 53h1M32 54h1M44 54h1M32 55h1" />
<path stroke="#292929" d="M76 57h1M65 58h1M74 58h3M58 59h1M63 59h3M74 59h1M56 60h3M63 60h1M52 61h1M56 61h1M50 62h3M42 63h1M50 63h1M31 64h1M41 64h2M29 65h3M30 66h2" />
</svg>