<svg xmlns="http://www.w3.org/2000/svg" viewBox="0 -0.5 96 96" shape-rendering="crispEdges">
<metadata>Made with Pixels to Svg https://codepen.io/shshaw/pen/XbxvNj</metadata>
<path stroke="#535353" d="M59 10h7M67 10h4M56 11h3M66 11h2M71 11h2M54 12h2M68 12h1M73 12h1M52 13h2M69 13h1M74 13h1M51 14h1M70 14h1M75 14h1M71 15h1M76 15h1M75 16h3M74 17h1M78 17h1M73 18h1M79 18h1M73 19h1M79 19h1M73 20h1M80 20h1M80 21h1M74 22h1M80 22h1M74 23h1M81 23h1M74 24h1M81 24h1M75 25h1M81 25h1M75 26h1M81 26h1M75 27h1M81 27h1M72 28h1M81 28h1M73 29h1M81 29h1M73 30h1M81 30h1M74 31h1M81 31h1M75 32h1M81 32h1M70 33h1M75 33h1M81 33h1M71 34h1M76 34h1M81 34h1M71 35h1M76 35h1M81 35h1M72 36h1M77 36h1M81 36h1M72 37h1M77 37h2M81 37h1M72 38h1M79 38h1M81 38h1M72 39h1M80 39h2M72 40h1M82 40h1M72 41h1M83 41h1M72 42h1M84 42h1M73 43h1M85 43h1M73 44h1M85 44h1M73 45h1M86 45h1M74 46h1M86 46h1M74 47h1M87 47h1M75 48h1M87 48h1M76 49h3M87 49h1M87 50h1M87 51h1M87 52h1M87 53h1M87 54h1M87 55h1M87 56h1M87 57h1M87 58h1M87 59h1M87 60h1M86 61h1M86 62h1M86 63h1M85 64h1" />
<path stroke="#d6d6d6" d="M59 11h7M70 11h1M56 12h12M71 12h2M54 13h1M63 13h5M73 13h1M52 14h1M66 14h4M73 14h2M68 15h3M74 15h2M69 16h3M74 16h1M70 17h4M75 17h3M71 18h2M74 18h5M71 19h2M76 19h3M72 20h1M77 20h3M72 21h1M78 21h2M78 22h2M79 23h2M79 24h2M79 25h2M80 26h1M80 27h1M80 28h1M80 29h1M80 30h1M76 36h1M77 38h1M79 39h1M78 40h1M80 40h2M78 41h1M72 43h1M79 43h1M72 44h1M79 44h1M71 45h1M79 45h1M79 46h1M79 47h1M81 47h1M78 48h1M82 48h1M75 49h1M79 49h1M83 49h1M75 50h1M79 50h1M84 50h1M75 51h1M79 51h1M85 51h1M75 52h1M80 52h1M86 52h1M75 53h1M80 53h1M75 54h1M80 54h1M74 55h1M81 55h1M74 56h1M81 56h1M74 57h1M81 57h1M74 58h1M81 58h1M74 59h1M82 59h1M74 60h1M82 60h1M74 61h1M82 61h1M82 62h1M83 63h1M83 64h1M83 65h1M83 66h1M17 74h1M17 75h3M22 75h2M20 76h2M56 76h1M57 79h1M55 81h4M60 81h1M54 82h1M59 82h2" />
<path stroke="#3e2a56" d="M68 11h1M69 12h1M71 14h1M72 15h1" />
<path stroke="#101010" d="M69 11h1M70 12h1M70 13h3M72 14h1M50 15h1M73 15h1M49 16h1M72 16h2M48 17h1M48 18h1M47 19h1M47 20h1M46 21h1M46 22h1M46 23h1M45 24h1M45 25h1M45 26h1M45 27h1M44 28h1M44 29h1M43 30h1M36 37h1M36 38h1M36 39h1M54 39h3M10 40h1M37 40h2M51 40h3M57 40h1M10 41h1M39 41h12M57 41h1M71 41h1M58 42h1M71 42h1M11 43h1M59 43h1M71 43h1M11 44h1M59 44h1M71 44h1M60 45h1M70 45h1M12 46h1M30 46h1M61 46h1M70 46h1M12 47h1M27 47h1M30 47h1M61 47h1M70 47h1M12 48h1M27 48h1M30 48h1M49 48h2M62 48h1M70 48h1M27 49h1M31 49h1M47 49h2M51 49h1M62 49h1M70 49h1M13 50h1M28 50h2M32 50h2M44 50h3M52 50h1M63 50h1M70 50h1M13 51h1M28 51h1M34 51h10M52 51h1M64 51h1M70 51h1M13 52h1M28 52h1M53 52h1M65 52h1M70 52h1M13 53h1M53 53h1M66 53h2M70 53h1M13 54h1M54 54h1M68 54h3M13 55h1M55 55h1M71 55h1M13 56h1M56 56h1M71 56h1M13 57h1M57 57h1M71 57h1M13 58h1M58 58h2M68 58h1M70 58h1M72 58h1M60 59h2M66 59h2M72 59h1M12 60h1M61 60h5M69 60h1M73 60h1M12 61h1M60 61h1M68 61h1M73 61h1M52 62h1M59 62h1M67 62h1M74 62h1M11 63h1M58 63h1M65 63h2M75 63h1M11 64h1M51 64h1M57 64h1M62 64h3M76 64h1M51 65h1M57 65h5M77 65h2M85 65h1M8 66h1M36 66h2M79 66h2M84 66h1M9 67h4M33 67h2M39 67h3M48 67h3M81 67h3M14 68h18M42 68h6M50 68h1M27 69h1M50 69h1M27 70h1M50 70h1M26 71h1M50 71h1M26 72h1M50 72h1M25 73h1M50 73h1M25 74h1M50 74h1M24 75h1M50 75h1M23 76h1M15 77h1M22 77h1M51 77h1M16 78h1M20 78h2M51 78h1M17 79h3M51 79h1M52 80h1M52 81h1M53 82h1M54 83h1M55 84h2M61 84h1M57 85h4" />
<path stroke="#9a9a9a" d="M55 13h8M68 13h1M53 14h13M51 15h17M50 16h19M49 17h21M49 18h22M48 19h23M74 19h2M48 20h24M74 20h3M47 21h25M73 21h5M47 22h27M75 22h3M47 23h27M75 23h4M46 24h28M75 24h4M46 25h29M76 25h3M46 26h29M76 26h4M46 27h29M76 27h4M45 28h27M73 28h7M45 29h2M57 29h16M74 29h6M60 30h13M74 30h6M62 31h12M75 31h6M63 32h12M76 32h5M64 33h6M71 33h4M76 33h5M65 34h6M72 34h4M77 34h4M65 35h6M72 35h4M77 35h4M67 36h5M73 36h3M78 36h3M68 37h4M73 37h4M79 37h2M70 38h2M73 38h4M78 38h1M80 38h1M71 39h1M73 39h6M73 40h5M79 40h1M73 41h5M79 41h1M73 42h7M74 43h5M80 43h1M74 44h5M80 44h1M74 45h5M80 45h1M75 46h4M80 46h1M75 47h4M80 47h1M76 48h2M79 48h1" />
<path stroke="#68798a" d="M47 29h10M44 30h3M57 30h3M42 31h2M60 31h2M40 32h2M62 32h1M39 33h1M63 33h1M38 34h1M64 34h1M37 35h1M64 35h1M37 36h1M65 36h2M67 37h1M35 38h1M56 38h1M68 38h2M33 39h2M70 39h1M32 40h1M36 40h1M54 40h3M71 40h1M31 41h1M35 41h4M51 41h6M58 41h1M30 42h1M34 42h24M29 43h1M33 43h26M29 44h1M32 44h27M60 44h1M28 45h1M32 45h28M28 46h1M31 46h30M31 47h30M31 48h18M51 48h11M30 49h1M32 49h15M52 49h10M63 49h1M34 50h10M53 50h10M53 51h11M54 52h11M55 53h11M55 54h13M56 55h14M57 56h13M58 57h12M60 58h8M69 58h1M62 59h4M68 59h1M66 60h3M61 61h7M60 62h7M59 63h6M58 64h4" />
<path stroke="#acb7b9" d="M47 30h10M44 31h16M42 32h20M40 33h23M39 34h25M38 35h26M38 36h27M37 37h3M47 37h2M50 37h17M37 38h1M49 38h1M51 38h1M53 38h3M57 38h11M35 39h1M50 39h1M52 39h2M57 39h13M33 40h2M49 40h2M58 40h13M32 41h2M59 41h12M31 42h2M59 42h12M30 43h2M60 43h11M30 44h1M61 44h10M29 45h2M61 45h9M29 46h1M62 46h8M28 47h2M62 47h8M28 48h2M63 48h7M28 49h2M64 49h6M30 50h2M64 50h6M29 51h2M65 51h5M29 52h1M66 52h4M68 53h2" />
<path stroke="#edf3f2" d="M40 37h7M49 37h1M38 38h11M50 38h1M52 38h1M37 39h13M51 39h1M39 40h10M80 41h3M80 42h4M81 43h4M81 44h4M72 45h1M81 45h5M71 46h3M81 46h5M71 47h3M82 47h5M71 48h4M80 48h2M83 48h4M71 49h4M80 49h3M84 49h3M71 50h4M76 50h3M80 50h4M85 50h2M71 51h4M76 51h3M80 51h5M86 51h1M71 52h4M76 52h4M81 52h5M71 53h4M76 53h4M81 53h6M71 54h4M76 54h4M81 54h6M72 55h2M75 55h6M82 55h5M72 56h2M75 56h6M82 56h5M72 57h2M75 57h6M82 57h5M73 58h1M75 58h6M82 58h5M73 59h1M75 59h7M83 59h4M75 60h7M83 60h4M75 61h7M83 61h3M75 62h7M83 62h3M76 63h7M84 63h2M77 64h6M84 64h1M79 65h4M84 65h1M81 66h2M16 75h1M55 75h2M16 76h4M22 76h1M55 76h1M59 76h1M16 77h6M17 78h3M56 78h2M56 79h1M60 79h1M55 82h4M55 83h6M57 84h4" />
<path stroke="#3d4a53" d="M10 39h3M13 40h2M35 40h1M15 41h2M34 41h1M11 42h1M17 42h2M33 42h1M19 43h1M32 43h1M20 44h1M31 44h1M12 45h1M21 45h1M31 45h1M22 46h1M23 47h1M23 48h1M13 49h1M24 49h1M24 50h1M24 51h1M31 51h1M25 52h1M30 52h1M25 53h1M28 53h2M54 53h1M25 54h3M26 55h1M70 55h1M70 56h1M25 57h1M70 57h1M13 59h1M22 59h1M69 59h1M20 60h1M18 61h1M53 61h2M12 62h1M16 62h1M55 62h1M14 63h1M52 63h1M55 63h1M12 64h1M38 64h1M56 64h1M9 65h2M37 65h1M56 65h1M35 66h1M38 66h1M51 66h1M56 66h1M13 67h1M32 67h1M57 67h1M57 68h1M19 69h1M57 69h1M18 70h1M58 70h1M17 71h1M58 71h1M17 72h1M58 72h1M16 73h1M59 73h1M16 74h1M59 74h1M15 75h1M59 75h1M15 76h1M51 76h1M60 76h1M60 77h1M60 78h1M61 79h1M61 80h1M61 81h1M61 82h1M61 83h1" />
<path stroke="#686e6e" d="M11 40h2M11 41h4M12 42h5M12 43h7M12 44h8M13 45h8M13 46h9M13 47h10M13 48h10M14 49h10M14 50h10M14 51h10M14 52h11M14 53h11M14 54h11M14 55h12M14 56h12M14 57h11M14 58h10M14 59h8M13 60h7M13 61h5M13 62h3M53 62h2M12 63h2M53 63h2M52 64h4M52 65h4M52 66h4M51 67h6M51 68h6M20 69h7M51 69h6M19 70h8M51 70h7M18 71h8M51 71h7M18 72h8M51 72h7M17 73h8M51 73h8M18 74h7M51 74h8M20 75h2M51 75h4M57 75h2M52 76h3M57 76h2M52 77h8M52 78h4M58 78h2M52 79h4M58 79h2M53 80h8M53 81h2M59 81h1" />
<path stroke="#456672" d="M49 49h2M47 50h5M32 51h2M44 51h8M31 52h22M30 53h23M28 54h26M28 55h27M26 56h1M29 56h27M29 57h28M24 58h1M29 58h29M23 59h1M30 59h30M21 60h1M27 60h1M29 60h32M19 61h1M26 61h1M28 61h1M30 61h23M55 61h5M17 62h1M24 62h2M27 62h1M29 62h23M56 62h3M15 63h1M22 63h30M56 63h2M13 64h1M19 64h19M39 64h12M16 65h21M38 65h13M9 66h26M39 66h12M14 67h18M42 67h6" />
<path stroke="#678c96" d="M27 55h1M27 56h2M26 57h3M25 58h4M24 59h6M22 60h5M28 60h1M20 61h6M27 61h1M29 61h1M18 62h6M26 62h1M28 62h1M16 63h6M14 64h5M11 65h5" />
</svg>