<svg xmlns="http://www.w3.org/2000/svg" viewBox="0 -0.5 96 96" shape-rendering="crispEdges">
<metadata>Made with Pixels to Svg https://codepen.io/shshaw/pen/XbxvNj</metadata>
<path stroke="#282d26" d="M32 6h1M32 7h1M34 7h1M31 8h2M34 8h1M32 9h1M24 10h2M22 11h3M26 11h1M25 12h1M27 12h1M43 13h2M31 14h1M43 14h1M33 15h1M43 15h1M48 15h2M55 15h2M60 15h1M43 16h1M48 16h1M50 16h1M54 16h1M56 16h1M59 16h1M40 17h3M47 17h1M50 17h1M53 17h1M56 17h1M59 17h1M38 18h1M42 18h4M47 18h1M51 18h2M56 18h1M59 18h1M39 19h2M46 19h1M51 19h1M56 19h1M58 19h1M41 20h1M47 20h1M55 20h2M58 20h1M50 21h1M57 21h1M53 22h1M56 23h1M57 24h1M69 24h1M74 24h1M68 25h1M71 25h1M74 25h1M72 26h3M74 27h1M75 28h1M75 29h1M75 30h1M75 31h1M75 32h1M44 33h2M75 33h1M42 34h2M42 42h1M42 43h1M42 44h1M42 45h1M41 48h1M41 49h1M40 51h1M17 55h2M19 56h1M43 56h1M39 57h1M51 57h1M74 57h1M39 58h1M50 58h1M74 58h1M38 59h1M42 59h1M74 59h1M76 59h1M38 60h1M41 60h1M46 60h1M48 60h1M50 60h1M73 60h2M76 60h1M18 61h2M37 61h1M45 61h1M47 61h1M49 61h1M73 61h1M76 61h1M20 62h1M40 62h1M46 62h1M48 62h3M76 62h1M20 63h1M40 63h1M46 63h5M75 63h1M21 64h1M40 64h1M45 64h6M75 64h1M20 65h1M39 65h1M43 65h1M45 65h6M74 65h1M22 66h1M39 66h1M42 66h1M44 66h7M73 66h1M23 67h1M38 67h1M41 67h1M43 67h8M22 68h1M38 68h3M43 68h8M29 69h1M43 69h8M52 69h3M32 70h1M43 70h8M52 70h4M43 71h8M52 71h4M42 72h9M52 72h5M42 73h9M52 73h5M72 73h1M42 74h9M52 74h5M72 74h1M42 75h9M52 75h5M72 75h1M42 76h9M52 76h6M73 76h1M42 77h9M52 77h6M73 77h1M41 78h10M52 78h4M57 78h1M74 78h1M33 79h1M41 79h1M43 79h8M52 79h1M54 79h2M57 79h1M74 79h1M33 80h1M41 80h1M43 80h7M53 80h1M55 80h1M57 80h1M65 80h1M25 81h1M34 81h1M40 81h2M43 81h6M55 81h1M25 82h1M34 82h1M41 82h3M45 82h3M56 82h1M24 83h1M35 83h1M42 83h2M45 83h3M24 84h1M35 84h1M42 84h1M46 84h1" />
<path stroke="#605f4d" d="M33 6h1M33 8h1M33 9h1M35 9h2M33 10h2M36 10h1M25 11h1M28 11h1M34 11h1M36 11h1M24 12h1M26 12h1M29 12h1M34 12h1M36 12h1M26 13h3M30 13h1M36 13h1M28 14h2M36 14h1M31 15h1M36 15h1M35 16h1M37 16h3M49 16h1M55 16h1M37 17h1M49 17h1M55 17h1M40 18h1M50 18h1M55 18h1M43 19h3M50 19h1M54 19h2M54 20h1M67 22h4M67 23h1M69 23h1M71 23h2M67 24h1M71 24h1M73 24h1M70 25h1M50 26h1M68 26h1M69 28h1M73 28h2M54 29h1M58 29h2M70 29h5M53 30h1M60 30h2M73 30h2M34 31h1M62 31h2M73 31h2M38 32h1M64 32h1M73 32h2M39 33h1M65 33h1M73 33h1M32 78h1M75 78h1M32 79h1M73 79h1M76 79h1M32 80h1M73 80h2M76 80h1M24 81h1M32 81h2M74 81h1M23 82h1M33 82h1M23 83h1M34 83h1" />
<path stroke="#b9b9b9" d="M33 7h1M34 9h1M35 10h1M35 11h1M28 12h1M35 12h1M29 13h1M35 13h1M30 14h1M35 14h1M32 15h1M35 15h1M36 16h1M36 17h1M38 17h2M37 18h1M41 18h1M38 19h1M39 20h2M68 24h1M70 24h1M69 25h1M72 25h1M51 26h2M69 26h3M38 27h1M50 27h3M69 27h5M37 28h2M49 28h3M55 28h1M70 28h3M36 29h3M48 29h4M36 30h2M48 30h4M55 30h1M36 31h2M47 31h6M33 32h2M36 32h2M47 32h13M31 33h8M46 33h15M29 34h12M44 34h13M27 35h28M26 36h2M34 36h19M25 37h1M37 37h15M37 38h14M38 39h13M38 40h5M44 40h6M39 41h4M44 41h5M40 42h2M44 42h4M41 43h1M44 43h2M24 82h1" />
<path stroke="#010101" d="M30 8h1M30 9h1M48 9h1M31 10h1M47 10h1M31 11h1M46 11h1M22 12h1M32 12h1M46 12h1M23 13h1M32 13h1M45 13h1M24 14h2M32 14h1M45 14h1M26 15h2M45 15h1M28 16h3M33 16h1M44 16h1M60 16h1M31 17h2M34 17h1M44 17h1M60 17h1M33 18h2M60 18h1M35 19h2M60 19h1M37 20h2M42 20h5M60 20h1M39 21h4M48 21h2M60 21h1M41 22h1M51 22h2M58 22h2M41 23h1M54 23h2M58 23h1M40 24h1M39 25h2M52 25h2M64 25h1M38 26h3M54 26h1M64 26h1M37 27h1M39 27h1M55 27h1M65 27h2M36 28h1M39 28h1M56 28h1M35 29h1M56 29h2M64 29h1M34 30h1M38 30h1M64 30h2M33 31h1M38 31h1M66 31h1M31 32h2M39 32h1M67 32h1M29 33h2M40 33h1M67 33h1M27 34h2M41 34h1M26 35h1M25 36h1M29 36h1M24 37h1M32 43h1M60 43h1M33 44h1M61 44h2M75 44h1M33 45h1M63 45h3M73 45h2M19 46h1M66 46h7M19 47h1M34 47h1M20 48h1M33 48h2M21 49h2M30 49h3M35 49h1M68 49h2M23 50h7M35 50h1M68 50h1M70 50h1M75 50h1M35 51h1M68 51h1M70 51h1M74 51h2M19 52h1M36 52h1M68 52h1M70 52h1M75 52h1M19 53h1M36 53h1M68 53h1M71 53h1M73 53h1M75 53h1M19 54h1M32 54h4M62 54h1M65 54h2M68 54h1M71 54h1M75 54h1M20 55h1M29 55h3M63 55h3M67 55h2M71 55h2M75 55h1M17 56h1M20 56h1M27 56h2M65 56h1M71 56h1M75 56h1M17 57h1M20 57h2M25 57h2M43 57h1M52 57h1M66 57h1M75 57h1M18 58h1M21 58h1M25 58h1M43 58h1M51 58h1M75 58h3M18 59h1M22 59h1M24 59h1M51 59h1M75 59h1M77 59h1M19 60h1M42 60h1M51 60h1M75 60h1M77 60h1M40 61h2M51 61h1M74 61h1M77 61h1M18 62h1M37 62h3M45 62h1M51 62h1M73 62h1M77 62h1M18 63h1M45 63h1M51 63h1M76 63h1M19 64h1M44 64h1M51 64h1M76 64h1M19 65h1M44 65h1M51 65h1M75 65h1M20 66h1M43 66h1M51 66h1M74 66h1M21 67h1M42 67h1M51 67h1M73 67h1M21 68h1M24 68h2M41 68h2M51 68h4M22 69h2M27 69h2M37 69h3M42 69h1M51 69h1M55 69h3M23 70h1M33 70h4M42 70h1M51 70h1M56 70h1M58 70h6M23 71h1M35 71h1M42 71h1M51 71h1M56 71h1M61 71h1M24 72h1M35 72h1M41 72h1M51 72h1M57 72h1M62 72h1M24 73h1M34 73h1M41 73h1M51 73h1M57 73h1M63 73h1M24 74h1M34 74h1M41 74h1M51 74h1M57 74h1M64 74h1M25 75h1M33 75h1M41 75h1M51 75h1M57 75h1M64 75h1M25 76h1M33 76h1M41 76h1M51 76h1M58 76h1M65 76h1M25 77h1M33 77h1M41 77h1M51 77h1M58 77h1M65 77h1M25 78h1M33 78h1M40 78h1M51 78h1M56 78h1M58 78h1M65 78h1M25 79h1M40 79h1M42 79h1M51 79h1M53 79h1M56 79h1M58 79h1M65 79h1M25 80h1M40 80h1M42 80h1M50 80h1M52 80h1M54 80h1M56 80h1M58 80h1M64 80h1M39 81h1M42 81h1M49 81h1M52 81h2M56 81h1M58 81h1M64 81h1M39 82h2M44 82h1M48 82h1M64 82h1M41 83h1M48 83h1M64 83h1M76 83h3M41 84h1M43 84h1M47 84h1M65 84h3M74 84h2M35 85h1M41 85h2M46 85h1M68 85h6M34 86h1M21 87h4M32 87h2M25 88h7" />
<path stroke="#4f4b58" d="M51 8h1M50 9h2M49 10h1M51 10h1M48 11h1M51 11h1M48 12h1M66 26h1M42 27h1M67 28h1M39 29h1M41 29h1M67 31h1M40 32h1M43 32h1M65 34h2M76 34h1M67 35h1M76 35h1M28 36h1M68 36h2M76 36h1M26 37h2M70 37h1M76 37h1M24 38h2M76 38h1M23 39h1M76 39h1M22 40h1M76 40h1M22 41h1M76 41h1M21 42h1M32 42h1M58 42h2M76 42h1M20 43h1M31 43h1M33 43h1M75 43h1M20 44h1M29 44h2M32 44h1M60 44h1M19 45h1M28 45h1M60 45h1M33 46h1M60 46h1M59 47h1M45 48h1M59 48h1M59 49h1M58 50h1M69 50h1M19 51h1M48 51h1M58 51h1M69 51h1M20 52h1M50 52h1M58 52h1M69 52h1M74 52h1M21 53h1M37 53h1M58 53h2M69 53h2M74 53h1M20 54h1M22 54h1M25 54h1M36 54h1M60 54h2M69 54h2M73 54h2M21 55h1M23 55h1M25 55h2M32 55h6M66 55h1M69 55h2M73 55h2M18 56h1M21 56h1M24 56h2M29 56h10M66 56h5M72 56h3M19 57h1M22 57h1M27 57h12M67 57h7M19 58h2M22 58h2M26 58h13M69 58h5M20 59h2M23 59h1M25 59h13M70 59h4M20 60h18M71 60h2M20 61h17M71 61h2M75 61h1M21 62h16M72 62h1M74 62h2M21 63h19M52 63h1M72 63h3M22 64h18M52 64h2M72 64h3M22 65h17M52 65h3M71 65h3M23 66h16M52 66h5M72 66h1M24 67h14M52 67h7M72 67h1M26 68h12M55 68h6M67 68h1M72 68h1M24 69h3M30 69h7M58 69h9M72 69h1M24 70h8M64 70h1M72 70h1M24 71h10M72 71h1M25 72h8M72 72h1M25 73h8M25 74h8M26 75h7M26 76h7M26 77h6M26 78h6M69 78h1M26 79h6M66 79h1M70 79h1M27 80h4M27 81h4M28 82h2" />
<path stroke="#42473a" d="M31 9h1M32 10h1M32 11h2M23 12h1M33 12h1M24 13h2M33 13h2M26 14h2M33 14h2M44 14h1M28 15h3M34 15h1M44 15h1M31 16h2M34 16h1M33 17h1M35 17h1M43 17h1M48 17h1M54 17h1M35 18h2M39 18h1M48 18h2M53 18h2M37 19h1M41 19h2M47 19h3M52 19h2M59 19h1M48 20h6M59 20h1M51 21h6M58 21h2M54 22h4M57 23h1M50 25h2M49 26h1M49 27h1M42 28h1M48 28h1M42 29h1M47 29h1M55 29h1M69 29h1M35 30h1M41 30h2M47 30h1M54 30h1M69 30h4M35 31h1M41 31h2M53 31h1M70 31h3M35 32h1M41 32h2M46 32h1M70 32h3M41 33h3M70 33h3M57 34h5M71 34h3M55 35h4M71 35h3M30 36h4M53 36h4M72 36h1M33 37h4M52 37h3M72 37h1M35 38h2M51 38h3M36 39h2M51 39h2M36 40h2M43 40h1M50 40h2M37 41h2M43 41h1M49 41h2M38 42h2M43 42h1M48 42h2M39 43h2M43 43h1M46 43h3M40 44h2M43 44h5M43 45h3M42 46h3M42 47h3M42 48h3M42 49h4M41 50h6M41 51h7M40 52h10M39 53h18M37 54h18M38 55h16M39 56h4M44 56h9M18 57h1M40 57h3M44 57h7M40 58h3M44 58h6M19 59h1M39 59h3M43 59h8M39 60h2M43 60h3M47 60h1M49 60h1M38 61h2M42 61h3M46 61h1M48 61h1M50 61h1M19 62h1M41 62h4M47 62h1M19 63h1M41 63h4M20 64h1M41 64h3M21 65h1M40 65h3M21 66h1M40 66h2M22 67h1M39 67h2M23 68h1M67 75h1M67 76h1M32 77h1M67 77h2M67 78h2M73 78h1M67 79h3M26 80h1M31 80h1M66 80h7M26 81h1M31 81h1M65 81h9M26 82h2M30 82h3M65 82h10M25 83h9M65 83h11M25 84h10M68 84h6M24 85h11M24 86h10M25 87h7" />
<path stroke="#6b6574" d="M48 10h1M50 10h1M47 11h1M49 11h2M47 12h1M49 12h1M51 12h1M46 13h4M52 13h1M46 14h4M52 14h1M46 15h2M50 15h1M53 15h1M45 16h3M51 16h2M45 17h2M51 17h2M46 18h1M43 21h5M42 22h9M42 23h12M41 24h16M41 25h9M54 25h2M41 26h8M55 26h2M67 26h1M40 27h2M43 27h6M67 27h2M40 28h2M43 28h5M68 28h1M40 29h1M43 29h4M67 29h2M39 30h2M43 30h4M66 30h3M39 31h2M43 31h4M68 31h2M44 32h2M68 32h2M68 33h2M67 34h4M59 35h5M68 35h3M57 36h10M70 36h2M73 36h1M29 37h4M55 37h15M71 37h1M73 37h1M27 38h8M54 38h21M26 39h10M53 39h22M25 40h11M52 40h23M23 41h14M51 41h24M23 42h9M33 42h5M50 42h8M60 42h15M22 43h9M34 43h5M49 43h9M61 43h14M21 44h8M31 44h1M34 44h6M48 44h10M63 44h12M20 45h8M29 45h4M34 45h8M46 45h12M66 45h7M20 46h13M34 46h8M45 46h12M20 47h14M35 47h7M45 47h12M21 48h12M35 48h6M46 48h11M23 49h7M36 49h5M46 49h11M36 50h5M47 50h10M36 51h4M49 51h9M37 52h3M51 52h7M20 53h1M38 53h1M57 53h1M21 54h1M55 54h2M22 55h1M54 55h4M22 56h2M26 56h1M53 56h5M23 57h2M53 57h8M24 58h1M52 58h12M67 58h2M52 59h18M52 60h19M52 61h19M52 62h20M53 63h19M54 64h18M55 65h16M57 66h14M59 67h12M61 68h6M68 68h2M67 69h2M65 70h4M34 71h1M62 71h8M33 72h2M63 72h7M33 73h1M64 73h7M33 74h1M65 74h6M65 75h2M68 75h4M66 76h1M68 76h4M66 77h1M69 77h3M66 78h1M70 78h3M71 79h2" />
<path stroke="#8d8c8e" d="M50 12h1M50 13h2M50 14h2M51 15h2M53 16h1M67 25h1M66 28h1M74 33h1M62 34h3M74 34h2M64 35h3M74 35h2M67 36h1M74 36h2M28 37h1M74 37h2M26 38h1M75 38h1M24 39h2M75 39h1M23 40h2M75 40h1M75 41h1M22 42h1M75 42h1M21 43h1M58 43h2M58 44h2M58 45h2M57 46h3M57 47h2M57 48h2M57 49h2M57 50h1M57 54h3M58 55h5M58 56h7M61 57h5M64 58h3M71 66h1M71 67h1M70 68h2M69 69h3M69 70h3M70 71h2M70 72h2M71 73h1M71 74h1M72 76h1M72 77h1" />
<path stroke="#9e6225" d="M66 22h1M65 23h1M65 24h1M58 25h1M66 25h1M59 26h1M59 27h1M58 28h1M64 28h1M75 80h1M77 81h1M75 82h1M78 82h1M23 84h1M22 85h1M21 86h1" />
<path stroke="#fffa60" d="M66 23h1M66 24h1M56 25h2M57 26h1M56 27h3M57 28h1M65 28h1M76 81h1M77 82h1" />
<path stroke="#fcfcfc" d="M68 23h1M70 23h1M72 24h1M73 25h1M53 26h1M53 27h2M52 28h3M52 29h2M52 30h1M56 30h4M54 31h8M60 32h4M61 33h4M75 79h1" />
<path stroke="#d5a926" d="M65 25h1M58 26h1M65 26h1M65 29h2M75 81h1M76 82h1M23 85h1M22 86h2" />
</svg>