<svg xmlns="http://www.w3.org/2000/svg" viewBox="0 -0.5 96 96" shape-rendering="crispEdges">
<metadata>Made with Pixels to Svg https://codepen.io/shshaw/pen/XbxvNj</metadata>
<path stroke="#7d542a" d="M44 12h1M43 13h1M45 13h1M42 14h1M45 14h1M41 15h1M46 15h1M40 16h1M46 16h1M39 17h1M47 17h1M33 18h1M37 18h2M48 18h1M34 19h3M49 19h2M59 19h2M51 20h2M57 20h2M60 20h1M53 21h4M60 21h1M64 21h2M60 22h1M63 22h1M65 22h1M60 23h1M62 23h1M65 23h1M60 24h2M64 24h1M59 25h1M63 25h1M59 26h1M62 26h1M58 27h1M61 27h1M58 28h1M61 28h1M16 29h2M58 29h1M61 29h1M16 30h1M18 30h2M58 30h1M61 30h1M17 31h1M20 31h1M58 31h1M61 31h1M65 31h2M18 32h1M20 32h1M58 32h1M61 32h1M64 32h1M66 32h1M19 33h1M21 33h1M57 33h1M61 33h1M64 33h1M66 33h1M19 34h1M22 34h2M56 34h1M60 34h1M64 34h1M66 34h1M19 35h1M24 35h2M56 35h1M59 35h1M63 35h1M66 35h1M20 36h3M25 36h1M56 36h1M59 36h1M61 36h2M64 36h2M23 37h1M25 37h1M56 37h1M58 37h3M63 37h1M23 38h1M25 38h1M56 38h1M61 38h2M23 39h1M26 39h1M56 39h1M24 40h1M56 40h1M24 41h1M56 41h1M25 42h1M51 46h1M35 59h1M35 60h1M35 61h1M50 61h1M35 62h1M40 62h1M50 62h1M35 63h1M37 63h3M42 63h3M47 63h1M49 63h1M35 64h1M49 64h1M52 64h1M33 65h2M39 65h2M53 65h1M32 66h1M40 66h1M38 69h1M40 69h1M35 70h2M38 70h1M37 71h2M40 72h1M46 72h4M41 73h1M49 73h1M39 74h1M45 74h2M39 75h1M39 76h1M39 77h1" />
<path stroke="#d7ad0d" d="M44 13h1M43 14h2M42 15h3M41 16h4M40 17h5M40 18h5M39 19h7M33 20h1M38 20h8M59 20h1M33 21h14M58 21h2M33 22h16M56 22h4M64 22h1M33 23h27M63 23h2M32 24h28M62 24h2M32 25h27M60 25h3M32 26h27M60 26h2M31 27h27M59 27h2M31 28h27M59 28h2M31 29h27M59 29h2M30 30h28M59 30h1M30 31h27M59 31h1M29 32h26M59 32h1M29 33h25M58 33h1M20 34h1M29 34h24M57 34h2M20 35h1M28 35h25M57 35h2M64 35h1M23 36h2M28 36h24M57 36h1M63 36h1M24 37h1M28 37h24M57 37h1M61 37h2M24 38h1M28 38h24M57 38h4M24 39h2M28 39h23M57 39h5M25 40h1M28 40h23M57 40h1M59 40h4M71 40h4M25 41h1M29 41h22M57 41h1M59 41h1M66 41h1M70 41h1M75 41h1M29 42h22M58 42h1M60 42h2M75 42h1M29 43h22M62 43h1M76 43h1M26 44h1M30 44h21M63 44h1M68 44h2M77 44h1M25 45h1M30 45h21M64 45h1M69 45h3M77 45h1M24 46h1M31 46h20M64 46h2M71 46h3M78 46h3M19 47h4M32 47h20M61 47h1M65 47h1M74 47h1M81 47h2M19 48h4M33 48h19M61 48h2M66 48h1M74 48h1M83 48h1M19 49h1M28 49h1M34 49h5M47 49h6M62 49h2M67 49h6M75 49h2M83 49h1M19 50h1M27 50h2M35 50h2M49 50h5M62 50h1M64 50h1M69 50h4M75 50h3M83 50h1M18 51h1M26 51h2M51 51h4M65 51h1M71 51h2M76 51h3M83 51h1M17 52h2M21 52h2M25 52h3M29 52h1M52 52h1M65 52h1M72 52h1M77 52h3M83 52h1M16 53h1M21 53h6M29 53h2M66 53h1M72 53h1M78 53h4M84 53h1M15 54h1M21 54h5M29 54h2M66 54h1M72 54h2M79 54h4M85 54h1M13 55h1M21 55h2M30 55h1M66 55h1M73 55h4M83 55h1M86 55h1M13 56h1M18 56h5M29 56h2M67 56h1M74 56h5M84 56h1M87 56h1M13 57h1M17 57h3M29 57h2M67 57h3M75 57h4M85 57h2M88 57h1M12 58h2M17 58h3M28 58h2M67 58h3M76 58h4M86 58h1M89 58h1M12 59h1M17 59h2M25 59h4M67 59h4M76 59h4M86 59h2M90 59h1M12 60h1M17 60h2M21 60h8M68 60h3M76 60h6M87 60h1M90 60h1M12 61h1M16 61h3M21 61h5M36 61h1M69 61h2M77 61h6M90 61h1M15 62h3M21 62h2M70 62h2M79 62h6M90 62h1M15 63h2M20 63h2M36 63h1M40 63h1M50 63h1M72 63h1M83 63h2M90 63h1M15 64h2M19 64h2M36 64h12M50 64h1M73 64h2M84 64h2M90 64h1M10 65h1M15 65h2M18 65h2M35 65h4M41 65h7M49 65h2M73 65h2M84 65h2M90 65h1M8 66h2M15 66h1M18 66h1M33 66h4M41 66h12M74 66h2M85 66h1M89 66h1M14 67h2M41 67h11M75 67h3M85 67h1M89 67h1M7 68h1M14 68h1M17 68h1M41 68h7M78 68h2M85 68h1M89 68h1M7 69h1M11 69h4M17 69h1M80 69h1M89 69h1M10 70h4M86 70h1M90 70h1M9 71h1M16 71h1M36 71h1M39 71h1M46 71h1M81 71h1M87 71h1M91 71h1M7 72h10M37 72h3M45 72h1M82 72h1M87 72h1M91 72h1M4 73h4M38 73h3M44 73h3M88 73h1M38 74h1M47 74h1M83 74h1M46 75h1M83 75h2M89 75h1M46 76h1M84 76h3M90 76h1M84 77h2M90 77h1" />
<path stroke="#e5ee1a" d="M45 15h1M45 16h1M45 17h2M39 18h1M45 18h3M33 19h1M37 19h2M46 19h3M34 20h4M46 20h5M47 21h6M57 21h1M49 22h7M17 30h1M60 30h1M18 31h2M60 31h1M19 32h1M60 32h1M65 32h1M20 33h1M59 33h2M65 33h1M21 34h1M59 34h1M65 34h1M21 35h3M65 35h1M58 36h1M60 41h1M64 41h2M62 42h1M66 42h2M59 43h1M63 43h1M68 43h1M75 43h1M60 44h1M64 44h1M70 44h1M76 44h1M26 45h1M60 45h1M65 45h1M72 45h2M76 45h1M25 46h2M61 46h1M74 46h1M77 46h1M23 47h3M62 47h1M66 47h1M78 47h3M23 48h1M63 48h1M67 48h6M75 48h2M80 48h3M20 49h4M64 49h1M73 49h1M77 49h1M82 49h1M20 50h1M65 50h1M73 50h1M78 50h1M82 50h1M19 51h1M28 51h1M73 51h1M79 51h1M19 52h1M66 52h1M73 52h1M80 52h2M17 53h2M27 53h1M67 53h1M73 53h2M82 53h1M16 54h1M26 54h1M67 54h1M74 54h3M83 54h1M14 55h1M23 55h1M31 55h1M67 55h2M77 55h2M84 55h1M31 56h1M68 56h2M79 56h1M85 56h1M20 57h3M70 57h1M79 57h1M30 58h1M70 58h2M80 58h1M87 58h1M19 59h1M29 59h1M71 59h1M80 59h2M88 59h1M19 60h1M29 60h1M71 60h1M82 60h1M88 60h1M26 61h3M71 61h2M83 61h3M88 61h1M18 62h1M36 62h1M72 62h1M85 62h1M88 62h1M17 63h1M73 63h2M85 63h2M88 63h1M75 64h1M86 64h1M88 64h1M52 65h1M75 65h1M86 65h1M88 65h1M53 66h1M76 66h1M86 66h1M88 66h1M78 67h3M86 67h1M88 67h1M80 68h2M86 68h1M88 68h1M81 69h1M86 69h1M81 70h1M87 70h1M89 70h1M82 71h1M90 71h1M83 72h1M88 72h1M90 72h1M47 73h2M83 73h1M91 73h1M89 74h1M91 74h1M85 75h2M90 75h1M92 75h1M87 76h2M92 76h1M92 77h1M91 78h1M91 79h1" />
<path stroke="#101010" d="M32 18h1M32 19h1M32 20h1M32 21h1M32 22h1M32 23h1M31 24h1M31 25h1M31 26h1M30 27h1M30 28h1M30 29h1M29 30h1M29 31h1M28 32h1M28 33h1M28 34h1M27 35h1M27 36h1M27 37h1M27 38h1M27 39h1M51 39h1M27 40h1M51 40h1M28 41h1M51 41h1M28 42h1M51 42h1M28 43h1M51 43h1M29 44h1M51 44h1M27 45h1M29 45h1M51 45h1M27 46h1M30 46h1M31 47h1M28 48h1M32 48h1M52 48h1M29 49h1M33 49h1M53 49h1M30 50h1M34 50h1M54 50h1M31 51h2M35 51h1M55 51h2M61 51h1M33 52h4M53 52h2M57 52h4M36 53h1M40 53h4M52 53h1M37 54h2M46 54h1M52 54h1M38 55h6M48 55h1M51 55h1M38 56h1M45 56h2M49 56h2M39 57h1M47 57h2M40 58h4M48 58h1M39 59h1M47 59h1M39 60h1M48 60h1M40 61h4M48 61h1M47 62h1M48 63h1M37 66h3M54 66h1M33 67h4M40 67h1M52 67h2M37 68h1M40 68h1M48 68h4M41 69h7M49 69h1M40 70h1M45 70h1M48 70h1M35 71h1M40 71h1M44 71h1M47 71h1M36 72h1M44 72h1M37 73h1M43 73h1M37 74h1M40 74h2M43 74h2M48 74h2M38 75h1M45 75h1M47 75h1M38 76h1M45 76h1M47 76h1M45 77h2M45 78h1" />
<path stroke="#6e6e6e" d="M57 31h1M55 32h2M62 32h1M54 33h1M63 33h1M53 34h1M53 35h1M52 36h1M52 37h1M64 37h1M52 38h1M65 38h1M65 39h1M26 40h1M55 40h1M26 41h1M55 41h1M26 42h1M55 42h1M26 43h1M53 43h1M55 43h2M27 44h1M53 44h1M56 44h2M53 45h1M57 45h1M54 46h1M28 47h1M52 47h1M54 47h1M55 48h1M39 49h8M56 49h1M37 50h1M48 50h1M36 51h1M50 51h1M51 52h1M39 53h1M44 53h1M39 54h7M44 55h4M47 56h2M40 57h1M44 58h1M41 59h6M44 61h1M41 62h1M45 62h2" />
<path stroke="#a8a3cd" d="M57 32h1M55 33h2M54 34h1M54 35h1M60 35h2M53 36h1M55 36h1M60 36h1M53 37h1M55 37h1M53 38h1M55 38h1M63 38h1M52 39h4M63 39h1M52 40h3M27 41h1M52 41h3M27 42h1M52 42h3M27 43h1M52 43h1M54 43h1M28 44h1M52 44h1M54 44h2M28 45h1M52 45h1M54 45h3M28 46h2M52 46h2M55 46h4M29 47h2M53 47h1M55 47h5M29 48h3M53 48h2M56 48h4M30 49h3M54 49h2M57 49h4M31 50h3M38 50h10M55 50h6M33 51h2M37 51h13M57 51h4M37 52h14M37 53h2M45 53h7M47 54h3M39 56h6M41 57h6M45 58h2M40 59h1M40 60h7M45 61h1M42 62h3" />
<path stroke="#dfdfdf" d="M62 33h1M55 34h1M61 34h1M63 34h1M55 35h1M62 35h1M54 36h1M54 37h1M54 38h1M64 38h1M64 39h1M50 54h2M49 55h2M47 58h1M47 60h1M46 61h2" />
<path stroke="#fefefe" d="M62 34h1" />
<path stroke="#bc8b2f" d="M62 39h1M58 40h1M63 40h3M67 41h3M56 42h2M57 43h1M58 44h1M58 45h1M18 46h6M59 46h1M18 47h1M60 47h1M18 48h1M60 48h1M18 49h1M61 49h1M18 50h1M61 50h1M17 51h1M30 51h1M62 51h1M16 52h1M30 52h1M63 52h1M15 53h1M31 53h1M63 53h1M13 54h2M31 54h1M64 54h1M12 55h1M32 55h1M64 55h1M12 56h1M32 56h1M64 56h1M12 57h1M31 57h1M65 57h1M11 58h1M31 58h1M65 58h1M11 59h1M30 59h1M65 59h1M11 60h1M30 60h1M36 60h1M51 60h1M66 60h1M11 61h1M29 61h1M51 61h1M66 61h1M11 62h1M23 62h7M37 62h1M51 62h1M66 62h4M11 63h1M22 63h1M41 63h1M45 63h2M51 63h1M70 63h2M10 64h1M21 64h1M48 64h1M51 64h1M71 64h1M8 65h2M20 65h1M48 65h1M51 65h1M72 65h1M7 66h1M19 66h1M72 66h1M7 67h1M18 67h1M37 67h3M72 67h2M6 68h1M18 68h1M38 68h2M74 68h2M6 69h1M18 69h1M39 69h1M48 69h1M76 69h2M6 70h1M17 70h1M39 70h1M46 70h2M78 70h2M5 71h1M17 71h1M45 71h1M80 71h1M1 72h4M17 72h1M80 72h1M2 73h2M11 73h6M81 73h1M92 73h1M4 74h2M9 74h2M82 74h1M92 74h1M6 75h3M82 75h1M93 75h1M83 76h1M93 76h1M83 77h1M86 77h4M93 77h1M83 78h3M90 78h1M92 78h1M90 79h1M92 79h1M91 80h2M91 81h2M92 82h1" />
<path stroke="#fefac7" d="M58 41h1M61 41h3M71 41h4M59 42h1M63 42h3M68 42h7M58 43h1M60 43h2M64 43h4M69 43h6M59 44h1M61 44h2M65 44h3M71 44h5M59 45h1M61 45h3M66 45h3M74 45h2M60 46h1M62 46h2M66 46h5M75 46h2M26 47h2M63 47h2M67 47h7M75 47h3M24 48h4M64 48h2M73 48h1M77 48h3M24 49h4M65 49h2M74 49h1M78 49h4M21 50h6M29 50h1M63 50h1M66 50h3M74 50h1M79 50h3M20 51h6M29 51h1M63 51h2M66 51h5M74 51h2M80 51h3M20 52h1M23 52h2M28 52h1M64 52h1M67 52h5M74 52h3M82 52h1M19 53h2M28 53h1M64 53h2M68 53h4M75 53h3M83 53h1M17 54h4M27 54h2M65 54h1M68 54h4M77 54h2M84 54h1M15 55h6M24 55h6M65 55h1M69 55h4M79 55h4M85 55h1M14 56h4M23 56h6M65 56h2M70 56h4M80 56h4M86 56h1M14 57h3M23 57h6M66 57h1M71 57h4M80 57h5M87 57h1M14 58h3M20 58h8M66 58h1M72 58h4M81 58h5M88 58h1M13 59h4M20 59h5M66 59h1M72 59h4M82 59h4M89 59h1M13 60h4M20 60h1M67 60h1M72 60h4M83 60h4M89 60h1M13 61h3M19 61h2M67 61h2M73 61h4M86 61h2M89 61h1M12 62h3M19 62h2M73 62h6M86 62h2M89 62h1M12 63h3M18 63h2M75 63h8M87 63h1M89 63h1M11 64h4M17 64h2M72 64h1M76 64h8M87 64h1M89 64h1M11 65h4M17 65h1M76 65h8M87 65h1M89 65h1M10 66h5M16 66h2M73 66h1M77 66h8M87 66h1M8 67h6M16 67h2M74 67h1M81 67h4M87 67h1M8 68h6M15 68h2M76 68h2M82 68h3M87 68h1M8 69h3M15 69h2M78 69h2M82 69h4M87 69h2M7 70h3M14 70h3M80 70h1M82 70h4M88 70h1M6 71h3M10 71h6M83 71h4M88 71h2M5 72h2M81 72h1M84 72h3M89 72h1M8 73h3M82 73h1M84 73h4M89 73h2M6 74h3M84 74h5M90 74h1M87 75h2M91 75h1M89 76h1M91 76h1M91 77h1" />
</svg>