<svg xmlns="http://www.w3.org/2000/svg" viewBox="0 -0.5 80 80" shape-rendering="crispEdges">
<metadata>Made with Pixels to Svg https://codepen.io/shshaw/pen/XbxvNj</metadata>
<path stroke="#84a552" d="M51 10h5M34 11h3M48 11h3M56 11h1M32 12h2M37 12h1M47 12h1M57 12h1M31 13h1M38 13h1M46 13h1M58 13h1M30 14h1M38 14h1M45 14h1M47 14h1M52 14h2M58 14h1M38 15h1M44 15h1M46 15h3M51 15h1M54 15h1M59 15h1M29 16h1M37 16h1M43 16h2M46 16h2M54 16h1M59 16h1M29 17h1M37 17h1M43 17h1M53 17h1M59 17h1M28 18h1M32 18h1M37 18h1M42 18h1M59 18h1M28 19h1M32 19h1M36 19h1M42 19h1M47 19h1M58 19h1M28 20h1M31 20h1M36 20h1M42 20h1M47 20h1M58 20h1M22 21h6M31 21h1M37 21h1M47 21h1M57 21h1M21 22h1M28 22h4M34 22h1M37 22h1M41 22h1M57 22h1M21 23h1M31 23h2M34 23h1M37 23h1M41 23h1M46 23h1M56 23h1M21 24h1M26 24h1M33 24h2M38 24h1M41 24h1M46 24h1M55 24h1M21 25h1M26 25h1M30 25h1M35 25h1M39 25h1M41 25h1M46 25h1M55 25h1M22 26h1M26 26h1M30 26h1M36 26h1M39 26h1M41 26h1M46 26h1M49 26h1M54 26h1M22 27h1M31 27h1M34 27h1M37 27h1M40 27h2M49 27h1M54 27h1M22 28h1M27 28h1M31 28h1M34 28h1M38 28h1M40 28h1M45 28h1M48 28h1M54 28h1M23 29h1M27 29h1M31 29h1M38 29h1M40 29h1M45 29h1M48 29h1M55 29h1M23 30h1M27 30h1M45 30h1M48 30h1M55 30h1M45 31h1M47 31h1M56 31h1M24 32h1M47 32h1M49 32h2M57 32h1M24 33h3M47 33h1M53 33h1M57 33h1M46 34h1M52 34h1M54 34h1M58 34h1M46 35h1M53 35h1M58 35h1M46 36h1M58 36h1M57 37h1M53 38h1M56 38h1M51 39h1M55 39h1M51 40h2M55 40h1M15 41h1M55 41h1M14 42h5M56 42h1M14 43h1M19 43h5M57 43h2M14 44h1M51 44h1M54 44h1M59 44h1M48 45h1M52 45h1M55 45h1M57 45h1M60 45h1M49 46h1M53 46h1M58 46h1M60 46h1M50 47h1M54 47h1M60 47h1M51 48h3M55 48h1M58 48h2M54 49h4M46 50h2M45 51h1M48 51h4M54 51h3M6 52h2M51 52h3M57 52h3M5 53h1M8 53h2M44 53h1M46 53h3M60 53h1M5 54h1M10 54h1M13 54h2M49 54h3M60 54h1M5 55h1M11 55h2M46 55h1M52 55h2M60 55h1M6 56h1M44 56h1M47 56h1M55 56h1M60 56h1M6 57h1M9 57h2M45 57h1M48 57h1M52 57h1M59 57h1M7 58h1M9 58h2M14 58h1M45 58h2M48 58h1M54 58h2M59 58h1M7 59h1M12 59h2M46 59h1M49 59h1M51 59h1M54 59h2M58 59h2M7 60h1M10 60h2M18 60h1M46 60h1M49 60h1M57 60h1M7 61h3M14 61h2M17 61h1M47 61h1M51 61h2M55 61h3M6 62h1M16 62h1M47 62h1M50 62h2M54 62h2M6 63h1M8 63h1M10 63h1M15 63h1M47 63h2M53 63h1M6 64h1M14 64h1M48 64h1M53 64h1M5 65h1M12 65h2M48 65h1M53 65h1M5 66h1M10 66h2M48 66h2M52 66h2M5 67h5M49 67h3" />
<path stroke="#f7fff7" d="M51 11h5M48 12h9M47 13h11M46 14h1M48 14h4M54 14h4M45 15h1M49 15h2M55 15h3M45 16h1M48 16h3M55 16h3M44 17h7M54 17h3M43 18h13M43 19h4M48 19h7M43 20h4M48 20h6M42 21h5M48 21h5M22 22h6M42 22h4M47 22h6M22 23h9M42 23h4M47 23h5M22 24h4M27 24h6M42 24h4M47 24h5M22 25h4M27 25h3M31 25h3M42 25h4M47 25h4M23 26h3M27 26h3M31 26h3M42 26h3M47 26h2M23 27h4M28 27h3M32 27h2M42 27h3M46 27h3M23 28h4M28 28h3M32 28h2M41 28h4M46 28h2M24 29h3M28 29h3M41 29h4M46 29h2M53 29h2M24 30h3M28 30h1M40 30h5M46 30h2M51 30h4M24 31h3M42 31h3M46 31h1M51 31h5M25 32h1M43 32h4M51 32h6M44 33h3M49 33h3M54 33h3M45 34h1M49 34h3M55 34h3M45 35h1M48 35h5M55 35h3M48 36h9M48 37h7M48 38h4M47 39h2M47 40h1M15 43h4M16 44h4M32 44h2M30 45h1M34 45h1M13 46h1M16 46h1M30 46h1M32 46h2M35 46h1M13 47h1M16 47h1M29 47h1M32 47h1M16 48h1M29 48h1M15 49h1M29 49h1M15 50h1M30 50h1M14 51h1M30 51h2M34 51h1M32 52h2M45 52h5M54 52h3M45 53h1M54 53h6M45 54h1M48 54h1M55 54h5M45 55h1M47 55h5M57 55h3M20 56h1M23 56h1M45 56h2M48 56h7M59 56h1M46 57h2M49 57h2M53 57h4M47 58h1M50 58h1M53 58h1M56 58h1M14 59h2M47 59h2M52 59h2M56 59h2M12 60h2M47 60h2M52 60h5M10 61h4M48 61h2M53 61h2M8 62h4M48 62h2M53 62h1M49 63h1M49 64h2M49 65h3M50 66h2" />
<path stroke="#ceef9c" d="M34 12h3M32 13h6M31 14h7M30 15h8M58 15h1M30 16h7M58 16h1M30 17h7M57 17h2M29 18h3M33 18h4M56 18h3M29 19h3M33 19h3M55 19h3M29 20h2M32 20h4M54 20h4M28 21h3M32 21h5M53 21h4M32 22h2M35 22h2M46 22h1M53 22h4M33 23h1M35 23h2M52 23h4M35 24h3M52 24h3M34 25h1M36 25h3M51 25h4M34 26h2M37 26h2M45 26h1M50 26h4M27 27h1M35 27h2M38 27h2M45 27h1M50 27h4M35 28h3M39 28h1M49 28h5M36 29h2M39 29h1M49 29h4M49 30h2M48 31h1M48 32h1M48 33h1M47 34h2M47 35h1M47 36h1M57 36h1M46 37h2M55 37h2M47 38h1M52 38h1M55 38h1M49 39h2M48 40h3M53 40h2M48 41h7M48 42h8M48 43h9M31 44h1M34 44h1M48 44h3M52 44h2M55 44h4M31 45h1M35 45h1M49 45h3M53 45h2M58 45h2M29 46h1M50 46h3M54 46h2M59 46h1M33 47h1M36 47h1M51 47h3M55 47h5M36 48h1M54 48h1M56 48h2M36 49h1M35 50h1M35 51h1M46 51h2M31 52h1M34 52h1M50 52h1M6 53h2M49 53h5M6 54h4M44 54h1M46 54h2M52 54h3M6 55h5M13 55h2M44 55h1M54 55h3M7 56h9M56 56h3M7 57h2M11 57h5M57 57h2M8 58h1M11 58h3M15 58h2M27 58h1M49 58h1M57 58h2M8 59h4M16 59h2M26 59h4M50 59h1M8 60h2M14 60h4M20 60h11M50 60h2M16 61h1M22 61h10M50 61h1M7 62h1M12 62h4M25 62h7M52 62h1M7 63h1M11 63h4M50 63h3M7 64h1M10 64h4M51 64h2M6 65h6M52 65h1M6 66h4" />
<path stroke="#52525a" d="M52 15h2M51 16h3M51 17h2M32 30h3M38 30h1M22 31h2M29 31h7M41 31h1M49 31h2M20 32h4M26 32h1M28 32h8M19 33h3M30 33h7M52 33h1M18 34h2M32 34h5M53 34h1M17 35h2M34 35h3M54 35h1M17 36h1M16 37h2M16 38h1M46 38h1M54 38h1M52 39h3M47 41h1M13 45h3M32 45h2M56 45h1M15 46h1M31 46h1M34 46h1M56 46h2M15 47h1M30 47h1M35 47h1M13 48h1M15 48h1M13 49h2M30 49h1M35 49h1M14 50h1M31 50h1M34 50h1M32 51h2M14 52h1M14 53h1M15 54h1M15 55h1M16 56h1M21 56h1M16 57h1M51 57h1M17 58h1M51 58h2M18 59h1M19 60h1M20 61h2M22 62h3M9 63h1M8 64h2" />
<path stroke="#101010" d="M32 29h4M29 30h3M35 30h3M39 30h1M27 31h2M36 31h5M27 32h1M36 32h7M37 33h7M37 34h6M44 34h1M37 35h6M44 35h1M35 36h9M45 36h1M36 37h8M45 37h1M37 38h4M42 38h2M15 39h1M38 39h3M43 39h1M46 39h1M15 40h1M38 40h4M43 40h1M46 40h1M39 41h3M39 42h3M47 42h1M40 43h3M47 43h1M15 44h1M24 44h1M40 44h3M47 44h1M16 45h1M25 45h1M40 45h3M47 45h1M14 46h1M17 46h1M25 46h1M40 46h4M47 46h1M14 47h1M18 47h1M25 47h1M31 47h1M34 47h1M41 47h3M47 47h1M14 48h1M19 48h1M25 48h1M30 48h6M41 48h3M47 48h1M20 49h1M24 49h1M31 49h4M39 49h1M41 49h3M47 49h1M21 50h3M32 50h2M39 50h1M41 50h3M38 51h2M41 51h2M38 52h2M41 52h2M37 53h2M42 53h1M36 54h2M40 54h1M42 54h1M39 55h2M37 56h3M43 56h1M42 57h1M41 58h1M40 59h1M38 60h2M36 61h2M33 62h3M25 63h8" />
<path stroke="#e68c31" d="M22 33h1M20 34h1M18 36h1M17 38h1M36 38h1M16 39h1M37 39h1M16 40h1M37 40h1M37 41h2M37 42h2M31 43h1M36 43h4M30 44h1M36 44h4M37 45h3M28 46h1M37 46h3M26 47h3M38 47h3M18 48h1M26 48h2M38 48h3M17 49h3M25 49h3M38 49h1M40 49h1M17 50h4M24 50h5M37 50h1M16 51h13M37 51h1M16 52h14M36 52h2M15 53h4M21 53h1M25 53h6M35 53h2M16 54h2M26 54h10M16 55h2M27 55h9M28 56h7M28 57h4M28 58h1M30 59h1M31 60h1M32 61h1M32 62h1" />
<path stroke="#ffb55a" d="M23 33h1M27 33h3M21 34h11M19 35h15M19 36h16M18 37h18M18 38h18M17 39h20M17 40h20M16 41h21M19 42h18M24 43h7M35 43h1M25 44h5M26 45h4M26 46h2" />
<path stroke="#bd6b19" d="M43 34h1M43 35h1M44 36h1M44 37h1M41 38h1M44 38h2M41 39h2M44 39h2M42 40h1M44 40h2M42 41h5M42 42h5M32 43h1M43 43h4M35 44h1M43 44h4M36 45h1M43 45h4M36 46h1M44 46h3M44 47h3M44 48h3M44 49h3M40 50h1M44 50h2M40 51h1M43 51h2M40 52h1M43 52h2M19 53h2M22 53h3M40 53h2M43 53h1M18 54h1M21 54h1M25 54h1M39 54h1M41 54h1M43 54h1M18 55h1M26 55h1M36 55h2M41 55h3M17 56h1M35 56h2M40 56h3M17 57h1M32 57h10M29 58h12M21 59h2M24 59h2M31 59h9M32 60h6M33 61h3" />
<path stroke="#844a00" d="M33 43h2M17 47h1M37 47h1M17 48h1M28 48h1M37 48h1M16 49h1M28 49h1M37 49h1M16 50h1M29 50h1M36 50h1M38 50h1M15 51h1M29 51h1M36 51h1M15 52h1M30 52h1M35 52h1M31 53h4M39 53h1M38 54h1M38 55h1M27 56h1M27 57h1M26 58h1" />
<path stroke="#ffe684" d="M20 44h4M17 45h8M18 46h7M19 47h6M20 48h5M21 49h3" />
<path stroke="#ffc5ce" d="M19 54h2M22 54h3M19 55h7M18 56h1M26 56h1M19 57h1M21 57h2M24 57h2M19 58h6M20 59h1" />
<path stroke="#a53a42" d="M19 56h1M22 56h1M24 56h1M20 57h1M23 57h1" />
<path stroke="#f77b5a" d="M25 56h1M18 57h1M26 57h1M18 58h1M25 58h1M19 59h1M23 59h1" />
</svg>