<svg xmlns="http://www.w3.org/2000/svg" viewBox="0 -0.5 80 80" shape-rendering="crispEdges">
<metadata>Made with Pixels to Svg https://codepen.io/shshaw/pen/XbxvNj</metadata>
<path stroke="#101010" d="M33 19h2M32 20h3M32 21h3M31 22h1M33 22h1M25 23h1M31 23h1M33 23h1M24 24h2M31 24h4M24 25h2M31 25h4M23 26h1M31 26h2M34 26h1M37 26h1M22 27h2M25 27h1M38 27h1M22 28h5M39 28h1M23 29h4M37 29h2M40 29h2M24 30h2M37 30h2M40 30h1M42 30h1M34 31h3M38 31h1M40 31h1M42 31h1M35 32h3M43 32h1M25 33h1M43 33h1M25 34h1M36 34h3M43 34h1M45 34h1M52 34h1M24 35h2M43 35h1M45 35h1M52 35h1M22 36h1M31 36h5M43 36h1M45 36h1M48 36h1M51 36h2M22 37h1M29 37h2M36 37h3M42 37h1M46 37h5M53 37h1M20 38h3M28 38h1M40 38h3M46 38h1M49 38h1M53 38h1M23 39h1M41 39h1M45 39h1M48 39h1M52 39h1M57 39h1M24 40h1M27 40h1M40 40h1M45 40h1M47 40h2M58 40h1M24 41h1M40 41h1M44 41h1M47 41h1M51 41h1M54 41h1M58 41h1M25 42h1M39 42h1M44 42h1M46 42h2M51 42h3M58 42h1M24 43h1M26 43h2M29 43h1M37 43h2M45 43h2M51 43h1M58 43h1M18 44h1M22 44h2M25 44h1M30 44h7M50 44h1M52 44h1M57 44h1M19 45h5M27 45h1M49 45h1M53 45h4M24 46h2M29 46h1M48 46h1M51 46h2M55 46h1M26 47h4M47 47h1M50 47h1M55 47h1M28 48h1M48 48h2M54 48h3M23 49h3M28 49h1M53 49h1M26 50h1M52 50h1M59 50h1M27 51h1M30 51h1M49 51h1M59 51h1M27 52h2M31 52h1M50 52h3M59 52h1M27 53h1M30 53h2M52 53h1M59 53h1M21 54h1M27 54h4M51 54h1M53 54h1M55 54h1M58 54h1M22 55h1M26 55h1M35 55h1M49 55h2M54 55h4M23 56h3M35 56h1M47 56h2M34 57h1M37 57h1M40 57h6M35 58h2M36 59h1M30 60h1M36 60h1M30 61h1M36 61h1M31 62h1M35 62h1M32 63h3" />
<path stroke="#5a5252" d="M32 22h1M32 23h1M23 25h1M24 26h1M33 26h1M35 26h2M24 27h1M34 27h1M33 28h1M36 28h2M34 30h1M47 30h4M24 31h2M37 31h1M46 31h1M51 31h1M23 32h1M26 32h1M33 32h1M39 32h2M45 32h1M52 32h1M23 33h1M27 33h1M34 33h1M38 33h2M45 33h3M52 33h1M22 34h1M24 34h1M27 34h1M35 34h1M48 34h1M22 35h1M27 35h1M48 35h1M24 36h1M27 36h1M46 36h1M26 37h1M19 38h1M24 38h2M54 38h3M18 39h1M54 39h1M17 40h1M22 40h1M51 40h1M54 40h1M17 41h1M21 41h1M17 42h1M21 42h1M24 42h1M17 43h1M23 43h1M57 48h1M58 49h1M22 50h2M21 51h1M23 51h1M26 51h1M52 51h1M21 52h1M24 52h2M53 52h1M21 53h1M55 53h1M32 57h2M31 58h1M34 58h1M30 59h2M34 59h1M32 60h2" />
<path stroke="#d67b29" d="M30 27h4M28 28h2M27 29h1M32 29h1M26 30h1M32 30h1M41 30h1M26 31h1M32 31h1M41 31h1M41 32h2M40 33h3M39 34h4M37 35h6M44 35h1M30 36h1M36 36h7M44 36h1M40 37h2M43 37h3M34 38h1M43 38h3M50 38h1M52 38h1M27 39h1M32 39h1M49 39h3M26 40h1M31 40h1M49 40h2M26 41h1M49 41h2M26 42h3M50 42h1M53 46h2M53 47h2M29 48h1M29 49h1" />
<path stroke="#ffffff" d="M35 27h3M34 28h1M33 29h1M35 29h2M33 30h1M33 31h1M48 31h2M25 32h1M34 32h1M47 32h4M24 33h1M48 33h3M23 34h1M46 34h2M49 34h1M23 35h1M47 35h1M23 36h1M19 39h4M55 39h2M18 40h4M52 40h2M55 40h2M18 41h3M22 41h2M52 41h1M55 41h1M19 42h2M22 42h2M54 42h1M55 49h2M24 50h2M54 50h3M22 51h1M24 51h2M53 51h4M22 52h1M55 52h1M22 53h3M53 53h2M32 58h2M32 59h2M31 60h1" />
<path stroke="#ad5200" d="M39 27h1M40 28h1M44 32h1M31 37h5M39 37h1M52 37h1M29 38h5M38 38h1M28 39h4M44 39h1M23 40h1M29 40h2M27 41h1M29 41h2M31 42h4M28 43h1M28 44h2M28 45h3M52 47h1M53 48h1M29 50h2M29 51h1M32 53h1M51 53h1M32 54h2M50 54h1M33 55h2M36 55h1M48 55h1M37 56h2M46 56h1M39 57h1" />
<path stroke="#ffe63a" d="M30 28h3M28 29h4M27 30h5M27 31h4M27 32h3M35 38h3M33 39h5M32 40h5M31 41h4" />
<path stroke="#ada5a5" d="M35 28h1M34 29h1M51 33h1M50 34h2M49 35h3M25 36h1M47 36h1M49 36h2M23 37h1M57 40h1M53 41h1M57 41h1M56 42h2M18 43h5M54 43h4M19 44h3M53 44h4M57 49h1M58 50h1M58 51h1M23 52h1M26 52h1M54 52h1M57 52h2M25 53h2M56 53h3M24 54h3M54 54h1M56 54h2M23 55h3M35 59h1M34 60h2M34 61h2M32 62h3" />
<path stroke="#d6cece" d="M38 28h1M39 29h1M35 30h2M39 30h1M39 31h1M47 31h1M50 31h1M24 32h1M38 32h1M46 32h1M51 32h1M26 33h1M35 33h3M26 34h1M26 35h1M46 35h1M26 36h1M24 37h2M53 39h1M56 41h1M18 42h1M55 42h1M52 43h2M54 49h1M53 50h1M57 50h1M57 51h1M56 52h1M22 54h2M31 61h3" />
<path stroke="#ffad00" d="M31 31h1M30 32h3M28 33h6M44 33h1M28 34h7M44 34h1M28 35h9M28 36h2M27 37h2M51 37h1M23 38h1M26 38h2M51 38h1M24 39h3M25 40h1M25 41h1" />
<path stroke="#9c8400" d="M39 38h1M38 39h1M42 39h2M28 40h1M37 40h1M28 41h1M35 41h2M48 41h1M30 42h1M49 42h1M50 43h1M35 45h1M35 46h1M47 46h1M35 47h1M36 48h1M47 48h1M36 49h1M37 50h1M37 51h1M38 52h1M39 53h1M34 54h1M40 54h1M37 55h1M41 55h2M43 56h3" />
<path stroke="#4a3173" d="M47 38h2M46 39h2M24 44h1M51 44h1M24 45h2M50 45h3M49 50h3M50 51h2M28 53h1" />
<path stroke="#c5bd6b" d="M39 39h2M39 40h1M41 40h4M38 41h2M41 41h3M29 42h1M37 42h2M40 42h4M48 42h1M35 43h2M39 43h6M47 43h3M43 44h7M32 45h3M45 45h4M46 46h1M46 47h1M51 47h1M50 48h3M47 49h6M47 50h2M46 51h3M32 52h1M45 52h5M33 53h2M44 53h7M35 54h5M41 54h9M38 55h3M43 55h5M39 56h4" />
<path stroke="#f7f794" d="M38 40h1M37 41h1M35 42h2M30 43h5M37 44h6M36 45h9M30 46h2M36 46h10M30 47h1M32 47h1M36 47h10M30 48h2M33 48h1M37 48h10M30 49h6M37 49h10M31 50h6M38 50h9M31 51h6M38 51h8M33 52h5M39 52h6M35 53h4M40 53h4" />
<path stroke="#6b63b5" d="M46 40h1M45 41h2M45 42h1M26 45h1M26 46h3M49 46h2M48 47h2M29 52h2M29 53h1M36 56h1M35 57h2" />
<path stroke="#f7ffad" d="M31 45h1M32 46h3M31 47h1M33 47h2M32 48h1M34 48h2" />
</svg>