<svg xmlns="http://www.w3.org/2000/svg" viewBox="0 -0.5 80 80" shape-rendering="crispEdges">
<metadata>Made with Pixels to Svg https://codepen.io/shshaw/pen/XbxvNj</metadata>
<path stroke="#844a21" d="M46 11h3M35 12h1M44 12h1M48 12h1M34 13h1M42 13h1M48 13h1M34 14h1M41 14h1M47 14h1M33 15h1M40 15h1M33 16h1M39 16h1M38 17h1M39 19h1M46 19h1M34 20h1M38 20h1M36 28h1M36 29h1M36 30h1M36 31h1M32 32h2M29 33h3M37 39h1M34 40h1M36 40h1M35 41h1M32 46h1M47 46h2M27 47h3M33 47h2M41 47h2M45 47h5M28 48h5M34 48h2M40 48h1M45 48h5M30 49h10M46 49h1M48 49h3M31 50h9M47 50h1M49 50h2M32 51h6M39 51h1M46 51h1M48 51h3M32 52h6M39 52h1M46 52h5M32 53h4M37 53h2M40 53h1M45 53h6M31 54h6M40 54h10M30 55h6M41 55h9M30 56h4M43 56h5" />
<path stroke="#d65208" d="M45 12h1M43 13h1M45 17h1M43 18h2M41 19h3M47 19h5M41 20h10M42 21h8M43 22h5M42 23h3M37 40h1M34 41h1M36 41h2M35 42h2M35 43h2M33 44h1M35 44h2M34 45h5M28 46h4M35 46h3M30 47h3M35 47h3M33 48h1M36 48h2M41 48h3M40 49h6M47 49h1M40 50h7M48 50h1M40 51h6M47 51h1M40 52h6M41 53h4" />
<path stroke="#ff7b29" d="M46 12h2M35 13h1M44 13h4M35 14h2M42 14h5M34 15h3M41 15h6M34 16h4M40 16h6M34 17h4M39 17h6M34 18h9M34 19h5M40 19h1M35 20h1M37 20h1M28 32h4" />
<path stroke="#523121" d="M36 13h1M37 14h1M37 15h1M47 15h1M38 16h1M46 16h1M33 17h1M33 18h1M47 18h5M33 19h1M44 19h2M40 20h1M34 21h1M48 22h1M45 23h1M28 33h1M32 33h1M29 34h3M33 43h1M39 43h1M34 44h1M38 44h1M28 45h4M27 46h1M33 46h1M41 46h1M45 46h1M40 47h1M39 48h1M44 48h1M29 49h1M30 50h1M31 51h1M38 51h1M38 52h1M36 53h1M39 53h1M34 56h1" />
<path stroke="#101010" d="M46 17h1M45 18h1M52 19h1M51 20h1M40 21h1M50 21h1M49 22h1M46 23h2M41 24h4M15 26h1M41 26h1M14 27h1M16 27h1M18 27h1M41 27h1M9 28h2M14 28h1M19 28h1M41 28h1M7 29h1M41 29h1M70 29h4M5 30h2M10 30h2M35 30h1M41 30h1M66 30h4M4 31h1M35 31h1M65 31h1M5 32h2M10 32h1M58 32h1M61 32h1M64 32h1M8 33h3M42 33h1M56 33h2M60 33h1M64 33h1M14 34h2M52 34h3M11 35h2M17 35h6M48 35h3M24 36h5M44 36h3M30 37h2M43 37h1M43 38h1M48 44h1M19 45h2M22 45h1M26 45h1M45 45h1M47 45h2M21 46h1M23 46h1M26 46h1M42 46h1M46 46h1M23 47h1M43 47h1M17 48h2M24 48h1M27 48h1M19 49h2M24 49h1M27 49h2M51 49h1M21 50h1M24 50h1M27 50h1M51 50h1M22 51h1M51 51h1M51 52h1M17 53h3M28 53h1M51 53h1M15 54h1M20 54h2M28 54h1M30 54h1M37 54h3M50 54h1M22 55h2M29 55h1M36 55h1M40 55h1M50 55h1M24 56h1M29 56h1M35 56h1M41 56h1M49 56h1M51 56h2M25 57h1M30 57h4M43 57h4M50 57h1M26 58h1M30 58h1M46 58h1M53 58h1M26 59h1M30 59h1M47 59h1M25 60h1M29 60h1M46 60h1M52 60h1M26 61h3M45 61h1M52 61h1M46 63h1M53 63h1M45 64h1M49 64h1M53 64h1M44 65h1M50 65h1M53 65h1M40 66h1M43 66h1M48 66h1M50 66h1M52 66h1M41 67h1M47 67h1M51 67h1M45 68h2" />
<path stroke="#a56b4a" d="M36 20h1M35 21h1M37 21h1M32 22h1M63 22h1M65 22h1M30 23h1M64 23h1M29 24h1M62 24h1M28 25h1M27 27h1M36 27h2M27 28h1M35 28h1M27 29h1M34 29h1M28 31h1M59 31h1M30 35h1M31 36h1M32 41h1M30 43h2" />
<path stroke="#fff794" d="M39 20h1M36 21h1M38 21h2M34 22h8M32 23h5M40 23h1M30 24h1M34 24h4M60 24h1M29 25h1M35 25h3M60 25h2M29 26h2M34 26h3M57 26h2M60 26h2M28 27h8M55 27h7M28 28h7M53 28h9M28 29h6M51 29h10M29 30h5M51 30h10M30 31h3M50 31h9M50 32h8M50 33h5M32 37h1M33 38h1M33 39h2M33 40h1M35 40h1M33 41h1M38 41h1M32 42h2M38 42h2M32 43h1M34 43h1M37 43h2M30 44h3M37 44h1M39 44h1M32 45h2M39 45h1M39 46h1M38 47h1" />
<path stroke="#633a3a" d="M41 21h1M42 22h1M62 22h1M66 22h1M39 23h1M41 23h1M59 23h2M62 23h1M66 23h1M40 24h1M61 24h1M65 24h4M40 25h1M59 25h1M63 26h1M37 28h1M20 29h1M37 29h1M62 29h1M22 30h2M37 30h1M47 30h1M64 30h2M25 31h1M37 31h1M46 31h1M27 32h1M36 32h1M44 32h1M59 32h1M62 32h1M59 33h1M63 33h1M42 37h1M32 38h1M32 39h1M43 39h1M32 40h1M44 40h1M44 41h1M31 42h1M45 42h5M22 43h4M49 43h1M21 44h1M26 44h1M29 44h1M18 45h1M17 46h1M49 46h1M16 47h1M22 47h1M50 47h1M16 48h1M23 48h1M50 48h1M23 49h1M16 50h3M15 51h1M20 51h2M27 51h1M14 52h1M22 52h1M28 52h1M31 52h1M14 53h1M31 53h1M42 56h1M48 56h1M53 56h1M47 57h1M49 57h1M54 57h1M48 58h1M50 58h1M54 58h1M50 59h1M52 59h1M48 60h2M43 62h2M47 62h1M52 62h1M41 63h2M40 64h1M48 64h1M40 65h1M45 65h1M48 65h1M42 66h1M45 66h1M45 67h1" />
<path stroke="#de8c42" d="M33 22h1M31 23h1M28 26h1M54 27h1M13 30h1M28 30h1M63 30h1M23 31h1M47 31h1M35 32h1M12 33h2M27 33h1M33 33h1M44 33h1M26 34h3M42 34h1M24 35h6M30 36h1M38 46h1" />
<path stroke="#ffc55a" d="M37 23h2M63 23h1M65 23h1M38 24h2M63 24h2M38 25h2M62 25h2M37 26h4M62 26h1M15 27h1M38 27h3M62 27h1M15 28h2M18 28h1M38 28h3M14 29h5M38 29h3M61 29h1M12 30h1M14 30h7M34 30h1M38 30h3M49 30h2M61 30h2M12 31h11M29 31h1M33 31h2M38 31h3M48 31h2M60 31h5M11 32h15M34 32h1M37 32h4M46 32h4M60 32h1M63 32h1M14 33h13M34 33h8M45 33h5M12 34h1M17 34h9M32 34h10M43 34h8M31 35h16M32 36h12M33 37h8M34 38h9M35 39h2M38 39h5M38 40h6M39 41h5M34 42h1M37 42h1M40 42h5M40 43h9M40 44h8M40 45h5M46 45h1M34 46h1M40 46h1M43 46h2M39 47h1M44 47h1M38 48h1" />
<path stroke="#fff7ce" d="M31 24h3M30 25h5M69 25h2M31 26h3M64 26h5M69 27h3M63 28h4M72 28h1M9 29h1M67 29h2M5 31h1M22 44h2M18 46h1M17 47h1M15 52h1M15 53h1M26 60h2M41 65h1M51 65h1M41 66h1M46 66h1M51 66h1M46 67h1" />
<path stroke="#7b5a52" d="M59 24h1M69 24h3M57 25h2M64 25h4M72 25h1M55 26h2M59 26h1M69 26h3M12 27h2M53 27h1M63 27h3M72 27h2M11 28h1M17 28h1M51 28h2M62 28h1M67 28h3M74 28h1M12 29h2M19 29h1M49 29h2M7 30h3M21 30h1M48 30h1M11 31h1M24 31h1M41 31h1M7 32h1M26 32h1M41 32h1M45 32h1M11 33h1M43 33h1M55 33h1M11 34h1M13 34h1M16 34h1M51 34h1M23 35h1M47 35h1M29 36h1M41 37h1M25 44h1M25 45h1M20 46h1M24 46h1M20 47h1M26 47h1M19 48h1M25 48h1M21 49h1M25 49h2M22 50h2M25 50h2M28 50h1M17 51h1M23 51h4M29 51h1M18 52h1M21 52h1M23 52h5M30 52h1M16 53h1M20 53h8M29 53h2M22 54h6M29 54h1M24 55h5M27 56h2M28 57h2M48 57h1M51 57h2M27 58h3M47 58h1M49 58h1M51 58h2M29 59h1M48 59h2M51 59h1M47 60h1M50 60h2M46 61h6M50 62h2M49 63h1M52 63h1M42 64h2M46 64h1M50 64h1M52 64h1M43 65h1M47 65h1" />
<path stroke="#d6bd94" d="M68 25h1M66 27h3M70 28h2M10 29h2M63 29h4M6 31h5M8 32h2M23 45h2M18 47h2M16 51h1M16 52h2M53 57h1M27 59h2M41 64h1M51 64h1M42 65h1M46 65h1M52 65h1M47 66h1" />
<path stroke="#ffffff" d="M71 25h1M73 28h1M35 29h1M69 29h1" />
<path stroke="#ad8c73" d="M12 28h2M8 29h1M24 44h1M19 46h1M25 46h1M21 47h1M24 47h2M20 48h3M26 48h1M22 49h1M29 50h1M18 51h2M28 51h1M30 51h1M19 52h2M29 52h1M25 56h2M26 57h2M28 60h1M45 62h2M48 62h2M43 63h3M47 63h2M50 63h2M44 64h1M47 64h1" />
</svg>