<svg xmlns="http://www.w3.org/2000/svg" viewBox="0 -0.5 80 80" shape-rendering="crispEdges">
<metadata>Made with Pixels to Svg https://codepen.io/shshaw/pen/XbxvNj</metadata>
<path stroke="#8c2921" d="M39 5h1M38 6h1M35 7h2M44 7h1M41 8h3M40 9h3M40 10h1M38 11h1M40 11h1M39 12h4M39 13h4M39 14h5M39 15h6M39 16h7M32 17h1M39 17h8M30 18h1M38 18h11M28 19h1M38 19h11M50 19h1M38 20h10M49 20h1M51 20h1M54 20h3M24 21h2M38 21h11M50 21h1M52 21h1M54 21h1M29 22h1M37 22h11M49 22h1M51 22h1M53 22h4M37 23h12M50 23h1M36 24h6M43 24h1M45 24h1M36 25h4M41 25h1M43 25h1M35 26h4M35 27h2M35 29h2M35 30h1M21 33h3M58 34h2M29 35h1M16 36h1M18 36h1M35 36h1M44 36h1M51 36h3M16 37h2M44 37h1M64 37h1M63 38h2M12 39h1M11 40h1M13 40h1M11 41h2M68 43h1M67 44h2M32 45h1M40 45h1M31 46h3M38 46h3M32 47h10M33 48h8M33 49h6M34 50h4M50 50h1M35 51h2M49 51h1M34 53h2M33 54h4M32 55h6M33 56h4M51 56h3M52 57h1M53 60h1M53 61h2M20 63h1M54 68h3" />
<path stroke="#7b5a00" d="M40 5h1M40 6h1M37 7h2M40 7h1M35 8h1M40 8h1M36 9h1M36 12h1M36 13h1M43 13h1M35 14h1M44 14h1M45 15h1M46 16h1M48 17h1M25 18h1M55 18h1M23 19h2M26 19h1M54 19h1M56 19h1M22 20h1M57 20h1M23 21h1M27 21h1M56 21h1M24 22h1M26 22h1M59 22h1M25 23h1M29 23h1M52 23h1M58 23h1M30 24h1M42 24h1M44 24h1M46 24h1M49 24h1M42 25h1M44 25h2M56 25h2M32 26h1M33 27h1M33 28h1M36 28h1M43 28h1M48 28h1M31 30h1M36 30h2M22 31h1M34 31h2M58 32h1M57 33h1M59 33h1M23 34h1M36 34h1M52 34h1M56 34h1M44 35h2M51 35h1M53 35h1M56 35h1M19 36h1M50 36h1M18 37h1M31 37h1M43 37h1M48 37h1M16 38h2M33 38h2M45 38h2M14 39h1M14 40h1M13 41h1M24 41h1M28 41h2M55 41h1M10 42h3M22 42h1M30 42h2M50 42h1M56 42h1M21 43h1M65 43h1M69 43h1M66 44h1M67 45h1M8 46h1M70 46h1M8 47h1M19 47h1M29 47h1M47 47h1M9 48h1M28 48h1M10 49h1M48 49h1M12 50h2M48 50h1M70 50h1M48 51h1M68 51h2M49 52h1M64 52h2M50 55h1M50 56h1M51 57h1M33 58h2M52 58h2M31 59h2M52 60h1M40 61h1M52 61h1M53 62h1M21 63h1M54 63h2M56 64h1M25 65h1M42 65h1M56 65h1M26 66h1M43 66h1M43 67h1M27 68h1M43 68h1M53 68h1M28 69h1M44 69h1M54 69h1M57 69h1M44 70h1" />
<path stroke="#d6ad63" d="M39 6h1M39 7h1M39 8h1M37 9h2M38 10h1M38 13h1M38 14h1M38 15h1M37 16h2M25 19h1M24 20h2M36 21h1M36 23h1M35 24h1M35 25h1M31 27h2M31 28h1M38 29h7M45 30h2M22 32h1M58 33h1M28 34h1M57 34h1M17 35h1M26 35h1M52 35h1M17 36h1M27 36h2M27 37h2M50 37h1M25 38h3M47 38h9M11 39h1M23 39h4M45 39h13M12 40h1M21 40h4M46 40h6M55 40h5M19 41h4M46 41h4M57 41h4M16 42h6M46 42h2M59 42h3M10 43h11M60 43h5M10 44h9M60 44h6M10 45h7M45 45h1M61 45h6M11 46h4M45 46h1M61 46h9M31 47h1M45 47h2M62 47h8M32 48h1M41 48h1M45 48h2M65 48h4M45 49h2M45 50h2M49 50h1M44 51h4M24 52h1M44 52h4M23 53h1M43 53h6M22 54h1M42 54h7M21 55h3M25 55h1M38 55h1M40 55h9M52 55h1M21 56h2M24 56h1M26 56h4M39 56h10M20 57h13M38 57h11M20 58h12M40 58h8M20 59h11M42 59h3M46 59h1M21 60h8M43 60h1M45 60h1M47 60h1M54 60h1M21 61h7M46 61h1M22 62h5M22 63h2M25 63h1M27 63h1M24 64h1M26 64h1M24 67h1M55 67h2" />
<path stroke="#a57b10" d="M41 7h3M38 8h1M30 25h1M32 25h1M46 25h3M30 26h2M45 26h2M30 27h1M30 28h1M31 29h1M32 31h1M21 32h1M33 32h2M44 32h1M20 33h1M35 33h1M42 33h1M16 34h1M22 34h1M24 34h3M55 34h1M60 34h2M16 35h1M19 35h1M27 35h2M33 35h4M43 35h1M54 35h1M57 35h3M62 35h2M15 36h1M29 36h2M33 36h1M36 36h1M43 36h1M49 36h1M54 36h1M62 36h1M14 37h2M34 37h2M47 37h1M51 37h3M61 37h1M10 38h5M32 38h1M61 38h1M10 39h1M13 39h1M62 39h3M33 40h1M67 40h1M23 41h1M32 41h1M66 41h1M68 41h1M65 42h1M9 43h1M31 43h1M46 43h1M57 43h1M21 44h1M30 44h1M45 44h1M58 44h1M8 45h1M20 45h1M30 45h1M58 45h1M70 45h1M19 46h1M29 46h1M46 46h1M59 46h1M59 47h1M47 48h1M60 48h1M11 49h1M27 49h1M49 49h1M60 49h1M71 49h1M26 50h1M61 50h1M50 51h1M62 51h2M66 52h2M51 54h2M20 55h1M53 55h1M19 57h1M19 58h1M53 59h2M29 60h2M55 60h1M20 61h1M21 62h1M34 62h1M41 62h1M54 62h1M35 63h1M41 63h1M22 64h1M42 64h1M23 65h2M34 65h1M55 65h1M23 66h1M54 66h1M57 66h1M23 67h1M53 67h1M23 68h1M45 72h1M46 73h1M55 73h1" />
<path stroke="#e68463" d="M36 8h2M39 9h1M39 10h1M39 11h1M37 12h2M37 13h1M36 14h2M35 15h3M34 16h3M33 17h4M38 17h1M31 18h6M31 19h6M49 19h1M55 19h1M23 20h1M26 20h2M30 20h1M32 20h5M48 20h1M50 20h1M52 20h1M26 21h1M31 21h5M37 21h1M49 21h1M51 21h1M53 21h1M25 22h1M32 22h4M48 22h1M50 22h1M52 22h1M57 22h2M33 23h3M49 23h1M55 23h2M33 24h2M56 24h1M31 25h1M33 25h2M33 26h2M34 28h2M33 29h2M34 30h1M38 36h1M45 36h1M37 37h3M63 37h1M36 38h5M62 38h1M37 39h3M38 40h1M67 41h1M36 42h2M66 42h1M35 43h4M67 43h1M33 44h7M33 45h7M34 46h4M51 55h1M55 61h1M24 66h1M55 66h2M54 67h1M57 67h1" />
<path stroke="#101010" d="M44 8h1M43 9h1M37 10h1M42 10h1M37 11h1M42 11h1M43 12h1M50 18h1M52 19h1M53 20h1M28 21h1M57 21h2M28 22h1M31 23h1M51 23h1M53 23h2M57 23h1M47 24h2M50 24h1M55 24h1M57 24h1M40 25h1M49 25h1M39 26h3M43 26h2M49 26h1M37 27h2M40 27h1M43 27h1M49 27h1M41 28h2M48 29h1M43 30h1M47 30h1M41 31h1M46 31h1M23 32h1M37 32h1M39 32h1M45 32h1M24 33h1M28 33h1M43 33h1M17 34h1M27 34h1M29 34h1M43 34h1M18 35h1M30 35h1M46 35h1M64 35h1M46 36h1M64 36h1M45 37h1M65 37h1M44 38h1M65 38h1M66 39h1M10 40h1M25 40h3M53 40h2M10 41h1M51 41h2M69 41h1M48 42h2M69 42h1M47 43h1M46 44h1M69 44h1M46 45h1M68 45h1M71 47h1M18 48h1M71 48h1M17 49h1M14 50h3M51 51h1M50 52h1M51 53h1M54 56h1M53 57h1M35 58h2M37 59h2M32 60h1M39 60h1M33 61h1M56 61h1M55 62h1M20 64h2M35 64h1M35 65h1M34 66h1M33 67h1M58 67h1M24 68h3M31 68h2M57 68h1M29 69h2M57 70h1M44 71h1M57 71h1M44 72h1M57 72h1M45 73h1M56 73h1M46 74h9" />
<path stroke="#7b0800" d="M41 10h1M41 11h1M34 15h1M33 16h1M31 17h1M47 17h1M29 18h1M49 18h1M27 19h1M51 19h1M55 21h1M34 27h1M32 28h1M32 29h1M37 29h1M33 30h1M38 30h1M35 57h1M20 62h1M25 67h2M55 69h2M56 70h1" />
<path stroke="#efd684" d="M37 17h1M37 18h1M37 19h1M37 20h1M36 22h1M32 30h1M39 30h4M44 30h1M33 31h1M36 31h5M42 31h4M35 32h2M38 32h1M40 32h4M37 33h4M20 34h1M20 35h6M55 35h1M60 35h2M20 36h7M34 36h1M39 36h1M55 36h7M63 36h1M19 37h8M41 37h2M54 37h7M62 37h1M15 38h1M18 38h7M43 38h1M56 38h5M15 39h8M43 39h2M58 39h4M65 39h1M15 40h6M43 40h3M60 40h7M14 41h5M43 41h3M61 41h5M13 42h3M42 42h4M62 42h3M67 42h2M42 43h3M66 43h1M31 44h1M41 44h3M31 45h1M41 45h4M30 46h1M42 46h3M30 47h1M43 47h2M29 48h3M42 48h3M28 49h5M40 49h5M28 50h6M38 50h7M26 51h9M37 51h7M25 52h19M24 53h10M36 53h7M23 54h10M37 54h5M24 55h1M26 55h6M39 55h1M23 56h1M25 56h1M30 56h3M37 56h2" />
<path stroke="#ce6b52" d="M29 19h2M28 20h2M31 20h1M29 21h2M30 22h2M30 23h1M32 23h1M31 24h2M25 66h1" />
<path stroke="#f7ce00" d="M42 26h1M41 27h2" />
<path stroke="#bd8c29" d="M47 26h2M39 27h1M45 27h4M37 28h3M44 28h4M45 29h3M36 33h1M41 33h1M18 34h2M21 34h1M37 34h6M37 35h6M40 36h3M29 37h2M49 37h1M28 38h4M27 39h7M28 40h5M52 40h1M30 41h2M50 41h1M56 41h1M32 42h1M57 42h2M45 43h1M58 43h2M9 44h1M19 44h2M44 44h1M59 44h1M9 45h1M17 45h3M59 45h2M69 45h1M9 46h2M15 46h4M41 46h1M60 46h1M9 47h10M42 47h1M60 47h2M70 47h1M10 48h8M61 48h4M69 48h2M12 49h5M39 49h1M47 49h1M61 49h10M27 50h1M47 50h1M62 50h8M24 51h2M64 51h4M23 52h1M48 52h1M22 53h1M49 53h2M21 54h1M49 54h2M49 55h1M20 56h1M49 56h1M33 57h2M36 57h2M49 57h2M32 58h1M37 58h3M48 58h4M19 59h1M39 59h3M45 59h1M47 59h6M20 60h1M31 60h1M40 60h3M44 60h1M46 60h1M48 60h4M28 61h5M41 61h5M47 61h5M27 62h7M42 62h11M24 63h1M26 63h1M28 63h7M42 63h12M23 64h1M25 64h1M27 64h8M43 64h13M26 65h8M43 65h12M27 66h7M44 66h10M27 67h6M44 67h9M28 68h3M44 68h9M45 69h9M45 70h11M45 71h12M46 72h11M47 73h8" />
<path stroke="#6b6b6b" d="M44 27h1M40 28h1" />
<path stroke="#ffefa5" d="M37 36h1M36 37h1M40 37h1M35 38h1M41 38h2M34 39h3M40 39h3M34 40h4M39 40h4M33 41h10M33 42h3M38 42h4M32 43h3M39 43h3M32 44h1M40 44h1" />
</svg>