<svg xmlns="http://www.w3.org/2000/svg" viewBox="0 -0.5 80 80" shape-rendering="crispEdges">
<metadata>Made with Pixels to Svg https://codepen.io/shshaw/pen/XbxvNj</metadata>
<path stroke="#844210" d="M41 13h7M39 14h1M48 14h2M37 15h1M50 15h2M36 16h1M35 17h1M48 19h4M46 20h2M52 20h2M29 21h5M54 21h1M27 22h2M32 22h1M55 22h1M26 23h1M32 23h1M55 23h1M56 24h1M56 25h1M31 26h1M32 28h4M38 28h1M29 29h2M37 29h1M28 30h1M27 31h1M26 32h1M37 32h1M36 33h1M18 34h1M25 34h1M25 35h1M37 35h1M17 36h1M25 36h1M38 36h2M17 37h1M23 37h1M25 37h1M33 37h1M40 37h2M17 38h1M21 38h2M25 38h1M32 38h1M42 38h1M17 39h1M19 39h2M30 39h2M18 40h1M29 40h1M28 41h1M27 42h1M14 46h1M46 46h2M46 47h1M24 48h1M13 49h1M24 49h1M13 50h1M23 50h1M13 51h1M23 51h1M13 52h1M23 52h1M13 53h1M13 54h1M14 55h1M14 56h1" />
<path stroke="#c5733a" d="M40 14h1M47 14h1M38 15h1M48 15h2M49 16h3M50 17h3M34 18h1M51 18h2M34 19h1M52 19h2M33 20h1M51 20h1M44 21h2M52 21h2M43 22h1M53 22h2M25 23h1M42 23h1M53 23h2M24 24h1M32 24h1M41 24h1M54 24h2M23 25h1M31 25h1M40 25h1M54 25h2M22 26h1M39 26h1M54 26h2M39 27h1M54 27h2M54 28h2M54 29h2M54 30h2M53 31h2M53 32h2M18 33h1M37 33h1M53 33h2M37 34h1M52 34h2M17 35h1M38 35h1M52 35h2M35 36h3M51 36h2M34 37h1M39 37h1M49 37h4M41 38h1M47 38h5M42 39h2M45 39h6M42 40h3M46 40h3M17 41h1M27 41h1M43 41h2M16 42h1M43 42h2M15 43h1M26 43h1M43 43h2M15 44h1M26 44h1M42 44h3M14 45h1M25 45h1M42 45h2M25 46h1M41 46h3M14 47h1M24 47h1M41 47h3M13 48h1M40 48h3M40 49h3M24 50h1M39 50h3M24 51h1M38 51h3M24 52h1M37 52h3M14 53h1M24 53h1M36 53h3M14 54h3M22 54h1M24 54h3M34 54h4M15 55h8M24 55h13M15 56h9M25 56h11M16 57h8M25 57h9M18 58h5M27 58h4" />
<path stroke="#ef9c31" d="M41 14h4M39 15h5M46 15h2M37 16h1M43 16h6M36 17h1M45 17h5M48 18h3M45 20h1M48 20h3M49 21h3M29 22h3M49 22h4M27 23h5M50 23h3M28 24h4M50 24h4M29 25h2M50 25h4M29 26h2M50 26h4M29 27h2M38 27h1M50 27h4M28 28h3M50 28h4M28 29h1M38 29h1M49 29h5M27 30h1M49 30h5M48 31h1M51 31h2M51 32h2M38 33h1M47 33h1M50 33h3M38 34h1M47 34h5M18 35h1M24 35h1M39 35h1M46 35h6M18 36h2M23 36h2M40 36h2M45 36h6M18 37h5M35 37h1M42 37h7M18 38h3M23 38h1M44 38h3M18 39h1M41 39h1M40 40h2M40 41h3M39 42h4M16 43h1M39 43h4M38 44h4M15 45h1M38 45h4M38 46h3M37 47h4M47 47h1M14 48h1M23 48h1M31 48h1M36 48h4M14 49h2M21 49h3M25 49h1M30 49h10M14 50h9M25 50h14M14 51h6M21 51h2M25 51h7M34 51h4M14 52h5M22 52h1M25 52h6M34 52h3M41 52h1M15 53h4M22 53h1M25 53h6M33 53h3M17 54h3M21 54h1M27 54h7" />
<path stroke="#f7d6b5" d="M45 14h2M44 15h2M38 16h1M40 16h1M41 17h1M46 18h2M35 19h1M41 19h1M46 19h2M35 21h1M36 22h1M38 22h1M39 24h1M44 24h1M46 24h1M26 25h1M33 25h1M43 25h1M47 25h1M33 26h1M37 26h1M42 27h1M40 28h1M47 28h1M39 29h1M42 30h1M21 31h1M25 31h1M43 31h2M49 31h2M42 32h1M48 32h3M48 33h2M40 34h1M20 36h1M37 38h1M32 39h2M23 40h1M35 40h1M22 41h1M29 42h1M33 42h1M36 42h1M18 43h2M24 43h1M37 43h1M20 44h1M23 44h1M28 44h1M31 44h1M37 45h1M15 46h1M36 46h2M15 47h1M20 47h1M31 47h1M35 47h2M15 48h1M19 48h1M32 48h4M16 49h1M18 49h1M20 51h1M32 51h2M19 52h3M31 52h3M19 53h3M31 53h2M20 54h1" />
<path stroke="#ffefd6" d="M39 16h1M37 17h4M36 18h6M36 19h5M45 19h1M35 20h6M36 21h4M37 22h1M34 24h1M38 24h1M45 24h1M34 25h1M37 25h3M44 25h3M25 26h2M38 26h1M43 26h5M22 27h1M25 27h1M43 27h5M21 28h2M42 28h5M21 29h2M40 29h1M42 29h5M20 30h2M25 30h1M39 30h1M43 30h3M20 31h1M24 31h1M19 32h2M24 32h1M41 32h1M19 33h1M40 33h3M21 34h1M41 34h1M20 35h2M36 38h1M22 39h2M35 39h3M21 40h2M31 40h2M36 40h1M21 41h1M34 42h2M28 43h2M32 43h5M17 44h3M24 44h2M32 44h6M16 45h5M23 45h2M31 45h6M16 46h5M31 46h5M16 47h4M32 47h3M16 48h3M17 49h1" />
<path stroke="#ffad63" d="M41 16h2M42 17h3M35 18h1M42 18h4M42 19h3M34 20h1M41 20h4M34 21h1M40 21h4M46 21h3M33 22h3M39 22h4M44 22h5M33 23h9M43 23h7M25 24h3M33 24h1M35 24h3M40 24h1M42 24h2M47 24h3M24 25h2M27 25h2M32 25h1M35 25h2M41 25h2M48 25h2M23 26h2M27 26h2M32 26h1M34 26h3M40 26h3M48 26h2M21 27h1M23 27h2M26 27h3M32 27h6M40 27h2M48 27h2M20 28h1M23 28h5M36 28h2M39 28h1M41 28h1M48 28h2M20 29h1M23 29h5M41 29h1M47 29h2M19 30h1M22 30h3M26 30h1M38 30h1M40 30h2M46 30h3M19 31h1M22 31h2M26 31h1M38 31h5M45 31h3M18 32h1M21 32h3M25 32h1M38 32h3M43 32h5M20 33h6M39 33h1M43 33h4M19 34h2M22 34h3M39 34h1M42 34h5M19 35h1M22 35h2M40 35h6M21 36h2M42 36h3M36 37h3M24 38h1M33 38h3M38 38h3M21 39h1M24 39h2M34 39h1M38 39h3M19 40h2M24 40h3M30 40h1M33 40h2M37 40h3M18 41h3M23 41h4M29 41h11M17 42h10M28 42h1M30 42h3M37 42h2M17 43h1M20 43h4M25 43h1M27 43h1M30 43h2M38 43h1M16 44h1M21 44h2M27 44h1M29 44h2M21 45h2M26 45h5M21 46h4M26 46h5M21 47h3M25 47h6M20 48h3M25 48h6M19 49h2M26 49h4" />
<path stroke="#101010" d="M52 16h1M53 17h1M53 18h1M54 19h1M54 20h1M56 26h1M31 27h1M56 27h1M31 28h1M56 28h1M36 29h1M56 29h1M31 30h2M37 30h1M56 30h1M30 31h1M33 31h1M37 31h1M55 31h1M29 32h1M33 32h1M55 32h1M28 33h1M55 33h1M28 34h1M32 34h1M36 34h1M54 34h1M27 35h1M31 35h1M35 35h2M54 35h1M27 36h1M30 36h1M34 36h1M53 36h1M24 37h1M28 37h2M53 37h1M43 38h1M52 38h1M26 39h1M44 39h1M51 39h1M53 39h2M60 39h1M27 40h2M45 40h1M49 40h2M58 40h2M45 41h4M56 41h2M45 42h1M57 42h1M45 43h1M45 44h1M44 45h1M44 46h1M59 46h1M44 47h1M59 47h3M43 48h1M59 48h1M62 48h1M43 49h1M59 49h1M63 49h1M42 50h1M59 50h1M63 50h1M41 51h1M58 51h1M64 51h1M67 51h1M40 52h1M58 52h1M65 52h2M23 53h1M39 53h1M57 53h1M23 54h1M38 54h1M40 54h1M57 54h1M23 55h1M37 55h1M40 55h1M56 55h1M24 56h1M36 56h1M39 56h1M41 56h1M55 56h1M15 57h1M24 57h1M34 57h2M37 57h2M41 57h2M53 57h2M16 58h2M23 58h1M25 58h2M31 58h3M36 58h1M40 58h2M43 58h2M51 58h2M18 59h5M27 59h4M36 59h1M40 59h1M45 59h6M37 60h3M48 60h1M50 60h1M48 61h1M50 61h1M50 62h1M49 63h1M47 64h2M46 65h1" />
<path stroke="#ffa529" d="M31 29h4M29 30h1M34 30h2M28 31h1M34 31h2M27 32h1M34 32h2M27 33h1M34 33h2M26 34h1M33 34h2M26 35h1M32 35h3M26 36h1M31 36h3M26 37h1M30 37h3M26 38h5M27 39h2" />
<path stroke="#b56321" d="M35 29h1M33 30h1M36 30h1M31 31h2M36 31h1M30 32h1M32 32h1M36 32h1M26 33h1M29 33h1M32 33h1M27 34h1M31 34h1M35 34h1M28 35h1M30 35h1M28 36h2" />
<path stroke="#c58c21" d="M30 30h1M29 31h1M28 32h1M31 32h1M30 33h2M33 33h1M29 34h2M29 35h1M27 37h1M31 38h1M29 39h1" />
<path stroke="#214a19" d="M57 36h3M56 37h1M60 37h1M55 38h1M60 38h1M55 39h1M54 40h1M58 43h1M58 44h1M61 44h1M59 45h2M66 47h1M67 49h1M46 50h2M67 50h1M45 51h1M44 52h1M44 53h1M46 61h2M44 62h2M44 65h2" />
<path stroke="#63ad6b" d="M57 37h3M57 38h3M52 40h2M51 41h3M51 42h6M51 43h7M50 44h8M50 45h9M62 45h1M50 46h9M63 46h2M49 47h10M64 47h2M49 48h10M48 49h11M48 50h11M46 51h12M45 52h13M45 53h12M45 54h11M46 55h8M48 56h4M43 63h5M43 64h3" />
<path stroke="#427b42" d="M56 38h1M52 39h1M56 39h4M51 40h1M55 40h3M49 41h2M54 41h2M46 42h5M46 43h5M46 44h4M62 44h1M45 45h5M61 45h1M63 45h2M45 46h1M48 46h2M60 46h3M65 46h1M45 47h1M48 47h1M62 47h2M44 48h5M63 48h4M44 49h4M64 49h3M43 50h3M64 50h3M42 51h3M65 51h2M42 52h2M40 53h4M41 54h4M56 54h1M41 55h5M54 55h2M40 56h1M42 56h6M52 56h3M39 57h2M43 57h10M37 58h3M45 58h6M37 59h3M49 60h1M49 61h1M43 62h1M46 62h4M42 63h1M48 63h1M42 64h1M46 64h1M43 65h1" />
</svg>