<svg xmlns="http://www.w3.org/2000/svg" viewBox="0 -0.5 80 80" shape-rendering="crispEdges">
<metadata>Made with Pixels to Svg https://codepen.io/shshaw/pen/XbxvNj</metadata>
<path stroke="#5a7300" d="M50 13h1M48 14h2M53 14h1M47 15h1M53 15h3M45 17h1M44 19h1M43 20h1M43 22h1M44 23h1M25 24h1M28 24h1M44 24h1M26 25h1M29 25h1M45 25h1M56 25h1M21 26h1M29 26h1M30 27h1M48 27h1M51 27h1M53 27h1M31 28h1M52 28h1M31 29h1M32 30h1M40 30h1M42 30h1M38 31h2M45 31h1M35 32h1M37 32h1M46 32h1M48 32h1M17 33h1M49 33h1M17 34h1M32 34h1M51 34h1M18 35h1M51 35h1M52 36h1M30 37h1M32 37h1M45 37h1M26 38h1M28 38h1M32 38h1M52 38h1M24 39h2M36 39h2M53 39h1M32 40h1M53 40h1M31 41h1M52 41h1M53 42h1M32 43h1M32 44h1M51 45h1M33 46h2M51 46h1M35 47h1M51 47h1M35 48h1M49 48h1M36 49h2M46 49h2M38 50h1M40 50h1M46 50h1" />
<path stroke="#c5e663" d="M50 14h1M49 15h4M46 16h4M51 16h3M46 17h3M52 17h1M45 18h4M52 18h1M46 19h4M51 19h1M47 20h1M49 20h3M24 25h2M22 26h5M21 27h7M20 28h8M21 29h5M22 30h1M24 30h1M40 31h3M36 32h1M38 32h4M36 33h6M37 34h5M38 35h4M34 36h1M39 36h3M33 37h3M39 37h2M33 38h3M33 39h3M33 40h4M34 41h3" />
<path stroke="#739421" d="M51 14h2M46 15h1M45 16h1M44 18h1M44 21h1M56 22h2M47 23h2M50 23h2M54 23h4M24 24h1M46 24h11M21 25h2M27 25h1M46 25h10M46 26h9M20 27h1M47 27h1M49 27h2M52 27h1M19 28h1M18 29h1M18 30h1M31 30h1M17 31h1M30 31h2M35 31h2M46 31h1M17 32h1M30 32h2M29 33h2M32 33h1M35 33h1M18 34h2M28 34h4M50 34h1M24 35h2M27 35h4M25 36h6M33 36h1M25 37h5M24 38h2M27 38h1M42 38h1M44 38h1M48 38h3M31 39h1M43 39h1M47 39h5M47 40h6M32 41h1M46 41h1M48 41h1M50 41h2M32 42h1M47 42h1M49 42h1M51 42h2M33 43h1M45 43h2M48 43h1M50 43h2M33 44h2M44 44h8M33 45h4M42 45h9M35 46h16M36 47h14M36 48h13M38 49h8M42 50h3" />
<path stroke="#adc542" d="M48 15h1M54 16h2M53 17h2M45 19h1M44 20h3M48 20h1M45 21h8M44 22h10M45 23h2M49 23h1M52 23h2M45 24h1M23 25h1M28 25h1M27 26h2M28 27h2M18 28h1M28 28h3M19 29h2M26 29h5M20 30h2M23 30h1M25 30h6M20 31h10M20 32h6M27 32h3M45 32h1M47 32h1M19 33h1M23 33h2M28 33h1M31 33h1M45 33h4M24 34h1M45 34h5M45 35h6M45 36h7M41 37h1M46 37h6M36 38h1M40 38h2M45 38h3M51 38h1M32 39h1M40 39h3M44 39h3M52 39h1M37 40h10M33 41h1M37 41h9M47 41h1M49 41h1M33 42h14M48 42h1M50 42h1M34 43h11M47 43h1M49 43h1M35 44h9M37 45h5" />
<path stroke="#a59c4a" d="M60 15h2M59 16h1M62 16h1M64 17h1M55 20h2M45 27h1M45 28h1M43 31h1M43 33h1M33 34h1M35 34h1M43 34h1M36 35h1M43 35h1M36 36h2M43 36h1M18 37h1M37 37h2M43 37h1M22 38h1M38 38h1M16 39h1M21 39h1M16 40h1M21 40h1M20 42h1M47 50h2M41 51h2M47 51h2M41 52h2M48 52h2M42 53h2M48 53h3M42 54h2M49 54h2M41 55h2M50 55h1M40 56h2M40 57h1M35 60h1M37 60h1M43 60h1M48 60h1M41 61h1M49 61h1M44 62h2M47 62h2M45 63h1M48 63h1" />
<path stroke="#636363" d="M50 16h1M49 17h1M50 18h1M19 30h1M26 32h1M25 33h1M26 34h1M33 58h1M32 59h1M31 60h1M34 60h1M38 60h1M33 61h1M37 61h1M33 62h1M37 62h1M40 62h1M52 62h1M53 63h1" />
<path stroke="#101010" d="M56 16h1M51 17h1M49 18h1M51 18h1M62 18h2M50 19h1M59 19h2M52 20h1M57 21h1M54 22h2M58 23h1M57 24h1M55 26h2M54 27h1M46 28h1M49 28h2M45 30h1M19 31h1M32 31h1M18 32h2M32 32h1M44 32h1M18 33h1M27 33h1M44 33h1M25 34h1M27 34h1M44 34h1M26 35h1M31 35h3M44 35h1M31 36h1M35 36h1M44 36h1M23 37h2M36 37h1M44 37h1M52 37h1M21 38h1M29 38h1M37 38h1M43 38h1M20 39h1M27 39h1M38 39h1M23 40h2M18 41h1M23 41h1M17 42h1M22 42h1M31 42h1M16 43h1M21 43h1M52 43h1M15 44h1M19 44h2M52 44h1M13 45h1M32 45h1M50 47h1M48 49h2M39 50h1M41 50h1M45 50h1M49 50h1M40 51h1M43 51h2M46 51h1M49 51h1M40 52h1M43 52h1M47 52h1M50 52h1M41 53h1M47 53h1M51 53h1M41 54h1M48 54h1M51 54h1M43 55h1M51 55h1M42 56h1M50 56h1M38 57h1M41 57h1M34 58h4M41 58h1M46 58h1M49 58h1M46 59h1M49 59h1M33 60h1M44 60h2M49 60h1M31 61h2M36 61h1M40 61h1M42 61h1M50 61h2M35 62h1M39 62h1M33 63h2M37 63h2M40 63h4M46 63h1M49 63h2M43 64h1M45 64h2M48 64h1M51 64h3M44 65h1M47 65h1" />
<path stroke="#636310" d="M58 16h1M63 16h1M55 17h3M53 18h2M61 18h1M64 18h1M52 19h1M61 19h1M57 20h2M53 21h1M56 21h1M45 26h1M44 27h1M46 27h1M43 28h1M43 29h1M45 29h1M43 30h1M42 32h1M20 33h3M33 33h2M42 33h1M23 34h1M36 34h1M42 34h1M19 35h1M34 35h1M37 35h1M42 35h1M18 36h1M24 36h1M38 36h1M42 36h1M22 37h1M42 37h1M17 38h1M39 38h1M39 39h1M19 40h2M15 41h1M20 41h1M14 42h1M19 42h1M13 43h1M18 43h1M13 44h1M18 44h1M14 45h1M44 53h1M44 54h1M40 55h1M48 55h1M39 56h1M47 56h1M47 57h1M50 57h1M35 59h2M39 59h1M42 59h2M44 61h1M43 62h1M46 62h1" />
<path stroke="#efe6ad" d="M60 16h2M58 17h6M55 18h6M53 19h3M44 29h1M44 30h1M20 34h3M20 35h3M19 36h3M19 37h2M18 38h2M18 39h2M17 40h2M16 41h2M15 42h1M14 43h2M14 44h1M48 56h1M48 57h1M47 58h2M37 59h1M47 59h1M46 60h2M43 61h1M45 61h4M49 62h2" />
<path stroke="#ffffff" d="M50 17h1M18 31h1M26 33h1M33 59h1M32 60h1M34 61h2M38 61h2M34 62h1M38 62h1M41 62h2M44 63h1M47 63h1M51 63h2M44 64h1M47 64h1" />
<path stroke="#dece8c" d="M56 19h3M53 20h2M54 21h2M44 28h1M44 31h1M43 32h1M34 34h1M23 35h1M35 35h1M22 36h2M21 37h1M20 38h1M23 38h1M17 39h1M22 39h2M22 40h1M21 41h2M16 42h1M21 42h1M19 43h2M49 55h1M49 56h1M39 57h1M49 57h1M38 58h3M34 59h1M38 59h1M40 59h2M48 59h1M36 60h1M39 60h4M51 62h1" />
</svg>