<svg xmlns="http://www.w3.org/2000/svg" viewBox="0 -0.5 48 48" shape-rendering="crispEdges">
<metadata>Made with Pixels to Svg https://codepen.io/shshaw/pen/XbxvNj</metadata>
<path stroke="#ffffff" d="M0 0h48M0 1h48M0 2h48M0 3h15M19 3h29M0 4h14M21 4h17M41 4h7M0 5h13M22 5h3M30 5h4M43 5h5M0 6h12M44 6h4M0 7h12M23 7h4M45 7h3M0 8h16M22 8h5M46 8h2M0 9h16M22 9h4M46 9h2M0 10h17M23 10h2M41 10h2M47 10h1M0 11h4M6 11h2M10 11h7M40 11h5M0 12h3M4 12h2M9 12h1M11 12h7M20 12h2M27 12h2M39 12h7M0 13h3M5 13h1M9 13h1M11 13h7M20 13h1M28 13h1M38 13h10M0 14h3M5 14h2M8 14h2M11 14h6M20 14h1M28 14h1M39 14h9M0 15h1M3 15h1M5 15h2M8 15h2M11 15h6M20 15h1M28 15h1M39 15h9M1 16h2M7 16h1M9 16h1M12 16h4M40 16h8M2 17h3M6 17h1M8 17h1M10 17h2M13 17h3M42 17h6M1 18h3M5 18h1M7 18h1M9 18h1M11 18h1M13 18h2M35 18h3M43 18h5M0 19h1M3 19h2M6 19h1M9 19h1M11 19h1M13 19h1M35 19h3M44 19h4M0 20h3M4 20h8M13 20h1M15 20h2M35 20h2M44 20h4M0 21h3M4 21h6M15 21h2M45 21h3M0 22h4M6 22h3M10 22h3M45 22h3M0 23h6M11 23h2M23 23h2M30 23h2M45 23h3M0 24h7M11 24h3M22 24h2M25 24h7M45 24h3M0 25h7M12 25h1M22 25h1M24 25h1M26 25h3M32 25h1M44 25h4M0 26h8M21 26h1M23 26h3M29 26h3M44 26h4M0 27h8M9 27h1M21 27h1M23 27h1M25 27h1M30 27h2M33 27h1M43 27h5M0 28h9M10 28h1M16 28h1M20 28h3M25 28h1M30 28h2M33 28h2M42 28h6M0 29h10M15 29h4M20 29h3M24 29h3M28 29h3M32 29h2M40 29h8M0 30h11M14 30h5M20 30h2M25 30h5M34 30h1M36 30h1M40 30h8M0 31h18M20 31h2M25 31h5M33 31h1M35 31h1M39 31h9M0 32h17M21 32h1M25 32h4M30 32h3M38 32h10M0 33h17M21 33h2M26 33h4M31 33h2M38 33h10M0 34h16M22 34h2M26 34h3M31 34h2M39 34h9M0 35h13M16 35h1M23 35h3M27 35h3M39 35h9M0 36h12M13 36h2M25 36h2M29 36h2M39 36h9M0 37h12M13 37h3M29 37h2M38 37h10M0 38h12M13 38h4M19 38h1M25 38h2M28 38h3M37 38h11M0 39h13M20 39h8M31 39h2M41 39h7M0 40h10M11 40h3M21 40h12M42 40h6M0 41h9M12 41h3M22 41h10M33 41h1M37 41h1M42 41h6M0 42h9M13 42h2M23 42h9M33 42h5M42 42h6M0 43h9M23 43h10M34 43h3M42 43h6M0 44h10M22 44h12M42 44h6M0 45h12M19 45h16M42 45h6M0 46h36M40 46h8M0 47h48" />
<path stroke="#000000" d="M15 3h4M14 4h1M16 4h1M18 4h3M38 4h3M13 5h1M15 5h1M17 5h1M19 5h3M25 5h5M34 5h3M39 5h4M12 6h5M18 6h7M30 6h5M37 6h7M12 7h2M15 7h8M31 7h2M35 7h1M37 7h8M16 8h5M31 8h2M34 8h1M36 8h10M16 9h4M31 9h3M35 9h11M17 10h3M31 10h10M43 10h4M4 11h2M8 11h2M18 11h1M32 11h8M45 11h3M3 12h1M6 12h2M10 12h1M18 12h1M32 12h7M46 12h2M3 13h1M6 13h2M10 13h1M18 13h1M21 13h1M27 13h1M34 13h4M3 14h1M7 14h1M10 14h1M17 14h1M21 14h1M27 14h1M38 14h1M1 15h2M4 15h1M7 15h1M10 15h1M17 15h1M21 15h1M27 15h1M38 15h1M0 16h1M3 16h2M10 16h2M16 16h1M29 16h1M37 16h3M0 17h1M9 17h1M12 17h1M16 17h1M35 17h2M40 17h2M0 18h1M8 18h1M12 18h1M15 18h2M19 18h2M28 18h1M34 18h1M42 18h1M1 19h2M8 19h1M12 19h1M14 19h1M17 19h1M22 19h7M33 19h1M43 19h1M3 20h1M12 20h1M14 20h1M18 20h1M23 20h1M29 20h1M33 20h1M43 20h1M3 21h1M10 21h2M13 21h1M19 21h2M32 21h1M44 21h1M4 22h2M9 22h1M13 22h1M21 22h3M30 22h3M44 22h1M6 23h1M10 23h1M13 23h1M22 23h1M25 23h5M32 23h1M44 23h1M7 24h1M10 24h1M15 24h2M21 24h1M24 24h1M32 24h1M44 24h1M7 25h1M11 25h1M13 25h1M17 25h1M21 25h1M23 25h1M25 25h1M29 25h3M33 25h1M37 25h3M43 25h1M8 26h1M12 26h1M17 26h1M20 26h1M22 26h1M26 26h3M32 26h2M36 26h1M43 26h1M8 27h1M13 27h1M16 27h1M20 27h1M22 27h1M26 27h1M28 27h1M32 27h1M34 27h1M36 27h1M40 27h1M42 27h1M9 28h1M15 28h1M17 28h3M23 28h1M26 28h1M28 28h1M32 28h1M35 28h1M40 28h2M10 29h1M14 29h1M19 29h1M23 29h1M27 29h1M31 29h1M34 29h2M39 29h1M11 30h3M19 30h1M24 30h1M30 30h4M39 30h1M18 31h2M24 31h1M30 31h2M38 31h1M17 32h1M20 32h1M24 32h1M29 32h1M33 32h1M37 32h1M17 33h1M20 33h1M25 33h1M33 33h1M35 33h3M16 34h3M21 34h1M25 34h1M29 34h1M33 34h2M38 34h1M13 35h3M19 35h1M22 35h1M26 35h1M30 35h3M38 35h1M12 36h1M23 36h2M27 36h1M31 36h1M38 36h1M12 37h1M19 37h1M25 37h3M31 37h1M37 37h1M12 38h1M17 38h2M20 38h5M27 38h1M31 38h2M36 38h1M13 39h1M18 39h2M28 39h3M33 39h1M37 39h4M10 40h1M14 40h2M20 40h1M33 40h1M37 40h1M39 40h3M9 41h1M11 41h1M15 41h2M19 41h3M32 41h1M39 41h3M9 42h1M11 42h2M15 42h8M32 42h1M39 42h3M10 43h1M13 43h10M33 43h1M37 43h5M10 44h12M34 44h2M39 44h3M12 45h7M35 45h1M38 45h3M36 46h3" />
<path stroke="#8c9c00" d="M15 4h1M17 4h1M14 5h1M16 5h1M18 5h1M37 5h2M17 6h1M35 6h2M14 7h1M33 7h2M36 7h1M33 8h1M35 8h1M34 9h1M17 11h1M8 12h1M4 13h1M8 13h1M4 14h1M5 16h1M31 16h2M1 17h1M5 17h1M18 17h1M28 17h1M30 17h4M38 17h2M10 18h1M30 18h4M39 18h3M10 19h1M21 19h1M30 19h3M39 19h4M24 20h4M31 20h2M38 20h5M12 21h1M18 21h1M33 21h2M37 21h7M14 22h1M17 22h4M33 22h11M7 23h2M14 23h8M33 23h11M14 24h1M17 24h4M33 24h11M18 25h3M34 25h3M40 25h3M18 26h2M34 26h2M40 26h3M17 27h3M24 27h1M27 27h1M29 27h1M35 27h1M41 27h1M13 28h1M24 28h1M27 28h1M29 28h1M36 28h1M12 29h2M22 30h2M22 31h2M18 32h2M22 32h2M18 33h2M23 33h2M30 33h1M19 34h2M24 34h1M30 34h1M35 34h3M20 35h2M33 35h5M15 36h1M20 36h3M28 36h1M32 36h6M16 37h1M20 37h5M28 37h1M32 37h5M33 38h3M14 39h3M36 40h1M10 41h1M34 41h3M10 42h1M9 43h1M11 43h2M36 44h3M36 45h2M41 45h1M39 46h1" />
<path stroke="#ff5aff" d="M25 6h5M27 7h4M21 8h1M27 8h4M20 9h2M26 9h5M20 10h3M25 10h6M19 11h13M19 12h1M22 12h5M29 12h3M19 13h1M22 13h5M29 13h5M18 14h2M22 14h5M29 14h9M18 15h2M22 15h5M29 15h9M6 16h1M8 16h1M17 16h12M30 16h1M33 16h4M7 17h1M17 17h1M19 17h9M29 17h1M34 17h1M37 17h1M4 18h1M6 18h1M17 18h2M21 18h7M29 18h1M38 18h1M5 19h1M7 19h1M15 19h2M18 19h3M29 19h1M34 19h1M38 19h1M17 20h1M19 20h4M28 20h1M30 20h1M34 20h1M37 20h1M14 21h1M17 21h1M21 21h11M35 21h2M15 22h2M24 22h6M9 23h1M8 24h2M8 25h3M14 25h3M9 26h3M13 26h4M37 26h3M10 27h3M14 27h2M37 27h3M11 28h2M14 28h1M37 28h3M11 29h1M36 29h3M35 30h1M37 30h2M32 31h1M34 31h1M36 31h2M34 32h3M34 33h1M17 35h2M16 36h4M17 37h2M17 39h1M34 39h3M16 40h4M34 40h2M38 40h1M17 41h2M38 41h1M38 42h1" />
</svg>