<svg xmlns="http://www.w3.org/2000/svg" viewBox="0 -0.5 48 48" shape-rendering="crispEdges">
<metadata>Made with Pixels to Svg https://codepen.io/shshaw/pen/XbxvNj</metadata>
<path stroke="#ffffff" d="M0 0h24M26 0h22M0 1h23M24 1h1M27 1h21M0 2h23M27 2h5M36 2h12M0 3h24M26 3h5M39 3h9M0 4h14M15 4h8M26 4h4M41 4h7M0 5h13M14 5h1M16 5h7M26 5h3M30 5h2M42 5h6M0 6h13M14 6h1M16 6h6M26 6h3M30 6h2M33 6h1M43 6h5M0 7h13M14 7h1M17 7h5M25 7h4M36 7h1M43 7h5M0 8h13M17 8h5M25 8h5M44 8h4M0 9h10M12 9h2M20 9h1M25 9h6M44 9h4M0 10h10M11 10h1M13 10h1M25 10h6M32 10h1M45 10h3M0 11h2M4 11h6M26 11h6M35 11h1M46 11h2M0 12h1M2 12h1M5 12h6M28 12h9M46 12h2M0 13h1M7 13h4M12 13h3M31 13h6M47 13h1M0 14h2M12 14h4M32 14h1M36 14h2M47 14h1M0 15h5M14 15h1M21 15h1M47 15h1M0 16h6M20 16h3M47 16h1M0 17h8M10 17h2M20 17h2M47 17h1M0 18h9M10 18h2M26 18h1M46 18h2M0 19h9M19 19h1M25 19h2M46 19h2M0 20h9M12 20h1M26 20h1M36 20h4M46 20h2M0 21h9M12 21h1M14 21h1M35 21h9M45 21h3M0 22h5M7 22h1M34 22h14M0 23h1M34 23h14M0 24h1M2 24h2M35 24h13M1 25h2M4 25h2M13 25h2M35 25h13M3 26h4M13 26h1M36 26h3M42 26h6M4 27h2M37 27h1M39 27h2M44 27h4M37 28h1M39 28h1M45 28h3M0 29h1M38 29h1M45 29h3M0 30h1M38 30h3M46 30h2M0 31h2M13 31h1M38 31h4M46 31h2M0 32h2M12 32h2M38 32h4M46 32h2M0 33h2M11 33h3M37 33h5M46 33h2M0 34h3M11 34h2M37 34h5M46 34h2M0 35h3M10 35h2M37 35h4M46 35h2M0 36h4M9 36h2M38 36h2M45 36h3M0 37h4M9 37h2M45 37h3M0 38h5M7 38h3M44 38h4M0 39h10M31 39h2M43 39h5M0 40h11M20 40h1M42 40h6M0 41h9M17 41h8M41 41h7M0 42h8M18 42h8M43 42h5M0 43h7M18 43h10M44 43h4M0 44h6M7 44h2M18 44h12M44 44h4M0 45h6M7 45h1M10 45h2M17 45h17M39 45h2M43 45h1M45 45h3M0 46h7M8 46h1M10 46h1M15 46h21M40 46h1M43 46h1M45 46h3M0 47h10M11 47h29M41 47h2M44 47h4" />
<path stroke="#94a500" d="M24 0h1M23 1h1M32 2h1M14 4h1M23 4h1M13 5h1M29 5h1M22 6h1M41 7h1M40 8h1M42 8h1M10 9h1M35 9h2M40 9h1M42 9h1M37 10h2M41 10h3M2 11h1M21 11h1M24 11h1M32 11h1M41 11h3M1 12h1M22 12h2M25 12h1M27 13h1M41 13h1M44 13h3M4 14h1M29 14h2M33 14h1M42 14h4M29 15h3M43 15h3M23 16h1M27 16h1M29 16h3M42 16h4M22 17h1M25 17h1M28 17h3M40 17h6M21 18h1M24 18h1M28 18h2M31 18h2M34 18h3M41 18h4M11 19h1M23 19h1M28 19h1M31 19h5M42 19h2M11 20h1M22 20h1M27 20h2M30 20h3M11 21h1M15 21h1M21 21h1M27 21h1M30 21h4M20 22h1M27 22h1M30 22h3M1 23h1M18 23h1M23 23h2M26 23h2M30 23h3M11 24h1M21 24h4M26 24h1M30 24h1M32 24h2M0 25h1M8 25h1M19 25h5M25 25h2M29 25h1M31 25h3M9 26h3M18 26h3M24 26h2M28 26h1M30 26h1M32 26h3M12 27h1M14 27h2M21 27h4M27 27h1M31 27h5M0 28h1M16 28h6M26 28h1M29 28h1M33 28h3M7 29h2M13 29h1M25 29h1M27 29h1M33 29h4M1 30h1M5 30h2M11 30h1M16 30h4M24 30h1M32 30h5M5 31h2M10 31h2M15 31h1M31 31h6M44 31h1M6 32h4M31 32h6M8 33h1M15 33h1M31 33h5M7 34h2M13 34h1M16 34h2M25 34h1M30 34h6M43 34h2M6 35h2M16 35h2M22 35h1M24 35h1M26 35h1M30 35h5M42 35h3M15 36h1M17 36h3M21 36h1M23 36h1M25 36h2M29 36h5M43 36h1M5 37h2M16 37h17M37 37h1M40 37h1M18 38h12M36 38h3M40 38h2M14 39h1M21 39h6M34 39h4M40 39h2M13 40h3M19 40h1M35 40h1M9 41h1M30 41h4M39 41h1M8 42h1M16 42h1M29 42h5M37 42h1M13 43h4M30 43h4M35 43h2M6 44h1M9 44h1M12 44h5M34 44h2M13 45h2" />
<path stroke="#000000" d="M25 0h1M26 1h1M23 2h1M26 2h1M33 2h3M24 3h2M31 3h1M36 3h3M25 4h1M30 4h1M34 4h1M39 4h2M15 5h1M23 5h1M25 5h1M33 5h1M36 5h1M41 5h1M13 6h1M15 6h1M25 6h1M29 6h1M32 6h1M35 6h1M39 6h1M42 6h1M13 7h1M16 7h1M22 7h1M24 7h1M29 7h1M32 7h1M35 7h1M38 7h1M42 7h1M13 8h1M16 8h1M22 8h1M24 8h1M30 8h1M32 8h1M35 8h1M38 8h1M41 8h1M43 8h1M11 9h1M14 9h1M16 9h4M21 9h1M24 9h1M31 9h1M33 9h2M37 9h2M41 9h1M43 9h1M10 10h1M12 10h1M14 10h1M17 10h1M20 10h2M24 10h1M31 10h1M35 10h2M39 10h2M44 10h1M3 11h1M10 11h1M13 11h2M19 11h1M25 11h1M33 11h2M36 11h1M44 11h2M4 12h1M11 12h1M14 12h1M19 12h1M26 12h2M37 12h1M41 12h5M1 13h1M4 13h3M11 13h1M18 13h2M28 13h3M37 13h1M42 13h2M2 14h2M7 14h4M17 14h2M20 14h2M31 14h1M34 14h2M38 14h1M46 14h1M5 15h1M10 15h3M17 15h2M20 15h1M22 15h1M32 15h7M46 15h1M6 16h2M10 16h1M12 16h2M16 16h2M19 16h1M28 16h1M32 16h4M39 16h1M46 16h1M8 17h2M13 17h5M19 17h1M26 17h2M31 17h4M38 17h2M46 17h1M9 18h1M14 18h3M18 18h3M25 18h1M27 18h1M30 18h1M33 18h1M37 18h4M45 18h1M9 19h1M12 19h1M15 19h2M18 19h1M20 19h1M24 19h1M27 19h1M29 19h2M36 19h6M45 19h1M9 20h1M13 20h2M23 20h3M29 20h1M33 20h3M40 20h4M45 20h1M9 21h1M13 21h1M19 21h1M22 21h5M28 21h2M34 21h1M44 21h1M5 22h2M8 22h1M16 22h1M21 22h6M28 22h2M33 22h1M2 23h3M7 23h2M19 23h4M25 23h1M28 23h2M33 23h1M1 24h1M4 24h4M12 24h9M25 24h1M27 24h2M34 24h1M3 25h1M7 25h1M11 25h2M15 25h4M24 25h1M27 25h2M34 25h1M0 26h1M2 26h1M8 26h1M12 26h1M14 26h4M21 26h3M26 26h2M35 26h1M39 26h3M0 27h1M6 27h6M13 27h1M16 27h5M25 27h2M36 27h1M38 27h1M42 27h2M5 28h1M9 28h7M22 28h4M30 28h3M36 28h1M38 28h1M41 28h4M1 29h1M9 29h1M11 29h2M14 29h11M28 29h5M37 29h1M39 29h6M7 30h2M12 30h4M20 30h4M26 30h6M37 30h1M41 30h2M45 30h1M2 31h1M7 31h1M9 31h1M12 31h1M14 31h1M19 31h12M37 31h1M42 31h1M45 31h1M2 32h2M10 32h2M14 32h1M19 32h12M37 32h1M42 32h4M2 33h6M9 33h2M14 33h1M18 33h13M36 33h1M42 33h4M3 34h4M9 34h2M15 34h1M18 34h7M28 34h2M36 34h1M42 34h1M45 34h1M3 35h1M5 35h1M8 35h2M12 35h2M15 35h1M18 35h4M27 35h3M35 35h2M41 35h1M45 35h1M4 36h1M6 36h3M11 36h4M16 36h1M27 36h2M34 36h4M40 36h3M44 36h1M4 37h1M7 37h2M11 37h5M33 37h4M38 37h2M41 37h4M5 38h2M10 38h1M12 38h6M30 38h6M39 38h1M42 38h2M10 39h1M15 39h6M27 39h4M33 39h1M38 39h2M42 39h1M11 40h2M16 40h3M21 40h14M36 40h6M10 41h7M25 41h5M34 41h5M40 41h1M12 42h4M17 42h1M26 42h3M34 42h3M41 42h2M7 43h3M17 43h1M28 43h2M34 43h1M43 43h1M10 44h2M17 44h1M30 44h4M39 44h2M42 44h2M6 45h1M8 45h2M12 45h1M15 45h2M34 45h2M38 45h1M41 45h1M44 45h1M7 46h1M9 46h1M11 46h4M36 46h4M41 46h2M44 46h1M10 47h1M40 47h1M43 47h1" />
<path stroke="#ffce00" d="M25 1h1M24 2h2M32 3h4M24 4h1M31 4h3M35 4h4M24 5h1M32 5h1M34 5h2M37 5h4M23 6h2M34 6h1M36 6h3M40 6h2M15 7h1M23 7h1M30 7h2M33 7h2M37 7h1M39 7h2M14 8h2M23 8h1M31 8h1M33 8h2M36 8h2M39 8h1M15 9h1M22 9h2M32 9h1M39 9h1M15 10h2M18 10h2M22 10h2M33 10h2M11 11h2M15 11h4M20 11h1M22 11h2M37 11h4M3 12h1M12 12h2M15 12h4M20 12h2M24 12h1M38 12h3M2 13h2M15 13h3M20 13h7M38 13h3M5 14h2M11 14h1M16 14h1M19 14h1M22 14h7M39 14h3M6 15h4M13 15h1M15 15h2M19 15h1M23 15h6M39 15h4M8 16h2M11 16h1M14 16h2M18 16h1M24 16h3M36 16h3M40 16h2M12 17h1M18 17h1M23 17h2M35 17h3M12 18h2M17 18h1M22 18h2M10 19h1M13 19h2M17 19h1M21 19h2M44 19h1M10 20h1M15 20h7M44 20h1M10 21h1M16 21h3M20 21h1M9 22h7M17 22h3M5 23h2M9 23h9M8 24h3M29 24h1M31 24h1M6 25h1M9 25h2M30 25h1M1 26h1M7 26h1M29 26h1M31 26h1M1 27h3M28 27h3M41 27h1M1 28h4M6 28h3M27 28h2M40 28h1M2 29h5M10 29h1M26 29h1M2 30h3M9 30h2M25 30h1M43 30h2M3 31h2M8 31h1M16 31h3M43 31h1M4 32h2M15 32h4M16 33h2M14 34h1M26 34h2M4 35h1M14 35h1M23 35h1M25 35h1M5 36h1M20 36h1M22 36h1M24 36h1M11 38h1M11 39h3M9 42h3M38 42h3M10 43h3M37 43h6M36 44h3M41 44h1M36 45h2M42 45h1" />
</svg>