<svg xmlns="http://www.w3.org/2000/svg" viewBox="0 -0.5 40 40" shape-rendering="crispEdges">
<metadata>Made with Pixels to Svg https://codepen.io/shshaw/pen/XbxvNj</metadata>
<path stroke="#ffffff" d="M0 0h4M5 0h20M27 0h13M0 1h3M4 1h1M6 1h18M25 1h2M28 1h12M0 2h3M4 2h1M6 2h17M24 2h2M28 2h12M0 3h3M4 3h2M7 3h15M23 3h2M27 3h13M0 4h3M7 4h14M22 4h3M27 4h13M0 5h4M8 5h1M16 5h5M22 5h2M27 5h13M0 6h3M18 6h2M21 6h3M26 6h14M0 7h2M3 7h2M19 7h1M21 7h2M26 7h14M0 8h2M3 8h1M10 8h1M20 8h4M27 8h13M0 9h2M3 9h1M6 9h1M15 9h1M20 9h7M28 9h12M0 10h3M20 10h4M27 10h13M0 11h3M21 11h2M26 11h14M0 12h3M7 12h3M22 12h2M26 12h4M33 12h7M0 13h4M6 13h5M23 13h2M26 13h4M35 13h5M0 14h4M6 14h4M25 14h1M27 14h4M36 14h4M0 15h4M21 15h1M27 15h5M37 15h3M0 16h4M20 16h4M26 16h6M37 16h3M0 17h5M20 17h13M38 17h2M0 18h6M19 18h14M38 18h2M0 19h7M19 19h14M39 19h1M0 20h8M18 20h15M39 20h1M0 21h8M9 21h3M18 21h15M39 21h1M0 22h7M8 22h5M18 22h14M39 22h1M0 23h7M8 23h7M18 23h14M39 23h1M0 24h7M8 24h7M18 24h13M39 24h1M0 25h6M7 25h9M18 25h12M39 25h1M0 26h6M7 26h9M19 26h9M39 26h1M0 27h6M7 27h9M21 27h5M38 27h2M0 28h6M7 28h9M38 28h2M0 29h6M7 29h10M38 29h2M0 30h6M8 30h9M37 30h3M0 31h7M9 31h8M37 31h3M0 32h7M9 32h7M36 32h4M0 33h8M10 33h1M12 33h1M14 33h1M16 33h1M35 33h5M0 34h8M11 34h1M13 34h1M15 34h1M17 34h1M34 34h6M0 35h9M12 35h1M14 35h1M16 35h1M33 35h7M0 36h10M32 36h8M0 37h11M30 37h10M0 38h13M27 38h13M0 39h17M23 39h17" />
<path stroke="#735ac5" d="M4 0h1M25 0h1M3 1h1M5 1h1M21 4h1M9 5h1M15 5h1M3 6h1M9 6h7M20 6h1M2 7h1M7 7h3M12 7h6M7 8h2M13 8h2M17 8h2M8 9h1M13 9h1M18 9h1M8 10h2M12 10h2M19 10h1M5 11h1M8 11h6M19 11h1M13 12h2M18 12h1M30 12h1M4 13h1M14 13h6M31 13h2M15 14h5M32 14h3M15 15h5M33 15h3M15 16h4M33 16h3M14 17h5M34 17h3M14 18h4M34 18h3M7 19h1M12 19h6M34 19h4M9 20h8M34 20h4M8 21h1M12 21h5M34 21h4M7 22h1M13 22h5M32 22h6M15 23h2M33 23h5M15 24h2M32 24h6M6 25h1M16 25h1M31 25h7M16 26h2M28 26h1M30 26h8M16 27h3M26 27h1M28 27h9M16 28h5M26 28h11M17 29h20M6 30h1M17 30h19M18 31h18M18 32h17M20 33h14M22 34h11M24 35h6M13 38h1M17 39h1" />
<path stroke="#000000" d="M26 0h1M24 1h1M27 1h1M3 2h1M5 2h1M23 2h1M27 2h1M3 3h1M6 3h1M22 3h1M26 3h1M3 4h1M6 4h1M26 4h1M4 5h1M7 5h1M10 5h5M21 5h1M26 5h1M4 6h1M7 6h2M16 6h2M25 6h1M6 7h1M18 7h1M20 7h1M23 7h1M25 7h1M2 8h1M6 8h1M12 8h1M15 8h2M19 8h1M24 8h3M2 9h1M5 9h1M7 9h1M12 9h1M14 9h1M16 9h2M19 9h1M27 9h1M3 10h1M5 10h1M7 10h1M10 10h2M14 10h1M16 10h3M26 10h1M3 11h1M6 11h2M14 11h5M25 11h1M3 12h1M5 12h2M15 12h3M19 12h1M24 12h2M31 12h2M5 13h1M20 13h1M25 13h1M30 13h1M33 13h2M4 14h1M20 14h2M26 14h1M31 14h1M35 14h1M4 15h1M20 15h1M22 15h2M26 15h1M32 15h1M36 15h1M4 16h1M19 16h1M24 16h2M32 16h1M36 16h1M5 17h1M19 17h1M33 17h1M37 17h1M6 18h2M12 18h2M18 18h1M33 18h1M37 18h1M8 19h4M18 19h1M33 19h1M38 19h1M8 20h1M17 20h1M33 20h1M38 20h1M17 21h1M33 21h1M38 21h1M38 22h1M7 23h1M17 23h1M32 23h1M38 23h1M7 24h1M17 24h1M31 24h1M38 24h1M17 25h1M30 25h1M38 25h1M6 26h1M18 26h1M29 26h1M38 26h1M6 27h1M19 27h2M27 27h1M37 27h1M6 28h1M21 28h5M37 28h1M6 29h1M37 29h1M36 30h1M7 31h1M36 31h1M7 32h1M35 32h1M8 33h1M34 33h1M8 34h1M33 34h1M9 35h1M32 35h1M10 36h1M30 36h2M11 37h2M27 37h3M14 38h3M23 38h4M18 39h5" />
<path stroke="#ad9cc5" d="M26 2h1M25 3h1M4 4h2M25 4h1M5 5h2M24 5h2M5 6h2M24 6h1M5 7h1M10 7h2M24 7h1M4 8h2M9 8h1M11 8h1M4 9h1M9 9h3M4 10h1M6 10h1M15 10h1M24 10h2M4 11h1M20 11h1M23 11h2M4 12h1M10 12h3M20 12h2M11 13h3M21 13h2M5 14h1M10 14h5M22 14h3M5 15h10M24 15h2M5 16h10M6 17h8M8 18h4M7 30h1M8 31h1M17 31h1M8 32h1M16 32h2M9 33h1M11 33h1M13 33h1M15 33h1M17 33h3M9 34h2M12 34h1M14 34h1M16 34h1M18 34h4M10 35h2M13 35h1M15 35h1M17 35h7M30 35h2M11 36h19M13 37h14M17 38h6" />
</svg>