<svg xmlns="http://www.w3.org/2000/svg" viewBox="0 -0.5 48 48" shape-rendering="crispEdges">
<metadata>Made with Pixels to Svg https://codepen.io/shshaw/pen/XbxvNj</metadata>
<path stroke="#ffffff" d="M0 0h2M4 0h37M43 0h5M0 1h1M2 1h2M6 1h34M41 1h2M44 1h4M0 2h1M2 2h3M7 2h33M41 2h2M44 2h4M0 3h2M3 3h3M9 3h30M41 3h3M45 3h3M0 4h2M3 4h4M10 4h28M39 4h2M42 4h2M45 4h3M0 5h3M4 5h4M11 5h27M39 5h2M42 5h3M46 5h2M0 6h1M5 6h4M12 6h25M40 6h1M42 6h3M46 6h2M1 7h4M6 7h3M13 7h18M33 7h2M40 7h2M43 7h2M46 7h2M1 8h5M7 8h3M14 8h15M40 8h2M43 8h3M47 8h1M0 9h1M2 9h5M8 9h3M15 9h12M39 9h3M43 9h3M47 9h1M0 10h2M3 10h5M9 10h3M16 10h9M38 10h8M47 10h1M0 11h1M2 11h1M5 11h7M17 11h7M40 11h5M0 12h1M2 12h3M6 12h5M12 12h1M18 12h5M41 12h3M0 13h1M2 13h4M8 13h3M12 13h2M18 13h4M23 13h1M42 13h1M44 13h1M0 14h2M3 14h5M9 14h3M13 14h2M19 14h3M23 14h2M26 14h1M39 14h1M41 14h1M43 14h1M0 15h3M5 15h8M14 15h1M19 15h2M22 15h2M25 15h2M42 15h1M47 15h1M0 16h5M7 16h5M13 16h1M20 16h1M23 16h1M25 16h1M27 16h2M47 16h1M0 17h4M5 17h2M9 17h2M12 17h3M24 17h2M27 17h2M30 17h1M47 17h1M0 18h3M4 18h7M12 18h4M24 18h1M27 18h1M29 18h2M47 18h1M0 19h3M4 19h8M13 19h3M46 19h2M0 20h4M6 20h7M14 20h2M30 20h1M46 20h2M0 21h6M9 21h4M30 21h2M46 21h2M0 22h6M7 22h5M13 22h3M22 22h1M28 22h1M30 22h2M45 22h3M0 23h7M8 23h4M13 23h4M45 23h3M0 24h8M11 24h2M14 24h3M22 24h2M28 24h5M44 24h4M0 25h9M10 25h4M16 25h2M22 25h1M28 25h5M44 25h4M0 26h10M11 26h5M29 26h4M43 26h5M0 27h11M14 27h4M29 27h2M42 27h6M0 28h11M14 28h5M41 28h7M0 29h11M16 29h4M40 29h8M0 30h10M11 30h1M18 30h2M40 30h8M0 31h10M11 31h2M19 31h2M40 31h8M0 32h11M12 32h2M19 32h2M31 32h1M39 32h9M0 33h12M14 33h2M28 33h5M39 33h9M0 34h14M15 34h3M25 34h9M38 34h10M0 35h15M17 35h2M25 35h10M38 35h10M0 36h17M22 36h2M25 36h10M37 36h11M0 37h14M17 37h2M22 37h2M25 37h10M36 37h12M0 38h13M14 38h2M18 38h1M22 38h1M24 38h10M35 38h13M0 39h13M14 39h2M24 39h8M34 39h14M0 40h13M14 40h1M25 40h5M34 40h14M0 41h14M15 41h2M23 41h2M30 41h1M39 41h9M0 42h18M22 42h9M41 42h7M0 43h19M22 43h8M31 43h1M39 43h2M42 43h6M0 44h19M23 44h7M31 44h1M37 44h1M40 44h1M42 44h6M0 45h19M20 45h2M23 45h8M32 45h2M35 45h2M38 45h2M42 45h6M0 46h19M20 46h2M23 46h12M36 46h1M38 46h10M0 47h20M22 47h13M37 47h11" />
<path stroke="#000000" d="M2 0h2M41 0h2M4 1h2M40 1h1M43 1h1M1 2h1M6 2h1M40 2h1M43 2h1M2 3h1M8 3h1M39 3h2M2 4h1M38 4h1M41 4h1M44 4h1M3 5h1M10 5h1M38 5h1M41 5h1M2 6h3M11 6h1M37 6h1M39 6h1M41 6h1M45 6h1M5 7h1M12 7h1M32 7h1M35 7h2M39 7h1M45 7h1M0 8h1M6 8h1M13 8h1M30 8h1M33 8h2M39 8h1M46 8h1M1 9h1M27 9h2M31 9h2M38 9h1M46 9h1M2 10h1M15 10h1M26 10h1M29 10h2M36 10h2M46 10h1M1 11h1M3 11h2M12 11h1M16 11h1M24 11h1M28 11h1M33 11h2M38 11h2M47 11h1M1 12h1M5 12h1M13 12h1M17 12h1M27 12h1M31 12h2M40 12h1M47 12h1M6 13h1M14 13h1M17 13h1M26 13h1M29 13h2M39 13h2M47 13h1M2 14h1M15 14h1M18 14h1M22 14h1M25 14h1M28 14h1M35 14h4M47 14h1M3 15h2M15 15h1M18 15h1M21 15h1M24 15h1M27 15h1M32 15h2M39 15h2M46 15h1M5 16h2M16 16h1M19 16h1M21 16h1M24 16h1M26 16h1M30 16h2M41 16h2M46 16h1M4 17h1M16 17h1M19 17h1M23 17h1M26 17h1M29 17h1M35 17h6M43 17h1M46 17h1M3 18h1M17 18h1M20 18h1M23 18h1M25 18h1M28 18h1M33 18h3M41 18h2M46 18h1M17 19h1M20 19h1M23 19h1M25 19h1M27 19h1M30 19h3M36 19h1M45 19h1M5 20h1M17 20h1M21 20h1M24 20h1M26 20h1M29 20h1M31 20h3M37 20h1M45 20h1M6 21h2M16 21h1M21 21h2M24 21h3M28 21h2M32 21h3M38 21h1M45 21h1M6 22h1M16 22h1M21 22h1M23 22h1M26 22h2M29 22h1M32 22h4M38 22h1M44 22h1M7 23h1M17 23h1M22 23h1M27 23h3M31 23h5M39 23h1M44 23h1M8 24h3M17 24h1M21 24h1M27 24h1M33 24h3M39 24h1M43 24h1M9 25h1M18 25h1M21 25h1M24 25h4M33 25h2M39 25h1M43 25h1M10 26h1M18 26h1M21 26h1M23 26h4M28 26h1M33 26h2M42 26h1M11 27h2M22 27h1M25 27h2M28 27h1M32 27h2M41 27h1M13 28h1M25 28h1M28 28h1M40 28h1M11 29h1M14 29h2M26 29h2M39 29h1M12 30h1M16 30h2M39 30h1M10 31h1M13 31h1M18 31h1M39 31h1M11 32h1M14 32h2M18 32h1M38 32h1M13 33h1M16 33h2M19 33h2M38 33h1M14 34h1M18 34h1M37 34h1M16 35h1M22 35h2M37 35h1M17 36h2M21 36h1M24 36h1M36 36h1M14 37h3M19 37h1M21 37h1M24 37h1M17 38h1M19 38h2M23 38h1M34 38h1M13 39h1M18 39h1M20 39h1M23 39h1M32 39h2M13 40h1M15 40h2M19 40h1M22 40h3M30 40h2M33 40h1M14 41h1M17 41h1M22 41h1M25 41h5M31 41h1M34 41h5M18 42h1M21 42h1M31 42h2M39 42h1M19 43h1M21 43h1M30 43h1M36 43h2M20 44h1M22 44h1M30 44h1M32 44h2M36 44h1M38 44h2M41 44h1M19 45h1M22 45h1M31 45h1M34 45h1M37 45h1M41 45h1M19 46h1M22 46h1M35 46h1M37 46h1M20 47h2M35 47h2" />
<path stroke="#9c7329" d="M1 1h1M5 2h1M6 3h2M44 3h1M7 4h3M8 5h2M45 5h1M1 6h1M9 6h2M0 7h1M9 7h3M31 7h1M42 7h1M10 8h3M29 8h1M42 8h1M7 9h1M11 9h4M42 9h1M8 10h1M12 10h3M25 10h1M13 11h3M35 11h1M45 11h2M11 12h1M14 12h3M23 12h1M45 12h2M1 13h1M7 13h1M11 13h1M15 13h2M22 13h1M37 13h2M45 13h2M8 14h1M12 14h1M16 14h2M34 14h1M44 14h3M13 15h1M16 15h2M44 15h2M14 16h1M17 16h2M43 16h3M7 17h2M11 17h1M17 17h2M20 17h1M44 17h2M11 18h1M18 18h2M36 18h5M43 18h3M3 19h1M12 19h1M18 19h2M33 19h3M37 19h8M4 20h1M13 20h1M18 20h3M34 20h3M38 20h7M8 21h1M14 21h1M17 21h4M35 21h3M39 21h6M12 22h1M17 22h4M36 22h2M39 22h5M12 23h1M18 23h4M30 23h1M36 23h3M40 23h4M13 24h1M18 24h3M36 24h3M40 24h3M14 25h2M19 25h2M35 25h4M40 25h3M16 26h2M19 26h2M35 26h7M13 27h1M19 27h3M23 27h2M34 27h7M11 28h1M20 28h5M31 28h9M20 29h6M28 29h11M10 30h1M21 30h18M21 31h18M21 32h8M32 32h6M12 33h1M21 33h5M34 33h4M20 34h4M35 34h2M15 35h1M19 35h3M24 35h1M36 35h1M19 36h2M20 37h1M35 37h1M13 38h1M21 38h1M19 39h1M22 39h1M19 41h2M40 42h1M32 43h1M35 43h1M38 43h1M41 43h1M19 44h1M40 45h1" />
<path stroke="#ad9c29" d="M38 6h1M37 7h2M31 8h2M35 8h4M29 9h2M33 9h5M27 10h2M31 10h5M25 11h3M29 11h4M36 11h2M24 12h3M28 12h3M33 12h7M44 12h1M24 13h2M27 13h2M31 13h6M41 13h1M43 13h1M27 14h1M29 14h5M40 14h1M42 14h1M28 15h4M34 15h5M41 15h1M43 15h1M12 16h1M15 16h1M22 16h1M29 16h1M32 16h9M15 17h1M21 17h2M31 17h4M41 17h2M16 18h1M21 18h2M26 18h1M31 18h2M16 19h1M21 19h2M24 19h1M26 19h1M28 19h2M16 20h1M22 20h2M25 20h1M27 20h2M13 21h1M15 21h1M23 21h1M27 21h1M24 22h2M23 23h4M24 24h3M23 25h1M22 26h1M27 26h1M18 27h1M27 27h1M31 27h1M12 28h1M19 28h1M26 28h2M29 28h2M12 29h2M13 30h3M20 30h1M14 31h4M16 32h2M29 32h2M18 33h1M26 33h2M33 33h1M19 34h1M24 34h1M34 34h1M35 35h1M35 36h1M16 38h1M16 39h2M21 39h1M17 40h2M20 40h2M32 40h1M18 41h1M21 41h1M32 41h2M19 42h2M33 42h6M20 43h1M33 43h2M21 44h1M34 44h2" />
</svg>