<svg xmlns="http://www.w3.org/2000/svg" viewBox="0 -0.5 40 40" shape-rendering="crispEdges">
<metadata>Made with Pixels to Svg https://codepen.io/shshaw/pen/XbxvNj</metadata>
<path stroke="#ffffff" d="M0 0h40M0 1h34M37 1h3M0 2h33M38 2h2M0 3h30M34 3h2M39 3h1M0 4h27M34 4h2M39 4h1M0 5h25M37 5h1M39 5h1M0 6h17M20 6h3M36 6h1M38 6h2M0 7h14M17 7h3M21 7h2M31 7h3M37 7h3M0 8h12M14 8h7M24 8h2M30 8h10M0 9h11M12 9h10M25 9h4M30 9h10M0 10h10M12 10h9M22 10h1M26 10h4M31 10h9M0 11h9M14 11h8M25 11h4M32 11h8M0 12h7M9 12h3M16 12h3M20 12h1M22 12h1M24 12h1M26 12h1M28 12h1M30 12h1M33 12h7M0 13h6M7 13h6M19 13h1M21 13h1M23 13h1M25 13h1M27 13h1M29 13h1M31 13h1M34 13h6M0 14h5M6 14h7M20 14h1M22 14h1M24 14h7M32 14h1M34 14h6M0 15h4M6 15h6M23 15h7M31 15h1M35 15h5M0 16h3M5 16h4M22 16h9M32 16h1M35 16h5M0 17h3M4 17h1M6 17h1M9 17h4M22 17h10M36 17h4M0 18h2M8 18h5M14 18h1M22 18h11M36 18h4M0 19h2M8 19h4M13 19h1M23 19h9M37 19h3M0 20h2M8 20h3M14 20h1M25 20h7M37 20h3M0 21h2M5 21h1M9 21h1M20 21h1M24 21h1M26 21h1M28 21h1M30 21h1M37 21h3M0 22h1M6 22h1M20 22h1M25 22h1M27 22h1M29 22h1M37 22h3M0 23h1M37 23h3M0 24h1M2 24h1M37 24h3M0 25h1M2 25h2M36 25h4M0 26h2M3 26h2M7 26h1M14 26h1M36 26h4M0 27h2M3 27h3M32 27h1M34 27h1M36 27h4M0 28h3M5 28h1M29 28h1M31 28h1M33 28h2M36 28h4M0 29h3M4 29h1M28 29h1M30 29h4M35 29h5M0 30h3M5 30h1M29 30h5M35 30h5M0 31h4M6 31h1M30 31h3M34 31h6M0 32h4M5 32h1M33 32h7M0 33h5M18 33h1M20 33h1M33 33h7M0 34h6M17 34h1M19 34h1M21 34h1M27 34h1M33 34h7M0 35h6M18 35h1M20 35h1M26 35h2M32 35h8M0 36h6M13 36h4M19 36h1M26 36h3M32 36h8M0 37h6M10 37h9M26 37h14M0 38h7M9 38h13M26 38h14M0 39h23M25 39h15" />
<path stroke="#000000" d="M34 1h3M37 2h1M30 3h2M38 3h1M28 4h2M32 4h1M38 4h1M25 5h2M30 5h3M38 5h1M18 6h2M24 6h1M26 6h2M31 6h3M37 6h1M15 7h2M20 7h1M23 7h6M30 7h1M34 7h3M12 8h2M22 8h2M27 8h1M29 8h1M11 9h1M24 9h1M29 9h1M10 10h1M9 11h3M31 11h1M7 12h2M32 12h1M6 13h1M33 13h1M5 14h1M33 14h1M4 15h2M34 15h1M3 16h1M9 16h4M34 16h1M3 17h1M8 17h1M13 17h2M34 17h1M2 18h1M7 18h1M15 18h1M35 18h1M2 19h1M5 19h3M16 19h1M3 20h2M6 20h1M11 20h2M16 20h5M36 20h1M2 21h3M6 21h1M10 21h1M13 21h1M17 21h2M21 21h2M36 21h1M1 22h3M7 22h1M14 22h1M16 22h1M23 22h1M36 22h1M1 23h3M6 23h3M13 23h1M15 23h3M21 23h3M36 23h1M1 24h1M3 24h1M6 24h2M9 24h4M16 24h3M22 24h2M34 24h1M36 24h1M1 25h1M4 25h3M17 25h2M21 25h1M34 25h1M2 26h1M6 26h1M8 26h1M15 26h1M17 26h4M35 26h1M2 27h1M6 27h3M14 27h2M18 27h1M35 27h1M3 28h1M7 28h1M17 28h1M35 28h1M3 29h1M7 29h1M17 29h1M34 29h1M3 30h1M8 30h1M16 30h1M34 30h1M4 31h1M8 31h1M15 31h1M33 31h1M4 32h1M9 32h2M13 32h2M30 32h3M5 33h1M11 33h2M27 33h1M30 33h1M32 33h1M6 34h2M26 34h1M28 34h1M31 34h1M6 35h1M8 35h3M13 35h4M24 35h2M28 35h1M30 35h2M6 36h1M9 36h4M17 36h2M22 36h2M25 36h1M29 36h2M6 37h1M8 37h2M19 37h3M25 37h1M7 38h2M22 38h1M24 38h2M23 39h2" />
<path stroke="#52299c" d="M33 2h1M32 3h1M27 4h1M30 4h2M36 4h1M35 5h2M17 6h1M23 6h1M25 6h1M28 6h1M14 7h1M28 8h1M30 10h1M29 11h2M12 12h2M14 13h1M15 14h1M35 17h1M33 18h1M33 19h1M36 19h1M5 20h1M19 21h1M4 22h1M17 22h2M21 22h2M14 23h1M18 23h1M33 23h1M4 24h1M8 24h1M13 24h3M21 24h1M7 25h10M19 25h1M35 25h1M9 26h5M16 26h1M9 27h5M16 27h2M4 28h1M8 28h9M8 29h9M9 30h7M26 30h1M9 31h6M27 31h1M11 32h2M27 32h1M26 33h1M28 33h2M31 33h1M15 34h1M29 34h2M32 34h1M7 35h1M29 35h1M7 36h2M24 36h1M31 36h1M7 37h1M22 37h3M23 38h1" />
<path stroke="#ff84ff" d="M34 2h3M33 3h1M36 3h2M33 4h1M37 4h1M27 5h3M33 5h2M29 6h2M34 6h2M29 7h1M21 8h1M26 8h1M22 9h2M11 10h1M21 10h1M23 10h3M12 11h2M22 11h3M14 12h2M19 12h1M21 12h1M23 12h1M25 12h1M27 12h1M29 12h1M31 12h1M13 13h1M15 13h4M20 13h1M22 13h1M24 13h1M26 13h1M28 13h1M30 13h1M32 13h1M13 14h2M16 14h4M21 14h1M23 14h1M31 14h1M12 15h11M30 15h1M32 15h2M4 16h1M13 16h9M31 16h1M33 16h1M5 17h1M7 17h1M15 17h7M32 17h2M3 18h4M13 18h1M16 18h6M34 18h1M3 19h2M12 19h1M14 19h2M17 19h6M32 19h1M34 19h2M2 20h1M7 20h1M13 20h1M15 20h1M21 20h4M32 20h4M7 21h2M11 21h2M14 21h3M23 21h1M25 21h1M27 21h1M29 21h1M31 21h5M5 22h1M8 22h6M15 22h1M19 22h1M24 22h1M26 22h1M28 22h1M30 22h6M4 23h2M9 23h4M19 23h2M24 23h9M34 23h2M5 24h1M19 24h2M24 24h10M35 24h1M20 25h1M22 25h12M5 26h1M21 26h14M19 27h13M33 27h1M6 28h1M18 28h11M30 28h1M32 28h1M5 29h2M18 29h10M29 29h1M4 30h1M6 30h2M17 30h9M27 30h2M5 31h1M7 31h1M16 31h11M28 31h2M6 32h3M15 32h12M28 32h2M6 33h5M13 33h5M19 33h1M21 33h5M8 34h7M16 34h1M18 34h1M20 34h1M22 34h4M11 35h2M17 35h1M19 35h1M21 35h3M20 36h2" />
</svg>