<svg xmlns="http://www.w3.org/2000/svg" viewBox="0 -0.5 56 56" shape-rendering="crispEdges">
<metadata>Made with Pixels to Svg https://codepen.io/shshaw/pen/XbxvNj</metadata>
<path stroke="#ffffff" d="M0 0h23M25 0h31M0 1h22M26 1h30M0 2h21M27 2h29M0 3h20M27 3h29M0 4h20M21 4h1M27 4h29M0 5h15M20 5h1M27 5h29M0 6h13M15 6h5M26 6h30M0 7h12M13 7h4M26 7h30M0 8h2M7 8h3M12 8h2M27 8h5M34 8h22M0 9h1M19 9h1M27 9h3M32 9h1M34 9h22M0 10h1M25 10h1M27 10h1M30 10h2M33 10h23M0 11h1M26 11h1M28 11h2M32 11h24M0 12h1M30 12h1M34 12h7M45 12h11M0 13h2M14 13h2M31 13h3M35 13h4M41 13h4M47 13h9M0 14h3M14 14h4M34 14h4M39 14h3M48 14h8M0 15h4M14 15h1M16 15h3M31 15h6M38 15h2M47 15h1M50 15h6M0 16h6M16 16h2M30 16h1M34 16h3M38 16h1M48 16h1M51 16h5M0 17h6M8 17h1M31 17h3M35 17h1M37 17h1M41 17h1M51 17h5M0 18h4M6 18h2M26 18h1M28 18h3M34 18h2M37 18h1M52 18h4M0 19h3M4 19h2M8 19h2M28 19h9M53 19h3M0 20h3M6 20h2M10 20h2M21 20h1M29 20h8M45 20h2M54 20h2M0 21h6M8 21h2M29 21h9M45 21h3M54 21h2M0 22h5M6 22h2M10 22h2M30 22h10M43 22h6M55 22h1M0 23h4M5 23h1M8 23h4M13 23h1M30 23h19M55 23h1M0 24h4M6 24h5M12 24h1M31 24h19M55 24h1M0 25h10M11 25h1M32 25h18M0 26h9M10 26h1M12 26h1M33 26h18M0 27h9M11 27h2M34 27h17M0 28h13M36 28h15M0 29h13M37 29h14M0 30h14M39 30h12M0 31h14M41 31h10M0 32h14M42 32h9M0 33h14M43 33h8M0 34h14M44 34h6M0 35h13M45 35h5M55 35h1M0 36h13M18 36h1M46 36h4M55 36h1M0 37h13M17 37h1M46 37h3M55 37h1M0 38h12M16 38h2M47 38h1M54 38h2M0 39h12M14 39h3M54 39h2M0 40h11M12 40h4M53 40h3M0 41h10M11 41h4M52 41h4M0 42h10M11 42h4M52 42h4M0 43h10M12 43h2M19 43h1M50 43h6M0 44h10M19 44h1M48 44h8M0 45h9M10 45h1M19 45h1M47 45h9M0 46h6M9 46h2M20 46h1M47 46h9M0 47h5M6 47h4M18 47h2M46 47h10M0 48h4M5 48h2M18 48h1M20 48h1M46 48h10M0 49h4M16 49h3M45 49h11M0 50h4M15 50h8M45 50h11M0 51h5M14 51h12M28 51h1M45 51h11M0 52h6M12 52h13M26 52h2M44 52h12M0 53h26M28 53h3M43 53h13M0 54h26M27 54h2M34 54h22M0 55h26M29 55h27" />
<path stroke="#000000" d="M23 0h2M22 1h4M21 2h5M20 3h2M23 3h2M26 3h1M20 4h1M22 4h3M26 4h1M16 5h3M22 5h2M26 5h1M14 6h1M22 6h2M25 6h1M12 7h1M23 7h1M25 7h1M3 8h3M10 8h1M19 8h2M26 8h1M2 9h9M18 9h1M21 9h1M25 9h2M1 10h12M18 10h1M21 10h1M24 10h1M26 10h1M32 10h1M1 11h3M8 11h3M19 11h2M24 11h1M27 11h1M30 11h2M1 12h2M13 12h2M27 12h3M41 12h3M2 13h1M13 13h1M16 13h2M25 13h1M28 13h1M40 13h1M45 13h1M3 14h1M18 14h1M28 14h1M31 14h3M46 14h2M4 15h2M8 15h1M15 15h1M19 15h1M28 15h2M37 15h1M48 15h1M6 16h4M15 16h1M25 16h1M27 16h2M42 16h2M49 16h1M23 17h2M26 17h5M36 17h1M44 17h1M50 17h1M8 18h3M24 18h2M27 18h1M31 18h3M36 18h1M40 18h1M45 18h1M51 18h1M6 19h2M17 19h1M22 19h6M41 19h1M45 19h2M52 19h1M4 20h2M12 20h2M18 20h3M25 20h2M28 20h1M37 20h1M44 20h1M47 20h1M52 20h1M10 21h3M17 21h1M20 21h2M26 21h1M28 21h1M38 21h2M43 21h1M48 21h1M53 21h1M8 22h2M12 22h1M18 22h2M22 22h1M26 22h1M29 22h1M40 22h3M49 22h1M53 22h1M6 23h2M14 23h1M20 23h3M54 23h1M13 24h1M22 24h1M25 24h1M30 24h1M50 24h1M54 24h1M12 25h2M23 25h2M31 25h1M50 25h1M13 26h1M32 26h1M51 26h1M55 26h1M13 27h1M51 27h1M55 27h1M13 28h1M34 28h2M51 28h1M55 28h1M36 29h1M51 29h1M55 29h1M14 30h1M37 30h2M51 30h1M55 30h1M14 31h1M19 31h1M39 31h1M51 31h1M55 31h1M14 32h1M19 32h1M41 32h1M51 32h1M55 32h1M14 33h1M19 33h1M42 33h1M51 33h1M55 33h1M14 34h1M16 34h1M18 34h1M43 34h1M18 35h1M27 35h1M44 35h1M50 35h1M54 35h1M13 36h1M17 36h1M27 36h1M45 36h1M50 36h1M54 36h1M13 37h1M16 37h1M26 37h1M32 37h4M45 37h1M49 37h1M12 38h1M15 38h1M26 38h1M29 38h2M36 38h1M46 38h1M48 38h1M53 38h1M12 39h2M25 39h1M28 39h1M46 39h2M53 39h1M11 40h1M24 40h1M27 40h1M47 40h1M52 40h1M22 41h2M47 41h1M51 41h1M10 42h1M19 42h3M23 42h2M26 42h1M47 42h1M50 42h1M10 43h1M17 43h2M20 43h1M24 43h2M47 43h3M10 44h1M18 44h1M20 44h1M25 44h1M47 44h1M9 45h1M11 45h1M18 45h1M21 45h1M24 45h1M26 45h1M46 45h1M7 46h2M11 46h1M18 46h2M21 46h3M25 46h2M46 46h1M5 47h1M12 47h1M17 47h1M20 47h1M22 47h1M24 47h1M26 47h2M45 47h1M13 48h5M19 48h1M21 48h1M23 48h1M25 48h1M27 48h3M43 48h3M4 49h1M15 49h1M19 49h4M24 49h1M26 49h1M28 49h8M44 49h1M4 50h1M14 50h1M23 50h6M44 50h1M5 51h1M12 51h1M26 51h1M7 52h4M25 52h1M28 52h2M43 52h1M27 53h1M34 53h8M26 54h1M29 54h4M26 55h3" />
<path stroke="#e64ade" d="M26 2h1M22 3h1M25 3h1M25 4h1M15 5h1M19 5h1M24 5h2M13 6h1M24 6h1M2 8h1M6 8h1M11 8h1M23 8h1M32 8h2M1 9h1M11 9h1M20 9h1M30 9h2M33 9h1M13 10h1M19 10h2M28 10h2M4 11h4M11 11h1M25 11h1M3 12h7M12 12h1M15 12h1M25 12h1M31 12h3M44 12h1M3 13h7M29 13h2M34 13h1M39 13h1M46 13h1M4 14h5M13 14h1M19 14h1M38 14h1M6 15h2M13 15h1M30 15h1M49 15h1M14 16h1M18 16h1M31 16h3M37 16h1M41 16h1M50 16h1M6 17h2M34 17h1M40 17h1M4 18h2M3 19h1M10 19h1M21 19h1M37 19h1M3 20h1M8 20h2M22 20h3M53 20h1M6 21h2M14 21h1M19 21h1M22 21h4M44 21h1M5 22h1M13 22h1M23 22h1M25 22h1M54 22h1M4 23h1M12 23h1M15 23h1M23 23h4M29 23h1M49 23h2M4 24h2M11 24h1M23 24h2M10 25h1M55 25h1M9 26h1M11 26h1M9 27h2M33 27h1M13 29h1M19 30h1M40 31h1M40 32h1M16 33h1M28 33h1M27 34h3M50 34h1M55 34h1M13 35h1M17 35h1M28 35h3M28 36h5M27 37h5M38 37h1M51 37h1M53 37h2M14 38h1M27 38h2M37 38h1M50 38h1M52 38h1M26 39h2M48 39h2M51 39h1M23 40h1M25 40h2M48 40h4M10 41h1M21 41h1M24 41h3M48 41h3M16 42h1M22 42h1M25 42h1M48 42h2M51 42h1M21 43h3M15 44h1M21 44h4M16 45h2M20 45h1M22 45h2M25 45h1M6 46h1M13 46h1M24 46h1M27 46h1M45 46h1M14 47h2M21 47h1M23 47h1M25 47h1M28 47h3M42 47h3M4 48h1M22 48h1M24 48h1M26 48h1M30 48h6M40 48h3M7 49h1M23 49h1M25 49h1M27 49h1M36 49h8M6 50h1M9 50h1M29 50h15M6 51h1M9 51h1M13 51h1M27 51h1M29 51h1M32 51h13M6 52h1M11 52h1M30 52h1M33 52h10M26 53h1M31 53h1M33 53h1M42 53h1M33 54h1" />
<path stroke="#ffe652" d="M21 5h1M20 6h2M17 7h6M24 7h1M14 8h5M21 8h2M24 8h2M12 9h6M22 9h3M14 10h4M22 10h2M12 11h7M21 11h3M10 12h2M16 12h9M26 12h1M10 13h3M18 13h7M26 13h2M9 14h4M20 14h8M29 14h2M42 14h4M9 15h4M20 15h8M40 15h7M10 16h4M19 16h6M26 16h1M29 16h1M39 16h2M44 16h4M9 17h14M25 17h1M38 17h2M42 17h2M45 17h5M11 18h13M38 18h2M41 18h4M46 18h5M11 19h6M18 19h3M38 19h3M42 19h3M47 19h5M14 20h4M27 20h1M38 20h6M48 20h4M13 21h1M15 21h2M18 21h1M27 21h1M40 21h3M49 21h4M14 22h4M20 22h2M24 22h1M27 22h2M50 22h3M16 23h4M27 23h2M51 23h3M14 24h8M26 24h4M51 24h3M14 25h9M25 25h6M51 25h4M14 26h18M52 26h3M14 27h19M52 27h3M14 28h20M52 28h3M14 29h22M52 29h3M15 30h4M20 30h17M52 30h3M15 31h4M20 31h19M52 31h3M15 32h4M20 32h20M52 32h3M15 33h1M17 33h2M20 33h8M29 33h13M52 33h3M15 34h1M17 34h1M19 34h8M30 34h13M51 34h4M14 35h3M19 35h8M31 35h13M51 35h3M14 36h3M19 36h8M33 36h12M51 36h3M14 37h2M18 37h8M36 37h2M39 37h6M50 37h1M52 37h1M13 38h1M18 38h8M31 38h5M38 38h8M49 38h1M51 38h1M17 39h8M29 39h17M50 39h1M52 39h1M16 40h7M28 40h19M15 41h6M27 41h20M15 42h1M17 42h2M27 42h20M11 43h1M14 43h3M26 43h21M11 44h4M16 44h2M26 44h21M12 45h4M27 45h19M12 46h1M14 46h4M28 46h17M10 47h2M13 47h1M16 47h1M31 47h11M7 48h6M36 48h4M5 49h2M8 49h7M5 50h1M7 50h2M10 50h4M7 51h2M10 51h2M30 51h2M31 52h2M32 53h1" />
</svg>