<svg xmlns="http://www.w3.org/2000/svg" viewBox="0 -0.5 40 40" shape-rendering="crispEdges">
<metadata>Made with Pixels to Svg https://codepen.io/shshaw/pen/XbxvNj</metadata>
<path stroke="#ffffff" d="M0 0h11M13 0h27M0 1h10M14 1h26M0 2h10M15 2h2M22 2h18M0 3h10M24 3h3M31 3h9M0 4h10M12 4h1M32 4h8M0 5h11M12 5h1M15 5h4M32 5h8M0 6h11M14 6h3M28 6h1M31 6h9M0 7h7M14 7h2M27 7h1M31 7h9M0 8h5M30 8h10M0 9h4M7 9h2M30 9h10M0 10h4M6 10h2M32 10h8M0 11h4M34 11h6M0 12h4M30 12h2M35 12h5M0 13h5M30 13h2M35 13h5M0 14h6M36 14h4M0 15h7M36 15h4M0 16h7M36 16h4M0 17h6M35 17h5M0 18h5M7 18h8M33 18h7M0 19h5M12 19h3M31 19h9M0 20h5M13 20h1M18 20h4M30 20h10M0 21h5M20 21h4M29 21h11M3 22h4M9 22h1M23 22h2M31 22h9M1 23h2M4 23h3M8 23h1M34 23h6M0 24h1M3 24h1M5 24h2M30 24h2M36 24h4M0 25h1M30 25h4M37 25h3M0 26h2M18 26h1M24 26h1M34 26h2M38 26h2M0 27h2M39 27h1M0 28h2M23 28h1M39 28h1M0 29h2M13 29h2M0 30h3M12 30h5M26 30h4M0 31h3M11 31h6M26 31h6M0 32h4M11 32h7M25 32h8M0 33h5M11 33h7M25 33h8M0 34h5M10 34h8M25 34h7M39 34h1M0 35h5M9 35h9M25 35h6M39 35h1M0 36h4M5 36h1M9 36h9M24 36h5M37 36h3M0 37h4M7 37h12M20 37h1M24 37h4M35 37h5M0 38h19M23 38h5M32 38h8M0 39h19M22 39h18" />
<path stroke="#000000" d="M11 0h2M10 1h1M10 2h1M14 2h1M19 2h2M10 3h1M12 3h1M15 3h2M22 3h1M28 3h3M13 4h1M24 4h2M31 4h1M11 5h1M13 5h1M28 5h1M31 5h1M11 6h1M27 6h1M30 6h1M8 7h3M26 7h1M30 7h1M6 8h1M9 8h1M29 8h1M4 9h1M9 9h1M29 9h1M4 10h1M9 10h1M28 10h1M30 10h1M4 11h1M9 11h1M13 11h1M29 11h1M32 11h1M10 12h1M14 12h1M29 12h1M34 12h1M5 13h1M11 13h1M15 13h1M23 13h2M29 13h1M6 14h2M11 14h1M21 14h1M28 14h1M35 14h1M7 15h6M20 15h1M27 15h1M35 15h1M7 16h1M9 16h5M26 16h1M35 16h1M6 17h3M13 17h2M23 17h3M33 17h2M5 18h1M15 18h1M20 18h7M31 18h2M5 19h1M16 19h2M22 19h4M27 19h4M5 20h1M16 20h1M24 20h2M29 20h1M6 21h1M8 21h2M15 21h1M26 21h1M28 21h1M0 22h3M7 22h2M10 22h2M15 22h1M27 22h3M0 23h1M3 23h1M7 23h1M10 23h1M12 23h4M27 23h2M31 23h2M1 24h1M4 24h1M7 24h1M10 24h1M13 24h1M15 24h1M17 24h2M26 24h3M34 24h1M1 25h1M4 25h1M6 25h2M10 25h1M13 25h1M16 25h1M18 25h5M24 25h4M36 25h1M2 26h1M6 26h1M10 26h1M12 26h2M17 26h1M19 26h1M23 26h1M25 26h1M27 26h1M37 26h1M2 27h1M12 27h2M16 27h2M19 27h1M23 27h1M25 27h1M27 27h1M2 28h1M12 28h6M20 28h1M22 28h1M25 28h2M38 28h1M2 29h1M11 29h2M16 29h2M21 29h2M25 29h5M39 29h1M3 30h1M11 30h1M17 30h1M25 30h1M31 30h2M39 30h1M3 31h1M10 31h1M17 31h1M25 31h1M32 31h2M39 31h1M4 32h1M10 32h1M18 32h1M24 32h1M33 32h1M39 32h1M5 33h1M9 33h2M18 33h1M24 33h1M33 33h1M5 34h1M9 34h1M18 34h1M24 34h1M32 34h1M38 34h1M5 35h1M8 35h1M18 35h1M24 35h1M31 35h1M37 35h1M4 36h1M7 36h2M18 36h1M20 36h1M23 36h1M30 36h1M35 36h1M4 37h3M19 37h1M23 37h1M28 37h1M32 37h2M19 38h1M22 38h1M28 38h3M19 39h3" />
<path stroke="#e6c552" d="M11 1h2M11 2h3M11 3h1M13 3h2M17 3h5M11 4h1M14 4h10M27 4h4M14 5h1M19 5h9M29 5h2M12 6h1M17 6h9M29 6h1M12 7h2M16 7h10M28 7h2M11 8h15M27 8h2M10 9h18M8 10h1M10 10h18M6 11h3M10 11h2M14 11h15M11 12h3M15 12h14M12 13h3M16 13h6M25 13h4M32 13h1M13 14h2M16 14h4M22 14h6M30 14h2M13 15h7M21 15h6M8 16h1M14 16h11M9 17h4M15 17h1M17 17h5M16 18h3M6 19h6M15 19h1M19 19h3M26 19h1M6 20h7M14 20h2M17 20h1M22 20h2M26 20h2M7 21h1M10 21h5M17 21h3M24 21h2M27 21h1M12 22h3M16 22h1M18 22h5M25 22h2M9 23h1M11 23h1M16 23h1M18 23h9M29 23h2M2 24h1M8 24h2M11 24h2M14 24h1M16 24h1M19 24h7M29 24h1M32 24h2M2 25h2M8 25h2M11 25h2M14 25h2M17 25h1M23 25h1M28 25h2M34 25h2M3 26h2M7 26h3M11 26h1M14 26h3M20 26h3M29 26h5M36 26h1M3 27h7M11 27h1M14 27h2M18 27h1M20 27h3M24 27h1M28 27h1M30 27h1M32 27h6M3 28h9M18 28h2M21 28h1M24 28h1M29 28h1M31 28h4M3 29h8M18 29h3M23 29h2M32 29h2M4 30h7M18 30h7M33 30h1M36 30h2M4 31h6M18 31h7M35 31h4M5 32h4M19 32h5M35 32h4M19 33h5M34 33h5M6 34h2M19 34h5M33 34h5M6 35h2M20 35h3M32 35h5M6 36h1M31 36h4M21 37h1M29 37h3M20 38h2" />
<path stroke="#a54a9c" d="M13 1h1M17 2h2M21 2h1M23 3h1M27 3h1M10 4h1M26 4h1M13 6h1M26 6h1M7 7h1M11 7h1M5 8h1M7 8h2M10 8h1M26 8h1M5 9h2M28 9h1M5 10h1M29 10h1M31 10h1M5 11h1M12 11h1M30 11h2M33 11h1M4 12h6M32 12h2M6 13h5M22 13h1M33 13h2M8 14h3M12 14h1M15 14h1M20 14h1M29 14h1M32 14h3M28 15h7M25 16h1M27 16h8M16 17h1M22 17h1M26 17h7M6 18h1M19 18h1M27 18h4M18 19h1M28 20h1M5 21h1M16 21h1M17 22h1M30 22h1M17 23h1M33 23h1M35 24h1M5 25h1M5 26h1M26 26h1M28 26h1M10 27h1M26 27h1M29 27h1M31 27h1M38 27h1M27 28h2M30 28h1M35 28h3M15 29h1M30 29h2M34 29h5M30 30h1M34 30h2M38 30h1M34 31h1M9 32h1M34 32h1M6 33h3M39 33h1M8 34h1M19 35h1M23 35h1M38 35h1M19 36h1M21 36h2M29 36h1M36 36h1M22 37h1M34 37h1M31 38h1" />
</svg>