<svg xmlns="http://www.w3.org/2000/svg" viewBox="0 -0.5 56 56" shape-rendering="crispEdges">
<metadata>Made with Pixels to Svg https://codepen.io/shshaw/pen/XbxvNj</metadata>
<path stroke="#ffffff" d="M0 0h56M0 1h56M0 2h26M29 2h27M0 3h24M26 3h3M31 3h25M0 4h22M24 4h7M33 4h23M0 5h21M22 5h2M32 5h1M34 5h22M0 6h20M21 6h1M26 6h3M33 6h1M35 6h21M0 7h19M20 7h1M24 7h7M35 7h21M0 8h18M19 8h1M22 8h10M34 8h1M36 8h20M0 9h12M15 9h2M18 9h1M21 9h1M26 9h7M35 9h1M37 9h19M0 10h9M17 10h1M28 10h5M35 10h1M37 10h19M0 11h7M17 11h1M21 11h1M23 11h1M29 11h5M36 11h1M38 11h18M0 12h5M7 12h1M9 12h1M11 12h1M13 12h1M16 12h1M20 12h1M22 12h1M24 12h1M30 12h4M36 12h1M38 12h18M0 13h4M6 13h1M8 13h1M10 13h1M12 13h1M16 13h1M19 13h1M21 13h1M23 13h1M31 13h4M38 13h18M0 14h3M5 14h1M7 14h1M9 14h1M11 14h1M13 14h1M20 14h1M31 14h4M37 14h1M39 14h17M0 15h2M4 15h1M6 15h1M8 15h1M10 15h1M12 15h1M15 15h1M19 15h1M32 15h3M37 15h1M39 15h17M0 16h2M3 16h1M5 16h1M7 16h1M9 16h1M11 16h1M15 16h1M18 16h1M20 16h1M32 16h4M37 16h1M39 16h17M0 17h1M2 17h3M6 17h1M8 17h1M10 17h1M17 17h1M19 17h1M33 17h3M37 17h2M40 17h16M0 18h1M5 18h1M7 18h1M9 18h1M16 18h1M18 18h1M33 18h3M38 18h1M40 18h16M0 19h5M6 19h1M8 19h1M10 19h1M17 19h1M27 19h3M33 19h4M38 19h1M40 19h16M0 20h5M7 20h1M9 20h1M30 20h1M33 20h4M40 20h16M0 21h5M6 21h1M8 21h1M29 21h1M32 21h5M41 21h15M0 22h6M7 22h1M9 22h1M29 22h9M41 22h15M0 23h6M7 23h2M30 23h8M41 23h15M0 24h6M8 24h2M30 24h8M42 24h14M0 25h6M8 25h1M30 25h9M42 25h14M0 26h5M9 26h1M30 26h9M43 26h11M55 26h1M0 27h5M9 27h1M30 27h10M43 27h10M54 27h1M0 28h5M6 28h1M10 28h1M21 28h1M31 28h9M42 28h1M44 28h8M53 28h2M0 29h5M6 29h1M10 29h1M21 29h2M31 29h10M42 29h1M44 29h5M52 29h3M0 30h5M6 30h1M9 30h1M21 30h3M31 30h10M43 30h1M45 30h3M49 30h5M55 30h1M0 31h6M9 31h2M21 31h2M32 31h10M44 31h1M49 31h3M55 31h1M0 32h6M32 32h5M46 32h1M54 32h2M0 33h7M32 33h3M38 33h3M42 33h1M53 33h3M0 34h7M37 34h1M39 34h3M52 34h4M0 35h8M13 35h4M24 35h1M28 35h1M38 35h1M40 35h1M42 35h1M51 35h5M0 36h9M14 36h5M22 36h3M27 36h1M29 36h1M52 36h4M0 37h11M21 37h1M23 37h1M26 37h3M39 37h6M53 37h3M0 38h7M13 38h1M20 38h2M24 38h6M40 38h1M42 38h1M44 38h2M53 38h3M0 39h5M9 39h1M11 39h1M13 39h1M15 39h1M18 39h2M23 39h8M39 39h1M41 39h1M43 39h1M45 39h1M54 39h2M0 40h4M5 40h1M8 40h1M10 40h1M16 40h11M29 40h2M40 40h1M42 40h1M44 40h1M54 40h2M0 41h3M15 41h11M30 41h2M41 41h1M43 41h1M45 41h1M55 41h1M0 42h2M8 42h1M10 42h1M15 42h2M18 42h9M29 42h3M40 42h1M42 42h1M44 42h1M46 42h1M55 42h1M0 43h1M2 43h1M7 43h1M9 43h1M16 43h1M19 43h13M41 43h1M43 43h1M45 43h1M55 43h1M0 44h1M6 44h1M8 44h1M10 44h1M16 44h1M19 44h13M40 44h1M42 44h1M44 44h3M50 44h3M54 44h2M7 45h1M9 45h1M17 45h6M25 45h8M41 45h1M48 45h8M6 46h1M8 46h1M17 46h5M26 46h8M44 46h12M0 47h1M2 47h3M18 47h5M26 47h7M34 47h1M40 47h16M0 48h7M19 48h13M33 48h1M37 48h19M0 49h10M18 49h1M20 49h9M30 49h1M32 49h1M36 49h20M0 50h12M16 50h4M23 50h1M25 50h1M27 50h1M29 50h1M31 50h1M35 50h21M0 51h21M24 51h1M26 51h1M28 51h1M30 51h1M34 51h22M0 52h23M27 52h1M29 52h1M32 52h24M0 53h26M30 53h26M0 54h56M0 55h56" />
<path stroke="#7363ff" d="M26 2h1M24 3h1M22 4h1M12 9h1M9 10h1M7 11h1M5 12h1M2 15h1M5 21h1M27 21h1M26 22h2M6 23h1M27 23h2M27 24h2M27 25h2M6 26h2M26 26h3M6 27h2M26 27h3M7 28h1M25 28h3M5 29h1M7 29h1M25 29h3M5 30h1M7 30h2M24 30h3M7 31h2M24 31h2M7 32h3M23 32h3M8 33h3M21 33h4M8 34h5M18 34h6M9 35h4M17 35h6M11 36h3M19 36h2M14 37h5" />
<path stroke="#000000" d="M27 2h2M25 3h1M29 3h2M23 4h1M31 4h2M21 5h1M26 5h3M33 5h1M20 6h1M24 6h2M29 6h2M34 6h1M19 7h1M22 7h2M31 7h1M34 7h1M18 8h1M21 8h1M32 8h1M35 8h1M13 9h2M17 9h1M20 9h1M22 9h4M33 9h1M36 9h1M10 10h2M15 10h2M19 10h3M26 10h2M33 10h1M36 10h1M8 11h1M16 11h1M18 11h1M28 11h1M34 11h1M37 11h1M6 12h1M15 12h1M18 12h1M29 12h1M34 12h1M37 12h1M4 13h1M15 13h1M17 13h1M30 13h1M35 13h1M37 13h1M3 14h1M15 14h1M17 14h1M30 14h1M35 14h1M38 14h1M14 15h1M16 15h1M31 15h1M35 15h1M38 15h1M2 16h1M14 16h1M16 16h1M31 16h1M36 16h1M38 16h1M1 17h1M15 17h1M32 17h1M36 17h1M39 17h1M1 18h4M32 18h1M36 18h1M39 18h1M5 19h1M32 19h1M37 19h1M39 19h1M5 20h1M27 20h3M32 20h1M37 20h1M39 20h1M26 21h1M28 21h1M30 21h2M37 21h1M40 21h1M6 22h1M24 22h2M28 22h1M38 22h1M40 22h1M21 23h6M29 23h1M38 23h1M40 23h1M6 24h2M19 24h8M29 24h1M38 24h1M41 24h1M6 25h2M16 25h11M29 25h1M39 25h1M41 25h1M5 26h1M8 26h1M14 26h12M29 26h1M39 26h1M42 26h1M54 26h1M5 27h1M8 27h1M13 27h13M29 27h1M40 27h1M42 27h1M53 27h1M55 27h1M5 28h1M8 28h2M12 28h9M22 28h3M28 28h1M30 28h1M40 28h1M43 28h1M52 28h1M55 28h1M8 29h2M12 29h9M23 29h2M28 29h1M30 29h1M41 29h1M43 29h1M49 29h3M55 29h1M10 30h1M12 30h9M27 30h2M30 30h1M41 30h1M44 30h1M48 30h1M54 30h1M6 31h1M11 31h10M23 31h1M26 31h2M31 31h1M42 31h1M45 31h3M54 31h1M6 32h1M10 32h13M26 32h2M31 32h1M37 32h7M47 32h1M53 32h1M7 33h1M11 33h10M25 33h2M31 33h1M35 33h2M44 33h2M48 33h1M52 33h1M7 34h1M13 34h5M24 34h3M32 34h3M46 34h2M49 34h3M8 35h1M23 35h1M25 35h1M33 35h1M48 35h3M9 36h2M21 36h1M25 36h1M32 36h1M38 36h5M44 36h1M51 36h1M11 37h3M19 37h2M22 37h1M24 37h1M32 37h1M36 37h2M46 37h3M52 37h1M7 38h4M12 38h1M14 38h6M22 38h2M31 38h1M34 38h2M49 38h1M52 38h1M5 39h2M12 39h1M14 39h1M16 39h2M20 39h3M31 39h1M33 39h1M53 39h1M4 40h1M13 40h3M31 40h1M33 40h1M53 40h1M3 41h1M7 41h5M14 41h1M32 41h1M54 41h1M2 42h1M5 42h2M12 42h3M32 42h1M54 42h1M1 43h1M4 43h1M14 43h2M32 43h1M50 43h3M54 43h1M1 44h1M15 44h1M32 44h1M48 44h2M53 44h1M0 45h1M16 45h1M33 45h1M44 45h4M0 46h1M2 46h3M16 46h1M34 46h2M40 46h4M1 47h1M5 47h2M17 47h1M36 47h4M7 48h3M18 48h1M36 48h1M10 49h2M16 49h2M19 49h1M35 49h1M12 50h4M20 50h1M34 50h1M21 51h2M32 51h2M23 52h2M30 52h2M26 53h4" />
<path stroke="#a5bd19" d="M24 5h2M29 5h3M22 6h2M31 6h2M21 7h1M32 7h2M20 8h1M33 8h1M19 9h1M34 9h1M12 10h3M18 10h1M22 10h4M34 10h1M9 11h7M19 11h2M22 11h1M24 11h4M35 11h1M8 12h1M10 12h1M12 12h1M14 12h1M17 12h1M19 12h1M21 12h1M23 12h1M25 12h4M35 12h1M5 13h1M7 13h1M9 13h1M11 13h1M13 13h2M18 13h1M20 13h1M22 13h1M24 13h6M36 13h1M4 14h1M6 14h1M8 14h1M10 14h1M12 14h1M14 14h1M16 14h1M18 14h2M21 14h9M36 14h1M3 15h1M5 15h1M7 15h1M9 15h1M11 15h1M13 15h1M17 15h2M20 15h11M36 15h1M4 16h1M6 16h1M8 16h1M10 16h1M12 16h2M17 16h1M19 16h1M21 16h10M5 17h1M7 17h1M9 17h1M11 17h4M16 17h1M18 17h1M20 17h12M6 18h1M8 18h1M10 18h6M17 18h1M19 18h13M37 18h1M7 19h1M9 19h1M11 19h6M18 19h9M30 19h2M6 20h1M8 20h1M10 20h17M31 20h1M38 20h1M7 21h1M9 21h17M38 21h2M8 22h1M10 22h14M39 22h1M9 23h12M39 23h1M10 24h9M39 24h2M9 25h7M40 25h1M10 26h4M40 26h2M10 27h3M41 27h1M11 28h1M29 28h1M41 28h1M11 29h1M29 29h1M11 30h1M29 30h1M42 30h1M28 31h3M43 31h1M48 31h1M52 31h2M28 32h3M44 32h2M48 32h5M27 33h4M37 33h1M41 33h1M43 33h1M46 33h2M49 33h3M27 34h5M35 34h2M38 34h1M42 34h4M48 34h1M26 35h2M29 35h4M34 35h4M39 35h1M41 35h1M43 35h5M26 36h1M28 36h1M30 36h2M33 36h5M43 36h1M45 36h6M25 37h1M29 37h3M33 37h3M38 37h1M45 37h1M49 37h3M11 38h1M30 38h1M32 38h2M36 38h4M41 38h1M43 38h1M46 38h3M50 38h2M7 39h2M10 39h1M32 39h1M34 39h5M40 39h1M42 39h1M44 39h1M46 39h7M6 40h2M9 40h1M11 40h2M27 40h2M32 40h1M34 40h6M41 40h1M43 40h1M45 40h8M4 41h3M12 41h2M26 41h4M33 41h8M42 41h1M44 41h1M46 41h8M3 42h2M7 42h1M9 42h1M11 42h1M17 42h1M27 42h2M33 42h7M41 42h1M43 42h1M45 42h1M47 42h7M3 43h1M5 43h2M8 43h1M10 43h4M17 43h2M33 43h8M42 43h1M44 43h1M46 43h4M53 43h1M2 44h4M7 44h1M9 44h1M11 44h4M17 44h2M33 44h7M41 44h1M43 44h1M47 44h1M1 45h6M8 45h1M10 45h6M23 45h2M34 45h7M42 45h2M1 46h1M5 46h1M7 46h1M9 46h7M22 46h4M36 46h4M7 47h10M23 47h3M33 47h1M35 47h1M10 48h8M32 48h1M34 48h2M12 49h4M29 49h1M31 49h1M33 49h2M21 50h2M24 50h1M26 50h1M28 50h1M30 50h1M32 50h2M23 51h1M25 51h1M27 51h1M29 51h1M31 51h1M25 52h2M28 52h1" />
</svg>