<svg xmlns="http://www.w3.org/2000/svg" viewBox="0 -0.5 40 40" shape-rendering="crispEdges">
<metadata>Made with Pixels to Svg https://codepen.io/shshaw/pen/XbxvNj</metadata>
<path stroke="#ffffff" d="M0 0h6M9 0h31M0 1h4M6 1h2M10 1h30M0 2h3M11 2h29M0 3h2M12 3h28M0 4h1M12 4h28M0 5h1M13 5h27M0 6h1M13 6h9M26 6h14M0 7h2M13 7h7M28 7h12M0 8h3M14 8h4M30 8h10M0 9h2M14 9h3M18 9h2M31 9h9M0 10h1M14 10h3M18 10h1M32 10h8M0 11h1M14 11h2M17 11h1M33 11h7M14 12h2M34 12h6M13 13h4M22 13h1M34 13h6M13 14h5M22 14h2M35 14h5M12 15h5M35 15h5M12 16h3M35 16h5M0 17h1M11 17h1M13 17h1M35 17h5M0 18h1M10 18h1M14 18h2M35 18h5M0 19h2M9 19h1M14 19h3M35 19h5M0 20h3M9 20h1M13 20h4M22 20h1M35 20h5M0 21h5M9 21h1M13 21h2M16 21h1M21 21h4M36 21h4M0 22h5M14 22h2M20 22h7M36 22h4M0 23h6M12 23h1M20 23h2M23 23h2M26 23h1M36 23h4M0 24h6M12 24h1M21 24h3M36 24h4M0 25h5M13 25h1M37 25h3M0 26h5M37 26h3M0 27h5M15 27h2M37 27h3M0 28h4M7 28h3M16 28h4M37 28h3M0 29h3M8 29h2M38 29h2M0 30h2M8 30h3M38 30h2M0 31h1M7 31h6M16 31h2M38 31h2M0 32h1M4 32h16M39 32h1M0 33h21M29 33h1M0 34h23M27 34h4M0 35h31M35 35h3M0 36h32M37 36h3M0 37h32M38 37h2M0 38h33M38 38h2M0 39h36M38 39h2" />
<path stroke="#947b21" d="M6 0h1M4 1h1M3 3h2M9 3h2M2 4h9M2 5h2M7 5h5M2 6h1M8 6h4M22 6h1M25 6h1M8 7h4M8 8h5M18 8h1M20 8h3M9 9h4M17 9h1M21 9h4M27 9h1M1 10h1M9 10h4M20 10h10M3 11h1M9 11h4M19 11h1M24 11h7M0 12h1M3 12h1M8 12h5M18 12h1M26 12h5M1 13h1M3 13h2M8 13h4M27 13h3M1 14h4M6 14h6M19 14h2M27 14h2M33 14h1M1 15h5M7 15h4M18 15h2M28 15h2M32 15h2M1 16h5M7 16h4M18 16h2M21 16h1M28 16h6M2 17h4M7 17h3M16 17h5M22 17h1M28 17h6M2 18h5M8 18h1M17 18h4M22 18h3M27 18h1M29 18h5M3 19h3M18 19h4M23 19h5M29 19h5M18 20h3M25 20h4M30 20h3M17 21h3M27 21h2M30 21h3M8 22h1M16 22h4M29 22h2M6 23h2M14 23h6M28 23h1M14 24h6M27 24h3M34 24h1M10 25h1M16 25h6M27 25h4M33 25h1M9 26h1M18 26h5M27 26h5M11 27h1M29 27h2M5 28h1M12 28h1M6 29h1M13 29h2M30 29h1M36 29h1M15 30h2M23 30h3M31 30h1M34 30h3M21 31h2M26 31h2M34 31h2M20 32h1M28 32h1M32 35h2" />
<path stroke="#000000" d="M7 0h2M5 1h1M9 1h1M3 2h1M10 2h1M2 3h1M11 3h1M1 4h1M11 4h1M1 5h1M4 5h3M12 5h1M1 6h1M3 6h5M12 6h1M23 6h2M2 7h6M12 7h1M20 7h2M26 7h2M3 8h5M13 8h1M19 8h1M28 8h2M2 9h7M13 9h1M30 9h1M3 10h6M13 10h1M17 10h1M31 10h1M1 11h1M4 11h5M13 11h1M16 11h1M20 11h4M32 11h1M4 12h4M13 12h1M16 12h1M19 12h7M33 12h1M0 13h1M5 13h3M12 13h1M17 13h5M23 13h4M33 13h1M0 14h1M5 14h1M12 14h1M18 14h1M21 14h1M24 14h3M34 14h1M0 15h1M6 15h1M11 15h1M17 15h1M20 15h8M34 15h1M0 16h1M6 16h1M11 16h1M15 16h3M20 16h1M23 16h5M34 16h1M1 17h1M6 17h1M10 17h1M12 17h1M14 17h2M21 17h1M25 17h3M34 17h1M1 18h1M7 18h1M9 18h1M11 18h1M13 18h1M16 18h1M21 18h1M28 18h1M34 18h1M2 19h1M6 19h3M10 19h1M13 19h1M17 19h1M22 19h1M28 19h1M34 19h1M3 20h3M8 20h1M10 20h1M12 20h1M17 20h1M21 20h1M23 20h2M29 20h1M33 20h2M5 21h1M8 21h1M10 21h1M12 21h1M15 21h1M20 21h1M25 21h2M29 21h1M33 21h1M35 21h1M5 22h1M9 22h1M13 22h1M27 22h2M31 22h2M35 22h1M9 23h1M13 23h1M22 23h1M25 23h1M27 23h1M29 23h2M35 23h1M6 24h1M9 24h1M13 24h1M20 24h1M24 24h1M26 24h1M30 24h1M35 24h1M5 25h1M7 25h3M14 25h2M22 25h3M26 25h1M31 25h2M35 25h2M5 26h1M8 26h1M10 26h1M16 26h2M23 26h1M26 26h1M32 26h1M36 26h1M5 27h1M7 27h4M19 27h4M27 27h2M31 27h3M36 27h1M4 28h1M6 28h1M10 28h1M29 28h2M33 28h1M36 28h1M3 29h2M7 29h1M10 29h1M28 29h1M34 29h2M37 29h1M2 30h1M7 30h1M11 30h1M17 30h1M28 30h1M32 30h2M37 30h1M1 31h1M4 31h3M13 31h3M18 31h2M29 31h3M33 31h1M36 31h2M1 32h3M29 32h2M33 32h1M38 32h1M21 33h2M27 33h2M30 33h1M34 33h1M39 33h1M23 34h4M31 34h1M34 34h4M39 34h1M31 35h1M34 35h1M38 35h2M32 36h1M35 36h2M32 37h1M37 37h1M33 38h3M37 38h1M36 39h2" />
<path stroke="#ada5b5" d="M8 1h1M4 2h6M5 3h4M22 7h4M23 8h5M20 9h1M25 9h2M28 9h2M2 10h1M19 10h1M30 10h1M2 11h1M18 11h1M31 11h1M1 12h2M17 12h1M31 12h2M2 13h1M30 13h3M29 14h4M30 15h2M22 16h1M23 17h2M12 18h1M25 18h2M11 19h2M6 20h2M11 20h1M6 21h2M11 21h1M34 21h1M6 22h2M10 22h3M33 22h2M8 23h1M10 23h2M31 23h4M7 24h2M10 24h2M25 24h1M31 24h3M6 25h1M11 25h2M25 25h1M34 25h1M6 26h2M11 26h5M24 26h2M33 26h3M6 27h1M12 27h3M17 27h2M23 27h4M34 27h2M11 28h1M13 28h3M20 28h9M31 28h2M34 28h2M5 29h1M11 29h2M15 29h13M29 29h1M31 29h3M3 30h4M12 30h3M18 30h5M26 30h2M29 30h2M2 31h2M20 31h1M23 31h3M28 31h1M32 31h1M21 32h7M31 32h2M34 32h4M23 33h4M31 33h3M35 33h4M32 34h2M38 34h1M33 36h2M33 37h4M36 38h1" />
</svg>