<svg xmlns="http://www.w3.org/2000/svg" viewBox="0 -0.5 96 96" shape-rendering="crispEdges">
<metadata>Made with Pixels to Svg https://codepen.io/shshaw/pen/XbxvNj</metadata>
<path stroke="#c58352" d="M57 22h6M55 23h2M63 23h2M54 24h1M57 24h1M61 24h1M65 24h2M53 25h1M56 25h1M63 25h1M67 25h1M53 26h1M65 26h1M68 26h1M66 27h1M69 27h1M67 28h1M69 28h1M67 29h1M71 29h1M68 30h1M70 30h1M68 31h1M69 32h1M72 32h1M69 33h1M71 33h1M71 37h1M71 38h1M71 39h1M73 41h1M73 42h1M72 43h2M72 44h2M71 45h3M73 46h1M71 47h2M70 48h3M72 49h1M69 50h3M69 51h3M67 52h2M70 52h2M67 53h3M68 54h2M67 55h1M69 55h1M29 56h1M44 56h1M47 56h1M67 56h1M30 57h1M47 58h2M50 58h1M47 59h3M62 66h1M43 67h5M59 67h7M40 68h9M57 68h2M60 68h4M65 68h2M39 69h3M43 69h4M58 69h1M62 69h1M65 69h1M40 70h1M42 70h2M58 70h1M62 70h1M42 71h1" />
<path stroke="#ffcd9c" d="M57 23h6M55 24h2M62 24h3M54 25h1M64 25h3M66 26h2M67 27h2M68 28h1M69 29h2M69 30h1M70 31h2M70 32h2M70 33h1M71 34h2M71 35h2M71 36h3M72 37h2M72 38h2M72 39h2M72 40h2M72 41h1M72 42h1M47 54h2M44 55h1M46 55h3M43 56h1M46 56h1M49 56h2M27 57h1M29 57h1M43 57h1M46 57h1M49 57h1M27 58h1M29 58h1M32 59h1M59 69h1M63 69h1M66 69h1M59 70h1M63 70h1M66 70h1M59 71h1M63 71h1" />
<path stroke="#945210" d="M58 24h3M55 25h1M62 25h1M54 26h1M64 26h1M70 28h1M68 29h1M71 30h1M69 31h1M72 31h1M29 32h1M29 33h2M50 33h2M72 33h2M29 34h2M48 34h4M70 34h1M73 34h1M47 35h5M70 35h1M73 35h1M47 36h5M70 36h1M74 36h1M46 37h6M74 37h1M46 38h5M74 38h1M74 39h1M71 40h1M74 40h1M71 41h1M74 41h1M71 42h1M74 42h1M71 43h1M74 43h1M71 44h1M70 45h1M70 46h3M70 47h1M73 47h1M69 48h1M73 48h1M69 49h3M68 50h1M72 50h1M67 51h2M69 52h1M46 53h3M70 53h1M45 54h2M67 54h1M70 54h1M49 55h2M68 55h1M27 56h2M42 56h1M45 56h1M51 56h1M68 56h1M26 57h1M28 57h1M31 57h1M42 57h1M45 57h1M48 57h1M51 57h1M67 57h1M26 58h1M28 58h1M32 58h1M44 58h1M45 59h2M50 59h1M47 60h1M65 66h1M40 67h3M66 67h1M39 68h1M59 68h1M64 68h1M67 68h1M38 69h1M42 69h1M60 69h1M64 69h1M67 69h1M39 70h1M57 70h1M60 70h2M64 70h1M58 71h1M62 71h1" />
<path stroke="#a47329" d="M39 28h1M38 29h1M27 30h4M35 30h1M38 30h1M42 30h3M48 30h1M53 30h1M31 31h2M34 31h1M36 31h2M40 31h2M45 31h1M54 31h1M28 32h1M33 32h1M36 32h1M28 33h1M33 33h1M52 33h2M28 34h1M31 34h2M52 34h1M28 35h3M39 35h2M52 35h1M54 35h1M57 35h2M28 36h1M38 36h1M52 36h1M56 36h1M27 37h1M35 37h1M44 37h1M52 37h1M54 37h1M30 38h1M38 38h3M53 38h1M60 38h1M46 39h2M59 39h1M39 40h4M49 40h1M52 40h1M59 41h1M61 41h1M47 42h1M61 42h1M38 43h3M44 44h2M39 45h1M46 45h1M60 46h2M41 47h2M60 47h3M43 48h4M58 48h7M47 49h4M58 49h6M45 50h1M59 50h6M58 51h7M55 52h10M54 53h12M54 54h12M53 55h13M52 56h14M52 57h14M52 58h14M53 59h13M54 60h12M56 61h9M55 62h10M56 63h8M56 64h8M58 65h4M58 66h1" />
<path stroke="#deb44a" d="M39 29h1M39 30h1M27 31h4M35 31h1M38 31h2M43 31h2M48 31h4M31 32h2M35 32h1M37 32h3M41 32h3M46 32h3M32 33h1M34 33h10M45 33h2M33 34h9M31 35h7M29 36h7M32 37h3M32 38h3M35 39h1M38 45h1M41 45h1" />
<path stroke="#c59439" d="M40 29h1M40 30h1M42 31h1M52 31h2M30 32h1M34 32h1M40 32h1M44 32h1M49 32h1M53 32h3M31 33h1M47 33h1M54 33h1M42 34h5M53 34h1M38 35h1M41 35h5M53 35h1M36 36h1M41 36h5M53 36h2M57 36h1M41 37h3M53 37h1M56 37h2M28 38h1M35 38h3M41 38h5M51 38h2M55 38h5M36 39h7M48 39h6M55 39h4M51 40h1M54 40h5M53 41h6M48 42h13M41 43h21M46 44h15M47 45h15M46 46h14M43 47h17M47 48h11M51 49h7M52 50h7M43 51h2M51 51h7M44 52h11M44 53h2M49 53h5M50 54h4M45 55h1M51 55h2" />
<path stroke="#6a3900" d="M49 30h4M26 31h1M46 31h2M55 31h1M26 32h2M45 32h1M50 32h1M52 32h1M56 32h1M27 33h1M44 33h1M49 33h1M27 34h1M55 35h1M46 36h1M58 36h1M31 37h1M45 37h1M55 37h1M58 37h2M43 39h3M60 39h1M59 40h1M46 41h1M60 41h1M42 42h1M45 42h1M62 42h1M62 43h1M61 44h1M62 45h1M41 46h1M45 46h1M62 46h1M63 47h2M40 50h2M43 50h2M51 50h1M45 51h1M49 51h2M65 52h1M66 53h1M59 66h3" />
<path stroke="#101010" d="M51 32h1M48 33h1M55 33h1M47 34h1M54 34h1M46 35h1M37 36h1M55 36h1M36 37h1M38 37h1M54 38h1M54 39h1M50 40h1M53 40h1M24 41h1M47 41h6M43 42h2M46 42h1M34 43h1M33 44h2M74 44h1M33 45h3M40 45h1M74 45h1M28 46h1M33 46h3M42 46h3M74 46h1M28 47h1M32 47h4M74 47h1M29 48h8M65 48h1M32 49h4M64 49h1M73 49h1M26 50h1M33 50h3M42 50h1M65 50h1M73 50h1M27 51h1M33 51h2M46 51h3M65 51h1M72 51h1M27 52h1M34 52h1M66 52h1M72 52h1M28 53h1M71 53h1M28 54h1M32 54h1M44 54h1M49 54h1M66 54h1M71 54h1M29 55h1M43 55h1M66 55h1M70 55h1M30 56h2M48 56h1M66 56h1M69 56h1M32 57h3M44 57h1M47 57h1M50 57h1M66 57h1M68 57h1M30 58h2M43 58h1M45 58h2M49 58h1M51 58h1M66 58h2M26 59h2M29 59h1M31 59h1M51 59h1M66 59h1M32 60h2M48 60h3M66 60h1M65 61h1M65 62h1M64 63h2M64 64h1M62 65h2M45 66h2M63 66h2M49 67h10M49 68h1M56 68h1M47 69h2M57 69h1M61 69h1M38 70h1M41 70h1M44 70h3M65 70h1M67 70h1M39 71h3M43 71h1M60 71h1M64 71h1M66 71h2M42 72h1M59 72h2M63 72h2" />
<path stroke="#ffffff" d="M39 36h2M37 37h1M39 37h2M29 41h3M28 42h5M28 43h5M29 44h4M29 45h1M31 45h1M29 46h1M31 46h1M29 47h1M31 47h1M29 49h1M31 49h1M29 50h1M31 50h1M29 51h1M31 51h2M29 52h4M30 53h4" />
<path stroke="#f6f6a4" d="M28 37h3M29 38h1M31 38h1M27 39h8M32 40h4M43 40h6M26 41h1M33 41h3M37 41h7M26 42h1M34 42h6M35 43h2M36 44h7M36 45h2M42 45h4M37 46h2M37 47h4M37 48h6M37 49h10M36 50h4M46 50h5M36 51h7M35 52h7M36 53h4" />
<path stroke="#835a29" d="M27 38h1M26 39h1M22 40h1M29 40h2M23 41h1M25 41h1M25 42h1M25 43h1M24 45h1M26 45h1M25 46h2M26 47h1M26 48h1M24 49h1M23 50h1M25 50h1M27 50h1M23 51h2M31 54h1M33 54h1M33 59h1M34 60h1M36 61h1M36 62h1M38 62h1M42 62h1M37 63h1M39 63h1M41 63h1M40 64h1M41 65h2M43 66h2M47 66h1M48 67h1" />
<path stroke="#a48331" d="M23 39h3M26 40h1M28 40h1M31 40h1M37 40h2M27 41h1M32 41h1M36 41h1M44 41h2M27 42h1M40 42h2M27 43h1M37 43h1M25 44h3M35 44h1M43 44h1M39 46h2M36 47h1M25 48h1M28 48h1M27 49h2M36 49h1M35 51h1M29 53h1M34 53h1M30 54h1M37 55h1M35 56h2M34 59h1M52 59h1M35 60h1M53 60h1M39 61h1M44 61h1M46 61h1M55 61h1M45 62h2M54 62h1M57 65h1M56 66h2" />
<path stroke="#eecd73" d="M23 40h3M27 40h1M36 40h1M26 43h1M25 45h1M27 45h1M27 46h1M36 46h1M27 47h1M27 48h1M25 49h2M24 50h1M28 50h1M28 51h1M28 52h1M42 52h2M35 53h1M40 53h4M29 54h1M34 54h10M30 55h7M38 55h5M32 56h3M37 56h5M35 57h7M33 58h10M35 59h10M36 60h11M51 60h2M37 61h2M40 61h4M45 61h1M47 61h8M37 62h1M39 62h3M43 62h2M47 62h7M40 63h1M42 63h14M41 64h15M43 65h14M48 66h8" />
<path stroke="#b4b4b4" d="M28 41h1M33 42h1M33 43h1M28 44h1M30 45h1M32 45h1M32 50h1M30 51h1M33 52h1" />
<path stroke="#737373" d="M28 45h1M30 46h1M32 46h1M30 47h1M30 49h1M30 50h1" />
</svg>