<svg xmlns="http://www.w3.org/2000/svg" viewBox="0 -0.5 96 96" shape-rendering="crispEdges">
<metadata>Made with Pixels to Svg https://codepen.io/shshaw/pen/XbxvNj</metadata>
<path stroke="#b43952" d="M21 10h1M19 11h1M26 11h2M18 12h1M28 12h1M54 12h2M17 13h1M29 13h1M56 13h2M17 14h1M30 14h1M58 14h1M16 15h1M59 15h1M16 16h1M16 17h1M16 18h1M16 19h1M16 20h1M16 21h1M17 22h1M54 22h1M17 23h1M52 23h2M17 24h1M51 24h1M18 25h1M49 25h2M18 26h1M48 26h1M19 27h1M47 27h1M19 28h1M45 28h2M20 29h1M27 29h1M36 29h2M43 29h2M21 30h1M26 30h1M34 30h2M38 30h2M42 30h1M21 31h1M25 31h1M33 31h1M22 32h1M32 32h1M23 33h1M32 33h1M23 34h1M31 34h1M40 34h1M39 35h2M39 36h2M39 37h2M70 37h1M36 38h1M39 38h2M66 38h2M70 38h1M35 39h1M39 39h2M66 39h1M70 39h2M39 40h2M70 40h2M76 40h1M39 41h3M75 41h2M39 42h3M75 42h1M39 43h3M39 44h3M39 45h4M75 45h2M28 46h3M40 46h3M76 46h2M28 47h3M40 47h4M28 48h2M40 48h4M27 49h3M32 49h2M41 49h3M27 50h3M33 50h1M41 50h4M27 51h3M42 51h3M26 52h3M42 52h4M26 53h3M43 53h3M25 54h4M43 54h3M26 55h1M28 55h1M43 55h4M25 56h1M27 56h2M44 56h2M23 57h1M26 57h1M44 57h1M46 57h1M23 58h1M27 58h1M45 58h1M23 59h1M48 59h1M22 60h1M49 60h1M22 61h1M21 62h1M51 62h3M21 63h1M52 63h5M20 64h1M27 64h1M52 64h5M20 65h1M53 65h4M20 66h1M53 66h5M19 67h1M54 67h4M71 67h1M19 68h1M54 68h2M71 68h1M18 69h1M70 69h3M18 70h1M26 70h1M70 70h3M17 71h1M68 71h6M17 72h1M67 72h7M16 73h1M66 73h8M15 74h1M18 74h1M65 74h9M18 75h1M57 75h1M66 75h7M17 76h1M21 76h1M53 76h1M58 76h1M68 76h4M16 77h1M21 77h1M50 77h1M53 77h1M58 77h1M69 77h2M16 78h1M18 78h1M21 78h1M59 78h1M18 79h1" />
<path stroke="#e65262" d="M22 10h4M20 11h2M19 12h1M51 12h3M18 13h1M49 13h2M55 13h1M18 14h1M48 14h1M57 14h1M17 15h1M58 15h1M17 16h1M58 16h1M17 17h1M58 17h1M17 18h1M58 18h1M17 19h1M57 19h1M17 20h1M57 20h1M17 21h1M56 21h1M18 22h1M55 22h1M18 23h1M54 23h1M18 24h1M52 24h2M19 25h1M51 25h1M19 26h1M49 26h2M20 27h1M48 27h1M20 28h1M47 28h1M21 29h1M45 29h2M22 30h1M43 30h2M67 30h1M22 31h2M42 31h1M66 31h2M40 32h2M66 32h2M75 32h1M37 33h3M65 33h4M73 33h3M65 34h4M72 34h4M65 35h4M71 35h4M65 36h3M71 36h4M65 37h3M71 37h3M71 38h3M79 38h3M72 39h1M77 39h5M77 40h4M77 41h3M76 42h2M82 42h1M80 43h5M78 44h6M77 45h5M78 46h1" />
<path stroke="#313131" d="M22 11h4M20 12h2M26 12h2M19 13h1M28 13h1M51 13h4M19 14h1M49 14h2M55 14h2M18 15h1M38 15h1M48 15h1M57 15h1M18 16h1M38 16h1M57 16h1M59 16h1M18 17h1M38 17h1M57 17h1M59 17h1M18 18h1M38 18h1M57 18h1M59 18h1M18 19h1M38 19h1M56 19h1M58 19h1M18 20h1M38 20h1M56 20h1M58 20h1M18 21h1M38 21h1M55 21h1M57 21h1M19 22h1M38 22h1M56 22h1M19 23h1M38 23h1M55 23h1M66 23h1M19 24h1M38 24h1M54 24h1M66 24h1M20 25h1M38 25h1M52 25h2M65 25h1M79 25h2M20 26h1M38 26h1M51 26h1M65 26h1M77 26h2M21 27h1M49 27h2M65 27h1M76 27h1M21 28h1M48 28h1M64 28h1M74 28h2M22 29h1M47 29h1M64 29h1M73 29h1M23 30h1M45 30h2M64 30h1M72 30h1M24 31h1M40 31h2M44 31h1M64 31h1M71 31h1M25 32h1M37 32h3M64 32h1M84 32h3M35 33h2M63 33h1M81 33h3M33 34h2M63 34h1M79 34h2M36 35h1M63 35h1M78 35h1M36 36h1M63 36h1M36 37h1M63 37h1M63 38h1M31 39h2M36 39h1M63 39h1M33 40h3M63 40h1M84 40h1M26 41h1M64 41h1M85 41h3M26 42h1M64 42h1M88 42h2M25 43h3M64 43h1M24 44h1M43 44h2M65 44h1M23 45h1M45 45h2M71 45h1M24 46h2M47 46h2M26 47h1M48 47h2M32 48h2M45 48h4M50 48h1M31 49h1M45 49h2M51 49h1M32 50h1M52 50h1M65 50h1M33 51h1M50 51h4M64 51h2M33 52h1M49 52h3M53 52h1M63 52h2M48 53h2M54 53h1M63 53h1M48 54h2M54 54h1M63 54h1M66 54h2M48 55h1M55 55h1M48 56h1M55 56h1M56 57h1M57 58h1M68 58h1M50 59h1M57 59h1M65 59h1M68 59h2M51 60h2M58 60h1M66 60h3M51 61h5M57 61h2M68 61h2M54 62h6M69 62h1M57 63h1M60 63h1M69 63h1M57 64h2M60 64h1M70 64h1M57 65h2M61 65h1M70 65h2M58 66h1M62 66h2M70 66h3M74 66h1M58 67h1M64 67h1M70 67h1M72 67h1M74 67h1M56 68h4M65 68h2M70 68h1M72 68h3M55 69h2M58 69h2M66 69h2M69 69h1M73 69h1M59 70h3M67 70h3M73 70h1M60 71h3M67 71h1M74 71h1M60 72h4M66 72h1M74 72h1M59 73h2M63 73h3M74 73h1M64 74h1M74 74h1M65 75h1M73 75h1M66 76h2M72 76h1M59 77h1M67 77h2M60 78h1M60 79h1" />
<path stroke="#7b5252" d="M36 14h2M35 15h1M35 16h1M35 17h1M34 18h1M34 19h1M33 20h1M33 21h1M32 22h1M32 23h1M31 24h1M30 25h1M29 26h1M38 27h1M39 28h1M26 33h1M24 35h1M31 35h2M24 36h1M25 37h1M25 38h1M25 39h1M25 40h1M24 42h2M21 43h3M35 43h1M19 44h2M17 45h2M34 45h1M15 46h2M34 46h1M14 47h1M34 47h1M13 48h1M34 48h1M12 49h1M34 49h1M11 50h1M34 50h1M10 51h1M34 51h1M10 52h1M32 52h1M34 52h1M9 53h1M32 53h1M34 53h1M9 54h1M34 54h1M8 55h1M34 55h1M8 56h1M33 56h1M7 57h1M33 57h1M7 58h1M33 58h1M7 59h1M33 59h1M6 60h1M33 60h1M6 61h1M33 61h1M6 62h1M32 62h1M6 63h1M32 63h1M6 64h1M32 64h1M6 65h1M31 65h1M6 66h1M31 66h1M30 67h1M29 68h1M28 69h1M10 77h2" />
<path stroke="#ffe6b4" d="M36 15h2M36 16h2M36 17h2M35 18h3M35 19h3M34 20h3M34 21h3M33 22h4M33 23h4M32 24h4M31 25h5M30 26h6M29 27h1M32 27h3M33 28h2M33 29h1M28 30h1M32 30h2M28 31h5M28 32h4M24 33h2M28 33h4M24 34h3M28 34h3M25 35h6M33 35h3M26 36h8M26 37h6M26 38h6M26 39h5M26 40h6M27 41h5M27 42h4M28 43h2M15 49h3M13 50h6M12 51h8M11 52h4M16 52h4M10 53h4M15 53h5M10 54h3M15 54h5M9 55h3M14 55h5M35 55h3M9 56h3M14 56h5M35 56h4M8 57h3M13 57h6M34 57h5M8 58h3M13 58h5M34 58h6M8 59h3M13 59h5M34 59h6M7 60h4M13 60h5M34 60h6M7 61h4M13 61h5M34 61h6M7 62h4M12 62h6M33 62h7M7 63h4M12 63h7M33 63h8M7 64h12M33 64h8M7 65h13M32 65h2M35 65h6M7 66h13M32 66h2M35 66h6M7 67h12M31 67h3M35 67h6M7 68h12M30 68h3M35 68h6M8 69h10M29 69h3M35 69h6M8 70h10M28 70h3M34 70h7M8 71h9M27 71h3M34 71h7M9 72h8M33 72h7M9 73h7M32 73h8M10 74h5M30 74h10M10 75h5M26 75h13M11 76h6M25 76h14M12 77h4M25 77h13M12 78h4M20 78h1M24 78h14M13 79h3M19 79h2M23 79h14M14 80h22M17 81h16M24 82h5" />
<path stroke="#debd8b" d="M37 20h1M37 21h1M37 22h1M37 23h1M36 24h2M36 25h2M36 26h2M35 27h3M35 28h4M34 29h2M23 32h2M35 34h3M25 36h1M37 36h1M32 37h1M37 37h1M37 38h1M37 39h1M32 40h1M36 40h2M32 41h6M31 42h7M24 43h1M30 43h5M36 43h2M21 44h3M29 44h4M35 44h3M19 45h4M35 45h3M17 46h7M35 46h4M15 47h11M35 47h4M14 48h13M35 48h4M13 49h2M18 49h8M35 49h4M12 50h1M19 50h7M31 50h1M35 50h5M11 51h1M20 51h6M31 51h2M35 51h5M20 52h5M35 52h5M20 53h3M35 53h6M20 54h1M35 54h6M19 55h1M38 55h3M34 56h1M39 56h2M39 57h3M40 58h2M40 59h2M40 60h2M40 61h3M18 62h1M40 62h3M41 63h2M19 64h1M41 64h2M41 65h3M41 66h3M41 67h3M41 68h4M41 69h4M41 70h5M41 71h5M40 72h7M40 73h7M40 74h7M39 75h7M39 76h7M38 77h8M38 78h7M37 79h8M36 80h8M16 81h1M33 81h10M18 82h6M29 82h12M21 83h18M25 84h10" />
<path stroke="#000000" d="M67 22h1M68 23h1M68 24h1M69 25h1M81 25h1M69 26h1M81 26h1M69 27h1M81 27h1M69 28h1M80 28h1M70 29h1M80 29h1M70 30h1M80 30h1M43 31h1M70 31h1M79 31h1M42 32h1M70 32h1M79 32h1M87 32h1M40 33h2M70 33h1M78 33h1M87 33h1M38 34h2M70 34h1M78 34h1M87 34h1M37 35h1M70 35h1M77 35h1M86 35h1M34 36h2M41 36h1M70 36h1M77 36h1M86 36h1M33 37h1M35 37h1M41 37h1M69 37h1M76 37h1M85 37h1M32 38h4M41 38h1M69 38h1M75 38h1M85 38h1M41 39h1M69 39h1M75 39h1M84 39h1M41 40h1M68 40h1M74 40h1M83 40h1M42 41h1M68 41h1M73 41h1M82 41h1M42 42h1M67 42h1M72 42h1M80 42h2M42 43h1M67 43h1M70 43h2M78 43h2M89 43h1M28 44h1M33 44h2M42 44h1M69 44h1M75 44h3M88 44h1M29 45h4M43 45h1M65 45h1M72 45h3M86 45h2M31 46h1M43 46h1M65 46h1M69 46h2M84 46h2M31 47h1M44 47h1M64 47h1M68 47h1M71 47h3M81 47h3M30 48h1M44 48h1M64 48h1M67 48h1M74 48h7M30 49h1M44 49h1M63 49h1M67 49h1M30 50h1M45 50h1M63 50h1M66 50h1M30 51h1M45 51h1M62 51h1M66 51h1M29 52h3M46 52h1M62 52h1M66 52h1M23 53h2M29 53h1M33 53h1M46 53h1M62 53h1M66 53h1M21 54h2M29 54h1M46 54h1M62 54h1M20 55h1M29 55h1M47 55h1M63 55h1M67 55h1M19 56h1M29 56h1M47 56h1M63 56h1M68 56h1M19 57h1M28 57h1M48 57h1M63 57h1M68 57h1M18 58h1M28 58h1M48 58h1M64 58h1M69 58h1M18 59h1M28 59h1M49 59h1M64 59h1M70 59h1M18 60h1M28 60h1M50 60h1M65 60h1M71 60h1M18 61h1M28 61h1M50 61h1M65 61h1M72 61h1M19 62h1M28 62h1M50 62h1M66 62h1M72 62h1M19 63h1M28 63h1M51 63h1M66 63h1M73 63h1M28 64h1M51 64h1M67 64h1M74 64h1M27 65h1M52 65h1M67 65h1M74 65h1M27 66h1M52 66h1M67 66h1M75 66h1M6 67h1M27 67h1M53 67h1M65 67h2M75 67h1M6 68h1M27 68h1M53 68h1M76 68h1M7 69h1M27 69h1M54 69h1M76 69h1M7 70h1M27 70h1M55 70h1M76 70h1M7 71h1M26 71h1M56 71h1M76 71h1M8 72h1M26 72h1M57 72h1M76 72h1M8 73h1M26 73h1M58 73h1M75 73h1M9 74h1M25 74h1M47 74h1M59 74h2M75 74h1M9 75h1M15 75h3M25 75h1M46 75h1M61 75h1M74 75h1M10 76h1M24 76h1M46 76h1M59 76h3M73 76h1M20 77h1M24 77h1M46 77h1M62 77h3M71 77h2M11 78h1M19 78h1M23 78h1M45 78h1M55 78h2M65 78h6M12 79h1M16 79h2M21 79h2M45 79h1M57 79h3M13 80h1M44 80h1M14 81h2M43 81h1M16 82h2M41 82h2M18 83h3M39 83h2M21 84h4M35 84h4M25 85h10" />
<path stroke="#39acd5" d="M67 23h1M67 24h1M66 25h3M66 26h3M79 26h2M66 27h3M77 27h4M65 28h4M76 28h4M65 29h5M74 29h6M65 30h2M68 30h2M73 30h7M65 31h1M68 31h2M72 31h7M65 32h1M68 32h2M71 32h4M76 32h3M64 33h1M69 33h1M71 33h2M76 33h2M84 33h3M64 34h1M69 34h1M71 34h1M76 34h2M81 34h6M64 35h1M69 35h1M75 35h2M79 35h7M64 36h1M68 36h2M75 36h2M78 36h8M68 37h1M74 37h2M77 37h8M68 38h1M74 38h1M77 38h2M82 38h3M73 39h1M82 39h2M81 40h2M80 41h2M83 41h2M78 42h2M83 42h5M77 43h1M85 43h4M84 44h4M82 45h4M79 46h5M67 47h1M78 47h3M66 48h1M65 49h2M65 52h1M64 53h2M64 54h2M64 55h3M64 56h4M65 57h3M65 58h3M67 59h1M69 60h1M67 61h1M70 61h1M67 62h2M70 62h1M68 63h1M71 63h1M68 64h2M71 64h1M68 65h2M68 66h2M68 67h2" />
<path stroke="#622929" d="M28 27h1M28 28h1M41 34h1M41 35h1M38 36h1M38 38h1M38 39h1M38 40h1M38 41h1M38 42h1M38 43h1M38 44h1M28 45h1M38 45h1M27 46h1M39 46h1M27 47h1M39 47h1M27 48h1M39 48h1M26 49h1M39 49h1M26 50h1M40 50h1M26 51h1M40 51h1M25 52h1M40 52h1M25 53h1M41 53h1M24 54h1M41 54h1M24 55h1M41 55h1M24 56h1M41 56h1M42 57h1M42 58h1M42 59h1M42 60h1M43 61h1M43 62h1M43 63h1M43 64h1M44 65h1M44 66h1M44 67h1M45 68h1M45 69h1M46 70h1M46 71h1M47 72h1M47 73h1M48 74h1M48 75h1M49 76h1M49 77h1M50 78h1M54 78h1M51 79h1M54 79h1M52 80h1M54 80h1M53 81h2" />
<path stroke="#ffffe6" d="M30 27h2M29 28h4M28 29h5M29 30h3M34 37h1M15 52h1M14 53h1M13 54h2M12 55h2M12 56h2M11 57h2M11 58h2M11 59h2M11 60h2M11 61h2M11 62h1M11 63h1M34 65h1M34 66h1M34 67h1M33 68h2M32 69h3M31 70h3M30 71h4M27 72h6M27 73h5M26 74h4" />
<path stroke="#833939" d="M38 29h2M40 30h1M38 35h1M38 37h1" />
<path stroke="#ee6a7b" d="M27 30h1M36 30h2M26 31h2M34 31h6M26 32h2M33 32h4M27 33h1M33 33h2M27 34h1M32 34h1M33 39h2M40 49h1M41 51h1M41 52h1M42 53h1M42 54h1M25 55h1M27 55h1M42 55h1M26 56h1M42 56h2M46 56h1M24 57h2M27 57h1M43 57h1M45 57h1M47 57h1M24 58h3M43 58h2M46 58h2M24 59h4M43 59h5M23 60h5M43 60h6M23 61h5M44 61h6M22 62h6M44 62h6M22 63h6M44 63h7M21 64h6M44 64h7M21 65h6M45 65h7M21 66h6M45 66h7M20 67h7M45 67h8M20 68h7M46 68h7M19 69h8M46 69h8M19 70h7M47 70h8M18 71h8M47 71h9M18 72h8M48 72h9M17 73h9M48 73h10M16 74h2M19 74h6M49 74h10M19 75h6M49 75h8M58 75h3M18 76h3M22 76h2M50 76h3M54 76h4M17 77h3M22 77h2M51 77h2M54 77h4M17 78h1M22 78h1M51 78h3M57 78h2M52 79h2M53 80h1" />
<path stroke="#087b9c" d="M64 37h1M64 38h2M76 38h1M64 39h2M67 39h2M74 39h1M76 39h1M64 40h4M69 40h1M72 40h2M75 40h1M65 41h3M69 41h4M74 41h1M65 42h2M68 42h4M73 42h2M65 43h2M68 43h2M72 43h5M25 44h3M66 44h3M70 44h5M24 45h4M33 45h1M44 45h1M66 45h5M26 46h1M32 46h2M44 46h3M66 46h3M71 46h5M32 47h2M45 47h3M65 47h2M74 47h4M31 48h1M49 48h1M65 48h1M47 49h4M64 49h1M46 50h6M64 50h1M46 51h4M63 51h1M47 52h2M52 52h1M47 53h1M50 53h4M47 54h1M50 54h4M49 55h6M49 56h6M49 57h7M64 57h1M49 58h8M51 59h6M66 59h1M53 60h5M70 60h1M56 61h1M66 61h1M71 61h1M71 62h1M58 63h2M67 63h1M70 63h1M72 63h1M59 64h1M72 64h2M59 65h2M72 65h2M59 66h3M73 66h1M59 67h5M67 67h1M73 67h1M60 68h5M67 68h3M75 68h1M57 69h1M60 69h6M68 69h1M74 69h2M56 70h3M62 70h5M74 70h2M57 71h3M63 71h4M75 71h1M58 72h2M64 72h2M75 72h1M61 73h2M61 74h3M62 75h3M62 76h4M65 77h2" />
</svg>