<svg xmlns="http://www.w3.org/2000/svg" viewBox="0 -0.5 96 96" shape-rendering="crispEdges">
<metadata>Made with Pixels to Svg https://codepen.io/shshaw/pen/XbxvNj</metadata>
<path stroke="#6283cd" d="M79 15h8M9 16h5M78 16h1M14 17h3M79 17h2M17 18h2M69 18h3M19 19h2M67 19h2M21 20h2M65 20h2M22 21h2M63 21h2M21 22h1M24 22h1M61 22h2M66 22h1M25 23h2M60 23h1M27 24h1M58 24h2M62 24h1M28 25h1M57 25h1M29 26h1M56 26h1M30 27h1M55 27h1M58 27h1M31 28h1M54 28h1M54 29h1M31 30h1M57 31h1M29 32h1M57 34h1M28 35h2M45 37h1M59 37h1M41 38h4M36 40h2M29 41h1M30 42h1M59 42h1M38 43h1M44 43h1M48 43h1M58 43h1M35 44h3M45 44h3M30 46h2M31 47h2M58 47h1M33 48h2M49 48h1M34 49h1M55 49h1M37 50h1M37 51h1M50 51h1M37 52h1M38 54h1M54 54h1M38 55h1M51 55h1M54 55h1M38 56h1M51 56h4M38 57h1M51 57h4M38 58h1M51 58h5M38 59h1M51 59h5M38 60h1M51 60h5M38 61h1M51 61h5M38 62h1M50 62h5M50 63h5M50 64h5M49 65h5M38 66h1M49 66h4M35 67h2M40 67h1M47 67h7M33 68h3M39 68h1M46 68h5M52 68h3M33 69h2M41 69h10M53 69h2M33 70h1M43 70h6M54 70h2M32 71h2M57 71h1M32 72h3M33 73h2M55 73h2M55 74h2M55 75h2" />
<path stroke="#39397b" d="M74 16h4M72 17h2M81 17h1M11 18h3M76 18h4M14 19h3M73 19h3M17 20h2M71 20h2M19 21h1M68 21h3M20 22h1M67 22h1M21 23h2M64 23h2M23 24h1M63 24h1M24 25h2M61 25h1M26 26h1M60 26h1M27 27h1M59 27h1M28 28h1M57 28h2M28 29h1M29 30h1M55 30h1M57 30h1M29 31h1M31 31h1M55 31h1M58 31h1M31 32h1M56 32h1M58 32h1M28 33h1M30 33h1M57 33h1M59 33h1M28 34h1M30 34h1M59 34h1M30 35h1M47 35h2M58 35h1M60 35h1M27 36h1M29 36h1M38 36h1M46 36h1M49 36h1M58 36h1M60 36h1M27 37h1M29 37h1M37 37h1M39 37h1M50 37h1M61 37h1M27 38h1M29 38h1M37 38h1M40 38h1M46 38h1M50 38h1M59 38h1M61 38h1M27 39h1M29 39h1M36 39h1M51 39h1M59 39h1M61 39h1M27 40h1M29 40h1M59 40h1M61 40h1M27 41h1M35 41h1M46 41h3M59 41h1M61 41h1M37 42h1M44 42h2M48 42h1M61 42h1M28 43h1M30 43h1M34 43h1M61 43h1M28 44h1M30 44h2M34 44h1M58 44h1M60 44h1M29 45h1M31 45h1M57 45h1M29 46h1M32 46h1M36 46h2M44 46h1M46 46h2M55 46h2M59 46h1M30 47h1M33 47h2M48 47h1M53 47h2M31 48h2M48 48h1M57 48h1M33 49h1M49 49h1M56 49h1M34 50h2M38 50h1M38 51h1M38 52h1M50 52h1M38 53h1M50 53h1M50 54h1M39 55h1M50 55h1M39 56h1M50 56h1M39 57h1M50 57h1M39 58h1M50 58h1M39 59h1M50 59h1M50 60h1M50 61h1M49 62h1M37 63h2M49 63h1M38 64h1M49 64h1M58 64h2M26 65h2M48 65h1M57 65h1M25 66h1M28 66h2M35 66h2M39 66h1M48 66h1M53 66h1M56 66h1M30 67h2M33 67h2M41 67h6M54 67h1M56 67h1M32 68h1M36 68h2M51 68h1M55 68h1M28 69h2M35 69h1M55 69h1M30 70h1M31 71h1M54 71h1M54 72h1M54 73h1M54 74h1M54 75h1" />
<path stroke="#5aacee" d="M79 16h8M74 17h5M72 18h4M69 19h4M70 20h1M24 24h3M26 25h2M27 26h2M28 27h2M29 28h2M29 29h3M30 30h1M56 30h1M30 31h1M56 31h1M30 32h1M57 32h1M29 33h1M58 33h1M29 34h1M58 34h1M59 35h1M28 36h1M47 36h2M59 36h1M28 37h1M38 37h1M46 37h1M48 37h2M60 37h1M28 38h1M39 38h1M45 38h1M49 38h1M60 38h1M28 39h1M37 39h1M45 39h6M60 39h1M28 40h1M45 40h7M60 40h1M28 41h1M45 41h1M49 41h3M60 41h1M28 42h2M38 42h1M43 42h1M49 42h4M60 42h1M29 43h1M39 43h5M49 43h4M59 43h2M29 44h1M38 44h7M48 44h6M59 44h1M30 45h1M35 45h19M58 45h2M38 46h6M48 46h7M57 46h2M49 47h4M55 47h3M50 48h7M50 49h5M50 50h4M51 51h2M51 52h3M51 53h3M51 54h3M52 55h2M58 65h2M26 66h2M57 66h3M26 67h4M38 67h2M57 67h2M28 68h4M40 68h6M56 68h3M30 69h3M56 69h2M31 70h2M56 70h2M55 71h2M55 72h2" />
<path stroke="#000000" d="M87 16h1M8 17h1M82 17h5M9 18h2M11 19h1M12 20h1M81 20h1M13 21h1M79 21h2M14 22h1M78 22h1M15 23h1M78 23h1M16 24h1M77 24h1M16 25h1M77 25h1M76 26h1M76 27h1M76 28h1M52 40h1M52 41h1M36 42h1M46 42h1M53 42h1M80 42h2M53 43h1M78 43h2M13 44h3M54 44h1M77 44h1M16 45h2M34 45h1M54 45h1M76 45h1M18 46h2M34 46h1M45 46h1M35 47h1M38 47h8M35 48h1M37 48h9M35 49h14M36 50h1M39 50h11M54 50h2M36 51h1M39 51h11M53 51h1M36 52h1M39 52h11M37 53h1M39 53h11M37 54h1M39 54h11M30 55h3M37 55h1M40 55h10M62 55h4M26 56h3M33 56h2M37 56h1M41 56h9M59 56h2M67 56h2M25 57h1M35 57h1M37 57h1M42 57h8M56 57h3M69 57h2M37 58h1M43 58h7M56 58h1M37 59h1M43 59h7M56 59h1M37 60h1M39 60h1M43 60h7M56 60h1M37 61h1M39 61h1M42 61h8M56 61h1M37 62h1M39 62h1M42 62h7M55 62h1M39 63h1M41 63h8M55 63h1M36 64h1M39 64h10M55 64h1M36 65h1M39 65h7M47 65h1M54 65h1M60 65h1M37 66h1M40 66h6M54 66h1M60 66h1M25 67h1M37 67h1M59 67h1M26 68h2M38 68h1M59 68h1M39 69h2M51 69h2M58 69h1M34 70h1M41 70h2M49 70h2M53 70h1M58 70h1M34 71h1M43 71h6M53 71h1M58 71h1M31 72h1M35 72h1M57 72h1M32 73h1M35 73h1M57 73h1M33 74h2M57 74h1M57 75h1M55 76h2" />
<path stroke="#accdff" d="M9 17h5M14 18h3M17 19h2M19 20h2M67 20h3M20 21h2M65 21h3M22 22h2M63 22h3M23 23h2M61 23h3M60 24h2M58 25h3M57 26h3M56 27h2M55 28h2M55 29h2M40 39h5M38 40h7M36 41h9M39 42h4" />
<path stroke="#ac52ac" d="M80 18h4M12 19h2M76 19h6M13 20h4M73 20h8M14 21h5M71 21h8M15 22h5M68 22h10M16 23h5M66 23h12M17 24h6M64 24h13M17 25h7M62 25h15M18 26h8M61 26h15M18 27h9M60 27h16M18 28h10M59 28h17M19 29h9M58 29h17M19 30h10M59 30h16M19 31h1M21 31h1M23 31h1M25 31h1M27 31h2M60 31h15M20 32h1M22 32h1M59 32h1M62 32h10M19 33h1M21 33h1M27 33h1M60 33h1M63 33h8M20 34h1M26 34h1M60 34h3M65 34h5M24 35h4M61 35h4M67 35h3M23 36h4M61 36h6M69 36h1M22 37h5M62 37h7M20 38h5M62 38h9M19 39h5M62 39h8M17 40h6M62 40h6M16 41h6M63 41h4M15 42h6M63 42h3M14 43h7M62 43h1M64 43h2M16 44h4M61 44h2M64 44h1M18 45h2M61 45h2M64 45h1M60 46h4M28 47h2M59 47h5M28 48h3M58 48h7M28 49h5M57 49h9M28 50h6M56 50h10M27 51h9M55 51h12M27 52h9M55 52h12M27 53h10M55 53h13M26 54h11M56 54h12M26 55h3M33 55h4M56 55h6M67 55h2M35 56h2M56 56h3M69 56h1M36 57h1" />
<path stroke="#621052" d="M84 18h1M82 19h2M17 26h1M17 27h1M17 28h1M18 29h1M57 29h1M75 29h1M18 30h1M58 30h1M75 30h1M18 31h1M59 31h1M75 31h1M27 32h2M60 32h1M26 33h1M62 33h1M24 34h2M63 34h2M23 35h1M65 35h1M47 37h1M38 38h1M48 38h1M39 39h1M80 40h2M14 41h1M62 41h1M82 41h1M14 42h1M62 42h1M13 43h1M63 43h1M63 44h1M28 45h1M63 45h1M28 46h1M64 46h1M20 47h1M64 47h1M74 47h1M21 48h1M27 48h1M22 49h1M27 49h1M73 49h1M22 50h1M72 50h1M23 51h1M54 51h1M72 51h1M23 52h1M26 52h1M54 52h1M67 52h1M72 52h1M24 53h1M26 53h1M54 53h1M68 53h1M71 53h1M24 54h1M55 54h1M71 54h1M24 55h1M29 55h1M55 55h1M66 55h1M69 55h1M71 55h1M24 56h1M55 56h1M61 56h1M71 56h1M24 57h1M55 57h1M71 57h1M36 58h1" />
<path stroke="#cd6ab4" d="M20 31h1M22 31h1M24 31h1M26 31h1M19 32h1M21 32h1M23 32h4M72 32h3M20 33h1M22 33h4M71 33h5M19 34h1M21 34h3M70 34h6M18 35h5M70 35h6M18 36h4M70 36h7M17 37h3M71 37h6M17 38h2M25 38h2M47 38h1M73 38h5M16 39h2M24 39h3M38 39h1M70 39h3M76 39h3M23 40h4M68 40h8M78 40h2M22 41h5M67 41h11M21 42h6M66 42h14M21 43h7M66 43h12M20 44h8M65 44h12M20 45h8M65 45h11M20 46h8M65 46h10M21 47h6M65 47h9M22 48h5M66 48h7M23 49h4M67 49h6M23 50h4M67 50h5M24 51h2M68 51h4M24 52h2M68 52h4M25 53h1M69 53h2M70 54h1M70 55h1" />
<path stroke="#94397b" d="M18 32h1M61 32h1M75 32h1M18 33h1M61 33h1M76 33h1M18 34h1M27 34h1M76 34h1M17 35h1M66 35h1M76 35h1M17 36h1M22 36h1M67 36h2M77 36h1M16 37h1M20 37h2M69 37h2M77 37h1M16 38h1M19 38h1M71 38h2M78 38h1M15 39h1M18 39h1M73 39h3M79 39h1M15 40h2M76 40h2M15 41h1M78 41h4M27 42h1M60 45h1M75 46h1M27 47h1M65 48h1M73 48h1M66 49h1M27 50h1M66 50h1M26 51h1M67 51h1M25 54h1M68 54h2M25 55h1M25 56h1M70 56h1" />
<path stroke="#626262" d="M35 42h1M36 43h1M46 43h1M35 46h1M47 48h1M40 56h1M40 57h2M40 58h3M40 59h3M40 60h3M40 61h2M40 62h2M40 63h1" />
<path stroke="#ffffff" d="M47 42h1M37 43h1M45 43h1M36 47h2M46 47h1M36 48h1M46 48h1M37 64h1M46 65h1" />
<path stroke="#d5d5d5" d="M35 43h1M47 43h1M47 47h1M37 65h2M46 66h2" />
</svg>