<svg xmlns="http://www.w3.org/2000/svg" viewBox="0 -0.5 96 96" shape-rendering="crispEdges">
<metadata>Made with Pixels to Svg https://codepen.io/shshaw/pen/XbxvNj</metadata>
<path stroke="#5a5231" d="M37 28h4M36 29h1M36 30h1M34 34h1M34 35h1M34 36h1M40 36h2M35 37h1M37 37h1M62 37h1M35 38h1M64 38h1M63 39h1M52 40h3M63 40h1M51 41h2M52 44h1M23 51h1M22 54h1" />
<path stroke="#101010" d="M42 28h5M41 29h1M47 29h1M41 30h1M47 30h1M35 31h1M40 31h1M48 31h1M35 32h1M38 32h1M40 32h1M43 32h1M48 32h1M35 33h1M38 33h1M40 33h1M43 33h1M48 33h1M35 34h1M40 34h1M48 34h3M36 35h1M40 35h1M51 35h1M36 36h1M47 36h1M51 36h1M50 37h1M36 38h1M49 38h1M34 39h1M49 39h1M31 40h6M50 40h1M28 41h3M38 41h2M50 41h1M51 42h1M51 43h1M71 45h1M19 47h4M72 47h1M18 48h2M78 48h1M18 49h2M73 49h1M77 49h1M17 50h3M36 50h3M73 50h3M17 51h3M35 51h5M17 52h2M34 52h7M74 52h1M17 53h2M34 53h7M74 53h1M17 54h1M34 54h7M74 54h1M18 55h1M35 55h5M74 55h1M19 56h1M36 56h3M74 56h1M20 57h1M74 57h1M51 58h1M58 58h1M74 58h1M21 59h1M51 59h1M56 59h1M74 59h1M22 60h1M50 60h1M55 60h1M63 60h1M73 60h1M23 61h1M49 61h4M54 61h1M63 61h1M73 61h1M24 62h1M48 62h1M53 62h2M63 62h1M73 62h1M25 63h2M46 63h2M55 63h1M63 63h1M72 63h1M27 64h4M43 64h3M55 64h1M62 64h1M72 64h1M31 65h12M54 65h1M62 65h1M67 65h5M44 66h4M54 66h1M61 66h1M55 67h6" />
<path stroke="#b49452" d="M37 29h1M40 29h1M42 29h1M46 29h1M37 30h1M39 30h1M42 30h1M45 30h1M46 31h1M46 32h1M46 33h1M46 34h1M35 35h1M37 35h1M39 35h1M42 35h1M45 35h1M35 36h1M38 36h1M43 36h2M36 37h1M36 39h1M20 48h1M42 50h1M19 52h1M21 53h1M18 54h4M33 54h1M43 54h1M19 55h2M33 55h2M42 55h1M34 56h2M39 56h4M34 57h8M36 58h4" />
<path stroke="#e6cd7b" d="M38 29h2M43 29h3M40 30h1M46 30h1M36 31h1M41 31h1M47 31h1M36 32h1M41 32h1M47 32h1M36 33h1M41 33h1M47 33h1M36 34h1M41 34h1M47 34h1M41 35h1M46 35h1M49 35h2M37 36h1M39 36h1M42 36h1M45 36h2M48 36h3M38 37h3M42 37h4M47 37h3M58 37h4M37 38h11M57 38h7M37 39h11M64 39h1M41 40h4M61 40h2M62 41h4M62 42h4M63 43h4M62 44h6M61 45h8M61 46h8M62 47h2M66 47h2M21 48h2M20 49h3M36 49h5M20 50h3M34 50h2M39 50h3M54 50h5M20 51h3M34 51h1M40 51h3M53 51h7M20 52h2M33 52h1M41 52h3M54 52h6M19 53h2M33 53h1M41 53h3M54 53h5M41 54h2M54 54h4M40 55h2M55 55h2M65 55h3M64 56h6M64 57h6M63 58h6M63 59h4M64 60h2" />
<path stroke="#eeeeff" d="M38 30h1M43 30h2M37 31h3M42 31h4M37 32h1M39 32h1M42 32h1M44 32h2M37 33h1M39 33h1M42 33h1M44 33h2M37 34h3M42 34h4M38 35h1M43 35h2" />
<path stroke="#392920" d="M47 35h2M58 36h4M41 37h1M46 37h1M57 37h1M63 37h2M48 38h1M56 38h1M65 38h1M35 39h1M55 39h8M65 39h1M64 40h2M40 41h1M66 41h2M26 42h2M42 42h1M68 42h1M24 43h2M69 43h1M23 44h1M70 44h1M22 45h1M72 45h1M21 46h1M71 46h1M73 46h3M76 47h3M23 48h1M36 48h5M72 48h1M23 49h1M41 49h2M76 49h1M23 50h1M43 50h1M76 50h1M43 51h1M73 51h1M22 52h1M32 52h1M44 52h1M22 53h1M32 53h1M44 53h1M53 53h1M32 54h1M44 54h1M53 54h1M21 55h1M32 55h1M43 55h1M52 55h1M20 56h1M33 56h1M43 56h1M52 56h1M33 57h1M42 57h1M52 57h1M20 58h2M34 58h2M40 58h2M59 58h1M36 59h4M66 60h2M64 61h2M25 62h1M50 62h1M65 62h1M27 63h1M49 63h1M62 63h1M66 63h1M31 64h1M49 64h1M66 64h1M48 65h1M43 66h1" />
<path stroke="#b48b39" d="M48 39h1M40 40h1M45 40h1M55 40h1M53 41h3M52 42h5M58 42h3M66 42h1M52 43h11M67 43h2M53 44h9M68 44h2M54 45h7M69 45h2M56 46h5M69 46h2M57 47h5M70 47h2M59 48h5M59 49h5M59 50h6M60 51h5M60 52h6M72 52h2M59 53h7M71 53h3M60 54h6M70 54h4M53 55h2M62 55h3M70 55h4M53 56h5M70 56h4M54 57h4M70 57h4M56 58h1M71 58h3M72 59h1" />
<path stroke="#5a4120" d="M37 40h1M41 42h1M52 45h1M72 46h1M73 47h3M73 48h5M34 49h2M74 49h2M33 50h1M33 51h1M53 52h1M21 57h1M51 57h1M22 58h1M50 58h1M54 58h1M57 58h1M69 58h1M22 59h3M47 59h4M52 59h2M57 59h1M67 59h2M23 60h5M44 60h6M51 60h4M56 60h1M69 60h3M24 61h25M53 61h1M55 61h3M62 61h1M66 61h7M26 62h22M49 62h1M55 62h8M66 62h7M28 63h18M48 63h1M56 63h6M67 63h2M71 63h1M32 64h11M46 64h3M56 64h6M67 64h1M43 65h5M57 65h2M57 66h1" />
<path stroke="#836220" d="M38 40h2M46 40h4M56 40h5M31 41h7M41 41h9M56 41h6M28 42h13M43 42h8M57 42h1M61 42h1M67 42h1M26 43h25M24 44h28M23 45h29M53 45h1M22 46h34M23 47h34M64 47h2M68 47h2M24 48h12M41 48h18M64 48h8M24 49h10M43 49h16M64 49h9M24 50h9M44 50h10M65 50h8M24 51h9M44 51h9M65 51h8M23 52h9M45 52h8M66 52h6M23 53h9M45 53h8M66 53h5M23 54h9M45 54h8M58 54h2M66 54h4M22 55h10M44 55h8M57 55h5M68 55h2M21 56h12M44 56h8M58 56h6M22 57h11M43 57h8M53 57h1M58 57h6M23 58h11M42 58h8M52 58h2M55 58h1M60 58h3M70 58h1M25 59h11M40 59h7M54 59h2M58 59h5M69 59h3M73 59h1M28 60h16M57 60h6M68 60h1M72 60h1M58 61h4" />
<path stroke="#7b7b8b" d="M69 63h2M68 64h1M71 64h1M56 65h1M59 65h3M55 66h1M58 66h1" />
<path stroke="#bdbdcd" d="M69 64h2M55 65h1M56 66h1M59 66h2" />
</svg>