<svg xmlns="http://www.w3.org/2000/svg" viewBox="0 -0.5 96 96" shape-rendering="crispEdges">
<metadata>Made with Pixels to Svg https://codepen.io/shshaw/pen/XbxvNj</metadata>
<path stroke="#734a41" d="M49 13h8M46 14h3M44 15h2M42 16h2M52 16h5M40 17h2M49 17h3M57 17h4M66 17h1M41 18h1M46 18h3M61 18h2M42 19h4M63 19h1M64 20h2M66 21h1M72 24h2M50 32h1M52 33h1M53 34h1M58 34h2M55 35h3M29 36h2M28 37h1M29 38h1M39 38h2M28 39h2M36 39h1M61 39h2M28 40h1M33 40h1M63 40h1M29 41h2M34 41h1M37 41h3M62 41h1M29 42h1M60 42h2M28 43h1M59 43h1M27 44h1M60 44h1M26 45h1M28 45h2M61 45h1M26 46h1M30 46h2M57 46h1M59 46h2M66 46h1M81 46h1M26 47h1M30 47h1M58 47h1M66 47h1M31 48h1M33 48h1M54 48h1M57 48h1M82 48h1M27 49h1M32 49h1M34 49h1M53 49h1M55 49h1M57 49h3M66 49h1M82 49h1M85 49h1M27 50h1M35 50h1M37 50h1M40 50h1M45 50h1M51 50h1M53 50h1M60 50h2M66 50h1M82 50h1M24 51h1M27 51h2M35 51h2M38 51h1M40 51h2M44 51h1M52 51h1M62 51h1M65 51h2M24 52h2M39 52h2M42 52h2M63 52h4M71 52h1M83 52h1M24 53h2M64 53h3M83 53h1M30 54h1M54 54h1M65 54h1M31 55h1M65 55h1M71 55h2M31 56h3M32 57h4M37 57h1M39 57h1M82 57h2M32 58h5M38 58h1M40 58h4M81 58h3M33 59h11M77 59h3M81 59h4M34 60h11M65 60h1M72 60h1M74 60h6M81 60h4M34 61h11M65 61h3M71 61h2M74 61h11M32 62h2M35 62h10M64 62h9M74 62h4M79 62h7M31 63h4M36 63h10M64 63h9M74 63h4M79 63h7M30 64h6M37 64h8M64 64h3M68 64h5M74 64h3M78 64h3M82 64h4M29 65h8M38 65h4M43 65h1M45 65h1M63 65h4M68 65h3M72 65h1M74 65h3M78 65h3M82 65h3M86 65h1M28 66h2M31 66h7M39 66h2M42 66h1M44 66h1M46 66h1M63 66h8M72 66h2M75 66h1M77 66h10M28 67h2M31 67h8M41 67h3M45 67h1M47 67h1M62 67h12M76 67h9M86 67h1M29 68h4M34 68h7M43 68h6M61 68h4M66 68h3M70 68h4M75 68h12M29 69h4M34 69h9M45 69h5M59 69h6M66 69h3M70 69h4M75 69h12M30 70h14M57 70h11M69 70h5M75 70h7M83 70h3M30 71h1M35 71h9M58 71h10M69 71h4M74 71h8M83 71h3M38 72h5M58 72h15M74 72h12M31 73h1M39 73h4M58 73h1M64 73h9M74 73h9M84 73h1M29 74h2M34 74h1M37 74h1M40 74h3M68 74h4M75 74h1M78 74h1M80 74h3M84 74h2M33 75h2M37 75h1M41 75h3M62 75h1M69 75h3M33 76h1M35 76h1M38 76h1M59 76h1M61 76h2M65 76h1M71 76h1M58 77h1M60 77h2M63 77h2M67 77h2M72 77h1" />
<path stroke="#9c6a4a" d="M49 14h8M46 15h15M44 16h8M57 16h6M42 17h7M61 17h4M42 18h4M63 18h4M64 19h4M66 20h3M67 21h3M68 22h3M69 23h3M70 24h2M71 25h2M71 26h3M72 27h2M72 28h3M72 29h3M72 30h4M71 31h5M71 32h6M32 33h3M70 33h7M29 34h1M31 34h1M69 34h8M28 35h3M32 35h1M60 35h1M68 35h10M28 36h1M31 36h1M59 36h1M61 36h1M67 36h11M27 37h1M62 37h1M66 37h12M27 38h2M64 38h15M27 39h1M30 39h1M63 39h16M26 40h2M64 40h15M26 41h3M61 41h1M63 41h17M26 42h3M59 42h1M62 42h18M26 43h2M60 43h20M26 44h1M29 44h1M32 44h1M61 44h20M27 45h1M31 45h1M57 45h1M62 45h19M25 46h1M27 46h3M58 46h1M61 46h5M67 46h14M25 47h1M27 47h3M59 47h7M67 47h15M25 48h6M34 48h1M52 48h1M58 48h9M68 48h14M83 48h3M24 49h3M28 49h4M33 49h1M54 49h1M60 49h6M68 49h14M83 49h2M24 50h3M28 50h7M54 50h2M62 50h4M68 50h14M83 50h1M25 51h2M29 51h6M37 51h1M45 51h1M51 51h1M53 51h2M63 51h2M68 51h17M29 52h10M41 52h1M44 52h1M52 52h3M68 52h3M72 52h11M84 52h1M30 53h15M52 53h3M68 53h3M72 53h11M31 54h14M52 54h2M67 54h4M72 54h11M32 55h12M53 55h1M67 55h4M73 55h10M34 56h10M66 56h6M73 56h10M36 57h1M38 57h1M40 57h4M65 57h7M73 57h9M37 58h1M39 58h1M65 58h7M73 58h7M65 59h7M73 59h4M66 60h6M68 61h3M45 64h1M42 65h1M44 65h1M46 65h1M41 66h1M43 66h1M45 66h1M44 67h1M46 67h1M31 71h4M30 72h8M29 73h2M32 73h7M59 73h5M31 74h3M35 74h2M38 74h2M57 74h11M32 75h1M35 75h2M38 75h2M57 75h5M63 75h6M56 76h3M60 76h1M63 76h2M66 76h5M57 77h1M69 77h3" />
<path stroke="#393131" d="M57 14h4M61 15h2M63 16h2M65 17h1M38 18h3M67 18h1M36 19h2M68 19h1M69 20h1M70 21h1M67 22h1M71 22h1M68 23h1M72 23h1M69 24h1M70 25h1M73 25h1M70 26h1M74 26h1M71 27h1M71 28h1M75 28h1M71 29h1M71 30h1M76 30h1M70 31h1M29 32h1M70 32h1M77 32h1M28 33h2M69 33h1M28 34h1M30 34h1M68 34h1M27 35h1M31 35h1M67 35h1M27 36h1M66 36h1M26 37h1M44 37h1M64 37h2M26 38h1M44 38h1M63 38h1M44 39h1M25 44h1M25 45h1M24 46h1M24 47h1M24 48h1M23 49h1M67 49h1M23 50h1M67 50h1M85 50h1M23 51h1M67 51h1M23 52h1M26 52h1M28 52h1M55 52h1M67 52h1M23 53h1M26 53h1M29 53h1M55 53h1M63 53h1M67 53h1M71 53h1M24 54h1M29 54h1M66 54h1M71 54h1M83 54h1M30 55h1M54 55h1M66 55h1M30 56h1M54 56h1M65 56h1M72 56h1M31 57h1M72 57h1M31 58h1M72 58h1M32 59h1M72 59h1M33 60h1M33 61h1M34 62h1M78 62h1M35 63h1M36 64h1M67 64h1M37 65h1M71 65h1M77 65h1M27 66h1M38 66h1M76 66h1M27 67h1M40 67h1M75 67h1M28 68h1M41 68h2M28 69h1M43 69h2M28 70h1M44 70h2M47 70h6M86 70h1M29 71h1M54 71h3M29 72h1M49 72h8M28 73h1M49 73h8M85 73h1M28 74h1M50 74h2M54 74h2M86 74h1M31 75h1M40 75h1M51 75h1M54 75h1M82 75h2M36 76h1M39 76h4M55 76h1M72 76h1M40 77h2M56 77h1M68 78h2M68 79h2" />
<path stroke="#eef6f6" d="M52 17h5M49 18h12M38 19h4M46 19h17M36 20h17M57 20h7M36 21h12M59 21h7M35 22h2M40 22h5M60 22h7M34 23h2M61 23h7M33 24h2M55 24h1M62 24h7M31 25h3M54 25h3M63 25h7M30 26h4M38 26h1M53 26h4M63 26h7M30 27h3M37 27h3M53 27h1M55 27h2M64 27h7M29 28h4M37 28h1M39 28h1M55 28h1M64 28h7M29 29h4M64 29h6M29 30h4M63 30h6M30 31h3M63 31h5M30 32h3M62 32h5M31 33h1M61 33h5M60 34h4M61 35h1M14 44h1M13 45h2M12 46h3M12 47h2M49 47h1M11 48h3M48 48h2M11 49h3M48 49h2M10 50h4M47 50h3M57 50h3M10 51h5M47 51h3M56 51h4M10 52h5M27 52h1M46 52h5M56 52h4M10 53h6M27 53h1M46 53h5M56 53h4M10 54h7M26 54h3M46 54h5M56 54h4M63 54h1M10 55h8M25 55h1M27 55h2M45 55h7M56 55h4M63 55h1M10 56h9M21 56h4M26 56h3M45 56h7M55 56h5M63 56h1M11 57h4M16 57h5M24 57h4M45 57h8M54 57h5M63 57h1M11 58h4M16 58h12M45 58h8M57 58h2M63 58h1M11 59h5M18 59h8M45 59h7M53 59h1M56 59h3M63 59h1M12 60h4M21 60h3M31 60h1M46 60h6M54 60h4M62 60h2M12 61h5M31 61h1M46 61h7M55 61h2M62 61h2M13 62h6M30 62h1M46 62h7M62 62h1M14 63h4M19 63h1M21 63h1M29 63h1M47 63h7M62 63h1M15 64h4M20 64h1M27 64h2M47 64h7M61 64h2M17 65h3M21 65h1M23 65h1M25 65h2M48 65h7M61 65h1M20 66h1M22 66h1M48 66h8M57 66h1M60 66h2M49 67h6M56 67h1M59 67h1M50 68h4M55 68h1M57 68h1M52 69h3M56 69h1M34 76h1M37 76h1M33 77h3M37 77h3M59 77h1M33 78h3M37 78h3M58 78h2M61 78h3M65 78h3M58 79h2M61 79h3M65 79h3M61 80h3M65 80h2" />
<path stroke="#8b8b94" d="M35 20h1M35 21h1M34 22h1M33 23h1M31 24h2M14 43h2M13 44h1M12 45h1M11 46h1M49 46h2M11 47h1M14 47h1M48 47h1M10 48h1M47 48h1M10 49h1M47 49h1M9 50h1M14 50h1M46 50h1M9 51h1M46 51h1M9 52h1M15 52h1M45 52h1M9 53h1M45 53h1M9 54h1M45 54h1M9 55h1M18 55h2M44 55h1M55 55h1M9 56h1M19 56h2M44 56h1M10 57h1M21 57h2M44 57h1M10 58h1M28 58h1M44 58h1M53 58h1M10 59h1M44 59h1M54 59h2M11 60h1M26 60h1M11 61h1M59 61h1M26 62h1M58 63h1M59 64h1M52 74h2M50 75h1M52 75h2M55 75h1M73 75h1M76 75h2M79 75h1M75 76h3M79 76h2" />
<path stroke="#415a8b" d="M53 20h4M51 21h3M57 21h2M38 22h2M50 22h2M59 22h1M36 23h1M39 23h1M48 23h2M55 23h1M60 23h1M35 24h1M37 24h1M40 24h1M45 24h3M54 24h1M61 24h1M38 25h1M41 25h4M53 25h1M62 25h1M34 26h2M39 26h1M51 27h1M63 27h1M33 28h1M56 28h1M63 28h1M33 29h1M59 29h1M63 29h1M33 30h1M54 30h1M58 30h1M62 30h1M33 31h1M62 31h1M61 32h1M60 33h1" />
<path stroke="#bdbdc5" d="M48 21h3M37 22h1M45 22h5M40 23h8M41 24h4M34 25h1M33 27h1M70 29h1M69 30h2M68 31h2M33 32h1M67 32h3M30 33h1M66 33h3M64 34h4M62 35h5M62 36h4M63 37h1M60 51h2M60 52h3M28 53h1M60 53h3M60 54h3M26 55h1M29 55h1M60 55h3M25 56h1M29 56h1M60 56h3M15 57h1M23 57h1M28 57h3M59 57h4M15 58h1M29 58h2M55 58h2M59 58h4M16 59h2M26 59h6M52 59h1M59 59h4M16 60h5M24 60h2M27 60h4M52 60h2M58 60h4M17 61h14M53 61h2M57 61h2M60 61h2M19 62h7M27 62h3M53 62h9M18 63h1M20 63h1M22 63h7M54 63h4M59 63h3M19 64h1M21 64h6M54 64h5M60 64h1M20 65h1M22 65h1M24 65h1M55 65h6M21 66h1M23 66h1M56 66h1M58 66h2M55 67h1M57 67h2M60 67h1M54 68h1M56 68h1M58 68h1M55 69h1M30 75h1M30 76h2M30 77h2" />
<path stroke="#5294c5" d="M54 21h3M52 22h7M37 23h2M50 23h5M58 23h2M36 24h1M38 24h2M48 24h6M59 24h2M35 25h1M39 25h2M45 25h8M59 25h3M40 26h12M60 26h3M34 27h1M40 27h11M60 27h3M34 28h1M40 28h2M45 28h7M60 28h3M34 29h1M39 29h1M47 29h6M60 29h3M34 30h2M48 30h6M59 30h3M34 31h3M49 31h13M34 32h2M51 32h10M53 33h7M54 34h4" />
<path stroke="#101010" d="M56 23h2M56 24h3M36 25h2M57 25h2M36 26h1M52 26h1M57 26h3M35 27h2M52 27h1M54 27h1M57 27h3M74 27h1M35 28h2M38 28h1M42 28h2M52 28h3M57 28h3M35 29h2M38 29h1M41 29h1M53 29h6M75 29h1M36 30h2M39 30h1M55 30h3M37 31h2M76 31h1M36 32h1M77 33h1M77 34h1M78 35h1M78 36h1M78 37h1M33 38h1M79 38h1M26 39h1M33 39h1M79 39h1M25 40h1M79 40h1M25 41h1M80 41h1M25 42h1M80 42h1M25 43h1M80 43h1M15 44h1M81 44h1M15 45h1M81 45h1M82 46h1M50 47h1M83 47h3M50 48h1M86 48h1M50 49h1M86 49h1M50 50h1M50 51h1M85 51h1M51 52h1M85 52h1M16 53h1M51 53h1M84 53h1M51 54h1M64 54h1M84 54h1M52 55h1M64 55h1M83 55h1M52 56h2M64 56h1M83 56h1M53 57h1M64 57h1M84 57h1M54 58h1M64 58h1M84 58h1M64 59h1M85 59h1M32 60h1M64 60h1M73 60h1M85 60h1M32 61h1M45 61h1M64 61h1M73 61h1M85 61h1M31 62h1M45 62h1M63 62h1M73 62h1M86 62h1M30 63h1M63 63h1M73 63h1M78 63h1M86 63h1M29 64h1M46 64h1M63 64h1M73 64h1M77 64h1M86 64h1M16 65h1M27 65h2M62 65h1M73 65h1M87 65h1M18 66h2M24 66h3M47 66h1M62 66h1M74 66h1M87 66h1M20 67h4M48 67h1M61 67h1M74 67h1M87 67h1M49 68h1M59 68h2M74 68h1M87 68h1M50 69h2M57 69h2M74 69h1M87 69h1M46 70h1M53 70h4M74 70h1M44 71h1M47 71h7M57 71h1M73 71h1M86 71h1M43 72h1M48 72h1M57 72h1M73 72h1M86 72h1M43 73h1M48 73h1M57 73h1M73 73h1M43 74h1M49 74h1M56 74h1M72 74h1M29 75h1M44 75h1M49 75h1M56 75h1M72 75h1M84 75h2M29 76h1M43 76h1M50 76h5M73 76h2M81 76h4M29 77h1M42 77h2M73 77h1M75 77h6M30 78h2M40 78h2M57 78h1M70 78h3M32 79h8M57 79h1M70 79h1M58 80h2M67 80h3M60 81h7" />
<path stroke="#5a5262" d="M30 25h1M29 26h1M37 26h1M29 27h1M28 28h1M28 29h1M37 29h1M28 30h1M29 31h1M15 46h1M14 48h1M14 49h1M56 50h1M15 51h1M55 51h1M17 54h2M25 54h1M55 54h1M20 55h5M45 60h1M12 62h1M13 63h1M46 63h1M14 64h1M15 65h1M47 65h1M17 66h1M74 75h1M32 76h1M78 76h1M32 77h1M36 77h1M32 78h1M36 78h1M60 78h1M64 78h1M60 79h1M64 79h1M60 80h1M64 80h1" />
<path stroke="#5a3939" d="M44 28h1M40 29h1M45 29h2M38 30h1M47 30h1M48 31h1M40 32h1M35 33h1M41 33h1M34 34h1M42 34h1M34 35h1M43 35h1M33 36h1M43 36h1M33 37h1M36 37h1M39 37h1M36 38h1M40 39h1M43 40h1M42 41h1M82 47h1M67 48h1M84 50h1M80 58h1M80 59h1M80 60h1M81 64h1M67 65h1M81 65h1M85 65h1M30 66h1M71 66h1M30 67h1M39 67h1M85 67h1M33 68h1M65 68h1M69 68h1M33 69h1M65 69h1M69 69h1M29 70h1M68 70h1M82 70h1M68 71h1M82 71h1M83 73h1M73 74h2M76 74h2M79 74h1M83 74h1M75 75h1M78 75h1M80 75h2" />
<path stroke="#e6deac" d="M42 29h3M40 30h7M39 31h9M41 32h8M42 33h9M43 34h10M33 35h1M44 35h10M58 35h2M32 36h1M44 36h15M60 36h1M29 37h4M45 37h17M30 38h2M45 38h14M32 39h1M46 39h10M49 40h1M51 40h1M53 40h1M55 40h1M52 41h1M54 41h1M56 41h1M51 42h1M53 42h1M55 42h1M52 43h1M65 77h1" />
<path stroke="#e694bd" d="M37 32h2M36 33h5M35 34h1M39 34h3M41 35h2M34 36h1M42 36h1M43 37h1M43 38h1" />
<path stroke="#a4627b" d="M39 32h1M36 34h3M35 35h6M35 36h7M34 37h2M37 37h2M40 37h3M34 38h2M37 38h2M41 38h2M34 39h2M37 39h3M41 39h3M34 40h9M35 41h2M40 41h2" />
<path stroke="#b4a483" d="M49 32h1M51 33h1M32 34h2M54 35h1M32 38h1M59 38h4M31 39h1M45 39h1M56 39h5M29 40h4M44 40h5M50 40h1M52 40h1M54 40h1M56 40h7M31 41h3M43 41h9M53 41h1M55 41h1M57 41h4M30 42h21M52 42h1M54 42h1M56 42h3M29 43h23M53 43h6M28 44h1M30 44h2M33 44h27M30 45h1M32 45h25M58 45h3M32 46h17M51 46h6M31 47h17M51 47h7M32 48h1M35 48h12M51 48h1M53 48h1M55 48h2M35 49h12M51 49h2M56 49h1M36 50h1M38 50h2M41 50h4M52 50h1M39 51h1M42 51h2M62 77h1M66 77h1" />
</svg>