<svg xmlns="http://www.w3.org/2000/svg" viewBox="0 -0.5 96 96" shape-rendering="crispEdges">
<metadata>Made with Pixels to Svg https://codepen.io/shshaw/pen/XbxvNj</metadata>
<path stroke="#737373" d="M24 19h2M58 19h2M23 20h1M26 20h1M57 20h1M60 20h1M23 21h1M27 21h1M56 21h1M60 21h1M23 22h1M28 22h1M55 22h1M60 22h1M23 23h1M29 23h1M54 23h1M60 23h1M23 24h1M30 24h1M53 24h1M60 24h1M23 25h1M31 25h1M52 25h1M60 25h1M23 26h1M28 26h1M60 26h1M23 27h1M35 27h1M60 27h1M23 28h1M29 28h1M59 28h1M23 29h1M51 29h1M59 29h1M24 30h1M50 30h1M59 30h1M24 31h1M49 31h2M58 31h1M24 32h1M29 32h2M48 32h1M51 32h1M58 32h1M25 33h1M28 33h1M31 33h1M52 33h1M57 33h1M25 34h1M28 34h1M52 34h1M26 35h1M28 35h1M52 35h1M26 36h1M29 36h1M51 36h1M27 37h1M30 40h1M30 41h1M32 41h1M46 41h2M30 42h1M31 43h1M31 44h1M49 44h1M32 45h1M38 45h1M48 45h1M33 46h1M37 46h1M39 46h2M44 47h1M60 50h8M57 51h3M68 51h2M55 52h2M70 52h1M52 53h3M36 54h1M46 54h1M60 54h2M58 55h2M35 56h1M57 56h1M35 57h1M56 57h1M35 58h1M56 58h1M34 59h1M57 59h4M34 60h1M45 60h1M61 60h3M34 61h1M37 61h1M42 61h1M45 61h2M64 61h2M33 62h1M43 62h1M66 62h1M33 63h1M44 63h1M59 63h2M67 63h1M61 64h2M63 65h1M52 67h1" />
<path stroke="#bfbfbf" d="M24 20h1M59 20h1M27 25h1M30 25h1M31 26h1M28 27h2M35 28h1M50 28h1M52 28h1M49 29h2M49 30h1M51 31h1M49 32h1M52 32h1M48 33h1M29 35h1M32 35h1M30 37h1M47 37h1M53 37h1M47 38h5M31 41h1M33 41h1M45 41h1M48 41h1M31 42h1M35 42h1M42 42h2M48 43h2M32 44h1M35 44h1M42 44h1M47 44h2M39 45h1M43 45h5M38 46h1M41 46h6M38 47h6M46 50h1M44 51h4M47 52h2M57 52h1M45 53h1M55 53h2M49 54h1M53 54h3M62 54h3M33 55h1M35 55h2M46 55h1M54 55h2M65 55h1M71 55h1M55 56h1M71 56h1M54 57h2M70 57h2M36 58h1M46 58h1M53 58h3M69 58h3M35 59h3M44 59h4M67 59h5M35 60h10M46 60h2M56 60h1M64 60h7M36 61h1M38 61h4M43 61h2M47 61h2M55 61h1M66 61h5M37 62h2M41 62h2M44 62h2M48 62h2M56 62h1M67 62h3M38 63h1M42 63h1M45 63h1M68 63h1M45 64h1M68 65h1M64 66h1M68 66h1M68 67h2M67 68h3M52 69h1M66 69h4M52 70h2M67 70h3M53 71h3M61 71h2M64 71h1M66 71h3M53 72h9M63 72h1M65 72h4M54 73h14M55 74h12M57 75h8" />
<path stroke="#f8f8f8" d="M25 20h1M58 20h1M24 21h3M57 21h3M24 22h4M56 22h4M24 23h5M55 23h5M24 24h6M54 24h6M24 25h3M28 25h2M53 25h7M24 26h4M29 26h2M52 26h8M24 27h4M30 27h1M51 27h9M24 28h5M30 28h1M51 28h1M53 28h6M24 29h6M52 29h7M25 30h5M51 30h8M25 31h5M52 31h6M25 32h4M50 32h1M53 32h5M26 33h2M29 33h2M49 33h3M53 33h4M26 34h2M29 34h3M48 34h4M53 34h4M27 35h1M30 35h2M47 35h5M53 35h3M27 36h2M30 36h3M47 36h4M52 36h3M28 37h2M31 37h2M34 37h1M44 37h2M48 37h5M29 38h3M33 38h13M32 39h15M31 40h20M34 41h11M49 41h2M33 42h1M36 42h6M45 42h1M49 42h2M36 43h6M36 44h6M33 45h5M40 45h3M60 51h8M42 52h5M58 52h12M34 53h2M40 53h5M46 53h3M57 53h14M34 54h2M37 54h9M47 54h2M56 54h4M65 54h6M34 55h1M37 55h9M56 55h2M60 55h5M66 55h5M36 56h11M56 56h1M58 56h13M36 57h11M57 57h13M37 58h9M57 58h12M38 59h6M61 59h6M57 60h4M35 61h1M56 61h8M34 62h2M57 62h9M34 63h1M61 63h6M56 64h5M63 64h5M54 65h9M64 65h4M53 66h11M65 66h3M53 67h15M52 68h15M53 69h13M54 70h13M56 71h5M63 71h1M65 71h1M62 72h1M64 72h1" />
<path stroke="#17294d" d="M34 24h1M33 25h2M32 26h1M34 26h1M39 26h6M31 27h1M34 27h1M37 27h2M45 27h2M31 28h1M34 28h1M36 28h1M47 28h1M30 29h1M34 29h2M48 29h1M30 30h1M48 30h1M30 31h1M44 34h1M42 35h1M34 36h1M39 36h2M35 37h4M34 46h3M33 47h1M37 47h1M49 47h1M32 48h1M37 48h1M32 49h1M37 49h1M32 50h1M35 50h2M33 51h1M33 53h1M31 54h2M51 54h1M29 55h2M28 56h1M48 58h5M53 59h4M37 63h1M39 63h1M37 64h3M38 65h2M38 66h2M39 67h2M39 68h1M39 69h1M39 70h1M39 71h1M39 72h1M39 73h1" />
<path stroke="#365fb3" d="M33 26h1M32 27h2M39 27h6M32 28h2M37 28h9M31 29h3M36 29h11M31 30h3M35 30h13M31 31h4M36 31h12M31 32h15M47 32h1M32 33h13M46 33h1M33 34h10M45 34h2M34 35h7M44 35h2M42 36h2M34 47h2M33 48h4M33 49h1M35 49h1M33 50h2M37 50h2M34 51h8M36 52h4M49 53h1M33 54h1M50 54h1M31 55h2M49 55h4M29 56h5M51 56h3M49 59h3M49 60h7M50 61h5M51 62h2M55 62h1M41 69h1M40 70h2M40 71h2M40 72h2M40 73h1" />
<path stroke="#101010" d="M51 26h1M50 27h1M49 28h1M47 33h1M32 34h1M47 34h1M57 34h1M33 35h1M46 35h1M56 35h1M33 36h1M44 36h3M55 36h1M33 37h1M39 37h5M46 37h1M54 37h1M28 38h1M32 38h1M46 38h1M52 38h2M29 39h3M47 39h5M51 40h1M51 41h1M51 42h1M50 43h1M50 44h1M49 45h1M47 46h2M45 47h2M38 48h6M50 48h1M46 49h3M50 49h1M44 50h2M47 50h1M49 50h2M42 51h2M48 51h1M34 52h2M40 52h2M49 52h1M36 53h4M50 53h2M71 53h1M52 54h1M71 54h1M47 55h2M53 55h1M72 55h1M34 56h1M47 56h1M49 56h2M54 56h1M72 56h1M29 57h5M47 57h1M51 57h3M72 57h1M47 58h1M72 58h1M48 59h1M72 59h1M48 60h1M71 60h1M49 61h1M71 61h1M36 62h1M39 62h2M46 62h2M50 62h1M70 62h1M35 63h2M40 63h1M43 63h1M46 63h1M48 63h2M56 63h3M69 63h1M33 64h2M36 64h1M40 64h1M44 64h1M46 64h2M54 64h2M68 64h1M37 65h1M40 65h1M45 65h2M48 65h2M53 65h1M69 65h1M37 66h1M40 66h1M45 66h1M50 66h3M69 66h1M38 67h1M45 67h1M70 67h1M38 68h1M44 68h1M51 68h1M70 68h1M44 69h1M51 69h1M70 69h1M43 70h1M51 70h1M70 70h1M43 71h1M52 71h1M69 71h1M42 72h1M52 72h1M69 72h1M42 73h1M53 73h1M68 73h1M40 74h2M54 74h1M67 74h1M55 75h2M65 75h2M57 76h8" />
<path stroke="#264480" d="M46 28h1M47 29h1M34 30h1M35 31h1M48 31h1M46 32h1M45 33h1M43 34h1M41 35h1M43 35h1M35 36h4M41 36h1M36 47h1M47 47h2M44 48h6M34 49h1M36 49h1M38 49h8M49 49h1M39 50h5M48 56h1M48 57h3M52 59h1M53 62h2M41 63h1M47 63h1M50 63h6M41 64h3M48 64h6M41 65h4M50 65h3M41 66h4M41 67h4M40 68h4M40 69h1M42 69h2M42 70h1M42 71h1M41 73h1" />
<path stroke="#ffe54f" d="M32 42h1M46 42h2M33 43h1M35 43h1M42 43h2M46 43h1M33 44h1M43 44h1M45 44h1" />
<path stroke="#d92121" d="M34 42h1M44 42h1M34 43h1M44 43h1" />
<path stroke="#c9ad20" d="M48 42h1M32 43h1M45 43h1M47 43h1M34 44h1M44 44h1M46 44h1" />
</svg>