<svg xmlns="http://www.w3.org/2000/svg" viewBox="0 -0.5 32 32" shape-rendering="crispEdges">
<metadata>Made with Pixels to Svg https://codepen.io/shshaw/pen/XbxvNj</metadata>
<path stroke="#ffffff" d="M9 4h18M8 5h2M26 5h2M8 6h1M27 6h1M7 7h2M27 7h1M7 8h1M27 8h1M7 9h1M27 9h1M7 10h1M27 10h1M6 11h2M27 11h1M6 12h1M27 12h1M6 13h1M27 13h1M6 14h1M27 14h1M5 15h2M26 15h2M5 16h1M26 16h1M5 17h1M26 17h1M5 18h1M26 18h1M4 19h2M25 19h2M4 20h1M25 20h1M4 21h1M25 21h1M4 22h1M25 22h1M4 23h1M24 23h2M4 24h1M24 24h1M4 25h1M24 25h1M4 26h2M23 26h2M5 27h19" />
<path stroke="#202020" d="M10 5h16M9 6h1M26 6h1M9 7h1M26 7h1M8 8h1M26 8h1M8 9h1M26 9h1M8 10h1M26 10h1M8 11h1M26 11h1M7 12h1M26 12h1M7 13h1M26 13h1M7 14h1M26 14h1M7 15h1M25 15h1M6 16h1M25 16h1M6 17h1M25 17h1M6 18h1M25 18h1M6 19h1M24 19h1M5 20h1M24 20h1M5 21h1M24 21h1M5 22h1M24 22h1M5 23h1M23 23h1M5 24h1M23 24h1M5 25h1M23 25h1M6 26h17" />
<path stroke="#de5241" d="M10 6h1M12 7h1M14 7h1M9 8h1M11 8h1M8 12h1M7 16h1M19 19h1M6 20h1M18 20h1M20 20h1M15 21h1M17 21h1M19 21h1M6 24h1M6 25h1" />
<path stroke="#ff8383" d="M11 6h1M25 6h1M10 7h1M24 7h1M10 8h1M24 8h1M9 9h2M24 9h1M9 10h1M24 10h1M9 11h1M23 11h2M9 12h1M23 12h1M8 13h2M23 13h1M8 14h1M23 14h1M8 15h1M22 15h2M8 16h1M22 16h1M7 17h2M22 17h1M7 18h1M22 18h1M7 19h1M21 19h2M7 20h1M21 20h1M6 21h1M21 21h1M6 22h1" />
<path stroke="#ff9c9c" d="M12 6h13M7 22h15" />
<path stroke="#ff5a5a" d="M11 7h1M13 7h1M15 7h9M25 7h1M12 8h12M25 8h1M11 9h13M10 10h14M10 11h13M10 12h13M24 12h1M10 13h13M9 14h14M9 15h13M9 16h13M23 16h1M9 17h13M8 18h14M8 19h11M20 19h1M8 20h10M19 20h1M22 20h1M7 21h8M16 21h1M18 21h1M20 21h1" />
<path stroke="#b41818" d="M25 9h1M24 13h1M23 17h1M22 21h1M6 23h1M21 23h1M7 24h15M7 25h15" />
<path stroke="#a40808" d="M25 10h1M25 11h1M25 12h1M25 13h1M24 14h2M24 15h1M24 16h1M24 17h1M23 18h2M23 19h1M23 20h1M23 21h1M22 22h2M7 23h14M22 23h1M22 24h1M22 25h1" />
</svg>