<svg xmlns="http://www.w3.org/2000/svg" viewBox="0 -0.5 32 32" shape-rendering="crispEdges">
<metadata>Made with Pixels to Svg https://codepen.io/shshaw/pen/XbxvNj</metadata>
<path stroke="#202020" d="M13 7h6M10 8h3M19 8h3M9 9h1M22 9h1M8 10h1M23 10h1M23 11h1M7 12h1M7 13h1M24 13h1M7 14h1M24 14h1M7 15h1M24 15h1M7 16h1M24 16h1M7 17h1M24 17h1M7 18h1M24 18h1M8 19h1M23 19h1M8 20h1M23 20h1M9 21h1M22 21h1M10 22h1M21 22h1M11 23h2M19 23h2M13 24h6" />
<path stroke="#b439f6" d="M13 8h6M13 9h5M15 10h2M12 11h1M15 11h2M12 12h5M11 13h1M13 13h1M15 13h3M10 14h1M12 14h1M14 14h1M16 14h3M9 15h2M12 15h1M14 15h1M16 15h3M9 16h10M10 17h2M15 17h2" />
<path stroke="#e620c5" d="M10 9h3M18 9h3M10 10h3M17 10h1M20 10h2M9 11h3M17 11h1M20 11h2M8 12h3M17 12h5M8 13h2M18 13h4M19 14h2" />
<path stroke="#b40094" d="M21 9h1M22 10h1M8 11h1M22 11h1M11 12h1M22 12h2M10 13h1M22 13h2M8 14h2M21 14h3M20 15h3" />
<path stroke="#ffc5ff" d="M9 10h1M18 10h2M18 11h2" />
<path stroke="#cd41ff" d="M13 10h2M13 11h2" />
<path stroke="#decdf6" d="M12 13h1M14 13h1M11 14h1M13 14h1M15 14h1M11 15h1M13 15h1M15 15h1M9 20h1M21 20h1M10 21h1M15 21h6M12 22h7" />
<path stroke="#7331cd" d="M8 15h1M19 15h1M19 16h4M17 17h5M16 18h3" />
<path stroke="#6a31c5" d="M23 15h1M8 16h1M23 16h1M9 17h1M22 17h1M19 18h1" />
<path stroke="#4a5252" d="M8 17h1M12 17h3M23 17h1M8 18h4M15 18h1M20 18h4M10 19h2M15 19h7M15 20h5" />
<path stroke="#a4a4c5" d="M12 18h1M14 18h1M12 20h1M14 20h1M22 20h1M21 21h1M11 22h1M19 22h2M13 23h6" />
<path stroke="#ffffff" d="M13 18h1M12 19h3M10 20h1M13 20h1M11 21h1" />
<path stroke="#7b7b83" d="M9 19h1M22 19h1M11 20h1M20 20h1M12 21h3" />
</svg>