<svg xmlns="http://www.w3.org/2000/svg" viewBox="0 -0.5 32 32" shape-rendering="crispEdges">
<metadata>Made with Pixels to Svg https://codepen.io/shshaw/pen/XbxvNj</metadata>
<path stroke="#202020" d="M13 7h6M11 8h2M19 8h2M10 9h1M21 9h1M9 10h1M22 10h1M8 11h1M23 11h1M8 12h1M23 12h1M7 13h1M24 13h1M7 14h1M24 14h1M7 15h1M24 15h1M7 16h1M24 16h1M7 17h1M24 17h1M7 18h1M24 18h1M8 19h1M23 19h1M8 20h1M23 20h1M9 21h1M22 21h1M10 22h1M21 22h1M11 23h2M19 23h2M13 24h6" />
<path stroke="#bdac6a" d="M13 8h1M18 8h1M11 9h1M14 9h1M17 9h2M14 11h1M17 11h1M18 12h1M17 13h1" />
<path stroke="#f6cd41" d="M14 8h4M12 9h2M13 10h1M18 11h1M14 12h4M13 13h4" />
<path stroke="#7b8b9c" d="M15 9h2M19 9h1M14 10h7M15 11h2M19 11h2M19 12h2M18 13h3M15 14h5M13 15h7M14 16h5M15 17h2" />
<path stroke="#627394" d="M20 9h1M21 10h1M21 11h2M21 12h2M21 13h3M20 14h4M20 15h4M19 16h4M17 17h5M16 18h3" />
<path stroke="#4ac5ee" d="M10 10h1M9 11h1M9 12h1M8 13h3M8 14h7M8 15h5M9 16h5M10 17h2" />
<path stroke="#ffe6a4" d="M11 10h2M13 11h1M13 12h1" />
<path stroke="#9cffff" d="M10 11h1M10 12h1M11 13h2" />
<path stroke="#ffffff" d="M11 11h2M11 12h2M13 18h1M12 19h3M10 20h1M13 20h1M11 21h1" />
<path stroke="#4194ac" d="M8 16h1M9 17h1" />
<path stroke="#5a6a7b" d="M23 16h1M22 17h1M19 18h1" />
<path stroke="#4a5252" d="M8 17h1M12 17h3M23 17h1M8 18h4M15 18h1M20 18h4M10 19h2M15 19h7M15 20h5" />
<path stroke="#a4a4c5" d="M12 18h1M14 18h1M12 20h1M14 20h1M22 20h1M21 21h1M11 22h1M19 22h2M13 23h6" />
<path stroke="#7b7b83" d="M9 19h1M22 19h1M11 20h1M20 20h1M12 21h3" />
<path stroke="#decdf6" d="M9 20h1M21 20h1M10 21h1M15 21h6M12 22h7" />
</svg>