<svg xmlns="http://www.w3.org/2000/svg" viewBox="0 -0.5 64 64" shape-rendering="crispEdges">
<metadata>Made with Pixels to Svg https://codepen.io/shshaw/pen/XbxvNj</metadata>
<path stroke="#999999" d="M26 14h1M36 14h1M25 15h1M37 15h1M22 16h1M40 16h1M19 17h1M12 25h1M11 27h1M10 30h1M37 35h2M33 36h1M27 37h1M11 38h1M18 38h1M53 38h1M53 39h1M52 40h1" />
<path stroke="#585050" d="M27 14h9M23 15h2M38 15h2M21 16h1M41 16h1M20 17h1M42 17h2M18 18h1M44 18h1M17 19h1M16 20h1M15 21h1M14 22h1M13 23h1M12 24h1M50 25h1M11 26h1M51 27h1M10 28h1M10 29h1M9 31h1M9 32h1M9 33h1M9 34h1M9 35h1M9 36h1M53 36h1M9 37h1M53 37h1M52 41h1M52 42h1" />
<path stroke="#f8f8f8" d="M26 15h11M23 16h11M21 17h12M19 18h14M42 18h2M18 19h14M44 19h1M17 20h14M44 20h2M16 21h14M45 21h2M15 22h11M46 22h2M14 23h12M47 23h2M13 24h12M47 24h2M13 25h12M48 25h2M12 26h12M48 26h2M12 27h12M49 27h2M11 28h13M49 28h3M11 29h12M50 29h2M11 30h12M50 30h2M10 31h13M10 32h13M10 33h12M10 34h12M10 35h12M10 36h12M52 36h1M10 37h12M51 37h2M12 38h6M51 38h2M51 39h2M51 40h1M51 41h1M51 42h1" />
<path stroke="#cccccc" d="M34 16h6M33 17h9M34 18h7M34 19h6M35 20h4M35 21h4M35 22h4M26 23h1M34 23h6M25 24h4M32 24h8M49 24h1M25 25h15M24 26h17M50 26h1M24 27h18M24 28h18M23 29h20M23 30h20M23 31h20M23 32h21M22 33h24M22 34h20M52 34h1M22 35h15M50 35h3M22 36h11M50 36h2M22 37h5" />
<path stroke="#e8e8e8" d="M33 18h1M41 18h1M32 19h2M40 19h4M31 20h4M39 20h5M30 21h5M39 21h6M26 22h9M39 22h7M27 23h7M40 23h7M29 24h3M40 24h7M40 25h8M41 26h7M42 27h7M42 28h7M43 29h7M43 30h7M43 31h8M44 32h5" />
<path stroke="#101010" d="M45 19h1M46 20h1M47 21h1M48 22h1M49 23h1M50 24h1M51 26h1M52 28h1M52 29h1M53 32h1M53 33h1M53 34h1M53 35h1M51 44h1M50 46h1M49 47h1M48 48h1M47 49h1M46 50h1" />
<path stroke="#801010" d="M52 30h1M51 31h1M53 31h1M49 32h2M47 33h2M52 33h1M43 34h2M50 34h2M40 35h2M35 36h2M29 37h4M9 38h1M21 38h5M50 38h1M9 39h1M50 39h1M10 40h1M50 40h1M10 41h1M50 41h1M10 42h1M50 42h1M11 43h1M51 43h1M11 44h1M12 45h1M50 45h1M12 46h1M13 47h1M14 48h1M15 49h1M16 50h1" />
<path stroke="#f87848" d="M52 31h1M51 32h2M49 33h3M46 34h3M44 35h1M46 35h3M45 36h1M47 36h2M46 37h1M48 37h2M45 38h1M47 38h3M10 39h2M18 39h4M46 39h1M48 39h2M11 40h2M16 40h6M47 40h1M49 40h1M11 41h1M17 41h6M46 41h1M48 41h2M11 42h1M17 42h6M47 42h1M49 42h1M12 43h1M18 43h5M46 43h1M48 43h1M50 43h1M12 44h1M18 44h5M47 44h1M49 44h1M18 45h6M46 45h1M48 45h1M13 46h1M18 46h6M47 46h1M14 47h1M17 47h8M46 47h1M15 48h10M16 49h10M17 50h10" />
<path stroke="#b03000" d="M46 33h1M42 34h1M45 34h1M39 35h1M49 35h1M34 36h1M37 36h4M42 36h1M49 36h1M28 37h1M33 37h9M43 37h1M50 37h1M10 38h1M19 38h2M26 38h17M12 39h6M25 39h1M27 39h15M43 39h1M26 40h17M25 41h1M27 41h15M43 41h1M26 42h1M28 42h15M27 43h15M43 43h1M26 44h1M28 44h15M50 44h1M27 45h1M29 45h13M43 45h1M28 46h1M30 46h13M49 46h1M27 47h1M29 47h13M43 47h1M48 47h1M28 48h1M30 48h11M42 48h1M47 48h1M29 49h1M31 49h11M43 49h1M46 49h1M30 50h1M32 50h9M42 50h1M45 50h1" />
<path stroke="#e04000" d="M49 34h1M42 35h2M45 35h1M41 36h1M43 36h2M46 36h1M42 37h1M44 37h2M47 37h1M43 38h2M46 38h1M22 39h3M26 39h1M42 39h1M44 39h2M47 39h1M22 40h4M43 40h4M48 40h1M23 41h2M26 41h1M42 41h1M44 41h2M47 41h1M23 42h3M27 42h1M43 42h4M48 42h1M23 43h4M42 43h1M44 43h2M47 43h1M49 43h1M23 44h3M27 44h1M43 44h4M48 44h1M24 45h3M28 45h1M42 45h1M44 45h2M47 45h1M49 45h1M24 46h4M29 46h1M43 46h4M48 46h1M25 47h2M28 47h1M42 47h1M44 47h2M47 47h1M25 48h3M29 48h1M41 48h1M43 48h4M26 49h3M30 49h1M42 49h1M44 49h2M27 50h3M31 50h1M41 50h1M43 50h2" />
<path stroke="#f8b098" d="M13 40h3M12 41h5M12 42h5M13 43h5M13 44h5M13 45h5M14 46h4M15 47h2" />
</svg>