<svg xmlns="http://www.w3.org/2000/svg" viewBox="0 -0.5 64 64" shape-rendering="crispEdges">
<metadata>Made with Pixels to Svg https://codepen.io/shshaw/pen/XbxvNj</metadata>
<path stroke="#c85030" d="M32 15h1M39 15h1M31 16h1M42 16h1M28 17h1M43 17h1M17 19h1M15 20h1M35 22h1M38 22h1M11 23h1M34 23h1M10 25h1M20 26h1M46 26h1M30 27h1M9 28h1M19 28h1M18 29h1M29 29h1M18 30h1M17 31h1M51 31h1M17 32h1M16 33h1M28 33h1M10 34h1M16 34h1M41 34h5M15 35h1M41 35h3M41 36h1M40 37h1M27 38h1M45 38h1M27 39h1M47 39h1M26 40h1M11 41h1M26 41h1M26 42h1M40 42h1M42 42h2M41 43h2M39 47h1M38 49h1" />
<path stroke="#901000" d="M33 15h6M29 16h2M40 16h2M27 17h1M44 17h1M18 18h3M26 18h1M16 19h1M25 19h1M14 20h1M13 21h1M12 22h1M36 22h2M48 22h1M33 23h1M39 23h2M11 24h1M21 24h1M32 24h1M41 24h1M47 24h1M49 24h1M20 25h1M31 25h1M42 25h1M10 26h1M30 26h1M42 26h1M50 26h1M10 27h1M19 27h1M42 27h1M29 28h1M41 28h1M47 28h1M9 29h1M41 29h1M52 29h1M28 30h1M41 30h1M53 30h1M28 31h1M40 31h1M28 32h1M9 33h1M27 34h1M51 34h1M10 35h1M27 35h1M44 35h1M47 35h1M15 36h1M27 36h1M40 36h1M42 36h2M15 37h1M27 37h1M42 37h3M14 38h1M42 38h1M46 38h1M14 39h1M43 39h1M48 39h1M11 40h1M13 40h1M44 40h1M49 40h1M13 41h1M45 41h1M43 44h1M10 45h1M41 45h1M43 45h1M53 45h1M41 46h1M43 46h1M9 47h1M44 47h1M54 47h1M44 48h1M8 49h1" />
<path stroke="#f8a080" d="M32 16h1M39 17h1M41 17h2M27 18h1M38 18h1M40 18h5M26 19h1M37 19h1M39 19h1M41 19h5M16 20h3M25 20h1M35 20h2M38 20h1M40 20h7M14 21h6M24 21h3M32 21h16M15 22h4M23 22h12M39 22h9M15 23h3M22 23h11M35 23h1M41 23h8M15 24h3M22 24h10M33 24h4M42 24h4M48 24h1M15 25h3M21 25h10M34 25h4M43 25h3M49 25h1M14 26h5M21 26h9M35 26h4M43 26h3M49 26h1M11 27h1M13 27h6M20 27h10M35 27h4M43 27h4M49 27h2M10 28h9M20 28h9M35 28h4M42 28h5M49 28h3M10 29h8M19 29h10M34 29h6M42 29h10M10 30h8M19 30h9M34 30h6M42 30h11M10 31h7M18 31h10M33 31h7M43 31h8M52 31h1M10 32h7M18 32h10M29 32h1M32 32h8M47 32h6M10 33h6M17 33h11M29 33h9M11 34h5M17 34h10M28 34h9M11 35h4M16 35h11M28 35h9M11 36h1M13 36h1M16 36h11M28 36h9M12 37h1M14 37h1M16 37h11M28 37h8M13 38h1M15 38h12M28 38h8M15 39h12M28 39h8M14 40h12M27 40h8M14 41h12M27 41h8M13 42h13M27 42h8M12 43h1M15 43h10M26 43h9M11 44h1M16 44h18M16 45h17M16 46h16M10 47h1M14 47h1M16 47h15M9 48h1M11 48h1M13 48h1M15 48h14M9 49h2M12 49h1M14 49h14" />
<path stroke="#f8c8b0" d="M33 16h7M29 17h10M40 17h1M28 18h10M39 18h1M27 19h10M38 19h1M40 19h1M26 20h9M37 20h1M39 20h1M27 21h5M13 22h2M12 23h3M12 24h3M11 25h4M32 25h2M11 26h3M31 26h4M12 27h1M31 27h4M30 28h5M30 29h4M29 30h5M29 31h4M30 32h2M13 43h2M12 44h4M11 45h5M10 46h6M11 47h3M15 47h1M10 48h1M12 48h1M14 48h1M11 49h1M13 49h1" />
<path stroke="#101010" d="M45 18h1M21 19h1M46 19h1M21 20h1M24 20h1M47 20h1M20 21h1M23 21h1M48 21h1M20 22h1M22 22h1M21 23h1M49 23h1M46 24h1M46 25h1M50 25h1M47 26h2M47 27h2M51 27h1M52 28h1M9 30h1M9 31h1M53 31h1M9 32h1M40 32h1M53 32h1M40 33h1M52 33h1M40 34h1M48 34h3M40 35h1M45 35h2M10 36h1M10 37h1M41 37h1M11 38h1M41 38h1M11 39h1M41 39h1M41 40h1M41 41h1M50 41h1M12 42h1M41 42h1M45 42h1M51 42h1M11 43h1M40 43h1M43 43h2M52 43h1M10 44h1M40 44h3M53 44h1M40 45h1M9 46h1M40 46h1M54 46h1M40 47h1M8 48h1M39 48h1M43 48h1M55 48h1M39 49h1M44 49h1M55 49h1" />
<path stroke="#f8f8a0" d="M18 19h3M37 23h2M38 24h3M39 25h3M40 26h1" />
<path stroke="#e86850" d="M19 20h1M19 22h1M18 23h1M36 23h1M18 24h1M37 24h1M18 25h1M38 25h1M48 25h1M19 26h1M39 26h1M39 27h1M39 28h1M48 28h1M40 29h1M40 30h1M41 31h2M41 32h6M38 33h2M41 33h11M37 34h3M46 34h2M37 35h3M12 36h1M14 36h1M37 36h3M11 37h1M13 37h1M36 37h4M12 38h1M36 38h5M12 39h2M36 39h5M42 39h1M12 40h1M35 40h6M42 40h2M12 41h1M35 41h6M42 41h3M35 42h5M44 42h1M25 43h1M35 43h5M34 44h6M33 45h7M32 46h8M31 47h8M29 48h10M28 49h10" />
<path stroke="#e0d070" d="M20 20h1M19 23h2M19 24h2M19 25h1M41 26h1M40 27h2M40 28h1M41 47h1M40 48h3M40 49h4" />
<path stroke="#f8f8f8" d="M47 25h1" />
<path stroke="#f88050" d="M43 38h2M44 39h3M45 40h2M46 41h2M46 42h3M45 43h5M46 44h5M47 45h4M48 46h4M49 47h3M50 48h3M50 49h3" />
<path stroke="#f8a090" d="M47 40h2M48 41h2M49 42h2M50 43h2M51 44h2M51 45h2M52 46h2M52 47h2M53 48h2M53 49h2" />
<path stroke="#e04818" d="M44 44h2M44 45h3M44 46h4M45 47h4M45 48h5M45 49h5" />
<path stroke="#807820" d="M42 47h1" />
</svg>