<svg xmlns="http://www.w3.org/2000/svg" viewBox="0 -0.5 64 64" shape-rendering="crispEdges">
<metadata>Made with Pixels to Svg https://codepen.io/shshaw/pen/XbxvNj</metadata>
<path stroke="#e8d068" d="M31 6h1M33 6h5M30 7h9M30 8h3M35 8h2M38 8h2M31 9h1M34 9h2M39 9h1M25 10h1M30 10h2M33 10h4M24 11h7M32 11h2M36 11h1M25 12h3M29 12h1M33 12h1M20 13h2M24 13h3M34 13h1M18 14h2M21 14h2M24 14h2M9 15h1M11 15h1M18 15h1M25 15h2M8 16h5M19 16h1M22 16h1M8 17h3M13 17h1M20 17h1M8 18h2M13 19h1M12 20h1" />
<path stroke="#c0b028" d="M33 8h2M37 8h1M32 9h2M36 9h3M27 10h2M32 10h1M37 10h3M31 11h1M34 11h2M37 11h3M28 12h1M30 12h1M32 12h1M34 12h5M27 13h4M32 13h2M35 13h3M20 14h1M26 14h5M34 14h3M19 15h3M27 15h2M20 16h2M11 17h2M10 18h3M9 19h3M10 20h1" />
<path stroke="#682040" d="M22 18h3M21 19h1M25 19h1M20 20h1M26 20h1M17 21h2M27 21h1M12 22h1M15 22h2M30 22h2M11 23h1M32 23h1M34 23h2M10 24h1M31 24h1M36 24h1M37 25h1M37 26h1M10 27h1M10 28h1M22 28h1M24 28h1M9 29h1M37 29h1M9 30h1M27 31h1M8 32h1M18 32h1M26 32h1M38 32h1M26 33h1M7 34h1M27 34h1M24 36h1M37 36h1M23 37h1M40 37h1M8 38h1M20 38h1M41 38h1M44 38h3M18 39h1M47 39h1M16 40h1M44 40h1M48 40h1M9 41h1M14 41h1M49 41h1M47 42h1M8 44h1M10 44h1M7 45h1M54 51h1M6 52h1M8 52h1M55 52h1M16 54h3M53 54h1M57 54h1M5 55h1M14 55h7M54 55h1M13 56h1M19 56h3M12 57h1M20 57h3" />
<path stroke="#d0a0a8" d="M22 19h3M12 23h2M16 23h3M11 24h2M15 24h1M18 24h2M34 24h2M11 25h1M14 25h1M18 25h2M34 25h2M13 26h2M17 26h2M12 27h6M12 28h1M14 28h3M19 28h2M13 29h1M15 29h1M18 29h2M12 30h1M14 30h1M18 30h1M13 31h1M8 34h2M8 35h2M29 35h4M8 36h2M28 36h6M22 38h1M24 38h1M19 39h7M18 40h3M24 40h3M17 41h3M25 41h3M16 42h3M24 42h1M26 42h3M16 43h3M23 43h1M25 43h4M17 44h3M22 44h1M24 44h4M8 45h3M17 45h8M26 45h1M28 45h1M8 46h3M18 46h6M25 46h1M27 46h1M7 47h4M20 47h3M24 47h1M26 47h1M7 48h3M23 48h1M7 49h2M38 49h3M38 50h4" />
<path stroke="#b06888" d="M21 20h3M21 21h2M17 22h4M15 23h1M19 23h4M14 24h1M20 24h4M13 25h1M20 25h5M36 25h1M12 26h1M19 26h6M35 26h2M11 27h1M18 27h1M21 27h4M35 27h2M11 28h1M13 28h1M17 28h1M10 29h3M14 29h1M16 29h1M20 29h1M10 30h2M13 30h1M15 30h2M19 30h1M10 31h3M14 31h4M19 31h1M10 32h8M19 32h1M9 33h10M10 34h8M10 35h5M16 35h1M18 35h1M28 35h1M33 35h1M10 36h2M13 36h1M15 36h1M17 36h1M11 37h2M14 37h1M24 37h3M29 37h3M36 37h2M21 38h1M23 38h1M25 38h1M27 38h2M36 38h5M26 39h2M35 39h8M44 39h3M17 40h1M27 40h2M34 40h10M46 40h2M15 41h2M28 41h18M14 42h2M29 42h18M13 43h1M15 43h1M29 43h19M14 44h3M28 44h20M11 45h1M13 45h1M15 45h2M25 45h1M27 45h1M29 45h18M11 46h2M14 46h1M16 46h2M24 46h1M26 46h1M28 46h19M13 47h1M15 47h1M17 47h3M23 47h1M25 47h1M27 47h19M10 48h1M16 48h7M24 48h14M41 48h4M9 49h1M15 49h1M17 49h1M19 49h18M43 49h1M18 50h17M37 50h1M19 51h1M21 51h19M20 52h1M22 52h17M54 52h1M23 53h13M54 53h2M27 54h8M54 54h2M55 55h1" />
<path stroke="#884060" d="M24 20h2M20 21h1M23 21h4M21 22h9M14 23h1M23 23h9M13 24h1M24 24h7M12 25h1M25 25h9M11 26h1M25 26h10M19 27h2M25 27h10M18 28h1M21 28h1M23 28h1M25 28h11M17 29h1M21 29h14M36 29h1M17 30h1M20 30h17M18 31h1M20 31h7M28 31h9M9 32h1M20 32h6M27 32h11M19 33h7M27 33h11M18 34h9M28 34h1M33 34h5M15 35h1M17 35h1M19 35h9M34 35h4M12 36h1M14 36h1M16 36h1M18 36h6M9 37h2M13 37h1M15 37h6M28 37h1M32 37h2M35 37h1M9 38h10M29 38h7M43 38h1M10 39h7M28 39h7M10 40h5M29 40h5M45 40h1M10 41h4M46 41h3M11 42h2M48 42h1M11 43h1M14 43h1M49 43h1M12 44h2M48 44h1M12 45h1M14 45h1M47 45h3M13 46h1M15 46h1M47 46h3M11 47h2M14 47h1M16 47h1M46 47h5M11 48h5M38 48h3M45 48h6M6 49h1M10 49h5M16 49h1M18 49h1M37 49h1M41 49h1M44 49h8M8 50h10M35 50h1M42 50h1M44 50h8M8 51h11M20 51h1M40 51h12M7 52h1M9 52h11M21 52h1M39 52h14M7 53h16M36 53h17M7 54h9M19 54h8M35 54h18M56 54h1M6 55h8M21 55h33M56 55h1M6 56h7M14 56h4M22 56h32M55 56h2M6 57h6M13 57h6M23 57h31M55 57h2" />
<path stroke="#101010" d="M19 21h1M28 21h2M13 22h1M32 24h2M10 25h1M37 27h1M36 28h1M35 29h1M37 30h1M9 31h1M37 31h1M8 33h1M38 33h1M29 34h4M38 34h1M7 35h1M38 35h1M7 36h1M25 36h3M34 36h3M8 37h1M21 37h2M27 37h1M34 37h1M38 37h2M19 38h1M26 38h1M42 38h1M9 39h1M17 39h1M43 39h1M9 40h1M15 40h1M10 42h1M13 42h1M49 42h1M10 43h1M12 43h1M48 43h1M9 44h1M11 44h1M49 44h1M50 45h1M7 46h1M50 46h1M6 47h1M51 47h1M6 48h1M51 48h1M42 49h1M52 49h1M7 50h1M36 50h1M43 50h1M52 50h1M7 51h1M52 51h2M53 52h1M6 53h1M53 53h1M56 53h1M6 54h1M57 55h1M5 56h1M18 56h1M54 56h1M57 56h1M5 57h1M19 57h1M54 57h1M57 57h1" />
<path stroke="#e8c0c0" d="M16 24h2M15 25h3M15 26h2M21 40h3M20 41h5M19 42h5M25 42h1M19 43h4M24 43h1M20 44h2M23 44h1" />
</svg>