<svg xmlns="http://www.w3.org/2000/svg" viewBox="0 -0.5 64 64" shape-rendering="crispEdges">
<metadata>Made with Pixels to Svg https://codepen.io/shshaw/pen/XbxvNj</metadata>
<path stroke="#986808" d="M26 14h1M35 14h1M24 15h1M23 16h1M20 17h1M18 18h1M14 21h1M13 22h1M45 22h1M49 22h1M12 23h1M12 24h1M47 24h1M11 25h1M13 27h1M32 27h1M37 27h1M50 27h1M15 28h1M29 28h1M40 28h1M50 28h1M11 29h1M27 29h1M42 29h1M49 29h2M11 30h1M16 30h1M38 30h1M40 30h1M44 30h1M47 30h5M11 31h1M13 31h1M35 31h1M37 31h1M39 31h1M41 31h1M45 31h7M12 32h1M14 32h1M17 32h1M32 32h1M34 32h1M36 32h1M38 32h1M40 32h1M42 32h2M46 32h6M13 33h1M31 33h1M33 33h1M35 33h10M47 33h5M12 34h1M14 34h1M28 34h1M30 34h1M32 34h14M48 34h4M11 35h3M15 35h1M27 35h1M29 35h1M31 35h15M48 35h4M11 36h4M28 36h19M49 36h3M11 37h5M27 37h1M29 37h18M49 37h3M11 38h4M16 38h1M26 38h1M28 38h19M49 38h2M10 39h6M25 39h1M27 39h20M49 39h2M10 40h6M24 40h1M26 40h20M48 40h3M10 41h6M25 41h21M48 41h2M10 42h6M24 42h1M26 42h20M47 42h3M10 43h6M23 43h1M25 43h20M47 43h2M10 44h5M23 44h22M46 44h3M11 45h4M23 45h21M45 45h3M11 46h4M24 46h19M44 46h3M11 47h3M17 47h1M19 47h1M21 47h1M24 47h14M39 47h1M41 47h5M12 48h2M16 48h1M18 48h1M20 48h1M22 48h1M25 48h10M36 48h1M38 48h1M40 48h1M42 48h3M12 49h6M19 49h1M21 49h1M23 49h2M26 49h8M35 49h1M37 49h1M39 49h1M41 49h1M43 49h1M13 50h22M36 50h1M38 50h1M40 50h1M42 50h1" />
<path stroke="#704010" d="M27 14h8M25 15h1M36 15h3M21 16h2M39 16h3M19 17h1M42 17h2M17 18h1M44 18h1M16 19h1M45 19h1M15 20h1M46 20h2M45 21h1M48 21h1M46 23h1M50 25h1M11 26h1M50 26h1M11 27h1M51 27h1M11 28h2M32 28h6M51 28h1M12 29h3M29 29h12M51 29h1M12 30h4M27 30h11M39 30h1M41 30h2M52 30h1M12 31h1M14 31h3M26 31h9M36 31h1M38 31h1M40 31h1M42 31h2M11 32h1M13 32h1M15 32h2M25 32h7M33 32h1M35 32h1M37 32h1M39 32h1M41 32h1M44 32h1M11 33h2M14 33h4M25 33h6M32 33h1M34 33h1M45 33h1M11 34h1M13 34h1M15 34h3M25 34h3M29 34h1M31 34h1M46 34h2M10 35h1M14 35h1M16 35h2M25 35h2M28 35h1M30 35h1M46 35h1M15 36h3M24 36h4M47 36h1M16 37h2M24 37h3M28 37h1M47 37h1M52 37h1M15 38h1M17 38h1M24 38h2M27 38h1M47 38h1M51 38h1M9 39h1M16 39h2M24 39h1M26 39h1M48 39h1M16 40h1M22 40h1M25 40h1M46 40h1M16 41h1M22 41h3M46 41h2M50 41h1M16 42h1M22 42h2M25 42h1M46 42h1M50 42h1M16 43h1M22 43h1M24 43h1M45 43h2M49 43h1M15 44h1M22 44h1M45 44h1M49 44h1M10 45h1M15 45h1M22 45h1M44 45h1M48 45h1M15 46h1M23 46h1M43 46h1M47 46h1M14 47h1M23 47h1M46 47h1M11 48h1M14 48h1M24 48h1M45 48h1M11 49h1M25 49h1M44 49h1M12 50h1M43 50h1" />
<path stroke="#b88828" d="M23 15h1M26 15h1M33 15h3M29 16h3M36 16h3M26 17h5M35 17h7M25 18h19M27 19h18M27 20h19M19 21h1M26 21h19M18 22h1M20 22h1M24 22h21M17 23h1M19 23h1M21 23h25M18 24h1M20 24h27M17 25h1M19 25h31M18 26h32M12 27h1M14 27h1M18 27h14M38 27h12M18 28h11M41 28h9M19 29h8M43 29h6M19 30h7M45 30h2M19 31h6M19 32h6M19 33h5M19 34h5M18 35h6M18 36h5M18 37h5M18 38h5M18 39h5M17 40h5M17 41h5M17 42h5M17 43h5M16 44h6M16 45h6M16 46h7M15 47h2M18 47h1M20 47h1M22 47h1M38 47h1M40 47h1M15 48h1M17 48h1M19 48h1M21 48h1M23 48h1M35 48h1M37 48h1M39 48h1M41 48h1M18 49h1M20 49h1M22 49h1M34 49h1M36 49h1M38 49h1M40 49h1M42 49h1M35 50h1M37 50h1M39 50h1M41 50h1" />
<path stroke="#d0a040" d="M27 15h6M24 16h5M32 16h4M21 17h5M31 17h4M19 18h6M17 19h10M16 20h11M15 21h4M20 21h6M14 22h4M19 22h1M21 22h3M13 23h4M18 23h1M20 23h1M13 24h5M19 24h1M12 25h5M18 25h1M12 26h6M15 27h3M16 28h2M16 29h3M17 30h2M17 31h2M18 32h1M18 33h1M18 34h1" />
<path stroke="#101010" d="M46 21h2M46 22h1M47 23h1M49 23h1M48 24h2M33 27h4M13 28h2M30 28h2M38 28h2M15 29h1M28 29h1M41 29h1M26 30h1M43 30h1M25 31h1M44 31h1M52 31h1M45 32h1M52 32h1M24 33h1M46 33h1M52 33h1M24 34h1M52 34h1M24 35h1M47 35h1M52 35h1M10 36h1M23 36h1M48 36h1M52 36h1M10 37h1M23 37h1M48 37h1M10 38h1M23 38h1M48 38h1M23 39h1M47 39h1M51 39h1M9 40h1M23 40h1M47 40h1M51 40h1M9 41h1M53 41h1M9 42h1M9 43h1M54 43h1M9 44h1M54 44h1M53 45h1M10 46h1M52 46h1M10 47h1M49 47h2M46 49h1M46 50h1" />
<path stroke="#b0b0b0" d="M47 22h1M48 23h1" />
<path stroke="#f8f8f8" d="M48 22h1" />
<path stroke="#996600" d="M52 40h1M54 42h1M51 46h1M48 47h1" />
<path stroke="#f8d030" d="M51 41h2M51 42h1M50 43h2M50 44h1M49 45h2M48 46h3M45 49h1M44 50h2" />
<path stroke="#f8f888" d="M52 42h2M52 43h2M51 44h3M51 45h2" />
</svg>