<svg xmlns="http://www.w3.org/2000/svg" viewBox="0 -0.5 64 64" shape-rendering="crispEdges">
<metadata>Made with Pixels to Svg https://codepen.io/shshaw/pen/XbxvNj</metadata>
<path stroke="#307808" d="M34 8h4M32 9h2M41 9h2M31 10h2M46 10h1M27 11h1M33 11h1M36 11h2M44 11h3M26 12h2M33 12h1M45 12h4M25 13h2M33 13h1M45 13h5M24 14h1M26 14h1M32 14h1M44 14h3M49 14h3M23 15h1M27 15h1M30 15h2M42 15h3M50 15h3M23 16h1M28 16h2M40 16h4M51 16h3M27 17h1M39 17h3M52 17h2M26 18h1M37 18h3M52 18h2M35 19h3M50 19h3M24 20h1M33 20h3M49 20h2M22 21h1M29 21h5M22 22h2M25 22h6M22 23h2M25 23h4M23 24h1M25 24h2M23 25h1M25 25h1M24 26h1M24 29h4M24 30h1M28 30h2M25 31h1M26 32h1M26 33h1M10 34h2M25 34h1M9 35h1M12 35h1M25 35h1M9 36h1M13 36h3M24 36h1M9 37h1M24 37h1M9 38h2M24 38h1M10 39h2M13 40h2M21 42h2M35 42h1M21 43h3M35 43h1M50 43h5M20 44h4M34 44h2M47 44h2M18 45h6M25 45h2M32 45h4M44 45h2M9 46h2M16 46h2M21 46h4M26 46h3M30 46h5M41 46h1M47 46h2M8 47h1M11 47h3M17 47h4M23 47h1M26 47h4M32 47h3M50 47h1M8 48h1M18 48h5M27 48h5M33 48h1M53 48h1M9 49h1M17 49h1M20 49h1M29 49h3M52 49h2M9 50h1M16 50h3M50 50h3M17 51h1M47 51h3M10 52h1M15 52h2M38 52h1M45 52h2M50 52h1M12 53h5M38 53h12M14 54h2M39 54h9M41 55h4" />
<path stroke="#105010" d="M38 8h3M43 9h1M38 10h8M47 11h2M49 12h1M50 13h2M47 14h2M52 14h1M45 15h2M49 15h1M53 15h1M44 16h1M54 16h1M22 17h1M42 17h3M54 17h1M22 18h1M40 18h2M45 18h2M50 18h1M54 18h1M21 19h1M25 19h1M38 19h2M47 19h3M53 19h1M21 20h1M36 20h2M48 20h1M51 20h2M21 21h1M24 21h1M34 21h2M49 21h2M21 22h1M24 22h1M31 22h3M49 22h1M21 23h1M24 23h1M29 23h2M22 24h1M24 24h1M27 24h2M22 25h1M24 25h1M26 25h1M22 26h2M25 26h1M23 27h2M30 31h1M31 32h1M32 33h1M26 34h1M33 34h1M26 35h1M33 35h1M27 36h1M34 36h1M16 37h2M28 37h1M34 37h1M18 38h1M29 38h1M34 38h1M12 39h1M16 39h4M23 39h1M25 39h1M30 39h2M35 39h1M11 40h1M15 40h1M20 40h2M23 40h1M25 40h1M32 40h4M11 41h1M22 41h2M25 41h1M12 42h1M23 42h1M26 42h1M12 43h1M24 43h1M26 43h1M13 44h1M24 44h1M27 44h1M36 44h1M49 44h1M14 45h4M24 45h1M28 45h1M36 45h1M46 45h1M15 46h1M18 46h3M25 46h1M29 46h1M42 46h2M49 46h1M53 46h2M14 47h3M21 47h2M24 47h2M30 47h2M35 47h1M38 47h3M51 47h2M11 48h1M17 48h1M23 48h1M26 48h1M32 48h1M37 48h1M12 49h3M18 49h2M21 49h2M27 49h2M32 49h1M36 49h1M15 50h1M19 50h2M29 50h1M36 50h1M39 50h5M9 51h2M16 51h1M18 51h1M36 51h3M44 51h3M9 52h1M11 52h1M17 52h1M37 52h1M47 52h3M10 53h2M37 53h1M12 54h2M16 54h1M38 54h1M14 55h2M39 55h2" />
<path stroke="#48a010" d="M34 9h7M36 10h2M35 11h1M38 11h6M34 12h1M37 12h8M37 13h8M25 14h1M37 14h7M24 15h1M37 15h5M27 16h1M36 16h4M23 17h1M26 17h1M35 17h4M23 18h2M33 18h4M22 19h3M30 19h5M22 20h2M25 20h8M23 21h1M25 21h4M27 30h1M29 31h1M31 33h1M32 34h1M10 35h2M12 36h1M25 36h1M33 36h1M15 37h1M32 37h2M16 38h2M30 38h4M24 39h1M32 39h3M12 40h1M17 40h3M24 40h1M31 40h1M18 41h4M24 41h1M26 41h1M30 41h6M18 42h3M24 42h2M27 42h8M16 43h5M25 43h1M27 43h8M14 44h6M25 44h2M28 44h6M50 44h1M54 44h1M27 45h1M29 45h3M53 45h2M44 46h1M51 46h2M10 47h1M41 47h1M48 47h2M53 47h2M16 48h1M38 48h3M47 48h6M15 49h2M37 49h5M46 49h6M14 50h1M37 50h2M44 50h6M11 51h5M39 51h5M12 52h3M39 52h6" />
<path stroke="#68c030" d="M33 10h3M34 11h1M35 12h2M34 13h3M33 14h4M25 15h2M32 15h5M24 16h3M30 16h6M24 17h2M28 17h7M25 18h1M27 18h6M26 19h4M25 30h2M26 31h3M27 32h4M27 33h4M27 34h5M27 35h6M10 36h2M26 36h1M28 36h5M10 37h5M25 37h3M29 37h3M11 38h5M25 38h4M13 39h3M26 39h4M16 40h1M26 40h5M12 41h6M27 41h3M13 42h5M13 43h3M51 44h3M47 45h6M45 46h2M50 46h1M9 47h1M42 47h6M9 48h2M12 48h4M41 48h6M10 49h2M42 49h4M10 50h4" />
<path stroke="#101010" d="M50 16h1M51 17h1M51 18h1M47 23h2M49 24h1M51 25h1M48 26h1M49 27h2M52 27h1M49 28h2M49 29h2M53 29h1M50 30h1M53 30h1M53 31h1M52 33h1M51 35h1M50 37h1M49 38h1M48 39h1M46 40h1M36 41h1M45 41h1M36 42h1M44 42h1M36 43h1M43 44h1M55 44h1M55 45h1M35 46h1M55 46h1M55 47h1M34 48h1M54 48h1M33 49h1M54 49h1M30 50h2M53 50h1M50 51h3M51 52h1M50 53h1M48 54h2M45 55h3" />
<path stroke="#d8b828" d="M42 18h3M46 19h1M47 20h1M48 21h1M34 22h1M33 23h1M49 23h1M50 25h1M51 27h1M47 28h1M51 28h1M47 29h1M51 29h2M47 30h1M51 30h2M48 31h2M51 31h2M51 32h2M50 34h2M49 35h2M49 36h2M48 37h2M47 38h2M45 39h2M44 40h2M42 41h3M41 42h3M41 43h2M40 44h3M39 45h3M36 46h1M39 46h2M36 47h2M25 48h1M36 48h1M23 49h1M35 49h1M21 50h2M33 50h3M20 51h1M30 51h6M18 52h1M32 52h4M17 53h1M36 53h1M16 55h1M34 55h4" />
<path stroke="#f0e868" d="M40 19h1M43 19h3M38 20h1M43 20h4M36 21h1M43 21h5M42 22h7M42 23h5M41 24h6M33 25h1M35 25h1M37 25h1M39 25h8M33 26h2M36 26h1M38 26h9M33 27h14M32 28h15M32 29h15M32 30h15M32 31h16M50 31h1M32 32h19M33 33h14M48 33h2M34 34h14M34 35h15M35 36h14M35 37h13M35 38h12M36 39h9M36 40h8M37 41h5M37 42h4M37 43h4M37 44h3M37 45h2M37 46h2M24 49h1M26 49h1M27 50h2M21 51h1M26 51h1M28 51h2M19 52h1M25 52h1M27 52h5M18 53h1M22 53h1M24 53h1M26 53h10M17 54h1M21 54h1M23 54h1M25 54h1M27 54h10M20 55h1M22 55h1M24 55h1M26 55h8" />
<path stroke="#f8f8a8" d="M41 19h2M39 20h4M37 21h6M35 22h7M34 23h8M33 24h8M34 25h1M36 25h1M38 25h1M35 26h1M37 26h1M25 49h1M23 50h4M22 51h4M27 51h1M20 52h5M26 52h1M19 53h3M23 53h1M25 53h1M18 54h3M22 54h1M24 54h1M26 54h1M17 55h3M21 55h1M23 55h1M25 55h1" />
<path stroke="#a08018" d="M32 23h1M32 24h1M32 25h1M32 26h1M50 26h1M32 27h1M31 28h1M31 29h1M31 30h1M31 31h1M47 33h1M50 33h2M48 34h2M43 43h1M42 45h1M24 48h1M35 48h1M34 49h1M32 50h1M19 51h1M36 52h1M37 54h1M38 55h1" />
<path stroke="#685000" d="M50 23h1M47 24h1M50 24h1M51 26h1M52 28h1M53 32h1M52 34h1M51 36h1M47 39h1M44 43h1M43 45h1" />
<path stroke="#a83000" d="M48 24h1M49 25h1M49 26h1" />
<path stroke="#f8f8f8" d="M47 25h2M47 26h1M47 27h1M48 28h1M48 29h1M48 30h2" />
<path stroke="#d08850" d="M48 27h1" />
</svg>