<svg xmlns="http://www.w3.org/2000/svg" viewBox="0 -0.5 64 64" shape-rendering="crispEdges">
<metadata>Made with Pixels to Svg https://codepen.io/shshaw/pen/XbxvNj</metadata>
<path stroke="#987038" d="M20 4h1M19 5h1M21 5h1M46 5h1M21 6h1M44 6h1M46 6h1M16 7h1M18 7h1M21 7h2M24 8h1M43 8h1M47 8h1M15 9h1M24 9h1M42 9h1M48 9h1M17 10h1M25 10h1M50 10h1M14 11h1M25 11h1M40 11h1M48 11h1M25 12h1M40 12h1M51 12h1M13 13h1M24 13h1M40 13h1M51 13h1M24 14h1M51 14h1M24 15h1M52 15h1M12 16h1M24 16h1M52 16h1M12 17h1M24 17h1M41 17h1M52 17h1M12 18h1M24 18h1M28 18h8M41 18h1M52 18h1M12 19h1M25 19h3M37 19h1M41 19h1M52 19h1M12 20h1M23 20h2M38 20h3M52 20h1M12 21h1M21 21h2M40 21h1M52 21h1M20 22h1M52 22h1M13 23h1M19 23h1M42 23h1M52 23h1M18 24h1M52 24h1M18 25h1M51 25h1M17 27h1M16 29h1M16 30h1M45 31h1M45 32h1M45 33h1M45 34h1M15 35h1M45 35h1M15 36h1M45 36h1M44 37h2M44 38h1M16 39h1M43 39h2M43 40h2M17 41h1M42 41h2M41 42h3M40 43h4M39 44h4M21 45h1M24 45h1M34 45h1M37 45h6M21 46h3M25 46h1M27 46h1M29 46h1M31 46h1M33 46h1M35 46h8M20 47h3M24 47h1M26 47h1M28 47h1M30 47h1M32 47h1M34 47h1M36 47h8M21 48h5M27 48h1M29 48h1M31 48h13M22 49h23M23 50h14M42 50h3M24 51h11M44 51h1M24 52h9M45 52h1M25 53h7M25 54h5M25 55h4M25 56h3M26 57h2M26 58h2M26 59h1M26 60h1" />
<path stroke="#c8a040" d="M45 4h1M44 5h1M18 6h2M23 6h1M24 7h1M41 7h1M43 7h1M47 7h1M15 8h1M17 8h1M21 8h1M40 8h1M42 8h1M49 8h1M17 9h1M40 9h1M50 9h1M14 10h1M40 10h1M48 10h1M51 11h1M13 12h1M12 14h1M41 14h1M12 15h1M41 15h1M41 16h1M12 22h1M41 23h1M42 24h1M42 25h2M43 26h1M43 27h2M43 28h2M43 29h2M19 30h1M43 30h2M18 31h1M22 31h1M43 31h2M19 32h1M21 32h1M23 32h1M33 32h1M37 32h1M43 32h2M20 33h1M26 33h1M28 33h1M32 33h1M34 33h1M36 33h1M43 33h2M19 34h1M23 34h1M25 34h1M29 34h1M31 34h1M33 34h1M35 34h1M37 34h1M42 34h3M16 35h1M24 35h1M30 35h1M36 35h1M41 35h4M16 36h1M40 36h1M42 36h3M16 37h2M39 37h1M41 37h3M17 38h2M20 38h1M38 38h1M40 38h4M17 39h3M21 39h1M35 39h1M37 39h1M39 39h4M18 40h3M22 40h1M24 40h1M32 40h1M34 40h1M36 40h1M38 40h5M18 41h4M23 41h1M25 41h1M27 41h1M29 41h1M31 41h1M33 41h1M35 41h7M19 42h6M26 42h1M28 42h1M30 42h1M32 42h9M20 43h20M20 44h19M22 45h2M25 45h9M35 45h2M24 46h1M26 46h1M28 46h1M30 46h1M32 46h1M34 46h1M23 47h1M25 47h1M27 47h1M29 47h1M31 47h1M33 47h1M35 47h1M26 48h1M28 48h1M30 48h1" />
<path stroke="#e0c860" d="M20 5h1M23 7h1M46 7h1M16 8h1M22 8h2M46 8h1M21 9h1M23 9h1M47 9h1M49 9h1M15 10h1M23 10h2M47 10h1M24 11h1M50 11h1M14 12h1M24 12h1M50 12h1M23 13h1M50 13h1M13 14h1M23 14h1M50 14h1M23 15h1M51 15h1M23 16h1M51 16h1M23 17h1M51 17h1M23 18h1M51 18h1M23 19h2M28 19h1M33 19h1M35 19h1M51 19h1M22 20h1M25 20h1M34 20h1M36 20h2M41 20h1M51 20h1M23 21h1M35 21h1M37 21h3M41 21h1M51 21h1M21 22h2M34 22h1M36 22h5M51 22h1M20 23h2M23 23h1M35 23h1M37 23h4M51 23h1M14 24h1M19 24h4M24 24h1M34 24h1M36 24h6M51 24h1M15 25h1M19 25h3M23 25h1M33 25h1M35 25h1M37 25h5M50 25h1M16 26h1M18 26h5M24 26h1M26 26h1M28 26h1M30 26h1M32 26h1M34 26h1M36 26h7M49 26h2M18 27h6M25 27h1M27 27h1M29 27h1M31 27h1M33 27h1M35 27h8M47 27h3M17 28h8M26 28h1M28 28h1M30 28h1M32 28h11M46 28h2M17 29h26M46 29h1M17 30h2M20 30h23M16 31h2M19 31h3M23 31h20M16 32h3M20 32h1M22 32h1M24 32h9M34 32h3M38 32h5M16 33h4M21 33h5M27 33h1M29 33h3M33 33h1M35 33h1M37 33h6M16 34h3M20 34h3M24 34h1M26 34h3M30 34h1M32 34h1M34 34h1M36 34h1M38 34h4M17 35h7M25 35h5M31 35h5M37 35h4M17 36h23M41 36h1M18 37h21M40 37h1M19 38h1M21 38h17M39 38h1M20 39h1M22 39h13M36 39h1M38 39h1M21 40h1M23 40h1M25 40h7M33 40h1M35 40h1M37 40h1M22 41h1M24 41h1M26 41h1M28 41h1M30 41h1M32 41h1M34 41h1M25 42h1M27 42h1M29 42h1M31 42h1" />
<path stroke="#f8f8a8" d="M45 5h1M20 6h1M45 6h1M19 7h2M44 7h2M18 8h3M41 8h1M44 8h2M16 9h1M18 9h3M22 9h1M41 9h1M43 9h4M16 10h1M18 10h5M41 10h6M49 10h1M15 11h9M41 11h7M49 11h1M15 12h9M41 12h9M14 13h9M41 13h9M14 14h9M42 14h8M13 15h10M42 15h9M13 16h10M42 16h9M13 17h10M42 17h9M13 18h10M42 18h9M13 19h10M42 19h9M13 20h9M42 20h9M13 21h8M42 21h9M13 22h7M42 22h9M14 23h5M43 23h8M15 24h3M44 24h7M16 25h2M45 25h5M45 26h4M46 27h1" />
<path stroke="#f8e870" d="M29 19h4M34 19h1M26 20h8M35 20h1M24 21h11M36 21h1M23 22h11M35 22h1M22 23h1M24 23h11M36 23h1M23 24h1M25 24h9M35 24h1M22 25h1M24 25h9M34 25h1M36 25h1M23 26h1M25 26h1M27 26h1M29 26h1M31 26h1M33 26h1M35 26h1M24 27h1M26 27h1M28 27h1M30 27h1M32 27h1M34 27h1M25 28h1M27 28h1M29 28h1M31 28h1" />
<path stroke="#482818" d="M36 19h1M41 22h1M43 24h1M44 25h1M17 26h1M44 26h1M16 27h1M45 27h1M16 28h1M45 28h1M45 29h1M45 30h1M15 31h1M46 31h1M15 32h1M46 32h1M15 33h1M46 33h1M15 34h1M46 34h1M46 35h1M46 36h1M46 37h1M16 38h1M45 38h1M45 39h1M17 40h1M45 40h1M44 41h1M18 42h1M44 42h1M19 43h1M44 43h1M19 44h1M43 44h1M20 45h1M43 45h1M20 46h1M43 46h1M19 47h1M44 47h1M20 48h1M44 48h1M21 49h1M22 50h1M39 50h3M23 51h1M42 51h2M20 52h4M34 52h1M44 52h1M18 53h2M24 53h1M17 54h1M24 54h1M16 55h1M24 55h1M29 55h1M36 55h2M10 56h1M15 56h1M24 56h1M28 56h1M38 56h2M46 56h1M10 57h1M14 57h1M25 57h1M47 57h1M9 58h1M12 58h2M25 58h1M28 58h1M47 58h1M9 59h1M25 59h1M27 59h1M47 59h1M9 60h1M25 60h1M27 60h1M47 60h1" />
<path stroke="#101010" d="M13 24h1M14 25h1M15 26h1M51 26h1M50 27h1M48 28h2M47 29h1M46 30h1M45 49h1M45 50h1M45 51h1M46 52h1M45 53h2M45 54h2M46 55h1M40 57h2M42 58h1M43 59h1M44 60h2" />
<path stroke="#604030" d="M18 48h2M16 49h2M15 50h1M21 50h1M37 50h2M14 51h1M21 51h2M35 51h2M13 52h1M33 52h1M12 53h1M21 53h3M32 53h1M43 53h2M11 54h1M21 54h3M31 54h1M33 54h3M42 54h3M11 55h1M21 55h3M30 55h1M41 55h5M20 56h4M29 56h1M40 56h6M20 57h5M28 57h1M39 57h1M42 57h5M19 58h6M38 58h4M43 58h4M10 59h2M17 59h8M37 59h6M44 59h3M15 60h10M36 60h8M46 60h1" />
<path stroke="#987868" d="M18 49h1M17 50h1M16 51h1M37 51h3M15 52h1M35 52h1M14 53h1M34 53h1M32 55h2M35 55h1M11 56h1M31 56h1M34 56h1M11 57h1M29 57h3M33 57h1M10 58h2M29 58h2M32 58h1M28 59h2M31 59h1M10 60h2M28 60h3" />
<path stroke="#785848" d="M19 49h2M16 50h1M18 50h3M15 51h1M17 51h4M40 51h2M14 52h1M16 52h4M36 52h8M13 53h1M15 53h3M20 53h1M33 53h1M35 53h8M12 54h5M18 54h3M30 54h1M32 54h1M36 54h6M12 55h4M17 55h4M31 55h1M34 55h1M38 55h3M12 56h3M16 56h4M30 56h1M32 56h2M35 56h3M12 57h2M15 57h5M32 57h1M34 57h5M14 58h5M31 58h1M33 58h5M12 59h5M30 59h1M32 59h5M12 60h3M31 60h5" />
</svg>