<svg xmlns="http://www.w3.org/2000/svg" viewBox="0 -0.5 64 64" shape-rendering="crispEdges">
<metadata>Made with Pixels to Svg https://codepen.io/shshaw/pen/XbxvNj</metadata>
<path stroke="#9838b0" d="M59 5h5M55 6h4M62 6h1M52 7h3M59 7h2M51 8h1M58 8h1M49 9h1M56 9h2M47 10h1M55 10h1M46 11h1M54 11h1M44 12h1M53 12h1M52 13h1M34 14h1M36 14h2M41 14h1M52 14h1M33 15h2M36 15h1M51 15h1M32 16h1M36 16h1M50 16h1M31 17h1M33 17h1M49 17h2M31 18h1M34 18h1M49 18h1M48 19h2M48 20h1M34 21h1M47 21h2M34 22h1M46 22h2M34 23h1M46 23h2M25 24h1M45 24h2M45 25h1M44 26h2M24 27h1M44 27h2M24 28h1M43 28h2M27 29h1M41 29h4M27 30h1M36 30h9M23 31h1M26 31h2M36 31h1M41 31h4M23 32h1M26 32h2M35 32h1M43 32h1M9 33h3M26 33h2M34 33h1M9 34h1M12 34h2M26 34h3M33 34h1M10 35h1M14 35h1M27 35h2M32 35h1M21 36h1M28 36h1M31 36h1M19 37h1M30 38h1M17 39h1M29 39h1M28 40h1M31 40h1M27 41h1M31 41h1M30 42h3M30 43h3M29 44h4M28 45h3M32 45h1M27 46h5M27 47h7M26 48h3M33 48h4M25 49h1M27 49h5M24 50h1M26 50h6M46 50h1M51 50h1M15 51h1M19 51h1M21 51h1M23 51h1M28 51h4M44 51h1M14 52h1M17 52h2M20 52h1M22 52h6M29 52h3M43 52h1M57 52h1M13 53h1M18 53h6M25 53h1M28 53h1M30 53h1M42 53h1M56 53h3M11 54h1M18 54h6M28 54h1M42 54h1M57 54h2M10 55h1M21 55h4M29 55h1M41 55h1M58 55h2M9 56h1M20 56h1M22 56h2M30 56h1M41 56h1M59 56h2M8 57h1M20 57h1M30 57h1M41 57h1M59 57h2M6 58h2M20 58h1M26 58h1M28 58h1M60 58h1" />
<path stroke="#c058c8" d="M59 6h3M55 7h4M55 8h3M53 9h3M51 10h4M49 11h5M48 12h5M46 13h6M44 14h8M42 15h9M41 16h9M35 17h2M38 17h11M33 18h1M36 18h13M33 19h15M34 20h14M35 21h12M35 22h11M35 23h11M35 24h10M25 25h1M35 25h10M25 26h1M34 26h10M25 27h1M34 27h10M25 28h1M34 28h9M24 29h3M33 29h8M24 30h3M33 30h3M24 31h2M33 31h3M24 32h2M32 32h3M23 33h3M32 33h2M23 34h3M31 34h2M11 35h1M23 35h4M31 35h1M12 36h2M22 36h6M30 36h1M13 37h5M20 37h8M29 37h2M14 38h3M18 38h1M21 38h5M28 38h2M15 39h1M21 39h8M21 40h7M17 41h1M20 41h7M16 42h11M16 43h11M16 44h12M16 45h12M16 46h11M16 47h11M16 48h10M47 48h5M16 49h9M26 49h1M35 49h6M45 49h9M16 50h8M25 50h1M37 50h9M52 50h3M14 51h1M17 51h2M20 51h1M22 51h1M24 51h1M38 51h6M54 51h3M13 52h1M19 52h1M21 52h1M39 52h4M55 52h2M11 53h2M26 53h2M40 53h2M9 54h2M25 54h3M40 54h2M8 55h2M26 55h3M6 56h3M19 56h1M26 56h3M4 57h4M18 57h2M26 57h1M28 57h1M3 58h3M18 58h2" />
<path stroke="#701890" d="M63 6h1M61 7h2M50 8h1M59 8h2M48 9h1M58 9h1M56 10h2M45 11h1M55 11h1M43 12h1M54 12h1M36 13h2M42 13h1M40 14h1M38 15h1M33 16h1M38 16h1M37 17h1M35 18h1M32 19h1M33 20h1M26 22h1M25 23h1M27 23h1M27 24h1M34 24h1M24 25h1M27 25h1M34 25h1M46 25h1M24 26h1M33 26h1M33 27h1M33 28h1M46 28h1M23 29h1M32 29h1M23 30h1M32 30h1M32 31h1M40 31h1M31 32h1M36 32h1M42 32h1M22 33h1M31 33h1M35 33h1M42 33h2M22 34h1M30 34h1M34 34h1M15 35h2M21 35h2M30 35h1M11 36h1M17 36h4M29 36h1M12 37h1M28 37h1M31 37h1M26 38h2M31 39h2M16 40h1M30 40h1M32 40h1M16 41h1M29 41h2M32 41h2M15 42h1M28 42h2M33 42h1M15 43h1M27 43h3M33 43h1M15 44h1M28 44h1M33 44h1M15 45h1M31 45h1M33 45h1M15 46h1M32 46h2M34 47h3M47 47h3M29 48h2M37 48h4M45 48h2M52 48h1M32 49h3M41 49h4M14 50h1M32 50h2M55 50h1M13 51h1M16 51h1M32 51h2M37 51h1M11 52h2M16 52h1M32 52h2M38 52h1M9 53h2M17 53h1M29 53h1M31 53h2M39 53h1M8 54h1M12 54h1M17 54h1M29 54h1M31 54h2M39 54h1M6 55h2M18 55h1M31 55h1M40 55h1M4 56h2M18 56h1M21 56h1M24 56h1M29 56h1M40 56h1M3 57h1M17 57h1M22 57h4M27 57h1M29 57h1M40 57h1M42 57h1M1 58h2M8 58h1M17 58h1M22 58h4" />
<path stroke="#e088f0" d="M52 8h3M50 9h3M48 10h3M47 11h2M45 12h3M43 13h3M42 14h2M35 15h1M40 15h2M35 16h1M39 16h2M32 17h1M32 18h1M26 23h1M26 24h1M26 25h1M26 26h1M26 27h1M26 28h1M10 34h2M12 35h2M14 36h3M19 38h2M18 39h3M17 40h4M18 41h2" />
<path stroke="#101010" d="M56 11h1M53 13h1M35 14h1M38 14h1M53 14h1M37 15h1M39 15h1M52 15h1M34 16h1M37 16h1M51 16h1M34 17h1M51 17h1M50 18h1M50 19h1M49 20h1M49 21h1M48 22h1M48 23h1M47 24h1M47 25h1M27 26h1M46 26h1M27 27h1M46 27h1M27 28h1M45 28h1M28 29h1M45 29h1M28 30h1M45 30h1M28 31h1M37 31h3M45 31h1M28 32h1M40 32h2M44 32h1M28 33h1M44 33h1M29 34h1M43 34h2M29 35h1M33 35h1M32 36h1M18 37h1M13 38h1M17 38h1M31 38h1M14 39h1M16 39h1M30 39h1M15 40h1M29 40h1M28 41h1M27 42h1M34 43h1M34 44h1M34 45h1M34 46h1M15 47h1M50 47h2M15 48h1M31 48h2M53 48h1M15 49h1M54 49h1M15 50h1M34 50h3M47 50h4M56 50h1M25 51h3M34 51h1M45 51h2M52 51h2M57 51h1M15 52h1M28 52h1M34 52h1M44 52h1M58 52h1M14 53h1M24 53h1M33 53h1M43 53h1M55 53h1M59 53h1M13 54h1M24 54h1M30 54h1M33 54h1M59 54h1M11 55h1M19 55h2M25 55h1M30 55h1M32 55h1M60 55h1M10 56h1M25 56h1M31 56h1M43 56h5M61 56h1M9 57h1M21 57h1M31 57h1M43 57h1M48 57h2M61 57h1M21 58h1M27 58h1M29 58h2M41 58h2M51 58h2M61 58h1" />
<path stroke="#104870" d="M47 51h5M45 52h4M54 52h1M44 53h4M43 54h3M56 54h1M42 55h6M57 55h1M42 56h1M48 56h2M58 56h1M50 57h2M59 58h1" />
<path stroke="#206890" d="M49 52h5M48 53h7M46 54h10M48 55h9M50 56h8M52 57h7M53 58h6" />
</svg>