<svg xmlns="http://www.w3.org/2000/svg" viewBox="0 -0.5 64 64" shape-rendering="crispEdges">
<metadata>Made with Pixels to Svg https://codepen.io/shshaw/pen/XbxvNj</metadata>
<path stroke="#d02000" d="M24 11h4M36 12h1M40 12h1M17 13h2M35 13h1M41 13h2M15 14h2M29 14h1M35 14h1M42 14h1M45 14h3M14 15h1M28 15h2M43 15h1M48 15h1M13 16h1M21 16h2M27 16h3M41 16h1M49 16h1M13 17h1M21 17h2M24 17h5M40 17h2M12 18h1M20 18h7M37 18h4M20 19h5M39 19h2M49 19h2M19 20h5M40 20h2M45 20h6M18 21h5M41 21h10M16 22h6M42 22h8M17 23h4M42 23h6M13 24h2M17 24h4M43 24h3M12 25h1M17 25h3M43 25h2M48 25h2M12 26h1M17 26h3M44 26h1M50 26h1M12 27h1M17 27h3M44 27h2M51 27h1M12 28h1M17 28h2M44 28h4M51 28h1M16 29h3M44 29h5M15 30h4M44 30h6M15 31h3M45 31h4M18 32h2M43 32h2M19 33h1M43 33h3M43 34h2" />
<path stroke="#800000" d="M37 11h4M23 12h1M28 12h1M41 12h2M19 13h1M22 13h1M29 13h1M43 13h1M20 14h1M22 14h1M43 14h1M21 15h1M34 15h1M42 15h1M44 15h1M34 16h1M42 16h1M23 17h1M34 17h1M50 17h1M41 18h1M50 18h1M12 19h1M51 19h1M13 20h1M14 21h1M15 22h1M15 23h2M46 24h1M13 29h1M50 29h1M13 30h1M50 30h1M14 31h1M18 31h1M44 31h1M49 31h1M15 32h3M48 32h1M18 33h1M46 33h1M45 34h1" />
<path stroke="#f06800" d="M24 12h4M37 12h3M23 13h6M36 13h5M17 14h3M23 14h6M36 14h6M15 15h6M23 15h5M35 15h7M45 15h3M14 16h7M24 16h3M35 16h6M44 16h5M14 17h7M35 17h5M43 17h7M13 18h7M42 18h8M13 19h7M41 19h8M14 20h5M42 20h3M15 21h3M15 24h2M13 25h4M45 25h3M13 26h4M45 26h5M13 27h4M46 27h5M13 28h4M48 28h3M14 29h2M49 29h1M14 30h1" />
<path stroke="#101010" d="M30 14h1M22 15h1M30 15h1M23 16h1M30 16h1M43 16h1M31 17h3M42 17h1M27 18h1M35 18h2M25 19h1M38 19h1M24 20h1M51 20h1M23 21h1M40 21h1M51 21h1M22 22h1M41 22h1M50 22h1M21 23h1M41 23h1M48 23h2M42 24h1M47 24h1M20 25h1M42 25h1M20 26h1M43 26h1M43 27h1M19 28h1M43 28h1M43 29h1M43 30h1M19 31h1M43 31h1M20 32h1M42 32h1M45 32h3M20 33h1M42 33h1M19 34h2M42 34h1M21 35h1M42 35h3M21 36h1M41 36h1M21 37h2M41 37h1M19 38h1M22 38h1M40 38h2M16 39h2M22 39h1M42 39h2M23 40h1M44 40h3M23 41h1M22 42h2M12 43h1M20 43h4M37 43h2M13 44h2M18 44h2M23 44h2M38 44h3M50 44h1M15 45h3M24 45h2M37 45h2M41 45h3M49 45h1M26 46h3M30 46h2M44 46h5M29 47h2M47 47h1M28 48h1M48 48h1M28 49h1M43 49h1M48 49h1M12 50h1M27 50h1M43 50h1M49 50h1M16 51h1M27 51h1M44 51h1M49 51h1M11 52h1M15 52h1M27 52h1M44 52h1M49 52h1" />
<path stroke="#506028" d="M29 17h2M28 18h1M34 18h1M26 19h1M37 19h1M39 20h1M40 22h1M40 23h1M21 24h1M41 24h1M41 25h1M41 26h2M20 27h1M41 27h2M41 28h2M19 29h1M40 29h3M19 30h1M40 30h3M40 31h3M39 32h3M39 33h3M21 34h1M38 34h4M22 35h1M37 35h5M22 36h2M35 36h6M20 37h1M23 37h3M33 37h8M18 38h1M23 38h17M14 39h2M21 39h1M23 39h19M13 40h1M21 40h2M24 40h20M47 40h2M12 41h1M21 41h2M24 41h20M49 41h1M12 42h1M19 42h3M24 42h21M50 42h1M17 43h3M24 43h13M39 43h7M50 43h1M15 44h3M25 44h13M41 44h9M26 45h7M44 45h5M29 46h1" />
<path stroke="#70a830" d="M29 18h5M27 19h10M25 20h14M24 21h16M23 22h2M30 22h10M22 23h2M31 23h9M22 24h1M30 24h11M21 25h1M29 25h1M31 25h10M21 26h1M30 26h11M21 27h1M29 27h1M31 27h10M20 28h3M28 28h1M30 28h11M20 29h2M23 29h1M25 29h1M27 29h1M29 29h1M31 29h9M20 30h3M24 30h1M26 30h1M28 30h12M20 31h20M21 32h18M21 33h18M22 34h16M23 35h14M24 36h11M26 37h7M20 38h2M18 39h3M17 40h4M17 41h4M44 41h5M15 42h4M45 42h5M13 43h4M46 43h4" />
<path stroke="#98d048" d="M25 22h5M24 23h7M23 24h7M22 25h7M30 25h1M22 26h8M22 27h7M30 27h1M23 28h5M29 28h1M22 29h1M24 29h1M26 29h1M28 29h1M30 29h1M23 30h1M25 30h1M27 30h1M14 40h3M13 41h4M13 42h2" />
<path stroke="#808018" d="M20 44h1M15 46h2M14 47h1M42 47h1M13 48h1M12 49h1M15 50h1M48 50h1M11 51h1M15 51h1M48 51h1M14 52h1M47 52h2" />
<path stroke="#e0e068" d="M21 44h2M18 45h4M39 45h2M17 46h4M41 46h3M16 47h1M18 47h1M43 47h3M15 48h1M17 48h1M43 48h2M46 48h1M14 49h1M16 49h1M45 49h1M47 49h1M44 50h1" />
<path stroke="#105810" d="M22 45h2M33 45h4M21 46h1M32 46h1M39 46h2M19 47h2M41 47h1M18 48h1M42 48h1M17 49h1M42 49h1M16 50h1M28 50h1M41 50h2M17 51h1M25 51h2M28 51h2M40 51h4M16 52h11M28 52h4M38 52h6" />
<path stroke="#388800" d="M22 46h1M19 49h1M25 49h1M27 49h1M29 49h1M31 49h1M39 49h1M41 49h1M17 50h2M20 50h1M22 50h1M24 50h1M26 50h1M29 50h2M32 50h1M34 50h1M36 50h1M38 50h1M40 50h1M18 51h7M30 51h10M32 52h6" />
<path stroke="#50c030" d="M23 46h3M33 46h6M21 47h8M31 47h10M19 48h9M29 48h13M18 49h1M20 49h5M26 49h1M30 49h1M32 49h7M40 49h1M19 50h1M21 50h1M23 50h1M25 50h1M31 50h1M33 50h1M35 50h1M37 50h1M39 50h1" />
<path stroke="#b0b038" d="M15 47h1M17 47h1M46 47h1M14 48h1M16 48h1M45 48h1M47 48h1M13 49h1M15 49h1M44 49h1M46 49h1M13 50h2M45 50h3M12 51h3M45 51h3M12 52h2M45 52h2" />
</svg>