<svg xmlns="http://www.w3.org/2000/svg" viewBox="0 -0.5 64 64" shape-rendering="crispEdges">
<metadata>Made with Pixels to Svg https://codepen.io/shshaw/pen/XbxvNj</metadata>
<path stroke="#101010" d="M15 11h3M36 11h4M14 12h1M18 12h1M42 12h2M13 13h1M19 13h1M45 13h1M13 14h1M20 14h1M47 14h1M13 15h1M28 15h12M48 15h1M14 16h1M26 16h2M40 16h2M49 16h1M15 17h1M24 17h2M42 17h2M50 17h1M16 18h2M23 18h1M44 18h1M50 18h1M17 19h1M22 19h1M45 19h1M50 19h1M17 20h1M22 20h1M45 20h1M50 20h1M17 21h1M22 21h1M45 21h1M50 21h1M18 22h1M23 22h1M44 22h1M49 22h1M18 23h1M23 23h1M44 23h1M49 23h1M24 24h1M43 24h1M48 24h1M19 25h1M25 25h1M42 25h1M48 25h1M20 26h1M26 26h2M40 26h2M47 26h1M21 27h1M28 27h2M38 27h2M46 27h1M22 28h1M30 28h8M45 28h1M23 29h1M43 29h2M25 30h2M29 30h1M37 30h2M41 30h2M27 31h1M39 31h2M25 32h1M41 32h1M42 33h1M24 34h1M43 34h1M43 35h1M23 36h1M44 36h1M44 37h1M45 38h1M22 39h1M45 39h1M22 40h1M45 40h1M22 41h1M45 41h1M22 42h1M45 42h1M22 43h1M45 43h1M23 44h1M44 44h1M23 45h1M44 45h1M24 46h1M43 46h1M24 47h1M43 47h1M25 48h1M42 48h1M26 49h1M41 49h1M27 50h2M39 50h2M29 51h2M37 51h2M31 52h6" />
<path stroke="#505050" d="M27 11h9M40 11h1M17 12h1M24 12h3M41 12h1M18 13h1M22 13h2M44 13h1M18 14h2M21 14h1M46 14h1M18 15h2M40 15h1M47 15h1M18 16h1M42 16h1M48 16h1M17 17h1M44 17h1M48 17h2M45 18h1M49 18h1M49 19h1M49 20h1M48 21h2M22 22h1M45 22h1M48 22h1M47 23h2M19 24h1M23 24h1M47 24h1M24 25h1M46 25h2M25 26h1M45 26h2M44 27h2M42 28h3M24 29h1M31 29h12M30 30h1M39 30h2M28 31h1M38 31h1M26 32h1M39 32h2M25 33h1M40 33h2M41 34h2M24 35h1M41 35h2M42 36h2M23 37h1M42 37h2M22 38h1M42 38h3M42 39h3M42 40h3M42 41h3M42 42h3M41 43h4M41 44h3M24 45h1M40 45h4M25 46h1M39 46h4M25 47h2M38 47h5M26 48h3M36 48h6M27 49h14M29 50h10M31 51h6" />
<path stroke="#999999" d="M15 12h1M27 12h1M34 12h4M16 13h1M24 13h1M28 13h7M16 14h1M22 14h1M25 14h3M14 15h3M20 15h1M23 15h2M15 16h3M19 16h1M21 16h2M18 17h1M20 17h1M18 18h1M20 18h1M18 19h1M20 19h1M18 20h2M19 21h1M28 33h3M27 34h1M31 34h1M27 35h1M31 35h1M27 36h1M31 36h1M28 37h3" />
<path stroke="#707070" d="M16 12h1M38 12h3M17 13h1M35 13h9M17 14h1M28 14h18M17 15h1M25 15h3M41 15h6M23 16h3M43 16h5M16 17h1M21 17h3M45 17h3M21 18h2M46 18h3M21 19h1M46 19h3M20 20h2M46 20h3M18 21h1M20 21h2M46 21h2M19 22h3M46 22h2M19 23h4M45 23h2M20 24h3M44 24h3M20 25h4M43 25h3M21 26h4M42 26h3M22 27h6M40 27h4M23 28h7M38 28h4M25 29h6M27 30h2M31 30h6M29 31h9M27 32h12M26 33h2M31 33h9M25 34h2M32 34h9M25 35h2M32 35h9M24 36h3M32 36h10M24 37h4M31 37h11M23 38h19M23 39h19M23 40h19M23 41h19M23 42h19M23 43h18M24 44h17M25 45h15M26 46h13M27 47h11M29 48h7" />
<path stroke="#d8d8d8" d="M28 12h6M14 13h2M25 13h3M14 14h2M23 14h2M21 15h2M20 16h1M19 17h1M19 18h1M19 19h1M28 34h3M28 35h3M28 36h3" />
</svg>