<svg xmlns="http://www.w3.org/2000/svg" viewBox="0 -0.5 64 64" shape-rendering="crispEdges">
<metadata>Made with Pixels to Svg https://codepen.io/shshaw/pen/XbxvNj</metadata>
<path stroke="#505050" d="M27 8h1M30 8h1M26 9h1M23 10h1M21 11h1M40 11h1M19 12h1M31 12h1M39 12h1M44 12h1M26 14h1M41 16h1M42 17h1M43 18h1M12 19h1M17 20h1M29 20h1M34 20h1M11 21h1M16 21h1M28 21h1M15 22h1M26 22h1M36 22h1M47 22h1M10 23h1M14 23h2M37 23h2M14 24h1M38 24h2M48 24h1M53 24h1M13 25h2M39 25h2M53 25h1M13 26h1M22 26h1M39 26h2M49 26h1M9 27h1M13 27h1M40 27h2M8 28h1M12 28h2M40 28h2M54 28h1M12 29h2M40 29h3M50 29h1M54 29h1M12 30h9M40 30h11M54 30h1M12 31h2M20 31h1M40 31h3M50 31h1M54 31h1M12 32h2M18 32h3M40 32h3M49 32h2M54 32h1M12 33h9M40 33h11M54 33h1M12 34h2M39 34h4M50 34h1M53 34h2M8 35h1M13 35h1M39 35h3M53 35h2M9 36h1M13 36h1M22 36h1M38 36h4M53 36h1M13 37h1M23 37h1M37 37h4M49 37h1M53 37h1M13 38h2M23 38h2M36 38h5M52 38h2M14 39h1M24 39h3M34 39h6M48 39h1M52 39h2M10 40h1M14 40h2M25 40h14M51 40h2M15 41h1M27 41h10M47 41h1M51 41h2M11 42h1M15 42h2M29 42h6M51 42h1M16 43h2M50 43h2M17 44h2M50 44h1M19 45h1M49 45h2M48 46h2M47 47h2M46 48h2M45 49h2M44 50h2M43 51h1M41 52h1M33 53h1M37 53h3M33 54h4" />
<path stroke="#101010" d="M28 8h2M24 9h2M31 9h1M22 10h1M31 10h1M20 11h1M31 11h1M41 11h3M18 12h1M45 12h1M17 13h1M29 13h2M39 13h1M46 13h1M16 14h1M27 14h2M39 14h1M47 14h1M15 15h1M24 15h2M39 15h1M48 15h1M14 16h1M22 16h2M40 16h1M49 16h1M13 17h1M21 17h1M50 17h1M12 18h1M20 18h1M51 18h1M19 19h1M44 19h1M51 19h1M11 20h1M18 20h1M30 20h4M45 20h1M52 20h1M17 21h1M27 21h1M35 21h2M46 21h1M52 21h1M10 22h1M16 22h1M25 22h1M37 22h2M53 22h1M16 23h1M24 23h1M39 23h1M47 23h1M53 23h1M9 24h1M15 24h1M23 24h1M40 24h1M54 24h1M9 25h1M15 25h1M22 25h1M41 25h1M48 25h1M54 25h1M9 26h1M14 26h1M41 26h1M54 26h1M14 27h1M21 27h1M42 27h1M49 27h1M54 27h1M14 28h1M21 28h1M42 28h1M49 28h1M55 28h1M8 29h1M14 29h7M43 29h7M55 29h1M8 30h1M55 30h1M8 31h1M55 31h1M8 32h1M55 32h1M8 33h1M55 33h1M8 34h1M14 34h7M43 34h7M55 34h1M14 35h1M21 35h1M42 35h1M49 35h1M55 35h1M14 36h1M21 36h1M42 36h1M49 36h1M54 36h1M9 37h1M14 37h1M22 37h1M41 37h1M54 37h1M9 38h1M15 38h1M22 38h1M41 38h1M48 38h1M54 38h1M9 39h1M15 39h1M23 39h1M40 39h1M54 39h1M16 40h1M24 40h1M39 40h1M47 40h1M53 40h1M10 41h1M16 41h1M25 41h2M37 41h2M53 41h1M17 42h1M27 42h2M35 42h2M46 42h1M52 42h1M11 43h1M18 43h1M29 43h6M45 43h1M52 43h1M12 44h1M19 44h1M44 44h1M51 44h1M12 45h1M20 45h1M43 45h1M51 45h1M13 46h1M21 46h1M42 46h1M50 46h1M14 47h1M22 47h2M40 47h2M49 47h1M15 48h1M24 48h1M38 48h2M48 48h1M16 49h1M24 49h1M35 49h3M47 49h1M17 50h1M24 50h1M33 50h2M46 50h1M18 51h2M24 51h1M32 51h1M44 51h2M20 52h4M32 52h1M42 52h2M32 53h1M40 53h2M32 54h1M37 54h3M33 55h4" />
<path stroke="#d8d8d8" d="M27 9h2M25 10h4M26 25h3M26 26h3M26 27h3M19 49h3M20 50h2" />
<path stroke="#999999" d="M29 9h1M24 10h1M29 10h1M22 11h6M20 12h4M18 13h4M17 14h3M42 14h2M16 15h2M43 15h3M15 16h1M44 16h3M45 17h3M46 18h3M47 19h3M48 20h2M49 21h2M49 22h2M50 23h1M26 24h3M25 25h1M29 25h1M25 26h1M29 26h1M25 27h1M29 27h1M26 28h3M14 45h1M15 46h2M44 46h1M16 47h2M43 47h2M17 48h4M42 48h2M18 49h1M40 49h3M38 50h4M36 51h4" />
<path stroke="#707070" d="M30 9h1M30 10h1M28 11h3M24 12h7M40 12h4M22 13h7M40 13h6M20 14h6M40 14h2M44 14h3M18 15h6M40 15h3M46 15h2M16 16h6M42 16h2M47 16h2M14 17h7M43 17h2M48 17h2M13 18h7M44 18h2M49 18h2M13 19h6M45 19h2M50 19h1M12 20h5M46 20h2M50 20h2M12 21h4M29 21h6M47 21h2M51 21h1M11 22h4M27 22h9M48 22h1M51 22h2M11 23h3M25 23h12M48 23h2M51 23h2M10 24h4M24 24h2M29 24h9M49 24h4M10 25h3M23 25h2M30 25h9M49 25h4M10 26h3M23 26h2M30 26h9M50 26h4M10 27h3M22 27h3M30 27h10M50 27h4M9 28h3M22 28h4M29 28h11M50 28h4M9 29h3M21 29h19M51 29h3M9 30h3M21 30h19M51 30h3M9 31h3M14 31h6M21 31h19M43 31h7M51 31h3M9 32h3M14 32h4M21 32h19M43 32h6M51 32h3M9 33h3M21 33h19M51 33h3M9 34h3M21 34h18M51 34h2M9 35h4M22 35h17M50 35h3M10 36h3M23 36h15M50 36h3M10 37h3M24 37h13M50 37h3M10 38h3M25 38h11M49 38h3M10 39h4M27 39h7M49 39h3M11 40h3M48 40h3M11 41h4M48 41h3M12 42h3M47 42h4M12 43h4M46 43h4M13 44h4M45 44h5M13 45h1M15 45h4M44 45h5M14 46h1M17 46h4M43 46h1M45 46h3M15 47h1M18 47h4M42 47h1M45 47h2M16 48h1M21 48h3M40 48h2M44 48h2M17 49h1M22 49h2M38 49h2M43 49h2M18 50h2M22 50h2M35 50h3M42 50h2M20 51h4M33 51h3M40 51h3M33 52h8M34 53h3" />
</svg>