<svg xmlns="http://www.w3.org/2000/svg" viewBox="0 -0.5 64 64" shape-rendering="crispEdges">
<metadata>Made with Pixels to Svg https://codepen.io/shshaw/pen/XbxvNj</metadata>
<path stroke="#101010" d="M30 9h4M29 10h1M34 10h1M35 12h2M37 13h2M39 14h1M23 15h1M40 15h1M22 16h1M41 16h1M41 17h1M21 18h1M42 18h1M21 19h1M42 19h1M17 20h4M43 20h1M16 21h1M43 21h1M15 22h1M43 22h1M15 23h1M20 23h1M43 23h1M16 24h1M20 24h1M43 24h1M17 25h4M43 25h1M21 26h1M42 26h1M21 27h1M42 27h1M22 28h1M41 28h1M22 29h1M41 29h1M23 30h1M40 30h1M24 31h1M39 31h1M25 32h2M37 32h2M27 33h2M35 33h2M29 34h6M29 35h1M33 35h1M29 36h6M26 37h1M35 37h2M37 38h1M38 39h1M23 40h1M30 40h3M39 40h1M34 41h1M39 41h1M35 42h1M40 42h1M22 43h1M36 43h1M40 43h4M22 44h1M36 44h1M44 44h1M22 45h1M36 45h1M44 45h1M22 46h1M26 46h1M36 46h1M40 46h1M44 46h1M22 47h1M26 47h1M36 47h1M40 47h4M22 48h1M27 48h1M35 48h1M40 48h1M23 49h1M28 49h1M34 49h1M39 49h1M23 50h1M29 50h5M39 50h1M24 51h1M38 51h1M25 52h1M37 52h1M26 53h2M35 53h2M28 54h7" />
<path stroke="#999999" d="M30 10h2M26 15h3M25 16h1M29 16h1M25 17h1M29 17h1M25 18h1M29 18h1M26 19h3M18 21h1M16 22h3M28 38h3M27 39h1M24 44h1M24 45h1M37 49h1M37 50h1M36 51h1M33 52h3" />
<path stroke="#707070" d="M32 10h1M29 12h6M27 13h9M25 14h12M24 15h2M29 15h9M23 16h2M30 16h9M23 17h2M30 17h9M22 18h3M30 18h10M22 19h4M29 19h11M21 20h19M19 21h1M21 21h19M19 22h1M21 22h19M22 23h18M22 24h18M22 25h17M22 26h17M23 27h15M24 28h13M25 29h11M27 30h7M30 35h2M28 37h6M26 38h2M31 38h5M25 39h2M28 39h9M24 40h2M27 40h2M34 40h4M24 41h1M26 41h2M36 41h2M23 42h1M25 42h2M36 42h3M23 43h1M25 43h1M37 43h2M23 44h1M25 44h1M37 44h2M41 44h3M23 45h1M25 45h1M37 45h2M41 45h3M23 46h3M37 46h2M23 47h3M37 47h2M24 48h3M36 48h2M25 49h3M35 49h2M25 50h4M34 50h3M26 51h10M28 52h5" />
<path stroke="#505050" d="M33 10h1M29 11h6M27 12h2M25 13h2M36 13h1M24 14h1M37 14h2M38 15h2M39 16h2M22 17h1M39 17h2M40 18h2M40 19h2M40 20h3M20 21h1M40 21h3M20 22h1M40 22h3M16 23h4M21 23h1M40 23h3M17 24h3M21 24h1M40 24h3M21 25h1M39 25h4M39 26h3M22 27h1M38 27h4M23 28h1M37 28h4M23 29h2M36 29h5M24 30h3M34 30h6M25 31h14M27 32h10M29 33h6M32 35h1M28 36h1M27 37h1M34 37h1M25 38h1M36 38h1M24 39h1M37 39h1M29 40h1M33 40h1M38 40h1M23 41h1M28 41h1M35 41h1M38 41h1M22 42h1M27 42h1M39 42h1M26 43h1M39 43h1M26 44h1M39 44h2M26 45h1M39 45h2M39 46h1M41 46h3M39 47h1M23 48h1M38 48h2M24 49h1M38 49h1M24 50h1M38 50h1M25 51h1M37 51h1M26 52h2M36 52h1M28 53h7" />
<path stroke="#d8d8d8" d="M26 16h3M26 17h3M26 18h3M17 21h1M26 40h1M25 41h1M24 42h1M24 43h1" />
</svg>