<svg xmlns="http://www.w3.org/2000/svg" viewBox="0 -0.5 64 64" shape-rendering="crispEdges">
<metadata>Made with Pixels to Svg https://codepen.io/shshaw/pen/XbxvNj</metadata>
<path stroke="#50a8b0" d="M32 16h1M27 20h1M33 20h1M33 21h1M33 22h1M33 23h1M32 24h2M32 25h2M32 26h3M32 27h3M32 28h3M32 29h1M52 29h1M50 30h1M16 31h1M22 31h1M42 31h1M48 31h1M18 32h1M26 32h1M38 32h1M46 32h1M19 33h1M9 42h2M54 42h1M9 43h4M22 43h1M42 43h1M53 43h2M9 44h6M20 44h1M44 44h1M52 44h3M10 45h7M50 45h5M12 46h6M48 46h5M14 47h4M47 47h4M16 48h2M24 48h2M39 48h2M48 48h1" />
<path stroke="#3870a0" d="M31 17h1M23 18h3M31 18h1M39 18h3M20 19h3M30 19h1M33 19h1M37 19h2M42 19h3M18 20h2M30 20h1M36 20h1M45 20h2M30 21h1M36 21h1M18 22h1M29 22h1M34 22h1M46 22h1M18 23h2M29 23h1M34 23h1M45 23h2M18 24h3M29 24h1M34 24h1M44 24h3M14 25h3M19 25h3M28 25h1M34 25h2M43 25h3M12 26h2M28 26h1M35 26h1M11 27h1M19 27h1M28 27h1M35 27h1M45 27h1M10 28h1M19 28h1M45 28h1M11 29h1M18 29h1M46 29h1M53 29h1M11 30h3M18 30h1M31 30h1M33 30h1M46 30h1M51 30h3M11 31h5M20 31h2M43 31h2M49 31h5M11 32h7M20 32h6M30 32h1M34 32h1M39 32h6M47 32h7M13 33h6M21 33h9M35 33h10M46 33h6M16 34h4M21 34h10M34 34h11M46 34h3M18 35h3M22 35h9M34 35h10M45 35h2M22 36h9M34 36h9M16 37h2M20 37h2M23 37h8M34 37h8M43 37h4M13 38h3M19 38h4M27 38h5M33 38h5M42 38h5M11 39h2M19 39h8M38 39h9M9 40h2M19 40h7M28 40h9M39 40h7M8 41h1M21 41h4M27 41h11M40 41h3M8 42h1M26 42h7M35 42h3M8 43h1M28 43h5M36 43h2M52 43h1M8 44h1M50 44h2M48 45h2M10 46h1M47 46h1M12 47h1" />
<path stroke="#b0e8f0" d="M32 17h1M32 18h1M23 19h3M31 19h2M39 19h3M20 20h3M31 20h2M37 20h6M18 21h2M31 21h2M37 21h5M30 22h3M36 22h5M30 23h2M36 23h2M39 23h1M31 24h1M36 24h1M31 25h1M12 27h2M11 28h2M12 29h2M19 29h3M14 30h1M19 30h5M23 31h3M34 31h5M35 32h3M16 38h1M13 39h3M11 40h5M9 41h7M11 42h5M13 43h4M15 44h2M17 45h1" />
<path stroke="#284878" d="M33 17h1M33 18h1M26 19h2M34 19h1M28 20h1M17 21h1M28 21h1M47 21h1M17 22h1M35 22h1M17 23h1M17 24h1M18 25h1M36 25h1M46 25h1M48 25h3M17 26h6M42 26h6M51 26h2M23 27h3M38 27h4M53 27h1M26 28h4M35 28h3M54 28h1M10 29h1M30 29h2M33 29h2M10 30h1M10 31h1M19 31h1M31 31h1M33 31h1M45 31h1M10 32h1M19 32h1M31 32h1M33 32h1M45 32h1M11 33h1M20 33h1M30 33h2M33 33h2M45 33h1M13 34h1M20 34h1M31 34h1M33 34h1M45 34h1M51 34h1M16 35h1M21 35h1M31 35h1M33 35h1M44 35h1M18 36h1M31 36h1M33 36h1M43 36h1M22 37h1M31 37h1M33 37h1M47 37h2M23 38h1M32 38h1M38 38h1M49 38h3M27 39h1M52 39h2M26 40h2M37 40h2M25 41h2M38 41h2M24 42h2M38 42h3M23 43h3M39 43h3M21 44h4M40 44h4M9 45h1M19 45h6M40 45h6M11 46h1M18 46h6M41 46h6M13 47h1M18 47h6M41 47h6M14 48h1M18 48h6M41 48h7" />
<path stroke="#80d0d0" d="M23 20h4M43 20h2M20 21h8M42 21h5M19 22h10M41 22h5M20 23h9M32 23h1M38 23h1M40 23h5M21 24h8M30 24h1M37 24h7M22 25h6M29 25h2M37 25h6M14 26h3M23 26h5M29 26h3M37 26h5M48 26h3M14 27h5M20 27h3M26 27h2M29 27h3M37 27h1M42 27h3M46 27h7M13 28h6M20 28h6M30 28h2M38 28h7M46 28h8M14 29h4M22 29h8M35 29h11M47 29h5M15 30h3M24 30h7M34 30h12M47 30h3M17 31h2M26 31h5M39 31h3M46 31h2M27 32h3M18 37h2M17 38h2M47 38h2M16 39h3M47 39h5M16 40h3M46 40h8M16 41h5M43 41h12M16 42h8M33 42h2M41 42h13M17 43h5M26 43h2M33 43h3M38 43h1M43 43h9M17 44h3M25 44h15M45 44h5M18 45h1M25 45h15M46 45h2M24 46h17M24 47h17M26 48h13" />
<path stroke="#101010" d="M34 20h1M34 21h1M47 22h1M35 23h1M47 23h1M35 24h1M47 24h1M36 26h1M36 27h1M54 29h1M32 30h1M54 30h1M32 31h1M54 31h1M32 32h1M54 32h1M12 33h1M32 33h1M52 33h2M14 34h2M32 34h1M49 34h2M17 35h1M32 35h1M47 35h2M19 36h3M32 36h1M44 36h3M32 37h1M42 37h1M24 38h3M39 38h3M28 39h10M54 40h1M55 41h1M55 42h1M55 43h1M55 44h1M55 45h1M53 46h2M51 47h2M15 48h1M49 48h2" />
</svg>