<svg xmlns="http://www.w3.org/2000/svg" viewBox="0 -0.5 64 64" shape-rendering="crispEdges">
<metadata>Made with Pixels to Svg https://codepen.io/shshaw/pen/XbxvNj</metadata>
<path stroke="#786018" d="M24 14h4M21 15h3M19 16h1M17 17h1M15 19h1M14 20h1M13 21h1M45 23h2M12 24h1M44 24h1M46 24h2M12 25h1M47 25h2M12 26h1M47 26h2M47 27h3M11 28h1M48 28h2M11 29h1M48 29h2M11 30h1M48 30h3M11 31h1M48 31h3M47 32h4M10 33h1M44 33h1M46 33h5M10 34h1M43 34h1M45 34h1M47 34h5M10 35h1M42 35h1M44 35h1M46 35h6M10 36h1M41 36h1M43 36h9M9 37h1M40 37h1M42 37h1M44 37h8M9 38h1M41 38h1M43 38h10M9 39h1M38 39h1M40 39h1M42 39h11M9 40h1M37 40h1M39 40h1M41 40h12M8 41h1M38 41h1M40 41h1M42 41h12M8 42h1M37 42h1M39 42h15M38 43h1M40 43h14M37 44h1M39 44h15M36 45h1M38 45h1M40 45h15M7 46h1M37 46h1M39 46h16M7 47h1M36 47h1M38 47h1M40 47h15M37 48h1M39 48h16M36 49h1M38 49h1M40 49h16M37 50h19" />
<path stroke="#c0a050" d="M24 15h4M21 16h1M28 16h3M19 17h1M30 17h1M32 17h1M17 18h1M31 18h1M33 18h2M16 19h1M30 19h1M32 19h4M15 20h3M29 20h1M31 20h1M33 20h5M14 21h3M18 21h1M28 21h1M30 21h1M32 21h6M14 22h2M17 22h1M19 22h1M21 22h1M23 22h1M25 22h1M27 22h1M29 22h1M31 22h8M13 23h4M18 23h1M20 23h1M22 23h1M24 23h1M26 23h1M28 23h1M30 23h9M13 24h5M19 24h1M21 24h1M23 24h1M25 24h1M27 24h1M29 24h11M13 25h8M22 25h1M24 25h1M26 25h13M40 25h1M13 26h25M39 26h1M12 27h25M38 27h1M12 28h24M37 28h1M39 28h1M12 29h17M30 29h1M32 29h1M34 29h1M36 29h1M38 29h1M12 30h15M31 30h1M33 30h1M35 30h1M37 30h1M12 31h16M11 32h18M11 33h2M14 33h14M29 33h1M11 34h1M15 34h1M17 34h12M11 35h1M17 35h1M19 35h3M23 35h1M25 35h3M29 35h1M11 36h1M13 36h1M16 36h2M25 36h4M10 37h4M16 37h2M21 37h1M24 37h4M29 37h1M10 38h4M15 38h4M20 38h1M22 38h1M24 38h5M11 39h1M13 39h6M20 39h8M29 39h1M10 40h1M12 40h1M14 40h1M16 40h13M9 41h1M11 41h1M13 41h1M15 41h1M17 41h11M29 41h1M10 42h1M12 42h1M14 42h1M16 42h11M28 42h1M9 43h1M11 43h1M13 43h1M15 43h13M29 43h1M10 44h1M12 44h1M14 44h13M28 44h1M30 44h1M9 45h1M11 45h1M13 45h13M27 45h1M29 45h1M8 46h1M10 46h1M12 46h1M14 46h13M28 46h1M9 47h1M11 47h1M13 47h13M27 47h1M29 47h1M8 48h1M10 48h1M12 48h1M14 48h11M26 48h1M28 48h1M9 49h1M11 49h1M13 49h13M27 49h1M29 49h1M8 50h1M10 50h1M12 50h1M14 50h10M26 50h1M28 50h1" />
<path stroke="#503800" d="M28 15h3M20 16h1M31 16h2M18 17h1M33 17h2M16 18h1M36 19h1M38 20h1M41 21h3M13 22h1M44 22h3M47 23h1M48 24h1M49 25h1M49 26h1M50 27h1M51 30h1M52 34h1M53 38h1M54 41h1M8 43h1M8 44h1M8 45h1M55 45h1M7 48h1M7 49h1M7 50h1" />
<path stroke="#d8c070" d="M22 16h6M20 17h10M31 17h1M18 18h13M32 18h1M17 19h13M31 19h1M18 20h11M30 20h1M32 20h1M17 21h1M19 21h9M29 21h1M31 21h1M16 22h1M18 22h1M20 22h1M22 22h1M24 22h1M26 22h1M28 22h1M30 22h1M17 23h1M19 23h1M21 23h1M23 23h1M25 23h1M27 23h1M29 23h1M18 24h1M20 24h1M22 24h1M24 24h1M26 24h1M28 24h1M21 25h1M23 25h1M25 25h1M13 33h1M12 34h3M16 34h1M12 35h5M18 35h1M22 35h1M24 35h1M12 36h1M14 36h2M18 36h7M14 37h2M18 37h3M22 37h2M14 38h1M19 38h1M21 38h1M23 38h1M19 39h1" />
<path stroke="#101010" d="M35 18h1M37 19h1M39 20h1M40 21h1M41 22h1M42 23h1M43 24h1M50 28h1M50 29h1M51 31h1M51 32h1M51 33h1M52 35h1M52 36h1M52 37h1M53 39h1M53 40h1M54 42h1M54 43h1M54 44h1M55 46h1M55 47h1M55 48h1M56 49h1M56 50h1" />
<path stroke="#a08038" d="M38 21h2M39 22h2M42 22h2M12 23h1M39 23h3M43 23h2M40 24h3M45 24h1M39 25h1M41 25h6M38 26h1M40 26h7M11 27h1M37 27h1M39 27h8M36 28h1M38 28h1M40 28h8M29 29h1M31 29h1M33 29h1M35 29h1M37 29h1M39 29h9M27 30h4M32 30h1M34 30h1M36 30h1M38 30h10M28 31h20M10 32h1M29 32h18M28 33h1M30 33h14M45 33h1M29 34h14M44 34h1M46 34h1M28 35h1M30 35h12M43 35h1M45 35h1M29 36h12M42 36h1M28 37h1M30 37h10M41 37h1M43 37h1M29 38h12M42 38h1M10 39h1M12 39h1M28 39h1M30 39h8M39 39h1M41 39h1M11 40h1M13 40h1M15 40h1M29 40h8M38 40h1M40 40h1M10 41h1M12 41h1M14 41h1M16 41h1M28 41h1M30 41h8M39 41h1M41 41h1M9 42h1M11 42h1M13 42h1M15 42h1M27 42h1M29 42h8M38 42h1M10 43h1M12 43h1M14 43h1M28 43h1M30 43h8M39 43h1M9 44h1M11 44h1M13 44h1M27 44h1M29 44h1M31 44h6M38 44h1M10 45h1M12 45h1M26 45h1M28 45h1M30 45h6M37 45h1M39 45h1M9 46h1M11 46h1M13 46h1M27 46h1M29 46h8M38 46h1M8 47h1M10 47h1M12 47h1M26 47h1M28 47h1M30 47h6M37 47h1M39 47h1M9 48h1M11 48h1M13 48h1M25 48h1M27 48h1M29 48h8M38 48h1M8 49h1M10 49h1M12 49h1M26 49h1M28 49h1M30 49h6M37 49h1M39 49h1M9 50h1M11 50h1M13 50h1M24 50h2M27 50h1M29 50h8" />
</svg>