<svg xmlns="http://www.w3.org/2000/svg" viewBox="0 -0.5 64 64" shape-rendering="crispEdges">
<metadata>Made with Pixels to Svg https://codepen.io/shshaw/pen/XbxvNj</metadata>
<path stroke="#e06888" d="M45 12h4M50 16h1M49 17h2M14 18h3M48 18h3M13 19h1M48 19h2M12 20h1M48 20h2M11 21h1M48 21h2M11 22h1M48 22h2M12 23h1M19 23h1M48 23h2M52 23h1M12 24h1M48 24h2M51 24h1M47 25h2M50 25h1M24 26h1M47 26h2M23 27h1M47 27h2M46 28h3M46 29h3M37 30h1M46 30h3M22 31h2M36 31h1M43 31h2M46 31h2M22 32h2M42 32h1M44 32h4M22 33h3M40 33h2M43 33h1M45 33h3M21 34h4M38 34h2M44 34h4M13 35h1M21 35h5M41 35h7M12 36h1M21 36h5M42 36h6M18 37h1M20 37h7M42 37h6M19 38h9M42 38h6M18 39h10M42 39h6M18 40h7M29 40h1M42 40h6M52 40h2M18 41h6M41 41h7M50 41h4M19 42h3M24 42h1M32 42h2M41 42h7M50 42h3M19 43h2M23 43h1M40 43h7M48 43h1M50 43h2M19 44h1M40 44h1M42 44h6M51 44h1M41 45h6M48 45h1M40 46h1M42 46h6M49 46h1M39 47h10M50 47h1M39 48h11M38 49h13M36 50h14M34 51h17" />
<path stroke="#b83858" d="M49 12h1M44 13h1M50 13h1M43 14h1M51 14h1M43 15h1M51 15h1M42 16h1M51 16h1M42 17h1M42 18h1M17 19h1M42 19h1M50 19h1M18 20h1M41 20h1M41 21h1M51 21h2M41 22h1M20 23h1M23 23h2M41 23h1M22 24h1M40 24h1M12 25h1M40 25h1M13 26h1M21 26h1M40 26h1M50 26h1M13 27h1M22 27h1M39 27h1M13 28h1M23 28h1M39 28h1M14 29h1M38 29h1M14 30h1M15 31h1M17 32h1M36 32h1M43 32h1M16 33h1M36 33h1M42 33h1M44 33h1M14 34h2M40 34h1M18 36h1M12 37h1M17 37h1M19 37h1M13 38h1M16 38h1M51 38h2M17 39h1M28 39h3M49 39h2M25 40h2M24 41h1M34 41h1M18 42h1M22 42h2M48 42h1M18 43h1M21 43h1M47 43h1M52 43h1M18 44h1M39 44h1M41 44h1M48 44h2M18 45h1M40 45h1M47 45h1M49 45h2M41 46h1M48 46h1M50 46h1M17 47h1M49 47h1M51 47h1M16 48h1M50 48h2M16 49h1M51 49h2M15 50h1M50 50h3M51 51h2" />
<path stroke="#f8a8c0" d="M45 13h1M44 14h1M44 15h1M43 16h2M43 17h1M48 17h1M43 18h1M46 18h2M43 19h1M46 19h2M16 20h2M42 20h2M46 20h2M15 21h3M42 21h2M45 21h3M16 22h3M42 22h1M45 22h3M52 22h1M13 23h1M16 23h3M42 23h1M45 23h3M51 23h1M13 24h2M16 24h4M41 24h2M44 24h4M13 25h2M17 25h4M24 25h1M41 25h2M44 25h3M14 26h2M17 26h4M22 26h2M41 26h6M14 27h2M17 27h5M40 27h7M14 28h3M18 28h4M42 28h4M15 29h2M18 29h5M43 29h3M15 30h8M41 30h5M16 31h6M39 31h4M45 31h1M18 32h4M39 32h3M17 33h5M39 33h1M16 34h5M14 35h7M14 36h4M19 36h2M38 36h4M15 37h2M38 37h4M15 38h1M37 38h5M38 39h4M30 40h5M38 40h4M27 41h1M37 41h4M36 42h5M35 43h1M37 43h3M34 44h1M36 44h3M33 45h1M35 45h1M37 45h3M24 46h1M30 46h1M32 46h1M34 46h1M36 46h4M23 47h1M25 47h1M27 47h1M29 47h1M31 47h1M33 47h1M35 47h4M22 48h1M24 48h15M21 49h1M23 49h15M20 50h1M22 50h1M24 50h12M19 51h1M21 51h1M23 51h1M25 51h9" />
<path stroke="#f8d0d8" d="M46 13h4M45 14h6M45 15h6M45 16h5M44 17h4M44 18h2M14 19h3M44 19h2M13 20h3M44 20h2M12 21h3M44 21h1M12 22h4M43 22h2M51 22h1M14 23h2M43 23h2M15 24h1M23 24h2M43 24h1M15 25h2M22 25h2M43 25h1M16 26h1M16 27h1M17 28h1M17 29h1M40 29h3M38 30h3M37 31h2M37 32h2M37 33h2M13 36h1M13 37h2M14 38h1M37 39h1M51 39h2M36 40h2M49 40h3M28 41h6M35 41h2M49 41h1M25 42h7M34 42h2M24 43h11M36 43h1M22 44h12M35 44h1M20 45h13M34 45h1M36 45h1M19 46h5M25 46h5M31 46h1M33 46h1M35 46h1M18 47h5M24 47h1M26 47h1M28 47h1M30 47h1M32 47h1M34 47h1M17 48h5M23 48h1M17 49h4M22 49h1M16 50h4M21 50h1M23 50h1M16 51h3M20 51h1M22 51h1M24 51h1" />
<path stroke="#881010" d="M51 17h1M51 18h1M50 20h1M18 21h1M19 22h1M53 22h1M53 23h1M20 24h1M25 24h1M52 24h1M21 25h1M49 25h1M51 25h1M50 27h1M22 28h1M40 28h2M39 29h1M48 31h1M15 32h2M48 32h1M15 33h1M25 33h1M48 33h1M37 34h1M41 34h3M48 34h1M26 35h1M38 35h3M37 36h1M37 37h1M18 38h1M36 38h1M14 39h2M31 39h2M36 39h1M53 39h1M17 40h1M27 40h2M35 40h1M54 40h1M17 41h1M25 41h2M49 42h1M53 42h1M22 43h1M49 43h1M20 44h2M50 44h1M52 44h1M19 45h1M51 45h1M18 46h1M51 46h1M15 51h1" />
<path stroke="#101010" d="M50 21h1M50 22h1M50 23h1M50 24h1M25 25h1M25 26h1M49 26h1M51 26h1M24 27h1M49 27h1M24 28h1M49 28h1M23 29h1M49 29h1M23 30h1M49 30h1M24 31h1M24 32h1M25 34h1M48 35h1M26 36h1M48 36h1M27 37h1M48 37h1M17 38h1M28 38h1M48 38h1M16 39h1M33 39h3M48 39h1M48 40h1M48 41h1M54 41h1M53 43h1M52 45h1M52 46h1M52 47h1M52 48h1M53 49h1M53 50h1M53 51h1" />
</svg>