<svg xmlns="http://www.w3.org/2000/svg" viewBox="0 -0.5 64 64" shape-rendering="crispEdges">
<metadata>Made with Pixels to Svg https://codepen.io/shshaw/pen/XbxvNj</metadata>
<path stroke="#a0a0a8" d="M13 4h1M12 5h1M12 6h1M13 7h1M13 8h1M18 8h1M14 9h1M18 9h2M18 10h3M18 11h3M19 12h3M19 13h4M19 14h4M19 15h5M19 16h6M19 17h6M19 18h4M19 19h2M32 19h2M31 20h8M27 21h6M35 21h5M25 22h3M37 22h4M23 23h2M38 23h3M12 24h1M21 24h2M38 24h4M18 25h3M26 25h7M34 25h1M39 25h3M21 26h13M40 26h1M18 27h4M24 27h12M25 28h8M26 29h5M27 30h3M27 31h2M27 32h2M27 33h2M27 34h1M27 35h1M25 36h2M25 37h1M25 38h1M24 39h1M23 40h3M23 41h2M24 42h1M23 43h1M23 44h3M19 45h1M22 45h2M25 45h1M19 46h1M22 46h2M18 47h1M22 47h2M38 48h1M12 49h1M21 49h3M10 50h1M21 50h3M43 50h1M20 51h2M24 51h1M41 51h5M19 52h2M22 52h2M39 52h9M18 53h2M21 53h2M36 53h13M17 54h2M20 54h2M24 54h2M38 54h12M16 55h2M19 55h2M37 55h1M41 55h10M15 56h2M18 56h1M34 56h7M43 56h9M14 57h3M19 57h1M32 57h11M45 57h8M3 58h1M13 58h3M17 58h2M30 58h15M47 58h7M12 59h3M16 59h2M28 59h19M48 59h6" />
<path stroke="#787880" d="M14 4h1M15 5h1M14 10h1M14 11h1M15 12h1M15 13h1M15 14h1M16 16h1M27 16h2M32 17h1M35 18h1M37 19h1M15 20h2M39 20h1M14 21h1M16 21h1M13 22h1M30 22h1M28 23h4M41 23h1M25 24h9M12 25h1M23 25h3M35 25h1M37 25h1M36 26h2M36 27h1M18 28h1M33 28h3M20 29h1M31 29h2M22 30h1M30 30h1M29 31h1M22 34h1M22 35h1M21 37h1M26 37h1M21 38h1M26 38h1M26 39h1M20 40h1M20 41h1M25 41h1M25 42h1M24 45h1M24 46h1M24 47h1M32 47h6M11 48h1M15 48h1M24 48h1M30 48h2M39 48h1M10 49h1M41 49h1M8 50h1M11 50h1M44 50h1M6 51h1M46 51h1M5 52h1M4 53h1M3 54h1M2 55h1M1 56h1M0 58h1" />
<path stroke="#e0e0e8" d="M13 5h2M13 6h2M14 7h1M14 8h2M15 9h1M15 10h1M15 11h2M16 12h1M16 13h1M16 14h2M16 15h2M17 16h1M25 16h2M17 17h1M27 17h5M17 18h2M29 18h6M17 19h2M34 19h3M17 20h1M15 21h1M18 21h1M14 22h2M17 22h1M14 23h1M16 23h1M24 31h1M24 32h1M24 33h1M23 35h1M23 36h1M22 39h1M21 40h1M21 41h1M20 43h1M20 44h1M19 47h1M16 48h4M32 48h4M37 48h1M11 49h1M14 49h5M29 49h6M36 49h1M38 49h1M9 50h1M12 50h6M19 50h1M29 50h5M35 50h1M37 50h1M7 51h2M10 51h7M18 51h1M28 51h1M30 51h1M32 51h1M34 51h1M36 51h1M6 52h1M9 52h7M17 52h1M29 52h1M31 52h1M33 52h1M35 52h1M5 53h1M8 53h7M16 53h1M4 54h1M7 54h7M15 54h1M3 55h1M6 55h7M14 55h1M26 55h2M29 55h1M2 56h2M5 56h5M11 56h1M13 56h1M22 56h1M24 56h3M28 56h1M2 57h1M4 57h5M10 57h1M12 57h1M21 57h1M23 57h3M27 57h1M1 58h2M4 58h4M9 58h1M11 58h1M20 58h1M22 58h3M26 58h1M1 59h1M3 59h4M8 59h1M10 59h1M19 59h1M21 59h3M25 59h1" />
<path stroke="#505050" d="M16 5h1M17 6h1M18 7h1M19 8h1M20 9h1M21 10h1M22 12h1M23 13h1M15 15h1M24 15h2M29 16h3M16 17h1M33 17h2M16 18h1M36 18h1M16 19h1M38 19h1M40 21h1M41 22h1M13 23h1M42 24h1M42 25h1M12 26h1M13 27h5M19 29h1M21 30h1M23 34h2M25 35h2M22 36h1M27 37h1M22 38h3M27 38h1M21 39h1M27 39h1M27 40h1M26 41h1M20 42h4M26 42h2M19 43h1M26 43h2M19 44h1M27 44h1M18 45h1M26 45h1M18 46h1M25 46h3M16 47h2M20 47h1M25 47h4M12 48h2M22 48h1M25 48h3M40 48h1M9 49h1M25 49h1M42 49h2M7 50h1M45 50h1M9 51h1M22 51h2M47 51h1M8 52h1M21 52h1M48 52h1M7 53h1M20 53h1M49 53h1M6 54h1M19 54h1M26 54h6M36 54h2M50 54h1M5 55h1M18 55h1M22 55h4M38 55h2M4 56h1M17 56h1M19 56h3M41 56h1M1 57h1M3 57h1M17 57h2M43 57h1M0 59h1M2 59h1" />
<path stroke="#c0c0c8" d="M15 6h2M15 7h3M16 8h2M16 9h2M16 10h2M17 11h1M17 12h2M17 13h2M18 14h1M18 15h1M18 16h1M18 17h1M25 17h2M23 18h6M21 19h11M18 20h13M17 21h1M19 21h8M16 22h1M18 22h7M15 23h1M17 23h6M13 24h8M13 25h5M13 26h5M22 27h2M19 28h6M21 29h5M23 30h4M25 31h2M25 32h2M25 33h2M25 34h2M24 35h1M24 36h1M22 37h3M23 39h1M22 40h1M22 41h1M21 43h2M21 44h2M20 45h2M20 46h2M20 48h2M36 48h1M13 49h1M19 49h2M28 49h1M35 49h1M37 49h1M39 49h2M18 50h1M20 50h1M26 50h3M34 50h1M36 50h1M38 50h5M17 51h1M19 51h1M25 51h3M29 51h1M31 51h1M33 51h1M35 51h1M37 51h4M7 52h1M16 52h1M18 52h1M24 52h5M30 52h1M32 52h1M34 52h1M36 52h3M6 53h1M15 53h1M17 53h1M23 53h13M5 54h1M14 54h1M16 54h1M22 54h2M4 55h1M13 55h1M15 55h1M21 55h1M28 55h1M30 55h7M10 56h1M12 56h1M14 56h1M23 56h1M27 56h1M29 56h5M9 57h1M11 57h1M13 57h1M20 57h1M22 57h1M26 57h1M28 57h4M8 58h1M10 58h1M12 58h1M19 58h1M21 58h1M25 58h1M27 58h3M7 59h1M9 59h1M11 59h1M18 59h1M20 59h1M24 59h1M26 59h2" />
<path stroke="#101010" d="M21 11h1M23 14h1M26 15h1M33 21h2M28 22h2M31 22h2M35 22h2M25 23h3M32 23h2M36 23h2M23 24h2M34 24h2M37 24h1M21 25h2M33 25h1M36 25h1M38 25h1M18 26h3M34 26h2M38 26h2M41 26h2M37 27h4M36 28h1M33 29h3M31 30h2M23 31h1M30 31h1M23 32h1M29 32h1M23 33h1M29 33h1M28 34h1M28 35h1M27 36h2M28 37h1M28 38h1M25 39h1M28 39h1M26 40h1M28 40h1M27 41h2M28 42h1M24 43h2M28 43h1M26 44h1M28 44h1M27 45h2M28 46h1M21 47h1M29 47h1M14 48h1M23 48h1M28 48h2M24 49h1M26 49h2M24 50h2M32 54h4M40 55h1M51 55h1M42 56h1M52 56h1M44 57h1M53 57h1M16 58h1M45 58h2M15 59h1M47 59h1M54 59h1" />
<path stroke="#c89000" d="M33 22h2M36 24h1" />
<path stroke="#f8d800" d="M34 23h2" />
</svg>