<svg xmlns="http://www.w3.org/2000/svg" viewBox="0 -0.5 64 64" shape-rendering="crispEdges">
<metadata>Made with Pixels to Svg https://codepen.io/shshaw/pen/XbxvNj</metadata>
<path stroke="#888050" d="M21 10h2M20 11h1M20 12h1M20 13h1M20 14h1M27 14h2M29 15h3M17 16h3M32 16h3M15 17h2M14 18h1M13 19h1M12 20h1M12 21h1M11 22h1M13 27h1M14 28h1M44 28h1M17 29h1M44 29h1M43 30h1M16 31h13M43 31h1M16 32h2M28 32h2M43 32h1M16 33h1M29 33h2M43 33h1M30 34h2M43 34h1M43 35h1M14 36h1M44 36h1M44 37h1M26 38h1M46 38h1M29 39h1M42 39h1M45 39h1M31 40h1M41 40h1M49 40h1M40 41h1M49 41h1M40 42h1M19 43h1M24 43h1M40 43h1M29 44h1M41 44h1M49 44h1M16 45h1M32 45h1M49 45h1M15 46h1M45 46h1M49 46h1M15 47h1M48 47h1M14 48h1M49 48h1M14 49h1M34 49h1M49 49h1M13 50h1M28 50h2M35 50h1M45 50h1M50 50h1M13 51h1M27 51h1M36 51h1M45 51h1M48 51h1M50 51h1M12 52h1M27 52h3M37 52h1M50 52h1M12 53h1M26 53h5M38 53h1M43 53h1M50 53h1" />
<path stroke="#d8d8b8" d="M21 11h2M21 12h2M21 13h1M21 14h1M20 15h2M27 15h2M20 16h2M25 16h6M17 17h15M15 18h18M14 19h19M13 20h20M13 21h19M13 22h19M14 23h17M14 24h15M16 25h12M18 26h6M46 28h1M48 28h1M45 29h4M44 30h6M51 30h1M44 31h8M44 32h8M44 33h1M46 33h6M44 34h8M34 35h1M44 35h1M46 35h2M49 35h2M35 36h2M45 36h1M48 36h1M34 37h1M36 37h1M35 38h1M47 39h2M42 40h2M47 40h2M41 41h7M41 42h5M20 43h4M41 43h5M18 44h11M42 44h2M17 45h15M42 45h1M16 46h2M21 46h12M16 47h2M21 47h12M15 48h3M21 48h12M17 49h5M25 49h7M42 49h2M17 50h1M20 50h2M25 50h1M30 50h1M16 51h1M21 51h1M13 52h4M21 52h3M40 52h2M13 53h4M21 53h2M40 53h2" />
<path stroke="#685830" d="M23 11h1M24 12h1M25 13h1M35 17h2M37 18h1M38 19h1M39 21h1M39 22h1M11 23h1M11 24h1M11 25h1M11 28h1M39 28h1M10 29h4M9 30h6M27 30h2M39 30h1M11 31h3M38 31h1M10 32h1M12 32h1M37 32h1M39 32h1M9 33h1M11 33h1M36 33h1M38 33h1M40 33h1M32 34h1M37 34h1M39 34h1M17 36h1M18 37h2M19 39h4M19 40h5M25 40h1M18 41h7M18 42h1M25 42h1M30 44h1M42 48h1M43 50h1" />
<path stroke="#a8a888" d="M23 12h1M22 13h3M22 14h3M22 15h4M22 16h3M31 16h1M32 17h3M33 18h4M33 19h5M33 20h6M32 21h7M12 22h1M32 22h7M12 23h2M31 23h8M12 24h2M29 24h10M12 25h4M28 25h10M13 26h5M24 26h12M14 27h20M15 28h17M18 29h9M18 32h10M17 33h12M45 33h1M17 34h13M52 34h1M17 35h17M45 35h1M48 35h1M51 35h2M18 36h17M46 36h2M49 36h3M20 37h14M35 37h1M45 37h5M27 38h8M36 38h1M44 38h2M30 39h6M44 39h1M32 40h2M48 41h1M46 42h3M46 43h3M44 44h5M43 45h6M46 46h3M33 47h1M47 47h1M33 48h1M32 49h2M44 49h1M48 49h1M26 50h2M31 50h4M44 50h1M48 50h2M25 51h2M30 51h6M49 51h1M24 52h3M31 52h6M49 52h1M23 53h3M32 53h6M42 53h1M49 53h1" />
<path stroke="#483810" d="M25 14h2M19 15h1M26 15h1M12 26h1M12 27h1M36 27h3M12 28h2M34 28h5M14 29h3M27 29h13M15 30h12M29 30h10M9 31h2M14 31h2M29 31h9M39 31h1M8 32h2M11 32h1M13 32h3M30 32h7M38 32h1M40 32h1M8 33h1M10 33h1M12 33h4M31 33h5M37 33h1M39 33h1M8 34h9M33 34h4M38 34h1M40 34h1M9 35h8M35 35h6M10 36h4M52 36h1M19 38h7M43 38h1M47 38h1M18 39h1M23 39h6M43 39h1M46 39h1M49 39h1M18 40h1M24 40h1M26 40h5M44 40h3M17 41h1M25 41h6M17 42h1M19 42h6M26 42h7M49 42h1M17 43h2M25 43h6M49 43h1M17 44h1M31 44h2M33 45h1M41 45h1M42 46h3M42 47h5M41 48h1M43 48h5M41 49h1M45 49h2M40 50h3M28 51h2M40 51h5M30 52h1M39 52h1M42 52h3M48 52h1M31 53h1M39 53h1M44 53h1M48 53h1" />
<path stroke="#189800" d="M50 21h1M49 22h1M49 23h1M51 23h1M48 24h1M51 24h1M48 25h1M46 26h2M45 27h2M55 28h1M55 29h1M55 30h1M54 31h2M52 32h1M54 32h1M52 33h1M54 33h1M53 34h2M53 35h1M53 41h1M52 42h1M54 42h1M54 43h1M52 44h1M54 44h1M20 47h1M19 48h2M16 50h1M14 51h2M20 51h1M23 51h2M19 52h2M17 53h4" />
<path stroke="#40c018" d="M50 22h1M51 25h1M51 26h1M54 26h1M47 27h2M54 27h1M45 28h1M47 28h1M49 28h1M54 28h1M49 29h3M54 29h1M52 30h1M54 30h1M52 31h2M53 32h1M53 33h1M52 43h1M53 44h1M18 46h3M18 47h2M18 48h1M15 49h2M23 49h2M14 50h2M18 50h2M22 50h3M17 51h3M22 51h1M17 52h2" />
<path stroke="#006600" d="M51 22h1M52 23h1M52 24h2M52 25h1M54 25h1M55 26h1M55 27h1M56 28h1M56 29h1M56 30h1M56 31h1M55 32h1M55 33h1M53 36h1M54 40h1M54 41h1M55 43h1M55 44h1M53 45h2M52 47h1" />
<path stroke="#101010" d="M39 23h1M39 24h1M38 25h1M36 26h2M34 27h2M32 28h2M40 30h1M40 31h1M41 32h1M41 33h1M41 34h1M55 34h1M41 35h1M54 35h1M37 36h4M37 37h1M50 37h2M37 38h1M48 38h2M36 39h1M34 40h2M50 40h1M31 41h3M50 41h1M50 44h1M50 45h1M33 46h1M50 46h1M34 47h1M49 47h1M34 48h1M48 48h1M50 48h1M35 49h1M47 49h1M50 49h1M36 50h1M46 50h1M51 50h1M37 51h1M46 51h1M51 51h1M38 52h1M45 52h1M51 52h1M45 53h1M51 53h1" />
<path stroke="#68d840" d="M50 23h1M49 24h2M49 25h2M53 25h1M48 26h3M52 26h2M49 27h5M50 28h4M52 29h2M50 30h1M53 30h1M53 42h1M53 43h1M22 49h1" />
</svg>