<svg xmlns="http://www.w3.org/2000/svg" viewBox="0 -0.5 64 64" shape-rendering="crispEdges">
<metadata>Made with Pixels to Svg https://codepen.io/shshaw/pen/XbxvNj</metadata>
<path stroke="#283060" d="M12 5h6M9 6h1M18 6h1M8 7h1M54 7h1M7 8h1M9 8h2M17 8h1M52 8h2M7 9h1M11 9h1M50 9h2M6 10h1M12 10h1M18 10h1M48 10h2M55 10h1M6 11h1M13 11h1M19 11h1M24 11h1M47 11h1M54 11h1M6 12h1M14 12h1M19 12h1M25 12h1M46 12h1M52 12h2M14 13h1M20 13h1M25 13h1M45 13h1M51 13h1M55 13h1M15 14h1M20 14h1M44 14h1M50 14h1M15 15h1M21 15h1M26 15h1M43 15h1M49 15h1M16 16h1M21 16h1M43 16h1M48 16h1M16 17h1M22 17h1M42 17h1M48 17h1M11 18h1M17 18h1M22 18h1M41 18h1M47 18h1M23 19h1M35 19h1M46 19h1M18 20h1M23 20h1M40 20h1M45 20h1M18 21h1M23 21h1M45 21h1M19 22h1M39 22h1M44 22h1M19 23h1M27 23h2M33 23h1M19 24h1M24 24h2M38 24h1M43 24h1M23 25h1M38 25h1M43 25h1M22 26h1M46 26h1M46 27h1M48 27h1M20 28h1M30 28h1M39 28h5M48 28h1M14 29h1M37 29h2M48 29h1M13 30h1M16 30h1M19 30h1M35 30h2M12 31h1M16 31h1M18 31h1M34 31h1M16 32h1M18 32h1M33 32h1M17 33h1M33 33h1M49 33h1M32 34h1M32 35h1M12 40h1M38 43h1M45 43h1M36 44h1M14 45h1M30 45h2M34 45h1M13 47h1M11 48h1M49 48h1M10 49h1M8 50h1M51 51h1M5 52h1M4 53h1M3 54h1M2 55h1M37 55h1M1 56h1M0 57h1M0 58h1" />
<path stroke="#101010" d="M48 5h6M19 6h1M46 6h2M54 6h1M20 7h2M44 7h2M55 7h1M22 8h1M43 8h1M55 8h1M23 9h1M42 9h1M56 9h1M23 10h1M41 10h1M56 10h1M40 11h1M56 11h1M39 12h1M56 12h1M38 13h1M26 14h1M38 14h1M55 14h1M8 15h1M37 15h1M54 15h1M9 16h1M27 16h1M36 16h1M53 16h1M10 17h1M27 17h1M36 17h1M53 17h1M28 18h1M35 18h1M52 18h1M11 19h1M28 19h1M51 19h1M12 20h1M29 20h1M34 20h1M50 20h1M12 21h1M29 21h1M34 21h1M49 21h1M13 22h1M30 22h4M48 22h1M13 23h1M29 23h1M48 23h1M14 24h1M32 24h1M47 24h1M14 25h1M32 25h1M47 25h1M15 26h1M31 26h1M47 26h1M15 27h1M31 27h1M15 28h1M16 29h1M30 29h1M46 29h1M30 30h1M47 30h2M29 31h1M48 31h1M1 32h1M29 32h1M49 32h1M2 33h6M29 33h1M8 34h3M29 34h1M29 35h1M60 36h1M54 37h6M11 38h1M50 38h4M11 39h1M0 40h1M7 40h4M1 41h5M13 41h1M14 42h1M39 42h6M15 43h1M37 43h1M46 43h4M15 44h1M35 44h1M47 44h1M51 44h4M61 44h1M32 45h2M48 45h1M56 45h5M48 46h1M49 47h1M50 49h1M51 50h1M52 52h1M53 53h1M54 54h1M38 55h2M55 55h2M40 56h1M41 57h1M41 58h1" />
<path stroke="#385080" d="M10 6h2M15 6h1M16 7h1M17 9h1M7 13h1M7 14h1M17 19h1M41 19h1M40 21h1M29 22h1M26 23h1M38 23h1M44 23h1M43 26h1M21 27h1M44 28h1M19 29h1M30 36h2" />
<path stroke="#5068a0" d="M12 6h3M16 6h2M53 6h1M10 7h6M17 7h3M49 7h5M11 8h6M18 8h4M47 8h5M54 8h1M9 9h2M12 9h5M18 9h5M45 9h5M52 9h4M9 10h3M13 10h5M19 10h4M44 10h4M50 10h5M9 11h4M14 11h5M20 11h4M43 11h4M48 11h6M55 11h1M9 12h5M15 12h4M20 12h5M42 12h4M47 12h5M54 12h2M9 13h5M15 13h5M21 13h4M41 13h4M46 13h5M52 13h3M10 14h5M16 14h4M21 14h5M40 14h4M45 14h5M51 14h4M11 15h4M16 15h5M22 15h4M40 15h3M44 15h5M50 15h4M12 16h4M17 16h4M22 16h5M39 16h4M44 16h4M49 16h4M13 17h3M17 17h5M23 17h4M38 17h4M43 17h5M49 17h4M13 18h4M18 18h4M23 18h5M38 18h3M42 18h5M48 18h4M14 19h3M18 19h5M24 19h4M37 19h4M42 19h4M47 19h4M14 20h4M19 20h4M24 20h5M37 20h3M41 20h4M46 20h4M15 21h3M19 21h4M24 21h5M36 21h4M41 21h4M46 21h3M15 22h4M20 22h9M36 22h3M40 22h4M45 22h3M16 23h3M20 23h6M35 23h3M39 23h5M45 23h3M16 24h3M20 24h4M35 24h3M39 24h4M44 24h3M17 25h6M34 25h4M39 25h4M44 25h3M17 26h5M34 26h9M44 26h2M17 27h4M33 27h13M47 27h1M18 28h2M33 28h6M45 28h3M18 29h1M32 29h5M47 29h1M18 30h1M32 30h3M31 31h3M17 32h1M31 32h2M31 33h2M31 34h1M31 35h1" />
<path stroke="#80a0c0" d="M48 6h5M9 7h1M46 7h3M8 8h1M44 8h3M8 9h1M43 9h2M7 10h2M42 10h2M7 11h2M41 11h2M7 12h2M40 12h2M8 13h1M39 13h2M8 14h2M39 14h1M9 15h2M38 15h2M10 16h2M37 16h2M11 17h2M37 17h1M12 18h1M36 18h2M12 19h2M36 19h1M13 20h1M35 20h2M13 21h2M35 21h1M14 22h1M34 22h2M14 23h2M34 23h1M15 24h1M33 24h2M15 25h2M33 25h1M16 26h1M32 26h2M16 27h1M32 27h1M16 28h2M31 28h2M17 29h1M31 29h1M17 30h1M31 30h1M17 31h1M30 31h1M30 32h1M30 33h1M30 34h1M30 35h1" />
<path stroke="#58a8e0" d="M30 23h3M29 24h3M28 25h4M28 26h3M29 27h2M45 30h2M46 31h2M47 32h2M11 33h1M11 34h1M17 34h1M11 35h1M18 35h1M19 36h1M19 37h1M12 38h1M19 38h1M13 39h1M19 39h1M14 40h2M18 40h2M15 41h4M39 43h2M37 44h5M36 45h6M17 46h1M35 46h6M14 47h1M16 47h1M18 47h1M34 47h6M13 48h3M17 48h1M33 48h1M35 48h3M11 49h6M34 49h1M10 50h6M8 51h7M7 52h7M5 53h8M4 54h7M45 54h1M47 54h1M3 55h7M26 55h1M46 55h1M48 55h1M2 56h6M25 56h1M27 56h1M47 56h1M49 56h1M1 57h6M24 57h1M26 57h1M28 57h1M30 57h1M50 57h1M1 58h5M23 58h1M25 58h1M27 58h1M29 58h1M31 58h1M49 58h1" />
<path stroke="#3080c0" d="M26 24h3M24 25h4M23 26h5M22 27h7M21 28h9M20 29h10M39 29h7M20 30h10M37 30h8M19 31h10M35 31h11M12 32h1M19 32h10M34 32h13M18 33h11M34 33h11M18 34h11M33 34h9M19 35h10M33 35h8M11 36h1M20 36h10M32 36h8M11 37h1M20 37h20M20 38h19M12 39h1M20 39h19M13 40h1M20 40h19M14 41h1M19 41h20M15 42h24M16 43h21M41 43h4M16 44h19M42 44h5M15 45h15M35 45h1M42 45h6M14 46h3M18 46h17M41 46h7M15 47h1M17 47h1M19 47h15M40 47h9M12 48h1M16 48h1M18 48h15M34 48h1M38 48h11M17 49h17M35 49h15M9 50h1M16 50h35M7 51h1M15 51h36M6 52h1M14 52h38M13 53h40M11 54h34M46 54h1M48 54h6M10 55h16M27 55h10M40 55h6M47 55h1M49 55h6M8 56h17M26 56h1M28 56h11M41 56h6M48 56h1M50 56h4M7 57h17M25 57h1M27 57h1M29 57h1M31 57h8M42 57h8M51 57h1M6 58h17M24 58h1M26 58h1M28 58h1M30 58h1M32 58h6M42 58h7M50 58h1" />
<path stroke="#88c8f8" d="M15 29h1M14 30h2M13 31h3M13 32h3M12 33h5M12 34h5M12 35h6M12 36h7M12 37h7M13 38h6M14 39h5M16 40h2" />
<path stroke="#886048" d="M8 30h5M1 31h7M45 33h1M48 33h1M42 34h1M47 34h1M49 34h5M41 35h1M54 35h7M9 36h2M40 36h1M6 37h3M3 38h3M39 38h1M1 39h2M39 39h1M49 39h2M6 40h1M39 40h1M51 40h3M39 41h1M54 41h3M57 42h2M50 43h1M59 43h2M55 44h1M54 56h4M52 57h2M58 57h2M51 58h1M60 58h1" />
<path stroke="#f8d048" d="M8 31h4M2 32h2M48 34h1M46 35h8M41 36h3M50 36h10M41 37h4M40 38h5M41 39h3M56 57h2M55 58h5" />
<path stroke="#f09840" d="M4 32h8M8 33h3M42 35h4M44 36h6M9 37h2M40 37h1M45 37h2M48 37h6M6 38h5M45 38h2M49 38h1M3 39h3M40 39h1M44 39h5M1 40h2M40 40h11M46 41h8M51 42h6M56 43h3M59 44h2M55 57h1M54 58h1" />
<path stroke="#c88040" d="M46 33h2M43 34h4M47 37h1M47 38h2M6 39h5M3 40h3M40 41h6M45 42h6M51 43h5M56 44h3M54 57h1M52 58h2" />
<path stroke="#a8b8e0" d="M39 56h1M39 57h2M38 58h3" />
</svg>