<svg xmlns="http://www.w3.org/2000/svg" viewBox="0 -0.5 64 64" shape-rendering="crispEdges">
<metadata>Made with Pixels to Svg https://codepen.io/shshaw/pen/XbxvNj</metadata>
<path stroke="#c85058" d="M16 11h2M15 12h1M18 12h1M16 14h2M16 15h3M16 16h4M15 17h5M14 18h6M15 19h6M15 20h7M14 21h9M16 22h8M26 22h1M15 23h12M11 24h2M15 24h13M12 25h18M31 25h1M13 26h18M14 27h15M31 27h1M14 28h14M32 28h1M15 29h12M9 30h1M15 30h12M8 31h1M13 31h1M15 31h12M12 32h1M14 32h1M16 32h11M9 33h2M13 33h1M15 33h12M10 34h17M11 35h16M11 36h17M11 37h18M10 38h18M9 39h18M8 40h19M8 41h19M9 42h19M13 43h15M14 44h16M32 44h1M14 45h16M32 45h1M38 45h1M12 46h17M31 46h3M38 46h1M9 47h20M30 47h5M37 47h3M43 47h1M10 48h25M37 48h7M11 49h24M37 49h7M11 50h32M12 51h31M11 52h34M48 52h2" />
<path stroke="#f0b888" d="M16 12h2" />
<path stroke="#605050" d="M15 13h1M18 13h1M15 14h1M19 14h1M15 15h1M19 15h1M15 16h1M20 16h1M20 17h1M21 18h2M14 19h1M23 19h1M14 20h1M10 21h4M24 21h2M32 21h1M9 22h1M13 22h3M31 24h1M11 26h1M31 26h1M11 27h1M13 27h1M29 27h2M32 27h1M10 28h1M13 28h1M28 28h1M31 28h1M33 28h1M10 29h1M27 30h1M29 30h2M32 30h1M34 30h1M27 31h1M29 31h2M32 31h1M35 31h1M8 32h1M27 32h1M29 32h2M32 32h1M27 33h1M29 33h2M32 33h1M27 34h1M32 34h1M10 36h1M28 36h1M31 36h1M34 36h1M10 37h1M29 37h2M9 38h1M8 39h1M7 40h1M28 40h1M28 41h1M29 42h1M10 43h1M29 43h1M50 43h1M9 44h1M30 44h2M8 45h1M33 45h1M36 45h2M41 45h3M49 45h1M54 45h1M8 46h1M34 46h2M39 46h2M44 46h1M49 46h2M44 47h1M49 47h1M53 47h1M48 48h1M48 49h1M10 50h1M43 50h1M48 50h1M11 51h1M43 51h1M47 51h1M10 52h1M47 52h1" />
<path stroke="#f07860" d="M16 13h2M18 14h1M20 18h1M21 19h2M22 20h2M23 21h1M10 22h3M24 22h2M10 23h5M27 23h1M13 24h2M28 24h2M30 25h1M12 27h1M11 28h2M11 29h4M33 29h1M10 30h5M33 30h1M9 31h4M14 31h1M34 31h1M9 32h3M13 32h1M15 32h1M11 33h2M14 33h1M11 43h2M10 44h4M9 45h5M30 45h2M9 46h3M29 46h2M36 46h2M41 46h3M29 47h1M35 47h2M40 47h3M35 48h2M35 49h2" />
<path stroke="#999900" d="M31 19h2M30 20h1M32 20h1M28 21h1M27 22h1M32 22h1M31 23h1M27 29h2M31 29h2M27 35h2M31 35h2M50 40h1M49 41h1M51 41h1M55 41h2M48 42h1M51 42h1M54 42h1M56 42h1M53 43h1M55 43h1M47 44h1M50 44h1M52 44h1M55 44h1M46 45h1M51 45h1M45 47h1M44 48h1M44 49h1" />
<path stroke="#f0f000" d="M31 20h1M29 21h3M28 22h3M28 23h2M29 28h2M29 29h2M31 30h1M50 41h1M49 42h2M55 42h1M49 43h1M54 43h1M48 44h2M53 44h2M47 45h2M52 45h2M46 46h3M51 46h2M46 47h3M51 47h1M45 48h2M45 49h1" />
<path stroke="#c0c058" d="M31 22h1M30 23h1M30 24h1M28 30h1M28 31h1M31 31h1M28 32h1M31 32h1M28 33h1M31 33h1M28 34h4M29 35h2M29 36h2M47 43h2M53 46h1M50 47h1M52 47h1M47 48h1M49 48h4M46 49h2M49 49h3M44 50h4M49 50h3M44 51h3M48 51h3M45 52h2M50 52h1" />
<path stroke="#181818" d="M9 23h1M10 24h1M11 25h1M12 26h1M35 32h1M8 33h1M35 33h1M9 34h1M35 34h1M10 35h1M35 35h1M34 37h1M33 38h1M31 39h2M29 40h2M7 41h1M8 42h1M9 43h1M54 46h1M8 47h1M9 48h1M53 48h1M10 49h1M52 49h1M52 50h1M51 51h1M51 52h1" />
<path stroke="#d8d0a0" d="M33 31h1M33 32h1M33 33h1M33 34h1M33 35h2M32 36h2M31 37h3M29 38h4M27 39h1M29 39h2M27 40h1M27 41h1M28 42h1M28 43h1" />
<path stroke="#f8f8d0" d="M34 32h1M34 33h1M34 34h1" />
<path stroke="#b0a098" d="M28 38h1M28 39h1" />
</svg>