<svg xmlns="http://www.w3.org/2000/svg" viewBox="0 -0.5 64 64" shape-rendering="crispEdges">
<metadata>Made with Pixels to Svg https://codepen.io/shshaw/pen/XbxvNj</metadata>
<path stroke="#206078" d="M28 6h7M26 7h2M36 7h2M24 8h2M39 8h2M22 9h2M41 9h2M21 10h1M43 10h1M44 11h1M23 49h4M21 50h2M21 51h1M20 52h1M49 52h2M8 53h1M20 53h1M46 53h3M8 54h1M19 54h1M41 54h3M45 54h1M49 54h2M7 55h1M19 55h1M39 55h2M44 55h1M51 55h2M7 56h1M18 56h1M38 56h1M45 56h2M53 56h2M6 57h1M18 57h1M21 57h1M47 57h2M55 57h1" />
<path stroke="#70b8d0" d="M28 7h7M26 8h3M24 9h3M22 10h3M23 50h2M22 51h4M21 52h6M21 53h6M49 53h3M9 54h1M20 54h6M46 54h3M51 54h4M8 55h3M20 55h6M41 55h3M45 55h1M48 55h3M53 55h4M8 56h3M19 56h7M39 56h1M42 56h3M47 56h1M50 56h3M7 57h3M19 57h2M22 57h3M41 57h1M49 57h2" />
<path stroke="#3898b0" d="M35 7h1M29 8h10M27 9h1M35 9h6M39 10h4M42 11h2M44 12h1M25 50h2M26 51h2M27 52h1M27 53h1M26 54h2M26 55h1M11 56h1M26 56h1M55 56h3M10 57h2M25 57h2M38 57h3M44 57h3M51 57h4M56 57h2" />
<path stroke="#90d0e0" d="M28 9h1M34 9h1M38 10h1M41 11h1M43 12h1M46 55h2M40 56h2M48 56h2M42 57h2" />
<path stroke="#d8d8e8" d="M29 9h5M25 10h13M23 11h18M22 12h21M23 13h22M24 14h17M43 14h1M24 15h2M27 15h13M41 15h2M25 16h1M27 16h13M25 17h1M27 17h13M41 17h1M26 18h14M41 18h2M27 19h13M41 19h1M27 20h13M41 20h1M28 21h14M27 22h1M29 22h12M26 23h1M28 23h10M27 24h1M29 24h8M26 25h1M28 25h8M25 26h1M27 26h1M29 26h7M26 27h1M28 27h8M25 28h1M27 28h10M24 29h13M2 30h3M22 30h15M3 31h5M19 31h16M36 31h1M3 32h9M16 32h19M36 32h1M3 33h25M29 33h7M37 33h1M4 34h24M29 34h7M37 34h1M4 35h24M29 35h8M4 36h24M29 36h8M38 36h1M4 37h24M29 37h9M5 38h24M30 38h8M5 39h24M30 39h9M5 40h1M8 40h21M30 40h9M9 41h20M30 41h10M10 42h20M31 42h10M11 43h19M31 43h10M12 44h18M31 44h10M13 45h18M32 45h6M14 46h17M32 46h3M16 47h15M32 47h3M17 48h15M33 48h2M19 49h4M27 49h5M33 49h2M28 50h5M34 50h2M29 51h2M34 51h2M35 52h2M35 53h2M36 54h2M36 55h3M37 56h1" />
<path stroke="#505058" d="M20 11h1M21 12h1M22 13h1M23 14h1M41 14h2M23 15h1M24 16h1M40 16h1M42 16h1M24 17h1M40 17h1M24 18h1M24 19h1M42 21h1M1 29h1M1 30h1M1 31h1M1 32h1M35 32h1M1 33h1M36 33h1M36 34h1M28 35h1M37 35h1M2 36h1M28 36h1M37 36h1M2 37h1M28 37h1M38 37h1M2 38h1M38 38h1M29 39h1M39 39h1M3 40h1M29 40h1M39 40h1M3 41h1M29 41h1M40 41h1M41 42h1M4 43h1M30 43h1M41 43h1M4 44h1M30 44h1M42 44h1M5 45h1M43 45h1M5 46h1M31 46h1M44 46h1M31 47h1M45 47h1M46 48h1M32 49h1M48 49h1M33 50h1M49 50h1M33 51h1M50 51h1M34 52h1M51 52h1M34 53h1M35 54h1M35 55h1M36 56h1M36 57h2" />
<path stroke="#f0f0f8" d="M21 11h2M26 19h1M25 20h2M24 21h4M23 22h4M28 22h1M22 23h4M27 23h1M21 24h6M28 24h1M20 25h6M27 25h1M19 26h6M26 26h1M28 26h1M18 27h8M27 27h1M16 28h9M26 28h1M2 29h5M14 29h10M5 30h17M2 31h1M8 31h11M2 32h1M12 32h4M2 33h1M2 34h2M3 35h1M3 36h1M3 37h1M3 38h2M4 39h1M4 40h1M4 41h2M5 42h1M5 43h1M5 44h1M41 44h1M38 45h5M35 46h9M35 47h10M35 48h11M35 49h12M36 50h13M36 51h14M37 52h12M37 53h9M38 54h3M44 54h1" />
<path stroke="#000000" d="M45 12h1M45 13h1M44 14h1M44 15h1M43 16h1M42 17h2M40 18h1M40 19h1M42 19h2M40 20h1M42 20h2M62 31h1M62 32h1M61 35h1M61 36h1M60 38h1M60 39h1M59 41h1M59 42h1M58 43h1M57 45h1M56 47h1M55 48h1M54 49h1M27 50h1M53 50h1M28 51h1M52 51h1M28 52h1M28 53h1M52 53h3M28 54h1M55 54h2M27 55h1M57 55h1M13 56h1M27 56h1M58 56h1M12 57h1M14 57h2M27 57h1M58 57h1" />
<path stroke="#9898a8" d="M26 15h1M40 15h1M43 15h1M26 16h1M41 16h1M26 17h1M25 18h1M43 18h1M25 19h1M23 20h2M23 21h1M22 22h1M21 23h1M20 24h1M19 25h1M18 26h1M16 27h2M2 28h5M14 28h2M7 29h7M35 31h1M28 33h1M1 34h1M28 34h1M2 35h1M29 38h1M3 39h1M4 42h1M30 42h1M31 45h1M32 48h1M47 49h1" />
<path stroke="#805840" d="M44 19h1M45 20h1M46 21h1M41 22h1M38 23h2M37 24h1M58 24h1M36 25h1M40 25h2M59 25h1M36 26h1M42 26h3M52 26h6M36 27h1M46 27h5M59 27h3M61 28h1M37 29h1M37 30h1M62 30h1M37 31h1M37 32h1M62 33h1M38 34h1M61 34h1M38 35h1M39 37h1M61 37h1M39 38h1M40 40h1M60 40h1M58 44h1M56 46h1M15 47h1M6 48h1M16 48h1M18 49h1M7 50h1M20 50h1M8 51h1M31 51h2M51 51h1M8 52h1M29 52h2M9 53h1M10 54h1M11 55h1M12 56h1M35 57h1" />
<path stroke="#f8e898" d="M44 20h1M45 21h1M46 22h1M51 24h5" />
<path stroke="#e0a858" d="M43 21h1M42 22h3M41 23h5M38 24h7M37 25h3M43 25h14M37 26h5M46 26h4M58 26h2M37 27h2M40 27h1M42 27h1M44 27h2M51 27h7M38 28h2M41 28h1M43 28h1M45 28h16M38 29h1M40 29h1M42 29h1M44 29h17M38 30h2M41 30h1M43 30h1M45 30h17M38 31h3M42 31h1M44 31h18M38 32h2M41 32h1M43 32h19M39 33h2M42 33h1M44 33h18M39 34h3M43 34h18M39 35h22M40 36h21M40 37h21M40 38h20M41 39h19M41 40h19M7 41h1M41 41h18M7 42h2M42 42h17M7 43h3M42 43h15M8 44h3M43 44h13M57 44h1M8 45h4M44 45h11M8 46h5M45 46h8M9 47h5M46 47h5M55 47h1M9 48h7M47 48h1M54 48h1M9 49h9M53 49h1M10 50h10M52 50h1M10 51h11M11 52h9M31 52h3M12 53h8M29 53h5M13 54h6M29 54h6M14 55h5M28 55h7M14 56h4M28 56h8M16 57h2M28 57h7" />
<path stroke="#b88838" d="M44 21h1M45 22h1M47 22h2M40 23h1M49 23h8M57 24h1M42 25h1M45 26h1M50 26h2M60 26h1M58 27h1M37 28h1M61 29h1M38 33h1M39 36h1M40 39h1M6 40h2M6 41h1M8 41h1M6 42h1M9 42h1M6 43h1M10 43h1M6 44h1M11 44h1M12 45h1M13 46h1M6 47h1M14 47h1M7 49h1" />
<path stroke="#f8d060" d="M46 23h3M45 24h6M56 24h1M57 25h2M39 27h1M41 27h1M43 27h1M40 28h1M42 28h1M44 28h1M39 29h1M41 29h1M43 29h1M40 30h1M42 30h1M44 30h1M41 31h1M43 31h1M40 32h1M42 32h1M41 33h1M43 33h1M42 34h1M57 43h1M7 44h1M56 44h1M6 45h2M55 45h2M6 46h2M53 46h3M7 47h2M51 47h4M7 48h2M48 48h6M8 49h1M49 49h4M8 50h2M50 50h2M9 51h1M9 52h2M10 53h2M11 54h2M12 55h2" />
</svg>