<svg xmlns="http://www.w3.org/2000/svg" viewBox="0 -0.5 64 64" shape-rendering="crispEdges">
<metadata>Made with Pixels to Svg https://codepen.io/shshaw/pen/XbxvNj</metadata>
<path stroke="#487858" d="M18 20h3M17 21h1M21 21h3M43 21h1M17 22h1M24 22h2M42 22h1M18 23h1M26 23h1M42 23h1M44 23h1M18 24h1M41 24h1M44 24h1M19 25h1M41 25h1M20 26h1M41 26h1M45 26h1M48 26h1M21 27h1M41 27h1M45 27h1M47 27h1M41 28h1M44 28h1M41 29h1M44 29h1M48 29h1M41 30h1M42 31h2" />
<path stroke="#80c068" d="M18 21h3M18 22h5M43 22h1M43 23h1M19 24h5M43 24h1M20 25h3M47 25h1M42 26h3M47 26h1M42 27h3M42 28h1M48 28h1M43 29h1M42 30h1" />
<path stroke="#787060" d="M30 21h5M28 22h2M35 22h1M46 22h1M38 23h1M47 23h1M25 24h1M40 24h1M48 24h1M24 25h1M49 26h1M22 27h1M21 28h1M45 28h1M21 29h1M45 29h1M20 30h1M46 30h1M17 31h1M46 31h1M18 32h1M16 33h1M19 33h1M10 34h1M17 34h3M40 34h1M9 35h1M18 35h2M39 35h1M13 36h1M19 36h1M39 36h1M8 37h1M19 37h1M12 38h1M40 38h1M7 39h1M40 39h1M11 40h1M30 40h1M6 41h1M10 42h1M5 43h1" />
<path stroke="#988878" d="M38 21h5M44 21h1M45 22h1M27 23h1M46 24h1M26 27h4M54 27h1M32 28h1M53 28h1M22 29h1M34 29h1M56 29h1M58 29h1M14 30h2M35 30h1M44 30h1M13 31h1M36 31h1M12 32h1M17 32h1M20 32h1M37 32h1M48 32h1M50 32h1M11 33h1M17 33h2M38 33h1M46 33h1M49 33h2M38 34h1M48 34h2M10 35h1M40 35h1M45 35h1M47 35h2M9 36h1M23 36h3M40 36h1M45 36h2M20 37h1M26 37h2M40 37h1M8 38h1M28 38h1M29 39h1M41 39h1M7 40h1M39 40h1M41 40h1M10 41h1M30 41h1M41 41h1M6 42h1M31 42h1M41 42h1M41 43h1" />
<path stroke="#669966" d="M23 22h1M19 23h7M24 24h1M42 24h1M23 25h1M42 25h3M21 26h3M43 28h1M42 29h1M43 30h1" />
<path stroke="#f0e8e0" d="M30 22h1M32 22h1M29 23h1M31 23h1M33 23h2M28 24h1M30 24h3M29 25h2M27 26h3M25 28h1M27 28h1M24 29h1M26 29h1M25 30h1M23 32h1M24 33h1M23 34h1M22 37h1M21 38h2M20 39h2M21 40h1" />
<path stroke="#e0d0d0" d="M31 22h1M33 22h2M38 22h4M44 22h1M28 23h1M30 23h1M32 23h1M35 23h3M40 23h2M45 23h2M26 24h2M29 24h1M33 24h7M25 25h4M31 25h10M24 26h3M30 26h11M23 27h2M31 27h10M50 27h4M22 28h1M26 28h1M28 28h3M33 28h8M54 28h2M23 29h1M25 29h1M27 29h6M35 29h6M57 29h1M22 30h3M26 30h9M36 30h4M21 31h15M37 31h3M21 32h2M24 32h13M38 32h1M20 33h4M25 33h13M41 33h1M20 34h3M24 34h14M41 34h2M20 35h18M41 35h2M20 36h2M26 36h11M41 36h3M23 37h3M28 37h7M42 37h2M23 38h5M29 38h4M42 38h3M22 39h7M30 39h1M42 39h3M20 40h1M22 40h6M42 40h3M20 41h6M42 41h3M43 42h3M43 43h3" />
<path stroke="#585050" d="M36 22h2M39 23h1M47 24h1M46 25h1M48 25h1M46 26h1M48 27h2M47 28h1M49 28h4M47 29h1M49 29h1M53 29h3M48 30h3M56 30h2M16 31h1M20 31h1M48 31h1M16 32h1M41 32h2M47 32h1M51 32h1M15 33h1M40 33h1M47 33h1M51 33h1M15 34h2M46 34h1M50 34h1M14 35h1M46 35h1M13 37h1M44 37h1M19 38h1M19 39h1M19 40h1M40 40h1M19 41h1M45 41h1M20 42h1M35 42h1M20 43h1M31 43h1M55 43h1" />
<path stroke="#c8b8b0" d="M45 24h1M45 25h1M21 30h1M40 30h1M14 31h1M40 31h2M13 32h2M39 32h2M12 33h3M39 33h1M11 34h3M39 34h1M11 35h2M38 35h1M10 36h3M37 36h2M9 37h3M35 37h3M41 37h1M9 38h3M33 38h3M41 38h1M8 39h3M31 39h3M8 40h2M28 40h2M31 40h1M7 41h3M26 41h3M7 42h2M21 42h6M42 42h1M6 43h3M42 43h1" />
<path stroke="#b0a890" d="M50 26h4M25 27h1M30 27h1M46 27h1M55 27h1M23 28h2M31 28h1M46 28h1M56 28h2M33 29h1M46 29h1M45 30h1M47 30h1M58 30h1M15 31h1M44 31h2M47 31h1M15 32h1M43 32h4M42 33h1M44 33h2M14 34h1M44 34h2M13 35h1M43 35h1M22 36h1M12 37h1M21 37h1M38 37h2M20 38h1M36 38h4M11 39h1M34 39h6M10 40h1M32 40h7M29 41h1M31 41h7M9 42h1M27 42h4M32 42h3M9 43h1M21 43h10" />
<path stroke="#704838" d="M51 30h2M50 31h1M53 31h2M56 32h1M57 33h1M58 34h1M59 36h1M59 37h1M60 39h1M60 40h1M60 41h1M60 42h1M60 43h1" />
<path stroke="#282828" d="M49 31h1M49 32h1M43 33h1M48 33h1M43 34h1M47 34h1M44 35h1M49 35h2M44 36h1M47 36h2M50 36h1M45 37h2M51 37h1M45 38h1M51 38h1M12 39h1M45 39h1M52 39h1M45 40h1M52 40h1M11 41h1M38 41h2M53 41h1M36 42h2M46 42h1M53 42h1M10 43h1M32 43h3M46 43h1M54 43h1" />
<path stroke="#987050" d="M51 31h2M52 32h2M55 32h1M52 33h2M51 34h3M51 35h3M58 35h1M51 36h4M52 37h3M52 38h4M59 38h1M53 39h4M53 40h5M54 41h6M54 42h6M56 43h4" />
<path stroke="#a88860" d="M54 32h1M54 33h1M54 34h1M54 35h1M55 36h1M55 37h1M56 38h1M57 39h1M58 40h2" />
<path stroke="#c8a068" d="M55 33h2M55 34h3M55 35h3M56 36h3M56 37h3M57 38h2M58 39h2" />
</svg>