<svg xmlns="http://www.w3.org/2000/svg" viewBox="0 -0.5 64 64" shape-rendering="crispEdges">
<metadata>Made with Pixels to Svg https://codepen.io/shshaw/pen/XbxvNj</metadata>
<path stroke="#b8b8b8" d="M29 7h1M40 7h1M26 8h1M44 8h1M24 9h1M46 9h1M22 10h1M48 10h1M21 11h1M49 11h1M20 12h3M29 12h1M40 12h1M48 12h3M20 13h5M26 13h1M44 13h1M46 13h5M21 14h5M45 14h5M22 15h4M45 15h4M24 16h3M44 16h3M26 17h4M41 17h4M30 18h5" />
<path stroke="#d8d8d8" d="M30 7h1M39 7h1M28 8h1M39 8h1M41 8h3M25 9h3M29 9h1M38 9h1M40 9h6M23 10h6M39 10h9M22 11h8M38 11h11M23 12h6M41 12h7M25 13h1M45 13h1" />
<path stroke="#f8f8f8" d="M31 7h8M27 8h1M29 8h10M40 8h1M28 9h1M30 9h8M39 9h1M29 10h10M30 11h8" />
<path stroke="#887028" d="M54 18h2M56 19h1M43 20h2M42 21h1M45 21h1M57 21h1M26 22h1M36 22h1M40 22h2M46 22h1M26 23h1M20 24h1M26 24h1M39 24h1M44 24h1M55 24h1M43 25h1M53 25h1M29 26h1M35 26h1M41 26h2M51 26h1M33 27h1M40 27h1M49 27h1M10 29h1M28 29h1M32 29h1M12 30h1M26 30h1M25 31h1M35 32h1M49 32h10M6 33h4M24 33h1M45 33h4M13 34h3M18 34h1M41 34h2M23 35h1M51 39h1M10 40h1M40 40h1M14 41h1M18 41h1M41 41h1M45 41h1M17 42h1M24 42h1M43 42h1M15 43h1M26 43h1M34 43h1M14 44h1M20 45h1M27 46h1M29 46h2M33 49h1M33 50h1M32 51h2M32 52h1M32 53h1M32 54h1M34 54h1M31 55h1M33 55h1M31 56h2M34 56h1M39 56h1M30 57h2M33 57h1" />
<path stroke="#a08030" d="M52 19h2M20 20h2M50 20h2M56 20h1M19 21h1M22 21h1M48 21h2M7 22h3M23 22h1M57 22h1M6 23h1M11 23h2M31 23h1M14 24h2M29 24h1M16 25h2M19 26h2M7 27h1M22 27h1M9 28h1M11 29h1M6 34h1M5 35h1M5 36h1M45 42h1M45 43h2M23 44h1M46 44h1M22 45h1M45 45h2M21 46h1M44 46h2M19 47h3M43 47h3M19 48h4M26 48h6M44 48h1M19 49h2M26 49h7M19 50h1M21 50h2M27 50h6M20 51h2M28 51h4M20 52h2M28 52h4M20 53h2M28 53h4M21 54h1M28 54h4M21 55h2M27 55h4M22 56h2M26 56h5M22 57h8" />
<path stroke="#f0e060" d="M54 19h2M52 20h4M51 21h6M27 22h1M37 22h1M48 22h1M50 22h7M7 23h3M49 23h8M7 24h6M31 24h3M47 24h2M50 24h5M6 25h7M14 25h1M49 25h1M51 25h2M6 26h6M13 26h1M15 26h1M48 26h1M8 27h3M12 27h1M14 27h1M10 28h2M13 28h1M12 29h1M14 29h1M49 33h1M51 33h1M53 33h5M7 34h3M11 34h1M50 34h1M52 34h6M6 35h3M10 35h1M12 35h1M51 35h1M53 35h5M6 36h4M11 36h1M50 36h7M6 37h3M10 37h1M49 37h1M51 37h1M48 38h1M50 38h1M49 39h1M24 50h2M23 51h4M23 52h4M23 53h4M23 54h4M24 55h2" />
<path stroke="#d0c040" d="M20 21h2M43 21h2M50 21h1M20 22h3M42 22h4M49 22h1M21 23h3M27 23h1M41 23h5M47 23h2M21 24h4M30 24h1M34 24h1M40 24h1M42 24h2M46 24h1M49 24h1M13 25h1M15 25h1M20 25h7M30 25h4M39 25h1M41 25h1M44 25h5M50 25h1M12 26h1M14 26h1M16 26h2M21 26h7M40 26h1M43 26h5M49 26h2M11 27h1M13 27h1M15 27h6M23 27h7M41 27h1M43 27h6M12 28h1M14 28h19M42 28h1M44 28h5M13 29h1M15 29h13M43 29h6M13 30h13M42 30h1M44 30h4M13 31h12M43 31h1M45 31h2M15 32h10M16 33h8M50 33h1M52 33h1M10 34h1M12 34h1M20 34h4M37 34h1M45 34h5M51 34h1M9 35h1M11 35h1M13 35h10M36 35h1M38 35h1M44 35h1M46 35h5M52 35h1M10 36h1M12 36h11M37 36h1M43 36h1M45 36h5M9 37h1M11 37h12M44 37h1M46 37h3M50 37h1M10 38h13M43 38h1M45 38h3M49 38h1M51 38h1M10 39h13M42 39h1M44 39h1M46 39h3M50 39h1M11 40h12M45 40h1M47 40h4M11 41h3M19 41h5M46 41h4M18 42h6M16 43h10M30 43h2M43 43h1M15 44h7M24 44h3M42 44h3M16 45h4M24 45h3M41 45h1M43 45h1M17 46h2M23 46h3M42 46h1M23 47h3" />
<path stroke="#504828" d="M27 21h2M37 21h2M19 22h1M29 22h1M39 22h1M47 22h1M20 23h1M24 23h1M30 23h1M32 23h4M40 23h1M46 23h1M57 23h1M25 24h1M28 24h1M38 24h1M45 24h1M56 24h1M5 25h1M19 25h1M27 25h1M36 25h2M54 25h1M5 26h1M28 26h1M34 26h1M52 26h1M6 27h1M30 27h1M32 27h1M50 27h1M8 28h1M49 28h1M29 29h1M49 29h1M27 30h1M33 30h1M48 30h1M12 31h1M34 31h1M47 31h1M13 32h2M45 32h2M10 33h3M15 33h1M35 33h1M58 33h1M16 34h2M58 34h1M58 35h1M23 36h1M35 36h1M57 36h1M5 37h1M35 37h1M53 37h4M6 38h4M29 38h1M31 38h1M34 38h1M52 38h1M9 39h1M23 39h1M28 39h1M30 39h1M32 39h1M34 39h1M23 40h1M29 40h1M31 40h1M33 40h1M41 40h1M51 40h1M10 41h1M15 41h3M28 41h1M30 41h1M42 41h3M10 42h4M16 42h1M25 42h1M29 42h1M31 42h1M47 42h2M44 43h1M22 44h1M35 44h1M37 44h1M45 44h1M15 45h1M21 45h1M23 45h1M27 45h1M29 45h2M36 45h1M39 45h1M44 45h1M16 46h1M19 46h2M22 46h1M26 46h1M31 46h1M36 46h1M40 46h1M43 46h1M46 46h1M17 47h2M22 47h1M26 47h1M28 47h1M31 47h1M34 47h2M18 48h1M23 48h3M32 48h3M18 49h1M22 49h1M35 49h2M18 50h1M20 50h1M37 50h2M18 51h1M39 51h1M42 51h1M19 52h1M19 53h1M41 53h1M20 55h1M40 55h1M21 57h1" />
<path stroke="#b0a038" d="M28 22h1M38 22h1M10 23h1M28 23h2M36 23h4M6 24h1M13 24h1M27 24h1M35 24h3M41 24h1M28 25h2M34 25h2M38 25h1M40 25h1M42 25h1M18 26h1M30 26h4M36 26h4M21 27h1M31 27h1M34 27h6M42 27h1M33 28h9M43 28h1M33 29h10M34 30h8M43 30h1M35 31h8M44 31h1M36 32h9M36 33h7M19 34h1M36 34h1M38 34h3M43 34h2M37 35h1M39 35h5M45 35h1M36 36h1M38 36h5M44 36h1M36 37h8M45 37h1M52 37h1M35 38h8M44 38h1M35 39h7M43 39h1M45 39h1M34 40h6M44 40h1M46 40h1M33 41h8M32 42h11M32 43h2M37 43h6M30 44h5M38 44h4M31 45h5M40 45h1M42 45h1M32 46h4M41 46h1M32 47h2M24 49h2M23 50h1M26 50h1M22 51h1M27 51h1M22 52h1M27 52h1M22 53h1M27 53h1M22 54h1M27 54h1M23 55h1M26 55h1M24 56h2" />
<path stroke="#000000" d="M30 29h2M28 30h5M26 31h8M25 32h10M25 33h10M24 34h12M24 35h12M24 36h11M23 37h12M23 38h6M30 38h1M32 38h2M24 39h4M29 39h1M31 39h1M33 39h1M24 40h5M30 40h1M32 40h1M24 41h4M29 41h1M31 41h2M50 41h1M26 42h3M30 42h1M44 42h1M46 42h1M49 42h1M27 43h3M35 43h2M47 43h1M27 44h3M47 44h1M28 45h1M38 45h1M47 45h1M28 46h1M41 47h2M46 47h1M43 48h1M45 48h1M43 49h2M43 50h1M42 52h1M41 54h1M40 56h1M39 57h1" />
<path stroke="#705828" d="M43 33h2M42 40h2M36 44h1M37 45h1M37 46h3M27 47h1M29 47h2M36 47h5M35 48h8M21 49h1M23 49h1M34 49h1M37 49h6M34 50h3M39 50h4M19 51h1M34 51h5M40 51h2M33 52h9M33 53h8M20 54h1M33 54h1M35 54h6M32 55h1M34 55h6M21 56h1M33 56h1M35 56h4M32 57h1M34 57h5" />
</svg>