<svg xmlns="http://www.w3.org/2000/svg" viewBox="0 -0.5 64 64" shape-rendering="crispEdges">
<metadata>Made with Pixels to Svg https://codepen.io/shshaw/pen/XbxvNj</metadata>
<path stroke="#305880" d="M31 8h5M36 9h1M10 10h1M39 10h1M13 11h1M15 12h1M43 12h1M17 13h1M45 14h1M47 15h1M42 20h1M24 21h1M42 21h3M22 22h3M41 22h1M45 22h2M21 23h1M25 23h1M46 23h4M20 24h1M40 24h1M46 24h3M16 25h1M20 25h1M39 25h2M46 25h2M18 26h1M43 27h2M45 33h1M45 38h1M44 39h1M44 40h1M43 41h1M42 42h1M42 45h1M25 46h2M24 47h1M24 48h1M24 49h1M24 50h1M25 51h1M25 52h1M25 53h1" />
<path stroke="#283040" d="M6 9h4M30 9h1M37 9h2M5 10h1M11 10h2M40 10h1M14 11h1M41 11h1M16 12h1M18 13h1M34 13h1M44 13h1M19 14h1M20 15h1M38 15h1M21 16h1M22 17h1" />
<path stroke="#6098f8" d="M31 9h5M6 10h4M34 10h5M5 11h8M36 11h5M5 12h1M10 12h5M38 12h4M13 13h4M39 13h5M15 14h4M41 14h4M17 15h3M43 15h3M18 16h3M45 16h3M20 17h2M47 17h2M21 18h2M22 19h2M23 20h1M42 32h1M41 33h1M40 35h1M40 36h1M44 38h1M42 39h2M40 40h1M41 41h1M44 45h2M41 46h1M44 46h2M25 47h4M25 48h1M25 49h1M25 50h1M26 51h1M26 52h1M26 53h1M27 54h1M27 55h1" />
<path stroke="#000000" d="M30 10h1M4 11h1M31 11h1M4 12h1M32 12h1M4 13h1M33 13h1M5 14h1M35 14h2M5 15h1M37 15h1M6 16h1M39 16h1M48 16h1M7 17h1M40 17h1M49 17h1M8 18h1M23 18h1M41 18h1M50 18h1M9 19h1M24 19h1M42 19h1M50 19h1M10 20h1M24 20h1M41 20h1M43 20h2M51 20h1M11 21h1M25 21h1M41 21h1M45 21h2M51 21h1M12 22h1M25 22h1M40 22h1M47 22h2M51 22h1M13 23h1M26 23h1M40 23h1M50 23h1M14 24h1M26 24h1M49 24h1M15 25h1M26 25h1M48 25h1M17 26h1M20 26h1M46 26h2M19 27h3M45 27h1M22 28h2M43 28h2M44 29h1M45 30h1M45 31h1M46 32h1M46 33h1M46 34h1M46 35h1M46 36h1M46 37h1M45 39h1M23 42h1M24 43h1M41 43h1M26 44h2M38 44h2M43 44h3M29 45h2M41 45h1M46 45h1M27 46h2M46 46h1M29 47h1M46 47h1M29 48h1M45 48h1M30 49h1M43 49h2M30 50h1M41 50h2M42 51h1M42 52h1M26 54h1M44 54h1M26 55h1M45 55h1" />
<path stroke="#5878e0" d="M31 10h3M32 11h4M6 12h4M33 12h5M42 12h1M5 13h8M35 13h4M6 14h9M37 14h4M6 15h11M39 15h4M46 15h1M7 16h11M40 16h5M8 17h12M41 17h6M9 18h12M42 18h8M10 19h12M43 19h7M11 20h12M45 20h6M12 21h12M47 21h4M13 22h9M49 22h2M14 23h7M15 24h5M17 25h3M19 26h1M43 32h2M42 33h3M41 34h5M41 35h5M41 36h3M40 37h1M40 38h1M40 39h2M41 40h3M42 41h1M43 45h1M42 46h2M41 47h5M26 48h3M41 48h4M26 49h4M42 49h1M26 50h4M27 51h3M27 52h2M27 53h1" />
<path stroke="#e8d080" d="M42 22h3M22 23h3M41 23h5M21 24h5M41 24h5M21 25h5M41 25h5M21 26h5M28 26h1M39 26h2M42 26h3M22 27h3M26 27h1M40 27h3M41 28h2M41 29h3M41 30h4M41 31h4M40 32h2M21 33h1M40 33h1M39 34h2M39 35h1M38 36h2M21 37h1M36 37h4M22 38h3M31 38h1M33 38h1M35 38h1M37 38h3M22 39h9M32 39h1M34 39h1M36 39h4M22 40h12M35 40h1M37 40h3M23 41h18M24 42h18M26 43h14M28 44h9M32 45h8M34 46h7M37 47h4M38 48h3M39 49h3M38 50h1M38 51h3M38 52h4M29 53h4M37 53h6M29 54h4M36 54h7M29 55h13M43 55h2" />
<path stroke="#b8a880" d="M32 24h6M29 25h3M38 25h1M27 26h1M41 26h1M45 26h1M25 27h1M24 28h1M23 29h1M22 30h1M21 31h1M21 32h1M45 32h1M20 34h1M20 35h1M20 36h1M20 37h1M21 38h1M29 46h1M39 50h1M41 51h1" />
<path stroke="#f8e8c0" d="M32 25h6M29 26h10M28 27h1M31 27h9M25 28h1M32 28h9M24 29h2M32 29h9M23 30h4M31 30h10M22 31h19M22 32h18M22 33h18M21 34h18M21 35h18M21 36h17M44 36h2M22 37h14M41 37h5M25 38h6M32 38h1M34 38h1M36 38h1M41 38h3M31 39h1M33 39h1M35 39h1M34 40h1M36 40h1M31 46h3M30 47h7M30 48h8M31 49h7M31 50h7M32 51h6M30 52h2M33 52h5M34 53h3M34 54h2" />
<path stroke="#787050" d="M26 26h1M21 39h1M21 40h1M22 41h1M25 43h1M40 43h1M37 44h1M28 45h1M31 45h1M40 45h1M30 46h1M38 49h1M40 50h1M30 51h2M29 52h1M32 52h1M33 53h1M43 53h1M33 54h1M43 54h1M42 55h1" />
<path stroke="#f8f0d8" d="M27 27h1M29 27h2M26 28h6M26 29h6M27 30h4" />
<path stroke="#404060" d="M28 53h1M28 54h1M28 55h1" />
</svg>