<svg xmlns="http://www.w3.org/2000/svg" viewBox="0 -0.5 64 64" shape-rendering="crispEdges">
<metadata>Made with Pixels to Svg https://codepen.io/shshaw/pen/XbxvNj</metadata>
<path stroke="#904830" d="M40 11h1M38 12h1M44 12h1M36 13h1M35 14h1M34 15h1M47 15h1M33 16h1M44 16h1M47 16h1M51 16h1M33 17h1M47 17h1M51 17h1M32 18h1M48 18h1M32 19h1M48 19h1M32 20h1M49 20h1M31 21h1M50 21h2M31 22h1M52 22h1M30 23h1M30 24h1M50 25h2M48 26h2M51 26h1M46 27h5M44 28h6M45 29h3M46 30h1" />
<path stroke="#583038" d="M41 11h3M45 12h1M46 13h2M45 14h1M48 14h1M35 15h1M49 15h2M43 16h1M52 18h1M52 19h1M48 25h2M52 25h1M46 26h2M50 26h1M45 27h1M48 29h1M47 30h1M47 31h1" />
<path stroke="#c05038" d="M39 12h1M37 13h1M43 13h3M42 14h3M48 15h1M45 16h2M39 17h8M48 17h2M38 18h10M49 18h1M38 19h10M49 19h2M38 20h11M50 20h2M37 21h13M37 22h15M36 23h1M38 23h15M37 24h1M39 24h14M38 25h10M40 26h6M42 27h3" />
<path stroke="#f89868" d="M40 12h3M38 13h4M37 14h4M35 17h3M34 18h3M34 19h3M35 20h1" />
<path stroke="#e07848" d="M43 12h1M42 13h1M36 14h1M41 14h1M34 17h1M38 17h1M50 17h1M33 18h1M37 18h1M50 18h2M33 19h1M37 19h1M51 19h1M33 20h2M36 20h2M32 21h5M32 22h5M31 23h5M37 23h1M31 24h6M38 24h1M37 25h1" />
<path stroke="#333333" d="M46 14h2M36 15h11M34 16h9M48 16h3M1 47h1M1 48h1M0 49h1M0 50h1M0 51h1M4 51h2M3 52h1M0 53h3M9 53h1" />
<path stroke="#000000" d="M52 20h1M52 21h1M53 23h1M53 24h1M52 26h1M51 27h1M50 28h1M49 29h1M0 52h1M4 52h2M3 53h2M10 53h1" />
<path stroke="#b8a8a0" d="M27 25h10M53 25h1M24 26h1M39 26h1M53 26h1M22 27h1M41 27h1M54 27h1M20 28h2M42 28h2M52 28h1M54 28h1M19 29h1M44 29h1M52 29h1M54 29h1M18 30h1M45 30h1M52 30h1M55 30h1M17 31h1M46 31h1M52 31h1M55 31h1M16 32h1M47 32h2M15 33h3M48 33h2M16 34h1M47 34h2M57 34h2M17 35h1M59 35h2M2 36h1M47 36h1M56 36h6M1 37h1M55 37h8M0 38h1M55 38h8M0 39h1M54 39h10M54 40h10M47 41h2M54 41h10M0 42h1M45 42h6M53 42h11M0 43h3M43 43h21M3 44h1M42 44h1M44 44h19M3 45h1M30 45h4M41 45h1M43 45h20M2 46h1M5 46h1M7 46h1M20 46h1M22 46h1M24 46h1M28 46h8M38 46h1M40 46h1M42 46h1M44 46h18M4 47h1M6 47h1M8 47h1M10 47h1M12 47h1M18 47h2M21 47h1M23 47h1M25 47h1M27 47h1M29 47h11M41 47h1M43 47h18M4 48h2M7 48h1M9 48h1M11 48h1M13 48h1M15 48h10M26 48h1M28 48h32M61 48h1M6 49h1M8 49h1M10 49h1M12 49h1M14 49h43M62 49h1M5 50h1M7 50h1M9 50h48M62 50h1M6 51h50M63 51h1M8 52h37M46 52h1M48 52h7M63 52h1M11 53h4M18 53h26M45 53h1M47 53h1M49 53h4M63 53h1" />
<path stroke="#d0c8c0" d="M25 26h2M37 26h2M23 27h1M40 27h1M52 27h2M53 28h1M20 29h1M43 29h1M53 29h1M19 30h1M43 30h2M53 30h2M42 31h4M53 31h2M9 32h4M41 32h1M43 32h4M51 32h5M7 33h2M13 33h2M36 33h1M38 33h1M40 33h1M42 33h1M44 33h4M50 33h1M55 33h3M6 34h1M15 34h1M17 34h1M30 34h8M39 34h1M41 34h1M43 34h4M4 35h2M14 35h1M16 35h1M26 35h11M38 35h1M40 35h1M42 35h7M55 35h4M3 36h1M13 36h1M15 36h3M24 36h14M39 36h1M41 36h6M54 36h2M14 37h1M16 37h1M18 37h1M20 37h1M22 37h25M48 37h1M54 37h1M21 38h23M46 38h2M49 38h1M53 38h2M23 39h16M48 39h1M53 39h1M0 40h1M33 40h1M35 40h1M49 40h1M51 40h1M53 40h1M0 41h1M32 41h1M34 41h1M36 41h1M44 41h3M49 41h2M52 41h2M1 42h3M13 42h4M33 42h1M35 42h1M42 42h3M51 42h2M3 43h3M10 43h1M12 43h11M34 43h1M40 43h3M1 44h2M4 44h6M11 44h1M13 44h13M29 44h7M39 44h3M43 44h1M1 45h2M4 45h26M34 45h7M42 45h1M3 46h2M6 46h1M8 46h12M21 46h1M23 46h1M25 46h3M36 46h2M39 46h1M41 46h1M43 46h1M5 47h1M7 47h1M9 47h1M11 47h1M13 47h5M20 47h1M22 47h1M24 47h1M26 47h1M28 47h1M40 47h1M42 47h1M6 48h1M8 48h1M10 48h1M12 48h1M14 48h1M25 48h1M27 48h1M60 48h1M5 49h1M7 49h1M9 49h1M11 49h1M13 49h1M57 49h5M6 50h1M8 50h1M57 50h5M56 51h7M45 52h1M47 52h1M55 52h8M44 53h1M46 53h1M48 53h1M53 53h10" />
<path stroke="#e8d8d0" d="M27 26h10M24 27h16M22 28h20M21 29h22M20 30h23M18 31h24M17 32h24M42 32h1M9 33h4M18 33h18M37 33h1M39 33h1M41 33h1M43 33h1M51 33h4M7 34h8M18 34h12M38 34h1M40 34h1M42 34h1M49 34h8M6 35h8M15 35h1M18 35h8M37 35h1M39 35h1M41 35h1M49 35h6M4 36h9M14 36h1M18 36h6M38 36h1M40 36h1M48 36h6M2 37h12M15 37h1M17 37h1M19 37h1M21 37h1M47 37h1M49 37h5M1 38h20M44 38h2M48 38h1M50 38h3M1 39h22M39 39h9M49 39h4M1 40h32M34 40h1M36 40h13M50 40h1M52 40h1M1 41h31M33 41h1M35 41h1M37 41h7M51 41h1M4 42h9M17 42h16M34 42h1M36 42h6M6 43h4M11 43h1M23 43h11M35 43h5M10 44h1M12 44h1M26 44h3M36 44h3" />
<path stroke="#808080" d="M2 47h1M2 48h2M2 49h3M3 50h2" />
<path stroke="#585858" d="M3 47h1M1 49h1M1 50h2M1 51h3M1 52h2M6 52h2M5 53h4M15 53h3" />
</svg>