<svg xmlns="http://www.w3.org/2000/svg" viewBox="0 -0.5 64 64" shape-rendering="crispEdges">
<metadata>Made with Pixels to Svg https://codepen.io/shshaw/pen/XbxvNj</metadata>
<path stroke="#c08858" d="M25 12h6M23 13h2M21 14h2M20 15h1M36 20h2M36 21h2M36 22h2M35 23h3M34 24h4M33 25h4M32 26h4M29 27h6M25 28h7" />
<path stroke="#f8c8b8" d="M25 13h6M27 14h6M28 15h7M20 16h1M29 16h2M33 16h3M20 17h1M29 17h2M33 17h3M19 18h2M29 18h7M19 19h2M29 19h7M18 20h4M28 20h8M18 21h5M27 21h8M19 22h16M19 23h15M20 24h13M21 25h11M23 26h7" />
<path stroke="#904848" d="M31 13h2M33 14h2M35 15h1M19 16h1M36 16h1M19 17h1M36 17h1M18 18h1M37 18h1M18 19h1M37 19h1M17 20h1M38 20h1M17 21h1M38 21h1M17 22h1M38 22h1M17 23h1M38 23h1M17 24h1M38 24h1M18 25h1M37 25h1M18 26h1M37 26h1M19 27h1M36 27h1M19 28h1M36 28h1M20 29h1M35 29h1M21 30h2M23 31h2M31 31h1M25 32h6" />
<path stroke="#f8e0f8" d="M23 14h4M21 15h2M26 15h2M21 16h1M27 16h2M31 16h2M21 17h1M27 17h2M31 17h2M21 18h1M27 18h2M21 19h2M26 19h3M22 20h6M23 21h4" />
<path stroke="#f8f8f8" d="M23 15h3M22 16h5M22 17h5M22 18h5M23 19h3" />
<path stroke="#e0a880" d="M36 18h1M36 19h1M35 21h1M18 22h1M35 22h1M18 23h1M34 23h1M18 24h2M33 24h1M19 25h2M32 25h1M19 26h4M30 26h2M36 26h1M20 27h9M35 27h1M20 28h5M32 28h4M21 29h12M23 30h9M25 31h6" />
<path stroke="#303028" d="M33 29h2M32 30h1M21 31h1M32 31h1M21 32h1M32 32h1M20 33h1M20 34h1M19 35h1M18 36h1M41 36h2M18 37h1M43 37h1M17 38h1M45 38h1M45 39h1M44 40h1M46 40h1M46 41h1M13 42h1M43 42h1M46 42h1M13 43h1M44 43h3M13 44h1M47 44h2M14 45h1M49 45h1M49 46h1M45 49h2" />
<path stroke="#687078" d="M33 30h2M22 31h1M33 31h3M22 32h3M33 32h5M23 33h4M32 33h6M24 34h15M25 35h14M26 36h14M27 37h14M44 37h1M27 38h15M27 39h16M44 39h1M27 40h17M45 40h1M27 41h17M45 41h1M27 42h16M44 42h1M14 43h2M26 43h18M14 44h1M26 44h19M25 45h20M25 46h21M16 47h1M24 47h25M16 48h2M22 48h25M16 49h29M16 50h30M17 51h28M17 52h28" />
<path stroke="#000000" d="M35 30h1M36 31h1M38 32h1M39 33h1M39 34h1M40 35h1M40 36h1M41 37h1M42 38h1M17 39h1M43 39h1M17 40h1M16 41h1M44 41h1M16 42h1M45 42h1M16 43h1M15 44h1M15 45h1M15 46h1M15 47h1M49 47h1M15 48h1M47 48h2M15 49h1M15 50h1M46 50h1M16 51h1M45 51h1M16 52h1M45 52h1" />
<path stroke="#8c8c94" d="M31 32h1M21 33h2M27 33h4M38 33h1M23 34h1M24 35h1M39 35h1M25 36h1M25 37h2M42 37h1M25 38h2M43 38h2M25 39h2M24 40h3M23 41h4M14 42h2M22 42h5M17 43h1M21 43h5M16 44h10M45 44h2M16 45h9M45 45h4M16 46h9M46 46h3M17 47h7M18 48h4" />
<path stroke="#484848" d="M31 33h1M16 40h1M14 41h2" />
<path stroke="#a8a8a0" d="M21 34h2M20 35h4M19 36h6M19 37h6M18 38h7M18 39h7M18 40h6M17 41h6M17 42h5M18 43h3" />
</svg>