<svg xmlns="http://www.w3.org/2000/svg" viewBox="0 -0.5 64 64" shape-rendering="crispEdges">
<metadata>Made with Pixels to Svg https://codepen.io/shshaw/pen/XbxvNj</metadata>
<path stroke="#686858" d="M31 11h5M30 12h1M37 12h3M33 13h1M40 13h1M34 14h1M35 15h4M42 15h1M36 16h2M42 16h1M41 17h2M40 18h3M34 19h1M38 19h4M34 20h7M35 21h7M36 22h7M35 23h10M34 24h12M32 25h2M35 25h11M30 26h1M37 26h10M29 27h1M39 27h9M28 28h1M40 28h7M48 28h1M28 29h1M40 29h8M49 29h1M52 29h1M39 30h8M48 30h1M50 30h1M52 30h1M27 31h1M39 31h9M49 31h1M51 31h3M38 32h15M36 33h16M24 34h1M34 34h18M20 35h1M28 35h6M36 35h15M30 36h6M38 36h13M33 37h17M17 38h1M34 38h16M15 39h1M22 39h3M34 39h15M14 40h1M21 40h6M32 40h17M20 41h7M32 41h13M46 41h2M23 42h5M31 42h15M28 43h14M45 43h1M29 44h12M46 44h1M29 45h12M46 45h1M29 46h9M39 46h1M45 46h3M11 47h1M19 47h1M30 47h6M39 47h1M45 47h3M11 48h2M17 48h1M20 48h1M22 48h1M24 48h1M36 48h3M40 48h1M42 48h1M44 48h4M10 49h8M19 49h1M21 49h1M23 49h5M33 49h5M39 49h1M41 49h1M43 49h4M10 50h7M20 50h1M22 50h25M9 51h7M20 51h26M10 52h4M22 52h24" />
<path stroke="#b0b090" d="M31 12h5M35 13h3M32 26h2M30 27h5M29 28h6M29 29h5M30 30h3M21 35h1M24 35h2M18 36h2M28 36h2M17 37h1M32 37h1M16 38h1M22 38h2M33 38h1M25 39h2M33 39h1M31 40h1M18 41h2M27 41h1M31 41h1M13 42h1M21 42h2M28 42h3M25 43h3M15 44h3M28 44h1M28 45h1M28 46h1" />
<path stroke="#888878" d="M36 12h1M34 13h1M38 13h2M35 14h7M39 15h3M38 16h4M36 17h5M35 18h5M35 19h3M34 25h1M46 25h1M31 26h1M34 26h3M47 26h2M35 27h4M48 27h3M35 28h5M47 28h1M49 28h3M34 29h6M48 29h1M50 29h2M28 30h2M33 30h6M47 30h1M49 30h1M51 30h1M28 31h11M48 31h1M50 31h1M27 32h11M31 33h5M25 34h6M26 35h2M18 38h4M16 39h6M15 40h6M14 41h1M42 43h3M11 44h1M41 44h5M10 45h2M41 45h5M10 46h2M18 46h5M40 46h5M9 47h2M18 47h1M20 47h7M40 47h5M9 48h2M15 48h2M19 48h1M21 48h1M23 48h1M25 48h5M39 48h1M41 48h1M43 48h1M9 49h1M20 49h1M22 49h1M28 49h5M38 49h1M40 49h1M42 49h1M9 50h1M19 50h1M21 50h1" />
<path stroke="#333333" d="M31 13h2M41 13h1M33 14h1M42 14h1M35 16h1M35 17h1M34 18h1M33 19h1M33 20h1M34 21h1M43 21h1M35 22h1M43 22h1M34 23h1M32 24h2M31 25h1M47 25h1M49 26h1M51 27h1M27 30h1M26 32h1M53 32h1M25 33h5M52 33h2M22 34h2M32 34h2M52 34h1M35 35h1M51 35h1M53 35h1M36 36h1M51 36h1M51 37h1M54 37h1M50 38h1M54 38h1M50 39h1M54 39h1M50 40h1M54 40h1M45 41h1M49 41h1M54 41h1M46 42h1M49 42h1M54 42h1M11 43h2M46 43h1M49 43h1M10 44h1M47 44h1M49 44h1M53 44h1M9 45h1M12 45h1M18 45h5M47 45h1M49 45h1M52 45h1M12 46h1M17 46h1M24 46h3M48 46h1M52 46h1M8 47h1M12 47h1M15 47h3M28 47h2M36 47h2M48 47h1M8 48h1M13 48h2M18 48h1M31 48h4M8 49h1M8 50h1M17 50h2M48 50h1M8 51h1M18 51h1M46 51h1M49 51h1M14 52h1M21 52h1" />
<path stroke="#000000" d="M34 15h1M43 15h1M43 16h1M43 17h1M43 18h1M42 19h1M41 20h2M42 21h1M44 22h1M45 23h1M46 24h1M48 25h1M50 26h1M52 28h1M53 29h1M53 30h1M54 31h1M54 32h1M54 33h1M53 34h1M52 47h1M53 48h1M18 49h1M47 49h1M54 49h1M47 50h1M53 50h1M16 51h2M19 51h1M47 51h1M52 51h1M15 52h1M20 52h1M46 52h1M50 52h2" />
<path stroke="#585850" d="M30 33h1M31 34h1M34 35h1M37 36h1M50 37h1M49 39h1M49 40h1M48 41h1M47 42h2M47 43h2M12 44h1M48 44h1M13 45h5M48 45h1M9 46h1M13 46h4M23 46h1M38 46h1M13 47h2M27 47h1M38 47h1M30 48h1M35 48h1M9 52h1M16 52h4" />
<path stroke="#e8e0b8" d="M22 35h2M27 36h1M25 37h7M25 38h8M27 39h6M28 40h3M28 41h3M20 42h1M19 43h1M18 44h1" />
<path stroke="#f8f8e0" d="M52 35h1M20 36h7M52 36h1M18 37h7M52 37h2M52 38h2M53 39h1M53 40h1M15 41h1M14 42h6M14 43h5" />
<path stroke="#a8a078" d="M53 36h1M53 43h1M51 46h1M51 47h1M48 48h1M52 48h1M48 49h1M52 49h2M51 50h2M50 51h2" />
<path stroke="#d8d0a8" d="M24 38h1M51 38h1M51 39h2M27 40h1M51 40h2M16 41h2M50 41h4M50 42h4M13 43h1M20 43h5M50 43h3M13 44h2M19 44h9M50 44h3M23 45h5M50 45h2M27 46h1M49 46h2M49 47h2M49 48h3M49 49h3M49 50h2" />
</svg>