<svg xmlns="http://www.w3.org/2000/svg" viewBox="0 -0.5 64 64" shape-rendering="crispEdges">
<metadata>Made with Pixels to Svg https://codepen.io/shshaw/pen/XbxvNj</metadata>
<path stroke="#8070b0" d="M33 14h2M32 15h1M35 15h1M31 16h1M35 16h1M30 17h1M36 17h1M29 18h1M36 18h1M28 19h1M37 19h1M27 20h1M37 20h1M26 21h1M38 21h1M25 22h1M39 22h1M24 23h1M39 23h1M23 24h1M40 24h1M22 25h1M40 25h1M1 26h7M21 26h1M41 26h1M8 27h2M20 27h1M41 27h1M46 27h2M10 28h1M20 28h1M42 28h6M11 29h1M20 29h1M42 29h6M12 30h1M19 30h1M42 30h6M13 31h1M19 31h1M42 31h7M14 32h1M19 32h1M42 32h7M18 33h1M42 33h7M18 34h1M42 34h7M42 35h8M43 36h7M14 37h2M43 37h7M3 38h1M13 38h4M29 38h5M43 38h8M2 39h1M12 39h6M29 39h6M43 39h8M1 40h1M13 40h6M30 40h6M0 41h1M16 41h4M32 41h5M40 41h1M43 41h3M33 42h5M40 42h1M43 42h5M34 43h5M40 43h1M43 43h6M36 44h3M42 44h5M12 45h4M35 45h1M39 45h2M42 45h4M59 45h1M12 46h7M37 46h4M42 46h3M60 46h1M10 47h8M38 47h2M42 47h2M61 47h1M3 48h1M41 48h2M44 48h2M62 48h1M2 49h1M13 49h2M41 49h1M43 49h3M63 49h1" />
<path stroke="#303858" d="M35 14h1M36 15h1M37 16h1M38 17h1M39 18h1M40 19h1M41 20h1M42 21h2M44 22h1M45 23h1M46 24h1M47 25h1M48 26h1M1 27h1M49 27h1M1 28h1M1 29h1M1 30h1M50 30h1M1 31h1M27 31h7M1 32h1M15 32h1M26 32h1M34 32h1M2 33h1M16 33h1M26 33h1M35 33h1M3 34h1M17 34h1M26 34h1M36 34h1M51 34h1M4 35h2M18 35h1M26 35h1M37 35h1M6 36h2M19 36h1M27 36h1M37 36h1M8 37h1M20 37h1M27 37h1M38 37h1M52 37h1M4 38h2M9 38h2M20 38h1M27 38h1M39 38h1M6 39h4M11 39h1M20 39h1M28 39h1M39 39h1M10 40h3M20 40h1M29 40h1M40 40h1M43 40h11M13 41h3M30 41h2M42 41h1M54 41h1M0 42h1M16 42h3M32 42h1M42 42h1M55 42h1M0 43h1M19 43h1M33 43h1M42 43h1M56 43h1M1 44h1M19 44h1M34 44h2M39 44h1M41 44h1M57 44h1M1 45h1M19 45h1M29 45h4M36 45h3M41 45h1M58 45h1M2 46h1M28 46h1M33 46h4M41 46h1M3 47h7M18 47h1M27 47h1M37 47h1M41 47h1M10 48h8M26 48h1M38 48h1M40 48h1M15 49h1M26 49h1M38 49h1M40 49h1" />
<path stroke="#f8f8f8" d="M33 15h1M32 16h1M31 17h1M30 18h1M29 19h1M28 20h1M27 21h1M26 22h1" />
<path stroke="#98a0d8" d="M34 15h1M33 16h1M33 17h1M32 18h1M37 18h1M32 19h1M38 19h1M31 20h1M38 20h2M31 21h1M39 21h2M30 22h1M40 22h3M29 23h1M40 23h4M29 24h1M41 24h4M28 25h1M41 25h5M27 26h1M42 26h5M27 27h1M42 27h4M48 27h1M26 28h1M48 28h1M26 29h16M48 29h1M26 30h16M48 30h2M5 31h3M26 31h1M34 31h8M49 31h1M3 32h6M25 32h1M35 32h7M49 32h1M3 33h7M15 33h1M25 33h1M34 33h1M36 33h6M49 33h1M4 34h8M15 34h2M25 34h1M34 34h2M37 34h5M49 34h2M6 35h7M15 35h3M25 35h1M34 35h3M38 35h4M50 35h1M8 36h11M25 36h2M34 36h3M38 36h5M50 36h1M9 37h5M16 37h4M25 37h2M34 37h4M39 37h4M50 37h2M11 38h2M17 38h3M25 38h2M28 38h1M34 38h5M40 38h3M51 38h1M18 39h2M21 39h1M24 39h4M35 39h4M40 39h3M51 39h1M19 40h1M21 40h1M24 40h5M36 40h4M41 40h2M11 41h2M20 41h2M24 41h6M37 41h3M41 41h1M46 41h7M12 42h4M19 42h3M24 42h8M38 42h2M41 42h1M48 42h3M53 42h2M1 43h4M13 43h6M20 43h1M24 43h9M39 43h1M41 43h1M51 43h5M2 44h7M12 44h7M20 44h1M24 44h10M40 44h1M48 44h2M51 44h6M2 45h10M16 45h3M20 45h1M23 45h6M33 45h2M46 45h5M52 45h4M3 46h9M19 46h3M23 46h5M30 46h3M46 46h6M53 46h2M19 47h3M23 47h4M31 47h6M40 47h1M45 47h8M5 48h5M18 48h4M23 48h3M32 48h6M39 48h1M46 48h8M7 49h6M16 49h6M23 49h3M33 49h5M39 49h1M46 49h9" />
<path stroke="#b8d0e8" d="M34 16h1M36 16h1M34 17h2M37 17h1M33 18h3M38 18h1M33 19h4M39 19h1M32 20h5M40 20h1M32 21h6M41 21h1M31 22h8M43 22h1M30 23h9M44 23h1M30 24h10M45 24h1M29 25h11M46 25h1M28 26h13M47 26h1M2 27h1M21 27h3M28 27h13M2 28h2M8 28h2M21 28h5M27 28h15M2 29h3M7 29h4M21 29h5M2 30h4M7 30h5M20 30h6M2 31h3M8 31h5M20 31h6M2 32h1M9 32h5M20 32h5M33 32h1M10 33h5M19 33h6M27 33h1M32 33h2M12 34h3M19 34h6M27 34h2M31 34h3M13 35h2M19 35h6M27 35h7M20 36h5M28 36h6M21 37h4M28 37h6M21 38h4M3 39h3M22 39h2M4 40h6M22 40h2M5 41h6M22 41h2M6 42h6M22 42h2M5 43h8M21 43h3M9 44h3M21 44h3M21 45h2M56 45h2M22 46h1M29 46h1M55 46h5M22 47h1M28 47h3M54 47h7M4 48h1M22 48h1M27 48h5M55 48h7M3 49h4M22 49h1M27 49h6M56 49h7" />
<path stroke="#d8f8f8" d="M32 17h1M31 18h1M30 19h2M29 20h2M28 21h3M27 22h3M25 23h4M24 24h5M23 25h5M22 26h5M3 27h5M24 27h3M4 28h4M5 29h2M6 30h1M27 32h6M28 33h4M29 34h2M2 40h2M1 41h4M1 42h5" />
<path stroke="#181818" d="M49 28h1M49 29h1M50 31h1M50 32h1M50 33h1M51 35h1M51 36h1M52 38h1M52 39h1" />
<path stroke="#586078" d="M53 41h1M51 42h2M49 43h2M47 44h1M50 44h1M51 45h1M45 46h1M52 46h1M44 47h1M53 47h1M43 48h1M54 48h1M42 49h1M55 49h1" />
</svg>