<svg xmlns="http://www.w3.org/2000/svg" viewBox="0 -0.5 64 64" shape-rendering="crispEdges">
<metadata>Made with Pixels to Svg https://codepen.io/shshaw/pen/XbxvNj</metadata>
<path stroke="#f85848" d="M52 9h2M51 10h1M54 10h1M50 11h1M10 12h2M49 12h1M9 13h1M48 13h1M9 14h1M30 14h3M47 14h1M9 15h1M28 15h2M46 15h1M27 16h1M44 17h1M10 18h1M33 20h1M28 21h1M33 21h1M50 21h1M50 22h1M24 23h1M49 23h1M48 24h1M48 25h1M47 26h1M46 27h2M45 28h2M44 29h3M43 30h2M45 31h1M43 32h3M15 33h1M44 33h3M14 34h1M47 36h1M13 39h1M48 40h1M49 44h1M49 45h1M49 46h1M46 47h1M49 47h1M54 50h1M54 51h1M43 52h3M53 52h2M43 53h1M46 53h3M51 53h3M41 54h5M49 54h3M38 55h10" />
<path stroke="#f8e8c0" d="M52 10h2M51 11h3M50 12h3M10 13h2M49 13h4M10 14h3M48 14h4M10 15h2M30 15h3M47 15h4M10 16h1M29 16h4M46 16h4M10 17h1M29 17h3M46 17h3M45 18h3M44 19h2M23 25h4M21 26h7M20 27h8M20 28h8M19 29h8M28 29h1M19 30h9M19 31h8M28 31h1M19 32h7M27 32h1M20 33h1M22 33h1M24 33h1M26 33h1M21 34h1M23 34h1M25 34h1" />
<path stroke="#993300" d="M54 11h1M54 12h1M12 13h1M54 13h1M13 14h1M33 14h1M54 14h1M14 15h1M34 15h2M53 15h1M9 16h1M15 16h1M45 16h1M53 16h1M9 17h1M27 17h1M53 17h1M26 18h1M44 18h1M52 18h1M10 19h1M26 19h1M43 19h1M10 20h1M26 20h1M42 20h1M11 21h1M27 21h1M29 21h4M41 21h1M51 21h1M11 22h1M25 22h3M33 22h1M40 22h1M12 23h1M23 23h1M39 23h1M12 24h1M21 24h2M38 24h1M49 24h1M13 25h1M20 25h1M36 25h2M13 26h1M48 26h1M14 27h1M18 27h1M15 28h1M17 28h1M16 29h1M16 30h1M45 30h1M15 31h1M42 31h3M46 31h1M15 32h1M46 32h1M14 35h1M47 35h1M14 36h1M14 37h1M14 38h1M48 39h1M13 40h1M49 43h1M47 47h2M49 48h4M53 49h2M12 50h1M55 50h1M11 53h1M44 53h1M48 55h1" />
<path stroke="#f8c0a8" d="M53 12h1M53 13h1M52 14h2M12 15h2M33 15h1M51 15h2M11 16h4M28 16h1M33 16h3M50 16h3M11 17h5M28 17h1M32 17h5M45 17h1M49 17h4M11 18h6M27 18h10M48 18h3M11 19h7M27 19h6M34 19h3M46 19h4M11 20h6M27 20h5M34 20h2M43 20h6M12 21h4M34 21h1M42 21h6M12 22h4M29 22h3M41 22h6M13 23h3M25 23h9M40 23h6M13 24h3M23 24h13M39 24h6M14 25h2M21 25h2M27 25h9M38 25h6M14 26h2M20 26h1M28 26h15M15 27h2M19 27h1M28 27h10M40 27h2M16 28h1M18 28h2M28 28h10M17 29h2M27 29h1M29 29h10M17 30h2M28 30h11M16 31h3M27 31h1M29 31h10M16 32h3M26 32h1M28 32h10M16 33h4M21 33h1M23 33h1M25 33h1M27 33h11M15 34h6M22 34h1M24 34h1M26 34h11M38 34h1M15 35h23M15 36h22M38 36h1M15 37h21M37 37h1M15 38h22M14 39h22M37 39h1M14 40h21M36 40h1M15 41h19M35 41h1M16 42h17M34 42h1M15 43h1M17 43h13M31 43h1M33 43h1M16 44h1M18 44h1M20 44h7M28 44h1M30 44h1M32 44h1M17 45h1M19 45h1M21 45h1M23 45h1M25 45h1M27 45h1M29 45h1M20 46h1M22 46h1M24 46h1M26 46h1M52 50h2M50 51h4M50 52h2" />
<path stroke="#101010" d="M36 16h1M16 17h1M37 17h1M17 18h1M38 18h1M18 19h1M38 19h1M52 19h1M19 20h1M39 20h1M52 20h1M19 21h1M39 21h1M20 22h1M34 22h2M39 22h1M51 22h1M20 23h1M36 23h2M50 23h1M49 25h1M48 27h1M47 28h1M47 29h1M46 30h1M47 33h1M47 34h1M48 36h1M48 37h1M48 38h1M49 40h1M13 41h1M49 41h1M13 42h1M49 42h1M13 43h1M13 44h1M50 44h1M13 45h1M50 45h1M13 46h1M50 46h1M12 47h1M50 47h1M12 48h1M12 49h1M11 51h1M55 51h1M11 52h1M55 52h1M45 53h1M54 53h1M10 54h1M46 54h3M52 54h2M10 55h1M49 55h3" />
<path stroke="#f89880" d="M37 18h1M51 18h1M33 19h1M37 19h1M50 19h2M17 20h2M32 20h1M36 20h3M49 20h3M16 21h3M35 21h4M48 21h2M16 22h4M28 22h1M32 22h1M36 22h3M47 22h3M16 23h4M34 23h2M38 23h1M46 23h3M16 24h5M36 24h2M45 24h3M16 25h4M44 25h4M16 26h4M43 26h4M17 27h1M38 27h2M42 27h4M38 28h7M39 29h5M39 30h4M39 31h3M38 32h5M38 33h6M37 34h1M39 34h8M38 35h9M37 36h1M39 36h8M36 37h1M38 37h10M37 38h11M36 39h1M38 39h10M35 40h1M37 40h11M14 41h1M34 41h1M36 41h13M14 42h2M33 42h1M35 42h14M14 43h1M16 43h1M30 43h1M32 43h1M34 43h15M14 44h2M17 44h1M19 44h1M27 44h1M29 44h1M31 44h1M33 44h16M14 45h3M18 45h1M20 45h1M22 45h1M24 45h1M26 45h1M28 45h1M30 45h19M14 46h6M21 46h1M23 46h1M25 46h1M27 46h22M13 47h33M13 48h36M13 49h40M13 50h39M12 51h38M12 52h31M46 52h4M52 52h1M12 53h31M49 53h2M11 54h30M11 55h27" />
</svg>