<svg xmlns="http://www.w3.org/2000/svg" viewBox="0 -0.5 64 64" shape-rendering="crispEdges">
<metadata>Made with Pixels to Svg https://codepen.io/shshaw/pen/XbxvNj</metadata>
<path stroke="#993300" d="M15 11h2M14 12h1M16 12h1M13 13h1M16 13h1M12 14h1M15 14h1M12 15h1M15 15h1M11 16h1M11 17h1M10 18h1M10 19h1M10 20h1M9 21h1M16 22h1M10 26h1M11 29h1M12 31h2M15 31h1M11 33h2M10 34h1M51 34h1M9 35h1M52 35h2M9 36h1M54 36h1M8 37h1M55 37h1M8 38h1M54 40h1" />
<path stroke="#f87000" d="M15 12h1M15 13h1M14 14h1M14 15h1M13 16h2M13 17h2M12 18h3M35 18h2M12 19h3M37 19h1M12 20h3M11 21h3M11 22h2M11 23h2M11 24h2M10 25h3M11 26h2M11 27h2M11 28h3M12 29h2M12 30h2M15 32h2M14 33h1M16 33h1M12 34h2M15 34h2M10 35h3M14 35h1M16 35h2M51 35h1M11 36h3M15 36h3M50 36h4M12 37h1M49 37h1M51 37h1M54 37h1M50 38h4M53 39h2M40 41h2M36 42h3M40 42h3M36 43h2M39 43h1M41 43h1M43 43h1M37 44h2M40 44h1M42 44h1M38 45h7M39 46h6M40 47h3" />
<path stroke="#f8c050" d="M14 13h1M13 14h1M13 15h1M12 16h1M12 17h1M11 18h1M11 19h1M11 20h1M10 21h1M10 22h1M10 23h1M10 24h1M13 33h1M15 33h1M11 34h1M14 34h1M13 35h1M15 35h1M14 36h1M50 37h1M52 37h2M54 38h1M39 42h1M38 43h1M40 43h1M42 43h1M39 44h1M41 44h1M43 44h1" />
<path stroke="#663300" d="M30 14h2M25 15h4M36 15h1M23 16h2M30 16h2M40 16h1M21 17h2M32 17h2M20 18h1M33 18h2M37 18h1M31 19h2M28 20h1M39 20h1M18 21h1M26 21h1M46 21h1M24 22h1M47 22h1M23 23h1M48 23h1M23 24h1M40 24h1M48 24h1M22 25h1M49 25h1M22 26h1M41 26h1M20 34h1M23 35h1M24 36h1M27 38h1M34 38h1" />
<path stroke="#101010" d="M32 14h4M37 15h3M15 16h1M41 16h1M15 17h1M34 17h3M42 17h1M15 18h1M38 18h1M43 18h1M15 19h1M19 19h1M29 19h2M33 19h3M39 19h1M41 19h3M15 20h1M18 20h1M27 20h1M36 20h2M40 20h1M44 20h2M16 21h1M25 21h1M38 21h3M9 22h1M17 22h1M39 22h1M9 23h1M17 23h1M40 23h1M9 24h1M16 24h1M9 25h1M16 25h1M41 25h1M16 26h1M49 26h1M10 27h1M16 27h1M21 27h1M42 27h1M50 27h1M10 28h1M16 28h1M21 28h1M42 28h1M50 28h1M16 29h1M21 29h1M42 29h1M50 29h1M11 30h1M17 30h1M21 30h1M42 30h1M50 30h1M16 31h2M21 31h1M42 31h1M50 31h1M12 32h3M18 32h1M22 32h1M42 32h1M50 32h1M18 33h1M22 33h1M41 33h1M49 33h1M19 34h1M22 34h1M41 34h1M49 34h2M20 35h3M40 35h1M48 35h1M22 36h2M39 36h1M48 36h1M13 37h6M24 37h2M37 37h2M47 37h1M10 38h3M19 38h3M26 38h1M35 38h2M45 38h5M55 38h1M8 39h2M22 39h12M37 39h2M43 39h2M50 39h3M55 39h1M29 40h1M39 40h5M53 40h1M11 41h1M30 41h2M42 41h1M54 41h1M11 42h1M32 42h2M43 42h1M45 42h1M11 43h1M34 43h2M44 43h1M52 43h1M12 44h1M36 44h1M44 44h1M52 44h1M15 45h3M37 45h1M45 45h1M52 45h1M17 46h1M38 46h1M45 46h1M51 46h1M17 47h1M39 47h1M45 47h1M48 47h2M40 48h1M45 48h2M40 49h1M44 49h1M18 50h1M41 50h1M44 50h1M19 51h1M42 51h1M44 51h1M20 52h1M42 52h2M21 53h2M42 53h1" />
<path stroke="#805010" d="M29 15h1M39 16h1M38 17h4M39 18h4M40 19h1M17 27h1M17 28h1M17 29h3M22 29h1M18 30h3M22 30h2M49 30h1M18 31h3M22 31h3M48 31h2M19 32h3M23 32h3M41 32h1M46 32h4M19 33h3M23 33h5M40 33h1M42 33h2M46 33h3M21 34h1M23 34h8M39 34h2M42 34h2M46 34h3M24 35h10M38 35h2M41 35h7M25 36h14M40 36h8M26 37h11M39 37h8M28 38h6M37 38h8M39 39h4" />
<path stroke="#a07030" d="M30 15h6M25 16h5M32 16h7M23 17h1M27 17h5M37 17h1M21 18h2M28 18h5M20 19h3M28 19h1M19 20h5M25 20h1M29 20h7M41 20h3M19 21h6M27 21h2M33 21h5M41 21h5M18 22h6M25 22h3M34 22h1M37 22h2M40 22h7M20 23h3M24 23h4M34 23h1M37 23h3M41 23h2M46 23h2M21 24h2M24 24h4M34 24h6M41 24h1M47 24h1M17 25h1M20 25h2M23 25h6M33 25h1M35 25h6M47 25h2M17 26h5M23 26h8M32 26h1M34 26h7M42 26h1M46 26h1M48 26h1M18 27h3M22 27h3M27 27h5M33 27h9M43 27h1M45 27h1M47 27h3M18 28h3M22 28h2M28 28h14M44 28h1M46 28h4M20 29h1M23 29h1M29 29h9M39 29h3M43 29h1M45 29h3M49 29h1M24 30h1M29 30h13M43 30h5M25 31h1M28 31h14M43 31h5M26 32h9M37 32h4M43 32h3M28 33h6M38 33h2M31 34h3M38 34h1M34 35h1M37 35h1" />
<path stroke="#cc9966" d="M24 17h3M23 18h5M23 19h5M24 20h1M26 20h1M29 21h4M28 22h6M28 23h6M43 23h3M28 24h6M42 24h5M29 25h4M34 25h1M42 25h5M31 26h1M33 26h1M43 26h3M47 26h1M32 27h1M44 27h1M46 27h1M43 28h1M45 28h1M38 29h1M44 29h1" />
<path stroke="#e84800" d="M36 19h1M38 19h1M38 20h1M14 21h2M13 22h3M13 23h4M13 24h3M13 25h3M13 26h3M13 27h3M14 28h2M14 29h2M14 30h3M14 31h1M17 32h1M17 33h1M17 34h2M18 35h2M49 35h2M10 36h1M18 36h4M49 36h1M9 37h3M19 37h5M48 37h1M9 38h1M22 38h4M34 39h3M30 40h9M32 41h8M34 42h2M43 47h2M41 48h4M41 49h3M42 50h2M43 51h1" />
<path stroke="#f0f0f0" d="M35 22h2M18 23h1M35 23h1M18 24h2M25 27h1M24 28h4M25 29h3M48 29h1M25 30h4M48 30h1M27 31h1M36 32h1M34 33h4M45 33h1M35 34h2M44 34h2M36 35h1" />
<path stroke="#cccccc" d="M19 23h1M36 23h1M17 24h1M20 24h1M18 25h2M26 27h1M24 29h1M28 29h1M26 31h1M35 32h1M44 33h1M34 34h1M37 34h1M35 35h1" />
<path stroke="#103058" d="M12 39h3M18 39h1M11 40h1M15 40h3M48 40h3M47 41h1M51 41h1M46 42h1M52 42h1M13 44h1M14 45h1M50 46h1M47 47h1M17 48h1M18 49h1" />
<path stroke="#7090a0" d="M19 39h3M12 40h2M19 40h4M12 41h5M18 41h6M48 41h3M13 42h13M47 42h5M15 43h15M46 43h5M18 44h11M30 44h1M32 44h1M34 44h1M47 44h3M18 45h12M31 45h1M33 45h1M35 45h1M18 46h13M32 46h1M34 46h1M36 46h1M18 47h14M33 47h1M35 47h1M37 47h1M19 48h12M32 48h1M34 48h1M36 48h1M38 48h1M19 49h13M33 49h1M35 49h1M37 49h1M20 50h11M32 50h1M34 50h1M20 51h10M22 52h6M23 53h3" />
<path stroke="#486878" d="M14 40h1M18 40h1M23 40h6M17 41h1M24 41h6M12 42h1M26 42h6M12 43h3M30 43h4M45 43h1M51 43h1M14 44h4M29 44h1M31 44h1M33 44h1M35 44h1M45 44h2M50 44h2M30 45h1M32 45h1M34 45h1M36 45h1M46 45h6M31 46h1M33 46h1M35 46h1M37 46h1M46 46h4M32 47h1M34 47h1M36 47h1M38 47h1M46 47h1M18 48h1M31 48h1M33 48h1M35 48h1M37 48h1M39 48h1M32 49h1M34 49h1M36 49h1M38 49h2M19 50h1M31 50h1M33 50h1M35 50h6M30 51h12M21 52h1M28 52h14M26 53h16" />
</svg>