<svg xmlns="http://www.w3.org/2000/svg" viewBox="0 -0.5 64 64" shape-rendering="crispEdges">
<metadata>Made with Pixels to Svg https://codepen.io/shshaw/pen/XbxvNj</metadata>
<path stroke="#706020" d="M30 9h2M42 9h1M32 10h1M41 10h1M31 11h1M34 11h1M41 11h1M36 12h1M41 12h1M32 13h1M38 13h1M41 13h1M45 13h1M31 14h2M40 14h2M30 15h1M33 15h1M46 15h1M30 16h2M28 17h1M26 18h1M46 18h1M25 19h1M42 19h2M40 20h2M27 21h1M29 21h1M38 21h2M30 22h2M37 22h1M32 23h1M36 23h1M35 24h1M33 25h1M35 25h1M22 33h3M18 34h2M25 34h1M16 35h1M27 35h1M14 36h1M13 39h1M50 39h1M12 40h1M32 40h1M50 40h1M11 41h1M51 41h1M11 42h1M52 42h1M10 43h1M23 46h1M11 47h1M22 47h1M54 47h1M11 48h1M13 48h1M21 48h1M52 49h1M16 50h1M21 54h1M28 54h1M22 55h1M27 55h1" />
<path stroke="#b0a068" d="M30 10h1M31 12h1M46 16h1M29 17h1M46 17h1M27 18h1M44 18h2M31 23h1M33 23h2M32 24h3M34 25h1M21 33h1M20 34h1M17 35h1M15 36h1M13 37h1M12 38h1M33 43h1M33 44h1M24 45h1M33 45h1M11 46h1M24 46h2M33 46h1M23 47h3M32 47h2M22 48h4M32 48h1M52 48h1M22 49h3M31 49h2M21 50h4M30 50h2M50 50h1M52 50h1M20 51h3M28 51h4M50 51h1M18 52h13M50 52h2M20 53h10M50 53h1M22 54h6M49 54h2M49 55h1" />
<path stroke="#f8f0b0" d="M31 10h1M42 10h1M32 11h2M42 11h1M32 12h4M42 12h1M33 13h5M42 13h2M33 14h7M42 14h2M31 15h2M34 15h6M42 15h2M32 16h9M43 16h1M30 17h11M28 18h5M26 19h9M28 20h8M33 21h1M21 34h4M18 35h9M16 36h13M14 37h16M13 38h2M16 38h15M15 39h17M49 39h1M13 40h19M49 40h1M12 41h21M49 41h2M12 42h2M15 42h18M49 42h3M11 43h1M14 43h9M26 43h6M50 43h2M14 44h8M26 44h5M50 44h3M13 45h7M27 45h4M51 45h3M12 46h7M27 46h3M51 46h2M12 47h6M28 47h1M52 47h2M12 48h1M14 48h3M53 48h1" />
<path stroke="#101010" d="M33 10h1M43 10h1M35 11h1M44 11h1M37 12h1M45 12h1M39 13h1M46 14h1M47 16h1M47 17h1M26 20h2M28 21h1M29 22h1M30 23h1M53 23h1M31 24h1M53 24h1M32 25h1M53 25h1M26 26h1M34 26h1M52 26h1M27 27h1M51 27h1M50 28h1M27 29h1M49 29h1M27 30h1M48 30h1M52 30h2M28 31h1M53 31h1M28 32h1M53 32h1M26 34h1M29 34h1M52 34h1M28 35h2M29 36h1M51 36h1M30 37h1M39 37h2M50 37h1M31 38h1M37 38h5M49 38h1M32 39h1M35 39h8M39 40h5M48 40h1M33 41h1M40 41h3M44 41h1M48 41h1M33 42h1M37 42h1M42 42h1M13 43h1M34 43h1M37 43h3M43 43h1M49 43h1M52 43h1M11 44h2M34 44h8M53 44h1M12 45h1M34 45h8M54 45h1M34 46h8M50 46h1M53 46h1M34 47h1M40 47h2M50 47h1M33 48h1M40 48h1M42 48h1M50 48h1M54 48h1M12 49h2M21 49h1M33 49h4M54 49h1M14 50h1M20 50h1M32 50h6M53 50h1M15 51h2M18 51h2M32 51h8M46 51h1M49 51h1M52 51h1M17 52h1M31 52h10M46 52h1M49 52h1M52 52h1M18 53h2M30 53h1M37 53h2M46 53h1M51 53h1M20 54h1M29 54h1M38 54h1M51 54h1M23 55h4M45 55h1M50 55h1" />
<path stroke="#e0d090" d="M43 11h1M43 12h2M44 13h1M44 14h2M40 15h2M44 15h2M41 16h2M44 16h2M41 17h5M33 18h11M35 19h7M36 20h4M30 21h3M34 21h4M32 22h5M35 23h1M15 38h1M14 39h1M14 42h1M12 43h1M23 43h3M32 43h1M13 44h1M22 44h4M31 44h2M20 45h4M25 45h2M31 45h2M19 46h4M26 46h1M30 46h3M18 47h4M26 47h2M29 47h3M51 47h1M17 48h4M26 48h6M51 48h1M14 49h7M25 49h6M51 49h1M53 49h1M15 50h1M17 50h3M25 50h5M51 50h1M17 51h1M23 51h5M51 51h1" />
<path stroke="#e8a040" d="M44 19h2M42 20h3M48 20h1M40 21h4M38 22h6M51 22h1M37 23h7M36 24h10M50 24h2M26 25h3M36 25h15M27 26h2M33 26h1M35 26h15M32 27h16M31 28h14M51 28h1M28 29h18M50 29h2M28 30h18M50 30h2M29 31h18M49 31h3M29 32h22M30 33h21M30 34h20M36 35h13M39 36h10M41 37h7M43 38h4M44 39h3M44 40h3M37 41h2M43 41h1M45 41h2M38 42h3M44 42h3M40 43h3M44 43h3M42 44h5M43 45h3M42 46h4M35 47h4M43 47h3M34 48h6M41 48h1M43 48h3M37 49h8M39 50h6M41 51h4M41 52h3M31 53h5M40 53h1M42 53h2M19 54h1M32 54h6M39 54h1M41 54h2M19 55h3M33 55h9" />
<path stroke="#993300" d="M46 19h3M45 20h1M49 20h1M44 21h1M50 21h2M26 22h1M44 22h1M52 22h1M26 23h1M25 24h1M29 24h1M25 25h1M29 25h1M28 27h1M28 28h1M45 28h1M52 28h1M46 29h1M53 29h1M47 30h1M29 33h1M52 33h1M51 35h1M42 38h1M43 39h1M48 39h1M41 42h1M43 42h1M48 42h1M49 44h1M42 45h1M50 45h1M39 47h1M42 47h1M45 49h1M50 49h1M38 50h1M46 50h1M49 50h1M40 51h1M36 53h1M39 53h1M41 53h1M49 53h1M18 54h1M40 54h1M45 54h1M48 54h1M18 55h1M48 55h1" />
<path stroke="#f8c050" d="M46 20h2M45 21h5M27 22h2M45 22h6M27 23h3M44 23h8M26 24h3M30 24h1M46 24h4M30 25h2M29 26h4M29 27h3M29 28h2M33 39h2M33 40h6M34 41h3M39 41h1" />
<path stroke="#c07810" d="M52 23h1M52 24h1M51 25h2M50 26h2M48 27h3M46 28h4M47 29h2M46 30h1M49 30h1M47 31h2M52 31h1M51 32h2M51 33h1M50 34h2M49 35h2M49 36h2M48 37h2M47 38h2M47 39h1M47 40h1M47 41h1M47 42h1M47 43h2M47 44h2M46 45h4M46 46h4M46 47h4M46 48h4M46 49h4M45 50h1M47 50h2M45 51h1M47 51h2M44 52h2M47 52h2M44 53h2M47 53h2M30 54h2M43 54h2M46 54h2M28 55h5M42 55h3M46 55h2" />
<path stroke="#f8f8f0" d="M52 29h1" />
<path stroke="#505050" d="M30 35h6M30 36h9M31 37h8M32 38h5M34 42h3M35 43h2" />
</svg>