<svg xmlns="http://www.w3.org/2000/svg" viewBox="0 -0.5 64 64" shape-rendering="crispEdges">
<metadata>Made with Pixels to Svg https://codepen.io/shshaw/pen/XbxvNj</metadata>
<path stroke="#707830" d="M38 12h1M43 12h1M37 13h1M46 13h1M36 15h1M38 15h1M38 16h1M46 16h1M48 16h1M35 17h1M45 17h1M47 17h1M35 18h1M44 18h1M46 18h1M48 18h1M36 19h1M45 19h1M47 19h3M46 20h5M47 21h4M42 22h1M48 22h3M40 23h3M48 23h3M42 24h1M47 24h1M49 24h3M47 25h1M49 25h3M27 26h2M33 26h1M47 26h1M49 26h4M22 27h1M26 27h1M46 27h2M49 27h4M20 28h2M26 28h1M46 28h7M19 29h1M26 29h1M32 29h2M37 29h3M49 29h5M19 30h1M31 30h2M36 30h1M38 30h3M49 30h5M19 31h1M30 31h3M37 31h1M39 31h2M48 31h6M18 32h1M23 32h1M30 32h3M36 32h1M38 32h1M42 32h2M47 32h6M18 33h1M24 33h1M28 33h3M37 33h1M42 33h1M45 33h7M24 34h8M41 34h11M24 35h6M40 35h10M15 36h1M25 36h5M39 36h9M18 37h1M24 37h1M26 37h3M39 37h7M14 38h1M17 38h1M19 38h1M23 38h1M25 38h4M41 38h3M18 39h1M22 39h1M24 39h4M39 39h1M44 39h1M17 40h1M19 40h1M21 40h1M23 40h3M40 40h1M42 40h1M44 40h1M15 41h1M18 41h1M20 41h4M39 41h1M41 41h1M43 41h2M21 42h1M38 42h1M40 42h1M42 42h3M37 43h1M39 43h1M41 43h3M16 44h2M38 44h1M40 44h4M16 45h3M22 45h5M37 45h1M39 45h5M16 46h1M18 46h8M27 46h2M35 46h2M38 46h5M16 47h1M18 47h3M22 47h4M27 47h16M12 48h1M16 48h2M19 48h3M23 48h3M27 48h16M16 49h2M19 49h3M23 49h4M28 49h14M10 50h1M15 50h4M21 50h2M24 50h1M26 50h1M29 50h12M13 51h5M20 51h1M22 51h2M25 51h1M27 51h1M29 51h11M9 52h7M19 52h1M21 52h1M24 52h1M26 52h1M28 52h1M32 52h1M34 52h1M36 52h1" />
<path stroke="#404810" d="M39 12h4M44 13h2M37 14h1M47 14h1M36 16h1M38 17h1M49 17h1M37 18h1M35 19h1M50 19h1M44 20h2M51 20h1M47 23h1M51 23h1M38 24h1M42 25h1M52 25h1M29 26h4M36 26h2M43 26h1M23 27h3M34 27h2M38 27h1M48 27h1M32 28h2M53 28h1M46 29h1M54 29h1M25 30h1M45 30h1M24 31h1M39 32h1M23 33h1M31 33h1M17 34h1M23 34h1M16 35h1M30 35h1M50 35h1M30 36h1M15 37h1M29 37h1M38 37h1M18 38h1M40 38h1M14 39h1M17 39h1M19 39h1M40 39h1M14 40h1M18 40h1M20 40h1M26 40h1M39 40h1M41 40h1M43 40h1M19 41h1M24 41h1M40 41h1M42 41h1M15 42h1M20 42h1M22 42h1M45 42h1M16 43h1M44 43h1M17 46h1M26 46h1M14 47h1M17 47h1M21 47h1M26 47h1M13 48h1M18 48h1M22 48h1M11 49h1M18 49h1M19 50h2M25 50h1M28 50h1M10 51h1M19 51h1M21 51h1M24 51h1M26 51h1M28 51h1M20 52h1M22 52h2M25 52h1M27 52h1M29 52h3M33 52h1M35 52h1M37 52h3" />
<path stroke="#c8d080" d="M38 13h3M42 13h1M38 14h4M43 14h1M39 15h2M42 15h1M41 16h1M37 19h1M36 20h3M36 21h3M37 22h1M27 27h1M29 27h1M23 28h1M28 28h1M20 29h1M22 29h1M27 29h1M29 29h1M21 30h1M20 31h1M22 31h1M19 32h1M21 32h1M15 38h1M15 40h1" />
<path stroke="#a8b060" d="M41 13h1M43 13h1M42 14h1M44 14h3M37 15h1M41 15h1M43 15h5M37 16h1M39 16h2M42 16h4M47 16h1M36 17h2M39 17h6M46 17h1M48 17h1M36 18h1M38 18h6M45 18h1M47 18h1M49 18h1M38 19h7M46 19h1M39 20h5M39 21h7M38 22h4M43 22h4M38 23h2M43 23h4M43 24h4M43 25h4M44 26h3M28 27h1M30 27h4M36 27h2M44 27h2M22 28h1M24 28h2M27 28h1M29 28h3M34 28h5M21 29h1M23 29h3M28 29h1M30 29h2M34 29h3M48 29h1M20 30h1M22 30h3M26 30h5M33 30h3M37 30h1M46 30h1M48 30h1M21 31h1M23 31h1M25 31h5M33 31h4M38 31h1M45 31h3M20 32h1M22 32h1M24 32h6M33 32h3M37 32h1M40 32h2M44 32h3M19 33h4M25 33h3M32 33h5M38 33h4M43 33h2M18 34h5M32 34h9M17 35h7M31 35h9M16 36h9M31 36h8M16 37h2M19 37h5M25 37h1M30 37h8M16 38h1M20 38h3M24 38h1M30 38h9M15 39h2M20 39h2M23 39h1M29 39h10M16 40h1M22 40h1M28 40h11M16 41h2M26 41h13M16 42h4M24 42h14M39 42h1M41 42h1M17 43h20M38 43h1M40 43h1M18 44h20M39 44h1M19 45h3M27 45h10M38 45h1M15 46h1M29 46h6M37 46h1M15 47h1M14 48h2M12 49h4M11 50h4M11 51h2" />
<path stroke="#101010" d="M48 15h1M49 16h1M50 18h1M35 20h1M35 21h1M46 21h1M51 21h1M36 22h1M47 22h1M51 22h1M37 23h1M39 24h3M48 24h1M52 24h1M48 25h1M48 26h1M53 26h1M43 27h1M53 27h1M39 28h1M44 28h2M40 29h1M47 29h1M41 30h1M47 30h1M54 30h1M41 31h4M54 31h1M53 32h1M52 33h1M52 34h1M51 35h1M48 36h2M46 37h2M29 38h1M39 38h1M44 38h2M28 39h1M41 39h3M45 39h1M27 40h1M45 40h1M25 41h1M45 41h1M23 42h1M15 44h1M44 44h1M15 45h1M44 45h1M14 46h1M43 46h1M43 47h1M26 48h1M43 48h1M22 49h1M27 49h1M42 49h1M23 50h1M27 50h1M41 50h1M18 51h1M40 51h1M16 52h3" />
</svg>