<svg xmlns="http://www.w3.org/2000/svg" viewBox="0 -0.5 64 64" shape-rendering="crispEdges">
<metadata>Made with Pixels to Svg https://codepen.io/shshaw/pen/XbxvNj</metadata>
<path stroke="#101010" d="M27 11h2M24 12h2M30 12h1M23 13h1M29 13h3M23 14h2M27 14h2M31 14h2M23 15h1M25 15h3M31 15h1M34 15h1M27 16h1M32 16h1M27 17h1M32 17h1M35 17h1M32 18h1M35 18h1M35 19h1M47 19h1M35 20h1M46 20h1M35 21h1M45 21h1M53 21h1M35 22h1M45 22h1M52 22h1M35 23h1M50 23h2M53 23h1M35 24h1M39 24h1M49 24h1M54 24h1M27 25h1M35 25h1M48 25h1M55 25h1M23 26h1M35 26h1M55 26h1M17 27h1M23 27h1M28 27h1M53 27h2M15 28h2M23 28h1M29 28h1M36 28h1M51 28h2M16 29h1M29 29h1M36 29h1M50 29h1M16 30h1M29 30h2M50 30h1M24 31h1M28 31h1M50 31h1M24 32h1M28 32h1M31 32h1M37 32h1M51 32h1M24 33h1M32 33h1M37 33h1M49 33h1M51 33h1M33 34h1M48 34h3M27 35h1M33 35h1M38 35h1M48 35h1M50 35h1M52 35h1M11 36h1M27 36h1M34 36h1M38 36h1M48 36h2M52 36h1M11 37h1M34 37h1M39 37h1M48 37h2M35 38h1M39 38h1M48 38h2M28 39h1M35 39h1M40 39h1M27 40h2M36 40h1M40 40h1M36 41h1M41 41h1M49 41h2M14 42h1M29 42h1M37 42h1M41 42h1M48 42h1M51 42h1M29 43h1M38 43h1M42 43h1M45 43h3M51 43h1M38 44h1M42 44h1M44 44h1M39 45h1M43 45h2M10 46h1M39 46h1M43 46h1M45 46h1M11 47h1M40 47h1M44 47h1M46 47h1M12 48h1M34 48h2M40 48h1M44 48h1M47 48h1M54 48h1M13 49h1M36 49h4M41 49h1M45 49h1M48 49h1M40 50h3M46 50h2M49 50h2M55 50h1M11 51h1M23 51h1M43 51h4M48 51h1M51 51h1M55 51h1M12 52h1M22 52h1M26 52h1M47 52h6M14 53h2M22 53h1M25 53h1M53 53h1" />
<path stroke="#009820" d="M29 11h1M26 12h4M24 13h5M25 14h2M33 14h1M32 15h2M23 16h1M33 16h3M24 17h1M28 17h1M33 17h2M24 18h1M28 18h1M34 18h1M24 19h1M28 19h1M33 19h1M25 20h1M29 20h1M33 20h1M25 21h1M29 21h1M33 21h1M26 22h1M30 22h1M33 22h1M26 23h1M27 24h1M28 26h1M36 27h1M30 29h1M36 30h1M31 31h1M37 31h1M37 34h1" />
<path stroke="#40d840" d="M29 14h2M24 15h1M29 15h1M25 16h2M28 16h1M30 16h2M26 17h1M29 17h1M31 17h1M25 18h3M30 18h2M33 18h1M26 19h2M29 19h1M31 19h2M34 19h1M27 20h2M30 20h3M34 20h1M26 21h3M30 21h3M34 21h1M27 22h3M31 22h2M34 22h1M27 23h8M28 24h7M28 25h7M29 26h6M29 27h7M30 28h6M31 29h5M31 30h5M32 31h5M32 32h5M33 33h2M36 33h1M35 34h1M34 35h1M36 35h1" />
<path stroke="#e0e0a0" d="M28 15h1M30 15h1M24 16h1M29 16h1M25 17h1M30 17h1M29 18h1M25 19h1M30 19h1M26 20h1" />
<path stroke="#806020" d="M42 17h2M48 17h2M41 18h1M47 18h1M41 19h1M40 20h1M52 21h1M51 22h1M20 23h2M19 24h1M54 25h1M52 26h3M51 27h2M49 28h2M48 29h2M13 30h1M49 30h1M48 33h1M47 34h1M46 35h1M46 36h1M50 36h1M45 37h1M50 37h1M45 38h1M45 39h1M45 40h1M27 41h1M45 41h1M27 42h2M28 43h1M43 44h1M37 45h2M36 46h3M35 47h5M36 48h4M29 49h1M35 49h1M40 49h1M39 50h1M22 51h1M42 51h1M23 53h2M26 53h1" />
<path stroke="#604000" d="M44 17h2M46 18h1M50 18h2M52 19h1M53 20h1M40 21h1M40 22h1M39 23h1M44 23h1M22 24h1M37 24h2M44 24h1M18 25h1M23 25h1M36 25h1M39 25h1M43 25h1M17 26h1M47 26h1M46 27h1M14 28h1M13 29h1M23 29h1M12 30h1M24 30h1M48 30h1M12 31h1M16 31h1M49 31h1M51 31h1M11 32h1M16 32h1M50 32h1M11 33h1M17 33h1M28 33h1M52 33h1M10 34h1M17 34h1M24 34h1M27 34h1M52 34h1M10 35h1M17 35h1M25 35h1M18 36h1M25 36h1M10 37h1M18 37h1M25 37h1M27 37h1M52 37h1M10 38h1M12 38h1M19 38h1M26 38h1M28 38h1M51 38h1M9 39h1M12 39h1M19 39h1M26 39h1M51 39h1M9 40h1M13 40h1M20 40h1M50 40h1M8 41h1M13 41h1M28 41h2M8 42h1M8 43h1M15 43h1M30 43h1M8 44h2M16 44h1M29 44h1M9 45h1M17 45h1M28 45h1M10 47h1M10 48h1M31 48h3M10 49h1M14 49h1M24 49h1M30 49h1M11 50h1M15 50h2M23 50h1M13 52h1" />
<path stroke="#e0c078" d="M42 18h1M48 18h2M42 19h1M41 20h1M47 20h1M41 21h1M46 21h1M37 25h2M36 26h5M37 27h5M21 28h2M37 28h4M19 29h4M37 29h1M39 29h1M41 29h1M18 30h6M38 30h1M40 30h1M17 31h7M15 32h1M17 32h7M15 33h2M18 33h4M14 34h3M18 34h2M13 35h4M18 35h1M13 36h5M12 37h6M13 38h4M13 39h3M12 40h1M14 40h2M12 41h1M14 41h1M11 42h3M11 43h3M11 44h3M11 45h3M11 46h2M27 46h1M29 46h1M12 47h1M26 47h1M28 47h1M30 47h1M25 48h1M27 48h1M29 48h1M12 49h1M26 49h1M28 49h1M12 50h2M25 50h1M12 51h2M42 52h5M41 53h5M52 53h1" />
<path stroke="#b09050" d="M43 18h3M43 19h4M48 19h4M42 20h4M48 20h5M42 21h3M47 21h5M41 22h4M46 22h5M40 23h4M45 23h5M52 23h1M20 24h2M40 24h4M45 24h4M50 24h4M19 25h4M40 25h3M44 25h4M49 25h5M18 26h5M41 26h6M48 26h4M18 27h5M42 27h4M47 27h4M17 28h4M41 28h8M14 29h2M17 29h2M38 29h1M40 29h1M42 29h6M14 30h2M17 30h1M37 30h1M39 30h1M41 30h7M13 31h3M29 31h2M38 31h11M12 32h3M29 32h2M38 32h12M12 33h3M22 33h2M29 33h3M38 33h10M50 33h1M11 34h3M20 34h4M28 34h5M38 34h9M51 34h1M11 35h2M19 35h6M28 35h5M39 35h7M51 35h1M12 36h1M19 36h6M28 36h6M39 36h7M51 36h1M19 37h6M28 37h6M40 37h5M51 37h1M11 38h1M17 38h2M20 38h6M29 38h6M40 38h5M50 38h1M10 39h2M16 39h3M20 39h6M29 39h6M41 39h4M49 39h2M10 40h2M16 40h4M21 40h6M29 40h7M41 40h4M49 40h1M9 41h3M15 41h12M30 41h6M42 41h3M48 41h1M9 42h2M15 42h12M30 42h7M42 42h6M9 43h2M14 43h1M16 43h12M31 43h7M43 43h2M10 44h1M14 44h2M17 44h12M30 44h8M10 45h1M14 45h3M18 45h10M29 45h8M13 46h14M28 46h1M30 46h6M40 46h1M13 47h13M27 47h1M29 47h1M31 47h4M11 48h1M13 48h12M26 48h1M28 48h1M30 48h1M41 48h1M11 49h1M15 49h9M25 49h1M27 49h1M31 49h4M14 50h1M17 50h6M24 50h1M26 50h13M14 51h8M24 51h18M47 51h1M14 52h8M23 52h3M27 52h15M16 53h6M27 53h14M46 53h6" />
<path stroke="#c8f888" d="M35 33h1M34 34h1M36 34h1M35 35h1M37 35h1M35 36h3M35 37h4M36 38h3M36 39h4M37 40h3M37 41h4M38 42h3M39 43h3M39 44h3M40 45h3M41 46h2M41 47h3M42 48h2M42 49h3M43 50h3" />
<path stroke="#cccccc" d="M47 35h1" />
<path stroke="#f8f8f8" d="M49 35h1M47 36h1M46 37h2M46 38h2M46 39h3M46 40h3M46 41h2M51 45h1M51 46h2M51 47h2M52 48h2M53 49h1M53 50h2M54 51h1" />
<path stroke="#f8e068" d="M49 42h2M49 43h2M45 44h1M50 44h1M45 45h2M50 45h1M46 46h2M50 46h1M47 47h4M48 48h4M49 49h4M51 50h2M52 51h2M53 52h2" />
<path stroke="#e0a858" d="M48 43h1M46 44h4M47 45h3M48 46h2" />
<path stroke="#b86828" d="M51 44h1M52 45h1M44 46h1M53 46h1M45 47h1M53 47h1M45 48h2M46 49h2M54 49h1M48 50h1M49 51h2M55 52h1M54 53h1" />
</svg>