<svg xmlns="http://www.w3.org/2000/svg" viewBox="0 -0.5 32 32" shape-rendering="crispEdges">
<metadata>Made with Pixels to Svg https://codepen.io/shshaw/pen/XbxvNj</metadata>
<path stroke="#ffffff" d="M12 4h9M9 5h4M20 5h3M8 6h2M22 6h2M7 7h2M23 7h2M6 8h2M24 8h2M6 9h1M25 9h1M6 10h1M25 10h2M5 11h2M26 11h1M5 12h1M26 12h1M5 13h1M26 13h2M4 14h2M27 14h1M4 15h1M27 15h1M4 16h1M27 16h1M4 17h1M27 17h1M4 18h1M26 18h2M4 19h1M25 19h2M4 20h1M24 20h2M4 21h1M24 21h1M4 22h1M10 22h2M24 22h1M4 23h1M9 23h5M24 23h1M4 24h1M8 24h2M13 24h5M23 24h2M4 25h1M7 25h2M17 25h2M23 25h1M4 26h4M18 26h2M22 26h2M19 27h4" />
<path stroke="#202020" d="M13 5h7M10 6h3M20 6h2M9 7h1M22 7h1M8 8h1M23 8h1M7 9h1M24 9h1M7 10h1M24 10h1M7 11h1M25 11h1M6 12h1M25 12h1M6 13h1M25 13h1M6 14h1M26 14h1M5 15h1M26 15h1M5 16h1M26 16h1M5 17h1M26 17h1M5 18h1M25 18h1M5 19h1M24 19h1M5 20h1M23 20h1M5 21h1M10 21h2M23 21h1M5 22h1M9 22h1M12 22h2M23 22h1M5 23h1M8 23h1M14 23h4M23 23h1M5 24h1M7 24h1M18 24h1M22 24h1M5 25h2M19 25h1M22 25h1M20 26h2" />
<path stroke="#e6f6ee" d="M13 6h7M10 7h3M19 7h1M9 8h1M19 8h1M8 9h1M19 9h1M9 10h2M17 10h3M11 11h6M14 12h1M6 15h1M6 16h1M8 16h2M6 17h2" />
<path stroke="#ace6d5" d="M13 7h6M20 7h1M10 8h9M9 9h10M8 10h1M11 10h6M8 11h1M10 11h1M17 11h3M12 12h2M15 12h1M14 13h2M7 14h2M7 15h3M7 16h1M18 17h4M6 18h1M17 18h5M6 19h1M18 19h3M6 20h1M6 21h1M6 22h1M17 22h1M6 23h1M18 23h1M6 24h1M19 24h1M20 25h1" />
<path stroke="#5abdc5" d="M21 7h1M23 9h1M9 11h1M24 11h1M7 12h4M19 12h1M7 13h1M9 13h2M10 14h1M15 14h2M25 14h1M16 15h1M25 15h1M10 16h1M17 16h1M22 16h1M25 16h1M8 17h1M10 17h1M17 17h1M23 17h1M25 17h1M7 18h1M24 18h1M7 19h1M21 19h1M10 20h2M17 20h1M9 21h1M12 21h2M17 21h1M22 21h1M8 22h1M14 22h3M18 22h2M22 22h1M7 23h1M19 23h1M22 23h1M21 25h1" />
<path stroke="#41a4ac" d="M20 8h3M21 9h2M22 10h2M22 11h2M23 12h2M8 13h1M23 13h1M9 14h1M10 15h1M11 18h1M22 19h1M7 20h1M21 20h2M7 21h2M14 21h1M21 21h1M7 22h1M21 22h1M21 23h1M21 24h1" />
<path stroke="#526a6a" d="M20 9h1M20 10h2M20 11h2M21 12h2M19 13h1M21 13h2M18 14h1M21 14h2M20 15h1M22 15h1M15 16h2M21 16h1M11 17h4M12 18h1M15 18h1M13 19h1M16 19h1M14 20h3" />
<path stroke="#739c9c" d="M11 12h1M16 12h3M12 13h2M16 13h3M11 14h4M17 14h1M12 15h4M12 16h3M17 19h1M18 20h2" />
<path stroke="#398b94" d="M20 12h1M20 13h1M24 13h1M20 14h1M23 14h2M21 15h1M23 15h2M19 16h1M23 16h2M9 17h1M22 17h1M24 17h1M8 18h3M22 18h2M8 19h5M23 19h1M8 20h2M12 20h2M20 20h1M15 21h2M20 21h1M20 22h1M20 23h1M20 24h1" />
<path stroke="#5a8383" d="M11 13h1M19 14h1M11 15h1M17 15h3M11 16h1M18 16h1M20 16h1M15 17h2M13 18h2M16 18h1M14 19h2M18 21h2" />
</svg>