<svg xmlns="http://www.w3.org/2000/svg" viewBox="0 -0.5 32 32" shape-rendering="crispEdges">
<metadata>Made with Pixels to Svg https://codepen.io/shshaw/pen/XbxvNj</metadata>
<path stroke="#ffffff" d="M19 4h5M16 5h4M23 5h1M13 6h4M20 6h2M23 6h1M12 7h2M23 7h2M11 8h2M21 8h1M24 8h1M10 9h2M21 9h1M24 9h1M9 10h2M20 10h1M24 10h2M8 11h2M13 11h1M20 11h1M25 11h1M7 12h2M12 12h1M25 12h1M6 13h2M10 13h1M25 13h1M5 14h2M9 14h1M19 14h1M25 14h2M5 15h1M19 15h1M26 15h1M5 16h1M19 16h1M26 16h1M5 17h1M26 17h1M5 18h2M25 18h2M6 19h1M18 19h1M24 19h2M6 20h1M18 20h1M24 20h1M6 21h2M23 21h2M7 22h1M22 22h2M7 23h1M22 23h1M7 24h2M21 24h2M8 25h1M20 25h2M8 26h2M15 26h6M9 27h7" />
<path stroke="#202020" d="M20 5h3M17 6h3M22 6h1M14 7h3M22 7h1M13 8h1M23 8h1M12 9h1M23 9h1M11 10h1M23 10h1M10 11h1M24 11h1M9 12h1M24 12h1M8 13h1M24 13h1M7 14h1M24 14h1M6 15h1M25 15h1M6 16h1M25 16h1M6 17h1M25 17h1M7 18h1M24 18h1M7 19h1M23 19h1M7 20h1M23 20h1M8 21h1M22 21h1M8 22h1M21 22h1M8 23h1M21 23h1M9 24h1M20 24h1M9 25h1M15 25h5M10 26h5" />
<path stroke="#d5bd18" d="M17 7h2M14 8h3M14 9h2M8 18h1M8 19h2M9 20h2M9 21h3M9 22h3M14 22h1M17 22h1M10 23h1M18 23h1M10 24h1M17 24h1M13 25h1" />
<path stroke="#fff6cd" d="M19 7h2M18 8h1M16 9h1M15 10h1M19 12h2M19 13h1M18 14h1M18 15h1M17 16h2M16 17h4M17 18h2M17 19h1M17 20h1M18 21h1M18 22h1" />
<path stroke="#f6e68b" d="M21 7h1M17 8h1M19 8h1M17 9h1M20 9h1M14 10h1M16 10h1M21 10h1M14 11h1M19 11h1M11 12h1M13 12h1M11 13h1M18 13h1M20 13h1M10 14h1M20 14h1M8 15h1M17 15h1M16 16h1M19 18h1M19 19h1M13 22h1M12 23h4M12 24h5M11 25h2" />
<path stroke="#dec539" d="M20 8h1M19 9h1M18 10h1M16 11h3M21 11h1M15 12h3M13 13h5M12 14h5M7 15h1M10 15h7M20 15h1M14 16h2M16 18h1M19 20h1M17 21h1" />
<path stroke="#7b6220" d="M22 8h1M20 17h2M20 18h1M20 19h1M22 20h1M19 21h1M19 22h1M19 23h2M19 24h1" />
<path stroke="#9c8320" d="M13 9h1M22 9h1M13 10h1M22 10h1M23 11h1M21 12h1M21 13h1M21 14h1M24 15h1M7 16h1M20 16h1M8 17h1M22 17h3M21 18h3M10 19h1M21 19h2M12 20h1M20 20h2M13 21h1M20 21h2M15 22h1M20 22h1M16 23h1M18 24h1M14 25h1" />
<path stroke="#cdb429" d="M18 9h1M17 10h1M19 10h1M15 11h1M14 12h1M18 12h1M12 13h1M11 14h1M17 14h1M9 15h1M12 16h2M12 22h1M11 23h1M11 24h1" />
<path stroke="#ac8b18" d="M12 10h1M11 11h2M10 12h1M9 13h1M8 14h1M8 16h3M13 17h3M9 18h1M11 19h1M16 19h1M16 20h1M14 21h1" />
<path stroke="#bd9c29" d="M22 11h1M22 12h2M22 13h2M22 14h2M21 15h3M11 16h1M21 16h4M7 17h1M9 17h4M10 18h6M12 19h4M8 20h1M11 20h1M13 20h3M12 21h1M15 21h2M16 22h1M9 23h1M17 23h1M10 25h1" />
</svg>