<svg xmlns="http://www.w3.org/2000/svg" viewBox="0 -0.5 32 32" shape-rendering="crispEdges">
<metadata>Made with Pixels to Svg https://codepen.io/shshaw/pen/XbxvNj</metadata>
<path stroke="#ffffff" d="M17 6h5M15 7h3M21 7h2M14 8h2M22 8h2M13 9h2M23 9h2M12 10h2M19 10h1M24 10h1M11 11h2M16 11h2M24 11h1M10 12h2M15 12h2M24 12h1M9 13h2M14 13h2M24 13h1M9 14h1M13 14h2M23 14h2M8 15h2M12 15h2M22 15h2M8 16h1M11 16h2M20 16h3M7 17h2M11 17h1M18 17h3M7 18h1M10 18h1M16 18h3M7 19h1M15 19h2M6 20h2M9 20h1M14 20h2M6 21h1M13 21h2M6 22h1M12 22h2M6 23h1M11 23h2M6 24h1M10 24h2M6 25h2M9 25h2M7 26h3" />
<path stroke="#202020" d="M18 7h3M16 8h2M21 8h1M15 9h1M22 9h1M14 10h1M23 10h1M13 11h1M23 11h1M12 12h1M23 12h1M11 13h1M23 13h1M10 14h1M22 14h1M10 15h1M20 15h2M9 16h1M18 16h2M9 17h1M16 17h2M8 18h1M15 18h1M8 19h1M14 19h1M8 20h1M13 20h1M7 21h1M12 21h1M7 22h1M11 22h1M7 23h1M10 23h1M7 24h1M9 24h1M8 25h1" />
<path stroke="#dec56a" d="M18 8h3M16 9h2M15 10h1M21 10h2M14 11h1M19 11h3M13 12h1M18 12h3M12 13h1M17 13h2M16 14h2M15 15h1M10 16h1M14 16h1M13 17h1M9 18h1M12 18h1M11 19h1M11 20h1M8 21h1M10 21h1" />
<path stroke="#ffded5" d="M18 9h4M16 10h3M20 10h1M15 11h1M18 11h1M14 12h1M17 12h1M13 13h1M16 13h1M12 14h1M15 14h1M11 15h1M14 15h1M13 16h1M10 17h1M12 17h1M11 18h1M9 19h2M10 20h1M9 21h1M8 22h1M8 23h1M8 24h1" />
<path stroke="#cd9c52" d="M22 11h1M21 12h2M19 13h2M11 14h1M18 14h2M16 15h2M15 16h2M14 17h2M13 18h2M12 19h2M12 20h1M11 21h1M9 22h2M9 23h1" />
<path stroke="#ac7b39" d="M21 13h2M20 14h2M18 15h2M17 16h1" />
</svg>