<svg xmlns="http://www.w3.org/2000/svg" viewBox="0 -0.5 32 32" shape-rendering="crispEdges">
<metadata>Made with Pixels to Svg https://codepen.io/shshaw/pen/XbxvNj</metadata>
<path stroke="#ffffff" d="M14 4h6M12 5h3M19 5h2M11 6h2M16 6h2M20 6h2M10 7h2M16 7h1M21 7h1M9 8h2M21 8h2M6 9h4M22 9h1M5 10h2M22 10h1M5 11h1M22 11h1M5 12h1M21 12h2M5 13h1M21 13h2M5 14h2M10 14h1M22 14h2M6 15h5M23 15h1M9 16h1M23 16h1M9 17h1M22 17h2M9 18h1M22 18h2M9 19h2M23 19h2M9 20h1M24 20h1M9 21h1M24 21h1M9 22h1M24 22h1M9 23h2M23 23h2M10 24h2M22 24h2M11 25h3M20 25h3M13 26h8" />
<path stroke="#292429" d="M15 5h4M19 6h1M20 7h1M11 8h1M20 8h1M10 9h1M21 9h1M8 10h2M6 12h1M20 12h1M6 13h1M20 13h1M7 14h3M22 15h1M10 16h1M22 16h1M10 17h1M22 19h1M10 20h1M23 20h1M10 21h1M23 21h1M12 24h2M20 24h2M14 25h6" />
<path stroke="#212829" d="M13 6h1M12 7h1M10 18h1M11 19h1" />
<path stroke="#212c29" d="M14 6h1" />
<path stroke="#f7ffff" d="M15 6h1M15 7h1" />
<path stroke="#ceefe7" d="M18 6h1M18 7h2" />
<path stroke="#8c9394" d="M13 7h1" />
<path stroke="#8c9594" d="M14 7h1" />
<path stroke="#e1f8f7" d="M17 7h1M12 16h2M12 17h2" />
<path stroke="#bde7d6" d="M12 8h3M16 8h2M14 9h2M17 9h1M15 10h1M18 10h2M15 11h1M12 13h2" />
<path stroke="#7fa898" d="M15 8h1M16 9h1" />
<path stroke="#c0e8d8" d="M18 8h2M18 9h2M14 12h2M14 13h2" />
<path stroke="#def3ef" d="M11 9h1M20 9h1" />
<path stroke="#4f7868" d="M12 9h2M14 10h1M14 11h1M12 12h2" />
<path stroke="#212029" d="M7 10h1M6 11h1M10 22h1M23 22h1M11 23h1M22 23h1" />
<path stroke="#425573" d="M10 10h2" />
<path stroke="#def7f7" d="M12 10h2M12 15h2M11 16h1M11 17h1" />
<path stroke="#9fc8b7" d="M16 10h1M16 11h1M18 11h2" />
<path stroke="#81a999" d="M17 10h1M17 11h1" />
<path stroke="#9ccbb5" d="M20 10h1M15 18h1M14 19h1" />
<path stroke="#212421" d="M21 10h1M21 11h1" />
<path stroke="#888b94" d="M7 11h1M11 22h1M22 22h1" />
<path stroke="#7ba6d6" d="M8 11h1M7 12h1" />
<path stroke="#5f7a9c" d="M9 11h1M7 13h1" />
<path stroke="#76899f" d="M10 11h1" />
<path stroke="#def3f7" d="M11 11h1" />
<path stroke="#9fc7b7" d="M12 11h2M15 16h1M15 17h1" />
<path stroke="#5e776b" d="M20 11h1" />
<path stroke="#292c39" d="M8 12h1" />
<path stroke="#bddfff" d="M9 12h1M8 13h1" />
<path stroke="#6d869a" d="M10 12h1" />
<path stroke="#94bac6" d="M11 12h1" />
<path stroke="#9cc7b5" d="M16 12h1" />
<path stroke="#52796b" d="M17 12h1M16 13h1M15 14h1M15 15h1M14 16h1M14 17h1" />
<path stroke="#80a899" d="M18 12h2M18 13h2" />
<path stroke="#73859c" d="M9 13h1" />
<path stroke="#212042" d="M10 13h1M21 17h1" />
<path stroke="#47536e" d="M11 13h1" />
<path stroke="#83ad9c" d="M17 13h1" />
<path stroke="#292c29" d="M11 14h1M11 15h1" />
<path stroke="#c0e7d6" d="M12 14h2" />
<path stroke="#b5d2cd" d="M14 14h1" />
<path stroke="#81a79a" d="M16 14h2M16 15h1M16 16h1M16 17h1" />
<path stroke="#394184" d="M18 14h2M17 15h1M17 16h1M17 17h1M12 20h3" />
<path stroke="#7ba69c" d="M20 14h1M21 15h1" />
<path stroke="#212039" d="M21 14h1" />
<path stroke="#e7ffff" d="M14 15h1" />
<path stroke="#81aacb" d="M18 15h1M15 20h1M13 21h3" />
<path stroke="#5d75a7" d="M19 15h1M12 21h1" />
<path stroke="#3f4c5a" d="M20 15h1" />
<path stroke="#6078a7" d="M18 16h2M18 17h2M20 20h2M20 21h2M20 22h2M20 23h2" />
<path stroke="#3f4c68" d="M20 16h1" />
<path stroke="#7ba6b5" d="M21 16h1" />
<path stroke="#5d798e" d="M20 17h1" />
<path stroke="#afb7b7" d="M11 18h1" />
<path stroke="#9fc8b8" d="M12 18h2M12 19h2" />
<path stroke="#547183" d="M14 18h1" />
<path stroke="#394280" d="M16 18h1M18 19h2" />
<path stroke="#6278a7" d="M17 18h3M16 19h2" />
<path stroke="#3d4a6f" d="M20 18h1" />
<path stroke="#212031" d="M21 18h1" />
<path stroke="#31456b" d="M15 19h1" />
<path stroke="#5a75ad" d="M20 19h2" />
<path stroke="#5f78a7" d="M11 20h1M22 20h1M11 21h1M22 21h1M14 24h6" />
<path stroke="#7ea9c8" d="M16 20h1M16 21h3" />
<path stroke="#6077aa" d="M17 20h3M19 21h1" />
<path stroke="#80aac8" d="M12 22h4M12 23h4" />
<path stroke="#9fc9de" d="M16 22h1" />
<path stroke="#bde7f7" d="M17 22h1" />
<path stroke="#9ccfe7" d="M18 22h1" />
<path stroke="#7ea5c8" d="M19 22h1M18 23h1" />
<path stroke="#81abc5" d="M16 23h2" />
<path stroke="#607baa" d="M19 23h1" />
</svg>