<svg xmlns="http://www.w3.org/2000/svg" viewBox="0 -0.5 48 48" shape-rendering="crispEdges">
<metadata>Made with Pixels to Svg https://codepen.io/shshaw/pen/XbxvNj</metadata>
<path stroke="#ffffff" d="M0 0h48M0 1h48M0 2h48M0 3h48M0 4h48M0 5h48M0 6h48M0 7h48M0 8h22M24 8h24M0 9h21M22 9h2M25 9h23M0 10h20M21 10h2M26 10h22M0 11h20M26 11h22M0 12h19M27 12h21M0 13h19M27 13h21M0 14h18M27 14h21M0 15h17M28 15h20M0 16h16M28 16h20M0 17h15M28 17h20M0 18h14M29 18h19M0 19h12M30 19h18M0 20h11M30 20h18M0 21h10M30 21h18M0 22h8M25 22h2M30 22h18M0 23h7M26 23h3M30 23h18M0 24h5M29 24h19M0 25h4M5 25h1M29 25h19M0 26h4M5 26h2M29 26h19M0 27h5M6 27h2M30 27h18M0 28h6M7 28h1M30 28h18M0 29h6M7 29h1M30 29h18M0 30h7M30 30h18M0 31h7M29 31h19M0 32h8M27 32h21M0 33h9M26 33h22M0 34h10M26 34h22M0 35h10M26 35h22M0 36h10M26 36h22M0 37h10M16 37h1M18 37h1M26 37h22M0 38h11M15 38h3M19 38h1M27 38h21M0 39h11M15 39h4M20 39h1M27 39h21M0 40h11M15 40h3M19 40h1M28 40h20M0 41h12M16 41h3M20 41h2M29 41h19M0 42h12M16 42h4M31 42h17M0 43h12M17 43h5M23 43h1M33 43h15M0 44h13M17 44h4M22 44h1M24 44h1M36 44h12M0 45h13M18 45h4M23 45h1M41 45h7M0 46h14M19 46h6M37 46h3M42 46h6M0 47h15M21 47h4M26 47h3M36 47h3M42 47h6" />
<path stroke="#c57300" d="M22 8h1M21 9h1M21 12h1M23 12h1M26 12h1M20 13h1M22 13h1M19 14h3M23 14h1M18 15h5M27 15h1M21 16h1M23 16h1M17 17h4M15 18h8M12 19h1M15 19h7M28 19h1M14 20h7M22 20h1M27 20h1M13 21h9M25 21h2M8 22h1M12 22h9M22 22h1M29 22h1M11 23h9M21 23h1M29 23h1M9 24h10M20 24h1M4 25h1M8 25h10M19 25h1M21 25h1M4 26h1M8 26h9M18 26h1M20 26h1M9 27h5M15 27h1M17 27h1M19 27h1M11 28h2M14 28h1M16 28h1M18 28h1M6 29h1M15 29h1M25 30h4M22 31h5M21 32h4M21 33h3M21 34h2M24 34h1M22 35h3M22 36h3M23 37h1M22 38h1M24 38h1M23 39h1M25 39h1M13 42h1M23 42h1M13 43h1M14 44h1M21 44h1M35 44h1M14 45h2M27 45h1M40 45h1M15 46h2M16 47h2M34 47h1" />
<path stroke="#000000" d="M23 8h1M24 9h1M20 10h1M25 10h1M20 11h1M25 11h1M19 12h1M19 13h1M26 13h1M18 14h1M26 14h1M17 15h1M16 16h5M27 16h1M15 17h1M21 17h2M26 17h2M14 18h1M23 18h1M25 18h1M28 18h1M13 19h1M24 19h1M29 19h1M11 20h1M24 20h1M28 20h2M10 21h1M24 21h1M27 21h3M9 22h1M24 22h1M27 22h2M7 23h1M25 23h1M5 24h2M26 24h3M28 25h1M28 26h1M5 27h1M29 27h1M6 28h1M29 28h1M9 29h1M29 29h1M7 30h1M9 30h1M29 30h1M7 31h1M9 31h1M27 31h2M8 32h2M25 32h2M9 33h1M24 33h2M10 34h1M23 34h1M25 34h1M10 35h1M25 35h1M10 36h1M25 36h1M10 37h1M25 37h1M11 38h1M26 38h1M11 39h1M26 39h1M11 40h1M27 40h1M12 41h1M25 41h4M12 42h1M24 42h1M29 42h2M12 43h1M22 43h1M31 43h2M13 44h1M29 44h2M33 44h2M13 45h1M28 45h1M36 45h4M14 46h1M26 46h1M35 46h1M41 46h1M15 47h1M20 47h1M25 47h1M41 47h1" />
<path stroke="#e69c6b" d="M23 10h2M21 11h4M20 12h1M22 12h1M24 12h2M21 13h1M23 13h3M22 14h1M24 14h2M23 15h4M22 16h1M24 16h3M16 17h1M23 17h3M24 18h1M26 18h2M14 19h1M22 19h2M25 19h3M12 20h2M21 20h1M23 20h1M25 20h2M11 21h2M22 21h2M10 22h2M21 22h1M23 22h1M8 23h3M20 23h1M22 23h3M7 24h2M19 24h1M21 24h5M6 25h2M18 25h1M20 25h1M22 25h6M7 26h1M17 26h1M19 26h1M21 26h7M8 27h1M14 27h1M16 27h1M18 27h1M20 27h9M8 28h3M13 28h1M15 28h1M17 28h1M19 28h10M8 29h1M10 29h5M16 29h13M8 30h1M10 30h15M8 31h1M10 31h12M10 32h11M10 33h11M11 34h10M11 35h11M11 36h11M11 37h5M17 37h1M19 37h4M24 37h1M12 38h3M18 38h1M20 38h2M23 38h1M25 38h1M12 39h3M19 39h1M21 39h2M24 39h1M12 40h3M18 40h1M20 40h7M13 41h3M19 41h1M22 41h3M14 42h2M20 42h3M25 42h4M14 43h3M24 43h7M15 44h2M23 44h1M25 44h4M31 44h2M16 45h2M22 45h1M24 45h3M29 45h7M17 46h2M25 46h1M27 46h8M36 46h1M40 46h1M18 47h2M29 47h5M35 47h1M39 47h2" />
</svg>