<svg xmlns="http://www.w3.org/2000/svg" viewBox="0 -0.5 48 48" shape-rendering="crispEdges">
<metadata>Made with Pixels to Svg https://codepen.io/shshaw/pen/XbxvNj</metadata>
<path stroke="#ffffff" d="M0 0h48M0 1h48M0 2h48M0 3h48M0 4h48M0 5h48M0 6h48M0 7h48M0 8h48M0 9h48M0 10h48M0 11h48M0 12h48M0 13h48M0 14h48M0 15h48M0 16h48M0 17h48M0 18h48M0 19h48M0 20h48M0 21h48M0 22h48M0 23h48M0 24h48M0 25h48M0 26h48M0 27h48M0 28h48M0 29h37M40 29h8M0 30h15M19 30h17M37 30h3M41 30h7M0 31h13M15 31h4M22 31h13M36 31h3M42 31h6M0 32h12M13 32h3M27 32h6M35 32h2M42 32h6M0 33h3M6 33h5M12 33h2M24 33h3M29 33h1M33 33h2M43 33h1M46 33h2M0 34h2M4 34h2M7 34h4M12 34h1M26 34h3M44 34h1M47 34h1M0 35h2M4 35h2M7 35h3M28 35h2M43 35h1M47 35h1M0 36h2M5 36h2M8 36h2M29 36h1M47 36h1M0 37h3M6 37h1M13 37h5M30 37h1M36 37h3M46 37h2M0 38h3M7 38h1M11 38h4M38 38h2M45 38h3M0 39h4M10 39h2M40 39h1M45 39h3M0 40h4M9 40h1M41 40h1M46 40h2M0 41h3M4 41h1M8 41h1M47 41h1M0 42h2M3 42h1M47 42h1M0 43h2M3 43h1M0 44h1M2 44h2M0 45h1M2 45h1M0 46h1M0 47h2" />
<path stroke="#94f700" d="M37 29h1M15 30h1M13 31h1M19 31h1M39 31h2M12 32h1M16 32h6M26 32h1M33 32h1M37 32h5M5 33h1M11 33h1M14 33h5M22 33h2M28 33h1M35 33h4M40 33h2M2 34h2M6 34h1M13 34h4M19 34h7M30 34h8M39 34h3M43 34h1M45 34h1M3 35h1M10 35h4M17 35h11M31 35h1M33 35h1M35 35h1M38 35h4M44 35h2M3 36h2M11 36h1M14 36h3M20 36h3M26 36h3M30 36h1M32 36h1M34 36h1M40 36h1M42 36h4M4 37h2M8 37h2M12 37h1M18 37h2M24 37h1M27 37h3M35 37h1M39 37h1M42 37h3M4 38h3M10 38h1M15 38h6M23 38h1M25 38h1M27 38h4M33 38h5M40 38h1M43 38h1M5 39h3M9 39h1M12 39h10M24 39h1M28 39h3M32 39h8M41 39h1M4 40h1M6 40h1M8 40h1M10 40h5M17 40h7M28 40h2M31 40h1M33 40h2M38 40h3M42 40h1M44 40h1M5 41h1M9 41h4M15 41h1M19 41h7M28 41h1M30 41h1M32 41h1M36 41h2M39 41h4M44 41h2M2 42h1M4 42h2M7 42h5M14 42h1M16 42h1M20 42h8M31 42h1M33 42h1M36 42h3M40 42h3M45 42h1M4 43h2M7 43h4M13 43h1M15 43h1M17 43h1M22 43h8M32 43h1M35 43h4M40 43h4M45 43h2M1 44h1M4 44h1M7 44h4M12 44h3M18 44h4M25 44h6M35 44h4M41 44h3M46 44h1M3 45h2M6 45h4M11 45h4M16 45h7M27 45h5M34 45h4M41 45h3M2 46h3M6 46h4M12 46h2M15 46h6M25 46h1M28 46h5M35 46h3M41 46h3M45 46h2M2 47h1M5 47h4M14 47h5M24 47h1M26 47h1M29 47h4M34 47h1M36 47h1M41 47h4M46 47h1" />
<path stroke="#000000" d="M38 29h2M16 30h3M36 30h1M40 30h1M14 31h1M20 31h2M35 31h1M41 31h1M22 32h4M34 32h1M3 33h2M19 33h3M27 33h1M30 33h3M39 33h1M42 33h1M44 33h2M11 34h1M17 34h2M29 34h1M38 34h1M42 34h1M46 34h1M2 35h1M6 35h1M14 35h3M30 35h1M32 35h1M34 35h1M36 35h2M42 35h1M46 35h1M2 36h1M7 36h1M10 36h1M12 36h2M17 36h3M23 36h3M31 36h1M33 36h1M35 36h5M41 36h1M46 36h1M3 37h1M7 37h1M10 37h2M20 37h4M25 37h2M31 37h4M40 37h2M45 37h1M3 38h1M8 38h2M21 38h2M24 38h1M26 38h1M31 38h2M41 38h2M44 38h1M4 39h1M8 39h1M22 39h2M25 39h3M31 39h1M42 39h3M5 40h1M7 40h1M15 40h2M24 40h4M30 40h1M32 40h1M35 40h3M43 40h1M45 40h1M3 41h1M6 41h2M13 41h2M16 41h3M26 41h2M29 41h1M31 41h1M33 41h3M38 41h1M43 41h1M46 41h1M6 42h1M12 42h2M15 42h1M17 42h3M28 42h3M32 42h1M34 42h2M39 42h1M43 42h2M46 42h1M2 43h1M6 43h1M11 43h2M14 43h1M16 43h1M18 43h4M30 43h2M33 43h2M39 43h1M44 43h1M47 43h1M5 44h2M11 44h1M15 44h3M22 44h3M31 44h4M39 44h2M44 44h2M47 44h1M1 45h1M5 45h1M10 45h1M15 45h1M23 45h4M32 45h2M38 45h3M44 45h4M1 46h1M5 46h1M10 46h2M14 46h1M21 46h4M26 46h2M33 46h2M38 46h3M44 46h1M47 46h1M3 47h2M9 47h5M19 47h5M25 47h1M27 47h2M33 47h1M35 47h1M37 47h4M45 47h1M47 47h1" />
</svg>