<svg xmlns="http://www.w3.org/2000/svg" viewBox="0 -0.5 48 48" shape-rendering="crispEdges">
<metadata>Made with Pixels to Svg https://codepen.io/shshaw/pen/XbxvNj</metadata>
<path stroke="#ffffff" d="M0 0h41M43 0h5M0 1h39M41 1h2M44 1h4M0 2h20M24 2h13M39 2h3M44 2h4M0 3h18M20 3h4M26 3h6M37 3h3M44 3h4M0 4h17M18 4h4M32 4h1M34 4h1M43 4h5M0 5h17M18 5h3M28 5h1M30 5h2M33 5h1M35 5h1M43 5h5M0 6h16M17 6h1M19 6h1M26 6h2M30 6h3M34 6h1M42 6h6M0 7h16M18 7h1M25 7h3M29 7h4M42 7h6M0 8h16M17 8h1M19 8h1M24 8h4M29 8h4M42 8h6M0 9h16M23 9h2M26 9h1M30 9h2M43 9h5M0 10h17M23 10h1M25 10h1M27 10h1M44 10h4M0 11h17M22 11h1M24 11h1M43 11h1M45 11h3M0 12h18M23 12h1M25 12h1M41 12h1M44 12h1M46 12h2M0 13h20M22 13h1M24 13h1M40 13h2M44 13h1M46 13h2M0 14h21M23 14h1M40 14h2M43 14h1M45 14h1M47 14h1M0 15h21M22 15h1M24 15h1M45 15h1M47 15h1M0 16h21M23 16h1M0 17h21M22 17h1M24 17h1M0 18h22M23 18h1M25 18h1M0 19h22M24 19h1M0 20h22M23 20h1M25 20h1M47 20h1M0 21h22M24 21h1M47 21h1M0 22h22M23 22h1M25 22h1M43 22h1M46 22h2M0 23h22M23 23h2M41 23h2M44 23h4M0 24h21M22 24h2M25 24h1M39 24h2M43 24h5M0 25h21M22 25h3M41 25h7M0 26h21M22 26h2M25 26h1M37 26h11M0 27h21M22 27h1M24 27h1M36 27h12M0 28h20M21 28h3M36 28h12M0 29h20M21 29h2M24 29h1M35 29h13M0 30h20M21 30h1M23 30h1M35 30h13M0 31h19M20 31h3M35 31h13M0 32h19M20 32h2M23 32h1M35 32h13M0 33h13M15 33h4M20 33h1M22 33h1M35 33h13M0 34h12M13 34h2M16 34h2M19 34h1M21 34h1M34 34h14M0 35h11M12 35h3M20 35h1M22 35h1M34 35h14M0 36h11M12 36h2M15 36h1M19 36h1M21 36h1M34 36h14M0 37h11M12 37h3M16 37h1M34 37h14M0 38h11M12 38h2M15 38h1M34 38h14M0 39h11M12 39h3M16 39h1M34 39h14M0 40h9M12 40h2M15 40h1M17 40h1M19 40h1M21 40h1M34 40h14M0 41h7M9 41h1M11 41h4M16 41h1M18 41h1M20 41h1M22 41h2M35 41h13M0 42h6M7 42h3M11 42h3M15 42h1M17 42h1M22 42h5M35 42h13M0 43h4M6 43h2M10 43h5M16 43h1M18 43h1M20 43h1M24 43h6M35 43h13M0 44h3M4 44h12M17 44h1M19 44h1M21 44h3M27 44h5M35 44h13M0 45h2M3 45h14M18 45h1M20 45h4M30 45h1M32 45h1M35 45h13M0 46h1M5 46h18M24 46h4M29 46h1M36 46h12M1 47h4M6 47h16M23 47h4M28 47h1M30 47h1M37 47h11" />
<path stroke="#845aff" d="M41 0h1M39 1h1M20 2h1M37 2h1M42 2h1M18 3h1M34 3h2M40 3h3M17 4h1M22 4h4M29 4h1M33 4h1M35 4h1M39 4h3M21 5h4M27 5h1M32 5h1M34 5h1M36 5h2M40 5h2M18 6h1M20 6h4M25 6h1M28 6h1M33 6h1M35 6h6M17 7h1M19 7h6M33 7h1M36 7h4M18 8h1M20 8h3M33 8h3M37 8h4M17 9h5M25 9h1M27 9h1M29 9h1M32 9h5M38 9h4M18 10h4M24 10h1M26 10h1M29 10h8M38 10h5M18 11h3M23 11h1M25 11h4M30 11h7M38 11h2M42 11h1M20 12h1M22 12h1M24 12h1M26 12h3M30 12h6M37 12h3M43 12h1M23 13h1M25 13h5M32 13h3M36 13h3M22 14h1M24 14h8M35 14h4M44 14h1M23 15h1M25 15h16M44 15h1M22 16h1M24 16h18M44 16h3M23 17h1M25 17h22M24 18h1M26 18h11M38 18h7M46 18h1M23 19h1M25 19h11M38 19h9M24 20h1M26 20h9M42 20h4M23 21h1M25 21h10M44 21h2M24 22h1M26 22h8M22 23h1M25 23h9M21 24h1M24 24h1M26 24h8M25 25h8M40 25h1M24 26h1M26 26h7M21 27h1M23 27h1M25 27h8M20 28h1M24 28h8M23 29h1M25 29h7M22 30h1M24 30h8M19 31h1M23 31h9M22 32h1M24 32h7M13 33h1M21 33h1M23 33h8M34 33h1M12 34h1M20 34h1M22 34h9M11 35h1M18 35h2M21 35h1M23 35h8M17 36h2M20 36h1M22 36h9M18 37h12M18 38h12M22 39h8M9 40h1M11 40h1M24 40h6M7 41h1M27 41h3M34 41h1M19 42h3M4 43h1M8 43h2M22 43h2M24 44h3M28 45h2M23 46h1M30 46h2M32 47h2" />
<path stroke="#000000" d="M42 0h1M40 1h1M43 1h1M21 2h3M38 2h1M43 2h1M19 3h1M24 3h2M32 3h2M36 3h1M43 3h1M26 4h3M30 4h2M36 4h3M42 4h1M17 5h1M25 5h2M29 5h1M38 5h2M42 5h1M16 6h1M24 6h1M29 6h1M41 6h1M16 7h1M28 7h1M34 7h2M40 7h2M16 8h1M23 8h1M28 8h1M36 8h1M41 8h1M16 9h1M22 9h1M28 9h1M37 9h1M42 9h1M17 10h1M22 10h1M28 10h1M37 10h1M43 10h1M17 11h1M21 11h1M29 11h1M37 11h1M40 11h2M44 11h1M18 12h2M21 12h1M29 12h1M36 12h1M40 12h1M42 12h1M45 12h1M20 13h2M30 13h2M35 13h1M39 13h1M42 13h2M45 13h1M21 14h1M32 14h3M39 14h1M42 14h1M46 14h1M21 15h1M41 15h3M46 15h1M21 16h1M42 16h2M47 16h1M21 17h1M47 17h1M22 18h1M37 18h1M45 18h1M47 18h1M22 19h1M37 19h1M47 19h1M22 20h1M38 20h4M46 20h1M22 21h1M42 21h2M46 21h1M22 22h1M44 22h2M43 23h1M41 24h2M21 25h1M37 25h3M21 26h1M36 26h1M35 27h1M35 28h1M20 29h1M34 29h1M20 30h1M34 30h1M34 31h1M19 32h1M34 32h1M14 33h1M19 33h1M15 34h1M18 34h1M33 34h1M16 35h2M33 35h1M11 36h1M16 36h1M33 36h1M11 37h1M17 37h1M33 37h1M11 38h1M17 38h1M33 38h1M11 39h1M18 39h4M33 39h1M10 40h1M18 40h1M22 40h2M33 40h1M8 41h1M10 41h1M19 41h1M24 41h3M6 42h1M10 42h1M27 42h3M34 42h1M5 43h1M30 43h2M34 43h1M3 44h1M32 44h3M2 45h1M24 45h4M34 45h1M1 46h4M28 46h1M35 46h1M0 47h1M5 47h1M22 47h1M29 47h1M36 47h1" />
<path stroke="#ff6bff" d="M36 19h1M35 20h3M35 21h7M34 22h9M34 23h7M34 24h5M33 25h4M33 26h3M33 27h2M32 28h3M32 29h2M32 30h2M32 31h2M31 32h3M31 33h3M31 34h2M15 35h1M31 35h2M14 36h1M31 36h2M15 37h1M30 37h3M14 38h1M16 38h1M30 38h3M15 39h1M17 39h1M30 39h3M14 40h1M16 40h1M20 40h1M30 40h3M15 41h1M17 41h1M21 41h1M30 41h4M14 42h1M16 42h1M18 42h1M30 42h4M15 43h1M17 43h1M19 43h1M21 43h1M32 43h2M16 44h1M18 44h1M20 44h1M17 45h1M19 45h1M31 45h1M33 45h1M32 46h3M27 47h1M31 47h1M34 47h2" />
</svg>