<svg xmlns="http://www.w3.org/2000/svg" viewBox="0 -0.5 48 48" shape-rendering="crispEdges">
<metadata>Made with Pixels to Svg https://codepen.io/shshaw/pen/XbxvNj</metadata>
<path stroke="#ffffff" d="M0 0h48M0 1h48M0 2h48M0 3h48M0 4h48M0 5h48M0 6h48M0 7h15M17 7h31M0 8h15M16 8h1M18 8h30M0 9h15M16 9h2M19 9h29M0 10h15M16 10h2M20 10h28M0 11h7M9 11h7M17 11h1M21 11h27M0 12h6M12 12h4M17 12h1M21 12h24M47 12h1M0 13h7M14 13h3M22 13h21M45 13h2M0 14h8M16 14h1M23 14h18M43 14h2M47 14h1M0 15h9M24 15h14M41 15h2M46 15h2M0 16h10M26 16h9M38 16h3M44 16h4M0 17h11M27 17h5M35 17h4M43 17h5M0 18h9M27 18h1M32 18h4M42 18h6M0 19h5M28 19h6M41 19h7M0 20h1M29 20h1M39 20h9M38 21h10M0 22h1M16 22h3M26 22h1M38 22h10M0 23h4M13 23h4M26 23h3M37 23h11M0 24h7M10 24h4M27 24h1M36 24h12M0 25h4M7 25h4M36 25h12M0 26h3M4 26h4M35 26h13M0 27h4M34 27h14M0 28h7M33 28h15M0 29h5M32 29h16M0 30h3M13 30h1M32 30h16M0 31h1M12 31h2M32 31h16M11 32h2M32 32h16M0 33h1M11 33h1M31 33h17M0 34h7M10 34h2M31 34h17M0 35h8M9 35h2M19 35h1M31 35h17M0 36h7M8 36h2M19 36h1M31 36h17M0 37h6M7 37h2M12 37h2M19 37h2M31 37h17M0 38h7M9 38h4M20 38h1M31 38h17M0 39h13M20 39h1M29 39h1M31 39h17M0 40h12M20 40h1M27 40h1M29 40h1M31 40h17M0 41h12M20 41h2M27 41h2M30 41h18M0 42h11M21 42h1M27 42h21M0 43h11M12 43h1M21 43h1M27 43h21M0 44h10M11 44h3M21 44h1M27 44h21M0 45h10M11 45h4M21 45h1M27 45h21M0 46h9M10 46h4M15 46h1M28 46h20M0 47h8M9 47h4M14 47h1M16 47h1M28 47h20" />
<path stroke="#ff2100" d="M15 7h2M17 8h1M15 10h1M45 12h1M43 13h1M12 14h1M41 14h1M45 14h1M11 15h1M13 15h3M38 15h1M43 15h1M12 16h1M14 16h4M25 16h1M35 16h1M41 16h2M13 17h5M26 17h1M32 17h1M39 17h3M13 18h6M28 18h1M36 18h5M13 19h6M34 19h5M10 20h8M32 20h6M6 21h10M29 21h6M4 22h9M29 22h4M35 22h2M7 23h3M29 23h3M33 23h3M23 24h1M29 24h2M32 24h3M28 25h1M30 25h1M32 25h3M31 26h3M31 27h1M8 28h1M7 29h1M9 29h4M16 29h1M6 30h1M8 30h1M10 30h2M7 31h1M9 31h1M8 32h1M7 33h1M9 33h1M26 33h1M17 35h1M7 36h1M15 36h3M6 37h1M15 37h3M25 37h1M14 38h5M25 38h2M15 39h1M17 39h1M25 39h2M14 40h1M16 40h1M18 40h1M24 40h2M28 40h1M15 41h1M17 41h1M19 41h1M24 41h2M29 41h1M11 42h1M18 42h1M25 42h1M23 43h2M10 44h1M23 44h1M25 44h1M20 45h1" />
<path stroke="#000000" d="M15 8h1M15 9h1M18 9h1M19 10h1M7 11h2M16 11h1M20 11h1M6 12h1M9 12h3M16 12h1M20 12h1M46 12h1M7 13h1M12 13h2M17 13h1M21 13h1M44 13h1M47 13h1M8 14h1M14 14h2M17 14h1M22 14h1M42 14h1M46 14h1M9 15h1M16 15h2M23 15h1M39 15h2M44 15h2M10 16h1M18 16h1M24 16h1M36 16h2M43 16h1M11 17h1M18 17h1M33 17h2M42 17h1M9 18h2M12 18h1M19 18h1M26 18h1M29 18h3M41 18h1M5 19h4M12 19h1M19 19h1M27 19h1M39 19h2M1 20h4M27 20h2M30 20h2M38 20h1M0 21h1M16 21h2M26 21h2M35 21h3M1 22h3M13 22h3M24 22h2M27 22h2M33 22h2M37 22h1M4 23h3M10 23h3M23 23h3M32 23h1M36 23h1M7 24h3M22 24h1M24 24h3M28 24h1M31 24h1M35 24h1M4 25h3M25 25h3M31 25h1M35 25h1M3 26h1M26 26h2M30 26h1M34 26h1M4 27h5M30 27h1M32 27h2M7 28h1M9 28h6M31 28h2M5 29h2M13 29h1M15 29h1M31 29h1M3 30h2M12 30h1M31 30h1M1 31h2M11 31h1M31 31h1M0 32h1M10 32h1M31 32h1M1 33h6M10 33h1M30 33h1M7 34h3M16 34h2M25 34h1M30 34h1M8 35h1M14 35h3M18 35h1M25 35h1M30 35h1M12 36h3M18 36h1M25 36h2M30 36h1M9 37h3M14 37h1M18 37h1M24 37h1M26 37h1M30 37h1M7 38h2M13 38h1M19 38h1M24 38h1M27 38h1M30 38h1M13 39h1M19 39h1M24 39h1M27 39h2M30 39h1M12 40h1M19 40h1M23 40h1M26 40h1M30 40h1M12 41h1M23 41h1M26 41h1M20 42h1M23 42h1M26 42h1M11 43h1M20 43h1M22 43h1M26 43h1M20 44h1M22 44h1M26 44h1M10 45h1M22 45h1M26 45h1M9 46h1M21 46h1M27 46h1M8 47h1M27 47h1" />
<path stroke="#ff9c00" d="M18 10h1M18 11h2M7 12h2M18 12h2M8 13h4M18 13h3M9 14h3M13 14h1M18 14h4M10 15h1M12 15h1M18 15h5M11 16h1M13 16h1M19 16h5M12 17h1M19 17h7M11 18h1M20 18h6M9 19h3M20 19h7M5 20h5M18 20h9M1 21h5M18 21h8M28 21h1M19 22h5M17 23h6M14 24h8M11 25h14M29 25h1M8 26h18M28 26h2M9 27h21M15 28h16M8 29h1M14 29h1M17 29h14M5 30h1M7 30h1M9 30h1M14 30h17M3 31h4M8 31h1M10 31h1M14 31h17M1 32h7M9 32h1M13 32h18M8 33h1M12 33h14M27 33h3M12 34h4M18 34h7M26 34h4M11 35h3M20 35h5M26 35h4M10 36h2M20 36h5M27 36h3M21 37h3M27 37h3M21 38h3M28 38h2M14 39h1M16 39h1M18 39h1M21 39h3M13 40h1M15 40h1M17 40h1M21 40h2M13 41h2M16 41h1M18 41h1M22 41h1M12 42h6M19 42h1M22 42h1M24 42h1M13 43h7M25 43h1M14 44h6M24 44h1M15 45h5M23 45h3M14 46h1M16 46h5M22 46h5M13 47h1M15 47h1M17 47h10" />
</svg>