<svg xmlns="http://www.w3.org/2000/svg" viewBox="0 -0.5 48 48" shape-rendering="crispEdges">
<metadata>Made with Pixels to Svg https://codepen.io/shshaw/pen/XbxvNj</metadata>
<path stroke="#ffffff" d="M0 0h48M0 1h48M0 2h48M0 3h48M0 4h48M0 5h48M0 6h48M0 7h48M0 8h48M0 9h48M0 10h48M0 11h48M0 12h14M16 12h9M27 12h21M0 13h13M14 13h2M18 13h6M25 13h2M30 13h18M0 14h10M12 14h1M14 14h1M17 14h1M20 14h1M28 14h1M31 14h4M37 14h11M0 15h9M10 15h2M21 15h3M27 15h2M31 15h2M35 15h2M38 15h10M0 16h9M10 16h3M19 16h3M25 16h3M33 16h2M38 16h10M0 17h9M10 17h4M24 17h4M38 17h10M0 18h10M11 18h3M23 18h4M37 18h11M0 19h10M11 19h3M22 19h5M37 19h11M0 20h11M12 20h1M21 20h5M36 20h12M0 21h11M12 21h1M20 21h6M36 21h12M0 22h12M22 22h3M35 22h13M0 23h11M36 23h12M0 24h11M34 24h1M37 24h11M0 25h10M11 25h1M14 25h2M20 25h1M23 25h1M37 25h11M0 26h8M11 26h1M13 26h4M19 26h6M28 26h2M33 26h1M40 26h8M0 27h7M8 27h1M11 27h7M19 27h7M27 27h6M34 27h1M41 27h7M0 28h7M8 28h1M10 28h22M33 28h1M41 28h7M0 29h7M10 29h23M34 29h1M40 29h8M0 30h8M10 30h22M33 30h1M39 30h9M0 31h9M10 31h23M34 31h1M38 31h10M0 32h9M12 32h20M33 32h1M38 32h10M0 33h9M13 33h14M29 33h4M38 33h10M0 34h10M11 34h1M13 34h6M21 34h5M30 34h2M33 34h1M37 34h11M0 35h10M11 35h1M13 35h4M22 35h4M27 35h2M32 35h1M37 35h11M0 36h11M13 36h3M18 36h2M22 36h3M27 36h2M31 36h1M36 36h12M0 37h11M13 37h2M17 37h3M22 37h3M27 37h3M36 37h12M0 38h12M13 38h2M17 38h3M21 38h4M27 38h2M35 38h13M0 39h13M15 39h1M18 39h1M21 39h4M34 39h14M0 40h12M16 40h1M20 40h2M23 40h1M25 40h1M33 40h15M0 41h10M20 41h1M22 41h1M24 41h1M26 41h1M28 41h1M36 41h12M0 42h9M38 42h10M0 43h9M39 43h9M0 44h10M39 44h9M0 45h11M38 45h10M0 46h14M36 46h12M0 47h18M33 47h15" />
<path stroke="#000000" d="M14 12h2M25 12h2M13 13h1M16 13h2M24 13h1M27 13h3M10 14h2M13 14h1M18 14h1M21 14h3M26 14h2M30 14h1M35 14h2M9 15h1M12 15h3M19 15h2M24 15h3M30 15h1M33 15h2M37 15h1M9 16h1M14 16h2M17 16h2M24 16h1M31 16h2M37 16h1M9 17h1M15 17h2M23 17h1M31 17h1M37 17h1M10 18h1M16 18h2M22 18h1M32 18h1M36 18h1M10 19h1M18 19h2M21 19h1M33 19h1M36 19h1M11 20h1M20 20h1M35 20h1M11 21h1M35 21h1M34 22h1M11 23h1M34 23h2M11 24h1M14 24h2M20 24h1M23 24h1M33 24h1M36 24h1M10 25h1M12 25h2M16 25h1M19 25h1M21 25h2M24 25h1M28 25h2M32 25h1M36 25h1M8 26h3M12 26h1M17 26h1M25 26h1M27 26h1M30 26h2M37 26h3M10 27h1M18 27h1M26 27h1M37 27h1M40 27h1M7 28h1M9 28h1M37 28h1M40 28h1M7 29h1M9 29h1M37 29h1M39 29h1M8 30h2M37 30h2M9 31h1M37 31h1M9 32h3M37 32h1M9 33h4M27 33h2M37 33h1M10 34h1M12 34h1M26 34h4M36 34h1M10 35h1M12 35h1M26 35h1M29 35h2M36 35h1M11 36h2M25 36h2M29 36h2M35 36h1M12 37h1M25 37h2M30 37h2M35 37h1M12 38h1M25 38h2M29 38h3M34 38h1M14 39h1M26 39h5M33 39h1M12 40h4M27 40h2M32 40h1M10 41h4M15 41h2M30 41h2M33 41h3M9 42h4M17 42h3M27 42h3M35 42h3M9 43h4M19 43h8M36 43h3M10 44h4M17 44h11M36 44h3M12 45h18M35 45h3M15 46h20M19 47h13" />
<path stroke="#f7d65a" d="M15 14h2M24 14h2M29 14h1M15 15h4M29 15h1M13 16h1M16 16h1M22 16h2M28 16h3M35 16h2M14 17h1M17 17h6M28 17h3M33 17h4M14 18h2M18 18h4M27 18h5M33 18h3M14 19h4M20 19h1M27 19h6M34 19h2M13 20h6M26 20h9M13 21h7M26 21h9M13 22h9M25 22h9M13 23h21M12 24h2M16 24h4M21 24h2M24 24h9M35 24h1M17 25h2M25 25h3M30 25h2M33 25h3M26 26h1M32 26h1M34 26h3M9 27h1M33 27h1M35 27h2M38 27h2M32 28h1M34 28h3M38 28h2M8 29h1M33 29h1M35 29h2M38 29h1M32 30h1M34 30h3M33 31h1M35 31h2M32 32h1M34 32h3M33 33h4M32 34h1M34 34h2M31 35h1M33 35h3M32 36h3M32 37h3M32 38h2M25 39h1M31 39h2M22 40h1M24 40h1M26 40h1M29 40h3M14 41h1M17 41h3M21 41h1M23 41h1M25 41h1M27 41h1M29 41h1M32 41h1M13 42h4M20 42h7M30 42h5M13 43h6M27 43h9M14 44h1M28 44h8M32 45h3" />
<path stroke="#427bff" d="M19 14h1M32 17h1M19 20h1M12 22h1M12 23h1M18 26h1M7 27h1M19 34h2M17 35h5M16 36h2M20 36h2M11 37h1M15 37h2M20 37h2M15 38h2M20 38h1M13 39h1M16 39h2M19 39h2M17 40h3M15 44h2M11 45h1M30 45h2M14 46h1M35 46h1M18 47h1M32 47h1" />
</svg>