<svg xmlns="http://www.w3.org/2000/svg" viewBox="0 -0.5 48 48" shape-rendering="crispEdges">
<metadata>Made with Pixels to Svg https://codepen.io/shshaw/pen/XbxvNj</metadata>
<path stroke="#ffffff" d="M0 0h48M0 1h48M0 2h48M0 3h48M0 4h48M0 5h48M0 6h48M0 7h48M0 8h48M0 9h13M17 9h31M0 10h11M13 10h2M19 10h14M38 10h10M0 11h10M11 11h3M20 11h11M33 11h3M40 11h8M0 12h9M10 12h2M21 12h9M31 12h3M41 12h7M0 13h8M21 13h8M30 13h1M42 13h6M0 14h8M22 14h6M43 14h5M0 15h8M22 15h6M43 15h5M0 16h7M22 16h2M44 16h4M0 17h7M44 17h4M0 18h7M44 18h4M0 19h7M21 19h4M44 19h4M0 20h8M19 20h7M44 20h4M0 21h8M17 21h8M26 21h1M44 21h4M0 22h8M16 22h4M21 22h1M23 22h1M25 22h1M43 22h5M0 23h9M16 23h1M18 23h1M20 23h1M22 23h1M24 23h1M26 23h1M43 23h5M0 24h9M17 24h1M19 24h1M21 24h1M23 24h1M25 24h1M42 24h6M0 25h10M20 25h1M42 25h6M0 26h10M41 26h7M0 27h9M41 27h7M0 28h6M41 28h7M0 29h4M41 29h7M0 30h3M5 30h3M41 30h7M0 31h2M4 31h5M42 31h6M0 32h1M4 32h5M42 32h6M0 33h1M5 33h3M42 33h6M42 34h6M44 35h4M47 36h1M0 37h1M0 38h1M0 39h2M0 40h3M47 40h1M0 41h4M41 41h1M46 41h2M0 42h3M41 42h7M0 43h2M5 43h4M40 43h8M0 44h2M6 44h4M40 44h8M0 45h4M9 45h2M39 45h9M0 46h6M9 46h3M38 46h10M0 47h5M8 47h6M37 47h11" />
<path stroke="#42bd5a" d="M13 9h1M11 10h1M15 10h2M33 10h1M14 11h5M31 11h1M36 11h2M12 12h8M34 12h6M9 13h11M31 13h10M9 14h12M28 14h14M9 15h12M29 15h13M8 16h13M24 16h1M28 16h15M8 17h14M24 17h3M28 17h15M8 18h19M28 18h15M8 19h10M19 19h2M25 19h2M28 19h15M9 20h7M17 20h2M26 20h1M28 20h15M9 21h5M15 21h2M25 21h1M27 21h1M29 21h14M9 22h4M14 22h2M20 22h1M22 22h1M24 22h1M26 22h2M29 22h13M10 23h2M13 23h3M17 23h1M19 23h1M21 23h1M23 23h1M25 23h1M27 23h15M10 24h1M12 24h5M18 24h1M20 24h1M22 24h1M24 24h1M26 24h15M11 25h9M21 25h20M11 26h29M10 27h29M40 27h1M9 28h31M6 29h3M11 29h29M4 30h1M8 30h3M12 30h28M3 31h1M9 31h3M13 31h28M2 32h2M9 32h4M14 32h27M2 33h3M8 33h5M14 33h27M1 34h13M15 34h26M1 35h13M15 35h27M1 36h13M15 36h29M2 37h11M14 37h27M42 37h5M2 38h11M14 38h27M42 38h5M3 39h9M13 39h27M41 39h6M4 40h7M12 40h28M42 40h4M6 41h3M11 41h29M10 42h30M10 43h29M11 44h28M12 45h7M21 45h17M14 46h4M22 46h15M16 47h1M22 47h13" />
<path stroke="#000000" d="M14 9h3M12 10h1M17 10h2M34 10h4M10 11h1M19 11h1M32 11h1M38 11h2M9 12h1M20 12h1M30 12h1M40 12h1M8 13h1M20 13h1M29 13h1M41 13h1M8 14h1M21 14h1M42 14h1M8 15h1M21 15h1M28 15h1M42 15h1M7 16h1M21 16h1M25 16h3M43 16h1M7 17h1M22 17h2M27 17h1M43 17h1M7 18h1M27 18h1M43 18h1M7 19h1M18 19h1M27 19h1M43 19h1M8 20h1M16 20h1M27 20h1M43 20h1M8 21h1M14 21h1M28 21h1M43 21h1M8 22h1M13 22h1M28 22h1M42 22h1M9 23h1M12 23h1M42 23h1M9 24h1M11 24h1M41 24h1M10 25h1M41 25h1M10 26h1M40 26h1M9 27h1M39 27h1M6 28h3M40 28h1M4 29h2M9 29h2M40 29h1M3 30h1M11 30h1M40 30h1M2 31h1M12 31h1M41 31h1M1 32h1M13 32h1M41 32h1M1 33h1M13 33h1M41 33h1M0 34h1M14 34h1M41 34h1M0 35h1M14 35h1M42 35h2M0 36h1M14 36h1M44 36h3M1 37h1M13 37h1M41 37h1M47 37h1M1 38h1M13 38h1M41 38h1M47 38h1M2 39h1M12 39h1M40 39h1M47 39h1M3 40h1M11 40h1M40 40h2M46 40h1M4 41h2M9 41h2M40 41h1M42 41h4M3 42h7M40 42h1M2 43h3M9 43h1M39 43h1M3 44h3M10 44h1M39 44h1M5 45h3M11 45h1M19 45h2M38 45h1M6 46h3M12 46h2M18 46h4M37 46h1M5 47h3M14 47h2M17 47h5M35 47h2" />
<path stroke="#ff19f7" d="M2 44h1M4 45h1M8 45h1" />
</svg>