<svg xmlns="http://www.w3.org/2000/svg" viewBox="0 -0.5 48 48" shape-rendering="crispEdges">
<metadata>Made with Pixels to Svg https://codepen.io/shshaw/pen/XbxvNj</metadata>
<path stroke="#ffffff" d="M0 0h24M27 0h21M0 1h24M25 1h2M28 1h20M0 2h24M25 2h3M29 2h19M0 3h25M27 3h2M30 3h18M0 4h25M29 4h1M31 4h5M37 4h11M0 5h12M15 5h11M30 5h1M32 5h3M36 5h1M38 5h10M0 6h11M12 6h3M17 6h9M33 6h2M36 6h2M39 6h9M0 7h11M12 7h5M19 7h8M34 7h1M36 7h2M39 7h9M0 8h12M16 8h3M22 8h5M36 8h1M40 8h8M0 9h13M25 9h2M40 9h8M0 10h14M39 10h1M41 10h7M0 11h15M38 11h1M41 11h7M0 12h16M39 12h2M42 12h6M0 13h17M38 13h1M40 13h1M42 13h6M0 14h18M39 14h1M41 14h1M43 14h5M0 15h7M10 15h8M40 15h2M43 15h5M0 16h6M7 16h3M13 16h6M20 16h2M39 16h1M41 16h2M44 16h4M0 17h6M7 17h1M16 17h3M20 17h5M40 17h1M42 17h1M44 17h4M0 18h7M21 18h1M26 18h1M41 18h1M44 18h4M0 19h8M27 19h1M29 19h1M31 19h1M33 19h1M45 19h3M0 20h10M30 20h1M32 20h1M34 20h1M45 20h3M0 21h11M33 21h1M46 21h2M0 22h12M42 22h1M46 22h2M0 23h13M42 23h1M46 23h2M0 24h14M43 24h1M47 24h1M0 25h15M47 25h1M0 26h15M21 26h2M47 26h1M0 27h16M20 27h2M0 28h4M8 28h8M20 28h1M0 29h3M4 29h2M13 29h2M19 29h2M23 29h2M0 30h3M18 30h2M23 30h2M47 30h1M0 31h4M15 31h4M23 31h1M45 31h3M0 32h5M23 32h1M44 32h4M0 33h7M23 33h1M43 33h5M0 34h8M41 34h7M0 35h10M40 35h8M0 36h11M39 36h9M0 37h2M7 37h3M39 37h9M0 38h1M2 38h3M39 38h9M0 39h1M2 39h1M39 39h9M0 40h2M21 40h2M39 40h9M0 41h3M21 41h2M40 41h8M0 42h5M21 42h1M38 42h1M40 42h8M0 43h7M21 43h1M37 43h1M40 43h8M0 44h8M21 44h1M36 44h1M38 44h1M41 44h7M0 45h5M37 45h1M39 45h1M41 45h7M0 46h1M5 46h2M38 46h1M41 46h7M39 47h1M41 47h7" />
<path stroke="#ad947b" d="M24 0h1M26 3h1M26 4h3M36 4h1M27 5h3M35 5h1M27 6h5M35 6h1M28 7h5M13 8h3M21 8h1M28 8h6M37 8h2M14 9h8M27 9h1M29 9h5M36 9h3M15 10h10M27 10h1M29 10h5M36 10h3M16 11h11M29 11h6M36 11h2M39 11h1M17 12h8M27 12h8M36 12h3M18 13h6M25 13h10M36 13h2M39 13h1M19 14h15M35 14h4M40 14h1M19 15h1M22 15h12M35 15h5M25 16h8M34 16h5M40 16h1M8 17h5M28 17h12M41 17h1M8 18h8M19 18h1M22 18h4M27 18h1M32 18h8M42 18h1M10 19h11M22 19h5M28 19h1M30 19h1M32 19h1M34 19h7M42 19h2M11 20h11M23 20h7M31 20h1M33 20h1M35 20h7M43 20h1M12 21h10M23 21h10M34 21h8M43 21h2M13 22h10M24 22h17M44 22h1M14 23h10M25 23h16M44 23h1M15 24h10M26 24h16M45 24h1M16 25h1M18 25h3M23 25h1M25 25h1M27 25h16M17 26h1M19 26h1M24 26h1M27 26h18M18 27h1M22 27h2M26 27h1M28 27h19M21 28h2M25 28h1M28 28h11M43 28h4M6 29h2M21 29h1M28 29h15M46 29h1M4 30h9M17 30h1M20 30h2M25 30h1M28 30h17M5 31h10M19 31h3M24 31h2M27 31h1M30 31h14M7 32h15M24 32h3M28 32h2M32 32h11M8 33h11M20 33h2M24 33h3M28 33h4M34 33h3M38 33h1M40 33h1M11 34h1M13 34h5M21 34h1M23 34h5M29 34h5M35 34h1M37 34h1M39 34h1M12 35h1M14 35h3M21 35h1M23 35h5M29 35h6M36 35h1M38 35h1M13 36h1M15 36h2M21 36h2M24 36h4M29 36h7M37 36h1M11 37h2M14 37h2M21 37h2M24 37h4M29 37h7M5 38h2M11 38h5M20 38h17M3 39h13M20 39h1M23 39h4M28 39h10M3 40h14M19 40h1M24 40h2M27 40h11M6 41h1M8 41h12M23 41h1M25 41h2M28 41h11M7 42h1M9 42h1M11 42h9M22 42h2M25 42h1M27 42h11M10 43h1M12 43h8M22 43h3M26 43h11M38 43h1M11 44h1M13 44h1M15 44h2M18 44h2M22 44h3M26 44h10M37 44h1M39 44h1M8 45h1M10 45h1M12 45h1M14 45h1M19 45h1M21 45h5M27 45h10M38 45h1M7 46h3M11 46h1M13 46h1M15 46h1M19 46h1M21 46h5M27 46h7M37 46h1M39 46h1M1 47h8M10 47h1M12 47h1M14 47h1M19 47h2M22 47h4M27 47h10" />
<path stroke="#9c08ff" d="M25 0h1M24 1h1M27 1h1M28 2h1M12 5h2M11 6h1M16 6h1M18 7h1M34 10h1M25 12h1M24 13h1M35 13h1M34 14h1M7 15h1M34 15h1M6 16h1M12 16h1M24 16h1M33 16h1M15 17h1M31 18h1M40 18h1M9 19h1M41 22h1M41 23h1M42 24h1M17 25h1M24 25h1M45 25h1M16 26h1M18 26h1M25 26h1M17 27h1M25 27h1M4 28h1M17 28h2M23 28h1M26 28h2M39 28h1M3 29h1M16 29h1M22 29h1M27 29h1M43 29h1M45 29h1M22 30h1M31 32h1M19 33h1M33 33h1M37 33h1M39 33h1M10 34h1M12 34h1M36 34h1M38 34h1M11 35h1M13 35h1M17 35h1M37 35h1M12 36h1M14 36h1M2 37h1M13 37h1M16 37h1M28 37h1M37 37h1M1 38h1M10 38h1M21 39h1M27 39h1M20 40h1M26 40h1M5 41h1M7 41h1M20 41h1M27 41h1M8 42h1M10 42h1M20 42h1M26 42h1M9 43h1M11 43h1M10 44h1M12 44h1M14 44h1M17 44h1M5 45h1M9 45h1M11 45h1M13 45h1M15 45h1M10 46h1M12 46h1M14 46h1M34 46h1M9 47h1M11 47h1M13 47h1M15 47h1M26 47h1" />
<path stroke="#000000" d="M26 0h1M24 2h1M25 3h1M29 3h1M25 4h1M30 4h1M14 5h1M26 5h1M31 5h1M37 5h1M15 6h1M26 6h1M32 6h1M38 6h1M11 7h1M17 7h1M27 7h1M33 7h1M35 7h1M38 7h1M12 8h1M19 8h2M27 8h1M34 8h2M39 8h1M13 9h1M22 9h3M28 9h1M34 9h2M39 9h1M14 10h1M25 10h2M28 10h1M35 10h1M40 10h1M15 11h1M27 11h2M35 11h1M40 11h1M16 12h1M26 12h1M35 12h1M41 12h1M17 13h1M41 13h1M18 14h1M42 14h1M8 15h2M18 15h1M20 15h2M42 15h1M10 16h2M19 16h1M22 16h2M43 16h1M6 17h1M13 17h2M19 17h1M25 17h3M43 17h1M7 18h1M16 18h3M20 18h1M28 18h3M43 18h1M8 19h1M21 19h1M41 19h1M44 19h1M10 20h1M22 20h1M42 20h1M44 20h1M11 21h1M22 21h1M42 21h1M45 21h1M12 22h1M23 22h1M43 22h1M45 22h1M13 23h1M24 23h1M43 23h1M45 23h1M14 24h1M25 24h1M44 24h1M46 24h1M15 25h1M21 25h2M26 25h1M43 25h2M46 25h1M15 26h1M20 26h1M23 26h1M26 26h1M45 26h2M16 27h1M19 27h1M24 27h1M27 27h1M47 27h1M5 28h3M16 28h1M19 28h1M24 28h1M40 28h3M47 28h1M8 29h5M15 29h1M17 29h2M25 29h2M44 29h1M47 29h1M3 30h1M13 30h4M26 30h2M45 30h2M4 31h1M22 31h1M26 31h1M28 31h2M44 31h1M5 32h2M22 32h1M27 32h1M30 32h1M43 32h1M7 33h1M22 33h1M27 33h1M32 33h1M41 33h2M8 34h2M18 34h3M22 34h1M28 34h1M34 34h1M40 34h1M10 35h1M18 35h3M22 35h1M28 35h1M35 35h1M39 35h1M11 36h1M17 36h4M23 36h1M28 36h1M36 36h1M38 36h1M3 37h4M10 37h1M17 37h4M23 37h1M36 37h1M38 37h1M7 38h3M16 38h4M37 38h2M1 39h1M16 39h4M22 39h1M38 39h1M2 40h1M17 40h2M23 40h1M38 40h1M3 41h2M24 41h1M39 41h1M5 42h2M24 42h1M39 42h1M7 43h2M20 43h1M25 43h1M39 43h1M8 44h2M20 44h1M25 44h1M40 44h1M6 45h2M16 45h3M20 45h1M26 45h1M40 45h1M1 46h4M16 46h3M20 46h1M26 46h1M35 46h2M40 46h1M0 47h1M16 47h3M21 47h1M37 47h2M40 47h1" />
</svg>