<svg xmlns="http://www.w3.org/2000/svg" viewBox="0 -0.5 48 48" shape-rendering="crispEdges">
<metadata>Made with Pixels to Svg https://codepen.io/shshaw/pen/XbxvNj</metadata>
<path stroke="#ffffff" d="M0 0h37M43 0h5M0 1h13M18 1h16M43 1h5M0 2h12M21 2h11M43 2h5M0 3h12M23 3h7M43 3h5M0 4h10M25 4h3M42 4h6M0 5h8M42 5h6M0 6h7M42 6h6M0 7h6M43 7h5M0 8h5M14 8h1M43 8h5M0 9h4M14 9h1M44 9h4M0 10h4M15 10h1M44 10h4M0 11h3M15 11h2M45 11h3M0 12h3M16 12h2M45 12h3M0 13h2M16 13h3M46 13h2M0 14h2M17 14h2M46 14h2M0 15h1M18 15h1M46 15h2M0 16h1M47 16h1M0 17h1M47 17h1M47 18h1M47 19h1M0 24h1M14 24h3M0 25h1M12 25h6M0 26h1M10 26h8M0 27h1M9 27h9M33 27h1M47 27h1M0 28h2M8 28h11M32 28h3M47 28h1M0 29h2M8 29h11M32 29h4M47 29h1M0 30h3M7 30h12M31 30h6M46 30h2M0 31h3M7 31h11M30 31h8M46 31h2M0 32h4M7 32h10M30 32h8M46 32h2M0 33h5M6 33h10M23 33h2M29 33h9M45 33h3M0 34h14M21 34h4M29 34h10M45 34h3M0 35h13M20 35h4M28 35h11M45 35h3M0 36h12M18 36h6M28 36h11M44 36h4M0 37h10M17 37h7M28 37h11M44 37h4M0 38h8M15 38h8M27 38h12M43 38h5M0 39h6M13 39h10M27 39h12M42 39h6M0 40h4M11 40h11M26 40h14M41 40h7M0 41h3M9 41h13M26 41h22M0 42h4M7 42h14M25 42h23M0 43h20M24 43h24M0 44h19M23 44h25M0 45h18M22 45h26M0 46h17M21 46h27M0 47h18M20 47h28" />
<path stroke="#528c31" d="M37 0h4M14 1h4M34 1h3M40 1h2M18 2h3M32 2h1M39 2h3M21 3h1M30 3h1M35 3h1M40 3h2M10 4h1M14 4h3M28 4h2M33 4h3M8 5h1M14 5h6M22 5h3M28 5h1M33 5h3M7 6h1M15 6h15M31 6h5M40 6h1M6 7h1M11 7h2M15 7h20M39 7h1M41 7h1M5 8h1M9 8h4M16 8h19M40 8h1M4 9h1M8 9h5M16 9h18M39 9h1M41 9h2M7 10h7M17 10h17M38 10h1M40 10h1M42 10h1M3 11h1M6 11h8M18 11h1M20 11h12M39 11h1M41 11h3M5 12h10M20 12h13M38 12h1M40 12h4M2 13h1M5 13h10M20 13h12M35 13h1M37 13h1M39 13h6M4 14h12M21 14h9M31 14h1M34 14h1M36 14h1M38 14h7M1 15h1M4 15h13M20 15h1M22 15h5M28 15h1M30 15h1M33 15h1M35 15h1M37 15h8M3 16h15M21 16h1M23 16h1M25 16h1M27 16h1M29 16h1M32 16h1M34 16h1M36 16h10M3 17h12M16 17h1M18 17h1M22 17h1M24 17h1M26 17h1M30 17h2M33 17h13M0 18h1M3 18h11M15 18h1M17 18h1M19 18h2M23 18h1M25 18h1M28 18h18M0 19h1M2 19h11M14 19h1M16 19h1M18 19h1M20 19h1M22 19h24M2 20h10M13 20h1M15 20h1M17 20h1M19 20h1M21 20h1M23 20h24M1 21h12M14 21h1M16 21h1M18 21h1M20 21h1M22 21h25M1 22h11M13 22h1M15 22h1M17 22h1M19 22h1M21 22h26M1 23h10M12 23h1M18 23h1M20 23h1M22 23h13M36 23h11M2 24h10M20 24h16M37 24h10M2 25h8M21 25h8M32 25h4M37 25h10M2 26h7M19 26h1M21 26h7M34 26h3M38 26h9M2 27h2M5 27h1M7 27h1M20 27h5M26 27h1M28 27h1M35 27h2M38 27h8M4 28h1M6 28h1M21 28h1M23 28h1M25 28h1M27 28h1M36 28h2M39 28h7M3 29h1M5 29h1M22 29h1M24 29h1M37 29h1M39 29h7M4 30h1M40 30h5M19 31h2M26 31h1M40 31h5M5 32h1M18 32h4M26 32h3M41 32h4M17 33h4M26 33h2M41 33h3M16 34h4M26 34h2M41 34h3M14 35h4M24 35h1M26 35h2M41 35h3M13 36h4M26 36h1M41 36h2M10 37h1M12 37h3M25 37h2M41 37h2M8 38h1M10 38h3M23 38h1M25 38h2M40 38h2M6 39h1M9 39h2M24 39h2M40 39h1M4 40h1M7 40h2M22 40h1M24 40h2M3 41h1M6 41h1M23 41h2M22 42h2M20 43h3M20 44h2M19 45h2M18 46h2" />
<path stroke="#000000" d="M41 0h2M13 1h1M42 1h1M12 2h1M33 2h1M37 2h2M42 2h1M12 3h1M22 3h1M31 3h1M36 3h1M39 3h1M42 3h1M11 4h2M23 4h2M36 4h1M40 4h2M9 5h1M13 5h1M25 5h3M36 5h1M41 5h1M13 6h2M36 6h1M41 6h1M13 7h2M35 7h1M42 7h1M13 8h1M15 8h1M35 8h1M42 8h1M13 9h1M15 9h1M34 9h1M43 9h1M4 10h1M14 10h1M16 10h1M34 10h1M43 10h1M14 11h1M17 11h1M19 11h1M32 11h2M44 11h1M3 12h1M15 12h1M18 12h2M33 12h1M44 12h1M15 13h1M19 13h1M32 13h1M45 13h1M2 14h1M16 14h1M19 14h2M30 14h1M32 14h1M45 14h1M17 15h1M19 15h1M21 15h1M27 15h1M29 15h1M31 15h1M45 15h1M1 16h1M18 16h3M22 16h1M24 16h1M26 16h1M28 16h1M30 16h1M46 16h1M1 17h1M15 17h1M17 17h1M19 17h3M23 17h1M25 17h1M27 17h3M46 17h1M14 18h1M16 18h1M18 18h1M21 18h2M24 18h1M26 18h2M46 18h1M13 19h1M15 19h1M17 19h1M19 19h1M21 19h1M46 19h1M0 20h1M12 20h1M14 20h1M16 20h1M18 20h1M20 20h1M22 20h1M47 20h1M0 21h1M13 21h1M15 21h1M17 21h1M19 21h1M21 21h1M47 21h1M0 22h1M12 22h1M14 22h1M16 22h1M18 22h1M20 22h1M47 22h1M0 23h1M11 23h1M13 23h5M19 23h1M21 23h1M35 23h1M47 23h1M1 24h1M12 24h2M17 24h3M36 24h1M47 24h1M1 25h1M10 25h2M18 25h3M29 25h3M36 25h1M47 25h1M1 26h1M9 26h1M18 26h1M20 26h1M28 26h6M37 26h1M47 26h1M1 27h1M4 27h1M6 27h1M8 27h1M18 27h2M25 27h1M27 27h1M29 27h4M34 27h1M37 27h1M46 27h1M2 28h2M5 28h1M7 28h1M19 28h2M22 28h1M24 28h1M26 28h1M28 28h4M35 28h1M38 28h1M46 28h1M2 29h1M4 29h1M6 29h2M19 29h3M23 29h1M25 29h7M36 29h1M38 29h1M46 29h1M3 30h1M5 30h2M19 30h12M37 30h2M45 30h1M3 31h4M18 31h1M21 31h5M27 31h3M38 31h1M45 31h1M4 32h1M6 32h1M17 32h1M22 32h4M29 32h1M38 32h1M45 32h1M5 33h1M16 33h1M21 33h2M25 33h1M28 33h1M38 33h1M44 33h1M14 34h2M20 34h1M25 34h1M28 34h1M39 34h1M44 34h1M13 35h1M18 35h2M39 35h1M44 35h1M12 36h1M17 36h1M24 36h1M27 36h1M39 36h1M43 36h1M11 37h1M15 37h2M24 37h1M27 37h1M39 37h1M43 37h1M9 38h1M13 38h2M39 38h1M42 38h1M7 39h1M11 39h2M23 39h1M26 39h1M39 39h1M41 39h1M5 40h1M9 40h2M40 40h1M7 41h2M22 41h1M25 41h1M4 42h3M21 42h1M24 42h1M23 43h1M19 44h1M22 44h1M18 45h1M21 45h1M17 46h1M20 46h1M18 47h2" />
<path stroke="#de7bf7" d="M37 1h3M13 2h5M34 2h3M13 3h8M32 3h3M37 3h2M13 4h1M17 4h6M30 4h3M37 4h3M10 5h3M20 5h2M29 5h4M37 5h4M8 6h5M30 6h1M37 6h3M7 7h4M36 7h3M40 7h1M6 8h3M36 8h4M41 8h1M5 9h3M35 9h4M40 9h1M5 10h2M35 10h3M39 10h1M41 10h1M4 11h2M34 11h5M40 11h1M4 12h1M34 12h4M39 12h1M3 13h2M33 13h2M36 13h1M38 13h1M3 14h1M33 14h1M35 14h1M37 14h1M2 15h2M32 15h1M34 15h1M36 15h1M2 16h1M31 16h1M33 16h1M35 16h1M2 17h1M32 17h1M1 18h2M1 19h1M1 20h1M39 30h1M39 31h1M39 32h2M39 33h2M40 34h1M25 35h1M40 35h1M25 36h1M40 36h1M40 37h1M24 38h1M8 39h1M6 40h1M23 40h1M4 41h2" />
</svg>