<svg xmlns="http://www.w3.org/2000/svg" viewBox="0 -0.5 48 48" shape-rendering="crispEdges">
<metadata>Made with Pixels to Svg https://codepen.io/shshaw/pen/XbxvNj</metadata>
<path stroke="#ffffff" d="M0 0h48M0 1h48M0 2h48M0 3h48M0 4h48M0 5h48M0 6h48M0 7h23M27 7h21M0 8h21M23 8h4M28 8h20M0 9h20M21 9h4M29 9h19M0 10h19M20 10h3M29 10h19M0 11h18M30 11h18M0 12h17M30 12h18M0 13h17M31 13h17M0 14h11M16 14h5M31 14h3M39 14h9M0 15h10M11 15h5M18 15h3M34 15h4M40 15h8M0 16h11M20 16h1M31 16h2M40 16h8M0 17h13M14 17h1M29 17h1M38 17h10M0 18h14M38 18h10M0 19h14M15 19h1M39 19h9M0 20h10M14 20h1M38 20h1M43 20h5M0 21h8M10 21h3M40 21h3M44 21h4M0 22h7M8 22h2M43 22h5M0 23h6M7 23h1M42 23h6M0 24h6M41 24h7M0 25h9M40 25h8M0 26h12M38 26h10M0 27h14M37 27h11M0 28h16M35 28h13M0 29h18M32 29h16M0 30h19M33 30h15M0 31h18M33 31h15M0 32h18M34 32h14M0 33h17M34 33h14M0 34h17M35 34h13M0 35h16M35 35h13M0 36h16M35 36h13M0 37h16M35 37h13M0 38h16M35 38h13M0 39h17M35 39h13M0 40h17M34 40h14M0 41h18M34 41h14M0 42h20M33 42h15M0 43h21M31 43h17M0 44h17M23 44h3M30 44h18M0 45h16M22 45h5M31 45h17M0 46h16M21 46h5M31 46h17M0 47h16M21 47h5M32 47h16" />
<path stroke="#42945a" d="M23 7h1M21 8h1M20 9h1M19 10h1M18 11h1M27 11h1M17 12h1M26 12h1M28 12h1M23 13h1M25 13h1M27 13h1M29 13h1M11 14h2M22 14h1M24 14h1M26 14h1M28 14h1M10 15h1M23 15h1M25 15h1M27 15h1M29 15h1M26 16h1M28 16h1M16 25h1M15 26h1M16 27h2M18 28h1M19 29h1M21 30h1M32 30h1M19 31h5M19 32h7M33 32h1M18 33h11M18 34h10M29 34h1M34 34h1M17 35h12M17 36h11M29 36h1M18 37h1M20 37h7M28 37h1M16 38h1M19 38h1M21 38h1M23 38h1M25 38h1M27 38h1M20 39h1M22 39h1M24 39h1M26 39h1M34 39h1M17 40h1M18 41h1M33 41h1M20 42h1M32 42h1M30 43h1M17 44h1M22 44h1M26 44h1M16 45h3M21 45h1M30 45h1M17 46h2M26 46h1" />
<path stroke="#000000" d="M24 7h3M22 8h1M27 8h1M28 9h1M28 10h1M25 11h2M29 11h1M22 12h3M29 12h1M17 13h5M30 13h1M13 14h3M21 14h1M30 14h1M34 14h5M16 15h2M21 15h1M30 15h4M39 15h1M11 16h2M18 16h2M21 16h1M29 16h2M38 16h2M13 17h1M20 17h2M28 17h1M37 17h1M14 18h1M21 18h1M27 18h1M37 18h1M14 19h1M22 19h1M26 19h1M36 19h3M10 20h4M15 20h1M23 20h1M25 20h1M35 20h1M39 20h4M8 21h2M14 21h2M23 21h1M25 21h1M34 21h1M43 21h1M7 22h1M15 22h1M24 22h1M34 22h1M42 22h1M6 23h1M16 23h1M24 23h1M33 23h1M41 23h1M6 24h3M16 24h1M23 24h1M32 24h1M40 24h1M9 25h3M17 25h1M23 25h1M31 25h1M38 25h2M12 26h2M17 26h1M23 26h1M31 26h1M37 26h1M14 27h2M18 27h1M23 27h1M30 27h1M35 27h2M16 28h2M19 28h1M24 28h1M29 28h1M32 28h3M18 29h1M20 29h2M24 29h1M27 29h5M19 30h2M22 30h10M18 31h1M24 31h9M18 32h1M26 32h7M17 33h1M29 33h5M17 34h1M28 34h1M30 34h4M16 35h1M29 35h6M16 36h1M28 36h1M30 36h5M16 37h2M19 37h1M27 37h1M29 37h6M17 38h2M20 38h1M22 38h1M24 38h1M26 38h1M28 38h7M17 39h3M21 39h1M23 39h1M25 39h1M27 39h7M18 40h16M19 41h14M21 42h11M21 43h9M18 44h4M27 44h3M19 45h2M27 45h3M16 46h1M19 46h2M27 46h4M16 47h5M26 47h6" />
<path stroke="#ffd621" d="M25 9h3M23 10h5M19 11h6M28 11h1M18 12h4M25 12h1M27 12h1M22 13h1M24 13h1M26 13h1M28 13h1M23 14h1M25 14h1M27 14h1M29 14h1M22 15h1M24 15h1M26 15h1M28 15h1M38 15h1M13 16h5M22 16h4M27 16h1M33 16h5M15 17h5M22 17h6M30 17h7M15 18h6M22 18h5M28 18h9M16 19h6M23 19h3M27 19h9M16 20h7M24 20h1M26 20h9M36 20h2M13 21h1M16 21h7M24 21h1M26 21h8M35 21h5M10 22h5M16 22h8M25 22h9M35 22h7M8 23h8M17 23h7M25 23h8M34 23h7M9 24h7M17 24h6M24 24h8M33 24h7M12 25h4M18 25h5M24 25h7M32 25h6M14 26h1M16 26h1M18 26h5M24 26h7M32 26h5M19 27h4M24 27h6M31 27h4M20 28h4M25 28h4M30 28h2M22 29h2M25 29h2" />
</svg>