<svg xmlns="http://www.w3.org/2000/svg" viewBox="0 -0.5 32 32" shape-rendering="crispEdges">
<metadata>Made with Pixels to Svg https://codepen.io/shshaw/pen/XbxvNj</metadata>
<path stroke="#ffffff" d="M14 6h4M12 7h3M17 7h3M10 8h3M19 8h3M9 9h2M21 9h2M8 10h2M22 10h2M7 11h2M23 11h2M7 12h1M24 12h1M6 13h2M24 13h2M6 14h1M25 14h1M5 15h2M25 15h2M5 16h1M26 16h1M5 17h1M26 17h1M5 18h1M26 18h1M5 19h1M26 19h1M5 20h1M26 20h1M5 21h2M25 21h2M6 22h2M24 22h2M7 23h2M23 23h2M8 24h1M23 24h1M8 25h2M12 25h8M22 25h2M9 26h4M19 26h4" />
<path stroke="#202020" d="M15 7h2M13 8h2M17 8h2M11 9h2M14 9h1M17 9h1M19 9h2M10 10h1M21 10h1M9 11h1M11 11h2M19 11h2M22 11h1M8 12h1M10 12h3M15 12h2M19 12h3M23 12h1M8 13h1M11 13h1M14 13h4M20 13h1M23 13h1M7 14h1M14 14h4M24 14h1M7 15h1M24 15h1M6 16h1M25 16h1M6 17h1M25 17h1M6 18h1M25 18h1M6 19h1M25 19h1M6 20h1M25 20h1M7 21h1M24 21h1M8 22h1M23 22h1M9 23h3M20 23h3M9 24h1M12 24h8M22 24h1M10 25h2M20 25h2" />
<path stroke="#f6c5f6" d="M15 8h2M15 9h2M12 10h2M18 10h2M13 11h6M14 12h1M17 12h1M9 15h1M22 15h1M10 16h2M20 16h2M12 17h8" />
<path stroke="#ff83ff" d="M13 9h1M18 9h1M10 13h1M11 14h2M8 15h1M23 15h1" />
<path stroke="#deacde" d="M11 10h1M14 10h1M17 10h1M20 10h1M10 11h1M21 11h1M13 12h1M18 12h1M12 13h2M18 13h2M8 14h1M13 14h1M18 14h1M23 14h1M9 16h1M22 16h1M11 17h1M20 17h1" />
<path stroke="#736231" d="M15 10h2" />
<path stroke="#e639f6" d="M9 12h1M22 12h1M21 13h1M19 14h2M13 15h6M7 16h2M23 16h2M8 17h3M21 17h3M10 18h12M9 19h1M11 19h4M17 19h4M22 19h1M9 20h1M15 20h2M22 20h1M15 21h2" />
<path stroke="#a462cd" d="M9 13h1M10 14h1M21 14h1M12 15h1M19 15h1M7 17h1M24 17h1M7 18h2M23 18h2M11 20h3M18 20h3M11 21h3M18 21h3" />
<path stroke="#7b4ac5" d="M22 13h1M10 15h2M20 15h2M12 16h3M17 16h3M9 18h1M22 18h1M7 19h2M10 19h1M15 19h2M21 19h1M23 19h2M7 20h2M10 20h1M14 20h1M17 20h1M21 20h1M23 20h2M8 21h3M14 21h1M17 21h1M21 21h3M11 22h10" />
<path stroke="#8b319c" d="M9 14h1M22 14h1M15 16h2M9 22h2M21 22h2M12 23h8M10 24h2M20 24h2" />
</svg>