<svg xmlns="http://www.w3.org/2000/svg" viewBox="0 -0.5 64 64" shape-rendering="crispEdges">
<metadata>Made with Pixels to Svg https://codepen.io/shshaw/pen/XbxvNj</metadata>
<path stroke="#909078" d="M28 14h1M27 15h1M30 16h1M26 17h1M29 17h2M29 18h3M29 19h4M25 20h1M29 20h4M29 21h5M28 22h7M24 23h1M28 23h7M28 24h8M28 25h9M23 26h1M28 26h9M51 26h1M28 27h10M47 27h1M53 27h1M28 28h11M43 28h1M51 28h2M22 29h1M27 29h11M49 29h6M28 30h3M32 30h1M34 30h2M39 30h1M47 30h2M27 31h1M29 31h1M31 31h1M33 31h1M37 31h1M44 31h3M21 32h2M28 32h1M30 32h1M36 32h1M41 32h3M20 33h1M23 33h1M27 33h1M29 33h1M34 33h1M38 33h3M18 34h1M24 34h1M35 34h3M16 35h1M25 35h1M31 35h4M14 36h1M26 36h1M30 36h2M12 37h1M26 37h1M28 37h1M10 38h1M18 38h7M27 38h1M29 38h3M10 39h8M26 39h1M28 39h1M26 40h1M38 40h1M26 41h2M32 41h3M41 41h2M47 41h1M12 42h1M25 42h3M33 42h8M45 42h1M14 43h1M25 43h4M34 43h8M16 44h1M25 44h4M36 44h7M18 45h1M24 45h5M37 45h6M24 46h6M38 46h6M47 46h1M24 47h6M40 47h4M23 48h7M41 48h4M48 48h1M23 49h8M43 49h3M23 50h8M44 50h1M46 50h1M49 50h1" />
<path stroke="#606048" d="M29 14h1M30 15h1M27 16h1M26 18h1M26 19h1M25 21h1M25 22h1M35 23h1M24 24h1M24 25h1M52 26h3M23 27h1M48 27h3M55 27h1M23 28h1M44 28h3M38 29h5M22 30h1M27 30h1M31 30h1M33 30h1M36 30h3M54 30h1M22 31h1M28 31h1M30 31h1M32 31h1M34 31h3M27 32h1M29 32h1M31 32h5M53 32h1M19 33h1M28 33h1M30 33h4M17 34h1M27 34h6M15 35h1M27 35h4M51 35h1M13 36h1M27 36h3M11 37h1M27 37h1M9 38h1M49 38h1M8 39h1M29 39h6M8 40h1M29 40h9M48 40h1M9 41h1M31 41h1M35 41h6M11 42h1M32 42h1M41 42h4M13 43h1M33 43h1M45 43h2M15 44h1M35 44h1M17 45h1M36 45h1M19 46h1M37 46h1M19 47h1M39 47h1M19 48h1M40 48h1M18 49h1M41 49h2M18 50h1M43 50h1" />
<path stroke="#e0e0c8" d="M28 15h2M28 16h1M27 17h2M27 18h2M27 19h2M26 20h3M26 21h2M26 22h2M25 23h3M25 24h3M25 25h3M24 26h4M24 27h3M51 27h2M54 27h1M25 28h1M47 28h4M53 28h2M43 29h5M40 30h6M38 31h5M53 31h1M37 32h3M51 32h1M21 33h2M35 33h2M50 33h1M52 33h1M19 34h5M33 34h2M49 34h1M51 34h1M17 35h8M48 35h1M50 35h1M15 36h11M47 36h1M49 36h1M13 37h13M46 37h1M48 37h1M11 38h7M44 38h1M47 38h2M9 39h1M25 39h1M43 39h1M45 39h3M9 40h1M25 40h1M42 40h1M44 40h3M24 41h1M43 41h4M23 42h2M46 42h1M22 43h3M21 44h3M21 45h3M20 46h4M20 47h3M20 48h3M19 49h4M19 50h3" />
<path stroke="#b8b8a0" d="M29 16h1M28 21h1M27 27h1M24 28h1M26 28h2M23 29h4M48 29h1M23 30h4M46 30h1M49 30h5M23 31h4M43 31h1M47 31h6M23 32h4M40 32h1M44 32h7M52 32h1M24 33h3M37 33h1M41 33h9M51 33h1M25 34h2M38 34h11M50 34h1M26 35h1M35 35h13M49 35h1M32 36h15M48 36h1M50 36h1M29 37h17M47 37h1M49 37h1M25 38h2M28 38h1M32 38h12M45 38h2M18 39h7M27 39h1M35 39h8M44 39h1M48 39h1M10 40h15M27 40h2M39 40h3M43 40h1M47 40h1M10 41h14M25 41h1M28 41h3M13 42h10M28 42h4M15 43h7M29 43h4M42 43h3M17 44h4M24 44h1M29 44h6M43 44h4M19 45h2M29 45h7M43 45h4M30 46h7M44 46h3M23 47h1M30 47h9M44 47h4M30 48h10M45 48h3M31 49h10M46 49h3M22 50h1M31 50h12M45 50h1M47 50h2" />
<path stroke="#101010" d="M31 16h1M31 17h1M32 18h1M33 19h1M33 20h1M34 21h1M35 22h1M36 24h1M37 25h1M37 26h1M38 27h1M39 28h1M55 28h1M55 29h1M54 31h1M53 33h1M52 34h1M51 36h1M50 37h1M49 39h1M48 41h1M10 42h1M47 42h1M12 43h1M47 43h1M14 44h1M47 44h1M16 45h1M47 45h1M18 46h1M48 46h1M48 47h1M49 48h1M49 49h1M50 50h1" />
</svg>