<svg xmlns="http://www.w3.org/2000/svg" viewBox="0 -0.5 64 64" shape-rendering="crispEdges">
<metadata>Made with Pixels to Svg https://codepen.io/shshaw/pen/XbxvNj</metadata>
<path stroke="#666666" d="M32 11h1M41 12h1M32 13h2M41 13h1M32 14h2M41 14h2M41 15h1M41 16h1M28 19h5M40 19h1M27 20h1M31 20h2M40 20h1M26 21h1M25 22h1M43 22h3M25 23h1M46 23h1M15 24h3M47 24h1M14 25h1M47 25h1M13 26h1M47 26h1M12 27h1M47 27h1M12 28h1M32 28h3M12 29h1M17 29h1M31 29h5M51 29h2M12 30h1M16 30h1M31 30h5M50 30h1M13 31h1M15 31h1M30 31h6M50 31h3M14 32h1M30 32h5M49 32h1M30 33h4M49 33h1M19 34h2M31 34h2M10 35h1M18 35h4M48 35h3M9 36h1M17 36h5M46 36h3M8 37h1M17 37h5M16 38h5M7 39h1M16 39h4M7 40h1M17 40h2M53 40h2M7 41h1M52 41h1M55 41h1M7 42h1M51 42h2M56 42h1M47 43h1M53 43h1M47 44h2M54 44h1M11 45h1M30 45h2M48 45h1M29 46h3M10 47h1M28 47h3M28 48h2M9 49h1M27 49h2M47 50h3M43 52h3" />
<path stroke="#101010" d="M33 11h1M42 11h2M33 12h1M43 12h1M34 13h1M43 13h1M34 14h1M43 14h1M33 15h3M42 15h2M33 16h3M42 16h2M33 17h3M41 17h3M33 18h3M41 18h3M41 19h3M41 20h3M41 21h3M18 24h1M19 25h1M22 25h2M20 26h2M19 27h1M46 27h1M17 28h2M41 28h1M47 28h1M16 29h1M18 29h1M36 29h1M42 29h1M47 29h1M53 29h2M15 30h1M17 30h2M36 30h2M47 30h1M55 30h1M14 31h1M16 31h2M36 31h3M43 31h1M56 31h1M13 32h1M15 32h3M35 32h4M46 32h1M53 32h1M56 32h1M13 33h4M21 33h1M34 33h6M44 33h1M54 33h2M57 33h1M12 34h3M21 34h2M33 34h7M45 34h1M48 34h3M57 34h1M11 35h2M22 35h2M31 35h9M45 35h3M51 35h1M57 35h1M12 36h1M22 36h3M32 36h7M45 36h1M49 36h3M57 36h1M22 37h3M33 37h4M46 37h5M56 37h1M21 38h5M46 38h2M51 38h5M20 39h6M46 39h1M11 40h1M16 40h1M19 40h7M46 40h1M11 41h1M16 41h10M46 41h1M11 42h1M16 42h9M46 42h2M7 43h1M10 43h2M16 43h9M46 43h1M48 43h1M50 43h1M57 43h1M8 44h1M10 44h2M17 44h7M46 44h1M49 44h2M57 44h1M9 45h2M12 45h1M18 45h6M32 45h2M45 45h3M49 45h1M55 45h1M57 45h1M11 46h2M19 46h3M32 46h3M45 46h1M47 46h3M56 46h2M12 47h2M20 47h1M31 47h5M45 47h1M48 47h2M56 47h1M10 48h1M13 48h3M20 48h1M30 48h6M44 48h1M50 48h1M55 48h1M13 49h4M20 49h1M29 49h8M44 49h1M51 49h4M9 50h1M14 50h3M27 50h10M43 50h2M9 51h1M14 51h4M21 51h1M27 51h10M43 51h4M50 51h1M9 52h1M15 52h3M21 52h1M27 52h10M42 52h1M46 52h2M51 52h1" />
<path stroke="#b0b0b0" d="M32 12h1M42 12h1M42 13h1M44 24h1M46 25h1M46 26h1M18 27h1M13 30h2M56 33h1M56 34h1M56 35h1M55 36h2M51 37h5M7 38h1M11 39h1M10 42h1M52 43h1M56 43h1M9 44h1M56 44h1M56 45h1M55 46h1M55 47h1M51 48h4M47 51h3M13 52h2M48 52h3" />
<path stroke="#804810" d="M33 19h4M37 20h3M29 21h2M40 21h1M27 22h2M42 22h1M26 23h1M32 24h2M34 25h3M44 25h1M37 26h2M45 26h1M39 27h2M46 28h1M46 29h1M43 30h1M46 30h1M46 31h2M44 32h2M45 33h2M44 34h1M39 36h1M37 37h2M45 37h1M45 38h1M45 39h1M45 40h1M45 41h1M45 42h1M45 43h1M45 44h1M44 45h1M44 46h1M44 47h1M43 48h1M43 49h1M42 50h1M42 51h1M41 52h1" />
<path stroke="#f8f8f8" d="M28 20h3M27 21h2M26 22h1M43 23h3M45 24h1M15 25h4M14 26h6M15 27h2M51 30h1M53 30h2M53 31h2M50 32h3M54 32h1M50 33h4M51 34h4M52 35h2M10 36h1M9 37h2M8 38h3M8 39h2M8 40h2M8 41h2M53 41h2M8 42h1M53 42h2M51 43h1M54 43h1M51 44h3M50 45h4M50 46h4M11 47h1M11 48h2M10 49h3M10 50h2M10 51h2" />
<path stroke="#f8a000" d="M33 20h4M31 21h2M36 21h4M29 22h3M37 22h5M27 23h6M36 23h6M34 24h8M24 25h1M30 25h3M37 25h4M30 26h6M20 27h1M31 27h7M19 28h1M31 28h1M35 28h4M37 29h2M30 30h1M38 30h1M18 31h1M29 32h1M17 33h2M27 33h3M15 34h4M25 34h6M13 35h5M25 35h6M13 36h4M25 36h7M12 37h5M26 37h7M12 38h4M26 38h11M12 39h4M26 39h11M12 40h4M26 40h10M12 41h4M26 41h10M12 42h4M26 42h9M12 43h4M25 43h10M12 44h5M25 44h8M13 45h4M24 45h6M13 46h5M23 46h6M15 47h5M21 47h7M17 48h3M21 48h7M17 49h3M21 49h6M18 50h2M21 50h5M18 51h3M22 51h2" />
<path stroke="#f8d828" d="M33 21h3M32 22h5M33 23h3M25 25h3M22 26h4M28 26h2M21 27h4M26 27h5M20 28h4M25 28h6M19 29h4M24 29h7M19 30h4M24 30h6M19 31h3M23 31h7M18 32h4M23 32h6M19 33h2M22 33h5M24 34h1" />
<path stroke="#c87800" d="M42 23h1M24 24h8M42 24h2M28 25h2M33 25h1M41 25h3M26 26h2M36 26h1M39 26h6M25 27h1M38 27h1M41 27h5M24 28h1M39 28h2M42 28h4M23 29h1M39 29h3M43 29h3M23 30h1M39 30h4M44 30h2M22 31h1M39 31h4M44 31h2M22 32h1M39 32h5M40 33h4M23 34h1M40 34h4M24 35h1M40 35h5M40 36h5M25 37h1M39 37h6M37 38h8M37 39h8M36 40h9M36 41h9M25 42h1M35 42h10M35 43h10M24 44h1M33 44h12M17 45h1M34 45h10M18 46h1M22 46h1M35 46h9M14 47h1M36 47h8M16 48h1M36 48h7M37 49h6M17 50h1M20 50h1M26 50h1M37 50h5M24 51h3M37 51h5M18 52h3M22 52h5M37 52h4" />
<path stroke="#cccccc" d="M46 24h1M45 25h1M13 27h2M17 27h1M13 28h4M13 29h3M52 30h1M55 31h1M55 32h1M55 34h1M54 35h2M11 36h1M52 36h3M11 37h1M11 38h1M10 39h1M10 40h1M10 41h1M9 42h1M55 42h1M8 43h2M55 43h1M55 44h1M54 45h1M54 46h1M50 47h5M12 50h2M12 51h2M10 52h3" />
</svg>