<svg xmlns="http://www.w3.org/2000/svg" viewBox="0 -0.5 64 64" shape-rendering="crispEdges">
<metadata>Made with Pixels to Svg https://codepen.io/shshaw/pen/XbxvNj</metadata>
<path stroke="#704800" d="M15 18h5M14 19h1M20 19h2M13 20h1M22 20h2M14 21h2M24 21h2M16 22h2M26 22h2M18 23h3M21 24h2M21 43h3M20 44h2M24 44h1M19 45h1M18 46h1M26 46h1" />
<path stroke="#f8a038" d="M15 19h5M15 20h7M18 21h6M19 22h7M22 23h6M25 24h4M36 39h1M35 40h2M35 41h2M39 41h1M34 42h2M38 42h2M24 43h2M34 43h1M37 43h2M42 43h1M22 44h1M25 44h1M36 44h2M41 44h2M20 45h2M24 45h2M36 45h1M40 45h2M19 46h2M23 46h2M39 46h2" />
<path stroke="#d06810" d="M14 20h1M16 21h2M18 22h1M21 23h1M24 24h1M29 24h1M27 25h1M35 39h1M37 40h1M34 41h1M38 41h1M36 42h1M40 42h1M35 43h1M39 43h1M41 43h1M23 44h1M26 44h1M38 44h1M43 44h1M22 45h1M26 45h1M37 45h1M42 45h1M21 46h1M25 46h1M41 46h1" />
<path stroke="#70b808" d="M30 22h4M23 26h1M22 27h1M42 27h1M21 28h1M42 28h2M42 29h2M20 30h1M42 30h3M42 31h3M41 32h4M19 33h1M41 33h5M19 34h1M40 34h6M43 35h3M44 36h2M20 37h1M45 37h1M20 38h1M21 39h1M21 40h2M21 41h4M31 41h2M22 42h2M26 42h6M27 43h5M28 44h5M28 45h5M28 46h6" />
<path stroke="#406800" d="M34 22h2M36 23h1M39 24h1M21 29h1M45 30h1M20 31h1M45 31h1M20 32h1M45 32h1M46 33h1M19 35h1M19 36h1" />
<path stroke="#282828" d="M28 23h2M37 23h2M23 24h1M30 24h1M40 24h1M24 25h3M28 25h2M41 25h1M42 26h1M43 27h1M44 28h1M44 29h1M48 33h1M46 34h1M48 34h1M46 35h2M36 36h1M46 36h1M19 37h1M35 37h3M46 37h1M19 38h1M34 38h6M46 38h1M20 39h1M34 39h1M37 39h4M46 39h1M20 40h1M33 40h2M38 40h5M46 40h1M20 41h1M33 41h1M37 41h1M40 41h4M46 41h1M21 42h1M24 42h2M32 42h2M37 42h1M41 42h5M26 43h1M32 43h2M36 43h1M40 43h1M43 43h3M27 44h1M33 44h3M39 44h2M44 44h1M23 45h1M27 45h1M33 45h3M38 45h2M43 45h2M22 46h1M27 46h1M34 46h5M42 46h2" />
<path stroke="#a0e030" d="M30 23h6M31 24h8M30 25h11M26 26h16M26 27h16M27 28h15M26 29h16M21 30h1M25 30h1M27 30h15M22 31h1M24 31h1M26 31h16M21 32h1M23 32h1M25 32h16M20 33h21M20 34h20M20 35h18M20 36h16M21 37h14M21 38h13M22 39h12M23 40h10M25 41h6" />
<path stroke="#b8f840" d="M24 26h2M23 27h3M22 28h5M22 29h4M22 30h3M26 30h1M21 31h1M23 31h1M25 31h1M22 32h1M24 32h1" />
<path stroke="#b89020" d="M46 31h1M47 32h1M47 34h1M38 36h1M42 36h1M38 37h2M43 37h1M40 38h1M44 38h1M41 39h2M43 40h1M44 41h1" />
<path stroke="#f8d840" d="M46 32h1M47 33h1M39 36h3M40 37h3M41 38h3M43 39h2M44 40h1" />
<path stroke="#885800" d="M38 35h5M37 36h1M43 36h1M44 37h1M45 38h1M45 39h1M45 40h1M45 41h1" />
</svg>