<svg xmlns="http://www.w3.org/2000/svg" viewBox="0 -0.5 64 64" shape-rendering="crispEdges">
<metadata>Made with Pixels to Svg https://codepen.io/shshaw/pen/XbxvNj</metadata>
<path stroke="#d0a818" d="M24 8h2M44 8h2M22 9h2M42 9h2M49 9h1M20 10h2M28 10h2M40 10h2M18 11h2M26 11h2M29 11h1M39 11h1M51 11h1M17 12h1M25 12h2M28 12h1M38 12h1M50 12h2M16 13h1M24 13h3M37 13h1M49 13h3M15 14h1M24 14h2M37 14h1M49 14h2M15 15h1M24 15h2M36 15h1M48 15h2M15 16h1M24 16h2M36 16h1M48 16h2M14 17h1M24 17h2M48 17h1M14 18h1M24 18h2M47 18h2M14 19h1M24 19h2M35 19h1M47 19h2M14 20h1M24 20h2M35 20h1M47 20h1M14 21h1M24 21h2M47 21h1M14 22h1M24 22h3M47 22h1M25 23h2M46 23h2M25 24h2M46 24h2M25 25h2M46 25h1M25 26h3M45 26h2M25 27h3M30 27h2M45 27h2M24 28h6M45 28h2M17 29h1M23 29h2M44 29h3M17 30h6M35 30h1M44 30h2M18 31h4M36 31h1M43 31h3M18 32h3M36 32h1M43 32h3M19 33h1M41 33h5M41 34h5M18 35h1M41 35h5M47 35h1M42 36h6M17 37h1M42 37h7M43 38h6M16 39h1M43 39h6M43 40h7M43 41h7M15 42h1M42 42h8M42 43h8M42 44h9M15 45h1M41 45h10M6 46h4M12 46h1M15 46h1M41 46h5M47 46h4M4 47h2M12 47h1M15 47h1M40 47h5M46 47h1M48 47h3M3 48h1M13 48h2M16 48h1M39 48h6M50 48h1M2 49h1M14 49h2M38 49h3M42 49h2M49 49h1M2 50h1M14 50h2M37 50h4M42 50h3M51 50h1M1 51h1M15 51h2M35 51h6M42 51h3M53 51h1M1 52h1M15 52h2M33 52h3M39 52h3M43 52h3M57 52h1M1 53h1M15 53h2M19 53h3M30 53h5M40 53h2M43 53h4M60 53h1M15 54h2M18 54h3M29 54h5M41 54h2M44 54h4M60 54h2M2 55h1M14 55h3M18 55h3M29 55h5M41 55h3M45 55h5M59 55h3" />
<path stroke="#805828" d="M26 8h3M46 8h3M29 9h1M50 9h1M30 10h1M51 10h1M28 11h1M52 11h1M27 12h1M26 14h1M26 15h1M50 15h1M36 17h1M49 17h1M36 18h1M26 20h1M48 20h1M26 21h1M35 21h1M27 22h1M35 22h1M14 23h1M27 23h1M35 23h1M14 24h1M27 24h1M35 24h1M15 25h1M27 25h1M35 25h1M47 25h1M15 26h1M28 26h1M35 26h1M47 26h1M15 27h1M28 27h1M32 27h4M16 28h1M35 28h1M16 29h1M25 29h2M35 29h1M16 30h1M23 30h2M17 31h1M22 31h1M21 32h1M20 33h1M47 33h1M19 34h1M46 34h2M46 35h1M48 35h1M18 36h1M48 36h1M49 37h1M17 38h1M16 40h1M50 40h1M16 41h1M15 43h1M15 44h1M51 44h1M14 45h1M10 46h2M14 46h1M46 46h1M13 47h2M47 47h1M48 48h2M16 49h1M41 49h1M50 49h2M41 50h1M52 50h2M17 51h1M54 51h4M42 52h1M58 52h1M1 54h1M1 55h1" />
<path stroke="#f8e850" d="M24 9h3M44 9h5M22 10h4M42 10h4M47 10h1M20 11h4M41 11h2M44 11h1M46 11h1M48 11h1M21 12h1M43 12h1M45 12h1M47 12h1M30 28h5M28 29h6M27 30h6M34 30h1M27 31h1M29 31h1M31 31h1M33 31h1M28 32h1M30 32h1M32 32h1M34 32h1M31 33h1M33 33h1M5 48h3M4 49h1M7 49h2M3 50h1M8 50h1M3 51h1M8 51h1M3 52h2M7 52h3M4 53h4M9 53h1M7 54h3" />
<path stroke="#f8d038" d="M27 9h2M26 10h2M46 10h1M48 10h3M24 11h2M40 11h1M43 11h1M45 11h1M47 11h1M49 11h2M18 12h3M22 12h3M39 12h4M44 12h1M46 12h1M48 12h2M17 13h7M38 13h11M16 14h8M38 14h11M16 15h8M37 15h11M16 16h8M37 16h11M15 17h9M37 17h11M15 18h9M37 18h10M15 19h9M36 19h11M15 20h9M36 20h11M15 21h9M36 21h11M15 22h9M36 22h11M15 23h10M36 23h10M15 24h10M36 24h10M16 25h9M36 25h10M16 26h9M36 26h9M16 27h9M36 27h9M17 28h7M36 28h9M18 29h5M27 29h1M34 29h1M36 29h8M25 30h2M33 30h1M36 30h8M23 31h4M28 31h1M30 31h1M32 31h1M34 31h2M37 31h6M22 32h6M29 32h1M31 32h1M33 32h1M35 32h1M37 32h6M21 33h10M32 33h1M34 33h7M20 34h21M19 35h22M19 36h23M18 37h24M18 38h25M17 39h26M17 40h26M17 41h26M16 42h26M16 43h26M16 44h26M16 45h25M16 46h25M6 47h6M16 47h24M45 47h1M4 48h1M8 48h5M17 48h13M33 48h6M45 48h3M3 49h1M9 49h5M17 49h12M34 49h4M44 49h5M9 50h5M19 50h10M34 50h3M45 50h6M2 51h1M9 51h6M20 51h9M34 51h1M45 51h8M2 52h1M10 52h5M20 52h3M27 52h3M46 52h11M2 53h2M10 53h5M28 53h2M47 53h13M2 54h5M10 54h5M48 54h12M3 55h11M50 55h9" />
<path stroke="#101010" d="M30 11h1M29 12h1M52 12h1M27 13h2M52 13h1M51 14h1M26 16h1M50 16h1M26 17h1M26 18h1M49 18h1M26 19h1M49 19h1M48 21h1M48 22h1M48 23h1M48 24h1M47 27h1M47 28h1M47 29h1M46 30h1M46 31h1M17 32h1M46 32h1M18 33h1M46 33h1M49 38h1M49 39h1M50 41h1M50 42h1M50 43h1M51 45h1M51 46h1M51 47h1M15 48h1M51 48h1M16 50h1M41 51h1M17 52h1M59 52h2M17 53h1M42 53h1M61 53h1M17 54h1M43 54h1M62 54h1M17 55h1M44 55h1M62 55h1" />
<path stroke="#f8f8f8" d="M30 48h3M5 49h2M29 49h5M4 50h4M17 50h2M29 50h5M4 51h4M18 51h2M29 51h5M5 52h2M23 52h4M30 52h3M8 53h1M22 53h6" />
<path stroke="#cccccc" d="M18 52h2M36 52h3M18 53h1M35 53h5M21 54h8M34 54h7M21 55h8M34 55h7" />
</svg>