<svg xmlns="http://www.w3.org/2000/svg" viewBox="0 -0.5 64 64" shape-rendering="crispEdges">
<metadata>Made with Pixels to Svg https://codepen.io/shshaw/pen/XbxvNj</metadata>
<path stroke="#605000" d="M29 9h2M28 10h1M31 10h1M28 11h1M32 11h1M26 12h2M18 13h5M25 13h1M37 13h5M48 13h1M17 14h1M23 14h1M35 14h2M47 14h1M49 14h1M17 15h1M33 15h2M44 15h3M18 16h1M32 16h1M43 16h1M18 17h1M32 17h1M18 18h1M31 18h1M17 19h1M31 19h1M15 20h3M31 20h1M44 20h3M14 21h1M17 21h1M42 21h2M47 21h2M14 22h1M18 22h1M41 22h1M49 22h1M13 23h1M16 23h1M40 23h1M50 23h2M14 24h2M20 24h1M40 24h1M13 25h1M39 25h1M12 26h1M39 26h1M12 27h1M39 27h1M11 28h1M39 28h1M10 29h1M40 29h1M51 29h1M11 30h1M40 30h1M52 30h1M11 31h1M41 31h1M52 31h1M12 32h1M42 32h2M53 32h1M12 33h1M11 34h1M44 34h2M10 35h1M15 35h1M46 35h2M10 36h1M41 36h1M48 36h1M11 37h1M16 37h2M40 37h1M48 37h1M12 38h1M15 38h1M40 38h1M49 38h1M13 39h2M39 39h1M14 40h1M39 40h1M14 41h1M39 41h1M50 41h1M13 42h1M39 42h1M13 43h1M39 43h1M12 44h1M40 44h1M51 44h1M13 45h2M41 45h1M15 46h1M42 46h2M17 47h1M29 47h1M41 47h1M18 48h1M28 48h1M18 49h1M19 50h1M29 50h1M41 50h1M19 51h1M20 52h1M31 52h1" />
<path stroke="#c8a820" d="M29 10h2M29 11h3M28 12h6M29 13h6M30 14h5M48 14h1M31 15h2M47 15h2M31 16h1M45 16h4M45 17h4M46 18h3M46 19h4M47 20h3M33 21h1M21 25h1M38 25h1M50 25h1M21 26h1M38 26h1M49 26h2M37 27h2M48 27h2M37 28h2M40 28h1M47 28h3M37 29h3M45 29h5M36 30h4M41 30h9M12 31h1M37 31h4M42 31h7M13 32h1M39 32h3M44 32h4M40 33h3M39 34h4M37 35h5M43 35h3M36 36h5M47 36h1M37 37h3M37 38h3M48 38h1M20 39h1M36 39h3M40 39h1M48 39h1M20 40h1M35 40h4M40 40h1M48 40h1M27 41h1M31 41h2M34 41h5M40 41h3M47 41h3M19 42h1M26 42h2M31 42h8M40 42h10M14 43h1M17 43h3M26 43h3M30 43h8M40 43h10M13 44h7M27 44h9M41 44h10M15 45h6M29 45h5M36 45h2M42 45h6M17 46h3M34 46h6M44 46h2M30 47h11M29 48h12M29 49h12M30 50h11M30 51h6M37 51h1M39 51h1M32 52h3M36 52h1M38 52h1M35 53h1M37 53h1M36 54h1" />
<path stroke="#101010" d="M33 11h1M34 12h1M35 13h1M42 13h1M24 14h3M42 14h1M27 15h1M41 15h1M49 15h1M28 16h1M42 16h1M49 16h1M28 17h1M42 17h1M49 17h1M29 18h1M43 18h1M49 18h1M29 19h1M43 19h1M50 19h1M29 20h1M43 20h1M50 20h1M50 21h1M50 22h1M17 23h3M21 24h1M52 24h1M22 25h1M51 25h1M51 26h1M28 27h1M50 27h1M29 28h1M36 28h1M50 28h1M36 29h1M50 29h1M35 30h1M50 30h1M49 31h1M48 32h1M13 33h1M39 33h1M43 33h5M54 33h1M14 34h1M37 34h2M43 34h1M53 34h1M16 35h2M35 35h2M42 35h1M52 35h1M18 36h1M52 36h1M51 37h1M50 38h1M31 39h1M34 39h2M49 39h1M31 40h1M34 40h1M49 40h1M26 41h1M28 41h1M28 42h1M50 42h1M25 43h1M29 43h1M38 43h1M50 43h1M25 44h1M37 44h1M25 45h1M34 45h2M38 45h2M48 45h3M16 46h1M20 46h1M26 46h1M30 46h3M40 46h1M46 46h2M18 47h2M26 47h1M44 47h3M27 48h1M41 48h1M46 48h1M28 49h1M41 49h1M46 49h1M28 50h1M45 50h1M29 51h1M40 51h1M45 51h1M30 52h1M40 52h3M44 52h1M30 53h1M32 53h2M38 53h2M43 53h1M31 54h1M34 54h2M37 54h1M31 55h1M36 55h1" />
<path stroke="#907800" d="M26 13h3M27 14h3M28 15h3M29 16h2M44 16h1M29 17h3M43 17h2M30 18h1M44 18h2M30 19h1M44 19h2M30 20h1M15 21h2M49 21h1M15 22h3M14 23h2M51 30h1M50 31h2M49 32h4M48 33h6M12 34h2M46 34h7M11 35h4M48 35h4M11 36h7M49 36h3M12 37h4M49 37h2M13 38h2M38 44h2M26 45h1M40 45h1M27 46h2M41 46h1M20 47h1M27 47h2M42 47h2M19 48h2M42 48h4M19 49h3M42 49h4M20 50h2M42 50h3M20 51h2M41 51h4M39 52h1M43 52h1" />
<path stroke="#f8f8a0" d="M18 14h5M37 14h5M18 15h7M35 15h6M19 16h7M33 16h8M19 17h8M33 17h7M19 18h8M32 18h8M19 19h8M32 19h7M20 20h6M32 20h6M21 21h4M34 21h3M44 21h3M42 22h7M41 23h9M16 24h3M26 24h4M41 24h11M14 25h6M25 25h3M40 25h9M13 26h8M24 26h2M40 26h8M13 27h8M23 27h2M41 27h6M12 28h9M23 28h2M41 28h5M11 29h9M22 29h3M42 29h2M12 30h7M22 30h2M13 31h5M22 31h2M14 32h3M21 32h2M21 33h1M21 34h2M22 35h1M42 36h4M18 37h2M41 37h6M16 38h4M41 38h7M15 39h5M41 39h7M15 40h5M42 40h5M15 41h4M44 41h2M15 42h2" />
<path stroke="#e8d850" d="M25 15h2M26 16h2M41 16h1M27 17h1M40 17h2M27 18h2M40 18h3M18 19h1M27 19h2M39 19h4M18 20h2M26 20h3M38 20h5M18 21h3M25 21h4M37 21h5M19 22h8M35 22h6M20 23h5M37 23h3M19 24h1M22 24h2M39 24h1M20 25h1M49 25h1M48 26h1M40 27h1M47 27h1M46 28h1M41 29h1M44 29h1M19 30h1M18 31h2M17 32h2M14 33h5M15 34h4M18 35h1M46 36h1M47 37h1M41 40h1M47 40h1M19 41h1M43 41h1M46 41h1M14 42h1M17 42h2M15 43h2M36 51h1M38 51h1M35 52h1M37 52h1M34 53h1M36 53h1" />
<path stroke="#504800" d="M29 21h4M27 22h2M33 22h2M25 23h2M35 23h2M24 24h1M37 24h2M23 25h1M22 26h1M26 26h2M30 26h1M21 27h1M25 27h1M29 27h1M31 27h1M34 27h2M21 28h1M25 28h1M31 28h3M20 29h1M26 29h1M31 29h1M20 30h1M26 30h1M20 31h1M25 31h1M27 31h1M35 31h2M19 32h1M23 32h2M27 32h2M37 32h2M19 33h1M22 33h1M26 33h2M19 34h1M23 34h1M25 34h1M19 35h1M24 35h1M34 35h1M19 36h1M23 36h1M35 36h1M20 37h1M22 37h1M29 37h2M36 37h1M20 38h1M22 38h1M28 38h1M36 38h1M21 39h1M27 39h1M21 40h1M26 40h2M32 40h1M20 41h1M30 41h1M33 41h1M20 42h1M25 42h1M30 42h1M20 43h1M20 44h1M26 44h1M36 44h1M21 45h1M27 45h2M21 46h1M29 46h1M33 46h1M21 47h1M21 48h1M22 49h1M22 50h1M22 51h1M21 52h1M21 53h1M21 54h1M20 55h1" />
<path stroke="#e0d858" d="M29 22h4M27 23h8M25 24h1M30 24h7M24 25h1M28 25h10M23 26h1M28 26h2M31 26h7M22 27h1M32 27h2M36 27h1M22 28h1M21 29h1M25 29h1M21 30h1M24 30h2M21 31h1M24 31h1M20 32h1M20 33h1M20 34h1M20 35h2M20 36h3M21 37h1M21 38h1" />
<path stroke="#b0a828" d="M26 27h2M30 27h1M26 28h3M30 28h1M34 28h2M27 29h4M32 29h4M27 30h8M26 31h1M28 31h7M25 32h2M29 32h6M23 33h3M28 33h6M24 34h1M26 34h1M29 34h4M23 35h1M25 35h1M28 35h3M24 36h1M27 36h3M23 37h1M26 37h3M25 38h3M22 39h1M24 39h3M24 40h1M21 41h1M23 41h2M21 42h1M23 42h1M21 43h1M23 43h1M21 44h3M22 45h2M22 46h2M22 47h2M22 48h3M23 49h3M23 50h3M23 51h3M22 52h4M22 53h4M22 54h3M21 55h4" />
<path stroke="#787000" d="M35 32h2M34 33h5M33 34h4M31 35h3M30 36h5M31 37h5M29 38h7M28 39h3M32 39h2M25 40h1M28 40h3M33 40h1M25 41h1M29 41h1M24 42h1M29 42h1M24 43h1M24 44h1M24 45h1M24 46h2M24 47h2M25 48h2M26 49h2M26 50h2M26 51h3M26 52h4M26 53h4M25 54h6M25 55h6" />
<path stroke="#e0d848" d="M27 34h2M26 35h2M25 36h2M24 37h2M23 38h2M23 39h1M22 40h2M22 41h1M22 42h1M22 43h1" />
</svg>