<svg xmlns="http://www.w3.org/2000/svg" viewBox="0 -0.5 64 64" shape-rendering="crispEdges">
<metadata>Made with Pixels to Svg https://codepen.io/shshaw/pen/XbxvNj</metadata>
<path stroke="#585050" d="M58 5h1M57 6h1M56 7h1M59 7h1M55 8h1M59 8h1M54 9h1M59 9h1M53 10h1M59 10h1M52 11h1M58 11h2M20 12h1M23 12h3M52 12h1M58 12h2M21 13h1M25 13h4M58 13h2M8 14h2M21 14h1M25 14h6M57 14h3M8 15h1M22 15h1M25 15h7M57 15h3M7 16h1M22 16h1M26 16h6M56 16h3M23 17h1M28 17h3M49 17h1M28 18h2M35 18h1M49 18h1M6 19h1M11 19h1M24 19h1M34 19h3M6 20h1M11 20h1M34 20h3M58 20h1M11 21h2M33 21h5M54 21h5M11 22h2M32 22h6M54 22h4M10 23h4M33 23h6M53 23h5M5 24h1M10 24h4M34 24h5M52 24h5M10 25h5M35 25h5M51 25h5M10 26h5M35 26h5M50 26h5M11 27h5M36 27h4M41 27h6M49 27h4M11 28h4M36 28h4M43 28h3M48 28h4M11 29h3M37 29h1M44 29h7M11 30h1M35 30h1M44 30h6M44 31h5M50 31h1M17 32h1M44 32h8M16 33h2M34 33h1M43 33h9M14 34h4M43 34h9M13 35h6M35 35h1M42 35h10M13 36h6M35 36h2M40 36h12M14 37h5M34 37h19M14 38h5M34 38h19M15 39h4M34 39h18M15 40h4M32 40h20M16 41h3M36 41h10M47 41h3M16 42h3M38 42h8M47 42h1M17 43h2M40 43h6M17 44h3M21 44h5M41 44h5M17 45h3M21 45h8M41 45h5M18 46h2M21 46h8M41 46h5M18 47h3M22 47h6M39 47h7M13 48h1M19 48h6M33 48h13M12 49h2M31 49h16M12 50h3M30 50h17M12 51h5M29 51h18M11 52h36M11 53h28M41 53h6M11 54h3M16 54h21M41 54h5M12 55h4M17 55h18M41 55h5M18 56h15M42 56h4M48 56h1M19 57h14M42 57h4M48 57h1M19 58h14M42 58h4M48 58h1M20 59h10M43 59h4" />
<path stroke="#403838" d="M59 5h1M59 6h1M20 11h2M10 15h1M7 17h1M7 18h1M23 18h1M24 20h1M6 21h1M6 22h1M48 22h1M6 23h1M48 23h1M48 24h1M5 25h1M47 25h1M5 26h1M47 26h1M5 27h1M47 27h1M5 28h1M46 28h1M35 31h1M49 31h1M35 32h1M34 34h1M7 35h1M34 35h1M7 36h1M34 36h1M52 36h1M8 37h1M33 37h1M8 38h1M9 39h1M32 39h1M52 39h1M10 40h1M30 40h2M52 40h1M26 41h2M46 41h1M50 41h2M23 42h1M46 42h1M48 42h2M46 43h2M46 44h1M46 45h1M14 46h1M20 46h1M13 47h1M21 47h1M12 48h1M46 48h1M39 53h1M14 54h2M37 54h3M10 55h2M35 55h3M10 56h7M34 56h2M41 56h1M9 57h9M34 57h1M41 57h1M9 58h9M35 58h1M8 59h11M34 59h2M42 59h1" />
<path stroke="#908080" d="M58 6h1M57 7h2M56 8h3M55 9h4M54 10h5M53 11h5M21 12h2M53 12h5M22 13h3M53 13h5M22 14h3M53 14h4M9 15h1M23 15h2M54 15h3M8 16h2M23 16h3M8 17h3M24 17h4M50 17h1M8 18h3M24 18h4M50 18h2M7 19h4M25 19h4M50 19h3M7 20h4M25 20h3M50 20h5M7 21h4M49 21h5M7 22h4M49 22h5M7 23h3M30 23h3M49 23h4M6 24h4M28 24h6M49 24h3M6 25h4M29 25h6M48 25h3M6 26h4M31 26h4M48 26h2M6 27h5M34 27h2M48 27h1M6 28h5M40 28h3M47 28h1M7 29h4M38 29h6M8 30h3M36 30h8M36 31h8M36 32h8M35 33h8M35 34h8M8 35h5M36 35h6M8 36h5M37 36h3M9 37h5M9 38h5M10 39h5M11 40h4M12 41h4M30 41h6M13 42h3M26 42h12M14 43h3M23 43h17M15 44h2M26 44h15M16 45h1M29 45h12M15 46h1M17 46h1M29 46h12M14 47h2M17 47h1M28 47h11M14 48h3M18 48h1M25 48h8M14 49h17M15 50h15M17 51h12" />
<path stroke="#302828" d="M60 7h1M60 8h1M60 9h1M60 10h1M22 11h4M60 11h1M26 12h3M60 12h1M29 13h2M60 13h1M31 14h2M60 14h1M33 15h1M60 15h1M10 16h1M34 16h1M60 16h1M11 17h1M35 17h1M60 17h1M11 18h1M36 18h1M60 18h1M12 19h1M37 19h1M49 19h1M60 19h1M12 20h1M49 20h1M59 20h1M13 21h1M38 21h1M48 21h1M59 21h1M13 22h1M58 22h1M14 23h1M58 23h1M14 24h1M27 24h1M57 24h1M15 25h1M28 25h1M40 25h1M56 25h1M15 26h1M29 26h2M42 26h2M55 26h1M31 27h3M53 27h1M34 28h2M52 28h1M36 29h1M51 29h1M50 30h2M51 31h1M18 32h1M19 35h1M19 36h1M53 36h1M11 41h1M12 42h1M13 43h1M20 43h3M14 44h1M15 45h1M16 46h1M16 47h1M17 48h1M11 49h1M11 50h1M11 51h1M10 52h1M47 52h1M40 53h1M48 53h1M40 54h1M16 55h1M40 55h1M36 56h1M40 56h1M49 56h1M40 57h1M41 58h1M41 59h1" />
<path stroke="#2868e0" d="M51 13h1M51 14h1M32 15h1M50 15h1M33 16h1M50 16h1M59 16h1M34 17h1M59 17h1M59 18h1M59 19h1M25 21h1M25 22h1M26 23h1M5 29h1M16 29h1M5 30h1M16 30h1M5 31h1M16 31h1M5 32h1M6 33h1M6 34h1M47 55h1M47 56h1M47 57h1M47 58h1M32 59h1M47 59h2" />
<path stroke="#90e0f8" d="M52 13h1M52 14h1M51 15h3M51 16h5M51 17h5M52 18h3M29 19h1M53 19h2M28 20h3M26 21h5M26 22h6M27 23h3M6 30h1M6 31h6M6 32h6M7 33h5M8 34h5" />
<path stroke="#60b0f8" d="M32 16h1M31 17h3M56 17h3M30 18h5M55 18h4M30 19h4M55 19h4M31 20h3M55 20h3M31 21h2M15 28h1M6 29h1M14 29h2M7 30h1M12 30h4M12 31h4M12 32h5M12 33h4M7 34h1M13 34h1M47 53h1M46 54h2M46 55h1M46 56h1M46 57h1M46 58h1M30 59h2" />
<path stroke="#101010" d="M37 20h1M38 22h1M39 23h1M39 24h1M40 26h1M44 26h3M40 27h1M52 32h1M18 33h1M52 33h1M18 34h1M52 34h1M52 35h1M19 37h1M53 37h1M19 38h1M33 38h1M53 38h1M19 39h1M33 39h1M53 39h1M19 40h1M53 40h1M19 41h1M28 41h2M52 41h1M19 42h1M24 42h2M50 42h2M19 43h1M48 43h2M20 44h1M47 44h1M20 45h1M47 45h1M46 46h1M46 47h1M47 48h1M47 49h1M47 50h1M47 51h1M10 53h1M10 54h1M48 54h1M9 55h1M38 55h2M48 55h1M9 56h1M17 56h1M33 56h1M37 56h1M8 57h1M18 57h1M33 57h1M35 57h2M49 57h1M8 58h1M18 58h1M33 58h2M36 58h1M49 58h1M7 59h1M19 59h1M33 59h1M36 59h1M49 59h1" />
<path stroke="#204890" d="M16 27h1M16 28h1M17 29h1M17 30h1M17 31h1" />
</svg>