<svg xmlns="http://www.w3.org/2000/svg" viewBox="0 -0.5 64 64" shape-rendering="crispEdges">
<metadata>Made with Pixels to Svg https://codepen.io/shshaw/pen/XbxvNj</metadata>
<path stroke="#333366" d="M38 10h6M36 11h2M34 12h2M45 12h1M46 13h2M47 14h2M48 15h2M31 16h1M48 16h2M49 17h2M49 18h2M14 19h8M29 19h1M49 19h3M13 20h1M28 20h2M49 20h3M12 21h1M29 21h1M49 21h3M12 22h1M49 22h3M12 23h1M17 23h2M27 23h1M49 23h3M28 24h1M48 24h4M48 25h3M15 26h1M31 26h1M47 26h4M16 27h1M28 27h2M32 27h1M46 27h4M17 28h1M27 28h2M32 28h2M45 28h5M18 29h1M26 29h2M33 29h3M43 29h6M19 30h1M25 30h2M34 30h14M20 31h1M24 31h2M36 31h10M21 32h4M38 32h6M41 34h2M41 35h2M41 36h2M32 37h1M41 37h2M41 38h2M38 39h1M41 39h2M32 40h7M41 40h2M41 41h2M41 42h2M41 43h2M41 44h2M41 45h2M34 48h1M33 49h1M40 49h2M47 49h1M33 50h1M40 50h2M47 50h1M33 51h1M39 51h1M42 51h2M46 51h2M44 52h3" />
<path stroke="#204098" d="M38 11h6M36 12h9M34 13h12M33 14h2M38 14h9M32 15h2M39 15h9M32 16h2M39 16h9M31 17h3M39 17h10M31 18h4M38 18h11M30 19h19M25 20h3M30 20h19M23 21h6M30 21h19M18 22h11M30 22h19M16 23h1M28 23h1M30 23h19M12 24h6M30 24h18M14 25h4M29 25h1M31 25h17M16 26h3M28 26h2M32 26h15M17 27h3M27 27h1M33 27h13M18 28h3M26 28h1M34 28h11M19 29h3M25 29h1M36 29h7M20 30h5M21 31h3M39 34h2M39 35h2M39 36h1M38 37h2M36 38h4M32 39h6M40 43h1M40 44h1M40 45h1M40 46h3M39 47h5M39 48h5M38 49h2M42 49h2M37 50h3M42 50h3M36 51h3M44 51h2M35 52h3" />
<path stroke="#101010" d="M44 11h2M46 12h2M33 13h1M48 13h1M32 14h1M49 14h1M31 15h1M50 15h1M50 16h1M30 17h1M51 17h1M30 18h1M51 18h1M22 19h7M52 19h1M52 20h1M52 21h1M29 22h1M52 22h1M19 23h8M29 23h1M52 23h1M18 24h1M29 24h1M52 24h1M13 25h1M18 25h1M27 25h1M30 25h1M51 25h1M14 26h1M19 26h1M26 26h1M30 26h1M51 26h1M15 27h1M20 27h1M25 27h1M30 27h2M50 27h1M16 28h1M21 28h1M24 28h1M29 28h1M31 28h1M50 28h1M17 29h1M22 29h2M28 29h1M32 29h1M49 29h1M18 30h1M27 30h1M33 30h1M48 30h1M19 31h1M26 31h1M34 31h2M46 31h2M20 32h1M25 32h1M36 32h2M44 32h2M21 33h4M38 33h6M38 34h1M43 34h1M38 35h1M43 35h1M32 36h7M43 36h1M31 37h1M43 37h1M31 38h1M43 38h1M31 39h1M43 39h1M31 40h1M43 40h1M32 41h7M43 41h1M38 42h1M43 42h1M38 43h1M43 43h1M38 44h1M43 44h1M38 45h1M43 45h1M38 46h1M43 46h1M36 47h2M44 47h2M35 48h1M46 48h2M48 49h1M48 50h1M40 51h2M48 51h1M34 52h1M38 52h2M42 52h2M47 52h1M35 53h3M44 53h3" />
<path stroke="#2870f8" d="M35 14h3M34 15h1M38 15h1M34 16h1M38 16h1M34 17h1M38 17h1M35 18h3M20 20h5M17 21h6M15 22h3M13 23h3M28 25h1M27 26h1M26 27h1M25 28h1M24 29h1M40 36h1M35 37h3M34 38h2M39 39h1M39 40h2M39 41h2M39 42h2M39 43h1M39 44h1M39 45h1M39 46h1M38 47h1M36 48h3M44 48h2M36 49h2M44 49h3M36 50h1M45 50h2M34 51h2" />
<path stroke="#60c8f8" d="M35 15h3M35 16h3M35 17h3M14 20h6M13 21h4M13 22h2M33 37h2M40 37h1M32 38h2M40 38h1M40 39h1M34 49h2M34 50h2" />
</svg>