<svg xmlns="http://www.w3.org/2000/svg" viewBox="0 -0.5 64 64" shape-rendering="crispEdges">
<metadata>Made with Pixels to Svg https://codepen.io/shshaw/pen/XbxvNj</metadata>
<path stroke="#333366" d="M31 8h2M30 9h1M30 10h1M30 11h1M29 12h2M33 12h1M33 13h1M33 14h1M33 15h1M28 16h1M33 16h2M33 17h2M29 18h3M33 18h2M27 19h1M35 19h1M25 20h2M36 20h1M24 21h1M37 21h2M23 22h1M38 22h2M22 23h1M39 23h2M22 24h1M39 24h2M21 25h1M40 25h2M21 26h1M40 26h2M20 27h1M40 27h3M20 28h1M40 28h3M20 29h1M40 29h3M40 30h3M40 31h3M39 32h4M39 33h3M22 34h1M38 34h4M23 35h1M37 35h4M23 36h2M36 36h5M24 37h3M34 37h6M25 38h14M26 39h13M24 40h1M27 40h9M38 40h1M28 41h8M38 41h1M28 42h1M35 42h1M38 42h1M28 43h1M35 43h1M38 43h1M23 44h1M28 44h1M35 44h1M38 44h2M28 45h2M34 45h1M39 45h1M28 46h1M39 46h1M22 47h1M27 47h1M39 47h2M27 48h2M35 48h1M39 48h2M26 49h2M29 49h6M36 49h1M40 49h1M26 50h1M40 50h1M21 51h1M25 51h2M37 51h1M40 51h2M25 52h1M40 52h2M25 53h1M40 53h2M22 54h4M38 54h4" />
<path stroke="#60c8f8" d="M31 9h1M31 10h1M31 11h1M29 19h3M26 23h3M26 24h3M26 25h3M25 42h1M25 43h1M24 45h1M24 46h1M34 47h1M23 48h1M33 48h1M37 48h1M23 49h1M37 49h1M38 51h1M38 52h1" />
<path stroke="#2870f8" d="M32 9h1M32 10h1M32 11h1M31 12h1M32 19h1M26 22h3M25 23h1M29 23h1M25 24h1M29 24h1M25 25h1M29 25h1M26 26h3M25 40h1M25 41h1M24 44h2M35 46h1M23 47h2M35 47h3M32 48h1M38 49h1M23 50h1M37 50h2M38 53h1" />
<path stroke="#101010" d="M33 9h1M33 10h1M33 11h1M34 12h1M29 13h1M34 13h1M29 14h1M34 14h1M29 15h1M34 15h1M35 16h1M28 17h1M35 17h1M28 18h1M35 18h1M36 19h1M37 20h2M39 21h1M40 22h1M41 23h1M41 24h1M42 25h1M42 26h1M43 27h1M43 28h1M43 29h1M20 30h1M43 30h1M20 31h1M43 31h1M20 32h1M43 32h1M21 33h1M42 33h1M21 34h1M42 34h1M22 35h1M41 35h1M22 36h1M41 36h1M23 37h1M40 37h1M24 38h1M39 38h1M25 39h1M24 41h1M39 41h1M24 42h1M29 42h1M34 42h1M39 42h1M24 43h1M39 43h1M23 45h1M40 45h1M23 46h1M29 46h1M34 46h1M40 46h1M30 47h4M22 48h1M41 48h1M22 49h1M28 49h1M35 49h1M41 49h1M22 50h1M27 50h1M29 50h6M36 50h1M41 50h1M27 51h1M36 51h1M21 52h1M26 52h1M37 52h1M42 52h1M21 53h1M26 53h1M37 53h1M42 53h1M21 54h1M26 54h1M37 54h1M42 54h1M22 55h4M38 55h4" />
<path stroke="#204098" d="M32 12h1M30 13h3M30 14h3M30 15h3M29 16h4M29 17h4M32 18h1M28 19h1M33 19h2M27 20h9M25 21h12M24 22h2M29 22h9M23 23h2M30 23h9M23 24h2M30 24h9M22 25h3M30 25h10M22 26h4M29 26h11M21 27h19M21 28h19M21 29h19M21 30h19M21 31h19M21 32h18M22 33h17M23 34h15M24 35h13M25 36h11M27 37h7M26 40h1M36 40h2M26 41h2M36 41h2M26 42h2M36 42h2M26 43h2M36 43h2M26 44h2M36 44h2M25 45h3M35 45h4M25 46h3M36 46h3M25 47h2M28 47h2M38 47h1M24 48h3M29 48h3M34 48h1M36 48h1M38 48h1M24 49h2M39 49h1M24 50h2M39 50h1M22 51h3M39 51h1M22 52h3M39 52h1M22 53h3M39 53h1" />
</svg>