<svg xmlns="http://www.w3.org/2000/svg" viewBox="0 -0.5 64 64" shape-rendering="crispEdges">
<metadata>Made with Pixels to Svg https://codepen.io/shshaw/pen/XbxvNj</metadata>
<path stroke="#333366" d="M31 7h1M38 7h1M30 8h1M39 8h1M40 9h1M33 13h1M38 13h1M32 14h1M29 15h1M25 18h1M25 23h1M26 24h1M27 25h1M35 28h1M35 29h2M35 30h1M35 31h1M35 32h1M35 33h1M30 34h2M35 34h1M28 35h2M34 35h2M27 36h1M36 36h2M38 37h2M39 38h2M40 39h2M23 40h1M40 40h2M41 41h2M22 42h1M41 42h2M21 43h1M41 43h3M41 44h3M41 45h3M41 46h3M41 47h3M21 48h1M40 48h4M40 49h3M23 50h1M39 50h4M24 51h1M38 51h4M24 52h2M37 52h5M25 53h3M35 53h6M26 54h14M28 55h10M30 56h6" />
<path stroke="#101010" d="M32 7h6M28 8h2M26 9h2M24 10h2M40 10h1M23 11h1M40 11h1M22 12h1M39 12h1M21 13h1M34 13h4M21 14h1M30 14h2M20 15h1M28 15h1M20 16h1M27 16h1M19 17h1M26 17h1M19 18h1M19 19h1M25 19h1M19 20h1M25 20h1M19 21h1M25 21h1M19 22h1M25 22h1M20 23h1M26 23h1M20 24h1M27 24h1M21 25h1M28 25h1M21 26h1M29 26h2M22 27h1M31 27h2M23 28h1M33 28h2M24 29h1M25 30h2M36 30h1M27 31h2M36 31h1M29 32h1M36 32h1M29 33h1M36 33h1M29 34h1M32 34h3M36 34h1M36 35h2M26 36h1M38 36h2M25 37h1M40 37h1M24 38h1M41 38h1M23 39h1M42 39h1M42 40h1M22 41h1M43 41h1M43 42h1M44 43h1M21 44h1M44 44h1M21 45h1M44 45h1M21 46h1M44 46h1M21 47h1M44 47h1M44 48h1M22 49h1M43 49h1M22 50h1M43 50h1M23 51h1M42 51h1M23 52h1M42 52h1M24 53h1M41 53h1M25 54h1M40 54h1M26 55h2M38 55h2M28 56h2M36 56h2M30 57h6" />
<path stroke="#204098" d="M31 8h1M38 8h1M28 9h1M39 9h1M26 10h1M30 10h5M39 10h1M24 11h1M28 11h12M23 12h1M26 12h13M22 13h1M25 13h8M24 14h6M21 15h1M23 15h5M23 16h4M20 17h1M22 17h4M22 18h3M22 19h3M22 20h3M22 21h3M20 22h1M22 22h3M22 23h3M21 24h5M22 25h3M26 25h1M22 26h4M28 26h1M23 27h4M30 27h1M24 28h5M32 28h1M25 29h6M27 30h7M29 31h5M30 32h4M30 33h4M30 35h4M28 36h8M26 37h12M25 38h2M30 38h9M24 39h2M31 39h9M24 40h2M31 40h9M23 41h3M31 41h10M23 42h4M30 42h11M22 43h19M22 44h19M22 45h19M22 46h19M22 47h19M22 48h18M23 49h17M24 50h15M25 51h13M26 52h11M28 53h7" />
<path stroke="#2870f8" d="M32 8h4M29 9h7M38 9h1M27 10h3M35 10h4M25 11h3M24 12h2M23 13h2M22 14h2M22 15h1M21 16h2M21 17h1M21 18h1M21 19h1M20 20h2M20 21h2M21 22h1M21 23h1M25 25h1M26 26h2M27 27h3M29 28h3M31 29h4M34 30h1M34 31h1M34 32h1M34 33h1M27 38h3M26 39h1M30 39h1M26 40h1M30 40h1M26 41h1M30 41h1M27 42h3" />
<path stroke="#60c8f8" d="M36 8h2M36 9h2M20 18h1M20 19h1M27 39h3M27 40h3M27 41h3" />
</svg>