<svg xmlns="http://www.w3.org/2000/svg" viewBox="0 -0.5 64 64" shape-rendering="crispEdges">
<metadata>Made with Pixels to Svg https://codepen.io/shshaw/pen/XbxvNj</metadata>
<path stroke="#333366" d="M41 11h3M40 12h1M44 12h1M39 13h1M38 14h1M44 14h1M27 15h1M32 15h1M43 15h2M26 16h1M42 16h2M24 17h1M34 17h1M40 17h3M35 18h2M38 18h4M36 19h2M39 19h2M37 20h2M20 21h1M37 21h2M38 22h2M38 23h2M18 24h1M38 24h3M38 25h3M38 26h3M38 27h3M38 28h3M18 29h1M37 29h4M37 30h3M20 31h1M36 31h4M21 32h1M35 32h4M40 32h1M21 33h2M34 33h5M40 33h1M22 34h3M32 34h6M39 34h2M23 35h18M25 36h10M37 36h4M27 37h6M40 37h1M40 38h1M36 39h1M40 39h1M36 40h1M40 40h1M36 41h1M40 41h1M36 42h1M40 42h1M36 43h1M40 43h1M36 44h1M40 44h1M36 45h1M40 45h1M36 46h1M40 46h1M36 47h1M40 47h1M40 48h1M39 49h2M37 50h4M37 51h4M36 52h1M38 52h2M41 52h1M37 53h1M40 53h1" />
<path stroke="#60c8f8" d="M41 12h2M41 13h2M24 20h3M24 21h3M24 22h3M37 39h1M37 40h1M37 41h1M37 42h1M37 43h1M37 44h1M37 45h1" />
<path stroke="#2870f8" d="M43 12h1M40 13h1M43 13h1M39 14h4M38 15h2M24 19h3M23 20h1M27 20h1M23 21h1M27 21h1M23 22h1M27 22h1M24 23h3M37 37h1M37 38h2M38 39h1M38 40h1M38 41h1M38 42h1M38 43h1M38 44h1M38 45h1M37 46h2M37 47h1" />
<path stroke="#204098" d="M44 13h1M43 14h1M40 15h3M27 16h6M37 16h5M25 17h9M37 17h3M23 18h12M22 19h2M27 19h9M21 20h2M28 20h9M21 21h2M28 21h9M20 22h3M28 22h10M20 23h4M27 23h11M19 24h19M19 25h19M19 26h19M19 27h19M19 28h19M19 29h18M20 30h17M21 31h15M22 32h13M23 33h11M25 34h7M38 37h2M39 38h1M39 39h1M39 40h1M39 41h1M39 42h1M39 43h1M39 44h1M39 45h1M39 46h1M38 47h2M37 48h3M37 49h2" />
<path stroke="#101010" d="M45 13h1M45 14h1M28 15h4M37 15h1M45 15h1M25 16h1M33 16h2M36 16h1M44 16h1M23 17h1M35 17h2M43 17h1M22 18h1M37 18h1M42 18h1M21 19h1M38 19h1M41 19h1M20 20h1M39 20h2M39 21h1M19 22h1M40 22h1M19 23h1M40 23h1M41 24h1M18 25h1M41 25h1M18 26h1M41 26h1M18 27h1M41 27h1M18 28h1M41 28h1M41 29h1M19 30h1M40 30h2M19 31h1M40 31h2M20 32h1M39 32h1M41 32h1M20 33h1M39 33h1M41 33h1M21 34h1M38 34h1M41 34h1M22 35h1M41 35h1M23 36h2M35 36h2M41 36h1M25 37h2M33 37h2M36 37h1M41 37h1M27 38h6M36 38h1M41 38h1M41 39h1M41 40h1M41 41h1M41 42h1M41 43h1M41 44h1M41 45h1M41 46h1M41 47h1M36 48h1M41 48h1M36 49h1M41 49h1M36 50h1M41 50h1M36 51h1M41 51h1M37 52h1M40 52h1M38 53h2" />
</svg>