<svg xmlns="http://www.w3.org/2000/svg" viewBox="0 -0.5 64 64" shape-rendering="crispEdges">
<metadata>Made with Pixels to Svg https://codepen.io/shshaw/pen/XbxvNj</metadata>
<path stroke="#333366" d="M30 4h1M33 4h1M29 5h1M34 5h1M29 13h1M33 13h1M35 13h1M30 14h1M49 17h1M45 19h1M50 19h1M29 20h1M34 20h1M45 20h1M50 20h1M28 21h1M49 21h2M25 22h2M36 22h1M48 22h2M37 23h2M47 23h2M38 24h2M46 24h2M39 25h2M45 25h2M22 26h1M39 26h2M44 26h2M40 27h2M43 27h2M21 28h1M40 28h2M43 28h1M20 29h1M40 29h3M40 30h3M40 31h3M40 32h3M40 33h3M39 34h4M39 35h3M22 36h1M38 36h4M21 37h1M23 37h1M37 37h4M16 38h1M21 38h1M23 38h2M36 38h5M15 39h1M21 39h2M24 39h3M34 39h6M14 40h1M20 40h2M25 40h14M13 41h1M19 41h2M27 41h10M12 42h1M18 42h2M29 42h6M18 43h1M18 44h1M13 45h1M22 47h1M24 48h1M26 49h1M28 50h1M30 50h1M33 50h1M19 51h1M33 51h1M21 52h1M33 52h1M24 53h1M33 53h1M33 54h1M33 55h1M33 56h1M32 57h2M29 58h1M31 58h2M34 58h1M30 59h1M33 59h1" />
<path stroke="#101010" d="M31 4h2M30 5h1M33 5h1M29 6h1M34 6h1M29 7h1M34 7h1M29 8h1M34 8h2M29 9h1M36 9h4M29 10h1M40 10h2M29 11h1M42 11h2M29 12h1M44 12h2M34 13h1M46 13h1M31 14h3M35 14h3M47 14h1M38 15h2M48 15h1M40 16h2M49 16h1M42 17h1M50 17h1M43 18h1M50 18h1M44 19h1M51 19h1M30 20h4M44 20h1M51 20h1M27 21h1M35 21h2M43 21h1M51 21h1M37 22h2M42 22h1M50 22h1M24 23h1M39 23h1M41 23h1M49 23h1M23 24h1M40 24h1M48 24h1M22 25h1M41 25h1M47 25h1M41 26h1M46 26h1M21 27h1M42 27h1M45 27h1M42 28h1M44 28h1M43 29h1M20 30h1M43 30h1M20 31h1M43 31h1M20 32h1M43 32h1M20 33h1M43 33h1M20 34h1M43 34h1M19 35h1M21 35h1M42 35h1M18 36h1M21 36h1M42 36h1M17 37h1M22 37h1M41 37h1M22 38h1M41 38h1M23 39h1M40 39h1M22 40h1M24 40h1M39 40h1M21 41h1M25 41h2M37 41h2M20 42h1M27 42h2M35 42h2M12 43h1M19 43h1M29 43h6M12 44h1M19 44h1M20 45h1M13 46h1M21 46h1M14 47h1M23 47h1M15 48h1M25 48h1M16 49h1M27 49h2M30 49h4M17 50h1M29 50h1M34 50h1M18 51h1M34 51h1M20 52h1M34 52h1M22 53h2M34 53h1M24 54h4M34 54h1M28 55h2M34 55h1M29 56h1M34 56h1M29 57h1M34 57h1M30 58h1M33 58h1M31 59h2" />
<path stroke="#2870f8" d="M31 5h2M32 6h1M32 7h1M30 8h3M30 9h2M30 10h1M36 10h3M30 11h1M38 11h3M40 12h2M42 13h2M43 14h2M26 24h3M25 25h1M29 25h1M25 26h1M29 26h1M25 27h1M29 27h1M26 28h3M18 38h2M17 39h2M16 40h2M15 41h2M15 42h1M15 43h1M13 44h1M15 44h1M14 45h2M15 46h2M16 47h2M17 48h2M18 49h2M19 50h2M30 53h2M29 54h1M31 54h1M30 57h2" />
<path stroke="#60c8f8" d="M30 6h2M30 7h2M26 25h3M26 26h3M26 27h3M13 42h2M13 43h2M14 44h1M30 54h1M30 55h2M30 56h2" />
<path stroke="#204098" d="M33 6h1M33 7h1M33 8h1M32 9h4M31 10h5M39 10h1M31 11h7M41 11h1M30 12h10M42 12h2M30 13h3M36 13h6M44 13h2M38 14h5M45 14h2M40 15h8M42 16h7M43 17h6M44 18h6M46 19h4M46 20h4M29 21h6M44 21h5M27 22h9M43 22h5M25 23h12M42 23h5M24 24h2M29 24h9M41 24h5M23 25h2M30 25h9M42 25h3M23 26h2M30 26h9M42 26h2M22 27h3M30 27h10M22 28h4M29 28h11M21 29h19M21 30h19M21 31h19M21 32h19M21 33h19M21 34h18M20 35h1M22 35h17M19 36h2M23 36h15M18 37h3M24 37h13M17 38h1M20 38h1M25 38h11M16 39h1M19 39h2M27 39h7M15 40h1M18 40h2M14 41h1M17 41h2M16 42h2M16 43h2M16 44h2M16 45h4M14 46h1M17 46h4M15 47h1M18 47h4M16 48h1M19 48h5M17 49h1M20 49h6M18 50h1M21 50h7M31 50h2M20 51h13M22 52h11M25 53h5M32 53h1M28 54h1M32 54h1M32 55h1M32 56h1" />
</svg>