<svg xmlns="http://www.w3.org/2000/svg" viewBox="0 -0.5 64 64" shape-rendering="crispEdges">
<metadata>Made with Pixels to Svg https://codepen.io/shshaw/pen/XbxvNj</metadata>
<path stroke="#333366" d="M43 10h3M42 11h1M46 11h1M41 12h1M40 13h1M46 13h1M29 14h1M34 14h1M45 14h2M28 15h1M44 15h2M26 16h1M36 16h1M42 16h3M37 17h2M40 17h4M38 18h2M41 18h2M39 19h2M22 20h1M39 20h2M40 21h2M40 22h2M20 23h1M40 23h3M40 24h3M40 25h3M40 26h3M40 27h3M20 28h1M39 28h4M39 29h3M22 30h1M38 30h4M23 31h1M37 31h4M23 32h2M36 32h5M24 33h3M34 33h6M25 34h14M27 35h10M29 36h6M30 37h1M30 38h4M32 39h2M32 40h2M32 41h2M32 42h2M33 43h1M33 44h1M21 45h1M25 45h1M33 45h1M20 46h1M26 46h1M33 46h1M18 47h1M27 47h1M33 47h1M17 48h1M28 48h1M33 48h1M33 49h1M17 50h2M33 50h1M17 51h4M32 51h2M17 52h16" />
<path stroke="#60c8f8" d="M43 11h2M43 12h2M26 19h3M26 20h3M26 21h3M30 41h1M30 42h1M30 43h1M30 44h1M30 45h1M20 47h3M20 48h3" />
<path stroke="#2870f8" d="M45 11h1M42 12h1M45 12h1M41 13h4M40 14h2M26 18h3M25 19h1M29 19h1M25 20h1M29 20h1M25 21h1M29 21h1M26 22h3M30 39h1M30 40h1M31 41h1M31 42h1M31 43h1M31 44h1M31 45h1M21 46h4M30 46h2M19 47h1M23 47h4M30 47h1M18 48h2M23 48h1M30 48h1M20 49h3" />
<path stroke="#204098" d="M46 12h1M45 13h1M42 14h3M29 15h6M39 15h5M27 16h9M39 16h3M25 17h12M24 18h2M29 18h9M23 19h2M30 19h9M23 20h2M30 20h9M22 21h3M30 21h10M22 22h4M29 22h11M21 23h19M21 24h19M21 25h19M21 26h19M21 27h19M21 28h18M22 29h17M23 30h15M24 31h13M25 32h11M27 33h7M31 39h1M31 40h1M32 43h1M32 44h1M32 45h1M25 46h1M32 46h1M31 47h2M24 48h4M31 48h2M18 49h2M23 49h10M19 50h14M21 51h11" />
<path stroke="#101010" d="M47 12h1M47 13h1M30 14h4M39 14h1M47 14h1M27 15h1M35 15h2M38 15h1M46 15h1M25 16h1M37 16h2M45 16h1M24 17h1M39 17h1M44 17h1M23 18h1M40 18h1M43 18h1M22 19h1M41 19h2M41 20h1M21 21h1M42 21h1M21 22h1M42 22h1M43 23h1M20 24h1M43 24h1M20 25h1M43 25h1M20 26h1M43 26h1M20 27h1M43 27h1M43 28h1M21 29h1M42 29h1M21 30h1M42 30h1M22 31h1M41 31h1M22 32h1M41 32h1M23 33h1M40 33h1M24 34h1M39 34h1M25 35h2M37 35h2M27 36h2M35 36h2M29 37h1M31 37h4M29 38h1M34 38h1M29 39h1M34 39h1M29 40h1M34 40h1M29 41h1M34 41h1M29 42h1M34 42h1M29 43h1M34 43h1M29 44h1M34 44h1M22 45h3M29 45h1M34 45h1M19 46h1M27 46h1M29 46h1M34 46h1M28 47h2M34 47h1M29 48h1M34 48h1M17 49h1M34 49h1M16 50h1M34 50h1M16 51h1M34 51h1M16 52h1M33 52h1M17 53h16" />
</svg>