<svg xmlns="http://www.w3.org/2000/svg" viewBox="0 -0.5 64 64" shape-rendering="crispEdges">
<metadata>Made with Pixels to Svg https://codepen.io/shshaw/pen/XbxvNj</metadata>
<path stroke="#333366" d="M31 7h2M30 8h1M33 8h1M29 9h1M29 10h1M33 12h1M33 13h1M33 14h1M33 15h1M33 16h1M33 17h1M32 18h2M31 19h3M29 20h5M28 21h1M26 22h1M36 22h1M37 23h2M38 24h2M39 25h2M22 26h1M39 26h2M40 27h2M40 28h2M20 29h1M40 29h3M40 30h3M40 31h3M40 32h3M40 33h3M20 34h1M39 34h4M39 35h3M22 36h1M38 36h4M23 37h1M37 37h4M23 38h2M36 38h5M24 39h3M34 39h6M25 40h14M27 41h10M29 42h6M30 43h1M30 44h4M31 45h3M32 46h2M33 47h1M33 48h1M33 49h1M33 50h1M33 51h1M33 52h1M32 53h2M30 54h4M31 55h2" />
<path stroke="#60c8f8" d="M31 8h2M30 9h3M30 10h2M26 25h3M26 26h3M26 27h3M30 48h1M30 49h1M30 50h1" />
<path stroke="#2870f8" d="M33 9h1M32 10h2M30 11h3M30 12h2M30 13h1M30 14h1M30 15h1M26 24h3M25 25h1M29 25h1M25 26h1M29 26h1M25 27h1M29 27h1M26 28h3M30 45h1M30 46h1M30 47h2M31 48h1M31 49h1M31 50h1M30 51h2M30 52h1" />
<path stroke="#101010" d="M34 9h1M34 10h1M29 11h1M34 11h1M29 12h1M34 12h1M29 13h1M34 13h1M29 14h1M34 14h1M29 15h1M34 15h1M29 16h1M34 16h1M29 17h1M34 17h1M29 18h1M34 18h1M29 19h1M34 19h1M34 20h1M27 21h1M35 21h2M25 22h1M37 22h2M24 23h1M39 23h1M23 24h1M40 24h1M22 25h1M41 25h1M41 26h1M21 27h1M42 27h1M21 28h1M42 28h1M43 29h1M20 30h1M43 30h1M20 31h1M43 31h1M20 32h1M43 32h1M20 33h1M43 33h1M43 34h1M21 35h1M42 35h1M21 36h1M42 36h1M22 37h1M41 37h1M22 38h1M41 38h1M23 39h1M40 39h1M24 40h1M39 40h1M25 41h2M37 41h2M27 42h2M35 42h2M29 43h1M31 43h4M29 44h1M34 44h1M29 45h1M34 45h1M29 46h1M34 46h1M29 47h1M34 47h1M29 48h1M34 48h1M29 49h1M34 49h1M29 50h1M34 50h1M29 51h1M34 51h1M29 52h1M34 52h1M29 53h1M34 53h1M29 54h1M34 54h1M30 55h1M33 55h1M31 56h2" />
<path stroke="#204098" d="M33 11h1M32 12h1M31 13h2M31 14h2M31 15h2M30 16h3M30 17h3M30 18h2M30 19h1M29 21h6M27 22h9M25 23h12M24 24h2M29 24h9M23 25h2M30 25h9M23 26h2M30 26h9M22 27h3M30 27h10M22 28h4M29 28h11M21 29h19M21 30h19M21 31h19M21 32h19M21 33h19M21 34h18M22 35h17M23 36h15M24 37h13M25 38h11M27 39h7M31 46h1M32 47h1M32 48h1M32 49h1M32 50h1M32 51h1M31 52h2M30 53h2" />
</svg>