<svg xmlns="http://www.w3.org/2000/svg" viewBox="0 -0.5 64 64" shape-rendering="crispEdges">
<metadata>Made with Pixels to Svg https://codepen.io/shshaw/pen/XbxvNj</metadata>
<path stroke="#b09848" d="M24 17h3M23 18h1M22 19h1M22 20h1M40 20h2M21 21h1M30 21h4M38 21h2M20 22h1M36 22h2M35 23h1M19 24h1M34 24h1M19 25h1M33 25h1M11 26h1M15 26h1M18 26h1M32 26h1M8 27h1M14 27h1M18 27h1M32 27h1M40 27h6M7 28h1M13 28h2M17 28h1M31 28h1M39 28h7M51 28h3M7 29h1M13 29h1M17 29h1M31 29h1M37 29h6M45 29h1M49 29h2M6 30h1M11 30h2M17 30h1M38 30h3M45 30h1M6 31h1M11 31h2M17 31h1M26 31h2M37 31h2M45 31h1M5 32h1M11 32h2M17 32h1M37 32h1M5 33h1M11 33h2M17 33h1M36 33h2M4 34h1M10 34h2M34 34h1M36 34h1M4 35h1M10 35h2M34 35h1M36 35h1M54 35h1M3 36h1M10 36h2M34 36h1M36 36h1M54 36h2M3 37h1M10 37h2M34 37h1M36 37h1M54 37h2M3 38h1M10 38h2M19 38h1M36 38h1M53 38h4M2 39h1M9 39h1M11 39h1M19 39h1M37 39h1M52 39h5M2 40h1M10 40h1M18 40h1M52 40h4M11 41h2M17 41h1M51 41h4M14 42h5M49 42h5M3 43h1M5 43h1M47 43h6M55 43h1M5 44h2M16 44h4M30 44h3M44 44h9M54 44h3M6 45h1M16 45h1M20 45h1M28 45h5M43 45h9M54 45h1M16 46h1M28 46h5M39 46h5M47 46h5M53 46h2M27 47h5M34 47h9M48 47h4M53 47h1" />
<path stroke="#705030" d="M27 17h4M31 18h1M32 19h1M33 20h1M42 20h4M34 21h2M21 22h1M29 22h1M47 22h1M18 23h3M28 23h1M47 23h1M16 24h2M47 24h1M15 25h1M26 25h1M12 26h3M26 26h1M42 26h3M9 27h2M13 27h1M25 27h1M12 28h1M25 28h1M46 28h2M12 29h1M25 29h1M54 29h1M25 30h1M30 30h1M37 30h1M55 30h1M28 31h3M36 31h1M56 31h1M10 32h1M36 32h1M45 32h1M10 33h1M35 33h1M45 33h1M55 33h2M9 34h1M35 34h1M45 34h1M9 35h1M35 35h1M45 35h1M55 35h1M9 36h1M35 36h1M45 36h1M9 37h1M19 37h1M35 37h1M45 37h1M56 37h1M9 38h1M20 38h1M35 38h1M45 38h1M10 39h1M20 39h1M44 39h1M57 39h1M11 40h1M19 40h1M38 40h6M3 41h1M18 41h1M56 41h2M4 42h1M55 42h4M30 43h3M54 43h1M57 43h2M3 44h1M28 44h2M33 44h1M3 45h1M27 45h1M33 45h1M53 45h1M55 45h1M58 45h1M3 46h1M27 46h1M33 46h1M3 47h1M32 47h1M44 47h4M52 47h1" />
<path stroke="#f8f098" d="M24 18h6M24 19h5M24 20h3M23 21h2M41 21h5M22 22h3M38 22h8M22 23h2M36 23h6M21 24h2M35 24h5M20 25h2M34 25h4M20 26h2M8 28h1M8 29h1M51 29h3M7 30h2M49 30h5M7 31h2M6 32h2M6 33h1M5 34h1M5 35h1M4 36h2M4 37h2M4 38h2" />
<path stroke="#f0e088" d="M30 18h1M23 19h1M29 19h3M23 20h1M27 20h2M22 21h1M25 21h3M40 21h1M25 22h2M46 22h1M21 23h1M24 23h2M42 23h5M20 24h1M23 24h2M40 24h7M22 25h2M38 25h10M19 26h1M22 26h2M33 26h9M46 26h3M19 27h5M33 27h7M47 27h3M9 28h2M18 28h6M32 28h7M48 28h3M9 29h1M18 29h6M32 29h5M46 29h3M9 30h1M18 30h5M31 30h6M46 30h3M54 30h1M18 31h5M31 31h4M46 31h9M8 32h1M18 32h5M31 32h4M46 32h8M7 33h1M18 33h5M27 33h7M47 33h5M6 34h2M18 34h16M48 34h3M6 35h2M18 35h16M6 36h2M19 36h14M6 37h2M20 37h13M6 38h2M21 38h12M3 39h5M21 39h12M3 40h5M20 40h12M4 41h5M19 41h13M5 42h4M19 42h12M4 43h1M6 43h3M12 43h18M4 44h1M7 44h9M20 44h8M4 45h2M7 45h9M21 45h6M4 46h12M20 46h6M4 47h18" />
<path stroke="#d8c068" d="M29 20h4M28 21h2M27 22h2M30 22h6M26 23h2M29 23h6M18 24h1M25 24h9M16 25h3M24 25h2M27 25h6M16 26h2M24 26h2M27 26h5M45 26h1M11 27h2M15 27h3M24 27h1M26 27h6M46 27h1M11 28h1M15 28h2M24 28h1M26 28h5M10 29h2M14 29h3M24 29h1M26 29h5M43 29h2M10 30h1M13 30h4M23 30h2M26 30h4M41 30h4M9 31h2M13 31h4M23 31h3M35 31h1M39 31h6M55 31h1M9 32h1M13 32h4M23 32h8M35 32h1M38 32h7M54 32h2M8 33h2M13 33h4M23 33h4M34 33h1M38 33h7M46 33h1M52 33h3M8 34h1M12 34h6M37 34h8M46 34h2M51 34h4M8 35h1M12 35h6M37 35h8M46 35h8M8 36h1M12 36h7M33 36h1M37 36h8M46 36h8M8 37h1M12 37h7M33 37h1M37 37h8M46 37h8M8 38h1M12 38h7M33 38h2M37 38h8M46 38h7M8 39h1M12 39h7M33 39h4M38 39h6M45 39h7M8 40h2M12 40h6M32 40h6M44 40h8M9 41h2M13 41h4M32 41h19M9 42h5M31 42h18M9 43h3M33 43h14M34 44h10M17 45h3M34 45h9M17 46h3M26 46h1M34 46h5M22 47h5M33 47h1" />
<path stroke="#101010" d="M46 21h1M48 25h1M49 26h1M50 27h1M56 32h1M55 34h1M56 35h1M56 36h1M57 37h1M57 38h1M58 39h1M56 40h3M55 41h1M58 41h1M54 42h1M59 42h1M53 43h1M56 43h1M59 43h1M53 44h1M57 44h2M52 45h1M56 45h2M44 46h3M52 46h1M55 46h1M60 46h2M43 47h1M54 47h1M63 47h1" />
<path stroke="#504020" d="M2 46h1M59 46h1M0 47h2M62 47h1" />
<path stroke="#b08840" d="M56 46h3M2 47h1" />
<path stroke="#684830" d="M55 47h7" />
</svg>