<svg xmlns="http://www.w3.org/2000/svg" viewBox="0 -0.5 64 64" shape-rendering="crispEdges">
<metadata>Made with Pixels to Svg https://codepen.io/shshaw/pen/XbxvNj</metadata>
<path stroke="#787878" d="M39 8h1M35 9h2M40 9h1M47 9h1M17 10h2M24 10h1M34 10h1M37 10h1M39 10h1M41 10h1M48 10h1M16 11h1M19 11h1M23 11h1M25 11h1M33 11h1M40 11h1M43 11h1M17 12h1M34 12h1M44 12h1M16 13h1M47 13h1M18 14h1M26 14h1M29 14h1M47 14h1M16 15h2M30 15h1M47 15h1M15 16h1M35 16h1M47 16h3M34 17h1M41 17h1M43 17h1M48 17h4M18 18h1M25 18h2M35 18h1M42 18h1M44 18h1M48 18h5M19 19h1M25 19h4M48 19h5M15 20h3M22 20h8M36 20h1M49 20h4M15 21h1M18 21h1M23 21h7M48 21h4M16 22h1M19 22h1M24 22h7M47 22h1M49 22h3M17 23h1M22 23h10M38 23h1M48 23h3M24 24h9M47 24h1M49 24h2M25 25h9M39 25h1M46 25h1M48 25h3M21 26h1M26 26h7M47 26h5M27 27h4M46 27h7M25 28h1M28 28h2M45 28h1M47 28h6M27 29h1M44 29h1M46 29h7M45 30h7M44 31h4M26 32h1M43 32h4M48 32h1M44 33h6M43 34h8M25 35h1M44 35h7M43 36h1M45 36h7M44 37h8M43 38h1M45 38h8M42 39h1M44 39h9M43 40h1M45 40h8M42 41h1M44 41h9M43 42h10M42 43h1M44 43h9M41 44h1M43 44h6M40 45h1M42 45h6M49 45h1M37 46h1M39 46h1M41 46h6M49 46h1M36 47h1M38 47h1M40 47h6M49 47h2M35 48h1M37 48h9M48 48h4M26 49h1M36 49h9M48 49h4M34 50h11M48 50h4M34 51h11M48 51h4M21 52h2M35 52h11M49 52h2M18 53h1M21 53h1M36 53h10M14 54h1M37 54h10M12 55h1M38 55h10" />
<path stroke="#484848" d="M38 9h1M38 10h1M46 10h1M20 11h1M38 11h1M42 11h1M46 11h1M48 11h1M21 12h1M23 12h1M25 12h1M35 12h1M39 12h1M45 12h1M22 13h1M25 13h1M36 13h1M39 13h1M45 13h1M17 14h1M36 14h1M40 14h1M46 14h1M18 15h1M26 15h1M28 15h1M37 15h1M46 15h1M49 15h1M18 16h1M27 16h2M30 16h1M36 16h2M50 16h2M16 17h1M28 17h1M30 17h1M38 17h1M52 17h1M17 18h1M31 18h1M36 18h1M18 19h1M31 19h1M37 19h1M18 20h1M31 20h1M35 21h1M32 22h1M36 22h1M32 23h1M37 23h1M18 24h1M33 24h1M39 24h1M51 24h1M19 25h2M34 25h5M40 25h1M51 25h1M33 26h1M39 26h2M52 26h1M21 27h1M31 27h1M39 27h1M53 27h1M22 28h1M26 28h1M40 28h1M23 29h4M28 29h1M40 29h1M27 30h1M27 31h1M48 31h1M47 32h1M50 32h1M26 33h1M51 33h1M26 34h1M52 34h1M52 35h1M25 36h1M53 36h1M25 37h1M25 38h1M54 38h1M25 39h1M54 39h1M25 40h1M26 42h1M26 43h1M26 44h1M49 44h1M48 46h1M51 46h1M27 47h1M46 47h1M48 47h1M52 47h1M27 48h1M47 48h1M53 48h1M45 49h1M47 49h1M26 50h1M47 50h1M25 51h1M47 51h1M23 52h2M46 52h1M19 53h2M15 54h3M13 55h1" />
<path stroke="#e0e0e0" d="M39 9h1M36 10h1M40 10h1M17 11h2M24 11h1M35 11h1M37 11h1M39 11h1M41 11h1M18 12h3M24 12h1M36 12h1M38 12h1M42 12h2M17 13h3M21 13h1M23 13h2M37 13h1M20 14h1M22 14h1M25 14h1M37 14h1M21 15h1M25 15h1M16 16h2M17 17h2M35 17h3M19 20h1M37 20h1M16 21h2M19 21h1M36 21h2M17 22h2M37 22h2M18 23h2" />
<path stroke="#cccccc" d="M35 10h1M47 10h1M34 11h1M36 11h1M47 11h1M37 12h1M40 12h2M46 12h2M20 13h1M38 13h1M41 13h4M46 13h1M19 14h1M21 14h1M23 14h2M38 14h2M42 14h1M44 14h2M20 15h1M22 15h3M29 15h1M38 15h3M45 15h1M19 16h1M21 16h1M23 16h1M26 16h1M39 16h2M27 17h1M40 17h1M19 18h1M30 18h1M37 18h2M20 19h1M30 19h1M38 19h1M20 21h1M38 21h1M20 22h2M39 22h1M20 23h1M39 23h1M19 24h3M21 25h2M33 27h1M35 27h1M31 28h4M36 28h1M30 29h6M37 29h1M29 30h8M29 31h9M30 32h7M29 33h1M31 33h1M33 33h1M35 33h1M37 33h1M30 34h1M32 34h1M34 34h1M36 34h1M27 52h1M22 53h1M24 53h1M26 53h1M28 53h1M20 54h2M23 54h1M25 54h1M27 54h1M29 54h1M31 54h1M28 55h3M32 55h1M34 55h1" />
<path stroke="#101010" d="M48 12h1M48 13h1M48 14h1M53 18h1M53 19h1M53 20h1M52 21h1M52 22h1M51 23h1M53 28h1M53 29h1M52 30h1M49 31h3M53 37h1M54 40h1M54 41h1M54 42h1M53 43h1M51 44h2M48 45h1M51 45h1M47 46h1M53 49h1M45 50h1M53 50h1M45 51h1M53 51h1M48 52h1M52 52h1M46 53h1M49 53h3M47 54h1M48 55h1" />
<path stroke="#b0b0b0" d="M40 13h1M41 14h1M43 14h1M19 15h1M41 15h4M48 15h1M20 16h1M22 16h1M24 16h2M29 16h1M38 16h1M41 16h6M19 17h8M29 17h1M39 17h1M42 17h1M44 17h4M20 18h5M27 18h3M39 18h3M43 18h1M45 18h3M21 19h4M29 19h1M39 19h9M20 20h2M30 20h1M38 20h11M21 21h2M30 21h2M39 21h9M22 22h2M31 22h1M40 22h7M48 22h1M21 23h1M40 23h8M22 24h2M40 24h7M48 24h1M23 25h2M41 25h5M47 25h1M22 26h4M34 26h5M41 26h6M22 27h5M32 27h1M34 27h1M36 27h3M40 27h6M23 28h2M27 28h1M30 28h1M35 28h1M37 28h3M41 28h4M46 28h1M29 29h1M36 29h1M38 29h2M41 29h3M45 29h1M28 30h1M37 30h8M28 31h1M38 31h6M27 32h3M37 32h6M49 32h1M27 33h2M30 33h1M32 33h1M34 33h1M36 33h1M38 33h6M50 33h1M27 34h3M31 34h1M33 34h1M35 34h1M37 34h6M51 34h1M26 35h18M51 35h1M26 36h17M44 36h1M52 36h1M26 37h18M52 37h1M26 38h17M44 38h1M53 38h1M26 39h16M43 39h1M53 39h1M26 40h17M44 40h1M53 40h1M26 41h16M43 41h1M53 41h1M27 42h16M53 42h1M27 43h15M43 43h1M27 44h14M42 44h1M50 44h1M27 45h13M41 45h1M50 45h1M27 46h10M38 46h1M40 46h1M50 46h1M28 47h8M37 47h1M39 47h1M51 47h1M28 48h7M36 48h1M52 48h1M27 49h9M52 49h1M27 50h7M52 50h1M26 51h8M52 51h1M25 52h2M28 52h7M51 52h1M23 53h1M25 53h1M27 53h1M29 53h7M18 54h2M22 54h1M24 54h1M26 54h1M28 54h1M30 54h1M32 54h5M14 55h14M31 55h1M33 55h1M35 55h3" />
</svg>