<svg xmlns="http://www.w3.org/2000/svg" viewBox="0 -0.5 64 64" shape-rendering="crispEdges">
<metadata>Made with Pixels to Svg https://codepen.io/shshaw/pen/XbxvNj</metadata>
<path stroke="#4860c0" d="M49 7h3M25 8h3M48 8h1M24 9h1M28 9h2M47 9h1M53 9h1M23 10h1M29 10h2M53 10h1M22 11h1M29 11h2M46 11h1M53 11h1M22 12h1M29 12h2M46 12h1M53 12h2M21 13h1M28 13h2M46 13h1M53 13h2M21 14h1M28 14h2M52 14h3M21 15h1M27 15h2M52 15h3M20 16h1M27 16h2M52 16h3M20 17h1M26 17h2M46 17h1M52 17h3M20 18h1M26 18h2M47 18h1M51 18h4M26 19h1M51 19h3M25 20h2M51 20h3M25 21h2M51 21h3M25 22h2M50 22h3M25 23h2M50 23h3M25 24h2M50 24h3M25 25h2M50 25h3M25 26h2M49 26h4M25 27h3M49 27h3M26 28h2M32 28h7M48 28h4M26 29h2M29 29h3M41 29h1M47 29h5M26 30h1M28 30h1M43 30h8M24 31h2M42 31h1M44 31h6M22 32h1M43 32h7M20 33h1M42 33h10M19 34h1M41 34h12M17 35h1M48 35h5M16 36h1M36 36h3M50 36h3M15 37h1M32 37h1M34 37h4M40 37h2M46 37h2M51 37h2M14 38h1M31 38h1M33 38h1M35 38h2M39 38h2M48 38h1M52 38h1M13 39h1M28 39h1M30 39h1M32 39h1M34 39h3M39 39h3M47 39h2M52 39h2M12 40h1M27 40h1M29 40h1M31 40h6M40 40h8M52 40h2M11 41h1M26 41h1M28 41h1M30 41h8M42 41h5M51 41h3M10 42h1M25 42h1M27 42h1M29 42h11M49 42h5M9 43h1M24 43h1M26 43h1M28 43h1M30 43h11M48 43h6M8 44h1M25 44h1M27 44h1M29 44h24M7 45h1M22 45h1M24 45h1M26 45h1M28 45h24M6 46h1M19 46h1M21 46h1M23 46h1M25 46h28M18 47h1M20 47h1M22 47h1M24 47h30M17 48h1M19 48h1M21 48h1M23 48h32M4 49h1M16 49h1M18 49h1M20 49h1M22 49h34M3 50h1M15 50h1M17 50h1M19 50h38M14 51h1M16 51h1M18 51h40M2 52h1M13 52h1M15 52h1M17 52h42M10 53h1M12 53h1M14 53h1M16 53h42M59 53h1M9 54h1M11 54h1M13 54h44M58 54h1M8 55h1M10 55h1M12 55h42M55 55h1M57 55h1M7 56h1M9 56h1M11 56h42M54 56h1M56 56h1" />
<path stroke="#103090" d="M52 7h1M28 8h2M53 8h1M30 9h1M54 9h1M31 10h1M47 10h1M31 11h1M31 12h1M55 12h1M30 13h1M55 13h1M46 14h1M55 14h1M29 15h1M46 15h1M55 15h1M46 16h1M28 17h1M20 19h1M27 19h1M47 19h1M54 19h1M20 20h1M27 20h1M47 20h1M54 20h1M20 21h1M27 21h1M47 21h1M54 21h1M20 22h1M27 22h1M47 22h1M53 22h1M20 23h1M47 23h1M21 24h1M21 25h1M53 26h1M22 27h1M28 27h1M22 28h1M39 28h3M42 29h3M52 29h1M27 30h1M23 32h1M21 33h1M40 35h1M47 35h1M53 35h1M41 36h6M49 36h1M53 36h2M19 37h1M39 37h1M48 37h1M50 37h1M53 37h1M51 38h1M53 38h2M51 39h1M54 39h1M16 40h1M37 40h1M48 40h1M51 40h1M54 40h1M38 41h1M41 41h1M47 41h1M50 41h1M54 41h1M54 42h3M41 43h1M47 43h1M54 43h2M53 44h3M52 45h4M54 46h2M55 47h1M3 51h1M2 53h1M58 53h1M1 54h1M57 54h1M59 54h2M1 55h1M54 55h1M56 55h1M58 55h4M0 56h1M53 56h1M55 56h1M57 56h6" />
<path stroke="#7898e8" d="M49 8h4M25 9h3M48 9h1M51 9h2M24 10h1M27 10h2M52 10h1M23 11h1M27 11h2M47 11h1M52 11h1M27 12h2M47 12h1M52 12h1M22 13h1M26 13h2M47 13h1M52 13h1M22 14h1M25 14h3M47 14h2M51 14h1M22 15h5M47 15h5M21 16h6M47 16h5M21 17h5M47 17h5M21 18h5M48 18h3M21 19h5M48 19h3M21 20h4M48 20h3M21 21h4M48 21h3M21 22h4M48 22h2M21 23h4M48 23h2M22 24h3M48 24h2M22 25h3M48 25h2M22 26h3M47 26h2M23 27h2M47 27h2M23 28h3M46 28h2M23 29h3M39 29h2M46 29h1M24 30h2M29 30h1M40 30h3M26 31h4M40 31h2M43 31h1M24 32h7M40 32h3M22 33h10M33 33h1M35 33h1M37 33h1M39 33h3M20 34h13M34 34h1M36 34h1M38 34h3M20 35h20M17 36h1M20 36h16M16 37h2M20 37h12M33 37h1M15 38h2M19 38h12M32 38h1M34 38h1M14 39h1M18 39h10M29 39h1M31 39h1M33 39h1M17 40h10M28 40h1M30 40h1M12 41h14M27 41h1M29 41h1M11 42h14M26 42h1M28 42h1M10 43h14M25 43h1M27 43h1M29 43h1M9 44h16M26 44h1M28 44h1M8 45h14M23 45h1M25 45h1M27 45h1M7 46h12M20 46h1M22 46h1M24 46h1M6 47h12M19 47h1M21 47h1M23 47h1M5 48h12M18 48h1M20 48h1M22 48h1M5 49h11M17 49h1M19 49h1M21 49h1M4 50h11M16 50h1M18 50h1M4 51h10M15 51h1M17 51h1M3 52h10M14 52h1M16 52h1M3 53h7M11 53h1M13 53h1M15 53h1M2 54h7M10 54h1M12 54h1M2 55h6M9 55h1M11 55h1M1 56h6M8 56h1M10 56h1" />
<path stroke="#a0c8e8" d="M49 9h2M25 10h2M48 10h4M24 11h3M48 11h4M23 12h4M48 12h4M23 13h3M48 13h4M23 14h2M49 14h2M32 29h7M30 30h10M30 31h10M31 32h9M32 33h1M34 33h1M36 33h1M38 33h1M33 34h1M35 34h1M37 34h1" />
<path stroke="#101010" d="M54 10h1M54 11h1M30 14h1M29 16h1M55 16h1M55 17h1M28 18h1M55 18h1M27 23h1M53 23h1M27 24h1M47 24h1M53 24h1M27 25h1M47 25h1M53 25h1M21 26h1M27 26h1M46 26h1M46 27h1M52 27h1M28 28h1M45 28h1M52 28h1M22 29h1M28 29h1M45 29h1M23 30h1M51 30h1M23 31h1M50 31h2M50 32h2M52 33h1M53 34h1M18 35h2M41 35h6M18 36h2M39 36h2M47 36h2M18 37h1M38 37h1M42 37h4M49 37h1M54 37h1M17 38h2M37 38h2M41 38h7M49 38h2M55 38h1M15 39h3M37 39h2M42 39h5M49 39h2M55 39h1M13 40h3M38 40h2M49 40h2M55 40h1M39 41h2M48 41h2M55 41h1M40 42h9M42 43h5M56 43h1M56 44h1M56 45h1M53 46h1M56 46h1M54 47h1M56 47h1M55 48h2M56 49h1M57 50h1M58 51h1M59 52h1M60 53h1M61 54h1M62 55h1M63 56h1" />
</svg>