<svg xmlns="http://www.w3.org/2000/svg" viewBox="0 -0.5 64 64" shape-rendering="crispEdges">
<metadata>Made with Pixels to Svg https://codepen.io/shshaw/pen/XbxvNj</metadata>
<path stroke="#68b0e0" d="M29 14h3M26 15h2M24 16h1M20 18h1M38 19h3M16 21h1M15 22h1M14 23h1M13 24h1M28 24h1M45 24h1M12 25h1M17 25h1M28 25h1M11 26h1M46 26h2M16 27h1M29 27h1M45 27h1M47 27h1M15 28h2M28 28h1M45 28h1M47 28h1M14 29h3M28 29h1M43 29h1M45 29h2M48 29h1M13 30h2M28 30h1M40 30h1M42 30h1M44 30h3M48 30h1M12 31h2M28 31h1M30 31h1M39 31h1M41 31h1M43 31h2M48 31h1M12 32h1M28 32h2M37 32h2M40 32h1M42 32h2M28 33h2M39 33h1M41 33h1M28 34h2M31 34h1M40 34h1M42 34h1M29 35h2M41 35h2M10 36h1M29 36h2M32 36h1M41 36h2M53 36h2M29 37h1M32 37h2M41 37h2M48 37h1M52 37h3M9 38h1M29 38h1M32 38h1M41 38h2M48 38h7M29 39h1M41 39h2M47 39h7M29 40h1M41 40h1M47 40h7M8 41h1M28 41h3M49 41h4M27 42h5M40 42h1M44 42h1M24 43h1M26 43h1M28 43h6M39 43h5M23 44h1M25 44h1M27 44h17M13 45h2M20 45h1M22 45h1M24 45h1M26 45h18M17 46h1M19 46h1M21 46h1M23 46h1M25 46h16M42 46h2M16 47h1M18 47h1M20 47h1M22 47h18M42 47h1M11 48h5M17 48h1M19 48h20M41 48h2M12 49h25M40 49h3" />
<path stroke="#4060b0" d="M32 14h4M28 15h1M36 15h3M25 16h1M39 16h2M23 17h1M41 17h2M21 18h2M18 19h2M21 19h1M17 20h1M20 20h1M40 20h2M45 20h1M20 21h1M42 21h1M19 22h1M43 22h1M46 22h1M19 23h1M44 23h1M18 24h1M44 24h1M47 24h1M18 25h1M45 25h1M17 26h1M28 26h1M45 26h1M48 26h1M11 27h1M17 27h1M28 27h1M46 27h1M10 28h1M29 28h1M46 28h1M47 29h1M15 30h1M11 31h1M14 31h1M13 32h1M30 32h1M12 33h1M11 34h1M11 35h1M54 35h1M55 36h1M10 37h1M55 37h1M55 38h1M9 39h1M54 39h1M9 40h1M54 40h1M53 41h1M8 42h1M45 42h1M51 42h2M8 43h1M8 44h1M8 45h1M11 45h2M8 46h1M10 46h1M41 46h1M44 46h1M8 47h1M40 47h2M8 48h1M39 48h1M9 49h1M37 49h2" />
<path stroke="#d8f0f8" d="M29 15h3M26 16h7M24 17h8M23 18h6M20 19h1M22 19h4M27 19h1M18 20h2M22 20h1M24 20h1M26 20h1M17 21h3M21 21h1M23 21h1M25 21h1M16 22h3M22 22h1M24 22h1M15 23h3M14 24h1M16 24h1M30 24h1M15 25h1M29 25h1M31 25h1M30 26h1M31 27h1M30 28h1M32 28h1M31 29h1M30 30h1M32 30h1M15 31h2M18 31h1M31 31h1M33 31h1M14 32h2M17 32h1M19 32h1M32 32h1M13 33h4M18 33h1M20 33h1M31 33h1M33 33h1M12 34h4M17 34h1M19 34h1M32 34h1M34 34h1M12 35h3M16 35h1M18 35h1M20 35h1M33 35h1M11 36h3M15 36h1M17 36h1M19 36h1M11 37h4M16 37h1M10 38h4M10 39h4M10 40h3M9 41h4M9 42h4M9 43h3M10 44h2M10 45h1" />
<path stroke="#b8e0f8" d="M32 15h4M33 16h6M32 17h9M29 18h14M26 19h1M28 19h10M41 19h3M21 20h1M23 20h1M25 20h1M27 20h13M42 20h3M22 21h1M24 21h1M26 21h16M43 21h2M20 22h2M23 22h1M25 22h18M44 22h2M18 23h1M20 23h24M45 23h1M15 24h1M17 24h1M19 24h9M29 24h1M31 24h13M46 24h1M13 25h2M16 25h1M19 25h9M30 25h1M32 25h13M46 25h1M12 26h5M18 26h10M29 26h1M31 26h14M12 27h4M18 27h10M30 27h1M32 27h13M11 28h4M17 28h11M31 28h1M33 28h12M11 29h3M17 29h11M30 29h1M32 29h11M44 29h1M11 30h2M16 30h12M31 30h1M33 30h7M41 30h1M43 30h1M17 31h1M19 31h9M32 31h1M34 31h5M40 31h1M42 31h1M16 32h1M18 32h1M20 32h8M31 32h1M33 32h4M39 32h1M41 32h1M17 33h1M19 33h1M21 33h7M32 33h1M34 33h2M40 33h1M42 33h1M16 34h1M18 34h1M20 34h8M33 34h1M35 34h1M41 34h1M15 35h1M17 35h1M19 35h1M21 35h8M32 35h1M34 35h1M14 36h1M16 36h1M18 36h1M20 36h9M33 36h1M15 37h1M17 37h12M14 38h15M14 39h15M13 40h16M13 41h15M13 42h14M12 43h12M25 43h1M27 43h1M9 44h1M12 44h11M24 44h1M26 44h1M9 45h1M15 45h5M21 45h1M23 45h1M25 45h1M9 46h1M11 46h6M18 46h1M20 46h1M22 46h1M24 46h1M9 47h1M11 47h5M17 47h1M19 47h1M21 47h1M9 48h1M16 48h1M18 48h1M10 49h1" />
<path stroke="#101010" d="M43 18h1M44 19h1M45 21h1M46 23h1M47 25h1M48 27h1M48 28h1M10 29h1M29 29h1M10 30h1M29 30h1M47 30h1M29 31h1M47 31h1M11 32h1M47 32h1M30 33h1M47 33h1M30 34h1M47 34h1M31 35h1M47 35h1M31 36h1M47 36h2M52 36h1M31 37h1M47 37h1M49 37h3M31 38h1M40 38h1M47 38h1M40 39h1M40 40h1M46 40h1M40 41h1M45 41h1M47 41h2M33 42h1M39 42h1M43 42h1M49 42h2M36 43h3M44 43h1M44 44h1M44 45h1M10 47h1M43 47h1M10 48h1M40 48h1M43 48h1M11 49h1M39 49h1M43 49h1" />
<path stroke="#800000" d="M49 29h1M49 30h2M45 31h2M49 31h1M51 31h1M44 32h1M48 32h1M51 32h1M36 33h3M43 33h1M48 33h1M52 33h1M36 34h1M39 34h1M43 34h1M48 34h1M53 34h1M35 35h1M40 35h1M43 35h1M53 35h1M34 36h1M40 36h1M43 36h1M30 37h1M34 37h1M40 37h1M43 37h1M30 38h1M33 38h1M43 38h1M30 39h1M32 39h1M43 39h1M46 39h1M30 40h1M42 40h1M31 41h1M39 41h1M41 41h1M44 41h1M32 42h1M41 42h2M34 43h2" />
<path stroke="#f85040" d="M50 31h1M45 32h1M49 32h2M44 33h1M50 33h2M37 34h2M44 34h1M51 34h2M36 35h2M52 35h1M36 36h1M35 37h2M35 38h1M34 39h2M33 40h2" />
<path stroke="#c03038" d="M46 32h1M45 33h2M49 33h1M45 34h2M49 34h2M38 35h2M44 35h3M48 35h4M35 36h1M37 36h3M44 36h3M49 36h3M37 37h3M44 37h3M34 38h1M36 38h4M44 38h3M31 39h1M33 39h1M36 39h4M44 39h2M31 40h2M35 40h5M43 40h3M32 41h7M42 41h2M34 42h5" />
</svg>