<svg xmlns="http://www.w3.org/2000/svg" viewBox="0 -0.5 64 64" shape-rendering="crispEdges">
<metadata>Made with Pixels to Svg https://codepen.io/shshaw/pen/XbxvNj</metadata>
<path stroke="#b83818" d="M13 6h4M17 7h1M19 8h1M21 9h1M26 14h1M27 15h1M34 15h1M27 16h1M34 16h1M17 17h1M18 18h1M33 19h1M21 21h1M23 21h1M27 21h1M20 22h1M22 22h1M28 22h1M32 22h1M21 23h1M29 23h1M22 24h1M25 43h1M22 44h1M43 44h1M22 46h1M42 46h1M27 47h1M37 47h1M43 47h1M24 48h1M31 48h1M35 48h1" />
<path stroke="#785848" d="M13 7h1M18 7h1M13 8h1M20 8h1M30 8h1M13 9h1M22 9h1M29 9h1M31 9h1M14 10h1M23 10h1M28 10h1M32 10h1M24 11h1M28 11h1M32 11h1M25 12h1M27 12h1M33 12h1M26 13h2M33 13h1M10 14h1M27 14h1M33 14h1M14 15h2M11 16h1M34 17h1M34 18h1M33 20h1M16 21h1M33 21h1M19 23h1M32 23h1M49 32h1M50 33h1M50 34h1M50 35h1M49 36h1M47 37h2M41 42h1M41 43h2M44 44h1M42 45h2M43 46h1M40 47h1M25 48h1M27 48h1M37 48h1M39 48h1M41 48h1M44 48h1M30 49h1M32 49h1M34 49h1M36 49h1M38 49h1M42 49h1M29 50h1M19 55h3M20 56h2M26 56h2M21 57h2M24 57h3M32 57h3M21 58h4M32 58h3" />
<path stroke="#f8a038" d="M14 7h3M16 8h3M18 9h3M30 9h1M20 10h3M31 10h1M22 11h2M31 11h1M23 12h2M31 12h2M24 13h2M32 13h1M25 14h1M32 14h1M11 15h3M32 15h2M14 16h2M33 16h1M33 17h1M33 18h1M40 43h1M39 44h3M21 45h3M25 45h1M38 45h4M24 46h1M39 46h3M24 47h3M42 47h1M26 48h1M29 48h1M36 48h1M43 48h1M29 49h1" />
<path stroke="#e85828" d="M14 8h2M14 9h4M15 10h5M29 10h2M15 11h7M29 11h2M15 12h8M28 12h3M16 13h8M28 13h4M16 14h9M28 14h4M17 15h10M28 15h4M12 16h2M17 16h10M28 16h5M12 17h5M18 17h15M13 18h5M19 18h14M14 19h11M26 19h7M15 20h9M27 20h6M17 21h4M22 21h1M28 21h5M18 22h2M21 22h1M23 22h1M29 22h1M31 22h1M20 23h1M22 23h1M31 23h1M26 43h2M38 43h2M23 44h16M42 44h1M24 45h1M26 45h12M23 46h1M25 46h14M28 47h9M38 47h2M41 47h1M30 48h1M32 48h3M38 48h1M42 48h1M33 49h1" />
<path stroke="#583830" d="M14 11h1M14 12h1M15 13h1M11 14h2M15 14h1M10 15h1M16 15h1M16 16h1M11 17h1M12 18h1M13 19h1M14 20h1M24 20h1M15 21h1M24 21h1M17 22h1M24 22h1M30 22h1M18 23h1M23 23h2M28 23h1M20 24h2M24 24h1M29 24h1M22 25h1M45 26h1M46 27h1M19 28h1M47 29h1M18 30h1M48 31h1M48 32h1M48 33h1M48 34h1M18 35h1M18 36h1M47 36h1M19 37h1M46 38h1M45 39h1M22 40h1M43 40h2M24 41h1M41 41h2M25 42h1M38 42h3M29 43h2M35 43h3M23 47h1M43 49h1M42 50h1M22 51h1M42 51h1M41 52h1M40 53h1M20 54h2M25 54h1M38 54h2M22 55h1M25 55h1M27 55h1M24 56h1M30 56h2M34 56h1M20 57h1M28 57h1M25 58h1" />
<path stroke="#e0a048" d="M25 19h1M26 20h1M34 20h2M36 21h3M27 22h1M39 22h2M41 23h2M23 24h1M25 24h1M28 24h1M31 24h1M43 24h1M25 25h1M29 25h1M31 25h1M44 25h1M45 27h1M46 28h1M47 30h1M18 34h1M19 35h1M47 35h1M19 36h2M20 37h3M45 37h2M20 38h6M42 38h4M21 39h9M37 39h8M23 40h20M25 41h16M28 42h10M31 43h4M23 48h1M28 48h1M40 48h1M22 49h7M31 49h1M35 49h1M37 49h1M41 49h1M22 50h7M30 50h2M33 50h1M35 50h1M23 51h11M41 51h1M23 52h13M40 52h1M24 53h16M26 54h12M28 55h8M32 56h2" />
<path stroke="#f8d870" d="M25 20h1M25 21h2M34 21h2M25 22h2M33 22h2M36 22h1M25 23h3M30 23h1M33 23h1M35 23h1M26 24h2M30 24h1M32 24h1M34 24h1M36 24h1M23 25h2M26 25h3M30 25h1M33 25h1M21 26h11M20 27h12M20 28h13M34 28h1M36 28h1M45 28h1M19 29h15M35 29h1M37 29h1M39 29h1M45 29h2M19 30h18M38 30h1M40 30h1M44 30h3M18 31h30M18 32h30M18 33h30M19 34h29M20 35h27M21 36h26M23 37h22M26 38h16M30 39h7M39 49h2M32 50h1M34 50h1M36 50h6M34 51h7M36 52h4" />
<path stroke="#f8e8a8" d="M35 22h1M37 22h2M34 23h1M36 23h5M33 24h1M35 24h1M37 24h6M32 25h1M34 25h10M32 26h13M32 27h13M33 28h1M35 28h1M37 28h8M34 29h1M36 29h1M38 29h1M40 29h5M37 30h1M39 30h1M41 30h3" />
<path stroke="#101010" d="M21 25h1M20 26h1M19 27h1M18 29h1M17 31h1M17 32h1M17 33h1M17 34h1M19 38h1M20 39h1M21 40h1M23 41h1M26 42h2M23 43h2M28 43h1M21 44h1M20 45h1M21 46h1M22 48h1M21 49h1M21 50h1M22 52h1M23 53h1M19 54h1M24 54h1M18 55h1M26 55h1M36 55h2M19 56h1M22 56h1M25 56h1M28 56h2M35 56h1M23 57h1M27 57h1M31 57h1M20 58h1M26 58h1M31 58h1" />
<path stroke="#d8b080" d="M49 33h1M49 34h1" />
<path stroke="#a87858" d="M48 35h2M48 36h1" />
</svg>