<svg xmlns="http://www.w3.org/2000/svg" viewBox="0 -0.5 64 64" shape-rendering="crispEdges">
<metadata>Made with Pixels to Svg https://codepen.io/shshaw/pen/XbxvNj</metadata>
<path stroke="#9070a8" d="M39 13h1M25 14h1M38 14h1M23 17h1M27 17h1M22 18h1M20 19h1M19 20h1M34 20h1M18 21h1M32 21h1M17 22h1M31 22h1M16 23h1M20 23h1M24 29h2M39 29h2M17 32h4M16 33h1M21 33h1M34 33h1M47 33h1M17 34h1M33 34h3M48 34h1M33 35h4M48 35h1M34 36h1M49 36h1M16 37h1M19 37h1M49 37h1M15 38h1M50 38h1M14 39h5M50 39h1M28 40h2M27 41h4M27 42h5M18 43h1M28 43h3M29 44h1M44 45h1M33 46h1M32 47h3M33 48h1M21 49h1M39 49h1M43 49h1M23 50h1M40 50h3" />
<path stroke="#604078" d="M26 14h2M40 14h1M24 15h1M28 15h1M38 15h1M40 15h1M33 16h1M37 16h2M24 17h3M34 17h1M39 17h1M41 17h1M21 18h1M33 18h1M40 18h1M30 19h1M40 19h1M42 19h1M46 20h2M25 21h1M40 21h1M43 21h3M25 22h1M29 22h2M40 22h1M44 22h1M31 23h1M41 23h1M45 23h1M16 24h1M19 24h2M29 24h1M42 24h1M46 24h1M17 25h2M21 25h1M29 25h1M43 25h1M21 26h1M28 26h1M30 26h1M33 26h1M43 26h1M45 26h1M22 27h1M33 27h1M42 27h1M46 27h1M22 28h1M31 28h1M34 28h1M40 28h3M47 28h1M26 29h1M34 29h2M24 30h2M39 30h2M45 30h1M50 30h1M22 31h2M33 31h1M37 31h2M45 31h2M21 32h1M25 32h1M22 33h3M49 33h1M16 34h1M17 35h1M49 35h1M16 36h1M18 36h1M47 36h1M47 37h1M48 38h1M19 39h1M46 39h1M48 39h1M14 40h1M49 40h1M45 41h1M15 42h1M44 42h1M41 43h1M18 44h1M40 44h1M18 45h1M40 45h1M45 45h1M16 46h1M19 46h1M39 46h1M44 46h1M19 47h1M39 47h1M20 48h1M38 48h1M18 49h1M38 49h1M35 50h1M43 50h1M23 51h1M34 51h1M39 51h1" />
<path stroke="#f0d0f8" d="M39 14h1M39 15h1M39 16h1M23 18h4M21 19h2M20 20h1M28 20h4M19 21h1M26 21h3M46 21h1M18 22h1M45 22h1M17 23h2M17 24h2M17 33h4M15 40h4" />
<path stroke="#b090c8" d="M25 15h3M28 18h3M26 19h2M34 19h3M25 20h1M32 20h2M29 21h3M47 21h1M26 22h3M43 22h1M47 22h1M25 23h1M29 23h2M43 23h2M46 23h1M25 24h4M30 24h2M25 25h4M30 25h2M26 26h2M31 26h2M26 27h2M31 27h2M27 28h1M29 28h1M32 28h2M28 29h1M30 29h1M32 29h2M26 30h5M33 30h6M49 30h1M24 31h8M22 32h3M26 32h5M32 32h1M26 33h4M31 33h1M33 33h1M35 33h1M45 33h1M28 34h1M30 34h1M32 34h1M36 34h1M45 34h1M19 35h2M44 35h1M19 36h4M33 36h1M35 36h2M44 36h1M46 36h1M20 37h4M43 37h1M46 37h1M48 37h1M20 38h2M43 38h1M45 38h2M28 39h2M42 39h1M44 39h2M27 40h1M30 40h1M43 40h3M31 41h1M42 41h3M17 42h3M40 42h4M16 43h1M19 43h3M27 43h1M31 43h1M39 43h2M42 43h3M16 44h2M19 44h4M28 44h1M30 44h1M38 44h2M41 44h4M16 45h2M19 45h4M37 45h3M41 45h3M17 46h2M20 46h3M34 46h1M36 46h3M40 46h4M17 47h2M20 47h4M35 47h4M40 47h4M18 48h2M21 48h4M32 48h1M34 48h4M40 48h4M22 49h5M30 49h6M40 49h3M24 50h11M26 51h8" />
<path stroke="#101010" d="M29 15h1M25 16h2M30 16h3M41 16h1M35 17h2M31 18h2M42 18h1M28 19h2M43 19h1M26 20h2M43 20h1M48 21h1M48 22h1M26 23h3M47 23h1M47 24h1M47 25h1M48 26h1M28 27h1M30 27h1M48 27h1M28 28h1M49 28h1M23 29h1M27 29h1M31 29h1M49 29h1M32 30h1M34 31h3M50 31h1M50 32h1M50 33h1M50 34h1M47 38h1M46 40h1M15 41h1M16 42h1M45 42h1M15 43h1M17 43h1M45 43h1M15 44h1M45 44h1M15 45h1M16 47h1M44 47h1M17 48h1M39 48h1M44 48h1M19 49h2M36 49h2M44 49h1M21 50h2M38 50h2M45 50h1M24 51h2M35 51h1M40 51h6" />
<path stroke="#d0b0e8" d="M27 16h3M40 16h1M28 17h6M37 17h2M40 17h1M27 18h1M34 18h6M41 18h1M23 19h3M31 19h3M39 19h1M41 19h1M21 20h4M40 20h3M20 21h5M41 21h2M19 22h6M41 22h2M46 22h1M19 23h1M21 23h4M42 23h1M21 24h4M43 24h3M22 25h3M44 25h3M22 26h4M29 26h1M44 26h1M46 26h2M23 27h3M29 27h1M43 27h3M47 27h1M23 28h4M30 28h1M43 28h2M48 28h1M29 29h1M41 29h4M48 29h1M31 30h1M41 30h4M48 30h1M32 31h1M39 31h6M47 31h3M31 32h1M33 32h17M25 33h1M30 33h1M32 33h1M36 33h8M46 33h1M48 33h1M18 34h10M29 34h1M31 34h1M37 34h7M46 34h1M18 35h1M21 35h12M37 35h6M45 35h2M17 36h1M23 36h10M37 36h6M45 36h1M17 37h2M24 37h18M44 37h2M16 38h4M22 38h20M44 38h1M20 39h8M30 39h12M43 39h1M49 39h1M19 40h8M31 40h12M16 41h11M32 41h10M20 42h7M32 42h8M22 43h5M32 43h7M23 44h5M31 44h7M23 45h14M23 46h10M35 46h1M24 47h8M25 48h7M27 49h3" />
<path stroke="#204800" d="M37 19h2M35 20h5M33 21h7M32 22h5M39 22h1M32 23h3M32 24h3M32 25h2" />
<path stroke="#406820" d="M37 22h2M35 23h6M38 24h4M39 25h4M40 26h3M40 27h2M39 28h1M36 29h3" />
<path stroke="#608840" d="M35 24h3M34 25h5M34 26h6M34 27h6M35 28h4" />
<path stroke="#f8f8f8" d="M45 28h1M45 29h1M46 30h1M44 33h1M44 34h1M47 34h1M49 34h1M43 35h1M47 35h1M43 36h1M48 36h1M42 37h1M42 38h1M49 38h1M44 50h1" />
<path stroke="#c02010" d="M46 28h1M46 29h1M47 30h1" />
<path stroke="#e84838" d="M47 29h1" />
</svg>