<svg xmlns="http://www.w3.org/2000/svg" viewBox="0 -0.5 64 64" shape-rendering="crispEdges">
<metadata>Made with Pixels to Svg https://codepen.io/shshaw/pen/XbxvNj</metadata>
<path stroke="#000000" d="M29 5h4M28 6h1M33 6h3M29 7h3M36 7h2M38 8h2M40 9h1M41 10h1M42 11h1M43 12h1M26 13h2M43 13h1M20 14h1M28 14h2M44 14h1M22 15h1M30 15h2M44 15h1M45 16h3M23 17h1M45 17h1M48 17h1M45 18h1M47 18h1M24 19h1M45 19h1M48 19h1M45 20h1M49 20h1M25 21h1M50 21h3M53 22h1M44 24h1M53 24h1M43 25h1M49 25h1M42 26h1M38 27h3M50 27h1M49 28h2M56 29h1M56 30h1M56 31h1M56 32h1M55 34h1M54 35h1M51 36h3M39 37h2M49 37h2M42 38h1M47 38h1M43 39h1M45 39h1M44 40h1M44 41h1M45 42h1M45 43h1M46 44h2M49 45h1M51 46h1M53 47h1M55 48h1M56 49h1M57 50h1M59 53h1M59 54h1M3 56h3M7 57h2M58 57h1M10 58h1M54 58h3M12 59h1M46 59h7" />
<path stroke="#333333" d="M29 6h1M19 11h4M18 12h1M23 12h3M19 13h1M21 14h1M23 16h1M24 18h1M25 20h1M33 22h1M34 23h1M34 24h1M35 25h1M36 26h2M41 26h1M37 37h2M35 38h2M41 38h1M34 39h1M33 40h1M33 41h1M32 42h1M32 43h1M31 44h1M31 45h1M48 45h1M31 46h1M50 46h1M30 47h1M52 47h1M30 48h1M54 48h1M30 49h1M30 50h1M31 51h1M31 52h2M58 52h1M32 53h1M33 54h1M32 55h1M34 55h2M59 55h1M30 56h2M35 56h3M59 56h1M29 57h1M38 57h3M57 57h1M28 58h1M41 58h4M53 58h1M28 59h1M45 59h1" />
<path stroke="#505050" d="M30 6h3M32 7h4M35 8h3M37 9h3M39 10h2M40 11h2M41 12h2M42 13h1M26 14h2M42 14h2M25 15h5M43 15h1M24 16h7M43 16h2M24 17h5M43 17h2M46 17h1M25 18h3M43 18h1M48 18h1M25 19h2M43 19h1M33 20h1M33 21h1M45 21h1M34 22h1M45 22h1M51 22h1M35 23h1M42 23h1M44 23h1M52 23h2M35 24h2M41 24h3M36 25h7M38 26h3M37 38h4M35 39h8M34 40h3M41 40h3M34 41h2M43 41h1M33 42h3M44 42h1M33 43h4M44 43h1M32 44h7M43 44h3M32 45h15M32 46h17M31 47h19M31 48h21M31 49h22M31 50h23M32 51h22M57 51h1M33 52h22M33 53h22M34 54h21M33 55h1M36 55h19M32 56h3M38 56h17M30 57h8M41 57h13M29 58h12M45 58h7M29 59h16" />
<path stroke="#984860" d="M32 8h3M32 9h1M35 9h2M37 10h2M33 11h1M39 11h1M33 12h1M40 12h1M41 13h1M34 14h1M41 14h1M34 15h1M42 15h1M34 16h1M42 16h1M42 17h1M33 18h1M33 19h1M42 21h1M42 22h1M41 23h1M37 24h4M54 26h1M55 27h1M55 28h1M54 31h1M53 33h1M55 33h1M51 35h1M5 52h3M3 53h1M10 53h2M12 54h2M14 55h1M6 56h1M15 56h1M9 57h1M16 57h1M11 58h1M16 58h1M17 59h1" />
<path stroke="#d06880" d="M33 9h2M33 10h4M34 11h5M34 12h6M34 13h7M35 14h6M35 15h7M35 16h7M34 17h1M37 17h5M39 18h4M41 19h2M42 20h1M34 21h1M35 22h1M55 30h1M55 31h1M54 32h2M54 33h1M53 34h2M52 35h2M8 52h2M4 53h1M2 54h1M9 54h3M2 55h1M8 55h6M7 56h8M10 57h6M12 58h4M13 59h4" />
<path stroke="#a8a8a8" d="M19 12h4M20 13h6M23 14h2M47 17h1M52 22h1M37 41h4M37 42h6M38 43h5M54 49h2M55 50h2M55 51h2M56 52h2M56 53h3M56 54h3M56 55h3M56 56h3M55 57h2" />
<path stroke="#808080" d="M22 14h1M25 14h1M23 15h2M44 18h1M44 19h1M43 20h2M43 21h2M43 22h2M43 23h1M37 40h4M36 41h1M41 41h2M36 42h1M43 42h1M37 43h1M43 43h1M39 44h4M47 45h1M49 46h1M50 47h2M52 48h2M53 49h1M54 50h1M54 51h1M55 52h1M55 53h1M55 54h1M55 55h1M62 55h1M55 56h1M60 56h2M54 57h1M52 58h1" />
<path stroke="#807800" d="M32 15h1M31 16h1M29 17h1M28 18h1M46 18h1M27 19h1M26 20h1M25 22h1M47 23h2M24 24h1M49 24h1M24 25h1M50 25h1M53 25h1M24 26h1M49 26h1M53 26h1M24 27h1M49 27h1M24 28h1M54 28h1M54 29h1M23 30h1M54 30h1M23 31h1M23 32h1M53 32h1M22 34h1M52 34h1M22 35h1M50 36h1M21 37h1M48 37h1M46 38h1M12 49h1M12 50h1M11 52h1M9 58h1M9 59h3" />
<path stroke="#b8a028" d="M33 15h1M32 16h1M30 17h1M26 21h1M25 23h1M45 24h3M44 25h3M43 26h4M41 27h7M51 27h1M53 27h1M37 28h12M51 28h3M24 29h1M34 29h1M36 29h18M35 30h1M37 30h1M39 30h15M34 31h1M36 31h1M38 31h16M35 32h1M37 32h1M39 32h14M23 33h1M36 33h1M38 33h15M35 34h1M37 34h15M38 35h13M22 36h1M36 36h14M36 37h1M41 37h7M21 38h1M43 38h3M20 39h1M44 39h1M19 40h1M15 44h1M14 45h1M13 47h1M29 48h1M29 49h1M28 50h2M58 50h1M12 51h1M27 51h4M59 51h2M26 52h5M61 52h1M25 53h7M62 53h1M24 54h9M62 54h1M22 55h10M20 56h10M18 57h11M17 58h11M18 59h10" />
<path stroke="#f0d868" d="M33 16h1M31 17h3M29 18h4M28 19h5M46 19h2M27 20h6M46 20h3M27 21h6M46 21h4M26 22h6M46 22h5M27 23h3M49 23h3M26 24h1M28 24h1M50 24h2M25 25h1M27 25h1M51 25h2M26 26h1M28 26h1M47 26h1M51 26h1M25 27h1M27 27h1M22 38h3M21 39h6M20 40h8M19 41h10M18 42h11M17 43h12M16 44h13M15 45h13M15 46h13M14 47h14M14 48h13M13 49h14M13 50h13M13 51h12M58 51h1M12 52h12M59 52h2M12 53h1M14 53h1M16 53h7M60 53h2M15 54h1M17 54h1M19 54h2M61 54h1M16 55h1M18 55h1" />
<path stroke="#e888a8" d="M35 17h2M34 18h5M34 19h7M34 20h8M35 21h7M36 22h6M36 23h5M8 53h2M7 54h2M6 55h2" />
<path stroke="#d0b840" d="M32 22h1M26 23h1M30 23h4M45 23h2M25 24h1M27 24h1M29 24h5M52 24h1M26 25h1M28 25h7M25 26h1M27 26h1M29 26h7M52 26h1M26 27h1M28 27h10M52 27h1M25 28h12M25 29h9M35 29h1M24 30h11M36 30h1M38 30h1M24 31h10M35 31h1M37 31h1M24 32h11M36 32h1M38 32h1M24 33h12M37 33h1M23 34h12M36 34h1M23 35h15M23 36h13M22 37h14M25 38h10M27 39h7M28 40h5M18 41h1M29 41h4M17 42h1M29 42h3M16 43h1M29 43h3M29 44h2M28 45h3M14 46h1M28 46h3M28 47h2M13 48h1M27 48h2M27 49h2M26 50h2M25 51h2M24 52h2M13 53h1M15 53h1M23 53h2M14 54h1M16 54h1M18 54h1M21 54h3M60 54h1M15 55h1M17 55h1M19 55h3M60 55h2M16 56h4M17 57h1" />
<path stroke="#f8f8f8" d="M48 24h1M47 25h2M48 26h1M50 26h1M48 27h1" />
<path stroke="#f8b0d0" d="M54 27h1M55 29h1M5 53h3M3 54h4M3 55h3" />
</svg>