<svg xmlns="http://www.w3.org/2000/svg" viewBox="0 -0.5 64 64" shape-rendering="crispEdges">
<metadata>Made with Pixels to Svg https://codepen.io/shshaw/pen/XbxvNj</metadata>
<path stroke="#101010" d="M24 16h1M26 16h1M29 16h2M34 16h1M36 16h1M23 17h1M27 17h2M31 17h3M37 17h1M38 18h1M38 19h1M38 20h1M37 21h1M16 22h1M37 22h1M16 23h1M35 23h1M45 23h1M16 24h1M36 24h2M45 24h1M17 25h1M23 25h1M38 25h1M45 25h1M17 26h1M44 26h1M44 27h1M18 28h1M43 28h2M18 29h1M41 29h3M18 30h1M43 30h1M47 31h1M46 32h1M45 33h1M44 34h1M2 38h1M2 39h1M2 40h1M2 41h1M61 41h3M1 42h1M63 42h1M1 43h1M4 43h1M16 43h2M44 43h2M63 43h1M0 44h1M3 44h1M15 44h1M17 44h1M43 44h2M62 44h1M0 45h1M3 45h1M13 45h1M18 45h1M43 45h1M46 45h2M62 45h1M0 46h1M4 46h1M7 46h1M11 46h1M18 46h1M41 46h2M47 46h1M62 46h1M5 47h2M17 47h1M42 47h1M48 47h2M62 47h1M1 48h1M8 48h2M12 48h1M17 48h1M43 48h1M50 48h1M61 48h1" />
<path stroke="#b89840" d="M25 16h1M35 16h1M24 17h3M29 17h2M34 17h3M22 18h1M24 18h3M28 18h5M34 18h3M22 19h1M25 19h1M29 19h3M35 19h1M22 20h1M30 20h1M23 21h1M23 22h1M24 23h2M27 24h2M32 24h2" />
<path stroke="#f8d048" d="M23 18h1M27 18h1M33 18h1M37 18h1M23 19h1M27 19h2M32 19h3M36 19h2M24 20h1M26 20h4M31 20h7M25 21h1M27 21h10M24 22h1M26 22h11M26 23h9M29 24h3" />
<path stroke="#f8e890" d="M24 19h1M26 19h1M23 20h1M25 20h1M24 21h1M26 21h1M25 22h1" />
<path stroke="#882800" d="M17 22h2M43 22h3M19 23h1M36 23h1M41 23h2M21 24h1M26 24h1M35 24h1M39 24h2M22 25h1M21 26h1M24 26h1M34 26h2M18 27h1M24 27h1M33 27h1M24 28h1M31 28h1M16 29h1M25 29h1M30 29h1M15 30h1M25 30h1M29 30h1M16 31h1M26 31h1M28 31h1M17 41h1M25 41h1M36 41h1M17 42h1M24 42h3M38 42h2M23 43h5M35 43h5M14 44h1M22 44h8M37 44h2M12 45h1M22 45h10M38 45h1M23 46h8M10 47h1M19 47h1M24 47h5M39 47h3M10 48h2M18 48h3M26 48h2M37 48h6" />
<path stroke="#a84818" d="M17 23h1M17 24h1M44 24h1M18 25h1M27 25h1M33 25h4M39 25h1M43 25h2M18 26h2M26 26h8M42 26h2M19 27h1M25 27h8M41 27h2M19 28h1M25 28h6M40 28h3M26 29h4M26 30h3M27 31h1M43 31h4M43 32h3M44 33h1M57 37h1M56 38h1M37 39h1M55 39h2M3 40h1M37 40h2M55 40h2M58 40h1M37 41h3M56 41h3M36 42h2M62 42h1M62 43h1M4 44h1M50 44h1M4 45h2M5 46h2M50 47h3" />
<path stroke="#f8d878" d="M18 23h1M43 23h1M19 24h2M42 24h1M22 29h2M21 30h4M19 31h1M21 31h5M19 32h1M21 32h5M19 33h1M21 33h5M20 34h5M20 35h3M58 36h1M58 37h1M58 38h1M4 39h1M8 39h2M7 40h2M7 41h1M59 43h2M5 44h1M58 44h4M51 45h2M58 45h4M49 46h2M59 46h2" />
<path stroke="#481800" d="M20 23h1M22 24h1M24 24h2M34 24h1M28 25h5M22 26h1M38 26h1M20 27h1M39 28h1M14 29h1M17 29h1M19 29h1M40 29h1M14 30h1M44 30h3M15 31h1M42 31h1M16 32h1M42 32h1M43 33h1M45 34h1M43 35h1M45 35h2M58 35h1M14 36h2M41 36h1M48 36h2M57 36h1M59 36h1M51 37h2M56 37h1M59 37h1M3 38h2M40 38h1M53 38h3M59 38h1M5 39h2M16 39h1M40 39h1M54 39h1M59 39h1M16 40h1M54 40h1M59 40h2M16 41h1M41 41h1M55 41h1M59 41h1M42 42h2M56 42h3M61 42h1M5 43h2M51 43h2M61 43h1M7 44h1M18 44h1M46 44h1M49 44h1M53 44h1M7 45h1M48 45h1M54 45h1M3 46h1M19 46h1M39 46h2M54 46h1M0 47h1M2 47h1M11 47h1M18 47h1M20 47h1M37 47h2M53 47h1M2 48h1M21 48h1M36 48h1M51 48h2" />
<path stroke="#cc6633" d="M44 23h1M18 24h1M41 24h1M43 24h1M19 25h3M24 25h3M40 25h3M20 26h1M25 26h1M39 26h3M39 27h2M43 27h1M15 29h1M16 30h2M57 38h1M3 39h1M57 39h2M4 40h1M57 40h1M6 44h1M51 44h2M6 45h1M49 45h2M53 45h1M48 46h1M51 46h3" />
<path stroke="#e8b858" d="M37 25h1M23 26h1M36 26h2M22 27h2M34 27h4M20 28h1M22 28h2M32 28h5M20 29h1M24 29h1M31 29h5M37 29h1M19 30h1M30 30h5M36 30h1M38 30h1M29 31h5M37 31h1M18 32h1M26 32h8M36 32h1M18 33h1M26 33h7M35 33h1M37 33h1M17 34h2M25 34h8M34 34h1M36 34h1M17 35h2M23 35h10M35 35h1M18 36h1M20 36h11M34 36h1M13 37h3M20 37h8M29 37h1M31 37h1M10 38h6M22 38h1M24 38h1M26 38h1M28 38h1M30 38h1M48 38h5M10 39h4M23 39h1M25 39h1M27 39h1M47 39h7M9 40h3M14 40h1M47 40h7M5 41h2M8 41h2M12 41h2M49 41h5M3 42h5M10 42h2M50 42h5M60 42h1M8 43h2M53 43h6M54 44h4M55 45h3M56 46h3M61 46h1M58 47h3" />
<path stroke="#a87818" d="M21 27h1M21 29h1M35 31h1M19 34h1M43 34h1M19 35h1M33 35h1M44 35h1M42 36h5M12 37h1M41 37h6M9 38h1M43 38h3M7 39h1M41 39h2M6 40h1M12 40h2M19 40h1M41 40h4M10 41h2M40 41h1M42 41h5M54 41h1M16 42h1M40 42h2M44 42h4M55 42h1M59 42h1M33 43h1M40 43h4M46 43h4M1 44h2M13 44h1M19 44h1M35 44h2M39 44h4M47 44h2M1 45h2M11 45h1M20 45h1M34 45h4M39 45h4M1 46h2M8 46h1M21 46h1M32 46h2M35 46h4M1 47h1M3 47h1M7 47h3M21 47h2M31 47h4M54 47h1M3 48h5M22 48h3M29 48h7M53 48h4" />
<path stroke="#885800" d="M38 27h1M21 28h1M37 28h1M36 29h1M35 30h1M42 30h1M17 31h1M34 31h1M17 32h1M34 32h1M17 33h1M33 33h1M16 34h1M33 34h1M16 35h1M42 35h1M13 36h1M16 36h1M19 36h1M32 36h1M47 36h1M10 37h2M16 37h1M19 37h1M32 37h1M40 37h1M50 37h1M8 38h1M16 38h1M19 38h1M32 38h1M41 38h2M14 39h2M19 39h1M32 39h1M43 39h2M5 40h1M32 40h1M40 40h1M45 40h2M3 41h2M19 41h1M32 41h1M47 41h1M60 41h1M8 42h2M19 42h1M32 42h1M48 42h2M7 43h1M19 43h1M50 43h1M33 44h1M21 45h1M32 45h2M20 46h1M22 46h1M31 46h1M34 46h1M4 47h1M23 47h1M29 47h2M35 47h2M55 47h2M61 47h1M25 48h1M28 48h1M57 48h4" />
<path stroke="#cc9933" d="M38 28h1M38 29h2M20 30h1M37 30h1M39 30h3M18 31h1M20 31h1M36 31h1M38 31h4M20 32h1M35 32h1M37 32h5M20 33h1M34 33h1M36 33h1M38 33h5M35 34h1M37 34h6M34 35h1M36 35h6M17 36h1M31 36h1M33 36h1M35 36h6M17 37h2M28 37h1M30 37h1M33 37h7M47 37h3M17 38h2M20 38h2M23 38h1M25 38h1M27 38h1M29 38h1M31 38h1M33 38h7M46 38h2M17 39h2M20 39h3M24 39h1M26 39h1M28 39h4M33 39h4M38 39h2M45 39h2M15 40h1M17 40h2M20 40h12M33 40h4M39 40h1M14 41h2M18 41h1M20 41h5M26 41h6M33 41h3M48 41h1M2 42h1M12 42h4M18 42h1M20 42h4M27 42h5M33 42h3M2 43h2M10 43h6M18 43h1M20 43h3M28 43h5M34 43h1M8 44h5M20 44h2M30 44h3M34 44h1M8 45h3M19 45h1M9 46h2M55 46h1M57 47h1" />
</svg>