<svg xmlns="http://www.w3.org/2000/svg" viewBox="0 -0.5 64 64" shape-rendering="crispEdges">
<metadata>Made with Pixels to Svg https://codepen.io/shshaw/pen/XbxvNj</metadata>
<path stroke="#786048" d="M20 6h3M23 7h2M25 8h1M26 9h1M27 10h1M27 11h1M20 12h1M20 15h1M19 17h1M18 21h1M3 22h2M50 22h1M53 22h1M5 23h1M20 23h1M47 23h1M53 23h1M6 24h1M45 24h1M47 24h1M52 24h1M8 25h1M51 25h1M10 26h2M30 26h1M51 26h1M13 27h1M41 27h1M50 27h1M14 28h1M28 28h1M44 28h1M14 29h1M26 29h2M49 29h1M14 30h1M24 30h2M38 30h1M43 30h1M20 31h1M23 31h1M48 31h1M21 32h2M35 32h1M41 32h1M46 32h2M34 33h1M38 33h1M43 33h2M34 34h1M36 34h2M42 34h1M17 35h2M16 36h1M15 37h1M20 37h1M15 38h1M20 38h1M25 39h2M16 40h1M19 40h1M28 40h1M10 41h2M17 41h2M12 42h1M24 42h1M29 42h1M46 42h6M9 43h1M29 43h1M45 43h1M53 43h1M13 44h1M17 44h1M44 44h1M57 44h5M8 45h1M13 45h1M15 45h1M18 45h1M23 45h1M30 45h1M42 45h1M4 46h3M13 46h1M15 46h1M22 46h1M30 46h1M37 46h1M63 46h1M1 47h3M7 47h1M13 47h1M15 47h1M30 47h1M37 47h4M0 48h1M18 48h1M31 48h1M36 48h1M41 48h4M46 48h1M48 48h1M50 48h1M52 48h1M12 49h1M18 49h1M31 49h1M37 49h2M43 49h1M45 49h1M47 49h1M54 49h2M12 50h1M17 50h1M31 50h1M38 50h3M44 50h1M46 50h1M9 51h1M12 51h1M23 51h1M30 51h1M10 52h1M12 52h1M30 52h1M10 53h2M13 53h1M18 53h2M29 53h1M11 54h1M17 54h1M20 54h1M29 54h1M10 55h1M12 55h1M20 55h1M26 55h3M11 56h1M17 56h1M21 56h1M42 57h1M18 58h1M21 58h1M38 58h1" />
<path stroke="#382818" d="M19 7h1M19 8h1M19 9h1M19 10h1M19 11h1M20 13h1M20 14h1M19 16h1M18 18h1M18 19h1M18 20h1M51 21h2M19 22h1M48 22h2M2 23h1M46 23h1M2 24h1M20 24h1M43 24h2M2 25h1M21 25h1M42 25h1M2 26h1M21 26h1M41 26h1M3 27h1M21 27h1M4 28h1M21 28h1M40 28h1M4 29h1M19 29h2M39 29h1M5 30h1M17 30h2M20 30h1M37 30h1M5 31h1M16 31h1M36 31h1M6 32h1M15 32h1M6 33h1M14 33h1M7 34h3M13 34h1M10 35h3M11 36h1M11 37h1M10 38h1M10 39h1M10 40h1M24 40h1M9 41h1M24 41h1M9 42h1M23 43h1M8 44h1M23 44h1M43 44h1M40 45h2M7 46h1M38 46h2M22 47h1M36 47h1M62 47h1M6 48h1M22 48h1M61 48h1M0 49h1M6 49h1M22 49h1M56 49h5M1 50h1M6 50h1M22 50h1M41 50h2M53 50h3M2 51h2M7 51h1M43 51h2M51 51h2M4 52h4M23 52h1M45 52h6M8 53h1M24 53h1M9 54h1M13 54h1M25 54h1M9 55h1M13 55h1M45 55h1M10 56h1M12 56h1M11 57h1M40 57h2M44 57h1M12 58h1M39 58h1M43 58h1" />
<path stroke="#d8b048" d="M20 7h1M22 7h1M21 8h1M20 9h1M25 9h1M25 10h2M25 11h2M25 12h2M25 13h2M24 14h3M23 15h1M25 15h1M20 16h1M22 16h1M24 16h2M20 17h1M23 17h3M19 18h2M22 18h1M24 18h2M19 19h2M23 19h2M29 19h1M19 20h3M23 20h2M28 20h1M30 20h1M19 21h3M23 21h2M27 21h1M29 21h1M20 22h2M23 22h2M27 22h2M3 23h1M21 23h1M23 23h2M27 23h1M29 23h1M48 23h3M3 24h1M21 24h1M23 24h3M27 24h2M48 24h4M3 25h2M22 25h5M28 25h1M43 25h1M45 25h1M48 25h2M3 26h3M22 26h5M28 26h2M44 26h1M46 26h4M4 27h3M22 27h6M45 27h4M5 28h3M11 28h1M23 28h5M45 28h3M5 29h4M10 29h1M12 29h1M23 29h3M44 29h3M7 30h3M13 30h1M44 30h3M9 31h2M12 31h1M43 31h3M11 32h4M42 32h3M7 33h1M9 33h1M12 33h2M40 33h3M10 34h1M38 34h4M19 35h1M37 35h2M42 35h1M17 36h4M16 37h4M16 38h4M16 39h4M17 40h2M46 43h1M12 44h1M16 44h1M26 44h1M45 44h3M11 45h2M16 45h2M44 45h7M11 46h2M16 46h3M26 46h1M40 46h2M43 46h1M45 46h14M10 47h3M16 47h3M41 47h2M44 47h1M46 47h14M1 48h1M5 48h1M10 48h3M16 48h2M26 48h1M53 48h6M2 49h3M7 49h5M17 49h1M25 49h1M7 50h2M10 50h2M26 50h1M50 50h3M8 51h1M10 51h2M25 51h1M27 51h1M48 51h3M26 52h1M28 52h1M25 53h4M18 54h2M26 54h3M17 55h3M18 56h3M18 57h4M19 58h2" />
<path stroke="#b09050" d="M21 7h1M20 8h1M22 8h3M21 9h4M20 10h5M20 11h5M21 12h4M27 12h1M21 13h4M28 13h1M21 14h3M28 14h1M21 15h2M24 15h1M29 15h1M21 16h1M23 16h1M29 16h1M21 17h2M30 17h1M21 18h1M23 18h1M30 18h1M21 19h2M31 19h1M22 20h1M31 20h1M22 21h1M31 21h1M22 22h1M30 22h1M22 23h1M30 23h1M22 24h1M29 24h1M46 24h1M7 25h1M29 25h1M44 25h1M46 25h2M9 26h1M42 26h2M45 26h1M12 27h1M42 27h3M22 28h1M41 28h3M49 28h1M21 29h2M40 29h4M6 30h1M21 30h3M39 30h4M48 30h1M6 31h3M14 31h1M21 31h2M37 31h6M7 32h4M36 32h5M45 32h1M8 33h1M10 33h2M35 33h3M39 33h1M11 34h2M35 34h1M36 35h1M27 39h1M28 41h1M52 43h1M29 44h1M54 44h3M62 44h1M43 45h1M63 45h1M23 46h1M42 46h1M44 46h1M23 47h1M43 47h1M45 47h1M9 48h1M23 48h1M30 48h1M37 48h4M45 48h1M47 48h1M49 48h1M51 48h1M59 48h2M1 49h1M5 49h1M23 49h2M26 49h2M39 49h4M44 49h1M46 49h1M48 49h6M2 50h4M9 50h1M23 50h3M27 50h1M43 50h1M45 50h1M47 50h3M4 51h3M24 51h1M26 51h1M28 51h1M45 51h3M8 52h2M11 52h1M24 52h2M27 52h1M9 53h1M12 53h1M10 54h1M12 54h1M11 55h1M40 58h3" />
<path stroke="#e8d070" d="M27 13h1M27 14h1M26 15h3M26 16h3M26 17h4M26 18h4M25 19h4M30 19h1M25 20h3M29 20h1M25 21h2M28 21h1M30 21h1M25 22h2M29 22h1M4 23h1M25 23h2M28 23h1M51 23h1M4 24h2M26 24h1M5 25h2M27 25h1M50 25h1M6 26h3M27 26h1M50 26h1M7 27h5M28 27h1M49 27h1M8 28h3M12 28h2M48 28h1M9 29h1M11 29h1M13 29h1M47 29h2M10 30h3M47 30h1M11 31h1M13 31h1M46 31h2M27 40h1M27 41h1M10 42h2M27 42h2M10 43h3M27 43h2M47 43h1M9 44h3M27 44h2M48 44h1M9 45h2M27 45h3M51 45h2M61 45h2M8 46h3M27 46h3M59 46h4M4 47h3M8 47h2M27 47h3M60 47h2M2 48h3M7 48h2M25 48h1M27 48h3M28 49h3M28 50h3M29 51h1M29 52h1" />
<path stroke="#f8e8a0" d="M51 22h2M52 23h1M25 40h2M25 41h2M25 42h2M24 43h3M48 43h4M24 44h2M49 44h5M24 45h3M53 45h8M24 46h2M24 47h3M24 48h1" />
<path stroke="#b80000" d="M29 27h3M33 28h2M36 29h1M43 35h1M44 36h1M44 37h1M45 38h1M45 39h1M46 40h1M46 41h1M46 53h1M45 54h1M44 56h1" />
<path stroke="#f87068" d="M29 28h2M28 29h2M31 29h1M27 30h4M32 30h1M35 30h2M27 31h5M33 31h3M26 32h9M26 33h8M26 34h7M27 35h5M27 36h5M27 37h5M41 37h3M28 38h5M39 38h6M29 39h3M33 39h12M29 40h2M32 40h1M34 40h12M29 41h1M31 41h1M33 41h13M30 42h1M32 42h14M30 43h2M33 43h12M32 44h11M33 45h7M35 46h2" />
<path stroke="#f8a860" d="M31 28h1M30 29h1M32 29h3M31 30h1M33 30h2M32 31h1" />
<path stroke="#f84038" d="M32 28h1M35 29h1M26 30h1M24 31h3M23 32h3M23 33h3M22 34h4M33 34h1M21 35h1M23 35h4M32 35h3M22 36h5M32 36h4M39 36h3M21 37h1M23 37h4M32 37h9M22 38h1M24 38h4M33 38h6M24 39h1M28 39h1M32 39h1M31 40h1M33 40h1M30 41h1M32 41h1M31 42h1M32 43h1M30 44h2M31 45h2M31 46h4M31 47h5M33 48h3M35 49h2M14 50h1M15 51h1M16 52h1M18 52h1M17 53h1M21 53h1M23 53h1M22 54h1M24 54h1M23 55h1M31 57h1M24 58h1M26 58h1M30 58h1" />
<path stroke="#d82018" d="M19 30h1M17 31h3M16 32h5M15 33h8M14 34h8M13 35h4M20 35h1M22 35h1M35 35h1M39 35h3M12 36h4M21 36h1M36 36h3M42 36h2M12 37h3M22 37h1M11 38h4M21 38h1M23 38h1M11 39h5M20 39h4M11 40h5M20 40h4M12 41h5M19 41h5M13 42h11M13 43h10M14 44h2M18 44h5M14 45h1M19 45h4M14 46h1M19 46h3M14 47h1M19 47h3M13 48h3M19 48h3M32 48h1M13 49h4M19 49h3M32 49h3M13 50h1M15 50h2M18 50h4M32 50h6M13 51h2M16 51h7M31 51h12M13 52h3M17 52h1M19 52h4M31 52h14M14 53h3M20 53h1M22 53h1M30 53h16M14 54h3M21 54h1M23 54h1M30 54h15M14 55h3M21 55h2M24 55h2M29 55h16M13 56h4M22 56h22M12 57h6M22 57h9M32 57h8M43 57h1M13 58h5M22 58h2M25 58h1M27 58h3M31 58h7" />
</svg>