<svg xmlns="http://www.w3.org/2000/svg" viewBox="0 -0.5 64 64" shape-rendering="crispEdges">
<metadata>Made with Pixels to Svg https://codepen.io/shshaw/pen/XbxvNj</metadata>
<path stroke="#906058" d="M48 6h5M45 7h2M53 7h2M34 8h2M43 8h1M54 8h1M19 9h4M31 9h2M54 9h1M17 10h1M24 10h2M29 10h1M53 10h1M28 11h1M51 11h2M27 12h1M49 12h2M46 13h3M41 14h5M40 15h3M23 16h2M32 16h6M40 16h5M27 17h3M42 17h4M40 18h2M43 18h3M41 19h2M44 19h3M41 20h2M44 20h3M41 21h3M41 22h3M41 23h3M27 24h3M37 24h2M41 24h3M25 25h1M40 25h4M23 26h1M41 26h4M22 27h1M42 27h3M21 28h1M42 28h3M21 29h1M43 29h2M21 30h1M31 30h2M37 30h3M43 30h2M21 31h1M25 31h2M37 31h6M39 32h6M20 33h1M40 33h5M40 34h6M18 35h1M40 35h6M40 36h7M17 37h1M39 37h8M37 38h10M16 39h1M38 39h10M40 40h8M41 41h7M15 42h1M18 42h1M41 42h7M41 43h7M41 44h7M51 44h2M36 45h1M40 45h8M52 45h3M35 46h12M52 46h3M15 47h1M34 47h13M52 47h2M32 48h14M52 48h2M35 49h10M52 49h2M16 50h1M27 50h1M32 50h1M37 50h6M46 50h2M52 50h3M24 51h1M35 51h1M38 51h4M45 51h4M52 51h3M17 52h1M36 52h1M39 52h2M43 52h7M53 52h2M18 53h2M36 53h2M42 53h7M54 53h2M36 54h2M40 54h8M51 54h1M54 54h3M35 55h2M38 55h9M48 55h1M55 55h4M35 56h2M38 56h8M47 56h1M56 56h3M34 57h2M37 57h8M46 57h1M48 57h1M53 57h1M56 57h3M34 58h2M37 58h7M45 58h1M47 58h1M57 58h1" />
<path stroke="#b08078" d="M47 7h1M44 8h1M53 8h1M42 9h1M52 9h2M18 10h1M23 10h1M41 10h1M50 10h3M16 11h1M48 11h3M16 12h1M45 12h4M40 13h6M39 14h2M36 15h4M39 17h1M39 18h1M40 19h1M40 20h1M40 21h1M40 22h1M27 23h10M40 23h1M25 24h2M39 24h2M23 25h2M22 26h1M21 27h1M35 30h2M36 31h1M36 32h1M24 37h1M21 38h3M37 39h1M37 40h1M35 44h1M34 45h2M22 46h1M33 46h2M55 46h1M20 47h2M31 47h3M54 47h2M54 48h3M54 49h3M28 50h4M55 50h3M26 51h9M55 51h3M13 52h1M18 52h2M26 52h10M55 52h3M26 53h10M49 53h2M56 53h3M26 54h10M48 54h3M57 54h2M11 55h1M17 55h1M27 55h1M29 55h6M47 55h1M49 55h3M18 56h1M28 56h1M30 56h5M46 56h1M48 56h5M27 57h1M29 57h5M45 57h1M47 57h1M49 57h4M26 58h3M30 58h4M44 58h1M46 58h1M48 58h6" />
<path stroke="#cc9999" d="M48 7h5M48 8h5M33 9h1M36 9h3M43 9h1M48 9h4M37 10h4M42 10h2M47 10h3M17 11h1M23 11h3M35 11h5M41 11h7M17 12h2M22 12h5M28 12h1M32 12h8M41 12h4M18 13h22M19 14h7M27 14h12M21 15h4M26 15h10M25 16h5M25 17h1M30 17h9M26 18h13M24 19h1M26 19h14M23 20h1M26 20h14M23 21h1M26 21h14M22 22h2M25 22h15M22 23h2M25 23h2M37 23h3M22 24h3M21 25h2M21 26h1M33 30h2M27 31h1M29 31h1M31 31h5M22 32h5M28 32h1M30 32h6M23 33h3M27 33h1M29 33h1M31 33h5M19 34h1M24 34h3M28 34h1M30 34h5M36 34h1M38 34h1M19 35h1M21 35h1M23 35h1M25 35h10M38 35h1M18 36h2M21 36h1M25 36h10M37 36h2M18 37h1M22 37h1M25 37h11M37 37h1M17 38h2M20 38h1M24 38h13M17 39h1M20 39h17M16 40h2M19 40h18M16 41h2M19 41h18M16 42h1M21 42h15M37 42h1M39 42h1M15 43h2M22 43h14M39 43h1M15 44h2M19 44h1M21 44h1M23 44h12M38 44h2M15 45h2M19 45h1M23 45h11M38 45h1M15 46h2M20 46h1M23 46h10M16 47h1M22 47h9M16 48h1M20 48h8M16 49h1M20 49h5M17 50h1M19 50h3M14 51h2M17 51h4M25 51h1M14 52h2M22 52h2M25 52h1M14 53h3M21 53h2M25 53h1M13 54h4M21 54h2M25 54h1M13 55h4M20 55h3M25 55h2M28 55h1M12 56h6M20 56h3M25 56h3M29 56h1M12 57h7M21 57h3M25 57h2M28 57h1M11 58h9M21 58h3M25 58h1M29 58h1" />
<path stroke="#000000" d="M36 8h3M55 8h1M39 9h2M55 9h1M30 10h1M54 10h1M40 11h1M53 11h1M40 12h1M51 12h2M17 13h1M49 13h2M18 14h1M26 14h1M46 14h3M19 15h2M25 15h1M43 15h2M46 15h1M21 16h2M45 16h1M47 16h1M23 17h2M46 18h1M48 18h1M43 19h1M48 19h1M43 20h1M47 20h2M44 21h3M44 22h1M44 23h1M30 24h7M26 25h3M38 25h2M52 25h2M24 26h1M40 26h1M45 26h1M23 27h1M41 27h1M45 27h1M17 28h1M22 28h1M41 28h1M45 28h1M22 29h1M42 29h1M45 29h1M42 30h1M44 31h1M50 31h3M13 32h2M45 32h3M15 33h1M39 33h1M45 33h1M51 33h1M20 34h1M39 34h1M46 34h1M20 35h1M39 35h1M46 35h1M20 36h1M47 37h1M53 39h3M48 40h5M12 41h3M40 41h1M48 41h2M14 42h1M40 42h1M48 42h1M50 42h1M18 43h1M40 43h1M48 43h1M51 43h2M18 44h1M48 44h1M53 44h2M18 45h1M48 45h1M55 45h1M47 46h1M56 46h1M47 47h1M46 48h1M48 48h1M57 48h1M28 49h4M45 49h2M49 49h1M15 50h1M25 50h2M33 50h2M44 50h2M50 50h1M58 50h1M22 51h2M36 51h1M43 51h1M51 51h1M58 51h1M16 52h1M21 52h1M37 52h1M41 52h2M52 52h1M38 53h3M53 53h1M59 53h1M17 54h1M20 54h1M38 54h1M53 54h1M59 54h1M18 55h2M37 55h1M54 55h1M59 55h1M19 56h1M37 56h1M55 56h1M59 56h1M19 57h1M36 57h1M55 57h1M59 57h1M20 58h1M36 58h1M56 58h1M58 58h1" />
<path stroke="#f0c0b8" d="M45 8h3M34 9h2M44 9h4M19 10h4M31 10h6M44 10h3M18 11h5M29 11h6M19 12h3M29 12h3M25 19h1M24 20h2M24 21h2M24 22h1M24 23h1M28 31h1M30 31h1M27 32h1M29 32h1M38 32h1M21 33h1M26 33h1M28 33h1M30 33h1M37 33h2M21 34h2M27 34h1M29 34h1M37 34h1M22 35h1M36 35h2M22 36h2M36 36h1M19 37h2M19 38h1M18 39h2M18 40h1M39 40h1M18 41h1M38 41h2M17 42h1M19 42h1M38 42h1M17 43h1M19 43h2M37 43h2M17 44h1M20 44h1M37 44h1M17 45h1M20 45h2M17 46h2M17 47h3M17 48h3M17 49h3M18 50h1M24 52h1M13 53h1M23 53h2M12 54h1M23 54h2M12 55h1M23 55h2M11 56h1M23 56h2M10 57h2M24 57h1M10 58h1M24 58h1" />
<path stroke="#704038" d="M26 11h2M45 15h1M30 16h2M38 16h2M46 16h1M26 17h1M40 17h2M46 17h2M24 18h2M42 18h1M47 18h1M23 19h1M47 19h1M22 20h1M22 21h1M21 22h1M21 23h1M21 24h1M44 24h1M20 25h1M29 25h3M35 25h3M44 25h1M20 26h1M25 26h2M38 26h2M20 27h1M29 27h8M39 27h2M20 28h1M23 28h1M25 28h4M37 28h4M20 29h1M24 29h1M32 29h10M20 30h1M22 30h2M26 30h5M40 30h2M45 30h1M20 31h1M22 31h3M43 31h1M20 32h2M37 32h1M19 33h1M22 33h1M36 33h1M18 34h1M23 34h1M35 34h1M24 35h1M35 35h1M17 36h1M24 36h1M35 36h1M39 36h1M21 37h1M23 37h1M36 37h1M38 37h1M16 38h1M47 38h1M15 40h1M38 40h1M15 41h1M37 41h1M20 42h1M36 42h1M14 43h1M21 43h1M36 43h1M50 43h1M14 44h1M22 44h1M36 44h1M40 44h1M50 44h1M14 45h1M22 45h1M37 45h1M39 45h1M51 45h1M14 46h1M19 46h1M21 46h1M51 46h1M51 47h1M56 47h1M15 48h1M28 48h4M51 48h1M15 49h1M25 49h3M32 49h3M47 49h1M51 49h1M57 49h1M14 50h1M22 50h3M35 50h2M43 50h1M48 50h1M51 50h1M13 51h1M16 51h1M21 51h1M37 51h1M42 51h1M44 51h1M49 51h1M20 52h1M38 52h1M50 52h1M58 52h1M12 53h1M17 53h1M20 53h1M41 53h1M51 53h1M11 54h1M18 54h2M39 54h1M52 55h1M10 56h1M53 56h1M9 57h1M20 57h1M9 58h1M54 58h1" />
<path stroke="#b83800" d="M53 18h3M51 19h2M56 19h1M57 20h1M57 21h1M15 22h4M57 22h1M14 23h1M19 23h1M55 23h2M14 24h1M53 24h2M14 25h1M54 25h3M15 26h1M57 26h1M57 27h1M13 28h4M57 28h1M12 29h1M56 29h1M12 30h1M53 30h3M12 31h1M52 33h4M56 34h2M10 35h3M58 35h1M9 36h1M58 36h1M8 37h1M58 37h1M8 38h1M56 38h2M9 39h1M10 40h2" />
<path stroke="#d86050" d="M50 19h1M49 20h1M47 21h1M45 22h1M50 25h2M46 26h1M45 31h1M48 31h1M46 33h1M17 35h1M16 37h1M15 39h1" />
<path stroke="#f86048" d="M53 19h3M51 20h6M50 21h7M49 22h8M15 23h4M52 23h3M15 24h4M15 25h5M16 26h3M52 26h5M51 27h6M50 28h7M13 29h4M51 29h5M13 30h5M13 31h6M15 32h2M52 34h4M51 35h7M10 36h3M50 36h8M9 37h5M51 37h7M9 38h6M53 38h3M10 39h4" />
<path stroke="#f8f8f8" d="M50 20h1M51 23h1M19 24h2M51 24h2M51 26h1M17 29h2M51 30h2M51 34h1M51 38h2M51 39h2" />
<path stroke="#d8d8d8" d="M48 21h2M46 22h3M45 23h6M45 24h6M45 25h5M19 26h1M50 26h1M17 27h3M47 27h4M46 28h4M19 29h1M46 29h5M18 30h2M46 30h5M19 31h1M46 31h2M17 32h3M17 33h2M47 33h4M47 34h4M14 35h3M47 35h4M13 36h4M47 36h3M14 37h2M48 37h3M15 38h1M48 38h3M14 39h1M48 39h3M12 40h3" />
<path stroke="#b03828" d="M20 23h1M32 25h3M27 26h11M47 26h3M16 27h1M24 27h5M37 27h2M46 27h1M18 28h2M24 28h1M29 28h8M23 29h1M25 29h7M24 30h2M49 31h1M48 32h3M16 33h1M14 34h4M13 35h1" />
<path stroke="#d8b060" d="M49 42h1M49 43h1M49 44h1M49 45h1M48 46h2M48 47h2M47 48h1M49 48h2M48 49h1M50 49h1M49 50h1M50 51h1M51 52h1M52 53h1M52 54h1M53 55h1M54 56h1M54 57h1M55 58h1" />
<path stroke="#f8d868" d="M50 45h1M50 46h1M50 47h1" />
</svg>