<svg xmlns="http://www.w3.org/2000/svg" viewBox="0 -0.5 64 64" shape-rendering="crispEdges">
<metadata>Made with Pixels to Svg https://codepen.io/shshaw/pen/XbxvNj</metadata>
<path stroke="#508858" d="M16 7h1M17 9h1M12 10h1M17 10h2M17 11h1M13 12h1M17 12h1M8 13h3M13 13h5M32 13h3M13 14h1M17 14h1M30 14h1M34 14h1M9 15h5M28 15h1M34 15h1M10 16h4M33 16h1M11 17h4M33 17h1M8 18h7M33 18h1M9 19h7M33 19h1M10 20h6M33 20h1M11 21h6M22 21h1M9 22h7M7 23h8M21 23h1M10 24h4M11 25h3M20 25h1M3 26h1M13 26h1M4 28h1M19 28h1M1 29h1M6 29h1M12 30h1M3 31h1M18 31h1M7 32h1M8 36h1M14 36h1M37 36h3M15 37h4M27 37h4M34 37h4M16 38h4M22 38h13M18 39h2M23 39h10M48 39h2M12 40h1M23 40h5M47 40h1M19 41h1M24 41h6M44 41h1M50 41h1M21 42h1M24 42h8M42 42h1M6 43h1M14 43h2M21 43h1M25 43h10M39 43h1M49 43h1M8 44h1M13 44h5M20 44h3M25 44h9M48 44h1M14 45h5M20 45h3M24 45h8M46 45h1M13 46h3M20 46h15M44 46h1M12 47h4M19 47h7M31 47h7M41 47h2M22 48h8M35 48h6M20 49h10M19 50h6M26 50h4M14 51h2M20 51h5M27 51h3M13 52h2M18 52h1M20 52h4M28 52h2M13 53h1M15 53h1M17 53h1M21 53h3M29 53h1M12 54h2M15 54h2M22 54h1M12 55h1M14 55h1M16 55h1M12 56h1M14 56h1M16 56h1M19 56h1M26 56h1M12 57h1M14 57h1M16 57h1M18 57h3M25 57h3M30 57h1" />
<path stroke="#406040" d="M17 7h1M16 8h1M18 8h1M16 9h1M19 9h1M13 10h1M16 10h1M20 10h1M12 11h1M14 11h1M16 11h1M21 11h1M12 12h1M15 12h2M12 13h1M8 14h1M11 14h2M8 15h1M9 16h1M7 17h4M7 18h1M8 19h1M9 20h1M9 21h2M7 22h2M16 22h1M6 23h1M15 23h1M7 24h1M14 24h1M14 25h1M33 26h1M3 27h1M11 28h1M7 29h1M12 29h1M35 29h1M2 30h1M7 30h1M11 30h1M7 31h1M11 31h1M13 31h1M3 32h1M11 32h1M13 32h1M8 33h1M12 33h1M8 34h1M12 34h1M8 35h1M40 35h1M13 36h1M9 37h1M38 37h1M9 38h1M20 38h2M35 38h1M10 39h3M17 39h1M22 39h1M33 39h1M3 40h1M19 40h1M22 40h1M28 40h2M45 40h2M51 40h1M4 41h1M17 41h1M23 41h1M30 41h2M43 41h1M51 41h1M11 42h2M19 42h1M23 42h1M32 42h3M40 42h2M50 42h1M24 43h1M35 43h4M24 44h1M47 45h1M45 46h1M16 47h1M26 47h1M43 47h1M9 48h1M41 48h1M8 49h1M13 49h1M35 49h1M7 50h1M30 50h1M7 51h1M6 52h1M15 52h1M6 53h1M14 53h1M16 53h1M6 54h1M14 54h1M5 55h1M13 55h1M15 55h1M5 56h1M13 56h1M15 56h1M5 57h1M13 57h1M15 57h1" />
<path stroke="#887858" d="M30 7h1M36 7h2M22 8h1M29 8h1M35 8h1M22 9h1M28 9h1M34 9h1M22 10h1M27 10h1M33 10h1M22 11h1M26 11h1M18 12h1M22 12h1M18 13h1M22 13h1M31 13h1M14 14h1M18 14h1M29 14h1M14 15h1M27 15h1M37 15h1M14 16h1M20 16h1M26 16h1M36 16h1M15 17h1M25 17h1M15 18h1M24 18h1M16 19h1M23 19h1M16 20h1M22 20h1M17 21h1M36 21h1M17 22h1M21 22h1M37 22h1M17 23h1M38 23h1M8 24h1M16 24h1M20 24h1M39 24h1M3 25h2M9 25h1M16 25h1M40 25h1M5 26h1M7 26h1M10 26h1M16 26h1M19 26h1M40 26h1M6 27h1M8 27h1M11 27h1M15 27h1M19 27h1M41 27h1M1 28h3M6 28h1M8 28h1M15 28h1M41 28h1M4 29h1M15 29h1M18 29h1M42 29h1M15 30h1M18 30h1M42 30h1M42 31h1M17 32h1M14 33h1M17 33h1M40 33h3M15 34h1M17 34h1M37 34h3M15 35h1M17 35h1M34 35h3M16 36h1M32 36h2M49 37h2M48 38h1M50 38h3M50 39h1M53 39h1M52 40h1M53 41h1M54 42h1M53 43h2" />
<path stroke="#000000" d="M31 7h1M23 8h1M31 8h1M37 8h1M24 9h1M31 9h1M37 9h1M25 10h1M32 10h1M37 10h1M18 11h2M32 11h1M37 11h1M20 12h1M37 12h1M21 13h1M37 13h1M15 14h2M22 14h1M37 14h1M17 15h2M19 16h1M36 17h1M36 18h1M36 19h1M36 20h1M34 26h1M33 27h1M35 27h1M33 28h1M35 28h1M34 29h1M43 32h1M3 33h1M43 33h1M3 34h1M42 34h1M3 35h1M13 35h1M41 35h1M3 36h1M40 36h1M3 37h1M14 37h1M39 37h1M3 38h1M15 38h1M36 38h2M3 39h1M16 39h1M20 39h1M34 39h2M11 40h1M13 40h2M18 40h1M20 40h1M30 40h3M12 41h1M15 41h2M18 41h1M20 41h1M4 42h1M13 42h1M16 42h1M20 42h1M51 42h2M5 43h1M9 43h2M17 43h1M50 43h1M7 44h1M11 44h2M18 44h1M49 44h1M8 45h2M13 45h1M19 45h1M48 45h1M10 46h3M16 46h1M18 46h1M46 46h1M11 47h1M17 47h1M27 47h4M44 47h1M10 48h4M15 48h1M18 48h4M30 48h5M42 48h1M14 49h2M30 49h1M36 49h5M15 50h1M16 51h1M31 51h1M16 52h1M31 52h1M17 54h1M32 54h1M17 55h1M32 55h1M17 56h1M32 56h1M17 57h1M32 57h1" />
<path stroke="#60b080" d="M17 8h1M18 9h1M19 10h1M13 11h1M20 11h1M14 12h1M21 12h1M9 14h2M31 14h3M29 15h5M27 16h6M26 17h7M25 18h8M24 19h9M23 20h10M23 21h10M22 22h9M22 23h8M21 24h9M21 25h7M14 26h2M20 26h7M14 27h1M20 27h7M14 28h1M20 28h8M19 29h10M3 30h1M19 30h11M32 30h1M40 30h1M19 31h11M33 31h3M37 31h4M18 32h13M37 32h3M18 33h14M36 33h1M14 34h1M18 34h16M4 35h1M14 35h1M18 35h14M4 36h1M15 36h1M17 36h14M4 37h2M8 37h1M19 37h8M4 38h5M4 39h6M4 40h7M50 40h1M5 41h7M21 41h1M5 42h6M14 42h1M48 42h2M7 43h2M16 43h1M20 43h1M22 43h1M46 43h3M9 44h2M19 44h1M34 44h5M43 44h5M10 45h3M23 45h1M32 45h14M17 46h1M19 46h1M35 46h9M18 47h1M38 47h3M16 48h2M9 49h1M12 49h1M16 49h4M8 50h1M13 50h2M16 50h3M13 51h1M17 51h2M30 51h1M12 52h1M17 52h1M12 53h1M7 54h1M11 54h1M6 55h6M6 56h6M31 56h1M6 57h6M31 57h1" />
<path stroke="#f8f8b0" d="M30 8h1M36 8h1M23 9h1M29 9h1M35 9h2M23 10h1M28 10h1M34 10h2M23 11h1M33 11h1M19 12h1M23 12h1M19 13h1M19 14h1M15 15h1M15 16h1M16 18h1M34 21h2M33 22h4M31 23h4M37 23h1M30 24h2M35 24h1M38 24h1M30 25h1M36 25h1M39 25h1M4 26h1M30 26h1M39 26h1M30 27h1M37 27h1M40 27h1M37 28h1M40 28h1M41 29h1M41 30h1M49 38h1M52 39h1M53 42h1" />
<path stroke="#f8b048" d="M30 9h1M24 10h1M29 10h3M36 10h1M24 11h2M27 11h5M34 11h3M24 12h13M20 13h1M23 13h8M35 13h2M20 14h2M23 14h6M35 14h2M16 15h1M19 15h8M35 15h2M16 16h3M21 16h5M34 16h2M16 17h9M34 17h2M17 18h7M34 18h2M17 19h6M34 19h2M17 20h5M34 20h2M18 21h4M18 22h3M18 23h3M9 24h1M17 24h3M10 25h1M17 25h2M11 26h2M17 26h1M29 26h1M4 27h2M7 27h1M12 27h2M16 27h1M29 27h1M5 28h1M7 28h1M12 28h2M16 28h1M29 28h2M2 29h2M13 29h2M30 29h1M37 29h1M13 30h2M30 30h2M37 30h1M31 31h1M36 31h1M41 31h1M32 32h5M40 32h3M33 33h2M37 33h3M34 34h3M32 35h2M31 36h1M51 39h1M52 41h1" />
<path stroke="#a8c078" d="M33 21h1M31 22h2M30 23h1M35 23h1M32 24h1M36 24h1M29 25h1M31 25h1M36 26h2M29 29h1M31 29h1M36 30h1M30 31h1M32 31h1M31 32h1M32 33h1M35 33h1" />
<path stroke="#78d088" d="M16 23h1M15 24h1M33 24h2M15 25h1M28 25h1M32 25h4M27 26h2M31 26h2M35 26h1M27 27h2M31 27h2M36 27h1M28 28h1M31 28h2M36 28h1M5 29h1M11 29h1M32 29h2M36 29h1M38 29h1M40 29h1M4 30h3M33 30h3M38 30h2M4 31h3M12 31h1M4 32h3M12 32h1M4 33h4M13 33h1M4 34h4M13 34h1M5 35h3M5 36h3M6 37h2M21 39h1M21 40h1M13 41h2M22 41h1M49 41h1M15 42h1M17 42h2M22 42h1M47 42h1M11 43h3M18 43h2M23 43h1M40 43h1M45 43h1M23 44h1M39 44h4M10 49h2M9 50h4M8 51h5M7 52h5M7 53h5M8 54h3" />
<path stroke="#a0e898" d="M36 23h1M37 24h1M37 25h2M38 26h1M38 27h2M38 28h2M39 29h1M48 40h2M45 41h4M43 42h4M41 43h4" />
<path stroke="#e89848" d="M19 25h1M18 26h1M17 27h2M17 28h2M16 29h2M16 30h2M14 31h4M14 32h3M15 33h2M16 34h1M40 34h2M16 35h1M37 35h3M34 36h3M31 37h3" />
<path stroke="#f8f8f8" d="M34 27h1M34 28h1" />
<path stroke="#3080c0" d="M25 50h1M19 51h1M26 51h1M24 52h1M27 52h1M30 52h1M20 53h1M28 53h1M31 53h1M21 54h1M23 54h1M29 54h1M22 55h1M31 55h1M25 56h1M24 57h1" />
<path stroke="#58a8e0" d="M25 51h1M19 52h1M25 52h2M18 53h2M24 53h4M18 54h3M24 54h5M30 54h1M18 55h4M23 55h8M18 56h1M20 56h5M27 56h4M21 57h3M28 57h2" />
<path stroke="#78c0f8" d="M30 53h1M31 54h1" />
</svg>