<svg xmlns="http://www.w3.org/2000/svg" viewBox="0 -0.5 64 64" shape-rendering="crispEdges">
<metadata>Made with Pixels to Svg https://codepen.io/shshaw/pen/XbxvNj</metadata>
<path stroke="#669966" d="M38 9h5M36 10h2M34 11h2M30 12h3M28 13h2M27 14h1M26 15h1M26 16h1M25 17h1M25 18h1M45 23h2M43 24h4M35 25h1M42 25h1M41 26h1M47 26h1M52 26h1M40 27h1M53 27h1M39 28h1M35 29h1M47 29h1M35 30h1M34 31h2M34 32h3M21 33h1M33 33h4M47 33h1M17 34h4M32 34h6M16 35h1M31 35h6M31 36h6M30 37h6M29 38h6M28 39h6M27 40h7M25 41h9M22 42h12M22 43h11M23 44h10M23 45h10M24 46h9M37 46h2M24 47h9M24 48h7M33 48h3M25 49h5M31 49h4M25 50h4M30 50h5M25 51h3M29 51h6M26 52h2M29 52h6M26 53h1M28 53h7M26 54h1M28 54h8M11 55h2M26 55h1M28 55h8" />
<path stroke="#d8d0e8" d="M38 10h5M36 11h9M34 12h12M30 13h2M33 13h9M28 14h3M32 14h9M27 15h4M32 15h7M44 15h5M27 16h3M31 16h7M42 16h9M26 17h4M31 17h6M41 17h10M26 18h4M31 18h5M40 18h6M51 18h1M26 19h3M30 19h6M39 19h5M31 20h4M39 20h4M48 23h1M48 24h2M49 27h1M27 30h1M29 30h1M26 31h1M28 31h1M30 31h1M25 32h5M23 33h6M21 34h7M47 34h1M17 35h10M47 35h1M19 36h8M21 37h4" />
<path stroke="#106020" d="M43 10h2M45 11h1M33 12h1M32 13h1M31 14h1M45 14h4M31 15h1M42 15h2M49 15h2M30 16h1M41 16h1M51 16h1M30 17h1M40 17h1M51 17h1M30 18h1M39 18h1M52 18h1M25 19h1M29 19h1M38 19h1M52 19h1M25 20h1M29 20h1M37 20h1M53 20h1M25 21h1M29 21h1M37 21h1M25 22h1M29 22h1M36 22h1M45 22h4M26 23h1M29 23h1M36 23h1M43 23h2M47 23h1M49 23h1M26 24h1M28 24h1M36 24h1M42 24h1M47 24h1M26 25h1M28 25h1M41 25h1M47 25h1M27 26h2M35 26h1M40 26h1M50 26h1M27 27h1M35 27h1M39 27h1M27 28h1M35 28h1M47 28h1M49 28h1M53 28h1M26 29h1M34 29h1M38 29h1M48 29h1M54 29h1M26 30h1M34 30h1M36 30h2M42 30h1M54 30h1M25 31h1M33 31h1M54 31h1M23 32h2M33 32h1M54 32h1M22 33h1M32 33h1M46 33h1M53 33h1M31 34h1M45 34h1M48 34h1M30 35h1M48 35h1M16 36h1M30 36h1M16 37h1M29 37h1M17 38h1M28 38h1M17 39h1M27 39h1M18 40h1M25 40h2M34 40h1M19 41h6M35 41h1M35 42h1M36 43h3M15 44h1M36 44h1M39 44h1M14 45h1M14 46h1M13 47h1M33 47h4M13 48h1M31 48h2M37 48h1M9 49h1M12 49h1M30 49h1M38 49h1M9 50h1M12 50h1M29 50h1M39 50h1M8 51h1M12 51h1M28 51h1M39 51h1M8 52h1M12 52h1M28 52h1M40 52h1M8 53h1M12 53h1M27 53h1M9 54h1M12 54h1M27 54h1M9 55h1M13 55h1M27 55h1" />
<path stroke="#282828" d="M46 12h1M47 13h1M53 21h1M53 22h1M53 23h1M52 24h1M49 25h1M52 25h1M49 26h1M51 26h1M42 28h1M42 29h1M53 34h1M52 35h1M37 36h2M50 36h2M36 37h1M39 37h2M48 37h2M35 38h1M41 38h7M34 39h1M39 45h1M39 46h1M37 47h2M40 53h1M40 54h1M40 55h1" />
<path stroke="#a8a0b8" d="M42 13h5M41 14h3M39 15h3M38 16h3M37 17h3M36 18h3M46 18h5M36 19h2M44 19h8M26 20h3M30 20h1M35 20h2M38 20h1M43 20h10M26 21h3M30 21h7M38 21h15M26 22h3M30 22h6M37 22h8M49 22h4M27 23h2M30 23h6M37 23h6M50 23h3M27 24h1M29 24h7M37 24h5M50 24h2M27 25h1M29 25h6M36 25h5M50 25h2M29 26h6M36 26h4M28 27h7M36 27h3M28 28h7M36 28h3M27 29h7M36 29h2M28 30h1M30 30h4M27 31h1M29 31h1M31 31h2M30 32h3M29 33h3M28 34h3M27 35h3M17 36h2M27 36h3M17 37h4M25 37h4M18 38h10M18 39h9M19 40h6" />
<path stroke="#809090" d="M44 14h1M17 42h2M16 43h1M13 45h1M11 46h1M10 47h1M10 48h1" />
<path stroke="#60c060" d="M43 25h4M42 26h5M41 27h1M43 27h5M50 27h2M40 28h1M44 28h3M50 28h2M39 29h2M44 29h3M49 29h3M38 30h3M44 30h9M36 31h6M43 31h10M37 32h16M37 33h2M41 33h5M48 33h5M43 34h2M49 34h4M49 35h3M34 41h1M20 42h2M34 42h1M21 43h1M33 43h3M21 44h2M33 44h3M37 44h1M21 45h2M33 45h6M21 46h3M33 46h4M14 47h1M16 47h1M20 47h4M15 48h1M17 48h1M19 48h5M36 48h1M13 49h2M16 49h1M18 49h7M35 49h3M13 50h12M35 50h4M9 51h3M13 51h12M35 51h2M9 52h3M13 52h13M35 52h2M9 53h3M13 53h13M35 53h2M10 54h2M13 54h2M19 54h7M36 54h1M10 55h1M22 55h4M36 55h2" />
<path stroke="#f8f8f8" d="M48 25h1M48 26h1M48 27h1M48 28h1M46 34h1M45 35h2" />
<path stroke="#c08060" d="M42 27h1M41 28h1M43 28h1M41 29h1M43 29h1M41 30h1M43 30h1M42 31h1M39 33h2M38 34h5M37 35h8M39 36h10M41 37h3M15 54h4M14 55h8" />
<path stroke="#90e090" d="M52 27h1M52 28h1M52 29h2M53 30h1M53 31h1M53 32h1M19 42h1M17 43h4M16 44h5M38 44h1M15 45h6M12 46h2M15 46h6M11 47h2M15 47h1M17 47h3M11 48h2M14 48h1M16 48h1M18 48h1M10 49h2M15 49h1M17 49h1M10 50h2M37 51h2M37 52h3M37 53h3M37 54h3M38 55h2" />
<path stroke="#f89060" d="M49 36h1M44 37h4" />
</svg>