<svg xmlns="http://www.w3.org/2000/svg" viewBox="0 -0.5 64 64" shape-rendering="crispEdges">
<metadata>Made with Pixels to Svg https://codepen.io/shshaw/pen/XbxvNj</metadata>
<path stroke="#cc99cc" d="M30 13h1M44 13h3M29 14h1M43 14h1M14 15h3M40 15h1M46 15h1M13 16h1M18 16h1M45 16h3M12 17h1M21 17h1M44 17h2M47 17h1M12 18h1M20 18h3M44 18h1M47 18h1M12 19h1M20 19h1M43 19h2M47 19h2M43 20h1M48 20h1M43 21h1M48 21h1M42 22h2M48 22h1M42 23h2M48 23h1M13 24h1M42 24h2M48 24h1M42 25h2M47 25h2M42 26h3M47 26h1M42 27h4M47 27h1M12 28h1M43 28h5M43 29h5M44 30h5M11 31h1M43 31h1M45 31h4M44 32h5M43 33h1M45 33h5M44 34h6M43 35h1M45 35h5M42 36h1M44 36h6M12 37h1M43 37h1M45 37h5M42 38h1M44 38h5M50 38h1M13 39h1M41 39h1M43 39h6M50 39h3M40 40h1M42 40h1M44 40h8M15 41h1M39 41h1M41 41h1M43 41h5M49 41h2M14 42h1M16 42h1M38 42h1M40 42h1M42 42h6M15 43h1M17 43h1M35 43h1M37 43h1M39 43h1M41 43h6M16 44h1M18 44h1M20 44h1M34 44h1M36 44h1M38 44h8M16 45h2M19 45h1M21 45h1M23 45h1M25 45h1M27 45h1M29 45h1M31 45h1M33 45h1M35 45h1M37 45h8M17 46h4M22 46h1M24 46h1M26 46h1M28 46h1M30 46h1M32 46h1M34 46h10M18 47h25M19 48h23M21 49h20M43 49h1M23 50h16M41 50h5" />
<path stroke="#704070" d="M31 13h3M28 14h1M34 14h1M41 14h2M17 15h1M27 15h1M39 15h1M47 15h1M19 16h3M26 16h1M37 16h2M22 17h4M35 17h2M23 18h1M48 18h1M21 19h2M12 20h1M20 20h1M12 21h1M12 22h1M12 23h1M13 25h1M49 25h1M13 26h1M13 27h1M12 29h1M48 29h1M12 30h1M49 31h1M11 32h1M49 32h1M11 33h1M11 34h1M11 35h1M11 36h1M50 36h2M52 37h1M12 38h1M49 38h1M53 38h1M12 39h1M49 39h1M13 40h1M52 40h1M48 41h1M51 41h1M48 42h1M15 44h1M46 44h1M45 45h1M44 46h1M43 47h1M42 48h1M44 48h1M19 49h1M41 49h1M46 49h1M22 50h1M39 50h1" />
<path stroke="#f0e8f0" d="M30 14h4M44 14h2M28 15h5M41 15h4M14 16h4M27 16h5M39 16h5M13 17h5M26 17h6M37 17h5M13 18h4M25 18h6M37 18h3M13 19h3M23 19h7M13 20h2M22 20h5M28 20h1M30 20h1M13 21h1M20 21h6M27 21h1M29 21h1M13 22h1M19 22h6M26 22h1M28 22h1M13 23h1M18 23h6M25 23h1M27 23h1M17 24h8M16 25h8M15 26h8M14 27h8M13 28h7M13 29h6M13 30h6M12 31h6M12 32h6M12 33h3M16 33h1M12 34h2M15 34h1M17 34h1M12 35h3M16 35h1M13 36h1M15 36h1M14 37h1" />
<path stroke="#101010" d="M35 14h2M47 14h1M37 15h1M48 16h1M46 17h1M48 17h1M45 18h2M45 19h2M49 19h1M44 20h3M49 20h1M44 21h3M49 21h1M44 22h2M49 22h1M44 23h2M49 23h1M44 24h2M49 24h1M44 25h2M45 26h1M48 26h1M48 27h1M48 28h1M49 30h1M50 33h1M50 34h1M50 35h1M53 39h1M53 40h1M13 41h1M52 41h1M13 42h1M49 42h3M14 43h1M47 43h1M15 45h1M46 45h1M16 46h1M45 46h1M17 47h1M44 47h1M18 48h1M43 48h1M45 48h1M20 49h1M42 49h1M47 49h1M21 50h1M40 50h1M48 50h1" />
<path stroke="#f0c0f0" d="M46 14h1M33 15h4M45 15h1M32 16h5M44 16h1M18 17h3M32 17h3M42 17h2M17 18h3M24 18h1M31 18h6M40 18h4M16 19h4M30 19h13M15 20h5M21 20h1M27 20h1M29 20h1M31 20h12M14 21h6M26 21h1M28 21h1M30 21h13M14 22h5M25 22h1M27 22h1M29 22h13M14 23h4M24 23h1M26 23h1M28 23h14M14 24h3M25 24h17M14 25h2M24 25h18M14 26h1M23 26h19M22 27h20M20 28h23M19 29h24M19 30h25M18 31h25M44 31h1M18 32h26M15 33h1M17 33h26M44 33h1M14 34h1M16 34h1M18 34h26M15 35h1M17 35h26M44 35h1M12 36h1M14 36h1M16 36h26M43 36h1M13 37h1M15 37h28M44 37h1M50 37h2M13 38h29M43 38h1M51 38h2M14 39h27M42 39h1M14 40h26M41 40h1M43 40h1M14 41h1M16 41h23M40 41h1M42 41h1M15 42h1M17 42h21M39 42h1M41 42h1M16 43h1M18 43h17M36 43h1M38 43h1M40 43h1M17 44h1M19 44h1M21 44h13M35 44h1M37 44h1M18 45h1M20 45h1M22 45h1M24 45h1M26 45h1M28 45h1M30 45h1M32 45h1M34 45h1M36 45h1M21 46h1M23 46h1M25 46h1M27 46h1M29 46h1M31 46h1M33 46h1M44 49h2M46 50h2" />
<path stroke="#704018" d="M47 20h1M47 21h1M46 22h2M46 23h2M46 24h2M46 25h1M46 26h1M46 27h1" />
</svg>