<svg xmlns="http://www.w3.org/2000/svg" viewBox="0 -0.5 64 64" shape-rendering="crispEdges">
<metadata>Made with Pixels to Svg https://codepen.io/shshaw/pen/XbxvNj</metadata>
<path stroke="#60a8f8" d="M44 10h1M46 10h1M48 13h1M50 13h1M22 15h1M35 15h4M23 16h1M35 16h5M22 17h1M34 17h7M24 18h1M35 18h2M40 18h1M27 19h1M31 20h1M54 21h1M27 22h2M26 23h1M28 24h1M55 24h1M29 25h1M34 25h1M37 26h1M32 27h1M35 27h1M30 28h1M37 28h1M39 28h1M42 28h1M55 28h1M31 29h1M38 29h1M34 30h1M37 30h2M41 30h1M54 30h1M35 31h2M34 32h1M40 32h1M29 33h1M35 33h1M38 33h1M22 34h2M28 34h1M34 34h3M18 35h1M20 35h1M31 35h5M36 36h1M21 37h1M36 37h1M14 38h1M21 38h2M30 38h1M22 39h1M25 39h1M29 39h1M22 40h1M26 40h3M30 40h1M14 41h1M22 41h1M29 41h1M13 42h1M22 42h1M11 43h1M17 43h2M28 43h1M9 44h1M18 44h2M16 45h3M8 46h1M12 46h1M15 47h1M21 47h1M20 48h1M15 49h1M18 49h1M15 50h1M20 50h1M14 51h1M21 51h1M13 52h1" />
<path stroke="#3880f8" d="M33 11h1M45 11h1M31 12h1M37 12h1M39 13h1M45 13h2M40 14h4M48 14h1M50 14h1M40 15h6M48 15h1M50 15h1M41 16h5M49 16h1M23 17h1M28 17h2M41 17h6M52 17h1M25 18h7M37 18h3M41 18h8M32 19h17M32 20h16M53 20h1M32 21h1M35 21h10M46 21h2M53 21h1M30 22h2M37 22h2M40 22h3M44 22h1M47 22h2M52 22h2M28 23h1M33 23h2M38 23h2M42 23h2M48 23h3M53 23h1M29 24h5M38 24h3M49 24h1M39 25h1M54 25h1M39 26h1M54 26h1M33 27h1M36 27h1M38 27h3M53 27h2M31 28h1M34 28h1M41 28h1M53 28h1M32 29h2M40 29h2M53 29h1M32 30h1M39 30h2M32 31h2M37 31h4M30 32h2M36 32h4M36 33h2M29 34h2M29 35h2M18 36h3M22 36h3M28 36h1M30 36h6M23 37h2M26 37h2M31 37h5M23 38h2M31 38h3M14 39h1M20 39h1M23 39h2M30 39h1M16 40h1M18 40h2M23 40h3M29 40h1M18 41h3M23 41h6M17 42h5M23 42h6M13 43h1M19 43h9M11 44h1M14 44h1M20 44h7M10 45h1M12 45h1M15 45h1M19 45h6M14 46h8M16 47h5M16 48h4M10 49h3M16 49h2M11 50h3M16 50h4M11 51h2M15 51h6M15 52h6M14 53h5M12 54h6" />
<path stroke="#1058d0" d="M34 11h3M43 11h1M46 11h1M38 12h1M42 12h1M46 12h1M30 13h1M42 13h1M30 14h1M45 14h1M23 15h1M28 15h2M51 15h1M24 16h3M46 16h1M51 16h1M47 17h1M49 17h1M49 18h1M52 18h1M28 19h4M53 19h1M45 21h1M39 22h1M43 22h1M45 22h2M54 22h1M40 23h2M44 23h4M34 24h4M41 24h8M30 25h4M38 25h1M40 25h8M55 25h1M38 26h1M40 26h4M55 26h1M41 27h2M55 27h1M54 28h1M54 29h1M23 35h2M28 35h1M25 36h1M19 37h1M19 38h1M34 38h2M15 39h3M31 39h3M27 44h1M11 45h1M25 45h2M11 46h1M22 46h3M8 47h1M9 48h1M9 49h1M10 50h1M21 52h1M19 53h2M18 54h1" />
<path stroke="#d8e8f0" d="M44 11h1M32 12h5M43 12h3M31 13h8M43 13h2M31 14h9M44 14h1M49 14h1M30 15h5M39 15h1M49 15h1M27 16h8M40 16h1M50 16h1M24 17h4M30 17h4M50 17h2M32 18h3M50 18h2M49 19h4M48 20h5M33 21h2M48 21h5M32 22h5M49 22h3M27 23h1M29 23h4M35 23h3M54 23h1M54 24h1M37 27h1M32 28h2M35 28h2M38 28h1M40 28h1M34 29h4M39 29h1M33 30h1M35 30h2M34 31h1M32 32h2M35 32h1M30 33h5M31 34h3M29 36h1M20 37h1M22 37h1M25 37h1M28 37h3M13 38h1M20 38h1M25 38h5M21 39h1M26 39h3M15 40h1M17 40h1M20 40h2M15 41h3M21 41h1M14 42h3M14 43h3M15 44h3M9 45h1M9 46h2M13 46h1M9 47h6M10 48h6M13 49h2M14 50h1M13 51h1M11 52h2M14 52h1M10 53h4M10 54h2" />
<path stroke="#806028" d="M51 23h2M50 24h1M53 24h1M48 25h2M44 26h4M43 27h1M46 27h1M52 27h1M42 29h1M51 30h1M53 30h1M41 31h1M53 31h1M54 32h1M54 33h1M52 34h1M54 34h1M51 35h1M54 35h1M54 36h1M45 37h1M54 37h1M44 38h1M44 39h1M53 39h1M43 40h1M53 40h1M30 41h2M33 42h1M35 43h1M42 43h1M44 43h1M44 44h1M45 45h1M48 45h1M52 45h1M41 46h1M45 46h1M49 46h1M38 47h1M46 47h1M39 48h1M47 48h1M39 49h1M40 50h1M10 51h1M10 52h1M41 52h1M9 53h1M9 54h1" />
<path stroke="#f8f8d8" d="M51 24h2M50 25h2M48 26h4M47 27h4M47 28h4M47 29h3M48 30h1M40 33h2M38 34h4M37 35h5M37 36h5M37 37h4M37 38h4M35 39h5M32 40h9M33 41h7M29 42h4M35 42h4M40 42h1M29 43h6M37 43h1M39 43h1M29 44h6M38 44h1M40 44h1M28 45h8M37 45h1M39 45h1M25 46h12M22 47h15M21 48h16M19 49h18M21 50h15M22 51h13M22 52h9M32 52h1M21 53h7M29 53h1M31 53h1M21 54h4M26 54h1M28 54h1M30 54h1" />
<path stroke="#f8f0b8" d="M52 25h1M52 26h1M44 27h2M51 27h1M43 28h4M51 28h1M43 29h4M50 29h2M42 30h6M49 30h2M42 31h9M41 32h12M39 33h1M42 33h11M37 34h1M42 34h10M36 35h1M42 35h9M42 36h9M41 37h4M46 37h5M36 38h1M41 38h3M47 38h5M34 39h1M40 39h4M48 39h4M31 40h1M41 40h2M48 40h4M40 41h3M48 41h4M39 42h1M41 42h1M48 42h5M36 43h1M38 43h1M40 43h2M49 43h4M28 44h1M35 44h3M39 44h1M41 44h1M50 44h3M27 45h1M36 45h1M38 45h1M40 45h1M51 45h1M37 46h4M37 47h1M39 47h1M37 48h2M37 49h2M36 50h3M35 51h3M31 52h1M33 52h5M28 53h1M30 53h1M32 53h5M19 54h2M25 54h1M27 54h1M29 54h1M31 54h4" />
<path stroke="#101010" d="M53 25h1M53 26h1M52 28h1M52 29h1M53 35h1M51 36h1M53 36h1M51 37h3M52 38h1M32 41h1M43 41h1M53 41h1M34 42h1M43 42h1M53 42h1M43 43h1M53 43h1M42 44h1M53 44h1M42 45h1M44 45h1M53 45h1M52 46h1M41 47h1M49 47h1M51 47h1M41 48h1M48 48h3M41 49h1M40 51h1M41 53h1M41 54h1" />
<path stroke="#f0d098" d="M52 30h1M51 31h2M53 32h1M53 33h1M53 34h1M45 38h2M53 38h1M45 39h3M52 39h1M44 40h4M52 40h1M44 41h4M52 41h1M42 42h1M44 42h4M45 43h4M45 44h5M41 45h1M46 45h2M49 45h2M46 46h3M50 46h2M40 47h1M47 47h2M50 47h1M40 48h1M40 49h1M39 50h1M38 51h2M38 52h3M37 53h4M35 54h6" />
<path stroke="#585858" d="M52 35h1" />
<path stroke="#f8f8f8" d="M52 36h1" />
</svg>