<svg xmlns="http://www.w3.org/2000/svg" viewBox="0 -0.5 40 30" shape-rendering="crispEdges">
<metadata>Made with Pixels to Svg https://codepen.io/shshaw/pen/XbxvNj</metadata>
<path stroke="#ffffff" d="M30 14h4M28 15h2M34 15h2M27 16h1M36 16h1M26 17h1M37 17h1M25 18h1M29 18h2M38 18h1M25 19h1M29 19h2M38 19h1M24 20h1M39 20h1M24 21h1M39 21h1M24 22h1M39 22h1M24 23h1M39 23h1M25 24h1M38 24h1M25 25h1M38 25h1M26 26h1M37 26h1M27 27h1M36 27h1M28 28h2M34 28h2M30 29h4" />
<path stroke="#202020" d="M30 15h4M28 16h2M34 16h2M27 17h1M36 17h1M26 18h1M37 18h1M26 19h1M37 19h1M25 20h1M38 20h1M25 21h1M38 21h1M25 22h1M38 22h1M25 23h1M38 23h1M26 24h1M37 24h1M26 25h1M37 25h1M27 26h1M36 26h1M28 27h2M34 27h2M30 28h4" />
<path stroke="#ff99f1" d="M30 16h4M28 17h1M33 17h2M27 18h1M33 18h1" />
<path stroke="#ffd1f7" d="M29 17h2M28 18h1M31 18h1M28 19h1" />
<path stroke="#58389f" d="M31 17h2M32 18h1" />
<path stroke="#009bf2" d="M35 17h1M34 18h3M27 19h1M34 19h2M26 20h2M27 21h1M31 21h2" />
<path stroke="#00eaff" d="M31 19h1M36 19h1M29 20h2M36 20h2M26 21h1M33 21h1M36 21h2M26 22h2M36 22h1M27 23h3M33 23h2M28 24h3" />
<path stroke="#0632a0" d="M32 19h1M28 20h1M31 20h4M28 21h2" />
<path stroke="#0067c9" d="M33 19h1M30 21h1" />
<path stroke="#00b6d7" d="M35 20h1M28 22h1M30 23h1M32 23h1M31 24h1" />
<path stroke="#0084ae" d="M34 21h2M29 22h7M31 23h1M35 23h1M32 24h2" />
<path stroke="#00d500" d="M37 22h1M26 23h1M36 23h2M27 24h1M36 24h1M27 25h5M35 25h1M29 26h3M33 26h1" />
<path stroke="#006e00" d="M34 24h1M32 25h2M32 26h1" />
<path stroke="#00a200" d="M35 24h1M34 25h1" />
<path stroke="#efe100" d="M36 25h1M28 26h1M34 26h2M30 27h4" />
</svg>