<svg xmlns="http://www.w3.org/2000/svg" viewBox="0 -0.5 32 32" shape-rendering="crispEdges">
<metadata>Made with Pixels to Svg https://codepen.io/shshaw/pen/XbxvNj</metadata>
<path stroke="#292821" d="M11 6h1M18 6h2M10 7h1M8 24h1M9 25h1" />
<path stroke="#292429" d="M12 6h6M9 7h1M20 7h2M22 8h1M22 9h1M8 10h1M22 10h1M8 11h1M22 11h1M8 12h1M22 12h1M8 13h1M22 13h1M8 14h1M22 14h1M8 15h1M22 15h1M8 16h1M22 16h1M8 17h1M22 17h1M8 18h1M22 18h1M8 19h1M22 19h1M8 20h1M22 20h1M8 21h1M22 21h1M22 22h1M22 23h1M22 24h1M10 25h1M20 25h2M11 26h9" />
<path stroke="#949388" d="M11 7h1M9 24h1" />
<path stroke="#efd79c" d="M12 7h2" />
<path stroke="#f7e3ad" d="M14 7h4M10 8h2M20 8h2M11 9h1" />
<path stroke="#e7cf8c" d="M18 7h1" />
<path stroke="#a79768" d="M19 7h1" />
<path stroke="#292421" d="M8 8h1M8 9h1" />
<path stroke="#f7df9c" d="M9 8h1" />
<path stroke="#f7e2aa" d="M12 8h8M12 9h8" />
<path stroke="#b2a073" d="M9 9h1" />
<path stroke="#dec98e" d="M10 9h1" />
<path stroke="#deca94" d="M20 9h1" />
<path stroke="#ad9a63" d="M21 9h1" />
<path stroke="#8c8d3d" d="M9 10h1M9 11h1" />
<path stroke="#947942" d="M10 10h1M11 11h5" />
<path stroke="#a4a452" d="M11 10h1" />
<path stroke="#dbc594" d="M12 10h1M15 10h1" />
<path stroke="#ffebbd" d="M13 10h2" />
<path stroke="#af9c63" d="M16 10h4" />
<path stroke="#8c7d39" d="M20 10h2" />
<path stroke="#b5cf63" d="M10 11h1" />
<path stroke="#917a42" d="M16 11h4" />
<path stroke="#a5d352" d="M20 11h1" />
<path stroke="#949941" d="M21 11h1" />
<path stroke="#86a039" d="M9 12h1M9 13h1M9 14h1M9 15h1" />
<path stroke="#adcf5a" d="M10 12h1M10 13h1" />
<path stroke="#ef5929" d="M11 12h1M11 13h1" />
<path stroke="#ec5a26" d="M12 12h1M18 12h2M12 13h1M18 13h2" />
<path stroke="#f79642" d="M13 12h1M13 13h1" />
<path stroke="#f7943f" d="M14 12h4M14 13h4" />
<path stroke="#add056" d="M20 12h1M20 13h1M20 14h1M20 15h1" />
<path stroke="#84a239" d="M21 12h1M21 13h1M21 14h1M21 15h1" />
<path stroke="#acd05a" d="M10 14h1M10 15h1" />
<path stroke="#c5dd8b" d="M11 14h1M11 15h1" />
<path stroke="#c5dd89" d="M12 14h1M12 15h1" />
<path stroke="#e7fba5" d="M13 14h1M13 15h1" />
<path stroke="#e6f9a7" d="M14 14h4" />
<path stroke="#c3dd8c" d="M18 14h2M19 15h1M12 16h1" />
<path stroke="#fff7e7" d="M14 15h4M14 16h1" />
<path stroke="#fff3de" d="M18 15h1M13 16h1M12 17h2M11 18h1M19 18h1M11 19h1M18 19h1M11 20h1M18 20h1M11 21h2M16 21h2M14 22h3M18 23h1" />
<path stroke="#9c9a39" d="M9 16h1" />
<path stroke="#c0cd70" d="M10 16h1" />
<path stroke="#b5df7b" d="M11 16h1" />
<path stroke="#ffe3b1" d="M15 16h1M14 17h2" />
<path stroke="#ffe2b2" d="M16 16h2M16 17h2M12 18h4M12 19h4" />
<path stroke="#fff3db" d="M18 16h2M19 17h1" />
<path stroke="#bdc35a" d="M20 16h1M20 17h1" />
<path stroke="#978c3e" d="M21 16h1" />
<path stroke="#757233" d="M9 17h1" />
<path stroke="#d6aa5a" d="M10 17h2" />
<path stroke="#ffe3b5" d="M18 17h1M16 18h2M16 19h1M14 20h2" />
<path stroke="#847131" d="M21 17h1" />
<path stroke="#946331" d="M9 18h1M9 19h1M9 20h1M9 21h1" />
<path stroke="#d3a154" d="M10 18h1M10 19h1" />
<path stroke="#eed09f" d="M18 18h1" />
<path stroke="#c5954c" d="M20 18h1" />
<path stroke="#946531" d="M21 18h1M21 19h1" />
<path stroke="#eecea0" d="M17 19h1M12 20h2M16 20h2M13 21h3" />
<path stroke="#dead60" d="M19 19h1M19 20h1M18 21h2" />
<path stroke="#deae5a" d="M20 19h1" />
<path stroke="#d9aa60" d="M10 20h1M10 21h1" />
<path stroke="#c8984f" d="M20 20h1M20 21h1" />
<path stroke="#7b4d18" d="M21 20h1M21 21h1M9 22h1M9 23h1" />
<path stroke="#292723" d="M8 22h1M8 23h1" />
<path stroke="#c8984c" d="M10 22h1M10 23h1" />
<path stroke="#dbab5f" d="M11 22h1M11 23h1" />
<path stroke="#fff3d6" d="M12 22h2" />
<path stroke="#fbc873" d="M17 22h1M14 23h4" />
<path stroke="#deae63" d="M18 22h2" />
<path stroke="#cdac7b" d="M20 22h1" />
<path stroke="#9c6529" d="M21 22h1M21 23h1" />
<path stroke="#e7ae52" d="M12 23h1" />
<path stroke="#efc57e" d="M13 23h1" />
<path stroke="#e9c58c" d="M19 23h1" />
<path stroke="#fff3ce" d="M20 23h1" />
<path stroke="#bda263" d="M10 24h2M11 25h1" />
<path stroke="#deb263" d="M12 24h1" />
<path stroke="#e9c684" d="M13 24h1M12 25h1" />
<path stroke="#f7c773" d="M14 24h4" />
<path stroke="#deaa63" d="M18 24h2" />
<path stroke="#b29b65" d="M20 24h2" />
<path stroke="#ffefc6" d="M13 25h1" />
<path stroke="#f7e7c6" d="M14 25h1" />
<path stroke="#f7d18e" d="M15 25h1" />
<path stroke="#b19c62" d="M16 25h2" />
<path stroke="#b19c63" d="M18 25h2" />
</svg>