<svg xmlns="http://www.w3.org/2000/svg" viewBox="0 -0.5 32 32" shape-rendering="crispEdges">
<metadata>Made with Pixels to Svg https://codepen.io/shshaw/pen/XbxvNj</metadata>
<path stroke="#ffffff" d="M11 8h10M9 9h3M20 9h3M8 10h2M22 10h2M7 11h2M23 11h2M7 12h1M24 12h1M6 13h2M24 13h2M6 14h1M25 14h1M6 15h1M25 15h1M6 16h1M25 16h1M6 17h1M25 17h1M6 18h1M25 18h1M6 19h1M25 19h1M6 20h2M24 20h2M7 21h1M24 21h1M7 22h2M23 22h2M8 23h2M22 23h2M9 24h3M20 24h3M11 25h10" />
<path stroke="#202020" d="M12 9h8M10 10h2M20 10h2M9 11h1M22 11h1M8 12h1M23 12h1M8 13h1M23 13h1M7 14h1M24 14h1M7 15h1M24 15h1M7 16h1M24 16h1M7 17h1M24 17h1M7 18h1M24 18h1M7 19h1M24 19h1M8 20h1M23 20h1M8 21h1M23 21h1M9 22h1M22 22h1M10 23h2M20 23h2M12 24h8" />
<path stroke="#f8a890" d="M12 10h8M10 11h3M19 11h3M9 12h2M13 12h6M21 12h2M9 13h1M12 13h8M22 13h1M8 14h2M22 14h2M8 15h2M11 15h10M22 15h2" />
<path stroke="#d06060" d="M13 11h6M11 12h2M19 12h2M10 13h1M21 13h1M10 14h1M21 14h1M10 15h1M21 15h1M10 16h1M21 16h1M10 17h1M21 17h1M8 19h1M23 19h1" />
<path stroke="#e08870" d="M11 13h1M20 13h1M11 17h1M20 17h1" />
<path stroke="#f8c8c0" d="M11 14h10M8 16h2M11 16h10M22 16h2M8 17h2M12 17h8M22 17h2M8 18h3M13 18h6M21 18h3M9 19h1M22 19h1" />
<path stroke="#c89050" d="M11 18h2M19 18h2M10 19h1M13 19h6M21 19h1M11 21h1M20 21h1" />
<path stroke="#f8f8d0" d="M11 19h2M10 20h6M12 21h5" />
<path stroke="#e8d898" d="M19 19h2M16 20h6M17 21h3" />
<path stroke="#b88030" d="M9 20h1M22 20h1M9 21h2M21 21h2M10 22h12M12 23h8" />
</svg>