<svg xmlns="http://www.w3.org/2000/svg" viewBox="0 -0.5 48 48" shape-rendering="crispEdges">
<metadata>Made with Pixels to Svg https://codepen.io/shshaw/pen/XbxvNj</metadata>
<path stroke="#ffffff" d="M0 0h48M0 1h48M0 2h48M0 3h48M0 4h18M19 4h29M0 5h17M21 5h27M0 6h16M17 6h1M21 6h27M0 7h16M17 7h1M23 7h25M0 8h16M17 8h1M23 8h25M0 9h16M17 9h1M24 9h24M0 10h15M16 10h2M24 10h24M0 11h15M16 11h2M25 11h23M0 12h15M16 12h3M27 12h6M40 12h8M0 13h15M16 13h3M28 13h2M33 13h6M41 13h7M0 14h14M15 14h4M32 14h4M41 14h7M0 15h14M15 15h4M23 15h1M31 15h5M41 15h7M0 16h13M14 16h2M22 16h1M30 16h5M41 16h7M0 17h13M14 17h1M16 17h4M22 17h1M30 17h3M41 17h7M0 18h11M16 18h3M22 18h1M29 18h3M41 18h7M0 19h6M11 19h1M17 19h1M29 19h2M40 19h8M0 20h4M6 20h4M11 20h1M16 20h5M40 20h8M0 21h3M4 21h7M12 21h1M15 21h2M21 21h1M39 21h9M0 22h3M5 22h6M12 22h1M15 22h1M22 22h1M29 22h2M39 22h9M0 23h4M13 23h3M18 23h2M23 23h1M26 23h3M38 23h10M0 24h5M13 24h2M18 24h1M23 24h1M26 24h2M38 24h10M0 25h6M13 25h2M17 25h1M23 25h1M37 25h11M0 26h7M12 26h3M23 26h1M37 26h11M0 27h8M10 27h5M23 27h1M38 27h10M0 28h9M14 28h2M23 28h1M38 28h10M0 29h10M15 29h2M22 29h1M38 29h10M0 30h11M12 30h1M15 30h3M21 30h1M39 30h9M0 31h12M14 31h3M18 31h3M25 31h1M39 31h9M0 32h12M15 32h2M25 32h2M40 32h8M0 33h12M13 33h1M17 33h1M26 33h3M40 33h8M0 34h12M13 34h2M16 34h2M27 34h3M41 34h7M0 35h11M12 35h1M14 35h1M16 35h1M26 35h1M41 35h7M0 36h11M12 36h2M15 36h1M19 36h1M26 36h4M41 36h7M0 37h11M13 37h1M26 37h6M42 37h6M0 38h11M12 38h2M27 38h8M42 38h6M0 39h11M12 39h2M23 39h4M32 39h5M42 39h6M0 40h10M11 40h2M22 40h10M36 40h4M42 40h6M0 41h10M11 41h2M21 41h15M40 41h8M0 42h10M11 42h1M20 42h28M0 43h10M11 43h1M18 43h30M0 44h11M16 44h32M0 45h12M14 45h34M0 46h48M0 47h48" />
<path stroke="#000000" d="M18 4h1M17 5h1M19 5h2M20 6h1M22 7h1M16 8h1M22 8h1M16 9h1M23 9h1M15 10h1M23 10h1M15 11h1M24 11h1M15 12h1M25 12h2M33 12h7M15 13h1M24 13h1M27 13h1M30 13h3M40 13h1M14 14h1M23 14h2M27 14h3M40 14h1M14 15h1M21 15h2M26 15h1M40 15h1M13 16h1M16 16h6M25 16h2M39 16h2M13 17h1M15 17h1M21 17h1M27 17h1M39 17h2M11 18h4M28 18h1M33 18h1M38 18h1M40 18h1M6 19h5M28 19h1M32 19h1M34 19h1M37 19h1M39 19h1M4 20h2M10 20h1M28 20h1M31 20h1M33 20h1M37 20h1M39 20h1M3 21h1M18 21h3M30 21h3M34 21h1M36 21h1M38 21h1M3 22h1M17 22h5M27 22h2M32 22h2M35 22h2M38 22h1M4 23h1M12 23h1M17 23h1M20 23h3M32 23h1M34 23h2M37 23h1M5 24h1M12 24h1M16 24h2M20 24h3M31 24h1M33 24h1M35 24h1M37 24h1M6 25h1M11 25h1M16 25h1M18 25h3M30 25h7M7 26h1M10 26h1M16 26h2M19 26h2M34 26h3M8 27h2M16 27h2M37 27h1M9 28h2M17 28h3M22 28h1M34 28h4M10 29h3M18 29h4M32 29h4M37 29h1M11 30h1M13 30h1M28 30h8M38 30h1M12 31h1M28 31h3M32 31h1M34 31h1M36 31h1M38 31h1M12 32h2M29 32h1M31 32h1M33 32h1M35 32h1M37 32h1M39 32h1M12 33h1M14 33h1M16 33h1M25 33h1M30 33h1M32 33h1M37 33h1M39 33h1M12 34h1M15 34h1M26 34h1M30 34h2M38 34h1M40 34h1M11 35h1M15 35h1M19 35h1M25 35h1M27 35h4M38 35h1M40 35h1M11 36h1M14 36h1M18 36h1M25 36h1M39 36h2M11 37h1M14 37h1M17 37h1M19 37h2M25 37h1M39 37h3M11 38h1M16 38h2M21 38h6M40 38h2M20 39h1M22 39h1M27 39h5M40 39h2M10 40h1M19 40h1M21 40h1M32 40h4M40 40h2M10 41h1M18 41h3M36 41h4M10 42h1M17 42h3M10 43h1M16 43h2M11 44h1M14 44h2M12 45h2" />
<path stroke="#aaaaaa" d="M18 5h1M18 6h1M18 7h1M18 8h1M18 9h1M18 10h1M18 11h2M19 12h1M19 13h1M19 14h1M31 14h1M36 14h2M19 15h1M24 15h1M29 15h2M23 16h1M29 16h1M35 16h1M23 17h2M28 17h2M33 17h2M19 18h2M23 18h1M25 18h1M32 18h1M12 19h2M16 19h1M18 19h9M31 19h1M12 20h2M23 20h1M25 20h2M29 20h2M14 21h1M24 21h3M4 22h1M13 22h2M24 22h3M31 22h1M5 23h7M25 23h1M29 23h1M19 24h1M25 24h1M28 24h1M25 25h3M21 26h1M25 26h9M21 27h1M25 27h2M28 27h7M25 28h9M24 29h8M14 30h1M23 30h2M26 30h2M13 31h1M17 31h1M22 31h3M26 31h1M14 32h1M17 32h8M27 32h2M15 33h1M18 33h5M24 33h1M29 33h1M20 34h6M13 35h1M17 35h1M20 35h5M16 36h1M20 36h5M30 36h2M12 37h1M15 37h1M21 37h4M32 37h3M14 38h1M35 38h2M37 39h1M13 40h1M12 42h1M12 43h1" />
<path stroke="#555555" d="M16 6h1M19 6h1M16 7h1M19 7h3M19 8h3M19 9h4M19 10h4M20 11h4M20 12h5M20 13h4M25 13h2M39 13h1M20 14h3M25 14h2M30 14h1M38 14h2M20 15h1M25 15h1M27 15h2M36 15h4M24 16h1M27 16h2M36 16h3M20 17h1M25 17h2M35 17h4M15 18h1M21 18h1M24 18h1M26 18h2M34 18h4M39 18h1M14 19h2M27 19h1M33 19h1M35 19h2M38 19h1M14 20h2M21 20h2M24 20h1M27 20h1M32 20h1M34 20h3M38 20h1M11 21h1M13 21h1M17 21h1M22 21h2M27 21h3M33 21h1M35 21h1M37 21h1M11 22h1M16 22h1M23 22h1M34 22h1M37 22h1M16 23h1M24 23h1M30 23h2M33 23h1M36 23h1M6 24h6M15 24h1M24 24h1M29 24h2M32 24h1M34 24h1M36 24h1M7 25h4M12 25h1M15 25h1M21 25h2M24 25h1M28 25h2M8 26h2M11 26h1M15 26h1M18 26h1M22 26h1M24 26h1M15 27h1M18 27h3M22 27h1M24 27h1M27 27h1M35 27h2M11 28h3M16 28h1M20 28h2M24 28h1M13 29h2M17 29h1M23 29h1M36 29h1M18 30h3M22 30h1M25 30h1M36 30h2M21 31h1M27 31h1M31 31h1M33 31h1M35 31h1M37 31h1M30 32h1M32 32h1M34 32h1M36 32h1M38 32h1M23 33h1M31 33h1M33 33h4M38 33h1M18 34h2M32 34h6M39 34h1M18 35h1M31 35h7M39 35h1M17 36h1M32 36h7M16 37h1M18 37h1M35 37h4M15 38h1M18 38h3M37 38h3M11 39h1M14 39h6M21 39h1M38 39h2M14 40h5M20 40h1M13 41h5M13 42h4M13 43h3M12 44h2" />
</svg>