<svg xmlns="http://www.w3.org/2000/svg" viewBox="0 -0.5 48 48" shape-rendering="crispEdges">
<metadata>Made with Pixels to Svg https://codepen.io/shshaw/pen/XbxvNj</metadata>
<path stroke="#ffffff" d="M0 0h6M9 0h15M25 0h23M0 1h5M6 1h3M11 1h12M24 1h1M26 1h22M0 2h5M9 2h2M12 2h11M24 2h1M26 2h5M34 2h14M0 3h6M11 3h1M13 3h9M23 3h2M26 3h4M31 3h2M34 3h14M0 4h6M14 4h6M21 4h1M23 4h2M26 4h2M30 4h2M34 4h14M0 5h6M15 5h4M20 5h1M22 5h3M26 5h1M28 5h3M33 5h15M0 6h6M8 6h1M10 6h1M15 6h4M20 6h5M27 6h3M33 6h15M0 7h6M7 7h1M9 7h1M11 7h1M16 7h3M20 7h9M32 7h16M0 8h6M7 8h2M10 8h1M16 8h3M20 8h8M32 8h16M0 9h5M9 9h1M11 9h1M17 9h1M22 9h6M31 9h17M0 10h5M6 10h2M10 10h1M12 10h1M18 10h2M23 10h7M31 10h17M0 11h5M6 11h4M11 11h1M23 11h8M32 11h16M0 12h5M6 12h5M16 12h2M25 12h6M34 12h14M0 13h5M6 13h6M14 13h4M26 13h4M36 13h12M0 14h4M5 14h6M12 14h5M27 14h2M37 14h11M0 15h4M5 15h5M11 15h6M38 15h10M0 16h4M5 16h4M10 16h6M30 16h3M39 16h9M0 17h4M5 17h4M10 17h5M19 17h3M29 17h4M40 17h8M0 18h3M4 18h4M9 18h5M18 18h5M30 18h2M40 18h8M0 19h3M4 19h4M9 19h3M18 19h5M41 19h7M0 20h3M4 20h2M10 20h1M18 20h3M22 20h2M41 20h7M0 21h2M6 21h1M18 21h6M42 21h6M0 22h2M3 22h4M9 22h3M19 22h5M42 22h6M0 23h2M3 23h3M7 23h7M19 23h5M43 23h5M0 24h2M3 24h3M7 24h8M20 24h4M33 24h2M43 24h5M0 25h1M2 25h3M7 25h1M12 25h3M21 25h2M32 25h2M47 25h1M0 26h1M2 26h1M13 26h3M6 27h2M14 27h2M47 27h1M5 28h3M14 28h2M41 28h4M46 28h2M0 29h1M3 29h6M14 29h2M19 29h2M36 29h8M45 29h3M0 30h8M14 30h2M21 30h2M33 30h10M44 30h4M0 31h7M8 31h1M14 31h2M22 31h2M31 31h7M44 31h4M0 32h7M8 32h1M14 32h2M23 32h1M31 32h2M38 32h4M43 32h5M0 33h6M7 33h1M14 33h2M24 33h1M33 33h9M43 33h5M0 34h3M7 34h1M10 34h1M13 34h2M24 34h1M32 34h9M42 34h6M0 35h1M6 35h2M10 35h5M24 35h1M34 35h7M42 35h6M6 36h1M11 36h3M25 36h1M32 36h2M37 36h3M41 36h7M0 37h1M6 37h1M25 37h1M33 37h4M39 37h1M41 37h7M0 38h3M6 38h1M25 38h1M34 38h4M40 38h8M0 39h6M7 39h1M9 39h2M25 39h1M28 39h2M35 39h4M40 39h8M0 40h6M7 40h1M9 40h3M26 40h1M28 40h3M36 40h3M40 40h8M0 41h6M7 41h1M9 41h2M13 41h2M26 41h1M29 41h3M34 41h2M37 41h2M40 41h8M0 42h5M6 42h1M8 42h1M11 42h5M18 42h1M24 42h2M27 42h1M33 42h1M35 42h2M38 42h1M40 42h8M0 43h2M5 43h2M8 43h2M12 43h4M17 43h4M22 43h4M27 43h2M31 43h1M33 43h2M36 43h1M38 43h1M40 43h8M0 44h1M2 44h3M7 44h5M14 44h1M16 44h5M22 44h5M29 44h2M32 44h3M37 44h1M39 44h9M0 45h2M5 45h9M15 45h6M22 45h2M25 45h3M31 45h1M33 45h2M36 45h12M0 46h21M22 46h2M27 46h2M30 46h3M35 46h13M0 47h22M24 47h3M29 47h19" />
<path stroke="#000000" d="M6 0h2M24 0h1M5 1h1M9 1h1M23 1h1M25 1h1M5 2h1M11 2h1M25 2h1M32 2h2M6 3h3M12 3h1M22 3h1M25 3h1M30 3h1M33 3h1M6 4h1M9 4h1M13 4h1M25 4h1M28 4h1M33 4h1M6 5h1M10 5h1M21 5h1M25 5h1M27 5h1M32 5h1M6 6h1M11 6h1M14 6h1M26 6h1M32 6h1M6 7h1M12 7h1M15 7h1M19 7h1M31 7h1M12 8h1M15 8h1M19 8h1M31 8h1M5 9h1M13 9h1M16 9h1M18 9h4M30 9h1M5 10h1M13 10h1M16 10h2M22 10h1M30 10h1M5 11h1M13 11h1M17 11h1M22 11h1M31 11h1M5 12h1M15 12h1M23 12h2M32 12h2M13 13h1M25 13h1M32 13h1M34 13h2M4 14h1M26 14h1M31 14h1M36 14h1M4 15h1M27 15h1M30 15h3M37 15h1M4 16h1M20 16h2M27 16h1M29 16h1M33 16h1M38 16h1M9 17h1M18 17h1M22 17h1M28 17h1M33 17h1M39 17h1M3 18h1M29 18h1M3 19h1M8 19h1M17 19h1M23 19h1M29 19h1M34 19h1M40 19h1M3 20h1M7 20h1M17 20h1M21 20h1M29 20h2M34 20h1M2 21h1M7 21h1M9 21h2M24 21h1M30 21h1M34 21h1M41 21h1M2 22h1M7 22h1M12 22h1M18 22h1M24 22h1M30 22h1M34 22h1M14 23h1M24 23h1M30 23h1M33 23h2M42 23h1M6 24h1M19 24h1M30 24h3M35 24h1M42 24h1M5 25h2M9 25h2M15 25h1M20 25h1M23 25h1M30 25h2M36 25h1M41 25h6M3 26h1M6 26h7M31 26h1M36 26h5M47 26h1M0 27h2M5 27h1M8 27h5M16 27h1M31 27h1M33 27h3M41 27h6M0 28h1M3 28h2M9 28h5M16 28h1M19 28h2M31 28h2M36 28h4M45 28h1M1 29h2M9 29h5M16 29h1M21 29h1M33 29h2M44 29h1M8 30h4M13 30h1M16 30h1M19 30h2M23 30h1M31 30h1M43 30h1M7 31h1M9 31h2M13 31h1M16 31h1M21 31h1M43 31h1M7 32h1M9 32h2M13 32h1M16 32h1M22 32h1M24 32h1M30 32h1M42 32h1M6 33h1M8 33h3M13 33h1M23 33h1M30 33h1M42 33h1M3 34h4M9 34h1M11 34h2M15 34h1M23 34h1M25 34h1M31 34h1M41 34h1M1 35h2M5 35h1M8 35h2M15 35h1M25 35h1M29 35h3M41 35h1M0 36h1M3 36h3M7 36h1M10 36h1M14 36h1M24 36h1M26 36h1M29 36h1M31 36h1M40 36h1M1 37h2M5 37h1M7 37h1M11 37h3M24 37h1M26 37h1M28 37h1M32 37h1M40 37h1M3 38h3M7 38h1M13 38h1M24 38h1M26 38h1M28 38h2M33 38h1M39 38h1M6 39h1M8 39h1M14 39h1M27 39h1M30 39h1M34 39h1M39 39h1M6 40h1M8 40h1M15 40h2M25 40h1M27 40h1M31 40h1M34 40h2M39 40h1M8 41h1M17 41h2M24 41h2M27 41h1M32 41h2M36 41h1M39 41h1M5 42h1M7 42h1M9 42h1M17 42h1M19 42h5M26 42h1M28 42h1M31 42h2M34 42h1M37 42h1M39 42h1M2 43h3M10 43h2M16 43h1M21 43h1M26 43h1M29 43h2M32 43h1M35 43h1M37 43h1M39 43h1M5 44h1M12 44h2M15 44h1M21 44h1M27 44h2M31 44h1M36 44h1M38 44h1M2 45h2M14 45h1M21 45h1M28 45h3M32 45h1M35 45h1M21 46h1M24 46h3M29 46h1M33 46h2M22 47h2M27 47h2" />
<path stroke="#555555" d="M8 0h1M10 1h1M6 2h1M23 2h1M31 2h1M20 4h1M22 4h1M29 4h1M14 5h1M19 5h1M19 6h1M6 8h1M6 9h2M14 9h1M8 10h2M14 10h1M10 11h1M14 11h1M16 11h1M18 11h2M11 12h1M14 12h1M5 13h1M12 13h1M33 13h1M11 14h1M32 14h3M10 15h1M34 15h2M9 16h1M19 16h1M35 16h1M4 17h1M36 17h1M8 18h1M17 18h1M23 18h1M28 18h1M33 18h1M37 18h1M39 18h1M37 19h1M6 20h1M24 20h1M38 20h1M40 20h1M3 21h3M11 21h1M29 21h1M38 21h1M8 22h1M13 22h1M38 22h1M41 22h1M2 23h1M6 23h1M18 23h1M31 23h1M39 23h1M2 24h1M15 24h1M24 24h1M39 24h1M1 25h1M8 25h1M11 25h1M39 25h1M1 26h1M4 26h1M16 26h1M21 26h2M2 27h1M8 28h1M21 28h1M40 28h1M18 29h1M22 29h1M35 29h1M12 30h1M29 30h2M32 30h1M11 31h2M24 31h1M28 31h3M39 31h4M11 32h2M28 32h2M34 32h3M11 33h2M16 33h1M25 33h1M29 33h1M31 33h2M8 34h1M16 34h2M4 35h1M17 35h1M23 35h1M32 35h2M18 36h1M30 36h1M34 36h2M19 37h2M29 37h3M37 37h2M8 38h5M21 38h2M30 38h3M38 38h1M20 39h2M23 39h2M26 39h1M31 39h3M13 40h2M17 40h4M32 40h2M6 41h1M11 41h2M28 41h1M10 42h1M29 42h2M7 43h1M1 44h1M6 44h1M4 45h1M24 45h1" />
<path stroke="#aaaaaa" d="M7 2h2M9 3h2M7 4h2M10 4h3M32 4h1M7 5h3M11 5h3M31 5h1M7 6h1M9 6h1M12 6h2M25 6h1M30 6h2M8 7h1M10 7h1M13 7h2M29 7h2M9 8h1M11 8h1M13 8h2M28 8h3M8 9h1M10 9h1M12 9h1M15 9h1M28 9h2M11 10h1M15 10h1M20 10h2M12 11h1M15 11h1M20 11h2M12 12h2M18 12h5M31 12h1M18 13h7M30 13h2M17 14h9M29 14h2M35 14h1M17 15h10M28 15h2M33 15h1M36 15h1M16 16h3M22 16h5M28 16h1M34 16h1M36 16h2M15 17h3M23 17h5M34 17h2M37 17h2M14 18h3M24 18h4M32 18h1M34 18h3M38 18h1M12 19h5M24 19h5M30 19h4M35 19h2M38 19h2M8 20h2M11 20h6M25 20h4M31 20h3M35 20h3M39 20h1M8 21h1M12 21h6M25 21h4M31 21h3M35 21h3M39 21h2M14 22h4M25 22h5M31 22h3M35 22h3M39 22h2M15 23h3M25 23h5M32 23h1M35 23h4M40 23h2M16 24h3M25 24h5M36 24h3M40 24h2M16 25h4M24 25h6M34 25h2M37 25h2M40 25h1M5 26h1M17 26h4M23 26h8M32 26h4M41 26h6M3 27h2M13 27h1M17 27h14M32 27h1M36 27h5M1 28h2M17 28h2M22 28h9M33 28h3M17 29h1M23 29h10M17 30h2M24 30h5M17 31h4M25 31h3M38 31h1M17 32h5M25 32h3M33 32h1M37 32h1M17 33h6M26 33h3M18 34h5M26 34h5M3 35h1M16 35h1M18 35h5M26 35h3M1 36h2M8 36h2M15 36h3M19 36h5M27 36h2M36 36h1M3 37h2M8 37h3M14 37h5M21 37h3M27 37h1M14 38h7M23 38h1M27 38h1M11 39h3M15 39h5M22 39h1M12 40h1M21 40h4M15 41h2M19 41h5M16 42h1M35 44h1" />
</svg>