<svg xmlns="http://www.w3.org/2000/svg" viewBox="0 -0.5 40 40" shape-rendering="crispEdges">
<metadata>Made with Pixels to Svg https://codepen.io/shshaw/pen/XbxvNj</metadata>
<path stroke="#ffffff" d="M0 0h19M24 0h16M0 1h17M19 1h2M26 1h14M0 2h16M17 2h5M27 2h13M0 3h15M17 3h5M28 3h12M0 4h14M18 4h3M29 4h11M0 5h14M29 5h11M0 6h13M30 6h10M0 7h13M30 7h10M0 8h13M29 8h11M0 9h14M28 9h12M0 10h13M28 10h12M0 11h9M12 11h1M15 11h1M29 11h11M0 12h7M13 12h1M24 12h1M30 12h10M0 13h6M17 13h1M30 13h10M0 14h5M6 14h1M26 14h1M30 14h10M0 15h4M5 15h2M25 15h1M29 15h11M0 16h4M5 16h1M19 16h1M29 16h11M0 17h4M11 17h1M18 17h1M29 17h11M0 18h3M4 18h1M9 18h3M17 18h1M29 18h11M0 19h3M8 19h3M12 19h1M17 19h1M29 19h11M0 20h3M7 20h4M12 20h1M28 20h12M0 21h3M6 21h5M22 21h2M28 21h12M0 22h3M5 22h6M22 22h2M28 22h12M0 23h3M4 23h7M19 23h2M27 23h13M0 24h11M19 24h1M27 24h13M0 25h12M27 25h13M0 26h12M17 26h1M26 26h14M0 27h12M16 27h2M26 27h14M0 28h12M15 28h2M25 28h15M0 29h13M15 29h1M26 29h14M0 30h13M17 30h1M26 30h14M0 31h14M16 31h3M25 31h15M0 32h15M17 32h3M26 32h14M0 33h15M20 33h1M26 33h14M0 34h16M20 34h2M26 34h14M0 35h18M21 35h1M26 35h14M0 36h20M22 36h1M26 36h14M0 37h21M25 37h15M0 38h40M0 39h40" />
<path stroke="#555555" d="M19 0h1M23 0h1M18 1h1M26 3h1M14 4h1M25 4h3M15 5h1M23 5h5M14 6h1M16 6h1M21 6h1M25 6h4M20 7h1M25 7h4M24 8h4M23 9h3M14 10h1M20 10h4M26 10h1M11 11h1M19 11h3M26 11h1M11 12h1M15 12h1M25 12h1M27 12h2M11 13h2M20 13h3M24 13h2M28 13h1M10 14h3M19 14h1M21 14h3M28 14h1M4 15h1M9 15h3M15 15h1M18 15h1M22 15h2M27 15h1M8 16h3M14 16h2M17 16h1M22 16h2M26 16h1M7 17h2M13 17h3M21 17h3M3 18h1M6 18h2M15 18h1M21 18h2M5 19h2M15 19h1M20 19h2M25 19h2M4 20h2M14 20h1M16 20h1M19 20h2M24 20h1M26 20h1M4 21h1M14 21h1M18 21h2M26 21h1M13 22h1M17 22h2M25 22h1M12 23h1M17 23h1M25 23h1M16 24h1M24 24h1M23 25h1M22 26h1M14 27h1M22 27h1M13 28h1M19 28h3M19 29h4M20 30h2M15 31h1M20 31h1M21 32h2M16 33h1M23 33h1M18 34h1M24 34h1M24 35h1M24 36h1" />
<path stroke="#000000" d="M20 0h3M17 1h1M24 1h2M16 2h1M26 2h1M15 3h1M27 3h1M28 4h1M14 5h1M28 5h1M13 6h1M15 6h1M22 6h3M29 6h1M13 7h1M15 7h2M21 7h4M29 7h1M13 8h1M15 8h2M20 8h4M28 8h1M14 9h1M16 9h1M20 9h3M26 9h2M13 10h1M15 10h1M24 10h2M27 10h1M9 11h2M13 11h1M16 11h1M22 11h2M27 11h2M7 12h2M12 12h1M14 12h1M16 12h7M26 12h1M29 12h1M6 13h1M13 13h4M19 13h1M23 13h1M29 13h1M5 14h1M13 14h6M24 14h1M29 14h1M12 15h3M16 15h2M24 15h1M28 15h1M4 16h1M11 16h3M16 16h1M24 16h2M27 16h2M4 17h1M9 17h2M12 17h1M16 17h1M24 17h5M8 18h1M12 18h1M16 18h1M23 18h6M3 19h1M7 19h1M11 19h1M16 19h1M22 19h3M27 19h2M3 20h1M6 20h1M11 20h1M15 20h1M21 20h3M27 20h1M3 21h1M5 21h1M11 21h1M15 21h1M20 21h2M27 21h1M3 22h2M11 22h1M14 22h2M19 22h1M21 22h1M26 22h2M3 23h1M11 23h1M13 23h3M18 23h1M22 23h1M26 23h1M11 24h5M17 24h2M23 24h1M25 24h2M12 25h2M15 25h2M18 25h1M24 25h3M12 26h1M15 26h1M19 26h1M23 26h3M12 27h1M15 27h1M19 27h3M23 27h3M12 28h1M14 28h1M17 28h2M22 28h3M13 29h2M16 29h1M23 29h3M13 30h1M15 30h1M22 30h4M14 31h1M21 31h4M15 32h1M20 32h1M23 32h3M15 33h1M19 33h1M24 33h2M16 34h2M19 34h1M25 34h1M18 35h2M25 35h1M20 36h1M25 36h1M21 37h4" />
<path stroke="#aaaaaa" d="M21 1h3M22 2h4M16 3h1M22 3h4M15 4h3M21 4h4M16 5h7M17 6h4M14 7h1M17 7h3M14 8h1M17 8h3M15 9h1M17 9h3M16 10h4M14 11h1M17 11h2M24 11h2M9 12h2M23 12h1M7 13h4M18 13h1M26 13h2M7 14h3M20 14h1M25 14h1M27 14h1M7 15h2M19 15h3M26 15h1M6 16h2M18 16h1M20 16h2M5 17h2M17 17h1M19 17h2M5 18h1M13 18h2M18 18h3M4 19h1M13 19h2M18 19h2M13 20h1M17 20h2M25 20h1M12 21h2M16 21h2M24 21h2M12 22h1M16 22h1M20 22h1M24 22h1M16 23h1M21 23h1M23 23h2M20 24h3M14 25h1M17 25h1M19 25h4M13 26h2M16 26h1M18 26h1M20 26h2M13 27h1M18 27h1M17 29h2M14 30h1M16 30h1M18 30h2M19 31h1M16 32h1M17 33h2M21 33h2M22 34h2M20 35h1M22 35h2M21 36h1M23 36h1" />
</svg>