<svg xmlns="http://www.w3.org/2000/svg" viewBox="0 -0.5 48 48" shape-rendering="crispEdges">
<metadata>Made with Pixels to Svg https://codepen.io/shshaw/pen/XbxvNj</metadata>
<path stroke="#ffffff" d="M0 0h48M0 1h48M0 2h48M0 3h48M0 4h48M0 5h48M0 6h48M0 7h31M35 7h13M0 8h28M37 8h11M0 9h26M30 9h4M39 9h9M0 10h25M29 10h5M40 10h8M0 11h24M28 11h7M41 11h7M0 12h23M31 12h4M41 12h7M0 13h23M32 13h4M39 13h1M42 13h6M0 14h10M12 14h10M33 14h2M38 14h2M42 14h6M0 15h9M10 15h2M13 15h9M38 15h1M42 15h6M0 16h9M14 16h8M42 16h6M0 17h9M42 17h6M0 18h10M15 18h4M41 18h7M0 19h10M41 19h7M0 20h9M40 20h8M0 21h8M40 21h8M0 22h8M9 22h1M39 22h9M0 23h8M9 23h1M20 23h1M39 23h9M0 24h7M20 24h1M41 24h7M0 25h7M42 25h6M0 26h7M43 26h5M0 27h8M35 27h1M38 27h3M44 27h4M0 28h9M10 28h2M39 28h2M44 28h4M0 29h10M12 29h9M26 29h1M35 29h3M40 29h2M45 29h3M0 30h11M15 30h6M25 30h2M35 30h1M38 30h1M41 30h2M47 30h1M0 31h11M18 31h5M24 31h3M36 31h3M42 31h1M46 31h2M0 32h10M17 32h5M23 32h1M25 32h2M37 32h1M39 32h1M43 32h1M45 32h3M0 33h8M16 33h6M23 33h1M26 33h1M38 33h2M43 33h1M46 33h2M0 34h7M8 34h1M15 34h7M24 34h3M38 34h1M40 34h1M45 34h3M0 35h8M16 35h6M23 35h1M27 35h2M39 35h1M41 35h1M46 35h2M0 36h8M9 36h1M16 36h7M25 36h2M29 36h3M39 36h5M46 36h2M0 37h9M10 37h1M12 37h1M17 37h7M27 37h6M39 37h9M0 38h10M11 38h1M18 38h5M26 38h8M39 38h9M0 39h11M19 39h2M26 39h8M39 39h9M0 40h11M12 40h2M26 40h3M31 40h4M39 40h9M0 41h11M12 41h3M26 41h2M31 41h3M39 41h9M0 42h12M13 42h1M27 42h6M38 42h10M0 43h13M22 43h1M28 43h3M37 43h11M0 44h14M15 44h1M21 44h5M36 44h12M0 45h13M14 45h1M16 45h2M19 45h1M21 45h4M26 45h2M30 45h2M33 45h2M36 45h12M0 46h14M15 46h1M18 46h1M20 46h6M28 46h1M32 46h1M35 46h13M0 47h48" />
<path stroke="#000000" d="M31 7h4M28 8h3M34 8h3M26 9h2M34 9h1M37 9h2M25 10h1M34 10h1M38 10h2M24 11h1M35 11h1M38 11h1M40 11h1M23 12h1M35 12h2M38 12h3M23 13h1M36 13h1M38 13h1M41 13h1M10 14h2M22 14h1M27 14h1M37 14h1M41 14h1M9 15h1M12 15h1M22 15h1M25 15h2M28 15h1M37 15h1M41 15h1M9 16h2M13 16h1M22 16h3M27 16h2M36 16h1M41 16h1M9 17h2M14 17h7M25 17h4M36 17h1M41 17h1M10 18h3M25 18h3M35 18h1M40 18h1M10 19h1M27 19h1M29 19h1M33 19h2M40 19h1M9 20h1M28 20h5M39 20h1M8 21h2M27 21h5M39 21h1M8 22h1M10 22h1M19 22h3M28 22h11M8 23h1M10 23h2M18 23h2M21 23h1M29 23h5M36 23h3M7 24h1M10 24h2M17 24h3M29 24h4M39 24h2M7 25h1M31 25h2M40 25h2M7 26h1M21 26h2M32 26h1M34 26h1M39 26h1M42 26h1M8 27h3M17 27h3M32 27h2M43 27h1M9 28h1M13 28h3M32 28h2M35 28h1M43 28h1M10 29h1M25 29h1M31 29h4M42 29h1M44 29h1M11 30h3M24 30h1M31 30h2M34 30h1M36 30h1M45 30h2M11 31h6M23 31h1M31 31h1M35 31h1M45 31h1M10 32h1M13 32h2M22 32h1M31 32h1M36 32h1M38 32h1M44 32h1M8 33h2M14 33h1M22 33h1M31 33h1M36 33h2M45 33h1M7 34h1M9 34h1M14 34h1M22 34h2M27 34h2M30 34h1M37 34h1M39 34h1M41 34h1M44 34h1M8 35h2M13 35h3M22 35h1M24 35h3M29 35h1M40 35h1M42 35h2M45 35h1M8 36h1M10 36h3M14 36h2M23 36h2M27 36h2M38 36h1M44 36h2M9 37h1M11 37h1M13 37h1M16 37h1M25 37h2M38 37h1M10 38h1M12 38h1M17 38h1M25 38h1M38 38h1M11 39h1M18 39h1M25 39h1M38 39h1M11 40h1M19 40h1M25 40h1M38 40h1M11 41h1M20 41h2M25 41h1M12 42h1M21 42h2M26 42h1M37 42h1M13 43h3M20 43h2M23 43h5M35 43h2M14 44h1M16 44h5M26 44h3M30 44h2M33 44h3M13 45h1M15 45h1M18 45h1M20 45h1M25 45h1M28 45h2M32 45h1M35 45h1M14 46h1M16 46h2M19 46h1M26 46h2M29 46h3M33 46h2" />
<path stroke="#aaaaaa" d="M31 8h3M28 9h2M35 9h2M26 10h3M35 10h1M25 11h3M25 12h6M26 13h6M40 13h1M28 14h5M35 14h2M40 14h1M29 15h8M39 15h2M11 16h2M25 16h1M30 16h5M37 16h4M11 17h2M22 17h3M37 17h4M13 18h2M19 18h1M21 18h2M36 18h4M11 19h8M20 19h5M35 19h3M10 20h3M14 20h12M11 21h6M18 21h1M22 21h5M12 22h4M17 22h1M22 22h5M12 23h4M22 23h5M8 24h2M12 24h4M21 24h7M8 25h16M25 25h4M36 25h4M8 26h3M12 26h2M15 26h6M24 26h6M35 26h1M37 26h2M40 26h2M12 27h5M21 27h11M34 27h1M36 27h1M41 27h2M17 28h5M26 28h5M34 28h1M37 28h1M41 28h2M21 29h2M27 29h3M38 29h1M43 29h1M21 30h3M27 30h2M39 30h1M43 30h2M27 31h4M40 31h1M43 31h2M16 32h1M24 32h1M27 32h4M40 32h2M10 33h1M15 33h1M24 33h2M27 33h4M41 33h1M44 33h1M10 34h3M29 34h1M42 34h1M10 35h3M30 35h3M44 35h1M13 36h1M32 36h3M24 37h1M33 37h3M23 38h2M36 38h1M12 39h4M21 39h3M35 39h2M14 40h3M20 40h2M29 40h2M35 40h2M16 41h2M28 41h3M34 41h2M17 42h1M33 42h2M16 43h3M31 43h3M29 44h1M32 44h1" />
<path stroke="#555555" d="M36 10h2M36 11h2M39 11h1M24 12h1M37 12h1M24 13h2M37 13h1M23 14h4M23 15h2M27 15h1M26 16h1M29 16h1M35 16h1M13 17h1M21 17h1M29 17h7M20 18h1M23 18h2M28 18h7M19 19h1M25 19h2M28 19h1M30 19h3M38 19h2M13 20h1M26 20h2M33 20h6M10 21h1M17 21h1M19 21h3M32 21h7M11 22h1M16 22h1M18 22h1M27 22h1M16 23h2M27 23h2M34 23h2M16 24h1M28 24h1M33 24h6M24 25h1M29 25h2M33 25h3M11 26h1M14 26h1M23 26h1M30 26h2M33 26h1M36 26h1M11 27h1M20 27h1M37 27h1M12 28h1M16 28h1M22 28h4M31 28h1M36 28h1M38 28h1M11 29h1M23 29h2M30 29h1M39 29h1M14 30h1M29 30h2M33 30h1M37 30h1M40 30h1M17 31h1M32 31h3M39 31h1M41 31h1M11 32h2M15 32h1M32 32h4M42 32h1M11 33h3M32 33h4M40 33h1M42 33h1M13 34h1M31 34h6M43 34h1M33 35h6M35 36h3M14 37h2M36 37h2M13 38h4M34 38h2M37 38h1M16 39h2M24 39h1M34 39h1M37 39h1M17 40h2M22 40h3M37 40h1M15 41h1M18 41h2M22 41h3M36 41h3M14 42h3M18 42h3M23 42h3M35 42h2M19 43h1M34 43h1" />
</svg>