<svg xmlns="http://www.w3.org/2000/svg" viewBox="0 -0.5 48 48" shape-rendering="crispEdges">
<metadata>Made with Pixels to Svg https://codepen.io/shshaw/pen/XbxvNj</metadata>
<path stroke="#ffffff" d="M0 0h17M20 0h28M0 1h15M22 1h26M0 2h14M15 2h3M24 2h24M0 3h13M14 3h7M26 3h22M0 4h12M13 4h10M28 4h20M0 5h12M13 5h12M30 5h18M0 6h12M13 6h9M25 6h2M32 6h16M0 7h9M10 7h2M14 7h6M27 7h2M33 7h15M0 8h8M9 8h1M11 8h2M15 8h5M29 8h1M35 8h13M0 9h8M9 9h2M12 9h1M16 9h9M30 9h2M36 9h12M0 10h8M9 10h2M18 10h9M32 10h2M38 10h10M0 11h7M9 11h1M21 11h8M39 11h9M0 12h6M7 12h2M12 12h5M25 12h5M40 12h8M0 13h5M7 13h6M16 13h3M30 13h1M41 13h7M0 14h5M8 14h4M16 14h4M42 14h6M0 15h4M6 15h1M8 15h4M15 15h1M17 15h3M43 15h5M0 16h4M8 16h4M17 16h3M36 16h1M44 16h4M0 17h3M10 17h4M16 17h4M34 17h4M45 17h3M0 18h3M4 18h3M9 18h12M31 18h7M45 18h3M0 19h3M4 19h17M27 19h11M46 19h2M0 20h3M5 20h10M16 20h6M25 20h12M46 20h2M0 21h4M7 21h6M16 21h8M27 21h10M47 21h1M0 22h5M15 22h11M30 22h6M47 22h1M0 23h6M14 23h14M32 23h2M47 23h1M0 24h5M6 24h1M11 24h1M13 24h16M47 24h1M0 25h6M12 25h18M0 26h6M9 26h22M0 27h6M8 27h14M23 27h9M0 28h5M8 28h13M24 28h8M0 29h5M8 29h14M25 29h8M0 30h5M8 30h15M25 30h8M40 30h3M0 31h4M5 31h1M8 31h16M26 31h4M31 31h3M40 31h4M0 32h4M5 32h1M9 32h15M27 32h4M32 32h2M40 32h5M47 32h1M0 33h3M4 33h1M9 33h16M27 33h4M32 33h2M39 33h6M47 33h1M0 34h2M3 34h2M9 34h17M28 34h3M32 34h3M39 34h6M47 34h1M0 35h1M2 35h2M10 35h17M28 35h4M33 35h2M38 35h7M46 35h2M0 36h1M2 36h1M10 36h18M29 36h3M33 36h2M38 36h7M46 36h2M0 37h1M11 37h17M29 37h3M33 37h1M37 37h7M45 37h3M0 38h1M12 38h17M32 38h1M35 38h9M45 38h3M0 39h2M13 39h30M44 39h4M0 40h3M13 40h29M43 40h5M0 41h5M12 41h1M14 41h27M42 41h6M0 42h8M11 42h3M16 42h24M41 42h7M0 43h16M17 43h22M40 43h8M0 44h17M19 44h18M39 44h9M0 45h19M22 45h13M37 45h11M0 46h22M26 46h6M35 46h13M0 47h26M32 47h16" />
<path stroke="#000000" d="M17 0h3M15 1h2M20 1h2M14 2h1M22 2h2M13 3h1M24 3h2M12 4h1M26 4h2M12 5h1M28 5h2M12 6h1M23 6h2M30 6h2M9 7h1M12 7h1M26 7h1M32 7h1M8 8h1M10 8h1M13 8h1M28 8h1M33 8h2M8 9h1M11 9h1M13 9h1M35 9h1M8 10h1M12 10h3M31 10h1M36 10h2M8 11h1M12 11h1M16 11h2M38 11h1M6 12h1M9 12h3M18 12h1M39 12h1M19 13h1M28 13h2M40 13h1M5 14h2M14 14h2M20 14h1M30 14h4M41 14h1M5 15h1M7 15h1M13 15h2M16 15h1M20 15h1M36 15h1M42 15h1M4 16h3M13 16h4M21 16h1M34 16h2M37 16h1M43 16h1M4 17h1M14 17h2M21 17h1M31 17h3M38 17h1M44 17h1M3 18h1M8 18h1M22 18h1M27 18h4M38 18h1M44 18h1M3 19h1M23 19h4M38 19h1M45 19h1M37 20h1M45 20h1M4 21h1M15 21h1M25 21h2M37 21h1M46 21h1M5 22h1M8 22h2M14 22h1M28 22h2M36 22h1M46 22h1M6 23h2M10 23h3M30 23h2M34 23h2M46 23h1M5 24h1M7 24h1M10 24h1M12 24h1M32 24h3M46 24h1M6 25h1M11 25h1M35 25h2M47 25h1M6 26h1M37 26h1M47 26h1M6 27h1M38 27h1M47 27h1M5 28h2M38 28h1M47 28h1M5 29h2M24 29h1M47 29h1M5 30h1M7 30h1M24 30h1M39 30h1M47 30h1M4 31h1M7 31h1M25 31h1M39 31h1M47 31h1M4 32h1M26 32h1M46 32h1M3 33h1M8 33h1M26 33h1M38 33h1M46 33h1M2 34h1M8 34h1M27 34h1M38 34h1M1 35h1M27 35h1M37 35h1M1 36h1M9 36h1M28 36h1M37 36h1M45 36h1M1 37h1M10 37h1M28 37h1M35 37h2M1 38h1M11 38h1M29 38h3M33 38h2M44 38h1M2 39h1M12 39h1M43 39h1M3 40h2M12 40h1M42 40h1M5 41h3M11 41h1M13 41h1M41 41h1M8 42h3M15 42h1M40 42h1M16 43h1M39 43h1M17 44h1M37 44h1M20 45h1M35 45h2M23 46h2M33 46h1M27 47h4" />
<path stroke="#aaaaaa" d="M17 1h3M18 2h4M21 3h3M23 4h3M25 5h3M27 6h3M13 7h1M22 7h3M29 7h3M14 8h1M20 8h7M30 8h3M14 9h2M25 9h4M32 9h3M11 10h1M16 10h2M27 10h3M34 10h2M10 11h1M13 11h3M18 11h3M29 11h8M17 12h1M19 12h3M30 12h8M6 13h1M13 13h3M20 13h5M31 13h8M7 14h1M12 14h2M21 14h9M35 14h5M12 15h1M21 15h10M37 15h4M12 16h1M22 16h8M38 16h4M7 17h3M20 17h1M22 17h6M39 17h3M23 18h3M39 18h4M21 19h1M39 19h4M4 20h1M15 20h1M22 20h2M38 20h6M5 21h2M13 21h2M24 21h1M38 21h6M6 22h1M11 22h3M26 22h1M37 22h7M8 23h2M28 23h2M36 23h9M8 24h2M29 24h2M35 24h10M7 25h4M30 25h3M37 25h8M7 26h2M31 26h3M38 26h7M7 27h1M32 27h3M39 27h7M7 28h1M21 28h2M32 28h4M39 28h7M22 29h2M33 29h4M40 29h6M6 30h1M23 30h1M33 30h1M35 30h2M43 30h3M6 31h1M24 31h1M34 31h1M36 31h2M44 31h2M6 32h2M24 32h2M34 32h2M37 32h1M45 32h1M5 33h3M25 33h1M34 33h2M37 33h1M45 33h1M5 34h3M26 34h1M35 34h2M45 34h1M4 35h4M35 35h2M3 36h5M35 36h2M2 37h3M6 37h3M34 37h1M2 38h2M5 38h4M3 39h1M5 39h4M5 40h3" />
<path stroke="#555555" d="M22 6h1M20 7h2M25 7h1M27 8h1M29 9h1M15 10h1M30 10h1M7 11h1M11 11h1M37 11h1M22 12h3M38 12h1M5 13h1M25 13h3M39 13h1M34 14h1M40 14h1M4 15h1M31 15h5M41 15h1M7 16h1M20 16h1M30 16h4M42 16h1M3 17h1M5 17h2M28 17h3M42 17h2M7 18h1M21 18h1M26 18h1M43 18h1M22 19h1M43 19h2M3 20h1M24 20h1M44 20h1M44 21h2M7 22h1M10 22h1M27 22h1M44 22h2M13 23h1M45 23h1M31 24h1M45 24h1M33 25h2M45 25h2M34 26h3M45 26h2M22 27h1M35 27h3M46 27h1M23 28h1M36 28h2M46 28h1M7 29h1M37 29h3M46 29h1M34 30h1M37 30h2M46 30h1M30 31h1M35 31h1M38 31h1M46 31h1M8 32h1M31 32h1M36 32h1M38 32h2M31 33h1M36 33h1M31 34h1M37 34h1M46 34h1M8 35h2M32 35h1M45 35h1M8 36h1M32 36h1M5 37h1M9 37h1M32 37h1M44 37h1M4 38h1M9 38h2M4 39h1M9 39h3M8 40h4M8 41h3M14 42h1M18 44h1M38 44h1M19 45h1M21 45h1M22 46h1M25 46h1M32 46h1M34 46h1M26 47h1M31 47h1" />
</svg>