<svg xmlns="http://www.w3.org/2000/svg" viewBox="0 -0.5 56 56" shape-rendering="crispEdges">
<metadata>Made with Pixels to Svg https://codepen.io/shshaw/pen/XbxvNj</metadata>
<path stroke="#ffffff" d="M0 0h56M0 1h14M16 1h40M0 2h13M17 2h39M0 3h13M17 3h39M0 4h13M14 4h1M17 4h39M0 5h13M14 5h1M18 5h38M0 6h14M15 6h1M18 6h38M0 7h14M15 7h1M25 7h7M36 7h20M0 8h14M15 8h1M28 8h2M38 8h18M0 9h14M15 9h1M20 9h1M40 9h16M0 10h13M14 10h1M41 10h15M0 11h12M13 11h2M16 11h1M42 11h14M0 12h12M13 12h2M16 12h1M43 12h13M0 13h11M12 13h2M44 13h12M0 14h11M45 14h11M0 15h11M45 15h11M0 16h11M47 16h9M0 17h11M37 17h5M49 17h7M0 18h12M39 18h3M50 18h6M0 19h12M24 19h1M51 19h5M0 20h7M10 20h2M13 20h1M23 20h2M51 20h5M0 21h6M10 21h3M17 21h1M21 21h3M52 21h4M0 22h6M10 22h4M16 22h2M52 22h4M0 23h5M9 23h4M14 23h1M16 23h2M29 23h1M47 23h2M52 23h4M0 24h4M10 24h3M14 24h1M16 24h1M29 24h2M47 24h2M52 24h4M0 25h4M10 25h3M14 25h1M16 25h1M29 25h4M48 25h2M52 25h4M0 26h4M10 26h3M16 26h1M28 26h6M48 26h1M52 26h4M0 27h4M9 27h5M28 27h10M51 27h5M0 28h3M10 28h4M27 28h11M51 28h5M0 29h3M10 29h5M26 29h13M51 29h5M0 30h2M10 30h7M22 30h1M25 30h15M50 30h6M0 31h2M9 31h11M24 31h17M51 31h5M0 32h3M9 32h30M51 32h5M0 33h4M10 33h28M52 33h4M0 34h4M11 34h26M52 34h4M0 35h3M12 35h24M44 35h4M52 35h4M0 36h3M8 36h3M12 36h24M45 36h3M51 36h5M0 37h3M8 37h1M12 37h24M45 37h2M51 37h5M0 38h3M11 38h25M50 38h6M0 39h3M12 39h25M49 39h7M0 40h4M13 40h21M48 40h8M0 41h6M14 41h19M46 41h10M0 42h6M15 42h17M45 42h11M0 43h5M12 43h2M15 43h16M45 43h11M0 44h5M11 44h2M19 44h6M30 44h1M42 44h1M45 44h11M0 45h5M16 45h2M20 45h4M45 45h11M0 46h5M16 46h3M21 46h2M45 46h11M0 47h6M44 47h12M0 48h8M43 48h13M0 49h12M34 49h1M42 49h14M0 50h12M23 50h2M34 50h2M41 50h15M0 51h13M23 51h3M34 51h22M0 52h14M24 52h2M34 52h22M0 53h15M33 53h23M0 54h17M20 54h2M32 54h24M0 55h24M31 55h25" />
<path stroke="#000000" d="M14 1h2M13 2h1M16 2h1M13 3h1M16 3h1M13 4h1M16 4h1M13 5h1M17 5h1M14 6h1M17 6h1M14 7h1M17 7h1M19 7h5M33 7h2M14 8h1M17 8h2M22 8h1M25 8h2M31 8h6M14 9h1M17 9h1M19 9h1M23 9h1M28 9h1M30 9h9M13 10h1M15 10h1M17 10h1M19 10h1M24 10h1M29 10h12M12 11h1M15 11h1M18 11h1M30 11h8M41 11h1M15 12h1M18 12h1M25 12h1M27 12h1M31 12h6M42 12h1M16 13h1M24 13h1M27 13h1M31 13h6M43 13h1M11 14h1M16 14h2M24 14h1M26 14h1M32 14h5M44 14h1M11 15h1M16 15h1M22 15h2M25 15h1M32 15h4M44 15h1M11 16h1M21 16h1M26 16h1M32 16h4M44 16h2M11 17h2M16 17h1M20 17h1M24 17h2M27 17h1M31 17h5M44 17h5M12 18h2M16 18h1M18 18h1M22 18h2M25 18h1M28 18h5M35 18h2M44 18h4M49 18h1M12 19h1M14 19h1M16 19h1M19 19h1M21 19h1M25 19h1M31 19h2M37 19h1M44 19h3M50 19h1M7 20h3M12 20h1M14 20h3M18 20h3M22 20h1M25 20h1M31 20h1M38 20h1M44 20h3M50 20h1M6 21h4M13 21h1M16 21h1M18 21h2M24 21h1M30 21h2M39 21h1M43 21h3M51 21h1M6 22h2M9 22h1M14 22h2M19 22h4M29 22h3M34 22h1M40 22h5M51 22h1M5 23h4M13 23h1M19 23h2M28 23h1M30 23h2M35 23h1M41 23h4M51 23h1M4 24h2M8 24h2M13 24h1M18 24h2M26 24h3M31 24h2M40 24h6M51 24h1M4 25h2M7 25h3M13 25h1M18 25h1M25 25h2M28 25h1M33 25h1M38 25h3M45 25h2M51 25h1M4 26h6M17 26h1M24 26h2M27 26h1M34 26h6M46 26h1M51 26h1M4 27h2M8 27h1M23 27h3M27 27h1M38 27h1M46 27h1M50 27h1M3 28h2M9 28h1M14 28h1M22 28h3M26 28h1M38 28h1M43 28h1M47 28h1M50 28h1M3 29h1M9 29h1M16 29h8M25 29h1M39 29h1M46 29h5M2 30h3M9 30h1M18 30h3M24 30h1M40 30h1M45 30h5M2 31h4M8 31h1M21 31h2M41 31h1M43 31h8M3 32h6M39 32h12M4 33h3M9 33h1M38 33h1M43 33h9M4 34h2M10 34h1M37 34h1M39 34h1M43 34h1M48 34h4M3 35h2M11 35h1M36 35h1M43 35h1M49 35h3M3 36h2M11 36h1M36 36h1M42 36h1M50 36h1M3 37h3M11 37h1M36 37h1M42 37h1M50 37h1M3 38h3M9 38h2M36 38h1M38 38h1M42 38h1M49 38h1M3 39h9M37 39h1M39 39h1M42 39h1M47 39h2M4 40h9M34 40h5M42 40h1M45 40h3M6 41h8M33 41h1M39 41h7M6 42h9M32 42h1M40 42h5M5 43h1M8 43h1M14 43h1M31 43h1M40 43h1M43 43h2M5 44h1M8 44h1M14 44h5M25 44h5M31 44h1M34 44h1M38 44h3M44 44h1M5 45h1M9 45h1M13 45h1M19 45h1M24 45h1M27 45h1M30 45h2M35 45h5M44 45h1M5 46h2M9 46h5M20 46h1M23 46h1M30 46h10M44 46h1M6 47h2M9 47h4M21 47h2M29 47h11M43 47h1M8 48h5M15 48h1M20 48h4M28 48h12M42 48h1M12 49h1M16 49h1M20 49h3M24 49h10M35 49h5M41 49h1M12 50h1M17 50h5M28 50h6M36 50h5M13 51h1M16 51h6M30 51h4M14 52h9M31 52h3M15 53h9M32 53h1M17 54h3M22 54h3M31 54h1M24 55h7" />
<path stroke="#aaaaaa" d="M14 2h1M14 3h1M15 4h1M15 5h1M16 6h1M16 7h1M16 8h1M19 8h3M16 9h1M21 9h2M25 9h1M16 10h1M20 10h4M25 10h1M17 11h1M20 11h6M38 11h3M17 12h1M19 12h6M29 12h1M37 12h5M14 13h2M17 13h1M19 13h1M21 13h3M28 13h3M37 13h3M42 13h1M12 14h3M18 14h1M20 14h4M28 14h3M40 14h4M13 15h1M18 15h1M20 15h1M28 15h3M36 15h8M23 16h2M36 16h8M13 17h1M22 17h2M36 17h1M42 17h2M14 18h1M21 18h1M24 18h1M37 18h2M42 18h2M13 19h1M15 19h1M17 19h1M20 19h1M22 19h2M38 19h3M42 19h2M49 19h1M17 20h1M21 20h1M27 20h3M39 20h1M41 20h3M47 20h3M14 21h1M26 21h3M42 21h1M46 21h5M45 22h1M47 22h3M46 23h1M49 23h2M17 24h1M46 24h1M49 24h2M17 25h1M21 25h1M47 25h1M50 25h1M14 26h2M19 26h3M47 26h1M49 26h2M15 27h6M47 27h2M8 28h1M16 28h4M49 28h1M7 29h2M7 30h2M23 30h1M45 34h3M8 35h3M48 35h1M7 36h1M43 36h2M48 36h2M6 37h2M9 37h1M43 37h2M47 37h3M6 38h2M43 38h6M43 39h4M43 40h2M9 43h3M41 43h2M10 44h1M13 44h1M41 44h1M43 44h1M10 45h3M15 45h1M18 45h1M40 45h4M15 46h1M19 46h1M40 46h1M42 46h2M15 47h6M40 47h2M16 48h2M19 48h1M40 48h2M17 49h2M23 49h1M22 50h1M25 50h3M22 51h1M26 51h4M23 52h1M26 52h2M29 52h2M24 53h3M28 53h4M25 54h1M27 54h1M29 54h2" />
<path stroke="#555555" d="M15 2h1M15 3h1M16 5h1M18 7h1M24 7h1M32 7h1M35 7h1M23 8h2M27 8h1M30 8h1M37 8h1M18 9h1M24 9h1M26 9h2M29 9h1M39 9h1M18 10h1M26 10h3M19 11h1M26 11h4M12 12h1M26 12h1M28 12h1M30 12h1M11 13h1M18 13h1M20 13h1M25 13h2M40 13h2M15 14h1M19 14h1M25 14h1M27 14h1M31 14h1M37 14h3M12 15h1M14 15h2M17 15h1M19 15h1M21 15h1M24 15h1M26 15h2M31 15h1M12 16h9M22 16h1M25 16h1M27 16h5M46 16h1M14 17h2M17 17h3M21 17h1M26 17h1M28 17h3M15 18h1M17 18h1M19 18h2M26 18h2M33 18h2M48 18h1M18 19h1M26 19h5M33 19h4M41 19h1M47 19h2M26 20h1M30 20h1M32 20h6M40 20h1M15 21h1M20 21h1M25 21h1M29 21h1M32 21h7M40 21h2M8 22h1M18 22h1M23 22h6M32 22h2M35 22h5M46 22h1M50 22h1M15 23h1M18 23h1M21 23h7M32 23h3M36 23h5M45 23h1M6 24h2M15 24h1M20 24h6M33 24h7M6 25h1M15 25h1M19 25h2M22 25h3M27 25h1M34 25h4M41 25h4M13 26h1M18 26h1M22 26h2M26 26h1M40 26h6M6 27h2M14 27h1M21 27h2M26 27h1M39 27h7M49 27h1M5 28h3M15 28h1M20 28h2M25 28h1M39 28h4M44 28h3M48 28h1M4 29h3M15 29h1M24 29h1M40 29h6M5 30h2M17 30h1M21 30h1M41 30h4M6 31h2M20 31h1M23 31h1M42 31h1M7 33h2M39 33h4M6 34h4M38 34h1M40 34h3M44 34h1M5 35h3M37 35h6M5 36h2M37 36h5M10 37h1M37 37h5M8 38h1M37 38h1M39 38h3M38 39h1M40 39h2M39 40h3M34 41h5M33 42h7M6 43h2M32 43h8M6 44h2M9 44h1M32 44h2M35 44h3M6 45h3M14 45h1M25 45h2M28 45h2M32 45h3M7 46h2M14 46h1M24 46h6M41 46h1M8 47h1M13 47h2M23 47h6M42 47h1M13 48h2M18 48h1M24 48h4M13 49h3M19 49h1M40 49h1M13 50h4M14 51h2M28 52h1M27 53h1M26 54h1M28 54h1" />
</svg>