<svg xmlns="http://www.w3.org/2000/svg" viewBox="0 -0.5 32 32" shape-rendering="crispEdges">
<metadata>Made with Pixels to Svg https://codepen.io/shshaw/pen/XbxvNj</metadata>
<path stroke="rgba(0,0,0,0.09411764705882353)" d="M8 3h1M11 3h1M4 4h1M7 4h1M12 5h1M13 6h1M4 7h1M5 8h1M14 8h1M6 9h1M16 9h1M19 9h1M23 9h1M6 10h1M25 10h1M5 11h1M26 11h1M27 12h1M4 13h1M27 16h1M4 18h1M27 18h1M5 19h1M28 19h1M5 20h1M29 21h1M4 22h1M15 22h1M16 23h1M29 23h1M9 24h1M16 24h1M28 24h1M4 25h1M8 25h1M25 25h1M24 26h1M16 27h1M20 27h1" />
<path stroke="rgba(0,0,0,0.27450980392156865)" d="M9 3h2M5 4h2M8 4h1M11 4h1M4 5h1M7 5h2M4 6h1M13 7h1M15 9h1M20 9h1M22 9h1M18 10h1M24 10h1M5 12h1M27 13h1M4 14h1M27 15h1M4 17h1M28 20h1M5 21h1M14 22h1M16 22h1M4 23h1M4 24h1M27 24h1M5 25h1M7 25h1M16 25h1M16 26h1M23 26h1M17 27h1M19 27h1" />
<path stroke="#393939" d="M9 4h2M5 5h2M9 5h2M5 6h2M10 6h2M6 7h2M11 7h2M7 8h2M12 8h1M8 9h1M10 9h4M8 10h8M20 10h3M7 11h10M18 11h7M6 12h20" />
<path stroke="rgba(0,0,0,0.5607843137254902)" d="M11 5h1M7 6h1M13 8h1M7 9h1M14 9h1M7 10h1M19 10h1M23 10h1M5 13h1M6 19h1M6 20h1M15 21h1M20 21h1M28 21h1M5 22h1M21 22h1M17 23h1M21 23h1M17 24h1M20 26h1" />
<path stroke="rgba(0,0,0,0.18823529411764706)" d="M8 6h1M9 7h1M17 10h1M26 17h1M29 22h1M9 23h1" />
<path stroke="rgba(0,0,0,0.4627450980392157)" d="M9 6h1M12 6h1M5 7h1M8 7h1M10 7h1M6 8h1M16 10h1M6 11h1M25 11h1M26 12h1M26 16h1M5 18h1M26 18h1M27 19h1M24 21h1M20 23h1M28 23h1M8 24h1M25 24h1M24 25h1" />
<path stroke="rgba(0,0,0,0.3686274509803922)" d="M9 8h2M21 9h1M27 14h1M4 15h1M4 16h1M9 22h5M20 22h1M26 24h1M6 25h1M21 26h2M18 27h1" />
<path stroke="rgba(0,0,0,0.7490196078431373)" d="M11 8h1M9 9h1M17 11h1M25 17h1M19 20h1M23 20h1M8 21h1M25 21h1M24 23h1M20 24h1" />
<path stroke="#383838" d="M6 13h7M14 13h13" />
<path stroke="#cecece" d="M13 13h1" />
<path stroke="#202020" d="M5 14h7M13 14h1M15 14h12" />
<path stroke="#c7c7c7" d="M12 14h1M14 14h1" />
<path stroke="#282828" d="M5 15h2M10 15h2M13 15h1M15 15h12" />
<path stroke="#bebebe" d="M7 15h3M12 15h1M14 15h1" />
<path stroke="#1d1d1d" d="M5 16h1M11 16h2M14 16h12" />
<path stroke="#b3b3b3" d="M6 16h5M13 16h1" />
<path stroke="#121212" d="M5 17h1M11 17h14" />
<path stroke="#a8a8a8" d="M6 17h5" />
<path stroke="#090909" d="M6 18h1M10 18h16" />
<path stroke="#9f9f9f" d="M7 18h3" />
<path stroke="#010101" d="M7 19h20" />
<path stroke="#000000" d="M7 20h12M20 20h3M25 20h3M6 21h2M9 21h6M17 21h2M21 21h3M26 21h2M6 22h2M17 22h3M22 22h2M25 22h4M5 23h4M18 23h2M22 23h2M25 23h3M5 24h3M18 24h2M21 24h4M17 25h7M17 26h3" />
<path stroke="rgba(0,0,0,0.6549019607843137)" d="M24 20h1M16 21h1M19 21h1M8 22h1M24 22h1" />
</svg>