<svg xmlns="http://www.w3.org/2000/svg" viewBox="0 -0.5 32 32" shape-rendering="crispEdges">
<metadata>Made with Pixels to Svg https://codepen.io/shshaw/pen/XbxvNj</metadata>
<path stroke="rgba(0,0,0,0.09411764705882353)" d="M21 3h1M25 3h1M20 4h1M26 4h1M13 7h1M18 7h1M11 8h1M26 8h1M10 9h1M25 9h1M9 10h1M22 10h1M8 12h1M23 12h1M5 15h1M4 16h1M23 16h1M26 18h1M4 19h1M9 19h2M27 19h1M5 20h1M7 21h1M18 21h1M6 22h1M15 22h1M20 24h1M27 24h1M21 25h1M26 25h1M6 27h1M15 27h1M7 28h1M14 28h1M8 29h1M13 29h1" />
<path stroke="rgba(0,0,0,0.27450980392156865)" d="M22 3h1M24 3h1M20 5h1M26 5h1M14 7h1M17 7h1M20 7h1M26 7h1M12 8h1M19 8h1M22 9h1M24 9h1M9 11h1M22 11h1M8 13h1M23 13h1M6 15h2M23 15h1M4 17h1M22 17h1M4 18h1M25 18h1M6 20h2M9 20h1M19 20h1M27 20h1M17 21h1M6 23h1M15 23h1M20 23h1M27 23h1M22 25h1M25 25h1M6 26h1M15 26h1M9 29h1M12 29h1" />
<path stroke="rgba(0,0,0,0.3686274509803922)" d="M23 3h1M20 6h1M26 6h1M15 7h2M23 9h1M8 14h1M23 14h1M8 15h1M9 18h1M22 18h3M10 20h1M20 20h1M14 21h3M20 21h1M27 21h1M20 22h1M27 22h1M6 24h1M15 24h1M6 25h1M15 25h1M23 25h2M10 29h2" />
<path stroke="rgba(0,0,0,0.4627450980392157)" d="M21 4h1M25 4h1M21 8h1M25 8h1M11 9h1M20 9h1M10 10h1M21 10h1M5 16h1M10 18h1M5 19h1M8 19h1M11 19h1M26 19h1M11 20h1M8 21h1M7 22h1M14 22h1M21 24h1M26 24h1M7 27h1M14 27h1M8 28h1M13 28h1" />
<path stroke="#393939" d="M22 4h3M21 5h5M21 6h5M21 7h5M14 8h4M22 8h3M12 9h8M11 10h10M10 11h12M10 12h1M12 12h6M19 12h3M9 13h1M11 13h1M13 13h4M18 13h1M20 13h3" />
<path stroke="rgba(0,0,0,0.5607843137254902)" d="M13 8h1M18 8h1M9 12h1M22 12h1M8 16h1M22 16h1M9 17h1M21 18h1M20 19h2M12 20h1M18 20h1M13 21h1" />
<path stroke="rgba(0,0,0,0.18823529411764706)" d="M20 8h1M21 9h1M8 20h1" />
<path stroke="#cfcfcf" d="M11 12h1M18 12h1M10 13h1M12 13h1M17 13h1M19 13h1" />
<path stroke="#373737" d="M9 14h1M11 14h1M13 14h4M18 14h1M20 14h3" />
<path stroke="#cdcdcd" d="M10 14h1M12 14h1M17 14h1M19 14h1" />
<path stroke="#303030" d="M9 15h2M12 15h6M19 15h4" />
<path stroke="#c6c6c6" d="M11 15h1M18 15h1" />
<path stroke="#272727" d="M6 16h2M10 16h12" />
<path stroke="rgba(0,0,0,0.6549019607843137)" d="M9 16h1M13 20h1" />
<path stroke="#1d1d1d" d="M5 17h4M10 17h12" />
<path stroke="#131313" d="M5 18h4M11 18h10" />
<path stroke="#0a0a0a" d="M6 19h2M12 19h8M22 19h4" />
<path stroke="#030303" d="M14 20h4M21 20h6" />
<path stroke="#000000" d="M9 21h4M21 21h6M8 22h6M21 22h6M7 23h8M21 23h6M7 24h8M22 24h4M7 25h8M7 26h8M8 27h6M9 28h4" />
</svg>