<svg xmlns="http://www.w3.org/2000/svg" viewBox="0 -0.5 64 64" shape-rendering="crispEdges">
<metadata>Made with Pixels to Svg https://codepen.io/shshaw/pen/XbxvNj</metadata>
<path stroke="rgba(255,255,255,0.00392156862745098)" d="M18 8h1M11 12h1M10 13h1M35 30h1" />
<path stroke="rgba(179,179,179,0.0392156862745098)" d="M19 8h1" />
<path stroke="rgba(166,166,166,0.09019607843137255)" d="M20 8h1" />
<path stroke="rgba(168,168,168,0.14901960784313725)" d="M21 8h1" />
<path stroke="rgba(167,167,167,0.19215686274509805)" d="M22 8h1" />
<path stroke="rgba(167,167,167,0.20392156862745098)" d="M23 8h1" />
<path stroke="rgba(165,165,165,0.2)" d="M24 8h1" />
<path stroke="rgba(170,170,170,0.16470588235294117)" d="M25 8h1" />
<path stroke="rgba(164,164,164,0.10980392156862745)" d="M26 8h1" />
<path stroke="rgba(159,159,159,0.06274509803921569)" d="M27 8h1" />
<path stroke="rgba(128,128,128,0.00784313725490196)" d="M28 8h1M32 10h1M8 16h1M44 25h1M47 25h1M34 31h1M16 35h1" />
<path stroke="rgba(170,170,170,0.047058823529411764)" d="M16 9h1M14 10h1M34 12h1" />
<path stroke="rgba(164,164,164,0.23137254901960785)" d="M17 9h1M31 10h1" />
<path stroke="rgba(165,165,165,0.48627450980392156)" d="M18 9h1" />
<path stroke="rgba(166,166,166,0.6823529411764706)" d="M19 9h1" />
<path stroke="rgba(166,166,166,0.8392156862745098)" d="M20 9h1" />
<path stroke="rgba(166,166,166,0.9058823529411765)" d="M21 9h1" />
<path stroke="rgba(166,166,166,0.9176470588235294)" d="M22 9h1" />
<path stroke="rgba(166,166,166,0.9215686274509803)" d="M23 9h2" />
<path stroke="rgba(166,166,166,0.9098039215686274)" d="M25 9h1" />
<path stroke="rgba(166,166,166,0.8745098039215686)" d="M26 9h1" />
<path stroke="rgba(166,166,166,0.7490196078431373)" d="M27 9h1" />
<path stroke="rgba(165,165,165,0.5137254901960784)" d="M28 9h1" />
<path stroke="rgba(165,165,165,0.24313725490196078)" d="M29 9h1" />
<path stroke="rgba(162,162,162,0.043137254901960784)" d="M30 9h1M33 11h1" />
<path stroke="rgba(166,166,166,0.30196078431372547)" d="M15 10h1" />
<path stroke="rgba(164,164,164,0.6901960784313725)" d="M16 10h1" />
<path stroke="rgba(164,164,164,0.9254901960784314)" d="M17 10h1M29 10h1" />
<path stroke="rgba(164,164,164,0.996078431372549)" d="M18 10h1M28 10h1" />
<path stroke="#a4a4a4" d="M19 10h9" />
<path stroke="rgba(163,163,163,0.6549019607843137)" d="M30 10h1" />
<path stroke="rgba(159,159,159,0.18823529411764706)" d="M13 11h1" />
<path stroke="rgba(162,162,162,0.6588235294117647)" d="M14 11h1" />
<path stroke="rgba(162,162,162,0.9450980392156862)" d="M15 11h1" />
<path stroke="#a2a2a2" d="M16 11h15" />
<path stroke="rgba(162,162,162,0.8784313725490196)" d="M31 11h1" />
<path stroke="rgba(162,162,162,0.43137254901960786)" d="M32 11h1" />
<path stroke="rgba(160,160,160,0.3058823529411765)" d="M12 12h1" />
<path stroke="rgba(160,160,160,0.8352941176470589)" d="M13 12h1" />
<path stroke="#a0a0a0" d="M14 12h18M29 14h1" />
<path stroke="rgba(160,160,160,0.9568627450980393)" d="M32 12h1" />
<path stroke="rgba(160,160,160,0.5254901960784314)" d="M33 12h1" />
<path stroke="rgba(158,158,158,0.32941176470588235)" d="M11 13h1" />
<path stroke="rgba(159,159,159,0.8862745098039215)" d="M12 13h1" />
<path stroke="#9f9f9f" d="M13 13h11M29 13h4M23 14h1M27 18h1" />
<path stroke="#9e9e9e" d="M24 13h1M28 13h1M25 18h1" />
<path stroke="#a3a3a3" d="M25 13h1M27 13h1" />
<path stroke="#a8a8a8" d="M26 13h1" />
<path stroke="rgba(159,159,159,0.9647058823529412)" d="M33 13h1" />
<path stroke="rgba(158,158,158,0.48627450980392156)" d="M34 13h1" />
<path stroke="rgba(170,170,170,0.023529411764705882)" d="M35 13h1" />
<path stroke="rgba(156,156,156,0.2627450980392157)" d="M10 14h1" />
<path stroke="rgba(157,157,157,0.8745098039215686)" d="M11 14h1" />
<path stroke="#9d9d9d" d="M12 14h10M30 14h4M22 15h1" />
<path stroke="#9c9c9c" d="M22 14h1M11 15h11M30 15h5M25 19h1M27 19h1M25 24h1" />
<path stroke="#c1c1c1" d="M24 14h1" />
<path stroke="#e2e2e2" d="M25 14h1M27 14h1" />
<path stroke="#ececec" d="M26 14h1" />
<path stroke="#c0c0c0" d="M28 14h1" />
<path stroke="rgba(157,157,157,0.9294117647058824)" d="M34 14h1" />
<path stroke="rgba(156,156,156,0.3137254901960784)" d="M35 14h1" />
<path stroke="rgba(158,158,158,0.11372549019607843)" d="M9 15h1" />
<path stroke="rgba(156,156,156,0.7647058823529411)" d="M10 15h1" />
<path stroke="#cbcbcb" d="M23 15h1M29 15h1" />
<path stroke="#f9f9f9" d="M24 15h1M28 15h1M28 17h1M23 21h1M29 21h1" />
<path stroke="#ffffff" d="M25 15h3M24 16h1M28 16h1M23 17h1M29 17h1M23 18h1M29 18h1M23 19h1M29 19h1M23 20h1M29 20h1M24 21h1M28 21h1M25 22h3" />
<path stroke="rgba(156,156,156,0.7607843137254902)" d="M35 15h1" />
<path stroke="rgba(159,159,159,0.09411764705882353)" d="M36 15h1" />
<path stroke="rgba(153,153,153,0.4980392156862745)" d="M9 16h1" />
<path stroke="rgba(154,154,154,0.9921568627450981)" d="M10 16h1" />
<path stroke="#9a9a9a" d="M11 16h10M32 16h3" />
<path stroke="#999999" d="M21 16h1M21 18h1M31 18h1M21 19h1" />
<path stroke="#b3b3b3" d="M22 16h1" />
<path stroke="#f4f4f4" d="M23 16h1M25 16h1M27 16h1M29 16h1M24 20h1" />
<path stroke="#e1e1e1" d="M26 16h1" />
<path stroke="#b2b2b2" d="M30 16h1" />
<path stroke="#979797" d="M31 16h1M10 17h1M20 17h2M26 17h1M31 17h2M35 17h1M29 23h1" />
<path stroke="rgba(154,154,154,0.9764705882352941)" d="M35 16h1" />
<path stroke="rgba(152,152,152,0.38823529411764707)" d="M36 16h1" />
<path stroke="rgba(149,149,149,0.1607843137254902)" d="M8 17h1" />
<path stroke="rgba(151,151,151,0.8588235294117647)" d="M9 17h1" />
<path stroke="#989898" d="M11 17h9M33 17h2M31 19h1" />
<path stroke="#d0d0d0" d="M22 17h1" />
<path stroke="#fafafa" d="M24 17h1" />
<path stroke="#bebebe" d="M25 17h1" />
<path stroke="#bfbfbf" d="M27 17h1" />
<path stroke="#d1d1d1" d="M30 17h1" />
<path stroke="rgba(151,151,151,0.7098039215686275)" d="M36 17h1" />
<path stroke="rgba(157,157,157,0.050980392156862744)" d="M37 17h1M7 19h1" />
<path stroke="rgba(150,150,150,0.4470588235294118)" d="M8 18h1" />
<path stroke="rgba(150,150,150,0.9921568627450981)" d="M9 18h1" />
<path stroke="#969696" d="M10 18h11M32 18h4M23 23h1" />
<path stroke="#dfdfdf" d="M22 18h1" />
<path stroke="#eaeaea" d="M24 18h1M28 18h1" />
<path stroke="#949494" d="M26 18h1M9 19h12M32 19h4M30 22h1" />
<path stroke="#e0e0e0" d="M30 18h1M22 19h1M30 19h1" />
<path stroke="rgba(150,150,150,0.9058823529411765)" d="M36 18h1" />
<path stroke="rgba(147,147,147,0.17647058823529413)" d="M37 18h1" />
<path stroke="rgba(148,148,148,0.7098039215686275)" d="M8 19h1" />
<path stroke="#e7e7e7" d="M24 19h1M28 19h1" />
<path stroke="#939393" d="M26 19h1M22 22h1" />
<path stroke="rgba(148,148,148,0.9764705882352941)" d="M36 19h1" />
<path stroke="rgba(148,148,148,0.36470588235294116)" d="M37 19h1" />
<path stroke="rgba(147,147,147,0.12941176470588237)" d="M7 20h1" />
<path stroke="rgba(146,146,146,0.8745098039215686)" d="M8 20h1" />
<path stroke="#929292" d="M9 20h12M32 20h5" />
<path stroke="#919191" d="M21 20h1M31 20h1" />
<path stroke="#d4d4d4" d="M22 20h1M30 20h1" />
<path stroke="#aeaeae" d="M25 20h1" />
<path stroke="#8e8e8e" d="M26 20h1M21 22h1" />
<path stroke="#afafaf" d="M27 20h1" />
<path stroke="#f6f6f6" d="M28 20h1" />
<path stroke="rgba(146,146,146,0.47843137254901963)" d="M37 20h1" />
<path stroke="rgba(143,143,143,0.23137254901960785)" d="M7 21h1" />
<path stroke="rgba(144,144,144,0.9333333333333333)" d="M8 21h1" />
<path stroke="#909090" d="M9 21h12M32 21h5" />
<path stroke="#8f8f8f" d="M21 21h1M31 21h1M9 22h12M31 22h6" />
<path stroke="#b6b6b6" d="M22 21h1M30 21h1" />
<path stroke="#e9e9e9" d="M25 21h1" />
<path stroke="#cacaca" d="M26 21h1" />
<path stroke="#e8e8e8" d="M27 21h1" />
<path stroke="rgba(144,144,144,0.5294117647058824)" d="M37 21h1M37 22h1" />
<path stroke="rgba(141,141,141,0.2901960784313726)" d="M7 22h1" />
<path stroke="rgba(143,143,143,0.9490196078431372)" d="M8 22h1" />
<path stroke="#d5d5d5" d="M23 22h1M29 22h1" />
<path stroke="#fdfdfd" d="M24 22h1M28 22h1" />
<path stroke="rgba(140,140,140,0.27058823529411763)" d="M7 23h1" />
<path stroke="rgba(140,140,140,0.9450980392156862)" d="M8 23h1" />
<path stroke="#8c8c8c" d="M9 23h12M22 23h1M30 23h1M32 23h4M28 24h1" />
<path stroke="#8d8d8d" d="M21 23h1M31 23h1M36 23h1M24 24h1" />
<path stroke="#cdcdcd" d="M24 23h1M28 23h1" />
<path stroke="#f1f1f1" d="M25 23h1" />
<path stroke="#f8f8f8" d="M26 23h1" />
<path stroke="#f0f0f0" d="M27 23h1" />
<path stroke="rgba(141,141,141,0.4666666666666667)" d="M37 23h1" />
<path stroke="rgba(136,136,136,0.17647058823529413)" d="M7 24h1" />
<path stroke="rgba(138,138,138,0.9098039215686274)" d="M8 24h1" />
<path stroke="#8a8a8a" d="M9 24h14M30 24h6" />
<path stroke="#898989" d="M23 24h1M29 24h1M24 25h1" />
<path stroke="#a5a5a5" d="M26 24h1" />
<path stroke="#9b9b9b" d="M27 24h1" />
<path stroke="rgba(138,138,138,0.9686274509803922)" d="M36 24h1" />
<path stroke="rgba(138,138,138,0.3411764705882353)" d="M37 24h1" />
<path stroke="rgba(135,135,135,0.06666666666666667)" d="M7 25h1M16 29h1" />
<path stroke="rgba(137,137,137,0.7529411764705882)" d="M8 25h1" />
<path stroke="#888888" d="M9 25h15M25 25h1M28 25h8" />
<path stroke="#868686" d="M26 25h1M10 26h26" />
<path stroke="#878787" d="M27 25h1" />
<path stroke="rgba(137,137,137,0.8745098039215686)" d="M36 25h1" />
<path stroke="rgba(134,134,134,0.14901960784313725)" d="M37 25h1" />
<path stroke="rgba(142,142,142,0.03529411764705882)" d="M45 25h1" />
<path stroke="rgba(128,128,128,0.03137254901960784)" d="M46 25h1M37 26h1M10 29h1" />
<path stroke="rgba(133,133,133,0.42745098039215684)" d="M8 26h1" />
<path stroke="rgba(134,134,134,0.984313725490196)" d="M9 26h1" />
<path stroke="rgba(135,135,135,0.6509803921568628)" d="M36 26h1" />
<path stroke="rgba(137,137,137,0.050980392156862744)" d="M42 26h1M17 29h1" />
<path stroke="rgba(134,134,134,0.3058823529411765)" d="M43 26h1" />
<path stroke="rgba(135,135,135,0.5647058823529412)" d="M44 26h1" />
<path stroke="rgba(134,134,134,0.6666666666666666)" d="M45 26h1" />
<path stroke="rgba(134,134,134,0.6588235294117647)" d="M46 26h1" />
<path stroke="rgba(134,134,134,0.5450980392156862)" d="M47 26h1" />
<path stroke="rgba(133,133,133,0.28627450980392155)" d="M48 26h1" />
<path stroke="rgba(139,139,139,0.043137254901960784)" d="M49 26h1" />
<path stroke="rgba(127,127,127,0.08627450980392157)" d="M8 27h1" />
<path stroke="rgba(133,133,133,0.6862745098039216)" d="M9 27h1" />
<path stroke="rgba(132,132,132,0.996078431372549)" d="M10 27h1" />
<path stroke="#848484" d="M11 27h24M44 27h4" />
<path stroke="rgba(132,132,132,0.9568627450980393)" d="M35 27h1" />
<path stroke="rgba(134,134,134,0.32941176470588235)" d="M36 27h1" />
<path stroke="rgba(130,130,130,0.20784313725490197)" d="M41 27h1" />
<path stroke="rgba(132,132,132,0.6823529411764706)" d="M42 27h1" />
<path stroke="rgba(132,132,132,0.9490196078431372)" d="M43 27h1" />
<path stroke="rgba(132,132,132,0.9372549019607843)" d="M48 27h1" />
<path stroke="rgba(131,131,131,0.6313725490196078)" d="M49 27h1" />
<path stroke="rgba(133,133,133,0.17254901960784313)" d="M50 27h1" />
<path stroke="rgba(132,132,132,0.12156862745098039)" d="M9 28h1" />
<path stroke="rgba(129,129,129,0.5882352941176471)" d="M10 28h1" />
<path stroke="rgba(130,130,130,0.8862745098039215)" d="M11 28h1" />
<path stroke="rgba(130,130,130,0.9607843137254902)" d="M12 28h1" />
<path stroke="rgba(130,130,130,0.9686274509803922)" d="M13 28h1" />
<path stroke="rgba(130,130,130,0.9411764705882353)" d="M14 28h1" />
<path stroke="rgba(130,130,130,0.8784313725490196)" d="M15 28h1" />
<path stroke="rgba(129,129,129,0.7725490196078432)" d="M16 28h1" />
<path stroke="rgba(130,130,130,0.7176470588235294)" d="M17 28h1" />
<path stroke="rgba(130,130,130,0.7607843137254902)" d="M18 28h1" />
<path stroke="rgba(130,130,130,0.8980392156862745)" d="M19 28h1" />
<path stroke="rgba(130,130,130,0.9921568627450981)" d="M20 28h1" />
<path stroke="#828282" d="M21 28h14M42 28h8" />
<path stroke="rgba(131,131,131,0.6666666666666666)" d="M35 28h1" />
<path stroke="rgba(128,128,128,0.054901960784313725)" d="M36 28h1" />
<path stroke="rgba(128,128,128,0.26666666666666666)" d="M40 28h1" />
<path stroke="rgba(130,130,130,0.8352941176470589)" d="M41 28h1" />
<path stroke="rgba(131,131,131,0.803921568627451)" d="M50 28h1" />
<path stroke="rgba(130,130,130,0.2235294117647059)" d="M51 28h1" />
<path stroke="rgba(128,128,128,0.16470588235294117)" d="M11 29h1" />
<path stroke="rgba(128,128,128,0.3215686274509804)" d="M12 29h1" />
<path stroke="rgba(129,129,129,0.34901960784313724)" d="M13 29h1" />
<path stroke="rgba(129,129,129,0.2549019607843137)" d="M14 29h1" />
<path stroke="rgba(128,128,128,0.13333333333333333)" d="M15 29h1" />
<path stroke="rgba(128,128,128,0.06274509803921569)" d="M18 29h1" />
<path stroke="rgba(130,130,130,0.1843137254901961)" d="M19 29h1" />
<path stroke="rgba(128,128,128,0.6431372549019608)" d="M20 29h1" />
<path stroke="rgba(128,128,128,0.9921568627450981)" d="M21 29h1" />
<path stroke="#7f7f7f" d="M22 29h12M42 29h8" />
<path stroke="rgba(128,128,128,0.8470588235294118)" d="M34 29h1" />
<path stroke="rgba(128,128,128,0.18823529411764706)" d="M35 29h1" />
<path stroke="rgba(125,125,125,0.20784313725490197)" d="M39 29h1" />
<path stroke="rgba(127,127,127,0.8352941176470589)" d="M40 29h1" />
<path stroke="#808080" d="M41 29h1M50 29h1" />
<path stroke="rgba(127,127,127,0.7686274509803922)" d="M51 29h1" />
<path stroke="rgba(127,127,127,0.14901960784313725)" d="M52 29h1" />
<path stroke="rgba(125,125,125,0.23137254901960785)" d="M20 30h1" />
<path stroke="rgba(125,125,125,0.9333333333333333)" d="M21 30h1" />
<path stroke="#7d7d7d" d="M22 30h11M40 30h12" />
<path stroke="rgba(125,125,125,0.9058823529411765)" d="M33 30h1" />
<path stroke="rgba(126,126,126,0.3176470588235294)" d="M34 30h1" />
<path stroke="rgba(121,121,121,0.07450980392156863)" d="M38 30h1" />
<path stroke="rgba(125,125,125,0.6901960784313725)" d="M39 30h1" />
<path stroke="rgba(125,125,125,0.615686274509804)" d="M52 30h1" />
<path stroke="rgba(128,128,128,0.0392156862745098)" d="M53 30h1" />
<path stroke="rgba(123,123,123,0.3568627450980392)" d="M20 31h1" />
<path stroke="rgba(123,123,123,0.9647058823529412)" d="M21 31h1" />
<path stroke="#7b7b7b" d="M22 31h10M40 31h12" />
<path stroke="rgba(124,124,124,0.9333333333333333)" d="M32 31h1" />
<path stroke="rgba(125,125,125,0.3843137254901961)" d="M33 31h1" />
<path stroke="rgba(0,0,0,0.00392156862745098)" d="M37 31h1M57 45h1M42 48h1M58 52h1" />
<path stroke="rgba(122,122,122,0.4588235294117647)" d="M38 31h1" />
<path stroke="rgba(123,123,123,0.9803921568627451)" d="M39 31h1" />
<path stroke="rgba(123,123,123,0.9450980392156862)" d="M52 31h1" />
<path stroke="rgba(124,124,124,0.3137254901960784)" d="M53 31h1" />
<path stroke="rgba(121,121,121,0.1568627450980392)" d="M19 32h1" />
<path stroke="rgba(120,120,120,0.792156862745098)" d="M20 32h1" />
<path stroke="#787878" d="M21 32h10M39 32h14" />
<path stroke="rgba(120,120,120,0.9725490196078431)" d="M31 32h1" />
<path stroke="rgba(121,121,121,0.47843137254901963)" d="M32 32h1" />
<path stroke="rgba(128,128,128,0.01568627450980392)" d="M33 32h1" />
<path stroke="rgba(124,124,124,0.12941176470588237)" d="M37 32h1" />
<path stroke="rgba(120,120,120,0.8274509803921568)" d="M38 32h1" />
<path stroke="rgba(119,119,119,0.6862745098039216)" d="M53 32h1" />
<path stroke="rgba(128,128,128,0.047058823529411764)" d="M54 32h1" />
<path stroke="rgba(114,114,114,0.11372549019607843)" d="M18 33h1" />
<path stroke="rgba(117,117,117,0.6901960784313725)" d="M19 33h1" />
<path stroke="#767676" d="M20 33h11M39 33h14" />
<path stroke="rgba(119,119,119,0.6235294117647059)" d="M31 33h1" />
<path stroke="rgba(119,119,119,0.058823529411764705)" d="M32 33h1" />
<path stroke="rgba(118,118,118,0.45098039215686275)" d="M37 33h1" />
<path stroke="rgba(118,118,118,0.9882352941176471)" d="M38 33h1" />
<path stroke="rgba(118,118,118,0.9254901960784314)" d="M53 33h1" />
<path stroke="rgba(117,117,117,0.23137254901960785)" d="M54 33h1" />
<path stroke="rgba(113,113,113,0.07058823529411765)" d="M17 34h1M30 36h1" />
<path stroke="rgba(116,116,116,0.6352941176470588)" d="M18 34h1" />
<path stroke="rgba(116,116,116,0.996078431372549)" d="M19 34h1" />
<path stroke="#747474" d="M20 34h10M38 34h16" />
<path stroke="rgba(116,116,116,0.8117647058823529)" d="M30 34h1" />
<path stroke="rgba(114,114,114,0.14901960784313725)" d="M31 34h1" />
<path stroke="rgba(116,116,116,0.08627450980392157)" d="M36 34h1" />
<path stroke="rgba(117,117,117,0.7803921568627451)" d="M37 34h1" />
<path stroke="rgba(116,116,116,0.4823529411764706)" d="M54 34h1" />
<path stroke="rgba(114,114,114,0.4745098039215686)" d="M17 35h1" />
<path stroke="rgba(114,114,114,0.9764705882352941)" d="M18 35h1" />
<path stroke="#727272" d="M19 35h10M38 35h16" />
<path stroke="rgba(114,114,114,0.9647058823529412)" d="M29 35h1" />
<path stroke="rgba(114,114,114,0.3843137254901961)" d="M30 35h1" />
<path stroke="rgba(114,114,114,0.3333333333333333)" d="M36 35h1" />
<path stroke="rgba(114,114,114,0.9607843137254902)" d="M37 35h1" />
<path stroke="rgba(115,115,115,0.6980392156862745)" d="M54 35h1" />
<path stroke="rgba(106,106,106,0.047058823529411764)" d="M55 35h1" />
<path stroke="rgba(108,108,108,0.23137254901960785)" d="M16 36h1" />
<path stroke="rgba(110,110,110,0.8901960784313725)" d="M17 36h1" />
<path stroke="#6f6f6f" d="M18 36h1" />
<path stroke="#6e6e6e" d="M19 36h10M37 36h17" />
<path stroke="rgba(111,111,111,0.7372549019607844)" d="M29 36h1" />
<path stroke="rgba(102,102,102,0.058823529411764705)" d="M35 36h1" />
<path stroke="rgba(110,110,110,0.7019607843137254)" d="M36 36h1" />
<path stroke="rgba(110,110,110,0.8509803921568627)" d="M54 36h1" />
<path stroke="rgba(108,108,108,0.10196078431372549)" d="M55 36h1" />
<path stroke="rgba(109,109,109,0.027450980392156862)" d="M15 37h1M33 39h1" />
<path stroke="rgba(107,107,107,0.6235294117647059)" d="M16 37h1" />
<path stroke="#6b6b6b" d="M17 37h11M37 37h17" />
<path stroke="rgba(107,107,107,0.9921568627450981)" d="M28 37h1" />
<path stroke="rgba(109,109,109,0.4392156862745098)" d="M29 37h1" />
<path stroke="rgba(108,108,108,0.3254901960784314)" d="M35 37h1" />
<path stroke="rgba(107,107,107,0.9529411764705882)" d="M36 37h1" />
<path stroke="rgba(107,107,107,0.9294117647058824)" d="M54 37h1" />
<path stroke="rgba(107,107,107,0.2235294117647059)" d="M55 37h1" />
<path stroke="rgba(106,106,106,0.20784313725490197)" d="M15 38h1" />
<path stroke="rgba(105,105,105,0.9058823529411765)" d="M16 38h1" />
<path stroke="#696969" d="M17 38h11M36 38h9M48 38h6" />
<path stroke="rgba(105,105,105,0.9411764705882353)" d="M28 38h1" />
<path stroke="rgba(104,104,104,0.25882352941176473)" d="M29 38h1" />
<path stroke="rgba(106,106,106,0.09411764705882353)" d="M34 38h1" />
<path stroke="rgba(105,105,105,0.7411764705882353)" d="M35 38h1" />
<path stroke="rgba(105,105,105,0.9725490196078431)" d="M45 38h1" />
<path stroke="rgba(105,105,105,0.9176470588235294)" d="M46 38h1" />
<path stroke="rgba(105,105,105,0.9803921568627451)" d="M47 38h1" />
<path stroke="rgba(105,105,105,0.9647058823529412)" d="M54 38h1" />
<path stroke="rgba(104,104,104,0.33725490196078434)" d="M55 38h1" />
<path stroke="rgba(101,101,101,0.4745098039215686)" d="M15 39h1" />
<path stroke="#666666" d="M16 39h12M36 39h8M49 39h5" />
<path stroke="rgba(102,102,102,0.9607843137254902)" d="M28 39h1" />
<path stroke="rgba(101,101,101,0.3254901960784314)" d="M29 39h1" />
<path stroke="rgba(102,102,102,0.5215686274509804)" d="M34 39h1" />
<path stroke="rgba(102,102,102,0.9882352941176471)" d="M35 39h1" />
<path stroke="rgba(103,103,103,0.9568627450980393)" d="M44 39h1" />
<path stroke="rgba(103,103,103,0.49411764705882355)" d="M45 39h1" />
<path stroke="rgba(105,105,105,0.1803921568627451)" d="M46 39h1" />
<path stroke="rgba(103,103,103,0.5450980392156862)" d="M47 39h1" />
<path stroke="rgba(102,102,102,0.9764705882352941)" d="M48 39h1" />
<path stroke="rgba(102,102,102,0.996078431372549)" d="M54 39h1" />
<path stroke="rgba(101,101,101,0.43529411764705883)" d="M55 39h1" />
<path stroke="rgba(102,102,102,0.0392156862745098)" d="M14 40h1" />
<path stroke="rgba(100,100,100,0.6823529411764706)" d="M15 40h1" />
<path stroke="#636363" d="M16 40h13M35 40h9M49 40h6" />
<path stroke="rgba(99,99,99,0.7490196078431373)" d="M29 40h1" />
<path stroke="rgba(98,98,98,0.20392156862745098)" d="M30 40h1" />
<path stroke="rgba(98,98,98,0.050980392156862744)" d="M31 40h1M44 42h1" />
<path stroke="rgba(102,102,102,0.09803921568627451)" d="M32 40h1" />
<path stroke="rgba(100,100,100,0.5019607843137255)" d="M33 40h1" />
<path stroke="rgba(99,99,99,0.9450980392156862)" d="M34 40h1" />
<path stroke="rgba(102,102,102,0.6392156862745098)" d="M44 40h1" />
<path stroke="rgba(93,93,93,0.043137254901960784)" d="M45 40h1" />
<path stroke="rgba(105,105,105,0.06666666666666667)" d="M47 40h1" />
<path stroke="rgba(99,99,99,0.6901960784313725)" d="M48 40h1" />
<path stroke="rgba(99,99,99,0.5333333333333333)" d="M55 40h1" />
<path stroke="rgba(93,93,93,0.08627450980392157)" d="M14 41h1" />
<path stroke="rgba(95,95,95,0.8274509803921568)" d="M15 41h1" />
<path stroke="#606060" d="M16 41h13M34 41h9M50 41h5" />
<path stroke="rgba(96,96,96,0.996078431372549)" d="M29 41h1" />
<path stroke="rgba(95,95,95,0.8901960784313725)" d="M30 41h1" />
<path stroke="rgba(96,96,96,0.7294117647058823)" d="M31 41h1" />
<path stroke="rgba(96,96,96,0.803921568627451)" d="M32 41h1" />
<path stroke="rgba(96,96,96,0.9764705882352941)" d="M33 41h1" />
<path stroke="rgba(96,96,96,0.9333333333333333)" d="M43 41h1" />
<path stroke="rgba(97,97,97,0.25882352941176473)" d="M44 41h1" />
<path stroke="rgba(97,97,97,0.2784313725490196)" d="M48 41h1" />
<path stroke="rgba(96,96,96,0.9411764705882353)" d="M49 41h1" />
<path stroke="rgba(95,95,95,0.6196078431372549)" d="M55 41h1" />
<path stroke="rgba(102,102,102,0.0196078431372549)" d="M56 41h1" />
<path stroke="rgba(94,94,94,0.11764705882352941)" d="M14 42h1" />
<path stroke="rgba(92,92,92,0.8901960784313725)" d="M15 42h1" />
<path stroke="#5c5c5c" d="M16 42h14M33 42h10M50 42h5" />
<path stroke="#5d5d5d" d="M30 42h3" />
<path stroke="rgba(92,92,92,0.7137254901960784)" d="M43 42h1" />
<path stroke="rgba(85,85,85,0.058823529411764705)" d="M48 42h1M56 42h1M14 45h1M43 45h1" />
<path stroke="rgba(92,92,92,0.7254901960784313)" d="M49 42h1" />
<path stroke="rgba(93,93,93,0.7450980392156863)" d="M55 42h1" />
<path stroke="rgba(88,88,88,0.12549019607843137)" d="M14 43h1" />
<path stroke="rgba(89,89,89,0.8980392156862745)" d="M15 43h1" />
<path stroke="#595959" d="M16 43h26M50 43h5" />
<path stroke="rgba(89,89,89,0.996078431372549)" d="M42 43h1" />
<path stroke="rgba(89,89,89,0.4470588235294118)" d="M43 43h1" />
<path stroke="rgba(91,91,91,0.4627450980392157)" d="M49 43h1" />
<path stroke="rgba(88,88,88,0.8588235294117647)" d="M55 43h1" />
<path stroke="rgba(88,88,88,0.11372549019607843)" d="M56 43h1" />
<path stroke="rgba(88,88,88,0.10196078431372549)" d="M14 44h1" />
<path stroke="rgba(85,85,85,0.8627450980392157)" d="M15 44h1" />
<path stroke="#555555" d="M16 44h26M51 44h4" />
<path stroke="rgba(85,85,85,0.9215686274509803)" d="M42 44h1" />
<path stroke="rgba(85,85,85,0.21176470588235294)" d="M43 44h1" />
<path stroke="rgba(86,86,86,0.23137254901960785)" d="M49 44h1" />
<path stroke="rgba(85,85,85,0.9294117647058824)" d="M50 44h1" />
<path stroke="rgba(85,85,85,0.9450980392156862)" d="M55 44h1" />
<path stroke="rgba(85,85,85,0.27058823529411763)" d="M56 44h1" />
<path stroke="rgba(82,82,82,0.7411764705882353)" d="M15 45h1" />
<path stroke="#525252" d="M16 45h26M51 45h5" />
<path stroke="rgba(84,84,84,0.7372549019607844)" d="M42 45h1" />
<path stroke="rgba(81,81,81,0.08627450980392157)" d="M49 45h1" />
<path stroke="rgba(82,82,82,0.803921568627451)" d="M50 45h1" />
<path stroke="rgba(83,83,83,0.5333333333333333)" d="M56 45h1" />
<path stroke="rgba(77,77,77,0.5568627450980392)" d="M15 46h1" />
<path stroke="#4e4e4e" d="M16 46h25M51 46h5" />
<path stroke="rgba(78,78,78,0.996078431372549)" d="M41 46h1" />
<path stroke="rgba(80,80,80,0.4745098039215686)" d="M42 46h1" />
<path stroke="rgba(85,85,85,0.011764705882352941)" d="M49 46h1" />
<path stroke="rgba(78,78,78,0.5647058823529412)" d="M50 46h1" />
<path stroke="rgba(77,77,77,0.8392156862745098)" d="M56 46h1" />
<path stroke="rgba(77,77,77,0.1568627450980392)" d="M57 46h1" />
<path stroke="rgba(75,75,75,0.3333333333333333)" d="M15 47h1" />
<path stroke="rgba(74,74,74,0.9647058823529412)" d="M16 47h1" />
<path stroke="#4a4a4a" d="M17 47h24M52 47h4" />
<path stroke="rgba(74,74,74,0.8509803921568627)" d="M41 47h1" />
<path stroke="rgba(75,75,75,0.1607843137254902)" d="M42 47h1" />
<path stroke="rgba(75,75,75,0.22745098039215686)" d="M50 47h1" />
<path stroke="rgba(73,73,73,0.8980392156862745)" d="M51 47h1" />
<path stroke="rgba(74,74,74,0.996078431372549)" d="M56 47h1" />
<path stroke="rgba(75,75,75,0.615686274509804)" d="M57 47h1" />
<path stroke="rgba(64,64,64,0.047058823529411764)" d="M58 47h1" />
<path stroke="rgba(70,70,70,0.08627450980392157)" d="M15 48h1" />
<path stroke="rgba(70,70,70,0.7725490196078432)" d="M16 48h1" />
<path stroke="#464646" d="M17 48h23M53 48h4" />
<path stroke="rgba(70,70,70,0.9764705882352941)" d="M40 48h1M52 48h1" />
<path stroke="rgba(72,72,72,0.4588235294117647)" d="M41 48h1" />
<path stroke="rgba(64,64,64,0.01568627450980392)" d="M50 48h1" />
<path stroke="rgba(70,70,70,0.4980392156862745)" d="M51 48h1" />
<path stroke="rgba(70,70,70,0.9607843137254902)" d="M57 48h1" />
<path stroke="rgba(69,69,69,0.403921568627451)" d="M58 48h1" />
<path stroke="rgba(65,65,65,0.4)" d="M16 49h1" />
<path stroke="rgba(66,66,66,0.9725490196078431)" d="M17 49h1M53 49h1" />
<path stroke="#404040" d="M18 49h22M54 49h3" />
<path stroke="rgba(65,65,65,0.6274509803921569)" d="M40 49h1" />
<path stroke="rgba(75,75,75,0.06666666666666667)" d="M41 49h1" />
<path stroke="rgba(64,64,64,0.06274509803921569)" d="M51 49h1M16 50h1" />
<path stroke="rgba(65,65,65,0.5803921568627451)" d="M52 49h1" />
<path stroke="#424242" d="M57 49h1" />
<path stroke="rgba(63,63,63,0.788235294117647)" d="M58 49h1" />
<path stroke="rgba(64,64,64,0.0784313725490196)" d="M59 49h1" />
<path stroke="rgba(61,61,61,0.6745098039215687)" d="M17 50h1" />
<path stroke="#3b3b3b" d="M18 50h20M56 50h2" />
<path stroke="rgba(59,59,59,0.9921568627450981)" d="M38 50h1" />
<path stroke="rgba(59,59,59,0.6941176470588235)" d="M39 50h1" />
<path stroke="rgba(58,58,58,0.12156862745098039)" d="M40 50h1" />
<path stroke="rgba(68,68,68,0.058823529411764705)" d="M52 50h1" />
<path stroke="rgba(62,62,62,0.45098039215686275)" d="M53 50h1" />
<path stroke="rgba(58,58,58,0.8549019607843137)" d="M54 50h1" />
<path stroke="rgba(59,59,59,0.984313725490196)" d="M55 50h1" />
<path stroke="rgba(59,59,59,0.8627450980392157)" d="M58 50h1" />
<path stroke="rgba(57,57,57,0.10588235294117647)" d="M59 50h1" />
<path stroke="rgba(58,58,58,0.17254901960784313)" d="M17 51h1" />
<path stroke="rgba(55,55,55,0.7764705882352941)" d="M18 51h1" />
<path stroke="#353535" d="M19 51h18" />
<path stroke="rgba(53,53,53,0.9647058823529412)" d="M37 51h1" />
<path stroke="rgba(57,57,57,0.6)" d="M38 51h1" />
<path stroke="rgba(51,51,51,0.09803921568627451)" d="M39 51h1" />
<path stroke="rgba(0,0,0,0.00784313725490196)" d="M53 51h1M20 54h1M35 54h1" />
<path stroke="rgba(54,54,54,0.14901960784313725)" d="M54 51h1" />
<path stroke="rgba(56,56,56,0.43137254901960786)" d="M55 51h1" />
<path stroke="rgba(56,56,56,0.6196078431372549)" d="M56 51h1" />
<path stroke="rgba(57,57,57,0.6352941176470588)" d="M57 51h1" />
<path stroke="rgba(56,56,56,0.3568627450980392)" d="M58 51h1" />
<path stroke="rgba(43,43,43,0.023529411764705882)" d="M59 51h1" />
<path stroke="rgba(51,51,51,0.17647058823529413)" d="M18 52h1" />
<path stroke="rgba(50,50,50,0.7137254901960784)" d="M19 52h1" />
<path stroke="rgba(46,46,46,0.984313725490196)" d="M20 52h1" />
<path stroke="#2e2e2e" d="M21 52h14" />
<path stroke="rgba(46,46,46,0.9921568627450981)" d="M35 52h1" />
<path stroke="rgba(46,46,46,0.8196078431372549)" d="M36 52h1" />
<path stroke="rgba(45,45,45,0.396078431372549)" d="M37 52h1" />
<path stroke="rgba(55,55,55,0.054901960784313725)" d="M38 52h1" />
<path stroke="rgba(51,51,51,0.0196078431372549)" d="M56 52h1" />
<path stroke="rgba(36,36,36,0.027450980392156862)" d="M57 52h1" />
<path stroke="rgba(46,46,46,0.08627450980392157)" d="M19 53h1" />
<path stroke="rgba(43,43,43,0.4666666666666667)" d="M20 53h1" />
<path stroke="rgba(43,43,43,0.8392156862745098)" d="M21 53h1" />
<path stroke="rgba(43,43,43,0.9803921568627451)" d="M22 53h1" />
<path stroke="#272727" d="M23 53h4M29 53h4" />
<path stroke="#2b2b2b" d="M27 53h2" />
<path stroke="rgba(43,43,43,0.9686274509803922)" d="M33 53h1" />
<path stroke="rgba(43,43,43,0.8156862745098039)" d="M34 53h1" />
<path stroke="rgba(43,43,43,0.49411764705882355)" d="M35 53h1" />
<path stroke="rgba(41,41,41,0.1450980392156863)" d="M36 53h1" />
<path stroke="rgba(36,36,36,0.13725490196078433)" d="M21 54h1" />
<path stroke="rgba(34,34,34,0.40784313725490196)" d="M22 54h1" />
<path stroke="rgba(35,35,35,0.6627450980392157)" d="M23 54h1" />
<path stroke="rgba(34,34,34,0.8470588235294118)" d="M24 54h1" />
<path stroke="rgba(34,34,34,0.9176470588235294)" d="M25 54h1" />
<path stroke="rgba(34,34,34,0.9411764705882353)" d="M26 54h1" />
<path stroke="rgba(28,28,28,0.9568627450980393)" d="M27 54h1" />
<path stroke="rgba(28,28,28,0.9490196078431372)" d="M28 54h1" />
<path stroke="rgba(34,34,34,0.9333333333333333)" d="M29 54h1" />
<path stroke="rgba(34,34,34,0.8862745098039215)" d="M30 54h1" />
<path stroke="rgba(34,34,34,0.7568627450980392)" d="M31 54h1" />
<path stroke="rgba(33,33,33,0.5686274509803921)" d="M32 54h1" />
<path stroke="rgba(35,35,35,0.34509803921568627)" d="M33 54h1" />
<path stroke="rgba(38,38,38,0.10588235294117647)" d="M34 54h1" />
<path stroke="rgba(28,28,28,0.03529411764705882)" d="M23 55h1" />
<path stroke="rgba(28,28,28,0.10588235294117647)" d="M24 55h1" />
<path stroke="rgba(21,21,21,0.19215686274509805)" d="M25 55h1" />
<path stroke="rgba(23,23,23,0.26666666666666666)" d="M26 55h1" />
<path stroke="rgba(20,20,20,0.3058823529411765)" d="M27 55h1" />
<path stroke="rgba(21,21,21,0.28627450980392155)" d="M28 55h1" />
<path stroke="rgba(22,22,22,0.23137254901960785)" d="M29 55h1" />
<path stroke="rgba(21,21,21,0.1411764705882353)" d="M30 55h1" />
<path stroke="rgba(32,32,32,0.06274509803921569)" d="M31 55h1" />
<path stroke="rgba(0,0,0,0.011764705882352941)" d="M32 55h1" />
</svg>