<svg xmlns="http://www.w3.org/2000/svg" viewBox="0 -0.5 64 64" shape-rendering="crispEdges">
<metadata>Made with Pixels to Svg https://codepen.io/shshaw/pen/XbxvNj</metadata>
<path stroke="rgba(128,128,128,0.00784313725490196)" d="M29 6h1M24 7h1M45 10h1M12 18h1M17 46h1M56 46h1M17 50h1M39 53h1" />
<path stroke="rgba(153,153,153,0.0196078431372549)" d="M30 6h1M39 7h1" />
<path stroke="rgba(182,182,182,0.027450980392156862)" d="M31 6h2" />
<path stroke="rgba(170,170,170,0.023529411764705882)" d="M33 6h1" />
<path stroke="rgba(170,170,170,0.011764705882352941)" d="M34 6h1M17 11h1M15 13h1" />
<path stroke="rgba(170,170,170,0.07058823529411765)" d="M25 7h1" />
<path stroke="rgba(165,165,165,0.21176470588235294)" d="M26 7h1" />
<path stroke="rgba(166,166,166,0.37254901960784315)" d="M27 7h1" />
<path stroke="rgba(167,167,167,0.5019607843137255)" d="M28 7h1" />
<path stroke="rgba(167,167,167,0.5803921568627451)" d="M29 7h1" />
<path stroke="rgba(166,166,166,0.6196078431372549)" d="M30 7h1" />
<path stroke="rgba(166,166,166,0.6431372549019608)" d="M31 7h1" />
<path stroke="rgba(167,167,167,0.6470588235294118)" d="M32 7h1" />
<path stroke="rgba(167,167,167,0.6274509803921569)" d="M33 7h1" />
<path stroke="rgba(167,167,167,0.592156862745098)" d="M34 7h1" />
<path stroke="rgba(166,166,166,0.5294117647058824)" d="M35 7h1" />
<path stroke="rgba(166,166,166,0.41568627450980394)" d="M36 7h1" />
<path stroke="rgba(167,167,167,0.25098039215686274)" d="M37 7h1" />
<path stroke="rgba(170,170,170,0.09411764705882353)" d="M38 7h1" />
<path stroke="rgba(153,153,153,0.0392156862745098)" d="M22 8h1" />
<path stroke="rgba(163,163,163,0.22745098039215686)" d="M23 8h1" />
<path stroke="rgba(164,164,164,0.5058823529411764)" d="M24 8h1" />
<path stroke="rgba(165,165,165,0.7686274509803922)" d="M25 8h1" />
<path stroke="rgba(165,165,165,0.9215686274509803)" d="M26 8h1" />
<path stroke="rgba(165,165,165,0.9764705882352941)" d="M27 8h1" />
<path stroke="#a5a5a5" d="M28 8h8M25 25h1" />
<path stroke="rgba(165,165,165,0.984313725490196)" d="M36 8h1" />
<path stroke="rgba(165,165,165,0.9411764705882353)" d="M37 8h1" />
<path stroke="rgba(165,165,165,0.8117647058823529)" d="M38 8h1" />
<path stroke="rgba(164,164,164,0.5843137254901961)" d="M39 8h1" />
<path stroke="rgba(166,166,166,0.30196078431372547)" d="M40 8h1" />
<path stroke="rgba(165,165,165,0.06666666666666667)" d="M41 8h1" />
<path stroke="rgba(170,170,170,0.03529411764705882)" d="M20 9h1" />
<path stroke="rgba(164,164,164,0.2627450980392157)" d="M21 9h1" />
<path stroke="rgba(164,164,164,0.6470588235294118)" d="M22 9h1" />
<path stroke="rgba(164,164,164,0.9215686274509803)" d="M23 9h1" />
<path stroke="rgba(164,164,164,0.996078431372549)" d="M24 9h1" />
<path stroke="#a4a4a4" d="M25 9h15" />
<path stroke="rgba(164,164,164,0.9529411764705882)" d="M40 9h1" />
<path stroke="rgba(164,164,164,0.7254901960784313)" d="M41 9h1" />
<path stroke="rgba(164,164,164,0.35294117647058826)" d="M42 9h1" />
<path stroke="rgba(159,159,159,0.06274509803921569)" d="M43 9h1M47 12h1" />
<path stroke="rgba(161,161,161,0.14901960784313725)" d="M19 10h1" />
<path stroke="rgba(161,161,161,0.5882352941176471)" d="M20 10h1" />
<path stroke="rgba(162,162,162,0.9333333333333333)" d="M21 10h1" />
<path stroke="#a2a2a2" d="M22 10h20M34 26h1" />
<path stroke="rgba(162,162,162,0.9607843137254902)" d="M42 10h1" />
<path stroke="rgba(162,162,162,0.7019607843137254)" d="M43 10h1" />
<path stroke="rgba(163,163,163,0.23921568627450981)" d="M44 10h1" />
<path stroke="rgba(159,159,159,0.2901960784313726)" d="M18 11h1" />
<path stroke="rgba(160,160,160,0.803921568627451)" d="M19 11h1" />
<path stroke="rgba(160,160,160,0.996078431372549)" d="M20 11h1" />
<path stroke="#a0a0a0" d="M21 11h23" />
<path stroke="rgba(160,160,160,0.8823529411764706)" d="M44 11h1" />
<path stroke="rgba(161,161,161,0.43529411764705883)" d="M45 11h1" />
<path stroke="rgba(162,162,162,0.043137254901960784)" d="M46 11h1" />
<path stroke="rgba(128,128,128,0.01568627450980392)" d="M16 12h1M49 14h1M13 16h1M52 21h1M51 29h1M50 31h1" />
<path stroke="rgba(160,160,160,0.38823529411764707)" d="M17 12h1" />
<path stroke="rgba(159,159,159,0.9058823529411765)" d="M18 12h1" />
<path stroke="#9f9f9f" d="M19 12h26M16 18h1" />
<path stroke="rgba(159,159,159,0.9568627450980393)" d="M45 12h1" />
<path stroke="rgba(158,158,158,0.5372549019607843)" d="M46 12h1" />
<path stroke="rgba(157,157,157,0.38823529411764707)" d="M16 13h1" />
<path stroke="rgba(157,157,157,0.9215686274509803)" d="M17 13h1" />
<path stroke="#9e9e9e" d="M18 13h2M39 21h1" />
<path stroke="#9d9d9d" d="M20 13h26" />
<path stroke="rgba(157,157,157,0.9764705882352941)" d="M46 13h1" />
<path stroke="rgba(157,157,157,0.5607843137254902)" d="M47 13h1" />
<path stroke="rgba(157,157,157,0.050980392156862744)" d="M48 13h1" />
<path stroke="rgba(156,156,156,0.29411764705882354)" d="M15 14h1" />
<path stroke="rgba(156,156,156,0.8980392156862745)" d="M16 14h1" />
<path stroke="#9c9c9c" d="M17 14h2M24 14h12M40 14h7M26 18h1" />
<path stroke="#9b9b9b" d="M19 14h1M23 14h1M40 15h1M41 16h1" />
<path stroke="#9a9a9a" d="M20 14h1M22 14h1M39 14h1M16 15h2M24 15h10M41 15h7" />
<path stroke="#999999" d="M21 14h1M36 14h1M38 14h1M18 15h1M34 15h1M17 16h1M25 16h1M32 18h1" />
<path stroke="#989898" d="M37 14h1M15 16h1M26 16h6M42 16h7" />
<path stroke="rgba(156,156,156,0.9686274509803922)" d="M47 14h1" />
<path stroke="rgba(157,157,157,0.47843137254901963)" d="M48 14h1" />
<path stroke="rgba(154,154,154,0.14901960784313725)" d="M14 15h1" />
<path stroke="rgba(154,154,154,0.8117647058823529)" d="M15 15h1" />
<path stroke="#ababab" d="M19 15h1" />
<path stroke="#c7c7c7" d="M20 15h1M22 15h1M26 20h1" />
<path stroke="#d2d2d2" d="M21 15h1M23 19h1" />
<path stroke="#aaaaaa" d="M23 15h1M26 23h1M17 25h1M18 26h1M20 27h1" />
<path stroke="#a9a9a9" d="M35 15h1M22 27h1" />
<path stroke="#c5c5c5" d="M36 15h1M20 18h1" />
<path stroke="#d1d1d1" d="M37 15h1M42 21h1" />
<path stroke="#c8c8c8" d="M38 15h1" />
<path stroke="#aeaeae" d="M39 15h1M41 25h1" />
<path stroke="rgba(154,154,154,0.9098039215686274)" d="M48 15h1" />
<path stroke="rgba(154,154,154,0.28627450980392155)" d="M49 15h1" />
<path stroke="rgba(151,151,151,0.5490196078431373)" d="M14 16h1" />
<path stroke="#979797" d="M16 16h1M32 16h2M15 17h1M27 17h5M43 17h6" />
<path stroke="#c2c2c2" d="M18 16h1M41 17h1M32 21h1M16 22h1" />
<path stroke="#f0f0f0" d="M19 16h1" />
<path stroke="#fefefe" d="M20 16h1M38 16h1M40 19h1M17 22h1M20 25h1M22 25h1M38 25h1" />
<path stroke="#ffffff" d="M21 16h1M37 16h1M19 17h1M23 17h1M35 17h1M39 17h1M18 18h1M24 18h1M34 18h1M40 18h1M18 19h1M24 19h1M34 19h1M17 20h1M25 20h1M41 20h1M17 21h1M25 21h1M41 21h1M41 22h1M18 23h1M24 23h1M34 23h1M40 23h1M18 24h1M24 24h1M34 24h1M40 24h1M19 25h1M23 25h1M35 25h2M39 25h1" />
<path stroke="#fdfdfd" d="M22 16h1M36 16h1M33 20h1M33 21h1M25 22h1" />
<path stroke="#efefef" d="M23 16h1M18 25h1" />
<path stroke="#c0c0c0" d="M24 16h1M26 22h1" />
<path stroke="#bbbbbb" d="M34 16h1M17 17h1" />
<path stroke="#eeeeee" d="M35 16h1" />
<path stroke="#f2f2f2" d="M39 16h1M40 21h1" />
<path stroke="#c6c6c6" d="M40 16h1" />
<path stroke="rgba(151,151,151,0.7333333333333333)" d="M49 16h1" />
<path stroke="rgba(153,153,153,0.0784313725490196)" d="M50 16h1" />
<path stroke="rgba(151,151,151,0.21176470588235294)" d="M13 17h1" />
<path stroke="rgba(151,151,151,0.8901960784313725)" d="M14 17h1" />
<path stroke="#969696" d="M16 17h1M26 17h1M32 17h1M42 17h1" />
<path stroke="#f7f7f7" d="M18 17h1M21 17h1M37 17h1M33 19h1M24 21h1M40 22h1" />
<path stroke="#fcfcfc" d="M20 17h1M22 17h1M36 17h1M41 19h1M34 22h1M35 24h1M37 25h1M21 26h1M37 26h1" />
<path stroke="#f5f5f5" d="M24 17h1M19 18h1" />
<path stroke="#b8b8b8" d="M25 17h1" />
<path stroke="#b4b4b4" d="M33 17h1M42 23h1M21 24h1" />
<path stroke="#f3f3f3" d="M34 17h1M39 18h1M33 23h1M40 25h1" />
<path stroke="#fbfbfb" d="M38 17h1M34 20h1M33 22h1M23 24h1M21 25h1" />
<path stroke="#f9f9f9" d="M40 17h1M23 18h1M25 19h1M24 20h1M34 21h1M18 22h1M19 24h1M39 24h1M20 26h1M22 26h1M38 26h1" />
<path stroke="rgba(151,151,151,0.9725490196078431)" d="M49 17h1" />
<path stroke="rgba(151,151,151,0.3843137254901961)" d="M50 17h1" />
<path stroke="rgba(149,149,149,0.5450980392156862)" d="M13 18h1" />
<path stroke="#959595" d="M14 18h1M28 18h4M44 18h6M36 19h1M42 24h1" />
<path stroke="#949494" d="M15 18h1M27 18h1M28 19h3M44 19h1M46 19h4" />
<path stroke="#e8e8e8" d="M17 18h1" />
<path stroke="#a7a7a7" d="M21 18h1M39 20h1M39 22h1M24 26h1M36 27h1" />
<path stroke="#cacaca" d="M22 18h1M36 18h1M26 21h1" />
<path stroke="#e5e5e5" d="M25 18h1" />
<path stroke="#e0e0e0" d="M33 18h1" />
<path stroke="#f8f8f8" d="M35 18h1M18 20h1M17 23h1M36 26h1" />
<path stroke="#a8a8a8" d="M37 18h1M23 21h1" />
<path stroke="#bfbfbf" d="M38 18h1M32 20h1" />
<path stroke="#ececec" d="M41 18h1" />
<path stroke="#a3a3a3" d="M42 18h1M19 21h1M32 23h1" />
<path stroke="#939393" d="M43 18h1M14 19h1M45 19h1M36 23h1" />
<path stroke="rgba(149,149,149,0.7333333333333333)" d="M50 18h1" />
<path stroke="rgba(153,153,153,0.058823529411764705)" d="M51 18h1" />
<path stroke="rgba(146,146,146,0.08235294117647059)" d="M12 19h1" />
<path stroke="rgba(147,147,147,0.788235294117647)" d="M13 19h1" />
<path stroke="#929292" d="M15 19h1M20 19h1M22 19h1M27 19h1M31 19h1M37 19h2M14 20h1M21 20h1M28 20h3M37 20h1M44 20h6" />
<path stroke="#b6b6b6" d="M16 19h1M32 22h1M37 24h1M21 27h1M37 27h1" />
<path stroke="#fafafa" d="M17 19h1M24 22h1M41 23h1" />
<path stroke="#cecece" d="M19 19h1M38 24h1" />
<path stroke="#909090" d="M21 19h1M15 20h1M20 20h1M31 20h1M36 20h1M38 20h1M43 20h1M14 21h1M21 21h1M28 21h3M37 21h1M43 21h8M20 23h1M22 23h1M16 24h1M26 24h1M19 27h1M39 27h1" />
<path stroke="#b3b3b3" d="M26 19h1" />
<path stroke="#adadad" d="M32 19h1M19 20h1M16 23h1" />
<path stroke="#d8d8d8" d="M35 19h1M23 23h1" />
<path stroke="#c9c9c9" d="M39 19h1M16 20h1" />
<path stroke="#bebebe" d="M42 19h1" />
<path stroke="#919191" d="M43 19h1" />
<path stroke="rgba(147,147,147,0.9254901960784314)" d="M50 19h1" />
<path stroke="rgba(148,148,148,0.2235294117647059)" d="M51 19h1" />
<path stroke="rgba(144,144,144,0.24313725490196078)" d="M12 20h1" />
<path stroke="rgba(146,146,146,0.9333333333333333)" d="M13 20h1" />
<path stroke="#8f8f8f" d="M22 20h1M27 20h1M20 21h1M22 21h1M36 21h1M38 21h1M13 22h2M21 22h1M28 22h3M37 22h1M44 22h7M23 27h1" />
<path stroke="#b2b2b2" d="M23 20h1" />
<path stroke="#bababa" d="M35 20h1" />
<path stroke="#f6f6f6" d="M40 20h1M18 21h1M25 23h1" />
<path stroke="#cfcfcf" d="M42 20h1" />
<path stroke="rgba(146,146,146,0.996078431372549)" d="M50 20h1" />
<path stroke="rgba(147,147,147,0.43529411764705883)" d="M51 20h1" />
<path stroke="rgba(144,144,144,0.403921568627451)" d="M12 21h1" />
<path stroke="rgba(144,144,144,0.9882352941176471)" d="M13 21h1" />
<path stroke="#8e8e8e" d="M15 21h1M27 21h1M31 21h1M38 23h1M35 27h1" />
<path stroke="#cdcdcd" d="M16 21h1" />
<path stroke="#afafaf" d="M35 21h1M40 26h1" />
<path stroke="rgba(144,144,144,0.6039215686274509)" d="M51 21h1" />
<path stroke="rgba(144,144,144,0.49411764705882355)" d="M12 22h1" />
<path stroke="#8c8c8c" d="M15 22h1M20 22h1M38 22h1" />
<path stroke="#b1b1b1" d="M19 22h1" />
<path stroke="#8b8b8b" d="M22 22h1M27 22h1M43 22h1M15 23h1M27 23h1M31 23h1" />
<path stroke="#b5b5b5" d="M23 22h1" />
<path stroke="#8d8d8d" d="M31 22h1M36 22h1M13 23h2M28 23h3M44 23h7M32 24h1" />
<path stroke="#bcbcbc" d="M35 22h1" />
<path stroke="#cbcbcb" d="M42 22h1" />
<path stroke="rgba(143,143,143,0.6980392156862745)" d="M51 22h1" />
<path stroke="rgba(149,149,149,0.047058823529411764)" d="M52 22h1" />
<path stroke="rgba(141,141,141,0.5372549019607843)" d="M12 23h1" />
<path stroke="#d5d5d5" d="M19 23h1M33 24h1" />
<path stroke="#898989" d="M21 23h1M37 23h1M13 25h3M27 25h5M43 25h8" />
<path stroke="#dddddd" d="M35 23h1" />
<path stroke="#d0d0d0" d="M39 23h1" />
<path stroke="#8a8a8a" d="M43 23h1M13 24h3M27 24h5M43 24h8" />
<path stroke="rgba(141,141,141,0.7372549019607844)" d="M51 23h1" />
<path stroke="rgba(136,136,136,0.058823529411764705)" d="M52 23h1" />
<path stroke="rgba(139,139,139,0.5254901960784314)" d="M12 24h1" />
<path stroke="#dedede" d="M17 24h1" />
<path stroke="#d3d3d3" d="M20 24h1" />
<path stroke="#d4d4d4" d="M22 24h1" />
<path stroke="#dcdcdc" d="M25 24h1" />
<path stroke="#d6d6d6" d="M36 24h1" />
<path stroke="#e4e4e4" d="M41 24h1M39 26h1" />
<path stroke="rgba(139,139,139,0.7215686274509804)" d="M51 24h1" />
<path stroke="rgba(137,137,137,0.050980392156862744)" d="M52 24h1" />
<path stroke="rgba(137,137,137,0.4588235294117647)" d="M12 25h1" />
<path stroke="#878787" d="M16 25h1M32 25h1M14 26h3M26 26h7M42 26h9" />
<path stroke="#ededed" d="M24 25h1" />
<path stroke="#888888" d="M26 25h1M42 25h1" />
<path stroke="#a1a1a1" d="M33 25h1" />
<path stroke="#e9e9e9" d="M34 25h1" />
<path stroke="rgba(137,137,137,0.6549019607843137)" d="M51 25h1" />
<path stroke="rgba(128,128,128,0.03137254901960784)" d="M52 25h1" />
<path stroke="rgba(134,134,134,0.3215686274509804)" d="M12 26h1" />
<path stroke="rgba(135,135,135,0.9607843137254902)" d="M13 26h1" />
<path stroke="#868686" d="M17 26h1M33 26h1M41 26h1M25 27h1" />
<path stroke="#e3e3e3" d="M19 26h1" />
<path stroke="#e1e1e1" d="M23 26h1" />
<path stroke="#858585" d="M25 26h1M14 27h4M26 27h8M41 27h9" />
<path stroke="#dfdfdf" d="M35 26h1" />
<path stroke="rgba(135,135,135,0.5411764705882353)" d="M51 26h1" />
<path stroke="rgba(134,134,134,0.16470588235294117)" d="M12 27h1" />
<path stroke="rgba(134,134,134,0.9019607843137255)" d="M13 27h1" />
<path stroke="#838383" d="M18 27h1M34 27h1M40 27h1M14 28h5M24 28h11M40 28h10" />
<path stroke="#848484" d="M24 27h1" />
<path stroke="#acacac" d="M38 27h1" />
<path stroke="rgba(134,134,134,0.9686274509803922)" d="M50 27h1" />
<path stroke="rgba(133,133,133,0.34509803921568627)" d="M51 27h1" />
<path stroke="rgba(128,128,128,0.047058823529411764)" d="M12 28h1" />
<path stroke="rgba(132,132,132,0.7019607843137254)" d="M13 28h1" />
<path stroke="#828282" d="M19 28h1M23 28h1M35 28h1M39 28h1" />
<path stroke="#818181" d="M20 28h1M22 28h1M36 28h1M38 28h1M15 29h35" />
<path stroke="#808080" d="M21 28h1M37 28h1" />
<path stroke="rgba(132,132,132,0.8509803921568627)" d="M50 28h1" />
<path stroke="rgba(135,135,135,0.1411764705882353)" d="M51 28h1" />
<path stroke="rgba(129,129,129,0.3803921568627451)" d="M13 29h1" />
<path stroke="rgba(129,129,129,0.9764705882352941)" d="M14 29h1" />
<path stroke="rgba(129,129,129,0.5803921568627451)" d="M50 29h1" />
<path stroke="rgba(128,128,128,0.09411764705882353)" d="M13 30h1" />
<path stroke="rgba(127,127,127,0.7686274509803922)" d="M14 30h1" />
<path stroke="#7f7f7f" d="M15 30h34" />
<path stroke="rgba(127,127,127,0.9058823529411765)" d="M49 30h1" />
<path stroke="rgba(130,130,130,0.23137254901960785)" d="M50 30h1" />
<path stroke="rgba(125,125,125,0.35294117647058826)" d="M14 31h1" />
<path stroke="rgba(126,126,126,0.9529411764705882)" d="M15 31h1" />
<path stroke="#7d7d7d" d="M16 31h32" />
<path stroke="rgba(125,125,125,0.9921568627450981)" d="M48 31h1" />
<path stroke="rgba(126,126,126,0.5333333333333333)" d="M49 31h1" />
<path stroke="rgba(113,113,113,0.03529411764705882)" d="M14 32h1M15 34h1" />
<path stroke="rgba(123,123,123,0.5843137254901961)" d="M15 32h1" />
<path stroke="#7b7b7b" d="M16 32h32" />
<path stroke="rgba(124,124,124,0.7529411764705882)" d="M48 32h1" />
<path stroke="rgba(123,123,123,0.12156862745098039)" d="M49 32h1" />
<path stroke="rgba(124,124,124,0.12941176470588237)" d="M15 33h1" />
<path stroke="rgba(122,122,122,0.7607843137254902)" d="M16 33h1" />
<path stroke="#787878" d="M17 33h30" />
<path stroke="rgba(120,120,120,0.8862745098039215)" d="M47 33h1" />
<path stroke="rgba(123,123,123,0.23529411764705882)" d="M48 33h1" />
<path stroke="rgba(118,118,118,0.6705882352941176)" d="M16 34h1" />
<path stroke="#767676" d="M17 34h30" />
<path stroke="rgba(118,118,118,0.8509803921568627)" d="M47 34h1" />
<path stroke="rgba(114,114,114,0.11372549019607843)" d="M48 34h1" />
<path stroke="rgba(118,118,118,0.15294117647058825)" d="M15 35h1" />
<path stroke="rgba(115,115,115,0.8745098039215686)" d="M16 35h1" />
<path stroke="#747474" d="M17 35h30" />
<path stroke="rgba(116,116,116,0.9607843137254902)" d="M47 35h1" />
<path stroke="rgba(115,115,115,0.3215686274509804)" d="M48 35h1" />
<path stroke="rgba(115,115,115,0.40784313725490196)" d="M15 36h1" />
<path stroke="rgba(115,115,115,0.9803921568627451)" d="M16 36h1" />
<path stroke="#737373" d="M17 36h31" />
<path stroke="rgba(115,115,115,0.6078431372549019)" d="M48 36h1" />
<path stroke="rgba(102,102,102,0.0196078431372549)" d="M49 36h1M12 40h1M10 42h1M27 46h1" />
<path stroke="rgba(115,115,115,0.0784313725490196)" d="M14 37h1" />
<path stroke="rgba(112,112,112,0.7490196078431373)" d="M15 37h1" />
<path stroke="#707070" d="M16 37h5M23 37h18M44 37h4" />
<path stroke="rgba(114,114,114,0.9176470588235294)" d="M21 37h1" />
<path stroke="rgba(112,112,112,0.9490196078431372)" d="M22 37h1" />
<path stroke="rgba(112,112,112,0.9764705882352941)" d="M41 37h1" />
<path stroke="rgba(114,114,114,0.9058823529411765)" d="M42 37h1" />
<path stroke="rgba(112,112,112,0.9882352941176471)" d="M43 37h1" />
<path stroke="rgba(112,112,112,0.8784313725490196)" d="M48 37h1" />
<path stroke="rgba(110,110,110,0.2)" d="M49 37h1" />
<path stroke="rgba(110,110,110,0.35294117647058826)" d="M14 38h1" />
<path stroke="rgba(110,110,110,0.9647058823529412)" d="M15 38h1M20 38h1" />
<path stroke="#6e6e6e" d="M16 38h4M23 38h18M44 38h5" />
<path stroke="rgba(110,110,110,0.4)" d="M21 38h1" />
<path stroke="rgba(110,110,110,0.6392156862745098)" d="M22 38h1" />
<path stroke="rgba(110,110,110,0.807843137254902)" d="M41 38h1" />
<path stroke="rgba(110,110,110,0.3176470588235294)" d="M42 38h1" />
<path stroke="rgba(110,110,110,0.8823529411764706)" d="M43 38h1" />
<path stroke="rgba(110,110,110,0.5529411764705883)" d="M49 38h1" />
<path stroke="rgba(85,85,85,0.011764705882352941)" d="M50 38h1M11 41h1M28 46h1" />
<path stroke="rgba(109,109,109,0.10980392156862745)" d="M13 39h1" />
<path stroke="rgba(107,107,107,0.7686274509803922)" d="M14 39h1" />
<path stroke="#6b6b6b" d="M15 39h5M23 39h4M30 39h4M37 39h4M44 39h5" />
<path stroke="rgba(109,109,109,0.792156862745098)" d="M20 39h1" />
<path stroke="rgba(106,106,106,0.1411764705882353)" d="M21 39h1" />
<path stroke="rgba(107,107,107,0.6901960784313725)" d="M22 39h1" />
<path stroke="rgba(107,107,107,0.996078431372549)" d="M27 39h1M34 39h1" />
<path stroke="rgba(107,107,107,0.9568627450980393)" d="M28 39h1" />
<path stroke="rgba(107,107,107,0.9882352941176471)" d="M29 39h1" />
<path stroke="rgba(107,107,107,0.9529411764705882)" d="M35 39h1" />
<path stroke="rgba(107,107,107,0.9921568627450981)" d="M36 39h1" />
<path stroke="rgba(107,107,107,0.8784313725490196)" d="M41 39h1" />
<path stroke="rgba(109,109,109,0.16470588235294117)" d="M42 39h1" />
<path stroke="rgba(108,108,108,0.6)" d="M43 39h1" />
<path stroke="rgba(107,107,107,0.8901960784313725)" d="M49 39h1" />
<path stroke="rgba(108,108,108,0.23137254901960785)" d="M50 39h1" />
<path stroke="rgba(105,105,105,0.5254901960784314)" d="M13 40h1" />
<path stroke="rgba(105,105,105,0.9921568627450981)" d="M14 40h1" />
<path stroke="#696969" d="M15 40h4M23 40h4M30 40h4M37 40h4M45 40h5" />
<path stroke="rgba(105,105,105,0.984313725490196)" d="M19 40h1" />
<path stroke="rgba(104,104,104,0.4235294117647059)" d="M20 40h1" />
<path stroke="rgba(104,104,104,0.10588235294117647)" d="M21 40h1" />
<path stroke="rgba(105,105,105,0.8549019607843137)" d="M22 40h1" />
<path stroke="rgba(105,105,105,0.9411764705882353)" d="M27 40h1" />
<path stroke="rgba(105,105,105,0.4666666666666667)" d="M28 40h1" />
<path stroke="rgba(105,105,105,0.8352941176470589)" d="M29 40h1" />
<path stroke="rgba(105,105,105,0.9450980392156862)" d="M34 40h1" />
<path stroke="rgba(105,105,105,0.47843137254901963)" d="M35 40h1" />
<path stroke="rgba(105,105,105,0.8666666666666667)" d="M36 40h1" />
<path stroke="rgba(105,105,105,0.9529411764705882)" d="M41 40h1" />
<path stroke="rgba(105,105,105,0.28627450980392155)" d="M42 40h1" />
<path stroke="rgba(104,104,104,0.25098039215686274)" d="M43 40h1" />
<path stroke="rgba(105,105,105,0.9333333333333333)" d="M44 40h1" />
<path stroke="rgba(104,104,104,0.6901960784313725)" d="M50 40h1" />
<path stroke="rgba(109,109,109,0.08235294117647059)" d="M51 40h1" />
<path stroke="rgba(101,101,101,0.3843137254901961)" d="M12 41h1" />
<path stroke="rgba(102,102,102,0.9372549019607843)" d="M13 41h1" />
<path stroke="#666666" d="M14 41h5M23 41h4M30 41h4M37 41h5M45 41h5" />
<path stroke="rgba(103,103,103,0.8)" d="M19 41h1" />
<path stroke="rgba(106,106,106,0.09411764705882353)" d="M20 41h1" />
<path stroke="rgba(101,101,101,0.26666666666666666)" d="M21 41h1" />
<path stroke="rgba(102,102,102,0.9450980392156862)" d="M22 41h1" />
<path stroke="rgba(102,102,102,0.8745098039215686)" d="M27 41h1" />
<path stroke="rgba(101,101,101,0.20784313725490197)" d="M28 41h1M44 42h1" />
<path stroke="rgba(102,102,102,0.7725490196078432)" d="M29 41h1" />
<path stroke="rgba(102,102,102,0.9333333333333333)" d="M34 41h1" />
<path stroke="rgba(101,101,101,0.2980392156862745)" d="M35 41h1" />
<path stroke="rgba(102,102,102,0.6862745098039216)" d="M36 41h1" />
<path stroke="rgba(101,101,101,0.4549019607843137)" d="M42 41h1" />
<path stroke="rgba(85,85,85,0.023529411764705882)" d="M43 41h1M43 42h1M28 44h1M36 45h1M8 48h1M36 50h1" />
<path stroke="rgba(103,103,103,0.6392156862745098)" d="M44 41h1" />
<path stroke="rgba(102,102,102,0.984313725490196)" d="M50 41h1" />
<path stroke="rgba(103,103,103,0.5647058823529412)" d="M51 41h1" />
<path stroke="rgba(106,106,106,0.047058823529411764)" d="M52 41h1" />
<path stroke="rgba(100,100,100,0.3803921568627451)" d="M11 42h1" />
<path stroke="rgba(99,99,99,0.9098039215686274)" d="M12 42h1" />
<path stroke="#636363" d="M13 42h5M22 42h5M30 42h4M37 42h5M46 42h5" />
<path stroke="rgba(99,99,99,0.9686274509803922)" d="M18 42h1" />
<path stroke="rgba(98,98,98,0.38823529411764707)" d="M19 42h1" />
<path stroke="rgba(99,99,99,0.4745098039215686)" d="M21 42h1" />
<path stroke="rgba(99,99,99,0.7098039215686275)" d="M27 42h1" />
<path stroke="rgba(100,100,100,0.10980392156862745)" d="M28 42h1" />
<path stroke="rgba(98,98,98,0.7411764705882353)" d="M29 42h1" />
<path stroke="rgba(99,99,99,0.9450980392156862)" d="M34 42h1" />
<path stroke="rgba(101,101,101,0.2784313725490196)" d="M35 42h1" />
<path stroke="rgba(98,98,98,0.5098039215686274)" d="M36 42h1M27 43h1" />
<path stroke="rgba(99,99,99,0.6588235294117647)" d="M42 42h1" />
<path stroke="rgba(101,101,101,0.8784313725490196)" d="M45 42h1" />
<path stroke="rgba(100,100,100,0.9647058823529412)" d="M51 42h1" />
<path stroke="rgba(98,98,98,0.5294117647058824)" d="M52 42h1" />
<path stroke="rgba(102,102,102,0.058823529411764705)" d="M53 42h1" />
<path stroke="rgba(89,89,89,0.0784313725490196)" d="M9 43h1" />
<path stroke="rgba(96,96,96,0.5019607843137255)" d="M10 43h1" />
<path stroke="rgba(96,96,96,0.9254901960784314)" d="M11 43h1" />
<path stroke="#606060" d="M12 43h6M22 43h5M30 43h4M38 43h4M47 43h5" />
<path stroke="rgba(98,98,98,0.6745098039215687)" d="M18 43h1" />
<path stroke="rgba(91,91,91,0.054901960784313725)" d="M19 43h1" />
<path stroke="rgba(85,85,85,0.03529411764705882)" d="M20 43h1M19 46h1M50 49h1" />
<path stroke="rgba(96,96,96,0.6784313725490196)" d="M21 43h1" />
<path stroke="rgba(93,93,93,0.043137254901960784)" d="M28 43h1" />
<path stroke="rgba(98,98,98,0.7058823529411765)" d="M29 43h1" />
<path stroke="rgba(96,96,96,0.9607843137254902)" d="M34 43h1" />
<path stroke="rgba(96,96,96,0.30196078431372547)" d="M35 43h1" />
<path stroke="rgba(97,97,97,0.30980392156862746)" d="M36 43h1" />
<path stroke="rgba(98,98,98,0.9607843137254902)" d="M37 43h1" />
<path stroke="rgba(95,95,95,0.8588235294117647)" d="M42 43h1" />
<path stroke="rgba(93,93,93,0.12941176470588237)" d="M43 43h1" />
<path stroke="rgba(0,0,0,0.00392156862745098)" d="M44 43h1M16 47h1M36 49h1M38 51h1" />
<path stroke="rgba(97,97,97,0.49411764705882355)" d="M45 43h1" />
<path stroke="rgba(95,95,95,0.984313725490196)" d="M46 43h1" />
<path stroke="rgba(96,96,96,0.9725490196078431)" d="M52 43h1" />
<path stroke="rgba(96,96,96,0.6352941176470588)" d="M53 43h1" />
<path stroke="rgba(93,93,93,0.1607843137254902)" d="M54 43h1" />
<path stroke="rgba(85,85,85,0.058823529411764705)" d="M8 44h1" />
<path stroke="rgba(93,93,93,0.6313725490196078)" d="M9 44h1" />
<path stroke="rgba(93,93,93,0.9803921568627451)" d="M10 44h1" />
<path stroke="#5d5d5d" d="M11 44h6M22 44h4M30 44h4M38 44h4M47 44h7" />
<path stroke="rgba(93,93,93,0.8392156862745098)" d="M17 44h1" />
<path stroke="rgba(94,94,94,0.19215686274509805)" d="M18 44h1" />
<path stroke="rgba(94,94,94,0.14901960784313725)" d="M20 44h1M55 44h1" />
<path stroke="rgba(93,93,93,0.8784313725490196)" d="M21 44h1" />
<path stroke="rgba(93,93,93,0.9568627450980393)" d="M26 44h1" />
<path stroke="rgba(92,92,92,0.3058823529411765)" d="M27 44h1" />
<path stroke="rgba(92,92,92,0.6705882352941176)" d="M29 44h1" />
<path stroke="rgba(93,93,93,0.9725490196078431)" d="M34 44h1" />
<path stroke="rgba(93,93,93,0.34509803921568627)" d="M35 44h1" />
<path stroke="rgba(94,94,94,0.11764705882352941)" d="M36 44h1M27 45h1" />
<path stroke="rgba(93,93,93,0.8705882352941177)" d="M37 44h1" />
<path stroke="rgba(93,93,93,0.9607843137254902)" d="M42 44h1" />
<path stroke="rgba(94,94,94,0.3176470588235294)" d="M43 44h1" />
<path stroke="rgba(97,97,97,0.08235294117647059)" d="M45 44h1" />
<path stroke="rgba(93,93,93,0.6862745098039216)" d="M46 44h1" />
<path stroke="rgba(94,94,94,0.7803921568627451)" d="M54 44h1" />
<path stroke="rgba(88,88,88,0.29411764705882354)" d="M8 45h1" />
<path stroke="rgba(90,90,90,0.9490196078431372)" d="M9 45h1" />
<path stroke="#5a5a5a" d="M10 45h6M22 45h4M30 45h4M38 45h5M48 45h7" />
<path stroke="rgba(92,92,92,0.8901960784313725)" d="M16 45h1" />
<path stroke="rgba(94,94,94,0.30980392156862746)" d="M17 45h1" />
<path stroke="rgba(90,90,90,0.38823529411764707)" d="M20 45h1M35 45h1" />
<path stroke="rgba(90,90,90,0.9803921568627451)" d="M21 45h1" />
<path stroke="rgba(92,92,92,0.8470588235294118)" d="M26 45h1" />
<path stroke="rgba(64,64,64,0.01568627450980392)" d="M28 45h1M44 45h1M26 49h1M23 55h1" />
<path stroke="rgba(90,90,90,0.6352941176470588)" d="M29 45h1" />
<path stroke="rgba(90,90,90,0.984313725490196)" d="M34 45h1" />
<path stroke="rgba(92,92,92,0.6745098039215687)" d="M37 45h1" />
<path stroke="rgba(90,90,90,0.592156862745098)" d="M43 45h1" />
<path stroke="rgba(93,93,93,0.17254901960784313)" d="M46 45h1" />
<path stroke="rgba(92,92,92,0.792156862745098)" d="M47 45h1" />
<path stroke="rgba(90,90,90,0.47843137254901963)" d="M55 45h1" />
<path stroke="rgba(87,87,87,0.403921568627451)" d="M8 46h1" />
<path stroke="rgba(87,87,87,0.9882352941176471)" d="M9 46h1" />
<path stroke="#575757" d="M10 46h5M21 46h5M30 46h4M39 46h4M49 46h6" />
<path stroke="rgba(87,87,87,0.8980392156862745)" d="M15 46h1" />
<path stroke="rgba(88,88,88,0.35294117647058826)" d="M16 46h1" />
<path stroke="rgba(88,88,88,0.6627450980392157)" d="M20 46h1" />
<path stroke="rgba(89,89,89,0.6196078431372549)" d="M26 46h1" />
<path stroke="rgba(88,88,88,0.6)" d="M29 46h1" />
<path stroke="rgba(87,87,87,0.996078431372549)" d="M34 46h1" />
<path stroke="rgba(87,87,87,0.43529411764705883)" d="M35 46h1" />
<path stroke="rgba(88,88,88,0.43137254901960786)" d="M37 46h1" />
<path stroke="rgba(87,87,87,0.9921568627450981)" d="M38 46h1" />
<path stroke="rgba(87,87,87,0.8352941176470589)" d="M43 46h1" />
<path stroke="rgba(88,88,88,0.11372549019607843)" d="M44 46h1" />
<path stroke="rgba(89,89,89,0.2235294117647059)" d="M47 46h1" />
<path stroke="rgba(87,87,87,0.803921568627451)" d="M48 46h1" />
<path stroke="rgba(86,86,86,0.5803921568627451)" d="M55 46h1" />
<path stroke="rgba(85,85,85,0.2235294117647059)" d="M8 47h1" />
<path stroke="rgba(85,85,85,0.9137254901960784)" d="M9 47h1" />
<path stroke="#555555" d="M10 47h4M21 47h4M30 47h5M39 47h4M51 47h3" />
<path stroke="rgba(85,85,85,0.8470588235294118)" d="M14 47h1" />
<path stroke="rgba(87,87,87,0.3215686274509804)" d="M15 47h1" />
<path stroke="rgba(83,83,83,0.20392156862745098)" d="M19 47h1M14 48h1" />
<path stroke="rgba(85,85,85,0.9019607843137255)" d="M20 47h1" />
<path stroke="rgba(85,85,85,0.9764705882352941)" d="M25 47h1M43 47h1" />
<path stroke="rgba(84,84,84,0.3803921568627451)" d="M26 47h1" />
<path stroke="rgba(86,86,86,0.5607843137254902)" d="M29 47h1" />
<path stroke="rgba(85,85,85,0.47058823529411764)" d="M35 47h1" />
<path stroke="rgba(87,87,87,0.19607843137254902)" d="M37 47h1M48 47h1" />
<path stroke="rgba(85,85,85,0.9058823529411765)" d="M38 47h1" />
<path stroke="rgba(85,85,85,0.3764705882352941)" d="M44 47h1" />
<path stroke="rgba(85,85,85,0.7372549019607844)" d="M49 47h1" />
<path stroke="rgba(85,85,85,0.9882352941176471)" d="M50 47h1" />
<path stroke="rgba(85,85,85,0.984313725490196)" d="M54 47h1" />
<path stroke="rgba(85,85,85,0.4117647058823529)" d="M55 47h1" />
<path stroke="rgba(83,83,83,0.4823529411764706)" d="M9 48h1" />
<path stroke="rgba(82,82,82,0.9176470588235294)" d="M10 48h1" />
<path stroke="rgba(82,82,82,0.984313725490196)" d="M11 48h1M52 48h1" />
<path stroke="rgba(82,82,82,0.9490196078431372)" d="M12 48h1" />
<path stroke="rgba(82,82,82,0.6823529411764706)" d="M13 48h1" />
<path stroke="rgba(82,82,82,0.5098039215686274)" d="M19 48h1" />
<path stroke="#525252" d="M20 48h5M30 48h5M39 48h5" />
<path stroke="rgba(82,82,82,0.8509803921568627)" d="M25 48h1" />
<path stroke="rgba(83,83,83,0.13333333333333333)" d="M26 48h1" />
<path stroke="rgba(82,82,82,0.5254901960784314)" d="M29 48h1" />
<path stroke="rgba(82,82,82,0.5137254901960784)" d="M35 48h1" />
<path stroke="rgba(77,77,77,0.0392156862745098)" d="M37 48h1" />
<path stroke="rgba(83,83,83,0.6784313725490196)" d="M38 48h1" />
<path stroke="rgba(82,82,82,0.6980392156862745)" d="M44 48h1" />
<path stroke="rgba(78,78,78,0.050980392156862744)" d="M45 48h1M25 51h1" />
<path stroke="rgba(82,82,82,0.10980392156862745)" d="M49 48h1" />
<path stroke="rgba(83,83,83,0.5568627450980392)" d="M50 48h1" />
<path stroke="rgba(82,82,82,0.9254901960784314)" d="M51 48h1" />
<path stroke="rgba(82,82,82,0.9529411764705882)" d="M53 48h1" />
<path stroke="rgba(81,81,81,0.6392156862745098)" d="M54 48h1" />
<path stroke="rgba(81,81,81,0.07450980392156863)" d="M55 48h1" />
<path stroke="rgba(96,96,96,0.03137254901960784)" d="M9 49h1" />
<path stroke="rgba(82,82,82,0.23137254901960785)" d="M10 49h1" />
<path stroke="rgba(80,80,80,0.38823529411764707)" d="M11 49h1" />
<path stroke="rgba(81,81,81,0.2980392156862745)" d="M12 49h1" />
<path stroke="rgba(80,80,80,0.06274509803921569)" d="M13 49h1" />
<path stroke="rgba(78,78,78,0.1411764705882353)" d="M18 49h1" />
<path stroke="rgba(78,78,78,0.8313725490196079)" d="M19 49h1" />
<path stroke="#4e4e4e" d="M20 49h5M30 49h5M40 49h4" />
<path stroke="rgba(79,79,79,0.5843137254901961)" d="M25 49h1" />
<path stroke="rgba(78,78,78,0.49019607843137253)" d="M29 49h1" />
<path stroke="rgba(79,79,79,0.5725490196078431)" d="M35 49h1" />
<path stroke="rgba(77,77,77,0.3764705882352941)" d="M38 49h1" />
<path stroke="rgba(78,78,78,0.9764705882352941)" d="M39 49h1" />
<path stroke="rgba(78,78,78,0.9411764705882353)" d="M44 49h1" />
<path stroke="rgba(78,78,78,0.29411764705882354)" d="M45 49h1" />
<path stroke="rgba(81,81,81,0.24705882352941178)" d="M51 49h1" />
<path stroke="rgba(79,79,79,0.39215686274509803)" d="M52 49h1" />
<path stroke="rgba(82,82,82,0.29411764705882354)" d="M53 49h1" />
<path stroke="rgba(75,75,75,0.06666666666666667)" d="M54 49h1" />
<path stroke="rgba(75,75,75,0.49411764705882355)" d="M18 50h1" />
<path stroke="rgba(74,74,74,0.9921568627450981)" d="M19 50h1" />
<path stroke="#4a4a4a" d="M20 50h4M31 50h4M40 50h5" />
<path stroke="rgba(74,74,74,0.9372549019607843)" d="M24 50h1" />
<path stroke="rgba(74,74,74,0.27058823529411763)" d="M25 50h1" />
<path stroke="rgba(75,75,75,0.42745098039215684)" d="M29 50h1" />
<path stroke="rgba(74,74,74,0.996078431372549)" d="M30 50h1" />
<path stroke="rgba(74,74,74,0.6352941176470588)" d="M35 50h1" />
<path stroke="rgba(77,77,77,0.11764705882352941)" d="M38 50h1" />
<path stroke="rgba(74,74,74,0.8196078431372549)" d="M39 50h1" />
<path stroke="rgba(74,74,74,0.6862745098039216)" d="M45 50h1" />
<path stroke="rgba(73,73,73,0.054901960784313725)" d="M46 50h1M24 53h1" />
<path stroke="rgba(71,71,71,0.21176470588235294)" d="M17 51h1" />
<path stroke="rgba(70,70,70,0.8705882352941177)" d="M18 51h1" />
<path stroke="#464646" d="M19 51h5M31 51h4M40 51h5" />
<path stroke="rgba(70,70,70,0.6980392156862745)" d="M24 51h1" />
<path stroke="rgba(71,71,71,0.3803921568627451)" d="M29 51h1" />
<path stroke="rgba(70,70,70,0.9803921568627451)" d="M30 51h1" />
<path stroke="rgba(71,71,71,0.6941176470588235)" d="M35 51h1" />
<path stroke="rgba(70,70,70,0.043137254901960784)" d="M36 51h1" />
<path stroke="rgba(70,70,70,0.5137254901960784)" d="M39 51h1" />
<path stroke="rgba(70,70,70,0.9607843137254902)" d="M45 51h1" />
<path stroke="rgba(69,69,69,0.3764705882352941)" d="M46 51h1" />
<path stroke="rgba(68,68,68,0.058823529411764705)" d="M16 52h1" />
<path stroke="rgba(66,66,66,0.6784313725490196)" d="M17 52h1" />
<path stroke="#424242" d="M18 52h5M31 52h4M41 52h5" />
<path stroke="rgba(66,66,66,0.9568627450980393)" d="M23 52h1" />
<path stroke="rgba(67,67,67,0.32941176470588235)" d="M24 52h1" />
<path stroke="rgba(65,65,65,0.3215686274509804)" d="M29 52h1" />
<path stroke="rgba(66,66,66,0.9607843137254902)" d="M30 52h1" />
<path stroke="rgba(66,66,66,0.7607843137254902)" d="M35 52h1" />
<path stroke="rgba(60,60,60,0.06666666666666667)" d="M36 52h1" />
<path stroke="rgba(64,64,64,0.17254901960784313)" d="M39 52h1" />
<path stroke="rgba(66,66,66,0.8627450980392157)" d="M40 52h1" />
<path stroke="rgba(66,66,66,0.8274509803921568)" d="M46 52h1" />
<path stroke="rgba(64,64,64,0.1568627450980392)" d="M47 52h1" />
<path stroke="rgba(61,61,61,0.29411764705882354)" d="M16 53h1" />
<path stroke="rgba(61,61,61,0.9490196078431372)" d="M17 53h1" />
<path stroke="#3d3d3d" d="M18 53h5M31 53h4M42 53h5" />
<path stroke="rgba(64,64,64,0.6862745098039216)" d="M23 53h1" />
<path stroke="rgba(63,63,63,0.2549019607843137)" d="M29 53h1" />
<path stroke="rgba(61,61,61,0.9372549019607843)" d="M30 53h1" />
<path stroke="rgba(61,61,61,0.8196078431372549)" d="M35 53h1" />
<path stroke="rgba(58,58,58,0.08627450980392157)" d="M36 53h1" />
<path stroke="rgba(64,64,64,0.4980392156862745)" d="M40 53h1" />
<path stroke="rgba(63,63,63,0.9921568627450981)" d="M41 53h1" />
<path stroke="rgba(61,61,61,0.47843137254901963)" d="M47 53h1" />
<path stroke="rgba(56,56,56,0.396078431372549)" d="M16 54h1" />
<path stroke="rgba(56,56,56,0.984313725490196)" d="M17 54h1" />
<path stroke="#383838" d="M18 54h4M31 54h4M42 54h5" />
<path stroke="rgba(59,59,59,0.9019607843137255)" d="M22 54h1" />
<path stroke="rgba(58,58,58,0.24313725490196078)" d="M23 54h1" />
<path stroke="rgba(57,57,57,0.17647058823529413)" d="M29 54h1" />
<path stroke="rgba(56,56,56,0.9137254901960784)" d="M30 54h1" />
<path stroke="rgba(56,56,56,0.8823529411764706)" d="M35 54h1" />
<path stroke="rgba(53,53,53,0.11372549019607843)" d="M36 54h1" />
<path stroke="rgba(62,62,62,0.12941176470588237)" d="M40 54h1" />
<path stroke="rgba(59,59,59,0.796078431372549)" d="M41 54h1" />
<path stroke="rgba(56,56,56,0.5843137254901961)" d="M47 54h1" />
<path stroke="rgba(0,0,0,0.00784313725490196)" d="M48 54h1" />
<path stroke="rgba(53,53,53,0.22745098039215686)" d="M16 55h1" />
<path stroke="rgba(53,53,53,0.9137254901960784)" d="M17 55h1" />
<path stroke="#323232" d="M18 55h1M20 55h1M31 55h4M43 55h1M45 55h1" />
<path stroke="#353535" d="M19 55h1M44 55h1" />
<path stroke="rgba(53,53,53,0.9882352941176471)" d="M21 55h1" />
<path stroke="rgba(54,54,54,0.5215686274509804)" d="M22 55h1" />
<path stroke="rgba(57,57,57,0.10588235294117647)" d="M29 55h1" />
<path stroke="rgba(50,50,50,0.8588235294117647)" d="M30 55h1" />
<path stroke="rgba(50,50,50,0.9137254901960784)" d="M35 55h1" />
<path stroke="rgba(51,51,51,0.17647058823529413)" d="M36 55h1" />
<path stroke="rgba(54,54,54,0.3176470588235294)" d="M41 55h1" />
<path stroke="rgba(53,53,53,0.9333333333333333)" d="M42 55h1" />
<path stroke="rgba(53,53,53,0.984313725490196)" d="M46 55h1" />
<path stroke="rgba(53,53,53,0.41568627450980394)" d="M47 55h1" />
<path stroke="rgba(43,43,43,0.023529411764705882)" d="M16 56h1" />
<path stroke="rgba(46,46,46,0.47843137254901963)" d="M17 56h1M42 56h1" />
<path stroke="rgba(46,46,46,0.9176470588235294)" d="M18 56h1" />
<path stroke="rgba(43,43,43,0.984313725490196)" d="M19 56h1" />
<path stroke="rgba(46,46,46,0.9529411764705882)" d="M20 56h1" />
<path stroke="rgba(46,46,46,0.6313725490196078)" d="M21 56h1" />
<path stroke="rgba(44,44,44,0.09019607843137255)" d="M22 56h1" />
<path stroke="rgba(36,36,36,0.054901960784313725)" d="M29 56h1" />
<path stroke="rgba(43,43,43,0.7254901960784313)" d="M30 56h1" />
<path stroke="#2b2b2b" d="M31 56h4" />
<path stroke="rgba(43,43,43,0.9176470588235294)" d="M35 56h1" />
<path stroke="rgba(43,43,43,0.18823529411764706)" d="M36 56h1" />
<path stroke="rgba(36,36,36,0.027450980392156862)" d="M41 56h1M31 59h1" />
<path stroke="rgba(46,46,46,0.9137254901960784)" d="M43 56h1" />
<path stroke="rgba(46,46,46,0.984313725490196)" d="M44 56h1" />
<path stroke="rgba(46,46,46,0.9568627450980393)" d="M45 56h1" />
<path stroke="rgba(46,46,46,0.6352941176470588)" d="M46 56h1" />
<path stroke="rgba(40,40,40,0.07450980392156863)" d="M47 56h1" />
<path stroke="rgba(32,32,32,0.03137254901960784)" d="M17 57h1M42 57h1" />
<path stroke="rgba(40,40,40,0.22745098039215686)" d="M18 57h1" />
<path stroke="rgba(38,38,38,0.39215686274509803)" d="M19 57h1" />
<path stroke="rgba(37,37,37,0.29411764705882354)" d="M20 57h1" />
<path stroke="rgba(34,34,34,0.058823529411764705)" d="M21 57h1" />
<path stroke="rgba(40,40,40,0.4549019607843137)" d="M30 57h1" />
<path stroke="rgba(39,39,39,0.984313725490196)" d="M31 57h1" />
<path stroke="#222222" d="M32 57h3" />
<path stroke="rgba(38,38,38,0.7294117647058823)" d="M35 57h1" />
<path stroke="rgba(43,43,43,0.07058823529411765)" d="M36 57h1" />
<path stroke="rgba(41,41,41,0.2196078431372549)" d="M43 57h1" />
<path stroke="rgba(39,39,39,0.3803921568627451)" d="M44 57h1" />
<path stroke="rgba(40,40,40,0.2980392156862745)" d="M45 57h1" />
<path stroke="rgba(32,32,32,0.06274509803921569)" d="M46 57h1" />
<path stroke="rgba(27,27,27,0.07450980392156863)" d="M30 58h1" />
<path stroke="rgba(27,27,27,0.5529411764705883)" d="M31 58h1" />
<path stroke="rgba(27,27,27,0.8745098039215686)" d="M32 58h1" />
<path stroke="rgba(28,28,28,0.8980392156862745)" d="M33 58h1" />
<path stroke="rgba(28,28,28,0.7137254901960784)" d="M34 58h1" />
<path stroke="rgba(29,29,29,0.20392156862745098)" d="M35 58h1" />
<path stroke="rgba(18,18,18,0.11372549019607843)" d="M32 59h1" />
<path stroke="rgba(23,23,23,0.12941176470588237)" d="M33 59h1" />
<path stroke="rgba(17,17,17,0.058823529411764705)" d="M34 59h1" />
</svg>