<svg xmlns="http://www.w3.org/2000/svg" viewBox="0 -0.5 64 64" shape-rendering="crispEdges">
<metadata>Made with Pixels to Svg https://codepen.io/shshaw/pen/XbxvNj</metadata>
<path stroke="rgba(128,128,128,0.00784313725490196)" d="M46 11h1M27 13h1M36 20h1M14 23h1M34 23h1M50 30h1M44 32h1M50 40h1M16 51h1" />
<path stroke="rgba(170,170,170,0.09411764705882353)" d="M47 11h1" />
<path stroke="rgba(166,166,166,0.23529411764705882)" d="M48 11h1" />
<path stroke="rgba(166,166,166,0.33725490196078434)" d="M49 11h1" />
<path stroke="rgba(166,166,166,0.34901960784313724)" d="M50 11h1" />
<path stroke="rgba(166,166,166,0.27058823529411763)" d="M51 11h1" />
<path stroke="rgba(170,170,170,0.11764705882352941)" d="M52 11h1" />
<path stroke="rgba(191,191,191,0.01568627450980392)" d="M53 11h1M24 12h1M21 13h1" />
<path stroke="rgba(255,255,255,0.00392156862745098)" d="M22 12h1M44 12h1M47 31h1" />
<path stroke="rgba(170,170,170,0.03529411764705882)" d="M23 12h1" />
<path stroke="rgba(162,162,162,0.1607843137254902)" d="M45 12h1" />
<path stroke="rgba(164,164,164,0.5058823529411764)" d="M46 12h1" />
<path stroke="rgba(165,165,165,0.8117647058823529)" d="M47 12h1" />
<path stroke="rgba(165,165,165,0.9372549019607843)" d="M48 12h1" />
<path stroke="rgba(165,165,165,0.9647058823529412)" d="M49 12h1" />
<path stroke="rgba(165,165,165,0.9686274509803922)" d="M50 12h1" />
<path stroke="rgba(165,165,165,0.9490196078431372)" d="M51 12h1" />
<path stroke="rgba(165,165,165,0.8431372549019608)" d="M52 12h1" />
<path stroke="rgba(165,165,165,0.5098039215686274)" d="M53 12h1" />
<path stroke="rgba(164,164,164,0.10980392156862745)" d="M54 12h1" />
<path stroke="rgba(164,164,164,0.37254901960784315)" d="M22 13h1" />
<path stroke="rgba(164,164,164,0.6784313725490196)" d="M23 13h1" />
<path stroke="rgba(164,164,164,0.592156862745098)" d="M24 13h1" />
<path stroke="rgba(163,163,163,0.3686274509803922)" d="M25 13h1" />
<path stroke="rgba(159,159,159,0.12549019607843137)" d="M26 13h1" />
<path stroke="rgba(170,170,170,0.058823529411764705)" d="M43 13h1" />
<path stroke="rgba(163,163,163,0.4235294117647059)" d="M44 13h1" />
<path stroke="rgba(165,165,165,0.8509803921568627)" d="M45 13h1" />
<path stroke="rgba(164,164,164,0.996078431372549)" d="M46 13h1" />
<path stroke="#a4a4a4" d="M47 13h6" />
<path stroke="rgba(164,164,164,0.9921568627450981)" d="M53 13h1" />
<path stroke="rgba(164,164,164,0.7372549019607844)" d="M54 13h1" />
<path stroke="rgba(165,165,165,0.18823529411764706)" d="M55 13h1" />
<path stroke="rgba(166,166,166,0.0784313725490196)" d="M21 14h1" />
<path stroke="rgba(163,163,163,0.8)" d="M22 14h1" />
<path stroke="#a2a2a2" d="M23 14h2M45 14h10M20 35h1" />
<path stroke="rgba(162,162,162,0.9764705882352941)" d="M25 14h1" />
<path stroke="rgba(161,161,161,0.8313725490196079)" d="M26 14h1" />
<path stroke="rgba(161,161,161,0.4470588235294118)" d="M27 14h1" />
<path stroke="rgba(159,159,159,0.06274509803921569)" d="M28 14h1M21 15h1M59 19h1" />
<path stroke="rgba(162,162,162,0.12941176470588237)" d="M42 14h1" />
<path stroke="rgba(160,160,160,0.6235294117647059)" d="M43 14h1" />
<path stroke="rgba(162,162,162,0.9686274509803922)" d="M44 14h1" />
<path stroke="rgba(162,162,162,0.7725490196078432)" d="M55 14h1" />
<path stroke="rgba(160,160,160,0.16862745098039217)" d="M56 14h1" />
<path stroke="rgba(159,159,159,0.7529411764705882)" d="M22 15h1" />
<path stroke="#a0a0a0" d="M23 15h4M44 15h12" />
<path stroke="rgba(160,160,160,0.9725490196078431)" d="M27 15h1" />
<path stroke="rgba(159,159,159,0.6274509803921569)" d="M28 15h1" />
<path stroke="rgba(155,155,155,0.09019607843137255)" d="M29 15h1" />
<path stroke="rgba(159,159,159,0.17647058823529413)" d="M41 15h1" />
<path stroke="rgba(160,160,160,0.7333333333333333)" d="M42 15h1" />
<path stroke="rgba(160,160,160,0.996078431372549)" d="M43 15h1" />
<path stroke="rgba(159,159,159,0.6588235294117647)" d="M56 15h1" />
<path stroke="rgba(153,153,153,0.058823529411764705)" d="M57 15h1" />
<path stroke="rgba(158,158,158,0.5254901960784314)" d="M22 16h1" />
<path stroke="#9e9e9e" d="M23 16h5M42 16h14M23 29h1" />
<path stroke="rgba(158,158,158,0.9882352941176471)" d="M28 16h1" />
<path stroke="rgba(158,158,158,0.5568627450980392)" d="M29 16h1" />
<path stroke="rgba(146,146,146,0.027450980392156862)" d="M30 16h1M22 18h1M21 23h1M27 26h1" />
<path stroke="rgba(157,157,157,0.1843137254901961)" d="M40 16h1" />
<path stroke="rgba(157,157,157,0.7686274509803922)" d="M41 16h1" />
<path stroke="rgba(158,158,158,0.9725490196078431)" d="M56 16h1" />
<path stroke="rgba(158,158,158,0.43137254901960786)" d="M57 16h1" />
<path stroke="rgba(157,157,157,0.23529411764705882)" d="M22 17h1" />
<path stroke="rgba(156,156,156,0.9215686274509803)" d="M23 17h1" />
<path stroke="#9c9c9c" d="M24 17h5M41 17h16" />
<path stroke="rgba(156,156,156,0.9333333333333333)" d="M29 17h1" />
<path stroke="rgba(155,155,155,0.27058823529411763)" d="M30 17h1" />
<path stroke="rgba(155,155,155,0.1607843137254902)" d="M39 17h1" />
<path stroke="rgba(156,156,156,0.7647058823529411)" d="M40 17h1" />
<path stroke="rgba(155,155,155,0.8235294117647058)" d="M57 17h1" />
<path stroke="rgba(156,156,156,0.1411764705882353)" d="M58 17h1" />
<path stroke="rgba(155,155,155,0.6313725490196078)" d="M23 18h1" />
<path stroke="#9a9a9a" d="M24 18h6M40 18h17" />
<path stroke="rgba(155,155,155,0.6)" d="M30 18h1" />
<path stroke="rgba(128,128,128,0.01568627450980392)" d="M31 18h1M46 39h1" />
<path stroke="rgba(157,157,157,0.10196078431372549)" d="M38 18h1" />
<path stroke="rgba(154,154,154,0.7098039215686275)" d="M39 18h1" />
<path stroke="rgba(154,154,154,0.9882352941176471)" d="M57 18h1" />
<path stroke="rgba(153,153,153,0.45098039215686275)" d="M58 18h1" />
<path stroke="rgba(152,152,152,0.24313725490196078)" d="M23 19h1" />
<path stroke="rgba(153,153,153,0.9098039215686274)" d="M24 19h1" />
<path stroke="#999999" d="M25 19h5M40 19h18" />
<path stroke="rgba(153,153,153,0.8431372549019608)" d="M30 19h1" />
<path stroke="rgba(155,155,155,0.10980392156862745)" d="M31 19h1" />
<path stroke="rgba(162,162,162,0.043137254901960784)" d="M37 19h1" />
<path stroke="rgba(152,152,152,0.5803921568627451)" d="M38 19h1" />
<path stroke="rgba(153,153,153,0.9921568627450981)" d="M39 19h1" />
<path stroke="rgba(153,153,153,0.7450980392156863)" d="M58 19h1" />
<path stroke="rgba(153,153,153,0.0196078431372549)" d="M23 20h1M10 26h1M56 27h1" />
<path stroke="rgba(150,150,150,0.5529411764705883)" d="M24 20h1" />
<path stroke="rgba(151,151,151,0.9921568627450981)" d="M25 20h1" />
<path stroke="#979797" d="M26 20h4M39 20h19" />
<path stroke="rgba(151,151,151,0.9333333333333333)" d="M30 20h1" />
<path stroke="rgba(151,151,151,0.23137254901960785)" d="M31 20h1" />
<path stroke="rgba(152,152,152,0.43529411764705883)" d="M37 20h1" />
<path stroke="rgba(151,151,151,0.9607843137254902)" d="M38 20h1" />
<path stroke="rgba(151,151,151,0.9019607843137255)" d="M58 20h1" />
<path stroke="rgba(153,153,153,0.1568627450980392)" d="M59 20h1" />
<path stroke="rgba(153,153,153,0.13725490196078433)" d="M24 21h1" />
<path stroke="rgba(150,150,150,0.8156862745098039)" d="M25 21h1" />
<path stroke="#959595" d="M26 21h4M38 21h20" />
<path stroke="rgba(149,149,149,0.9686274509803922)" d="M30 21h1" />
<path stroke="rgba(149,149,149,0.3411764705882353)" d="M31 21h1" />
<path stroke="rgba(148,148,148,0.24313725490196078)" d="M36 21h1" />
<path stroke="rgba(149,149,149,0.8784313725490196)" d="M37 21h1" />
<path stroke="rgba(149,149,149,0.9215686274509803)" d="M58 21h1" />
<path stroke="rgba(150,150,150,0.2)" d="M59 21h1" />
<path stroke="rgba(146,146,146,0.3764705882352941)" d="M25 22h1" />
<path stroke="rgba(146,146,146,0.9607843137254902)" d="M26 22h1" />
<path stroke="#929292" d="M27 22h3M37 22h21M25 35h1M23 38h1" />
<path stroke="rgba(146,146,146,0.984313725490196)" d="M30 22h1" />
<path stroke="rgba(146,146,146,0.396078431372549)" d="M31 22h1" />
<path stroke="rgba(144,144,144,0.09019607843137255)" d="M35 22h1" />
<path stroke="rgba(145,145,145,0.7294117647058823)" d="M36 22h1" />
<path stroke="rgba(147,147,147,0.9019607843137255)" d="M58 22h1" />
<path stroke="rgba(144,144,144,0.15294117647058825)" d="M59 22h1" />
<path stroke="rgba(136,136,136,0.058823529411764705)" d="M15 23h1M46 31h1" />
<path stroke="rgba(146,146,146,0.13725490196078433)" d="M16 23h1" />
<path stroke="rgba(145,145,145,0.23529411764705882)" d="M17 23h1" />
<path stroke="rgba(146,146,146,0.27450980392156865)" d="M18 23h1" />
<path stroke="rgba(145,145,145,0.22745098039215686)" d="M19 23h1" />
<path stroke="rgba(141,141,141,0.11372549019607843)" d="M20 23h1" />
<path stroke="rgba(149,149,149,0.047058823529411764)" d="M25 23h1" />
<path stroke="rgba(145,145,145,0.6274509803921569)" d="M26 23h1" />
<path stroke="#919191" d="M27 23h3M37 23h21" />
<path stroke="rgba(145,145,145,0.9882352941176471)" d="M30 23h1" />
<path stroke="rgba(146,146,146,0.403921568627451)" d="M31 23h1" />
<path stroke="rgba(144,144,144,0.47843137254901963)" d="M35 23h1" />
<path stroke="rgba(145,145,145,0.984313725490196)" d="M36 23h1" />
<path stroke="rgba(146,146,146,0.7215686274509804)" d="M58 23h1" />
<path stroke="rgba(146,146,146,0.054901960784313725)" d="M59 23h1M57 26h1" />
<path stroke="rgba(170,170,170,0.011764705882352941)" d="M12 24h1M29 29h1M43 32h1" />
<path stroke="rgba(143,143,143,0.18823529411764706)" d="M13 24h1" />
<path stroke="rgba(142,142,142,0.5137254901960784)" d="M14 24h1" />
<path stroke="rgba(143,143,143,0.7490196078431373)" d="M15 24h1" />
<path stroke="rgba(143,143,143,0.8901960784313725)" d="M16 24h1" />
<path stroke="rgba(143,143,143,0.9333333333333333)" d="M17 24h1" />
<path stroke="rgba(143,143,143,0.9450980392156862)" d="M18 24h1" />
<path stroke="rgba(143,143,143,0.9294117647058824)" d="M19 24h1" />
<path stroke="rgba(143,143,143,0.8549019607843137)" d="M20 24h1" />
<path stroke="rgba(143,143,143,0.6274509803921569)" d="M21 24h1" />
<path stroke="rgba(143,143,143,0.28627450980392155)" d="M22 24h1" />
<path stroke="rgba(139,139,139,0.043137254901960784)" d="M23 24h1" />
<path stroke="rgba(142,142,142,0.16862745098039217)" d="M26 24h1" />
<path stroke="rgba(144,144,144,0.8274509803921568)" d="M27 24h1" />
<path stroke="#8f8f8f" d="M28 24h2M36 24h21" />
<path stroke="rgba(143,143,143,0.9803921568627451)" d="M30 24h1" />
<path stroke="rgba(142,142,142,0.3803921568627451)" d="M31 24h1" />
<path stroke="rgba(145,145,145,0.2)" d="M34 24h1" />
<path stroke="rgba(142,142,142,0.8705882352941177)" d="M35 24h1" />
<path stroke="rgba(143,143,143,0.9490196078431372)" d="M57 24h1" />
<path stroke="rgba(144,144,144,0.3411764705882353)" d="M58 24h1" />
<path stroke="rgba(137,137,137,0.050980392156862744)" d="M11 25h1M32 27h1" />
<path stroke="rgba(142,142,142,0.4588235294117647)" d="M12 25h1" />
<path stroke="rgba(141,141,141,0.8823529411764706)" d="M13 25h1" />
<path stroke="rgba(141,141,141,0.996078431372549)" d="M14 25h1" />
<path stroke="#8d8d8d" d="M15 25h7M29 25h1M35 25h21" />
<path stroke="rgba(141,141,141,0.9372549019607843)" d="M22 25h1M28 25h1" />
<path stroke="rgba(140,140,140,0.592156862745098)" d="M23 25h1" />
<path stroke="rgba(138,138,138,0.13725490196078433)" d="M24 25h1" />
<path stroke="rgba(141,141,141,0.3333333333333333)" d="M27 25h1" />
<path stroke="rgba(141,141,141,0.9607843137254902)" d="M30 25h1" />
<path stroke="rgba(142,142,142,0.3176470588235294)" d="M31 25h1" />
<path stroke="rgba(128,128,128,0.03137254901960784)" d="M33 25h1M7 31h1M4 34h1M38 34h1" />
<path stroke="rgba(141,141,141,0.6313725490196078)" d="M34 25h1" />
<path stroke="rgba(141,141,141,0.9686274509803922)" d="M56 25h1" />
<path stroke="rgba(142,142,142,0.5215686274509804)" d="M57 25h1" />
<path stroke="rgba(142,142,142,0.03529411764705882)" d="M58 25h1" />
<path stroke="rgba(139,139,139,0.49019607843137253)" d="M11 26h1" />
<path stroke="rgba(139,139,139,0.9686274509803922)" d="M12 26h1" />
<path stroke="#8b8b8b" d="M13 26h10M35 26h20" />
<path stroke="rgba(139,139,139,0.996078431372549)" d="M23 26h1M29 26h1" />
<path stroke="rgba(139,139,139,0.7725490196078432)" d="M24 26h1" />
<path stroke="rgba(136,136,136,0.22745098039215686)" d="M25 26h1" />
<path stroke="rgba(139,139,139,0.5529411764705883)" d="M28 26h1" />
<path stroke="rgba(139,139,139,0.9294117647058824)" d="M30 26h1" />
<path stroke="rgba(141,141,141,0.2196078431372549)" d="M31 26h1" />
<path stroke="rgba(137,137,137,0.3058823529411765)" d="M33 26h1" />
<path stroke="rgba(139,139,139,0.9411764705882353)" d="M34 26h1" />
<path stroke="rgba(139,139,139,0.9176470588235294)" d="M55 26h1" />
<path stroke="rgba(139,139,139,0.4745098039215686)" d="M56 26h1" />
<path stroke="rgba(136,136,136,0.30196078431372547)" d="M10 27h1" />
<path stroke="rgba(136,136,136,0.9254901960784314)" d="M11 27h1" />
<path stroke="#888888" d="M12 27h13M34 27h19" />
<path stroke="rgba(137,137,137,0.8274509803921568)" d="M25 27h1" />
<path stroke="rgba(135,135,135,0.25882352941176473)" d="M26 27h1" />
<path stroke="rgba(136,136,136,0.11764705882352941)" d="M28 27h1" />
<path stroke="rgba(138,138,138,0.7490196078431373)" d="M29 27h1" />
<path stroke="rgba(137,137,137,0.8705882352941177)" d="M30 27h1" />
<path stroke="rgba(137,137,137,0.10980392156862745)" d="M31 27h1" />
<path stroke="rgba(137,137,137,0.7098039215686275)" d="M33 27h1" />
<path stroke="rgba(137,137,137,0.9607843137254902)" d="M53 27h1" />
<path stroke="rgba(137,137,137,0.7058823529411765)" d="M54 27h1" />
<path stroke="rgba(140,140,140,0.28627450980392155)" d="M55 27h1" />
<path stroke="rgba(135,135,135,0.06666666666666667)" d="M9 28h1M31 29h1" />
<path stroke="rgba(134,134,134,0.7254901960784313)" d="M10 28h1" />
<path stroke="#868686" d="M11 28h8M22 28h1M24 28h2M34 28h16" />
<path stroke="#848484" d="M19 28h1M11 29h7M25 29h2M33 29h14M17 30h1M25 31h1" />
<path stroke="#8c8c8c" d="M20 28h1" />
<path stroke="#909090" d="M21 28h1" />
<path stroke="#838383" d="M23 28h1M24 29h1M16 33h1" />
<path stroke="rgba(134,134,134,0.8431372549019608)" d="M26 28h1" />
<path stroke="rgba(133,133,133,0.2549019607843137)" d="M27 28h1" />
<path stroke="rgba(134,134,134,0.23921568627450981)" d="M29 28h1" />
<path stroke="rgba(133,133,133,0.6)" d="M30 28h1" />
<path stroke="rgba(128,128,128,0.054901960784313725)" d="M31 28h1M52 29h1" />
<path stroke="rgba(134,134,134,0.3215686274509804)" d="M32 28h1" />
<path stroke="rgba(134,134,134,0.9529411764705882)" d="M33 28h1" />
<path stroke="rgba(134,134,134,0.996078431372549)" d="M50 28h1" />
<path stroke="rgba(134,134,134,0.9333333333333333)" d="M51 28h1" />
<path stroke="rgba(135,135,135,0.7058823529411765)" d="M52 28h1" />
<path stroke="rgba(136,136,136,0.35294117647058826)" d="M53 28h1" />
<path stroke="rgba(128,128,128,0.06274509803921569)" d="M54 28h1" />
<path stroke="rgba(131,131,131,0.38823529411764707)" d="M9 29h1" />
<path stroke="rgba(132,132,132,0.9725490196078431)" d="M10 29h1" />
<path stroke="#8a8a8a" d="M18 29h1" />
<path stroke="#b8b8b8" d="M19 29h1" />
<path stroke="#dddddd" d="M20 29h1M17 34h1" />
<path stroke="#e4e4e4" d="M21 29h1M21 31h1" />
<path stroke="#cfcfcf" d="M22 29h1" />
<path stroke="rgba(132,132,132,0.8156862745098039)" d="M27 29h1" />
<path stroke="rgba(132,132,132,0.2196078431372549)" d="M28 29h1" />
<path stroke="rgba(132,132,132,0.10588235294117647)" d="M30 29h1" />
<path stroke="rgba(132,132,132,0.6901960784313725)" d="M32 29h1" />
<path stroke="rgba(132,132,132,0.996078431372549)" d="M47 29h1" />
<path stroke="rgba(133,133,133,0.9490196078431372)" d="M48 29h1" />
<path stroke="rgba(133,133,133,0.792156862745098)" d="M49 29h1" />
<path stroke="rgba(132,132,132,0.5294117647058824)" d="M50 29h1" />
<path stroke="rgba(131,131,131,0.25882352941176473)" d="M51 29h1" />
<path stroke="rgba(128,128,128,0.13333333333333333)" d="M8 30h1" />
<path stroke="rgba(131,131,131,0.803921568627451)" d="M9 30h1" />
<path stroke="#828282" d="M10 30h6M26 30h2M33 30h11" />
<path stroke="#808080" d="M16 30h1M25 30h1M15 31h1M28 31h1M16 34h1M21 35h1" />
<path stroke="#c7c7c7" d="M18 30h1M18 37h1" />
<path stroke="#fafafa" d="M19 30h1M24 34h1M22 36h1" />
<path stroke="#ffffff" d="M20 30h3M19 31h1M23 31h1M18 32h1M23 32h1M18 33h1M18 34h1M18 35h1M23 35h1M19 36h1M23 36h1M20 37h3" />
<path stroke="#e8e8e8" d="M23 30h1" />
<path stroke="#9d9d9d" d="M24 30h1" />
<path stroke="rgba(130,130,130,0.8)" d="M28 30h1" />
<path stroke="rgba(127,127,127,0.20392156862745098)" d="M29 30h1" />
<path stroke="rgba(128,128,128,0.25882352941176473)" d="M31 30h1" />
<path stroke="rgba(130,130,130,0.9294117647058824)" d="M32 30h1" />
<path stroke="rgba(130,130,130,0.9803921568627451)" d="M44 30h1" />
<path stroke="rgba(130,130,130,0.9098039215686274)" d="M45 30h1" />
<path stroke="rgba(130,130,130,0.7490196078431373)" d="M46 30h1" />
<path stroke="rgba(130,130,130,0.5215686274509804)" d="M47 30h1" />
<path stroke="rgba(129,129,129,0.2784313725490196)" d="M48 30h1" />
<path stroke="rgba(127,127,127,0.08627450980392157)" d="M49 30h1" />
<path stroke="rgba(127,127,127,0.5607843137254902)" d="M8 31h1" />
<path stroke="rgba(127,127,127,0.9921568627450981)" d="M9 31h1" />
<path stroke="#7f7f7f" d="M10 31h5M26 31h2M32 31h8" />
<path stroke="#7d7d7d" d="M16 31h1M9 32h7M27 32h3M32 32h4" />
<path stroke="#a7a7a7" d="M17 31h1" />
<path stroke="#f6f6f6" d="M18 31h1M19 32h1" />
<path stroke="#f0f0f0" d="M20 31h1" />
<path stroke="#fbfbfb" d="M22 31h1M19 37h1" />
<path stroke="#d5d5d5" d="M24 31h1M22 35h1" />
<path stroke="rgba(127,127,127,0.788235294117647)" d="M29 31h1" />
<path stroke="rgba(128,128,128,0.22745098039215686)" d="M30 31h1" />
<path stroke="rgba(127,127,127,0.5568627450980392)" d="M31 31h1" />
<path stroke="rgba(128,128,128,0.9882352941176471)" d="M40 31h1" />
<path stroke="rgba(128,128,128,0.9294117647058824)" d="M41 31h1" />
<path stroke="rgba(128,128,128,0.803921568627451)" d="M42 31h1" />
<path stroke="rgba(128,128,128,0.6078431372549019)" d="M43 31h1" />
<path stroke="rgba(130,130,130,0.39215686274509803)" d="M44 31h1" />
<path stroke="rgba(128,128,128,0.18823529411764706)" d="M45 31h1" />
<path stroke="rgba(109,109,109,0.027450980392156862)" d="M6 32h1" />
<path stroke="rgba(124,124,124,0.43529411764705883)" d="M7 32h1" />
<path stroke="rgba(125,125,125,0.9529411764705882)" d="M8 32h1" />
<path stroke="#7c7c7c" d="M16 32h1M26 32h1" />
<path stroke="#cbcbcb" d="M17 32h1M17 35h1" />
<path stroke="#aaaaaa" d="M20 32h1M25 33h1" />
<path stroke="#878787" d="M21 32h1" />
<path stroke="#d7d7d7" d="M22 32h1" />
<path stroke="#f3f3f3" d="M24 32h1" />
<path stroke="#989898" d="M25 32h1" />
<path stroke="rgba(125,125,125,0.8549019607843137)" d="M30 32h1" />
<path stroke="rgba(125,125,125,0.8941176470588236)" d="M31 32h1" />
<path stroke="rgba(125,125,125,0.996078431372549)" d="M36 32h1" />
<path stroke="rgba(125,125,125,0.9450980392156862)" d="M37 32h1" />
<path stroke="rgba(125,125,125,0.8352941176470589)" d="M38 32h1" />
<path stroke="rgba(125,125,125,0.6313725490196078)" d="M39 32h1" />
<path stroke="rgba(124,124,124,0.42745098039215684)" d="M40 32h1" />
<path stroke="rgba(125,125,125,0.21568627450980393)" d="M41 32h1" />
<path stroke="rgba(128,128,128,0.07058823529411765)" d="M42 32h1" />
<path stroke="rgba(128,128,128,0.047058823529411764)" d="M45 32h1" />
<path stroke="rgba(122,122,122,0.09019607843137255)" d="M46 32h1M52 32h1" />
<path stroke="rgba(124,124,124,0.1607843137254902)" d="M47 32h1" />
<path stroke="rgba(123,123,123,0.23529411764705882)" d="M48 32h1" />
<path stroke="rgba(126,126,126,0.27058823529411763)" d="M49 32h1" />
<path stroke="rgba(124,124,124,0.26666666666666666)" d="M50 32h1M37 33h1" />
<path stroke="rgba(125,125,125,0.2)" d="M51 32h1" />
<path stroke="rgba(85,85,85,0.011764705882352941)" d="M53 32h1M49 40h1M15 49h1" />
<path stroke="rgba(119,119,119,0.058823529411764705)" d="M5 33h1" />
<path stroke="rgba(124,124,124,0.5019607843137255)" d="M6 33h1" />
<path stroke="rgba(123,123,123,0.9411764705882353)" d="M7 33h1M50 33h1" />
<path stroke="#7b7b7b" d="M8 33h8M27 33h7M21 39h1" />
<path stroke="#dedede" d="M17 33h1M21 36h1" />
<path stroke="#e3e3e3" d="M19 33h1" />
<path stroke="#858585" d="M20 33h1" />
<path stroke="#757575" d="M21 33h1M26 34h1M6 35h10M28 35h6M44 35h9" />
<path stroke="#b5b5b5" d="M22 33h1M22 34h1" />
<path stroke="#fcfcfc" d="M23 33h1" />
<path stroke="#f9f9f9" d="M24 33h1" />
<path stroke="#787878" d="M26 33h1M7 34h8M27 34h6M44 34h9M25 36h1" />
<path stroke="rgba(124,124,124,0.9137254901960784)" d="M34 33h1" />
<path stroke="rgba(124,124,124,0.7098039215686275)" d="M35 33h1" />
<path stroke="rgba(124,124,124,0.4823529411764706)" d="M36 33h1" />
<path stroke="rgba(127,127,127,0.10196078431372549)" d="M38 33h1" />
<path stroke="rgba(128,128,128,0.023529411764705882)" d="M39 33h2M43 37h1" />
<path stroke="rgba(120,120,120,0.1411764705882353)" d="M41 33h1" />
<path stroke="rgba(121,121,121,0.2901960784313726)" d="M42 33h1" />
<path stroke="rgba(124,124,124,0.44313725490196076)" d="M43 33h1" />
<path stroke="rgba(123,123,123,0.6)" d="M44 33h1" />
<path stroke="rgba(123,123,123,0.7372549019607844)" d="M45 33h1" />
<path stroke="rgba(123,123,123,0.8470588235294118)" d="M46 33h1" />
<path stroke="rgba(123,123,123,0.9098039215686274)" d="M47 33h1" />
<path stroke="rgba(123,123,123,0.9333333333333333)" d="M48 33h1" />
<path stroke="rgba(123,123,123,0.9450980392156862)" d="M49 33h1" />
<path stroke="rgba(123,123,123,0.9215686274509803)" d="M51 33h1" />
<path stroke="rgba(123,123,123,0.8274509803921568)" d="M52 33h1" />
<path stroke="rgba(122,122,122,0.4588235294117647)" d="M53 33h1" />
<path stroke="rgba(116,116,116,0.043137254901960784)" d="M54 33h1" />
<path stroke="rgba(118,118,118,0.5333333333333333)" d="M5 34h1" />
<path stroke="rgba(120,120,120,0.9725490196078431)" d="M6 34h1" />
<path stroke="#777777" d="M15 34h1" />
<path stroke="#e2e2e2" d="M19 34h1" />
<path stroke="#818181" d="M20 34h1" />
<path stroke="#737373" d="M21 34h1M5 36h11M27 36h12M45 36h8" />
<path stroke="#fdfdfd" d="M23 34h1" />
<path stroke="#a9a9a9" d="M25 34h1" />
<path stroke="rgba(120,120,120,0.9921568627450981)" d="M33 34h1" />
<path stroke="rgba(120,120,120,0.7686274509803922)" d="M34 34h1" />
<path stroke="rgba(119,119,119,0.47058823529411764)" d="M35 34h1" />
<path stroke="rgba(118,118,118,0.27058823529411763)" d="M36 34h1" />
<path stroke="rgba(119,119,119,0.11764705882352941)" d="M37 34h1M54 36h1" />
<path stroke="rgba(123,123,123,0.10588235294117647)" d="M40 34h1" />
<path stroke="rgba(119,119,119,0.6039215686274509)" d="M41 34h1" />
<path stroke="rgba(120,120,120,0.9450980392156862)" d="M42 34h1" />
<path stroke="rgba(120,120,120,0.996078431372549)" d="M43 34h1" />
<path stroke="rgba(119,119,119,0.9372549019607843)" d="M53 34h1" />
<path stroke="rgba(120,120,120,0.2823529411764706)" d="M54 34h1" />
<path stroke="rgba(117,117,117,0.2901960784313726)" d="M4 35h1" />
<path stroke="rgba(117,117,117,0.9372549019607843)" d="M5 35h1" />
<path stroke="#747474" d="M16 35h1M26 35h1" />
<path stroke="#f4f4f4" d="M19 35h1" />
<path stroke="#f2f2f2" d="M24 35h1" />
<path stroke="#767676" d="M27 35h1M34 35h1M17 37h1M18 38h1M20 39h1" />
<path stroke="rgba(117,117,117,0.984313725490196)" d="M35 35h1" />
<path stroke="rgba(117,117,117,0.9490196078431372)" d="M36 35h1" />
<path stroke="rgba(117,117,117,0.8627450980392157)" d="M37 35h1" />
<path stroke="rgba(117,117,117,0.6745098039215687)" d="M38 35h1" />
<path stroke="rgba(115,115,115,0.39215686274509803)" d="M39 35h1" />
<path stroke="rgba(118,118,118,0.10980392156862745)" d="M40 35h1" />
<path stroke="rgba(122,122,122,0.09803921568627451)" d="M41 35h1" />
<path stroke="rgba(119,119,119,0.5647058823529412)" d="M42 35h1" />
<path stroke="rgba(118,118,118,0.9568627450980393)" d="M43 35h1M53 35h1" />
<path stroke="rgba(119,119,119,0.30980392156862746)" d="M54 35h1" />
<path stroke="rgba(115,115,115,0.48627450980392156)" d="M4 36h1" />
<path stroke="#6e6e6e" d="M16 36h1M6 38h11M25 38h17M49 38h2" />
<path stroke="#a3a3a3" d="M17 36h1" />
<path stroke="#f7f7f7" d="M18 36h1" />
<path stroke="#ececec" d="M20 36h1" />
<path stroke="#d6d6d6" d="M24 36h1" />
<path stroke="#727272" d="M26 36h1M6 37h9M27 37h14M48 37h4" />
<path stroke="rgba(115,115,115,0.9803921568627451)" d="M39 36h1" />
<path stroke="rgba(115,115,115,0.8)" d="M40 36h1" />
<path stroke="rgba(114,114,114,0.3254901960784314)" d="M41 36h1" />
<path stroke="rgba(109,109,109,0.054901960784313725)" d="M42 36h1M53 38h1M52 39h1" />
<path stroke="rgba(117,117,117,0.4117647058823529)" d="M43 36h1" />
<path stroke="rgba(115,115,115,0.8862745098039215)" d="M44 36h1" />
<path stroke="rgba(115,115,115,0.8156862745098039)" d="M53 36h1" />
<path stroke="rgba(112,112,112,0.4823529411764706)" d="M4 37h1" />
<path stroke="#707070" d="M5 37h1M15 37h2M26 37h1M47 37h1" />
<path stroke="#e9e9e9" d="M23 37h1" />
<path stroke="#969696" d="M24 37h1" />
<path stroke="#6f6f6f" d="M25 37h1M22 39h1" />
<path stroke="rgba(112,112,112,0.9372549019607843)" d="M41 37h1" />
<path stroke="rgba(112,112,112,0.4470588235294118)" d="M42 37h1" />
<path stroke="rgba(113,113,113,0.26666666666666666)" d="M44 37h1" />
<path stroke="rgba(114,114,114,0.7686274509803922)" d="M45 37h1" />
<path stroke="rgba(114,114,114,0.9882352941176471)" d="M46 37h1" />
<path stroke="rgba(114,114,114,0.9686274509803922)" d="M52 37h1" />
<path stroke="rgba(115,115,115,0.42745098039215684)" d="M53 37h1" />
<path stroke="rgba(111,111,111,0.2784313725490196)" d="M4 38h1" />
<path stroke="rgba(111,111,111,0.9411764705882353)" d="M5 38h1" />
<path stroke="#6d6d6d" d="M17 38h1M24 38h1" />
<path stroke="#b6b6b6" d="M19 38h1" />
<path stroke="#dfdfdf" d="M20 38h1" />
<path stroke="#e5e5e5" d="M21 38h1" />
<path stroke="#cecece" d="M22 38h1" />
<path stroke="rgba(110,110,110,0.9333333333333333)" d="M42 38h1" />
<path stroke="rgba(111,111,111,0.3254901960784314)" d="M43 38h1" />
<path stroke="rgba(109,109,109,0.10980392156862745)" d="M45 38h1" />
<path stroke="rgba(111,111,111,0.5058823529411764)" d="M46 38h1" />
<path stroke="rgba(111,111,111,0.8745098039215686)" d="M47 38h1" />
<path stroke="rgba(110,110,110,0.984313725490196)" d="M48 38h1" />
<path stroke="rgba(110,110,110,0.9647058823529412)" d="M51 38h1" />
<path stroke="rgba(111,111,111,0.5607843137254902)" d="M52 38h1" />
<path stroke="rgba(106,106,106,0.047058823529411764)" d="M4 39h1" />
<path stroke="rgba(106,106,106,0.6392156862745098)" d="M5 39h1" />
<path stroke="#6a6a6a" d="M6 39h12M25 39h18" />
<path stroke="#696969" d="M18 39h2M23 39h1" />
<path stroke="#6b6b6b" d="M24 39h1" />
<path stroke="rgba(106,106,106,0.7333333333333333)" d="M43 39h1" />
<path stroke="rgba(105,105,105,0.06666666666666667)" d="M44 39h1" />
<path stroke="rgba(107,107,107,0.16862745098039217)" d="M47 39h1" />
<path stroke="rgba(106,106,106,0.44313725490196076)" d="M48 39h1" />
<path stroke="rgba(107,107,107,0.6)" d="M49 39h1" />
<path stroke="rgba(108,108,108,0.5764705882352941)" d="M50 39h1" />
<path stroke="rgba(110,110,110,0.34509803921568627)" d="M51 39h1" />
<path stroke="rgba(106,106,106,0.1411764705882353)" d="M5 40h1" />
<path stroke="rgba(103,103,103,0.7176470588235294)" d="M6 40h1" />
<path stroke="rgba(103,103,103,0.996078431372549)" d="M7 40h1" />
<path stroke="#676767" d="M8 40h12M22 40h21" />
<path stroke="#666666" d="M20 40h2M14 41h29" />
<path stroke="rgba(103,103,103,0.9294117647058824)" d="M43 40h1" />
<path stroke="rgba(102,102,102,0.23529411764705882)" d="M44 40h1" />
<path stroke="rgba(102,102,102,0.11764705882352941)" d="M6 41h1" />
<path stroke="rgba(101,101,101,0.5725490196078431)" d="M7 41h1" />
<path stroke="rgba(102,102,102,0.9137254901960784)" d="M8 41h1" />
<path stroke="rgba(101,101,101,0.996078431372549)" d="M9 41h1" />
<path stroke="#656565" d="M10 41h4" />
<path stroke="rgba(101,101,101,0.984313725490196)" d="M43 41h1" />
<path stroke="rgba(100,100,100,0.38823529411764707)" d="M44 41h1" />
<path stroke="rgba(96,96,96,0.03137254901960784)" d="M7 42h1M44 46h1" />
<path stroke="rgba(97,97,97,0.21568627450980393)" d="M8 42h1" />
<path stroke="rgba(98,98,98,0.4980392156862745)" d="M9 42h1" />
<path stroke="rgba(99,99,99,0.6901960784313725)" d="M10 42h1" />
<path stroke="rgba(99,99,99,0.788235294117647)" d="M11 42h1" />
<path stroke="rgba(99,99,99,0.8588235294117647)" d="M12 42h1" />
<path stroke="rgba(99,99,99,0.9215686274509803)" d="M13 42h1" />
<path stroke="rgba(98,98,98,0.9764705882352941)" d="M14 42h1" />
<path stroke="#626262" d="M15 42h28" />
<path stroke="rgba(98,98,98,0.996078431372549)" d="M43 42h1" />
<path stroke="rgba(97,97,97,0.43137254901960786)" d="M44 42h1" />
<path stroke="rgba(0,0,0,0.00392156862745098)" d="M9 43h1M19 53h1M32 56h1" />
<path stroke="rgba(93,93,93,0.043137254901960784)" d="M10 43h1M14 46h1" />
<path stroke="rgba(94,94,94,0.07450980392156863)" d="M11 43h1" />
<path stroke="rgba(98,98,98,0.10196078431372549)" d="M12 43h1" />
<path stroke="rgba(96,96,96,0.18823529411764706)" d="M13 43h1" />
<path stroke="rgba(95,95,95,0.5803921568627451)" d="M14 43h1" />
<path stroke="rgba(93,93,93,0.9921568627450981)" d="M15 43h1" />
<path stroke="#5d5d5d" d="M16 43h27" />
<path stroke="rgba(95,95,95,0.984313725490196)" d="M43 43h1" />
<path stroke="rgba(96,96,96,0.396078431372549)" d="M44 43h1" />
<path stroke="rgba(90,90,90,0.2901960784313726)" d="M14 44h1" />
<path stroke="rgba(90,90,90,0.9490196078431372)" d="M15 44h1" />
<path stroke="#5a5a5a" d="M16 44h27" />
<path stroke="rgba(90,90,90,0.9450980392156862)" d="M43 44h1" />
<path stroke="rgba(90,90,90,0.2784313725490196)" d="M44 44h1" />
<path stroke="rgba(93,93,93,0.12941176470588237)" d="M14 45h1M44 45h1" />
<path stroke="rgba(87,87,87,0.8666666666666667)" d="M15 45h1" />
<path stroke="#595959" d="M16 45h27" />
<path stroke="rgba(89,89,89,0.8666666666666667)" d="M43 45h1" />
<path stroke="rgba(84,84,84,0.6901960784313725)" d="M15 46h1" />
<path stroke="#545454" d="M16 46h27" />
<path stroke="rgba(85,85,85,0.6470588235294118)" d="M43 46h1" />
<path stroke="rgba(80,80,80,0.4235294117647059)" d="M15 47h1" />
<path stroke="rgba(80,80,80,0.9882352941176471)" d="M16 47h1" />
<path stroke="#4e4e4e" d="M17 47h25" />
<path stroke="rgba(80,80,80,0.9647058823529412)" d="M42 47h1" />
<path stroke="rgba(80,80,80,0.34901960784313724)" d="M43 47h1" />
<path stroke="rgba(78,78,78,0.15294117647058825)" d="M15 48h1" />
<path stroke="rgba(74,74,74,0.8627450980392157)" d="M16 48h1" />
<path stroke="#4a4a4a" d="M17 48h4M23 48h19" />
<path stroke="rgba(74,74,74,0.9882352941176471)" d="M21 48h1" />
<path stroke="rgba(74,74,74,0.9725490196078431)" d="M22 48h1" />
<path stroke="rgba(77,77,77,0.7568627450980392)" d="M42 48h1" />
<path stroke="rgba(77,77,77,0.0784313725490196)" d="M43 48h1" />
<path stroke="rgba(73,73,73,0.5490196078431373)" d="M16 49h1" />
<path stroke="#464646" d="M17 49h1M28 49h1M32 49h1" />
<path stroke="#484848" d="M18 49h3M23 49h5M33 49h8" />
<path stroke="rgba(71,71,71,0.8117647058823529)" d="M21 49h1" />
<path stroke="rgba(72,72,72,0.8509803921568627)" d="M22 49h1" />
<path stroke="rgba(72,72,72,0.8588235294117647)" d="M29 49h1" />
<path stroke="rgba(73,73,73,0.8274509803921568)" d="M30 49h1" />
<path stroke="rgba(72,72,72,0.9803921568627451)" d="M31 49h1" />
<path stroke="rgba(72,72,72,0.9529411764705882)" d="M41 49h1" />
<path stroke="rgba(72,72,72,0.34901960784313724)" d="M42 49h1" />
<path stroke="rgba(67,67,67,0.1803921568627451)" d="M16 50h1" />
<path stroke="rgba(66,66,66,0.8509803921568627)" d="M17 50h1" />
<path stroke="#424242" d="M18 50h2M23 50h5M34 50h6" />
<path stroke="rgba(66,66,66,0.9686274509803922)" d="M20 50h1" />
<path stroke="rgba(67,67,67,0.4627450980392157)" d="M21 50h1" />
<path stroke="rgba(65,65,65,0.7333333333333333)" d="M22 50h1" />
<path stroke="rgba(66,66,66,0.9490196078431372)" d="M28 50h1" />
<path stroke="rgba(66,66,66,0.34901960784313724)" d="M29 50h1" />
<path stroke="rgba(66,66,66,0.10588235294117647)" d="M30 50h1" />
<path stroke="rgba(67,67,67,0.41568627450980394)" d="M31 50h1" />
<path stroke="rgba(68,68,68,0.7333333333333333)" d="M32 50h1" />
<path stroke="rgba(66,66,66,0.9803921568627451)" d="M33 50h1" />
<path stroke="rgba(66,66,66,0.996078431372549)" d="M40 50h1" />
<path stroke="rgba(69,69,69,0.596078431372549)" d="M41 50h1" />
<path stroke="rgba(70,70,70,0.043137254901960784)" d="M42 50h1" />
<path stroke="rgba(62,62,62,0.37254901960784315)" d="M17 51h1" />
<path stroke="rgba(61,61,61,0.9254901960784314)" d="M18 51h1" />
<path stroke="#3d3d3d" d="M19 51h1" />
<path stroke="rgba(61,61,61,0.6862745098039216)" d="M20 51h1" />
<path stroke="rgba(61,61,61,0.09803921568627451)" d="M21 51h1" />
<path stroke="rgba(61,61,61,0.6235294117647059)" d="M22 51h1" />
<path stroke="#3b3b3b" d="M23 51h5M34 51h6" />
<path stroke="rgba(62,62,62,0.6)" d="M28 51h1" />
<path stroke="rgba(57,57,57,0.03529411764705882)" d="M29 51h1" />
<path stroke="rgba(60,60,60,0.36470588235294116)" d="M32 51h1" />
<path stroke="rgba(59,59,59,0.9686274509803922)" d="M33 51h1" />
<path stroke="rgba(61,61,61,0.7725490196078432)" d="M40 51h1" />
<path stroke="rgba(64,64,64,0.1411764705882353)" d="M41 51h1" />
<path stroke="rgba(64,64,64,0.01568627450980392)" d="M17 52h1" />
<path stroke="rgba(55,55,55,0.32941176470588235)" d="M18 52h1" />
<path stroke="rgba(56,56,56,0.5019607843137255)" d="M19 52h1" />
<path stroke="rgba(57,57,57,0.1411764705882353)" d="M20 52h1" />
<path stroke="rgba(53,53,53,0.45098039215686275)" d="M22 52h1" />
<path stroke="#353535" d="M23 52h4M33 52h6" />
<path stroke="rgba(54,54,54,0.7647058823529411)" d="M27 52h1" />
<path stroke="rgba(58,58,58,0.13725490196078433)" d="M28 52h1" />
<path stroke="rgba(0,0,0,0.00784313725490196)" d="M31 52h1M22 54h1" />
<path stroke="rgba(53,53,53,0.5686274509803921)" d="M32 52h1" />
<path stroke="rgba(53,53,53,0.8117647058823529)" d="M39 52h1" />
<path stroke="rgba(56,56,56,0.21568627450980393)" d="M40 52h1" />
<path stroke="rgba(50,50,50,0.1803921568627451)" d="M22 53h1" />
<path stroke="rgba(50,50,50,0.8549019607843137)" d="M23 53h1" />
<path stroke="#2e2e2e" d="M24 53h2M36 53h1" />
<path stroke="rgba(50,50,50,0.803921568627451)" d="M26 53h1" />
<path stroke="rgba(50,50,50,0.2196078431372549)" d="M27 53h1" />
<path stroke="rgba(51,51,51,0.0392156862745098)" d="M31 53h1" />
<path stroke="rgba(50,50,50,0.6745098039215687)" d="M32 53h1" />
<path stroke="#323232" d="M33 53h3" />
<path stroke="rgba(46,46,46,0.9921568627450981)" d="M37 53h1" />
<path stroke="rgba(50,50,50,0.7529411764705882)" d="M38 53h1" />
<path stroke="rgba(48,48,48,0.20784313725490197)" d="M39 53h1" />
<path stroke="rgba(42,42,42,0.3803921568627451)" d="M23 54h1" />
<path stroke="rgba(43,43,43,0.788235294117647)" d="M24 54h1" />
<path stroke="rgba(42,42,42,0.615686274509804)" d="M25 54h1" />
<path stroke="rgba(45,45,45,0.17647058823529413)" d="M26 54h1" />
<path stroke="rgba(51,51,51,0.0196078431372549)" d="M31 54h1" />
<path stroke="rgba(39,39,39,0.611764705882353)" d="M32 54h1" />
<path stroke="#272727" d="M33 54h3" />
<path stroke="rgba(39,39,39,0.9411764705882353)" d="M36 54h1" />
<path stroke="rgba(42,42,42,0.5686274509803921)" d="M37 54h1" />
<path stroke="rgba(41,41,41,0.12156862745098039)" d="M38 54h1" />
<path stroke="rgba(0,0,0,0.011764705882352941)" d="M23 55h1" />
<path stroke="rgba(43,43,43,0.07058823529411765)" d="M24 55h1" />
<path stroke="rgba(32,32,32,0.03137254901960784)" d="M25 55h1" />
<path stroke="rgba(28,28,28,0.25098039215686274)" d="M32 55h1" />
<path stroke="rgba(28,28,28,0.792156862745098)" d="M33 55h1" />
<path stroke="rgba(27,27,27,0.8745098039215686)" d="M34 55h1" />
<path stroke="rgba(27,27,27,0.6549019607843137)" d="M35 55h1" />
<path stroke="rgba(34,34,34,0.2980392156862745)" d="M36 55h1" />
<path stroke="rgba(28,28,28,0.03529411764705882)" d="M37 55h1" />
<path stroke="rgba(23,23,23,0.08627450980392157)" d="M33 56h1" />
<path stroke="rgba(18,18,18,0.11372549019607843)" d="M34 56h1" />
<path stroke="rgba(0,0,0,0.03529411764705882)" d="M35 56h1" />
</svg>