<svg xmlns="http://www.w3.org/2000/svg" viewBox="0 -0.5 32 32" shape-rendering="crispEdges">
<metadata>Made with Pixels to Svg https://codepen.io/shshaw/pen/XbxvNj</metadata>
<path stroke="#ffffff" d="M13 4h8M11 5h3M20 5h2M10 6h2M21 6h2M9 7h2M22 7h5M9 8h1M26 8h2M7 9h3M27 9h1M5 10h3M27 10h1M4 11h2M27 11h1M4 12h1M27 12h1M4 13h1M26 13h2M4 14h1M26 14h1M4 15h1M26 15h1M4 16h2M26 16h1M5 17h1M26 17h1M5 18h1M26 18h1M5 19h1M26 19h1M5 20h1M26 20h1M5 21h1M25 21h2M5 22h1M25 22h1M5 23h1M24 23h2M5 24h2M23 24h2M6 25h2M21 25h3M7 26h2M19 26h3M8 27h12" />
<path stroke="#202020" d="M14 5h6M12 6h2M20 6h1M11 7h1M21 7h1M10 8h1M17 8h9M10 9h1M26 9h1M8 10h2M26 10h1M6 11h2M26 11h1M5 12h1M26 12h1M5 13h1M25 13h1M5 14h1M25 14h1M5 15h1M25 15h1M6 16h1M25 16h1M6 17h1M25 17h1M6 18h1M25 18h1M6 19h1M25 19h1M6 20h1M25 20h1M6 21h1M24 21h1M6 22h1M24 22h1M6 23h1M23 23h1M7 24h1M21 24h2M8 25h1M19 25h2M9 26h10" />
<path stroke="#f6f6e6" d="M14 6h4M12 7h4M11 8h4M11 9h3M21 9h5M10 10h4M19 10h5M8 11h1M10 11h4M17 11h5M6 12h3M16 12h4" />
<path stroke="#d5cdc5" d="M18 6h2M16 7h1M20 7h1M15 8h1M14 9h1M16 9h5M14 10h1M16 10h3M24 10h1M15 11h2M22 11h1M10 12h4M15 12h1M20 12h1M6 13h3M10 13h4M16 13h4M6 14h3M10 14h4M16 14h4M6 15h3M10 15h4M16 15h4M10 16h1M13 16h1M10 19h1M13 19h1M11 20h2" />
<path stroke="#6a6a62" d="M17 7h3M16 8h1M15 9h1M15 10h1M9 11h1M14 11h1M9 12h1M14 12h1M9 13h1M14 13h1M9 14h1M14 14h1M9 15h1M14 15h1M9 16h1M14 16h1M9 17h1M14 17h1M9 18h1M14 18h1M9 19h1M14 19h1M10 20h1M13 20h1M11 21h2" />
<path stroke="#9c9c94" d="M25 10h1M23 11h3M21 12h5M15 13h1M20 13h4M15 14h1M20 14h2M15 15h1" />
<path stroke="#8b4a10" d="M24 13h1M22 14h2M20 15h2M15 16h1M19 16h1M13 17h1M13 18h1M11 19h2M24 20h1M23 21h1M21 22h3M19 23h4M19 24h2M18 25h1" />
<path stroke="#cd7310" d="M24 14h1M22 15h3M7 16h2M11 16h2M16 16h3M20 16h5M10 17h1M15 17h1M19 17h6M10 18h1M15 18h1M19 18h6M15 19h1M19 19h6M14 20h2M19 20h5M13 21h2M19 21h4M19 22h2M7 23h1M18 23h1M8 24h11M9 25h9" />
<path stroke="#ffac41" d="M7 17h2M12 17h1M16 17h3M7 18h2M11 18h2M16 18h3M7 19h2M16 19h3M7 20h3M16 20h3M7 21h4M15 21h4M7 22h12M8 23h10" />
<path stroke="#ffeeb4" d="M11 17h1" />
</svg>