<svg xmlns="http://www.w3.org/2000/svg" viewBox="0 -0.5 32 32" shape-rendering="crispEdges">
<metadata>Made with Pixels to Svg https://codepen.io/shshaw/pen/XbxvNj</metadata>
<path stroke="#ffffff" d="M17 2h5M16 3h2M21 3h2M12 4h5M22 4h1M10 5h3M22 5h1M9 6h2M22 6h1M8 7h2M22 7h2M8 8h1M23 8h1M7 9h2M23 9h2M7 10h1M24 10h1M6 11h2M24 11h1M6 12h1M24 12h1M6 13h1M24 13h3M6 14h1M26 14h2M6 15h1M27 15h1M6 16h2M27 16h1M6 17h2M27 17h1M5 18h2M27 18h1M4 19h2M27 19h1M4 20h1M26 20h2M4 21h1M25 21h2M4 22h1M24 22h2M4 23h1M23 23h2M4 24h2M21 24h3M5 25h17" />
<path stroke="#202020" d="M18 3h3M17 4h1M21 4h1M13 5h6M21 5h1M11 6h2M19 6h3M10 7h1M21 7h1M9 8h1M22 8h1M9 9h1M22 9h1M8 10h1M23 10h1M8 11h1M23 11h1M7 12h1M23 12h1M7 13h1M23 13h1M7 14h1M23 14h3M7 15h1M23 15h1M26 15h1M8 16h1M22 16h1M26 16h1M8 17h1M21 17h1M26 17h1M7 18h2M20 18h1M26 18h1M6 19h1M9 19h1M18 19h2M26 19h1M5 20h1M10 20h8M25 20h1M5 21h1M24 21h1M5 22h1M23 22h1M5 23h1M21 23h2M6 24h15" />
<path stroke="#dee6ee" d="M18 4h2M12 7h1M14 7h1M11 8h1M14 8h1M10 9h1M14 9h1M15 10h2M17 11h1M18 12h1M18 13h1M12 17h3M18 18h1M17 19h1" />
<path stroke="#b4bdbd" d="M20 4h1M19 5h1M14 6h3M13 7h1M9 10h1M18 14h1M18 15h1M11 17h1M17 17h1M9 18h1M16 19h1" />
<path stroke="#838b8b" d="M20 5h1M11 19h4" />
<path stroke="#4183e6" d="M13 6h1M17 6h2M11 7h1M15 7h5M10 8h1M15 8h6M15 9h6M17 10h4M22 10h1M18 11h3M22 11h1M19 12h2M22 12h1M19 13h1M22 13h1M21 14h1M20 15h1M20 16h1M19 17h1M23 17h1M22 18h1M21 19h1M7 20h2M19 20h2M7 21h13" />
<path stroke="#20418b" d="M20 7h1M21 8h1M21 10h1M21 11h1M21 12h1M21 13h1M20 14h1M22 14h1M19 15h1M22 15h1M18 16h2M21 16h1M18 17h1M20 17h1M25 17h1M16 18h2M19 18h1M24 18h1M23 19h1M25 19h1M22 20h1M24 20h1M21 21h1M23 21h1M6 22h1M22 22h1M6 23h15" />
<path stroke="#c57b10" d="M12 8h2M17 16h1M10 17h1" />
<path stroke="#debd4a" d="M11 9h2M10 10h2M9 11h3M16 11h1M8 12h3M17 12h1M8 13h3M17 13h1M8 14h3M17 14h1M8 15h3M16 15h2M9 16h8" />
<path stroke="#ffe662" d="M13 9h1M12 10h1M14 10h1M15 11h1M11 12h1M16 12h1M16 13h1M16 14h1M11 15h5" />
<path stroke="#2062cd" d="M21 9h1M20 13h1M19 14h1M21 15h1M24 15h2M23 16h3M22 17h1M24 17h1M21 18h1M23 18h1M25 18h1M7 19h2M20 19h1M22 19h1M24 19h1M6 20h1M9 20h1M18 20h1M21 20h1M23 20h1M6 21h1M20 21h1M22 21h1M7 22h15" />
<path stroke="#ffff8b" d="M13 10h1M12 11h3M12 12h4M11 13h5M11 14h5" />
<path stroke="#7b5a29" d="M9 17h1M15 17h2" />
<path stroke="#525252" d="M10 18h6M10 19h1M15 19h1" />
</svg>