<svg xmlns="http://www.w3.org/2000/svg" viewBox="0 -0.5 32 32" shape-rendering="crispEdges">
<metadata>Made with Pixels to Svg https://codepen.io/shshaw/pen/XbxvNj</metadata>
<path stroke="#ffffff" d="M20 5h5M18 6h3M24 6h2M17 7h2M25 7h2M16 8h2M26 8h2M13 9h4M21 9h3M27 9h1M12 10h2M19 10h3M23 10h1M27 10h1M11 11h2M19 11h2M22 11h2M27 11h1M11 12h1M20 12h1M22 12h1M26 12h2M11 13h1M20 13h3M26 13h1M11 14h1M20 14h1M25 14h2M10 15h2M24 15h2M9 16h2M23 16h2M8 17h2M21 17h3M7 18h2M14 18h8M6 19h2M13 19h2M5 20h2M12 20h2M4 21h2M13 21h2M4 22h1M14 22h1M4 23h1M13 23h2M4 24h2M12 24h2M5 25h3M11 25h2M7 26h2M10 26h2M8 27h3" />
<path stroke="#202020" d="M21 6h3M19 7h1M24 7h1M18 8h1M22 8h2M25 8h1M17 9h1M19 9h2M24 9h1M26 9h1M14 10h3M18 10h1M24 10h1M26 10h1M13 11h1M18 11h1M24 11h1M26 11h1M12 12h1M17 12h1M19 12h1M23 12h1M25 12h1M12 13h1M17 13h1M19 13h1M23 13h1M25 13h1M12 14h1M16 14h1M19 14h1M21 14h2M24 14h1M12 15h1M19 15h2M23 15h1M11 16h1M18 16h1M21 16h2M10 17h1M14 17h7M9 18h1M13 18h1M8 19h1M12 19h1M7 20h1M11 20h1M6 21h1M12 21h1M5 22h1M9 22h1M13 22h1M5 23h1M10 23h1M12 23h1M6 24h2M11 24h1M8 25h1M10 25h1M9 26h1" />
<path stroke="#5a6384" d="M20 7h1M21 8h1M16 11h1M25 11h1M15 12h1M24 12h1M15 13h1M24 13h1M23 14h1M13 15h1M21 15h2M14 16h1M19 16h2M10 21h1M6 22h2M10 22h2M6 23h3M11 23h1M8 24h2M9 25h1" />
<path stroke="#dedede" d="M21 7h3M19 8h2M15 11h1M14 12h1M18 12h1M12 16h1M11 17h1M10 18h1M9 19h1M8 20h1M7 21h1" />
<path stroke="#a5adbd" d="M24 8h1M18 9h1M25 9h1M17 10h1M14 11h1M13 12h1M13 13h2M18 13h1M14 14h1M18 14h1M15 15h3M13 16h1M12 17h1M11 18h1M10 19h1M9 20h1M8 21h1M11 21h1M12 22h1M9 23h1M10 24h1" />
<path stroke="#7b8ca5" d="M25 10h1M17 11h1M16 12h1M16 13h1M13 14h1M15 14h1M17 14h1M14 15h1M18 15h1M15 16h3M13 17h1M12 18h1M11 19h1M10 20h1M9 21h1M8 22h1" />
</svg>