<svg xmlns="http://www.w3.org/2000/svg" viewBox="0 -0.5 32 32" shape-rendering="crispEdges">
<metadata>Made with Pixels to Svg https://codepen.io/shshaw/pen/XbxvNj</metadata>
<path stroke="#ffffff" d="M10 7h5M17 7h5M9 8h2M14 8h4M21 8h2M7 9h3M22 9h1M6 10h2M22 10h1M5 11h2M22 11h1M5 12h1M22 12h2M4 13h2M23 13h1M3 14h2M23 14h2M2 15h2M24 15h1M2 16h1M24 16h2M2 17h1M25 17h5M2 18h2M29 18h2M2 19h2M18 19h2M30 19h1M2 20h1M17 20h4M30 20h1M2 21h1M16 21h2M20 21h2M29 21h2M2 22h2M15 22h2M21 22h9M3 23h13" />
<path stroke="#202020" d="M11 8h3M18 8h3M10 9h1M14 9h4M21 9h1M8 10h2M21 10h1M7 11h1M21 11h1M6 12h1M21 12h1M6 13h1M22 13h1M5 14h1M22 14h1M4 15h1M18 15h1M23 15h1M3 16h1M23 16h1M3 17h1M19 17h1M24 17h1M4 18h1M18 18h2M25 18h4M4 19h1M17 19h1M20 19h1M29 19h1M3 20h1M16 20h1M21 20h1M29 20h1M3 21h1M15 21h1M22 21h7M4 22h11" />
<path stroke="#314152" d="M11 9h1M20 9h1M13 10h3M13 11h1M12 12h1M11 13h1M10 14h1M10 15h1M9 16h1M18 16h1M9 17h1M17 17h1M16 18h1M15 19h1M27 19h1M14 20h1M26 20h1M28 20h1" />
<path stroke="#52627b" d="M12 9h2M18 9h2M12 10h1M16 10h2M15 11h1M14 12h1M10 13h1M13 13h1M11 14h2M9 15h1M8 16h1M8 17h1M6 19h8M16 19h1M26 19h1M15 20h1M25 20h1M5 21h10" />
<path stroke="#e65241" d="M10 10h2M18 10h3M9 11h2M16 11h3M8 12h2M16 12h2M19 12h2M7 13h3M15 13h2M18 13h3M6 14h4M13 14h3M19 14h3M19 15h3M4 16h4M10 16h4M20 16h3M20 17h3M21 18h3M21 19h5M28 19h1M22 20h3M27 20h1" />
<path stroke="#8b3139" d="M8 11h1M12 11h1M19 11h2M7 12h1M11 12h1M13 12h1M18 12h1M12 13h1M21 13h1M17 14h2M16 15h1M22 15h1M15 16h1M19 16h1M5 17h3M10 17h5M23 17h1M20 18h1M24 18h1" />
<path stroke="#737b9c" d="M11 11h1M10 12h1M15 12h1M14 13h1M4 20h1M13 20h1" />
<path stroke="#623131" d="M14 11h1M17 13h1M16 14h1M15 15h1M17 15h1M14 16h1M16 16h1M4 17h1M15 17h1M5 18h10" />
<path stroke="#ff6a5a" d="M5 15h4M11 15h4" />
<path stroke="#41526a" d="M17 16h1M16 17h1M18 17h1M15 18h1M17 18h1M5 19h1M14 19h1M4 21h1" />
<path stroke="#8b9cb4" d="M5 20h8" />
</svg>