<svg xmlns="http://www.w3.org/2000/svg" viewBox="0 -0.5 32 32" shape-rendering="crispEdges">
<metadata>Made with Pixels to Svg https://codepen.io/shshaw/pen/XbxvNj</metadata>
<path stroke="#ffffff" d="M13 4h5M13 5h1M17 5h1M13 6h1M15 6h1M17 6h1M13 7h3M17 7h1M13 8h2M16 8h2M10 9h4M15 9h1M17 9h4M9 10h2M20 10h2M9 11h1M11 11h1M19 11h1M21 11h1M8 12h2M11 12h1M14 12h3M19 12h1M21 12h2M8 13h1M10 13h2M19 13h2M22 13h1M8 14h1M10 14h1M20 14h1M22 14h1M8 15h1M22 15h1M8 16h4M19 16h4M9 17h2M15 17h1M20 17h2M8 18h2M21 18h2M7 19h2M22 19h2M7 20h1M23 20h1M7 21h1M9 21h1M21 21h1M23 21h1M7 22h2M10 22h2M19 22h2M22 22h2M8 23h2M12 23h7M21 23h2M9 24h3M19 24h3M11 25h9" />
<path stroke="#202020" d="M14 5h3M14 6h1M16 6h1M16 7h1M15 8h1M14 9h1M16 9h1M11 10h9M10 11h1M12 11h1M18 11h1M20 11h1M10 12h1M20 12h1M9 13h1M21 13h1M9 14h1M21 14h1M9 15h4M18 15h4M12 16h1M18 16h1M11 17h1M19 17h1M10 18h1M20 18h1M9 19h1M21 19h1M8 20h1M22 20h1M8 21h1M22 21h1M9 22h1M21 22h1M10 23h2M19 23h2M12 24h7" />
<path stroke="#7b1039" d="M13 11h1M15 11h1M17 11h1M14 13h1M16 13h1M12 14h1M15 14h1M18 14h1M13 17h1M17 17h1" />
<path stroke="#e6297b" d="M14 11h1M16 11h1M13 12h1M17 12h1M13 15h1M17 15h1M14 16h1M16 16h1M12 17h1M14 17h1M16 17h1M18 17h1M11 18h1M13 18h1M17 18h1M19 18h1M11 19h1M19 19h1M11 20h2M18 20h2M12 21h7" />
<path stroke="#b4bdc5" d="M12 12h1M18 12h1M15 13h1M11 14h1M19 14h1M15 16h1M14 18h3M9 20h1M21 20h1M10 21h1M20 21h1" />
<path stroke="#b4205a" d="M12 13h1M18 13h1M15 15h1M13 16h1M17 16h1" />
<path stroke="#ff6a94" d="M13 13h1M17 13h1M13 14h2M16 14h2M14 15h1M16 15h1M12 18h1M18 18h1M12 19h7M13 20h5" />
<path stroke="#bd3183" d="M10 19h1M20 19h1M10 20h1M20 20h1M11 21h1M19 21h1M12 22h7" />
</svg>