<svg xmlns="http://www.w3.org/2000/svg" viewBox="0 -0.5 32 32" shape-rendering="crispEdges">
<metadata>Made with Pixels to Svg https://codepen.io/shshaw/pen/XbxvNj</metadata>
<path stroke="#ffffff" d="M13 8h4M11 9h3M16 9h1M25 9h3M10 10h2M16 10h2M24 10h2M27 10h2M7 11h4M17 11h8M26 11h1M28 11h1M6 12h2M19 12h1M24 12h1M26 12h1M28 12h1M5 13h2M25 13h1M27 13h2M5 14h1M25 14h1M27 14h1M5 15h1M27 15h1M4 16h2M7 16h1M27 16h1M4 17h1M8 17h1M20 17h1M27 17h1M4 18h1M19 18h1M27 18h1M4 19h1M8 19h1M18 19h1M27 19h1M4 20h1M9 20h2M18 20h1M26 20h2M4 21h2M11 21h1M25 21h2M5 22h2M22 22h4M6 23h3M20 23h3M8 24h4M17 24h4M11 25h7" />
<path stroke="#202020" d="M14 9h2M12 10h2M15 10h1M26 10h1M11 11h1M14 11h1M16 11h1M25 11h1M27 11h1M8 12h3M17 12h2M20 12h4M25 12h1M27 12h1M7 13h1M19 13h1M23 13h2M26 13h1M6 14h1M21 14h2M26 14h1M6 15h1M26 15h1M6 16h1M26 16h1M5 17h1M26 17h1M5 18h1M26 18h1M5 19h1M26 19h1M5 20h1M25 20h1M6 21h1M22 21h3M7 22h2M20 22h2M9 23h3M17 23h3M12 24h5" />
<path stroke="#949494" d="M14 10h1M22 13h1M19 21h2" />
<path stroke="#6a94a4" d="M12 11h2M11 13h1M8 14h1M19 14h1M18 15h1M24 15h1M12 16h1M16 16h2M12 17h4M22 17h1M17 18h1M21 18h2M6 19h1M15 19h2M20 19h3M7 20h2M13 20h3M20 20h2M9 21h2M11 22h6" />
<path stroke="#626262" d="M15 11h1M8 13h1M20 13h2M7 14h1M21 21h1" />
<path stroke="#9cc5d5" d="M11 12h1M9 13h2M20 14h1M24 14h1M7 15h1M10 15h1M19 15h2M23 15h1M10 16h2M19 16h1M22 16h1M7 17h1M11 17h1M16 17h3M21 17h1M8 18h2M12 18h5M10 19h5" />
<path stroke="#c5eeff" d="M12 12h2M9 14h2M23 14h1M8 15h2M22 15h1M8 16h2M21 16h1M9 17h2M10 18h2" />
<path stroke="#e69c5a" d="M14 12h3M12 13h2M17 13h2M13 14h5M15 15h1M25 15h1M24 16h1M23 17h1M25 17h1M23 18h1M25 18h1" />
<path stroke="#b46229" d="M14 13h3M11 14h2M18 14h1M11 15h4M16 15h2M13 16h3M23 16h1M25 16h1M24 17h1M24 18h1M23 19h3M24 20h1" />
<path stroke="#41738b" d="M21 15h1M18 16h1M20 16h1M19 17h1M18 18h1M17 19h1M6 20h1M17 20h1M22 20h2M7 21h2M16 21h3M9 22h2M17 22h3M12 23h5" />
<path stroke="#73ac41" d="M6 17h1M7 18h1M9 19h1M11 20h2M16 20h1M15 21h1" />
<path stroke="#cde69c" d="M6 18h1M7 19h1M12 21h3" />
<path stroke="#c5c5c5" d="M20 18h1M19 19h1M19 20h1" />
</svg>