<svg xmlns="http://www.w3.org/2000/svg" viewBox="0 -0.5 32 32" shape-rendering="crispEdges">
<metadata>Made with Pixels to Svg https://codepen.io/shshaw/pen/XbxvNj</metadata>
<path stroke="#ffffff" d="M12 3h6M5 4h8M17 4h3M4 5h2M9 5h2M19 5h2M4 6h1M20 6h5M3 7h2M24 7h3M3 8h1M26 8h2M3 9h1M27 9h2M3 10h1M8 10h1M28 10h1M3 11h1M28 11h1M3 12h1M28 12h1M3 13h2M15 13h1M28 13h1M4 14h2M27 14h2M5 15h3M26 15h2M7 16h4M25 16h2M10 17h2M26 17h1M11 18h2M19 18h1M26 18h1M12 19h1M19 19h1M26 19h1M12 20h1M19 20h1M26 20h1M12 21h1M19 21h1M26 21h1M12 22h1M19 22h1M26 22h1M12 23h2M18 23h2M26 23h1M13 24h2M17 24h3M26 24h1M14 25h4M19 25h1M26 25h1M19 26h2M25 26h2M20 27h2M24 27h2M21 28h4" />
<path stroke="#202020" d="M13 4h4M6 5h3M11 5h2M17 5h2M5 6h1M9 6h2M19 6h1M5 7h1M20 7h4M24 8h2M26 9h1M27 10h1M27 11h1M27 12h1M27 13h1M26 14h1M8 15h3M21 15h1M24 15h2M11 16h1M20 16h2M24 16h1M12 17h1M18 17h3M25 17h1M13 18h1M18 18h1M20 18h1M25 18h1M13 19h1M18 19h1M20 19h1M25 19h1M13 20h1M18 20h1M20 20h1M25 20h1M13 21h1M18 21h1M20 21h1M25 21h1M13 22h1M18 22h1M20 22h1M25 22h1M14 23h1M17 23h1M20 23h1M25 23h1M15 24h2M20 24h1M25 24h1M20 25h1M25 25h1M21 26h1M24 26h1M22 27h2" />
<path stroke="#c5cece" d="M13 5h4M11 6h2M17 6h2M16 7h2M11 8h2M20 8h4M18 9h2M24 9h2M23 10h2M18 11h3" />
<path stroke="#b5a563" d="M6 6h3M9 7h1M13 9h3M12 10h1M16 10h1" />
<path stroke="#6bd6e6" d="M13 6h3M13 7h3M20 9h3M20 10h3M22 13h2" />
<path stroke="#52636b" d="M16 6h1M6 7h2M11 7h2M5 8h1M8 8h1M13 8h1M6 9h1M9 9h1M23 9h1M9 10h1M13 10h2M18 10h2M12 11h1M15 11h1M11 12h1M13 12h1M16 12h1M8 13h1M11 13h1M16 13h1M11 14h1M15 16h1" />
<path stroke="#8c7331" d="M8 7h1M9 8h1M15 10h1M16 11h1" />
<path stroke="#9c8419" d="M10 7h1M10 8h1M11 9h1M17 10h1M11 11h1M17 11h1M18 12h1M18 13h1" />
<path stroke="#8c9494" d="M18 7h2M16 8h2M5 9h1M25 10h2M21 11h4M12 12h1M21 12h1M24 12h1M24 14h1M22 18h1M15 19h1M15 20h2M15 21h2M15 22h2M22 22h1M15 23h2M22 23h2M22 24h2M22 25h2M22 26h2" />
<path stroke="#31424a" d="M4 8h1M4 9h1M4 10h1M4 11h1M9 11h1M4 12h1M9 12h1M5 13h1M6 14h2M16 14h1M11 15h1M16 15h1M12 16h1M13 17h2" />
<path stroke="#a5adad" d="M6 8h1M5 10h1M7 10h1M5 11h1M7 11h1M13 11h1M5 12h1M7 12h1M12 13h1M14 13h1M12 14h1M14 14h1M12 15h1M14 15h1M21 17h4M21 18h1M14 19h1M14 20h1M14 21h1M14 22h1M21 22h1M21 23h1M21 24h1M21 25h1" />
<path stroke="#dedee6" d="M7 8h1M8 9h1M8 11h1M14 11h1M15 12h1M15 14h1" />
<path stroke="#3a4242" d="M14 8h2M18 8h2M12 9h1M16 9h2M11 10h1M22 15h2M23 16h1" />
<path stroke="#6b7373" d="M7 9h1M6 10h1M6 11h1M25 11h2M6 12h1M14 12h1M19 12h2M22 12h2M13 13h1M19 13h1M25 13h2M13 14h1M20 14h4M25 14h1M13 15h1M19 15h2M18 16h2M17 22h1M24 25h1" />
<path stroke="#635219" d="M10 9h1M10 10h1M17 12h1M10 13h1M17 13h1M9 14h2" />
<path stroke="#524208" d="M10 11h1M10 12h1M9 13h1M8 14h1M17 14h1M17 15h1M16 16h1M15 17h1" />
<path stroke="#bdc5c5" d="M8 12h1M6 13h2M15 15h1M13 16h2" />
<path stroke="#313a42" d="M25 12h2M20 13h2M24 13h1M19 14h1" />
<path stroke="#846b00" d="M18 14h1M18 15h1M17 16h1M16 17h2" />
<path stroke="#636b6b" d="M22 16h1" />
<path stroke="#945a6b" d="M14 18h1M21 19h1M21 20h1M21 21h1" />
<path stroke="#9c213a" d="M15 18h2M23 18h1M16 19h1M22 19h2M22 20h2M22 21h2M23 22h1" />
<path stroke="#731929" d="M17 18h1M24 18h1M17 19h1M24 19h1M17 20h1M24 20h1M17 21h1M24 21h1M24 22h1M24 23h1M24 24h1" />
</svg>