<svg xmlns="http://www.w3.org/2000/svg" viewBox="0 -0.5 32 32" shape-rendering="crispEdges">
<metadata>Made with Pixels to Svg https://codepen.io/shshaw/pen/XbxvNj</metadata>
<path stroke="#ffffff" d="M19 7h4M17 8h3M22 8h2M15 9h3M23 9h1M13 10h3M23 10h2M11 11h3M24 11h1M9 12h3M24 12h2M7 13h3M25 13h1M5 14h3M25 14h2M4 15h2M26 15h1M4 16h1M26 16h1M4 17h1M25 17h2M4 18h2M23 18h3M5 19h1M21 19h3M5 20h2M19 20h3M6 21h1M17 21h3M6 22h2M15 22h3M7 23h1M13 23h3M7 24h2M11 24h3M8 25h4" />
<path stroke="#202020" d="M20 8h2M18 9h2M22 9h1M16 10h2M22 10h1M14 11h2M23 11h1M12 12h2M23 12h1M10 13h2M24 13h1M8 14h2M24 14h1M6 15h2M25 15h1M5 16h1M25 16h1M5 17h1M23 17h2M6 18h1M21 18h2M6 19h1M19 19h2M7 20h1M17 20h2M7 21h1M15 21h2M8 22h1M13 22h2M8 23h1M11 23h2M9 24h2" />
<path stroke="#eef6f6" d="M20 9h2M18 10h4M18 11h5M19 12h4M16 13h2M19 13h5M16 14h3M20 14h4M17 15h2M20 15h2M24 15h1M17 16h3M22 16h3M16 17h4M21 17h2M7 18h2M7 19h2M8 20h1M10 20h2M8 21h3M9 22h1" />
<path stroke="#8bcdee" d="M16 11h2M14 12h4M12 13h4M18 13h1M10 14h3M15 14h1M9 15h2M16 15h1M19 15h1M6 16h1M10 16h1M14 16h3M6 17h2M9 17h1M12 17h1M14 17h2M20 17h1M9 18h5M9 19h4M9 20h1M10 22h1" />
<path stroke="#418b9c" d="M18 12h1M19 14h1M20 16h1M18 18h1M11 21h1" />
<path stroke="#5a9c31" d="M13 14h1M12 15h3M11 16h1M11 17h1M17 18h1M14 19h3M13 20h2M12 21h1" />
<path stroke="#8bbd62" d="M14 14h1M11 15h1M15 15h1M10 17h1M15 18h2M13 19h1M12 20h1" />
<path stroke="#f67362" d="M8 15h1M7 16h3M8 17h1" />
<path stroke="#52cdcd" d="M22 15h2M21 16h1M19 18h2M17 19h2M15 20h2M13 21h2M11 22h2M9 23h2" />
<path stroke="#a47339" d="M12 16h1M13 17h1M14 18h1" />
<path stroke="#d5b48b" d="M13 16h1" />
</svg>