<svg xmlns="http://www.w3.org/2000/svg" viewBox="0 -0.5 32 32" shape-rendering="crispEdges">
<metadata>Made with Pixels to Svg https://codepen.io/shshaw/pen/XbxvNj</metadata>
<path stroke="#ffffff" d="M14 7h4M13 8h2M17 8h3M12 9h2M19 9h3M11 10h2M21 10h3M10 11h2M23 11h3M9 12h2M25 12h2M8 13h2M26 13h1M7 14h2M26 14h1M6 15h2M25 15h2M5 16h2M24 16h2M4 17h2M23 17h2M4 18h1M22 18h2M4 19h1M21 19h2M4 20h2M20 20h2M5 21h3M19 21h2M7 22h3M18 22h2M9 23h3M17 23h2M11 24h3M16 24h2M13 25h4" />
<path stroke="#202020" d="M15 8h2M14 9h1M17 9h2M13 10h1M19 10h2M12 11h1M21 11h2M11 12h1M23 12h2M10 13h1M25 13h1M9 14h1M25 14h1M8 15h1M24 15h1M7 16h1M23 16h1M6 17h1M22 17h1M5 18h1M21 18h1M5 19h1M20 19h1M6 20h2M19 20h1M8 21h2M18 21h1M10 22h2M17 22h1M12 23h2M16 23h1M14 24h2" />
<path stroke="#a4cdcd" d="M15 9h1M14 10h1M17 10h2M10 14h1M13 14h1M22 14h3M8 16h1M11 16h1M21 16h2M7 17h1M10 17h2M21 17h1M8 19h3M19 19h1M8 20h3M18 20h1M10 21h2M17 21h1M12 22h1M16 22h1M14 23h2" />
<path stroke="#5a4a4a" d="M16 9h1M15 10h2M11 14h2M9 16h2M8 17h2M6 19h2" />
<path stroke="#cde6e6" d="M13 11h1M19 11h2M12 12h1M21 12h2M11 13h1M14 13h1M22 13h3M9 15h1M12 15h1M22 15h2M6 18h1M9 18h3M20 18h1" />
<path stroke="#8b7b5a" d="M14 11h2M13 12h2M12 13h2M10 15h2M7 18h2" />
<path stroke="#b4cdd5" d="M16 11h3M15 12h1M20 12h1M15 13h1M21 13h1M13 15h1M17 15h2M21 15h1M14 18h2M19 18h1" />
<path stroke="#ffffc5" d="M16 12h3M16 13h5M15 15h2M19 15h2M12 18h2M16 18h3" />
<path stroke="#dee6cd" d="M19 12h1M14 15h1" />
<path stroke="#8bb4bd" d="M14 14h2M21 14h1M12 16h1M15 16h3M15 17h1M20 17h1M11 19h1M18 19h1M11 20h1M16 20h2M12 21h1M16 21h1M13 22h3" />
<path stroke="#f6ee39" d="M16 14h2M19 14h2M13 16h2M18 16h2M13 17h2M16 17h1M18 17h2M12 19h2M15 19h3M12 20h4M13 21h3" />
<path stroke="#c5cd7b" d="M18 14h1M20 16h1M12 17h1M17 17h1M14 19h1" />
</svg>