<svg xmlns="http://www.w3.org/2000/svg" viewBox="0 -0.5 32 32" shape-rendering="crispEdges">
<metadata>Made with Pixels to Svg https://codepen.io/shshaw/pen/XbxvNj</metadata>
<path stroke="#ffffff" d="M13 7h6M12 8h2M18 8h3M11 9h2M20 9h2M10 10h2M21 10h2M9 11h2M13 11h1M22 11h1M9 12h1M22 12h2M8 13h2M23 13h1M8 14h1M23 14h1M7 15h2M23 15h1M7 16h1M23 16h1M7 17h1M23 17h1M7 18h1M22 18h2M7 19h1M22 19h1M7 20h2M21 20h2M8 21h2M20 21h2M9 22h2M19 22h2M10 23h4M17 23h3M13 24h5" />
<path stroke="#202020" d="M14 8h4M13 9h1M18 9h2M12 10h1M20 10h1M11 11h1M21 11h1M10 12h1M21 12h1M10 13h1M22 13h1M9 14h1M22 14h1M9 15h1M22 15h1M8 16h1M22 16h1M8 17h1M22 17h1M8 18h1M21 18h1M8 19h1M21 19h1M9 20h1M20 20h1M10 21h1M19 21h1M11 22h3M17 22h2M14 23h3" />
<path stroke="#e6f6ee" d="M14 9h4M13 10h2M18 10h2M12 11h1M20 11h1M11 12h1M11 13h1M21 13h1M10 14h1M10 15h1M9 16h1M12 17h1M14 21h1" />
<path stroke="#3983b4" d="M15 10h2M16 11h1M16 12h1M13 13h1M17 13h1M12 14h1M18 14h1M15 15h1M18 15h1M12 16h1M19 16h1M16 17h1M18 17h1M17 18h2M17 19h1M15 20h1" />
<path stroke="#c5dec5" d="M17 10h1M17 11h3M12 12h1M18 12h3M12 13h1M18 13h2M11 14h1M21 14h1M11 16h1M9 17h1M11 17h1M12 18h2M12 20h1M13 21h1" />
<path stroke="#73b4c5" d="M14 11h1M13 12h1M14 13h1M15 14h3M16 15h2M16 16h3M17 17h1" />
<path stroke="#acd5c5" d="M15 11h1M15 12h1M15 13h2M16 21h1" />
<path stroke="#d5eede" d="M14 12h1" />
<path stroke="#94c5bd" d="M17 12h1M20 13h1M19 14h2M11 15h1M19 15h3M10 16h1M20 16h1M10 17h1M21 17h1M9 18h1M11 18h1M20 18h1M10 19h1M20 19h1M11 20h1M13 20h1M19 20h1M17 21h1" />
<path stroke="#29527b" d="M13 14h2M12 15h3M13 16h3M13 17h3M19 17h1M14 18h3M19 18h1M15 19h2M18 19h1M16 20h2" />
<path stroke="#529cb4" d="M21 16h1M20 17h1M10 18h1M11 19h4M19 19h1M14 20h1M18 20h1M12 21h1M14 22h3" />
<path stroke="#416a8b" d="M9 19h1M10 20h1M11 21h1M18 21h1" />
<path stroke="#deeeee" d="M15 21h1" />
</svg>