<svg xmlns="http://www.w3.org/2000/svg" viewBox="0 -0.5 32 32" shape-rendering="crispEdges">
<metadata>Made with Pixels to Svg https://codepen.io/shshaw/pen/XbxvNj</metadata>
<path stroke="#ffffff" d="M6 5h5M5 6h2M10 6h2M5 7h1M11 7h2M5 8h1M12 8h2M5 9h1M13 9h2M5 10h2M14 10h2M6 11h2M15 11h2M7 12h2M16 12h2M8 13h2M17 13h3M9 14h2M19 14h2M9 15h2M20 15h2M9 16h1M21 16h1M9 17h1M21 17h2M9 18h1M22 18h2M9 19h1M23 19h2M9 20h1M24 20h2M9 21h2M25 21h2M10 22h2M26 22h1M11 23h2M18 23h2M26 23h1M12 24h9M25 24h2M20 25h2M24 25h2M21 26h4" />
<path stroke="#202020" d="M7 6h3M6 7h1M10 7h1M6 8h1M11 8h1M6 9h1M12 9h1M7 10h1M13 10h1M8 11h1M14 11h1M9 12h1M15 12h1M10 13h1M16 13h1M11 14h1M17 14h2M11 15h1M19 15h1M10 16h1M20 16h1M10 17h1M20 17h1M10 18h1M21 18h1M10 19h1M17 19h1M22 19h1M10 20h1M16 20h1M23 20h1M11 21h2M24 21h1M12 22h1M18 22h2M25 22h1M13 23h5M20 23h1M25 23h1M21 24h1M24 24h1M22 25h2" />
<path stroke="#eeeef6" d="M7 7h1M12 15h3M17 15h1M11 16h1M15 17h1M14 18h1M22 22h1" />
<path stroke="#c5c5de" d="M8 7h1M7 8h1M8 9h1M9 10h1M10 11h1M11 12h1M12 13h1M18 15h1M12 16h2M17 16h3M11 17h2M16 17h1M18 17h1M11 18h2M15 18h2M11 19h2M14 19h2M18 19h1M17 20h1M15 21h2M20 21h1M21 22h1M21 23h1" />
<path stroke="#a4c5f6" d="M9 7h1M10 8h1M11 9h1M12 10h1M13 11h1M14 12h1M15 13h1M16 14h1M20 18h1M21 19h1M22 20h1M23 21h1" />
<path stroke="#f6e67b" d="M8 8h1M9 9h2M10 10h1M11 11h2M12 12h1M13 13h2M16 15h1M20 19h1M20 20h1M21 21h2" />
<path stroke="#52529c" d="M9 8h1M11 10h1M13 12h1M21 20h1M23 22h1M22 23h1" />
<path stroke="#5283bd" d="M7 9h1M8 10h1M9 11h1M10 12h1M11 13h1M12 14h1M15 14h1M19 17h1M19 18h1M19 21h1M20 22h1M24 22h1M23 23h2M22 24h2" />
<path stroke="#4a5a73" d="M13 14h2M15 15h1M14 16h3M13 17h1M17 17h1M17 18h2M16 19h1M19 19h1M12 20h2M15 20h1M19 20h1M13 21h1" />
<path stroke="#94a4c5" d="M14 17h1M13 19h1M11 20h1M18 20h1M14 21h1M17 21h2M14 22h4" />
<path stroke="#6a8bbd" d="M13 18h1M14 20h1M13 22h1" />
</svg>