<svg xmlns="http://www.w3.org/2000/svg" viewBox="0 -0.5 32 32" shape-rendering="crispEdges">
<metadata>Made with Pixels to Svg https://codepen.io/shshaw/pen/XbxvNj</metadata>
<path stroke="#ffffff" d="M9 4h16M8 5h2M24 5h2M7 6h2M25 6h1M6 7h2M25 7h1M6 8h1M25 8h1M6 9h1M25 9h1M6 10h1M25 10h1M6 11h1M25 11h2M6 12h1M26 12h1M6 13h1M26 13h1M5 14h2M26 14h1M5 15h1M25 15h2M5 16h1M25 16h1M5 17h1M25 17h1M5 18h2M25 18h1M6 19h1M25 19h1M6 20h1M25 20h1M6 21h1M25 21h1M6 22h1M25 22h1M6 23h1M24 23h2M6 24h1M23 24h2M6 25h1M22 25h2M6 26h2M21 26h2M7 27h15" />
<path stroke="#202020" d="M10 5h14M9 6h1M24 6h1M8 7h1M24 7h1M7 8h1M24 8h1M7 9h1M24 9h1M7 10h1M24 10h1M7 11h1M24 11h1M7 12h1M25 12h1M7 13h1M25 13h1M7 14h1M25 14h1M6 15h1M24 15h1M6 16h1M24 16h1M6 17h1M24 17h1M7 18h1M24 18h1M7 19h1M24 19h1M7 20h1M24 20h1M7 21h1M24 21h1M7 22h1M24 22h1M7 23h1M23 23h1M7 24h1M22 24h1M7 25h1M21 25h1M8 26h13" />
<path stroke="#eebd5a" d="M10 6h2M13 6h3M17 6h3M21 6h1M23 6h1M9 7h1M22 7h1M10 8h1M14 8h1M18 8h1M8 9h1M20 9h1M8 10h1M20 10h1M8 13h1M20 13h1M9 16h1M12 16h1M15 16h1M18 16h1M8 17h1M10 17h2M13 17h2M16 17h2M19 17h2M8 21h1M20 21h1M8 24h1M20 24h1M8 25h2M12 25h2M16 25h2M19 25h2" />
<path stroke="#d59452" d="M12 6h1M16 6h1M20 6h1M10 7h11M23 7h1M21 8h2M21 9h1M23 9h1M22 10h2M8 11h1M20 11h1M22 11h2M22 12h1M8 14h1M20 14h1M22 15h1M22 16h1M9 17h1M12 17h1M15 17h1M18 17h1M23 18h1M8 19h1M20 19h1M22 19h2M22 20h1M23 21h1M8 22h1M20 22h1M22 22h2M22 23h1M10 25h1M14 25h1M18 25h1" />
<path stroke="#ffde9c" d="M22 6h1M21 7h1M9 8h1M12 8h2M16 8h2M20 8h1M8 12h1M20 12h1M7 17h1M8 20h1M20 20h1M8 23h1M20 23h1M11 25h1M15 25h1" />
<path stroke="#ffeecd" d="M8 8h1M11 8h1M15 8h1M19 8h1M7 16h2M10 16h2M13 16h2M16 16h2M19 16h2" />
<path stroke="#ac7341" d="M23 8h1M22 9h1M19 10h1M21 10h1M19 11h1M21 11h1M19 12h1M21 12h1M23 12h1M19 13h1M21 13h2M24 13h1M21 14h1M23 14h2M9 15h1M12 15h1M15 15h1M18 15h1M23 15h1M21 16h1M21 17h1M23 17h1M22 18h1M21 19h1M19 20h1M21 20h1M23 20h1M19 21h1M21 21h2M19 22h1M21 22h1M19 23h1M21 23h1M21 24h1" />
<path stroke="#83624a" d="M9 9h11M9 10h1M9 11h1M9 12h1M24 12h1M9 13h1M23 13h1M9 14h1M19 14h1M22 14h1M7 15h2M10 15h2M13 15h2M16 15h2M19 15h3M23 16h1M22 17h1M8 18h14M9 19h1M19 19h1M9 20h1M9 21h1M9 22h1M9 23h1M9 24h11" />
<path stroke="#ffb473" d="M10 10h1M10 11h1M10 12h1M10 13h1M10 14h1M10 19h1M10 20h1M10 21h1M10 22h1M10 23h1" />
<path stroke="#ffff31" d="M11 10h1M17 10h1M11 11h2M16 11h2M12 12h5M13 13h3M11 19h1M17 19h1M11 20h2M16 20h2M12 21h5M13 22h3" />
<path stroke="#b4b44a" d="M12 10h1M16 10h1M12 19h1M16 19h1" />
<path stroke="#737373" d="M13 10h3M13 11h3M13 19h3M13 20h3" />
<path stroke="#ff9c41" d="M18 10h1M18 11h1M18 12h1M11 13h1M17 13h2M11 14h8M18 19h1M18 20h1M18 21h1M11 22h1M17 22h2M11 23h8" />
<path stroke="#ffc531" d="M11 12h1M17 12h1M12 13h1M16 13h1M11 21h1M17 21h1M12 22h1M16 22h1" />
</svg>