<svg xmlns="http://www.w3.org/2000/svg" viewBox="0 -0.5 32 32" shape-rendering="crispEdges">
<metadata>Made with Pixels to Svg https://codepen.io/shshaw/pen/XbxvNj</metadata>
<path stroke="#ffffff" d="M19 5h6M18 6h2M24 6h2M17 7h2M25 7h2M16 8h2M26 8h1M15 9h2M26 9h1M10 10h6M26 10h1M8 11h3M26 11h1M7 12h2M25 12h2M6 13h2M24 13h2M6 14h1M23 14h2M5 15h2M22 15h2M5 16h1M21 16h2M5 17h1M21 17h1M5 18h1M21 18h1M5 19h1M21 19h1M5 20h1M21 20h1M4 21h2M20 21h2M4 22h1M20 22h1M4 23h1M19 23h2M4 24h1M18 24h2M4 25h2M16 25h3M5 26h2M10 26h7M6 27h5" />
<path stroke="#303030" d="M20 6h4M19 7h1M24 7h1M18 8h1M25 8h1M17 9h1M25 9h1M16 10h1M20 10h2M25 10h1M11 11h5M20 11h2M25 11h1M9 12h2M18 12h2M24 12h1M8 13h1M19 13h1M23 13h1M7 14h1M22 14h1M7 15h1M21 15h1M6 16h1M20 16h1M6 17h1M20 17h1M6 18h1M20 18h1M6 19h1M20 19h1M6 20h1M20 20h1M6 21h1M19 21h1M5 22h1M7 22h2M19 22h1M5 23h1M7 23h3M18 23h1M5 24h1M8 24h2M16 24h2M6 25h1M10 25h6M7 26h3" />
<path stroke="#e8d060" d="M20 7h1M23 7h1M22 8h2M18 9h1M20 9h2M17 10h1M19 10h1M22 10h1M16 11h1M18 11h2M22 11h1M20 12h1M20 13h1M9 20h2M7 21h3" />
<path stroke="#f8f080" d="M21 7h2M19 9h1M18 10h1M17 11h1M8 20h1" />
<path stroke="#d05038" d="M19 8h3M22 9h1M9 14h3M12 15h1M7 16h1M12 16h3M7 17h2M11 17h5M7 18h2M10 18h6M7 19h1M11 19h5M12 20h4M13 21h2" />
<path stroke="#c0a830" d="M24 8h1M23 9h2M24 10h1M24 11h1M21 12h2M21 13h2M20 14h2M20 15h1M7 20h1M10 21h2M6 22h1M9 22h3M10 23h2M10 24h1" />
<path stroke="#a02008" d="M23 10h1M23 11h1M23 12h1M8 14h1M12 14h1M13 15h2M15 16h1M16 17h1M16 18h1M8 19h3M17 19h1M11 20h1M17 20h1M12 21h1M17 21h1M12 22h1M17 22h1M12 23h1M17 23h1" />
<path stroke="#e8e8f0" d="M11 12h5M9 13h8M13 14h5M15 15h3M16 16h2M17 17h1" />
<path stroke="#787880" d="M16 12h2M18 13h1M19 14h1M19 15h1" />
<path stroke="#c8c8d0" d="M17 13h1M18 14h1M18 15h1M18 16h2M18 17h2M17 18h3M18 19h2M18 20h2M18 21h1M18 22h1" />
<path stroke="#f07058" d="M8 15h1M11 15h1M8 16h1M11 16h1M9 17h2M9 18h1" />
<path stroke="#f8f8f8" d="M9 15h2M9 16h2" />
<path stroke="#b83820" d="M16 19h1M16 20h1M15 21h2M13 22h4M13 23h4M12 24h4" />
<path stroke="#906028" d="M6 23h1M6 24h2M11 24h1M7 25h3" />
</svg>