<svg xmlns="http://www.w3.org/2000/svg" viewBox="0 -0.5 32 32" shape-rendering="crispEdges">
<metadata>Made with Pixels to Svg https://codepen.io/shshaw/pen/XbxvNj</metadata>
<path stroke="#ffffff" d="M23 4h4M21 5h3M26 5h2M20 6h2M27 6h1M19 7h2M27 7h1M18 8h2M26 8h2M17 9h2M26 9h1M16 10h2M25 10h2M15 11h2M24 11h2M14 12h2M23 12h2M10 13h5M22 13h2M9 14h2M21 14h2M8 15h2M20 15h2M8 16h1M19 16h2M8 17h1M18 17h2M8 18h1M18 18h1M6 19h3M18 19h1M5 20h2M18 20h1M5 21h1M17 21h2M5 22h1M16 22h2M5 23h1M12 23h5M5 24h2M12 24h1M6 25h2M11 25h2M7 26h5" />
<path stroke="#202020" d="M24 5h2M22 6h2M26 6h1M21 7h1M26 7h1M20 8h1M25 8h1M19 9h1M25 9h1M18 10h1M24 10h1M17 11h1M23 11h1M16 12h1M22 12h1M15 13h1M21 13h1M11 14h4M20 14h1M10 15h1M19 15h1M9 16h1M18 16h1M9 17h1M17 17h1M9 18h1M17 18h1M9 19h1M17 19h1M7 20h2M17 20h1M6 21h1M16 21h1M6 22h1M12 22h4M6 23h1M11 23h1M7 24h1M11 24h1M8 25h3" />
<path stroke="#d5a462" d="M24 6h1M23 7h1M21 9h1M20 10h1M19 11h1M18 12h1M17 13h1M11 19h1M10 20h1" />
<path stroke="#b48b4a" d="M25 6h1M24 7h1M20 9h1M19 10h1M22 10h1M18 11h1M20 11h2M17 12h1M20 12h1M16 13h1M18 13h2M15 14h2M18 14h1M16 15h2M10 19h1M9 20h1M11 20h2M10 21h2" />
<path stroke="#a40808" d="M22 7h1M21 8h1M23 8h1M22 9h1M11 15h1M10 16h1M14 16h1M15 17h1M10 18h2M13 19h3M14 20h1" />
<path stroke="#836a41" d="M25 7h1M24 8h1M22 11h1M21 12h1M20 13h1M19 14h1M18 15h1M17 16h1M12 21h1M11 22h1" />
<path stroke="#de2929" d="M22 8h1M23 9h1M12 15h1M13 16h1M13 17h2M12 18h3" />
<path stroke="#6a1010" d="M24 9h1M23 10h1M15 18h1M12 19h1M16 19h1M13 20h1M15 20h2M13 21h3" />
<path stroke="#524a39" d="M21 10h1M19 12h1M17 14h1" />
<path stroke="#bdbdbd" d="M13 15h1M15 15h1M16 16h1M16 17h1M16 18h1" />
<path stroke="#fffff6" d="M14 15h1M15 16h1" />
<path stroke="#ff8383" d="M11 16h2M11 17h2" />
<path stroke="#c52929" d="M10 17h1" />
<path stroke="#835229" d="M7 21h3M7 22h1M9 22h2M7 23h1M10 23h1M8 24h3" />
<path stroke="#413929" d="M8 22h1M8 23h2" />
</svg>