<svg xmlns="http://www.w3.org/2000/svg" viewBox="0 -0.5 32 32" shape-rendering="crispEdges">
<metadata>Made with Pixels to Svg https://codepen.io/shshaw/pen/XbxvNj</metadata>
<path stroke="#ffffff" d="M10 6h11M9 7h2M20 7h2M9 8h1M21 8h4M8 9h2M24 9h2M7 10h2M25 10h1M6 11h2M25 11h1M5 12h2M25 12h1M5 13h1M25 13h1M5 14h1M25 14h1M5 15h1M25 15h1M5 16h1M25 16h1M5 17h1M25 17h1M5 18h1M25 18h1M5 19h1M25 19h1M5 20h1M25 20h1M5 21h1M24 21h2M5 22h1M23 22h2M5 23h1M22 23h2M5 24h2M21 24h2M6 25h16" />
<path stroke="#202020" d="M11 7h9M10 8h1M20 8h1M10 9h1M13 9h5M20 9h4M9 10h2M12 10h1M18 10h1M20 10h1M24 10h1M8 11h1M11 11h2M18 11h2M24 11h1M7 12h1M24 12h1M6 13h1M24 13h1M6 14h1M24 14h1M6 15h1M24 15h1M6 16h1M24 16h1M6 17h1M24 17h1M6 18h1M24 18h1M6 19h1M24 19h1M6 20h1M24 20h1M6 21h1M23 21h1M6 22h1M22 22h1M6 23h1M21 23h1M7 24h14" />
<path stroke="#aca483" d="M11 8h9M12 9h1M18 9h1" />
<path stroke="#a48373" d="M11 9h1M19 9h1M11 10h1M19 10h1" />
<path stroke="#e6529c" d="M13 10h5M23 11h1M22 12h1M21 13h2M20 14h2M7 15h1M20 15h1M22 16h1M21 17h2M7 18h1M20 18h3M7 19h1M20 19h2M7 20h1M20 20h1M8 23h12" />
<path stroke="#ff9ccd" d="M21 10h2M9 11h1M21 11h1M8 12h13M8 13h11M7 14h1M19 14h1" />
<path stroke="#ffc5de" d="M23 10h1M7 13h1M19 13h1M13 17h1" />
<path stroke="#a43162" d="M10 11h1M20 11h1M23 14h1M22 15h1M12 16h3M21 16h1M12 17h1M14 17h1M20 17h1M13 18h1" />
<path stroke="#e67ba4" d="M13 11h5M22 11h1M21 12h1M20 13h1M8 14h11M8 15h12M8 16h4M15 16h4M8 18h4M15 18h5M8 19h12M8 20h12M8 21h1M11 21h1M14 21h1M17 21h1" />
<path stroke="#de398b" d="M23 12h1M23 13h1M22 14h1M21 15h1M23 15h1M7 16h1M19 16h2M23 16h1M7 17h5M15 17h5M23 17h1M12 18h1M14 18h1M23 20h1M22 21h1M21 22h1M7 23h1M20 23h1" />
<path stroke="#b49ce6" d="M23 18h1M22 19h2M21 20h2M7 21h1M20 21h2M7 22h1M20 22h1" />
<path stroke="#d5c5ff" d="M9 21h2M12 21h2M15 21h2M18 21h2M8 22h12" />
</svg>