<svg xmlns="http://www.w3.org/2000/svg" viewBox="0 -0.5 32 32" shape-rendering="crispEdges">
<metadata>Made with Pixels to Svg https://codepen.io/shshaw/pen/XbxvNj</metadata>
<path stroke="#ffffff" d="M12 7h8M10 8h3M19 8h3M9 9h2M21 9h2M8 10h2M22 10h2M8 11h1M23 11h1M7 12h2M23 12h2M7 13h1M24 13h1M7 14h1M24 14h1M7 15h1M24 15h1M7 16h1M24 16h1M7 17h1M24 17h1M7 18h1M24 18h1M7 19h2M23 19h2M8 20h1M23 20h1M8 21h2M22 21h2M9 22h2M21 22h2M10 23h3M19 23h3M12 24h8" />
<path stroke="#944035" d="M13 8h2M18 8h1M22 12h1M8 13h1M23 14h1M21 16h1M18 20h2M14 21h3M12 22h1M19 22h1M17 23h1" />
<path stroke="#303030" d="M15 8h2M11 9h1M20 9h1M10 10h1M21 10h1M9 11h1M22 11h1M8 15h1M23 15h1M8 16h1M23 16h1M9 20h1M22 20h1M10 21h1M21 21h1M11 22h1M20 22h1M15 23h2" />
<path stroke="#934035" d="M17 8h1M12 9h1M19 9h1M23 13h1M8 17h1M21 17h1M23 17h1M8 18h1M21 18h1M23 18h1M20 19h1M17 20h1M20 20h1M17 21h2M13 23h2M18 23h1" />
<path stroke="#e57064" d="M13 9h1M10 11h1M19 11h1M21 11h1M20 12h1M22 13h1M17 15h1M22 15h1M10 16h1M20 16h1M22 16h1M11 17h1M15 17h1M18 17h1M12 18h2M15 18h3M13 19h2M10 20h1" />
<path stroke="#dc9897" d="M14 9h2M12 10h1M14 10h1M19 10h2M15 11h2M10 12h1M16 12h1M9 14h2M9 15h3M9 16h1M13 16h1M12 17h1M21 19h1" />
<path stroke="#db9897" d="M16 9h1M18 9h1M15 10h2M11 11h1M20 11h1M17 12h1M16 14h1M15 15h1M14 16h1M9 17h2M22 17h1M9 18h1M11 18h1M16 22h2" />
<path stroke="#db9796" d="M17 9h1M13 10h1M17 10h2M10 13h1M16 13h2M11 16h1M19 21h1" />
<path stroke="#e57065" d="M11 10h1M17 11h1M18 12h1M9 13h1M19 13h1M21 13h1M17 14h2M20 14h1M22 14h1M16 15h1M19 15h1M12 16h1M15 16h4M13 17h2M16 17h1M10 18h1M14 18h1M11 19h2M15 19h1M15 22h1" />
<path stroke="#fac7c7" d="M12 11h1M20 21h1" />
<path stroke="#fac8c7" d="M13 11h1M17 17h1" />
<path stroke="#fbc8c7" d="M14 11h1M11 12h1M11 13h1M11 14h1M15 14h1M12 15h3M21 20h1M18 22h1" />
<path stroke="#c45043" d="M18 11h1M17 19h1" />
<path stroke="#944135" d="M9 12h1" />
<path stroke="#f8f8f8" d="M12 12h3M12 13h3M12 14h3" />
<path stroke="#fbc8c8" d="M15 12h1M15 13h1M22 18h1" />
<path stroke="#c55044" d="M19 12h1M21 12h1M18 13h1M20 13h1M21 14h1M18 15h1M20 15h2M19 17h2M19 18h2M16 19h1M18 19h2M22 19h1M12 20h3M11 21h1M13 21h1M14 22h1" />
<path stroke="#944136" d="M8 14h1" />
<path stroke="#c45044" d="M19 14h1M19 16h1M18 18h1M9 19h1M11 20h1M15 20h2M12 21h1M13 22h1" />
<path stroke="#db9896" d="M10 19h1" />
</svg>