<svg xmlns="http://www.w3.org/2000/svg" viewBox="0 -0.5 32 32" shape-rendering="crispEdges">
<metadata>Made with Pixels to Svg https://codepen.io/shshaw/pen/XbxvNj</metadata>
<path stroke="#ffffff" d="M12 1h8M11 2h2M19 2h2M10 3h2M20 3h2M10 4h1M21 4h1M7 5h4M14 5h4M21 5h7M6 6h2M27 6h2M5 7h2M28 7h1M4 8h2M28 8h1M4 9h1M28 9h1M4 10h1M28 10h1M4 11h1M28 11h1M4 12h1M28 12h1M4 13h1M28 13h1M4 14h1M28 14h1M4 15h1M28 15h1M4 16h1M28 16h1M4 17h1M28 17h1M4 18h1M28 18h1M4 19h1M28 19h1M4 20h1M28 20h1M4 21h1M28 21h1M4 22h1M28 22h1M4 23h1M28 23h1M4 24h1M28 24h1M4 25h1M28 25h1M4 26h1M28 26h1M4 27h1M27 27h2M4 28h1M26 28h2M4 29h2M25 29h2M5 30h21" />
<path stroke="#202020" d="M13 2h6M12 3h1M19 3h1M11 4h1M13 4h6M20 4h1M11 5h1M13 5h1M18 5h1M20 5h1M8 6h4M13 6h6M20 6h7M7 7h1M11 7h1M13 7h1M18 7h1M20 7h1M27 7h1M6 8h1M27 8h1M5 9h1M27 9h1M5 10h1M27 10h1M5 11h1M27 11h1M5 12h1M27 12h1M5 13h1M27 13h1M5 14h1M27 14h1M5 15h1M27 15h1M5 16h1M27 16h1M5 17h1M27 17h1M5 18h1M27 18h1M5 19h1M27 19h1M5 20h1M27 20h1M5 21h1M27 21h1M5 22h1M27 22h1M5 23h1M27 23h1M5 24h1M27 24h1M5 25h1M27 25h1M5 26h1M27 26h1M5 27h1M26 27h1M5 28h1M25 28h1M6 29h19" />
<path stroke="#626262" d="M13 3h6M12 4h1M19 4h1M12 5h1M19 5h1M12 6h1M19 6h1M12 7h1M19 7h1" />
<path stroke="#eeb400" d="M8 7h3M14 7h4M21 7h6M7 8h1M11 8h3M18 8h3M25 8h1M24 9h1M11 11h10M10 12h11M9 13h13M8 14h15M7 15h17M7 16h17M7 17h17M7 18h17M7 19h17M7 20h17M7 21h17M7 22h17M7 23h17M8 24h15M9 25h13M10 26h11M11 27h9" />
<path stroke="#eede9c" d="M8 8h3M14 8h4M21 8h4M6 9h18" />
<path stroke="#bd9400" d="M26 8h1M25 9h1M10 10h1M10 11h1M9 12h1M21 12h1M8 13h1M22 13h1M6 14h2M23 14h2M24 15h1M24 16h1M24 17h1M24 18h1M24 19h1M24 20h1M24 21h1M24 22h1M24 23h1M8 25h1M9 26h1M10 27h1M10 28h10" />
<path stroke="#835a31" d="M26 9h1M26 10h1M26 11h1M26 12h1M25 13h2M25 14h2M25 15h2M25 16h2M25 17h2M25 18h2M25 19h2M25 20h2M25 21h2M25 22h2M25 23h2M25 24h2M26 25h1M26 26h1" />
<path stroke="#ee7b18" d="M6 10h4M21 10h4M6 24h2M23 24h2M22 25h1M21 26h1M20 27h1M20 28h1" />
<path stroke="#f6d552" d="M11 10h10M6 15h1M6 16h1M6 17h1M6 18h1M6 19h1M6 20h1M6 21h1M6 22h1M6 23h1" />
<path stroke="#9c3120" d="M25 10h1M25 11h1M25 12h1M25 25h1M25 26h1M25 27h1" />
<path stroke="#bd6218" d="M6 11h4M21 11h4M6 12h3M22 12h3M6 13h2M23 13h2M6 25h2M23 25h2M6 26h3M22 26h3M6 27h4M21 27h4M6 28h4M21 28h4" />
</svg>