<svg xmlns="http://www.w3.org/2000/svg" viewBox="0 -0.5 32 32" shape-rendering="crispEdges">
<metadata>Made with Pixels to Svg https://codepen.io/shshaw/pen/XbxvNj</metadata>
<path stroke="#ffffff" d="M13 4h10M11 5h3M22 5h2M10 6h2M23 6h1M9 7h2M23 7h2M8 8h2M24 8h2M8 9h1M25 9h1M7 10h2M25 10h1M7 11h1M24 11h2M6 12h2M24 12h2M6 13h1M25 13h1M5 14h2M25 14h1M5 15h1M25 15h1M5 16h1M25 16h1M5 17h1M25 17h1M5 18h2M25 18h1M6 19h2M24 19h2M7 20h1M24 20h1M7 21h1M23 21h2M7 22h1M23 22h1M7 23h2M22 23h2M8 24h1M21 24h2M8 25h2M20 25h2M9 26h12" />
<path stroke="#202020" d="M14 5h8M12 6h2M22 6h1M11 7h1M22 7h1M10 8h1M23 8h1M9 9h1M24 9h1M9 10h1M24 10h1M8 11h1M23 11h1M8 12h1M23 12h1M7 13h1M22 13h1M24 13h1M7 14h1M22 14h1M24 14h1M6 15h1M20 15h2M24 15h1M6 16h1M18 16h2M24 16h1M6 17h1M18 17h1M24 17h1M7 18h1M16 18h2M24 18h1M8 19h1M13 19h4M23 19h1M8 20h5M16 20h1M23 20h1M8 21h1M16 21h1M22 21h1M8 22h1M16 22h1M22 22h1M9 23h1M17 23h1M21 23h1M9 24h1M20 24h1M10 25h10" />
<path stroke="#848484" d="M14 6h1M16 6h2M19 6h2M12 7h1M21 9h2M20 10h3M20 11h2M19 13h2M9 14h1M11 14h3M15 14h1M18 14h2M7 15h2M10 15h4M15 15h2M7 16h1M9 16h1M12 16h1M14 16h3M10 17h2M14 17h1" />
<path stroke="#636363" d="M15 6h1M18 6h1M21 6h1M20 7h2M18 8h1M21 8h2M20 9h1M17 10h1M23 10h1M19 11h1M22 11h1M16 12h1M19 12h4M18 13h1M21 13h1M23 13h1M10 14h1M14 14h1M20 14h2M23 14h1M9 15h1M14 15h1M18 15h2M23 15h1M17 16h1M23 16h1M7 17h1M15 17h3M23 17h1M14 18h2M23 18h1M22 19h1M13 20h3M22 20h1M9 21h7M21 21h1M9 22h7M21 22h1M10 23h7M20 23h1M10 24h10" />
<path stroke="#424242" d="M13 7h6M12 8h1M17 8h1M12 9h1M17 9h1M11 10h1M16 10h1M11 11h1M16 11h1M10 12h1M15 12h1M10 13h6" />
<path stroke="#238ff4" d="M19 7h1M10 9h1M18 10h1M18 11h1M9 12h1M16 13h1M16 14h1M8 16h1M10 16h2M13 16h1M9 17h1M12 17h2M9 18h1M12 18h1" />
<path stroke="#2390f4" d="M11 8h1M19 8h1M23 9h1M9 11h1M17 11h1M8 17h1" />
<path stroke="#4a4a4a" d="M13 8h4M13 9h4M12 10h4M12 11h4M11 12h4" />
<path stroke="#0b5fb1" d="M20 8h1M11 9h1M19 10h1M18 12h1M9 13h1M8 14h1M8 18h1M11 19h2" />
<path stroke="#238ff3" d="M18 9h1M10 10h1M17 12h1M8 13h1M17 13h1M10 18h2" />
<path stroke="#2490f4" d="M19 9h1" />
<path stroke="#0b5fb0" d="M10 11h1" />
<path stroke="#0c5fb1" d="M17 14h1M17 15h1M13 18h1M9 19h2" />
<path stroke="#a5a5a5" d="M22 15h1M20 16h3M19 17h4M18 18h1M22 18h1M17 19h1M20 22h1M18 23h2" />
<path stroke="#c5c5c5" d="M19 18h3M18 19h4M17 20h5M17 21h4M17 22h3" />
</svg>