<svg xmlns="http://www.w3.org/2000/svg" viewBox="0 -0.5 32 32" shape-rendering="crispEdges">
<metadata>Made with Pixels to Svg https://codepen.io/shshaw/pen/XbxvNj</metadata>
<path stroke="#ffffff" d="M14 8h7M12 9h3M20 9h2M10 10h3M21 10h2M9 11h2M22 11h2M8 12h2M17 12h1M23 12h2M8 13h1M17 13h2M24 13h1M8 14h1M18 14h2M24 14h1M8 15h1M19 15h1M24 15h1M8 16h1M24 16h1M8 17h1M24 17h1M8 18h1M24 18h1M8 19h1M23 19h2M8 20h2M23 20h1M9 21h2M22 21h2M10 22h2M21 22h2M11 23h2M20 23h2M12 24h9" />
<path stroke="#202020" d="M15 9h5M13 10h2M20 10h1M11 11h2M21 11h1M10 12h1M22 12h1M9 13h1M23 13h1M9 14h1M23 14h1M9 15h1M23 15h1M9 16h1M23 16h1M9 17h1M23 17h1M9 18h1M23 18h1M9 19h1M22 19h1M10 20h1M22 20h1M11 21h1M21 21h1M12 22h1M20 22h1M13 23h7" />
<path stroke="#83a420" d="M15 10h1M13 11h2M11 12h2M10 13h1M10 14h1M10 15h1M10 16h1" />
<path stroke="#9cd531" d="M16 10h4M15 11h1M14 12h1M21 12h1M14 13h1M22 13h1M14 14h1M22 14h1M13 15h1M15 15h1M22 15h1M12 16h1M16 16h1M21 16h1M11 17h1M17 17h4M12 18h1M16 18h1M21 18h1M13 19h1M15 19h1M14 20h1" />
<path stroke="#7b9c20" d="M16 11h1M18 11h1M15 12h1M15 13h1M20 13h1M17 14h1M20 14h1M17 15h1M21 15h1M19 16h1M21 19h1" />
<path stroke="#6a7b31" d="M17 11h1M19 11h1M16 12h1M18 12h1M20 12h1M21 13h1M15 14h1M21 14h1M16 15h1M18 15h1M20 15h1M17 16h1M20 16h1M21 20h1M15 21h1M16 22h1" />
<path stroke="#a4d531" d="M20 11h1" />
<path stroke="#9c9494" d="M13 12h1M13 13h1M13 14h1M14 15h1M15 16h1M16 17h1" />
<path stroke="#7b8b41" d="M19 12h1M16 13h1M19 13h1M16 14h1M18 16h1" />
<path stroke="#7b6a6a" d="M11 13h2M11 14h2M11 15h2M11 16h1M13 16h2M22 16h1M10 17h1M13 17h3M21 17h2M11 18h1M14 18h2M17 18h4M12 19h1M13 20h1" />
<path stroke="#5a5252" d="M12 17h1M10 18h1M13 18h1M22 18h1M10 19h2M14 19h1M16 19h1M11 20h2M15 20h1M12 21h3M13 22h1" />
<path stroke="#413939" d="M17 19h4M16 20h5M16 21h5M14 22h2M17 22h3" />
</svg>