<svg xmlns="http://www.w3.org/2000/svg" viewBox="0 -0.5 48 48" shape-rendering="crispEdges">
<metadata>Made with Pixels to Svg https://codepen.io/shshaw/pen/XbxvNj</metadata>
<path stroke="#9c9c9c" d="M19 8h1M24 8h1M26 9h1M15 12h1M29 12h1M14 14h1M30 14h1M23 17h1M33 17h1M37 17h1M32 18h1M38 18h1M21 20h1M13 21h1M30 21h1M11 22h1M29 23h1M31 23h1M30 24h1M8 25h1M38 26h1M7 27h1M37 29h1M7 33h1M25 33h1M27 33h1M26 34h1M8 35h1M24 35h1M40 35h1M26 37h1M11 38h1M21 38h1M27 38h1M31 38h1M40 38h1M13 39h1M19 39h1M35 40h1M38 40h1" />
<path stroke="#525252" d="M20 8h4M18 9h8M17 10h3M25 10h3M16 11h3M27 11h2M16 12h2M28 12h1M15 13h2M28 13h2M15 14h2M29 14h1M14 15h2M21 15h3M29 15h2M14 16h2M20 16h5M29 16h2M14 17h2M20 17h2M24 17h2M29 17h2M34 17h3M14 18h2M19 18h2M24 18h2M29 18h2M33 18h5M14 19h2M19 19h2M24 19h1M29 19h2M32 19h2M37 19h2M14 20h2M19 20h2M23 20h2M29 20h2M32 20h2M37 20h2M14 21h10M29 21h1M32 21h2M37 21h2M12 22h10M28 22h2M32 22h2M37 22h2M10 23h3M28 23h1M32 23h1M37 23h2M9 24h3M27 24h2M31 24h2M37 24h2M9 25h2M26 25h6M37 25h2M8 26h2M26 26h4M36 26h2M8 27h1M25 27h2M36 27h2M7 28h2M25 28h2M36 28h2M7 29h2M25 29h2M35 29h2M7 30h2M24 30h6M35 30h2M7 31h2M24 31h7M35 31h2M7 32h2M24 32h2M29 32h2M35 32h3M8 33h1M24 33h1M28 33h3M36 33h3M8 34h2M23 34h2M27 34h2M38 34h2M9 35h2M22 35h2M26 35h2M39 35h1M9 36h3M21 36h3M26 36h2M31 36h2M39 36h2M10 37h3M20 37h3M27 37h8M39 37h2M12 38h9M28 38h3M33 38h2M39 38h1M14 39h5M34 39h6M36 40h2" />
<path stroke="#628b39" d="M20 10h1M24 10h1M26 11h1M27 12h1M21 14h3M28 14h1M16 15h1M20 15h1M24 15h1M25 16h1M19 17h1M25 19h1M24 21h1M28 21h1M22 22h1M27 23h1M33 23h1M35 23h2M32 25h1M36 25h1M25 26h1M30 26h1M27 27h1M35 28h1M23 29h2M31 29h2M30 30h2M31 31h1M31 32h1M37 34h1M38 35h1M30 36h1M33 36h1M35 37h1M35 38h1M38 38h1" />
<path stroke="#94c56a" d="M21 10h3M19 11h1M25 11h1M18 12h1M26 12h1M20 13h1M27 14h1M18 15h1M16 17h2M16 18h2M16 19h2M27 19h1M34 19h1M17 20h1M27 20h1M26 22h1M36 22h1" />
<path stroke="#ace68b" d="M20 11h5M19 12h7M18 13h2M24 13h3M17 14h2M25 14h2M17 15h1M26 15h2M17 16h1M26 16h2M26 17h2M26 18h2M26 19h1M35 19h1M26 20h1M34 20h3M25 21h2M34 21h3M24 22h2M35 22h1M20 23h6M20 24h5M20 25h4M21 26h2M34 33h1M34 34h3M35 35h3" />
<path stroke="#73a44a" d="M17 13h1M21 13h3M27 13h1M19 14h2M24 14h1M19 15h1M25 15h1M28 15h1M16 16h1M18 16h2M28 16h1M18 17h1M28 17h1M18 18h1M28 18h1M18 19h1M28 19h1M36 19h1M16 20h1M18 20h1M25 20h1M28 20h1M27 21h1M23 22h1M27 22h1M34 22h1M19 23h1M26 23h1M34 23h1M19 24h1M25 24h2M33 24h4M24 25h2M33 25h3M20 26h1M23 26h2M31 26h5M21 27h4M28 27h8M22 28h3M27 28h8M27 29h4M33 29h2M32 30h3M32 31h3M32 32h3M31 33h3M35 33h1M29 34h5M28 35h7M28 36h2M34 36h5M36 37h3M36 38h2" />
<path stroke="#945252" d="M13 23h1M9 27h1M9 33h1M23 33h1M13 37h1M19 37h1" />
<path stroke="#d55a52" d="M14 23h5M12 24h1M17 24h2M11 25h1M18 25h2M10 26h1M19 26h1M20 27h1M9 28h1M20 28h2M21 29h2M21 30h3M21 31h3M9 32h1M21 32h3M20 33h3M10 34h1M19 34h4M11 35h2M18 35h4M12 36h9M14 37h5" />
<path stroke="#e66a52" d="M13 24h4M12 25h2M17 25h1M11 26h2M18 26h1M10 27h3M18 27h2M10 28h3M18 28h2M9 29h5M17 29h4M9 30h12M9 31h12M10 32h11M10 33h10M11 34h8M13 35h5" />
<path stroke="#eea45a" d="M14 25h3M13 26h5M13 27h5M13 28h5M14 29h3" />
</svg>