<svg xmlns="http://www.w3.org/2000/svg" viewBox="0 -0.5 48 48" shape-rendering="crispEdges">
<metadata>Made with Pixels to Svg https://codepen.io/shshaw/pen/XbxvNj</metadata>
<path stroke="#9c9c9c" d="M8 5h1M7 6h1M18 7h1M23 8h1M28 9h1M33 10h1M7 11h1M36 11h1M41 16h1M41 22h1M7 28h1M40 29h1M7 35h1M39 37h1M12 40h1M19 40h3M38 40h1M28 41h1M37 41h1" />
<path stroke="#525252" d="M9 5h4M8 6h6M7 7h2M12 7h6M7 8h2M12 8h11M7 9h2M18 9h10M7 10h3M23 10h10M8 11h2M28 11h8M8 12h2M32 12h6M8 13h2M36 13h3M8 14h2M37 14h3M8 15h2M38 15h3M8 16h2M39 16h2M8 17h2M39 17h3M8 18h2M40 18h2M8 19h2M40 19h2M8 20h2M40 20h2M8 21h2M39 21h3M8 22h2M39 22h2M8 23h2M39 23h2M8 24h2M39 24h2M8 25h2M39 25h2M8 26h2M39 26h2M8 27h2M39 27h2M8 28h1M38 28h3M7 29h2M38 29h2M7 30h2M38 30h2M7 31h2M38 31h2M7 32h2M38 32h2M7 33h2M38 33h2M7 34h2M38 34h2M8 35h2M38 35h2M8 36h3M37 36h3M9 37h3M37 37h2M10 38h3M18 38h4M37 38h2M11 39h19M37 39h2M13 40h6M22 40h16M29 41h8" />
<path stroke="#5a7bc5" d="M9 7h1M11 7h1M9 9h1M11 9h5M10 10h1M14 10h7M10 11h1M16 11h10M10 12h1M19 12h8M30 12h1M10 13h2M21 13h4M27 13h2M33 13h2M10 14h2M21 14h3M34 14h3M10 15h3M19 15h2M36 15h2M10 16h3M17 16h2M37 16h2M10 17h3M16 17h2M38 17h1M10 18h4M15 18h2M39 18h1M10 19h6M35 19h1M39 19h1M10 20h5M10 21h4M34 21h1M10 22h3M26 22h1M33 22h1M10 23h1M12 23h1M24 23h1M33 23h1M11 24h1M23 24h1M22 25h1M10 26h1M21 27h1M9 29h1M9 30h1M21 30h1M9 31h1M17 31h1M21 31h1M9 32h2M9 33h2M15 33h1M10 34h2M10 35h3M11 36h3M15 36h1M12 37h4M14 38h3" />
<path stroke="#8bacf6" d="M10 7h1M10 8h1M23 15h3M21 16h2M19 17h3M18 18h2M17 19h2M16 20h2M15 21h2M14 22h2M13 23h1" />
<path stroke="#738bde" d="M9 8h1M11 8h1M10 9h1M11 10h3M11 11h5M11 12h8M12 13h9M29 13h1M31 13h2M12 14h9M24 14h2M29 14h5M13 15h6M21 15h2M27 15h9M13 16h4M19 16h2M27 16h10M13 17h3M18 17h1M27 17h11M14 18h1M17 18h1M28 18h11M16 19h1M29 19h6M15 20h1M30 20h5M14 21h1M30 21h4M13 22h1M25 22h1M31 22h2M15 23h3M23 23h1M12 24h1M14 24h5M22 24h1M11 25h1M13 25h7M11 26h1M13 26h9M10 27h1M12 27h9M10 28h11M10 29h11M10 30h11M10 31h7M11 32h5M11 33h4M12 34h3M13 35h2M14 36h1" />
<path stroke="#4a6aa4" d="M16 9h2M21 10h2M26 11h2M27 12h3M31 12h1M25 13h2M35 13h1M36 19h3M35 20h1M39 20h1M27 22h4M11 23h1M25 23h2M31 23h2M10 24h1M24 24h1M10 25h1M23 25h1M22 26h1M22 27h1M9 28h1M21 28h1M21 29h1M18 31h3M16 32h2M16 33h1M9 34h1M15 34h1M15 35h1M16 37h1M13 38h1M17 38h1" />
<path stroke="#73a4f6" d="M30 13h1M26 14h3M26 15h1M23 16h4M22 17h5M20 18h8M19 19h10M18 20h12M17 21h13M16 22h9M14 23h1M18 23h5M13 24h1M19 24h3M12 25h1M20 25h2M12 26h1M11 27h1" />
<path stroke="#947352" d="M36 20h3M27 23h1M32 24h2M38 27h1M22 28h1M22 31h1M18 32h1M17 33h1M16 34h1M16 35h1M37 35h1M16 36h1M17 37h2M22 38h1M30 39h1" />
<path stroke="#bd9c62" d="M35 21h4M34 22h5M28 23h3M34 23h5M25 24h2M31 24h1M34 24h5M24 25h1M32 25h7M23 26h1M32 26h7M23 27h1M33 27h5M33 28h5M22 29h1M34 29h4M22 30h1M34 30h4M23 31h1M34 31h4M19 32h6M34 32h4M18 33h9M35 33h3M17 34h11M35 34h3M17 35h13M35 35h2M17 36h14M36 36h1M19 37h14M36 37h1M23 38h12M36 38h1M31 39h6" />
<path stroke="#e6bd83" d="M27 24h4M25 25h7M24 26h8M24 27h9M23 28h10M23 29h11M23 30h11M24 31h10M25 32h9M27 33h8M28 34h7M30 35h5M31 36h5M33 37h3M35 38h1" />
</svg>