<svg xmlns="http://www.w3.org/2000/svg" viewBox="0 -0.5 48 48" shape-rendering="crispEdges">
<metadata>Made with Pixels to Svg https://codepen.io/shshaw/pen/XbxvNj</metadata>
<path stroke="#525252" d="M17 10h3M23 10h3M16 11h5M22 11h5M16 12h2M19 12h5M25 12h2M15 13h3M20 13h3M25 13h2M11 14h6M25 14h3M30 14h3M10 15h6M26 15h8M10 16h2M28 16h3M32 16h2M10 17h3M32 17h2M11 18h3M32 18h2M12 19h2M32 19h2M10 20h4M32 20h5M9 21h4M32 21h6M9 22h2M36 22h2M9 23h4M36 23h2M10 24h4M35 24h2M12 25h3M34 25h2M11 26h3M34 26h3M11 27h2M35 27h3M11 28h2M36 28h3M11 29h6M37 29h3M12 30h6M38 30h3M16 31h2M33 31h1M39 31h2M16 32h2M32 32h9M16 33h2M20 33h2M31 33h9M16 34h7M25 34h2M31 34h2M17 35h3M21 35h2M24 35h4M31 35h2M21 36h8M31 36h2M22 37h3M27 37h3M31 37h2M28 38h5M29 39h3" />
<path stroke="#9c9c9c" d="M15 12h1M14 13h1M27 13h1M28 14h2M11 19h1M11 25h1M36 25h1M15 31h1M33 34h1M20 35h1M25 37h1" />
<path stroke="#ee31ac" d="M18 12h1M19 13h1M24 13h1M23 14h2M17 15h1M25 15h1M12 16h1M15 16h1M13 17h1M28 17h1M31 17h1M14 18h3M13 21h1M15 22h2M32 22h4M13 23h2M18 23h1M24 23h2M17 24h1M15 25h1M32 25h1M14 26h1M16 26h1M20 26h1M31 26h1M33 26h1M13 27h1M16 27h1M21 27h1M32 27h3M16 28h1M21 28h1M25 28h1M27 28h1M17 29h2M21 29h1M24 29h1M28 29h2M21 30h1M23 30h1M30 30h1M33 30h1M20 31h1M22 31h1M26 31h1M25 32h1M27 32h1M30 32h2M25 33h1" />
<path stroke="#c53194" d="M24 12h1M23 13h1M17 14h1M21 14h2M16 15h1M16 16h1M27 16h1M31 16h1M31 18h1M31 19h1M14 20h1M31 20h1M15 21h2M31 21h1M17 22h1M35 23h1M14 24h1M34 24h1M16 25h1M33 25h1M17 26h3M32 26h1M31 27h1M31 28h1M25 29h1M31 29h1M24 30h1M31 30h1M23 31h1M32 31h1M34 31h2M20 32h1M26 32h1M19 33h1M22 33h1M26 33h1" />
<path stroke="#ffc5e6" d="M18 13h1M18 14h1M18 15h2M18 16h2M21 17h2M30 17h1M20 18h3M28 18h2M16 19h3M27 19h3M18 20h2M27 20h2M24 21h2M24 22h2M28 23h4M29 24h2M22 25h2M22 26h3M27 26h2M22 27h2M28 27h2M22 28h1M29 28h1M22 29h1" />
<path stroke="#ff94cd" d="M19 14h1M20 15h1M22 15h2M17 16h1M20 16h6M18 17h3M24 17h3M18 18h2M24 18h4M30 18h1M15 19h1M19 19h2M23 19h4M16 20h2M20 20h5M26 20h1M29 20h1M18 21h6M27 21h3M11 22h1M19 22h5M27 22h4M19 23h4M27 23h1M32 23h1M18 24h11M31 24h1M17 25h3M21 25h1M24 25h6M15 26h1M25 26h2M29 26h1M14 27h1M24 27h1M26 27h1M13 28h1M23 28h2M23 29h1M34 29h3M22 30h1M36 30h2M18 31h1M38 31h1M18 32h1M18 33h1M23 33h1M29 33h1M23 34h1M28 34h3M23 35h1M29 35h2M30 36h1" />
<path stroke="#ff52cd" d="M20 14h1M21 15h1M24 15h1M13 16h2M26 16h1M14 17h4M23 17h1M27 17h1M29 17h1M17 18h1M23 18h1M14 19h1M21 19h2M30 19h1M15 20h1M25 20h1M30 20h1M14 21h1M17 21h1M26 21h1M30 21h1M12 22h3M18 22h1M26 22h1M31 22h1M15 23h3M23 23h1M26 23h1M33 23h2M15 24h2M32 24h2M20 25h1M30 25h2M21 26h1M30 26h1M15 27h1M17 27h4M25 27h1M27 27h1M30 27h1M14 28h2M17 28h4M26 28h1M28 28h1M30 28h1M32 28h4M19 29h2M26 29h2M30 29h1M32 29h2M18 30h3M25 30h5M32 30h1M34 30h2M19 31h1M21 31h1M24 31h2M27 31h5M36 31h2M19 32h1M21 32h4M28 32h2M24 33h1M27 33h2M30 33h1M24 34h1M27 34h1M28 35h1M29 36h1M30 37h1" />
</svg>