<svg xmlns="http://www.w3.org/2000/svg" viewBox="0 -0.5 48 48" shape-rendering="crispEdges">
<metadata>Made with Pixels to Svg https://codepen.io/shshaw/pen/XbxvNj</metadata>
<path stroke="#9c9c9c" d="M13 9h1M18 9h1M11 10h1M19 10h1M23 12h1M30 12h1M32 13h1M34 14h1M37 17h1M12 18h1M13 19h1M38 19h1M12 21h1M39 22h1M12 31h1M13 33h1M39 33h1M38 35h1M18 38h1M20 39h1M34 39h1M23 40h1M32 40h1" />
<path stroke="#525252" d="M14 9h4M12 10h7M11 11h2M18 11h2M10 12h2M19 12h2M24 12h6M7 13h5M15 13h2M19 13h13M6 14h5M14 14h3M20 14h4M30 14h4M6 15h2M13 15h5M32 15h4M6 16h2M12 16h3M16 16h2M34 16h3M6 17h8M15 17h3M35 17h2M7 18h5M14 18h3M36 18h2M14 19h2M36 19h2M13 20h2M37 20h2M13 21h2M37 21h2M12 22h2M37 22h2M12 23h2M38 23h2M12 24h2M38 24h2M12 25h2M38 25h2M12 26h2M38 26h2M12 27h2M38 27h2M12 28h2M38 28h2M12 29h2M38 29h2M12 30h2M38 30h2M13 31h2M38 31h2M13 32h2M38 32h2M14 33h2M37 33h2M14 34h2M37 34h2M15 35h2M36 35h2M16 36h3M36 36h2M17 37h4M34 37h3M19 38h6M31 38h5M21 39h13M24 40h8" />
<path stroke="#bd8b10" d="M13 11h1M12 12h1M17 12h2M14 13h1M17 13h2M13 14h1M17 14h3M12 15h1M18 15h2M9 16h3M18 16h3M19 17h3M19 18h2" />
<path stroke="#ffde7b" d="M14 11h4M13 12h4M12 13h2M11 14h2M8 15h4M8 16h1" />
<path stroke="#bd5229" d="M24 14h1M28 14h2M31 15h1M33 16h1M34 17h1M16 19h1M35 19h1M34 22h2M34 23h2M34 24h4M33 25h4M34 26h3M31 27h2M37 27h1M31 28h2M34 28h2M37 28h1M14 29h1M30 29h3M34 29h2M28 30h5M34 30h3M15 31h1M18 31h1M27 31h6M34 31h3M16 32h1M19 32h7M29 32h4M34 32h3M16 33h2M20 33h6M34 33h3M17 34h3M22 34h4M28 34h4M35 34h1M18 35h3M24 35h2M28 35h6M35 35h1M20 36h1M22 36h2M28 36h6M23 37h4M29 37h4M26 38h3" />
<path stroke="#e66a41" d="M25 14h2M23 15h3M28 15h3M28 16h5M24 17h3M29 17h3M23 18h6M23 19h1M26 19h4M32 19h2M27 20h3M31 20h4M17 21h1M20 21h2M27 21h3M31 21h4M16 22h2M19 22h3M31 22h3M14 23h1M16 23h2M19 23h3M27 23h3M32 23h2M15 24h3M19 24h4M26 24h5M33 24h1M15 25h2M19 25h5M25 25h7M14 26h3M20 26h4M25 26h7M14 27h3M18 27h1M22 27h2M25 27h6M14 28h2M17 28h5M25 28h6M15 29h1M17 29h7M26 29h4M17 30h7M26 30h2M19 31h6" />
<path stroke="#ffa47b" d="M27 14h1M22 15h1M26 15h2M23 16h5M23 17h1M27 17h2M32 17h2M29 18h6M17 19h2M22 19h1M30 19h2M34 19h1M16 20h6M30 20h1M15 21h2M18 21h2M30 21h1M15 22h1M18 22h1M28 22h3M15 23h1M18 23h1M30 23h2M14 24h1M18 24h1M31 24h2M14 25h1M17 25h2M24 25h1M32 25h1M17 26h3M24 26h1M17 27h1M19 27h3M24 27h1M16 28h1M22 28h3M16 29h1M24 29h2M24 30h2M25 31h2" />
<path stroke="#835241" d="M20 15h2M21 16h2M18 17h1M22 17h1M17 18h2M21 18h2M35 18h1M19 19h3M15 20h1M36 20h1M14 22h1M37 23h1M14 30h1M15 32h1M37 32h1M16 34h1M36 34h1M17 35h1M19 36h1M35 36h1M21 37h1M33 37h1M25 38h1M30 38h1" />
<path stroke="#ee9c83" d="M24 19h2M25 20h2M22 21h1M22 22h2M22 23h2M25 23h2M23 24h1M25 24h1" />
<path stroke="#ffc5ac" d="M22 20h3M23 21h4M24 22h4M24 23h1M24 24h1" />
<path stroke="#ee7b6a" d="M35 20h1M35 21h2M36 22h1M36 23h1M37 25h1M32 26h2M37 26h1M33 27h4M33 28h1M36 28h1M33 29h1M36 29h2M15 30h2M33 30h1M37 30h1M16 31h2M33 31h1M37 31h1M17 32h2M26 32h3M33 32h1M18 33h2M26 33h8M20 34h2M26 34h2M32 34h3M21 35h3M26 35h2M34 35h1M21 36h1M24 36h4M34 36h1M22 37h1M27 37h2M29 38h1" />
</svg>