<svg xmlns="http://www.w3.org/2000/svg" viewBox="0 -0.5 48 48" shape-rendering="crispEdges">
<metadata>Made with Pixels to Svg https://codepen.io/shshaw/pen/XbxvNj</metadata>
<path stroke="#525252" d="M19 5h4M18 6h6M17 7h3M22 7h3M26 7h4M17 8h3M23 8h11M9 9h4M14 9h5M23 9h3M29 9h6M8 10h11M23 10h2M29 10h3M34 10h2M8 11h2M12 11h3M29 11h1M34 11h2M8 12h1M13 12h2M35 12h5M8 13h2M35 13h6M8 14h3M36 14h2M39 14h3M6 15h5M40 15h2M5 16h6M40 16h2M5 17h2M40 17h2M5 18h2M39 18h3M5 19h3M40 19h3M6 20h4M41 20h3M8 21h3M42 21h2M7 22h4M42 22h2M6 23h4M42 23h2M6 24h2M42 24h2M6 25h2M41 25h2M6 26h3M41 26h2M7 27h3M40 27h2M7 28h3M39 28h3M6 29h3M39 29h2M6 30h2M39 30h2M5 31h2M40 31h2M5 32h2M40 32h2M5 33h7M40 33h2M6 34h7M38 34h4M11 35h2M38 35h3M11 36h2M38 36h2M11 37h7M38 37h2M12 38h6M31 38h1M34 38h1M38 38h2M16 39h3M30 39h10M16 40h10M30 40h5M36 40h3M17 41h10M29 41h3M25 42h6M26 43h4" />
<path stroke="#9c9c9c" d="M23 5h1M24 6h1M25 7h1M16 8h1M34 8h1M13 9h1M35 9h1M36 11h1M40 12h1M41 13h1M7 14h1M42 18h1M7 21h1M43 25h1M6 27h1M6 28h1M41 29h1M5 30h1M10 35h1M15 39h1M35 40h1M32 41h1M24 42h1M31 42h1" />
<path stroke="#4a7339" d="M20 7h2M18 11h1M9 12h1M18 12h1M34 12h1M34 13h1M34 14h2M38 14h1M22 16h1M23 17h1M26 17h1M37 17h1M37 18h1M8 19h1M37 19h1M39 19h1M36 20h2M11 23h2M14 23h1M38 23h2M11 24h1M14 24h1M39 24h3M10 25h1M14 25h1M17 25h1M37 25h1M40 25h1M10 26h1M17 26h1M37 26h1M18 27h1M32 27h1M34 27h1M36 27h2M19 28h4M27 28h2M31 28h2M34 28h5M12 29h1M18 29h1M28 29h4M38 29h1M12 30h1M17 30h1M7 31h1M12 31h1M16 31h2M39 31h1M7 32h1M11 32h6M36 32h1M12 33h2M17 33h1M34 33h3M17 34h1M20 34h1M25 34h1M29 34h1M33 34h1M37 34h1M18 35h3M26 35h3M30 35h4M37 35h1M15 36h3M30 37h2M34 37h1M30 38h1M35 38h1M19 39h6" />
<path stroke="#94d529" d="M20 8h3M20 9h3M32 10h2M10 11h2M33 11h1M10 12h3M33 12h1M11 13h3M18 14h2M30 14h1M12 15h2M16 15h1M19 15h2M29 15h3M37 15h3M16 16h2M20 16h1M29 16h7M38 16h2M7 17h3M13 17h7M28 17h2M36 17h1M19 18h4M29 18h3M36 18h1M14 19h2M19 19h2M23 19h1M25 19h5M34 19h3M12 20h3M20 20h1M24 20h3M28 20h3M32 20h2M12 21h2M18 21h1M24 21h1M26 21h1M29 21h2M33 21h2M22 22h1M25 22h1M27 22h1M31 22h1M34 22h1M22 23h1M29 23h1M32 23h1M34 23h1M35 24h1M12 25h1M27 25h1M33 25h1M12 26h2M14 27h1M13 28h4M14 29h2M33 30h3M19 31h2M22 31h2M29 31h2M34 31h2M18 32h2M22 32h2M26 32h2M30 32h2M26 33h2M30 33h2" />
<path stroke="#73b429" d="M19 9h1M19 10h4M15 11h3M19 11h3M30 11h3M15 12h3M31 12h2M10 13h1M32 13h2M20 14h1M33 14h1M10 17h1M20 17h1M38 17h2M7 18h4M18 18h1M28 18h1M9 19h1M13 19h1M24 19h1M30 19h4M11 20h1M15 23h3M13 24h1M16 24h1M13 25h1M19 25h3M34 25h3M11 26h1M15 26h1M19 26h3M28 26h3M34 26h3M12 27h1M15 27h3M20 27h1M28 27h3M35 27h1M17 28h1M33 28h1M13 29h1M16 29h1M32 29h4M13 30h3M19 30h2M29 30h2M14 31h2M18 31h1M26 31h2M25 32h1M34 32h2M18 33h2M25 33h1M18 34h2M26 34h2M31 34h2" />
<path stroke="#cd9c4a" d="M26 9h1M28 9h1M25 11h1M25 12h3M25 13h2M24 14h3M24 15h2M24 16h2" />
<path stroke="#eed59c" d="M27 9h1M26 10h3M26 11h2" />
<path stroke="#8b6239" d="M25 10h1M24 11h1M28 11h1M24 12h1M28 12h1M24 13h1M27 13h2M23 14h1M27 14h1M23 15h1M26 15h2M23 16h1M26 16h1M24 17h2" />
<path stroke="#629c31" d="M22 11h2M19 12h5M30 12h1M14 13h1M16 13h3M20 13h1M12 14h4M17 14h1M21 14h2M28 14h2M31 14h2M11 15h1M17 15h2M21 15h1M28 15h1M32 15h5M11 16h2M18 16h2M21 16h1M28 16h1M36 16h2M12 17h1M21 17h2M12 18h6M23 18h5M11 19h2M16 19h1M15 20h1M19 20h1M23 20h1M27 20h1M34 20h2M38 20h3M14 21h1M23 21h1M27 21h2M36 21h6M18 22h1M23 22h2M28 22h3M37 22h5M10 23h1M23 23h1M30 23h2M37 23h1M40 23h2M8 24h2M22 24h1M26 24h1M31 24h1M38 24h1M8 25h2M24 25h2M31 25h1M38 25h2M9 26h1M24 26h2M27 26h1M31 26h1M38 26h2M23 27h3M31 27h1M38 27h2M10 28h1M23 28h4M9 29h3M19 29h6M26 29h1M37 29h1M8 30h4M22 30h2M26 30h1M37 30h2M8 31h4M38 31h1M8 32h2M20 32h1M38 32h2M14 33h2M39 33h1M13 34h3M21 34h1M23 34h2M28 34h1M35 34h2M13 35h3M21 35h1M23 35h2M35 35h2M13 36h2M20 36h2M23 36h3M27 36h3M35 36h3M18 37h4M23 37h3M27 37h3M32 37h2M36 37h2M18 38h4M26 38h4M32 38h2M26 39h4M26 40h3" />
<path stroke="#528339" d="M29 12h1M15 13h1M19 13h1M21 13h3M29 13h3M11 14h1M16 14h1M22 15h1M27 16h1M11 17h1M27 17h1M11 18h1M38 18h1M10 19h1M38 19h1M10 20h1M16 20h1M11 21h1M15 21h1M19 21h1M35 21h1M11 22h4M19 22h1M35 22h2M13 23h1M18 23h1M24 23h2M35 23h2M10 24h1M12 24h1M15 24h1M17 24h2M23 24h3M32 24h1M36 24h2M11 25h1M15 25h2M18 25h1M22 25h2M26 25h1M32 25h1M14 26h1M16 26h1M18 26h1M22 26h2M26 26h1M32 26h2M40 26h1M10 27h2M13 27h1M19 27h1M21 27h2M26 27h2M33 27h1M11 28h2M18 28h1M29 28h2M17 29h1M25 29h1M27 29h1M36 29h1M16 30h1M18 30h1M21 30h1M24 30h2M27 30h2M31 30h2M36 30h1M13 31h1M21 31h1M24 31h2M28 31h1M31 31h3M36 31h2M10 32h1M17 32h1M21 32h1M24 32h1M28 32h2M32 32h2M37 32h1M16 33h1M20 33h5M28 33h2M32 33h2M37 33h2M16 34h1M22 34h1M30 34h1M34 34h1M16 35h2M22 35h1M25 35h1M29 35h1M34 35h1M18 36h2M22 36h1M26 36h1M30 36h5M22 37h1M26 37h1M35 37h1M22 38h4M36 38h2M25 39h1M29 40h1M27 41h2" />
<path stroke="#c5ee73" d="M14 15h2M13 16h3M30 17h6M32 18h4M17 19h2M21 19h2M17 20h2M21 20h2M31 20h1M16 21h2M20 21h3M25 21h1M31 21h2M15 22h3M20 22h2M26 22h1M32 22h2M19 23h3M26 23h3M33 23h1M19 24h3M27 24h4M33 24h2M28 25h3" />
</svg>