<svg xmlns="http://www.w3.org/2000/svg" viewBox="0 -0.5 48 48" shape-rendering="crispEdges">
<metadata>Made with Pixels to Svg https://codepen.io/shshaw/pen/XbxvNj</metadata>
<path stroke="#9c9c9c" d="M34 4h1M38 4h1M32 6h1M40 6h1M40 11h1M39 12h1M37 13h1M25 14h1M23 15h1M36 15h1M21 16h1M19 17h1M35 17h1M14 18h1M7 19h1M34 19h1M6 20h1M33 22h1M6 25h1M33 27h1M7 28h1M8 31h1M34 31h1M9 34h1M35 35h1M10 37h1M11 40h1M12 41h1M35 41h1M15 42h1M27 42h1" />
<path stroke="#525252" d="M35 4h3M33 5h7M33 6h2M38 6h2M32 7h2M39 7h2M32 8h2M39 8h2M31 9h3M39 9h2M30 10h3M38 10h3M29 11h3M36 11h4M28 12h3M36 12h3M27 13h3M35 13h2M26 14h3M35 14h2M24 15h4M34 15h2M22 16h5M34 16h2M20 17h5M33 17h2M15 18h8M33 18h2M8 19h13M32 19h2M7 20h9M32 20h2M6 21h3M32 21h2M6 22h2M31 22h2M6 23h2M31 23h2M6 24h2M31 24h2M7 25h2M31 25h2M7 26h2M31 26h2M7 27h3M31 27h2M8 28h2M32 28h2M8 29h2M32 29h2M8 30h2M32 30h2M9 31h2M32 31h2M9 32h2M33 32h2M9 33h2M33 33h2M10 34h2M33 34h2M10 35h2M33 35h2M10 36h2M34 36h2M11 37h2M34 37h2M11 38h2M34 38h2M11 39h2M33 39h3M12 40h5M26 40h10M13 41h22M16 42h11" />
<path stroke="#d5bd4a" d="M35 6h3M34 7h2M38 7h1M34 8h2M38 8h1M36 9h3M33 10h3M37 10h1M35 11h1M35 12h1M34 14h1M33 16h1M25 17h1M32 18h1M31 20h1M12 22h2M12 23h2M12 24h1M20 24h1M12 25h1M19 25h1M19 26h1M18 27h2M14 28h1M18 28h1M10 29h1M14 29h1M18 29h1M27 29h1M13 30h2M17 30h2M26 30h3M11 31h1M13 31h2M17 31h2M25 31h4M11 32h1M13 32h2M17 32h1M23 32h6M12 33h4M17 33h1M21 33h7M12 34h4M17 34h1M20 34h6M12 35h13M13 36h10M13 37h17M13 38h18M14 39h14" />
<path stroke="#f6ee83" d="M36 7h2M36 8h2M32 11h3M31 12h4M30 13h5M29 14h5M28 15h4M33 15h1M27 16h4M26 17h1M28 17h2M32 17h1M24 18h2M28 18h1M31 18h1M23 19h3M27 19h2M31 19h1M23 20h8M13 21h3M21 21h7M30 21h1M21 22h5M29 22h2M29 23h2M28 24h2M28 25h2M28 26h1M28 29h2M29 30h1" />
<path stroke="#948b52" d="M34 9h2M36 10h1M31 21h1M10 30h1M11 33h1M12 36h1M13 39h1M17 40h9" />
<path stroke="#f6a462" d="M32 15h1M31 16h2M27 17h1M30 17h2M23 18h1M26 18h2M29 18h2M22 19h1M26 19h1M29 19h2M17 20h6M10 21h1M18 21h3M28 21h2M15 22h1M20 22h1M26 22h3M22 23h7M21 24h1M24 24h4M30 24h1M23 25h1M25 25h3M30 25h1M24 26h1M26 26h2M29 26h2M25 27h6M26 28h5M30 29h2M30 30h2M29 31h3M30 32h2M31 33h2M31 34h2M32 35h1M32 36h1M33 37h1" />
<path stroke="#de6a4a" d="M21 19h1M16 20h1M9 22h2M14 22h1M9 23h2M14 23h5M9 24h2M13 24h7M9 25h3M13 25h5M20 25h3M10 26h2M13 26h4M20 26h4M10 27h2M13 27h1M15 27h2M20 27h5M10 28h2M15 28h1M19 28h6M31 28h1M11 29h1M15 29h1M19 29h6M15 30h1M19 30h4M15 31h1M19 31h3M18 32h3M29 32h1M32 32h1M18 33h2M28 33h3M18 34h1M26 34h5M25 35h4M23 36h1M33 36h1" />
<path stroke="#9c6252" d="M9 21h1M8 22h1M8 23h1M8 24h1M9 26h1M33 38h1M32 39h1" />
<path stroke="#f6b494" d="M11 21h2M16 21h2M16 22h4M19 23h3M22 24h2M24 25h1M25 26h1" />
<path stroke="#cd5a41" d="M11 22h1M11 23h1M11 24h1M18 25h1M12 26h1M17 26h2M12 27h1M14 27h1M17 27h1M12 28h2M16 28h2M25 28h1M12 29h2M16 29h2M25 29h2M11 30h2M16 30h1M23 30h3M12 31h1M16 31h1M22 31h3M12 32h1M15 32h2M21 32h2M16 33h1M20 33h1M16 34h1M19 34h1M29 35h3M24 36h8M30 37h3M31 38h2M28 39h4" />
</svg>