<svg xmlns="http://www.w3.org/2000/svg" viewBox="0 -0.5 48 48" shape-rendering="crispEdges">
<metadata>Made with Pixels to Svg https://codepen.io/shshaw/pen/XbxvNj</metadata>
<path stroke="#9c9c9c" d="M18 10h1M28 10h1M16 11h1M30 11h1M11 16h1M35 16h1M10 19h1M36 19h1M37 21h1M10 24h1M10 26h1M38 27h1M10 32h1M38 33h1M37 34h1M11 35h1M35 35h1M30 36h1M26 37h1M14 38h1M21 38h1" />
<path stroke="#525252" d="M19 10h9M17 11h13M15 12h5M24 12h1M28 12h4M14 13h3M30 13h3M13 14h3M31 14h3M12 15h3M32 15h3M12 16h2M33 16h2M11 17h2M33 17h3M11 18h2M34 18h2M11 19h2M34 19h2M10 20h2M34 20h3M10 21h2M35 21h2M10 22h2M35 22h3M10 23h3M36 23h2M11 24h2M36 24h2M11 25h2M36 25h2M11 26h2M36 26h2M10 27h2M36 27h2M10 28h2M36 28h3M10 29h2M37 29h2M10 30h2M37 30h2M10 31h3M37 31h2M11 32h1M36 32h3M11 33h2M34 33h4M11 34h3M29 34h8M12 35h2M25 35h10M12 36h3M20 36h10M13 37h13M15 38h6" />
<path stroke="#525aac" d="M20 12h1M23 12h1M25 12h1M27 12h1M17 13h1M19 13h1M24 13h2M29 13h1M19 14h1M25 14h2M18 15h2M26 15h1M18 16h1M26 16h2M32 16h1M13 17h1M18 17h1M27 17h1M18 18h1M27 18h2M33 18h1M18 19h1M27 19h3M12 20h1M18 20h1M27 20h1M29 20h5M16 21h4M27 21h1M34 21h1M14 22h3M19 22h2M26 22h2M34 22h1M13 23h2M20 23h7M35 23h1M30 25h4M30 26h1M34 26h2M12 27h1M16 27h4M28 27h1M35 27h1M15 28h1M21 28h1M26 28h2M14 29h1M23 29h3M36 29h1M13 30h1M36 30h1M13 31h1M36 31h1M12 32h2M28 32h1M23 33h3M33 33h1M28 34h1M14 35h1M24 35h1M15 36h1M19 36h1" />
<path stroke="#627bde" d="M21 12h2M26 12h1M18 13h1M20 13h2M23 13h1M26 13h3M16 14h3M20 14h1M24 14h1M27 14h4M15 15h1M20 15h1M24 15h2M27 15h5M14 16h1M19 16h1M25 16h1M28 16h4M19 17h1M25 17h2M28 17h5M13 18h1M17 18h1M19 18h1M25 18h2M29 18h4M17 19h1M19 19h1M25 19h2M30 19h4M16 20h2M19 20h1M25 20h2M12 21h4M20 21h7M12 22h2M21 22h5M31 23h4M29 24h7M20 25h1M29 25h1M34 25h2M22 26h1M27 26h3M13 27h3M20 27h1M26 27h2M12 28h3M22 28h1M25 28h1M12 29h2M34 29h2M12 30h1M32 30h4M31 31h5M16 32h1M30 32h6M15 33h3M26 33h7M14 34h14M15 35h9M16 36h3" />
<path stroke="#7b94e6" d="M22 13h1M21 14h1M23 14h1M17 15h1M17 16h1M20 16h1M24 16h1M17 17h1M16 19h1M15 20h1M20 20h1M24 20h1M29 23h2M28 24h1M15 25h1M19 25h1M28 25h1M14 26h1M21 26h1M25 27h1M24 28h1M32 29h2M31 30h1M16 31h1M30 31h1M15 32h1M17 32h2M29 32h1M14 33h1M18 33h3" />
<path stroke="#94acee" d="M22 14h1M16 15h1M21 15h3M15 16h2M21 16h1M23 16h1M14 17h3M20 17h1M24 17h1M14 18h3M20 18h1M24 18h1M13 19h3M20 19h2M23 19h2M13 20h2M21 20h3M16 25h3M15 26h6M21 27h4M23 28h1M17 31h2M19 32h2M21 33h1" />
<path stroke="#b4c5ff" d="M22 16h1M21 17h3M21 18h3M22 19h1" />
<path stroke="#a4a45a" d="M28 20h1M28 21h6M17 22h2M28 22h1M15 23h1M27 23h1M13 24h3M26 24h1M13 25h1M26 25h1M31 26h3M29 27h6M17 28h4M28 28h4M15 29h4M22 29h1M26 29h5M14 30h2M19 30h1M27 30h3M14 31h1M27 31h2M22 32h1M25 32h1" />
<path stroke="#7b7b83" d="M29 22h5M28 23h1M16 24h4M27 24h1M14 25h1M21 25h1M27 25h1M13 26h1M23 26h4M16 28h1M32 28h4M31 29h1M16 30h3M30 30h1M15 31h1M19 31h2M29 31h1M14 32h1M21 32h1M26 32h2M13 33h1M22 33h1" />
<path stroke="#e6c58b" d="M16 23h4M20 24h6M22 25h4M19 29h3M20 30h7M21 31h6M23 32h2" />
</svg>