<svg xmlns="http://www.w3.org/2000/svg" viewBox="0 -0.5 48 48" shape-rendering="crispEdges">
<metadata>Made with Pixels to Svg https://codepen.io/shshaw/pen/XbxvNj</metadata>
<path stroke="#9c9c9c" d="M9 3h1M13 3h1M14 4h1M5 6h1M16 6h1M4 7h1M18 7h1M21 9h1M4 10h1M25 10h1M31 11h1M6 12h1M34 12h1M36 13h1M41 18h1M7 19h1M42 20h1M43 23h1M7 24h1M43 31h1M7 34h1M8 37h1M42 37h1M41 39h1M13 42h1M16 43h1M19 44h1M36 44h1M25 45h1M34 45h1" />
<path stroke="#525252" d="M10 3h3M8 4h6M7 5h4M13 5h2M6 6h2M14 6h2M5 7h3M14 7h4M4 8h2M16 8h4M4 9h2M18 9h3M5 10h2M19 10h6M5 11h3M20 11h11M7 12h2M23 12h11M7 13h2M31 13h5M7 14h2M34 14h4M7 15h2M36 15h3M7 16h2M37 16h3M7 17h2M38 17h3M7 18h3M39 18h2M8 19h2M40 19h2M8 20h2M40 20h2M8 21h2M41 21h2M8 22h2M41 22h2M8 23h2M41 23h2M8 24h2M42 24h2M7 25h3M42 25h2M7 26h2M42 26h2M7 27h2M42 27h2M7 28h2M42 28h2M7 29h2M42 29h2M7 30h2M41 30h3M7 31h2M41 31h2M7 32h2M41 32h2M7 33h3M41 33h2M8 34h2M41 34h2M8 35h2M41 35h2M8 36h3M40 36h3M9 37h2M40 37h2M9 38h3M40 38h2M10 39h3M39 39h2M11 40h4M38 40h3M12 41h5M37 41h3M14 42h6M36 42h3M17 43h10M33 43h5M20 44h16M26 45h8" />
<path stroke="#ffee94" d="M11 5h2M8 6h2M11 6h2M8 7h2M6 8h2M6 9h2M14 10h2M13 11h4M12 12h2M16 12h1M11 13h3M16 13h1M11 14h5M12 15h3M26 19h1M20 20h2M26 20h2M18 21h10M17 22h11M17 23h11M16 24h2M20 24h7M16 25h1M21 25h4M16 26h1M21 26h3M16 27h2M20 27h3M17 28h5M19 29h2" />
<path stroke="#dea420" d="M10 6h1M11 7h1M8 8h1M10 8h1M12 8h1M15 8h1M9 9h5M17 9h1M8 10h1M10 10h1M12 10h2M9 11h4M19 11h1M10 12h1M21 12h1M9 13h1M22 13h1M24 13h1M30 13h1M23 14h1M33 14h1M23 15h1M35 15h1M9 17h1M10 20h1M10 21h1M11 22h2M11 23h1M31 23h2M10 24h1M32 24h3M10 25h1M34 25h2M10 26h1M9 27h1M9 28h1M9 29h1M9 30h1M9 31h1M21 32h1M21 33h1M21 34h1M10 35h1M21 35h2M22 36h1M11 37h1" />
<path stroke="#a48b39" d="M13 6h1M14 8h1M14 9h1M7 10h1M8 11h1M9 12h1M22 12h1M23 13h1M10 22h1M10 23h1M9 26h1M9 32h1" />
<path stroke="#e6bd4a" d="M10 7h1M12 7h2M9 8h1M11 8h1M13 8h1M8 9h1M9 10h1M11 10h1M21 13h1M25 13h1M28 13h2M9 14h1M22 14h1M24 14h1M31 14h2M9 15h1M33 15h2M9 16h1M23 16h1M33 16h4M32 17h6M10 18h1M33 18h4M10 19h1M34 19h2M11 20h1M35 20h1M11 21h1M35 21h1M13 22h2M32 22h5M12 23h1M29 23h2M33 23h4M11 24h1M28 24h4M35 24h3M31 25h3M32 26h4M10 27h1M32 27h4M10 28h1M31 28h5M10 29h1M33 29h2M10 30h1M22 30h1M10 31h2M21 31h2M10 32h5M22 32h2M10 33h7M20 33h1M22 33h4M10 34h3M15 34h6M22 34h4M11 35h1M16 35h5M23 35h4M11 36h1M16 36h5M24 36h3M17 37h4M19 38h2" />
<path stroke="#eed56a" d="M15 9h2M16 10h3M17 11h2M11 12h1M17 12h4M10 13h1M17 13h4M26 13h2M10 14h1M16 14h6M25 14h4M10 15h2M15 15h8M24 15h4M10 16h10M24 16h4M10 17h10M25 17h4M11 18h9M26 18h7M11 19h10M27 19h4M12 20h8M28 20h3M12 21h6M28 21h4M15 22h2M28 22h4M13 23h4M28 23h1M12 24h4M27 24h1M11 25h5M25 25h6M11 26h5M24 26h8M11 27h1M14 27h2M23 27h4M30 27h2M15 28h2M22 28h4M15 29h4M21 29h4M15 30h7M23 30h2M14 31h7M23 31h2M15 32h6M24 32h1M17 33h3" />
<path stroke="#ffffee" d="M14 12h2M14 13h2" />
<path stroke="#de7b4a" d="M29 14h2M30 15h3M31 16h2M37 18h1M33 19h1M36 19h3M33 20h2M36 20h3M33 21h2M36 21h4M37 22h3M37 23h3M38 24h2M38 25h1M11 28h1M36 28h1M11 29h2M31 29h2M35 29h2M11 30h3M30 30h8M12 31h2M29 31h9M27 32h11M26 33h11M13 34h2M26 34h11M12 35h4M27 35h9M12 36h4M21 36h1M23 36h1M27 36h8M13 37h4M21 37h1M24 37h10M14 38h5M25 38h8M17 39h3M26 39h5M28 40h1" />
<path stroke="#e69c62" d="M28 15h2M20 16h3M28 16h3M20 17h5M29 17h3M20 18h6M21 19h2M31 19h2M31 20h2M32 21h1M12 27h2M27 27h3M12 28h3M26 28h5M13 29h2M25 29h6M14 30h1M25 30h5M25 31h4M25 32h2" />
<path stroke="#d56a41" d="M38 18h1M39 20h1M37 25h1M39 25h1M38 26h1M36 27h1M37 29h1M37 33h1M36 35h1M35 36h1M12 37h1M34 37h1M13 38h1M21 38h1M24 38h1M33 38h1M16 39h1M20 39h1M25 39h1M31 39h1M27 40h1M29 40h1" />
<path stroke="#f6bd73" d="M23 19h3M22 20h4M18 24h2M17 25h4M17 26h4M18 27h2" />
<path stroke="#d55a39" d="M39 19h1M40 22h1M40 23h1M40 24h1M36 25h1M40 25h2M36 26h2M39 26h3M37 27h5M37 28h5M38 29h2M38 30h2M38 31h3M38 32h3M38 33h3M37 34h4M37 35h3M36 36h4M22 37h2M35 37h5M12 38h1M22 38h2M34 38h5M13 39h3M21 39h4M32 39h7M15 40h12M30 40h8M18 41h6M25 41h12M21 42h3M26 42h9M28 43h4" />
<path stroke="#9c5a4a" d="M40 21h1M41 24h1M40 29h2M40 30h1M40 35h1M39 38h1M17 41h1M24 41h1M20 42h1M24 42h2M35 42h1M27 43h1M32 43h1" />
</svg>