<svg xmlns="http://www.w3.org/2000/svg" viewBox="0 -0.5 48 48" shape-rendering="crispEdges">
<metadata>Made with Pixels to Svg https://codepen.io/shshaw/pen/XbxvNj</metadata>
<path stroke="#525252" d="M34 6h4M33 7h6M33 8h2M37 8h2M33 9h2M37 9h2M33 10h2M37 10h2M33 11h2M37 11h2M33 12h2M37 12h2M33 13h2M37 13h2M33 14h2M37 14h2M33 15h2M37 15h2M32 16h2M36 16h2M17 17h5M32 17h2M36 17h2M15 18h11M28 18h6M36 18h2M14 19h3M21 19h12M36 19h2M14 20h2M26 20h2M35 20h3M13 21h2M35 21h5M13 22h2M38 22h2M10 23h5M39 23h2M8 24h6M39 24h2M7 25h4M39 25h2M7 26h2M39 26h2M6 27h3M38 27h2M6 28h2M36 28h4M6 29h2M34 29h4M6 30h2M35 30h2M7 31h2M35 31h2M7 32h3M36 32h2M8 33h4M36 33h2M10 34h2M36 34h2M10 35h2M35 35h2M10 36h2M30 36h1M34 36h3M11 37h2M19 37h2M29 37h7M11 38h3M18 38h3M29 38h5M12 39h10M28 39h2M14 40h5M20 40h10M22 41h6" />
<path stroke="#ffffac" d="M35 8h2M35 9h2M17 20h2M17 21h2M29 21h2M29 22h2M18 25h3M11 26h2M18 26h3M11 27h2M18 27h3M27 27h2M27 28h2M14 32h2M14 33h2" />
<path stroke="#bd8b41" d="M35 10h2M35 11h2M35 12h2M35 13h2M35 14h2M35 15h1M35 16h1M34 17h2M34 18h1" />
<path stroke="#9c9c9c" d="M32 15h1M38 16h1M16 17h1M22 17h1M31 17h1M26 18h2M13 20h1M38 20h1M40 22h1M9 23h1M6 26h1M40 27h1M38 29h1M6 31h1M37 31h1M9 34h1M37 35h1M10 37h1M34 38h1M30 39h1M13 40h1M19 40h1M21 41h1M28 41h1" />
<path stroke="#8b6231" d="M36 15h1M34 16h1M35 18h1M33 19h3M33 20h2" />
<path stroke="#aca429" d="M17 19h1M23 20h2M29 20h3M15 21h1M22 21h1M26 21h2M32 21h1M20 22h2M27 22h1M32 22h1M21 23h1M28 23h1M37 23h1M15 24h1M18 24h1M20 24h1M26 24h1M33 24h1M36 24h3M11 25h3M22 25h1M24 25h2M33 25h6M9 26h1M14 26h1M16 26h1M23 26h2M26 26h1M34 26h4M32 27h1M34 27h3M8 28h1M25 28h1M32 28h1M8 29h1M14 29h3M23 29h1M25 29h1M31 29h2M8 30h1M13 30h1M18 30h1M22 30h1M26 30h1M30 30h3M9 31h3M17 31h1M19 31h3M27 31h5M34 31h1M11 32h1M18 32h1M28 32h3M33 32h2M12 33h1M19 33h1M25 33h2M32 33h3M19 34h1M22 34h1M25 34h4M30 34h5M19 35h1M21 35h8M31 35h3M12 36h1M18 36h2M21 36h8M13 37h6M21 37h7M15 38h3M22 38h6M23 39h4" />
<path stroke="#cdc531" d="M18 19h2M20 20h1M28 21h1M19 22h1M36 22h1M15 23h1M17 23h1M33 23h1M36 23h1M19 24h1M34 24h2M17 25h1M30 25h1M31 26h1M14 27h1M16 27h1M23 27h1M31 27h1M14 28h1M16 28h1M23 28h1M31 28h1M17 29h1M26 29h1M30 29h1M9 30h1M12 30h1M19 30h3M27 30h3M14 31h3M18 33h1M23 33h2M12 34h1M18 34h1M23 34h2M12 35h1M18 35h1M13 36h2M17 36h1" />
<path stroke="#6a6229" d="M20 19h1M32 20h1M33 21h2M33 22h1M34 28h2M24 30h1M33 30h1M23 31h1M26 31h1M33 31h1M22 32h1M27 32h1M32 32h1M20 33h2M28 33h4M20 35h1M29 35h1M20 36h1M29 36h1" />
<path stroke="#f6e64a" d="M16 20h1M19 20h1M16 21h1M19 21h2M23 21h3M31 21h1M15 22h4M22 22h5M28 22h1M31 22h1M34 22h2M16 23h1M22 23h5M29 23h3M34 23h2M23 24h3M21 25h1M28 25h2M10 26h1M13 26h1M17 26h1M21 26h2M27 26h4M9 27h2M13 27h1M17 27h1M21 27h2M26 27h1M29 27h2M9 28h5M17 28h6M26 28h1M29 28h2M9 29h5M18 29h5M27 29h3M10 30h2M13 32h1M16 32h2M13 33h1M16 33h2M13 34h5M13 35h5M15 36h2" />
<path stroke="#8b8329" d="M21 20h2M25 20h1M28 20h1M21 21h1M37 22h1M18 23h3M27 23h1M32 23h1M38 23h1M14 24h1M16 24h2M21 24h2M27 24h6M14 25h3M23 25h1M26 25h2M31 25h2M15 26h1M25 26h1M32 26h2M38 26h1M15 27h1M24 27h2M33 27h1M37 27h1M15 28h1M24 28h1M33 28h1M24 29h1M33 29h1M14 30h4M23 30h1M25 30h1M34 30h1M12 31h2M18 31h1M22 31h1M24 31h2M32 31h1M10 32h1M12 32h1M19 32h3M23 32h4M31 32h1M35 32h1M22 33h1M27 33h1M35 33h1M20 34h2M29 34h1M35 34h1M30 35h1M34 35h1M31 36h3M28 37h1M14 38h1M21 38h1M28 38h1M22 39h1M27 39h1" />
</svg>