<svg xmlns="http://www.w3.org/2000/svg" viewBox="0 -0.5 48 48" shape-rendering="crispEdges">
<metadata>Made with Pixels to Svg https://codepen.io/shshaw/pen/XbxvNj</metadata>
<path stroke="#9c9c9c" d="M25 12h1M31 12h1M22 13h1M33 13h1M20 14h1M18 15h1M35 15h1M36 17h1M12 21h1M36 22h1M11 23h1M35 24h1M10 25h1M10 30h1M11 32h1M27 32h1M25 33h1M13 34h1M23 34h1M15 35h1M20 35h1" />
<path stroke="#525252" d="M26 12h5M23 13h10M21 14h5M31 14h4M19 15h4M33 15h2M17 16h4M34 16h2M16 17h3M34 17h2M15 18h3M35 18h2M14 19h3M35 19h2M13 20h3M35 20h2M13 21h2M34 21h3M12 22h2M34 22h2M12 23h2M33 23h3M11 24h2M33 24h2M11 25h2M32 25h3M10 26h2M31 26h3M10 27h2M30 27h3M10 28h2M29 28h3M10 29h2M28 29h3M11 30h2M27 30h3M11 31h2M25 31h4M12 32h2M23 32h4M12 33h4M20 33h5M14 34h9M16 35h4" />
<path stroke="#527b39" d="M26 14h1M30 14h1M23 15h1M21 16h1M33 16h1M19 17h1M34 18h1M34 19h1M34 20h1M14 22h1M33 22h1M13 24h1M32 24h1M12 26h1M12 29h1M26 30h1M24 31h1M22 32h1M16 33h1M19 33h1" />
<path stroke="#52a418" d="M27 14h3M24 15h1M29 15h4M30 16h3M20 17h1M31 17h3M18 18h1M31 18h3M17 19h1M31 19h3M16 20h1M31 20h3M15 21h1M31 21h3M30 22h3M14 23h1M30 23h3M14 24h1M29 24h3M13 25h1M28 25h4M13 26h1M27 26h4M12 27h2M26 27h4M12 28h2M24 28h5M13 29h2M22 29h6M13 30h4M20 30h6M13 31h11M14 32h8M17 33h2" />
<path stroke="#62cd29" d="M25 15h3M22 16h2M27 16h2M21 17h1M27 17h3M19 18h2M27 18h3M18 19h2M26 19h4M17 20h2M25 20h5M16 21h2M24 21h6M16 22h1M23 22h6M15 23h2M21 23h8M15 24h2M20 24h8M14 25h13M14 26h12M14 27h11M15 28h8M16 29h5" />
<path stroke="#5abd20" d="M28 15h1M29 16h1M30 17h1M30 18h1M30 19h1M30 20h1M30 21h1M15 22h1M29 22h1M29 23h1M28 24h1M27 25h1M26 26h1M25 27h1M14 28h1M23 28h1M15 29h1M21 29h1M17 30h3" />
<path stroke="#83e641" d="M24 16h3M22 17h1M26 17h1M26 18h1M25 19h1M17 22h1M22 22h1M17 23h1M17 24h3" />
<path stroke="#9cf662" d="M23 17h3M21 18h5M20 19h5M19 20h6M18 21h6M18 22h4M18 23h3" />
</svg>