<svg xmlns="http://www.w3.org/2000/svg" viewBox="0 -0.5 48 48" shape-rendering="crispEdges">
<metadata>Made with Pixels to Svg https://codepen.io/shshaw/pen/XbxvNj</metadata>
<path stroke="#9c9c9c" d="M23 10h1M29 10h1M34 10h1M20 11h1M32 11h1M18 12h1M13 17h1M38 18h1M11 20h1M10 22h1M9 24h1M38 26h1M8 27h1M37 28h1M8 34h1M27 36h1M24 37h1M12 38h1M20 38h1" />
<path stroke="#525252" d="M24 10h5M35 10h6M21 11h11M33 11h9M19 12h5M29 12h7M40 12h2M17 13h4M31 13h3M40 13h2M16 14h3M38 14h4M15 15h3M37 15h4M14 16h3M36 16h3M14 17h2M36 17h2M13 18h2M36 18h2M12 19h3M37 19h2M12 20h2M37 20h2M11 21h2M37 21h2M11 22h2M37 22h2M10 23h2M37 23h2M10 24h2M37 24h2M9 25h2M37 25h2M9 26h2M36 26h2M9 27h2M36 27h2M8 28h3M35 28h2M8 29h2M35 29h2M8 30h2M34 30h2M8 31h2M33 31h2M8 32h2M32 32h2M8 33h3M30 33h3M9 34h2M28 34h4M9 35h3M24 35h6M10 36h4M20 36h7M11 37h13M13 38h7" />
<path stroke="#94524a" d="M24 12h1M28 12h1M21 13h1M19 14h1M32 14h2M33 15h2M33 16h3M35 17h1M15 18h1M36 19h1M14 20h1M36 20h1M13 21h1M12 23h1M11 25h1M36 25h1M35 27h1M10 29h1M34 29h1M33 30h1M32 31h1M10 32h1M31 32h1M29 33h1M11 34h1M27 34h1M12 35h1M23 35h1M14 36h1M19 36h1" />
<path stroke="#cd5a41" d="M25 12h3M28 13h3M26 14h3M31 14h1M18 15h1M25 15h2M32 15h1M17 16h1M23 16h2M32 16h1M16 17h1M22 17h2M32 17h3M21 18h2M31 18h2M35 18h1M20 19h2M31 19h1M35 19h1M19 20h2M30 20h2M35 20h1M18 21h2M29 21h2M35 21h1M17 22h2M28 22h2M34 22h1M16 23h2M27 23h2M34 23h1M15 24h2M26 24h2M34 24h1M15 25h1M25 25h2M33 25h1M14 26h1M24 26h2M33 26h1M13 27h2M23 27h2M32 27h1M13 28h1M22 28h1M31 28h1M12 29h2M20 29h2M30 29h1M12 30h1M18 30h2M28 30h2M10 31h1M12 31h1M16 31h3M26 31h3M11 32h1M15 32h2M24 32h3M11 33h1M13 33h2M21 33h4M12 34h1M17 34h4M13 35h4" />
<path stroke="#7bcd52" d="M36 12h3M34 13h3" />
<path stroke="#a4d573" d="M39 12h1" />
<path stroke="#e6735a" d="M22 13h1M25 13h3M29 14h2M24 15h1M27 15h5M25 16h1M30 16h2M30 17h2M30 18h1M33 18h2M30 19h1M32 19h3M18 20h1M29 20h1M32 20h3M17 21h1M28 21h1M31 21h4M36 21h1M13 22h1M27 22h1M30 22h1M32 22h2M35 22h2M13 23h1M15 23h1M18 23h1M26 23h1M29 23h1M32 23h2M35 23h2M12 24h3M17 24h1M25 24h1M28 24h1M31 24h3M35 24h2M12 25h3M16 25h1M24 25h1M27 25h1M31 25h2M34 25h2M11 26h3M15 26h1M23 26h1M26 26h1M30 26h3M34 26h2M11 27h2M15 27h1M22 27h1M25 27h1M30 27h2M33 27h2M11 28h2M14 28h3M21 28h1M23 28h1M28 28h3M32 28h3M11 29h1M14 29h6M22 29h2M27 29h3M31 29h3M10 30h2M13 30h5M20 30h8M30 30h3M11 31h1M13 31h3M19 31h7M29 31h3M12 32h3M17 32h7M27 32h4M12 33h1M15 33h6M25 33h4M13 34h4M21 34h6M17 35h6M15 36h4" />
<path stroke="#ee8b6a" d="M23 13h2M20 14h6M19 15h5M18 16h5M28 16h2M17 17h5M24 17h1M29 17h1M16 18h5M23 18h1M29 18h1M15 19h5M22 19h1M28 19h2M15 20h3M21 20h1M28 20h1M14 21h3M20 21h1M27 21h1M14 22h3M19 22h1M26 22h1M31 22h1M14 23h1M19 23h1M24 23h2M30 23h2M18 24h2M23 24h2M29 24h2M17 25h7M28 25h3M16 26h7M27 26h3M16 27h6M26 27h4M17 28h4M24 28h4M24 29h3" />
<path stroke="#5aa429" d="M37 13h3M34 14h4M35 15h2" />
<path stroke="#f6ac8b" d="M26 16h2M25 17h4M24 18h5M23 19h1M25 19h3M22 20h1M26 20h2M21 21h2M25 21h2M20 22h6M20 23h4M20 24h3" />
<path stroke="#ffcdbd" d="M24 19h1M23 20h3M23 21h2" />
</svg>