<svg xmlns="http://www.w3.org/2000/svg" viewBox="0 -0.5 48 48" shape-rendering="crispEdges">
<metadata>Made with Pixels to Svg https://codepen.io/shshaw/pen/XbxvNj</metadata>
<path stroke="#9c9c9c" d="M18 8h1M22 8h1M23 9h1M25 9h1M32 9h1M16 10h1M34 10h1M35 11h1M14 12h1M36 12h1M37 13h1M38 14h1M39 16h1M9 17h1M40 18h1M8 19h1M36 25h1M40 26h1M8 28h1M9 32h1M35 32h1M12 33h1M34 35h1M33 37h1M20 39h1M22 40h1M24 41h1M29 41h1" />
<path stroke="#525252" d="M19 8h3M17 9h6M26 9h6M17 10h2M22 10h12M16 11h2M23 11h4M32 11h3M15 12h3M34 12h2M13 13h4M35 13h2M12 14h3M36 14h2M11 15h2M37 15h2M10 16h2M37 16h2M10 17h2M38 17h2M9 18h2M38 18h2M9 19h2M34 19h1M39 19h2M8 20h2M34 20h2M39 20h2M8 21h2M34 21h2M39 21h2M8 22h2M34 22h3M39 22h2M8 23h2M34 23h4M39 23h2M8 24h2M34 24h4M39 24h2M8 25h2M34 25h2M37 25h4M8 26h2M34 26h2M37 26h3M8 27h2M34 27h2M38 27h2M9 28h1M34 28h2M9 29h2M14 29h1M34 29h2M9 30h2M13 30h2M34 30h2M9 31h2M12 31h3M33 31h3M10 32h6M33 32h2M10 33h2M14 33h3M33 33h2M15 34h3M32 34h3M16 35h3M32 35h2M17 36h3M31 36h3M18 37h3M31 37h2M19 38h4M30 38h3M21 39h5M28 39h4M23 40h8M25 41h4" />
<path stroke="#73de6a" d="M19 10h1M23 13h5M22 14h8M14 15h3M23 15h8M13 16h5M24 16h6M12 17h5M25 17h4M30 17h1M12 18h4M27 18h2M11 19h5M29 19h1M12 20h3M28 20h1M11 21h1" />
<path stroke="#5abd52" d="M20 10h1M18 11h4M28 11h3M19 12h1M22 12h4M30 12h3M21 13h2M28 13h1M31 13h4M15 14h3M21 14h1M30 14h1M32 14h4M13 15h1M17 15h2M22 15h1M33 15h3M12 16h1M18 16h1M23 16h1M31 16h1M34 16h3M17 17h2M24 17h1M31 17h1M35 17h2M11 18h1M16 18h2M25 18h1M30 18h3M36 18h2M16 19h1M26 19h1M30 19h3M37 19h1M10 20h1M15 20h1M26 20h2M29 20h4M37 20h2M10 21h1M14 21h2M27 21h5M38 21h1M10 22h5M27 22h5M38 22h1M10 23h5M27 23h4M10 24h4M28 24h3M10 25h4M28 25h2M10 26h4M28 26h1M11 27h3M11 28h2M11 29h2M11 30h1" />
<path stroke="#628b52" d="M21 10h1M27 11h1M31 11h1M18 12h1M20 12h2M26 12h1M28 12h2M33 12h1M20 13h1M29 13h2M18 14h1M31 14h1M19 15h1M21 15h1M31 15h2M36 15h1M19 16h1M21 16h2M32 16h2M19 17h1M22 17h2M32 17h3M37 17h1M18 18h1M23 18h2M33 18h3M17 19h1M24 19h2M33 19h1M35 19h2M38 19h1M16 20h1M24 20h2M33 20h1M36 20h1M25 21h2M32 21h2M36 21h2M15 22h1M25 22h2M32 22h1M37 22h1M25 23h2M31 23h2M38 23h1M14 24h1M26 24h2M31 24h1M38 24h1M14 25h1M26 25h2M30 25h2M14 26h1M26 26h2M29 26h2M10 27h1M27 27h3M13 28h1M27 28h1M13 29h1M12 30h1M11 31h1" />
<path stroke="#52734a" d="M22 11h1M27 12h1M17 13h3M19 14h2M20 15h1M20 16h1M20 17h2M19 18h4M18 19h1M23 19h1M17 20h1M16 21h1M16 22h1M33 22h1M15 23h1M15 24h1M32 24h1M15 25h1M31 26h1M14 27h1M30 27h1M10 28h1M14 28h1M28 28h2" />
<path stroke="#83de83" d="M30 16h1M29 17h1M26 18h1M29 18h1M27 19h2M11 20h1M12 21h2" />
<path stroke="#6294a4" d="M19 19h4M18 20h3M17 21h2M17 22h1M20 22h2M16 23h1M33 23h1M33 24h1M32 25h1M15 26h1M33 29h1M15 30h1M33 30h1M15 31h1M16 32h1M32 33h1M31 35h1M21 37h1M30 37h1M23 38h1M29 38h1M26 39h2" />
<path stroke="#6ab4d5" d="M21 20h3M19 21h6M18 22h2M22 22h3M17 23h8M16 24h4M25 24h1M16 25h2M33 25h1M16 26h2M32 26h2M15 27h2M26 27h1M31 27h3M15 28h2M30 28h4M15 29h2M28 29h1M32 29h1M16 30h2M20 30h2M32 30h1M16 31h2M20 31h2M27 31h2M32 31h1M17 32h2M27 32h2M31 32h2M17 33h3M24 33h2M31 33h1M18 34h4M24 34h2M30 34h2M19 35h5M29 35h2M20 36h11M22 37h8M24 38h5" />
<path stroke="#83d5e6" d="M20 24h5M18 25h8M18 26h3M24 26h2M17 27h3M25 27h1M17 28h3M25 28h2M17 29h4M24 29h4M29 29h3M18 30h2M22 30h10M18 31h2M22 31h5M29 31h3M19 32h8M29 32h2M20 33h4M26 33h5M22 34h2M26 34h4M24 35h5" />
<path stroke="#cdeef6" d="M21 26h3M20 27h5M20 28h5M21 29h3" />
</svg>