<svg xmlns="http://www.w3.org/2000/svg" viewBox="0 -0.5 48 48" shape-rendering="crispEdges">
<metadata>Made with Pixels to Svg https://codepen.io/shshaw/pen/XbxvNj</metadata>
<path stroke="#9c9c9c" d="M11 5h1M14 5h2M18 5h1M11 9h1M18 9h1M23 9h1M31 9h1M33 9h1M36 9h1M21 10h1M37 10h1M11 11h1M20 11h1M38 11h1M38 15h1M11 16h1M45 16h1M43 22h1M7 23h1M8 25h1M39 26h1M9 27h1M37 27h1M38 29h1M10 30h1M10 32h1M33 34h1M14 38h1M18 41h1M25 41h1" />
<path stroke="#525252" d="M12 5h2M16 5h2M11 6h8M11 7h2M14 7h2M17 7h2M11 8h2M16 8h3M12 9h2M16 9h2M24 9h7M34 9h2M12 10h2M17 10h2M22 10h15M12 11h2M17 11h3M21 11h4M31 11h4M36 11h2M11 12h2M18 12h5M36 12h3M11 13h2M19 13h3M37 13h2M11 14h2M36 14h3M41 14h3M11 15h2M36 15h2M40 15h5M12 16h2M36 16h6M43 16h2M12 17h2M36 17h5M43 17h3M8 18h6M37 18h2M44 18h2M7 19h7M43 19h3M7 20h2M42 20h3M7 21h2M41 21h3M7 22h3M41 22h2M8 23h2M40 23h3M8 24h3M38 24h4M9 25h2M36 25h5M9 26h2M35 26h4M10 27h2M35 27h2M10 28h2M35 28h3M10 29h2M36 29h2M11 30h2M37 30h2M11 31h2M37 31h2M11 32h2M33 32h6M10 33h2M32 33h6M10 34h2M31 34h2M10 35h2M31 35h2M10 36h6M31 36h2M11 37h6M31 37h2M15 38h3M31 38h2M16 39h4M25 39h8M17 40h15M19 41h6" />
<path stroke="#bdb439" d="M13 7h1M16 7h1M25 11h1M29 11h1M35 11h1M23 12h1M28 12h1M22 13h1M26 13h1M36 13h1M22 14h3M22 15h2M42 16h1M43 18h1" />
<path stroke="#419c41" d="M13 8h3M29 12h7M18 13h1M27 13h3M19 14h1M21 14h1M25 14h3M19 15h1M24 15h2M20 16h1M22 16h3M14 17h1M18 17h3M23 17h1M41 17h2M15 18h5M36 18h1M39 18h1M42 18h1M21 19h1M42 19h1" />
<path stroke="#52cd52" d="M14 9h1M30 15h1M14 16h1M19 16h1M15 17h3M27 17h1M16 19h3M14 20h7M13 21h9M12 22h11M12 23h3M17 23h1M19 23h4M12 24h3M17 24h2M20 24h4M12 25h6M20 25h4M12 26h2M15 26h2M20 26h4M12 27h3M20 27h3M26 27h3M13 28h3M19 28h4M26 28h1M28 28h1M13 29h9M27 29h1M15 30h5M20 33h2M20 34h1M22 34h1M21 35h1" />
<path stroke="#62e67b" d="M15 9h1M14 10h2M14 11h3M14 12h1M16 12h1M14 13h4M30 13h1M34 13h1M14 14h5M28 14h1M33 14h2M14 15h1M16 15h1M18 15h1M26 15h1M33 15h2M15 16h4M25 16h1M32 16h2M24 17h1M30 17h1M32 17h2M29 18h4M40 18h2M23 19h1M28 19h4M37 19h5M9 20h2M24 20h4M29 20h2M35 20h4M40 20h1M26 21h3M35 21h2M38 21h3M35 22h5M15 23h2M37 23h2M15 24h1M27 28h1M28 29h1M21 34h1M22 35h1" />
<path stroke="#31b431" d="M16 10h1M17 12h1M13 13h1M13 14h1M34 16h1M23 18h1M33 18h1M32 19h1M36 19h1M31 20h1M41 20h1M25 21h1M29 21h1M40 22h1M39 23h1" />
<path stroke="#e6ee6a" d="M26 11h3M24 12h4M23 13h3" />
<path stroke="#398341" d="M30 11h1M13 12h1M35 13h1M20 14h1M35 14h1M13 15h1M20 15h2M35 15h1M21 16h1M35 16h1M21 17h2M34 17h2M14 18h1M20 18h3M34 18h2M14 19h1M22 19h1M33 19h3M12 20h1M22 20h2M32 20h3M11 21h1M23 21h2M30 21h4M11 22h1M24 22h11M10 23h1M25 23h5M33 23h3M34 24h4M34 25h2M11 26h1M19 26h1M18 27h2M30 27h1M16 28h3M30 28h1M12 29h1M30 29h1M34 29h2M25 30h1M30 30h1M34 30h2M26 31h4M33 31h2M13 32h1M32 32h1M12 33h2M31 33h1M13 34h2M24 34h1M14 35h2M24 35h1M30 35h1M19 36h1M23 36h2M29 36h2M20 37h4M28 37h1M18 38h1M26 38h3M20 39h1M23 39h2" />
<path stroke="#41a44a" d="M15 12h1M15 15h1M17 15h1M31 17h1M15 19h1M19 19h2M11 20h1M13 20h1M21 20h1M28 20h1M39 20h1M9 21h2M12 21h1M22 21h1M34 21h1M37 21h1M10 22h1M23 22h1M11 23h1M18 23h1M23 23h2M30 23h3M36 23h1M11 24h1M19 24h1M24 24h10M11 25h1M18 25h2M24 25h10M14 26h1M17 26h2M24 26h11M15 27h3M23 27h3M29 27h1M31 27h4M12 28h1M23 28h3M29 28h1M31 28h4M22 29h5M29 29h1M31 29h3M13 30h2M20 30h5M26 30h4M31 30h3M36 30h1M13 31h13M30 31h3M35 31h2M14 32h18M14 33h6M22 33h9M12 34h1M15 34h5M23 34h1M25 34h6M12 35h2M16 35h5M23 35h1M25 35h5M16 36h3M20 36h3M25 36h4M17 37h3M24 37h4M29 37h2M19 38h7M29 38h2M21 39h2" />
<path stroke="#bdf6bd" d="M31 13h3M29 14h4M27 15h3M31 15h2M26 16h6M25 17h2M28 17h2M24 18h5M24 19h4M16 24h1" />
</svg>