<svg xmlns="http://www.w3.org/2000/svg" viewBox="0 -0.5 48 48" shape-rendering="crispEdges">
<metadata>Made with Pixels to Svg https://codepen.io/shshaw/pen/XbxvNj</metadata>
<path stroke="#9c9c9c" d="M28 4h1M25 5h1M23 6h1M33 8h1M19 10h1M34 11h1M35 17h1M31 23h1M15 24h1M30 26h1M11 31h1M30 31h1M11 34h1M26 38h1M22 41h1M15 42h1" />
<path stroke="#525252" d="M29 4h3M26 5h7M24 6h5M31 6h2M22 7h5M31 7h2M21 8h4M31 8h2M20 9h3M32 9h2M20 10h2M32 10h2M16 11h6M32 11h2M15 12h6M33 12h2M15 13h2M33 13h2M15 14h2M33 14h2M15 15h3M33 15h2M16 16h2M33 16h2M17 17h2M33 17h2M18 18h2M34 18h2M18 19h2M35 19h2M17 20h3M35 20h2M16 21h3M31 21h6M16 22h2M30 22h6M16 23h2M29 23h2M16 24h2M29 24h2M15 25h3M29 25h2M12 26h5M28 26h2M11 27h6M28 27h2M11 28h2M28 28h2M11 29h2M28 29h2M11 30h3M28 30h2M12 31h2M28 31h2M12 32h2M29 32h2M12 33h2M30 33h2M12 34h2M30 34h2M11 35h3M25 35h7M10 36h3M25 36h6M10 37h2M25 37h2M10 38h5M24 38h2M11 39h5M22 39h4M14 40h3M20 40h5M15 41h2M20 41h2M16 42h2M19 42h2M16 43h5M17 44h3" />
<path stroke="#9c5231" d="M29 6h1M18 16h1M32 16h1M33 18h1M34 19h1M30 21h1M29 22h1M28 25h1M17 26h1M16 28h1M27 28h1M27 29h1M27 30h1M14 32h1M29 33h1M15 38h1M16 39h1" />
<path stroke="#ee4a10" d="M30 6h1M30 7h1M25 8h1M28 8h1M29 9h2M29 10h3M30 11h2M21 12h1M30 12h2M19 13h1M30 13h3M18 14h1M30 14h3M18 15h1M20 15h1M27 15h2M30 15h2M26 16h1M29 16h3M27 17h5M27 18h4M27 19h4M32 19h2M27 20h3M32 20h3M27 21h3M21 22h1M26 22h3M22 23h1M26 23h3M18 24h1M21 24h1M26 24h2M19 25h3M25 25h3M18 26h1M22 26h1M25 26h3M18 27h3M24 27h3M14 28h1M24 28h3M13 29h1M16 29h1M24 29h3M15 30h1M23 30h3M23 31h3M22 32h4M28 32h1M14 33h1M20 33h5M27 33h2M14 34h2M21 34h4M27 34h3M14 35h5M23 35h2M14 36h4M23 36h2M12 37h1M15 37h3M20 37h2M23 37h1M16 38h3M22 38h1M18 39h4M18 42h1" />
<path stroke="#c53918" d="M27 7h3M29 8h2M23 9h1M31 9h1M22 10h1M32 12h1M20 13h1M29 13h1M19 14h2M29 14h1M19 15h1M26 15h1M29 15h1M32 15h1M19 16h1M27 16h2M19 17h1M32 17h1M31 18h2M31 19h1M30 20h2M19 21h1M22 24h1M28 24h1M18 25h1M22 25h1M19 26h3M17 27h1M27 27h1M15 28h1M14 29h2M14 30h1M26 30h1M14 31h1M26 31h2M26 32h2M25 33h2M25 34h2M22 35h1M13 36h1M18 36h1M22 36h1M13 37h2M18 37h2M22 37h1M24 37h1M19 38h3M23 38h1M17 39h1M17 40h3M17 41h3" />
<path stroke="#f66a31" d="M26 8h2M24 9h1M28 9h1M23 10h1M22 11h1M27 11h3M26 12h1M29 12h1M21 13h1M26 13h1M26 14h1M20 16h1M20 20h1M26 20h1M20 21h1M26 21h1M18 22h1M22 22h1M18 23h1M21 23h1M19 24h1M25 24h1M24 26h1M21 27h1M17 28h1M23 29h1M22 31h1M20 32h1M15 33h1M18 33h2M16 34h1M18 34h1" />
<path stroke="#ff8352" d="M25 9h3M24 10h5M25 11h2M18 13h1M28 13h1M17 14h1M21 14h2M25 14h1M27 14h2M21 15h5M21 16h5M20 17h7M20 18h7M20 19h7M21 20h5M21 21h5M23 22h3M19 23h1M23 23h3M20 24h1M23 24h2M23 25h2M23 26h1M22 27h2M18 28h6M17 29h6M16 30h7M15 31h1M18 31h4M15 32h1M18 32h2M21 32h1M16 33h2M17 34h1M20 34h1M19 35h1M21 35h1M19 36h3" />
<path stroke="#ffac83" d="M23 11h2M22 12h4M27 12h2M17 13h1M22 13h4M27 13h1M23 14h2M19 22h2M20 23h1M13 28h1M16 31h2M16 32h2M19 34h1M20 35h1" />
</svg>