<svg xmlns="http://www.w3.org/2000/svg" viewBox="0 -0.5 48 48" shape-rendering="crispEdges">
<metadata>Made with Pixels to Svg https://codepen.io/shshaw/pen/XbxvNj</metadata>
<path stroke="#9c9c9c" d="M36 9h1M33 11h1M40 11h1M30 12h1M19 13h1M16 14h1M10 20h1M40 23h1M9 24h1M39 26h1M38 28h1M7 29h1M37 30h1M8 31h1M9 32h1M10 34h1M11 37h1M12 38h1M16 38h1M29 38h1M18 39h1M26 39h1" />
<path stroke="#525252" d="M37 9h2M35 10h5M34 11h3M38 11h2M31 12h5M38 12h3M20 13h14M39 13h2M17 14h14M39 14h2M15 15h6M39 15h2M14 16h4M39 16h2M13 17h3M39 17h2M12 18h3M39 18h2M11 19h3M39 19h2M11 20h2M39 20h2M10 21h3M39 21h2M10 22h2M39 22h2M10 23h2M38 23h2M10 24h2M38 24h2M8 25h4M38 25h2M7 26h4M37 26h2M7 27h2M37 27h2M7 28h2M36 28h2M8 29h2M36 29h2M8 30h3M35 30h2M9 31h2M34 31h3M10 32h2M33 32h3M10 33h2M32 33h3M11 34h1M31 34h3M11 35h2M15 35h1M30 35h3M11 36h2M15 36h2M29 36h3M12 37h7M26 37h5M13 38h3M17 38h12M19 39h7" />
<path stroke="#a4e6a4" d="M37 11h1M36 12h1M35 13h1M32 14h3M22 15h3M29 15h3M18 16h1M20 16h2M16 17h1M18 17h1M37 17h1M15 18h2M36 18h2M14 19h1M35 19h2M13 20h1M33 20h4M31 21h5M30 22h6M28 23h7M26 24h9M24 25h10M22 26h11M20 27h12M19 28h11M21 29h7M23 30h2" />
<path stroke="#31cd52" d="M37 12h1M36 13h2M36 14h2M36 15h1M36 16h1M35 17h1M33 18h2M32 19h2M37 19h1M30 20h2M38 20h1M14 21h1M28 21h3M36 21h1M38 21h1M14 22h2M26 22h3M37 22h1M15 23h1M24 23h3M35 23h1M37 23h1M16 24h1M22 24h3M36 24h2M16 25h2M20 25h3M35 25h2M17 26h4M34 26h3M17 27h2M33 27h3M18 28h1M32 28h4M20 29h1M31 29h4M22 30h1M29 30h6M16 31h1M26 31h8M15 32h1M17 32h1M23 32h10M15 33h1M21 33h11M20 34h11M16 35h1M21 35h9M17 36h1M20 36h1M22 36h6M19 37h2M22 37h3" />
<path stroke="#319c41" d="M34 13h1M38 13h1M31 14h1M38 14h1M21 15h1M37 15h2M38 16h1M38 17h1M38 18h1M38 19h1M37 20h1M37 21h1M36 22h1M38 22h1M36 23h1M35 24h1M34 25h1M37 25h1M11 26h1M33 26h1M32 27h1M36 27h1M17 28h1M31 28h1M19 29h1M29 29h2M35 29h1M21 30h1M26 30h3M11 31h1M15 31h1M23 31h3M20 32h3M18 33h3M15 34h1M19 34h1M20 35h1M14 36h1M21 36h1M28 36h1M21 37h1M25 37h1" />
<path stroke="#62de6a" d="M35 14h1M32 15h4M22 16h14M37 16h1M19 17h16M36 17h1M17 18h16M35 18h1M15 19h17M34 19h1M14 20h16M32 20h1M15 21h13M16 22h10M29 22h1M16 23h8M27 23h1M17 24h5M25 24h1M18 25h2M23 25h1M21 26h1M19 27h1M30 28h1M28 29h1M25 30h1M18 36h1" />
<path stroke="#b4ffb4" d="M25 15h4M19 16h1M17 17h1M16 32h1M16 33h2M16 34h3M17 35h3M19 36h1" />
<path stroke="#ac3939" d="M13 21h1M14 23h1M15 24h1M15 25h1M16 26h1M16 27h1M16 28h1M15 29h1M13 30h2M12 31h1" />
<path stroke="#ff9c9c" d="M12 22h1M12 23h1M12 24h2M12 25h2M12 26h2M13 27h1M13 28h1" />
<path stroke="#d54a4a" d="M13 22h1M13 23h1M14 24h1M14 25h1M14 26h2M12 27h1M14 27h2M14 28h2M13 29h2" />
<path stroke="#a4cdff" d="M9 27h1M9 28h2M10 29h2" />
<path stroke="#4aa4d5" d="M10 27h2M11 28h2M12 29h1M11 30h2" />
<path stroke="#d5c539" d="M16 29h3M15 30h1M20 30h1M13 31h1M17 31h1M22 31h1M12 32h1M18 32h2M12 33h1M12 34h1M14 34h1M14 35h1M13 36h1" />
<path stroke="#fff6ac" d="M16 30h4M14 31h1M18 31h4M13 32h2M13 33h2M13 34h1M13 35h1" />
</svg>