<svg xmlns="http://www.w3.org/2000/svg" viewBox="0 -0.5 48 48" shape-rendering="crispEdges">
<metadata>Made with Pixels to Svg https://codepen.io/shshaw/pen/XbxvNj</metadata>
<path stroke="#9c9c9c" d="M32 10h1M39 10h1M29 12h1M41 12h1M26 13h1M24 14h1M22 15h1M37 16h1M40 16h1M35 23h1M34 27h1M34 29h1M7 30h1M31 34h1M7 36h1M23 36h1M19 39h1M11 40h1M17 40h1" />
<path stroke="#525252" d="M33 10h6M31 11h10M30 12h3M39 12h2M27 13h5M40 13h2M17 14h3M25 14h5M35 14h3M40 14h2M16 15h5M23 15h4M34 15h7M16 16h2M20 16h5M34 16h2M38 16h2M14 17h4M21 17h2M34 17h2M13 18h5M34 18h2M13 19h2M34 19h2M13 20h2M34 20h2M13 21h2M34 21h2M13 22h2M34 22h2M13 23h2M33 23h2M13 24h2M33 24h2M12 25h3M33 25h2M11 26h4M33 26h2M10 27h3M32 27h2M9 28h3M32 28h2M8 29h3M32 29h2M8 30h2M33 30h2M7 31h2M33 31h2M7 32h2M31 32h4M7 33h2M23 33h1M29 33h5M7 34h2M22 34h3M29 34h2M7 35h2M21 35h10M8 36h2M20 36h3M25 36h5M8 37h3M19 37h3M9 38h3M17 38h4M10 39h9M12 40h5" />
<path stroke="#9c9431" d="M33 12h1M18 24h1M20 24h1M16 25h1M22 25h1M23 26h1M13 27h1M24 27h1M25 29h1M25 30h1M9 31h1M24 31h1M9 35h1M18 37h1M12 38h1M16 38h1" />
<path stroke="#ffffcd" d="M34 12h3M34 13h1M13 30h2M12 31h4M12 32h4M13 33h2" />
<path stroke="#f6ee39" d="M37 12h2M32 13h2M35 13h1M32 14h2M13 29h4M12 30h1M15 30h3M11 31h1M16 31h2M11 32h1M16 32h2M11 33h2M15 33h3M11 34h6M12 35h3" />
<path stroke="#ded510" d="M36 13h4M31 14h1M34 14h1M38 14h2M33 15h1M19 24h1M17 25h5M15 26h8M14 27h10M12 28h13M11 29h2M17 29h8M10 30h2M18 30h7M10 31h1M18 31h6M9 32h2M18 32h6M9 33h2M18 33h5M9 34h2M17 34h5M10 35h2M15 35h6M10 36h10M11 37h7M13 38h3" />
<path stroke="#29735a" d="M30 14h1M30 15h3M32 16h2M33 17h1M22 18h2M25 18h5M17 19h1M23 19h3M30 19h1M30 20h1M30 21h1M29 22h1M29 23h1M29 24h1M30 25h1M30 26h2M31 27h1M28 32h3" />
<path stroke="#397b6a" d="M27 15h1M24 18h1M33 18h1M17 20h1M30 22h1M33 22h1M17 23h5M15 24h3M21 24h2M15 25h1M23 25h1M29 25h1M24 26h1M32 26h1M25 27h1M25 28h1M26 29h1M26 30h1M25 31h1M24 32h1M24 33h1M28 33h1M25 34h1M28 34h1" />
<path stroke="#20ac83" d="M28 15h2M19 16h1M25 16h1M31 16h1M20 17h1M23 17h1M32 17h1M21 18h1M32 18h1M16 19h1M22 19h1M26 19h1M32 19h2M16 20h1M32 20h2M16 21h7M29 21h1M32 21h2M15 22h10M31 22h2M15 23h2M22 23h4M30 23h3M23 24h4M30 24h3M24 25h4M31 25h2M25 26h3M26 27h3M30 27h1M26 28h4M31 28h1M27 29h4M27 30h6M26 31h7M25 32h3M25 33h3M26 34h2" />
<path stroke="#31e6a4" d="M18 16h1M26 16h5M18 17h2M24 17h8M19 18h2M30 18h2M19 19h3M27 19h3M31 19h1M18 20h1M25 20h5M31 20h1M15 21h1M23 21h1M27 21h2M31 21h1M25 22h1M28 22h1M26 23h3M27 24h2M28 25h1M28 26h2M29 27h1M30 28h1M31 29h1" />
<path stroke="#7beebd" d="M18 18h1M15 19h1M18 19h1M15 20h1M19 20h6M24 21h3M26 22h2" />
</svg>