<svg xmlns="http://www.w3.org/2000/svg" viewBox="0 -0.5 48 48" shape-rendering="crispEdges">
<metadata>Made with Pixels to Svg https://codepen.io/shshaw/pen/XbxvNj</metadata>
<path stroke="#9c9c9c" d="M7 6h1M14 6h1M5 7h1M18 9h1M21 10h1M5 11h1M23 11h1M6 12h1M10 12h2M26 13h1M29 14h1M31 15h1M33 16h1M13 19h1M37 20h1M14 21h1M38 22h1M39 25h1M15 30h1M16 33h1M39 33h1M39 34h1M21 38h1M39 38h1M23 39h1M27 40h1M36 41h1M30 42h1M34 42h1" />
<path stroke="#525252" d="M8 6h6M6 7h10M5 8h3M14 8h3M5 9h2M15 9h3M5 10h2M10 10h2M16 10h5M6 11h8M18 11h5M7 12h3M12 12h3M22 12h3M13 13h3M24 13h2M13 14h2M24 14h5M13 15h2M26 15h5M13 16h2M29 16h4M13 17h2M32 17h3M13 18h2M33 18h3M14 19h2M34 19h3M14 20h2M35 20h2M15 21h2M36 21h2M15 22h2M36 22h2M15 23h2M37 23h2M15 24h2M37 24h2M15 25h2M37 25h2M15 26h2M38 26h2M15 27h2M38 27h2M15 28h2M38 28h2M15 29h2M38 29h2M16 30h2M38 30h2M16 31h2M38 31h2M16 32h2M38 32h2M17 33h2M37 33h2M17 34h3M37 34h2M18 35h3M37 35h3M19 36h3M38 36h2M20 37h4M38 37h2M22 38h6M37 38h2M24 39h6M36 39h3M28 40h3M34 40h4M29 41h7M31 42h3" />
<path stroke="#6af66a" d="M8 8h3M7 9h3M19 14h3M18 15h5M18 16h5M18 17h5M19 18h11M22 19h10M21 20h4M27 20h6M21 21h3M28 21h6M20 22h4M28 22h6M20 23h5M27 23h7M20 24h14M20 25h14M21 26h13M21 27h12M22 28h10M23 29h8M25 30h4" />
<path stroke="#9cffbd" d="M11 8h2M10 9h2M25 20h2M24 21h4M24 22h4M25 23h2" />
<path stroke="#417b41" d="M13 8h1M9 10h1M12 10h1M17 11h1M16 12h1M21 12h1M23 13h1M15 14h1M25 15h1M28 16h1M31 17h1M15 18h1M16 20h1M35 21h1M36 23h1M37 26h1M17 29h1M18 32h1M37 32h1M36 34h1M35 35h2M22 36h1M34 36h3M24 37h1M32 37h3M28 38h6M30 39h2" />
<path stroke="#31de52" d="M12 9h2M18 13h5M17 14h2M22 14h2M17 15h1M23 15h2M17 16h1M23 16h3M17 17h1M23 17h5M17 18h2M30 18h1M17 19h5M32 19h1M18 20h3M33 20h1M18 21h3M19 22h1M34 22h1M19 23h1M34 23h1M19 24h1M34 24h1M19 25h1M34 25h1M19 26h2M19 27h2M33 27h1M20 28h2M32 28h1M21 29h2M31 29h1M23 30h2M29 30h1" />
<path stroke="#39bd4a" d="M14 9h1M7 10h2M13 10h3M14 11h3M15 12h1M17 12h4M16 13h2M16 14h1M15 15h2M15 16h2M26 16h2M15 17h2M28 17h3M16 18h1M31 18h2M16 19h1M33 19h1M17 20h1M34 20h1M17 21h1M34 21h1M17 22h2M35 22h1M17 23h2M35 23h1M17 24h2M35 24h2M17 25h2M35 25h2M17 26h2M34 26h3M17 27h2M34 27h4M17 28h3M33 28h5M18 29h3M32 29h6M18 30h5M30 30h8M18 31h19M19 32h18M19 33h17M20 34h16M21 35h14M23 36h10M25 37h6" />
<path stroke="#399c41" d="M37 31h1M36 33h1M33 36h1M37 36h1M31 37h1M35 37h3M34 38h3M32 39h4M31 40h3" />
</svg>