<svg xmlns="http://www.w3.org/2000/svg" viewBox="0 -0.5 32 32" shape-rendering="crispEdges">
<metadata>Made with Pixels to Svg https://codepen.io/shshaw/pen/XbxvNj</metadata>
<path stroke="#ffffff" d="M13 5h5M11 6h3M17 6h3M10 7h2M19 7h2M9 8h2M20 8h2M8 9h2M21 9h2M7 10h2M22 10h2M6 11h2M23 11h2M5 12h2M24 12h2M5 13h1M25 13h1M4 14h2M25 14h2M4 15h1M26 15h1M4 16h1M26 16h1M4 17h2M25 17h2M5 18h1M25 18h1M5 19h2M24 19h2M6 20h2M23 20h2M7 21h2M22 21h2M8 22h2M21 22h2M9 23h2M20 23h2M10 24h2M19 24h2M11 25h3M17 25h3M13 26h5" />
<path stroke="#292429" d="M14 6h3M12 7h2M17 7h2M19 8h1M20 9h1M21 10h1M22 11h1M23 12h1M24 13h1M6 14h1M24 14h1M5 15h1M25 15h1M5 16h1M25 16h1M6 17h1M24 17h1M6 18h1M24 18h1M7 19h1M8 20h1M22 20h1M9 21h1M10 22h1M20 22h1M11 23h1M12 24h2M18 24h1M14 25h2" />
<path stroke="#effbff" d="M14 7h2M14 8h2M15 9h1M15 10h1M15 11h1M15 12h1M15 13h1M15 14h1M15 15h1M6 16h3M15 16h1M7 17h2M15 17h1M8 18h2M15 18h1M12 19h4M12 20h2" />
<path stroke="#f7fbff" d="M16 7h1" />
<path stroke="#082c31" d="M11 8h1M10 9h1M9 10h1M8 11h1M7 12h1M6 13h1M17 24h1M16 25h1" />
<path stroke="#c5f0fc" d="M12 8h1M17 8h1M13 9h1M16 9h1" />
<path stroke="#f7f7ff" d="M13 8h1M16 8h1" />
<path stroke="#bdeff7" d="M18 8h1M18 9h2M20 10h1M20 11h2M17 12h1M22 12h1M22 13h2M12 15h1M19 15h1M15 22h1M15 23h1" />
<path stroke="#527275" d="M11 9h1M9 11h1M7 13h1M16 24h1" />
<path stroke="#94e9f9" d="M12 9h1M17 9h1" />
<path stroke="#bdedf4" d="M14 9h1M14 10h1M14 11h1M14 12h1M14 13h1M14 14h1M14 15h1M14 16h1M14 17h1M14 18h1" />
<path stroke="#008a9c" d="M10 10h1M8 12h1M16 12h1M11 13h1M16 13h2M18 14h1M9 15h1M18 15h1M12 16h2M17 18h2M19 20h1M17 21h3" />
<path stroke="#8ceff7" d="M11 10h3M10 11h3M9 12h1M19 12h1M8 13h2M10 21h1M12 23h2" />
<path stroke="#5dc4d3" d="M16 10h1M17 11h1M20 15h2" />
<path stroke="#8ce3ef" d="M17 10h1M21 14h1" />
<path stroke="#8beff9" d="M18 10h1M18 11h2M20 12h1M21 13h1" />
<path stroke="#bdeff4" d="M19 10h1M21 12h1M20 13h1" />
<path stroke="#60becb" d="M13 11h1M18 12h1M18 13h2M10 20h2M11 21h1M12 22h2" />
<path stroke="#00869c" d="M16 11h1M20 14h1" />
<path stroke="#9ceff7" d="M10 12h2M10 13h1M8 14h2M8 15h1" />
<path stroke="#5fbecb" d="M12 12h2M12 13h2M10 14h2M10 15h2M14 22h1M14 23h1" />
<path stroke="#bdf3ff" d="M7 14h1M6 15h2M22 18h2" />
<path stroke="#5ebec9" d="M12 14h2M12 17h2" />
<path stroke="#058b9f" d="M16 14h2M16 15h2M16 16h4M16 17h4" />
<path stroke="#5ebcc9" d="M19 14h1" />
<path stroke="#8eecfc" d="M22 14h1M22 15h1" />
<path stroke="#c2edf9" d="M23 14h1M23 15h1" />
<path stroke="#008e9c" d="M13 15h1M11 17h1" />
<path stroke="#e7f7ff" d="M24 15h1M24 16h1" />
<path stroke="#63bece" d="M9 16h1M12 18h1" />
<path stroke="#63becd" d="M10 16h2" />
<path stroke="#5dbecd" d="M20 16h2M20 17h1" />
<path stroke="#5dbecb" d="M22 16h1" />
<path stroke="#c6eff7" d="M23 16h1M22 17h2M20 18h2M20 19h1" />
<path stroke="#c0e6ee" d="M9 17h1M13 18h1" />
<path stroke="#c6efff" d="M10 17h1M21 17h1M11 18h1M16 18h1M19 18h1M16 19h4M18 20h1" />
<path stroke="#c6f7ff" d="M7 18h1M9 20h1M11 22h1" />
<path stroke="#ecf9f9" d="M10 18h1M10 19h2" />
<path stroke="#a2e0e9" d="M8 19h1" />
<path stroke="#55c5d3" d="M9 19h1" />
<path stroke="#08aec6" d="M21 19h1M17 23h1" />
<path stroke="#86b0b7" d="M22 19h1" />
<path stroke="#182c29" d="M23 19h1" />
<path stroke="#eff9fc" d="M14 20h2M14 21h2" />
<path stroke="#def7ff" d="M16 20h2M16 21h1" />
<path stroke="#368a97" d="M20 20h1M18 22h1" />
<path stroke="#4abece" d="M21 20h1M20 21h1M19 22h1M18 23h1" />
<path stroke="#5fbfcd" d="M12 21h2" />
<path stroke="#102429" d="M21 21h1M19 23h1" />
<path stroke="#028a9f" d="M16 22h2M16 23h1" />
<path stroke="#a5eff7" d="M14 24h2" />
</svg>