<svg xmlns="http://www.w3.org/2000/svg" viewBox="0 -0.5 32 32" shape-rendering="crispEdges">
<metadata>Made with Pixels to Svg https://codepen.io/shshaw/pen/XbxvNj</metadata>
<path stroke="#ffffff" d="M15 9h4M13 10h3M18 10h2M12 11h2M19 11h2M11 12h2M20 12h1M10 13h2M20 13h2M10 14h1M21 14h1M10 15h1M21 15h2M10 16h1M22 16h1M10 17h2M22 17h1M11 18h1M21 18h2M11 19h2M19 19h3M12 20h2M17 20h3M13 21h5" />
<path stroke="#292429" d="M16 10h2M14 11h2M18 11h1M19 12h1M19 13h1M11 14h1M20 14h1M11 15h1M20 15h1M11 16h1M21 16h1M21 17h1M12 18h1M19 18h2M13 19h1M18 19h1M14 20h3" />
<path stroke="#d6f3f7" d="M16 11h2" />
<path stroke="#102c31" d="M13 12h1M12 13h1" />
<path stroke="#10aec6" d="M14 12h1M17 14h1" />
<path stroke="#89dce6" d="M15 12h1M16 15h1" />
<path stroke="#e7fbff" d="M16 12h2M16 13h1" />
<path stroke="#a5eff7" d="M18 12h1M18 13h1" />
<path stroke="#6f9598" d="M13 13h1" />
<path stroke="#4cc5d6" d="M14 13h1M17 15h1" />
<path stroke="#c6f3f7" d="M15 13h1M16 14h1" />
<path stroke="#5ad7e7" d="M17 13h1M15 17h1" />
<path stroke="#52c3d6" d="M12 14h1" />
<path stroke="#62d1e3" d="M13 14h1M12 15h1" />
<path stroke="#8cebf7" d="M14 14h1" />
<path stroke="#eff7f7" d="M15 14h1M15 15h1" />
<path stroke="#5acbde" d="M18 14h1M19 15h1" />
<path stroke="#96e5ee" d="M19 14h1" />
<path stroke="#84efff" d="M13 15h1" />
<path stroke="#bdf1f7" d="M14 15h1" />
<path stroke="#b5f3f7" d="M18 15h1" />
<path stroke="#adf7ff" d="M12 16h1M13 17h1" />
<path stroke="#7bb2b7" d="M13 16h1" />
<path stroke="#effbf7" d="M14 16h1M14 17h1" />
<path stroke="#bdeff1" d="M15 16h1" />
<path stroke="#08aec6" d="M16 16h1M18 16h1M16 17h1" />
<path stroke="#bde7ef" d="M17 16h1" />
<path stroke="#62ccda" d="M19 16h1M18 17h1" />
<path stroke="#8ceff7" d="M20 16h1M20 17h1" />
<path stroke="#182829" d="M12 17h1" />
<path stroke="#62cada" d="M17 17h1" />
<path stroke="#bdebef" d="M19 17h1" />
<path stroke="#f7fbff" d="M13 18h2" />
<path stroke="#94efff" d="M15 18h1" />
<path stroke="#63b6ba" d="M16 18h2" />
<path stroke="#c6f7ff" d="M18 18h1" />
<path stroke="#d6f7ff" d="M14 19h2" />
<path stroke="#84fbff" d="M16 19h1" />
<path stroke="#212c31" d="M17 19h1" />
</svg>