<svg xmlns="http://www.w3.org/2000/svg" viewBox="0 -0.5 32 32" shape-rendering="crispEdges">
<metadata>Made with Pixels to Svg https://codepen.io/shshaw/pen/XbxvNj</metadata>
<path stroke="#202020" d="M18 6h4M17 7h1M22 7h1M16 8h1M23 8h1M15 9h1M18 9h2M24 9h1M15 10h1M18 10h1M24 10h1M15 11h1M24 11h1M15 12h1M24 12h1M14 13h1M23 13h1M13 14h1M22 14h1M12 15h1M18 15h4M11 16h1M17 16h1M10 17h1M16 17h1M9 18h1M15 18h1M8 19h1M16 19h1M7 20h1M13 20h1M17 20h1M6 21h1M12 21h3M16 21h1M6 22h1M13 22h3M6 23h1M10 23h1M14 23h1M7 24h3M11 24h1M13 24h1M12 25h1" />
<path stroke="#e6dec5" d="M18 7h4M21 8h2M22 9h1M22 10h1M21 11h1M17 12h4M16 13h1M15 14h1M14 15h1M13 16h1M12 17h1M11 18h1M14 18h1M10 19h1M13 19h3M9 20h1M14 20h1M8 21h1M11 21h1M7 22h1M10 22h3M11 23h1" />
<path stroke="#fff6f6" d="M17 8h1M16 9h1M21 9h1M16 10h1M21 10h1M16 11h1M20 11h1M15 13h1M14 14h1M13 15h1M12 16h1M11 17h1M10 18h1M9 19h1M8 20h1M7 21h1" />
<path stroke="#cdbda4" d="M18 8h1M20 8h1M17 9h1M17 11h1M22 11h1M16 12h1M21 12h1M17 13h1M16 14h1M15 15h1M14 16h1M13 17h1M12 18h2M11 19h1M10 20h1M9 21h2M8 22h1M7 23h1" />
<path stroke="#94836a" d="M19 8h1M23 9h1M17 10h1M20 10h1M23 10h1M19 11h1M23 11h1M22 12h1M18 13h4M17 14h1M16 15h1M15 16h1M14 17h1M12 19h1M11 20h1M15 20h1M9 22h1M8 23h1M12 23h1" />
<path stroke="#625239" d="M20 9h1M18 11h1M23 12h1M22 13h1M18 14h4M17 15h1M16 16h1M15 17h1M12 20h1M16 20h1M15 21h1M9 23h1M13 23h1M12 24h1" />
</svg>