<svg xmlns="http://www.w3.org/2000/svg" viewBox="0 -0.5 32 32" shape-rendering="crispEdges">
<metadata>Made with Pixels to Svg https://codepen.io/shshaw/pen/XbxvNj</metadata>
<path stroke="#303030" d="M10 6h5M9 7h1M15 7h3M8 8h1M18 8h4M8 9h1M22 9h2M8 10h1M24 10h1M9 11h1M24 11h1M8 12h2M24 12h1M7 13h1M9 13h1M24 13h1M6 14h2M23 14h1M6 15h1M8 15h1M23 15h1M5 16h1M7 16h1M21 16h2M5 17h1M7 17h1M23 17h1M5 18h2M23 18h1M5 19h2M21 19h2M24 19h1M6 20h1M24 20h1M7 21h1M24 21h1M7 22h1M23 22h1M25 22h1M8 23h1M23 23h1M25 23h1M9 24h2M22 24h2M25 24h1M11 25h3M20 25h2M23 25h2M14 26h6" />
<path stroke="#e8d050" d="M10 7h1M9 8h1M9 9h1M10 10h1M10 11h2M10 12h3M11 13h2M17 13h3M11 14h2M14 14h5M9 15h2M14 15h3M8 16h1M12 16h1M13 17h3M14 18h6M8 19h1M15 19h5M8 20h1M12 20h1M15 20h5M8 21h1M12 21h1M15 21h5M11 22h2M15 22h4M14 23h4M13 24h3" />
<path stroke="#d87038" d="M11 7h3M10 8h5M11 9h3M21 9h1M20 10h3M19 11h5M20 12h3M8 13h1M8 14h1M22 17h1M13 18h1M21 18h2M9 19h1M12 19h3M10 20h2M13 20h2M10 21h2M13 21h2" />
<path stroke="#886838" d="M14 7h1M15 8h3M14 9h5M20 9h1M13 10h6M23 10h1M14 11h4M14 12h4M19 12h1M23 12h1M10 13h1M14 13h1M20 13h3M10 14h1M11 15h1M22 15h1M17 17h3M21 24h1M14 25h1M19 25h1" />
<path stroke="#585038" d="M10 9h1M19 9h1M11 10h2M19 10h1M13 11h1M18 11h1M13 12h1M18 12h1M15 13h2M20 17h1M20 18h1M23 19h1" />
<path stroke="#c0a850" d="M9 10h1M12 11h1M13 13h1M13 14h1M19 14h1M13 15h1M17 15h1M7 18h1M7 19h1M20 19h1M7 20h1M20 20h1M13 22h2M19 22h1M18 23h1M16 24h1" />
<path stroke="#a89840" d="M23 13h1M9 14h1M20 14h3M12 15h1M18 15h4M13 16h8M16 17h1M22 20h2M20 21h1M22 21h2M8 22h1M20 22h1M22 22h1M9 23h1M19 23h3M11 24h1M17 24h4M15 25h4" />
<path stroke="#f0e888" d="M9 16h3M8 17h2M8 18h1M10 19h2" />
<path stroke="#e0a838" d="M10 17h3M9 18h4" />
<path stroke="#f8c838" d="M21 17h1" />
<path stroke="#f0f0f0" d="M9 20h1M9 21h1M9 22h2M10 23h4M12 24h1" />
<path stroke="#386000" d="M21 20h1M21 21h1M21 22h1M22 23h1" />
</svg>