<svg xmlns="http://www.w3.org/2000/svg" viewBox="0 -0.5 32 32" shape-rendering="crispEdges">
<metadata>Made with Pixels to Svg https://codepen.io/shshaw/pen/XbxvNj</metadata>
<path stroke="#202020" d="M18 6h3M15 7h10M14 8h1M25 8h1M14 9h1M26 9h1M14 10h1M26 10h1M13 11h1M26 11h1M13 12h1M25 12h1M13 13h1M25 13h1M12 14h1M25 14h1M12 15h1M24 15h1M12 16h11M24 16h1M10 17h2M21 17h3M8 18h2M21 18h1M6 19h2M21 19h1M5 20h1M21 20h1M5 21h1M21 21h1M23 21h3M5 22h1M19 22h2M22 22h1M25 22h1M5 23h1M17 23h2M24 23h1M5 24h1M15 24h2M21 24h3M6 25h9M20 25h1M23 25h1M22 26h1" />
<path stroke="#414141" d="M21 6h1M24 8h1M24 9h2M24 10h2M23 11h3M23 12h2M23 13h2M22 14h3M22 15h2M23 16h1M19 18h2M17 19h4M15 20h6M14 21h7M11 22h1M15 22h4M9 23h3M15 23h2" />
<path stroke="#7b1010" d="M15 8h1M16 9h8M16 10h1M15 11h1M15 12h1M15 13h1M14 14h1M14 15h1" />
<path stroke="#ac3939" d="M16 8h8M15 9h1M15 10h1M17 10h7M14 11h1M16 11h7M14 12h1M16 12h2M14 13h1M16 13h2M13 14h1M15 14h2M13 15h1M15 15h2" />
<path stroke="#cd5a5a" d="M18 12h5M18 13h5M17 14h5M17 15h5" />
<path stroke="#ffffff" d="M12 17h1M15 17h1M18 17h1M10 18h1M13 18h1M16 18h1M8 19h1M11 19h1M14 19h1M6 20h1M9 20h1M12 20h1" />
<path stroke="#eeee7b" d="M13 17h1M16 17h1M19 17h1M11 18h1M14 18h1M17 18h1M9 19h1M12 19h1M15 19h1M7 20h1M10 20h1M13 20h1M9 22h1M23 22h2M21 25h2" />
<path stroke="#c5ac39" d="M14 17h1M17 17h1M20 17h1M12 18h1M15 18h1M18 18h1M10 19h1M13 19h1M16 19h1M8 20h1M11 20h1M14 20h1M10 22h1M22 23h2M20 26h2" />
<path stroke="#7b7b7b" d="M6 21h8M6 22h3M12 22h3M6 23h3M12 23h3M6 24h9" />
</svg>