<svg xmlns="http://www.w3.org/2000/svg" viewBox="0 -0.5 32 32" shape-rendering="crispEdges">
<metadata>Made with Pixels to Svg https://codepen.io/shshaw/pen/XbxvNj</metadata>
<path stroke="#202020" d="M22 5h2M21 6h1M24 6h1M21 7h1M24 7h1M20 8h1M22 8h2M19 9h1M21 9h1M18 10h1M20 10h1M17 11h1M19 11h1M15 12h2M19 12h1M14 13h1M18 13h1M13 14h1M18 14h1M12 15h1M19 15h1M11 16h1M20 16h1M10 17h1M20 17h1M9 18h1M19 18h1M8 19h1M18 19h1M7 20h1M17 20h1M6 21h1M16 21h1M6 22h1M15 22h1M7 23h1M14 23h1M8 24h1M13 24h1M9 25h1M12 25h1M10 26h2" />
<path stroke="#f6e673" d="M22 6h1M15 15h2M16 16h2" />
<path stroke="#cdbd31" d="M23 6h1M22 7h2M15 16h1M18 16h1M16 17h2" />
<path stroke="#a4f6ff" d="M21 8h1M20 9h1M13 17h1" />
<path stroke="#39cdf6" d="M19 10h1M18 11h1M14 18h1" />
<path stroke="#dedede" d="M17 12h1M16 13h1M17 14h1M18 15h1M13 16h2M19 16h1M12 17h1M15 17h1M11 18h2M15 18h2M11 19h2M15 19h2M10 20h1M12 20h4M9 21h2M13 21h2M8 22h3M12 22h2M9 23h1M11 23h2M10 24h2" />
<path stroke="#3194ac" d="M18 12h1M17 13h1" />
<path stroke="#f6f6f6" d="M15 13h1M14 14h1M13 15h1M12 16h1M11 17h1M18 17h1M10 18h1M17 18h1M9 19h1M13 19h2M8 20h1M7 21h1M11 21h1" />
<path stroke="#9c7b52" d="M15 14h2M14 15h1M17 15h1" />
<path stroke="#31b4d5" d="M14 17h1M13 18h1" />
<path stroke="#73736a" d="M19 17h1M18 18h1M17 19h1M16 20h1M15 21h1M14 22h1M13 23h1M12 24h1M11 25h1" />
<path stroke="#a4a4ac" d="M10 19h1M9 20h1M11 20h1M8 21h1M12 21h1M7 22h1M11 22h1M8 23h1M10 23h1M9 24h1M10 25h1" />
</svg>