<svg xmlns="http://www.w3.org/2000/svg" viewBox="0 -0.5 32 32" shape-rendering="crispEdges">
<metadata>Made with Pixels to Svg https://codepen.io/shshaw/pen/XbxvNj</metadata>
<path stroke="#202020" d="M13 8h6M11 9h2M19 9h2M10 10h1M21 10h1M9 11h1M22 11h1M9 12h1M22 12h1M8 13h1M23 13h1M8 14h1M23 14h1M8 15h1M23 15h1M8 16h1M23 16h1M8 17h1M23 17h1M8 18h3M21 18h3M9 19h3M20 19h3M9 20h1M12 20h1M19 20h1M22 20h1M10 21h3M19 21h3M11 22h2M19 22h2M13 23h6" />
<path stroke="#737373" d="M13 9h1M11 10h3M18 10h1M10 11h1M13 11h1M18 11h2M14 12h1M17 12h3M9 13h1M14 13h6M9 14h2M13 14h6M10 15h9M12 16h5" />
<path stroke="#414141" d="M14 9h1M17 9h1M14 10h1M17 10h1M15 12h2M10 20h2M20 20h2M13 22h1M18 22h1" />
<path stroke="#525252" d="M15 9h2M15 10h2M20 10h1M14 11h4M21 11h1M21 12h1M21 13h2M20 14h3M20 15h3M9 16h1M19 16h4M9 17h3M17 17h6M11 18h10M12 19h8M14 20h4M13 21h1M18 21h1M14 22h4" />
<path stroke="#626262" d="M18 9h1M19 10h1M20 11h1M20 12h1M20 13h1M19 14h1M9 15h1M19 15h1M10 16h2M17 16h2M12 17h5M13 20h1M18 20h1M14 21h4" />
<path stroke="#8b8b8b" d="M11 11h2M10 12h4M10 13h4M11 14h2" />
</svg>