<svg xmlns="http://www.w3.org/2000/svg" viewBox="0 -0.5 32 32" shape-rendering="crispEdges">
<metadata>Made with Pixels to Svg https://codepen.io/shshaw/pen/XbxvNj</metadata>
<path stroke="#4a4a4a" d="M18 6h2M17 7h1M19 7h1M18 8h1M19 10h2M21 11h1M24 11h2M21 12h1M23 12h1M25 12h1M22 13h1M24 13h1M23 14h1" />
<path stroke="#efef31" d="M18 7h1M24 12h1M20 19h1" />
<path stroke="#313131" d="M13 8h4M11 9h2M17 9h1M10 10h1M18 10h1M9 11h1M19 11h1M8 12h1M20 12h1M7 13h1M21 13h1M6 14h1M22 14h1M6 15h1M23 15h1M6 16h1M23 16h1M6 17h1M23 17h1M6 18h1M23 18h1M7 19h1M23 19h1M8 20h1M23 20h1M9 21h1M22 21h1M10 22h1M21 22h1M11 23h1M20 23h1M12 24h1M19 24h1M13 25h6" />
<path stroke="#ffffff" d="M17 8h1M14 10h2M13 11h1M16 11h1M12 12h1M17 12h1M11 13h1M18 13h1M23 13h1M10 14h1M19 14h1M9 15h1M20 15h1M9 16h1M20 16h1M10 17h1M19 17h1M11 18h1M18 18h1M12 19h1M17 19h1M13 20h1M16 20h1M14 21h2" />
<path stroke="#63d694" d="M13 9h3M11 10h2M16 10h2M10 11h2M17 11h2M9 12h2M18 12h2M8 13h2M19 13h2M7 14h2M20 14h2M7 15h2M21 15h1M7 16h2M21 16h2M8 17h2M21 17h2M9 18h2M21 18h2M10 19h2M21 19h1M11 20h2M18 20h3M12 21h2M17 21h3M13 22h6M14 23h4" />
<path stroke="#397b52" d="M16 9h1M22 15h1M7 17h1M7 18h2M8 19h2M22 19h1M9 20h2M21 20h2M10 21h2M20 21h2M11 22h2M19 22h2M12 23h2M18 23h2M13 24h6" />
<path stroke="#9cefbd" d="M13 10h1M12 11h1M11 12h1M10 13h1M9 14h1M20 17h1M19 18h1M18 19h1M17 20h1M16 21h1" />
<path stroke="#294a42" d="M14 11h2M13 12h1M16 12h1M12 13h1M17 13h1M11 14h1M18 14h1M10 15h1M19 15h1" />
<path stroke="#4aad73" d="M20 11h1M20 18h1M19 19h1" />
<path stroke="#4a6b5a" d="M14 12h2M13 13h4M12 14h6M11 15h8M10 16h10M11 17h8M12 18h6M13 19h4M14 20h2" />
</svg>