<svg xmlns="http://www.w3.org/2000/svg" viewBox="0 -0.5 32 32" shape-rendering="crispEdges">
<metadata>Made with Pixels to Svg https://codepen.io/shshaw/pen/XbxvNj</metadata>
<path stroke="#202020" d="M8 5h3M7 6h1M9 6h1M11 6h1M7 7h1M10 7h1M12 7h1M6 8h1M11 8h1M13 8h1M6 9h1M12 9h1M14 9h1M5 10h1M13 10h1M15 10h1M5 11h1M14 11h1M16 11h2M5 12h1M15 12h1M18 12h1M5 13h1M16 13h1M19 13h1M5 14h1M17 14h1M20 14h1M22 14h4M5 15h1M18 15h1M21 15h1M26 15h1M5 16h1M11 16h2M19 16h1M26 16h1M5 17h1M10 17h1M13 17h1M19 17h1M26 17h1M5 18h1M9 18h1M14 18h1M20 18h1M26 18h1M5 19h1M9 19h1M14 19h1M21 19h2M6 20h1M10 20h1M13 20h1M22 20h2M25 20h1M6 21h1M11 21h2M14 21h1M23 21h1M26 21h1M7 22h1M15 22h1M24 22h1M27 22h1M7 23h1M15 23h1M25 23h1M28 23h1M8 24h1M15 24h1M26 24h1M28 24h1M9 25h1M14 25h1M27 25h2M10 26h4" />
<path stroke="#525252" d="M10 6h1" />
<path stroke="#29b431" d="M11 7h1M12 8h1M24 15h1M20 16h1M22 16h1M22 17h1M24 20h1" />
<path stroke="#414141" d="M13 9h1M14 10h1M19 15h2" />
<path stroke="#d5d5d5" d="M15 11h1M17 12h1M18 13h1M19 14h1M23 17h1" />
<path stroke="#838b94" d="M16 12h1M17 13h1M18 14h1" />
<path stroke="#394141" d="M22 15h1M21 16h1M23 16h1M21 17h1M24 17h1M21 18h1M25 18h1M23 19h3M27 24h1" />
<path stroke="#417331" d="M23 15h1M24 16h2M20 17h1M25 17h1M24 21h1" />
<path stroke="#5a6a73" d="M25 15h1" />
<path stroke="#ffffff" d="M11 17h1" />
<path stroke="#cd5a39" d="M12 17h1M10 18h4M12 19h1" />
<path stroke="#398b31" d="M22 18h2" />
<path stroke="#316229" d="M24 18h1" />
<path stroke="#c5dee6" d="M10 19h1M11 20h1" />
<path stroke="#738b29" d="M11 19h1" />
<path stroke="#9cb4bd" d="M13 19h1M12 20h1" />
<path stroke="#5a5252" d="M25 21h1M25 22h2M26 23h2" />
</svg>