<svg xmlns="http://www.w3.org/2000/svg" viewBox="0 -0.5 32 32" shape-rendering="crispEdges">
<metadata>Made with Pixels to Svg https://codepen.io/shshaw/pen/XbxvNj</metadata>
<path stroke="#202020" d="M14 9h4M12 10h2M18 10h2M11 11h1M20 11h1M10 12h1M21 12h1M10 13h1M21 13h1M9 14h1M22 14h1M9 15h1M22 15h1M9 16h1M22 16h1M9 17h1M22 17h1M10 18h1M21 18h1M10 19h1M21 19h1M11 20h1M20 20h1M12 21h2M18 21h2M14 22h4" />
<path stroke="#9cdeac" d="M14 10h3M12 11h3M18 11h1M11 12h2M15 12h1M11 13h2M15 13h1M10 14h1M13 14h2M10 15h1M10 16h1M11 18h1" />
<path stroke="#6abd83" d="M17 10h1M17 11h1M19 11h1M20 12h1M11 14h1M21 16h1M10 17h2M21 17h1M20 18h1M11 19h1M19 19h2M12 20h1M18 20h2M16 21h2" />
<path stroke="#399c5a" d="M15 11h2M18 12h2M19 13h2M20 14h2M11 15h1M20 15h2M11 16h1M20 16h1M20 17h1M12 18h1M19 18h1M12 19h2M18 19h1M13 20h5M14 21h2" />
<path stroke="#ffffff" d="M13 12h2M13 13h2M15 15h1" />
<path stroke="#187341" d="M16 12h2M18 13h1M12 14h1M19 14h1M12 15h1M19 15h1M12 16h1M19 16h1M12 17h1M19 17h1M13 18h1M18 18h1M14 19h4" />
<path stroke="#005231" d="M16 13h2M15 14h4M13 15h2M16 15h3M13 16h6M13 17h6M14 18h4" />
</svg>