<svg xmlns="http://www.w3.org/2000/svg" viewBox="0 -0.5 32 32" shape-rendering="crispEdges">
<metadata>Made with Pixels to Svg https://codepen.io/shshaw/pen/XbxvNj</metadata>
<path stroke="#303030" d="M16 7h6M14 8h2M22 8h2M13 9h1M24 9h1M12 10h1M25 10h1M11 11h1M25 11h1M10 12h1M25 12h1M10 13h1M25 13h1M10 14h1M12 14h1M25 14h1M11 15h1M25 15h1M10 16h1M24 16h1M9 17h1M23 17h1M8 18h1M18 18h1M22 18h1M7 19h1M17 19h1M19 19h3M16 20h1M6 21h1M15 21h1M6 22h1M14 22h1M6 23h1M13 23h1M6 24h1M12 24h1M7 25h4" />
<path stroke="#686868" d="M16 8h6M14 9h3M21 9h3M13 10h3M19 10h1M23 10h2M12 11h3M20 11h1M23 11h2M12 12h3M23 12h2M14 13h2M17 13h1M20 13h5M16 14h2M20 14h4M18 15h5M20 16h2M15 17h1M14 18h1M17 18h1M13 19h1M16 19h1M12 20h1M15 20h1M11 21h1M14 21h1M10 22h1M13 22h1M9 23h1M12 23h1M7 24h1M9 24h3" />
<path stroke="#a05858" d="M17 9h1M20 9h1M16 10h1M20 10h1M22 10h1M15 11h1M19 11h1M17 12h1M22 12h1M16 13h1M18 14h1" />
<path stroke="#d05858" d="M18 9h2M17 10h2M21 10h1M16 11h3M21 11h2M15 12h2M18 12h4M18 13h2M19 14h1" />
<path stroke="#989898" d="M11 12h1M11 13h3M11 14h1M14 14h2M16 15h2M18 16h2M19 17h2M19 18h2" />
<path stroke="#484048" d="M13 14h1M24 14h1M14 15h2M23 15h2M16 16h2M22 16h2M18 17h1M21 17h2M21 18h1" />
<path stroke="#f8f8f8" d="M12 15h2M11 16h2M15 16h1M10 17h2M14 17h1M17 17h1M9 18h2M13 18h1M16 18h1M8 19h2M12 19h1M15 19h1M7 20h2M11 20h1M14 20h1M7 21h1M10 21h1M13 21h1M9 22h1M12 22h1M8 23h1M11 23h1M8 24h1" />
<path stroke="#a0a0a0" d="M13 16h2M12 17h2M16 17h1M11 18h2M15 18h1M10 19h2M14 19h1M9 20h2M13 20h1M8 21h2M12 21h1M7 22h2M11 22h1M7 23h1M10 23h1" />
</svg>