<svg xmlns="http://www.w3.org/2000/svg" viewBox="0 -0.5 32 32" shape-rendering="crispEdges">
<metadata>Made with Pixels to Svg https://codepen.io/shshaw/pen/XbxvNj</metadata>
<path stroke="#202020" d="M13 7h2M11 8h2M15 8h2M19 8h3M9 9h2M22 9h2M8 10h1M24 10h1M8 11h1M24 11h1M8 12h1M23 12h1M25 12h1M8 13h1M23 13h1M25 13h1M8 14h1M23 14h1M25 14h1M7 15h1M23 15h2M7 16h1M23 16h2M6 17h1M23 17h1M6 18h1M15 18h1M23 18h1M6 19h1M15 19h1M23 19h1M7 20h1M15 20h1M23 20h1M7 21h1M15 21h1M23 21h1M8 22h2M13 22h2M21 22h2M10 23h3M15 23h2M19 23h2M17 24h2" />
<path stroke="#ffffff" d="M13 8h2M11 9h6M9 10h8M11 11h4M17 11h4M15 12h8M15 13h6M17 14h2M8 15h2M8 16h2" />
<path stroke="#4a4a4a" d="M17 9h2M9 13h2M11 14h1M13 15h1M14 16h1" />
<path stroke="#31bd83" d="M19 9h3M21 10h3M10 14h1M11 15h2M11 16h3M7 17h1M10 17h4M7 18h7M8 19h4" />
<path stroke="#a4a4a4" d="M17 10h1M9 11h1M15 11h1M9 12h3M13 12h1M11 13h1M13 13h1M21 13h1M13 14h3M19 14h1M14 15h4M15 16h3M15 17h3M16 18h2M16 19h2M16 20h2M16 21h2M15 22h3M17 23h1" />
<path stroke="#626262" d="M18 10h3M16 11h1M21 11h2M14 12h1M12 13h1M22 13h1M12 14h1M20 14h3M18 15h5M18 16h3M22 16h1M14 17h1M18 17h1M20 17h1M22 17h1M18 18h1M20 18h1M22 18h1M18 19h1M20 19h1M22 19h1M18 20h1M20 20h3M18 21h5M18 22h3M18 23h1" />
<path stroke="#d5d5d5" d="M10 11h1M12 12h1M14 13h1M16 14h1" />
<path stroke="#319c73" d="M23 11h1M14 18h1M7 19h1M12 19h3M8 20h5" />
<path stroke="#31736a" d="M24 12h1M24 13h1M24 14h1M13 20h2M8 21h7M10 22h3" />
<path stroke="#7beebd" d="M9 14h1M10 15h1M10 16h1M8 17h2" />
<path stroke="#7b3929" d="M21 16h1M19 17h1M21 19h1M19 20h1" />
<path stroke="#ffb49c" d="M21 17h1M19 18h1" />
<path stroke="#ff6a29" d="M21 18h1M19 19h1" />
</svg>