<svg xmlns="http://www.w3.org/2000/svg" viewBox="0 -0.5 32 32" shape-rendering="crispEdges">
<metadata>Made with Pixels to Svg https://codepen.io/shshaw/pen/XbxvNj</metadata>
<path stroke="#303030" d="M9 6h2M19 6h3M7 7h2M11 7h4M17 7h6M8 8h1M11 8h1M18 8h4M5 9h1M9 9h1M12 9h2M16 9h1M18 9h1M20 9h1M5 10h1M8 10h3M14 10h1M16 10h2M6 11h1M14 11h1M17 11h1M7 12h3M15 12h2M19 12h1M10 13h1M17 13h1M19 13h1M22 13h2M8 14h3M21 14h4M7 15h2M12 15h1M16 15h1M20 15h2M24 15h2M7 16h1M12 16h2M15 16h1M25 16h1M6 17h1M9 17h1M13 17h1M16 17h1M19 17h1M25 17h1M6 18h1M13 18h1M20 18h1M25 18h1M6 19h1M11 19h1M13 19h1M19 19h1M23 19h1M25 19h1M6 20h1M9 20h1M11 20h1M13 20h1M15 20h1M22 20h1M25 20h1M6 21h1M8 21h3M13 21h1M15 21h1M17 21h1M20 21h2M23 21h1M25 21h1M6 22h1M13 22h1M16 22h1M19 22h1M22 22h1M25 22h1M6 23h2M12 23h2M15 23h1M17 23h1M20 23h1M24 23h2M7 24h1M12 24h1M16 24h2M21 24h4M7 25h5M22 25h2M9 26h1" />
<path stroke="#606060" d="M17 6h2M22 6h1M6 7h1M15 7h1M5 8h1M7 8h1M16 8h2M22 8h1M7 9h2M10 9h2M14 9h1M19 9h1M18 10h1M20 10h1M7 11h1M19 11h1M17 12h1M21 12h4M8 13h1M18 13h1M20 13h1M24 13h2M7 14h1M25 14h1M6 15h1M9 15h2M13 15h1M22 15h2M26 15h1M6 16h1M8 16h1M22 16h1M24 16h1M26 16h1M5 17h1M7 17h1M11 17h2M14 17h1M20 17h1M23 17h1M26 17h1M5 18h1M7 18h1M11 18h2M14 18h1M19 18h1M21 18h1M23 18h1M26 18h1M5 19h1M7 19h1M12 19h1M14 19h1M24 19h1M26 19h1M5 20h1M7 20h1M10 20h1M12 20h1M14 20h1M23 20h1M26 20h1M5 21h1M11 21h2M14 21h1M26 21h1M5 22h1M7 22h1M10 22h1M12 22h1M14 22h1M20 22h1M24 22h1M26 22h1M5 23h1M9 23h2M14 23h1M21 23h3M6 24h1M8 24h1M11 24h1M13 24h1M18 24h3M25 24h1M6 25h1M12 25h1M20 25h2M24 25h1M7 26h2M10 26h2" />
<path stroke="#f0f8f0" d="M9 7h1M6 8h1M13 8h1M15 9h1M15 10h1M10 18h1" />
<path stroke="#a8b8a8" d="M10 7h1M9 8h2M6 9h1M6 10h2M19 10h1M8 11h1M18 11h1M18 12h1M21 13h1M11 14h1M20 14h1M11 15h1M9 16h1M11 16h1M10 17h1M8 18h1M8 19h1M10 19h1M8 20h1M17 22h1M16 23h1M18 23h2" />
<path stroke="#98a098" d="M12 8h1M14 8h2M15 11h2" />
<path stroke="#384870" d="M11 10h2M9 11h1M12 11h2M12 12h1M14 12h1M13 13h1M16 13h1M12 14h1M14 14h1M19 14h1M14 15h2M19 15h1M17 16h1M19 16h1M21 16h1M15 17h1M22 17h1M16 18h1M18 18h1M18 19h1M20 19h1M22 19h1M18 20h1M21 20h1M18 21h2M15 22h1M18 22h1" />
<path stroke="#a0b0f8" d="M10 11h1M10 12h1M9 13h1M15 14h1M17 15h1M17 17h1M17 18h1M16 21h1" />
<path stroke="#6878b8" d="M11 11h1M11 12h1M13 12h1M11 13h2M14 13h2M13 14h1M16 14h3M18 15h1M14 16h1M18 16h1M20 16h1M8 17h1M18 17h1M21 17h1M9 18h1M15 18h1M22 18h1M9 19h1M15 19h3M21 19h1M16 20h2M19 20h2" />
<path stroke="#a8a848" d="M10 16h1M23 16h1M24 17h1M24 18h1M24 20h1M24 21h1M11 22h1M23 22h1M11 23h1M9 24h2" />
</svg>