<svg xmlns="http://www.w3.org/2000/svg" viewBox="0 -0.5 32 32" shape-rendering="crispEdges">
<metadata>Made with Pixels to Svg https://codepen.io/shshaw/pen/XbxvNj</metadata>
<path stroke="#202020" d="M10 9h3M19 9h3M8 10h2M13 10h1M18 10h1M22 10h2M7 11h1M13 11h1M18 11h1M24 11h1M7 12h1M13 12h1M18 12h1M24 12h1M7 13h1M13 13h1M18 13h1M24 13h1M7 14h1M14 14h4M24 14h1M7 15h1M24 15h1M7 16h1M24 16h1M7 17h1M24 17h1M7 18h1M24 18h1M7 19h1M24 19h1M8 20h1M23 20h1M9 21h3M20 21h3M12 22h8" />
<path stroke="#94a4b4" d="M10 10h2M20 10h2M8 14h1M23 14h1M9 15h1M22 15h1M8 16h1M10 16h1M14 16h1M17 16h1M21 16h1M23 16h1M9 17h1M13 17h1M18 17h1M22 17h1M8 18h1M10 18h1M21 18h1M23 18h1M9 19h1M22 19h1M10 20h1M13 20h1M18 20h1M21 20h1M12 21h1M14 21h1M17 21h1M19 21h1" />
<path stroke="#5a7383" d="M12 10h1M19 10h1M9 11h1M22 11h1M10 13h1M21 13h1M12 14h1M19 14h1M8 15h1M23 15h1M9 16h1M22 16h1M8 17h1M23 17h1M9 18h1M22 18h1M8 19h1M23 19h1M9 20h1M12 20h1M19 20h1M22 20h1" />
<path stroke="#cddede" d="M8 11h1M23 11h1M8 13h1M23 13h1M9 14h2M21 14h2M10 15h3M19 15h3M11 16h3M18 16h3M10 17h3M19 17h3M11 18h2M19 18h2M10 19h3M19 19h3M11 20h1M20 20h1M13 21h1M18 21h1" />
<path stroke="#415262" d="M10 11h3M19 11h3M9 12h4M19 12h4M11 13h2M19 13h2M13 14h1M18 14h1" />
<path stroke="#f6f6f6" d="M8 12h1M23 12h1M9 13h1M22 13h1M11 14h1M20 14h1M13 15h6M15 18h1" />
<path stroke="#b44a9c" d="M15 16h2M14 17h1" />
<path stroke="#d573de" d="M15 17h2M16 18h1" />
<path stroke="#207318" d="M17 17h1M13 18h1M18 18h1M13 19h1" />
<path stroke="#5ac5e6" d="M14 18h1M17 18h1M15 19h2" />
<path stroke="#62cd52" d="M14 19h1M17 19h1" />
<path stroke="#4a5ac5" d="M18 19h1M14 20h1M17 20h1M15 21h2" />
<path stroke="#bdcd52" d="M15 20h2" />
</svg>