<svg xmlns="http://www.w3.org/2000/svg" viewBox="0 -0.5 32 32" shape-rendering="crispEdges">
<metadata>Made with Pixels to Svg https://codepen.io/shshaw/pen/XbxvNj</metadata>
<path stroke="#202020" d="M11 6h6M8 7h3M17 7h3M7 8h1M20 8h1M6 9h1M21 9h1M6 10h1M21 10h5M5 11h1M21 11h1M26 11h1M5 12h1M20 12h1M27 12h1M5 13h1M19 13h1M28 13h1M5 14h1M19 14h1M28 14h1M5 15h1M19 15h1M28 15h1M5 16h1M19 16h1M28 16h1M5 17h1M18 17h1M27 17h1M6 18h1M17 18h1M27 18h1M6 19h1M16 19h1M23 19h4M7 20h2M15 20h1M22 20h1M9 21h3M14 21h1M21 21h1M12 22h2M20 22h1M12 23h1M19 23h1M12 24h1M18 24h1M12 25h1M17 25h1M12 26h1M16 26h1M13 27h3" />
<path stroke="#529cde" d="M11 7h1M16 7h1M10 8h1M17 8h1M10 9h2M16 9h1M11 10h3M18 11h3M16 12h2M19 12h1M10 13h1M15 13h3M6 14h1M9 14h1M14 14h5M7 15h1M14 15h5M7 16h3M14 16h2M7 17h1M10 17h4M16 17h2M8 18h1M12 18h1M14 18h3M9 19h4M14 19h2M14 20h1M13 21h1" />
<path stroke="#73c5de" d="M12 7h4M9 8h1M11 8h2M15 8h2M18 8h1M8 9h2M12 9h4M18 9h2M10 10h1M17 10h1M6 11h3M12 11h1M15 11h1M6 12h6M6 13h3M11 13h2M7 14h2M11 14h3M6 15h1M8 15h6M6 16h1M10 16h4M6 17h1M8 17h2M7 18h1M9 18h3M13 18h1M7 19h2M13 19h1M19 19h2M9 20h5M19 20h2M12 21h1" />
<path stroke="#ee5a52" d="M8 8h1M19 8h1M13 11h2M23 11h3M22 12h4M22 13h6M23 14h1M26 14h2M26 15h2M26 16h1M21 20h1M20 21h1M19 22h1M18 23h1M17 24h1" />
<path stroke="#ee8b31" d="M13 8h2" />
<path stroke="#cdeef6" d="M7 9h1M8 10h2M10 11h2M13 12h2" />
<path stroke="#396a94" d="M17 9h1M14 10h3M18 12h1M18 13h1M10 14h1M16 16h3M14 17h2" />
<path stroke="#83d5f6" d="M20 9h1M7 10h1M18 10h3M9 11h1M16 11h2M12 12h1M15 12h1M9 13h1M13 13h2" />
<path stroke="#bd4141" d="M22 11h1M21 12h1M25 16h1M27 16h1M26 17h1" />
<path stroke="#ffffff" d="M26 12h1M21 14h2M24 14h2M21 15h1M23 15h1M21 16h1M23 16h2M20 17h3M25 17h1M19 18h1M21 18h1M23 18h3M18 19h1M17 20h1M16 21h1M15 22h1M14 23h1M13 24h2M13 25h2" />
<path stroke="#d5d5d5" d="M20 13h2M20 14h1M20 15h1M22 15h1M25 15h1M20 16h1M22 16h1M19 17h1M23 17h2M18 18h1M22 18h1M17 19h1M16 20h1M15 21h1M14 22h1M13 23h1M15 24h1M15 25h1M13 26h2" />
<path stroke="#b4acac" d="M24 15h1M26 18h1M22 19h1M16 25h1M15 26h1" />
<path stroke="#f6b4bd" d="M20 18h1M21 19h1" />
<path stroke="#b4d583" d="M18 20h1M17 21h3M17 22h2" />
<path stroke="#eec56a" d="M16 22h1M15 23h3M16 24h1" />
</svg>