<svg xmlns="http://www.w3.org/2000/svg" viewBox="0 -0.5 32 32" shape-rendering="crispEdges">
<metadata>Made with Pixels to Svg https://codepen.io/shshaw/pen/XbxvNj</metadata>
<path stroke="#202020" d="M13 6h4M10 7h4M17 7h1M9 8h1M18 8h1M8 9h1M13 9h1M18 9h1M7 10h1M13 10h1M18 10h1M7 11h1M12 11h1M14 11h1M18 11h1M7 12h1M11 12h1M15 12h2M18 12h1M24 12h3M8 13h1M10 13h1M16 13h1M19 13h1M23 13h1M26 13h1M7 14h1M10 14h1M15 14h1M19 14h1M22 14h1M26 14h1M7 15h1M11 15h1M15 15h1M19 15h1M22 15h1M26 15h1M7 16h1M12 16h1M15 16h1M19 16h1M22 16h1M26 16h1M7 17h1M12 17h1M15 17h1M18 17h1M22 17h1M26 17h1M7 18h1M12 18h1M14 18h1M16 18h2M22 18h1M24 18h2M8 19h1M12 19h1M14 19h1M18 19h1M21 19h1M24 19h1M7 20h3M12 20h1M14 20h1M19 20h2M24 20h1M6 21h1M11 21h1M14 21h1M19 21h1M24 21h1M5 22h1M11 22h1M15 22h1M19 22h1M23 22h1M5 23h1M11 23h1M16 23h3M22 23h1M5 24h1M10 24h1M19 24h3M5 25h1M9 25h1M5 26h4" />
<path stroke="#ffa4a4" d="M14 7h1M9 9h1M8 15h1M6 22h1" />
<path stroke="#ff7373" d="M15 7h1M10 8h1M14 8h1M8 10h1M24 13h1M8 14h1M16 14h1M23 14h1M9 15h1M16 15h1M23 15h1M8 16h1M16 16h1M23 16h1M15 19h1M22 19h1M15 20h1M21 20h1M7 21h1M20 21h1M6 23h1" />
<path stroke="#ff1010" d="M16 7h1M11 8h3M16 8h2M12 9h1M14 9h1M17 9h1M11 10h2M14 10h2M17 10h1M8 11h1M10 11h2M15 11h3M8 12h3M17 12h1M9 13h1M17 13h2M25 13h1M9 14h1M18 14h1M25 14h1M10 15h1M18 15h1M25 15h1M10 16h2M18 16h1M25 16h1M8 17h1M11 17h1M16 17h2M23 17h3M8 18h2M11 18h1M15 18h1M23 18h1M9 19h3M16 19h2M23 19h1M10 20h2M17 20h2M23 20h1M8 21h3M15 21h2M18 21h1M23 21h1M7 22h1M10 22h1M16 22h3M20 22h1M22 22h1M9 23h2M19 23h3M6 24h1M8 24h2M6 25h3" />
<path stroke="#6a3131" d="M15 8h1M10 9h2M15 9h2M9 10h2M16 10h1M9 11h1M17 14h1M24 14h1M17 15h1M24 15h1M9 16h1M17 16h1M24 16h1M9 17h2M10 18h1M16 20h1M22 20h1M17 21h1M21 21h2M8 22h2M21 22h1M7 23h2M7 24h1" />
</svg>