<svg xmlns="http://www.w3.org/2000/svg" viewBox="0 -0.5 32 32" shape-rendering="crispEdges">
<metadata>Made with Pixels to Svg https://codepen.io/shshaw/pen/XbxvNj</metadata>
<path stroke="#202020" d="M6 5h3M16 5h4M6 6h1M9 6h1M15 6h1M19 6h1M7 7h1M9 7h1M15 7h1M17 7h2M7 8h1M9 8h1M11 8h1M14 8h1M16 8h1M8 9h1M12 9h1M14 9h1M16 9h1M8 10h1M15 10h1M18 10h4M9 11h1M15 11h1M17 11h1M22 11h1M9 12h1M17 12h1M22 12h1M15 13h1M18 13h1M21 13h1M9 14h1M20 14h1M9 15h1M20 15h1M6 16h2M9 16h1M20 16h1M22 16h3M5 17h1M14 17h1M21 17h1M25 17h3M4 18h1M15 18h1M28 18h1M4 19h1M29 19h1M3 20h1M30 20h1M3 21h1M30 21h1M3 22h1M30 22h1M4 23h1M29 23h1M4 24h1M18 24h2M28 24h1M5 25h1M17 25h1M20 25h1M25 25h3M6 26h3M15 26h2M21 26h4M9 27h6" />
<path stroke="#eeeaee" d="M7 6h1M9 17h1M22 17h3M9 26h1" />
<path stroke="#ffeef6" d="M8 6h1" />
<path stroke="#f6504a" d="M16 6h1M16 7h1" />
<path stroke="#af4c47" d="M17 6h1" />
<path stroke="#ffffff" d="M18 6h1M18 11h4M11 14h1M15 14h1M10 15h1M13 15h1M16 15h1M18 15h2M20 17h1M21 20h1M7 21h1M20 21h2M7 23h1M10 26h1" />
<path stroke="#7b5f62" d="M8 7h1M9 10h1" />
<path stroke="#bd3041" d="M8 8h1M9 9h1M14 10h1M14 11h1M20 20h1" />
<path stroke="#ff0410" d="M15 8h1M15 9h1M16 16h2M17 17h1M10 25h1" />
<path stroke="#4a0c10" d="M10 9h1" />
<path stroke="#865357" d="M11 9h1" />
<path stroke="#ff0408" d="M10 10h1M11 11h1" />
<path stroke="#b4344c" d="M11 10h1" />
<path stroke="#a42839" d="M12 10h1" />
<path stroke="#525073" d="M13 10h1" />
<path stroke="#2095d5" d="M10 11h1" />
<path stroke="#0079ac" d="M12 11h1" />
<path stroke="#f60000" d="M13 11h1" />
<path stroke="#732020" d="M10 12h1M10 13h2" />
<path stroke="#bdcacd" d="M11 12h1" />
<path stroke="#ba1c29" d="M12 12h1M9 20h1" />
<path stroke="#ff1020" d="M13 12h1M9 21h1" />
<path stroke="#292829" d="M14 12h1M14 13h1M16 14h2M14 16h2M11 26h2" />
<path stroke="#dedede" d="M18 12h2" />
<path stroke="#ded2d5" d="M20 12h2" />
<path stroke="#313439" d="M12 13h2M8 20h1M8 21h1" />
<path stroke="#a1a3a1" d="M19 13h1" />
<path stroke="#805057" d="M20 13h1" />
<path stroke="#9c999c" d="M10 14h1" />
<path stroke="#989998" d="M12 14h1" />
<path stroke="#313431" d="M13 14h1M12 15h1M6 20h1M6 21h1M6 22h1M6 23h1" />
<path stroke="#989798" d="M14 14h1M15 15h1" />
<path stroke="#393839" d="M18 14h1M21 18h1" />
<path stroke="#bdbcbd" d="M19 14h1" />
<path stroke="#393439" d="M11 15h1" />
<path stroke="#313031" d="M14 15h1M10 16h3M12 17h2M10 18h2M9 19h1M11 19h1M21 19h1M10 20h2M23 20h1M10 21h1M23 21h1M10 22h1M18 22h4M10 23h1M18 23h1M20 23h1M9 24h3M11 25h1" />
<path stroke="#b7b7b7" d="M17 15h1" />
<path stroke="#cdcacd" d="M13 16h1M22 20h1M22 21h1" />
<path stroke="#ff0810" d="M18 16h1M19 17h1" />
<path stroke="#a82a31" d="M19 16h1" />
<path stroke="#deff00" d="M6 17h1M13 18h1M12 19h1M14 19h2M16 20h1M17 21h1M4 22h2" />
<path stroke="#a1b70a" d="M7 17h1" />
<path stroke="#292429" d="M8 17h1M16 17h1" />
<path stroke="#d5d6d5" d="M10 17h2M8 18h2M8 19h1M21 23h1M21 24h1M24 25h1" />
<path stroke="#524c52" d="M18 17h1" />
<path stroke="#d5ff00" d="M5 18h1M26 18h1M5 19h1M27 19h1M12 20h1M14 20h2M24 20h1M26 20h2M29 20h1M11 21h1M13 21h2M24 21h1M26 21h1M11 22h1M13 22h2M17 22h1M26 22h2M11 23h1M13 23h2" />
<path stroke="#b4d210" d="M6 18h1" />
<path stroke="#393c18" d="M7 18h1M6 19h1M6 24h1M7 25h1" />
<path stroke="#393831" d="M12 18h1M17 20h1" />
<path stroke="#a1b80a" d="M14 18h1M5 23h1" />
<path stroke="#4a2439" d="M16 18h1M17 19h1M8 22h1M23 22h1M8 23h1M23 23h1" />
<path stroke="#755a29" d="M17 18h1M9 22h1M22 22h1" />
<path stroke="#ff0c18" d="M18 18h2" />
<path stroke="#cdd2cd" d="M20 18h1M20 19h1" />
<path stroke="#e6f2a4" d="M22 18h1" />
<path stroke="#394018" d="M23 18h1M22 19h1" />
<path stroke="#915920" d="M24 18h1" />
<path stroke="#5a1431" d="M25 18h1M24 19h1" />
<path stroke="#b4d400" d="M27 18h1M26 19h1M13 20h1M28 20h1M12 21h1M27 21h3" />
<path stroke="#ffffc5" d="M7 19h1M7 24h1" />
<path stroke="#b4d600" d="M10 19h1M12 24h1M16 24h1M26 24h1M12 25h1M13 26h1" />
<path stroke="#a7bc10" d="M13 19h1M16 21h1" />
<path stroke="#cdc608" d="M16 19h1M9 23h1M22 23h1" />
<path stroke="#313839" d="M18 19h1" />
<path stroke="#ba1a23" d="M19 19h1" />
<path stroke="#8f995e" d="M23 19h1" />
<path stroke="#ffe200" d="M25 19h1" />
<path stroke="#b7b878" d="M28 19h1" />
<path stroke="#d5fe02" d="M4 20h2M4 21h2" />
<path stroke="#babbba" d="M7 20h1M7 22h1" />
<path stroke="#c59d94" d="M18 20h1" />
<path stroke="#412429" d="M19 20h1M18 21h1" />
<path stroke="#afcf00" d="M25 20h1M15 22h1M27 23h1" />
<path stroke="#839f00" d="M15 21h1M12 22h1M12 23h1" />
<path stroke="#83615e" d="M19 21h1" />
<path stroke="#89a000" d="M25 21h1M15 23h1M26 23h1" />
<path stroke="#8ba100" d="M16 22h1" />
<path stroke="#acd200" d="M24 22h1M25 23h1" />
<path stroke="#91ab1e" d="M25 22h1" />
<path stroke="#bde200" d="M28 22h2M28 23h1" />
<path stroke="#b0d000" d="M16 23h2" />
<path stroke="#a9b7a9" d="M19 23h1" />
<path stroke="#5a5d5a" d="M24 23h1" />
<path stroke="#94976a" d="M5 24h1" />
<path stroke="#e6e2e6" d="M8 24h1M8 25h2" />
<path stroke="#86a000" d="M13 24h1M13 25h1" />
<path stroke="#b4d502" d="M14 24h2M14 25h2" />
<path stroke="#292c29" d="M17 24h1M24 24h1" />
<path stroke="#343034" d="M20 24h1" />
<path stroke="#5a2418" d="M22 24h1" />
<path stroke="#a47b73" d="M23 24h1" />
<path stroke="#626562" d="M25 24h1" />
<path stroke="#869c0a" d="M27 24h1" />
<path stroke="#9c9d6f" d="M6 25h1" />
<path stroke="#869d0d" d="M16 25h1" />
<path stroke="#9c9d9c" d="M21 25h1" />
<path stroke="#eed2cd" d="M22 25h2" />
<path stroke="#707552" d="M14 26h1" />
</svg>