<svg xmlns="http://www.w3.org/2000/svg" viewBox="0 -0.5 32 32" shape-rendering="crispEdges">
<metadata>Made with Pixels to Svg https://codepen.io/shshaw/pen/XbxvNj</metadata>
<path stroke="#303030" d="M14 7h8M13 8h1M22 8h1M12 9h1M23 9h1M11 10h1M24 10h1M10 11h1M25 11h1M9 12h1M25 12h1M8 13h1M25 13h1M7 14h1M25 14h1M6 15h1M25 15h1M6 16h1M25 16h1M6 17h1M25 17h1M6 18h1M24 18h1M6 19h1M23 19h1M6 20h1M22 20h1M6 21h1M21 21h1M7 22h1M20 22h1M8 23h1M19 23h1M9 24h1M18 24h1M10 25h8" />
<path stroke="#f8e8e8" d="M14 8h1M13 9h2M12 10h3M11 11h4M10 12h4M9 13h4M8 14h4M7 15h4" />
<path stroke="#f8c0c0" d="M15 8h6M15 9h6M15 10h6M20 12h1M19 13h2M18 14h3M18 15h3" />
<path stroke="#d87878" d="M21 8h1M21 9h2M21 10h3M10 16h1M10 17h1M9 18h2M9 19h2M8 20h3" />
<path stroke="#f8d0d0" d="M15 11h3M15 12h3M16 13h2M17 14h1M12 16h1M17 16h4M16 17h4M13 18h2M17 18h2M12 19h3M11 20h4" />
<path stroke="#f8c8c8" d="M18 11h3M18 12h2M18 13h1M11 16h1M11 17h3M11 18h2M15 18h2M11 19h1M15 19h3M15 20h2" />
<path stroke="#c05058" d="M21 11h4M21 12h4M22 13h3M24 14h1M10 21h1M9 22h2M9 23h2M10 24h1" />
<path stroke="#f8d8d8" d="M14 12h1M13 13h3M12 14h5M11 15h7M13 16h4M14 17h2" />
<path stroke="#a04850" d="M21 13h1M21 14h3M21 15h4M21 16h4M7 21h3M14 21h3M8 22h1M14 22h3M13 23h4M13 24h4" />
<path stroke="#e09898" d="M7 16h3M7 17h3M7 18h2M7 19h2M7 20h1" />
<path stroke="#783040" d="M20 17h5M19 18h5M19 19h4M20 20h2" />
<path stroke="#884050" d="M18 19h1M17 20h3M11 21h3M17 21h4M11 22h3M17 22h3M11 23h2M17 23h2M11 24h2M17 24h1" />
</svg>