<svg xmlns="http://www.w3.org/2000/svg" viewBox="0 -0.5 32 32" shape-rendering="crispEdges">
<metadata>Made with Pixels to Svg https://codepen.io/shshaw/pen/XbxvNj</metadata>
<path stroke="#303030" d="M15 8h5M14 9h1M17 9h1M20 9h1M13 10h1M16 10h1M18 10h1M20 10h1M12 11h1M15 11h8M10 12h2M16 12h1M23 12h2M9 13h1M17 13h5M25 13h1M8 14h1M11 14h1M17 14h1M22 14h2M26 14h1M7 15h1M10 15h1M24 15h1M26 15h1M7 16h1M9 16h1M20 16h4M26 16h1M6 17h1M26 17h1M6 18h1M25 18h1M5 19h1M16 19h1M25 19h1M5 20h1M11 20h1M15 20h1M24 20h1M5 21h1M11 21h1M15 21h1M24 21h1M5 22h1M11 22h1M15 22h1M23 22h1M5 23h1M11 23h5M22 23h1M6 24h1M10 24h1M16 24h1M21 24h1M7 25h3M17 25h4" />
<path stroke="#c0d0c0" d="M15 9h1M16 13h1M16 14h1M11 15h1M17 15h1M11 16h1M16 16h2M7 17h1M12 17h5M11 18h1M16 18h1M12 19h1M23 19h1M13 20h2M23 20h1M13 21h2" />
<path stroke="#88a088" d="M16 9h1M15 10h1M10 13h1M24 13h1M9 14h1M25 14h1M8 15h1M25 15h1M18 16h1M24 16h2M11 17h1M17 17h1M24 17h1M11 19h1M12 20h1M12 21h1M23 21h1M13 22h2" />
<path stroke="#405840" d="M18 9h2M19 10h1M17 12h6M11 13h1M22 13h2M10 14h1M24 14h1M9 15h1M18 15h1M8 16h1M10 16h1M19 16h1M10 17h1M23 17h1M25 17h1M24 18h1M24 19h1M12 22h1" />
<path stroke="#f8f8f8" d="M14 10h1M12 15h5M12 16h4M8 17h2M18 17h5M12 18h4M22 18h2M13 19h3" />
<path stroke="#b84040" d="M13 11h2M12 12h1M15 12h1M15 13h1M13 14h3M7 18h3M17 18h4M6 19h1M10 19h1M21 19h1M22 20h1M22 21h1M22 22h1" />
<path stroke="#f8b8b8" d="M13 12h2M12 13h1" />
<path stroke="#f08888" d="M13 13h2M12 14h1M10 18h1M21 18h1M22 19h1" />
<path stroke="#486098" d="M7 19h3M17 19h4M6 20h1M10 20h1M16 20h2M21 20h1M6 21h1M16 21h1M6 22h1M16 22h1M6 23h2M16 23h2M7 24h3M17 24h4" />
<path stroke="#68a0d8" d="M7 20h3M19 20h2M8 21h3M17 21h2M20 21h2M7 22h4M17 22h5M8 23h3M18 23h4" />
<path stroke="#90c8f8" d="M18 20h1M7 21h1M19 21h1" />
</svg>