<svg xmlns="http://www.w3.org/2000/svg" viewBox="0 -0.5 32 32" shape-rendering="crispEdges">
<metadata>Made with Pixels to Svg https://codepen.io/shshaw/pen/XbxvNj</metadata>
<path stroke="#202020" d="M20 8h5M10 9h7M19 9h1M25 9h1M7 10h3M17 10h2M21 10h3M26 10h1M6 11h1M20 11h1M24 11h1M26 11h1M5 12h1M20 12h1M24 12h1M26 12h1M5 13h1M22 13h2M26 13h1M5 14h1M25 14h1M6 15h1M23 15h2M7 16h1M21 16h2M6 17h1M20 17h1M6 18h1M13 18h1M20 18h1M7 19h1M20 19h1M7 20h1M20 20h1M8 21h1M19 21h1M9 22h2M17 22h2M11 23h6" />
<path stroke="#529c52" d="M20 9h1M12 10h5M19 10h1M9 11h9M7 12h3M7 13h1M11 13h4M24 13h1M19 14h1M23 14h2M7 15h1M21 15h1M9 16h1M19 16h1" />
<path stroke="#94d57b" d="M21 9h4M20 10h1M25 10h1M6 13h1M7 14h2M9 15h4M15 15h1" />
<path stroke="#73bd5a" d="M10 10h2M24 10h1M7 11h2M19 11h1M25 11h1M6 12h1M25 12h1M25 13h1M9 14h1M20 14h2M8 15h1M13 15h2M16 15h5M10 16h9" />
<path stroke="#397352" d="M18 11h1M10 12h7M19 12h1M8 13h3M6 14h1M10 14h9M8 16h1M20 16h1" />
<path stroke="#414a41" d="M17 12h2M15 13h2M20 13h2M22 14h1M22 15h1M18 17h2" />
<path stroke="#315a9c" d="M17 13h3" />
<path stroke="#ffffff" d="M7 17h1M8 18h1M12 18h1M14 18h1M13 19h1" />
<path stroke="#f6f65a" d="M8 17h1M9 18h2" />
<path stroke="#deac39" d="M9 17h1M7 18h1" />
<path stroke="#3973d5" d="M10 17h2M15 17h3M19 18h1M8 19h2M19 19h1M8 20h1M19 20h1M9 21h1M18 21h1M13 22h1M16 22h1" />
<path stroke="#b4c5cd" d="M12 17h3M14 19h1" />
<path stroke="#528bee" d="M11 18h1M15 18h4M10 19h1M18 19h1M9 20h3M16 20h3M10 21h6" />
<path stroke="#6a9cff" d="M11 19h2M15 19h3M12 20h4M16 21h2M11 22h2M14 22h2" />
</svg>