<svg xmlns="http://www.w3.org/2000/svg" viewBox="0 -0.5 32 32" shape-rendering="crispEdges">
<metadata>Made with Pixels to Svg https://codepen.io/shshaw/pen/XbxvNj</metadata>
<path stroke="#202020" d="M8 6h10M7 7h1M18 7h4M6 8h1M22 8h2M6 9h1M24 9h1M6 10h1M25 10h1M6 11h1M21 11h1M26 11h1M6 12h1M20 12h1M27 12h1M6 13h1M20 13h1M27 13h1M6 14h1M20 14h1M27 14h1M6 15h1M20 15h1M27 15h1M6 16h1M20 16h1M27 16h1M6 17h1M20 17h1M27 17h1M6 18h1M17 18h4M26 18h1M6 19h1M14 19h6M26 19h1M6 20h1M13 20h1M18 20h1M25 20h1M6 21h1M13 21h1M17 21h1M25 21h1M6 22h1M13 22h4M24 22h1M7 23h1M13 23h1M23 23h1M8 24h1M14 24h1M22 24h1M9 25h1M21 25h1M10 26h2M19 26h2M12 27h7" />
<path stroke="#c5ded5" d="M8 7h1M16 7h1M7 8h1M20 8h1M9 9h1M12 9h1M14 9h1M22 9h1M10 10h1M13 10h1M18 10h1M12 11h1M18 11h1M9 12h1M11 12h1M14 12h2M17 12h1M10 13h1M14 13h1M16 13h1M9 14h1M15 14h1M9 15h1M14 15h1M7 16h1M13 16h1M12 17h1M11 18h1M7 20h1M8 22h1M12 22h1M11 23h1" />
<path stroke="#ffffff" d="M9 7h2M8 8h1M7 9h1M7 10h1M14 10h1M7 11h1M13 11h2M7 12h1M12 12h2M16 12h1M11 13h1M13 13h1M15 13h1M13 14h2M13 15h1" />
<path stroke="#eef6f6" d="M11 7h5M9 8h3M8 9h1M8 10h1M8 11h1M7 13h1M7 14h1M7 15h1" />
<path stroke="#83838b" d="M17 7h1M15 9h1M20 10h1M22 10h2M17 11h1M20 11h1M24 11h1M21 12h3M25 12h2M21 13h4M26 13h1M10 14h1M21 14h4M26 14h1M17 15h1M21 15h4M26 15h1M9 16h1M12 16h1M23 16h2M26 16h1M10 17h2M21 17h2M26 17h1M13 18h2M23 18h1M25 18h1M9 19h2M25 19h1M11 20h1M24 20h1M12 21h1M24 21h1M17 22h1M23 22h1M12 23h1M14 23h1M18 23h1M22 23h1M13 24h1M15 24h1M21 24h1M10 25h1M14 25h1M19 25h2M12 26h1M15 26h4" />
<path stroke="#8bacbd" d="M12 8h5M18 8h1M21 8h1M10 9h2M19 9h1M23 9h1M9 10h1M24 10h1M9 11h1M19 11h1M25 11h1M8 12h1M18 12h1M8 13h1M12 13h1M17 13h1M8 14h1M16 14h1M8 15h1M15 15h1M8 16h1M14 16h1M9 17h1M13 17h1M8 18h1M12 18h1M7 19h1M10 20h1M7 21h3M9 22h3M8 23h1M9 24h4M13 25h1M13 26h2" />
<path stroke="#deffff" d="M17 8h1M19 8h1M13 9h1M18 9h1M20 9h2M11 10h2M19 10h1M10 11h2M10 12h1M19 12h1M9 13h1M18 13h2M17 14h3M16 15h1M15 16h2M7 17h2M14 17h3M9 18h2M11 19h2M8 20h2M10 21h2M9 23h2M11 25h2" />
<path stroke="#5a4a5a" d="M16 9h2M15 10h3M21 10h1M15 11h2M22 11h2M24 12h1M25 13h1M11 14h2M25 14h1M10 15h3M18 15h2M25 15h1M10 16h2M18 16h2M21 16h2M25 16h1M18 17h2M23 17h3M7 18h1M24 18h1M8 19h1M13 19h1M24 19h1M12 20h1M23 20h1M23 21h1M22 22h1M21 23h1M19 24h2M15 25h4" />
<path stroke="#6a626a" d="M17 16h1M17 17h1M15 18h2M21 19h1M7 22h1M19 22h1" />
<path stroke="#8b9cb4" d="M21 18h2M20 19h1M22 19h2M19 20h4M18 21h5M18 22h1M20 22h2M15 23h3M19 23h2M16 24h3" />
</svg>