<svg xmlns="http://www.w3.org/2000/svg" viewBox="0 -0.5 48 48" shape-rendering="crispEdges">
<metadata>Made with Pixels to Svg https://codepen.io/shshaw/pen/XbxvNj</metadata>
<path stroke="#ffffff" d="M0 0h48M0 1h48M0 2h48M0 3h48M0 4h48M0 5h48M0 6h48M0 7h20M29 7h19M0 8h17M21 8h5M32 8h16M0 9h15M17 9h11M29 9h1M34 9h14M0 10h12M16 10h13M36 10h12M0 11h11M14 11h14M29 11h1M37 11h11M0 12h9M12 12h15M28 12h1M38 12h10M0 13h7M11 13h1M13 13h11M25 13h1M27 13h1M29 13h1M40 13h8M0 14h6M10 14h1M12 14h1M14 14h7M22 14h1M24 14h1M26 14h1M28 14h1M42 14h6M0 15h4M11 15h1M13 15h1M15 15h1M17 15h1M19 15h1M21 15h1M23 15h1M25 15h1M27 15h1M44 15h4M0 16h2M10 16h1M12 16h1M14 16h1M16 16h1M18 16h1M20 16h1M22 16h1M24 16h1M46 16h2M0 17h1M11 17h1M13 17h1M15 17h1M17 17h1M19 17h1M21 17h1M47 17h1M14 18h1M16 18h1M18 18h1M0 20h1M47 20h1M0 21h2M0 22h4M0 23h4M0 24h3M47 24h1M0 25h3M45 25h3M0 26h3M44 26h4M0 27h3M44 27h4M0 28h2M44 28h4M0 29h2M45 29h3M0 30h2M45 30h3M0 31h2M46 31h2M0 32h1M47 32h1M0 33h1M47 33h1M0 34h1M47 34h1M0 35h1M6 35h2M47 35h1M0 36h1M5 36h3M46 36h2M0 37h1M5 37h2M46 37h2M0 38h1M46 38h2M0 39h1M46 39h2M0 40h1M46 40h2M0 41h2M45 41h3M0 42h2M45 42h3M0 43h2M45 43h3M0 44h2M44 44h4M0 45h3M44 45h4M0 46h3M44 46h4M0 47h4M43 47h5" />
<path stroke="#000000" d="M20 7h8M17 8h3M29 8h2M15 9h2M33 9h1M13 10h2M34 10h1M11 11h2M36 11h1M9 12h2M37 12h1M7 13h2M38 13h1M6 14h1M40 14h1M4 15h2M35 15h1M42 15h2M2 16h2M36 16h2M44 16h2M1 17h1M7 17h1M38 17h2M46 17h1M0 18h1M6 18h1M40 18h3M47 18h1M0 19h1M6 19h1M43 19h3M47 19h1M1 20h1M5 20h1M34 20h1M46 20h1M2 21h4M35 21h2M47 21h1M4 22h1M30 22h1M37 22h1M47 22h1M4 23h1M30 23h1M38 23h2M47 23h1M3 24h1M31 24h1M40 24h2M45 24h2M3 25h1M31 25h1M42 25h3M3 26h1M32 26h1M43 26h1M3 27h1M33 27h1M42 27h2M2 28h1M34 28h2M41 28h1M43 28h1M2 29h1M36 29h5M2 30h1M44 30h1M2 31h1M44 31h2M44 32h1M1 33h1M46 33h1M1 34h1M7 34h1M46 34h1M1 35h1M8 35h1M1 36h1M9 36h1M1 37h1M4 37h1M9 37h1M45 37h1M1 38h1M4 38h1M10 38h1M45 38h1M1 39h1M11 39h1M45 39h1M1 40h1M5 40h1M12 40h1M5 41h1M44 41h1M2 42h1M44 42h1M2 43h1M6 43h1M2 44h1M43 44h1M3 45h1M7 45h1M43 45h1M3 46h1M4 47h1M8 47h1" />
<path stroke="#ff4a9c" d="M28 7h1M31 8h1M32 9h1M12 10h1M35 10h1M11 12h1M10 13h1M39 13h1M9 14h1M34 14h1M41 14h1M6 15h1M8 15h1M4 16h4M41 16h3M3 17h1M5 17h2M40 17h6M1 18h2M4 18h2M43 18h4M1 19h1M3 19h3M33 19h1M38 19h5M46 19h1M2 20h3M29 20h1M37 20h4M42 20h4M29 21h1M37 21h3M41 21h1M43 21h4M36 22h1M38 22h3M42 22h1M44 22h3M33 23h5M40 23h7M32 24h3M36 24h4M42 24h3M32 25h2M35 25h1M37 25h1M39 25h3M33 26h2M36 26h1M38 26h5M34 27h8M36 28h5M44 29h1M1 32h1M46 32h1M6 34h1M5 35h1M46 35h1M4 36h1M45 36h1M4 39h1M45 40h1M2 41h1M4 41h1M13 41h2M37 41h1M39 41h1M41 41h1M3 42h1M5 42h1M34 42h1M36 42h1M38 42h1M40 42h1M42 42h1M4 43h1M33 43h1M35 43h1M37 43h1M39 43h1M41 43h1M43 43h2M3 44h1M5 44h2M30 44h1M32 44h1M34 44h1M36 44h1M38 44h1M40 44h1M42 44h1M4 45h3M27 45h1M29 45h1M31 45h1M33 45h1M35 45h1M37 45h1M39 45h1M41 45h1M4 46h4M14 46h1M16 46h1M18 46h1M22 46h1M24 46h1M26 46h1M28 46h1M30 46h1M32 46h1M34 46h1M36 46h1M38 46h1M40 46h1M42 46h2M5 47h3M13 47h1M15 47h1M17 47h1M19 47h1M21 47h1M23 47h1M25 47h1M27 47h1M29 47h1M31 47h1M33 47h1M35 47h1M37 47h1M39 47h1M41 47h2" />
<path stroke="#e684ad" d="M20 8h1M26 8h3M28 9h1M30 9h2M15 10h1M29 10h5M13 11h1M28 11h1M30 11h6M27 12h1M29 12h8M9 13h1M12 13h1M24 13h1M26 13h1M28 13h1M30 13h8M7 14h2M11 14h1M13 14h1M21 14h1M23 14h1M25 14h1M27 14h1M29 14h5M35 14h5M7 15h1M9 15h2M12 15h1M14 15h1M16 15h1M18 15h1M20 15h1M22 15h1M24 15h1M26 15h1M28 15h7M36 15h6M8 16h2M11 16h1M13 16h1M15 16h1M17 16h1M19 16h1M21 16h1M23 16h1M25 16h11M38 16h3M2 17h1M4 17h1M8 17h3M12 17h1M14 17h1M16 17h1M18 17h1M20 17h1M22 17h16M3 18h1M7 18h7M15 18h1M17 18h1M19 18h21M2 19h1M7 19h26M34 19h4M6 20h23M30 20h4M35 20h2M41 20h1M6 21h23M30 21h5M40 21h1M42 21h1M5 22h25M31 22h5M41 22h1M43 22h1M5 23h25M31 23h2M4 24h27M35 24h1M4 25h27M34 25h1M36 25h1M38 25h1M4 26h28M35 26h1M37 26h1M4 27h29M3 28h31M42 28h1M3 29h33M41 29h3M3 30h41M3 31h41M2 32h42M45 32h1M2 33h44M2 34h4M8 34h38M2 35h3M9 35h37M2 36h2M8 36h1M10 36h35M2 37h2M7 37h2M10 37h35M2 38h2M5 38h5M11 38h34M2 39h2M5 39h6M12 39h33M2 40h3M6 40h6M13 40h32M3 41h1M6 41h7M15 41h22M38 41h1M40 41h1M42 41h2M4 42h1M6 42h28M35 42h1M37 42h1M39 42h1M41 42h1M43 42h1M3 43h1M5 43h1M7 43h26M34 43h1M36 43h1M38 43h1M40 43h1M42 43h1M4 44h1M7 44h23M31 44h1M33 44h1M35 44h1M37 44h1M39 44h1M41 44h1M8 45h19M28 45h1M30 45h1M32 45h1M34 45h1M36 45h1M38 45h1M40 45h1M42 45h1M8 46h6M15 46h1M17 46h1M19 46h3M23 46h1M25 46h1M27 46h1M29 46h1M31 46h1M33 46h1M35 46h1M37 46h1M39 46h1M41 46h1M9 47h4M14 47h1M16 47h1M18 47h1M20 47h1M22 47h1M24 47h1M26 47h1M28 47h1M30 47h1M32 47h1M34 47h1M36 47h1M38 47h1M40 47h1" />
</svg>