<svg xmlns="http://www.w3.org/2000/svg" viewBox="0 -0.5 48 48" shape-rendering="crispEdges">
<metadata>Made with Pixels to Svg https://codepen.io/shshaw/pen/XbxvNj</metadata>
<path stroke="#ffffff" d="M0 0h48M0 1h48M0 2h48M0 3h48M0 4h48M0 5h48M0 6h48M0 7h48M0 8h48M0 9h11M13 9h35M0 10h10M14 10h34M0 11h10M15 11h33M0 12h11M16 12h32M0 13h11M17 13h31M0 14h12M18 14h30M0 15h4M7 15h5M19 15h29M0 16h3M9 16h4M18 16h1M22 16h26M0 17h3M11 17h2M19 17h1M21 17h1M28 17h10M41 17h7M0 18h4M13 18h1M20 18h1M22 18h1M29 18h8M38 18h2M42 18h6M0 19h5M30 19h5M37 19h2M43 19h5M0 20h7M24 20h1M31 20h2M44 20h4M0 21h8M24 21h3M45 21h3M0 22h9M25 22h2M28 22h1M45 22h3M0 23h10M25 23h3M46 23h2M0 24h10M46 24h2M0 25h9M47 25h1M0 26h9M47 26h1M0 27h9M46 27h2M0 28h10M39 28h3M45 28h3M0 29h11M38 29h10M0 30h11M37 30h11M0 31h10M27 31h3M35 31h13M0 32h10M29 32h19M0 33h10M30 33h1M33 33h15M0 34h10M32 34h1M35 34h13M0 35h10M34 35h1M36 35h12M0 36h11M36 36h1M38 36h10M0 37h11M37 37h1M39 37h9M0 38h10M40 38h8M0 39h9M39 39h1M41 39h1M43 39h5M0 40h8M39 40h1M42 40h1M44 40h4M0 41h7M21 41h2M41 41h2M44 41h4M0 42h5M19 42h6M41 42h1M43 42h5M0 43h3M18 43h9M42 43h6M0 44h2M18 44h11M42 44h6M0 45h1M17 45h13M41 45h7M0 46h1M17 46h14M39 46h9M17 47h14M38 47h10" />
<path stroke="#635a5a" d="M11 9h1M10 10h1M12 12h1M12 13h2M13 14h1M4 15h1M13 15h2M3 16h1M14 16h1M21 16h1M6 17h3M14 17h2M27 17h1M40 17h1M5 18h6M15 18h2M7 19h6M15 19h2M22 19h1M25 19h1M8 20h5M16 20h2M23 20h1M27 20h1M9 21h3M13 21h2M16 21h2M23 21h1M29 21h2M10 22h1M12 22h5M24 22h1M30 22h2M42 22h1M11 23h6M24 23h1M45 23h1M11 24h1M13 24h3M25 24h3M10 25h1M12 25h1M14 25h1M11 26h1M13 26h1M15 26h1M39 26h1M43 26h1M10 27h1M12 27h1M14 27h2M24 27h2M37 27h2M44 27h1M11 28h6M23 28h3M35 28h3M42 28h1M12 29h5M22 29h3M33 29h4M12 30h5M21 30h4M30 30h5M36 30h1M11 31h2M14 31h4M21 31h3M34 31h1M11 32h7M22 32h2M11 33h2M14 33h4M24 33h1M31 33h1M11 34h2M14 34h4M11 35h1M15 35h3M15 36h4M33 36h1M15 37h5M14 38h10M13 39h9M24 39h1M26 39h1M37 39h1M13 40h8M25 40h1M27 40h1M29 40h1M12 41h7M23 41h1M26 41h1M28 41h1M30 41h1M39 41h1M11 42h7M25 42h1M29 42h1M31 42h1M40 42h1M10 43h7M27 43h1M30 43h1M32 43h1M9 44h8M30 44h3M8 45h1M10 45h6M31 45h2M7 46h1M9 46h1M11 46h5M32 46h2M6 47h1M8 47h1M10 47h6M32 47h3" />
<path stroke="#000000" d="M12 9h1M13 10h1M10 11h1M14 11h1M11 12h1M15 12h1M11 13h1M16 13h1M12 14h1M17 14h1M5 15h2M12 15h1M18 15h1M7 16h2M13 16h1M19 16h2M3 17h1M9 17h2M13 17h1M22 17h5M38 17h2M4 18h1M11 18h2M14 18h1M28 18h1M37 18h1M41 18h1M5 19h2M13 19h2M23 19h2M27 19h3M35 19h2M42 19h1M7 20h1M13 20h3M25 20h2M30 20h1M33 20h2M43 20h1M8 21h1M12 21h1M15 21h1M27 21h2M31 21h2M40 21h2M44 21h1M9 22h1M11 22h1M27 22h1M29 22h1M43 22h2M10 23h1M28 23h2M10 24h1M28 24h1M45 24h1M9 25h1M15 25h1M46 25h1M9 26h1M16 26h1M40 26h3M46 26h1M9 27h1M16 27h1M39 27h5M45 27h1M10 28h1M17 28h1M38 28h1M43 28h2M11 29h1M17 29h1M37 29h1M11 30h1M17 30h1M27 30h3M35 30h1M10 31h1M13 31h1M18 31h1M24 31h3M30 31h4M10 32h1M18 32h1M24 32h1M27 32h2M10 33h1M13 33h1M18 33h1M29 33h1M32 33h1M10 34h1M13 34h1M18 34h1M30 34h2M33 34h2M10 35h1M12 35h1M18 35h1M32 35h2M35 35h1M11 36h1M19 36h1M34 36h2M37 36h1M11 37h1M20 37h4M35 37h2M38 37h1M10 38h1M24 38h3M37 38h3M9 39h1M22 39h2M25 39h1M27 39h2M38 39h1M40 39h1M42 39h1M8 40h1M21 40h4M26 40h1M28 40h1M30 40h1M38 40h1M40 40h2M43 40h1M7 41h1M19 41h2M24 41h2M27 41h1M29 41h1M31 41h1M40 41h1M43 41h1M5 42h2M18 42h1M26 42h3M30 42h1M32 42h1M42 42h1M3 43h2M17 43h1M28 43h2M31 43h1M41 43h1M2 44h1M17 44h1M29 44h1M33 44h1M41 44h1M1 45h1M16 45h1M30 45h1M33 45h1M39 45h2M1 46h1M16 46h1M31 46h1M34 46h1M38 46h1M0 47h1M16 47h1M31 47h1M36 47h2" />
<path stroke="#9c9c7b" d="M11 10h2M11 11h3M13 12h2M14 13h2M14 14h3M15 15h3M4 16h3M15 16h3M4 17h2M16 17h3M20 17h1M17 18h3M21 18h1M23 18h5M40 18h1M17 19h5M26 19h1M39 19h3M18 20h5M28 20h2M35 20h8M18 21h5M33 21h7M42 21h2M17 22h7M32 22h10M17 23h7M30 23h15M12 24h1M16 24h9M29 24h16M11 25h1M13 25h1M16 25h30M10 26h1M12 26h1M14 26h1M17 26h22M44 26h2M11 27h1M13 27h1M17 27h7M26 27h11M18 28h5M26 28h9M18 29h4M25 29h8M18 30h3M25 30h2M19 31h2M19 32h3M25 32h2M19 33h5M25 33h4M19 34h11M13 35h2M19 35h13M12 36h3M20 36h13M12 37h3M24 37h11M11 38h3M27 38h10M10 39h3M29 39h8M9 40h4M31 40h7M8 41h4M32 41h7M7 42h4M33 42h7M5 43h5M33 43h8M3 44h6M34 44h7M2 45h6M9 45h1M34 45h5M2 46h5M8 46h1M10 46h1M35 46h3M1 47h5M7 47h1M9 47h1M35 47h1" />
</svg>