<svg xmlns="http://www.w3.org/2000/svg" viewBox="0 -0.5 48 48" shape-rendering="crispEdges">
<metadata>Made with Pixels to Svg https://codepen.io/shshaw/pen/XbxvNj</metadata>
<path stroke="#ffffff" d="M0 0h48M0 1h21M22 1h26M0 2h20M21 2h1M23 2h25M0 3h19M20 3h1M22 3h1M25 3h23M0 4h17M19 4h1M21 4h1M23 4h1M26 4h22M0 5h9M14 5h2M18 5h1M20 5h1M22 5h1M27 5h1M33 5h15M0 6h8M9 6h1M11 6h1M13 6h1M19 6h1M21 6h1M23 6h1M28 6h1M30 6h1M32 6h1M34 6h14M0 7h8M10 7h1M12 7h1M14 7h1M20 7h1M22 7h1M27 7h1M29 7h1M31 7h1M33 7h15M0 8h9M11 8h1M13 8h1M28 8h1M30 8h1M34 8h14M0 9h9M10 9h1M12 9h1M14 9h1M34 9h14M0 10h9M11 10h1M13 10h1M35 10h13M0 11h8M10 11h1M12 11h1M35 11h13M0 12h6M38 12h10M0 13h5M40 13h8M0 14h5M41 14h7M0 15h4M43 15h5M0 16h5M44 16h4M0 17h4M5 17h1M43 17h5M0 18h3M4 18h1M43 18h5M0 19h3M5 19h1M42 19h6M0 20h1M4 20h1M6 20h1M42 20h6M1 21h1M3 21h1M5 21h1M7 21h1M43 21h5M0 22h1M4 22h1M6 22h1M8 22h1M44 22h4M0 23h2M3 23h1M7 23h1M44 23h4M0 24h3M45 24h3M0 25h3M46 25h2M0 26h2M3 26h1M45 26h3M0 27h1M2 27h1M4 27h1M44 27h4M0 28h2M3 28h1M5 28h1M44 28h4M0 29h2M4 29h1M43 29h5M0 30h3M42 30h6M0 31h4M41 31h7M0 32h5M41 32h7M0 33h5M42 33h6M0 34h5M6 34h1M8 34h1M42 34h6M0 35h4M5 35h1M7 35h1M9 35h1M42 35h6M0 36h3M4 36h1M6 36h1M8 36h1M43 36h5M0 37h4M7 37h1M9 37h1M42 37h6M0 38h6M8 38h1M39 38h9M0 39h8M38 39h10M0 40h9M38 40h10M0 41h9M10 41h1M12 41h1M20 41h1M22 41h1M38 41h10M0 42h10M11 42h1M21 42h1M23 42h1M37 42h11M0 43h10M12 43h1M22 43h1M24 43h1M37 43h11M0 44h11M23 44h1M36 44h12M0 45h12M22 45h1M31 45h3M35 45h13M0 46h12M23 46h2M29 46h19M0 47h11M23 47h4M28 47h20" />
<path stroke="#000000" d="M21 1h1M22 2h1M23 3h2M17 4h2M25 4h1M10 5h4M16 5h1M26 5h1M28 5h5M14 6h4M26 6h2M33 6h1M18 7h1M24 7h2M32 7h1M9 8h1M19 8h1M23 8h1M33 8h1M9 9h1M19 9h1M23 9h1M33 9h1M9 10h1M20 10h1M22 10h1M34 10h1M8 11h1M20 11h1M22 11h1M34 11h1M6 12h3M20 12h1M22 12h1M34 12h4M5 13h1M8 13h1M20 13h4M33 13h2M38 13h2M5 14h1M9 14h1M18 14h2M24 14h2M32 14h1M40 14h1M4 15h1M7 15h4M16 15h2M26 15h2M31 15h1M41 15h2M5 16h2M11 16h2M15 16h1M28 16h2M31 16h1M43 16h1M4 17h1M13 17h2M30 17h1M42 17h1M3 18h1M13 18h1M17 18h2M21 18h1M30 18h1M42 18h1M3 19h1M12 19h1M16 19h1M19 19h2M22 19h1M25 19h2M30 19h1M41 19h1M2 20h1M12 20h1M16 20h1M20 20h1M22 20h3M27 20h1M30 20h1M41 20h1M11 21h1M17 21h1M22 21h1M27 21h1M31 21h1M41 21h2M1 22h2M11 22h1M17 22h1M26 22h1M31 22h1M41 22h1M43 22h1M2 23h1M11 23h1M16 23h1M18 23h1M26 23h2M32 23h1M40 23h1M43 23h1M3 24h1M10 24h1M14 24h2M18 24h2M28 24h2M33 24h2M39 24h1M44 24h1M3 25h2M10 25h1M13 25h1M17 25h2M30 25h1M34 25h5M45 25h1M2 26h1M5 26h1M10 26h1M14 26h1M16 26h1M28 26h2M34 26h3M44 26h1M6 27h3M10 27h1M15 27h1M25 27h3M33 27h2M37 27h2M43 27h1M2 28h1M9 28h2M14 28h1M26 28h1M32 28h1M39 28h1M43 28h1M2 29h1M7 29h2M11 29h1M13 29h1M20 29h2M27 29h1M31 29h1M39 29h1M42 29h1M3 30h1M6 30h1M11 30h1M13 30h1M19 30h1M27 30h1M31 30h1M40 30h2M4 31h2M12 31h1M18 31h1M22 31h1M25 31h2M30 31h1M40 31h1M5 32h1M12 32h1M17 32h2M22 32h2M25 32h1M30 32h1M40 32h1M5 33h1M11 33h1M17 33h1M19 33h1M21 33h1M24 33h1M30 33h1M41 33h1M11 34h1M16 34h1M19 34h1M21 34h1M30 34h1M41 34h1M4 35h1M11 35h1M16 35h1M20 35h1M29 35h2M41 35h1M11 36h1M16 36h2M27 36h2M31 36h1M42 36h1M4 37h2M12 37h1M16 37h1M18 37h2M25 37h2M29 37h2M32 37h1M39 37h3M6 38h2M11 38h2M17 38h1M20 38h5M31 38h1M33 38h2M37 38h2M8 39h3M12 39h1M17 39h1M20 39h1M32 39h1M35 39h3M9 40h1M12 40h1M18 40h2M32 40h1M37 40h1M9 41h1M13 41h1M19 41h1M32 41h1M37 41h1M10 42h1M13 42h1M19 42h2M32 42h1M36 42h1M10 43h1M13 43h1M20 43h1M31 43h1M36 43h1M11 44h2M21 44h2M31 44h3M35 44h1M12 45h1M21 45h1M23 45h2M29 45h2M34 45h1M12 46h1M22 46h1M25 46h2M28 46h1M11 47h1M22 47h1M27 47h1" />
<path stroke="#52ad00" d="M20 2h1M19 3h1M9 5h1M8 6h1M8 7h1M21 14h1M23 14h1M18 15h1M20 15h1M22 15h1M24 15h2M17 16h1M19 16h1M21 16h1M23 16h5M16 17h1M18 17h1M20 17h10M15 18h1M19 18h2M22 18h8M14 19h1M18 19h1M21 19h1M23 19h2M27 19h3M1 20h1M13 20h1M15 20h1M17 20h3M21 20h1M25 20h2M28 20h2M0 21h1M12 21h5M18 21h4M23 21h4M28 21h3M12 22h5M18 22h8M27 22h4M12 23h4M17 23h1M19 23h7M28 23h4M11 24h3M16 24h2M20 24h8M30 24h3M11 25h2M14 25h3M19 25h11M31 25h3M11 26h3M15 26h1M17 26h11M30 26h4M1 27h1M11 27h4M16 27h9M28 27h5M11 28h3M15 28h1M18 28h8M27 28h5M12 29h1M14 29h1M17 29h3M22 29h5M28 29h3M12 30h1M17 30h2M20 30h7M28 30h3M13 31h1M16 31h2M19 31h3M23 31h2M27 31h3M16 32h1M19 32h3M24 32h1M26 32h4M12 33h1M15 33h2M18 33h1M20 33h1M22 33h2M25 33h5M5 34h1M12 34h2M15 34h1M17 34h2M20 34h1M22 34h8M12 35h1M14 35h2M17 35h3M21 35h8M3 36h1M12 36h2M15 36h1M18 36h9M14 37h2M20 37h5M13 38h1M15 38h2M13 39h4M13 40h1M15 40h3M14 41h1M16 41h3M14 42h1M16 42h3M14 43h6M13 44h2M16 44h5M13 45h1M15 45h1M17 45h4M13 46h2M16 46h1M18 46h4M12 47h2M15 47h1M17 47h5" />
<path stroke="#d6b519" d="M21 3h1M20 4h1M22 4h1M24 4h1M17 5h1M19 5h1M21 5h1M23 5h3M10 6h1M12 6h1M18 6h1M20 6h1M22 6h1M24 6h2M29 6h1M31 6h1M9 7h1M11 7h1M13 7h1M15 7h3M19 7h1M21 7h1M23 7h1M26 7h1M28 7h1M30 7h1M10 8h1M12 8h1M14 8h5M20 8h3M24 8h4M29 8h1M31 8h2M11 9h1M13 9h1M15 9h4M20 9h3M24 9h9M10 10h1M12 10h1M14 10h6M21 10h1M23 10h11M9 11h1M11 11h1M13 11h7M21 11h1M23 11h11M9 12h11M21 12h1M23 12h11M6 13h2M9 13h11M24 13h9M35 13h3M6 14h3M10 14h8M20 14h1M22 14h1M26 14h6M33 14h7M5 15h2M11 15h5M19 15h1M21 15h1M23 15h1M28 15h3M32 15h9M7 16h4M13 16h2M16 16h1M18 16h1M20 16h1M22 16h1M30 16h1M32 16h11M6 17h7M15 17h1M17 17h1M19 17h1M31 17h11M5 18h8M14 18h1M16 18h1M31 18h11M4 19h1M6 19h6M13 19h1M15 19h1M17 19h1M31 19h10M3 20h1M5 20h1M7 20h5M14 20h1M31 20h10M2 21h1M4 21h1M6 21h1M8 21h3M32 21h9M3 22h1M5 22h1M7 22h1M9 22h2M32 22h9M42 22h1M4 23h3M8 23h3M33 23h7M41 23h2M4 24h6M35 24h4M40 24h4M5 25h5M39 25h6M4 26h1M6 26h4M37 26h7M3 27h1M5 27h1M9 27h1M35 27h2M39 27h4M4 28h1M6 28h3M16 28h2M33 28h6M40 28h3M3 29h1M5 29h2M9 29h2M15 29h2M32 29h7M40 29h2M4 30h2M7 30h4M14 30h3M32 30h8M6 31h6M14 31h2M31 31h9M6 32h6M13 32h3M31 32h9M6 33h5M13 33h2M31 33h10M7 34h1M9 34h2M14 34h1M31 34h10M6 35h1M8 35h1M10 35h1M13 35h1M31 35h10M5 36h1M7 36h1M9 36h2M14 36h1M29 36h2M32 36h10M6 37h1M8 37h1M10 37h2M13 37h1M17 37h1M27 37h2M31 37h1M33 37h6M9 38h2M14 38h1M18 38h2M25 38h6M32 38h1M35 38h2M11 39h1M18 39h2M21 39h11M33 39h2M10 40h2M14 40h1M20 40h12M33 40h4M11 41h1M15 41h1M21 41h1M23 41h9M33 41h4M12 42h1M15 42h1M22 42h1M24 42h8M33 42h3M11 43h1M21 43h1M23 43h1M25 43h6M32 43h4M15 44h1M24 44h7M34 44h1M14 45h1M16 45h1M25 45h4M15 46h1M17 46h1M27 46h1M14 47h1M16 47h1" />
</svg>