<svg xmlns="http://www.w3.org/2000/svg" viewBox="0 -0.5 48 48" shape-rendering="crispEdges">
<metadata>Made with Pixels to Svg https://codepen.io/shshaw/pen/XbxvNj</metadata>
<path stroke="#ffffff" d="M0 0h7M9 0h36M47 0h1M0 1h5M7 1h2M10 1h34M45 1h2M0 2h4M5 2h5M11 2h32M44 2h3M0 3h3M4 3h7M12 3h30M43 3h4M0 4h2M3 4h8M12 4h29M42 4h4M47 4h1M0 5h2M3 5h9M13 5h27M41 5h5M47 5h1M0 6h1M2 6h10M13 6h16M30 6h10M41 6h5M47 6h1M0 7h1M2 7h10M14 7h14M29 7h1M31 7h8M40 7h5M46 7h2M0 8h1M2 8h9M12 8h1M14 8h14M29 8h1M31 8h7M39 8h6M46 8h2M0 9h1M2 9h8M11 9h1M14 9h13M28 9h1M31 9h7M39 9h2M43 9h1M45 9h3M0 10h1M2 10h6M10 10h1M12 10h1M15 10h12M28 10h1M31 10h6M38 10h2M41 10h2M45 10h3M0 11h2M3 11h4M9 11h1M11 11h1M13 11h1M15 11h12M31 11h6M38 11h1M40 11h3M44 11h4M0 12h2M3 12h3M10 12h1M12 12h1M15 12h11M31 12h5M37 12h1M39 12h3M43 12h5M0 13h2M3 13h2M11 13h1M13 13h1M16 13h10M38 13h4M43 13h5M0 14h1M3 14h1M12 14h1M14 14h1M16 14h10M36 14h1M38 14h3M42 14h6M0 15h1M2 15h1M12 15h3M16 15h8M28 15h3M37 15h3M42 15h6M1 16h2M11 16h5M17 16h5M27 16h5M35 16h1M37 16h3M41 16h7M1 17h2M10 17h6M17 17h4M27 17h5M36 17h3M42 17h6M1 18h3M9 18h7M17 18h3M28 18h2M34 18h1M36 18h2M43 18h5M1 19h3M9 19h8M18 19h1M20 19h2M35 19h1M38 19h1M44 19h4M1 20h3M8 20h9M18 20h1M20 20h2M38 20h2M44 20h4M1 21h2M7 21h10M19 21h3M33 21h1M37 21h3M45 21h3M0 22h1M2 22h1M7 22h11M32 22h1M36 22h4M45 22h3M0 23h1M7 23h11M32 23h1M36 23h3M45 23h3M0 24h1M8 24h10M31 24h1M42 24h1M45 24h3M0 25h2M7 25h1M9 25h10M31 25h1M42 25h1M45 25h3M0 26h2M6 26h3M11 26h8M31 26h1M45 26h3M0 27h3M6 27h5M13 27h6M30 27h3M45 27h3M0 28h3M5 28h7M14 28h6M30 28h2M44 28h4M0 29h4M5 29h9M15 29h5M23 29h3M29 29h3M44 29h4M0 30h5M6 30h9M16 30h4M22 30h3M26 30h1M29 30h2M43 30h5M0 31h6M7 31h9M17 31h3M21 31h3M25 31h1M28 31h2M42 31h6M0 32h7M9 32h8M18 32h1M21 32h2M24 32h1M26 32h1M28 32h2M41 32h7M0 33h9M11 33h7M20 33h2M23 33h1M25 33h1M27 33h2M40 33h2M44 33h4M0 34h11M14 34h3M19 34h4M24 34h1M27 34h1M38 34h3M45 34h3M0 35h14M19 35h3M23 35h1M26 35h2M36 35h4M44 35h4M0 36h16M18 36h3M22 36h1M26 36h1M43 36h5M0 37h15M18 37h4M23 37h1M26 37h1M42 37h6M0 38h15M38 38h10M0 39h14M35 39h4M41 39h7M0 40h14M35 40h3M42 40h6M0 41h14M17 41h2M41 41h7M0 42h15M16 42h4M32 42h1M40 42h8M0 43h14M16 43h3M31 43h4M39 43h9M0 44h14M31 44h17M0 45h13M26 45h2M31 45h4M37 45h11M0 46h12M14 46h2M25 46h3M32 46h1M37 46h11M0 47h10M13 47h2M24 47h5M36 47h12" />
<path stroke="#a53a3a" d="M7 0h1M45 0h1M5 1h1M44 1h1M4 2h1M43 2h1M42 3h1M2 4h1M41 4h1M40 5h1M1 6h1M29 6h1M1 7h1M12 7h1M28 7h1M11 8h1M38 8h1M10 9h1M12 9h1M27 9h1M29 9h1M8 10h2M11 10h1M13 10h1M29 10h1M7 11h2M10 11h1M12 11h1M28 11h2M6 12h4M11 12h1M13 12h1M27 12h3M5 13h6M12 13h1M14 13h1M27 13h2M4 14h8M13 14h1M29 14h6M4 15h8M27 15h1M31 15h4M4 16h7M26 16h1M32 16h2M4 17h6M25 17h2M32 17h2M5 18h4M24 18h4M30 18h3M5 19h4M24 19h9M36 19h1M4 20h1M6 20h2M24 20h8M34 20h3M3 21h2M6 21h1M23 21h9M34 21h2M3 22h3M23 22h8M33 22h3M2 23h4M23 23h8M33 23h2M2 24h5M23 24h7M32 24h2M3 25h4M23 25h7M32 25h2M3 26h3M24 26h6M32 26h1M4 27h2M24 27h1M28 27h1M4 28h1M26 29h2M21 30h1M25 30h1M27 30h1M24 31h1M26 31h1M32 31h1M20 32h1M23 32h1M25 32h1M31 32h3M19 33h1M22 33h1M24 33h1M30 33h4M17 34h2M23 34h1M25 34h1M29 34h6M17 35h2M22 35h1M24 35h1M29 35h6M17 36h1M21 36h1M23 36h2M28 36h7M16 37h2M22 37h1M24 37h1M28 37h7M16 38h18M15 39h2M23 39h11M15 40h1M25 40h8M15 41h1M19 41h4M26 41h6M20 42h5M27 42h4M15 43h1M19 43h7M27 43h2M15 44h11M14 45h1M20 45h5M13 46h1M16 46h4M22 46h2M28 46h1M12 47h1M15 47h7" />
<path stroke="#000000" d="M8 0h1M46 0h1M6 1h1M9 1h1M47 1h1M10 2h1M47 2h1M3 3h1M11 3h1M47 3h1M11 4h1M46 4h1M2 5h1M12 5h1M46 5h1M12 6h1M40 6h1M46 6h1M13 7h1M30 7h1M39 7h1M45 7h1M1 8h1M13 8h1M28 8h1M30 8h1M45 8h1M1 9h1M13 9h1M30 9h1M38 9h1M41 9h2M44 9h1M1 10h1M14 10h1M27 10h1M30 10h1M37 10h1M40 10h1M43 10h2M2 11h1M14 11h1M27 11h1M30 11h1M37 11h1M39 11h1M43 11h1M2 12h1M14 12h1M26 12h1M30 12h1M36 12h1M38 12h1M42 12h1M2 13h1M15 13h1M26 13h1M29 13h9M42 13h1M1 14h2M15 14h1M26 14h3M35 14h1M37 14h1M41 14h1M1 15h1M3 15h1M15 15h1M24 15h3M35 15h2M40 15h2M0 16h1M3 16h1M16 16h1M22 16h2M25 16h1M34 16h1M36 16h1M40 16h1M0 17h1M3 17h1M16 17h1M21 17h1M24 17h1M34 17h2M39 17h1M41 17h1M0 18h1M4 18h1M16 18h1M20 18h1M23 18h1M33 18h1M35 18h1M38 18h1M42 18h1M0 19h1M4 19h1M17 19h1M19 19h1M23 19h1M33 19h2M37 19h1M43 19h1M0 20h1M5 20h1M17 20h1M19 20h1M23 20h1M32 20h2M37 20h1M43 20h1M0 21h1M5 21h1M17 21h2M22 21h1M32 21h1M36 21h1M41 21h2M44 21h1M1 22h1M6 22h1M18 22h2M22 22h1M31 22h1M40 22h5M1 23h1M6 23h1M18 23h2M22 23h1M31 23h1M35 23h1M40 23h5M1 24h1M7 24h1M18 24h2M22 24h1M30 24h1M34 24h1M40 24h2M43 24h2M2 25h1M8 25h1M19 25h1M30 25h1M34 25h1M40 25h2M43 25h2M2 26h1M9 26h2M19 26h1M23 26h1M30 26h1M33 26h1M40 26h5M3 27h1M11 27h2M19 27h1M23 27h1M25 27h3M29 27h1M33 27h1M41 27h2M44 27h1M3 28h1M12 28h2M20 28h1M22 28h8M32 28h1M43 28h1M4 29h1M14 29h1M20 29h3M28 29h1M32 29h1M43 29h1M5 30h1M15 30h1M20 30h1M28 30h1M31 30h3M42 30h1M6 31h1M16 31h1M20 31h1M27 31h1M30 31h2M33 31h1M41 31h1M7 32h2M17 32h1M19 32h1M27 32h1M30 32h1M34 32h1M40 32h1M9 33h2M18 33h1M26 33h1M29 33h1M34 33h1M38 33h2M42 33h2M11 34h3M26 34h1M28 34h1M35 34h3M41 34h2M44 34h1M14 35h3M25 35h1M28 35h1M35 35h1M40 35h4M16 36h1M25 36h1M27 36h1M35 36h8M15 37h1M25 37h1M27 37h1M35 37h7M15 38h1M34 38h4M14 39h1M17 39h6M34 39h1M39 39h2M14 40h1M16 40h9M33 40h2M38 40h2M41 40h1M14 41h1M16 41h1M23 41h3M32 41h9M15 42h1M25 42h2M31 42h1M33 42h7M14 43h1M26 43h1M29 43h2M35 43h4M14 44h1M26 44h5M13 45h1M15 45h5M25 45h1M28 45h3M35 45h2M12 46h1M20 46h2M24 46h1M29 46h3M33 46h2M36 46h1M10 47h2M22 47h2M29 47h7" />
<path stroke="#4ad652" d="M24 16h1M22 17h2M40 17h1M21 18h2M39 18h3M22 19h1M39 19h4M22 20h1M40 20h3M40 21h1M43 21h1M20 22h2M20 23h2M39 23h1M20 24h2M35 24h5M20 25h3M35 25h5M20 26h3M34 26h6M20 27h3M34 27h7M43 27h1M21 28h1M33 28h10M33 29h10M34 30h8M34 31h7M35 32h5M35 33h3M43 34h1M40 40h1M35 46h1" />
</svg>