<svg xmlns="http://www.w3.org/2000/svg" viewBox="0 -0.5 48 48" shape-rendering="crispEdges">
<metadata>Made with Pixels to Svg https://codepen.io/shshaw/pen/XbxvNj</metadata>
<path stroke="#ffffff" d="M0 0h48M0 1h48M0 2h48M0 3h48M0 4h48M0 5h48M0 6h48M0 7h48M0 8h48M0 9h48M0 10h48M0 11h48M0 12h48M0 13h48M0 14h48M0 15h48M0 16h15M18 16h30M0 17h14M19 17h29M0 18h12M19 18h6M27 18h21M0 19h11M19 19h5M29 19h19M0 20h10M18 20h6M30 20h18M0 21h9M16 21h8M31 21h17M0 22h8M14 22h11M32 22h16M0 23h7M13 23h14M33 23h15M0 24h7M12 24h4M24 24h4M33 24h15M0 25h6M11 25h4M25 25h4M34 25h14M0 26h6M11 26h3M26 26h3M34 26h14M0 27h5M10 27h3M27 27h3M35 27h13M0 28h5M10 28h2M28 28h2M35 28h13M0 29h5M9 29h3M28 29h3M36 29h12M0 30h5M36 30h12M0 31h5M36 31h12M0 32h5M36 32h12M0 33h5M36 33h12M0 34h5M9 34h3M28 34h3M36 34h12M0 35h5M10 35h2M28 35h2M35 35h13M0 36h5M10 36h3M27 36h3M35 36h13M0 37h6M11 37h3M26 37h3M34 37h14M0 38h6M11 38h4M25 38h4M34 38h14M0 39h7M12 39h4M24 39h4M33 39h15M0 40h7M13 40h14M33 40h15M0 41h8M15 41h11M32 41h16M0 42h9M16 42h8M31 42h17M0 43h10M16 43h6M30 43h18M0 44h11M16 44h5M29 44h19M0 45h13M15 45h6M28 45h20M0 46h21M26 46h22M0 47h22M25 47h23" />
<path stroke="#7b7b84" d="M15 16h1M15 18h1M16 24h1M23 24h1M10 26h1M29 26h1M5 27h1M34 27h1M9 28h1M12 28h1M17 28h2M27 28h1M30 28h1M16 29h4M35 29h1M16 30h4M35 30h1M17 31h2M35 31h1M35 32h1M35 33h1M35 34h1M9 35h1M12 35h1M27 35h1M30 35h1M5 36h1M34 36h1M10 37h1M29 37h1M16 39h1M23 39h1M24 45h1M24 47h1" />
<path stroke="#3a3a42" d="M16 16h2M14 17h1M18 17h1M12 18h1M16 18h1M18 18h1M25 18h2M11 19h1M18 19h1M24 19h1M28 19h1M10 20h1M16 20h2M24 20h1M29 20h1M9 21h1M14 21h2M24 21h1M30 21h1M8 22h1M13 22h1M25 22h2M31 22h1M7 23h1M12 23h1M27 23h1M32 23h1M11 24h1M17 24h1M22 24h1M28 24h1M6 25h1M10 25h1M15 25h1M24 25h1M29 25h1M33 25h1M14 26h1M25 26h1M9 27h1M13 27h1M16 27h4M26 27h1M30 27h1M5 28h1M15 28h2M19 28h2M34 28h1M8 29h1M12 29h1M15 29h1M20 29h1M27 29h1M31 29h1M8 30h4M15 30h1M20 30h1M28 30h4M15 31h2M19 31h2M16 32h4M8 33h4M28 33h4M8 34h1M12 34h1M27 34h1M31 34h1M5 35h1M34 35h1M9 36h1M13 36h1M26 36h1M30 36h1M14 37h1M25 37h1M6 38h1M10 38h1M15 38h1M24 38h1M29 38h1M33 38h1M11 39h1M17 39h1M22 39h1M28 39h1M7 40h1M12 40h1M27 40h1M32 40h1M8 41h1M13 41h2M26 41h1M31 41h1M9 42h1M15 42h1M24 42h2M30 42h1M10 43h1M15 43h1M22 43h2M29 43h1M11 44h1M15 44h1M21 44h1M28 44h1M13 45h2M21 45h1M23 45h1M27 45h1M21 46h1M25 46h1M22 47h2" />
<path stroke="#000000" d="M15 17h3M13 18h2M17 18h1M12 19h6M25 19h3M11 20h5M25 20h4M10 21h4M25 21h5M9 22h4M27 22h4M8 23h4M28 23h4M7 24h4M18 24h4M29 24h4M7 25h3M16 25h8M30 25h3M6 26h4M15 26h10M30 26h4M6 27h3M14 27h2M20 27h6M31 27h3M6 28h3M13 28h2M21 28h6M31 28h3M5 29h3M13 29h2M21 29h6M32 29h3M5 30h3M12 30h3M21 30h7M32 30h3M5 31h10M21 31h14M5 32h11M20 32h15M5 33h3M12 33h16M32 33h3M5 34h3M13 34h14M32 34h3M6 35h3M13 35h14M31 35h3M6 36h3M14 36h12M31 36h3M6 37h4M15 37h10M30 37h4M7 38h3M16 38h8M30 38h3M7 39h4M18 39h4M29 39h4M8 40h4M28 40h4M9 41h4M27 41h4M10 42h5M26 42h4M11 43h4M24 43h5M12 44h3M22 44h6M22 45h1M25 45h2M22 46h3" />
</svg>