<svg xmlns="http://www.w3.org/2000/svg" viewBox="0 -0.5 48 48" shape-rendering="crispEdges">
<metadata>Made with Pixels to Svg https://codepen.io/shshaw/pen/XbxvNj</metadata>
<path stroke="#ffffff" d="M0 0h48M0 1h48M0 2h48M0 3h48M0 4h48M0 5h18M20 5h28M0 6h17M18 6h2M22 6h26M0 7h17M19 7h3M23 7h9M34 7h14M0 8h13M16 8h2M21 8h2M25 8h6M32 8h2M35 8h13M0 9h11M18 9h1M23 9h2M26 9h5M32 9h2M35 9h13M0 10h9M11 10h2M19 10h1M28 10h3M36 10h12M0 11h8M9 11h4M20 11h1M30 11h1M36 11h12M0 12h7M8 12h4M20 12h1M37 12h11M0 13h3M5 13h1M7 13h4M16 13h1M20 13h2M37 13h11M0 14h2M3 14h2M8 14h2M37 14h11M0 15h1M2 15h2M22 15h2M38 15h10M0 16h1M2 16h2M21 16h2M39 16h9M0 17h1M2 17h2M21 17h1M40 17h8M0 18h1M2 18h2M20 18h2M40 18h8M0 19h2M3 19h1M20 19h1M41 19h7M0 20h2M3 20h2M20 20h1M41 20h7M0 21h3M4 21h1M20 21h1M42 21h6M0 22h3M4 22h1M42 22h6M0 23h2M5 23h1M38 23h1M42 23h6M0 24h2M5 24h1M37 24h2M42 24h6M0 25h2M6 25h1M37 25h2M43 25h5M0 26h2M19 26h1M37 26h2M43 26h5M0 27h2M7 27h1M19 27h1M38 27h1M43 27h5M0 28h2M18 28h2M38 28h2M43 28h5M0 29h3M18 29h2M43 29h5M0 30h3M18 30h3M42 30h6M0 31h4M19 31h2M42 31h6M0 32h4M41 32h7M0 33h3M30 33h2M39 33h9M0 34h3M12 34h1M31 34h17M0 35h3M10 35h4M29 35h1M34 35h14M0 36h4M10 36h3M15 36h2M26 36h3M30 36h1M35 36h13M0 37h4M5 37h1M14 37h4M25 37h5M31 37h1M36 37h12M0 38h3M4 38h1M14 38h4M25 38h2M28 38h1M30 38h1M36 38h12M0 39h3M4 39h1M14 39h4M36 39h12M0 40h2M14 40h3M36 40h12M0 41h1M15 41h1M35 41h13M0 42h1M3 42h1M35 42h13M0 43h1M9 43h4M34 43h14M0 44h2M7 44h6M35 44h13M0 45h3M5 45h9M36 45h12M0 46h15M27 46h4M38 46h10M0 47h15M24 47h9M40 47h8" />
<path stroke="#d64242" d="M18 5h1M17 6h1M21 6h1M18 7h1M32 7h1M19 8h2M31 8h1M11 9h1M13 9h3M20 9h3M9 10h1M13 10h5M21 10h5M32 10h3M8 11h1M13 11h6M22 11h6M32 11h3M12 12h4M18 12h1M22 12h8M31 12h5M11 13h4M17 13h1M23 13h7M31 13h5M6 14h2M10 14h5M16 14h4M25 14h5M31 14h5M4 15h2M8 15h8M17 15h4M24 15h1M26 15h4M31 15h6M4 16h4M9 16h8M18 16h2M23 16h2M26 16h3M30 16h7M4 17h5M10 17h8M22 17h4M27 17h10M38 17h1M4 18h6M11 18h1M14 18h5M22 18h4M27 18h12M4 19h7M15 19h4M21 19h5M27 19h13M5 20h7M16 20h3M21 20h5M27 20h13M5 21h7M16 21h2M21 21h5M27 21h14M5 22h8M16 22h2M20 22h6M27 22h11M39 22h2M3 23h1M6 23h8M16 23h1M18 23h1M20 23h6M27 23h10M40 23h1M3 24h1M6 24h8M16 24h1M18 24h1M20 24h6M27 24h10M3 25h2M7 25h8M16 25h1M18 25h1M20 25h6M27 25h9M41 25h1M3 26h3M7 26h8M17 26h1M21 26h5M27 26h9M41 26h1M3 27h3M8 27h8M17 27h1M21 27h5M27 27h10M41 27h1M3 28h4M8 28h8M21 28h5M29 28h8M41 28h1M4 29h4M9 29h8M21 29h4M30 29h8M41 29h1M4 30h1M8 30h1M10 30h7M22 30h3M31 30h10M5 31h3M9 31h1M11 31h7M22 31h3M31 31h10M5 32h6M13 32h5M22 32h3M32 32h7M4 33h7M14 33h4M19 33h2M22 33h2M25 33h1M4 34h6M13 34h1M15 34h2M18 34h4M23 34h1M25 34h3M4 35h1M7 35h2M14 35h1M17 35h5M23 35h3M28 35h1M30 35h1M5 36h2M9 36h1M13 36h1M17 36h5M23 36h2M29 36h1M31 36h3M6 37h2M9 37h4M18 37h6M30 37h1M32 37h3M5 38h3M9 38h4M18 38h6M27 38h1M29 38h1M31 38h4M5 39h1M8 39h1M10 39h2M13 39h1M18 39h5M24 39h11M3 40h1M6 40h3M10 40h2M13 40h1M17 40h6M24 40h11M2 41h1M4 41h6M11 41h1M13 41h2M16 41h7M24 41h5M31 41h3M4 42h5M13 42h11M25 42h3M29 42h4M3 43h4M14 43h10M25 43h3M29 43h4M3 44h2M14 44h11M27 44h2M30 44h4M15 45h12M31 45h4M16 46h8M33 46h3M16 47h6M34 47h1M36 47h2" />
<path stroke="#000000" d="M19 5h1M20 6h1M17 7h1M22 7h1M33 7h1M13 8h3M18 8h1M23 8h2M34 8h1M12 9h1M16 9h2M19 9h1M25 9h1M31 9h1M34 9h1M10 10h1M18 10h1M20 10h1M26 10h2M31 10h1M35 10h1M19 11h1M21 11h1M28 11h2M31 11h1M35 11h1M7 12h1M16 12h2M19 12h1M21 12h1M30 12h1M36 12h1M3 13h2M6 13h1M15 13h1M18 13h2M22 13h1M30 13h1M36 13h1M2 14h1M5 14h1M15 14h1M20 14h5M30 14h1M36 14h1M1 15h1M6 15h2M16 15h1M21 15h1M25 15h1M37 15h1M1 16h1M8 16h1M17 16h1M20 16h1M25 16h1M37 16h2M1 17h1M9 17h1M18 17h3M26 17h1M37 17h1M39 17h1M1 18h1M10 18h1M12 18h2M19 18h1M26 18h1M39 18h1M2 19h1M11 19h1M14 19h1M19 19h1M26 19h1M40 19h1M2 20h1M12 20h1M15 20h1M19 20h1M26 20h1M40 20h1M3 21h1M12 21h1M15 21h1M18 21h2M26 21h1M41 21h1M3 22h1M13 22h1M18 22h2M26 22h1M41 22h1M2 23h1M4 23h1M14 23h1M17 23h1M19 23h1M26 23h1M39 23h1M41 23h1M2 24h1M4 24h1M14 24h1M17 24h1M19 24h1M26 24h1M39 24h1M41 24h1M2 25h1M5 25h1M15 25h1M17 25h1M19 25h1M26 25h1M40 25h1M42 25h1M2 26h1M6 26h1M15 26h2M18 26h1M20 26h1M26 26h1M39 26h2M42 26h1M2 27h1M6 27h1M16 27h1M18 27h1M20 27h1M26 27h1M40 27h1M42 27h1M2 28h1M7 28h1M16 28h2M20 28h1M26 28h3M42 28h1M3 29h1M8 29h1M17 29h1M20 29h1M25 29h1M29 29h1M42 29h1M3 30h1M9 30h1M17 30h1M21 30h1M25 30h1M30 30h1M41 30h1M4 31h1M10 31h1M18 31h1M21 31h1M25 31h1M30 31h1M41 31h1M4 32h1M11 32h2M18 32h4M25 32h1M29 32h3M39 32h2M3 33h1M11 33h3M18 33h1M21 33h1M24 33h1M26 33h2M29 33h1M32 33h7M3 34h1M10 34h2M14 34h1M17 34h1M22 34h1M24 34h1M28 34h3M3 35h1M5 35h2M9 35h1M15 35h2M22 35h1M26 35h2M31 35h3M4 36h1M7 36h2M14 36h1M22 36h1M25 36h1M34 36h1M4 37h1M8 37h1M13 37h1M24 37h1M35 37h1M3 38h1M8 38h1M13 38h1M35 38h1M3 39h1M6 39h2M9 39h1M12 39h1M35 39h1M2 40h1M4 40h2M9 40h1M12 40h1M23 40h1M35 40h1M1 41h1M10 41h1M12 41h1M23 41h1M29 41h1M34 41h1M1 42h1M9 42h4M24 42h1M28 42h1M34 42h1M1 43h1M7 43h2M13 43h1M24 43h1M28 43h1M33 43h1M2 44h1M5 44h2M13 44h1M25 44h2M29 44h1M34 44h1M3 45h2M14 45h1M27 45h4M35 45h1M15 46h1M24 46h3M31 46h2M36 46h2M15 47h1M22 47h2M33 47h1M35 47h1M38 47h2" />
<path stroke="#3a426b" d="M30 15h1M29 16h1M12 19h2M13 20h2M13 21h2M14 22h2M38 22h1M15 23h1M37 23h1M15 24h1M40 24h1M36 25h1M39 25h1M36 26h1M37 27h1M39 27h1M37 28h1M40 28h1M26 29h3M38 29h3M5 30h3M26 30h4M8 31h1M26 31h4M26 32h3M28 33h1M24 38h1M23 39h1M3 41h1M30 41h1M2 42h1M33 42h1M2 43h1" />
</svg>