<svg xmlns="http://www.w3.org/2000/svg" viewBox="0 -0.5 48 48" shape-rendering="crispEdges">
<metadata>Made with Pixels to Svg https://codepen.io/shshaw/pen/XbxvNj</metadata>
<path stroke="#ffffff" d="M0 0h48M0 1h48M0 2h48M0 3h29M32 3h16M0 4h27M29 4h3M34 4h14M0 5h13M18 5h7M27 5h3M35 5h13M0 6h11M13 6h4M20 6h4M26 6h5M35 6h13M0 7h10M11 7h3M22 7h1M28 7h2M32 7h16M0 8h10M36 8h12M0 9h8M10 9h4M30 9h4M38 9h10M0 10h7M8 10h4M31 10h2M39 10h9M0 11h7M32 11h3M39 11h9M0 12h8M38 12h10M0 13h13M35 13h13M0 14h11M13 14h1M37 14h11M0 15h10M12 15h1M14 15h1M38 15h10M0 16h9M11 16h1M13 16h1M15 16h1M39 16h9M0 17h8M9 17h2M12 17h1M14 17h1M40 17h8M0 18h8M9 18h1M11 18h1M13 18h1M15 18h1M40 18h8M0 19h7M8 19h3M12 19h1M14 19h1M35 19h2M41 19h7M0 20h7M8 20h4M13 20h1M35 20h3M41 20h7M0 21h6M7 21h8M30 21h4M36 21h2M41 21h7M0 22h6M8 22h10M25 22h10M42 22h6M0 23h6M7 23h1M9 23h25M42 23h6M0 24h6M8 24h1M10 24h1M12 24h19M32 24h1M42 24h6M0 25h5M7 25h1M9 25h1M11 25h1M13 25h13M27 25h1M29 25h1M31 25h1M43 25h5M0 26h5M8 26h1M10 26h1M17 26h8M26 26h1M28 26h1M30 26h1M43 26h5M0 27h5M43 27h5M0 28h5M43 28h5M0 29h5M43 29h5M0 30h5M42 30h6M0 31h6M42 31h6M0 32h6M41 32h7M0 33h7M41 33h7M0 34h7M40 34h8M0 35h8M39 35h9M0 36h9M38 36h10M0 37h10M37 37h1M39 37h9M0 38h12M35 38h4M40 38h8M0 39h12M13 39h2M32 39h7M40 39h8M0 40h10M12 40h3M32 40h7M40 40h8M0 41h9M10 41h4M32 41h6M39 41h9M0 42h8M9 42h4M33 42h3M38 42h10M0 43h8M9 43h4M36 43h12M0 44h9M10 44h2M34 44h14M0 45h10M34 45h14M0 46h12M34 46h14M0 47h11M34 47h14" />
<path stroke="#000000" d="M29 3h3M27 4h2M32 4h2M14 5h4M25 5h2M34 5h1M12 6h1M18 6h2M24 6h1M32 6h3M10 7h1M20 7h2M23 7h1M30 7h2M10 8h6M21 8h3M29 8h7M9 9h1M16 9h2M22 9h1M27 9h2M36 9h2M18 10h1M22 10h1M26 10h1M38 10h1M7 11h1M38 11h1M8 12h5M32 12h6M13 13h3M29 13h6M11 14h2M16 14h2M27 14h2M35 14h2M10 15h1M18 15h1M26 15h1M37 15h1M9 16h1M19 16h1M25 16h1M38 16h1M8 17h1M39 17h1M8 18h1M39 18h1M40 19h1M7 20h1M40 20h1M40 21h1M6 22h1M41 22h1M6 23h1M41 23h1M6 24h1M41 24h1M5 25h1M42 25h1M5 26h1M42 26h1M5 27h1M42 27h1M5 28h1M42 28h1M5 29h1M42 29h1M5 30h1M41 30h1M6 31h1M41 31h1M6 32h1M40 32h1M7 33h1M40 33h1M7 34h1M39 34h1M8 35h1M38 35h1M9 36h1M37 36h1M10 37h2M35 37h2M38 37h1M12 38h3M32 38h3M39 38h1M12 39h1M15 39h4M27 39h5M39 39h1M10 40h2M15 40h1M19 40h8M31 40h1M39 40h1M9 41h1M14 41h2M31 41h1M38 41h1M8 42h1M13 42h1M15 42h1M30 42h1M36 42h2M8 43h1M13 43h1M16 43h1M30 43h1M33 43h3M9 44h1M12 44h1M16 44h1M29 44h1M33 44h1M10 45h3M17 45h1M28 45h1M33 45h1M12 46h1M18 46h2M26 46h2M33 46h1M11 47h1M20 47h6M33 47h1" />
<path stroke="#efc521" d="M13 5h1M30 5h4M11 6h1M17 6h1M25 6h1M31 6h1M14 7h6M24 7h4M16 8h5M24 8h5M8 9h1M14 9h2M18 9h4M23 9h4M29 9h1M34 9h2M7 10h1M12 10h6M19 10h3M23 10h3M27 10h4M33 10h5M8 11h24M35 11h3M13 12h19M16 13h13M14 14h2M18 14h9M29 14h6M11 15h1M13 15h1M15 15h3M19 15h7M27 15h10M10 16h1M12 16h1M14 16h1M16 16h3M20 16h5M26 16h12M11 17h1M13 17h1M15 17h24M10 18h1M12 18h1M14 18h1M16 18h23M7 19h1M11 19h1M13 19h1M15 19h20M37 19h3M12 20h1M14 20h21M38 20h2M6 21h1M15 21h15M34 21h2M38 21h2M7 22h1M18 22h7M35 22h6M8 23h1M34 23h7M7 24h1M9 24h1M11 24h1M31 24h1M33 24h8M6 25h1M8 25h1M10 25h1M12 25h1M26 25h1M28 25h1M30 25h1M32 25h10M6 26h2M9 26h1M11 26h6M25 26h1M27 26h1M29 26h1M31 26h11M6 27h36M6 28h36M6 29h36M6 30h35M7 31h34M7 32h33M8 33h32M8 34h31M9 35h29M10 36h27M12 37h23M15 38h17M19 39h8M16 40h3M27 40h4M16 41h15M16 42h14M17 43h13M17 44h12M18 45h10M20 46h6" />
<path stroke="#a5089c" d="M14 42h1M31 42h2M14 43h2M31 43h2M13 44h3M30 44h3M13 45h4M29 45h4M13 46h5M28 46h5M12 47h8M26 47h7" />
</svg>