<svg xmlns="http://www.w3.org/2000/svg" viewBox="0 -0.5 48 48" shape-rendering="crispEdges">
<metadata>Made with Pixels to Svg https://codepen.io/shshaw/pen/XbxvNj</metadata>
<path stroke="#ffffff" d="M0 0h22M25 0h23M0 1h21M22 1h3M26 1h22M0 2h8M11 2h9M21 2h2M27 2h11M40 2h8M0 3h7M8 3h3M12 3h8M21 3h1M27 3h8M38 3h2M41 3h7M0 4h6M7 4h2M13 4h6M20 4h2M27 4h7M35 4h2M42 4h6M0 5h5M6 5h2M13 5h6M20 5h1M23 5h1M27 5h7M43 5h5M0 6h5M6 6h2M9 6h1M13 6h6M20 6h1M23 6h1M27 6h6M34 6h3M44 6h4M0 7h5M6 7h2M9 7h1M13 7h6M20 7h1M27 7h5M34 7h4M45 7h3M0 8h6M7 8h1M14 8h5M20 8h1M27 8h4M32 8h2M35 8h2M45 8h3M0 9h6M7 9h1M16 9h3M20 9h1M27 9h4M32 9h2M35 9h1M37 9h1M46 9h2M0 10h6M7 10h2M17 10h2M20 10h1M27 10h5M34 10h3M46 10h2M0 11h6M7 11h2M18 11h1M20 11h1M27 11h5M33 11h3M46 11h2M0 12h6M8 12h1M17 12h1M20 12h1M27 12h5M33 12h2M36 12h1M47 12h1M0 13h5M8 13h2M17 13h1M20 13h1M27 13h5M33 13h3M47 13h1M0 14h4M9 14h1M20 14h1M27 14h5M33 14h2M36 14h1M0 15h4M9 15h1M20 15h1M28 15h4M35 15h1M0 16h3M4 16h3M9 16h1M20 16h1M29 16h3M36 16h1M0 17h2M4 17h3M9 17h2M20 17h1M30 17h2M0 18h2M10 18h1M20 18h1M31 18h2M0 19h1M10 19h1M19 19h2M32 19h1M0 20h1M10 20h1M19 20h2M0 21h1M2 21h2M10 21h1M19 21h1M34 21h4M0 22h1M2 22h2M8 22h3M35 22h2M38 22h1M1 23h2M7 23h5M36 23h2M47 23h1M1 24h1M7 24h5M47 24h1M6 25h6M47 25h1M6 26h6M35 26h1M46 26h2M0 27h1M5 27h7M35 27h2M46 27h2M0 28h1M5 28h7M35 28h2M45 28h3M0 29h1M5 29h6M35 29h1M45 29h3M0 30h2M5 30h6M44 30h4M0 31h3M6 31h4M43 31h5M0 32h3M6 32h4M41 32h7M0 33h3M7 33h2M36 33h12M0 34h3M36 34h12M0 35h4M36 35h12M0 36h4M8 36h1M10 36h1M36 36h12M0 37h4M7 37h1M9 37h1M11 37h1M13 37h1M35 37h13M0 38h5M8 38h1M10 38h1M12 38h1M14 38h1M35 38h13M0 39h5M11 39h1M13 39h1M15 39h1M34 39h14M0 40h6M34 40h14M0 41h6M7 41h1M33 41h15M0 42h7M10 42h1M12 42h1M14 42h1M16 42h1M33 42h15M0 43h8M13 43h1M15 43h1M32 43h16M0 44h9M31 44h17M0 45h10M32 45h16M0 46h12M32 46h16M0 47h15M25 47h1M33 47h15" />
<path stroke="#7b5219" d="M22 0h1M20 2h1M38 2h2M11 3h1M26 3h1M35 3h1M12 4h1M19 4h1M34 4h1M40 4h1M24 5h1M34 5h1M42 5h1M10 6h1M24 6h1M5 7h1M10 7h1M23 7h1M26 7h1M32 7h1M44 7h1M9 8h2M13 8h1M26 8h1M31 8h1M34 8h1M15 9h1M19 9h1M26 9h1M31 9h1M34 9h1M45 9h1M33 10h1M6 11h1M6 12h1M14 12h1M16 12h1M5 13h1M16 13h1M4 14h1M6 14h1M8 14h1M47 14h1M34 15h1M43 15h1M7 16h1M33 16h1M35 16h1M40 16h1M2 17h1M25 17h1M27 17h1M32 17h1M34 17h1M36 17h1M3 18h1M5 18h1M19 18h1M26 18h1M28 18h1M33 18h1M35 18h1M37 18h1M46 18h1M1 19h1M4 19h1M6 19h1M25 19h1M27 19h1M36 19h1M44 19h1M9 20h1M18 20h1M26 20h1M28 20h1M35 20h1M41 20h1M4 21h1M9 21h1M18 21h1M1 22h1M5 22h1M46 22h1M0 23h1M43 23h1M35 24h1M37 24h1M4 25h1M36 25h1M45 25h1M36 26h2M42 26h1M3 29h1M3 34h1M34 35h1M33 36h1M4 37h2M30 37h1M7 38h1M27 38h1M10 39h1M21 39h1M32 39h1M28 40h1M9 41h1M22 41h1M30 41h1M27 42h1M11 43h1M21 43h1M27 44h1M23 45h1M28 46h1M27 47h3" />
<path stroke="#000000" d="M23 0h2M21 1h1M25 1h1M8 2h3M26 2h1M7 3h1M20 3h1M36 3h2M40 3h1M6 4h1M23 4h1M26 4h1M38 4h2M41 4h1M5 5h1M9 5h1M12 5h1M19 5h1M22 5h1M26 5h1M35 5h3M41 5h1M5 6h1M8 6h1M12 6h1M19 6h1M22 6h1M26 6h1M33 6h1M43 6h1M8 7h1M12 7h1M19 7h1M22 7h1M33 7h1M6 8h1M8 8h1M19 8h1M23 8h1M44 8h1M6 9h1M9 9h1M13 9h2M6 10h1M13 10h1M16 10h1M19 10h1M26 10h1M32 10h1M45 10h1M13 11h1M17 11h1M19 11h1M26 11h1M32 11h1M45 11h1M7 12h1M18 12h2M26 12h1M32 12h1M46 12h1M6 13h2M14 13h1M18 13h2M26 13h1M32 13h1M46 13h1M5 14h1M7 14h1M14 14h1M16 14h4M26 14h1M32 14h1M45 14h2M4 15h5M15 15h2M19 15h1M26 15h2M32 15h2M44 15h4M3 16h1M8 16h1M19 16h1M26 16h1M28 16h1M32 16h1M34 16h1M41 16h7M3 17h1M8 17h1M19 17h1M29 17h1M33 17h1M35 17h1M37 17h11M2 18h1M4 18h1M8 18h2M30 18h1M34 18h1M36 18h1M38 18h8M47 18h1M2 19h2M5 19h1M7 19h1M9 19h1M31 19h1M33 19h3M37 19h7M47 19h1M1 20h7M32 20h2M36 20h5M47 20h1M1 21h1M5 21h2M32 21h2M47 21h1M6 22h1M33 22h2M47 22h1M5 23h1M33 23h3M44 23h3M0 24h1M5 24h1M34 24h1M36 24h1M38 24h9M0 25h1M34 25h2M37 25h8M46 25h1M0 26h1M4 26h1M34 26h1M38 26h4M45 26h1M1 27h1M4 27h1M34 27h1M45 27h1M1 28h1M4 28h1M34 28h1M44 28h1M1 29h1M31 29h3M44 29h1M2 30h2M43 30h1M3 31h1M41 31h2M3 32h1M34 32h7M3 33h1M32 33h2M35 33h1M31 34h1M35 34h1M4 35h1M35 35h1M4 36h1M34 36h2M31 37h4M5 38h2M28 38h7M5 39h5M22 39h10M33 39h1M6 40h22M32 40h2M6 41h1M10 41h12M31 41h2M7 42h2M28 42h5M8 43h3M22 43h8M31 43h1M9 44h18M30 44h1M10 45h13M28 45h4M12 46h3M25 46h3M29 46h3M15 47h3M22 47h3M26 47h1M30 47h3" />
<path stroke="#ffff29" d="M23 2h3M22 3h4M9 4h3M22 4h1M24 4h2M37 4h1M8 5h1M10 5h2M21 5h1M25 5h1M38 5h3M11 6h1M21 6h1M25 6h1M37 6h6M11 7h1M21 7h1M24 7h2M38 7h6M11 8h2M21 8h2M24 8h2M37 8h7M8 9h1M10 9h3M21 9h5M36 9h1M38 9h7M9 10h4M14 10h2M21 10h5M37 10h8M9 11h4M14 11h3M21 11h5M36 11h9M9 12h5M15 12h1M21 12h5M35 12h1M37 12h9M10 13h4M15 13h1M21 13h5M36 13h10M10 14h4M15 14h1M21 14h5M35 14h1M37 14h8M10 15h5M17 15h2M21 15h5M36 15h7M10 16h9M21 16h5M27 16h1M37 16h3M7 17h1M11 17h8M21 17h4M26 17h1M28 17h1M6 18h2M11 18h8M21 18h5M27 18h1M29 18h1M8 19h1M11 19h8M21 19h4M26 19h1M28 19h3M45 19h2M8 20h1M11 20h7M21 20h5M27 20h1M29 20h3M34 20h1M42 20h5M7 21h2M11 21h7M20 21h12M38 21h9M4 22h1M7 22h1M11 22h22M37 22h1M39 22h7M3 23h2M6 23h1M12 23h21M38 23h5M2 24h3M6 24h1M12 24h22M1 25h3M5 25h1M12 25h22M1 26h3M5 26h1M12 26h22M43 26h2M2 27h2M12 27h22M37 27h8M2 28h2M12 28h22M37 28h7M2 29h1M4 29h1M11 29h20M34 29h1M36 29h8M4 30h1M11 30h32M4 31h2M10 31h31M4 32h2M10 32h24M4 33h3M9 33h23M34 33h1M4 34h27M32 34h3M5 35h29M5 36h3M9 36h1M11 36h22M6 37h1M8 37h1M10 37h1M12 37h1M14 37h16M9 38h1M11 38h1M13 38h1M15 38h12M12 39h1M14 39h1M16 39h5M29 40h3M8 41h1M23 41h7M9 42h1M11 42h1M13 42h1M15 42h1M17 42h10M12 43h1M14 43h1M16 43h5M30 43h1M28 44h2M24 45h4M15 46h10M18 47h4" />
</svg>