<svg xmlns="http://www.w3.org/2000/svg" viewBox="0 -0.5 48 48" shape-rendering="crispEdges">
<metadata>Made with Pixels to Svg https://codepen.io/shshaw/pen/XbxvNj</metadata>
<path stroke="#ffffff" d="M0 0h48M0 1h48M0 2h48M0 3h48M0 4h9M11 4h37M0 5h8M9 5h2M12 5h24M39 5h9M0 6h8M9 6h3M14 6h7M23 6h12M40 6h8M0 7h9M10 7h4M17 7h3M21 7h1M24 7h9M40 7h8M0 8h9M12 8h2M15 8h1M18 8h2M21 8h1M24 8h7M33 8h1M35 8h1M39 8h9M0 9h10M11 9h2M14 9h1M16 9h1M19 9h1M25 9h3M31 9h2M34 9h1M38 9h10M0 10h9M10 10h2M13 10h1M15 10h1M17 10h1M20 10h1M25 10h2M28 10h4M33 10h1M38 10h10M0 11h8M9 11h2M12 11h1M14 11h1M27 11h4M32 11h1M38 11h10M0 12h7M8 12h1M11 12h1M27 12h3M38 12h10M0 13h7M9 13h2M26 13h3M38 13h10M0 14h6M7 14h1M9 14h2M26 14h2M38 14h10M0 15h6M7 15h2M10 15h2M25 15h2M38 15h10M0 16h5M6 16h3M11 16h1M25 16h1M38 16h10M0 17h5M7 17h1M39 17h9M0 18h5M40 18h8M0 19h5M38 19h2M41 19h7M0 20h6M38 20h3M42 20h6M0 21h6M39 21h2M42 21h6M0 22h7M47 22h1M0 23h8M45 23h2M0 24h3M5 24h5M40 24h1M47 24h1M0 25h2M3 25h2M7 25h5M15 25h1M40 25h1M46 25h2M0 26h2M3 26h2M10 26h3M14 26h2M17 26h1M39 26h2M45 26h3M0 27h3M4 27h2M14 27h1M16 27h1M18 27h1M39 27h2M45 27h3M0 28h4M5 28h2M15 28h1M40 28h1M46 28h2M0 29h5M6 29h1M46 29h2M0 30h5M46 30h2M0 31h6M47 31h1M0 32h7M47 32h1M0 33h8M47 33h1M0 34h9M47 34h1M0 35h9M47 35h1M0 36h1M3 36h6M10 36h1M46 36h2M1 37h2M5 37h3M9 37h1M11 37h1M39 37h1M45 37h3M1 38h2M7 38h1M9 38h2M36 38h1M38 38h1M40 38h1M42 38h6M0 39h1M2 39h2M9 39h1M11 39h1M37 39h1M41 39h7M0 40h2M3 40h1M25 40h2M39 40h9M0 41h2M25 41h3M38 41h10M0 42h3M25 42h4M39 42h9M0 43h4M24 43h1M26 43h3M39 43h9M0 44h3M25 44h1M27 44h1M29 44h1M40 44h8M0 45h3M4 45h1M26 45h1M28 45h1M40 45h8M0 46h2M3 46h2M6 46h1M39 46h9M0 47h1M2 47h2M5 47h1M39 47h9" />
<path stroke="#4a84de" d="M9 4h2M8 5h1M21 6h1M36 6h3M20 7h1M22 7h1M35 7h4M10 8h2M14 8h1M16 8h1M22 8h1M34 8h1M36 8h2M13 9h1M15 9h1M17 9h1M21 9h3M33 9h1M35 9h2M12 10h1M14 10h1M16 10h1M18 10h1M22 10h2M32 10h1M34 10h2M11 11h1M13 11h1M15 11h5M22 11h3M31 11h1M33 11h3M12 12h9M22 12h4M30 12h6M12 13h9M22 13h3M29 13h6M36 13h1M11 14h1M14 14h7M22 14h3M28 14h6M36 14h1M12 15h2M15 15h5M21 15h1M23 15h1M27 15h6M36 15h1M9 16h1M12 16h3M16 16h3M20 16h4M26 16h5M36 16h1M6 17h1M8 17h2M11 17h5M18 17h5M24 17h6M36 17h1M6 18h5M12 18h6M19 18h4M24 18h6M37 18h2M6 19h6M13 19h6M20 19h3M24 19h5M35 19h3M7 20h5M13 20h6M20 20h4M25 20h4M34 20h4M41 20h1M7 21h6M14 21h5M20 21h4M25 21h4M34 21h5M8 22h6M15 22h4M20 22h5M26 22h4M33 22h9M46 22h1M10 23h4M15 23h3M19 23h6M26 23h4M33 23h7M41 23h1M43 23h2M3 24h1M12 24h2M16 24h2M19 24h7M27 24h4M32 24h7M42 24h4M18 25h9M29 25h3M33 25h6M42 25h1M44 25h1M2 26h1M5 26h2M16 26h1M18 26h11M30 26h2M33 26h6M43 26h1M6 27h4M15 27h1M17 27h1M19 27h11M32 27h7M43 27h1M7 28h6M16 28h23M43 28h2M5 29h1M7 29h8M16 29h29M6 30h39M7 31h39M8 32h7M16 32h30M9 33h5M15 33h21M38 33h7M10 34h4M15 34h20M39 34h7M11 35h2M14 35h20M40 35h6M1 36h1M12 36h20M42 36h3M0 37h1M8 37h1M10 37h1M12 37h15M31 37h1M3 38h2M11 38h14M27 38h4M4 39h3M10 39h1M12 39h12M25 39h9M4 40h5M10 40h14M27 40h9M3 41h7M11 41h12M24 41h1M28 41h9M4 42h5M10 42h13M24 42h1M29 42h9M5 43h17M23 43h1M25 43h1M29 43h9M5 44h3M9 44h13M23 44h2M26 44h1M28 44h1M30 44h9M3 45h1M6 45h1M8 45h13M22 45h4M27 45h1M29 45h2M37 45h2M5 46h1M7 46h14M22 46h7M31 46h6M4 47h1M6 47h16M23 47h4M29 47h9" />
<path stroke="#000000" d="M11 5h1M36 5h3M8 6h1M12 6h2M22 6h1M35 6h1M39 6h1M9 7h1M14 7h3M23 7h1M33 7h2M39 7h1M9 8h1M17 8h1M20 8h1M23 8h1M31 8h2M38 8h1M10 9h1M18 9h1M20 9h1M24 9h1M28 9h3M37 9h1M9 10h1M19 10h1M21 10h1M24 10h1M27 10h1M36 10h2M8 11h1M20 11h2M25 11h2M36 11h2M7 12h1M9 12h2M21 12h1M26 12h1M36 12h2M7 13h2M11 13h1M21 13h1M25 13h1M35 13h1M37 13h1M6 14h1M8 14h1M12 14h2M21 14h1M25 14h1M34 14h2M37 14h1M6 15h1M9 15h1M14 15h1M20 15h1M22 15h1M24 15h1M33 15h3M37 15h1M5 16h1M10 16h1M15 16h1M19 16h1M24 16h1M31 16h5M37 16h1M5 17h1M10 17h1M16 17h2M23 17h1M30 17h6M37 17h2M5 18h1M11 18h1M18 18h1M23 18h1M30 18h7M39 18h1M5 19h1M12 19h1M19 19h1M23 19h1M29 19h6M40 19h1M6 20h1M12 20h1M19 20h1M24 20h1M29 20h5M6 21h1M13 21h1M19 21h1M24 21h1M29 21h5M41 21h1M7 22h1M14 22h1M19 22h1M25 22h1M30 22h3M42 22h4M8 23h2M14 23h1M18 23h1M25 23h1M30 23h3M40 23h1M42 23h1M47 23h1M4 24h1M10 24h2M14 24h2M18 24h1M26 24h1M31 24h1M39 24h1M41 24h1M46 24h1M2 25h1M5 25h2M12 25h3M16 25h2M27 25h2M32 25h1M39 25h1M41 25h1M43 25h1M45 25h1M7 26h3M13 26h1M29 26h1M32 26h1M41 26h2M44 26h1M3 27h1M10 27h4M30 27h2M41 27h2M44 27h1M4 28h1M13 28h2M39 28h1M41 28h2M45 28h1M15 29h1M45 29h1M5 30h1M45 30h1M6 31h1M46 31h1M7 32h1M15 32h1M46 32h1M8 33h1M14 33h1M36 33h2M45 33h2M9 34h1M14 34h1M35 34h1M38 34h1M46 34h1M9 35h2M13 35h1M34 35h1M39 35h1M46 35h1M2 36h1M9 36h1M11 36h1M32 36h2M40 36h2M45 36h1M3 37h2M27 37h4M42 37h3M0 38h1M5 38h2M8 38h1M25 38h2M31 38h3M41 38h1M1 39h1M7 39h2M24 39h1M34 39h2M39 39h2M2 40h1M9 40h1M24 40h1M36 40h3M2 41h1M10 41h1M23 41h1M37 41h1M3 42h1M9 42h1M23 42h1M38 42h1M4 43h1M22 43h1M38 43h1M3 44h2M8 44h1M22 44h1M39 44h1M5 45h1M7 45h1M21 45h1M31 45h6M39 45h1M2 46h1M21 46h1M29 46h2M37 46h2M1 47h1M22 47h1M27 47h2M38 47h1" />
<path stroke="#de9c3a" d="M36 34h2M35 35h4M34 36h6M32 37h7M40 37h2M34 38h2M37 38h1M39 38h1M36 39h1M38 39h1" />
</svg>