<svg xmlns="http://www.w3.org/2000/svg" viewBox="0 -0.5 48 48" shape-rendering="crispEdges">
<metadata>Made with Pixels to Svg https://codepen.io/shshaw/pen/XbxvNj</metadata>
<path stroke="#ffffff" d="M0 0h48M0 1h48M0 2h48M0 3h48M0 4h48M0 5h7M9 5h39M0 6h6M7 6h1M9 6h39M0 7h5M6 7h1M9 7h39M0 8h4M5 8h1M8 8h14M28 8h20M0 9h4M5 9h1M8 9h9M32 9h16M0 10h3M4 10h1M8 10h7M34 10h14M0 11h3M4 11h1M8 11h5M15 11h1M17 11h1M35 11h13M0 12h2M3 12h1M8 12h4M16 12h1M18 12h1M27 12h2M36 12h12M0 13h2M3 13h1M8 13h3M15 13h1M17 13h1M28 13h3M36 13h12M0 14h2M3 14h1M8 14h2M16 14h1M18 14h1M30 14h1M38 14h10M0 15h1M2 15h1M9 15h1M20 15h1M39 15h9M0 16h1M2 16h1M19 16h1M21 16h1M27 16h2M40 16h8M0 17h1M2 17h1M10 17h2M20 17h1M22 17h1M27 17h2M41 17h7M0 18h1M2 18h1M9 18h4M19 18h1M21 18h1M23 18h1M25 18h1M41 18h7M0 19h1M10 19h2M20 19h1M22 19h1M24 19h1M26 19h1M38 19h1M42 19h6M0 20h2M23 20h1M25 20h1M27 20h1M29 20h1M35 20h1M37 20h1M39 20h1M42 20h6M0 21h2M17 21h2M24 21h1M26 21h1M28 21h1M30 21h1M36 21h1M38 21h1M40 21h1M43 21h5M0 22h2M16 22h4M27 22h1M29 22h1M35 22h1M37 22h1M39 22h1M43 22h5M0 23h3M16 23h5M28 23h1M30 23h1M36 23h1M38 23h1M43 23h5M0 24h3M17 24h4M43 24h5M0 25h4M18 25h2M43 25h5M0 26h4M27 26h2M43 26h5M0 27h3M5 27h1M7 27h1M26 27h4M42 27h6M0 28h2M3 28h1M6 28h1M26 28h4M44 28h4M0 29h1M5 29h1M7 29h1M27 29h2M46 29h2M0 30h1M6 30h1M47 30h1M5 32h6M2 33h2M7 33h3M37 33h5M0 34h3M36 34h4M43 34h2M47 34h1M0 35h3M35 35h4M44 35h2M47 35h1M0 36h3M31 36h1M36 36h1M45 36h3M0 37h3M30 37h1M32 37h1M34 37h1M45 37h3M0 38h4M31 38h1M33 38h1M35 38h1M45 38h3M0 39h6M45 39h3M0 40h9M44 40h4M0 41h9M42 41h6M0 42h9M39 42h9M0 43h10M37 43h11M0 44h10M37 44h11M0 45h11M37 45h11M0 46h12M36 46h12M0 47h13M34 47h14" />
<path stroke="#ff6300" d="M7 5h2M7 7h1M4 8h1M6 8h1M6 9h1M22 9h6M3 10h1M5 10h2M17 10h5M24 10h8M5 11h2M16 11h1M18 11h6M29 11h5M2 12h1M4 12h3M13 12h3M17 12h1M19 12h6M31 12h4M4 13h3M12 13h3M16 13h1M18 13h3M32 13h1M4 14h3M11 14h5M17 14h1M21 14h7M33 14h3M1 15h1M3 15h5M11 15h6M19 15h1M21 15h9M33 15h5M3 16h5M10 16h6M17 16h2M20 16h1M22 16h5M29 16h2M32 16h7M3 17h6M12 17h3M16 17h4M21 17h1M23 17h4M29 17h3M33 17h7M3 18h5M13 18h2M16 18h3M20 18h1M22 18h1M24 18h1M26 18h6M33 18h7M2 19h6M9 19h1M12 19h2M15 19h5M21 19h1M23 19h1M25 19h1M27 19h6M34 19h4M39 19h2M3 20h5M9 20h5M15 20h8M24 20h1M26 20h1M28 20h1M30 20h3M34 20h1M36 20h1M38 20h1M40 20h1M3 21h5M9 21h4M14 21h3M19 21h5M25 21h1M27 21h1M29 21h1M31 21h3M35 21h1M37 21h1M39 21h1M41 21h1M3 22h5M9 22h4M14 22h2M20 22h7M28 22h1M30 22h4M36 22h1M38 22h1M40 22h2M4 23h4M9 23h4M14 23h2M21 23h7M29 23h1M31 23h3M35 23h1M37 23h1M39 23h3M4 24h5M10 24h3M14 24h3M21 24h13M35 24h7M6 25h1M10 25h3M14 25h4M20 25h14M35 25h7M7 26h3M11 26h3M15 26h12M29 26h5M35 26h7M6 27h1M8 27h2M11 27h3M15 27h11M30 27h3M34 27h7M4 28h2M7 28h4M13 28h1M15 28h11M30 28h3M34 28h7M2 29h3M6 29h1M8 29h4M16 29h11M29 29h3M33 29h7M41 29h3M2 30h4M7 30h7M17 30h14M32 30h8M41 30h5M1 31h4M11 31h5M18 31h11M31 31h8M40 31h2M43 31h1M46 31h1M1 32h1M14 32h4M21 32h5M29 32h8M42 32h4M26 33h3M31 33h4M45 33h2M23 34h8M25 35h9M27 36h4M32 36h3M28 37h2M31 37h1M33 37h1M35 37h1M29 38h2M32 38h1M34 38h1M30 39h7M31 40h6M32 41h5M33 42h4M33 43h3M34 44h2M35 45h1" />
<path stroke="#000000" d="M6 6h1M8 6h1M5 7h1M8 7h1M7 8h1M22 8h6M4 9h1M7 9h1M17 9h5M28 9h4M7 10h1M15 10h2M22 10h2M32 10h2M3 11h1M7 11h1M13 11h2M24 11h5M34 11h1M7 12h1M12 12h1M25 12h2M29 12h2M35 12h1M2 13h1M7 13h1M11 13h1M21 13h7M31 13h1M33 13h3M2 14h1M7 14h1M10 14h1M19 14h2M28 14h2M31 14h2M36 14h2M8 15h1M10 15h1M17 15h2M30 15h3M38 15h1M1 16h1M8 16h2M16 16h1M31 16h1M39 16h1M1 17h1M9 17h1M15 17h1M32 17h1M40 17h1M1 18h1M8 18h1M15 18h1M32 18h1M40 18h1M1 19h1M8 19h1M14 19h1M33 19h1M41 19h1M2 20h1M8 20h1M14 20h1M33 20h1M41 20h1M2 21h1M8 21h1M13 21h1M34 21h1M42 21h1M2 22h1M8 22h1M13 22h1M34 22h1M42 22h1M3 23h1M8 23h1M13 23h1M34 23h1M42 23h1M3 24h1M9 24h1M13 24h1M34 24h1M42 24h1M4 25h2M7 25h3M13 25h1M34 25h1M42 25h1M4 26h3M10 26h1M14 26h1M34 26h1M42 26h1M3 27h2M10 27h1M14 27h1M33 27h1M41 27h1M2 28h1M11 28h2M14 28h1M33 28h1M41 28h3M1 29h1M12 29h4M32 29h1M40 29h1M44 29h2M1 30h1M14 30h3M31 30h1M40 30h1M46 30h1M0 31h1M5 31h6M16 31h2M29 31h2M39 31h1M47 31h1M0 32h1M2 32h3M11 32h3M18 32h3M26 32h3M37 32h5M47 32h1M0 33h2M4 33h3M10 33h1M14 33h12M29 33h2M35 33h2M42 33h3M47 33h1M3 34h1M7 34h4M15 34h7M31 34h5M40 34h3M45 34h2M3 35h1M9 35h1M16 35h8M34 35h1M39 35h1M43 35h1M46 35h1M3 36h2M18 36h8M35 36h1M37 36h2M44 36h1M3 37h4M22 37h6M36 37h2M43 37h2M4 38h6M21 38h1M23 38h1M25 38h1M27 38h2M36 38h3M42 38h3M6 39h4M22 39h1M24 39h1M26 39h1M28 39h2M37 39h8M9 40h1M23 40h1M25 40h1M27 40h1M29 40h2M37 40h7M9 41h1M24 41h1M26 41h1M28 41h1M30 41h2M37 41h5M9 42h1M23 42h1M25 42h1M27 42h1M29 42h1M31 42h2M37 42h2M10 43h1M24 43h1M26 43h1M28 43h1M30 43h3M36 43h1M10 44h1M23 44h1M25 44h1M27 44h7M36 44h1M11 45h1M22 45h13M36 45h1M12 46h1M20 46h16M13 47h2M18 47h16" />
<path stroke="#424a6b" d="M42 31h1M44 31h2M46 32h1M11 33h3M4 34h3M11 34h4M22 34h1M4 35h5M10 35h6M24 35h1M40 35h3M5 36h13M26 36h1M39 36h5M7 37h15M38 37h5M10 38h11M22 38h1M24 38h1M26 38h1M39 38h3M10 39h12M23 39h1M25 39h1M27 39h1M10 40h13M24 40h1M26 40h1M28 40h1M10 41h14M25 41h1M27 41h1M29 41h1M10 42h13M24 42h1M26 42h1M28 42h1M30 42h1M11 43h13M25 43h1M27 43h1M29 43h1M11 44h12M24 44h1M26 44h1M12 45h10M13 46h7M15 47h3" />
</svg>