<svg xmlns="http://www.w3.org/2000/svg" viewBox="0 -0.5 48 48" shape-rendering="crispEdges">
<metadata>Made with Pixels to Svg https://codepen.io/shshaw/pen/XbxvNj</metadata>
<path stroke="#ffffff" d="M0 0h48M0 1h48M0 2h48M0 3h48M0 4h48M0 5h48M0 6h48M0 7h48M0 8h48M0 9h48M0 10h26M33 10h15M0 11h23M35 11h13M0 12h21M26 12h1M28 12h1M36 12h12M0 13h20M23 13h1M25 13h1M27 13h3M37 13h11M0 14h18M20 14h1M22 14h1M24 14h1M26 14h1M28 14h1M37 14h2M43 14h5M0 15h17M19 15h1M21 15h1M23 15h1M25 15h1M45 15h3M0 16h16M18 16h3M22 16h1M24 16h1M46 16h2M0 17h15M17 17h1M19 17h1M21 17h1M23 17h1M27 17h3M47 17h1M0 18h14M16 18h1M18 18h1M20 18h1M26 18h3M39 18h3M47 18h1M0 19h14M17 19h1M19 19h1M21 19h1M34 19h2M39 19h4M0 20h13M16 20h1M18 20h1M33 20h3M40 20h3M0 21h13M17 21h2M33 21h2M0 22h13M16 22h2M0 23h10M38 23h2M0 24h7M23 24h3M37 24h3M0 25h5M20 25h8M37 25h2M0 26h4M6 26h1M9 26h3M18 26h3M26 26h3M47 26h1M0 27h3M5 27h1M7 27h4M17 27h2M27 27h2M47 27h1M0 28h2M4 28h1M6 28h1M8 28h1M17 28h1M27 28h3M47 28h1M0 29h2M3 29h1M5 29h1M16 29h1M27 29h3M46 29h2M0 30h1M2 30h1M4 30h1M16 30h1M26 30h4M46 30h2M0 31h1M3 31h3M16 31h1M25 31h4M47 31h1M2 32h3M16 32h2M23 32h5M47 32h1M3 33h1M8 33h2M17 33h10M28 33h1M40 33h2M47 33h1M2 34h1M4 34h1M7 34h2M17 34h9M27 34h1M29 34h1M34 34h2M39 34h3M47 34h1M3 35h1M5 35h1M20 35h5M26 35h1M28 35h1M33 35h2M39 35h2M46 35h2M4 36h1M22 36h2M27 36h1M29 36h1M46 36h2M3 37h1M5 37h1M7 37h1M26 37h1M28 37h1M45 37h3M0 38h1M4 38h1M6 38h1M25 38h1M27 38h1M45 38h3M0 39h1M5 39h1M13 39h3M26 39h1M28 39h1M44 39h4M0 40h2M6 40h1M10 40h1M12 40h3M25 40h1M27 40h1M43 40h5M0 41h2M9 41h1M26 41h1M33 41h1M42 41h6M0 42h3M8 42h1M10 42h1M12 42h1M31 42h4M41 42h7M0 43h4M7 43h1M9 43h1M11 43h1M13 43h1M18 43h2M30 43h4M40 43h8M0 44h5M8 44h1M10 44h1M17 44h3M31 44h1M40 44h8M0 45h5M7 45h1M9 45h1M11 45h1M17 45h2M40 45h8M0 46h5M8 46h1M10 46h1M42 46h6M0 47h6M43 47h5" />
<path stroke="#424a6b" d="M26 10h1M23 11h1M21 12h1M39 14h1M47 19h1M13 20h1M10 23h1M7 24h1M5 25h1M21 26h1M25 26h1M19 27h1M2 28h1M18 28h1M17 29h1M26 29h1M1 30h1M17 31h1M46 31h1M0 32h1M18 32h1M22 32h1M23 37h1M38 45h1M5 46h1M37 46h1M39 46h1M36 47h1M38 47h4" />
<path stroke="#000000" d="M27 10h6M24 11h2M33 11h2M22 12h1M35 12h1M20 13h1M36 13h1M18 14h2M36 14h1M40 14h3M17 15h1M36 15h3M43 15h2M16 16h1M35 16h2M45 16h1M15 17h1M33 17h2M46 17h1M14 18h1M32 18h1M46 18h1M14 19h1M31 19h1M30 20h1M47 20h1M13 21h1M29 21h1M47 21h1M13 22h1M29 22h1M47 22h1M11 23h3M23 23h3M28 23h1M47 23h1M8 24h2M13 24h2M20 24h3M26 24h3M47 24h1M6 25h1M14 25h1M18 25h2M28 25h1M47 25h1M4 26h1M15 26h1M17 26h1M22 26h3M29 26h1M46 26h1M3 27h1M16 27h1M20 27h7M29 27h1M46 27h1M16 28h1M19 28h4M26 28h1M30 28h1M36 28h6M46 28h1M2 29h1M15 29h1M18 29h3M30 29h1M33 29h3M42 29h4M15 30h1M17 30h3M25 30h1M30 30h3M45 30h1M1 31h1M15 31h1M18 31h2M23 31h2M29 31h2M15 32h1M19 32h3M28 32h1M46 32h1M0 33h1M16 33h1M27 33h1M46 33h1M0 34h1M16 34h1M26 34h1M46 34h1M0 35h1M15 35h5M25 35h1M45 35h1M0 36h1M12 36h3M20 36h2M24 36h1M45 36h1M0 37h1M10 37h2M22 37h1M24 37h1M44 37h1M1 38h1M9 38h1M23 38h1M44 38h1M1 39h1M8 39h1M23 39h1M43 39h1M2 40h1M7 40h1M23 40h1M42 40h1M2 41h1M6 41h1M23 41h1M41 41h1M3 42h1M5 42h2M24 42h1M40 42h1M4 43h2M24 43h1M39 43h1M5 44h1M24 44h1M38 44h2M5 45h1M24 45h2M37 45h1M39 45h1M24 46h2M35 46h2M38 46h1M40 46h2M6 47h1M23 47h4M32 47h4M37 47h1M42 47h1" />
<path stroke="#ff3119" d="M26 11h7M23 12h3M27 12h1M29 12h6M21 13h2M24 13h1M26 13h1M30 13h6M21 14h1M23 14h1M25 14h1M27 14h1M29 14h7M18 15h1M20 15h1M22 15h1M24 15h1M26 15h10M39 15h4M17 16h1M21 16h1M23 16h1M25 16h10M37 16h8M16 17h1M18 17h1M20 17h1M22 17h1M24 17h3M30 17h3M35 17h11M15 18h1M17 18h1M19 18h1M21 18h5M29 18h3M33 18h6M42 18h4M15 19h2M18 19h1M20 19h1M22 19h9M32 19h2M36 19h3M43 19h4M14 20h2M17 20h1M19 20h11M31 20h2M36 20h4M43 20h4M14 21h3M19 21h10M30 21h3M35 21h12M14 22h2M18 22h11M30 22h17M14 23h9M26 23h2M29 23h9M40 23h7M10 24h3M15 24h5M29 24h8M40 24h7M7 25h7M15 25h3M29 25h8M39 25h8M5 26h1M7 26h2M12 26h3M16 26h1M30 26h16M4 27h1M6 27h1M11 27h5M30 27h16M3 28h1M5 28h1M7 28h1M9 28h7M23 28h3M31 28h5M42 28h4M4 29h1M6 29h9M21 29h5M31 29h2M36 29h6M3 30h1M5 30h10M20 30h5M33 30h12M2 31h1M6 31h9M20 31h3M31 31h15M1 32h1M5 32h10M29 32h17M1 33h2M4 33h4M10 33h6M29 33h11M42 33h4M1 34h1M3 34h1M5 34h2M9 34h7M28 34h1M30 34h4M36 34h3M42 34h4M1 35h2M4 35h1M6 35h9M27 35h1M29 35h4M35 35h4M41 35h4M1 36h3M5 36h7M15 36h5M25 36h2M28 36h1M30 36h15M1 37h2M4 37h1M6 37h1M8 37h2M12 37h10M25 37h1M27 37h1M29 37h15M2 38h2M5 38h1M7 38h2M10 38h13M24 38h1M26 38h1M28 38h16M2 39h3M6 39h2M9 39h4M16 39h7M24 39h2M27 39h1M29 39h14M3 40h3M8 40h2M11 40h1M15 40h8M24 40h1M26 40h1M28 40h14M3 41h3M7 41h2M10 41h13M24 41h2M27 41h6M34 41h7M4 42h1M7 42h1M9 42h1M11 42h1M13 42h11M25 42h6M35 42h5M6 43h1M8 43h1M10 43h1M12 43h1M14 43h4M20 43h4M25 43h5M34 43h5M6 44h2M9 44h1M11 44h6M20 44h4M25 44h6M32 44h6M6 45h1M8 45h1M10 45h1M12 45h5M19 45h5M26 45h11M6 46h2M9 46h1M11 46h13M26 46h9M7 47h16M27 47h5" />
</svg>