<svg xmlns="http://www.w3.org/2000/svg" viewBox="0 -0.5 48 48" shape-rendering="crispEdges">
<metadata>Made with Pixels to Svg https://codepen.io/shshaw/pen/XbxvNj</metadata>
<path stroke="#ffffff" d="M0 0h48M0 1h48M0 2h15M18 2h30M0 3h14M15 3h2M20 3h28M0 4h14M15 4h2M22 4h26M0 5h14M25 5h23M0 6h15M27 6h21M0 7h16M29 7h19M0 8h17M31 8h17M0 9h16M32 9h16M0 10h15M33 10h6M40 10h8M0 11h15M33 11h6M41 11h7M0 12h14M34 12h6M42 12h1M44 12h4M0 13h14M34 13h6M42 13h1M44 13h4M0 14h13M33 14h7M44 14h4M0 15h13M33 15h7M44 15h4M0 16h13M33 16h7M44 16h4M0 17h13M35 17h4M44 17h4M0 18h13M36 18h3M44 18h4M0 19h13M36 19h2M45 19h1M47 19h1M0 20h14M37 20h1M45 20h1M47 20h1M0 21h14M37 21h1M47 21h1M0 22h14M37 22h2M47 22h1M0 23h13M37 23h2M47 23h1M0 24h13M36 24h2M47 24h1M0 25h12M36 25h1M47 25h1M0 26h11M35 26h1M0 27h10M25 27h2M33 27h3M0 28h9M25 28h3M32 28h3M0 29h8M27 29h8M0 30h7M28 30h7M0 31h6M29 31h6M47 31h1M0 32h5M29 32h7M47 32h1M0 33h4M30 33h6M46 33h2M0 34h3M30 34h7M45 34h3M0 35h3M31 35h8M44 35h4M0 36h2M31 36h8M43 36h5M0 37h2M32 37h6M43 37h5M0 38h1M33 38h5M43 38h5M0 39h1M34 39h3M42 39h6M0 40h1M25 40h1M34 40h2M42 40h6M23 41h1M25 41h1M42 41h6M25 42h2M41 42h7M23 43h1M25 43h2M41 43h7M22 44h1M24 44h3M40 44h8M21 45h1M40 45h8M0 46h1M39 46h9M0 47h1M38 47h10" />
<path stroke="#94193a" d="M15 2h1M14 3h1M24 5h1M16 6h2M18 7h2M18 8h3M18 9h3M15 10h1M18 10h2M40 12h1M40 13h2M43 13h1M13 14h1M30 14h2M41 14h1M43 14h1M29 15h3M41 15h3M28 16h4M40 16h4M28 17h5M40 17h3M23 18h1M25 18h1M27 18h6M34 18h1M39 18h4M16 19h4M22 19h1M24 19h1M26 19h9M39 19h4M15 20h7M23 20h13M39 20h4M15 21h21M39 21h3M46 21h1M15 22h21M40 22h2M46 22h1M14 23h22M39 23h3M46 23h1M14 24h1M16 24h1M18 24h10M30 24h5M39 24h2M45 24h2M15 25h1M17 25h13M32 25h3M38 25h2M45 25h2M16 26h1M18 26h7M27 26h4M37 26h1M44 26h3M15 27h1M17 27h7M28 27h4M36 27h2M42 27h6M16 28h7M36 28h1M41 28h7M15 29h1M17 29h8M35 29h2M40 29h8M14 30h1M16 30h7M35 30h2M40 30h1M42 30h5M13 31h1M15 31h1M17 31h5M28 31h1M36 31h1M41 31h1M43 31h4M12 32h1M14 32h1M16 32h6M36 32h2M40 32h1M42 32h4M13 33h1M15 33h7M29 33h1M37 33h3M43 33h3M3 34h1M12 34h1M14 34h9M38 34h3M43 34h1M11 35h1M13 35h11M2 36h1M10 36h1M12 36h11M24 36h1M9 37h1M11 37h1M13 37h11M25 37h2M29 37h2M41 37h1M1 38h1M10 38h1M12 38h12M26 38h6M41 38h1M9 39h1M11 39h13M26 39h7M40 39h1M8 40h1M10 40h1M12 40h11M27 40h6M40 40h1M0 41h1M9 41h1M11 41h12M27 41h2M30 41h1M32 41h2M39 41h2M0 42h1M8 42h1M10 42h12M29 42h1M31 42h1M38 42h2M7 43h1M9 43h13M28 43h1M30 43h1M37 43h3M8 44h1M10 44h1M12 44h9M36 44h3M7 45h1M9 45h3M14 45h6M34 45h5M8 46h1M10 46h4M30 46h8M9 47h9M26 47h11" />
<path stroke="#000000" d="M16 2h2M18 3h2M14 4h1M20 4h2M14 5h1M22 5h2M15 6h1M25 6h2M16 7h2M27 7h2M17 8h1M29 8h2M16 9h2M31 9h1M32 10h1M15 11h1M32 11h1M14 12h1M33 12h1M14 13h1M33 13h1M32 14h1M13 15h1M32 15h1M13 16h1M32 16h1M13 17h1M33 17h2M13 18h1M33 18h1M35 18h1M13 19h1M35 19h1M14 20h1M36 20h1M14 21h1M36 21h1M14 22h1M36 22h1M13 23h1M36 23h1M13 24h1M28 24h2M35 24h1M12 25h1M30 25h2M35 25h1M11 26h1M25 26h2M31 26h4M10 27h1M24 27h1M27 27h1M32 27h1M9 28h1M23 28h2M28 28h4M8 29h1M25 29h2M7 30h1M27 30h1M41 30h1M6 31h1M40 31h1M42 31h1M5 32h1M28 32h1M41 32h1M4 33h1M40 33h1M42 33h1M29 34h1M42 34h1M3 35h1M30 35h1M39 35h1M42 35h1M23 36h1M30 36h1M39 36h1M42 36h1M2 37h1M24 37h1M31 37h1M38 37h1M42 37h1M24 38h2M32 38h1M38 38h1M42 38h1M1 39h1M24 39h2M33 39h1M37 39h1M41 39h1M1 40h1M24 40h1M26 40h1M33 40h1M36 40h1M41 40h1M24 41h1M26 41h1M29 41h1M31 41h1M34 41h2M41 41h1M24 42h1M27 42h2M30 42h1M32 42h3M40 42h1M0 43h1M24 43h1M27 43h1M29 43h1M31 43h2M40 43h1M0 44h1M11 44h1M23 44h1M27 44h4M39 44h1M0 45h1M12 45h2M23 45h5M39 45h1M1 46h1M14 46h10M38 46h1M1 47h1M37 47h1" />
<path stroke="#f74231" d="M17 3h1M17 4h3M15 5h7M18 6h7M20 7h7M21 8h8M21 9h10M16 10h2M20 10h12M39 10h1M16 11h16M39 11h2M15 12h18M41 12h1M43 12h1M15 13h18M14 14h16M40 14h1M42 14h1M14 15h15M40 15h1M14 16h14M14 17h14M39 17h1M43 17h1M14 18h9M24 18h1M26 18h1M43 18h1M14 19h2M20 19h2M23 19h1M25 19h1M38 19h1M43 19h2M46 19h1M22 20h1M38 20h1M43 20h2M46 20h1M38 21h1M42 21h4M39 22h1M42 22h4M42 23h4M15 24h1M17 24h1M38 24h1M41 24h4M13 25h2M16 25h1M37 25h1M40 25h5M12 26h4M17 26h1M36 26h1M38 26h6M47 26h1M11 27h4M16 27h1M38 27h4M10 28h6M35 28h1M37 28h4M9 29h6M16 29h1M37 29h3M8 30h6M15 30h1M23 30h4M37 30h3M47 30h1M7 31h6M14 31h1M16 31h1M22 31h6M35 31h1M37 31h3M6 32h6M13 32h1M15 32h1M22 32h6M38 32h2M46 32h1M5 33h8M14 33h1M22 33h7M36 33h1M41 33h1M4 34h8M13 34h1M23 34h6M37 34h1M41 34h1M44 34h1M4 35h7M12 35h1M24 35h6M40 35h2M43 35h1M3 36h7M11 36h1M25 36h5M40 36h2M3 37h6M10 37h1M12 37h1M27 37h2M39 37h2M2 38h8M11 38h1M39 38h2M2 39h7M10 39h1M38 39h2M2 40h6M9 40h1M11 40h1M23 40h1M37 40h3M1 41h8M10 41h1M36 41h3M1 42h7M9 42h1M22 42h2M35 42h3M1 43h6M8 43h1M22 43h1M33 43h4M1 44h7M9 44h1M21 44h1M31 44h5M1 45h6M8 45h1M20 45h1M22 45h1M28 45h6M2 46h6M9 46h1M24 46h6M2 47h7M18 47h8" />
</svg>