<svg xmlns="http://www.w3.org/2000/svg" viewBox="0 -0.5 48 48" shape-rendering="crispEdges">
<metadata>Made with Pixels to Svg https://codepen.io/shshaw/pen/XbxvNj</metadata>
<path stroke="#ffffff" d="M0 0h48M0 1h48M0 2h48M0 3h48M0 4h48M0 5h48M0 6h43M46 6h2M0 7h7M10 7h31M46 7h2M0 8h7M12 8h14M27 8h12M46 8h2M0 9h7M14 9h12M28 9h9M45 9h3M0 10h7M16 10h2M21 10h5M29 10h6M45 10h3M0 11h8M17 11h1M23 11h2M29 11h4M44 11h4M0 12h8M30 12h1M44 12h4M0 13h8M43 13h5M0 14h8M43 14h5M0 15h9M43 15h5M0 16h9M42 16h6M0 17h9M42 17h6M0 18h10M42 18h6M0 19h8M41 19h7M0 20h6M41 20h7M0 21h4M42 21h6M0 22h5M42 22h6M0 23h7M43 23h5M0 24h8M44 24h4M0 25h7M44 25h4M0 26h5M45 26h3M0 27h3M45 27h3M0 28h2M46 28h2M0 29h3M46 29h2M0 30h5M46 30h2M0 31h5M39 31h1M47 31h1M0 32h4M39 32h2M47 32h1M0 33h3M38 33h4M47 33h1M0 34h1M38 34h4M43 34h2M47 34h1M39 35h3M43 35h2M46 35h2M0 36h1M39 36h3M43 36h2M46 36h2M0 37h4M40 37h2M43 37h2M46 37h2M0 38h4M40 38h2M43 38h2M46 38h2M0 39h3M41 39h1M43 39h2M46 39h2M0 40h3M43 40h2M46 40h2M0 41h3M44 41h1M46 41h2M0 42h3M46 42h2M0 43h3M46 43h2M0 44h3M46 44h2M0 45h2M47 45h1M0 46h2M47 46h1M0 47h3" />
<path stroke="#000000" d="M43 6h3M8 7h2M41 7h2M44 7h2M7 8h1M10 8h1M26 8h1M39 8h2M43 8h2M7 9h2M11 9h2M26 9h2M37 9h2M42 9h3M8 10h2M13 10h2M18 10h2M26 10h1M28 10h1M35 10h2M41 10h3M8 11h2M15 11h1M19 11h3M26 11h1M28 11h1M33 11h2M40 11h4M8 12h3M15 12h3M20 12h4M25 12h2M29 12h1M31 12h2M39 12h4M8 13h4M14 13h1M16 13h2M20 13h11M37 13h6M9 14h5M15 14h1M17 14h1M21 14h8M36 14h7M9 15h4M14 15h1M16 15h3M21 15h6M28 15h1M30 15h1M32 15h1M34 15h8M9 16h5M15 16h4M22 16h4M27 16h1M29 16h1M31 16h1M33 16h9M10 17h9M21 17h6M28 17h1M30 17h12M10 18h31M8 19h5M18 19h23M6 20h2M17 20h24M4 21h1M13 21h27M41 21h1M5 22h37M7 23h36M8 24h33M42 24h1M7 25h1M9 25h1M11 25h29M43 25h1M5 26h2M8 26h1M10 26h30M3 27h2M12 27h8M21 27h1M23 27h18M44 27h1M2 28h1M10 28h9M20 28h1M22 28h1M24 28h17M44 28h1M3 29h3M8 29h10M23 29h19M44 29h1M5 30h12M20 30h19M40 30h3M45 30h1M5 31h11M18 31h21M40 31h6M4 32h2M7 32h1M9 32h29M41 32h6M3 33h1M8 33h1M10 33h28M43 33h4M1 34h2M11 34h27M45 34h1M0 35h1M9 35h29M1 36h38M4 37h1M6 37h10M17 37h1M19 37h1M21 37h18M4 38h2M7 38h8M16 38h1M18 38h1M20 38h1M22 38h18M42 38h1M4 39h1M6 39h1M8 39h6M19 39h1M21 39h20M42 39h1M3 40h1M5 40h1M7 40h6M16 40h22M40 40h3M45 40h1M4 41h1M6 41h2M9 41h3M14 41h23M42 41h2M45 41h1M3 42h1M5 42h2M8 42h1M10 42h29M43 42h3M3 43h3M9 43h1M11 43h19M31 43h7M39 43h1M44 43h1M3 44h1M8 44h22M31 44h6M38 44h1M40 44h1M45 44h1M2 45h1M6 45h25M32 45h6M39 45h1M41 45h1M46 45h1M2 46h1M4 46h27M32 46h7M40 46h1M46 46h1M3 47h29M33 47h10M47 47h1" />
<path stroke="#4a0084" d="M7 7h1M43 7h1M8 8h2M11 8h1M41 8h2M45 8h1M9 9h2M13 9h1M39 9h3M7 10h1M10 10h3M15 10h1M20 10h1M27 10h1M37 10h4M44 10h1M10 11h5M16 11h1M18 11h1M22 11h1M25 11h1M27 11h1M35 11h5M11 12h4M18 12h2M24 12h1M27 12h2M33 12h6M43 12h1M12 13h2M15 13h1M18 13h2M31 13h6M8 14h1M14 14h1M16 14h1M18 14h3M29 14h7M13 15h1M15 15h1M19 15h2M27 15h1M29 15h1M31 15h1M33 15h1M42 15h1M14 16h1M19 16h3M26 16h1M28 16h1M30 16h1M32 16h1M9 17h1M19 17h2M27 17h1M29 17h1M41 18h1M13 19h5M8 20h9M5 21h8M40 21h1M43 24h1M8 25h1M10 25h1M40 25h1M7 26h1M9 26h1M44 26h1M5 27h7M20 27h1M22 27h1M3 28h7M19 28h1M21 28h1M23 28h1M45 28h1M6 29h2M18 29h5M45 29h1M17 30h3M39 30h1M16 31h2M46 31h1M6 32h1M8 32h1M38 32h1M4 33h4M9 33h1M42 33h1M3 34h8M42 34h1M46 34h1M1 35h8M38 35h1M42 35h1M45 35h1M42 36h1M45 36h1M5 37h1M16 37h1M18 37h1M20 37h1M39 37h1M42 37h1M45 37h1M6 38h1M15 38h1M17 38h1M19 38h1M21 38h1M45 38h1M3 39h1M5 39h1M7 39h1M14 39h5M20 39h1M45 39h1M4 40h1M6 40h1M13 40h3M38 40h2M3 41h1M5 41h1M8 41h1M12 41h2M37 41h5M4 42h1M7 42h1M9 42h1M39 42h4M6 43h3M10 43h1M30 43h1M38 43h1M40 43h4M45 43h1M4 44h4M30 44h1M37 44h1M39 44h1M41 44h4M3 45h3M31 45h1M38 45h1M40 45h1M42 45h4M3 46h1M31 46h1M39 46h1M41 46h5M32 47h1M43 47h4" />
<path stroke="#ff2910" d="M41 24h1M41 25h2M40 26h4M41 27h3M41 28h3M42 29h2M43 30h2" />
</svg>