<svg xmlns="http://www.w3.org/2000/svg" viewBox="0 -0.5 80 80" shape-rendering="crispEdges">
<metadata>Made with Pixels to Svg https://codepen.io/shshaw/pen/XbxvNj</metadata>
<path stroke="#7b7b63" d="M40 29h4M49 29h4M39 30h1M44 30h1M52 30h2M38 31h1M54 31h1M36 41h2M55 41h2M35 42h2M56 42h2M23 45h11M21 46h2M34 46h2M60 50h3M62 51h4M65 52h3M68 53h2M70 54h1M10 55h1M71 55h1M73 56h3M76 57h2M77 58h2" />
<path stroke="#e6dea5" d="M40 30h4M49 30h3M39 31h6M48 31h6M39 32h6M48 32h6M40 33h4M49 33h4M37 42h2M54 42h2M36 43h3M55 43h2M23 46h1M33 46h1M22 47h13M53 47h1M23 48h11M53 48h2M53 49h3M54 50h2M54 51h1M74 57h2M75 58h2M76 59h2" />
<path stroke="#101010" d="M48 30h1M47 31h1M38 32h1M46 32h1M54 32h1M37 33h1M46 33h1M55 33h1M37 34h1M46 34h1M55 34h1M37 35h1M55 35h1M37 36h1M45 36h1M55 36h1M37 37h1M45 37h1M55 37h1M37 38h1M45 38h1M55 38h1M38 39h1M45 39h1M54 39h1M38 40h1M45 40h1M54 40h1M38 41h1M45 41h1M39 42h1M46 42h1M52 42h1M35 43h1M39 43h1M46 43h1M51 43h1M57 43h1M35 44h2M40 44h1M46 44h1M56 44h2M36 45h3M55 45h2M25 46h7M38 46h1M53 46h2M20 47h1M35 47h1M37 47h1M54 47h2M20 48h1M36 48h1M55 48h2M19 49h2M36 49h2M56 49h1M19 50h1M37 50h1M56 50h4M19 51h1M57 51h1M19 52h1M37 52h1M20 53h2M35 53h2M23 54h11M47 54h2M9 55h1M49 55h2M8 56h1M51 56h1M72 56h1M7 57h1M52 57h1M73 57h1M6 58h1M74 58h1M5 59h1M75 59h1M78 59h1M4 60h1M75 60h1M78 60h1M1 61h1M4 61h1M76 61h1M79 61h1M1 62h1M4 62h1M76 62h1M79 62h1M1 63h1M76 63h2M79 63h1M77 64h1M79 64h1M2 65h1M57 65h1M77 65h1M79 65h1M1 66h2M57 66h2M77 66h3M1 67h1M3 67h1M58 67h1M78 67h1M0 68h2M4 68h2M58 68h2M78 68h1M0 69h1M6 69h3M59 69h1M78 69h1M0 70h1M59 70h1M78 70h1M0 71h1M59 71h1M78 71h1" />
<path stroke="#4a4231" d="M45 31h1M45 32h1M47 32h1M38 33h1M54 33h1M45 35h2M46 41h1M53 41h2M53 42h1M24 46h1M32 46h1M21 47h1M17 51h2M37 51h4M14 52h3M40 52h5M58 52h1M12 53h2M22 53h1M34 53h1M44 53h3M58 53h1M10 54h2M22 54h1M34 54h1M58 54h1M53 58h1M1 60h2M79 60h1M3 61h1M5 63h1M56 63h1M1 64h1M6 64h2M57 64h1M8 65h3M10 68h1M9 69h1" />
<path stroke="#c5b584" d="M39 33h1M44 33h2M47 33h2M53 33h1M38 34h8M47 34h8M38 35h7M47 35h8M38 36h7M46 36h9M38 37h7M46 37h9M38 38h7M46 38h9M39 39h6M46 39h8M39 40h6M46 40h8M39 41h6M47 41h6M40 42h6M47 42h5M40 43h6M47 43h4M52 43h3M37 44h3M41 44h5M47 44h9M39 45h16M39 46h14M38 47h15M21 48h2M34 48h2M37 48h16M21 49h15M38 49h15M20 50h17M38 50h16M20 51h17M41 51h13M20 52h17M45 52h9M23 53h11M47 53h5M35 54h3M32 55h8M9 56h1M33 56h8M8 57h4M34 57h12M7 58h5M34 58h14M6 59h5M34 59h14M5 60h5M33 60h16M76 60h2M5 61h4M33 61h16M77 61h2M5 62h3M33 62h16M77 62h2M33 63h15M78 63h1M34 64h9M78 64h1M34 65h8M78 65h1M35 66h7M54 66h3M36 67h5M54 67h4M54 68h4M55 69h4M55 70h4M56 71h3" />
<path stroke="#948c31" d="M55 51h2M58 51h4M56 52h2M59 52h6M17 53h3M41 53h3M52 53h1M59 53h9M15 54h7M42 54h5M60 54h10M14 55h18M43 55h6M62 55h1M64 55h7M14 56h19M43 56h8M61 56h1M63 56h1M65 56h1M68 56h4M15 57h19M46 57h6M62 57h1M64 57h1M70 57h3M16 58h18M48 58h4M71 58h3M20 59h14M48 59h4M73 59h2M19 60h14M49 60h2M74 60h1M2 61h1M18 61h15M49 61h2M75 61h1M2 62h2M17 62h16M49 62h2M2 63h3M17 63h16M48 63h4M3 64h2M16 64h18M46 64h7M16 65h18M46 65h8M17 66h18M45 66h9M17 67h18M45 67h9M18 68h16M45 68h9M19 69h14M45 69h9M20 70h11M45 70h9M21 71h8M46 71h7" />
<path stroke="#6b6331" d="M17 52h2M38 52h2M54 52h2M14 53h3M37 53h4M53 53h5M12 54h3M38 54h4M49 54h9M59 54h1M11 55h3M40 55h3M51 55h11M63 55h1M10 56h4M41 56h2M52 56h9M62 56h1M64 56h1M66 56h2M12 57h3M53 57h9M63 57h1M65 57h5M12 58h4M52 58h1M54 58h17M11 59h9M52 59h21M10 60h9M51 60h23M9 61h9M51 61h24M8 62h9M51 62h25M6 63h11M52 63h4M57 63h19M2 64h1M5 64h1M8 64h8M43 64h3M53 64h4M58 64h19M3 65h5M11 65h5M42 65h4M54 65h3M58 65h19M3 66h14M42 66h3M59 66h18M2 67h1M4 67h13M35 67h1M41 67h4M59 67h19M2 68h2M6 68h4M11 68h7M34 68h11M60 68h18M1 69h5M10 69h9M33 69h12M54 69h1M60 69h18M1 70h19M31 70h14M54 70h1M60 70h18M1 71h20M29 71h17M53 71h3M60 71h18" />
</svg>