<svg xmlns="http://www.w3.org/2000/svg" viewBox="0 -0.5 80 80" shape-rendering="crispEdges">
<metadata>Made with Pixels to Svg https://codepen.io/shshaw/pen/XbxvNj</metadata>
<path stroke="#8b8b94" d="M29 21h1M28 22h1M28 23h1M28 24h1M31 25h1M31 27h1M29 28h2" />
<path stroke="#ffffff" d="M29 22h1M29 23h1M29 24h2M28 25h3M28 26h4M29 27h2M24 32h1M31 33h1M54 42h1M54 43h1M53 44h2M53 45h2" />
<path stroke="#5a5a62" d="M30 22h1M30 23h1M31 24h1M27 25h1M27 26h1M32 26h1M27 27h1M32 27h1M28 28h1M31 28h1M25 33h1M32 34h1M53 41h2M53 42h1M55 42h1M53 43h1M52 44h1M52 45h1M52 46h1" />
<path stroke="#945a08" d="M32 25h2M34 26h2M36 27h1M24 30h1M51 47h3M50 48h1M45 49h1M47 49h1M50 49h1M46 50h1" />
<path stroke="#eeac41" d="M33 26h1M33 27h3M26 28h2M32 28h5M25 29h1M29 29h8M30 30h8M24 31h2M29 31h9M26 32h12M26 33h5M33 33h4M24 34h7M33 34h4M29 35h7M30 36h5M30 37h4M30 38h2M37 41h1M37 42h2M38 43h1M39 46h1M39 47h2M40 48h1M42 48h1M51 48h2M42 49h1M42 50h2M45 50h1M47 50h2M45 51h2M48 51h1" />
<path stroke="#cd7310" d="M26 27h1M25 28h1M24 29h1M37 29h1M38 31h1M38 32h1M37 33h2M37 34h2M36 35h3M35 36h4M34 37h4M32 38h6M29 39h8M27 40h9M29 41h5M36 41h1M34 42h3M29 43h9M30 44h4M36 44h3M30 45h3M37 45h2M29 46h4M37 46h1M30 47h4M36 47h1M31 48h4M37 48h3M53 48h1M35 49h6M52 49h2M33 50h3M38 50h3M51 50h1M53 50h1M34 51h1M39 51h1M41 51h3M49 51h1M51 51h1M40 52h4M45 52h2M48 52h2M51 52h1M35 53h1M38 53h5M44 53h3M48 53h1M36 54h4M42 54h1M44 54h2M38 55h1" />
<path stroke="#c5c5c5" d="M28 27h1M55 44h1M55 45h1M53 46h3M54 47h1" />
<path stroke="#6a3908" d="M37 28h1M38 29h1M38 30h1M23 31h1M39 31h1M23 32h1M23 33h1M23 34h1M39 36h1M37 40h2M38 41h1M28 42h1M39 42h1M40 45h1M40 46h2M38 47h1M42 47h1M29 48h1M43 48h1M54 48h1M43 49h2M48 49h2M51 49h1M32 50h1M44 50h1M49 50h2M52 50h1M33 51h1M44 51h1M47 51h1M50 51h1M44 52h1M47 52h1M34 53h1M43 53h1M49 53h1M43 54h1M46 54h1" />
<path stroke="#ffe67b" d="M26 29h3M25 30h5M26 31h3" />
<path stroke="#181818" d="M25 32h1M39 32h1M24 33h1M32 33h1M39 33h1M31 34h1M39 34h1M39 35h1M23 37h1M38 37h1M24 38h1M38 38h1M25 39h4M37 39h1M26 40h1M36 40h1M27 41h2M34 41h2M29 42h5M39 43h1M55 43h1M35 44h1M39 44h1M56 44h1M26 45h1M29 45h1M36 45h1M39 45h1M56 45h1M27 46h2M36 46h1M38 46h1M56 46h1M29 47h1M37 47h1M41 47h1M55 47h1M30 48h1M35 48h2M41 48h1M31 49h4M41 49h1M54 49h1M41 50h1M54 50h1M30 51h1M40 51h1M52 51h2M31 52h2M34 52h2M38 52h2M50 52h1M52 52h1M36 53h2M47 53h1M50 53h2M35 54h1M47 54h3M36 55h2M42 55h6M35 56h1M38 56h2M43 56h1M46 56h1M36 57h2M40 57h2M44 57h2" />
<path stroke="#de5a52" d="M24 35h1M27 36h2M24 37h5M25 38h3M28 44h1M27 45h2M35 45h1M34 46h2M31 51h2M37 51h1M36 52h2M40 55h2M36 56h2M40 56h2M44 56h2" />
<path stroke="#9c2920" d="M25 35h4M23 36h1M29 36h1M29 37h1M28 38h2M27 43h2M26 44h1M29 44h1M34 44h1M33 45h1M33 46h1M34 47h2M30 50h1M36 50h2M35 51h1M38 51h1M40 54h2M39 55h1M42 56h1" />
<path stroke="#ee9c8b" d="M24 36h1M26 36h1M27 44h1M34 45h1M31 50h1M36 51h1" />
<path stroke="#ffdecd" d="M25 36h1" />
</svg>