<svg xmlns="http://www.w3.org/2000/svg" viewBox="0 -0.5 80 80" shape-rendering="crispEdges">
<metadata>Made with Pixels to Svg https://codepen.io/shshaw/pen/XbxvNj</metadata>
<path stroke="#734110" d="M38 10h2M37 11h1M41 11h1M37 12h2M40 12h3M51 12h1M38 13h2M42 13h1M51 13h1M54 13h1M43 14h1M50 14h1M55 14h1M43 15h1M53 15h3M54 16h2M43 19h4M47 20h2M49 21h1M37 22h1M50 22h1M33 23h1M36 23h1M35 24h2M42 24h1M29 26h1M33 26h1M31 27h1M52 28h4M56 29h1M30 30h1M47 42h1M42 45h1M43 46h1M43 47h1M43 48h2M41 52h1M45 53h1M29 54h5M46 54h1M27 55h2M35 55h3M46 55h2M26 56h1M46 56h2M25 57h1M46 57h2M24 58h1M45 58h4M24 59h1M44 59h4M23 60h1M44 60h4M44 61h4M34 62h5M44 62h3M32 63h7M44 63h3M31 64h8M44 64h2M31 65h7M43 65h2M25 66h1M30 66h8M43 66h1M26 67h11M42 67h1M28 68h8M31 69h3" />
<path stroke="#101010" d="M40 10h2M42 11h1M43 12h1M52 12h3M37 13h1M43 13h1M50 13h1M55 13h1M38 14h1M44 14h1M49 14h1M56 14h1M39 15h1M44 15h1M56 15h1M40 16h1M44 16h1M48 16h1M56 16h1M40 17h1M44 17h1M48 17h1M54 17h2M41 18h1M44 18h1M47 18h1M52 18h2M47 19h1M51 19h1M50 20h1M51 24h1M52 26h1M52 27h1M57 30h1M57 31h1M57 32h1M57 33h1M57 34h1M56 35h1M35 36h1M55 36h1M36 37h1M53 37h2M36 38h1M51 38h1M50 39h1M50 40h1M49 41h1M37 42h1M48 42h1M34 43h3M40 44h2M43 44h1M48 44h1M43 45h1M49 45h1M44 46h1M49 46h1M44 47h1M49 47h1M45 48h1M48 48h1M46 49h3M48 50h1M48 51h1M49 52h1M49 53h1M49 54h1M49 55h1M49 56h1M48 59h1M48 60h1M48 61h1M23 62h1M47 62h1M23 63h1M47 63h1M46 64h1M45 65h1M24 66h1M44 66h1M25 67h1M43 67h1M26 68h1M41 68h2M28 69h2M38 69h3M31 70h7" />
<path stroke="#946a20" d="M38 11h3M39 12h1M52 13h2M51 14h4M31 23h2M30 24h1M34 24h1M29 25h1M33 25h1M41 25h1M44 25h1M53 30h1M55 32h1M32 37h1M34 37h1M49 40h1M48 41h1M45 43h2M44 44h1M42 52h3M41 53h4M40 54h6M29 55h6M41 55h5M27 56h9M42 56h4M30 57h7M43 57h3M48 57h1M31 58h7M43 58h2M32 59h6M32 60h7M32 61h7M32 62h2M37 67h1M36 68h1M34 69h1" />
<path stroke="#390800" d="M40 13h2M39 14h1M42 14h1M49 15h4M43 16h1M49 16h1M53 16h1M43 17h1M53 17h1M51 18h1M50 19h1M49 20h1M41 22h1M41 23h1M46 23h1M51 23h1M43 24h1M46 24h1M52 25h1M29 27h1M29 28h1M29 29h1M32 33h1M32 34h1M31 37h1M31 38h1M31 39h1M37 39h1M32 40h1M37 40h1M32 41h1M37 41h1M33 42h1M36 42h1M47 43h1M41 45h1M42 46h1M42 47h1M42 48h1M42 49h1M41 50h1M41 51h1M40 53h1M39 54h1M49 57h1M49 58h1M23 64h1M27 68h1M30 69h1" />
<path stroke="#b42010" d="M40 14h2M40 15h3M42 16h1M50 16h1M49 17h1M43 18h1M48 18h1M48 19h1M42 25h2M42 26h2" />
<path stroke="#de4118" d="M41 16h1M51 16h2M41 17h2M50 17h3M42 18h1M49 18h2M49 19h1" />
<path stroke="#b48b39" d="M41 19h2M39 20h2M38 21h1M37 23h1M50 23h1M50 24h1M50 25h2M49 26h3M33 27h1M48 27h4M30 28h4M50 28h2M30 29h3M31 30h2M56 30h1M31 31h2M54 31h3M53 32h1M56 32h1M54 33h3M54 34h3M54 35h2M32 36h1M34 36h1M53 36h2M33 37h1M50 37h3M32 38h3M49 38h2M32 39h4M48 39h2M35 40h1M47 40h2M35 41h2M45 41h3M34 42h2M38 42h9M40 43h5M45 44h3M44 45h5M45 46h4M45 47h4M46 48h2M43 49h3M45 50h3M47 51h1M47 52h2M46 53h3M47 54h2M48 55h1M48 56h1M31 63h1M43 64h1M30 65h1M38 65h1M29 66h1M42 66h1M41 67h1M37 68h4M35 69h3" />
<path stroke="#eede9c" d="M41 20h4M39 21h7M39 22h2M42 22h4M40 23h1M42 23h3M31 24h2M30 25h2M37 28h1M43 28h1M34 31h1M39 32h3M47 32h1M38 33h1M42 33h1M38 37h1M42 37h1M47 37h1M39 38h3M33 40h1M45 40h1M34 41h1M38 41h1M43 41h2M38 55h2M37 56h4M27 57h2M38 57h4M26 58h4M38 58h5M25 59h6M39 59h4M25 60h7M39 60h4M25 61h7M39 61h2M26 62h5" />
<path stroke="#e6c552" d="M45 20h2M46 21h3M38 22h1M46 22h4M38 23h2M45 23h1M47 23h3M33 24h1M37 24h5M44 24h2M47 24h3M32 25h1M34 25h7M45 25h4M31 26h1M34 26h8M44 26h5M34 27h14M34 28h3M44 28h5M34 29h2M45 29h11M33 30h2M46 30h7M54 30h2M33 31h1M47 31h6M33 32h1M48 32h5M33 33h1M39 33h3M48 33h6M33 34h1M38 34h5M48 34h6M38 35h5M48 35h6M33 36h1M38 36h5M48 36h5M35 37h1M39 37h3M48 37h2M35 38h1M47 38h2M36 39h1M46 39h2M34 40h1M36 40h1M46 40h1M33 41h1M26 57h1M25 58h1M24 60h1M43 60h1M24 61h1M41 61h1M24 62h2M31 62h1M24 63h7M24 64h7M25 65h5M26 66h3" />
<path stroke="#cda441" d="M49 25h1M30 26h1M32 26h1M30 27h1M49 28h1M33 29h1M32 32h1M42 50h3M42 51h5M45 52h2M40 55h1M36 56h1M41 56h1M29 57h1M37 57h1M42 57h1M30 58h1M31 59h1M38 59h1M43 59h1M42 61h2M39 62h5M39 63h5M39 64h4M39 65h4M38 66h4M38 67h3" />
<path stroke="#5a2908" d="M32 27h1M30 31h1M53 31h1M31 32h1M54 32h1M32 35h3M31 36h1M38 43h2M42 44h1M38 54h1M23 61h1M24 65h1" />
<path stroke="#ffffff" d="M38 28h5M36 29h9M35 30h11M35 31h12M34 32h5M42 32h5M34 33h4M43 33h5M34 34h4M43 34h5M35 35h3M43 35h5M36 36h2M43 36h5M37 37h1M43 37h4M37 38h2M42 38h5M38 39h8M38 40h7M39 41h4" />
</svg>