<svg xmlns="http://www.w3.org/2000/svg" viewBox="0 -0.5 80 80" shape-rendering="crispEdges">
<metadata>Made with Pixels to Svg https://codepen.io/shshaw/pen/XbxvNj</metadata>
<path stroke="#101010" d="M40 28h5M37 29h2M43 29h4M35 30h2M45 30h3M34 31h2M47 31h2M30 32h2M33 32h1M45 32h1M48 32h2M29 33h1M32 33h1M44 33h3M49 33h1M27 34h2M45 34h1M50 34h1M25 35h2M29 35h1M35 35h5M50 35h1M52 35h3M24 36h1M28 36h1M30 36h1M35 36h1M40 36h2M54 36h2M23 37h1M26 37h2M36 37h1M52 37h3M56 37h1M23 38h1M26 38h2M37 38h1M51 38h3M57 38h1M22 39h1M25 39h1M28 39h1M38 39h1M53 39h2M59 39h1M23 40h5M30 40h1M37 40h1M51 40h1M55 40h1M60 40h1M24 41h1M29 41h1M31 41h1M35 41h1M51 41h2M57 41h1M61 41h1M23 42h1M28 42h1M31 42h1M41 42h2M47 42h1M50 42h3M58 42h3M22 43h1M24 43h2M28 43h1M30 43h1M40 43h1M49 43h2M52 43h2M58 43h1M25 44h3M29 44h1M39 44h2M43 44h1M51 44h1M54 44h2M59 44h1M25 45h1M40 45h3M49 45h1M52 45h1M56 45h1M59 45h1M20 46h1M24 46h1M27 46h1M46 46h6M53 46h1M57 46h2M21 47h2M28 47h1M44 47h1M48 47h3M31 48h1M43 48h1M50 48h1M54 48h1M31 49h1M40 49h3M51 49h1M55 49h1M34 50h2M40 50h1M52 50h1M55 50h1M28 51h1M30 51h1M39 51h1M53 51h2M29 52h2M38 52h1M36 53h2" />
<path stroke="#314a10" d="M39 29h4M36 31h1M31 35h1M34 35h1M40 35h1M31 36h1M42 36h1M49 36h1M48 37h1M32 38h1M38 38h2M48 38h1M31 39h1M41 39h1M48 39h1M42 40h1M36 41h1M43 41h1M47 41h1M44 42h1M46 42h1M31 43h1M44 43h1M30 44h1M45 44h1M27 45h1M39 45h1M43 45h1M45 45h1M40 46h3M45 46h1M32 49h1M33 50h1" />
<path stroke="#527b29" d="M37 30h1M44 30h1M35 32h1M44 32h1M48 33h1M32 34h1M35 34h4M44 34h1M46 34h1M49 34h1M41 35h1M49 35h1M39 36h1M40 39h1M47 40h1M40 42h1M39 43h1M43 43h1M45 43h1M28 46h1M39 48h1M42 48h1" />
<path stroke="#8be631" d="M38 30h1M42 30h1M37 31h1M43 31h3M34 32h1M37 32h1M43 32h1M47 32h1M33 33h5M42 33h2M47 33h1M33 34h2M39 34h5M47 34h1M32 35h2M42 35h6M32 36h1M36 36h3M43 36h4M32 37h1M37 37h9M40 38h4M32 39h1M39 39h1M39 40h3M39 41h3M34 42h1M38 42h2M32 43h7M28 44h1M31 44h8M28 45h11M29 46h9M32 47h4" />
<path stroke="#acee62" d="M39 30h3M38 31h5M38 32h5M38 33h4M31 40h2M32 41h2M32 42h2" />
<path stroke="#52b46a" d="M43 30h1M46 31h1M36 32h1M46 32h1M48 34h1M48 35h1M47 36h2M46 37h2M44 38h4M42 39h6M38 40h1M43 40h4M37 41h2M42 41h1M44 41h3M35 42h3M43 42h1M45 42h1M44 44h1M44 45h1M38 46h2M43 46h2M31 47h1M36 47h8M32 48h5M40 48h2M33 49h3" />
<path stroke="#836a29" d="M30 33h1M29 34h1M51 35h1M26 36h1M50 36h1M52 36h1M28 37h1M31 37h1M50 38h1M54 38h1M29 39h1M49 39h1M58 39h1M28 40h2M54 40h1M50 41h1M53 41h1M56 41h1M48 42h1M53 42h1M57 42h1M54 43h1M22 44h1M24 44h1M21 45h1M48 45h1M23 46h1M53 47h1" />
<path stroke="#c5b418" d="M31 33h1M30 34h2M30 35h1M25 36h1M51 36h1M24 37h2M49 37h3M55 37h1M24 38h2M28 38h4M49 38h1M55 38h2M23 39h2M30 39h1M55 39h3M50 40h1M56 40h4M48 41h2M58 41h3M49 42h1M26 43h2M46 43h1M55 43h1M57 43h1M48 44h1M56 44h3M24 45h1M46 45h2M57 45h2M51 48h3M52 49h3M53 50h2" />
<path stroke="#7b7b7b" d="M27 35h2M33 36h1M53 36h1M33 37h1M33 38h1M33 39h1M37 39h1M51 39h1M33 40h1M52 40h2M25 41h2M34 41h1M24 42h1M30 42h1M29 43h1M49 44h1M50 45h2" />
<path stroke="#bdc5c5" d="M27 36h1M36 38h1M35 39h2M52 39h1M34 40h3M30 41h1M25 42h1M42 43h1M50 44h1" />
<path stroke="#ffe64a" d="M29 36h1M29 37h2M50 39h1M48 40h2M27 41h2M54 41h2M26 42h2M54 42h3M23 43h1M47 43h2M56 43h1M23 44h1M46 44h2M22 45h2M21 46h2M52 46h1M51 47h2" />
<path stroke="#ffffff" d="M34 36h1M34 37h2M34 38h2M34 39h1M29 42h1M41 43h1M41 44h2" />
<path stroke="#7b3141" d="M29 47h2M28 48h1M37 48h2M27 49h1M36 49h1M27 50h1M30 50h1M36 50h1M36 51h1M35 52h1M35 53h1" />
<path stroke="#ff839c" d="M29 48h1M28 49h2M38 49h1M28 50h1M37 50h2M37 51h2" />
<path stroke="#ee3173" d="M30 48h1M30 49h1M37 49h1M39 49h1M29 50h1M39 50h1M29 51h1M36 52h2" />
</svg>