<svg xmlns="http://www.w3.org/2000/svg" viewBox="0 -0.5 80 80" shape-rendering="crispEdges">
<metadata>Made with Pixels to Svg https://codepen.io/shshaw/pen/XbxvNj</metadata>
<path stroke="#94735a" d="M33 26h1M37 26h2M33 27h1M36 27h1M39 27h1M33 28h1M39 28h1M44 28h3M33 29h1M37 29h1M33 30h1M32 31h1M37 31h1M35 32h1M41 32h1M31 33h1M43 33h1M33 34h1M34 35h1M35 36h1M37 36h2M35 37h2M39 37h2M43 37h2M40 38h1M42 38h1M45 38h1M41 39h1M46 39h1M32 45h1" />
<path stroke="#000000" d="M34 26h1M41 26h2M35 27h1M43 27h1M36 28h2M44 29h1M49 29h2M50 30h1M50 31h1M37 32h1M49 32h1M41 33h1M49 33h1M29 34h2M48 34h1M28 35h1M48 35h1M28 36h1M49 36h1M29 37h1M49 37h1M48 38h3M51 39h1M28 40h1M51 40h1M28 41h1M50 41h1M28 42h1M49 42h1M29 43h1M49 43h1M29 44h1M31 44h3M49 44h1M30 45h1M34 45h1M48 45h1M29 46h1M34 46h1M48 46h1M47 47h1M33 48h1M46 48h1M34 49h3M43 49h3M37 50h6M44 50h1M44 51h1M38 52h1M43 52h1M39 53h3" />
<path stroke="#f6eec5" d="M34 27h1M41 27h1M34 28h2M40 28h1M34 29h3M39 29h2M34 30h6M33 31h2M36 31h1M38 31h2M33 32h2M36 32h1M38 32h1M32 33h3M37 33h1M32 34h1M34 34h4M35 35h3M36 36h1" />
<path stroke="#cdb473" d="M37 27h2M38 29h1M45 29h2M47 30h1M35 31h1M45 31h1M31 32h2M43 32h1M35 33h2M48 33h1M42 34h2M31 35h1M39 35h1M32 36h1M48 36h1M30 37h2M47 40h1M47 41h3M30 46h1M30 47h4M31 48h2M43 50h1M39 51h5" />
<path stroke="#734a4a" d="M40 27h1M38 28h1M43 28h1M47 29h2M45 30h2M31 34h1M32 35h1M32 37h1M30 38h2M47 39h1M46 40h1M46 41h1M47 42h2M33 45h1M32 46h1M29 47h1M34 47h1M30 48h1M31 49h2M38 51h1M40 52h1M42 53h1" />
<path stroke="#f6d5a4" d="M42 27h1M41 28h2M41 29h3M40 30h5M48 30h2M40 31h5M46 31h4M39 32h2M42 32h1M44 32h5M40 33h1M42 33h1M44 33h4M40 34h2M44 34h4M29 35h2M40 35h8M29 36h3M39 36h9M41 37h2M45 37h4M41 38h1M46 38h2M48 39h3M48 40h3M31 45h1M31 46h1M33 46h1M39 52h1M41 52h2" />
<path stroke="#ac2929" d="M38 33h2M38 34h2M38 35h1" />
<path stroke="#ffffff" d="M33 35h1M33 36h2M33 37h2M37 37h2M29 38h1M32 38h8M43 38h2M29 39h12M42 39h4M30 40h5M37 40h4M32 41h3M38 41h3M42 41h2M33 42h2M36 42h1M39 42h2M43 42h1M36 43h2M40 43h2" />
<path stroke="#7b8b94" d="M28 38h1M28 39h1" />
<path stroke="#d5dede" d="M29 40h1M45 40h1M31 41h1M44 41h1M32 42h1M44 42h1M33 43h2M44 43h1M34 44h1M36 44h1M40 44h1M35 45h1" />
<path stroke="#4a83c5" d="M35 40h2M35 41h3M37 42h1M38 43h1M37 44h1M38 45h1M43 46h2M43 47h1M42 48h1M41 49h1" />
<path stroke="#ee6a6a" d="M41 40h1M42 42h1M43 43h1M45 44h1" />
<path stroke="#c55a52" d="M42 40h3M29 41h2M41 41h1M45 41h1M30 42h2M41 42h1M45 42h1M31 43h2M42 43h1M45 43h1M43 44h2" />
<path stroke="#b4b4c5" d="M29 42h1M46 42h1M30 43h1M46 43h3M30 44h1M41 44h2M46 44h3M39 45h9M35 46h8M45 46h3M35 47h7M45 47h2M34 48h7M43 48h1M45 48h1M37 49h3M42 49h1" />
<path stroke="#3162ac" d="M35 42h1M38 42h1M35 43h1M39 43h1M35 44h1M38 44h2M36 45h2M42 47h1M44 47h1M41 48h1M44 48h1M40 49h1" />
</svg>