<svg xmlns="http://www.w3.org/2000/svg" viewBox="0 -0.5 80 80" shape-rendering="crispEdges">
<metadata>Made with Pixels to Svg https://codepen.io/shshaw/pen/XbxvNj</metadata>
<path stroke="#525252" d="M32 27h1M31 28h1M34 28h1M38 28h2M31 29h1M35 29h1M31 30h1M34 30h1M44 30h1M33 31h1M45 31h1M38 32h2M46 32h1M37 33h1M43 33h1M36 34h1M47 34h1M31 35h1M35 35h1M39 35h1M47 35h1M31 36h1M35 36h1M38 36h1M47 36h1M31 37h1M47 37h1M47 38h1M32 39h1M47 39h1M36 40h1M43 40h1M33 41h1M46 41h1M34 42h1M45 42h1M33 43h1M36 43h1M44 43h1M31 44h1M33 44h1M38 44h5M31 45h1M33 45h1M31 46h1M33 46h1M31 47h1M33 47h1M33 48h1M33 49h1M33 50h1M32 51h2" />
<path stroke="#101010" d="M33 27h2M35 28h1M40 28h3M36 29h2M43 29h2M35 30h1M45 30h1M32 31h1M34 31h1M46 31h1M33 32h1M40 32h2M47 32h1M32 33h1M42 33h1M47 33h1M32 34h1M43 34h1M48 34h1M40 35h1M44 35h1M48 35h1M40 36h2M44 36h1M48 36h1M35 37h1M38 37h2M41 37h1M44 37h1M48 37h1M31 38h1M35 38h1M39 38h2M44 38h1M48 38h1M31 39h1M36 39h1M43 39h1M48 39h1M31 40h2M37 40h1M42 40h1M47 40h1M31 41h2M38 41h4M47 41h1M31 42h1M33 42h1M46 42h1M31 43h1M34 43h2M45 43h1M34 44h1M36 44h2M43 44h2M34 45h1M38 45h5M34 46h1M34 47h1M31 48h1M34 48h1M31 49h1M34 49h1M31 50h1M34 50h1M31 51h1M34 51h1M32 52h2" />
<path stroke="#dedede" d="M32 28h1M36 31h1M35 32h1M34 33h1M38 33h1M41 33h1M33 34h1M36 35h1M43 35h1M36 38h1M43 38h1M38 40h1M41 40h1M32 45h1M32 46h1" />
<path stroke="#a4a4a4" d="M33 28h1M32 29h2M37 30h3M37 31h1M36 32h1M35 33h1M34 34h1M33 35h1M41 35h1M33 36h1M38 38h1M41 38h1M45 39h1M44 40h1M43 41h1M40 42h3M32 44h1M32 47h1M32 48h1" />
<path stroke="#737373" d="M34 29h1M38 29h5M32 30h2M36 30h1M40 30h4M35 31h1M38 31h7M34 32h1M37 32h1M42 32h4M33 33h1M36 33h1M44 33h3M35 34h1M44 34h3M32 35h1M34 35h1M45 35h2M32 36h1M34 36h1M45 36h2M32 37h3M40 37h1M45 37h2M32 38h3M45 38h2M33 39h3M44 39h1M46 39h1M33 40h3M45 40h2M34 41h4M42 41h1M44 41h2M32 42h1M35 42h5M43 42h2M32 43h1M37 43h7M32 49h1M32 50h1" />
<path stroke="#ffffff" d="M39 33h2M37 34h6M37 35h2M42 35h1M36 36h2M39 36h1M42 36h2M36 37h2M42 37h2M37 38h1M42 38h1M37 39h6M39 40h2" />
</svg>