<svg xmlns="http://www.w3.org/2000/svg" viewBox="0 -0.5 80 80" shape-rendering="crispEdges">
<metadata>Made with Pixels to Svg https://codepen.io/shshaw/pen/XbxvNj</metadata>
<path stroke="#101010" d="M37 24h4M36 25h1M41 25h2M43 26h1M44 27h1M38 28h3M45 28h1M41 29h1M46 29h1M42 30h1M46 30h1M39 31h1M43 31h1M47 31h3M39 32h2M43 32h1M50 32h1M30 33h1M34 33h1M37 33h2M40 33h1M43 33h1M50 33h1M30 34h1M34 34h1M38 34h2M43 34h1M47 34h3M31 35h1M35 35h1M42 35h1M46 35h1M31 36h1M36 36h1M41 36h1M46 36h1M32 37h1M37 37h4M45 37h1M33 38h1M44 38h1M34 39h1M43 39h1M35 40h2M41 40h2M37 41h1M40 41h1M36 42h2M40 42h2M42 43h1M43 44h1M39 45h2M44 45h1M32 46h1M41 46h1M44 46h1M32 47h1M42 47h1M45 47h1M42 48h1M45 48h1M29 49h1M32 49h1M35 49h1M42 49h1M45 49h1M30 50h3M35 50h1M42 50h1M45 50h1M32 51h1M36 51h1M41 51h1M44 51h1M33 52h1M37 52h4M44 52h1M34 53h1M43 53h1M35 54h2M41 54h2M38 55h2" />
<path stroke="#525252" d="M35 25h1M37 25h4M34 26h1M42 26h1M33 27h1M43 27h1M32 28h1M37 28h1M44 28h1M31 29h1M35 29h2M42 29h1M45 29h1M31 30h1M35 30h1M45 30h1M30 31h1M34 31h1M38 31h1M46 31h1M30 32h1M34 32h1M37 32h1M46 32h1M49 32h1M46 33h4M46 34h1M45 35h1M32 36h1M35 36h1M42 36h1M45 36h1M44 37h1M43 38h1M35 39h1M41 39h2M37 40h4M38 41h2M38 42h2M35 43h1M41 43h1M34 44h1M42 44h1M33 45h1M37 45h2M43 45h1M36 46h1M30 47h2M35 47h1M44 47h1M29 48h1M32 48h1M35 48h1M30 49h2M44 50h1M33 51h1M34 52h1M43 52h1M35 53h1M42 53h1M37 54h4M37 55h1M40 55h1" />
<path stroke="#737373" d="M35 26h1M39 26h3M34 27h1M38 27h5M33 28h1M36 28h1M41 28h3M32 29h1M43 29h2M34 30h1M43 30h2M31 31h1M44 31h2M31 32h1M33 32h1M44 32h2M31 33h1M33 33h1M39 33h1M44 33h2M31 34h3M44 34h2M32 35h3M43 35h2M33 36h2M44 36h1M33 37h4M41 37h1M43 37h1M34 38h5M42 38h1M36 39h5M36 43h5M35 44h1M38 44h4M34 45h1M36 45h1M41 45h2M33 46h1M35 46h1M42 46h2M33 47h1M43 47h1M33 48h1M43 48h2M33 49h2M43 49h2M33 50h2M34 51h2M42 51h1M35 52h2M41 52h1M36 53h3" />
<path stroke="#dedede" d="M36 26h2M35 27h1M34 28h1M33 29h1M37 29h1M40 29h1M33 30h1M32 31h1M35 31h1M42 31h1M35 34h1M42 34h1M37 36h1M40 36h1M35 45h1M34 46h1M34 47h1M30 48h1" />
<path stroke="#a4a4a4" d="M38 26h1M36 27h2M35 28h1M34 29h1M32 30h1M33 31h1M40 31h1M32 32h1M47 32h2M32 33h1M37 34h1M40 34h1M43 36h1M42 37h1M39 38h3M36 44h2M31 48h1M34 48h1M43 50h1M43 51h1M42 52h1M39 53h3" />
<path stroke="#ffffff" d="M38 29h2M36 30h6M36 31h2M41 31h1M35 32h2M38 32h1M41 32h2M35 33h2M41 33h2M36 34h1M41 34h1M36 35h6M38 36h2" />
</svg>