<svg xmlns="http://www.w3.org/2000/svg" viewBox="0 -0.5 80 80" shape-rendering="crispEdges">
<metadata>Made with Pixels to Svg https://codepen.io/shshaw/pen/XbxvNj</metadata>
<path stroke="#413131" d="M24 20h2M24 21h1M26 21h1M34 25h1M31 26h5M29 27h7M25 28h2M30 28h6M30 29h7M31 30h6M32 31h6M32 32h6M32 33h7M57 33h2M32 34h7M55 34h2M31 35h10M51 35h1M54 35h1M57 35h1M30 36h11M52 36h1M56 36h2M29 37h12M55 37h3M30 38h11M55 38h2M32 39h8M55 39h2M34 40h5M32 43h1M32 44h1M33 45h1M33 46h2M33 47h3M47 47h1M50 47h1M55 47h2M33 48h4M47 48h1M54 48h4M33 49h3M47 49h2M53 49h5M33 50h3M46 50h3M54 50h4M41 51h1M46 51h3M55 51h1M31 54h2M47 54h2M57 54h2M34 55h1M46 55h3M30 56h1M33 56h2M40 56h1M40 58h1" />
<path stroke="#101010" d="M35 20h4M27 21h4M33 21h2M38 21h1M24 22h3M31 22h2M37 22h2M23 23h2M32 23h1M36 23h3M27 24h3M32 24h1M35 24h3M26 25h4M32 25h1M35 25h3M30 26h1M36 26h2M20 27h1M27 27h2M36 27h1M20 28h1M36 28h1M21 29h1M24 29h1M26 29h1M37 29h1M19 30h2M37 30h1M19 31h1M21 31h1M38 31h1M19 32h1M25 32h3M38 32h1M43 32h1M20 33h1M23 33h2M27 33h2M39 33h1M44 33h1M21 34h2M39 34h2M45 34h1M50 34h1M58 34h1M41 35h1M45 35h2M50 35h1M52 35h2M58 35h1M41 36h1M45 36h1M47 36h1M51 36h1M58 36h1M23 37h1M28 37h1M42 37h1M45 37h1M47 37h1M51 37h1M53 37h1M58 37h1M24 38h4M29 38h1M42 38h1M44 38h1M48 38h1M51 38h1M54 38h1M57 38h1M30 39h1M43 39h1M48 39h1M50 39h1M54 39h1M57 39h1M30 40h1M49 40h1M55 40h2M30 41h1M55 41h1M31 42h1M55 42h1M31 43h1M33 43h1M37 43h1M45 43h1M56 43h1M31 44h1M33 44h1M37 44h1M45 44h1M48 44h1M56 44h1M32 45h1M34 45h1M38 45h1M45 45h1M48 45h1M56 45h1M32 46h1M35 46h1M38 46h1M45 46h1M47 46h3M56 46h1M32 47h1M36 47h2M39 47h1M46 47h1M48 47h2M57 47h1M32 48h1M37 48h4M46 48h1M48 48h1M50 48h1M58 48h2M32 49h1M36 49h1M40 49h1M46 49h1M49 49h1M51 49h2M58 49h1M32 50h1M36 50h2M40 50h1M45 50h1M49 50h1M53 50h1M58 50h1M33 51h3M37 51h1M40 51h1M45 51h1M50 51h1M54 51h1M56 51h2M31 52h1M37 52h1M41 52h2M46 52h1M50 52h1M55 52h1M61 52h1M31 53h1M36 53h1M46 53h1M50 53h1M55 53h1M60 53h2M30 54h1M33 54h4M46 54h1M49 54h1M55 54h2M59 54h1M61 54h1M29 55h1M35 55h1M40 55h1M45 55h1M49 55h1M54 55h2M61 55h1M29 56h1M32 56h1M35 56h1M41 56h8M54 56h1M56 56h1M58 56h1M60 56h1M30 57h5M39 57h1M45 57h1M55 57h5M39 58h1M42 58h1M45 58h1M40 59h5" />
<path stroke="#5a4a4a" d="M25 21h1M35 21h3M33 22h4M27 23h3M33 23h3M26 24h1M30 24h1M33 24h2M25 25h1M33 25h1M20 31h1M57 34h1M55 35h2M46 36h1M53 36h3M41 37h1M46 37h1M52 37h1M54 37h1M41 38h1M45 38h3M52 38h2M31 39h1M40 39h3M44 39h4M51 39h3M31 40h3M39 40h10M50 40h5M31 41h2M34 41h21M32 42h1M35 42h16M54 42h1M38 43h1M42 43h3M46 43h4M55 43h1M38 44h1M42 44h3M46 44h2M49 44h1M55 44h1M43 45h2M49 45h1M55 45h1M39 46h1M43 46h2M50 46h1M55 46h1M40 47h1M43 47h3M51 47h1M54 47h1M43 48h3M51 48h3M41 49h5M41 50h4M42 51h3M43 52h2M60 54h1M30 55h4M56 55h5M31 56h1M55 56h1M57 56h1M59 56h1M44 57h1M43 58h2" />
<path stroke="#b4a4a4" d="M27 22h4M30 23h2M31 24h1M30 25h2M24 26h6M24 27h3M23 28h2M41 34h1M42 35h1M47 35h1M42 36h3M48 36h1M43 37h2M48 37h3M43 38h1M49 38h2M49 39h1M59 49h1M32 51h1M36 51h1M49 51h1M35 52h2M40 52h1M47 52h3M56 52h1M34 53h2M45 53h1M47 53h2M56 53h2M44 54h2M43 55h2" />
<path stroke="#ffffff" d="M25 23h2M23 24h2M22 25h3M23 26h1M27 28h2M27 29h2M39 31h2M39 32h4M26 33h1M40 33h4M45 33h3M42 34h2M47 34h3M59 50h1M58 51h3M57 52h4M40 53h5M59 53h1M40 54h3M41 55h2" />
<path stroke="#626262" d="M22 24h1M21 25h1M21 26h1M38 30h3M41 31h2M44 32h4M48 33h2M60 49h1M60 50h1M31 51h1M61 51h1M39 52h1M32 53h1M39 53h1M39 54h1" />
<path stroke="#cdcdcd" d="M25 24h1M22 26h1M21 27h3M21 28h2M25 29h1M44 34h1M46 34h1M43 35h2M48 35h2M49 36h2M32 52h3M33 53h1M58 53h1M43 54h1" />
<path stroke="#7b6a6a" d="M29 28h1M29 29h1M51 42h3M39 43h3M50 43h5M39 44h3M50 44h5M39 45h4M50 45h5M40 46h3M51 46h4M41 47h2M52 47h2M41 48h2M45 52h1M49 53h1M40 57h4M41 58h1" />
<path stroke="#945218" d="M22 29h2M30 30h1M31 31h1M23 34h1M28 34h1M31 34h1M22 35h1M22 36h1" />
<path stroke="#bd7b39" d="M21 30h1M28 30h2" />
<path stroke="#ffd58b" d="M22 30h2M22 31h3M20 32h4" />
<path stroke="#eea452" d="M24 30h4M25 31h6M24 32h1M28 32h4M21 33h2M29 33h3M24 34h1M29 34h2M23 35h1M28 35h3M23 36h1M27 36h3M24 37h4M33 41h1M33 42h2M34 43h3M34 44h3M35 45h3M46 45h2M36 46h2M46 46h1M38 47h1" />
<path stroke="#b43108" d="M25 33h1M25 34h3M24 35h4M24 36h3" />
</svg>