<svg xmlns="http://www.w3.org/2000/svg" viewBox="0 -0.5 80 80" shape-rendering="crispEdges">
<metadata>Made with Pixels to Svg https://codepen.io/shshaw/pen/XbxvNj</metadata>
<path stroke="#7b29de" d="M38 6h3M36 7h2M35 8h1M45 8h1M46 9h1M46 10h2M46 11h2M46 12h3M33 13h1M45 13h4M45 14h3M52 14h1M31 15h1M44 15h3M53 15h2M30 16h1M43 16h3M53 16h3M29 17h1M34 17h1M42 17h4M53 17h3M40 18h4M45 18h1M47 18h1M52 18h5M36 19h8M45 19h2M48 19h4M53 19h4M28 20h1M38 20h4M44 20h4M52 20h5M35 21h3M42 21h7M50 21h7M29 22h1M34 22h4M39 22h10M50 22h6M27 23h1M30 23h8M39 23h9M49 23h1M51 23h5M26 24h1M31 24h7M42 24h4M53 24h2M25 25h1M34 25h3M38 25h1M44 25h1M51 25h1M32 26h5M42 26h2M32 27h4M41 27h1M48 27h1M56 27h1M26 28h1M31 28h1M34 28h1M46 28h2M57 28h1M27 29h2M33 29h2M42 29h2M57 29h2M32 30h1M40 30h1M49 30h1M52 30h1M57 30h2M31 31h1M39 31h1M50 31h3M57 31h2M37 32h1M56 32h3M35 33h1M40 33h5M55 33h3M28 34h1M33 34h1M38 34h3M45 34h3M53 34h5M25 35h3M32 35h1M36 35h3M48 35h9M35 36h2M50 36h5M30 37h2M33 37h3M31 38h4M31 39h3" />
<path stroke="#411094" d="M41 6h3M44 7h2M33 14h1M48 14h1M33 15h1M47 15h1M33 16h1M46 16h1M46 17h1M34 18h1M44 18h1M46 18h1M47 19h1M52 19h1M37 20h1M42 20h1M48 20h4M28 21h1M38 23h1M48 23h1M46 24h2M33 25h1M37 25h1M45 25h1M52 25h1M25 26h1M37 26h1M50 26h1M55 26h1M25 27h1M31 27h1M36 27h1M49 27h1M30 28h1M35 28h1M48 28h1M29 29h1M44 29h2M48 29h1M52 29h1M28 30h1M41 30h3M48 30h1M53 30h1M27 31h1M38 31h1M49 31h1M53 31h1M26 32h1M36 32h1M50 32h3M25 33h1M34 33h1M25 34h1M41 34h2M24 35h1M40 35h1M45 35h1M24 36h1M31 36h1M38 36h1M48 36h1M55 36h1M50 37h2M54 37h1" />
<path stroke="#b473ff" d="M38 7h6M40 8h5M34 9h1M41 9h5M34 10h1M41 10h5M33 11h1M41 11h5M33 12h1M40 12h6M40 13h5M34 14h1M38 14h7M51 14h1M34 15h10M52 15h1M34 16h9M47 16h2M51 16h2M35 17h7M47 17h6M29 18h1M35 18h5M48 18h4M28 19h1M33 19h2M29 20h1M32 20h4M29 21h6M30 22h4M50 23h1M28 24h2M39 24h3M48 24h5M29 25h2M39 25h5M46 25h5M29 26h2M38 26h4M44 26h6M51 26h1M54 26h1M26 27h1M28 27h3M37 27h4M42 27h6M50 27h1M54 27h2M27 28h3M32 28h2M36 28h10M49 28h2M53 28h4M30 29h3M35 29h7M49 29h3M53 29h4M29 30h3M33 30h7M44 30h4M50 30h2M54 30h3M28 31h3M32 31h6M40 31h9M54 31h3M27 32h9M38 32h12M53 32h3M26 33h8M36 33h4M45 33h10M26 34h2M29 34h4M34 34h4M48 34h5M28 35h4M33 35h3M29 36h2M32 36h3M32 37h1" />
<path stroke="#d5b4ff" d="M36 8h4M35 9h6M35 10h6M34 11h7M34 12h6M34 13h6M35 14h3M49 14h2M48 15h4M31 16h2M49 16h2M30 17h4M30 18h4M29 19h4M30 20h2M27 24h1M26 25h3M26 26h3M52 26h2M27 27h1M51 27h3M51 28h2" />
<path stroke="#101010" d="M46 8h1M47 9h1M48 10h1M48 11h1M49 12h1M49 13h4M53 14h2M32 15h1M55 15h1M56 16h1M56 17h1M57 18h1M35 19h1M44 19h1M57 19h1M36 20h1M43 20h1M57 20h1M38 21h4M49 21h1M57 21h1M28 22h1M38 22h1M49 22h1M56 22h1M28 23h2M56 23h1M30 24h1M38 24h1M55 24h1M31 25h2M53 25h2M31 26h1M56 26h1M57 27h1M64 27h1M25 28h1M58 28h1M64 28h1M66 28h1M75 28h1M26 29h1M46 29h2M59 29h1M68 29h1M75 29h1M27 30h1M59 30h1M65 30h1M70 30h1M59 31h1M65 31h1M68 31h3M74 31h1M59 32h1M75 32h1M58 33h1M63 33h1M66 33h1M69 33h1M76 33h1M43 34h2M58 34h1M63 34h1M66 34h1M70 34h1M74 34h3M39 35h1M41 35h1M46 35h2M57 35h1M74 35h1M23 36h1M37 36h1M41 36h2M45 36h1M49 36h1M56 36h1M64 36h1M67 36h1M74 36h1M36 37h1M44 37h2M49 37h1M52 37h2M58 37h1M64 37h1M67 37h1M69 37h2M72 37h1M74 37h1M30 38h1M35 38h1M45 38h1M49 38h2M67 38h1M74 38h1M30 39h1M34 39h1M59 39h1M62 39h1M67 39h1M74 39h1M23 40h1M31 40h3M59 40h1M61 40h1M63 40h1M67 40h1M74 40h1M14 41h1M18 41h1M28 41h2M33 41h1M61 41h1M64 41h1M67 41h1M14 42h1M19 42h1M24 42h4M33 42h1M60 42h3M67 42h1M15 43h1M20 43h1M24 43h1M32 43h1M60 43h1M63 43h1M67 43h1M15 44h1M21 44h3M32 44h1M49 44h1M61 44h1M64 44h1M67 44h1M32 45h1M50 45h1M52 45h1M61 45h1M66 45h2M16 46h1M22 46h1M30 46h2M51 46h2M62 46h1M16 47h1M19 47h1M22 47h1M27 47h3M52 47h1M63 47h1M20 48h2M25 48h2M31 48h1M64 48h1M17 49h1M24 49h1M31 49h1M38 49h1M65 49h1M17 50h1M23 50h2M29 50h1M38 50h3M54 50h2M65 50h1M11 51h1M18 51h1M23 51h1M27 51h1M38 51h1M41 51h3M54 51h1M56 51h1M65 51h1M11 52h1M18 52h1M22 52h1M25 52h1M32 52h1M38 52h1M40 52h1M57 52h1M65 52h1M19 53h3M23 53h1M31 53h1M37 53h1M39 53h1M45 53h1M53 53h1M58 53h1M12 54h1M15 54h1M30 54h1M37 54h2M66 54h1M13 55h1M29 55h1M36 55h1M38 55h1M52 55h1M59 55h1M66 55h1M19 56h3M30 56h1M34 56h2M37 56h1M52 56h1M13 57h4M19 57h2M23 57h2M31 57h3M37 57h1M67 57h1M13 58h1M19 58h1M23 58h1M26 58h2M32 58h1M36 58h1M68 58h1M12 59h1M19 59h2M26 59h1M29 59h4M36 59h1M51 59h1M58 59h1M68 59h1M19 60h1M21 60h2M26 60h1M28 60h1M33 60h1M36 60h1M51 60h1M64 60h2M68 60h1M19 61h2M26 61h2M33 61h1M35 61h1M51 61h1M66 61h1M68 61h1M19 62h1M21 62h3M26 62h2M32 62h3M39 62h1M42 62h1M46 62h1M51 62h1M56 62h1M63 62h1M67 62h1M25 63h2M28 63h4M49 63h1M51 63h1M56 63h4M62 63h2M66 63h1M19 64h1M49 64h1M59 64h3M64 64h2M49 65h1M39 66h2M48 66h1M18 67h1M41 67h1M44 67h4M7 68h1M18 68h1M42 68h2M11 69h1M18 69h1M17 70h1M4 71h1M15 71h2M5 72h2M9 72h1M14 72h1M7 73h2M10 73h3" />
<path stroke="#a4a4a4" d="M59 24h1M64 24h1M59 25h1M65 25h1M60 26h1M67 26h1M61 27h1M62 29h1M20 36h2M19 37h1M18 38h1M23 38h1M60 38h1M20 39h1M28 39h1M60 39h1M19 40h1M60 40h1M15 41h2M31 41h2M60 41h1M15 42h3M22 42h1M28 42h5M16 43h1M21 43h1M29 43h3M33 43h1M16 44h1M24 44h3M30 44h1M33 44h2M46 44h3M14 45h1M22 45h4M47 45h3M13 46h1M23 46h1M12 47h1M48 47h4M12 48h1M19 48h1M50 48h3M13 49h1M19 49h1M25 49h1M18 50h2M19 51h1M39 51h2M19 52h2M37 52h1M32 53h1M35 53h2M31 54h6M30 55h6M31 56h3M18 57h1M14 58h1M14 60h1M29 60h1M31 60h2M12 61h3M28 61h1M30 61h3M11 62h3M28 62h1M30 62h2M40 62h1M47 63h1M45 64h1M7 69h1" />
<path stroke="#6a6a6a" d="M60 24h4M66 25h1M68 26h1M63 27h1M65 27h1M69 27h2M74 27h2M61 28h1M67 28h1M71 28h1M73 28h1M64 29h1M69 29h1M72 29h1M62 30h1M74 30h1M62 31h1M67 31h1M63 32h1M65 32h1M68 32h1M59 35h1M64 35h1M66 35h1M70 35h1M22 36h1M25 36h4M60 36h1M69 36h1M71 36h2M24 37h1M29 37h1M42 37h2M60 37h1M44 38h1M61 38h1M65 38h1M72 38h1M18 39h1M23 39h1M46 39h1M49 39h2M56 39h1M61 39h1M65 39h1M73 39h1M14 40h3M18 40h1M29 40h1M49 40h1M56 40h1M65 40h1M17 41h1M21 41h3M30 41h1M44 41h1M49 41h1M56 41h2M65 41h1M18 42h1M20 42h1M23 42h1M44 42h1M56 42h2M17 43h1M22 43h2M25 43h4M34 43h1M44 43h2M57 43h3M64 43h1M27 44h3M31 44h1M35 44h1M44 44h2M58 44h3M65 44h1M16 45h1M20 45h2M26 45h6M36 45h1M45 45h2M60 45h1M19 46h1M21 46h1M24 46h6M37 46h1M13 47h1M20 47h2M23 47h4M31 47h1M37 47h1M60 47h2M14 48h1M17 48h1M22 48h3M33 48h3M38 48h1M61 48h3M11 49h1M15 49h1M20 49h4M32 49h1M35 49h1M62 49h3M11 50h1M13 50h1M16 50h1M20 50h3M30 50h1M34 50h1M14 51h1M17 51h1M20 51h3M28 51h1M33 51h1M14 52h1M21 52h1M26 52h1M39 52h1M12 53h1M15 53h1M24 53h1M38 53h1M14 55h1M19 55h3M13 56h1M16 56h3M22 56h2M25 57h1M16 58h1M28 58h1M16 59h1M23 59h1M15 60h1M17 60h1M23 60h1M30 60h1M57 60h1M60 60h1M11 61h1M17 61h1M24 61h1M29 61h1M56 61h1M59 61h1M63 61h1M10 62h1M18 62h1M24 62h1M29 62h1M43 62h1M59 62h1M42 63h1M46 63h1M38 64h1M41 64h1M38 65h1M41 65h1M45 65h1M41 66h1M45 66h1M5 68h1M8 68h1M4 69h1M12 69h1M4 70h1M6 70h1M10 70h1M6 71h1M9 71h1M13 72h1" />
<path stroke="#ffffff" d="M60 25h5M61 26h6M62 27h1M66 27h3M62 28h2M68 28h3M74 28h1M63 29h1M70 29h2M73 29h2M64 30h1M71 30h3M64 31h1M71 31h3M69 32h4M20 37h2M25 37h3M19 38h4M24 38h5M19 39h1M21 39h2M24 39h4M22 40h1M24 40h3M15 45h1M14 46h2M14 47h1M13 48h1M12 49h1M14 49h1M26 49h1M33 49h1M12 50h1M14 50h2M25 50h2M31 50h2M12 51h2M15 51h2M29 51h2M12 52h2M16 52h2M27 52h2M13 53h2M17 53h2M25 53h2M13 54h2M17 58h1M17 59h1M24 59h1M24 60h1M57 61h1M60 61h3M64 61h2M60 62h2M64 62h1M40 63h2M43 63h2M39 64h2M42 64h3M46 64h2M39 65h2M42 65h3M46 65h2M42 66h2M46 66h1M42 67h2M5 69h2M8 69h1M5 70h1M7 70h2M11 70h2M5 71h1M7 71h2M10 71h4M7 72h1M10 72h3" />
<path stroke="#accdd5" d="M63 30h1M63 31h1M64 32h1M73 32h2M64 33h2M70 33h6M64 34h2M71 34h3M65 35h1M71 35h3M65 36h2M70 36h1M73 36h1M65 37h2M73 37h1M66 38h1M73 38h1M66 39h1M62 40h1M66 40h1M62 41h2M66 41h1M63 42h4M65 43h2M66 44h1M34 49h1M33 50h1M31 51h2M15 52h1M29 52h3M16 53h1M27 53h4M16 54h14M15 55h4M22 55h7M14 56h2M24 56h6M26 57h5M29 58h3" />
<path stroke="#8b6210" d="M42 35h3M39 36h2M43 36h2M46 36h2M57 36h1M37 37h1M46 37h3M48 38h1M51 38h2M58 38h1M34 40h1M47 41h1M51 41h1M59 41h1M48 42h1M51 42h1M48 43h1M52 43h1M52 44h1M15 47h1M27 48h1M53 48h1M27 49h1M54 49h1M41 50h1M59 50h1M44 51h1M57 51h2M23 52h1M45 52h3M53 52h1M22 53h1M65 53h1M45 54h1M52 54h1M59 54h1M37 55h1M44 55h1M36 56h1M44 56h1M59 56h1M66 56h1M34 57h3M43 57h1M51 57h1M59 57h1M33 58h3M42 58h1M51 58h1M58 58h1M33 59h3M40 59h2M59 59h1M61 59h3M12 60h1M34 60h2M39 60h1M34 61h1M38 61h1M40 61h2M43 61h3M20 62h1M38 62h1M47 62h1M19 63h1M38 63h1M51 64h1M18 65h1M50 65h1M5 66h1M18 66h1M4 67h1M7 67h3M4 68h1M11 68h2M14 69h1M15 70h1" />
<path stroke="#d5d5d5" d="M58 35h1M58 36h2M22 37h2M28 37h1M59 37h1M29 38h1M59 38h1M29 39h1M20 40h2M27 40h2M30 40h1M19 41h2M24 41h4M21 42h1M18 43h2M17 44h4M17 45h3M33 45h3M17 46h2M20 46h1M32 46h5M17 47h2M32 47h5M18 48h1M32 48h1M36 48h2M18 49h1M36 49h2M35 50h3M25 51h1M34 51h4M33 52h4M33 53h2M17 57h1M18 58h1M24 58h2M18 59h1M22 59h1M25 59h1M27 59h2M18 60h1M20 60h1M25 60h1M27 60h1M58 60h2M61 60h3M18 61h1M21 61h3M25 61h1M58 61h1M25 62h1M41 62h1M44 62h2M57 62h2M62 62h1M65 62h2M39 63h1M45 63h1M48 63h1M60 63h2M64 63h2M48 64h1M48 65h1M44 66h1M47 66h1M6 68h1M9 68h2M9 69h2M13 69h1M9 70h1M13 70h2M14 71h1M8 72h1" />
<path stroke="#d59c29" d="M38 37h4M55 37h1M36 38h4M46 38h2M53 38h2M35 39h3M47 39h2M51 39h3M35 40h2M47 40h2M50 40h4M34 41h3M48 41h1M50 41h1M52 41h2M34 42h2M49 42h2M52 42h2M35 43h1M49 43h3M53 43h1M50 44h2M53 44h2M51 45h1M53 45h2M53 46h3M61 46h1M30 47h1M38 47h1M53 47h4M62 47h1M15 48h2M28 48h3M39 48h1M54 48h7M16 49h1M28 49h3M39 49h2M52 49h2M55 49h7M27 50h2M42 50h2M50 50h4M56 50h3M60 50h5M26 51h1M45 51h9M59 51h6M48 52h5M58 52h7M46 53h7M59 53h6M46 54h6M60 54h6M45 55h7M60 55h6M45 56h7M64 56h2M44 57h7M65 57h2M46 58h5M66 58h2M49 59h2M60 59h1M64 59h1M67 59h1M50 60h1M66 60h2M42 61h1M46 61h1M50 61h1M67 61h1M48 62h1M50 62h1M9 63h1M50 63h1M7 64h2M50 64h1M6 65h1M6 67h1M10 67h1M13 68h1" />
<path stroke="#ffcd41" d="M56 37h2M40 38h4M55 38h3M38 39h8M54 39h2M57 39h2M37 40h10M54 40h2M57 40h2M37 41h7M45 41h2M54 41h2M58 41h1M36 42h8M45 42h3M54 42h2M58 42h2M36 43h8M46 43h1M54 43h3M36 44h8M55 44h3M37 45h8M55 45h5M38 46h7M56 46h5M39 47h7M57 47h3M40 48h8M41 49h8M44 50h6M60 56h4M60 57h5M43 58h3M59 58h7M42 59h7M65 59h2M16 60h1M40 60h10M15 61h2M39 61h1M47 61h3M14 62h4M49 62h1M12 63h7M13 64h6M14 65h4M15 66h3M15 67h3M15 68h3M15 69h3M16 70h1" />
<path stroke="#ffee94" d="M47 43h1M45 46h6M46 47h2M48 48h2M49 49h3M15 58h1M13 59h3M13 60h1M10 63h2M9 64h4M7 65h7M6 66h9M5 67h1M11 67h4M14 68h1" />
<path stroke="#c50000" d="M24 51h1M24 52h1M21 57h2M20 58h3M21 59h1" />
</svg>