<svg xmlns="http://www.w3.org/2000/svg" viewBox="0 -0.5 80 80" shape-rendering="crispEdges">
<metadata>Made with Pixels to Svg https://codepen.io/shshaw/pen/XbxvNj</metadata>
<path stroke="#b43931" d="M40 5h1M39 6h1M39 7h1M28 8h2M38 8h1M28 9h1M38 9h1M28 10h1M30 10h1M37 10h1M29 11h1M36 11h1M29 12h1M31 12h1M36 12h1M30 13h1M35 13h1M43 13h1M30 14h1M43 14h1M31 15h1M44 15h1M36 18h3M35 19h3M35 20h1M40 20h1M34 21h1M40 21h2M37 22h1M39 22h1M48 22h3M47 23h5M35 24h3M48 24h6M33 25h6M48 25h1M51 25h5M28 26h1M33 26h5M53 26h5M32 27h2M36 27h2M55 27h5M36 28h1M57 28h1M57 29h1M41 30h1M45 30h1M38 31h1M41 31h1M45 31h1M38 32h5M44 32h2M40 33h7M37 34h1M42 34h4M34 35h1M33 37h1M45 37h1M51 37h1M47 38h1M51 38h1M43 39h1M49 39h1M43 40h1M46 40h2M44 41h1M48 41h1M44 42h1M49 42h1M33 44h1M32 46h1M59 46h1M30 49h1M29 50h1" />
<path stroke="#523131" d="M41 5h1M37 7h2M42 7h2M40 8h1M44 8h2M30 9h1M46 9h2M39 10h1M48 10h1M31 11h1M50 11h1M38 12h1M42 12h2M51 12h1M32 13h1M41 13h1M53 13h1M33 14h1M37 14h1M54 14h1M34 15h1M37 15h1M55 15h1M31 16h1M39 16h1M56 16h1M32 17h1M36 17h2M58 17h1M32 18h1M59 18h1M38 19h2M60 19h1M37 20h1M41 20h1M61 20h1M38 21h1M48 21h2M63 21h1M34 22h1M40 22h1M47 22h1M51 22h1M64 22h1M13 23h1M34 23h1M37 23h1M52 23h2M65 23h1M12 24h1M15 24h1M32 24h1M34 24h1M38 24h1M47 24h1M54 24h1M66 24h1M11 25h1M15 25h1M29 25h3M56 25h1M67 25h1M11 26h1M24 26h4M38 26h1M42 26h1M44 26h1M48 26h1M52 26h1M59 26h1M68 26h1M11 27h1M20 27h2M34 27h2M51 27h1M54 27h1M69 27h1M13 28h1M17 28h1M30 28h1M41 28h1M45 28h1M52 28h1M56 28h1M60 28h1M70 28h1M11 29h1M14 29h1M19 29h1M28 29h1M46 29h1M48 29h1M52 29h1M68 29h1M9 30h1M20 30h1M34 30h1M40 30h1M46 30h1M49 30h1M53 30h1M61 30h1M69 30h1M8 31h1M16 31h1M20 31h1M24 31h1M34 31h1M50 31h1M55 31h1M70 31h1M8 32h1M11 32h1M17 32h1M21 32h1M67 32h1M71 32h1M8 33h1M11 33h1M18 33h1M21 33h1M64 33h2M68 33h2M72 33h1M9 34h1M12 34h1M18 34h1M29 34h5M63 34h1M72 34h1M10 35h1M17 35h1M29 35h1M35 35h1M48 35h1M62 35h1M66 35h1M17 36h1M49 36h1M31 37h2M46 37h1M50 37h1M58 37h1M64 37h1M68 37h1M35 38h1M48 38h1M52 38h1M57 38h1M61 38h3M69 38h1M35 39h1M50 39h1M53 39h1M56 39h1M60 39h1M65 39h1M67 39h1M69 39h1M33 40h1M54 40h1M56 40h1M34 41h1M55 41h1M33 42h1M47 42h2M56 42h1M33 43h1M44 43h1M57 43h1M44 44h1M58 44h1M32 45h1M31 47h1M30 48h1M46 48h2M50 48h1M60 48h1M49 49h1M47 50h1M28 51h1M27 52h1M50 52h1M27 53h1M26 54h1M60 54h1M26 55h1M49 55h1M60 55h1M25 56h1M38 56h1M60 56h1M25 57h1M25 58h1M59 58h1M24 59h1M24 60h1M46 60h1M60 60h1M23 61h1M37 61h1M45 61h1M59 61h1M61 61h1M23 62h1M61 62h1M22 64h1M22 65h1M37 65h1M46 65h1M62 65h1M39 66h1M50 67h2M56 67h1M20 68h1M53 68h1M39 70h1M23 72h1M26 72h1M33 72h3M37 72h1M20 73h1M28 73h1M29 75h1" />
<path stroke="#ff6a52" d="M40 6h1M40 7h1M39 8h1M29 9h1M39 9h1M29 10h1M38 10h1M30 11h1M37 11h2M30 12h1M37 12h1M31 13h1M36 13h2M32 14h1M36 14h1M32 15h2M35 15h2M32 16h5M33 17h3M33 18h2M33 19h2M33 20h2M29 26h2M27 27h4M28 28h2M37 35h2M37 36h5M36 37h6M36 38h6M36 39h6M35 40h7M35 41h6M34 42h7M34 43h6M34 44h6M33 45h7M33 46h6M32 47h7M31 48h7M31 49h6M30 50h7M29 51h4M34 51h2M28 52h4M34 52h1M28 53h4M28 54h3M28 55h2M28 56h2M28 57h1" />
<path stroke="#101010" d="M41 6h1M41 7h1M40 9h1M39 11h1M38 13h1M39 14h1M38 15h2M37 16h2M43 16h1M42 17h1M43 18h1M32 19h1M40 19h1M42 19h1M32 20h1M36 20h1M38 20h2M33 21h1M35 21h1M39 21h1M14 23h1M35 23h2M33 24h1M55 24h1M49 25h2M57 25h1M16 26h1M51 26h1M58 26h1M13 27h1M16 27h4M53 27h1M60 27h1M12 28h1M31 28h3M55 28h1M29 29h1M33 29h1M56 29h1M61 29h1M69 29h2M26 30h2M48 30h1M51 30h2M57 30h1M14 31h2M21 31h3M36 31h1M39 31h2M46 31h2M51 31h1M54 31h1M57 31h1M62 31h1M12 32h2M35 32h1M37 32h1M46 32h1M56 32h3M62 32h1M37 33h1M47 33h1M58 33h1M63 33h1M21 34h1M48 34h1M59 34h1M66 34h1M70 34h2M11 35h1M20 35h1M36 35h1M59 35h1M18 36h2M30 36h1M36 36h1M58 36h1M67 36h1M30 37h1M35 37h1M67 37h1M31 38h1M64 38h1M67 38h1M32 39h1M61 39h1M34 40h1M48 40h2M59 40h1M66 40h1M69 40h1M57 41h1M60 41h1M66 41h1M68 41h1M46 42h1M58 42h3M66 42h2M46 43h1M45 44h2M44 45h1M47 45h1M59 45h1M43 46h1M48 46h1M60 46h1M43 47h1M49 47h1M60 47h1M42 48h1M41 49h1M46 49h1M50 49h1M61 49h1M41 50h1M50 50h1M61 50h1M40 51h1M47 51h1M50 51h1M61 51h1M40 52h1M48 52h1M61 52h1M39 53h1M49 53h1M39 54h1M49 54h1M39 55h1M48 56h1M38 57h1M48 57h1M38 58h1M38 59h1M47 59h1M59 59h1M38 60h1M47 60h1M59 60h1M47 61h1M37 62h1M44 62h1M62 62h1M37 63h1M45 63h1M63 63h1M37 64h1M44 64h1M64 64h1M45 65h1M63 65h1M47 66h1M21 67h1M40 67h1M59 67h4M39 68h1M48 68h2M52 68h1M57 68h2M19 69h1M38 69h1M54 69h2M20 70h1M38 71h1M24 72h1M27 72h1M21 73h2M25 73h1M32 73h1M36 73h2M31 74h1M30 75h1" />
<path stroke="#8b7362" d="M35 8h2M34 9h1M33 10h1M32 11h1M49 11h1M32 12h1M40 13h1M52 13h1M57 17h1M62 21h1M58 22h1M59 23h1M61 24h1M43 25h1M47 25h1M62 25h1M15 26h1M23 26h1M64 26h1M14 27h2M22 27h1M26 27h1M45 27h1M65 27h1M14 28h3M27 28h1M61 28h1M67 28h1M15 29h4M24 29h1M27 29h1M40 29h1M59 29h2M62 29h1M10 30h1M13 30h5M22 30h1M24 30h2M38 30h1M58 30h3M64 30h1M12 31h2M17 31h1M58 31h2M65 31h1M10 32h1M18 32h1M60 32h2M9 33h1M19 33h1M59 33h1M20 34h1M61 34h2M60 35h1M63 35h1M59 36h1M62 36h3M61 37h3M65 37h2M59 38h2M68 38h1M57 39h3M68 39h1M57 40h1M67 40h2M48 49h1" />
<path stroke="#eed5ac" d="M37 8h1M41 8h3M35 9h3M41 9h4M34 10h3M40 10h6M33 11h3M40 11h7M33 12h3M39 12h3M44 12h3M33 13h2M39 13h1M44 13h4M34 14h1M38 14h1M44 14h4M45 15h3M44 16h2M47 16h2M44 17h2M47 17h2M45 18h1M48 18h1M45 19h2M45 20h2M44 21h3M43 22h4M42 23h5M39 24h4M44 24h3M39 25h4M44 25h3M12 26h1M39 26h3M45 26h2M12 27h1M38 27h4M46 27h3M37 28h4M46 28h3M37 29h3M47 29h1M36 30h2M39 30h1M47 30h1M37 31h1M10 34h2" />
<path stroke="#cdb49c" d="M45 9h1M46 10h2M47 11h2M47 12h3M48 13h4M48 14h5M48 15h7M46 16h1M49 16h7M43 17h1M46 17h1M49 17h8M44 18h1M46 18h2M49 18h9M43 19h2M47 19h13M42 20h3M47 20h14M42 21h2M47 21h1M50 21h6M57 21h5M41 22h2M52 22h5M59 22h4M40 23h2M54 23h4M60 23h5M56 24h4M62 24h4M58 25h3M63 25h4M47 26h1M60 26h3M65 26h3M52 27h1M61 27h3M66 27h3M34 28h2M49 28h1M53 28h2M62 28h4M68 28h2M34 29h3M49 29h1M53 29h3M64 29h3M35 30h1M54 30h3M62 30h1M65 30h3M35 31h1M56 31h1M63 31h2M67 31h3M63 32h3M68 32h3M70 33h2" />
<path stroke="#ac948b" d="M50 12h1M53 14h1M58 18h1M36 21h1M56 21h1M35 22h2M57 22h1M63 22h1M38 23h2M58 23h1M43 24h1M60 24h1M12 25h3M61 25h1M14 26h1M49 26h2M63 26h1M23 27h1M49 27h2M64 27h1M18 28h1M21 28h1M24 28h1M50 28h2M66 28h1M22 29h1M50 29h2M63 29h1M67 29h1M18 30h2M50 30h1M63 30h1M68 30h1M11 31h1M18 31h2M60 31h2M66 31h1M9 32h1M19 32h2M59 32h1M66 32h1M20 33h1M60 33h3M60 34h1M64 34h2M61 35h1M64 35h2M60 36h2M65 36h2M59 37h2M58 38h1M47 49h1M48 50h2M48 51h2M49 52h1" />
<path stroke="#de6231" d="M42 13h1M31 14h1M35 14h1M41 14h2M41 15h3M41 16h2M41 17h1M35 18h1M39 18h4M41 19h1M37 21h1M38 22h1M32 25h1M31 26h2M31 27h1M58 28h2M58 29h1M38 33h2M38 34h4M46 34h2M30 35h4M39 35h9M31 36h5M42 36h7M34 37h1M42 37h3M47 37h3M32 38h3M42 38h5M49 38h2M33 39h2M42 39h1M44 39h5M51 39h2M42 40h1M44 40h2M50 40h4M41 41h3M45 41h3M49 41h6M41 42h3M45 42h1M50 42h6M40 43h4M45 43h1M47 43h10M40 44h4M47 44h11M40 45h4M48 45h11M39 46h4M49 46h10M39 47h4M50 47h10M38 48h4M51 48h9M37 49h4M51 49h9M37 50h4M51 50h9M36 51h4M51 51h8M35 52h5M51 52h4M56 52h3M35 53h4M51 53h3M56 53h3M35 54h4M51 54h3M57 54h1M35 55h4M52 55h1M57 55h1M36 56h2M36 57h2M36 58h1" />
<path stroke="#e6ac5a" d="M40 14h1M40 17h1M43 26h1M43 27h2M42 28h3M41 29h5M42 30h3M43 31h1M60 49h1M60 50h1M59 51h2M32 52h1M55 52h1M59 52h2M33 53h2M50 53h1M54 53h2M59 53h1M27 54h1M33 54h2M50 54h1M54 54h3M58 54h2M30 55h1M33 55h2M50 55h2M53 55h4M58 55h2M32 56h4M49 56h11M32 57h4M49 57h10M28 58h1M32 58h4M37 58h1M49 58h10M31 59h7M48 59h11M31 60h7M48 60h11M30 61h7M48 61h11M60 61h1M30 62h7M48 62h13M30 63h7M47 63h16M29 64h3M33 64h4M45 64h19M29 65h2M33 65h3M47 65h14M28 66h2M33 66h3M37 66h1M48 66h14M28 67h1M32 67h1M34 67h2M37 67h3M49 67h1M52 67h4M57 67h1M33 68h3M37 68h2M54 68h1M27 69h1M32 69h1M34 69h4M21 70h1M26 70h2M31 70h1M33 70h6M24 71h4M32 71h2M35 71h3M25 72h1M31 72h2M36 72h1M30 73h2M30 74h1" />
<path stroke="#ffd56a" d="M40 15h1M40 16h1M38 17h2M33 51h1M33 52h1M32 53h1M31 54h2M27 55h1M31 55h2M26 56h2M30 56h2M26 57h2M29 57h3M26 58h2M29 58h3M25 59h6M25 60h6M24 61h6M24 62h6M24 63h6M23 64h6M32 64h1M23 65h6M31 65h2M23 66h5M30 66h3M22 67h6M29 67h3M33 67h1M21 68h12M20 69h7M28 69h4M33 69h1M22 70h4M28 70h3M32 70h1M22 71h2M28 71h4M21 72h2M28 72h3M29 73h1" />
<path stroke="#cdb4b4" d="M13 24h2M13 26h1M24 27h2M19 28h2M22 28h2M25 28h2M12 29h2M20 29h2M23 29h1M25 29h2M11 30h2M21 30h1M23 30h1M9 31h2M10 33h1M19 34h1M65 38h1M58 40h1M67 41h1" />
<path stroke="#a47b41" d="M42 27h1M42 31h1M44 31h1M43 32h1M60 53h1M59 57h1M48 58h1M46 61h1M45 62h3M23 63h1M46 63h1M36 65h1M61 65h1M22 66h1M36 66h1M38 66h1M62 66h1M36 67h1M48 67h1M58 67h1M36 68h1M55 68h1M21 71h1M34 71h1M20 72h1M29 74h1" />
<path stroke="#ffe69c" d="M18 35h2M66 38h1M66 39h1M58 41h2" />
</svg>