<svg xmlns="http://www.w3.org/2000/svg" viewBox="0 -0.5 80 80" shape-rendering="crispEdges">
<metadata>Made with Pixels to Svg https://codepen.io/shshaw/pen/XbxvNj</metadata>
<path stroke="#6a5a4a" d="M25 22h1M24 23h1M26 23h1M19 24h2M24 24h1M27 24h1M19 25h1M21 25h1M28 25h1M23 26h1M28 26h1M15 27h3M29 27h1M53 27h1M18 28h1M29 28h1M35 28h1M40 28h1M54 28h1M57 28h1M16 29h1M30 29h3M35 29h1M39 29h1M51 29h1M55 29h1M25 30h1M29 30h1M33 30h2M39 30h1M51 30h1M25 31h1M27 31h1M39 31h1M51 31h1M21 32h2M25 32h1M28 32h1M35 32h5M21 33h1M24 33h2M34 33h1M39 33h3M49 33h1M15 34h3M22 34h1M35 34h1M42 34h2M64 34h1M14 35h1M22 35h1M32 35h1M23 36h1M29 36h2M40 36h1M21 37h4M28 37h1M35 37h2M44 37h1M16 38h1M20 38h1M33 38h2M46 38h6M65 38h2M15 39h1M21 39h1M40 39h2M53 39h2M14 40h1M22 40h1M37 40h2M41 40h1M45 40h1M55 40h1M17 41h1M21 41h1M36 41h1M52 41h1M56 41h1M24 42h1M44 42h3M56 42h1M34 43h2M49 43h1M56 43h1M64 43h1M32 44h2M51 44h1M55 44h1M65 44h1M27 45h1M44 45h1M52 45h3M33 46h1M65 46h1M30 47h1M39 47h1M63 47h1M29 48h1M64 49h1M37 51h1M62 51h1M39 52h1M44 52h1M58 52h1M60 52h1M62 52h1M41 53h1M47 53h1M41 54h1M59 55h1M42 56h1M49 56h1M53 56h1M60 56h1M50 57h1M58 57h1M43 58h1M51 58h1M47 59h1" />
<path stroke="#e6d5ac" d="M25 23h1M25 24h2M20 25h1M25 25h2M20 26h2M25 26h3M20 27h3M25 27h3M16 28h2M20 28h4M25 28h4M17 29h3M21 29h4M26 29h3M19 30h6M27 30h2M38 30h1M21 31h4M28 31h1M54 31h1M57 31h1M24 32h1M32 33h1M33 34h1M40 34h2M15 35h5M33 35h3M40 35h3M16 36h6M33 36h4M41 36h3M20 37h1M41 37h3M41 38h3M42 39h1M64 39h2M40 40h1M42 40h1M63 40h2M37 41h6M30 42h3M39 42h3M28 43h4M27 44h3M31 47h2M40 47h2M30 48h2M39 48h4M42 49h3M44 50h2M44 54h1M31 55h1M33 55h1M43 55h2M46 56h1" />
<path stroke="#100000" d="M24 25h1M19 26h1M24 26h1M19 27h1M15 28h1M19 28h1M50 28h1M50 29h1M58 29h1M16 30h1M30 30h1M50 30h1M58 30h1M17 31h1M30 31h1M42 31h1M50 31h1M52 31h1M17 32h1M50 32h1M52 32h1M56 32h1M18 33h1M31 33h1M43 33h1M56 33h1M18 34h1M31 34h1M39 34h1M44 34h1M36 35h1M39 35h1M44 35h1M15 36h1M37 36h1M16 37h1M40 37h1M65 37h1M17 38h1M40 38h1M63 38h2M28 39h1M32 39h1M61 39h2M66 39h1M29 40h1M33 40h1M44 40h1M60 40h1M65 40h1M14 41h3M30 41h1M34 41h1M53 41h1M64 41h1M18 42h6M35 42h1M37 42h1M52 42h2M64 42h1M25 43h2M38 43h1M63 43h1M37 44h1M61 44h1M31 45h1M38 45h2M45 45h1M66 45h1M28 46h1M32 46h1M40 46h2M44 46h2M62 46h1M29 47h1M34 47h1M42 47h1M64 47h1M38 48h1M43 48h1M50 48h1M52 48h1M54 48h1M63 48h1M28 49h1M39 49h2M45 49h2M49 49h1M53 49h1M31 50h1M41 50h2M59 50h3M63 50h2M28 51h1M31 51h1M33 51h1M35 51h2M42 51h1M28 52h1M32 52h1M36 52h3M41 52h2M48 52h1M28 53h1M36 53h2M40 53h1M42 53h4M51 53h2M55 53h1M57 53h2M60 53h3M29 54h1M36 54h1M39 54h2M46 54h2M49 54h3M54 54h3M59 54h1M29 55h1M36 55h1M41 55h1M49 55h1M52 55h1M30 56h6M52 56h1M42 57h1M53 57h1M61 57h1M54 58h2M60 58h2M44 59h1M49 59h3M56 59h3M45 60h4" />
<path stroke="#c5ac8b" d="M27 25h1M22 26h1M23 27h1M28 27h1M35 27h2M24 28h1M37 28h1M25 29h1M29 29h1M38 29h1M54 29h1M17 30h2M35 30h1M18 31h3M35 31h2M18 32h3M23 32h1M19 33h2M20 34h2M32 34h1M20 35h2M43 35h1M22 36h1M44 36h1M17 37h3M18 38h2M16 39h5M31 39h1M63 39h1M15 40h7M30 40h3M39 40h1M18 41h3M31 41h3M33 42h2M38 42h1M32 43h2M39 43h2M30 44h2M38 44h3M63 44h2M28 45h3M40 45h1M64 45h2M29 46h3M63 46h2M33 47h1M61 47h2M32 48h4M61 48h2M29 49h6M41 49h1M62 49h2M32 50h2M43 50h1M62 50h1M32 51h1M43 51h4M58 51h4M43 52h1M45 52h3M56 52h2M59 52h1M61 52h1M46 53h1M56 53h1M59 53h1M42 54h2M45 54h1M35 55h1M42 55h1M45 55h4M57 55h2M47 56h2M56 56h4M48 57h2M57 57h1M46 58h3M45 59h1" />
<path stroke="#7b5a4a" d="M45 26h1M44 27h1M44 28h1M46 28h1M44 29h1M26 30h1M47 30h1M59 30h2M55 31h1M58 31h1M62 31h4M30 32h1M54 32h1M57 32h1M61 32h1M65 32h1M53 33h1M57 33h1M64 33h1M47 34h1M56 34h1M46 35h1M56 35h1M55 36h1M55 37h1M61 40h1M42 42h1M41 43h1M37 45h1M42 46h1M46 46h1M43 47h1M50 47h1M55 47h2M59 47h1M46 48h1M49 48h1M54 49h1M29 51h2M29 52h3M33 52h1M52 52h1M29 53h6M49 53h1M30 54h1M32 54h4M30 55h1M49 58h1" />
<path stroke="#a4947b" d="M24 27h1M52 28h1M20 29h1M56 29h1M55 30h1M19 34h1M48 53h1M48 54h1M52 54h2M57 54h2M53 55h4M54 56h2M54 57h3M59 57h1M57 58h1" />
<path stroke="#eebd9c" d="M45 27h1M45 28h1M45 29h2M48 29h1M43 30h1M45 30h2M48 30h1M43 31h5M59 31h1M44 32h2M58 32h2M62 32h3M58 33h6M48 34h3M57 34h6M47 35h5M57 35h6M46 36h6M56 36h2M61 36h1M47 37h4M60 37h5M59 38h3M43 43h2" />
<path stroke="#4a4129" d="M46 27h1M49 27h2M39 28h1M48 28h1M42 29h2M47 29h1M42 30h1M44 30h1M56 31h1M60 31h1M31 32h1M43 32h1M60 32h1M52 33h1M31 35h1M63 35h1M45 36h1M62 36h3M27 37h1M27 38h1M59 40h1M62 40h1M29 41h1M63 41h1M28 42h2M43 42h1M27 43h1M62 43h1M26 44h1M41 44h1M62 44h1M41 45h1M63 45h1M61 46h1M35 47h1M51 47h1M60 47h1M36 48h1M44 48h1M47 48h1M55 48h1M60 48h1M35 49h1M48 49h1M61 49h1M28 50h3M34 50h1M46 50h1M58 50h1M34 51h1M47 51h1M56 51h2M34 52h2M55 52h1M35 53h1M38 53h2M50 53h1M53 53h1M31 54h1M32 55h1M34 55h1M59 58h1" />
<path stroke="#ffeec5" d="M36 28h1M53 28h1M36 29h2M52 29h2M57 29h1M31 30h2M36 30h2M52 30h3M56 30h2M31 31h4M37 31h2M53 31h1M32 32h3M53 32h1M33 33h1M34 34h1M31 36h2M29 37h6M28 38h5M29 39h2M44 39h1M52 40h1M43 56h3M43 57h5M44 58h2M50 58h1M56 58h1M58 58h1" />
<path stroke="#ac7b5a" d="M49 28h1M41 29h1M49 29h1M49 30h1M26 31h1M29 31h1M48 31h2M26 32h2M29 32h1M47 32h3M22 33h2M26 33h5M44 33h1M46 33h3M23 34h8M45 34h2M63 34h1M23 35h8M45 35h1M24 36h5M25 37h2M21 38h6M22 39h6M37 39h3M55 39h1M23 40h6M34 40h3M53 40h1M56 40h3M22 41h7M35 41h1M44 41h1M51 41h1M54 41h1M57 41h6M25 42h3M36 42h1M51 42h1M54 42h1M57 42h7M36 43h2M48 43h1M53 43h1M57 43h5M56 44h5M36 45h1M51 45h1M55 45h8M34 46h6M43 46h1M50 46h11M36 47h3M44 47h6M52 47h3M57 47h2M37 48h1M45 48h1M48 48h1M53 48h1M56 48h4M36 49h3M55 49h6M35 50h6M54 50h4M38 51h4M51 51h1M53 51h3M40 52h1M51 52h1M53 52h2M54 53h1" />
<path stroke="#cd9c7b" d="M40 29h1M40 30h2M40 31h2M40 32h3M46 32h1M51 32h1M55 32h1M35 33h4M42 33h1M45 33h1M50 33h2M54 33h2M36 34h3M51 34h5M37 35h2M52 35h4M38 36h2M52 36h3M58 36h3M37 37h3M45 37h2M51 37h4M56 37h4M35 38h5M45 38h1M52 38h7M62 38h1M33 39h4M56 39h5M42 43h1M45 43h3M52 43h1M34 44h3M42 44h1M46 44h5M32 45h4M42 45h1M47 45h4M47 46h3M53 50h1M52 51h1M49 52h2" />
<path stroke="#413931" d="M44 38h1M43 39h1M45 39h8M43 40h1M46 40h6M54 40h1M43 41h1M45 41h6M55 41h1M47 42h4M55 42h1M50 43h2M54 43h2M43 44h3M52 44h3M43 45h1M46 45h1" />
<path stroke="#9c1800" d="M51 48h1M47 49h1M50 49h3M47 50h2M52 50h1" />
<path stroke="#cd3920" d="M49 50h3M48 51h3" />
<path stroke="#ffffff" d="M60 57h1M46 59h1M48 59h1" />
</svg>