<svg xmlns="http://www.w3.org/2000/svg" viewBox="0 -0.5 80 80" shape-rendering="crispEdges">
<metadata>Made with Pixels to Svg https://codepen.io/shshaw/pen/XbxvNj</metadata>
<path stroke="#949494" d="M16 22h1M16 23h1M16 24h1M13 25h5M12 26h1M13 27h1M14 28h1M15 29h1M32 38h3M31 39h1M30 40h1M34 40h1M29 41h1M20 44h3M28 44h1M19 45h4M33 45h1M19 46h1M62 51h1M58 52h4M58 53h1M53 54h1M58 54h1M54 55h2M58 55h1M56 56h3" />
<path stroke="#4a4a41" d="M17 22h2M19 23h2M21 24h2M23 25h1M28 29h1M29 30h1M29 31h1M29 32h1M30 33h1M24 34h1M30 34h1M24 35h1M30 35h1M25 36h1M30 36h1M25 37h1M31 37h1M26 38h1M31 38h1M26 39h1M27 40h1M27 41h1M49 43h2M27 44h1M51 44h2M32 45h1M58 48h2M30 49h1M45 49h1M60 49h1M46 50h1M61 50h1M25 51h2M22 52h1" />
<path stroke="#ffffff" d="M17 23h2M17 24h4M18 25h5M13 26h11M14 27h8M15 28h5M17 29h2M27 29h1M25 30h4M23 31h5M22 32h5M24 33h2M32 39h1M31 40h2M36 40h2M30 41h2M34 41h4M29 42h9M29 43h10M29 44h4M34 44h5M49 44h2M29 45h3M34 45h4M48 45h5M30 46h2M33 46h5M47 46h5M30 47h2M33 47h3M46 47h4M31 48h1M46 48h3M56 48h2M54 49h6M53 50h8M51 51h11M50 52h8M52 53h6M54 54h4M56 55h2" />
<path stroke="#416ae6" d="M24 26h2M26 27h1M27 28h1M17 30h1M18 31h2M20 32h2M45 38h1M48 39h1M48 41h1M53 45h2M55 46h2M57 47h1M47 51h2M49 52h1" />
<path stroke="#73a4ff" d="M22 27h4M20 28h7M19 29h8M18 30h7M20 31h3M42 39h2M45 39h3M47 40h3M49 42h2M52 46h3M50 47h7M49 48h7M47 49h7M47 50h6M49 51h2" />
<path stroke="#626262" d="M16 29h1M22 33h2M36 39h2M41 39h1M35 40h1M40 40h2M43 40h1M42 41h1M28 42h1M38 42h1M41 42h1M46 42h1M20 43h2M27 43h1M41 43h1M44 43h2M19 44h1M18 45h1M18 46h1M18 47h2M43 47h1M43 48h2M37 49h2M31 50h1M36 50h1M35 51h1M23 52h3M50 53h2M52 54h1" />
<path stroke="#d5cde6" d="M28 31h1M27 32h2M26 33h4M25 34h5M25 35h5M26 36h4M26 37h5M27 38h4M27 39h4M33 39h2M28 40h2M33 40h1M42 40h1M44 40h3M28 41h1M39 41h1M41 41h1M43 41h5M39 42h2M42 42h4M39 43h2M42 43h2M46 43h3M39 44h4M44 44h5M38 45h4M43 45h5M38 46h3M42 46h5M36 47h7M44 47h2M35 48h6M45 48h1M31 49h6M46 49h1M32 50h4" />
<path stroke="#101010" d="M35 38h1M42 38h2M46 38h2M35 39h1M38 39h1M44 39h1M49 39h1M38 40h2M50 40h1M38 41h1M40 41h1M49 41h2M47 42h2M51 42h1M28 43h1M51 43h1M33 44h1M43 44h1M42 45h1M20 46h3M32 46h1M41 46h1M23 47h3M32 47h1M26 48h4M41 48h2M24 49h3M39 49h2M23 50h1M37 50h1M22 51h1M29 51h2M32 51h3M26 52h3M23 53h3" />
<path stroke="#b4acc5" d="M32 41h2M30 48h1" />
<path stroke="#8b5210" d="M22 43h2M24 44h3M27 45h2M29 46h1M27 50h2M24 51h1" />
<path stroke="#ffeecd" d="M23 44h1M24 45h2" />
<path stroke="#ffac31" d="M23 45h1M26 45h1M23 46h6M26 47h3" />
<path stroke="#de8300" d="M29 47h1M29 50h2M27 51h2" />
<path stroke="#e6e6f6" d="M32 48h3" />
<path stroke="#9c2929" d="M27 49h3M24 50h3M23 51h1" />
</svg>