<svg xmlns="http://www.w3.org/2000/svg" viewBox="0 -0.5 80 80" shape-rendering="crispEdges">
<metadata>Made with Pixels to Svg https://codepen.io/shshaw/pen/XbxvNj</metadata>
<path stroke="#31628b" d="M7 12h3M62 12h3M6 13h1M10 13h1M61 13h1M67 13h2M6 14h1M10 14h1M61 14h1M69 14h1M10 15h1M12 15h2M60 15h1M70 15h1M10 16h1M14 16h1M28 16h4M60 16h1M10 17h1M14 17h1M26 17h1M35 17h1M60 17h1M71 17h1M11 18h1M24 18h1M38 18h1M59 18h1M65 18h1M72 18h1M23 19h1M59 19h1M73 19h1M7 20h1M14 20h1M17 20h1M22 20h1M59 20h1M69 20h1M11 21h1M58 21h1M64 21h1M58 22h1M8 23h1M15 23h1M18 23h1M58 23h1M68 23h1M72 23h1M12 24h1M57 24h1M63 24h1M16 25h1M57 25h1M12 26h2M19 26h1M57 26h1M67 26h1M71 26h1M11 27h1M14 27h3M18 27h2M57 27h1M62 27h1M56 28h1M66 28h1M70 28h1M56 29h1M61 29h1M55 30h1M57 30h1M65 30h1M69 30h1M55 31h1M58 31h2M61 31h1M54 32h1M62 32h2M68 32h1M53 33h1M64 33h1M52 34h1M65 34h2M65 36h1M64 37h1M48 60h1M33 62h1M43 62h1M46 62h1M28 63h1M35 63h1M43 63h1M47 63h1M28 64h1M30 64h1M33 64h1M42 64h1M44 64h1M48 64h1M29 65h1M45 65h1M30 66h2" />
<path stroke="#101010" d="M65 12h1M66 13h1M66 14h1M6 15h1M11 15h1M66 15h1M6 16h1M32 16h3M66 16h1M70 16h1M6 17h1M15 17h2M36 17h2M66 17h1M70 17h1M6 18h1M14 18h1M17 18h1M39 18h1M70 18h1M6 19h1M11 19h1M14 19h1M17 19h1M40 19h1M65 19h1M70 19h1M11 20h1M41 20h1M65 20h1M73 20h1M7 21h1M15 21h1M18 21h1M22 21h1M42 21h1M69 21h1M73 21h1M7 22h1M12 22h1M15 22h1M18 22h1M32 22h2M42 22h1M64 22h1M69 22h1M73 22h1M12 23h1M23 23h1M30 23h1M34 23h1M41 23h1M64 23h1M8 24h1M16 24h1M19 24h1M32 24h1M35 24h1M40 24h1M68 24h1M72 24h1M8 25h1M13 25h1M19 25h1M31 25h3M35 25h1M63 25h1M68 25h1M72 25h1M9 26h1M17 26h1M39 26h1M63 26h1M9 27h1M20 27h1M31 27h3M38 27h1M67 27h1M71 27h1M10 28h1M29 28h1M32 28h1M38 28h1M62 28h1M30 29h1M66 29h1M70 29h1M31 30h2M39 30h1M61 30h1M34 31h1M60 31h1M65 31h1M69 31h1M8 32h4M40 32h1M64 32h1M13 33h5M22 33h1M24 33h2M41 33h1M68 33h1M20 34h2M27 34h2M42 34h1M67 34h1M14 35h6M30 35h5M44 35h1M66 35h1M46 36h4M24 37h8M17 38h5M47 38h1M45 39h1M61 40h1M58 41h1M56 42h2M53 43h2M53 44h1M53 45h1M53 46h1M53 47h1M52 49h1M52 50h1M51 51h1M51 52h1M50 54h1M49 55h1M48 56h1M47 57h1M45 58h1M47 58h1M43 59h1M48 59h1M40 60h2M36 61h3M41 61h1M49 61h1M26 62h7M35 62h1M41 62h1M49 62h1M41 63h1M49 63h1M36 64h1M47 64h1M49 64h1M31 65h1M34 65h1M36 65h1M42 65h1M44 65h1M47 65h1M32 66h1M34 66h3M43 66h2M46 66h2M33 67h2" />
<path stroke="#a4e6ff" d="M7 13h3M62 13h3M9 14h1M62 14h2M67 14h2M61 15h2M69 15h1M61 16h2M28 17h2M61 17h2M26 18h5M60 18h3M24 19h7M60 19h2M24 20h6M60 20h2M25 21h3M59 21h3M59 22h3M59 23h2M58 24h3M58 25h3M58 26h2M58 27h2M57 28h2M57 29h2" />
<path stroke="#5aa4cd" d="M65 13h1M7 14h1M64 14h2M7 15h2M64 15h2M67 15h2M7 16h3M11 16h1M63 16h3M67 16h3M7 17h3M11 17h2M27 17h1M31 17h4M63 17h3M67 17h3M7 18h4M12 18h2M15 18h2M25 18h1M32 18h6M63 18h2M66 18h4M71 18h1M7 19h4M12 19h2M15 19h2M32 19h1M38 19h2M63 19h2M66 19h4M71 19h2M8 20h3M12 20h2M15 20h2M40 20h1M62 20h3M66 20h3M70 20h3M8 21h3M12 21h3M16 21h2M62 21h2M65 21h4M70 21h3M8 22h4M13 22h2M16 22h2M25 22h4M62 22h2M65 22h4M70 22h3M9 23h3M13 23h2M16 23h2M25 23h4M62 23h2M65 23h3M69 23h3M9 24h3M13 24h3M17 24h2M25 24h3M61 24h2M64 24h4M69 24h3M9 25h4M14 25h2M17 25h2M27 25h1M61 25h2M64 25h4M69 25h3M10 26h2M14 26h3M18 26h1M61 26h2M64 26h3M68 26h3M10 27h1M60 27h2M63 27h4M68 27h3M60 28h2M63 28h3M67 28h3M59 29h2M62 29h4M67 29h3M59 30h2M62 30h3M66 30h3M62 31h3M66 31h3M65 32h3M65 33h3M46 58h1M44 59h4M42 60h4M42 61h2M34 62h1M47 62h1M29 63h6M48 63h1M29 64h1M31 64h2M34 64h2M43 64h1M45 64h1M30 65h1M32 65h2M35 65h1M43 65h1M46 65h1M33 66h1" />
<path stroke="#7bcdee" d="M8 14h1M9 15h1M63 15h1M12 16h2M13 17h1M30 17h1M31 18h1M31 19h1M62 19h1M23 20h1M30 20h1M24 21h1M28 21h2M61 23h1M60 26h1M59 28h1M58 30h1M46 60h2M44 61h5M42 62h1M44 62h2M48 62h1M42 63h1M44 63h3M46 64h1" />
<path stroke="#cdd5ee" d="M33 19h5M31 20h9M23 21h1M30 21h12M24 22h1M34 22h8M36 23h5M38 24h2M13 27h1M17 27h1M29 27h1M13 28h3M35 28h1M56 30h1M59 32h3M40 33h1M58 33h5M14 34h4M40 34h2M57 34h8M41 35h2M56 35h10M41 36h4M55 36h10M41 37h8M54 37h10M41 38h6M52 38h11M41 39h4M50 39h11M41 40h2M48 40h12M41 41h17M41 42h14M41 43h11M42 44h6M52 44h1M42 45h11M42 46h11M42 47h11M43 48h9M43 49h9M44 50h7M46 51h3" />
<path stroke="#737383" d="M23 22h1M31 22h1M24 24h1M29 24h1M31 24h1M33 24h1M24 25h1M29 25h1M39 25h1M29 26h1M35 26h1M35 27h1M31 28h1M33 28h1M38 29h1M39 31h1M12 33h1M13 34h1M43 35h1M51 35h1M45 36h1M50 36h1M49 37h1M48 38h1M63 38h1M46 39h1M62 39h1M43 40h2M60 40h1M59 41h1M55 42h1M52 43h1M48 44h4M49 51h1" />
<path stroke="#ffffff" d="M29 22h2M24 23h1M29 23h1M31 23h3M35 23h1M28 24h1M30 24h1M34 24h1M36 24h2M28 25h1M30 25h1M34 25h1M36 25h3M28 26h1M30 26h5M36 26h3M12 27h1M30 27h1M34 27h1M36 27h2M11 28h2M30 28h1M34 28h1M36 28h2M31 29h7M34 30h5M37 31h2M56 31h2M38 32h2M55 32h4M54 33h4M53 34h4M52 35h4M51 36h4M50 37h4M49 38h3M47 39h3M45 40h3" />
<path stroke="#8b4131" d="M25 25h2M24 26h1M27 26h1M23 27h1M28 27h1M21 28h2M27 29h1M26 30h1M33 30h1M35 31h2M7 32h1M12 32h1M18 32h6M37 32h1M26 33h1M38 33h1M9 34h4M29 34h1M39 34h1M7 35h2M13 35h1M35 35h2M40 35h1M6 36h1M33 36h2M40 36h1M5 37h1M11 37h5M23 37h1M32 37h1M40 37h1M5 38h1M9 38h2M16 38h1M22 38h1M40 38h1M5 39h1M8 39h1M40 39h1M5 40h1M40 40h1M5 41h1M40 41h1M5 42h1M40 42h1M6 43h1M6 44h1M41 44h1M6 45h1M41 45h1M7 46h1M41 46h1M7 47h1M7 48h1M42 48h1M52 48h1M8 49h1M8 50h1M43 50h1M51 50h1M9 51h1M45 51h1M50 51h1M9 52h1M10 53h1M50 53h1M11 54h1M12 55h1M13 56h1M14 57h1M46 57h1M15 58h1M44 58h1M16 59h2M42 59h1M18 60h3M39 60h1M21 61h3M34 61h2M24 62h2" />
<path stroke="#ffde4a" d="M25 26h2M24 27h4M23 28h4M16 29h10M12 30h13M11 31h6M28 31h3M26 32h4M37 35h2M7 36h1M36 36h3M6 37h1M34 37h5M13 38h3M26 38h13M11 39h27M9 40h29M9 41h29M9 42h28M9 43h28M9 44h28M10 45h26M10 46h26M10 47h25M10 48h25M11 49h23M11 50h22M12 51h20M12 52h19M13 53h16M13 54h14M14 55h11M14 56h8M15 57h3M17 58h2M18 59h3M21 60h3" />
<path stroke="#d58308" d="M16 28h5M10 29h6M28 29h1M8 30h2M27 30h1M7 31h1M23 33h1M39 33h1M22 34h5M36 34h2M20 35h4M9 36h12M7 37h4M7 38h2M39 43h2M39 44h1M39 45h1M39 46h1M38 47h1M41 47h1M38 48h1M38 49h1M42 49h1M37 50h1M37 51h1M44 51h1M36 52h1M46 52h3M49 54h1M48 55h1M47 56h1" />
<path stroke="#f6b431" d="M27 28h2M26 29h1M29 29h1M25 30h1M28 30h3M17 31h11M31 31h3M13 32h5M24 32h2M30 32h7M27 33h11M30 34h6M38 34h1M9 35h4M39 35h1M8 36h1M35 36h1M39 36h1M33 37h1M39 37h1M39 38h1M38 39h2M38 40h2M38 41h2M37 42h3M37 43h2M37 44h2M40 44h1M36 45h3M40 45h1M36 46h3M40 46h1M35 47h3M39 47h2M35 48h3M39 48h3M34 49h4M39 49h3M33 50h4M38 50h5M32 51h5M38 51h6M31 52h5M37 52h9M49 52h2M29 53h21M27 54h22M25 55h23M22 56h25M18 57h28M16 58h1M19 58h25M21 59h21M24 60h15M24 61h10" />
<path stroke="#ffffac" d="M10 30h2M8 31h3M6 38h1M11 38h2M23 38h3M6 39h2M9 39h2M6 40h3M6 41h3M6 42h3M7 43h2M7 44h2M7 45h3M8 46h2M8 47h2M8 48h2M9 49h2M9 50h2M10 51h2M10 52h2M11 53h2M12 54h1M13 55h1" />
<path stroke="#9cb4c5" d="M18 33h4M63 33h1M18 34h2M61 39h1" />
<path stroke="#cd4152" d="M24 35h6M21 36h12M16 37h7" />
</svg>