<svg xmlns="http://www.w3.org/2000/svg" viewBox="0 -0.5 80 80" shape-rendering="crispEdges">
<metadata>Made with Pixels to Svg https://codepen.io/shshaw/pen/XbxvNj</metadata>
<path stroke="#e65239" d="M49 14h1M48 15h1M28 16h3M46 16h1M49 16h3M28 17h5M47 17h5M28 18h4M46 18h6M29 19h2M45 19h7M29 20h2M45 20h6M44 21h3M50 21h1M44 22h1M41 27h1M41 28h1M39 29h1M41 29h1M40 30h1" />
<path stroke="#7b5252" d="M50 14h1M27 15h4M47 15h1M51 15h1M26 16h1M31 16h2M26 17h1M45 17h1M44 18h1M27 19h1M43 20h1M28 21h1M47 21h3M29 22h1M45 22h1M43 23h1M40 27h1" />
<path stroke="#73bd73" d="M38 15h2M37 16h1M42 16h1M38 17h7M36 18h2M35 19h1M43 19h1M34 20h1M33 21h1M42 21h1M33 22h1M47 22h3M32 23h1M47 23h3M48 24h3M28 25h1M30 25h1M42 25h1M44 25h1M50 25h1M28 26h1M30 26h1M40 26h1M44 26h1M50 26h2M27 27h1M30 27h3M38 27h1M44 27h1M50 27h2M27 28h1M29 28h1M31 28h2M34 28h4M44 28h1M51 28h2M28 29h2M31 29h2M34 29h4M44 29h1M51 29h2M26 30h2M29 30h1M32 30h2M35 30h2M44 30h1M51 30h2M26 31h1M28 31h2M31 31h1M33 31h1M36 31h1M44 31h1M51 31h3M26 32h4M31 32h1M34 32h1M43 32h1M52 32h2M25 33h5M31 33h2M43 33h1M52 33h2M26 34h4M31 34h2M43 34h1M52 34h2M26 35h4M31 35h2M43 35h1M52 35h1M28 36h2M31 36h2M43 36h1M43 37h1M43 38h1M43 44h1M42 45h4M41 46h6M40 47h4M46 47h2M39 48h3M45 48h2M39 49h2M45 49h2M39 50h1M45 50h1M44 51h2M44 52h1M44 53h1M43 54h1M42 55h2M40 56h1M42 56h1M40 57h1M42 57h1M41 61h1M43 64h1" />
<path stroke="#317b4a" d="M40 15h2M35 16h2M43 16h2M33 17h2M32 18h1M31 20h1M30 22h1M42 22h1M46 22h1M29 23h1M42 23h1M50 23h1M29 24h1M32 24h1M29 25h1M32 25h1M43 25h1M49 25h1M51 25h1M32 26h1M41 26h1M49 26h1M39 27h1M49 27h1M52 27h1M33 28h1M38 28h1M50 28h1M33 29h1M50 29h1M30 30h1M34 30h1M37 30h1M50 30h1M30 31h1M32 31h1M34 31h2M37 31h1M50 31h1M30 32h1M35 32h3M51 32h1M30 33h1M33 33h1M37 33h2M51 33h1M25 34h1M30 34h1M33 34h1M51 34h1M25 35h1M30 35h1M33 35h1M51 35h1M25 36h3M30 36h1M33 36h1M43 43h1M44 44h1M46 45h1M47 46h1M44 47h2M38 48h1M42 48h3M47 48h1M38 49h1M41 49h1M44 49h1M38 50h1M41 50h1M44 50h1M46 50h1M39 51h1M41 51h1M43 51h1M39 52h1M41 52h1M43 52h1M45 52h1M39 53h1M41 53h1M43 53h1M39 54h1M42 54h1M44 54h1M39 55h1M43 56h1M43 57h1M40 58h1M43 58h1M39 59h2M43 59h1M39 60h2M43 60h1M39 61h1M39 62h1M41 62h1M43 63h1" />
<path stroke="#ff9c83" d="M49 15h2M27 16h1M47 16h2M27 17h1M46 17h1M27 18h1M45 18h1M28 19h1M44 19h1M28 20h1M44 20h1M29 21h1M43 21h1M43 22h1" />
<path stroke="#cdffac" d="M38 16h4M35 17h3M33 18h3M38 18h6M32 19h3M36 19h7M32 20h2M35 20h8M31 21h2M34 21h8M31 22h2M34 22h8M31 23h1M33 23h9M31 24h1M33 24h8M33 25h6M33 26h4M45 28h2M45 29h5M45 30h5M45 31h5M44 32h7M44 33h7M44 34h7M44 35h7M44 36h5M44 37h2M40 54h2M40 55h2M41 56h1M41 57h1M41 58h2M41 59h2M41 60h2M42 61h1M42 62h1M42 63h1M42 64h1" />
<path stroke="#101010" d="M52 16h1M52 17h1M52 18h1M31 19h1M56 19h1M51 20h1M56 20h1M30 21h1M51 21h1M56 21h1M50 22h1M56 22h1M51 23h1M55 23h1M51 24h1M55 24h1M54 25h1M29 26h1M52 26h2M29 27h1M30 28h1M40 28h1M53 28h1M30 29h1M38 29h1M40 29h1M53 29h1M31 30h1M53 30h1M54 31h1M32 32h2M54 32h1M34 33h3M41 33h2M54 33h1M37 34h1M39 34h2M42 34h1M54 34h1M53 35h2M49 36h2M52 36h1M46 37h3M36 38h4M44 38h2M39 39h1M23 40h1M30 40h3M24 41h5M46 41h3M49 42h4M53 43h1M53 44h3M55 45h1M48 46h2M54 46h1M50 47h4M36 49h2M47 49h1M34 50h2M46 51h1M45 53h1M44 55h1M39 57h1M39 58h1M38 59h1M38 60h1M38 61h1M40 61h1M43 61h1M38 62h1M40 62h1M43 62h1M39 63h3M41 64h1M42 65h2" />
<path stroke="#6a7b94" d="M54 18h2M53 19h1M53 20h1M55 20h1M52 21h1M52 22h1M43 27h1M43 28h1M38 34h1M39 35h1M41 35h1M38 36h1M31 37h4M39 37h2M35 38h1M40 38h1M23 39h1M25 39h1M33 39h2M44 39h1M24 40h1M29 40h1M39 40h1M45 40h1M37 41h2M33 42h4M46 42h1M32 43h1M30 44h2M52 44h1M29 45h1M38 45h1M47 45h1M35 46h2M30 47h1M32 47h2M31 48h2M33 49h1" />
<path stroke="#c5cdde" d="M54 19h1M54 20h1M53 21h3M53 22h3M53 23h2M54 24h1M42 26h2M43 29h1M39 30h1M42 30h1M42 32h1M40 35h1M39 36h2M35 37h4M34 38h1M47 42h2M48 43h5M49 44h1M48 45h7M29 46h1M50 46h4" />
<path stroke="#a4b4cd" d="M55 19h1M52 23h1M52 24h2M52 25h2M39 33h2M42 35h1M36 36h2M42 36h1M28 37h3M24 38h1M26 39h1M45 41h1M37 42h1M35 43h2M32 44h3M50 44h2M37 45h1M34 47h1" />
<path stroke="#94e694" d="M30 23h1M44 23h3M30 24h1M41 24h7M31 25h1M39 25h3M45 25h4M31 26h1M37 26h3M45 26h4M28 27h1M33 27h5M45 27h4M28 28h1M47 28h3M27 29h1M28 30h1M27 31h1M40 50h1M40 51h1M40 52h1M40 53h1" />
<path stroke="#ffffff" d="M42 27h1M39 28h1M42 28h1M42 29h1M41 30h1" />
<path stroke="#8394b4" d="M38 30h1" />
<path stroke="#eeeeff" d="M43 30h1M38 31h6M38 32h4M41 36h1M41 37h2M25 38h9M41 38h2M24 39h1M27 39h6M40 39h4M25 40h4M40 40h5M39 41h6M38 42h8M33 43h2M37 43h6M44 43h4M35 44h8M45 44h4M30 45h7M39 45h3M30 46h5M37 46h4M31 47h1M35 47h5M33 48h5M34 49h2" />
</svg>