<svg xmlns="http://www.w3.org/2000/svg" viewBox="0 -0.5 80 80" shape-rendering="crispEdges">
<metadata>Made with Pixels to Svg https://codepen.io/shshaw/pen/XbxvNj</metadata>
<path stroke="#9c7318" d="M32 8h3M31 9h1M35 9h1M30 11h1M37 11h1M40 11h3M25 12h4M39 12h1M44 12h1M24 13h1M38 13h1M45 13h1M23 14h1M38 14h1M23 15h1M37 15h1M23 16h1M45 17h1M49 19h4M16 20h1M48 20h1M53 20h2M15 21h1M47 21h4M65 21h4M15 22h1M46 22h1M55 22h1M63 22h1M69 22h2M16 23h1M50 23h1M55 23h1M62 23h1M55 24h2M61 24h1M55 25h2M54 26h3M60 26h1M50 27h1M54 27h3M60 27h1M53 28h3M54 29h2M59 29h1M59 30h1M43 38h1M40 40h1" />
<path stroke="#ffde5a" d="M32 9h3M32 10h3M31 11h3M30 12h4M41 12h3M25 13h2M30 13h3M40 13h5M24 14h4M29 14h4M39 14h5M24 15h4M29 15h3M38 15h6M24 16h1M28 16h4M41 16h2M28 17h3M30 18h1M16 21h1M16 22h2M47 22h4M65 22h4M17 23h2M45 23h4M63 23h7M17 24h1M45 24h4M62 24h8M45 25h4M62 25h8M45 26h2M61 26h9M61 27h8M61 28h8M60 29h1M65 29h3M67 30h1M39 36h2M38 37h3M37 38h5M16 39h1M37 39h3M16 40h1M38 40h1M16 41h1M38 41h1" />
<path stroke="#101010" d="M36 9h1M30 10h1M37 10h1M38 11h1M43 11h2M29 12h1M38 12h1M45 12h1M29 13h1M46 13h1M28 14h1M46 14h1M28 15h1M46 15h1M27 16h1M46 16h1M27 17h1M26 18h1M45 18h1M18 19h1M22 19h1M44 19h1M19 20h1M22 20h1M44 20h1M47 20h1M20 21h1M43 21h1M46 21h1M55 21h1M21 22h1M43 22h1M51 22h1M56 22h1M52 23h1M56 23h1M71 23h1M49 24h2M52 24h1M57 24h1M72 24h1M17 25h1M50 25h1M52 25h1M57 25h1M72 25h1M52 26h1M57 26h1M73 26h1M34 27h1M51 27h1M57 27h1M73 27h1M30 28h1M34 28h1M48 28h2M56 28h1M73 28h1M30 29h1M34 29h1M46 29h2M56 29h1M73 29h1M30 30h1M44 30h2M47 30h2M55 30h1M73 30h1M26 31h1M33 31h1M43 31h1M49 31h2M54 31h1M59 31h1M73 31h1M42 32h1M51 32h1M53 32h1M72 32h1M42 33h1M49 33h5M61 33h1M72 33h1M42 34h1M53 34h4M61 34h1M71 34h1M26 35h2M30 35h4M42 35h1M61 35h1M70 35h1M24 36h1M31 36h1M34 36h1M43 36h1M61 36h1M69 36h1M17 37h1M20 37h4M35 37h1M43 37h1M62 37h1M68 37h1M16 38h1M20 38h1M62 38h1M68 38h1M15 39h1M18 39h2M21 39h1M36 39h1M44 39h1M62 39h1M67 39h1M15 40h1M21 40h1M37 40h1M41 40h1M44 40h1M48 40h2M63 40h1M67 40h1M15 41h1M21 41h1M37 41h1M41 41h1M44 41h1M50 41h2M53 41h1M63 41h1M67 41h1M16 42h1M20 42h2M38 42h1M43 42h1M52 42h2M64 42h1M66 42h1M17 43h3M21 43h1M39 43h4M54 43h1M65 43h2M22 44h1M40 44h1M54 44h1M66 44h1M22 45h1M40 45h1M45 45h1M55 45h1M21 46h2M40 46h1M45 46h1M55 46h1M6 47h1M20 47h1M40 47h1M45 47h1M47 47h1M56 47h1M6 48h1M19 48h1M23 48h1M40 48h1M44 48h1M47 48h1M56 48h1M69 48h1M7 49h2M10 49h1M18 49h1M23 49h1M40 49h1M44 49h1M46 49h1M57 49h1M69 49h1M9 50h1M16 50h2M23 50h1M44 50h1M46 50h1M58 50h1M67 50h2M9 51h1M13 51h3M41 51h1M44 51h2M58 51h1M62 51h1M8 52h1M13 52h1M22 52h1M41 52h1M44 52h1M47 52h1M59 52h1M63 52h5M8 53h1M12 53h1M21 53h1M41 53h1M44 53h1M47 53h1M59 53h1M63 53h1M65 53h1M68 53h2M73 53h1M9 54h3M44 54h1M46 54h1M59 54h1M63 54h1M65 54h1M70 54h3M44 55h1M46 55h1M59 55h1M62 55h1M65 55h1M42 56h1M45 56h2M60 56h3M64 56h1M42 57h1M45 57h2M61 57h1M64 57h1M20 58h1M41 58h1M45 58h2M60 58h1M64 58h1M20 59h1M39 59h2M44 59h1M47 59h1M58 59h1M60 59h1M63 59h1M21 60h1M44 60h1M47 60h1M58 60h2M63 60h1M21 61h1M43 61h1M48 61h1M53 61h2M56 61h1M58 61h1M62 61h1M22 62h1M42 62h1M49 62h2M52 62h2M56 62h1M58 62h1M61 62h1M23 63h1M27 63h6M42 63h5M50 63h1M55 63h1M59 63h2M24 64h3M33 64h4M41 64h1M47 64h3M51 64h4M59 64h1M33 65h1M38 65h3M50 65h1M60 65h1M32 66h1M49 66h1M61 66h1M30 67h2M61 67h1M19 68h3M28 68h2M62 68h1M22 69h2M25 69h3M52 69h1M57 69h2M62 69h1M48 70h1M51 70h1M53 70h1M56 70h1M59 70h1M62 70h1M49 71h2M54 71h2M60 71h2" />
<path stroke="#deb44a" d="M31 10h1M35 10h2M34 11h3M34 12h4M40 12h1M27 13h2M33 13h5M39 13h1M33 14h5M44 14h2M32 15h5M44 15h2M32 16h4M43 16h3M31 17h5M43 17h2M31 18h4M44 18h1M32 19h2M17 20h2M49 20h4M17 21h3M51 21h4M18 22h3M52 22h3M64 22h1M51 23h1M53 23h2M70 23h1M51 24h1M53 24h2M70 24h2M51 25h1M53 25h2M61 25h1M70 25h2M47 26h5M53 26h1M70 26h3M46 27h4M52 27h2M69 27h4M60 28h1M69 28h4M68 29h5M68 30h5M68 31h5M68 32h4M69 33h3M69 34h2M69 35h1M41 36h1M41 37h2M42 38h1M40 39h4M39 40h1M43 40h1M17 41h1M39 41h1M42 41h2M17 42h3M39 42h4" />
<path stroke="#bdbdee" d="M25 16h1M38 16h2M24 17h2M37 17h2M24 18h1M27 18h2M37 18h1M27 19h1M26 20h2M26 21h1M22 23h2M44 23h1M21 24h4M43 24h2M19 25h6M42 25h2M18 26h5M27 26h2M18 27h3M26 27h2M18 28h1M25 28h2M58 33h2M58 34h1M57 35h1M57 36h1M21 54h1M20 55h2M20 56h2M19 57h1M25 59h1M25 60h2M26 61h6" />
<path stroke="#a49cde" d="M26 16h1M37 16h1M40 16h1M26 17h1M39 17h4M25 18h1M29 18h1M36 18h1M38 18h4M23 19h3M28 19h2M35 19h7M23 20h2M28 20h1M35 20h6M23 21h2M27 21h2M34 21h7M22 22h2M25 22h3M30 22h2M33 22h7M24 23h17M43 23h1M25 24h18M25 25h2M28 25h14M44 25h1M23 26h3M29 26h4M36 26h9M21 27h4M28 27h3M35 27h8M19 28h5M27 28h2M35 28h6M50 28h3M19 29h5M25 29h3M35 29h5M48 29h4M19 30h5M35 30h4M19 31h6M34 31h5M18 32h8M33 32h6M17 33h22M60 33h1M18 34h4M23 34h2M33 34h7M59 34h1M18 35h3M22 35h1M34 35h6M58 35h2M35 36h4M58 36h1M36 37h2M57 37h2M56 38h6M17 39h1M55 39h7M17 40h2M55 40h4M55 41h2M59 41h4M56 42h8M14 43h1M16 43h1M56 43h5M14 44h1M16 44h2M57 44h2M61 44h4M12 45h1M14 45h4M23 45h1M57 45h9M10 46h3M14 46h3M23 46h1M58 46h4M7 47h9M24 47h1M59 47h1M62 47h4M8 48h3M12 48h3M24 48h1M41 48h1M59 48h5M66 48h3M11 49h3M24 49h1M41 49h1M59 49h10M11 50h2M24 50h1M42 50h1M60 50h2M63 50h4M69 50h1M10 51h2M24 51h1M42 51h1M60 51h2M69 51h2M9 52h2M24 52h1M42 52h1M60 52h3M71 52h2M23 53h1M42 53h1M60 53h3M23 54h1M42 54h1M60 54h3M23 55h1M43 55h1M60 55h2M23 56h1M43 56h1M20 57h1M23 57h1M43 57h1M19 58h1M24 58h1M42 58h1M19 59h1M20 60h1M40 60h1M20 61h1M24 61h2M32 61h4M40 61h1M21 62h1M23 62h2M35 62h2" />
<path stroke="#4a4a83" d="M36 16h1M23 17h1M23 18h1M35 18h1M26 19h1M34 19h1M22 21h1M33 21h1M32 22h1M44 22h2M21 23h1M41 23h2M20 24h1M18 25h1M17 26h1M33 26h3M17 27h1M25 27h1M31 27h1M29 28h1M18 29h1M24 29h1M18 30h1M34 30h1M46 30h1M66 30h1M18 31h1M27 31h1M44 31h5M67 31h1M17 32h1M28 32h5M43 32h8M58 32h3M67 32h1M16 33h1M43 33h6M57 33h1M66 33h3M16 34h2M22 34h1M43 34h7M57 34h1M66 34h3M16 35h1M21 35h1M25 35h1M43 35h6M56 35h1M65 35h4M17 36h2M44 36h5M56 36h1M64 36h5M44 37h5M61 37h1M63 37h5M17 38h1M35 38h2M44 38h5M63 38h5M45 39h5M63 39h4M45 40h3M50 40h1M60 40h3M64 40h3M14 41h1M45 41h5M58 41h1M64 41h3M15 42h1M44 42h8M65 42h1M13 43h1M15 43h1M22 43h1M43 43h11M62 43h3M12 44h2M41 44h13M60 44h1M65 44h1M10 45h2M13 45h1M21 45h1M41 45h4M46 45h9M66 45h1M7 46h3M41 46h4M46 46h9M63 46h4M23 47h1M42 47h3M46 47h1M48 47h8M61 47h1M66 47h3M11 48h1M42 48h2M45 48h2M48 48h8M64 48h2M14 49h1M43 49h1M45 49h1M47 49h4M56 49h1M10 50h1M14 50h1M41 50h1M43 50h1M45 50h1M47 50h2M62 50h1M70 50h1M23 51h1M43 51h1M46 51h2M64 51h3M71 51h2M23 52h1M43 52h1M45 52h2M73 52h1M22 53h1M43 53h1M45 53h2M64 53h1M20 54h1M22 54h1M45 54h1M64 54h1M19 55h1M22 55h1M42 55h1M45 55h1M63 55h2M22 56h1M59 56h1M63 56h1M18 57h1M59 57h2M62 57h2M18 58h1M58 58h2M61 58h3M18 59h1M41 59h1M45 59h2M59 59h1M61 59h2M24 60h1M35 60h1M39 60h1M45 60h2M56 60h1M60 60h3M19 61h1M22 61h2M36 61h1M39 61h1M44 61h4M50 61h1M52 61h1M57 61h1M59 61h3M20 62h1M37 62h2M43 62h6M54 62h1M57 62h1M59 62h2M21 63h2M26 63h1M33 63h1M41 63h1M47 63h3M51 63h1M56 63h3M21 64h1M27 64h6M37 64h1M50 64h1M55 64h4M23 65h1M26 65h1M29 65h4M51 65h9M22 66h1M30 66h2M52 66h2M56 66h3M56 67h2M52 68h1M57 68h1" />
<path stroke="#7b73b4" d="M36 17h1M42 18h2M30 19h2M42 19h2M25 20h1M29 20h6M41 20h3M25 21h1M29 21h4M41 21h2M24 22h1M28 22h2M40 22h3M19 23h2M18 24h2M27 25h1M26 26h1M43 27h3M24 28h1M41 28h7M40 29h6M52 29h2M61 29h4M24 30h3M39 30h5M49 30h6M60 30h6M25 31h1M39 31h4M51 31h3M60 31h7M26 32h2M39 32h3M52 32h1M61 32h6M39 33h3M62 33h4M25 34h8M40 34h2M50 34h3M60 34h1M62 34h4M17 35h1M23 35h2M40 35h2M49 35h7M60 35h1M62 35h3M19 36h5M42 36h1M49 36h7M59 36h2M62 36h2M49 37h8M59 37h2M21 38h1M49 38h7M20 39h1M22 39h1M50 39h5M19 40h2M22 40h1M51 40h4M59 40h1M18 41h3M22 41h1M52 41h1M54 41h1M57 41h1M14 42h1M22 42h1M54 42h2M20 43h1M23 43h1M55 43h1M61 43h1M15 44h1M18 44h4M23 44h1M55 44h2M59 44h1M18 45h3M56 45h1M13 46h1M17 46h4M56 46h2M62 46h1M16 47h4M41 47h1M57 47h2M60 47h1M7 48h1M15 48h4M57 48h2M9 49h1M15 49h3M42 49h1M51 49h5M58 49h1M13 50h1M15 50h1M49 50h9M59 50h1M12 51h1M48 51h10M59 51h1M63 51h1M67 51h2M11 52h2M48 52h11M68 52h3M9 53h3M24 53h1M48 53h11M70 53h3M43 54h1M47 54h12M47 55h12M19 56h1M44 56h1M47 56h12M44 57h1M47 57h12M43 58h2M47 58h11M42 59h2M48 59h10M19 60h1M41 60h3M48 60h8M57 60h1M41 61h2M49 61h1M51 61h1M55 61h1M25 62h10M39 62h3M51 62h1M55 62h1M24 63h2M34 63h7M52 63h3M22 64h2M38 64h3M24 65h2M27 65h2M29 66h1M50 66h2M54 66h2M59 66h2M29 67h1M52 67h2" />
<path stroke="#622910" d="M17 19h1M15 23h1M49 23h1M16 24h1M49 25h1M32 27h1M28 29h1M27 30h1M33 36h1M34 37h1M30 38h1M35 39h1M34 40h3M42 40h1M34 41h3M40 41h1M33 42h5M33 43h6M33 44h7M33 45h7M33 46h7M34 47h6M34 48h6M33 49h7M31 50h1M37 50h3M29 51h1M28 52h1M27 53h1M24 54h1M27 54h1M41 54h1M24 55h1M26 55h1M24 56h1M26 56h1M24 57h1M27 57h1M25 58h1M28 58h8M26 59h1M27 60h8" />
<path stroke="#d54a31" d="M33 27h1M32 28h2M33 29h1M17 30h1M33 30h1M32 31h1M25 36h2M24 37h3M23 38h5M25 39h3M30 39h1M32 39h1M26 40h2M29 40h2M32 40h1M26 41h2M29 41h1M31 41h2M28 42h2M31 42h2M24 43h1M28 43h2M31 43h2M28 44h2M31 44h2M28 45h2M31 45h2M28 46h2M31 46h2M25 47h1M28 47h2M31 47h2M28 48h2M31 48h3M29 49h2M32 49h1M29 50h2M33 50h3M31 51h10M29 52h12M25 53h1M28 53h13M26 54h1M31 54h7M41 55h1M40 56h2M39 57h3M38 58h3" />
<path stroke="#9c3918" d="M16 28h1M16 29h1M16 30h1M17 31h1M32 36h1M31 37h3M22 38h1M31 38h4M23 39h1M31 39h1M33 39h2M23 40h1M28 40h1M31 40h1M33 40h1M23 41h1M28 41h1M30 41h1M33 41h1M23 42h1M27 42h1M30 42h1M27 43h1M30 43h1M24 44h1M27 44h1M30 44h1M24 45h1M27 45h1M30 45h1M24 46h1M27 46h1M30 46h1M27 47h1M30 47h1M33 47h1M25 48h1M27 48h1M30 48h1M25 49h1M28 49h1M31 49h1M25 50h1M28 50h1M32 50h1M36 50h1M40 50h1M25 51h1M30 51h1M25 52h1M25 54h1M25 55h1M25 56h1M25 57h2M26 58h2M27 59h8M38 59h1" />
<path stroke="#ff7352" d="M17 28h1M31 28h1M17 29h1M29 29h1M31 29h2M28 30h1M31 30h2M28 31h4M24 39h1M24 40h2M24 41h2M24 42h3M25 43h2M25 44h2M25 45h2M25 46h2M26 47h1M26 48h1M26 49h2M26 50h2M26 51h3M26 52h2M26 53h1M28 54h3M38 54h3M27 55h14M27 56h13M28 57h11" />
<path stroke="#ffffff" d="M29 30h1M28 36h2M18 37h1M28 37h3M18 38h2M28 38h2M21 58h2M21 59h2M36 59h2M36 60h3M37 61h2M20 65h2M19 66h2M23 66h2M26 66h2M22 67h2M25 67h2M50 67h2M54 67h1M59 67h2M49 68h2M54 68h2M59 68h3M49 69h2M54 69h1M60 69h1" />
<path stroke="#8b8b8b" d="M28 35h2M27 36h1M19 37h1M27 37h1M28 39h2M21 57h2M23 58h1M36 58h2M24 59h1M35 59h1M20 64h1M19 65h1M18 66h1M25 66h1M18 67h1M21 67h1M24 67h1M49 67h1M58 67h1M24 68h1M48 68h1M53 68h1M56 68h1M58 68h1M48 69h1M51 69h1M53 69h1M56 69h1M59 69h1" />
<path stroke="#bdc5d5" d="M30 36h1M23 59h1M22 60h2M22 65h1M21 66h1M28 66h1M19 67h2M27 67h2M55 67h1M22 68h2M25 68h3M51 68h1M55 69h1M61 69h1M49 70h2M54 70h2M60 70h2" />
</svg>