<svg xmlns="http://www.w3.org/2000/svg" viewBox="0 -0.5 80 80" shape-rendering="crispEdges">
<metadata>Made with Pixels to Svg https://codepen.io/shshaw/pen/XbxvNj</metadata>
<path stroke="#624a7b" d="M23 13h1M18 15h1M22 15h1M20 16h1M21 17h1M50 18h1M16 21h1M19 23h1M51 24h2M22 25h1M49 25h2M22 26h1M49 26h1M22 27h1M49 27h1M22 28h1M48 28h1M23 29h1M48 29h1M23 30h1M47 30h1M59 30h1M23 31h1M47 31h1M62 31h1M24 32h1M46 32h1M58 32h1M62 32h2M24 33h1M62 33h3M45 34h1M62 34h3M44 35h1M61 35h3M58 36h6M60 37h3M28 40h1M39 40h3M27 41h4M37 41h3M30 42h1M37 42h2M43 42h1M21 43h1M25 43h1M20 44h1M23 44h1M30 44h1M37 44h1M24 45h1M36 45h1M33 47h1M23 49h1M42 49h1M22 50h1M31 50h1M40 51h1" />
<path stroke="#5a2962" d="M16 14h2M22 14h1M24 14h1M49 14h1M19 15h1M24 15h1M48 15h1M55 15h2M21 16h1M48 16h1M53 16h2M17 17h1M47 17h1M52 17h1M47 18h1M55 18h1M18 19h1M46 19h1M44 20h3M54 20h1M17 21h1M27 21h1M41 21h3M15 22h1M29 22h1M37 22h4M55 22h2M32 23h1M35 23h2M19 24h1M53 24h1M21 25h1M51 25h1M23 26h1M46 26h1M48 26h1M50 26h1M23 27h1M44 27h1M48 27h1M23 28h1M42 28h1M49 28h1M60 28h1M22 29h1M40 29h1M47 29h1M59 29h1M38 30h1M48 30h1M57 30h1M24 31h1M28 31h1M36 31h1M46 31h1M56 31h1M58 31h1M64 31h1M23 32h1M30 32h2M47 32h1M56 32h1M65 32h1M45 33h2M56 33h1M44 34h1M56 34h1M57 35h1M64 35h1M59 37h1M62 38h1M44 42h1M22 43h1M24 43h1M30 43h1M37 43h1M46 43h2M24 44h1M43 44h1M45 44h1M48 44h1M20 45h1M31 45h1M35 45h1M45 45h1M32 46h1M34 46h1M44 47h1M25 48h1M33 48h1M41 48h1M24 49h1M43 49h2M25 50h1M34 50h1M22 51h1" />
<path stroke="#a473bd" d="M23 14h1M17 15h1M23 15h1M17 16h3M22 16h2M55 16h1M18 17h3M22 17h2M53 17h2M18 18h6M51 18h3M19 19h6M51 19h2M19 20h7M18 21h9M16 22h13M21 23h11M23 24h14M24 25h13M25 26h11M27 27h8M29 28h4M27 42h2M40 42h3M26 43h4M39 43h5M21 44h1M25 44h5M38 44h5M46 44h1M25 45h6M37 45h7M25 46h7M35 46h8M26 47h7M34 47h9M26 48h6M34 48h7M27 49h4M34 49h7M23 50h1M35 50h4M43 50h1" />
<path stroke="#101010" d="M16 15h1M50 15h1M16 16h1M24 16h1M50 16h1M56 16h1M24 17h1M50 17h2M56 17h1M17 18h1M24 18h1M25 19h1M55 19h1M18 20h1M26 20h1M28 21h1M54 21h1M30 22h2M16 23h3M33 23h2M57 23h1M20 24h1M54 24h3M52 25h1M21 26h1M47 26h1M21 27h1M24 27h1M45 27h3M50 27h1M21 28h1M24 28h2M43 28h5M24 29h3M41 29h6M49 29h1M61 29h1M63 29h1M22 30h1M24 30h4M39 30h1M42 30h5M62 30h1M64 30h1M22 31h1M25 31h1M29 31h1M37 31h1M42 31h4M48 31h1M25 32h1M32 32h4M43 32h3M23 33h1M37 33h2M43 33h2M47 33h1M65 33h1M27 34h1M29 34h1M37 34h2M46 34h1M65 34h1M27 35h3M35 35h1M37 35h2M45 35h1M28 36h2M35 36h3M57 36h1M64 36h1M45 37h1M58 37h1M63 37h1M27 38h1M43 38h2M60 38h2M28 39h1M32 39h3M40 39h2M60 39h1M62 39h1M27 40h1M29 40h1M38 40h1M42 40h1M62 40h1M26 41h1M31 41h1M35 41h2M43 41h1M62 41h1M25 42h1M62 42h1M44 43h1M44 44h1M23 45h1M44 45h1M48 45h1M21 46h2M24 46h1M44 46h1M46 46h1M24 47h1M43 48h1M50 48h2M56 48h1M25 49h1M33 49h1M53 49h3M26 50h1M32 50h1M42 50h1M45 50h1M49 50h4M25 51h1M27 51h5M35 51h1M41 51h2M45 51h1M49 51h1M23 52h2M28 52h1M37 52h4M43 52h2M49 52h1M28 53h1M49 53h1M28 54h1M32 55h1M44 55h1M29 56h1M33 56h1M43 56h1M29 57h1M41 57h1M40 58h1M45 58h1M50 58h1M30 59h1M42 59h1M50 59h1M30 60h1M39 60h1M42 60h1M46 60h1M50 60h1M38 61h1M42 61h1M50 61h1M31 62h1M47 62h1M50 62h1M31 63h1M37 63h1M41 63h1M47 63h1M39 64h2M47 64h1M49 64h1M36 65h1M48 65h1M35 66h1M33 67h2" />
<path stroke="#7b5aac" d="M49 15h1M49 16h1M48 17h2M55 17h1M48 18h2M54 18h1M47 19h4M53 19h2M47 20h7M44 21h10M41 22h14M20 23h1M37 23h20M21 24h2M37 24h14M23 25h1M37 25h12M24 26h1M36 26h10M25 27h2M35 27h9M26 28h3M33 28h9M27 29h13M60 29h1M28 30h10M60 30h2M63 30h1M30 31h6M57 31h1M59 31h3M63 31h1M57 32h1M59 32h3M64 32h1M57 33h5M57 34h5M58 35h3M40 41h3M26 42h1M29 42h1M39 42h1M38 43h1M22 44h1M47 44h1M21 45h2M46 45h2M43 46h1M25 47h1M43 47h1M32 48h1M42 48h1M26 49h1M31 49h2M41 49h1M24 50h1M27 50h4M39 50h3M44 50h1M23 51h2M36 51h4M43 51h2" />
<path stroke="#eebd62" d="M40 30h1M27 31h1M38 31h3M27 32h1M36 32h6M26 33h1M29 33h1M32 33h4M39 33h1M41 33h1M42 34h1M27 37h1M28 38h1M39 38h2M29 39h2M35 39h4M31 40h6M31 43h1M31 44h2M60 44h1M32 45h3M59 45h1M33 46h1M58 46h1M56 47h2M53 48h3M30 52h1M40 53h1M40 54h1M40 55h1M39 56h1M39 57h1M39 58h1M38 60h1M37 61h1M36 63h1M33 64h1M35 65h1M34 66h1" />
<path stroke="#734139" d="M41 30h1M26 31h1M41 31h1M26 32h1M42 32h1M25 33h1M42 33h1M24 34h1M39 34h1M43 34h1M23 35h1M43 35h1M22 36h1M44 36h1M23 37h3M32 37h1M35 38h1M41 38h2M31 39h1M39 39h1M30 40h1M37 40h1M60 40h1M32 41h1M60 41h1M31 42h1M36 42h1M60 42h1M59 43h1M61 43h1M59 44h1M61 44h1M58 45h1M60 45h1M47 46h1M56 46h2M59 46h1M48 47h1M53 47h3M58 47h1M49 48h1M52 48h1M57 48h1M49 49h1M36 52h1M31 54h1M45 54h1M49 54h1M29 55h1M34 55h1M49 55h1M34 56h1M42 56h1M44 56h1M50 56h1M34 57h1M40 57h1M42 57h1M45 57h1M50 57h1M30 58h1M34 58h1M42 58h1M39 59h1M46 59h1M33 60h1M31 61h1M33 61h1M47 61h1M33 62h1M37 62h1M39 62h1M41 62h1M33 63h1M39 63h1M50 63h1M32 64h1M36 64h1M32 65h1M47 65h1M32 66h1" />
<path stroke="#fff6bd" d="M28 32h2M30 33h1M25 34h2M30 34h1M24 35h2M30 35h2M23 36h1M30 36h2M30 37h1" />
<path stroke="#52525a" d="M27 33h2M36 33h1M35 34h1" />
<path stroke="#ffde7b" d="M31 33h1M40 33h1M31 34h4M40 34h2M26 35h1M32 35h3M40 35h3M24 36h4M32 36h3M39 36h5M28 37h2M33 37h12M29 38h1M31 38h4M36 38h3M33 50h1M32 51h3M31 52h5M31 53h9M32 54h2M35 54h5M33 55h1M35 55h5M35 56h4M35 57h4M35 58h4M35 59h4M34 60h4M34 61h3M34 62h3M34 63h2M34 64h2M33 65h2M33 66h1" />
<path stroke="#f6f6de" d="M28 34h1M36 34h1" />
<path stroke="#9c9c9c" d="M36 35h1" />
<path stroke="#ac8331" d="M39 35h1M38 36h1M26 37h1M31 37h1M30 38h1M61 39h1M61 40h1M33 41h2M61 41h1M32 42h4M61 42h1M32 43h5M60 43h1M33 44h4M45 46h1M45 47h3M44 48h5M45 49h4M50 49h3M46 50h3M46 51h3M29 52h1M41 52h2M45 52h4M29 53h2M41 53h8M29 54h2M34 54h1M41 54h4M46 54h3M30 55h2M41 55h3M45 55h4M30 56h3M40 56h2M45 56h5M30 57h4M46 57h4M31 58h3M41 58h1M46 58h4M31 59h4M40 59h2M47 59h3M31 60h2M40 60h2M47 60h3M32 61h1M39 61h3M48 61h2M32 62h1M40 62h1M48 62h2M32 63h1M40 63h1M48 63h2M48 64h1" />
</svg>