<svg xmlns="http://www.w3.org/2000/svg" viewBox="0 -0.5 80 80" shape-rendering="crispEdges">
<metadata>Made with Pixels to Svg https://codepen.io/shshaw/pen/XbxvNj</metadata>
<path stroke="#ac944a" d="M47 18h3M45 19h2M49 19h1M43 20h2M42 21h1M48 21h1M41 22h1M48 22h1M40 23h1M39 24h1M47 24h1M38 25h1M37 26h1M46 26h1M37 27h1M36 28h1M36 29h1M35 30h1M35 31h1M35 32h1M35 33h1M35 34h1" />
<path stroke="#ffeea4" d="M47 19h2M45 20h4M43 21h5M42 22h5M41 23h6M40 24h5M40 25h3" />
<path stroke="#101010" d="M49 20h1M48 23h1M47 25h1M46 27h1M45 28h1M44 29h1M43 30h1M42 31h1M40 32h2M38 33h2M36 34h2M47 35h1M48 36h1M49 37h1M50 38h1M51 40h1M51 41h1M52 44h1M52 45h1M52 46h1M52 47h1M22 48h1M51 48h1M53 48h1M22 49h1M51 49h1M23 50h1M56 50h1M24 51h1M54 51h2M25 52h3M51 52h3M47 53h4M32 54h2M44 54h3M36 55h7" />
<path stroke="#f6de5a" d="M47 22h1M47 23h1M45 24h2M39 25h1M43 25h4M38 26h8M38 27h8M37 28h8M37 29h7M36 30h7M36 31h5M36 32h3M36 33h1" />
<path stroke="#cdac10" d="M41 31h1M39 32h1M37 33h1" />
<path stroke="#4a6a39" d="M40 33h4M33 34h2M44 34h2M32 35h1M46 35h1M29 37h1M28 38h1M27 40h1M26 41h1M26 42h1M32 42h1M25 43h1M30 43h1M52 43h1M25 44h1M24 45h2M29 45h1M23 46h1M25 46h1M30 46h2M22 47h1M26 47h1M29 47h1M26 48h1M29 48h1M39 48h1M46 48h1M54 48h2M25 49h1M27 49h1M38 49h1M47 49h1M56 49h1M24 50h1M27 50h1M32 50h2M38 50h1M43 50h1M47 50h1M28 51h1M38 51h1M43 51h1M47 51h1M53 51h1M29 52h1M39 52h1M42 52h2M46 52h1M50 52h1M30 53h2M40 53h2M43 53h3M34 55h2" />
<path stroke="#83a473" d="M38 34h1M43 34h1M31 35h1M45 35h1M30 36h1M47 36h1M47 37h1M47 38h1M27 39h1M48 40h1M49 41h1M31 42h1M33 42h1M49 42h2M34 43h1M49 43h2M29 44h1M48 44h4M30 45h1M48 45h4M32 46h1M48 46h4M40 47h1M46 47h6M47 48h4M52 48h1M30 49h1M46 49h1M48 49h3M52 49h4M31 50h1M42 50h1M46 50h1M48 50h2M51 50h5M29 51h1M42 51h1M44 51h3M48 51h5M30 52h9M40 52h2M44 52h2M47 52h3M32 53h8M42 53h1M46 53h1M34 54h10" />
<path stroke="#9cbd8b" d="M39 34h2M42 34h1M44 35h1M46 36h1M47 46h1M23 48h1M25 48h1M23 49h2M26 50h1M41 50h1M50 50h1M26 51h2M30 51h1M37 51h1M39 51h3" />
<path stroke="#a4de94" d="M41 34h1M33 35h11M31 36h15M30 37h1M34 37h13M29 38h1M35 38h12M28 39h2M35 39h13M28 40h3M34 40h14M27 41h2M30 41h19M27 42h1M29 42h2M34 42h3M38 42h11M26 43h4M33 43h1M35 43h3M39 43h10M26 44h3M30 44h1M33 44h15M26 45h3M31 45h17M24 46h1M26 46h4M33 46h14M23 47h3M27 47h2M30 47h1M32 47h8M41 47h5M24 48h1M27 48h2M30 48h1M33 48h6M40 48h6M26 49h1M28 49h2M31 49h7M40 49h4M45 49h1M25 50h1M28 50h3M34 50h4M39 50h2M44 50h2M25 51h1M31 51h6" />
<path stroke="#c5eeb4" d="M31 37h3M30 38h5M30 39h5M31 40h3M31 43h2M31 44h2M31 47h1M31 48h2M39 49h1M44 49h1" />
<path stroke="#414141" d="M48 37h1M48 38h2M48 39h3M49 40h2M29 41h1M50 41h1M28 42h1M37 42h1M51 42h1M38 43h1M51 43h1" />
</svg>