<svg xmlns="http://www.w3.org/2000/svg" viewBox="0 -0.5 80 80" shape-rendering="crispEdges">
<metadata>Made with Pixels to Svg https://codepen.io/shshaw/pen/XbxvNj</metadata>
<path stroke="#415a83" d="M32 6h2M31 7h1M30 9h1M29 10h1M34 10h1M29 11h1M28 12h1M28 13h1M27 14h1M27 15h1M34 16h1M26 17h1M26 18h1M25 21h1M32 21h3M25 22h1M25 23h1M24 25h1M24 26h1M33 28h3M23 30h1M23 31h1M36 31h1M38 31h3M23 32h1M36 32h3M41 32h3M23 33h1M37 33h1M43 33h3M22 34h1M44 34h3M22 35h1M45 35h3M11 36h3M22 36h1M10 37h1M14 37h2M22 37h1M45 37h6M10 38h1M21 38h1M47 38h5M10 39h1M20 39h2M49 39h4M16 40h1M50 40h3M16 41h1M50 41h4M15 42h1M50 42h4M15 43h1M33 43h1M48 43h2M32 44h1M46 44h2M13 45h1M31 45h1M45 45h1M13 46h1M30 46h1M34 46h3M44 46h1M13 47h1M34 47h1M43 47h1M69 47h1M12 48h1M29 48h1M33 48h2M41 48h3M68 48h2M12 49h1M28 49h1M32 49h1M35 49h1M41 49h1M66 49h2M28 50h1M31 50h2M62 50h4M27 51h1M30 51h1M43 51h2M58 51h4M27 52h1M34 52h1M40 52h3M46 52h12M27 53h1M37 53h1M40 53h4M26 54h1M37 54h1M40 54h5M26 55h1M34 55h1M37 55h6M26 56h1M34 56h6M26 57h1M29 57h9M10 58h1M27 58h7M10 59h1M10 60h1" />
<path stroke="#6aacc5" d="M32 7h1M31 8h2M31 9h2M30 10h2M30 11h2M29 12h2M29 13h2M28 14h2M28 15h2M28 16h2M27 17h2M27 18h2M27 19h2M27 20h2M26 21h2M26 22h2M26 23h2M26 24h2M25 25h2M25 26h2M25 27h2M25 28h2M25 29h2M24 30h2M24 31h2M24 32h2M24 33h2M23 34h2M23 35h2M23 36h2M23 37h2M22 38h2M11 39h1M22 39h2M11 40h1M12 41h1M12 42h2M18 42h5M13 43h2M16 43h8M13 44h1M16 44h8M34 44h3M16 45h5M33 45h5M17 46h2M24 46h3M32 46h2M37 46h1M23 47h4M31 47h3M22 48h5M30 48h3M21 49h6M29 49h3M43 49h2M62 49h4M22 50h5M29 50h2M43 50h19M16 51h1M22 51h4M28 51h2M45 51h13M14 52h4M23 52h3M28 52h2M13 53h6M23 53h2M28 53h2M12 54h9M24 54h1M27 54h2M11 55h11M27 55h2M11 56h12M27 56h2M11 57h12M27 57h2M11 58h10M11 59h8M12 60h4" />
<path stroke="#101010" d="M33 7h1M33 8h1M33 9h1M34 11h1M34 12h1M34 13h1M34 14h1M34 15h1M33 17h1M32 18h1M32 19h1M31 20h1M31 21h1M35 21h1M35 22h1M35 23h1M35 24h1M34 25h1M33 26h1M32 27h1M32 28h1M36 30h1M37 31h1M41 31h3M45 32h1M46 33h1M47 34h1M21 35h1M48 35h1M20 36h1M50 36h1M16 37h4M51 37h1M18 38h1M52 38h1M17 39h1M53 39h1M53 40h1M54 41h1M54 42h1M50 43h5M54 44h5M62 45h1M63 46h6M35 47h2M35 48h3M33 49h2M36 49h2M33 50h3M37 50h2M31 51h2M34 51h2M37 51h2M30 52h4M35 52h2M38 52h1M44 52h2M32 53h2M35 53h2M38 53h1M46 53h7M33 54h1M35 54h2M38 54h1M50 54h2M33 55h1M35 55h2M51 55h1M32 56h1M50 56h1M50 57h1M27 60h1M11 61h1M24 61h3M28 61h1M12 62h2M20 62h3M14 63h1M22 63h1M25 63h1M27 63h1M22 64h2M25 64h2M22 65h1M24 65h1M22 67h1M34 70h2M24 71h2M31 71h3M26 72h5" />
<path stroke="#4183a4" d="M32 10h2M32 11h2M31 12h3M31 13h3M30 14h4M30 15h4M27 16h1M30 16h4M29 17h4M29 18h3M26 19h1M29 19h3M26 20h1M29 20h2M28 21h3M28 22h7M28 23h7M25 24h1M28 24h7M27 25h7M27 26h6M24 27h1M27 27h5M24 28h1M27 28h5M24 29h1M27 29h9M26 30h10M26 31h10M26 32h10M39 32h2M26 33h11M38 33h5M25 34h19M25 35h20M21 36h1M25 36h20M11 37h3M20 37h2M25 37h18M11 38h7M19 38h2M24 38h17M43 38h4M12 39h5M18 39h2M24 39h15M41 39h8M10 40h1M12 40h4M17 40h20M39 40h11M11 41h1M13 41h3M17 41h18M37 41h13M11 42h1M14 42h1M16 42h2M23 42h11M35 42h15M12 43h1M24 43h9M34 43h14M12 44h1M28 44h4M33 44h1M37 44h9M48 44h6M26 45h5M32 45h1M38 45h7M46 45h13M14 46h1M27 46h3M31 46h1M38 46h6M45 46h18M27 47h4M37 47h6M44 47h25M13 48h1M27 48h2M38 48h3M44 48h24M27 49h1M39 49h2M45 49h17M27 50h1M36 50h1M39 50h1M26 51h1M33 51h1M26 52h1M25 53h2M10 54h1M25 54h1M10 55h1M24 55h2M10 56h1M23 56h3M10 57h1M23 57h3M21 58h4M34 58h1M19 59h2" />
<path stroke="#414152" d="M36 28h1M36 29h1M37 30h4M44 32h1M45 36h5M43 37h2M41 38h2M39 39h2M37 40h2M35 41h2M34 42h1M59 45h3M38 49h1M42 49h1M40 50h3M36 51h1M39 51h4M37 52h1M39 52h1M43 52h1M34 53h1M39 53h1M44 53h2M34 54h1M39 54h1M45 54h5M43 55h4M33 56h1M40 56h3M38 57h1M49 58h1M33 59h10M49 59h1M28 60h4M42 60h1M48 60h1M41 61h1M47 61h1M28 62h1M40 62h1M46 62h1M48 62h1M18 63h1M39 63h1M45 63h1M48 63h1M18 64h1M27 64h1M33 64h2M38 64h1M44 64h1M47 64h1M18 65h1M20 65h1M26 65h2M30 65h1M35 65h3M43 65h1M47 65h1M21 66h1M26 66h2M31 66h1M34 66h2M42 66h1M46 66h1M25 67h3M33 67h1M41 67h1M46 67h3M25 68h4M31 68h2M40 68h1M48 68h1M23 69h1M25 69h6M37 69h2M42 69h1M49 69h1M23 70h1M26 70h2M36 70h1M43 70h1M49 70h1M44 71h1M49 71h1M45 72h1M49 72h1M46 73h1M49 73h1M48 74h1" />
<path stroke="#947b6a" d="M14 44h1M14 45h1M11 50h1M11 51h1M11 52h1M11 53h1" />
<path stroke="#cdac5a" d="M15 44h1M24 44h1M27 44h1M15 45h1M21 45h1M25 45h1M16 46h1M19 46h1M14 47h1M22 47h1M14 48h1M21 48h1M13 49h1M12 50h1M21 50h1M15 51h1M17 51h1M13 52h1M18 52h1M22 52h1M12 53h1M19 53h1M11 54h1M23 54h1M22 55h1" />
<path stroke="#ffde62" d="M25 44h2M22 45h3M15 46h1M20 46h4M15 47h7M15 48h6M14 49h7M13 50h8M12 51h3M18 51h4M12 52h1M19 52h3M20 53h3M21 54h2M23 55h1" />
<path stroke="#ff1800" d="M30 53h2M32 54h1M32 55h1M30 56h2" />
<path stroke="#ac3952" d="M29 54h1M29 55h1M29 56h1M32 60h2M36 60h6M37 61h4M36 62h4M36 63h3M35 64h3" />
<path stroke="#ffffff" d="M30 54h1M30 55h1M16 60h4M12 61h7M24 62h1M26 62h2M13 63h1M16 63h2M19 63h3M23 63h2M26 63h1M14 64h1M16 64h2M20 64h2M24 64h1M32 64h1M17 65h1M21 65h1M23 65h1M32 65h2M38 65h1M23 66h2M29 66h1M32 66h1M36 66h1M23 67h1M29 67h2M34 67h2M24 68h1M30 68h1M33 68h1M24 69h1M31 69h2M25 70h1M29 70h3M26 71h3" />
<path stroke="#e66a7b" d="M31 54h1M31 55h1M34 60h2M29 61h8M29 62h7M28 63h8M28 64h4M28 65h1M31 65h1M28 66h1M28 67h1" />
<path stroke="#9c94a4" d="M47 55h4M46 56h4M47 57h3M47 58h2M32 59h1M48 59h1M27 61h1M14 62h6M23 62h1M47 62h1M12 63h1M46 63h2M13 64h1M15 64h1M19 64h1M45 64h2M14 65h1M16 65h1M25 65h1M44 65h3M17 66h1M22 66h1M25 66h1M43 66h3M24 67h1M40 67h1M42 67h4M23 68h1M39 68h1M41 68h2M44 68h4M36 69h1M45 69h4M24 70h1M28 70h1M46 70h3M46 71h3M47 72h2" />
<path stroke="#decdf6" d="M43 56h3M39 57h8M25 58h2M35 58h12M21 59h11M43 59h5M11 60h1M20 60h7M43 60h5M19 61h5M42 61h5M25 62h1M41 62h5M15 63h1M40 63h5M39 64h5M29 65h1M34 65h1M39 65h4M30 66h1M33 66h1M37 66h5M31 67h2M36 67h4M29 68h1M34 68h5M43 68h1M33 69h3M43 69h2M32 70h2M44 70h2M29 71h2M45 71h1M46 72h1M47 73h2" />
</svg>