<svg xmlns="http://www.w3.org/2000/svg" viewBox="0 -0.5 80 80" shape-rendering="crispEdges">
<metadata>Made with Pixels to Svg https://codepen.io/shshaw/pen/XbxvNj</metadata>
<path stroke="#9c6252" d="M33 5h4M32 6h1M37 6h1M31 7h1M31 8h1M30 9h1M36 9h1M17 10h1M30 10h1M13 11h1M19 11h1M30 11h1M12 12h1M20 12h1M30 12h1M35 12h1M12 13h1M29 13h1M44 13h6M12 14h1M29 14h1M42 14h2M50 14h1M29 15h1M40 15h2M51 15h1M16 16h1M29 16h1M39 16h1M18 17h2M29 17h1M38 17h1M20 18h1M26 18h1M29 18h1M37 18h1M27 19h1M29 19h1M37 19h1M10 20h8M36 20h1M8 21h2M18 21h2M46 21h8M7 22h1M20 22h1M43 22h3M54 22h1M6 23h1M41 23h2M55 23h1M6 24h1M40 24h1M55 24h1M6 25h1M12 25h1M54 25h1M7 26h1M10 26h1M15 29h2M43 29h3M13 30h2M46 30h3M12 31h1M49 31h2M11 32h1M51 32h2M10 33h1M53 33h1M9 34h1M54 34h1M9 35h1M55 35h1M8 36h1M55 36h1M8 37h1M8 38h1M9 39h1" />
<path stroke="#f66a20" d="M33 6h4M34 7h3M34 8h3M31 9h5M31 10h5M17 11h1M31 11h5M13 12h1M17 12h3M31 12h4M13 13h9M34 13h1M13 14h9M47 14h3M14 15h6M42 15h2M47 15h4M17 16h2M43 16h8M44 17h6M45 18h1M10 21h4M10 22h3M47 22h4M53 22h1M10 23h3M48 23h4M54 23h1M9 24h4M49 24h6M7 25h5M49 25h5M8 26h2M12 32h1M50 32h1M11 33h2M50 33h3M10 34h4M50 34h2M53 34h1M10 35h5M49 35h3M54 35h1M11 36h4M49 36h4M54 36h1M11 37h3M50 37h5M11 38h3M51 38h3M10 39h3" />
<path stroke="#ffd5ac" d="M32 7h1M15 11h1M30 13h2M45 14h1M20 15h1M19 16h1M42 16h1M43 17h1M14 21h1M13 22h1M46 22h1M52 22h1M7 23h1M13 23h1M47 23h1M48 24h1M44 30h2M13 31h1M46 31h2M13 32h1M49 34h1M48 35h1M9 37h1" />
<path stroke="#ffac73" d="M33 7h1M32 8h2M14 11h1M16 11h1M14 12h3M32 13h2M22 14h1M30 14h5M44 14h1M46 14h1M21 15h3M30 15h5M44 15h3M20 16h5M30 16h4M40 16h2M20 17h6M30 17h4M39 17h4M21 18h5M30 18h4M38 18h7M22 19h5M30 19h4M38 19h5M23 20h3M37 20h4M15 21h3M37 21h3M8 22h2M14 22h6M38 22h1M51 22h1M8 23h2M14 23h6M43 23h4M52 23h2M7 24h2M13 24h6M41 24h7M17 25h1M40 25h9M41 26h5M41 27h2M15 30h2M43 30h1M14 31h3M44 31h2M48 31h1M14 32h3M44 32h6M13 33h4M45 33h5M14 34h2M45 34h4M52 34h1M47 35h1M52 35h2M9 36h2M53 36h1M10 37h1M9 38h2" />
<path stroke="#101010" d="M37 7h1M37 8h1M14 10h3M36 10h1M18 11h1M36 11h1M21 12h1M22 13h1M35 13h1M23 14h1M35 14h1M13 15h1M24 15h1M35 15h1M14 16h2M25 16h1M34 16h1M51 16h1M26 17h1M34 17h1M50 17h1M34 18h1M46 18h4M21 19h1M34 19h1M43 19h3M22 20h1M41 20h2M46 20h3M23 21h1M40 21h1M39 22h1M13 25h4M55 25h1M11 26h1M17 26h1M46 26h8M56 26h1M8 27h2M39 27h1M43 27h3M57 27h1M40 28h3M57 28h1M41 29h1M58 29h1M42 30h1M58 30h1M43 31h1M59 31h1M43 32h1M59 32h1M44 33h1M59 33h1M16 34h1M44 34h1M60 34h1M15 35h1M39 35h3M44 35h3M60 35h1M15 36h1M39 36h3M45 36h1M47 36h2M60 36h1M14 37h1M38 37h5M45 37h1M49 37h1M55 37h1M60 37h1M14 38h1M39 38h4M45 38h1M50 38h1M54 38h1M60 38h1M13 39h1M40 39h2M45 39h1M51 39h3M59 39h1M10 40h3M40 40h1M45 40h1M53 40h1M59 40h1M45 41h1M52 41h1M59 41h1M44 42h1M52 42h1M59 42h1M44 43h1M51 43h1M58 43h1M35 44h4M44 44h1M51 44h1M58 44h1M34 45h5M43 45h1M50 45h1M58 45h1M33 46h6M43 46h1M50 46h1M57 46h1M31 47h7M42 47h1M49 47h1M57 47h1M29 48h8M42 48h1M49 48h1M57 48h1M26 49h10M41 49h1M57 49h1M24 50h10M40 50h1M57 50h1M22 51h1M39 51h1M57 51h1M23 52h1M38 52h1M57 52h1M25 53h2M35 53h2M58 53h1M27 54h8M46 54h1M59 54h1M43 55h1M60 55h1M42 56h1M61 56h1M41 57h1M62 57h1M39 58h2M36 59h3M63 59h1M35 60h1M64 60h1M66 61h1M68 62h1M32 63h1M70 63h1M32 64h1M71 64h1M32 65h1M72 65h1M33 66h1M72 66h1M34 67h3M72 67h1M37 69h1M63 69h1M71 69h1M37 70h1M62 70h3M70 70h1M37 71h1M60 71h2M66 71h4M47 72h3M56 72h4M39 73h6M50 73h6" />
<path stroke="#5a8b62" d="M26 20h4M24 21h2M33 21h1M41 21h5M21 22h2M32 22h1M34 22h3M40 22h3M20 23h1M31 23h1M33 23h1M35 23h3M39 23h2M32 24h1M34 24h5M19 25h1M30 25h2M35 25h4M18 26h1M32 26h3M38 26h2M54 26h2M18 27h1M34 27h4M46 27h10M21 28h2M35 28h4M43 28h14M20 29h2M35 29h5M50 29h7M19 30h1M36 30h5M53 30h5M18 31h1M36 31h6M54 31h4M17 32h1M36 32h7M55 32h4M17 33h1M36 33h7M55 33h4M36 34h3M41 34h3M55 34h4M16 35h1M37 35h1M42 35h2M56 35h3M16 36h1M37 36h1M43 36h2M56 36h3M15 37h1M43 37h2M57 37h1M15 38h1M43 38h2M15 39h1M43 39h2M15 40h1M37 40h1M44 40h1M15 41h1M37 41h1M44 41h1M15 42h1M36 42h1M15 43h1M35 43h1M34 44h1M43 44h1M16 45h1M33 45h1M39 45h1M16 46h1M31 46h2M17 47h1M29 47h2M18 48h1M26 48h3M21 49h5M56 50h1M56 51h1M48 52h1M56 52h1M56 53h2M45 54h1M56 54h3M47 55h1M57 55h3M47 56h1M58 56h3M57 57h1M59 57h1M61 57h1M58 58h1M60 58h1M62 58h1M40 59h1M39 60h1M63 60h1M39 61h1M33 63h3M44 63h3M33 64h6M43 64h1M33 65h6M34 66h4M38 67h3M63 67h1M38 68h4M49 68h1M62 68h1M64 68h3M38 69h4M49 69h1M64 69h7M38 70h4M49 70h1M59 70h1M66 70h4M38 71h4M48 71h1M52 71h2M59 71h1M39 72h2M51 72h3" />
<path stroke="#41625a" d="M30 20h5M43 20h3M35 21h2M37 22h1M38 23h1M19 24h1M39 24h1M18 25h1M32 25h3M39 25h1M35 26h3M40 26h1M38 27h1M40 27h1M56 27h1M17 28h1M39 28h1M17 29h1M40 29h1M42 29h1M46 29h4M57 29h1M17 30h1M41 30h1M51 30h2M17 31h1M42 31h1M53 31h1M58 31h1M54 32h1M43 33h1M39 34h2M59 34h1M38 35h1M59 35h1M38 36h1M42 36h1M59 36h1M37 37h1M58 37h2M37 38h1M58 38h2M37 39h1M42 39h1M54 39h1M58 39h1M41 40h1M55 40h3M40 41h1M39 43h1M39 44h1M38 47h1M37 48h1M20 49h1M36 49h1M49 49h1M21 50h3M34 50h1M48 50h1M26 51h7M48 51h1M47 52h1M47 53h1M47 54h1M44 55h1M39 59h1M34 60h1M33 61h1M65 61h1M33 62h1M67 62h1M69 63h1M42 64h1M39 65h3M38 66h1M37 67h1M37 68h1M63 68h1M71 68h1M62 69h1M65 70h1M38 72h1M45 72h2" />
<path stroke="#73bd6a" d="M26 21h7M34 21h1M23 22h9M33 22h1M21 23h10M32 23h1M34 23h1M20 24h2M25 24h7M33 24h1M20 25h1M25 25h5M19 26h2M24 26h8M19 27h15M18 28h3M23 28h1M28 28h7M18 29h2M29 29h6M18 30h1M30 30h6M30 31h1M34 31h2M18 32h1M35 32h1M17 34h1M31 34h3M17 35h1M30 35h1M33 35h2M29 36h2M34 36h1M16 37h1M29 37h1M34 37h1M56 37h1M16 38h1M29 38h1M34 38h1M55 38h3M25 39h2M29 39h2M33 39h1M55 39h3M16 40h2M23 40h5M30 40h4M36 40h1M42 40h2M16 41h3M20 41h8M31 41h2M36 41h1M42 41h2M17 42h2M21 42h8M35 42h1M42 42h2M18 43h2M21 43h9M33 43h2M42 43h2M19 44h1M21 44h13M41 44h2M19 45h1M21 45h12M41 45h2M19 46h1M21 46h10M41 46h2M19 47h1M21 47h8M40 47h2M20 48h6M38 48h4M38 49h3M37 50h3M49 50h1M54 50h2M23 51h1M36 51h3M54 51h2M24 52h1M34 52h4M49 52h1M54 52h2M27 53h8M48 53h3M53 53h3M48 54h8M45 55h2M48 55h9M43 56h4M48 56h10M42 57h7M50 57h7M58 57h1M60 57h1M41 58h7M49 58h1M51 58h7M59 58h1M61 58h1M41 59h6M48 59h1M50 59h1M52 59h11M36 60h3M40 60h8M49 60h1M51 60h12M34 61h5M40 61h7M48 61h1M50 61h1M52 61h13M34 62h16M51 62h16M36 63h8M47 63h18M67 63h2M39 64h3M44 64h22M69 64h2M42 65h4M49 65h7M59 65h9M70 65h2M39 66h4M48 66h6M61 66h11M41 67h1M46 67h7M57 67h2M62 67h1M64 67h8M42 68h7M50 68h2M55 68h5M67 68h4M42 69h7M50 69h1M54 69h2M58 69h2M42 70h7M50 70h1M53 70h2M42 71h6M49 71h1M41 72h4" />
<path stroke="#8be673" d="M22 24h3M21 25h4M21 26h3M24 28h4M22 29h7M20 30h10M19 31h11M19 32h11M18 33h11M18 34h10M18 35h10M17 36h10M17 37h10M17 38h10M19 39h6M20 40h3M41 41h1M40 42h2M40 43h2M40 44h1M40 45h1M39 46h2M39 47h1M50 48h1M37 49h1M50 49h2M35 50h2M50 50h4M24 51h2M33 51h3M49 51h5M25 52h9M50 52h4M51 53h2M49 57h1M48 58h1M50 58h1M47 59h1M49 59h1M51 59h1M48 60h1M50 60h1M47 61h1M49 61h1M51 61h1M50 62h1M65 63h2M66 64h3M46 65h3M68 65h2M43 66h5M42 67h4" />
<path stroke="#ffde29" d="M31 31h3M31 32h3M30 33h1M34 33h1M28 34h1M35 34h1M35 35h1M27 36h1M31 36h2M35 36h2M27 37h1M31 37h3M35 37h2M27 38h2M31 38h3M35 38h2M16 39h1M27 39h2M31 39h2M35 39h1M18 40h1M28 40h1M34 40h2M38 40h1M19 41h1M28 41h2M33 41h2M38 41h1M53 41h1M16 42h1M19 42h1M29 42h5M54 42h1M16 43h2M30 43h3M52 43h1M17 44h1M54 44h1M17 45h2M54 45h1M18 46h1M53 47h2M53 48h1M56 65h3M54 66h7M53 67h4M59 67h2M52 68h3M52 69h2M56 69h2" />
<path stroke="#fff67b" d="M30 32h1M29 33h1M29 34h1M28 35h1M28 36h1M28 37h1M17 39h2M19 40h1M53 43h1M52 44h2M53 45h1M51 46h2M51 47h2M52 48h1" />
<path stroke="#e6ac00" d="M34 32h1M31 33h3M35 33h1M30 34h1M34 34h1M29 35h1M31 35h2M36 35h1M33 36h1M30 37h1M30 38h1M38 38h1M34 39h1M36 39h1M38 39h2M29 40h1M39 40h1M54 40h1M58 40h1M30 41h1M35 41h1M39 41h1M54 41h5M20 42h1M34 42h1M37 42h3M53 42h1M55 42h4M20 43h1M36 43h3M54 43h4M16 44h1M18 44h1M20 44h1M55 44h3M20 45h1M51 45h2M55 45h3M17 46h1M20 46h1M53 46h4M18 47h1M20 47h1M50 47h1M55 47h2M19 48h1M51 48h1M54 48h3M52 49h5M61 67h1M60 68h2M51 69h1M60 69h2M51 70h2M55 70h4M60 70h2M50 71h2M54 71h5M50 72h1M54 72h2" />
</svg>