<svg xmlns="http://www.w3.org/2000/svg" viewBox="0 -0.5 80 80" shape-rendering="crispEdges">
<metadata>Made with Pixels to Svg https://codepen.io/shshaw/pen/XbxvNj</metadata>
<path stroke="#526283" d="M47 16h6M44 17h3M53 17h1M42 18h2M40 19h2M39 20h1M38 21h1M36 22h2M35 23h1M34 24h1M33 25h1M32 26h1M31 27h1M30 28h1M37 28h5M30 29h1M34 29h2M43 29h2M29 30h1M33 30h1M45 30h1M32 31h1M46 31h1M28 32h1M31 32h1M47 32h1M30 33h1M48 33h1M30 34h1M48 34h1M27 35h1M29 35h1M49 35h1M29 36h1M49 36h1M29 37h1M49 37h1M29 38h1M49 38h1M29 39h1M49 39h1M29 40h1M49 40h1M29 41h1M49 41h1M30 42h1M48 42h1M30 43h1M48 43h1M31 44h1M47 44h1M32 45h1M46 45h1M33 46h1M45 46h1M34 47h2M43 47h2M36 48h7" />
<path stroke="#8bcdde" d="M47 17h6M44 18h7M42 19h8M40 20h8M39 21h1M42 21h6M38 22h1M42 22h4M36 23h1M41 23h5M35 24h1M39 24h6M34 25h1M38 25h7M33 26h2M37 26h7M32 27h12M31 28h6M42 28h1M31 29h3M30 30h3M30 31h2M29 32h2M29 33h1M29 34h1M28 35h1M28 36h1M28 37h1M28 38h1M28 39h1M28 40h1M28 41h1M29 42h1M29 43h1M30 44h1M30 45h2" />
<path stroke="#83b4c5" d="M51 18h1M50 19h1M48 20h2M48 21h1M46 22h3M46 23h2M45 24h3M45 25h3M44 26h4M44 27h4M43 28h6M45 29h4M46 30h4M47 31h3M48 32h3M49 33h2M49 34h2M50 35h2M50 36h2M50 37h2M50 38h2M50 39h2M50 40h2M50 41h1M49 42h2M49 43h2M48 44h2M47 45h3M31 46h2M46 46h3M32 47h2M45 47h3M34 48h2M43 48h3M37 49h6" />
<path stroke="#39415a" d="M52 18h1M51 19h1M50 20h1M49 21h1M49 22h1M48 23h1M48 24h1M48 25h1M48 26h1M48 27h1M49 28h1M49 29h1M50 30h1M29 31h1M50 31h1M51 32h1M28 33h1M51 33h1M28 34h1M51 34h1M52 35h1M27 36h1M27 37h1M27 38h1M27 39h1M27 40h1M27 41h1M28 42h1M28 43h1M29 44h1M33 48h1" />
<path stroke="#ffffff" d="M40 21h2M39 22h3M37 23h4M36 24h3M35 25h3M35 26h2" />
<path stroke="#6273bd" d="M36 29h1M42 29h1M48 35h1M48 36h1M47 37h2M45 38h4M45 39h4M30 40h1M33 40h3M44 40h5M30 41h1M32 41h5M44 41h5M31 42h1M33 42h3M42 42h6M31 43h2M36 43h12M32 44h15M33 45h13M34 46h11M36 47h7" />
<path stroke="#94b4cd" d="M37 29h5M36 30h7M37 31h5" />
<path stroke="#738bd5" d="M34 30h2M43 30h2M33 31h4M42 31h4M32 32h15M31 33h17M33 34h6M42 34h6M33 35h4M44 35h4M33 36h4M44 36h4M34 37h2M45 37h2" />
<path stroke="#cdeef6" d="M31 34h2M39 34h3M30 35h3M37 35h7M30 36h1M32 36h1M37 36h7M31 37h1M33 37h1M36 37h3M41 37h4M33 38h5M39 38h1M42 38h3M32 39h6M42 39h1M36 40h3" />
<path stroke="#5a5a52" d="M31 36h1M30 37h1M32 37h1M39 37h2M30 38h3M38 38h1M40 38h2M31 39h1M38 39h4M39 40h2M31 41h1M32 42h1M36 42h2M33 43h3M28 47h1M49 47h2M27 48h1M51 48h1M26 49h1M26 50h1M25 51h1M28 51h1M32 51h1M50 51h1M25 52h1M27 52h1M31 52h1M25 53h1M31 53h1M25 54h1M30 54h1M44 54h1M55 55h1M51 57h1M31 58h1M43 58h2M43 60h1M48 60h1" />
<path stroke="#181818" d="M52 36h1M52 37h1M52 38h1M52 39h1M52 40h1M51 41h1M51 42h1M51 43h1M50 44h1M29 45h1M50 45h1M30 46h1M49 46h1M31 47h1M48 47h1M32 48h1M46 48h2M52 48h1M34 49h3M43 49h3M53 49h1M37 50h6M54 50h1M54 51h1M51 52h1M55 52h1M27 53h1M52 53h1M55 53h1M26 54h1M52 54h1M55 54h1M26 55h1M30 55h1M44 55h1M52 55h1M26 56h1M30 56h1M44 56h1M52 56h1M54 56h1M27 57h1M30 57h1M44 57h1M52 57h2M28 58h1M51 58h1M30 59h2M43 59h1M49 59h2M31 60h2M42 60h1M44 60h4M33 61h2M40 61h2M35 62h5" />
<path stroke="#b4c5de" d="M30 39h1M43 39h2M31 40h2M41 40h3M37 41h7M38 42h4" />
<path stroke="#c5c5c5" d="M29 47h1M28 48h2M27 49h4M51 49h2M27 50h2M31 50h1M50 50h4M26 51h2M29 51h3M51 51h3M28 52h3M32 52h3M49 52h2M52 52h3M28 53h3M32 53h7M48 53h4M53 53h1M28 54h2M31 54h9M41 54h1M48 54h4M31 55h8M40 55h1M48 55h4M31 56h9M41 56h1M49 56h3M32 57h7M40 57h1M33 58h4" />
<path stroke="#948b94" d="M30 47h1M30 48h2M48 48h3M31 49h3M46 49h5M29 50h2M32 50h5M43 50h7M33 51h17M26 52h1M35 52h14M26 53h1M39 53h9M54 53h1M27 54h1M40 54h1M42 54h2M45 54h3M53 54h2M27 55h3M39 55h1M41 55h3M45 55h3M53 55h2M27 56h3M40 56h1M42 56h2M45 56h4M53 56h1M28 57h2M31 57h1M39 57h1M41 57h3M45 57h6M29 58h2M32 58h1M37 58h6M45 58h6M32 59h11M44 59h5M33 60h9M35 61h5" />
</svg>