<svg xmlns="http://www.w3.org/2000/svg" viewBox="0 -0.5 80 80" shape-rendering="crispEdges">
<metadata>Made with Pixels to Svg https://codepen.io/shshaw/pen/XbxvNj</metadata>
<path stroke="#39528b" d="M27 23h3M26 24h1M30 24h1M26 25h1M38 25h4M26 26h2M42 26h1M26 27h1M39 27h1M42 27h3M25 28h1M40 28h1M45 28h2M24 29h1M47 29h1M48 30h1M49 31h1M21 32h1M49 32h1M21 33h1M34 33h1M50 33h1M22 34h3M28 34h1M50 34h1M22 35h1M38 35h1M22 36h1M51 37h1M52 42h1M52 43h1M52 44h1M51 45h1M54 45h1M51 46h1M54 46h1M50 47h1M53 47h2M53 48h1M52 49h1M49 50h1M48 51h1M55 51h1M47 52h1M53 52h1M45 53h1M43 54h2" />
<path stroke="#94acf6" d="M27 24h3M27 25h2M32 25h6M28 26h2M34 26h3M38 26h4M27 27h2M35 27h4M41 27h1M28 28h1M35 28h4M41 28h1M28 29h2M33 29h7M41 29h1M27 30h7M37 30h5M22 31h11M37 31h5M22 32h4M27 32h6M37 32h4M23 33h7M31 33h3M37 33h2M30 34h8M43 34h1M48 34h1M31 35h6M43 35h1M48 35h1M44 36h4M46 43h1M48 43h1" />
<path stroke="#4a6abd" d="M32 24h7M29 25h3M37 26h1M40 27h1M27 28h1M42 28h1M27 29h1M42 29h1M22 30h2M34 30h1M36 30h1M21 31h1M33 31h1M26 32h1M33 32h1M22 33h1M30 33h1M36 33h1M29 34h1M38 34h1M32 36h1M35 36h1M51 38h1M50 39h2M50 40h2M50 41h2M49 42h3M49 43h3M45 44h1M49 44h3M54 44h1M45 45h1M49 45h2M52 45h2M45 46h1M49 46h2M52 46h2M45 47h1M49 47h1M51 47h2M55 47h1M58 47h1M45 48h8M54 48h4M45 49h7M53 49h5M45 50h4M50 50h7M45 51h3M49 51h6M44 52h3M48 52h5M44 53h1" />
<path stroke="#acd5f6" d="M30 26h4M29 27h6M29 28h6M30 29h3M44 33h1M47 33h1M24 35h1M44 35h1M47 35h1M32 37h1M47 38h2M47 39h2M47 43h1M46 44h3M46 45h3M46 46h3M47 47h1" />
<path stroke="#101010" d="M26 28h1M25 29h1M25 30h2M35 30h1M34 31h1M36 31h1M34 32h3M35 33h1M25 34h3M25 35h1M30 35h1M51 35h1M24 36h1M31 36h1M36 36h1M51 36h1M23 37h1M33 37h3M32 38h1M52 38h1M31 39h1M52 39h1M52 40h1M52 41h1M53 43h2M55 44h1M55 45h4M59 46h1M59 47h1M58 48h1M19 49h2M58 49h1M21 50h2M57 50h1M24 51h1M56 51h1M54 52h1M29 53h1M46 53h1M48 53h5M32 54h2M40 54h1M40 55h2" />
<path stroke="#7b9ce6" d="M39 28h1M43 28h2M40 29h1M43 29h4M24 30h1M42 30h6M42 31h7M41 32h8M39 33h5M48 33h2M39 34h4M49 34h1M37 35h1M39 35h4M49 35h2M33 36h2M41 36h3M48 36h3M42 37h9M43 38h4M49 38h2M43 39h4M49 39h1M44 40h6M44 41h6M45 42h4M45 43h1M53 44h1M55 46h4M46 47h1M48 47h1M56 47h2" />
<path stroke="#ffffff" d="M26 29h1M35 31h1M45 33h2M44 34h4M23 35h1M45 35h2M23 36h1M31 37h1M31 38h1" />
<path stroke="#833129" d="M26 35h4M25 36h6M24 37h7M24 38h7M33 38h3M24 39h7M32 39h4M25 40h11M25 41h3M34 41h2M26 42h1M34 42h1M27 43h2M33 43h2M29 44h5" />
<path stroke="#6a5a31" d="M37 36h1M21 43h1M20 44h2M18 45h2M17 46h1M17 47h1M18 48h1M23 50h2M39 52h1M28 53h1M34 53h1M39 53h1M30 54h2M34 54h1M35 55h1M36 56h1M40 56h1M37 57h3" />
<path stroke="#cdbd83" d="M38 36h1M21 38h1M21 45h1M21 46h1M19 47h3M44 47h1M19 48h3M42 48h3M21 49h2M24 49h1M40 49h5M25 50h2M38 50h7M25 51h9M37 51h7M27 52h7M37 52h2M40 52h4M30 53h4M37 53h2M40 53h3M37 54h3M41 54h1M38 55h2M39 56h1" />
<path stroke="#f6e6bd" d="M39 36h1M36 37h5M22 38h2M36 38h6M22 39h2M36 39h7M22 40h3M36 40h7M22 41h3M36 41h8M22 42h4M35 42h9M22 43h5M35 43h10M22 44h7M34 44h11M20 45h1M24 45h20M18 46h3M23 46h20M18 47h1M24 47h17M25 48h14M28 49h8" />
<path stroke="#a4946a" d="M40 36h1M22 37h1M41 37h1M42 38h1M21 39h1M21 40h1M43 40h1M21 41h1M21 42h1M44 42h1M22 45h1M22 46h1M22 47h1M22 48h2M23 49h1M34 51h1M44 51h1M25 52h2M27 53h1M43 53h1M42 54h1" />
<path stroke="#d54a31" d="M28 41h6M27 42h1" />
<path stroke="#ee734a" d="M28 42h6M29 43h4" />
<path stroke="#e6d5ac" d="M23 45h1M44 45h1M43 46h2M23 47h1M41 47h3M24 48h1M39 48h3M25 49h3M36 49h4M27 50h11M35 51h2M34 52h3M35 53h2M35 54h2M36 55h2M37 56h2" />
</svg>