<svg xmlns="http://www.w3.org/2000/svg" viewBox="0 -0.5 80 80" shape-rendering="crispEdges">
<metadata>Made with Pixels to Svg https://codepen.io/shshaw/pen/XbxvNj</metadata>
<path stroke="#31527b" d="M39 8h4M46 9h1M52 9h1M39 11h1M34 12h1M40 12h1M54 12h1M59 12h1M27 13h1M37 13h1M40 13h1M53 13h3M58 13h1M60 13h2M28 14h1M32 14h1M40 14h1M54 14h1M56 14h2M62 14h1M28 15h1M33 15h1M38 15h1M55 15h1M61 15h1M34 16h2M56 16h1M60 16h1M62 16h1M52 17h2M55 17h1M61 17h1M63 17h1M23 18h1M51 18h1M54 18h1M63 18h1M24 19h1M26 19h1M52 19h2M64 19h1M25 20h1M27 20h1M54 20h1M65 20h1M26 21h1M35 21h2M50 21h1M53 21h1M63 21h1M65 21h1M25 22h1M34 22h1M49 22h1M51 22h2M62 22h1M64 22h1M26 23h1M34 23h1M49 23h1M61 23h1M33 24h1M35 24h1M47 24h1M50 24h1M61 24h1M63 24h1M33 25h1M47 25h2M50 25h1M60 25h3M64 25h1M33 26h1M35 26h1M49 26h1M64 26h1M33 27h1M36 27h3M50 27h1M55 27h1M65 27h1M50 28h1M54 28h1M56 28h1M63 28h2M32 29h1M49 29h1M54 29h1M56 29h1M64 29h1M30 30h1M32 30h1M49 30h1M55 30h1M57 30h1M59 30h1M65 30h1M31 31h1M49 31h1M51 31h1M54 31h1M58 31h1M64 31h1M50 32h1M52 32h2M58 32h1M60 32h1M64 32h1M59 33h1M61 33h1M63 33h1M62 35h1M12 37h7M10 38h1M19 38h4M9 39h2M23 39h2M7 40h2M25 40h2M24 41h1M22 42h2M20 43h1M18 44h1M3 45h1M17 45h1M3 46h1M16 46h1M4 47h5M9 48h4M13 49h1M47 52h1M63 52h1M47 53h1M63 53h1M47 54h1M61 54h1M13 55h1M47 55h1M61 55h1M64 55h1M47 56h1M60 56h1M24 57h1M46 57h1M59 57h1M65 57h1M14 58h1M23 58h1M32 58h1M46 58h1M14 59h1M21 59h2M32 59h1M66 59h1M13 60h1M20 60h2M23 60h1M32 60h1M56 60h1M13 61h1M32 61h2M45 61h1M55 61h1M13 62h1M19 62h2M23 62h1M25 62h1M31 62h1M54 62h2M14 63h1M21 63h2M24 63h4M52 63h6M66 63h1M23 64h1M60 64h6M25 65h1M24 66h1M22 67h1M40 67h1M21 68h1M36 68h1M24 69h1M30 69h1" />
<path stroke="#101010" d="M43 8h3M47 9h1M51 10h1M44 11h1M50 11h1M37 12h1M41 13h1M43 13h1M42 14h1M39 15h1M36 16h3M33 17h1M42 17h1M35 18h4M43 18h1M27 19h1M35 19h1M44 19h1M35 20h1M44 20h1M34 21h1M33 22h1M36 22h1M38 22h2M45 22h1M32 23h1M36 23h1M45 23h1M32 24h1M45 24h1M31 25h1M35 25h1M31 26h1M39 26h1M46 26h1M30 27h1M46 27h1M30 28h1M46 28h1M29 29h1M34 29h1M46 29h1M29 30h1M33 30h2M46 30h1M29 31h1M34 31h1M46 31h1M28 32h1M46 32h1M28 33h1M46 33h1M28 34h1M46 34h1M62 34h1M27 35h1M45 36h1M63 36h1M44 37h1M63 37h1M63 38h1M64 39h1M31 40h1M64 40h1M31 41h1M64 41h1M32 42h1M64 42h1M64 43h1M64 44h1M64 45h1M64 46h1M15 47h1M64 47h1M15 48h1M64 48h1M14 49h1M63 49h1M14 50h1M63 50h1M13 51h1M63 51h1M13 52h1M62 52h1M13 53h1M62 53h1M13 54h1M64 54h1M65 56h1M66 58h1M46 59h1M22 60h1M46 60h1M67 60h1M24 61h2M67 61h1M26 62h1M28 62h3M45 62h1M67 62h1M15 63h3M45 63h1M67 63h1M18 64h3M24 64h1M44 64h1M49 64h4M57 64h3M66 64h1M21 65h3M43 65h5M61 65h5M23 66h1M42 66h1M41 67h1M37 68h3M21 69h3M31 69h5M24 70h6" />
<path stroke="#bdcdde" d="M49 8h1M51 8h1M48 9h1M50 9h1M28 10h1M48 10h1M27 11h1M29 11h1M47 11h1M52 11h2M26 12h1M30 12h2M50 12h2M45 13h1M41 14h1M26 15h1M40 15h1M25 16h1M27 16h1M39 16h2M51 16h3M24 17h1M34 17h6M50 17h2M54 17h1M49 18h2M45 19h7M45 20h9M45 21h5M51 21h2M46 22h3M50 22h1M33 23h1M46 23h3M50 23h3M57 23h2M46 24h1M48 24h2M51 24h3M56 24h4M32 25h1M46 25h1M49 25h1M51 25h9M63 25h1M32 26h1M50 26h14M31 27h2M51 27h4M56 27h9M31 28h3M51 28h3M57 28h6M30 29h2M33 29h1M52 29h2M57 29h7M31 30h1M58 30h1M60 30h5M60 31h4M61 32h3M58 33h1M62 33h1M56 34h1M54 35h1M61 35h1M39 36h2M51 36h1M61 36h1M60 37h2M18 38h1M59 38h2M19 39h1M57 39h2M9 40h2M20 40h1M55 40h1M12 41h1M52 41h1M13 42h1M21 42h1M16 44h1" />
<path stroke="#3973ac" d="M37 9h2M34 10h5M33 11h1M43 11h1M45 11h1M32 12h1M46 12h1M32 13h1M47 26h2M47 27h3M34 28h1M47 28h3M55 28h1M35 29h1M47 29h2M55 29h1M36 30h4M48 30h1M56 30h1M55 31h3M34 32h1M54 32h4M33 33h1M54 33h4M60 33h1M32 34h1M54 34h2M58 34h4M32 35h1M51 35h3M57 35h4M32 36h1M41 36h2M46 36h5M55 36h6M62 36h1M52 37h3M56 37h4M62 37h1M32 38h1M41 38h11M57 38h2M61 38h2M12 39h1M21 39h1M31 39h1M55 39h2M60 39h4M13 40h1M21 40h1M29 40h2M52 40h3M58 40h6M6 41h1M14 41h1M22 41h1M25 41h4M57 41h7M5 42h1M15 42h1M24 42h1M53 42h11M4 43h1M14 43h1M16 43h1M21 43h1M32 43h1M58 43h6M4 44h1M15 44h1M17 44h1M19 44h1M33 44h1M58 44h6M16 45h1M58 45h6M57 46h1M59 46h5M58 47h6M57 48h1M59 48h5M56 49h1M58 49h1M60 49h3M57 50h1M59 50h4M56 51h1M58 51h1M60 51h3M35 52h1M55 52h1M57 52h1M59 52h3M26 53h1M34 53h1M54 53h1M56 53h1M58 53h4M26 54h1M33 54h1M52 54h2M55 54h1M57 54h4M62 54h2M25 55h1M33 55h1M48 55h13M62 55h2M13 56h1M25 56h1M32 56h1M48 56h12M61 56h4M13 57h1M32 57h1M47 57h12M60 57h1M64 57h1M24 58h1M45 58h1M47 58h14M65 58h1M23 59h3M45 59h1M47 59h14M65 59h1M24 60h8M44 60h2M47 60h9M57 60h5M65 60h2M21 61h2M26 61h6M34 61h2M44 61h1M46 61h9M56 61h11M27 62h1M43 62h2M46 62h8M56 62h11M43 63h2M46 63h6M58 63h8M28 64h3M42 64h2M45 64h4M26 65h2M41 65h2M30 66h3M40 66h2M26 67h4M38 67h2M25 68h1" />
<path stroke="#ffffff" d="M39 9h5M49 9h1M51 9h1M39 10h4M49 10h2M28 11h1M40 11h2M48 11h2M27 12h3M41 12h1M45 12h1M47 12h3M52 12h1M28 13h4M46 13h7M29 14h3M45 14h7M29 15h3M43 15h8M26 16h1M28 16h4M44 16h5M25 17h6M26 18h4M31 18h2M40 18h2M28 19h1M30 19h3M40 19h2M30 20h2M41 20h2M29 21h3M41 21h2M29 22h2M42 22h1M28 23h2M42 23h2M28 24h1M42 24h2M28 25h1M43 25h1M27 33h1M27 34h1M44 35h1M44 36h1" />
<path stroke="#dee6ff" d="M44 9h2M43 10h5M42 11h1M46 11h1M53 12h1M59 13h1M44 14h1M52 14h2M55 14h1M58 14h4M32 15h1M41 15h2M51 15h4M56 15h5M32 16h2M41 16h3M49 16h2M54 16h2M57 16h3M43 17h7M56 17h5M62 17h1M24 18h2M44 18h5M52 18h2M55 18h8M25 19h1M54 19h10M28 20h1M55 20h10M27 21h1M54 21h9M64 21h1M26 22h2M53 22h9M53 23h4M59 23h2M54 24h2M60 24h1M35 27h1M36 28h3M50 29h2M50 30h5M50 31h1M52 31h2M59 31h1M59 32h1M34 33h1M35 34h1M57 34h1M36 35h2M55 35h2M38 36h1M52 36h3M41 37h3M45 37h7M33 38h1M20 39h1M34 39h1M59 39h1M11 40h2M35 40h2M56 40h2M13 41h1M21 41h1M37 41h3M53 41h3M14 42h1M40 42h13M15 43h1" />
<path stroke="#83b4e6" d="M34 11h5M33 12h1M35 12h2M38 12h2M33 13h1M35 13h2M38 13h2M34 14h4M35 22h1M35 23h1M34 24h1M34 25h1M34 26h1M34 27h1M39 27h2M35 28h1M39 28h2M36 29h4M35 31h2M35 32h3M36 33h3M33 34h1M38 34h3M33 35h2M33 36h3M34 37h4M12 38h5M35 38h6M13 39h4M32 39h1M37 39h10M14 40h2M32 40h2M40 40h12M7 41h5M29 41h2M32 41h3M6 42h7M25 42h7M33 42h4M5 43h8M22 43h10M33 43h7M53 43h1M5 44h6M20 44h13M34 44h20M5 45h4M18 45h36M17 46h37M16 47h38M16 48h37M15 49h38M15 50h38M15 51h32M48 51h4M14 52h12M27 52h8M36 52h11M49 52h2M14 53h12M27 53h7M35 53h12M15 54h10M29 54h4M34 54h12M16 55h6M34 55h12M18 56h1M20 56h1M34 56h11M17 57h1M19 57h1M35 57h9M18 58h1M37 58h4M42 58h1M39 59h1M41 59h1M43 59h1M14 60h1M40 60h1M42 60h1M14 61h2M15 62h3M28 63h8M26 64h2M32 64h5M28 65h9M25 66h5M34 66h2M24 67h2M30 67h5M26 68h4" />
<path stroke="#a4835a" d="M42 12h1M43 14h1M32 17h1M40 17h2M34 18h1M39 18h1M39 19h1M39 20h1M39 21h1M44 21h1M40 23h1M40 24h1M40 25h1M45 25h1M27 26h1M40 26h1M26 27h1M26 28h1M41 28h1M26 29h1M41 29h1M26 30h1M41 30h1M26 31h1M42 31h1M26 32h1M42 32h1M26 33h1M42 33h1M26 34h1M43 34h1M43 35h1M45 35h1M43 36h1" />
<path stroke="#f6a46a" d="M43 12h2M42 13h1M44 13h1M31 17h1M30 18h1M29 19h1M29 20h1M28 21h1M28 22h1M40 22h1M27 23h1M27 24h1M27 25h1M41 27h1" />
<path stroke="#5a8bc5" d="M34 13h1M33 14h1M38 14h2M34 15h4M40 29h1M35 30h1M40 30h1M47 30h1M37 31h5M47 31h2M38 32h4M47 32h3M51 32h1M35 33h1M39 33h3M47 33h7M34 34h1M36 34h2M41 34h2M47 34h7M35 35h1M38 35h5M46 35h5M36 36h2M33 37h1M38 37h3M55 37h1M11 38h1M17 38h1M34 38h1M52 38h5M11 39h1M17 39h2M22 39h1M33 39h1M35 39h2M47 39h8M16 40h4M22 40h3M34 40h1M37 40h3M15 41h6M23 41h1M35 41h2M40 41h12M56 41h1M16 42h5M37 42h3M13 43h1M17 43h3M40 43h13M54 43h4M11 44h4M54 44h4M4 45h1M9 45h7M54 45h4M4 46h12M54 46h3M58 46h1M9 47h6M54 47h4M13 48h2M53 48h4M58 48h1M53 49h3M57 49h1M59 49h1M53 50h4M58 50h1M14 51h1M47 51h1M52 51h4M57 51h1M59 51h1M26 52h1M48 52h1M51 52h4M56 52h1M58 52h1M48 53h6M55 53h1M57 53h1M14 54h1M25 54h1M27 54h2M46 54h1M48 54h4M54 54h1M56 54h1M14 55h2M22 55h3M26 55h7M46 55h1M14 56h4M19 56h1M21 56h4M26 56h6M33 56h1M45 56h2M14 57h3M18 57h1M20 57h4M25 57h7M33 57h2M44 57h2M61 57h3M15 58h3M19 58h4M25 58h7M33 58h4M41 58h1M43 58h2M61 58h4M15 59h6M26 59h6M33 59h6M40 59h1M42 59h1M44 59h1M61 59h4M15 60h5M33 60h7M41 60h1M43 60h1M62 60h3M16 61h5M23 61h1M36 61h8M14 62h1M18 62h1M21 62h2M24 62h1M32 62h11M18 63h3M23 63h1M36 63h7M21 64h2M25 64h1M31 64h1M37 64h5M24 65h1M37 65h4M33 66h1M36 66h4M23 67h1M35 67h3M22 68h3M30 68h6M25 69h5" />
<path stroke="#ffde83" d="M33 18h1M42 18h1M34 19h1M43 19h1M34 20h1M33 21h1M32 22h1M44 22h1M31 24h1M30 26h1M45 26h1M29 27h1M45 27h1M27 28h3M42 28h1M45 28h1M27 29h2M42 29h4M27 30h2M42 30h4M27 31h2M43 31h3M27 32h1M43 32h3M43 33h3M44 34h2" />
<path stroke="#ffffa4" d="M33 19h1M42 19h1M32 20h2M40 20h1M43 20h1M32 21h1M40 21h1M43 21h1M31 22h1M41 22h1M43 22h1M30 23h2M41 23h1M44 23h1M29 24h2M41 24h1M44 24h1M29 25h2M41 25h2M44 25h1M28 26h2M41 26h4M27 27h2M42 27h3M43 28h2" />
<path stroke="#c53131" d="M36 19h3M36 20h3M37 21h2M37 22h1" />
<path stroke="#ee8383" d="M37 23h3M36 24h4M36 25h4M36 26h3" />
</svg>