<svg xmlns="http://www.w3.org/2000/svg" viewBox="0 -0.5 80 80" shape-rendering="crispEdges">
<metadata>Made with Pixels to Svg https://codepen.io/shshaw/pen/XbxvNj</metadata>
<path stroke="#4a83d5" d="M35 15h7M31 16h4M29 17h2M28 18h1M27 19h1M48 19h1M47 20h1M49 20h1M46 21h1M48 21h1M50 21h1M52 21h1M26 22h1M45 22h1M47 22h1M49 22h3M53 22h2M26 23h2M41 23h1M43 23h3M47 23h5M53 23h1M26 24h4M38 24h3M42 24h5M48 24h3M52 24h2M25 25h4M30 25h9M43 25h5M49 25h2M52 25h4M25 26h2M43 26h6M51 26h2M25 27h1M45 27h4M50 27h3M25 28h1M46 28h2M50 28h5M25 29h1M49 29h7M49 30h7M46 31h1M50 31h5M51 32h3M43 33h2M51 33h2M50 34h2M36 35h2M49 35h1M35 36h3M46 36h1M35 37h2M22 38h1M43 38h4M54 38h1M22 39h1M28 39h2M32 39h2M35 39h12M54 39h1M29 40h5M35 40h12M20 41h1M29 41h5M35 41h9M56 41h2M19 42h1M44 42h2M15 43h1M41 43h3M64 43h1M70 43h1M15 44h2M62 44h3M15 45h2M59 45h3M69 45h1M15 46h3M62 46h3M66 46h3M15 47h3M50 47h1M62 47h3M66 47h2M48 48h1M57 48h1M63 48h1M65 48h2M58 49h1M63 49h1M65 49h1M46 50h1M64 50h1M14 51h5M46 51h1M59 51h1M12 52h1M20 52h1M46 52h1M62 52h2M22 53h1M60 53h4M23 54h1M61 54h3M67 54h1M9 55h1M23 55h1M47 55h1M61 55h3M67 55h1M23 56h1M46 56h1M61 56h3M66 56h1M8 57h1M61 57h3M65 57h1M61 58h1M60 59h1M58 62h1" />
<path stroke="#3962b4" d="M42 15h3M47 17h1M47 18h1M47 19h1M26 20h1M46 20h1M50 20h1M26 21h1M45 21h1M51 21h1M44 22h1M46 22h1M52 22h1M42 23h1M46 23h1M52 23h1M54 23h1M22 24h2M41 24h1M47 24h1M51 24h1M54 24h3M23 25h1M42 25h1M48 25h1M51 25h1M56 25h2M23 26h1M27 26h2M42 26h1M49 26h2M53 26h2M22 27h1M24 27h1M26 27h1M40 27h1M49 27h1M53 27h1M21 28h1M24 28h1M48 28h2M21 29h1M24 29h1M47 29h2M21 30h1M25 30h2M47 30h1M21 31h1M26 31h2M45 31h1M56 31h1M22 32h1M27 32h1M38 32h6M55 32h2M22 33h1M26 33h1M54 33h3M23 34h1M25 34h1M37 34h1M45 34h1M53 34h4M24 35h1M46 35h1M52 35h4M20 36h1M24 36h1M47 36h2M50 36h5M11 37h1M24 37h1M34 37h1M43 37h4M48 37h6M10 38h1M12 38h2M23 38h1M25 38h1M34 38h9M48 38h4M9 39h1M11 39h3M23 39h1M25 39h1M48 39h2M53 39h1M9 40h1M11 40h4M22 40h3M26 40h1M47 40h1M52 40h2M9 41h1M11 41h1M21 41h1M28 41h1M44 41h4M50 41h3M54 41h2M20 42h1M30 42h4M35 42h9M46 42h1M54 42h3M59 42h2M72 42h1M8 43h1M17 43h1M19 43h1M34 43h1M36 43h5M59 43h1M72 43h1M8 44h1M14 44h1M18 44h1M57 44h2M71 44h2M14 45h1M18 45h1M62 45h3M71 45h2M7 46h1M10 46h2M14 46h1M19 46h1M61 46h1M70 46h2M7 47h1M11 47h1M14 47h1M19 47h1M51 47h4M69 47h3M11 48h2M19 48h2M49 48h1M55 48h2M67 48h4M48 49h2M56 49h2M66 49h5M47 50h2M57 50h2M65 50h5M8 51h1M47 51h2M57 51h2M64 51h5M8 52h1M13 52h7M47 52h2M57 52h3M65 52h3M11 53h3M19 53h3M46 53h3M56 53h4M65 53h2M68 53h1M10 54h3M20 54h3M46 54h3M51 54h10M65 54h1M10 55h3M20 55h3M46 55h1M48 55h8M58 55h3M66 55h1M9 56h4M19 56h4M49 56h7M59 56h2M65 56h1M9 57h5M19 57h1M22 57h2M50 57h5M60 57h1M8 58h3M13 58h2M18 58h1M23 58h1M50 58h5M60 58h1M64 58h1M9 59h1M14 59h2M17 59h2M51 59h3M9 60h1M15 60h4M51 60h3M59 60h1M15 61h4M51 61h2M58 61h1M10 62h1M15 62h4M52 62h1M57 62h1M11 63h1M15 63h4" />
<path stroke="#83cdff" d="M35 16h6M42 16h3M31 17h3M35 17h6M42 17h5M29 18h5M35 18h5M41 18h6M28 19h5M34 19h6M41 19h6M27 20h6M34 20h5M40 20h6M27 21h5M33 21h6M40 21h5M27 22h4M32 22h7M40 22h3M28 23h2M31 23h9M30 24h8M23 27h1M22 28h2M22 29h2M22 30h3M22 31h4M21 32h1M23 32h4M28 32h2M21 33h1M23 33h3M27 33h2M21 34h2M24 34h1M26 34h2M22 35h1M25 35h2M22 36h1M11 38h1M10 39h1M71 39h2M10 40h1M70 40h2M69 41h3M12 42h2M61 42h2M65 42h5M11 43h3M60 43h4M11 44h3M11 45h2M51 45h6M49 46h4M13 49h2M11 50h4M10 51h3M10 52h2M10 53h1" />
<path stroke="#5aa4ff" d="M41 16h1M34 17h1M41 17h1M34 18h1M40 18h1M48 18h1M33 19h1M40 19h1M49 19h1M33 20h1M39 20h1M48 20h1M32 21h1M39 21h1M47 21h1M49 21h1M31 22h1M39 22h1M43 22h1M48 22h1M30 23h1M40 23h1M29 25h1M39 25h3M29 26h13M30 27h10M31 28h8M31 29h1M36 29h3M37 30h1M48 30h1M47 31h3M44 32h7M29 33h1M38 33h5M45 33h6M28 34h2M38 34h7M46 34h4M23 35h1M27 35h3M38 35h8M47 35h2M23 36h1M26 36h4M38 36h8M21 37h1M23 37h1M25 37h1M28 37h2M37 37h6M21 38h1M24 38h1M26 38h2M21 39h1M26 39h2M20 40h1M27 40h2M10 41h1M19 41h1M9 42h2M14 42h1M18 42h1M70 42h1M9 43h1M14 43h1M57 43h2M66 43h4M9 44h1M59 44h3M66 44h4M8 45h2M13 45h1M66 45h3M8 46h2M12 46h2M53 46h6M8 47h1M10 47h1M12 47h2M48 47h2M55 47h6M8 48h1M10 48h1M47 48h1M58 48h4M8 49h1M10 49h1M12 49h1M15 49h4M47 49h1M59 49h3M8 50h1M15 50h6M59 50h4M13 51h1M19 51h3M60 51h3M9 52h1M21 52h2M60 52h2M9 53h1M8 54h2M8 55h1M8 56h1M62 58h1M61 59h2M60 60h2M59 61h2" />
<path stroke="#313973" d="M45 16h2M25 22h1M25 23h1M20 24h2M25 24h1M22 25h1M24 25h1M24 26h1M19 29h1M32 29h4M56 29h1M20 30h1M31 30h1M36 30h1M56 30h1M20 31h1M28 31h1M30 31h1M37 31h1M55 31h1M20 32h1M37 32h1M20 33h1M37 33h1M53 33h1M36 34h1M52 34h1M21 35h1M35 35h1M50 35h2M21 36h1M25 36h1M49 36h1M12 37h2M20 37h1M22 37h1M26 37h2M47 37h1M14 38h1M20 38h1M28 38h2M33 38h1M47 38h1M52 38h1M71 38h2M14 39h1M20 39h1M24 39h1M34 39h1M47 39h1M50 39h3M70 39h1M73 39h1M15 40h1M19 40h1M21 40h1M25 40h1M34 40h1M48 40h3M69 40h1M72 40h1M12 41h4M18 41h1M22 41h1M27 41h1M34 41h1M48 41h2M60 41h3M65 41h4M72 41h1M11 42h1M15 42h3M21 42h1M28 42h2M34 42h1M57 42h2M63 42h2M71 42h1M10 43h1M16 43h1M18 43h1M20 43h1M30 43h4M35 43h1M55 43h2M65 43h1M71 43h1M10 44h1M17 44h1M19 44h1M43 44h1M51 44h6M65 44h1M70 44h1M10 45h1M17 45h1M19 45h1M49 45h2M57 45h2M65 45h1M70 45h1M18 46h1M48 46h1M59 46h2M65 46h1M69 46h1M72 46h1M9 47h1M18 47h1M47 47h1M61 47h1M65 47h1M68 47h1M72 47h1M7 48h1M9 48h1M13 48h6M46 48h1M54 48h1M62 48h1M64 48h1M7 49h1M9 49h1M11 49h1M19 49h2M46 49h1M55 49h1M62 49h1M64 49h1M7 50h1M9 50h2M45 50h1M56 50h1M63 50h1M7 51h1M9 51h1M45 51h1M54 51h3M63 51h1M69 51h1M7 52h1M45 52h1M52 52h5M64 52h1M68 52h1M8 53h1M18 53h1M45 53h1M51 53h5M64 53h1M67 53h1M7 54h1M19 54h1M45 54h1M49 54h2M64 54h1M66 54h1M7 55h1M19 55h1M24 55h1M45 55h1M56 55h2M64 55h2M7 56h1M13 56h1M18 56h1M45 56h1M48 56h1M58 56h1M64 56h1M7 57h1M14 57h1M18 57h1M20 57h2M45 57h1M49 57h1M55 57h1M59 57h1M64 57h1M7 58h1M11 58h2M15 58h1M17 58h1M19 58h1M22 58h1M49 58h1M55 58h1M59 58h1M63 58h1M8 59h1M10 59h1M13 59h1M16 59h1M50 59h1M54 59h1M59 59h1M8 60h1M14 60h1M50 60h1M54 60h1M9 61h1M14 61h1M50 61h1M53 61h1M14 62h1M50 62h2M53 62h1M14 63h1M19 63h1M52 63h1M12 64h1M14 64h1M13 65h2" />
<path stroke="#101010" d="M48 17h1M49 18h1M50 19h1M51 20h2M53 21h2M24 24h1M61 24h1M27 27h3M41 27h4M18 28h1M26 28h3M39 28h1M44 28h2M61 28h1M26 29h2M29 29h2M39 29h1M41 29h2M44 29h3M27 30h1M29 30h2M38 30h2M41 30h2M44 30h3M60 30h1M38 31h2M44 31h1M59 31h1M54 32h1M58 33h1M57 34h1M56 35h1M55 36h1M54 37h2M53 38h1M55 38h1M55 39h1M51 40h1M54 40h3M73 40h1M23 41h4M53 41h1M58 41h2M73 41h1M47 42h7M73 42h1M44 43h3M54 43h1M73 43h1M34 44h9M73 44h1M73 45h1M20 46h1M20 47h1M21 48h1M71 48h1M21 49h1M71 49h1M21 50h1M70 50h1M22 51h1M70 51h1M23 52h1M69 52h1M23 53h1M69 53h1M68 54h1M68 55h1M24 56h1M67 56h1M24 57h1M66 57h1M24 58h1M65 58h1M23 59h1M63 59h2M23 60h1M62 60h1M48 61h2M61 61h1M22 62h1M45 62h3M59 62h2M43 63h2M53 63h6M15 64h5M21 64h1M19 65h2" />
<path stroke="#948b94" d="M59 20h3M19 21h4M57 21h2M19 22h1M55 22h2M59 23h2M17 24h2M58 24h2M17 25h1M21 25h1M30 32h1M30 33h1M30 34h1M30 35h1M30 36h1M30 37h1M30 38h1M30 39h2" />
<path stroke="#736a73" d="M62 20h1M62 21h1M23 22h2M62 22h1M19 23h1M61 23h1M19 24h1M60 24h1M62 25h1M17 26h1M62 26h1M62 27h1M60 29h1M58 32h1M34 36h1M33 37h1M32 38h1M44 58h1M44 59h1M43 60h1M22 61h1M43 61h1M43 62h1M21 63h1" />
<path stroke="#ffffff" d="M59 21h3M20 22h3M57 22h2M23 23h1M55 23h3M18 25h3M58 25h4M21 26h2M55 26h4M54 27h3M32 30h1M31 31h2M31 32h2M31 33h1M31 34h1M31 35h1M51 48h3M50 49h3M50 50h2M49 51h2M49 52h1M15 53h1M14 54h2M13 55h3M14 56h2M47 56h1M15 57h1M46 57h2M56 57h2M45 58h2M56 58h1M12 59h1M19 59h1M45 59h1M55 59h2M11 60h2M19 60h2M44 60h2M55 60h1M10 61h3M19 61h2M44 61h1M54 61h2M11 62h2M19 62h2M54 62h1M12 63h1M20 63h1M20 64h1" />
<path stroke="#cdcdcd" d="M59 22h3M20 23h3M24 23h1M58 23h1M57 24h1M20 26h1M59 26h3M57 27h3M55 28h2M33 30h1M33 31h2M33 32h2M33 33h2M33 34h1M32 35h2M32 36h1M32 37h1M31 38h1" />
<path stroke="#acacac" d="M18 26h2M18 27h4M60 27h2M19 28h2M57 28h4M20 29h1M57 29h3M34 30h2M57 30h3M35 31h2M57 31h2M35 32h2M57 32h1M35 33h2M57 33h1M34 34h2M34 35h1M33 36h1M50 48h1M49 50h1M55 50h1M53 51h1M51 52h1M14 53h1M17 53h1M50 53h1M13 54h1M17 54h2M17 55h2M17 56h1M16 57h2M48 57h1M58 57h1M16 58h1M21 58h1M48 58h1M58 58h1M21 59h2M47 59h3M57 59h2M13 60h1M21 60h2M46 60h4M57 60h2M13 61h1M21 61h1M46 61h2M56 61h2M13 62h1M21 62h1M44 62h1M55 62h2M13 63h1M13 64h1" />
<path stroke="#d54a52" d="M29 28h2M41 28h2M28 29h1M40 29h1M43 29h1M28 30h1M43 30h1M29 31h1M42 31h1" />
<path stroke="#834a4a" d="M40 28h1M43 28h1M40 31h1M43 31h1" />
<path stroke="#ff6a6a" d="M40 30h1M41 31h1" />
<path stroke="#dedede" d="M32 33h1M32 34h1M31 36h1M31 37h1M53 49h2M52 50h3M51 51h2M50 52h1M16 53h1M49 53h1M16 54h1M16 55h1M16 56h1M56 56h2M20 58h1M47 58h1M57 58h1M11 59h1M20 59h1M46 59h1M10 60h1M56 60h1M45 61h1" />
</svg>