<svg xmlns="http://www.w3.org/2000/svg" viewBox="0 -0.5 80 80" shape-rendering="crispEdges">
<metadata>Made with Pixels to Svg https://codepen.io/shshaw/pen/XbxvNj</metadata>
<path stroke="#101010" d="M41 16h2M40 17h1M42 17h1M39 18h1M42 18h1M39 19h1M42 19h1M38 20h1M38 21h1M41 21h1M39 22h1M42 22h1M38 23h1M42 23h1M38 24h1M42 24h1M38 25h1M41 25h1M39 26h1M41 26h1M39 27h1M41 27h1M39 28h1M41 28h1M39 29h1M41 29h1M39 30h1M42 31h1M38 32h1M42 32h1M38 33h1M42 33h1M42 34h1M37 35h1M43 35h1M35 36h1M44 36h1M34 37h1M45 37h1M33 38h1M46 38h1M52 38h1M54 38h2M27 39h1M33 39h1M35 39h1M42 39h1M46 39h1M51 39h1M56 39h1M28 40h1M32 40h1M47 40h1M28 41h1M32 41h1M35 41h1M42 41h1M47 41h1M50 41h1M56 41h3M28 42h1M32 42h1M46 42h1M50 42h1M59 42h1M21 43h1M23 43h1M27 43h1M33 43h2M42 43h4M51 43h1M59 43h1M20 44h1M25 44h2M36 44h1M40 44h1M60 44h1M20 45h1M36 45h1M40 45h1M53 45h1M60 45h1M20 46h1M26 46h1M40 46h1M53 46h1M60 46h1M21 47h1M25 47h1M37 47h1M39 47h1M54 47h1M58 47h2M23 48h2M37 48h1M39 48h1M55 48h3M24 50h1M25 51h2M55 51h1M27 52h1M52 52h3M28 53h1M50 53h2M30 54h1M49 54h1M49 55h1M48 57h1M48 58h1M48 59h1M46 60h2M45 61h1M45 62h1M41 63h4M38 64h3" />
<path stroke="#5a5a5a" d="M41 17h1M40 18h2M40 19h2M39 20h2M39 21h1M41 22h1M41 23h1M40 24h1M40 25h1M40 26h1M40 27h1M40 28h1M40 29h1M40 30h1M40 31h1M40 32h2M39 33h3M39 34h3M38 35h4M40 36h3M35 37h1M41 37h4M34 38h1M41 38h1M43 38h3M34 39h1M36 39h1M39 39h3M43 39h3M33 40h1M36 40h6M44 40h3M33 41h1M36 41h6M44 41h3M36 42h6M44 42h1M35 43h7M37 44h3" />
<path stroke="#393941" d="M41 20h1M40 21h1M40 22h1M41 24h1M39 25h1M41 30h1M39 31h1M41 31h1M39 32h1M38 34h1M42 35h1M36 36h1M43 36h1M35 38h1M42 38h1M33 42h1M45 42h1M35 44h1M41 44h2" />
<path stroke="#737b6a" d="M39 23h2M39 24h1M37 36h3M36 37h5M36 38h5M37 39h2M34 40h1M43 40h1M34 42h1M43 42h1" />
<path stroke="#393131" d="M46 30h2M33 31h2M45 31h1M48 31h1M32 32h1M35 32h1M45 32h1M48 32h1M32 33h1M34 33h3M44 33h1M47 33h1M33 34h1M36 34h2M43 34h1M48 34h1M32 35h1M49 35h2M29 36h4M48 36h1M51 36h2M27 37h2M31 37h2M47 37h1M53 37h1M25 38h2M32 38h1M47 38h1M51 38h1M53 38h1M23 39h2M32 39h1M47 39h2M50 39h1M22 40h1M31 40h1M49 40h2M57 40h1M22 41h1M29 41h2M22 42h1M26 42h1M55 42h1M25 43h1M54 43h1M24 44h1M27 44h1M52 44h3M26 45h1M36 46h1M56 46h1M59 46h1M40 47h1M57 47h1M38 49h2" />
<path stroke="#a47b5a" d="M46 31h2M33 32h2M47 32h1M33 33h1M45 33h1M34 34h2M44 34h4M33 35h2M45 35h2M49 36h2M29 37h1M48 37h2M27 38h4M25 39h2M28 39h2M52 39h4M23 40h5M52 40h4M24 41h3M54 41h1M56 42h3M22 43h1M55 43h4M21 44h3M55 44h3M21 45h2M37 45h3M54 45h3M37 46h3M38 47h1M38 48h1" />
<path stroke="#624a39" d="M46 32h1M46 33h1M35 35h2M44 35h1M47 35h2M33 36h2M45 36h3M30 37h1M33 37h1M46 37h1M50 37h3M31 38h1M48 38h3M30 39h2M49 39h1M29 40h2M51 40h1M56 40h1M23 41h1M27 41h1M51 41h3M55 41h1M23 42h3M27 42h1M51 42h4M24 43h1M26 43h1M52 43h2M58 44h2M23 45h3M57 45h3M21 46h5M54 46h2M57 46h2M22 47h3M55 47h2" />
<path stroke="#ffffff" d="M35 40h1M42 40h1M34 41h1M43 41h1M35 42h1M42 42h1" />
<path stroke="#ac9473" d="M48 40h1M31 41h1M48 41h2M29 42h3M47 42h3M30 43h3M46 43h4M32 44h3M43 44h4M34 45h2M41 45h3M50 45h1M28 46h1M45 46h1M28 47h1M45 47h1M29 48h1M42 50h1M55 50h1M34 51h1M54 51h1M30 52h1M48 52h1M32 53h1M46 53h1M31 54h1M47 54h2M40 57h2M43 57h1M45 57h1M34 58h2M39 58h4M44 58h1M46 58h1M34 59h10M45 59h1M47 59h1M34 60h12M35 61h2M38 61h7M37 62h4M42 62h2M38 63h2" />
<path stroke="#d5c573" d="M28 43h2M50 43h1M28 44h2M49 44h3M27 45h2M33 45h1M44 45h2M51 45h2M27 46h1M34 46h2M41 46h4M51 46h2M26 47h2M34 47h3M41 47h4M51 47h3M25 48h4M33 48h4M40 48h6M50 48h5M24 49h14M40 49h7M49 49h7M25 50h3M29 50h13M45 50h6M52 50h3M28 51h4M35 51h7M45 51h7M53 51h1M28 52h2M31 52h1M35 52h3M40 52h3M44 52h4M49 52h2M30 53h2M35 53h2M41 53h5M47 53h2M32 54h4M42 54h5M31 55h5M42 55h7M31 56h6M41 56h7M32 57h2M35 57h5M42 57h1M44 57h1M46 57h1M36 58h3M43 58h1M45 58h1M47 58h1M44 59h1M46 59h1" />
<path stroke="#8b4a39" d="M30 44h2M47 44h2M29 45h1M32 45h1M46 45h2M49 45h1M33 46h1M46 46h1M50 46h1M29 47h1M32 47h2M50 47h1M30 48h3M46 48h1M49 48h1M47 49h2M43 50h2M32 51h2M42 51h1M44 51h1M32 52h1M34 52h1M38 52h2M43 52h1M33 53h2M37 53h1M40 53h1M36 54h1M41 54h1M36 55h1M40 55h2M37 56h4" />
<path stroke="#ee7352" d="M30 45h2M48 45h1M29 46h4M47 46h3M30 47h2M46 47h4M47 48h2M43 51h1M33 52h1M38 53h2M37 54h4M37 55h3" />
<path stroke="#625252" d="M23 49h1M56 49h1M56 50h1M52 51h1M51 52h1M29 53h1M30 55h1M30 56h1M48 56h1M31 57h1M32 58h2M33 59h1M33 60h1M34 61h1M35 62h2M37 63h1" />
<path stroke="#837362" d="M28 50h1M51 50h1M27 51h1M49 53h1M34 57h1M47 57h1M37 61h1M41 62h1M44 62h1M40 63h1" />
</svg>