<svg xmlns="http://www.w3.org/2000/svg" viewBox="0 -0.5 80 80" shape-rendering="crispEdges">
<metadata>Made with Pixels to Svg https://codepen.io/shshaw/pen/XbxvNj</metadata>
<path stroke="#5a5a62" d="M31 12h1M37 12h1M41 12h1M30 13h2M35 13h1M37 13h1M41 13h2M28 14h1M36 14h1M42 14h1M27 15h2M42 15h2M27 19h2M28 20h1M35 21h1M29 22h2M34 22h1M36 22h1M40 22h1M30 23h1M33 46h1M43 47h1M33 56h1M34 57h1M43 57h1M42 58h1" />
<path stroke="#101010" d="M32 12h4M38 12h3M36 13h1M29 14h2M27 16h1M43 16h5M27 17h1M47 17h1M27 18h1M46 18h1M44 19h2M29 20h1M41 20h3M29 21h1M41 21h1M35 22h1M41 22h1M31 23h4M36 23h5M45 23h1M46 24h1M47 26h1M47 27h2M26 28h2M48 28h1M24 29h1M26 29h2M38 29h2M48 29h1M24 30h1M38 30h2M48 30h1M24 31h1M48 31h1M48 32h1M47 33h1M25 34h1M47 34h1M46 35h1M26 36h1M46 36h1M27 37h1M45 37h1M28 38h1M44 38h1M30 39h1M42 39h2M31 40h3M39 40h3M44 40h2M34 41h5M40 41h1M46 41h1M35 42h1M41 42h1M44 42h3M34 43h1M37 43h1M41 43h1M34 44h1M37 44h1M39 44h1M42 44h1M44 44h1M34 45h1M39 45h2M42 45h1M42 46h1M33 47h1M33 48h1M43 48h1M33 49h1M43 49h1M33 50h1M43 50h1M33 51h1M43 51h1M33 52h1M43 52h1M33 53h1M43 53h1M33 54h1M43 54h1M33 55h1M43 55h1M43 56h1M34 58h1M34 59h1M42 59h1M34 60h1M42 60h1M34 61h1M42 61h1M35 62h1M42 62h1M36 63h1M43 63h1M37 64h1M44 64h1M31 65h1M34 65h1M37 65h1M45 65h1M32 66h2M35 66h2M39 66h1M42 66h1M45 66h1M40 67h2M43 67h2" />
<path stroke="#ffffff" d="M32 13h3M38 13h3M31 14h5M37 14h5M29 15h1M31 15h11M28 16h14M28 17h14M29 18h3M33 18h8M34 19h5M29 24h1" />
<path stroke="#c5d5e6" d="M30 15h1M42 16h1M42 17h5M28 18h1M32 18h1M41 18h5M29 19h5M39 19h5M30 20h11M30 21h5M36 21h5M31 22h3M37 22h3" />
<path stroke="#946ae6" d="M42 21h1M42 22h2M28 23h1M35 23h1M41 23h4M27 24h1M31 24h15M27 25h1M30 25h16M26 26h21M28 27h1M31 27h2M35 27h12M25 28h1M36 28h10M47 28h1M25 29h1M37 29h1M40 29h5M46 29h1M25 30h3M36 30h2M40 30h6M47 30h1M25 31h3M36 31h9M46 31h1M26 32h1M37 32h7M45 32h1M47 32h1M26 33h2M36 33h7M46 33h1M27 34h2M31 34h2M35 34h7M28 35h12M30 36h8M43 41h3M42 42h2M42 43h2" />
<path stroke="#623183" d="M43 21h1M44 22h1M41 35h2M39 36h5M34 37h10M33 38h11M33 39h9M34 40h5M42 40h2M39 41h1M41 41h1M38 42h3M38 43h2" />
<path stroke="#4a316a" d="M28 22h1M46 25h2M25 26h1M25 27h1M24 28h1M24 32h1M25 33h1M26 35h1M29 39h1M37 42h1M44 43h1M38 44h1M43 44h1" />
<path stroke="#7b41a4" d="M27 23h1M26 24h1M25 25h2M24 27h1M26 27h2M46 28h1M45 29h1M47 29h1M46 30h1M45 31h1M47 31h1M25 32h1M44 32h1M46 32h1M43 33h3M26 34h1M42 34h5M27 35h1M40 35h1M43 35h3M27 36h3M38 36h1M44 36h2M28 37h6M44 37h1M29 38h4M31 39h2M42 41h1M40 43h1M40 44h2" />
<path stroke="#c5b4ff" d="M29 23h1M28 24h1M30 24h1M28 25h2" />
<path stroke="#8b6a20" d="M29 27h2M33 27h2M28 28h1M31 28h2M35 28h1M36 29h1M28 30h1M35 30h1M28 31h1M35 31h1M27 32h1M36 32h1M28 33h1M31 33h2M35 33h1M29 34h2M33 34h2M33 62h1M32 63h1M41 63h1M31 64h1M40 64h1M39 65h1" />
<path stroke="#ffde08" d="M29 28h2M33 28h2M28 29h8M29 30h6M29 31h6M28 32h8M29 33h2M33 33h2M42 63h1M32 64h2M41 64h3M32 65h1M40 65h5M40 66h2M43 66h2" />
<path stroke="#cdb400" d="M34 62h1M33 63h3M34 64h3M33 65h1M35 65h2" />
</svg>