<svg xmlns="http://www.w3.org/2000/svg" viewBox="0 -0.5 80 80" shape-rendering="crispEdges">
<metadata>Made with Pixels to Svg https://codepen.io/shshaw/pen/XbxvNj</metadata>
<path stroke="#101010" d="M29 9h2M28 10h1M31 10h1M26 11h1M31 11h1M43 11h1M53 11h2M25 12h1M31 12h1M43 12h1M52 12h1M55 12h1M17 13h1M24 13h1M32 13h1M43 13h1M51 13h1M55 13h1M23 14h1M32 14h1M43 14h1M50 14h1M56 14h1M18 15h1M22 15h1M33 15h1M43 15h1M49 15h1M56 15h1M19 16h1M21 16h1M31 16h2M48 16h1M57 16h1M64 16h3M12 17h1M21 17h1M30 17h1M46 17h1M48 17h1M57 17h1M62 17h2M66 17h1M7 18h3M12 18h1M20 18h1M47 18h1M58 18h1M61 18h1M66 18h1M7 19h1M10 19h2M20 19h1M47 19h1M58 19h1M60 19h1M66 19h1M7 20h1M12 20h2M19 20h1M46 20h1M59 20h1M66 20h1M7 21h1M14 21h1M19 21h1M46 21h1M58 21h1M66 21h1M7 22h1M15 22h1M19 22h1M24 22h1M46 22h1M57 22h1M66 22h1M72 22h4M7 23h1M16 23h1M19 23h1M29 23h7M46 23h1M56 23h1M66 23h1M69 23h3M75 23h1M8 24h1M17 24h1M19 24h1M25 24h2M28 24h1M36 24h1M39 24h2M46 24h1M56 24h1M65 24h1M67 24h2M75 24h1M8 25h1M17 25h1M19 25h1M24 25h4M38 25h1M41 25h2M46 25h1M55 25h1M65 25h2M75 25h1M2 26h1M6 26h3M17 26h1M19 26h1M23 26h2M37 26h1M44 26h3M55 26h1M65 26h1M74 26h1M2 27h1M9 27h2M18 27h1M20 27h3M43 27h1M46 27h3M55 27h1M65 27h1M74 27h1M2 28h1M11 28h1M18 28h1M20 28h1M28 28h1M30 28h2M35 28h1M43 28h1M49 28h3M55 28h1M64 28h1M74 28h1M2 29h1M12 29h1M18 29h2M21 29h1M27 29h1M29 29h2M32 29h1M36 29h1M42 29h2M52 29h1M56 29h1M64 29h1M75 29h4M3 30h1M13 30h1M18 30h1M26 30h1M30 30h1M34 30h1M38 30h3M44 30h1M56 30h1M63 30h1M73 30h2M78 30h1M3 31h1M13 31h1M17 31h2M21 31h1M25 31h1M27 31h1M44 31h1M49 31h1M57 31h1M61 31h2M71 31h2M78 31h1M3 32h1M17 32h1M21 32h1M23 32h2M28 32h1M45 32h1M50 32h1M58 32h3M63 32h1M69 32h2M78 32h1M4 33h1M14 33h3M21 33h2M29 33h2M46 33h2M50 33h1M56 33h1M63 33h1M68 33h1M78 33h1M4 34h1M6 34h4M14 34h1M31 34h3M43 34h3M48 34h3M54 34h2M64 34h1M67 34h1M77 34h1M10 35h2M14 35h1M34 35h8M49 35h5M66 35h1M77 35h1M12 36h1M14 36h1M35 36h1M64 36h2M69 36h4M77 36h1M13 37h1M35 37h1M67 37h2M73 37h2M76 37h1M0 38h3M13 38h1M26 38h1M36 38h1M49 38h1M75 38h2M14 39h1M27 39h1M36 39h3M47 39h2M76 39h1M14 40h1M36 40h1M39 40h8M61 40h5M76 40h1M14 41h1M27 41h1M31 41h1M36 41h1M53 41h1M66 41h1M77 41h1M2 42h1M13 42h1M28 42h2M31 42h1M36 42h1M53 42h1M65 42h1M77 42h1M2 43h1M13 43h1M21 43h1M30 43h1M37 43h1M52 43h1M54 43h1M65 43h1M77 43h1M3 44h1M12 44h1M21 44h1M30 44h1M37 44h1M52 44h1M54 44h1M66 44h1M76 44h1M4 45h2M10 45h3M20 45h1M34 45h1M36 45h1M38 45h1M51 45h1M55 45h1M66 45h1M76 45h1M6 46h4M20 46h1M29 46h1M34 46h1M36 46h1M39 46h2M49 46h2M55 46h1M67 46h1M75 46h1M16 47h1M20 47h1M28 47h1M36 47h1M41 47h8M55 47h1M68 47h1M73 47h2M12 48h1M16 48h1M21 48h1M27 48h1M36 48h1M55 48h1M68 48h1M72 48h1M12 49h1M16 49h1M21 49h1M27 49h1M35 49h1M37 49h1M54 49h1M68 49h1M72 49h1M11 50h1M17 50h1M22 50h2M26 50h1M35 50h1M37 50h1M54 50h1M68 50h1M72 50h1M11 51h1M18 51h4M24 51h3M35 51h1M38 51h1M53 51h1M67 51h1M71 51h1M9 52h2M26 52h1M33 52h1M35 52h1M39 52h1M51 52h2M67 52h1M70 52h1M27 53h1M32 53h1M35 53h1M40 53h2M49 53h2M57 53h1M65 53h1M67 53h3M28 54h1M31 54h1M36 54h1M42 54h7M56 54h1M58 54h1M66 54h1M74 54h1M29 55h2M36 55h1M56 55h1M58 55h1M67 55h1M75 55h1M28 56h1M36 56h2M55 56h1M57 56h1M67 56h1M36 57h1M38 57h1M54 57h1M57 57h1M68 57h1M37 58h1M39 58h1M52 58h2M57 58h1M69 58h1M37 59h1M40 59h3M49 59h3M58 59h1M69 59h1M77 59h1M25 60h1M38 60h1M43 60h6M58 60h1M70 60h1M78 60h1M25 61h1M31 61h1M36 61h2M39 61h1M59 61h1M61 61h1M70 61h1M78 61h1M25 62h1M32 62h4M40 62h2M58 62h4M70 62h2M78 62h1M30 63h3M42 63h3M54 63h4M62 63h1M70 63h1M72 63h1M79 63h1M29 64h1M45 64h9M63 64h1M69 64h2M73 64h2M79 64h1M28 65h1M64 65h1M69 65h1M75 65h1M78 65h1M25 66h1M27 66h1M65 66h1M69 66h1M76 66h1M78 66h1M25 67h1M27 67h1M65 67h1M69 67h1M76 67h2M26 68h1M66 68h1M68 68h1M66 69h1M68 69h1M67 70h1" />
<path stroke="#4a3162" d="M27 10h1M30 10h1M29 11h2M42 11h1M15 12h2M29 12h2M41 12h1M54 12h1M14 13h1M28 13h4M40 13h1M53 13h2M14 14h1M18 14h1M27 14h5M36 14h6M54 14h2M13 15h1M25 15h4M30 15h3M34 15h2M53 15h3M13 16h1M22 16h1M25 16h3M30 16h1M49 16h1M53 16h4M25 17h2M51 17h6M24 18h3M52 18h6M9 19h1M23 19h3M52 19h6M8 20h1M11 20h1M20 20h1M22 20h4M47 20h1M51 20h8M8 21h1M13 21h1M20 21h1M22 21h3M42 21h1M51 21h7M9 22h1M20 22h4M51 22h6M9 23h1M15 23h1M20 23h4M49 23h7M72 23h1M74 23h1M10 24h1M15 24h2M20 24h4M47 24h1M49 24h7M69 24h1M73 24h2M2 25h4M10 25h1M15 25h2M20 25h4M47 25h8M67 25h1M72 25h3M11 26h1M14 26h3M20 26h3M47 26h8M71 26h3M12 27h1M14 27h4M49 27h6M66 27h1M70 27h4M12 28h6M52 28h3M65 28h3M69 28h5M13 29h5M22 29h1M53 29h3M65 29h9M14 30h4M22 30h1M51 30h5M64 30h9M14 31h3M50 31h7M63 31h8M14 32h3M51 32h7M64 32h5M51 33h5M64 33h4M51 34h3M65 34h2M9 35h1M10 36h2M50 36h2M10 37h1M12 37h1M50 37h1M52 37h1M10 38h1M12 38h1M52 38h1M69 38h1M74 38h1M2 39h2M6 39h1M9 39h2M13 39h1M53 39h1M70 39h1M74 39h2M4 40h2M9 40h3M13 40h1M38 40h1M47 40h1M53 40h1M70 40h1M8 41h4M13 41h1M24 41h3M38 41h9M65 41h1M69 41h1M5 42h8M22 42h2M37 42h11M66 42h4M3 43h10M29 43h1M38 43h10M66 43h3M73 43h1M76 43h1M4 44h8M29 44h1M32 44h2M38 44h11M51 44h1M55 44h8M67 44h9M6 45h4M29 45h3M39 45h12M59 45h1M63 45h3M67 45h9M28 46h1M41 46h8M61 46h1M68 46h7M27 47h1M62 47h1M69 47h4M25 48h2M35 48h1M56 48h1M63 48h1M22 49h5M34 49h1M36 49h1M56 49h1M63 49h1M24 50h2M34 50h1M57 50h1M64 50h1M33 51h2M37 51h1M57 51h1M61 51h4M73 51h1M36 52h3M57 52h1M60 52h1M64 52h3M71 52h1M73 52h1M36 53h4M51 53h2M59 53h1M66 53h1M72 53h2M37 54h5M49 54h5M37 55h19M29 56h1M38 56h17M66 56h1M76 56h1M29 57h1M39 57h15M72 57h1M76 57h1M29 58h1M40 58h12M63 58h1M71 58h1M77 58h1M26 59h1M30 59h1M43 59h6M62 59h1M70 59h1M30 60h1M61 60h1M26 63h1M35 63h1M77 63h1M27 64h2M34 64h1M40 64h2M76 64h1M34 65h1M37 65h3M67 65h2M35 66h1M37 66h1M66 66h1M36 67h2" />
<path stroke="#7b417b" d="M29 10h1M27 11h2M26 12h2M53 12h1M25 13h2M52 13h1M24 14h2M51 14h2M23 15h2M50 15h2M23 16h1M50 16h2M22 17h2M28 17h2M35 17h2M49 17h2M65 17h1M21 18h2M30 18h1M37 18h1M48 18h3M64 18h1M8 19h1M21 19h2M31 19h1M48 19h3M63 19h1M9 20h2M21 20h1M28 20h1M35 20h1M48 20h2M63 20h1M9 21h4M21 21h1M47 21h3M62 21h1M8 22h1M10 22h5M47 22h3M62 22h1M8 23h1M10 23h5M47 23h2M61 23h1M73 23h1M9 24h1M11 24h4M48 24h1M61 24h1M70 24h2M9 25h1M11 25h4M60 25h1M68 25h3M9 26h2M12 26h2M60 26h1M66 26h4M11 27h1M13 27h1M67 27h2M77 30h1M76 32h1M75 33h1M74 34h1M6 35h3M7 36h3M7 37h3M51 37h1M69 37h4M7 38h3M50 38h2M70 38h4M7 39h2M49 39h4M71 39h3M2 40h2M6 40h3M37 40h1M48 40h5M71 40h3M2 41h6M37 41h1M47 41h6M70 41h3M3 42h2M24 42h4M48 42h5M70 42h3M22 43h2M26 43h3M48 43h4M69 43h4M22 44h1M25 44h4M49 44h2M21 45h1M25 45h4M60 45h3M21 46h1M23 46h5M62 46h3M21 47h6M63 47h3M22 48h3M64 48h3M55 49h1M64 49h4M36 50h1M55 50h2M65 50h3M36 51h1M54 51h3M65 51h2M53 52h4M53 53h4M54 54h2M67 54h1" />
<path stroke="#391839" d="M28 12h1M27 13h1M26 14h1M53 14h1M52 15h1M24 16h1M52 16h1M24 17h1M23 18h1M28 18h1M35 18h1M51 18h1M28 19h1M35 19h1M38 19h1M51 19h1M50 20h1M50 21h1M50 22h1M29 24h7M72 24h1M28 25h9M39 25h2M71 25h1M28 26h5M40 26h4M70 26h1M28 27h3M42 27h1M69 27h1M27 28h1M68 28h1M4 35h2M42 35h1M6 36h1M1 39h1M1 40h1M1 41h1M35 46h1M35 47h1M34 48h1M33 49h1M33 50h1M32 51h1M32 52h1" />
<path stroke="#de94cd" d="M42 12h1M36 15h2M34 16h5M32 17h3M37 17h2M29 18h1M32 18h3M36 18h1M32 19h3" />
<path stroke="#8b5a9c" d="M15 13h1M15 14h1M17 14h1M15 15h1M42 15h1M15 16h1M14 17h1M14 18h1M46 18h1M62 18h1M65 18h1M12 19h1M14 19h1M18 19h2M39 19h1M46 19h1M64 19h2M14 20h1M16 20h3M27 20h1M39 20h1M45 20h1M64 20h2M15 21h4M26 21h1M39 21h1M45 21h1M63 21h3M16 22h3M40 22h1M44 22h1M63 22h3M17 23h2M28 23h1M36 23h1M41 23h3M45 23h1M57 23h1M62 23h4M18 24h1M44 24h2M62 24h3M18 25h1M43 25h3M56 25h1M61 25h4M3 26h1M18 26h1M56 26h2M61 26h4M4 27h1M8 27h1M19 27h1M56 27h9M5 28h1M10 28h1M19 28h1M56 28h8M3 29h1M6 29h1M11 29h1M57 29h7M7 30h1M12 30h1M27 30h1M43 30h1M57 30h6M75 30h1M8 31h1M12 31h1M28 31h1M41 31h3M58 31h3M73 31h1M76 31h2M4 32h1M8 32h1M12 32h2M29 32h2M38 32h7M71 32h1M77 32h1M9 33h1M11 33h3M31 33h15M69 33h1M76 33h2M5 34h1M10 34h4M34 34h9M68 34h1M75 34h2M12 35h2M43 35h2M67 35h3M73 35h4M13 36h1M36 36h9M66 36h3M73 36h4M36 37h10M75 37h1M37 38h10M39 39h8M53 43h1M33 46h1M31 47h4M39 47h2M30 48h4M38 48h11M29 49h4M38 49h12M27 50h6M38 50h12M53 50h1M27 51h5M39 51h14M27 52h5M40 52h11M28 53h4M42 53h7M58 53h1M29 54h2M57 54h1M68 54h1M57 55h1M68 55h2M56 56h1M58 56h2M65 56h1M68 56h3M73 56h2M27 57h1M35 57h1M37 57h1M55 57h2M58 57h4M64 57h1M69 57h3M26 58h1M34 58h3M38 58h1M54 58h3M58 58h5M70 58h1M72 58h2M32 59h5M38 59h2M52 59h6M59 59h3M71 59h6M26 60h1M31 60h7M39 60h4M49 60h9M59 60h2M62 60h2M69 60h1M71 60h7M26 61h5M32 61h4M38 61h1M40 61h19M60 61h1M62 61h4M68 61h2M71 61h7M26 62h6M36 62h4M42 62h16M62 62h8M72 62h6M27 63h3M36 63h6M45 63h9M63 63h7M73 63h4M36 64h4M64 64h5M75 64h1M65 65h2" />
<path stroke="#c57bb4" d="M16 13h1M41 13h2M16 14h1M42 14h1M14 15h1M16 15h2M38 15h4M14 16h1M16 16h3M33 16h1M39 16h4M13 17h1M15 17h6M31 17h1M39 17h2M64 17h1M13 18h1M15 18h5M31 18h1M38 18h2M63 18h1M13 19h1M15 19h3M29 19h2M36 19h2M61 19h2M15 20h1M29 20h6M36 20h3M60 20h3M25 21h1M27 21h12M59 21h3M25 22h15M45 22h1M58 22h4M24 23h4M37 23h4M44 23h1M58 23h3M24 24h1M27 24h1M37 24h2M41 24h3M57 24h4M37 25h1M57 25h3M4 26h2M58 26h2M3 27h1M5 27h3M3 28h2M6 28h4M4 29h2M7 29h4M28 29h1M31 29h1M35 29h1M4 30h3M8 30h4M28 30h2M31 30h3M35 30h2M41 30h2M76 30h1M4 31h4M9 31h3M29 31h12M74 31h2M5 32h3M9 32h3M31 32h7M72 32h4M5 33h4M10 33h1M70 33h5M46 34h2M69 34h5M45 35h4M70 35h3M45 36h5M46 37h4M47 38h2M53 44h1M32 45h2M37 45h1M52 45h3M56 45h3M30 46h3M37 46h2M51 46h4M56 46h5M65 46h2M29 47h2M37 47h2M49 47h6M56 47h6M66 47h2M28 48h2M37 48h1M49 48h6M57 48h6M67 48h1M28 49h1M50 49h4M57 49h6M50 50h3M58 50h6M58 51h3M72 51h1M34 52h1M58 52h2M61 52h3M72 52h1M33 53h2M60 53h5M70 53h2M32 54h4M59 54h7M69 54h5M31 55h5M59 55h8M70 55h5M30 56h6M60 56h5M71 56h2M75 56h1M28 57h1M30 57h5M62 57h2M65 57h3M73 57h3M27 58h2M30 58h4M64 58h5M74 58h3M27 59h3M31 59h1M63 59h6M27 60h3M64 60h5M66 61h2" />
<path stroke="#295a62" d="M45 14h2M44 15h1M46 15h1M43 16h1M46 16h1M41 17h1M40 18h1M2 34h2M1 35h1M0 36h1M0 37h1M26 37h3M63 37h1M29 38h2M62 38h1M31 39h1M61 39h1M27 40h1M31 40h1M16 45h2M12 46h1M16 46h1M18 46h1M7 47h1M12 47h1M19 47h1M7 48h1M8 49h1M8 50h1M8 51h1M8 52h1M24 63h1M24 64h1M24 65h1" />
<path stroke="#108bac" d="M29 15h1M45 15h1M28 16h2M44 16h2M27 17h1M42 17h4M41 18h5M40 19h3M11 37h1M11 38h1M11 39h2M12 40h1M74 40h2M12 41h1M73 41h4M73 42h4M24 43h2M74 43h2M23 44h2M22 45h3M22 46h1" />
<path stroke="#ffffff" d="M27 18h1M26 19h2M43 19h3M26 20h1M40 20h5M40 21h2M43 21h2M41 22h3M24 27h1M21 28h5M46 28h3M23 29h3M45 29h7M23 30h3M45 30h5M23 31h2M45 31h4M22 32h1M46 32h3M48 33h2M2 35h2M2 36h3M1 37h4M64 37h3M27 38h2M63 38h5M28 39h2M62 39h5M17 46h1M17 47h1M17 48h1M9 49h1M9 50h2M70 50h1M9 51h1M69 51h2M68 52h2M26 66h1M26 67h1M67 68h1M67 69h1" />
<path stroke="#d5cde6" d="M25 26h3M23 27h1M25 27h3M44 27h2M26 28h1M44 28h2M26 29h1M44 29h1M50 30h1M22 31h1M49 32h1M1 36h1M5 36h1M5 37h1M3 38h2M68 38h1M67 39h2M29 40h2M66 40h2M18 48h1M10 49h1M17 49h1M69 50h1M71 50h1M10 51h1M68 51h1M25 63h1M25 64h2M25 65h3M67 66h2M66 67h3" />
<path stroke="#83317b" d="M33 26h4M38 26h2M31 27h11M29 28h1M32 28h3M36 28h7M33 29h2M37 29h5M37 30h1" />
<path stroke="#9cacb4" d="M6 37h1M5 38h2M4 39h2M30 39h1M69 39h1M28 40h1M68 40h2M28 41h3M67 41h2M30 42h1M10 46h2M8 47h4M18 47h1M8 48h4M19 48h2M69 48h3M11 49h1M18 49h3M69 49h3M18 50h4M78 63h1M35 64h1M77 64h2M35 65h2M76 65h2M36 66h1M77 66h1" />
</svg>