<svg xmlns="http://www.w3.org/2000/svg" viewBox="0 -0.5 80 80" shape-rendering="crispEdges">
<metadata>Made with Pixels to Svg https://codepen.io/shshaw/pen/XbxvNj</metadata>
<path stroke="#731800" d="M18 3h3M17 4h1M21 4h1M17 5h1M21 5h1M18 6h2M62 6h3M61 7h1M65 7h1M61 8h1M65 8h1M63 9h2M26 20h1M38 23h2" />
<path stroke="#000000" d="M16 4h1M15 5h1M14 6h1M20 6h1M14 7h1M18 7h1M66 7h1M13 8h1M17 8h1M67 8h1M13 9h1M16 9h1M53 9h1M62 9h1M68 9h1M12 10h1M16 10h1M28 10h1M53 10h1M64 10h1M69 10h1M12 11h1M15 11h1M52 11h1M65 11h1M69 11h1M12 12h1M15 12h1M49 12h3M66 12h1M70 12h1M12 13h1M15 13h1M48 13h1M67 13h1M70 13h1M12 14h1M15 14h1M47 14h1M67 14h1M71 14h1M12 15h1M15 15h1M68 15h1M71 15h1M12 16h1M16 16h1M68 16h1M71 16h1M13 17h1M16 17h1M51 17h1M68 17h1M71 17h1M13 18h1M17 18h1M52 18h1M67 18h1M71 18h1M14 19h1M67 19h1M71 19h1M66 20h1M70 20h1M65 21h1M70 21h1M63 22h2M69 22h1M57 23h6M68 23h1M59 24h3M66 24h2M39 25h1M61 25h5M64 26h1M65 27h1M66 28h1M25 30h2M25 31h1M27 31h1M24 32h2M29 32h2M5 33h2M23 33h3M30 33h8M62 33h1M67 33h1M4 34h1M19 34h1M23 34h4M30 34h5M62 34h1M67 34h1M4 35h1M18 35h1M23 35h4M30 35h5M63 35h1M67 35h1M3 36h1M6 36h1M18 36h1M22 36h2M26 36h1M30 36h5M47 36h1M57 36h3M69 36h1M3 37h1M17 37h1M22 37h1M30 37h5M47 37h1M53 37h1M56 37h1M69 37h1M4 38h1M7 38h1M17 38h1M22 38h1M31 38h4M48 38h1M50 38h1M54 38h1M57 38h1M70 38h1M3 39h1M8 39h3M17 39h1M48 39h1M50 39h2M55 39h2M58 39h1M71 39h1M3 40h1M7 40h1M11 40h1M16 40h1M52 40h1M56 40h1M58 40h1M72 40h1M3 41h1M6 41h1M11 41h1M14 41h2M56 41h1M73 41h1M4 42h2M11 42h1M14 42h1M56 42h1M73 42h1M11 43h1M14 43h1M55 43h1M59 43h1M74 43h1M12 44h2M55 44h1M58 44h1M64 44h1M74 44h1M55 45h1M58 45h1M63 45h1M71 45h2M74 45h1M54 46h1M57 46h2M63 46h1M73 46h1M54 47h1M56 47h1M58 47h2M62 47h2M68 47h1M74 47h1M53 48h1M56 48h1M59 48h3M63 48h1M68 48h1M74 48h1M55 49h1M63 49h1M67 49h1M75 49h1M54 50h2M59 50h1M64 50h4M72 50h1M75 50h1M55 51h1M60 51h1M67 51h1M71 51h1M75 51h1M31 52h1M68 52h3M75 52h1M32 53h1M56 53h1M61 53h1M70 53h1M74 53h1M34 54h4M45 54h1M57 54h1M60 54h1M62 54h2M69 54h3M74 54h1M38 55h5M58 55h2M64 55h5M71 55h3M24 56h1M60 56h1M24 57h1M60 57h1M25 58h1M61 58h1M25 59h1M61 59h1M61 60h1M15 61h1M17 61h1M21 61h1M25 61h1M60 61h2M15 62h2M20 62h1M25 62h1M60 62h2M18 63h2M23 63h1M25 63h1M47 63h1M62 63h1M10 64h2M48 64h1M62 64h1M21 65h3M51 65h1M60 65h1M63 65h1M11 66h3M18 66h3M50 66h1M55 66h2M62 66h2M14 67h3M48 67h2M54 67h1M57 67h1M59 67h1M49 68h1M53 68h1M58 68h1M49 69h1M50 70h3M52 71h2M56 71h1M60 71h3M54 72h3M59 72h2" />
<path stroke="#b43918" d="M18 4h1M19 5h2M64 7h1M62 8h2M25 21h1M25 23h1M40 23h1M41 25h1M39 26h2" />
<path stroke="#f65239" d="M19 4h2M18 5h1M62 7h2M64 8h1M26 21h1M41 23h1M40 24h2M38 25h1M40 25h1" />
<path stroke="#9c834a" d="M25 4h3M24 5h1M23 6h1M49 6h3M23 7h1M48 7h1M52 7h1M23 8h1M47 8h1M47 9h1M32 10h9M47 10h1M31 11h1M44 12h2M44 14h1M31 16h1M33 16h1M46 16h2M20 17h1M30 17h1M34 17h1M25 18h1M34 18h1M34 19h1M33 20h1M13 21h1M19 21h1M28 21h1M12 22h1M28 23h1M25 24h1M34 24h1M35 25h1M54 25h1M25 26h1M63 26h1M28 27h1M32 29h1M37 29h2M63 29h1M60 30h1M38 31h1M46 31h1M26 32h3M32 32h6M26 33h4M27 34h3M36 34h2M41 34h2M28 35h2M36 35h2M40 35h2M36 36h6M62 36h1M64 36h1M7 37h1M27 37h1M48 37h1M61 37h1M67 37h1M62 38h1M66 38h1M69 38h1M28 39h1M60 39h1M61 40h1M67 40h1M25 42h1M38 42h7M26 43h1M26 44h1M72 44h1M27 45h1M73 45h1M28 46h1M45 46h1M43 47h1M44 53h1M50 53h1M41 54h3M49 54h1M51 54h1M64 54h1M53 55h1" />
<path stroke="#312929" d="M16 5h1M15 6h3M29 6h1M15 7h3M29 7h1M14 8h3M66 8h1M14 9h2M65 9h3M13 10h3M65 10h4M13 11h2M27 11h1M66 11h3M13 12h2M67 12h3M13 13h2M25 13h1M68 13h2M13 14h2M24 14h2M48 14h1M68 14h3M13 15h2M23 15h1M47 15h1M49 15h1M69 15h2M13 16h3M22 16h1M32 16h1M50 16h1M69 16h2M14 17h2M24 17h1M31 17h3M69 17h2M14 18h3M23 18h2M30 18h4M50 18h2M68 18h3M15 19h4M22 19h4M30 19h4M49 19h6M68 19h3M23 20h3M31 20h1M48 20h4M55 20h2M67 20h3M20 21h1M23 21h2M27 21h1M46 21h5M57 21h1M66 21h4M19 22h1M23 22h3M27 22h3M42 22h8M55 22h2M65 22h4M12 23h3M18 23h1M24 23h1M26 23h2M34 23h4M42 23h7M56 23h1M63 23h5M14 24h2M19 24h2M26 24h3M35 24h3M39 24h1M42 24h5M57 24h1M62 24h4M12 25h2M36 25h2M42 25h3M55 25h2M11 26h1M19 26h1M34 26h5M41 26h1M55 26h1M10 27h1M19 27h2M26 27h2M54 27h1M9 28h1M15 28h1M20 28h1M26 28h1M28 28h4M54 28h1M9 29h1M21 29h2M25 29h1M33 29h4M52 29h1M54 29h1M65 29h1M8 30h1M16 30h2M22 30h1M37 30h1M47 30h1M53 30h2M64 30h1M8 31h1M10 31h1M22 31h1M24 31h1M26 31h1M28 31h1M37 31h1M48 31h1M62 31h3M7 32h1M9 32h3M17 32h3M23 32h1M38 32h1M42 32h1M46 32h1M49 32h1M62 32h1M9 33h3M38 33h1M41 33h3M45 33h1M60 33h2M10 34h5M22 34h1M38 34h1M40 34h1M43 34h3M59 34h1M6 35h1M10 35h8M20 35h1M22 35h1M38 35h2M42 35h5M59 35h1M12 36h6M20 36h1M24 36h2M42 36h5M56 36h1M68 36h1M5 37h1M15 37h2M23 37h4M41 37h6M23 38h5M41 38h7M53 38h1M56 38h1M7 39h1M23 39h5M31 39h4M40 39h8M49 39h1M53 39h2M68 39h1M6 40h1M12 40h1M23 40h6M31 40h4M39 40h13M53 40h3M59 40h2M68 40h3M4 41h2M12 41h2M23 41h6M31 41h5M38 41h18M59 41h2M62 41h3M70 41h2M12 42h2M24 42h1M31 42h5M45 42h11M61 42h1M65 42h4M71 42h2M12 43h2M24 43h2M31 43h5M44 43h11M60 43h1M65 43h1M68 43h2M72 43h2M24 44h2M31 44h1M33 44h3M44 44h9M69 44h1M73 44h1M25 45h2M32 45h1M34 45h3M43 45h8M52 45h1M59 45h2M70 45h1M25 46h3M33 46h1M35 46h2M43 46h2M46 46h2M49 46h1M59 46h4M69 46h1M74 46h1M23 47h2M27 47h2M32 47h1M34 47h3M42 47h1M46 47h1M49 47h1M60 47h2M64 47h3M69 47h1M21 48h2M33 48h4M64 48h4M73 48h1M20 49h1M33 49h5M53 49h1M57 49h2M64 49h3M68 49h3M73 49h1M23 50h3M34 50h4M68 50h4M73 50h1M23 51h2M34 51h5M68 51h3M72 51h1M24 52h1M30 52h1M35 52h4M54 52h2M59 52h2M71 52h4M28 53h2M33 53h1M35 53h5M55 53h1M58 53h3M71 53h3M25 54h3M38 54h3M44 54h1M56 54h1M58 54h2M72 54h2M16 55h1M24 55h2M46 55h2M15 56h3M23 56h1M48 56h1M15 57h9M48 57h1M14 58h1M17 58h7M49 58h2M13 59h1M18 59h5M49 59h3M60 59h1M13 60h3M26 60h1M49 60h12M12 61h1M18 61h1M24 61h1M26 61h1M49 61h11M13 62h1M18 62h1M22 62h1M48 62h1M51 62h9M9 63h1M12 63h1M15 63h2M53 63h5M9 64h1M15 64h1M17 64h1M24 64h1M11 65h1M14 65h1M18 65h1M48 65h1M14 66h1M48 66h1M52 66h1M52 67h1M61 67h1M52 68h1M57 68h1M62 68h1M55 69h2M60 69h1M63 69h1M56 70h1M60 70h1M63 70h1M57 71h2M63 71h1" />
<path stroke="#ffde20" d="M25 5h3M24 6h1M27 6h2M24 7h1M27 7h2M49 7h3M24 8h5M48 8h1M51 8h2M25 9h3M48 9h1M51 9h2M48 10h5M32 11h9M49 11h3M29 12h1M36 12h8M27 13h2M37 13h8M46 13h2M26 14h4M36 14h8M45 14h2M25 15h21M25 16h6M34 16h11M25 17h5M35 17h12M48 17h1M19 18h3M26 18h4M35 18h11M47 18h1M49 18h1M20 19h2M26 19h4M35 19h12M48 19h1M17 20h1M19 20h3M28 20h3M34 20h13M14 21h5M21 21h2M29 21h16M13 22h6M20 22h3M30 22h11M16 23h2M19 23h5M29 23h5M54 23h2M16 24h3M22 24h3M29 24h1M31 24h1M33 24h1M48 24h3M55 24h2M14 25h1M16 25h4M21 25h14M46 25h6M12 26h2M15 26h4M20 26h5M26 26h8M43 26h10M11 27h2M14 27h2M17 27h1M21 27h4M29 27h25M11 28h2M23 28h2M32 28h19M52 28h2M11 29h1M23 29h2M26 29h1M39 29h12M53 29h1M61 29h2M23 30h1M28 30h2M38 30h9M48 30h2M57 30h2M62 30h2M30 31h7M39 31h7M49 31h1M56 31h5M39 32h3M43 32h2M55 32h7M7 33h2M39 33h2M44 33h1M54 33h5M7 34h1M39 34h1M51 34h8M66 34h1M47 35h9M58 35h1M65 35h2M48 36h8M28 37h2M49 37h4M54 37h2M62 37h5M68 37h1M28 38h2M36 38h5M49 38h1M51 38h2M55 38h1M60 38h2M67 38h2M29 39h1M36 39h4M52 39h1M70 39h1M29 40h1M36 40h3M62 40h5M29 41h1M36 41h2M61 41h1M65 41h5M26 42h4M36 42h2M69 42h1M27 43h4M37 43h7M27 44h4M37 44h7M28 45h3M37 45h6M29 46h2M37 46h6M30 47h2M38 47h4M57 47h1M38 48h4M57 48h2M59 49h2M20 50h2M18 51h5M25 51h1M18 52h6M19 53h4M54 55h4M53 56h6M55 57h3" />
<path stroke="#5a4a41" d="M28 5h1M29 8h1M53 8h1M24 9h1M28 9h1M25 10h3M29 11h2M41 11h3M47 11h1M27 12h2M46 12h1M26 13h1M45 13h1M24 15h1M23 16h2M21 17h3M50 17h1M18 18h1M22 18h1M19 19h1M14 20h3M18 20h1M22 20h1M32 20h1M47 20h1M45 21h1M51 21h1M50 22h1M49 23h1M21 24h1M30 24h1M32 24h1M47 24h1M15 25h1M20 25h1M45 25h1M14 26h1M42 26h1M13 27h1M16 27h1M10 28h1M14 28h1M22 28h1M51 28h1M10 29h1M15 29h1M51 29h1M9 30h2M15 30h1M18 30h1M50 30h1M9 31h1M17 31h1M50 31h1M61 31h1M31 32h1M50 32h1M12 33h1M19 33h1M59 33h1M66 33h1M5 34h2M9 34h1M15 34h1M35 34h1M65 34h1M5 35h1M35 35h1M56 35h1M64 35h1M4 36h2M11 36h1M35 36h1M61 36h1M65 36h1M67 36h1M4 37h1M6 37h1M14 37h1M35 37h1M60 37h1M5 38h2M30 38h1M35 38h1M63 38h3M4 39h3M30 39h1M35 39h1M61 39h7M69 39h1M4 40h2M30 40h1M35 40h1M30 41h1M59 42h1M62 42h3M61 43h4M66 43h2M32 44h1M36 44h1M53 44h1M59 44h5M65 44h4M31 45h1M33 45h1M51 45h1M61 45h2M64 45h6M32 46h1M34 46h1M50 46h1M52 46h1M64 46h5M70 46h3M33 47h1M67 47h1M70 47h4M23 48h1M32 48h1M37 48h1M69 48h4M21 49h4M71 49h2M74 49h1M18 50h1M22 50h1M33 50h1M38 50h1M56 50h3M74 50h1M17 51h1M26 51h1M56 51h4M73 51h2M16 52h1M34 52h1M39 52h1M52 52h2M56 52h3M16 53h1M51 53h4M57 53h1M16 54h1M50 54h1M53 54h3M15 55h1M52 55h1M16 58h1M52 59h1M59 59h1M13 61h2M14 62h1M17 62h1M21 62h1M24 62h1M50 62h1M17 63h1M20 63h3M24 63h1M52 63h1M58 63h2M18 64h6M49 64h1M19 65h2M51 66h1M60 66h2M50 67h2M55 67h2M60 67h1M50 68h2M54 68h3M59 68h1M50 69h3M59 69h1" />
<path stroke="#ffee94" d="M25 6h2M25 7h2M49 8h2M49 9h2M30 12h6M29 13h8M30 14h6" />
<path stroke="#c5ac41" d="M28 11h1M48 11h1M47 12h2M46 15h1M48 15h1M45 16h1M48 16h2M47 17h1M49 17h1M46 18h1M48 18h1M47 19h1M27 20h1M52 20h3M52 21h5M41 22h1M51 22h4M15 23h1M50 23h4M51 24h4M58 24h1M52 25h2M57 25h4M53 26h2M56 26h7M18 27h1M25 27h1M55 27h10M13 28h1M16 28h4M21 28h1M25 28h1M55 28h11M12 29h3M16 29h5M55 29h6M64 29h1M11 30h4M19 30h3M24 30h1M27 30h1M30 30h1M51 30h2M55 30h2M59 30h1M61 30h1M11 31h6M18 31h4M23 31h1M29 31h1M47 31h1M51 31h5M8 32h1M12 32h5M20 32h3M45 32h1M47 32h2M51 32h4M13 33h6M20 33h3M46 33h8M8 34h1M16 34h3M20 34h2M46 34h5M60 34h2M7 35h3M21 35h1M27 35h1M57 35h1M60 35h3M7 36h4M27 36h3M60 36h1M63 36h1M66 36h1M8 37h6M36 37h5M57 37h3M8 38h9M58 38h2M11 39h6M59 39h1M13 40h3M71 40h1M72 41h1M30 42h1M60 42h1M70 42h1M36 43h1M70 43h2M54 44h1M70 44h2M53 45h2M31 46h1M48 46h1M51 46h1M53 46h1M25 47h2M29 47h1M37 47h1M44 47h2M47 47h2M50 47h4M24 48h8M42 48h11M62 48h1M25 49h8M38 49h15M56 49h1M61 49h2M19 50h1M26 50h7M39 50h15M60 50h4M27 51h7M39 51h16M61 51h6M17 52h1M25 52h5M32 52h2M40 52h12M61 52h7M17 53h2M23 53h5M34 53h1M40 53h4M45 53h5M62 53h8M17 54h8M46 54h3M52 54h1M65 54h4M17 55h7M48 55h4M18 56h5M49 56h4M59 56h1M49 57h6M58 57h2M15 58h1M24 58h1M51 58h10M14 59h4M23 59h2M53 59h6M16 60h10M16 61h1M19 61h2M22 61h2M19 62h1M23 62h1M49 62h1M48 63h4M60 63h2M50 64h12M49 65h2M52 65h8M61 65h2M49 66h1M53 66h2M57 66h3M53 67h1M58 67h1" />
<path stroke="#ffffff" d="M26 22h1M38 24h1M27 29h1M31 30h2M34 30h3M11 62h2M10 63h1M13 63h2M12 64h2M16 64h1M12 65h1M15 65h3M15 66h1M61 69h1M54 70h2M58 70h2M61 70h2M55 71h1M59 71h1" />
<path stroke="#b4b4c5" d="M27 28h1M29 29h1M31 29h1M11 63h1M14 64h1M13 65h1M16 66h1M60 68h2M53 69h2M57 69h2M62 69h1M53 70h1M57 70h1M54 71h1" />
<path stroke="#6a6a6a" d="M28 29h1M30 29h1M33 30h1M11 61h1M10 62h1M17 66h1" />
</svg>