<svg xmlns="http://www.w3.org/2000/svg" viewBox="0 -0.5 80 80" shape-rendering="crispEdges">
<metadata>Made with Pixels to Svg https://codepen.io/shshaw/pen/XbxvNj</metadata>
<path stroke="#735a41" d="M29 21h4M35 21h5M27 22h2M33 22h2M32 23h1M31 24h1M24 25h1M36 25h5M23 26h2M41 26h2M24 27h1M43 27h1M24 28h1M24 29h1M35 29h3M23 30h1M25 30h1M22 31h1M22 32h1M37 33h1M25 34h2M37 34h1M22 35h1M25 35h1M33 35h2M37 35h1M25 36h1M36 36h1M23 37h1M34 37h2M44 37h1M24 38h1M44 38h1M25 39h1M43 39h1M27 40h1M42 40h1M29 41h2M40 41h1M36 42h1" />
<path stroke="#ffde9c" d="M29 22h2M35 22h2M27 23h5M33 23h5M26 24h5M32 24h5M26 25h4M31 25h4M27 26h2M31 26h3M27 27h1M30 27h1" />
<path stroke="#f6c573" d="M31 22h2M37 22h3M38 23h4M37 24h6M35 25h1M41 25h2M25 26h2M29 26h1M34 26h1M36 26h5M43 26h1M23 27h1M25 27h2M31 27h2M34 27h9M22 28h2M25 28h2M31 28h13M22 29h2M26 29h1M31 29h3M39 29h6M21 30h2M26 30h1M31 30h2M40 30h6M21 31h1M26 31h1M31 31h2M41 31h5M21 32h1M25 32h1M27 32h1M30 32h3M42 32h5M25 33h1M27 33h7M35 33h2M43 33h4M27 34h6M34 34h3M44 34h2M27 35h6M26 36h7M34 36h2M27 37h7M29 38h1M32 38h3" />
<path stroke="#101010" d="M40 22h2M26 23h1M42 23h1M25 24h1M43 24h1M44 25h1M44 26h1M22 27h1M44 27h1M21 28h1M45 28h1M21 29h1M45 29h1M20 30h1M38 30h2M46 30h1M20 31h1M40 31h1M46 31h1M20 32h1M24 32h1M41 32h1M47 32h1M20 33h1M24 33h1M42 33h1M47 33h1M21 34h1M24 34h1M42 34h1M47 34h1M21 35h1M43 35h1M47 35h1M22 36h1M43 36h1M47 36h1M26 37h1M46 37h1M27 38h1M46 38h1M29 39h2M35 39h3M45 39h1M57 39h1M43 40h2M57 40h1M41 41h2M57 41h1M37 42h3M57 42h1M56 43h1M59 44h1M59 45h1M58 46h1M35 47h1M56 47h2M35 48h1M54 48h2M24 49h3M36 49h1M54 49h1M28 50h3M33 50h1M37 50h2M53 50h1M31 51h2M39 51h3M53 51h1M50 52h3M47 53h1M49 53h1M33 54h1M45 54h2M48 54h1M34 55h1M43 55h2M47 55h1M35 56h1M40 56h3M45 56h2M37 57h2M43 57h2M39 58h4" />
<path stroke="#ac8b41" d="M25 25h1M30 25h1M43 25h1M30 26h1M35 26h1M33 27h1M44 28h1M25 29h1M34 29h1M38 29h1M24 30h1M33 30h1M23 31h2M23 32h1M26 32h1M35 32h2M21 33h3M26 33h1M34 33h1M22 34h2M33 34h1M43 34h1M46 34h1M23 35h2M26 35h1M35 35h2M42 35h1M44 35h3M23 36h2M33 36h1M42 36h1M44 36h3M24 37h2M41 37h3M45 37h1M25 38h2M28 38h1M30 38h2M40 38h4M45 38h1M26 39h3M31 39h3M38 39h5M44 39h1M28 40h3M36 40h6M35 41h5" />
<path stroke="#ee4141" d="M28 27h1M27 28h1M29 28h1M27 29h3M27 30h1M53 44h1M52 45h2M52 46h1" />
<path stroke="#5a3941" d="M29 27h1M30 28h1M30 29h1M30 30h1M27 31h1M29 31h2M28 32h2" />
<path stroke="#ffffff" d="M28 28h1" />
<path stroke="#ac4141" d="M28 30h2M28 31h1M47 43h1M46 44h2M46 45h1" />
<path stroke="#b4cdf6" d="M34 30h3M33 31h5M34 32h1M37 32h2M38 33h2M38 34h2M38 35h3M37 36h4M37 37h3M36 38h2M50 39h1M49 40h2M56 40h1M54 41h3M49 42h1M53 42h3M30 43h2M49 43h2M52 43h4M29 44h4M49 44h4M54 44h1M27 45h6M50 45h2M54 45h5M28 46h4M50 46h2M53 46h5M23 47h2M51 47h5M50 48h3M51 49h3M49 50h3M50 51h1M52 51h1M49 52h1M48 53h1M47 54h1M45 55h2" />
<path stroke="#949cc5" d="M37 30h1M25 31h1M38 31h2M33 32h1M39 32h2M40 33h2M40 34h2M41 35h1M36 37h1M35 38h1M48 40h1M32 41h2M43 41h1M47 41h1M50 41h1M29 42h1M31 42h2M34 42h1M43 42h2M46 42h2M27 43h1M32 43h1M34 43h2M43 43h4M24 44h3M33 44h1M35 44h2M44 44h2M21 45h5M33 45h1M35 45h2M44 45h2M47 45h1M26 46h2M32 46h2M35 46h3M45 46h4M27 47h2M31 47h4M36 47h3M44 47h3M24 48h2M27 48h2M30 48h1M33 48h2M36 48h3M45 48h3M28 49h1M30 49h4M37 49h1M39 49h1M43 49h3M27 50h1M31 50h1M40 50h1M44 50h1M46 50h1M27 51h2M28 52h1M32 52h2M44 52h1M28 53h2M33 53h2M43 53h1M29 54h2M34 54h2M42 54h1M30 55h2M35 55h2M40 55h1M37 56h2M43 56h2M39 57h4" />
<path stroke="#414141" d="M41 36h1M40 37h1M38 38h2M31 40h2M34 40h2M31 41h1M48 41h2M53 41h1M30 42h1M35 42h1M48 42h1M50 42h1M52 42h1M24 43h2M29 43h1M36 43h1M48 43h1M51 43h1M21 44h2M27 44h1M37 44h1M48 44h1M20 45h1M26 45h1M34 45h1M22 46h4M34 46h1M38 46h1M49 46h1M22 47h1M26 47h1M29 47h2M39 47h1M49 47h1M23 48h1M29 48h1M31 48h1M40 48h1M49 48h1M29 49h1M34 49h1M38 49h1M40 49h1M49 49h1M26 50h1M34 50h1M41 50h1M43 50h1M48 50h1M26 51h1M29 51h2M34 51h1M44 51h3M49 51h1M27 52h1M31 52h1M35 52h1M45 52h1M48 52h1M27 53h1M30 53h1M32 53h1M35 53h1M44 53h1M28 54h1M31 54h1M36 54h1M43 54h1M29 55h1M33 55h1M37 55h2M42 55h1M30 56h2M36 56h1M39 56h1M32 57h5" />
<path stroke="#7b7394" d="M50 38h2M34 39h1M48 39h2M51 39h1M56 39h1M33 40h1M47 40h1M51 40h1M54 40h2M34 41h1M44 41h1M46 41h1M51 41h1M27 42h2M33 42h1M42 42h1M45 42h1M56 42h1M26 43h1M28 43h1M33 43h1M42 43h1M23 44h1M28 44h1M34 44h1M42 44h2M55 44h4M37 45h1M43 45h1M48 45h2M21 46h1M44 46h1M25 47h1M43 47h1M47 47h2M50 47h1M26 48h1M32 48h1M39 48h1M43 48h2M48 48h1M53 48h1M27 49h1M42 49h1M46 49h2M50 49h1M32 50h1M39 50h1M45 50h1M47 50h1M52 50h1M33 51h1M51 51h1M29 52h1M34 52h1M43 52h1M42 53h1M40 54h2M32 55h1M39 55h1M41 55h1M32 56h3" />
</svg>