<svg xmlns="http://www.w3.org/2000/svg" viewBox="0 -0.5 80 80" shape-rendering="crispEdges">
<metadata>Made with Pixels to Svg https://codepen.io/shshaw/pen/XbxvNj</metadata>
<path stroke="#624a73" d="M18 9h5M16 10h1M23 10h2M15 11h1M25 11h1M14 12h1M26 12h1M67 12h2M27 13h1M66 13h1M69 13h1M13 14h1M28 14h1M65 14h1M69 14h1M13 15h1M29 15h1M64 15h1M69 15h1M13 16h1M29 16h1M63 16h1M69 16h1M30 17h1M63 17h1M69 17h1M31 18h1M62 18h1M68 18h1M31 19h1M61 19h1M68 19h1M32 20h1M61 20h1M68 20h1M14 21h1M32 21h1M60 21h1M67 21h1M33 22h1M67 22h1M33 23h1M59 23h1M66 23h1M34 24h1M58 24h1M66 24h1M15 25h1M34 25h1M65 25h1M15 26h1M35 26h1M57 26h1M65 26h1M35 27h1M56 27h1M64 27h1M16 28h1M35 28h1M45 28h1M64 28h1M45 29h1M55 29h1M63 29h1M45 30h1M54 30h1M63 30h1M17 31h1M36 31h1M45 31h1M47 31h1M62 31h1M17 32h1M45 32h1M53 32h1M62 32h1M17 33h1M45 33h1M55 33h1M61 33h1M17 34h1M45 34h1M60 34h1M17 35h1M45 35h1M48 35h1M54 35h1M60 35h1M17 36h1M45 36h1M48 36h1M16 37h1M37 37h2M44 37h1M53 37h1M16 38h1M39 38h1M44 38h1M52 38h1M57 38h1M16 39h1M40 39h1M44 39h1M52 39h1M54 39h1M57 39h1M15 40h1M40 40h1M44 40h1M51 40h2M56 40h1M15 41h1M38 41h1M41 41h1M43 41h1M51 41h1M56 41h1M14 42h1M41 42h1M43 42h1M50 42h1M53 42h1M56 42h1M14 43h1M42 43h1M50 43h1M55 43h1M14 44h1M39 44h1M43 44h1M49 44h1M55 44h1M49 45h1M15 47h1M39 47h3M54 47h1M36 48h3M42 48h1M20 49h10M34 49h2M43 49h1M51 49h1M17 50h2M30 50h2M33 50h1M49 50h2M52 50h1M15 51h2M50 51h1M52 51h1M14 52h1M37 52h2M42 52h2M52 52h1M13 53h1M38 53h1M42 53h1M51 53h1M12 54h1M40 54h1M47 54h1M49 54h2M12 55h1M32 55h1M41 55h1M45 55h1M47 55h1M12 56h1M43 56h2M48 56h1M13 57h1M49 58h1M15 61h1M48 61h1M14 62h1M13 63h1M18 63h1M12 64h1M19 64h2M42 64h1M45 64h1M12 65h1M16 65h1M42 65h1M46 66h1" />
<path stroke="#9c8bbd" d="M17 10h1M20 10h3M23 11h2M15 12h2M25 12h1M14 13h1M17 13h2M26 13h1M67 13h2M20 14h1M26 14h2M66 14h2M21 15h1M27 15h2M65 15h2M22 16h1M28 16h1M64 16h2M68 16h1M23 17h1M28 17h2M64 17h1M67 17h1M14 18h4M24 18h1M29 18h2M63 18h2M66 18h1M18 19h3M25 19h1M29 19h2M62 19h2M65 19h1M21 20h2M26 20h1M30 20h2M62 20h1M65 20h1M23 21h2M26 21h1M31 21h1M61 21h2M64 21h1M25 22h1M27 22h1M31 22h2M60 22h2M64 22h1M26 23h2M32 23h1M60 23h1M63 23h1M27 24h2M32 24h2M59 24h2M63 24h1M28 25h1M33 25h1M58 25h2M62 25h1M29 26h1M33 26h2M58 26h2M62 26h3M29 27h1M33 27h2M57 27h2M61 27h1M30 28h1M34 28h1M56 28h3M60 28h1M30 29h1M34 29h2M56 29h2M60 29h1M17 30h1M30 30h1M34 30h2M55 30h2M59 30h1M18 31h2M31 31h1M35 31h1M54 31h3M59 31h1M61 31h1M21 32h1M31 32h1M35 32h2M54 32h2M58 32h1M60 32h1M23 33h1M31 33h1M35 33h2M53 33h2M58 33h2M24 34h1M32 34h1M35 34h2M52 34h3M57 34h2M18 35h2M25 35h1M32 35h1M36 35h2M52 35h2M56 35h2M59 35h1M20 36h2M26 36h1M32 36h1M36 36h2M51 36h3M56 36h1M22 37h2M27 37h1M32 37h1M36 37h1M48 37h1M51 37h2M55 37h1M57 37h1M24 38h1M28 38h1M33 38h1M51 38h1M54 38h1M56 38h1M25 39h1M29 39h1M33 39h1M50 39h2M53 39h1M55 39h1M26 40h1M29 40h1M33 40h1M50 40h1M27 41h1M30 41h1M33 41h1M50 41h1M18 42h6M28 42h1M31 42h1M34 42h1M16 43h2M24 43h3M29 43h1M31 43h1M34 43h1M43 43h1M15 44h1M27 44h3M32 44h1M34 44h1M38 44h1M29 45h2M32 45h1M34 45h1M38 45h1M30 46h1M32 46h1M35 46h1M38 46h1M49 46h1M31 47h1M33 47h1M35 47h1M38 47h1M42 47h1M52 47h1M31 48h1M33 48h1M35 48h1M43 48h1M52 48h1M32 49h2M19 50h1M32 50h1M33 51h1M36 51h1M23 52h6M32 52h1M35 52h2M20 53h3M29 53h1M32 53h1M34 53h2M37 53h1M17 54h3M32 54h2M38 54h2M42 54h2M15 55h2M25 55h3M38 55h2M43 55h1M13 56h2M22 56h3M39 56h1M19 57h3M39 57h1M48 57h1M17 58h2M39 58h1M45 58h1M16 59h1M38 59h1M43 59h1M46 59h1M25 60h1M43 60h1M46 60h1M23 61h2M46 61h1M22 62h1M42 62h1M46 62h1M21 63h1M41 63h1M46 63h1M43 64h1" />
<path stroke="#d5acde" d="M18 10h2M22 11h1M24 12h1M25 13h1M19 14h1M27 16h1M28 18h1M27 21h1M30 21h1M28 23h1M31 23h1M32 25h1M62 27h1M33 28h1M61 28h1M46 29h1M46 30h1M34 31h1M46 31h1M20 32h1M47 32h1M22 33h1M33 33h2M47 33h1M31 34h1M33 34h2M47 34h1M30 35h2M33 35h3M47 35h1M29 36h3M33 36h3M47 36h1M29 37h3M33 37h3M45 37h1M47 37h1M29 38h4M34 38h3M45 38h1M48 38h1M27 39h2M30 39h3M34 39h3M39 39h1M45 39h1M48 39h1M27 40h2M30 40h3M34 40h3M38 40h1M45 40h1M48 40h1M53 40h1M55 40h1M28 41h2M31 41h2M34 41h4M44 41h2M48 41h1M52 41h2M55 41h1M26 42h2M29 42h2M32 42h2M35 42h3M39 42h1M44 42h2M48 42h1M51 42h2M55 42h1M27 43h2M30 43h1M32 43h2M35 43h3M39 43h1M44 43h1M48 43h1M51 43h2M26 44h1M30 44h2M33 44h1M35 44h3M40 44h1M42 44h1M44 44h1M48 44h1M50 44h3M26 45h3M31 45h1M33 45h1M35 45h3M40 45h5M48 45h1M50 45h2M26 46h4M31 46h1M33 46h2M36 46h2M40 46h5M48 46h1M50 46h2M26 47h5M32 47h1M34 47h1M36 47h2M43 47h2M47 47h4M27 48h4M32 48h1M34 48h1M44 48h1M47 48h4M30 49h2M36 49h1M44 49h1M46 49h4M20 50h10M34 50h3M44 50h5M19 51h13M34 51h2M44 51h5M21 52h2M29 52h2M33 52h2M44 52h4M23 53h6M33 53h1M43 53h4M41 54h1M44 54h2M44 55h1M47 56h1M47 57h1M47 58h2M48 59h1M48 60h1M42 61h2M17 63h1" />
<path stroke="#f6deff" d="M16 11h6M17 12h7M15 13h2M19 13h6M14 14h5M21 14h5M14 15h7M22 15h5M14 16h8M23 16h4M14 17h9M24 17h4M18 18h6M25 18h3M14 19h4M21 19h4M26 19h3M14 20h7M23 20h3M27 20h3M15 21h8M25 21h1M28 21h2M15 22h10M26 22h1M28 22h3M15 23h11M29 23h2M15 24h12M29 24h3M16 25h12M29 25h3M16 26h13M30 26h3M16 27h13M30 27h3M17 28h13M17 29h12M18 30h10M20 31h7M18 32h2M22 32h4M18 33h4M24 33h2M18 34h6M20 35h4M18 36h2M22 36h2M17 37h5M17 38h6M17 39h6M16 40h7M16 41h7M15 42h3M15 43h1M18 43h5M16 44h7M15 45h8M15 46h8M16 47h7M16 48h8M17 49h3M17 51h1M15 52h5M14 53h6M13 54h4M20 54h4M13 55h2M17 55h8M15 56h7M14 57h5M22 57h3M14 58h3M19 58h5M15 59h1M17 59h7M16 60h7M16 61h7M15 62h7M14 63h3M19 63h2M22 63h1M13 64h4M21 64h2M13 65h3M14 66h2" />
<path stroke="#eec5ff" d="M68 14h1M67 15h2M66 16h2M65 17h2M68 17h1M65 18h1M67 18h1M64 19h1M66 19h2M63 20h2M66 20h2M63 21h1M65 21h2M62 22h2M65 22h2M61 23h2M64 23h2M61 24h2M64 24h2M60 25h2M63 25h2M60 26h2M59 27h2M63 27h1M31 28h2M59 28h1M62 28h2M29 29h1M31 29h3M58 29h2M61 29h2M28 30h2M31 30h3M57 30h2M60 30h3M27 31h4M32 31h2M57 31h2M60 31h1M26 32h5M32 32h3M46 32h1M56 32h2M59 32h1M61 32h1M26 33h5M32 33h1M46 33h1M56 33h2M60 33h1M25 34h6M46 34h1M55 34h2M59 34h1M24 35h1M26 35h4M46 35h1M55 35h1M58 35h1M24 36h2M27 36h2M46 36h1M54 36h2M57 36h2M24 37h3M28 37h1M46 37h1M54 37h1M56 37h1M23 38h1M25 38h3M38 38h1M46 38h2M53 38h1M55 38h1M23 39h2M26 39h1M38 39h1M46 39h2M56 39h1M23 40h3M39 40h1M46 40h2M23 41h4M39 41h2M46 41h2M24 42h2M40 42h1M46 42h2M54 42h1M23 43h1M40 43h2M45 43h3M54 43h1M23 44h3M41 44h1M45 44h3M54 44h1M23 45h3M45 45h3M53 45h2M23 46h3M45 46h3M53 46h2M23 47h3M45 47h2M53 47h1M24 48h3M45 48h2M53 48h1M45 49h1M52 49h1M18 51h1M20 52h1M24 54h5M25 56h3M25 57h2M46 57h1M24 58h3M46 58h1M24 59h2M44 59h2M47 59h1M23 60h2M42 60h1M44 60h2M47 60h1M25 61h1M40 61h2M44 61h2M47 61h1M23 62h2M40 62h2M43 62h3M47 62h1M23 63h2M42 63h4M23 64h2M44 64h1M43 65h2M43 66h3M43 67h3" />
<path stroke="#101010" d="M13 17h1M13 18h1M13 19h1M13 20h1M14 22h1M59 22h1M14 23h1M14 24h1M57 25h1M15 27h1M46 28h1M55 28h1M16 29h1M36 29h1M47 29h1M16 30h1M36 30h1M47 30h1M53 31h1M37 32h1M48 32h1M37 33h1M48 33h1M52 33h1M37 34h1M48 34h1M51 34h1M38 35h1M51 35h1M38 36h1M50 36h1M59 36h1M50 37h1M58 37h1M37 38h1M49 38h2M37 39h1M49 39h1M37 40h1M49 40h1M54 40h1M49 41h1M54 41h1M38 42h1M49 42h1M38 43h1M49 43h1M53 43h1M53 44h1M14 45h1M39 45h1M52 45h1M55 45h1M14 46h1M39 46h1M52 46h1M55 46h1M51 47h1M15 48h1M51 48h1M54 48h1M16 49h1M37 49h1M41 49h1M50 49h1M53 49h1M37 50h1M39 50h3M43 50h1M32 51h1M37 51h1M39 51h3M43 51h1M49 51h1M31 52h1M48 52h2M31 53h1M39 53h3M47 53h1M31 54h1M46 54h1M48 54h1M40 55h1M46 55h1M35 56h1M40 56h1M46 56h1M33 57h1M36 57h1M40 57h1M42 57h2M45 57h1M13 58h1M32 58h1M34 58h1M37 58h2M41 58h1M43 58h2M14 59h1M33 59h1M35 59h1M37 59h1M39 59h1M49 59h1M15 60h1M34 60h4M41 60h1M49 60h1M31 61h1M38 61h2M31 62h1M39 62h1M48 62h1M34 63h1M37 63h1M40 63h1M47 63h1M17 64h1M25 64h1M29 64h1M34 64h1M37 64h1M41 64h1M46 64h1M21 65h5M45 65h1M13 66h1M16 66h1M25 66h1M30 66h1M32 66h1M36 66h1M42 66h1M14 67h2M25 67h1M32 67h2M35 67h1M42 67h1M46 67h1M25 68h1M28 68h1M30 68h1M34 68h1M43 68h3M28 69h1M31 69h1M33 69h1M26 70h1M31 70h1M27 71h3" />
<path stroke="#ffffff" d="M39 48h2M39 49h2M41 56h1" />
<path stroke="#acc5c5" d="M41 48h1M38 49h1M42 49h1M38 50h1M42 50h1M38 51h1M42 51h1M39 52h3M50 52h2M48 53h1M50 53h1" />
<path stroke="#e6e6e6" d="M51 50h1M51 51h1M49 53h1M42 55h1M42 56h1M45 56h1M41 57h1M44 57h1" />
<path stroke="#625239" d="M30 53h1M36 53h1M29 54h1M34 54h2M37 54h1M28 55h1M31 55h1M33 55h1M35 55h1M37 55h1M28 56h1M31 56h1M33 56h1M38 56h1M27 57h1M31 57h1M38 57h1M27 58h3M36 58h1M40 58h1M26 59h2M29 59h1M42 59h1M26 60h1M29 60h1M38 60h1M40 60h1M26 61h1M30 61h1M25 62h1M27 62h2M33 62h2M37 62h1M25 63h2M28 63h1M31 63h2M36 63h1M35 64h1M29 65h1M31 65h2M34 65h1M36 65h1M27 66h1M26 67h1M28 67h1M34 67h1M26 69h1M29 69h1M32 69h1M30 70h1" />
<path stroke="#a4837b" d="M30 54h1M29 55h1M37 56h1M35 57h1M32 59h1M34 59h1M36 59h1M33 60h1M33 61h5M26 62h1M30 62h1M32 62h1M35 62h2M27 63h1M29 63h2M33 63h1M35 63h1M26 64h3M30 64h4M36 64h1M26 65h3M30 65h1M33 65h1M35 65h1M26 66h1M28 66h2M31 66h1M33 66h3M27 67h1M29 67h3M26 68h2M29 68h1M31 68h3M27 69h1M30 69h1M27 70h3" />
<path stroke="#c5ac8b" d="M36 54h1M30 55h1M34 55h1M29 56h2M32 56h1M36 56h1M28 57h3M34 57h1M37 57h1M30 58h2M33 58h1M35 58h1M42 58h1M28 59h1M30 59h2M40 59h2M27 60h2M30 60h3M39 60h1M27 61h3M32 61h1M29 62h1" />
<path stroke="#e6d5ac" d="M36 55h1M34 56h1M32 57h1" />
</svg>