<svg xmlns="http://www.w3.org/2000/svg" viewBox="0 -0.5 80 80" shape-rendering="crispEdges">
<metadata>Made with Pixels to Svg https://codepen.io/shshaw/pen/XbxvNj</metadata>
<path stroke="#c57341" d="M34 29h1M36 30h4M37 31h4M37 32h5M30 33h2M36 33h7M30 34h2M33 34h3M37 34h5M43 34h1M30 35h2M33 35h3M37 35h6M29 36h3M33 36h3M37 36h5M43 36h1M29 37h14M29 38h2M36 38h6M43 38h1M29 39h1M37 39h4M42 39h1M29 40h1M38 40h4M29 41h1M38 41h3M42 41h1M30 42h1M38 42h2M31 43h1M38 43h1M32 44h5" />
<path stroke="#a45a5a" d="M35 29h1M32 30h2M31 31h1M41 31h1M30 32h1M42 32h1M29 33h1M42 34h1M43 35h1M28 36h1M42 36h1M44 36h1M43 37h2M42 38h1M44 38h1M41 39h1M43 39h2M42 40h3M41 41h1M43 41h2M29 42h1M37 42h1M40 42h5M29 43h2M32 43h6M39 43h6M29 44h3M37 44h8M29 45h14M31 46h11M32 47h9M36 48h1" />
<path stroke="#5a3118" d="M36 29h4M40 30h2M43 33h1M29 34h1M29 35h1" />
<path stroke="#de9c5a" d="M34 30h2M32 31h5M31 32h6M32 33h4" />
<path stroke="#101010" d="M42 31h1M43 32h1M44 34h1M32 35h1M36 35h1M44 35h1M32 36h1M36 36h1M45 36h1M28 37h1M45 37h1M28 38h1M45 38h1M28 39h1M45 39h1M28 40h1M45 40h1M28 41h1M45 41h1M28 42h1M32 42h4M45 42h1M28 43h1M45 43h1M28 44h1M45 44h1M28 45h1M44 45h2M29 46h2M47 46h1M56 46h1M31 47h1M41 47h1M48 47h1M56 47h1M31 48h1M38 48h3M48 48h1M53 48h2M30 49h1M36 49h1M40 49h1M48 49h1M51 49h2M29 50h1M36 50h1M29 51h1M36 51h1M41 51h1M46 51h1" />
<path stroke="#ffffff" d="M32 34h1M36 34h1" />
<path stroke="#d5394a" d="M31 38h1M30 39h1M35 39h1M35 40h2M31 41h1M33 41h3" />
<path stroke="#730018" d="M32 38h4M36 39h1M30 40h1M37 40h1M30 41h1M36 41h2M31 42h1M36 42h1" />
<path stroke="#ffac94" d="M31 39h2M31 40h2" />
<path stroke="#ff6a5a" d="M33 39h2M33 40h2M32 41h1" />
<path stroke="#5a5220" d="M46 41h3M26 42h2M46 42h1M49 42h1M46 43h1M50 43h4M46 44h2M50 44h1M54 44h2M26 45h2M43 45h1M46 45h4M56 45h1M28 46h1M42 46h1M46 46h1M48 46h1M22 47h1M47 47h1M57 47h2M21 48h2M30 48h1M33 48h3M37 48h1M49 48h2M50 49h1M41 50h1M48 50h1M45 51h1M47 51h1M40 52h1" />
<path stroke="#b4ac73" d="M47 42h2M26 43h2M47 43h3M25 44h3M51 44h3M50 45h3M43 46h2M50 46h3M28 47h1M42 47h3M50 47h2M28 48h2M41 48h4M56 48h2M21 49h3M27 49h2M35 49h1M37 49h2M41 49h4M49 49h1M54 49h2M23 50h4M31 50h1M34 50h2M37 50h1M42 50h1M49 50h5M22 51h1M24 51h1M26 51h2M30 51h5M48 51h3M52 51h1M54 51h1M23 52h1M25 52h1M28 52h1M30 52h6M42 52h6M49 52h1M51 52h1M53 52h1M27 53h1M29 53h1M32 53h1M34 53h5M40 53h1M44 53h1M46 53h1M48 53h1M52 53h1M31 54h1M33 54h1M35 54h1M37 54h1M39 54h1M41 54h1M34 55h1M36 55h1" />
<path stroke="#837b4a" d="M25 43h1M24 44h1M48 44h2M24 45h2M53 45h3M24 46h1M45 46h1M49 46h1M53 46h3M23 47h1M29 47h2M45 47h2M49 47h1M52 47h4M23 48h1M32 48h1M45 48h3M51 48h2M55 48h1M24 49h1M29 49h1M31 49h1M39 49h1M45 49h3M53 49h1M27 50h2M30 50h1M38 50h3M43 50h5M28 51h1M35 51h1M37 51h4M42 51h3M29 52h1M36 52h4M41 52h1" />
<path stroke="#e6e6b4" d="M25 46h3M24 47h4M24 48h4M25 49h2M32 49h3M32 50h2" />
</svg>