<svg xmlns="http://www.w3.org/2000/svg" viewBox="0 -0.5 80 80" shape-rendering="crispEdges">
<metadata>Made with Pixels to Svg https://codepen.io/shshaw/pen/XbxvNj</metadata>
<path stroke="#415262" d="M17 6h2M57 6h2M19 7h2M55 7h1M59 7h1M14 8h1M21 8h1M53 8h1M13 9h1M22 9h1M52 9h1M62 9h1M11 10h2M19 10h1M55 10h1M10 11h1M16 11h1M54 11h1M58 11h1M9 12h1M17 12h1M54 12h1M57 12h1M65 12h1M17 13h1M53 13h1M57 13h1M60 13h1M65 13h1M12 14h1M14 14h1M17 14h1M22 14h1M53 14h1M57 14h1M59 14h1M63 14h1M12 15h1M16 15h1M44 15h1M53 15h1M59 15h1M21 16h1M54 16h1M65 16h1M10 17h1M19 17h1M28 17h3M33 17h1M46 17h1M50 17h3M16 18h1M26 18h2M53 18h2M63 18h1M14 19h1M17 19h1M25 19h1M47 19h1M61 19h2M24 20h1M48 20h1M49 21h1M56 21h1M14 22h1M45 22h1M56 22h1M22 23h1M28 23h1M51 23h1M21 24h1M26 24h2M54 24h1M15 25h1M21 25h1M25 25h1M44 25h1M20 26h1M43 26h1M45 26h1M60 26h1M24 27h1M30 27h2M42 27h3M61 27h1M32 28h2M40 28h2M58 28h1M61 28h1M18 29h1M23 29h1M28 29h1M22 30h1M27 30h1M20 31h2M27 31h1M48 31h1M62 31h1M26 32h1M48 32h1M19 33h1M26 33h1M35 33h1M49 33h1M26 34h1M35 34h1M48 34h1M63 34h1M18 35h1M58 35h1M17 36h1M21 36h1M36 36h1M47 36h2M50 36h1M57 36h1M16 37h1M22 37h2M26 37h1M46 37h1M51 37h1M65 37h1M25 38h1M29 38h4M39 38h4M56 38h1M50 39h1M24 40h1M55 40h2M17 41h1M25 41h1M31 41h1M39 41h1M47 41h2M54 41h1M65 41h1M26 42h1M42 42h5M63 43h1M29 44h1M60 44h1M21 45h1M30 45h1M50 45h1M23 46h1M57 46h1M47 47h2M56 47h1M27 48h1M45 48h1M50 48h1M55 48h2M33 49h1M43 49h1M57 49h1M42 50h1M52 50h1M57 50h1M23 51h1M34 51h1M42 51h1M55 51h2M22 52h1M33 52h2M41 52h3M35 53h1M41 53h1M43 53h1M36 54h1M41 54h1M44 54h1M45 55h1M57 55h1M34 56h1M46 56h1M48 57h1M58 57h1M20 58h1M45 58h1M21 59h1M27 59h1M59 59h1M25 60h6M48 60h1M52 60h1M58 60h1M22 61h1M25 61h2M30 61h1M51 61h1M53 61h1M58 61h1M26 62h1M30 62h1M54 62h1M57 62h2M24 63h1M26 63h2M30 63h1M52 63h2M55 63h4M25 64h1M27 64h3M53 64h7M26 65h4M53 65h6M24 66h7M54 66h5M21 67h3M26 67h6M55 67h4M19 68h2M28 68h5M55 68h2M59 68h1M24 69h1M29 69h4M54 69h2M61 69h1M27 70h2M54 70h1M57 70h2M62 70h2M59 71h1M59 72h1" />
<path stroke="#000000" d="M56 6h1M16 7h1M54 7h1M60 7h1M15 8h1M61 8h1M22 10h1M52 10h1M63 10h1M20 11h1M22 11h1M52 11h1M64 11h1M20 12h1M22 12h1M53 12h1M9 13h1M20 13h2M54 13h1M9 14h1M18 14h2M43 14h2M55 14h2M66 14h1M9 15h1M11 15h1M14 15h1M17 15h2M22 15h1M45 15h1M57 15h2M62 15h1M66 15h1M9 16h1M11 16h1M14 16h2M18 16h1M33 16h1M36 16h1M46 16h1M55 16h2M59 16h3M66 16h1M12 17h2M20 17h1M47 17h3M57 17h1M66 17h1M10 18h1M17 18h2M20 18h1M37 18h1M45 18h1M47 18h1M58 18h2M67 18h1M11 19h1M15 19h1M21 19h1M29 19h1M32 19h1M37 19h1M46 19h1M48 19h1M55 19h1M60 19h1M67 19h1M12 20h2M21 20h1M46 20h1M56 20h1M60 20h1M68 20h1M13 21h1M22 21h1M24 21h1M30 21h2M40 21h2M57 21h2M60 21h1M69 21h1M23 22h1M32 22h1M37 22h2M59 22h2M69 22h1M14 23h1M29 23h2M33 23h3M44 23h1M52 23h2M60 23h1M70 23h1M14 24h1M31 24h1M44 24h1M55 24h1M60 24h1M70 24h1M43 25h1M56 25h1M60 25h1M70 25h1M15 26h1M24 26h1M32 26h1M42 26h1M57 26h1M71 26h1M15 27h1M33 27h1M40 27h2M58 27h1M71 27h1M16 28h1M23 28h1M35 28h4M71 28h1M17 29h1M59 29h1M71 29h1M19 30h2M60 30h1M70 30h1M61 31h1M68 31h2M19 32h1M62 32h6M63 33h1M18 34h1M49 34h1M26 35h1M48 35h1M50 35h1M64 35h1M26 36h1M51 36h1M65 36h1M27 37h1M47 37h1M52 37h2M56 37h1M16 38h1M24 38h1M26 38h1M28 38h1M43 38h3M51 38h1M54 38h2M66 38h1M16 39h1M25 39h1M29 39h1M51 39h1M55 39h1M66 39h1M16 40h1M26 40h1M29 40h1M50 40h1M54 40h1M66 40h1M26 41h1M30 41h1M49 41h1M53 41h1M17 42h1M27 42h1M31 42h2M40 42h2M47 42h3M52 42h1M65 42h1M18 43h1M28 43h1M39 43h1M49 43h1M51 43h1M64 43h1M19 44h1M30 44h1M49 44h2M61 44h2M20 45h1M48 45h2M59 45h1M22 46h1M30 46h4M38 46h12M58 46h1M23 47h1M28 47h2M32 47h15M49 47h1M57 47h1M24 48h1M26 48h1M33 48h1M38 48h7M57 48h1M24 49h2M34 49h1M38 49h5M50 49h1M56 49h1M58 49h1M24 50h1M34 50h1M37 50h5M51 50h1M58 50h1M35 51h7M53 51h2M57 51h1M35 52h6M55 52h2M36 53h5M56 53h1M37 54h4M57 54h1M36 55h2M41 55h1M35 56h1M42 56h1M58 56h1M33 57h1M43 57h1M59 57h1M31 58h2M44 58h1M59 58h1M28 59h3M46 59h1M21 60h1M31 60h1M47 60h1M60 60h1M31 61h1M49 61h2M60 61h1M23 62h1M31 62h1M51 62h3M60 62h1M31 63h1M51 63h1M54 63h1M60 63h1M24 64h1M30 64h1M52 64h1M25 65h1M30 65h1M52 65h1M59 65h1M31 66h1M53 66h1M59 66h1M32 67h1M54 67h1M59 67h1M33 68h1M54 68h1M60 68h1M19 69h1M23 69h1M33 69h1M53 69h1M20 70h3M29 70h4M53 70h1M22 71h1M26 71h3M54 71h1M64 71h1M23 72h3M55 72h1M60 72h1M64 72h1M56 73h4M61 73h3" />
<path stroke="#c5d5de" d="M17 7h2M57 7h2M18 8h2M54 8h3M16 9h2M53 9h2M57 9h3M13 10h2M17 10h1M56 10h3M11 11h2M14 11h1M55 11h2M59 11h2M11 12h2M58 12h2M62 12h1M61 13h1M26 25h3M52 25h3M25 26h3M53 26h3M25 27h2M29 31h1M28 32h3M28 33h4M38 33h2M28 34h4M38 34h3M29 35h2M39 35h3M23 53h2M22 54h2M54 56h2M53 57h4M54 58h3" />
<path stroke="#ac9c41" d="M37 7h1M36 8h1M32 9h1M35 9h1M38 9h3M31 10h1M37 10h3M30 11h1M33 11h2M36 11h3M42 11h2M32 12h1M36 12h2M41 12h4M32 13h1M35 13h3M40 13h2M44 13h1M31 14h2M35 14h2M39 14h1M32 15h1M34 15h2M39 15h1M34 16h2M38 16h1M34 17h1M45 19h1M44 20h2M43 21h2M42 22h2M32 23h1M42 23h2M32 24h1M42 24h2M41 25h2M40 26h2M34 27h6M37 41h1M38 42h1M32 43h1M32 44h1M46 44h1M48 44h1M33 45h1M38 45h1M34 46h1M37 46h1" />
<path stroke="#837329" d="M38 7h2M33 9h1M42 9h2M34 10h1M40 10h1M44 10h1M39 11h1M45 11h1M30 12h1M33 12h1M38 12h1M33 13h1M38 13h1M42 13h2M37 14h1M40 14h1M37 15h1M31 16h1M43 17h2M34 18h1M41 18h2M39 21h1M36 22h1M41 24h1M39 25h1M34 43h1M37 43h1M34 44h1M37 44h1M32 45h1M35 45h2" />
<path stroke="#a4b4b4" d="M56 7h1M16 8h2M20 8h1M57 8h3M14 9h2M19 9h3M55 9h1M60 9h2M16 10h1M18 10h1M20 10h2M54 10h1M60 10h3M13 11h1M15 11h1M17 11h2M57 11h1M61 11h3M10 12h1M14 12h3M56 12h1M60 12h1M63 12h1M10 13h3M15 13h1M59 13h1M62 13h3M10 14h1M13 14h1M21 14h1M54 14h1M62 14h1M10 15h1M20 15h2M54 15h2M33 18h1M36 18h1M51 18h2M27 19h2M33 19h4M50 19h5M26 20h3M33 20h4M50 20h6M25 21h4M51 21h4M61 21h1M15 22h1M25 22h2M61 22h2M15 23h2M61 23h3M15 24h2M28 24h3M50 24h4M61 24h3M16 25h2M29 25h2M49 25h3M55 25h1M61 25h4M16 26h2M28 26h3M48 26h5M56 26h1M61 26h4M17 27h1M27 27h2M48 27h10M62 27h3M24 28h6M50 28h8M62 28h2M24 29h3M29 29h4M43 29h4M53 29h4M24 30h2M28 30h6M40 30h7M52 30h7M22 31h3M28 31h1M30 31h5M38 31h10M51 31h10M21 32h5M27 32h1M31 32h4M37 32h11M51 32h6M58 32h4M20 33h3M24 33h2M27 33h1M32 33h3M37 33h1M40 33h8M52 33h6M59 33h3M19 34h3M23 34h3M27 34h1M32 34h3M37 34h1M41 34h7M53 34h5M60 34h3M19 35h2M23 35h2M27 35h2M31 35h4M37 35h2M42 35h5M55 35h2M60 35h4M18 36h3M28 36h6M37 36h9M59 36h6M17 37h5M29 37h4M38 37h6M58 37h7M17 38h6M57 38h2M61 38h4M17 39h4M22 39h2M59 39h5M17 40h5M58 40h5M18 41h6M56 41h6M19 42h6M54 42h7M20 43h6M53 43h6M21 44h6M53 44h4M22 45h5M54 45h2M24 46h2M28 48h4M27 49h6M25 50h8M24 51h9M48 51h2M23 52h10M47 52h5M25 53h6M46 53h8M24 54h6M31 54h2M46 54h10M22 55h6M29 55h3M47 55h10M21 56h5M28 56h2M48 56h6M56 56h1M21 57h4M49 57h4M57 57h1M21 58h3M50 58h4M57 58h1M22 59h2M53 59h5M54 60h3M21 68h2M25 69h2M23 70h3M56 70h1M60 70h2M57 71h2M61 71h3" />
<path stroke="#f6ee9c" d="M37 8h3M36 9h1M32 10h1M35 10h1M41 10h2M31 11h1M35 11h1M40 11h1M31 12h1M34 12h1M39 12h1M34 13h1M38 14h1M30 18h1M30 19h1M41 19h2M31 20h1M37 20h5M32 21h6M34 41h1M33 42h1M33 43h1M40 44h1" />
<path stroke="#524100" d="M40 8h1M41 9h1M45 12h1M30 13h1M45 13h1M30 14h1M33 14h1M41 14h2M45 14h1M31 15h1M33 15h1M36 15h1M40 15h1M32 16h1M37 16h1M39 16h1M32 17h1M35 17h1M37 17h2M29 18h1M29 20h1M43 20h1M42 21h1M45 21h1M31 22h1M41 22h1M44 22h1M31 23h1M41 23h1M33 24h1M40 24h1M32 25h1M34 25h5M34 28h1M39 28h1M34 40h3M33 41h1M38 41h1M39 42h1M31 43h1M31 44h1M39 44h1M31 45h1M39 45h1" />
<path stroke="#838b94" d="M60 8h1M18 9h1M56 9h1M15 10h1M53 10h1M59 10h1M19 11h1M21 11h1M53 11h1M13 12h1M18 12h2M21 12h1M55 12h1M61 12h1M64 12h1M13 13h2M16 13h1M18 13h2M55 13h2M58 13h1M11 14h1M15 14h2M20 14h1M58 14h1M60 14h2M64 14h2M13 15h1M15 15h1M19 15h1M41 15h3M56 15h1M60 15h2M63 15h3M10 16h1M12 16h2M16 16h2M19 16h2M40 16h6M57 16h2M62 16h3M11 17h1M14 17h5M36 17h1M41 17h2M45 17h1M58 17h8M11 18h5M19 18h1M28 18h1M35 18h1M46 18h1M48 18h3M60 18h3M64 18h3M12 19h2M16 19h1M18 19h3M26 19h1M49 19h1M63 19h4M14 20h7M25 20h1M47 20h1M49 20h1M61 20h7M14 21h8M29 21h1M46 21h3M50 21h1M55 21h1M62 21h7M16 22h7M24 22h1M27 22h4M46 22h10M57 22h2M63 22h6M17 23h5M23 23h5M45 23h6M54 23h6M64 23h6M17 24h4M22 24h4M45 24h5M56 24h4M64 24h6M18 25h3M22 25h3M31 25h1M45 25h4M57 25h3M65 25h5M18 26h2M21 26h3M31 26h1M44 26h1M46 26h2M58 26h2M65 26h6M16 27h1M18 27h6M29 27h1M32 27h1M45 27h3M59 27h2M65 27h6M17 28h6M30 28h2M42 28h8M59 28h2M64 28h7M19 29h4M27 29h1M33 29h10M47 29h6M57 29h2M60 29h11M21 30h1M23 30h1M26 30h1M34 30h6M47 30h5M59 30h1M61 30h9M25 31h2M35 31h3M49 31h2M63 31h5M20 32h1M35 32h2M49 32h2M57 32h1M23 33h1M36 33h1M48 33h1M50 33h2M58 33h1M62 33h1M22 34h1M36 34h1M50 34h3M58 34h2M21 35h2M25 35h1M35 35h2M47 35h1M49 35h1M51 35h4M57 35h1M59 35h1M22 36h4M27 36h1M34 36h2M46 36h1M49 36h1M52 36h5M58 36h1M24 37h2M28 37h1M33 37h5M44 37h2M48 37h3M54 37h2M57 37h1M23 38h1M33 38h6M46 38h5M59 38h2M65 38h1M21 39h1M24 39h1M30 39h20M56 39h3M64 39h2M22 40h2M25 40h1M30 40h4M37 40h13M57 40h1M63 40h3M24 41h1M32 41h1M40 41h7M55 41h1M62 41h3M18 42h1M25 42h1M53 42h1M61 42h4M19 43h1M26 43h2M52 43h1M59 43h4M20 44h1M27 44h2M51 44h2M57 44h3M27 45h3M51 45h3M56 45h3M26 46h4M50 46h7M24 47h4M30 47h2M50 47h6M25 48h1M32 48h1M46 48h4M51 48h4M26 49h1M44 49h6M51 49h5M33 50h1M43 50h8M53 50h4M33 51h1M43 51h5M50 51h3M44 52h3M52 52h3M22 53h1M31 53h4M42 53h1M44 53h2M54 53h2M21 54h1M30 54h1M33 54h3M42 54h2M45 54h1M56 54h1M21 55h1M28 55h1M32 55h4M42 55h3M46 55h1M20 56h1M26 56h2M30 56h4M43 56h3M47 56h1M57 56h1M20 57h1M25 57h8M44 57h4M24 58h7M46 58h4M58 58h1M24 59h3M47 59h6M58 59h1M22 60h3M49 60h3M53 60h1M57 60h1M59 60h1M23 61h2M27 61h3M52 61h1M54 61h4M59 61h1M24 62h2M27 62h3M55 62h2M59 62h1M25 63h1M28 63h2M59 63h1M26 64h1M24 67h2M23 68h5M57 68h2M20 69h3M27 69h2M56 69h5M26 70h1M55 70h1M59 70h1M23 71h3M55 71h2M60 71h1M56 72h3M61 72h3" />
<path stroke="#cdc562" d="M37 9h1M33 10h1M36 10h1M43 10h1M32 11h1M41 11h1M44 11h1M35 12h1M40 12h1M31 13h1M39 13h1M34 14h1M38 15h1M43 18h2M31 19h1M40 19h1M43 19h2M30 20h1M32 20h1M42 20h1M38 21h1M33 22h3M33 25h1M40 25h1M33 26h7M34 42h1M37 42h1M38 43h1M40 43h1M33 44h1M35 44h2M38 44h1M42 44h1M44 44h1M34 45h1M37 45h1M40 45h1M35 46h2" />
<path stroke="#ffffff" d="M31 17h1M31 18h1M40 18h1" />
<path stroke="#cddeee" d="M39 17h2" />
<path stroke="#bd0000" d="M32 18h1M38 18h1M38 19h2M39 22h2M40 23h1M34 24h1M39 24h1M35 41h2M35 42h2M35 43h2" />
<path stroke="#ff4a39" d="M39 18h1M36 23h4M35 24h4" />
<path stroke="#4a4a62" d="M41 43h8M41 44h1M43 44h1M45 44h1M47 44h1M41 45h7M34 48h4M35 49h3M35 50h2" />
</svg>