<svg xmlns="http://www.w3.org/2000/svg" viewBox="0 -0.5 80 80" shape-rendering="crispEdges">
<metadata>Made with Pixels to Svg https://codepen.io/shshaw/pen/XbxvNj</metadata>
<path stroke="#413931" d="M18 24h2M16 25h1M21 25h1M15 26h1M60 26h2M62 27h1M55 28h1M63 28h1M21 29h1M54 29h1M54 30h1M56 30h1M19 31h1M21 31h1M23 31h1M33 31h2M37 31h1M43 31h1M54 31h1M66 31h1M16 32h1M35 32h1M46 32h1M53 32h3M59 32h1M67 32h1M17 33h1M43 33h1M47 33h1M52 33h1M55 33h1M58 33h1M67 33h1M44 34h1M48 34h1M52 34h1M68 34h1M36 35h1M45 35h1M48 35h1M53 35h1M61 35h1M68 35h1M12 36h1M29 36h1M34 36h1M36 36h1M43 36h1M61 36h1M68 36h1M13 37h2M23 37h1M44 37h1M56 37h1M67 37h1M15 38h1M23 38h1M28 38h1M57 38h2M66 38h1M16 39h1M23 39h1M27 39h1M17 40h1M26 40h1M57 40h1M26 41h1M57 41h1M31 42h5M30 43h1M39 43h1M49 43h1M53 43h1M55 43h1M28 44h1M40 44h1M55 44h1M29 45h1M45 45h2M54 45h1M30 46h1M43 46h2M47 46h1M29 47h1M31 47h1M49 47h1M29 48h1M30 49h1M33 49h3M42 49h1M36 50h6" />
<path stroke="#6a6a52" d="M17 25h1M20 25h1M58 26h2M14 27h1M19 27h1M56 27h2M13 28h1M20 28h1M12 29h1M17 29h1M57 29h1M64 29h1M11 30h1M18 30h1M39 30h4M65 30h1M11 31h1M15 31h1M32 31h1M38 31h1M56 31h1M60 31h1M10 32h1M30 32h2M44 32h1M10 33h1M29 33h1M39 33h2M63 33h1M11 34h1M14 34h1M20 34h1M28 34h1M33 34h1M37 34h2M58 34h1M62 34h1M11 35h1M28 35h1M31 35h1M34 35h1M55 35h1M19 36h1M32 36h1M45 36h1M47 36h1M47 37h2M43 38h1M31 39h1M38 39h1M43 39h1M49 39h1M58 39h3M40 40h2M60 40h1M22 42h1M30 42h1M36 42h3M51 42h2M56 42h1M60 43h1M29 44h1M53 44h1M59 44h1M47 45h1M51 45h2M58 45h1M55 46h1M48 47h1" />
<path stroke="#b4b49c" d="M18 25h2M18 26h4M16 27h3M20 27h3M16 28h4M21 28h1M56 28h1M59 28h1M14 29h3M18 29h3M55 29h2M58 29h5M14 30h4M19 30h2M55 30h1M57 30h6M14 31h1M16 31h2M39 31h3M57 31h3M61 31h4M13 32h3M34 32h1M37 32h6M57 32h2M60 32h5M11 33h5M33 33h6M41 33h2M45 33h2M53 33h2M59 33h4M64 33h2M12 34h2M18 34h1M31 34h2M34 34h3M40 34h4M45 34h2M53 34h3M60 34h2M63 34h5M12 35h3M17 35h3M29 35h1M32 35h2M37 35h1M40 35h3M54 35h1M63 35h2M66 35h2M13 36h6M37 36h2M66 36h2M15 37h4M29 37h1M66 37h1M16 38h3M21 38h1M36 38h1M17 39h3M21 39h2M33 39h5M18 40h5M28 40h12M18 41h5M27 41h17M19 42h3M27 42h2M39 42h4M57 42h2M19 43h4M40 43h2M50 43h3M56 43h3M61 43h2M20 44h3M51 44h2M56 44h3M60 44h2M56 45h2M59 45h3M56 46h2M59 46h2M55 47h5M54 48h5M31 49h1M55 49h3M32 50h4M35 51h6M37 52h3" />
<path stroke="#c5d5ac" d="M16 26h2M15 27h1M58 27h4M14 28h2M57 28h2M60 28h2M13 29h1M63 29h1M12 30h2M63 30h2M12 31h2M65 31h1M11 32h2M32 32h2M65 32h2M30 33h3M66 33h1M29 34h2M39 34h1M38 35h2M29 38h1M28 39h2M27 40h1" />
<path stroke="#101010" d="M22 26h1M23 27h1M23 28h1M23 29h1M22 30h1M44 31h1M19 32h2M23 32h1M36 32h1M45 32h1M18 33h2M23 33h1M17 34h1M19 34h1M22 34h1M56 34h2M15 35h2M20 35h3M30 35h1M56 35h1M58 35h1M65 35h1M22 36h1M28 36h1M31 36h1M40 36h3M48 36h1M54 36h2M59 36h2M64 36h2M28 37h1M32 37h2M37 37h3M43 37h1M49 37h1M62 37h2M32 38h1M37 38h1M39 38h1M49 38h1M50 39h1M57 39h1M65 39h1M23 40h1M50 40h1M64 40h1M17 41h1M23 41h3M50 41h1M64 41h1M18 42h1M26 42h1M50 42h1M63 42h1M18 43h1M27 43h1M63 43h1M19 44h1M30 44h1M54 44h1M62 44h1M20 45h2M25 45h4M31 45h1M55 45h1M62 45h1M22 46h3M32 46h1M42 46h1M61 46h1M32 47h1M43 47h1M50 47h2M60 47h1M31 48h1M43 48h1M48 48h1M52 48h2M59 48h1M32 49h1M46 49h2M54 49h1M58 49h1M30 50h1M44 50h2M55 50h3M31 51h4M43 51h1M35 52h2M41 52h2M37 53h4" />
<path stroke="#9c9483" d="M22 28h1M62 28h1M22 29h1M21 30h1M18 31h1M20 31h1M22 31h1M42 31h1M55 31h1M17 32h2M21 32h2M43 32h1M56 32h1M16 33h1M20 33h3M44 33h1M56 33h2M15 34h2M21 34h1M47 34h1M59 34h1M35 35h1M43 35h2M46 35h2M57 35h1M59 35h2M62 35h1M20 36h2M33 36h1M35 36h1M39 36h1M44 36h1M46 36h1M56 36h3M62 36h2M19 37h4M34 37h3M45 37h2M57 37h5M64 37h2M19 38h2M22 38h1M33 38h3M44 38h5M59 38h7M20 39h1M30 39h1M44 39h5M61 39h4M42 40h8M58 40h2M61 40h3M44 41h6M58 41h6M23 42h3M29 42h1M43 42h7M59 42h4M23 43h4M28 43h2M42 43h7M59 43h1M23 44h5M41 44h10M22 45h3M30 45h1M42 45h3M48 45h3M53 45h1M31 46h1M45 46h2M48 46h7M58 46h1M30 47h1M44 47h4M52 47h3M30 48h1M44 48h4M43 49h3M31 50h1M42 50h2M41 51h2M40 52h1" />
<path stroke="#cddecd" d="M30 36h1M31 37h1M41 37h2M31 38h1M38 38h1M42 38h1" />
<path stroke="#ffffff" d="M30 37h1M30 38h1M40 38h2M40 39h3" />
<path stroke="#949c9c" d="M40 37h1M32 39h1M39 39h1" />
<path stroke="#7b1820" d="M31 43h8M31 44h9M32 45h10M33 46h4M33 47h2M32 48h2" />
<path stroke="#c53131" d="M37 46h1M35 47h1M34 48h1" />
<path stroke="#e64a41" d="M38 46h4M36 47h7M35 48h8M36 49h6" />
</svg>