<svg xmlns="http://www.w3.org/2000/svg" viewBox="0 -0.5 80 80" shape-rendering="crispEdges">
<metadata>Made with Pixels to Svg https://codepen.io/shshaw/pen/XbxvNj</metadata>
<path stroke="#414141" d="M30 3h1M30 4h1M29 5h1M31 5h1M29 6h1M31 6h1M29 7h1M42 7h4M39 8h3M38 9h1M32 10h1M37 10h1M42 10h1M31 11h2M37 11h2M40 11h1M62 11h6M32 12h1M36 12h3M59 12h3M36 13h1M57 13h2M69 13h1M56 14h1M66 14h3M55 15h1M64 15h2M56 16h1M63 16h1M56 17h1M62 17h1M67 17h1M56 18h1M61 18h3M14 26h1M13 27h1M12 28h1M22 28h1M12 29h1M20 29h2M11 30h1M19 30h1M37 30h1M11 31h1M18 31h1M36 31h3M17 32h1M36 32h3M13 33h1M18 33h1M37 33h2M12 34h2M17 34h3M37 34h3M13 35h1M17 35h3M37 35h3M13 36h2M17 36h2M29 36h3M38 36h2M14 37h1M16 37h2M30 37h4M38 37h3M48 37h4M31 38h4M39 38h2M46 38h7M16 39h1M33 39h3M45 39h6M34 40h2M46 40h2M34 41h1M33 50h1M35 50h1M34 51h3M49 51h2M35 52h5M48 52h3M37 53h2M41 53h1M48 53h3M38 54h3M47 54h3M39 55h2M46 55h4M39 56h1M46 56h3M47 57h1M35 64h1M36 65h1M34 66h1M36 66h1M48 68h1M49 69h1M47 71h1M48 72h1M40 73h1M39 75h1M49 75h1M39 76h1" />
<path stroke="#838383" d="M30 5h1M30 6h1M30 7h2M30 8h2M42 8h3M30 9h2M39 9h5M31 10h1M38 10h4M39 11h1M62 12h2M59 13h3M57 14h3M69 14h1M56 15h3M66 15h4M57 16h1M64 16h5M63 17h4M13 28h1M13 29h1M22 29h1M12 30h2M20 30h2M12 31h2M19 31h3M12 32h2M18 32h3M12 33h1M19 33h2M42 49h1M42 50h1M42 51h1M40 52h4M46 52h1M42 53h6M43 54h4M44 55h2M29 68h1M27 69h1M30 69h1M37 71h1M36 72h1M39 74h1" />
<path stroke="#000000" d="M32 7h1M46 7h1M29 8h1M32 8h1M45 8h1M29 9h1M32 9h1M44 9h1M30 10h1M33 10h1M43 10h1M30 11h1M33 11h1M36 11h1M41 11h2M31 12h1M33 12h1M35 12h1M39 12h2M64 12h2M70 12h1M31 13h3M35 13h1M37 13h2M62 13h2M70 13h1M32 14h2M35 14h2M60 14h2M70 14h1M33 15h3M44 15h1M59 15h1M70 15h1M34 16h1M55 16h1M58 16h1M62 16h1M69 16h1M55 17h1M57 17h1M60 17h2M68 17h1M32 18h1M37 18h1M45 18h1M55 18h1M57 18h1M59 18h2M64 18h3M56 19h8M37 20h1M43 20h1M58 20h1M37 21h1M44 21h4M36 22h1M42 22h2M48 22h2M65 22h1M34 23h2M50 23h1M66 23h1M32 24h2M40 24h2M51 24h1M59 24h1M65 24h1M31 25h1M36 25h1M38 25h2M52 25h1M56 25h1M29 26h2M36 26h4M51 26h1M54 26h2M66 26h1M14 27h1M28 27h1M35 27h4M66 27h1M14 28h1M23 28h1M27 28h1M35 28h4M65 28h1M14 29h1M23 29h1M25 29h2M35 29h4M66 29h1M14 30h1M22 30h1M35 30h2M38 30h1M52 30h1M65 30h2M14 31h1M22 31h1M35 31h1M39 31h1M53 31h1M64 31h1M11 32h1M14 32h1M21 32h1M35 32h1M39 32h1M55 32h3M59 32h1M63 32h2M11 33h1M14 33h1M17 33h1M21 33h1M36 33h1M39 33h1M55 33h4M60 33h2M11 34h1M14 34h1M16 34h1M20 34h1M36 34h1M40 34h1M46 34h1M54 34h4M12 35h1M14 35h1M16 35h1M20 35h1M23 35h1M26 35h5M34 35h1M36 35h1M40 35h1M47 35h1M50 35h1M53 35h5M12 36h1M16 36h1M19 36h1M23 36h6M32 36h2M37 36h1M40 36h1M49 36h8M13 37h1M15 37h1M18 37h1M25 37h5M34 37h1M37 37h1M41 37h1M46 37h2M52 37h4M14 38h4M25 38h6M35 38h1M38 38h1M45 38h1M53 38h2M15 39h1M25 39h2M31 39h2M36 39h1M51 39h3M33 40h1M48 40h3M25 41h1M33 41h1M46 41h2M55 41h1M9 42h1M13 42h1M19 42h1M24 43h1M54 43h1M10 44h1M11 45h1M23 45h1M30 45h1M55 45h1M12 46h2M18 46h1M21 46h2M54 46h1M18 47h2M30 47h1M54 47h1M18 48h1M31 48h1M35 48h1M42 48h1M18 49h1M32 49h1M35 49h2M49 49h1M53 49h1M32 50h1M34 50h1M36 50h1M41 50h1M49 50h1M53 50h1M17 51h1M33 51h1M37 51h1M39 51h1M41 51h1M43 51h1M48 51h1M52 51h1M17 52h1M34 52h1M44 52h2M47 52h1M52 52h1M68 52h1M35 53h2M39 53h2M51 53h1M68 53h1M16 54h1M37 54h1M41 54h2M50 54h1M16 55h1M38 55h1M41 55h1M43 55h1M50 55h1M66 55h2M38 56h1M41 56h1M44 56h2M49 56h1M51 56h1M67 56h1M39 57h1M41 57h1M46 57h1M49 57h1M52 57h1M66 57h1M39 58h1M42 58h1M46 58h1M53 58h1M64 58h2M42 59h1M47 59h1M50 59h1M54 59h1M62 59h1M42 60h1M47 60h1M50 60h1M56 60h1M61 60h1M40 61h2M47 61h1M50 61h1M58 61h3M37 62h2M36 63h1M49 63h1M49 64h1M25 66h1M32 66h2M48 66h1M25 67h1M31 67h1M35 67h2M26 68h1M32 68h1M28 69h1M31 69h2M48 70h1M40 72h1M36 73h1M38 73h2M44 73h2M36 74h2M43 74h1M46 74h1M42 75h1M46 75h1M41 76h1M47 76h1M49 76h1M39 77h2M48 77h1" />
<path stroke="#5a4120" d="M36 8h1M34 9h2M29 12h1M43 12h1M29 13h1M44 13h1M28 14h1M34 14h1M45 14h1M27 15h1M28 16h1M30 16h1M38 16h2M44 16h1M28 17h1M31 17h1M36 17h2M45 17h1M29 18h1M28 19h1M29 20h1M54 20h2M57 20h1M59 20h1M61 20h2M43 21h1M63 21h1M58 22h1M64 22h1M39 23h1M41 23h1M59 23h2M35 24h2M38 24h2M61 24h2M37 25h1M66 25h1M51 27h1M50 28h1M51 29h1M53 30h1M64 30h1M56 31h1M54 32h1M58 32h1M62 32h1M15 33h1M41 33h1M44 33h2M22 34h1M42 34h2M49 34h1M35 35h1M48 35h1M11 36h1M11 37h1M24 37h1M10 38h1M10 39h1M9 40h1M20 40h1M24 40h1M32 40h1M53 40h2M10 41h1M12 41h1M19 41h1M24 41h1M31 41h1M10 42h1M18 42h1M25 42h1M31 42h1M54 42h1M9 43h1M17 43h1M31 43h1M53 43h1M23 44h1M30 44h1M54 44h1M12 45h1M22 45h1M31 45h1M20 46h1M31 46h1M35 46h1M35 47h1M42 47h1M32 48h1M49 48h1M41 49h1M43 50h1M50 50h1M46 51h1M51 52h1" />
<path stroke="#cd9c52" d="M36 9h1M34 10h1M36 10h1M34 11h2M30 12h1M34 12h1M30 13h1M39 13h3M29 14h3M37 14h5M28 15h5M36 15h6M32 16h2M35 16h3M40 16h1M29 17h1M32 17h4M40 17h1M39 18h1M29 19h2M37 19h2M30 20h1M55 21h3M60 21h3M57 22h1M59 22h4M61 23h3M63 24h1M57 25h2M62 25h2M57 26h7M58 27h4M15 34h1M41 34h1M45 34h1M15 35h1M21 35h2M41 35h2M44 35h2M15 36h1M20 36h3M34 36h3M41 36h4M12 37h1M19 37h5M35 37h2M43 37h2M11 38h3M18 38h6M36 38h2M42 38h3M11 39h4M17 39h6M37 39h2M41 39h4M10 40h10M37 40h8M11 41h1M13 41h6M32 41h1M36 41h5M42 41h4M48 41h2M11 42h1M14 42h4M33 42h2M36 42h3M41 42h6M49 42h2M32 43h7M40 43h5M46 43h2M13 44h1M31 44h3M35 44h6M42 44h4M34 45h2M37 45h3M42 45h1M44 45h2M49 45h2M34 46h1M37 46h3M46 46h1M50 46h2M38 47h1" />
<path stroke="#a47b5a" d="M37 9h1M35 10h1M41 12h2M34 13h1M42 13h2M42 14h3M42 15h2M29 16h1M31 16h1M41 16h3M41 17h4M35 18h1M40 18h5M31 19h1M39 19h5M38 20h5M56 20h1M60 20h1M38 21h5M54 21h1M58 21h2M37 22h5M63 22h1M36 23h3M40 23h1M64 23h2M37 24h1M64 24h1M64 25h2M52 26h1M56 26h1M64 26h2M52 27h6M62 27h4M51 28h14M52 29h14M54 30h10M54 31h2M57 31h7M60 32h2M16 33h1M21 34h1M44 34h1M43 35h1M46 35h1M49 35h1M45 36h4M42 37h1M45 37h1M24 38h1M41 38h1M23 39h2M39 39h2M21 40h3M36 40h1M45 40h1M51 40h2M21 41h3M35 41h1M41 41h1M50 41h5M21 42h4M32 42h1M35 42h1M39 42h2M47 42h2M51 42h3M10 43h2M14 43h1M21 43h3M39 43h1M45 43h1M48 43h5M11 44h2M18 44h5M34 44h1M41 44h1M46 44h8M13 45h1M19 45h3M32 45h2M36 45h1M40 45h2M43 45h1M46 45h3M51 45h4M19 46h1M32 46h2M36 46h1M40 46h6M47 46h3M52 46h2M31 47h4M36 47h2M39 47h3M43 47h11M33 48h2M36 48h6M43 48h6M50 48h4M33 49h2M37 49h4M43 49h6M50 49h3M37 50h4M44 50h5M51 50h2M38 51h1M40 51h1M44 51h2M47 51h1M51 51h1" />
<path stroke="#ffffff" d="M30 17h1M38 17h2M31 18h1M36 18h1M38 18h1M58 23h1M58 24h1M60 24h1M59 25h2M20 41h1M12 42h1M20 42h1M12 43h2M18 43h2M34 65h2M26 67h1M30 67h1M27 68h1M31 68h1M37 72h2M37 73h1M41 74h1M47 74h1M40 75h1M48 75h1" />
<path stroke="#d5cdcd" d="M30 18h1M20 43h1M35 66h1M28 68h1M30 68h1M48 69h1M38 71h1M40 74h1M48 74h1M41 75h1M47 75h1M40 76h1M48 76h1" />
<path stroke="#625a41" d="M33 18h2M46 18h2M32 19h1M35 19h2M44 19h1M48 19h2M31 20h1M36 20h1M50 20h2M30 21h1M52 21h2M30 22h1M54 22h3M29 23h1M52 23h1M57 23h1M27 24h2M54 24h1M57 24h1M26 25h1M25 26h1M53 26h1M25 27h1M25 28h1M15 43h2M14 44h1M17 44h1M14 45h1M18 45h1M14 46h1M14 47h1M14 48h1M14 49h1M14 50h1M17 50h1M13 52h1M13 53h1M16 53h1M13 54h1M14 55h1M15 56h1M49 58h1M37 59h2M35 60h2M34 61h1M39 61h1M29 62h5M46 62h1M49 62h1M27 63h2M46 63h1M26 64h1M46 64h1M25 65h1M29 65h1M45 65h1M48 65h1M26 66h1M28 66h1M31 66h1M45 66h1M28 67h1M44 67h1M47 67h1M43 68h1M47 68h1M41 69h2M47 69h1M38 70h2M41 72h1M48 73h1M49 74h1" />
<path stroke="#eedeac" d="M33 19h2M46 19h2M32 20h4M45 20h5M32 21h2M49 21h3M31 22h2M34 22h2M51 22h3M30 23h2M33 23h1M53 23h4M29 24h2M55 24h2M27 25h3M26 26h3M26 27h2M26 28h1M15 44h1M15 45h2M15 46h3M15 47h3M15 48h3M15 49h2M15 50h2M15 51h2M14 52h2M14 53h2M14 54h2M15 55h1M38 60h2M36 61h3M48 61h1M34 62h3M48 62h1M29 63h1M32 63h3M47 63h2M27 64h2M31 64h3M47 64h2M26 65h2M30 65h3M46 65h2M29 66h1M46 66h2M45 67h2M45 68h2M44 69h3M41 70h1M43 70h4M40 71h7M42 72h3M46 72h2M42 73h1" />
<path stroke="#b4a47b" d="M45 19h1M44 20h1M31 21h1M34 21h3M48 21h1M33 22h1M50 22h1M32 23h1M51 23h1M31 24h1M52 24h2M30 25h1M53 25h3M16 44h1M17 45h1M17 49h1M14 51h1M16 52h1M40 56h1M40 57h1M48 57h1M40 58h2M47 58h2M39 59h3M48 59h2M37 60h1M40 60h2M48 60h2M35 61h1M49 61h1M47 62h1M30 63h2M35 63h1M29 64h2M34 64h1M28 65h1M33 65h1M27 66h1M30 66h1M27 67h1M29 67h1M44 68h1M43 69h1M40 70h1M42 70h1M47 70h1M39 71h1M39 72h1M45 72h1M41 73h1M43 73h1M46 73h2M42 74h1" />
<path stroke="#eec573" d="M61 25h1" />
<path stroke="#b44141" d="M54 48h3M57 49h4M61 50h7M53 51h1M68 51h1M54 52h2M56 53h2M52 54h1M58 54h3M67 54h1M51 55h1M53 55h1M61 55h5M54 56h2M56 57h3M59 58h5M55 59h1M57 60h1" />
<path stroke="#f683a4" d="M54 49h3M54 50h7M54 51h9M67 51h1M53 52h1M56 52h8M52 53h4M58 53h5M51 54h1M53 54h5M52 55h1M54 55h7M52 56h2M56 56h5M53 57h3M54 58h4" />
<path stroke="#ffd5e6" d="M63 51h4M64 52h4M63 53h5M61 54h6M61 56h6M59 57h7M58 58h1M56 59h6M58 60h3" />
</svg>