<svg xmlns="http://www.w3.org/2000/svg" viewBox="0 -0.5 32 32" shape-rendering="crispEdges">
<metadata>Made with Pixels to Svg https://codepen.io/shshaw/pen/XbxvNj</metadata>
<path stroke="#202020" d="M15 11h2M14 12h1M17 12h2M13 13h1M19 13h2M12 14h1M21 14h1M11 15h1M21 15h1M10 16h1M21 16h1M10 17h1M20 17h1M10 18h1M19 18h1M11 19h2M18 19h1M13 20h2M17 20h1M15 21h2" />
<path stroke="#acb4ff" d="M15 12h2M14 13h5M13 14h8M12 15h8M11 16h8M13 17h5M15 18h2" />
<path stroke="#20085a" d="M20 15h1M19 16h2M18 17h2M17 18h2M16 19h2M16 20h1" />
<path stroke="#735ac5" d="M11 17h2M11 18h4M13 19h3M15 20h1" />
</svg>