<svg xmlns="http://www.w3.org/2000/svg" viewBox="0 -0.5 80 80" shape-rendering="crispEdges">
<metadata>Made with Pixels to Svg https://codepen.io/shshaw/pen/XbxvNj</metadata>
<path stroke="#292942" d="M24 13h1M24 14h1M41 14h2M24 15h1M41 15h1M25 16h1M41 16h1M25 17h1M41 17h1M25 18h1M26 19h1M36 19h1M40 22h1M28 25h1M60 25h1M24 27h2M29 27h1M59 27h1M21 28h2M29 28h1M18 29h2M29 29h1M58 29h1M30 30h1M19 31h1M57 31h2M20 32h2M56 32h1M21 33h2M23 34h2M56 34h1M24 35h2M47 41h1M25 42h1M44 43h1M44 44h1M41 45h1M24 46h1M34 49h1M32 50h1M39 50h1M46 50h1M29 51h1M40 51h3M35 52h1M40 52h3M40 53h3M39 54h3M30 55h3M34 55h2M39 55h3M44 55h1M34 56h7M44 56h1M36 57h8M39 58h6M39 59h1M41 64h1" />
<path stroke="#314263" d="M25 13h2M27 14h2M29 15h2M43 15h1M27 16h1M31 16h2M44 16h1M27 17h3M33 17h2M42 17h1M45 17h1M27 18h5M34 18h2M41 18h2M46 18h1M57 18h3M27 19h6M41 19h3M47 19h1M55 19h2M27 20h7M41 20h4M53 20h2M57 20h4M27 21h12M41 21h6M52 21h1M55 21h6M28 22h12M41 22h9M53 22h8M28 23h23M52 23h9M28 24h33M29 25h31M29 26h31M30 27h29M23 28h1M26 28h3M30 28h29M20 29h1M24 29h5M30 29h28M23 30h7M31 30h27M20 31h1M23 31h34M24 32h32M25 33h31M26 34h29M26 35h28M28 36h25M30 37h22M31 38h20M29 39h21M28 40h21M27 41h20M26 42h20M48 42h1M26 43h18M46 43h2M25 44h18M45 44h2M25 45h16M43 45h4M25 46h15M42 46h6M24 47h14M40 47h9M24 48h12M38 48h11M24 49h10M38 49h11M24 50h8M40 50h6M25 51h4M35 53h1M35 54h2M36 55h2M31 56h3M45 56h1M32 57h4M44 57h1M33 58h6M34 59h5M40 59h7M35 60h10M33 61h10M32 62h10M30 63h13M28 64h13M26 65h18M23 66h23M20 67h27" />
<path stroke="#738cbd" d="M25 14h2M27 15h2M42 15h1M29 16h2M43 16h1M30 17h3M43 17h2M32 18h2M44 18h2M33 19h3M45 19h2M57 19h3M35 20h2M46 20h2M50 40h1M49 41h2" />
<path stroke="#42639c" d="M25 15h2M26 16h1M28 16h1M42 16h1M26 17h1M26 18h1M43 18h1M44 19h1M34 20h1M45 20h1M55 20h2M47 21h2M53 21h2M52 22h1M51 23h1M24 28h2M21 29h3M19 30h4M21 31h2M22 32h2M23 33h2M25 34h1" />
<path stroke="#101010" d="M40 18h1M37 19h1M40 19h1M60 19h1M26 20h1M37 20h2M40 20h1M48 20h1M61 20h1M26 21h1M39 21h2M49 21h1M61 21h1M27 22h1M50 22h2M61 22h1M27 23h1M61 23h1M27 24h1M61 24h1M61 25h1M28 26h1M60 26h1M26 27h3M60 27h1M59 28h1M59 29h1M18 30h1M58 30h1M57 32h1M56 33h1M55 34h1M54 35h2M26 36h2M53 36h2M28 37h2M52 37h4M29 38h2M51 38h2M28 39h1M50 39h1M27 40h1M49 40h1M64 40h1M26 41h1M48 41h1M64 41h1M46 42h2M49 42h1M64 42h1M25 43h1M45 43h1M64 43h1M24 44h1M43 44h1M51 44h2M59 44h1M63 44h1M24 45h1M42 45h1M47 45h3M54 45h2M58 45h1M63 45h1M23 46h1M40 46h2M48 46h1M57 46h3M62 46h1M23 47h1M38 47h2M56 47h1M60 47h2M23 48h1M36 48h2M49 48h1M53 48h3M23 49h1M35 49h3M49 49h4M23 50h1M33 50h3M37 50h2M47 50h3M24 51h1M30 51h4M38 51h2M43 51h4M25 52h6M34 52h1M39 52h1M43 52h1M34 53h1M36 53h1M39 53h1M43 53h1M34 54h1M37 54h2M42 54h1M33 55h1M38 55h1M42 55h1M45 55h2M30 56h1M41 56h3M46 56h1M31 57h1M45 57h1M32 58h1M45 58h3M33 59h1M47 59h1M33 60h2M45 60h2M32 61h1M43 61h2M30 62h2M42 62h1M28 63h2M43 63h1M25 64h3M42 64h3M22 65h4M44 65h3M19 66h4M46 66h2M17 67h3M47 67h2" />
<path stroke="#5a4a21" d="M59 35h3M56 36h3M62 36h1M56 37h1M63 37h1M53 38h1M63 38h1M52 39h1M64 39h1M52 40h1M51 41h1M50 42h1M48 43h1M57 43h2M63 43h1M47 44h1M53 44h1M56 44h1M50 45h1M59 45h1M62 45h1M60 46h1M55 47h1M52 48h1" />
<path stroke="#efef52" d="M59 36h2" />
<path stroke="#d6ce31" d="M61 36h1M57 37h4M56 38h2" />
<path stroke="#b59c21" d="M61 37h2M54 38h2M58 38h5M53 39h11M53 40h11M52 41h12M51 42h13M49 43h8M59 43h4M48 44h3M54 44h2M57 44h2M60 44h3M51 45h3M56 45h2M60 45h2M49 46h8M61 46h1M49 47h6M50 48h2" />
<path stroke="#73293a" d="M51 39h1M51 40h1" />
</svg>