<svg xmlns="http://www.w3.org/2000/svg" viewBox="0 -0.5 80 80" shape-rendering="crispEdges">
<metadata>Made with Pixels to Svg https://codepen.io/shshaw/pen/XbxvNj</metadata>
<path stroke="#3a3173" d="M11 6h6M9 7h3M17 7h2M8 8h2M19 8h1M7 9h1M20 9h1M63 9h5M61 10h2M68 10h2M70 11h1M28 12h1M15 13h1M28 13h1M28 14h1M30 14h1M49 14h1M64 14h1M28 15h1M48 15h1M28 16h1M48 16h1M65 16h1M28 17h1M47 17h1M50 17h1M28 18h1M47 18h1M18 19h1M28 19h1M47 19h1M28 20h1M60 20h2M28 21h1M60 21h2M28 22h1M46 22h1M60 22h5M61 23h3M60 25h1M10 26h1M16 26h1M32 27h1M44 27h1M15 28h1M43 29h1M61 30h1M59 31h1M12 32h1M17 32h1M11 34h1M18 35h1M20 36h1M27 36h1M30 36h1M59 36h1M62 36h1M28 37h1M26 38h1M42 38h1M51 38h1M55 38h1M61 38h1M43 39h1M10 49h1M27 52h9M12 53h1M27 53h3M35 53h3M25 54h3M32 54h2M37 54h3M32 55h4M38 55h4M20 56h1M27 56h1M31 56h6M38 56h2M58 56h1M30 57h7M18 58h1M30 58h8M14 59h1M19 59h1M27 59h1M33 59h5M14 60h1M17 60h1M19 60h1M31 60h2M35 60h3M14 61h5M31 61h4M36 61h1M50 61h1M14 62h6M25 62h1M29 62h6M14 63h6M28 63h8M47 63h1M15 64h4M28 64h8M44 64h1M46 64h3M16 65h2M31 65h5M43 65h6M29 66h2M33 66h3M43 66h6M29 67h4M34 67h1M43 67h5M50 67h1M28 68h5M44 68h6M30 69h4M44 69h4M32 70h2M18 71h1M31 71h1M33 71h1M29 73h2M28 74h4M16 75h1M27 75h5M16 76h2M25 76h8M16 77h17M16 78h18M16 79h18" />
<path stroke="#8c84d6" d="M12 7h5M10 8h9M8 9h6M7 10h3M7 11h2M6 12h2M6 13h1M29 13h1M29 14h1M29 15h2M49 15h1M29 16h2M49 16h1M29 17h1M31 17h1M49 17h1M29 18h2M48 18h3M29 19h1M48 19h3M30 20h1M47 20h1M49 20h2M29 21h1M50 21h1M29 22h1M50 22h1M36 26h6M35 27h8M31 36h6M30 37h8" />
<path stroke="#7b73bd" d="M14 9h1M19 9h1M10 10h1M63 10h5M61 11h9M67 12h4M7 13h1M69 13h3M6 14h1M71 14h1M31 16h1M30 17h1M48 17h1M31 18h1M30 19h1M32 19h1M29 20h1M31 20h1M33 20h1M48 20h1M30 21h1M32 21h1M47 21h1M49 21h1M31 22h1M30 23h1M50 23h1M11 26h2M35 26h1M10 27h3M34 27h1M10 28h3M33 28h4M41 28h2M10 29h2M63 29h2M62 30h3M62 31h2M16 34h1M16 35h2M17 36h3M37 36h2M18 37h5M29 37h1M38 37h3M58 37h1M20 38h5M28 38h3M37 38h5M56 38h2M22 39h7M40 39h3M52 39h4M42 40h12M43 41h6" />
<path stroke="#63529c" d="M15 9h4M11 10h7M9 11h8M8 12h8M63 12h4M8 13h7M64 13h5M7 14h8M65 14h6M5 15h10M65 15h8M5 16h10M66 16h7M5 17h10M19 17h1M66 17h7M5 18h10M19 18h1M32 18h1M60 18h1M66 18h8M5 19h11M19 19h2M31 19h1M60 19h1M66 19h8M5 20h12M19 20h2M32 20h1M59 20h1M66 20h8M6 21h15M31 21h1M33 21h1M48 21h1M59 21h1M65 21h9M6 22h15M30 22h1M32 22h3M47 22h3M59 22h1M65 22h9M6 23h13M20 23h1M31 23h4M46 23h4M59 23h2M64 23h10M7 24h4M15 24h4M30 24h6M46 24h5M59 24h15M7 25h3M12 25h3M17 25h2M30 25h5M45 25h6M59 25h1M61 25h13M8 26h1M13 26h3M18 26h1M30 26h3M45 26h6M60 26h13M13 27h4M30 27h2M33 27h1M45 27h6M60 27h13M9 28h1M13 28h2M16 28h2M30 28h3M37 28h4M44 28h7M59 28h4M66 28h7M9 29h1M12 29h3M16 29h2M30 29h13M44 29h6M59 29h2M65 29h1M67 29h5M9 30h6M16 30h2M29 30h21M59 30h1M65 30h2M68 30h4M9 31h6M17 31h1M28 31h22M61 31h1M64 31h3M68 31h3M9 32h3M13 32h3M28 32h22M60 32h7M68 32h2M10 33h2M13 33h3M27 33h24M60 33h7M10 34h1M13 34h3M27 34h24M60 34h6M13 35h3M27 35h4M39 35h13M60 35h6M12 36h5M41 36h11M60 36h2M63 36h2M12 37h6M43 37h9M59 37h3M12 38h8M25 38h1M27 38h1M31 38h6M44 38h7M58 38h3M11 39h11M29 39h11M56 39h5M11 40h31M54 40h7M11 41h32M49 41h12M11 42h50M10 43h51M10 44h52M10 45h52M10 46h52M10 47h52M10 48h52M11 49h51M11 50h51M11 51h50M12 52h15M36 52h25M13 53h12M40 53h20M13 54h10M30 54h2M42 54h18M14 55h8M28 55h4M43 55h16M14 56h6M28 56h3M44 56h14M15 57h4M27 57h3M44 57h14M15 58h3M27 58h3M44 58h13M16 59h2M45 59h10M16 60h1M28 60h3M45 60h8M26 61h5M45 61h5M26 62h3M46 62h3M25 63h3M46 63h1M49 63h1M25 64h3M49 64h2M49 65h2M26 66h3M49 66h2M24 67h5M48 67h2M22 69h6M20 70h10M19 71h12M18 72h14M17 73h12M31 73h2M17 74h11M32 74h1M17 75h10M32 75h2M18 76h7M33 76h1M33 77h1" />
<path stroke="#101010" d="M6 10h1M18 10h3M6 11h1M17 11h1M60 11h1M5 12h1M16 12h1M29 12h1M61 12h2M71 12h1M5 13h1M16 13h1M30 13h1M63 13h1M72 13h1M5 14h1M15 14h1M31 14h1M63 14h1M72 14h1M4 15h1M15 15h1M31 15h1M50 15h1M64 15h1M73 15h1M4 16h1M15 16h1M18 16h2M32 16h1M50 16h1M64 16h1M73 16h1M4 17h1M15 17h1M18 17h1M20 17h1M32 17h1M60 17h2M65 17h1M73 17h1M4 18h1M15 18h1M18 18h1M20 18h1M33 18h1M51 18h1M59 18h1M61 18h1M65 18h1M74 18h1M4 19h1M16 19h2M21 19h1M33 19h1M51 19h1M59 19h1M61 19h1M65 19h1M74 19h1M4 20h1M17 20h2M21 20h1M34 20h1M46 20h1M51 20h1M58 20h1M62 20h1M65 20h1M74 20h1M5 21h1M21 21h1M34 21h1M46 21h1M51 21h1M58 21h1M62 21h3M74 21h1M5 22h1M21 22h1M35 22h1M45 22h1M51 22h1M58 22h1M74 22h1M5 23h1M19 23h1M21 23h1M29 23h1M35 23h1M45 23h1M51 23h1M58 23h1M74 23h1M5 24h2M11 24h4M19 24h2M29 24h1M36 24h1M45 24h1M51 24h1M58 24h1M74 24h1M6 25h1M10 25h2M15 25h2M19 25h1M29 25h1M35 25h7M44 25h1M51 25h1M58 25h1M74 25h1M6 26h2M9 26h1M17 26h1M19 26h1M29 26h1M33 26h2M42 26h3M51 26h1M58 26h2M73 26h1M7 27h3M17 27h2M29 27h1M43 27h1M51 27h1M59 27h1M73 27h1M8 28h1M18 28h1M29 28h1M43 28h1M51 28h1M58 28h1M63 28h3M73 28h1M8 29h1M15 29h1M18 29h1M28 29h2M50 29h2M58 29h1M61 29h2M66 29h1M72 29h1M8 30h1M15 30h1M18 30h1M27 30h2M50 30h1M58 30h1M60 30h1M67 30h1M72 30h1M8 31h1M15 31h2M18 31h1M27 31h1M50 31h1M58 31h1M60 31h1M67 31h1M71 31h1M8 32h1M16 32h1M26 32h2M50 32h2M59 32h1M67 32h1M70 32h1M9 33h1M12 33h1M16 33h2M26 33h1M51 33h1M59 33h1M67 33h3M9 34h1M12 34h1M17 34h2M26 34h1M51 34h2M59 34h1M66 34h2M10 35h3M19 35h2M26 35h1M31 35h8M52 35h1M58 35h2M66 35h1M10 36h2M21 36h2M26 36h1M28 36h2M39 36h2M52 36h1M58 36h1M65 36h1M11 37h1M23 37h5M41 37h2M52 37h1M56 37h2M62 37h3M11 38h1M43 38h1M52 38h3M62 38h2M10 39h1M44 39h8M61 39h2M10 40h1M61 40h1M10 41h1M61 41h1M10 42h1M61 42h1M9 43h1M61 43h1M9 44h1M62 44h1M9 45h1M62 45h1M9 46h1M62 46h1M9 47h1M62 47h1M9 48h1M62 48h1M9 49h1M62 49h1M9 50h2M62 50h1M8 51h1M10 51h1M61 51h2M7 52h1M11 52h1M61 52h1M7 53h1M11 53h1M25 53h2M30 53h5M38 53h2M60 53h2M10 54h3M23 54h2M28 54h2M34 54h3M40 54h2M60 54h2M6 55h4M13 55h1M22 55h2M25 55h3M36 55h2M42 55h1M59 55h1M13 56h1M21 56h1M26 56h1M37 56h1M40 56h2M43 56h1M59 56h1M62 56h1M14 57h1M19 57h2M26 57h1M37 57h2M43 57h1M58 57h1M14 58h1M19 58h2M26 58h1M38 58h1M43 58h1M57 58h2M63 58h1M13 59h1M15 59h1M18 59h1M20 59h1M26 59h1M28 59h5M38 59h1M44 59h1M55 59h2M59 59h2M63 59h1M13 60h1M15 60h1M18 60h1M26 60h2M33 60h2M38 60h1M44 60h1M53 60h2M61 60h3M13 61h1M19 61h1M25 61h1M35 61h1M37 61h1M44 61h1M51 61h2M13 62h1M20 62h1M24 62h1M35 62h3M44 62h2M49 62h2M13 63h1M20 63h1M24 63h1M36 63h1M44 63h2M48 63h1M50 63h1M14 64h1M19 64h1M24 64h1M36 64h1M43 64h1M45 64h1M51 64h1M14 65h2M18 65h2M24 65h7M36 65h1M42 65h1M51 65h1M13 66h1M15 66h3M23 66h3M31 66h2M36 66h1M42 66h1M51 66h1M13 67h1M17 67h1M23 67h1M33 67h1M35 67h1M42 67h1M51 67h1M17 68h1M22 68h6M33 68h3M42 68h2M50 68h1M16 69h1M20 69h2M28 69h2M34 69h1M43 69h1M48 69h2M14 70h1M16 70h1M18 70h2M30 70h2M34 70h1M44 70h3M49 70h1M15 71h1M17 71h1M32 71h1M34 71h1M44 71h1M49 71h1M17 72h1M32 72h3M48 72h1M16 73h1M33 73h1M45 73h1M48 73h1M16 74h1M33 74h1M45 74h1M47 74h1M15 75h1M34 75h1M45 75h2M15 76h1M34 76h1M15 77h1M34 77h1M15 78h1M34 78h1M15 79h1M34 79h1" />
<path stroke="#adbdc5" d="M9 51h1M9 52h2M8 53h3M7 54h3M60 55h1M60 56h2M59 57h3M60 58h3M62 59h1M14 66h1M14 67h3M14 68h3M15 69h1M15 70h1M48 70h1M45 71h4M46 72h2M46 73h2M46 74h1" />
<path stroke="#4a5a73" d="M8 52h1M6 54h1M61 55h1M62 57h1M59 58h1M61 59h1M13 68h1M14 69h1M47 70h1M45 72h1" />
</svg>