<svg xmlns="http://www.w3.org/2000/svg" viewBox="0 -0.5 80 80" shape-rendering="crispEdges">
<metadata>Made with Pixels to Svg https://codepen.io/shshaw/pen/XbxvNj</metadata>
<path stroke="#4a3a10" d="M35 4h3M55 4h4M33 5h2M53 5h2M32 6h1M52 6h1M31 7h1M42 7h5M51 7h1M31 8h1M38 8h3M47 8h1M49 8h1M36 9h2M33 10h1M32 11h1M29 13h1M29 14h1M28 15h1M28 16h1M59 16h1M27 17h1M27 18h1M60 18h1M26 19h1M26 20h1M25 21h1M25 22h1M24 23h1M62 23h1M24 24h1M61 24h1M23 25h1M23 26h1M64 26h1M23 27h1M61 27h1M64 27h1M60 28h1M64 28h1M64 29h1M22 30h1M60 30h1M63 30h2M59 31h1M63 31h1M63 32h1M20 33h2M58 33h1M62 33h2M62 34h1M61 35h2M19 36h2M60 36h2M18 37h1M20 37h1M52 37h2M17 38h1M19 38h1M55 38h1M16 39h1M19 39h1M56 41h1M17 42h1M57 42h1M16 43h1M38 43h1M58 43h1M16 44h1M37 44h1M41 44h1M54 44h1M59 44h1M37 45h1M41 45h1M55 45h1M60 45h1M10 46h1M15 46h1M36 46h1M40 46h1M46 46h1M51 46h1M56 46h1M61 46h1M36 47h1M46 47h1M51 47h1M57 47h1M62 47h1M9 48h1M14 48h1M46 48h1M57 48h1M63 48h1M9 49h1M39 49h1M46 49h1M50 49h1M63 49h1M8 50h1M12 50h1M35 50h1M45 50h1M50 50h1M52 50h2M64 50h1M13 51h1M43 51h1M45 51h1M50 51h1M64 51h1M34 52h1M38 52h1M54 52h1M64 52h1M42 53h1M60 53h1M11 54h2M50 57h1M10 58h2M46 58h1M62 58h1M11 59h1M63 60h1M43 61h1M9 63h2M9 64h2M44 64h1M45 67h1M46 69h1M9 70h1M46 71h2" />
<path stroke="#b59431" d="M35 5h3M55 5h4M33 6h6M53 6h7M32 7h1M52 7h9M41 8h6M51 8h3M60 8h1M38 9h11M50 9h2M35 10h16M33 11h16M32 12h10M31 13h8M30 14h8M29 15h8M29 16h6M28 17h7M28 18h6M27 19h6M27 20h6M26 21h6M26 22h5M25 23h6M25 24h5M24 25h5M24 26h5M24 27h4M23 28h5M23 29h4M23 30h4M22 31h4M23 32h1M25 32h1M22 33h1M24 33h1M18 38h1M17 39h2M16 40h2M15 41h3M14 42h3M13 43h3M12 44h4M12 45h3M11 46h2M59 46h2M11 47h1M13 47h1M59 47h3M10 48h1M12 48h1M59 48h3M11 49h1M59 49h4M10 50h1M60 50h3M11 51h1M58 51h1M61 51h3M58 52h1M61 52h3M58 53h1M62 53h3M57 54h3M62 54h3M57 55h3M63 55h2M58 56h1M63 56h1M60 58h2M59 59h4M59 60h4M58 61h6M59 62h6M59 63h6M60 64h6M61 65h5M61 66h6M62 67h5M63 68h5M63 69h5M65 70h4M67 71h1M66 72h1" />
<path stroke="#101010" d="M38 5h1M59 5h1M39 6h1M60 6h1M40 7h2M61 7h1M48 8h1M50 8h1M61 8h1M31 9h1M49 9h1M60 9h2M31 10h2M60 10h1M31 11h1M59 11h2M30 12h1M59 12h1M58 13h2M58 14h2M59 15h1M60 16h1M60 17h1M61 18h1M61 19h1M61 20h1M62 21h1M62 22h1M63 23h1M63 24h2M61 25h1M64 25h1M61 26h1M22 28h1M22 29h1M60 29h1M21 31h1M21 32h1M59 32h1M20 34h1M58 34h1M20 35h1M57 35h1M56 36h1M54 37h2M58 37h2M56 38h2M57 39h1M58 40h1M58 41h1M59 42h1M59 43h1M15 45h1M14 47h1M40 47h1M45 47h1M35 48h1M39 48h1M45 48h1M51 48h2M13 49h1M35 49h1M44 49h2M51 49h2M58 49h1M13 50h1M34 50h1M38 50h1M44 50h1M58 50h1M8 51h1M12 51h1M34 51h1M38 51h1M44 51h1M53 51h1M59 51h1M8 52h1M12 52h1M33 52h1M43 52h1M45 52h1M50 52h1M59 52h2M65 52h1M9 53h1M12 53h1M33 53h1M37 53h1M43 53h1M45 53h1M50 53h1M54 53h1M59 53h1M61 53h1M65 53h1M10 54h1M33 54h1M37 54h1M42 54h1M45 54h1M50 54h1M54 54h1M60 54h2M65 54h1M11 55h1M33 55h1M37 55h1M41 55h2M45 55h1M50 55h1M55 55h1M60 55h1M62 55h1M65 55h1M11 56h1M33 56h1M36 56h1M41 56h1M45 56h1M50 56h1M55 56h1M60 56h1M62 56h1M65 56h1M11 57h1M34 57h1M36 57h1M41 57h1M45 57h1M55 57h1M59 57h2M62 57h1M64 57h1M35 58h2M40 58h1M42 58h1M51 58h1M56 58h3M63 58h1M10 59h1M36 59h1M40 59h1M42 59h1M46 59h1M51 59h1M63 59h1M10 60h1M36 60h1M40 60h1M42 60h1M46 60h1M51 60h1M64 60h1M10 61h1M36 61h1M40 61h1M42 61h1M47 61h5M64 61h1M10 62h1M37 62h4M43 62h1M65 62h1M43 63h1M65 63h1M43 64h1M66 64h1M9 65h1M44 65h1M66 65h1M9 66h1M44 66h1M67 66h1M9 67h1M44 67h1M67 67h1M9 68h1M45 68h1M68 68h1M8 69h2M45 69h1M68 69h1M8 70h1M46 70h1M69 70h1M8 71h1M69 71h1M8 72h1M47 72h1M70 72h1M8 73h1M48 73h1M70 73h1M8 74h1M49 74h1M71 74h1M8 75h1M50 75h1M71 75h1M8 76h1M51 76h1M71 76h1" />
<path stroke="#9c7b21" d="M33 7h1M39 7h1M54 8h1M59 8h1M34 10h1M51 10h1M49 11h1M42 12h1M39 13h1M35 16h1M33 19h1M31 22h1M29 25h1M28 27h1M27 29h1M26 31h1M22 32h1M24 32h1M21 34h1M23 34h1M22 35h1M24 35h1M23 36h1M19 37h1M18 40h1M59 45h1M13 46h1M12 47h1M11 48h1M59 50h1M63 50h1M57 53h1M57 56h1M61 57h1M59 58h1M58 60h1M58 62h1M60 65h1M62 68h1M64 70h1M66 71h1M68 72h1M67 73h1M69 73h1M68 74h1" />
<path stroke="#7b6319" d="M34 7h5M32 8h6M55 8h4M32 9h4M52 9h8M52 10h8M50 11h9M31 12h1M43 12h16M30 13h1M40 13h18M38 14h20M37 15h22M36 16h23M35 17h25M34 18h26M34 19h27M33 20h28M32 21h30M32 22h30M31 23h31M30 24h31M30 25h31M29 26h32M29 27h32M28 28h32M28 29h32M27 30h33M27 31h32M26 32h33M23 33h1M25 33h33M22 34h1M24 34h34M21 35h1M23 35h1M25 35h32M21 36h2M24 36h32M21 37h31M20 38h35M20 39h37M15 40h1M19 40h39M14 41h1M18 41h38M57 41h1M13 42h1M18 42h39M58 42h1M12 43h1M17 43h21M39 43h19M11 44h1M17 44h20M38 44h3M42 44h12M55 44h4M11 45h1M16 45h21M38 45h3M42 45h13M56 45h3M14 46h1M16 46h20M37 46h3M41 46h5M47 46h4M52 46h4M57 46h2M10 47h1M15 47h21M37 47h3M41 47h4M47 47h4M52 47h5M58 47h1M13 48h1M15 48h20M36 48h3M40 48h5M47 48h4M53 48h4M58 48h1M62 48h1M10 49h1M12 49h1M14 49h21M36 49h3M40 49h4M47 49h3M53 49h5M9 50h1M11 50h1M14 50h20M36 50h2M39 50h5M46 50h4M51 50h1M54 50h4M9 51h2M14 51h20M35 51h3M39 51h4M46 51h4M51 51h2M54 51h4M60 51h1M9 52h3M13 52h20M35 52h3M39 52h4M44 52h1M46 52h4M51 52h3M55 52h3M10 53h2M13 53h20M34 53h3M38 53h4M44 53h1M46 53h4M51 53h3M55 53h2M13 54h20M34 54h3M38 54h4M43 54h2M46 54h4M51 54h3M55 54h2M12 55h21M34 55h3M38 55h3M43 55h2M46 55h4M51 55h4M56 55h1M61 55h1M12 56h21M34 56h2M37 56h4M42 56h3M46 56h4M51 56h4M56 56h1M59 56h1M61 56h1M64 56h1M12 57h22M35 57h1M37 57h4M42 57h3M46 57h4M51 57h4M56 57h3M63 57h1M12 58h23M37 58h3M41 58h1M43 58h3M47 58h4M52 58h4M12 59h24M37 59h3M41 59h1M43 59h3M47 59h4M52 59h7M11 60h25M37 60h3M41 60h1M43 60h3M47 60h4M52 60h6M11 61h25M37 61h3M41 61h1M44 61h3M52 61h6M11 62h26M41 62h2M44 62h14M11 63h32M44 63h15M11 64h32M45 64h15M10 65h34M45 65h15M10 66h34M45 66h16M10 67h34M46 67h16M10 68h35M46 68h16M10 69h35M47 69h16M10 70h36M47 70h17M9 71h37M48 71h18M68 71h1M9 72h38M48 72h18M67 72h1M69 72h1M9 73h39M49 73h18M68 73h1M9 74h40M50 74h18M69 74h2M9 75h41M51 75h20M9 76h42M52 76h19" />
<path stroke="#d6ad52" d="M62 24h1M62 25h2M62 26h2M62 27h2M61 28h3M61 29h3M61 30h2M60 31h3M60 32h3M59 33h3M59 34h3M58 35h3M57 36h3M56 37h2" />
</svg>