<svg xmlns="http://www.w3.org/2000/svg" viewBox="0 -0.5 80 80" shape-rendering="crispEdges">
<metadata>Made with Pixels to Svg https://codepen.io/shshaw/pen/XbxvNj</metadata>
<path stroke="#633100" d="M34 7h4M33 8h1M38 8h2M50 8h4M32 9h1M48 9h2M54 9h2M33 11h1M40 13h1M28 14h1M35 14h1M38 14h1M48 14h1M55 14h2M28 15h1M39 15h1M48 15h1M51 15h1M26 16h1M56 16h1M25 17h1M56 17h1M24 18h1M49 18h1M52 18h1M57 18h1M23 19h1M27 19h1M52 19h1M57 19h1M22 20h1M27 20h1M52 20h1M57 20h1M21 21h1M52 21h1M58 21h1M20 22h1M52 22h1M58 22h1M19 23h2M52 23h1M58 23h1M19 24h1M22 24h2M46 24h1M52 24h1M59 24h1M18 25h1M38 25h2M46 25h1M52 25h1M59 25h1M17 26h1M35 26h3M59 26h1M17 27h1M34 27h2M60 27h1M16 28h1M33 28h2M53 28h1M60 28h1M15 29h1M18 29h1M60 29h1M15 30h1M32 30h2M54 30h1M61 30h1M14 31h1M55 31h1M61 31h1M13 32h1M16 32h1M31 32h2M55 32h1M61 32h1M13 33h1M56 33h1M61 33h1M12 34h1M62 34h1M12 35h1M62 35h1M11 36h1M57 36h1M62 36h1M11 37h1M62 37h1M10 38h1M62 38h1M10 39h1M63 39h1M9 40h1M54 40h1M63 40h1M9 41h1M63 41h1M8 42h1M63 42h1M8 43h1M63 43h1M8 44h1M36 44h1M55 44h1M64 44h1M7 45h1M46 45h1M7 46h1M45 46h1M53 46h1M7 47h1M46 47h1M51 47h1M6 48h1M23 48h3M6 49h1M22 49h1M6 50h1M21 50h1M28 52h1M38 52h1M20 53h1M29 53h1M37 53h1M20 54h1M30 54h1M19 55h1M24 55h1M31 55h2M19 56h1M33 56h2M18 57h1M18 58h1M23 58h1M17 59h1M17 60h1M16 61h1M22 61h1M16 62h1M15 63h1M21 64h1M21 65h1M65 65h1M14 66h1M20 66h1M20 67h1M13 69h1M19 69h1M18 71h1M64 71h1M12 73h1M31 73h1M17 74h1M31 74h1M16 75h1M31 75h1M16 76h1M31 76h1M63 76h1M15 77h1M31 77h1M15 78h1M32 78h1M14 79h1M32 79h1" />
<path stroke="#de5a52" d="M34 8h4M33 9h6M51 9h3M33 10h7M50 10h5M34 11h6M50 11h5M33 12h7M50 12h5M31 13h9M51 13h3M30 14h4M36 14h2M29 15h3M27 16h4M26 17h4M25 18h4M24 19h3M23 20h3M22 21h3M21 22h3M21 23h2M20 24h2M19 25h3M40 25h6M18 26h3M41 26h4M18 27h2M17 28h2M16 29h2M16 30h2M53 30h1M53 31h2M53 32h2M54 33h1M23 49h3M22 50h5M22 51h5M23 52h5M65 52h3M26 53h3M65 53h5M27 54h3M65 54h5M28 55h2M61 55h1M65 55h6M59 56h3M65 56h5M56 57h6M66 57h3M55 58h5M56 59h2M51 64h1M50 65h2M50 66h3M51 67h2M51 68h3M52 69h2M52 70h2M52 71h1" />
<path stroke="#101010" d="M39 9h1M32 10h1M40 10h1M48 10h1M55 10h1M32 11h1M40 11h1M47 11h1M56 11h1M31 12h2M40 12h1M47 12h1M56 12h1M30 13h1M47 13h1M56 13h1M29 14h1M34 14h1M39 14h1M27 15h1M32 15h3M49 15h1M55 15h1M31 16h2M35 16h1M39 16h1M49 16h1M51 16h2M30 17h1M35 17h1M39 17h1M49 17h1M52 17h1M29 18h1M35 18h1M39 18h2M48 18h1M53 18h1M28 19h1M35 19h2M40 19h1M48 19h1M53 19h1M26 20h1M36 20h1M40 20h1M48 20h1M54 20h1M25 21h1M36 21h1M40 21h1M47 21h1M54 21h1M24 22h1M36 22h1M40 22h2M47 22h1M54 22h1M23 23h1M36 23h1M41 23h1M46 23h2M55 23h1M36 24h1M41 24h5M55 24h1M22 25h1M36 25h1M55 25h1M21 26h1M52 26h1M56 26h1M20 27h1M52 27h1M56 27h1M19 28h1M52 28h1M56 28h1M19 29h1M33 29h1M52 29h1M57 29h1M18 30h1M57 30h1M17 31h1M32 31h1M57 31h1M17 32h1M58 32h1M16 33h1M31 33h1M55 33h1M58 33h1M15 34h1M31 34h1M54 34h1M56 34h1M58 34h1M15 35h1M31 35h1M54 35h1M56 35h1M59 35h1M14 36h1M31 36h1M54 36h1M56 36h1M59 36h1M14 37h1M31 37h1M54 37h1M56 37h2M59 37h1M13 38h1M31 38h2M54 38h1M57 38h1M59 38h1M13 39h1M32 39h1M54 39h1M57 39h1M60 39h1M12 40h1M32 40h2M55 40h1M57 40h1M60 40h1M12 41h1M33 41h1M55 41h1M57 41h1M60 41h1M11 42h2M33 42h2M56 42h1M60 42h1M11 43h1M34 43h1M56 43h1M60 43h1M11 44h1M35 44h1M56 44h1M61 44h1M10 45h1M36 45h2M55 45h1M61 45h1M64 45h1M10 46h1M37 46h2M54 46h1M61 46h1M64 46h1M9 47h1M38 47h1M45 47h1M52 47h2M61 47h1M64 47h1M9 48h1M38 48h1M44 48h1M47 48h5M53 48h1M61 48h1M64 48h1M8 49h1M38 49h1M44 49h1M54 49h1M64 49h1M8 50h1M38 50h1M44 50h1M54 50h1M62 50h1M64 50h1M6 51h2M38 51h1M44 51h1M55 51h1M62 51h1M64 51h5M44 52h1M55 52h1M62 52h1M64 52h1M68 52h3M44 53h1M56 53h1M62 53h1M64 53h1M70 53h1M37 54h1M45 54h1M60 54h3M64 54h1M71 54h1M36 55h1M45 55h1M58 55h2M62 55h1M64 55h1M71 55h1M35 56h1M46 56h1M55 56h3M62 56h1M64 56h1M71 56h1M47 57h1M52 57h3M62 57h1M64 57h2M70 57h2M35 58h1M48 58h4M60 58h3M65 58h2M70 58h1M35 59h1M38 59h1M58 59h2M62 59h2M66 59h1M70 59h1M35 60h1M38 60h1M56 60h2M66 60h1M70 60h1M35 61h1M53 61h3M65 61h1M70 61h1M34 62h1M37 62h1M51 62h2M65 62h1M70 62h1M34 63h1M37 63h1M51 63h1M65 63h1M70 63h1M34 64h1M37 64h1M52 64h1M65 64h1M70 64h1M33 65h1M37 65h1M52 65h2M64 65h1M70 65h1M33 66h1M37 66h1M53 66h1M64 66h1M70 66h1M33 67h1M37 67h1M53 67h2M64 67h1M70 67h1M32 68h1M37 68h1M54 68h1M64 68h1M70 68h1M32 69h1M37 69h1M54 69h2M64 69h1M70 69h1M32 70h1M38 70h1M55 70h1M64 70h1M70 70h1M31 71h1M38 71h1M55 71h2M63 71h1M69 71h1M31 72h1M38 72h1M56 72h1M63 72h1M69 72h1M30 73h1M38 73h1M56 73h1M63 73h1M69 73h1M30 74h1M38 74h1M56 74h2M63 74h1M69 74h1M29 75h1M38 75h2M57 75h1M63 75h1M68 75h1M29 76h1M39 76h1M57 76h1M62 76h1M68 76h1M28 77h1M39 77h1M57 77h1M62 77h1M68 77h1M28 78h1M39 78h2M57 78h1M62 78h1M67 78h1M27 79h1M40 79h1M57 79h1M62 79h1M67 79h1" />
<path stroke="#9c4231" d="M50 9h1M49 10h1M48 11h2M55 11h1M48 12h2M55 12h1M48 13h3M54 13h2M49 14h6M35 15h4M50 15h1M52 15h3M36 16h3M50 16h1M53 16h3M36 17h3M50 17h2M53 17h3M36 18h3M50 18h2M54 18h3M37 19h3M49 19h3M54 19h3M37 20h3M49 20h3M55 20h2M37 21h3M48 21h4M55 21h3M37 22h3M48 22h4M55 22h3M37 23h4M48 23h4M56 23h2M37 24h4M47 24h5M56 24h3M37 25h1M47 25h5M56 25h3M38 26h3M45 26h7M57 26h2M36 27h16M57 27h3M35 28h17M57 28h3M34 29h18M53 29h1M58 29h2M34 30h19M58 30h3M15 31h2M33 31h20M58 31h3M14 32h2M33 32h20M59 32h2M14 33h2M32 33h22M59 33h2M13 34h2M32 34h22M59 34h3M13 35h2M32 35h22M60 35h2M12 36h2M32 36h22M60 36h2M12 37h2M32 37h22M60 37h2M11 38h2M33 38h21M60 38h2M11 39h2M33 39h21M61 39h2M10 40h2M34 40h20M61 40h2M10 41h2M34 41h21M56 41h1M61 41h2M9 42h2M35 42h21M61 42h2M9 43h2M35 43h21M61 43h2M9 44h2M37 44h18M62 44h2M8 45h2M38 45h8M47 45h8M62 45h2M8 46h2M39 46h6M46 46h7M62 46h2M8 47h1M39 47h6M47 47h4M62 47h2M7 48h2M39 48h5M62 48h2M7 49h1M39 49h5M62 49h2M7 50h1M39 50h5M63 50h1M39 51h5M63 51h1M22 52h1M39 52h5M63 52h1M22 53h4M38 53h6M63 53h1M21 54h3M38 54h7M63 54h1M20 55h4M30 55h1M37 55h8M60 55h1M63 55h1M20 56h4M29 56h4M36 56h10M58 56h1M63 56h1M70 56h1M19 57h5M30 57h2M35 57h4M42 57h5M55 57h1M63 57h1M69 57h1M19 58h4M36 58h2M44 58h4M52 58h3M63 58h1M67 58h3M18 59h5M36 59h2M45 59h11M67 59h3M18 60h5M36 60h2M46 60h10M67 60h3M17 61h5M36 61h1M47 61h6M66 61h4M17 62h5M35 62h2M48 62h3M66 62h4M16 63h6M35 63h2M49 63h2M66 63h4M16 64h5M35 64h2M49 64h2M66 64h4M16 65h5M34 65h3M66 65h4M15 66h5M34 66h3M65 66h5M15 67h5M34 67h3M65 67h5M15 68h5M33 68h4M65 68h5M14 69h5M33 69h4M65 69h5M14 70h5M33 70h4M65 70h5M14 71h4M32 71h6M65 71h4M14 72h4M32 72h6M64 72h5M13 73h5M32 73h6M64 73h5M13 74h4M32 74h6M64 74h5M13 75h3M32 75h6M64 75h4M13 76h3M32 76h7M64 76h4M13 77h2M32 77h7M63 77h5M13 78h2M33 78h6M63 78h4M13 79h1M33 79h7M63 79h4" />
<path stroke="#ffffff" d="M55 34h1" />
<path stroke="#524a42" d="M55 35h1M55 36h1M55 37h1M55 38h2M55 39h2M56 40h1M57 44h1M57 45h1M36 46h1M55 46h1M36 47h2M54 47h3M60 47h1M35 48h3M46 48h1M54 48h3M32 49h2M35 49h3M55 49h3M59 49h2M31 50h2M34 50h4M55 50h7M31 51h7M56 51h6M30 52h8M56 52h6M30 53h7M57 53h5M31 54h6M58 54h2M70 54h1M33 55h3M32 58h3M39 58h3M30 59h5M39 59h5M28 60h7M39 60h6M27 61h8M38 61h8M26 62h8M38 62h9M25 63h9M38 63h10M24 64h10M38 64h10M24 65h9M38 65h11M23 66h10M38 66h11M22 67h11M38 67h12M21 68h11M38 68h12M21 69h11M38 69h13M20 70h12M39 70h12M20 71h11M39 71h12M19 72h12M39 72h13M19 73h11M39 73h13M19 74h11M39 74h13M18 75h11M40 75h12M18 76h11M40 76h13M17 77h11M40 77h13M17 78h11M41 78h12M17 79h10M41 79h12" />
<path stroke="#7b7363" d="M56 45h1M56 46h2M57 47h2M57 48h2M60 48h1M54 70h1M53 71h2M53 72h3M53 73h3M53 74h3M53 75h4M54 76h3M54 77h3M54 78h3M54 79h3" />
<path stroke="#31293a" d="M58 46h1M35 47h1M59 47h1M32 48h3M59 48h1M26 49h1M31 49h1M34 49h1M58 49h1M61 49h1M27 50h1M30 50h1M33 50h1M21 51h1M27 51h1M30 51h1M21 52h1M29 52h1M21 53h1M24 54h3M57 54h1M27 55h1M24 56h1M28 56h1M24 57h1M28 57h2M32 57h3M39 57h3M29 58h3M38 58h1M42 58h2M23 59h1M28 59h2M44 59h1M23 60h1M27 60h1M45 60h1M26 61h1M37 61h1M46 61h1M22 62h1M25 62h1M47 62h1M22 63h1M24 63h1M48 63h1M15 64h1M23 64h1M48 64h1M15 65h1M23 65h1M49 65h1M22 66h1M49 66h1M14 67h1M21 67h1M50 67h1M14 68h1M20 68h1M50 68h1M20 69h1M51 69h1M13 70h1M19 70h1M37 70h1M51 70h1M13 71h1M19 71h1M51 71h1M13 72h1M18 72h1M52 72h1M18 73h1M52 73h1M12 74h1M18 74h1M52 74h1M12 75h1M17 75h1M52 75h1M12 76h1M17 76h1M53 76h1M12 77h1M16 77h1M53 77h1M12 78h1M16 78h1M53 78h1M12 79h1M16 79h1M53 79h1" />
</svg>