<svg xmlns="http://www.w3.org/2000/svg" viewBox="0 -0.5 80 80" shape-rendering="crispEdges">
<metadata>Made with Pixels to Svg https://codepen.io/shshaw/pen/XbxvNj</metadata>
<path stroke="#842152" d="M30 4h5M28 5h2M35 5h2M26 6h2M37 6h1M25 7h1M29 7h1M33 7h1M38 7h2M24 8h1M27 8h2M34 8h2M40 8h1M23 9h2M26 9h1M36 9h1M41 9h1M22 10h1M24 10h3M42 10h1M21 11h1M27 11h2M37 11h2M43 11h1M20 12h1M29 12h2M40 12h2M44 12h1M19 13h1M30 13h2M38 13h2M42 13h1M45 13h1M32 14h1M43 14h1M46 14h1M33 15h2M44 15h1M47 15h1M34 16h2M45 16h1M36 17h1M46 17h1M18 18h1M37 18h1M47 18h1M18 19h3M38 19h1M48 19h1M21 20h3M23 21h3M41 21h3M26 22h2M43 22h2M28 23h2M30 24h2M38 24h2M32 25h2M34 26h2M36 27h2M17 28h1M20 29h1M23 30h1M41 30h1M26 31h1M43 31h1M33 32h1M35 32h1M30 33h1M32 40h2M30 41h2M46 41h1M28 42h2M33 42h1M27 43h1M31 43h2M48 43h2M26 44h1M34 44h1M43 44h1M48 44h1M25 45h1M33 45h1M41 45h1M26 46h2M40 46h1M45 46h1M39 47h1M44 47h1M38 48h1M37 49h1M36 50h1M36 51h1M47 52h1M51 52h1M39 53h1M47 53h1M52 53h1M39 54h1M48 54h1M40 55h3M48 55h1M14 63h1M24 65h4M27 66h3M11 67h7M30 67h1M7 68h5M31 68h1M4 69h4M20 69h1M2 70h3M20 70h1M23 70h1M34 70h1M1 71h1M26 71h1" />
<path stroke="#f75273" d="M30 5h5M28 6h9M26 7h3M34 7h4M25 8h2M36 8h3M25 9h1M37 9h4M23 10h1M38 10h4M22 11h2M39 11h4M22 12h1M39 12h1M42 12h2M21 13h1M40 13h2M43 13h2M20 14h2M40 14h2M44 14h2M19 15h2M40 15h2M45 15h2M19 16h1M40 16h2M46 16h2M18 17h2M40 17h2M47 17h1M40 18h2M48 18h1M17 19h1M40 19h2M17 20h1M40 20h2M16 21h2M16 22h1M40 22h2M16 23h1M40 23h2M15 24h2M40 24h2M15 25h1M40 25h1M39 26h2M39 27h2M39 28h2M60 36h1M60 37h1M61 39h1M30 42h1M28 43h2M27 44h3M44 44h1M26 45h2M43 45h3M41 46h4M40 47h4M45 47h1M47 47h1M39 48h6M46 48h1M38 49h9M37 50h9M40 51h4M25 66h1M24 67h1M26 67h3M25 68h1M27 68h2M21 69h1M26 69h3M25 70h5M27 71h3" />
<path stroke="#101010" d="M30 7h3M37 10h1M38 12h1M19 14h1M39 14h1M18 15h1M39 15h1M17 16h2M39 16h1M17 17h1M39 17h1M16 18h2M39 18h1M16 19h1M39 19h1M15 20h2M39 20h1M15 21h1M40 21h1M15 22h1M39 22h1M14 23h2M39 23h1M45 23h1M14 24h1M45 24h1M14 25h1M38 25h1M14 26h1M38 26h1M46 26h1M59 26h1M14 27h2M33 27h1M38 27h1M46 27h1M60 27h1M15 28h2M33 28h1M38 28h1M47 28h1M17 29h3M38 29h1M47 29h1M61 29h1M20 30h3M34 30h1M39 30h2M47 30h1M62 30h1M23 31h3M35 31h1M41 31h2M62 31h1M26 32h4M34 32h1M57 32h1M63 32h1M31 33h1M43 33h1M58 33h1M63 33h1M29 34h1M44 34h1M57 34h1M60 34h1M63 34h1M29 35h2M45 35h1M61 35h1M63 35h1M30 36h3M47 36h1M61 36h1M63 36h1M32 37h2M57 37h1M61 37h1M64 37h1M34 38h1M61 38h1M64 38h1M34 39h1M44 39h1M34 40h1M45 40h2M34 41h2M47 41h2M35 42h1M45 42h1M49 42h1M35 43h2M44 43h1M50 43h1M36 44h1M42 44h1M47 44h1M50 44h1M61 44h1M34 45h1M36 45h2M46 45h1M63 45h1M32 46h2M37 46h2M49 46h1M62 46h1M28 47h4M38 47h1M49 47h1M61 47h1M48 48h1M60 48h1M48 49h1M58 49h2M47 50h1M54 50h4M78 50h1M37 51h2M45 51h2M49 51h5M78 51h2M39 52h6M79 52h1M77 53h1M79 53h1M38 54h1M52 54h1M78 54h2M37 55h1M50 55h2M72 55h3M78 55h1M36 56h2M43 56h6M71 56h1M75 56h2M78 56h1M33 57h4M49 57h3M70 57h2M77 57h2M31 58h3M35 58h1M49 58h1M51 58h3M68 58h3M30 59h2M34 59h1M49 59h1M53 59h2M66 59h3M34 60h1M49 60h1M55 60h2M64 60h3M33 61h1M50 61h1M56 61h3M62 61h3M33 62h1M50 62h1M58 62h5M32 63h1M50 63h1M14 64h1M32 64h1M50 64h1M15 65h1M31 65h1M50 65h1M16 66h1M31 66h1M50 66h1M50 67h1M18 68h1M32 68h1M50 68h1M19 69h1M33 69h1M50 69h1M21 70h2M35 70h1M49 70h1M23 71h3M36 71h1M49 71h1" />
<path stroke="#c52973" d="M29 8h5M39 8h1M27 9h9M27 10h10M24 11h3M29 11h8M21 12h1M23 12h6M31 12h7M20 13h1M22 13h8M32 13h6M22 14h10M33 14h6M42 14h1M21 15h12M35 15h4M42 15h2M20 16h14M36 16h3M42 16h3M20 17h16M37 17h2M42 17h4M19 18h18M38 18h1M42 18h5M21 19h17M42 19h6M18 20h3M24 20h15M42 20h7M18 21h5M26 21h14M44 21h6M17 22h9M28 22h11M42 22h1M47 22h3M17 23h11M30 23h9M42 23h3M49 23h1M17 24h13M32 24h6M42 24h3M16 25h16M34 25h4M39 25h1M41 25h5M15 26h19M36 26h2M41 26h5M16 27h17M41 27h5M18 28h15M41 28h6M21 29h13M39 29h8M24 30h10M42 30h4M27 31h8M30 32h3M60 35h1M62 38h1M32 41h2M31 42h2M34 42h1M46 42h3M30 43h1M33 43h2M45 43h3M30 44h4M45 44h2M49 44h1M28 45h5M42 45h1M47 45h3M28 46h4M46 46h3M46 47h1M48 47h1M45 48h1M47 48h1M47 49h1M46 50h1M39 51h1M44 51h1M37 52h2M45 52h2M48 52h3M38 53h1M40 53h7M48 53h4M40 54h8M49 54h3M43 55h5M49 55h1M15 63h6M20 64h5M29 67h1M12 68h6M29 68h2M8 69h11M29 69h4M5 70h15M30 70h4M2 71h21M30 71h6" />
<path stroke="#293152" d="M48 15h2M48 16h1M50 16h1M48 17h1M51 17h1M49 18h1M52 18h1M49 19h1M53 19h1M49 20h1M54 20h1M50 21h1M55 21h1M45 22h2M50 22h1M55 22h1M47 23h2M50 23h1M56 23h1M49 24h2M57 24h1M46 25h1M51 25h1M58 25h1M58 26h1M34 27h2M59 27h1M36 28h2M60 28h1M34 29h1M46 30h1M44 31h2M36 32h1M43 32h1M56 32h1M36 33h1M59 33h1M56 34h1M58 34h1M46 35h1M58 35h1M46 36h1M58 36h1M34 37h1M47 37h2M45 38h2M59 39h1M60 40h1M50 42h1M51 43h1M60 43h1M64 43h1M64 44h1M61 45h2M59 48h1M57 49h1M53 50h1M47 51h2M35 53h2M33 54h2M53 54h1M31 55h2M53 55h2M29 56h2M55 56h2M26 57h3M57 57h1M25 58h1M58 58h2M25 59h1M29 59h1M25 60h1M29 60h1M26 61h1M30 61h1M49 61h1M26 62h1M30 62h1M27 63h1M31 63h1M27 64h1M31 64h1M28 65h1M31 67h1M49 69h1" />
<path stroke="#7384bd" d="M49 16h1M50 17h1M50 18h2M50 19h3M51 20h3M51 21h4M51 22h4M51 23h5M51 24h6M52 25h6M54 26h4M55 27h4M56 28h4M57 29h1M59 29h1M58 30h1M59 31h1M59 32h2M60 33h1M61 34h1M62 35h1M62 36h1M63 37h1M63 38h1M64 40h1M65 41h1M36 58h2M36 59h9M35 60h10M35 61h10M34 62h11M34 63h10M34 64h10M35 65h8M37 66h4" />
<path stroke="#424a84" d="M49 17h1M50 20h1M46 23h1M46 24h3M47 25h4M47 26h7M47 27h8M34 28h2M48 28h8M35 29h3M48 29h9M58 29h1M35 30h4M48 30h9M59 30h1M36 31h5M46 31h12M37 32h6M44 32h12M58 32h1M32 33h4M37 33h6M44 33h14M30 34h14M45 34h11M31 35h14M47 35h11M33 36h13M48 36h10M35 37h12M49 37h8M58 37h1M62 37h1M35 38h10M47 38h12M35 39h9M45 39h14M64 39h1M35 40h10M47 40h13M63 40h1M65 40h1M36 41h10M49 41h16M36 42h9M51 42h15M37 43h7M52 43h8M61 43h3M37 44h5M51 44h9M62 44h2M38 45h3M50 45h11M39 46h1M50 46h12M50 47h11M49 48h10M49 49h8M48 50h5M37 53h1M35 54h3M33 55h4M38 55h2M52 55h1M31 56h5M38 56h5M49 56h6M61 56h2M31 57h2M37 57h12M52 57h5M60 57h1M66 57h2M30 58h1M40 58h9M54 58h4M65 58h3M35 59h1M45 59h4M55 59h6M64 59h2M27 60h2M45 60h4M57 60h7M27 61h3M34 61h1M45 61h4M59 61h3M27 62h3M45 62h5M28 63h3M33 63h1M45 63h5M28 64h3M33 64h1M44 64h6M29 65h2M32 65h2M44 65h6M30 66h1M32 66h4M42 66h8M32 67h18M33 68h17M34 69h15M36 70h13M37 71h12" />
<path stroke="#ffd642" d="M60 29h1M60 30h2M61 31h1M61 32h2M62 33h1" />
<path stroke="#6b6bad" d="M57 30h1M58 31h1M63 39h1M29 57h2M61 57h1M65 57h1M68 57h1M26 58h4M38 58h2M60 58h5M26 59h3M61 59h3M26 60h1M44 63h1M34 65h1M43 65h1M36 66h1M41 66h1" />
<path stroke="#c58c08" d="M60 31h1M61 33h1M62 34h1" />
<path stroke="#c5bdce" d="M59 34h1M59 35h1M59 36h1M59 37h1M59 38h2M60 44h1M73 48h1M70 50h1M75 50h3M66 51h1M76 51h2M73 52h1M77 52h2M65 53h1M72 53h3M78 53h1M71 54h7M69 55h3M75 55h3M67 56h4M77 56h1M62 57h1M64 57h1M69 57h1" />
<path stroke="#ffffff" d="M60 39h1M62 39h1M61 40h2M70 48h2M74 48h2M68 49h3M72 49h5M67 50h3M71 50h3M67 51h6M66 52h7M74 52h2M66 53h6M75 53h2M65 54h6M64 55h5M63 56h4M63 57h1" />
<path stroke="#6b637b" d="M70 47h2M73 47h3M68 48h2M72 48h1M76 48h1M67 49h1M71 49h1M77 49h1M66 50h1M74 50h1M65 51h1M73 51h3M65 52h1M76 52h1M64 53h1M64 54h1M63 55h1" />
<path stroke="#ff94a5" d="M15 64h5M16 65h8M17 66h8M26 66h1M18 67h6M25 67h1M19 68h6M26 68h1M22 69h4M24 70h1" />
</svg>