<svg xmlns="http://www.w3.org/2000/svg" viewBox="0 -0.5 64 64" shape-rendering="crispEdges">
<metadata>Made with Pixels to Svg https://codepen.io/shshaw/pen/XbxvNj</metadata>
<path stroke="#303848" d="M19 8h3M17 9h2M16 10h1M24 10h1M15 11h1M17 11h1M15 12h2M18 12h1M41 12h4M18 13h1M20 13h1M38 13h3M45 13h2M19 14h1M35 14h3M34 15h1M34 16h1M34 17h1M46 17h1M34 18h1M34 19h1M39 19h2M35 20h1M39 20h1M36 21h1M22 28h1M22 29h1M21 30h1M21 31h1M20 32h1M20 33h1M20 34h1M20 35h1M20 36h1M20 37h1M39 37h1M25 42h1M27 43h1M19 44h2M12 46h2M11 47h1M11 48h1M16 48h1M38 48h2M11 49h1M15 49h1M37 49h1M45 49h3M12 50h1M15 50h1M39 50h1M44 50h1M13 51h1M40 51h2M43 51h1M14 52h1M43 52h1M43 53h1M44 54h1M46 55h1" />
<path stroke="#98a0a8" d="M19 9h3M21 10h3M22 11h2M23 12h2M24 13h2M41 13h4M38 14h9M37 15h4M46 15h1M37 16h2M47 16h1M13 21h1M16 21h1M19 23h1M10 26h1M51 32h1M52 34h1M52 35h1M51 36h1M50 37h1M31 41h1M26 42h6M13 47h1M41 47h1M12 48h1M15 48h1M12 49h2M16 49h1M13 50h2M17 50h1M47 50h1M14 51h3M46 51h1M42 52h1M45 52h1M41 53h2M44 53h1M43 54h1M45 54h1" />
<path stroke="#101010" d="M22 9h2M24 11h1M25 12h1M26 13h1M20 14h1M47 14h1M20 15h1M48 15h1M20 16h1M48 16h1M21 17h1M44 17h2M49 17h1M43 18h1M47 18h1M49 18h1M24 19h1M43 19h1M48 19h1M13 20h1M19 20h1M24 20h1M41 20h2M14 21h1M19 21h1M30 21h1M37 21h2M14 22h1M19 22h1M30 22h1M40 22h1M18 23h1M40 23h1M21 24h1M40 24h1M21 25h1M19 26h2M17 27h2M43 27h1M16 28h1M43 28h1M14 29h2M44 29h1M48 29h1M52 29h1M44 30h1M48 30h1M48 31h1M54 31h1M16 32h1M54 32h1M14 33h2M43 33h1M55 33h1M18 34h2M42 34h1M55 34h1M38 35h3M53 35h2M52 36h1M51 37h1M39 38h1M46 38h2M40 39h1M43 39h2M41 41h1M41 42h1M18 43h1M28 43h4M41 43h1M17 44h1M21 44h3M33 44h1M21 45h1M34 45h1M45 45h1M17 46h1M21 46h1M36 46h3M45 46h1M14 47h3M20 47h1M45 47h1M20 48h1M44 48h1M19 49h1M18 50h1M36 50h1M48 50h1M17 51h1M36 51h1M49 51h1M15 52h2M37 52h2M49 52h1M39 53h2M48 53h1M41 54h2M47 54h1M43 55h3" />
<path stroke="#586070" d="M17 10h4M16 11h1M18 11h4M19 12h4M19 13h1M21 13h3M21 14h6M21 15h4M35 15h2M41 15h5M47 15h1M21 16h3M35 16h2M39 16h8M22 17h1M35 17h9M47 17h2M35 18h8M48 18h1M11 19h2M17 19h2M35 19h4M41 19h2M49 19h1M10 20h1M16 20h1M36 20h3M10 21h1M15 21h1M11 22h1M16 22h1M18 22h1M9 23h2M12 23h1M14 23h2M20 23h1M8 24h1M11 24h2M17 24h1M8 25h1M16 25h1M9 26h1M11 26h1M11 27h1M50 27h2M12 28h1M46 28h2M49 28h1M52 28h1M13 29h1M45 29h1M49 29h1M53 29h1M45 30h1M49 30h1M52 30h1M54 30h1M46 31h1M51 31h1M46 32h1M48 32h1M53 32h1M45 33h1M49 33h1M52 33h1M45 34h1M49 34h1M45 35h1M46 36h1M47 37h1M48 38h2M13 43h2M12 44h1M14 44h1M43 44h2M12 45h1M15 45h2M20 45h1M42 45h1M19 46h2M41 46h1M17 47h3M40 47h1M42 47h2M17 48h3M41 48h1M17 49h2M38 49h1M16 50h1M37 50h2M43 50h1M37 51h3M42 51h1M47 51h2M39 52h3M44 52h1M46 52h3M45 53h3M46 54h1" />
<path stroke="#e0a8a8" d="M28 13h1M34 13h1M33 14h2M25 17h1M23 18h1M26 18h1M26 19h1M31 19h1M26 20h1M32 20h1M26 21h1M32 21h1M39 21h1M24 22h3M32 22h1M36 22h4M32 23h1M36 23h4M24 24h1M30 24h3M36 24h4M26 27h1M27 28h3M31 28h1M26 29h1M17 30h1M15 31h3M15 32h1M41 35h1M40 36h3M41 37h2M46 37h1M42 38h1M44 38h1M18 44h1M39 44h3M18 45h2M40 45h2M18 46h1M42 48h2M40 49h3M40 50h2" />
<path stroke="#885850" d="M29 13h5M27 14h1M25 15h1M24 16h1M23 17h1M22 18h1M21 19h1M20 20h1M40 21h1M24 25h1M29 25h1M22 26h1M25 26h1M29 26h1M23 27h1M27 27h3M17 28h1M24 28h2M30 28h1M16 29h1M27 29h4M13 30h1M16 30h1M12 31h1M12 32h1M13 33h1M42 35h1M44 35h1M39 36h1M43 36h1M40 37h1M41 38h1M45 38h1M42 39h1M16 41h1M15 42h1M38 44h1M42 44h1M38 45h2M40 46h1M40 48h1M39 49h1M43 49h1M42 50h1" />
<path stroke="#f8e8e8" d="M28 14h2M26 15h5M26 16h5M26 17h5M27 18h3M30 25h1M30 26h1M30 27h1" />
<path stroke="#f8c8c8" d="M30 14h3M31 15h3M25 16h1M31 16h3M24 17h1M31 17h3M30 18h4M22 19h2M27 19h4M32 19h2M22 20h2M27 20h3M33 20h2M23 21h1M27 21h3M33 21h3M23 22h1M27 22h3M33 22h3M23 23h7M33 23h3M22 24h2M25 24h5M22 25h2M25 25h4M31 25h1M23 26h2M26 26h3M31 26h1M24 27h2M31 27h1M26 28h1M32 28h1M14 30h2M13 31h2M13 32h2M44 36h2M43 37h3M43 38h1M17 41h1M16 42h3M15 43h3M15 44h2" />
<path stroke="#f8f8f8" d="M24 18h2M25 19h1M11 20h2M17 20h2M25 20h1M30 20h2M11 21h1M18 21h1M24 21h2M31 21h1M12 22h2M17 22h1M31 22h1M30 23h2M9 24h2M18 24h1M20 24h1M9 25h1M11 25h1M17 25h4M15 26h4M14 27h3M15 28h1M23 28h1M50 28h2M23 29h3M46 29h2M50 29h1M22 30h8M46 30h1M50 30h1M22 31h10M47 31h1M21 32h13M47 32h1M21 33h4M29 33h5M46 33h3M21 34h3M30 34h5M46 34h3M21 35h2M31 35h5M46 35h4M22 36h1M31 36h4M47 36h2M22 37h1M31 37h3M31 38h1M13 44h1M13 45h2M43 45h2M14 46h1M44 46h1" />
<path stroke="#88b828" d="M21 20h1M12 21h1M17 21h1M22 21h1M21 22h2M21 23h2M19 24h1M33 24h3M10 25h1M32 25h1M35 25h2M32 26h1M34 26h1M37 26h4M32 27h2M37 27h6M18 28h2M33 28h1M37 28h6M18 29h3M37 29h7M51 29h1M19 30h2M36 30h8M47 30h1M19 31h2M34 31h1M36 31h3M43 31h1M53 31h1M18 32h2M35 32h2M18 33h2M25 33h3M35 33h1M24 34h5M54 34h1M23 35h1M26 35h4M23 36h1M26 36h4M19 37h1M23 37h7M18 38h3M23 38h6M18 39h3M24 39h3M34 39h1M18 40h4M19 41h3M33 41h1M33 42h1M33 43h2M34 44h3M35 45h2" />
<path stroke="#b0e050" d="M20 21h2M20 22h1M33 25h2M33 26h1M35 27h2M35 28h2M34 29h3M34 30h2M35 31h1M24 35h2M24 36h2" />
<path stroke="#c8d0d8" d="M13 23h1M16 23h2M13 24h4M12 25h4M12 26h3M12 27h2M13 28h2M30 30h3M51 30h1M53 30h1M32 31h1M49 31h2M52 31h1M49 32h2M52 32h1M50 33h2M53 33h2M50 34h2M53 34h1M36 35h1M50 35h2M21 36h1M35 36h4M49 36h2M21 37h1M34 37h1M48 37h2M22 38h1M32 38h2M22 39h2M30 39h3M23 40h2M29 40h3M24 41h7M17 45h1M15 46h2M42 46h2M12 47h1M44 47h1M13 48h2M14 49h1M45 50h2M44 51h2" />
<path stroke="#285800" d="M37 25h4M35 26h2M41 26h2M34 27h1M17 29h1M31 29h3M18 30h1M33 30h1M18 31h1M33 31h1M44 31h1M17 32h1M34 32h1M43 32h1M17 33h1M34 33h1M35 34h2M41 34h1M37 35h1M19 36h1M35 37h4M21 38h1M34 38h1M38 38h1M17 39h1M21 39h1M33 39h1M17 40h1M22 40h1M32 40h1M41 40h1M18 41h1M23 41h1M32 41h1M19 42h1M32 42h1M19 43h2M24 43h1M32 43h1M38 43h3M37 44h1M37 45h1M35 46h1" />
<path stroke="#669900" d="M21 26h1M19 27h4M20 28h2M34 28h1M21 29h1M39 31h4M37 32h6M28 33h1M36 33h7M29 34h1M37 34h4M30 35h1M30 36h1M18 37h1M30 37h1M17 38h1M29 38h2M35 38h3M27 39h3M35 39h5M25 40h4M33 40h8M22 41h1M34 41h7M20 42h5M34 42h7M21 43h3M35 43h3" />
</svg>