<svg xmlns="http://www.w3.org/2000/svg" viewBox="0 -0.5 64 64" shape-rendering="crispEdges">
<metadata>Made with Pixels to Svg https://codepen.io/shshaw/pen/XbxvNj</metadata>
<path stroke="#2870e0" d="M35 11h1M34 12h1M36 12h1M33 13h1M35 13h2M32 14h1M34 14h2M31 15h1M33 15h2M28 16h2M31 16h3M29 17h2M29 18h1M25 19h1M30 19h2M14 20h1M24 20h2M28 20h1M31 20h2M10 21h1M15 21h1M22 21h2M25 21h1M27 21h2M11 22h1M16 22h1M20 22h2M24 22h1M29 22h1M31 22h1M33 22h2M12 23h1M19 23h1M23 23h1M30 23h1M34 23h1M13 24h1M19 24h1M21 24h2M31 24h1M47 24h2M14 25h1M33 25h1M35 25h1M46 25h2M4 26h1M15 26h1M35 26h2M45 26h1M5 27h1M36 27h1M51 27h3M6 28h1M33 28h1M36 28h1M50 28h1M7 29h2M29 29h1M36 29h1M48 29h2M9 30h2M30 30h6M47 30h1M35 31h2M38 31h1M34 32h1M26 33h1M33 33h2M58 33h1M26 34h1M30 34h1M32 34h1M57 34h1M26 35h1M28 35h3M35 35h1M54 35h3M24 36h1M27 36h3M33 36h2M52 36h2M23 37h1M31 37h3M23 38h1M32 38h1M34 38h1M24 39h1M29 39h1M34 39h1M25 40h1M35 40h1M38 40h1M36 41h2M21 44h2M20 45h1M23 45h1M19 46h1M23 46h1M20 47h1M23 47h1M22 48h2M19 49h1M20 50h1M22 51h2" />
<path stroke="#101010" d="M36 11h1M37 12h1M37 13h1M36 14h1M29 15h1M35 15h1M30 16h1M34 16h1M32 17h1M31 18h1M32 19h1M33 20h1M34 21h1M25 22h1M35 22h1M24 23h1M35 23h1M23 24h1M36 24h1M21 25h2M31 25h1M36 25h1M32 26h1M37 26h1M32 27h1M37 27h1M37 28h1M37 29h1M37 30h1M26 31h1M37 31h1M26 32h1M35 32h1M36 33h1M27 34h1M36 34h1M15 35h1M18 35h1M27 35h1M36 35h1M14 36h1M17 36h1M30 36h1M35 36h1M14 37h3M19 37h2M34 37h1M14 38h1M16 38h1M18 38h1M20 38h1M17 39h1M44 39h1M17 40h2M45 40h1M17 41h1M40 41h1M45 41h1M36 42h1M41 42h1M45 42h1M36 43h1M39 43h1M42 43h1M44 43h1M31 44h2M36 44h1M40 44h1M42 44h1M30 45h1M33 45h1M36 45h1M40 45h1M42 45h1M30 46h1M33 46h1M36 46h1M40 46h1M42 46h1M29 47h5M36 47h1M42 47h1M20 48h1M29 48h2M32 48h1M42 48h1M21 49h1M30 49h2M35 49h1M41 49h2M24 50h1M34 50h1M38 50h1M41 50h1M24 51h1M33 51h1M39 51h1M41 51h1M22 52h4M31 52h2M39 52h2M26 53h5" />
<path stroke="#48b0f8" d="M35 12h1M34 13h1M33 14h1M32 15h1M27 16h1M26 17h3M26 18h3M27 19h2M29 20h2M13 21h2M24 21h1M30 21h2M12 22h4M22 22h1M32 22h1M9 23h3M13 23h4M20 23h1M32 23h2M8 24h5M14 24h3M20 24h1M33 24h1M6 25h8M15 25h1M34 25h1M48 25h2M5 26h10M34 26h1M46 26h6M6 27h8M34 27h2M46 27h5M7 28h6M35 28h1M47 28h3M51 28h2M9 29h3M30 29h2M34 29h1M50 29h5M48 30h8M28 31h1M32 31h2M48 31h9M27 32h1M31 32h3M49 32h9M31 33h2M50 33h8M25 34h1M31 34h1M35 34h1M51 34h6M25 35h1M34 35h1M52 35h2M25 36h2M24 37h1M27 37h4M24 38h1M27 38h5M25 39h4M22 46h1M21 47h2M19 48h1M22 50h1" />
<path stroke="#708088" d="M26 13h2M28 14h1M24 16h1M9 17h2M12 18h1M24 18h1M8 19h1M13 19h1M9 20h1M3 23h1M3 24h1M17 24h1M56 24h1M4 25h1M18 25h1M56 25h1M19 26h1M16 27h1M20 27h1M43 27h1M17 28h1M42 28h1M18 29h1M41 29h1M60 29h1M19 30h1M40 30h1M46 30h1M60 30h1M11 31h1M20 31h2M45 31h1M59 31h1M12 32h2M22 32h1M43 32h2M59 32h1M14 33h3M23 33h1M37 33h1M41 33h2M40 34h1M16 35h1M38 35h2M15 36h1M36 36h2M35 37h1M47 37h3M41 38h6M37 39h1M42 40h1M39 41h1M40 42h1M43 42h1M41 43h1M41 44h1M41 45h1M41 46h1M39 47h1M31 48h1M38 49h1" />
<path stroke="#a0b0d0" d="M26 14h1M23 16h1M8 17h1M23 17h1M7 18h1M11 18h1M5 19h3M4 20h1M3 21h1M3 22h1M51 22h4M49 23h2M55 23h1M54 26h5M59 27h1M43 28h1M60 28h1M18 32h4M23 32h1M40 32h2M17 33h6M38 33h3M43 33h1M19 34h2M37 34h3M41 34h4M21 35h1M37 35h1M42 35h4M40 36h2M44 36h2M51 36h1M36 37h7M50 37h1M35 38h6M36 39h1" />
<path stroke="#e0f8f8" d="M27 14h1M24 17h1M8 18h3M9 19h4M5 20h4M10 20h3M4 21h6M11 21h1M4 22h6M4 23h4M51 23h4M4 24h3M50 24h6M17 25h1M51 25h5M16 26h3M53 26h1M15 27h1M17 27h3M54 27h5M13 28h4M18 28h3M44 28h2M54 28h6M12 29h6M19 29h3M42 29h5M56 29h4M11 30h8M20 30h3M41 30h5M57 30h3M12 31h8M22 31h2M40 31h5M46 31h1M58 31h1M14 32h4M39 32h1M42 32h1M45 32h3M44 33h5M21 34h3M45 34h5M40 35h2M46 35h5M38 36h2M42 36h2M46 36h5M43 37h4M19 38h1M19 39h1M28 42h2M25 43h1M27 43h4M27 44h4M28 45h2M31 45h1M31 46h1" />
<path stroke="#004090" d="M27 15h2M26 16h1M25 17h1M31 17h1M25 18h1M30 18h1M29 19h1M26 20h1M26 21h1M32 21h2M34 24h2M20 25h1M31 28h2M34 28h1M35 29h1M25 30h1M28 30h2M36 30h1M24 31h1M27 31h1M34 31h1M24 32h1M36 32h1M24 33h1M27 33h1M35 33h1M24 34h1M28 34h2M33 34h2M24 35h1M31 35h2M33 38h1M30 39h4M35 39h1M26 40h3M34 40h1M35 41h1M24 46h1M19 47h1M24 47h1M21 48h1M24 48h1M20 49h1M22 49h3M19 50h1M21 50h1M23 50h1M20 51h2" />
<path stroke="#70e0f8" d="M26 19h1M13 20h1M27 20h1M12 21h1M29 21h1M10 22h1M23 22h1M30 22h1M8 23h1M21 23h2M31 23h1M7 24h1M32 24h1M49 24h1M5 25h1M16 25h1M32 25h1M50 25h1M33 26h1M52 26h1M14 27h1M33 27h1M45 27h1M46 28h1M53 28h1M32 29h2M47 29h1M55 29h1M56 30h1M25 31h1M29 31h3M47 31h1M57 31h1M25 32h1M28 32h3M48 32h1M58 32h1M25 33h1M28 33h3M49 33h1M50 34h1M33 35h1M51 35h1M31 36h2M25 37h2M25 38h2M21 45h2M20 46h2" />
<path stroke="#484850" d="M44 27h1M21 28h1M22 29h1M23 30h1M39 31h1M37 32h2M16 34h3M17 35h1M19 35h1M16 36h1M38 39h6M36 40h2M43 40h2M38 41h1M43 41h2M37 42h3M44 42h1M40 43h1M40 47h2M39 48h3M39 49h2M39 50h2M40 51h1" />
<path stroke="#336600" d="M22 35h2M18 39h1M20 39h1M19 40h1M18 41h1M16 44h1M16 45h1M17 46h1M32 46h1M17 47h1M18 48h1M35 48h1M29 49h1" />
<path stroke="#50b020" d="M20 36h4M29 40h1M33 40h1M16 41h1M34 41h1M16 42h1M35 42h1M16 43h1M35 43h1M23 44h1M33 44h1M35 44h1M24 45h1M32 45h1M34 45h2M18 46h1M29 46h1M34 46h2M18 47h1M34 47h2M25 48h1M33 48h2M25 49h4M32 49h3M25 50h9M25 51h8M26 52h5" />
<path stroke="#80e820" d="M21 37h2M21 38h2M21 39h3M20 40h5M30 40h3M19 41h15M17 42h11M30 42h5M17 43h8M26 43h1M31 43h4M17 44h4M24 44h3M34 44h1M17 45h3M25 45h3M25 46h4M25 47h4M26 48h3" />
</svg>