<svg xmlns="http://www.w3.org/2000/svg" viewBox="0 -0.5 64 64" shape-rendering="crispEdges">
<metadata>Made with Pixels to Svg https://codepen.io/shshaw/pen/XbxvNj</metadata>
<path stroke="#4898e0" d="M14 13h2M44 13h2M13 14h1M16 14h1M37 14h2M46 14h1M13 15h1M17 15h1M36 15h1M46 15h1M14 16h1M45 16h1M12 17h1M44 17h2M11 18h1M22 18h2M39 18h2M43 18h2M14 19h3M20 19h1M22 19h2M39 19h6M14 20h4M39 20h5M17 21h2M21 21h1M40 21h4M17 22h2M21 22h2M40 22h3M20 23h5M29 23h4M40 23h3M19 24h8M33 24h1M40 24h2M19 25h1M24 25h1M31 25h2M39 25h3M48 25h2M51 25h1M26 26h2M39 26h2M48 26h2M51 26h2M39 27h2M48 27h4M21 28h2M38 28h2M41 28h1M47 28h1M49 28h3M20 29h1M22 29h3M38 29h2M41 29h2M45 29h1M48 29h2M21 30h1M23 30h3M37 30h8M46 30h3M19 31h1M23 31h3M37 31h11M18 32h1M24 32h1M38 32h1M40 32h7M18 33h1M37 33h1M39 33h1M41 33h5M17 34h1M38 34h1M40 34h6M17 35h1M37 35h1M40 35h5M36 36h1M39 36h4M44 36h1M13 37h1M35 37h1M37 37h1M39 37h1M42 37h3M12 38h1M34 38h1M36 38h1M38 38h1M42 38h2M12 39h1M16 39h2M36 39h2M42 39h2M15 40h3M19 40h1M37 40h1M41 40h2M18 41h1M37 41h2M30 42h2M35 42h2M38 42h1M35 43h2" />
<path stroke="#2868c0" d="M46 13h1M43 14h1M39 15h1M42 15h1M18 16h1M36 16h1M41 16h1M46 16h1M13 17h2M19 17h1M36 17h1M37 18h1M41 18h1M11 19h1M21 19h1M37 19h1M22 20h1M16 21h1M23 22h1M44 23h1M27 24h2M43 24h2M23 25h1M52 25h1M24 26h2M50 26h1M47 27h1M46 28h1M40 29h1M44 29h1M50 29h1M50 30h1M22 31h1M49 31h3M23 32h1M50 32h2M17 36h1M14 37h4M21 37h1M17 38h1M35 38h1M18 39h1M18 40h1M19 41h1" />
<path stroke="#98e8f8" d="M14 14h1M44 14h2M14 15h2M37 15h2M44 15h2M15 16h2M37 16h2M15 17h1M17 17h1M12 18h2M12 19h2M37 23h1M30 24h2M36 24h1M38 24h1M28 25h2M37 25h1M20 26h2M36 26h1M20 27h2M31 28h2M30 29h4M20 30h1M30 30h4M20 31h2M30 31h4M19 32h4M31 32h2M19 33h2M19 34h2M13 38h2M13 39h2" />
<path stroke="#78c8f8" d="M15 14h1M16 15h1M43 15h1M17 16h1M39 16h1M42 16h3M16 17h1M18 17h1M37 17h3M41 17h3M14 18h1M16 18h4M38 18h1M42 18h1M17 19h3M38 19h1M18 20h3M38 20h1M19 21h2M38 21h2M19 22h2M37 22h3M18 23h2M36 23h1M38 23h2M29 24h1M32 24h1M35 24h1M37 24h1M39 24h1M48 24h2M25 25h3M30 25h1M33 25h4M38 25h1M22 26h2M28 26h8M37 26h2M22 27h17M23 28h8M33 28h5M48 28h1M25 29h5M34 29h4M46 29h2M26 30h4M34 30h3M45 30h1M26 31h4M34 31h3M25 32h6M33 32h5M39 32h1M22 33h15M38 33h1M40 33h1M18 34h1M22 34h5M28 34h10M39 34h1M18 35h3M22 35h5M28 35h9M18 36h9M28 36h8M18 37h3M22 37h13M36 37h1M38 37h1M15 38h2M18 38h4M27 38h7M37 38h1M15 39h1M19 39h4M27 39h3M31 39h4M20 40h4M27 40h2M31 40h5M20 41h16M21 42h6M29 42h1M33 42h2M24 43h2M34 43h1" />
<path stroke="#084090" d="M47 14h1M47 15h1M40 16h1M22 17h2M40 17h1M46 17h1M15 18h1M20 18h2M24 18h1M45 18h1M12 20h2M21 20h1M37 20h1M44 20h1M14 21h2M22 21h2M37 21h1M16 22h1M36 22h1M43 22h2M17 23h1M25 23h2M35 23h1M43 23h1M48 23h2M18 24h1M34 24h1M42 24h1M47 24h1M50 24h3M18 25h1M20 25h3M47 25h1M50 25h1M53 25h1M19 26h1M47 26h1M53 26h1M19 27h1M41 27h1M52 27h1M19 28h2M40 28h1M42 28h1M45 28h1M19 29h1M21 29h1M43 29h1M19 30h1M22 30h1M49 30h1M48 31h1M46 33h1M45 35h1M22 38h5M23 39h1M35 39h1M14 40h1M24 40h1M26 40h1M36 40h1M17 41h1M19 42h1M32 42h1M37 42h1M33 43h1M34 44h1" />
<path stroke="#101010" d="M24 19h1M45 19h1M23 20h1M44 21h1M24 22h1M45 23h1M45 24h1M42 25h3M41 26h1M53 27h1M52 28h1M51 29h1M51 30h1M52 31h1M47 32h1M49 32h1M52 32h1M50 33h2M21 34h1M46 34h1M21 35h1M27 35h1M27 36h1M45 36h1M45 37h1M45 38h1M45 39h1M13 40h1M15 41h2M36 41h1M44 41h1M18 42h1M45 42h1M37 43h1M46 43h1M35 44h2M41 44h1M46 44h1M39 45h2M42 45h1M45 45h1M38 46h1M44 46h1M27 47h5M37 47h1M24 48h1M37 48h1M22 49h2M37 49h1M36 50h1M34 51h2" />
<path stroke="#f8f8f8" d="M21 33h1M27 34h1M30 39h1M29 40h2M27 42h2M26 43h2M34 46h1M33 47h2M33 48h2M33 49h3" />
<path stroke="#c8e0f8" d="M38 35h2M37 36h2M43 36h1M40 37h2M39 38h3M38 39h4M38 40h3M39 41h2M20 42h1M39 42h1M44 42h1M21 43h3M28 43h5M43 43h3M22 44h12M43 44h3M23 45h14M44 45h1M21 46h3M28 46h2M31 46h3M35 46h2M21 47h4M32 47h1M35 47h2M22 48h2M35 48h2M34 50h1" />
<path stroke="#a0b8d8" d="M44 38h1M44 39h1M43 40h1M41 41h3M40 42h4M38 43h5M37 44h4M42 44h1M22 45h1M38 45h1M43 45h1M20 46h1M24 46h2M27 46h1M30 46h1M20 47h1M32 48h1M32 49h1M36 49h1M35 50h1" />
<path stroke="#e86060" d="M24 39h3M25 40h1" />
<path stroke="#486098" d="M44 40h1M20 43h1M21 44h1M21 45h1M37 45h1M26 46h1M37 46h1M43 46h1M25 47h1M21 48h1M33 50h1" />
</svg>