<svg xmlns="http://www.w3.org/2000/svg" viewBox="0 -0.5 64 64" shape-rendering="crispEdges">
<metadata>Made with Pixels to Svg https://codepen.io/shshaw/pen/XbxvNj</metadata>
<path stroke="#686058" d="M30 9h1M29 10h1M29 11h1M29 12h1M26 13h2M29 13h1M25 14h1M25 15h1M30 15h1M35 15h1M37 16h1M25 17h1M24 18h1M23 19h1M29 19h1M29 20h1M22 21h1M22 22h1M38 22h1M22 23h1M38 23h1M22 24h1M38 24h1M22 25h1M26 25h1M33 25h2M38 25h1M41 25h1M27 29h1M35 29h2M36 31h2M27 32h1M38 33h1M28 34h1M35 34h1M37 35h1M21 36h1M20 37h1M24 37h1M22 38h1M24 39h1M27 44h1M27 45h1M35 45h1M26 46h1M38 46h2M39 47h1" />
<path stroke="#585040" d="M31 9h1M32 10h1M32 11h1M35 12h1M34 13h1M28 14h1M34 14h1M29 15h1M36 15h2M26 16h1M38 16h1M27 17h1M35 19h1M25 20h1M34 20h1M40 20h2M26 21h1M39 21h1M42 21h1M26 22h2M26 23h1M26 24h1M33 24h1M23 26h1M39 26h1M28 27h6M34 28h1M28 29h2M34 29h1M29 30h1M31 30h1M34 30h1M28 31h1M27 33h1M29 33h1M29 34h1M22 35h2M28 35h2M40 35h1M27 36h1M29 36h1M36 36h3M41 36h1M25 37h1M34 37h3M39 37h1M20 38h1M26 38h1M35 38h1M37 38h1M20 39h1M35 39h1M37 39h1M21 40h1M22 41h2M38 43h1M39 44h1M36 46h1M40 46h1" />
<path stroke="#e8e0c8" d="M30 10h1M30 11h1M30 12h1M30 13h1M26 14h1M30 14h1M26 15h1M27 16h1M28 17h1M29 18h1M25 19h2M26 20h1M23 21h1M23 22h1M30 34h3M30 36h3M27 37h1" />
<path stroke="#c8c0a8" d="M31 10h1M31 11h1M31 12h1M31 13h1M27 14h1M31 14h1M27 15h2M31 15h2M28 16h2M32 16h3M29 17h8M25 18h2M30 18h8M24 19h1M27 19h1M30 19h5M36 19h3M24 20h1M27 20h1M30 20h4M37 20h2M28 21h1M30 21h3M37 21h2M28 22h4M37 22h1M23 23h1M28 23h4M37 23h1M23 24h1M28 24h4M37 24h1M24 25h2M28 25h4M35 25h3M24 26h13M25 27h2M34 27h1M27 28h1M32 30h1M29 31h5M28 32h1M30 32h7M28 33h1M36 33h2M37 34h1M28 36h1M21 37h1M23 37h1M37 37h1M23 38h1M25 38h1M36 38h1M38 38h1M23 39h1M25 39h1M34 39h1M36 39h1M38 39h1M34 40h1M36 40h1M36 41h2M28 44h2M36 44h2M28 45h1M36 45h1M27 46h2M27 47h1" />
<path stroke="#989080" d="M32 12h1M32 13h1M35 13h2M29 14h1M32 14h2M35 14h2M33 15h2M30 16h2M35 16h2M26 17h1M37 17h2M27 18h1M38 18h2M28 19h1M39 19h2M23 20h1M28 20h1M36 20h1M39 20h1M24 21h1M27 21h1M29 21h1M36 21h1M40 21h2M24 22h1M36 22h1M39 22h3M24 23h1M36 23h1M39 23h3M24 24h1M36 24h1M39 24h3M23 25h1M27 25h1M32 25h1M39 25h2M37 26h2M40 26h1M27 27h1M35 27h4M26 28h1M35 28h3M30 30h1M34 31h2M29 32h1M37 32h1M30 33h5M38 34h1M30 35h5M38 35h2M22 36h2M40 36h1M38 37h1M21 38h1M34 38h1M39 38h1M21 39h2M26 39h1M39 39h1M22 40h4M35 40h1M37 40h3M35 41h1M38 41h1M37 43h1M35 44h1M38 44h1M29 45h2M37 45h2M29 46h2M37 46h1M28 47h1M38 47h1" />
<path stroke="#101010" d="M33 12h1M36 12h1M33 13h1M37 13h1M37 14h1M39 17h1M28 18h1M40 18h1M41 19h1M33 21h1M32 22h2M42 22h1M33 23h1M42 23h1M42 24h1M42 25h1M41 26h1M24 27h1M39 27h2M25 28h1M38 28h1M30 29h4M37 29h1M35 30h1M38 32h1M35 33h1M39 33h1M36 34h1M39 34h1M35 35h1M24 36h2M35 36h1M22 37h1M26 37h1M41 37h1M24 38h1M41 38h1M33 39h1M40 39h1M26 40h1M33 40h1M40 40h1M24 41h2M34 41h1M39 41h1M36 42h3M28 43h3M34 43h3M39 45h1M31 46h1M30 47h1M40 47h2M28 48h1M31 48h1M31 49h1M31 50h1M30 51h1M44 51h1M28 52h2M44 52h1M23 53h5M44 53h1M39 54h5" />
<path stroke="#f8f8f8" d="M35 20h1M25 21h1M35 21h1M25 22h1M35 22h1M25 23h1M32 23h1M35 23h1M25 24h1M32 24h1M35 24h1" />
<path stroke="#b03000" d="M34 21h1M27 24h1M28 28h2M33 30h1" />
<path stroke="#e08840" d="M34 22h1M27 23h1M34 23h1M34 24h1M30 28h4" />
<path stroke="#cccccc" d="M33 34h1M33 36h1M39 36h1M40 37h1M40 38h1" />
<path stroke="#a8a8a8" d="M34 34h1M34 36h1M28 37h1" />
<path stroke="#204080" d="M29 37h5M27 38h2M33 38h1M27 39h1M27 40h1M27 41h1M31 41h1M27 42h1M32 42h2M31 43h1M30 44h1M31 45h1M25 47h2M29 47h1M37 47h1M24 48h1M36 48h1M38 48h2M42 48h1M23 49h1M36 49h1M43 49h1M22 50h1M36 50h1M44 50h1M22 51h1M36 51h1M22 52h1M37 52h1M38 53h1M43 53h1" />
<path stroke="#50b0f8" d="M29 38h2M28 39h3M28 40h2M31 40h1M28 41h2M29 42h2M25 48h2M24 49h4M23 50h3M38 50h1M23 51h1M38 51h2M23 52h1" />
<path stroke="#4088e0" d="M31 38h2M31 39h2M32 40h1M30 41h1M32 41h2M28 42h1M31 42h1M29 48h1M37 48h1M28 49h2M37 49h3M26 50h3M37 50h1M39 50h2M24 51h4M37 51h1M40 51h1M24 52h2M38 52h3" />
<path stroke="#3050b0" d="M30 40h1M34 42h2M27 48h1M30 48h1M40 48h2M30 49h1M40 49h3M29 50h2M41 50h3M28 51h2M41 51h3M26 52h2M41 52h3M39 53h4" />
</svg>