<svg xmlns="http://www.w3.org/2000/svg" viewBox="0 -0.5 64 64" shape-rendering="crispEdges">
<metadata>Made with Pixels to Svg https://codepen.io/shshaw/pen/XbxvNj</metadata>
<path stroke="#101010" d="M26 6h6M30 7h1M32 7h2M30 8h1M34 8h1M31 9h1M35 9h1M26 10h1M31 10h1M35 10h2M31 11h1M35 11h1M37 11h1M27 12h1M31 12h1M35 12h1M38 12h1M32 13h1M36 13h1M38 13h1M28 14h1M32 14h1M36 14h1M39 14h1M28 15h1M32 15h1M36 15h1M39 15h1M32 16h1M36 16h1M38 16h1M40 16h1M29 17h1M32 17h1M35 17h1M38 17h1M40 17h1M35 18h1M38 18h1M41 18h1M37 19h1M41 19h1M38 20h2M41 20h1M33 21h1M40 21h2M24 22h1M33 22h1M41 22h1M51 22h1M24 23h1M42 23h1M52 23h1M53 24h1M54 25h1M19 26h1M48 26h1M54 26h1M45 27h3M54 27h1M43 28h2M54 28h1M53 29h1M53 30h1M10 31h1M52 31h1M11 32h1M51 32h1M12 33h1M38 33h1M50 33h1M13 34h1M24 34h1M49 34h1M14 35h1M26 35h1M48 35h1M15 36h1M27 36h1M46 36h2M16 37h2M44 37h2M18 38h2M42 38h2M20 39h2M40 39h2M22 40h1M38 40h1M23 41h1M38 41h1M23 42h1M38 42h1M47 42h5M14 43h3M23 43h1M38 43h1M43 43h4M52 43h1M17 44h3M22 44h1M39 44h4M52 44h1M20 45h3M39 45h1M52 45h1M22 46h1M40 46h1M51 46h1M21 47h1M41 47h11M14 48h7M41 48h1M50 48h1M14 49h1M42 49h1M50 49h1M19 50h1M42 50h3M49 50h1M15 51h1M42 51h1M45 51h3M49 51h1M18 52h1M42 52h1M48 52h1M17 53h2M26 53h10M43 53h1M47 53h1M18 54h1M25 54h1M43 54h4M18 55h1M36 55h1M43 55h1M19 56h6M37 56h1M43 56h1M38 57h5" />
<path stroke="#683078" d="M25 7h1M27 7h3M31 7h1M25 8h1M28 8h2M31 8h3M26 9h1M28 9h3M32 9h3M29 10h2M32 10h3M27 11h1M29 11h2M32 11h3M36 11h1M30 12h1M32 12h3M36 12h2M28 13h1M30 13h2M33 13h3M37 13h1M30 14h2M33 14h3M37 14h2M31 15h1M33 15h3M37 15h2M29 16h1M31 16h1M33 16h3M37 16h1M39 16h1M31 17h1M33 17h2M36 17h2M39 17h1M34 18h1M36 18h2M39 18h2M38 19h3M40 20h1M49 21h2M48 22h1M47 23h1M51 23h1M47 24h1M50 24h1M35 25h1M46 25h1M52 25h1M33 26h2M52 26h1M16 27h1M23 27h1M30 27h2M25 28h4M10 29h1M43 29h1M10 30h1M42 30h1M20 31h1M41 31h1M21 32h1M40 32h1M22 33h1M23 34h1M25 35h1M26 37h1M25 38h1M25 39h1M39 39h1M24 40h1M24 41h1M13 43h1M13 44h1M15 44h2M47 44h5M13 45h1M15 45h5M40 45h12M13 46h1M15 46h7M41 46h10M14 47h1M16 47h5M42 48h8M16 49h4M43 49h7M15 50h1M17 50h2M45 50h4M17 51h2M27 51h2M31 51h1M43 51h2M48 51h1M16 52h1M35 52h1M43 52h5M44 53h3M36 54h1M20 55h1M22 55h1M24 55h1M39 56h1M41 56h1" />
<path stroke="#999999" d="M26 7h1M26 8h2M27 9h1M27 10h2M28 11h1M28 12h2M29 13h1M29 14h1M29 15h2M30 16h1M30 17h1M47 43h5M14 44h1M43 44h4M14 45h1M14 46h1M15 47h1M15 49h1M16 50h1M16 51h1M17 52h1" />
<path stroke="#9868a8" d="M27 18h2M33 18h1M25 19h2M36 19h1M23 20h2M22 21h1M21 22h1M21 23h1M13 24h2M20 24h1M30 24h1M12 25h1M15 25h1M26 25h1M50 25h1M12 26h1M16 26h1M49 26h1M11 27h1M13 27h1M32 27h1M51 27h1M53 27h1M11 28h1M14 28h1M24 28h1M29 28h1M53 28h1M12 29h1M13 30h1M39 33h1M36 34h2M34 35h2M22 39h3M23 40h1M33 41h1M38 44h1M38 45h1M37 46h3M22 47h1M35 47h6M22 48h1M34 48h7M20 49h1M23 49h1M34 49h8M24 50h2M33 50h4M39 50h3M19 51h1M24 51h3M32 51h4M40 51h2M24 52h11M41 52h1M19 53h1M23 53h3M41 53h2M19 54h6M41 54h2M23 55h1M40 55h3M42 56h1" />
<path stroke="#e0a8f0" d="M29 18h2M29 19h2M25 20h1M29 20h1M25 21h1M28 21h2M22 22h1M26 22h3M50 22h1M22 23h1M26 23h3M49 23h1M22 24h2M25 24h3M48 24h2M51 24h2M22 25h4M47 25h2M53 25h1M13 26h3M12 27h1M14 27h2M48 27h1M12 28h2M45 28h4M11 29h1M13 29h2M44 29h5M11 30h1M14 30h4M43 30h6M11 31h9M42 31h6M12 32h9M41 32h7M14 33h8M40 33h7M16 34h7M38 34h8M18 35h5M37 35h8M37 36h6M37 37h3M25 40h1M25 41h1M24 42h1M24 43h1M19 55h1M21 55h1M38 56h1M40 56h1" />
<path stroke="#c878e0" d="M31 18h2M31 19h5M30 20h3M34 20h4M23 21h1M30 21h2M35 21h3M29 22h3M35 22h2M29 23h4M34 23h3M48 23h1M50 23h1M28 24h2M31 24h5M27 25h8M49 25h1M51 25h1M23 26h10M50 26h2M53 26h1M24 27h6M49 27h2M52 27h1M49 28h4M49 29h4M12 30h1M49 30h4M48 31h4M48 32h3M13 33h1M47 33h3M14 34h2M46 34h3M15 35h3M23 35h2M45 35h3M16 36h11M43 36h3M18 37h8M40 37h4M20 38h5M37 38h5M36 39h3M35 40h3M34 41h4M34 42h4M34 43h4M23 44h1M35 44h3M23 45h1M35 45h3M23 46h1M35 46h2M23 47h1M21 48h1M23 48h2M21 49h2M24 49h1M20 50h4M37 50h2M20 51h4M36 51h4M19 52h5M36 52h5M20 53h3M36 53h5M37 54h4M37 55h3" />
<path stroke="#f0c8f0" d="M27 19h2M26 20h3M26 21h2M49 22h1M13 25h2" />
<path stroke="#f8b040" d="M33 20h1M24 21h1M38 21h1M37 22h1M33 23h1M21 24h1M24 24h1M36 24h1M21 25h1M36 25h1M40 25h1M36 26h1M40 26h1M47 26h1M36 27h1M40 27h5M21 28h1M39 28h3M18 29h2M21 29h1M37 29h6M21 30h2M38 30h4M21 31h2M38 31h3M22 32h1M39 32h1M28 40h3M26 41h1M31 41h2M25 42h1M32 42h2M33 43h1M24 44h1M33 44h1M24 45h1M33 45h1M24 46h1M33 46h1M32 47h2M25 48h1M30 48h4M26 49h7M27 50h5" />
<path stroke="#f8f8f8" d="M32 21h1M23 22h1" />
<path stroke="#f8e098" d="M34 21h1M39 21h1M25 22h1M32 22h1M34 22h1M38 22h3M23 23h1M25 23h1M37 23h5M37 24h4M20 25h1M37 25h3M41 25h3M20 26h2M37 26h3M41 26h6M20 27h2M37 27h3M15 28h4M20 28h1M37 28h2M27 41h4M26 42h6M25 43h8M25 44h8M25 45h8M25 46h8M25 47h7M26 48h4" />
<path stroke="#c88018" d="M41 24h3M44 25h2M22 26h1M17 27h3M22 27h1M19 28h1M22 28h1M36 28h1M42 28h1M15 29h3M20 29h1M22 29h1M18 30h3M37 30h1M37 31h1M23 32h1M38 32h1M23 33h1M34 44h1M34 45h1M34 46h1M24 47h1M34 47h1M25 49h1M33 49h1M26 50h1M32 50h1M29 51h2" />
<path stroke="#e8e8f8" d="M35 26h1M33 27h3M23 28h1M30 28h6M23 29h13M23 30h11M25 31h6M27 37h1M26 38h4M26 39h5M26 40h1" />
<path stroke="#d0d0e8" d="M36 29h1M34 30h2M23 31h2M31 31h3M25 32h6M28 37h2M30 38h2M36 38h1M31 39h5M32 40h3" />
<path stroke="#b8b8d0" d="M36 30h1M34 31h3M24 32h1M31 32h7M24 33h14M25 34h11M27 35h7M36 35h1M28 36h9M30 37h7M32 38h4M27 40h1M31 40h1" />
</svg>