<svg xmlns="http://www.w3.org/2000/svg" viewBox="0 -0.5 64 64" shape-rendering="crispEdges">
<metadata>Made with Pixels to Svg https://codepen.io/shshaw/pen/XbxvNj</metadata>
<path stroke="#a07850" d="M6 4h1M6 5h1M6 6h1M8 6h1M19 6h1M6 7h1M18 7h1M6 8h1M5 9h1M15 9h1M17 9h1M4 10h1M9 10h1M11 10h1M14 10h1M4 11h1M13 11h1M15 11h1M50 11h1M59 11h1M5 12h1M8 12h1M11 12h1M49 12h2M57 12h3M7 13h1M10 13h1M15 13h1M20 13h1M47 13h3M54 13h5M13 14h1M21 14h1M46 14h12M21 15h1M45 15h12M5 16h1M12 16h1M22 16h1M45 16h10M22 17h1M46 17h1M48 17h1M50 17h3M16 18h1M23 18h1M47 18h1M49 18h1M57 18h1M13 19h1M15 19h1M17 19h1M24 19h1M10 20h1M16 21h1M26 21h3M12 22h1M15 22h1M9 23h2M20 23h1M8 24h1M20 24h1M19 25h1M13 26h1M14 27h1M41 27h3M11 28h1M21 28h1M38 28h5M11 29h1M21 29h1M40 29h4M20 30h1M29 30h1M42 30h4M30 31h1M43 31h4M27 32h1M33 32h1M42 32h2M27 33h2M35 33h1M43 33h3M12 34h1M28 34h1M40 34h7M12 35h1M43 35h3M12 36h1M12 37h1M12 38h1M22 39h1M30 39h1M37 39h1M13 40h1M18 40h1M22 40h1M30 40h1M38 40h1M46 40h1M13 41h1M26 41h1M43 41h2M46 41h1M14 42h1M17 42h1M23 42h1M26 42h2M15 43h1M18 43h1M21 43h1M24 43h1M26 43h1M28 43h1M44 43h1M19 44h1M25 44h2M29 44h1M45 44h1M16 45h1M26 45h1M30 45h1M46 50h2M14 51h2M36 51h1M45 51h5M14 52h3M47 52h1M14 53h1M27 54h2M44 54h1M47 54h1M25 55h2M28 55h3M44 55h1M47 55h1M25 56h1M28 56h1M25 58h1M28 58h1M25 59h1M28 59h1" />
<path stroke="#805838" d="M7 4h1M53 11h1M7 12h1M12 12h1M48 12h1M51 12h4M6 13h1M11 13h2M46 13h1M50 13h1M6 14h1M10 14h3M19 14h2M45 14h1M58 14h1M5 15h2M9 15h3M18 15h3M57 15h1M19 16h3M55 16h3M20 17h2M44 17h2M47 17h1M49 17h1M53 17h4M20 18h3M44 18h3M48 18h1M50 18h7M21 19h3M44 19h7M52 19h4M21 20h6M44 20h7M52 20h2M21 21h5M44 21h7M21 22h5M45 22h6M15 23h1M22 23h6M46 23h4M14 24h2M21 24h7M36 24h1M40 24h1M45 24h1M47 24h1M49 24h1M20 25h1M22 25h8M46 25h1M48 25h1M19 26h1M22 26h1M24 26h8M9 27h1M11 27h2M22 27h1M24 27h10M40 27h1M44 27h1M10 28h1M12 28h1M24 28h14M45 28h3M12 29h1M20 29h1M25 29h15M44 29h1M11 30h1M25 30h4M30 30h12M46 30h2M26 31h4M31 31h1M34 31h9M47 31h2M26 32h1M29 32h4M36 32h6M44 32h6M30 33h5M37 33h6M46 33h4M31 34h2M35 34h2M47 34h1M49 34h2M32 35h2M36 35h1M46 35h3M33 36h1M45 36h5M47 37h4M48 38h1M50 38h2M51 39h1M52 40h1M19 41h1M47 41h1M44 42h4M17 43h1M27 43h1M30 43h1M42 43h2M45 43h4M15 44h1M17 44h2M27 44h2M30 44h1M46 44h4M17 45h3M27 45h3M31 45h1M45 45h5M16 46h5M27 46h6M46 46h5M16 47h5M27 47h6M37 47h1M46 47h5M16 48h5M28 48h5M36 48h4M46 48h5M15 49h5M28 49h5M35 49h5M46 49h5M15 50h5M28 50h5M39 50h1M45 50h1M48 50h3M16 51h3M28 51h5M50 51h1M11 52h2M17 52h2M28 52h4M36 52h1M45 52h2M48 52h1M50 52h1M10 53h1M12 53h1M17 53h2M28 53h4M45 53h1M10 54h2M26 54h1M29 54h3M11 55h1M31 55h1M24 56h1M31 56h1M25 57h2M31 57h1" />
<path stroke="#d0a848" d="M17 4h2M17 5h1M17 6h1M8 7h1M16 7h1M19 7h1M8 8h1M16 8h1M19 8h1M7 9h2M16 9h1M19 9h1M6 10h3M12 10h2M19 10h1M6 11h2M19 11h1M6 12h1M14 12h1M19 12h1M14 13h1M18 13h1M7 14h1M15 14h3M15 15h2M6 16h1M9 16h2M15 16h3M5 17h1M9 17h1M15 17h4M5 18h1M15 18h1M17 18h2M5 19h1M14 19h1M18 19h2M4 20h1M12 20h3M18 20h2M3 21h1M10 21h6M18 21h2M9 22h3M16 22h4M7 23h2M16 23h3M5 24h3M16 24h3M9 25h10M14 26h4M15 27h3M20 27h1M16 28h4M18 29h2M23 29h1M22 30h2M13 31h1M13 32h1M13 33h1M13 34h1M27 35h1M29 35h1M38 35h2M28 36h4M35 36h1M38 36h5M13 37h1M29 37h1M31 37h3M35 37h10M14 38h1M22 38h1M29 38h2M32 38h5M39 38h8M13 39h1M15 39h2M31 39h1M33 39h4M40 39h7M14 40h4M19 40h3M32 40h3M41 40h5M14 41h5M20 41h4M31 41h2M42 41h1M45 41h1M15 42h2M18 42h2M22 42h1M40 42h4M16 43h1M19 43h1M16 44h1M44 44h1M34 50h1M35 51h1M37 51h1M37 52h1M43 52h1M48 53h1M13 54h1M16 54h1M23 57h1M27 57h1M30 57h1M23 58h1" />
<path stroke="#f8c868" d="M7 5h1M7 6h1M7 7h1M7 8h1M6 9h1M5 10h1M5 11h1M6 19h1M11 20h1M9 21h1M7 22h2M14 28h2M15 29h3M18 30h1M21 31h4M13 35h1M13 36h2M14 37h2M28 37h1M30 37h1M13 38h1M15 38h3M31 38h1M37 38h2M14 39h1M17 39h5M29 39h1M32 39h1M38 39h2M29 40h1M31 40h1M39 40h2M28 41h2M39 41h3M24 42h1M28 42h2M25 43h1M29 43h1" />
<path stroke="#000000" d="M8 5h1M19 5h1M9 7h1M20 7h1M9 8h1M20 8h1M9 9h1M20 9h1M20 10h1M60 10h1M20 11h1M54 11h1M60 11h1M20 12h1M60 12h1M19 13h1M21 13h1M59 13h1M14 14h1M18 14h1M22 14h1M59 14h1M17 15h1M22 15h1M23 16h1M58 16h1M11 17h1M57 17h1M10 18h1M58 18h1M10 19h2M57 19h1M51 20h1M55 20h2M29 21h1M51 21h3M13 22h2M44 22h1M51 22h1M3 23h1M11 23h1M14 23h1M28 23h1M36 23h2M40 23h2M44 23h1M51 23h1M4 24h1M9 24h5M29 24h2M34 24h2M37 24h1M39 24h1M41 24h1M44 24h1M51 24h1M5 25h4M21 25h1M31 25h3M36 25h3M41 25h1M43 25h1M51 25h1M8 26h5M20 26h2M40 26h5M50 26h1M10 27h1M13 27h1M18 27h2M23 27h1M34 27h2M37 27h3M45 27h3M50 27h1M8 28h2M13 28h1M23 28h1M48 28h2M13 29h1M22 29h1M24 29h1M47 29h2M10 30h1M12 30h1M21 30h1M24 30h1M48 30h1M10 31h2M19 31h2M25 31h1M49 31h1M25 32h1M28 32h1M50 32h1M26 33h1M29 33h1M50 33h1M27 34h1M29 34h1M37 34h3M51 34h1M28 35h1M30 35h2M34 35h2M37 35h1M40 35h2M50 35h2M32 36h1M34 36h1M36 36h2M43 36h1M50 36h1M34 37h1M45 37h2M51 37h1M47 38h1M52 38h1M47 39h3M52 39h1M35 40h3M47 40h1M50 40h2M53 40h1M30 41h1M33 41h2M38 41h1M48 41h1M52 41h2M20 42h2M30 42h3M34 42h1M39 42h1M48 42h1M14 43h1M20 43h1M22 43h2M31 43h1M35 43h1M40 43h2M49 43h1M14 44h1M20 44h1M24 44h1M31 44h1M36 44h1M41 44h3M50 44h1M15 45h1M20 45h1M25 45h1M32 45h1M36 45h1M41 45h1M44 45h1M15 46h1M21 46h1M26 46h1M33 46h1M36 46h1M41 46h1M45 46h1M51 46h1M21 47h1M26 47h1M33 47h1M36 47h1M41 47h1M45 47h1M51 47h1M21 48h1M33 48h1M35 48h1M41 48h1M45 48h1M51 48h1M20 49h1M27 49h1M33 49h2M41 49h1M45 49h1M51 49h1M20 50h1M27 50h1M33 50h1M41 50h1M44 50h1M51 50h1M13 51h1M27 51h1M33 51h2M40 51h1M43 51h1M51 51h1M19 52h1M32 52h1M34 52h2M38 52h2M42 52h1M51 52h1M16 53h1M19 53h1M32 53h1M36 53h2M44 53h1M49 53h2M17 54h2M32 54h1M46 54h1M49 54h1M12 55h3M16 55h2M32 55h1M45 55h1M48 55h1M14 56h2M32 56h1M32 57h1M24 58h1M27 58h1M30 58h2M26 59h1M29 59h1" />
<path stroke="#f8e8a8" d="M18 5h1M17 7h1M17 8h1M11 11h2M9 12h2M8 13h2M8 14h2" />
<path stroke="#f8d878" d="M18 6h1M15 10h2M10 11h1M14 11h1M7 15h2M12 15h3M7 16h2M11 16h1M6 17h3M10 17h1M6 18h4M7 19h3M5 20h5M4 21h5M12 23h1M14 29h1M14 30h4M14 31h5M14 32h11M14 33h12M14 34h13M14 35h13M15 36h13M16 37h12M18 38h4M23 38h6M23 39h6M23 40h6M24 41h2M27 41h1M25 42h1M13 53h1M46 53h1M15 54h1M45 54h1M48 54h1M29 57h1" />
<path stroke="#603810" d="M18 8h1M18 9h1M10 10h1M17 10h2M50 10h1M53 10h2M59 10h1M8 11h2M16 11h3M49 11h1M51 11h2M57 11h2M13 12h1M15 12h4M47 12h1M55 12h2M5 13h1M13 13h1M16 13h2M51 13h3M5 14h1M44 15h1M58 15h1M13 16h2M18 16h1M44 16h1M14 17h1M19 17h1M23 17h1M43 17h1M14 18h1M19 18h1M24 18h1M43 18h1M16 19h1M20 19h1M25 19h2M43 19h1M51 19h1M56 19h1M15 20h3M20 20h1M27 20h2M43 20h1M54 20h1M17 21h1M20 21h1M43 21h1M3 22h1M20 22h1M26 22h3M19 23h1M21 23h1M45 23h1M50 23h1M19 24h1M28 24h1M46 24h1M48 24h1M50 24h1M30 25h1M34 25h2M39 25h2M44 25h2M47 25h1M49 25h2M18 26h1M23 26h1M32 26h8M45 26h5M21 27h1M36 27h1M48 27h2M20 28h1M22 28h1M43 28h2M45 29h2M13 30h1M19 30h1M32 31h2M34 32h2M36 33h1M30 34h1M33 34h2M48 34h1M42 35h1M49 35h1M44 36h1M49 38h1M50 39h1M35 41h3M35 42h4M36 43h4M37 44h4M37 45h4M50 45h1M37 46h4M15 47h1M38 47h3M15 48h1M27 48h1M40 48h1M14 49h1M40 49h1M14 50h1M35 50h4M40 50h1M19 51h1M38 51h2M44 51h1M13 52h1M27 52h1M44 52h1M49 52h1M15 53h1M27 53h1M42 53h2M47 53h1M14 54h1M25 54h1M24 55h1M27 55h1M26 56h2M29 56h2M28 57h1" />
<path stroke="#303870" d="M12 17h1M6 22h1M4 23h3" />
<path stroke="#f8f8f8" d="M13 17h1M13 18h1M13 23h1M11 53h1M12 54h1M15 55h1M24 57h1M26 58h1M29 58h1" />
<path stroke="#4860a8" d="M11 18h2M12 19h1M4 22h2" />
</svg>