<svg xmlns="http://www.w3.org/2000/svg" viewBox="0 -0.5 64 64" shape-rendering="crispEdges">
<metadata>Made with Pixels to Svg https://codepen.io/shshaw/pen/XbxvNj</metadata>
<path stroke="#785858" d="M14 18h2M13 19h1M17 19h1M14 20h1M15 21h2M13 22h1M15 22h1M17 22h1M20 22h1M14 23h1M18 23h1M15 24h1M19 24h1M15 25h1M20 25h1M16 26h1M21 26h1M23 26h1M16 27h1M23 28h1M16 29h1M21 29h1M16 30h1M24 30h1M15 31h1M22 31h1M15 32h1M21 32h1M16 33h1M17 34h2M25 42h1M24 43h1M26 43h1M28 43h1M24 44h1M32 45h1M34 45h1" />
<path stroke="#803850" d="M19 18h4M18 19h1M23 19h1M19 20h1M20 21h1M16 22h1M16 23h2M17 24h2M17 25h3M18 26h3M18 27h5M18 28h1M22 28h1M17 30h1M20 30h1M17 31h1M19 31h1M17 32h2M19 34h1M20 35h1M21 36h1" />
<path stroke="#f8e850" d="M14 19h1M15 20h2M17 21h2M18 22h2M19 23h1M24 28h1M17 29h1M22 29h1M21 30h1M16 31h1M20 31h1M16 32h1M19 32h1M17 33h2M25 43h1M27 44h1M33 46h1M35 46h1" />
<path stroke="#f8f8f8" d="M15 19h1M17 20h1M21 23h1M24 23h1M24 24h2M24 25h2M24 26h1M22 36h1M26 36h3M23 37h1M25 37h5M24 38h7M24 39h7M26 40h3" />
<path stroke="#e0b848" d="M16 19h1M13 20h1M18 20h1M13 21h2M19 21h1M14 22h1M15 23h1M20 23h1M16 24h1M20 24h1M16 25h1M21 25h1M17 26h1M22 26h1M17 27h1M23 27h2M17 28h1M25 28h1M23 29h2M22 30h2M21 31h1M20 32h1M19 33h1" />
<path stroke="#f0b038" d="M19 19h1M22 19h1M20 20h2M25 23h1M19 28h2M18 29h3M18 30h2M20 34h2M21 35h3M23 36h3M24 37h1" />
<path stroke="#f8c070" d="M20 19h2" />
<path stroke="#105038" d="M24 19h1M25 20h2M27 21h1M22 22h1M28 22h1M23 23h1M28 23h1M44 23h1M46 23h1M23 24h1M29 24h1M43 24h1M46 24h1M30 25h2M42 25h1M45 25h1M31 26h2M41 26h1M44 26h1M54 26h2M29 27h1M33 27h2M40 27h1M43 27h1M52 27h1M55 27h1M28 28h1M35 28h2M39 28h1M51 28h1M54 28h1M28 29h1M38 29h4M50 29h1M53 29h1M27 30h1M39 30h2M48 30h1M52 30h1M27 31h1M40 31h1M46 31h2M27 32h1M43 32h7M27 33h1M42 33h7M28 34h1M42 34h6M28 35h1M43 35h4M29 36h1M43 36h3M30 37h1M44 37h1M32 38h1M34 39h1M44 39h6M36 40h2M52 40h2M39 41h3M51 41h1M27 43h1M26 44h1M33 44h2M36 44h1M26 45h1M31 45h1M32 46h1M34 46h1M33 47h1" />
<path stroke="#d07810" d="M22 20h3M21 21h4M25 22h1M21 28h1M25 30h1M18 31h1M23 31h4M22 32h5M20 33h7M22 34h6M24 35h3" />
<path stroke="#58a890" d="M25 21h2M26 22h2M26 23h1M45 23h1M44 24h1M43 25h1M25 26h1M42 26h2M31 27h1M41 27h1M53 27h1M29 28h1M34 28h1M40 28h1M52 28h1M31 29h2M51 29h1M28 30h1M30 30h1M49 30h2M28 31h2M28 32h1M28 33h1M45 40h5" />
<path stroke="#000000" d="M21 22h1M22 23h1M21 24h2M22 25h1M42 28h1M37 29h1M42 29h1M38 30h1M41 30h1M39 31h1M41 31h1M51 31h1M40 32h1M50 32h1M41 33h1M49 33h1M41 34h1M48 34h1M42 35h1M47 35h1M42 36h1M46 36h1M43 37h1M45 37h1M43 38h2M48 41h3M26 42h3M37 42h11M29 43h2M35 43h4M25 44h1M28 44h2M32 44h1M35 44h1M37 44h3M27 45h1M33 45h1M35 45h3M36 46h1M35 47h1" />
<path stroke="#cccccc" d="M23 22h2M23 25h1M27 35h1M31 39h2M25 40h1M29 40h6M27 41h10M30 42h6" />
<path stroke="#339966" d="M27 23h1M26 24h3M45 24h1M26 25h4M44 25h1M26 26h5M53 26h1M25 27h4M30 27h1M42 27h1M54 27h1M26 28h2M41 28h1M53 28h1M25 29h3M33 29h4M49 29h1M52 29h1M26 30h1M31 30h7M51 30h1M30 31h9M48 31h3M29 32h11M29 33h12M29 34h12M29 35h13M30 36h12M31 37h12M33 38h10M35 39h9M50 39h2M38 40h7M42 41h6" />
<path stroke="#90d0c8" d="M32 27h1M30 28h4M29 29h2M29 30h1M50 40h2" />
<path stroke="#999999" d="M22 37h1M23 38h1M31 38h1M23 39h1M33 39h1M24 40h1M35 40h1M25 41h2M37 41h2M29 42h1M36 42h1M31 43h4" />
</svg>