<svg xmlns="http://www.w3.org/2000/svg" viewBox="0 -0.5 64 64" shape-rendering="crispEdges">
<metadata>Made with Pixels to Svg https://codepen.io/shshaw/pen/XbxvNj</metadata>
<path stroke="#504820" d="M13 4h1M12 6h1M14 6h1M12 7h1M14 7h1M14 8h1M11 9h1M11 10h1M15 10h1M11 11h1M15 11h1M10 12h1M15 12h1M9 13h1M8 14h1M16 14h1M8 15h1M16 15h1M60 16h1M7 17h1M17 17h1M58 17h1M61 17h1M7 18h1M17 18h1M57 18h1M6 19h1M17 19h1M55 19h1M60 19h1M6 20h1M54 20h1M18 21h1M52 21h1M18 22h1M50 22h1M48 23h2M19 24h1M46 24h2M6 25h1M19 25h1M45 25h1M58 25h1M6 26h1M19 26h1M43 26h2M58 26h1M7 27h1M41 27h2M59 27h1M20 28h1M40 28h1M59 28h1M20 29h1M38 29h2M59 29h1M21 30h1M36 30h2M59 30h1M21 31h1M35 31h1M59 31h1M21 32h1M33 32h2M59 32h1M31 33h2M30 34h1M29 35h1M30 37h2M32 38h2M34 39h3M37 40h4M50 40h1M41 41h1M49 41h1" />
<path stroke="#666633" d="M12 5h1M14 5h1M11 8h1M15 9h1M16 13h1M7 16h1M17 16h1M59 16h1M56 18h1M18 20h1M53 20h1M6 21h1M51 21h1M6 22h1M6 23h1M19 23h1M57 23h2M6 24h1M55 24h3M48 25h1M54 25h4M54 26h4M20 27h1M49 27h1M54 27h5M49 28h1M54 28h5M49 29h1M54 29h5M18 30h3M49 30h1M54 30h5M15 31h6M40 31h1M54 31h2M15 32h6M41 32h1M48 32h1M53 32h3M18 33h2M35 33h2M43 33h4M53 33h5M31 34h7M52 34h6M30 35h9M51 35h6M29 36h12M49 36h4M55 36h2M32 37h5M38 37h15M34 38h2M39 38h3M43 38h4M49 38h5M38 39h4M44 39h3M50 39h3M41 40h1M44 40h4" />
<path stroke="#a09070" d="M13 5h1M13 6h1M13 7h1M12 8h2M12 9h3M12 10h3M12 11h3M11 12h4M10 13h6M11 14h3M11 15h2M8 16h4M16 16h1M8 17h4M15 17h1M59 17h2M8 18h3M14 18h1M58 18h3M9 19h2M56 19h4M9 20h1M13 20h1M55 20h5M7 21h3M53 21h7M7 22h3M52 22h7M7 23h3M53 23h4M9 24h1M53 24h2M9 25h2M14 25h1M7 26h4M16 26h1M8 27h4M11 28h2M10 29h5M10 30h3M14 30h4M14 31h1M35 32h1M33 33h2" />
<path stroke="#f8f828" d="M9 14h1M14 14h2M9 15h2M13 15h3M12 16h4M12 17h3M11 18h3M7 19h2M11 19h3M7 20h1M10 20h3M10 21h3M10 22h3M51 22h1M10 23h3M50 23h3M7 24h2M10 24h4M48 24h5M7 25h1M11 25h3M49 25h4M11 26h5M49 26h2M12 27h8M8 28h2M13 28h7M9 29h1M15 29h5M38 30h2M12 31h2M36 31h3M36 32h1M17 36h1M26 40h1" />
<path stroke="#d8d828" d="M10 14h1M8 20h1M8 25h1M53 25h1M51 26h3M50 27h4M10 28h1M50 28h4M50 29h4M13 30h1M50 30h4M39 31h1M49 31h5M56 31h3M37 32h4M49 32h4M56 32h3M37 33h6M47 33h6M38 34h14M39 35h12M41 36h8M53 36h2M37 37h1M53 37h3M36 38h3M42 38h1M47 38h2M54 38h1M37 39h1M42 39h2M47 39h3M42 40h2M48 40h2" />
<path stroke="#307848" d="M34 14h1M35 15h1M33 16h1M35 16h1M34 17h1M32 18h1M34 18h1M34 19h1M31 20h1M33 20h1M31 21h1M33 21h1M30 23h1M32 24h1M29 25h1M28 27h1M31 28h1M25 30h1M24 31h1M22 32h1M20 33h2M18 34h2M17 35h1M16 37h1M16 38h1M28 40h4M17 41h1M17 42h1M30 42h1M14 43h5M17 44h1M19 44h2M16 45h2M21 45h1M28 45h1M14 46h2M18 46h1M27 46h1M29 46h2M14 47h1M18 47h1M27 47h1M29 47h1M31 47h2M17 48h1M19 48h2M27 48h1M30 48h1M33 48h2M21 49h1M25 49h1M27 49h1M30 49h1M35 49h1M27 50h1M31 50h1M27 51h1M31 51h1M27 52h1M32 52h1M27 53h1" />
<path stroke="#90e090" d="M35 14h1M33 19h1M32 21h1M31 23h1M30 25h1M30 26h1M29 27h1M28 28h2M27 29h3M26 30h4M25 31h5M24 32h6M22 33h1M25 33h5M20 34h1M26 34h4M18 35h2M26 35h3M19 36h2M25 36h4M22 37h6M17 38h1M25 38h2M17 39h1M17 40h1M18 41h1M18 42h1M13 44h1M19 46h1M19 47h2M15 48h1M21 48h1M34 50h1M33 51h1M30 52h1M28 53h2" />
<path stroke="#60b060" d="M33 15h1M32 17h1M31 19h1M30 22h1M29 24h1M31 24h1M28 26h1M30 27h1M27 28h1M30 28h1M26 29h1M23 32h1M16 36h1M21 37h1M28 37h2M24 38h1M27 38h4M27 39h4M28 41h2M7 42h6M27 42h3M5 43h2M13 43h1M19 43h2M25 43h4M3 44h2M14 44h3M18 44h1M21 44h6M2 45h1M14 45h2M18 45h3M27 45h1M3 46h3M12 46h2M16 46h2M20 46h7M28 46h1M7 47h5M15 47h3M21 47h6M28 47h1M30 47h1M12 48h2M16 48h1M22 48h4M28 48h2M31 48h2M10 49h2M17 49h1M28 49h2M31 49h4M36 49h2M9 50h1M16 50h1M28 50h3M32 50h2M38 50h2M9 51h1M16 51h1M28 51h3M32 51h1M40 51h1M9 52h1M15 52h1M28 52h2M33 52h1M40 52h1M8 53h1M15 53h1M32 53h1M34 53h1M41 53h1M8 54h1M13 54h2M27 54h1M33 54h2M41 54h1M8 55h1M11 55h2M27 55h1M33 55h1M35 55h1M42 55h1M8 56h3M27 56h1M34 56h1M36 56h7M28 57h1M34 57h1M28 58h1M34 58h1M29 59h1M34 59h1M30 60h1M33 60h1M31 61h1M33 61h1M32 62h1" />
<path stroke="#c8f8a8" d="M34 15h1M34 16h1M33 17h1M33 18h1M32 19h1M32 20h1M31 22h1M30 24h1M29 26h1M23 33h2M21 34h5M20 35h6M21 36h4M8 43h1M10 43h3M5 44h1M7 44h1M9 44h1M11 44h2M4 45h1M6 45h1M8 45h6M6 46h6M14 48h1M12 49h5M10 50h2M13 50h3M35 50h3M10 51h1M12 51h1M14 51h2M34 51h6M11 52h1M13 52h2M31 52h1M34 52h6M9 53h2M12 53h3M30 53h2M35 53h1M37 53h1M39 53h2M9 54h1M11 54h2M28 54h5M36 54h1M38 54h1M40 54h1M9 55h2M28 55h5M37 55h1M39 55h1M41 55h1M28 56h3M32 56h2M29 57h1M31 57h1M33 57h1M29 58h2M32 58h1M31 59h1M33 59h1M31 60h2M32 61h1" />
<path stroke="#804020" d="M16 17h1M15 18h2M14 19h3M14 20h4M13 21h5M13 22h5M13 23h6M14 24h5M15 25h4M46 25h2M17 26h2M45 26h4M43 27h6M41 28h5M40 29h4M40 30h2" />
<path stroke="#181818" d="M61 18h1M60 20h1M60 21h1M32 22h1M59 22h1M32 23h1M59 23h1M58 24h1M31 25h1M31 26h1M31 27h1M7 28h1M8 29h1M30 29h1M9 30h1M30 30h1M10 31h2M30 31h1M12 32h3M30 32h1M15 33h3M30 33h1M58 33h1M58 34h1M57 35h1M57 36h1M18 37h1M56 37h1M31 38h1M55 38h1M16 39h1M31 39h1M53 39h2M16 40h1M51 40h2M27 41h1M30 41h1M42 41h7M29 43h1M27 44h2M22 45h5M26 48h1M22 49h3" />
<path stroke="#581008" d="M46 28h3M44 29h5M42 30h7M41 31h8M42 32h6M18 36h1M17 37h1M27 40h1M26 41h1" />
<path stroke="#d83820" d="M19 37h2M18 38h6M18 39h8M18 40h7M19 41h4" />
<path stroke="#a81008" d="M26 39h1M25 40h1M23 41h3M19 42h8M21 43h4" />
<path stroke="#f8f8f8" d="M7 43h1M9 43h1M6 44h1M8 44h1M10 44h1M3 45h1M5 45h1M7 45h1M12 50h1M11 51h1M13 51h1M10 52h1M12 52h1M11 53h1M36 53h1M38 53h1M10 54h1M35 54h1M37 54h1M39 54h1M36 55h1M38 55h1M40 55h1M31 56h1M30 57h1M32 57h1M31 58h1M33 58h1M30 59h1M32 59h1" />
</svg>