<svg xmlns="http://www.w3.org/2000/svg" viewBox="0 -0.5 64 64" shape-rendering="crispEdges">
<metadata>Made with Pixels to Svg https://codepen.io/shshaw/pen/XbxvNj</metadata>
<path stroke="#70a830" d="M34 8h1M33 9h1M32 10h1M41 11h2M21 12h2M31 12h1M40 12h1M21 13h1M23 13h2M30 13h1M38 13h1M25 14h2M29 14h3M33 14h1M22 15h1M27 15h2M34 15h1M26 16h1M23 17h1M25 17h1M24 19h1M37 19h1M39 19h1M24 20h1M30 20h1M34 20h5M24 21h1M36 21h3M37 22h2M25 23h1M37 23h2M37 24h1M37 25h1M24 31h4M35 31h1M22 32h2M32 32h5M21 33h1M26 33h1M34 33h2M25 36h1M30 36h1M29 38h1M34 38h1M23 39h1M28 40h1M28 41h1M27 42h1M24 44h1M25 47h1M25 48h1M27 49h1" />
<path stroke="#b8f870" d="M34 9h1M33 10h2M33 11h1M32 12h2M41 12h1M22 13h1M31 13h3M39 13h2M23 14h1M38 14h2M23 15h3M29 15h3M36 15h3M24 16h1M27 16h7M35 16h3M26 17h11M26 18h3M30 18h5M27 19h1M30 19h3M24 32h4M22 33h4M26 35h1M31 35h2M26 36h1M31 36h2M25 37h2M30 37h4M25 38h2M30 38h4M24 39h3M29 39h4M25 40h2M29 40h2" />
<path stroke="#506028" d="M35 9h1M39 12h1M37 13h1M41 13h1M34 14h3M40 15h1M39 17h1M29 18h1M38 18h1M28 19h2M38 19h1M23 20h1M27 20h1M23 21h1M26 21h1M33 21h1M35 21h1M23 22h1M25 22h1M32 22h1M36 22h1M31 23h1M35 24h1M26 25h1M31 25h1M28 31h3M32 31h3M36 31h2M28 32h1M31 32h1M38 32h2M27 33h1M32 33h2M40 33h1M22 34h5M33 34h7M25 35h1M33 35h1M34 36h1M24 37h1M34 37h3M17 38h1M24 38h1M34 39h1M23 40h1M34 40h1M23 41h1M33 41h1M23 42h1M33 42h1M23 43h1M32 43h1M32 44h1M24 45h1M31 45h1M24 46h1M30 46h1M29 47h1M28 48h1M26 49h1M28 49h1" />
<path stroke="#000000" d="M35 10h1M35 11h1M35 12h1M42 12h1M35 13h1M21 14h1M41 14h1M22 16h1M40 16h1M23 18h1M39 18h1M39 20h1M39 21h1M39 22h1M39 23h1M23 24h1M38 24h1M24 25h2M32 25h3M38 25h1M25 26h1M32 26h1M34 26h1M37 26h1M37 27h1M36 28h1M56 28h1M35 29h1M56 29h1M33 30h2M20 31h1M42 31h1M57 31h1M20 32h1M42 32h1M20 33h1M41 33h1M58 33h1M20 34h1M41 34h1M58 34h1M19 35h1M24 35h1M38 35h1M41 35h1M59 35h1M18 36h2M22 36h2M39 36h1M42 36h1M59 36h1M20 37h2M37 37h1M40 37h3M59 37h1M18 38h1M22 38h2M36 38h1M38 38h2M59 38h1M17 39h1M19 39h3M37 39h1M40 39h3M56 39h1M58 39h1M15 40h2M37 40h1M44 40h1M56 40h2M11 41h4M37 41h1M44 41h1M56 41h1M9 42h2M37 42h1M45 42h1M55 42h1M37 43h1M47 43h2M52 43h3M36 44h1M49 44h3M36 45h1M35 46h1M35 47h1M29 48h1M34 48h1M29 49h1M34 49h1M27 50h1M29 50h1M33 50h1M27 51h1M29 51h1M32 51h1M34 51h1M28 52h2M32 52h1M35 52h1M29 53h1M31 53h1M33 53h2M29 54h1M31 54h1M30 55h1" />
<path stroke="#98d048" d="M32 11h1M34 11h1M34 12h1M34 13h1M22 14h1M24 14h1M32 14h1M37 14h1M40 14h1M26 15h1M32 15h2M35 15h1M39 15h1M23 16h1M25 16h1M34 16h1M38 16h2M24 17h1M37 17h2M24 18h2M35 18h3M23 19h1M25 19h2M33 19h4M25 20h2M31 20h3M25 21h1M31 21h2M31 22h1M37 32h1M36 33h4M27 34h1M31 34h2M27 35h1M30 35h1M33 36h1M29 37h1M28 39h1M33 39h1M24 40h1M31 40h3M24 41h3M29 41h4M24 42h3M28 42h5M24 43h8M25 44h7M25 45h6M25 46h5M26 47h3M26 48h2" />
<path stroke="#f8d068" d="M28 20h1M34 21h1M26 22h1M30 22h1M33 22h3M32 23h4M31 24h1M33 24h2M36 24h1M35 25h2M31 26h1M33 26h1M35 26h1M25 27h1M30 27h6M26 28h2M31 28h4M27 29h7M30 30h2M16 35h1M14 37h2M16 38h1M30 48h1M30 49h2M30 50h2M30 51h2M30 52h2M30 53h1" />
<path stroke="#f8e8a8" d="M29 20h1M27 21h3M27 22h3M24 23h1M26 23h5M24 24h7M32 24h1M27 25h4M26 26h5M26 27h4" />
<path stroke="#d0a858" d="M30 21h1M24 22h1M23 23h1M36 23h1M23 25h1M24 26h1M36 26h1M24 27h1M36 27h1M25 28h1M28 28h1M30 28h1M35 28h1M26 29h1M34 29h1M28 30h2M32 30h1M31 31h1M34 35h4M16 36h2M24 36h1M35 36h4M16 37h4M22 37h2M38 37h2M19 38h3M35 38h1M40 38h3M35 39h2M35 40h2M34 41h3M34 42h3M33 43h4M33 44h3M32 45h4M31 46h4M30 47h5M31 48h3M32 49h2M28 50h1M32 50h1M28 51h1M33 51h1M33 52h2M30 54h1" />
<path stroke="#784088" d="M14 25h5M12 26h2M19 26h1M9 27h3M18 27h1M8 28h1M11 28h1M18 28h1M29 28h1M7 29h1M11 29h1M19 29h1M7 30h1M10 30h3M20 30h1M6 31h1M9 31h1M13 31h1M6 32h1M8 32h1M14 32h1M7 33h1M14 33h1M19 33h1M6 34h2M14 34h1M16 34h1M18 34h2M6 35h1M8 35h1M15 35h1M17 35h2M5 36h1M8 36h1M14 36h2M5 37h1M9 37h1M13 37h1M6 38h1M9 38h1M14 38h2M6 39h1M10 39h2M15 39h2M7 40h8M8 41h1" />
<path stroke="#283040" d="M51 25h2M49 26h2M53 26h1M47 27h2M54 27h2M45 28h2M44 29h1M50 29h2M55 29h1M43 30h2M49 30h1M52 30h2M56 30h1M44 31h1M48 31h1M54 31h1M45 32h1M47 32h1M49 32h2M52 32h1M55 32h1M58 32h1M45 33h1M47 33h3M51 33h3M55 33h1M45 34h1M47 34h1M49 34h2M52 34h2M55 34h1M46 35h1M50 35h3M55 35h1M58 35h1M45 36h2M54 36h1M57 36h1M43 37h2M46 37h1M54 37h1M57 37h2M43 38h1M47 38h3M53 38h1M57 38h2M43 39h1M47 39h1M50 39h3M57 39h1M48 40h2M55 40h1M50 41h2M54 41h2M46 42h1M52 42h3" />
<path stroke="#c888d8" d="M14 26h5M12 27h3M9 28h2M12 28h1M8 29h3M8 30h2M7 31h2M7 32h1M7 35h1M6 36h1M6 37h1" />
<path stroke="#908898" d="M51 26h2M49 27h5M47 28h9M46 29h2M52 29h3M50 30h2M55 30h1M53 31h1M55 31h2M53 32h1M56 32h2M54 33h1M56 33h2M54 34h1M56 34h2M56 35h1M44 38h1M44 39h1M45 40h1M45 41h1M47 42h1M49 43h1" />
<path stroke="#b060c8" d="M15 27h3M13 28h5M12 29h7M13 30h7M10 31h3M14 31h6M9 32h5M15 32h5M8 33h6M15 33h4M8 34h6M15 34h1M17 34h1M9 35h6M7 36h1M9 36h5M7 37h2M10 37h3M7 38h2M10 38h4M7 39h3M12 39h3M9 41h2" />
<path stroke="#706878" d="M45 29h1M48 29h2M45 30h4M54 30h1M43 31h1M45 31h3M49 31h4M43 32h2M46 32h1M48 32h1M51 32h1M54 32h1M42 33h3M46 33h1M50 33h1M42 34h3M46 34h1M48 34h1M51 34h1M42 35h4M47 35h3M53 35h2M57 35h1M43 36h2M47 36h7M55 36h2M58 36h1M45 37h1M47 37h7M55 37h2M45 38h2M50 38h3M54 38h3M45 39h2M48 39h2M53 39h3M46 40h2M50 40h5M46 41h4M52 41h2M48 42h4M50 43h2" />
<path stroke="#f0d048" d="M29 32h2M28 33h4M28 34h3M28 35h2M27 36h3M27 37h2M27 38h2M27 39h1M27 40h1M27 41h1" />
<path stroke="#90c090" d="M21 34h1M40 34h1M20 35h4M39 35h2M20 36h2M40 36h2M37 38h1" />
</svg>