<svg xmlns="http://www.w3.org/2000/svg" viewBox="0 -0.5 64 64" shape-rendering="crispEdges">
<metadata>Made with Pixels to Svg https://codepen.io/shshaw/pen/XbxvNj</metadata>
<path stroke="#8058a8" d="M13 6h5M21 6h2M10 7h3M26 7h1M8 8h2M30 8h1M6 9h2M35 11h1M3 12h1M2 13h1M9 13h1M16 13h1M20 14h1M30 14h1M1 15h1M5 15h1M22 15h1M1 16h1M24 16h1M0 18h1M0 19h1M29 19h1M0 20h1M41 20h1M45 20h2M0 21h1M31 21h1M48 21h4M0 22h1M42 22h3M33 23h1M38 23h13M35 24h1M37 24h5M36 25h12M37 26h12M50 26h4M39 27h8M54 27h3M41 28h6M49 28h2M42 29h13M43 30h6M45 31h5M47 32h3M55 36h3M59 37h2" />
<path stroke="#d0a8f8" d="M18 6h3M13 7h1M20 7h1M10 8h1M18 8h3M8 9h1M15 9h4M6 10h2M11 10h5M5 11h7M4 12h5M34 12h2M3 13h5M33 13h5M3 14h3M33 14h6M2 15h2M34 15h6M2 16h1M35 16h6M2 17h1M37 17h4M1 18h1M1 19h1M47 20h6M41 21h6M38 22h3" />
<path stroke="#502878" d="M23 6h3M27 7h3M31 8h1M32 9h2M5 10h1M34 10h1M4 11h1M36 11h1M37 12h1M38 13h1M39 14h1M30 15h1M40 15h1M41 16h1M26 17h1M27 18h1M28 19h1M29 20h1M30 21h1M52 21h1M31 22h1M52 22h1M0 23h1M32 23h1M51 23h1M0 24h1M34 24h1M43 24h8M0 25h1M35 25h1M48 25h1M36 26h1M37 27h1M57 27h1M39 28h1M57 28h1M41 29h1M55 29h2M42 30h1M49 30h6M43 31h2M45 32h2M54 35h4M58 36h3M61 37h2M63 38h1M56 39h7" />
<path stroke="#e0c0f8" d="M14 7h6M11 8h7M9 9h6M8 10h3" />
<path stroke="#a880d0" d="M21 7h5M21 8h9M19 9h13M16 10h18M12 11h23M9 12h25M36 12h1M8 13h1M17 13h16M2 14h1M6 14h1M21 14h8M31 14h2M4 15h1M23 15h6M31 15h3M3 16h1M25 16h10M1 17h1M27 17h10M41 17h1M28 18h15M30 19h14M30 20h11M32 21h6M47 21h1M32 22h6M41 22h1M34 23h4M36 24h1M49 27h5M47 28h2M55 28h2" />
<path stroke="#807080" d="M10 13h6M7 14h2M17 14h3M6 15h1M21 15h1M4 16h1M23 16h1M3 17h1M25 17h1M2 18h1M2 19h1M1 20h1M1 21h1M1 22h1M33 24h1M1 28h1M2 31h1M3 33h1M52 33h1M54 36h1M55 38h1M9 39h1M11 40h1M56 40h1M56 41h1M14 42h1M55 42h2M16 43h1M58 43h1M18 44h1M60 44h1M20 45h1M61 45h1M23 46h2M59 46h2M56 47h2M55 48h1M37 51h2M52 51h1M40 52h2M49 52h2M45 53h2" />
<path stroke="#d0c8d8" d="M9 14h1M13 15h1M9 16h1M13 16h1M17 16h1M6 17h1M9 17h1M9 18h1M3 19h1M20 19h1M5 20h1M20 20h1M18 21h1M21 21h1M2 22h1M18 22h1M21 22h1M2 23h1M13 23h1M22 23h1M9 24h1M13 24h1M18 24h1M22 24h1M10 25h1M23 25h1M19 26h1M24 26h1M5 27h1M11 27h4M35 27h1M2 28h1M8 28h2M11 28h4M16 28h3M36 28h1M38 28h1M7 29h4M12 29h3M16 29h5M33 29h1M35 29h1M37 29h1M39 29h2M7 30h4M12 30h4M17 30h6M31 30h2M34 30h1M36 30h1M38 30h4M3 31h1M6 31h1M8 31h4M13 31h4M18 31h6M25 31h5M33 31h1M35 31h8M8 32h4M13 32h5M19 32h6M26 32h6M33 32h12M4 33h1M7 33h1M9 33h4M14 33h5M20 33h6M28 33h5M35 33h11M9 34h5M15 34h5M21 34h7M29 34h6M36 34h9M5 35h1M10 35h5M16 35h5M22 35h7M31 35h5M38 35h7M7 36h1M11 36h5M17 36h5M24 36h7M33 36h5M40 36h5M46 36h1M48 36h1M8 37h1M12 37h5M19 37h5M25 37h8M35 37h5M42 37h4M47 37h1M49 37h1M9 38h1M14 38h4M20 38h5M27 38h2M37 38h5M46 38h1M48 38h1M50 38h1M13 39h1M15 39h5M21 39h6M36 39h1M38 39h6M45 39h1M47 39h1M49 39h1M12 40h3M17 40h4M23 40h2M35 40h1M37 40h1M39 40h1M41 40h1M46 40h1M48 40h1M50 40h1M13 41h4M18 41h4M24 41h1M36 41h1M38 41h1M40 41h1M49 41h1M16 42h2M20 42h4M25 42h1M18 43h2M22 43h3M26 43h1M55 43h2M21 44h1M23 44h1M25 44h1M57 44h2M24 45h1M26 47h4M29 48h5M54 48h1M32 49h5M53 49h1M35 50h6M51 50h2M39 51h5M49 51h2M43 52h5" />
<path stroke="#e8e0f8" d="M10 14h7M7 15h6M14 15h7M5 16h4M10 16h3M14 16h3M18 16h5M4 17h2M7 17h2M10 17h3M14 17h3M18 17h2M21 17h4M3 18h3M7 18h2M10 18h3M14 18h3M18 18h2M21 18h6M4 19h2M7 19h2M10 19h3M14 19h3M18 19h2M21 19h7M2 20h1M4 20h1M6 20h3M10 20h3M14 20h3M18 20h2M22 20h7M2 21h1M4 21h1M6 21h3M10 21h3M14 21h3M19 21h2M22 21h8M4 22h1M6 22h3M10 22h3M14 22h4M19 22h2M23 22h8M1 23h1M3 23h2M6 23h3M10 23h3M14 23h4M19 23h3M23 23h9M1 24h1M3 24h2M6 24h3M10 24h3M15 24h3M20 24h2M24 24h9M1 25h1M3 25h2M6 25h4M11 25h3M15 25h4M20 25h3M25 25h10M1 26h1M3 26h2M6 26h4M11 26h3M15 26h4M21 26h3M25 26h11M1 27h1M3 27h2M6 27h4M16 27h4M21 27h4M26 27h9M36 27h1M4 28h2M7 28h1M19 28h2M22 28h4M27 28h9M37 28h1M2 29h1M4 29h2M21 29h1M23 29h4M28 29h5M34 29h1M36 29h1M38 29h1M2 30h1M4 30h2M24 30h4M30 30h1M33 30h1M35 30h1M37 30h1M5 31h1M32 31h1M34 31h1M3 32h1M5 32h2M6 33h1M4 34h1M6 34h2M7 35h2M8 36h2M9 37h2M10 38h2M11 39h2" />
<path stroke="#000000" d="M29 14h1M29 15h1M0 26h1M0 27h1M1 29h1M1 30h1M2 32h1M3 34h1M4 35h1M5 36h1M6 37h1M7 38h1M8 39h1M10 40h1M12 41h1M13 42h1M15 43h1M17 44h1M19 45h1M21 46h1" />
<path stroke="#b0a8b0" d="M13 17h1M17 17h1M20 17h1M6 18h1M13 18h1M17 18h1M20 18h1M6 19h1M9 19h1M13 19h1M17 19h1M3 20h1M9 20h1M13 20h1M17 20h1M21 20h1M3 21h1M5 21h1M9 21h1M13 21h1M17 21h1M3 22h1M5 22h1M9 22h1M13 22h1M22 22h1M5 23h1M9 23h1M18 23h1M2 24h1M5 24h1M14 24h1M19 24h1M23 24h1M2 25h1M5 25h1M14 25h1M19 25h1M24 25h1M2 26h1M5 26h1M10 26h1M14 26h1M20 26h1M2 27h1M10 27h1M15 27h1M20 27h1M25 27h1M3 28h1M6 28h1M10 28h1M15 28h1M21 28h1M26 28h1M3 29h1M6 29h1M11 29h1M15 29h1M22 29h1M27 29h1M3 30h1M6 30h1M11 30h1M16 30h1M23 30h1M28 30h2M4 31h1M7 31h1M12 31h1M17 31h1M24 31h1M30 31h2M4 32h1M7 32h1M12 32h1M18 32h1M25 32h1M32 32h1M51 32h1M5 33h1M8 33h1M13 33h1M19 33h1M26 33h2M33 33h2M50 33h2M5 34h1M8 34h1M14 34h1M20 34h1M28 34h1M35 34h1M46 34h7M6 35h1M9 35h1M15 35h1M21 35h1M29 35h2M36 35h2M46 35h7M6 36h1M10 36h1M16 36h1M22 36h2M31 36h2M38 36h2M47 36h1M49 36h5M7 37h1M11 37h1M17 37h2M24 37h1M33 37h2M40 37h2M46 37h1M48 37h1M50 37h4M8 38h1M12 38h2M18 38h2M25 38h2M29 38h8M42 38h2M45 38h1M47 38h1M49 38h1M51 38h4M10 39h1M14 39h1M20 39h1M27 39h9M37 39h1M46 39h1M48 39h1M50 39h5M15 40h2M21 40h2M25 40h10M36 40h1M38 40h1M40 40h1M42 40h1M44 40h2M47 40h1M49 40h1M51 40h5M17 41h1M22 41h2M25 41h11M37 41h1M39 41h1M41 41h1M43 41h6M50 41h6M15 42h1M18 42h2M24 42h1M26 42h15M42 42h11M17 43h1M20 43h2M25 43h1M27 43h12M41 43h13M19 44h1M22 44h1M24 44h1M26 44h10M39 44h16M56 44h1M25 45h7M36 45h20M57 45h4M32 46h24M57 46h1M30 47h25M34 48h20M37 49h16M41 50h10M44 51h5" />
<path stroke="#704898" d="M42 17h1M43 18h1M44 19h1M47 19h7M42 20h3M53 20h1M38 21h3M45 22h7M42 24h1M49 26h1M38 27h1M47 27h2M40 28h1M51 28h4M50 31h1M50 32h1M47 33h3M55 37h4M56 38h7M63 39h1" />
<path stroke="#504848" d="M51 31h1M52 32h1M53 33h1M53 34h1M59 43h1M22 46h1M24 47h2M26 48h3M29 49h2M32 50h2M35 51h2M39 52h1M43 53h2" />
<path stroke="#b098a8" d="M46 33h1M45 34h1M45 35h1M53 35h1M45 36h1M54 37h1M44 38h1M44 39h1M55 39h1M43 40h1M42 41h1M41 42h1M53 42h2M39 43h2M54 43h1M57 43h1M20 44h1M36 44h3M55 44h1M59 44h1M21 45h3M32 45h4M56 45h1M25 46h7M56 46h1M58 46h1M55 47h1M31 49h1M54 49h1M34 50h1M53 50h1M51 51h1M42 52h1M48 52h1M47 53h1" />
</svg>