<svg xmlns="http://www.w3.org/2000/svg" viewBox="0 -0.5 64 64" shape-rendering="crispEdges">
<metadata>Made with Pixels to Svg https://codepen.io/shshaw/pen/XbxvNj</metadata>
<path stroke="#b0a8a8" d="M6 1h2M5 2h1M5 3h1M23 3h1M5 4h1M20 4h1M4 6h1M22 6h1M4 7h1M19 7h1M4 8h1M9 8h2M4 9h1M7 9h1M18 10h1M17 13h1M16 15h1M14 28h1M37 33h1M18 34h1M29 34h3M38 34h1M18 35h1M28 35h1M32 35h1M39 35h1M18 36h1M35 36h1M29 38h1M31 41h1M33 41h1M30 43h2M17 44h2M32 44h1M16 45h2M16 46h1M11 48h1M11 49h1M7 50h1M2 52h1M12 52h1M1 53h1M8 53h1M7 56h1M2 57h1M4 57h1M6 57h1M3 58h1" />
<path stroke="#f0f0f0" d="M6 2h1M6 3h1M8 3h1M21 3h1M6 4h1M21 4h1M23 4h1M6 5h1M20 5h1M5 6h1M20 6h1M5 7h1M20 7h1M5 8h1M19 8h1M5 9h1M8 9h3M19 9h1M6 10h7M19 10h1M18 11h1M18 12h1M18 13h1M3 15h2M3 16h2M2 17h2M12 17h1M1 18h3M1 19h3M2 20h1M2 21h1M15 28h1M16 29h2M17 30h3M18 31h3M19 32h3M20 33h4M25 33h1M19 34h4M24 34h1M17 35h1M19 35h5M25 35h1M29 35h3M17 36h1M19 36h4M24 36h1M29 36h5M16 37h2M19 37h3M23 37h1M25 37h1M30 37h4M16 38h3M20 38h1M24 38h1M31 38h3M16 39h3M33 39h1M17 40h2M18 41h1M12 48h2M9 49h2M12 49h2M8 50h3M12 50h2M6 51h1M8 51h4M13 51h1M5 52h3M9 52h3M2 53h1M4 53h4M9 53h2M4 54h5M4 56h1" />
<path stroke="#908890" d="M7 2h2M21 2h1M7 3h1M20 3h1M22 3h1M7 4h1M22 4h1M19 5h1M22 5h1M19 6h1M11 8h2M18 8h1M6 9h1M18 9h1M4 10h2M23 11h1M17 12h1M16 14h1M21 17h1M21 18h1M20 19h1M9 26h1M12 27h1M19 33h1M17 34h1M16 35h1M33 35h1M28 36h1M34 36h1M15 37h1M28 37h1M35 37h2M40 37h1M15 38h1M19 38h1M34 38h1M37 38h1M39 38h1M15 39h1M19 39h1M29 39h1M34 39h1M19 40h1M30 40h1M16 41h1M34 41h1M17 42h1M32 42h1M17 43h2M32 43h1M16 44h1M33 44h1M14 48h1" />
<path stroke="#101010" d="M9 3h1M9 4h1M9 5h1M24 5h1M9 6h1M24 6h1M9 7h1M24 7h1M24 8h1M13 9h2M24 9h1M15 10h2M24 10h1M17 11h1M23 12h1M23 13h1M63 13h1M23 14h1M61 14h2M22 15h1M59 15h1M22 16h1M60 16h1M22 17h1M59 17h1M22 18h1M57 18h1M23 19h1M10 20h1M23 20h1M56 20h1M24 21h1M55 21h1M24 22h1M25 23h1M54 23h1M26 24h1M27 25h1M53 25h1M5 26h4M28 26h1M52 26h1M10 27h2M29 27h1M13 28h1M51 28h1M14 29h2M50 29h1M16 30h1M49 30h1M17 31h1M49 31h1M18 32h1M18 33h1M48 33h1M47 35h1M47 39h1M48 41h1M48 42h1M19 44h1M34 44h1M49 44h1M18 45h1M34 45h2M44 45h1M49 45h1M17 46h1M35 46h1M44 46h1M49 46h1M16 47h1M36 47h1M44 47h1M49 47h1M37 48h1M44 48h1M15 49h1M38 49h2M43 49h1M48 49h3M4 50h1M15 50h1M40 50h3M51 50h1M3 51h1M14 51h1M24 51h1M50 51h1M13 52h1M25 52h1M51 52h1M12 53h1M27 53h1M10 54h1M29 54h2M51 54h2M1 55h3M8 55h1M32 55h2M37 55h2M34 56h3M39 56h1M32 57h1M35 57h1M40 57h1M31 58h1M34 58h1M41 58h1M51 58h2M43 59h1M46 59h2M44 60h1M46 60h1M48 60h1M49 61h2" />
<path stroke="#cccccc" d="M8 4h1M5 5h1M7 5h2M21 5h1M23 5h1M6 6h3M21 6h1M23 6h1M6 7h3M21 7h3M6 8h3M20 8h4M11 9h2M20 9h4M13 10h2M20 10h4M12 11h5M19 11h4M14 12h3M19 12h4M16 13h1M19 13h4M17 14h6M5 15h1M17 15h5M5 16h2M16 16h6M1 17h1M4 17h3M16 17h5M4 18h3M15 18h6M4 19h2M15 19h5M21 19h2M1 20h1M3 20h3M14 20h9M3 21h2M13 21h11M3 22h1M12 22h12M11 23h14M9 24h17M7 25h20M10 26h18M13 27h16M16 28h14M18 29h13M20 30h13M21 31h14M22 32h14M24 33h1M26 33h11M23 34h1M25 34h4M32 34h6M24 35h1M26 35h2M34 35h5M16 36h1M23 36h1M25 36h3M36 36h4M18 37h1M22 37h1M24 37h1M26 37h2M29 37h1M34 37h1M37 37h3M23 38h1M25 38h4M30 38h1M38 38h1M24 39h5M30 39h3M16 40h1M25 40h5M31 40h4M17 41h1M27 41h4M32 41h1M18 42h1M28 42h4M14 49h1M11 50h1M14 50h1M7 51h1M12 51h1M8 52h1M5 55h2" />
<path stroke="#48c8a0" d="M61 5h2M60 6h1M59 10h1M5 11h1M8 11h2M55 11h1M58 11h2M8 12h4M56 12h3M7 13h7M55 13h8M6 14h9M54 14h6M6 15h10M53 15h6M7 16h5M13 16h2M52 16h8M7 17h4M14 17h1M51 17h7M7 18h3M50 18h7M6 19h3M13 19h1M49 19h7M6 20h3M48 20h8M5 21h4M11 21h1M44 21h1M47 21h8M4 22h7M42 22h2M46 22h8M4 23h5M42 23h1M46 23h8M4 24h3M45 24h8M4 25h1M44 25h9M44 26h8M43 27h8M42 28h1M44 28h7M43 29h1M45 29h5M35 30h1M42 30h1M44 30h5M36 31h2M43 31h1M45 31h4M38 32h2M44 32h4M39 33h3M44 33h4M40 34h7M41 35h6M41 36h5M42 37h4M42 38h4M36 39h4M41 39h1M44 39h3M23 40h1M40 40h1M42 40h2M45 40h2M23 41h2M43 41h5M23 42h4M43 42h5M21 43h1M23 43h5M42 43h1M44 43h3M20 44h1M24 44h6M42 44h1M44 44h3M26 45h6M41 45h2M45 45h1M28 46h6M39 46h4M12 47h3M23 47h3M29 47h6M37 47h6M9 48h2M24 48h2M30 48h6M39 48h3M7 49h2M25 49h1M30 49h7M5 50h2M29 50h7M4 51h1M26 51h9M48 51h1M3 52h1M28 52h4M47 52h4M46 53h7M47 54h3M39 55h1M48 55h3M40 56h1M50 56h2M41 57h1M51 57h2M43 58h1M44 59h1M45 60h1" />
<path stroke="#b8f8f8" d="M61 6h1M60 7h1M59 8h1M58 9h1M57 10h1M56 11h1M5 12h2M54 12h1M4 13h2M53 13h1M4 14h2M52 14h1M51 15h1M2 16h1M50 16h1M49 17h1M48 18h1M47 19h1M46 20h1M45 21h1M44 22h1M3 23h1M43 23h1M41 24h2M40 25h2M30 26h2M39 26h2M32 27h2M37 27h3M21 39h2M21 40h1M36 40h2M22 41h1M37 41h2M21 42h1M38 42h2M39 43h1M40 44h1" />
<path stroke="#006040" d="M62 6h1M62 7h1M61 8h1M61 9h1M60 10h1M3 11h1M60 11h1M59 12h4M2 13h1M60 14h1M1 15h1M12 16h1M15 16h1M11 17h1M15 17h1M58 17h1M10 18h1M14 19h1M56 19h1M9 20h1M13 20h1M9 21h1M1 22h1M54 22h1M10 23h1M26 23h2M8 24h1M28 24h3M53 24h1M3 25h1M6 25h1M31 25h2M4 26h1M33 26h2M37 26h1M35 27h2M51 27h1M30 28h1M31 29h1M33 30h1M35 31h1M36 32h1M48 32h1M38 33h1M39 34h1M47 34h1M40 35h1M40 36h1M46 36h1M41 37h1M46 37h1M22 38h1M46 38h1M23 39h1M24 40h1M35 40h1M41 40h1M47 40h1M26 41h1M42 41h1M27 42h1M34 42h1M42 42h1M29 43h1M34 43h1M43 43h1M48 43h1M31 44h1M43 44h1M20 45h1M32 45h2M12 46h4M9 47h2M15 47h1M21 47h1M7 48h1M16 48h1M43 48h1M48 48h1M5 49h1M22 49h1M23 50h1M47 50h1M47 51h1M49 51h1M26 52h1M36 52h1M46 52h1M52 52h1M11 53h1M25 53h2M28 53h1M37 53h1M44 53h2M53 53h1M9 54h1M26 54h3M31 54h1M38 54h1M41 54h3M7 55h1M25 55h1M27 55h5M34 55h1M2 56h1M5 56h1M26 56h8M52 56h1M25 57h1M27 57h5M34 57h1M49 57h1M53 57h1M26 58h1M28 58h2M42 58h1M46 58h1M50 58h1M25 59h1M28 59h1M50 59h1M50 60h1M45 61h1" />
<path stroke="#20a078" d="M59 7h1M58 8h1M57 9h1M56 10h1M4 11h1M10 11h2M54 11h1M3 12h1M12 12h2M14 13h2M2 14h1M15 14h1M1 16h1M13 17h1M13 18h2M9 19h1M12 20h1M1 21h1M12 21h1M11 22h1M2 23h1M9 23h1M41 23h1M2 24h1M7 24h1M40 24h1M5 25h1M39 25h1M38 26h1M37 28h1M32 29h1M38 29h1M34 30h1M37 32h1M21 38h1M41 38h1M20 39h1M42 39h2M20 40h1M44 40h1M19 41h1M25 41h1M35 41h1M41 41h1M19 42h1M19 43h1M22 43h1M28 43h1M47 43h1M30 44h1M47 44h2M43 45h1M46 45h3M23 46h1M34 46h1M43 46h1M45 46h4M11 47h1M35 47h1M43 47h1M45 47h4M8 48h1M15 48h1M22 48h1M26 48h2M36 48h1M38 48h1M42 48h1M45 48h3M6 49h1M23 49h1M26 49h1M29 49h1M37 49h1M40 49h3M44 49h4M28 50h1M36 50h4M43 50h4M48 50h3M5 51h1M25 51h1M35 51h12M4 52h1M27 52h1M32 52h4M37 52h9M3 53h1M29 53h8M38 53h6M3 54h1M25 54h1M32 54h6M39 54h2M44 54h3M50 54h1M4 55h1M26 55h1M35 55h2M40 55h8M51 55h1M25 56h1M41 56h9M26 57h1M42 57h7M50 57h1M25 58h1M44 58h2M47 58h3M45 59h1M48 59h2M49 60h1" />
<path stroke="#a8e8d8" d="M61 7h1M60 8h1M59 9h2M58 10h1M6 11h2M57 11h1M4 12h1M7 12h1M53 12h1M55 12h1M3 13h1M6 13h1M52 13h1M54 13h1M3 14h1M51 14h1M53 14h1M2 15h1M50 15h1M52 15h1M49 16h1M51 16h1M48 17h1M50 17h1M47 18h1M49 18h1M46 19h1M48 19h1M45 20h1M47 20h1M46 21h1M2 22h1M45 22h1M44 23h2M3 24h1M27 24h1M43 24h2M28 25h3M42 25h2M29 26h1M32 26h1M41 26h3M30 27h2M34 27h1M40 27h3M31 28h6M38 28h4M43 28h1M33 29h5M39 29h4M44 29h1M36 30h6M43 30h1M38 31h5M44 31h1M40 32h4M42 33h2M22 40h1M38 40h2M20 41h2M36 41h1M39 41h2M20 42h1M22 42h1M35 42h3M40 42h2M20 43h1M35 43h4M40 43h2M35 44h5M41 44h1M36 45h5M22 46h1M36 46h3M22 47h1M23 48h1M24 49h1" />
<path stroke="#f8a040" d="M11 18h1M11 20h1M10 21h1M23 44h1M23 45h3M21 46h1M24 46h4M26 47h3M28 48h2M27 49h2M25 50h3" />
<path stroke="#f8f8f8" d="M12 18h1M10 19h1M12 19h1M35 38h2M40 38h1M35 39h1M40 39h1M33 42h1M33 43h1M1 54h2M3 56h1M6 56h1M3 57h1" />
<path stroke="#b05000" d="M11 19h1" />
<path stroke="#e07828" d="M21 44h2M21 45h2M24 50h1" />
</svg>