<svg xmlns="http://www.w3.org/2000/svg" viewBox="0 -0.5 64 64" shape-rendering="crispEdges">
<metadata>Made with Pixels to Svg https://codepen.io/shshaw/pen/XbxvNj</metadata>
<path stroke="#284000" d="M56 3h4M55 4h1M58 4h1M53 5h1M52 6h1M54 6h1M51 7h1M3 8h3M50 8h1M4 9h1M8 9h1M49 9h1M10 10h1M48 10h1M8 11h1M11 11h1M47 11h1M12 12h1M46 12h1M13 13h1M45 13h1M14 14h1M44 14h1M15 15h1M43 15h1M16 16h1M42 16h1M44 16h1M17 17h1M43 19h1M19 21h1M21 21h1M44 21h1M19 22h1M44 22h1M44 23h1M44 24h1M32 25h1M44 25h1M19 26h1M32 26h1M44 26h1M33 27h1M44 27h1M31 28h1M33 28h2M44 28h1M29 29h1M37 29h1M43 29h1M45 29h1M27 30h1M26 31h1M38 31h1M23 32h1M25 32h1M39 32h1M19 33h1M23 33h2M34 33h2M39 33h1M40 34h1M23 35h1M38 35h1M24 36h1M22 37h1M24 37h1M27 37h1M39 37h1M24 38h1M39 38h1M24 39h2M40 40h1M42 40h1M26 42h1M50 42h1M43 43h1M49 43h1M27 44h1M41 44h1M49 44h1M52 44h1M44 45h3M48 45h1M28 46h1M47 46h2M51 46h1M46 47h1M29 48h1M41 48h1M47 48h2M29 49h1M43 49h1M29 50h2M39 50h1M42 50h1M28 51h1M30 51h1M38 51h1M28 52h1M31 52h1M35 52h2M49 52h1M27 53h1M33 53h2M39 53h1M27 54h1M29 54h1M35 54h1M27 55h1M26 56h2M23 57h3M22 58h1M22 59h1M26 59h1M23 60h1M31 60h1" />
<path stroke="#506800" d="M54 4h1M56 4h2M54 5h2M53 6h1M52 7h1M6 8h1M51 8h1M5 9h3M50 9h1M7 10h3M49 10h1M9 11h2M48 11h1M11 12h1M47 12h1M12 13h1M46 13h1M13 14h1M45 14h1M14 15h1M44 15h1M15 16h1M43 16h1M16 17h1M43 17h1M17 18h1M43 18h1M18 19h1M44 19h1M19 20h1M44 20h1M20 21h1M45 21h1M20 22h1M45 22h1M19 23h2M45 23h1M19 24h1M45 24h1M18 25h2M45 25h1M18 26h1M33 26h1M45 26h1M18 27h1M32 27h1M34 27h1M45 27h1M18 28h1M32 28h1M35 28h1M45 28h1M18 29h1M30 29h1M32 29h5M44 29h1M18 30h1M28 30h1M32 30h1M35 30h3M44 30h1M18 31h1M22 31h2M35 31h3M43 31h1M18 32h1M22 32h1M24 32h1M31 32h1M34 32h5M42 32h1M18 33h1M22 33h1M31 33h3M36 33h3M40 33h2M18 34h2M23 34h1M30 34h3M38 34h2M19 35h2M29 35h2M39 35h1M20 36h1M27 36h2M39 36h1M21 37h1M40 37h1M22 38h2M40 38h1M40 39h1M41 40h1M41 41h1M41 42h1M52 42h1M41 43h2M51 43h2M42 44h1M51 44h1M42 45h1M50 45h2M42 46h1M44 46h3M50 46h1M42 47h1M47 47h2M50 47h1M42 48h1M50 48h1M31 49h1M41 49h2M50 49h1M31 50h2M40 50h2M50 50h1M29 51h1M32 51h2M39 51h3M49 51h2M29 52h1M33 52h2M37 52h4M29 53h1M35 53h4M30 57h1M28 58h5M23 59h3M31 59h2" />
<path stroke="#882820" d="M56 5h1M58 5h1M55 6h1M57 6h1M5 10h1M5 11h1M56 11h1M6 12h1M55 12h1M6 13h1M7 14h1M7 15h1M7 16h1M45 16h1M8 17h1M45 17h1M8 18h1M45 18h1M45 19h3M55 19h1M18 20h1M45 20h5M56 20h1M18 21h1M46 21h1M50 21h2M18 22h1M46 22h1M52 22h2M17 23h2M46 23h1M54 23h2M8 24h1M16 24h3M46 24h1M56 24h2M7 25h1M14 25h4M46 25h1M58 25h2M12 26h2M17 26h1M46 26h1M10 27h2M17 27h1M46 27h1M8 28h2M17 28h1M46 28h1M6 29h2M17 29h1M46 29h1M53 29h1M4 30h2M17 30h1M45 30h3M17 31h1M47 31h1M52 31h1M7 32h1M17 32h1M48 32h1M9 33h1M17 33h1M49 33h1M10 34h1M17 34h1M50 34h1M17 35h2M51 35h1M11 36h1M17 36h3M43 36h1M49 36h1M16 37h1M20 37h1M41 37h2M50 37h1M12 38h1M16 38h1M21 38h1M15 39h1M22 39h2M15 40h1M14 41h1M18 41h1M22 41h1M13 42h2M23 42h1M14 43h1" />
<path stroke="#e88880" d="M57 5h1M56 6h1M54 7h3M53 8h4M52 9h4M6 10h1M51 10h5M6 11h2M50 11h6M7 12h3M49 12h6M7 13h4M48 13h7M8 14h4M47 14h8M8 15h5M46 15h9M8 16h6M46 16h9M9 17h6M46 17h9M9 18h7M46 18h9M9 19h8M48 19h7M9 20h5M15 20h1M17 20h1M50 20h6M10 21h1M12 21h1M14 21h1M16 21h1M47 21h2M52 21h4M9 22h1M11 22h1M47 22h1M49 22h1M54 22h3M47 23h2M56 23h2M47 24h1M49 24h1M58 24h1M48 25h1M14 26h3M47 26h1M49 26h1M12 27h5M47 27h2M50 27h1M10 28h7M47 28h3M51 28h1M8 29h9M47 29h4M52 29h1M6 30h11M48 30h3M52 30h1M6 31h7M14 31h1M16 31h1M48 31h4M8 32h4M13 32h1M15 32h1M44 32h1M49 32h3M10 33h1M12 33h1M43 33h1M45 33h1M50 33h2M42 34h3M46 34h1M51 34h1M41 35h5M41 36h2M17 37h3M17 38h4M16 39h2M20 39h2M16 40h2M22 40h3M15 41h3M23 41h2M15 42h1" />
<path stroke="#000000" d="M53 7h1M57 7h1M52 8h1M57 8h1M51 9h1M56 9h1M50 10h1M56 10h1M49 11h1M10 12h1M48 12h1M11 13h1M47 13h1M55 13h1M12 14h1M46 14h1M55 14h1M13 15h1M45 15h1M55 15h1M14 16h1M55 16h1M15 17h1M42 17h1M44 17h1M55 17h1M16 18h1M18 18h1M42 18h1M44 18h1M55 18h1M8 19h1M17 19h1M19 19h1M8 20h1M20 20h1M8 21h1M56 21h1M8 22h1M21 22h1M57 22h1M8 23h1M58 23h1M20 24h1M59 24h1M20 25h1M33 25h1M60 25h1M7 26h1M34 26h1M58 26h2M6 27h1M19 27h1M35 27h1M56 27h2M5 28h1M19 28h1M36 28h1M54 28h2M4 29h1M19 29h1M3 30h1M19 30h1M22 30h2M43 30h1M53 30h1M4 31h2M19 31h1M24 31h1M33 31h1M42 31h1M44 31h1M6 32h1M19 32h1M40 32h2M43 32h1M52 32h1M8 33h1M42 33h1M52 33h1M20 34h1M26 34h1M33 34h1M36 34h2M41 34h1M52 34h1M10 35h1M31 35h4M36 35h2M40 35h1M52 35h1M21 36h1M29 36h10M40 36h1M44 36h5M52 36h1M11 37h1M23 37h1M28 37h11M51 37h2M29 38h10M41 38h1M12 39h1M27 39h1M29 39h11M41 39h1M12 40h1M25 40h1M27 40h13M12 41h1M19 41h3M25 41h1M28 41h9M39 41h2M42 41h1M51 41h2M16 42h2M24 42h2M28 42h8M40 42h1M42 42h1M53 42h1M13 43h1M15 43h1M26 43h1M28 43h8M40 43h1M53 43h1M14 44h1M29 44h6M40 44h1M43 44h1M27 45h1M29 45h6M41 45h1M43 45h1M52 45h1M30 46h5M41 46h1M43 46h1M28 47h1M30 47h5M38 47h4M43 47h3M51 47h1M31 48h4M38 48h1M43 48h1M51 48h1M32 49h5M39 49h1M48 49h1M51 49h1M33 50h2M36 50h1M38 50h1M48 50h1M51 50h1M31 51h1M34 51h1M37 51h1M42 51h1M48 51h1M51 51h1M30 52h1M32 52h1M41 52h1M50 52h1M30 53h1M40 53h1M36 54h3M29 55h1M29 56h2M31 57h2M33 58h1M27 59h4M33 59h1M24 60h2M32 60h1" />
<path stroke="#f8b0a8" d="M14 20h1M16 20h1M9 21h1M11 21h1M13 21h1M15 21h1M17 21h1M49 21h1M10 22h1M12 22h6M48 22h1M50 22h2M9 23h8M49 23h5M9 24h7M48 24h1M50 24h6M8 25h6M47 25h1M49 25h9M8 26h4M48 26h1M50 26h8M7 27h3M49 27h1M51 27h5M6 28h2M50 28h1M52 28h2M5 29h1M51 29h1M51 30h1M13 31h1M15 31h1M45 31h2M12 32h1M14 32h1M16 32h1M45 32h3M11 33h1M13 33h4M44 33h1M46 33h3M11 34h6M45 34h1M47 34h3M11 35h6M46 35h5M12 36h5M50 36h2M12 37h4M13 38h3M13 39h2M18 39h2M13 40h2M18 40h4M13 41h1" />
<path stroke="#789000" d="M31 29h1M29 30h3M27 31h5M26 32h5M25 33h6M29 34h1M28 35h1M51 42h1M27 43h1M50 43h1M28 44h1M50 44h1M28 45h1M49 45h1M29 46h1M49 46h1M29 47h1M49 47h1M30 48h1M49 48h1M30 49h1M49 49h1M49 50h1M28 53h1M28 54h1M28 55h1M28 56h1M26 57h4M23 58h5" />
<path stroke="#cccccc" d="M33 30h2M32 31h1M34 34h2M40 49h1M36 51h1" />
<path stroke="#f8f8f8" d="M34 31h1M32 32h2M25 34h1M27 34h2M26 35h2M35 35h1M27 38h2M28 39h1M39 48h2M35 50h1M35 51h1" />
<path stroke="#a0b838" d="M24 34h1M24 35h2M25 36h2M25 37h2M25 38h2M26 39h1M26 40h1M26 41h2M27 42h1" />
<path stroke="#666666" d="M37 41h2M36 42h4M36 43h4M35 44h5M35 45h6M35 46h6M35 47h3M35 48h3M37 49h2M37 50h1" />
</svg>