<svg xmlns="http://www.w3.org/2000/svg" viewBox="0 -0.5 64 64" shape-rendering="crispEdges">
<metadata>Made with Pixels to Svg https://codepen.io/shshaw/pen/XbxvNj</metadata>
<path stroke="#b0a068" d="M28 12h1M43 12h1M23 13h1M42 13h1M22 14h2M26 14h1M40 14h1M21 15h1M38 15h1M19 16h1M37 16h1M37 17h1M48 17h4M36 18h1M49 18h2M18 19h1M50 19h1M27 20h2M26 21h2M37 22h1M49 22h1M48 23h1M46 24h3M43 25h5M45 26h2M17 29h1M25 29h2M14 30h1M17 33h1M26 33h1M17 34h1M24 36h3M30 40h2M25 41h1M28 41h2M38 41h2M23 42h1M26 42h1M29 42h2M38 42h1M22 43h2M26 43h4M24 44h1M26 44h1M30 44h1M26 45h1" />
<path stroke="#706020" d="M29 12h1M44 12h3M27 13h1M29 13h1M41 13h1M47 13h2M25 14h1M29 14h1M39 14h1M20 15h1M23 15h2M29 15h1M50 15h1M23 16h1M29 16h1M52 16h1M19 17h1M28 17h1M47 17h1M19 18h1M48 18h1M36 19h1M49 19h1M51 19h2M18 20h1M36 20h1M50 20h1M18 21h1M36 21h1M19 22h1M24 22h1M19 23h1M21 23h3M37 23h1M49 23h1M15 24h2M20 24h1M38 24h1M14 25h2M32 25h3M14 26h2M31 26h5M15 27h1M30 27h6M31 28h4M18 29h1M22 29h3M14 31h1M14 32h1M15 33h1M18 33h5M16 34h1M23 34h3M17 35h1M19 36h1M21 36h3M20 37h1M19 38h1M18 39h1M20 40h1M30 41h1M30 43h1M21 44h3M29 44h1M25 45h1M31 45h1" />
<path stroke="#f8f8f0" d="M28 13h1M27 14h2M41 14h3M22 15h1M25 15h4M39 15h5M20 16h3M25 16h2M38 16h6M20 17h3M38 17h6M20 18h3M37 18h6M19 19h3M37 19h5M37 20h1M37 21h1M26 26h1M17 27h1M25 27h2M17 28h1M23 28h1M25 28h2M19 29h1M48 45h1M50 45h1M48 46h1M17 49h1M19 49h1M19 50h1M33 50h1M37 50h1M33 51h1M37 51h1" />
<path stroke="#f8f0b0" d="M43 13h4M44 14h4M44 15h4M27 16h2M44 16h2M23 17h1M25 17h3M44 17h2M23 18h5M43 18h4M22 19h2M26 19h1M42 19h4M19 20h5M38 20h6M45 20h1M19 21h4M38 21h5M44 21h1M46 21h1M20 22h1M40 22h4M20 23h1M16 29h1M15 30h4M22 30h6M15 31h13M15 32h13M16 33h1M23 33h3M24 37h1M26 37h1M20 38h4M25 38h1M19 39h6M21 40h2M22 41h1" />
<path stroke="#e0d090" d="M48 14h1M48 15h2M24 16h1M46 16h6M24 17h1M46 17h1M28 18h2M47 18h1M24 19h2M27 19h2M46 19h3M24 20h3M44 20h1M46 20h4M23 21h3M43 21h1M45 21h1M47 21h3M21 22h3M38 22h2M44 22h5M38 23h10M39 24h7M27 29h2M28 30h2M28 31h2M28 32h2M27 33h3M18 34h5M26 34h3M19 35h9M27 36h3M21 37h3M25 37h1M27 37h6M24 38h1M26 38h6M25 39h6M23 40h7M23 41h2M26 41h2M22 42h1M24 42h2M27 42h2M24 43h2M25 44h1" />
<path stroke="#101010" d="M49 14h1M51 15h1M53 16h1M52 17h1M30 18h1M51 18h1M29 19h1M29 20h1M28 21h1M50 21h1M25 22h3M50 22h1M31 24h3M49 24h1M30 25h2M38 25h3M48 25h1M18 26h1M24 26h1M30 26h1M38 26h5M47 26h1M13 27h1M18 27h1M23 27h2M38 27h1M40 27h4M46 27h1M14 28h1M18 28h1M24 28h1M37 28h3M42 28h3M46 28h1M21 29h1M35 29h6M43 29h3M19 30h3M33 30h4M38 30h4M44 30h1M47 30h1M34 31h4M39 31h2M35 32h4M47 32h1M36 33h1M38 33h1M47 33h2M36 34h1M47 34h2M18 35h1M47 35h2M20 36h1M46 36h2M33 37h1M42 37h1M46 37h1M48 37h2M32 38h1M41 38h1M48 38h2M31 39h1M40 39h2M47 39h3M19 40h1M32 40h1M39 40h1M42 40h1M47 40h2M50 40h1M20 41h2M31 41h1M40 41h1M43 41h1M47 41h2M50 41h1M21 42h1M39 42h1M21 43h1M31 43h1M37 43h3M44 43h1M18 44h1M27 44h2M31 44h1M36 44h2M51 44h1M18 45h1M20 45h3M24 45h1M27 45h1M30 45h1M35 45h3M51 45h1M17 46h1M19 46h3M24 46h1M26 46h1M35 46h2M49 46h2M18 47h2M23 47h1M35 47h1M47 47h2M22 48h1M22 49h1M17 50h2M20 50h2M38 50h1M19 51h1M32 51h1M35 51h1M38 51h1M33 52h2M36 52h2" />
<path stroke="#785800" d="M29 21h1M15 22h1M17 22h2M30 22h3M13 23h1M17 23h1M29 23h1M35 23h1M36 24h1M12 25h1M16 25h2M25 25h3M37 25h1M41 25h2M12 26h1M16 26h1M37 26h1M43 26h2M16 27h1M19 27h1M37 27h1M45 27h1M16 28h1M19 28h1M22 28h1M36 28h1M41 28h1M15 29h1M34 29h1M31 30h2M32 31h1M42 31h1M47 31h1M40 32h1M35 33h1M30 34h1M29 35h2M43 35h1M46 35h1M30 36h2M43 36h1M45 36h1M48 36h1M38 37h1M38 38h1M42 38h1M38 39h1M42 39h1M38 40h1M37 41h1M31 42h1M37 42h1M44 42h1M50 42h1M19 43h1M50 43h2M45 44h1M48 44h1M45 45h1M47 45h1M49 45h1M46 46h2M17 47h1M31 47h1M38 47h1M16 48h1M31 48h1M38 48h1M16 49h1M18 49h1M20 49h1M31 49h1M33 49h1M37 49h2M31 50h2M34 50h1M36 50h1M34 51h1M36 51h1" />
<path stroke="#b89800" d="M16 22h1M33 22h1M14 23h1M34 23h1M12 24h1M19 24h1M24 25h1M23 26h1M27 26h1M14 27h1M27 27h1M36 27h1M39 27h1M44 27h1M15 28h1M27 28h1M29 28h2M35 28h1M40 28h1M45 28h1M29 29h5M41 29h2M46 29h1M30 30h1M37 30h1M42 30h2M45 30h2M30 31h2M33 31h1M38 31h1M41 31h1M43 31h4M30 32h5M39 32h1M41 32h6M30 33h5M37 33h1M39 33h8M29 34h1M31 34h5M37 34h10M28 35h1M31 35h12M44 35h2M32 36h11M44 36h1M35 37h3M39 37h3M43 37h3M47 37h1M36 38h2M39 38h2M47 38h1M36 39h2M39 39h1M36 40h2M46 40h1M49 40h1M36 41h1M49 41h1M19 42h1M35 42h2M49 42h1M35 43h2M49 43h1M35 44h1M49 44h1M23 45h1M22 46h2M31 46h1M37 46h1M20 47h3M36 47h2M17 48h1M19 48h3M35 48h3M21 49h1M35 49h2M35 50h1" />
<path stroke="#e0c028" d="M28 22h2M18 23h1M24 23h5M30 23h1M17 24h2M21 24h2M25 24h5M19 25h3M28 25h2M35 25h2M19 26h3M28 26h2M36 26h1M20 27h3M28 27h2M20 28h2M28 28h1M34 37h1M33 38h3M43 38h4M32 39h4M43 39h1M46 39h1M33 40h3M43 40h1M34 41h2M44 41h1M20 42h1M34 42h1M45 42h2M48 42h1M20 43h1M32 43h1M34 43h1M45 43h4M19 44h2M33 44h2M46 44h2M46 45h1M32 46h1M32 47h2M18 48h1M32 48h3M32 49h1M34 49h1" />
<path stroke="#f8e850" d="M15 23h2M31 23h3M13 24h2M23 24h2M30 24h1M34 24h2M13 25h1M18 25h1M22 25h2M13 26h1M22 26h1M44 39h2M44 40h2M32 41h2M45 41h1M32 42h2M33 43h1" />
<path stroke="#e0e0e0" d="M37 24h1" />
<path stroke="#d8d8d0" d="M17 26h1M25 26h1M50 44h1" />
<path stroke="#505050" d="M20 29h1M46 41h1M47 42h1M32 44h1M19 45h1M32 45h3M18 46h1M33 46h2M34 47h1" />
</svg>