<svg xmlns="http://www.w3.org/2000/svg" viewBox="0 -0.5 64 64" shape-rendering="crispEdges">
<metadata>Made with Pixels to Svg https://codepen.io/shshaw/pen/XbxvNj</metadata>
<path stroke="#503060" d="M15 5h4M14 6h1M20 6h2M23 7h2M45 7h2M45 8h1M47 8h1M28 9h1M47 9h1M30 10h1M44 10h1M48 10h1M32 11h1M44 11h1M34 12h1M35 13h1M43 13h1M37 14h1M50 14h1M39 15h1M50 15h1M30 16h1M43 16h1M30 17h1M46 17h1M51 17h1M26 18h1M30 18h1M51 18h1M56 18h1M22 19h4M51 19h1M15 20h6M31 20h1M52 20h1M7 21h8M24 21h3M31 21h1M52 21h1M56 21h1M23 22h1M27 22h1M50 22h1M52 22h1M55 22h1M8 23h2M22 23h1M28 23h1M32 23h1M42 23h1M49 23h1M52 23h1M10 24h2M22 24h1M42 24h1M53 24h1M12 25h2M24 25h1M33 25h2M41 25h1M50 25h1M53 25h1M55 25h1M14 26h2M21 26h1M24 26h1M35 26h1M38 26h1M45 26h1M50 26h1M53 26h2M16 27h4M21 27h1M30 27h1M49 27h1M15 28h2M20 28h1M25 28h1M47 28h2M51 28h1M15 29h1M20 29h1M31 29h1M53 29h2M9 30h5M15 30h1M35 30h1M53 30h1M9 31h1M15 31h2M21 31h1M36 31h1M40 31h3M46 31h2M50 31h1M54 31h1M11 32h1M16 32h1M29 32h1M39 32h1M43 32h1M45 32h1M49 32h1M15 33h2M29 33h1M43 33h1M53 33h1M16 34h1M20 34h1M30 34h1M48 34h1M27 35h1M31 35h1M33 35h1M23 36h1M27 36h1M32 36h1M34 36h1M14 37h1M34 37h1M43 37h2M20 38h1M35 38h1M43 38h1M16 39h1M30 39h1M38 39h2M42 39h1M47 39h1M38 40h1M47 40h2M17 41h1M49 41h5M16 42h1M44 42h1M52 42h1M54 42h1M43 43h1M53 43h1M55 43h1M15 44h1M32 44h1M42 44h1M47 44h1M53 44h1M56 44h1M36 45h1M39 45h1M42 45h1M50 45h1M54 45h1M14 46h1M29 46h1M36 46h1M38 46h1M42 46h1M47 46h2M51 46h1M21 47h1M27 47h1M42 47h1M51 47h1M13 48h1M19 48h1M26 48h1M43 48h1M50 48h1M18 49h1M23 49h1M25 49h1M50 49h1M53 49h1M12 50h1M17 50h1M23 50h2M49 50h1M16 51h1M49 51h1M11 52h1M10 54h1M10 55h1M9 56h1M9 57h1" />
<path stroke="#8058a0" d="M15 6h1M19 6h1M16 7h2M22 7h1M17 8h3M25 8h2M18 9h3M27 9h1M45 9h1M19 10h4M29 10h1M47 10h1M20 11h4M31 11h1M47 11h1M21 12h5M33 12h1M44 12h1M46 12h3M22 13h6M34 13h1M46 13h3M23 14h7M36 14h1M43 14h1M46 14h4M24 15h5M30 15h3M38 15h1M46 15h4M25 16h5M32 16h10M45 16h5M25 17h5M34 17h9M45 17h1M47 17h3M24 18h2M27 18h3M37 18h9M47 18h4M55 18h1M26 19h5M39 19h12M53 19h2M21 20h2M27 20h4M37 20h1M41 20h10M53 20h1M55 20h1M15 21h1M28 21h3M41 21h11M55 21h1M7 22h1M26 22h1M29 22h3M42 22h5M51 22h1M10 23h3M30 23h2M43 23h2M51 23h1M54 23h1M12 24h9M30 24h3M43 24h2M51 24h2M54 24h1M14 25h5M22 25h1M27 25h1M30 25h3M40 25h1M42 25h3M51 25h2M54 25h1M19 26h2M22 26h1M26 26h2M31 26h4M39 26h6M51 26h2M20 27h1M23 27h1M26 27h2M32 27h14M50 27h4M24 28h1M26 28h2M32 28h15M49 28h2M52 28h2M24 29h1M27 29h1M33 29h18M52 29h1M23 30h3M27 30h1M34 30h1M36 30h14M51 30h2M10 31h4M19 31h2M22 31h5M34 31h1M37 31h3M43 31h3M51 31h1M12 32h3M19 32h3M23 32h6M37 32h2M44 32h1M50 32h2M20 33h2M23 33h5M37 33h1M44 33h1M49 33h3M21 34h1M23 34h4M49 34h2M52 34h1M17 35h1M19 35h2M23 35h4M48 35h3M17 36h1M19 36h4M26 36h1M31 36h1M45 36h1M47 36h3M16 37h3M28 37h1M37 37h1M45 37h5M16 38h4M25 38h1M32 38h1M36 38h2M41 38h1M44 38h5M24 39h4M34 39h4M40 39h2M43 39h4M24 40h7M33 40h5M39 40h7M23 41h22M46 41h2M22 42h22M45 42h3M51 42h1M53 42h1M16 43h1M21 43h21M44 43h5M52 43h1M54 43h1M20 44h10M35 44h6M43 44h4M52 44h1M54 44h2M15 45h1M20 45h5M26 45h2M37 45h2M44 45h2M51 45h3M55 45h1M19 46h4M25 46h2M28 46h1M37 46h1M45 46h2M52 46h2M55 46h1M14 47h1M18 47h3M24 47h2M43 47h1M45 47h3M52 47h2M55 47h1M17 48h2M44 48h2M51 48h2M54 48h1M13 49h1M16 49h2M51 49h1M15 50h2M50 50h1M12 51h1M15 51h1M14 52h1M11 53h1M13 53h1M12 54h1M11 55h1M10 56h1" />
<path stroke="#c080c8" d="M16 6h3M18 7h3M20 8h3M24 8h1M46 8h1M21 9h3M46 9h1M23 10h3M45 10h2M24 11h3M30 11h1M45 11h2M26 12h3M32 12h1M45 12h1M28 13h3M33 13h1M44 13h2M30 14h6M44 14h2M33 15h5M43 15h3M42 16h1M43 17h2M35 18h2M46 18h1M36 19h3M55 19h1M23 20h1M40 20h1M51 20h1M54 20h1M16 21h7M53 21h2M8 22h14M24 22h2M41 22h1M47 22h2M53 22h2M13 23h8M23 23h5M41 23h1M45 23h3M50 23h1M53 23h1M23 24h5M40 24h2M45 24h2M50 24h1M23 25h1M26 25h1M45 25h1M23 26h1M25 27h1M17 28h3M21 28h1M23 28h1M16 29h4M21 29h3M26 29h1M16 30h5M22 30h1M54 30h1M17 31h2M52 31h2M18 32h1M52 32h2M17 33h1M19 33h1M28 33h1M52 33h1M15 34h1M17 34h2M27 34h3M51 34h1M15 35h2M18 35h1M28 35h3M51 35h1M15 36h2M28 36h3M50 36h1M15 37h1M29 37h3M23 38h2M30 38h2M22 39h2M21 40h3M18 41h1M20 41h3M48 41h1M17 42h1M20 42h2M48 42h1M17 43h1M19 43h2M49 43h1M51 43h1M16 44h1M19 44h1M30 44h2M50 44h2M16 45h1M18 45h2M28 45h2M43 45h1M15 46h1M17 46h2M27 46h1M43 46h2M15 47h3M26 47h1M44 47h1M14 48h3M24 48h2M14 49h2M24 49h1M13 50h2M13 51h2M12 52h2M12 53h1M11 54h1" />
<path stroke="#101010" d="M15 7h1M16 8h1M17 9h1M18 10h1M19 11h1M48 11h1M20 12h1M49 12h1M21 13h1M49 13h1M22 14h1M23 15h1M29 15h1M40 15h3M24 16h1M31 16h1M44 16h1M50 16h1M24 17h1M32 17h2M50 17h1M23 18h1M34 18h1M35 19h1M56 19h1M36 20h1M56 20h1M38 21h1M39 22h1M49 22h1M40 23h1M48 23h1M55 23h1M28 24h1M34 24h1M47 24h1M55 24h1M28 25h1M46 25h1M28 26h1M30 26h1M36 26h2M24 27h1M28 27h1M31 27h1M47 27h1M54 27h1M28 28h1M31 28h1M25 29h1M28 29h1M32 29h1M51 29h1M55 29h1M21 30h1M26 30h1M28 30h1M33 30h1M50 30h1M55 30h1M27 31h2M33 31h1M35 31h1M48 31h2M10 32h1M17 32h1M22 32h1M34 32h1M36 32h1M40 32h3M46 32h2M54 32h1M12 33h2M18 33h1M22 33h1M38 33h1M45 33h1M48 33h1M14 34h1M19 34h1M22 34h1M37 34h1M43 34h1M47 34h1M53 34h1M14 35h1M21 35h2M45 35h1M47 35h1M52 35h1M14 36h1M18 36h1M24 36h2M37 36h1M44 36h1M46 36h1M51 36h1M19 37h4M26 37h2M32 37h1M36 37h1M38 37h1M41 37h1M50 37h1M15 38h1M21 38h1M28 38h2M33 38h1M38 38h1M40 38h1M42 38h1M49 38h1M17 39h3M31 39h2M48 39h1M46 40h1M45 41h1M42 43h1M33 44h2M41 44h1M48 44h2M25 45h1M30 45h2M40 45h1M46 45h1M56 45h1M23 46h2M39 46h1M49 46h1M54 46h1M56 46h1M22 47h2M36 47h2M48 47h1M54 47h1M56 47h1M20 48h1M23 48h1M46 48h2M53 48h1M55 48h1M19 49h1M44 49h2M52 49h1M54 49h1M51 50h1M50 51h1M15 52h1M14 53h1M13 54h1M12 55h1M11 56h1M10 57h1M9 58h1" />
<path stroke="#d0a0d8" d="M21 7h1M23 8h1M24 9h3M26 10h3M27 11h3M29 12h3M31 13h2M38 20h2M39 21h2M40 22h1M25 25h1M25 26h1M22 27h1M22 28h1M20 40h1M19 41h1M18 42h2M49 42h2M18 43h1M50 43h1M17 44h2M17 45h1M16 46h1" />
<path stroke="#f8f8f8" d="M31 17h1M31 18h2M32 19h2M32 20h4M32 21h5M33 22h5M33 23h1M35 23h4M33 24h1M35 24h5M49 24h1M35 25h4M47 25h3M46 26h1M48 26h2M46 27h1M48 27h1" />
<path stroke="#707070" d="M33 18h1M37 21h1M34 23h1M47 26h1" />
<path stroke="#cccccc" d="M31 19h1M34 19h1M32 22h1M38 22h1M39 23h1M48 24h1M39 25h1" />
<path stroke="#4898c0" d="M24 20h3M23 21h1M27 21h1M22 22h1M28 22h1M21 23h1M21 24h1M19 25h3M16 26h3M15 27h1M14 28h1M14 29h1M14 30h1M14 31h1M15 32h1M48 32h1M14 33h1M40 33h3M46 33h2M41 34h2M44 34h3M42 35h3M46 35h1M43 36h1" />
<path stroke="#207098" d="M29 23h1M29 24h1M29 25h1M29 26h1M29 27h1M29 28h1M29 29h1M29 30h1M29 31h1M30 32h1M30 33h1M39 33h1M13 34h1M31 34h1M39 34h2M13 35h1M32 35h1M40 35h2M13 36h1M33 36h1M41 36h2M13 37h1M23 37h3M33 37h1M42 37h1M14 38h1M22 38h1M26 38h2M34 38h1M15 39h1M20 39h2M28 39h2M33 39h1M16 40h4M31 40h2M49 40h4M54 41h1M55 42h1M56 43h1M57 44h1M41 45h1M47 45h3M57 45h1M41 46h1M50 46h1M57 46h1M41 47h1M49 47h2M57 47h1M42 48h1M48 48h1M56 48h1M43 49h1M46 49h2M49 49h1M55 49h1M44 50h2M48 50h1M52 50h3M47 51h2M51 51h1M49 52h2" />
<path stroke="#004068" d="M30 28h1M30 29h1M30 30h3M30 31h3M31 32h3M35 32h1M31 33h6M32 34h5M38 34h1M34 35h6M35 36h2M38 36h3M35 37h1M39 37h2M39 38h1" />
</svg>