<svg xmlns="http://www.w3.org/2000/svg" viewBox="0 -0.5 64 64" shape-rendering="crispEdges">
<metadata>Made with Pixels to Svg https://codepen.io/shshaw/pen/XbxvNj</metadata>
<path stroke="#785060" d="M19 7h2M21 8h1M25 8h7M37 8h3M18 9h1M22 9h2M33 9h4M40 9h1M7 10h1M18 10h1M21 10h1M33 10h2M9 11h1M18 11h1M20 11h1M32 11h1M37 11h2M5 12h1M10 12h2M18 12h2M32 12h1M35 12h4M11 13h3M18 13h1M31 13h1M34 13h4M10 14h1M13 14h1M18 14h1M31 14h1M34 14h3M39 14h1M5 15h1M7 15h1M9 15h1M14 15h1M37 15h1M4 16h1M9 16h1M17 16h1M34 16h1M40 16h1M4 17h1M8 17h1M11 17h2M17 17h1M8 18h1M17 18h1M8 19h2M16 19h1M41 19h1M9 20h1M16 20h1M26 20h3M16 21h1M25 21h1M29 21h1M42 21h1M11 22h1M15 22h1M24 22h1M15 23h3M44 23h1M14 24h1M18 24h1M45 24h1M13 25h2M29 25h1M47 25h1M14 26h3M28 26h1M48 26h1M22 27h1M26 27h1M49 27h1M13 28h1M20 28h3M42 28h1M13 29h1M19 29h1M23 29h4M43 29h1M13 30h1M22 30h1M35 30h1M43 30h1M35 31h2M44 31h1M14 32h1M34 32h2M44 32h1M32 33h2M25 34h1M30 34h2M25 35h1M29 35h1M25 36h1M31 36h1M41 36h1M25 37h1M30 37h1M33 37h1M22 50h2M21 51h1M20 52h1M22 52h1M22 53h1M55 53h1M56 54h1" />
<path stroke="#b890a0" d="M18 8h1M32 8h1M20 9h2M24 9h9M38 9h2M6 10h1M20 10h1M25 10h1M27 10h6M39 10h1M5 11h1M8 11h1M26 11h1M28 11h4M39 11h1M9 12h1M27 12h1M29 12h3M39 12h1M9 13h2M19 13h1M26 13h1M28 13h3M38 13h1M6 14h1M9 14h1M27 14h1M30 14h1M37 14h2M8 15h1M17 15h1M33 15h4M39 15h1M6 16h3M12 16h2M37 16h3M7 17h1M13 17h2M33 17h8M12 18h4M33 18h8M11 19h5M25 19h1M30 19h1M34 19h7M10 20h6M24 20h1M30 20h1M33 20h1M35 20h7M11 21h5M24 21h1M34 21h1M36 21h6M12 22h3M33 22h1M35 22h1M37 22h6M12 23h3M34 23h1M36 23h8M13 24h1M19 24h1M29 24h1M33 24h1M35 24h1M37 24h8M46 24h1M34 25h1M36 25h1M38 25h9M26 26h1M29 26h1M35 26h1M37 26h1M39 26h9M13 27h1M17 27h1M27 27h2M38 27h1M40 27h9M23 28h5M39 28h3M43 28h7M14 29h2M27 29h2M33 29h3M40 29h3M44 29h7M23 30h5M33 30h2M36 30h1M41 30h2M44 30h8M13 31h3M24 31h3M33 31h2M41 31h3M45 31h7M25 32h1M33 32h1M41 32h3M45 32h7M25 33h1M40 33h4M45 33h6M39 34h5M45 34h6M38 35h5M44 35h1M48 35h2M26 36h1M30 36h1M37 36h4M43 36h1M26 37h1M29 37h1M35 37h3M41 37h2M26 38h2M32 38h1M35 38h1M29 39h1M32 40h1M22 51h4M55 51h2M25 52h2M53 52h2M21 53h1M24 53h2M52 53h1M56 53h1M52 54h2M57 54h1M53 55h3" />
<path stroke="#e0b8c8" d="M19 8h2M19 9h1M37 9h1M19 10h1M22 10h3M26 10h1M35 10h2M19 11h1M23 11h3M27 11h1M33 11h2M8 12h1M24 12h3M28 12h1M33 12h1M7 13h2M24 13h2M27 13h1M32 13h1M24 14h3M28 14h2M32 14h1M6 15h1M11 15h3M24 15h9M5 16h1M10 16h2M14 16h1M23 16h11M10 17h1M15 17h1M23 17h10M10 18h1M16 18h1M22 18h11M21 19h4M26 19h4M31 19h3M20 20h4M25 20h1M29 20h1M31 20h2M34 20h1M20 21h4M30 21h4M35 21h1M20 22h4M28 22h5M34 22h1M36 22h1M19 23h15M35 23h1M20 24h9M30 24h3M34 24h1M36 24h1M17 25h12M30 25h4M35 25h1M37 25h1M17 26h9M30 26h5M36 26h1M38 26h1M16 27h1M18 27h4M29 27h9M39 27h1M16 28h4M28 28h11M16 29h3M29 29h4M36 29h4M15 30h4M28 30h5M37 30h4M16 31h2M27 31h6M37 31h4M26 32h7M37 32h4M26 33h6M37 33h3M26 34h4M36 34h3M26 35h3M30 35h8M27 36h1M29 36h1M32 36h5M27 37h1M31 37h2M34 37h1M31 38h1M34 38h1M31 39h1M34 39h1M55 52h3M53 53h2M57 53h1M54 54h2" />
<path stroke="#101010" d="M37 10h2M40 10h1M35 11h2M40 11h1M34 12h1M40 12h1M6 13h1M33 13h1M39 13h1M7 14h2M14 14h1M33 14h1M40 14h1M38 15h1M40 15h1M15 16h1M35 16h2M5 17h2M16 17h1M41 17h1M7 18h1M11 18h1M41 18h1M10 19h1M42 20h1M10 21h1M26 22h1M43 22h1M11 23h1M12 24h1M27 26h1M23 27h3M50 28h1M20 29h3M51 29h1M19 30h1M52 30h1M18 31h1M23 31h1M15 32h3M24 32h1M53 32h1M44 33h1M44 34h1M54 34h1M43 35h1M54 35h1M42 36h1M55 38h1M25 39h1M55 39h1M25 40h1M55 40h1M55 41h1M22 42h1M26 42h1M55 42h1M22 43h1M55 43h1M22 44h1M55 44h1M23 45h1M23 46h1M28 46h1M54 46h1M24 47h1M29 47h1M54 47h1M25 48h1M30 48h1M53 48h1M32 49h2M52 49h1M32 50h1M36 50h6M46 50h4M31 51h1M57 51h1M30 52h1M58 52h1M20 53h1M26 53h2M58 53h1M21 54h5M58 54h1M52 55h1M56 55h2M53 56h3" />
<path stroke="#f8e0f0" d="M6 11h2M21 11h2M6 12h2M20 12h4M20 13h4M11 14h2M19 14h5M10 15h1M18 15h6M18 16h5M9 17h1M18 17h5M9 18h1M18 18h4M17 19h4M17 20h3M17 21h3M16 22h4M18 23h1M15 24h3M15 25h2M14 27h2M14 28h2M14 30h1M36 32h1M34 33h3M32 34h4M21 52h1M23 52h2M23 53h1" />
<path stroke="#f8f8f8" d="M26 21h3M25 22h1M27 22h1" />
<path stroke="#400008" d="M52 31h1M53 33h1M28 36h1M54 36h1M28 37h1M38 37h3M55 37h1M24 38h2M28 38h3M33 38h1M36 38h2M23 39h1M30 39h1M32 39h2M35 39h1M30 40h2M33 40h3M41 40h1M22 41h1M25 41h1M41 41h1M40 42h1M26 43h1M40 43h1M27 44h1M40 44h1M27 45h1M40 45h1M55 45h1M41 46h1M41 47h1M31 48h1M42 48h1M54 48h1M24 49h2M31 49h1M34 49h1M43 49h2M51 49h1M55 49h1M35 50h1M42 50h1M45 50h1M50 50h1M56 50h1M47 51h1M29 52h1M47 52h1M28 53h1M48 53h1M49 54h2M51 55h1" />
<path stroke="#681018" d="M52 32h1M51 33h2M51 34h3M50 35h4M50 36h4M50 37h5M50 38h5M51 39h4M23 40h1M51 40h4M37 41h1M52 41h3M25 42h1M36 42h1M38 42h1M52 42h3M25 43h1M35 43h1M37 43h1M39 43h1M51 43h4M25 44h2M34 44h1M36 44h1M38 44h2M51 44h4M26 45h1M28 45h2M35 45h1M37 45h3M50 45h5M26 46h2M29 46h3M36 46h5M50 46h4M26 47h3M30 47h11M49 47h5M26 48h4M32 48h10M43 48h10M26 49h5M35 49h8M45 49h6M54 49h1M26 50h6M26 51h5M27 52h2" />
<path stroke="#903840" d="M45 35h3M44 36h6M43 37h7M38 38h12M24 39h1M26 39h3M36 39h15M24 40h1M26 40h4M36 40h5M42 40h9M23 41h2M26 41h11M38 41h3M42 41h1M44 41h8M23 42h2M27 42h9M37 42h1M39 42h1M41 42h1M44 42h8M23 43h2M27 43h8M36 43h1M38 43h1M41 43h1M44 43h7M23 44h2M28 44h6M35 44h1M37 44h1M41 44h2M45 44h6M24 45h2M30 45h5M36 45h1M41 45h1M46 45h4M24 46h2M32 46h4M42 46h2M46 46h4M25 47h1M42 47h7M53 49h1M24 50h2M51 50h5M48 51h1M53 51h2M48 52h1M52 52h1M49 53h3M51 54h1" />
<path stroke="#b86068" d="M43 41h1M42 42h2M42 43h2M43 44h2M42 45h4M44 46h2M49 51h4M49 52h3" />
</svg>