<svg xmlns="http://www.w3.org/2000/svg" viewBox="0 -0.5 68 56" shape-rendering="crispEdges">
<metadata>Made with Pixels to Svg https://codepen.io/shshaw/pen/XbxvNj</metadata>
<path stroke="#000000" d="M38 34h1M33 35h3M37 35h1M39 35h1M32 36h1M36 36h1M39 36h1M26 37h6M39 37h1M26 38h1M39 38h1M25 39h2M39 39h1M24 40h1M40 40h1M25 41h1M38 41h1M40 41h1M25 42h1M34 42h1M41 42h1M24 43h1M41 43h1M24 44h1M41 44h1M25 45h1M40 45h1M25 46h1M40 46h1M25 47h1M39 47h1M26 48h1M40 48h1M26 49h1M37 49h3M27 50h3M35 50h2M30 51h2M34 51h1M32 52h2" />
<path stroke="#a57331" d="M38 35h1M37 36h2M27 38h2M28 39h1" />
<path stroke="#ffbda5" d="M33 36h3M33 37h2M38 37h1M29 38h4M34 38h2M38 38h1M29 39h4M37 39h2M29 40h9M30 41h2M33 41h1M35 41h3M39 41h1M31 42h1M33 42h1M35 42h5M30 43h3M34 43h2M38 43h2M30 44h6M38 44h2M30 45h3M34 45h6M31 46h2M35 46h4M34 47h4" />
<path stroke="#414141" d="M32 37h1M37 37h1M33 38h1M37 38h1M27 39h1M34 39h3M27 40h2M27 41h3M28 42h3M28 43h1M36 43h2M25 44h3M27 45h1M27 46h1M34 46h1M28 47h1M32 47h2M28 48h1M38 48h1M27 49h1M29 49h1M36 49h1M30 50h1" />
<path stroke="#d68c84" d="M35 37h2M36 38h1M33 39h1M25 40h2M39 40h1M26 41h1M32 41h1M32 42h1M40 42h1M29 43h1M33 43h1M28 44h2M37 44h1M28 45h2M28 46h3M39 46h1M29 47h3M38 47h1M29 48h9M30 49h6M31 50h4" />
<path stroke="#ffffff" d="M38 40h1M34 41h1M40 43h1M33 46h1M32 51h2" />
<path stroke="#b5736b" d="M26 42h2M25 43h3M36 44h1M40 44h1M26 45h1M33 45h1M26 46h1M26 47h2M27 48h1M28 49h1" />
<path stroke="#bdbdbd" d="M39 48h1" />
</svg>