<svg xmlns="http://www.w3.org/2000/svg" viewBox="0 -0.5 68 56" shape-rendering="crispEdges">
<metadata>Made with Pixels to Svg https://codepen.io/shshaw/pen/XbxvNj</metadata>
<path stroke="#000000" d="M34 28h1M28 29h2M33 29h1M35 29h1M28 30h1M30 30h3M35 30h1M29 31h1M36 31h2M28 32h1M38 32h1M27 33h1M39 33h1M27 34h1M40 34h1M25 35h3M41 35h1M24 36h1M39 36h2M25 37h3M38 37h1M27 38h1M37 38h1M40 38h1M26 39h1M37 39h1M39 39h1M41 39h1M26 40h1M28 40h3M36 40h1M39 40h1M41 40h1M26 41h1M28 41h1M31 41h3M35 41h1M39 41h1M42 41h1M25 42h1M28 42h1M33 42h1M35 42h1M39 42h1M42 42h1M25 43h1M29 43h2M33 43h1M35 43h1M38 43h1M42 43h1M25 44h1M31 44h2M36 44h2M41 44h1M26 45h1M41 45h1M27 46h1M40 46h1M42 46h1M26 47h1M29 47h1M39 47h1M41 47h2M26 48h1M28 48h1M30 48h1M38 48h1M27 49h1M31 49h1M38 49h1M31 50h1M36 50h2M32 51h2M35 51h1M34 52h1" />
<path stroke="#4aa49c" d="M34 29h1M34 30h1M35 31h1M35 32h1M28 33h2M29 34h3M33 35h3M33 36h4M35 37h3M34 39h1M34 40h1M34 41h1M34 42h1M34 43h1M39 43h1M30 44h1M34 44h1M38 44h3M30 45h1M32 45h5M38 45h1M32 46h2M35 46h3M35 47h1" />
<path stroke="#decd4a" d="M29 30h1M30 31h1M32 32h2M39 35h2M25 36h2M29 36h1M30 37h1" />
<path stroke="#414141" d="M33 30h1M34 31h1M29 32h1M34 32h1M36 32h2M30 33h4M35 33h2M28 34h1M32 34h2M35 34h1M38 34h2M29 35h4M36 35h1M38 35h1M31 36h1M37 36h2M31 37h1M28 38h1M31 38h2M28 39h1M32 39h2M35 39h2M33 40h1M35 40h1M31 48h1M33 49h1M36 49h1M33 50h1" />
<path stroke="#946a73" d="M31 31h1M28 35h1M28 36h1M30 36h1M28 37h1M29 38h1M29 39h1M31 40h1" />
<path stroke="#bd949c" d="M32 31h2M30 32h2M37 35h1M30 38h1M30 39h2M32 40h1" />
<path stroke="#417b73" d="M34 33h1M37 33h2M34 34h1M36 34h2M32 36h1M32 37h3M33 38h4M40 43h1M33 44h1M35 44h1M29 45h1M40 45h1M28 46h4M38 46h2M41 46h1M27 47h2M30 47h3M37 47h2M27 48h1M32 48h6M32 49h1M34 49h2M37 49h1M32 50h1M34 50h2M34 51h1" />
<path stroke="#b49c4a" d="M27 36h1M29 37h1" />
<path stroke="#9c7341" d="M27 39h1M40 39h1M27 40h1M40 40h1M27 41h1M40 41h2M27 42h1M40 42h2M27 43h2M41 43h1M28 44h2M31 45h1M37 45h1M34 46h1" />
<path stroke="#6a5239" d="M26 42h1M26 43h1M26 44h2M27 45h2M39 45h1M33 47h2M36 47h1" />
</svg>