<svg xmlns="http://www.w3.org/2000/svg" viewBox="0 -0.5 68 56" shape-rendering="crispEdges">
<metadata>Made with Pixels to Svg https://codepen.io/shshaw/pen/XbxvNj</metadata>
<path stroke="#000000" d="M34 35h2M33 36h1M36 36h1M33 37h1M37 37h1M31 38h2M38 38h1M30 39h1M39 39h1M30 40h1M39 40h3M29 41h1M42 41h1M28 42h1M43 42h1M27 43h1M43 43h1M26 44h1M43 44h1M26 45h1M43 45h1M26 46h1M42 46h1M26 47h1M40 47h2M27 48h1M40 48h1M28 49h2M36 49h1M40 49h1M30 50h1M34 50h2M37 50h3M30 51h1M34 51h1M31 52h3" />
<path stroke="#84c5d6" d="M34 36h2M35 37h1M31 39h1M34 39h1M38 39h1M31 40h1M35 40h1M32 41h2M35 41h2M41 41h1M33 42h5M42 42h1M28 43h2M40 43h1M42 43h1M28 44h3M36 44h2M40 44h1M42 44h1M27 45h1M29 45h2M35 45h1M38 45h1M42 45h1M27 46h1M29 46h1M35 46h1M38 46h1M27 47h1M36 47h2M38 48h2M32 49h1M38 49h2M32 50h2M31 51h3" />
<path stroke="#4284ad" d="M34 37h1M36 37h1M33 38h5M32 39h2M35 39h3M32 40h2M36 40h2M40 41h1M40 42h2M41 43h1M27 44h1M39 44h1M41 44h1M28 45h1M40 45h1M28 46h1M32 46h2M40 46h1M28 47h1M31 47h1M28 48h2M35 48h1M34 49h2" />
<path stroke="#ded610" d="M34 40h1M38 41h1M36 46h1" />
<path stroke="#ffff6b" d="M38 40h1M34 41h1M37 41h1M37 45h1M37 46h1" />
<path stroke="#bd8c4a" d="M30 41h1M30 42h2M39 42h1M31 43h2M38 43h1M32 44h3M33 45h1M33 47h2M32 48h2" />
<path stroke="#414141" d="M31 41h1M39 41h1M29 42h1M32 42h1M38 42h1M30 43h1M33 43h5M31 44h1M38 44h1M31 45h1M39 45h1M31 46h1M34 46h1M39 46h1M30 47h1M35 47h1M38 47h1M30 48h1M34 48h1M36 48h2M30 49h1M33 49h1" />
<path stroke="#8c6b3a" d="M39 43h1M35 44h1M32 45h1M34 45h1M32 47h1M31 48h1" />
<path stroke="#4a9cb5" d="M36 45h1M41 45h1M30 46h1M41 46h1M29 47h1M39 47h1M31 49h1M37 49h1M31 50h1" />
</svg>