<svg xmlns="http://www.w3.org/2000/svg" viewBox="0 -0.5 68 56" shape-rendering="crispEdges">
<metadata>Made with Pixels to Svg https://codepen.io/shshaw/pen/XbxvNj</metadata>
<path stroke="#000000" d="M33 33h2M32 34h1M35 34h1M31 35h1M36 35h1M31 36h1M37 36h3M30 37h1M40 37h1M29 38h1M40 38h1M27 39h2M41 39h1M26 40h1M41 40h1M26 41h1M42 41h1M26 42h1M42 42h1M27 43h1M42 43h1M28 44h1M41 44h1M28 45h1M40 45h1M28 46h1M40 46h1M29 47h1M39 47h1M29 48h1M36 48h3M29 49h1M33 49h3M30 50h3" />
<path stroke="#b4ee83" d="M33 34h1M35 35h1M33 36h2M41 41h1M41 42h1M33 44h1M33 45h1M35 47h1M38 47h1" />
<path stroke="#ffffff" d="M34 34h1M33 35h2M28 40h1M27 41h1M40 42h1M34 43h2M40 43h1M34 44h2M30 48h1M31 49h2" />
<path stroke="#629441" d="M32 35h1M36 36h1M31 37h1M37 37h1M32 38h2M29 39h1M36 39h1M27 40h1M35 40h2M28 43h2M41 43h1M29 46h1M38 46h1M36 47h2M34 48h1M30 49h1" />
<path stroke="#94de52" d="M32 36h1M35 36h1M32 37h5M31 38h1M34 38h4M30 39h5M37 39h1M29 40h6M29 41h4M36 41h2M29 42h3M37 42h1M37 45h2M30 46h2M36 46h2M30 47h3M31 48h1" />
<path stroke="#73b441" d="M38 37h1M30 38h1M39 38h1M35 39h1M38 39h1M40 39h1M37 40h1M39 40h1M33 41h3M38 41h1M32 42h1M36 42h1M38 42h1M30 43h2M37 43h2M29 44h3M37 44h1M39 44h1M29 45h3M36 45h1M39 45h1M32 46h1M34 46h2M33 47h1M32 48h2" />
<path stroke="#d5eeb4" d="M39 37h1M39 39h1M38 40h1M40 40h1M28 41h1M39 41h2M28 42h1M33 42h3M39 42h1M32 43h2M36 43h1M39 43h1M32 44h1M36 44h1M38 44h1M40 44h1M32 45h1M34 45h2M33 46h1M39 46h1M34 47h1" />
<path stroke="#414141" d="M38 38h1M27 42h1M35 48h1" />
</svg>