<svg xmlns="http://www.w3.org/2000/svg" viewBox="0 -0.5 68 56" shape-rendering="crispEdges">
<metadata>Made with Pixels to Svg https://codepen.io/shshaw/pen/XbxvNj</metadata>
<path stroke="#000000" d="M32 25h4M29 26h3M36 26h3M26 27h3M39 27h3M23 28h3M42 28h3M22 29h1M45 29h1M22 30h1M45 30h1M22 31h1M45 31h1M23 32h1M44 32h1M24 33h1M43 33h1M24 34h1M43 34h1M24 35h1M43 35h1M24 36h1M43 36h1M24 37h1M43 37h1M24 38h1M43 38h1M23 39h1M44 39h1M23 40h1M44 40h1M23 41h2M39 41h1M44 41h1M22 42h2M25 42h1M37 42h1M39 42h1M44 42h2M21 43h1M24 43h2M37 43h2M46 43h1M21 44h1M46 44h1M20 45h1M24 45h2M42 45h2M46 45h1M20 46h1M24 46h1M26 46h3M39 46h3M43 46h1M47 46h1M20 47h1M23 47h1M29 47h1M36 47h3M44 47h1M47 47h1M21 48h1M24 48h1M30 48h1M35 48h1M43 48h1M47 48h1M21 49h1M24 49h1M30 49h1M34 49h1M43 49h1M46 49h1M22 50h2M29 50h1M33 50h1M44 50h2M29 51h1M33 51h1M30 52h1M34 52h1M30 53h1M34 53h1M31 54h3" />
<path stroke="#394139" d="M32 26h1M35 26h1M32 27h4M23 29h3M25 30h1M25 31h4M24 32h2M29 32h5M42 32h2M26 33h3M31 33h1M40 33h2M25 34h2M29 34h3M36 34h3M27 35h2M32 35h4M30 36h2M25 37h2M27 38h3M30 39h2M25 40h2M27 41h3M40 41h1M30 42h1M40 42h1M23 43h1M26 43h1M39 43h1M23 44h1M27 44h3M22 45h2M30 45h2M44 45h2M23 46h1M45 46h2M21 47h2M31 47h3M34 48h1M44 48h1M22 49h1M44 49h2M31 50h2M32 51h1" />
<path stroke="#525a52" d="M33 26h2M26 29h1M41 29h4M23 30h2M42 30h1M23 31h2M33 31h2M42 31h1M26 32h3M34 32h3M29 33h2M32 33h2M36 33h1M39 33h1M32 34h2M26 35h1M29 35h1M26 36h1M29 36h1M32 36h1M34 36h1M29 37h1M33 37h1M26 38h1M33 38h1M24 39h1M26 39h1M29 39h1M32 39h1M34 39h1M24 40h1M29 40h1M32 40h1M26 41h1M31 41h1M33 41h1M26 42h1M29 42h1M31 42h1M33 42h2M22 43h1M29 43h1M32 43h1M43 43h1M22 44h1M24 44h1M26 44h1M32 44h1M43 44h1M21 45h1M26 45h1M29 45h1M33 45h2M21 46h1M29 46h1M33 46h1M30 47h1M45 47h2M22 48h2M31 48h1M46 48h1M31 49h1M30 50h1M30 51h2M31 52h1M31 53h1" />
<path stroke="#29cdff" d="M29 27h3M36 27h3M26 28h3M39 28h3M26 30h3M39 30h3M29 31h3M36 31h3M42 35h1M42 36h1M32 37h1M32 38h1M42 38h1M42 39h1M32 41h1M43 41h1M32 42h1M38 42h1M43 42h1M32 45h1M32 46h1" />
<path stroke="#949ca4" d="M29 28h2M33 28h1M36 28h3M28 29h1M31 29h6M39 29h1M29 30h1M34 30h1M37 30h2M39 31h3M37 32h5M37 33h2M42 33h1M39 34h1M36 35h2M41 35h1M38 36h2M41 36h1M35 37h2M38 37h2M35 38h2M41 38h1M38 39h2M41 39h1M35 40h2M38 40h2M43 40h1M35 41h2M41 41h1M41 42h1M35 43h2M35 44h2M41 44h2M38 45h2M41 45h1M35 46h2M38 46h1M35 47h1" />
<path stroke="#737b73" d="M31 28h2M30 30h2M35 30h2" />
<path stroke="#acb4bd" d="M34 28h2M29 29h2M37 29h2M32 30h2M40 34h1M40 36h1M37 37h1M40 37h1M37 38h1M40 39h1M37 40h1M40 40h1M37 41h1M42 41h1M42 42h1M40 43h1M37 44h1M40 45h1M37 46h1" />
<path stroke="#6a6a6a" d="M27 29h1M40 29h1M32 31h1M35 31h1M25 33h1M27 34h2M41 34h2M25 35h1M30 35h2M38 35h3M25 36h1M27 36h2M35 36h3M27 37h2M30 37h2M34 37h1M41 37h2M25 38h1M30 38h2M34 38h1M38 38h3M25 39h1M27 39h2M35 39h3M43 39h1M27 40h2M30 40h2M34 40h1M41 40h2M25 41h1M30 41h1M34 41h1M38 41h1M27 42h2M35 42h2M27 43h2M30 43h2M34 43h1M41 43h2M25 44h1M30 44h2M34 44h1M38 44h3M27 45h2M35 45h3M30 46h2M34 46h1M34 47h1" />
<path stroke="#7b7b7b" d="M43 30h2M43 31h2M34 33h2M34 34h2M44 43h2M44 44h2M32 48h2M32 49h2M32 52h2M32 53h2" />
<path stroke="#108bde" d="M33 36h1M33 39h1M33 40h1M24 42h1M33 43h1M33 44h1" />
<path stroke="#189cf6" d="M22 46h1M44 46h1M45 48h1M23 49h1" />
</svg>