<svg xmlns="http://www.w3.org/2000/svg" viewBox="0 -0.5 68 56" shape-rendering="crispEdges">
<metadata>Made with Pixels to Svg https://codepen.io/shshaw/pen/XbxvNj</metadata>
<path stroke="#000000" d="M35 29h3M33 30h2M38 30h1M32 31h1M39 31h2M22 32h1M25 32h1M30 32h2M41 32h1M21 33h1M23 33h2M26 33h1M28 33h2M41 33h1M21 34h1M24 34h1M42 34h1M20 35h1M43 35h1M20 36h1M43 36h1M20 37h1M42 37h1M21 38h1M43 38h1M21 39h1M44 39h1M22 40h1M45 40h1M22 41h1M45 41h1M23 42h1M44 42h1M22 43h1M44 43h3M22 44h1M47 44h1M22 45h1M46 45h1M22 46h1M45 46h1M23 47h1M27 47h1M39 47h1M44 47h1M24 48h3M28 48h1M44 48h1M28 49h1M35 49h3M41 49h1M43 49h1M28 50h1M35 50h1M38 50h3M42 50h1M29 51h1M33 51h2M30 52h3" />
<path stroke="#4a8c3a" d="M35 30h3M33 31h1M35 31h2M38 31h1M32 32h4M37 32h1M39 32h1M30 33h1M32 33h1M35 33h4M40 33h1M23 34h1M30 34h1M33 34h2M36 34h1M38 34h2M22 35h1M31 35h1M35 35h1M23 37h1M33 37h3M26 38h2M34 38h1M40 38h3M27 39h2M42 39h2M29 40h1M42 40h2M30 41h2M35 42h3M28 44h1M28 45h1M31 45h1M38 45h1M41 45h3M40 46h1M41 47h1M37 48h1M38 49h1M40 49h1" />
<path stroke="#63ad5a" d="M34 31h1M37 31h1M22 33h1M33 33h1M22 34h1M23 35h1M22 36h2M36 37h1M23 38h1M35 38h3M35 39h2M24 40h1M25 41h1M36 41h1M26 42h1M27 43h1M27 44h1M29 44h1M42 44h1M29 45h2M32 45h1M39 45h2M37 46h1M41 46h3" />
<path stroke="#3a6b3a" d="M36 32h1M38 32h1M40 32h1M34 33h1M39 33h1M32 34h1M35 34h1M37 34h1M40 34h2M33 35h2M36 35h1M38 35h5M25 36h1M35 36h1M40 36h2M26 37h2M37 37h1M38 38h2M26 39h1M37 39h1M41 39h1M27 40h2M36 40h1M35 41h1M37 41h1M32 42h3M38 42h2" />
<path stroke="#c5c5c5" d="M25 33h1M26 34h1M28 34h1M26 35h1M29 35h1M29 36h2M30 37h2M30 38h1M32 38h1M33 39h1M38 39h3M33 40h2M37 40h5M44 40h1M29 41h1M38 41h4M43 41h2M28 42h4M40 42h4M30 43h12M33 44h5M23 46h1M25 46h1M34 46h2M25 47h1M32 47h5M34 50h1" />
<path stroke="#414141" d="M31 33h1M27 34h1M29 34h1M31 34h1M24 35h1M27 35h1M30 35h1M32 35h1M37 35h1M24 36h1M27 36h1M31 36h4M36 36h1M39 36h1M42 36h1M24 37h1M28 37h1M32 37h1M40 37h2M24 38h1M28 38h1M31 38h1M33 38h1M24 39h1M29 39h1M31 39h1M34 39h1M25 40h1M30 40h2M35 40h1M23 41h2M26 41h1M32 41h1M34 41h1M25 42h1M27 42h1M26 43h1M28 43h2M42 43h2M26 44h1M30 44h3M38 44h4M43 44h1M27 45h1M33 45h5M44 45h1M27 46h1M29 46h1M32 46h2M36 46h1M44 46h1M29 47h1M31 47h1M37 47h1M42 47h2M32 48h2M36 48h1M41 48h3M34 49h1M42 49h1" />
<path stroke="#9c9c9c" d="M25 34h1M25 35h1M28 35h1M26 36h1M28 36h1M25 37h1M29 37h1M25 38h1M29 38h1M25 39h1M30 39h1M32 39h1M26 40h1M32 40h1M27 41h2M33 41h1M42 41h1M44 44h3M45 45h1M34 48h2" />
<path stroke="#9c7342" d="M21 35h1M21 36h1M21 37h2M38 37h2M22 38h1M22 39h2M23 40h1M24 42h1M23 43h3M23 44h3M24 45h1M26 45h1M28 47h1M29 49h1M31 49h2M30 50h2M33 50h1M30 51h1" />
<path stroke="#bd9452" d="M37 36h2M30 46h2M30 47h1M29 48h3M38 48h3M30 49h1M33 49h1M39 49h1" />
<path stroke="#7b633a" d="M23 45h1M25 45h1M24 46h1M26 46h1M28 46h1M24 47h1M26 47h1" />
<path stroke="#ffffff" d="M38 46h1M38 47h1M40 47h1M29 50h1M32 50h1M31 51h2" />
<path stroke="#e64a29" d="M39 46h1" />
</svg>