<svg xmlns="http://www.w3.org/2000/svg" viewBox="0 -0.5 68 56" shape-rendering="crispEdges">
<metadata>Made with Pixels to Svg https://codepen.io/shshaw/pen/XbxvNj</metadata>
<path stroke="#000000" d="M33 32h2M32 33h1M35 33h1M32 34h1M35 34h1M31 35h2M36 35h1M30 36h1M37 36h1M30 37h1M37 37h1M29 38h1M37 38h2M29 39h1M39 39h1M29 40h1M34 40h1M39 40h1M30 41h1M35 41h1M37 41h2M30 42h1M37 42h1M31 43h1M36 43h1M31 44h2M35 44h2M30 45h1M33 45h2M37 45h1M29 46h2M32 46h1M35 46h1M37 46h1M28 47h1M31 47h1M36 47h1M38 47h1M28 48h1M31 48h1M36 48h1M38 48h1M29 49h1M31 49h2M35 49h2M38 49h1M30 50h1M32 50h4M37 50h1M31 51h1M36 51h1M32 52h4" />
<path stroke="#6b6b6b" d="M33 33h1M36 37h1M37 39h1M37 40h1M37 49h1M36 50h1M32 51h4" />
<path stroke="#a5a5a5" d="M34 33h1M32 36h1M31 37h1M30 38h1M30 39h1M35 40h1M32 45h1M31 46h1M30 47h1M30 48h1M30 49h1M31 50h1" />
<path stroke="#414141" d="M33 34h1M33 35h1M35 35h1M33 36h2M32 37h1M31 38h1M31 39h1M35 39h1M38 39h1M31 40h1M38 40h1M31 41h1M34 41h1M31 42h1M32 43h1M33 44h1M36 45h1M29 47h1M29 48h1" />
<path stroke="#848484" d="M34 34h1M34 35h1M31 36h1M35 36h2M34 39h1M30 40h1M34 44h1M31 45h1M35 45h1M36 46h1M37 47h1M37 48h1" />
<path stroke="#cecece" d="M33 37h1M35 37h1M32 38h1M36 38h1M32 42h1M36 42h1M33 43h1M35 43h1" />
<path stroke="#ffffff" d="M34 37h1M33 38h3M32 39h2M36 39h1M32 40h2M36 40h1M32 41h2M36 41h1M33 42h3M34 43h1" />
</svg>