<svg xmlns="http://www.w3.org/2000/svg" viewBox="0 -0.5 68 56" shape-rendering="crispEdges">
<metadata>Made with Pixels to Svg https://codepen.io/shshaw/pen/XbxvNj</metadata>
<path stroke="#000000" d="M37 32h3M35 33h2M40 33h1M34 34h1M38 34h2M34 35h1M36 35h2M34 36h1M36 36h1M33 37h2M36 37h2M32 38h1M37 38h1M31 39h1M38 39h1M31 40h1M38 40h3M30 41h1M41 41h1M29 42h2M39 42h2M28 43h1M35 43h1M39 43h1M29 44h3M36 44h1M38 44h1M31 45h1M38 45h1M32 46h1M37 46h1M33 47h2M37 47h1M34 48h1M36 48h4M34 49h1M36 49h1M40 49h1M34 50h1M38 50h2M35 51h3" />
<path stroke="#6b6b6b" d="M37 33h1M35 34h1M35 35h1M35 36h1M34 39h2M37 40h1M38 42h1M32 43h1M38 43h1M32 44h1M37 49h1" />
<path stroke="#848484" d="M38 33h1M36 38h1M32 39h1M36 39h2M38 41h1M40 41h1M35 42h1M30 43h1M35 47h1M35 48h1M35 49h1M38 49h1M35 50h1" />
<path stroke="#a5a5a5" d="M39 33h1M36 34h2M34 38h2M33 39h1M32 40h1M31 41h1M31 42h1M29 43h1M36 43h1M39 49h1M36 50h2" />
<path stroke="#414141" d="M35 37h1M33 38h1M33 40h1M32 41h1M39 41h1M32 42h1M36 42h1M31 43h1M35 44h1M32 45h1M33 46h1M36 47h1" />
<path stroke="#cecece" d="M34 40h1M36 40h1M33 41h1M37 41h1M33 45h1M37 45h1M34 46h1M36 46h1" />
<path stroke="#ffffff" d="M35 40h1M34 41h3M33 42h2M37 42h1M33 43h2M37 43h1M33 44h2M37 44h1M34 45h3M35 46h1" />
</svg>