<svg xmlns="http://www.w3.org/2000/svg" viewBox="0 -0.5 68 56" shape-rendering="crispEdges">
<metadata>Made with Pixels to Svg https://codepen.io/shshaw/pen/XbxvNj</metadata>
<path stroke="#000000" d="M31 35h4M30 36h1M35 36h1M29 37h1M36 37h1M29 38h1M36 38h1M28 39h1M37 39h1M28 40h1M37 40h1M28 41h1M33 41h1M37 41h1M28 42h1M34 42h1M37 42h1M28 43h1M28 44h1M30 44h1M36 44h1M28 45h1M31 45h4M37 45h1M28 46h1M31 46h1M34 46h1M37 46h1M28 47h1M31 47h1M35 47h2M28 48h1M31 48h1M28 49h1M31 49h1M28 50h1M31 50h1M28 51h1M31 51h1M28 52h1M31 52h1M29 53h2" />
<path stroke="#414141" d="M31 36h1M34 36h1M32 37h2M31 38h1M30 39h1M30 40h1M34 40h1M30 41h1M36 41h1M30 42h1M33 42h1M36 42h1M29 43h2M36 43h1M29 44h1M31 44h1M35 44h1M30 45h1M36 45h1M30 46h1M36 46h1M30 47h1M30 48h1M30 49h1M30 50h1M30 51h1M30 52h1" />
<path stroke="#848484" d="M32 36h2M30 37h2M34 37h2M33 40h1M29 41h1M35 45h1M29 47h1M29 48h1M29 49h1M29 50h1M29 51h1M29 52h1" />
<path stroke="#a5a5a5" d="M30 38h1M29 39h1M29 40h1M34 41h1" />
<path stroke="#cecece" d="M32 38h1M34 38h1M31 39h1M35 39h1M31 43h1M35 43h1M32 44h1M34 44h1" />
<path stroke="#ffffff" d="M33 38h1M32 39h3M31 40h2M35 40h1M31 41h2M35 41h1M31 42h2M35 42h1M32 43h3M33 44h1" />
<path stroke="#6b6b6b" d="M35 38h1M36 39h1M36 40h1M29 42h1M29 45h1M29 46h1M35 46h1" />
</svg>