<svg xmlns="http://www.w3.org/2000/svg" viewBox="0 -0.5 80 80" shape-rendering="crispEdges">
<metadata>Made with Pixels to Svg https://codepen.io/shshaw/pen/XbxvNj</metadata>
<path stroke="#000000" d="M48 6h1M48 7h1M48 8h1M48 9h1M48 10h1M48 11h1M48 12h2M49 13h1M49 14h1M49 15h1M49 16h2M50 17h1M50 18h1M20 19h1M50 19h1M21 20h1M22 21h1M23 22h1M24 23h1M25 24h1M26 25h1M27 26h1M28 27h2" />
<path stroke="#623108" d="M49 6h1M51 7h1M52 8h1M53 9h1M54 10h1M55 11h1M56 12h1M57 13h1M30 19h2M61 19h1M32 20h2M52 21h1M62 21h1M10 22h1M9 23h1M13 23h1M52 23h2M63 23h1M9 24h1M15 24h1M63 24h1M16 25h1M51 25h1M54 25h1M63 25h1M8 26h1M41 26h1M48 26h2M8 27h1M42 27h1M46 27h1M64 27h1M8 28h1M43 28h1M64 28h1M8 29h1M57 29h1M8 30h1M58 30h1M65 30h1M9 31h1M65 31h1M7 32h2M23 32h1M39 32h1M66 32h1M5 33h2M24 33h1M66 33h1M4 34h1M25 34h1M67 34h1M3 35h1M26 35h1M38 35h1M68 35h1M3 36h1M27 36h1M3 37h1M28 37h1M69 37h1M3 38h1M29 38h1M37 38h1M4 39h1M30 39h1M6 40h1M31 40h1M36 40h1M70 40h1M6 41h1M8 41h1M32 41h1M8 42h1M35 42h1M23 48h1M67 48h1M67 49h1M23 50h1M22 52h1M21 53h1M30 53h1M20 54h1M29 54h1M72 56h1M70 57h1M68 58h1M66 59h1M26 60h1M64 60h2M25 61h1M24 63h1M25 64h1M26 65h1M61 65h1M25 66h1M27 66h1M62 67h1M63 68h1M63 72h1M26 73h1M27 74h1M62 74h1" />
<path stroke="#292929" d="M49 7h2M49 8h3M49 9h4M49 10h5M49 11h6M50 12h6M50 13h7M50 14h8M50 15h7M19 16h3M51 16h6M19 17h6M51 17h5M20 18h3M25 18h3M51 18h5M21 19h4M28 19h2M51 19h4M22 20h6M29 20h1M51 20h1M23 21h6M51 21h1M11 22h2M24 22h5M52 22h1M14 23h1M25 23h4M26 24h3M53 24h1M27 25h2M52 25h2M17 26h1M28 26h1M54 26h1M18 27h1M55 27h1M19 28h1M30 28h1M56 28h1M20 29h1M31 29h2M21 30h1M33 30h2M22 31h1M35 31h2M9 32h1M37 32h2M39 33h1M39 34h1M38 36h1M68 36h1M69 38h1M5 40h1M7 41h1M70 41h1M9 42h2M33 42h1M70 42h1M11 43h3M34 43h1M70 43h1M14 44h3M35 44h1M70 44h1M17 45h2M36 45h1M69 45h2M19 46h2M37 46h1M69 46h1M21 47h1M37 47h1M68 47h1M36 48h1M24 49h1M35 49h1M66 49h1M71 49h2M34 50h1M73 50h2M23 51h1M33 51h1M75 51h1M32 52h1M31 53h1M75 53h1M30 54h1M74 54h1M20 55h2M30 55h1M21 56h2M31 56h1M23 57h1M32 57h1M71 57h1M24 58h1M33 58h1M69 58h1M25 59h1M32 59h2M67 59h1M31 60h2M30 61h2M63 61h1M24 62h1M30 62h1M62 62h1M23 63h1M30 63h1M61 63h1M24 64h1M31 64h1M61 64h1M25 65h1M32 65h1M26 66h1M33 66h1M24 67h1M27 67h2M33 67h1M24 68h1M29 68h1M34 68h1M24 69h1M30 69h1M34 69h1M63 69h1M24 70h1M31 70h1M63 70h1M24 71h1M63 71h1M25 72h1M25 73h1M62 73h1M26 74h1" />
<path stroke="#9c5200" d="M58 14h1M58 15h1M59 16h1M60 17h1M60 18h1M52 20h1M61 20h1M34 21h2M36 22h1M53 22h1M62 22h1M10 23h1M37 23h2M39 24h1M54 24h1M8 25h1M40 25h1M49 25h2M47 26h1M50 26h1M55 26h1M63 26h2M45 27h1M47 27h1M42 28h1M44 28h1M43 29h1M64 29h2M59 31h1M65 32h1M40 33h1M39 35h1M37 37h2M37 39h1M70 39h1M36 41h1M22 47h1M38 47h5M22 48h1M24 48h1M37 48h9M25 49h1M36 49h13M24 50h1M35 50h16M65 50h6M22 51h1M32 51h1M44 51h9M21 52h1M31 52h1M48 52h7M74 52h1M51 53h5M54 54h2M33 55h6M73 55h1M32 56h11M33 57h13M34 58h14M67 58h1M26 59h1M42 59h8M65 59h1M46 60h6M63 60h1M49 61h4M62 61h1M25 62h1M27 62h1M29 62h1M51 62h2M25 63h5M26 64h5M27 65h5M28 66h5M61 66h2M29 67h4M28 68h1M30 68h4M62 68h1M29 69h1M31 69h3M25 70h1M32 70h2M25 71h1M26 72h1M62 72h1M61 74h1" />
<path stroke="#f6bd20" d="M57 15h1M58 16h1M56 17h1M56 18h2M55 19h4M53 20h6M53 21h7M29 22h2M54 22h6M11 23h2M29 23h4M54 23h7M10 24h4M29 24h6M55 24h6M9 25h7M29 25h8M55 25h7M9 26h8M30 26h8M56 26h6M9 27h9M30 27h10M56 27h7M9 28h10M31 28h11M57 28h6M9 29h11M33 29h10M50 29h7M58 29h5M10 30h11M35 30h9M46 30h12M59 30h5M10 31h12M37 31h22M60 31h4M11 32h12M40 32h20M61 32h4M7 33h17M41 33h25M5 34h20M41 34h25M4 35h22M40 35h26M4 36h23M39 36h27M4 37h24M39 37h28M4 38h25M38 38h30M5 39h25M38 39h30M7 40h24M37 40h31M9 41h23M37 41h31M11 42h22M37 42h31M14 43h20M36 43h32M17 44h18M36 44h32M19 45h17M37 45h32M21 46h16M38 46h31M24 47h13M44 47h24M26 48h10M47 48h19M27 49h7M50 49h16M25 50h8M52 50h12M24 51h8M34 51h9M54 51h13M23 52h8M33 52h14M55 52h13M22 53h8M32 53h18M56 53h13M72 53h3M21 54h8M31 54h22M56 54h18M22 55h8M31 55h1M40 55h33M23 56h8M44 56h27M24 57h8M47 57h23M25 58h8M49 58h18M27 59h5M34 59h7M51 59h14M27 60h4M33 60h12M52 60h11M26 61h4M32 61h16M53 61h9M26 62h1M28 62h1M31 62h20M53 62h9M31 63h30M32 64h29M33 65h28M34 66h26M34 67h26M26 68h2M35 68h25M25 69h4M35 69h25M26 70h5M34 70h27M26 71h35M27 72h35M27 73h34M28 74h32" />
<path stroke="#f6e652" d="M57 16h1M57 17h3M58 18h2M59 19h2M31 20h1M59 20h2M30 21h4M60 21h2M31 22h5M60 22h2M33 23h4M61 23h2M35 24h4M61 24h2M37 25h3M62 25h1M38 26h3M51 26h3M62 26h1M40 27h1M48 27h7M63 27h1M45 28h11M63 28h1M44 29h6M63 29h1M44 30h2M64 30h1M64 31h1M66 34h1M66 35h2M66 36h2M67 37h2M68 38h1M68 39h1M71 50h2M67 51h8M68 52h6M69 53h3M60 66h1M60 67h2M60 68h2M60 69h3M61 70h2M61 71h2" />
<path stroke="#52525a" d="M23 18h2M25 19h3M28 20h1M30 20h1M29 21h1M29 26h1" />
<path stroke="#de9400" d="M14 24h1M41 27h1M9 30h1M10 32h1M60 32h1M40 34h1M36 42h1M35 43h1M23 47h1M43 47h1M25 48h1M46 48h1M66 48h1M26 49h1M34 49h1M49 49h1M33 50h1M51 50h1M64 50h1M43 51h1M53 51h1M47 52h1M50 53h1M53 54h1M32 55h1M39 55h1M43 56h1M71 56h1M46 57h1M48 58h1M41 59h1M50 59h1M45 60h1M48 61h1M25 67h2M25 68h1M61 73h1M60 74h1" />
<path stroke="#e65a41" d="M69 39h1M68 40h1M68 44h1" />
<path stroke="#c52018" d="M69 40h1M68 41h2M68 42h2M68 43h2M69 44h1" />
</svg>