<svg xmlns="http://www.w3.org/2000/svg" viewBox="0 -0.5 80 80" shape-rendering="crispEdges">
<metadata>Made with Pixels to Svg https://codepen.io/shshaw/pen/XbxvNj</metadata>
<path stroke="#7b4120" d="M41 16h3M40 17h2M44 17h2M40 18h1M45 18h2M47 19h1M48 20h1M49 21h2M51 22h1M52 23h2M54 24h2M56 25h2M41 26h2M58 26h3M40 27h1M61 27h2M63 28h2M65 29h1M66 30h1M42 31h1M67 31h1M65 32h2M68 32h1M64 33h1M67 33h1M69 33h1M43 34h1M64 34h1M70 34h1M42 35h1M70 35h1M45 36h1M68 36h1M71 36h1M41 37h1M68 37h1M71 37h1M26 38h2M68 38h1M71 38h1M25 39h1M63 39h2M68 39h1M72 39h1M24 40h1M62 40h1M66 40h1M68 40h1M72 40h1M24 41h1M61 41h1M67 41h2M73 41h1M23 42h1M28 42h1M61 42h1M68 42h1M74 42h1M22 43h1M27 43h1M61 43h1M69 43h2M22 44h1M61 44h1M71 44h2M21 45h1M39 45h13M62 45h1M21 46h1M36 46h3M51 46h6M63 46h1M20 47h1M27 47h1M35 47h2M56 47h4M26 48h1M34 48h1M60 48h3M20 49h1M26 49h1M33 49h1M62 49h2M19 50h1M26 50h1M64 50h2M66 51h1M67 52h1M19 53h1M68 53h1M18 54h1M69 54h1M18 55h1M70 55h1M6 56h7M70 56h1M4 57h2M13 57h3M26 57h1M41 57h10M71 57h1M3 58h1M16 58h2M26 58h1M39 58h1M51 58h4M71 58h1M4 59h1M18 59h1M27 59h1M38 59h1M54 59h3M7 60h1M19 60h1M37 60h1M57 60h2M9 61h1M20 61h1M37 61h1M59 61h2M21 62h1M36 62h1M61 62h1M70 62h1M22 63h1M35 63h1M69 63h1M23 64h1M28 64h1M35 64h1M68 64h1M34 65h1M66 65h1M24 66h1M33 66h1M58 66h1M58 67h2M25 68h1M29 68h1M59 68h1M32 69h1M62 69h1M26 70h1" />
<path stroke="#ee7b18" d="M42 17h2M41 18h4M45 19h2M46 20h2M47 21h2M48 22h3M49 23h3M50 24h4M51 25h5M52 26h6M54 27h7M57 28h6M59 29h4M60 30h3M61 31h3M62 32h3M67 32h1M63 33h1M68 33h1M68 34h2M68 35h2M69 36h2M69 37h2M69 38h2M69 39h3M69 40h3M69 41h4M69 42h5M71 43h1M38 61h1M37 62h4M36 63h7M36 64h5M35 65h5M34 66h6M34 67h5M34 68h5M33 69h5M33 70h5M33 71h5" />
<path stroke="#181818" d="M40 19h1M40 20h1M40 21h2M41 22h1M41 23h2M42 24h1M43 25h1M43 26h1M44 27h1M40 28h1M40 29h1M41 30h1M41 31h1M42 32h1M43 33h1M44 34h1M67 34h1M45 35h1M66 35h1M42 36h1M66 36h1M66 37h2M41 38h1M66 38h2M28 39h1M41 39h1M66 39h2M28 40h1M41 40h1M67 40h1M28 41h1M41 41h1M41 42h1M64 42h1M41 43h2M66 43h2M72 43h1M74 43h1M27 44h1M42 44h1M64 44h1M73 44h2M27 45h1M66 45h2M74 45h1M27 46h1M74 46h1M73 47h1M20 48h1M71 48h2M69 49h3M33 50h1M67 50h3M19 51h1M26 51h1M32 51h1M67 51h1M19 52h1M26 52h1M32 52h1M26 53h1M32 53h1M26 54h1M32 54h1M26 55h1M32 55h1M18 56h1M26 56h1M32 56h2M18 57h1M33 57h1M18 58h1M33 58h2M5 59h2M34 59h2M71 59h1M8 60h1M27 60h1M35 60h2M71 60h1M10 61h1M27 61h1M71 61h1M11 62h1M27 62h1M12 63h1M27 63h1M70 63h1M13 64h1M62 64h1M69 64h1M14 65h1M23 65h1M28 65h1M62 65h1M67 65h2M14 66h1M28 66h1M62 66h5M15 67h1M24 67h1M28 67h1M33 67h1M62 67h1M15 68h1M33 68h1M62 68h2M15 69h2M25 69h1M29 69h1M59 69h1M63 69h1M16 70h1M29 70h1M32 70h1M59 70h1M63 70h1M16 71h1M26 71h1M29 71h1M32 71h1M59 71h1M63 71h1" />
<path stroke="#cd6a18" d="M41 19h1M44 19h1M53 27h1M56 28h1M58 29h1M39 61h1M41 62h1" />
<path stroke="#ac5a20" d="M42 19h2M41 20h5M42 21h5M42 22h6M43 23h6M43 24h7M44 25h7M44 26h8M41 27h3M45 27h8M41 28h15M41 29h17M42 30h18M43 31h18M43 32h19M44 33h19M45 34h19M43 35h2M46 35h18M43 36h2M46 36h18M42 37h22M42 38h22M42 39h21M42 40h20M42 41h19M42 42h19M43 43h18M43 44h18M52 45h10M57 46h6M60 47h4M40 58h11M39 59h15M38 60h19M40 61h19M42 62h19M43 63h19M43 64h19M44 65h18M44 66h14M59 66h3M44 67h14M60 67h2M27 68h2M45 68h14M60 68h2M19 69h1M26 69h3M45 69h14M60 69h2M19 70h2M25 70h1M27 70h2M45 70h14M60 70h3M19 71h3M24 71h2M27 71h2M45 71h14M60 71h3" />
<path stroke="#f6f6b4" d="M63 29h2M63 30h3M64 31h3M26 39h2M25 40h3M25 41h3M66 41h1M24 42h3M66 42h2M23 43h4M68 43h1M23 44h4M68 44h3M22 45h5M22 46h5M21 47h5M21 48h5M21 49h5M20 50h6M20 51h6M20 52h5M20 53h5M19 54h5M19 55h5M19 56h5M6 57h7M19 57h4M5 58h11M20 58h3M10 59h8M19 59h1M21 59h1M13 60h6M20 60h1M22 60h1M15 61h3M21 61h1M22 62h1M41 65h1M40 66h2M39 67h2M39 68h2M39 69h2M38 70h2M38 71h2" />
<path stroke="#d5d5cd" d="M65 33h2M65 34h2M64 35h2M64 36h2M67 36h1M64 37h2M64 38h2M65 39h1" />
<path stroke="#ffffff" d="M67 35h1M73 43h1" />
<path stroke="#dec583" d="M63 40h3M62 41h4M27 42h1M62 42h1M62 43h3M62 44h2M66 44h2M63 45h2M68 45h6M64 46h10M26 47h1M64 47h9M63 48h8M64 49h5M66 50h1M25 52h1M25 53h1M24 54h2M24 55h2M24 56h2M23 57h3M4 58h1M19 58h1M23 58h3M7 59h3M20 59h1M22 59h5M9 60h4M21 60h1M23 60h4M11 61h4M18 61h2M22 61h5M12 62h9M23 62h4M13 63h9M23 63h4M14 64h9M24 64h4M41 64h2M15 65h8M24 65h4M40 65h1M42 65h2M15 66h9M25 66h3M42 66h2M16 67h8M25 67h3M41 67h3M16 68h9M26 68h1M41 68h4M17 69h2M20 69h5M38 69h1M41 69h4M17 70h2M21 70h4M40 70h5M17 71h2M22 71h2M40 71h5" />
<path stroke="#6a6a6a" d="M63 42h1M65 42h1M65 43h1M65 44h1M65 45h1" />
<path stroke="#ffde00" d="M39 46h1M37 47h2M35 48h4M34 49h4M34 50h4M62 50h2M34 51h1M61 51h5M61 52h6M60 53h8M63 54h6M65 55h5M67 56h3M68 57h3M69 58h2M70 59h1M70 60h1" />
<path stroke="#e6a431" d="M40 46h11M39 47h17M39 48h21M38 49h24M38 50h24M33 51h1M35 51h26M33 52h28M33 53h27M33 54h30M33 55h32M34 56h33M34 57h7M51 57h17M35 58h4M55 58h14M36 59h2M57 59h13M59 60h11M61 61h10M62 62h8M62 63h7M63 64h5M63 65h3" />
</svg>