<svg xmlns="http://www.w3.org/2000/svg" viewBox="0 -0.5 80 80" shape-rendering="crispEdges">
<metadata>Made with Pixels to Svg https://codepen.io/shshaw/pen/XbxvNj</metadata>
<path stroke="#39397b" d="M27 16h2M14 17h2M26 17h1M53 17h2M13 18h1M16 18h1M29 18h2M52 18h1M56 18h1M17 19h1M25 19h1M52 19h1M57 19h1M12 20h1M30 20h2M58 20h1M21 21h1M24 21h1M51 21h1M59 21h1M11 22h1M19 22h2M24 22h1M51 22h1M60 22h1M11 23h1M17 23h2M23 23h1M32 23h1M34 23h1M51 23h1M54 23h1M11 24h1M16 24h1M23 24h1M34 24h2M51 24h1M61 24h1M10 25h1M36 25h1M62 25h1M10 26h1M37 26h1M50 26h1M53 26h1M58 26h1M62 26h1M9 27h1M38 27h1M50 27h1M53 27h1M59 27h1M63 27h1M9 28h1M35 28h1M50 28h1M53 28h1M59 28h1M63 28h1M9 29h1M35 29h1M39 29h1M53 29h1M60 29h1M64 29h1M8 30h1M39 30h1M49 30h1M53 30h1M60 30h1M64 30h1M8 31h1M37 31h2M40 31h1M49 31h1M52 31h1M61 31h1M65 31h1M49 32h1M61 32h1M65 32h1M7 33h1M62 33h1M66 33h1M7 34h1M36 34h2M48 34h1M52 34h1M62 34h1M66 34h1M7 35h1M35 35h1M39 35h2M48 35h1M51 35h1M63 35h1M67 35h1M7 36h1M34 36h1M48 36h1M63 36h1M67 36h1M47 37h1M64 37h1M67 37h1M6 38h1M47 38h1M50 38h1M64 38h1M68 38h1M6 39h1M33 39h1M46 39h1M65 39h1M68 39h1M6 40h1M33 40h1M46 40h1M49 40h1M65 40h1M68 40h1M6 41h1M45 41h1M49 41h1M69 41h1M6 42h1M43 42h2M48 42h1M66 42h1M69 42h1M6 43h1M41 43h3M47 43h1M69 43h1M6 44h1M39 44h1M41 44h1M46 44h1M69 44h2M36 45h2M39 45h1M67 45h1M70 45h1M32 46h2M36 46h1M70 46h1M42 47h1M70 47h1M40 48h1M68 48h1M70 48h2M38 49h1M68 49h1M71 49h1M35 50h1M71 50h1M6 51h1M71 51h1M6 52h2M32 52h1M69 52h1M71 52h2M31 53h1M69 53h1M72 53h1M30 54h1M69 54h1M72 54h1M7 57h2M33 57h1M8 61h2M34 61h1M10 63h1" />
<path stroke="#5aacee" d="M27 17h2M14 18h2M27 18h2M53 18h2M14 19h2M26 19h3M53 19h4M13 20h3M26 20h3M53 20h5M13 21h3M25 21h3M52 21h7M12 22h3M22 22h1M25 22h3M52 22h8M12 23h3M19 23h4M24 23h3M52 23h2M55 23h5M13 24h2M18 24h2M24 24h2M32 24h2M52 24h2M57 24h4M17 25h1M33 25h3M52 25h1M58 25h3M34 26h3M51 26h2M59 26h3M51 27h2M60 27h3M51 28h2M61 28h2M51 29h2M61 29h3M9 30h1M50 30h2M62 30h2M9 31h1M50 31h2M62 31h3M9 32h2M37 32h3M50 32h2M63 32h2M8 33h3M37 33h3M50 33h2M63 33h3M8 34h3M38 34h2M49 34h2M64 34h2M8 35h4M49 35h2M64 35h3M8 36h4M49 36h2M65 36h2M8 37h4M48 37h2M65 37h2M7 38h5M48 38h2M66 38h2M7 39h5M47 39h2M66 39h2M7 40h5M47 40h1M66 40h2M7 41h5M46 41h2M67 41h2M7 42h5M45 42h2M67 42h2M7 43h4M44 43h2M7 44h4M42 44h3M7 45h3M43 45h1M7 46h3M7 47h1" />
<path stroke="#000000" d="M29 17h1M30 19h1M17 20h1M18 21h1M22 21h2M31 21h1M18 22h1M31 22h2M33 23h1M54 24h3M54 25h1M57 25h1M35 27h2M37 28h1M39 28h1M37 29h1M40 32h1M52 32h1M40 33h1M52 33h1M40 34h1M38 36h2M51 36h1M34 37h3M38 37h1M51 37h1M34 38h1M37 38h1M34 39h1M50 39h1M33 41h1M33 42h1M33 43h1M66 43h1M33 44h1M40 44h1M66 44h1M6 45h1M33 45h1M38 45h1M45 45h1M6 46h1M34 46h2M44 46h1M67 46h1M6 47h1M43 47h1M67 47h1M6 48h1M41 48h1M6 49h1M39 49h1M6 50h1M36 50h2M68 50h1M34 51h2M68 51h1M33 52h1M7 53h1M32 53h2M7 54h1M33 54h1M7 55h1M33 55h1M69 55h1M72 55h1M7 56h1M69 56h1M72 56h1M69 57h1M72 57h1M8 58h1M34 58h1M69 58h1M72 58h1M8 59h1M34 59h1M69 59h1M72 59h1M8 60h1M69 60h1M72 60h1M69 61h1M72 61h1M9 62h1M39 62h3M69 62h1M72 62h1M9 63h1M38 63h1M42 63h1M69 63h1M72 63h1" />
<path stroke="#6283cd" d="M26 18h1M55 18h1M13 19h1M16 19h1M29 19h1M16 20h1M25 20h1M29 20h1M52 20h1M12 21h1M16 21h2M28 21h3M15 22h3M21 22h1M23 22h1M28 22h3M15 23h2M27 23h5M60 23h1M12 24h1M15 24h1M17 24h1M20 24h3M26 24h6M11 25h6M18 25h15M51 25h1M53 25h1M61 25h1M11 26h23M10 27h25M37 27h1M10 28h25M38 28h1M60 28h1M10 29h25M50 29h1M10 30h26M52 30h1M61 30h1M10 31h27M39 31h1M8 32h1M11 32h26M62 32h1M11 33h26M49 33h1M11 34h25M51 34h1M63 34h1M12 35h23M12 36h22M64 36h1M7 37h1M12 37h22M50 37h1M12 38h22M65 38h1M12 39h21M49 39h1M12 40h21M48 40h1M12 41h21M48 41h1M66 41h1M12 42h21M47 42h1M11 43h22M46 43h1M67 43h2M11 44h22M45 44h1M67 44h2M10 45h23M40 45h3M44 45h1M68 45h2M10 46h22M37 46h7M68 46h2M8 47h34M68 47h2M7 48h33M69 48h1M7 49h31M69 49h2M7 50h28M69 50h2M7 51h27M69 51h2M8 52h24M70 52h1M8 53h23M70 53h2M8 54h22M31 54h2M70 54h2M8 55h25M70 55h2M8 56h25M70 56h2M9 57h24M70 57h2M9 58h25M70 58h2M9 59h25M70 59h2M9 60h25M70 60h2M10 61h24M70 61h2M10 62h25M70 62h2M11 63h25M70 63h2" />
<path stroke="#621052" d="M55 25h2M56 26h2M56 27h1M58 27h1M56 28h1M56 29h1M56 30h1M53 31h1M57 31h1M53 32h1M57 32h1M53 33h1M57 33h1M53 34h1M57 34h1M53 35h1M57 35h1M53 36h1M53 37h1M58 37h1M53 38h1M58 38h1M53 39h1M58 39h1M52 40h2M58 40h1M52 41h1M58 41h1M65 41h1M52 42h1M58 42h1M52 43h1M52 44h1M59 44h1M52 45h1M59 45h1M66 45h1M59 46h1M51 47h1M59 47h1M51 48h1M59 48h1M67 48h1M51 49h1M59 49h1M59 50h1M34 52h1M50 52h1M60 52h1M68 52h1M50 53h1M60 53h1M60 54h1M60 55h1M33 56h1M60 56h1M34 57h1M34 60h1M35 61h1M35 62h1M38 62h1M36 63h2" />
<path stroke="#94397b" d="M54 26h1M54 27h1M57 27h1M54 28h1M57 28h1M57 29h1M57 30h1M58 35h1M57 36h2M52 39h1M53 41h1M59 42h1M58 43h2M51 46h2M51 50h1M60 50h1M50 51h1M59 51h2M50 54h1M50 55h1M49 56h1M49 57h1M60 57h1M49 58h1M60 58h1M49 59h1M60 59h1M49 60h1M60 60h1M48 61h1M60 61h1M48 62h1M60 62h1M48 63h1M60 63h1" />
<path stroke="#ac52ac" d="M55 26h1M55 27h1M55 28h1M58 28h1M54 29h2M58 29h2M54 30h2M58 30h2M54 31h3M58 31h3M54 32h3M58 32h3M54 33h3M58 33h4M54 34h3M58 34h4M52 35h1M54 35h3M59 35h4M52 36h1M54 36h3M59 36h4M52 37h1M54 37h4M59 37h5M51 38h2M54 38h4M59 38h5M51 39h1M54 39h4M59 39h6M50 40h2M54 40h4M59 40h6M50 41h2M54 41h4M59 41h6M49 42h3M53 42h5M60 42h6M48 43h4M53 43h5M60 43h6M47 44h5M53 44h6M60 44h6M46 45h6M53 45h6M60 45h6M45 46h6M53 46h6M60 46h7M44 47h4M49 47h2M52 47h7M60 47h7M42 48h5M50 48h1M52 48h7M60 48h7M40 49h6M50 49h1M52 49h7M60 49h8M38 50h8M50 50h1M52 50h7M61 50h7M36 51h9M51 51h8M61 51h7M35 52h10M51 52h9M61 52h7M34 53h10M51 53h9M61 53h8M34 54h10M51 54h9M61 54h8M34 55h9M49 55h1M51 55h9M61 55h8M34 56h9M50 56h4M56 56h4M61 56h8M35 57h7M50 57h3M57 57h3M61 57h8M35 58h7M50 58h3M57 58h3M61 58h8M35 59h7M50 59h2M58 59h2M61 59h8M35 60h6M48 60h1M50 60h2M58 60h2M61 60h8M36 61h5M49 61h2M58 61h2M61 61h8M36 62h2M49 62h2M58 62h2M61 62h8M49 63h2M59 63h1M61 63h8" />
<path stroke="#d5d5d5" d="M36 28h1M38 29h1M36 35h1M36 36h1" />
<path stroke="#ffffff" d="M36 29h1M36 30h1M38 30h1M37 35h1M37 36h1M37 37h1" />
<path stroke="#626262" d="M37 30h1M38 35h1M35 36h1M38 38h1" />
<path stroke="#cd6ab4" d="M48 47h1M47 48h3M46 49h4M46 50h4M45 51h5M45 52h5M44 53h6M44 54h6M43 55h6M43 56h6M54 56h2M42 57h7M53 57h4M42 58h7M53 58h4M42 59h7M52 59h6M41 60h7M52 60h6M41 61h7M51 61h7M42 62h6M51 62h7M43 63h5M51 63h8" />
</svg>