<svg xmlns="http://www.w3.org/2000/svg" viewBox="0 -0.5 80 80" shape-rendering="crispEdges">
<metadata>Made with Pixels to Svg https://codepen.io/shshaw/pen/XbxvNj</metadata>
<path stroke="#ffde20" d="M37 2h4M35 3h2M34 4h1M41 4h5M33 5h1M38 5h3M47 5h2M32 6h1M36 6h2M50 6h2M32 7h1M35 7h1M51 7h3M31 8h1M34 8h1M52 8h3M33 9h1M53 9h2M33 10h1M32 11h1M32 12h1M40 14h1M40 15h1M40 16h1M35 47h3M49 47h5M34 48h5M49 48h4M36 49h4M48 49h5M36 50h4M49 50h2M52 50h2M35 51h1M38 51h2M50 51h1M54 51h1M34 52h1M39 52h1M51 52h1" />
<path stroke="#624a00" d="M37 3h4M35 4h2M34 5h1M41 5h6M33 6h1M38 6h3M44 6h1M47 6h3M33 7h1M36 7h2M45 7h1M49 7h2M54 7h1M32 8h1M35 8h1M46 8h1M49 8h1M51 8h1M55 8h1M32 9h1M34 9h1M47 9h2M52 9h1M55 9h1M32 10h1M34 10h1M53 10h2M31 11h1M33 11h1M31 12h1M33 12h1M33 13h1" />
<path stroke="#e6ac00" d="M41 3h2M46 4h1M49 5h1M45 6h2M46 7h3M47 8h2M31 9h1M31 10h1M30 11h1M30 12h1M30 13h1M32 13h1M39 13h2M30 14h1M32 14h1M41 14h1M41 15h1M41 16h1M53 49h1M35 50h1M51 50h1M54 50h1M36 51h1M55 51h1" />
<path stroke="#7b7b18" d="M39 8h4M44 9h2M46 10h1M40 11h1M39 12h1M49 13h1M31 14h1M43 14h1M38 15h1M43 15h1M50 15h1M38 16h1M29 17h1M38 17h1M29 18h1M29 19h1M35 19h2M51 19h1M30 20h1M42 22h1M41 23h1M41 24h1M40 25h1M38 26h2M44 26h1M35 27h1M37 27h1M43 27h1M41 28h1M51 32h1M41 36h1M50 39h1M40 40h1M39 42h1M16 44h5M49 44h1M15 45h1M22 45h2M15 46h1M16 47h1M25 47h1M39 47h1M17 49h1M41 49h1M46 49h1M21 51h1M21 52h1M20 53h1M20 54h1M20 55h1M19 56h1M19 57h1M23 57h1M19 58h1M23 58h1M18 59h1M23 59h1M18 60h1M24 60h1M25 62h1M58 62h1M27 63h1M27 64h1M39 65h1M19 66h1M42 67h5M38 68h1M42 68h6M43 69h5M20 70h1M23 70h1M25 70h1M45 70h2M58 70h1M24 71h1M27 71h2M37 71h1M27 72h1M52 72h2M55 72h2M51 73h1M54 73h2M29 74h1M31 74h1M33 74h1M31 75h2M34 75h1" />
<path stroke="#c5cd00" d="M37 9h2M43 9h1M35 10h2M34 11h1M41 11h1M42 12h1M42 13h2M33 14h1M38 14h1M30 15h1M30 16h1M43 16h1M40 17h2M32 18h1M44 18h1M37 19h1M42 19h2M33 20h1M45 25h1M42 27h1M23 49h1M22 50h1M23 60h1M22 61h2M52 61h3M22 62h3M38 62h1M51 62h7M21 63h4M38 63h3M50 63h9M19 64h7M38 64h4M49 64h9M19 65h8M37 65h2M40 65h3M47 65h11M20 66h7M37 66h2M48 66h10M20 67h7M36 67h3M48 67h10M20 68h7M28 68h1M30 68h1M32 68h1M35 68h3M49 68h9M20 69h7M28 69h2M31 69h1M33 69h5M49 69h10M21 70h2M24 70h1M28 70h10M50 70h8M21 71h2M29 71h8M50 71h8M29 72h8M50 72h2M54 72h1M29 73h8M50 73h1M52 73h1M30 74h1M32 74h1M34 74h3M29 75h1M35 75h1M35 76h1" />
<path stroke="#ffffb4" d="M39 9h4M37 10h9M35 11h5M42 11h6M34 12h5M43 12h6M34 13h5M44 13h5M34 14h4M44 14h5M31 15h7M44 15h5M31 16h7M42 16h1M44 16h4M30 17h8M42 17h4M30 18h2M33 18h11M30 19h5M38 19h4M31 20h2M42 33h1M42 34h2M42 35h3M42 36h3M41 37h4M41 38h4M41 39h4M41 40h4M40 41h5M40 42h5M40 43h4M41 44h3M16 45h3M17 46h4M18 47h4M19 48h2" />
<path stroke="#101010" d="M47 10h1M48 11h1M49 12h1M31 13h1M50 14h1M39 15h1M39 16h1M51 16h1M39 17h1M51 17h1M51 18h1M34 20h1M39 20h4M52 20h1M31 21h3M42 21h1M52 21h1M34 22h2M52 22h1M52 23h1M52 24h1M36 25h1M52 25h1M35 26h1M52 26h1M36 27h1M52 27h1M35 28h1M40 28h1M52 28h1M36 29h4M41 29h1M52 29h1M41 30h1M52 30h1M41 31h1M52 31h1M41 32h1M41 33h1M51 33h1M41 34h1M51 34h1M34 35h1M41 35h1M51 35h1M58 35h1M51 36h1M53 36h1M60 36h2M40 37h1M51 37h1M53 37h1M61 37h1M40 38h1M51 38h1M53 38h1M40 39h1M53 39h1M50 40h1M53 40h1M60 40h1M39 41h1M50 41h1M52 41h1M50 42h1M52 42h1M62 42h1M38 43h1M50 43h1M62 43h1M38 44h1M62 44h1M24 45h2M38 45h1M49 45h1M26 46h1M38 46h1M49 46h1M61 46h1M27 47h1M48 47h1M60 47h1M16 48h1M39 48h1M48 48h1M61 48h1M40 49h1M47 49h1M17 50h1M42 50h4M62 50h1M18 51h1M62 51h1M19 52h1M63 53h1M63 54h1M64 56h1M64 57h1M62 58h3M60 59h1M51 60h3M58 60h1M18 61h1M24 61h1M38 61h1M51 61h1M55 61h4M18 62h1M30 62h1M36 62h1M39 62h1M50 62h1M18 63h1M25 63h1M33 63h2M41 63h1M49 63h1M59 63h1M18 64h1M26 64h1M42 64h1M48 64h1M59 64h1M18 65h1M27 65h1M43 65h1M46 65h1M59 65h1M27 66h1M39 66h9M59 66h1M19 67h1M27 67h1M39 67h1M41 67h1M47 67h1M59 67h1M19 68h1M27 68h1M41 68h1M48 68h1M59 68h1M19 69h1M27 69h1M38 69h1M42 69h1M48 69h1M59 69h1M27 70h1M38 70h1M43 70h2M47 70h3M20 71h1M45 71h2M49 71h1M58 71h1M21 72h1M24 72h1M28 72h1M37 72h1M46 72h4M57 72h2M22 73h2M25 73h4M37 73h1M49 73h1M57 73h1M59 73h1M28 74h1M37 74h1M50 74h2M54 74h1M58 74h2M27 75h1M36 75h1M52 75h2M55 75h3M27 76h2M32 76h1M36 76h1M29 77h3M33 77h3" />
<path stroke="#ffffff" d="M40 12h2M41 13h1M39 14h1M42 14h1M42 15h1M40 31h1M38 32h2M36 33h1M36 34h1M29 35h4M36 35h1M53 35h4M27 36h2M35 36h1M52 36h1M57 36h2M26 37h1M35 37h1M52 37h1M59 37h2M24 38h1M35 38h1M52 38h1M60 38h1M24 39h1M35 39h1M52 39h1M59 39h1M25 40h1M35 40h1M52 40h1M59 40h1M25 41h1M51 41h1M60 41h1M25 42h1M36 42h1M51 42h1M61 42h1M26 43h1M51 43h1M61 43h1M26 44h1M61 44h1M26 45h1M54 45h3M60 45h1M32 46h3M57 46h2M60 46h1M30 47h2M59 47h1M28 48h1M60 48h1M61 49h1M27 50h1M61 50h1M27 51h1M61 51h1M26 52h1M47 52h1M61 52h1M26 53h1M41 53h1M47 53h1M62 53h1M26 54h1M41 54h1M47 54h1M62 54h1M26 55h1M41 55h1M48 55h1M62 55h1M26 56h1M40 56h1M48 56h1M63 56h1M27 57h1M40 57h1M49 57h1M61 57h3M27 58h1M39 58h1M49 58h2M59 58h2M26 59h1M39 59h1M51 59h4M58 59h1M26 60h3M38 60h1M55 60h3M30 61h1M35 61h2M39 61h1M50 61h1M32 62h3M40 62h2M49 62h1M42 63h1M47 63h2M43 64h1M46 64h1M44 65h2M23 71h1M25 71h1M22 72h2M53 73h1M56 73h1M52 74h2M55 74h2M30 75h1M33 75h1M29 76h3M33 76h2" />
<path stroke="#f6f608" d="M49 14h1M49 15h1M48 16h3M46 17h5M45 18h6M44 19h7M43 20h9M43 21h9M43 22h9M42 23h10M42 24h10M41 25h4M46 25h6M40 26h4M45 26h7M38 27h4M44 27h8M36 28h4M42 28h10M42 29h10M42 30h10M42 31h10M42 32h9M43 33h8M44 34h7M45 35h6M45 36h6M45 37h6M45 38h6M45 39h5M45 40h5M45 41h5M45 42h5M39 43h1M44 43h6M39 44h2M44 44h5M19 45h3M39 45h10M16 46h1M21 46h5M39 46h10M17 47h1M22 47h3M26 47h1M40 47h8M17 48h2M21 48h6M40 48h8M18 49h5M24 49h2M42 49h4M18 50h4M23 50h3M19 51h2M22 51h4M20 52h1M22 52h3M21 53h4M21 54h4M21 55h4M20 56h5M20 57h3M24 57h2M20 58h3M24 58h2M19 59h4M24 59h1M19 60h4M19 61h3M25 61h1M19 62h3M26 62h4M37 62h1M19 63h2M26 63h1M28 63h4M35 63h3M28 64h10M58 64h1M28 65h9M58 65h1M28 66h9M58 66h1M28 67h8M58 67h1M29 68h1M31 68h1M33 68h2M58 68h1M30 69h1M32 69h1" />
<path stroke="#ff8300" d="M35 20h3M34 21h8M37 22h3M38 23h1M40 33h1M38 34h3M38 35h3M37 36h4M29 37h5M37 37h3M54 37h3M27 38h7M37 38h1M54 38h5M26 39h8M54 39h4M27 40h7M55 40h3M27 41h6M56 41h3M27 42h5M56 42h4M28 43h4M57 43h3M28 44h3M57 44h3M29 45h2M38 47h1M56 47h1M56 48h3M29 49h3M56 49h4M29 50h3M56 50h4M29 51h4M56 51h4M28 52h5M55 52h5M28 53h7M54 53h7M28 54h8M39 54h1M52 54h9M28 55h12M50 55h11M28 56h11M42 56h1M45 56h2M50 56h11M29 57h10M42 57h6M51 57h8M29 58h9M41 58h7M55 58h3M29 59h9M41 59h8M31 60h4M40 60h10M42 61h7M43 62h4M44 63h2" />
<path stroke="#a42000" d="M38 20h1M36 22h1M40 22h2M37 23h1M39 23h1M37 24h1M37 25h1M36 26h1M40 30h1M38 31h2M36 32h2M35 33h1M29 34h4M35 34h1M52 34h5M27 35h2M33 35h1M35 35h1M52 35h1M57 35h1M26 36h1M34 36h1M59 36h1M24 37h2M34 37h1M23 38h1M34 38h1M61 38h1M23 39h1M34 39h1M60 39h1M24 40h1M34 40h1M24 41h1M35 41h1M61 41h1M24 42h1M35 42h1M25 43h1M36 43h1M25 44h1M51 44h5M32 45h3M57 45h2M61 45h1M29 46h3M59 46h1M28 47h1M27 48h1M26 49h1M26 50h1M26 51h1M25 52h1M42 52h1M46 52h1M62 52h1M25 53h1M42 53h1M46 53h1M25 54h1M42 54h1M46 54h1M25 55h1M42 55h1M47 55h1M63 55h1M25 56h1M41 56h1M47 56h1M26 57h1M41 57h1M48 57h1M26 58h1M40 58h1M48 58h1M61 58h1M25 59h1M40 59h1M49 59h2M59 59h1M25 60h1M39 60h1M54 60h1M26 61h4M37 61h1M31 62h1M35 62h1M32 63h1M47 64h1" />
<path stroke="#ffb431" d="M40 23h1M38 24h3M38 25h2M37 26h1M40 32h1M37 33h3M37 34h1M37 35h1M29 36h5M36 36h1M54 36h3M27 37h2M36 37h1M57 37h2M25 38h2M36 38h1M59 38h1M25 39h1M36 39h1M58 39h1M26 40h1M36 40h1M58 40h1M26 41h1M36 41h1M59 41h1M26 42h1M60 42h1M27 43h1M60 43h1M27 44h1M60 44h1M27 45h2M53 45h1M59 45h1M27 46h2M35 46h1M55 46h2M29 47h1M32 47h1M57 47h2M29 48h3M59 48h1M27 49h2M60 49h1M28 50h1M60 50h1M28 51h1M47 51h1M60 51h1M27 52h1M41 52h1M60 52h1M27 53h1M61 53h1M27 54h1M40 54h1M48 54h1M61 54h1M27 55h1M40 55h1M49 55h1M61 55h1M27 56h1M39 56h1M49 56h1M61 56h2M28 57h1M39 57h1M50 57h1M59 57h2M28 58h1M38 58h1M51 58h4M58 58h1M27 59h2M38 59h1M55 59h3M29 60h2M35 60h3M50 60h1M31 61h4M40 61h2M49 61h1M42 62h1M47 62h2M43 63h1M46 63h1M44 64h2" />
<path stroke="#d55200" d="M38 38h2M37 39h3M51 39h1M37 40h3M51 40h1M54 40h1M33 41h2M37 41h2M53 41h3M32 42h3M37 42h2M53 42h3M32 43h4M37 43h1M52 43h5M31 44h7M50 44h1M56 44h1M31 45h1M35 45h3M50 45h3M36 46h2M50 46h5M33 47h2M54 47h2M32 48h2M53 48h3M32 49h4M54 49h2M32 50h3M40 50h2M46 50h3M55 50h1M33 51h2M37 51h1M40 51h7M48 51h2M51 51h3M33 52h1M35 52h4M40 52h1M43 52h3M48 52h3M52 52h3M35 53h6M43 53h3M48 53h6M36 54h3M43 54h3M49 54h3M43 55h4M43 56h2" />
<path stroke="#cdcdcd" d="M26 70h1M26 71h1M25 72h2M57 74h1M28 75h1" />
<path stroke="#6a6a6a" d="M47 71h2M58 73h1" />
</svg>