<svg xmlns="http://www.w3.org/2000/svg" viewBox="0 -0.5 80 80" shape-rendering="crispEdges">
<metadata>Made with Pixels to Svg https://codepen.io/shshaw/pen/XbxvNj</metadata>
<path stroke="#cdb462" d="M19 4h1M18 5h1M23 5h1M37 5h1M17 6h1M22 6h2M37 6h1M23 7h1M37 7h1M23 8h1M37 8h1M42 8h1M51 8h2M22 9h9M37 9h2M41 9h2M49 9h5M22 10h8M36 10h3M40 10h2M49 10h6M21 11h1M29 11h1M36 11h3M40 11h2M49 11h3M54 11h2M19 12h1M35 12h4M40 12h1M48 12h5M55 12h1M34 13h5M40 13h1M48 13h3M53 13h1M55 13h1M13 14h1M33 14h7M49 14h3M55 14h2M12 15h1M32 15h8M50 15h3M55 15h2M11 16h1M32 16h8M51 16h7M31 17h10M52 17h6M69 17h1M31 18h10M53 18h2M67 18h2M30 19h12M60 19h1M30 20h9M40 20h3M60 20h2M28 21h1M32 21h7M40 21h5M60 21h3M27 22h1M33 22h5M39 22h8M60 22h2M12 23h1M26 23h1M34 23h4M39 23h4M12 24h1M25 24h1M34 24h3M38 24h4M48 24h1M59 24h2M11 25h1M24 25h1M29 25h1M35 25h2M38 25h3M47 25h2M58 25h4M11 26h1M23 26h1M25 26h1M29 26h1M35 26h5M46 26h3M58 26h5M11 27h1M24 27h1M29 27h2M35 27h4M45 27h4M57 27h5M64 27h1M11 28h1M22 28h1M28 28h3M35 28h4M44 28h5M57 28h4M62 28h3M11 29h1M21 29h1M27 29h3M34 29h2M37 29h7M45 29h3M56 29h5M62 29h2M9 30h1M11 30h1M26 30h3M34 30h2M37 30h8M46 30h2M55 30h5M10 31h1M24 31h4M36 31h10M53 31h7M15 32h1M21 32h6M35 32h6M53 32h7M8 33h1M19 33h6M35 33h4M53 33h8M8 34h2M17 34h6M34 34h4M54 34h5M8 35h1M13 35h6M33 35h4M54 35h2M8 36h1M19 36h3M32 36h5M13 37h1M26 37h1M33 37h3M46 37h1M7 38h1M13 38h1M21 38h1M24 38h1M26 38h1M33 38h3M45 38h3M6 39h2M22 39h2M34 39h1M44 39h3M69 39h4M17 40h1M65 40h9M66 41h8M14 42h1M72 42h2M67 43h1M73 43h1M73 44h1M73 45h1M51 47h1M68 47h1M70 47h1M52 48h2M59 48h2M67 48h1M69 48h1M53 49h2M59 49h2M66 49h1M68 49h1M54 50h2M60 50h1M62 51h1M64 52h1M65 53h1M69 54h4M65 55h8M65 56h8M64 57h7M64 58h4M63 59h4M68 59h1M52 60h1M64 60h3M68 60h2M51 61h6M65 61h2M70 61h1M53 62h6M54 63h6M47 64h2M55 64h4M35 65h4M47 65h2M55 65h1M34 66h5M43 66h2M47 66h2M56 66h3M34 67h6M43 67h3M47 67h1M56 67h4M27 68h1M34 68h5M43 68h4M26 69h2M42 69h5M25 70h3M42 70h1M46 70h1M25 71h2M25 72h1M40 74h1M37 75h1" />
<path stroke="#947b39" d="M20 4h2M33 4h3M32 5h1M31 6h1M36 6h1M45 6h2M17 7h1M22 7h1M36 7h1M42 7h3M17 8h1M22 8h1M24 8h1M30 8h1M36 8h1M41 8h1M50 8h1M16 9h1M21 9h1M36 9h1M40 9h1M16 10h1M21 10h1M35 10h1M16 11h1M20 11h1M35 11h1M52 11h2M73 11h2M15 12h1M34 12h1M53 12h2M72 12h1M75 12h1M14 13h1M33 13h1M51 13h1M54 13h1M70 13h2M74 13h1M52 14h1M54 14h1M70 14h1M73 14h2M16 15h1M24 15h3M45 15h4M53 15h2M72 15h2M16 16h1M23 16h1M43 16h7M71 16h2M10 17h1M16 17h1M42 17h9M71 17h1M10 18h1M15 18h1M42 18h11M64 18h1M70 18h1M9 19h1M14 19h1M22 19h1M43 19h10M69 19h2M9 20h1M13 20h1M22 20h1M39 20h1M45 20h10M66 20h4M7 21h1M9 21h1M13 21h1M39 21h1M47 21h7M64 21h6M6 22h1M9 22h1M12 22h1M21 22h1M29 22h3M49 22h4M62 22h5M68 22h1M5 23h1M29 23h4M48 23h1M50 23h3M59 23h1M61 23h7M5 24h1M29 24h5M47 24h1M50 24h1M62 24h6M4 25h1M20 25h1M30 25h5M46 25h1M63 25h5M5 26h1M30 26h5M45 26h1M68 26h1M5 27h3M31 27h3M44 27h1M62 27h2M65 27h4M6 28h2M19 28h1M31 28h3M39 28h5M61 28h1M65 28h5M7 29h2M18 29h1M31 29h2M61 29h1M64 29h6M8 30h1M18 30h1M21 30h1M32 30h1M51 30h2M61 30h9M8 31h1M18 31h1M21 31h1M49 31h2M61 31h9M20 32h1M51 32h2M60 32h1M63 32h7M11 33h1M41 33h3M50 33h3M64 33h5M39 34h2M50 34h4M59 34h2M6 35h1M27 35h1M38 35h2M49 35h5M56 35h3M6 36h1M12 36h1M38 36h2M48 36h3M69 36h2M5 37h1M30 37h1M37 37h3M47 37h3M51 37h4M68 37h4M5 38h1M11 38h1M31 38h1M37 38h2M50 38h5M67 38h6M5 39h1M31 39h1M36 39h3M47 39h6M66 39h3M5 40h1M9 40h1M25 40h1M34 40h1M46 40h4M64 40h1M5 41h1M45 41h4M65 41h1M5 42h1M22 42h1M34 42h1M44 42h4M66 42h1M6 43h1M12 43h1M19 43h1M33 43h2M43 43h3M68 43h5M32 44h2M39 44h6M67 44h6M7 45h1M29 45h1M31 45h2M39 45h4M66 45h7M39 46h2M66 46h7M50 47h1M65 47h3M69 47h1M71 47h2M50 48h2M65 48h2M68 48h1M70 48h1M51 49h2M57 49h2M61 49h2M65 49h1M67 49h1M52 50h2M61 50h2M70 50h1M53 51h2M63 51h2M70 51h2M54 52h1M65 52h7M66 53h3M72 53h1M64 55h1M64 56h1M63 57h1M71 57h1M63 58h1M68 58h1M71 58h1M53 59h2M57 59h2M53 60h3M57 60h6M59 61h5M68 61h2M61 62h3M70 62h2M49 63h1M72 63h2M45 64h1M59 64h1M73 64h4M43 65h3M56 65h7M75 65h2M39 66h1M45 66h2M55 66h1M59 66h4M28 67h3M40 67h1M42 67h1M46 67h1M48 67h1M55 67h1M60 67h3M26 68h1M28 68h4M40 68h1M42 68h1M47 68h2M55 68h1M60 68h3M29 69h3M34 69h1M39 69h2M47 69h3M54 69h1M61 69h1M29 70h4M34 70h4M39 70h2M44 70h2M47 70h1M53 70h1M23 71h1M27 71h1M30 71h2M34 71h4M39 71h2M22 72h1M26 72h1M31 72h1M36 72h2M43 72h2M46 72h1M21 73h1M42 73h3M46 73h2M20 74h1M41 74h2M45 74h3M39 75h2M37 76h2" />
<path stroke="#101010" d="M22 4h2M36 4h2M24 5h1M38 5h1M24 6h1M38 6h1M47 6h3M24 7h1M31 7h1M38 7h1M50 7h3M25 8h5M31 8h1M53 8h1M39 9h1M54 9h1M39 10h1M55 10h1M39 11h1M39 12h1M56 12h1M56 13h1M75 13h1M40 14h1M57 14h1M69 14h1M75 14h1M40 15h1M57 15h1M68 15h1M74 15h1M40 16h1M58 16h1M66 16h2M73 16h1M41 17h1M61 17h1M64 17h2M72 17h1M41 18h1M59 18h1M62 18h2M71 18h1M42 19h1M59 19h1M64 19h2M67 19h1M71 19h1M43 20h2M59 20h1M70 20h1M8 21h1M45 21h2M59 21h1M70 21h1M28 22h1M47 22h2M59 22h1M69 22h1M27 23h2M49 23h1M58 23h1M69 23h1M26 24h3M49 24h1M58 24h1M68 24h1M25 25h4M49 25h1M57 25h1M68 25h1M4 26h1M24 26h1M26 26h3M49 26h1M57 26h1M69 26h1M4 27h1M23 27h1M26 27h2M34 27h1M49 27h1M56 27h1M69 27h1M5 28h1M23 28h1M26 28h2M34 28h1M56 28h1M6 29h1M25 29h2M30 29h1M33 29h1M44 29h1M48 29h1M55 29h1M7 30h1M22 30h1M24 30h2M29 30h3M33 30h1M45 30h1M48 30h1M53 30h2M70 30h1M9 31h1M22 31h2M28 31h7M46 31h2M51 31h2M70 31h1M8 32h2M27 32h8M41 32h2M46 32h5M70 32h1M9 33h1M15 33h1M26 33h9M39 33h2M44 33h1M47 33h1M69 33h1M10 34h1M24 34h10M38 34h1M41 34h3M47 34h1M69 34h1M9 35h3M19 35h8M29 35h4M37 35h1M40 35h1M61 35h1M68 35h3M9 36h2M13 36h6M22 36h5M30 36h2M37 36h1M40 36h1M46 36h2M61 36h1M66 36h3M71 36h1M8 37h3M14 37h4M22 37h4M36 37h1M40 37h1M45 37h1M61 37h7M72 37h1M8 38h1M10 38h1M14 38h4M22 38h2M25 38h1M36 38h1M39 38h1M44 38h1M55 38h1M61 38h6M73 38h1M8 39h1M10 39h12M25 39h1M35 39h1M39 39h1M43 39h1M53 39h13M73 39h1M10 40h4M18 40h4M35 40h1M38 40h1M42 40h1M50 40h3M58 40h6M74 40h1M9 41h5M18 41h4M23 41h2M34 41h1M41 41h1M49 41h1M74 41h1M10 42h4M18 42h4M33 42h1M40 42h1M48 42h1M59 42h1M74 42h1M13 43h6M32 43h1M39 43h1M46 43h1M59 43h1M74 43h1M31 44h1M38 44h1M45 44h1M59 44h1M74 44h1M30 45h1M38 45h1M43 45h2M59 45h1M74 45h1M28 46h3M38 46h1M41 46h2M50 46h1M60 46h1M73 46h1M8 47h1M27 47h1M39 47h2M49 47h1M60 47h1M73 47h1M9 48h2M25 48h1M49 48h1M61 48h1M71 48h2M11 49h2M22 49h2M50 49h1M63 49h2M69 49h2M14 50h7M51 50h1M65 50h4M52 51h1M53 52h1M54 58h1M55 59h1M56 60h1M73 60h1M57 61h2M67 61h1M74 61h1M59 62h2M64 62h2M67 62h2M45 63h1M61 63h3M69 63h2M43 64h2M71 64h2M42 65h1M49 65h1M73 65h2M77 65h1M28 66h3M42 66h1M49 66h1M75 66h2M27 67h1M31 67h1M41 67h1M49 67h2M41 68h1M49 68h2M25 69h1M41 69h1M51 69h1M24 70h1M33 70h1M41 70h1M52 70h1M33 71h1M41 71h1M52 71h3M34 72h2M39 72h2M50 72h1M53 72h1M55 72h3M36 73h4M51 73h2M37 74h2M43 74h2M48 74h3M19 75h1M36 75h1M41 75h2M45 75h4M19 76h1M36 76h1M39 76h2M37 77h2" />
<path stroke="#ffff9c" d="M19 5h4M33 5h4M18 6h4M32 6h4M49 7h1M49 8h1M48 9h1M48 10h1M48 11h1M47 12h1M73 12h2M47 13h1M72 13h2M13 15h1M12 16h3M11 17h5M17 17h2M11 18h4M16 18h5M10 19h4M15 19h7M23 19h1M10 20h3M14 20h8M23 20h3M10 21h3M14 21h7M22 21h6M10 22h2M13 22h8M22 22h5M9 23h3M13 23h7M21 23h5M9 24h3M13 24h7M21 24h4M9 25h2M12 25h8M21 25h3M45 25h1M9 26h2M12 26h7M20 26h3M43 26h2M9 27h2M12 27h7M20 27h3M41 27h3M9 28h2M12 28h7M20 28h2M24 28h1M9 29h2M12 29h6M19 29h2M24 29h1M10 30h1M12 30h6M19 30h2M11 31h7M19 31h1M10 32h1M12 32h3M16 32h2M10 33h1M12 33h3M16 33h2M13 34h4M7 35h1M7 36h1M6 37h2M6 38h1M8 41h1M25 41h4M7 42h3M23 42h7M7 43h5M20 43h11M7 44h22M8 45h20M65 45h1M8 46h19M65 46h1M9 47h17M64 47h1M11 48h13M64 48h1M14 49h7M59 50h1M60 51h2M60 52h4M60 53h5M60 54h5M61 55h3M61 56h3M61 57h2M62 58h1M52 62h1M53 63h1M54 64h1" />
<path stroke="#eee67b" d="M18 7h4M32 7h4M45 7h4M18 8h4M32 8h4M43 8h6M17 9h4M32 9h4M43 9h5M17 10h4M31 10h4M42 10h6M17 11h3M22 11h7M31 11h4M42 11h6M16 12h3M20 12h9M30 12h4M41 12h6M15 13h18M41 13h6M52 13h1M14 14h19M41 14h8M53 14h1M71 14h2M14 15h2M17 15h7M27 15h5M41 15h4M49 15h1M69 15h3M15 16h1M17 16h6M24 16h8M41 16h2M50 16h1M68 16h3M19 17h3M23 17h8M51 17h1M66 17h3M21 18h1M23 18h8M60 18h2M65 18h2M24 19h6M61 19h3M66 19h1M26 20h4M62 20h4M63 21h1M7 22h2M6 23h2M43 23h5M6 24h2M42 24h5M5 25h3M41 25h4M6 26h2M40 26h3M39 27h2M18 33h1M11 34h2M28 35h1M27 36h3M27 37h3M31 37h2M27 38h4M32 38h1M26 39h5M32 39h2M6 40h3M26 40h8M43 40h3M6 41h2M29 41h5M42 41h3M60 41h5M6 42h1M30 42h3M41 42h3M60 42h6M67 42h5M31 43h1M40 43h3M60 43h7M29 44h2M60 44h7M28 45h1M60 45h5M27 46h1M61 46h4M61 47h3M63 48h1M57 50h2M56 51h4M56 52h4M55 53h5M55 54h5M55 55h6M55 56h6M55 57h6M56 58h6M59 59h3M69 59h2M70 60h2M71 61h3M51 62h1M72 62h3M50 63h3M74 63h2M50 64h4M50 65h5M50 66h5M51 67h4M51 68h4M52 69h2M43 70h1M24 71h1M42 71h3M23 72h2M41 72h2M22 73h2M40 73h2M21 74h1M39 74h1M38 75h1" />
<path stroke="#6a4a18" d="M38 8h1M31 9h1M30 10h1M30 11h1M29 12h1M39 13h1M22 17h1M58 17h3M70 17h1M22 18h1M55 18h4M69 18h1M53 19h6M68 19h1M55 20h4M21 21h1M29 21h3M54 21h5M32 22h1M38 22h1M53 22h6M67 22h1M8 23h1M20 23h1M33 23h1M38 23h1M53 23h5M60 23h1M68 23h1M8 24h1M20 24h1M37 24h1M51 24h7M61 24h1M8 25h1M37 25h1M50 25h7M62 25h1M8 26h1M19 26h1M50 26h7M63 26h5M8 27h1M19 27h1M28 27h1M50 27h6M8 28h1M49 28h7M36 29h1M49 29h6M70 29h1M36 30h1M49 30h2M60 30h1M20 31h1M35 31h1M48 31h1M60 31h1M11 32h1M18 32h2M43 32h3M61 32h2M7 33h1M25 33h1M48 33h2M61 33h3M7 34h1M23 34h1M48 34h2M61 34h8M12 35h1M47 35h2M59 35h2M62 35h6M51 36h10M62 36h4M50 37h1M55 37h6M48 38h2M56 38h5M36 40h2M35 41h1M59 41h1M35 42h1M35 43h1M6 44h1M34 44h1M33 45h1M7 46h1M31 46h2M51 46h1M26 47h1M52 47h2M58 47h2M24 48h1M54 48h1M57 48h2M62 48h1M13 49h1M21 49h1M55 49h2M71 49h1M56 50h1M63 50h2M69 50h1M71 50h1M55 51h1M65 51h5M72 51h1M55 52h1M72 52h1M54 53h1M69 53h3M73 53h1M54 54h1M65 54h4M73 54h1M54 55h1M73 55h1M54 56h1M73 56h1M54 57h1M72 57h1M55 58h1M69 58h2M72 58h1M52 59h1M56 59h1M62 59h1M67 59h1M71 59h2M51 60h1M63 60h1M67 60h1M72 60h1M50 61h1M64 61h1M50 62h1M66 62h1M69 62h1M75 62h1M46 63h3M60 63h1M71 63h1M76 63h1M35 64h4M46 64h1M49 64h1M60 64h4M77 64h1M34 65h1M39 65h1M46 65h1M63 65h1M33 66h1M40 66h2M63 66h1M32 67h2M63 67h1M32 68h2M39 68h1M56 68h4M63 68h1M28 69h1M32 69h2M35 69h4M50 69h1M55 69h6M62 69h1M28 70h1M38 70h1M48 70h4M54 70h8M28 71h2M32 71h1M38 71h1M45 71h7M55 71h6M27 72h4M32 72h2M38 72h1M45 72h1M47 72h3M51 72h2M58 72h1M24 73h9M45 73h1M48 73h3M22 74h9M20 75h7M20 76h3" />
<path stroke="#ffffff" d="M25 27h1M25 28h1M11 36h1M11 37h2M18 37h4M9 38h1M12 38h1M18 38h3M9 39h1M24 39h1M14 40h3M22 40h3M14 41h4M22 41h1M15 42h3" />
<path stroke="#d55241" d="M22 29h2M23 30h1" />
</svg>