<svg xmlns="http://www.w3.org/2000/svg" viewBox="0 -0.5 80 80" shape-rendering="crispEdges">
<metadata>Made with Pixels to Svg https://codepen.io/shshaw/pen/XbxvNj</metadata>
<path stroke="#73ac20" d="M41 16h1M40 17h1M29 19h2M31 20h1M38 22h2M49 22h2M40 23h1M47 23h2M31 24h1M43 25h1M48 25h1M32 26h1M35 26h1M47 26h1M32 27h1M36 27h1M40 27h1M46 27h1M31 28h2M36 28h1M38 28h1M41 28h1M45 28h2M31 29h1M36 29h1M44 29h2M43 30h2M34 31h1M39 31h1M41 31h1M44 31h2M44 32h2M44 33h1M39 34h1M41 34h1M44 34h1M34 35h1M37 35h1M43 35h1M42 36h1M39 37h1M33 39h2M40 39h3M35 40h1M39 40h1M41 40h1M32 41h1M40 41h1M33 43h1M41 44h1M41 45h1M41 46h1M41 47h1M32 48h1M42 48h1M32 49h3M38 49h1M40 49h3M32 50h4M37 50h1M39 50h1M41 50h1M33 51h4M38 51h1M40 51h2M33 52h9M33 53h8M34 54h7M34 55h6M35 56h5M36 57h3M37 58h1" />
<path stroke="#cdff73" d="M41 17h1M30 20h1M31 21h1M36 23h1M49 23h1M34 24h4M35 25h1" />
<path stroke="#316a00" d="M42 17h1M39 18h1M42 18h1M39 19h1M42 19h1M29 20h1M38 20h1M42 20h1M32 21h1M38 21h1M42 21h1M30 22h1M33 22h1M36 22h2M42 22h1M34 23h2M41 23h2M50 23h1M33 24h1M45 24h2M49 24h1M32 25h1M44 25h1M36 26h1M31 27h1M34 27h1M47 27h1M30 28h1M33 28h1M30 29h1M37 29h1M42 29h1M30 30h1M32 30h1M42 30h1M45 30h1M31 31h3M43 31h1M31 32h1M38 32h6M32 33h1M39 33h1M43 33h1M43 34h1M42 35h1M35 36h2M41 36h1M40 37h1M31 38h5M37 38h2M41 38h3M29 39h2M35 39h1M44 39h2M34 40h1M46 40h1M33 41h1M46 41h1M33 42h1M42 42h1M29 43h2M32 43h1M43 43h1M26 44h3M32 44h1M46 44h2M32 45h1M43 45h1M48 45h2M24 46h1M32 46h1M44 46h2M32 47h1M42 50h1M31 51h1M42 51h1M31 52h1M31 53h1M41 53h1M31 54h1M41 54h1M32 55h1M40 55h1M32 56h1M34 56h1M32 57h1M35 57h1M36 58h1M39 58h1" />
<path stroke="#b4de52" d="M40 18h2M40 19h2M39 20h3M30 21h1M39 21h3M31 22h2M40 22h2M31 23h3M37 23h3M32 24h1M38 24h4M47 24h2M33 25h2M36 25h7M45 25h3M33 26h2M37 26h10M33 27h1M37 27h3M41 27h5M37 28h1M42 28h3M43 29h1M31 39h2M43 39h1M29 40h5M42 40h4M30 41h2M34 41h2M38 41h2M42 41h4M34 42h1M38 42h3M43 42h4M34 43h1M38 43h3M33 44h2M37 44h4M33 45h2M37 45h4M33 46h2M37 46h4M33 47h3M37 47h4M33 48h3M37 48h5M35 49h1M37 49h1M39 49h1M38 50h1M40 50h1M37 51h1M39 51h1" />
<path stroke="#101010" d="M29 21h1M30 23h1M30 24h1M42 24h2M31 25h1M49 25h1M31 26h1M48 26h1M47 28h1M46 29h1M46 30h1M30 31h1M46 31h1M30 32h1M33 32h1M46 32h1M31 33h1M41 33h1M45 33h1M31 34h1M40 34h1M45 34h1M32 35h1M44 35h1M33 36h1M43 36h1M34 37h2M41 37h2M36 38h1M39 38h2M39 39h1M28 40h1M40 40h1M53 40h1M14 41h1M29 41h1M41 41h1M52 41h1M14 42h1M30 42h3M41 42h1M47 42h1M51 42h1M64 42h1M13 43h1M41 43h1M44 43h3M51 43h1M12 44h1M24 44h1M42 44h1M50 44h1M60 44h2M65 44h1M12 45h1M31 45h1M42 45h1M50 45h1M62 45h1M65 45h1M12 46h1M27 46h4M42 46h1M49 46h1M63 46h1M66 46h1M13 47h2M25 47h1M28 47h1M42 47h1M46 47h4M60 47h2M63 47h1M66 47h1M13 48h1M28 48h1M31 48h1M43 48h1M49 48h1M61 48h1M66 48h1M14 49h1M27 49h1M31 49h1M43 49h1M49 49h1M59 49h1M66 49h1M14 50h1M27 50h1M31 50h1M43 50h1M50 50h1M59 50h1M65 50h1M14 51h1M26 51h1M32 51h1M43 51h1M50 51h1M60 51h2M65 51h1M15 52h1M23 52h3M32 52h1M43 52h1M51 52h1M65 52h1M16 53h1M19 53h4M32 53h1M43 53h1M52 53h2M64 53h1M17 54h2M33 54h1M43 54h1M54 54h2M62 54h2M33 55h1M43 55h1M56 55h1M61 55h1M40 56h1M43 56h1M57 56h4M39 57h1M42 57h1M33 58h1M38 58h1M42 58h1M33 59h1M35 59h1M37 59h1M39 59h1M42 59h1M34 60h1M40 60h1M42 60h1M41 61h1" />
<path stroke="#ffe67b" d="M35 27h1M34 28h2M40 28h1M32 29h4M38 29h4M31 30h1M33 30h9M35 31h4M40 31h1M42 31h1M32 32h1M34 32h4M34 33h4M40 33h1M33 34h6M35 35h2M25 44h1M25 45h4M45 45h2M46 46h3M32 54h1M42 54h1M41 55h2M41 56h1" />
<path stroke="#cdac5a" d="M39 28h1M33 33h1M38 33h1M42 33h1M32 34h1M42 34h1M33 35h1M38 35h4M34 36h1M37 36h4M36 37h3M31 43h1M42 43h1M29 44h3M43 44h3M24 45h1M29 45h2M44 45h1M47 45h1M25 46h2M42 52h1M42 53h1M33 56h1M42 56h1M33 57h2M40 57h2M34 58h2M40 58h2M34 59h1M40 59h2M41 60h1" />
<path stroke="#8339a4" d="M16 38h2M20 38h4M15 39h1M18 39h2M24 39h2M14 40h1M26 40h1M26 41h1M26 42h2M14 43h2M19 43h1M21 43h1M24 43h4M13 44h4M18 44h1M20 44h1M22 44h2M13 45h5M19 45h1M21 45h3M13 46h8M22 46h2M15 47h3M21 47h4M26 47h2M14 48h2M18 48h10M16 49h11M15 50h12M15 51h11M16 52h7M17 53h2" />
<path stroke="#de94ff" d="M16 39h1M20 39h3M15 40h1M19 40h6M15 41h1M20 41h6M22 42h3M18 47h1M16 48h1" />
<path stroke="#b46ad5" d="M17 39h1M23 39h1M16 40h3M25 40h1M16 41h4M15 42h7M25 42h1M16 43h3M20 43h1M22 43h2M17 44h1M19 44h1M21 44h1M18 45h1M20 45h1M21 46h1M19 47h2M17 48h1M15 49h1" />
<path stroke="#c5a420" d="M36 39h3M36 40h3" />
<path stroke="#41394a" d="M55 39h4M54 40h2M59 40h4M63 41h1M63 42h1M57 43h1M65 43h1M51 44h1M56 44h1M59 44h1M62 44h2M51 45h2M56 45h4M64 45h1M50 46h1M52 46h5M58 46h1M65 46h1M50 47h2M53 47h3M57 47h1M65 47h1M50 48h2M53 48h3M57 48h3M62 48h2M65 48h1M50 49h3M55 49h1M57 49h1M61 49h2M64 49h2M51 50h6M60 50h1M63 50h2M51 51h7M62 51h2M52 52h5M58 52h1M62 52h1M64 52h1M54 53h3M59 53h5M56 54h2M61 54h1M57 55h4" />
<path stroke="#9c94a4" d="M56 40h3M54 41h4M59 41h4M54 42h4M59 42h4M55 43h2M58 43h2M63 43h1M60 45h1M60 46h2M52 48h1M53 49h1" />
<path stroke="#f6c541" d="M36 41h2M35 42h3M35 43h3M35 44h2M35 45h2M35 46h2M36 47h1M36 48h1M36 49h1M36 50h1" />
<path stroke="#6a6273" d="M53 41h1M58 41h1M52 42h2M58 42h1M52 43h3M60 43h3M64 43h1M52 44h4M57 44h2M64 44h1M53 45h3M61 45h1M63 45h1M51 46h1M57 46h1M59 46h1M62 46h1M64 46h1M52 47h1M56 47h1M58 47h2M62 47h1M64 47h1M56 48h1M60 48h1M64 48h1M54 49h1M56 49h1M58 49h1M60 49h1M63 49h1M57 50h2M61 50h2M58 51h2M64 51h1M57 52h1M59 52h3M63 52h1M57 53h2M58 54h3" />
</svg>