<svg xmlns="http://www.w3.org/2000/svg" viewBox="0 -0.5 32 32" shape-rendering="crispEdges">
<metadata>Made with Pixels to Svg https://codepen.io/shshaw/pen/XbxvNj</metadata>
<path stroke="#202020" d="M12 9h10M11 10h1M22 10h1M10 11h1M23 11h1M9 12h1M24 12h1M8 13h1M25 13h1M8 14h1M25 14h1M8 15h1M25 15h1M9 16h1M24 16h1M10 17h1M23 17h1M11 18h1M22 18h1M12 19h1M21 19h1M13 20h1M20 20h1M14 21h1M19 21h1M15 22h1M18 22h1M16 23h2" />
<path stroke="#6aeeee" d="M12 10h2M20 10h2M12 11h1M21 12h1M12 13h1M20 13h1M11 14h1M19 14h3M18 15h5M17 16h5M21 18h1M14 19h1M20 19h1M15 20h1M19 20h1M16 21h1M18 21h1" />
<path stroke="#acffff" d="M14 10h6M11 11h1M13 11h8M22 11h1M10 12h3M22 12h2M9 13h3M14 13h6M22 13h3M10 14h1M15 14h4M23 14h1M9 15h1M16 15h2M24 15h1M10 16h1M11 17h1M12 18h1M15 21h1M16 22h1" />
<path stroke="#31d5ff" d="M21 11h1M13 12h8M21 13h1M9 14h1M22 14h1M24 14h1M10 15h1M23 15h1M11 16h1M22 16h2M15 17h2M22 17h1M14 18h3M15 19h2M16 20h1M17 22h1" />
<path stroke="#eeffff" d="M13 13h1M12 14h3M11 15h5M12 16h5M13 19h1M14 20h1" />
<path stroke="#18b4ff" d="M12 17h3M21 17h1M13 18h1M20 18h1M19 19h1M18 20h1M17 21h1" />
<path stroke="#009ccd" d="M17 17h4M17 18h3M17 19h2M17 20h1" />
</svg>