<svg xmlns="http://www.w3.org/2000/svg" viewBox="0 -0.5 80 80" shape-rendering="crispEdges">
<metadata>Made with Pixels to Svg https://codepen.io/shshaw/pen/XbxvNj</metadata>
<path stroke="#425a00" d="M18 19h6M17 20h1M24 20h4M14 21h1M28 21h2M11 22h2M30 22h2M32 23h2M5 28h1M40 32h1M41 34h1M42 36h1M20 37h3M18 38h2M43 38h1M44 40h1M44 42h1M45 43h1M19 44h1M17 45h1M29 45h1M41 45h1M25 47h1M39 49h1M17 50h1M38 50h1M14 51h1M18 51h2M12 52h1M12 68h1M13 69h1M13 70h1M13 71h1M58 71h6M13 72h1M57 72h9M14 73h1M56 73h11M55 74h13" />
<path stroke="#294200" d="M15 20h2M13 21h1M10 23h1M9 24h1M34 24h1M8 25h1M35 25h1M7 26h1M36 26h1M6 27h1M35 27h1M37 27h1M5 29h1M36 29h1M4 30h1M37 30h1M39 30h1M4 31h1M38 31h2M3 32h1M39 32h1M3 33h1M40 33h1M3 34h1M2 35h1M41 35h1M42 37h1M17 39h1M43 39h1M16 40h1M15 41h1M44 41h1M15 42h1M14 43h1M18 44h1M42 44h1M45 44h1M16 45h1M40 45h1M46 45h1M15 46h1M29 46h1M38 46h2M47 46h1M3 47h1M14 47h1M28 47h1M36 47h2M49 47h1M13 48h1M25 48h1M34 48h2M50 48h1M12 49h1M32 49h2M40 49h2M4 50h1M11 50h1M15 50h2M31 50h1M42 50h1M46 50h1M10 51h1M13 51h1M44 51h1M47 51h1M20 52h1M46 52h1M9 53h1M28 53h1M28 54h1M42 54h1M50 54h2M44 55h1M40 56h1M42 57h1M45 57h1M37 59h1M20 60h1M44 60h1M37 61h1M41 61h1M41 63h1M12 65h1M11 66h1M11 67h1M59 67h1M63 67h1M3 68h1M58 68h1M64 68h1M66 70h1M4 71h1M14 74h1M70 74h1" />
<path stroke="#94ad29" d="M18 20h2M15 21h4M13 22h8M11 23h13M10 24h17M32 24h2M9 25h7M21 25h14M8 26h5M24 26h11M7 27h4M26 27h9M7 28h2M27 28h9M6 29h2M28 29h8M5 30h2M29 30h8M5 31h2M30 31h8M5 32h1M31 32h8M5 33h1M32 33h8M33 34h8M34 35h7M34 36h8M35 37h7M35 38h8M36 39h7M36 40h8M37 41h7M37 42h7M38 43h7M38 44h4M39 45h1M44 45h1M43 46h4M38 47h8M19 48h4M36 48h7M18 49h6M34 49h5M43 49h2M18 50h6M32 50h6M41 50h1M44 50h2M15 51h3M20 51h3M31 51h7M40 51h4M13 52h7M21 52h2M30 52h9M42 52h4M12 53h8M29 53h8M44 53h2M12 54h7M29 54h7M52 54h4M13 55h5M30 55h5M50 55h6M14 56h4M31 56h3M51 56h4M11 68h1M11 69h2M10 70h3M10 71h3M11 72h2M11 73h3M12 74h2" />
<path stroke="#bdce4a" d="M20 20h4M19 21h9M21 22h9M24 23h8M27 24h5M42 45h2M40 46h3M39 50h2M38 51h2M35 55h2M36 56h2" />
<path stroke="#637b08" d="M16 25h5M13 26h11M11 27h15M6 28h1M9 28h18M8 29h20M7 30h22M7 31h23M4 32h1M6 32h25M4 33h1M6 33h26M4 34h29M3 35h31M3 36h31M3 37h17M23 37h12M3 38h15M20 38h15M3 39h14M18 39h18M3 40h13M17 40h19M3 41h12M16 41h21M3 42h12M16 42h21M3 43h11M15 43h23M3 44h11M15 44h3M20 44h18M3 45h11M15 45h1M18 45h11M30 45h9M3 46h11M16 46h13M30 46h8M4 47h10M15 47h10M26 47h2M29 47h7M46 47h3M4 48h9M14 48h5M23 48h2M26 48h2M29 48h5M45 48h5M4 49h8M13 49h5M24 49h1M26 49h1M28 49h4M47 49h3M5 50h6M12 50h3M25 50h1M27 50h4M48 50h2M5 51h5M11 51h2M23 51h1M26 51h4M46 51h1M6 52h4M11 52h1M24 52h5M39 52h3M6 53h3M10 53h2M23 53h4M37 53h7M46 53h2M7 54h2M10 54h2M36 54h3M43 54h6M7 55h1M9 55h4M29 55h1M37 55h1M40 55h3M45 55h4M56 55h2M6 56h1M9 56h5M29 56h2M34 56h2M38 56h1M41 56h4M46 56h3M50 56h1M55 56h3M6 57h2M9 57h9M29 57h12M43 57h2M46 57h3M50 57h9M5 58h3M9 58h9M30 58h13M44 58h2M49 58h10M5 59h4M10 59h9M32 59h5M38 59h6M45 59h14M5 60h5M11 60h9M23 60h8M34 60h4M40 60h4M45 60h14M5 61h6M13 61h5M21 61h12M38 61h2M42 61h3M46 61h13M4 62h9M19 62h22M42 62h3M46 62h12M4 63h9M15 63h26M42 63h3M46 63h12M4 64h8M16 64h26M45 64h12M3 65h9M17 65h40M3 66h8M19 66h37M3 67h8M21 67h35M4 68h7M23 68h32M59 68h5M4 69h7M25 69h29M57 69h9M4 70h6M27 70h26M56 70h10M5 71h5M29 71h23M55 71h3M64 71h3M5 72h6M31 72h19M55 72h2M66 72h2M7 73h4M31 73h17M54 73h2M67 73h2M10 74h2M32 74h13M54 74h1M68 74h2" />
<path stroke="#292929" d="M35 26h1M36 27h1M36 28h2M37 29h2M38 30h1M2 36h1M2 37h1M2 38h1M2 39h1M2 40h1M2 41h1M2 42h1M2 43h1M2 44h1M14 44h1M43 44h2M2 45h1M14 45h1M45 45h1M2 46h1M14 46h1M48 46h1M69 46h3M72 47h1M3 48h1M28 48h1M43 48h2M57 48h1M73 48h1M3 49h1M25 49h1M27 49h1M42 49h1M45 49h2M50 49h1M73 49h1M24 50h1M26 50h1M43 50h1M47 50h1M50 50h1M73 50h2M4 51h1M24 51h2M30 51h1M45 51h1M48 51h2M66 51h1M68 51h1M71 51h1M75 51h1M4 52h2M10 52h1M23 52h1M29 52h1M47 52h1M52 52h1M66 52h5M75 52h1M5 53h1M22 53h1M48 53h1M52 53h3M66 53h1M75 53h1M5 54h2M9 54h1M39 54h3M49 54h1M57 54h1M75 54h1M5 55h2M8 55h1M28 55h1M38 55h2M43 55h1M49 55h1M58 55h1M63 55h1M66 55h3M74 55h2M5 56h1M7 56h2M28 56h1M39 56h1M45 56h1M49 56h1M63 56h1M70 56h1M74 56h2M4 57h2M8 57h1M18 57h1M21 57h1M25 57h1M28 57h1M41 57h1M49 57h1M59 57h1M63 57h1M71 57h1M74 57h1M4 58h1M8 58h1M22 58h1M26 58h1M29 58h1M43 58h1M46 58h3M59 58h1M62 58h4M72 58h1M74 58h1M4 59h1M9 59h1M19 59h1M23 59h9M44 59h1M59 59h1M62 59h1M72 59h3M4 60h1M10 60h1M21 60h2M31 60h3M38 60h2M59 60h1M61 60h1M73 60h1M3 61h2M11 61h2M18 61h3M33 61h4M40 61h1M45 61h1M59 61h2M70 61h1M73 61h1M3 62h1M13 62h6M41 62h1M45 62h1M58 62h6M71 62h1M73 62h1M3 63h1M13 63h2M45 63h1M58 63h1M71 63h2M3 64h1M12 64h1M15 64h1M42 64h3M57 64h1M67 64h1M71 64h2M2 65h1M16 65h1M57 65h1M68 65h1M70 65h2M2 66h1M17 66h2M56 66h1M69 66h2M2 67h1M19 67h2M56 67h1M60 67h3M69 67h2M21 68h2M55 68h1M57 68h1M65 68h1M69 68h1M3 69h1M23 69h2M54 69h3M66 69h1M69 69h1M3 70h1M24 70h3M53 70h3M67 70h1M26 71h3M52 71h1M54 71h1M67 71h2M4 72h1M28 72h3M50 72h2M53 72h2M68 72h1M5 73h2M30 73h1M48 73h3M53 73h1M69 73h1M7 74h3M31 74h1M45 74h4M53 74h1" />
<path stroke="#6b7b21" d="M64 45h4M60 46h4M68 46h1M58 47h2M64 47h1M69 47h1M65 48h1M69 48h1M56 49h3M65 49h1M69 49h1M54 50h2M59 50h2M66 50h1M68 50h1M72 50h1M53 51h1M61 51h1M70 51h1M62 52h1M55 53h1M62 53h1M67 53h1M71 53h2M56 54h1M63 54h1M66 54h1M73 54h1M21 55h1M65 55h1M73 55h1M21 56h1M58 56h1M64 56h1M69 56h1M66 58h1M67 59h2M69 60h1M64 62h1M59 63h1M65 63h2M68 66h1M68 70h1" />
<path stroke="#e6ff94" d="M64 46h4M60 47h4M65 47h3M70 47h2M58 48h7M66 48h1M71 48h2M59 49h6M56 50h3M62 50h3M54 51h7M64 51h1M57 52h5M59 53h3M20 54h1M60 54h1M19 55h2M22 55h3M19 56h2M22 56h2" />
<path stroke="#bdce73" d="M68 47h1M67 48h2M70 48h1M66 49h3M70 49h3M61 50h1M65 50h1M67 50h1M69 50h3M62 51h2M65 51h1M67 51h1M69 51h1M72 51h3M53 52h4M63 52h3M71 52h4M56 53h3M63 53h3M68 53h3M73 53h2M58 54h2M61 54h2M64 54h2M67 54h6M74 54h1M59 55h4M64 55h1M69 55h4M59 56h4M65 56h4M71 56h3M60 57h3M64 57h7M72 57h2M60 58h2M67 58h5M73 58h1M60 59h2M63 59h4M69 59h3M60 60h1M62 60h7M70 60h3M61 61h9M71 61h2M65 62h6M72 62h1M60 63h5M67 63h4M58 64h9M68 64h3M58 65h10M69 65h1M57 66h11M57 67h2M64 67h5M56 68h1M66 68h3M67 69h2" />
<path stroke="#5a3a29" d="M20 53h2M27 53h1M19 54h1M22 54h5M18 55h1M25 55h1M18 56h1M25 56h1M18 58h1M20 59h1" />
<path stroke="#bda56b" d="M21 54h1M27 54h1M26 55h2M24 56h1M26 56h2M19 57h2M22 57h3M26 57h2M19 58h3M23 58h3M27 58h2M21 59h2" />
</svg>