<svg xmlns="http://www.w3.org/2000/svg" viewBox="0 -0.5 80 80" shape-rendering="crispEdges">
<metadata>Made with Pixels to Svg https://codepen.io/shshaw/pen/XbxvNj</metadata>
<path stroke="#081963" d="M41 7h1M41 8h1M42 9h1M42 10h1M43 11h1M43 12h1M30 13h4M44 13h1M30 14h1M35 14h2M31 15h1M38 15h2M50 15h3M55 15h1M19 16h3M32 16h1M41 16h2M46 16h2M50 16h1M54 16h1M56 16h1M27 17h1M43 17h1M48 17h1M51 17h1M56 17h2M28 18h1M31 18h1M43 18h1M49 18h1M51 18h1M58 18h1M32 19h1M36 19h1M42 19h1M49 19h1M52 19h1M59 19h1M37 20h1M41 20h1M46 20h1M50 20h1M47 21h1M50 21h1M51 22h1M53 22h1M51 23h1M47 24h1M52 24h1M48 25h1M53 25h1M53 26h1M46 27h2M54 28h1M66 28h1M48 29h1M40 30h3M46 30h1M49 30h1M55 30h1M67 30h1M44 31h1M34 32h1M46 32h1M56 32h1M68 32h1M34 33h1M41 33h1M48 33h1M68 33h1M35 34h1M49 34h2M57 34h1M35 35h1M42 35h1M36 36h1M58 36h1M69 36h1M36 37h1M43 37h1M69 37h1M37 38h1M69 38h1M37 39h1M44 39h1M38 40h1M67 40h1M39 41h1M39 42h1M45 42h1M40 43h1M78 43h1M40 44h1M78 44h1M49 46h4M66 46h1M46 47h1M67 47h1M77 47h2M43 48h1M43 49h1M62 49h1M44 50h1M44 51h1M52 51h1M45 52h1M45 53h1M30 54h1M46 54h1M31 55h2M46 55h1M34 56h2M47 56h1M37 57h2M40 58h2M49 62h1M49 63h1M44 68h1M41 69h1M38 70h1M35 71h1M38 71h1M33 72h1M35 72h1" />
<path stroke="#31428c" d="M42 7h3M45 8h2M47 9h2M49 10h2M51 11h1M52 12h1M34 13h1M53 13h1M37 14h1M54 14h1M40 15h1M43 16h1M53 16h1M55 17h1M57 18h1M31 19h1M36 20h1M60 20h1M61 21h1M62 22h1M63 23h1M64 24h1M52 25h1M64 25h1M65 26h1M53 27h1M65 27h1M54 29h1M66 29h1M43 31h1M55 31h1M67 31h1M45 32h1M47 33h1M56 33h1M68 34h1M57 35h1M69 35h1M58 37h1M70 40h1M72 41h5M77 42h1M42 45h1M42 46h1M47 46h2M53 46h1M33 55h1M36 56h1M39 57h1M42 58h1M43 59h2M44 69h4M41 70h2M44 70h4M39 71h5M45 71h2M48 71h1M36 72h9" />
<path stroke="#8ca5ef" d="M42 8h3M44 9h3M46 10h3M47 11h3M48 12h4M49 13h4M50 14h4M53 15h2M51 16h2M53 17h2M54 18h3M56 19h2M57 20h3M58 21h3M59 22h3M60 23h3M51 24h1M61 24h2M51 25h1M62 25h2M52 26h1M63 26h2M52 27h1M64 27h1M53 28h1M64 28h2M53 29h1M65 29h1M54 30h1M65 30h2M65 31h2M63 32h5M63 33h5M64 34h4M65 35h4M67 36h2M68 37h1M69 41h2M69 42h8M70 43h8M72 44h6M75 45h3" />
<path stroke="#5252a5" d="M43 9h1M43 10h2M44 11h3M44 12h4M45 13h4M31 14h1M45 14h5M32 15h3M45 15h5M33 16h4M45 16h1M48 16h2M20 17h2M34 17h5M45 17h1M49 17h2M21 18h1M27 18h1M35 18h6M44 18h2M50 18h1M52 18h2M30 19h1M37 19h5M43 19h3M47 19h1M50 19h2M53 19h3M58 19h1M35 20h1M42 20h4M47 20h1M51 20h1M53 20h4M29 21h1M36 21h11M48 21h1M51 21h1M53 21h5M29 22h3M36 22h11M48 22h1M52 22h1M54 22h5M30 23h17M48 23h2M52 23h1M54 23h6M30 24h17M48 24h2M54 24h7M31 25h17M49 25h2M54 25h8M31 26h17M49 26h2M54 26h9M32 27h13M49 27h3M54 27h9M32 28h13M46 28h2M49 28h3M55 28h9M33 29h12M46 29h2M49 29h4M55 29h9M34 30h6M43 30h3M47 30h2M50 30h3M56 30h9M30 31h2M34 31h6M45 31h1M47 31h2M50 31h4M56 31h9M31 32h2M35 32h5M41 32h2M47 32h2M50 32h4M57 32h5M23 33h1M31 33h3M35 33h6M42 33h3M50 33h5M57 33h6M23 34h1M32 34h3M36 34h5M42 34h5M51 34h4M58 34h6M32 35h3M36 35h6M43 35h5M50 35h6M58 35h7M33 36h3M37 36h5M43 36h13M59 36h7M33 37h3M37 37h6M44 37h14M59 37h8M31 38h2M34 38h3M38 38h5M44 38h25M31 39h6M38 39h6M45 39h23M32 40h6M39 40h5M45 40h22M33 41h6M40 41h5M46 41h23M71 41h1M33 42h6M40 42h4M46 42h23M33 43h7M41 43h2M44 43h26M30 44h10M41 44h1M43 44h28M31 45h10M43 45h31M32 46h9M43 46h4M54 46h12M67 46h10M33 47h9M47 47h18M68 47h9M32 48h11M44 48h20M70 48h7M32 49h11M44 49h18M72 49h4M35 50h9M45 50h14M38 51h6M45 51h7M39 52h1M41 52h4M46 52h7M38 53h1M40 53h1M42 53h3M46 53h9M31 54h2M39 54h1M41 54h5M47 54h7M28 55h3M34 55h3M40 55h1M42 55h4M47 55h7M30 56h4M37 56h3M41 56h6M48 56h5M32 57h5M40 57h12M32 58h8M43 58h8M31 59h12M45 59h6M30 60h21M32 61h21M31 62h18M50 62h4M30 63h19M50 63h4M29 64h19M49 64h3M28 65h20M49 65h3M27 66h22M26 67h3M31 67h20M30 68h14M46 68h5M29 69h12M48 69h2M28 70h10M27 71h8M26 72h7" />
<path stroke="#6b7bd6" d="M45 10h1M50 11h1M32 14h3M35 15h3M37 16h4M55 16h1M39 17h4M47 17h1M52 17h1M41 18h2M47 18h2M28 19h2M48 19h1M28 20h7M48 20h2M30 21h6M49 21h1M32 22h4M49 22h2M50 23h1M50 24h1M63 24h1M51 26h1M63 27h1M52 28h1M64 29h1M30 30h1M53 30h1M41 31h2M54 31h1M43 32h2M54 32h2M62 32h1M45 33h2M55 33h1M47 34h2M55 34h2M48 35h2M56 35h1M56 36h2M66 36h1M67 37h1M32 41h1M71 44h1M74 45h1M77 46h1M31 50h4M30 51h8M28 52h11M40 52h1M27 53h11M39 53h1M41 53h1M33 54h6M40 54h1M37 55h3M41 55h1M40 56h1" />
<path stroke="#d66b63" d="M23 14h2M22 15h1M25 15h1M22 16h1M25 16h1M22 17h1M26 17h1M22 18h1M26 18h1M22 19h1M27 19h1M22 20h1M27 20h1M22 21h1M28 21h1M22 22h1M28 22h1M22 23h1M29 23h1M22 24h1M29 24h1M23 25h1M30 25h1M23 26h1M30 26h1M8 27h2M23 27h1M31 27h1M8 28h1M10 28h1M23 28h1M31 28h1M8 29h1M11 29h1M23 29h1M32 29h1M8 30h1M12 30h1M23 30h1M33 30h1M8 31h1M13 31h1M23 31h1M33 31h1M9 32h1M14 32h1M23 32h1M9 33h1M15 33h1M24 33h1M9 34h1M16 34h1M24 34h1M10 35h1M17 35h1M24 35h1M10 36h1M18 36h1M24 36h1M10 37h1M19 37h1M11 38h1M20 38h1M25 39h1M12 41h1M13 44h1M16 46h1M23 46h2M10 47h1M15 47h2M9 48h2M19 51h1M21 52h2M24 53h3M27 54h3M54 54h2M10 55h1M16 55h1M57 55h1M7 56h1M16 56h1M18 56h1M58 56h1M4 57h1M52 57h1M1 58h1M22 58h1M51 58h1M55 58h1M59 58h1M55 59h1M59 59h1M1 60h1M56 60h1M4 61h1M55 61h1M7 62h1M10 62h1M13 63h1M58 63h1M15 64h1M21 64h1M52 64h1M59 64h1M20 65h1M56 65h1M19 66h1M56 66h1M14 67h1M13 69h1M12 71h1M51 71h1M55 72h1" />
<path stroke="#000000" d="M44 14h1M44 15h1M44 16h1M19 17h1M33 17h1M44 17h1M46 17h1M20 18h1M29 18h2M34 18h1M46 18h1M21 19h1M33 19h3M46 19h1M38 20h3M52 20h1M52 21h1M47 22h1M47 23h1M53 23h1M53 24h1M48 26h1M45 27h1M48 27h1M45 28h1M48 28h1M45 29h1M40 31h1M46 31h1M49 31h1M40 32h1M49 32h1M22 33h1M49 33h1M22 34h1M41 34h1M23 35h1M42 36h1M24 37h1M24 38h1M43 38h1M11 39h1M21 39h1M24 39h1M68 39h1M11 40h1M22 40h1M25 40h1M44 40h1M68 40h2M23 41h1M25 41h1M45 41h1M12 42h1M24 42h2M44 42h1M12 43h1M25 43h1M43 43h1M25 44h1M42 44h1M13 45h1M23 45h3M41 45h1M78 45h1M13 46h1M17 46h6M41 46h1M78 46h1M11 47h4M42 47h4M65 47h2M4 48h5M64 48h1M67 48h3M77 48h1M4 49h1M63 49h1M69 49h3M76 49h1M5 50h2M59 50h4M72 50h4M7 51h2M53 51h7M9 52h2M53 52h3M11 53h2M55 53h1M13 54h2M56 54h1M11 55h2M15 55h1M8 56h2M17 56h1M5 57h2M18 57h3M2 58h2M20 58h2M0 59h1M22 59h2M51 59h1M2 60h2M23 60h2M51 60h2M55 60h1M59 60h1M5 61h2M24 61h1M53 61h2M56 61h4M8 62h2M23 62h2M58 62h1M10 63h3M22 63h2M13 64h2M22 64h1M48 64h1M14 65h2M21 65h1M48 65h1M52 65h1M59 65h1M14 66h1M20 66h1M49 66h3M59 66h1M13 67h1M19 67h1M52 67h4M59 67h1M13 68h1M18 68h1M45 68h1M55 68h4M12 69h1M17 69h1M42 69h2M56 69h1M12 70h1M16 70h1M39 70h2M43 70h1M48 70h1M55 70h1M15 71h1M36 71h2M44 71h1M47 71h1M55 71h1M11 72h1M14 72h1M34 72h1M45 72h7M54 72h1" />
<path stroke="#ffc5c5" d="M23 15h2M23 16h2M23 17h3M23 18h3M23 19h4M23 20h4M23 21h5M23 22h5M23 23h6M23 24h6M24 25h6M24 26h6M24 27h7M9 28h1M24 28h7M9 29h2M24 29h8M9 30h3M24 30h6M9 31h4M24 31h5M10 32h4M24 32h4M11 33h4M25 33h1M11 34h5M11 35h6M12 36h6M12 37h6M13 38h3M21 50h10M23 51h7M25 52h3M54 55h3M53 56h5M53 57h5M52 58h3M56 58h3M52 59h3M56 59h3M53 60h2M57 60h2" />
<path stroke="#ff9494" d="M31 30h2M29 31h1M32 31h1M28 32h3M33 32h1M10 33h1M26 33h5M10 34h1M25 34h7M25 35h7M11 36h1M25 36h8M11 37h1M18 37h1M25 37h8M12 38h1M16 38h4M25 38h6M33 38h1M12 39h9M26 39h5M12 40h10M26 40h6M13 41h10M26 41h6M13 42h11M26 42h7M13 43h12M26 43h7M14 44h11M26 44h4M14 45h9M26 45h5M14 46h2M25 46h7M17 47h16M11 48h21M5 49h27M7 50h14M9 51h10M20 51h3M11 52h10M23 52h2M13 53h11M15 54h12M13 55h2M17 55h11M10 56h6M19 56h11M7 57h11M21 57h11M58 57h1M4 58h16M23 58h9M1 59h21M24 59h7M4 60h19M25 60h5M7 61h17M25 61h7M11 62h12M25 62h6M54 62h4M14 63h8M24 63h6M54 63h4M16 64h5M23 64h6M53 64h6M16 65h4M22 65h6M53 65h3M57 65h2M15 66h4M21 66h6M52 66h4M57 66h2M15 67h4M20 67h6M29 67h2M51 67h1M56 67h3M14 68h4M19 68h11M51 68h4M14 69h3M18 69h11M50 69h6M13 70h3M17 70h11M49 70h6M13 71h2M16 71h11M49 71h2M52 71h3M12 72h2M15 72h11M52 72h2" />
</svg>