<svg xmlns="http://www.w3.org/2000/svg" viewBox="0 -0.5 80 80" shape-rendering="crispEdges">
<metadata>Made with Pixels to Svg https://codepen.io/shshaw/pen/XbxvNj</metadata>
<path stroke="#3a8cbd" d="M29 23h1M27 24h2M33 24h1M27 25h1M34 25h2M40 25h1M46 25h1M34 26h3M45 26h4M34 27h6M44 27h5M33 28h7M43 28h7M21 29h1M31 29h9M43 29h7M26 30h14M42 30h9M17 31h1M23 31h30M21 32h33M57 32h4M16 33h1M20 33h35M56 33h6M20 34h42M19 35h43M19 36h43M17 37h45M18 38h43M18 39h43M18 40h42M18 41h42M17 42h42M17 43h42M16 44h43M16 45h43M15 46h45M14 47h46M16 48h45M13 49h1M16 49h46M15 50h1M17 50h45M16 51h1M18 51h45M15 52h1M17 52h47M16 53h1M18 53h47M11 54h1M17 54h49M67 54h1M11 55h2M16 55h52M11 56h58M11 57h58" />
<path stroke="#295a9c" d="M30 23h4M34 24h2M41 24h6M26 25h1M36 25h1M47 25h2M24 26h2M39 26h1M49 26h1M22 27h3M49 27h1M21 28h2M50 28h1M19 29h2M50 29h1M17 30h2M51 30h2M55 30h4M53 31h1M55 31h1M59 31h2M54 32h1M61 32h1M55 33h1M62 33h1M15 36h2M16 38h2M61 38h1M17 39h1M60 40h1M17 41h1M60 41h1M16 42h1M59 42h1M16 43h1M15 44h1M15 45h1M59 45h1M14 46h1M60 46h1M13 47h1M60 47h1M13 48h1M62 49h1M12 50h1M64 50h1M11 53h1M67 53h1M68 55h1" />
<path stroke="#73ceff" d="M29 24h1M32 24h1M28 25h1M33 25h1M41 25h5M26 26h4M33 26h1M40 26h5M25 27h6M32 27h2M40 27h4M23 28h10M40 28h3M22 29h9M40 29h2M19 30h6M41 30h1M18 31h4M56 31h3M17 32h4M55 32h2M17 33h3M16 34h3M16 35h3M17 36h1M14 48h1M14 49h2M13 50h2M16 50h1M62 50h2M12 51h4M17 51h1M63 51h3M12 52h3M16 52h1M64 52h3M12 53h4M17 53h1M65 53h2M12 54h5M66 54h1M13 55h3" />
<path stroke="#9ce6ff" d="M30 24h2M29 25h4M30 26h3M31 27h1" />
<path stroke="#000000" d="M37 26h2M16 31h1M54 31h1M16 32h1M15 33h1M15 34h1M62 34h1M15 35h1M62 35h1M62 36h1M16 37h1M62 37h1M62 38h1M61 39h1M17 40h1M61 40h1M60 42h1M59 43h1M59 44h1M61 48h1M12 49h1M63 49h1M11 50h1M65 50h1M11 51h1M66 51h1M11 52h1M67 52h1M10 53h1M68 53h1M10 54h1M68 54h1M10 55h1M69 55h1M10 56h1M69 56h1M10 57h1M69 57h1" />
<path stroke="#63a5de" d="M42 29h1M25 30h1M40 30h1M22 31h1M19 34h1M18 36h1M15 48h1" />
</svg>