<svg xmlns="http://www.w3.org/2000/svg" viewBox="0 -0.5 80 80" shape-rendering="crispEdges">
<metadata>Made with Pixels to Svg https://codepen.io/shshaw/pen/XbxvNj</metadata>
<path stroke="#a57300" d="M40 7h3M39 8h1M43 8h1M38 9h1M38 10h1M37 11h1M37 12h1M36 13h1M36 14h1M22 15h2M36 15h1M20 16h2M36 16h1M19 17h1M36 17h1M18 18h1M35 18h1M17 19h1M35 19h1M16 20h1M35 20h1M15 21h1M35 21h1M15 22h1M35 22h1M14 23h1M35 23h1M14 24h1M35 24h1M13 25h1M35 25h1M13 26h1M35 26h1M13 27h1M35 27h1M35 28h1M35 29h1M37 37h1M27 38h2M37 38h1M26 39h1M46 39h1M46 40h1M46 41h1M23 42h1M23 43h1M69 55h4M66 56h3M73 56h2M8 62h5M7 63h1" />
<path stroke="#ffe600" d="M40 8h3M39 9h6M39 10h6M38 11h8M38 12h8M37 13h9M37 14h9M37 15h9M22 16h2M37 16h8M20 17h4M37 17h8M19 18h5M36 18h8M18 19h5M36 19h8M17 20h4M36 20h7M16 21h3M36 21h6M16 22h2M36 22h5M15 23h2M36 23h4M15 24h1M36 24h3M14 25h1M36 25h3M14 26h1M36 26h2M36 27h2M36 28h1M32 37h5M29 38h8M27 39h10M26 40h11M25 41h11M24 42h12M24 43h11M23 44h12M22 45h12M22 46h11M21 47h11M21 48h9M20 49h8M20 50h5M20 51h2M69 56h4M66 57h8M64 58h7M61 59h8M61 60h5M13 63h6M11 64h9M10 65h10M10 66h10M11 67h9M11 68h8M13 69h4" />
<path stroke="#101010" d="M44 8h1M45 9h1M45 10h1M46 11h1M46 12h1M47 13h1M47 14h1M47 15h1M24 16h1M48 16h1M24 17h1M48 17h1M24 18h1M48 18h1M24 19h1M48 19h1M24 20h1M49 20h1M23 21h1M49 21h1M23 22h1M49 22h1M22 23h2M49 23h1M22 24h1M49 24h1M22 25h1M49 25h1M22 26h2M49 26h1M23 27h1M49 27h1M12 28h1M24 28h1M48 28h1M12 29h1M25 29h1M48 29h1M12 30h1M26 30h1M36 30h1M48 30h1M12 31h1M26 31h1M36 31h1M48 31h1M12 32h1M27 32h1M36 32h1M48 32h1M13 33h1M27 33h1M36 33h1M48 33h1M13 34h1M28 34h1M36 34h1M47 34h2M14 35h1M28 35h1M37 35h1M47 35h1M14 36h1M28 36h1M37 36h1M47 36h1M15 37h1M29 37h1M47 37h1M16 38h1M46 38h2M17 39h1M48 39h2M18 40h1M50 40h1M19 41h1M51 41h1M20 42h1M52 42h1M21 43h2M53 43h1M22 44h1M54 44h1M21 45h1M55 45h1M21 46h1M55 46h1M20 47h1M56 47h1M20 48h1M56 48h1M19 49h1M57 49h1M19 50h1M57 50h1M19 51h1M58 51h1M19 52h1M58 52h1M18 53h1M58 53h1M18 54h1M59 54h1M18 55h1M59 55h1M18 56h1M59 56h1M18 57h1M59 57h1M64 57h2M75 57h1M18 58h1M59 58h1M61 58h3M75 58h1M18 59h1M57 59h4M75 59h1M18 60h1M75 60h1M18 61h1M75 61h1M13 62h6M74 62h1M11 63h2M19 63h2M74 63h1M6 64h1M10 64h1M21 64h1M56 64h1M73 64h1M6 65h1M9 65h1M22 65h1M57 65h2M71 65h2M6 66h1M9 66h1M22 66h1M59 66h4M68 66h4M6 67h1M8 67h1M23 67h1M60 67h1M63 67h7M7 68h2M23 68h1M60 68h1M8 69h1M23 69h1M60 69h1M8 70h1M23 70h1M59 70h1M8 71h1M23 71h1M59 71h1M9 72h1M22 72h1M59 72h1M9 73h1M22 73h1M58 73h1M10 74h1M21 74h1M58 74h1M11 75h2M19 75h3M57 75h1M13 76h6M22 76h1M57 76h1M15 77h2M22 77h1M56 77h1M14 78h2M23 78h1M36 78h2M55 78h1M13 79h2M24 79h1M27 79h3M34 79h4M54 79h1" />
<path stroke="#e6ad08" d="M46 13h1M46 14h1M46 15h1M46 16h2M45 17h3M45 18h3M44 19h4M22 20h2M43 20h6M20 21h3M42 21h7M18 22h5M41 22h8M17 23h5M40 23h9M16 24h6M40 24h9M16 25h6M39 25h10M15 26h7M38 26h11M14 27h9M38 27h11M13 28h11M37 28h11M13 29h12M37 29h11M13 30h13M37 30h11M13 31h13M37 31h11M13 32h14M37 32h11M14 33h13M37 33h11M14 34h14M37 34h10M15 35h13M38 35h9M15 36h13M32 36h5M38 36h9M16 37h13M30 37h2M38 37h9M17 38h10M38 38h8M18 39h8M37 39h9M47 39h1M19 40h7M37 40h9M47 40h3M20 41h5M37 41h9M47 41h4M21 42h2M36 42h16M36 43h17M35 44h19M34 45h21M33 46h22M32 47h24M31 48h25M29 49h28M26 50h31M23 51h35M20 52h38M19 53h39M19 54h40M19 55h40M19 56h40M19 57h40M74 57h1M19 58h40M72 58h3M19 59h38M70 59h5M19 60h42M67 60h8M19 61h56M19 62h55M21 63h53M8 64h1M20 64h1M22 64h11M38 64h18M57 64h16M7 65h1M21 65h1M23 65h9M39 65h10M52 65h5M59 65h12M8 66h1M21 66h1M23 66h9M39 66h5M48 66h1M52 66h7M63 66h5M7 67h1M9 67h1M20 67h3M24 67h8M39 67h5M48 67h1M52 67h8M9 68h2M19 68h4M28 68h4M39 68h5M48 68h12M9 69h3M18 69h5M28 69h4M39 69h5M48 69h11M9 70h14M28 70h4M39 70h19M9 71h14M28 71h5M38 71h11M53 71h4M10 72h12M23 72h25M10 73h12M23 73h6M33 73h13M11 74h10M23 74h5M35 74h2M42 74h2M13 75h6M25 75h1" />
<path stroke="#ffce08" d="M45 16h1M44 18h1M23 19h1M21 20h1M19 21h1M39 24h1M15 25h1M36 29h1M36 41h1M35 43h1M30 48h1M28 49h1M25 50h1M22 51h1M71 58h1M69 59h1M66 60h1M8 63h3M7 64h1M9 64h1M33 64h1M37 64h1M8 65h1M20 65h1M32 65h1M38 65h1M49 65h1M51 65h1M7 66h1M20 66h1M44 66h1M47 66h1M10 67h1M49 67h1M51 67h1M24 68h1M27 68h1M12 69h1M17 69h1M44 69h1M47 69h1M59 69h1M32 70h1M38 70h1M58 70h1M24 71h1M27 71h1M33 71h1M37 71h1M49 71h1M52 71h1M57 71h1M48 72h1M54 72h2M29 73h1M32 73h1M46 73h1M34 74h1M37 74h1M41 74h1M44 74h1M24 75h1M26 75h1" />
<path stroke="#d6c5c5" d="M34 64h3M33 65h5M50 65h1M32 66h7M45 66h2M49 66h3M32 67h7M44 67h4M50 67h1M25 68h2M32 68h7M44 68h4M24 69h4M32 69h7M45 69h2M24 70h4M33 70h5M25 71h2M34 71h3M50 71h2M58 71h1M49 72h5M56 72h3M30 73h2M47 73h11M22 74h1M28 74h6M38 74h3M45 74h13M22 75h2M27 75h30M23 76h34M23 77h33M24 78h12M38 78h17M25 79h2M30 79h4M38 79h16" />
</svg>