<svg xmlns="http://www.w3.org/2000/svg" viewBox="0 -0.5 80 80" shape-rendering="crispEdges">
<metadata>Made with Pixels to Svg https://codepen.io/shshaw/pen/XbxvNj</metadata>
<path stroke="#195294" d="M27 18h1M26 19h1M25 20h1M25 21h1M31 21h1M25 22h1M32 22h1M38 22h6M32 23h2M36 23h2M32 24h2M35 24h1M45 24h1M31 25h2M46 25h2M30 26h2M47 26h2M48 27h2M31 28h1M48 28h2M49 29h2M49 30h2M29 31h1M49 31h3M49 32h3M49 33h3M49 34h3M49 35h3M29 36h1M48 36h4M48 37h3M31 38h1M47 38h4M32 39h1M46 39h4M32 40h2M45 40h5M33 41h3M43 41h6M34 42h14M36 43h10M38 44h6M39 45h1M39 46h4M39 47h4M41 48h2M41 49h2M41 50h2M41 51h2M52 51h1M42 52h1M42 53h1M51 53h1M42 54h1M50 54h1M54 55h1M50 56h1M53 56h2M38 57h1M49 57h1M53 57h1M39 58h1M46 58h3M52 58h2M40 59h1M51 59h2M41 60h1M49 60h3M43 61h7" />
<path stroke="#101010" d="M28 18h2M30 19h1M31 20h1M32 21h1M33 22h1M26 23h1M34 23h1M44 23h2M27 24h1M34 24h1M46 24h2M28 25h1M33 25h1M48 25h1M29 26h1M32 26h1M49 26h1M30 27h2M50 27h1M50 28h1M30 29h1M51 29h1M30 30h1M51 30h1M52 31h1M29 32h1M52 32h1M29 33h1M52 33h1M29 34h1M52 34h1M29 35h1M52 35h1M52 36h1M30 37h1M51 37h1M30 38h1M51 38h1M31 39h1M50 39h1M31 40h1M50 40h1M32 41h1M49 41h1M33 42h1M48 42h1M34 43h2M46 43h2M36 44h2M44 44h2M38 45h1M40 45h4M38 46h1M43 46h1M38 47h1M43 47h1M38 48h1M43 48h1M38 49h1M43 49h1M38 50h1M43 50h1M38 51h1M43 51h1M53 51h2M38 52h1M43 52h1M51 52h1M55 52h1M38 53h1M43 53h1M55 53h1M38 54h1M43 54h1M55 54h1M38 55h1M43 55h1M50 55h1M55 55h1M38 56h1M44 56h1M49 56h1M55 56h1M45 57h4M54 57h1M54 58h1M39 59h1M53 59h1M40 60h1M52 60h1M41 61h2M50 61h2M43 62h7" />
<path stroke="#296bbd" d="M27 19h3M28 20h3M29 21h2M29 22h3M28 23h4M38 23h6M28 24h4M36 24h9M29 25h2M34 25h12M33 26h2M38 26h9M32 27h2M39 27h9M32 28h2M39 28h9M31 29h3M39 29h10M31 30h4M38 30h11M30 31h19M30 32h19M30 33h19M30 34h19M30 35h19M30 36h18M31 37h17M32 38h15M33 39h13M34 40h11M36 41h7M40 48h1M40 49h1M41 52h1M54 52h1M41 53h1M54 53h1M41 54h1M53 54h2M41 55h2M52 55h2M40 56h4M52 56h1M40 57h5M51 57h2M40 58h6M50 58h2M41 59h10M42 60h7" />
<path stroke="#63a5e6" d="M26 20h2M28 21h1M28 22h1M27 23h1M35 26h3M34 27h1M38 27h1M34 28h1M38 28h1M34 29h1M38 29h1M35 30h3M39 48h1M39 49h1M40 50h1M40 51h1M40 52h1M40 53h1M53 53h1M40 54h1M51 54h2M39 55h2M51 55h1M39 56h1M51 56h1M39 57h1M50 57h1M49 58h1" />
<path stroke="#dedede" d="M26 21h2M26 22h2M35 27h3M35 28h3M35 29h3M39 50h1M39 51h1M39 52h1M52 52h2M39 53h1M52 53h1M39 54h1" />
</svg>