<svg xmlns="http://www.w3.org/2000/svg" viewBox="0 -0.5 80 80" shape-rendering="crispEdges">
<metadata>Made with Pixels to Svg https://codepen.io/shshaw/pen/XbxvNj</metadata>
<path stroke="#195294" d="M38 12h1M41 12h1M37 13h1M42 13h1M37 21h1M41 21h1M43 21h1M38 22h1M57 25h1M53 27h1M58 27h1M37 28h1M42 28h1M53 28h1M58 28h1M36 29h1M57 29h2M33 30h2M44 30h1M56 30h2M45 31h2M55 31h2M46 32h2M54 32h2M47 33h2M53 33h2M30 34h1M47 34h2M52 34h2M48 35h2M51 35h2M29 36h1M48 36h2M51 36h1M28 37h1M48 37h3M48 38h3M48 39h3M48 40h3M48 41h3M47 42h4M47 43h3M30 44h1M46 44h4M29 45h1M31 45h1M45 45h4M24 46h1M29 46h1M31 46h2M44 46h5M23 47h1M29 47h2M32 47h3M42 47h6M22 48h1M28 48h2M33 48h14M21 49h1M27 49h2M35 49h10M20 50h1M26 50h2M37 50h6M26 51h1M26 52h1M21 53h1M30 55h1M32 56h1M34 57h1M36 58h1M38 58h1M41 58h1M27 59h1M41 59h1M29 60h1M41 60h1M32 61h1M41 61h1M41 62h1M41 63h1M41 64h1M40 65h2M37 66h1M39 66h2M42 66h1M38 67h1M41 67h1" />
<path stroke="#101010" d="M39 12h2M38 13h1M41 13h1M37 14h1M42 14h1M37 15h1M42 15h1M37 16h1M42 16h2M37 17h1M44 17h4M37 18h1M48 18h2M37 19h1M50 19h2M37 20h1M52 20h2M42 21h1M54 21h1M39 22h3M43 22h3M55 22h1M46 23h2M56 23h1M48 24h2M57 24h1M50 25h1M58 25h1M51 26h1M58 26h1M52 27h1M59 27h1M38 28h4M52 28h1M59 28h1M35 29h1M43 29h2M51 29h1M59 29h1M45 30h2M50 30h1M58 30h1M32 31h1M47 31h1M49 31h1M57 31h1M31 32h1M48 32h1M56 32h1M30 33h1M49 33h1M55 33h1M49 34h1M54 34h1M29 35h1M50 35h1M53 35h1M50 36h1M52 36h1M51 37h1M28 38h1M51 38h1M28 39h1M51 39h1M28 40h1M51 40h1M28 41h1M51 41h1M28 42h1M51 42h1M27 43h1M29 43h1M50 43h1M26 44h1M29 44h1M50 44h1M25 45h1M30 45h1M49 45h1M30 46h1M49 46h1M31 47h1M48 47h1M30 48h1M32 48h1M47 48h1M29 49h1M33 49h2M45 49h2M28 50h1M35 50h2M43 50h2M20 51h1M27 51h1M37 51h6M20 52h1M27 52h1M28 53h1M21 54h1M29 54h1M22 55h1M31 55h1M23 56h1M33 56h1M24 57h1M35 57h2M38 57h4M25 58h1M37 58h1M42 58h1M26 59h1M42 59h1M28 60h1M42 60h1M30 61h2M42 61h1M32 62h4M42 62h1M36 63h2M42 63h1M37 64h1M42 64h1M37 65h1M42 65h1M38 66h1M41 66h1M39 67h2" />
<path stroke="#63a5e6" d="M39 13h2M40 14h1M40 15h1M38 16h3M38 17h2M38 18h1M44 18h3M38 19h1M46 19h3M48 20h2M50 21h2M51 22h2M34 32h3M33 33h1M37 33h1M33 34h1M37 34h1M33 35h1M37 35h1M34 36h3M26 46h2M25 47h2M24 48h2M23 49h2M23 50h1M23 51h1M21 52h1M23 52h1M22 53h2M23 54h2M24 55h2M25 56h2M26 57h2M27 58h2M38 61h2M37 62h1M39 62h1M38 65h2" />
<path stroke="#dedede" d="M38 14h2M38 15h2M34 33h3M34 34h3M34 35h3M21 50h2M21 51h2M22 52h1M38 62h1M38 63h2M38 64h2" />
<path stroke="#296bbd" d="M41 14h1M41 15h1M41 16h1M40 17h4M39 18h5M47 18h1M39 19h7M49 19h1M38 20h10M50 20h2M38 21h3M44 21h6M52 21h2M46 22h5M53 22h2M48 23h8M50 24h7M51 25h6M52 26h6M54 27h4M54 28h4M37 29h6M52 29h5M35 30h9M51 30h5M33 31h12M50 31h5M32 32h2M37 32h9M49 32h5M31 33h2M38 33h9M50 33h3M31 34h2M38 34h9M50 34h2M30 35h3M38 35h10M30 36h4M37 36h11M29 37h19M29 38h19M29 39h19M29 40h19M29 41h19M29 42h18M28 43h1M30 43h17M27 44h2M31 44h15M26 45h3M32 45h13M25 46h1M28 46h1M33 46h11M24 47h1M27 47h2M35 47h7M23 48h1M26 48h2M22 49h1M25 49h2M24 50h2M24 51h2M24 52h2M24 53h4M22 54h1M25 54h4M23 55h1M26 55h4M24 56h1M27 56h5M25 57h1M28 57h6M26 58h1M29 58h7M39 58h2M28 59h13M30 60h11M33 61h5M40 61h1M36 62h1M40 62h1M40 63h1M40 64h1" />
</svg>