<svg xmlns="http://www.w3.org/2000/svg" viewBox="0 -0.5 80 80" shape-rendering="crispEdges">
<metadata>Made with Pixels to Svg https://codepen.io/shshaw/pen/XbxvNj</metadata>
<path stroke="#195294" d="M38 21h1M41 22h1M38 23h4M36 24h1M34 25h1M44 25h1M45 26h2M46 27h2M47 28h2M30 29h1M47 29h2M17 30h1M20 30h1M48 30h2M59 30h1M62 30h1M16 31h1M21 31h1M29 31h1M48 31h2M58 31h1M63 31h1M28 32h1M48 32h3M48 33h3M48 34h3M48 35h3M48 36h3M28 37h1M47 37h4M47 38h3M30 39h1M46 39h4M31 40h1M45 40h4M31 41h2M44 41h5M50 41h1M32 42h3M42 42h6M49 42h3M31 43h1M33 43h14M48 43h2M51 43h2M30 44h2M35 44h10M48 44h1M52 44h2M25 45h1M29 45h2M37 45h6M53 45h2M26 46h1M28 46h2M53 46h1M27 47h2M38 47h4M52 47h1M40 48h2M40 49h2M40 50h2M40 51h2M40 52h2M37 53h6" />
<path stroke="#101010" d="M39 21h3M37 22h1M42 22h1M37 23h1M42 23h1M35 24h1M43 24h2M33 25h1M45 25h2M32 26h1M47 26h1M31 27h1M48 27h1M30 28h1M49 28h1M49 29h1M18 30h2M29 30h1M50 30h1M60 30h2M17 31h1M20 31h1M50 31h1M59 31h1M62 31h1M16 32h1M21 32h1M51 32h1M58 32h1M63 32h1M16 33h1M21 33h1M28 33h1M51 33h1M58 33h1M63 33h1M16 34h1M21 34h1M28 34h1M51 34h1M58 34h1M63 34h1M16 35h1M21 35h1M28 35h1M51 35h1M58 35h1M63 35h1M16 36h1M21 36h1M28 36h1M51 36h1M58 36h1M63 36h1M16 37h1M22 37h1M51 37h1M57 37h1M63 37h1M16 38h1M22 38h1M29 38h1M50 38h1M57 38h1M63 38h1M17 39h1M22 39h1M29 39h1M50 39h1M57 39h1M62 39h1M17 40h1M22 40h1M29 40h2M49 40h2M57 40h1M62 40h1M17 41h1M23 41h1M28 41h1M30 41h1M49 41h1M51 41h1M56 41h1M62 41h1M17 42h1M23 42h1M27 42h1M31 42h1M48 42h1M52 42h1M56 42h1M62 42h1M18 43h1M24 43h1M26 43h1M32 43h1M47 43h1M53 43h1M55 43h1M61 43h1M18 44h1M24 44h2M32 44h3M45 44h3M54 44h2M61 44h1M19 45h1M31 45h1M35 45h2M43 45h2M48 45h1M60 45h1M19 46h1M30 46h1M37 46h6M49 46h1M60 46h1M20 47h1M29 47h1M37 47h1M42 47h1M50 47h1M59 47h1M20 48h1M28 48h1M37 48h1M42 48h1M51 48h1M59 48h1M21 49h1M29 49h1M37 49h1M42 49h1M50 49h1M58 49h1M22 50h1M30 50h2M37 50h1M42 50h1M48 50h2M57 50h1M23 51h1M32 51h2M37 51h1M42 51h1M46 51h2M56 51h1M24 52h1M34 52h4M42 52h4M55 52h1M25 53h1M54 53h1M26 54h2M52 54h2M28 55h2M50 55h2M30 56h2M48 56h2M32 57h4M44 57h4M36 58h8" />
<path stroke="#dedede" d="M38 22h1M34 28h3M34 29h3M34 30h3M17 32h2M59 32h2M17 33h2M59 33h2M17 34h1M59 34h1M28 42h1M27 43h1" />
<path stroke="#63a5e6" d="M39 22h1M34 27h3M33 28h1M37 28h1M33 29h1M37 29h1M33 30h1M37 30h1M18 31h2M34 31h3M60 31h2M19 32h1M61 32h1M19 33h1M61 33h1M18 34h2M60 34h2M17 35h3M59 35h3M17 36h2M59 36h2M17 37h2M59 37h2M18 38h1M59 38h1M18 39h1M58 39h2M18 40h2M58 40h1M18 41h2M29 41h1M58 41h1M18 42h2M29 42h1M57 42h2M19 43h1M28 43h1M57 43h1M19 44h1M26 44h2M49 44h1M50 45h1M51 46h1M55 46h2M54 47h2M38 48h1M53 48h2M38 49h1M52 49h2M38 50h1M51 50h2M38 51h1M49 51h3M48 52h3M46 53h3M43 54h4" />
<path stroke="#296bbd" d="M40 22h1M37 24h6M35 25h9M33 26h12M32 27h2M37 27h9M31 28h2M38 28h9M31 29h2M38 29h9M30 30h3M38 30h10M30 31h4M37 31h11M20 32h1M29 32h19M62 32h1M20 33h1M29 33h19M62 33h1M20 34h1M29 34h19M62 34h1M20 35h1M29 35h19M62 35h1M19 36h2M29 36h19M61 36h2M19 37h3M29 37h18M58 37h1M61 37h2M17 38h1M19 38h3M30 38h17M58 38h1M60 38h3M19 39h3M31 39h15M60 39h2M20 40h2M32 40h13M59 40h3M20 41h3M33 41h11M57 41h1M59 41h3M20 42h3M30 42h1M35 42h7M59 42h3M20 43h4M29 43h2M50 43h1M56 43h1M58 43h3M20 44h4M28 44h2M50 44h2M56 44h5M20 45h5M26 45h3M49 45h1M51 45h2M55 45h5M20 46h6M27 46h1M50 46h1M52 46h1M54 46h1M57 46h3M21 47h6M51 47h1M53 47h1M56 47h3M21 48h7M39 48h1M52 48h1M55 48h4M22 49h7M39 49h1M51 49h1M54 49h4M23 50h7M39 50h1M50 50h1M53 50h4M24 51h8M39 51h1M48 51h1M52 51h4M25 52h9M38 52h2M46 52h2M51 52h4M26 53h11M43 53h3M49 53h5M28 54h15M47 54h5M30 55h20M32 56h16M36 57h8" />
</svg>