<svg xmlns="http://www.w3.org/2000/svg" viewBox="0 -0.5 80 80" shape-rendering="crispEdges">
<metadata>Made with Pixels to Svg https://codepen.io/shshaw/pen/XbxvNj</metadata>
<path stroke="#195294" d="M49 19h3M48 20h1M52 20h1M47 21h1M46 22h1M52 22h1M35 23h1M40 23h1M51 23h2M34 24h1M50 24h2M32 25h1M42 25h1M48 25h3M43 26h2M46 26h4M44 27h2M47 27h2M45 28h2M28 29h1M45 29h2M46 30h2M46 31h2M26 32h1M46 32h3M46 33h3M46 34h3M46 35h3M46 36h3M26 37h1M45 37h4M45 38h3M28 39h1M44 39h4M29 40h1M43 40h4M48 40h1M29 41h2M42 41h5M48 41h1M30 42h3M40 42h6M47 42h2M31 43h18M33 44h10M45 44h4M35 45h6M48 45h1M48 46h1M44 47h1M48 47h1M44 48h1M48 48h1M44 49h1M48 49h1M44 50h1M48 50h1M44 51h1M48 51h1M44 52h1M48 52h1M44 53h1M48 53h1M44 54h1M48 54h1M44 55h1M48 55h1M48 56h1M47 57h2M45 58h4M45 59h4M44 60h1M46 60h2M49 60h1M45 61h1M48 61h1" />
<path stroke="#dedede" d="M49 20h2M49 21h2M32 28h3M32 29h3M32 30h3M45 47h1M45 48h1M45 49h1M45 50h1M45 51h1M45 52h1M45 53h1" />
<path stroke="#63a5e6" d="M51 20h1M48 21h1M51 21h1M47 22h4M46 23h2M32 27h3M31 28h1M35 28h1M31 29h1M35 29h1M31 30h1M35 30h1M32 31h3M45 45h1M45 46h2M46 47h1M46 48h1M46 49h1M46 50h1M46 51h1M46 52h1M46 53h1M45 54h2M45 55h1" />
<path stroke="#296bbd" d="M52 21h1M51 22h1M48 23h3M35 24h6M45 24h5M33 25h9M45 25h3M31 26h12M30 27h2M35 27h9M29 28h2M36 28h9M29 29h2M36 29h9M28 30h3M36 30h10M28 31h4M35 31h11M27 32h19M27 33h19M27 34h19M27 35h19M27 36h19M27 37h18M28 38h17M29 39h15M30 40h13M31 41h11M33 42h7M46 45h2M47 46h1M47 47h1M47 48h1M47 49h1M47 50h1M47 51h1M47 52h1M47 53h1M47 54h1M46 55h2M45 56h3M45 57h2" />
<path stroke="#101010" d="M53 21h1M53 22h1M36 23h4M45 23h1M53 23h1M33 24h1M41 24h2M44 24h1M52 24h1M31 25h1M43 25h2M51 25h1M30 26h1M45 26h1M50 26h1M29 27h1M46 27h1M49 27h1M28 28h1M47 28h2M47 29h1M27 30h1M48 30h1M27 31h1M48 31h1M49 32h1M26 33h1M49 33h1M26 34h1M49 34h1M26 35h1M49 35h1M26 36h1M49 36h1M49 37h1M27 38h1M48 38h2M27 39h1M48 39h2M28 40h1M47 40h1M49 40h1M28 41h1M47 41h1M49 41h1M29 42h1M46 42h1M49 42h1M30 43h1M49 43h1M31 44h2M43 44h2M49 44h1M33 45h2M41 45h2M44 45h1M49 45h1M35 46h6M44 46h1M49 46h1M49 47h1M49 48h1M49 49h1M49 50h1M49 51h1M49 52h1M49 53h1M49 54h1M49 55h1M44 56h1M49 56h1M44 57h1M49 57h1M44 58h1M49 58h1M44 59h1M49 59h1M45 60h1M48 60h1M46 61h2" />
</svg>