<svg xmlns="http://www.w3.org/2000/svg" viewBox="0 -0.5 80 80" shape-rendering="crispEdges">
<metadata>Made with Pixels to Svg https://codepen.io/shshaw/pen/XbxvNj</metadata>
<path stroke="#735210" d="M36 15h5M42 16h2M45 17h1M28 20h1M44 20h1M27 21h1M27 22h1M26 23h1M26 24h1M26 25h1M25 26h1M44 26h3M43 27h1M45 29h1M43 30h1M42 31h1M25 33h2M40 33h1M39 35h1M26 36h2M28 38h1M29 40h1M39 40h1M30 42h1M40 43h1M57 43h3M31 44h1M56 44h1M60 44h1M56 45h1M61 45h1M56 46h1M62 46h1M56 47h1M62 47h1M57 48h1M57 49h1M63 49h1M58 50h1M58 51h1M59 52h1M64 52h1M59 53h1M60 58h1M64 60h1M58 61h1M63 63h1" />
<path stroke="#bd8c29" d="M33 16h3M41 16h1M31 17h2M44 17h1M30 18h1M29 19h1M44 21h1" />
<path stroke="#ffff5a" d="M36 16h5M33 17h9M35 18h5M30 19h2M34 19h2M29 20h4M28 21h3M28 22h2M27 23h2M27 24h1M27 25h1M57 44h3M57 45h4M57 46h5M57 47h5M58 48h5M58 49h3M59 50h1M59 51h1" />
<path stroke="#efc54a" d="M42 17h2M40 18h6M36 19h8M45 19h2M33 20h11M45 20h2M31 21h13M46 21h2M30 22h15M46 22h2M29 23h20M28 24h21M28 25h21M26 26h18M47 26h2M26 27h17M44 27h3M26 28h22M26 29h19M26 30h17M26 31h16M26 32h15M27 33h13M27 34h13M27 35h12M28 36h11M28 37h11M29 38h10M29 39h10M30 40h9M30 41h10M31 42h9M31 43h9M32 44h9M32 45h9M32 46h9M33 47h8M33 48h9M33 49h9M61 49h2M33 50h9M60 50h4M34 51h8M60 51h4M34 52h8M60 52h4M35 53h6M60 53h5M61 54h4M61 55h4M61 56h4M61 57h4M61 58h4M60 59h5M60 60h4M59 61h5M59 62h5M59 63h4M59 64h4" />
<path stroke="#ffffff" d="M31 18h4M32 19h2M31 50h1M30 51h2M30 52h1M29 53h2M29 54h1M29 55h1M20 60h3M18 61h5" />
<path stroke="#101010" d="M46 18h1M44 19h1M47 19h1M47 20h1M45 21h1M48 21h1M45 22h1M48 22h1M49 23h1M49 24h1M49 25h1M49 26h1M25 27h1M47 27h3M25 28h1M48 28h1M25 29h1M46 29h2M25 30h1M44 30h2M25 31h1M25 32h1M41 32h1M41 33h1M26 34h1M40 34h1M26 35h1M40 35h1M39 36h1M27 37h1M39 37h1M27 38h1M39 38h1M28 39h1M39 39h1M28 40h1M40 40h1M29 41h1M40 41h1M29 42h1M40 42h1M30 43h1M41 43h1M41 44h1M31 45h1M41 45h1M31 46h1M41 46h1M32 47h1M41 47h1M32 48h1M42 48h1M63 48h1M32 49h1M42 49h1M44 49h1M32 50h1M42 50h1M45 50h1M64 50h1M32 51h2M42 51h1M46 51h1M64 51h1M32 52h2M42 52h1M46 52h1M33 53h2M41 53h2M47 53h1M65 53h1M35 54h6M47 54h3M60 54h1M65 54h1M28 55h1M47 55h1M50 55h2M60 55h1M65 55h1M29 56h1M47 56h1M52 56h2M60 56h1M65 56h1M30 57h1M46 57h1M54 57h1M60 57h1M65 57h1M31 58h1M45 58h1M55 58h1M65 58h1M20 59h3M32 59h2M42 59h3M56 59h1M59 59h1M65 59h1M23 60h2M34 60h8M57 60h1M59 60h1M65 60h1M25 61h1M49 61h5M57 61h1M64 61h1M26 62h1M46 62h3M54 62h2M58 62h1M64 62h1M16 63h3M26 63h1M44 63h2M56 63h1M58 63h1M64 63h1M13 64h1M15 64h5M27 64h1M43 64h1M57 64h2M63 64h1M13 65h1M15 65h5M27 65h1M42 65h1" />
<path stroke="#0029ad" d="M31 49h1M43 49h1M30 50h1M29 51h1M29 52h1M28 53h1M27 54h2M41 54h1M25 55h2M23 56h2M22 57h1M53 57h1M21 58h1M54 58h1M18 60h2M16 61h2M15 62h1M14 63h1" />
<path stroke="#849ce6" d="M43 50h2M43 51h3M31 52h1M43 52h3M31 53h2M43 53h4M30 54h5M42 54h5M30 55h17M30 56h17M31 57h15M32 58h13M49 58h2M34 59h8M48 59h5M48 60h6M23 61h2M16 62h10M49 62h5M15 63h1M19 63h7M37 63h3M46 63h10M14 64h1M20 64h7M36 64h5M44 64h13M14 65h1M20 65h7M36 65h5M43 65h1" />
<path stroke="#318cff" d="M27 55h1M25 56h2M23 57h2M22 58h2M23 59h1" />
<path stroke="#0852d6" d="M48 55h2M48 56h4M47 57h6M30 58h1M46 58h3M51 58h3M29 59h3M45 59h3M53 59h3M27 60h7M42 60h6M54 60h3M26 61h23M54 61h3M27 62h19M56 62h2M27 63h10M40 63h4M57 63h1M28 64h8M41 64h2M28 65h8M41 65h1" />
<path stroke="#b5cef7" d="M27 56h2M25 57h5M24 58h6M24 59h5M25 60h2" />
</svg>