<svg xmlns="http://www.w3.org/2000/svg" viewBox="0 -0.5 80 80" shape-rendering="crispEdges">
<metadata>Made with Pixels to Svg https://codepen.io/shshaw/pen/XbxvNj</metadata>
<path stroke="#a57b21" d="M43 4h1M52 4h1M39 5h1M43 5h2M53 5h1M57 5h1M37 6h1M39 6h1M58 6h1M35 7h1M38 7h1M63 7h1M52 8h5M65 8h1M34 9h1M51 9h6M62 9h1M50 10h8M63 10h1M66 10h1M68 10h1M30 11h1M50 11h8M65 11h1M26 12h1M28 12h1M50 12h10M64 12h4M23 13h3M51 13h17M21 14h2M51 14h18M19 15h2M52 15h4M57 15h6M17 16h2M53 16h4M58 16h2M15 17h2M54 17h4M13 18h1M55 18h4M13 19h1M57 19h2M58 20h2M59 21h1M8 23h2M8 25h1M64 26h1M64 27h1M7 28h1M7 29h1M7 30h1M67 30h1M6 31h3M69 31h1M6 32h4M49 32h8M70 32h1M5 33h7M45 33h16M69 33h1M5 34h9M41 34h23M5 35h12M36 35h30M5 36h16M29 36h38M5 37h63M71 37h1M5 38h64M5 39h64M72 39h1M5 40h65M5 41h65M73 41h1M5 42h66M73 42h1M5 43h66M6 44h65M6 45h66M6 46h66M7 47h65M7 48h65M7 49h66M8 50h66M8 51h66M9 52h65M9 53h64M10 54h63M9 55h1M11 55h62M12 56h61M13 57h59M14 58h58M15 59h57M16 60h55M18 61h53M20 62h50M21 63h48M23 64h45M25 65h42M26 66h39M27 67h36M28 68h34M29 69h31M30 70h28M30 71h26M31 72h23M31 73h21M31 74h20M32 75h19M32 76h19M32 77h19M33 78h19M33 79h19" />
<path stroke="#845a00" d="M44 4h8M40 5h3M54 5h3M38 6h1M59 6h2M36 7h2M61 7h2M34 8h2M63 8h2M33 9h1M57 9h1M65 9h2M31 10h2M58 10h1M67 10h1M29 11h1M58 11h1M64 11h1M68 11h2M27 12h1M60 12h4M69 12h2M56 15h1M63 15h1M68 15h2M57 16h1M60 16h1M63 16h1M60 17h1M14 18h1M12 19h1M56 19h1M11 20h1M57 20h1M60 20h1M10 21h1M58 21h1M9 22h1M60 22h2M8 24h1M7 25h1M62 25h1M7 26h1M63 26h1M6 27h2M65 27h1M6 28h1M66 28h1M6 29h1M67 29h1M5 30h2M68 30h1M5 31h1M68 31h1M5 32h1M69 32h1M4 33h1M70 33h1M4 34h1M70 34h2M71 36h2M72 38h2M73 39h1M73 40h1M74 41h1M74 42h1M4 43h1M4 44h2M5 47h2M6 49h1M7 50h1M7 51h1M8 52h1M8 53h1M73 53h2M9 54h1M10 55h1M11 56h1M12 57h1M72 57h1M13 58h1M14 59h1M15 60h1M72 60h1M17 61h1M19 62h1M71 62h1M18 63h1M20 63h1M20 64h1M22 64h1M68 64h1M22 65h1M24 65h1M67 65h1M25 66h1M65 66h1M63 67h1M62 68h1M60 69h1M28 70h1M58 70h1M56 71h1M54 72h1M52 73h1" />
<path stroke="#d6b521" d="M45 5h8M40 6h18M39 7h22M36 8h16M60 8h3M35 9h16M63 9h2M33 10h17M64 10h2M31 11h19M66 11h2M29 12h21M68 12h1M26 13h25M68 13h2M23 14h28M69 14h1M21 15h31M19 16h34M17 17h37M15 18h40M14 19h42M12 20h45M11 21h47M10 22h49M10 23h50M9 24h52M9 25h53M8 26h55M8 27h56M8 28h58M8 29h59M8 30h59M9 31h59M10 32h39M57 32h12M12 33h33M61 33h8M14 34h27M64 34h6M17 35h19M66 35h5M21 36h8M67 36h4M68 37h3M69 38h3M69 39h3M70 40h3M70 41h3M71 42h2M71 43h3M71 44h3M72 45h2M72 46h2M72 47h2M72 48h2M73 49h1M51 74h2M51 75h2M51 76h2M51 77h3M52 78h2M52 79h2" />
<path stroke="#101010" d="M57 8h1M61 9h1M61 10h2M62 11h1M70 13h1M70 14h1M64 15h4M61 16h2M66 16h1M69 16h1M58 17h2M67 17h1M69 17h1M59 18h1M67 18h1M69 18h1M59 19h1M68 19h1M60 21h1M59 22h1M60 23h2M61 24h2M4 35h1M71 35h1M4 36h1M4 37h1M72 37h1M4 38h1M4 39h1M4 40h1M4 41h1M4 42h1M74 43h1M74 44h1M5 45h1M74 45h1M5 46h1M74 46h1M74 47h1M6 48h1M74 48h1M74 49h1M74 50h1M74 51h1M74 52h1M73 54h1M73 55h1M10 56h1M73 56h1M11 57h1M73 57h1M12 58h1M72 58h1M13 59h1M72 59h1M14 60h1M71 60h1M15 61h2M71 61h1M17 62h2M70 62h1M19 63h1M69 63h2M21 64h1M69 64h1M23 65h1M68 65h1M24 66h1M66 66h2M25 67h2M64 67h2M26 68h2M63 68h1M27 69h2M61 69h2M29 70h1M59 70h2M29 71h1M57 71h2M29 72h2M55 72h2M30 73h1M53 73h2M30 74h1M53 74h1M31 75h1M53 75h1M31 76h1M53 76h1M31 77h1M54 77h1M32 78h1M54 78h1M32 79h1M54 79h1" />
<path stroke="#ffffff" d="M58 8h2M58 9h2M59 10h2M60 11h1M63 11h1M68 17h1M68 18h1" />
<path stroke="#c5c5c5" d="M60 9h1M59 11h1M61 11h1M67 16h2" />
</svg>