<svg xmlns="http://www.w3.org/2000/svg" viewBox="0 -0.5 80 80" shape-rendering="crispEdges">
<metadata>Made with Pixels to Svg https://codepen.io/shshaw/pen/XbxvNj</metadata>
<path stroke="#a552c5" d="M42 13h1M40 14h1M47 14h1M39 15h1M48 15h1M39 16h1M44 16h1M48 16h1M44 17h1M48 17h1M38 18h1M44 18h1M48 18h1M38 19h1M44 19h1M48 19h1M38 20h1M44 20h1M48 20h1M38 21h1M44 21h1M48 21h1M38 22h1M44 22h1M48 22h1M38 23h1M44 23h1M48 23h1M44 24h1M48 24h1M39 25h1M44 25h1M48 25h1M39 26h1M44 26h1M47 26h1M39 27h1M44 27h1M47 27h1M39 28h1M44 28h1M47 28h1M39 29h1M44 29h1M47 29h1M40 30h1M44 30h1M47 30h1M40 31h1M44 31h1M40 32h1M44 32h1M40 33h1M44 33h1M40 34h1M44 34h1M47 34h2M44 35h1M36 37h1M35 38h1M40 38h1M34 39h1M33 40h1M32 41h1M57 41h1M55 51h1M54 52h1M40 53h1M51 53h4M35 54h1M47 54h7M49 55h5M50 56h3M50 57h2M49 58h1M51 58h1M46 60h1M45 61h1M43 62h3M40 63h5M46 63h1M37 64h6M45 64h3M37 65h5M44 65h5M36 66h5M44 66h4" />
<path stroke="#7b31a5" d="M43 13h4M48 14h1M49 15h1M50 16h1M50 17h1M51 18h1M51 21h1M52 22h1M52 27h1M52 28h1M51 33h1M40 35h1M49 35h3M38 36h3M51 36h2M37 37h1M40 37h1M53 37h2M55 38h1M56 39h1M58 41h1M32 42h1M38 53h2M36 54h2M35 55h1M48 55h1M34 56h1M33 57h2M49 57h1M50 60h2M46 61h1M46 62h1M45 63h1M49 63h2M43 64h1M41 66h1M49 66h1" />
<path stroke="#ce84f7" d="M41 14h1M43 14h1M46 14h1M40 15h1M42 15h6M41 16h3M45 16h3M49 16h1M39 17h1M41 17h3M45 17h3M49 17h1M41 18h3M45 18h3M49 18h2M40 19h4M45 19h3M49 19h2M40 20h4M45 20h3M49 20h2M40 21h4M45 21h3M49 21h2M40 22h4M45 22h3M49 22h3M40 23h4M45 23h3M49 23h3M39 24h1M41 24h3M45 24h3M49 24h3M41 25h3M45 25h3M49 25h3M41 26h3M45 26h2M48 26h4M41 27h3M45 27h2M48 27h3M41 28h3M45 28h2M48 28h3M41 29h3M45 29h2M48 29h3M41 30h3M45 30h2M48 30h3M41 31h3M45 31h6M41 32h3M45 32h5M41 33h3M45 33h5M41 34h3M45 34h2M49 34h1M41 35h3M45 35h4M41 36h10M38 37h2M41 37h12M36 38h1M41 38h13M41 39h12M54 39h2M42 40h10M53 40h1M55 40h1M42 41h11M54 41h1M56 41h1M43 42h11M55 42h1M57 42h1M43 43h15M43 44h15M42 45h16M32 46h1M42 46h15M32 47h1M41 47h16M33 48h2M39 48h18M33 49h23M33 50h23M34 51h21M34 52h20M35 53h3M41 53h10M38 54h9M36 55h12M35 56h14M35 57h14M34 58h15M34 59h16M34 60h12M47 60h3M35 61h10M47 61h3M36 62h7M47 62h3M37 63h3M47 63h2M48 64h1" />
<path stroke="#f7adff" d="M42 14h1M44 14h2M41 15h1M40 16h1M40 17h1M39 18h2M39 19h1M39 20h1M39 21h1M39 22h1M39 23h1M40 24h1M40 25h1M40 26h1M40 27h1M40 28h1M40 29h1M37 38h3M54 38h1M35 39h6M53 39h1M34 40h8M52 40h1M54 40h1M56 40h1M33 41h9M53 41h1M55 41h1M33 42h10M54 42h1M56 42h1M32 43h11M32 44h11M32 45h10M33 46h9M33 47h8M35 48h4" />
<path stroke="#101010" d="M51 19h1M51 20h1M52 23h1M52 24h1M52 25h1M52 26h1M51 27h1M51 28h1M51 29h1M51 30h1M51 31h1M50 32h2M50 33h1M50 34h1M57 40h1M58 42h1M59 43h1M59 44h1M60 46h1M63 51h1M61 52h1M32 54h1M62 54h1M33 55h1M33 56h1M49 56h1M59 57h4M50 58h1M52 58h2M55 58h1M58 58h1M50 59h2M56 59h1M58 59h1M50 61h1M50 62h1M44 64h1M49 64h1M42 65h2M49 65h1M43 66h1M48 66h1" />
<path stroke="#ffde73" d="M16 39h3M15 40h1M19 40h2M14 41h1M21 41h2M14 42h1M23 42h1M24 44h1M24 45h2M24 46h3M24 47h3M24 48h4M23 49h6M23 50h6M24 51h6M22 52h1M25 52h5M21 53h1M23 53h2M26 53h5M20 54h1M22 54h4M27 54h4M17 55h1M19 55h1M21 55h1M23 55h4M28 55h4M16 56h1M18 56h1M20 56h7M28 56h4M17 57h11M29 57h3M17 58h12M30 58h3M17 59h12M31 59h2M18 60h12M31 60h2M18 61h13M32 61h2M19 62h12M32 62h2M19 63h13M33 63h1M35 63h1M20 64h12M33 64h3M21 65h7M31 65h5M28 66h3M32 66h2" />
<path stroke="#fff7ce" d="M16 40h3M15 41h6M15 42h8M14 43h10M15 44h9M14 45h2M17 45h7M14 46h4M19 46h5M14 47h5M20 47h4M14 48h6M21 48h3M14 49h7M22 49h1M14 50h8M15 51h8M15 52h7M23 52h1M15 53h6M22 53h1M16 54h4M21 54h1M16 55h1M18 55h1M20 55h1M22 55h1M17 56h1M19 56h1" />
<path stroke="#de9429" d="M13 43h1M13 44h1M13 45h1M13 46h1M27 46h1M13 47h1M13 48h1M28 48h1M13 49h1M29 49h1M13 50h1M29 50h1M30 51h1M14 52h1M30 52h1M14 53h1M31 53h1M31 54h1M15 55h1M32 55h1M15 56h1M32 56h1M16 58h1M33 58h1M16 59h1M30 59h1M33 59h1M30 60h1M17 61h1M31 61h1M34 61h1M31 62h1M34 62h1M18 63h1M32 63h1M34 63h1M19 64h1M32 64h1M20 65h1M28 65h3M21 66h1M24 66h4" />
<path stroke="#ffbd4a" d="M24 43h1M14 44h1M25 44h1M16 45h1M26 45h1M18 46h1M19 47h1M27 47h1M20 48h1M21 49h1M22 50h1M14 51h1M23 51h1M24 52h1M25 53h1M15 54h1M26 54h1M27 55h1M27 56h1M16 57h1M28 57h1M32 57h1M29 58h1M29 59h1M17 60h1M33 60h1M18 62h1M35 62h1M36 63h1M36 64h1M36 65h1M22 66h2M31 66h1M34 66h2" />
<path stroke="#8c735a" d="M31 43h1M31 44h1M29 45h2M60 45h1M28 46h1M62 47h1M64 48h1M30 49h1M65 49h1M30 50h1M63 50h2M62 51h1M31 52h1M61 53h1M62 55h1M53 57h2M63 57h1M59 58h1M57 60h1" />
<path stroke="#d67329" d="M58 43h1M58 44h1M31 45h1M58 45h1M30 46h2M57 46h1M30 47h2M57 47h1M60 47h2M30 48h3M57 48h1M63 48h1M31 49h2M56 49h1M31 50h2M56 50h1M31 51h1M33 51h1M56 51h1M33 52h1M55 52h1M34 53h1M55 53h1M34 54h1M54 54h1M61 54h1M34 55h1M54 55h1M53 56h1M63 56h1M52 57h1M58 57h1" />
<path stroke="#ffb552" d="M59 45h1M58 46h2M58 47h2M58 48h2M61 48h1M57 49h3M61 49h4M57 50h5M57 51h4M57 52h3M57 53h4M58 54h3M60 55h2M62 56h1" />
<path stroke="#ef9442" d="M29 46h1M28 47h2M29 48h1M60 48h1M62 48h1M60 49h1M62 50h1M32 51h1M61 51h1M32 52h1M56 52h1M60 52h1M32 53h2M56 53h1M33 54h1M55 54h3M55 55h5M54 56h8M55 57h3M56 58h2M57 59h1" />
</svg>