<svg xmlns="http://www.w3.org/2000/svg" viewBox="0 -0.5 80 80" shape-rendering="crispEdges">
<metadata>Made with Pixels to Svg https://codepen.io/shshaw/pen/XbxvNj</metadata>
<path stroke="#e67b31" d="M60 15h4M58 16h2M27 17h3M57 17h1M62 17h2M27 18h5M56 18h1M60 18h4M27 19h8M55 19h1M58 19h6M26 20h1M28 20h8M57 20h6M28 21h7M54 21h1M56 21h7M29 22h5M55 22h8M27 23h1M29 23h4M55 23h7M30 24h2M55 24h7M31 25h1M54 25h7M54 26h2M59 26h2" />
<path stroke="#7b5231" d="M26 16h2M25 17h1M30 17h1M25 18h1M32 18h1M25 19h1M35 19h1M54 20h1M63 20h1M26 21h1M53 21h1M26 22h1M53 22h1M52 23h1M62 23h1M27 24h1M52 24h1M28 25h1M51 25h1M61 25h1M51 26h1M51 27h1M60 27h1M51 28h1" />
<path stroke="#101010" d="M28 16h2M64 16h1M31 17h2M64 17h1M33 18h3M64 18h1M36 19h2M51 19h2M64 19h1M53 20h1M64 20h1M63 21h1M63 22h1M63 23h1M62 24h1M62 25h1M29 26h1M31 26h1M61 26h1M61 27h1M60 28h1M52 29h1M61 30h1M61 31h1M62 32h1M62 33h1M62 34h1M62 35h1M63 36h1M63 37h1M63 38h1M63 39h2M36 40h1M52 40h1M59 40h1M64 40h1M37 41h2M52 41h1M59 41h1M64 41h1M38 42h3M50 42h3M64 42h1M37 43h1M40 43h2M48 43h3M52 43h1M64 43h2M37 44h1M42 44h1M46 44h2M52 44h1M60 44h1M65 44h1M37 45h1M42 45h1M46 45h1M52 45h1M60 45h1M65 45h1M37 46h1M42 46h1M46 46h1M52 46h1M60 46h1M65 46h1M25 47h2M36 47h2M41 47h1M47 47h1M52 47h1M60 47h1M65 47h1M27 48h9M39 48h1M48 48h1M52 48h1M60 48h1M65 48h1M49 49h2M52 49h1M60 49h1M63 49h2M40 50h1M47 50h1M51 50h2M59 50h5M30 51h2M46 51h3M53 51h7M29 52h1M36 52h1M46 52h1M57 52h3M29 53h1M37 53h2M46 53h1M60 53h2M30 54h1M46 54h1M53 54h1M31 55h3M47 55h1M54 55h1M65 55h1M56 56h1M66 56h2M57 57h1M68 57h1M54 58h6M69 58h1M23 59h3M59 59h3M69 59h1M22 60h1M58 60h2M62 60h7M57 61h2M30 62h1M58 62h1M60 62h1M29 63h2M52 63h2M60 63h1M24 64h5M54 64h1M59 64h1M44 65h2M53 65h1M57 65h2M38 66h2M44 66h3M52 66h5M40 67h1M44 67h1M47 67h1M50 67h2M36 68h1M41 68h1M44 68h1M48 68h2M36 69h1M41 69h1M44 69h1M36 70h1M44 70h1M36 71h1M45 71h1M36 72h1M45 72h1" />
<path stroke="#ffc55a" d="M60 16h4M26 17h1M58 17h4M26 18h1M57 18h3M26 19h1M56 19h2M27 20h1M55 20h2M27 21h1M55 21h1M27 22h2M54 22h1M28 23h1M53 23h2M28 24h2M53 24h2M29 25h2M52 25h2M30 26h1M52 26h2M52 27h2M52 28h1" />
<path stroke="#106bad" d="M42 17h6M49 18h2M50 19h1M36 20h1M52 20h1M35 21h1M34 22h1M33 23h1M32 24h1M32 25h1M56 26h3M30 27h1M54 27h2M30 28h1M53 28h1M29 29h1M37 29h1M60 29h1M37 30h1M28 31h1M31 31h1M37 31h1M31 32h1M37 32h1M57 32h1M61 32h1M27 33h1M31 33h1M37 33h1M57 33h1M27 34h1M31 34h1M37 34h1M27 35h1M32 35h1M38 35h1M52 35h1M58 35h1M32 36h1M38 36h1M52 36h1M58 36h1M62 36h1M26 37h1M33 37h1M38 37h1M52 37h1M58 37h1M26 38h1M33 38h2M39 38h1M52 38h1M59 38h1M26 39h1M33 39h1M35 39h1M39 39h1M52 39h1M59 39h1M25 40h1M33 40h1M40 40h1M63 40h1M25 41h1M32 41h1M41 41h2M51 41h1M24 42h2M32 42h1M37 42h1M41 42h1M44 42h1M49 42h1M60 42h1M24 43h1M32 43h1M45 43h2M60 43h1M24 44h1M32 44h1M24 45h1M31 45h1M24 46h1M31 46h1M27 47h1M31 47h1M35 47h1M64 48h1M62 49h1M53 50h1M58 50h1M35 57h2M40 57h1M33 58h1M40 58h1M32 59h1M41 59h1M41 60h1M31 61h1M42 61h1M31 62h1M42 62h1M31 63h1M43 63h1M31 64h1M44 64h1M31 65h1M35 65h4M31 66h2M36 66h1M32 67h1M36 67h1M33 68h1M33 69h1M34 70h1M41 70h1M34 71h1M42 71h1M34 72h1M42 72h1" />
<path stroke="#4a9cce" d="M39 18h3M44 18h5M38 19h1M42 19h2M37 20h1M40 20h2M39 21h1M52 22h1M33 24h1M38 24h1M38 25h1M31 27h1M37 27h1M50 27h1M56 27h4M37 28h1M50 28h1M54 28h6M49 29h3M53 29h7M29 30h1M31 30h1M48 30h13M46 31h15M28 32h1M32 32h4M40 32h1M42 32h15M58 32h3M32 33h5M38 33h2M41 33h1M43 33h14M58 33h4M32 34h5M38 34h1M40 34h1M42 34h20M30 35h2M33 35h5M39 35h13M53 35h5M59 35h3M27 36h1M29 36h3M33 36h5M39 36h13M53 36h5M59 36h3M29 37h4M34 37h4M39 37h13M53 37h5M59 37h4M29 38h4M35 38h4M40 38h12M53 38h6M60 38h3M28 39h5M34 39h1M36 39h3M40 39h12M53 39h6M60 39h3M26 40h1M28 40h5M34 40h2M37 40h3M41 40h11M53 40h6M60 40h3M28 41h4M33 41h4M39 41h2M43 41h8M53 41h6M60 41h4M28 42h4M33 42h4M45 42h4M53 42h7M61 42h3M27 43h5M33 43h4M47 43h1M53 43h7M61 43h3M27 44h5M33 44h4M54 44h6M61 44h4M27 45h4M32 45h5M55 45h1M57 45h3M61 45h4M26 46h5M32 46h5M56 46h1M58 46h1M61 46h4M28 47h3M32 47h3M57 47h1M59 47h1M61 47h4M61 48h3M61 49h1M37 57h1M39 57h1M40 61h2M32 62h2M38 62h4M32 63h11M32 64h12M32 65h3M39 65h5M33 66h3M40 66h4M33 67h3M41 67h3M34 68h2M42 68h2M34 69h2M42 69h2M35 70h1M42 70h2M35 71h1M43 71h2M35 72h1M43 72h2" />
<path stroke="#c5f7f7" d="M42 18h2M39 19h3M44 19h4M38 20h2M42 20h7M36 21h3M40 21h10M35 22h4M40 22h10M34 23h5M40 23h10M34 24h4M39 24h11M33 25h5M39 25h10M32 26h6M39 26h10M32 27h5M38 27h10M31 28h6M38 28h8M30 29h7M38 29h5M30 30h1M32 30h1M29 31h1M27 37h1M26 41h1M26 42h1" />
<path stroke="#8cbde6" d="M48 19h2M49 20h3M50 21h3M39 22h1M50 22h2M39 23h1M50 23h2M50 24h2M49 25h2M38 26h1M49 26h2M48 27h2M46 28h4M43 29h6M33 30h4M38 30h10M30 31h1M32 31h5M38 31h8M29 32h2M36 32h1M38 32h2M41 32h1M28 33h3M40 33h1M42 33h1M28 34h3M39 34h1M41 34h1M28 35h2M28 36h1M28 37h1M27 38h2M27 39h1M27 40h1M27 41h1M27 42h1M25 43h2M25 44h2M53 44h1M25 45h2M53 45h2M56 45h1M25 46h1M53 46h3M57 46h1M59 46h1M53 47h4M58 47h1M53 48h7M53 49h7M54 50h4M38 57h1M34 58h6M33 59h8M32 60h9M32 61h8M34 62h4" />
<path stroke="#d6adde" d="M42 42h1M42 43h3M43 44h3M43 45h2M43 46h3M43 47h4M41 48h1M43 48h5M39 49h2M42 49h1M44 49h2M47 49h2M48 50h3M50 51h3M51 52h4M53 53h6M54 54h8M56 55h8M38 56h2M46 56h1M57 56h7M34 57h1M45 57h1M47 57h2M59 57h4M45 58h2M49 58h2M61 58h2M44 59h5M51 59h8M63 59h1M42 60h4M47 60h4M54 60h4M29 61h2M43 61h4M49 61h5M29 62h1M43 62h6M57 62h1M27 63h1M44 63h4M45 64h1" />
<path stroke="#73638c" d="M43 42h1M45 45h1M42 47h1M40 48h1M42 48h1M37 49h2M41 49h1M46 49h1M33 50h4M39 50h1M41 50h1M46 50h1M32 51h1M37 51h2M40 51h1M49 51h1M35 52h1M39 52h1M50 52h1M55 52h2M51 53h2M59 53h1M36 54h2M62 54h2M34 55h2M46 55h1M55 55h1M64 55h1M29 56h4M47 56h2M25 57h3M46 57h1M49 57h2M58 57h1M64 57h2M25 58h1M47 58h2M51 58h3M60 58h1M66 58h2M22 59h1M26 59h1M31 59h1M49 59h2M62 59h1M68 59h1M26 60h1M29 60h3M46 60h1M51 60h3M23 61h1M27 61h2M47 61h2M54 61h3M23 62h1M49 62h2M59 62h1M24 63h1M28 63h1M51 63h1M54 63h1M59 63h1M58 64h1M55 65h2" />
<path stroke="#fff7ff" d="M43 49h1M37 50h2M42 50h4M33 51h4M41 51h5M40 52h6M39 53h7M38 54h8M36 55h10M33 56h5M40 56h6M64 56h2M29 57h5M41 57h4M63 57h1M66 57h2M26 58h7M41 58h4M63 58h3M68 58h1M27 59h4M42 59h2M64 59h4M23 60h3M27 60h2M24 61h3M24 62h5M51 62h6M25 63h2M48 63h3M55 63h4M46 64h8M55 64h3M46 65h7M54 65h1M47 66h5M48 67h2" />
<path stroke="#b57bc5" d="M30 52h5M30 53h7M31 54h5M28 57h1" />
</svg>