<svg xmlns="http://www.w3.org/2000/svg" viewBox="0 -0.5 80 80" shape-rendering="crispEdges">
<metadata>Made with Pixels to Svg https://codepen.io/shshaw/pen/XbxvNj</metadata>
<path stroke="#4aa5ce" d="M32 8h10M29 9h3M42 9h1M26 10h3M45 10h1M24 11h2M23 12h1M22 13h1M24 13h1M44 13h2M21 14h1M23 14h1M47 14h1M21 15h2M48 15h1M20 16h1M22 16h1M21 17h1M20 18h2M52 18h1M20 19h2M52 19h2M20 20h2M52 20h2M20 21h3M45 21h1M49 21h2M52 21h2M19 22h7M44 22h7M52 22h3M19 23h13M45 23h7M53 23h2M19 24h14M46 24h6M53 24h2M19 25h12M47 25h5M53 25h2M19 26h1M21 26h9M48 26h4M53 26h2M19 27h1M21 27h10M49 27h3M53 27h1M19 28h1M21 28h11M49 28h3M53 28h1M21 29h12M50 29h1M52 29h2M21 30h12M50 30h1M52 30h1M20 31h1M22 31h10M50 31h3M20 32h1M22 32h10M49 32h1M51 32h1M22 33h11M34 33h1M48 33h1M50 33h1M23 34h10M34 34h3M47 34h1M23 35h11M35 35h2M24 36h11M25 37h12M26 38h14M27 39h15M29 40h11M31 41h6M35 43h1M34 44h3M34 45h5M34 46h6M36 47h2M34 48h2M39 48h2M32 49h3M39 49h3M32 50h2M40 50h3M31 51h3M40 51h5M31 52h2M41 52h4M31 53h2M41 53h6M30 54h2M42 54h3M30 55h2M29 56h2M28 57h3M27 58h3M26 59h4M53 59h2M26 60h3M53 60h3M26 61h3M53 61h5M27 62h2M54 62h5M27 63h1M55 63h6M27 64h1M55 64h7M20 65h1M56 65h7M57 66h7M59 67h2M62 67h3M59 68h2M62 68h2M60 69h2M63 69h2M61 70h1M63 70h3M65 71h2" />
<path stroke="#c5f7f7" d="M32 9h10M29 10h16M28 11h19M26 12h14M43 12h6M25 13h18M46 13h4M24 14h22M48 14h3M23 15h25M49 15h3M23 16h26M50 16h1M23 17h7M33 17h17M23 18h6M36 18h8M46 18h2M24 19h6M27 20h4" />
<path stroke="#107bad" d="M43 9h2M46 10h1M47 11h2M49 12h1M50 13h1M52 15h1M49 16h1M20 17h1M50 17h1M19 18h1M50 18h1M53 18h1M19 19h1M51 19h1M19 20h1M51 20h1M19 21h1M51 21h1M54 21h1M18 22h1M51 22h1M55 22h1M18 23h1M32 23h1M52 23h1M55 23h1M18 24h1M52 24h1M18 25h1M46 25h1M52 25h1M18 26h1M20 26h1M52 26h1M18 27h1M20 27h1M48 27h1M52 27h1M54 27h1M18 28h1M20 28h1M48 28h1M52 28h1M18 29h3M48 29h2M51 29h1M18 30h3M48 30h2M51 30h1M53 30h1M21 31h1M49 31h1M21 32h1M32 32h1M50 32h1M20 33h2M33 33h1M49 33h1M21 34h1M33 34h1M48 34h1M21 35h1M34 35h1M22 36h1M35 36h3M23 37h1M37 37h2M40 38h2M40 40h1M29 41h2M37 41h1M34 43h1M36 43h1M33 44h1M37 44h1M33 45h1M39 45h1M32 46h1M32 47h1M38 47h3M32 48h1M36 48h1M38 48h1M31 49h1M31 50h1M34 50h1M30 51h1M30 52h1M45 52h2M30 53h1M29 54h1M45 54h2M29 55h1M43 55h3M49 55h1M28 56h1M31 56h1M48 56h3M27 57h1M49 57h3M26 58h1M30 58h1M50 58h4M25 59h1M51 59h2M24 60h1M29 60h1M52 60h1M56 60h1M23 61h1M22 62h1M59 62h1M21 63h1M20 64h1M19 66h1M18 67h1M58 67h1M61 67h1M18 68h1M61 68h1M64 68h1M17 69h1M62 69h1M65 69h1M17 70h1M16 71h1M64 71h1M16 72h1" />
<path stroke="#8ccee6" d="M26 11h2M24 12h2M40 12h3M23 13h1M43 13h1M22 14h1M46 14h1M21 16h1M51 16h1M22 17h1M51 17h2M22 18h1M44 18h2M48 18h2M51 18h1M22 19h2M38 19h13M22 20h5M40 20h11M23 21h8M42 21h3M46 21h3M26 22h6M33 46h1M33 47h3M33 48h1M25 60h1M24 61h2M23 62h4M22 63h5M21 64h6M21 65h6M20 66h6M19 67h7M19 68h6M18 69h7M18 70h6M17 71h7M17 72h6" />
<path stroke="#101010" d="M51 14h1M52 16h1M53 17h1M54 19h1M31 20h1M39 20h1M54 20h1M31 21h1M41 21h1M32 22h1M42 22h2M44 23h1M33 24h1M45 24h1M55 24h1M33 25h2M55 25h1M55 26h1M31 27h1M55 27h1M32 28h1M47 28h1M54 28h2M33 29h1M47 29h1M54 29h1M33 30h1M54 30h1M19 31h1M32 31h1M48 31h1M53 31h2M19 32h1M33 32h4M48 32h1M52 32h2M19 33h1M35 33h2M47 33h1M51 33h2M20 34h1M22 34h1M37 34h1M49 34h3M20 35h1M22 35h1M37 35h1M44 35h6M21 36h1M23 36h1M38 36h2M42 36h2M22 37h1M24 37h1M39 37h1M41 37h1M23 38h3M25 39h2M42 39h1M27 40h2M41 40h1M43 40h1M38 41h2M44 41h1M31 42h6M44 42h1M44 43h2M45 44h1M37 48h1M35 49h2M38 49h1M35 50h1M39 50h1M34 51h1M39 51h1M33 52h1M40 52h1M51 52h1M33 53h1M40 53h1M50 53h1M32 54h1M41 54h1M49 54h1M32 55h1M42 55h1M47 55h2M50 55h1M42 56h1M47 56h1M51 56h2M31 57h1M42 57h1M47 57h2M52 57h2M31 58h1M48 58h2M54 58h2M30 59h1M48 59h1M50 59h1M55 59h2M30 60h1M41 60h1M49 60h1M51 60h1M57 60h1M29 61h1M41 61h1M49 61h1M52 61h1M58 61h2M29 62h1M49 62h1M53 62h1M60 62h1M28 63h1M40 63h1M49 63h2M54 63h1M61 63h1M28 64h1M39 64h1M50 64h1M54 64h1M62 64h1M27 65h1M50 65h1M55 65h1M63 65h1M26 66h2M50 66h2M56 66h1M64 66h1M26 67h1M51 67h1M57 67h1M65 67h1M25 68h2M51 68h1M58 68h1M65 68h1M25 69h1M51 69h1M59 69h1M66 69h1M24 70h2M51 70h2M60 70h1M62 70h1M66 70h1M24 71h1M52 71h1M61 71h3M67 71h1M23 72h1M52 72h1M64 72h4" />
<path stroke="#8c52a5" d="M30 17h3M29 18h1M33 18h3M30 19h1M36 19h2M38 20h1M40 21h1M43 23h1M44 24h1M31 25h2M44 25h1M30 26h1M44 26h1M34 29h1M45 31h1M37 32h1M46 32h1M38 33h1M46 34h1M38 35h3M40 36h2M43 41h1M42 58h1M47 58h1M42 59h1M48 60h1M48 61h1M41 62h1M49 64h1M38 65h1M35 66h3M33 67h2M50 67h1M31 68h2M29 69h2M26 70h3M25 71h1M51 71h1M51 72h1" />
<path stroke="#fff7ff" d="M30 18h3M31 19h5M32 20h6M32 21h8M33 22h9M33 23h9M34 24h9M35 25h8M31 26h12M32 27h11M33 28h10M35 29h7M34 30h8M33 31h8M38 32h2M40 45h2M41 46h3M41 47h4M42 48h3M43 49h2M44 50h2M45 51h1M40 64h1M39 65h2M38 66h4M35 67h8M33 68h10M31 69h9M41 69h1M30 70h11M42 70h1M26 71h14M41 71h1M24 72h15M40 72h1" />
<path stroke="#d6adde" d="M42 23h1M43 24h1M43 25h1M43 26h1M43 27h1M43 28h1M42 29h3M42 30h3M41 31h4M47 31h1M40 32h6M47 32h1M37 33h1M39 33h8M38 34h8M41 35h3M40 37h1M42 40h1M40 41h3M37 42h7M37 43h7M39 44h5M42 45h3M44 46h1M41 48h1M42 49h1M43 50h1M46 55h1M43 56h4M43 57h4M43 58h4M43 59h5M42 60h6M42 61h6M42 62h7M41 63h8M41 64h8M41 65h9M42 66h8M43 67h7M43 68h8M40 69h1M42 69h9M29 70h1M41 70h1M43 70h8M40 71h1M42 71h9M39 72h1M41 72h10" />
<path stroke="#ffffff" d="M45 25h1M45 26h1M45 27h1M47 27h1M45 28h1M45 29h1" />
<path stroke="#e68431" d="M46 26h1M46 27h1M46 28h1M46 29h1M46 30h1M45 46h2M45 47h5M46 48h5M46 49h5M38 50h1M46 50h5M38 51h1M47 51h4M38 52h2M47 52h3M39 53h1M47 53h3M39 54h2M47 54h2M40 55h2" />
<path stroke="#7b5231" d="M47 26h1M47 30h1M45 45h7M52 46h1M52 47h1M52 48h1M37 49h1M52 49h1M37 50h1M51 50h1M37 51h1M46 51h1M51 51h1M37 52h1M50 52h1M38 53h1M38 54h1M39 55h1M40 56h2" />
<path stroke="#b57bc5" d="M44 27h1M44 28h1M45 30h1M38 44h1M44 44h1M40 46h1M45 48h1M45 49h1" />
<path stroke="#ffc55a" d="M46 31h1M47 46h5M50 47h2M51 48h1M51 49h1" />
</svg>