<svg xmlns="http://www.w3.org/2000/svg" viewBox="0 -0.5 80 80" shape-rendering="crispEdges">
<metadata>Made with Pixels to Svg https://codepen.io/shshaw/pen/XbxvNj</metadata>
<path stroke="#101010" d="M23 1h2M25 2h1M25 3h1M26 4h1M26 5h1M26 6h1M27 7h1M27 8h1M29 14h2M28 15h1M31 15h1M28 16h1M32 17h1M27 18h1M32 18h1M27 19h1M33 19h1M33 20h1M33 21h1M34 22h1M34 23h1M35 24h1M35 25h1M36 26h1M36 27h1M37 28h1M37 29h1M38 30h1M34 31h1M38 31h1M34 32h1M38 32h1M33 33h3M39 33h1M33 34h3M39 34h1M51 34h1M34 35h1M38 35h1M51 35h1M37 36h1M50 36h1M36 37h1M50 37h1M7 38h1M36 38h1M49 38h1M7 39h1M48 39h1M8 40h1M46 40h2M8 41h1M43 41h3M48 41h1M9 42h1M42 42h1M47 42h1M9 43h1M45 43h2M9 44h1M43 44h3M10 45h1M39 45h1M41 45h3M10 46h2M38 46h4M11 47h1M38 47h1M12 48h1M37 48h2M12 49h1M37 49h1M11 50h1M36 50h2M11 51h1M36 51h1M11 52h1M10 53h1M10 54h1M21 54h1M10 55h1M20 55h1M22 55h1M11 56h1M20 56h1M22 56h1M35 56h1M12 57h1M19 57h1M23 57h1M36 57h1M40 57h1M12 58h1M14 58h1M19 58h1M23 58h1M36 58h1M39 58h1M12 59h1M17 59h2M24 59h1M36 59h2M42 59h1M12 60h1M24 60h5M37 60h2M41 60h1M12 61h1M38 61h3M68 61h1M39 62h2M42 62h1M68 62h1M11 63h1M40 63h2M58 63h1M68 63h1M11 64h1M35 64h1M41 64h2M58 64h1M68 64h1M34 65h1M36 65h1M58 65h1M68 65h1M10 66h1M34 66h1M36 66h1M58 66h1M67 66h1M10 67h1M27 67h1M33 67h1M36 67h1M58 67h1M67 67h1M10 68h1M26 68h1M28 68h1M33 68h1M37 68h1M58 68h1M67 68h1M10 69h1M26 69h1M28 69h1M32 69h1M37 69h1M46 69h2M58 69h1M67 69h1M10 70h1M25 70h1M28 70h1M32 70h1M37 70h1M48 70h3M58 70h1M67 70h1M10 71h1M25 71h1M29 71h1M32 71h1M37 71h1M51 71h2M67 71h1M10 72h1M25 72h1M29 72h1M31 72h1M38 72h1M47 72h1M53 72h2M66 72h1M10 73h2M24 73h1M29 73h1M31 73h1M38 73h1M47 73h1M55 73h3M66 73h1M73 73h1M11 74h1M24 74h1M30 74h1M38 74h1M47 74h1M58 74h2M66 74h1M73 74h1M11 75h1M24 75h1M30 75h1M38 75h2M46 75h2M59 75h2M66 75h1M73 75h1M11 76h2M24 76h1M39 76h1M46 76h1M60 76h2M72 76h1M12 77h1M23 77h1M39 77h1M46 77h1M61 77h1M72 77h1M12 78h2M18 78h1M23 78h1M39 78h1M45 78h2M61 78h2M72 78h1M13 79h1M19 79h1M23 79h1M45 79h1M62 79h1M71 79h1" />
<path stroke="#a56b4a" d="M22 2h1M22 3h1M21 4h1M21 5h1M21 6h1M20 7h1M20 8h1M20 9h1M27 9h1M19 10h1M19 11h1M28 12h1M15 15h2M14 16h1M14 17h1M13 18h1M13 19h1M13 20h1M12 21h1M15 21h1M12 22h1M15 22h1M11 23h1M14 23h1M26 23h1M11 24h1M14 24h1M11 25h1M14 25h1M13 26h1M25 26h1M13 27h1M10 28h1M13 28h1M24 29h1M37 30h1M40 30h1M9 31h1M43 31h1M23 32h1M45 32h1M23 33h1M8 34h1M64 64h1M54 68h1M61 68h1M56 71h1M69 75h1M65 77h1" />
<path stroke="#ffde4a" d="M23 2h2M23 3h2M24 4h1M24 5h2M24 6h2M24 7h2M25 8h2M25 9h2M25 10h3M25 11h3M26 12h2M26 13h3M26 14h3M26 15h2M29 15h2M15 16h2M27 16h1M29 16h2M15 17h1M30 17h2M30 18h2M31 19h1M31 20h2M31 21h2M32 22h1M32 23h2M33 24h1M33 25h2M34 26h1M34 27h1M39 31h3M40 32h5M43 33h7M46 34h5M50 35h1M13 50h1M12 51h2M12 52h2M12 53h2M11 54h2M11 55h2M67 61h1M66 62h2M57 63h1M65 63h2M57 64h1M65 64h2M56 65h2M64 65h2M35 66h1M56 66h2M64 66h1M34 67h2M56 67h1M27 68h1M34 68h2M27 69h1M34 69h3M27 70h1M33 70h3M26 71h3M33 71h3M26 72h3M32 72h4M26 73h3M32 73h3M25 74h5M32 74h3M25 75h5M33 75h1M25 76h5M33 76h1M25 77h4M24 78h5M24 79h4" />
<path stroke="#dea531" d="M22 4h2M22 5h2M22 6h2M21 7h3M21 8h4M21 9h4M20 10h5M20 11h5M19 12h7M19 13h7M19 14h7M18 15h8M18 16h9M18 17h9M29 17h1M14 18h2M17 18h10M28 18h2M14 19h2M17 19h10M28 19h3M14 20h1M16 20h11M28 20h3M13 21h2M16 21h10M27 21h4M13 22h2M16 22h10M27 22h5M33 22h1M12 23h2M15 23h11M27 23h5M12 24h2M15 24h10M26 24h7M12 25h2M15 25h10M26 25h7M11 26h2M14 26h11M26 26h8M11 27h2M14 27h10M25 27h9M35 27h1M11 28h2M14 28h10M25 28h11M10 29h14M25 29h12M10 30h13M24 30h10M35 30h2M39 30h1M10 31h13M24 31h10M35 31h3M42 31h1M9 32h14M24 32h9M36 32h2M39 32h1M9 33h14M24 33h9M36 33h3M42 33h1M9 34h24M36 34h3M45 34h1M8 35h26M36 35h2M8 36h29M8 37h28M8 38h28M9 39h26M39 39h1M9 40h26M37 40h3M10 41h30M10 42h30M10 43h29M11 44h28M11 45h28M12 46h26M13 47h25M13 48h24M13 49h24M14 50h22M14 51h22M14 52h22M14 53h7M22 53h14M13 54h8M22 54h11M34 54h3M13 55h7M23 55h10M35 55h2M12 56h8M23 56h10M36 56h1M13 57h6M24 57h9M15 58h4M24 58h9M25 59h4M67 63h1M67 64h1M66 65h1M63 66h1M65 66h2M55 67h1M57 67h1M62 67h5M55 68h3M62 68h5M54 69h4M61 69h6M36 70h1M53 70h5M60 70h7M36 71h1M53 71h3M59 71h7M36 72h1M55 72h11M35 73h3M46 73h1M58 73h8M72 73h1M35 74h3M45 74h2M60 74h6M71 74h2M31 75h2M34 75h4M44 75h2M61 75h5M70 75h2M31 76h2M34 76h4M43 76h3M62 76h4M68 76h4M30 77h9M42 77h4M62 77h3M66 77h6M29 78h10M41 78h4M63 78h8M28 79h11M40 79h5M63 79h8" />
<path stroke="#735242" d="M25 4h1M26 7h1M28 9h1M28 10h1M28 11h1M18 12h1M29 12h1M18 13h1M29 13h1M18 14h1M17 15h1M17 16h1M31 16h1M16 17h2M27 17h2M16 18h1M16 19h1M32 19h1M15 20h1M27 20h1M26 21h1M26 22h1M25 24h1M34 24h1M10 25h1M25 25h1M10 26h1M35 26h1M10 27h1M24 27h1M9 28h1M24 28h1M36 28h1M9 29h1M38 29h2M9 30h1M23 30h1M34 30h1M41 30h2M8 31h1M23 31h1M44 31h1M8 32h1M33 32h1M35 32h1M46 32h4M8 33h1M50 33h1M7 34h1M7 35h1M35 35h1M7 36h1M7 37h1M39 38h2M8 39h1M35 39h1M38 39h1M35 40h2M9 41h1M10 44h1M12 47h1M12 50h1M36 52h1M11 53h1M21 53h1M36 53h1M33 54h1M37 54h1M33 55h1M37 55h1M33 56h1M37 56h1M33 57h1M67 60h2M66 61h1M57 62h1M65 62h1M56 63h1M64 63h1M56 64h1M63 64h1M35 65h1M55 65h1M63 65h1M67 65h1M55 66h1M62 66h1M54 67h1M61 67h1M36 68h1M53 68h1M60 68h1M33 69h1M53 69h1M60 69h1M26 70h1M52 70h1M59 70h1M57 71h2M66 71h1M37 72h1M46 72h1M72 72h2M25 73h1M45 73h1M71 73h1M31 74h1M44 74h1M69 74h2M43 75h1M68 75h1M72 75h1M30 76h1M38 76h1M42 76h1M66 76h2M24 77h1M29 77h1M41 77h1M40 78h1M71 78h1M39 79h1" />
<path stroke="#424a6b" d="M40 33h2M40 34h5M39 35h10M38 36h12M37 37h13M37 38h2M41 38h8M36 39h2M41 39h6M41 40h5M48 40h1M41 41h1M47 41h1M41 42h1M43 42h4M40 43h5M40 44h3M40 45h1M21 55h1M34 55h1M21 56h1M34 56h1M20 57h3M34 57h2M37 57h3M20 58h3M34 58h2M37 58h2M19 59h5M33 59h3M38 59h4M15 60h9M29 60h8M39 60h2M15 61h21M15 62h19M41 62h1M15 63h18M14 64h19M14 65h20M13 66h21M13 67h14M28 67h5M12 68h14M29 68h4M12 69h14M29 69h3M12 70h13M29 70h3M38 70h2M11 71h14M30 71h2M38 71h4M12 72h13M30 72h1M39 72h7M48 72h4M12 73h12M30 73h1M39 73h6M48 73h6M12 74h5M18 74h6M39 74h5M48 74h9M13 75h4M18 75h6M40 75h3M48 75h11M13 76h4M18 76h6M40 76h2M47 76h13M13 77h5M19 77h4M40 77h1M47 77h14M14 78h4M19 78h4M47 78h14M14 79h5M20 79h3M46 79h16" />
<path stroke="#5a6384" d="M49 35h1M37 61h1M34 62h1M14 63h1M33 64h1M13 65h1M12 67h1M38 69h1M11 70h1M40 70h1M42 71h2" />
<path stroke="#293152" d="M50 38h1M40 39h1M47 39h1M49 39h1M40 40h1M49 40h1M40 41h1M42 41h1M46 41h1M40 42h1M39 43h1M39 44h1M38 56h3M13 58h1M33 58h1M40 58h3M15 59h2M29 59h4M41 61h2M12 62h1M11 65h1M42 65h1M43 66h1M44 67h1M45 68h1M47 70h1M50 71h1M11 72h1M52 72h1M54 73h1M17 74h1M57 74h1M12 75h1M17 75h1M17 76h1M18 77h1" />
<path stroke="#737b8c" d="M13 59h2M13 60h2M13 61h2M36 61h1M13 62h2M35 62h4M12 63h2M33 63h7M12 64h2M34 64h1M36 64h5M12 65h1M37 65h5M11 66h2M37 66h6M11 67h1M37 67h7M11 68h1M38 68h7M11 69h1M39 69h7M41 70h6M44 71h6" />
</svg>