<svg xmlns="http://www.w3.org/2000/svg" viewBox="0 -0.5 80 80" shape-rendering="crispEdges">
<metadata>Made with Pixels to Svg https://codepen.io/shshaw/pen/XbxvNj</metadata>
<path stroke="#634a3a" d="M44 12h2M44 13h1M46 13h1M44 14h1M46 14h1M28 15h2M44 15h1M47 15h1M28 16h1M30 16h1M44 16h1M47 16h1M28 17h1M31 17h1M48 17h1M28 18h1M32 18h1M48 18h1M33 19h1M44 19h1M49 19h1M34 21h1M50 21h1M38 22h2M50 22h1M29 23h1M35 23h1M38 23h1M40 23h1M38 24h1M41 24h1M51 24h1M36 25h1M38 25h1M42 25h1M51 25h1M36 26h1M43 26h2M24 27h2M37 27h1M44 27h1M52 27h1M24 28h1M26 28h2M37 28h1M52 28h1M24 29h1M28 29h1M29 30h1M53 30h1M25 31h1M53 31h1M39 32h1M53 32h1M26 34h1M54 34h1M54 35h1M54 36h1M27 37h1M54 37h1M54 38h1M54 39h1M3 40h1M3 41h1M4 42h1M4 43h1M4 44h1M5 45h1M5 46h1M5 47h1M5 48h1M5 49h1M5 50h1M4 52h1M4 53h1M61 54h2M3 55h1M56 55h1M63 55h3M3 56h1M66 56h2M4 57h1M69 57h1M5 58h1M71 58h1M6 59h1M72 59h1M7 60h1M55 60h1M73 60h1M57 61h1M74 61h1M8 62h1M75 62h1M76 63h1M68 64h1M72 64h1M77 64h1M60 65h1M65 65h1M72 65h3M78 65h1M8 66h1M63 66h1M75 66h4" />
<path stroke="#efbd29" d="M45 13h1M45 14h1M45 15h2M29 16h1M45 16h2M29 17h2M46 17h2M30 18h2M46 18h2M30 19h2M47 19h2M31 20h2M47 20h2M31 21h3M48 21h2M31 22h3M48 22h2M32 23h3M39 23h1M49 23h1M32 24h3M39 24h2M49 24h2M32 25h4M40 25h2M50 25h1M33 26h3M41 26h2M50 26h1M33 27h4M43 27h1M50 27h2M25 28h1M33 28h4M44 28h1M51 28h1M25 29h3M34 29h4M51 29h1M27 30h2M34 30h4M52 30h1M29 31h1M35 31h3M52 31h1M35 32h3M52 32h1M35 33h4M52 33h1M36 34h3M53 34h1M36 35h3M53 35h1M53 36h1M53 37h1M53 38h1M4 40h1M5 41h1M5 42h1M5 43h1M6 44h1M6 45h1M6 46h1M6 47h1M6 48h1M6 49h1M6 50h1M6 51h1M5 52h3M5 53h5M5 54h7M4 55h10M6 56h9M64 56h2M10 57h6M66 57h2M13 58h3M68 58h2M15 59h2M69 59h3M17 60h1M70 60h3M71 61h3M72 62h3M73 63h3M74 64h3M76 65h2" />
<path stroke="#426b00" d="M44 17h1M44 18h1M28 19h1M43 19h1M28 20h1M43 20h1M28 21h1M43 21h1M28 22h1M43 22h1M28 23h1M43 23h1M29 24h1M43 24h1M29 25h1M43 25h1M29 26h1M38 26h1M29 27h1M38 27h1M29 28h1M38 28h1M29 29h1M38 29h1M24 30h1M38 30h1M24 31h1M38 31h1M25 32h1M38 32h1M25 33h1M39 33h1M25 34h1M39 34h1M26 35h1M39 35h1M26 36h1M36 36h4M26 37h1M33 37h2M39 37h1M43 37h4M27 38h1M31 38h1M40 38h2M48 38h3M27 39h1M29 39h1M53 39h1M27 40h2M27 41h1M26 42h1M25 43h1M55 44h1M24 45h1M54 47h1M54 48h1M54 49h1M54 50h1M25 51h1M54 51h1M25 52h1M54 52h1M26 53h1M54 53h1M26 54h1M54 54h1M26 55h1M26 56h1M27 57h1M27 58h1M27 59h1M27 60h1M27 61h1M50 61h1M28 62h1M48 62h2M28 63h3M46 63h2M31 64h3M43 64h3M34 65h9" />
<path stroke="#ce9429" d="M45 17h1M29 18h1M45 18h1M29 19h1M32 19h1M45 19h2M29 20h2M33 20h1M44 20h3M49 20h1M29 21h2M44 21h4M29 22h2M34 22h1M44 22h4M30 23h2M44 23h5M50 23h1M30 24h2M35 24h1M44 24h5M30 25h2M39 25h1M44 25h6M30 26h3M39 26h2M45 26h5M51 26h1M30 27h3M39 27h4M45 27h5M30 28h3M39 28h5M45 28h6M30 29h4M39 29h12M52 29h1M25 30h2M30 30h4M39 30h13M26 31h3M30 31h5M39 31h13M26 32h9M40 32h12M26 33h9M40 33h12M53 33h1M27 34h9M40 34h13M27 35h9M40 35h13M27 36h9M40 36h13M28 37h5M40 37h3M47 37h6M28 38h3M51 38h2M28 39h1M5 40h1M4 41h1M6 41h2M6 42h4M6 43h5M5 44h1M7 44h5M7 45h5M7 46h6M7 47h6M7 48h7M7 49h7M7 50h7M5 51h1M7 51h8M8 52h7M10 53h6M4 54h1M12 54h4M14 55h3M57 55h6M4 56h2M15 56h2M54 56h10M5 57h5M16 57h2M52 57h14M68 57h1M6 58h7M16 58h2M51 58h17M70 58h1M7 59h8M17 59h2M51 59h18M8 60h9M18 60h1M56 60h14M8 61h12M58 61h13M9 62h11M59 62h13M9 63h11M60 63h13M9 64h12M60 64h8M73 64h1M9 65h12M61 65h4M75 65h1M9 66h11M61 66h2" />
<path stroke="#218473" d="M1 34h3M1 35h1M4 35h1M1 36h2M5 36h1M6 37h2M8 38h2M4 39h2M10 39h2M6 40h2M12 40h1M8 41h2M13 41h1M10 42h1M14 42h1M11 43h1M15 43h1M12 44h1M15 44h1M12 45h1M16 45h1M13 46h1M16 46h1M57 46h1M13 47h1M17 47h1M55 47h1M57 47h1M60 47h1M14 48h1M17 48h1M61 48h1M14 49h1M62 49h1M14 50h2M18 50h1M62 50h1M15 51h1M24 51h1M58 51h1M63 51h1M15 52h2M19 52h1M23 52h1M63 52h1M16 53h1M22 53h1M64 53h1M16 54h2M17 55h1M20 55h1M17 56h2M18 57h1M21 57h1M18 58h2M19 59h1M22 59h1M19 60h2M20 61h1M23 61h1M20 62h1M20 63h2M21 64h1M24 64h1M21 65h1M58 65h1M20 66h2M57 66h1" />
<path stroke="#63d6c5" d="M2 35h2M3 36h2M3 37h3M4 38h4M7 39h3M10 40h2M12 41h1M13 42h1M14 43h1M15 45h1M55 45h1M55 46h1M16 47h1M56 47h1M60 48h1M56 49h1M60 49h2M56 50h2M60 50h2M57 51h1M60 51h3M24 52h1M60 52h3M23 53h2M61 53h3M22 54h2M63 54h1M22 55h2M22 56h1M57 64h2M57 65h1M56 66h1" />
<path stroke="#101010" d="M2 37h1M2 38h2M39 38h1M3 39h1M56 40h1M52 41h2M57 41h1M52 42h3M58 42h1M52 43h4M52 44h2M56 44h1M59 44h1M52 45h2M56 45h2M59 45h1M52 46h2M56 46h1M59 46h1M23 47h1M53 47h1M58 47h2M23 48h1M53 48h1M56 48h4M18 49h1M57 49h3M22 50h1M58 50h2M19 51h1M22 51h1M59 51h1M22 52h1M59 52h1M20 53h1M20 54h2M56 54h5M64 54h1M21 55h1M54 55h2M21 56h1M52 56h2M3 57h1M22 57h1M51 57h1M4 58h1M22 58h1M50 58h1M5 59h1M23 59h1M50 59h1M6 60h1M23 60h1M51 60h4M7 61h1M55 61h2M7 62h1M57 62h2M8 63h1M58 63h2M8 64h1M59 64h1M69 64h3M8 65h1M24 65h1M59 65h1M66 65h3M7 66h1M24 66h2M58 66h1M60 66h1M64 66h2" />
<path stroke="#739c19" d="M35 37h1M32 38h1M37 38h2M42 38h6M30 39h1M35 39h18M33 40h21M55 40h1M33 41h19M54 41h1M32 42h20M55 42h1M31 43h21M56 43h1M58 43h1M25 44h1M31 44h21M57 44h1M31 45h21M58 45h1M24 46h1M31 46h21M58 46h1M30 47h23M30 48h23M23 49h1M29 49h25M23 50h1M27 50h27M23 51h1M26 51h28M26 52h28M27 53h27M27 54h27M27 55h27M27 56h25M28 57h23M28 58h22M28 59h22M28 60h23M28 61h22M29 62h19M31 63h15M34 64h9" />
<path stroke="#9cc519" d="M36 37h3M33 38h4M31 39h4M29 40h4M54 40h1M28 41h5M55 41h2M27 42h5M56 42h2M26 43h5M57 43h1M26 44h5M58 44h1M25 45h6M25 46h6M24 47h6M24 48h6M24 49h5M24 50h3" />
<path stroke="#52ad9c" d="M6 39h1M8 40h2M10 41h2M11 42h2M12 43h2M13 44h2M13 45h2M14 46h2M14 47h2M15 48h2M55 48h1M15 49h3M55 49h1M16 50h2M55 50h1M16 51h3M55 51h2M17 52h2M55 52h4M17 53h3M25 53h1M55 53h6M18 54h2M24 54h2M55 54h1M18 55h2M24 55h2M19 56h2M23 56h3M19 57h2M23 57h4M20 58h2M23 58h4M20 59h2M24 59h3M21 60h2M24 60h3M21 61h2M24 61h3M51 61h4M21 62h7M50 62h7M22 63h6M48 63h10M22 64h2M25 64h6M46 64h11M22 65h2M25 65h9M43 65h14M22 66h2M26 66h30" />
<path stroke="#ffffff" d="M54 44h1M54 45h1M54 46h1" />
</svg>