<svg xmlns="http://www.w3.org/2000/svg" viewBox="0 -0.5 80 80" shape-rendering="crispEdges">
<metadata>Made with Pixels to Svg https://codepen.io/shshaw/pen/XbxvNj</metadata>
<path stroke="#3a4252" d="M40 5h6M38 6h2M36 7h2M35 8h1M53 8h1M34 9h1M54 9h1M33 10h1M55 10h1M33 11h1M55 11h1M32 12h1M56 12h1M32 13h1M56 13h1M31 14h1M57 14h1M31 15h1M57 15h1M31 16h1M57 16h1M31 17h1M57 17h1M31 18h1M57 18h1M31 19h1M57 19h1M31 20h1M57 20h1M31 21h1M57 21h1M31 22h2M57 22h1M32 23h1M56 23h1M32 24h2M56 24h1M33 25h1M55 25h1M33 26h2M54 26h2M34 27h2M53 27h2M35 28h2M52 28h2M36 29h3M38 30h3M40 31h5M58 44h1" />
<path stroke="#5a5a73" d="M46 5h2M40 6h1M52 7h1M36 8h1M52 8h1M35 9h1M40 9h6M53 9h1M34 10h1M38 10h8M54 10h1M37 11h10M36 12h16M35 13h17M32 14h1M34 14h17M56 14h1M34 15h17M33 16h19M54 16h1M33 17h22M33 18h22M33 19h22M33 20h22M33 21h22M33 22h22M56 22h1M33 23h22M34 24h20M55 24h1M34 25h14M50 25h4M35 26h12M51 26h2M36 27h11M37 28h9M39 29h7M41 30h4M57 42h1M58 43h1" />
<path stroke="#7b7b8c" d="M48 5h1M41 6h6M50 6h1M38 7h8M51 7h1M37 8h9M36 9h4M52 9h1M35 10h3M52 10h2M34 11h3M51 11h4M33 12h3M52 12h4M33 13h2M54 13h2M33 14h1M55 14h1M32 15h2M55 15h2M32 16h1M55 16h2M32 17h1M55 17h2M32 18h1M55 18h2M32 19h1M55 19h2M32 20h1M55 20h2M32 21h1M55 21h2M55 22h1M55 23h1M54 24h1M54 25h1M53 26h1M52 27h1M54 42h1M53 43h2M53 44h2M54 45h2" />
<path stroke="#9494a5" d="M47 6h1M46 7h1M46 10h1M51 10h1M47 11h1M50 11h1M52 13h2M51 14h1M54 14h1M51 15h1M54 15h1M52 16h2M55 42h2M55 43h3M55 44h3M56 45h1" />
<path stroke="#b5b5c5" d="M48 6h2M47 7h4M46 8h6M46 9h6M47 10h4M48 11h2M52 14h2M52 15h2" />
<path stroke="#7b5a31" d="M32 25h1M48 25h2M31 26h1M31 27h1M47 27h1M30 28h1M30 29h1M46 29h1M52 29h1M29 30h1M52 30h1M29 31h1M45 31h1M18 44h1M18 45h1M62 46h1M17 47h1M62 47h1M17 48h1M61 48h2M59 49h3M59 50h1M58 51h4M62 52h1M62 53h1M62 54h1M17 58h1M55 59h1M53 60h1M18 61h1M25 67h1M23 68h1M22 69h1M24 69h1M28 70h1M26 71h2M31 71h1M23 72h8M22 73h12M17 74h1M23 74h1M31 74h4M33 75h3" />
<path stroke="#f7c5ad" d="M32 26h1M32 27h1M31 28h1M31 29h1M30 30h1M51 30h1M51 31h1M28 32h2M50 32h2M27 33h4M50 33h3M26 34h5M50 34h3M25 35h6M50 35h4M24 36h6M50 36h4M23 37h5M51 37h4M23 38h3M52 38h4M22 39h3M53 39h3M21 40h3M54 40h3M58 40h1M21 41h2M55 41h2M58 41h2M20 42h2M58 42h3M20 43h1M59 43h2M19 44h1M19 45h1M57 45h1M19 46h1M57 46h2M18 47h1M58 47h1M18 48h1M58 48h1M58 49h1M58 50h1M58 52h3M59 53h3M61 54h1M56 60h2M56 61h1M55 62h2M55 63h1M54 64h2M54 65h1M53 66h1" />
<path stroke="#101010" d="M47 26h1M46 28h1M45 30h1M44 32h1M17 49h1M17 50h1M60 50h1M16 51h1M56 51h2M16 52h1M16 53h1M16 54h1M16 55h1M62 55h1M16 56h1M61 56h1M16 57h1M60 57h1M16 58h1M58 58h2M17 59h1M56 59h3M17 60h1M54 60h2M58 60h1M17 61h1M58 61h1M18 62h1M57 62h1M18 63h2M57 63h1M19 64h1M56 64h1M19 65h2M22 65h1M56 65h1M20 66h2M55 66h1M20 67h1M26 67h1M54 67h1M19 68h1M24 68h2M53 68h1M19 69h1M23 69h1M25 69h2M51 69h2M18 70h1M22 70h1M26 70h2M48 70h3M18 71h1M21 71h5M28 71h3M45 71h4M18 72h1M21 72h2M31 72h15M18 73h1M21 73h1M34 73h1M18 74h1M22 74h1M24 74h1M28 74h3M35 74h1M17 75h3M23 75h3M31 75h2M36 75h1" />
<path stroke="#a5845a" d="M48 26h1M50 26h1M51 27h1M51 28h1M28 31h1M52 31h1M27 32h1M53 32h1M26 33h1M44 33h1M53 33h1M25 34h1M53 34h1M24 35h1M54 35h1M23 36h1M55 36h1M22 37h1M55 37h1M21 38h1M56 38h1M21 39h1M56 39h3M20 40h1M57 40h1M59 40h1M20 41h1M60 41h1M19 42h1M61 42h1M19 43h1M61 43h1M62 44h1M62 45h1M18 46h1M59 47h1M59 48h1M17 51h1M55 51h1M61 55h1M60 56h1M59 57h1M57 58h1M52 60h1M57 61h1M56 63h1M23 64h1M55 65h1M26 66h1M54 66h1M53 67h1M52 68h1M50 69h1" />
<path stroke="#cea594" d="M49 26h1M33 27h1M48 27h3M32 28h3M47 28h4M32 29h4M47 29h5M31 30h7M46 30h5M30 31h10M46 31h5M30 32h14M45 32h5M52 32h1M31 33h13M45 33h5M31 34h19M31 35h19M30 36h20M54 36h1M28 37h23M22 38h1M26 38h26M25 39h28M24 40h30M23 41h32M22 42h32M21 43h32M20 44h33M59 44h3M20 45h34M59 45h3M20 46h37M60 46h2M19 47h39M60 47h2M19 48h39M60 48h1M18 49h40M18 50h40M18 51h37M17 52h41M61 52h1M17 53h42M17 54h44M17 55h44M17 56h43M17 57h42M18 58h39M18 59h37M18 60h34M19 61h37M19 62h36M20 63h35M20 64h3M24 64h30M21 65h1M23 65h31M22 66h4M27 66h26M21 67h4M27 67h26M20 68h3M26 68h26M20 69h2M27 69h23M19 70h3M29 70h19M19 71h2M32 71h13M19 72h2M19 73h2M19 74h3M20 75h3" />
<path stroke="#b59473" d="M57 41h1M58 45h1M59 46h1" />
</svg>