<svg xmlns="http://www.w3.org/2000/svg" viewBox="0 -0.5 80 80" shape-rendering="crispEdges">
<metadata>Made with Pixels to Svg https://codepen.io/shshaw/pen/XbxvNj</metadata>
<path stroke="#c56310" d="M67 7h3M64 8h3M0 9h3M62 9h2M3 10h2M60 10h2M2 11h1M5 11h2M58 11h2M66 11h1M7 12h2M56 12h2M3 13h1M9 13h2M55 13h1M65 13h1M4 14h1M11 14h2M53 14h2M4 15h1M13 15h1M52 15h1M64 15h1M14 16h2M51 16h1M5 17h1M16 17h1M50 17h1M63 17h1M17 18h1M49 18h1M18 19h1M48 19h1M62 19h1M19 20h1M47 20h1M6 21h1M20 21h1M46 21h1M61 21h1M21 22h1M45 22h1M22 23h1M44 23h1M60 23h1M23 24h1M43 24h1M24 25h1M42 25h1M7 26h1M25 26h1M41 26h1M25 27h1M40 27h1M25 28h1M40 28h1M25 29h1M39 29h1M25 30h1M39 30h1M26 31h1M39 31h1M26 32h1M39 32h1M26 33h1M38 33h1M26 34h1M38 34h1M27 35h1M38 35h1M27 36h1M38 36h1M27 37h1M38 37h1M72 37h3M27 38h1M37 38h1M70 38h1M75 38h1M28 39h1M37 39h1M69 39h1M76 39h1M28 40h1M37 40h1M68 40h1M76 40h1M28 41h1M37 41h1M68 41h1M74 41h1M77 41h1M28 42h1M37 42h1M68 42h1M73 42h1M75 42h1M77 42h1M28 43h1M36 43h1M68 43h1M73 43h1M77 43h1M29 44h1M36 44h1M68 44h1M73 44h1M76 44h2M16 45h1M29 45h1M36 45h1M51 45h1M69 45h1M76 45h1M18 46h1M29 46h1M36 46h1M49 46h1M69 46h1M76 46h1M29 47h1M36 47h1M70 47h1M75 47h1M29 48h1M35 48h1M46 48h1M71 48h4M30 49h1M35 49h1M45 49h1M30 50h1M35 50h1M30 51h1M35 51h1M30 52h1M34 52h1M30 53h1M34 53h1M31 54h1M34 54h1M31 55h1M34 55h1M28 56h1M31 56h1M34 56h1M33 57h1M33 58h1M36 58h1" />
<path stroke="#ffb510" d="M67 8h2M64 9h4M2 10h1M62 10h3M3 11h2M60 11h3M5 12h2M58 12h3M6 13h3M56 13h2M7 14h4M55 14h1M9 15h3M53 15h2M11 16h3M52 16h1M12 17h3M51 17h1M14 18h3M50 18h1M15 19h3M49 19h1M16 20h3M48 20h1M17 21h3M47 21h1M18 22h3M46 22h1M19 23h3M45 23h1M20 24h3M44 24h1M21 25h3M43 25h1M22 26h3M42 26h1M41 27h1M72 39h1M75 39h1M71 40h2M75 40h1M70 41h1M69 43h1M75 43h1M69 44h1M70 46h1M75 46h1M74 47h1" />
<path stroke="#101010" d="M69 8h1M68 9h1M0 10h1M67 10h1M1 11h1M67 11h1M2 12h1M66 12h1M2 13h1M66 13h1M3 14h1M65 14h1M3 15h1M27 15h5M65 15h1M4 16h1M32 16h3M64 16h1M4 17h1M35 17h3M64 17h1M5 18h1M38 18h2M63 18h1M5 19h1M40 19h2M63 19h1M5 20h1M42 20h2M62 20h1M5 21h1M44 21h2M62 21h1M6 22h1M24 22h8M61 22h1M6 23h1M32 23h4M61 23h1M6 24h1M36 24h3M60 24h1M6 25h1M40 25h2M60 25h1M6 26h1M59 26h2M7 27h1M59 27h1M7 28h1M59 28h1M7 29h1M58 29h2M7 30h2M58 30h1M8 31h1M58 31h1M60 31h1M8 32h1M57 32h1M61 32h1M8 33h1M57 33h1M62 33h1M8 34h2M57 34h1M62 34h1M9 35h1M56 35h2M63 35h1M9 36h1M56 36h1M58 36h1M9 37h1M55 37h2M9 38h1M55 38h1M9 39h2M55 39h1M10 40h1M55 40h1M10 41h1M54 41h2M73 41h1M10 42h1M54 42h1M74 42h1M10 43h3M54 43h1M74 43h1M12 44h3M54 44h1M74 44h2M14 45h2M52 45h3M74 45h2M16 46h2M50 46h2M79 46h1M17 47h3M48 47h2M79 47h1M19 48h2M47 48h1M78 48h1M20 49h2M46 49h1M78 49h1M21 50h2M44 50h2M76 50h2M22 51h2M43 51h2M73 51h3M23 52h2M42 52h2M69 52h4M24 53h2M41 53h2M63 53h6M25 54h2M40 54h2M60 54h3M26 55h2M39 55h2M58 55h2M27 56h1M38 56h2M55 56h3M28 57h1M37 57h2M53 57h3M37 58h1M52 58h2M36 59h1M51 59h2M51 60h1M51 61h1M64 64h2M61 65h2M66 65h1M48 66h1M67 66h1M48 67h1M67 67h1M47 68h1M49 68h1M67 68h1M47 69h1M49 69h2M66 69h1M46 70h1M50 70h1M46 71h1M51 71h3M45 72h2M54 72h4M63 72h1M67 72h1M45 73h1M58 73h7M67 73h1M46 74h1M64 74h2M67 74h1M47 75h1M65 75h2" />
<path stroke="#e69c00" d="M1 10h1M65 10h2M63 11h3M3 12h2M61 12h2M64 12h2M4 13h2M58 13h3M63 13h2M5 14h2M56 14h3M62 14h3M5 15h2M12 15h1M55 15h2M62 15h2M5 16h3M53 16h3M61 16h3M6 17h2M15 17h1M52 17h2M61 17h2M6 18h2M51 18h2M60 18h3M6 19h2M50 19h2M60 19h2M6 20h3M49 20h2M59 20h3M7 21h2M48 21h2M59 21h2M7 22h2M47 22h2M58 22h3M7 23h2M46 23h2M58 23h2M7 24h3M45 24h2M58 24h2M7 25h3M44 25h2M57 25h3M8 26h2M43 26h2M57 26h2M8 27h2M23 27h2M42 27h2M57 27h2M8 28h2M23 28h2M41 28h2M56 28h3M8 29h3M23 29h2M40 29h2M56 29h2M9 30h2M23 30h2M40 30h2M56 30h2M9 31h2M24 31h2M40 31h2M55 31h3M9 32h3M24 32h2M40 32h1M55 32h2M9 33h3M24 33h2M39 33h2M55 33h2M10 34h2M24 34h2M39 34h2M54 34h3M10 35h2M25 35h2M39 35h2M54 35h2M10 36h2M25 36h2M39 36h1M54 36h2M10 37h3M25 37h2M39 37h1M53 37h2M10 38h3M25 38h2M38 38h2M53 38h2M11 39h2M26 39h2M38 39h2M53 39h2M11 40h2M26 40h2M38 40h2M52 40h3M11 41h3M26 41h2M38 41h1M52 41h2M71 41h2M75 41h2M11 42h5M26 42h2M38 42h1M52 42h2M70 42h3M76 42h1M13 43h5M26 43h2M37 43h2M51 43h3M70 43h3M76 43h1M15 44h4M27 44h2M37 44h2M49 44h5M70 44h3M17 45h4M27 45h2M37 45h2M47 45h4M70 45h4M19 46h3M27 46h2M37 46h1M46 46h3M71 46h4M20 47h3M27 47h2M37 47h1M44 47h4M21 48h3M27 48h2M36 48h2M43 48h3M22 49h3M28 49h2M36 49h2M42 49h3M23 50h3M28 50h2M36 50h2M41 50h3M24 51h3M28 51h2M36 51h1M40 51h3M25 52h5M35 52h2M39 52h3M26 53h4M35 53h2M38 53h3M27 54h4M35 54h5M28 55h3M35 55h4M29 56h2M35 56h3M29 57h1M34 57h3M34 58h2M34 59h2M34 60h1" />
<path stroke="#84bd63" d="M63 12h1M61 13h2M59 14h3M7 15h2M57 15h5M8 16h3M56 16h5M8 17h4M54 17h7M8 18h6M53 18h7M8 19h7M52 19h8M9 20h7M51 20h8M9 21h8M50 21h9M9 22h9M49 22h9M9 23h10M48 23h10M10 24h10M47 24h11M10 25h11M46 25h11M10 26h12M45 26h12M10 27h13M44 27h13M10 28h13M43 28h13M11 29h12M42 29h14M11 30h12M42 30h14M11 31h13M42 31h13M12 32h12M41 32h14M12 33h12M41 33h14M12 34h12M41 34h13M12 35h13M41 35h13M12 36h13M40 36h14M13 37h12M40 37h13M13 38h12M40 38h13M13 39h13M40 39h13M13 40h13M40 40h12M58 40h5M14 41h12M39 41h13M58 41h8M16 42h10M39 42h13M57 42h11M18 43h8M39 43h12M58 43h10M19 44h8M39 44h10M59 44h9M21 45h6M39 45h8M59 45h10M77 45h1M22 46h5M38 46h8M58 46h11M77 46h1M23 47h4M38 47h6M55 47h15M76 47h2M24 48h3M38 48h5M54 48h17M75 48h3M25 49h3M38 49h4M53 49h24M26 50h2M38 50h3M51 50h24M27 51h1M37 51h3M50 51h22M37 52h2M48 52h20M37 53h1M47 53h15M45 54h14M44 55h13M43 56h11M32 57h1M42 57h11M30 58h1M41 58h11M28 59h1M39 59h8M50 59h1M36 60h10M48 60h2M32 61h2M35 61h11M47 61h3M32 62h14M47 62h4M30 63h17M48 63h3M23 64h1M28 64h19M48 64h3M26 65h22M49 65h3M25 66h23M49 66h3M24 67h23M50 67h2M60 67h1M63 67h2M23 68h24M50 68h3M59 68h1M61 68h3M65 68h1M23 69h23M51 69h3M60 69h3M22 70h24M52 70h3M59 70h7M21 71h25M55 71h12M20 72h25M59 72h4M65 72h2M19 73h20M65 73h1M18 74h20M17 75h20" />
<path stroke="#317bde" d="M29 14h8M26 15h1M38 15h3M42 16h2M45 17h2M47 18h2M29 20h8M26 21h3M37 21h5M42 22h3M61 25h1M62 26h1M63 27h2M65 28h1M66 29h1M67 30h1M59 31h1M58 32h3M58 33h4M63 33h1M58 34h4M58 35h3M62 35h1M72 35h1M63 36h1M71 37h1M63 39h1M66 40h1M39 73h2M38 74h2M45 74h1M37 75h1M46 75h1" />
<path stroke="#085ab5" d="M32 15h1M35 16h1M38 17h1M40 18h1M42 19h1M44 20h1M32 22h1M36 23h1M39 24h2M59 30h2M61 31h1M68 31h1M62 32h1M69 32h1M70 33h1M63 34h1M71 34h1M61 35h1M73 35h1M59 36h2M74 36h1M59 37h1M75 37h1M58 38h1M58 39h5M63 40h3M66 41h2M55 68h1M41 73h4" />
<path stroke="#8cc5ff" d="M33 15h4M36 16h5M39 17h5M43 18h4M46 19h2M61 26h1M60 27h3M62 28h2M63 29h3M65 30h2M66 31h2M67 32h2M68 33h2M69 34h2M70 35h2M71 36h2" />
<path stroke="#529cff" d="M37 15h1M41 16h1M44 17h1M41 18h2M43 19h3M45 20h2M29 21h8M33 22h9M37 23h7M41 24h2M60 28h2M64 28h1M60 29h3M61 30h4M62 31h4M63 32h4M64 33h4M64 34h5M64 35h6M61 36h2M64 36h7M73 36h1M60 37h11M59 38h11M64 39h5M67 40h1M40 74h5M38 75h8" />
<path stroke="#ffd631" d="M71 38h4M70 39h2M69 40h2M69 41h1M69 42h1M71 47h3" />
<path stroke="#ffffff" d="M73 39h2M73 40h2M66 67h1M66 68h1M66 73h1" />
<path stroke="#4a6b19" d="M57 40h1M57 41h1M56 42h1M78 42h1M56 43h1M79 43h1M56 44h1M79 44h1M56 45h2M79 45h1M55 46h2M53 47h2M78 47h1M51 48h2M49 49h2M77 49h1M47 50h2M75 50h1M45 51h2M72 51h1M44 52h1M68 52h1M62 53h1M59 54h1M57 55h1M32 56h2M54 56h1M30 57h2M28 58h2M27 59h1M48 59h2M26 60h1M50 60h1M25 61h1M50 61h1M24 62h1M51 62h1M23 63h1M51 63h1M22 64h1M47 64h1M51 64h1M22 65h1M48 65h1M52 65h1M60 65h1M63 65h1M21 66h1M52 66h1M59 66h1M62 66h1M21 67h1M47 67h1M49 67h1M53 67h2M58 67h1M61 67h1M65 67h1M20 68h1M56 68h2M60 68h1M64 68h1M20 69h1M46 69h1M57 69h3M63 69h3M19 70h1M51 70h1M66 70h1M19 71h1M54 71h1M67 71h1M18 72h1M58 72h1M64 72h1M18 73h1M17 74h1M16 75h1" />
<path stroke="#adde73" d="M57 43h1M78 43h1M57 44h2M78 44h1M78 45h1M78 46h1M53 48h1M51 49h2M49 50h2M47 51h3M45 52h3M43 53h4M42 54h3M41 55h3M40 56h3M39 57h3M31 58h2M38 58h3M29 59h4M37 59h2M27 60h6M26 61h6M25 62h7M24 63h6M24 64h4M23 65h3M64 65h2M22 66h3M60 66h2M63 66h4M22 67h2M52 67h1M62 67h1M21 68h2M53 68h2M21 69h2M54 69h3M20 70h2M55 70h4M20 71h1M19 72h1M66 74h1" />
<path stroke="#739442" d="M58 45h1M57 46h1M33 59h1M47 59h1M33 60h1M35 60h1M46 60h2M34 61h1M46 61h1M46 62h1M47 63h1M59 67h1M58 68h1" />
</svg>