<svg xmlns="http://www.w3.org/2000/svg" viewBox="0 -0.5 80 80" shape-rendering="crispEdges">
<metadata>Made with Pixels to Svg https://codepen.io/shshaw/pen/XbxvNj</metadata>
<path stroke="#dead5a" d="M50 13h9M45 14h5M59 14h3M19 15h2M43 15h2M21 16h3M40 16h1M23 17h5M36 17h3M26 18h15M30 19h6M57 23h1M56 24h5M59 25h4M40 26h3M62 26h3M39 27h6M64 27h2M38 28h5M65 28h1M37 29h4M35 30h4M58 30h1M70 30h2M34 31h4M57 31h3M69 31h4M33 32h4M57 32h5M67 32h4M73 32h1M32 33h4M56 33h15M73 33h1M30 34h4M56 34h15M28 35h4M56 35h15M25 36h5M56 36h16M23 37h3M56 37h15M56 38h14M57 39h13M57 40h13M57 41h14M57 42h15M58 43h13M58 44h11M59 45h8M59 46h7M59 47h6M54 48h1M58 48h6M58 49h5M53 50h1M57 50h5M56 51h5M55 52h6M54 53h6M52 54h8M51 55h8M50 56h9M48 57h10M47 58h11M44 59h13M43 60h14M41 61h15M41 62h15M42 63h14M45 64h11M47 65h5M48 66h3" />
<path stroke="#a56b00" d="M18 14h2M18 15h1M21 15h3M19 16h1M24 16h4M28 17h3M25 18h1M29 19h1M59 23h2M61 24h2M68 24h1M40 25h1M68 25h1M38 26h1M68 26h1M37 27h1M69 27h2M36 28h1M71 28h1M35 29h1M72 29h1M34 30h1M73 30h1M33 31h1M73 31h1M32 32h1M74 32h1M30 33h2M28 34h2M25 35h3M78 35h1M23 36h2M78 36h1M22 37h1M77 37h1M22 38h1M76 39h1M76 40h1M75 41h1M56 42h1M73 42h2M56 43h1M72 43h1M70 44h2M69 45h1M66 47h1M64 48h2M63 49h2M62 50h1M57 59h1M57 60h1M57 61h1M56 62h1M56 63h1M56 64h1" />
<path stroke="#ffe663" d="M50 14h9M45 15h17M41 16h8M56 16h8M39 17h7M59 17h6M61 18h5M62 19h5M63 20h4M64 21h4M65 22h3M49 23h8M66 23h2M45 24h11M66 24h2M42 25h9M67 25h1M43 26h4M67 26h1M67 27h1M61 28h3M67 28h4M59 29h13M59 30h11M72 30h1M60 31h9M62 32h5M57 43h1M57 44h1M56 45h3M56 46h3M55 47h4M55 48h3M54 49h4M54 50h3M53 51h3M52 52h3M51 53h3M50 54h2M49 55h2M48 56h2M47 57h1M46 58h1" />
<path stroke="#c58c3a" d="M41 15h2M62 15h2M20 16h1M36 16h4M49 16h1M55 16h1M64 16h1M22 17h1M31 17h5M46 17h1M58 17h1M65 17h1M41 18h1M60 18h1M66 18h1M36 19h1M67 19h1M67 20h1M68 21h1M49 22h9M68 22h1M45 23h4M58 23h1M65 23h1M68 23h1M42 24h3M41 25h1M51 25h1M58 25h1M66 25h1M39 26h1M47 26h1M61 26h1M38 27h1M63 27h1M68 27h1M37 28h1M59 28h2M64 28h1M66 28h1M36 29h1M41 29h1M39 30h1M38 31h1M56 32h1M72 32h1M34 34h1M74 34h1M32 35h1M71 35h1M74 35h1M30 36h1M72 36h1M26 37h1M56 39h1M72 42h1M71 43h1M56 44h1M69 44h1M55 45h1M67 45h1M55 46h1M54 47h1M53 49h1M52 51h1M61 51h1M51 52h1M50 53h1M60 53h1M49 54h1M48 55h1M59 55h1M47 56h1M46 57h1M58 57h1M45 58h1M42 60h1M56 61h1" />
<path stroke="#101010" d="M50 16h5M20 17h2M47 17h3M55 17h3M22 18h3M42 18h5M58 18h2M25 19h4M37 19h5M60 19h2M29 20h8M61 20h2M62 21h2M63 22h2M64 23h1M65 24h1M52 25h6M63 25h3M48 26h4M58 26h3M65 26h2M45 27h3M61 27h2M66 27h1M43 28h3M42 29h2M58 29h1M40 30h2M57 30h1M39 31h1M56 31h1M37 32h2M71 32h1M36 33h2M55 33h1M71 33h1M35 34h2M55 34h1M71 34h1M73 34h1M33 35h2M55 35h1M72 35h2M31 36h2M55 36h1M27 37h4M55 37h1M23 38h4M55 38h1M55 39h1M55 40h2M56 41h1M68 45h1M66 46h2M65 47h1M63 50h1M62 51h1M61 52h1M61 53h1M60 54h1M60 55h1M59 56h1M59 57h1M44 58h1M58 58h1M42 59h2M41 60h1" />
<path stroke="#848494" d="M75 32h2M74 33h1M77 33h1M75 34h1M78 34h1M75 35h1M75 36h1M77 36h1M76 37h1M76 38h1M75 40h1M74 41h1M39 59h1M40 60h1M42 64h3M45 65h2M52 65h5M47 66h1M51 66h1" />
<path stroke="#eff7ff" d="M72 33h1M75 33h2M73 36h2M73 37h3M74 38h2M11 53h4M8 54h9M19 54h4M6 55h9M17 55h8M5 56h21M5 57h3M12 57h15M30 57h6M4 58h2M13 58h14M28 58h9M4 59h1M14 59h14M29 59h9M4 60h1M18 60h10M29 60h10M59 60h3M17 61h23M58 61h6M17 62h23M58 62h7M18 63h22M58 63h7M23 64h8M32 64h8M58 64h8M24 65h6M32 65h7M58 65h8M25 66h5M33 66h5M52 66h2M60 66h6" />
<path stroke="#842108" d="M72 34h1" />
<path stroke="#dedeef" d="M76 34h2M76 35h1M71 37h2M70 38h4M70 39h6M70 40h5M71 41h3M11 52h4M8 53h3M15 53h2M19 53h4M6 54h2M17 54h2M23 54h2M27 54h3M35 54h2M5 55h1M15 55h2M25 55h1M27 55h2M34 55h2M40 55h3M4 56h1M39 56h3M43 56h1M4 57h1M8 57h4M40 57h1M42 57h1M3 58h1M6 58h2M12 58h1M37 58h1M41 58h1M3 59h1M5 59h1M13 59h1M28 59h1M38 59h1M3 60h1M5 60h1M14 60h4M28 60h1M39 60h1M58 60h1M62 60h2M16 61h1M64 61h1M4 62h1M16 62h1M40 62h1M57 62h1M65 62h1M3 63h2M17 63h1M40 63h1M57 63h1M65 63h1M3 64h2M18 64h5M31 64h1M40 64h2M57 64h1M66 64h1M2 65h2M23 65h1M30 65h2M39 65h6M57 65h1M66 65h1M2 66h3M24 66h1M30 66h3M38 66h9M54 66h3M58 66h2M66 66h1" />
<path stroke="#bdbdd6" d="M77 35h1M76 36h1M30 54h1M37 54h1M26 55h1M29 55h3M33 55h1M36 55h3M43 55h3M26 56h4M36 56h3M42 56h1M44 56h3M27 57h1M38 57h2M41 57h1M43 57h3M8 58h4M27 58h1M39 58h2M42 58h2M6 59h7M40 59h2M6 60h8M3 61h1M5 61h11M5 62h11M5 63h12M5 64h13M4 65h19M5 66h19" />
<path stroke="#adb5c5" d="M27 53h4M35 53h3M26 54h1M31 54h1M33 54h2M38 54h1M40 54h7M32 55h1M39 55h1M46 55h2M30 56h6M28 57h2M36 57h2M38 58h1M58 59h4M4 61h1M40 61h1M3 62h1M2 63h1M41 63h1M2 64h1M1 65h1M1 66h1M57 66h1" />
</svg>