<svg xmlns="http://www.w3.org/2000/svg" viewBox="0 -0.5 80 80" shape-rendering="crispEdges">
<metadata>Made with Pixels to Svg https://codepen.io/shshaw/pen/XbxvNj</metadata>
<path stroke="#526384" d="M22 9h7M22 10h1M30 10h3M22 11h1M34 11h2M37 12h1M24 13h1M25 14h1M26 16h1M27 19h1M27 25h1M26 27h1M25 28h1M36 28h8M24 29h1M33 29h3M44 29h3M23 30h1M31 30h2M47 30h1M23 31h1M29 31h2M22 32h1M28 32h1M50 32h1M22 33h1M27 33h1M51 33h1M21 34h1M26 34h1M52 34h1M21 35h1M25 35h1M52 35h1M20 36h1M25 36h1M53 36h1M20 37h1M24 37h1M53 37h1M20 38h1M24 38h1M54 38h1M19 39h1M23 39h1M54 39h1M19 40h1M23 40h1M23 41h1M55 41h1M22 42h1M54 42h1M22 43h1M22 44h1M22 45h1M22 46h1M22 47h1M55 47h1M22 48h2M23 49h1M54 49h1M57 49h1M20 50h1M23 50h1M54 50h1M23 51h2M53 51h1M24 52h1M53 52h1M56 52h1M21 53h1M24 53h2M52 53h1M25 54h2M52 54h1M55 54h1M26 55h2M51 55h1M27 56h2M50 56h1M28 57h3M48 57h2M30 58h3M46 58h3M32 59h4M43 59h4M35 60h9" />
<path stroke="#8ccede" d="M23 10h6M26 11h7M31 12h5M33 13h5M35 14h5M37 15h4M41 16h2M43 17h1M44 18h1M45 19h1M46 20h1M47 21h1M47 22h2M48 23h2M48 24h2M47 25h4M48 26h4M48 27h4M51 28h2M52 29h1M52 30h2M51 31h3M51 32h4M52 33h3M53 34h3M53 35h3M54 36h2M54 37h3M55 38h2M55 39h2M55 40h3M56 41h2M56 42h2M56 43h2M56 44h2M56 45h2M56 46h2M56 47h2M55 48h3M55 49h2M55 50h2M54 51h3M54 52h2M53 53h3M53 54h2M52 55h3M51 56h3M50 57h3M49 58h3M49 59h2" />
<path stroke="#6373bd" d="M29 10h1M33 11h1M36 12h1M38 13h2M40 14h1M42 15h1M43 16h1M44 17h1M45 18h1M46 19h1M47 20h1M48 21h1M49 22h1M50 23h1M51 25h1M52 26h1M52 27h1M53 28h1M53 29h1M54 30h1M54 31h1M35 32h7M31 33h14M55 33h1M29 34h18M27 35h22M26 36h24M56 36h1M25 37h26M25 38h27M24 39h28M57 39h1M24 40h28M58 40h1M24 41h27M23 42h28M23 43h28M23 44h28M23 45h28M23 46h28M23 47h28M24 48h28M24 49h28M24 50h29M25 51h28M25 52h28M26 53h26M27 54h25M28 55h23M29 56h21M31 57h17M33 58h13M36 59h7" />
<path stroke="#84b5c5" d="M23 11h3M24 12h7M25 13h8M26 14h9M26 15h11M41 15h1M27 16h12M27 17h11M27 18h11M28 19h11M28 20h11M28 21h12M28 22h13M28 23h14M28 24h15M50 24h1M28 25h17M27 26h21M27 27h21M26 28h10M44 28h5M25 29h8M47 29h1M24 30h7M24 31h5M23 32h5M23 33h4M22 34h4M22 35h3M21 36h4M21 37h3M21 38h3M20 39h3M20 40h3M20 41h3M20 42h2M20 43h2M20 44h2M20 45h2M20 46h2M20 47h2M20 48h2M20 49h3M21 50h2M21 51h2M21 52h3M22 53h2M22 54h3M23 55h3M24 56h3M25 57h3M26 58h4M27 59h5M47 59h2M29 60h6M44 60h6M31 61h17M34 62h11" />
<path stroke="#3a425a" d="M23 12h1M23 13h1M24 14h1M25 15h1M25 16h1M26 17h1M26 18h1M26 19h1M27 20h1M27 21h1M27 22h1M27 23h1M27 24h1M26 25h1M26 26h1M25 27h1M55 32h1M56 34h1M56 35h1M57 37h1M57 38h1M19 41h1M58 41h1M19 42h1M58 42h1M19 43h1M54 43h1M58 43h1M19 44h1M54 44h2M58 44h1M19 45h1M54 45h2M58 45h1M19 46h1M55 46h1M58 46h1M19 47h1M58 47h1M19 48h1M58 48h1M19 49h1M58 49h1M19 50h1M57 50h1M20 51h1M57 51h1M20 52h1M57 52h1M20 53h1M56 53h1M21 54h1M56 54h1M21 55h2M55 55h1M22 56h2M54 56h2M23 57h2M53 57h2M24 58h2M52 58h2M25 59h2M51 59h3M25 60h4M50 60h2M54 60h1M28 61h3M48 61h3M30 62h4M45 62h4M33 63h13" />
<path stroke="#ceeff7" d="M39 16h2M38 17h1M42 17h1M38 18h1M39 20h1M46 21h1M47 23h1M43 24h1M47 24h1M45 25h2M49 28h2M48 29h1M51 29h1M48 30h1M51 30h1M49 31h2M53 38h1M52 39h2M53 40h2M53 41h2M55 42h1M55 43h1" />
<path stroke="#ffffff" d="M39 17h3M39 18h5M39 19h6M40 20h6M40 21h6M41 22h6M42 23h5M44 24h3M49 29h2M49 30h2" />
<path stroke="#738cd6" d="M36 29h8M33 30h14M31 31h18M29 32h6M42 32h8M28 33h3M45 33h6M27 34h2M47 34h5M26 35h1M49 35h3M50 36h3M51 37h2M52 38h1" />
<path stroke="#b5c5de" d="M52 40h1M51 41h2M51 42h3M51 43h3M51 44h3M51 45h3M51 46h4M51 47h4M52 48h3M52 49h2M53 50h1" />
<path stroke="#191919" d="M24 60h1M23 61h1M22 62h1M21 63h1M20 64h2M20 65h1M19 66h2M19 67h1M18 68h2M18 69h1M18 70h1M18 71h1" />
<path stroke="#948c94" d="M52 60h1M25 61h3M51 61h3M24 62h6M49 62h4M23 63h10M46 63h8M22 64h33M21 65h8M30 65h20M51 65h5M21 66h7M29 66h22M52 66h5M20 67h8M29 67h11M41 67h10M53 67h5M20 68h7M29 68h11M41 68h11M53 68h6M19 69h8M28 69h12M41 69h11M53 69h6M19 70h8M28 70h12M41 70h11M53 70h7M19 71h8M28 71h12M41 71h11M53 71h7" />
<path stroke="#5a5a52" d="M53 60h1M24 61h1M55 61h1M23 62h1M56 62h1M22 63h1M57 63h1M58 64h1M29 65h1M50 65h1M59 65h1M28 66h1M51 66h1M59 66h1M28 67h1M40 67h1M51 67h2M60 67h1M27 68h2M40 68h1M52 68h1M60 68h1M27 69h1M40 69h1M52 69h1M61 69h1M27 70h1M40 70h1M52 70h1M61 70h1M27 71h1M40 71h1M52 71h1M61 71h1" />
<path stroke="#c5c5c5" d="M54 61h1M53 62h3M54 63h3M55 64h3M56 65h3M57 66h2M58 67h2M59 68h1M59 69h2M60 70h1M60 71h1" />
</svg>