<svg xmlns="http://www.w3.org/2000/svg" viewBox="0 -0.5 80 80" shape-rendering="crispEdges">
<metadata>Made with Pixels to Svg https://codepen.io/shshaw/pen/XbxvNj</metadata>
<path stroke="#29523a" d="M34 11h3M45 11h3M30 12h2M50 12h3M27 13h2M54 13h2M25 14h1M57 14h1M23 15h2M59 15h1M22 16h1M21 17h1M20 18h1M20 19h1M19 20h1M37 20h11M19 21h1M29 21h1M35 21h2M48 21h2M19 22h1M30 22h2M34 22h1M50 22h1M64 22h1M19 23h1M31 23h3M51 23h1M53 23h1M64 23h1M19 24h1M33 24h4M51 24h2M64 24h1M10 25h6M19 25h1M37 25h14M64 25h1M10 26h2M16 26h9M42 26h5M63 26h1M11 27h2M26 27h17M63 27h1M12 28h2M62 28h1M14 29h2M61 29h1M15 30h3M59 30h2M17 31h4M57 31h2M20 32h4M53 32h4M24 33h4M48 33h5M28 34h20M32 35h3M57 35h1M35 36h5M54 36h3M39 37h15M63 38h1M63 39h1M62 40h1M20 41h1M62 41h1M21 42h1M61 42h1M21 43h1M60 43h1M22 44h1M61 44h1M22 45h1M17 50h1M21 50h1M16 51h1M21 51h1M62 51h1M15 52h1M22 52h1M62 52h1M22 53h1M61 53h1M18 54h6M66 54h1M16 55h2M23 55h3M15 56h1M25 56h2M29 56h8M14 57h1M27 57h2M37 57h2M54 57h1M13 58h1M26 58h1M39 58h1M53 58h1M12 59h1M25 59h1M40 59h1M52 59h1M12 60h1M24 60h1M41 60h1M51 60h1M11 61h1M23 61h1M42 61h1M50 61h1M11 62h1M23 62h1M42 62h1M50 62h1M11 63h1M22 63h1M43 63h1M49 63h1M54 63h1M11 64h1M22 64h1M34 64h1M43 64h1M49 64h1M54 64h1M11 65h1M22 65h1M35 65h1M43 65h1M49 65h1M53 65h1M11 66h1M22 66h1M35 66h1M43 66h1M49 66h1M53 66h1M11 67h2M22 67h1M35 67h1M43 67h1M49 67h1M53 67h1" />
<path stroke="#52736b" d="M37 11h8M32 12h2M48 12h2M29 13h1M53 13h1M26 14h1M56 14h1M58 15h1M60 16h1M61 17h1M21 18h1M62 18h1M30 19h1M63 19h1M20 20h1M29 20h1M36 20h1M48 20h1M63 20h1M30 21h1M34 21h1M50 21h1M64 21h1M29 22h1M33 22h1M51 22h1M53 22h1M30 23h1M52 23h1M32 24h1M50 24h1M20 25h1M36 25h1M51 25h1M63 25h1M41 26h1M47 26h1M24 27h2M43 27h1M62 27h1M14 28h1M61 28h1M60 29h1M37 30h9M58 30h1M35 31h14M56 31h1M61 31h1M24 32h1M33 32h18M52 32h1M62 32h1M21 33h1M28 33h1M32 33h16M62 33h1M20 34h1M48 34h6M63 34h1M20 35h1M35 35h20M56 35h1M63 35h1M20 36h1M40 36h14M63 36h1M20 37h1M63 37h1M20 38h1M20 39h1M62 39h1M20 40h1M21 41h1M61 41h1M60 42h1M22 43h1M23 44h1M61 45h1M22 46h1M62 46h1M21 47h1M62 47h1M21 48h1M62 48h1M19 49h3M62 49h1M18 50h1M62 50h1M22 51h1M63 51h1M61 52h1M64 52h1M15 53h1M23 53h1M65 53h1M14 54h1M60 54h1M14 55h1M18 55h1M66 55h1M14 56h1M16 56h1M56 56h7M67 56h1M29 57h8M55 57h1M63 57h2M67 57h1M27 58h1M32 58h7M65 58h1M67 58h1M13 59h1M33 59h7M51 59h1M66 59h2M35 60h6M49 60h2M67 60h1M12 61h1M24 61h1M38 61h4M46 61h4M51 61h1M68 61h1M43 62h7M68 62h1M23 63h1M42 63h1M44 63h5M50 63h1M69 63h1M44 64h5M53 64h1M69 64h1M34 65h1M44 65h5M69 65h1M44 66h5M69 66h1M44 67h5M69 67h1" />
<path stroke="#8ccead" d="M34 12h14M30 13h23M27 14h8M47 14h9M25 15h6M52 15h6M26 16h2M56 16h4M58 17h3M60 18h2M61 19h2M62 20h1M62 21h2M63 22h1M63 23h1M63 24h1M62 25h1M62 26h1M61 27h1M59 31h2M60 32h2M22 33h1M61 33h1M21 34h2M61 34h2M21 35h1M62 35h1M21 36h1M62 36h1M21 37h1M62 37h1M21 38h1M61 38h2M21 39h1M61 39h1M21 40h1M61 40h1M22 41h1M60 41h1M22 42h1M59 42h1M23 43h1M59 43h1M59 44h2M23 45h1M60 45h1M60 46h2M22 47h1M61 47h1M22 48h1M61 48h1M22 49h1M61 49h1M19 50h2M22 50h1M61 50h1M17 51h4M23 51h1M61 51h1M16 52h5M23 52h1M60 52h1M63 52h1M16 53h1M60 53h1M62 53h3M15 54h1M24 54h1M59 54h1M61 54h5M15 55h1M58 55h8M63 56h4M56 57h6M65 57h2M54 58h10M66 58h1M53 59h1M59 59h7M52 60h1M59 60h8M60 61h7M61 62h7M63 63h5M67 64h2M68 65h1M68 66h1M68 67h1" />
<path stroke="#73a58c" d="M35 14h12M31 15h21M23 16h3M28 16h28M22 17h36M22 18h38M21 19h9M31 19h30M21 20h8M30 20h6M49 20h13M20 21h9M31 21h3M37 21h11M51 21h11M20 22h9M32 22h1M35 22h15M52 22h1M54 22h9M20 23h10M34 23h17M54 23h9M20 24h12M37 24h13M53 24h10M21 25h15M52 25h10M12 26h4M25 26h16M48 26h14M13 27h11M44 27h17M15 28h46M16 29h44M18 30h19M46 30h12M21 31h14M49 31h7M25 32h8M51 32h1M57 32h3M23 33h1M29 33h3M53 33h8M23 34h5M54 34h7M22 35h8M55 35h1M58 35h4M22 36h7M57 36h5M22 37h6M56 37h6M22 38h6M56 38h5M22 39h5M57 39h4M22 40h5M57 40h4M23 41h4M57 41h3M23 42h3M58 42h1M24 43h2M58 43h1M24 44h2M58 44h1M24 45h2M58 45h2M23 46h3M58 46h2M23 47h3M58 47h3M23 48h3M58 48h3M23 49h3M57 49h4M23 50h3M57 50h4M24 51h3M57 51h4M21 52h1M24 52h3M57 52h3M17 53h5M24 53h4M56 53h4M16 54h2M25 54h3M56 54h3M19 55h4M26 55h3M55 55h3M17 56h8M27 56h2M54 56h2M15 57h12M53 57h1M62 57h1M14 58h12M28 58h4M52 58h1M64 58h1M14 59h11M26 59h7M54 59h5M13 60h11M25 60h10M53 60h6M13 61h10M25 61h13M52 61h8M67 61h1M12 62h11M24 62h18M51 62h10M12 63h10M24 63h18M51 63h3M55 63h8M68 63h1M12 64h10M23 64h11M35 64h8M50 64h3M55 64h12M12 65h10M23 65h11M36 65h7M50 65h3M54 65h14M12 66h10M23 66h12M36 66h7M50 66h3M54 66h14M13 67h9M23 67h12M36 67h7M50 67h3M54 67h14" />
<path stroke="#634a73" d="M30 35h1M29 36h1M28 37h1M55 37h1M28 38h1M55 38h1M27 39h1M56 39h1M27 40h1M56 40h1M27 41h1M56 41h1M26 42h1M26 43h1M26 44h1M26 45h1M26 46h1M26 47h1M57 47h1M26 48h1M57 48h1M26 49h1M56 49h1M26 50h2M56 50h1M27 51h1M56 51h1M27 52h2M56 52h1M28 53h1M55 53h1M28 54h2M55 54h1M29 55h1M54 55h1M53 56h1M52 57h1M50 58h2M48 59h3M45 60h4M43 61h3" />
<path stroke="#7b52bd" d="M31 35h1M30 36h5M29 37h10M54 37h1M29 38h26M28 39h28M28 40h27M28 41h27M27 42h27M27 43h27M27 44h27M27 45h27M27 46h27M27 47h27M27 48h27M27 49h28M28 50h27M28 51h28M29 52h27M29 53h26M30 54h25M30 55h24M37 56h16M39 57h13M40 58h10M41 59h7M42 60h3" />
<path stroke="#9c9cc5" d="M55 40h1M55 41h1M54 42h3M54 43h2M54 44h2M54 45h2M54 46h3M54 47h3M54 48h3M55 49h1M55 50h1" />
<path stroke="#4a524a" d="M57 42h1M56 43h1M57 45h1" />
<path stroke="#c5b5ff" d="M57 43h1M57 44h1" />
<path stroke="#191919" d="M56 44h1M56 45h1M57 46h1" />
</svg>