<svg xmlns="http://www.w3.org/2000/svg" viewBox="0 -0.5 80 80" shape-rendering="crispEdges">
<metadata>Made with Pixels to Svg https://codepen.io/shshaw/pen/XbxvNj</metadata>
<path stroke="#94634a" d="M35 8h1M34 9h1M36 9h1M45 9h1M34 10h1M37 10h1M45 10h1M33 11h1M38 11h1M42 11h1M45 11h1M33 12h1M41 12h1M45 12h1M32 13h1M45 13h1M25 14h5M32 14h1M45 14h1M30 15h3M45 15h1M45 16h1M45 17h1M46 19h1M21 20h4M46 20h1M18 21h4M46 21h1M46 22h1M46 23h1M47 24h2M50 25h1M51 26h1M52 27h1M53 28h1M20 29h1M54 29h1M19 30h1M55 30h1M18 31h1M17 32h1M56 32h1M16 33h1M56 33h1M57 34h1M19 35h1M58 35h1M55 36h4M22 37h1M53 37h2M51 38h2M66 38h2M49 39h2M65 39h1M23 40h1M48 40h1M64 40h1M69 40h3M47 41h1M67 41h2M46 42h1M16 43h1M24 43h1M20 44h1M22 45h1M70 45h1M71 46h1M9 58h3M8 61h1" />
<path stroke="#42635a" d="M22 9h3M22 10h1M25 10h1M22 11h1M26 11h1M21 12h2M27 12h1M21 13h1M28 13h1M21 14h1M21 15h1M14 16h8M14 17h1M14 18h2M15 19h1M15 20h2M16 21h1M16 22h2M14 23h4M11 24h3M10 25h1M11 26h1M12 27h1M13 28h1M14 29h1M44 29h1M13 31h1M12 32h1M11 33h1M46 33h1M10 34h1M11 36h1M18 36h1M13 37h1M18 37h2M15 38h1M18 38h2M56 38h1M14 39h1M19 39h1M13 40h1M19 40h1M55 40h1M12 41h1M19 41h2M64 41h3M20 42h1M63 42h1M67 42h1M61 43h1M68 43h1M59 44h2M68 44h1M56 45h2M68 45h1M53 46h2M33 47h3M49 47h3M36 48h2M44 48h1M48 48h1M37 49h1M41 49h1M26 50h1M62 50h1M27 51h1M34 51h1M33 55h1M18 56h1M46 56h1M16 57h1M25 57h1M43 57h1M14 58h2M35 58h2M46 58h1M12 59h2M35 59h1M47 59h1M11 60h1M24 60h4M47 60h1M10 61h1M23 61h1M28 61h1M48 61h1M10 62h1M22 62h1M29 62h1M48 62h1M11 63h1M17 63h1M21 63h1M30 64h1M20 65h1M28 67h2M31 67h1M27 68h2M30 68h1M32 68h1M50 68h1M27 69h1M30 69h1M50 69h1M27 70h1M30 70h1M50 70h1M27 71h1M30 71h1M50 71h1" />
<path stroke="#ffef84" d="M35 9h1M36 10h1M44 10h1M37 11h1M43 11h2M38 12h1M42 12h3M39 13h1M41 13h2M44 13h1M40 14h1M44 14h1M27 15h2M44 15h1M29 16h3M44 16h1M44 17h1M44 18h1M44 19h2M45 20h1M45 21h1M45 22h1M45 23h1M45 24h2M46 25h3M46 26h5M48 27h4M51 28h2M52 29h2M53 30h2M54 31h1M55 32h1M55 33h1M55 34h1M54 35h4M66 39h1M65 40h1M69 41h2M10 59h2" />
<path stroke="#c58c42" d="M44 9h1M43 10h1M34 11h1M39 12h1M33 13h1M40 13h1M33 14h1M45 18h2M20 23h1M21 24h1M23 24h1M20 25h1M22 25h1M24 25h1M49 25h1M21 26h1M23 26h1M25 26h1M27 26h1M21 27h2M24 27h1M26 27h1M28 27h1M22 28h4M27 28h1M22 29h5M28 29h1M21 30h7M20 31h8M55 31h1M19 32h9M18 33h10M18 34h10M56 34h1M20 35h8M21 36h6M23 37h4M55 37h2M23 38h4M53 38h3M23 39h4M51 39h3M24 40h3M49 40h3M24 41h3M48 41h2M12 42h5M24 42h3M47 42h2M17 43h5M25 43h2M45 43h3M21 44h6M23 45h5M25 46h3M26 47h2M27 48h2M12 64h1" />
<path stroke="#5abd73" d="M23 10h2M24 11h2M26 12h1M27 13h1M15 17h5M39 19h4M37 20h6M35 21h8M33 22h11M32 23h12M31 24h13M31 25h11M30 26h11M30 27h10M43 27h3M29 28h11M42 28h5M29 29h10M42 29h2M49 29h1M29 30h10M41 30h3M47 30h1M50 30h1M28 31h11M41 31h3M47 31h1M50 31h3M28 32h11M41 32h3M47 32h1M50 32h4M28 33h11M41 33h3M47 33h1M50 33h5M28 34h11M42 34h6M50 34h5M28 35h12M42 35h5M49 35h5M28 36h12M43 36h3M49 36h3M27 37h14M48 37h2M27 38h15M47 38h1M27 39h20M27 40h19M54 40h1M27 41h19M51 41h4M27 42h18M49 42h5M27 43h18M48 43h5M66 43h2M28 44h24M65 44h3M28 45h23M64 45h4M28 46h22M62 46h5M29 47h3M36 47h13M60 47h6M29 48h3M33 48h2M38 48h6M57 48h8M26 49h1M29 49h3M33 49h4M39 49h2M45 49h5M54 49h10M27 50h6M34 50h28M23 51h3M28 51h4M35 51h26M24 52h3M28 52h2M33 52h26M25 53h2M28 53h2M31 53h25M24 54h7M33 54h20M22 55h10M34 55h15M24 56h8M33 56h13M26 57h5M32 57h11M21 58h2M24 58h6M31 58h4M38 58h7M18 59h4M23 59h7M36 59h9M16 60h6M28 60h17M11 61h11M24 61h3M29 61h16M11 62h10M23 62h6M30 62h16M12 63h5M22 63h5M31 63h11M43 63h3M21 64h5M31 64h4M36 64h5M44 64h2M21 65h5M32 65h2M37 65h3M20 66h5M32 66h1M38 66h1M20 67h5M19 68h6M19 69h5M36 69h1M42 69h2M19 70h5M33 70h1M35 70h3M41 70h4M46 70h1M19 71h5M33 71h6M40 71h7" />
<path stroke="#e6ad4a" d="M35 10h1M35 11h2M34 12h4M34 13h5M43 13h1M34 14h6M41 14h3M25 15h2M29 15h1M33 15h11M25 16h4M32 16h12M25 17h19M25 18h19M25 19h13M43 19h1M25 20h11M43 20h2M22 21h12M43 21h2M19 22h14M44 22h1M19 23h1M21 23h11M44 23h1M20 24h1M22 24h1M24 24h7M44 24h1M21 25h1M23 25h1M25 25h5M42 25h4M22 26h1M24 26h1M26 26h1M28 26h2M41 26h5M23 27h1M25 27h1M27 27h1M40 27h3M46 27h2M26 28h1M28 28h1M40 28h2M47 28h2M21 29h1M27 29h1M39 29h3M47 29h2M20 30h1M39 30h2M48 30h2M19 31h1M39 31h2M48 31h2M18 32h1M39 32h2M48 32h2M17 33h1M39 33h2M48 33h2M39 34h3M48 34h2M40 35h2M47 35h2M40 36h3M46 36h3M52 36h3M41 37h7M50 37h3M42 38h5M48 38h3M47 39h2M46 40h2M66 40h1M46 41h1M45 42h1M68 42h3M69 43h1M69 45h1M68 46h3M10 60h1M8 62h2M9 63h2M11 64h1M11 65h1" />
<path stroke="#5a9473" d="M23 11h1M23 12h3M22 13h5M22 14h2M22 15h2M22 16h2M20 17h4M16 18h8M16 19h8M38 19h1M17 20h4M36 20h1M17 21h1M34 21h1M14 24h4M11 25h8M30 25h1M12 26h7M13 27h7M29 27h1M14 28h6M15 29h5M46 29h1M15 30h4M28 30h1M14 31h4M13 32h4M12 33h4M44 33h1M11 34h5M10 35h7M12 36h6M27 36h1M14 37h4M16 38h2M20 38h2M15 39h4M20 39h3M54 39h2M14 40h5M20 40h3M52 40h2M13 41h6M21 41h3M50 41h1M17 42h3M21 42h3M64 42h1M22 43h2M62 43h1M27 44h1M58 45h1M23 46h2M55 46h1M24 47h2M28 47h1M52 47h1M25 48h2M35 48h1M27 49h2M38 49h1M27 52h1M32 52h1M27 53h1M32 54h1M20 55h1M19 56h1M23 56h1M17 57h1M37 58h1M27 61h1M27 63h3M26 64h4M26 65h5M25 66h6M25 67h3M30 67h1M25 68h2M29 68h1M31 68h1M24 69h3M28 69h2M31 69h1M24 70h3M28 70h2M31 70h1M24 71h3M28 71h2M31 71h1" />
<path stroke="#101010" d="M24 14h1M24 15h1M24 16h1M24 17h1M24 18h1M24 19h1M18 22h1M18 23h1M18 24h2M19 25h1M10 26h1M19 26h2M11 27h1M20 27h1M12 28h1M20 28h2M13 29h1M45 29h1M14 30h1M44 30h1M46 30h1M44 31h1M46 31h1M44 32h1M46 32h1M45 33h1M16 34h2M9 35h1M17 35h2M9 36h2M19 36h2M11 37h2M20 37h2M57 37h1M13 38h2M22 38h1M57 38h1M56 39h1M67 39h1M56 40h1M67 40h1M55 41h1M71 41h1M11 42h1M54 42h2M71 42h1M11 43h5M53 43h2M70 43h2M15 44h5M52 44h2M69 44h2M19 45h3M51 45h2M22 46h1M50 46h2M67 46h1M22 47h2M32 47h1M66 47h6M23 48h2M32 48h1M45 48h3M65 48h2M24 49h2M32 49h1M42 49h3M64 49h2M22 50h4M33 50h1M63 50h2M22 51h1M26 51h1M32 51h2M61 51h2M22 52h2M30 52h2M59 52h3M23 53h2M30 53h1M56 53h4M22 54h2M31 54h1M53 54h4M21 55h1M32 55h1M49 55h5M21 56h2M32 56h1M47 56h3M23 57h2M31 57h1M44 57h3M23 58h1M30 58h1M9 59h1M22 59h1M30 59h5M9 60h1M22 60h2M9 61h1M22 61h1M7 62h1M21 62h1M7 63h2M18 63h3M30 63h1M8 64h3M13 64h5M20 64h1M10 65h1M12 65h2M19 65h1M31 65h1M10 66h3M19 66h1M31 66h1M18 67h2M18 68h1M18 69h1M32 69h1M18 70h1M32 70h1M18 71h1M32 71h1" />
<path stroke="#7bd684" d="M49 28h2M50 29h2M51 30h2M53 31h1M54 32h1M65 42h2M63 43h3M61 44h4M59 45h5M56 46h6M53 47h7M49 48h8M50 49h4M20 56h1M18 57h5M16 58h5M45 58h1M14 59h4M45 59h2M12 60h4M45 60h2M45 61h3M46 62h2M46 63h1M48 68h2M47 69h3M47 70h3M47 71h3" />
<path stroke="#ffffff" d="M45 30h1M45 31h1M45 32h1" />
<path stroke="#526bd6" d="M42 63h1M35 64h1M41 64h3M46 64h1M34 65h3M40 65h7M33 66h5M39 66h8M32 67h15M33 68h14M33 69h3M37 69h5M44 69h3M34 70h1M38 70h3M45 70h1M39 71h1" />
<path stroke="#6b94ef" d="M47 63h1M47 64h2M47 65h2M47 66h2M47 67h2M47 68h1" />
<path stroke="#3a52ad" d="M48 63h1M49 64h1M49 65h1M49 66h1M49 67h1" />
</svg>