<svg xmlns="http://www.w3.org/2000/svg" viewBox="0 -0.5 80 80" shape-rendering="crispEdges">
<metadata>Made with Pixels to Svg https://codepen.io/shshaw/pen/XbxvNj</metadata>
<path stroke="#6b317b" d="M36 10h7M46 10h6M33 11h3M43 11h3M52 11h2M32 12h1M46 12h2M54 12h1M30 13h2M48 13h2M66 13h1M28 14h2M50 14h1M65 14h1M67 14h1M27 15h1M51 15h1M64 15h1M68 15h1M26 16h1M52 16h1M57 16h4M62 16h2M69 16h1M25 17h1M53 17h4M60 17h2M68 17h2M24 18h1M54 18h1M68 18h1M71 18h1M23 19h1M54 19h2M68 19h1M70 19h1M72 19h1M22 20h1M55 20h1M67 20h3M72 20h1M22 21h1M55 21h1M73 21h1M21 22h1M56 22h1M73 22h3M21 23h1M56 23h1M75 23h1M20 24h1M75 24h1M20 25h1M76 25h1M20 26h1M75 26h2M11 27h1M19 27h1M74 27h2M9 28h2M12 28h1M19 28h1M70 28h4M7 29h2M13 29h1M19 29h1M71 29h1M6 30h1M14 30h5M72 30h3M5 31h1M18 31h1M59 31h1M75 31h1M5 32h2M17 32h1M59 32h1M76 32h1M6 33h1M16 33h1M60 33h1M75 33h2M7 34h1M15 34h1M60 34h1M74 34h1M7 35h1M14 35h1M60 35h1M75 35h1M7 36h3M13 36h1M61 36h1M68 36h1M74 36h2M5 37h1M10 37h3M61 37h1M67 37h1M69 37h2M72 37h2M4 38h1M6 38h1M9 38h2M62 38h1M67 38h1M70 38h3M3 39h1M7 39h2M63 39h1M68 39h1M2 40h1M55 40h2M60 40h4M68 40h1M2 41h1M55 41h1M57 41h2M60 41h1M68 41h1M2 42h1M55 42h1M58 42h2M67 42h1M2 43h1M56 43h1M64 43h1M67 43h1M3 44h2M57 44h4M4 45h2M7 45h2M61 45h1M5 46h3M9 46h1M60 46h1M9 47h1M57 47h3M5 48h1M8 48h2M52 48h1M57 48h1M4 49h1M6 49h2M53 49h2M57 49h1M3 50h1M53 50h1M55 50h3M64 50h1M3 51h1M54 51h1M64 51h1M2 52h1M55 52h1M64 52h1M2 53h1M55 53h1M2 54h2M5 54h1M56 54h1M3 55h2M13 55h1M57 55h1M66 55h1M3 56h1M13 56h1M49 56h2M55 56h2M3 57h1M12 57h1M48 57h2M51 57h3M55 57h1M3 58h2M12 58h1M48 58h1M53 58h2M5 59h3M11 59h2M47 59h1M7 60h1M10 60h2M47 60h1M65 60h1M7 61h3M11 61h1M39 61h2M48 61h1M65 61h1M11 62h1M22 62h1M37 62h2M40 62h1M49 62h1M65 62h1M10 63h1M22 63h2M36 63h1M41 63h1M47 63h3M10 64h4M22 64h1M24 64h3M37 64h1M40 64h1M47 64h1M13 65h1M16 65h2M22 65h1M25 65h1M36 65h2M40 65h1M45 65h3M68 65h1M13 66h1M16 66h1M18 66h2M21 66h1M24 66h1M36 66h1M41 66h2M45 66h1M13 67h3M19 67h3M24 67h2M34 67h2M42 67h3M69 67h1M25 68h1M30 68h1M35 68h1M70 68h1M11 69h1M26 69h1M29 69h2M35 69h1M71 69h1M27 70h2M31 70h1M36 70h1M72 70h1M32 71h2M35 71h2M73 71h1M33 72h3M74 72h1M74 73h2M75 74h1M75 75h2M76 76h1M76 77h2M77 78h1M77 79h1" />
<path stroke="#ffffff" d="M36 11h7M34 12h12M32 13h16M30 14h20M66 14h1M29 15h22M65 15h3M27 16h25M64 16h5M26 17h21M49 17h4M57 17h3M62 17h6M25 18h3M32 18h13M51 18h3M55 18h13M24 19h2M34 19h9M52 19h2M56 19h12M71 19h1M23 20h2M53 20h2M56 20h11M70 20h2M23 21h1M54 21h1M58 21h4M64 21h9M22 22h1M55 22h1M58 22h3M64 22h9M22 23h1M60 23h1M64 23h3M70 23h5M64 24h4M72 24h3M65 25h4M73 25h3M67 26h2M74 26h1M11 28h1M10 29h3M11 30h3M11 31h7M12 32h5M18 32h1M13 33h3M17 33h1M16 34h2M15 35h2M14 36h3M13 37h4M5 38h1M11 38h6M5 39h2M9 39h9M5 40h14M5 41h13M6 42h3M10 42h3M15 42h1M11 43h2" />
<path stroke="#e6adf7" d="M46 11h6M50 12h4M52 13h3M53 14h2M62 45h2M62 46h3M62 47h3M63 48h2M64 49h1M63 54h2M63 55h3M64 56h2M65 57h1M62 62h2M62 63h4M63 64h4M63 65h4M63 66h5M64 67h5M64 68h6M65 69h5M65 70h6M66 71h7M67 72h7M68 73h6M69 74h6M69 75h6M70 76h6M70 77h6M71 78h6M71 79h6" />
<path stroke="#b5bdce" d="M33 12h1M28 15h1M58 27h2M58 28h3M58 29h3M62 29h1M59 30h5M60 31h4M60 32h4M61 33h4M69 33h2M61 34h4M68 34h4M61 35h12M62 36h6M69 36h4M62 37h5M71 37h1M63 38h4M64 39h4M64 40h4M63 41h4M64 42h3M65 43h2M65 45h1M51 46h3M66 46h1M50 47h5M16 48h5M50 48h2M53 48h1M16 49h5M49 49h4M14 50h8M49 50h4M13 51h9M41 51h3M50 51h4M10 52h12M40 52h5M50 52h5M9 53h12M27 53h4M39 53h7M48 53h7M9 54h11M27 54h4M39 54h17M10 55h3M14 55h6M27 55h6M40 55h17M10 56h3M14 56h5M28 56h7M40 56h9M52 56h3M8 57h4M13 57h6M22 57h2M28 57h8M40 57h8M54 57h1M6 58h6M13 58h7M22 58h3M27 58h9M40 58h7M8 59h3M13 59h13M27 59h20M8 60h2M13 60h34M12 61h26M41 61h7M12 62h10M23 62h13M42 62h7M11 63h11M25 63h11M42 63h5M14 64h8M27 64h10M41 64h6M14 65h2M19 65h2M26 65h10M42 65h3M14 66h1M20 66h1M25 66h10M43 66h1M26 67h8M27 68h3M31 68h4M27 69h1M32 69h3M33 70h3M34 71h1" />
<path stroke="#c584de" d="M48 12h2M50 13h2M51 14h2M55 14h1M52 15h4M53 16h4M56 41h1M61 41h1M56 42h2M60 42h3M57 43h6M61 44h3M61 46h1M60 47h2M61 48h2M63 49h1M54 50h1M58 50h2M55 51h7M56 52h7M56 53h9M57 54h6M58 55h5M60 56h4M50 57h1M62 57h3M49 58h4M55 58h3M63 58h3M48 59h12M65 59h1M48 60h14M49 61h15M39 62h1M50 62h12M64 62h1M37 63h4M50 63h12M23 64h1M38 64h2M48 64h15M12 65h1M23 65h2M38 65h2M48 65h15M67 65h1M12 66h1M17 66h1M22 66h2M37 66h4M46 66h17M68 66h1M12 67h1M16 67h3M22 67h2M36 67h6M45 67h19M12 68h13M36 68h28M12 69h14M36 69h29M70 69h1M11 70h16M29 70h2M37 70h28M71 70h1M11 71h21M37 71h29M11 72h22M36 72h31M11 73h57M11 74h58M11 75h58M11 76h59M11 77h59M12 78h59M12 79h59" />
<path stroke="#101010" d="M55 13h1M56 14h1M56 15h1M62 41h1M63 42h1M63 43h1M64 44h3M64 45h1M66 45h1M65 46h1M67 46h1M65 47h2M68 47h1M65 48h1M68 48h1M65 49h1M69 49h1M69 50h1M70 51h1M70 52h1M75 52h1M65 53h1M70 53h1M75 53h1M65 54h1M71 54h1M75 54h1M71 55h1M75 55h1M66 56h1M71 56h1M75 56h1M66 57h1M72 57h1M75 57h1M66 58h1M72 58h1M75 58h1M66 59h1M72 59h1M75 59h1M72 60h1M74 60h1M72 61h1M74 61h1M66 62h1M72 62h2M66 63h1M67 64h1M11 65h1M11 66h1M11 67h1M11 68h1M10 69h1M10 70h1M10 71h1M10 72h1M10 73h1M10 74h1M10 75h1M10 76h1M10 77h1M10 78h2M11 79h1" />
<path stroke="#dedef7" d="M47 17h2M28 18h4M45 18h6M26 19h8M43 19h9M25 20h28M24 21h30M56 21h2M62 21h2M23 22h32M57 22h1M61 22h3M23 23h33M57 23h3M61 23h3M67 23h3M21 24h43M68 24h4M21 25h44M69 25h4M21 26h46M69 26h5M20 27h38M60 27h13M20 28h38M61 28h9M9 29h1M20 29h38M61 29h1M63 29h8M7 30h4M19 30h40M64 30h8M6 31h5M19 31h40M64 31h11M7 32h5M19 32h40M64 32h12M8 33h5M18 33h42M65 33h4M71 33h4M8 34h7M18 34h42M65 34h3M72 34h2M8 35h6M17 35h43M73 35h2M11 36h2M17 36h44M17 37h44M17 38h45M4 39h1M18 39h45M3 40h2M19 40h36M58 40h2M3 41h2M18 41h37M59 41h1M3 42h3M9 42h1M13 42h2M16 42h39M4 43h7M13 43h42M5 44h52M6 45h1M9 45h52M10 46h41M54 46h6M10 47h40M55 47h2M10 48h6M21 48h29M54 48h3M58 48h3M5 49h1M8 49h8M21 49h28M56 49h1M58 49h5M4 50h10M22 50h27M60 50h4M4 51h9M22 51h19M44 51h6M62 51h2M3 52h7M22 52h18M45 52h5M63 52h1M3 53h6M21 53h6M31 53h8M46 53h2M4 54h1M6 54h3M20 54h7M31 54h8M5 55h5M20 55h7M33 55h7M4 56h6M19 56h9M35 56h5M57 56h3M4 57h4M19 57h3M24 57h4M36 57h4M56 57h6M20 58h2M25 58h2M36 58h4M58 58h5M26 59h1M60 59h5M62 60h3M64 61h1" />
<path stroke="#ad63ad" d="M73 27h1M7 33h1M10 36h1M73 36h1M57 40h1M67 41h1M3 43h1M55 43h1M55 49h1M51 56h1M5 58h1M47 58h1M12 60h1M38 61h1M36 62h1M41 62h1M24 63h1M18 65h1M21 65h1M41 65h1M15 66h1M35 66h1M44 66h1M26 68h1M28 69h1M31 69h1M32 70h1" />
<path stroke="#ffffa5" d="M68 37h1M68 38h2M69 39h2M69 40h3M70 41h2M71 42h2M71 43h2M72 44h1M72 45h2M73 46h1M73 47h1M74 48h1M74 49h1M74 50h1M74 51h1M74 52h1" />
<path stroke="#a5845a" d="M71 39h1M72 40h1M72 41h1M73 42h1M73 43h1M73 44h1M67 45h1M74 45h1M68 46h1M74 46h1M74 47h1M69 48h1M75 48h1M75 49h1M70 50h1M75 50h1M75 51h1M71 53h1M72 56h1M74 59h1M73 61h1" />
<path stroke="#f7d67b" d="M69 41h1M68 42h3M68 43h3M67 44h5M68 45h4M69 46h4M69 47h4M70 48h4M70 49h4M71 50h3M71 51h3M71 52h3M72 53h3M72 54h3M72 55h3M73 56h2M73 57h2M73 58h2M73 59h1M73 60h1" />
</svg>