<svg xmlns="http://www.w3.org/2000/svg" viewBox="0 -0.5 80 80" shape-rendering="crispEdges">
<metadata>Made with Pixels to Svg https://codepen.io/shshaw/pen/XbxvNj</metadata>
<path stroke="#0063bd" d="M41 16h2M39 17h2M43 17h1M38 18h1M37 19h1M65 31h1M26 32h1M65 32h1M0 33h1M27 33h1M66 33h1M0 34h2M9 34h1M28 34h1M66 34h1M0 35h1M2 35h1M9 35h1M29 35h2M41 35h1M66 35h1M3 36h1M9 36h1M29 36h1M31 36h2M42 36h1M52 36h2M67 36h1M1 37h1M4 37h1M8 37h1M29 37h1M33 37h4M43 37h3M53 37h1M67 37h1M5 38h1M8 38h1M24 38h1M29 38h1M42 38h1M44 38h1M46 38h1M53 38h1M67 38h1M2 39h1M6 39h2M25 39h1M29 39h1M41 39h1M44 39h1M47 39h1M53 39h1M68 39h1M7 40h2M25 40h1M28 40h1M40 40h1M44 40h1M48 40h1M54 40h1M68 40h1M3 41h1M6 41h1M9 41h2M25 41h1M28 41h1M39 41h1M44 41h1M49 41h1M54 41h1M68 41h1M11 42h2M25 42h1M28 42h1M44 42h1M50 42h1M54 42h1M69 42h1M13 43h2M25 43h1M28 43h1M38 43h1M44 43h1M49 43h1M54 43h1M69 43h1M15 44h2M25 44h1M28 44h1M38 44h2M44 44h1M48 44h1M55 44h1M69 44h1M17 45h2M25 45h1M27 45h1M39 45h2M42 45h1M44 45h1M47 45h1M55 45h1M70 45h1M19 46h2M24 46h1M27 46h1M39 46h4M45 46h1M55 46h1M70 46h1M21 47h2M24 47h1M27 47h1M40 47h4M55 47h1M70 47h1M27 48h1M40 48h2M56 48h1M71 48h1M2 49h1M27 49h1M56 49h1M71 49h1M2 50h1M27 50h1M56 50h1M71 50h1M2 51h2M9 51h1M17 51h1M26 51h1M40 51h1M56 51h1M72 51h1M4 52h1M9 52h1M18 52h2M26 52h1M41 52h1M57 52h1M72 52h1M5 53h1M8 53h1M20 53h2M26 53h1M42 53h3M57 53h1M61 53h3M72 53h1M3 54h1M6 54h1M8 54h1M22 54h1M26 54h1M41 54h1M43 54h1M45 54h1M57 54h1M60 54h1M64 54h3M73 54h1M7 55h3M23 55h1M26 55h1M40 55h1M43 55h1M46 55h1M57 55h1M59 55h1M67 55h2M73 55h1M4 56h1M7 56h1M10 56h2M23 56h1M26 56h1M39 56h1M43 56h1M47 56h1M69 56h3M73 56h1M6 57h1M12 57h2M23 57h1M26 57h1M38 57h1M43 57h1M48 57h1M57 57h1M59 57h1M72 57h2M14 58h2M23 58h1M25 58h1M43 58h1M49 58h1M56 58h1M59 58h1M73 58h2M16 59h2M23 59h1M25 59h1M37 59h1M43 59h1M48 59h1M60 59h1M75 59h2M18 60h2M22 60h1M25 60h1M37 60h2M43 60h1M47 60h1M60 60h1M77 60h1M20 61h3M25 61h1M38 61h2M41 61h1M43 61h1M46 61h1M60 61h1M78 61h1M25 62h1M38 62h4M44 62h1M61 62h1M79 62h1M25 63h1M39 63h4M61 63h1M79 63h1" />
<path stroke="#4aceff" d="M41 17h2M39 18h1M41 18h2M40 19h4M40 20h4M39 21h6M39 22h6M38 23h8M37 24h9M37 25h10M36 26h11M35 27h13M35 28h13M34 29h15M34 30h15M33 31h17M62 31h2M9 32h1M32 32h11M46 32h4M60 32h2M3 33h7M25 33h2M32 33h9M48 33h3M58 33h2M25 34h3M31 34h8M50 34h1M56 34h2M1 35h1M10 35h2M25 35h4M31 35h7M39 35h2M51 35h1M54 35h2M1 36h2M10 36h4M24 36h5M33 36h5M39 36h3M51 36h1M2 37h2M9 37h7M24 37h5M38 37h5M2 38h3M9 38h9M25 38h4M38 38h4M45 38h1M3 39h3M8 39h12M26 39h3M38 39h3M45 39h2M3 40h4M9 40h13M26 40h2M38 40h2M45 40h3M4 41h2M11 41h13M26 41h2M38 41h1M45 41h4M13 42h12M26 42h2M45 42h5M15 43h10M26 43h2M45 43h4M17 44h8M26 44h2M45 44h3M19 45h6M26 45h1M45 45h1M21 46h3M25 46h2M23 47h1M25 47h2M24 48h3M10 49h1M23 49h4M3 50h8M22 50h5M10 51h1M19 51h7M38 51h2M3 52h1M10 52h3M20 52h6M38 52h3M3 53h2M9 53h6M22 53h4M37 53h5M4 54h2M9 54h8M23 54h3M37 54h4M44 54h1M61 54h2M4 55h3M10 55h9M24 55h2M37 55h3M44 55h2M60 55h6M5 56h2M12 56h9M24 56h2M37 56h2M44 56h3M5 57h1M14 57h9M24 57h2M37 57h1M44 57h4M58 57h1M16 58h7M24 58h1M44 58h5M57 58h2M18 59h5M24 59h1M44 59h4M56 59h4M73 59h1M20 60h2M23 60h2M44 60h3M55 60h5M73 60h1M23 61h2M44 61h1M54 61h6M74 61h1M10 62h1M22 62h3M53 62h8M74 62h1M10 63h3M21 63h4M53 63h8M75 63h1" />
<path stroke="#319cf7" d="M44 17h2M40 18h1M43 18h1M46 18h2M39 19h1M44 19h1M48 19h2M39 20h1M44 20h1M50 20h2M38 21h1M45 21h1M52 21h2M38 22h1M45 22h1M54 22h2M37 23h1M46 23h1M56 23h2M36 24h1M46 24h1M58 24h1M36 25h1M47 25h1M59 25h1M35 26h1M47 26h1M60 26h1M34 27h1M48 27h1M61 27h1M34 28h1M48 28h1M62 28h1M33 29h1M49 29h1M63 29h1M33 30h1M49 30h1M64 30h1M6 31h5M32 31h1M50 31h1M3 32h3M11 32h2M31 32h1M50 32h1M1 33h2M13 33h2M31 33h1M44 33h1M51 33h1M10 34h2M15 34h2M30 34h1M44 34h1M51 34h1M12 35h2M17 35h2M44 35h1M47 35h1M52 35h1M14 36h2M19 36h2M30 36h1M44 36h1M46 36h1M16 37h2M21 37h2M30 37h3M52 37h1M18 38h2M23 38h1M30 38h7M43 38h1M52 38h1M20 39h2M30 39h7M42 39h2M52 39h1M22 40h2M29 40h8M41 40h3M52 40h2M7 41h2M24 41h1M29 41h8M40 41h4M52 41h2M6 42h5M29 42h8M39 42h5M52 42h2M8 43h5M29 43h8M40 43h4M50 43h1M52 43h2M10 44h5M29 44h8M41 44h3M49 44h2M52 44h3M12 45h5M28 45h9M43 45h1M46 45h1M48 45h3M52 45h3M14 46h5M28 46h10M46 46h4M52 46h3M7 47h3M16 47h5M28 47h10M45 47h5M51 47h4M4 48h3M10 48h2M18 48h5M28 48h11M45 48h4M51 48h5M3 49h1M12 49h2M20 49h2M28 49h12M43 49h1M47 49h2M50 49h6M14 50h2M28 50h10M43 50h1M49 50h7M11 51h2M16 51h1M27 51h10M43 51h1M46 51h1M50 51h6M13 52h2M27 52h10M43 52h1M45 52h1M50 52h7M15 53h2M27 53h9M51 53h6M17 54h2M27 54h9M42 54h1M51 54h6M63 54h1M19 55h2M27 55h9M41 55h2M51 55h6M66 55h1M8 56h2M21 56h2M27 56h9M40 56h3M51 56h6M59 56h10M7 57h5M27 57h9M39 57h4M51 57h5M6 58h8M26 58h10M38 58h5M51 58h4M72 58h1M8 59h8M26 59h10M39 59h4M49 59h1M51 59h3M10 60h8M26 60h10M40 60h3M48 60h2M51 60h2M12 61h8M26 61h10M42 61h1M45 61h1M47 61h2M51 61h1M14 62h7M26 62h11M45 62h4M50 62h2M16 63h3M26 63h11M44 63h4M50 63h2" />
<path stroke="#9cffff" d="M44 18h2M45 19h3M45 20h5M46 21h6M46 22h8M47 23h9M47 24h11M48 25h11M48 26h12M49 27h12M49 28h13M50 29h13M50 30h14M51 31h11M6 32h3M51 32h9M45 33h1M52 33h6M45 34h3M52 34h4M45 35h2M53 35h1M45 36h1M7 48h3M4 49h6M44 49h1M44 50h3M44 51h2M44 52h1M74 59h1M74 60h3M75 61h3M75 62h4M76 63h3" />
<path stroke="#73e6f7" d="M38 19h1M37 20h2M36 21h2M35 22h3M34 23h3M33 24h3M32 25h4M31 26h4M30 27h4M29 28h5M28 29h5M27 30h6M26 31h6M64 31h1M10 32h1M27 32h4M62 32h3M10 33h3M28 33h3M43 33h1M60 33h6M2 34h7M12 34h3M29 34h1M41 34h3M58 34h8M3 35h6M14 35h3M42 35h2M48 35h2M56 35h10M4 36h5M16 36h3M43 36h1M47 36h3M54 36h13M5 37h3M18 37h3M46 37h5M54 37h13M6 38h2M20 38h3M47 38h4M54 38h13M22 39h3M48 39h3M54 39h14M24 40h1M49 40h2M55 40h13M50 41h1M55 41h13M55 42h14M55 43h14M56 44h13M56 45h14M56 46h14M56 47h14M57 48h14M11 49h1M42 49h1M57 49h14M11 50h3M40 50h3M57 50h14M4 51h5M13 51h3M41 51h2M47 51h2M57 51h15M5 52h4M15 52h3M42 52h1M46 52h3M58 52h14M6 53h2M17 53h3M45 53h5M58 53h2M64 53h8M7 54h1M19 54h3M46 54h4M58 54h1M67 54h6M21 55h2M47 55h3M69 55h4M48 56h2M72 56h1M49 57h1M60 57h12M60 58h12M61 59h12M61 60h12M61 61h13M62 62h12M62 63h13" />
<path stroke="#00317b" d="M36 20h1M35 21h1M34 22h1M33 23h1M32 24h1M31 25h1M30 26h1M29 27h1M28 28h1M27 29h1M26 30h1M25 31h1M25 32h1M43 32h3M24 33h1M41 33h2M46 33h2M24 34h1M39 34h2M48 34h2M24 35h1M38 35h1M50 35h1M0 36h1M23 36h1M38 36h1M50 36h1M0 37h1M23 37h1M37 37h1M51 37h1M1 38h1M37 38h1M51 38h1M1 39h1M37 39h1M51 39h1M2 40h1M37 40h1M51 40h1M2 41h1M37 41h1M51 41h1M3 42h3M37 42h2M51 42h1M5 43h3M37 43h1M39 43h1M51 43h1M7 44h3M37 44h1M40 44h1M51 44h1M9 45h3M37 45h2M41 45h1M51 45h1M11 46h3M38 46h1M43 46h2M50 46h2M13 47h3M38 47h2M44 47h1M50 47h1M15 48h3M23 48h1M39 48h1M42 48h3M49 48h2M17 49h3M22 49h1M40 49h2M45 49h2M49 49h1M18 50h4M38 50h2M47 50h2M18 51h1M37 51h1M49 51h1M2 52h1M37 52h1M49 52h1M2 53h1M36 53h1M50 53h1M60 53h1M2 54h1M36 54h1M50 54h1M59 54h1M3 55h1M36 55h1M50 55h1M58 55h1M3 56h1M36 56h1M50 56h1M57 56h2M4 57h1M36 57h1M50 57h1M56 57h1M4 58h2M36 58h2M50 58h1M55 58h1M5 59h3M36 59h1M38 59h1M50 59h1M54 59h2M7 60h3M36 60h1M39 60h1M50 60h1M53 60h2M9 61h3M36 61h2M40 61h1M49 61h2M52 61h2M9 62h1M11 62h3M21 62h1M37 62h1M42 62h2M49 62h1M52 62h1M9 63h1M13 63h3M19 63h2M37 63h2M43 63h1M48 63h2M52 63h1" />
</svg>