<svg xmlns="http://www.w3.org/2000/svg" viewBox="0 -0.5 80 80" shape-rendering="crispEdges">
<metadata>Made with Pixels to Svg https://codepen.io/shshaw/pen/XbxvNj</metadata>
<path stroke="#7b5a84" d="M38 7h1M52 8h6M42 9h1M51 9h2M59 9h3M39 10h1M44 10h1M55 10h1M63 10h2M40 11h1M46 11h2M58 11h1M66 11h1M28 12h9M41 12h2M49 12h3M26 13h2M37 13h6M52 13h5M25 14h1M31 14h1M43 14h2M62 14h2M32 15h1M35 15h1M46 15h2M64 15h1M35 16h1M38 16h1M49 16h4M72 16h1M34 17h6M41 17h1M73 17h1M32 18h1M42 18h3M30 19h1M73 19h3M29 20h1M72 20h1M76 20h1M28 21h1M71 21h1M76 21h1M27 22h1M34 22h1M41 22h1M77 22h1M26 23h1M30 23h1M39 23h3M77 23h1M36 24h1M38 24h1M44 24h1M47 24h1M69 24h1M77 24h1M25 25h1M35 25h1M74 25h1M25 26h1M33 26h1M65 26h1M68 26h1M73 26h1M36 27h1M44 27h1M62 27h3M34 28h1M36 28h1M44 28h1M48 28h1M59 28h1M62 28h1M74 28h1M76 28h1M32 29h1M48 29h1M59 29h1M53 30h3M75 31h1M76 32h1M53 33h1M76 33h1M77 35h1M50 37h1M78 37h1M14 38h1M24 38h1M49 38h1M78 38h1M12 39h1M25 39h1M48 39h2M79 39h1M11 40h1M24 40h2M34 40h1M46 40h2M71 40h1M10 41h1M22 41h2M36 41h1M45 41h1M9 42h1M21 42h1M37 42h1M44 42h1M73 42h1M8 43h1M20 43h1M38 43h1M44 43h1M46 43h1M68 43h1M73 43h1M8 44h1M19 44h1M37 44h3M68 44h2M7 45h1M18 45h1M32 45h1M41 45h2M44 45h1M7 46h1M17 46h1M30 46h1M7 47h1M16 47h1M29 47h1M3 48h1M6 48h1M16 48h1M28 48h1M47 48h1M2 49h1M6 49h1M15 49h1M27 49h1M2 50h1M6 50h1M15 50h1M26 50h1M68 50h1M1 51h1M6 51h1M15 51h1M26 51h1M47 51h1M68 51h1M1 52h1M6 52h1M14 52h1M25 52h1M69 52h1M1 53h1M6 53h1M14 53h1M25 53h1M48 53h1M50 53h1M54 53h1M69 53h1M0 54h1M14 54h1M24 54h1M49 54h1M53 54h1M56 54h1M59 54h1M0 55h1M14 55h1M24 55h1M43 55h2M53 55h1M58 55h1M70 55h1M0 56h1M14 56h1M42 56h1M53 56h1M57 56h1M59 56h1M63 56h1M0 57h1M42 57h1M53 57h1M60 57h1M66 57h1M71 57h1M60 58h1M67 58h1M71 58h1M6 59h1M43 59h1M60 59h1M64 59h1M72 59h1M7 60h1M24 60h1M44 60h1M49 60h1M64 60h1M68 60h1M14 61h1M24 61h1M48 61h1M65 61h1M69 61h2M0 62h2M14 62h2M47 62h1M71 62h1M1 63h1M8 63h1M26 64h1M2 65h1M9 65h1M16 65h1M51 65h1M2 66h1M54 66h1M10 67h1M27 67h1M57 67h1M3 68h1M10 68h1M17 68h2M61 68h1M69 68h1M3 69h1M11 69h1M19 69h1M69 69h2M4 70h1M13 70h1M31 70h1M5 71h1M14 71h1M21 71h1M32 71h1M68 71h1" />
<path stroke="#9c84ad" d="M39 7h1M40 8h1M41 9h1M58 9h1M43 10h1M62 10h1M45 11h1M65 11h1M48 12h1M67 12h2M36 13h1M69 13h1M45 14h1M70 14h1M48 15h1M71 15h1M53 16h1M33 18h1M41 18h1M45 18h1M31 19h1M33 22h1M29 23h1M26 24h2M43 24h1M48 24h1M26 25h1M36 25h1M34 26h1M67 26h1M33 27h1M32 28h2M31 29h1M75 29h1M56 30h1M76 34h1M77 36h1M16 37h7M15 38h1M23 38h1M13 39h1M27 39h6M26 40h1M33 40h1M35 41h1M8 42h1M22 42h1M7 43h1M6 44h1M34 44h3M40 44h1M5 45h1M33 45h1M40 45h1M4 46h1M31 46h1M3 47h1M55 51h1M54 52h1M59 53h1M69 54h1M70 56h1M42 58h2M48 60h1M69 67h1M11 68h1M12 69h1M68 70h1M22 71h1" />
<path stroke="#101010" d="M38 8h1M38 9h1M53 10h2M56 11h2M59 12h2M57 13h5M26 14h5M33 15h2M36 16h2M40 17h1M74 18h1M75 20h1M75 21h1M35 22h6M70 22h1M75 22h1M31 23h3M42 23h2M69 23h1M74 23h1M28 24h2M37 24h1M45 24h2M68 24h1M74 24h1M27 25h1M34 25h1M67 25h2M77 25h1M26 26h1M66 26h1M77 26h1M25 27h1M32 27h1M37 27h7M73 27h1M77 27h1M31 28h1M35 28h1M45 28h3M60 28h2M30 29h1M33 29h1M49 29h10M74 29h1M76 29h1M30 30h2M75 30h1M54 31h1M54 32h1M53 34h1M52 35h1M51 36h1M79 40h1M70 41h1M79 41h1M69 42h4M78 42h2M45 43h1M69 43h1M74 43h5M45 44h1M68 45h1M43 46h1M68 46h1M44 47h1M68 47h1M45 48h1M68 48h1M46 49h1M68 49h1M47 50h1M48 52h1M6 54h1M6 55h1M49 55h1M52 55h1M56 55h1M59 55h1M6 56h1M24 56h1M49 56h3M55 56h1M6 57h1M14 57h1M24 57h1M49 57h1M54 57h1M63 57h1M0 58h1M6 58h1M14 58h1M24 58h1M49 58h1M62 58h2M0 59h1M14 59h1M24 59h1M49 59h1M61 59h1M67 59h2M0 60h1M14 60h1M67 60h1M69 60h1M72 60h1M0 61h1M7 61h1M45 61h1M67 61h1M72 61h1M7 62h1M25 62h1M46 62h1M48 62h1M66 62h1M70 62h1M72 62h1M15 63h1M25 63h1M47 63h2M70 63h2M1 64h1M8 64h1M15 64h1M49 64h2M70 64h1M1 65h1M26 65h1M52 65h2M70 65h1M9 66h1M16 66h1M27 66h1M55 66h2M70 66h1M2 67h1M17 67h1M28 67h1M58 67h3M70 67h1M2 68h1M28 68h2M62 68h6M70 68h1M18 69h1M29 69h2M67 69h1M3 70h1M12 70h1M19 70h2M30 70h1M66 70h1M69 70h1M4 71h1M13 71h1M20 71h1M31 71h1M64 71h2M69 71h1" />
<path stroke="#dedee6" d="M39 8h1M39 9h2M40 10h3M41 11h4M44 12h4M67 13h2M68 14h2M69 15h2M70 16h2M71 17h2M71 18h3M72 19h1M76 22h1M75 23h2M75 24h2M75 25h2M75 32h1M75 33h1M75 34h1M75 35h2M75 36h2M76 37h2M16 38h7M76 38h2M14 39h11M77 39h2M12 40h12M27 40h6M11 41h11M24 41h11M10 42h11M23 42h14M9 43h11M21 43h17M7 44h1M9 44h10M20 44h14M6 45h1M8 45h10M19 45h12M34 45h6M5 46h2M8 46h9M18 46h12M32 46h11M4 47h3M8 47h8M17 47h12M30 47h14M67 47h1M4 48h2M7 48h9M17 48h11M29 48h16M67 48h1M3 49h3M7 49h8M16 49h11M28 49h12M66 49h2M3 50h3M8 50h6M16 50h10M28 50h9M38 50h1M66 50h2M3 51h2M16 51h8M29 51h5M35 51h1M37 51h1M66 51h2M17 52h6M34 52h1M36 52h1M38 52h1M66 52h3M35 53h1M37 53h1M67 53h2M67 54h2M68 55h2M68 56h2M69 57h2M70 58h1M70 59h2M70 60h2M71 61h1" />
<path stroke="#bdb5ce" d="M53 9h5M56 10h6M59 11h6M43 12h1M61 12h6M28 13h8M43 13h9M62 13h5M32 14h11M46 14h16M64 14h4M36 15h10M49 15h15M65 15h4M39 16h10M54 16h16M42 17h29M34 18h7M46 18h25M32 19h40M30 20h42M73 20h2M29 21h42M72 21h3M28 22h5M42 22h28M71 22h4M27 23h2M44 23h25M70 23h4M39 24h4M49 24h19M70 24h4M37 25h30M69 25h5M35 26h30M69 26h4M74 26h3M34 27h2M45 27h17M65 27h8M74 27h3M49 28h10M63 28h11M75 28h1M60 29h14M57 30h18M55 31h20M55 32h20M54 33h21M54 34h21M53 35h22M52 36h23M51 37h25M50 38h26M50 39h27M48 40h23M72 40h7M46 41h24M71 41h8M45 42h24M74 42h4M47 43h21M46 44h22M31 45h1M45 45h23M44 46h24M45 47h22M46 48h1M48 48h19M40 49h6M47 49h19M7 50h1M14 50h1M27 50h1M37 50h1M39 50h8M48 50h18M2 51h1M5 51h1M7 51h8M24 51h2M27 51h2M34 51h1M36 51h1M38 51h9M48 51h7M56 51h10M2 52h4M7 52h7M15 52h2M23 52h2M26 52h8M35 52h1M37 52h1M39 52h9M49 52h5M55 52h11M2 53h4M7 53h7M15 53h10M26 53h9M36 53h1M38 53h10M49 53h1M51 53h3M55 53h4M60 53h7M1 54h5M7 54h7M15 54h9M25 54h24M50 54h3M54 54h2M57 54h2M60 54h7M1 55h5M7 55h7M15 55h9M25 55h18M45 55h4M50 55h2M54 55h2M57 55h1M60 55h8M1 56h5M7 56h7M15 56h9M25 56h17M43 56h6M52 56h1M54 56h1M56 56h1M58 56h1M60 56h3M64 56h4M1 57h5M7 57h7M15 57h9M25 57h17M43 57h6M50 57h3M55 57h5M61 57h2M64 57h2M67 57h2M1 58h5M7 58h7M15 58h9M25 58h17M44 58h5M50 58h10M61 58h1M64 58h3M68 58h2M1 59h5M7 59h7M15 59h9M25 59h18M44 59h5M50 59h10M62 59h2M65 59h2M69 59h1M1 60h6M8 60h6M15 60h9M25 60h19M45 60h3M50 60h14M65 60h2M1 61h6M8 61h6M15 61h9M25 61h20M46 61h2M49 61h16M66 61h1M68 61h1M2 62h5M8 62h6M16 62h9M26 62h20M49 62h17M67 62h3M2 63h6M9 63h6M16 63h9M26 63h21M49 63h21M2 64h6M9 64h6M16 64h10M27 64h22M51 64h19M3 65h6M10 65h6M17 65h9M27 65h22M54 65h16M3 66h6M10 66h6M17 66h10M28 66h22M57 66h13M3 67h7M11 67h6M18 67h9M29 67h22M61 67h8M4 68h6M12 68h5M19 68h9M30 68h17M68 68h1M4 69h7M13 69h5M20 69h9M31 69h17M68 69h1M5 70h7M14 70h5M21 70h9M32 70h17M67 70h1M6 71h7M15 71h5M23 71h8M33 71h15M66 71h2" />
<path stroke="#639cff" d="M49 65h2M50 66h4M51 67h6M47 68h14M48 69h19M49 70h17M48 71h16" />
</svg>