<svg xmlns="http://www.w3.org/2000/svg" viewBox="0 -0.5 80 80" shape-rendering="crispEdges">
<metadata>Made with Pixels to Svg https://codepen.io/shshaw/pen/XbxvNj</metadata>
<path stroke="#b58419" d="M37 8h4M35 9h2M40 9h2M34 10h1M33 11h1M32 12h1M31 13h1M30 14h1M30 15h1M29 16h1M28 17h1M47 17h1M28 18h1M27 19h1M48 19h1M27 20h1M26 21h1M26 22h1M51 22h3M26 23h1M54 23h3M25 24h1M57 24h3M24 25h2M60 25h2M21 26h3M25 26h1M62 26h2M19 27h2M25 27h1M64 27h2M17 28h2M66 28h2M15 29h2M68 29h1M14 30h1M68 30h1M13 31h1M12 32h1M68 32h1M11 33h1M67 33h1M66 34h1M12 35h1M65 35h1M13 36h1M14 37h1M62 37h1M16 38h1M59 38h1M18 39h1M57 39h1M20 40h1M24 40h1M54 40h1M22 41h1M24 41h1M50 41h1M56 41h1M25 42h1M56 42h2M26 43h1M51 44h1M52 45h1M30 46h1M29 47h1M33 47h1M36 48h2M35 50h2M42 50h2M34 51h1M37 51h1M41 51h1M34 52h1M37 52h1M41 52h1M44 52h1M34 53h1M37 53h1M42 53h1M45 53h1M33 54h1M37 54h1M42 54h1M46 54h1M33 55h1M37 55h1M43 55h1M47 55h1M33 56h1M37 56h1M43 56h1M48 56h1M32 57h1M36 57h1M44 57h1M49 57h2M32 58h1M36 58h1M44 58h1M51 58h1M31 59h1M36 59h1M45 59h1M52 59h1M31 60h1M36 60h1M46 60h1M53 60h1M35 61h1M54 61h2M70 61h3M35 62h1M48 62h1M55 62h3M73 62h2M12 63h5M49 63h1M57 63h3M75 63h1M10 64h2M17 64h2M26 64h1M34 64h1M59 64h3M65 64h1M74 64h1M9 65h1M19 65h1M25 65h1M62 65h3M8 66h1M33 66h1M6 67h2M54 67h1M71 67h1M5 68h1M56 68h1M70 68h1M3 69h2M58 69h1M69 69h1M3 70h1M16 70h1M21 70h1M29 70h1M61 70h6M4 71h2M15 71h1" />
<path stroke="#f7f78c" d="M37 9h2M35 10h3M34 11h3M33 12h4M32 13h4M32 14h4M31 15h4M30 16h5M29 17h6M29 18h6M29 19h5M28 20h6M28 21h6M27 22h7M27 23h6M52 23h1M27 24h6M50 24h6M27 25h5M49 25h10M24 26h1M26 26h1M28 26h3M32 26h1M48 26h13M21 27h4M27 27h1M29 27h1M31 27h1M47 27h16M19 28h6M26 28h1M28 28h1M30 28h1M47 28h18M17 29h8M27 29h1M29 29h1M31 29h1M47 29h20M16 30h9M30 30h1M46 30h22M14 31h11M46 31h21M13 32h12M47 32h18M13 33h11M69 62h4M67 63h8M13 64h3M66 64h8M11 65h7M59 65h2M65 65h8M11 66h9M59 66h12M13 67h8M59 67h9M15 68h7M58 68h9M16 69h7M59 69h5M22 70h2" />
<path stroke="#efc54a" d="M39 9h1M38 10h4M38 11h5M37 12h7M37 13h8M31 14h1M36 14h9M36 15h10M36 16h11M35 17h12M35 18h13M28 19h1M35 19h13M34 20h15M27 21h1M34 21h16M34 22h17M34 23h17M53 23h1M26 24h1M33 24h16M56 24h1M26 25h1M32 25h16M59 25h1M27 26h1M31 26h1M33 26h14M61 26h1M26 27h1M28 27h1M30 27h1M32 27h15M63 27h1M25 28h1M27 28h1M29 28h1M31 28h1M33 28h14M65 28h1M26 29h1M28 29h1M30 29h1M32 29h14M67 29h1M15 30h1M26 30h2M29 30h1M31 30h15M26 31h20M68 31h1M25 32h21M66 32h2M25 33h25M61 33h6M12 34h2M24 34h42M13 35h52M14 36h50M15 37h47M17 38h42M19 39h38M21 40h3M25 40h29M23 41h1M25 41h25M26 42h22M52 42h3M24 43h1M27 43h21M51 43h5M24 44h2M28 44h19M52 44h4M25 45h2M29 45h17M53 45h3M25 46h3M31 46h13M26 47h3M34 47h8M35 51h2M42 51h2M35 52h2M42 52h2M35 53h2M43 53h2M34 54h3M43 54h3M34 55h3M44 55h3M34 56h3M44 56h4M33 57h3M45 57h4M33 58h3M45 58h6M32 59h4M46 59h6M32 60h4M47 60h6M31 61h4M48 61h6M30 62h5M49 62h6M68 62h1M29 63h6M50 63h7M66 63h1M12 64h1M16 64h1M28 64h6M51 64h8M18 65h1M26 65h8M52 65h7M61 65h1M9 66h2M20 66h13M53 66h6M71 66h1M8 67h4M21 67h12M55 67h3M69 67h2M6 68h8M23 68h9M57 68h1M67 68h3M5 69h11M24 69h7M65 69h4M4 70h12M25 70h4M6 71h9M24 71h4" />
<path stroke="#101010" d="M42 10h5M43 11h1M46 11h1M44 12h1M46 12h1M45 13h1M47 13h1M45 14h1M47 14h1M46 15h2M47 16h1M48 17h1M48 18h1M49 19h1M49 20h1M50 21h1M69 30h2M69 31h1M71 31h1M69 32h1M71 32h1M68 33h1M71 33h1M11 34h1M67 34h1M72 34h1M11 35h1M66 35h1M72 35h1M12 36h1M64 36h3M72 36h1M11 37h1M13 37h1M63 37h2M66 37h1M72 37h1M11 38h1M14 38h2M60 38h3M66 38h2M73 38h1M11 39h1M15 39h3M58 39h3M67 39h1M73 39h1M11 40h1M17 40h3M55 40h4M67 40h1M73 40h1M11 41h2M17 41h1M19 41h3M51 41h5M67 41h1M74 41h1M12 42h1M17 42h1M21 42h4M50 42h2M67 42h2M74 42h1M12 43h1M18 43h1M23 43h1M25 43h1M50 43h1M57 43h1M68 43h1M73 43h2M12 44h1M18 44h1M23 44h1M26 44h2M49 44h2M57 44h1M68 44h1M71 44h3M12 45h1M18 45h1M24 45h1M27 45h2M47 45h2M51 45h1M56 45h1M68 45h4M12 46h2M18 46h1M24 46h1M28 46h2M46 46h1M52 46h4M13 47h1M18 47h1M25 47h1M30 47h3M46 47h2M61 47h1M13 48h1M17 48h2M26 48h3M33 48h3M61 48h1M13 49h4M31 49h2M60 49h2M59 50h1M60 51h1M59 52h2M21 53h1M58 53h2M21 54h2M47 54h3M58 54h1M49 55h3M58 55h1M24 56h1M32 56h1M51 56h4M57 56h1M24 57h2M30 57h2M54 57h4M25 58h1M28 58h2M26 59h2M30 61h1M37 61h1M47 61h1M68 61h2M29 62h1M38 62h4M46 62h1M66 62h2M75 62h1M28 63h1M35 63h1M42 63h1M46 63h1M65 63h1M76 63h1M27 64h1M35 64h1M42 64h1M45 64h1M50 64h1M75 64h1M20 65h5M34 65h1M43 65h2M51 65h1M73 65h2M34 66h1M52 66h1M72 66h1M33 67h1M53 67h1M32 68h1M54 68h2M71 68h1M31 69h1M56 69h2M70 69h1M17 70h4M30 70h1M58 70h3M67 70h3M16 71h1M21 71h3M28 71h2M61 71h6" />
<path stroke="#ffde6b" d="M37 11h1M36 13h1M35 15h1M35 16h1M34 19h1M33 23h1M51 23h1M49 24h1M48 25h1M47 26h1M32 28h1M25 29h1M46 29h1M25 30h1M28 30h1M25 31h1M67 31h1M46 32h1M65 32h1M12 33h1M24 33h1M50 33h11M14 34h10M55 42h1M56 43h1M56 44h1M10 65h1M12 67h1M58 67h1M68 67h1M14 68h1M22 68h1M23 69h1M64 69h1M24 70h1" />
<path stroke="#b51900" d="M44 11h2M45 12h1M46 13h1M46 14h1M70 31h1M70 32h1M69 33h2M68 34h4M67 35h5M67 36h5M12 37h1M67 37h5M12 38h2M68 38h5M12 39h3M68 39h5M12 40h5M68 40h5M13 41h4M68 41h6M13 42h4M69 42h5M13 43h5M69 43h4M13 44h5M69 44h2M13 45h5M14 46h4M14 47h4M14 48h3" />
<path stroke="#deadb5" d="M48 42h2M48 43h1M47 44h1M46 45h1M44 46h1M42 47h4M38 48h10M49 48h1M33 49h14M33 50h2M37 50h5M44 50h2M32 51h2M38 51h3M44 51h4M30 52h4M38 52h3M45 52h6M27 53h7M38 53h4M46 53h8M57 53h1M24 54h9M38 54h4M51 54h7M23 55h10M38 55h5M53 55h4M25 56h7M38 56h5M56 56h1M26 57h4M37 57h7M26 58h2M37 58h7M37 59h8M37 60h9M38 61h9M42 62h4M43 63h2M43 64h1" />
<path stroke="#736b6b" d="M49 43h1M48 44h1M45 46h1M48 47h2M58 47h3M50 48h9M29 50h2M58 50h1M60 50h1M26 51h3M21 52h5M57 52h2M23 54h1M50 54h1M22 55h1M52 55h1M57 55h1M23 56h1M55 56h1M36 61h1M45 63h1M44 64h1" />
<path stroke="#f7dede" d="M48 48h1M59 48h2M47 49h13M31 50h2M46 50h12M29 51h3M48 51h12M26 52h4M51 52h6M23 53h4M54 53h3" />
<path stroke="#ad9c9c" d="M22 53h1" />
</svg>