<svg xmlns="http://www.w3.org/2000/svg" viewBox="0 -0.5 80 80" shape-rendering="crispEdges">
<metadata>Made with Pixels to Svg https://codepen.io/shshaw/pen/XbxvNj</metadata>
<path stroke="#3a635a" d="M31 10h4M30 11h1M35 11h3M30 12h1M38 12h3M41 13h3M33 14h1M34 15h1M36 16h1M38 17h1M39 18h2M41 19h1M43 20h1M44 21h2M46 22h2M48 23h1M50 24h1M52 25h1M54 26h1M55 27h1M57 28h1M59 29h1M61 30h2M64 60h1M65 61h1M66 62h1M67 63h1M60 64h1M61 65h1M68 65h1M62 66h1M69 67h1M63 68h1M70 69h1M64 70h1M70 70h1M65 72h1M71 72h1M71 73h1M72 75h1M72 76h1M72 77h1M72 78h1M72 79h1" />
<path stroke="#73d6ad" d="M31 11h4M33 12h5M36 13h5M39 14h5M42 15h4M44 16h3M46 17h3M48 18h2M50 19h2M53 20h1M62 60h2M62 61h3M63 62h3M64 63h3M65 64h2M66 65h2M66 66h2M67 67h2M67 68h2M68 69h2M68 70h2M68 71h2M69 72h2M69 73h2M69 74h2M70 75h2M70 76h2M70 77h2M70 78h2M70 79h2" />
<path stroke="#4aa573" d="M31 12h2M32 13h4M34 14h5M35 15h7M37 16h7M39 17h7M41 18h7M42 19h8M44 20h9M46 21h10M48 22h10M49 23h11M51 24h10M53 25h9M55 26h7M56 27h7M58 28h5M60 29h3M74 30h1M74 31h1M74 32h1M74 33h2M74 34h2M73 35h3M73 36h3M73 37h3M73 38h3M73 39h3M73 40h3M74 41h1M46 52h2M45 53h4M44 54h5M44 55h4M45 56h2M61 60h1M38 61h2M60 61h2M38 62h3M60 62h3M37 63h4M48 63h2M60 63h4M37 64h3M47 64h4M61 64h4M67 64h1M37 65h2M46 65h5M62 65h4M46 66h4M63 66h3M68 66h1M47 67h2M63 67h4M64 68h3M69 68h1M64 69h4M65 70h3M65 71h3M70 71h1M66 72h3M66 73h3M66 74h3M71 74h1M67 75h3M67 76h3M67 77h3M67 78h3M67 79h3" />
<path stroke="#191919" d="M31 13h1M31 14h1M32 15h1M33 16h1M34 17h1M35 18h1M36 19h1M37 20h1M38 21h1M39 22h1M72 22h1M40 23h1M72 23h1M41 24h1M71 24h1M42 25h1M71 25h1M43 26h2M71 26h1M44 27h2M71 27h1M45 28h2M70 28h1M46 29h2M70 29h1M47 30h2M70 30h1M48 31h2M70 31h1M49 32h2M69 32h1M50 33h2M69 33h1M51 34h2M69 34h1M50 35h4M69 35h1M50 36h1M52 36h3M68 36h1M50 37h1M52 37h1M55 37h1M68 37h1M50 38h1M52 38h1M68 38h1M50 39h1M53 39h1M67 39h1M50 40h2M51 41h1M78 41h1M51 42h1M78 42h1M51 43h2M77 43h1M52 44h1M77 44h1M52 45h2M57 45h3M77 45h1M53 46h2M56 46h1M60 46h1M76 46h1M54 47h2M76 47h1M48 48h6M61 48h1M74 48h2M45 49h3M53 49h2M60 49h2M71 49h3M43 50h2M55 50h2M59 50h2M68 50h4M42 51h1M46 51h2M57 51h2M61 51h8M41 52h1M45 52h1M48 52h1M58 52h2M37 53h1M40 53h1M44 53h1M60 53h1M36 54h1M40 54h1M36 55h1M39 55h1M36 56h1M39 56h1M44 56h1M36 57h4M43 57h1M47 57h1M58 57h1M37 58h2M42 58h1M47 58h1M57 58h1M10 59h2M37 59h2M41 59h1M48 59h1M57 59h1M9 60h1M36 60h5M48 60h1M56 60h1M9 61h1M33 61h3M37 61h1M40 61h1M48 61h1M56 61h1M9 62h1M31 62h2M37 62h1M48 62h2M56 62h2M59 62h1M10 63h1M29 63h2M36 63h1M47 63h1M50 63h1M56 63h4M10 64h1M27 64h2M36 64h1M40 64h3M46 64h1M57 64h3M11 65h1M35 65h1M39 65h1M43 65h2M57 65h2M60 65h1M11 66h1M35 66h1M39 66h1M45 66h1M56 66h2M61 66h1M12 67h1M34 67h1M39 67h1M46 67h1M55 67h2M62 67h1M12 68h1M34 68h1M38 68h2M47 68h1M54 68h1M62 68h1M13 69h1M33 69h1M38 69h2M48 69h1M53 69h1M63 69h1M13 70h1M32 70h1M37 70h1M39 70h1M49 70h1M52 70h2M63 70h1M14 71h1M31 71h1M37 71h1M39 71h1M50 71h3M64 71h1M13 72h2M30 72h1M36 72h1M40 72h1M51 72h1M64 72h1M13 73h1M28 73h2M35 73h1M40 73h1M52 73h1M65 73h1M12 74h2M26 74h3M34 74h1M40 74h1M53 74h1M65 74h1M10 75h3M24 75h3M33 75h1M40 75h1M54 75h1M65 75h2M9 76h2M12 76h1M23 76h2M31 76h2M39 76h2M66 76h1M8 77h2M11 77h2M22 77h2M29 77h3M39 77h1M66 77h1M8 78h1M11 78h1M21 78h2M28 78h2M38 78h2M66 78h1M7 79h1M11 79h1M20 79h2M27 79h2M38 79h1M66 79h1" />
<path stroke="#736310" d="M32 14h1M44 14h3M33 15h1M47 15h3M34 16h1M50 16h2M35 17h1M52 17h2M36 18h1M55 18h2M37 19h1M57 19h2M74 19h1M38 20h1M55 20h1M59 20h2M73 20h1M75 20h1M39 21h1M57 21h1M61 21h2M73 21h1M40 22h1M64 22h4M76 22h1M41 23h1M60 23h1M69 23h1M76 23h1M42 24h1M61 24h1M72 24h1M76 24h1M43 25h1M62 25h1M62 26h1M77 26h1M63 27h1M77 27h1M63 28h1M71 28h1M63 29h1M78 30h1M78 31h1M70 32h1M78 32h1M79 35h1M69 36h1M79 36h1M54 37h1M79 37h1M55 38h2M79 38h1M52 39h1M68 39h1M79 39h1M53 40h1M67 40h1M78 40h1M53 41h2M65 41h3M54 42h2M63 42h3M56 43h7M56 45h1M76 45h1M55 46h1M61 47h1M75 47h1M73 48h1M61 50h1M33 55h3M30 56h2M28 57h1M26 58h2M12 59h3M24 59h1M15 60h3M22 60h1M35 60h1M18 61h3M32 61h1M10 62h1M21 62h2M30 62h1M23 63h2M28 63h1M11 64h1M25 64h2M27 65h1M12 66h1M28 66h1M29 67h1M13 68h1M30 68h1M9 69h1M30 69h2M8 70h1M14 70h1M31 70h1M7 71h1M40 71h1M6 72h1M5 73h1M12 73h1M4 74h1M11 74h1M3 75h1M13 75h1M2 76h1M54 76h1M2 77h1M55 77h1M1 78h1M7 78h1M55 78h1M1 79h1M56 79h1" />
<path stroke="#c5c542" d="M46 15h1M35 16h1M47 16h1M36 17h2M49 17h1M37 18h2M50 18h2M54 18h1M38 19h3M52 19h2M39 20h4M54 20h1M40 21h4M56 21h1M75 21h1M41 22h5M58 22h2M63 22h1M73 22h1M42 23h6M61 23h1M68 23h1M73 23h1M43 24h7M62 24h2M70 24h1M73 24h1M44 25h8M63 25h2M72 25h2M76 25h1M45 26h9M63 26h4M72 26h2M46 27h9M64 27h7M72 27h2M47 28h10M64 28h6M72 28h3M77 28h1M48 29h11M64 29h6M71 29h4M77 29h1M49 30h12M63 30h7M71 30h3M50 31h20M71 31h3M51 32h18M71 32h3M75 32h1M52 33h17M70 33h4M78 33h1M53 34h16M70 34h4M78 34h1M54 35h15M70 35h3M76 35h1M51 36h1M55 36h13M70 36h3M76 36h1M51 37h1M53 37h1M56 37h12M69 37h4M76 37h2M51 38h1M53 38h2M57 38h11M69 38h4M76 38h2M51 39h1M54 39h13M69 39h4M76 39h2M52 40h1M54 40h13M68 40h5M76 40h2M52 41h1M55 41h10M68 41h6M75 41h3M52 42h2M56 42h7M66 42h12M53 43h3M63 43h14M53 44h24M54 45h2M60 45h16M61 46h15M62 47h13M62 48h11M62 49h9M62 50h6M32 56h1M29 57h1M33 58h4M25 59h1M30 59h7M10 60h2M23 60h1M28 60h7M10 61h5M21 61h1M26 61h6M11 62h6M24 62h6M11 63h8M25 63h3M12 64h9M12 65h11M40 65h1M13 66h12M40 66h3M11 67h1M13 67h13M40 67h4M10 68h1M14 68h13M40 68h5M12 69h1M14 69h14M40 69h6M11 70h2M15 70h14M40 70h7M10 71h4M15 71h14M41 71h7M9 72h4M15 72h15M41 72h7M8 73h4M14 73h14M41 73h8M7 74h4M14 74h12M41 74h9M6 75h4M14 75h10M41 75h10M3 76h1M5 76h4M13 76h10M41 76h11M4 77h4M13 77h9M40 77h12M3 78h4M12 78h9M40 78h13M3 79h4M12 79h8M39 79h14" />
<path stroke="#ffef42" d="M48 16h2M50 17h2M52 18h2M54 19h3M56 20h3M74 20h1M58 21h3M74 21h1M60 22h3M74 22h2M62 23h6M74 23h2M64 24h6M74 24h2M65 25h6M74 25h2M67 26h4M74 26h3M74 27h3M75 28h2M75 29h2M75 30h3M75 31h3M76 32h2M76 33h2M76 34h2M77 35h2M77 36h2M78 37h1M78 38h1M78 39h1M33 56h3M30 57h6M28 58h5M26 59h4M12 60h3M24 60h4M15 61h3M22 61h4M17 62h4M23 62h1M19 63h4M21 64h4M23 65h4M41 65h2M25 66h3M43 66h2M26 67h3M44 67h2M11 68h1M27 68h3M45 68h2M10 69h2M28 69h2M46 69h2M9 70h2M29 70h2M47 70h2M8 71h2M29 71h2M48 71h2M7 72h2M48 72h3M6 73h2M49 73h3M5 74h2M50 74h3M4 75h2M51 75h3M4 76h1M52 76h2M3 77h1M52 77h3M2 78h1M53 78h2M2 79h1M53 79h3" />
<path stroke="#525252" d="M57 46h3M56 47h5M54 48h7M48 49h5M55 49h5M42 50h1M45 50h10M57 50h2M40 51h2M43 51h3M48 51h8M38 52h2M42 52h3M49 52h8M41 53h3M49 53h8M37 54h1M41 54h3M49 54h9M61 54h1M37 55h2M40 55h4M48 55h10M61 55h2M37 56h2M40 56h4M47 56h11M59 56h2M63 56h1M40 57h3M44 57h3M48 57h10M39 58h3M43 58h4M48 58h9M58 58h1M64 58h1M39 59h2M42 59h6M49 59h8M58 59h2M61 59h4M41 60h7M49 60h7M57 60h4M41 61h7M49 61h7M57 61h3M41 62h7M50 62h6M58 62h1M41 63h6M51 63h5M43 64h3M51 64h6M36 65h1M45 65h1M51 65h6M36 66h3M50 66h6M35 67h4M49 67h6M35 68h3M48 68h6M34 69h4M49 69h4M33 70h4M38 70h1M50 70h2M32 71h5M38 71h1M31 72h5M37 72h3M30 73h5M36 73h4M29 74h5M35 74h5M27 75h6M34 75h6M25 76h6M33 76h6M24 77h5M32 77h7M23 78h5M30 78h8M22 79h5M29 79h9" />
<path stroke="#73736b" d="M56 51h1M40 52h1M57 52h1M38 53h2M57 53h3M38 54h2M58 54h3M58 55h3M58 56h1M61 56h2M59 57h5M59 58h5M60 59h1" />
</svg>