<svg xmlns="http://www.w3.org/2000/svg" viewBox="0 -0.5 80 80" shape-rendering="crispEdges">
<metadata>Made with Pixels to Svg https://codepen.io/shshaw/pen/XbxvNj</metadata>
<path stroke="#ad1952" d="M26 5h1M25 6h1M24 7h1M23 9h2M23 10h4M23 11h5M24 12h6M25 13h5M26 14h4M25 15h7M24 16h11M23 17h11M23 18h10M23 19h10M24 20h10M26 21h8M24 22h12M41 22h1M23 23h15M44 23h1M22 24h17M21 25h21M21 26h21M43 26h1M20 27h10M34 27h7M44 27h1M47 27h1M20 28h9M36 28h5M19 29h10M37 29h3M19 30h9M38 30h2M19 31h9M39 31h1M18 32h10M18 33h10M18 34h10M18 35h10M18 36h10M18 37h11M19 38h10M19 39h10M19 40h11M20 41h10M20 42h11M21 43h10M21 44h11M22 45h8M23 46h5M23 48h1M21 49h4M22 50h1M19 51h3M19 52h5M32 52h3M22 53h4M30 53h4M25 54h8M54 54h2M26 55h2M29 55h6M53 55h4M28 56h9M52 56h5M28 57h12M50 57h7M27 58h7M37 58h2M43 58h1M47 58h1M51 58h3M27 59h6M50 59h1M26 60h7M26 61h7M25 62h7M25 63h7M26 64h6M26 65h5M26 66h5M26 67h7M26 68h7M25 69h8M25 70h8M24 71h10" />
<path stroke="#6b1029" d="M27 5h1M27 6h1M27 7h1M23 8h1M26 8h1M22 9h1M26 9h1M27 10h1M28 11h1M23 12h1M30 12h2M23 13h1M25 14h1M24 15h1M23 16h1M22 17h1M22 18h1M33 19h1M34 20h1M37 20h1M24 21h2M38 21h3M23 22h1M42 22h1M22 23h1M21 24h1M20 25h1M42 25h1M47 25h1M19 26h2M19 27h1M45 27h1M18 28h2M46 28h2M18 29h1M18 30h1M17 31h2M17 32h1M17 33h1M17 34h1M17 35h1M17 36h1M17 37h1M18 38h1M18 39h1M18 40h1M19 41h1M19 42h1M20 43h1M22 48h1M25 49h1M20 50h2M23 50h1M22 51h1M31 51h1M24 52h1M35 52h1M26 53h1M55 53h1M24 54h1M33 54h1M28 55h1M36 55h1M52 55h1M27 56h1M39 56h1M50 56h2M27 57h1M42 57h1M48 57h2M34 58h1M44 58h3M54 58h1M39 59h1M42 60h1M48 60h1M25 61h1" />
<path stroke="#f75a7b" d="M26 6h1M25 7h2M24 8h2M25 9h1M30 13h2M31 14h3M33 15h2M35 21h3M37 22h4M39 23h5M40 24h6M43 25h3M44 26h3M46 27h1M40 58h2M48 58h2M40 59h9M43 60h4" />
<path stroke="#101010" d="M22 10h1M22 11h1M29 11h1M22 12h1M24 13h1M32 13h2M34 14h1M35 15h1M35 16h1M34 17h1M33 18h1M22 19h1M34 19h1M23 20h1M35 20h2M41 21h1M43 22h1M45 23h1M46 24h1M30 27h4M29 28h1M29 29h1M50 29h1M28 30h1M50 30h1M28 31h1M28 32h1M28 33h1M51 33h1M28 34h1M51 34h1M28 35h1M51 35h1M28 36h1M51 36h1M29 37h1M48 37h1M51 37h1M17 38h1M29 38h1M48 38h1M51 38h1M29 39h1M48 39h1M51 39h1M30 40h1M48 40h1M51 40h1M18 41h1M30 41h1M48 41h2M51 41h1M31 42h1M51 42h1M19 43h1M31 43h1M63 43h2M20 44h1M32 44h1M50 44h1M21 45h1M33 45h1M50 45h1M66 45h1M22 46h1M34 46h1M38 46h1M51 46h1M63 46h3M23 47h1M37 47h1M51 47h1M62 47h2M24 48h2M51 48h1M20 49h1M26 49h1M51 49h1M19 50h1M24 50h1M27 50h1M44 50h1M50 50h1M55 50h1M18 51h1M23 51h2M29 51h2M48 51h2M54 51h1M63 51h1M68 51h1M18 52h1M25 52h2M30 52h2M43 52h5M54 52h1M65 52h3M19 53h3M27 53h3M34 53h10M54 53h1M22 54h2M34 54h1M53 54h1M62 54h2M25 55h1M35 55h1M61 55h1M63 55h2M67 55h1M26 56h1M37 56h2M60 56h2M64 56h3M40 57h2M57 57h4M26 58h1M35 58h2M55 58h2M26 59h1M35 59h1M37 59h2M51 59h4M25 60h1M35 60h1M39 60h3M49 60h3M35 61h1M42 61h7M34 62h1M34 63h1M34 64h1M34 65h1M33 66h1M33 67h1M33 68h2M35 69h1M36 70h1M36 71h1" />
<path stroke="#d63163" d="M30 14h1M32 15h1M34 21h1M36 22h1M38 23h1M39 24h1M39 58h1M42 58h1M50 58h1M33 59h1M49 59h1M47 60h1M33 69h2M33 70h3M34 71h2" />
<path stroke="#f7ef9c" d="M46 25h1M47 26h1M48 27h1M31 28h3M48 28h1M30 29h6M47 29h3M30 30h2M35 30h1M47 30h3M29 31h3M48 31h2M29 32h3M49 32h2M29 33h3M50 33h1M29 34h3M50 34h1M29 35h3M50 35h1M30 36h2M50 36h1M30 37h1M50 37h1M50 38h1M50 39h1M50 40h1M50 41h1M59 43h4M58 44h3M63 44h3M49 45h1M58 45h2M63 45h3M49 46h2M57 46h1M50 47h1M50 48h1M55 48h1M55 49h1" />
<path stroke="#dec55a" d="M42 26h1M41 27h3M41 28h5M40 29h7M36 30h1M40 30h7M32 31h1M36 31h2M40 31h5M37 32h2M40 32h4M37 33h2M40 33h4M49 33h1M38 34h2M41 34h3M38 35h2M41 35h3M38 36h2M41 36h3M31 37h1M39 37h2M42 37h2M30 38h2M39 38h2M42 38h2M30 39h3M39 39h2M42 39h2M31 40h2M40 40h1M42 40h2M31 41h2M40 41h1M42 41h2M32 42h2M40 42h1M42 42h2M50 42h1M32 43h2M40 43h5M49 43h1M33 44h2M38 44h7M49 44h1M30 45h3M34 45h15M61 45h2M28 46h6M35 46h3M40 46h9M58 46h5M25 47h10M38 47h11M57 47h4M26 48h17M44 48h6M57 48h3M61 48h4M27 49h16M44 49h7M57 49h2M60 49h7M29 50h15M45 50h5M56 50h12M32 51h13M55 51h8M65 51h3M36 52h7M55 52h6M62 52h3M56 53h10M56 54h6M64 54h3M57 55h4M65 55h2M57 56h3M34 59h1M33 60h2M33 61h1M32 62h2M32 63h2M32 64h2M31 65h2M31 66h2" />
<path stroke="#948429" d="M48 26h1M49 27h1M30 28h1M34 28h2M49 28h1M36 29h1M29 30h1M32 30h3M37 30h1M38 31h1M50 31h1M39 32h1M44 32h1M51 32h1M39 33h1M40 34h1M40 35h1M29 36h1M40 36h1M41 37h1M41 38h1M41 39h1M41 40h1M44 40h1M41 41h1M44 41h1M41 42h1M44 42h1M49 42h1M59 42h4M50 43h1M58 43h1M65 43h1M45 44h1M48 44h1M57 44h1M61 44h2M66 44h1M57 45h1M60 45h1M39 46h1M56 46h1M24 47h1M35 47h2M49 47h1M55 47h2M61 47h1M64 47h1M43 48h1M54 48h1M56 48h1M60 48h1M65 48h2M43 49h1M54 49h1M56 49h1M59 49h1M67 49h1M28 50h1M54 50h1M68 50h1M45 51h3M64 51h1M61 52h1M66 53h1M67 54h1M34 61h1M33 65h1" />
<path stroke="#a5424a" d="M33 31h3M45 31h2M32 32h1M34 32h3M45 32h2M32 33h1M35 33h2M44 33h4M32 34h1M35 34h3M44 34h4M32 35h1M36 35h2M44 35h2M48 35h1M32 36h1M36 36h2M44 36h2M49 36h1M32 37h1M37 37h2M44 37h1M49 37h1M32 38h1M37 38h2M44 38h1M37 39h2M44 39h1M38 40h2M33 41h1M38 41h2M38 42h2M34 43h1M37 43h3M35 44h1M37 44h1" />
<path stroke="#e63a42" d="M47 31h1M33 32h1M47 32h2M33 33h2M48 33h1M33 34h2M48 34h2M33 35h3M49 35h1M33 36h3M33 37h4M33 38h4M33 39h4M33 40h5M34 41h4M34 42h4M35 43h2M36 44h1" />
<path stroke="#ffffff" d="M46 35h2M46 36h2M45 37h2M45 38h2M49 38h1M45 39h2M49 39h1M45 40h2M45 41h2M45 42h3M45 43h3M46 44h2" />
<path stroke="#636373" d="M48 36h1M47 37h1M47 38h1M47 39h1M47 40h1M49 40h1M47 41h1M48 42h1M48 43h1" />
<path stroke="#e63142" d="M12 49h1M11 50h2M11 51h2M15 51h1M10 52h4M15 52h3M10 53h4M15 53h4M9 54h3M14 54h5M9 55h3M15 55h5M9 56h3M15 56h5M10 57h2M15 57h5M21 57h1M10 58h2M15 58h7M11 59h1M16 59h5M9 60h1M11 60h2M17 60h6M9 61h3M18 61h7M9 62h3M18 62h7M9 63h3M18 63h3M22 63h3M9 64h3M22 64h1M25 64h1M10 65h2M25 65h1M25 66h1M22 67h1M25 67h1M24 68h2M11 69h1M24 69h1M12 70h2M15 70h1M19 70h1M22 70h3M14 71h10" />
<path stroke="#efe63a" d="M12 54h1M13 55h1M13 56h2M12 57h3M13 58h1M12 59h4M13 60h4M13 61h1M15 61h1M17 61h1M12 62h1M14 62h1M16 62h1M12 63h2M15 63h1M17 63h1M12 64h8M12 65h9M13 66h9M14 67h8M14 68h7M15 69h5M16 70h3" />
<path stroke="#f78c4a" d="M13 54h1M12 55h1M14 55h1M12 56h1M12 58h1M14 58h1M21 59h2M12 61h1M14 61h1M16 61h1M13 62h1M15 62h1M17 62h1M14 63h1M16 63h1M21 63h1M20 64h2M23 64h2M21 65h4M10 66h3M22 66h3M11 67h3M23 67h2M11 68h3M21 68h3M12 69h3M20 69h4M14 70h1M20 70h2" />
</svg>