<svg xmlns="http://www.w3.org/2000/svg" viewBox="0 -0.5 80 80" shape-rendering="crispEdges">
<metadata>Made with Pixels to Svg https://codepen.io/shshaw/pen/XbxvNj</metadata>
<path stroke="#636b7b" d="M31 16h6M29 17h2M37 17h2M45 17h6M27 18h2M32 18h1M39 18h1M51 18h2M55 27h1M43 30h1M55 30h1M44 31h1M46 31h1M51 31h1M56 31h1M29 35h1M29 36h1M28 37h1M28 38h1M28 39h1M34 51h1M34 54h1M34 55h1M21 56h2M33 56h1M13 57h4M20 57h1M23 57h1M31 57h2M12 58h1M17 58h3M24 58h1M29 58h2M12 59h1M24 59h1M28 59h1M38 59h2M12 60h1M24 60h1M36 60h2M39 60h1M13 61h1M23 61h1M33 61h3M13 62h1M23 62h1M32 62h1M40 62h2M13 63h1M22 63h1M32 63h1M12 64h1M21 64h1M32 64h1M11 65h1M20 65h1M33 65h1M18 66h1M33 66h1M10 67h1M32 67h1M11 68h4M18 68h1M32 68h1M17 69h1M32 69h1M16 70h1M31 70h1M16 71h1M31 71h1" />
<path stroke="#101010" d="M19 17h2M18 18h1M20 18h3M33 18h1M42 18h3M18 19h1M23 19h4M32 19h1M34 19h2M40 19h1M18 20h1M32 20h1M37 20h2M54 20h1M18 21h1M32 21h1M55 21h1M18 22h1M32 22h1M55 22h1M19 23h1M56 23h1M19 24h1M33 24h1M56 24h1M20 25h1M34 25h1M56 25h1M21 26h1M35 26h1M56 26h1M22 27h1M34 27h3M56 27h1M23 28h1M33 28h1M37 28h2M55 28h1M24 29h1M32 29h1M39 29h2M54 29h1M25 30h2M31 30h1M41 30h2M53 30h1M27 31h4M45 31h1M52 31h1M30 32h1M29 33h1M29 34h1M57 38h2M57 39h2M28 40h1M58 40h1M28 41h1M58 41h1M60 41h1M28 42h1M59 42h1M61 42h1M28 43h1M61 43h1M29 44h1M61 44h1M29 45h1M30 46h1M30 47h1M31 48h1M32 49h1M33 50h1M33 51h1M51 51h1M34 52h1M50 52h1M34 53h1M49 53h1M24 54h1M48 54h2M25 55h1M39 55h2M48 55h1M25 56h1M37 56h1M41 56h1M47 56h2M26 57h1M36 57h1M41 57h1M47 57h1M26 58h1M33 58h3M41 58h1M47 58h1M26 59h2M31 59h2M41 59h1M47 59h1M25 60h2M30 60h1M41 60h1M48 60h1M24 61h1M29 61h1M41 61h1M48 61h1M10 62h1M22 62h1M29 62h1M48 62h1M10 63h1M21 63h1M29 63h1M40 63h1M49 63h1M9 64h1M20 64h1M29 64h1M49 64h1M9 65h1M19 65h1M30 65h1M46 65h1M49 65h1M8 66h1M19 66h1M30 66h1M46 66h1M50 66h1M8 67h1M18 67h1M29 67h2M46 67h1M50 67h1M8 68h1M17 68h1M29 68h1M46 68h1M50 68h1M8 69h2M16 69h1M28 69h2M37 69h1M50 69h1M9 70h7M28 70h1M37 70h1M50 70h1M15 71h1M28 71h1M36 71h1M49 71h1" />
<path stroke="#84ded6" d="M31 17h6M29 18h3M34 18h5M45 18h6M27 19h5M36 19h4M46 19h7M30 20h2M47 20h7M31 21h1M47 21h8M48 22h6M48 23h6M48 24h4M31 27h1M47 27h1M29 29h1M45 29h1M54 30h1M53 31h2M53 32h2M53 33h3M30 34h1M54 34h2M30 35h1M54 35h1M30 36h1M29 37h2M29 38h2M29 39h2M29 40h2M29 41h2M29 42h3M30 43h2M30 44h2M31 45h2M31 46h2M32 47h1M32 48h2M33 49h1M13 58h4M31 58h2M13 59h6M29 59h2M13 60h5M27 60h3M14 61h2M25 61h4M24 62h5M23 63h6M23 64h6M24 65h1M26 65h4M23 66h1M25 66h1M27 66h3M24 67h1M26 67h1" />
<path stroke="#c5deef" d="M19 18h1M19 19h3M33 19h1M19 20h5M33 20h1M19 21h8M33 21h2M20 22h12M33 22h4M20 23h12M34 23h5M21 24h11M34 24h9M22 25h10M35 25h13M22 26h10M36 26h12M23 27h8M37 27h10M24 28h7M39 28h8M26 29h3M41 29h4" />
<path stroke="#737b94" d="M22 19h1M41 19h1M53 19h1M36 20h1M39 20h1M33 23h1M25 29h1M27 30h1" />
<path stroke="#ffffff" d="M42 19h3M24 20h6M34 20h2M40 20h6M27 21h4M35 21h12M37 22h10M39 23h9M43 24h5M58 36h1M58 37h1" />
<path stroke="#adefde" d="M45 19h1M46 20h1M47 22h1M55 31h1M55 32h2M56 33h2" />
<path stroke="#7b94ad" d="M19 22h1M54 22h1M32 23h1M54 23h2M20 24h1M32 24h1M52 24h4M21 25h1M32 25h2M48 25h8M32 26h3M48 26h8M32 27h2M48 27h7M31 28h2M34 28h3M47 28h8M30 29h2M33 29h6M46 29h8M28 30h3M32 30h9M44 30h9M31 31h13M47 31h4M31 32h22M57 32h1M30 33h23M58 33h1M31 34h23M31 35h23M31 36h24M31 37h24M31 38h24M31 39h24M31 40h24M31 41h25M32 42h24M29 43h1M32 43h24M32 44h23M30 45h1M33 45h21M33 46h21M31 47h1M33 47h21M34 48h19M34 49h17M34 50h15M35 51h13M35 52h12M35 53h11M35 54h10M35 55h4M41 55h4M34 56h3M42 56h3M21 57h2M33 57h3M42 57h2M20 58h4M42 58h2M19 59h5M42 59h2M18 60h6M38 60h1M42 60h2M16 61h7M36 61h5M42 61h3M14 62h8M33 62h7M42 62h3M14 63h7M33 63h7M41 63h4M13 64h7M22 64h1M33 64h13M12 65h7M21 65h3M25 65h1M34 65h12M11 66h7M20 66h3M24 66h1M26 66h1M34 66h12M11 67h7M19 67h5M25 67h1M27 67h2M33 67h13M15 68h2M19 68h10M33 68h13M18 69h10M33 69h4M38 69h7M17 70h11M32 70h5M38 70h7M17 71h11M32 71h4M37 71h7" />
<path stroke="#9c7b52" d="M56 34h1M58 34h1M55 35h1M55 36h1M55 40h1M57 41h1M56 42h1M58 42h1M57 43h1M56 44h1M55 45h1M57 46h1M59 46h1M54 47h1M58 47h1M54 48h1M56 48h1M53 49h1M52 50h1M50 51h1M48 52h2M47 53h2M46 54h2M24 55h1M46 55h2M23 56h2M40 56h1M46 56h1M24 57h2M45 57h2M25 58h1M45 58h2M25 59h1M37 59h1M45 59h1M31 60h2M30 61h3M12 62h1M30 62h2M11 63h2M30 63h2M10 64h2M30 64h2M10 65h1M31 65h2M9 66h2M31 66h2M49 66h1M9 67h1M31 67h1M49 67h1M9 68h2M30 68h2M48 68h2M10 69h6M30 69h2M46 69h4M29 70h2M46 70h3M29 71h2M45 71h4" />
<path stroke="#efbd8c" d="M57 34h1M56 35h3M56 36h1M56 37h1M56 38h1M59 38h1M56 39h1M59 39h1M56 40h1M59 40h1M56 41h1M59 41h1M57 42h1M60 42h1M59 43h2M57 44h4M56 45h4M55 46h2M55 47h3M53 48h1M52 49h1M50 50h2M49 51h1M21 54h3M12 55h4M19 55h5M11 56h10M38 56h2M11 57h2M17 57h3M37 57h4M10 58h2M36 58h5M10 59h2M33 59h4M40 59h1M46 59h1M10 60h2M33 60h3M40 60h1M45 60h2M11 61h2M46 61h2M11 62h1M46 62h2M46 63h2M47 64h2M47 65h2M47 66h2M47 67h2M47 68h1" />
<path stroke="#5a4a4a" d="M59 35h1M57 36h1M59 36h1M55 37h1M57 37h1M59 37h1M55 38h1M55 39h1M60 39h1M57 40h1M60 40h1M56 43h1M58 43h1M55 44h1M54 45h1M60 45h1M54 46h1M58 46h1M60 46h1M59 47h1M55 48h1M57 48h2M51 49h1M54 49h3M49 50h1M53 50h2M48 51h1M52 51h1M47 52h1M21 53h3M46 53h1M12 54h4M19 54h2M45 54h1M11 55h1M16 55h3M45 55h1M10 56h1M45 56h1M10 57h1M44 57h1M9 58h1M44 58h1M9 59h1M44 59h1M9 60h1M44 60h1M47 60h1M10 61h1M45 61h1M45 62h1M45 63h1M48 63h1M46 64h1M45 69h1M45 70h1M49 70h1M44 71h1" />
</svg>