<svg xmlns="http://www.w3.org/2000/svg" viewBox="0 -0.5 80 80" shape-rendering="crispEdges">
<metadata>Made with Pixels to Svg https://codepen.io/shshaw/pen/XbxvNj</metadata>
<path stroke="#5a5a63" d="M32 6h6M30 7h3M37 7h3M41 7h5M30 8h1M40 8h1M45 8h3M41 9h1M47 9h2M27 10h3M41 10h1M25 11h3M49 11h2M24 12h1M51 12h1M23 14h2M49 14h1M23 18h2M27 19h1M51 19h2M25 20h2M23 22h2M19 23h4M32 23h1M41 23h1M47 23h1M30 24h1M33 24h1M39 24h1M27 25h2M30 25h1M33 25h1M39 25h1M23 26h1M27 26h1" />
<path stroke="#ffffff" d="M33 7h4M31 8h8M41 8h4M30 9h10M42 9h5M30 10h11M42 10h6M28 11h20M26 12h18M45 12h1M47 12h2M50 12h1M25 13h3M33 13h10M44 13h1M46 13h1M48 13h1M50 13h1M25 14h1M35 14h7M43 14h1M45 14h1M47 14h1M50 14h2M24 15h1M36 15h5M44 15h1M46 15h1M49 15h3M50 16h2M52 26h2M53 27h2M54 28h1" />
<path stroke="#101010" d="M29 8h1M29 9h1M48 10h1M48 11h1M25 12h1M49 12h1M24 13h1M49 13h1M51 13h1M52 14h1M23 15h1M52 15h1M23 16h1M52 16h1M23 17h1M52 17h1M52 18h1M24 19h1M24 20h1M51 20h1M25 21h1M50 21h1M41 22h1M49 22h3M40 23h1M42 23h1M48 23h1M51 23h2M19 24h1M31 24h2M40 24h1M43 24h5M53 24h1M20 25h2M29 25h1M34 25h5M54 25h1M22 26h1M24 26h3M55 26h1M56 27h1M57 28h1M57 29h1M58 30h1M59 32h1M59 33h1M60 34h1M60 35h1M61 37h1M61 38h1M61 39h1M61 40h1M61 41h1M61 42h1M61 43h1M16 44h1M61 44h1M17 45h1M60 45h2M17 46h1M60 46h1M17 47h1M60 47h1M18 48h1M60 48h1M18 49h1M59 49h1M19 50h1M59 50h1M19 51h1M58 51h1M20 52h1M58 52h1M20 53h1M57 53h1M21 54h1M56 54h2M22 55h1M55 55h2M23 56h1M54 56h2M24 57h1M53 57h2M25 58h2M31 58h1M52 58h2M27 59h4M39 59h1M50 59h2M28 60h1M39 60h1M47 60h3M40 61h1M44 61h4M30 62h2M40 62h4M29 63h1M31 63h1M40 63h2M25 64h1M35 64h2M42 64h1M32 65h1M34 65h1M37 65h1M42 65h1M27 66h2M32 66h2M41 66h1M43 66h1M24 67h3M28 67h1M41 67h1M43 67h1M28 68h1M41 68h1M44 68h1M28 69h1M31 69h1M41 69h1M44 69h1M28 70h1M30 70h1M37 70h1M40 70h2M44 70h1M25 71h1M28 71h2M35 71h1M37 71h1M25 72h1M36 72h2M45 72h1M45 73h1M45 74h1M24 75h1M45 75h1M45 76h1M44 77h1M23 78h1M44 78h1M22 79h1" />
<path stroke="#c5d6e6" d="M39 8h1M40 9h1M44 12h1M46 12h1M28 13h5M43 13h1M45 13h1M47 13h1M26 14h9M42 14h1M44 14h1M46 14h1M48 14h1M25 15h11M41 15h3M45 15h1M47 15h2M24 16h26M24 17h28M25 18h27M25 19h2M28 19h23M27 20h24M26 21h24M25 22h16M42 22h7M23 23h9M33 23h7M43 23h4M20 24h10M34 24h5M22 25h5" />
<path stroke="#ffef6b" d="M49 23h2M41 24h2M48 24h5M31 25h2M40 25h11M53 25h1M28 26h23M54 26h1M22 27h30M55 27h1M21 28h7M42 28h11M56 28h1M21 29h4M45 29h9M56 29h1M20 30h3M47 30h9M57 30h1M20 31h2M48 31h10M19 32h2M48 32h11M19 33h1M49 33h10M18 34h1M49 34h11M50 35h10M51 36h4M57 36h3M58 37h3M59 38h2M59 39h2M59 40h2M60 41h1M60 42h1M60 43h1M30 60h3M28 61h5M27 62h2" />
<path stroke="#fff7b5" d="M51 25h2M51 26h1M52 27h1M53 28h1M55 28h1M54 29h2M56 30h1" />
<path stroke="#8c6b29" d="M21 27h1M20 28h1M20 29h1M19 30h1M18 31h2M58 31h2M18 32h1M18 33h1M17 34h1M17 35h1M16 36h2M60 36h2M16 37h1M16 38h1M16 39h1M16 40h1M16 41h1M16 42h1M16 43h1M17 44h1M60 44h1M59 48h1M58 50h1M57 52h1M32 58h1M38 58h1M51 58h1M49 59h1M46 60h1M27 61h1M43 61h1M26 62h1M25 63h1M28 63h1M27 64h1M31 64h2M40 64h2M24 65h1M41 65h1M24 66h1M38 66h1M26 68h1M38 68h1M26 69h1M32 69h2M39 69h1M25 70h1M34 70h1M45 71h1M25 73h1M24 74h1M24 76h1M23 77h1M44 79h1" />
<path stroke="#e6c510" d="M28 28h14M25 29h20M23 30h24M22 31h26M21 32h27M20 33h29M19 34h30M18 35h32M18 36h33M55 36h2M17 37h41M17 38h42M17 39h42M17 40h42M17 41h43M17 42h43M17 43h43M18 44h42M18 45h42M18 46h42M18 47h42M19 48h40M19 49h40M20 50h38M20 51h38M21 52h36M21 53h36M22 54h34M23 55h32M24 56h30M25 57h28M27 58h4M33 58h5M39 58h12M31 59h8M40 59h9M29 60h1M33 60h6M40 60h6M33 61h6M41 61h2M29 62h1M32 62h8M26 63h2M32 63h8M26 64h1M33 64h2M37 64h3M25 65h3M33 65h1M38 65h2M25 66h2M39 66h2M29 67h1M37 67h4M29 68h9M39 68h2M29 69h2M34 69h4M40 69h1M29 70h1M35 70h2M36 71h1" />
<path stroke="#c59c08" d="M39 61h1M30 63h1M28 64h3M28 65h4M35 65h2M40 65h1M29 66h3M34 66h4M30 67h7" />
</svg>