<svg xmlns="http://www.w3.org/2000/svg" viewBox="0 -0.5 80 80" shape-rendering="crispEdges">
<metadata>Made with Pixels to Svg https://codepen.io/shshaw/pen/XbxvNj</metadata>
<path stroke="#5a2108" d="M21 8h2M20 9h1M22 9h1M19 10h1M18 11h1M17 12h1M17 13h1M16 14h1M15 15h1M15 16h1M36 16h7M14 17h1M32 17h3M42 17h1M14 18h1M30 18h2M13 19h1M28 19h2M13 20h1M27 20h1M12 21h1M20 21h1M26 21h1M12 22h1M25 22h1M11 23h1M24 23h1M11 24h1M23 24h1M11 25h1M23 25h1M33 25h10M10 26h1M22 26h1M31 26h1M42 26h5M21 27h1M46 27h5M50 28h3M53 29h2M9 30h1M55 30h2M21 31h1M57 31h3M60 32h7M22 33h1M56 33h2M66 33h1M58 34h3M65 34h1M63 35h2M55 36h1M60 36h1M60 38h1M67 44h1M68 45h1M67 46h1M57 51h6M55 54h4M60 54h1M60 55h3M56 57h1M59 57h1M60 58h3M62 62h1M56 75h1" />
<path stroke="#bd1952" d="M21 9h1M20 10h2M19 11h3M19 12h3M18 13h4M17 14h4M16 15h5M16 16h5M15 17h6M36 17h6M15 18h6M32 18h8M14 19h7M30 19h8M14 20h7M29 20h8M13 21h7M27 21h9M13 22h7M26 22h9M13 23h4M18 23h2M25 23h9M12 24h5M18 24h2M24 24h8M12 25h4M18 25h2M24 25h6M4 26h1M12 26h4M18 26h2M23 26h1M25 26h4M33 26h9M4 27h1M12 27h3M18 27h2M25 27h2M32 27h14M4 28h1M12 28h3M19 28h1M25 28h1M32 28h18M3 29h2M13 29h1M19 29h1M31 29h22M3 30h2M13 30h1M19 30h1M31 30h24M3 31h3M31 31h26M2 32h4M32 32h28M2 33h4M33 33h5M44 33h12M58 33h8M2 34h5M48 34h10M3 35h4M51 35h12M3 36h3M53 36h2M57 36h3M4 37h2M4 38h1M51 39h5M60 39h1M53 40h9M55 41h9M57 42h8M58 43h8M59 44h8M61 45h4M67 45h1M62 46h2M68 46h1M68 47h1M70 54h1M37 57h4M36 58h7M19 59h1M35 59h9M35 60h10M35 61h11M17 62h1M35 62h11M8 63h1M36 63h11M36 64h11M6 65h1M11 65h1M37 65h1M39 65h1M41 65h6M18 66h1M38 66h1M40 66h1M42 66h6M7 67h1M14 67h1M39 67h1M41 67h7M16 68h1M29 68h1M40 68h1M42 68h5M8 69h1M42 69h4" />
<path stroke="#101010" d="M22 10h1M22 11h1M22 12h1M22 13h1M22 14h1M21 15h1M21 16h1M21 17h1M21 18h1M40 18h2M21 19h1M38 19h2M21 20h1M37 20h1M36 21h1M20 22h1M35 22h1M20 23h1M34 23h1M20 24h1M33 24h1M4 25h1M20 25h1M32 25h1M3 26h1M5 26h1M20 26h1M32 26h1M3 27h1M5 27h1M10 27h1M20 27h1M31 27h1M2 28h1M5 28h1M10 28h1M21 28h1M31 28h1M2 29h1M5 29h1M10 29h1M21 29h1M30 29h1M2 30h1M6 30h1M21 30h1M30 30h1M1 31h2M6 31h1M9 31h1M1 32h1M6 32h1M9 32h1M22 32h1M1 33h1M7 33h1M9 33h1M0 34h2M7 34h1M9 34h1M61 34h4M0 35h1M8 35h2M0 36h1M8 36h2M56 36h1M61 36h2M0 37h1M8 37h2M57 37h3M0 38h1M9 38h1M0 39h1M9 39h2M61 39h2M0 40h1M9 40h2M63 40h1M0 41h1M10 41h1M64 41h1M0 42h2M10 42h2M65 42h1M1 43h1M11 43h1M48 43h1M66 43h1M1 44h1M11 44h1M36 44h2M44 44h2M49 44h3M1 45h1M12 45h1M39 45h5M46 45h4M52 45h2M65 45h2M1 46h2M12 46h1M37 46h2M54 46h1M64 46h1M69 46h1M2 47h1M13 47h1M35 47h2M55 47h1M64 47h1M67 47h1M70 47h1M2 48h1M34 48h2M56 48h2M63 48h1M67 48h1M71 48h1M2 49h1M33 49h1M58 49h2M63 49h1M67 49h1M72 49h2M2 50h2M32 50h1M60 50h3M68 50h1M3 51h1M31 51h1M68 51h1M0 52h2M3 52h2M31 52h1M56 52h1M69 52h1M79 52h1M0 53h1M2 53h1M4 53h1M30 53h1M57 53h2M69 53h1M79 53h1M0 54h1M3 54h1M5 54h1M30 54h1M59 54h1M78 54h1M0 55h1M4 55h3M29 55h1M55 55h1M70 55h2M76 55h2M0 56h1M6 56h2M29 56h1M56 56h1M72 56h1M74 56h2M0 57h1M7 57h2M29 57h1M57 57h2M68 57h1M73 57h1M1 58h1M9 58h1M28 58h1M56 58h1M67 58h1M73 58h1M1 59h1M10 59h1M28 59h1M57 59h1M67 59h1M74 59h1M1 60h1M45 60h1M58 60h2M67 60h1M74 60h1M2 61h1M28 61h1M46 61h1M60 61h2M66 61h1M74 61h1M2 62h1M46 62h1M66 62h1M74 62h1M3 63h1M47 63h1M66 63h1M68 63h2M73 63h1M3 64h1M47 64h1M66 64h2M70 64h4M4 65h1M47 65h2M72 65h1M4 66h1M29 66h1M48 66h1M71 66h2M5 67h1M29 67h1M48 67h1M64 67h1M70 67h2M6 68h1M30 68h1M48 68h1M64 68h1M66 68h5M4 69h1M7 69h1M30 69h1M48 69h1M65 69h2M4 70h1M8 70h1M30 70h1M48 70h1M53 70h1M65 70h1M4 71h1M9 71h1M30 71h1M48 71h1M53 71h1M65 71h1M4 72h1M10 72h1M30 72h1M48 72h1M53 72h1M66 72h1M4 73h1M11 73h1M30 73h1M47 73h2M54 73h1M66 73h1M5 74h1M12 74h1M30 74h1M47 74h1M55 74h1M66 74h2M5 75h1M13 75h2M30 75h2M47 75h1M52 75h4M67 75h1M5 76h1M15 76h3M31 76h1M46 76h7M56 76h1M67 76h1M6 77h1M18 77h3M31 77h1M46 77h1M57 77h1M67 77h2M6 78h1M18 78h1M21 78h12M46 78h1M57 78h1M68 78h1M5 79h1M17 79h1M32 79h1M46 79h1M58 79h1M69 79h1" />
<path stroke="#7b1042" d="M18 12h1M21 14h1M35 17h1M28 20h1M12 23h1M17 23h1M17 24h1M32 24h1M16 25h2M30 25h2M11 26h1M16 26h2M24 26h1M29 26h2M11 27h1M15 27h3M22 27h3M27 27h4M3 28h1M11 28h1M15 28h4M20 28h1M22 28h3M26 28h5M11 29h2M14 29h5M20 29h1M22 29h8M5 30h1M10 30h3M14 30h5M20 30h1M22 30h8M10 31h11M22 31h9M10 32h12M23 32h9M6 33h1M10 33h12M23 33h10M38 33h6M10 34h31M46 34h2M1 35h2M7 35h1M10 35h28M44 35h7M1 36h2M6 36h2M10 36h26M42 36h11M1 37h3M6 37h2M10 37h24M40 37h4M50 37h7M1 38h3M5 38h4M10 38h23M53 38h7M1 39h8M11 39h20M49 39h2M56 39h4M1 40h8M11 40h19M52 40h1M62 40h1M1 41h9M11 41h18M54 41h1M2 42h8M12 42h16M56 42h1M2 43h9M12 43h15M57 43h1M2 44h9M12 44h14M2 45h10M13 45h13M44 45h2M50 45h2M60 45h1M3 46h9M13 46h12M39 46h15M61 46h1M65 46h2M3 47h10M14 47h10M37 47h18M62 47h2M65 47h2M3 48h21M36 48h20M64 48h2M3 49h21M34 49h24M64 49h2M4 50h19M33 50h27M63 50h2M67 50h1M4 51h19M32 51h25M63 51h3M67 51h1M5 52h18M32 52h24M57 52h12M1 53h1M5 53h17M31 53h26M59 53h10M1 54h2M4 54h1M6 54h16M31 54h24M61 54h8M1 55h3M7 55h15M30 55h25M56 55h4M63 55h6M1 56h5M8 56h14M30 56h26M57 56h12M1 57h6M9 57h8M18 57h4M30 57h7M41 57h15M60 57h8M2 58h7M10 58h7M19 58h3M29 58h7M43 58h13M57 58h3M63 58h4M2 59h8M11 59h6M20 59h2M29 59h6M44 59h13M58 59h9M2 60h15M20 60h2M28 60h7M46 60h12M60 60h7M3 61h14M21 61h1M29 61h6M47 61h13M62 61h4M3 62h3M7 62h10M28 62h7M47 62h15M63 62h3M4 63h2M9 63h9M28 63h8M48 63h18M4 64h2M10 64h8M28 64h8M48 64h18M68 64h2M5 65h1M12 65h6M28 65h9M38 65h1M40 65h1M49 65h23M5 66h2M13 66h5M28 66h1M30 66h8M39 66h1M41 66h1M49 66h22M6 67h1M15 67h4M30 67h9M40 67h1M49 67h15M65 67h5M5 68h1M7 68h1M17 68h2M31 68h9M41 68h1M47 68h1M49 68h15M65 68h1M5 69h2M31 69h11M46 69h2M50 69h2M53 69h12M5 70h3M32 70h16M50 70h1M54 70h11M5 71h3M33 71h5M39 71h9M54 71h11M6 72h1M33 72h4M40 72h4M45 72h3M54 72h12M34 73h2M40 73h3M45 73h2M55 73h11M13 74h1M41 74h1M45 74h1M56 74h10M15 75h1M57 75h10M6 76h1M18 76h1M57 76h2M60 76h4M65 76h2M21 77h1M58 77h1M61 77h3M66 77h1M62 78h1" />
<path stroke="#de945a" d="M41 34h1M38 35h1M43 35h1M36 36h1M41 36h1M34 37h1M44 37h1M49 37h1M52 38h1M31 39h1M51 40h1M53 41h1M26 44h1M58 44h1M59 45h1M24 47h1M56 47h1M60 47h2M58 48h5M60 49h3M68 49h1M23 50h1M69 50h1M69 51h3M70 52h3M22 53h1M70 53h5M71 54h7M22 55h1M24 55h1M72 55h4M23 56h1M25 56h4M71 56h1M17 57h1M22 57h1M24 57h1M26 57h3M69 57h4M17 58h2M23 58h5M68 58h3M17 59h2M22 59h6M68 59h2M73 59h1M17 60h3M22 60h6M68 60h2M17 61h4M22 61h6M68 61h3M6 62h1M18 62h10M69 62h3M73 62h1M6 63h2M18 63h10M70 63h3M6 64h4M18 64h10M7 65h4M18 65h10M7 66h6M19 66h9M8 67h6M19 67h10M8 68h8M19 68h10M9 69h21M49 69h1M52 69h1M9 70h21M31 70h1M49 70h1M51 70h2M8 71h1M10 71h20M31 71h1M38 71h1M49 71h4M5 72h1M7 72h3M11 72h19M31 72h2M37 72h2M44 72h1M49 72h4M5 73h6M12 73h18M31 73h3M36 73h4M43 73h2M49 73h5M6 74h6M14 74h16M31 74h10M42 74h3M46 74h1M48 74h7M6 75h7M16 75h14M32 75h15M48 75h4M7 76h8M19 76h12M32 76h14M7 77h11M22 77h9M32 77h14M59 77h1M64 77h1M7 78h11M33 78h13M58 78h4M63 78h5M6 79h11M33 79h13M59 79h10" />
<path stroke="#ffd6a5" d="M42 34h4M39 35h4M37 36h4M35 37h5M45 37h4M33 38h19M32 39h17M30 40h21M29 41h24M28 42h11M42 42h5M48 42h8M27 43h15M45 43h3M50 43h7M27 44h8M39 44h5M46 44h3M52 44h6M26 45h13M54 45h5M25 46h12M55 46h6M25 47h10M57 47h3M69 47h1M24 48h10M68 48h3M24 49h9M69 49h3M24 50h8M70 50h4M23 51h8M72 51h4M23 52h8M75 52h3M23 53h7M78 53h1M22 54h8M23 55h1M25 55h4M22 56h1M24 56h1M23 57h1M25 57h1M22 58h1M71 58h2M70 59h3M70 60h4M71 61h3M72 62h1" />
<path stroke="#635a42" d="M39 42h3M47 42h1M42 43h3M49 43h1M35 44h1M38 44h1M74 50h2M76 51h2M73 52h2M78 52h1M75 53h3M73 56h1M32 71h1M39 72h1M59 76h1M64 76h1M60 77h1M65 77h1" />
<path stroke="#b55a31" d="M66 48h1M65 50h1M66 51h1M69 54h1M69 55h1M69 56h2" />
<path stroke="#f78c4a" d="M66 49h1M66 50h1" />
<path stroke="#b5b5d6" d="M67 61h1" />
<path stroke="#ffffff" d="M67 62h2M67 63h1" />
</svg>