<svg xmlns="http://www.w3.org/2000/svg" viewBox="0 -0.5 80 80" shape-rendering="crispEdges">
<metadata>Made with Pixels to Svg https://codepen.io/shshaw/pen/XbxvNj</metadata>
<path stroke="#e694ce" d="M22 13h7M20 14h2M29 14h2M19 15h1M39 27h1M39 28h2M39 29h3M40 30h2M18 56h1M18 57h2M18 58h3M18 59h4M18 60h4M23 60h1M19 61h2M22 61h1M24 61h1M19 62h1M21 62h1M23 62h1M25 62h1M20 63h1M22 63h1M57 68h1M59 68h1M56 69h1M58 69h1M57 70h1" />
<path stroke="#ffd6f7" d="M22 14h7M20 15h11M19 16h14M18 17h16M18 18h17M17 19h6M29 19h6M17 20h5M31 20h4M18 21h3M33 21h1M35 21h1M34 22h1M36 22h1M35 23h1M46 31h3M49 32h3M31 33h2M50 33h3M30 34h6M29 35h8M28 36h10M27 37h11M26 38h13M26 39h13M25 40h14M25 41h14M24 42h15M24 43h15M23 44h16M23 45h15M23 46h15M22 47h16M22 48h16M22 49h15M22 50h15M23 51h13M58 51h2M23 52h13M59 52h2M24 53h11M26 54h8M29 55h4" />
<path stroke="#6b426b" d="M31 15h2M18 16h1M33 16h1M17 17h1M34 17h1M17 18h1M35 18h1M16 19h1M24 19h3M35 19h2M16 20h1M26 20h2M16 21h1M27 21h1M36 21h1M16 22h1M27 22h1M16 23h1M37 23h1M17 24h1M28 24h4M17 25h1M26 25h1M31 25h3M18 26h1M33 26h2M39 26h2M19 27h2M33 27h1M35 27h2M40 27h2M21 28h1M32 28h1M43 31h2M50 31h2M31 32h2M40 32h2M48 32h1M34 33h1M39 33h1M47 33h1M54 35h1M54 39h1M24 40h1M55 40h1M56 41h1M23 42h1M56 42h1M22 43h1M57 43h1M22 44h1M57 44h1M22 45h1M58 45h1M21 46h1M59 46h2M21 47h1M61 47h1M21 48h1M19 49h1M21 49h1M59 49h1M62 49h2M21 50h1M55 50h2M59 50h2M18 51h1M21 51h1M60 51h2M17 52h1M22 52h1M63 52h1M17 53h1M23 53h1M62 53h1M17 54h1M25 54h1M61 54h1M17 55h1M26 55h2M17 56h1M30 56h4M51 56h1M56 56h1M35 57h15M17 61h2M18 62h1M19 64h1M20 66h1" />
<path stroke="#de94c5" d="M23 19h1M27 19h2M22 20h1M24 20h2M28 20h3M35 20h1M17 21h1M21 21h1M23 21h4M28 21h5M34 21h1M17 22h5M23 22h4M28 22h6M35 22h1M17 23h5M23 23h4M28 23h7M36 23h1M18 24h9M32 24h6M18 25h8M34 25h4M19 26h7M35 26h3M21 27h3M45 31h1M42 32h3M47 32h1M33 33h1M40 33h7M48 33h2M36 34h18M37 35h17M38 36h16M38 37h15M39 38h13M25 39h1M39 39h15M39 40h15M24 41h1M39 41h15M39 42h15M23 43h1M39 43h16M39 44h14M55 44h2M38 45h14M56 45h1M22 46h1M38 46h14M56 46h2M38 47h14M56 47h2M38 48h14M56 48h2M37 49h16M55 49h4M37 50h18M36 51h22M36 52h23M35 53h26M34 54h26M33 55h24M35 56h15" />
<path stroke="#bd6bbd" d="M23 20h1M22 21h1M22 22h1M22 23h1M38 26h1M34 27h1M37 27h2M33 28h6M32 29h7M32 30h8M45 30h4M32 31h10M49 31h1M52 31h1M33 32h7M45 32h2M52 32h2M30 33h1M53 33h2M54 34h1M27 36h1M26 37h1M25 38h1M52 38h2M24 39h1M23 41h1M56 43h1M53 44h2M52 45h4M57 45h1M52 46h4M52 47h4M52 48h4M53 49h2M20 50h1M22 51h1M24 54h1M28 55h1M29 56h1M34 56h1M50 56h1M34 57h1M50 57h1M64 58h1M63 59h2M22 60h1M61 60h4M21 61h1M23 61h1M25 61h1M59 61h5M20 62h1M22 62h1M24 62h1M26 62h4M55 62h9M19 63h1M21 63h1M23 63h12M48 63h16M20 64h43M20 65h43M21 66h41M21 67h41M22 68h35M58 68h1M60 68h1M23 69h33M57 69h1M59 69h1M24 70h33M58 70h1M25 71h33" />
<path stroke="#101010" d="M36 20h1M37 21h1M37 22h1M27 23h1M38 23h1M27 24h1M38 24h1M27 25h1M38 25h1M26 26h1M24 27h2M32 27h1M22 28h3M41 28h1M31 29h1M42 29h1M31 30h1M42 30h1M31 31h1M42 31h1M35 33h4M29 34h1M28 35h1M54 36h1M53 37h1M54 41h2M54 42h2M55 43h1M58 46h1M58 47h1M19 48h2M58 48h1M62 48h1M18 49h1M18 50h1M57 50h2M63 50h1M63 51h1M61 52h1M64 52h1M61 53h1M64 53h1M60 54h1M64 54h2M57 55h3M65 55h1M52 56h4M65 56h1M17 57h1M65 57h1M17 58h1M65 58h1M17 59h1M65 59h1M17 60h1M65 60h1M64 61h2M64 62h1M18 63h1M64 63h1M18 64h1M63 64h2M19 65h1M63 65h1M19 66h1M62 66h2M20 67h1M62 67h1M20 68h2M61 68h2M21 69h2M60 69h2M22 70h2M59 70h2M23 71h2M58 71h2" />
<path stroke="#ffffff" d="M54 40h1M59 47h1M59 48h3M20 49h1M60 49h2M19 50h1M19 51h2M18 52h4M18 53h5M18 54h6M18 55h7M19 56h9M20 57h12M21 58h10M22 59h8M24 60h5M26 61h2" />
<path stroke="#d6bdde" d="M60 47h1M61 50h2M62 51h1M62 52h1M63 53h1M62 54h2M25 55h1M60 55h5M28 56h1M57 56h8M32 57h2M51 57h14M31 58h33M30 59h33M29 60h32M28 61h31M30 62h25M35 63h13" />
</svg>