<svg xmlns="http://www.w3.org/2000/svg" viewBox="0 -0.5 80 80" shape-rendering="crispEdges">
<metadata>Made with Pixels to Svg https://codepen.io/shshaw/pen/XbxvNj</metadata>
<path stroke="#c5733a" d="M37 8h9M33 9h4M45 9h1M30 10h4M47 10h1M28 11h2M48 11h2M27 12h1M49 12h2M26 13h1M49 13h3M25 14h1M50 14h2M24 15h1M50 15h3M57 15h7M50 16h3M55 16h3M64 16h3M50 17h3M55 17h1M66 17h3M23 18h1M49 18h4M69 18h2M23 19h1M49 19h3M70 19h1M22 20h2M48 20h3M71 20h1M16 21h2M22 21h2M47 21h3M13 22h3M22 22h2M45 22h4M50 22h1M11 23h2M20 23h1M22 23h3M42 23h6M49 23h1M10 24h1M20 24h1M22 24h5M39 24h9M9 25h1M20 25h1M22 25h4M29 25h18M48 25h1M8 26h1M20 26h1M22 26h4M30 26h17M48 26h2M7 27h1M20 27h1M22 27h5M30 27h16M47 27h3M7 28h1M20 28h2M23 28h23M47 28h6M6 29h1M20 29h2M23 29h22M47 29h10M6 30h1M19 30h3M23 30h22M46 30h15M66 30h4M5 31h3M19 31h4M24 31h8M40 31h5M46 31h25M5 32h2M19 32h4M25 32h5M42 32h2M46 32h8M57 32h10M68 32h3M4 33h3M11 33h4M19 33h5M25 33h3M46 33h7M58 33h8M69 33h3M75 33h1M4 34h2M11 34h5M18 34h6M26 34h1M46 34h7M58 34h8M69 34h7M4 35h2M10 35h14M46 35h7M59 35h7M69 35h7M4 36h2M10 36h15M46 36h8M59 36h8M68 36h8M3 37h4M9 37h5M16 37h9M46 37h8M59 37h17M3 38h10M16 38h8M46 38h9M58 38h4M65 38h11M3 39h10M15 39h9M46 39h15M66 39h10M3 40h5M10 40h14M47 40h14M67 40h9M3 41h4M10 41h13M47 41h14M67 41h8M3 42h4M11 42h12M48 42h14M66 42h9M3 43h4M11 43h12M48 43h27M3 44h4M11 44h12M52 44h22M3 45h5M10 45h13M55 45h19M4 46h18M47 46h6M58 46h15M4 47h17M45 47h13M60 47h12M4 48h15M21 48h2M44 48h16M62 48h9M5 49h12M19 49h5M42 49h20M63 49h7M5 50h10M17 50h8M41 50h13M57 50h6M65 50h3M6 51h8M15 51h11M40 51h7M49 51h4M57 51h7M6 52h7M14 52h13M39 52h7M49 52h4M57 52h8M7 53h5M13 53h16M36 53h1M38 53h7M49 53h4M56 53h9M8 54h3M12 54h3M18 54h13M37 54h7M48 54h18M12 55h2M19 55h14M37 55h7M47 55h19M11 56h3M19 56h15M36 56h22M60 56h6M10 57h5M19 57h15M35 57h4M42 57h15M61 57h6M10 58h16M29 58h5M35 58h3M43 58h6M52 58h5M61 58h6M9 59h16M29 59h4M35 59h4M42 59h6M52 59h4M61 59h6M9 60h7M19 60h6M28 60h5M34 60h13M51 60h5M60 60h8M8 61h3M12 61h3M20 61h13M34 61h13M50 61h6M60 61h8M8 62h2M13 62h3M20 62h13M34 62h23M59 62h9M8 63h2M14 63h3M19 63h14M34 63h8M44 63h24M8 64h3M14 64h9M27 64h6M34 64h7M45 64h23M8 65h4M14 65h7M27 65h6M34 65h6M45 65h23M9 66h11M26 66h7M34 66h7M44 66h24M9 67h12M25 67h8M34 67h33M9 68h25M35 68h32M10 69h24M35 69h32M10 70h24M35 70h31M11 71h23M36 71h30M12 72h21M37 72h28" />
<path stroke="#ef9c31" d="M37 9h8M34 10h13M30 11h18M28 12h21M27 13h22M26 14h12M45 14h5M25 15h4M34 15h4M45 15h5M24 16h4M34 16h4M45 16h5M58 16h6M24 17h3M34 17h16M56 17h10M24 18h3M31 18h18M54 18h15M24 19h20M47 19h2M53 19h17M24 20h8M37 20h6M47 20h1M52 20h19M24 21h8M37 21h5M46 21h1M51 21h21M16 22h4M24 22h8M37 22h5M51 22h3M56 22h17M13 23h7M25 23h7M36 23h6M50 23h3M56 23h17M11 24h9M29 24h10M49 24h4M56 24h4M66 24h8M10 25h4M18 25h2M49 25h4M55 25h4M67 25h7M9 26h4M19 26h1M50 26h9M67 26h8M8 27h5M19 27h1M50 27h9M67 27h8M8 28h5M19 28h1M53 28h6M67 28h8M7 29h6M18 29h2M57 29h3M67 29h9M7 30h12M70 30h6M10 31h6M71 31h5M11 32h4M71 32h5M72 33h3" />
<path stroke="#844210" d="M46 9h2M48 10h2M50 11h2M51 12h2M52 14h2M23 16h1M54 16h1M23 17h1M54 17h1M22 18h1M53 18h1M22 19h1M52 19h1M71 19h1M21 20h1M51 20h1M72 20h1M18 21h2M21 21h1M50 21h1M72 21h1M20 22h2M49 22h1M73 22h1M21 23h1M48 23h1M73 23h1M21 24h1M48 24h1M74 24h1M21 25h1M47 25h1M74 25h1M21 26h1M47 26h1M75 26h1M21 27h1M46 27h1M75 27h1M6 28h1M22 28h1M75 28h1M5 29h1M22 29h1M45 29h2M76 29h1M5 30h1M22 30h1M76 30h1M4 31h1M23 31h1M32 31h8M76 31h1M4 32h1M23 32h2M30 32h1M40 32h2M44 32h1M76 32h1M3 33h1M28 33h2M42 33h2M76 33h1M3 34h1M25 34h1M27 34h1M44 34h1M76 34h1M3 35h1M24 35h1M26 35h1M76 35h1M3 36h1M25 36h1M45 36h1M76 36h1M2 37h1M25 37h1M45 37h1M2 38h1M24 38h1M45 38h1M2 39h1M24 39h1M45 39h1M2 40h1M24 40h1M46 40h1M76 40h1M2 41h1M23 41h1M46 41h1M75 41h1M23 42h1M46 42h2M23 43h1M47 43h1M23 44h1M48 44h4M23 45h1M54 45h1M3 46h1M22 46h2M53 46h2M57 46h1M24 47h1M43 47h1M59 47h1M20 48h1M23 48h1M42 48h2M60 48h2M4 49h1M18 49h1M24 49h1M41 49h1M62 49h1M15 50h2M25 50h1M40 50h1M64 50h1M68 50h1M5 51h1M14 51h1M26 51h1M39 51h1M27 52h1M38 52h1M29 53h1M31 53h1M37 53h1M65 53h1M31 54h1M36 54h1M8 55h2M11 55h1M33 55h2M36 55h1M10 56h1M34 56h2M66 56h1M9 58h1M33 59h2M7 60h2M33 60h1M8 66h1M8 67h1M67 67h1M34 68h1M9 69h1M9 70h1M66 70h1M10 71h1M34 71h1M11 72h1M33 72h2" />
<path stroke="#101010" d="M52 13h1M53 15h1M53 16h1M53 17h1M20 21h1M46 28h1M45 30h1M45 31h1M45 32h1M24 33h1M44 33h2M24 34h1M32 34h5M45 34h1M25 35h1M30 35h9M45 35h1M29 36h11M28 37h4M37 37h4M76 37h1M27 38h3M39 38h2M76 38h1M27 39h2M40 39h2M76 39h1M26 40h3M41 40h1M26 41h2M41 41h1M2 42h1M26 42h2M41 42h1M75 42h1M2 43h1M26 43h2M41 43h1M75 43h1M2 44h1M26 44h2M40 44h1M47 44h1M74 44h1M2 45h1M27 45h1M40 45h1M46 45h8M74 45h1M2 46h1M27 46h2M39 46h1M45 46h2M55 46h2M73 46h1M3 47h1M21 47h3M28 47h1M38 47h1M44 47h1M58 47h1M72 47h2M3 48h1M19 48h1M24 48h1M29 48h1M36 48h2M71 48h2M3 49h1M17 49h1M25 49h1M30 49h6M70 49h2M4 50h1M63 50h1M69 50h2M4 51h1M64 51h5M5 52h1M13 52h1M28 52h1M65 52h1M5 53h2M12 53h1M30 53h1M66 53h1M6 54h2M11 54h1M32 54h4M66 54h1M7 55h1M10 55h1M35 55h1M66 55h1M8 56h2M67 56h1M9 57h1M34 57h1M67 57h1M8 58h1M34 58h1M67 58h1M8 59h1M67 59h2M78 59h1M68 60h1M78 60h1M7 61h1M33 61h1M68 61h1M78 61h1M7 62h1M33 62h1M68 62h1M77 62h1M7 63h1M33 63h1M68 63h1M76 63h2M7 64h1M33 64h1M68 64h1M75 64h2M7 65h1M33 65h1M68 65h1M72 65h3M7 66h1M33 66h1M68 66h4M7 67h1M33 67h1M68 67h1M8 68h1M67 68h1M8 69h1M34 69h1M67 69h1M8 70h1M34 70h1M67 70h1M9 71h1M35 71h1M66 71h1M9 72h2M35 72h2M65 72h2" />
<path stroke="#ffad63" d="M38 14h1M44 14h1M29 15h1M38 16h1M44 16h1M33 17h1M30 18h1M46 19h1M32 20h1M36 20h1M32 23h1M64 24h2M14 25h1M66 25h1M13 26h1M13 27h1M18 28h1M13 29h1M16 29h2M18 31h1" />
<path stroke="#ffefd6" d="M39 14h5M30 15h3M38 15h7M28 16h6M39 16h5M27 17h6M28 18h2M44 19h2M33 20h3M43 20h4M32 21h5M42 21h4M32 22h5M42 22h3M54 22h2M33 23h3M53 23h3M53 24h3M61 24h3M15 25h3M53 25h2M60 25h6M14 26h5M59 26h8M14 27h5M59 27h8M13 28h5M59 28h8M14 29h2M60 29h6M8 31h2M16 31h2" />
<path stroke="#f7d6b5" d="M33 15h1M27 18h1M27 24h2M60 24h1M26 25h3M59 25h1M26 26h4M27 27h3M66 29h1M61 30h5M7 32h4M15 32h4M54 32h3M67 32h1M7 33h4M15 33h4M53 33h5M66 33h3M6 34h5M16 34h2M53 34h5M66 34h3M6 35h4M53 35h6M66 35h3M6 36h4M54 36h5M67 36h1M7 37h2M14 37h2M54 37h5M13 38h3M55 38h3M62 38h3M13 39h2M61 39h5M8 40h2M61 40h6M7 41h3M61 41h6M7 42h4M62 42h4M7 43h4M7 44h4M8 45h2M54 50h3M47 51h2M53 51h4M46 52h3M53 52h4M45 53h4M53 53h3M15 54h3M44 54h4M14 55h5M44 55h3M14 56h5M58 56h2M15 57h4M39 57h3M57 57h4M26 58h3M38 58h5M49 58h3M57 58h4M25 59h4M39 59h3M48 59h4M56 59h5M16 60h3M25 60h3M47 60h4M56 60h4M11 61h1M15 61h5M47 61h3M56 61h4M10 62h3M16 62h4M57 62h2M10 63h4M17 63h2M42 63h2M11 64h3M23 64h4M41 64h4M12 65h2M21 65h6M40 65h5M20 66h6M41 66h3M21 67h4" />
<path stroke="#b56321" d="M31 32h1M39 32h1M31 34h1M37 34h2M43 34h1M29 35h1M39 35h1M44 35h1M40 36h1M32 37h5M41 37h1M30 38h9M41 38h1M26 39h1M29 39h11M29 40h12M28 41h13M28 42h13M28 43h13M46 43h1M28 44h12M45 44h2M26 45h1M28 45h12M44 45h2M29 46h10M44 46h1M27 47h1M29 47h9M30 48h6M27 51h1" />
<path stroke="#ffa529" d="M32 32h7M30 33h12M28 34h2M39 34h4M27 35h2M40 35h4M26 36h2M41 36h4M26 37h1M42 37h3M25 38h2M42 38h3M25 39h1M42 39h2M25 40h1M42 40h1M25 41h1M42 41h1M25 42h1M42 42h1M25 43h1M42 43h1M25 44h1M41 44h2M25 45h1M41 45h1M26 46h1M40 46h2M26 47h1M39 47h2M27 48h2M38 48h2M28 49h2M36 49h3M29 50h8" />
<path stroke="#c58c21" d="M30 34h1M28 36h1M27 37h1M44 39h1M43 40h3M24 41h1M43 41h3M24 42h1M43 42h3M24 43h1M43 43h3M24 44h1M43 44h2M24 45h1M42 45h2M24 46h2M42 46h2M25 47h1M41 47h2M25 48h2M40 48h2M26 49h2M39 49h2M26 50h3M37 50h3M28 51h11M29 52h9M32 53h4" />
<path stroke="#214a19" d="M73 56h4M71 57h2M77 57h1M69 58h3M78 58h1M69 59h1M69 60h1M74 64h1" />
<path stroke="#427b42" d="M73 57h4M72 58h6M70 59h8M70 60h8M69 61h9M69 62h8M69 63h7M69 64h5M69 65h3" />
</svg>