<svg xmlns="http://www.w3.org/2000/svg" viewBox="0 -0.5 80 80" shape-rendering="crispEdges">
<metadata>Made with Pixels to Svg https://codepen.io/shshaw/pen/XbxvNj</metadata>
<path stroke="#efa573" d="M33 19h2M32 20h2M35 20h1M32 21h1M36 21h1M31 22h2M36 22h1M31 23h1M37 23h1M31 24h1M37 24h1M30 25h2M38 25h1M30 26h1M38 26h1M30 27h1M39 27h1M29 28h2M39 28h1M29 29h1M40 29h1M29 30h1M40 30h1M29 31h1M41 31h1M28 32h2M41 32h1M28 33h1M41 33h1M26 34h3M42 34h1M46 34h4M24 35h2M42 35h1M44 35h2M50 35h2M23 36h1M42 36h2M52 36h1M22 37h1M53 37h1M21 38h1M54 38h3M20 39h2M57 39h2M17 40h3M59 40h1M15 41h3M60 41h1M13 42h3M61 42h1M12 43h2M62 43h1M11 44h1M63 44h1M10 45h1M63 45h1M9 46h2M64 46h1M9 47h1M64 47h1M8 48h2M65 48h6M8 49h1M65 49h1M71 49h2M8 50h1M73 50h1M8 51h1M74 51h1M7 52h1M74 52h1M7 53h1M75 53h1M7 54h1M75 54h1M7 55h1M75 55h1M7 56h1M75 56h1M7 57h1M75 57h1M7 58h1M74 58h1M7 59h1M74 59h1M7 60h1M73 60h1M7 61h1M71 61h2M7 62h1M70 62h1M7 63h1M69 63h1M7 64h1M69 64h1M7 65h1M69 65h1M7 66h1M69 66h1M7 67h1M69 67h1M7 68h1M70 68h1M7 69h1M70 69h1M7 70h1M70 70h1M7 71h2M70 71h1M8 72h1M70 72h1M8 73h1M70 73h1" />
<path stroke="#f7bd8c" d="M34 20h1M33 21h3M33 22h3M32 23h5M32 24h1M35 24h2M32 25h1M36 25h2M31 26h2M36 26h2M31 27h2M37 27h2M31 28h1M37 28h2M30 29h2M37 29h3M30 30h2M38 30h2M30 31h2M38 31h3M30 32h2M39 32h2M29 33h2M39 33h2M29 34h2M39 34h3M26 35h5M40 35h2M46 35h4M24 36h7M40 36h2M44 36h8M23 37h3M30 37h1M41 37h4M50 37h3M22 38h3M41 38h3M51 38h3M22 39h2M42 39h1M52 39h5M20 40h3M53 40h6M18 41h5M56 41h4M16 42h4M58 42h3M14 43h4M59 43h3M12 44h4M60 44h3M11 45h3M61 45h2M11 46h2M61 46h3M10 47h2M62 47h2M10 48h2M62 48h3M9 49h2M63 49h2M66 49h5M9 50h2M63 50h10M9 51h1M63 51h4M71 51h3M8 52h2M64 52h1M72 52h2M8 53h2M73 53h2M8 54h2M73 54h2M8 55h2M73 55h2M8 56h2M73 56h2M8 57h2M73 57h2M8 58h2M72 58h2M8 59h2M71 59h3M8 60h2M69 60h4M8 61h2M68 61h3M8 62h2M67 62h3M8 63h2M67 63h2M8 64h2M67 64h2M8 65h2M67 65h2M8 66h2M67 66h2M8 67h2M67 67h2M8 68h2M68 68h2M8 69h2M68 69h2M8 70h3M68 70h2M9 71h2M68 71h2M9 72h2M68 72h2M9 73h2M68 73h2" />
<path stroke="#8c0031" d="M33 24h2M32 28h2M31 33h2M26 37h4M45 37h5M25 38h1M29 38h1M31 38h1M45 38h1M50 38h1M44 39h1M51 39h1M24 40h1M42 40h1M51 40h2M43 41h1M52 41h4M23 42h1M30 42h1M56 42h2M20 43h1M30 43h1M42 43h1M58 43h1M59 44h1M60 45h1M60 46h1M61 47h1M61 48h1M12 49h1M62 49h1M62 50h1M69 51h2M11 52h1M17 52h1M37 52h1M63 52h1M71 52h1M39 53h1M64 53h1M72 53h1M40 54h1M57 54h1M55 55h1M62 55h1M41 56h1M53 56h1M50 57h2M71 57h1M11 58h1M46 58h3M70 58h1M12 59h2M42 59h5M58 59h1M66 59h1M68 59h1M66 60h1M57 61h1M65 62h1M66 63h1M42 64h1M56 64h1M64 64h1M66 64h1M66 65h1M63 66h1M66 66h1M11 67h1M11 68h1M43 70h1M63 71h1M12 72h1M56 72h1M12 73h1M64 73h1" />
<path stroke="#101010" d="M33 25h1M33 26h1M33 27h1M32 29h1M32 30h1M32 31h1M32 32h1M31 34h1M31 35h1M31 36h1M31 37h1M30 38h1M44 38h1M24 39h1M30 39h1M43 39h1M23 40h1M30 40h1M43 40h1M23 41h1M30 41h1M42 41h1M20 42h3M42 42h1M18 43h2M22 43h1M16 44h2M14 45h2M13 46h2M12 47h2M12 48h1M11 49h1M11 50h1M10 51h2M67 51h2M10 52h1M65 52h1M10 53h1M63 53h1M10 54h1M62 54h1M72 54h1M10 55h1M15 55h1M61 55h1M72 55h1M10 56h1M14 56h1M60 56h1M72 56h1M10 57h1M14 57h1M59 57h1M72 57h1M10 58h1M14 58h1M58 58h1M71 58h1M10 59h1M14 59h1M57 59h1M69 59h2M10 60h1M14 60h1M57 60h1M67 60h2M10 61h1M14 61h1M56 61h1M66 61h2M10 62h1M14 62h1M56 62h1M66 62h1M10 63h1M14 63h1M56 63h1M65 63h1M10 64h1M14 64h1M55 64h1M65 64h1M10 65h1M14 65h1M55 65h1M64 65h1M10 66h1M14 66h1M55 66h1M64 66h1M10 67h1M14 67h1M55 67h1M63 67h1M66 67h1M10 68h1M14 68h1M55 68h1M63 68h1M66 68h2M10 69h2M15 69h1M55 69h1M63 69h1M67 69h1M11 70h1M15 70h1M55 70h1M63 70h1M67 70h1M11 71h1M15 71h1M55 71h1M64 71h1M67 71h1M11 72h1M15 72h1M55 72h1M64 72h1M67 72h1M11 73h1M15 73h2M56 73h1M65 73h1M67 73h1" />
<path stroke="#ff1052" d="M34 25h1M34 26h1M35 27h1M35 28h1M36 29h1M36 31h1M38 34h1M37 35h1M27 38h1M38 38h1M47 38h1M27 39h3M47 39h4M26 40h4M46 40h5M26 41h4M46 41h6M25 42h5M39 42h1M45 42h7M55 42h1M25 43h5M41 43h1M45 43h8M56 43h2M19 44h3M24 44h6M40 44h1M44 44h8M54 44h5M17 45h5M23 45h8M38 45h4M43 45h8M52 45h8M16 46h44M18 47h43M43 48h18M45 49h17M46 50h16M46 51h15M47 52h13M61 52h2M69 52h1M47 53h11M60 53h3M65 53h6M47 54h9M59 54h3M63 54h9M48 55h6M57 55h4M65 55h7M48 56h4M55 56h5M61 56h4M66 56h6M48 57h1M53 57h6M60 57h6M67 57h4M50 58h8M62 58h4M67 58h3M48 59h9M63 59h3M67 59h1M49 60h8M64 60h2M49 61h7M64 61h2M49 62h7M64 62h1M49 63h7M49 64h6M50 65h5M65 65h1M50 66h5M65 66h1M50 67h5M64 67h2M50 68h5M64 68h2M50 69h5M64 69h2M50 70h5M64 70h3M51 71h4M65 71h2M51 72h4M65 72h2M51 73h5M66 73h1" />
<path stroke="#c50042" d="M35 25h1M35 26h1M34 27h1M36 27h1M34 28h1M36 28h1M33 29h3M33 30h3M37 30h1M33 31h3M37 31h1M33 32h4M38 32h1M33 33h4M38 33h1M32 34h5M32 35h5M39 35h1M32 36h6M39 36h1M32 37h6M40 37h1M26 38h1M32 38h6M40 38h1M46 38h1M25 39h2M31 39h8M41 39h1M45 39h2M25 40h1M31 40h8M41 40h1M44 40h2M24 41h2M31 41h8M41 41h1M44 41h2M24 42h1M31 42h8M43 42h2M21 43h1M23 43h2M31 43h9M43 43h2M18 44h1M22 44h2M30 44h10M41 44h3M16 45h1M22 45h1M31 45h7M42 45h1M15 46h1M14 47h4M13 48h30M13 49h32M12 50h34M12 51h34M61 51h2M12 52h5M38 52h9M60 52h1M66 52h1M70 52h1M11 53h5M40 53h7M58 53h2M71 53h1M11 54h4M41 54h6M56 54h1M58 54h1M11 55h4M41 55h7M54 55h1M56 55h1M63 55h2M11 56h3M42 56h6M52 56h1M54 56h1M65 56h1M11 57h3M42 57h6M49 57h1M52 57h1M66 57h1M12 58h2M42 58h4M49 58h1M59 58h3M66 58h1M11 59h1M47 59h1M59 59h4M11 60h3M42 60h7M58 60h6M11 61h3M42 61h7M58 61h6M11 62h3M42 62h7M57 62h7M11 63h3M42 63h7M57 63h8M11 64h3M43 64h6M57 64h7M11 65h3M43 65h7M56 65h8M11 66h3M43 66h7M56 66h7M12 67h2M43 67h7M56 67h7M12 68h2M43 68h7M56 68h7M12 69h3M43 69h7M56 69h7M66 69h1M12 70h3M44 70h6M56 70h7M12 71h3M44 71h7M56 71h7M13 72h2M44 72h7M57 72h7M13 73h2M44 73h7M57 73h7" />
<path stroke="#ff739c" d="M36 30h1M37 32h1M37 33h1M37 34h1M38 35h1M38 36h1M38 37h2M28 38h1M39 38h1M48 38h2M39 39h2M39 40h2M39 41h2M40 42h2M52 42h3M40 43h1M53 43h3M52 44h2M51 45h1M67 52h2" />
<path stroke="#292929" d="M18 52h19M16 53h1M38 53h1M15 54h1M37 54h3M16 55h25M15 56h26M15 57h27M15 58h27M15 59h27M15 60h27M15 61h27M15 62h27M15 63h27M15 64h27M15 65h28M15 66h28M15 67h28M15 68h28M16 69h27M16 70h27M16 71h28M16 72h28M17 73h27" />
<path stroke="#4a4a52" d="M17 53h21M16 54h21" />
</svg>