<svg xmlns="http://www.w3.org/2000/svg" viewBox="0 -0.5 80 80" shape-rendering="crispEdges">
<metadata>Made with Pixels to Svg https://codepen.io/shshaw/pen/XbxvNj</metadata>
<path stroke="#212984" d="M38 8h4M42 9h2M44 10h2M46 11h2M48 12h1M50 13h1M50 14h1M58 23h1M59 25h1M60 28h1M61 32h1M29 35h2M27 36h2M25 37h2M64 37h1M23 38h2M55 38h1M65 38h1M56 39h1M57 40h1M62 40h1M57 41h1M63 41h1M58 42h1M63 42h1M64 43h1M59 44h1M64 44h1M60 45h1M65 45h1M60 46h1M65 46h1M61 47h1M66 47h1M61 48h2M66 48h1M62 49h1M66 49h1M62 50h1M65 50h1M61 51h1" />
<path stroke="#101010" d="M36 9h2M35 10h1M35 11h1M34 12h1M34 13h1M49 13h1M34 14h1M51 14h1M33 15h1M52 15h1M33 16h1M53 16h1M33 17h1M54 17h1M33 18h1M55 18h1M33 19h1M56 19h1M33 20h1M57 20h1M33 21h1M58 21h1M33 22h1M58 22h1M32 23h1M59 23h1M32 24h1M59 24h1M32 25h1M60 25h1M32 26h1M60 26h1M32 27h1M60 27h1M32 28h1M61 28h1M32 29h1M61 29h1M31 30h1M61 30h1M30 31h1M61 31h1M28 32h2M33 32h1M62 32h1M27 33h1M32 33h1M62 33h1M25 34h2M32 34h1M62 34h1M24 35h1M31 35h1M63 35h1M22 36h2M31 36h1M63 36h1M21 37h1M31 37h1M20 38h1M31 38h1M20 39h1M31 39h1M65 39h1M20 40h1M32 40h1M66 40h1M20 41h1M32 41h1M66 41h1M20 42h2M33 42h1M67 42h1M21 43h1M33 43h1M67 43h1M21 44h2M34 44h1M68 44h1M22 45h2M29 45h7M68 45h1M23 46h6M36 46h1M69 46h1M37 47h1M69 47h1M38 48h1M69 48h1M37 49h1M49 49h5M68 49h2M36 50h1M42 50h8M54 50h3M67 50h2M34 51h1M57 51h2M65 51h3M33 52h1M59 52h7M31 53h2M30 54h1M40 54h1M29 55h1M41 55h1M9 56h3M27 56h2M40 56h1M42 56h2M12 57h1M25 57h2M40 57h1M44 57h1M12 58h2M23 58h2M39 58h1M45 58h1M22 59h1M39 59h1M46 59h2M21 60h1M39 60h1M48 60h2M20 61h1M50 61h2M20 62h1M40 62h1M52 62h3M19 63h1M40 63h1M55 63h2M18 64h1M40 64h1M57 64h3M18 65h1M40 65h1M59 65h2M63 65h3M39 66h1M61 66h2M39 67h1M18 68h1M38 68h1M16 69h2M25 69h1M36 69h2M13 70h3M24 70h2M34 70h3M10 71h3M23 71h1M26 71h2M32 71h3" />
<path stroke="#4273de" d="M38 9h4M40 10h4M42 11h4M44 12h4M45 13h4M46 14h4M47 15h5M48 16h5M49 17h5M50 18h5M51 19h5M52 20h5M53 21h4M54 22h4M54 23h4M55 24h4M55 25h4M56 26h4M57 27h3M58 28h2M59 29h2M60 30h1" />
<path stroke="#424242" d="M36 10h1M34 15h1M33 23h1M37 30h6M34 31h2M44 31h3M47 32h3M49 33h2M51 34h1M25 35h1M52 35h1M53 36h1M22 37h1M54 37h1M54 38h1M55 39h1M55 40h1M56 41h1M56 42h1M56 43h1M55 45h1M52 48h1M42 49h1M31 50h5M41 50h1M24 51h7M43 51h2M59 51h1M45 52h3M13 53h4M40 53h1M48 53h3M9 54h4M41 54h1M51 54h2M8 55h1M27 55h2M42 55h1M53 55h2M18 56h9M55 56h2M14 57h3M39 57h1M57 57h1M14 58h1M58 58h1M59 59h2M61 60h1M40 61h1M52 61h1M62 61h1M55 62h1M63 62h1M57 63h1M64 63h1M65 64h1M17 65h1M39 65h1M62 65h1M14 66h3M11 67h3M22 67h1M38 67h1M9 68h3M17 68h1M20 68h2M26 68h1M37 68h1M6 69h3M15 69h1M19 69h2M5 70h2M12 70h1M18 70h1M3 71h2M17 71h1" />
<path stroke="#2942ad" d="M37 10h3M36 11h6M35 12h9M35 13h10M35 14h11M35 15h12M34 16h14M34 17h15M34 18h16M34 19h17M34 20h18M34 21h19M57 21h1M34 22h20M34 23h20M33 24h22M33 25h22M33 26h23M33 27h24M33 28h25M33 29h26M32 30h5M43 30h17M31 31h3M47 31h14M30 32h3M50 32h11M28 33h4M51 33h11M27 34h5M52 34h10M26 35h3M53 35h10M24 36h3M54 36h9M23 37h2M55 37h9M21 38h2M56 38h9M21 39h2M57 39h8M21 40h1M58 40h4M63 40h3M21 41h1M58 41h5M64 41h2M59 42h4M64 42h3M59 43h5M65 43h2M60 44h4M65 44h3M61 45h4M66 45h2M61 46h4M66 46h3M62 47h4M67 47h2M63 48h3M67 48h2M63 49h3M67 49h1M63 50h2M66 50h1M62 51h3" />
<path stroke="#ad6b31" d="M36 31h1M43 31h1M32 39h1M34 43h1M55 44h2M28 45h1M54 46h1M42 48h2M54 49h1M57 50h1M23 51h1M35 51h1M18 52h5M17 53h1M17 56h1" />
<path stroke="#efbd63" d="M37 31h6M34 32h13M33 33h1M36 33h13M35 34h16M34 35h1M36 35h16M29 36h2M35 36h18M27 37h4M34 37h1M36 37h18M25 38h6M32 38h1M35 38h19M23 39h8M33 39h1M35 39h20M22 40h10M33 40h22M56 40h1M22 41h10M33 41h23M22 42h11M34 42h22M57 42h1M22 43h11M35 43h21M57 43h2M23 44h11M35 44h20M57 44h2M24 45h4M36 45h19M56 45h4M37 46h17M55 46h5M38 47h23M39 48h3M44 48h8M53 48h8M38 49h4M43 49h6M55 49h7M37 50h4M58 50h4M31 51h3M36 51h7M60 51h1M23 52h10M37 52h8M18 53h13M38 53h2M41 53h7M13 54h17M31 54h1M39 54h1M42 54h7M50 54h1M9 55h18M39 55h2M43 55h5M52 55h1M12 56h5M39 56h1M44 56h3M54 56h1M13 57h1M45 57h1M56 57h1M38 58h1M46 58h1M38 59h1M48 59h1M37 60h1M60 60h1M21 61h1M36 61h1M38 61h2M21 62h2M35 62h1M37 62h1M39 62h1M20 63h5M32 63h8M19 64h21M62 64h1M19 65h20M17 66h22M14 67h8M23 67h15M12 68h5M19 68h1M22 68h4M27 68h10M9 69h6M21 69h4M26 69h10M7 70h5M19 70h5M26 70h8M5 71h5M18 71h5M28 71h4" />
<path stroke="#ffe69c" d="M34 33h2M33 34h2M32 35h2M35 35h1M32 36h3M32 37h2M35 37h1M33 38h2M34 39h1M34 52h3M33 53h5M32 54h7M49 54h1M30 55h9M48 55h4M29 56h10M47 56h7M27 57h12M46 57h10M25 58h13M47 58h11M23 59h15M49 59h10M22 60h15M38 60h1M50 60h10M22 61h14M37 61h1M53 61h9M23 62h12M36 62h1M38 62h1M56 62h7M25 63h7M58 63h6M60 64h2M63 64h2M61 65h1" />
</svg>