<svg xmlns="http://www.w3.org/2000/svg" viewBox="0 -0.5 80 80" shape-rendering="crispEdges">
<metadata>Made with Pixels to Svg https://codepen.io/shshaw/pen/XbxvNj</metadata>
<path stroke="#3a3a4a" d="M28 8h2M27 9h3M27 10h3M52 10h2M26 11h4M52 11h2M25 12h4M51 12h3M25 13h4M51 13h3M24 14h4M50 14h3M24 15h4M50 15h3M23 16h5M49 16h4M22 17h5M48 17h5M21 18h5M47 18h6M19 19h7M47 19h6M16 20h9M47 20h5M12 21h13M47 21h4M11 22h13M47 22h4M11 23h13M47 23h4M11 24h12M47 24h4M11 25h12M47 25h4M11 26h11M47 26h4M10 27h12M46 27h5M10 28h12M46 28h5M10 29h12M46 29h4M10 30h13M45 30h5M9 31h14M45 31h4M8 32h15M44 32h4M7 33h16M43 33h5M6 34h16M43 34h5M5 35h16M42 35h6M4 36h17M41 36h7M2 37h19M40 37h8M1 38h21M40 38h9M0 39h23M40 39h9M0 40h23M40 40h9M0 41h23M40 41h9M1 42h23M39 42h10M1 43h23M38 43h11M1 44h24M38 44h12M2 45h24M38 45h12M2 46h26M38 46h9M49 46h2M2 47h23M27 47h2M38 47h8M50 47h1M2 48h22M28 48h1M38 48h8M3 49h21M38 49h8M3 50h22M38 50h8M3 51h22M38 51h9M3 52h23M31 52h1M38 52h9M3 53h23M38 53h9M3 54h24M38 54h9M3 55h18M23 55h4M38 55h10M3 56h17M26 56h2M38 56h10M3 57h17M38 57h9M2 58h18M38 58h9M2 59h19M38 59h9M2 60h19M38 60h9M2 61h19M38 61h9M2 62h20M38 62h9M2 63h20M38 63h8M2 64h20M38 64h7M2 65h21M38 65h6M1 66h22M38 66h6M1 67h22M38 67h6M1 68h22M38 68h5M1 69h21M37 69h6M1 70h5M7 70h15M37 70h6M1 71h5M7 71h15M36 71h4M1 72h4M7 72h15M35 72h4M1 73h4M7 73h15M35 73h3M1 74h3M7 74h15M34 74h4M0 75h4M7 75h9M17 75h5M34 75h3M0 76h3M8 76h8M17 76h5M34 76h3M0 77h3M8 77h8M17 77h4M34 77h3M0 78h3M8 78h7M17 78h4M34 78h4M0 79h2M8 79h3M12 79h3M18 79h3M34 79h5" />
<path stroke="#5a5a5a" d="M46 17h2M59 17h2M45 18h1M61 18h2M45 19h1M63 19h1M60 20h1M64 20h1M61 22h1M44 23h3M51 23h7M40 24h4M58 24h4M37 25h3M62 25h3M35 26h2M65 26h3M33 27h1M68 27h2M31 28h1M70 28h2M72 29h2M75 31h1M33 34h1M33 35h1M48 35h6M54 36h3M57 37h2M77 37h1M59 38h2M61 39h1M71 39h1M68 40h1M63 41h1M69 41h1M38 42h1M63 42h1M70 42h1M35 43h3M51 43h7M64 43h1M33 44h2M58 44h4M32 45h2M62 45h2M66 45h1M32 46h1M64 46h2M66 47h1M67 48h1M68 49h1M69 50h1M69 51h1M70 52h1M70 53h1M64 54h1M54 55h4M58 56h4M62 57h2M64 58h2M30 59h1M66 59h1M30 60h1M67 60h1M68 61h1M69 62h1M69 63h1M32 64h3M29 65h3M35 65h1M28 66h1M50 66h7M27 67h1M57 67h5M27 68h1M62 68h2M27 69h1M64 69h1M65 70h2M67 71h1M68 72h1M68 73h1M69 74h1M69 75h1M69 76h1" />
<path stroke="#b5bdc5" d="M46 18h1M60 18h1M46 19h1M61 19h2M45 20h2M63 20h1M46 21h1M64 21h1M65 22h1M66 23h1M44 24h2M56 24h2M40 25h5M55 25h7M67 25h1M37 26h3M57 26h8M35 27h1M61 27h7M65 28h5M68 29h4M70 30h3M73 31h2M75 32h2M77 33h1M78 34h1M68 41h1M67 42h3M68 43h2M35 44h3M52 44h6M34 45h1M56 45h6M60 46h4M48 47h1M63 47h2M25 48h2M48 48h2M26 49h2M49 49h1M67 49h1M27 50h2M49 50h2M67 50h2M28 51h2M50 51h1M68 51h1M29 52h2M50 52h2M69 52h1M30 53h2M51 53h1M69 53h1M30 54h3M51 54h2M31 55h3M52 55h2M32 56h2M53 56h4M54 57h7M57 58h6M61 59h2M66 60h1M66 61h2M67 62h2M68 63h1M69 64h1M32 65h3M69 65h1M29 66h4M28 67h2M51 67h6M54 68h8M58 69h6M61 70h4M63 71h4M65 72h3M67 73h1M68 74h1" />
<path stroke="#101010" d="M59 18h1M59 19h1M44 20h1M44 21h1M60 21h1M65 21h1M44 22h1M66 22h1M61 23h1M67 23h1M67 24h1M68 25h1M68 26h1M34 27h1M32 28h1M30 29h1M29 30h1M74 30h1M29 31h1M76 31h1M30 32h1M77 32h1M31 33h1M78 33h1M32 34h1M79 34h1M34 35h1M79 35h1M35 36h2M78 36h1M37 37h2M76 37h1M39 38h1M74 38h2M72 39h2M69 40h3M70 43h1M64 44h1M69 44h1M52 45h1M64 45h1M67 45h2M47 46h2M53 46h1M25 47h2M32 47h1M46 47h1M49 47h1M54 47h1M24 48h1M27 48h1M32 48h2M46 48h1M50 48h1M55 48h1M24 49h1M28 49h1M33 49h1M37 49h1M46 49h1M50 49h1M56 49h1M25 50h1M29 50h1M34 50h2M37 50h1M46 50h1M51 50h1M58 50h2M25 51h1M30 51h1M36 51h1M47 51h1M51 51h1M61 51h1M26 52h1M36 52h1M47 52h1M52 52h1M62 52h1M26 53h1M32 53h1M35 53h2M47 53h1M52 53h1M63 53h1M27 54h1M33 54h3M47 54h1M53 54h1M69 54h1M27 55h1M35 55h2M48 55h1M64 55h1M68 55h2M28 56h1M36 56h1M48 56h1M64 56h1M67 56h2M29 57h1M37 57h1M48 57h1M64 57h4M29 58h1M37 58h1M49 58h1M37 59h1M49 59h1M36 60h1M49 60h1M31 61h1M36 61h1M50 61h4M32 62h4M55 62h4M33 63h1M59 63h2M61 64h2M70 64h1M63 65h1M70 65h1M36 66h1M49 66h1M64 66h1M69 66h1M37 67h1M49 67h1M64 67h1M68 67h2M34 68h3M50 68h1M64 68h1M66 68h3M32 69h2M51 69h1M65 69h2M28 70h1M31 70h1M51 70h1M29 71h1M40 71h3M52 71h1M30 72h1M39 72h1M43 72h1M53 72h1M30 73h1M54 73h3M29 74h1M57 74h3M37 75h1M60 75h2M37 76h1M62 76h1M37 77h1M63 77h1M68 77h1M38 78h1M63 78h1M67 78h2M39 79h2M63 79h1M66 79h2" />
<path stroke="#848c94" d="M60 19h1M61 20h2M45 21h1M61 21h3M45 22h2M62 22h3M62 23h4M62 24h5M65 25h2M39 27h7M51 27h7M35 28h11M51 28h11M32 29h14M50 29h16M31 30h14M50 30h18M73 30h1M30 31h15M49 31h21M31 32h13M48 32h25M32 33h11M48 33h27M34 34h9M48 34h29M35 35h7M55 35h23M37 36h4M58 36h20M39 37h1M59 37h17M61 38h13M62 39h9M63 40h5M64 41h3M64 42h3M65 43h3M65 44h4M35 45h1M53 45h1M33 46h5M54 46h3M33 47h5M47 47h1M55 47h6M34 48h4M47 48h1M56 48h7M25 49h1M34 49h3M47 49h1M57 49h8M26 50h1M36 50h1M47 50h2M60 50h6M26 51h2M48 51h1M62 51h5M27 52h2M48 52h2M63 52h5M27 53h3M48 53h2M64 53h4M28 54h2M48 54h3M65 54h4M28 55h3M34 55h1M49 55h2M65 55h3M29 56h3M34 56h2M49 56h3M57 56h1M65 56h2M30 57h7M49 57h4M61 57h1M30 58h7M50 58h4M63 58h1M31 59h6M50 59h8M65 59h1M31 60h5M50 60h12M32 61h4M54 61h10M59 62h7M61 63h6M63 64h5M64 65h4M35 66h1M65 66h4M30 67h1M32 67h5M50 67h1M65 67h3M28 68h6M51 68h1M65 68h1M28 69h4M52 69h3M29 70h2M52 70h7M30 71h1M53 71h9M54 72h10M57 73h9M60 74h7M62 75h6M63 76h5M64 77h4M64 78h3M64 79h2" />
<path stroke="#e6ffff" d="M46 24h1M51 24h5M45 25h2M51 25h4M65 47h1M65 48h2M66 49h1M63 59h2M64 60h2" />
<path stroke="#63636b" d="M40 26h7M51 26h6M36 27h3M58 27h3M33 28h2M62 28h3M31 29h1M66 29h2M30 30h1M68 30h2M70 31h3M73 32h2M75 33h2M77 34h1M54 35h1M78 35h1M57 36h1M62 40h1M67 41h1M36 45h2M54 45h2M65 45h1M57 46h3M61 47h2M63 48h2M48 49h1M65 49h1M66 50h1M49 51h1M67 51h1M68 52h1M50 53h1M68 53h1M51 55h1M52 56h1M53 57h1M54 58h3M58 59h3M62 60h2M64 61h2M66 62h1M67 63h1M68 64h1M68 65h1M33 66h2M31 67h1M52 68h2M55 69h3M59 70h2M62 71h1M64 72h1M66 73h1M67 74h1M68 75h1M68 76h1" />
<path stroke="#dead4a" d="M48 36h6M48 37h9M49 38h10M49 39h12M49 40h13M49 41h14M49 42h14M49 43h2M58 43h6M50 44h1M62 44h2M50 45h2M51 46h2M51 47h3M51 48h4M51 49h5M54 50h3M56 51h4M57 52h5M58 53h5M58 54h6M58 55h6M62 56h2M53 62h1M56 63h3M56 64h5M55 65h8M57 66h7M62 67h2M34 69h1M32 70h1M31 71h1M54 74h3M53 75h7M53 76h9M53 77h10M52 78h11M52 79h11" />
<path stroke="#312921" d="M51 44h1M57 50h1M60 51h1M54 62h1M28 75h1M26 76h2M25 77h2M23 78h3M22 79h2" />
<path stroke="#efd6ad" d="M52 50h2M37 51h1M52 51h4M37 52h1M53 52h4M37 53h1M53 53h5M36 54h2M54 54h4M37 55h1M37 56h1M47 57h1M47 58h2M47 59h2M37 60h1M47 60h2M37 61h1M47 61h3M36 62h2M47 62h6M34 63h4M46 63h10M35 64h3M45 64h11M36 65h2M44 65h11M37 66h1M44 66h5M44 67h5M37 68h1M43 68h7M35 69h2M43 69h8M33 70h4M43 70h8M32 71h4M43 71h9M31 72h4M44 72h9M31 73h4M45 73h9M30 74h4M46 74h8M29 75h5M47 75h6M28 76h6M47 76h6M27 77h7M48 77h5M26 78h8M48 78h4M24 79h10M49 79h3" />
<path stroke="#008494" d="M40 72h3M6 73h1M39 73h5M5 74h1M39 74h4M4 75h1M38 75h4M3 76h1M38 76h4M3 77h1M6 77h2M16 77h1M38 77h5M3 78h5M15 78h2M39 78h5M2 79h6M15 79h3M41 79h4" />
<path stroke="#003a4a" d="M38 73h1M44 73h1M38 74h1M45 74h1M46 75h1M46 76h1M47 77h1M47 78h1M48 79h1" />
<path stroke="#42adce" d="M6 74h1M43 74h2M5 75h2M16 75h1M42 75h4M4 76h4M16 76h1M42 76h4M4 77h2M43 77h4M44 78h3M11 79h1M45 79h3" />
</svg>