<svg xmlns="http://www.w3.org/2000/svg" viewBox="0 -0.5 80 80" shape-rendering="crispEdges">
<metadata>Made with Pixels to Svg https://codepen.io/shshaw/pen/XbxvNj</metadata>
<path stroke="#3a6b7b" d="M20 9h10M30 10h3M33 11h2M38 13h2M41 15h1M33 17h4M37 18h3M42 20h2M47 20h1M22 21h3M44 21h1M45 22h1M46 23h1M46 24h2M47 25h1M46 26h1M48 26h1M50 26h1M13 27h1M45 27h2M48 27h1M51 27h2M11 28h1M43 28h2M54 28h2M42 29h1M56 29h1M40 30h2M10 31h1M14 31h1M39 31h1M10 32h1M14 32h1M19 32h1M38 32h1M9 33h1M14 33h1M37 33h1M13 34h1M36 34h1M13 35h1M35 35h1M13 36h1M34 36h1M63 36h1M9 37h1M34 37h1M64 37h1M9 38h1M33 38h1M64 38h1M9 39h1M33 39h1M9 40h1M33 40h1M62 40h1M65 40h1M9 41h1M32 41h1M65 41h1M9 42h1M26 42h1M32 42h1M63 42h1M9 43h1M21 43h1M27 43h2M32 43h1M66 43h1M10 44h1M20 44h1M29 44h1M32 44h1M10 45h1M20 45h1M29 45h1M32 45h1M10 46h1M13 46h2M19 46h1M30 46h1M33 46h1M10 47h1M14 47h1M19 47h1M30 47h1M10 48h1M14 48h1M19 48h1M30 48h1M33 48h2M11 49h1M14 49h1M19 49h1M11 50h1M14 50h1M20 50h1M29 50h1M34 50h1M10 51h1M21 51h1M36 51h1M63 51h1M23 52h1M38 52h1M61 52h1M8 53h1M17 53h1M59 53h1M70 53h4M42 54h1M56 54h1M74 54h2M48 55h1M50 55h3M55 55h1M67 55h1M76 55h1M47 56h1M53 56h1M64 56h2M76 56h1M8 57h1M46 57h1M61 57h1M76 57h1M8 58h1M46 58h1M9 59h1M24 59h1M45 59h1M10 60h2M15 60h1M24 60h1M25 61h1M72 61h1M40 62h1M70 62h1M27 63h1M38 63h1M67 63h1M29 64h1M37 64h1M42 64h2M56 64h1M31 65h1M35 65h1M44 65h2M57 66h1M47 67h1" />
<path stroke="#3a7b94" d="M18 10h2M16 11h2M15 12h1M14 13h1M13 14h1M13 15h1M12 16h1M12 17h1M31 17h2M12 18h1M31 18h6M12 19h1M30 19h11M12 20h1M17 20h1M35 20h7M12 21h1M39 21h5M12 22h1M42 22h3M12 23h1M44 23h2M12 24h1M45 24h1M13 25h1M46 25h1M13 26h1M47 26h1M47 27h1M57 29h1M58 30h1M60 32h1M36 35h1M35 36h1M34 38h1M20 40h1M33 41h1M62 41h2M23 42h1M20 49h1M49 55h1M27 56h4M48 56h5M54 56h1M25 57h2M45 57h1M47 57h10M24 58h1M45 58h1M47 58h8M47 59h7M44 60h1M42 62h1M59 62h1M62 63h1M44 64h1M55 64h1M40 65h4M53 65h4M40 66h17M40 67h7M48 67h10" />
<path stroke="#73ded6" d="M20 10h10M18 11h13M16 12h13M15 13h7M14 14h6M14 15h5M13 16h5M13 17h4M13 18h4M13 19h3M13 20h3M13 21h3M13 22h3M13 23h3M13 24h4M14 25h3M14 26h3M14 27h3M15 28h3M15 29h3M55 29h1M15 30h4M56 30h2M16 31h3M57 31h2M16 32h3M58 32h2M17 33h2M59 33h2M17 34h1M60 34h2M62 35h1M63 37h1M63 38h1M64 39h1M64 40h1M22 44h2M21 45h3M21 46h3M21 47h2M39 51h1M41 51h1M10 52h2M40 52h1M42 52h1M9 53h4M41 53h1M43 53h1M8 54h5M72 54h2M8 55h5M72 55h3M9 56h3M73 56h3M27 57h4M73 57h2M26 58h5M25 59h6M32 59h1M25 60h5M31 60h1M33 60h1M26 61h3M30 61h1M32 61h1" />
<path stroke="#31bdbd" d="M31 11h2M29 12h7M30 13h8M34 14h6M36 15h5M38 16h5M25 17h6M40 17h4M22 18h9M41 18h4M20 19h10M43 19h3M18 20h7M44 20h3M17 21h5M45 21h3M17 22h3M46 22h2M17 23h2M47 23h2M48 24h1M48 25h2M49 26h1M49 27h2M12 28h2M45 28h9M11 29h3M43 29h12M11 30h3M42 30h14M11 31h3M40 31h17M59 31h1M11 32h3M39 32h19M10 33h4M19 33h1M38 33h21M10 34h3M18 34h2M37 34h23M10 35h3M18 35h3M37 35h23M10 36h3M18 36h3M36 36h23M10 37h3M19 37h3M35 37h24M10 38h3M19 38h3M35 38h24M10 39h3M20 39h2M34 39h25M63 39h1M10 40h3M21 40h2M34 40h26M63 40h1M10 41h3M21 41h2M34 41h28M64 41h1M10 42h3M22 42h1M33 42h30M10 43h3M22 43h5M33 43h31M11 44h2M21 44h1M24 44h5M33 44h31M11 45h2M24 45h5M33 45h31M11 46h2M20 46h1M24 46h6M34 46h30M11 47h3M20 47h1M23 47h7M34 47h30M11 48h3M20 48h10M35 48h29M12 49h2M21 49h9M35 49h28M12 50h2M21 50h8M36 50h27M11 51h4M22 51h7M37 51h2M40 51h1M42 51h21M9 52h1M12 52h5M24 52h3M39 52h1M41 52h1M43 52h18M13 53h4M40 53h1M42 53h1M44 53h15M13 54h5M43 54h13M70 54h2M13 55h5M68 55h4M75 55h1M8 56h1M12 56h6M66 56h7M9 57h9M62 57h11M75 57h1M9 58h8M25 58h1M31 58h1M43 58h2M55 58h20M10 59h7M31 59h1M33 59h1M40 59h5M46 59h1M54 59h21M12 60h3M30 60h1M32 60h1M34 60h10M45 60h10M56 60h18M29 61h1M31 61h1M33 61h9M44 61h11M58 61h14M26 62h14M43 62h12M60 62h10M28 63h10M42 63h13M63 63h4M30 64h7M45 64h10M32 65h3M46 65h7" />
<path stroke="#101010" d="M35 11h1M36 12h2M22 13h8M20 14h3M30 14h4M40 14h2M19 15h2M34 15h2M42 15h1M18 16h1M25 16h8M36 16h2M43 16h1M17 17h1M22 17h3M38 17h2M44 17h1M17 18h1M20 18h2M40 18h1M45 18h1M16 19h1M18 19h2M41 19h2M46 19h1M16 20h1M25 20h10M16 21h1M35 21h4M48 21h1M16 22h1M20 22h2M39 22h3M48 22h1M16 23h1M19 23h1M42 23h2M49 23h1M17 24h2M44 24h1M49 24h1M17 25h1M45 25h1M50 25h1M12 26h1M17 26h1M51 26h1M12 27h1M17 27h1M53 27h1M14 28h1M18 28h1M10 29h1M14 29h1M18 29h1M10 30h1M14 30h1M19 30h1M15 31h1M19 31h1M15 32h1M16 33h1M20 33h1M61 33h1M9 34h1M16 34h1M20 34h1M62 34h1M9 35h1M17 35h1M21 35h1M63 35h1M9 36h1M17 36h1M21 36h1M64 36h1M13 37h1M18 37h1M22 37h1M13 38h1M18 38h1M22 38h1M65 38h1M13 39h1M19 39h1M22 39h1M65 39h1M13 40h1M23 40h1M13 41h1M20 41h1M23 41h1M66 41h1M13 42h1M21 42h1M24 42h2M66 42h1M13 43h1M13 44h1M66 44h1M13 45h1M66 45h1M66 46h1M33 47h1M66 47h1M65 48h2M30 49h1M34 49h1M65 49h1M35 50h1M64 50h2M9 51h1M15 51h2M20 51h1M29 51h1M35 51h1M64 51h1M8 52h1M17 52h1M21 52h2M27 52h2M36 52h2M62 52h2M23 53h4M38 53h2M60 53h2M7 54h1M18 54h1M40 54h2M57 54h3M68 54h2M7 55h1M18 55h1M42 55h6M53 55h2M66 55h1M7 56h1M18 56h1M45 56h2M55 56h2M62 56h2M7 57h1M18 57h1M31 57h1M43 57h2M57 57h4M17 58h1M32 58h2M40 58h3M75 58h1M8 59h1M17 59h1M34 59h6M75 59h1M9 60h1M16 60h1M55 60h1M74 60h1M11 61h4M42 61h2M56 61h2M73 61h1M25 62h1M41 62h1M57 62h2M71 62h2M26 63h1M39 63h3M56 63h1M59 63h3M68 63h3M27 64h2M38 64h1M40 64h2M57 64h1M62 64h6M29 65h2M36 65h2M39 65h1M57 65h1M31 66h5M39 66h1M39 67h1" />
<path stroke="#ceff52" d="M60 35h2M61 36h2M62 37h1M62 38h1M64 42h2M65 43h1M65 44h1M65 45h1M65 46h1" />
<path stroke="#dee652" d="M59 36h2M59 37h3M59 38h3M59 39h4M60 40h2M64 43h1M64 44h1M64 45h1M64 46h1M64 47h2M64 48h1M63 49h2M63 50h1" />
<path stroke="#ad3a29" d="M55 61h1M55 62h2M55 63h1" />
</svg>