<svg xmlns="http://www.w3.org/2000/svg" viewBox="0 -0.5 80 80" shape-rendering="crispEdges">
<metadata>Made with Pixels to Svg https://codepen.io/shshaw/pen/XbxvNj</metadata>
<path stroke="#b5844a" d="M62 11h4M69 13h1M64 14h7M62 15h10M61 16h12M56 17h1M59 17h7M69 17h4M57 18h8M67 18h2M70 18h3M58 19h7M66 19h6M58 20h7M67 20h2M58 21h7M59 22h6M59 23h6M60 24h5M60 25h6M61 26h5M61 27h3M65 27h2M62 28h2M66 28h1M62 29h2M14 37h2M8 38h1M13 38h3M7 39h1M12 39h4M7 40h1M11 40h6M7 41h1M11 41h3M15 41h2M7 42h1M10 42h3M14 42h3M7 43h5M14 43h3M7 44h5M13 44h3M7 45h5M7 46h4M8 47h3M8 48h3M8 49h3M8 50h3M8 51h3M8 52h2M9 53h1" />
<path stroke="#6b5200" d="M66 11h2M68 12h2M70 13h2M71 14h2M72 15h1M68 17h1M56 18h1M65 18h2M73 18h1M57 19h1M57 20h1M66 20h1M69 20h1M57 21h1M69 21h1M58 22h1M58 23h1M59 24h1M65 24h2M59 25h1M60 26h1M66 26h2M60 27h1M61 28h1M61 29h1M6 41h1M14 41h1M6 42h1M6 43h1M12 43h2M6 44h1M12 44h1M6 45h1M13 45h1M15 45h1M6 46h1M7 47h1M7 48h1M11 48h1M7 49h1M11 49h1M7 50h1M11 50h1M7 51h1M11 51h1M7 52h1" />
<path stroke="#ceb573" d="M60 12h2M58 13h2M57 14h2M56 15h2M56 16h1M12 35h5M10 36h2M9 37h1M13 37h1M12 38h1M8 39h1" />
<path stroke="#ded684" d="M62 12h6M60 13h9M59 14h5M58 15h4M57 16h4M57 17h2M12 36h4M10 37h3M9 38h3M9 39h3M8 40h3M8 41h3M8 42h2" />
<path stroke="#101010" d="M73 15h1M73 16h1M66 17h2M73 17h1M69 18h1M65 19h1M72 19h1M65 20h1M70 20h2M65 21h4M65 22h1M65 23h1M66 25h1M67 27h1M53 31h1M71 31h1M51 32h1M72 32h1M51 33h1M54 33h1M73 33h1M52 34h1M55 34h1M52 35h1M55 35h1M64 35h1M74 35h1M53 36h1M56 36h1M64 36h2M74 36h1M53 37h1M56 37h1M74 37h1M16 38h1M54 38h1M57 38h1M16 39h1M58 39h1M72 39h1M59 40h1M71 40h1M17 41h1M59 41h1M70 41h1M13 42h1M17 42h1M58 42h1M69 42h1M17 43h1M68 43h1M16 44h1M68 44h1M12 45h1M14 45h1M18 45h1M67 45h1M11 46h3M19 46h1M67 46h1M11 47h1M19 47h1M66 47h1M20 48h1M66 48h1M20 49h1M65 49h1M19 51h1M66 51h1M19 52h1M65 52h1M64 53h1M63 54h2M66 55h1M6 56h1M17 56h3M67 56h1M6 57h1M16 57h1M68 57h1M14 58h1M67 58h1M65 59h2M5 60h1M16 60h1M63 60h2M5 61h1M17 61h2M64 61h1M5 62h1M20 62h1M65 62h1M5 63h1M19 63h1M16 64h2M67 64h1M13 65h3M66 65h1M6 66h1M10 66h3M20 66h1M64 66h2M7 67h3M16 67h4M63 67h2M18 68h2M64 68h1M18 69h1M65 69h1" />
<path stroke="#a5b573" d="M50 25h1M49 26h1M50 27h1M64 27h1M48 28h1M50 28h2M64 28h2M67 28h1M50 29h2M64 29h5M33 30h1M49 30h4M63 30h7M34 31h1M39 31h1M49 31h2M52 31h1M63 31h8M35 32h1M40 32h1M49 32h2M52 32h2M64 32h8M41 33h1M48 33h3M53 33h1M64 33h9M38 34h1M44 34h1M48 34h3M53 34h2M65 34h8M48 35h4M54 35h1M65 35h9M21 36h1M32 36h1M43 36h1M48 36h4M54 36h2M66 36h8M17 37h1M23 37h1M48 37h5M55 37h1M65 37h9M17 38h2M25 38h1M49 38h5M55 38h2M65 38h8M17 39h4M28 39h1M43 39h2M49 39h6M56 39h2M65 39h7M18 40h4M43 40h3M49 40h10M64 40h7M18 41h5M38 41h1M43 41h4M50 41h8M64 41h6M18 42h7M37 42h3M42 42h6M50 42h7M63 42h6M19 43h5M37 43h4M42 43h8M51 43h4M57 43h2M62 43h6M19 44h4M30 44h1M36 44h23M61 44h6M19 45h2M26 45h1M30 45h2M35 45h32M20 46h1M25 46h2M29 46h4M34 46h32M24 47h4M29 47h37M23 48h42M22 49h43M20 50h43M20 51h46M10 52h1M20 52h32M53 52h12M8 53h1M10 53h2M19 53h26M46 53h5M54 53h10M8 54h4M18 54h27M47 54h4M54 54h8M7 55h2M19 55h23M43 55h2M48 55h1M50 55h2M54 55h11M7 56h1M12 56h1M21 56h21M44 56h1M50 56h2M54 56h13M7 57h1M17 57h1M20 57h23M46 57h1M50 57h3M54 57h14M7 58h1M15 58h3M19 58h5M25 58h19M45 58h3M50 58h17M6 59h2M12 59h1M14 59h3M18 59h6M25 59h24M50 59h15M6 60h2M11 60h1M13 60h3M17 60h6M25 60h1M27 60h2M30 60h32M6 61h3M10 61h7M19 61h4M27 61h1M30 61h33M6 62h13M21 62h2M25 62h1M29 62h36M6 63h12M20 63h6M28 63h38M6 64h10M19 64h48M7 65h6M18 65h48M7 66h3M17 66h3M21 66h43M20 67h42M20 68h44M19 69h46" />
<path stroke="#5a7b29" d="M51 25h1M47 26h1M51 26h1M46 27h1M48 27h1M51 27h1M46 28h1M52 28h1M68 28h1M46 29h1M52 29h1M69 29h1M45 30h1M53 30h1M62 30h1M70 30h1M32 31h1M45 31h1M51 31h1M62 31h1M32 32h1M38 32h1M44 32h1M54 32h1M63 32h1M30 33h1M32 33h1M35 33h1M38 33h1M44 33h1M52 33h1M63 33h1M29 34h1M31 34h2M36 34h2M42 34h2M51 34h1M64 34h1M73 34h2M29 35h1M32 35h1M37 35h1M43 35h1M53 35h1M16 36h2M20 36h1M28 36h1M52 36h1M16 37h1M18 37h2M22 37h1M28 37h1M54 37h1M63 37h2M19 38h2M24 38h1M27 38h2M62 38h2M73 38h1M26 39h1M55 39h1M61 39h1M17 40h1M60 40h1M58 41h1M57 42h1M18 43h1M55 43h2M69 43h1M18 44h1M67 44h1M21 45h1M21 46h1M66 46h1M20 47h1M65 48h1M19 50h1M63 50h3M11 52h1M7 53h1M18 53h1M7 54h1M12 54h1M17 54h1M62 54h1M65 54h1M6 55h1M12 55h1M18 55h1M65 55h1M20 56h1M13 57h1M15 57h1M18 57h2M6 58h1M13 58h1M18 58h1M5 59h1M13 59h1M17 59h1M12 60h1M62 60h1M63 61h1M19 62h1M18 63h1M66 63h1M5 64h1M18 64h1M6 65h1M17 65h1M13 66h1M16 66h1M10 67h1M62 67h1" />
<path stroke="#e6ffce" d="M50 26h1M47 27h1M49 27h1M47 28h1M49 28h1M47 29h3M46 30h3M33 31h1M46 31h3M33 32h2M39 32h1M45 32h4M33 33h2M39 33h2M45 33h3M30 34h1M33 34h3M39 34h3M45 34h3M30 35h2M33 35h4M38 35h5M44 35h4M29 36h3M33 36h10M44 36h4M20 37h2M29 37h19M21 38h3M29 38h20M21 39h5M27 39h1M29 39h14M45 39h4M22 40h21M46 40h3M23 41h15M39 41h4M47 41h3M25 42h12M40 42h2M49 42h1M24 43h13M41 43h1M50 43h1M23 44h7M31 44h5M22 45h4M27 45h3M32 45h3M22 46h3M27 46h2M33 46h1M21 47h3M28 47h1M21 48h2M21 49h1" />
<path stroke="#c5ef9c" d="M64 38h1M62 39h3M61 40h3M60 41h4M48 42h1M59 42h4M59 43h3M59 44h2M52 52h1M45 53h1M51 53h3M45 54h2M51 54h3M9 55h3M42 55h1M45 55h3M49 55h1M52 55h2M8 56h4M42 56h2M45 56h5M52 56h2M8 57h5M43 57h3M47 57h3M53 57h1M8 58h5M24 58h1M44 58h1M48 58h2M8 59h4M24 59h1M49 59h1M8 60h3M23 60h2M26 60h1M29 60h1M9 61h1M23 61h4M28 61h2M23 62h2M26 62h3M26 63h2" />
</svg>