<svg xmlns="http://www.w3.org/2000/svg" viewBox="0 -0.5 80 80" shape-rendering="crispEdges">
<metadata>Made with Pixels to Svg https://codepen.io/shshaw/pen/XbxvNj</metadata>
<path stroke="#84b563" d="M34 17h9M31 18h3M43 18h1M29 19h2M46 19h1M27 20h2M41 20h2M48 20h1M26 21h2M39 21h7M38 22h10M37 23h12M24 24h1M34 24h16M23 25h3M32 25h19M23 26h28M22 27h30M21 28h31M21 29h30M21 30h30M23 31h27M25 32h13M43 32h7M54 32h1M26 33h10M45 33h3M54 33h2M20 34h2M27 34h7M53 34h4M19 35h5M29 35h4M52 35h6M18 36h7M39 36h3M50 36h8M17 37h9M37 37h7M48 37h11M17 38h9M36 38h23M17 39h10M35 39h24M16 40h2M22 40h6M33 40h19M57 40h3M23 41h28M24 42h26M11 43h1M15 43h1M17 43h2M25 43h10M40 43h9M51 43h1M16 44h4M27 44h6M42 44h10M12 45h1M18 45h3M44 45h3M50 45h2M12 46h10M49 46h3M12 47h12M34 47h7M48 47h4M13 48h13M31 48h12M46 48h6M13 49h39M71 49h2M8 50h2M13 50h14M32 50h21M64 50h1M71 50h3M6 51h4M14 51h4M23 51h5M32 51h21M63 51h1M72 51h2M75 51h1M6 52h4M25 52h4M31 52h5M42 52h7M50 52h3M71 52h2M75 52h1M6 53h5M27 53h7M45 53h2M50 53h3M62 53h1M70 53h1M6 54h7M28 54h5M51 54h3M63 54h1M3 55h1M7 55h15M51 55h3M62 55h5M71 55h1M3 56h1M8 56h16M38 56h5M47 56h2M51 56h4M60 56h1M62 56h4M68 56h1M70 56h3M4 57h1M10 57h15M36 57h15M52 57h4M59 57h7M69 57h5M4 58h2M12 58h15M35 58h14M52 58h3M57 58h4M64 58h1M70 58h4M77 58h1M5 59h2M14 59h14M33 59h19M55 59h1M58 59h1M65 59h1M70 59h5M77 59h1M6 60h53M63 60h4M71 60h4M77 60h1M3 61h3M8 61h5M18 61h41M61 61h7M71 61h4M77 61h1M3 62h9M20 62h19M43 62h17M62 62h6M71 62h2M2 63h9M22 63h15M45 63h15M62 63h6M71 63h1" />
<path stroke="#bde694" d="M34 18h9M36 19h10M36 20h4M43 20h5M35 21h4M47 21h3M34 22h4M49 22h2M25 23h1M32 23h4M50 23h2M25 24h9M51 24h1M26 25h6M58 35h2M59 36h2M59 37h2M59 38h2M59 39h2M12 40h2M11 41h3M11 42h4M12 43h3M13 44h3M15 45h2M63 48h3M62 49h5M73 49h2M61 50h3M69 50h2M74 50h2M62 51h1M64 51h8M5 52h1M63 52h8M4 53h2M63 53h7M4 54h2M64 54h7M5 55h2M67 55h4M5 56h3M69 56h1M6 57h4M7 58h4M61 58h3M10 59h2M59 59h5M59 60h4" />
<path stroke="#639442" d="M44 18h2M47 19h1M49 20h1M50 21h1M25 22h1M51 22h1M24 23h1M52 24h1M51 25h1M22 26h1M51 26h1M51 29h2M20 30h1M51 30h2M20 31h3M50 31h4M19 32h6M38 32h5M50 32h4M55 32h1M19 33h7M36 33h9M48 33h6M56 33h1M18 34h2M22 34h5M34 34h19M57 34h2M18 35h1M24 35h5M33 35h19M25 36h14M42 36h8M26 37h11M44 37h4M26 38h10M14 39h2M27 39h8M14 40h2M18 40h4M28 40h5M52 40h1M14 41h9M15 42h9M16 43h1M19 43h6M35 43h5M50 43h1M20 44h7M33 44h9M21 45h23M47 45h3M22 46h27M11 47h1M24 47h10M41 47h7M10 48h3M26 48h5M43 48h3M71 48h1M74 48h1M9 49h4M69 49h1M75 49h1M10 50h3M65 50h1M68 50h1M76 50h1M10 51h4M18 51h5M61 51h1M74 51h1M4 52h1M10 52h15M36 52h6M62 52h1M73 52h2M76 52h1M11 53h16M34 53h11M47 53h2M71 53h6M13 54h15M33 54h17M61 54h2M72 54h1M75 54h2M22 55h28M61 55h1M24 56h14M43 56h4M49 56h1M61 56h1M66 56h2M73 56h1M25 57h11M66 57h3M74 57h2M27 58h8M65 58h5M74 58h3M28 59h5M56 59h2M66 59h4M75 59h2M67 60h4M75 60h2M13 61h5M59 61h2M68 61h3M75 61h2M12 62h8M39 62h4M60 62h2M68 62h3M75 62h2M11 63h11M37 63h8M60 63h2M68 63h3" />
<path stroke="#cef7a5" d="M31 19h5M29 20h7M28 21h7M26 22h8M26 23h6" />
<path stroke="#9cce84" d="M40 20h1M46 21h1M48 22h1M36 23h1M49 23h1M50 24h1M59 34h1M58 36h1M12 44h1M13 45h2M17 45h1M27 50h5M28 51h4M29 52h2M3 54h1M4 55h1M4 56h1M5 57h1M6 58h1M11 58h1M7 59h3M12 59h2M64 59h1" />
<path stroke="#4a7b29" d="M52 23h1M23 24h1M22 25h1M21 26h1M20 27h2M52 27h1M52 28h1M19 29h1M53 29h1M53 30h1M18 31h1M54 31h1M17 33h2M59 33h1M60 35h1M16 36h2M14 38h1M12 39h2M16 39h1M11 40h1M53 40h1M56 40h1M61 40h1M10 41h1M56 41h1M60 41h1M50 42h2M10 43h1M49 43h1M11 44h1M52 44h1M52 45h1M10 46h1M52 46h1M52 47h1M63 47h4M52 48h1M62 48h1M66 48h2M72 48h2M52 49h1M61 49h1M67 49h1M70 49h1M53 50h1M66 50h2M60 51h1M76 51h1M49 52h1M77 52h1M2 53h2M49 53h1M53 53h2M50 54h1M71 54h1M54 55h2M59 55h2M72 55h2M50 56h1M56 56h1M58 56h1M74 56h2M2 57h2M58 57h1M76 57h2M49 58h2M56 58h1M78 58h1M3 59h2M52 59h1M2 60h1M5 60h1M6 61h2M2 62h1" />
<path stroke="#101010" d="M53 24h1M20 28h1M55 28h1M20 29h1M19 30h1M19 31h1M18 32h1M59 32h1M17 34h1M60 34h1M17 35h1M61 36h1M16 37h1M61 37h1M15 38h2M61 38h1M61 39h1M54 40h2M60 40h1M51 41h3M57 41h3M10 42h1M52 42h1M52 43h1M11 45h1M11 46h1M10 47h1M9 48h1M8 49h1M6 50h2M60 50h1M4 51h2M53 51h1M3 52h1M53 52h1M61 52h1M61 53h1M77 53h1M2 54h1M54 54h1M60 54h1M73 54h2M77 54h1M2 55h1M50 55h1M74 55h3M2 56h1M55 56h1M59 56h1M51 57h1M56 57h2M3 58h1M51 58h1M55 58h1M53 59h2M78 59h1M3 60h2M78 60h1M2 61h1M78 61h1M1 62h1M73 62h2M77 62h1M0 63h2M72 63h5" />
<path stroke="#d6d6de" d="M52 25h1M52 26h1M53 27h1M53 28h1M56 28h1M54 30h1M55 31h1M57 33h2" />
<path stroke="#ffffff" d="M53 25h1M53 26h2M54 27h2M54 28h1M54 29h3M55 30h3M56 31h2M56 32h3" />
<path stroke="#424a5a" d="M54 25h1M57 29h1M58 31h1" />
<path stroke="#848c9c" d="M55 26h1M56 27h1M57 28h1M58 30h1" />
</svg>