<svg xmlns="http://www.w3.org/2000/svg" viewBox="0 -0.5 80 80" shape-rendering="crispEdges">
<metadata>Made with Pixels to Svg https://codepen.io/shshaw/pen/XbxvNj</metadata>
<path stroke="#c55a00" d="M14 28h2M13 29h1M16 29h2M13 30h1M18 30h1M37 30h8M19 31h1M33 31h4M45 31h3M20 32h1M30 32h3M48 32h3M64 32h3M15 33h1M22 33h1M28 33h2M51 33h2M63 33h1M67 33h1M23 34h1M26 34h2M54 34h1M62 34h1M67 34h1M26 35h1M35 35h1M55 35h2M60 35h1M25 36h1M34 36h1M56 36h1M59 36h1M24 37h1M33 37h1M53 37h1M55 37h1M58 37h1M23 38h1M32 38h1M52 38h1M56 38h2M22 39h1M31 39h1M49 39h2M55 39h1M19 40h1M30 40h1M47 40h2M53 40h2M62 40h1M18 41h1M30 41h1M46 41h1M53 41h1M64 41h1M29 42h1M44 42h2M64 42h1M20 43h2M43 43h1M51 43h1M60 43h1M20 44h1M42 44h1M27 46h2M53 46h1M62 46h2M54 47h1M60 47h2M58 48h1M22 49h4M56 49h1M19 50h1M30 50h1M37 50h1M54 50h1M31 51h2M51 51h1" />
<path stroke="#ffa500" d="M14 29h2M15 30h2M16 31h3M18 32h2M19 33h2M64 33h3M20 34h3M29 34h3M49 34h4M63 34h4M21 35h5M27 35h8M44 35h11M62 35h5M22 36h3M26 36h8M35 36h21M60 36h3M65 36h1M23 37h1M25 37h8M34 37h19M56 37h2M59 37h2M24 38h8M33 38h18M53 38h3M58 38h2M24 39h7M32 39h17M52 39h3M56 39h3M24 40h6M32 40h13M55 40h2M25 41h5M31 41h11M63 41h1M27 42h2M30 42h9M63 42h1M31 43h1M33 43h1M35 43h1M62 43h3M30 44h1M32 44h1M34 44h1M62 44h3M63 45h1M20 50h7M18 51h13" />
<path stroke="#de7b00" d="M14 30h1M17 30h1M14 31h2M41 31h4M15 32h3M21 32h1M39 32h2M16 33h3M21 33h1M37 33h2M16 34h4M36 34h1M53 34h1M17 35h4M61 35h1M17 36h5M63 36h2M18 37h5M61 37h4M19 38h4M60 38h4M19 39h3M23 39h1M51 39h1M59 39h4M20 40h2M23 40h1M31 40h1M45 40h2M49 40h4M57 40h5M19 41h2M22 41h3M42 41h4M47 41h5M54 41h8M18 42h3M22 42h5M39 42h5M46 42h5M52 42h9M18 43h2M22 43h7M30 43h1M32 43h1M34 43h1M36 43h7M44 43h7M52 43h8M17 44h3M21 44h7M29 44h1M31 44h1M33 44h1M35 44h7M43 44h17M61 44h1M17 45h3M21 45h7M29 45h12M42 45h17M60 45h3M65 45h1M17 46h3M21 46h6M29 46h11M41 46h12M54 46h3M59 46h3M64 46h2M16 47h4M21 47h6M28 47h11M40 47h14M57 47h3M62 47h4M16 48h4M21 48h6M28 48h10M39 48h19M60 48h4M16 49h3M29 49h8M38 49h18M58 49h4M16 50h2M27 50h1M31 50h5M38 50h16M56 50h4M16 51h1M33 51h2M37 51h14M54 51h4" />
<path stroke="#a53100" d="M13 31h1M14 32h1M14 33h1M15 34h1M16 35h1M67 35h1M16 36h1M66 36h1M65 37h1M17 38h2M64 38h1M18 40h1M22 40h1M63 40h1M17 41h1M21 41h1M52 41h1M21 42h1M51 42h1M62 42h1M65 42h1M16 43h2M29 43h1M61 43h1M28 44h1M60 44h1M65 44h2M20 45h1M28 45h1M41 45h1M64 45h1M16 46h1M20 46h1M40 46h1M57 46h1M15 47h1M20 47h1M27 47h1M39 47h1M55 47h2M66 47h1M27 48h1M38 48h1M59 48h1M64 48h1M19 49h3M26 49h3M37 49h1M57 49h1M62 49h1M64 49h1M18 50h1M28 50h2M55 50h1M60 50h1M62 50h1M15 51h1M17 51h1M36 51h1M52 51h2M58 51h1M60 51h1" />
<path stroke="#ffce29" d="M37 31h4M33 32h6M41 32h7M30 33h7M39 33h12M28 34h1M32 34h4M37 34h12M36 35h8" />
<path stroke="#101010" d="M24 34h2M57 36h2M17 37h1M54 37h1M51 38h1M18 39h1M63 39h1M62 41h1M17 42h1M61 42h1M65 43h1M16 44h1M16 45h1M59 45h1M66 45h1M58 46h1M66 46h1M15 48h1M20 48h1M65 48h1M15 49h1M63 49h1M15 50h1M36 50h1M61 50h1M35 51h1M59 51h1" />
</svg>