<svg xmlns="http://www.w3.org/2000/svg" viewBox="0 -0.5 80 80" shape-rendering="crispEdges">
<metadata>Made with Pixels to Svg https://codepen.io/shshaw/pen/XbxvNj</metadata>
<path stroke="#845a73" d="M39 5h2M41 6h1M42 7h1M42 8h1M43 9h1M44 10h1M41 11h1M44 11h1M41 12h1M45 12h1M41 13h2M46 13h1M40 14h3M46 14h1M40 15h4M47 15h1M40 16h4M48 16h1M40 17h5M48 17h1M6 18h2M39 18h6M49 18h1M7 19h2M15 19h1M39 19h7M50 19h1M8 20h3M39 20h7M50 20h1M8 21h5M39 21h8M51 21h1M9 22h6M22 22h1M39 22h8M52 22h1M10 23h7M39 23h9M52 23h1M10 24h8M39 24h9M53 24h1M11 25h9M39 25h10M53 25h1M12 26h9M38 26h11M54 26h1M12 27h11M29 27h1M38 27h12M54 27h1M13 28h11M33 28h4M38 28h12M55 28h1M14 29h11M31 29h6M38 29h12M56 29h1M14 30h10M30 30h7M38 30h13M57 30h1M15 31h7M30 31h21M58 31h1M16 32h5M29 32h23M16 33h4M29 33h23M55 33h2M17 34h2M29 34h24M54 34h4M18 35h1M28 35h9M42 35h17M28 36h2M44 36h16M27 37h3M45 37h16M63 37h1M26 38h4M32 38h1M44 38h1M46 38h15M20 39h1M25 39h6M33 39h2M43 39h1M45 39h11M58 39h4M64 39h1M20 40h12M33 40h5M44 40h1M46 40h11M59 40h3M16 41h1M19 41h14M34 41h6M43 41h1M45 41h12M60 41h3M8 42h3M16 42h1M19 42h15M35 42h22M61 42h2M9 43h8M18 43h17M37 43h20M62 43h2M10 44h7M18 44h18M38 44h19M63 44h1M11 45h6M18 45h19M40 45h17M64 45h1M13 46h2M16 46h23M42 46h15M14 47h1M16 47h41M16 48h35M52 48h5M16 49h18M38 49h13M52 49h7M16 50h15M39 50h12M52 50h6M64 50h1M66 50h1M16 51h12M40 51h10M53 51h6M64 51h3M16 52h11M28 52h1M39 52h1M41 52h9M53 52h14M16 53h11M28 53h3M38 53h1M40 53h9M54 53h13M13 54h1M16 54h12M29 54h4M39 54h1M41 54h8M56 54h10M12 55h2M15 55h14M30 55h5M38 55h1M40 55h9M56 55h3M60 55h6M9 56h5M15 56h15M32 56h17M56 56h2M62 56h2M6 57h8M15 57h16M33 57h16M56 57h1M62 57h2M7 58h6M15 58h17M35 58h14M62 58h1M9 59h4M14 59h20M37 59h12M11 60h2M14 60h36M14 61h36M56 61h1M14 62h37M56 62h1M60 62h1M14 63h38M55 63h3M59 63h2M63 63h3M14 64h45M61 64h2M68 64h5M14 65h44M60 65h1M71 65h3M14 66h43M59 66h1M73 66h2M14 67h42M58 67h3M74 67h1M13 68h43M58 68h1M13 69h42M13 70h40M58 70h1M70 70h1M13 71h38M58 71h2M70 71h1M12 72h37M57 72h11M12 73h34M57 73h5M67 73h2M11 74h32M57 74h3M62 74h3M69 74h1" />
<path stroke="#52426b" d="M39 6h1M39 7h1M4 15h4M4 16h1M8 16h2M39 16h1M5 17h1M10 17h3M39 17h1M13 18h3M16 19h2M7 20h1M18 20h2M20 21h3M23 22h2M9 23h1M25 23h3M28 24h4M38 24h1M32 25h2M38 25h1M11 26h1M30 26h3M28 27h1M13 29h1M37 30h1M22 31h1M14 32h2M59 32h1M60 33h1M20 34h1M61 34h1M17 35h1M37 35h5M62 35h1M30 36h6M63 36h1M16 37h1M18 37h1M13 38h1M18 38h1M31 38h1M64 38h1M9 39h1M12 39h1M32 39h1M56 39h2M6 40h3M17 40h1M58 40h1M65 40h1M17 41h1M59 41h1M65 41h1M60 42h1M66 42h1M36 43h1M61 43h1M66 43h1M62 44h1M66 44h1M39 45h1M63 45h1M67 45h1M12 46h1M15 46h1M41 46h1M67 46h1M13 47h1M65 47h1M67 47h1M14 48h1M51 48h1M57 48h1M66 48h2M34 49h4M67 49h1M14 50h1M31 50h3M58 50h1M65 50h1M67 50h1M14 51h1M28 51h3M50 51h1M52 51h1M59 51h1M63 51h1M67 51h1M11 52h2M27 52h1M67 52h1M9 53h2M49 53h1M67 53h1M7 54h2M14 54h2M66 54h1M5 55h2M4 56h1M31 56h1M61 56h1M64 56h1M13 58h2M34 58h1M8 59h1M36 59h1M8 60h1M10 60h1M68 60h3M10 61h1M12 61h2M66 61h2M71 61h2M55 62h1M64 62h2M73 62h1M54 63h1M74 63h1M11 64h2M66 64h2M75 64h1M59 65h1M68 65h1M75 65h1M58 66h1M69 66h1M75 66h1M11 67h1M57 67h1M61 67h5M70 67h1M75 67h1M59 68h2M66 68h2M71 68h1M74 68h1M10 69h1M58 69h1M68 69h1M69 70h1M8 71h1M51 71h1M57 71h1M69 71h1M49 72h1M51 72h1M56 72h1M70 72h1M46 73h1M62 73h1M66 73h1M46 74h1M60 74h1M68 74h1" />
<path stroke="#ad6bd6" d="M40 6h1M40 7h2M40 8h1M40 9h1M40 10h1M43 10h1M40 11h1M40 12h1M40 13h1M45 13h1M5 16h3M47 16h1M6 17h4M8 18h5M9 19h6M49 19h1M11 20h7M13 21h5M15 22h5M51 22h1M17 23h5M18 24h5M52 24h1M20 25h5M30 25h2M21 26h9M53 26h1M23 27h5M24 28h4M32 28h1M25 29h6M50 29h1M24 30h6M23 31h7M22 32h7M21 33h8M52 33h1M21 34h8M20 35h8M19 36h9M36 36h1M40 36h4M62 36h1M19 37h8M31 37h2M41 37h4M19 38h7M33 38h2M41 38h3M45 38h1M13 39h4M18 39h2M21 39h4M35 39h1M40 39h3M44 39h1M9 40h8M18 40h2M38 40h6M45 40h1M7 41h9M18 41h1M40 41h3M44 41h1M11 42h5M17 42h2M63 42h1M17 43h1M17 44h1M64 44h2M17 45h1M65 45h2M65 46h2M66 47h1M34 50h5M31 51h9M13 52h2M29 52h10M40 52h1M11 53h4M31 53h7M39 53h1M9 54h4M33 54h6M40 54h1M7 55h5M35 55h3M39 55h1M5 56h4M13 62h1M66 62h1M72 62h1M13 63h1M66 63h1M72 63h2M13 64h1M73 64h2M12 65h2M61 65h1M67 65h1M74 65h1M12 66h2M60 66h1M68 66h1M12 67h2M67 67h3M11 68h2M68 68h3M11 69h2M59 69h1M67 69h1M69 69h2M10 70h3M59 70h1M67 70h2M10 71h3M60 71h1M66 71h3M9 72h3M68 72h2M8 73h4M69 73h1M7 74h4" />
<path stroke="#101010" d="M39 8h1M39 9h1M39 10h1M39 11h1M39 12h1M39 13h1M39 14h1M39 15h1M38 17h1M5 18h1M38 18h1M6 19h1M38 19h1M6 20h1M38 20h1M7 21h1M38 21h1M8 22h1M38 22h1M8 23h1M38 23h1M9 24h1M37 24h1M10 25h1M34 25h4M10 26h1M37 26h1M11 27h1M37 27h1M12 28h1M37 28h1M12 29h1M37 29h1M13 30h1M14 31h1M21 32h1M15 33h1M20 33h1M16 34h1M19 34h1M16 35h1M19 35h1M17 36h2M17 37h1M30 37h1M14 38h4M30 38h1M10 39h2M17 39h1M31 39h1M32 40h1M57 40h1M6 41h1M33 41h1M57 41h1M7 42h1M34 42h1M57 42h1M8 43h1M35 43h1M57 43h1M9 44h1M36 44h2M57 44h1M10 45h1M37 45h2M57 45h1M11 46h1M39 46h2M57 46h1M64 46h1M12 47h1M15 47h1M57 47h1M64 47h1M13 48h1M15 48h1M64 48h1M14 49h2M51 49h1M66 49h1M15 50h1M51 50h1M13 51h1M15 51h1M51 51h1M60 51h3M15 52h1M50 52h1M52 52h1M15 53h1M27 53h1M53 53h1M28 54h1M49 54h1M54 54h2M14 55h1M29 55h1M49 55h1M55 55h1M59 55h1M66 55h1M14 56h1M30 56h1M49 56h1M55 56h1M58 56h3M65 56h1M5 57h1M14 57h1M31 57h2M49 57h1M55 57h1M57 57h1M60 57h2M64 57h1M6 58h1M32 58h2M49 58h1M55 58h2M58 58h1M61 58h1M63 58h1M7 59h1M13 59h1M34 59h2M49 59h1M61 59h2M9 60h1M13 60h1M56 60h2M11 61h1M50 61h1M55 61h1M57 61h1M60 61h2M11 62h2M51 62h1M54 62h1M57 62h1M59 62h1M61 62h1M12 63h1M52 63h2M58 63h1M11 65h1M69 65h2M11 66h1M71 66h2M10 67h1M73 67h1M10 68h1M57 68h1M9 69h1M55 69h1M57 69h1M71 69h1M9 70h1M53 70h2M57 70h1M71 70h1M9 71h1M52 71h1M71 71h1M8 72h1M50 72h1M7 73h1M47 73h3M56 73h1M63 73h3M70 73h1M6 74h1M43 74h3M56 74h1M61 74h1M65 74h1M67 74h1M70 74h1" />
<path stroke="#c58cd6" d="M41 8h1M41 9h2M41 10h2M42 11h2M42 12h3M43 13h2M43 14h3M44 15h3M44 16h3M45 17h3M45 18h4M46 19h3M46 20h4M18 21h2M47 21h4M20 22h2M47 22h4M22 23h3M48 23h4M23 24h5M48 24h4M25 25h5M49 25h4M33 26h4M49 26h4M30 27h7M50 27h4M28 28h4M50 28h5M51 29h5M51 30h6M51 31h7M52 32h7M53 33h2M57 33h3M53 34h1M58 34h3M59 35h3M37 36h3M60 36h2M33 37h8M61 37h2M35 38h6M61 38h3M36 39h4M62 39h2M62 40h3M63 41h2M64 42h2M64 43h2M68 61h3M67 62h5M67 63h5M63 64h3M62 65h5M61 66h7M66 67h1M61 68h5M60 69h7M60 70h7M61 71h5" />
<path stroke="#d6d6d6" d="M58 41h1M59 42h1M60 43h1M61 44h1M62 45h1M63 46h1M65 48h1M59 49h1M64 49h2M59 50h5" />
<path stroke="#ffffff" d="M58 42h1M58 43h2M58 44h3M58 45h4M58 46h5M58 47h6M58 48h6M60 49h4" />
<path stroke="#0831a5" d="M51 52h1M50 53h3M50 54h4M50 55h5M50 56h1M54 56h1M58 59h1M50 60h1M59 60h1M59 61h1M58 62h1" />
<path stroke="#2963d6" d="M51 56h3M50 57h5M50 58h4M57 58h1M50 59h4M51 60h4M58 60h1M72 60h1M51 61h4M58 61h1M73 61h1M52 62h2M63 62h1M74 62h1M62 63h1M75 63h1M60 64h1M76 64h1M76 65h1M70 66h1M76 66h1M72 67h1M76 67h1M73 68h1M75 68h1M56 69h1M73 69h2M56 70h1M72 70h1M56 71h1M72 71h1M55 72h1M71 72h1M55 73h1M71 73h1M55 74h1M66 74h1M71 74h1" />
<path stroke="#5a94ff" d="M54 58h1M54 59h4M68 59h3M55 60h1M66 60h2M71 60h1M64 61h2M61 63h1M59 64h1M58 65h1M57 66h1M56 67h1M71 67h1M56 68h1M72 68h1M72 69h1" />
</svg>