<svg xmlns="http://www.w3.org/2000/svg" viewBox="0 -0.5 64 64" shape-rendering="crispEdges">
<metadata>Made with Pixels to Svg https://codepen.io/shshaw/pen/XbxvNj</metadata>
<path stroke="#70b808" d="M27 7h5M25 8h1M33 8h1M24 9h1M34 9h1M23 10h1M35 10h1M22 11h1M36 11h1M22 12h1M31 12h1M36 12h1M30 13h1M36 13h2M31 14h1M36 14h2M36 15h2M36 16h2M24 17h2M35 17h3M22 18h1M35 18h2M23 19h1M34 19h3M33 20h3M31 21h4M26 22h7M34 27h1M28 28h1M33 28h2M31 29h1M33 29h3M27 30h1M33 30h4M36 31h1M19 35h1M19 36h1M18 39h1M18 40h1M18 41h1M18 42h1M18 43h1M18 44h1" />
<path stroke="#406800" d="M32 7h1M21 13h1M23 13h1M21 14h1M21 15h1M21 16h1M21 17h1M37 18h1M22 19h1M23 20h1M24 21h1M25 22h1M33 22h1M27 23h6M27 29h1M32 29h1M28 31h3M34 31h2M31 32h1M33 32h1M31 33h1M33 33h1M30 34h1M34 34h1M19 37h1M19 38h1M21 39h1M21 40h1M22 41h1M22 42h1M22 43h1M22 44h1M18 45h1M22 45h1M18 46h1M22 46h1M18 47h1M22 47h1M22 48h1" />
<path stroke="#a0e030" d="M26 8h1M30 8h3M31 9h3M32 10h3M32 11h4M35 12h1M35 14h1M32 15h4M31 16h5M29 17h6M23 18h12M24 19h10M24 20h9M25 21h6M29 27h1M29 28h2M28 29h3M28 30h5M27 31h1M31 31h3M32 32h1M32 33h1M31 34h3M32 35h3M20 36h1M20 37h1M20 38h1M19 39h2M19 40h2M19 41h3M19 42h3M20 43h2M19 44h1M19 45h3M20 46h2M19 47h1M20 48h2" />
<path stroke="#b8f840" d="M27 8h3M25 9h6M24 10h8M23 11h9M24 12h7M29 13h1M30 14h1M30 15h2M30 16h1M28 33h1M29 34h1" />
<path stroke="#282828" d="M34 8h1M35 9h1M36 10h1M37 11h1M23 12h1M32 12h3M37 12h1M33 13h1M35 13h1M38 13h1M22 14h1M29 14h1M32 14h3M38 14h1M38 15h1M25 16h1M29 16h1M38 16h1M22 17h2M27 17h2M38 17h1M37 19h1M36 20h1M40 20h1M35 21h1M38 21h1M41 21h1M34 22h1M25 23h2M33 23h2M39 23h1M42 23h1M24 24h1M26 24h1M28 24h8M23 25h2M27 25h9M40 25h1M43 25h1M23 26h1M26 26h1M28 26h9M44 26h1M22 27h2M27 27h2M30 27h4M35 27h2M41 27h1M45 27h1M22 28h1M26 28h1M31 28h2M35 28h2M41 28h1M45 28h1M21 29h1M26 29h1M36 29h1M46 29h1M38 30h1M42 30h1M46 30h1M38 31h1M43 31h1M46 31h1M43 32h1M45 32h1M39 33h1M44 33h2M39 34h1M31 35h1M33 36h1M33 37h1M40 37h1M40 38h1M41 39h1M41 40h1M41 41h1M41 42h1M34 43h1M41 43h1M34 44h1M41 44h1M34 45h1M41 45h1M34 46h1M41 46h1M34 47h1M41 47h1M18 48h2M26 48h1M30 48h1M34 48h1M37 48h1M39 48h1M41 48h1M20 49h3M26 49h1M30 49h1M34 49h1M37 49h1M39 49h2M23 50h17M28 52h1M27 53h1M32 53h2M25 54h1M34 54h2M42 54h1M23 55h1M37 55h6M19 56h2" />
<path stroke="#909090" d="M22 13h1M31 13h1M20 30h1M19 32h1M38 32h1M36 33h1M39 35h1M39 36h1M39 37h1M33 38h1M40 39h1M34 40h1M40 40h1M34 41h1M40 41h1M34 42h1M40 42h1M40 43h1M26 44h1M30 44h1M40 44h1M26 45h1M30 45h1M30 52h1M41 53h1M19 54h1M18 55h1" />
<path stroke="#b89020" d="M24 13h3M28 14h1M28 15h2M26 16h3" />
<path stroke="#885800" d="M27 13h2M23 14h1M22 15h1M22 16h1M24 16h1M26 17h1" />
<path stroke="#505050" d="M32 13h1M25 24h1M27 24h1M25 25h2M24 26h2M27 26h1M25 27h2M27 28h1M37 28h1M38 29h1M20 31h1M39 32h1M19 33h1M19 34h1M40 35h1M40 36h1M37 44h1M39 44h1M37 45h1M39 45h1M23 47h3M40 47h1M23 48h3M27 48h3M31 48h3M35 48h2M38 48h1M40 48h1M23 49h3M27 49h3M31 49h3M35 49h2M38 49h1M27 51h2M32 51h1M20 53h1M30 53h2M39 53h1M21 55h1M18 56h1" />
<path stroke="#f8f8f8" d="M34 13h1M23 28h2M22 29h4M21 30h5M21 31h2M25 31h2M20 32h2M26 32h2M20 33h1M26 33h2M26 34h3M25 35h6M35 35h1M24 36h8M34 36h2M23 37h10M34 37h2M22 38h11M34 38h2M22 39h11M34 39h3M22 40h11M35 40h2M23 41h10M35 41h2M23 42h11M35 42h2M23 43h11M35 43h2M23 44h3M27 44h3M31 44h3M35 44h2M27 45h3M31 45h3M35 45h2M27 52h1M32 52h1M20 54h2M39 54h3M19 55h2" />
<path stroke="#f8d840" d="M24 14h4M23 15h5M23 16h1M23 33h2M22 34h2M21 35h2M21 36h1M19 43h1M20 44h2M19 46h1M20 47h2" />
<path stroke="#d06810" d="M38 18h1M38 19h2M39 20h1M39 21h2M40 22h2M40 23h2M41 24h2M41 25h2M42 26h2M42 27h3M42 28h3M43 29h3M43 30h3M44 31h2M44 32h1M40 45h1M26 46h1M30 46h1M38 46h1M40 46h1M26 47h1M30 47h1M38 47h1M24 51h1M22 52h2M37 52h2M34 53h1M22 54h1M36 54h1" />
<path stroke="#704800" d="M39 18h1M40 19h1M38 20h1M39 22h1M42 22h1M40 24h1M43 24h1M41 26h1M42 29h1M29 32h1M35 32h1M29 33h1M35 33h1M37 46h1M39 46h1M37 47h1M39 47h1M26 51h1M33 51h1M35 51h1M26 53h1M24 54h1M22 55h1" />
<path stroke="#c8c8c8" d="M24 27h1M25 28h1M37 29h1M26 30h1M37 30h1M37 31h1M37 32h1M37 33h2M35 34h4M36 35h3M32 36h1M36 36h3M36 37h3M36 38h4M33 39h1M37 39h3M33 40h1M37 40h3M33 41h1M37 41h3M37 42h3M37 43h3M38 44h1M38 45h1M31 52h1M40 53h1" />
<path stroke="#f8a038" d="M23 31h2M22 32h4M28 32h1M30 32h1M34 32h1M36 32h1M21 33h2M25 33h1M30 33h1M34 33h1M20 34h2M24 34h2M20 35h1M23 35h2M22 36h2M21 37h2M21 38h1M23 45h3M23 46h3M27 46h3M31 46h3M35 46h2M27 47h3M31 47h3M35 47h2M25 51h1M34 51h1M24 52h3M33 52h4M21 53h5M35 53h4M23 54h1M37 54h2" />
</svg>