<svg xmlns="http://www.w3.org/2000/svg" viewBox="0 -0.5 64 64" shape-rendering="crispEdges">
<metadata>Made with Pixels to Svg https://codepen.io/shshaw/pen/XbxvNj</metadata>
<path stroke="#101010" d="M23 19h18M22 20h1M41 20h1M22 21h1M41 21h1M23 22h7M34 22h7M30 23h1M33 23h1M30 24h1M33 24h1M30 25h1M33 25h1M30 26h1M33 26h1M30 27h1M33 27h1M29 28h2M33 28h2M35 29h2M37 30h1M38 31h1M32 32h2M39 32h1M34 33h1M39 33h1M35 34h1M40 34h1M32 35h1M36 35h1M40 35h1M32 36h2M36 36h1M40 36h1M27 37h1M30 37h2M33 37h1M36 37h1M40 37h1M23 38h1M27 38h1M31 38h2M36 38h1M40 38h1M23 39h1M28 39h1M35 39h1M40 39h1M24 40h1M29 40h1M34 40h1M39 40h1M24 41h1M30 41h4M39 41h1M25 42h1M38 42h1M26 43h1M37 43h1M27 44h2M35 44h2M29 45h6" />
<path stroke="#204098" d="M23 20h1M33 20h1M35 20h5M31 26h1M31 27h1M29 29h5M27 30h2M32 30h4M26 31h1M30 31h7M25 32h1M29 32h1M34 32h4M25 33h1M28 33h1M36 33h3M24 34h1M27 34h1M36 34h3M24 35h1M26 35h1M37 35h2M24 36h1M26 36h1M37 36h2M24 37h3M32 37h1M37 37h2M24 38h3M37 38h2M24 39h4M36 39h1M38 39h1M25 40h3M37 40h2M26 41h4M34 41h1M36 41h2M27 42h5M35 42h2M28 43h8" />
<path stroke="#2870f8" d="M24 20h1M28 20h5M34 20h1M31 23h1M31 24h1M31 25h1M30 30h2M29 31h1M28 32h1M27 33h1M26 34h1M33 35h1M25 36h1M30 38h1M33 38h1M37 39h1M36 40h1M35 41h1M32 42h3" />
<path stroke="#60c8f8" d="M25 20h3M29 30h1M27 31h2M26 32h2M26 33h1M30 33h1M33 33h1M25 34h1M25 35h1M28 35h1M35 35h1M28 38h1M35 38h1M30 40h1M33 40h1" />
<path stroke="#333366" d="M40 20h1M23 21h18M30 22h4M32 23h1M32 24h1M32 25h1M32 26h1M32 27h1M31 28h2M27 29h2M34 29h1M26 30h1M36 30h1M25 31h1M37 31h1M24 32h1M30 32h2M38 32h1M24 33h1M29 33h1M35 33h1M23 34h1M28 34h1M39 34h1M23 35h1M27 35h1M31 35h1M39 35h1M23 36h1M27 36h1M30 36h1M39 36h1M23 37h1M39 37h1M39 38h1M39 39h1M28 40h1M35 40h1M25 41h1M38 41h1M26 42h1M37 42h1M27 43h1M36 43h1M29 44h6" />
<path stroke="#f8f8f8" d="M31 33h2M29 34h6M29 35h2M34 35h1M28 36h2M31 36h1M34 36h2M28 37h2M34 37h2M29 38h1M34 38h1M29 39h6M31 40h2" />
</svg>