<svg xmlns="http://www.w3.org/2000/svg" viewBox="0 -0.5 64 64" shape-rendering="crispEdges">
<metadata>Made with Pixels to Svg https://codepen.io/shshaw/pen/XbxvNj</metadata>
<path stroke="#333366" d="M31 19h2M30 20h1M29 21h4M27 22h2M26 23h1M36 23h1M25 24h1M37 24h1M24 25h1M30 25h2M38 25h1M24 26h1M29 26h1M35 26h1M17 27h3M23 27h1M28 27h1M39 27h1M44 27h3M16 28h1M19 28h1M23 28h1M27 28h1M31 28h1M39 28h1M43 28h1M46 28h1M16 29h1M19 29h1M23 29h1M27 29h1M30 29h1M39 29h1M43 29h1M46 29h1M16 30h1M19 30h1M39 30h1M43 30h1M46 30h1M16 31h1M19 31h1M39 31h1M43 31h1M46 31h1M16 32h1M43 32h1M46 32h1M16 33h1M20 33h1M28 33h1M35 33h1M46 33h1M17 34h1M24 34h2M38 34h2M21 35h1M25 35h2M37 35h2M40 35h1M42 35h1M45 35h1M18 36h1M22 36h1M24 36h2M28 36h1M35 36h1M41 36h1M23 37h2M30 37h4M40 37h1M44 37h1M31 38h2M43 38h1M26 39h1M32 39h1M42 39h1M28 40h1M32 40h1M41 40h1M30 41h4M40 41h1M24 42h1M39 42h1M26 43h1M37 43h1M29 44h6" />
<path stroke="#2870f8" d="M31 20h1M30 23h2M29 24h1M28 25h1M27 26h1M26 27h1M33 28h1M18 29h1M25 29h1M45 29h1M18 30h1M45 30h1M17 31h1M30 31h1M33 31h1M44 31h1M17 32h1M37 32h1M44 32h1M36 33h1M35 34h1M33 35h2M42 37h1M41 38h1M40 39h1M38 40h2M36 41h2M29 42h1M31 42h5" />
<path stroke="#204098" d="M32 20h1M29 22h6M27 23h2M32 23h4M26 24h1M30 24h7M25 25h1M29 25h1M34 25h4M25 26h1M28 26h1M36 26h3M24 27h1M27 27h1M36 27h3M17 28h1M24 28h1M26 28h1M37 28h2M44 28h1M24 29h1M26 29h1M37 29h2M24 30h3M32 30h1M37 30h2M18 31h1M24 31h3M37 31h2M45 31h1M18 32h2M25 32h3M36 32h1M38 32h1M45 32h1M17 33h3M25 33h3M37 33h2M43 33h3M18 34h3M26 34h4M34 34h1M36 34h2M43 34h3M18 35h3M23 35h2M27 35h6M35 35h2M39 35h1M43 35h2M19 36h3M23 36h1M29 36h6M38 36h3M42 36h3M19 37h4M39 37h1M41 37h1M43 37h1M20 38h4M40 38h1M42 38h1M21 39h4M31 39h1M39 39h1M41 39h1M22 40h5M31 40h1M37 40h1M40 40h1M23 41h6M35 41h1M38 41h2M25 42h4M30 42h1M36 42h3M27 43h10" />
<path stroke="#101010" d="M33 20h1M33 21h2M35 22h2M37 23h1M38 24h1M32 25h2M39 25h1M34 26h1M39 26h1M35 27h1M40 27h1M20 28h1M32 28h1M36 28h1M40 28h1M47 28h1M20 29h1M32 29h2M36 29h1M40 29h1M47 29h1M20 30h1M23 30h1M27 30h1M30 30h2M33 30h1M36 30h1M40 30h1M47 30h1M20 31h1M23 31h1M27 31h1M31 31h2M36 31h1M40 31h1M47 31h1M20 32h1M24 32h1M28 32h1M35 32h1M39 32h1M47 32h1M21 33h1M24 33h1M29 33h1M34 33h1M39 33h1M42 33h1M47 33h1M21 34h1M23 34h1M30 34h4M40 34h1M42 34h1M46 34h1M17 35h1M22 35h1M41 35h1M46 35h1M26 36h2M36 36h2M45 36h1M18 37h1M25 37h1M28 37h2M34 37h2M38 37h1M45 37h1M19 38h1M24 38h1M30 38h1M33 38h1M39 38h1M44 38h1M20 39h1M25 39h1M30 39h1M33 39h1M37 39h2M43 39h1M21 40h1M27 40h1M30 40h1M33 40h1M35 40h2M42 40h1M22 41h1M29 41h1M34 41h1M41 41h1M23 42h1M40 42h1M24 43h2M38 43h2M26 44h3M35 44h3M29 45h6" />
<path stroke="#60c8f8" d="M29 23h1M27 24h2M26 25h2M26 26h1M30 26h1M33 26h1M25 27h1M18 28h1M25 28h1M28 28h1M35 28h1M45 28h1M17 29h1M44 29h1M17 30h1M44 30h1M28 31h1M35 31h1M30 33h1M33 33h1" />
<path stroke="#f8f8f8" d="M31 26h2M29 27h6M29 28h2M34 28h1M28 29h2M31 29h1M34 29h2M28 30h2M34 30h2M29 31h1M34 31h1M29 32h6M31 33h2" />
</svg>