<svg xmlns="http://www.w3.org/2000/svg" viewBox="0 -0.5 64 64" shape-rendering="crispEdges">
<metadata>Made with Pixels to Svg https://codepen.io/shshaw/pen/XbxvNj</metadata>
<path stroke="#34396c" d="M30 15h1M29 16h1M33 16h1M29 17h1M33 17h1M29 18h1M33 18h1M29 19h1M33 19h1M29 20h1M33 20h1M29 21h1M33 21h1M29 22h1M33 22h1M29 23h1M33 23h1M29 24h1M33 24h1M29 25h1M33 25h1M29 26h1M33 26h1M29 27h1M33 27h1M29 28h1M33 28h1M29 29h1M33 29h1M29 30h1M33 30h1M29 31h5M27 33h1M35 33h1M26 34h1M36 34h1M25 35h1M30 35h1M37 35h1M24 36h1M28 36h2M35 36h1M38 36h1M24 37h1M28 37h1M38 37h1M23 38h1M27 38h1M39 38h1M23 39h1M27 39h9M39 39h1M39 40h1M39 41h1M38 42h1M25 43h1M28 43h1M35 43h1M38 43h1M37 44h1M36 45h1M28 46h1M34 46h2M30 47h4" />
<path stroke="#0f0f0f" d="M31 15h3M34 16h1M34 17h1M34 18h1M34 19h1M34 20h1M34 21h1M34 22h1M34 23h1M34 24h1M34 25h1M34 26h1M34 27h1M34 28h1M34 29h1M34 30h1M34 31h1M28 32h2M34 32h2M36 33h1M37 34h1M31 35h3M38 35h1M34 36h1M39 36h1M35 37h1M39 37h1M36 38h1M40 38h1M36 39h1M40 39h1M23 40h1M27 40h1M30 40h2M33 40h1M36 40h1M40 40h1M23 41h1M27 41h1M31 41h2M36 41h1M40 41h1M24 42h1M28 42h1M35 42h1M39 42h1M24 43h1M29 43h1M34 43h1M39 43h1M25 44h1M30 44h4M38 44h1M26 45h1M37 45h1M27 46h1M36 46h1M28 47h2M34 47h2M30 48h4" />
<path stroke="#2971ff" d="M30 16h2M32 17h1M32 18h1M30 19h3M30 20h2M30 21h2M30 22h2M30 23h2M30 24h2M30 25h2M30 26h2M30 27h2M30 28h1M30 29h1M30 30h1M31 33h1M29 34h2M28 35h1M27 36h1M31 36h1M25 37h1M30 37h2M26 38h1M28 38h2M25 39h1M25 40h1M30 41h1M33 41h1M36 43h1M35 44h1M32 45h3" />
<path stroke="#24469d" d="M32 16h1M32 20h1M32 21h1M32 22h1M32 23h1M32 24h1M32 25h1M32 26h1M32 27h1M31 28h2M31 29h2M31 30h2M30 32h4M28 33h1M32 33h3M27 34h1M31 34h5M26 35h1M29 35h1M34 35h3M25 36h1M32 36h2M36 36h2M27 37h1M32 37h3M36 37h2M24 38h1M30 38h6M37 38h2M24 39h1M26 39h1M37 39h2M24 40h1M26 40h1M32 40h1M37 40h2M24 41h3M37 41h2M25 42h3M36 42h2M26 43h2M37 43h1M26 44h4M34 44h1M36 44h1M27 45h5M35 45h1M29 46h5" />
<path stroke="#62ceff" d="M30 17h2M30 18h2M29 33h2M28 34h1M27 35h1M26 36h1M30 36h1M26 37h1M29 37h1M25 38h1M28 41h1M35 41h1M30 43h1M33 43h1" />
<path stroke="#ffffff" d="M28 40h2M34 40h2M29 41h1M34 41h1M29 42h6M31 43h2" />
</svg>