<svg xmlns="http://www.w3.org/2000/svg" viewBox="0 -0.5 64 64" shape-rendering="crispEdges">
<metadata>Made with Pixels to Svg https://codepen.io/shshaw/pen/XbxvNj</metadata>
<path stroke="#1850c8" d="M25 14h3M22 15h2M21 16h1M32 16h1M20 17h1M33 17h1M30 18h4M19 19h1M29 19h1M32 19h3M28 20h1M33 20h2M27 21h1M33 21h2M27 22h1M33 22h2M27 23h1M32 23h2M28 24h1M31 24h3M27 25h6M26 26h5M28 27h2M27 28h3M29 29h1M32 29h4M26 30h2M30 30h1M33 30h1M36 30h3M25 31h1M27 31h1M37 31h3M24 32h1M38 32h3M38 33h3M37 34h4M37 35h4M25 36h3M36 36h4M24 37h1M28 37h2M35 37h4M30 38h1M33 38h5M31 39h6M32 40h4" />
<path stroke="#003098" d="M28 14h3M31 15h1M19 20h1M19 21h1M31 26h1M24 27h4M26 28h1M30 28h1M34 28h2M27 29h1M30 29h1M36 29h1M31 30h2M40 31h1M24 33h1M23 34h1M23 35h1M23 36h1M40 36h1M39 37h1" />
<path stroke="#4078f0" d="M24 15h1M26 15h5M22 16h1M27 16h5M21 17h1M27 17h6M20 18h1M27 18h3M21 19h1M26 19h3M21 20h7M23 21h4M25 22h2M26 23h1M27 24h1M28 29h1M29 30h1M34 30h2M29 31h8M27 32h1M29 32h9M28 33h10M27 34h10M25 35h12M24 36h1M28 36h8M30 37h5M31 38h2" />
<path stroke="#78b0f8" d="M25 15h1M23 16h4M22 17h1M25 17h2M21 18h2M25 18h2M22 19h4M28 30h1M26 31h1M28 31h1M28 32h1M26 33h2M24 34h3M24 35h1" />
<path stroke="#101010" d="M32 15h1M33 16h1M34 17h1M34 18h1M35 19h1M35 20h1M35 21h1M29 22h1M35 22h1M29 23h1M34 23h1M48 23h1M34 24h1M33 25h1M47 25h1M23 26h3M32 26h1M46 26h1M20 27h2M30 27h1M45 27h1M17 28h2M31 28h3M43 28h1M31 29h1M37 29h2M42 29h1M39 30h1M41 30h1M41 31h1M41 32h1M41 33h1M41 34h1M41 35h1M41 37h3M44 39h1M44 40h1M25 41h1M26 42h2M34 42h1M28 43h6M43 43h1M42 45h1M41 46h1M39 47h2M37 48h2" />
<path stroke="#886890" d="M47 16h2M45 17h1M44 18h1M43 19h1M42 20h1M48 21h1M41 22h1M40 24h1M47 24h1M40 25h1M46 25h1M14 26h1M45 26h1M44 27h1M42 28h1M41 29h1M22 34h1M20 35h1M19 36h1M18 37h1M17 38h1M43 38h1M17 39h1M23 39h1M23 41h1M33 41h2M22 42h1M28 42h6M33 44h1M33 45h1M33 46h1" />
<path stroke="#f8f8f8" d="M23 17h2M23 18h2M46 18h1M20 19h1M30 19h2M45 19h2M20 20h1M29 20h4M44 20h2M28 21h1M31 21h1M43 21h2M21 22h1M28 22h1M31 22h1M43 22h1M19 23h1M28 23h1M18 24h1M29 24h1M42 24h1M25 32h2M25 33h1M19 37h2M19 38h2M25 38h1M36 43h2M36 44h1" />
<path stroke="#c0a0c0" d="M46 17h1M48 19h1M48 20h1M42 21h1M47 21h1M47 22h1M24 23h1M41 23h1M47 23h1M16 24h1M25 24h1M46 24h1M15 25h1M22 25h4M45 25h1M19 26h3M44 26h1M17 27h2M43 27h1M40 30h1M21 35h1M40 38h3M38 39h2M43 39h1M22 40h2M25 40h1M30 40h2M37 40h1M43 40h1M21 41h2M26 41h7M36 41h1M43 41h1M19 42h3M42 42h1M42 43h1M41 44h1M40 45h2M34 46h1M38 46h3M35 47h4" />
<path stroke="#f8e8e8" d="M47 17h1M45 18h1M47 18h1M44 19h1M43 20h1M46 20h1M45 21h1M22 22h1M42 22h1M44 22h1M20 23h1M42 23h3M19 24h1M43 24h1M17 25h1M41 25h2M16 26h1M41 26h1M41 27h1M40 28h1M39 29h1M20 36h1M21 37h1M25 37h3M18 38h1M21 38h1M24 38h1M26 38h2M18 39h3M25 39h2M36 42h2M35 43h1M38 43h1M35 44h1M37 44h2M36 45h2" />
<path stroke="#e8c8e8" d="M48 17h1M48 18h1M47 19h1M47 20h1M46 21h1M20 22h1M23 22h1M45 22h2M21 23h3M45 23h2M17 24h1M20 24h5M41 24h1M44 24h2M16 25h1M18 25h4M43 25h2M15 26h1M17 26h2M42 26h2M15 27h2M42 27h1M41 28h1M40 29h1M22 35h1M21 36h2M22 37h1M22 38h1M28 38h2M21 39h2M24 39h1M27 39h4M40 39h3M18 40h4M26 40h4M38 40h5M18 41h3M37 41h6M35 42h1M38 42h4M39 43h3M34 44h1M39 44h2M34 45h2M38 45h2M35 46h3" />
<path stroke="#604070" d="M49 17h1M49 18h1M49 19h1M49 20h1M20 21h3M30 21h1M49 21h1M19 22h1M24 22h1M30 22h1M48 22h1M18 23h1M25 23h1M26 24h1M26 25h1M22 26h1M40 26h1M14 27h1M19 27h1M40 27h1M15 28h2M39 28h1M23 37h1M40 37h1M23 38h1M38 38h2M44 38h1M37 39h1M17 40h1M24 40h1M36 40h1M17 41h1M24 41h1M35 41h1M44 41h1M18 42h1M23 42h1M43 42h1M19 43h4M34 43h1M42 44h1M34 47h1M35 48h2" />
<path stroke="#d0d0d0" d="M29 21h1M32 21h1M32 22h1M31 23h1M30 24h1" />
<path stroke="#686878" d="M30 23h1" />
</svg>