<svg xmlns="http://www.w3.org/2000/svg" viewBox="0 -0.5 64 64" shape-rendering="crispEdges">
<metadata>Made with Pixels to Svg https://codepen.io/shshaw/pen/XbxvNj</metadata>
<path stroke="#8098c0" d="M9 0h3M19 0h5M8 1h1M12 1h1M17 1h2M24 1h1M7 2h1M15 2h2M46 2h2M6 3h1M45 3h1M50 3h1M44 4h1M58 4h2M5 5h1M21 5h1M44 5h1M57 5h1M4 6h1M18 6h1M57 6h1M4 7h1M9 7h1M16 7h1M43 7h4M3 8h1M8 8h1M15 8h1M43 8h1M47 8h1M3 9h1M43 9h1M2 10h1M17 10h2M44 11h3M51 11h1M58 11h1M17 12h1M44 12h1M47 12h1M59 12h1M1 14h1M45 14h2M50 14h1M47 15h1M48 16h1M49 17h1M1 19h1M50 19h1M2 20h1M15 21h1M10 22h1M14 22h1M51 22h1M62 22h1M3 23h1M10 23h1M13 23h1M11 24h2M28 24h6M11 25h1M26 25h2M34 25h2M61 25h1M10 26h1M23 26h2M36 26h1M54 26h1M10 27h1M21 27h2M53 27h1M60 27h1M9 28h1M19 28h2M52 28h1M9 29h1M18 29h1M50 29h1M59 29h1M8 30h1M17 30h1M48 30h1M8 31h1M16 31h1M46 31h1M58 31h1M7 32h1M17 32h1M23 32h1M44 32h1M7 33h1M42 33h1M6 34h1M17 34h1M32 34h1M6 35h1M22 35h1M30 35h1M49 35h1M53 35h1M30 36h1M46 36h2M51 36h1M40 37h1M45 37h1M23 38h1M44 38h1M4 41h1M21 41h1M23 41h1M43 41h1M4 42h1M16 42h1M21 42h1M42 42h1M4 43h1M4 44h1M19 44h1M42 44h5M5 45h1M41 45h4M5 46h1M41 46h2M6 47h1M41 47h1M57 47h1M6 48h1M57 48h2M58 49h1M16 50h1M9 51h1M39 51h1M13 52h1M22 52h1M39 52h1M6 53h1M21 53h2M39 53h1M5 54h1M13 54h1M15 54h1M18 54h4M12 55h2M16 55h4M38 55h1M8 56h5M21 56h2M37 56h1M10 57h1M22 57h4M35 57h2M33 58h2M29 60h3M28 61h3M24 62h2M27 62h2" />
<path stroke="#f8f8f8" d="M9 1h3M19 1h4M8 2h5M17 2h4M7 3h3M12 3h1M15 3h3M6 4h3M13 4h3M45 4h3M6 5h3M12 5h2M45 5h6M5 6h3M11 6h2M45 6h7M5 7h3M10 7h2M47 7h6M4 8h4M9 8h2M44 8h3M49 8h5M4 9h6M44 9h5M50 9h5M3 10h6M44 10h6M51 10h5M3 11h5M47 11h4M52 11h5M3 12h5M45 12h2M49 12h3M53 12h4M3 13h4M45 13h4M50 13h8M3 14h4M47 14h3M51 14h7M2 15h5M46 15h1M48 15h3M52 15h8M2 16h5M47 16h1M49 16h11M2 17h5M48 17h1M50 17h10M2 18h5M50 18h10M3 19h4M51 19h9M3 20h4M51 20h9M3 21h4M51 21h9M4 22h4M15 22h1M52 22h8M4 23h4M14 23h2M52 23h8M5 24h4M13 24h3M52 24h3M56 24h3M5 25h5M12 25h4M28 25h4M52 25h3M56 25h3M6 26h4M11 26h4M25 26h9M52 26h2M56 26h3M6 27h4M11 27h4M23 27h12M52 27h1M55 27h3M7 28h2M10 28h5M21 28h2M24 28h12M54 28h4M8 29h1M10 29h4M20 29h2M24 29h13M52 29h5M9 30h5M19 30h2M24 30h13M50 30h6M9 31h5M18 31h2M24 31h14M48 31h6M8 32h6M18 32h1M24 32h14M46 32h6M8 33h6M23 33h5M32 33h6M45 33h6M7 34h7M23 34h4M33 34h5M43 34h7M7 35h7M23 35h3M28 35h2M34 35h4M42 35h6M6 36h8M22 36h3M27 36h3M34 36h4M42 36h3M6 37h8M22 37h2M26 37h5M34 37h3M41 37h3M6 38h9M22 38h1M27 38h5M34 38h3M39 38h4M5 39h10M22 39h1M25 39h1M27 39h1M29 39h7M37 39h4M5 40h9M18 40h1M22 40h1M24 40h3M30 40h10M5 41h9M17 41h2M22 41h1M25 41h1M30 41h9M45 41h5M5 42h9M17 42h2M22 42h1M31 42h7M44 42h8M5 43h9M16 43h2M21 43h3M32 43h5M50 43h4M5 44h8M15 44h1M20 44h1M23 44h1M32 44h4M53 44h2M6 45h7M18 45h1M23 45h1M33 45h2M6 46h7M16 46h3M23 46h1M7 47h7M7 48h6M15 48h1M8 49h4M14 49h2M9 50h3M13 50h3M17 50h1M21 50h1M10 51h2M13 51h3M14 52h1M9 53h4M6 54h5" />
<path stroke="#a8c0e0" d="M23 1h1M23 2h2M24 3h1M5 4h1M24 4h1M60 5h2M23 6h1M60 6h2M8 7h1M23 7h1M61 7h1M21 8h1M61 8h1M14 9h1M61 9h1M19 10h2M61 10h2M16 11h3M61 11h2M61 12h2M59 13h1M62 13h1M62 14h1M62 15h1M62 16h1M62 17h1M62 18h1M62 19h1M62 20h1M10 21h1M62 21h1M61 24h1M55 25h1M57 32h1M29 33h3M56 33h1M28 34h1M55 34h1M26 35h1M31 35h2M41 35h1M50 35h3M25 36h1M31 36h2M48 36h3M24 37h1M31 37h2M37 37h1M46 37h4M26 38h1M32 38h1M45 38h2M36 39h1M42 39h4M41 40h4M42 41h1M40 43h1M40 44h1M14 47h1M23 47h1M13 48h1M23 48h1M12 49h1M22 49h1M18 52h3M38 53h1M37 54h2M36 55h2M35 56h2M33 57h2M29 58h4" />
<path stroke="#485888" d="M13 2h1M25 2h1M48 2h2M13 3h1M25 3h1M51 3h1M12 4h1M52 4h1M60 4h2M11 5h1M22 5h3M53 5h1M62 5h1M10 6h1M19 6h2M44 6h1M54 6h1M17 7h1M55 7h1M57 7h1M22 8h2M48 8h1M56 8h2M19 9h3M49 9h1M57 9h1M62 9h1M43 10h1M50 10h1M63 10h1M2 11h1M63 11h1M2 12h1M48 12h1M2 13h1M44 13h1M49 13h1M44 14h1M1 15h1M45 15h1M1 16h1M45 16h2M1 17h1M47 17h1M1 18h1M48 18h2M13 19h1M49 19h1M13 20h1M50 20h1M63 20h1M2 21h1M12 21h1M16 21h1M50 21h1M63 21h1M2 22h1M12 22h1M16 22h1M63 22h1M12 23h1M16 23h1M51 23h1M62 23h1M3 24h1M16 24h1M51 24h1M4 25h1M16 25h1M51 25h1M16 26h1M51 26h1M61 26h1M37 27h1M51 27h1M38 28h1M51 28h1M60 28h1M38 29h1M49 30h1M59 30h1M47 31h1M45 32h1M43 33h1M29 34h3M41 34h1M27 35h1M40 35h1M5 36h1M16 36h1M26 36h1M40 36h1M52 36h1M5 37h1M25 37h1M50 37h1M5 38h1M15 38h1M24 38h2M47 38h2M26 39h1M14 40h1M23 40h1M47 40h3M41 41h1M50 41h2M41 42h1M52 42h1M41 43h1M13 44h1M45 45h3M44 46h1M7 49h1M8 50h1M22 50h1M21 51h1M9 52h4M7 53h2M13 53h1M14 54h1M22 54h1M39 54h1M5 55h1M8 55h1M20 55h1M22 55h1M7 56h1M16 56h1M9 57h1M20 57h1M22 58h1M35 58h1M26 59h1M29 59h4M24 60h2M23 61h1M27 61h1M23 62h1" />
<path stroke="#d0e0f8" d="M21 2h2M10 3h2M18 3h6M46 3h4M9 4h3M16 4h8M48 4h4M9 5h2M14 5h7M51 5h2M58 5h2M8 6h2M13 6h5M21 6h2M52 6h2M58 6h2M12 7h4M18 7h5M53 7h2M58 7h3M11 8h4M16 8h5M54 8h2M58 8h3M10 9h4M15 9h4M55 9h2M58 9h3M9 10h8M56 10h2M59 10h2M8 11h8M57 11h1M59 11h2M8 12h9M52 12h1M57 12h2M60 12h1M7 13h10M58 13h1M60 13h2M2 14h1M7 14h9M58 14h4M7 15h8M51 15h1M60 15h2M7 16h8M60 16h2M7 17h7M60 17h2M7 18h7M60 18h2M2 19h1M7 19h6M60 19h2M7 20h6M60 20h2M7 21h3M11 21h1M60 21h2M3 22h1M8 22h2M11 22h1M60 22h2M8 23h2M11 23h1M60 23h2M4 24h1M9 24h2M55 24h1M59 24h2M10 25h1M32 25h2M59 25h2M5 26h1M15 26h1M34 26h2M55 26h1M59 26h2M15 27h1M35 27h2M54 27h1M58 27h2M15 28h1M36 28h2M53 28h1M58 28h2M14 29h2M19 29h1M37 29h1M51 29h1M57 29h2M14 30h2M18 30h1M37 30h2M56 30h3M14 31h2M17 31h1M38 31h1M54 31h4M14 32h3M38 32h2M52 32h5M14 33h5M28 33h1M38 33h2M44 33h1M51 33h5M14 34h3M27 34h1M38 34h2M42 34h1M50 34h5M14 35h3M33 35h1M38 35h2M48 35h1M14 36h2M33 36h1M38 36h2M41 36h1M45 36h1M14 37h2M33 37h1M38 37h2M44 37h1M33 38h1M37 38h2M43 38h1M18 39h1M41 39h1M40 40h1M40 41h1M23 42h1M40 42h1M18 43h1M43 43h7M17 44h1M47 44h6M15 45h1M52 45h4M54 46h3M56 47h1M15 52h2M14 53h4M11 54h2M16 54h2M6 55h2M9 55h3M27 59h2M26 60h3M24 61h3" />
<path stroke="#101010" d="M14 3h1M25 4h1M25 5h1M24 6h1M62 6h1M24 7h1M62 7h1M62 8h1M21 10h1M58 10h1M19 11h2M18 12h1M63 12h1M17 13h1M63 13h1M16 14h1M63 14h1M15 15h1M63 15h1M15 16h1M63 16h1M14 17h1M63 17h1M14 18h1M63 18h1M63 19h1M24 24h2M62 24h1M25 25h1M45 25h1M62 25h1M4 26h1M45 26h1M5 27h1M16 27h1M45 27h1M61 27h1M6 28h1M16 28h1M45 28h1M7 29h1M16 29h1M44 29h1M60 29h1M16 30h1M23 30h1M43 30h1M23 31h1M39 31h1M42 31h1M59 31h1M22 32h1M40 32h2M58 32h1M4 33h1M22 33h1M40 33h1M57 33h1M5 34h1M22 34h1M40 34h1M56 34h1M5 35h1M21 35h1M54 35h2M21 36h1M53 36h1M21 37h1M51 37h1M21 38h1M49 38h1M3 39h1M21 39h1M23 39h2M46 39h1M4 40h1M21 40h1M45 40h2M20 41h1M24 41h1M44 41h1M20 42h1M24 42h1M43 42h1M53 42h1M19 43h2M24 43h1M42 43h1M54 43h1M16 44h1M18 44h1M21 44h2M24 44h1M41 44h1M55 44h1M59 44h2M16 45h2M19 45h2M22 45h1M24 45h1M48 45h4M56 45h3M14 46h2M19 46h1M22 46h1M24 46h1M43 46h1M52 46h2M57 46h1M15 47h2M22 47h1M24 47h1M42 47h1M55 47h1M58 47h1M14 48h1M16 48h1M22 48h1M24 48h1M40 48h2M56 48h1M59 48h1M13 49h1M16 49h1M23 49h1M40 49h1M57 49h1M59 49h1M12 50h1M23 50h1M40 50h1M58 50h2M12 51h1M16 51h2M22 51h2M40 51h1M17 52h1M21 52h1M23 52h1M40 52h1M18 53h3M23 53h1M40 53h1M14 55h2M21 55h1M39 55h1M5 56h2M13 56h1M17 56h4M38 56h1M6 57h3M11 57h2M21 57h1M37 57h1M8 58h3M23 58h6M36 58h1M33 59h2M32 60h1M31 61h1M26 62h1M29 62h2M24 63h6" />
<path stroke="#902028" d="M23 22h2M22 23h1M24 23h1M22 24h1M43 24h3M22 25h3M43 25h1M42 26h1M44 26h1M42 27h1M44 27h1M23 28h1M41 28h1M43 28h2M22 29h2M40 29h4M1 30h1M21 30h2M39 30h4M1 31h2M20 31h3M40 31h2M1 32h3M19 32h3M1 33h1M3 33h1M19 33h1M21 33h1M2 34h3M18 34h1M20 34h2M2 35h1M4 35h1M17 35h1M19 35h2M2 36h1M4 36h1M17 36h1M19 36h2M2 37h1M4 37h1M16 37h1M18 37h3M3 38h2M16 38h5M4 39h1M15 39h3M19 39h2M15 40h3M19 40h2M14 41h3M19 41h1M14 42h2M19 42h1M14 43h2M56 43h5M14 44h1M13 45h2M13 46h1M53 47h2M53 48h1M55 48h1M53 49h2M53 50h1" />
<path stroke="#f08888" d="M23 23h1M43 26h1M2 33h1M3 35h1M18 35h1" />
<path stroke="#d85860" d="M23 24h1M44 25h1M43 27h1M42 28h1M20 33h1M19 34h1M3 36h1M18 36h1M3 37h1M17 37h1M56 44h3M54 48h1" />
<path stroke="#f888a8" d="M28 39h1M27 40h1M29 40h1M26 41h1M29 41h1M39 41h1M25 42h1M30 42h1M38 42h1M31 43h1M37 43h1M31 44h1M36 44h1M32 45h1M35 45h1M33 46h2" />
<path stroke="#f06890" d="M28 40h1M27 41h2M26 42h4M39 42h1M25 43h6M38 43h2M25 44h6M37 44h3M25 45h7M36 45h4M26 46h7M35 46h5M26 47h13M27 48h11M28 49h9M30 50h6" />
<path stroke="#984000" d="M21 45h1M20 46h2M17 47h3M21 47h1M17 48h1M21 48h1M17 49h1M21 49h1" />
<path stroke="#684050" d="M40 45h1M40 46h1M40 47h1M39 49h1M39 50h1M38 51h1M38 52h1M37 53h1M36 54h1M35 55h1M23 56h3M33 56h2M26 57h7" />
<path stroke="#c84878" d="M25 46h1M25 47h1M39 47h1M25 48h2M38 48h2M24 49h4M37 49h2M24 50h6M36 50h3M24 51h14M24 52h14M24 53h13M23 54h13M23 55h12M26 56h7" />
<path stroke="#e85800" d="M20 47h1M18 48h3M18 49h3M18 50h3M18 51h3" />
</svg>