<svg xmlns="http://www.w3.org/2000/svg" viewBox="0 -0.5 64 64" shape-rendering="crispEdges">
<metadata>Made with Pixels to Svg https://codepen.io/shshaw/pen/XbxvNj</metadata>
<path stroke="#805030" d="M20 4h1M19 5h2M18 6h1M20 6h1M20 7h1M17 8h1M42 8h1M19 9h1M41 9h1M16 10h1M19 10h1M40 10h2M40 11h1M15 12h1M18 12h1M21 12h1M39 12h2M15 13h1M18 13h1M24 13h1M39 13h1M9 14h1M18 14h1M24 14h1M37 14h3M10 15h1M14 15h1M24 15h1M37 15h2M43 15h1M11 16h1M14 16h1M17 16h1M23 16h2M37 16h2M44 16h1M12 17h1M17 17h1M23 17h2M38 17h1M8 18h1M13 18h1M17 18h1M23 18h2M47 18h1M8 19h1M17 19h1M23 19h1M46 19h1M8 20h1M23 20h1M8 21h1M16 21h1M23 21h1M8 22h1M16 22h1M8 23h1M16 23h1M8 24h1M12 24h1M16 24h1M8 25h1M12 25h2M16 25h1M8 26h1M12 26h1M14 26h1M16 26h1M8 27h1M12 27h1M15 27h2M12 28h1M16 28h1M9 29h1M12 29h1M9 30h1M12 30h1M9 31h1M12 31h1M35 31h5M12 32h1M35 32h5M10 33h1M36 33h3M13 34h1M27 34h2M11 35h1M13 35h1M26 35h3M52 35h1M11 36h1M13 36h1M25 36h4M51 36h3M13 37h1M27 37h1M50 37h3M49 38h3M53 40h1M52 41h2M51 42h2M50 43h1M31 52h1M25 53h2M26 54h2M24 55h6M46 55h1M49 55h2M47 56h2M50 56h1M47 57h2" />
<path stroke="#704808" d="M44 4h2M43 5h1M42 6h1M24 7h1M41 7h1M43 7h1M23 8h1M40 8h1M43 8h1M23 9h1M39 9h1M42 9h1M44 9h1M22 10h1M38 10h1M42 10h1M44 10h1M22 11h1M38 11h1M41 11h1M44 11h1M37 12h1M41 12h1M43 12h1M21 13h1M37 13h1M40 13h1M43 13h1M21 14h1M40 14h1M43 14h1M21 15h1M39 15h1M21 16h1M32 16h4M39 16h1M45 16h2M21 17h1M29 17h2M39 17h1M47 17h1M21 18h1M27 18h1M40 18h1M21 19h1M44 22h1M46 24h1M46 25h1M32 29h1M35 29h5M29 30h4M34 30h1M30 32h2M52 32h1M26 33h3M25 34h1M29 34h1M24 35h1M40 35h1M54 35h1M24 36h1M55 38h1M54 44h1M27 45h1M27 46h1M53 46h1M29 51h1M52 51h1M28 52h1M30 52h1M46 52h1M36 53h1M46 53h1M45 55h1M44 56h1M44 57h1" />
<path stroke="#a87030" d="M44 5h1M43 6h1M42 7h1M41 8h1M40 9h1M23 10h1M39 10h1M23 11h1M39 11h1M22 12h2M38 12h1M22 13h2M38 13h1M22 14h2M22 15h2M22 16h1M22 17h1M22 18h1M22 19h1M46 26h1M47 27h1M48 28h1M49 29h1M35 30h5M50 30h1M40 31h1M51 31h1M40 32h1M39 33h1M26 34h1M39 34h1M25 35h1M26 37h1M27 53h1M28 54h1M46 54h1M50 54h1M30 55h1M47 55h2" />
<path stroke="#101010" d="M45 5h1M45 6h1M45 7h1M24 8h1M45 8h1M24 9h1M24 10h1M24 11h1M24 12h1M25 13h1M25 14h1M25 15h1M36 15h1M26 16h1M36 16h1M26 17h1M36 17h1M44 17h1M36 18h1M43 18h1M37 19h1M41 19h2M38 20h3M43 20h1M22 21h1M44 21h1M23 22h1M35 22h1M36 23h1M45 23h1M33 24h1M35 24h2M34 25h2M26 26h1M47 26h1M24 27h3M48 27h1M25 28h1M29 28h1M49 28h1M50 29h1M51 30h1M24 31h1M34 31h1M52 31h1M25 32h1M34 32h1M35 33h1M53 33h1M36 34h3M53 34h1M29 35h1M39 35h1M29 36h1M54 36h1M24 37h1M28 37h1M54 37h1M25 38h1M27 39h2M55 39h1M55 40h1M55 41h1M14 42h1M28 42h1M55 42h1M15 43h1M55 43h1M16 44h1M17 45h1M54 45h1M18 46h1M19 47h2M53 47h1M21 48h1M52 48h1M22 49h2M28 49h1M51 49h1M24 50h1M29 50h1M39 50h6M51 50h1M41 51h2M25 52h3M36 52h1M39 52h2M52 52h1M24 53h1M35 53h1M37 53h2M52 53h1M23 54h3M34 54h2M52 54h1M23 55h1M31 55h3M51 55h1M24 56h7M51 56h1M46 57h1M49 57h1M51 57h1M45 58h2M49 58h2M46 59h4" />
<path stroke="#d8d898" d="M19 6h1M19 7h1M18 8h1M18 9h1M17 10h2M17 11h1M16 12h2M16 13h1M16 14h1M15 15h2M10 16h1M15 16h1M10 17h2M15 17h1M9 18h4M15 18h1M9 19h5M9 20h2M9 21h2M9 22h1M9 23h1M9 24h1M9 25h1M39 25h2M9 26h1M39 26h2M9 27h1M24 29h1M24 30h1M41 45h1M41 46h1M39 47h4M35 48h8M36 49h5" />
<path stroke="#784020" d="M44 6h1M36 14h1M25 16h1M25 17h1M37 17h1M25 18h2M37 18h3M24 19h3M38 19h3M22 20h1M24 20h2M24 21h1M24 22h1M40 30h1M53 35h1M53 37h1M12 38h1M14 38h1M52 38h1M13 39h2M54 39h1M13 40h2M54 40h1M14 41h2M54 41h1M15 42h1M53 42h2M16 43h1M51 43h2M17 44h1M18 45h1M19 46h1M21 47h1M22 48h1M24 49h1M25 50h2M47 50h1M26 51h3M40 51h1M47 51h1M38 52h1M34 53h1M45 54h1M51 54h1M45 56h2M49 56h1M45 57h1M50 57h1M47 58h2" />
<path stroke="#a08848" d="M18 7h1M44 7h1M19 8h1M44 8h1M17 9h1M43 9h1M43 10h1M16 11h1M18 11h1M42 11h2M41 13h1M15 14h1M41 14h1M9 15h1M17 15h1M40 15h1M9 16h1M40 16h1M43 16h1M9 17h1M14 17h1M40 17h1M41 18h1M16 20h1M9 28h1M10 32h1M12 33h1M11 34h1M12 37h1M13 38h1M43 48h1M41 49h5" />
<path stroke="#c8b070" d="M42 12h1M17 13h1M42 13h1M17 14h1M42 14h1M41 15h2M16 16h1M41 16h2M16 17h1M41 17h3M14 18h1M16 18h1M42 18h1M14 19h3M11 20h5M11 21h5M10 22h6M10 23h6M10 24h2M13 24h3M39 24h3M10 25h2M14 25h2M38 25h1M41 25h2M10 26h2M15 26h1M38 26h1M41 26h2M10 27h2M38 27h5M10 28h2M39 28h3M10 29h2M10 30h2M10 31h2M11 32h1M11 33h1M12 34h1M12 35h1M32 35h5M12 36h1M31 36h1M37 36h2M30 37h1M39 37h1M40 38h1M41 39h1M41 40h1" />
<path stroke="#801800" d="M31 17h1M24 23h1M24 24h1M24 25h1M23 28h1M23 29h1M23 30h1M27 30h1M41 30h2M28 31h2M32 31h1M43 31h2M29 38h1M26 39h1M29 39h1M29 40h1M29 41h1M41 42h1M28 43h1M41 43h1M27 44h1M41 44h1M42 45h1M42 46h1M27 47h1M43 47h1M28 48h1M44 48h2M46 49h1M38 50h1M30 51h1M37 51h1" />
<path stroke="#f8a050" d="M32 17h3M29 18h4M28 19h4M27 20h3M26 21h3M26 22h2M25 23h2M25 24h2M24 28h1M28 28h1M29 29h1M28 30h1M41 31h2M41 32h3M25 37h1M44 41h2M43 42h4M43 43h3M47 43h1M44 44h1M46 44h1M45 45h1M28 46h1M28 47h1M29 48h1M34 48h1M29 49h2M30 50h1" />
<path stroke="#f87828" d="M35 17h1M33 18h3M32 19h4M30 20h7M29 21h9M28 22h6M36 22h3M27 23h6M37 23h2M27 24h6M37 24h1M26 25h8M36 25h1M27 26h10M27 27h10M26 28h2M30 28h8M25 29h4M30 29h2M33 29h2M26 30h1M33 30h1M26 31h2M33 31h1M26 32h4M32 32h2M29 33h5M40 33h4M30 34h5M41 34h3M30 35h2M37 35h2M30 36h1M39 36h1M29 37h1M40 37h2M26 38h1M41 38h4M43 39h6M43 40h7M42 41h2M46 41h5M42 42h1M47 42h4M29 43h1M42 43h1M46 43h1M48 43h2M28 44h2M42 44h2M45 44h1M47 44h5M28 45h2M43 45h2M46 45h6M29 46h2M43 46h8M29 47h3M44 47h6M30 48h3M46 48h4M31 49h3M47 49h3M31 50h5M48 50h2M31 51h5M48 51h2M29 52h1M47 52h2M28 53h4M47 53h2M29 54h2M47 54h2" />
<path stroke="#e85000" d="M28 18h1M27 19h1M36 19h1M26 20h1M37 20h1M41 20h2M25 21h1M38 21h6M25 22h1M39 22h5M39 23h6M38 24h1M42 24h4M37 25h1M43 25h3M37 26h1M43 26h3M37 27h1M43 27h4M38 28h1M42 28h6M40 29h9M25 30h1M43 30h7M25 31h1M45 31h6M44 32h8M34 33h1M44 33h9M35 34h1M40 34h1M44 34h9M41 35h11M40 36h11M42 37h8M27 38h2M45 38h4M53 38h2M42 39h1M49 39h5M42 40h1M50 40h3M41 41h1M51 41h1M29 42h1M53 43h2M30 44h1M52 44h2M30 45h1M52 45h2M31 46h1M51 46h2M32 47h1M50 47h3M33 48h1M50 48h2M34 49h2M50 49h1M36 50h2M50 50h1M36 51h1M50 51h2M32 52h4M49 52h3M32 53h2M49 53h3M31 54h3M49 54h1" />
<path stroke="#686868" d="M34 22h1M33 23h1M35 23h1M34 24h1M25 25h1M24 26h1" />
<path stroke="#f8f8f8" d="M34 23h1M25 26h1M32 36h5M31 37h8M30 38h10M30 39h11M30 40h11M30 41h11M30 42h11M30 43h11M31 44h10M31 45h10M32 46h9M33 47h6" />
<path stroke="#e00000" d="M30 31h2" />
</svg>