<svg xmlns="http://www.w3.org/2000/svg" viewBox="0 -0.5 64 64" shape-rendering="crispEdges">
<metadata>Made with Pixels to Svg https://codepen.io/shshaw/pen/XbxvNj</metadata>
<path stroke="#603828" d="M45 13h1M44 14h1M46 14h1M52 14h1M54 14h1M43 15h1M46 15h2M51 15h1M28 16h1M48 16h1M23 17h1M29 17h1M42 17h1M16 18h1M30 18h1M36 18h1M52 18h1M15 19h1M17 19h1M25 19h1M28 19h1M31 19h1M34 19h1M41 19h1M55 19h3M21 20h2M27 20h1M31 20h2M37 20h1M46 20h1M53 20h1M58 20h1M14 21h1M31 21h1M37 21h1M39 21h1M41 21h1M44 21h1M13 22h2M32 22h4M41 22h1M43 22h1M47 22h1M57 22h1M27 23h1M30 23h2M36 23h1M42 23h1M11 24h1M27 24h2M31 24h1M35 24h1M46 24h1M19 25h1M31 25h1M34 25h1M46 25h2M49 25h2M25 26h1M30 26h1M33 26h1M40 26h1M51 26h1M18 27h1M30 27h1M34 27h2M41 27h1M50 27h1M6 28h1M29 28h1M36 28h2M42 28h1M8 29h5M29 29h2M38 29h1M49 29h1M15 30h2M23 30h1M32 30h2M37 30h1M48 30h4M7 31h1M17 31h1M21 31h2M34 31h1M36 31h1M52 31h1M14 32h1M18 32h1M33 32h1M51 32h1M6 33h3M18 33h1M32 33h1M35 33h2M50 33h1M11 34h1M18 34h1M37 34h2M47 34h2M13 35h1M17 35h1M39 35h1M43 35h1M6 36h1M14 36h3M30 36h1M37 36h2M31 37h1M35 37h2M40 37h1M30 38h1M33 38h2M41 38h2M28 39h2M43 39h1M29 40h1M40 40h3M22 41h1M10 42h1M21 42h1M10 43h1M21 43h1M10 44h1M20 44h1M10 45h1M18 45h1M9 46h1M11 46h1M16 46h1M27 46h1M13 47h1M22 47h1M24 47h1" />
<path stroke="#e0d0a8" d="M45 14h1M44 15h2M44 16h2M47 16h1M43 17h3M47 17h1M50 17h3M43 18h9M42 19h10M42 20h3M47 20h5M55 20h3M32 21h4M43 21h1M48 21h9M48 22h8M38 23h1M48 23h7M29 24h2M37 24h2M48 24h5M27 25h4M35 25h3M27 26h3M34 26h4M27 27h3M37 27h1M53 27h5M28 28h1M51 28h2M54 28h3M27 29h1M39 29h1M42 29h2M50 29h1M53 29h1M27 30h4M39 30h3M26 31h8M37 31h5M26 32h1M28 32h1M30 32h1M37 32h4M27 33h1M29 33h1M38 33h1M40 33h1M28 34h1M25 44h2M11 45h2M26 45h2M13 46h1M26 46h1" />
<path stroke="#a09078" d="M53 14h1M43 16h1M46 16h1M50 16h1M48 17h2M42 18h1M54 20h1M57 21h1M48 25h1M53 26h1M22 42h2M12 43h3M22 43h1" />
<path stroke="#c0a888" d="M52 15h2M51 16h2M27 17h1M46 17h1M26 18h1M29 18h1M37 18h1M35 19h1M15 20h1M17 20h1M19 20h1M33 20h1M45 20h1M18 21h1M25 21h1M36 21h1M42 21h1M47 21h1M24 22h1M42 22h1M56 22h1M19 23h1M47 23h1M55 23h1M47 24h1M53 24h2M51 25h3M26 26h1M38 26h1M52 26h1M40 27h1M51 27h2M41 28h1M50 28h1M53 28h1M28 29h1M51 29h2M54 29h2M26 30h1M31 30h1M38 30h1M42 30h1M52 30h3M25 31h1M53 31h3M27 32h1M29 32h1M31 32h2M36 32h1M52 32h5M28 33h1M30 33h2M37 33h1M39 33h1M41 33h1M51 33h3M26 34h2M29 34h4M39 34h5M26 35h5M40 35h3M27 36h2M39 36h3M26 37h5M37 37h3M24 38h6M35 38h6M25 39h3M36 39h7M24 40h5M37 40h3M24 41h6M38 41h1M25 42h1M28 42h2M11 43h1M15 43h2M24 43h1M26 43h1M11 44h7M21 44h1M27 44h3M13 45h4M21 45h1M28 45h1M33 45h1M35 45h1M12 46h1M14 46h2M22 46h2M36 46h1" />
<path stroke="#484028" d="M54 15h1M53 16h1M24 17h1M53 17h1M7 18h1M10 18h1M22 18h1M24 18h1M31 18h1M8 19h2M11 19h1M20 19h2M52 19h1M5 20h1M11 20h1M52 20h1M4 21h1M11 21h1M22 21h2M38 21h1M4 22h1M11 22h1M21 22h1M23 22h1M40 22h1M12 23h1M18 23h1M20 23h1M24 23h1M39 23h1M5 24h1M14 24h1M18 24h2M39 24h1M6 25h1M26 25h1M38 25h1M6 26h1M39 26h1M54 26h4M25 27h2M42 27h1M58 27h1M27 28h1M43 28h1M25 29h2M44 29h1M24 30h2M43 30h1M55 30h1M24 31h1M56 31h1M25 32h1M41 32h2M57 32h1M5 33h1M26 33h1M42 33h2M24 34h2M44 34h1M3 35h1M25 35h1M3 36h1M26 36h1M24 37h2M23 38h1M24 39h1M35 39h1M22 40h2M36 40h1M19 41h1M21 41h1M23 41h1M37 41h1M15 42h2M24 42h1M26 42h2M30 42h1M18 43h1M25 43h1M30 43h3M34 45h1M36 45h2M33 46h1M11 47h1" />
<path stroke="#f8e8c0" d="M28 17h1M27 18h2M16 19h1M26 19h2M36 19h2M16 20h1M20 20h1M26 20h1M34 20h3M15 21h3M19 21h3M15 22h6M36 22h4M15 23h1M37 23h1M36 24h1M36 27h1M38 27h2M38 28h3M40 29h2M6 30h1M14 31h1M23 43h1M22 44h3M20 45h1M22 45h4M10 46h1M21 46h1M24 46h2M12 47h1M14 47h1M23 47h1" />
<path stroke="#d88048" d="M23 18h1M22 19h3M30 19h1M10 20h1M23 20h2M28 20h3M7 21h2M27 21h4M6 22h3M28 22h4M7 23h1M13 23h1M17 23h1M28 23h2M32 23h4M12 24h2M16 24h2M32 24h3M13 25h1M15 25h3M32 25h2M8 26h1M14 26h4M31 26h2M8 27h2M13 27h4M32 27h2M7 28h12M24 28h3M7 29h1M13 29h7M22 29h2M18 30h4M19 31h1M20 32h1M19 33h1M21 33h1M4 34h1M7 34h3M14 34h1M20 34h1M4 35h1M8 35h5M4 36h1M9 36h4M9 37h3" />
<path stroke="#805038" d="M6 19h1M6 20h1M9 20h1M25 20h1M6 21h1M24 21h1M26 21h1M25 22h3M5 23h1M11 23h1M14 23h1M16 23h1M23 23h1M10 24h1M15 24h1M20 24h1M26 24h1M9 25h1M18 25h1M7 26h1M24 27h1M4 33h1M3 34h1M33 34h1M31 35h2M29 36h1M4 37h1M8 37h1M18 37h1M5 38h1M8 39h1M12 39h1M17 39h1M34 39h1M8 40h1M12 40h2M15 40h2M31 40h1M33 40h1M35 40h1M11 41h5M32 41h1M34 41h1M36 41h1M13 42h2M33 42h2M37 42h1M39 42h2M35 43h6M33 44h7M38 45h1" />
<path stroke="#e8a048" d="M7 19h1M10 19h1M7 20h1M5 21h1M5 22h1M22 22h1M21 23h2M25 23h2M21 24h5M10 25h3M20 25h6M9 26h5M19 26h6M10 27h3M19 27h5M19 28h5M20 29h2M5 34h2" />
<path stroke="#c06040" d="M29 19h1M8 20h1M9 21h2M45 21h2M9 22h2M44 22h3M6 23h1M8 23h3M41 23h1M43 23h4M6 24h4M40 24h6M7 25h2M14 25h1M40 25h6M18 26h1M41 26h10M7 27h1M17 27h1M31 27h1M43 27h7M30 28h6M44 28h6M24 29h1M31 29h7M45 29h4M17 30h1M22 30h1M34 30h3M44 30h4M15 31h1M18 31h1M20 31h1M23 31h1M35 31h1M43 31h9M13 32h1M16 32h1M19 32h1M21 32h4M34 32h2M43 32h8M13 33h1M16 33h1M20 33h1M22 33h4M33 33h2M44 33h6M10 34h1M15 34h1M19 34h1M21 34h3M34 34h3M45 34h2M18 35h7M33 35h6M13 36h1M17 36h9M31 36h6M5 37h1M12 37h6M19 37h5M32 37h3M6 38h6M13 38h4M18 38h5M31 38h2M7 39h1M9 39h2M14 39h2M18 39h6M30 39h4M10 40h1M17 40h5M30 40h1M32 40h1M34 40h1M16 41h3M20 41h1M31 41h1M33 41h1M35 41h1M18 42h1" />
<path stroke="#100000" d="M41 20h1M40 23h1M56 23h1M55 24h1M39 25h1M54 25h1M57 28h1M56 29h1M6 31h1M42 31h1M6 32h1M15 32h1M14 33h2M54 33h4M49 34h5M44 35h5M7 36h2M42 36h1M6 37h2M41 37h1M8 41h2M30 41h1M39 41h2M11 42h2M17 42h1M19 42h2M31 42h2M35 42h2M38 42h1M41 42h1M17 43h1M19 43h1M27 43h3M33 43h2M41 43h1M18 44h1M30 44h3M40 44h1M17 45h1M19 45h1M29 45h1M32 45h1M39 45h1M17 46h1M20 46h1M28 46h1M34 46h2M37 46h2M9 47h2M15 47h2M21 47h1M25 47h2M36 47h1M12 48h3M23 48h1" />
<path stroke="#303028" d="M6 29h1M5 30h1M7 30h8M5 31h1M8 31h6M16 31h1M5 32h1M7 32h6M17 32h1M9 33h4M17 33h1M12 34h2M16 34h2M5 35h3M14 35h3M5 36h1M4 38h1M12 38h1M17 38h1M5 39h2M11 39h1M13 39h1M16 39h1M7 40h1M9 40h1M11 40h1M14 40h1M10 41h1" />
</svg>