<svg xmlns="http://www.w3.org/2000/svg" viewBox="0 -0.5 64 64" shape-rendering="crispEdges">
<metadata>Made with Pixels to Svg https://codepen.io/shshaw/pen/XbxvNj</metadata>
<path stroke="#807058" d="M40 1h1M37 2h1M35 3h1M42 3h1M40 5h1M39 7h1M38 9h1M37 13h1M17 33h1M15 34h1M18 34h1M18 35h1M24 36h1M55 36h1M25 37h1M55 37h1M53 38h3M54 39h2M52 40h4M53 41h1M55 41h1M53 42h1M51 43h1M52 44h1M47 45h1M30 46h3M44 46h1M33 47h1M41 47h1M31 48h2M37 48h1M13 50h1M22 50h1M24 50h8M34 50h1M12 51h1M18 51h1M26 51h2M12 52h1M24 52h2M11 53h6M22 53h1M32 53h1M10 54h5M20 54h1M30 54h1M9 55h1M12 55h1M19 55h1M27 55h1M8 56h1M21 56h2M8 57h1M19 57h2M18 58h1M16 59h2M19 59h1M17 60h1" />
<path stroke="#000000" d="M41 1h2M38 2h2M43 2h1M36 3h1M41 3h1M34 4h1M40 4h1M30 5h1M33 5h1M29 6h1M31 6h2M39 6h1M29 7h1M38 8h1M28 9h1M28 10h1M37 10h1M28 11h1M37 11h1M37 12h1M27 13h1M27 14h1M38 14h1M27 15h1M38 15h1M39 16h1M28 17h1M40 17h2M42 18h2M29 19h1M44 19h2M46 20h2M48 21h1M32 22h1M49 22h1M32 23h1M50 23h1M33 24h1M33 25h1M51 25h1M32 26h1M52 26h1M32 27h1M52 27h1M32 28h1M53 28h1M53 29h1M54 30h1M54 31h1M54 32h1M54 33h1M54 34h1M54 35h2M54 36h1M54 37h1M56 37h1M56 38h1M53 39h1M56 39h1M56 40h1M52 41h1M56 41h1M51 42h1M55 42h1M50 43h1M53 43h1M55 43h1M49 44h1M54 44h1M7 45h1M48 45h1M7 46h1M14 46h1M45 46h2M6 47h1M13 47h1M15 47h1M17 47h1M42 47h2M6 48h1M14 48h3M38 48h3M6 49h1M35 49h2M7 50h1M10 51h1M19 51h3M34 51h1M11 52h1M13 52h5M33 52h1M10 53h1M9 54h1M31 54h1M28 55h2M25 56h2M10 57h2M23 57h2M9 58h1M21 58h2M20 59h1M18 60h1" />
<path stroke="#f8f0f0" d="M40 2h1M37 3h2M36 4h2M35 5h2M34 6h2M37 6h1M33 7h2M36 7h1M33 8h2M32 9h2M32 10h2M32 11h2M31 12h3M31 13h4M31 14h4M31 15h5M32 16h5M32 17h3M36 17h3M33 18h3M38 18h4M33 19h4M39 19h4M34 20h2M41 20h3M34 21h3M42 21h3M35 22h2M43 22h3M35 23h3M44 23h3M35 24h3M44 24h3M35 25h3M45 25h3M34 26h3M45 26h3M34 27h3M45 27h3M33 28h3M45 28h3M32 29h3M44 29h3M48 29h1M31 30h3M43 30h5M30 31h2M42 31h5M48 31h1M28 32h2M40 32h6M47 32h1M26 33h2M37 33h8M46 33h1M48 33h1M14 34h1M16 34h2M23 34h2M34 34h10M45 34h1M47 34h1M14 35h4M31 35h11M13 36h3M18 36h1M22 36h1M26 36h14M13 37h1M16 37h1M20 37h1M22 37h1M24 37h1M26 37h10M14 38h1M20 38h3M30 38h3M13 39h1M20 39h3M12 40h1M19 40h3M18 41h4M54 42h1M9 43h1M15 43h3M52 43h1M54 43h1M9 44h1M13 44h3M8 45h1M11 45h3M8 46h1M10 46h2M15 46h1M7 47h4M31 47h2M29 48h1M25 49h8M11 55h1M10 56h2M19 56h2M9 57h1M18 57h1M21 57h2M17 58h1M19 58h2M18 59h1" />
<path stroke="#d8d0b0" d="M41 2h1M39 3h1M35 4h1M38 4h2M37 5h3M36 6h1M38 6h1M35 7h1M37 7h2M35 8h3M34 9h4M34 10h3M34 11h3M34 12h3M35 13h2M35 14h3M36 15h2M37 16h2M39 17h1M43 19h1M44 20h1M45 21h1M46 22h1M47 23h1M47 24h2M48 25h1M48 26h2M48 27h2M48 28h3M47 29h1M49 29h2M48 30h3M47 31h1M49 31h2M46 32h1M48 32h2M45 33h1M47 33h1M49 33h1M44 34h1M46 34h1M48 34h1M20 35h1M42 35h6M40 36h6M53 36h1M39 37h5M52 37h2M23 38h2M26 38h4M37 38h5M50 38h3M23 39h7M36 39h4M47 39h6M22 40h5M34 40h18M16 41h2M22 41h2M38 41h14M54 41h1M18 42h3M36 42h15M52 42h1M14 43h1M34 43h15M12 44h1M35 44h12M37 45h8M25 46h4M33 46h9M19 47h12M34 47h5M9 48h5M17 48h12M33 48h2M11 49h14M10 50h3M24 53h3M22 54h5M21 55h4M23 56h1" />
<path stroke="#c06040" d="M42 2h1M40 3h1M28 13h1M28 14h1M28 15h2M31 17h1M31 18h1M31 19h2M31 20h2M45 20h1M32 21h2M46 21h2M33 22h2M47 22h2M33 23h2M48 23h2M34 24h1M49 24h2M34 25h1M49 25h2M33 26h1M44 26h1M50 26h1M33 27h1M44 27h1M51 27h1M43 28h1M52 28h1M42 29h2M51 29h1M40 30h3M52 30h1M37 31h4M51 31h1M53 31h1M31 32h8M50 32h3M29 33h7M50 33h2M53 33h1M27 34h6M49 34h5M24 35h6M48 35h5M20 36h2M23 36h1M47 36h5M18 37h2M37 37h1M45 37h6M16 38h3M34 38h3M43 38h6M15 39h4M31 39h4M41 39h5M16 40h1M28 40h5M11 41h1M25 41h12M10 42h1M15 42h2M22 42h13M10 43h1M13 43h1M19 43h14M10 44h2M17 44h17M10 45h1M15 45h1M19 45h17M13 46h1M19 46h4M12 47h1" />
<path stroke="#d88048" d="M34 5h1M30 6h1M33 6h1M30 7h1M32 7h1M30 8h2M29 9h3M29 10h2M29 11h2M29 12h2M30 13h1M30 14h1M30 15h1M29 16h3M29 17h2M30 18h1M32 18h1M30 19h1M37 19h2M33 20h1M37 20h3M37 21h5M38 22h5M38 23h2M41 23h2M38 24h1M40 24h1M42 24h2M39 25h1M41 25h4M38 26h1M40 26h1M42 26h2M51 26h1M37 27h1M39 27h5M50 27h1M36 28h7M44 28h1M51 28h1M31 29h1M35 29h7M52 29h1M30 30h1M34 30h6M51 30h1M53 30h1M28 31h2M32 31h5M41 31h1M52 31h1M30 32h1M39 32h1M53 32h1M15 33h1M28 33h1M36 33h1M52 33h1M25 34h2M33 34h1M19 35h1M21 35h3M30 35h1M53 35h1M25 36h1M46 36h1M52 36h1M36 37h1M38 37h1M44 37h1M51 37h1M33 38h1M42 38h1M49 38h1M12 39h1M30 39h1M35 39h1M40 39h1M46 39h1M11 40h1M14 40h2M17 40h1M27 40h1M33 40h1M10 41h1M12 41h3M24 41h1M37 41h1M9 42h1M11 42h4M21 42h1M35 42h1M8 43h1M11 43h2M18 43h1M33 43h1M8 44h1M16 44h1M34 44h1M9 45h1M14 45h1M36 45h1M9 46h1M12 46h1M23 46h2M11 47h1M18 47h1M8 48h1M10 49h1" />
<path stroke="#403820" d="M31 7h1M29 8h1M28 12h1M29 13h1M29 14h1M28 16h1M29 18h1M30 20h1M31 21h1M16 45h3M18 46h1M7 48h1M7 49h3M8 50h2M14 50h2M23 50h1M11 51h1M18 52h2M17 53h1M15 54h1M13 55h2M12 56h1" />
<path stroke="#e8a048" d="M32 8h1M31 10h1M31 11h1M35 17h1M36 18h2M36 20h1M40 20h1M37 22h1M40 23h1M43 23h1M39 24h1M41 24h1M38 25h1M40 25h1M37 26h1M39 26h1M41 26h1M38 27h1M19 36h1M17 37h1M15 38h1M14 39h1M13 40h1M15 41h1M17 42h1" />
<path stroke="#c0b090" d="M26 32h2M14 33h1M23 33h3M13 34h1M21 34h2M13 35h1M12 36h1M16 36h2M12 37h1M14 37h2M21 37h1M23 37h1M12 38h2M19 38h1M25 38h1M19 39h1M18 40h1M49 43h1M47 44h2M45 45h2M29 46h1M42 46h2M39 47h2M30 48h1M35 48h2M33 49h2M16 50h6M32 50h2M13 51h5M28 51h6M26 52h7M23 53h1M27 53h5M21 54h1M27 54h3M10 55h1M20 55h1M25 55h2M9 56h1M18 56h1M24 56h1M17 57h1M16 58h1" />
<path stroke="#b88830" d="M16 46h1M14 47h1M16 47h1" />
<path stroke="#f8c868" d="M17 46h1" />
</svg>