<svg xmlns="http://www.w3.org/2000/svg" viewBox="0 -0.5 64 64" shape-rendering="crispEdges">
<metadata>Made with Pixels to Svg https://codepen.io/shshaw/pen/XbxvNj</metadata>
<path stroke="#803850" d="M47 7h2M46 8h1M45 9h1M47 9h1M13 10h3M44 10h1M10 11h1M46 11h1M61 11h2M43 12h1M60 12h1M59 13h1M42 14h1M58 14h1M8 15h1M41 15h1M44 15h1M57 15h1M9 16h1M11 16h1M41 16h1M56 16h1M12 17h2M43 17h1M55 17h1M13 18h1M54 18h1M57 18h1M11 19h2M42 19h1M53 19h1M9 20h2M17 20h1M52 20h1M51 21h1M50 22h1M49 23h1M13 24h1M11 26h1M7 27h1M10 27h1M16 27h1M7 36h1M8 38h1M20 46h1M27 46h4M21 47h2M29 47h2M21 48h1M23 48h1M29 48h1M19 49h2M29 49h1M15 50h4M28 50h1M17 51h1M25 52h1M28 52h2M31 52h1M24 53h1M27 53h1M29 54h1" />
<path stroke="#f8c070" d="M47 8h1M46 9h1M45 10h1M11 11h2M45 11h1M9 12h3M44 12h1M61 12h1M9 13h2M60 13h1M43 14h1M59 14h1M58 15h1M57 16h1M56 17h1M16 30h1M15 31h1M14 32h1M13 33h1M12 35h1M11 38h1M10 40h1M15 51h1M18 51h2M17 52h1M26 52h1M25 53h1M28 53h1M27 54h1M30 54h1" />
<path stroke="#000000" d="M48 8h1M47 10h1M46 12h1M62 12h1M45 13h1M62 13h1M45 14h1M61 14h1M60 15h1M13 16h1M44 16h1M59 16h1M58 17h1M29 18h2M43 18h1M3 19h3M57 19h1M6 20h3M33 20h1M42 20h1M56 20h1M9 21h1M22 21h1M31 21h2M55 21h1M9 22h1M22 22h1M27 22h3M41 22h1M54 22h1M23 23h3M53 23h1M23 24h1M40 24h1M52 24h1M24 25h1M51 25h1M26 26h2M39 26h1M50 26h1M28 27h3M38 27h1M31 28h2M38 28h1M49 28h1M33 29h2M37 29h1M48 29h1M35 30h3M47 30h1M37 31h1M46 31h1M38 32h1M45 32h1M39 33h1M44 33h1M40 34h1M44 34h1M41 35h1M43 35h1M43 36h1M42 37h1M43 38h1M43 39h1M44 40h1M45 41h1M45 42h1M45 43h1M27 45h4M21 46h6M31 46h5M55 46h1M23 47h1M27 47h2M31 47h1M37 47h18M24 48h1M32 48h1M23 49h1M32 49h1M22 50h3M31 50h1M25 51h3M31 51h4M23 52h2M35 52h1M14 53h1M17 53h2M21 53h2M33 53h2M13 54h2M16 54h1M18 54h1M20 54h1M23 54h1M25 54h1M32 54h1M15 55h1M19 55h1M23 55h1M25 55h2M28 55h2M31 55h1M24 56h1M26 56h1M28 56h2M31 56h1M27 57h1M30 57h1" />
<path stroke="#105038" d="M11 10h2M16 10h1M9 11h1M18 11h2M8 12h1M20 12h1M21 13h1M7 14h1M11 14h1M14 14h3M22 14h1M7 15h1M13 15h1M23 15h2M26 16h2M23 17h1M29 17h3M40 17h1M25 18h1M28 18h1M26 19h7M39 19h1M22 20h1M38 20h1M24 21h2M30 21h1M41 21h1M26 22h1M37 22h1M53 22h1M8 23h1M36 23h1M52 23h1M8 24h1M48 24h1M50 24h1M7 25h1M35 25h1M39 25h1M47 25h1M7 26h1M23 26h3M34 26h5M46 26h1M21 27h2M34 27h4M45 27h1M49 27h1M20 28h1M33 28h5M44 28h1M47 28h2M4 29h1M19 29h1M35 29h2M43 29h5M6 30h1M19 30h1M42 30h5M3 31h1M6 31h1M18 31h1M41 31h5M3 32h1M18 32h1M40 32h5M3 33h1M18 33h1M40 33h4M3 34h1M18 34h1M36 34h2M41 34h3M3 35h1M6 35h1M18 35h1M38 35h2M42 35h1M4 36h1M6 36h1M19 36h1M32 36h3M40 36h3M4 37h1M19 37h1M35 37h3M41 37h1M5 38h1M20 38h1M38 38h2M42 38h1M6 39h1M20 39h1M40 39h1M7 40h1M21 40h1M42 40h1M8 41h1M22 41h1M29 41h5M44 41h1M23 42h2M34 42h5M44 42h1M25 43h2M39 43h4M27 44h3M44 44h6M31 45h3M51 45h3M36 46h1M14 51h1M14 52h3M19 52h2M12 53h2M16 53h1M20 53h1M15 54h1M19 54h1M24 55h1M27 56h1M30 56h1" />
<path stroke="#f0b038" d="M46 10h1M45 12h1M11 13h1M44 13h1M61 13h1M8 14h3M60 14h1M9 15h2M42 15h2M59 15h1M42 16h1M58 16h1M42 17h1M57 17h1M55 18h2M41 19h1M54 19h2M40 20h1M53 20h2M40 21h1M52 21h2M51 22h1M10 23h1M50 23h1M9 24h3M49 24h1M9 25h3M10 26h1M15 27h1M13 28h3M7 29h1M11 29h6M7 30h1M10 30h6M7 31h2M10 31h5M7 32h7M7 33h6M8 34h5M10 35h2M19 50h2M29 50h1M16 51h1M20 51h1M29 51h1M18 52h1M27 52h1M30 52h1M26 53h1M29 53h3M28 54h1" />
<path stroke="#d07810" d="M13 11h2M44 11h1M12 12h1M43 13h1M44 14h1M10 16h1M43 16h1M11 17h1M14 17h3M41 17h1M14 18h4M41 18h2M13 19h5M56 19h1M11 20h6M41 20h1M55 20h1M10 21h7M54 21h1M10 22h6M40 22h1M52 22h1M9 23h1M11 23h4M40 23h1M51 23h1M12 24h1M48 25h1M15 26h1M14 27h1M7 28h1M12 28h1M16 28h1M8 30h1M9 31h1M6 32h1M6 33h1M6 34h2M7 35h3M8 36h4M8 37h4M9 38h2M9 39h2M22 48h1M30 48h2M21 49h2M30 49h2M21 50h1M30 50h1M21 51h4M28 51h1M30 51h1M21 52h2M32 52h2M32 53h1M31 54h1" />
<path stroke="#90d0c8" d="M15 11h2M13 13h2M12 14h2M8 25h1M8 26h2M8 27h2M6 28h1M8 28h2M5 29h2M8 29h2M5 30h1M4 31h2M4 32h1M42 44h2M45 45h5M48 46h6" />
<path stroke="#309060" d="M17 11h1M13 12h1M7 13h1M12 13h1M17 14h1M11 15h2M16 15h1M15 16h1M25 16h1M24 18h1M26 18h2M39 18h1M18 19h1M18 20h2M21 20h1M17 21h5M23 21h1M26 21h4M37 21h1M16 22h6M23 22h3M39 22h1M15 23h8M39 23h1M14 24h9M35 24h1M38 24h2M12 25h12M36 25h3M12 26h3M16 26h7M6 27h1M11 27h3M17 27h4M48 27h1M5 28h1M17 28h3M26 28h5M45 28h2M17 29h2M24 29h9M4 30h1M18 30h1M23 30h12M22 31h15M19 32h1M22 32h16M4 33h2M20 33h1M22 33h17M4 34h2M19 34h1M21 34h15M38 34h2M4 35h2M20 35h1M22 35h16M40 35h1M5 36h1M20 36h12M35 36h5M5 37h2M20 37h15M38 37h3M6 38h2M21 38h17M7 39h1M21 39h19M41 39h1M22 40h18M23 41h6M34 41h6M43 41h1M25 42h9M39 42h2M27 43h12M43 43h1M30 44h9M34 45h9M50 45h1M37 46h10M54 46h1M13 51h1M12 52h1" />
<path stroke="#58a890" d="M14 12h6M8 13h1M15 13h6M18 14h4M17 15h6M16 16h9M17 17h6M24 17h5M18 18h6M40 18h1M19 19h7M40 19h1M20 20h1M23 20h10M39 20h1M38 21h2M38 22h1M37 23h2M36 24h2M51 24h1M49 25h2M47 26h3M23 27h5M46 27h2M10 28h2M21 28h5M10 29h1M20 29h4M9 30h1M20 30h3M19 31h3M5 32h1M20 32h2M19 33h1M21 33h1M20 34h1M19 35h1M21 35h1M40 38h2M42 39h1M40 40h2M43 40h1M40 41h3M41 42h3M44 43h1M39 44h3M43 45h2M47 46h1" />
<path stroke="#f8f8f8" d="M14 15h2M7 16h1M12 16h1M14 16h1M16 31h1M15 32h3M14 33h2M16 34h1M13 35h1M15 35h1M17 35h1M14 36h1M16 36h1" />
<path stroke="#785858" d="M5 16h2M3 17h2M2 18h1M6 18h5M26 54h1" />
<path stroke="#f8e850" d="M8 16h1M5 17h6M5 18h1" />
<path stroke="#e0b848" d="M3 18h2M11 18h2M6 19h5" />
<path stroke="#c8d0d0" d="M17 30h1M17 31h1M16 33h2M13 34h3M17 34h1M14 35h1M16 35h1M12 36h2M15 36h1M17 36h2M7 37h1M12 37h7M12 38h8M8 39h1M11 39h9M9 40h1M11 40h10M10 41h12M12 42h11M14 43h11M17 44h7" />
<path stroke="#909090" d="M8 40h1M9 41h1M10 42h2M12 43h2M14 44h3M24 44h3M17 45h10M13 52h1M34 52h1M15 53h1M19 53h1M24 54h1M27 55h1M30 55h1" />
</svg>