<svg xmlns="http://www.w3.org/2000/svg" viewBox="0 -0.5 64 64" shape-rendering="crispEdges">
<metadata>Made with Pixels to Svg https://codepen.io/shshaw/pen/XbxvNj</metadata>
<path stroke="#985040" d="M18 12h3M17 13h1M21 13h1M23 15h1M14 17h1M23 17h1M16 18h1M22 18h2M17 19h6M19 20h3M14 21h1M17 21h2M15 22h6M17 23h3M42 34h1M23 35h3M41 35h1M24 36h8M46 36h4M25 37h8M45 37h1M50 37h1M25 38h8M25 39h7M50 39h2M26 40h6M50 40h2M51 41h1M43 42h1M50 42h2M43 43h2M49 43h3M43 44h8M44 45h7M45 46h4" />
<path stroke="#785838" d="M27 12h1M27 13h1M27 14h1M33 15h3M28 16h1M36 16h1M29 17h1M31 17h1M29 18h3M35 18h1M32 19h1M36 19h1M33 20h3M13 21h1M22 21h1M13 22h1M21 22h1M13 23h1M20 23h1M25 23h1M13 24h1M26 24h1M13 25h1M19 25h1M26 25h1M36 25h2M42 25h1M19 26h1M27 26h1M34 26h2M14 27h1M19 27h1M27 27h1M33 27h1M43 27h1M14 28h1M19 28h1M24 28h1M27 28h1M32 28h1M19 29h1M24 29h1M31 29h1M15 30h1M20 30h1M25 30h1M35 30h1M16 31h1M26 31h1M34 31h1M16 32h1M29 32h3M47 32h1M16 33h1M23 33h1M48 33h1M16 34h1M24 34h2M49 34h1M15 35h1M27 35h2M35 35h1M15 36h1M43 37h1M44 38h1M15 42h1M19 46h1M21 47h1M28 47h1M32 47h1M40 47h2M23 48h5M36 48h4M38 49h1M21 50h1M23 50h1" />
<path stroke="#e0a050" d="M28 12h3M31 13h2M33 14h1M38 14h4M28 15h1M36 15h2M42 15h1M32 16h1M35 17h1M41 17h1M40 18h1M26 19h2M31 19h1M37 19h2M24 20h1M23 21h1M20 24h1M14 26h1M21 27h1M15 29h1M18 29h1M20 29h1M38 29h1M41 29h1M16 30h4M21 30h1M37 30h1M42 30h1M17 31h3M27 31h1M33 31h1M17 32h3M22 32h1M28 32h1M32 32h1M18 33h3M24 33h1M38 33h1M26 34h1M21 35h1M29 35h1M34 35h1M42 35h1M23 36h1M44 37h1M33 38h1M43 38h1M32 39h1M43 39h1M15 40h1M24 40h1M32 40h1M15 41h1M26 41h1M31 41h1M42 41h1M16 42h1M41 42h1M16 43h3M39 43h3M17 44h5M34 44h8M18 45h25M20 46h23M22 47h6M33 47h7M28 48h1M40 48h2M21 49h1M23 49h6M37 49h1M39 49h2M26 50h1" />
<path stroke="#783020" d="M16 13h1M22 13h1M15 14h1M23 14h1M14 15h1M14 16h1M16 19h1M17 20h2M22 20h1M19 21h3M20 31h1M20 32h2M21 33h2M21 34h3M22 35h1M26 35h1M40 35h1M32 36h8M24 37h1M33 37h4M24 38h1M45 38h4M24 39h1M49 39h1M25 40h1M27 41h4M43 41h1M43 45h1M44 46h1" />
<path stroke="#f85848" d="M18 13h3M16 14h7M16 15h7M16 16h7M17 17h5M20 26h2M22 27h1M22 28h1M45 39h4M44 40h6M44 41h6M45 42h4" />
<path stroke="#f8e098" d="M28 13h3M29 14h4M30 15h3M38 15h4M33 16h3M37 16h5M33 17h2M37 17h3M29 19h2M26 20h1M31 20h1M24 21h2M32 21h3M22 22h4M32 22h4M21 23h4M26 23h1M31 23h6M14 24h1M21 24h5M27 24h10M14 25h1M20 25h6M27 25h8M22 26h5M28 26h5M36 26h1M23 27h4M28 27h4M34 27h2M23 28h1M25 28h2M28 28h4M33 28h3M25 29h6M32 29h3M26 30h9M28 31h5M47 33h1M46 34h1M48 34h1M16 35h5M47 35h1M49 35h1M16 36h7M16 37h8M16 38h8M34 38h1M17 39h7M33 39h5M17 40h7M33 40h8M18 41h8M32 41h8M20 42h18M23 43h10M22 50h1M24 50h2" />
<path stroke="#f8c860" d="M28 14h1M29 15h1M29 16h3M42 16h1M30 17h1M32 17h1M36 17h1M40 17h1M32 18h3M36 18h4M28 19h1M33 19h3M25 20h1M32 20h1M36 20h1M35 21h4M14 22h1M36 22h4M14 23h3M37 23h4M15 24h5M37 24h5M15 25h4M35 25h1M38 25h4M15 26h4M33 26h1M37 26h6M15 27h4M20 27h1M32 27h1M36 27h7M15 28h4M20 28h2M36 28h8M16 29h2M21 29h1M23 29h1M35 29h3M42 29h2M23 30h2M36 30h1M39 30h2M43 30h1M22 31h4M35 31h2M38 31h4M44 31h1M23 32h5M33 32h4M38 32h4M44 32h3M17 33h1M25 33h12M39 33h2M43 33h4M17 34h4M27 34h11M43 34h3M47 34h1M30 35h4M43 35h4M48 35h1M40 36h6M15 37h1M37 37h6M15 38h1M35 38h8M15 39h2M38 39h5M16 40h1M41 40h2M16 41h2M40 41h2M17 42h3M38 42h3M19 43h4M33 43h6M22 44h12M22 49h1" />
<path stroke="#c85040" d="M15 15h1M15 16h1M23 16h1M15 17h2M22 17h1M14 18h2M17 18h5M14 19h2M14 20h3M15 21h2M22 29h1M39 29h2M22 30h1M38 30h1M41 30h1M21 31h1M37 31h1M42 31h1M37 32h1M42 32h1M37 33h1M41 33h1M38 34h2M46 37h4M49 38h2M50 41h1M44 42h1M49 42h1M45 43h4" />
<path stroke="#000000" d="M43 15h1M24 16h1M43 16h1M24 17h1M42 17h1M13 18h1M24 18h1M41 18h1M13 19h1M23 19h1M39 19h2M13 20h1M23 20h1M37 20h2M39 21h1M40 22h1M41 23h1M42 24h1M43 26h1M44 28h1M44 29h1M44 30h1M43 31h1M45 31h2M43 32h1M42 33h1M40 34h2M36 35h4M50 35h1M50 36h1M14 37h1M51 37h1M14 38h1M51 38h1M14 39h1M44 39h1M52 39h1M14 40h1M43 40h1M52 40h1M14 41h1M52 41h1M42 42h1M52 42h1M15 43h1M42 43h1M52 43h1M16 44h1M42 44h1M51 44h1M17 45h1M51 45h1M18 46h1M43 46h1M49 46h2M20 47h1M29 47h3M42 47h1M45 47h4M22 48h1M29 48h1M33 48h3M42 48h1M29 49h1M36 49h1M41 49h1M27 50h2M37 50h4M22 51h5" />
<path stroke="#f8f0b8" d="M27 20h4M26 21h6M26 22h6M27 23h4" />
</svg>