<svg xmlns="http://www.w3.org/2000/svg" viewBox="0 -0.5 64 64" shape-rendering="crispEdges">
<metadata>Made with Pixels to Svg https://codepen.io/shshaw/pen/XbxvNj</metadata>
<path stroke="#f8d870" d="M16 13h1M18 13h1M12 14h1M14 14h1M20 14h1M16 15h1M18 15h1M21 15h1M12 16h1M14 16h1M20 16h1M32 28h1M37 28h2M31 29h1M38 30h1M32 32h1M36 32h1M27 35h1M42 35h1M27 36h1M28 37h2M40 37h2M29 38h3M37 38h4M31 39h7M35 44h1M38 44h1M33 45h1M39 45h1M26 47h1M32 47h1M31 48h3M27 49h1M30 49h1M32 49h3M36 49h1M27 50h2M32 50h3M33 51h2" />
<path stroke="#d0a040" d="M17 13h1M13 14h1M16 14h1M18 14h1M21 14h2M12 15h1M14 15h1M17 15h1M20 15h1M13 16h1M21 16h1M16 17h1M19 17h1M14 18h1M27 31h1M42 31h1M30 33h1M38 33h1M31 34h1M37 34h1M42 36h1M38 39h1M32 40h6M40 46h1M27 48h1M40 48h1M28 49h2M31 49h1M35 49h1M37 49h1M39 49h1M38 50h2" />
<path stroke="#f8f0a0" d="M17 14h1M13 15h1M31 28h1M29 29h2M38 29h3M28 30h3M39 30h3M28 31h3M38 31h4M27 32h5M37 32h6M27 33h1M31 33h7M41 33h2M27 34h3M32 34h5M39 34h4M28 35h3M32 35h5M38 35h4M28 36h6M35 36h7M30 37h1M32 37h5M38 37h2M36 44h2M34 45h5M33 46h7M33 47h7M26 48h1M34 48h5M26 49h1" />
<path stroke="#b84020" d="M46 14h2M49 14h2M22 15h2M25 15h2M48 15h1M24 16h1M47 16h1M49 17h2M22 18h2M45 18h1M27 19h1M42 19h1M30 20h2M14 21h1M47 21h1M32 22h8M45 22h2M13 23h1M30 23h2M39 23h1M44 23h1M25 24h1M28 24h2M40 24h1M43 24h1M25 25h1M27 25h1M41 25h2M26 26h1M11 27h1M26 27h1M11 28h1M29 28h2M39 28h2M28 29h1M41 29h1M11 30h1M22 30h1M27 30h1M42 30h1M31 31h1M37 31h1M11 32h1M26 32h1M33 32h3M43 32h1M11 33h1M22 33h1M26 33h1M43 33h1M12 34h1M26 34h1M43 34h1M26 35h1M43 35h1M26 36h1M27 37h1M31 37h1M37 37h1M42 37h1M28 38h1M32 38h1M36 38h1M41 38h1M30 39h1M39 39h2M16 40h1M18 40h1M31 41h1M33 41h4M38 41h1M29 42h1M26 46h1" />
<path stroke="#a03020" d="M46 15h1M50 15h1M17 16h1M22 16h1M26 16h1M46 16h1M50 16h1M13 17h1M17 17h1M20 17h1M22 17h1M25 17h2M46 17h1M13 18h1M16 18h1M19 18h1M21 18h1M26 18h1M43 18h2M51 18h1M14 19h1M16 19h1M18 19h2M21 19h1M28 19h2M41 19h1M49 19h1M18 20h1M23 20h1M40 20h1M16 21h1M24 21h1M32 21h1M39 21h1M48 21h1M13 22h1M12 24h1M20 24h1M24 25h1M12 26h1M21 26h1M25 26h1M21 28h1M25 28h1M45 28h1M24 29h1M24 30h1M24 31h1M24 32h1M24 33h1M25 34h1M12 35h1M25 35h1M12 36h1M21 36h1M25 36h1M34 36h1M13 37h1M26 37h1M13 38h1M27 38h1M33 38h3M14 39h1M29 39h1M15 40h1M31 40h1M38 40h1M30 41h1M28 42h1M27 43h1M26 44h1M26 45h1" />
<path stroke="#f87850" d="M47 15h1M25 16h1M25 19h2M43 19h4M27 20h3M41 20h5M15 21h1M17 21h1M40 21h5M15 22h1M17 22h1M40 22h3M14 23h1M16 23h2M36 23h2M13 24h1M15 24h1M17 24h2M30 24h1M37 24h1M14 25h1M16 25h3M28 25h3M37 25h1M13 26h1M15 26h1M17 26h2M27 26h5M36 26h1M12 27h6M27 27h8M12 28h5M18 28h1M27 28h2M12 29h6M12 30h5M18 30h1M12 31h1M14 31h2M17 31h1M14 32h1M16 32h1M15 33h1M14 34h1M16 34h1M32 42h1M32 43h1M27 44h1M31 44h1M28 45h3" />
<path stroke="#f8b060" d="M49 15h1M23 16h1M48 16h2M23 17h2M47 17h2M24 18h2M46 18h2M14 22h1M16 22h1M15 23h1M32 23h4M14 24h1M16 24h1M31 24h6M13 25h1M15 25h1M31 25h6M14 26h1M16 26h1M32 26h4M30 42h2M28 43h4M28 44h3" />
<path stroke="#e85030" d="M48 18h3M22 19h3M47 19h2M24 20h3M46 20h3M26 21h6M45 21h2M18 22h1M27 22h5M43 22h2M18 23h2M28 23h2M38 23h1M40 23h4M19 24h1M38 24h2M41 24h2M47 24h1M12 25h1M19 25h2M38 25h3M47 25h1M19 26h2M37 26h6M46 26h1M18 27h3M35 27h9M46 27h1M17 28h1M19 28h2M26 28h1M33 28h4M41 28h4M11 29h1M18 29h4M25 29h3M32 29h6M42 29h4M17 30h1M19 30h3M25 30h2M31 30h7M43 30h4M11 31h1M13 31h1M16 31h1M18 31h4M25 31h2M32 31h5M43 31h4M12 32h2M15 32h1M17 32h5M25 32h1M44 32h3M12 33h3M16 33h6M25 33h1M44 33h3M13 34h1M15 34h1M17 34h5M44 34h3M13 35h8M44 35h2M13 36h8M43 36h3M14 37h7M43 37h2M14 38h6M42 38h2M15 39h5M41 39h1M17 40h1M32 41h1M37 41h1M33 42h7M33 43h7M32 44h3M39 44h2M27 45h1M31 45h2M40 45h1M27 46h6M27 47h5M28 48h3" />
<path stroke="#000000" d="M50 19h2M15 20h3M22 20h1M49 20h1M18 21h1M19 22h1M24 22h1M48 22h1M20 23h1M24 23h1M48 23h1M24 24h1M48 24h1M21 25h1M48 25h1M47 26h1M21 27h1M25 27h1M47 27h1M46 28h1M22 29h1M46 29h1M47 30h1M22 31h1M47 31h1M22 32h1M47 32h1M28 33h1M40 33h1M47 33h1M22 34h1M30 34h1M38 34h1M47 34h1M21 35h1M31 35h1M37 35h1M46 35h1M46 36h1M21 37h1M45 37h1M20 38h1M44 38h1M20 39h1M28 39h1M42 39h2M19 40h1M30 40h1M39 40h3M17 41h2M39 41h1M18 42h1M40 42h1M19 43h1M40 43h1M20 44h2M41 44h1M22 45h4M41 45h1M41 46h1M41 47h1M41 48h1M40 49h1M26 50h1M29 50h2M35 50h3M40 50h1M27 51h2M32 51h1M35 51h1M38 51h2M33 52h2" />
<path stroke="#701820" d="M25 21h1M25 22h2M47 22h1M25 23h3M45 23h3M26 24h2M44 24h3M26 25h1M43 25h4M43 26h3M44 27h2" />
<path stroke="#806840" d="M29 33h1M39 33h1M19 42h1M20 43h1M22 44h1M25 47h1M40 47h1M25 48h1M39 48h1M25 49h1M38 49h1M31 50h1" />
</svg>