<svg xmlns="http://www.w3.org/2000/svg" viewBox="0 -0.5 64 64" shape-rendering="crispEdges">
<metadata>Made with Pixels to Svg https://codepen.io/shshaw/pen/XbxvNj</metadata>
<path stroke="#307068" d="M29 10h3M27 11h1M26 12h1M47 12h4M25 13h1M45 13h2M24 14h1M43 14h2M23 15h1M42 15h1M41 16h1M40 17h1M22 18h1M39 19h1M38 21h1M37 23h1M41 24h1M39 25h1M23 29h1M23 30h1M23 31h1M24 33h1M25 34h1M25 35h1M40 35h1M38 36h2M41 36h1M23 45h2M22 46h1M22 47h1M27 47h1M24 48h1M26 49h1" />
<path stroke="#508880" d="M28 11h1M31 11h1M31 12h1M30 13h1M47 13h4M30 14h1M45 14h7M29 15h1M43 15h9M23 16h1M28 16h1M45 16h6M27 17h2M46 17h5M25 18h3M46 18h4M23 19h5M45 19h4M22 20h4M43 20h5M23 21h2M41 21h6M24 22h1M42 22h3M42 23h2M39 28h1M24 29h1M38 29h3M24 30h1M37 30h4M25 31h1M30 31h1M24 32h2M37 32h4M25 33h1M37 33h4M38 34h2M26 36h1M40 36h1M24 37h3M39 37h2M23 46h2M23 47h4M25 48h4M27 49h4M29 50h2" />
<path stroke="#90c0c8" d="M29 11h2M27 12h4M26 13h4M25 14h5M24 15h5M24 16h4M42 16h3M23 17h4M41 17h5M23 18h2M40 18h6M22 19h1M40 19h5M39 20h4M38 28h1M40 28h1M37 29h1M41 29h1M41 30h1M37 31h1M24 36h2" />
<path stroke="#000000" d="M32 11h1M32 12h1M31 13h1M31 14h1M52 14h1M30 15h1M52 15h1M29 16h1M22 17h1M29 17h1M51 17h1M28 18h1M39 18h1M50 18h1M21 19h1M28 19h1M49 19h1M21 20h1M29 20h1M38 20h1M48 20h1M22 21h1M29 21h1M47 21h1M23 22h1M37 22h1M45 22h2M24 23h2M44 23h1M42 24h2M40 25h2M27 28h1M42 28h1M26 29h2M35 29h1M42 29h1M27 30h1M34 30h2M42 30h1M35 31h1M42 31h1M41 32h1M41 33h1M40 34h1M24 35h1M38 35h2M23 36h1M28 36h2M37 36h1M23 37h1M41 37h1M24 38h2M40 38h1M27 39h1M38 39h1M36 40h1M36 41h1M25 42h1M25 43h1M25 44h1M39 44h1M26 45h1M39 45h1M25 46h2M31 46h3M38 46h1M31 47h1M34 47h1M37 47h1M23 48h1M30 48h1M35 48h2M25 49h1M31 49h1M27 50h2M31 50h1M29 51h2" />
<path stroke="#283040" d="M51 13h1M51 16h1M26 35h1" />
<path stroke="#f8d068" d="M26 20h1M25 21h1M40 21h1M41 22h1M29 23h1M41 23h1M26 24h1M40 24h1M39 26h2M24 27h1M40 27h2M41 28h1M25 30h1M38 31h1M41 31h1M35 32h2M26 33h1M34 33h3M27 34h11M28 35h10M31 36h4M29 37h2M34 37h3M38 37h1M30 38h9M33 39h4M35 40h1M35 41h1M27 42h3M27 43h3M26 44h4M31 44h2M36 44h3M27 45h2M30 45h4M36 45h3M35 46h3M35 47h2" />
<path stroke="#f8e8a0" d="M27 20h1M26 21h3M39 21h1M25 22h4M38 22h3M26 23h2M33 23h3M38 23h3M34 24h6M33 25h6M25 26h1M32 26h7M25 27h1M30 27h10M24 28h2M28 28h6M36 28h2M25 29h1M28 29h6M36 29h1M28 30h6M36 30h1M24 31h1M26 31h4M31 31h3M36 31h1M39 31h2M26 32h2M29 32h6M27 33h2M27 36h1M27 37h2M26 38h4M29 39h4M29 40h6M30 41h5M26 42h1M31 42h5M26 43h1M31 43h4M33 44h2M35 45h1" />
<path stroke="#404060" d="M28 20h1M29 22h1M28 23h1" />
<path stroke="#c89050" d="M31 22h5M36 23h1M25 25h1M24 26h1M23 28h1M28 32h1M29 33h2M33 33h1M26 34h1M27 35h1M30 36h1M35 36h2M31 37h3M28 39h1M37 39h1M29 46h2M28 47h3" />
<path stroke="#f8f0d8" d="M30 23h3M27 24h7M26 25h7M26 26h6M28 27h2M27 41h2M36 43h2" />
<path stroke="#885010" d="M41 26h1M26 27h2M42 27h1M34 28h2M26 30h1M34 31h1M31 33h2M37 37h1M39 38h1M26 39h1M27 40h2M26 41h1M29 41h1M30 42h1M36 42h2M30 43h1M35 43h1M38 43h1M30 44h1M35 44h1M29 45h1M34 45h1M27 46h2M34 46h1M29 48h1" />
<path stroke="#f8f8f8" d="M26 28h1M34 29h1" />
</svg>