<svg xmlns="http://www.w3.org/2000/svg" viewBox="0 -0.5 64 64" shape-rendering="crispEdges">
<metadata>Made with Pixels to Svg https://codepen.io/shshaw/pen/XbxvNj</metadata>
<path stroke="#2078b8" d="M29 4h1M36 4h1M28 5h1M35 5h1M21 6h1M27 6h1M34 6h1M20 7h1M26 7h1M29 7h1M33 7h1M20 8h1M25 8h1M29 8h1M32 8h1M23 9h1M28 9h2M11 10h3M23 10h1M27 10h2M35 10h1M41 10h2M8 11h2M27 11h2M35 11h1M40 11h1M7 12h1M23 12h1M34 12h2M15 13h1M34 13h1M15 14h1M15 15h2M39 15h2M15 16h1M38 16h2M7 17h1M15 17h2M37 17h3M7 18h1M11 18h1M14 18h4M37 18h2M51 18h1M7 19h1M10 19h1M13 19h7M37 19h2M50 19h1M8 20h1M13 20h7M21 20h1M36 20h2M13 21h8M22 21h2M36 21h2M51 21h1M16 22h5M35 22h2M18 23h3M29 23h7M20 24h1M31 24h4M37 24h1M52 24h1M36 25h4M32 26h7M40 26h1M56 26h1M30 27h10M41 27h1M56 27h1M29 28h6M38 28h2M41 28h2M56 28h1M29 29h4M34 29h1M39 29h2M42 29h2M52 29h1M56 29h1M29 30h1M39 30h3M43 30h2M56 30h1M40 31h3M44 31h2M56 31h1M29 32h1M42 32h2M45 32h2M56 32h1M36 33h1M38 33h1M40 33h1M42 33h3M46 33h1M55 33h2M30 34h1M37 34h1M43 34h2M46 34h2M55 34h2M43 35h2M46 35h2M49 35h1M54 35h3M25 36h4M42 36h3M46 36h3M50 36h1M53 36h4M24 37h1M41 37h3M45 37h4M50 37h6M31 38h1M39 38h3M44 38h6M51 38h5M38 39h2M42 39h8M51 39h5M23 40h1M26 40h2M29 40h1M37 40h2M40 40h10M51 40h4M23 41h1M36 41h2M39 41h12M52 41h3M23 42h1M30 42h2M35 42h1M38 42h9M48 42h3M52 42h2M29 43h1M32 43h2M35 43h1M37 43h7M47 43h1M49 43h2M52 43h2M28 44h1M33 44h3M37 44h6M49 44h2M52 44h1M34 45h2M37 45h5M48 45h1M50 45h1M25 46h1M35 46h1M37 46h4M24 47h1M37 47h4M49 47h1M30 48h1M39 48h3M49 48h1M30 49h2M35 49h2M49 49h1M29 50h4M34 50h2M49 50h1M27 51h4M33 51h3M43 51h1M48 51h2M23 52h2M31 52h4M44 52h6M22 53h1M28 53h1M31 53h4M43 53h1M45 53h4M21 54h1M28 54h1M32 54h2M44 54h1M49 54h2M27 55h1M31 55h2M43 56h2M48 56h5M42 57h1M45 57h1M49 57h1M46 58h1" />
<path stroke="#003068" d="M30 4h1M37 4h1M30 5h1M37 5h1M30 6h1M37 6h1M22 7h1M30 7h1M37 7h1M23 8h1M30 8h1M37 8h1M20 9h1M24 9h1M30 9h2M36 9h1M20 10h1M24 10h1M29 10h1M36 10h1M43 10h1M10 11h1M14 11h1M20 11h1M23 11h1M39 11h1M43 11h1M11 12h2M15 12h1M20 12h1M37 12h2M42 12h1M8 13h2M13 13h1M16 13h1M20 13h1M35 13h2M10 14h1M16 14h1M20 14h1M41 14h1M11 15h1M17 15h1M20 15h1M12 16h1M16 16h2M20 16h1M40 16h1M8 17h1M12 17h1M17 17h2M20 17h1M22 17h1M9 18h1M18 18h3M23 18h1M30 18h4M39 18h1M52 18h1M20 19h1M24 19h1M29 19h1M33 19h1M9 20h1M20 20h1M24 20h1M28 20h1M38 20h1M50 20h1M9 21h2M21 21h1M24 21h3M54 21h1M15 22h1M21 22h3M27 22h5M37 22h1M51 22h1M17 23h1M28 23h1M36 23h1M51 23h1M55 23h1M19 24h1M29 24h2M35 24h1M31 25h1M52 25h1M56 25h1M39 26h1M52 26h1M40 27h1M52 27h1M57 27h1M40 28h1M52 28h1M28 29h1M41 29h1M28 30h1M34 30h1M42 30h1M51 30h1M29 31h1M43 31h1M51 31h1M36 32h1M44 32h1M50 32h1M37 33h1M39 33h1M45 33h1M47 33h1M50 33h1M38 34h1M48 34h2M30 35h1M48 35h1M30 36h1M49 36h1M57 36h1M28 37h4M34 37h1M49 37h1M56 37h1M24 38h1M26 38h2M32 38h3M42 38h1M50 38h1M24 39h2M35 39h1M25 40h1M28 40h1M27 41h1M51 41h1M27 42h1M36 42h1M26 43h1M30 43h2M25 44h1M27 44h1M32 44h1M48 44h1M25 45h1M33 45h1M49 45h1M27 46h1M33 46h2M41 46h1M49 46h2M26 47h1M33 47h1M35 47h1M41 47h1M50 47h1M24 48h1M32 48h1M42 48h1M24 49h1M25 50h1M36 50h1M25 51h2M42 51h1M35 52h1M43 52h1M50 52h1M27 53h1M29 53h2M44 53h1M49 53h1M26 54h1M31 54h1M42 54h1M45 54h1M25 55h1M30 55h1M41 55h1M52 55h1M24 56h1M29 56h1M40 56h1M53 56h1M29 57h1M39 57h1M41 57h1M43 57h2M48 57h1M52 57h1M38 58h1M45 58h1M47 58h3M53 58h1M38 59h1M45 59h2" />
<path stroke="#70c8f8" d="M29 5h1M28 6h1M35 6h1M21 7h1M27 7h1M34 7h1M21 8h1M26 8h1M33 8h2M21 9h1M25 9h1M32 9h2M21 10h1M32 10h1M21 11h1M21 12h1M11 13h2M21 13h1M21 14h1M28 18h2M28 19h1M51 19h1M10 20h1M51 20h1M11 21h1M52 21h1M52 22h1M52 23h1M35 29h1M35 30h2M30 31h1M36 31h2M30 32h1M31 33h1M31 34h1M31 35h1M31 36h2M25 37h1M32 37h1M28 38h2M27 39h1M30 40h1M28 41h2M43 46h2M25 47h1M27 47h1M43 47h3M25 48h2M43 48h3M25 49h2M44 49h2" />
<path stroke="#48a0e0" d="M36 5h1M29 6h1M36 6h1M28 7h1M35 7h2M22 8h1M27 8h2M35 8h2M22 9h1M26 9h2M34 9h2M22 10h1M25 10h2M30 10h2M33 10h2M13 11h1M22 11h1M24 11h3M29 11h6M41 11h2M14 12h1M22 12h1M24 12h10M39 12h3M10 13h1M22 13h12M37 13h5M11 14h4M22 14h4M28 14h13M12 15h3M21 15h4M29 15h10M13 16h2M21 16h4M29 16h9M13 17h2M21 17h1M23 17h3M28 17h9M12 18h2M21 18h1M24 18h4M34 18h3M11 19h2M21 19h1M25 19h3M34 19h3M52 19h1M11 20h2M25 20h3M33 20h3M52 20h2M12 21h1M27 21h1M33 21h3M53 21h1M32 22h3M53 22h2M53 23h2M53 24h3M53 25h3M53 26h3M53 27h3M35 28h3M53 28h3M33 29h1M36 29h3M53 29h3M30 30h4M37 30h2M52 30h4M31 31h3M35 31h1M38 31h2M52 31h4M31 32h4M37 32h5M51 32h5M30 33h1M32 33h4M41 33h1M51 33h4M32 34h5M39 34h4M50 34h5M32 35h5M38 35h5M50 35h4M33 36h3M37 36h5M51 36h2M26 37h2M33 37h1M36 37h5M25 38h1M30 38h1M35 38h4M26 39h1M28 39h7M36 39h2M31 40h6M30 41h6M28 42h2M32 42h3M27 43h2M34 43h1M44 43h3M43 44h5M42 45h6M42 46h1M45 46h4M28 47h1M42 47h1M46 47h3M27 48h3M46 48h3M27 49h3M43 49h1M46 49h3M26 50h3M43 50h6M44 51h4M25 52h1M24 53h1M27 54h1M43 54h1M26 55h1M42 55h10M41 56h2M45 56h3M46 57h2" />
<path stroke="#f89098" d="M11 11h2M13 12h1M14 13h1M11 16h1M9 17h1M11 17h1M10 18h1M26 22h1M25 23h1M27 23h1M26 24h2M24 25h3M28 25h2M24 26h1M27 26h3M26 27h3M25 28h3M24 29h2M20 30h5M25 41h2M29 44h1M28 45h1M29 46h1M26 53h1M29 54h2M28 55h2M50 57h2M52 58h1" />
<path stroke="#101010" d="M36 11h1M36 12h1M42 13h1M41 15h1M40 17h1M39 19h1M53 19h1M29 20h1M54 20h1M38 21h1M11 22h4M55 22h1M16 23h1M37 23h1M18 24h1M36 24h1M38 24h1M56 24h1M32 25h4M40 25h1M30 26h2M41 26h1M29 27h1M42 27h1M28 28h1M43 28h1M57 28h1M26 29h2M44 29h1M57 29h1M25 30h1M45 30h1M57 30h1M22 31h3M34 31h1M46 31h1M57 31h1M35 32h1M57 32h1M57 33h1M45 34h1M57 34h1M37 35h1M45 35h1M57 35h1M36 36h1M45 36h1M35 37h1M44 37h1M43 38h1M56 38h1M40 39h2M50 39h1M56 39h1M39 40h1M50 40h1M55 40h1M38 41h1M55 41h1M37 42h1M47 42h1M51 42h1M54 42h1M36 43h1M48 43h1M51 43h1M54 43h1M36 44h1M51 44h1M53 44h1M36 45h1M51 45h2M36 46h1M51 46h1M36 47h1M35 48h4M50 48h1M32 49h3M37 49h1M39 49h4M50 49h1M33 50h1M42 50h1M50 50h1M31 51h2M36 51h1M50 51h1M26 52h5M35 53h1M50 53h1M23 54h2M34 54h1M46 54h3M51 54h1M21 55h2M33 55h1M53 55h1M26 56h1M31 56h2M54 56h1M24 57h1M26 57h1M31 57h1M55 57h1M25 58h1M30 58h1M41 58h2M55 58h1M39 59h2M48 59h1M54 59h2M46 60h1M48 60h1M47 61h1" />
<path stroke="#f8f8f8" d="M8 12h2M26 15h1M8 18h1M22 18h1M8 19h1M22 19h1M31 19h2M22 20h1M31 20h2M28 21h1M31 21h2M24 22h1M22 23h2M22 24h1M21 25h2M21 26h1M20 27h2M20 28h1M20 29h1M24 40h1M24 41h1M26 44h1M26 45h1M26 46h1M34 47h1M33 48h2M23 53h1M22 54h1M25 56h1M25 57h1M30 57h1M40 57h1M39 58h1M54 58h1M47 59h1M47 60h1" />
<path stroke="#c0c0c0" d="M10 12h1M9 19h1M30 56h1M53 57h2M40 58h1" />
<path stroke="#883038" d="M9 14h1M9 15h1M8 16h1M26 23h1M19 28h1M19 29h1M19 30h1M20 31h2M24 42h1M25 43h1M28 46h1M29 47h2M31 48h1" />
<path stroke="#d81818" d="M26 14h1M25 15h1M27 15h1M27 16h1M30 19h1M30 21h1" />
<path stroke="#880000" d="M27 14h1M28 15h1M25 16h1M28 16h1M26 17h2M23 20h1M29 21h1" />
<path stroke="#f8b8c0" d="M10 15h1M9 16h2M10 17h1M25 22h1M24 23h1M23 24h2M28 24h1M23 25h1M27 25h1M22 26h2M25 26h2M22 27h4M21 28h4M21 29h3M25 42h2M30 44h2M29 45h4M30 46h3M31 47h2M43 58h2M50 58h2M49 59h1" />
<path stroke="#e83048" d="M26 16h1M23 19h1M30 20h1" />
<path stroke="#b86068" d="M21 23h1M21 24h1M25 24h1M20 25h1M30 25h1M20 26h1M19 27h1M27 45h1M25 53h1M25 54h1M27 56h2M41 59h4M50 59h3M45 60h1M49 60h1" />
</svg>