<svg xmlns="http://www.w3.org/2000/svg" viewBox="0 -0.5 64 64" shape-rendering="crispEdges">
<metadata>Made with Pixels to Svg https://codepen.io/shshaw/pen/XbxvNj</metadata>
<path stroke="#e0c050" d="M18 6h2M39 6h1M38 7h1M37 8h1M39 9h1M18 10h1M38 10h2M20 11h1M38 11h1M20 12h1M24 12h1M33 12h1M38 12h1M54 12h1M20 13h2M26 13h1M31 13h1M38 13h1M53 13h1M21 14h1M38 14h1M50 14h1M55 14h1M21 15h1M34 15h1M38 15h1M54 15h1M34 16h1M37 16h1M53 16h2M35 17h3M52 17h2M20 18h1M36 18h3M52 18h2M35 19h1M37 19h2M51 19h3M34 20h2M37 20h3M51 20h2M21 21h1M36 21h4M51 21h2M21 22h1M35 22h4M50 22h3M21 23h1M25 23h1M35 23h4M50 23h3M22 24h1M33 24h6M49 24h4M21 25h1M24 25h1M26 25h1M28 25h1M30 25h7M43 25h1M49 25h5M12 26h3M29 26h6M48 26h6M14 27h2M29 27h2M32 27h1M42 27h2M47 27h1M51 27h3M15 28h1M29 28h3M43 28h2M52 28h2M14 29h1M25 29h1M29 29h1M43 29h3M51 29h1M53 29h1M13 30h1M21 30h1M29 30h2M44 30h3M50 30h1M12 31h1M20 31h1M29 31h1M45 31h2M49 31h2M27 32h2M40 32h1M45 32h2M51 32h1M11 33h1M18 33h1M42 33h1M45 33h2M51 33h1M11 34h2M19 34h1M43 34h4M50 34h3M12 35h2M19 35h3M29 35h2M38 35h1M40 35h3M50 35h5M9 36h1M16 36h1M18 36h1M29 36h4M39 36h1M41 36h3M47 36h3M51 36h2M29 37h1M31 37h4M40 37h1M42 37h2M48 37h3M16 38h1M29 38h1M31 38h4M41 38h1M43 38h2M48 38h4M10 39h1M31 39h4M37 39h1M42 39h1M44 39h1M48 39h3M14 40h1M29 40h1M31 40h3M38 40h1M41 40h1M44 40h1M48 40h3M11 41h2M14 41h2M25 41h2M32 41h2M39 41h1M41 41h1M43 41h2M48 41h2M11 42h2M14 42h3M26 42h6M41 42h1M43 42h2M48 42h2M12 43h2M15 43h3M25 43h1M33 43h2M39 43h1M41 43h1M43 43h2M48 43h1M13 44h2M16 44h2M25 44h2M28 44h3M32 44h3M37 44h4M43 44h1M47 44h1M15 45h1M25 45h3M31 45h4M37 45h2M42 45h2M14 46h1M23 46h13M37 46h1M42 46h2M25 47h10M36 47h2M40 47h2M28 48h6M36 48h5M43 48h3M15 49h1M36 49h2M42 49h1M13 50h1M16 50h2M38 50h2M43 50h1M17 51h2M41 51h1M14 52h1M18 52h1M10 53h1M12 53h4M19 53h1M12 54h1M16 54h1M18 54h1M17 55h1" />
<path stroke="#786000" d="M40 6h1M18 7h1M20 7h1M18 8h1M21 8h1M18 9h1M36 9h1M20 10h1M35 10h1M40 10h1M19 11h1M21 11h1M34 11h1M37 11h1M39 11h1M19 12h1M21 12h1M32 12h1M36 12h1M55 12h3M19 13h1M22 13h1M27 13h1M30 13h1M36 13h1M52 13h1M20 14h1M22 14h1M35 14h1M51 14h1M20 15h1M22 15h1M35 15h1M37 15h1M39 15h1M49 15h1M55 15h1M20 16h1M35 16h1M48 16h1M20 17h1M47 17h1M54 17h1M19 18h1M35 18h1M46 18h1M36 19h1M46 19h1M21 20h2M36 20h1M53 20h1M35 21h1M53 21h1M30 23h1M23 24h3M29 24h4M53 24h2M25 25h1M29 25h1M26 26h1M28 26h1M41 26h2M12 27h1M24 27h1M26 27h1M28 27h1M31 27h1M35 27h1M48 27h1M12 28h1M26 28h1M28 28h1M33 28h3M47 28h1M11 29h1M23 29h1M26 29h1M28 29h1M34 29h2M10 30h1M51 30h1M9 31h1M28 31h1M42 31h1M44 31h1M8 32h1M10 32h1M48 32h2M52 32h1M8 33h2M30 33h2M40 33h1M47 33h1M55 33h1M21 34h1M16 35h1M8 36h1M13 36h1M40 36h1M9 37h1M12 37h1M41 37h1M11 38h1M15 38h1M42 38h1M15 39h1M41 39h1M43 39h1M51 39h1M15 40h1M35 40h2M42 40h1M13 41h1M36 41h1M50 41h1M13 42h1M25 42h1M32 42h1M34 42h2M37 42h2M23 43h1M26 43h1M35 43h1M37 43h2M22 44h1M27 44h1M36 44h1M21 45h1M28 45h1M36 45h1M39 45h2M15 46h3M22 46h1M38 46h2M15 47h2M23 47h2M13 48h1M15 48h2M25 48h1M41 48h2M12 49h1M14 49h1M28 49h2M35 49h1M43 49h2M12 50h1M10 51h2M19 51h1M42 51h1M9 52h1M9 53h1M20 53h1M11 54h1M19 54h1M11 55h1M16 55h1M9 56h1" />
<path stroke="#f8f8a0" d="M19 7h1M19 8h2M38 8h1M20 9h2M37 9h1M22 10h1M22 11h2M23 12h1M25 15h2M23 16h6M22 17h5M28 17h1M22 18h3M22 19h4M24 20h2M27 20h1M25 21h3M18 34h1M14 36h2M13 37h3M13 38h2" />
<path stroke="#f8e878" d="M39 7h1M39 8h1M19 9h1M38 9h1M19 10h1M21 10h1M36 10h2M35 11h2M22 12h1M34 12h2M23 13h3M32 13h4M54 13h3M23 14h12M52 14h3M23 15h2M27 15h7M50 15h4M22 16h1M29 16h5M49 16h4M21 17h1M29 17h6M48 17h4M21 18h1M30 18h5M47 18h5M20 19h2M29 19h6M47 19h4M19 20h2M23 20h1M29 20h5M46 20h5M18 21h3M24 21h1M28 21h4M48 21h3M18 22h3M25 22h6M49 22h1M18 23h3M26 23h4M49 23h1M19 24h3M26 24h3M22 25h2M27 25h1M23 26h3M27 26h1M43 26h2M13 27h1M25 27h1M27 27h1M44 27h2M13 28h2M25 28h1M27 28h1M45 28h1M49 28h2M12 29h2M24 29h1M27 29h1M31 29h2M46 29h1M48 29h3M11 30h2M22 30h3M26 30h3M32 30h2M48 30h2M52 30h1M10 31h2M21 31h3M26 31h2M33 31h2M43 31h1M48 31h1M52 31h1M9 32h1M22 32h1M34 32h2M41 32h3M53 32h1M10 33h1M34 33h3M41 33h1M43 33h2M53 33h2M9 34h2M35 34h3M53 34h2M9 35h3M17 35h2M26 35h3M35 35h3M10 36h3M17 36h1M25 36h4M36 36h3M10 37h2M16 37h2M24 37h2M27 37h1M36 37h4M10 38h1M12 38h1M25 38h1M27 38h1M37 38h4M12 39h3M25 39h2M38 39h3M12 40h2M25 40h3M39 40h2M40 41h1M40 42h1M24 43h1M23 44h2M22 45h3M13 49h1M38 49h4M14 50h2M40 50h3M12 51h5M10 52h4M15 52h3M11 53h1M16 53h3M17 54h1" />
<path stroke="#101010" d="M40 7h1M40 8h1M22 9h1M40 9h1M23 10h1M24 11h1M25 12h1M39 12h1M28 13h2M39 13h1M57 13h1M39 14h1M56 14h1M38 16h1M55 16h1M38 17h1M39 18h4M54 18h1M39 19h1M44 19h1M54 19h1M45 20h1M23 21h1M33 21h2M46 21h2M24 22h1M39 22h1M53 22h1M24 23h1M31 23h1M39 23h1M48 23h1M53 23h1M14 24h1M40 24h1M43 24h1M48 24h1M13 25h2M20 25h1M37 25h2M40 25h1M44 25h1M47 25h2M54 25h1M15 26h1M20 26h3M35 26h3M40 26h1M47 26h1M54 26h1M16 27h1M19 27h3M33 27h2M37 27h1M40 27h2M49 27h2M54 27h1M16 28h5M37 28h2M40 28h1M42 28h1M46 28h1M48 28h1M51 28h1M54 28h1M15 29h2M19 29h1M37 29h6M47 29h1M52 29h1M54 29h1M14 30h1M16 30h1M20 30h1M25 30h1M31 30h1M39 30h5M47 30h1M53 30h1M13 31h1M17 31h1M24 31h1M30 31h1M32 31h1M35 31h7M47 31h1M51 31h1M53 31h1M11 32h2M21 32h1M23 32h1M29 32h1M33 32h1M44 32h1M47 32h1M50 32h1M54 32h1M12 33h1M17 33h1M21 33h1M33 33h1M37 33h1M50 33h1M52 33h1M8 34h1M13 34h1M17 34h1M22 34h1M34 34h1M38 34h5M49 34h1M55 34h1M8 35h1M14 35h2M22 35h1M34 35h1M39 35h1M44 35h4M49 35h1M55 35h1M23 36h2M50 36h1M53 36h2M35 37h1M51 37h2M9 38h1M35 38h2M52 38h1M9 39h1M11 39h1M24 39h1M35 39h2M9 40h3M24 40h1M37 40h1M43 40h1M51 40h1M10 41h1M24 41h1M35 41h1M37 41h2M42 41h1M10 42h1M23 42h2M33 42h1M36 42h1M39 42h1M42 42h1M50 42h1M6 43h4M11 43h1M14 43h1M22 43h1M27 43h6M36 43h1M40 43h1M42 43h1M49 43h1M12 44h1M15 44h1M18 44h4M31 44h1M35 44h1M41 44h2M48 44h1M12 45h3M16 45h3M29 45h2M35 45h1M41 45h1M46 45h2M13 46h1M18 46h1M36 46h1M40 46h2M44 46h2M14 47h1M17 47h2M35 47h1M38 47h2M42 47h4M14 48h1M17 48h1M26 48h2M34 48h2M46 48h2M16 49h3M30 49h4M45 49h1M18 50h1M33 50h1M35 50h3M44 50h1M38 51h3M45 51h1M19 52h1M41 52h4M13 54h3M20 54h1M12 55h1M20 55h1M10 56h1M20 56h1M7 57h2M20 57h1" />
<path stroke="#583030" d="M37 12h1M37 13h1M36 14h2M36 15h1M21 16h1M36 16h1M16 17h4M15 18h1M43 18h1M13 19h1M19 19h1M18 20h1M40 20h1M11 21h1M17 21h1M41 21h1M11 22h1M17 22h1M48 22h1M11 23h1M15 23h3M12 24h2M17 24h2M39 24h1M17 25h3M18 26h2M45 26h1M22 27h2M36 27h1M38 27h2M46 27h1M21 28h4M32 28h1M36 28h1M39 28h1M41 28h1M21 29h2M30 29h1M33 29h1M36 29h1M34 30h4M25 31h1M26 32h1M22 33h1M25 34h6M23 35h3M31 35h2M43 35h1M33 36h2M44 36h1M46 36h1M44 37h1M47 37h1M45 38h1M47 38h1M45 39h1M47 39h1M34 40h1M45 40h1M47 40h1M34 41h1M45 41h1M47 41h1M45 42h1M47 42h1M45 43h1M47 43h1M44 44h2M44 45h1" />
<path stroke="#f08888" d="M27 17h1M25 18h1M29 18h1M26 20h1M28 20h1M26 37h1M27 39h4M28 41h1M30 41h1" />
<path stroke="#d8b0b0" d="M16 18h2M16 19h2M12 21h2M12 22h2" />
<path stroke="#b08888" d="M18 18h1M15 19h1M18 19h1M13 20h5M43 20h2M14 21h3M43 21h3M14 22h3M44 22h3M12 23h3M45 23h1M15 25h1M16 26h1M24 32h2M23 33h7M23 34h2" />
<path stroke="#f04030" d="M26 18h3M26 19h3M28 37h1M30 37h1M26 38h1M28 38h1M30 38h1M28 40h1M30 40h1M27 41h1M29 41h1M31 41h1" />
<path stroke="#886060" d="M14 19h1M40 19h4M12 20h1M41 20h2M32 21h1M42 21h1M31 22h1M42 22h2M47 22h1M43 23h2M46 23h2M15 24h2M44 24h4M16 25h1M39 25h1M45 25h2M17 26h1M38 26h2M46 26h1M17 27h2M17 29h1M20 29h1M17 30h1M31 31h1M30 32h3M32 33h1M31 34h3M33 35h1M35 36h1M45 36h1M45 37h2M46 38h1M46 39h1M46 40h1M46 41h1M46 42h1M46 43h1M46 44h1M45 45h1" />
<path stroke="#f8f8f8" d="M22 21h1M22 22h1M32 22h2M40 22h1M22 23h2M32 23h2M41 23h1M41 24h2M42 25h1M19 30h1M19 31h1M19 32h1M37 32h3M48 33h1M48 34h1M19 37h4M18 38h6M19 39h4M6 42h2M9 54h2M8 55h1M18 55h1M18 56h1" />
<path stroke="#585858" d="M40 21h1M41 22h1M42 23h1M18 29h1M18 30h1M38 30h1M18 31h1M18 32h1M36 32h1M19 33h1M20 34h1M47 34h1M48 35h1M19 36h4M18 37h1M23 37h1M17 38h1M24 38h1M16 39h2M6 41h3M16 41h1M5 42h1M17 42h1M5 43h1M18 43h1M48 49h1M34 50h1M45 50h3M8 53h1M8 54h1M7 55h1M7 56h1M17 56h1M18 57h1M19 58h1" />
<path stroke="#d8d8d8" d="M23 22h1M34 22h1M34 23h1M40 23h1M41 25h1M20 32h1M20 33h1M38 33h2M49 33h1M18 39h1M23 39h1M16 40h8M18 41h4M8 42h1M34 49h1M46 49h2M43 51h2M9 55h2M19 55h1M8 56h1M19 56h1M19 57h1" />
<path stroke="#b0b0b0" d="M9 41h1M17 41h1M22 41h2M9 42h1M18 42h5M19 43h3" />
</svg>