<svg xmlns="http://www.w3.org/2000/svg" viewBox="0 -0.5 64 64" shape-rendering="crispEdges">
<metadata>Made with Pixels to Svg https://codepen.io/shshaw/pen/XbxvNj</metadata>
<path stroke="#609040" d="M33 6h1M38 6h1M32 7h1M39 7h1M44 7h1M27 8h1M30 8h1M45 8h1M26 9h1M46 9h1M21 10h1M46 10h2M19 11h2M47 11h2M18 12h1M47 12h2M36 13h2M47 13h1M49 13h1M35 14h1M37 14h2M47 14h1M49 14h1M20 15h1M34 15h1M36 15h3M47 15h1M49 15h1M21 16h1M34 16h1M37 16h3M46 16h2M49 16h2M23 17h1M33 17h1M38 17h3M44 17h1M46 17h1M48 17h3M38 18h7M46 18h1M48 18h3M32 19h1M39 19h6M47 19h3M51 19h1M24 20h1M40 20h4M46 20h4M26 21h5M36 21h1M48 21h1M23 22h1M53 22h1M19 23h2M34 23h5M53 23h1M17 24h2M26 24h9M38 24h4M43 24h3M50 24h1M52 24h2M15 25h2M29 25h4M39 25h3M43 25h7M51 25h1M53 25h1M14 26h1M39 26h2M44 26h5M51 26h2M28 27h6M39 27h2M44 27h3M52 27h1M26 28h2M34 28h2M38 28h3M43 28h1M48 28h1M53 28h1M25 29h1M32 29h2M35 29h7M43 29h1M45 29h3M49 29h3M53 29h1M23 30h1M32 30h2M38 30h4M43 30h2M48 30h4M53 30h1M10 31h1M22 31h5M30 31h2M39 31h3M43 31h8M9 32h1M14 32h1M20 32h5M28 32h3M33 32h2M42 32h8M8 33h1M14 33h1M18 33h6M27 33h2M32 33h1M35 33h1M42 33h7M8 34h1M15 34h7M26 34h2M31 34h1M35 34h2M42 34h7M9 35h2M16 35h4M24 35h3M30 35h1M35 35h2M42 35h3M46 35h4M51 35h1M12 36h2M22 36h2M35 36h2M40 36h1M42 36h4M48 36h3M14 37h7M35 37h2M40 37h1M42 37h6M51 37h1M35 38h3M40 38h2M43 38h8M35 39h3M40 39h1M42 39h6M35 40h3M40 40h1M44 40h3M56 40h1M35 41h3M41 41h1M56 41h1M10 42h2M36 42h2M51 42h1M56 42h1M9 43h1M36 43h2M41 43h1M44 43h1M50 43h3M56 43h1M36 44h2M42 44h4M49 44h4M8 45h1M31 45h1M36 45h2M42 45h10M6 46h2M31 46h1M36 46h2M43 46h11M4 47h1M9 47h1M31 47h1M34 47h3M38 47h1M42 47h12M56 47h1M3 48h1M8 48h1M41 48h4M48 48h9M2 49h1M7 49h1M10 49h1M39 49h9M49 49h7M1 50h1M10 50h2M42 50h7M50 50h6M7 51h2M11 51h1M43 51h7M52 51h2M60 51h1M6 52h3M12 52h3M20 52h5M34 52h6M43 52h9M57 52h4M7 53h3M13 53h30M46 53h9M56 53h4M15 54h31M48 54h8M57 54h1M6 55h1M17 55h5M35 55h13M49 55h6M7 56h3M37 56h10M50 56h4M23 57h3M33 57h7M42 57h4M16 58h8M35 58h3" />
<path stroke="#386818" d="M34 6h4M30 7h2M40 7h4M28 8h2M25 9h1M28 9h1M22 10h3M27 10h1M42 10h1M26 11h2M43 11h1M26 12h1M44 12h1M49 12h1M18 13h1M26 13h1M44 13h1M48 13h1M18 14h1M25 14h1M45 14h1M19 15h1M25 15h1M45 15h1M50 15h1M22 16h3M36 16h1M37 17h1M23 18h1M33 18h1M37 18h1M51 18h1M23 19h1M38 19h1M50 19h1M52 19h1M50 20h1M52 20h1M32 21h4M40 21h1M49 21h2M53 21h1M21 22h2M26 22h1M37 22h2M40 22h1M39 23h3M44 23h2M50 23h1M54 23h1M42 24h1M46 24h1M51 24h1M42 25h1M52 25h1M41 26h1M53 26h1M13 27h1M41 27h1M53 27h1M12 28h1M32 28h2M41 28h1M49 28h2M54 28h1M24 29h1M34 29h1M42 29h1M44 29h1M24 30h2M42 30h1M45 30h1M11 31h1M14 31h1M27 31h3M42 31h1M54 31h1M12 32h2M41 32h1M55 32h1M41 33h1M40 34h2M53 34h1M56 34h1M31 35h1M40 35h2M45 35h1M52 35h1M55 35h1M10 36h2M24 36h4M30 36h1M39 36h1M41 36h1M46 36h2M51 36h2M12 37h2M21 37h3M28 37h1M30 37h1M39 37h1M41 37h1M48 37h1M12 38h1M14 38h6M28 38h1M30 38h1M42 38h1M12 39h1M14 39h1M28 39h1M30 39h1M56 39h1M12 40h1M14 40h1M28 40h1M30 40h1M57 40h1M12 41h1M14 41h1M28 41h1M30 41h1M54 41h1M12 42h1M14 42h1M28 42h1M31 42h1M44 42h1M50 42h1M54 42h1M12 43h1M14 43h1M28 43h1M31 43h1M45 43h1M49 43h1M54 43h2M8 44h1M12 44h2M28 44h1M31 44h1M46 44h3M53 44h2M56 44h1M12 45h1M28 45h1M32 45h1M52 45h2M11 46h1M27 46h2M32 46h1M38 46h1M58 46h1M11 47h1M27 47h1M32 47h2M37 47h1M57 47h1M10 48h1M12 48h1M25 48h2M34 48h3M45 48h3M57 48h1M13 49h1M17 49h8M48 49h1M56 49h1M7 50h1M14 50h3M49 50h1M61 50h1M1 51h1M5 51h2M27 51h2M33 51h7M50 51h2M61 51h2M1 52h1M5 52h1M29 52h5M40 52h3M52 52h3M61 52h1M2 53h3M43 53h1M55 53h1M60 53h1M4 54h1M46 54h1M56 54h1M58 54h1M5 55h1M48 55h1M55 55h1M10 56h1M47 56h1M49 56h1M54 56h1M7 57h1M26 57h1M32 57h1M46 57h1M50 57h1M24 58h1M33 58h1M38 58h1M42 58h1M46 58h1M16 59h1M23 59h1M35 59h1" />
<path stroke="#b0e090" d="M33 7h6M33 8h10M27 9h1M29 9h1M39 9h5M28 10h3M37 10h5M21 11h3M30 11h2M35 11h8M19 12h4M31 12h4M38 12h6M20 13h4M40 13h3M27 14h4M39 14h1M41 14h1M43 14h1M26 15h5M40 15h1M42 15h1M27 16h5M24 17h1M28 17h4M24 18h7M26 19h4M24 22h2M21 23h4M19 24h2M17 25h3M18 26h7M14 27h2M18 27h4M14 28h1M17 28h5M14 29h6M16 30h3M10 32h2M51 32h2M9 33h5M51 33h1M9 34h6M13 35h3M28 35h1M28 36h2M29 37h1M29 38h1M52 38h2M51 39h1M49 40h3M46 41h6M29 42h1M46 42h3M29 43h1M11 44h1M29 44h1M55 45h2M8 46h3M55 46h2M7 47h2M10 47h1M28 47h1M55 47h1M58 47h1M7 48h1M9 48h1M27 48h2M32 48h1M58 48h2M5 49h1M8 49h2M26 49h2M31 49h3M57 49h4M2 50h1M5 50h2M8 50h2M13 50h1M17 50h1M20 50h3M29 50h3M60 50h1M3 51h2M15 51h6M11 53h1M11 54h2M14 54h1M12 55h1M15 55h2M14 56h6" />
<path stroke="#e8d8e8" d="M31 8h2M30 9h9M31 10h6M32 11h3M25 16h2M25 17h3M16 26h2M16 27h2M15 28h2M12 29h1M28 29h4M12 30h2M26 30h2M29 30h3M12 31h1M10 43h2M9 44h1M9 45h1M3 49h2M3 50h2M18 50h2M13 54h1M13 55h2" />
<path stroke="#88b868" d="M43 8h2M44 9h2M25 10h2M43 10h3M24 11h2M28 11h2M44 11h3M23 12h3M27 12h4M35 12h3M45 12h2M19 13h1M24 13h2M27 13h9M38 13h2M43 13h1M45 13h2M19 14h6M26 14h1M31 14h4M40 14h1M42 14h1M44 14h1M46 14h1M21 15h4M31 15h3M39 15h1M41 15h1M43 15h2M46 15h1M32 16h2M40 16h5M32 17h1M41 17h3M31 18h2M24 19h2M30 19h2M25 20h7M45 20h1M51 20h1M44 21h4M51 21h2M31 22h6M41 22h12M25 23h9M42 23h2M46 23h4M51 23h2M21 24h5M35 24h3M20 25h9M33 25h6M50 25h1M15 26h1M25 26h14M42 26h2M49 26h2M22 27h6M34 27h5M42 27h2M47 27h5M13 28h1M22 28h4M36 28h2M42 28h1M44 28h4M51 28h2M20 29h4M52 29h1M14 30h2M19 30h4M34 30h4M52 30h1M15 31h7M32 31h7M51 31h3M15 32h5M25 32h3M31 32h2M35 32h6M50 32h1M53 32h2M15 33h3M24 33h3M29 33h3M36 33h5M49 33h2M52 33h4M22 34h4M28 34h3M37 34h3M49 34h4M54 34h2M11 35h2M20 35h4M27 35h1M29 35h1M37 35h3M50 35h1M53 35h2M14 36h8M37 36h2M53 36h3M11 37h1M37 37h2M52 37h4M13 38h1M38 38h2M51 38h1M54 38h2M13 39h1M29 39h1M38 39h2M41 39h1M48 39h3M52 39h4M13 40h1M29 40h1M38 40h2M41 40h3M47 40h2M52 40h4M13 41h1M29 41h1M38 41h3M42 41h4M52 41h2M55 41h1M13 42h1M30 42h1M38 42h6M45 42h1M49 42h1M52 42h2M55 42h1M13 43h1M30 43h1M38 43h3M42 43h2M46 43h3M53 43h1M10 44h1M30 44h1M38 44h4M55 44h1M10 45h2M29 45h2M38 45h4M54 45h1M29 46h2M39 46h4M54 46h1M5 47h2M29 47h2M39 47h3M54 47h1M4 48h3M11 48h1M29 48h3M33 48h1M37 48h4M6 49h1M11 49h2M25 49h1M28 49h3M34 49h5M12 50h1M23 50h6M32 50h10M56 50h4M2 51h1M9 51h2M12 51h3M21 51h6M29 51h4M40 51h3M54 51h6M2 52h3M9 52h3M15 52h5M25 52h4M55 52h2M5 53h2M10 53h1M12 53h1M5 54h6M7 55h5M22 55h13M11 56h3M20 56h17M10 57h1M14 57h9" />
<path stroke="#101010" d="M46 8h1M47 9h1M48 10h1M49 11h1M50 13h1M36 14h1M48 14h1M50 14h1M35 15h1M48 15h1M35 16h1M45 16h1M48 16h1M51 16h1M34 17h1M45 17h1M47 17h1M51 17h1M45 18h1M47 18h1M33 19h1M45 19h2M23 20h1M32 20h1M39 20h1M44 20h1M24 21h2M31 21h1M41 21h3M27 22h4M47 24h3M54 24h1M54 25h1M54 26h1M28 28h4M13 29h1M26 29h2M48 29h1M54 29h1M28 30h1M46 30h2M54 30h1M13 31h1M33 33h2M32 34h3M32 35h3M56 35h1M31 36h4M56 36h1M24 37h4M31 37h4M49 37h2M56 37h1M20 38h8M31 38h4M56 38h1M15 39h13M31 39h4M15 40h9M15 41h7M57 41h1M15 42h5M57 42h1M15 43h4M57 43h1M14 44h4M57 44h1M13 45h4M57 45h1M12 46h4M57 46h1M12 47h4M59 47h1M13 48h2M60 48h1M14 49h1M61 49h1M62 52h1M44 53h2M61 53h1M47 54h1M59 54h2M4 55h1M56 55h2M5 56h2M48 56h1M55 56h1M8 57h2M11 57h3M27 57h5M40 57h2M47 57h1M51 57h3M14 58h2M25 58h1M34 58h1M39 58h1M43 58h3M17 59h6M36 59h2" />
<path stroke="#808898" d="M11 29h1M11 30h1M24 41h4M31 41h3M32 42h3M33 43h2M33 44h2M33 45h2M33 46h2M17 47h2M24 47h3M16 48h9M16 49h1" />
<path stroke="#404858" d="M24 40h4M31 40h4M22 41h2M34 41h1M20 42h2M35 42h1M19 43h1M35 43h1M18 44h1M35 44h1M17 45h1M35 45h1M16 46h1M35 46h1M16 47h1M15 48h1M15 49h1" />
<path stroke="#a8b0b8" d="M22 42h6M20 43h8M32 43h1M19 44h9M32 44h1M18 45h10M17 46h10M19 47h5" />
</svg>