<svg xmlns="http://www.w3.org/2000/svg" viewBox="0 -0.5 96 96" shape-rendering="crispEdges">
<metadata>Made with Pixels to Svg https://codepen.io/shshaw/pen/XbxvNj</metadata>
<path stroke="#000000" d="M43 22h2M43 23h1M45 23h1M50 23h2M23 24h3M43 24h1M45 24h1M50 24h1M69 24h2M21 25h2M44 25h1M46 25h1M50 25h1M52 25h1M71 25h2M20 26h2M45 26h2M50 26h1M52 26h1M73 26h1M20 27h1M46 27h1M51 27h2M74 27h1M19 28h1M46 28h1M51 28h2M74 28h1M19 29h1M47 29h1M52 29h1M75 29h1M19 30h1M47 30h1M52 30h1M75 30h1M19 31h1M40 31h1M47 31h1M53 31h1M75 31h1M19 32h1M41 32h1M48 32h1M53 32h1M75 32h1M19 33h1M48 33h1M53 33h1M75 33h1M19 34h1M48 34h1M53 34h1M75 34h1M19 35h1M43 35h1M49 35h1M53 35h1M75 35h1M19 36h1M49 36h1M53 36h1M74 36h1M19 37h1M44 37h1M49 37h1M53 37h1M74 37h1M20 38h1M49 38h1M53 38h1M74 38h1M20 39h1M45 39h1M49 39h1M53 39h1M73 39h1M20 40h1M45 40h1M49 40h1M52 40h1M73 40h1M21 41h1M49 41h1M52 41h1M73 41h1M21 42h1M52 42h1M72 42h1M22 43h1M72 43h1M22 44h1M71 44h1M23 45h1M71 45h1M23 46h1M70 46h1M23 47h1M70 47h1M24 48h1M42 48h1M59 48h1M69 48h1M24 49h1M42 49h1M59 49h1M69 49h1M25 50h1M43 50h1M52 50h1M59 50h1M68 50h1M25 51h1M43 51h1M53 51h1M58 51h1M68 51h1M26 52h1M44 52h1M54 52h3M58 52h1M67 52h1M27 53h1M45 53h1M57 53h1M66 53h1M27 54h1M55 54h2M64 54h2M28 55h1M54 55h1M61 55h3M29 56h2M54 56h6M31 57h3M41 57h1M55 57h1M61 57h1M31 58h1M33 58h6M55 58h1M62 58h1M30 59h1M42 59h1M55 59h1M62 59h1M30 60h1M54 60h1M63 60h1M29 61h1M41 61h1M43 61h1M54 61h1M63 61h1M29 62h1M44 62h1M53 62h1M63 62h1M29 63h1M45 63h1M51 63h2M63 63h1M29 64h1M44 64h1M47 64h4M63 64h1M29 65h1M44 65h1M48 65h1M63 65h1M30 66h1M44 66h1M48 66h1M52 66h1M62 66h1M30 67h1M62 67h1M31 68h1M43 68h1M53 68h1M61 68h1M31 69h1M42 69h1M53 69h3M60 69h1M32 70h1M39 70h3M53 70h1M56 70h4M33 71h2M38 71h1M52 71h1M35 72h3" />
<path stroke="#5a4a73" d="M44 23h1M26 24h2M51 24h1M66 24h3M64 25h1M25 26h1M62 26h1M27 27h1M61 27h1M71 27h1M23 28h2M28 28h1M60 28h1M70 28h1M26 29h1M29 29h1M38 29h1M68 29h1M27 30h1M30 30h1M39 30h1M67 30h1M71 30h1M28 31h1M66 31h1M69 31h1M29 32h1M57 32h1M68 32h1M42 33h1M42 34h1M43 36h1M23 37h1M25 38h2M44 38h1M71 38h1M28 39h3M69 39h1M53 40h2M66 40h2M23 41h1M55 41h2M62 41h4M49 42h1M52 43h1M25 44h3M54 44h3M29 45h4M67 45h2M34 46h8M52 46h1M65 46h2M25 47h1M60 47h4M68 47h1M43 48h1M48 48h1M36 49h6M44 49h1M51 49h1M28 50h7M44 50h1M51 50h1M65 50h2M51 51h2M59 51h5M41 52h2M45 52h3M50 52h4M57 52h1M39 53h2M46 53h11M36 54h2M47 54h8M34 55h1M47 55h5M60 55h1M48 56h5M40 57h1M49 57h3M39 58h3M44 58h1M50 58h2M56 58h1M37 59h5M44 59h1M50 59h2M56 59h2M36 60h7M44 60h1M50 60h2M55 60h4M35 61h6M44 61h2M49 61h3M55 61h4M33 62h1M36 62h4M45 62h8M55 62h5M32 63h1M37 63h2M46 63h5M53 63h1M55 63h7M36 64h1M54 64h1M56 64h4M35 65h1M54 65h1M57 65h2M35 66h1M54 66h1M57 66h1M34 67h1M55 67h1M58 67h1M34 68h1M55 68h1M58 68h1" />
<path stroke="#7362ac" d="M28 24h2M30 25h3M65 25h1M33 26h2M63 26h1M35 27h2M37 28h1M54 41h1M54 42h3M54 43h4M53 44h1M57 44h1M47 45h1M52 45h1M58 45h1M47 46h5M46 47h6M44 48h1M49 48h3M43 49h1M50 49h1M44 51h1M45 54h1M44 55h3M44 56h2M43 57h2M43 58h1M43 59h1" />
<path stroke="#313152" d="M44 24h1M23 25h3M45 25h1M51 25h1M69 25h2M22 26h3M51 26h1M70 26h3M21 27h3M72 27h2M20 28h3M72 28h2M20 29h2M59 29h1M72 29h3M20 30h2M58 30h1M73 30h2M20 31h2M31 31h2M57 31h1M73 31h2M20 32h2M30 32h5M63 32h3M73 32h2M20 33h2M29 33h8M56 33h1M61 33h6M73 33h2M20 34h2M29 34h4M35 34h3M55 34h1M60 34h8M73 34h2M20 35h2M29 35h3M37 35h2M55 35h1M59 35h2M64 35h4M73 35h2M20 36h3M29 36h3M38 36h2M54 36h1M58 36h2M65 36h3M72 36h2M20 37h3M30 37h2M39 37h1M54 37h1M58 37h1M65 37h2M72 37h2M21 38h3M30 38h3M40 38h1M57 38h1M64 38h3M72 38h2M21 39h2M31 39h3M40 39h2M48 39h1M50 39h3M57 39h1M63 39h3M71 39h2M21 40h2M33 40h3M41 40h1M46 40h2M56 40h1M62 40h2M71 40h2M22 41h1M35 41h3M42 41h1M44 41h2M61 41h1M71 41h2M22 42h2M37 42h3M42 42h3M57 42h1M60 42h1M70 42h2M23 43h2M39 43h2M58 43h2M70 43h2M23 44h2M40 44h2M58 44h1M69 44h2M24 45h1M59 45h1M69 45h2M24 46h1M59 46h1M69 46h1M24 47h1M59 47h1M69 47h1M25 48h1M68 48h1M25 49h2M49 49h1M68 49h1M26 50h2M45 50h1M50 50h1M67 50h1M26 51h2M46 51h2M50 51h1M66 51h2M27 52h1M49 52h1M65 52h2M28 53h1M64 53h2M28 54h2M44 54h1M46 54h1M63 54h1M29 55h5M43 55h1M52 55h2M31 56h2M43 56h1M46 56h2M53 56h1M42 57h1M47 57h2M52 57h1M59 57h2M32 58h1M42 58h1M49 58h1M60 58h2M31 59h2M48 59h2M52 59h1M61 59h1M31 60h1M43 60h1M45 60h1M49 60h1M61 60h2M30 61h2M46 61h3M52 61h2M62 61h1M30 62h2M41 62h1M62 62h1M30 63h2M40 63h1M44 63h1M62 63h1M30 64h2M39 64h1M51 64h1M62 64h1M30 65h2M39 65h1M51 65h1M61 65h2M31 66h2M38 66h1M61 66h1M31 67h2M38 67h1M43 67h1M48 67h1M52 67h1M60 67h2M32 68h2M38 68h1M49 68h1M59 68h2M32 69h3M38 69h1M49 69h1M56 69h4M33 70h3M50 70h1M35 71h3M51 71h1" />
<path stroke="#ffeeee" d="M26 25h4M66 25h2M27 26h6M64 26h6M24 27h2M28 27h7M62 27h9M26 28h2M29 28h8M61 28h8M71 28h1M23 29h2M27 29h2M30 29h8M60 29h8M70 29h2M22 30h5M28 30h2M31 30h8M59 30h8M68 30h2M22 31h6M29 31h2M34 31h6M58 31h8M67 31h2M71 31h2M22 32h7M36 32h5M58 32h4M66 32h2M69 32h4M22 33h7M37 33h5M57 33h4M68 33h5M22 34h7M33 34h2M38 34h4M56 34h4M68 34h5M23 35h6M32 35h5M39 35h4M56 35h3M61 35h3M68 35h5M24 36h5M32 36h6M40 36h3M55 36h3M60 36h5M68 36h4M25 37h4M32 37h7M40 37h4M55 37h3M59 37h6M68 37h3M27 38h3M33 38h6M41 38h3M54 38h3M59 38h5M67 38h3M23 39h4M34 39h6M42 39h3M54 39h2M58 39h5M66 39h2M70 39h1M24 40h9M36 40h5M44 40h1M60 40h2M64 40h2M68 40h3M24 41h11M38 41h3M66 41h4M25 42h12M63 42h7M26 43h13M64 43h5M28 44h11M65 44h3M25 45h3M34 45h5M65 45h2M26 46h7M67 46h2M26 47h12M66 47h2M27 48h11M66 48h2M29 49h6M66 49h1M36 50h2M28 51h10M45 51h1M29 52h10M48 52h1M29 53h9M31 54h4M35 55h4M33 56h7M35 57h5M33 60h3M32 61h2M32 62h1M35 62h1M33 63h4M32 64h4M33 65h2M36 65h2M33 66h2M36 66h2M35 67h3M35 68h3M35 69h3M36 70h2" />
<path stroke="#8383bd" d="M68 25h1M26 26h1M26 27h1M25 28h1M69 28h1M22 29h1M25 29h1M70 30h1M72 30h1M33 31h1M35 32h1M62 32h1M67 33h1M22 35h1M23 36h1M24 37h1M29 37h1M67 37h1M24 38h1M39 38h1M58 38h1M70 38h1M27 39h1M68 39h1M23 40h1M48 40h1M50 40h2M47 41h2M50 41h2M53 41h1M70 41h1M24 42h1M48 42h1M50 42h2M53 42h1M61 42h1M25 43h1M48 43h4M53 43h1M69 43h1M48 44h5M68 44h1M28 45h1M48 45h4M25 46h1M33 46h1M64 46h1M26 48h1M27 49h2M67 49h1M35 50h1M64 50h1M28 52h1M38 53h1M30 54h1M35 54h1M38 54h1M62 54h1M59 55h1M42 56h1M34 57h1M33 59h1M32 60h1M34 62h1M32 65h1M33 67h1" />
<path stroke="#e6b4bd" d="M69 29h1M70 31h1M71 37h1M56 39h1M42 40h2M55 40h1M57 40h3M41 41h1M43 41h1M57 41h4M40 42h2M58 42h2M62 42h1M41 43h2M60 43h4M39 44h1M59 44h6M33 45h1M39 45h3M60 45h5M60 46h4M38 47h4M64 47h2M38 48h4M60 48h6M35 49h1M60 49h6M38 50h5M60 50h4M38 51h5M64 51h2M39 52h2M43 52h1M59 52h6M41 53h4M58 53h6M39 54h5M57 54h5M39 55h4M55 55h4M40 56h2M56 57h3M57 58h3M34 59h3M58 59h3M59 60h2M34 61h1M59 61h3M54 62h1M60 62h2M39 63h1M54 63h1M37 64h2M52 64h2M55 64h1M60 64h2M38 65h1M52 65h2M55 65h2M59 65h2M53 66h1M55 66h2M58 66h3M53 67h2M56 67h2M59 67h1M54 68h1M56 68h2M38 70h1" />
<path stroke="#316239" d="M46 41h1M47 42h1M43 43h1M47 43h1M42 44h1M47 44h1M42 45h1M53 45h1M57 45h1M42 46h1M46 46h1M58 46h1M42 47h1M45 47h1M52 49h1M58 50h1M57 51h1" />
<path stroke="#20d518" d="M45 42h2M43 44h1M43 45h1M46 45h1M56 45h1M43 46h3M56 46h2M43 47h2M52 47h1M56 47h3M52 48h1M55 48h4M53 49h6M53 50h5M54 51h3" />
<path stroke="#73ee73" d="M44 43h1M46 43h1M46 44h1M54 45h2M53 46h1" />
<path stroke="#9cff9c" d="M45 43h1M44 44h2M44 45h2M54 46h2M53 47h3M53 48h2" />
<path stroke="#de5262" d="M45 48h1M47 48h1M49 50h1M48 51h2M45 57h1M53 57h2M52 58h3M53 59h2M52 60h2M42 61h1M42 62h2M41 63h3M40 64h1M42 64h2M43 65h1M49 65h2M39 66h1M49 66h3M49 67h3M42 68h1M52 68h1M39 69h1M52 70h1" />
<path stroke="#f68b83" d="M46 48h1M45 49h4M46 50h3M46 57h1M45 58h4M45 59h3M46 60h3M41 64h1M40 65h3M40 66h4M39 67h4M39 68h3M50 68h2M40 69h2M50 69h3M51 70h1" />
<path stroke="#bd8b94" d="M40 62h1" />
</svg>