<svg xmlns="http://www.w3.org/2000/svg" viewBox="0 -0.5 96 96" shape-rendering="crispEdges">
<metadata>Made with Pixels to Svg https://codepen.io/shshaw/pen/XbxvNj</metadata>
<path stroke="#521010" d="M45 16h4M43 17h2M47 17h1M41 18h2M40 19h1M39 20h1M61 20h9M39 21h1M58 21h3M70 21h2M38 22h1M56 22h2M68 22h1M38 23h1M55 23h1M66 23h1M38 24h1M42 24h7M54 24h1M39 25h2M54 25h1M53 26h1M53 27h1M64 28h2M61 29h1M66 29h1M41 30h2M58 30h1M39 32h3M34 33h1M43 33h1M45 33h1M32 34h3M44 34h1M60 34h2M31 35h1M34 35h1M40 35h1M43 35h1M56 35h2M62 35h1M31 36h1M41 36h2M62 36h1M62 37h1M32 38h1M61 39h1M33 40h1M58 43h1M57 44h1M33 47h1M32 49h1M31 50h1M30 55h1M46 56h1M58 56h1M46 57h1M46 58h1M46 59h1M57 59h1M38 60h1M40 61h3M47 61h1M56 61h1M35 62h1M48 62h1M37 63h1M49 63h2M39 64h1M51 64h1M38 65h1M37 66h1M42 66h1M35 67h2M33 68h2M57 68h1M31 69h1M52 69h1M30 70h1M32 70h1M35 70h1M52 70h1M31 71h1M34 71h1M52 71h1M34 72h1M51 72h1M51 73h1M51 74h1M53 74h1M55 74h1M57 74h1M51 75h1" />
<path stroke="#8b6210" d="M45 17h2M43 18h3M41 19h3M40 20h3M40 21h2M61 21h9M39 22h3M58 22h7M39 23h2M56 23h5M39 24h2M55 24h4M56 25h2M64 26h1M12 27h1M57 27h1M11 28h1M13 28h1M36 28h1M66 28h1M10 29h1M13 29h1M67 29h1M10 30h1M14 30h1M57 30h1M67 30h1M10 31h1M14 31h1M66 31h1M11 32h1M15 32h1M34 32h1M11 33h1M15 33h1M11 34h1M16 34h1M11 35h1M16 35h1M21 35h1M32 35h2M59 35h2M12 36h1M17 36h1M20 36h1M32 36h3M57 36h5M12 37h1M18 37h1M20 37h1M32 37h1M56 37h5M12 38h1M19 38h1M22 38h1M58 38h2M12 39h1M13 40h1M23 41h1M24 44h1M20 46h1M25 46h1M20 47h1M20 48h1M26 48h1M20 49h1M20 50h1M27 52h1M28 53h1M35 68h1M33 69h5M31 70h1M34 70h1M36 70h2M53 70h1M56 70h2M32 71h2M35 71h1M53 71h5M52 72h6M52 73h1M54 73h1M57 73h1M54 74h1M56 74h1" />
<path stroke="#000000" d="M46 18h1M45 19h1M45 20h1M44 21h1M44 22h1M69 22h1M44 23h1M67 23h1M39 26h1M38 27h1M40 27h1M38 28h2M49 28h2M53 28h1M48 29h1M50 29h2M53 29h1M62 29h1M48 30h4M54 30h1M59 30h2M49 31h2M55 31h3M56 32h1M44 33h1M56 33h1M56 34h1M62 38h1M32 39h1M61 40h1M33 41h1M60 41h1M59 42h1M34 43h1M57 45h1M57 46h1M21 47h1M57 47h1M22 48h1M58 48h1M58 49h1M24 50h1M58 50h1M25 51h1M62 51h4M26 52h1M59 52h3M67 52h1M70 52h1M27 53h1M29 53h1M59 53h1M69 53h1M71 53h1M29 54h1M59 54h1M71 54h1M59 55h1M72 55h1M30 56h1M72 56h1M30 57h1M58 57h1M72 57h1M31 58h1M58 58h1M72 58h1M31 59h1M72 59h1M32 60h1M57 60h1M71 60h1M33 61h1M57 61h2M70 61h1M34 62h1M42 62h6M56 62h1M59 62h2M68 62h2M36 63h1M42 63h1M56 63h1M61 63h7M38 64h1M43 64h1M52 64h1M56 64h1M43 65h1M52 65h1M57 65h1M52 66h1M57 66h1M42 67h1M52 67h1M57 67h1M41 68h1M52 68h1M41 69h1M58 69h1M40 70h1M58 70h1M30 71h1M38 71h2M58 71h1M31 72h1M36 72h2M58 72h1M32 73h4M58 73h1M53 75h1M55 75h1M57 75h1M52 76h5" />
<path stroke="#734131" d="M44 19h1M43 20h2M42 21h2M42 22h2M41 23h3M61 23h1M41 24h1M59 24h1M65 24h1M55 25h1M58 25h1M64 25h1M54 26h4M54 27h3M65 27h1M54 28h3M63 28h1M35 29h1M54 29h3M55 30h2M66 30h1M34 31h1M64 31h2M59 34h1M22 35h1M58 35h1M61 35h1M22 36h1M56 36h1M22 37h1M31 37h1M61 37h1M60 38h2M23 39h1M59 39h2M23 40h1M60 40h1M13 41h1M13 42h1M24 42h1M14 43h1M24 43h1M14 44h1M15 45h1M25 45h1M15 46h1M16 47h1M26 47h1M16 48h1M17 49h1M23 49h1M27 49h1M18 50h1M27 50h1M19 51h1M28 51h1M29 52h1M32 69h1M57 69h1M33 70h1M38 70h1M36 71h2M32 72h2M35 72h1M53 73h1M55 73h2M52 74h1M52 75h1M54 75h1M56 75h1" />
<path stroke="#bda45a" d="M65 22h3M62 23h4M60 24h3M59 25h2M58 26h2M63 26h1M58 27h2M57 28h2M57 29h2M13 30h1M14 32h1M36 32h1M15 34h1M52 35h1M15 36h1M21 36h1M50 36h3M14 37h1M16 37h1M21 37h1M50 37h2M13 38h1M15 38h1M17 38h2M20 38h2M13 39h2M16 39h1M18 39h5M14 40h9M14 41h9M14 42h10M15 43h9M15 44h9M16 45h9M16 46h4M21 46h4M17 47h3M22 47h4M17 48h3M23 48h3M18 49h2M24 49h3M19 50h1M25 50h2M26 51h2M28 52h1" />
<path stroke="#942920" d="M49 24h1M41 25h1M50 25h2M38 26h1M40 26h1M52 26h1M37 27h1M42 32h1M35 37h1M54 37h2M35 38h1M52 38h2M51 39h1M34 42h1M34 44h1M56 44h1M34 45h1M33 46h1M33 48h1M57 48h1M56 49h2M54 50h4M31 51h1M58 51h1M30 52h1M30 53h1M58 53h1M30 54h1M55 54h4M46 55h1M56 55h3M36 58h1M37 59h1M39 60h1M47 60h1M53 65h1M56 65h1" />
<path stroke="#decd83" d="M63 24h2M61 25h3M60 26h3M60 27h5M12 28h1M59 28h4M11 29h2M36 29h1M59 29h2M11 30h2M36 30h1M11 31h3M35 31h2M12 32h2M35 32h1M12 33h3M35 33h1M49 33h3M12 34h3M48 34h5M12 35h4M48 35h4M13 36h2M16 36h1M48 36h2M13 37h1M15 37h1M17 37h1M14 38h1M16 38h1M15 39h1M17 39h1" />
<path stroke="#f67b20" d="M42 25h7M41 26h11M41 27h12M40 28h8M52 28h1M37 29h11M52 29h1M37 30h4M43 30h5M52 30h2M37 31h1M39 31h9M52 31h2M37 32h2M43 32h3M47 32h7M36 33h3M46 33h3M52 33h1M35 34h4M45 34h3M35 35h5M44 35h4M36 36h5M43 36h5M36 37h14M36 38h15M54 38h3M37 39h13M53 39h6M37 40h21M36 41h2M43 41h14M35 42h2M44 42h12M35 43h1M45 43h10M46 44h7M47 45h6M47 46h6M48 47h6M48 48h6M48 49h6M32 50h1M48 50h5M32 51h1M49 51h5M31 52h2M48 52h7M31 53h3M48 53h7M31 54h3M47 54h7M31 55h3M47 55h8M31 56h3M47 56h8M31 57h2M35 57h1M47 57h8M45 58h1M47 58h7M38 59h2M43 59h1M48 59h5M38 66h1M37 67h3M53 67h3M36 68h4M53 68h4M39 69h1M53 69h4" />
<path stroke="#de4a31" d="M49 25h1M37 28h1M48 28h1M51 28h1M35 30h1M48 31h1M51 31h1M54 31h1M54 32h2M39 33h1M53 33h3M39 34h1M53 34h3M53 35h3M35 36h1M53 36h3M34 37h1M52 37h2M33 38h2M51 38h1M33 39h4M50 39h1M52 39h1M34 40h3M58 40h1M34 41h2M57 41h3M56 42h3M55 43h3M53 44h3M53 45h4M53 46h4M54 47h3M54 48h3M54 49h1M48 51h1M54 51h4M55 52h4M55 53h2M55 55h1M34 56h1M55 56h3M33 57h2M55 57h3M32 58h4M54 58h4M32 59h5M44 59h2M47 59h1M53 59h4M33 60h3M40 60h7M48 60h8M45 61h2M49 61h6M50 62h3M39 65h3M39 66h3M53 66h3M40 67h2M56 67h1M40 68h1M38 69h1M40 69h1M54 70h2" />
<path stroke="#ffe6d5" d="M39 27h1M49 29h1M39 41h3M37 42h7M36 43h9M36 44h10M35 45h11M35 46h12M35 47h12M34 48h14M34 49h14M34 50h14M34 51h14M34 52h13M34 53h13M35 54h11M35 55h11M35 56h11M36 57h10M39 58h6" />
<path stroke="#bd3920" d="M38 31h1M46 32h1M33 37h1M57 38h1M59 40h1M55 49h1M53 50h1M47 52h1M47 53h1M57 53h1M46 54h1M54 54h1M36 60h2M56 60h1M34 61h6M43 61h2M48 61h1M55 61h1M36 62h6M49 62h1M53 62h3M38 63h4M51 63h5M40 64h3M53 64h3M42 65h1M54 65h2M56 66h1M39 70h1" />
<path stroke="#bd1808" d="M40 33h3M40 34h4M41 35h2" />
<path stroke="#ffb47b" d="M38 41h1M42 41h1M35 44h1M46 45h1M34 46h1M34 47h1M47 47h1M33 49h1M33 50h1M33 51h1M33 52h1M34 54h1M34 55h1M37 58h2M40 59h3" />
<path stroke="#62626a" d="M61 50h7M59 51h3M67 51h2M69 52h1M70 53h1M70 54h1M70 55h2M71 56h1" />
<path stroke="#393941" d="M66 51h1M69 51h1M68 52h1M71 57h1M71 58h1M58 59h2M70 59h2M58 60h3M69 60h2M59 61h4M67 61h3M61 62h7" />
</svg>