<svg xmlns="http://www.w3.org/2000/svg" viewBox="0 -0.5 96 96" shape-rendering="crispEdges">
<metadata>Made with Pixels to Svg https://codepen.io/shshaw/pen/XbxvNj</metadata>
<path stroke="#414a29" d="M18 18h3M35 18h3M16 19h2M21 19h1M34 19h1M38 19h2M15 20h1M34 20h1M40 20h2M14 21h1M35 21h1M42 21h1M13 22h1M35 22h1M13 23h1M17 23h1M13 24h3M34 24h1M42 24h2M19 25h1M32 26h1M15 27h1M39 27h1M14 28h1M35 28h1M43 28h1M17 29h2M27 29h1M37 29h1M43 29h1M13 30h1M16 30h1M31 30h1M33 30h1M44 30h1M13 31h3M34 31h1M42 31h1M13 32h2M36 32h1M42 32h1M14 33h1M37 33h1M41 33h1M45 33h1M37 34h4M50 34h2M49 37h4M54 37h4M46 38h4M58 38h3M62 38h1M33 39h1M37 39h1M49 39h1M68 39h1M25 40h2M34 40h3M69 40h1M69 41h1M71 41h1M60 42h1M65 42h1M68 42h1M72 42h2M75 42h3M52 43h1M55 43h2M61 43h1M70 43h1M78 43h1M50 44h2M57 44h1M62 44h2M69 44h1M59 45h1M64 45h5M60 46h1M70 46h4M79 46h2M60 47h1M69 47h1M74 47h2M79 47h2M61 48h1M76 48h1M80 48h1M61 49h1M79 49h1M62 50h1M63 51h1M79 51h2M42 52h1M63 52h1M79 52h2M25 53h3M42 53h1M64 53h1M79 53h1M24 54h1M28 54h1M37 54h3M46 54h1M65 54h1M79 54h1M36 55h1M40 55h1M46 55h1M48 55h1M66 55h1M41 56h1M47 56h1M67 56h2M40 57h1M46 57h1M61 57h1M69 57h2M16 58h1M40 58h1M45 58h1M52 58h1M71 58h2M80 58h1M16 59h1M39 59h1M51 59h1M62 59h2M80 59h1M15 60h1M17 60h1M38 60h1M51 60h1M15 61h1M18 61h1M36 61h2M15 62h1M18 62h2M34 62h2M51 62h7M20 63h2M31 63h3M58 63h3M22 64h8M61 64h2M51 65h6M63 65h1M49 66h2M57 66h3M20 67h1M60 67h3M23 68h1M51 68h6M57 69h2" />
<path stroke="#6a6a4a" d="M18 19h3M35 19h3M16 20h4M23 20h8M35 20h5M15 21h3M20 21h14M36 21h6M14 22h2M18 22h17M37 22h6M14 23h1M16 23h1M20 23h17M39 23h4M16 24h1M20 24h12M35 24h4M41 24h1M15 25h2M20 25h12M35 25h6M15 26h17M35 26h8M18 27h19M40 27h3M18 28h15M36 28h1M40 28h3M13 29h2M28 29h5M36 29h1M40 29h3M14 30h2M32 30h1M36 30h7M35 31h7M37 32h5M38 33h3M47 34h3M47 35h5M47 36h6M47 37h2M53 38h1M55 38h3M47 39h1M53 39h1M55 39h5M61 39h1M53 40h1M55 40h7M54 41h9M49 42h1M52 42h1M55 42h5M61 42h4M69 42h1M71 42h1M50 43h2M57 43h4M62 43h8M71 43h3M75 43h3M58 44h4M64 44h5M70 44h5M76 44h3M55 45h1M60 45h4M69 45h7M77 45h3M55 46h1M61 46h9M74 46h3M78 46h1M55 47h1M61 47h8M70 47h4M76 47h2M54 48h1M62 48h6M69 48h4M77 48h2M54 49h1M62 49h6M69 49h3M77 49h2M53 50h1M63 50h5M69 50h3M78 50h2M64 51h4M69 51h3M78 51h1M64 52h5M70 52h2M47 53h1M65 53h4M70 53h3M81 53h1M49 54h1M66 54h4M71 54h2M81 54h1M47 55h1M67 55h4M80 55h2M46 56h1M48 56h1M59 56h1M69 56h4M80 56h3M44 57h1M47 57h3M53 57h1M60 57h1M68 57h1M71 57h2M80 57h3M46 58h6M69 58h2M81 58h2M43 59h1M45 59h6M66 59h1M68 59h1M70 59h3M81 59h2M44 60h7M64 60h2M67 60h1M69 60h5M81 60h1M42 61h1M44 61h6M64 61h3M68 61h6M41 62h1M43 62h7M65 62h9M40 63h2M43 63h6M50 63h8M65 63h5M72 63h2M39 64h2M42 64h3M47 64h1M49 64h12M65 64h3M37 65h3M49 65h2M57 65h6M34 66h5M51 66h6M60 66h4M31 67h6M49 67h11M24 68h10M49 68h2M57 68h4M51 69h6" />
<path stroke="#181818" d="M23 19h8M20 20h3M31 20h3M18 21h2M34 21h1M16 22h2M36 22h1M43 22h1M15 23h1M18 23h2M37 23h2M43 23h1M17 24h3M32 24h2M39 24h2M14 25h1M17 25h2M32 25h3M41 25h2M13 26h2M33 26h2M43 26h1M13 27h2M16 27h2M37 27h2M43 27h1M12 28h2M15 28h3M33 28h2M37 28h3M44 28h1M12 29h1M15 29h2M19 29h8M33 29h3M38 29h2M44 29h1M12 30h1M17 30h2M27 30h4M34 30h2M45 30h1M12 31h1M16 31h1M31 31h3M45 31h1M12 32h1M15 32h1M34 32h2M45 32h1M13 33h1M15 33h1M22 33h1M29 33h1M36 33h1M46 33h4M14 34h2M22 34h1M29 34h1M46 34h1M15 35h2M21 35h1M30 35h1M35 35h1M38 35h1M46 35h1M52 35h1M16 36h3M31 36h4M38 36h1M46 36h1M53 36h1M19 37h2M38 37h1M46 37h1M53 37h1M62 37h5M21 38h2M38 38h1M54 38h1M61 38h1M63 38h6M23 39h1M38 39h1M54 39h1M60 39h1M62 39h6M69 39h1M24 40h1M39 40h1M47 40h1M54 40h1M62 40h7M70 40h1M25 41h1M39 41h1M47 41h1M53 41h1M63 41h6M70 41h1M25 42h1M39 42h1M48 42h1M53 42h2M66 42h2M70 42h1M26 43h1M40 43h1M49 43h1M54 43h1M74 43h1M26 44h1M40 44h1M54 44h1M75 44h1M79 44h1M26 45h1M41 45h1M76 45h1M80 45h1M27 46h1M41 46h1M77 46h1M81 46h1M27 47h1M42 47h1M78 47h1M81 47h1M27 48h1M42 48h1M68 48h1M75 48h1M79 48h1M81 48h1M26 49h1M42 49h1M68 49h1M76 49h1M80 49h1M26 50h1M42 50h1M68 50h1M77 50h1M80 50h1M18 51h3M25 51h1M42 51h1M68 51h1M77 51h1M81 51h1M17 52h1M21 52h1M24 52h1M69 52h1M78 52h1M81 52h1M16 53h1M21 53h1M23 53h2M32 53h3M69 53h1M78 53h1M80 53h1M82 53h1M16 54h1M21 54h2M31 54h1M35 54h1M41 54h1M70 54h1M80 54h1M82 54h1M16 55h1M21 55h1M30 55h1M35 55h1M41 55h1M45 55h1M71 55h2M79 55h1M82 55h1M16 56h1M22 56h1M30 56h1M35 56h1M45 56h1M79 56h1M83 56h1M16 57h1M22 57h1M30 57h1M35 57h1M45 57h1M83 57h1M17 58h1M30 58h1M36 58h1M44 58h1M62 58h1M83 58h1M17 59h1M30 59h1M44 59h1M83 59h1M31 60h1M43 60h1M63 60h1M82 60h1M31 61h1M43 61h1M50 61h1M63 61h1M82 61h1M42 62h1M50 62h1M64 62h1M82 62h1M16 63h1M42 63h1M49 63h1M64 63h1M16 64h1M41 64h1M48 64h1M64 64h1M17 65h1M40 65h1M48 65h1M64 65h1M18 66h1M39 66h1M48 66h1M64 66h1M19 67h1M37 67h2M21 68h2M34 68h3M24 69h10" />
<path stroke="#a44173" d="M19 30h8M17 31h14M22 32h5M29 32h1M33 32h1M24 33h5M35 33h1M23 34h6M36 34h1M22 35h8M37 35h1M20 36h11M35 36h3M21 37h2M27 37h7M28 38h5M28 39h5M27 40h7M37 40h2M26 41h1M28 41h9M38 41h1M29 42h8M30 43h7M30 44h7M31 45h8M31 46h7M32 47h6M32 48h7M32 49h7M31 50h8M31 51h3M39 51h1M30 52h2M28 53h1M40 53h1M24 57h1M23 58h1M22 59h1M22 60h1M23 61h1M24 62h3" />
<path stroke="#949c62" d="M43 30h1M43 31h2M32 32h1M43 32h2M34 33h1M42 33h3M41 34h5M39 35h7M39 36h7M39 37h7M39 38h7M39 39h8M40 40h7M40 41h7M40 42h8M41 43h8M53 43h1M41 44h9M52 44h2M55 44h2M42 45h13M56 45h3M42 46h13M56 46h4M43 47h12M56 47h4M43 48h11M55 48h6M43 49h11M55 49h6M43 50h10M54 50h8M43 51h20M20 52h1M43 52h20M43 53h4M48 53h16M34 54h1M42 54h4M47 54h2M50 54h15M42 55h3M49 55h17M42 56h3M49 56h10M60 56h7M41 57h3M50 57h3M54 57h6M62 57h6M41 58h3M53 58h9M63 58h6M40 59h3M52 59h10M64 59h2M67 59h1M69 59h1M16 60h1M39 60h4M52 60h11M66 60h1M68 60h1M16 61h2M38 61h4M51 61h12M67 61h1M16 62h2M36 62h5M58 62h6M17 63h3M34 63h6M61 63h3M17 64h5M30 64h9M63 64h1M18 65h19M19 66h15M21 67h10" />
<path stroke="#6a204a" d="M16 32h1M20 32h2M27 32h2M23 33h1M36 35h1M19 36h1M23 37h1M37 37h1M52 38h1M27 39h1M52 39h1M52 40h1M27 41h1M37 41h1M48 41h1M52 41h1M28 42h1M37 42h1M51 42h1M29 43h1M37 43h1M29 44h1M37 44h1M30 45h1M30 46h1M38 46h1M31 47h1M38 47h1M31 48h1M39 48h1M31 49h1M39 49h1M30 50h1M39 50h1M30 51h1M40 51h1M29 52h1M40 52h1M40 54h1M22 58h1M38 58h1M21 59h1M36 59h2M18 60h3M36 60h1M35 61h1M32 62h2" />
<path stroke="#cdd5b4" d="M17 32h3M30 32h2M16 33h6M30 33h4M18 34h4M32 34h4M20 35h1M34 35h1M24 37h3M34 37h3M23 38h5M33 38h5M24 39h3M34 39h3M21 56h1M17 57h1M20 57h2M18 58h4M35 58h1M18 59h3M31 59h1M34 59h2M32 60h4M32 61h3" />
<path stroke="#ffffff" d="M16 34h2M30 34h2M17 35h3M31 35h3M18 52h2M17 53h4M17 54h4M25 54h3M32 54h2M17 55h4M24 55h5M31 55h4M37 55h3M17 56h4M25 56h3M31 56h4M36 56h5M18 57h2M31 57h4M37 57h3M31 58h4M32 59h2" />
<path stroke="#e64120" d="M50 38h2M48 39h1M50 39h2M48 40h4M49 41h3M50 42h1" />
<path stroke="#e67394" d="M26 42h2M38 42h1M27 43h2M38 43h2M27 44h2M38 44h2M27 45h3M39 45h2M28 46h2M39 46h2M28 47h3M39 47h3M28 48h3M40 48h2M27 49h4M40 49h2M27 50h3M40 50h2M26 51h4M34 51h5M41 51h1M25 52h4M32 52h8M41 52h1M29 53h3M35 53h5M41 53h1M23 54h1M29 54h2M36 54h1M22 55h2M29 55h1M23 56h2M28 56h2M23 57h1M25 57h5M36 57h1M24 58h6M37 58h1M39 58h1M23 59h7M38 59h1M21 60h1M23 60h8M37 60h1M19 61h4M24 61h7M20 62h4M27 62h5M22 63h9" />
<path stroke="#eed594" d="M73 48h2M72 49h1M74 49h2M72 50h5M72 51h2M75 51h2M73 52h5M73 53h5M73 54h6M74 55h5M74 56h5M74 57h5M74 58h6M74 59h6M75 60h2M78 60h2M75 61h6M75 62h4M80 62h2M15 63h1M75 63h2M78 63h5M15 64h1M75 64h9M15 65h2M75 65h11M14 66h4M74 66h7M82 66h5M14 67h2M17 67h2M44 67h3M72 67h4M77 67h11M13 68h1M15 68h6M38 68h9M64 68h1M66 68h16M83 68h3M13 69h11M35 69h13M62 69h14M77 69h1M79 69h4M14 70h5M20 70h48M69 70h8M78 70h1M80 70h4M17 71h54M72 71h4M77 71h1M79 71h1M20 72h45M66 72h7M17 73h16M34 73h28M63 73h1M65 73h1M67 73h5M15 74h24M40 74h12M53 74h10M64 74h1M66 74h1M19 75h17M37 75h4M42 75h13M56 75h6M63 75h1M65 75h1M27 76h36M31 77h25M40 78h18" />
<path stroke="#b4a483" d="M73 49h1M74 51h1M72 52h1M73 55h1M79 57h1M74 60h1M77 60h1M80 60h1M83 60h3M83 61h5M79 62h1M83 62h4M77 63h1M84 63h1M70 64h3M14 65h1M44 65h3M67 65h8M40 66h8M65 66h9M81 66h1M87 66h1M16 67h1M39 67h5M47 67h2M63 67h9M76 67h1M12 68h1M14 68h1M37 68h1M47 68h2M61 68h3M65 68h1M82 68h1M10 69h3M34 69h1M48 69h3M59 69h3M76 69h1M78 69h1M8 70h6M19 70h1M68 70h1M77 70h1M79 70h1M11 71h6M71 71h1M76 71h1M78 71h1M80 71h1M19 72h1M65 72h1M33 73h1M62 73h1M64 73h1M66 73h1M39 74h1M52 74h1M63 74h1M65 74h1M67 74h1M36 75h1M41 75h1M55 75h1M62 75h1M64 75h1M66 75h1M63 76h1M56 77h1" />
<path stroke="#837b6a" d="M73 56h1M73 57h1M73 58h1M73 59h1M74 61h1M81 61h1M74 62h1M70 63h2M74 63h1M83 63h1M45 64h2M68 64h2M73 64h2M84 64h1M41 65h3M47 65h1M65 65h2M86 65h1" />
</svg>