<svg xmlns="http://www.w3.org/2000/svg" viewBox="0 -0.5 96 96" shape-rendering="crispEdges">
<metadata>Made with Pixels to Svg https://codepen.io/shshaw/pen/XbxvNj</metadata>
<path stroke="#627383" d="M54 14h1M37 15h2M53 15h1M55 15h1M59 15h3M36 16h1M52 16h1M57 16h2M29 17h3M35 17h1M52 17h1M57 17h1M29 18h1M32 18h2M51 18h1M29 19h1M43 19h2M49 19h3M30 20h1M37 20h1M41 20h1M30 21h1M59 21h1M29 22h1M41 22h1M45 22h1M42 23h1M45 23h1M42 24h1M44 25h1M42 26h1M44 26h1M42 27h1M45 27h1M34 29h1M53 29h1M33 30h1M35 30h2M33 31h1M32 32h1M32 33h1M31 34h1M33 34h1M37 34h1M31 35h1M33 35h1M36 35h1M40 35h1M44 35h2M49 35h1M57 35h1M31 36h2M39 36h1M45 36h1M50 36h1M53 36h1M58 36h1M62 36h2M31 37h1M35 37h1M50 37h1M54 37h1M58 37h1M64 37h2M29 38h1M31 38h1M35 38h1M38 38h1M43 38h1M54 38h1M57 38h2M66 38h1M28 39h1M32 39h3M43 39h1M45 39h2M54 39h3M27 40h1M35 40h3M43 40h1M45 40h2M52 40h2M26 41h1M31 41h1M40 41h4M46 41h5M62 42h2M64 43h1M75 45h1M36 46h1M62 46h1M76 46h1M32 47h1M58 47h1M31 48h1M35 48h1M59 48h1M31 49h1M35 49h1M54 49h1M59 49h1M65 49h1M31 50h1M35 50h1M39 50h1M54 50h1M60 50h1M30 51h1M39 51h1M50 51h1M56 51h1M61 51h1M66 51h2M30 52h1M34 52h1M39 52h1M50 52h1M55 52h2M61 52h1M64 52h1M66 52h1M30 53h1M34 53h1M38 53h1M55 53h1M57 53h1M30 54h1M33 54h1M38 54h1M51 54h1M56 54h1M58 54h1M30 55h1M33 55h1M37 55h1M51 55h1M56 55h1M58 55h1M30 56h1M33 56h1M37 56h1M52 56h1M55 56h2M59 56h1M31 57h2M34 57h3M52 57h3M24 58h1" />
<path stroke="#ffffff" d="M54 15h1M37 16h1M53 16h3M59 16h2M36 17h2M53 17h3M58 17h3M30 18h1M35 18h3M52 18h4M57 18h3M31 19h7M52 19h8M31 20h6M43 20h3M49 20h10M31 21h9M41 21h4M47 21h11M33 22h8M42 22h3M46 22h15M29 23h12M43 23h2M46 23h5M53 23h7M30 24h7M39 24h3M43 24h1M45 24h4M53 24h6M31 25h6M40 25h2M43 25h1M45 25h2M53 25h5M33 26h4M41 26h1M43 26h1M45 26h1M53 26h3M35 27h2M43 27h2M46 27h1M53 27h1M42 28h5M52 28h1M41 29h7M39 30h16M34 31h22M33 32h2M36 32h2M39 32h2M42 32h3M46 32h2M49 32h3M53 32h2M33 33h1M35 33h2M38 33h3M42 33h3M46 33h3M50 33h2M53 33h3M34 34h3M38 34h2M41 34h4M46 34h3M50 34h3M54 34h3M34 35h2M37 35h3M41 35h3M46 35h3M50 35h3M54 35h1M35 36h1M38 36h1M41 36h3M46 36h2M42 37h2M62 37h2M30 38h1M62 38h4M29 39h2M61 39h7M28 40h5M60 40h9M27 41h4M32 41h2M58 41h1M62 41h9M26 42h4M31 42h5M56 42h5M64 42h8M25 43h4M30 43h9M53 43h11M65 43h8M24 44h4M29 44h7M37 44h5M49 44h16M67 44h7M23 45h5M29 45h4M34 45h2M37 45h20M58 45h3M62 45h3M68 45h7M20 46h7M29 46h3M33 46h3M37 46h21M59 46h3M63 46h1M69 46h7M18 47h9M30 47h2M33 47h2M36 47h13M50 47h3M54 47h4M59 47h4M69 47h7M17 48h4M23 48h3M32 48h3M36 48h13M50 48h4M55 48h4M60 48h4M70 48h7M17 49h2M23 49h3M32 49h3M36 49h3M40 49h9M50 49h4M55 49h4M61 49h2M70 49h8M16 50h2M23 50h2M33 50h2M36 50h3M40 50h10M51 50h3M56 50h4M71 50h1M75 50h3M15 51h1M23 51h1M35 51h4M40 51h10M51 51h4M57 51h3M71 51h1M77 51h2M23 52h1M35 52h3M40 52h10M51 52h3M71 52h2M40 53h10M72 53h1M28 54h2M40 54h10M72 54h1M28 55h2M39 55h11M27 56h3M38 56h13M27 57h4M33 57h1M37 57h15M26 58h31M26 59h32M27 60h31M28 61h4M33 61h24M34 62h18M53 62h1M55 62h1M36 63h15M52 63h1M54 63h1M39 64h9" />
<path stroke="#202931" d="M38 16h1M56 16h1M61 16h1M38 17h1M56 17h1M61 17h1M34 18h1M38 18h1M61 18h1M38 19h1M45 19h2M60 19h1M38 20h2M42 20h1M47 20h2M60 20h1M40 21h1M46 21h1M60 21h3M28 22h1M30 22h2M62 22h1M28 23h1M61 23h1M29 24h1M61 24h1M29 25h1M60 25h1M30 26h1M49 26h1M59 26h1M31 27h1M39 27h1M58 27h1M32 28h1M56 28h2M59 28h1M33 29h1M54 29h2M59 29h1M60 30h1M60 31h1M60 32h1M61 33h1M61 34h1M62 35h1M36 36h1M40 36h1M44 36h1M30 37h1M39 37h1M44 37h2M39 38h1M45 38h1M50 38h1M35 39h1M38 39h2M50 39h1M39 40h1M50 40h2M30 42h1M29 43h1M28 44h1M65 44h1M28 45h1M66 45h1M27 46h1M67 46h1M27 47h1M63 47h1M68 47h1M26 48h1M64 48h1M68 48h1M79 48h1M26 49h1M64 49h1M67 49h1M80 49h1M25 50h1M65 50h3M81 50h1M25 51h1M65 51h1M68 51h1M26 52h1M29 52h1M65 52h1M67 52h2M82 52h1M27 53h3M62 53h5M68 53h1M83 53h1M27 54h1M63 54h1M66 54h1M83 54h1M27 55h1M63 55h1M66 55h1M69 55h1M84 55h1M26 56h1M62 56h1M67 56h3M84 56h1M26 57h1M60 57h2M67 57h1M69 57h1M85 57h1M8 58h1M25 58h1M68 58h1M85 58h1M8 59h1M23 59h1M25 59h1M68 59h1M70 59h1M86 59h1M8 60h1M22 60h1M24 60h1M70 60h1M86 60h1M9 61h1M21 61h1M24 61h1M70 61h1M86 61h1M9 62h1M17 62h1M20 62h1M24 62h1M69 62h1M14 63h1M18 63h1M20 63h1M24 63h1M69 63h1M87 63h1M10 64h1M14 64h2M19 64h1M25 64h1M69 64h1M75 64h2M83 64h1M87 64h1M11 65h1M14 65h1M16 65h1M19 65h1M25 65h1M69 65h1M76 65h1M82 65h1M84 65h1M87 65h1M12 66h1M14 66h1M17 66h1M19 66h1M25 66h1M70 66h1M74 66h3M82 66h1M85 66h1M87 66h1M13 67h2M18 67h2M26 67h1M68 67h1M70 67h1M74 67h1M78 67h1M82 67h1M86 67h2M26 68h1M67 68h5M73 68h1M78 68h1M82 68h1M27 69h1M43 69h5M66 69h1M72 69h2M79 69h1M81 69h1M27 70h2M41 70h2M48 70h3M65 70h1M79 70h2M26 71h1M29 71h2M38 71h3M42 71h1M51 71h2M63 71h2M66 71h2M25 72h1M31 72h2M36 72h2M40 72h3M52 72h3M61 72h2M68 72h1M25 73h1M28 73h1M41 73h1M51 73h1M55 73h4M65 73h3M24 74h1M27 74h1M40 74h2M52 74h2M55 74h1M66 74h1M24 75h3M32 75h1M38 75h2M54 75h1M67 75h1M25 76h1M32 76h1M36 76h2M53 76h1M68 76h1M25 77h1M28 77h4M34 77h2M52 77h1M63 77h1M69 77h1M25 78h3M31 78h3M52 78h1M57 78h1M64 78h6M52 79h1M55 79h2M58 79h1M64 79h1M52 80h3M59 80h1M63 80h1M60 81h1M63 81h1M61 82h3" />
<path stroke="#c5d5de" d="M31 18h1M56 18h1M60 18h1M30 19h1M46 20h1M59 20h1M45 21h1M58 21h1M61 22h1M41 23h1M60 23h1M44 24h1M59 24h2M30 25h1M42 25h1M58 25h2M31 26h2M56 26h3M32 27h3M54 27h4M33 28h4M53 28h3M58 28h1M35 29h3M51 29h2M56 29h3M34 30h1M37 30h2M55 30h5M56 31h4M56 32h4M57 33h4M58 34h3M55 35h2M58 35h3M33 36h2M37 36h1M48 36h2M51 36h2M54 36h4M59 36h2M32 37h3M36 37h3M40 37h2M46 37h4M51 37h3M55 37h3M59 37h2M32 38h3M36 38h2M40 38h3M46 38h4M51 38h3M55 38h2M59 38h3M31 39h1M36 39h2M40 39h3M47 39h3M51 39h3M57 39h4M33 40h2M40 40h3M47 40h3M56 40h4M69 40h1M34 41h3M53 41h5M59 41h3M36 42h4M50 42h6M61 42h1M39 43h14M42 44h7M66 44h1M65 45h1M67 45h1M28 46h1M64 46h3M68 46h1M28 47h2M64 47h4M76 47h1M27 48h4M65 48h2M69 48h1M27 49h3M63 49h1M66 49h1M68 49h2M26 50h4M32 50h1M61 50h4M68 50h3M74 50h1M26 51h3M31 51h3M62 51h3M69 51h2M72 51h1M76 51h1M27 52h2M31 52h3M38 52h1M54 52h1M57 52h4M62 52h2M70 52h1M78 52h1M31 53h3M35 53h3M39 53h1M50 53h1M52 53h3M56 53h1M58 53h4M71 53h1M31 54h2M34 54h4M39 54h1M50 54h1M52 54h4M59 54h4M64 54h2M73 54h1M31 55h2M34 55h3M38 55h1M50 55h1M52 55h4M57 55h1M59 55h4M64 55h2M73 55h1M31 56h2M34 56h3M51 56h1M53 56h2M57 56h2M60 56h2M63 56h4M55 57h5M62 57h5M57 58h11M58 59h10M25 60h2M58 60h10M25 61h3M58 61h10M25 62h6M52 62h1M54 62h1M56 62h1M59 62h9M25 63h6M35 63h1M51 63h1M53 63h1M55 63h1M60 63h8M26 64h4M36 64h3M48 64h8M62 64h6M26 65h4M37 65h18M62 65h5M27 66h2M37 66h18M63 66h4M28 67h1M38 67h17M64 67h2M39 68h3M48 68h6M51 69h3" />
<path stroke="#acbdcd" d="M32 22h1M52 24h1M37 25h1M47 28h1M48 29h1M35 32h1M38 32h1M41 32h1M45 32h1M48 32h1M52 32h1M55 32h1M34 33h1M37 33h1M41 33h1M45 33h1M49 33h1M52 33h1M56 33h1M32 34h1M40 34h1M45 34h1M49 34h1M53 34h1M57 34h1M32 35h1M53 35h1M61 35h1M61 36h1M61 37h1M44 38h1M67 38h1M44 39h1M68 39h2M38 40h1M44 40h1M54 40h2M70 40h1M37 41h3M44 41h2M51 41h2M71 41h1M40 42h10M72 42h1M73 43h1M36 44h1M74 44h1M22 45h1M33 45h1M36 45h1M57 45h1M61 45h1M19 46h1M32 46h1M58 46h1M35 47h1M49 47h1M53 47h1M49 48h1M54 48h1M67 48h1M30 49h1M39 49h1M49 49h1M60 49h1M30 50h1M50 50h1M55 50h1M29 51h1M34 51h1M55 51h1M60 51h1M51 53h1M57 54h1M68 62h1M68 63h1M61 64h1M68 64h1M67 65h2M26 66h1M67 66h1M27 67h1M63 67h1M66 67h2M27 68h2M42 68h6M64 68h3M28 69h1M40 69h3M48 69h3M65 69h1M51 70h3" />
<path stroke="#9c73e6" d="M51 23h2M37 24h1M47 27h1M49 27h1M52 27h1M37 28h1M39 28h1M41 28h1M48 28h1M51 28h1M38 29h1M40 29h1M49 29h1" />
<path stroke="#6241bd" d="M38 24h1M49 24h2M39 25h1M47 25h2M52 25h1M37 26h1M40 26h1M46 26h2M52 26h1M37 27h1M41 27h1M50 29h1" />
<path stroke="#dea4f6" d="M51 24h1M38 25h1M49 25h3M38 26h2M48 26h1M50 26h2M38 27h1M40 27h1M48 27h1M50 27h2M38 28h1M40 28h1M49 28h2M39 29h1" />
<path stroke="#949cb4" d="M25 42h1M24 43h1M23 44h1M20 45h2M18 46h1" />
<path stroke="#183162" d="M77 46h1M78 47h1M82 51h1M69 54h1M70 58h1M68 60h1M68 61h1M82 61h1M83 62h1M86 62h2M75 63h1M83 63h1M74 64h1M84 64h1M74 65h1M85 65h1M68 66h1M73 67h1M81 68h1M26 72h1M67 72h1M29 73h1M52 73h1M64 73h1M33 74h1M54 74h1" />
<path stroke="#29398b" d="M16 47h2M14 48h2M13 49h1M12 50h1M11 51h1M10 52h1M10 53h1M9 54h1M26 54h1M9 55h1M26 55h1M8 56h1M25 56h1M8 57h1M19 57h1M25 57h1M68 57h1M15 58h1M19 58h1M69 58h1M15 59h1M19 59h1M69 59h1M16 60h1M19 60h1M69 60h1M14 61h1M16 61h1M19 61h1M69 61h1M14 62h1M19 62h1M10 63h1M19 63h1M75 65h1M69 66h1M69 67h1M60 68h4M29 69h1M37 69h2M54 69h11M29 70h12M54 70h11M27 71h2M31 71h7M41 71h1M53 71h10M65 71h1M28 72h3M33 72h3M38 72h2M55 72h6M63 72h4M27 73h1M30 73h11M53 73h2M59 73h5M26 74h1M28 74h1M31 74h2M34 74h1M37 74h3M56 74h10M27 75h1M31 75h1M33 75h1M36 75h2M55 75h3M60 75h7M29 76h3M35 76h1M54 76h1M61 76h7M53 77h1M56 77h2M61 77h2M64 77h5M55 78h2M58 78h1M62 78h2M53 79h2M59 79h1M62 79h2M60 80h1M62 80h1M61 81h2" />
<path stroke="#315a9c" d="M77 47h1M78 48h1M81 51h1M69 52h1M26 53h1M69 53h1M82 53h1M25 54h1M70 54h1M22 55h4M70 55h1M83 55h1M20 56h5M70 56h1M20 57h5M84 57h1M20 58h4M84 58h1M18 59h1M20 59h3M82 59h1M84 59h2M13 60h3M18 60h1M20 60h2M82 60h4M13 61h1M15 61h1M18 61h1M20 61h1M57 61h1M81 61h1M83 61h3M13 62h1M15 62h2M18 62h1M31 62h3M57 62h2M81 62h2M84 62h2M13 63h1M15 63h3M31 63h4M56 63h4M74 63h1M81 63h2M84 63h3M13 64h1M16 64h3M30 64h6M56 64h5M73 64h1M77 64h1M81 64h2M85 64h2M13 65h1M17 65h2M30 65h6M55 65h7M70 65h1M73 65h1M77 65h2M80 65h2M86 65h1M13 66h1M18 66h1M29 66h8M55 66h8M72 66h2M78 66h4M86 66h1M29 67h9M55 67h8M71 67h2M79 67h3M29 68h10M54 68h6M72 68h1M79 68h2M30 69h7M39 69h1M80 69h1M27 72h1M26 73h1M25 74h1M29 74h2M35 74h2M28 75h3M34 75h2M58 75h2M26 76h3M33 76h2M55 76h6M26 77h2M32 77h2M54 77h2M58 77h3M53 78h2M59 78h3M60 79h2M61 80h1" />
<path stroke="#3983b4" d="M16 48h1M22 48h1M14 49h2M20 49h3M78 49h2M13 50h2M18 50h5M72 50h2M79 50h2M12 51h3M16 51h7M73 51h3M79 51h2M11 52h12M24 52h2M73 52h5M79 52h3M11 53h15M70 53h1M73 53h9M10 54h15M71 54h1M74 54h9M10 55h12M71 55h1M74 55h9M9 56h11M71 56h13M9 57h10M70 57h14M9 58h6M16 58h3M71 58h13M9 59h6M16 59h2M71 59h11M83 59h1M9 60h4M17 60h1M71 60h11M10 61h3M17 61h1M32 61h1M71 61h10M10 62h3M70 62h11M11 63h2M70 63h4M76 63h5M11 64h2M70 64h3M78 64h3M12 65h1M36 65h1M71 65h2M79 65h1M71 66h1" />
<path stroke="#83dede" d="M21 48h1M77 48h1M16 49h1M19 49h1M15 50h1M78 50h1M24 51h1M72 55h1" />
</svg>