<svg xmlns="http://www.w3.org/2000/svg" viewBox="0 -0.5 68 56" shape-rendering="crispEdges">
<metadata>Made with Pixels to Svg https://codepen.io/shshaw/pen/XbxvNj</metadata>
<path stroke="#000000" d="M32 29h4M38 29h2M31 30h1M36 30h2M39 30h1M30 31h1M33 31h1M38 31h1M30 32h1M32 32h1M34 32h1M37 32h1M30 33h1M33 33h1M38 33h1M41 33h2M31 34h1M35 34h2M39 34h2M42 34h1M30 35h1M34 35h1M37 35h1M41 35h1M29 36h1M35 36h1M38 36h3M26 37h3M36 37h2M25 38h1M38 38h2M24 39h1M40 39h1M24 40h1M32 40h1M41 40h1M25 41h1M41 41h2M25 42h1M43 42h1M24 43h1M43 43h1M24 44h1M42 44h1M25 45h1M43 45h1M24 46h1M43 46h1M25 47h2M42 47h1M27 48h1M39 48h3M28 49h2M38 49h1M30 50h3M36 50h2M33 51h2M36 51h1M35 52h1" />
<path stroke="#c19310" d="M32 30h1M31 31h1M35 31h1M32 33h1M37 34h1M31 35h1M38 35h1M31 36h1M26 46h1M27 47h1M29 47h1M34 49h1" />
<path stroke="#dbb82a" d="M33 30h3M38 30h1M32 31h1M36 31h2M31 32h1M31 33h1M37 33h1M32 34h1M38 34h1M34 36h1M35 37h1M29 39h1M30 40h2M35 40h1M32 41h1M33 42h1M32 43h3M28 47h1M28 48h1M34 50h2M35 51h1" />
<path stroke="#414141" d="M34 31h1M35 32h2M33 35h1M32 36h1M28 38h1M36 38h1M28 39h1M36 39h1M27 40h1M36 40h1M28 41h1M35 41h1M29 42h4M34 42h1M31 43h1M35 43h1M32 44h1M26 45h2M28 46h1M29 48h1M33 48h3M32 49h1M36 49h1M33 50h1" />
<path stroke="#f5df44" d="M34 33h3M33 34h2M41 34h1M32 35h1M39 35h2M30 36h1M33 36h1M29 37h6M29 38h7M30 39h2M33 39h3M33 40h2M33 44h2M25 46h1M27 46h1M33 49h1M35 49h1" />
<path stroke="#bdbdbd" d="M26 38h2M37 38h1M25 39h3M37 39h1M25 40h2M42 42h1M29 43h2M25 44h1M29 44h1M38 45h1M41 45h2M37 46h1M39 46h4M31 47h1M36 47h3M40 47h2M30 48h3M36 48h3M30 49h2M37 49h1" />
<path stroke="#ffffff" d="M32 39h1M38 39h2M37 40h4M26 41h2M33 41h2M36 41h4M26 42h3M35 42h4M40 42h2M25 43h4M36 43h7M26 44h3M30 44h2M35 44h7M29 45h3M33 45h5M39 45h2M29 46h8M30 47h1M32 47h4" />
<path stroke="#e8e6e1" d="M28 40h2M29 41h3" />
<path stroke="#949494" d="M40 41h1M39 42h1M28 45h1M32 45h1M38 46h1M39 47h1" />
</svg>