<svg xmlns="http://www.w3.org/2000/svg" viewBox="0 -0.5 68 56" shape-rendering="crispEdges">
<metadata>Made with Pixels to Svg https://codepen.io/shshaw/pen/XbxvNj</metadata>
<path stroke="#000000" d="M27 29h2M26 30h1M29 30h1M33 30h2M26 31h1M30 31h1M32 31h1M35 31h1M26 32h1M31 32h2M35 32h1M26 33h1M35 33h2M26 34h1M37 34h1M25 35h1M37 35h1M25 36h1M36 36h1M25 37h1M37 37h1M25 38h1M37 38h1M26 39h1M31 39h1M35 39h2M26 40h1M35 40h1M26 41h1M35 41h1M27 42h2M35 42h1M29 43h4M36 43h2M40 43h1M32 44h1M38 44h2M41 44h1M31 45h1M41 45h1M30 46h1M40 46h1M30 47h1M40 47h1M30 48h1M39 48h1M31 49h1M39 49h1M31 50h1M39 50h1M32 51h2M36 51h3M34 52h2" />
<path stroke="#e1b0aa" d="M27 30h1M34 31h1M29 32h1M28 33h1M30 33h2M34 34h1M36 35h1M35 36h1" />
<path stroke="#ffc8bc" d="M28 30h1M27 31h2M27 32h2M30 32h1M29 33h1M30 34h1M36 37h1" />
<path stroke="#414141" d="M29 31h1M32 33h1M31 34h1M31 35h1M30 36h1M30 37h1M33 39h1M33 40h1M30 41h1M32 41h1M35 43h1M33 50h1M36 50h1M38 50h1" />
<path stroke="#ffdbc8" d="M33 31h1M33 32h2M33 33h2M33 34h1M35 34h2M35 35h1" />
<path stroke="#faedb6" d="M27 33h1M27 34h3M26 35h3M26 36h2M26 37h1M26 38h1" />
<path stroke="#ffffb0" d="M32 34h1M32 35h3M31 36h4M31 37h5M30 38h2M35 38h2" />
<path stroke="#a6d0ff" d="M29 35h2M28 36h1M27 37h1M27 38h1M29 38h1M29 39h1M29 40h1M27 41h1M32 42h2M35 44h1M37 44h1M35 45h1M38 45h1M31 46h1M34 46h1M39 46h1M36 47h1M39 47h1M31 48h1M38 48h1M32 49h1M36 49h2" />
<path stroke="#f8ffff" d="M29 36h1M28 37h2M28 38h1M27 39h2M27 40h2M28 41h2M34 43h1M33 44h2M36 44h1M32 45h2M36 45h2M32 46h2M35 46h1M38 46h1M31 47h5M38 47h1M32 48h6M34 49h2M34 50h2M34 51h2" />
<path stroke="#fae06c" d="M32 38h3" />
<path stroke="#ffffff" d="M30 39h1M32 39h1M32 40h1M36 46h1" />
<path stroke="#c5ffff" d="M34 39h1M34 40h1M33 41h2M29 42h3M34 42h1M33 43h1M40 44h1M34 45h1M39 45h2M38 49h1M32 50h1M37 50h1" />
<path stroke="#019f92" d="M30 40h2M31 41h1M37 46h1M37 47h1" />
<path stroke="#dedede" d="M33 49h1" />
</svg>