<svg xmlns="http://www.w3.org/2000/svg" viewBox="0 -0.5 68 56" shape-rendering="crispEdges">
<metadata>Made with Pixels to Svg https://codepen.io/shshaw/pen/XbxvNj</metadata>
<path stroke="#000000" d="M28 28h2M28 29h1M30 29h1M29 30h1M31 30h1M34 30h3M22 31h2M25 31h2M29 31h1M31 31h1M33 31h1M37 31h1M21 32h1M24 32h1M27 32h1M29 32h1M35 32h2M21 33h1M28 33h1M30 33h1M34 33h1M22 34h1M28 34h1M30 34h1M33 34h1M41 34h2M44 34h2M21 35h1M27 35h1M30 35h1M33 35h2M40 35h1M43 35h1M46 35h2M21 36h1M28 36h2M35 36h1M40 36h1M43 36h1M48 36h1M20 37h1M36 37h1M38 37h2M41 37h1M48 37h1M20 38h1M37 38h1M40 38h1M42 38h1M48 38h1M21 39h3M41 39h1M47 39h1M23 40h1M47 40h1M24 41h2M32 41h1M40 41h1M48 41h1M26 42h1M32 42h1M39 42h1M41 42h1M48 42h1M24 43h2M27 43h1M37 43h2M42 43h2M46 43h2M24 44h1M26 44h2M35 44h2M43 44h1M45 44h1M25 45h1M33 45h2M42 45h1M45 45h1M26 46h4M33 46h1M41 46h1M44 46h1M29 47h1M34 47h7M43 47h1M28 48h1M41 48h2M28 49h1M36 49h5M29 50h2M32 50h1M35 50h1M30 51h2M33 51h1M36 51h1M34 52h2" />
<path stroke="#bb3688" d="M29 29h1M30 30h1M30 31h1M31 32h1M31 33h1M26 35h1M31 35h1M25 36h3M32 36h1M21 37h1M26 37h1M21 38h3M25 39h1M24 40h1M42 41h1M46 41h1M43 42h1M45 42h1M47 42h1M44 43h1M25 44h1M44 44h1M26 45h4M43 45h1M42 46h1M29 48h1M35 48h4M34 49h1M33 50h2" />
<path stroke="#dd58aa" d="M34 31h3M33 32h2M32 33h2M32 34h1M32 35h1M30 36h2M33 36h1M28 37h8M27 38h1M29 38h2M33 38h4M38 38h2M34 39h2M37 39h3M26 40h1M35 40h1M37 40h1M39 40h1M26 41h1M35 41h2M39 41h1M41 41h1M47 41h1M28 42h2M35 42h1M38 42h1M42 42h1M46 42h1M35 43h2M34 44h1M44 45h1M31 46h2M43 46h1M31 47h1M33 47h1M41 47h2M33 48h1M39 48h2M32 49h1M31 50h1M34 51h2" />
<path stroke="#d63b84" d="M22 32h1M25 32h1M23 33h1M25 33h1M27 33h1M27 34h1M42 35h1M44 35h1M41 36h1M46 36h1M25 37h1M25 38h1" />
<path stroke="#c22770" d="M23 32h1M26 32h1M22 33h1" />
<path stroke="#414141" d="M30 32h1M32 32h1M24 33h1M26 33h1M24 34h1M26 34h1M31 34h1M25 35h1M24 36h1M34 36h1M45 36h1M22 37h1M24 37h1M27 37h1M43 37h1M45 37h1M24 38h1M26 38h1M24 39h1M26 39h1M36 39h1M40 39h1M25 40h1M36 40h1M40 40h2M36 42h1M44 42h1M45 43h1M28 44h2M30 45h3M30 46h1M32 47h1M32 48h1M34 48h1M29 49h1M31 49h1M33 49h1M35 49h1" />
<path stroke="#d3b986" d="M23 34h1M25 34h1M22 35h3M22 36h2M23 37h1M31 38h1M45 38h1M47 38h1M27 39h1M34 40h1M27 42h1M28 43h1M30 48h1M30 49h1" />
<path stroke="#f1569f" d="M41 35h1M45 35h1M42 36h1M44 36h1M47 36h1M46 37h2M38 40h1M37 41h2M37 42h1" />
<path stroke="#f9dfac" d="M42 37h1M44 37h1M28 38h1M32 38h1M43 38h2M46 38h1M28 39h6M42 39h5M27 40h5M33 40h1M42 40h5M27 41h5M34 41h1M43 41h3M30 42h2M34 42h1M29 43h3M33 43h2M32 44h2M30 47h1M31 48h1" />
<path stroke="#ffffff" d="M32 40h1M33 41h1M33 42h1M32 43h1M30 44h1" />
<path stroke="#bdbdb5" d="M31 44h1" />
</svg>