<svg xmlns="http://www.w3.org/2000/svg" viewBox="0 -0.5 68 56" shape-rendering="crispEdges">
<metadata>Made with Pixels to Svg https://codepen.io/shshaw/pen/XbxvNj</metadata>
<path stroke="#000000" d="M34 27h3M32 28h2M36 28h1M31 29h1M35 29h1M23 30h1M30 30h1M35 30h1M22 31h1M24 31h1M28 31h2M35 31h1M22 32h1M25 32h3M32 32h1M35 32h1M22 33h1M32 33h1M34 33h1M46 33h2M32 34h1M34 34h1M44 34h2M48 34h1M22 35h2M32 35h2M36 35h2M40 35h2M43 35h1M47 35h1M22 36h1M32 36h1M35 36h1M38 36h2M41 36h1M46 36h1M21 37h1M32 37h1M36 37h1M46 37h1M21 38h1M33 38h2M37 38h1M45 38h1M21 39h1M35 39h2M45 39h1M21 40h1M27 40h2M44 40h1M22 41h3M26 41h2M43 41h1M25 42h1M44 42h1M26 43h2M29 43h1M45 43h1M27 44h1M44 44h1M26 45h1M43 45h1M25 46h1M35 46h1M37 46h1M44 46h1M25 47h1M34 47h1M36 47h1M44 47h1M26 48h1M34 48h1M37 48h1M39 48h1M42 48h1M44 48h1M26 49h1M28 49h2M33 49h1M38 49h1M40 49h2M43 49h2M27 50h1M29 50h1M33 50h1M30 51h1M32 51h1M30 52h1M32 52h1M31 53h1" />
<path stroke="#f3e67a" d="M34 28h2M32 29h3M31 30h3M30 31h1M32 31h2M28 32h2M31 32h1M25 33h4M30 33h2M24 34h5M30 34h2M46 34h2M24 35h4M29 35h3M44 35h3M23 36h9M37 36h1M40 36h1M43 36h2M23 37h9M38 37h1M42 37h2M24 38h4M30 38h2M24 39h2M30 39h1M24 40h1M32 41h2M27 42h2M32 42h3M40 42h1M31 43h3M29 44h1M31 44h2M31 45h2M31 46h3M32 47h1M30 48h1M33 48h1M31 49h1" />
<path stroke="#737363" d="M34 30h1M24 33h1M25 40h1M34 43h1M33 44h1M42 44h1M31 48h2" />
<path stroke="#b6ac57" d="M23 31h1M23 32h2M33 32h1M23 33h1M45 36h1M44 37h1M41 38h3M26 39h1M41 39h2M30 40h1M32 40h1M29 41h2M38 41h1M42 41h1M26 42h1M31 42h1M38 42h1M42 42h1M30 43h1M42 43h3M28 44h1M30 44h1M43 44h1M27 45h1M29 45h1M33 45h1M41 45h2M26 46h1M34 46h1M41 46h1M43 46h1M31 47h1M32 49h1M32 50h1" />
<path stroke="#414141" d="M31 31h1M34 31h1M30 32h1M34 32h1M29 33h1M33 33h1M23 34h1M29 34h1M33 34h1M28 35h1M42 36h1M41 37h1M45 37h1M29 38h1M32 38h1M40 38h1M44 38h1M29 39h1M31 39h2M40 39h1M43 39h2M26 40h1M31 40h1M33 40h2M38 40h1M41 40h3M25 41h1M28 41h1M31 41h1M35 41h1M37 41h1M39 41h1M41 41h1M29 42h2M35 42h1M37 42h1M39 42h1M41 42h1M43 42h1M28 43h1M38 43h1M41 43h1M36 44h1M38 44h1M41 44h1M28 45h1M34 45h2M40 45h1M27 46h1M30 46h1M40 46h1M27 47h1M30 47h1M33 47h1M37 47h1M41 47h1M28 48h2M41 48h1" />
<path stroke="#bb85e0" d="M36 36h1M39 37h1M22 38h1M39 38h1M22 39h1M37 39h3M22 40h1M35 40h2M39 40h1M40 41h1M36 42h1M36 43h2M40 43h1M34 44h2M37 44h1M39 44h1M39 45h1M39 46h1M39 47h1M38 48h1M40 48h1M30 50h1M31 51h1M31 52h1" />
<path stroke="#8e58b3" d="M22 37h1M37 37h1M40 37h1M23 38h1M23 39h1M34 39h1M23 40h1M37 40h1M40 40h1M36 41h1M35 43h1M39 43h1M40 44h1M37 45h2M40 47h1M42 47h1M27 48h1M43 48h1M27 49h1M30 49h1M31 50h1" />
<path stroke="#259a3c" d="M28 38h1M38 38h1M28 39h1M29 40h1M38 46h1" />
<path stroke="#d66342" d="M27 39h1" />
<path stroke="#824ca7" d="M33 39h1M34 41h1M36 46h1M42 46h1M43 47h1" />
<path stroke="#377c5b" d="M30 45h1M36 45h1M28 46h2M26 47h1M28 47h2" />
<path stroke="#1e762e" d="M38 47h1" />
</svg>