<svg xmlns="http://www.w3.org/2000/svg" viewBox="0 -0.5 68 56" shape-rendering="crispEdges">
<metadata>Made with Pixels to Svg https://codepen.io/shshaw/pen/XbxvNj</metadata>
<path stroke="#000000" d="M31 34h2M27 35h2M30 35h1M32 35h4M26 36h1M29 36h1M36 36h2M26 37h1M38 37h1M26 38h1M38 38h1M25 39h1M39 39h1M41 39h3M25 40h1M40 40h1M44 40h1M25 41h1M37 41h1M42 41h1M45 41h1M26 42h1M31 42h1M36 42h1M38 42h1M41 42h1M43 42h2M46 42h1M26 43h1M35 43h1M39 43h2M45 43h2M27 44h1M34 44h1M40 44h1M28 45h1M35 45h1M39 45h1M41 45h2M26 46h2M36 46h2M39 46h1M42 46h1M25 47h1M38 47h1M43 47h1M25 48h1M29 48h2M41 48h2M25 49h1M27 49h1M29 49h1M31 49h1M39 49h2M26 50h1M28 50h1M32 50h1M39 50h1M32 51h2M35 51h2M38 51h1M37 52h2" />
<path stroke="#658ba5" d="M31 35h1M30 36h2M28 37h1M30 37h2M27 38h1M29 38h4M34 38h1M27 39h8M27 40h4M32 40h4M26 41h4M34 41h1M28 42h2M30 43h1M35 46h1M35 47h2M34 48h3M33 49h4M33 50h1M35 50h1" />
<path stroke="#456781" d="M27 36h1M32 36h1M34 36h2M27 37h1M32 37h2M35 37h3M36 38h2M35 39h1M37 39h2M37 40h3M41 40h2M35 41h1M38 41h4M27 42h1M34 42h2M39 42h2M28 43h2M33 43h2M30 44h3M29 45h1M34 45h1M33 46h2M30 47h4M31 48h2M38 48h1M38 49h1M37 50h2M37 51h1" />
<path stroke="#414141" d="M28 36h1M33 36h1M29 37h1M34 37h1M28 38h1M33 38h1M35 38h1M26 39h1M36 39h1M31 40h1M36 40h1M43 40h1M30 41h1M32 41h2M36 41h1M43 41h2M45 42h1M33 45h1M28 46h5M34 47h1M37 47h1M33 48h1M37 48h1M39 48h1M26 49h1M28 49h1M32 49h1M37 49h1M34 50h1M36 50h1" />
<path stroke="#d65263" d="M26 40h1M31 41h1M30 42h1M33 42h1M32 43h1" />
<path stroke="#ffadce" d="M32 42h1M31 43h1" />
<path stroke="#f7d64a" d="M27 43h1M29 44h1M33 44h1M31 45h1M40 46h2M41 47h1" />
<path stroke="#cead42" d="M28 44h1M30 45h1M32 45h1M40 45h1M39 47h2M42 47h1M40 48h1" />
<path stroke="#2f4655" d="M26 47h4M26 48h3" />
</svg>