<svg xmlns="http://www.w3.org/2000/svg" viewBox="0 -0.5 68 56" shape-rendering="crispEdges">
<metadata>Made with Pixels to Svg https://codepen.io/shshaw/pen/XbxvNj</metadata>
<path stroke="#000000" d="M33 31h3M31 32h2M36 32h1M30 33h1M37 33h1M31 34h1M38 34h1M26 35h2M31 35h1M37 35h1M25 36h1M29 36h2M34 36h1M37 36h1M24 37h1M27 37h2M38 37h1M23 38h1M38 38h1M41 38h2M23 39h1M39 39h1M42 39h2M23 40h1M40 40h2M44 40h1M24 41h1M27 41h2M45 41h1M25 42h2M28 42h1M45 42h1M29 43h1M45 43h1M28 44h1M40 44h2M44 44h1M27 45h1M40 45h1M42 45h2M26 46h1M40 46h1M26 47h1M41 47h1M27 48h1M41 48h1M26 49h1M31 49h2M34 49h1M41 49h1M27 50h5M33 50h1M35 50h1M41 50h1M36 51h1M42 51h1M36 52h6" />
<path stroke="#d4e3ff" d="M33 32h3M31 33h1M33 33h3M32 34h4M37 34h1M32 35h3M36 35h1M32 36h2M35 36h2M25 37h2M34 37h4M24 38h4M35 38h3M24 39h3M36 39h3M25 40h2M36 40h4M43 40h1M37 41h4M42 41h3M37 42h1M39 42h1M42 42h3M34 43h1M37 43h1M42 43h2M29 44h1M34 44h4M28 45h2M31 45h8M27 46h4M32 46h8M27 47h3M31 47h4M36 47h4M28 48h1M32 48h1M34 48h1M36 48h4M37 49h2M38 51h1M40 51h1" />
<path stroke="#81a8d5" d="M32 33h1M36 33h1M36 34h1M35 35h1M31 36h1M29 37h1M33 37h1M29 38h1M24 40h1M28 40h1M42 40h1M25 41h2M30 43h1M40 43h2M44 43h1M30 44h2M33 44h1M38 44h1M42 44h2M30 45h1M39 45h1M31 46h1M35 47h1M40 47h1M29 48h2M33 48h1M40 48h1M27 49h4M33 49h1M36 49h1M39 49h2M38 50h3M37 51h1M39 51h1M41 51h1" />
<path stroke="#414141" d="M26 36h1M31 37h2M27 39h2M41 41h1M40 42h2M38 43h1M39 44h1M35 48h1M35 49h1" />
<path stroke="#317add" d="M30 37h1M30 38h1M34 38h1M29 39h1M31 39h1M35 39h1M29 40h1M31 40h1M33 40h1M35 40h1M33 41h1M36 41h1M33 42h1" />
<path stroke="#577aa0" d="M28 38h1M27 40h1M38 42h1M39 43h1M30 47h1M31 48h1M36 50h2" />
<path stroke="#55a2cd" d="M31 38h2M32 39h1M34 39h1M31 41h1" />
<path stroke="#aad9ff" d="M33 38h1M30 39h1M33 39h1M30 40h1M32 40h1M34 40h1M29 41h1M32 41h1M34 41h2" />
<path stroke="#2957aa" d="M30 41h1M29 42h2M34 42h1M36 42h1M31 43h1M33 43h1M35 43h2M32 44h1" />
<path stroke="#d4edff" d="M31 42h2M35 42h1M32 43h1" />
</svg>