<svg xmlns="http://www.w3.org/2000/svg" viewBox="0 -0.5 68 56" shape-rendering="crispEdges">
<metadata>Made with Pixels to Svg https://codepen.io/shshaw/pen/XbxvNj</metadata>
<path stroke="#000000" d="M29 35h4M28 36h1M33 36h1M28 37h1M34 37h1M28 38h1M35 38h2M29 39h1M37 39h1M27 40h2M37 40h1M26 41h1M38 41h2M26 42h1M40 42h2M25 43h1M42 43h1M25 44h1M42 44h1M25 45h1M29 45h1M43 45h1M26 46h1M43 46h1M26 47h1M43 47h1M27 48h2M32 48h3M42 48h1M29 49h3M34 49h1M42 49h1M35 50h2M40 50h2M37 51h3" />
<path stroke="#bfb8c5" d="M29 36h1M32 37h1M33 38h2M33 39h4M34 40h3M27 41h1M32 41h2M35 41h3M32 42h2M36 42h1M39 42h1M26 43h2M31 43h4M37 43h2M41 43h1M26 44h1M32 44h2M37 44h3M34 45h1M39 45h2M42 45h1M32 46h2M38 46h1M39 47h1M41 47h1M35 48h1M40 48h1M37 49h3" />
<path stroke="#e3dfe8" d="M30 36h3M29 37h3M29 40h3M28 41h3M28 42h3" />
<path stroke="#908599" d="M33 37h1M29 38h4M32 39h1M31 41h1M27 42h1M31 42h1M35 42h1M34 44h1M40 44h1M26 45h1M32 45h2M36 45h1M38 45h1M36 46h1M39 46h2M42 46h1M27 47h1M31 47h1M33 47h1M36 47h2M42 47h1M29 48h3M41 48h1M35 49h2M40 49h2M37 50h3" />
<path stroke="#414141" d="M30 39h2M32 40h2M34 41h1M34 42h1M37 42h2M28 43h3M35 43h2M39 43h2M27 44h1M31 44h1M35 44h2M41 44h1M27 45h1M31 45h1M35 45h1M37 45h1M41 45h1M27 46h1M31 46h1M34 46h2M37 46h1M41 46h1M28 47h3M32 47h1M34 47h2M38 47h1M40 47h1M36 48h4" />
<path stroke="#ce423a" d="M28 44h1M30 44h1M28 46h1M30 46h1" />
<path stroke="#d66342" d="M29 44h1M28 45h1M30 45h1M29 46h1" />
</svg>