<svg xmlns="http://www.w3.org/2000/svg" viewBox="0 -0.5 68 56" shape-rendering="crispEdges">
<metadata>Made with Pixels to Svg https://codepen.io/shshaw/pen/XbxvNj</metadata>
<path stroke="#000000" d="M27 30h1M33 30h2M26 31h1M28 31h1M32 31h1M35 31h1M26 32h1M29 32h2M33 32h1M36 32h1M26 33h1M31 33h2M36 33h1M26 34h1M37 34h1M26 35h1M38 35h1M27 36h1M38 36h1M27 37h1M39 37h1M28 38h1M39 38h1M28 39h1M33 39h1M39 39h1M27 40h1M38 40h1M27 41h1M39 41h2M24 42h1M26 42h1M28 42h1M41 42h1M23 43h1M25 43h1M27 43h1M29 43h1M41 43h1M23 44h1M27 44h1M30 44h1M40 44h1M23 45h1M27 45h1M30 45h1M38 45h2M41 45h1M43 45h1M23 46h1M26 46h1M29 46h1M37 46h1M40 46h1M42 46h1M44 46h1M24 47h1M26 47h1M28 47h1M38 47h1M40 47h1M44 47h1M25 48h1M28 48h1M39 48h2M44 48h1M29 49h1M32 49h2M39 49h1M41 49h1M44 49h1M28 50h1M31 50h1M34 50h1M38 50h1M41 50h1M43 50h1M28 51h3M35 51h1M39 51h1M42 51h1M35 52h1M37 52h1M39 52h1M36 53h1M38 53h1" />
<path stroke="#ffffff" d="M27 31h1M27 32h1M27 33h1M27 34h1M27 35h1M28 36h1M28 37h1M29 38h1M30 39h1M34 39h1M33 40h1" />
<path stroke="#f7f729" d="M33 31h2M34 32h2M29 33h1M33 33h1M29 34h4M29 35h3M30 36h2M30 37h1M31 41h1M37 41h1M36 42h1" />
<path stroke="#c58c42" d="M28 32h1M28 33h1M30 33h1M28 34h1M28 35h1M29 36h1M29 37h1M30 38h1M32 40h1M32 41h1M30 42h1M36 43h1" />
<path stroke="#414141" d="M34 33h2M33 34h1M32 35h1M32 36h1M31 37h1M31 38h1M29 39h1M31 39h2M35 39h1M29 40h1M34 40h1M37 40h1M30 41h1M33 41h4M31 42h2M35 42h1M31 43h1M35 43h1M31 44h1M34 44h2M39 44h1M34 45h1M40 45h1M31 46h1M33 46h1M30 47h1M34 47h1M31 48h1M33 48h1" />
<path stroke="#3c60cb" d="M34 34h3M33 35h1M35 35h3M33 36h4M32 37h4M32 38h2M28 40h1M28 41h2M38 42h3M37 43h3M37 44h1M30 46h1M29 47h1M29 48h2M37 48h2M36 49h3M36 50h1" />
<path stroke="#84b6ff" d="M34 35h1" />
<path stroke="#3a4e8c" d="M37 36h1M36 37h1M34 38h2M38 41h1M29 42h1M37 42h1M30 43h1M40 43h1M36 44h1M38 44h1M37 47h1M36 48h1M31 49h1M34 49h2M35 50h1" />
<path stroke="#6b6b6b" d="M37 37h2M36 38h3M36 39h3M30 40h2M35 40h2M27 42h1M33 42h2M32 43h3M33 44h1M32 45h2M37 45h1M32 46h1M36 46h1M32 47h2M32 48h1" />
<path stroke="#fffded" d="M24 43h1M25 44h2M24 45h1M31 45h1M36 45h1M24 46h2M34 46h2M43 46h1M25 47h1M31 47h1M36 47h1M41 47h2M34 48h2M43 48h1M42 49h2M29 50h1M42 50h1M36 51h1M38 51h1M36 52h1M38 52h1" />
<path stroke="#c4b86f" d="M26 43h1M24 44h1M32 44h1M25 45h2M35 45h1M41 46h1M35 47h1M43 47h1M41 48h2M30 49h1M30 50h1M37 50h1M37 51h1" />
</svg>