<svg xmlns="http://www.w3.org/2000/svg" viewBox="0 -0.5 68 56" shape-rendering="crispEdges">
<metadata>Made with Pixels to Svg https://codepen.io/shshaw/pen/XbxvNj</metadata>
<path stroke="#000000" d="M34 32h2M33 33h1M36 33h1M30 34h2M33 34h1M36 34h1M29 35h1M32 35h1M37 35h1M26 36h2M29 36h1M37 36h2M25 37h1M28 37h1M39 37h1M25 38h1M39 38h1M26 39h1M39 39h1M24 40h2M40 40h3M23 41h1M31 41h1M43 41h1M22 42h1M31 42h1M33 42h1M43 42h1M22 43h1M33 43h1M42 43h1M22 44h1M42 44h2M23 45h1M27 45h1M44 45h1M23 46h1M26 46h2M30 46h2M45 46h1M24 47h1M26 47h1M28 47h2M31 47h1M34 47h1M37 47h3M45 47h1M25 48h2M32 48h3M37 48h1M39 48h1M45 48h1M35 49h2M40 49h1M44 49h1M40 50h1M44 50h1M41 51h1M43 51h1M41 52h2" />
<path stroke="#b07ad5" d="M34 33h1M34 34h1M33 35h2M33 36h1M33 37h1M30 38h1M32 38h2M36 38h1M29 39h2M32 39h1M36 39h1M28 40h2M35 40h4M24 41h2M28 41h2M35 41h2M38 41h1M23 42h3M35 42h2M39 42h1M23 43h2M36 43h4M37 44h2M41 45h3M41 46h3M40 47h4M41 48h1" />
<path stroke="#8a54af" d="M35 33h1M35 34h1M35 35h2M34 36h3M30 37h2M34 37h2M29 38h1M34 38h1M33 39h2M37 39h2M30 40h1M32 40h2M39 40h1M27 41h1M32 41h2M37 41h1M39 41h1M29 42h1M32 42h1M37 42h2M25 43h1M32 43h1M35 43h1M24 44h1M36 44h1M39 44h1M44 46h1M44 47h1M40 48h1M42 48h1" />
<path stroke="#04d1ca" d="M30 35h2M30 36h1M26 37h2M37 37h2M27 38h1M37 38h1M41 41h2M41 42h1M29 44h1M28 45h2M24 46h1M29 46h1M32 46h1M35 46h1M32 47h1M35 47h2M35 48h1M42 50h1M42 51h1" />
<path stroke="#633781" d="M31 36h1M29 37h1M28 39h1M26 40h2M27 42h2M26 43h1M28 43h3M40 43h1M23 44h1M25 44h2M28 44h1M30 44h2M34 44h2M40 44h1M24 45h3M30 45h10M33 46h2M36 46h4M43 48h2M41 49h3M41 50h1" />
<path stroke="#414141" d="M32 36h1M32 37h1M36 37h1M31 38h1M35 38h1M31 39h1M35 39h1M31 40h1M34 40h1M26 41h1M34 41h1M26 42h1M27 43h1M27 44h1M32 44h1M41 44h1M40 45h1M40 46h1" />
<path stroke="#0baab0" d="M26 38h1M28 38h1M38 38h1M27 39h1M40 41h1M40 42h1M42 42h1M41 43h1M25 46h1M28 46h1M25 47h1M33 47h1M36 48h1M43 50h1" />
<path stroke="#dd7c20" d="M30 41h1M30 42h1" />
<path stroke="#ffc868" d="M34 42h1M31 43h1M34 43h1M33 44h1" />
</svg>