<svg xmlns="http://www.w3.org/2000/svg" viewBox="0 -0.5 68 56" shape-rendering="crispEdges">
<metadata>Made with Pixels to Svg https://codepen.io/shshaw/pen/XbxvNj</metadata>
<path stroke="#000000" d="M31 32h2M34 32h3M30 33h1M33 33h1M37 33h4M28 34h2M41 34h1M27 35h1M42 35h1M27 36h1M42 36h1M26 37h1M43 37h1M45 37h1M24 38h3M44 38h1M46 38h1M21 39h3M46 39h1M21 40h1M46 40h1M22 41h1M46 41h1M23 42h4M46 42h1M26 43h1M46 43h1M27 44h1M45 44h1M28 45h1M33 45h1M41 45h2M45 45h1M29 46h1M41 46h1M43 46h1M45 46h1M29 47h1M40 47h1M43 47h2M30 48h2M40 48h1M31 49h1M33 49h3M39 49h1M31 50h2M36 50h1M39 50h1M37 51h1M39 51h1M37 52h2" />
<path stroke="#817a71" d="M31 33h2M34 33h2M30 34h3M34 34h3M29 35h7M28 36h7M36 36h2M27 37h12M27 38h8M36 38h3M28 39h8M37 39h1M29 40h7M27 41h9M27 42h8M28 43h6M28 44h2M31 44h2" />
<path stroke="#635c53" d="M36 33h1M33 34h1M37 34h1M28 35h1M36 35h3M35 36h1M38 36h2M39 37h1M35 38h1M39 38h2M27 39h1M36 39h1M38 39h3M27 40h2M36 40h1M39 40h2M23 41h1M34 43h1M30 44h1M33 44h1M35 44h1M30 45h2M36 45h1M36 46h2M35 48h1" />
<path stroke="#414141" d="M38 34h1M39 35h1M40 36h1M40 37h1M41 38h1M41 39h1M37 40h2M41 40h1M26 41h1M36 41h1M39 41h3M35 42h1M42 42h3M27 43h1M35 43h1M44 43h1M36 44h1M42 44h2M29 45h1M35 45h1M37 45h4M35 46h1M38 46h1M34 47h1M36 47h2M32 48h2" />
<path stroke="#b5694d" d="M39 34h2M40 35h2M41 36h1M41 37h2M42 38h1M45 38h1M42 39h2M45 39h1M42 40h4M42 41h3M39 46h1M38 47h2M36 48h3M36 49h1M38 49h1" />
<path stroke="#944b30" d="M43 38h1M44 39h1M45 41h1M45 42h1M45 43h1M40 46h1M35 47h1M34 48h1M39 48h1" />
<path stroke="#fafa01" d="M24 39h1M26 39h1M24 40h1M26 40h1M39 42h1M41 42h1M39 43h1M41 43h1M32 45h1M34 45h1" />
<path stroke="#e6b7a1" d="M25 39h1M23 40h1M25 40h1M38 42h1M40 42h1M36 43h1M38 43h1M40 43h1M42 43h1M37 44h1" />
<path stroke="#ffe0cf" d="M22 40h1M37 41h2M36 42h2M37 43h1M43 43h1" />
<path stroke="#efef01" d="M24 41h1M34 44h1M39 44h1M41 44h1M33 46h1" />
<path stroke="#c79079" d="M25 41h1M38 44h1M40 44h1" />
<path stroke="#bdbdbd" d="M44 44h1M43 45h2M30 46h3M30 47h2M33 47h1M37 49h1M37 50h2" />
<path stroke="#7b7b7b" d="M34 46h1M44 46h1M32 47h1M32 49h1M38 51h1" />
</svg>