<svg xmlns="http://www.w3.org/2000/svg" viewBox="0 -0.5 68 56" shape-rendering="crispEdges">
<metadata>Made with Pixels to Svg https://codepen.io/shshaw/pen/XbxvNj</metadata>
<path stroke="#000000" d="M28 31h3M27 32h1M31 32h1M26 33h1M32 33h1M26 34h1M33 34h1M27 35h1M33 35h1M28 36h3M34 36h1M37 36h3M31 37h1M34 37h1M36 37h1M40 37h2M31 38h1M35 38h1M42 38h1M30 39h1M43 39h1M29 40h1M43 40h1M28 41h1M42 41h1M28 42h2M42 42h1M28 43h1M35 43h1M40 43h2M29 44h1M34 44h1M39 44h1M30 45h1M37 45h2M31 46h1M36 46h1M30 47h1M37 47h1M30 48h1M38 48h1M31 49h1M39 49h1M30 50h1M32 50h1M37 50h2M30 51h1M33 51h2M37 51h1M31 52h3M35 52h2" />
<path stroke="#f9aca2" d="M28 32h1M30 32h1M27 33h5M27 34h5M28 35h1M30 35h1M40 38h2M39 39h4M39 40h4M39 41h3M40 42h1M33 48h1M32 49h4M33 50h2" />
<path stroke="#da7a9d" d="M29 32h1M29 35h1M39 38h1M38 39h1M35 41h1M38 41h1M41 42h1M32 48h1M34 48h1M31 50h1M32 51h1M35 51h2" />
<path stroke="#c39676" d="M32 34h1M32 35h1M37 37h2M36 38h2M32 39h3M36 39h1M30 40h5M36 40h2M30 41h5M30 42h6M37 42h1M29 43h2M32 43h2M36 43h1M38 43h2M30 44h1M32 44h2M32 45h1M35 47h1M36 48h2M38 49h1" />
<path stroke="#9d6f4f" d="M31 35h1M32 36h2M33 37h1M39 37h1M32 38h3M38 38h1M31 39h1M37 39h1M38 40h1M37 41h1M38 42h2M31 44h1M36 44h2M31 45h1M33 45h4M33 46h2M31 47h1M33 47h2M37 49h1" />
<path stroke="#c2b2b2" d="M31 36h1M32 37h1M31 43h1" />
<path stroke="#414141" d="M35 39h1M35 40h1M36 41h1M36 42h1M37 43h1M35 44h1M38 44h1M32 46h1M35 46h1M32 47h1M36 47h1M31 48h1M35 48h1M36 49h1M35 50h2M31 51h1" />
<path stroke="#ffffff" d="M29 41h1M34 43h1" />
</svg>