<svg xmlns="http://www.w3.org/2000/svg" viewBox="0 -0.5 68 56" shape-rendering="crispEdges">
<metadata>Made with Pixels to Svg https://codepen.io/shshaw/pen/XbxvNj</metadata>
<path stroke="#000000" d="M33 33h2M30 34h3M35 34h1M29 35h1M36 35h3M28 36h1M39 36h1M27 37h2M40 37h1M26 38h1M40 38h1M25 39h1M40 39h1M25 40h1M41 40h1M26 41h1M42 41h1M27 42h1M42 42h1M27 43h1M41 43h1M27 44h1M34 44h1M40 44h1M28 45h2M40 45h1M30 46h1M39 46h1M30 47h1M38 47h1M29 48h1M39 48h1M29 49h1M40 49h1M29 50h1M39 50h1M30 51h2M35 51h1M38 51h2M32 52h3M36 52h2" />
<path stroke="#f89e3e" d="M33 34h2M30 35h1M32 35h1M35 35h1M30 36h1M32 36h1M35 36h1M37 36h2M29 37h2M33 37h2M36 37h1M39 37h1M28 38h1M36 38h1M39 38h1M26 39h3M37 39h2M26 40h3M39 40h2M27 41h1M38 41h1M40 41h2M38 42h4M39 43h2M38 44h1M37 45h3M38 46h1" />
<path stroke="#b9532e" d="M31 35h1M31 36h1M36 36h1M35 37h1M29 38h1M39 39h1M38 40h1M39 44h1M37 46h1" />
<path stroke="#ffffff" d="M33 35h1M29 36h1M37 37h1M27 38h1M39 41h1M33 43h1" />
<path stroke="#ffbd37" d="M34 35h1M33 36h2M38 37h1M37 38h2" />
<path stroke="#b62d52" d="M31 37h2M30 38h1M33 38h3M29 39h1M36 39h1M29 40h1M37 40h1M28 41h1M37 41h1M28 42h1M37 42h1M28 43h1M38 43h1M29 44h1M37 44h1M36 45h1" />
<path stroke="#d3365b" d="M31 38h2M30 39h6M30 40h7M30 41h4M35 41h2M30 42h2M31 43h1M37 43h1M30 45h2M32 46h2M35 46h2M34 47h1" />
<path stroke="#ffaa92" d="M29 41h1M33 42h3M29 43h2M32 43h1M35 43h2M30 44h3M35 44h2M33 45h3" />
<path stroke="#ea7678" d="M34 41h1M32 42h1M36 42h1M32 45h1" />
<path stroke="#414141" d="M29 42h1M34 43h1M33 44h1M31 46h1M34 46h1M32 47h2M36 47h2" />
<path stroke="#d07257" d="M28 44h1" />
<path stroke="#ebd0dd" d="M31 47h1M30 48h4M37 48h1M30 49h1M32 49h8M32 50h3M36 50h3M33 51h1M37 51h1" />
<path stroke="#da7255" d="M35 47h1" />
<path stroke="#8e5f76" d="M34 48h3M38 48h1M30 50h1" />
<path stroke="#c590a9" d="M31 49h1M31 50h1M35 50h1M32 51h1M34 51h1M36 51h1" />
</svg>