<svg xmlns="http://www.w3.org/2000/svg" viewBox="0 -0.5 68 56" shape-rendering="crispEdges">
<metadata>Made with Pixels to Svg https://codepen.io/shshaw/pen/XbxvNj</metadata>
<path stroke="#000000" d="M33 32h2M28 33h2M32 33h1M35 33h1M27 34h1M30 34h2M36 34h1M26 35h1M36 35h1M26 36h1M37 36h1M40 36h1M25 37h1M38 37h1M41 37h1M25 38h1M41 38h1M24 39h1M41 39h1M24 40h1M42 40h1M24 41h1M43 41h1M25 42h1M43 42h1M26 43h1M44 43h1M27 44h1M44 44h1M26 45h1M44 45h1M26 46h1M29 46h1M43 46h1M27 47h2M30 47h1M41 47h2M30 48h1M41 48h1M31 49h1M34 49h2M40 49h1M32 50h2M36 50h4" />
<path stroke="#bdac62" d="M33 33h1M35 34h1M30 35h1M29 36h1M35 36h1M34 37h1M26 38h1M37 38h1M25 39h2M36 39h1M26 40h1M39 41h2M39 42h3M27 43h1M39 43h4M40 44h3M28 45h2M42 45h2M27 46h2M37 46h1M31 48h1M33 48h1M38 48h3M32 49h2M36 49h1" />
<path stroke="#f6ee83" d="M34 33h1M28 34h2M33 34h2M27 35h3M32 35h4M27 36h2M30 36h1M32 36h3M27 37h3M31 37h3M35 37h2M39 37h2M27 38h2M31 38h3M36 38h1M38 38h3M28 39h1M31 39h2M37 39h3M25 40h1M28 40h1M31 40h1M36 40h3M40 40h2M25 41h3M31 41h1M35 41h2M41 41h2M26 42h2M34 42h1M42 42h1M28 43h1M43 43h1M38 44h2M43 44h1M36 45h6M38 46h5M31 47h1M34 47h3M32 48h1M35 48h3M37 49h3" />
<path stroke="#4a4a52" d="M32 34h1M31 35h1M31 36h1M36 36h1M39 36h1M26 37h1M30 37h1M37 37h1M34 38h2M27 39h1M33 39h3M40 39h1M27 40h1M30 40h1M32 40h4M39 40h1M30 41h1M33 41h2M37 41h2M31 42h1M33 42h1M35 42h4M32 43h1M34 43h3M38 43h1M28 44h1M33 44h1M27 45h1M30 46h1M33 47h1M37 47h4M34 48h1" />
<path stroke="#6d273d" d="M29 38h1M28 41h1M28 42h1M29 43h1M37 43h1M30 44h1M31 45h1M32 46h2" />
<path stroke="#7b376a" d="M30 38h1M29 39h2M29 40h1M29 41h1M29 42h1M30 43h2M33 43h1M29 44h1M31 44h1M36 44h2M30 45h1M32 45h4M31 46h1M34 46h3M32 47h1" />
<path stroke="#5aacff" d="M32 41h1M32 42h1" />
<path stroke="#6a5239" d="M30 42h1M34 44h2" />
<path stroke="#f67b7b" d="M32 44h1" />
</svg>