<svg xmlns="http://www.w3.org/2000/svg" viewBox="0 -0.5 68 56" shape-rendering="crispEdges">
<metadata>Made with Pixels to Svg https://codepen.io/shshaw/pen/XbxvNj</metadata>
<path stroke="#000000" d="M27 36h3M26 37h1M30 37h1M26 38h1M30 38h1M33 38h4M26 39h1M30 39h3M37 39h1M40 39h1M42 39h1M27 40h1M32 40h1M37 40h1M40 40h3M26 41h1M37 41h1M40 41h4M23 42h1M25 42h1M36 42h1M41 42h1M22 43h4M27 43h1M37 43h1M40 43h1M23 44h1M25 44h1M37 44h1M40 44h2M24 45h2M31 45h1M38 45h1M41 45h2M26 46h1M38 46h1M42 46h1M25 47h1M38 47h1M41 47h1M26 48h1M38 48h3M26 49h1M37 49h1M27 50h4M37 50h1M31 51h3M36 51h1M33 52h3" />
<path stroke="#efc50f" d="M27 37h2M29 38h1M34 39h2M33 40h1M36 40h1M36 41h1M35 42h1M28 48h1M31 50h2" />
<path stroke="#414141" d="M29 37h1M33 39h1M36 39h1M29 40h1M27 41h1M26 42h1M34 43h2M34 45h1M36 45h1M33 46h5M34 47h1M36 47h1M27 48h1M33 48h1" />
<path stroke="#ffff34" d="M27 38h2M27 39h3M28 40h1M34 40h2M33 41h3M33 42h2M29 48h1M29 49h2" />
<path stroke="#b37656" d="M30 40h1M28 41h4M28 42h4M28 43h5M27 44h1M29 44h2M33 44h1M30 45h1M33 45h1M27 46h1M30 46h2M26 47h1M28 47h4M30 48h1M32 48h1M27 49h1M34 51h1" />
<path stroke="#8d553b" d="M31 40h1M32 41h1M32 42h1M33 43h1M28 44h1M32 44h1M34 44h3M26 45h1M32 45h1M35 45h1M37 45h1M35 47h1M37 47h1M34 48h4M28 49h1M33 49h4M33 50h1M36 50h1M35 51h1" />
<path stroke="#ffffff" d="M27 42h1M26 43h1M26 44h1M31 44h1M28 45h1M32 46h1M32 47h2" />
<path stroke="#6e3d26" d="M36 43h1M27 45h1M27 47h1M31 48h1M31 49h2M34 50h2" />
<path stroke="#c55252" d="M29 45h1M29 46h1" />
<path stroke="#9c4a4a" d="M28 46h1" />
</svg>