<svg xmlns="http://www.w3.org/2000/svg" viewBox="0 -0.5 68 56" shape-rendering="crispEdges">
<metadata>Made with Pixels to Svg https://codepen.io/shshaw/pen/XbxvNj</metadata>
<path stroke="#000000" d="M37 30h3M36 31h1M40 31h1M35 32h1M41 32h1M29 33h1M35 33h1M42 33h1M28 34h1M30 34h1M34 34h1M42 34h1M27 35h1M30 35h1M34 35h1M43 35h1M25 36h2M31 36h2M35 36h1M44 36h1M24 37h1M33 37h1M35 37h1M44 37h1M24 38h1M33 38h1M36 38h4M45 38h1M23 39h1M29 39h1M34 39h1M40 39h1M45 39h1M23 40h1M30 40h1M34 40h1M40 40h1M46 40h1M22 41h1M29 41h1M34 41h1M38 41h2M46 41h1M22 42h1M35 42h3M46 42h1M23 43h1M46 43h1M24 44h1M46 44h1M23 45h1M45 45h1M22 46h1M45 46h1M22 47h1M44 47h1M23 48h1M26 48h2M44 48h1M24 49h2M28 49h1M43 49h1M29 50h1M41 50h2M30 51h2M39 51h2M32 52h7" />
<path stroke="#eeefe6" d="M37 31h3M38 32h3M36 33h2M40 33h2M29 34h1M35 34h5M41 34h1M29 35h1M39 35h2M42 35h1M27 36h1M29 36h2M41 36h3M26 37h6M42 37h2M25 38h8M42 38h3M24 39h4M31 39h3M41 39h4M24 40h4M31 40h3M41 40h5M23 41h1M26 41h2M31 41h3M40 41h6M23 42h12M38 42h8M24 43h1M27 43h3M31 43h15M31 44h15M28 45h1M32 45h5M39 45h6M33 46h1M36 46h3M42 46h3M35 47h1M38 47h4M43 47h1M36 48h2M40 48h2M38 49h3M39 50h2" />
<path stroke="#909184" d="M36 32h2M38 33h2M40 34h1M28 35h1M35 35h3M28 36h1M38 36h2M25 37h1M32 37h1M41 37h1M27 45h1M29 45h1M24 46h2M28 46h1M34 46h2M36 47h2" />
<path stroke="#c7c9b9" d="M38 35h1M41 35h1M36 36h2M40 36h1M36 37h5M40 38h1M28 39h1M30 39h1M25 44h2M30 44h1M24 45h1M26 45h1M30 45h2M23 46h1M27 46h1M29 46h4M23 47h4M28 47h5M24 48h2M29 48h6M38 48h2M43 48h1M29 49h7M42 49h1M30 50h8M32 51h7" />
<path stroke="#414141" d="M41 38h1M24 41h2M30 41h1M25 43h2M30 43h1M27 44h3M25 45h1M37 45h2M26 46h1M39 46h3M27 47h1M33 47h2M42 47h1M28 48h1M35 48h1M42 48h1M36 49h2M41 49h1M38 50h1" />
<path stroke="#846b42" d="M28 40h1M28 41h1" />
<path stroke="#ffffff" d="M29 40h1" />
</svg>