<svg xmlns="http://www.w3.org/2000/svg" viewBox="0 -0.5 68 56" shape-rendering="crispEdges">
<metadata>Made with Pixels to Svg https://codepen.io/shshaw/pen/XbxvNj</metadata>
<path stroke="#000000" d="M32 33h4M30 34h2M36 34h2M29 35h1M38 35h1M28 36h1M39 36h1M28 37h1M39 37h1M27 38h1M40 38h1M27 39h1M40 39h1M27 40h1M40 40h1M28 41h1M39 41h1M28 42h1M39 42h1M29 43h1M38 43h1M30 44h2M37 44h1M31 45h1M36 45h1M30 46h1M37 46h1M29 47h1M32 47h1M38 47h1M29 48h1M31 48h1M33 48h1M36 48h1M39 48h1M30 49h1M34 49h2M37 49h1M39 49h1M37 50h1M39 50h1M37 51h1M39 51h1M38 52h1" />
<path stroke="#b4deee" d="M32 34h4M30 35h3M35 35h3M30 36h2M37 36h2M29 37h2M29 38h1M31 41h1M33 42h1" />
<path stroke="#62838b" d="M33 35h2M32 36h1M34 36h3M31 37h1M33 37h2M37 37h1M30 38h1M35 38h2M29 39h1M31 39h1M29 40h1M31 40h1M34 40h3M29 41h1M32 41h2M30 42h1M32 42h1M33 43h1M34 44h1M34 47h1M34 48h2" />
<path stroke="#bb84e0" d="M29 36h1M28 38h1M38 38h1M28 39h1M38 39h1M28 40h1M38 40h1M38 41h1M37 42h1M34 46h1M36 46h1M33 47h1M35 47h1M37 47h1M38 48h1M38 49h1M38 50h1M38 51h1" />
<path stroke="#de6a45" d="M33 36h1M35 37h2M30 39h1M30 40h1M30 41h1M34 41h3M31 42h1M34 42h2M34 43h2" />
<path stroke="#7b9cac" d="M32 37h1M31 38h4M32 39h5M32 40h2M32 43h1M33 44h1" />
<path stroke="#414141" d="M38 37h1M37 38h1M39 38h1M37 39h1M39 39h1M37 40h1M39 40h1M37 41h1M36 42h1M38 42h1M31 43h1M36 43h1M32 44h1M35 44h1M33 45h2M32 46h1M35 46h1M31 47h1M36 47h1M37 48h1" />
<path stroke="#9863bd" d="M29 42h1M30 43h1M37 43h1M36 44h1M32 45h1M35 45h1M31 46h1M33 46h1M30 47h1M30 48h1" />
</svg>