<svg xmlns="http://www.w3.org/2000/svg" viewBox="0 -0.5 68 56" shape-rendering="crispEdges">
<metadata>Made with Pixels to Svg https://codepen.io/shshaw/pen/XbxvNj</metadata>
<path stroke="#000000" d="M33 31h4M32 32h1M37 32h1M31 33h1M34 33h1M38 33h1M30 34h1M34 34h1M38 34h1M30 35h1M38 35h1M30 36h1M38 36h1M31 37h1M38 37h1M29 38h2M38 38h1M28 39h1M38 39h1M27 40h1M39 40h1M25 41h3M30 41h1M40 41h2M24 42h1M30 42h1M37 42h1M42 42h1M23 43h1M37 43h1M43 43h1M23 44h1M43 44h1M24 45h1M42 45h1M24 46h1M43 46h1M25 47h1M44 47h1M26 48h2M44 48h1M28 49h2M42 49h2M30 50h1M34 50h2M41 50h1M31 51h3M36 51h1M39 51h2M37 52h2" />
<path stroke="#b5845a" d="M33 32h3M32 33h2M35 33h2M33 34h1M35 34h3M34 35h4M35 36h3M34 37h3M30 39h1M29 40h3M36 40h2M28 41h2M31 41h2M35 41h4M31 42h2M35 42h2M38 42h2M31 43h1M38 43h2M38 44h2M37 45h2" />
<path stroke="#9f645e" d="M36 32h1M37 33h1M32 34h1M37 37h1M32 38h6M29 39h1M31 39h1M33 39h3M28 40h1M32 40h1M34 40h1M38 40h1M39 41h1M29 42h1M33 42h1M32 43h1M30 44h3M37 44h1M29 45h2M33 45h1M39 45h1M34 46h5M34 47h5M35 48h3" />
<path stroke="#414141" d="M31 34h1M31 38h1M32 39h1M36 39h2M33 40h1M35 40h1M33 41h2M26 42h1M34 42h1M40 42h1M26 43h1M33 43h1M40 43h1M25 44h1M27 44h1M33 44h1M40 44h2M28 45h1M31 45h2M34 45h1M40 45h1M28 46h3M33 46h1M39 46h1M27 47h2M33 47h1M39 47h1M41 47h1M30 48h1M34 48h1M38 48h1M42 48h1M36 49h1M38 49h1M39 50h1" />
<path stroke="#ffffff" d="M31 35h1M27 42h1M35 43h1" />
<path stroke="#5773f4" d="M32 35h2M32 36h1M28 42h1M28 43h2M34 43h1M35 44h2" />
<path stroke="#3a51ba" d="M31 36h1M33 36h1M27 43h1M36 43h1M34 44h1" />
<path stroke="#7b4a3a" d="M34 36h1M32 37h2M30 43h1M28 44h2M35 45h2" />
<path stroke="#7b7b7b" d="M25 42h1M41 42h1M24 43h2M41 43h2M24 44h1M26 44h1M42 44h1M25 45h2M41 45h1M25 46h1M40 46h3M29 47h1M32 47h1M42 47h2M28 48h2M31 48h3M39 48h2M43 48h1M30 49h2M34 49h2M37 49h1M39 49h3M31 50h3M36 50h3M40 50h1M37 51h2" />
<path stroke="#bdbdb5" d="M27 45h1M26 46h2M31 46h2M26 47h1M30 47h2M40 47h1M41 48h1M32 49h2" />
</svg>