<svg xmlns="http://www.w3.org/2000/svg" viewBox="0 -0.5 68 56" shape-rendering="crispEdges">
<metadata>Made with Pixels to Svg https://codepen.io/shshaw/pen/XbxvNj</metadata>
<path stroke="#000000" d="M33 29h3M32 30h1M36 30h2M33 31h1M38 31h1M32 32h1M36 32h2M27 33h2M30 33h2M37 33h1M27 34h1M29 34h1M31 34h1M37 34h1M26 35h2M37 35h1M39 35h2M26 36h1M37 36h2M41 36h1M20 37h3M27 37h1M42 37h2M19 38h1M23 38h3M27 38h1M43 38h1M19 39h1M26 39h1M42 39h1M20 40h1M43 40h1M21 41h1M43 41h1M22 42h1M26 42h2M44 42h1M22 43h1M24 43h2M27 43h1M45 43h1M22 44h2M27 44h1M45 44h2M28 45h1M47 45h1M29 46h1M47 46h1M30 47h2M38 47h2M41 47h2M46 47h2M32 48h1M37 48h1M39 48h2M43 48h3M31 49h1M36 49h2M32 50h3M38 50h1M35 51h4" />
<path stroke="#aec22d" d="M33 30h1M35 30h1M37 31h1M36 34h1M28 40h1M28 43h1M34 43h1M33 44h1M35 44h1M32 47h1M35 47h1" />
<path stroke="#feff3a" d="M34 30h1M35 31h2M32 33h1M33 34h3M27 39h1M41 41h2M28 42h1M40 42h1M35 43h2M34 44h1M29 45h1M38 45h1M30 46h1M32 46h1M34 46h2M37 46h1M33 47h1M36 47h1" />
<path stroke="#414141" d="M34 31h1M35 32h1M28 35h1M30 35h1M29 36h2M30 37h2M34 37h1M37 37h1M39 37h3M20 38h1M28 38h1M30 38h1M33 38h1M36 38h3M21 39h1M24 39h2M29 39h1M31 39h2M36 39h1M41 39h1M22 40h1M25 40h2M29 40h1M38 40h3M22 41h2M25 41h2M28 41h1M30 41h1M33 41h3M39 41h1M25 42h1M31 42h2M36 42h3M41 42h3M38 43h1M40 43h5M28 44h1M39 44h3M43 44h1M39 45h2M43 45h1M45 45h1M39 46h1M41 46h5M33 48h4M35 49h1M35 50h3" />
<path stroke="#95bbe2" d="M33 32h2M33 33h4M32 34h1M31 35h6M32 36h5M39 36h2M35 37h2M38 37h1M21 38h2M35 38h1M39 38h4M23 39h1M30 39h1M34 39h1M38 39h2M24 40h1M30 40h4M36 40h2M24 41h1M31 41h2M37 41h2M23 43h1M42 44h1M44 44h1M42 45h1M44 45h1M46 45h1M40 46h1M46 46h1M40 47h1" />
<path stroke="#608bb5" d="M28 34h1M30 34h1M29 35h1M27 36h2M31 36h1M29 37h1M32 37h2M29 38h1M40 39h1M35 40h1M24 42h1" />
<path stroke="#3e6287" d="M28 37h1M34 38h1M20 39h1M22 39h1M28 39h1M33 39h1M35 39h1M37 39h1M21 40h1M23 40h1M27 40h1M34 40h1M41 40h2M27 41h1M29 41h1M36 41h1M40 41h1M23 42h1M29 42h2M33 42h3M39 42h1M29 43h5M37 43h1M39 43h1M29 44h4M36 44h3M30 45h8M41 45h1M31 46h1M33 46h1M36 46h1M38 46h1M34 47h1M37 47h1M43 47h3M32 49h3" />
<path stroke="#f76352" d="M31 38h2" />
</svg>