<svg xmlns="http://www.w3.org/2000/svg" viewBox="0 -0.5 68 56" shape-rendering="crispEdges">
<metadata>Made with Pixels to Svg https://codepen.io/shshaw/pen/XbxvNj</metadata>
<path stroke="#000000" d="M33 28h1M32 29h1M34 29h1M31 30h1M34 30h1M29 31h2M35 31h1M28 32h1M35 32h1M28 33h1M34 33h1M37 33h2M28 34h1M35 34h2M38 34h1M27 35h1M38 35h1M27 36h1M39 36h1M27 37h1M39 37h3M27 38h1M42 38h1M27 39h1M41 39h1M28 40h1M33 40h1M40 40h1M26 41h2M40 41h1M25 42h1M41 42h1M24 43h1M28 43h2M42 43h2M25 44h3M29 44h1M44 44h1M28 45h1M44 45h1M28 46h1M45 46h1M27 47h1M45 47h1M28 48h1M46 48h1M29 49h1M40 49h1M46 49h1M30 50h3M39 50h1M41 50h2M46 50h1M33 51h2M38 51h1M43 51h4M35 52h3" />
<path stroke="#f3ff3a" d="M33 29h1M33 30h1M31 31h3M32 32h3M32 33h1M32 34h1M37 34h1M32 35h1M37 35h1M31 36h1M36 36h2M31 37h1M37 37h1M31 38h1M36 38h2M30 39h2M36 39h1M30 40h2M35 40h2M30 41h1M32 41h4M30 42h3M35 51h1M37 51h1" />
<path stroke="#bdbb3a" d="M32 30h1M34 31h1M29 32h1M31 32h1M29 33h2M33 33h1M29 34h1M28 35h2M31 35h1M36 35h1M28 36h1M32 36h1M28 37h1M28 38h1M30 38h1M28 39h2M29 40h1M31 41h1M33 42h1M28 47h1M36 51h1" />
<path stroke="#353535" d="M30 32h1M31 33h1M31 34h1M33 34h1M30 35h1M33 35h1M35 35h1M30 36h1M33 36h1M35 36h1M30 37h1M32 37h1M36 37h1M29 38h1M32 38h1M32 39h1M28 41h1M39 41h1M26 42h4M37 42h2M40 42h1M35 43h2M37 44h1M37 45h3M38 46h1M40 46h1M29 47h1M38 47h1M41 47h1M39 48h1" />
<path stroke="#3a5873" d="M30 34h1M34 34h1M34 35h1M29 36h1M34 36h1M38 36h1M29 37h1M34 37h2M38 37h1M34 38h1M38 38h2M37 39h1M29 41h1M39 42h1M30 43h1M37 43h5M36 44h1M38 44h6M35 45h2M40 45h4M36 46h2M41 46h4M34 47h1M36 47h2M42 47h3M36 48h3M43 48h2M32 49h8M33 50h6" />
<path stroke="#5bd4dc" d="M33 37h1M33 38h1M35 38h1M41 38h1M35 39h1M39 39h2M38 40h2M37 41h2M36 42h1M34 43h1M32 44h1M32 45h1M31 46h1M39 46h1M30 47h2M39 47h2M29 48h3M40 48h3M45 48h1M31 49h1M41 49h5M43 50h3" />
<path stroke="#50aac2" d="M40 38h1M33 39h2M38 39h1M37 40h1M36 41h1M34 42h2M25 43h3M31 43h3M31 44h1M31 45h1M30 46h1M32 46h1M30 49h1" />
<path stroke="#ffffff" d="M32 40h1M34 40h1M33 44h2M33 45h1M33 46h2M33 47h1M35 47h1M32 48h1M34 48h1" />
<path stroke="#bdbdbd" d="M30 44h1M29 45h2M29 46h1M32 47h1" />
<path stroke="#658ba1" d="M35 44h1M34 45h1M35 46h1M33 48h1M35 48h1" />
</svg>