<svg xmlns="http://www.w3.org/2000/svg" viewBox="0 -0.5 68 56" shape-rendering="crispEdges">
<metadata>Made with Pixels to Svg https://codepen.io/shshaw/pen/XbxvNj</metadata>
<path stroke="#000000" d="M29 35h3M34 35h4M28 36h1M32 36h2M38 36h2M27 37h1M40 37h1M27 38h1M41 38h1M26 39h1M41 39h1M24 40h2M42 40h1M23 41h1M43 41h2M23 42h1M45 42h1M24 43h2M27 43h1M45 43h1M26 44h1M43 44h2M25 45h1M33 45h1M42 45h1M25 46h1M43 46h1M26 47h1M44 47h1M26 48h1M44 48h1M27 49h1M41 49h3M28 50h1M40 50h1M29 51h2M34 51h2M38 51h2M31 52h3M36 52h2" />
<path stroke="#e5df6f" d="M29 36h3M34 36h4M31 37h8M28 38h1M30 38h5M38 38h1M29 39h5M35 39h2M39 39h1M27 40h1M29 40h3M34 40h2M40 40h2M28 41h9M39 41h2M29 42h3M34 42h8M29 43h2M35 43h6M36 44h2M41 44h1M26 45h1M26 46h2M27 47h4M30 48h2M31 49h2M35 49h2M32 50h4" />
<path stroke="#baaa44" d="M28 37h1M39 37h1M40 38h1M37 39h1M28 40h1M32 40h2M38 40h2M37 41h2M41 43h1M28 48h2M28 49h1M39 49h2M29 50h2M36 50h4M31 51h3M36 51h2" />
<path stroke="#917b1b" d="M29 37h2M29 38h1M39 38h1M28 39h1M34 39h1M38 39h1M40 39h1M36 40h2M29 49h2M31 50h1" />
<path stroke="#414141" d="M35 38h3M27 39h1M27 41h1M41 41h2M24 42h1M26 42h1M28 42h1M32 42h2M42 42h1M28 43h1M31 43h4M28 44h4M35 44h1M38 44h3M42 44h1M28 45h2M31 45h1M35 45h4M28 46h3M35 46h3M31 47h1M33 47h3M27 48h1M32 48h1M35 48h2M39 48h2M43 48h1M33 49h2M37 49h2" />
<path stroke="#755901" d="M26 40h1M24 41h3M25 42h1M44 43h1M39 45h1M41 45h1M38 46h1M38 47h1" />
<path stroke="#dedede" d="M27 42h1M27 44h1" />
<path stroke="#9a8515" d="M43 42h2M26 43h1M42 43h2M27 45h1M30 45h1M40 45h1M31 46h1M39 46h1M42 46h1M32 47h1M36 47h2M39 47h3M33 48h2M37 48h2M41 48h2" />
<path stroke="#a5a5ad" d="M32 44h1M34 44h1M32 46h1M34 46h1" />
<path stroke="#ffffff" d="M33 44h1M32 45h1M34 45h1M33 46h1" />
<path stroke="#cbc146" d="M40 46h2M42 47h2" />
</svg>