<svg xmlns="http://www.w3.org/2000/svg" viewBox="0 -0.5 68 56" shape-rendering="crispEdges">
<metadata>Made with Pixels to Svg https://codepen.io/shshaw/pen/XbxvNj</metadata>
<path stroke="#000000" d="M27 27h4M25 28h2M31 28h3M40 28h2M43 28h2M24 29h1M34 29h1M39 29h1M42 29h1M45 29h1M24 30h1M35 30h1M38 30h1M46 30h1M23 31h1M35 31h1M38 31h1M46 31h1M22 32h1M36 32h1M38 32h1M46 32h1M22 33h1M36 33h1M39 33h1M45 33h1M22 34h1M36 34h1M40 34h1M44 34h1M23 35h1M35 35h1M41 35h1M43 35h1M23 36h1M36 36h1M41 36h1M43 36h1M24 37h1M28 37h1M36 37h1M40 37h1M42 37h1M24 38h1M35 38h1M38 38h3M42 38h1M23 39h1M34 39h1M36 39h2M41 39h1M24 40h2M35 40h1M42 40h1M25 41h1M42 41h1M25 42h1M42 42h1M25 43h1M37 43h2M42 43h1M26 44h2M36 44h1M39 44h1M42 44h1M27 45h1M36 45h1M40 45h1M43 45h1M28 46h1M35 46h1M39 46h1M43 46h1M27 47h1M32 47h1M35 47h1M38 47h1M43 47h1M26 48h1M31 48h1M33 48h1M35 48h1M38 48h2M42 48h1M26 49h1M30 49h1M32 49h1M36 49h1M39 49h3M27 50h3M31 50h1M36 50h1M31 51h1M35 51h1M32 52h3" />
<path stroke="#595959" d="M27 28h3M26 29h5M32 29h2M25 30h10M26 31h9M24 32h12M23 33h1M26 33h1M29 33h7M30 34h5M31 35h3M40 39h1M39 40h3M39 41h3M29 42h3M40 42h1M28 43h4M28 44h4M29 45h2" />
<path stroke="#303030" d="M30 28h1M25 29h1M31 29h1M24 31h1M34 35h1M34 36h1M34 38h1M30 40h1" />
<path stroke="#ef7b84" d="M40 29h2M43 29h2M39 30h2M42 30h4M39 31h7M40 32h5M24 34h1M27 34h2M24 35h5M25 36h3M26 37h1M41 45h1M40 46h3M39 47h1M42 47h1M33 49h1M35 49h1M32 50h4M34 51h1" />
<path stroke="#bd636b" d="M41 30h1M39 32h1M45 32h1M40 33h5M23 34h1M25 34h2M41 34h3M29 35h1M24 36h1M25 37h1M42 45h1M28 47h1M27 48h3M29 49h1M34 49h1" />
<path stroke="#363636" d="M25 31h1M23 32h1M35 34h1M30 35h1M31 36h2M35 36h1M34 37h2M39 39h1M41 42h1M32 44h1M35 44h1M28 45h1M31 45h5M29 46h3M33 46h1M30 47h2" />
<path stroke="#944a52" d="M24 33h2M27 33h2M29 34h1M42 35h1" />
<path stroke="#4a737b" d="M28 36h3M27 37h1M24 39h1" />
<path stroke="#353535" d="M33 36h1M31 37h1M33 37h1M31 38h1M31 39h1M38 39h1M26 40h1M31 40h1M38 40h1M27 41h2M31 41h1M35 41h1M38 41h1M28 42h1M35 42h1M39 42h1M32 43h1M35 43h1M40 43h2M33 44h2M32 46h1" />
<path stroke="#a5ad8c" d="M42 36h1M25 38h1M30 38h1M33 38h1M30 39h1M27 40h1M34 40h1M37 40h1M32 42h1M27 43h1M34 43h1M41 44h1M34 46h1M33 47h1" />
<path stroke="#d63131" d="M29 37h1" />
<path stroke="#ffffff" d="M30 37h1M28 38h2" />
<path stroke="#dee6ce" d="M32 37h1M41 37h1M26 38h2M32 38h1M41 38h1M25 39h5M32 39h2M28 40h2M32 40h2M36 40h1M26 41h1M32 41h3M36 41h2M26 42h2M33 42h2M36 42h3M26 43h1M33 43h1M36 43h1M39 43h1M40 44h1M29 47h1M34 47h1M40 47h2M30 48h1M34 48h1M40 48h2M27 49h2M32 51h2" />
<path stroke="#414141" d="M29 41h2" />
</svg>