<svg xmlns="http://www.w3.org/2000/svg" viewBox="0 -0.5 68 56" shape-rendering="crispEdges">
<metadata>Made with Pixels to Svg https://codepen.io/shshaw/pen/XbxvNj</metadata>
<path stroke="#000000" d="M23 31h1M22 32h1M24 32h2M22 33h1M26 33h1M28 33h3M36 33h1M23 34h1M27 34h1M31 34h2M34 34h2M37 34h1M23 35h1M33 35h1M37 35h1M24 36h1M37 36h1M23 37h1M36 37h1M23 38h2M29 38h1M36 38h1M23 39h1M35 39h1M24 40h1M29 40h1M34 40h1M24 41h1M35 41h1M38 41h2M25 42h2M34 42h1M37 42h1M40 42h1M27 43h2M34 43h1M36 43h1M40 43h3M29 44h1M35 44h1M43 44h1M29 45h1M43 45h1M28 46h1M43 46h1M28 47h1M43 47h1M27 48h1M44 48h1M27 49h1M44 49h1M28 50h4M37 50h2M41 50h3M32 51h2M36 51h1M39 51h2M34 52h2" />
<path stroke="#6f5f3a" d="M23 32h1M23 33h3M24 34h1M25 39h3M28 40h1M30 40h2M31 41h1M31 42h2M32 43h2M39 44h1M40 45h1M41 46h1M37 47h2" />
<path stroke="#414141" d="M25 34h2M28 34h1M24 35h1M26 35h1M28 35h1M32 35h1M26 36h2M31 36h1M31 39h1M32 40h2M25 41h1M33 42h1M37 43h3M40 44h1M41 45h2M29 46h1M42 47h1M28 48h1M33 48h1M39 48h3M43 48h1M29 49h1M34 49h4M41 49h1" />
<path stroke="#8e7e59" d="M29 34h2M36 34h1M29 35h2M34 35h3M25 36h1M28 36h2M32 36h5M25 37h4M30 37h6M25 38h4M30 38h6M28 39h1M30 39h1M32 39h3M32 41h3M38 42h2M33 44h2M36 44h3M41 44h2M33 45h3M38 45h2M33 46h6M34 47h3" />
<path stroke="#c69d4f" d="M25 35h1M24 39h1M30 42h1M31 43h1M31 44h1M42 46h1M39 47h3M37 48h2" />
<path stroke="#ffffff" d="M27 35h1M24 37h1M29 39h1" />
<path stroke="#f7d429" d="M31 35h1M30 36h1M29 37h1M29 41h2M32 44h1M32 45h1M32 46h1M33 47h1M34 48h3" />
<path stroke="#ff9a90" d="M25 40h3M26 41h3M27 42h3M30 45h2M36 45h2M30 46h2M29 47h4M30 48h2" />
<path stroke="#ef6e62" d="M29 43h2M30 44h1M39 46h2M29 48h1M32 48h1M42 48h1M28 49h1M30 49h4M38 49h3M42 49h2M32 50h5M39 50h2M34 51h2" />
</svg>