<svg xmlns="http://www.w3.org/2000/svg" viewBox="0 -0.5 68 56" shape-rendering="crispEdges">
<metadata>Made with Pixels to Svg https://codepen.io/shshaw/pen/XbxvNj</metadata>
<path stroke="#000000" d="M32 26h2M31 27h1M33 27h1M30 28h1M33 28h1M30 29h1M33 29h1M29 30h1M32 30h1M34 30h2M28 31h1M32 31h2M35 31h1M43 31h3M28 32h1M36 32h2M41 32h2M45 32h1M49 32h2M27 33h1M37 33h1M39 33h2M44 33h1M48 33h1M50 33h1M27 34h1M37 34h2M44 34h1M46 34h2M50 34h1M26 35h1M43 35h1M45 35h1M50 35h1M26 36h1M42 36h1M45 36h1M49 36h1M26 37h1M42 37h1M44 37h1M49 37h2M21 38h2M25 38h1M43 38h1M50 38h1M20 39h1M22 39h1M25 39h1M50 39h1M20 40h1M22 40h1M24 40h1M27 40h1M31 40h1M49 40h1M18 41h2M22 41h2M31 41h1M49 41h1M17 42h1M24 42h2M48 42h1M17 43h1M23 43h1M25 43h1M48 43h1M17 44h1M24 44h1M26 44h1M46 44h2M18 45h1M23 45h1M26 45h1M42 45h4M18 46h1M23 46h1M27 46h1M42 46h1M19 47h4M28 47h1M41 47h1M29 48h2M41 48h2M31 49h2M42 49h1M33 50h1M41 50h1M33 51h1M41 51h1M33 52h1M40 52h1M34 53h2M38 53h2M36 54h2" />
<path stroke="#fffdff" d="M32 27h1M32 28h1M31 29h1M30 30h2M29 31h3M34 31h1M29 32h3M33 32h2M43 32h2M28 33h3M32 33h2M41 33h3M49 33h1M28 34h2M31 34h3M39 34h4M48 34h2M27 35h6M38 35h5M46 35h1M48 35h1M27 36h1M31 36h3M36 36h6M46 36h1M27 37h1M31 37h10M46 37h1M27 38h1M31 38h9M21 39h1M27 39h1M31 39h2M34 39h6M42 39h2M21 40h1M28 40h3M35 40h1M37 40h2M40 40h3M44 40h5M21 41h1M26 41h4M34 41h2M37 41h5M18 42h1M20 42h3M27 42h4M33 42h2M38 42h2M29 43h4M38 43h1M38 44h1M37 45h2M41 45h1M37 46h2M40 46h2M34 47h1M36 47h2M39 47h2M38 48h2" />
<path stroke="#c0bbc7" d="M31 28h1M32 29h1M36 33h1M35 34h2M43 34h1M33 35h3M48 36h1M45 37h1M47 37h2M41 38h1M45 38h3M49 38h1M45 39h5M36 40h1M20 41h1M24 41h1M23 42h1M19 46h1M22 46h1" />
<path stroke="#414141" d="M32 32h1M35 32h1M31 33h1M34 33h2M30 34h1M34 34h1M36 35h2M47 35h1M49 35h1M34 36h2M47 36h1M41 37h1M40 38h1M42 38h1M44 38h1M48 38h1M40 39h2M44 39h1M25 40h1M39 40h1M43 40h1M25 41h1M36 41h1M42 41h1M19 42h1M26 42h1M35 42h1M37 42h1M43 42h1M19 43h1M27 43h2M33 43h2M37 43h1M39 43h1M42 43h1M47 43h1M29 44h4M37 44h1M39 44h1M41 44h2M45 44h1M36 45h1M39 45h2M34 46h1M36 46h1M39 46h1M33 47h1M35 47h1M38 47h1M33 48h1M35 48h1M33 49h1M40 49h1M34 50h1M39 50h1M34 51h1" />
<path stroke="#ffea9d" d="M28 36h1M30 36h1M28 39h1M30 39h1" />
<path stroke="#ffd63a" d="M29 36h1M28 37h1M30 37h1M28 38h1M30 38h1M29 39h1" />
<path stroke="#ef7b73" d="M29 37h1" />
<path stroke="#ada8aa" d="M26 38h1M34 40h1" />
<path stroke="#c7504a" d="M29 38h1" />
<path stroke="#9d9594" d="M26 39h1M33 39h1M26 40h1M32 40h2M30 41h1M32 41h2M31 42h2" />
<path stroke="#f0c2d0" d="M43 41h6M40 42h2M18 43h1M20 43h3M28 44h1M28 45h1M34 48h1M36 48h2M40 48h1M37 49h3" />
<path stroke="#ffffff" d="M36 42h1M35 43h2M34 44h2M29 45h2M32 45h1M34 45h1" />
<path stroke="#e188a2" d="M42 42h1M40 43h2M46 43h1M18 44h6M40 44h1M43 44h2M19 45h4M27 45h1M20 46h2M28 46h1M29 47h2M31 48h2M34 49h3M41 49h1M35 50h4M40 50h1M35 51h6M34 52h6M36 53h2" />
<path stroke="#e8a5b9" d="M44 42h4M43 43h3" />
<path stroke="#bdadb5" d="M26 43h1M27 44h1M33 44h1M31 45h1M33 45h1M31 46h1M33 46h1" />
<path stroke="#efb5ad" d="M36 44h1M35 45h1M29 46h2M32 46h1M35 46h1M31 47h2" />
</svg>