<svg xmlns="http://www.w3.org/2000/svg" viewBox="0 -0.5 68 56" shape-rendering="crispEdges">
<metadata>Made with Pixels to Svg https://codepen.io/shshaw/pen/XbxvNj</metadata>
<path stroke="#000000" d="M25 38h2M24 39h1M27 39h1M39 39h4M23 40h1M28 40h1M32 40h1M34 40h1M36 40h1M38 40h1M43 40h1M22 41h1M28 41h1M31 41h1M33 41h1M35 41h1M37 41h2M44 41h1M22 42h1M27 42h1M31 42h1M33 42h1M35 42h1M37 42h2M44 42h1M23 43h1M28 43h1M30 43h2M37 43h1M39 43h1M45 43h1M24 44h1M28 44h2M38 44h1M40 44h1M45 44h1M24 45h1M38 45h1M40 45h1M45 45h1M24 46h1M39 46h2M44 46h1M25 47h1M30 47h1M44 47h1M25 48h1M28 48h1M35 48h1M43 48h1M26 49h2M29 49h1M34 49h1M39 49h2M43 49h1M30 50h1M38 50h1M41 50h2M31 51h2M36 51h2M33 52h3" />
<path stroke="#414141" d="M25 39h1M26 40h1M40 40h1M42 40h1M24 41h1M26 41h1M40 41h1M42 41h1M24 42h1M26 42h1M39 42h2M42 42h1M24 43h2M41 43h3M30 45h1M28 46h1M30 46h1M35 46h2M28 47h1M34 47h3M39 47h1M26 48h1M29 48h1M33 48h2M35 49h1" />
<path stroke="#f29a45" d="M26 39h1M24 40h2M27 40h1M39 40h1M41 40h1M23 41h1M25 41h1M27 41h1M39 41h1M41 41h1M43 41h1M23 42h1M25 42h1M41 42h1M43 42h1M35 43h1M40 43h1M44 43h1M34 44h4M41 44h4M32 45h3M37 45h1M41 45h2M44 45h1M32 46h2M38 46h1M42 46h1M32 47h1M42 47h2M37 48h1" />
<path stroke="#41414a" d="M32 41h1M34 41h1M36 41h1M32 42h1M34 42h1M36 42h1M32 43h1M34 43h1M36 43h1M30 44h1M29 45h1M31 45h1M35 45h2M31 46h1M34 46h1M37 46h1M31 47h1M33 47h1M32 48h1M33 49h1" />
<path stroke="#c8701b" d="M26 43h2M33 43h1M25 44h3M31 44h1M26 45h3M43 45h1M25 46h1M27 46h1M43 46h1M27 47h1M37 47h1M40 47h1M27 48h1M30 48h2M39 48h3M30 49h3M37 49h2M41 49h2M31 50h7M34 51h2" />
<path stroke="#85592f" d="M32 44h2M25 45h1M26 46h1M41 46h1M26 47h1M38 47h1M41 47h1M38 48h1M42 48h1M33 51h1" />
<path stroke="#ffffff" d="M29 46h1M29 47h1M36 48h1M36 49h1" />
</svg>