<svg xmlns="http://www.w3.org/2000/svg" viewBox="0 -0.5 68 56" shape-rendering="crispEdges">
<metadata>Made with Pixels to Svg https://codepen.io/shshaw/pen/XbxvNj</metadata>
<path stroke="#000000" d="M35 34h4M33 35h2M38 35h1M32 36h1M38 36h1M29 37h3M37 37h1M28 38h1M37 38h4M27 39h1M40 39h1M27 40h1M40 40h1M28 41h1M39 41h1M28 42h1M33 42h1M39 42h1M27 43h1M32 43h1M40 43h1M26 44h1M32 44h2M40 44h1M25 45h1M41 45h3M25 46h1M41 46h1M43 46h1M26 47h2M43 47h1M28 48h1M42 48h1M28 49h1M40 49h2M29 50h1M32 50h3M40 50h1M30 51h3M35 51h1M39 51h1M36 52h3" />
<path stroke="#3187d2" d="M35 35h3M33 36h5M32 37h5M31 38h6M30 39h5M38 39h2M30 40h4M39 40h1M29 41h5M35 41h2M29 42h4M35 42h2M28 43h4M38 43h2M28 44h3M35 44h5M30 45h2M34 45h6M34 46h1M37 46h3M35 47h6M35 48h2M38 48h1M40 48h1M37 49h3M36 50h4M36 51h1M38 51h1" />
<path stroke="#0c6db4" d="M29 38h1M28 39h1M28 40h1M26 45h1M26 46h1M35 46h2M42 46h1M42 47h1M39 48h1M29 49h1M30 50h2M35 50h1M37 51h1" />
<path stroke="#414141" d="M30 38h1M29 39h1M35 39h2M29 40h1M34 40h2M34 41h1M34 42h1M38 42h1M34 43h4M27 44h1M31 44h1M27 45h3M27 46h1M30 46h4M28 47h1M34 47h1M41 47h1M29 48h1M34 48h1M37 48h1M41 48h1M30 49h2M35 49h2" />
<path stroke="#6bceff" d="M37 39h1M36 40h3M37 41h2M37 42h1M40 45h1M40 46h1" />
<path stroke="#ffffff" d="M33 43h1M34 44h1M32 45h2M33 47h1" />
<path stroke="#e4d302" d="M28 46h2M29 47h4M30 48h3" />
<path stroke="#b5970a" d="M33 48h1M32 49h3" />
</svg>