<svg xmlns="http://www.w3.org/2000/svg" viewBox="0 -0.5 68 56" shape-rendering="crispEdges">
<metadata>Made with Pixels to Svg https://codepen.io/shshaw/pen/XbxvNj</metadata>
<path stroke="#000000" d="M32 28h3M26 29h2M31 29h1M35 29h1M26 30h1M28 30h1M32 30h1M35 30h1M25 31h1M29 31h1M31 31h1M36 31h1M24 32h1M30 32h1M37 32h2M23 33h1M39 33h1M42 33h4M23 34h1M40 34h2M45 34h1M24 35h1M44 35h1M25 36h1M43 36h1M23 37h2M44 37h1M22 38h1M44 38h1M21 39h1M44 39h1M21 40h1M38 40h1M43 40h1M20 41h1M26 41h2M37 41h1M39 41h1M42 41h1M20 42h2M25 42h1M28 42h1M37 42h2M42 42h1M21 43h4M27 43h1M43 43h1M27 44h1M43 44h1M28 45h1M42 45h1M27 46h1M33 46h2M42 46h1M27 47h1M32 47h1M35 47h1M42 47h1M28 48h4M34 48h1M40 48h2M34 49h1M40 49h1M34 50h1M40 50h1M34 51h1M40 51h1M35 52h5" />
<path stroke="#869797" d="M32 29h2M27 30h1M38 33h1M38 34h1M44 34h1M43 35h1M26 36h1M31 36h1M36 36h1M38 36h1M42 36h1M25 37h1M43 37h1M43 38h1M43 39h1M37 40h1M41 40h2M35 41h2M30 42h1M28 46h1M29 47h3M36 48h1M38 48h1M35 50h1M39 50h1" />
<path stroke="#414141" d="M34 29h1M26 31h1M28 31h1M33 31h2M29 33h2M37 33h1M28 34h1M30 34h1M36 34h1M39 34h1M27 35h1M31 35h5M38 35h1M40 35h1M27 36h1M29 36h2M37 36h1M26 37h1M28 37h1M31 37h1M37 37h1M26 38h1M28 38h1M32 38h1M37 38h1M22 39h1M26 39h1M29 39h1M33 39h1M37 39h2M27 40h1M30 40h1M33 40h1M39 40h1M28 41h1M31 41h2M29 42h1M36 42h1M30 43h6M37 43h1M28 44h1M36 44h1M29 45h2M36 45h1M31 46h2M35 46h2M28 47h1M37 47h2M41 47h1M35 48h1M39 48h1M35 51h1M39 51h1" />
<path stroke="#728383" d="M33 30h2M27 31h1M25 32h5M32 32h3M24 33h1M27 33h2M32 33h1M34 33h2M24 34h1M31 34h2M35 34h1M28 35h2M39 35h1M41 36h1M27 37h1M42 37h1M35 38h1M42 38h1M28 39h1M34 39h1M41 39h2M23 40h3M34 40h1M40 40h1M22 41h1M24 41h1M30 41h1M23 42h1M28 43h1M38 43h1M31 44h1M34 44h1M37 44h1M39 44h3M31 45h1M34 45h1M38 45h1M40 45h1M37 46h1M39 46h1M41 46h1M36 47h1M39 47h1M37 48h1" />
<path stroke="#b7c8c8" d="M32 31h1M35 31h1M35 32h2M36 33h1M27 34h1M29 34h1M37 34h1M42 34h2M25 35h2M30 35h1M36 35h2M41 35h2M28 36h1M32 36h4M39 36h2M38 37h1M41 37h1M27 38h1M38 38h1M41 38h1M27 39h1M36 39h1M39 39h2M22 40h1M36 40h1M21 41h1M23 41h1M25 41h1M29 41h1M40 41h2M22 42h1M24 42h1M31 42h5M29 43h1M36 43h1M29 44h2M32 44h2M35 44h1M38 44h1M32 45h2M35 45h1M37 45h1M39 45h1M41 45h1M38 46h1M40 46h1M40 47h1M36 51h3" />
<path stroke="#84cd01" d="M31 32h1M25 33h1M31 33h1M26 34h1M40 37h1M34 38h1M39 38h1M28 40h1" />
<path stroke="#b6ff33" d="M26 33h1M33 33h1M25 34h1M33 34h2M35 37h1M39 37h1M33 38h1M40 38h1M23 39h2M29 40h1M39 43h2" />
<path stroke="#8a6d38" d="M29 37h1M23 38h2M25 39h1M26 40h1M32 40h1M39 42h1M41 43h1M42 44h1M29 46h2M35 49h1M39 49h1M36 50h3" />
<path stroke="#b88f45" d="M30 37h1M25 38h1M29 38h3M30 39h3M31 40h1M40 42h2M42 43h1M36 49h3" />
<path stroke="#576868" d="M32 37h3M36 37h1M36 38h1M35 39h1M35 40h1M33 41h2" />
</svg>