<svg xmlns="http://www.w3.org/2000/svg" viewBox="0 -0.5 68 56" shape-rendering="crispEdges">
<metadata>Made with Pixels to Svg https://codepen.io/shshaw/pen/XbxvNj</metadata>
<path stroke="#000000" d="M34 28h3M33 29h1M37 29h1M32 30h1M36 30h2M32 31h1M35 31h1M31 32h1M36 32h1M27 33h4M37 33h1M25 34h2M37 34h1M24 35h1M38 35h1M23 36h1M27 36h4M39 36h3M23 37h1M26 37h1M30 37h2M36 37h1M42 37h1M23 38h1M26 38h1M31 38h1M36 38h2M43 38h1M23 39h1M27 39h1M31 39h1M36 39h1M38 39h2M44 39h1M24 40h1M26 40h1M31 40h1M36 40h1M40 40h1M45 40h1M25 41h2M30 41h1M41 41h1M45 41h1M29 42h1M37 42h1M40 42h1M45 42h1M28 43h1M38 43h1M41 43h1M44 43h1M27 44h1M38 44h1M42 44h2M27 45h1M39 45h1M27 46h1M40 46h1M27 47h1M40 47h1M27 48h1M40 48h1M27 49h1M40 49h1M28 50h1M39 50h1M29 51h1M32 51h2M38 51h1M30 52h2M34 52h4" />
<path stroke="#58524d" d="M34 29h3M33 30h2M33 31h1M30 43h1M37 43h1M30 44h2M37 44h1M28 45h1M31 45h1M33 45h1M36 45h1M38 45h1M28 46h4M33 46h1M36 46h2M39 46h1M28 47h1M33 47h5M39 47h1M28 48h1M33 48h2M36 48h2M39 48h1M28 49h2M31 49h1M36 49h1M38 49h1M30 50h1M32 50h4M38 50h1M35 51h3" />
<path stroke="#d27ade" d="M35 30h1M34 31h1M32 32h1M35 32h1M31 33h6M27 34h8M36 34h1M25 35h3M32 35h2M36 35h2M25 36h1M32 36h1M37 36h1M24 37h2M38 37h2M25 38h1M39 38h4M25 39h1M41 39h3M25 40h1M42 40h3M43 41h2M42 42h3M43 43h1" />
<path stroke="#414141" d="M33 32h1M30 35h1M36 36h1" />
<path stroke="#b057bc" d="M34 32h1M28 35h1M31 35h1M38 36h1M40 37h1M24 38h1M26 39h1M41 40h1M41 42h1" />
<path stroke="#a039ba" d="M35 34h1M29 35h1M34 35h1M24 36h1M26 36h1M31 36h1M33 36h1M37 37h1M41 37h1M38 38h1M24 39h1M40 39h1M42 41h1M42 43h1" />
<path stroke="#ba863c" d="M35 35h1M35 36h1M32 37h1M32 39h1M31 41h1M36 41h1M31 43h1M34 44h1" />
<path stroke="#ead700" d="M34 36h1M29 45h1M35 45h1M29 47h1M32 47h1M35 48h1M32 49h1M34 49h1" />
<path stroke="#d7a959" d="M33 37h1M35 37h1M33 38h3M33 39h3M32 40h4M32 41h4M31 42h6M32 43h4M32 44h2" />
<path stroke="#ffdf58" d="M34 37h1M35 46h1M30 48h3M33 49h1" />
<path stroke="#fb98d0" d="M32 38h1" />
<path stroke="#484543" d="M30 42h1M29 43h1M36 43h1M28 44h1M35 44h2M32 45h1M34 45h1M37 45h1M32 46h1M38 46h1M30 47h2M38 47h1M38 48h1M30 49h1M37 49h1M39 49h1M29 50h1M31 50h1M36 50h2M30 51h2M34 51h1" />
<path stroke="#ae854e" d="M29 44h1M35 49h1" />
<path stroke="#cfaa53" d="M30 45h1M34 46h1M29 48h1" />
</svg>