<svg xmlns="http://www.w3.org/2000/svg" viewBox="0 -0.5 68 56" shape-rendering="crispEdges">
<metadata>Made with Pixels to Svg https://codepen.io/shshaw/pen/XbxvNj</metadata>
<path stroke="#000000" d="M34 29h3M33 30h1M37 30h1M32 31h1M36 31h2M32 32h1M35 32h1M31 33h1M36 33h1M27 34h4M37 34h1M25 35h2M37 35h1M24 36h1M27 36h4M38 36h1M23 37h1M26 37h1M30 37h1M39 37h3M23 38h1M26 38h1M31 38h1M36 38h2M42 38h2M23 39h1M27 39h1M31 39h1M36 39h1M38 39h2M44 39h1M24 40h1M26 40h1M31 40h1M36 40h1M40 40h2M45 40h1M25 41h2M31 41h1M36 41h1M42 41h1M45 41h1M30 42h1M36 42h1M41 42h1M45 42h1M29 43h1M37 43h1M42 43h1M44 43h1M28 44h1M37 44h1M42 44h2M28 45h1M38 45h1M27 46h1M38 46h1M27 47h1M39 47h1M27 48h1M39 48h1M28 49h1M39 49h1M28 50h1M39 50h1M29 51h1M32 51h2M38 51h1M30 52h2M34 52h1M37 52h1M35 53h2" />
<path stroke="#58524d" d="M34 30h3M33 31h2M33 32h1M30 44h1M35 44h1M30 45h2M33 45h2M37 45h1M28 46h1M31 46h1M33 46h1M37 46h1M29 47h3M33 47h1M36 47h1M38 47h1M33 48h4M38 48h1M33 49h2M36 49h1M38 49h1M29 50h1M31 50h1M37 50h1M31 51h1M34 51h1M37 51h1M36 52h1" />
<path stroke="#d27ade" d="M35 31h1M34 32h1M32 33h1M35 33h1M31 34h6M27 35h2M31 35h4M36 35h1M25 36h2M32 36h2M36 36h2M24 37h2M32 37h1M37 37h1M24 38h2M38 38h2M25 39h2M40 39h4M25 40h1M43 40h2M43 41h2M42 42h3M43 43h1" />
<path stroke="#414141" d="M33 33h1M30 35h1M36 37h1" />
<path stroke="#b057bc" d="M34 33h1M29 35h1M31 36h1M38 37h1M40 38h1" />
<path stroke="#a039ba" d="M35 35h1M34 36h1M31 37h1M33 37h1M41 38h1M24 39h1M42 40h1" />
<path stroke="#ba863c" d="M35 36h1M35 37h1M32 38h1M32 40h1M31 42h1M36 43h1M31 44h1" />
<path stroke="#ead700" d="M34 37h1M29 46h1M35 46h1M29 48h1M32 48h1M35 49h1M32 50h1M34 50h1" />
<path stroke="#d7a959" d="M33 38h1M35 38h1M33 39h3M33 40h3M32 41h4M32 42h4M31 43h5M32 44h3" />
<path stroke="#ffdf58" d="M34 38h1M35 47h1M30 49h3M33 50h1" />
<path stroke="#fb98d0" d="M32 39h1" />
<path stroke="#484543" d="M30 43h1M29 44h1M36 44h1M32 45h1M35 45h2M32 46h1M34 46h1M36 46h1M28 47h1M32 47h1M37 47h1M28 48h1M30 48h2M37 48h1M37 49h1M30 50h1M36 50h1M38 50h1M30 51h1M35 51h2M35 52h1" />
<path stroke="#ae854e" d="M29 45h1M35 50h1" />
<path stroke="#f0ce5a" d="M30 46h1M34 47h1" />
<path stroke="#cfaa53" d="M29 49h1" />
</svg>