<svg xmlns="http://www.w3.org/2000/svg" viewBox="0 -0.5 68 56" shape-rendering="crispEdges">
<metadata>Made with Pixels to Svg https://codepen.io/shshaw/pen/XbxvNj</metadata>
<path stroke="#000000" d="M32 36h2M30 37h2M34 37h2M29 38h1M36 38h1M38 38h2M28 39h1M37 39h1M40 39h1M28 40h1M39 40h1M28 41h1M39 41h2M25 42h3M31 42h1M41 42h1M24 43h1M40 43h1M24 44h1M40 44h1M25 45h1M28 45h3M41 45h1M26 46h2M31 46h3M41 46h1M33 47h1M40 47h1M32 48h1M38 48h2M31 49h1M37 49h1M31 50h1M37 50h1M32 51h1M36 51h1M33 52h3" />
<path stroke="#2fdfc1" d="M32 37h2M30 38h5M30 39h6M38 39h2M29 40h2M34 40h4M29 41h2M35 41h2M28 42h3M35 42h6M26 43h5M34 43h4M25 44h1M27 44h2M30 44h2M33 44h2M38 44h2M26 45h2M37 48h1M32 49h2M32 50h1M36 50h1M33 51h3" />
<path stroke="#16ab99" d="M35 38h1M29 39h1M33 40h1M38 40h1M34 41h1M34 42h1M25 43h1M29 44h1M37 44h1M31 45h3M36 45h1M36 46h1M37 47h1M36 49h1M33 50h1M35 50h1" />
<path stroke="#0e7369" d="M36 39h1M37 41h2M38 43h2M35 44h1M35 46h1M36 47h1M36 48h1M34 49h1M34 50h1" />
<path stroke="#69fddd" d="M31 40h1M32 44h1" />
<path stroke="#ffffff" d="M32 40h1M33 41h1M33 42h1M33 43h1" />
<path stroke="#de524a" d="M31 41h1M32 42h1M32 43h1" />
<path stroke="#efad7b" d="M32 41h1M31 43h1" />
<path stroke="#414141" d="M26 44h1M36 44h1M34 45h2M37 45h3M37 46h1M38 47h1M33 48h1" />
<path stroke="#ff8785" d="M40 45h1M34 46h1M38 46h3M39 47h1M34 48h2" />
<path stroke="#ffc3c2" d="M34 47h2M35 49h1" />
</svg>