<svg xmlns="http://www.w3.org/2000/svg" viewBox="0 -0.5 68 56" shape-rendering="crispEdges">
<metadata>Made with Pixels to Svg https://codepen.io/shshaw/pen/XbxvNj</metadata>
<path stroke="#000000" d="M31 29h1M30 30h1M32 30h1M36 30h1M30 31h1M33 31h3M37 31h1M27 32h3M37 32h1M24 33h2M27 33h1M38 33h1M41 33h2M24 34h1M26 34h2M38 34h3M42 34h1M24 35h1M42 35h1M25 36h1M43 36h2M24 37h2M33 37h1M45 37h1M24 38h1M44 38h1M25 39h2M42 39h2M24 40h2M27 40h1M42 40h1M23 41h1M26 41h1M43 41h1M23 42h1M42 42h1M23 43h1M42 43h1M24 44h2M29 44h1M43 44h1M26 45h3M30 45h1M43 45h1M30 46h1M44 46h1M29 47h1M44 47h1M29 48h1M39 48h1M43 48h1M29 49h1M32 49h3M38 49h1M40 49h3M30 50h2M35 50h1M38 50h1M35 51h1M38 51h1M36 52h2" />
<path stroke="#d9d9fb" d="M31 30h1M31 31h1M30 32h1M33 33h1" />
<path stroke="#fefcfc" d="M32 31h1M36 31h1M31 32h1M35 32h2M30 33h1M34 33h4M34 34h1M37 37h1M31 38h1M30 39h3" />
<path stroke="#9090b2" d="M32 32h1M34 32h1M31 33h1M35 39h1M30 40h2M29 42h1M31 42h1M35 42h2M29 43h1M32 43h3M30 44h1M32 44h1M31 45h3M37 45h1M34 46h3" />
<path stroke="#e64139" d="M33 32h1M28 33h1M32 33h1M29 34h1M31 34h1M33 34h1M41 34h1M29 35h3M35 35h3M39 35h3M30 36h5M38 36h3M38 37h1M42 37h3M37 38h6M29 39h1M36 39h5M36 40h6M24 41h2M37 41h2M40 41h3M24 42h3M38 42h2M25 43h1M41 46h2M40 47h4M38 48h1M41 48h2M35 49h3M36 50h1" />
<path stroke="#41414a" d="M29 33h1M28 34h1M28 35h1M38 35h1M29 36h1M41 36h2M26 37h1M30 37h1M32 37h1M36 37h1M28 38h3M32 38h1M36 38h1M28 39h1M41 39h1M29 40h1M27 41h1M30 41h1M27 42h2M37 42h1M40 42h2M24 43h1M27 43h1M38 43h2M26 44h2M38 45h1M41 45h2M40 46h1M39 47h1M30 48h2M37 50h1M36 51h1" />
<path stroke="#9c3941" d="M25 34h1M32 34h1M25 35h3M26 36h3M27 37h2M39 37h3M25 38h3M43 38h1M27 39h1M28 40h1M28 41h2M36 41h1M39 41h1M32 42h3M26 43h1M28 43h1M40 43h2M28 44h1M39 44h4M39 45h2M39 46h1M43 46h1M30 47h2M38 47h1M32 48h6M40 48h1M30 49h2M37 51h1" />
<path stroke="#68687e" d="M30 34h1M35 34h3M32 35h3M35 36h3M31 37h1M32 40h3" />
<path stroke="#ab971c" d="M29 37h1" />
<path stroke="#52b473" d="M34 37h1" />
<path stroke="#ffda1c" d="M35 37h1M33 38h3M33 46h1M33 47h2" />
<path stroke="#acacac" d="M33 39h2M31 41h1M33 41h1" />
<path stroke="#ffffff" d="M35 40h1M32 41h1M34 41h1" />
<path stroke="#6a5a5a" d="M35 41h1M38 44h1" />
<path stroke="#cecece" d="M30 42h1M30 43h2M35 43h3M31 44h1M33 44h5M34 45h3" />
<path stroke="#f67339" d="M31 46h1M37 46h2M36 47h2" />
<path stroke="#cd5231" d="M32 46h1M32 47h1M35 47h1" />
</svg>