<svg xmlns="http://www.w3.org/2000/svg" viewBox="0 -0.5 68 56" shape-rendering="crispEdges">
<metadata>Made with Pixels to Svg https://codepen.io/shshaw/pen/XbxvNj</metadata>
<path stroke="#000000" d="M34 33h2M33 34h1M36 34h1M32 35h1M36 35h1M31 36h1M37 36h1M29 37h2M37 37h1M27 38h2M38 38h1M26 39h1M39 39h1M27 40h1M40 40h2M28 41h1M42 41h1M27 42h1M30 42h1M43 42h1M27 43h1M34 43h1M28 44h2M39 44h2M30 45h1M38 45h1M30 46h1M39 46h2M28 47h2M41 47h2M27 48h1M33 48h1M43 48h2M28 49h1M31 49h2M34 49h1M37 49h1M45 49h1M29 50h2M35 50h2M38 50h1M44 50h1M39 51h1M42 51h2M40 52h2" />
<path stroke="#fff773" d="M34 34h1M35 35h1M35 36h1M35 37h2M35 38h2M31 39h1M34 39h2M37 39h2M31 40h9M32 41h2M36 41h5M37 42h5M37 43h1M39 43h1M37 44h1M41 48h2M40 49h5M39 50h2M42 50h2M40 51h2" />
<path stroke="#e0b823" d="M35 34h1M36 36h1M29 38h2M27 39h4M28 40h3M29 41h1M31 41h1M35 41h1M28 42h2M36 42h1M28 43h1M40 43h1M38 46h1M30 47h2M39 47h2M28 48h3M40 48h1M29 49h2M39 49h1M41 50h1" />
<path stroke="#414141" d="M33 35h2M32 36h1M34 36h1M32 37h1M34 37h1M32 38h1M34 38h1M25 39h1M32 39h2M24 40h1M26 40h1M24 41h1M26 41h1M24 42h1M26 42h1M42 42h1M24 43h2M30 43h1M41 43h1M43 43h1M34 44h1M41 44h1M43 44h1M32 45h1M37 45h1M41 45h1M43 45h1M31 46h1M36 46h2M41 46h2M32 47h2M38 47h1M31 48h1M36 48h1M39 48h1M38 49h1" />
<path stroke="#e43900" d="M33 36h1M33 37h1M33 38h1M25 40h1M25 41h1M25 42h1M42 43h1M42 44h1M42 45h1" />
<path stroke="#b38101" d="M31 37h1M31 38h1M37 38h1M36 39h1M30 41h1M34 41h1M41 41h1M32 42h2M29 43h1M36 43h1M38 43h1M36 44h1M38 44h1" />
<path stroke="#f8dede" d="M31 42h1M34 42h2M31 43h3M35 43h1M30 44h4M35 44h1M31 45h1M33 45h4M33 46h2M35 47h2M32 48h1M34 48h2M37 48h2" />
<path stroke="#e1acb4" d="M32 46h1M35 46h1M34 47h1M37 47h1M35 49h2" />
</svg>