<svg xmlns="http://www.w3.org/2000/svg" viewBox="0 -0.5 68 56" shape-rendering="crispEdges">
<metadata>Made with Pixels to Svg https://codepen.io/shshaw/pen/XbxvNj</metadata>
<path stroke="#000000" d="M25 31h1M27 31h1M33 31h3M24 32h1M26 32h1M28 32h2M32 32h1M36 32h1M41 32h3M24 33h1M29 33h3M36 33h1M39 33h2M44 33h1M19 34h3M24 34h1M37 34h2M42 34h2M19 35h1M22 35h2M25 35h1M43 35h1M20 36h1M24 36h2M39 36h4M21 37h1M38 37h1M22 38h2M39 38h1M24 39h1M38 39h1M25 40h1M37 40h1M43 40h3M47 40h2M26 41h1M29 41h1M35 41h2M39 41h2M42 41h1M46 41h1M48 41h1M25 42h1M34 42h1M38 42h1M41 42h1M48 42h1M25 43h1M34 43h4M47 43h1M26 44h3M39 44h2M47 44h1M29 45h1M38 45h1M41 45h1M46 45h1M28 46h1M38 46h1M42 46h4M28 47h1M39 47h1M27 48h1M39 48h1M27 49h1M36 49h2M39 49h1M28 50h1M30 50h2M33 50h3M37 50h1M39 50h1M28 51h2M31 51h1M33 51h1M37 51h2M31 52h2" />
<path stroke="#5ab56b" d="M25 32h1M25 33h1M25 34h1" />
<path stroke="#f79429" d="M27 32h1M26 33h1M26 34h1M26 35h1" />
<path stroke="#d66342" d="M33 32h3M32 33h3M41 33h3M30 34h7M39 34h3M29 35h14M29 36h9M28 37h9M29 38h1M34 38h5M28 39h1M34 39h2M28 40h1M33 40h4M32 41h3M32 42h2M32 43h2M31 44h1" />
<path stroke="#414141" d="M27 33h1M35 33h1M29 34h1M28 35h1M26 36h1M28 36h1M26 37h2M28 38h1M37 39h1M30 43h1M37 44h1M35 47h1M34 48h3M30 49h1M34 49h1" />
<path stroke="#59e88e" d="M28 33h1M28 34h1M27 35h1M27 36h1M30 39h3M29 40h1M43 41h3M47 41h1M39 42h2M42 42h2M45 42h3M38 43h4M44 43h2M38 44h1M42 44h4M30 45h2M43 45h2M30 46h1M30 47h2M28 48h1M31 48h1M31 49h1" />
<path stroke="#2cad6c" d="M27 34h1M30 38h1M29 39h1M33 39h1M32 40h1M31 42h1M29 44h1M41 44h1M46 44h1M32 45h1M42 45h1M45 45h1M31 46h1M29 47h1M32 47h1M30 48h1M32 48h1M32 49h1M29 50h1M38 50h1M32 51h1" />
<path stroke="#4694d4" d="M20 35h2M21 36h2M23 37h2M24 38h1M26 38h1M25 39h2" />
<path stroke="#22617c" d="M23 36h1M22 37h1M25 37h1M25 38h1M27 38h1M27 39h1M26 40h1" />
<path stroke="#a54a52" d="M38 36h1M37 37h1M36 39h1M27 40h1M28 41h1M31 43h1M30 44h1M32 44h1" />
<path stroke="#168e64" d="M31 38h3M30 40h2M31 41h1M29 42h1M33 44h1M29 48h1M28 49h1M35 49h1" />
<path stroke="#ffffa5" d="M27 41h1M26 42h3M26 43h1M28 43h1M34 44h3M33 45h5M29 46h1M33 46h2M36 46h2M33 47h1M36 47h2M38 48h1" />
<path stroke="#ffffff" d="M30 41h1M30 42h1M44 42h1M42 43h2M46 43h1" />
<path stroke="#ef9484" d="M27 43h1" />
<path stroke="#debd52" d="M29 43h1M32 46h1M35 46h1M34 47h1M38 47h1M33 48h1M37 48h1M33 49h1M38 49h1M32 50h1" />
<path stroke="#bd7b42" d="M29 49h1" />
</svg>