<svg xmlns="http://www.w3.org/2000/svg" viewBox="0 -0.5 68 56" shape-rendering="crispEdges">
<metadata>Made with Pixels to Svg https://codepen.io/shshaw/pen/XbxvNj</metadata>
<path stroke="#000000" d="M29 27h5M36 27h4M28 28h1M34 28h2M40 28h2M27 29h1M42 29h1M22 30h4M27 30h1M43 30h1M20 31h2M26 31h2M44 31h3M19 32h1M24 32h2M47 32h1M19 33h1M23 33h1M26 33h2M48 33h1M18 34h1M23 34h1M28 34h1M48 34h1M18 35h1M22 35h1M29 35h1M48 35h1M18 36h1M22 36h1M28 36h1M48 36h1M18 37h1M22 37h2M29 37h1M48 37h1M18 38h1M24 38h1M28 38h1M45 38h3M19 39h1M25 39h1M27 39h1M43 39h2M19 40h1M25 40h2M43 40h1M19 41h1M44 41h1M20 42h1M44 42h1M47 42h2M20 43h1M45 43h2M48 43h1M21 44h1M47 44h1M21 45h1M47 45h1M21 46h1M45 46h2M22 47h3M45 47h1M25 48h1M44 48h1M26 49h1M42 49h2M26 50h1M30 50h1M37 50h1M41 50h1M27 51h3M31 51h2M36 51h1M38 51h3M33 52h3" />
<path stroke="#a4c0a5" d="M29 28h1M28 29h1M33 29h1M29 30h1M32 31h1M28 32h1M29 33h1M39 33h2M45 33h3M30 34h1M39 34h1M44 34h2M47 34h1M43 35h2M44 36h1M44 37h2M47 37h1M30 38h1M43 38h1M36 40h1M32 44h1M46 45h1M30 46h1M38 46h1M44 47h1M41 48h1M29 49h2M27 50h3M31 50h2M35 50h1M40 50h1M33 51h3" />
<path stroke="#ffffff" d="M30 28h4M36 28h4M30 29h3M34 29h8M30 30h13M34 31h1M37 31h7M39 32h8M41 33h4M43 34h1M46 34h1M45 35h3M29 36h2M33 36h1M45 36h3M30 37h4M46 37h1M31 38h1M33 38h5M31 39h1M33 39h1M35 39h1M37 39h4M35 40h1M38 40h1M35 41h1M47 43h1M43 44h4M42 45h4M32 46h3M39 46h5M30 47h8M39 47h2M43 47h1M30 48h9M32 49h3M36 49h3" />
<path stroke="#c5e1c6" d="M29 29h1M28 30h1M28 31h2M29 32h1M43 36h1M42 37h2M38 38h1M44 38h1M36 39h1M44 43h1M31 44h1M31 45h3M41 45h1M31 46h1M44 46h1M38 47h1M41 47h2M39 48h2M43 48h1M31 49h1M35 49h1M39 49h3M33 50h2M36 50h1M38 50h2" />
<path stroke="#795638" d="M22 31h4M20 32h4M26 32h1M20 33h2M19 34h3M19 35h3M19 36h3M32 36h1M20 37h2M36 37h1M20 38h1M22 38h1M20 39h3M20 40h3M21 41h3M22 42h4M22 43h4M23 44h3M24 45h3M22 46h1M25 46h4M26 47h2M26 48h3" />
<path stroke="#414141" d="M30 31h2M33 31h1M35 31h2M27 32h1M30 32h1M32 32h1M34 32h1M36 32h3M28 33h1M30 33h1M34 33h1M36 33h1M38 33h1M29 34h1M31 34h1M40 34h3M30 35h1M39 35h1M42 35h1M42 36h1M41 37h1M21 38h1M29 38h1M42 38h1M30 39h1M32 39h1M41 39h2M30 40h2M33 40h2M39 40h2M25 41h2M32 41h1M34 41h1M36 41h1M26 42h3M32 42h1M35 42h1M29 43h1M31 43h2M43 43h1M30 44h1M33 44h1M42 44h1M22 45h1M30 45h1M34 45h1M39 45h2M29 46h1M35 46h3M28 47h2M29 48h1M42 48h1M27 49h2" />
<path stroke="#ffc929" d="M31 32h1M31 33h2M34 34h1M36 34h1M31 35h1M33 35h5M40 35h2M34 36h2M38 36h3M34 37h1M38 37h3M28 39h2M28 40h2M41 40h1M30 41h2M37 41h1M39 41h2M30 42h2M33 42h2M36 42h4M33 43h4M38 43h4M34 44h1M37 44h2M40 44h1" />
<path stroke="#ff8d42" d="M33 32h1M35 32h1M37 33h1M22 34h1M23 38h1M23 39h2M24 40h1M28 41h2M41 41h2M29 42h1M40 42h3M27 43h2M37 43h1M27 44h3M35 44h2M39 44h1M28 45h2" />
<path stroke="#da671b" d="M22 33h1M33 33h1M35 33h1M37 34h1M23 40h1M24 41h1M33 41h1M43 41h1M43 42h1M26 43h1M26 44h1M27 45h1M35 45h2" />
<path stroke="#fff690" d="M32 34h1M36 36h2M37 37h1" />
<path stroke="#e7a300" d="M33 34h1M35 34h1M38 34h1M38 35h1M31 36h1M41 36h1M39 38h3M27 40h1M32 40h1M42 40h1M27 41h1M30 43h1M42 43h1M37 45h1" />
<path stroke="#f0d890" d="M32 35h1M35 37h1" />
<path stroke="#5e3f25" d="M19 37h1M19 38h1M20 41h1M21 42h1M21 43h1M22 44h1M23 45h1M23 46h2M25 47h1" />
<path stroke="#737373" d="M32 38h1M34 39h1M37 40h1M38 41h1M41 44h1M38 45h1" />
</svg>