<svg xmlns="http://www.w3.org/2000/svg" viewBox="0 -0.5 68 56" shape-rendering="crispEdges">
<metadata>Made with Pixels to Svg https://codepen.io/shshaw/pen/XbxvNj</metadata>
<path stroke="#000000" d="M30 35h2M29 36h2M34 36h2M28 37h2M32 37h3M28 38h6M28 39h2M32 39h4M27 40h1M32 40h1M36 40h2M26 41h1M38 41h1M26 42h2M34 42h1M39 42h1M26 43h1M33 43h2M40 43h1M26 44h1M40 44h1M27 45h1M41 45h1M27 46h1M40 46h2M27 47h1M41 47h1M28 48h2M41 48h1M30 49h1M40 49h1M30 50h1M33 50h1M41 50h1M31 51h2M34 51h5M41 51h1M39 52h2" />
<path stroke="#f9aa01" d="M30 39h2M29 40h3M33 40h1M29 41h4M29 42h3M28 43h4M36 46h1M37 47h1" />
<path stroke="#ca7001" d="M28 40h1M34 40h1M35 41h1M37 42h2M39 43h1M27 44h1M31 44h2M35 44h1M33 45h2M40 45h1M37 48h1M38 49h1" />
<path stroke="#7d4101" d="M35 40h1M36 41h1M36 42h1M36 43h1M39 44h1" />
<path stroke="#414141" d="M27 41h1M37 41h1M37 43h2M28 44h1M36 44h1M35 45h1M39 45h1M28 46h1M33 46h2M37 46h3M30 47h2M30 48h1M38 48h1M31 49h1M39 49h1M32 50h1M37 50h1" />
<path stroke="#ffffff" d="M28 41h1M28 42h1M33 42h1M27 43h1M32 43h1M35 43h1M33 44h2M37 44h1M37 45h1M39 47h1M39 48h1M39 50h1M39 51h1" />
<path stroke="#bdd6d6" d="M33 41h2M32 42h1M35 42h1M38 44h1M38 45h1M28 47h1M40 47h1M40 48h1M31 50h1M40 50h1M40 51h1" />
<path stroke="#726816" d="M29 44h2M31 45h2M35 46h1M32 47h1M36 47h1M36 48h1M37 49h1" />
<path stroke="#ebef80" d="M28 45h3M29 46h4M33 47h3M31 48h1M33 48h3M32 49h1M34 49h3M35 50h1" />
<path stroke="#636be6" d="M36 45h1M29 47h1M38 47h1M38 50h1" />
<path stroke="#b2c556" d="M32 48h1M33 49h1M34 50h1M36 50h1" />
</svg>