<svg xmlns="http://www.w3.org/2000/svg" viewBox="0 -0.5 68 56" shape-rendering="crispEdges">
<metadata>Made with Pixels to Svg https://codepen.io/shshaw/pen/XbxvNj</metadata>
<path stroke="#000000" d="M30 32h1M29 33h1M31 33h1M34 33h1M29 34h1M32 34h2M35 34h1M29 35h1M35 35h1M29 36h1M35 36h1M29 37h1M36 37h3M28 38h1M39 38h1M28 39h1M39 39h1M27 40h1M32 40h1M40 40h1M26 41h1M36 41h2M40 41h1M26 42h1M36 42h1M38 42h2M27 43h2M37 43h1M29 44h2M38 44h1M40 44h2M31 45h1M36 45h1M39 45h1M41 45h1M31 46h1M35 46h1M37 46h1M40 46h1M30 47h1M36 47h2M40 47h1M30 48h1M38 48h2M31 49h1M33 49h1M37 49h1M31 50h2M34 50h2M38 50h1M36 51h1M38 51h1M36 52h2" />
<path stroke="#adb93e" d="M30 33h1M30 34h2M31 35h1M31 36h1M29 43h1M33 43h1M37 45h1M31 47h1M31 48h2M36 49h1" />
<path stroke="#e1ed6b" d="M34 34h1M33 35h2M34 36h1M30 37h1M32 37h1M34 37h2M29 38h1M32 38h3M31 39h2M33 42h2M30 43h3M36 44h2M38 45h1M35 48h2M34 49h2" />
<path stroke="#414141" d="M30 35h1M32 35h1M30 36h1M32 36h2M31 37h1M33 37h1M36 38h1M33 39h1M36 39h3M28 40h1M36 40h1M39 40h1M31 41h1M27 42h1M29 42h1M35 42h1M34 43h2M31 44h4M34 45h1M32 46h1M32 47h4M33 48h2M37 48h1M32 49h1" />
<path stroke="#73737b" d="M30 38h2M35 38h1M37 38h2M29 39h2M34 39h2M29 40h3M34 40h2M37 40h2M27 41h4M34 41h2M38 41h2M28 42h1M30 42h2M36 43h1M35 44h1M35 45h1M38 46h1M38 47h2M36 50h2M37 51h1" />
<path stroke="#c5c5bd" d="M33 40h1" />
<path stroke="#f76352" d="M32 41h1M32 42h1" />
<path stroke="#ffffff" d="M33 41h1M40 45h1M39 46h1" />
<path stroke="#7b8a93" d="M32 45h2" />
<path stroke="#8a9bac" d="M33 46h2" />
</svg>