<svg xmlns="http://www.w3.org/2000/svg" viewBox="0 -0.5 68 56" shape-rendering="crispEdges">
<metadata>Made with Pixels to Svg https://codepen.io/shshaw/pen/XbxvNj</metadata>
<path stroke="#000000" d="M33 30h2M24 31h2M32 31h1M34 31h1M23 32h1M25 32h2M28 32h4M33 32h1M35 32h2M39 32h2M23 33h2M26 33h2M34 33h1M36 33h1M38 33h1M41 33h1M24 34h2M35 34h1M37 34h2M40 34h1M25 35h1M34 35h1M36 35h1M41 35h2M44 35h3M25 36h1M34 36h2M43 36h1M46 36h1M24 37h1M45 37h1M24 38h1M27 38h1M41 38h1M46 38h1M23 39h1M25 39h1M46 39h1M23 40h2M26 40h1M29 40h3M43 40h3M25 41h1M27 41h2M31 41h1M35 41h2M41 41h2M25 42h2M30 42h1M35 42h1M37 42h4M29 43h1M36 43h1M26 44h4M37 44h1M25 45h1M38 45h2M24 46h1M26 46h2M40 46h1M24 47h2M27 47h1M29 47h1M32 47h1M38 47h2M41 47h1M26 48h1M28 48h1M30 48h1M36 48h1M38 48h1M40 48h2M26 49h2M31 49h1M34 49h2M37 49h1M39 49h1M31 50h1M34 50h1M38 50h2M32 51h2" />
<path stroke="#474242" d="M33 31h1M35 33h1M45 36h1M33 37h1M24 39h1M44 39h2M33 40h2M26 41h1M25 46h1M40 47h1M27 48h1M38 49h1" />
<path stroke="#978e8d" d="M24 32h1M32 32h1M32 33h1M39 33h1M32 50h1" />
<path stroke="#414141" d="M25 33h1M31 33h1M33 33h1M26 34h1M31 34h1M39 34h1M32 35h2M33 36h1M25 37h1M32 37h1M36 37h1M43 37h2M25 38h1M33 38h3M37 38h1M43 38h3M26 39h1M32 39h4M37 39h1M43 39h1M27 40h2M32 40h1M36 40h1M32 41h3M37 41h1M31 42h1M34 42h1M30 43h1M35 43h1M29 45h1M37 45h1M29 46h1M36 46h1M36 47h1M32 49h2" />
<path stroke="#e0d99b" d="M28 33h3M27 34h4M26 35h1M30 35h2M37 35h4M37 36h3M38 37h1M30 44h3M30 45h1" />
<path stroke="#4e4a49" d="M40 33h1M32 34h3M44 36h1M34 37h2M36 38h1M36 39h1M35 40h1M26 45h3M28 46h1M37 46h3M28 47h1M37 47h1M37 48h1M33 50h1" />
<path stroke="#ffffff" d="M27 35h3M26 36h5M40 36h2M26 37h5M39 37h4M26 38h1M28 38h3M39 38h2M42 38h1M27 39h3M39 39h4M40 40h2M31 45h3M30 46h5M30 47h2M33 47h2M31 48h3" />
<path stroke="#bfab7a" d="M31 36h2M36 36h1M42 36h1M31 37h1M37 37h1M31 38h2M38 38h1M30 39h2M38 39h1M37 40h3M42 40h1M38 41h3M32 42h2M31 43h4M33 44h4M34 45h3M35 46h1M35 47h1M34 48h2" />
</svg>