<svg xmlns="http://www.w3.org/2000/svg" viewBox="0 -0.5 68 56" shape-rendering="crispEdges">
<metadata>Made with Pixels to Svg https://codepen.io/shshaw/pen/XbxvNj</metadata>
<path stroke="#000000" d="M30 34h2M29 35h1M32 35h3M29 36h1M35 36h3M29 37h1M38 37h1M28 38h1M38 38h1M28 39h1M37 39h1M28 40h1M37 40h1M27 41h1M37 41h1M26 42h1M36 42h1M26 43h1M37 43h1M26 44h1M37 44h1M41 44h2M27 45h1M38 45h1M40 45h1M42 45h2M28 46h1M38 46h2M43 46h1M28 47h1M42 47h1M29 48h1M40 48h2M28 49h1M31 49h3M38 49h2M29 50h2M34 50h1M37 50h1M34 51h1M37 51h1M35 52h2" />
<path stroke="#eff0cb" d="M30 35h2M32 36h2M32 37h3M36 37h2M29 38h1M32 38h1M35 38h3M30 39h3M35 39h1M31 40h2M35 40h1M30 41h2M34 41h1M29 42h4M27 43h1M31 43h1M35 43h2M27 44h2M30 46h2M34 46h1M40 46h1M29 47h4M34 47h2M39 47h1" />
<path stroke="#c8c9a4" d="M30 36h1M34 36h1M30 40h1M33 40h1M36 40h1M35 41h1M34 42h1M32 43h2M31 45h3M32 46h1M40 47h1M31 48h3M38 48h2M34 49h3" />
<path stroke="#a2a37e" d="M31 36h1M29 39h1M36 39h1M34 40h1M32 41h1M36 41h1M35 42h1M28 43h1M30 43h1M33 44h2M35 46h1M38 47h1M37 48h1" />
<path stroke="#7b7b6b" d="M30 37h2M30 38h2M33 38h2M33 39h2M32 44h1" />
<path stroke="#414141" d="M35 37h1M28 41h1M29 43h1M34 43h1M30 44h2M35 44h1M30 45h1M34 45h1M29 46h1M33 46h1M33 47h1M37 47h1M34 48h3M37 49h1M35 50h1" />
<path stroke="#ffffff" d="M29 40h1M33 41h1" />
<path stroke="#543aff" d="M29 41h1M28 42h1M33 42h1M36 44h1M28 45h2M37 46h1M36 47h1M41 47h1M30 48h1M36 50h1" />
<path stroke="#6e58ff" d="M27 42h1M29 44h1M35 45h3M41 45h1M36 46h1M41 46h2M29 49h2M35 51h2" />
</svg>