<svg xmlns="http://www.w3.org/2000/svg" viewBox="0 -0.5 68 56" shape-rendering="crispEdges">
<metadata>Made with Pixels to Svg https://codepen.io/shshaw/pen/XbxvNj</metadata>
<path stroke="#000000" d="M41 32h2M44 32h2M26 33h1M40 33h1M42 33h2M45 33h2M25 34h1M27 34h1M31 34h1M39 34h1M46 34h1M25 35h1M27 35h1M30 35h1M32 35h1M38 35h1M45 35h1M24 36h1M27 36h1M29 36h1M32 36h1M38 36h1M43 36h2M23 37h1M28 37h1M32 37h1M39 37h1M42 37h1M23 38h1M32 38h1M38 38h2M41 38h1M24 39h1M33 39h1M37 39h1M41 39h1M24 40h1M34 40h3M42 40h1M23 41h1M42 41h1M22 42h1M27 42h1M43 42h1M22 43h1M42 43h2M23 44h1M42 44h1M24 45h3M42 45h1M27 46h1M37 46h2M43 46h1M26 47h2M35 47h2M38 47h1M43 47h1M25 48h1M35 48h1M39 48h1M43 48h1M25 49h1M35 49h1M40 49h3M26 50h4M34 50h1M30 51h1M34 51h1M31 52h3" />
<path stroke="#885c2b" d="M41 33h1M44 33h1M26 34h1M40 34h1M42 34h2M45 34h1M26 35h1M39 35h6M25 36h2M39 36h4M24 37h2M40 37h2M24 38h1M40 38h1M27 39h2M38 39h2M26 40h2M32 40h1M37 40h5M26 41h1M33 41h1M35 41h6M30 42h1M33 42h2M40 42h3M29 43h2M32 43h2M26 44h2M33 44h1M28 45h1M38 45h1M33 46h1M36 46h1M41 46h1M34 47h1M41 47h2M27 48h2M31 48h1M34 48h1M41 48h1M31 49h3M31 50h2M32 51h1" />
<path stroke="#684117" d="M41 34h1M44 34h1M26 37h2M31 37h1M25 38h1M28 38h1M30 38h2M30 39h1M32 39h1M40 39h1M31 40h1M33 40h1M32 41h1M34 41h1M41 41h1M32 42h1M35 42h5M31 43h1M34 43h2M40 43h2M31 44h2M34 44h1M32 45h2M41 45h1M39 46h2M42 46h1M28 47h2M40 47h1M29 48h2M26 49h1M28 49h3M34 49h1M33 50h1" />
<path stroke="#ecd059" d="M31 35h1M30 36h2M29 37h2M26 38h2M29 38h1M25 39h2M29 39h1M25 40h1M28 40h3M24 41h2M27 41h1M30 41h2M23 42h4M31 42h1M25 43h3M39 43h1M24 44h2M28 44h2M38 44h3M27 45h1M39 45h2M32 46h1M31 47h3M39 47h1M26 48h1M32 48h2M40 48h1M42 48h1M27 49h1M30 50h1M31 51h1M33 51h1" />
<path stroke="#d99f52" d="M31 39h1M36 43h3M30 44h1M35 44h3M41 44h1M29 45h3M34 45h4M28 46h4M34 46h2M30 47h1" />
<path stroke="#0c65c5" d="M28 41h1M24 43h1" />
<path stroke="#cde4ff" d="M29 41h1M29 42h1M28 43h1" />
<path stroke="#3c95f5" d="M28 42h1M23 43h1" />
</svg>