<svg xmlns="http://www.w3.org/2000/svg" viewBox="0 -0.5 68 56" shape-rendering="crispEdges">
<metadata>Made with Pixels to Svg https://codepen.io/shshaw/pen/XbxvNj</metadata>
<path stroke="#000000" d="M26 30h1M25 31h1M27 31h1M36 31h3M25 32h1M27 32h1M34 32h2M39 32h1M24 33h1M28 33h2M33 33h1M38 33h1M24 34h1M30 34h1M32 34h1M39 34h1M24 35h1M31 35h1M39 35h1M25 36h1M38 36h1M40 36h2M25 37h1M38 37h1M40 37h1M42 37h1M24 38h1M37 38h1M40 38h1M43 38h1M24 39h1M36 39h1M41 39h1M44 39h1M23 40h1M29 40h1M37 40h1M41 40h1M44 40h1M23 41h1M28 41h1M38 41h1M40 41h1M45 41h1M24 42h1M39 42h1M45 42h1M24 43h1M45 43h1M23 44h1M27 44h2M44 44h1M23 45h1M26 45h1M28 45h1M44 45h1M24 46h2M27 46h1M43 46h1M27 47h1M42 47h1M28 48h1M31 48h2M41 48h1M29 49h3M33 49h3M41 49h1M36 50h1M40 50h1M36 51h1M40 51h1M37 52h3" />
<path stroke="#759832" d="M26 31h1M26 32h1M25 33h3M25 34h3M25 35h1M30 35h1M37 35h1M27 37h1M37 37h1M25 38h2M31 38h3M36 38h1M28 39h1M31 39h2M34 39h2M43 39h1M27 40h1M32 40h2M42 40h2M31 41h3M44 41h1M26 42h1M28 42h3M33 42h1M36 42h1M41 42h3M32 43h1M34 43h1M38 43h1M40 43h5M25 44h2M31 44h1M38 44h2M41 44h3M24 45h1M35 45h1M39 45h1M41 45h3M28 46h1M42 46h1M28 47h2M40 47h1M30 48h1M40 48h1M36 49h1M39 49h2M37 50h3" />
<path stroke="#9cc64c" d="M36 32h3M34 33h4M29 34h1M33 34h2M37 34h2M28 35h2M33 35h1M38 35h1M26 36h1M28 36h3M32 36h1M26 37h1M28 37h3M32 37h1M41 37h1M27 38h4M41 38h2M25 39h3M29 39h1M42 39h1M24 40h3M28 40h1M36 40h1M24 41h3M35 41h3M25 42h1M27 42h1M37 42h1M35 43h2M33 44h4M34 45h1M37 45h2M36 46h4M36 47h4M37 48h2" />
<path stroke="#414141" d="M28 34h1M35 34h2M26 35h2M32 35h1M34 35h1M27 36h1M31 36h1M33 36h1M31 37h1M33 39h1M34 40h2M34 41h1M41 41h1M32 42h1M34 42h2M38 42h1M40 42h1M25 43h2M31 43h1M33 43h1M37 43h1M39 43h1M29 44h2M32 44h1M37 44h1M40 44h1M32 45h1M36 45h1M40 45h1M29 46h1M33 46h3M41 46h1M30 47h1M35 47h1M41 47h1M35 48h1" />
<path stroke="#ffa2a8" d="M35 35h2M36 36h2M36 37h1M31 42h1M27 43h4M31 47h1M33 48h2" />
<path stroke="#c96168" d="M34 36h1M33 37h3M34 38h2M30 46h2M32 47h3" />
<path stroke="#e88087" d="M35 36h1" />
<path stroke="#577221" d="M30 39h1M31 40h1M27 41h1M42 41h2M44 42h1M40 46h1M29 48h1M36 48h1M39 48h1M37 49h2M38 51h1" />
<path stroke="#ffffff" d="M30 40h1M30 41h1M24 44h1M25 45h1M33 45h1M37 51h1M39 51h1" />
<path stroke="#f76352" d="M29 41h1" />
<path stroke="#ffd2d5" d="M29 45h3M32 46h1" />
</svg>