<svg xmlns="http://www.w3.org/2000/svg" viewBox="0 -0.5 68 56" shape-rendering="crispEdges">
<metadata>Made with Pixels to Svg https://codepen.io/shshaw/pen/XbxvNj</metadata>
<path stroke="#000000" d="M33 34h2M38 34h3M30 35h1M32 35h1M34 35h1M36 35h2M41 35h1M29 36h1M31 36h1M35 36h1M39 36h2M28 37h1M38 37h1M28 38h1M39 38h3M28 39h1M41 39h1M29 40h1M41 40h2M29 41h1M43 41h1M30 42h1M41 42h2M29 43h1M37 43h4M28 44h1M36 44h1M27 45h1M37 45h1M27 46h1M31 46h1M37 46h1M27 47h1M37 47h1M28 48h1M37 48h1M29 49h2M36 49h1M28 50h1M31 50h2M35 50h1M29 51h2M33 51h1M36 51h1M34 52h2" />
<path stroke="#8faa19" d="M33 35h1M32 36h2M32 37h1M30 39h1M34 39h1M38 39h3M31 40h1M33 40h1M31 41h1M33 41h1M32 42h1M34 42h1" />
<path stroke="#dbf028" d="M38 35h3M36 36h1M29 37h1M34 37h2M37 37h1M29 38h1M31 38h1M34 38h1M36 38h2M29 39h1M31 39h1M35 39h2M37 41h1M41 41h2M38 42h3" />
<path stroke="#b2cb1e" d="M30 36h1M37 36h2M30 37h1M36 37h1M30 38h1M33 38h1M35 38h1M33 39h1M30 40h1M34 40h2M30 41h1M34 41h1M38 41h3M31 42h1M33 42h1M35 42h3M34 43h1" />
<path stroke="#414141" d="M34 36h1M31 37h1M33 37h1M32 38h1M38 38h1M32 39h1M37 39h1M32 40h1M36 40h5M32 41h1M35 41h2M35 43h2M28 47h1M36 48h1M34 49h2M33 50h2" />
<path stroke="#57b623" d="M30 43h4M29 44h1M31 44h5M29 45h4M34 45h2M30 46h1M32 46h3" />
<path stroke="#e64a29" d="M30 44h1M33 45h1" />
<path stroke="#369502" d="M28 45h1M36 45h1M28 46h2M35 46h2M29 47h8M29 48h7M31 49h3M29 50h2M34 51h2" />
</svg>