<svg xmlns="http://www.w3.org/2000/svg" viewBox="0 -0.5 68 56" shape-rendering="crispEdges">
<metadata>Made with Pixels to Svg https://codepen.io/shshaw/pen/XbxvNj</metadata>
<path stroke="#000000" d="M25 26h1M24 27h1M26 27h1M24 28h1M26 28h1M24 29h1M26 29h1M24 30h1M26 30h1M33 30h3M23 31h1M26 31h1M31 31h2M36 31h2M39 31h4M23 32h1M27 32h1M30 32h1M38 32h1M43 32h1M23 33h1M28 33h2M44 33h3M22 34h1M44 34h1M47 34h1M21 35h1M47 35h1M21 36h1M48 36h1M20 37h1M49 37h1M20 38h1M49 38h1M21 39h1M38 39h2M49 39h1M20 40h1M27 40h1M37 40h1M40 40h1M48 40h1M20 41h1M33 41h4M41 41h1M48 41h1M20 42h1M32 42h1M42 42h1M45 42h3M21 43h1M32 43h1M41 43h1M43 43h2M48 43h1M21 44h1M31 44h1M41 44h1M48 44h1M21 45h1M31 45h1M39 45h2M47 45h1M22 46h1M30 46h1M38 46h1M47 46h1M23 47h1M30 47h1M37 47h1M43 47h4M24 48h1M28 48h2M36 48h1M43 48h1M25 49h3M36 49h1M39 49h4M35 50h1M38 50h1M35 51h1M38 51h1M36 52h2" />
<path stroke="#c4c674" d="M25 27h1M25 28h1M25 29h1M25 30h1M25 31h1M33 31h3M24 32h2M31 32h5M37 32h1M39 32h4M24 33h2M30 33h5M36 33h3M40 33h3M24 34h1M26 34h1M28 34h2M31 34h4M37 34h2M41 34h1M43 34h1M45 34h2M22 35h1M24 35h1M26 35h1M28 35h3M32 35h1M35 35h2M38 35h2M42 35h3M46 35h1M22 36h1M24 36h1M27 36h3M33 36h4M41 36h4M46 36h2M21 37h3M26 37h4M32 37h4M43 37h1M46 37h1M21 38h8M33 38h1M47 38h2M22 39h2M25 39h3M46 39h2M23 40h1M25 40h1M21 41h1M23 41h2M21 42h1M23 42h2M28 42h2M22 43h3M27 43h3M22 44h2M26 44h3M23 45h1M26 45h1M23 46h1" />
<path stroke="#8b8d36" d="M24 31h1M36 32h1M26 33h1M35 33h1M43 33h1M25 34h1M35 34h2M40 34h1M42 34h1M25 35h1M33 35h2M37 35h1M41 35h1M32 36h1M25 37h1M30 37h1M37 37h2M40 37h1M45 37h1M47 37h2M30 38h2M36 38h3M40 38h2M44 38h2M24 39h1M31 39h2M34 39h4M42 39h2M48 39h1M21 40h1M24 40h1M26 40h1M30 40h3M34 40h3M41 40h4M22 41h1M30 41h3M22 42h1M25 42h1M30 42h2M25 43h2M42 43h1M24 44h2M30 44h1M42 44h3M22 45h1M24 45h2M27 45h1M30 45h1M41 45h1M43 45h1M24 46h1M29 46h1M39 46h3M28 47h2M39 47h2M25 48h3" />
<path stroke="#414141" d="M26 32h1M39 33h1M30 34h1M39 34h1M31 35h1M40 35h1M45 35h1M31 36h1M40 36h1M45 36h1M31 37h1M39 37h1M44 37h1M32 38h1M39 38h1M42 38h2M33 39h1M40 39h2M33 40h1M45 40h1M44 41h1M30 43h2M45 43h1M29 44h1M45 44h1M28 45h2M42 45h1M44 45h1M25 46h4M42 46h1M45 46h1M24 47h4M38 47h1M39 48h1M42 48h1M36 50h2M36 51h2" />
<path stroke="#6f711c" d="M27 33h1M23 34h1M27 34h1M23 35h1M27 35h1M23 36h1M25 36h2M30 36h1M37 36h3M24 37h1M36 37h1M41 37h2M29 38h1M34 38h2M46 38h1M28 39h1M30 39h1M44 39h2M22 40h1M46 40h2M25 41h1M29 41h1M42 41h2M45 41h3M26 42h2M43 42h2M46 43h2M46 44h2M45 45h2M43 46h2M46 46h1M41 47h2M37 48h2M40 48h2M37 49h2" />
<path stroke="#ffffff" d="M29 39h1M28 40h2M26 41h1M28 41h1" />
<path stroke="#7b7b7b" d="M27 41h1" />
</svg>