<svg xmlns="http://www.w3.org/2000/svg" viewBox="0 -0.5 68 56" shape-rendering="crispEdges">
<metadata>Made with Pixels to Svg https://codepen.io/shshaw/pen/XbxvNj</metadata>
<path stroke="#000000" d="M34 32h3M32 33h2M37 33h2M31 34h1M39 34h2M30 35h1M41 35h2M23 36h1M29 36h1M43 36h1M22 37h1M24 37h1M28 37h1M36 37h1M44 37h1M20 38h2M25 38h1M27 38h1M45 38h1M20 39h1M25 39h1M27 39h1M45 39h1M21 40h1M26 40h1M46 40h1M22 41h1M46 41h1M21 42h1M47 42h1M22 43h1M44 43h2M47 43h1M23 44h1M44 44h1M46 44h2M22 45h1M25 45h1M45 45h1M22 46h3M44 46h2M25 47h1M28 47h1M44 47h1M26 48h2M29 48h1M44 48h1M30 49h2M43 49h2M32 50h4M38 50h2M42 50h1M36 51h2M40 51h1M42 51h1M41 52h1" />
<path stroke="#efc2ed" d="M34 33h3M32 34h1M34 34h5M31 35h1M35 35h5M31 36h2M34 36h6M30 37h2M38 37h3M30 38h1M38 38h3M30 39h1M38 39h3M30 40h1M38 40h3M30 41h1M38 41h2M31 45h1M30 46h3M38 46h1M42 46h1M29 47h3M38 47h2M41 47h3M30 48h1M39 48h1M42 48h2" />
<path stroke="#5fb2e0" d="M33 34h1M32 35h3M33 36h1M35 37h1M37 37h1M36 38h1M27 40h1M27 41h1M43 43h1M43 44h1M44 45h1" />
<path stroke="#414141" d="M40 35h1M30 36h1M40 36h1M29 37h1M34 37h1M41 37h1M22 38h1M29 38h1M31 38h1M33 38h1M35 38h1M37 38h1M41 38h1M29 39h1M36 39h2M41 39h1M29 40h1M37 40h1M41 40h1M26 41h1M29 41h1M41 41h1M27 42h2M30 42h1M32 42h3M40 42h1M27 43h1M29 43h1M31 43h1M35 43h2M39 43h1M42 43h1M27 44h1M29 44h1M31 44h5M39 44h1M42 44h1M26 45h1M28 45h1M30 45h1M39 45h1M41 45h2M29 46h1M39 46h1M41 46h1M43 46h1M32 47h2M36 47h2M40 47h1M31 48h1M34 48h2M38 48h1M40 48h1M34 49h2M39 49h1" />
<path stroke="#8b62b4" d="M41 36h2M42 37h2M28 38h1M42 38h3M28 39h1M42 39h2M28 40h1M42 40h3M28 41h1M42 41h3M26 42h1M29 42h1M41 42h4M46 42h1M26 43h1M30 43h1M40 43h2M26 44h1M30 44h1M40 44h2M29 45h1M40 45h1M43 45h1M40 46h1" />
<path stroke="#4aac83" d="M23 37h1M23 38h2M21 39h2M24 39h1M22 40h2M25 40h1M22 42h3M24 44h2M23 45h2" />
<path stroke="#bdbdbd" d="M32 37h2M32 38h1M34 38h1M31 39h1M33 39h3M31 40h1M33 40h4M31 41h1M33 41h5M31 42h1M35 42h2M32 43h3M36 48h2M41 48h1M37 49h2M40 49h1M42 49h1M36 50h2M40 50h1M41 51h1" />
<path stroke="#418352" d="M23 39h1M24 40h1M23 41h3M25 42h1M23 43h3" />
<path stroke="#949494" d="M32 39h1M32 40h1M32 41h1M37 42h1M33 45h1M25 46h3M34 46h1M26 47h2M32 48h2M32 49h2M36 49h1M41 49h1M41 50h1" />
<path stroke="#acc5f6" d="M44 39h1M45 40h1M45 41h1M45 42h1M46 43h1" />
<path stroke="#ba8db8" d="M40 41h1M38 42h2M28 43h1M37 43h2M28 44h1M36 44h3M27 45h1M32 45h1M34 45h5M28 46h1M33 46h1M35 46h3M34 47h2" />
</svg>