<svg xmlns="http://www.w3.org/2000/svg" viewBox="0 -0.5 68 56" shape-rendering="crispEdges">
<metadata>Made with Pixels to Svg https://codepen.io/shshaw/pen/XbxvNj</metadata>
<path stroke="#000000" d="M41 30h3M30 31h4M38 31h3M44 31h1M27 32h3M34 32h2M37 32h1M44 32h1M25 33h2M36 33h1M45 33h1M24 34h1M46 34h1M24 35h1M46 35h1M23 36h1M45 36h1M23 37h1M34 37h1M44 37h1M23 38h1M33 38h1M35 38h1M43 38h1M24 39h1M34 39h1M43 39h3M24 40h1M29 40h1M46 40h1M23 41h1M29 41h1M46 41h1M22 42h1M45 42h1M22 43h1M45 43h1M23 44h1M44 44h1M24 45h2M43 45h1M26 46h2M43 46h1M28 47h1M41 47h2M27 48h1M31 48h1M38 48h3M27 49h4M32 49h1M37 49h1M31 50h1M36 50h1M31 51h2M35 51h1M33 52h2" />
<path stroke="#ffd839" d="M41 31h2M38 32h2M42 32h2M44 33h1M45 34h1M24 41h2M23 42h4M23 43h1" />
<path stroke="#b99e06" d="M43 31h1M40 32h1M27 33h1M40 33h1M43 33h1M26 34h1M40 34h1M43 34h1M32 35h4M39 35h1M42 35h1M30 36h2M39 36h1M42 36h1M29 37h1M35 37h1M41 37h1M36 38h1M37 39h2" />
<path stroke="#fff5ae" d="M30 32h4M28 33h3M35 33h1M27 34h2M31 34h4M27 35h1M29 35h3M26 36h1M28 36h2M26 37h3M25 38h3M25 39h2M26 40h1" />
<path stroke="#f2dc2e" d="M41 32h1M38 33h2M41 33h2M25 34h1M39 34h1M41 34h2M44 34h1M25 35h1M38 35h1M40 35h2M43 35h3M24 36h1M32 36h4M37 36h2M40 36h2M43 36h2M24 37h1M30 37h3M36 37h1M40 37h1M42 37h2M24 38h1M29 38h2M28 39h2M27 40h1" />
<path stroke="#ffea5b" d="M31 33h4M29 34h2M35 34h3M26 35h1M28 35h1M25 36h1M27 36h1M25 37h1M28 38h1M27 39h1" />
<path stroke="#414141" d="M37 33h1M38 34h1M36 35h2M36 36h1M33 37h1M37 37h1M31 38h2M37 38h2M42 38h1M30 39h2M36 39h1M39 39h1M42 39h1M25 40h1M28 40h1M31 40h2M35 40h4M41 40h2M26 41h2M31 41h3M38 41h3M44 41h2M27 42h2M32 42h2M42 42h2M25 43h2M28 43h1M32 43h1M24 44h3M28 44h1M42 44h2M27 45h1M34 45h1M28 46h1M34 46h2M29 47h2M35 47h2M32 48h1M37 48h1M33 51h1" />
<path stroke="#9e5d21" d="M38 37h2M39 38h3M40 39h2M39 40h2M37 42h1M34 44h1M29 48h2M34 49h2M33 50h1" />
<path stroke="#c07722" d="M32 39h2M35 39h1M33 40h2M34 41h2M34 42h1M36 42h1M35 43h1M32 44h1M33 45h1M38 45h2M36 46h4M37 47h2" />
<path stroke="#bdbdbd" d="M30 40h1M28 41h1M28 48h1" />
<path stroke="#fce14f" d="M43 40h3M41 41h3M31 42h1M40 42h2M29 43h3M41 43h1M29 44h3M39 44h2M30 45h3" />
<path stroke="#ffffff" d="M30 41h1M32 50h1M34 51h1" />
<path stroke="#e19f13" d="M36 41h2M35 42h1M38 42h2M33 43h2M36 43h5M33 44h1M35 44h4M35 45h3" />
<path stroke="#d9c132" d="M29 42h2M44 42h1M42 43h3M41 44h1M28 45h2M40 45h3M29 46h5M40 46h3M31 47h4M39 47h2M33 48h4M36 49h1" />
<path stroke="#dca11b" d="M24 43h1M27 43h1M27 44h1M26 45h1M33 49h1M34 50h2" />
</svg>