<svg xmlns="http://www.w3.org/2000/svg" viewBox="0 -0.5 68 56" shape-rendering="crispEdges">
<metadata>Made with Pixels to Svg https://codepen.io/shshaw/pen/XbxvNj</metadata>
<path stroke="#000000" d="M32 32h2M31 33h1M33 33h1M36 33h2M31 34h1M33 34h1M35 34h1M37 34h1M27 35h2M32 35h2M35 35h1M37 35h1M26 36h1M28 36h1M30 36h2M34 36h1M36 36h1M25 37h1M29 37h1M37 37h1M24 38h1M38 38h3M24 39h1M41 39h1M24 40h1M29 40h1M42 40h1M24 41h1M33 41h1M42 41h1M25 42h1M42 42h1M26 43h1M42 43h1M26 44h1M41 44h1M43 44h2M26 45h1M40 45h1M42 45h2M45 45h1M27 46h1M40 46h1M42 46h1M46 46h1M27 47h1M40 47h2M46 47h1M26 48h1M42 48h2M45 48h1M26 49h1M30 49h1M39 49h3M43 49h2M27 50h3M31 50h4M39 50h1M35 51h1M38 51h1M36 52h2" />
<path stroke="#394255" d="M32 33h1M32 34h1M36 34h1M36 35h1M32 36h1M26 37h2M31 37h6M26 38h2M30 38h4M30 39h2M40 40h2M31 41h1M37 41h1M39 41h3M36 42h1M39 42h2M27 43h1M35 43h1M35 44h1M29 45h1M36 45h1M29 46h1M31 46h1M36 46h4M29 47h3M35 47h5M29 48h3M34 48h2M38 48h1M31 49h3" />
<path stroke="#ffffff" d="M27 36h1M28 39h1M40 39h1M39 40h1M34 41h1M29 42h1M33 43h1M36 51h2" />
<path stroke="#414141" d="M33 36h1M35 36h1M28 38h1M27 39h1M29 39h1M39 39h1M27 40h1M33 40h1M38 40h1M26 41h1M38 41h1M26 42h1M41 42h1M34 44h1M35 45h1M39 45h1M44 45h1M35 46h1M43 46h3M28 47h1M34 47h1M42 47h4M28 48h1M39 48h3M44 48h1M29 49h1M34 49h1" />
<path stroke="#c5c5d6" d="M28 37h1M28 40h1M34 40h1M27 49h1" />
<path stroke="#f7b829" d="M30 37h1M29 38h1M34 38h3M25 39h1M32 39h2M35 39h3M25 40h2M32 40h1M35 40h3M25 41h1M28 41h2M35 41h2M27 42h1M30 42h4M35 42h1M37 42h1M28 43h1M34 43h1M36 43h3M29 44h4M37 44h3M30 45h2M30 46h1M36 48h2M35 49h4M35 50h3" />
<path stroke="#ad8eff" d="M25 38h1M26 39h1M38 42h1M39 43h2M27 44h2M27 45h1M33 45h2M28 46h1M33 46h2M32 47h1M32 48h2" />
<path stroke="#ce8a29" d="M37 38h1M38 39h1M29 43h1M36 44h1M37 45h2M27 48h1M28 49h1M38 50h1" />
<path stroke="#a55a31" d="M34 39h1M27 41h1M28 42h1M34 42h1M30 43h3" />
<path stroke="#d64242" d="M30 40h2M30 41h1M32 41h1" />
<path stroke="#c59431" d="M41 43h1" />
<path stroke="#6c39d4" d="M33 44h1M40 44h1M32 45h1M32 46h1" />
<path stroke="#6937ce" d="M28 45h1M33 47h1" />
</svg>