<svg xmlns="http://www.w3.org/2000/svg" viewBox="0 -0.5 68 56" shape-rendering="crispEdges">
<metadata>Made with Pixels to Svg https://codepen.io/shshaw/pen/XbxvNj</metadata>
<path stroke="#000000" d="M39 32h3M38 33h1M41 33h1M31 34h2M37 34h1M41 34h1M29 35h2M33 35h1M37 35h1M40 35h1M43 35h2M28 36h1M33 36h1M36 36h1M40 36h1M42 36h1M45 36h1M27 37h1M33 37h1M35 37h1M39 37h3M45 37h1M27 38h1M34 38h1M46 38h1M26 39h1M46 39h1M25 40h1M45 40h1M24 41h1M45 41h1M24 42h1M46 42h1M23 43h1M46 43h1M23 44h1M45 44h1M22 45h1M44 45h1M22 46h1M41 46h1M45 46h1M22 47h1M40 47h1M42 47h1M46 47h1M23 48h1M39 48h1M43 48h3M23 49h1M36 49h1M40 49h1M24 50h1M34 50h2M37 50h1M40 50h1M25 51h2M30 51h2M33 51h1M38 51h2M27 52h3M32 52h1" />
<path stroke="#d6bd9c" d="M39 33h1M38 34h1M40 34h1M32 35h1M39 35h1M30 36h3M29 37h4M29 38h4M35 38h2M27 39h1M29 39h3M33 39h3M42 39h3M26 40h1M28 40h3M34 40h1M42 40h1M25 41h1M28 41h3M40 41h3M26 42h1M28 42h3M41 42h3M26 43h2M29 43h3M40 43h3M24 44h1M26 44h7M38 44h4M25 45h2M28 45h1M32 45h3M39 45h2M25 46h1M30 46h5M38 46h2M24 47h2M27 47h8M39 47h1M24 48h2M28 48h2M31 48h3M27 49h1M31 49h3M26 50h3M32 50h1M32 51h1" />
<path stroke="#a58c73" d="M40 33h1M39 34h1M37 38h1M43 38h1M45 38h1M28 39h1M45 39h1M27 40h1M35 40h1M41 40h1M43 40h1M26 41h2M25 42h1M27 42h1M31 42h1M40 42h1M24 43h1M28 43h1M43 43h1M27 45h1M29 45h1M38 45h1M26 46h2M29 46h1M37 46h1M40 46h1M26 47h1M26 48h1M30 48h1M34 48h1M26 49h1M25 50h1M29 50h2M33 50h1M27 51h3" />
<path stroke="#f7dead" d="M31 35h1M29 36h1M28 37h1M28 38h1M25 43h1M25 44h1M24 45h1M24 46h1" />
<path stroke="#59a9b5" d="M38 35h1M37 36h3M43 36h2M37 37h2M42 37h3M38 38h3M44 38h1M36 39h6M32 40h2M36 40h5M44 40h1M32 41h8M43 41h2M33 42h2M36 42h4M44 42h2M33 43h2M37 43h3M44 43h2M35 44h1M37 44h1M43 44h2M23 45h1M36 45h2M23 46h1M36 46h1M42 46h3M23 47h1M36 47h1M43 47h3M36 48h3M35 49h1M37 49h3M38 50h2" />
<path stroke="#414141" d="M36 37h1M33 38h1M41 38h2M32 39h1M31 40h1M31 41h1M32 42h1M32 43h1M33 44h2M42 44h1M30 45h2M35 45h1M41 45h3M28 46h1M35 46h1M35 47h1M37 47h2M27 48h1M35 48h1M24 49h2M28 49h3M34 49h1M31 50h1" />
<path stroke="#d6636b" d="M35 42h1M35 43h2M36 44h1" />
</svg>