<svg xmlns="http://www.w3.org/2000/svg" viewBox="0 -0.5 68 56" shape-rendering="crispEdges">
<metadata>Made with Pixels to Svg https://codepen.io/shshaw/pen/XbxvNj</metadata>
<path stroke="#f2a56d" d="M34 31h1M33 32h3M32 33h2M35 33h2M32 34h1M36 34h1M31 35h2M36 35h3M28 36h3M38 36h3M27 37h2M40 37h2M26 38h2M41 38h2M23 39h4M42 39h1M22 40h2M25 40h2M42 40h1M22 41h1M26 41h1M42 41h1M22 42h1M26 42h1M42 42h3M22 43h1M26 43h1M42 43h4M22 44h1M42 44h4M22 45h2M42 45h2M45 45h2M23 46h2M31 46h1M42 46h2M45 46h3M24 47h4M30 47h2M41 47h5M47 47h1M27 48h2M41 48h1M43 48h2M46 48h1M48 48h1M28 49h2M40 49h2M43 49h2M47 49h1M49 49h1M29 50h5M39 50h2M43 50h2M47 50h1M49 50h1M33 51h2M38 51h2M44 51h2M47 51h2M34 52h5M44 52h2" />
<path stroke="#000000" d="M34 33h1M33 34h1M35 34h1M33 35h1M35 35h1M31 36h2M36 36h2M29 37h2M38 37h2M28 38h1M40 38h1M27 39h1M41 39h1M24 40h1M27 40h1M41 40h1M23 41h1M25 41h1M27 41h1M41 41h1M23 42h1M25 42h1M27 42h1M41 42h1M23 43h1M25 43h1M27 43h1M41 43h1M23 44h1M26 44h1M41 44h1M24 45h1M41 45h1M25 46h3M41 46h1M28 47h1M40 47h1M29 48h1M40 48h1M30 49h4M39 49h1M34 50h2M38 50h1M35 51h3" />
<path stroke="#ff493a" d="M34 34h1M34 35h1M33 36h3M31 37h1M33 37h3M37 37h1M29 38h1M31 38h9M29 39h1M31 39h2M35 39h3M30 40h2M33 40h3M30 41h3M35 41h2M28 42h1M30 42h2M35 42h2M30 43h2M35 43h2M29 44h1M34 44h2M36 45h1M34 46h3M34 47h3M34 48h2M34 49h2" />
<path stroke="#414141" d="M32 37h1M36 37h1M40 42h1M38 43h2M27 44h2M30 44h2M36 44h2M28 45h5M28 46h2M32 46h2M29 47h1M32 47h2M31 48h2M37 50h1" />
<path stroke="#f1273d" d="M30 38h1M30 39h1M33 39h2M38 39h3M32 40h1M36 40h5M24 41h1M37 41h4M37 42h3M24 43h1M37 43h1M40 43h1M24 44h2M38 44h3M25 45h1M27 45h1M37 45h4M37 46h4M37 47h3M33 48h1M36 48h4M36 49h2" />
<path stroke="#ffffff" d="M28 39h1M28 41h1M33 41h2M29 42h1M34 42h1M32 43h1M32 44h2M30 46h1" />
<path stroke="#bdbdbd" d="M28 40h1M32 42h1M34 43h1" />
<path stroke="#0538b0" d="M29 40h1M29 41h1M33 42h1M33 43h1" />
<path stroke="#ca2d56" d="M24 42h1M26 45h1M30 48h1M38 49h1M36 50h1" />
<path stroke="#737373" d="M28 43h2M33 45h3" />
<path stroke="#f8cdad" d="M46 47h1M47 48h1M48 49h1M48 50h1" />
</svg>