<svg xmlns="http://www.w3.org/2000/svg" viewBox="0 -0.5 68 56" shape-rendering="crispEdges">
<metadata>Made with Pixels to Svg https://codepen.io/shshaw/pen/XbxvNj</metadata>
<path stroke="#000000" d="M29 32h1M28 33h1M30 33h1M28 34h1M30 34h1M28 35h1M31 35h3M40 35h2M27 36h1M34 36h2M39 36h1M41 36h1M27 37h1M36 37h1M38 37h1M41 37h1M27 38h1M37 38h1M40 38h1M26 39h1M40 39h1M26 40h1M41 40h1M24 41h2M41 41h1M22 42h2M40 42h1M21 43h1M27 43h1M40 43h2M22 44h1M25 44h2M28 44h1M42 44h1M23 45h2M29 45h2M43 45h1M31 46h1M40 46h3M30 47h2M39 47h1M29 48h1M39 48h1M29 49h1M33 49h2M40 49h1M30 50h1M32 50h1M35 50h1M40 50h1M30 51h2M36 51h1M40 51h1M36 52h4" />
<path stroke="#be8f2f" d="M29 33h1M29 34h1M29 35h1M28 36h1M32 36h1M29 37h1M31 37h1M35 37h1M36 38h1M28 40h1M30 40h1M32 40h1M29 41h2M34 41h1M38 41h2M24 42h2M27 42h1M29 42h1M35 42h1M22 43h5M29 43h1M35 43h1M38 43h1M24 44h1M29 44h2M34 44h2M31 45h4M40 45h2M36 46h1M39 46h1M31 48h1M30 49h2M31 50h1M39 51h1" />
<path stroke="#414141" d="M30 35h1M29 36h2M28 37h1M26 41h1M26 42h1M36 43h1M39 43h1M23 44h1M36 44h3M41 44h1M35 45h1M32 46h1M34 46h1M35 47h2M38 47h1M32 48h1M36 48h2M35 49h1M37 50h1M38 51h1" />
<path stroke="#dcb84d" d="M31 36h1M33 36h1M40 36h1M30 37h1M32 37h3M39 37h2M28 38h2M31 38h5M39 38h1M28 39h1M30 39h7M38 39h2M31 40h1M33 40h3M37 40h2M35 41h1M37 41h1M40 41h1M36 42h4M37 43h1M39 44h2M36 45h4M42 45h1M35 46h1M38 46h1M37 47h1M37 51h1" />
<path stroke="#a36814" d="M30 38h1M38 38h1M29 39h1M37 39h1M29 40h1M36 40h1M39 40h2M28 41h1M31 41h1M33 41h1M36 41h1M28 42h1M30 42h1M34 42h1M28 43h1M30 43h1M34 43h1M31 44h1M33 44h1M37 46h1M32 47h1M34 47h1M30 48h1M33 48h3M38 48h1M32 49h1M36 49h4M36 50h1M38 50h2" />
<path stroke="#ffffff" d="M27 39h1M27 40h1M32 41h1M31 42h1" />
<path stroke="#f2af12" d="M27 41h1M33 43h1M32 44h1" />
<path stroke="#ffff75" d="M32 42h2M31 43h2" />
<path stroke="#018137" d="M33 46h1" />
<path stroke="#17d164" d="M33 47h1" />
</svg>