<svg xmlns="http://www.w3.org/2000/svg" viewBox="0 -0.5 68 56" shape-rendering="crispEdges">
<metadata>Made with Pixels to Svg https://codepen.io/shshaw/pen/XbxvNj</metadata>
<path stroke="#000000" d="M20 31h1M22 31h1M28 31h4M19 32h1M21 32h1M23 32h1M26 32h2M32 32h2M19 33h1M24 33h2M34 33h1M20 34h1M34 34h1M43 34h1M20 35h1M35 35h1M42 35h1M44 35h1M46 35h1M21 36h1M35 36h1M42 36h1M45 36h1M47 36h1M22 37h1M35 37h1M42 37h1M45 37h1M47 37h1M23 38h1M27 38h1M34 38h1M41 38h1M47 38h1M23 39h1M34 39h1M39 39h3M47 39h1M24 40h1M26 40h2M35 40h1M37 40h2M47 40h1M25 41h1M28 41h1M35 41h2M45 41h2M27 42h1M43 42h2M27 43h1M43 43h1M26 44h1M44 44h1M26 45h1M44 45h1M26 46h1M41 46h1M44 46h1M26 47h1M39 47h2M42 47h1M44 47h1M25 48h1M36 48h3M42 48h2M25 49h1M27 49h2M35 49h1M25 50h2M29 50h3M35 50h1M32 51h1M34 51h1M32 52h2" />
<path stroke="#dc5737" d="M20 32h1M22 32h1M29 32h2M27 33h1M43 35h1M46 36h1M39 40h2M37 41h1" />
<path stroke="#ce391a" d="M28 32h1M31 32h1M20 33h1M22 33h2M26 33h1M29 33h3M33 33h1M21 34h1M23 34h1M27 34h2M30 34h1M32 34h1M24 35h1M26 35h1M28 35h1M30 35h1M33 35h1M22 36h1M25 36h1M27 36h1M30 36h3M34 36h1M43 36h1M26 37h1M33 37h1M46 37h1M24 38h2M31 38h2M42 38h2M24 39h1M32 39h1M45 39h2M34 40h1M42 40h1M46 40h1M32 41h2M39 41h3M44 41h1M31 42h2M35 42h1M38 42h1M40 42h1M42 42h1M31 43h2M34 43h1M36 43h1M38 43h1M33 44h1M36 44h1M41 44h2M31 45h2M34 45h1M36 45h1M39 45h1M43 45h1M31 46h2M34 46h1M36 46h2M43 46h1M32 47h1M35 47h2M33 48h2M33 49h2M33 50h1" />
<path stroke="#414141" d="M21 33h1M22 34h1M25 34h1M22 35h1M25 35h1M23 36h1M26 36h1M44 36h1M24 37h2M29 37h1M44 37h1M26 38h1M29 38h2M44 38h1M25 39h1M30 39h1M44 39h1M28 40h1M30 40h2M41 40h1M42 41h1M30 42h1M28 43h2M29 44h2M27 45h1M30 45h1M29 46h1M40 46h1M29 47h3M37 47h1M43 47h1M26 48h3M31 48h1M29 49h4M32 50h1" />
<path stroke="#8f2511" d="M28 33h1M26 34h1M29 34h1M27 35h1M29 35h1M34 35h1M28 36h2M33 36h1M23 37h1M31 37h2M45 38h1M32 40h2M43 40h1M31 41h1M38 41h1M43 41h1M34 42h1M36 42h2M39 42h1M33 43h1M35 43h1M37 43h1M40 43h1M31 44h2M35 44h1M38 44h1M40 44h1M43 44h1M35 45h1M38 45h1M40 45h3M35 46h1M38 46h2M42 46h1M34 47h1M32 48h1M34 50h1" />
<path stroke="#139d94" d="M32 33h1M24 34h1M31 34h1M33 34h1M23 35h1M31 35h2M24 36h1M30 37h1M34 37h1M43 37h1M33 38h1M46 38h1M31 39h1M33 39h1M42 39h2M44 40h2M34 41h1M28 42h1M33 42h1M41 42h1M30 43h1M39 43h1M41 43h2M27 44h1M34 44h1M37 44h1M39 44h1M33 45h1M37 45h1M30 46h1M33 46h1" />
<path stroke="#028981" d="M21 35h1M33 47h1M38 47h1" />
<path stroke="#5c6b5c" d="M27 37h1M26 39h4M25 40h1M29 40h1M29 41h2M29 42h1M28 44h1M28 45h2M27 46h2M27 47h2M29 48h2M35 48h1M26 49h1M33 51h1" />
<path stroke="#319a00" d="M28 37h1" />
<path stroke="#6bc100" d="M28 38h1" />
</svg>