<svg xmlns="http://www.w3.org/2000/svg" viewBox="0 -0.5 68 56" shape-rendering="crispEdges">
<metadata>Made with Pixels to Svg https://codepen.io/shshaw/pen/XbxvNj</metadata>
<path stroke="#000000" d="M32 31h3M31 32h2M35 32h1M33 33h1M36 33h1M33 34h1M36 34h1M32 35h1M36 35h1M31 36h2M36 36h1M29 37h2M35 37h1M44 37h2M28 38h1M35 38h1M42 38h2M45 38h1M27 39h1M36 39h1M40 39h2M45 39h1M27 40h1M36 40h1M39 40h1M45 40h1M26 41h1M31 41h1M36 41h1M38 41h1M44 41h1M26 42h1M31 42h1M37 42h1M44 42h1M25 43h1M44 43h1M24 44h3M43 44h1M27 45h1M42 45h1M27 46h1M41 46h1M27 47h1M41 47h1M28 48h1M40 48h1M28 49h1M39 49h1M29 50h1M37 50h2M30 51h2M36 51h1M32 52h1M34 52h1M36 52h1M33 53h1M35 53h1" />
<path stroke="#734e3c" d="M33 32h1M34 33h1M34 34h2M33 35h3M34 36h1M31 37h3M31 38h4M32 39h4M31 40h2M34 40h2M40 40h1M44 40h1M34 41h2M39 41h1M43 41h1M33 42h4M38 42h2M42 42h2M32 43h6M39 43h1M41 43h3M33 44h5M41 44h2M31 45h1M34 45h5M40 45h1M31 46h3M35 46h2M38 46h1M40 46h1M28 47h1M30 47h1M32 47h2M35 47h2M40 47h1M29 48h1M31 48h1M33 48h1" />
<path stroke="#414141" d="M34 32h1M35 33h1M33 36h1M35 36h1M34 37h1M26 43h2M38 43h1M38 44h3M39 45h1M41 45h1M28 46h1M30 46h1M34 46h1M29 47h1M31 47h1M34 47h1M32 48h1M34 48h2M33 49h1M35 49h2" />
<path stroke="#9d7662" d="M29 38h2M28 39h4M29 40h2M37 46h1M39 46h1M37 47h3M36 48h4M32 49h1M34 49h1M37 49h2M31 50h6" />
<path stroke="#d6d6d6" d="M44 38h1M42 39h3M41 40h3M41 41h2M40 42h2M40 43h1" />
<path stroke="#ffffff" d="M28 40h1M33 40h1M29 41h2M32 41h1M30 42h1M32 42h1M31 43h1M30 44h3M28 45h3M33 45h1M29 46h1M30 48h1M29 49h3M30 50h1" />
<path stroke="#bd9985" d="M27 41h1M33 41h1M40 41h1M32 45h1" />
<path stroke="#d6793a" d="M28 41h1M27 42h1M30 43h1M27 44h3M34 51h1" />
<path stroke="#f7bf29" d="M28 42h2M28 43h2M33 52h1M35 52h1" />
<path stroke="#815a48" d="M32 51h2M35 51h1" />
</svg>