<svg xmlns="http://www.w3.org/2000/svg" viewBox="0 -0.5 68 56" shape-rendering="crispEdges">
<metadata>Made with Pixels to Svg https://codepen.io/shshaw/pen/XbxvNj</metadata>
<path stroke="#000000" d="M32 35h4M30 36h2M36 36h2M29 37h1M38 37h1M28 38h1M39 38h1M28 39h1M39 39h1M27 40h1M40 40h1M26 41h1M40 41h1M25 42h1M40 42h1M25 43h1M41 43h1M24 44h1M41 44h1M25 45h2M41 45h1M26 46h1M41 46h1M25 47h1M42 47h1M25 48h1M43 48h1M26 49h2M43 49h1M28 50h1M38 50h1M41 50h2M29 51h2M33 51h2M37 51h1M39 51h2M31 52h2M35 52h2" />
<path stroke="#7fafff" d="M32 36h4M30 37h8M29 38h10M29 39h10M28 40h1M31 40h3M35 40h5M29 41h2M32 41h2M35 41h5M29 42h11M28 43h1M31 43h1M34 43h7M29 44h4M35 44h5M31 45h2M36 45h2" />
<path stroke="#414141" d="M29 40h2M28 41h1M28 42h1M29 43h2M26 44h1M28 44h1M29 45h2M35 45h1M38 45h1M36 46h2" />
<path stroke="#ffffff" d="M34 40h1" />
<path stroke="#ff994d" d="M27 41h1M26 42h1M26 43h1M33 43h1M25 44h1M34 44h1M34 45h1M34 46h1M35 47h1" />
<path stroke="#6187e3" d="M31 41h1M27 42h1M27 43h1M32 43h1M27 44h1M33 44h1M40 44h1M27 45h2M39 45h2M27 46h6M35 46h1M38 46h2M26 47h4M31 47h3M37 47h3M26 48h3M32 48h3M38 48h3M42 48h1M28 49h1M32 49h3M38 49h5M29 50h1M31 50h5M37 50h1M39 50h2M31 51h2M35 51h2" />
<path stroke="#e40a96" d="M34 41h1" />
<path stroke="#5a5a5a" d="M33 45h1M33 46h1M40 46h1M30 47h1M34 47h1M36 47h1M40 47h2M29 48h3M35 48h3M41 48h1M29 49h3M35 49h3M30 50h1M36 50h1" />
</svg>