<svg xmlns="http://www.w3.org/2000/svg" viewBox="0 -0.5 68 56" shape-rendering="crispEdges">
<metadata>Made with Pixels to Svg https://codepen.io/shshaw/pen/XbxvNj</metadata>
<path stroke="#000000" d="M29 33h2M29 34h1M31 34h1M30 35h1M32 35h1M38 35h2M28 36h2M33 36h1M38 36h1M40 36h2M27 37h1M33 37h1M39 37h1M42 37h1M26 38h1M34 38h1M39 38h1M43 38h1M26 39h1M34 39h1M39 39h1M44 39h1M25 40h1M34 40h1M38 40h1M44 40h1M25 41h1M35 41h1M38 41h1M45 41h1M24 42h1M35 42h1M37 42h1M42 42h2M45 42h1M24 43h1M36 43h1M39 43h2M42 43h1M44 43h2M23 44h1M25 44h1M38 44h1M41 44h1M23 45h1M37 45h1M23 46h1M29 46h1M37 46h1M40 46h2M23 47h1M37 47h1M39 47h1M42 47h1M24 48h1M38 48h1M41 48h1M25 49h2M39 49h1M42 49h1M26 50h1M38 50h1M40 50h2M27 51h2M30 51h1M33 51h1M35 51h3M28 52h2M31 52h2M34 52h1" />
<path stroke="#704c32" d="M30 34h1M31 35h1M31 36h2M39 36h1M32 37h1M40 37h1M33 38h1M40 38h3M33 39h1M40 39h1M43 39h1M39 40h2M43 40h1M39 41h3M44 41h1M38 42h1M41 42h1M44 42h1M37 43h1M41 43h1" />
<path stroke="#5d3c22" d="M30 36h1M31 37h1M41 37h1M32 38h1M41 39h2M33 40h1M41 40h2M42 41h2M39 42h2M38 43h1M37 44h1M34 51h1" />
<path stroke="#ffc011" d="M28 37h2M30 38h1M31 39h1M31 40h1M32 41h1M26 42h3M32 42h1M26 43h4M32 43h1M26 44h8M28 45h1M31 45h3M31 46h2" />
<path stroke="#414141" d="M30 37h1M31 38h1M32 39h1M32 40h1M33 41h2M33 42h1M33 43h1M34 44h1M24 45h1M34 45h1M36 45h1M24 46h1M26 46h1M34 46h1M25 47h1M29 47h1M33 47h1M36 47h1M28 48h1M31 48h2M35 48h1M37 48h1M40 48h1M27 49h4M35 49h1M33 50h2M36 50h1M32 51h1" />
<path stroke="#78c367" d="M27 38h1M29 39h1M34 43h2M36 44h1M35 45h1M34 48h1M31 49h1M27 50h1" />
<path stroke="#c87900" d="M28 38h2M28 39h1M30 39h1M28 40h1M30 40h1M28 41h1M31 41h1M25 42h1M31 42h1M30 43h2M33 46h1M31 47h2M30 48h1M36 48h1M36 49h1M35 50h1" />
<path stroke="#a7f296" d="M27 39h1M29 40h1M26 41h2M29 42h2M34 42h1M35 44h1M35 46h2M34 47h2M33 48h1M32 49h3M28 50h5M29 51h1M31 51h1" />
<path stroke="#848484" d="M26 40h2M29 41h2M25 46h1M26 47h1" />
<path stroke="#ffffff" d="M25 43h1M29 45h1M30 46h1M30 47h1M29 48h1" />
<path stroke="#ffa8f2" d="M24 44h1M26 45h1M27 46h1M27 47h1M41 47h1M26 48h1M37 49h1M41 49h1" />
<path stroke="#d170de" d="M25 45h1M27 45h1M28 46h1M24 47h1M28 47h1M40 47h1M25 48h1M27 48h1M39 48h1M38 49h1M40 49h1M37 50h1" />
<path stroke="#bdbdbd" d="M30 45h1" />
</svg>