<svg xmlns="http://www.w3.org/2000/svg" viewBox="0 -0.5 68 56" shape-rendering="crispEdges">
<metadata>Made with Pixels to Svg https://codepen.io/shshaw/pen/XbxvNj</metadata>
<path stroke="#000000" d="M38 32h2M44 32h2M38 33h1M40 33h1M43 33h1M45 33h1M33 34h3M39 34h2M43 34h2M31 35h2M35 35h1M40 35h1M42 35h1M23 36h2M29 36h2M36 36h1M41 36h1M23 37h1M25 37h2M28 37h1M37 37h1M41 37h1M43 37h4M23 38h1M27 38h1M38 38h2M41 38h2M45 38h1M47 38h1M24 39h1M40 39h1M46 39h2M24 40h1M41 40h1M25 41h1M41 41h1M26 42h1M41 42h1M26 43h1M30 43h1M42 43h1M25 44h1M42 44h1M25 45h1M38 45h2M42 45h1M26 46h1M37 46h1M40 46h1M43 46h1M25 47h1M37 47h1M40 47h1M43 47h1M25 48h1M36 48h1M41 48h2M26 49h1M29 49h1M36 49h1M27 50h2M30 50h1M32 50h2M36 50h1M31 51h1M33 51h1M36 51h1M34 52h2" />
<path stroke="#7b7b8c" d="M39 33h1M44 33h1M46 38h1M41 47h2M27 49h2M34 51h2" />
<path stroke="#4bb901" d="M33 35h1M31 36h1M41 43h1M33 45h3M27 46h2M31 46h4M30 47h5M29 48h5M30 49h3M31 50h1" />
<path stroke="#63e401" d="M34 35h1M32 36h4M32 37h3M33 38h2M36 43h1M34 44h2" />
<path stroke="#ffffff" d="M24 37h1M36 37h1M24 38h1M36 38h1M35 39h1M33 41h2M27 42h1M31 42h1M31 43h1" />
<path stroke="#414141" d="M29 37h3M35 37h1M28 38h1M32 38h1M35 38h1M27 39h1M33 39h2M38 39h1M26 40h1M32 40h1M37 40h1M26 41h1M32 41h1M37 41h1M33 42h1M36 42h2M34 43h2M37 43h1M33 44h1M36 44h1M31 45h2M36 45h1M30 46h1M35 46h1M27 47h3M35 47h1M28 48h1M34 48h1M33 49h1" />
<path stroke="#bdbdb5" d="M25 38h2M37 38h1M25 39h2M36 39h2M33 40h4M35 41h1" />
<path stroke="#94948c" d="M29 38h1M25 40h1M28 40h1M36 41h1M28 42h1M34 42h2M27 43h1" />
<path stroke="#eefc00" d="M30 38h2M28 39h5M27 40h1M29 40h3M38 40h2M27 41h4M38 41h3M29 42h1M38 42h3M29 43h1M38 43h2M26 44h4M27 45h2" />
<path stroke="#c9c200" d="M39 39h1M40 40h1M31 41h1M30 42h1M32 42h1M32 43h2M40 43h1M30 44h3M37 44h5M26 45h1M29 45h2M37 45h1M40 45h2M29 46h1M36 46h1M41 46h2M26 47h1M36 47h1M26 48h2M35 48h1M34 49h2M34 50h2" />
<path stroke="#73736b" d="M28 43h1" />
</svg>