<svg xmlns="http://www.w3.org/2000/svg" viewBox="0 -0.5 68 56" shape-rendering="crispEdges">
<metadata>Made with Pixels to Svg https://codepen.io/shshaw/pen/XbxvNj</metadata>
<path stroke="#000000" d="M32 30h4M30 31h2M36 31h3M28 32h2M36 32h1M38 32h2M27 33h1M37 33h1M39 33h2M26 34h1M37 34h1M40 34h2M26 35h1M38 35h1M41 35h1M27 36h1M38 36h1M41 36h2M27 37h1M38 37h1M42 37h1M27 38h1M38 38h1M42 38h1M25 39h2M37 39h1M42 39h1M23 40h2M37 40h1M41 40h2M22 41h1M36 41h1M41 41h1M22 42h1M37 42h1M40 42h5M21 43h1M23 43h2M28 43h1M38 43h2M45 43h2M21 44h2M25 44h1M33 44h1M47 44h1M25 45h1M45 45h2M48 45h1M21 46h3M26 46h1M44 46h1M47 46h2M21 47h1M24 47h1M27 47h2M43 47h1M22 48h1M25 48h3M29 48h1M41 48h2M23 49h2M29 49h1M38 49h3M29 50h1M37 50h1M30 51h1M35 51h2M31 52h4" />
<path stroke="#9c734a" d="M32 31h2" />
<path stroke="#414141" d="M34 31h2M32 32h2M27 35h2M28 36h1M33 36h1M29 37h1M32 37h4M29 38h1M31 38h7M28 39h2M31 39h2M34 39h2M26 40h1M29 40h6M27 41h1M28 42h2M34 42h2M30 43h4M29 44h1M37 44h1M30 45h1M36 45h1M30 46h1M36 46h1M30 47h1M36 47h1M37 48h1" />
<path stroke="#887358" d="M30 32h1M28 33h2M32 33h1M27 34h2M30 39h1M25 41h2M24 42h4M25 43h3M26 44h3M26 45h4M38 45h2M27 46h3M37 46h1M29 47h1M34 50h1" />
<path stroke="#c5b096" d="M31 32h1M34 32h1M30 33h2M33 33h3M29 34h2M32 34h5M29 35h8M30 36h3M35 36h3M30 37h2M37 37h1M30 38h1M40 43h5M38 44h2M43 44h3M37 45h1M40 45h4M38 46h5M34 47h1M37 47h5M32 49h1" />
<path stroke="#a89479" d="M35 32h1M36 33h1M31 34h1M37 35h1M29 36h1M34 36h1M36 37h1M25 40h1M23 41h2M23 42h1M22 43h1M40 44h3M46 44h1M44 45h1M47 45h1M43 46h1M42 47h1M38 48h3" />
<path stroke="#7991d6" d="M28 37h1M28 38h1M36 39h1M35 40h2" />
<path stroke="#a1bfff" d="M27 39h1M27 40h2M28 41h8M30 42h4" />
<path stroke="#ffffff" d="M33 39h1M32 44h1M34 44h1" />
<path stroke="#a2ce52" d="M36 42h1M36 43h2M30 44h1M36 44h1M31 45h1M22 47h2M23 48h2M36 48h1M30 49h1M35 49h3M30 50h4M35 50h2M31 51h4" />
<path stroke="#cecece" d="M29 43h1M34 43h2" />
<path stroke="#7eb53a" d="M31 44h1M35 44h1M32 45h3" />
<path stroke="#c7f75a" d="M35 45h1M31 46h5M31 47h3M35 47h1M30 48h6M31 49h1M33 49h2" />
</svg>