<svg xmlns="http://www.w3.org/2000/svg" viewBox="0 -0.5 68 56" shape-rendering="crispEdges">
<metadata>Made with Pixels to Svg https://codepen.io/shshaw/pen/XbxvNj</metadata>
<path stroke="#000000" d="M33 30h1M31 31h2M34 31h1M30 32h1M34 32h1M30 33h1M34 33h1M46 33h2M30 34h1M34 34h1M45 34h1M47 34h1M30 35h1M35 35h1M44 35h1M46 35h1M29 36h1M35 36h4M44 36h1M46 36h1M27 37h1M29 37h1M39 37h2M42 37h2M47 37h1M25 38h2M28 38h1M41 38h1M47 38h1M24 39h1M44 39h1M48 39h1M24 40h1M42 40h2M45 40h3M23 41h1M42 41h1M22 42h1M41 42h1M22 43h1M40 43h1M21 44h1M39 44h1M21 45h1M38 45h1M21 46h1M39 46h2M22 47h1M41 47h2M22 48h1M35 48h3M43 48h1M23 49h1M33 49h2M37 49h1M42 49h1M24 50h2M31 50h2M38 50h1M40 50h1M43 50h1M26 51h5M39 51h1M41 51h2" />
<path stroke="#35a3ff" d="M33 31h1M31 32h1M32 33h2M31 34h3M31 35h2M27 38h1M29 38h1M25 39h1M27 39h1M29 39h3M25 40h1M28 40h4M24 41h1M26 41h4M23 42h3M28 42h1M23 43h2M27 43h1M34 43h1M22 44h2M26 44h1M33 44h2M22 45h5M31 45h4M23 46h11M37 46h2M23 47h1M28 47h2M37 47h1M39 47h2M38 48h3M42 48h1M39 49h1M41 49h1M39 50h1M42 50h1" />
<path stroke="#2c4c7b" d="M32 32h1M46 34h1M45 35h1M45 36h1M37 37h1M44 37h1M46 37h1M38 38h1M42 38h2M45 38h2M39 39h1M43 39h1M45 39h3M40 41h1M26 42h2M40 42h1M25 43h2M28 43h3M39 43h1M24 44h2M27 44h1M30 44h2M27 45h3M23 48h2M30 48h2M28 49h3" />
<path stroke="#69ceff" d="M33 32h1M31 33h1M45 37h1M33 38h1M39 38h1M35 40h1M40 40h1M36 42h1M28 44h1M36 44h1M22 46h1M24 47h1M38 47h1M41 48h1M25 49h1M40 49h1" />
<path stroke="#2f5798" d="M33 35h1M31 36h2M34 37h1M38 37h1M30 38h2M40 38h1M26 39h1M28 39h1M32 39h1M40 39h2M26 40h1M33 40h1M41 40h1M34 41h1M41 41h1M34 42h1M35 43h1M35 44h1M35 45h1M35 46h1M34 47h1M34 48h1M38 49h1M41 50h1" />
<path stroke="#2975cc" d="M34 35h1M30 36h1M33 36h2M30 37h4M35 37h2M32 38h1M34 38h4M33 39h6M27 40h1M32 40h1M34 40h1M36 40h4M25 41h1M30 41h2M33 41h1M35 41h5M29 42h1M35 42h1M37 42h3M33 43h1M36 43h3M32 44h1M37 44h2M30 45h1M36 45h1M34 46h1M27 47h1M32 47h2M35 47h1M25 48h2M33 48h1M24 49h1M26 49h2M32 49h1M26 50h5" />
<path stroke="#314260" d="M44 38h1M42 39h1" />
<path stroke="#f4d35a" d="M32 41h1M30 42h2M33 42h1M31 43h2M29 44h1" />
<path stroke="#ac953d" d="M32 42h1" />
<path stroke="#304369" d="M37 45h1M36 46h1M25 47h2M30 47h2M36 47h1M27 48h3M32 48h1M31 49h1" />
</svg>