<svg xmlns="http://www.w3.org/2000/svg" viewBox="0 -0.5 68 56" shape-rendering="crispEdges">
<metadata>Made with Pixels to Svg https://codepen.io/shshaw/pen/XbxvNj</metadata>
<path stroke="#000000" d="M27 36h1M26 37h1M28 37h1M30 37h6M25 38h2M28 38h2M36 38h2M24 39h1M38 39h1M25 40h1M29 40h1M39 40h1M25 41h1M40 41h1M26 42h2M33 42h1M40 42h2M27 43h1M40 43h1M42 43h1M28 44h1M42 44h1M29 45h2M36 45h2M43 45h1M31 46h5M38 46h2M41 46h2M31 47h1M34 47h1M37 47h2M40 47h1M30 48h2M35 48h2M39 48h1M29 49h1M39 49h1M30 50h2M35 50h4M32 51h2M36 51h1M34 52h2" />
<path stroke="#ffa28a" d="M27 37h1M27 38h1M25 39h2M39 41h1M39 42h1M38 43h2M41 43h1M40 44h2M42 45h1" />
<path stroke="#eba7b1" d="M30 38h1M35 38h1M36 39h1M37 40h1M37 41h1M28 43h1M36 43h1M29 44h2M35 44h2M31 45h4M33 47h1M32 48h3M37 48h2M30 49h1M36 49h2M34 51h2" />
<path stroke="#fecbd4" d="M31 38h4M29 39h1M32 39h4M28 40h1M32 40h5M28 41h9M29 42h4M34 42h3M31 43h4" />
<path stroke="#ed6c46" d="M27 39h1M26 40h1M26 41h1M37 43h1M38 44h2M38 45h1M40 45h2M40 46h1" />
<path stroke="#414141" d="M28 39h1M27 40h1M27 41h1M38 41h1M38 42h1M29 43h2M31 44h3M37 44h1M39 45h1M35 49h1M34 50h1" />
<path stroke="#ffdde3" d="M30 39h2M30 40h2" />
<path stroke="#b35763" d="M37 39h1M38 40h1M28 42h1M37 42h1M35 43h1M34 44h1M35 45h1M31 49h1" />
<path stroke="#3a525a" d="M32 47h1M32 49h2" />
<path stroke="#ce7a86" d="M34 49h1M38 49h1M32 50h2" />
</svg>