<svg xmlns="http://www.w3.org/2000/svg" viewBox="0 -0.5 68 56" shape-rendering="crispEdges">
<metadata>Made with Pixels to Svg https://codepen.io/shshaw/pen/XbxvNj</metadata>
<path stroke="#000000" d="M34 30h2M32 31h2M35 31h1M31 32h1M35 32h1M31 33h1M32 34h1M35 34h1M24 35h4M31 35h1M35 35h1M23 36h1M28 36h3M32 36h1M34 36h1M37 36h3M24 37h1M31 37h2M34 37h1M36 37h1M39 37h1M24 38h1M34 38h2M38 38h1M25 39h1M38 39h2M25 40h1M40 40h2M24 41h1M28 41h1M42 41h1M23 42h1M43 42h1M23 43h1M33 43h1M43 43h1M24 44h1M44 44h1M24 45h1M44 45h1M25 46h2M42 46h3M27 47h1M41 47h1M28 48h1M40 48h1M29 49h1M37 49h3M29 50h1M35 50h2M30 51h1M34 51h1M31 52h3" />
<path stroke="#597999" d="M34 31h1M33 32h2M32 33h1M33 34h2M32 35h2M33 36h1M33 37h1M31 38h3M29 39h6M29 40h7M27 41h1M29 41h5M35 41h1M27 42h1M29 42h4M34 42h3M28 43h5M35 43h2M29 44h4M34 44h2" />
<path stroke="#414141" d="M32 32h1M33 33h2M34 35h1M29 38h2M27 39h2M35 39h3M27 40h1M36 40h1M26 41h1M34 41h1M36 41h1M37 42h1M27 43h1M37 43h1M28 44h1M36 44h1M38 44h1M28 45h1M31 45h4M39 45h2M28 46h1M30 46h1M41 46h1M28 47h2M39 47h1M36 48h1" />
<path stroke="#3a634a" d="M24 36h2M26 37h2M28 38h1M26 40h1M37 40h1M38 41h2M40 42h1M38 43h1M41 43h1M39 44h1M42 44h1M41 45h1M43 45h1" />
<path stroke="#4a7b6b" d="M26 36h2M25 37h1M28 37h3M25 38h3M26 39h1" />
<path stroke="#4aa563" d="M37 37h2M36 38h2M38 40h2M37 41h1M40 41h2M38 42h2M41 42h2M39 43h2M42 43h1M40 44h2M43 44h1M42 45h1" />
<path stroke="#ffffff" d="M28 40h1M28 42h1M33 42h1M26 43h1M25 44h1M27 44h1M33 44h1M26 45h1M35 46h1M34 47h1M36 47h1M30 48h1M35 48h1M31 49h1M30 50h1" />
<path stroke="#9cce4a" d="M25 41h1M24 42h2M24 43h2M37 44h1M36 45h3M31 46h4M36 46h3M30 47h4M29 48h1M31 48h3" />
<path stroke="#7b9c4a" d="M26 42h1M26 44h1M25 45h1M27 45h1M29 45h2M35 45h1M27 46h1M29 46h1M39 46h2M35 47h1M37 47h2M40 47h1M34 48h1M37 48h3M30 49h1M32 49h5M31 50h4M31 51h3" />
<path stroke="#bdbdbd" d="M34 43h1" />
</svg>