<svg xmlns="http://www.w3.org/2000/svg" viewBox="0 -0.5 68 56" shape-rendering="crispEdges">
<metadata>Made with Pixels to Svg https://codepen.io/shshaw/pen/XbxvNj</metadata>
<path stroke="#000000" d="M38 31h2M41 31h2M37 32h1M40 32h1M42 32h1M44 32h2M37 33h1M43 33h1M45 33h1M38 34h2M45 34h4M40 35h1M49 35h1M23 36h3M32 36h1M40 36h1M44 36h2M49 36h1M21 37h2M26 37h2M31 37h1M33 37h1M36 37h1M39 37h1M44 37h1M46 37h3M20 38h1M28 38h1M30 38h1M33 38h1M35 38h1M37 38h1M39 38h1M43 38h1M20 39h1M29 39h1M34 39h1M37 39h1M42 39h1M21 40h2M34 40h1M42 40h1M23 41h1M41 41h1M22 42h1M40 42h1M22 43h1M41 43h2M22 44h1M43 44h2M23 45h1M45 45h1M22 46h2M34 46h2M45 46h1M22 47h1M24 47h1M32 47h2M35 47h2M44 47h1M22 48h1M25 48h2M30 48h2M33 48h1M36 48h1M43 48h1M27 49h3M33 49h1M35 49h2M32 50h2M35 50h1M31 51h2" />
<path stroke="#ffffff" d="M38 32h2M39 33h2M46 35h2M47 36h2M25 38h1M23 40h1M40 44h3M38 45h2M42 45h1M24 46h1M37 46h5M26 47h1M39 47h1" />
<path stroke="#41629e" d="M41 32h1M44 33h1M44 34h1M43 37h1M40 38h2M31 40h2M35 40h1M38 40h3M24 41h1M30 41h1M31 42h1M35 42h1M31 43h1M24 45h3M34 45h1M27 46h1M25 47h1M27 47h1" />
<path stroke="#bdbdbd" d="M38 33h1M40 34h1M45 35h1M48 35h1M46 36h1M24 39h1M38 43h2M35 44h3M36 45h2M38 47h1" />
<path stroke="#414141" d="M41 33h2M41 34h1M43 34h1M43 35h1M41 36h2M23 38h2M26 38h1M25 39h2M31 39h2M35 39h1M24 40h2M28 40h3M33 40h1M36 40h2M27 41h1M31 41h1M34 41h1M37 41h1M26 42h1M32 42h1M38 42h2M23 43h1M34 43h4M40 43h1M33 44h2M38 44h2M29 45h1M32 45h2M35 45h1M40 45h2M29 46h3M33 46h1M36 46h1M42 46h1M29 47h1M37 47h1M43 47h1M28 48h1M38 48h2M40 49h3" />
<path stroke="#737373" d="M42 34h1M41 35h2M44 35h1M32 37h1M27 38h1M31 38h2M36 38h1M27 39h2M30 39h1M33 39h1M36 39h1M26 40h2M26 41h1" />
<path stroke="#5d81bc" d="M43 36h1M42 37h1M42 38h1M40 39h2M41 40h1M25 41h1M28 41h2M32 41h2M35 41h2M39 41h2M24 42h2M27 42h4M33 42h2M36 42h2M24 43h7M33 43h1M25 44h5M25 46h2" />
<path stroke="#ff3b95" d="M23 37h3M40 37h2M21 38h2M21 39h2M38 39h2M38 41h1M23 42h1M32 43h1M23 44h2M31 44h2M27 45h2M30 45h2M44 45h1M28 46h1M32 46h1M43 46h2M28 47h1M30 47h2M42 47h1M27 48h1M29 48h1M40 48h3" />
<path stroke="#ff80b8" d="M23 39h1M30 44h1M43 45h1M40 47h2" />
</svg>