<svg xmlns="http://www.w3.org/2000/svg" viewBox="0 -0.5 68 56" shape-rendering="crispEdges">
<metadata>Made with Pixels to Svg https://codepen.io/shshaw/pen/XbxvNj</metadata>
<path stroke="#000000" d="M29 31h5M27 32h2M25 33h2M31 33h2M22 34h1M24 34h1M33 34h3M21 35h1M23 35h1M36 35h1M21 36h1M35 36h1M21 37h1M34 37h1M36 37h2M21 38h1M39 38h1M21 39h1M38 39h1M42 39h3M21 40h1M37 40h1M41 40h1M45 40h1M20 41h1M24 41h1M38 41h1M40 41h1M46 41h1M20 42h1M39 42h2M46 42h1M21 43h1M47 43h1M20 44h1M25 44h3M39 44h1M42 44h2M47 44h1M20 45h3M24 45h1M27 45h1M37 45h2M40 45h2M44 45h2M48 45h1M22 46h2M26 46h1M35 46h2M46 46h2M25 47h1M31 47h1M35 47h1M24 48h1M30 48h1M32 48h2M36 48h1M24 49h2M28 49h2M34 49h1M37 49h1M25 50h3M33 50h1M37 50h1M33 51h2M37 51h1M34 52h4" />
<path stroke="#834fc1" d="M29 32h2M27 33h3M25 34h8M24 35h5M31 35h3M24 36h4M31 36h3M23 37h3M29 37h1M31 37h2M35 37h1M23 38h1M29 38h1M31 38h6M27 39h1M30 39h1M33 39h3M32 40h3M32 41h5M21 42h1M33 42h5M45 42h1M34 43h3M46 43h1M21 44h1M34 44h4M45 44h2M23 45h1M35 45h2M46 45h2M29 46h1M30 47h1M32 47h1M26 49h1M34 50h1M35 51h1" />
<path stroke="#6d383a" d="M31 32h2M30 33h1M34 35h2M34 36h1M33 37h1M37 38h2M36 39h2M35 40h2M42 40h3M37 41h1M41 41h5M38 42h1M41 42h4M37 43h3M42 43h4M38 44h1M44 44h1" />
<path stroke="#8c8cad" d="M22 35h1M22 36h1M29 36h1M28 37h1M26 38h3M22 39h1M24 39h3M28 39h1M22 40h3M27 40h2M21 41h3M27 41h1M22 42h4M29 43h1M31 43h1M22 44h2M28 44h2M31 44h2M28 45h1M30 45h3M27 46h1M30 46h3M34 46h1M34 47h1M27 48h2M34 48h2M27 49h1M35 49h2M35 50h1" />
<path stroke="#414141" d="M29 35h2M23 36h1M28 36h1M30 36h1M22 37h1M27 37h1M30 37h1M22 38h1M30 38h1M29 39h1M32 39h1M29 40h1M31 40h1M28 41h1M31 41h1M26 42h2M29 42h1M32 42h1M22 43h4M28 43h1M30 43h1M32 43h1M30 44h1M33 44h1M29 45h1M33 45h1M28 46h1M33 46h1M27 47h3M33 47h1M26 48h1M29 48h1" />
<path stroke="#5e4a9c" d="M26 37h1M24 38h2M23 39h1M33 43h1M34 45h1M25 48h1M36 51h1" />
<path stroke="#623f46" d="M31 39h1M30 40h1M29 41h2M28 42h1M30 42h2M26 43h2M24 44h1M26 47h1M36 50h1" />
<path stroke="#e6cb18" d="M25 40h1M25 41h1M40 43h1M40 44h2" />
<path stroke="#ffffff" d="M26 40h1" />
<path stroke="#bdc5c5" d="M26 41h1" />
<path stroke="#cea600" d="M41 43h1" />
</svg>