<svg xmlns="http://www.w3.org/2000/svg" viewBox="0 -0.5 68 56" shape-rendering="crispEdges">
<metadata>Made with Pixels to Svg https://codepen.io/shshaw/pen/XbxvNj</metadata>
<path stroke="#000000" d="M26 32h2M26 33h1M28 33h1M26 34h1M29 34h1M38 34h3M26 35h1M29 35h1M37 35h1M41 35h2M27 36h1M30 36h1M33 36h4M43 36h1M26 37h1M31 37h2M43 37h1M25 38h1M44 38h1M25 39h1M44 39h1M25 40h1M27 40h2M42 40h2M45 40h1M26 41h3M30 41h1M41 41h1M44 41h2M27 42h5M40 42h1M27 43h1M29 43h3M38 43h1M40 43h1M28 44h1M37 44h1M39 44h2M29 45h3M36 45h2M32 46h4M37 46h2M34 47h1M38 47h1M34 48h1M38 48h1M38 49h2M39 50h1M39 51h1" />
<path stroke="#5b9505" d="M27 33h1M28 34h1M28 35h1M39 36h4M33 37h1M39 37h1M41 37h2M38 38h1M42 38h2M26 39h1M37 39h2M43 39h1M29 40h1M32 40h1M35 40h2M38 40h2M44 40h1M31 41h5M39 41h2M32 42h2M33 43h2M36 43h2M39 43h1M30 44h1M32 44h1M34 44h3M33 45h3" />
<path stroke="#9f7232" d="M27 34h1M27 35h1M40 37h1M39 38h2M33 39h2M39 39h1M37 40h1M36 41h1M34 42h2" />
<path stroke="#88c232" d="M38 35h3M38 36h1M27 37h4M34 37h3M38 37h1M26 38h4M32 38h2M37 38h1M27 39h6M36 39h1M30 40h2M32 43h1M29 44h1" />
<path stroke="#414141" d="M28 36h2M37 36h1M37 37h1M30 38h2M36 38h1M35 39h1M33 40h2M36 42h2M35 43h1M33 44h1M32 45h1" />
<path stroke="#cda45f" d="M34 38h2M41 38h1M40 39h3M40 40h2M37 41h2M38 42h2" />
<path stroke="#ffffff" d="M26 40h1M29 41h1" />
<path stroke="#cecec5" d="M28 43h1M31 44h1" />
</svg>