<svg xmlns="http://www.w3.org/2000/svg" viewBox="0 -0.5 48 48" shape-rendering="crispEdges">
<metadata>Made with Pixels to Svg https://codepen.io/shshaw/pen/XbxvNj</metadata>
<path stroke="#ffffff" d="M0 0h48M0 1h22M25 1h23M0 2h21M22 2h2M26 2h22M0 3h20M21 3h2M27 3h21M0 4h9M12 4h8M21 4h2M27 4h12M41 4h7M0 5h8M10 5h1M15 5h4M20 5h2M28 5h8M42 5h6M0 6h8M9 6h1M11 6h1M20 6h2M28 6h5M36 6h1M42 6h6M0 7h8M10 7h1M19 7h3M29 7h1M33 7h1M35 7h1M42 7h6M0 8h8M9 8h1M19 8h2M32 8h1M34 8h1M42 8h6M0 9h8M18 9h2M21 9h2M41 9h7M0 10h9M18 10h2M21 10h1M41 10h7M0 11h9M17 11h2M20 11h2M41 11h7M0 12h9M18 12h1M20 12h2M41 12h7M0 13h7M19 13h3M40 13h8M0 14h2M7 14h3M12 14h1M17 14h3M32 14h2M40 14h8M0 15h1M2 15h8M12 15h3M16 15h3M20 15h3M30 15h3M41 15h7M0 16h1M4 16h6M13 16h1M15 16h3M28 16h4M37 16h4M45 16h3M0 17h2M7 17h2M13 17h3M19 17h4M28 17h3M36 17h9M47 17h1M0 18h3M13 18h2M17 18h5M29 18h1M35 18h9M0 19h3M13 19h1M16 19h5M34 19h6M0 20h4M35 20h2M47 20h1M0 21h5M16 21h5M46 21h2M0 22h6M15 22h5M45 22h3M0 23h7M8 23h3M15 23h4M33 23h1M44 23h4M0 24h6M7 24h5M15 24h3M21 24h1M32 24h5M43 24h5M0 25h5M15 25h2M20 25h2M31 25h4M43 25h5M0 26h4M6 26h1M15 26h1M19 26h2M44 26h4M0 27h3M5 27h1M7 27h1M12 27h1M18 27h2M45 27h3M0 28h2M4 28h1M6 28h1M11 28h1M46 28h2M0 29h2M12 29h1M47 29h1M0 30h3M11 30h1M30 30h1M0 31h5M10 31h1M29 31h1M31 31h1M0 32h7M10 32h2M13 32h1M28 32h1M30 32h1M47 32h1M0 33h8M10 33h2M13 33h1M29 33h1M45 33h3M0 34h8M9 34h3M13 34h1M30 34h2M42 34h6M0 35h8M9 35h2M13 35h1M20 35h4M31 35h2M40 35h8M0 36h8M9 36h2M12 36h1M18 36h1M32 36h2M40 36h8M0 37h7M8 37h3M20 37h2M33 37h1M36 37h1M40 37h8M0 38h7M8 38h3M21 38h2M35 38h1M37 38h1M40 38h8M0 39h7M8 39h2M21 39h2M36 39h2M41 39h7M0 40h7M8 40h2M22 40h1M36 40h2M41 40h7M0 41h7M8 41h1M18 41h2M22 41h1M37 41h2M41 41h7M0 42h7M15 42h6M29 42h2M38 42h1M41 42h7M0 43h8M12 43h9M28 43h6M39 43h1M41 43h7M0 44h22M27 44h10M40 44h8M0 45h22M27 45h21M0 46h23M26 46h22M0 47h48" />
<path stroke="#000000" d="M22 1h3M21 2h1M25 2h1M20 3h1M24 3h1M26 3h1M9 4h3M20 4h1M24 4h1M26 4h1M39 4h2M8 5h1M12 5h3M19 5h1M25 5h1M27 5h1M36 5h3M41 5h1M8 6h1M13 6h1M15 6h5M25 6h1M27 6h1M33 6h3M41 6h1M8 7h1M14 7h1M16 7h1M18 7h1M26 7h1M28 7h1M30 7h3M40 7h2M8 8h1M15 8h1M17 8h2M21 8h2M26 8h1M29 8h2M40 8h2M8 9h1M16 9h2M20 9h1M23 9h1M27 9h1M29 9h1M31 9h1M39 9h2M9 10h1M15 10h1M17 10h1M20 10h1M23 10h1M27 10h1M30 10h1M32 10h1M34 10h1M36 10h1M38 10h1M40 10h1M9 11h1M12 11h1M14 11h1M16 11h1M19 11h1M24 11h1M28 11h1M30 11h2M33 11h1M35 11h1M37 11h1M39 11h2M9 12h1M11 12h1M13 12h1M15 12h2M19 12h1M24 12h1M28 12h1M31 12h2M34 12h1M36 12h1M38 12h3M8 13h8M17 13h2M25 13h2M29 13h1M31 13h3M35 13h1M37 13h1M39 13h1M3 14h4M11 14h1M14 14h3M27 14h1M29 14h3M34 14h3M38 14h2M1 15h1M10 15h1M28 15h2M35 15h5M1 16h1M10 16h1M18 16h7M34 16h2M41 16h3M2 17h1M11 17h1M17 17h2M24 17h2M33 17h2M45 17h2M3 18h1M11 18h1M16 18h1M25 18h2M33 18h1M46 18h2M3 19h1M11 19h1M15 19h1M24 19h1M26 19h2M33 19h1M45 19h3M4 20h1M11 20h1M14 20h1M22 20h4M27 20h2M33 20h1M44 20h1M46 20h1M5 21h1M10 21h1M13 21h1M23 21h4M28 21h1M34 21h1M42 21h2M45 21h1M6 22h1M8 22h2M13 22h1M20 22h1M24 22h4M29 22h1M34 22h1M40 22h2M44 22h1M7 23h1M13 23h1M19 23h1M21 23h1M24 23h4M29 23h1M34 23h3M38 23h2M42 23h2M6 24h1M18 24h1M20 24h1M24 24h4M29 24h1M37 24h2M41 24h2M5 25h1M7 25h1M17 25h1M19 25h1M24 25h4M29 25h1M39 25h4M4 26h1M8 26h2M16 26h3M24 26h4M29 26h1M39 26h2M43 26h1M3 27h1M9 27h2M13 27h1M15 27h3M24 27h1M26 27h1M29 27h1M37 27h3M44 27h1M2 28h1M8 28h1M10 28h1M13 28h1M15 28h4M23 28h1M25 28h1M27 28h1M29 28h1M33 28h6M40 28h1M45 28h1M2 29h1M7 29h1M9 29h2M13 29h1M22 29h1M24 29h1M26 29h1M28 29h1M34 29h2M37 29h3M41 29h1M46 29h1M3 30h2M8 30h1M10 30h1M14 30h1M16 30h6M23 30h1M25 30h1M27 30h2M34 30h2M37 30h2M40 30h1M42 30h1M44 30h1M46 30h2M5 31h3M9 31h1M11 31h1M15 31h1M17 31h6M24 31h1M26 31h2M33 31h1M35 31h1M38 31h2M41 31h1M43 31h1M45 31h1M47 31h1M7 32h3M12 32h1M16 32h1M18 32h6M25 32h2M32 32h1M36 32h1M38 32h1M40 32h1M42 32h5M8 33h2M12 33h1M17 33h2M24 33h2M32 33h1M36 33h1M38 33h7M8 34h1M12 34h1M18 34h7M32 34h1M36 34h1M38 34h4M8 35h1M12 35h1M33 35h1M37 35h1M39 35h1M8 36h1M11 36h1M16 36h2M34 36h1M37 36h1M39 36h1M11 37h1M14 37h2M18 37h1M26 37h5M34 37h1M37 37h1M39 37h1M7 38h1M11 38h3M18 38h2M25 38h2M31 38h1M34 38h1M39 38h1M7 39h1M15 39h3M20 39h1M25 39h1M32 39h3M38 39h1M7 40h1M13 40h2M18 40h4M24 40h4M38 40h1M40 40h1M7 41h1M11 41h2M15 41h3M20 41h2M24 41h2M27 41h4M39 41h2M7 42h1M9 42h2M12 42h3M21 42h4M26 42h1M28 42h1M31 42h3M39 42h2M8 43h4M21 43h1M23 43h1M25 43h1M27 43h1M34 43h3M40 43h1M22 44h1M24 44h1M26 44h1M37 44h3M22 45h1M25 45h2M23 46h3" />
<path stroke="#5a5aff" d="M24 2h1M23 3h1M25 3h1M23 4h1M25 4h1M9 5h1M11 5h1M22 5h3M26 5h1M39 5h2M10 6h1M12 6h1M14 6h1M22 6h3M26 6h1M37 6h4M9 7h1M11 7h3M15 7h1M17 7h1M22 7h4M27 7h1M34 7h1M36 7h4M10 8h5M16 8h1M23 8h3M27 8h2M31 8h1M33 8h1M35 8h5M9 9h7M24 9h3M28 9h1M30 9h1M32 9h7M10 10h5M16 10h1M24 10h3M28 10h2M31 10h1M33 10h1M35 10h1M37 10h1M39 10h1M10 11h2M13 11h1M15 11h1M25 11h3M29 11h1M32 11h1M34 11h1M36 11h1M38 11h1M10 12h1M12 12h1M14 12h1M17 12h1M25 12h3M29 12h2M33 12h1M35 12h1M37 12h1M7 13h1M16 13h1M27 13h2M30 13h1M34 13h1M36 13h1M38 13h1M2 14h1M10 14h1M20 14h4M28 14h1M37 14h1M15 15h1M19 15h1M40 15h1M2 16h2M14 16h1M36 16h1M44 16h1M3 17h4M9 17h2M23 17h1M35 17h1M4 18h7M12 18h1M22 18h3M34 18h1M44 18h2M4 19h7M21 19h3M25 19h1M32 19h1M40 19h5M5 20h6M15 20h7M26 20h1M34 20h1M37 20h7M45 20h1M6 21h4M14 21h2M21 21h2M27 21h1M35 21h7M44 21h1M7 22h1M14 22h1M21 22h3M28 22h1M35 22h5M42 22h2M14 23h1M20 23h1M22 23h2M28 23h1M37 23h1M40 23h2M13 24h2M19 24h1M22 24h2M28 24h1M39 24h2M6 25h1M8 25h1M13 25h2M18 25h1M22 25h2M28 25h1M5 26h1M7 26h1M13 26h2M21 26h3M28 26h1M41 26h2M4 27h1M6 27h1M8 27h1M14 27h1M20 27h4M25 27h1M27 27h2M40 27h4M3 28h1M5 28h1M7 28h1M9 28h1M14 28h1M19 28h4M24 28h1M26 28h1M28 28h1M32 28h1M39 28h1M41 28h4M3 29h4M8 29h1M14 29h8M23 29h1M25 29h1M27 29h1M36 29h1M40 29h1M42 29h4M5 30h3M9 30h1M15 30h1M22 30h1M24 30h1M26 30h1M36 30h1M39 30h1M41 30h1M43 30h1M45 30h1M8 31h1M16 31h1M23 31h1M25 31h1M34 31h1M36 31h2M40 31h1M42 31h1M44 31h1M46 31h1M17 32h1M24 32h1M33 32h3M37 32h1M39 32h1M41 32h1M14 33h1M19 33h5M33 33h3M37 33h1M14 34h1M33 34h3M37 34h1M11 35h1M15 35h1M19 35h1M34 35h3M38 35h1M20 36h4M28 36h2M35 36h2M38 36h1M7 37h1M16 37h2M19 37h1M35 37h1M38 37h1M14 38h4M20 38h1M27 38h4M36 38h1M38 38h1M10 39h5M18 39h2M26 39h6M35 39h1M39 39h2M10 40h3M15 40h3M23 40h1M28 40h8M39 40h1M9 41h2M13 41h2M23 41h1M26 41h1M31 41h6M8 42h1M11 42h1M25 42h1M27 42h1M34 42h4M22 43h1M24 43h1M26 43h1M37 43h2M23 44h1M25 44h1M23 45h2" />
<path stroke="#ef4a5a" d="M22 10h1M22 11h2M22 12h2M22 13h3M13 14h1M24 14h3M11 15h1M23 15h5M33 15h2M11 16h2M25 16h3M32 16h2M12 17h1M16 17h1M26 17h2M31 17h2M15 18h1M27 18h2M30 18h3M12 19h1M14 19h1M28 19h4M12 20h2M29 20h4M11 21h2M29 21h5M10 22h3M30 22h4M11 23h2M30 23h3M12 24h1M30 24h2M9 25h4M30 25h1M35 25h4M10 26h3M30 26h9M11 27h1M30 27h7M12 28h1M30 28h2M11 29h1M29 29h5M12 30h2M29 30h1M31 30h3M12 31h3M28 31h1M30 31h1M32 31h1M14 32h2M27 32h1M29 32h1M31 32h1M15 33h2M26 33h3M30 33h2M15 34h3M25 34h5M14 35h1M16 35h3M24 35h7M13 36h3M19 36h1M24 36h4M30 36h2M12 37h2M22 37h4M31 37h2M23 38h2M32 38h2M23 39h2" />
</svg>