<svg xmlns="http://www.w3.org/2000/svg" viewBox="0 -0.5 40 40" shape-rendering="crispEdges">
<metadata>Made with Pixels to Svg https://codepen.io/shshaw/pen/XbxvNj</metadata>
<path stroke="#ffffff" d="M0 0h40M0 1h40M0 2h40M0 3h40M0 4h40M0 5h40M0 6h22M26 6h14M0 7h21M22 7h2M27 7h13M0 8h10M13 8h7M21 8h3M28 8h12M0 9h9M10 9h1M15 9h3M21 9h2M29 9h11M0 10h8M9 10h3M31 10h9M0 11h8M9 11h2M35 11h5M0 12h7M36 12h4M0 13h7M37 13h3M0 14h6M37 14h3M0 15h6M37 15h3M0 16h6M36 16h4M0 17h5M36 17h4M0 18h5M6 18h1M35 18h5M0 19h4M5 19h2M34 19h6M0 20h3M4 20h2M34 20h6M0 21h2M3 21h3M34 21h6M0 22h2M3 22h1M35 22h5M0 23h2M36 23h4M0 24h3M37 24h3M0 25h4M37 25h3M0 26h4M38 26h2M0 27h3M38 27h2M0 28h3M38 28h2M0 29h2M38 29h2M0 30h2M37 30h3M0 31h2M10 31h3M35 31h5M0 32h3M8 32h7M31 32h9M0 33h4M7 33h9M29 33h11M0 34h18M28 34h12M0 35h19M27 35h13M0 36h21M25 36h15M0 37h40M0 38h40M0 39h40" />
<path stroke="#000000" d="M22 6h4M21 7h1M26 7h1M10 8h3M20 8h1M27 8h1M9 9h1M13 9h2M18 9h2M28 9h1M8 10h1M15 10h3M29 10h2M8 11h1M31 11h4M7 12h1M35 12h1M7 13h1M36 13h1M6 14h1M19 14h1M36 14h1M6 15h1M36 15h1M6 16h1M12 16h1M35 16h1M5 17h1M19 17h3M35 17h1M5 18h1M15 18h3M34 18h1M4 19h1M12 19h2M33 19h1M3 20h1M32 20h2M2 21h1M31 21h1M33 21h1M2 22h1M31 22h1M34 22h1M2 23h1M35 23h1M3 24h1M36 24h1M4 25h1M36 25h1M4 26h1M37 26h1M3 27h1M37 27h1M3 28h1M37 28h1M2 29h1M37 29h1M2 30h1M10 30h3M35 30h2M2 31h1M8 31h2M13 31h2M32 31h3M3 32h1M7 32h1M15 32h1M29 32h2M4 33h3M16 33h2M28 33h1M18 34h1M27 34h1M19 35h2M25 35h2M21 36h4" />
<path stroke="#8cb5e6" d="M24 7h1M24 8h1M11 9h2M20 9h1M23 9h2M20 10h6M11 11h3M18 11h8M8 12h19M30 12h5M8 13h27M7 14h12M20 14h15M7 15h27M7 16h5M13 16h19M6 17h13M23 17h7M7 18h8M19 18h11M7 19h5M15 19h14M6 20h23M6 21h23M4 22h26M3 23h27M5 24h26M33 24h2M6 25h24M31 25h1M33 25h3M6 26h23M30 26h1M32 26h1M34 26h2M5 27h25M31 27h1M33 27h1M35 27h1M4 28h25M30 28h1M32 28h1M3 29h6M15 29h13M29 29h1M3 30h4M18 30h8M4 31h2M20 31h4" />
<path stroke="#4a63de" d="M25 7h1M25 8h2M25 9h3M12 10h3M18 10h2M26 10h3M14 11h4M26 11h5M27 12h3M35 13h1M35 14h1M34 15h2M32 16h3M22 17h1M30 17h5M18 18h1M30 18h4M14 19h1M29 19h4M29 20h3M29 21h2M32 21h1M30 22h1M32 22h2M30 23h5M4 24h1M31 24h2M35 24h1M5 25h1M30 25h1M32 25h1M5 26h1M29 26h1M31 26h1M33 26h1M36 26h1M4 27h1M30 27h1M32 27h1M34 27h1M36 27h1M29 28h1M31 28h1M33 28h4M9 29h6M28 29h1M30 29h7M7 30h3M13 30h5M26 30h9M3 31h1M6 31h2M15 31h5M24 31h8M4 32h3M16 32h13M18 33h10M19 34h8M21 35h4" />
</svg>