<svg xmlns="http://www.w3.org/2000/svg" viewBox="0 -0.5 48 48" shape-rendering="crispEdges">
<metadata>Made with Pixels to Svg https://codepen.io/shshaw/pen/XbxvNj</metadata>
<path stroke="#ffffff" d="M0 0h1M4 0h44M6 1h8M17 1h31M0 2h1M7 2h4M19 2h29M0 3h1M8 3h1M20 3h28M0 4h2M19 4h29M0 5h2M18 5h7M27 5h21M0 6h3M17 6h4M23 6h1M28 6h20M0 7h4M16 7h4M29 7h19M0 8h4M14 8h4M30 8h18M0 9h3M8 9h2M12 9h5M32 9h16M0 10h3M9 10h7M34 10h14M0 11h3M10 11h5M35 11h13M0 12h3M11 12h3M37 12h11M0 13h3M24 13h1M39 13h9M0 14h4M24 14h1M40 14h8M0 15h4M23 15h2M27 15h4M41 15h7M0 16h5M20 16h1M23 16h2M26 16h5M32 16h1M42 16h6M0 17h6M18 17h3M22 17h2M25 17h6M32 17h2M43 17h5M0 18h7M17 18h3M22 18h1M24 18h1M26 18h5M32 18h1M34 18h1M43 18h5M0 19h9M15 19h1M17 19h3M22 19h1M24 19h1M26 19h4M31 19h1M33 19h1M35 19h1M44 19h4M0 20h5M10 20h1M14 20h2M17 20h3M27 20h3M31 20h2M34 20h1M44 20h4M0 21h5M14 21h3M18 21h2M30 21h2M33 21h1M45 21h3M0 22h6M7 22h3M14 22h4M30 22h1M32 22h1M45 22h3M0 23h7M8 23h4M16 23h1M0 24h8M9 24h4M42 24h4M47 24h1M0 25h8M11 25h4M39 25h6M46 25h2M0 26h8M9 26h2M13 26h2M36 26h9M46 26h2M0 27h9M10 27h3M14 27h2M18 27h1M34 27h5M45 27h3M0 28h10M11 28h3M17 28h2M35 28h1M39 28h4M44 28h4M0 29h10M13 29h2M16 29h3M36 29h6M43 29h5M0 30h11M12 30h1M18 30h2M36 30h5M43 30h5M0 31h11M12 31h3M17 31h1M19 31h1M45 31h3M0 32h12M19 32h1M27 32h1M37 32h3M46 32h2M0 33h12M13 33h3M19 33h1M38 33h2M46 33h2M0 34h11M12 34h4M19 34h1M46 34h2M0 35h11M12 35h5M41 35h1M45 35h3M0 36h12M13 36h3M40 36h8M0 37h12M13 37h2M16 37h2M33 37h1M35 37h1M40 37h8M0 38h13M15 38h4M32 38h1M34 38h3M39 38h9M0 39h13M16 39h4M33 39h3M39 39h9M0 40h13M17 40h2M20 40h4M33 40h1M39 40h9M0 41h11M21 41h4M26 41h1M41 41h7M0 42h10M20 42h1M24 42h2M30 42h3M42 42h6M0 43h8M10 43h1M19 43h5M26 43h7M35 43h2M38 43h1M42 43h6M0 44h7M8 44h4M17 44h17M35 44h2M38 44h1M42 44h6M0 45h6M7 45h1M9 45h1M11 45h1M16 45h19M41 45h7M0 46h6M14 46h34M0 47h7M13 47h35" />
<path stroke="#7b52c5" d="M1 0h1M14 1h1M5 2h1M18 2h1M2 3h1M4 3h3M11 3h1M3 4h4M9 4h2M12 4h1M3 5h9M13 5h1M4 6h1M6 6h5M12 6h1M25 6h1M5 7h2M8 7h4M13 7h1M22 7h1M24 7h1M26 7h1M5 8h1M10 8h2M21 8h1M25 8h1M4 9h3M18 9h1M20 9h1M27 9h1M4 10h2M17 10h1M19 10h1M22 10h1M30 10h2M4 11h2M7 11h1M9 11h1M20 11h1M27 11h1M30 11h4M4 12h3M8 12h1M16 12h1M18 12h1M29 12h2M32 12h1M36 12h1M4 13h4M10 13h1M15 13h1M26 13h1M29 13h1M31 13h1M33 13h1M5 14h4M11 14h1M13 14h1M17 14h1M26 14h1M32 14h1M5 15h6M14 15h1M16 15h1M35 15h1M6 16h6M13 16h1M15 16h1M17 16h1M31 16h1M40 16h1M7 17h4M12 17h1M14 17h1M16 17h1M24 17h1M31 17h1M39 17h3M9 18h3M13 18h1M23 18h1M31 18h1M38 18h4M11 19h3M16 19h1M23 19h1M30 19h1M39 19h4M9 20h1M12 20h1M16 20h1M23 20h1M30 20h1M37 20h1M40 20h3M6 21h2M11 21h1M17 21h1M22 21h1M28 21h2M36 21h1M40 21h4M13 22h1M22 22h1M34 22h2M41 22h3M22 23h1M31 23h1M33 23h1M13 24h1M19 24h1M22 24h1M32 24h1M37 24h2M41 24h1M8 25h3M18 25h2M25 25h1M33 25h2M11 26h2M18 26h2M24 26h1M27 26h1M31 26h3M35 26h1M13 27h1M19 27h1M23 27h1M39 27h4M14 28h2M29 28h1M36 28h3M11 29h2M19 29h1M30 29h1M34 29h2M13 30h2M16 30h1M22 30h1M30 30h1M33 30h1M18 31h1M20 31h1M29 31h3M35 31h5M41 31h2M15 32h1M18 32h1M21 32h1M30 32h3M41 32h4M24 33h1M29 33h4M34 33h1M41 33h4M29 34h3M33 34h1M42 34h1M44 34h1M28 35h4M33 35h2M16 36h1M18 36h1M27 36h4M35 36h2M15 37h1M19 37h3M25 37h4M37 37h2M14 38h1M21 38h5M29 38h1M20 39h1M30 39h1M37 39h1M14 40h2M19 40h1M26 40h1M32 40h1M36 40h2M11 41h1M15 41h2M25 41h1M27 41h1M34 41h5M16 42h3M34 42h1M8 43h1M15 43h2M37 43h1M39 43h1M7 44h1M14 44h2M8 45h1M10 45h1M35 45h1M8 47h1M12 47h1" />
<path stroke="#000000" d="M2 0h2M0 1h1M4 1h2M15 1h2M1 2h1M6 2h1M11 2h3M17 2h1M1 3h1M7 3h1M9 3h2M19 3h1M2 4h1M7 4h2M18 4h1M2 5h1M17 5h1M25 5h2M3 6h1M5 6h1M16 6h1M21 6h2M24 6h1M26 6h2M4 7h1M7 7h1M14 7h2M20 7h2M23 7h1M25 7h1M27 7h2M4 8h1M6 8h4M12 8h2M18 8h3M22 8h3M26 8h4M3 9h1M7 9h1M10 9h2M17 9h1M19 9h1M21 9h6M28 9h4M3 10h1M6 10h3M16 10h1M18 10h1M20 10h2M26 10h4M32 10h2M3 11h1M6 11h1M8 11h1M15 11h5M24 11h1M26 11h1M28 11h2M34 11h1M3 12h1M7 12h1M9 12h2M14 12h2M17 12h1M23 12h3M27 12h2M35 12h1M3 13h1M8 13h2M11 13h4M16 13h1M22 13h2M25 13h1M27 13h2M37 13h2M4 14h1M9 14h2M12 14h1M14 14h2M22 14h2M25 14h1M27 14h4M39 14h1M4 15h1M11 15h3M20 15h3M25 15h2M31 15h2M40 15h1M5 16h1M18 16h2M21 16h2M25 16h1M33 16h3M41 16h1M6 17h1M17 17h1M21 17h1M36 17h1M42 17h1M7 18h2M15 18h2M20 18h2M25 18h1M37 18h1M42 18h1M9 19h2M14 19h1M20 19h2M25 19h1M38 19h1M43 19h1M5 20h4M11 20h1M13 20h1M20 20h2M26 20h1M39 20h1M43 20h1M5 21h1M8 21h3M12 21h2M20 21h1M25 21h3M39 21h1M44 21h1M6 22h1M10 22h3M18 22h3M24 22h6M40 22h1M44 22h1M7 23h1M12 23h4M17 23h4M23 23h8M37 23h11M8 24h1M14 24h5M20 24h1M23 24h9M33 24h4M39 24h2M46 24h1M15 25h3M20 25h1M22 25h3M26 25h7M35 25h4M45 25h1M8 26h1M15 26h3M20 26h1M22 26h2M28 26h3M34 26h1M45 26h1M9 27h1M16 27h2M20 27h1M22 27h1M29 27h5M43 27h2M10 28h1M16 28h1M19 28h4M30 28h3M43 28h1M10 29h1M15 29h1M20 29h3M31 29h1M42 29h1M11 30h1M15 30h1M17 30h1M20 30h2M31 30h1M41 30h2M11 31h1M15 31h2M21 31h1M26 31h3M40 31h1M43 31h2M12 32h3M16 32h2M25 32h2M28 32h2M33 32h2M40 32h1M45 32h1M12 33h1M16 33h3M25 33h4M33 33h1M35 33h3M40 33h1M45 33h1M11 34h1M16 34h1M18 34h1M24 34h4M32 34h1M38 34h4M43 34h1M45 34h1M11 35h1M17 35h1M40 35h1M42 35h3M12 36h1M17 36h1M19 36h2M31 36h1M39 36h1M12 37h1M18 37h1M29 37h2M39 37h1M13 38h1M19 38h2M26 38h3M37 38h2M13 39h3M21 39h5M36 39h1M38 39h1M13 40h1M16 40h1M34 40h2M38 40h1M12 41h1M17 41h4M30 41h4M39 41h2M10 42h1M19 42h1M21 42h3M26 42h4M33 42h1M41 42h1M9 43h1M17 43h2M24 43h2M33 43h1M41 43h1M16 44h1M34 44h1M37 44h1M39 44h1M41 44h1M6 45h1M13 45h3M36 45h5M6 46h1M8 46h1M10 46h1M13 46h1M7 47h1M9 47h3" />
<path stroke="#deadff" d="M1 1h3M2 2h3M14 2h3M3 3h1M12 3h7M11 4h1M13 4h5M12 5h1M14 5h3M11 6h1M13 6h3M12 7h1M23 10h3M21 11h3M25 11h1M19 12h4M26 12h1M31 12h1M33 12h2M17 13h5M30 13h1M32 13h1M34 13h3M16 14h1M18 14h4M31 14h1M33 14h6M15 15h1M17 15h3M33 15h2M36 15h4M12 16h1M14 16h1M16 16h1M36 16h4M11 17h1M13 17h1M15 17h1M34 17h2M37 17h2M12 18h1M14 18h1M33 18h1M35 18h2M32 19h1M34 19h1M36 19h2M22 20h1M24 20h2M33 20h1M35 20h2M38 20h1M21 21h1M23 21h2M32 21h1M34 21h2M37 21h2M21 22h1M23 22h1M31 22h1M33 22h1M36 22h4M21 23h1M32 23h1M34 23h3M21 24h1M21 25h1M21 26h1M25 26h2M21 27h1M24 27h5M23 28h6M33 28h2M23 29h7M32 29h2M23 30h7M32 30h1M34 30h2M22 31h4M32 31h3M20 32h1M22 32h3M35 32h2M20 33h4M17 34h1M20 34h4M28 34h1M34 34h4M18 35h10M32 35h1M35 35h5M21 36h6M32 36h3M37 36h2M22 37h3M31 37h2M34 37h1M36 37h1M30 38h2M33 38h1M26 39h4M31 39h2M24 40h2M27 40h5M13 41h2M28 41h2M11 42h5M35 42h6M11 43h4M34 43h1M40 43h1M12 44h2M40 44h1M12 45h1M7 46h1M9 46h1M11 46h2" />
</svg>