<svg xmlns="http://www.w3.org/2000/svg" viewBox="0 -0.5 56 56" shape-rendering="crispEdges">
<metadata>Made with Pixels to Svg https://codepen.io/shshaw/pen/XbxvNj</metadata>
<path stroke="#ffffff" d="M0 0h21M23 0h9M35 0h21M0 1h20M21 1h2M25 1h6M32 1h2M36 1h20M0 2h20M21 2h2M26 2h4M31 2h2M37 2h19M0 3h20M21 3h1M31 3h2M37 3h19M0 4h20M21 4h1M31 4h1M36 4h20M0 5h19M20 5h2M36 5h20M0 6h19M20 6h5M36 6h20M0 7h19M20 7h6M37 7h19M0 8h18M19 8h7M37 8h19M0 9h17M18 9h7M38 9h18M0 10h16M17 10h7M38 10h18M0 11h16M17 11h6M38 11h18M0 12h16M17 12h6M24 12h1M38 12h18M0 13h16M18 13h1M20 13h2M23 13h2M27 13h3M39 13h17M0 14h17M18 14h1M20 14h2M23 14h1M28 14h2M40 14h16M0 15h17M18 15h1M20 15h2M23 15h1M28 15h1M40 15h16M0 16h18M19 16h4M41 16h15M0 17h16M19 17h5M35 17h1M41 17h15M0 18h14M19 18h4M34 18h2M41 18h15M0 19h13M20 19h1M22 19h1M33 19h2M40 19h16M0 20h12M40 20h16M0 21h12M39 21h17M0 22h7M10 22h1M38 22h18M0 23h6M8 23h1M39 23h17M0 24h6M21 24h2M41 24h15M0 25h2M5 25h1M30 25h2M43 25h13M0 26h1M2 26h1M6 26h2M15 26h4M30 26h2M46 26h2M52 26h4M0 27h1M6 27h1M14 27h4M31 27h2M48 27h4M53 27h3M0 28h1M32 28h1M49 28h4M54 28h2M0 29h2M11 29h1M39 29h3M50 29h1M54 29h2M0 30h4M24 30h1M38 30h6M53 30h3M0 31h5M24 31h2M36 31h9M54 31h2M0 32h6M14 32h1M24 32h2M28 32h2M37 32h9M54 32h2M0 33h7M13 33h1M25 33h1M27 33h3M38 33h8M50 33h1M53 33h3M0 34h8M13 34h1M27 34h3M39 34h7M50 34h6M0 35h8M27 35h2M40 35h7M49 35h7M0 36h9M22 36h3M41 36h15M0 37h9M21 37h5M42 37h14M0 38h10M21 38h5M42 38h14M0 39h11M20 39h6M43 39h13M0 40h12M20 40h6M43 40h13M0 41h12M20 41h6M43 41h13M0 42h12M20 42h5M43 42h13M0 43h13M21 43h3M42 43h14M0 44h13M42 44h14M0 45h14M41 45h15M0 46h14M40 46h16M0 47h15M40 47h16M0 48h16M42 48h14M0 49h14M45 49h11M0 50h12M14 50h1M29 50h2M43 50h2M47 50h9M0 51h11M12 51h6M25 51h6M39 51h2M42 51h4M48 51h8M0 52h10M13 52h4M19 52h2M25 52h7M39 52h2M48 52h8M0 53h10M19 53h2M24 53h12M47 53h9M0 54h11M22 54h16M45 54h11M0 55h12M15 55h3M21 55h35" />
<path stroke="#000000" d="M21 0h2M33 0h2M23 1h2M35 1h1M20 2h1M25 2h1M30 2h1M36 2h1M20 3h1M26 3h5M36 3h1M23 4h2M30 4h1M35 4h1M22 5h1M35 5h1M35 6h1M36 7h1M18 8h1M36 8h1M17 9h1M37 9h1M16 10h1M37 10h1M16 11h1M37 11h1M16 12h1M27 12h2M37 12h1M26 13h1M36 13h1M38 13h1M17 14h1M25 14h1M27 14h1M36 14h1M39 14h1M25 15h1M27 15h1M35 15h1M39 15h1M18 16h1M24 16h1M27 16h1M35 16h2M40 16h1M16 17h3M24 17h1M34 17h1M36 17h1M40 17h1M14 18h2M18 18h1M33 18h1M36 18h1M40 18h1M13 19h1M18 19h1M32 19h1M35 19h1M39 19h1M12 20h1M19 20h1M24 20h2M28 20h2M31 20h4M39 20h1M12 21h1M15 21h1M20 21h4M26 21h2M31 21h1M34 21h2M38 21h1M7 22h1M9 22h1M11 22h1M16 22h1M23 22h5M29 22h1M32 22h1M36 22h2M6 23h1M10 23h2M16 23h1M21 23h2M24 23h1M29 23h1M33 23h1M38 23h1M6 24h1M11 24h1M16 24h1M19 24h2M25 24h1M30 24h1M33 24h1M39 24h2M2 25h1M4 25h1M6 25h2M12 25h1M15 25h4M25 25h1M39 25h1M42 25h1M1 26h1M5 26h1M8 26h2M12 26h3M19 26h1M34 26h1M39 26h1M43 26h3M50 26h2M1 27h1M13 27h1M24 27h2M34 27h1M39 27h1M46 27h2M52 27h1M1 28h1M5 28h1M11 28h1M22 28h2M26 28h1M39 28h3M53 28h1M2 29h3M10 29h1M14 29h1M20 29h6M27 29h1M32 29h3M38 29h1M42 29h2M53 29h1M4 30h1M10 30h1M14 30h1M18 30h2M23 30h1M25 30h1M27 30h1M31 30h1M35 30h3M44 30h2M52 30h1M5 31h1M10 31h1M13 31h5M23 31h1M26 31h1M28 31h3M35 31h1M45 31h1M53 31h1M6 32h3M11 32h3M15 32h1M23 32h1M26 32h1M35 32h1M46 32h1M50 32h1M53 32h1M7 33h1M9 33h4M14 33h1M24 33h1M26 33h1M36 33h1M46 33h1M49 33h1M51 33h2M8 34h1M12 34h1M14 34h1M24 34h2M36 34h3M46 34h1M49 34h1M8 35h1M13 35h1M22 35h2M33 35h3M37 35h1M39 35h1M47 35h2M9 36h1M13 36h1M21 36h1M27 36h1M31 36h2M36 36h2M40 36h1M9 37h1M12 37h1M20 37h1M28 37h1M30 37h1M38 37h1M41 37h1M10 38h1M12 38h1M20 38h1M28 38h1M30 38h1M38 38h1M41 38h1M11 39h2M19 39h1M29 39h2M39 39h1M42 39h1M12 40h1M19 40h1M29 40h1M39 40h1M42 40h1M12 41h1M19 41h1M29 41h1M39 41h1M42 41h1M12 42h1M19 42h1M29 42h1M39 42h1M42 42h1M13 43h1M19 43h1M29 43h1M38 43h1M41 43h1M13 44h1M19 44h2M28 44h1M38 44h1M41 44h1M14 45h1M19 45h1M21 45h1M28 45h1M37 45h1M40 45h1M14 46h2M18 46h2M27 46h1M36 46h1M39 46h1M15 47h1M17 47h2M24 47h3M34 47h2M38 47h2M16 48h1M23 48h3M32 48h3M40 48h2M14 49h2M22 49h5M29 49h3M42 49h2M12 50h1M21 50h1M24 50h5M31 50h1M39 50h1M45 50h1M11 51h1M24 51h1M31 51h1M35 51h1M10 52h1M21 52h1M24 52h1M32 52h4M41 52h1M47 52h1M10 53h1M17 53h1M21 53h3M36 53h2M41 53h1M45 53h2M11 54h1M15 54h3M21 54h1M38 54h7M12 55h3M18 55h3" />
<path stroke="#7b7b00" d="M32 0h1M20 1h1M31 1h1M24 3h2M20 4h1M19 5h1M29 5h1M19 6h1M28 6h1M19 7h1M29 11h1M23 12h1M29 12h1M16 13h2M22 13h1M19 14h1M22 14h1M26 14h1M17 15h1M19 15h1M22 15h1M24 15h1M26 15h1M29 15h1M23 16h1M26 16h1M28 16h1M25 17h1M16 18h1M15 19h1M17 19h1M21 19h1M36 19h1M14 20h1M16 20h1M18 20h1M30 20h1M35 20h4M13 21h1M16 21h4M28 21h3M32 21h2M36 21h2M8 22h1M12 22h1M14 22h2M17 22h6M28 22h1M30 22h2M33 22h1M12 23h4M17 23h4M25 23h1M30 23h1M10 24h1M12 24h4M17 24h2M26 24h1M38 24h1M3 25h1M8 25h2M13 25h2M22 25h1M26 25h2M34 25h1M40 25h2M20 26h2M26 26h2M40 26h3M48 26h2M26 27h2M40 27h3M10 28h1M12 28h2M21 28h1M24 28h2M27 28h1M34 28h2M38 28h1M47 28h1M5 29h1M9 29h1M26 29h1M28 29h1M35 29h3M52 29h1M8 30h1M20 30h3M26 30h1M28 30h3M46 30h1M8 31h1M18 31h5M27 31h1M52 31h1M16 32h7M36 32h1M51 32h2M8 33h1M15 33h9M37 33h1M47 33h2M9 34h3M15 34h9M47 34h2M9 35h4M14 35h8M25 35h1M10 36h3M14 36h7M33 36h3M10 37h2M13 37h1M15 37h1M17 37h3M31 37h4M37 37h1M11 38h1M14 38h1M16 38h1M18 38h2M31 38h3M13 39h1M15 39h1M17 39h2M31 39h3M38 39h1M14 40h1M16 40h1M18 40h1M30 40h4M38 40h1M13 41h1M15 41h1M17 41h1M30 41h5M37 41h2M14 42h1M16 42h1M18 42h1M30 42h9M15 43h1M17 43h1M28 43h1M30 43h8M39 43h2M14 44h1M16 44h1M18 44h1M27 44h1M29 44h9M39 44h2M15 45h1M17 45h2M20 45h1M25 45h3M29 45h8M38 45h2M16 46h2M20 46h7M28 46h8M37 46h2M16 47h1M19 47h5M27 47h7M36 47h2M17 48h6M26 48h6M35 48h3M20 49h2M27 49h2M35 49h1M44 49h1M13 50h1M35 50h1M40 50h1M46 50h1M18 51h3M41 51h1M47 51h1M17 52h1M22 52h2" />
<path stroke="#9cadb5" d="M34 1h1M23 2h2M33 2h3M22 3h2M33 3h3M22 4h1M25 4h5M32 4h3M23 5h6M30 5h5M25 6h3M29 6h6M26 7h10M26 8h10M25 9h12M24 10h13M23 11h6M30 11h7M25 12h2M30 12h7M19 13h1M25 13h1M30 13h6M37 13h1M24 14h1M30 14h6M37 14h2M30 15h5M36 15h3M25 16h1M29 16h6M37 16h3M26 17h8M37 17h3M17 18h1M23 18h10M37 18h3M14 19h1M16 19h1M19 19h1M23 19h9M37 19h2M13 20h1M15 20h1M17 20h1M20 20h4M26 20h2M14 21h1M24 21h2M13 22h1M34 22h2M7 23h1M9 23h1M23 23h1M26 23h3M31 23h2M34 23h4M7 24h3M23 24h2M27 24h3M31 24h2M34 24h4M10 25h2M19 25h3M23 25h2M28 25h2M32 25h2M35 25h4M3 26h2M10 26h2M22 26h4M28 26h2M32 26h2M35 26h4M2 27h4M7 27h6M18 27h6M28 27h3M33 27h1M35 27h4M43 27h3M2 28h3M6 28h4M14 28h7M28 28h4M33 28h1M36 28h2M42 28h5M48 28h1M6 29h3M12 29h2M15 29h5M29 29h3M44 29h6M51 29h1M5 30h3M9 30h1M11 30h3M15 30h3M32 30h3M47 30h5M6 31h2M9 31h1M11 31h2M31 31h4M46 31h6M9 32h2M27 32h1M30 32h5M47 32h3M30 33h6M26 34h1M30 34h6M24 35h1M26 35h1M29 35h4M36 35h1M38 35h1M25 36h2M28 36h3M38 36h2M14 37h1M16 37h1M26 37h2M29 37h1M35 37h2M39 37h2M13 38h1M15 38h1M17 38h1M26 38h2M29 38h1M34 38h4M39 38h2M14 39h1M16 39h1M26 39h3M34 39h4M40 39h2M13 40h1M15 40h1M17 40h1M26 40h3M34 40h4M40 40h2M14 41h1M16 41h1M18 41h1M26 41h3M35 41h2M40 41h2M13 42h1M15 42h1M17 42h1M25 42h4M40 42h2M14 43h1M16 43h1M18 43h1M20 43h1M24 43h4M15 44h1M17 44h1M21 44h6M16 45h1M22 45h3M38 48h2M16 49h4M32 49h3M36 49h6M15 50h6M22 50h2M32 50h3M36 50h3M41 50h2M21 51h3M32 51h3M36 51h3M46 51h1M11 52h2M18 52h1M36 52h3M42 52h5M11 53h6M18 53h1M38 53h3M42 53h3M12 54h3M18 54h3" />
</svg>