<svg xmlns="http://www.w3.org/2000/svg" viewBox="0 -0.5 48 48" shape-rendering="crispEdges">
<metadata>Made with Pixels to Svg https://codepen.io/shshaw/pen/XbxvNj</metadata>
<path stroke="#ffffff" d="M0 0h48M0 1h48M0 2h48M0 3h48M0 4h48M0 5h48M0 6h48M0 7h18M21 7h4M28 7h20M0 8h16M18 8h2M25 8h2M30 8h18M0 9h12M34 9h14M0 10h11M13 10h2M35 10h13M0 11h10M12 11h2M36 11h12M0 12h9M21 12h4M37 12h11M0 13h9M20 13h6M37 13h11M0 14h10M12 14h2M20 14h1M25 14h1M36 14h12M0 15h11M13 15h2M35 15h13M0 16h12M34 16h14M0 17h14M33 17h15M0 18h12M35 18h13M0 19h10M37 19h11M0 20h8M10 20h1M39 20h9M0 21h6M9 21h1M11 21h1M40 21h8M0 22h4M6 22h1M8 22h1M10 22h1M16 22h2M26 22h2M42 22h6M0 23h3M7 23h1M9 23h1M16 23h2M26 23h2M43 23h5M0 24h2M44 24h4M0 25h1M45 25h3M0 26h1M46 26h2M0 27h1M47 27h1M0 28h2M47 28h1M0 29h3M46 29h2M0 30h5M8 30h1M45 30h3M0 31h9M39 31h1M44 31h4M0 32h10M38 32h10M0 33h10M38 33h10M0 34h11M37 34h11M0 35h12M36 35h12M0 36h13M35 36h13M0 37h14M34 37h14M0 38h14M34 38h14M0 39h14M21 39h6M34 39h14M0 40h15M20 40h8M33 40h15M0 41h16M19 41h10M32 41h16M0 42h48M0 43h48M0 44h48M0 45h48M0 46h48M0 47h48" />
<path stroke="#000000" d="M18 7h3M25 7h3M16 8h2M21 8h4M28 8h2M12 9h4M30 9h3M17 10h2M28 10h2M34 10h1M10 11h1M19 11h1M27 11h1M35 11h1M36 12h1M9 13h1M12 13h3M30 13h3M36 13h1M10 14h2M16 14h2M21 14h4M27 14h3M34 14h2M11 15h1M19 15h1M26 15h1M34 15h1M12 16h3M18 16h1M27 16h1M32 16h1M15 17h2M18 17h1M27 17h1M30 17h2M12 18h3M17 18h5M23 18h6M32 18h3M10 19h2M35 19h2M8 20h1M37 20h2M6 21h2M39 21h1M5 22h1M12 22h1M40 22h2M3 23h1M11 23h1M42 23h1M2 24h1M10 24h1M32 24h1M43 24h1M10 25h1M16 25h1M26 25h1M33 25h1M44 25h1M1 26h1M9 26h1M17 26h2M23 26h3M33 26h1M45 26h1M1 27h1M9 27h1M19 27h4M34 27h1M46 27h1M2 28h1M9 28h1M35 28h1M46 28h1M4 29h1M8 29h2M36 29h1M45 29h1M6 30h2M9 30h1M37 30h3M44 30h1M9 31h1M38 31h1M42 31h2M10 32h1M13 32h1M17 32h1M26 32h1M30 32h1M37 32h1M10 33h1M13 33h1M17 33h1M26 33h1M30 33h1M37 33h1M11 34h1M14 34h3M27 34h3M36 34h1M12 35h1M35 35h1M13 36h2M33 36h2M14 37h1M16 37h2M30 37h4M14 38h1M18 38h12M33 38h1M14 39h1M20 39h1M27 39h1M33 39h1M15 40h1M19 40h1M28 40h1M32 40h1M16 41h3M29 41h3" />
<path stroke="#f7c519" d="M20 8h1M27 8h1M17 9h5M23 9h7M12 10h1M15 10h2M19 10h3M23 10h5M31 10h3M11 11h1M14 11h5M20 11h1M25 11h1M28 11h7M10 12h10M26 12h10M10 13h1M16 13h3M27 13h3M34 13h2M14 14h2M30 14h4M12 15h1M15 15h4M20 15h6M27 15h7M15 16h3M19 16h8M28 16h4M17 17h1M19 17h8M28 17h2M22 18h1M3 26h1M2 27h1M4 27h1M6 27h1M42 27h1M44 27h1M3 28h3M7 28h1M39 28h1M41 28h1M43 28h1M5 29h2M38 29h1M40 29h1M42 29h1M44 29h1M40 30h4" />
<path stroke="#9400a5" d="M16 9h1M22 9h1M33 9h1M11 10h1M22 10h1M30 10h1M21 11h4M26 11h1M9 12h1M20 12h1M25 12h1M11 13h1M15 13h1M19 13h1M26 13h1M33 13h1M18 14h2M26 14h1M33 16h1M14 17h1M32 17h1M15 18h2M29 18h3M12 19h23M9 20h1M11 20h26M8 21h1M10 21h1M12 21h27M4 22h1M7 22h1M9 22h1M11 22h1M13 22h3M18 22h8M28 22h12M4 23h3M8 23h1M10 23h1M12 23h4M18 23h8M28 23h14M3 24h7M11 24h21M33 24h10M1 25h9M11 25h5M17 25h9M27 25h6M34 25h10M2 26h1M4 26h5M10 26h7M19 26h4M26 26h7M34 26h11M3 27h1M5 27h1M7 27h2M10 27h9M23 27h11M35 27h7M43 27h1M45 27h1M6 28h1M8 28h1M10 28h25M36 28h3M40 28h1M42 28h1M44 28h2M3 29h1M7 29h1M10 29h26M37 29h1M39 29h1M41 29h1M43 29h1M5 30h1M10 30h27M10 31h28M40 31h2M11 32h2M14 32h3M18 32h8M27 32h3M31 32h6M11 33h2M14 33h3M18 33h8M27 33h3M31 33h6M12 34h2M17 34h10M30 34h6M13 35h22M15 36h18M15 37h1M18 37h12M15 38h3M30 38h3M15 39h5M28 39h5M16 40h3M29 40h3" />
</svg>