<svg xmlns="http://www.w3.org/2000/svg" viewBox="0 -0.5 40 40" shape-rendering="crispEdges">
<metadata>Made with Pixels to Svg https://codepen.io/shshaw/pen/XbxvNj</metadata>
<path stroke="#ffffff" d="M0 0h19M24 0h16M0 1h17M26 1h14M0 2h16M28 2h12M0 3h15M16 3h1M29 3h11M0 4h15M16 4h2M23 4h2M30 4h10M0 5h16M22 5h5M31 5h9M0 6h17M21 6h7M31 6h9M0 7h28M32 7h8M0 8h29M32 8h8M0 9h29M32 9h8M0 10h23M28 10h1M32 10h8M0 11h21M32 11h8M0 12h20M31 12h9M0 13h19M32 13h8M0 14h8M11 14h8M32 14h8M0 15h7M12 15h6M33 15h7M0 16h6M13 16h1M33 16h7M0 17h6M8 17h2M33 17h7M0 18h5M7 18h4M23 18h2M34 18h6M0 19h5M7 19h3M22 19h4M34 19h6M0 20h6M8 20h2M22 20h4M34 20h6M0 21h7M8 21h1M23 21h3M35 21h5M0 22h8M23 22h2M35 22h5M0 23h8M19 23h2M36 23h4M0 24h5M7 24h1M9 24h1M19 24h3M36 24h4M0 25h4M5 25h2M9 25h1M17 25h1M19 25h2M30 25h1M33 25h2M36 25h4M0 26h5M7 26h2M20 26h1M26 26h3M30 26h1M32 26h4M37 26h3M0 27h7M11 27h1M15 27h6M23 27h3M29 27h1M31 27h3M35 27h1M37 27h3M0 28h9M12 28h4M18 28h5M28 28h2M31 28h1M33 28h1M36 28h4M0 29h8M19 29h2M28 29h3M32 29h1M35 29h5M0 30h7M12 30h3M19 30h3M27 30h13M0 31h5M13 31h2M19 31h2M27 31h13M0 32h4M5 32h1M7 32h1M13 32h2M18 32h2M21 32h1M27 32h13M0 33h3M4 33h2M8 33h1M11 33h2M17 33h1M20 33h1M27 33h13M0 34h4M6 34h2M9 34h4M14 34h3M19 34h2M22 34h2M26 34h14M0 35h6M8 35h6M17 35h3M21 35h4M26 35h14M0 36h20M21 36h1M24 36h1M26 36h14M0 37h21M22 37h1M25 37h15M0 38h40M0 39h40" />
<path stroke="#a58c6b" d="M19 0h1M23 0h1M19 2h2M27 2h1M15 3h1M18 3h1M15 4h1M17 6h1M20 6h1M28 7h3M30 8h1M30 9h1M23 10h1M30 10h1M21 11h1M29 11h2M29 12h1M19 13h2M29 13h2M8 14h1M30 14h1M23 15h1M30 15h2M8 16h2M14 16h1M18 16h1M21 16h1M30 16h2M6 17h2M10 17h1M12 17h1M23 17h2M29 17h3M22 18h1M25 18h1M28 18h1M30 18h3M21 19h1M26 19h1M29 19h4M10 20h1M20 20h2M26 20h1M28 20h1M30 20h3M22 21h1M29 21h4M8 22h1M20 22h1M27 22h7M8 23h1M21 23h1M26 23h5M32 23h3M8 24h1M22 24h1M24 24h5M31 24h3M4 25h1M15 25h1M21 25h1M25 25h1M5 26h1M9 26h1M11 26h1M18 26h2M31 26h1M14 27h1M21 27h2M30 27h1M34 27h1M11 28h1M26 28h1M30 28h1M34 28h1M13 29h2M22 29h5M16 30h1M23 30h4M7 31h1M12 31h1M15 31h3M25 31h1M6 32h1M8 32h1M16 32h1M22 32h1M6 33h2M13 33h2M18 33h1M26 33h1M21 34h1M25 34h1M14 35h1M20 35h1" />
<path stroke="#000000" d="M20 0h3M17 1h2M24 1h2M16 2h1M21 2h1M26 2h1M22 3h3M28 3h1M22 4h1M25 4h2M29 4h1M16 5h1M21 5h1M27 5h1M30 5h1M18 6h2M28 6h1M30 6h1M31 7h1M29 8h1M31 8h1M29 9h1M31 9h1M24 10h4M29 10h1M31 10h1M22 11h1M28 11h1M31 11h1M20 12h1M30 12h1M31 13h1M9 14h2M19 14h1M31 14h1M7 15h1M11 15h1M18 15h1M24 15h2M32 15h1M6 16h1M12 16h1M15 16h3M22 16h1M26 16h1M32 16h1M13 17h1M19 17h2M27 17h1M32 17h1M5 18h1M11 18h1M27 18h1M33 18h1M5 19h1M10 19h1M27 19h1M33 19h1M6 20h1M27 20h1M33 20h1M7 21h1M9 21h1M27 21h1M33 21h1M9 22h1M19 22h1M26 22h1M34 22h1M9 23h2M18 23h1M24 23h2M31 23h1M35 23h1M5 24h2M10 24h1M17 24h2M29 24h2M35 24h1M7 25h2M10 25h2M16 25h1M18 25h1M24 25h1M26 25h4M31 25h1M35 25h1M6 26h1M10 26h1M16 26h2M23 26h2M29 26h1M36 26h1M7 27h4M26 27h3M36 27h1M9 28h2M16 28h2M23 28h3M27 28h1M32 28h1M35 28h1M8 29h1M11 29h1M15 29h4M27 29h1M31 29h1M33 29h2M7 30h1M11 30h1M15 30h1M17 30h2M22 30h1M5 31h2M18 31h1M21 31h2M26 31h1M4 32h1M11 32h2M15 32h1M17 32h1M20 32h1M26 32h1M3 33h1M9 33h2M15 33h2M19 33h1M21 33h1M4 34h2M8 34h1M13 34h1M17 34h2M6 35h2M15 35h2M25 35h1M20 36h1M22 36h1M25 36h1M21 37h1M23 37h2" />
<path stroke="#b5bd9c" d="M19 1h5M17 2h2M22 2h4M17 3h1M19 3h3M25 3h3M18 4h4M27 4h2M17 5h4M28 5h2M29 6h1M23 11h5M21 12h8M21 13h8M20 14h10M8 15h3M19 15h4M26 15h4M7 16h1M10 16h2M19 16h2M23 16h3M27 16h3M11 17h1M14 17h5M21 17h2M25 17h2M28 17h1M6 18h1M12 18h10M26 18h1M29 18h1M6 19h1M11 19h10M28 19h1M7 20h1M11 20h9M29 20h1M10 21h12M26 21h1M28 21h1M34 21h1M10 22h9M21 22h2M25 22h1M11 23h7M22 23h2M11 24h6M23 24h1M34 24h1M12 25h3M22 25h2M32 25h1M12 26h4M21 26h2M25 26h1M12 27h2M9 29h2M12 29h1M21 29h1M8 30h3M8 31h4M23 31h2M9 32h2M23 32h3M22 33h4M24 34h1M23 36h1" />
</svg>