<svg xmlns="http://www.w3.org/2000/svg" viewBox="0 -0.5 48 48" shape-rendering="crispEdges">
<metadata>Made with Pixels to Svg https://codepen.io/shshaw/pen/XbxvNj</metadata>
<path stroke="#ffffff" d="M0 0h17M18 0h7M28 0h20M0 1h17M19 1h4M28 1h20M0 2h16M20 2h1M28 2h20M0 3h6M9 3h7M28 3h20M0 4h4M12 4h3M27 4h21M0 5h4M27 5h13M42 5h6M0 6h4M26 6h13M43 6h5M0 7h5M29 7h9M43 7h5M0 8h5M31 8h6M43 8h5M0 9h1M3 9h3M30 9h7M42 9h6M4 10h2M29 10h7M42 10h1M45 10h3M5 11h2M28 11h8M41 11h1M46 11h2M0 12h1M7 12h1M10 12h1M27 12h8M46 12h2M0 13h2M3 13h3M8 13h2M14 13h1M16 13h2M26 13h8M46 13h2M0 14h1M2 14h4M14 14h1M17 14h2M26 14h8M45 14h3M0 15h1M3 15h1M15 15h1M17 15h1M27 15h6M44 15h4M28 16h4M47 16h1M28 17h4M29 18h3M0 19h1M29 19h2M0 20h2M21 20h1M28 20h3M45 20h3M0 21h3M4 21h3M22 21h8M47 21h1M0 22h1M18 22h1M24 22h5M47 22h1M17 23h1M23 23h4M46 23h2M45 24h3M0 25h1M17 25h1M41 25h7M0 26h5M18 26h1M43 26h5M0 27h6M45 27h3M0 28h4M44 28h4M0 29h4M37 29h3M43 29h5M0 30h5M8 30h1M31 30h7M40 30h8M0 31h8M31 31h5M43 31h5M0 32h8M12 32h4M32 32h2M42 32h6M0 33h9M11 33h5M32 33h1M46 33h2M0 34h17M47 34h1M0 35h17M46 35h2M0 36h18M47 36h1M0 37h18M47 37h1M0 38h19M47 38h1M0 39h18M22 39h1M31 39h1M46 39h2M0 40h18M21 40h5M29 40h4M45 40h3M0 41h15M21 41h6M30 41h5M46 41h2M0 42h13M15 42h1M18 42h1M22 42h5M31 42h5M41 42h1M45 42h3M0 43h12M13 43h1M21 43h1M23 43h2M33 43h5M42 43h6M0 44h12M15 44h1M19 44h1M22 44h2M25 44h1M34 44h7M43 44h5M0 45h14M15 45h1M17 45h1M19 45h1M21 45h2M24 45h1M26 45h2M29 45h1M33 45h15M0 46h15M16 46h3M20 46h4M26 46h1M29 46h1M31 46h17M0 47h25M27 47h2M30 47h18" />
<path stroke="#000000" d="M17 0h1M25 0h2M18 1h1M23 1h2M27 1h1M16 2h1M18 2h2M21 2h2M25 2h3M6 3h3M18 3h3M24 3h1M26 3h1M4 4h2M9 4h3M15 4h1M18 4h2M21 4h1M23 4h1M25 4h2M4 5h5M12 5h4M17 5h1M20 5h1M22 5h1M24 5h2M40 5h2M5 6h6M14 6h1M16 6h1M19 6h3M23 6h3M39 6h1M41 6h2M5 7h8M17 7h8M26 7h3M38 7h1M40 7h1M42 7h1M6 8h9M18 8h3M22 8h1M30 8h1M37 8h1M39 8h1M41 8h2M1 9h2M6 9h11M19 9h5M25 9h1M27 9h3M38 9h1M40 9h2M0 10h4M7 10h12M20 10h5M26 10h2M37 10h1M39 10h2M0 11h5M7 11h2M10 11h1M12 11h8M21 11h6M36 11h1M38 11h1M40 11h1M42 11h4M1 12h6M8 12h2M12 12h2M15 12h6M22 12h5M35 12h5M41 12h5M2 13h1M6 13h2M13 13h1M18 13h4M23 13h3M35 13h4M41 13h5M13 14h1M15 14h2M19 14h6M34 14h11M1 15h1M14 15h1M16 15h1M19 15h7M33 15h11M15 16h12M33 16h9M44 16h3M0 17h1M6 17h2M15 17h1M17 17h11M32 17h2M35 17h6M42 17h6M5 18h4M12 18h3M18 18h10M32 18h1M34 18h14M1 19h1M4 19h8M18 19h11M32 19h2M35 19h13M2 20h1M4 20h7M14 20h1M18 20h3M24 20h4M31 20h2M34 20h9M3 21h1M7 21h3M14 21h1M17 21h4M31 21h1M33 21h1M35 21h6M43 21h4M2 22h5M8 22h1M10 22h1M13 22h1M17 22h1M19 22h4M30 22h1M32 22h1M34 22h6M41 22h6M1 23h1M3 23h6M10 23h3M16 23h1M18 23h2M22 23h1M29 23h1M31 23h1M33 23h13M0 24h1M2 24h1M4 24h6M14 24h4M21 24h2M26 24h19M3 25h14M18 25h22M9 26h9M19 26h3M23 26h19M7 27h12M23 27h21M5 28h13M22 28h1M24 28h20M4 29h7M13 29h5M23 29h1M25 29h6M41 29h2M5 30h3M11 30h7M24 30h1M26 30h2M38 30h2M8 31h9M23 31h1M25 31h1M27 31h3M37 31h6M8 32h4M16 32h1M24 32h1M26 32h6M35 32h2M38 32h1M40 32h2M9 33h2M16 33h1M23 33h1M25 33h1M27 33h5M34 33h1M39 33h1M41 33h5M17 34h1M22 34h1M24 34h1M26 34h6M33 34h1M35 34h1M37 34h2M40 34h7M17 35h1M23 35h10M34 35h1M36 35h1M38 35h4M43 35h3M18 36h2M21 36h12M35 36h1M37 36h10M19 37h13M34 37h13M19 38h1M22 38h25M18 39h1M21 39h1M23 39h4M28 39h2M32 39h14M18 40h1M20 40h1M26 40h1M28 40h1M33 40h12M16 41h2M20 41h1M27 41h1M29 41h1M35 41h11M14 42h1M21 42h1M27 42h1M30 42h1M36 42h5M42 42h3M14 43h2M22 43h1M25 43h2M31 43h2M38 43h4M12 44h3M16 44h3M20 44h2M24 44h1M26 44h1M33 44h1M41 44h2M14 45h1M16 45h1M18 45h1M20 45h1M23 45h1M28 45h1M30 45h3M15 46h1M19 46h1M24 46h2M27 46h2M30 46h1M25 47h2M29 47h1" />
<path stroke="#a510b5" d="M27 0h1M17 1h1M25 1h2M17 2h1M23 2h2M16 3h2M21 3h3M25 3h1M27 3h1M6 4h3M16 4h2M20 4h1M22 4h1M24 4h1M9 5h3M16 5h1M18 5h2M21 5h1M23 5h1M26 5h1M4 6h1M11 6h3M15 6h1M17 6h2M22 6h1M40 6h1M13 7h4M25 7h1M39 7h1M41 7h1M5 8h1M15 8h3M21 8h1M23 8h7M38 8h1M40 8h1M17 9h2M24 9h1M26 9h1M37 9h1M39 9h1M6 10h1M19 10h1M25 10h1M28 10h1M36 10h1M38 10h1M41 10h1M43 10h2M9 11h1M20 11h1M27 11h1M37 11h1M39 11h1M14 12h1M21 12h1M40 12h1M15 13h1M22 13h1M34 13h1M39 13h2M1 14h1M25 14h1M13 15h1M18 15h1M26 15h1M0 16h1M14 16h1M27 16h1M32 16h1M42 16h2M5 17h1M8 17h1M34 17h1M41 17h1M0 18h1M4 18h1M9 18h1M17 18h1M28 18h1M33 18h1M12 19h3M17 19h1M31 19h1M34 19h1M12 20h2M17 20h1M22 20h2M33 20h1M43 20h2M11 21h3M21 21h1M30 21h1M32 21h1M34 21h1M41 21h2M1 22h1M7 22h1M11 22h2M16 22h1M23 22h1M29 22h1M31 22h1M33 22h1M40 22h1M0 23h1M2 23h1M15 23h1M20 23h2M27 23h2M30 23h1M32 23h1M1 24h1M3 24h1M18 24h3M23 24h3M1 25h2M40 25h1M5 26h4M22 26h1M42 26h1M6 27h1M19 27h4M44 27h1M4 28h1M18 28h4M23 28h1M11 29h2M18 29h5M24 29h1M31 29h6M40 29h1M9 30h2M18 30h6M25 30h1M28 30h3M17 31h6M24 31h1M26 31h1M30 31h1M36 31h1M17 32h7M25 32h1M34 32h1M37 32h1M39 32h1M17 33h6M24 33h1M26 33h1M33 33h1M35 33h4M40 33h1M18 34h4M23 34h1M25 34h1M32 34h1M34 34h1M36 34h1M39 34h1M18 35h5M33 35h1M35 35h1M37 35h1M42 35h1M20 36h1M34 36h1M36 36h1M18 37h1M21 38h1M30 39h1M15 41h1M13 42h1M28 42h1M12 43h1M16 43h1M18 43h2M27 44h1M29 44h1M31 44h1M25 45h1" />
<path stroke="#efff19" d="M11 11h1M11 12h1M10 13h3M6 14h7M2 15h1M4 15h9M1 16h13M1 17h4M9 17h6M16 17h1M1 18h3M10 18h2M15 18h2M2 19h2M15 19h2M3 20h1M11 20h1M15 20h2M10 21h1M15 21h2M9 22h1M14 22h2M9 23h1M13 23h2M10 24h4M33 36h1M32 37h2M20 38h1M19 39h2M27 39h1M19 40h1M27 40h1M18 41h2M28 41h1M16 42h2M19 42h2M29 42h1M17 43h1M20 43h1M27 43h4M28 44h1M30 44h1M32 44h1" />
</svg>