<svg xmlns="http://www.w3.org/2000/svg" viewBox="0 -0.5 48 48" shape-rendering="crispEdges">
<metadata>Made with Pixels to Svg https://codepen.io/shshaw/pen/XbxvNj</metadata>
<path stroke="#ffffff" d="M0 0h48M0 1h48M0 2h48M0 3h48M0 4h24M28 4h20M0 5h10M13 5h9M30 5h18M0 6h9M15 6h1M18 6h1M20 6h1M31 6h17M0 7h8M32 7h16M0 8h8M31 8h17M0 9h7M31 9h8M41 9h7M0 10h7M32 10h6M39 10h2M42 10h6M0 11h7M32 11h7M40 11h2M43 11h5M0 12h8M14 12h2M31 12h9M41 12h2M44 12h4M0 13h7M13 13h4M36 13h5M42 13h2M45 13h3M0 14h6M7 14h2M12 14h1M14 14h1M27 14h7M37 14h4M42 14h1M45 14h3M0 15h5M6 15h1M23 15h3M36 15h6M44 15h1M46 15h2M0 16h4M5 16h1M20 16h3M32 16h10M43 16h1M46 16h2M0 17h4M5 17h1M18 17h2M33 17h9M47 17h1M0 18h3M4 18h1M22 18h5M34 18h9M47 18h1M0 19h3M36 19h7M47 19h1M0 20h3M8 20h2M38 20h5M47 20h1M0 21h4M6 21h1M8 21h3M24 21h3M39 21h4M0 22h4M7 22h1M9 22h2M27 22h3M40 22h3M0 23h3M7 23h1M9 23h1M41 23h2M0 24h2M3 24h1M6 24h1M41 24h1M0 25h2M5 25h3M0 26h1M2 26h1M4 26h4M12 26h1M25 26h2M47 26h1M0 27h1M4 27h3M10 27h1M12 27h2M25 27h1M47 27h1M0 28h2M3 28h3M10 28h2M13 28h2M30 28h1M47 28h1M0 29h6M9 29h1M11 29h1M13 29h3M26 29h1M30 29h1M46 29h2M0 30h5M8 30h2M12 30h1M25 30h2M46 30h2M0 31h5M8 31h2M45 31h3M0 32h5M6 32h4M45 32h3M0 33h11M44 33h4M0 34h8M43 34h5M0 35h7M8 35h2M20 35h1M22 35h1M42 35h6M0 36h7M8 36h1M18 36h2M21 36h1M23 36h1M43 36h5M0 37h7M18 37h3M22 37h1M24 37h1M35 37h1M37 37h2M41 37h2M44 37h4M0 38h7M15 38h3M19 38h3M23 38h1M25 38h1M34 38h2M37 38h1M41 38h1M44 38h4M0 39h7M8 39h1M12 39h1M14 39h5M20 39h3M24 39h1M37 39h1M41 39h1M45 39h3M0 40h8M9 40h3M13 40h7M22 40h2M25 40h1M45 40h3M0 41h21M45 41h3M0 42h19M36 42h2M44 42h4M0 43h17M19 43h2M33 43h7M43 43h5M0 44h16M17 44h2M30 44h18M0 45h16M17 45h1M19 45h2M29 45h19M0 46h17M19 46h1M22 46h2M28 46h20M0 47h18M20 47h1M24 47h24" />
<path stroke="#d68419" d="M24 4h1M10 5h1M22 5h1M27 5h1M11 6h2M24 6h1M28 6h2M8 7h1M10 7h5M25 7h1M30 7h1M9 8h5M16 8h1M19 8h1M21 8h1M23 8h1M29 8h1M7 9h1M9 9h3M15 9h1M17 9h4M22 9h1M29 9h1M39 9h1M8 10h2M12 10h1M14 10h6M21 10h1M29 10h2M38 10h1M8 11h1M11 11h1M13 11h1M16 11h4M21 11h1M29 11h2M10 12h3M16 12h5M28 12h2M8 13h4M17 13h5M10 14h1M17 14h6M35 14h1M14 15h1M18 15h2M28 15h1M25 16h2M29 16h2M22 17h2M28 17h4M42 17h1M45 17h1M10 18h1M30 18h3M44 18h1M12 19h1M29 19h5M7 20h1M27 20h8M45 20h2M7 21h1M31 21h3M35 21h1M37 21h1M44 21h1M8 22h1M15 22h1M32 22h3M36 22h1M38 22h1M5 23h1M8 23h1M16 23h1M25 23h1M31 23h5M37 23h1M39 23h1M44 23h3M4 24h1M9 24h1M26 24h14M17 25h1M29 25h12M43 25h2M47 25h1M9 26h1M11 26h1M31 26h10M45 26h1M11 27h1M32 27h9M42 27h2M8 28h1M12 28h1M17 28h1M29 28h1M32 28h10M44 28h1M46 28h1M12 29h1M32 29h10M44 29h1M10 30h1M33 30h9M6 31h1M17 31h1M34 31h8M5 32h1M16 32h1M35 32h7M43 32h1M13 33h1M15 33h1M17 33h1M35 33h7M11 34h2M16 34h1M36 34h6M12 35h4M36 35h1M40 35h1M14 36h2M37 36h1M36 37h1M36 38h1M35 39h1M39 39h1M23 41h1M26 42h1M18 43h1M20 44h1M24 44h1" />
<path stroke="#000000" d="M25 4h3M11 5h2M23 5h1M28 5h2M9 6h1M13 6h2M16 6h2M19 6h1M21 6h1M25 6h3M30 6h1M15 7h1M17 7h2M20 7h1M23 7h2M28 7h2M31 7h1M8 8h1M14 8h1M17 8h1M22 8h1M30 8h1M12 9h2M21 9h1M30 9h1M40 9h1M7 10h1M10 10h2M20 10h1M31 10h1M41 10h1M7 11h1M9 11h1M14 11h2M20 11h1M31 11h1M39 11h1M42 11h1M8 12h1M13 12h1M21 12h1M30 12h1M40 12h1M43 12h1M7 13h1M12 13h1M22 13h1M27 13h9M41 13h1M44 13h1M6 14h1M11 14h1M13 14h1M15 14h2M23 14h4M36 14h1M41 14h1M44 14h1M5 15h1M11 15h3M20 15h3M29 15h7M42 15h1M45 15h1M4 16h1M7 16h1M18 16h2M27 16h2M31 16h1M42 16h1M45 16h1M4 17h1M24 17h4M32 17h1M46 17h1M3 18h1M7 18h3M29 18h1M33 18h1M46 18h1M3 19h1M6 19h1M10 19h2M23 19h6M34 19h2M43 19h1M46 19h1M3 20h1M5 20h1M11 20h3M24 20h3M36 20h2M43 20h1M4 21h2M11 21h4M27 21h4M38 21h1M43 21h1M47 21h1M4 22h1M6 22h1M11 22h4M23 22h3M31 22h1M39 22h1M43 22h1M47 22h1M3 23h1M6 23h1M11 23h5M26 23h5M40 23h1M43 23h1M47 23h1M2 24h1M5 24h1M7 24h1M10 24h7M40 24h1M42 24h1M47 24h1M2 25h1M4 25h1M8 25h9M25 25h4M41 25h2M1 26h1M3 26h1M8 26h1M10 26h1M13 26h5M24 26h1M29 26h2M41 26h1M46 26h1M1 27h1M3 27h1M7 27h1M9 27h1M14 27h4M24 27h1M26 27h1M31 27h1M41 27h1M46 27h1M2 28h1M6 28h1M9 28h1M15 28h2M25 28h2M31 28h1M42 28h1M6 29h1M8 29h1M10 29h1M16 29h1M25 29h1M29 29h1M31 29h1M42 29h1M45 29h1M5 30h1M7 30h1M11 30h1M14 30h2M24 30h1M27 30h4M42 30h1M45 30h1M5 31h1M7 31h1M10 31h1M12 31h2M25 31h2M42 31h1M44 31h1M10 32h1M42 32h1M44 32h1M11 33h2M42 33h2M8 34h3M13 34h2M42 34h1M7 35h1M37 35h3M41 35h1M7 36h1M9 36h1M13 36h1M16 36h1M35 36h2M40 36h3M7 37h2M14 37h4M34 37h1M43 37h1M7 38h1M12 38h1M14 38h1M18 38h1M33 38h1M40 38h1M43 38h1M7 39h1M9 39h3M13 39h1M19 39h1M33 39h1M36 39h1M40 39h1M42 39h1M44 39h1M8 40h1M12 40h1M20 40h2M34 40h2M37 40h1M39 40h2M42 40h1M44 40h1M21 41h2M36 41h3M41 41h1M44 41h1M19 42h2M24 42h2M33 42h3M38 42h2M43 42h1M17 43h1M27 43h6M40 43h3M16 44h1M19 44h1M23 44h1M29 44h1M16 45h1M18 45h1M22 45h1M28 45h1M17 46h2M20 46h2M24 46h4M18 47h2M21 47h3" />
<path stroke="#bdce7b" d="M24 5h3M10 6h1M22 6h2M9 7h1M16 7h1M19 7h1M21 7h2M26 7h2M15 8h1M18 8h1M20 8h1M24 8h5M8 9h1M14 9h1M16 9h1M23 9h6M13 10h1M22 10h7M10 11h1M12 11h1M22 11h7M9 12h1M22 12h6M23 13h4M9 14h1M34 14h1M43 14h1M7 15h4M15 15h3M26 15h2M43 15h1M6 16h1M8 16h10M23 16h2M44 16h1M6 17h12M20 17h2M43 17h2M5 18h2M11 18h11M27 18h2M43 18h1M45 18h1M4 19h2M7 19h3M13 19h10M44 19h2M4 20h1M6 20h1M10 20h1M14 20h10M35 20h1M44 20h1M15 21h9M34 21h1M36 21h1M45 21h2M5 22h1M16 22h7M26 22h1M30 22h1M35 22h1M37 22h1M44 22h3M4 23h1M10 23h1M17 23h8M36 23h1M38 23h1M8 24h1M17 24h9M43 24h4M3 25h1M18 25h7M45 25h2M18 26h6M27 26h2M42 26h3M2 27h1M8 27h1M18 27h6M27 27h4M44 27h2M7 28h1M18 28h7M27 28h2M43 28h1M45 28h1M7 29h1M17 29h8M27 29h2M43 29h1M6 30h1M13 30h1M16 30h8M31 30h2M43 30h2M11 31h1M14 31h3M18 31h7M27 31h7M43 31h1M11 32h5M17 32h18M14 33h1M16 33h1M18 33h17M15 34h1M17 34h19M10 35h2M16 35h4M21 35h1M23 35h13M10 36h3M17 36h1M20 36h1M22 36h1M24 36h11M38 36h2M9 37h5M21 37h1M23 37h1M25 37h9M39 37h2M8 38h4M13 38h1M22 38h1M24 38h1M26 38h7M38 38h2M42 38h1M23 39h1M25 39h8M34 39h1M38 39h1M43 39h1M24 40h1M26 40h8M36 40h1M38 40h1M41 40h1M43 40h1M24 41h12M39 41h2M42 41h2M21 42h3M27 42h6M40 42h3M21 43h6M21 44h2M25 44h4M21 45h1M23 45h5" />
</svg>