<svg xmlns="http://www.w3.org/2000/svg" viewBox="0 -0.5 56 56" shape-rendering="crispEdges">
<metadata>Made with Pixels to Svg https://codepen.io/shshaw/pen/XbxvNj</metadata>
<path stroke="#ffffff" d="M0 0h56M0 1h56M0 2h56M0 3h56M0 4h56M0 5h19M22 5h34M0 6h5M7 6h3M12 6h5M24 6h32M0 7h5M6 7h1M8 7h2M11 7h1M13 7h2M25 7h31M0 8h2M4 8h2M9 8h1M13 8h1M26 8h30M0 9h2M3 9h1M6 9h1M27 9h29M0 10h3M29 10h12M46 10h10M0 11h4M18 11h3M32 11h6M41 11h5M49 11h7M0 12h5M17 12h5M34 12h3M38 12h2M42 12h1M44 12h1M46 12h3M51 12h5M0 13h1M17 13h6M31 13h1M33 13h1M36 13h1M41 13h1M43 13h1M46 13h1M48 13h2M51 13h5M0 14h1M2 14h1M17 14h6M30 14h1M32 14h1M34 14h2M45 14h1M47 14h1M50 14h6M0 15h2M11 15h1M16 15h6M31 15h7M46 15h1M49 15h1M51 15h5M0 16h6M11 16h1M16 16h5M22 16h1M30 16h1M32 16h8M47 16h1M49 16h2M52 16h4M0 17h3M11 17h1M16 17h3M21 17h1M32 17h10M46 17h1M48 17h1M50 17h1M52 17h4M0 18h3M4 18h1M15 18h3M19 18h3M33 18h10M47 18h1M51 18h5M0 19h4M15 19h2M18 19h4M34 19h10M49 19h7M0 20h6M14 20h3M18 20h2M36 20h4M41 20h4M47 20h9M0 21h6M12 21h4M17 21h1M37 21h4M42 21h3M46 21h10M0 22h5M6 22h1M11 22h5M38 22h3M43 22h3M47 22h9M0 23h5M6 23h1M11 23h4M39 23h3M43 23h1M45 23h1M47 23h9M0 24h5M10 24h5M40 24h2M43 24h2M46 24h1M48 24h8M0 25h4M5 25h1M9 25h6M24 25h2M41 25h2M44 25h1M46 25h1M48 25h8M0 26h4M5 26h1M8 26h6M23 26h4M40 26h3M44 26h1M46 26h2M49 26h7M0 27h4M7 27h7M22 27h7M41 27h2M47 27h1M49 27h7M0 28h4M7 28h6M22 28h7M34 28h1M42 28h1M48 28h8M0 29h3M4 29h1M6 29h7M21 29h9M33 29h3M49 29h7M0 30h3M4 30h1M6 30h7M21 30h5M29 30h1M33 30h3M49 30h7M0 31h3M6 31h6M21 31h3M33 31h4M50 31h6M0 32h2M3 32h1M5 32h7M20 32h3M32 32h5M47 32h1M50 32h6M0 33h2M3 33h1M5 33h7M17 33h2M20 33h3M27 33h1M31 33h4M48 33h1M50 33h6M0 34h2M4 34h8M13 34h1M15 34h1M19 34h3M27 34h1M32 34h2M47 34h1M49 34h1M51 34h5M0 35h2M4 35h7M17 35h1M19 35h3M23 35h1M25 35h1M30 35h1M32 35h1M48 35h1M51 35h5M0 36h1M3 36h8M12 36h1M14 36h1M16 36h1M18 36h5M25 36h1M27 36h1M29 36h2M32 36h1M44 36h1M46 36h1M49 36h1M51 36h5M0 37h1M3 37h8M17 37h8M26 37h3M31 37h3M45 37h1M48 37h2M51 37h5M0 38h10M11 38h1M14 38h1M16 38h19M37 38h1M41 38h1M43 38h1M46 38h1M48 38h1M50 38h6M0 39h10M13 39h1M16 39h21M38 39h1M40 39h1M42 39h1M45 39h1M48 39h1M50 39h6M0 40h9M10 40h2M13 40h1M15 40h24M41 40h1M43 40h1M46 40h1M48 40h1M50 40h6M0 41h9M10 41h1M12 41h1M14 41h25M40 41h1M42 41h1M45 41h2M48 41h1M50 41h6M0 42h9M10 42h1M12 42h1M14 42h26M41 42h1M43 42h1M45 42h2M48 42h1M50 42h6M0 43h8M9 43h1M11 43h1M13 43h27M42 43h2M45 43h2M48 43h1M50 43h6M0 44h8M9 44h1M12 44h28M41 44h3M45 44h2M49 44h7M0 45h8M11 45h29M41 45h4M46 45h1M48 45h8M0 46h40M41 46h4M46 46h1M48 46h8M0 47h41M42 47h3M46 47h1M48 47h8M0 48h41M42 48h3M47 48h9M0 49h41M42 49h3M46 49h10M0 50h41M42 50h3M46 50h10M0 51h42M43 51h1M45 51h11M0 52h42M44 52h12M0 53h56M0 54h56M0 55h56" />
<path stroke="#000000" d="M19 5h3M6 6h1M11 6h1M17 6h2M22 6h2M5 7h1M7 7h1M10 7h1M12 7h1M15 7h2M24 7h1M3 8h1M6 8h1M8 8h1M10 8h1M12 8h1M14 8h1M25 8h1M2 9h1M4 9h2M7 9h1M9 9h2M12 9h2M26 9h1M3 10h1M6 10h2M12 10h1M18 10h3M27 10h2M41 10h5M4 11h1M8 11h1M17 11h1M21 11h1M29 11h3M38 11h3M46 11h3M5 12h1M12 12h1M16 12h1M22 12h1M32 12h2M37 12h1M40 12h1M45 12h1M49 12h2M3 13h4M12 13h1M16 13h1M23 13h1M34 13h2M37 13h1M39 13h1M44 13h1M50 13h1M1 14h1M11 14h2M16 14h1M23 14h2M36 14h2M39 14h1M43 14h1M49 14h1M2 15h4M10 15h1M12 15h1M15 15h1M23 15h1M25 15h1M38 15h2M42 15h1M47 15h2M50 15h1M6 16h1M10 16h1M12 16h1M15 16h1M21 16h1M23 16h1M40 16h2M45 16h2M51 16h1M4 17h2M9 17h2M12 17h1M15 17h1M20 17h1M22 17h1M31 17h1M42 17h1M44 17h1M51 17h1M3 18h1M9 18h3M14 18h1M18 18h1M22 18h1M31 18h1M43 18h1M49 18h2M4 19h2M8 19h2M14 19h1M22 19h1M32 19h1M44 19h1M47 19h2M6 20h2M12 20h2M17 20h1M22 20h1M27 20h1M32 20h2M45 20h2M9 21h3M16 21h1M20 21h2M23 21h1M27 21h1M30 21h1M32 21h1M34 21h2M45 21h1M8 22h1M10 22h1M16 22h1M18 22h2M24 22h2M28 22h1M30 22h3M36 22h1M46 22h1M8 23h1M10 23h1M15 23h1M17 23h1M24 23h1M26 23h1M28 23h3M36 23h2M46 23h1M7 24h1M9 24h1M15 24h2M24 24h2M27 24h2M36 24h1M38 24h1M47 24h1M7 25h2M15 25h1M18 25h1M23 25h1M26 25h1M36 25h1M39 25h1M47 25h1M7 26h1M14 26h1M17 26h1M20 26h1M22 26h1M27 26h2M35 26h2M39 26h1M45 26h1M48 26h1M6 27h1M14 27h1M17 27h1M19 27h1M21 27h1M29 27h3M34 27h1M37 27h1M40 27h1M43 27h2M46 27h1M48 27h1M6 28h1M13 28h1M16 28h1M18 28h1M21 28h1M29 28h1M33 28h1M35 28h1M37 28h1M40 28h1M43 28h1M46 28h2M5 29h1M13 29h1M16 29h1M18 29h1M20 29h1M30 29h3M36 29h2M41 29h1M43 29h1M48 29h1M5 30h1M13 30h1M15 30h1M17 30h1M20 30h1M26 30h3M30 30h1M32 30h1M36 30h1M38 30h1M42 30h1M45 30h1M48 30h1M5 31h1M12 31h1M15 31h1M17 31h1M20 31h1M24 31h2M29 31h1M32 31h1M37 31h2M45 31h1M49 31h1M4 32h1M12 32h1M14 32h1M17 32h1M19 32h1M23 32h1M25 32h1M28 32h1M30 32h2M37 32h2M46 32h1M49 32h1M4 33h1M12 33h1M14 33h1M16 33h1M19 33h1M23 33h1M28 33h1M30 33h1M35 33h4M46 33h1M49 33h1M3 34h1M12 34h1M14 34h1M16 34h1M18 34h1M22 34h1M24 34h1M26 34h1M28 34h2M31 34h1M34 34h1M36 34h1M38 34h1M46 34h1M50 34h1M3 35h1M11 35h1M14 35h1M16 35h1M18 35h1M22 35h1M24 35h1M26 35h4M31 35h1M33 35h1M35 35h1M38 35h1M46 35h1M50 35h1M2 36h1M11 36h1M13 36h1M15 36h1M17 36h1M23 36h2M26 36h1M28 36h1M31 36h1M33 36h1M35 36h1M38 36h1M43 36h1M47 36h1M50 36h1M2 37h1M11 37h1M13 37h1M15 37h2M25 37h1M29 37h2M34 37h1M36 37h1M38 37h2M43 37h1M47 37h1M50 37h1M10 38h1M12 38h1M15 38h1M35 38h2M38 38h2M44 38h1M47 38h1M49 38h1M10 39h1M12 39h1M14 39h2M37 39h1M39 39h1M44 39h1M47 39h1M49 39h1M9 40h1M12 40h1M14 40h1M39 40h1M44 40h1M47 40h1M49 40h1M9 41h1M11 41h1M13 41h1M39 41h1M44 41h1M47 41h1M49 41h1M9 42h1M11 42h1M13 42h1M40 42h1M44 42h1M47 42h1M49 42h1M8 43h1M10 43h1M12 43h1M40 43h1M44 43h1M47 43h1M49 43h1M8 44h1M10 44h2M40 44h1M44 44h1M47 44h2M9 45h2M40 45h1M45 45h1M47 45h1M40 46h1M45 46h1M47 46h1M41 47h1M45 47h1M47 47h1M41 48h1M45 48h2M41 49h1M45 49h1M41 50h1M45 50h1M42 51h1M44 51h1M43 52h1" />
<path stroke="#c58c3a" d="M5 6h1M10 6h1M2 8h1M7 8h1M11 8h1M8 9h1M11 9h1M4 10h2M8 10h4M5 11h3M9 11h3M6 12h6M1 13h2M7 13h5M3 14h8M6 15h4M7 16h3M3 17h1M6 17h3M5 18h4M6 19h2M8 20h1M6 21h3M5 22h1M7 22h1M9 22h1M5 23h1M7 23h1M9 23h1M5 24h2M8 24h1M4 25h1M6 25h1M4 26h1M6 26h1M4 27h2M4 28h2M3 29h1M3 30h1M31 30h1M37 30h1M3 31h2M26 31h3M30 31h2M2 32h1M24 32h1M26 32h2M29 32h1M2 33h1M24 33h3M29 33h1M2 34h1M23 34h1M25 34h1M30 34h1M35 34h1M37 34h1M2 35h1M34 35h1M36 35h2M1 36h1M34 36h1M36 36h2M1 37h1M35 37h1M37 37h1" />
<path stroke="#848452" d="M19 6h3M17 7h7M15 8h10M14 9h12M13 10h5M21 10h6M12 11h5M22 11h7M13 12h3M23 12h9M41 12h1M43 12h1M13 13h3M24 13h7M32 13h1M38 13h1M40 13h1M42 13h1M45 13h1M47 13h1M13 14h3M25 14h5M31 14h1M33 14h1M38 14h1M40 14h3M44 14h1M46 14h1M48 14h1M13 15h2M22 15h1M24 15h1M26 15h5M40 15h2M43 15h3M13 16h2M24 16h6M31 16h1M42 16h3M48 16h1M13 17h2M19 17h1M23 17h8M43 17h1M45 17h1M47 17h1M49 17h1M12 18h2M23 18h8M32 18h1M44 18h3M48 18h1M10 19h4M17 19h1M23 19h9M33 19h1M45 19h2M9 20h3M20 20h2M23 20h4M28 20h4M34 20h2M40 20h1M18 21h2M22 21h1M24 21h3M28 21h2M31 21h1M33 21h1M36 21h1M41 21h1M17 22h1M20 22h4M26 22h2M29 22h1M33 22h3M37 22h1M41 22h2M16 23h1M18 23h6M25 23h1M27 23h1M31 23h5M38 23h1M42 23h1M44 23h1M17 24h7M26 24h1M29 24h7M37 24h1M39 24h1M42 24h1M45 24h1M16 25h2M19 25h4M27 25h9M37 25h2M40 25h1M43 25h1M45 25h1M15 26h2M18 26h2M21 26h1M29 26h6M37 26h2M43 26h1M15 27h2M18 27h1M20 27h1M32 27h2M35 27h2M38 27h2M45 27h1M14 28h2M17 28h1M19 28h2M30 28h3M36 28h1M38 28h2M41 28h1M44 28h2M14 29h2M17 29h1M19 29h1M38 29h3M42 29h1M44 29h4M14 30h1M16 30h1M18 30h2M39 30h3M43 30h2M46 30h2M13 31h2M16 31h1M18 31h2M39 31h6M46 31h3M13 32h1M15 32h2M18 32h1M39 32h7M48 32h1M13 33h1M15 33h1M39 33h7M47 33h1M17 34h1M39 34h7M48 34h1M12 35h2M15 35h1M39 35h7M47 35h1M49 35h1M39 36h4M45 36h1M48 36h1M12 37h1M14 37h1M40 37h3M44 37h1M46 37h1M13 38h1M40 38h1M42 38h1M45 38h1M11 39h1M41 39h1M43 39h1M46 39h1M40 40h1M42 40h1M45 40h1M41 41h1M43 41h1M42 42h1M41 43h1M8 45h1M42 52h1" />
</svg>