<svg xmlns="http://www.w3.org/2000/svg" viewBox="0 -0.5 40 40" shape-rendering="crispEdges">
<metadata>Made with Pixels to Svg https://codepen.io/shshaw/pen/XbxvNj</metadata>
<path stroke="#ffffff" d="M0 0h14M15 0h7M23 0h17M0 1h13M17 1h3M24 1h16M0 2h9M18 2h1M27 2h13M0 3h8M9 3h4M24 3h3M28 3h12M0 4h9M11 4h1M24 4h1M27 4h13M0 5h11M25 5h15M0 6h12M25 6h15M0 7h10M27 7h13M0 8h8M10 8h2M29 8h11M0 9h7M8 9h5M23 9h1M25 9h4M30 9h10M0 10h6M7 10h8M22 10h1M24 10h1M26 10h4M31 10h9M0 11h5M7 11h2M10 11h12M23 11h2M26 11h5M32 11h8M0 12h4M6 12h1M9 12h4M14 12h7M22 12h4M27 12h5M33 12h7M0 13h4M5 13h1M7 13h1M9 13h3M13 13h9M23 13h3M27 13h4M33 13h7M0 14h3M6 14h1M9 14h2M13 14h4M18 14h4M23 14h2M29 14h1M31 14h1M34 14h6M0 15h3M13 15h4M18 15h3M28 15h1M30 15h1M34 15h6M0 16h3M29 16h1M31 16h1M34 16h6M0 17h2M35 17h5M0 18h2M10 18h2M23 18h2M35 18h5M0 19h2M9 19h1M12 19h1M22 19h1M25 19h1M35 19h5M0 20h2M9 20h1M11 20h1M13 20h1M21 20h1M23 20h1M25 20h1M35 20h5M0 21h3M9 21h1M13 21h1M21 21h1M25 21h1M35 21h5M0 22h3M10 22h3M22 22h3M34 22h6M0 23h4M34 23h6M0 24h4M15 24h2M33 24h7M0 25h5M32 25h8M0 26h6M8 26h2M31 26h9M0 27h6M7 27h5M25 27h2M29 27h11M0 28h6M7 28h6M24 28h5M30 28h10M0 29h6M9 29h3M20 29h10M31 29h9M0 30h7M16 30h9M27 30h4M32 30h8M0 31h8M13 31h13M29 31h3M33 31h7M0 32h9M12 32h12M31 32h1M33 32h7M0 33h8M15 33h6M28 33h1M32 33h8M0 34h8M28 34h12M0 35h8M28 35h12M0 36h8M10 36h3M28 36h12M0 37h8M9 37h1M27 37h13M0 38h8M26 38h14M0 39h9M15 39h25" />
<path stroke="#000000" d="M14 0h1M22 0h1M13 1h1M15 1h2M20 1h2M23 1h1M9 2h4M17 2h1M19 2h1M24 2h3M8 3h1M13 3h2M18 3h1M22 3h2M27 3h1M9 4h2M15 4h2M20 4h2M25 4h2M11 5h2M24 5h1M12 6h1M18 6h1M23 6h2M11 7h1M14 7h1M25 7h2M9 8h1M21 8h1M27 8h1M6 10h1M30 10h1M5 11h1M9 11h1M25 11h1M31 11h1M4 12h1M8 12h1M26 12h1M32 12h1M8 13h1M26 13h1M32 13h1M3 14h1M7 14h1M12 14h1M27 14h1M33 14h1M3 15h1M7 15h1M17 15h1M27 15h1M33 15h1M8 16h2M11 16h1M17 16h1M23 16h1M25 16h2M33 16h1M2 17h1M7 17h1M10 17h2M16 17h3M23 17h2M26 17h1M34 17h1M2 18h1M7 18h1M9 18h1M12 18h4M19 18h4M25 18h1M27 18h1M34 18h1M2 19h1M6 19h1M10 19h2M13 19h1M21 19h1M23 19h2M34 19h1M2 20h1M6 20h1M8 20h1M10 20h1M12 20h1M14 20h2M19 20h2M22 20h1M24 20h1M26 20h1M28 20h1M34 20h1M3 21h1M6 21h1M8 21h1M10 21h3M14 21h1M20 21h1M22 21h3M26 21h1M28 21h1M3 22h1M7 22h1M9 22h1M13 22h1M21 22h1M25 22h1M28 22h1M33 22h1M4 23h1M7 23h1M10 23h3M15 23h5M22 23h3M27 23h1M4 24h1M8 24h1M14 24h1M20 24h1M27 24h1M32 24h1M5 25h1M8 25h2M13 25h1M21 25h1M26 25h1M31 25h1M7 26h1M10 26h2M13 26h1M15 26h5M21 26h1M24 26h2M29 26h2M6 27h1M12 27h1M14 27h1M20 27h1M22 27h2M27 27h1M6 28h1M13 28h9M29 28h1M6 29h1M13 29h1M30 29h1M7 30h1M12 30h1M31 30h1M8 31h4M26 31h1M32 31h1M9 32h1M27 32h2M32 32h1M8 33h1M27 33h1M29 33h3M8 34h1M27 34h1M10 35h3M26 35h1M9 36h1M14 36h1M24 36h2M27 36h1M8 37h1M15 37h1M21 37h2M26 37h1M8 38h1M15 38h7M24 38h2M10 39h4" />
<path stroke="#ffd63a" d="M14 1h1M22 1h1M13 2h4M20 2h4M15 3h3M19 3h3M12 4h3M17 4h3M22 4h2M13 5h11M14 6h4M19 6h4M12 7h2M15 7h7M23 7h2M12 8h3M16 8h5M22 8h5M13 9h10M24 9h1M15 10h7M23 10h1M25 10h1M6 11h1M22 11h1M5 12h1M7 12h1M6 13h1M31 13h1M4 14h2M8 14h1M11 14h1M25 14h2M28 14h1M30 14h1M32 14h1M4 15h3M8 15h3M12 15h1M21 15h2M24 15h3M29 15h1M31 15h2M4 16h4M10 16h1M12 16h4M18 16h5M24 16h1M27 16h2M30 16h1M32 16h1M3 17h4M12 17h4M19 17h4M27 17h7M3 18h4M28 18h6M3 19h3M28 19h6M3 20h3M29 20h5M4 21h2M29 21h5M4 22h3M29 22h4M5 23h2M28 23h5M5 24h3M17 24h3M28 24h4M6 25h2M14 25h7M27 25h4M14 26h1M20 26h1M27 26h2M15 27h5M24 27h1M22 28h2M7 29h2M12 29h1M14 29h6M8 30h4M13 30h3M26 30h1M12 31h1M27 31h2M11 32h1M24 32h1M29 32h2M13 33h2M21 33h2M16 34h4M8 36h1M13 36h1M26 36h1M10 37h5M23 37h3M9 38h6" />
<path stroke="#ff63ce" d="M13 6h1M10 7h1M22 7h1M8 8h1M15 8h1M28 8h1M7 9h1M29 9h1M13 12h1M21 12h1M4 13h1M12 13h1M22 13h1M17 14h1M22 14h1M11 15h1M23 15h1M3 16h1M16 16h1M8 17h2M25 17h1M8 18h1M16 18h3M26 18h1M7 19h2M14 19h7M26 19h2M7 20h1M16 20h3M27 20h1M7 21h1M15 21h5M27 21h1M34 21h1M8 22h1M14 22h7M26 22h2M8 23h2M13 23h2M20 23h2M25 23h2M33 23h1M9 24h5M21 24h6M10 25h3M22 25h4M6 26h1M12 26h1M22 26h2M26 26h1M13 27h1M21 27h1M28 27h1M25 30h1M10 32h1M25 32h2M9 33h4M23 33h4M9 34h7M20 34h7M8 35h2M13 35h13M27 35h1M15 36h9M16 37h5M22 38h2M9 39h1M14 39h1" />
</svg>