<svg xmlns="http://www.w3.org/2000/svg" viewBox="0 -0.5 56 56" shape-rendering="crispEdges">
<metadata>Made with Pixels to Svg https://codepen.io/shshaw/pen/XbxvNj</metadata>
<path stroke="#ffffff" d="M0 0h23M26 0h30M0 1h21M29 1h27M0 2h19M25 2h3M31 2h25M0 3h17M24 3h6M32 3h24M0 4h16M23 4h8M33 4h23M0 5h15M22 5h1M24 5h5M30 5h2M34 5h22M0 6h14M21 6h1M23 6h1M25 6h1M27 6h1M29 6h1M31 6h1M35 6h21M0 7h13M19 7h2M22 7h1M24 7h1M26 7h1M28 7h1M30 7h1M36 7h20M0 8h13M19 8h1M27 8h1M29 8h1M37 8h19M0 9h4M8 9h4M18 9h2M37 9h19M0 10h3M9 10h3M18 10h2M38 10h6M48 10h8M0 11h2M4 11h2M10 11h1M17 11h2M39 11h2M49 11h7M0 12h2M4 12h3M10 12h1M17 12h2M39 12h1M50 12h6M0 13h1M5 13h2M16 13h1M18 13h1M50 13h6M0 14h1M14 14h1M17 14h1M33 14h2M50 14h6M0 15h1M14 15h1M16 15h1M18 15h1M32 15h3M49 15h7M0 16h1M14 16h1M17 16h1M31 16h3M48 16h8M0 17h1M13 17h2M29 17h5M46 17h10M0 18h2M13 18h2M28 18h5M45 18h11M0 19h2M12 19h3M28 19h3M46 19h10M0 20h3M11 20h5M28 20h3M32 20h2M46 20h10M0 21h5M9 21h7M27 21h1M29 21h2M32 21h2M41 21h2M47 21h9M0 22h16M27 22h2M30 22h1M40 22h3M49 22h7M0 23h17M27 23h2M39 23h4M46 23h3M52 23h4M0 24h17M27 24h1M29 24h1M40 24h3M49 24h3M53 24h3M0 25h18M29 25h1M38 25h1M40 25h2M46 25h1M48 25h1M52 25h4M0 26h19M21 26h5M38 26h1M47 26h1M49 26h7M0 27h19M31 27h2M46 27h1M48 27h1M50 27h6M0 28h19M24 28h3M30 28h2M45 28h1M47 28h1M49 28h1M51 28h5M0 29h19M21 29h3M30 29h1M45 29h1M47 29h2M50 29h1M52 29h4M0 30h18M26 30h2M46 30h1M48 30h2M51 30h1M53 30h3M0 31h16M24 31h2M31 31h1M37 31h1M46 31h1M48 31h3M52 31h4M0 32h15M16 32h1M19 32h1M22 32h2M31 32h1M37 32h1M44 32h2M47 32h1M49 32h7M0 33h14M15 33h1M18 33h1M44 33h2M47 33h1M49 33h7M0 34h14M18 34h1M22 34h1M27 34h1M43 34h4M48 34h8M0 35h14M15 35h1M27 35h1M43 35h13M0 36h14M15 36h1M18 36h1M23 36h1M26 36h3M31 36h1M42 36h14M0 37h15M16 37h1M18 37h1M20 37h2M23 37h1M25 37h4M32 37h1M42 37h14M0 38h18M19 38h4M24 38h6M31 38h1M33 38h1M41 38h15M0 39h30M32 39h1M40 39h16M0 40h31M33 40h1M40 40h16M0 41h31M32 41h1M34 41h1M40 41h16M0 42h31M32 42h2M41 42h15M0 43h31M33 43h2M41 43h15M0 44h32M33 44h2M41 44h15M0 45h32M33 45h3M42 45h14M0 46h32M34 46h2M42 46h14M0 47h32M33 47h1M35 47h1M43 47h13M0 48h31M34 48h1M43 48h13M0 49h30M31 49h1M35 49h1M39 49h2M44 49h12M0 50h29M30 50h1M34 50h1M39 50h2M44 50h12M0 51h29M34 51h1M39 51h1M44 51h12M0 52h29M30 52h1M40 52h1M44 52h12M0 53h29M30 53h1M34 53h1M40 53h1M43 53h13M0 54h30M31 54h2M34 54h1M38 54h1M40 54h1M42 54h14M0 55h33M34 55h1M37 55h3M41 55h15" />
<path stroke="#000000" d="M23 0h3M21 1h2M26 1h3M19 2h2M29 2h2M17 3h2M23 3h1M31 3h1M16 4h1M21 4h2M32 4h1M15 5h1M19 5h2M33 5h1M14 6h1M18 6h2M34 6h1M13 7h1M17 7h2M35 7h1M13 8h1M16 8h2M36 8h1M4 9h4M12 9h1M16 9h2M36 9h1M3 10h1M8 10h1M12 10h1M15 10h2M37 10h1M45 10h2M2 11h1M9 11h1M11 11h1M15 11h2M24 11h2M38 11h1M42 11h7M2 12h1M9 12h1M11 12h1M14 12h3M23 12h6M35 12h3M40 12h5M48 12h2M1 13h1M10 13h1M14 13h2M22 13h1M25 13h6M32 13h2M38 13h2M41 13h2M49 13h1M1 14h1M4 14h1M10 14h1M13 14h1M15 14h1M22 14h1M27 14h5M40 14h2M49 14h1M1 15h1M3 15h1M10 15h1M13 15h1M15 15h1M23 15h1M29 15h2M39 15h1M42 15h1M48 15h1M1 16h1M3 16h1M9 16h1M13 16h1M15 16h1M24 16h1M28 16h1M43 16h1M46 16h2M1 17h1M3 17h1M9 17h1M12 17h1M15 17h1M25 17h1M27 17h1M44 17h2M2 18h1M4 18h1M8 18h1M12 18h1M15 18h1M26 18h2M44 18h1M2 19h1M5 19h2M11 19h1M15 19h1M26 19h1M33 19h2M45 19h1M3 20h2M9 20h2M16 20h1M25 20h1M27 20h1M35 20h1M41 20h2M45 20h1M5 21h4M16 21h1M25 21h1M28 21h1M31 21h1M35 21h1M40 21h1M46 21h1M16 22h1M24 22h1M29 22h1M31 22h1M35 22h1M39 22h1M47 22h1M17 23h1M24 23h1M29 23h1M32 23h3M49 23h2M17 24h1M24 24h1M28 24h1M30 24h1M38 24h1M46 24h3M18 25h1M22 25h3M28 25h1M30 25h1M37 25h1M39 25h1M42 25h1M49 25h3M19 26h1M29 26h1M37 26h1M39 26h2M45 26h2M19 27h4M25 27h1M45 27h1M47 27h1M19 28h1M23 28h1M44 28h1M48 28h1M19 29h2M24 29h2M32 29h2M43 29h2M49 29h1M18 30h2M21 30h3M25 30h1M28 30h1M41 30h2M44 30h2M50 30h1M16 31h2M22 31h2M26 31h2M29 31h1M32 31h4M39 31h2M44 31h2M51 31h1M21 32h1M24 32h2M30 32h1M32 32h1M36 32h1M38 32h1M43 32h1M46 32h1M22 33h2M26 33h2M31 33h8M43 33h1M46 33h1M14 34h1M26 34h1M28 34h1M32 34h1M37 34h2M42 34h1M47 34h1M14 35h1M17 35h1M21 35h1M28 35h1M33 35h2M36 35h1M38 35h1M42 35h1M14 36h1M16 36h2M20 36h2M25 36h1M29 36h1M38 36h1M41 36h1M15 37h1M17 37h1M19 37h1M22 37h1M24 37h1M29 37h1M38 37h1M41 37h1M18 38h1M23 38h1M30 38h1M38 38h1M40 38h1M39 39h1M31 40h1M39 40h1M31 41h1M39 41h1M31 42h1M40 43h1M32 44h1M40 44h1M32 45h1M32 46h1M41 46h1M32 47h1M31 48h1M42 48h1M30 49h1M29 50h1M43 50h1M29 51h1M43 51h1M29 52h1M33 52h1M38 52h1M41 52h1M43 52h1M29 53h1M31 53h3M38 53h2M41 53h2M30 54h1M33 54h1M37 54h1M39 54h1M41 54h1M33 55h1M35 55h2M40 55h1" />
<path stroke="#ffe652" d="M23 1h3M21 2h4M28 2h1M19 3h4M30 3h1M17 4h3M31 4h1M16 5h2M21 5h1M23 5h1M29 5h1M32 5h1M15 6h2M20 6h1M22 6h1M24 6h1M26 6h1M28 6h1M30 6h1M32 6h2M14 7h2M21 7h1M23 7h1M25 7h1M27 7h1M29 7h1M31 7h4M14 8h2M18 8h1M20 8h7M28 8h1M30 8h5M13 9h2M20 9h16M4 10h4M13 10h1M17 10h1M20 10h16M3 11h1M6 11h3M12 11h2M19 11h4M27 11h10M3 12h1M7 12h2M12 12h1M19 12h3M30 12h4M2 13h3M7 13h2M11 13h2M17 13h1M19 13h3M34 13h4M2 14h2M5 14h4M11 14h1M16 14h1M18 14h4M32 14h1M35 14h4M2 15h1M4 15h5M11 15h1M17 15h1M19 15h4M35 15h4M41 15h1M2 16h1M4 16h4M10 16h1M16 16h1M18 16h6M29 16h2M34 16h4M39 16h4M2 17h1M4 17h3M16 17h9M28 17h1M34 17h10M3 18h1M16 18h6M23 18h3M33 18h11M16 19h6M23 19h3M27 19h1M31 19h1M35 19h10M17 20h6M24 20h1M26 20h1M36 20h5M43 20h2M17 21h6M24 21h1M36 21h4M44 21h2M18 22h4M25 22h2M36 22h3M44 22h2M18 23h3M22 23h1M25 23h1M30 23h2M35 23h3M44 23h2M19 24h1M21 24h1M23 24h1M25 24h2M31 24h7M43 24h3M20 25h1M25 25h3M31 25h6M43 25h3M26 26h3M30 26h7M41 26h4M27 27h4M33 27h12M27 28h3M32 28h12M27 29h3M34 29h9M20 30h1M29 30h3M33 30h8M18 31h4M28 31h1M30 31h1M36 31h1M17 32h2M20 32h1M27 32h3M16 33h2M19 33h2M24 33h1M28 33h3M42 33h1M15 34h2M19 34h2M23 34h2M29 34h3M33 34h3M41 34h1M16 35h1M18 35h2M22 35h3M29 35h4M40 35h2M19 36h1M22 36h1M24 36h1M30 36h1M32 36h5M39 36h2M30 37h2M33 37h5M39 37h1M32 38h1M34 38h4M31 39h1M33 39h5M32 40h1M34 40h5M33 41h1M35 41h4M34 42h6M32 43h1M35 43h5M35 44h5M36 45h5M33 46h1M36 46h5M34 47h1M36 47h6M33 48h1M35 48h7M32 49h3M36 49h3M41 49h2M31 50h3M35 50h4M41 50h2M31 51h2M35 51h3M40 51h1M42 51h1M31 52h1M34 52h3M39 52h1M35 53h2M35 54h2" />
<path stroke="#e64ade" d="M20 4h1M18 5h1M17 6h1M16 7h1M35 8h1M15 9h1M14 10h1M36 10h1M44 10h1M47 10h1M14 11h1M23 11h1M26 11h1M37 11h1M41 11h1M13 12h1M22 12h1M29 12h1M34 12h1M38 12h1M45 12h3M9 13h1M13 13h1M23 13h2M31 13h1M40 13h1M43 13h6M9 14h1M12 14h1M23 14h4M39 14h1M42 14h7M9 15h1M12 15h1M24 15h5M31 15h1M40 15h1M43 15h5M8 16h1M11 16h2M25 16h3M38 16h1M44 16h2M7 17h2M10 17h2M26 17h1M5 18h3M9 18h3M22 18h1M3 19h2M7 19h4M22 19h1M32 19h1M5 20h4M23 20h1M31 20h1M34 20h1M23 21h1M26 21h1M34 21h1M43 21h1M17 22h1M22 22h2M32 22h3M43 22h1M46 22h1M48 22h1M21 23h1M23 23h1M26 23h1M38 23h1M43 23h1M51 23h1M18 24h1M20 24h1M22 24h1M39 24h1M52 24h1M19 25h1M21 25h1M47 25h1M20 26h1M48 26h1M23 27h2M26 27h1M49 27h1M20 28h3M46 28h1M50 28h1M26 29h1M31 29h1M46 29h1M51 29h1M24 30h1M32 30h1M43 30h1M47 30h1M52 30h1M38 31h1M41 31h3M47 31h1M15 32h1M26 32h1M33 32h3M39 32h4M48 32h1M14 33h1M21 33h1M25 33h1M39 33h3M48 33h1M17 34h1M21 34h1M25 34h1M36 34h1M39 34h2M20 35h1M25 35h2M35 35h1M37 35h1M39 35h1M37 36h1M40 37h1M39 38h1M30 39h1M38 39h1M40 42h1M31 43h1M41 45h1M42 47h1M32 48h1M43 49h1M30 51h1M33 51h1M38 51h1M41 51h1M32 52h1M37 52h1M42 52h1M37 53h1" />
</svg>