<svg xmlns="http://www.w3.org/2000/svg" viewBox="0 -0.5 40 40" shape-rendering="crispEdges">
<metadata>Made with Pixels to Svg https://codepen.io/shshaw/pen/XbxvNj</metadata>
<path stroke="#ffffff" d="M0 0h40M0 1h40M0 2h11M16 2h24M0 3h9M18 3h22M0 4h8M10 4h2M19 4h21M0 5h7M8 5h5M20 5h20M0 6h6M8 6h4M21 6h19M0 7h6M9 7h2M21 7h19M0 8h5M22 8h18M0 9h5M7 9h1M14 9h1M22 9h18M0 10h5M7 10h1M14 10h1M22 10h18M0 11h6M22 11h18M0 12h5M22 12h18M0 13h5M7 13h2M22 13h18M0 14h5M7 14h1M21 14h1M24 14h16M0 15h6M21 15h1M26 15h14M0 16h4M5 16h2M21 16h1M25 16h1M28 16h12M0 17h3M4 17h1M27 17h1M29 17h11M0 18h2M24 18h1M28 18h12M0 19h3M4 19h1M29 19h11M0 20h2M29 20h11M0 21h3M29 21h11M0 22h5M30 22h10M0 23h7M10 23h1M30 23h10M0 24h9M10 24h1M23 24h1M30 24h10M0 25h9M10 25h2M23 25h2M30 25h10M0 26h9M10 26h3M24 26h1M29 26h11M0 27h10M11 27h2M24 27h2M29 27h2M35 27h5M0 28h10M25 28h2M29 28h1M32 28h1M36 28h4M0 29h11M23 29h2M26 29h1M28 29h1M30 29h1M37 29h3M0 30h10M22 30h3M27 30h1M29 30h2M37 30h3M0 31h10M22 31h2M27 31h1M37 31h3M0 32h10M22 32h1M37 32h3M0 33h11M37 33h3M0 34h11M37 34h3M0 35h12M36 35h4M0 36h11M12 36h1M14 36h1M18 36h3M35 36h5M0 37h12M17 37h4M22 37h1M27 37h2M34 37h6M0 38h22M25 38h15M0 39h40" />
<path stroke="#000000" d="M11 2h5M9 3h2M16 3h2M8 4h1M18 4h1M7 5h1M19 5h1M6 6h1M14 6h1M20 6h1M6 7h2M13 7h1M20 7h1M5 8h1M15 8h2M21 8h1M5 9h2M15 9h2M21 9h1M6 10h1M15 10h1M21 10h1M6 11h2M14 11h1M21 11h1M6 12h2M10 12h1M14 12h3M21 12h1M5 13h1M21 13h1M5 14h1M8 14h4M17 14h1M20 14h1M22 14h2M6 15h5M13 15h4M20 15h1M22 15h1M24 15h2M4 16h1M7 16h1M9 16h1M19 16h2M22 16h3M26 16h2M3 17h1M5 17h4M11 17h4M19 17h3M28 17h1M2 18h1M9 18h2M17 18h2M27 18h1M11 19h5M27 19h2M2 20h1M11 20h1M18 20h1M27 20h2M3 21h2M10 21h1M17 21h2M25 21h2M28 21h1M5 22h2M10 22h2M15 22h2M18 22h1M23 22h2M29 22h1M7 23h3M12 23h3M19 23h1M22 23h3M27 23h3M9 24h1M13 24h1M20 24h3M24 24h3M29 24h1M9 25h1M13 25h1M20 25h1M22 25h1M25 25h1M29 25h1M9 26h1M13 26h1M19 26h1M23 26h1M25 26h1M28 26h1M10 27h1M14 27h1M19 27h1M23 27h1M26 27h1M28 27h1M31 27h3M10 28h1M12 28h7M23 28h2M27 28h2M30 28h1M35 28h1M11 29h1M15 29h1M19 29h1M22 29h1M25 29h1M27 29h1M29 29h1M10 30h1M12 30h1M20 30h2M26 30h1M28 30h1M32 30h2M36 30h1M10 31h1M13 31h1M16 31h1M21 31h1M26 31h1M28 31h1M31 31h1M34 31h1M36 31h1M10 32h1M14 32h2M17 32h2M20 32h1M27 32h1M31 32h1M34 32h1M36 32h1M11 33h1M16 33h5M27 33h1M31 33h1M34 33h1M36 33h1M11 34h1M18 34h1M20 34h1M27 34h1M31 34h1M12 35h1M18 35h3M26 35h1M32 35h1M35 35h1M11 36h1M17 36h1M21 36h1M26 36h3M33 36h2M12 37h5M21 37h1M25 37h2M29 37h4M22 38h3" />
<path stroke="#8ccef7" d="M11 3h5M9 4h1M12 4h6M13 5h6M7 6h1M12 6h2M15 6h5M8 7h1M11 7h2M14 7h6M6 8h9M17 8h4M8 9h6M17 9h4M5 10h1M8 10h6M17 10h4M8 11h6M17 11h4M5 12h1M8 12h2M11 12h3M17 12h4M6 13h1M9 13h12M6 14h1M12 14h5M18 14h2M17 15h3M8 16h1M15 16h4M9 17h2M15 17h4M22 17h5M3 18h6M11 18h6M19 18h5M25 18h2M3 19h1M5 19h6M18 19h9M3 20h8M19 20h8M5 21h5M19 21h6M7 22h3M19 22h4M20 23h2M34 27h1M31 28h1M33 28h2M31 29h6M11 30h1M25 30h1M31 30h1M34 30h2M11 31h2M24 31h2M29 31h2M32 31h2M35 31h1M11 32h3M21 32h1M23 32h4M28 32h3M32 32h2M35 32h1M12 33h4M21 33h6M28 33h3M32 33h2M35 33h1M12 34h6M19 34h1M21 34h6M28 34h3M32 34h5M13 35h5M21 35h5M27 35h5M33 35h2M13 36h1M15 36h2M22 36h4M29 36h4M23 37h2M33 37h1" />
<path stroke="#6bbd42" d="M16 10h1M15 11h2M11 15h2M23 15h1M10 16h5M16 19h2M12 20h6M11 21h6M27 21h1M12 22h3M17 22h1M25 22h4M11 23h1M15 23h4M25 23h2M11 24h2M14 24h6M27 24h2M12 25h1M14 25h6M21 25h1M26 25h3M14 26h5M20 26h3M26 26h2M13 27h1M15 27h4M20 27h3M27 27h1M11 28h1M19 28h4M12 29h3M16 29h3M20 29h2M13 30h7M14 31h2M17 31h4M16 32h1M19 32h1" />
</svg>