<svg xmlns="http://www.w3.org/2000/svg" viewBox="0 -0.5 48 48" shape-rendering="crispEdges">
<metadata>Made with Pixels to Svg https://codepen.io/shshaw/pen/XbxvNj</metadata>
<path stroke="#ffffff" d="M0 0h48M0 1h48M0 2h48M0 3h18M21 3h27M0 4h17M18 4h1M22 4h26M0 5h8M10 5h6M17 5h1M25 5h5M34 5h14M0 6h7M11 6h5M17 6h1M23 6h2M26 6h3M36 6h1M39 6h9M0 7h6M12 7h5M27 7h2M31 7h1M41 7h7M0 8h5M13 8h3M17 8h1M27 8h2M30 8h1M32 8h1M34 8h1M42 8h6M0 9h5M8 9h1M14 9h1M16 9h2M27 9h3M31 9h3M35 9h1M39 9h1M43 9h1M46 9h2M0 10h4M7 10h1M9 10h1M14 10h1M16 10h1M27 10h3M31 10h6M38 10h1M40 10h1M44 10h2M47 10h1M0 11h3M8 11h1M10 11h1M15 11h1M33 11h4M38 11h2M41 11h1M43 11h4M0 12h2M7 12h5M15 12h2M33 12h4M38 12h3M42 12h5M0 13h2M8 13h5M16 13h2M32 13h1M34 13h7M42 13h4M47 13h1M0 14h2M4 14h1M7 14h6M17 14h2M33 14h1M35 14h5M41 14h5M47 14h1M0 15h1M3 15h1M5 15h1M7 15h7M17 15h1M19 15h3M34 15h1M36 15h4M41 15h4M46 15h2M0 16h1M4 16h3M8 16h6M19 16h2M22 16h1M34 16h1M36 16h2M40 16h4M47 16h1M3 17h4M8 17h7M18 17h2M21 17h1M25 17h3M33 17h1M41 17h2M44 17h1M47 17h1M3 18h5M9 18h6M20 18h1M22 18h1M26 18h3M33 18h8M2 19h1M4 19h4M9 19h7M19 19h1M21 19h1M24 19h1M26 19h3M33 19h1M35 19h10M4 20h5M10 20h7M20 20h1M24 20h1M27 20h3M32 20h1M34 20h1M36 20h1M38 20h8M2 21h2M5 21h5M11 21h6M27 21h3M31 21h1M33 21h1M35 21h11M0 22h1M3 22h2M6 22h12M27 22h2M30 22h15M0 23h2M3 23h3M7 23h11M30 23h12M47 23h1M0 24h2M4 24h15M30 24h7M44 24h1M47 24h1M0 25h2M6 25h14M39 25h3M43 25h1M47 25h1M0 26h2M4 26h2M7 26h14M32 26h2M37 26h3M42 26h3M46 26h2M0 27h3M5 27h16M31 27h4M36 27h2M40 27h4M46 27h2M0 28h4M5 28h16M27 28h2M30 28h4M38 28h5M45 28h3M0 29h5M7 29h13M25 29h3M30 29h3M34 29h2M37 29h5M44 29h4M0 30h7M9 30h10M24 30h2M29 30h1M31 30h1M33 30h4M38 30h3M43 30h5M0 31h9M14 31h3M23 31h1M30 31h1M32 31h5M38 31h1M42 31h6M0 32h6M29 32h1M31 32h6M40 32h8M0 33h5M30 33h7M39 33h9M0 34h5M10 34h2M14 34h2M22 34h1M24 34h1M30 34h7M38 34h10M0 35h5M10 35h3M14 35h3M23 35h1M29 35h7M37 35h11M0 36h6M10 36h3M14 36h1M22 36h1M24 36h1M29 36h6M37 36h11M0 37h7M11 37h4M21 37h1M23 37h1M28 37h4M33 37h1M36 37h12M0 38h6M7 38h3M11 38h4M28 38h1M30 38h1M32 38h1M35 38h13M0 39h7M8 39h8M27 39h1M29 39h1M31 39h1M34 39h14M0 40h7M8 40h9M26 40h1M28 40h1M33 40h15M0 41h8M9 41h4M14 41h1M16 41h1M36 41h12M0 42h9M10 42h2M13 42h1M15 42h1M17 42h1M23 42h4M32 42h4M39 42h9M0 43h10M12 43h1M14 43h1M16 43h1M18 43h1M21 43h5M27 43h8M42 43h6M0 44h12M15 44h1M17 44h1M20 44h7M29 44h8M39 44h3M43 44h5M0 45h14M18 45h11M33 45h6M42 45h6M0 46h33M39 46h9M0 47h48" />
<path stroke="#000000" d="M18 3h2M17 4h1M21 4h1M8 5h2M16 5h1M21 5h4M31 5h2M7 6h1M10 6h1M16 6h1M25 6h1M29 6h1M34 6h1M37 6h1M6 7h1M11 7h1M17 7h1M22 7h1M26 7h1M29 7h1M36 7h1M39 7h2M12 8h1M16 8h1M18 8h1M22 8h1M26 8h1M29 8h1M41 8h1M5 9h1M13 9h1M15 9h1M18 9h1M23 9h1M26 9h1M30 9h1M37 9h1M42 9h1M44 9h2M4 10h2M13 10h1M15 10h1M19 10h1M23 10h1M26 10h1M30 10h1M37 10h1M43 10h1M46 10h1M3 11h1M5 11h1M14 11h1M16 11h1M20 11h1M26 11h5M37 11h1M42 11h1M47 11h1M5 12h1M14 12h1M17 12h1M27 12h2M31 12h2M37 12h1M41 12h1M47 12h1M2 13h1M6 13h1M15 13h1M18 13h1M20 13h1M23 13h4M28 13h2M31 13h1M33 13h1M41 13h1M46 13h1M2 14h1M6 14h1M16 14h1M19 14h1M27 14h3M31 14h2M34 14h1M40 14h1M46 14h1M6 15h1M16 15h1M18 15h1M29 15h1M32 15h2M40 15h1M45 15h1M1 16h1M7 16h1M17 16h2M24 16h1M27 16h1M32 16h2M35 16h1M39 16h1M44 16h1M46 16h1M1 17h1M7 17h1M17 17h1M28 17h1M32 17h1M34 17h6M43 17h1M46 17h1M0 18h1M8 18h1M18 18h1M23 18h2M32 18h1M42 18h2M47 18h1M0 19h1M8 19h1M18 19h1M23 19h1M25 19h1M31 19h1M45 19h1M47 19h1M0 20h1M3 20h1M9 20h1M19 20h1M23 20h1M25 20h1M30 20h1M46 20h2M4 21h1M10 21h1M19 21h1M24 21h3M30 21h1M46 21h2M1 22h1M5 22h1M20 22h1M24 22h3M29 22h1M45 22h1M47 22h1M2 23h1M20 23h1M25 23h3M29 23h1M43 23h2M46 23h1M2 24h2M21 24h1M29 24h1M38 24h3M42 24h1M46 24h1M2 25h1M4 25h2M22 25h1M30 25h9M42 25h1M46 25h1M2 26h1M6 26h1M23 26h1M31 26h1M34 26h2M40 26h1M45 26h1M3 27h1M30 27h1M35 27h1M38 27h2M45 27h1M4 28h1M29 28h1M34 28h4M44 28h1M5 29h2M28 29h1M36 29h1M43 29h1M7 30h2M26 30h2M32 30h1M42 30h1M9 31h4M17 31h1M24 31h1M31 31h1M37 31h1M40 31h1M6 32h3M11 32h1M13 32h1M15 32h2M22 32h2M30 32h1M37 32h1M39 32h1M5 33h1M10 33h3M14 33h3M20 33h3M29 33h1M37 33h2M5 34h1M12 34h2M16 34h4M21 34h1M29 34h1M37 34h1M5 35h1M8 35h2M13 35h1M17 35h1M21 35h1M28 35h1M36 35h1M6 36h2M9 36h1M15 36h2M20 36h1M28 36h1M36 36h1M7 37h2M15 37h1M19 37h1M27 37h1M35 37h1M6 38h1M15 38h2M18 38h2M26 38h1M34 38h1M7 39h1M16 39h5M25 39h1M32 39h2M7 40h1M17 40h4M24 40h1M30 40h3M8 41h1M17 41h4M23 41h7M33 41h2M9 42h1M18 42h5M27 42h1M37 42h1M10 43h2M26 43h1M40 43h2M12 44h2M18 44h1M27 44h2M14 45h4M30 45h3M39 45h2M34 46h5" />
<path stroke="#63a508" d="M20 3h1M30 5h1M33 5h1M22 6h1M35 6h1M38 6h1M5 8h1M37 8h1M2 12h1M29 12h1M26 14h1M1 15h1M30 15h1M35 15h1M25 16h2M30 16h1M38 16h1M0 17h1M24 17h1M40 17h1M2 18h1M25 18h1M29 18h1M41 18h1M44 18h1M3 19h1M29 19h1M26 20h1M0 21h1M6 23h1M42 23h1M37 24h1M41 24h1M24 26h1M36 26h1M41 26h1M29 29h1M33 29h1M28 30h1M30 30h1M25 31h5M24 32h5M23 33h6M9 34h1M20 34h1M23 34h1M25 34h4M18 35h3M22 35h1M24 35h4M13 36h1M17 36h3M21 36h1M23 36h1M25 36h3M9 37h2M16 37h3M20 37h1M22 37h1M24 37h3M10 38h1M17 38h1M20 38h6M21 39h4M21 40h3M21 41h2M35 41h1M36 42h1M38 42h1M20 43h1M36 43h1M39 43h1M19 44h1M37 44h2M42 44h1M29 45h1M41 45h1M33 46h1" />
<path stroke="#a58473" d="M19 4h2M18 5h3M8 6h2M18 6h4M30 6h4M7 7h4M18 7h4M23 7h3M30 7h1M32 7h4M37 7h2M6 8h6M19 8h3M23 8h3M31 8h1M33 8h1M35 8h2M38 8h3M6 9h2M9 9h4M19 9h4M24 9h2M34 9h1M36 9h1M38 9h1M40 9h2M6 10h1M8 10h1M10 10h3M17 10h2M20 10h3M24 10h2M39 10h1M41 10h2M4 11h1M6 11h2M9 11h1M11 11h3M17 11h3M21 11h5M31 11h2M40 11h1M3 12h2M6 12h1M12 12h2M18 12h9M30 12h1M3 13h3M7 13h1M13 13h2M19 13h1M21 13h2M27 13h1M30 13h1M3 14h1M5 14h1M13 14h3M20 14h6M30 14h1M2 15h1M4 15h1M14 15h2M22 15h7M31 15h1M2 16h2M14 16h3M21 16h1M23 16h1M28 16h2M31 16h1M45 16h1M2 17h1M15 17h2M20 17h1M22 17h2M29 17h3M45 17h1M1 18h1M15 18h3M19 18h1M21 18h1M30 18h2M45 18h2M1 19h1M16 19h2M20 19h1M22 19h1M30 19h1M32 19h1M34 19h1M46 19h1M1 20h2M17 20h2M21 20h2M31 20h1M33 20h1M35 20h1M37 20h1M1 21h1M17 21h2M20 21h4M32 21h1M34 21h1M2 22h1M18 22h2M21 22h3M46 22h1M18 23h2M21 23h4M28 23h1M45 23h1M19 24h2M22 24h7M43 24h1M45 24h1M3 25h1M20 25h2M23 25h7M44 25h2M3 26h1M21 26h2M25 26h6M4 27h1M21 27h9M44 27h1M21 28h6M43 28h1M20 29h5M42 29h1M19 30h5M37 30h1M41 30h1M13 31h1M18 31h5M39 31h1M41 31h1M9 32h2M12 32h1M14 32h1M17 32h5M38 32h1M6 33h4M13 33h1M17 33h3M6 34h3M6 35h2M8 36h1M35 36h1M32 37h1M34 37h1M27 38h1M29 38h1M31 38h1M33 38h1M26 39h1M28 39h1M30 39h1M25 40h1M27 40h1M29 40h1M13 41h1M15 41h1M30 41h3M12 42h1M14 42h1M16 42h1M28 42h4M13 43h1M15 43h1M17 43h1M19 43h1M35 43h1M37 43h2M14 44h1M16 44h1" />
</svg>