<svg xmlns="http://www.w3.org/2000/svg" viewBox="0 -0.5 48 48" shape-rendering="crispEdges">
<metadata>Made with Pixels to Svg https://codepen.io/shshaw/pen/XbxvNj</metadata>
<path stroke="#ffffff" d="M0 0h32M41 0h7M0 1h20M26 1h3M35 1h5M41 1h7M0 2h17M20 2h4M33 2h5M41 2h7M0 3h5M11 3h4M18 3h8M31 3h4M40 3h8M0 4h4M5 4h3M17 4h8M26 4h1M39 4h9M0 5h4M5 5h4M16 5h10M27 5h1M38 5h10M0 6h5M7 6h3M16 6h11M28 6h1M38 6h10M0 7h6M15 7h11M27 7h1M37 7h11M0 8h7M15 8h10M26 8h1M28 8h1M37 8h5M45 8h3M0 9h7M15 9h11M27 9h1M36 9h5M42 9h2M46 9h2M0 10h8M16 10h9M26 10h1M36 10h4M41 10h2M46 10h2M0 11h9M17 11h7M25 11h1M27 11h1M45 11h3M0 12h10M16 12h1M18 12h1M20 12h3M24 12h1M45 12h3M0 13h10M17 13h1M19 13h1M21 13h1M23 13h1M39 13h1M45 13h3M0 14h10M18 14h1M20 14h1M22 14h1M26 14h1M37 14h3M44 14h1M46 14h2M0 15h11M19 15h1M21 15h1M23 15h1M26 15h1M29 15h3M35 15h4M45 15h1M47 15h1M0 16h11M14 16h1M18 16h1M20 16h1M22 16h1M27 16h1M29 16h1M35 16h2M0 17h11M14 17h1M19 17h1M21 17h1M23 17h1M0 18h10M18 18h1M20 18h1M22 18h1M0 19h10M19 19h3M23 19h1M0 20h9M18 20h1M20 20h3M47 20h1M0 21h8M9 21h1M19 21h4M46 21h2M0 22h7M8 22h3M19 22h4M45 22h3M0 23h6M7 23h3M44 23h4M0 24h5M7 24h2M12 24h1M19 24h4M42 24h6M0 25h5M12 25h2M20 25h2M40 25h8M0 26h4M12 26h2M41 26h7M0 27h4M42 27h6M0 28h4M10 28h4M43 28h5M0 29h4M8 29h5M44 29h4M0 30h3M6 30h4M44 30h4M0 31h2M4 31h5M45 31h3M0 32h1M2 32h4M45 32h3M1 33h2M45 33h3M45 34h3M0 35h1M45 35h3M0 36h6M45 36h3M0 37h6M44 37h4M0 38h6M44 38h4M0 39h6M43 39h5M0 40h6M43 40h5M0 41h7M44 41h4M0 42h7M38 42h2M45 42h3M0 43h7M32 43h3M45 43h3M0 44h6M7 44h2M11 44h2M28 44h9M44 44h4M0 45h5M6 45h2M10 45h2M18 45h30M0 46h5M15 46h33M0 47h6M13 47h35" />
<path stroke="#940052" d="M32 0h2M20 1h2M29 1h1M17 2h1M38 2h1M40 2h1M5 3h3M10 3h1M15 3h1M36 3h1M4 4h1M14 4h1M34 4h1M13 5h1M12 6h1M33 6h1M37 6h1M8 7h1M12 7h1M9 8h1M11 8h1M34 8h1M36 8h1M7 9h1M11 9h1M8 10h1M11 10h1M9 11h1M36 11h1M27 12h2M36 12h1M38 12h1M10 13h1M26 13h1M15 14h1M25 14h1M42 14h2M16 15h1M25 15h1M32 15h1M13 16h1M17 16h1M30 16h2M11 17h1M13 17h1M16 17h2M28 17h2M14 18h1M37 19h1M40 19h1M42 19h1M28 20h1M31 20h1M41 20h1M43 20h2M8 21h1M16 21h1M28 21h1M33 21h2M42 21h1M44 21h2M15 22h2M19 23h6M5 24h1M17 24h2M25 24h2M38 24h1M26 26h1M39 26h1M10 27h2M18 27h2M24 27h2M40 27h1M8 28h2M20 28h4M40 28h2M39 29h4M3 30h1M39 30h4M2 31h2M41 31h1M43 31h1M1 32h1M32 32h3M38 32h1M40 32h1M42 32h2M0 33h1M12 33h2M30 33h9M41 33h1M43 33h1M12 34h4M19 34h1M21 34h1M23 34h1M28 34h11M40 34h1M42 34h2M12 35h5M18 35h1M20 35h1M22 35h1M24 35h15M40 35h4M11 36h1M13 36h26M40 36h4M11 37h1M13 37h25M39 37h4M11 38h2M14 38h24M39 38h4M7 39h1M10 39h3M14 39h23M38 39h3M7 40h7M15 40h21M41 40h1M8 41h7M16 41h18M37 41h1M8 42h1M13 42h3M18 42h14M35 42h2M12 43h1M15 43h1M17 43h1M22 43h6M37 43h1M13 44h2M16 44h1M14 45h1" />
<path stroke="#000000" d="M34 0h7M22 1h4M30 1h2M40 1h1M18 2h2M26 2h3M39 2h1M8 3h2M16 3h1M37 3h3M11 4h3M35 4h4M4 5h1M33 5h5M5 6h2M34 6h3M6 7h2M34 7h1M36 7h1M7 8h2M42 8h3M8 9h2M35 9h1M41 9h1M45 9h1M9 10h1M35 10h1M40 10h1M45 10h1M10 11h1M37 11h3M44 11h1M10 12h1M39 12h1M44 12h1M37 13h2M44 13h1M10 14h1M28 14h4M35 14h2M45 14h1M11 15h1M13 15h2M27 15h2M34 15h1M46 15h1M11 16h1M15 16h1M26 16h1M28 16h1M34 16h1M47 16h1M15 17h1M26 17h2M35 17h4M47 17h1M10 18h2M15 18h2M39 18h4M47 18h1M10 19h1M12 19h1M16 19h1M43 19h2M47 19h1M9 20h1M13 20h1M37 20h1M45 20h2M12 21h2M29 21h2M37 21h1M7 22h1M12 22h1M14 22h1M28 22h1M32 22h1M38 22h1M44 22h1M6 23h1M12 23h1M16 23h1M28 23h1M30 23h2M38 23h1M42 23h2M11 24h1M16 24h1M27 24h3M39 24h3M5 25h1M11 25h1M17 25h1M27 25h2M39 25h1M4 26h1M11 26h1M17 26h1M27 26h1M40 26h1M4 27h1M12 27h3M17 27h1M27 27h1M41 27h1M4 28h1M15 28h1M18 28h1M26 28h1M42 28h1M4 29h1M6 29h2M15 29h1M19 29h2M25 29h1M38 29h1M43 29h1M4 30h2M15 30h1M21 30h4M38 30h1M43 30h1M14 31h1M39 31h1M44 31h1M12 32h2M39 32h1M44 32h1M11 33h1M39 33h1M44 33h1M0 34h1M11 34h1M39 34h1M44 34h1M1 35h5M11 35h1M39 35h1M44 35h1M6 36h1M10 36h1M12 36h1M39 36h1M44 36h1M6 37h1M10 37h1M12 37h1M38 37h1M43 37h1M6 38h2M10 38h1M13 38h1M38 38h1M43 38h1M6 39h1M8 39h2M13 39h1M37 39h1M41 39h2M6 40h1M14 40h1M36 40h5M42 40h1M7 41h1M15 41h1M34 41h3M40 41h1M43 41h1M7 42h1M9 42h4M16 42h2M32 42h3M41 42h1M44 42h1M7 43h2M13 43h2M16 43h1M18 43h4M28 43h4M35 43h2M41 43h1M44 43h1M6 44h1M10 44h1M15 44h1M17 44h11M37 44h7M5 45h1M9 45h1M15 45h3M5 46h1M9 46h1M13 46h2M6 47h7" />
<path stroke="#c56bde" d="M32 1h3M24 2h2M29 2h4M17 3h1M26 3h5M35 3h1M8 4h3M15 4h2M25 4h1M27 4h7M9 5h4M14 5h2M26 5h1M28 5h5M10 6h2M13 6h3M27 6h1M29 6h4M9 7h3M13 7h2M26 7h1M28 7h6M35 7h1M10 8h1M12 8h3M25 8h1M27 8h1M29 8h5M35 8h1M10 9h1M12 9h3M26 9h1M28 9h7M44 9h1M10 10h1M12 10h4M25 10h1M27 10h8M43 10h2M11 11h6M24 11h1M26 11h1M28 11h8M40 11h4M11 12h5M17 12h1M19 12h1M23 12h1M25 12h2M29 12h7M37 12h1M40 12h4M11 13h6M18 13h1M20 13h1M22 13h1M24 13h2M27 13h10M40 13h4M11 14h4M16 14h2M19 14h1M21 14h1M23 14h2M27 14h1M32 14h3M40 14h2M12 15h1M15 15h1M17 15h2M20 15h1M22 15h1M24 15h1M33 15h1M39 15h6M12 16h1M16 16h1M19 16h1M21 16h1M23 16h3M32 16h2M37 16h10M12 17h1M18 17h1M20 17h1M22 17h1M24 17h2M30 17h5M39 17h8M12 18h2M17 18h1M19 18h1M21 18h1M23 18h16M43 18h4M11 19h1M13 19h3M17 19h2M22 19h1M24 19h13M38 19h2M41 19h1M45 19h2M10 20h3M14 20h4M19 20h1M23 20h5M29 20h2M32 20h5M38 20h3M42 20h1M10 21h2M14 21h2M17 21h2M23 21h5M31 21h2M35 21h2M38 21h4M43 21h1M11 22h1M13 22h1M17 22h2M23 22h5M29 22h3M33 22h5M39 22h5M10 23h2M13 23h3M17 23h2M25 23h3M29 23h1M32 23h6M39 23h3M6 24h1M9 24h2M13 24h3M23 24h2M30 24h8M6 25h5M14 25h3M18 25h2M22 25h5M29 25h10M5 26h6M14 26h3M18 26h8M28 26h11M5 27h5M15 27h2M20 27h4M26 27h1M28 27h12M5 28h3M14 28h1M16 28h2M19 28h1M24 28h2M27 28h13M5 29h1M13 29h2M16 29h3M21 29h4M26 29h12M10 30h5M16 30h5M25 30h13M9 31h5M15 31h24M40 31h1M42 31h1M6 32h6M14 32h18M35 32h3M41 32h1M3 33h8M14 33h16M40 33h1M42 33h1M1 34h10M16 34h3M20 34h1M22 34h1M24 34h4M41 34h1M6 35h5M17 35h1M19 35h1M21 35h1M23 35h1M7 36h3M7 37h3M8 38h2M38 41h2M41 41h2M37 42h1M40 42h1M42 42h2M9 43h3M38 43h3M42 43h2M9 44h1M8 45h1M12 45h2M6 46h3M10 46h3" />
</svg>