<svg xmlns="http://www.w3.org/2000/svg" viewBox="0 -0.5 32 32" shape-rendering="crispEdges">
<metadata>Made with Pixels to Svg https://codepen.io/shshaw/pen/XbxvNj</metadata>
<path stroke="#ffffff" d="M0 0h32M0 1h32M0 2h17M18 2h14M0 3h16M17 3h1M19 3h13M0 4h5M8 4h7M16 4h2M19 4h4M26 4h6M0 5h4M5 5h3M9 5h1M13 5h1M15 5h2M19 5h2M23 5h3M27 5h5M0 6h5M6 6h1M8 6h1M10 6h2M14 6h2M21 6h3M26 6h6M0 7h5M6 7h1M10 7h2M19 7h4M26 7h6M0 8h6M9 8h3M21 8h1M25 8h7M0 9h6M9 9h2M25 9h7M0 10h5M6 10h3M25 10h7M0 11h5M6 11h3M24 11h8M0 12h4M5 12h4M23 12h1M25 12h7M0 13h1M4 13h4M24 13h1M26 13h6M1 14h2M24 14h1M26 14h6M0 15h1M2 15h2M27 15h5M0 16h2M3 16h2M28 16h4M0 17h2M4 17h1M28 17h4M0 18h2M24 18h1M26 18h1M28 18h4M0 19h3M25 19h2M28 19h4M0 20h2M3 20h1M24 20h2M28 20h4M0 21h1M4 21h2M26 21h6M4 22h2M26 22h6M25 23h7M26 24h6M3 25h1M26 25h6M3 26h2M26 26h6M3 27h4M27 27h5M0 28h32M0 29h32M0 30h32M0 31h32" />
<path stroke="#000000" d="M17 2h1M16 3h1M18 3h1M5 4h3M15 4h1M18 4h1M23 4h3M4 5h1M8 5h1M10 5h3M14 5h1M18 5h1M21 5h2M26 5h1M5 6h1M9 6h1M13 6h1M19 6h2M25 6h1M5 7h1M9 7h1M14 7h1M16 7h3M25 7h1M6 8h1M8 8h1M15 8h1M19 8h1M24 8h1M7 9h1M15 9h1M24 9h1M5 10h1M9 10h1M14 10h1M24 10h1M5 11h1M10 11h1M13 11h1M20 11h1M22 11h2M4 12h1M12 12h1M21 12h1M24 12h1M1 13h3M11 13h1M20 13h1M25 13h1M0 14h1M4 14h2M11 14h1M25 14h1M1 15h1M6 15h1M11 15h1M23 15h2M26 15h1M2 16h1M7 16h1M11 16h1M22 16h1M27 16h1M2 17h1M8 17h1M10 17h1M24 17h3M2 18h1M8 18h1M10 18h1M27 18h1M3 19h1M7 19h1M9 19h1M27 19h1M2 20h1M4 20h3M10 20h1M18 20h3M26 20h1M1 21h2M10 21h1M21 21h2M25 21h1M0 22h1M2 22h1M10 22h1M23 22h1M25 22h1M2 23h1M9 23h1M11 23h1M24 23h1M3 24h6M11 24h1M25 24h1M2 25h1M12 25h1M25 25h1M2 26h1M12 26h1M25 26h1M2 27h1M12 27h1M26 27h1" />
<path stroke="#aaaaaa" d="M17 5h1M7 6h1M12 6h1M16 6h1M24 6h1M7 7h1M12 7h2M23 7h2M12 8h2M18 8h1M20 8h1M22 8h2M11 9h2M17 9h6M10 10h3M16 10h3M9 11h1M15 11h4M9 12h1M14 12h5M22 12h1M8 13h2M13 13h6M22 13h2M3 14h1M6 14h4M13 14h7M23 14h1M4 15h2M7 15h2M12 15h9M5 16h2M12 16h9M26 16h1M3 17h1M5 17h2M11 17h11M3 18h3M11 18h10M22 18h1M25 18h1M11 19h9M23 19h2M7 20h1M11 20h6M3 21h1M6 21h2M12 21h9M1 22h1M3 22h1M6 22h1M12 22h10M0 23h1M3 23h4M13 23h9M0 24h1M9 24h1M13 24h10M4 25h6M13 25h10M5 26h4M14 26h8M7 27h1M15 27h6" />
<path stroke="#555555" d="M17 6h2M8 7h1M15 7h1M7 8h1M14 8h1M16 8h2M6 9h1M8 9h1M13 9h2M16 9h1M23 9h1M13 10h1M15 10h1M19 10h5M11 11h2M14 11h1M19 11h1M21 11h1M10 12h2M13 12h1M19 12h2M10 13h1M12 13h1M19 13h1M21 13h1M10 14h1M12 14h1M20 14h3M9 15h2M21 15h2M25 15h1M8 16h3M21 16h1M23 16h3M7 17h1M9 17h1M22 17h2M27 17h1M6 18h2M9 18h1M21 18h1M23 18h1M4 19h3M8 19h1M10 19h1M20 19h3M8 20h2M17 20h1M21 20h3M27 20h1M8 21h2M11 21h1M23 21h2M7 22h3M11 22h1M22 22h1M24 22h1M1 23h1M7 23h2M10 23h1M12 23h1M22 23h2M1 24h2M10 24h1M12 24h1M23 24h2M0 25h2M10 25h2M23 25h2M0 26h2M9 26h3M13 26h1M22 26h3M0 27h2M8 27h4M13 27h2M21 27h5" />
</svg>