<svg xmlns="http://www.w3.org/2000/svg" viewBox="0 -0.5 32 32" shape-rendering="crispEdges">
<metadata>Made with Pixels to Svg https://codepen.io/shshaw/pen/XbxvNj</metadata>
<path stroke="#ffffff" d="M0 0h32M0 1h32M0 2h32M0 3h32M0 4h32M0 5h32M0 6h32M0 7h32M0 8h32M0 9h32M0 10h32M0 11h7M9 11h1M16 11h1M19 11h13M0 12h6M7 12h1M10 12h1M17 12h1M19 12h13M0 13h7M9 13h3M16 13h1M18 13h14M0 14h7M10 14h1M19 14h13M0 15h6M16 15h2M20 15h12M0 16h5M6 16h1M19 16h13M0 17h6M15 17h1M22 17h10M0 18h7M16 18h1M19 18h1M22 18h10M0 19h6M7 19h1M20 19h1M22 19h10M0 20h7M9 20h1M22 20h10M0 21h13M20 21h12M0 22h13M15 22h1M21 22h11M0 23h12M21 23h11M0 24h11M15 24h1M22 24h10M0 25h10M11 25h3M22 25h10M0 26h10M16 26h1M22 26h10M0 27h10M11 27h3M22 27h10M0 28h32M0 29h32M0 30h32M0 31h32" />
<path stroke="#000000" d="M7 11h2M11 11h4M17 11h2M6 12h1M9 12h1M16 12h1M18 12h1M8 13h1M15 13h1M17 13h1M7 14h1M14 14h1M16 14h3M6 15h2M19 15h1M5 16h1M7 16h1M15 16h4M6 17h2M14 17h1M16 17h2M19 17h2M8 18h1M15 18h1M17 18h1M21 18h1M6 19h1M9 19h1M16 19h3M21 19h1M7 20h2M11 20h5M19 20h2M13 21h2M19 21h1M13 22h1M12 23h2M20 23h1M12 24h2M21 25h1M10 26h1M14 26h1M21 26h1M10 27h1M14 27h1M21 27h1" />
<path stroke="#555555" d="M10 11h1M15 11h1M13 12h3M7 13h1M14 13h1M18 17h1M21 17h1M7 18h1M14 18h1M18 18h1M13 19h3M19 19h1M10 20h1M16 20h3M21 20h1M15 21h3M18 22h3M14 23h5M11 24h1M19 24h3M10 25h1M14 25h6M11 26h3M20 26h1M15 27h5" />
<path stroke="#aaaaaa" d="M8 12h1M11 12h2M12 13h2M8 14h2M11 14h3M15 14h1M8 15h8M18 15h1M8 16h7M8 17h6M9 18h5M20 18h1M8 19h1M10 19h3M18 21h1M14 22h1M16 22h2M19 23h1M14 24h1M16 24h3M20 25h1M15 26h1M17 26h3M20 27h1" />
</svg>