<svg xmlns="http://www.w3.org/2000/svg" viewBox="0 -0.5 32 32" shape-rendering="crispEdges">
<metadata>Made with Pixels to Svg https://codepen.io/shshaw/pen/XbxvNj</metadata>
<path stroke="#ffffff" d="M0 0h32M0 1h32M0 2h32M0 3h32M0 4h32M0 5h32M0 6h32M0 7h32M0 8h32M0 9h8M10 9h13M25 9h7M0 10h8M9 10h1M11 10h11M23 10h1M25 10h7M0 11h8M9 11h2M12 11h9M22 11h2M25 11h7M0 12h8M9 12h1M13 12h7M21 12h3M25 12h7M0 13h8M14 13h5M25 13h7M0 14h7M8 14h1M25 14h7M0 15h6M7 15h2M14 15h2M24 15h8M0 16h5M6 16h3M13 16h3M23 16h9M0 17h5M6 17h3M10 17h1M13 17h2M22 17h10M0 18h4M5 18h4M10 18h1M22 18h10M0 19h4M5 19h4M10 19h1M23 19h9M0 20h4M5 20h3M10 20h1M23 20h9M0 21h4M5 21h1M23 21h9M0 22h4M11 22h1M22 22h10M0 23h3M12 23h1M22 23h10M0 24h3M12 24h6M20 24h2M23 24h9M0 25h3M13 25h6M20 25h3M24 25h8M0 26h4M15 26h3M21 26h1M24 26h8M0 27h4M24 27h8M0 28h32M0 29h32M0 30h32M0 31h32" />
<path stroke="#000000" d="M8 9h2M23 9h2M8 10h1M10 10h1M22 10h1M24 10h1M8 11h1M11 11h1M21 11h1M24 11h1M8 12h1M12 12h1M20 12h1M24 12h1M8 13h1M13 13h1M19 13h1M24 13h1M7 14h1M9 14h1M14 14h5M23 14h1M6 15h1M9 15h1M13 15h1M17 15h1M22 15h2M5 16h1M9 16h2M12 16h1M21 16h2M5 17h1M9 17h1M11 17h1M20 17h2M9 18h1M11 18h1M21 18h1M4 19h1M9 19h1M11 19h1M22 19h1M4 20h1M9 20h1M11 20h1M22 20h1M4 21h1M9 21h3M22 21h1M10 22h1M12 22h1M21 22h1M13 23h9M3 24h1M11 24h1M19 24h1M22 24h1M11 25h1M19 25h1M12 26h1M20 26h1M23 26h1M4 27h1M12 27h1M14 27h6M21 27h1" />
<path stroke="#aaaaaa" d="M10 12h2M9 13h3M20 13h3M10 14h1M19 14h3M10 15h1M16 15h1M18 15h3M16 16h1M18 16h2M12 17h1M15 17h4M12 18h8M12 19h9M8 20h1M12 20h8M6 21h3M12 21h7M5 22h4M13 22h5M4 23h5M11 23h1M4 24h6M18 24h1M4 25h6M12 25h1M5 26h5M14 26h1M18 26h1M22 26h1M5 27h2M8 27h1M10 27h1M13 27h1M22 27h1" />
<path stroke="#555555" d="M12 13h1M23 13h1M11 14h3M22 14h1M24 14h1M11 15h2M21 15h1M11 16h1M17 16h1M20 16h1M19 17h1M4 18h1M20 18h1M21 19h1M20 20h2M19 21h3M4 22h1M9 22h1M18 22h3M3 23h1M9 23h2M10 24h1M3 25h1M10 25h1M23 25h1M4 26h1M10 26h2M13 26h1M19 26h1M7 27h1M9 27h1M11 27h1M20 27h1M23 27h1" />
</svg>