<svg xmlns="http://www.w3.org/2000/svg" viewBox="0 -0.5 32 32" shape-rendering="crispEdges">
<metadata>Made with Pixels to Svg https://codepen.io/shshaw/pen/XbxvNj</metadata>
<path stroke="#ffffff" d="M0 0h32M0 1h32M0 2h11M19 2h13M0 3h8M20 3h12M0 4h6M21 4h11M0 5h5M22 5h10M0 6h4M6 6h1M12 6h1M22 6h10M0 7h3M5 7h1M7 7h1M23 7h9M0 8h3M4 8h3M20 8h1M23 8h1M27 8h5M0 9h2M3 9h3M7 9h1M20 9h2M24 9h1M28 9h4M0 10h2M3 10h2M6 10h1M8 10h1M22 10h1M27 10h5M0 11h2M3 11h1M5 11h3M27 11h5M0 12h2M3 12h1M5 12h2M9 12h1M19 12h3M26 12h6M0 13h1M2 13h1M4 13h2M8 13h1M18 13h5M25 13h7M0 14h1M2 14h1M4 14h2M7 14h2M18 14h5M26 14h6M0 15h1M2 15h1M4 15h2M7 15h2M10 15h1M18 15h5M26 15h6M0 16h1M2 16h1M4 16h2M7 16h1M10 16h2M19 16h4M24 16h8M0 17h2M3 17h2M6 17h2M9 17h3M19 17h3M24 17h8M0 18h2M3 18h2M6 18h2M9 18h2M20 18h1M23 18h9M0 19h2M3 19h2M6 19h2M9 19h1M20 19h1M23 19h9M0 20h2M3 20h2M6 20h2M9 20h1M20 20h2M23 20h9M0 21h1M2 21h2M5 21h3M20 21h2M23 21h9M0 22h1M3 22h1M11 22h3M19 22h2M22 22h10M12 23h4M18 23h3M22 23h10M14 24h3M18 24h4M23 24h9M16 25h1M19 25h3M23 25h9M20 26h3M24 26h8M21 27h2M24 27h8M0 28h32M0 29h32M0 30h32M0 31h32" />
<path stroke="#555555" d="M11 2h1M18 2h1M8 3h2M12 3h5M18 3h1M6 4h1M9 4h1M11 4h7M19 4h1M10 5h1M12 5h1M17 5h2M20 5h2M11 6h1M13 6h4M18 6h2M10 7h3M16 7h2M22 7h1M7 8h1M9 8h1M13 8h1M24 8h1M26 8h1M11 9h2M14 9h2M23 9h1M26 9h1M10 10h1M13 10h2M16 10h1M25 10h1M9 11h1M13 11h1M15 11h3M24 11h1M4 12h1M13 12h1M15 12h2M3 13h1M6 13h1M12 13h1M15 13h1M13 14h1M15 14h1M14 15h2M3 16h1M6 16h1M9 16h1M14 16h3M2 17h1M5 17h1M8 17h1M13 17h5M23 17h1M12 18h7M22 18h1M11 19h9M2 20h1M5 20h1M10 20h10M14 21h6M22 21h1M1 22h1M16 22h2M0 23h1M3 23h1M6 23h2M21 23h1M5 24h6M4 25h8M17 25h1M22 25h1M1 26h1M3 26h10M18 26h1M2 27h12M23 27h1" />
<path stroke="#000000" d="M12 2h6M10 3h2M17 3h1M19 3h1M7 4h1M18 4h1M20 4h1M5 5h1M13 5h4M19 5h1M4 6h1M9 6h2M17 6h1M20 6h2M3 7h1M8 7h1M13 7h3M18 7h4M3 8h1M11 8h2M14 8h6M21 8h2M25 8h1M2 9h1M6 9h1M10 9h1M13 9h1M16 9h4M22 9h1M27 9h1M2 10h1M5 10h1M9 10h1M12 10h1M15 10h1M17 10h5M23 10h1M26 10h1M2 11h1M4 11h1M8 11h1M11 11h1M14 11h1M18 11h2M21 11h3M25 11h2M2 12h1M7 12h1M11 12h1M14 12h1M17 12h2M23 12h3M1 13h1M10 13h1M14 13h1M16 13h2M23 13h2M1 14h1M3 14h1M6 14h1M9 14h1M14 14h1M16 14h2M23 14h1M25 14h1M1 15h1M3 15h1M6 15h1M9 15h1M13 15h1M16 15h2M23 15h3M1 16h1M12 16h2M17 16h1M23 16h1M12 17h1M18 17h1M2 18h1M5 18h1M8 18h1M11 18h1M2 19h1M5 19h1M8 19h1M10 19h1M22 19h1M8 20h1M22 20h1M1 21h1M4 21h1M8 21h6M4 22h1M6 22h2M14 22h2M21 22h1M5 23h1M16 23h1M0 24h1M3 24h2M17 24h1M22 24h1M0 25h1M3 25h1M0 26h1M2 26h1M23 26h1M0 27h2M18 27h1" />
<path stroke="#aaaaaa" d="M8 4h1M10 4h1M6 5h4M11 5h1M5 6h1M7 6h2M4 7h1M6 7h1M9 7h1M8 8h1M10 8h1M8 9h2M25 9h1M7 10h1M11 10h1M24 10h1M10 11h1M12 11h1M20 11h1M8 12h1M10 12h1M12 12h1M22 12h1M7 13h1M9 13h1M11 13h1M13 13h1M10 14h3M24 14h1M11 15h2M8 16h1M18 16h1M22 17h1M19 18h1M21 18h1M21 19h1M2 22h1M5 22h1M8 22h3M18 22h1M1 23h2M4 23h1M8 23h4M17 23h1M1 24h2M11 24h3M1 25h2M12 25h4M18 25h1M13 26h5M19 26h1M14 27h4M19 27h2" />
</svg>