<svg xmlns="http://www.w3.org/2000/svg" viewBox="0 -0.5 32 32" shape-rendering="crispEdges">
<metadata>Made with Pixels to Svg https://codepen.io/shshaw/pen/XbxvNj</metadata>
<path stroke="#ffffff" d="M0 0h32M0 1h32M0 2h32M0 3h2M3 3h5M10 3h4M15 3h17M0 4h1M2 4h1M4 4h4M9 4h1M11 4h3M16 4h16M0 5h1M2 5h1M4 5h4M9 5h1M12 5h2M15 5h1M17 5h3M21 5h11M0 6h1M2 6h1M4 6h4M10 6h1M13 6h1M18 6h2M22 6h10M0 7h1M2 7h1M4 7h4M11 7h1M19 7h1M22 7h10M0 8h1M2 8h2M5 8h4M23 8h9M0 9h1M2 9h2M5 9h4M23 9h9M0 10h1M2 10h1M6 10h3M23 10h9M0 11h1M2 11h1M4 11h2M8 11h1M23 11h9M1 12h3M5 12h3M23 12h9M1 13h3M6 13h1M23 13h9M1 14h2M19 14h1M24 14h8M1 15h2M5 15h1M20 15h1M24 15h8M1 16h1M5 16h2M24 16h8M6 17h2M23 17h1M25 17h7M6 18h1M22 18h3M26 18h6M21 19h1M23 19h2M27 19h5M20 20h6M27 20h5M20 21h6M28 21h4M0 22h1M20 22h6M28 22h4M0 23h1M22 23h3M28 23h4M0 24h1M21 24h1M28 24h4M0 25h1M21 25h2M28 25h4M0 26h1M21 26h3M27 26h5M0 27h2M20 27h12M0 28h32M0 29h32M0 30h32M0 31h32" />
<path stroke="#000000" d="M2 3h1M8 3h2M14 3h1M1 4h1M3 4h1M8 4h1M10 4h1M14 4h2M1 5h1M3 5h1M8 5h1M11 5h1M14 5h1M16 5h1M20 5h1M1 6h1M3 6h1M8 6h1M12 6h1M14 6h1M17 6h1M20 6h2M1 7h1M3 7h1M8 7h1M13 7h2M18 7h1M20 7h2M1 8h1M4 8h1M9 8h1M14 8h2M19 8h2M22 8h1M1 9h1M4 9h1M9 9h1M15 9h1M20 9h1M22 9h1M1 10h1M3 10h3M9 10h1M21 10h2M1 11h1M3 11h1M6 11h2M9 11h1M22 11h1M0 12h1M4 12h1M8 12h2M21 12h2M0 13h1M4 13h1M10 13h1M18 13h2M21 13h2M0 14h1M4 14h2M17 14h2M20 14h1M22 14h2M0 15h1M4 15h1M6 15h1M18 15h1M21 15h1M23 15h1M0 16h1M4 16h1M7 16h1M19 16h3M23 16h1M0 17h1M5 17h1M8 17h2M22 17h1M24 17h1M0 18h1M5 18h1M7 18h1M21 18h1M25 18h1M0 19h1M6 19h1M11 19h1M20 19h1M22 19h1M26 19h1M0 20h1M6 20h1M12 20h5M19 20h1M26 20h1M0 21h1M5 21h1M12 21h3M17 21h3M27 21h1M1 22h1M5 22h1M11 22h1M18 22h2M27 22h1M1 23h1M5 23h1M10 23h2M19 23h3M27 23h1M1 24h1M6 24h1M11 24h1M20 24h1M22 24h1M27 24h1M1 25h1M6 25h1M12 25h1M20 25h1M23 25h1M27 25h1M1 26h1M7 26h1M13 26h1M19 26h2M24 26h3M2 27h1M7 27h1M14 27h1M19 27h1" />
<path stroke="#aaaaaa" d="M10 5h1M9 6h1M9 7h2M16 7h1M10 8h3M16 8h1M10 9h4M16 9h2M11 10h8M11 11h8M12 12h8M7 13h3M12 13h5M3 14h1M7 14h10M3 15h1M8 15h9M2 16h2M9 16h9M1 17h4M11 17h8M1 18h4M11 18h7M1 19h5M7 19h1M12 19h3M25 19h1M1 20h5M7 20h2M1 21h4M6 21h4M15 21h1M26 21h1M2 22h3M6 22h4M12 22h5M26 22h1M2 23h3M6 23h4M12 23h6M25 23h2M2 24h3M7 24h3M12 24h5M24 24h2M2 25h4M7 25h3M13 25h2M3 26h2M8 26h1" />
<path stroke="#555555" d="M11 6h1M15 6h2M12 7h1M15 7h1M17 7h1M13 8h1M17 8h2M21 8h1M14 9h1M18 9h2M21 9h1M10 10h1M19 10h2M10 11h1M19 11h3M10 12h2M20 12h1M5 13h1M11 13h1M17 13h1M20 13h1M6 14h1M21 14h1M7 15h1M17 15h1M19 15h1M22 15h1M8 16h1M18 16h1M22 16h1M10 17h1M19 17h3M8 18h3M18 18h3M8 19h3M15 19h5M9 20h3M17 20h2M10 21h2M16 21h1M10 22h1M17 22h1M18 23h1M5 24h1M10 24h1M17 24h3M23 24h1M26 24h1M10 25h2M15 25h5M24 25h3M2 26h1M5 26h2M9 26h4M14 26h5M3 27h4M8 27h6M15 27h4" />
</svg>