<svg xmlns="http://www.w3.org/2000/svg" viewBox="0 -0.5 32 32" shape-rendering="crispEdges">
<metadata>Made with Pixels to Svg https://codepen.io/shshaw/pen/XbxvNj</metadata>
<path stroke="#ffffff" d="M0 0h32M0 1h10M16 1h16M0 2h8M11 2h3M18 2h14M0 3h7M9 3h1M11 3h2M16 3h2M20 3h12M0 4h6M7 4h3M17 4h3M21 4h11M0 5h6M7 5h1M18 5h3M22 5h10M0 6h5M6 6h1M19 6h3M23 6h9M0 7h5M20 7h1M23 7h9M0 8h4M12 8h1M21 8h1M24 8h8M0 9h4M24 9h8M0 10h3M25 10h7M0 11h2M25 11h7M0 12h1M3 12h1M9 12h6M26 12h6M2 13h3M8 13h9M27 13h5M3 14h1M5 14h1M7 14h3M11 14h1M13 14h1M15 14h3M20 14h1M22 14h2M28 14h4M0 15h1M4 15h1M10 15h1M12 15h1M14 15h1M16 15h1M27 15h5M0 16h3M26 16h6M0 17h6M21 17h11M0 18h5M22 18h4M27 18h5M0 19h4M23 19h2M26 19h1M28 19h4M0 20h3M24 20h1M26 20h1M28 20h4M0 21h2M3 21h2M16 21h1M24 21h1M26 21h1M28 21h4M0 22h1M2 22h2M5 22h1M11 22h1M16 22h1M28 22h4M0 23h1M2 23h1M4 23h1M11 23h1M16 23h1M27 23h5M1 24h1M4 24h1M11 24h1M16 24h1M27 24h5M1 25h1M10 25h2M16 25h1M22 25h1M26 25h6M7 26h1M10 26h1M12 26h2M16 26h1M22 26h1M25 26h7M0 27h1M3 27h1M7 27h1M10 27h1M12 27h2M15 27h2M18 27h1M22 27h1M25 27h7M0 28h32M0 29h32M0 30h32M0 31h32" />
<path stroke="#555555" d="M10 1h1M15 1h1M8 2h1M17 2h1M7 3h1M15 3h1M19 3h1M6 4h1M10 4h1M14 4h1M16 4h1M8 5h1M17 5h1M5 6h1M7 6h1M18 6h1M22 6h1M19 7h1M21 7h1M9 8h2M14 8h1M23 8h1M9 9h1M12 9h1M15 9h1M21 9h1M8 10h1M16 10h2M22 10h3M3 11h1M6 11h2M18 11h1M2 12h1M4 12h2M19 12h2M1 13h1M21 13h5M1 14h2M25 14h2M2 15h2M7 15h1M19 15h1M23 15h3M3 16h1M8 16h1M25 16h1M9 17h1M16 17h1M6 19h1M17 19h1M21 19h1M4 20h2M9 20h1M18 20h1M21 20h1M10 21h1M13 21h1M19 21h1M8 22h2M14 22h1M18 22h2M6 23h1M8 23h2M13 23h1M18 23h2M21 23h1M6 24h1M8 24h2M13 24h2M18 24h2M21 24h1M5 25h1M8 25h1M14 25h1M19 25h1M23 25h1M5 26h1M5 27h1" />
<path stroke="#000000" d="M11 1h4M9 2h2M14 2h3M8 3h1M10 3h1M14 3h1M18 3h1M15 4h1M20 4h1M6 5h1M9 5h1M15 5h2M21 5h1M8 6h2M15 6h3M5 7h4M10 7h1M14 7h1M16 7h3M22 7h1M4 8h4M17 8h4M22 8h1M4 9h3M11 9h1M13 9h1M18 9h3M23 9h1M3 10h3M12 10h1M19 10h3M2 11h1M21 11h4M1 12h1M25 12h1M0 13h1M26 13h1M0 14h1M27 14h1M1 15h1M5 15h2M20 15h3M26 15h1M4 16h4M17 16h8M6 17h3M10 17h6M17 17h4M5 18h17M26 18h1M4 19h2M7 19h10M18 19h3M22 19h1M25 19h1M27 19h1M3 20h1M6 20h3M10 20h8M19 20h2M23 20h1M25 20h1M27 20h1M2 21h1M5 21h5M11 21h2M14 21h2M17 21h2M20 21h2M23 21h1M25 21h1M27 21h1M1 22h1M4 22h1M6 22h2M10 22h1M12 22h2M15 22h1M17 22h1M20 22h3M24 22h1M27 22h1M1 23h1M3 23h1M5 23h1M7 23h1M10 23h1M12 23h1M14 23h2M17 23h1M20 23h1M22 23h1M26 23h1M0 24h1M3 24h1M5 24h1M7 24h1M10 24h1M12 24h1M15 24h1M17 24h1M20 24h1M22 24h2M26 24h1M0 25h1M3 25h2M6 25h1M9 25h1M12 25h1M15 25h1M17 25h1M20 25h2M24 25h2M0 26h1M3 26h2M6 26h1M9 26h1M11 26h1M15 26h1M17 26h1M20 26h2M24 26h1M1 27h2M4 27h1M6 27h1M9 27h1M11 27h1M14 27h1M17 27h1M20 27h2M24 27h1" />
<path stroke="#aaaaaa" d="M13 3h1M11 4h3M10 5h5M10 6h5M9 7h1M11 7h3M15 7h1M8 8h1M11 8h1M13 8h1M15 8h2M7 9h2M10 9h1M14 9h1M16 9h2M22 9h1M6 10h2M9 10h3M13 10h3M18 10h1M4 11h2M8 11h10M19 11h2M6 12h3M15 12h4M21 12h4M5 13h3M17 13h4M4 14h1M6 14h1M10 14h1M12 14h1M14 14h1M18 14h2M21 14h1M24 14h1M8 15h2M11 15h1M13 15h1M15 15h1M17 15h2M9 16h8M22 20h1M22 21h1M23 22h1M25 22h2M23 23h3M2 24h1M24 24h2M2 25h1M7 25h1M13 25h1M18 25h1M1 26h2M8 26h1M14 26h1M18 26h2M23 26h1M8 27h1M19 27h1M23 27h1" />
</svg>