<svg xmlns="http://www.w3.org/2000/svg" viewBox="0 -0.5 32 32" shape-rendering="crispEdges">
<metadata>Made with Pixels to Svg https://codepen.io/shshaw/pen/XbxvNj</metadata>
<path stroke="#202020" d="M12 9h8M10 10h2M20 10h2M9 11h1M22 11h1M8 12h1M23 12h1M8 13h1M23 13h1M7 14h1M24 14h1M7 15h1M24 15h1M7 16h1M24 16h1M7 17h1M24 17h1M7 18h1M24 18h1M7 19h1M24 19h1M8 20h1M23 20h1M8 21h1M23 21h1M9 22h1M22 22h1M10 23h2M20 23h2M12 24h8" />
<path stroke="#ffff18" d="M12 10h4M11 11h2M10 12h1M13 12h6M9 13h1M12 13h8M8 14h2M23 14h1M8 15h2M11 15h10M22 15h2M22 16h2M11 17h1M20 17h1M22 17h2M21 18h3M19 19h1M16 20h2" />
<path stroke="#7b7b7b" d="M16 10h4M19 11h3M21 12h2M22 13h1M8 16h2M10 20h1M12 21h1" />
<path stroke="#cdcd10" d="M10 11h1M9 12h1M11 13h1M20 13h1M22 14h1" />
<path stroke="#9c9c08" d="M13 11h3M11 12h2M10 13h1M10 14h1M21 14h1M10 15h1M21 15h1M21 16h1M21 17h1M19 18h2M16 19h3M23 19h1M22 20h1M20 21h3M16 22h6M16 23h4" />
<path stroke="#4a4a4a" d="M16 11h3M19 12h2M21 13h1M10 16h1M10 17h1M11 18h2M8 19h1M13 19h3M9 20h1M9 21h3M10 22h6M12 23h4" />
<path stroke="#ffffc5" d="M11 14h10M11 16h10M12 17h8M13 18h6M20 19h3M18 20h4M16 21h4" />
<path stroke="#9c9c9c" d="M8 17h2M8 18h3M9 19h4M11 20h5M13 21h3" />
</svg>