<svg xmlns="http://www.w3.org/2000/svg" viewBox="0 -0.5 32 32" shape-rendering="crispEdges">
<metadata>Made with Pixels to Svg https://codepen.io/shshaw/pen/XbxvNj</metadata>
<path stroke="#202020" d="M12 9h8M10 10h2M20 10h2M9 11h1M22 11h1M8 12h1M23 12h1M8 13h1M23 13h1M7 14h1M24 14h1M7 15h1M24 15h1M7 16h1M24 16h1M7 17h1M24 17h1M7 18h1M24 18h1M7 19h1M24 19h1M8 20h1M23 20h1M8 21h1M23 21h1M9 22h1M22 22h1M10 23h2M20 23h2M12 24h8" />
<path stroke="#f0f068" d="M12 10h8M10 11h3M19 11h3M9 12h2M13 12h6M21 12h2M9 13h1M11 13h4M20 13h1M22 13h1M8 14h2M11 14h3M20 14h1M22 14h2M8 15h2M11 15h2M19 15h2M22 15h2" />
<path stroke="#b0a000" d="M13 11h6M11 12h2M19 12h2M10 13h1M21 13h1M10 14h1M21 14h1M10 15h1M21 15h1M8 19h1M23 19h1M9 20h1M22 20h1M9 21h2M21 21h2M10 22h12M12 23h8" />
<path stroke="#a8b010" d="M15 13h5M14 14h1M19 14h1M13 15h1M18 15h1M12 16h1M17 16h1M12 17h5" />
<path stroke="#c0d800" d="M15 14h4M14 15h4" />
<path stroke="#f8f8d0" d="M8 16h2M11 16h1M18 16h3M22 16h2M8 17h2M11 17h1M17 17h4M22 17h2M8 18h3M13 18h6M21 18h3M9 19h4M19 19h4M10 20h12M12 21h8" />
<path stroke="#d8c010" d="M10 16h1M21 16h1M10 17h1M21 17h1M11 18h2M19 18h2M13 19h6M11 21h1M20 21h1" />
<path stroke="#d0e000" d="M13 16h4" />
</svg>