<svg xmlns="http://www.w3.org/2000/svg" viewBox="0 -0.5 32 32" shape-rendering="crispEdges">
<metadata>Made with Pixels to Svg https://codepen.io/shshaw/pen/XbxvNj</metadata>
<path stroke="#202020" d="M12 9h8M10 10h2M20 10h2M9 11h1M22 11h1M8 12h1M23 12h1M8 13h1M23 13h1M7 14h1M24 14h1M7 15h1M15 15h2M24 15h1M7 16h1M15 16h2M24 16h1M7 17h1M15 17h2M24 17h1M7 18h1M24 18h1M7 19h1M24 19h1M8 20h1M23 20h1M8 21h1M23 21h1M9 22h1M22 22h1M10 23h2M20 23h2M12 24h8" />
<path stroke="#a5a5a5" d="M12 10h8M10 11h3M19 11h2M9 12h2M9 13h1M8 14h2M8 15h2" />
<path stroke="#7b7b7b" d="M13 11h6M11 12h2M19 12h1M10 13h2M10 14h1M10 15h1M10 16h1M10 17h1M8 19h1" />
<path stroke="#848484" d="M21 11h1M20 12h2M20 13h1M8 18h1M10 18h1M9 19h2M9 20h1" />
<path stroke="#7bd6d6" d="M13 12h6M22 12h1M12 13h2M17 13h3M21 13h2M11 14h4M17 14h4M22 14h2M11 15h4M17 15h4M22 15h2M11 16h4M17 16h4M12 17h3M17 17h3M13 18h6" />
<path stroke="#525252" d="M14 13h3M15 14h2M9 21h1" />
<path stroke="#31a5ad" d="M21 14h1M21 15h1M21 16h1M21 17h1M11 18h2M19 18h2M13 19h6" />
<path stroke="#b5b5b5" d="M8 16h2M8 17h2M9 18h1" />
<path stroke="#c5efff" d="M22 16h2M22 17h2M21 18h2M11 19h2M19 19h4M10 20h12M12 21h8" />
<path stroke="#4ab5ce" d="M11 17h1M20 17h1M23 18h1" />
<path stroke="#109484" d="M23 19h1M22 20h1M10 21h2M20 21h3M10 22h12M12 23h8" />
</svg>