<svg xmlns="http://www.w3.org/2000/svg" viewBox="0 -0.5 32 32" shape-rendering="crispEdges">
<metadata>Made with Pixels to Svg https://codepen.io/shshaw/pen/XbxvNj</metadata>
<path stroke="#ffffff" d="M13 8h6M11 9h3M18 9h3M10 10h2M20 10h2M9 11h2M21 11h2M9 12h1M13 12h2M22 12h1M8 13h2M13 13h2M22 13h2M8 14h1M23 14h1M8 15h1M23 15h1M8 16h1M23 16h1M8 17h1M23 17h1M8 18h2M22 18h2M9 19h1M22 19h1M9 20h2M21 20h2M10 21h2M20 21h2M11 22h3M18 22h3M13 23h6" />
<path stroke="#202020" d="M14 9h4M12 10h2M18 10h2M11 11h1M20 11h1M10 12h1M21 12h1M10 13h1M21 13h1M9 14h1M22 14h1M9 15h1M22 15h1M9 16h1M22 16h1M9 17h1M22 17h1M10 18h1M21 18h1M10 19h1M21 19h1M11 20h1M20 20h1M12 21h2M18 21h2M14 22h4" />
<path stroke="#a4ac94" d="M14 10h1M12 11h1" />
<path stroke="#9cc5de" d="M15 10h1M17 10h1" />
<path stroke="#cdcdcd" d="M16 10h1M15 11h2M16 12h2M16 13h3M16 14h4M17 15h4M18 16h3M18 17h3M19 18h1M17 20h1M16 21h1" />
<path stroke="#eecdac" d="M13 11h1M12 12h1M12 13h1M13 14h2" />
<path stroke="#eeeeee" d="M14 11h1M15 12h1M15 13h1" />
<path stroke="#a4c5d5" d="M17 11h1M18 12h1M19 13h1" />
<path stroke="#83bdd5" d="M18 11h2M11 12h1M19 12h2M11 13h1M20 13h1M10 14h2M20 14h2M10 15h2M21 15h1M10 16h2M21 16h1M11 17h2M11 18h3M20 18h1M12 19h3M14 20h2" />
<path stroke="#de9c52" d="M12 14h1M15 14h1M12 15h4M13 16h4M14 17h4M15 18h3M16 19h2M16 20h1" />
<path stroke="#debd8b" d="M16 15h1M17 16h1" />
<path stroke="#a4a494" d="M12 16h1M14 18h1" />
<path stroke="#d5deee" d="M10 17h1M21 17h1M11 19h1M20 19h1M12 20h2M19 20h1M14 21h2" />
<path stroke="#b4a483" d="M13 17h1M15 19h1" />
<path stroke="#b4b4bd" d="M18 18h1M18 19h2M18 20h1M17 21h1" />
</svg>