<svg xmlns="http://www.w3.org/2000/svg" viewBox="0 -0.5 32 32" shape-rendering="crispEdges">
<metadata>Made with Pixels to Svg https://codepen.io/shshaw/pen/XbxvNj</metadata>
<path stroke="#ffffff" d="M0 0h32M0 1h32M0 2h32M0 3h32M0 4h32M0 5h32M0 6h32M0 7h32M0 8h32M0 9h11M18 9h14M0 10h9M20 10h12M0 11h8M10 11h2M21 11h11M0 12h7M10 12h2M22 12h10M0 13h6M23 13h9M0 14h6M8 14h1M23 14h9M0 15h5M24 15h8M0 16h5M19 16h1M24 16h8M0 17h5M20 17h1M24 17h8M0 18h5M21 18h2M24 18h8M0 19h5M24 19h8M0 20h5M6 20h1M24 20h8M0 21h5M6 21h3M24 21h8M0 22h6M7 22h5M24 22h8M0 23h6M7 23h9M23 23h9M0 24h7M8 24h7M22 24h10M0 25h8M9 25h4M21 25h11M0 26h9M20 26h12M0 27h11M18 27h14M0 28h32M0 29h32M0 30h32M0 31h32" />
<path stroke="#d6a500" d="M11 9h1M17 9h1M9 10h1M12 10h6M19 10h1M13 11h7M8 12h1M13 12h8M7 13h1M9 13h1M12 13h7M20 13h2M10 14h9M5 15h3M9 15h9M19 15h1M22 15h2M6 16h12M20 16h1M6 17h12M7 18h10M8 19h8M8 20h1M10 20h3M14 20h1M16 20h1M5 21h1M10 21h1M13 21h1M15 21h1M13 22h1M23 22h1M6 23h1M20 23h1M22 23h1M19 24h3M18 25h2M9 26h1M11 26h1M15 26h3M19 26h1M11 27h1M17 27h1" />
<path stroke="#191010" d="M12 9h5M10 10h1M18 10h1M8 11h1M20 11h1M7 12h1M21 12h1M6 13h1M19 13h1M22 13h1M6 14h1M19 14h1M21 14h2M18 15h1M20 15h1M5 16h1M18 16h1M21 16h3M5 17h1M18 17h1M22 17h2M5 18h2M17 18h3M23 18h1M5 19h1M7 19h1M16 19h8M5 20h1M9 20h1M13 20h1M15 20h1M17 20h7M11 21h2M14 21h1M16 21h8M6 22h1M14 22h9M21 23h1M7 24h1M8 25h1M20 25h1M10 26h1M18 26h1M12 27h5" />
<path stroke="#ffe673" d="M11 10h1M9 11h1M12 11h1M9 12h1M12 12h1M8 13h1M10 13h2M7 14h1M9 14h1M20 14h1M8 15h1M21 15h1M19 17h1M21 17h1M20 18h1M6 19h1M7 20h1M9 21h1M12 22h1M16 23h4M15 24h4M13 25h5M12 26h3" />
</svg>