<svg xmlns="http://www.w3.org/2000/svg" viewBox="0 -0.5 32 32" shape-rendering="crispEdges">
<metadata>Made with Pixels to Svg https://codepen.io/shshaw/pen/XbxvNj</metadata>
<path stroke="#ffffff" d="M0 0h32M0 1h12M17 1h15M0 2h10M19 2h13M0 3h8M21 3h11M0 4h7M22 4h10M0 5h6M7 5h2M23 5h9M0 6h5M7 6h1M21 6h1M24 6h8M0 7h5M19 7h1M24 7h8M0 8h4M6 8h1M20 8h1M25 8h7M0 9h4M6 9h1M26 9h6M0 10h4M20 10h2M26 10h6M0 11h3M26 11h6M0 12h3M25 12h7M0 13h3M23 13h9M0 14h3M17 14h2M23 14h9M0 15h3M17 15h1M24 15h8M0 16h2M25 16h7M0 17h1M3 17h2M26 17h6M0 18h1M3 18h2M26 18h6M26 19h6M27 20h5M27 21h5M22 22h1M27 22h5M27 23h5M26 24h6M26 25h6M0 26h1M2 26h1M26 26h6M0 27h1M2 27h1M25 27h7M0 28h32M0 29h32M0 30h32M0 31h32" />
<path stroke="#191010" d="M12 1h5M10 2h2M17 2h2M8 3h2M19 3h2M7 4h1M21 4h1M6 5h1M22 5h1M5 6h1M20 6h1M23 6h1M5 7h1M20 7h2M23 7h1M4 8h1M21 8h1M24 8h1M4 9h1M25 9h1M4 10h1M25 10h1M3 11h1M25 11h1M3 12h1M17 12h4M23 12h2M3 13h1M16 13h1M21 13h2M3 14h1M15 14h1M22 14h1M3 15h5M15 15h1M22 15h2M2 16h2M8 16h2M15 16h1M22 16h1M24 16h1M1 17h1M10 17h1M20 17h3M25 17h1M1 18h1M10 18h1M21 18h3M25 18h1M0 19h1M11 19h2M21 19h1M23 19h1M25 19h1M0 20h1M11 20h1M13 20h1M21 20h3M26 20h1M0 21h1M8 21h1M12 21h1M21 21h3M26 21h1M0 22h1M9 22h1M12 22h2M21 22h1M23 22h1M26 22h1M0 23h1M9 23h1M12 23h1M14 23h1M18 23h3M23 23h1M26 23h1M0 24h1M9 24h1M12 24h2M15 24h1M23 24h1M25 24h1M0 25h1M10 25h1M13 25h2M16 25h1M23 25h1M25 25h1M1 26h1M10 26h1M13 26h1M15 26h1M17 26h1M22 26h2M25 26h1M1 27h1M10 27h1M13 27h5M22 27h3" />
<path stroke="#f7b5c5" d="M12 2h5M10 3h1M14 3h5M8 4h2M17 4h4M9 5h1M15 5h2M19 5h2M6 6h1M8 6h1M13 6h6M6 7h2M12 7h7M5 8h1M12 8h8M5 9h1M11 9h9M5 10h1M11 10h8M22 10h3M5 11h1M11 11h12M4 12h1M10 12h1M12 12h5M5 13h1M11 13h5M17 13h2M4 14h1M10 14h1M12 14h3M16 14h1M19 14h1M11 15h1M13 15h2M16 15h1M18 15h2M4 16h1M12 16h1M14 16h1M16 16h3M2 17h1M5 17h1M13 17h1M15 17h5M2 18h1M5 18h1M15 18h5M1 19h1M3 19h2M10 19h1M16 19h4M22 19h1M1 20h2M10 20h1M17 20h2M1 21h1M3 21h1M5 21h1M11 21h1M1 22h2M4 22h1M11 22h1M1 23h3M5 23h1M11 23h1M21 23h2M1 24h4M6 24h1M18 24h1M20 24h1M22 24h1M1 25h5M17 25h1M19 25h1M21 25h1M3 26h2M6 26h1M3 27h1M5 27h1" />
<path stroke="#e67bad" d="M11 3h3M10 4h7M10 5h5M17 5h2M21 5h1M9 6h4M19 6h1M22 6h1M8 7h4M22 7h1M7 8h5M22 8h2M7 9h4M20 9h5M6 10h5M19 10h1M4 11h1M6 11h5M23 11h2M5 12h5M11 12h1M21 12h2M4 13h1M6 13h5M19 13h2M5 14h5M11 14h1M20 14h2M8 15h3M12 15h1M20 15h2M5 16h3M10 16h2M13 16h1M19 16h3M23 16h1M6 17h4M11 17h2M14 17h1M23 17h2M6 18h4M11 18h4M20 18h1M24 18h1M2 19h1M5 19h5M13 19h3M20 19h1M24 19h1M3 20h7M12 20h1M14 20h3M19 20h2M24 20h2M2 21h1M4 21h1M6 21h2M9 21h2M13 21h8M24 21h2M3 22h1M5 22h4M10 22h1M14 22h7M24 22h2M4 23h1M6 23h3M10 23h1M13 23h1M15 23h3M24 23h2M5 24h1M7 24h2M10 24h2M14 24h1M16 24h2M19 24h1M21 24h1M24 24h1M6 25h4M11 25h2M15 25h1M18 25h1M20 25h1M22 25h1M24 25h1M5 26h1M7 26h3M11 26h2M14 26h1M16 26h1M18 26h4M24 26h1M4 27h1M6 27h4M11 27h2M18 27h4" />
</svg>