<svg xmlns="http://www.w3.org/2000/svg" viewBox="0 -0.5 32 32" shape-rendering="crispEdges">
<metadata>Made with Pixels to Svg https://codepen.io/shshaw/pen/XbxvNj</metadata>
<path stroke="#ffffff" d="M0 0h32M0 1h32M0 2h32M0 3h6M7 3h25M0 4h6M8 4h15M24 4h8M0 5h7M9 5h13M24 5h8M0 6h7M10 6h11M22 6h1M24 6h8M0 7h8M11 7h9M21 7h1M23 7h9M0 8h8M10 8h1M12 8h7M20 8h2M23 8h9M0 9h9M11 9h1M13 9h5M19 9h2M22 9h10M0 10h9M11 10h2M14 10h3M18 10h2M22 10h10M0 11h1M6 11h4M11 11h2M15 11h1M17 11h3M21 11h11M0 12h1M2 12h4M9 12h1M12 12h1M16 12h3M21 12h11M0 13h2M4 13h5M12 13h2M16 13h2M20 13h12M0 14h4M6 14h5M12 14h5M22 14h10M0 15h6M8 15h8M28 15h4M0 16h8M10 16h8M27 16h5M0 17h7M10 17h7M25 17h7M0 18h5M11 18h5M23 18h9M0 19h4M11 19h4M23 19h9M0 20h3M11 20h3M20 20h2M24 20h8M0 21h2M7 21h3M11 21h2M21 21h3M25 21h7M0 22h9M11 22h1M23 22h2M26 22h6M0 23h8M10 23h1M22 23h1M25 23h1M27 23h5M0 24h6M8 24h2M16 24h2M22 24h3M27 24h5M0 25h4M6 25h4M15 25h4M22 25h10M0 26h2M4 26h5M15 26h5M22 26h10M2 27h7M15 27h6M22 27h10M0 28h32M0 29h32M0 30h32M0 31h32" />
<path stroke="#191010" d="M6 3h1M7 4h1M23 4h1M7 5h2M22 5h2M9 6h1M21 6h1M8 7h1M10 7h1M20 7h1M11 8h1M19 8h1M22 8h1M9 9h1M12 9h1M18 9h1M13 10h1M17 10h1M21 10h1M2 11h3M10 11h1M16 11h1M7 12h1M20 12h1M3 13h1M10 13h1M5 14h1M19 14h2M7 15h1M23 15h4M8 16h1M26 16h1M7 17h1M24 17h1M6 18h1M22 18h1M4 19h1M20 19h3M3 20h1M8 20h2M19 20h1M23 20h1M4 21h2M10 21h1M16 21h1M20 21h1M9 22h1M17 22h1M21 22h2M8 23h1M16 23h2M23 23h2M6 24h1M15 24h1M18 24h1M21 24h1M25 24h2M4 25h1M19 25h1M21 25h1M2 26h1M14 26h1M20 26h2M0 27h1" />
<path stroke="#d6a500" d="M6 4h1M7 6h1M23 6h1M22 7h1M8 8h2M9 10h2M1 11h1M5 11h1M14 11h1M20 11h1M1 12h1M6 12h1M8 12h1M10 12h1M15 12h1M2 13h1M9 13h1M11 13h1M19 13h1M4 14h1M11 14h1M18 14h1M21 14h1M6 15h1M17 15h1M22 15h1M27 15h1M9 16h1M25 16h1M23 17h1M5 18h1M18 18h1M21 18h1M8 19h3M19 19h1M4 20h4M10 20h1M16 20h1M22 20h1M2 21h2M6 21h1M24 21h1M15 22h2M18 22h1M25 22h1M9 23h1M14 23h2M18 23h2M21 23h1M26 23h1M7 24h1M14 24h1M19 24h2M5 25h1M13 25h2M20 25h1M3 26h1M13 26h1M1 27h1M13 27h2M21 27h1" />
<path stroke="#ffe673" d="M8 6h1M9 7h1M10 9h1M21 9h1M20 10h1M13 11h1M11 12h1M13 12h2M19 12h1M14 13h2M18 13h1M17 14h1M16 15h1M18 15h4M18 16h7M8 17h2M17 17h6M7 18h4M16 18h2M19 18h2M5 19h3M15 19h4M14 20h2M17 20h2M13 21h3M17 21h3M10 22h1M12 22h3M19 22h2M11 23h3M20 23h1M10 24h4M10 25h3M9 26h4M9 27h4" />
</svg>