<svg xmlns="http://www.w3.org/2000/svg" viewBox="0 -0.5 32 32" shape-rendering="crispEdges">
<metadata>Made with Pixels to Svg https://codepen.io/shshaw/pen/XbxvNj</metadata>
<path stroke="#ffffff" d="M0 0h32M0 1h32M0 2h32M0 3h32M0 4h32M0 5h32M0 6h32M0 7h32M0 8h32M0 9h32M0 10h32M0 11h12M15 11h17M0 12h11M16 12h2M21 12h11M0 13h10M22 13h10M0 14h10M12 14h3M20 14h1M23 14h9M0 15h9M11 15h2M23 15h9M0 16h4M7 16h1M22 16h10M0 17h3M22 17h10M0 18h2M3 18h2M14 18h2M22 18h10M0 19h2M3 19h2M14 19h2M24 19h8M0 20h2M9 20h1M23 20h1M25 20h7M0 21h2M8 21h1M23 21h1M25 21h7M0 22h3M26 22h6M0 23h4M8 23h1M26 23h6M0 24h4M27 24h5M0 25h3M8 25h1M27 25h5M0 26h3M8 26h1M15 26h1M27 26h5M0 27h4M6 27h1M9 27h1M14 27h1M19 27h1M21 27h2M27 27h5M0 28h32M0 29h32M0 30h32M0 31h32" />
<path stroke="#191010" d="M12 11h3M11 12h1M15 12h1M18 12h3M10 13h1M13 13h5M21 13h1M10 14h2M18 14h2M22 14h1M9 15h1M19 15h2M22 15h1M4 16h3M8 16h1M15 16h7M3 17h1M7 17h2M14 17h1M20 17h2M2 18h1M8 18h1M13 18h1M21 18h1M2 19h1M9 19h4M22 19h2M2 20h1M8 20h1M12 20h1M22 20h1M24 20h1M2 21h1M7 21h1M12 21h1M22 21h1M24 21h1M3 22h1M7 22h6M22 22h1M25 22h1M4 23h3M12 23h1M21 23h2M25 23h1M4 24h1M6 24h1M8 24h3M13 24h1M20 24h4M26 24h1M3 25h1M6 25h2M11 25h1M14 25h10M26 25h1M3 26h1M5 26h2M12 26h1M14 26h1M16 26h1M19 26h6M26 26h1M4 27h1M7 27h1M13 27h1M15 27h1M18 27h1M20 27h1M23 27h2M26 27h1" />
<path stroke="#ffa552" d="M12 12h3M11 13h1M18 13h3M15 14h2M21 14h1M13 15h3M21 15h1M10 16h4M4 17h1M15 17h4M7 18h1M16 18h1M19 18h1M5 19h3M13 19h1M16 19h1M19 19h2M4 20h3M10 20h1M13 20h8M3 21h3M9 21h1M13 21h2M17 21h2M13 22h2M17 22h2M23 22h2M9 23h2M14 23h6M23 23h2M7 24h1M24 24h1M4 25h1M9 25h2M4 26h1M7 26h1M9 26h3M5 27h1M8 27h1M10 27h1M16 27h1" />
<path stroke="#d65231" d="M12 13h1M17 14h1M10 15h1M16 15h3M9 16h1M14 16h1M5 17h2M9 17h5M19 17h1M5 18h2M9 18h4M17 18h2M20 18h1M8 19h1M17 19h2M21 19h1M3 20h1M7 20h1M11 20h1M21 20h1M6 21h1M10 21h2M15 21h2M19 21h3M4 22h3M15 22h2M19 22h3M7 23h1M11 23h1M13 23h1M20 23h1M5 24h1M11 24h2M14 24h6M25 24h1M5 25h1M12 25h2M24 25h2M13 26h1M17 26h2M25 26h1M11 27h2M17 27h1M25 27h1" />
</svg>