<svg xmlns="http://www.w3.org/2000/svg" viewBox="0 -0.5 32 32" shape-rendering="crispEdges">
<metadata>Made with Pixels to Svg https://codepen.io/shshaw/pen/XbxvNj</metadata>
<path stroke="#ffffff" d="M0 0h32M0 1h32M0 2h32M0 3h19M21 3h11M0 4h7M9 4h6M17 4h1M19 4h1M22 4h10M0 5h6M10 5h3M16 5h1M20 5h1M23 5h9M0 6h5M7 6h5M13 6h1M18 6h2M21 6h2M24 6h8M0 7h5M6 7h5M12 7h1M25 7h7M0 8h8M11 8h1M25 8h7M0 9h7M8 9h3M25 9h7M0 10h6M7 10h3M15 10h2M25 10h7M0 11h5M6 11h3M10 11h1M12 11h6M25 11h7M0 12h5M6 12h4M11 12h2M15 12h2M25 12h7M0 13h5M6 13h6M15 13h1M26 13h6M0 14h5M6 14h5M12 14h2M15 14h1M26 14h6M0 15h4M11 15h2M14 15h2M18 15h1M20 15h2M26 15h6M0 16h4M5 16h8M14 16h3M19 16h4M25 16h7M0 17h3M4 17h8M13 17h3M18 17h4M23 17h1M25 17h7M0 18h11M13 18h3M17 18h5M25 18h7M0 19h11M12 19h1M14 19h1M17 19h5M23 19h1M25 19h7M0 20h10M13 20h1M15 20h1M17 20h5M25 20h7M0 21h9M12 21h1M14 21h1M16 21h8M25 21h7M0 22h9M13 22h1M16 22h8M25 22h7M0 23h9M15 23h10M26 23h6M0 24h8M13 24h4M19 24h5M26 24h6M0 25h8M11 25h6M22 25h1M26 25h6M0 26h7M9 26h1M11 26h5M19 26h3M25 26h7M0 27h7M8 27h1M10 27h6M19 27h13M0 28h6M7 28h1M10 28h4M19 28h13M0 29h32M0 30h32M0 31h32" />
<path stroke="#191010" d="M19 3h2M21 4h1M14 5h1M18 5h1M22 5h1M12 6h1M20 6h1M23 6h1M24 7h1M8 8h3M7 9h1M24 9h1M6 10h1M24 10h1M22 11h1M24 11h1M5 12h1M21 12h1M23 12h1M5 13h1M12 13h1M14 13h1M20 13h1M23 13h1M25 13h1M11 14h1M20 14h1M23 14h1M25 14h1M7 15h4M19 15h1M25 15h1M18 16h1M12 17h1M17 17h1M24 17h1M11 18h1M22 18h1M24 18h1M16 19h1M22 19h1M10 20h1M23 20h2M24 21h1M9 22h1M13 23h1M25 24h1M8 25h1M10 25h1M20 25h1M7 26h1M18 26h1M23 26h1M9 27h1M18 27h1M6 28h1M18 28h1" />
<path stroke="#ffa552" d="M7 4h2M20 4h1M7 5h3M15 5h1M21 5h1M5 6h1M14 6h4M5 7h1M13 7h3M17 7h1M19 7h5M12 8h5M18 8h1M20 8h1M22 8h2M11 9h7M19 9h1M21 9h1M23 9h1M10 10h5M17 10h2M20 10h1M22 10h1M9 11h1M11 11h1M18 11h4M10 12h1M17 12h4M13 13h1M16 13h4M21 13h1M16 14h4M21 14h1M16 15h2M22 15h1M17 16h1M23 16h1M16 17h1M12 18h1M13 19h1M15 19h1M11 20h2M14 20h1M10 21h2M13 21h1M15 21h1M10 22h3M14 22h1M10 23h2M9 24h2M12 24h1M17 24h2M24 24h1M17 25h1M23 25h2M16 26h2M16 27h2M9 28h1M14 28h4" />
<path stroke="#d65231" d="M15 4h2M18 4h1M6 5h1M13 5h1M17 5h1M19 5h1M6 6h1M11 7h1M16 7h1M18 7h1M17 8h1M19 8h1M21 8h1M24 8h1M18 9h1M20 9h1M22 9h1M19 10h1M21 10h1M23 10h1M5 11h1M23 11h1M13 12h2M22 12h1M24 12h1M22 13h1M24 13h1M5 14h1M14 14h1M22 14h1M24 14h1M4 15h3M13 15h1M23 15h2M4 16h1M13 16h1M24 16h1M3 17h1M22 17h1M16 18h1M23 18h1M11 19h1M24 19h1M16 20h1M22 20h1M9 21h1M15 22h1M24 22h1M9 23h1M12 23h1M14 23h1M25 23h1M8 24h1M11 24h1M9 25h1M18 25h2M21 25h1M25 25h1M8 26h1M10 26h1M22 26h1M24 26h1M7 27h1M8 28h1" />
</svg>