<svg xmlns="http://www.w3.org/2000/svg" viewBox="0 -0.5 32 32" shape-rendering="crispEdges">
<metadata>Made with Pixels to Svg https://codepen.io/shshaw/pen/XbxvNj</metadata>
<path stroke="#ffffff" d="M0 0h32M0 1h32M0 2h32M0 3h32M0 4h32M0 5h32M0 6h32M0 7h9M12 7h2M20 7h3M27 7h5M0 8h8M9 8h3M14 8h6M23 8h3M28 8h4M0 9h8M9 9h1M12 9h6M28 9h4M0 10h9M11 10h5M27 10h5M0 11h9M10 11h2M27 11h5M0 12h9M10 12h1M26 12h6M0 13h8M10 13h1M27 13h5M0 14h3M5 14h3M11 14h4M25 14h1M27 14h5M0 15h2M3 15h2M6 15h1M9 15h5M27 15h5M0 16h1M2 16h4M8 16h4M24 16h2M27 16h5M0 17h1M2 17h2M5 17h1M7 17h3M28 17h4M0 18h1M2 18h1M5 18h1M10 18h5M22 18h2M28 18h4M0 19h1M3 19h2M9 19h1M22 19h2M28 19h4M0 20h1M2 20h2M5 20h1M19 20h3M27 20h5M0 21h1M2 21h1M12 21h3M18 21h6M25 21h1M27 21h5M0 22h1M2 22h1M5 22h1M11 22h1M15 22h3M20 22h1M24 22h1M26 22h6M0 23h1M3 23h2M10 23h1M24 23h1M26 23h6M0 24h1M2 24h2M9 24h1M25 24h1M27 24h5M0 25h1M2 25h1M9 25h1M27 25h5M1 26h1M8 26h1M26 26h1M28 26h4M26 27h1M28 27h4M0 28h32M0 29h32M0 30h32M0 31h32" />
<path stroke="#191010" d="M9 7h3M14 7h6M23 7h4M8 8h1M12 8h2M20 8h3M27 8h1M8 9h1M11 9h1M23 9h1M27 9h1M9 10h1M25 10h2M9 11h1M25 11h2M9 12h1M25 12h1M8 13h1M11 13h4M25 13h2M3 14h2M8 14h3M15 14h3M26 14h1M2 15h1M5 15h1M7 15h2M17 15h3M24 15h3M6 16h2M19 16h3M23 16h1M26 16h1M1 17h1M6 17h1M10 17h7M21 17h2M27 17h1M1 18h1M3 18h2M6 18h4M17 18h3M21 18h1M25 18h1M27 18h1M1 19h1M6 19h1M8 19h1M18 19h4M26 19h2M1 20h1M7 20h8M17 20h2M22 20h2M26 20h1M1 21h1M5 21h3M10 21h2M15 21h3M24 21h1M26 21h1M1 22h1M3 22h2M9 22h2M18 22h2M25 22h1M1 23h2M8 23h2M20 23h2M25 23h1M1 24h1M7 24h2M22 24h1M26 24h1M1 25h1M7 25h2M23 25h1M25 25h2M0 26h1M6 26h2M23 26h1M25 26h1M27 26h1M0 27h1M5 27h3M24 27h2M27 27h1" />
<path stroke="#adceef" d="M26 8h1M10 9h1M18 9h5M24 9h1M10 10h1M16 10h8M12 11h11M11 12h12M9 13h1M15 13h6M14 15h3M12 16h7M4 17h1M18 17h3M25 17h2M20 18h1M24 18h1M26 18h1M7 19h1M10 19h7M24 19h2M4 20h1M24 20h2M3 21h2M8 21h1M6 22h2M12 22h3M21 22h3M5 23h2M11 23h8M23 23h1M4 24h3M10 24h8M3 25h3M10 25h7M2 26h3M9 26h6M1 27h1M8 27h4" />
<path stroke="#739cce" d="M25 9h2M24 10h1M23 11h2M23 12h2M21 13h4M18 14h7M20 15h4M1 16h1M22 16h1M17 17h1M23 17h2M15 18h2M2 19h1M5 19h1M17 19h1M6 20h1M15 20h2M9 21h1M8 22h1M7 23h1M19 23h1M22 23h1M18 24h4M23 24h2M6 25h1M17 25h6M24 25h1M5 26h1M15 26h8M24 26h1M2 27h3M12 27h12" />
</svg>