<svg xmlns="http://www.w3.org/2000/svg" viewBox="0 -0.5 48 48" shape-rendering="crispEdges">
<metadata>Made with Pixels to Svg https://codepen.io/shshaw/pen/XbxvNj</metadata>
<path stroke="#ffffff" d="M0 0h48M0 1h25M26 1h6M36 1h12M0 2h24M27 2h3M32 2h2M36 2h12M0 3h23M24 3h2M27 3h1M30 3h3M35 3h13M0 4h8M12 4h10M23 4h3M28 4h4M35 4h13M0 5h6M9 5h3M17 5h4M22 5h4M27 5h3M34 5h14M0 6h5M11 6h2M23 6h6M34 6h14M0 7h5M11 7h2M25 7h3M34 7h14M0 8h4M10 8h2M18 8h3M35 8h13M0 9h4M10 9h1M17 9h4M35 9h13M0 10h3M17 10h3M34 10h14M0 11h3M33 11h7M43 11h5M0 12h3M44 12h4M0 13h4M43 13h5M0 14h4M41 14h7M0 15h4M41 15h7M0 16h4M13 16h1M40 16h8M0 17h4M30 17h9M40 17h8M0 18h3M14 18h1M30 18h8M39 18h9M0 19h3M14 19h1M29 19h8M38 19h10M0 20h2M14 20h1M30 20h7M38 20h2M43 20h5M0 21h2M5 21h1M14 21h1M28 21h2M33 21h3M37 21h2M42 21h6M0 22h2M5 22h1M14 22h1M29 22h4M39 22h2M42 22h6M0 23h1M5 23h1M14 23h1M32 23h3M38 23h2M41 23h7M0 24h1M2 24h1M4 24h3M14 24h1M33 24h2M37 24h3M41 24h7M0 25h1M2 25h1M4 25h4M14 25h1M37 25h3M41 25h7M0 26h1M2 26h1M4 26h5M15 26h1M37 26h2M40 26h8M0 27h1M2 27h1M4 27h6M15 27h1M37 27h2M40 27h8M0 28h1M2 28h1M4 28h6M37 28h1M39 28h9M0 29h1M2 29h1M4 29h5M16 29h1M37 29h1M39 29h9M0 30h2M3 30h1M5 30h4M12 30h1M16 30h1M37 30h1M39 30h9M0 31h2M5 31h3M9 31h1M11 31h2M17 31h1M36 31h1M38 31h10M0 32h3M5 32h3M9 32h3M13 32h1M17 32h1M25 32h3M36 32h1M38 32h10M0 33h3M6 33h1M8 33h3M12 33h1M14 33h1M19 33h1M26 33h3M36 33h1M38 33h10M0 34h4M6 34h1M8 34h2M11 34h2M14 34h1M21 34h2M26 34h3M36 34h1M38 34h10M0 35h5M6 35h1M10 35h4M15 35h1M18 35h1M24 35h5M35 35h1M37 35h11M0 36h6M7 36h7M15 36h1M17 36h1M19 36h1M21 36h9M37 36h11M0 37h6M7 37h8M16 37h3M20 37h10M33 37h2M37 37h11M0 38h31M34 38h2M37 38h11M0 39h31M34 39h2M37 39h11M0 40h32M35 40h1M37 40h11M0 41h32M35 41h1M37 41h11M0 42h33M36 42h12M0 43h34M36 43h12M0 44h35M36 44h12M0 45h48M0 46h48M0 47h48" />
<path stroke="#313131" d="M25 1h1M33 1h2M24 2h1M30 2h1M35 2h1M23 3h1M26 3h1M29 3h1M9 4h2M22 4h1M34 4h1M6 5h1M14 5h2M26 5h1M5 6h1M8 6h2M13 6h1M18 6h4M33 6h1M7 7h3M13 7h1M19 7h1M23 7h1M33 7h1M6 8h3M17 8h1M30 8h1M34 8h1M4 9h1M6 9h3M12 9h1M21 9h1M27 9h2M5 10h3M11 10h1M16 10h1M21 10h1M28 10h1M33 10h1M3 11h1M6 11h1M16 11h2M28 11h1M32 11h1M41 11h1M10 12h1M20 12h1M26 12h1M28 12h11M8 13h2M17 13h2M25 13h1M41 13h1M4 14h4M9 14h1M29 14h11M4 15h1M9 15h1M14 15h1M22 15h1M26 15h1M40 15h1M4 16h1M12 16h1M21 16h1M24 16h1M39 16h1M10 17h1M15 17h1M23 17h1M3 18h1M10 18h1M13 18h1M15 18h1M38 18h1M5 19h1M13 19h1M15 19h1M22 19h1M5 20h1M11 20h1M13 20h1M15 20h1M23 20h1M37 20h1M41 20h1M2 21h1M9 21h5M15 21h1M22 21h1M26 21h1M40 21h2M4 22h1M6 22h3M12 22h2M15 22h1M21 22h1M26 22h1M36 22h1M38 22h1M6 23h1M13 23h1M15 23h1M18 23h3M25 23h1M37 23h1M1 24h1M7 24h1M13 24h1M16 24h2M20 24h4M30 24h1M35 24h2M40 24h1M1 25h1M3 25h1M8 25h1M13 25h1M16 25h1M20 25h1M29 25h1M33 25h1M1 26h1M3 26h1M9 26h2M16 26h1M20 26h1M34 26h1M39 26h1M1 27h1M3 27h1M10 27h5M17 27h3M28 27h1M1 28h1M3 28h1M14 28h1M17 28h2M27 28h1M32 28h1M15 29h1M18 29h2M25 29h1M38 29h1M2 30h1M9 30h1M15 30h1M17 30h1M19 30h3M23 30h1M30 30h2M4 31h1M16 31h1M18 31h1M21 31h7M31 31h1M3 32h2M8 32h1M12 32h1M20 32h1M23 32h2M31 32h1M37 32h1M4 33h1M11 33h1M13 33h1M22 33h1M25 33h1M31 33h1M37 33h1M4 34h2M7 34h1M10 34h1M13 34h1M17 34h1M20 34h1M24 34h1M29 34h1M5 35h1M8 35h1M22 35h1M14 36h1M16 36h1M18 36h1M20 36h1M32 36h1M36 36h1M6 37h1M15 37h1M19 37h1M30 37h1M36 37h1M33 38h1M36 38h1M31 39h1M36 39h1M36 40h1M32 41h1M34 41h1M33 42h1M34 43h2" />
<path stroke="#d64a31" d="M32 1h1M35 1h1M26 2h1M31 2h1M28 3h1M34 3h1M8 4h1M11 4h1M27 4h1M7 5h1M12 5h2M16 5h1M21 5h1M33 5h1M6 6h1M14 6h2M17 6h1M22 6h1M5 7h1M10 7h1M14 7h1M18 7h1M20 7h1M22 7h1M24 7h1M32 7h1M4 8h1M9 8h1M12 8h1M21 8h1M24 8h4M31 8h1M5 9h1M16 9h1M25 9h2M29 9h1M33 9h2M3 10h1M8 10h1M25 10h3M29 10h2M32 10h1M5 11h1M7 11h1M10 11h1M21 11h1M26 11h2M29 11h3M40 11h1M42 11h1M3 12h1M9 12h1M16 12h1M27 12h1M39 12h5M4 13h1M7 13h1M19 13h1M24 13h1M26 13h1M37 13h4M42 13h1M8 14h1M13 14h1M23 14h1M28 14h1M40 14h1M5 15h4M12 15h1M23 15h1M25 15h1M27 15h1M38 15h2M8 16h2M15 16h1M22 16h2M28 16h11M4 17h1M9 17h1M13 17h1M21 17h2M26 17h2M39 17h1M4 18h2M9 18h1M22 18h1M24 18h2M3 19h2M8 19h3M23 19h5M37 19h1M2 20h3M6 20h5M24 20h1M28 20h2M40 20h1M42 20h1M4 21h1M6 21h3M25 21h1M27 21h1M31 21h2M36 21h1M39 21h1M2 22h1M9 22h3M28 22h1M34 22h2M37 22h1M41 22h1M1 23h1M4 23h1M7 23h6M31 23h1M35 23h2M40 23h1M3 24h1M8 24h5M15 24h1M24 24h1M32 24h1M9 25h4M34 25h2M40 25h1M11 26h3M29 26h1M33 26h1M16 27h1M32 27h1M39 27h1M10 28h1M12 28h2M19 28h1M38 28h1M1 29h1M3 29h1M9 29h1M13 29h2M17 29h1M20 29h2M26 29h1M31 29h1M4 30h1M14 30h1M22 30h1M24 30h1M29 30h1M38 30h1M2 31h1M8 31h1M28 31h3M37 31h1M16 32h1M19 32h1M28 32h3M33 32h1M3 33h1M5 33h1M7 33h1M17 33h2M21 33h1M23 33h1M29 33h2M33 33h1M19 34h1M25 34h1M30 34h2M34 34h1M37 34h1M7 35h1M9 35h1M14 35h1M17 35h1M21 35h1M23 35h1M29 35h4M34 35h1M36 35h1M6 36h1M30 36h2M35 36h1M31 37h2M31 38h1M32 39h1M32 40h1M34 40h1M36 41h1M35 42h1M35 44h1" />
<path stroke="#ffc55a" d="M25 2h1M34 2h1M33 3h1M26 4h1M32 4h2M8 5h1M30 5h3M7 6h1M10 6h1M16 6h1M29 6h4M6 7h1M15 7h3M21 7h1M28 7h4M5 8h1M13 8h4M22 8h2M28 8h2M32 8h2M9 9h1M11 9h1M13 9h3M22 9h3M30 9h3M4 10h1M9 10h2M12 10h4M20 10h1M22 10h3M31 10h1M4 11h1M8 11h2M11 11h5M18 11h3M22 11h4M4 12h5M11 12h5M17 12h3M21 12h5M5 13h2M10 13h7M20 13h4M27 13h10M10 14h3M14 14h9M24 14h4M10 15h2M13 15h1M15 15h7M24 15h1M28 15h10M5 16h3M10 16h2M14 16h1M16 16h5M25 16h3M5 17h4M11 17h2M14 17h1M16 17h5M24 17h2M28 17h2M6 18h3M11 18h2M16 18h6M23 18h1M26 18h4M6 19h2M11 19h2M16 19h6M28 19h1M12 20h1M16 20h7M25 20h3M3 21h1M16 21h6M23 21h2M30 21h1M3 22h1M16 22h5M22 22h4M27 22h1M33 22h1M2 23h2M16 23h2M21 23h4M26 23h5M18 24h2M25 24h5M31 24h1M15 25h1M17 25h3M21 25h8M30 25h3M36 25h1M14 26h1M17 26h3M21 26h8M30 26h3M35 26h2M20 27h8M29 27h3M33 27h4M11 28h1M15 28h2M20 28h7M28 28h4M33 28h4M10 29h3M22 29h3M27 29h4M32 29h5M10 30h2M13 30h1M18 30h1M25 30h4M32 30h5M3 31h1M10 31h1M13 31h3M19 31h2M32 31h4M14 32h2M18 32h1M21 32h2M32 32h1M34 32h2M15 33h2M20 33h1M24 33h1M32 33h1M34 33h2M15 34h2M18 34h1M23 34h1M32 34h2M35 34h1M16 35h1M19 35h2M33 35h1M33 36h2M35 37h1M32 38h1M33 39h1M33 40h1M33 41h1M34 42h1" />
</svg>