<svg xmlns="http://www.w3.org/2000/svg" viewBox="0 -0.5 40 40" shape-rendering="crispEdges">
<metadata>Made with Pixels to Svg https://codepen.io/shshaw/pen/XbxvNj</metadata>
<path stroke="#ffffff" d="M0 0h40M0 1h40M0 2h40M0 3h40M0 4h40M0 5h40M0 6h14M18 6h22M0 7h7M10 7h3M20 7h20M0 8h6M11 8h1M14 8h2M21 8h19M0 9h6M7 9h2M14 9h1M26 9h14M0 10h5M7 10h2M28 10h12M0 11h5M7 11h1M28 11h12M0 12h5M29 12h11M0 13h5M29 13h11M0 14h5M32 14h8M0 15h6M34 15h6M0 16h6M30 16h2M35 16h5M0 17h6M31 17h1M35 17h5M0 18h6M35 18h5M0 19h6M34 19h6M0 20h5M34 20h6M0 21h4M33 21h7M0 22h4M24 22h1M32 22h8M0 23h4M21 23h2M32 23h8M0 24h5M20 24h4M32 24h8M0 25h6M20 25h4M32 25h8M0 26h8M21 26h2M33 26h7M0 27h9M33 27h7M0 28h12M33 28h7M0 29h12M33 29h7M0 30h13M33 30h7M0 31h15M19 31h2M32 31h8M0 32h24M32 32h8M0 33h26M30 33h10M0 34h40M0 35h40M0 36h40M0 37h40M0 38h40M0 39h40" />
<path stroke="#848473" d="M14 6h1M7 7h1M9 7h1M17 7h1M19 7h1M6 8h1M9 8h1M18 8h1M20 8h1M10 9h1M20 9h1M25 9h1M5 10h1M10 10h2M24 10h2M27 10h1M6 11h1M26 11h1M6 12h1M26 12h3M6 13h1M27 13h1M5 14h2M28 14h1M31 14h1M7 15h1M14 15h1M7 16h1M17 16h1M33 16h2M7 17h1M19 17h1M33 17h1M7 18h1M20 18h1M32 18h2M6 19h2M31 19h2M5 20h1M7 20h1M29 20h3M33 20h1M4 21h1M28 21h4M5 22h1M28 22h3M28 23h2M31 23h1M6 24h1M29 24h2M8 25h3M30 25h1M9 26h4M30 26h3M12 27h2M31 27h1M13 28h1M19 28h3M30 28h2M13 29h1M17 29h6M30 29h2M15 30h3M21 30h4M28 30h5M15 31h1M18 31h1M21 31h1M24 31h7M24 32h1M26 32h4M31 32h1M26 33h1M29 33h1" />
<path stroke="#313131" d="M15 6h3M8 7h1M13 7h1M18 7h1M10 8h1M12 8h1M19 8h1M6 9h1M11 9h2M21 9h4M26 10h1M5 11h1M27 11h1M5 12h1M15 12h1M5 13h1M28 13h1M29 14h2M6 15h1M12 15h2M21 15h1M32 15h2M6 16h1M15 16h2M6 17h1M18 17h1M34 17h1M6 18h1M21 18h1M34 18h1M22 19h1M33 19h1M32 20h1M5 21h1M32 21h1M4 22h1M31 22h1M4 23h2M30 23h1M5 24h1M31 24h1M6 25h2M31 25h1M8 26h1M9 27h3M32 27h1M12 28h1M32 28h1M12 29h1M32 29h1M13 30h2M18 30h3M16 31h2M22 31h2M31 31h1M25 32h1M30 32h1M27 33h2" />
<path stroke="#cece94" d="M14 7h3M7 8h2M13 8h1M16 8h2M9 9h1M13 9h1M15 9h5M6 10h1M9 10h1M12 10h12M8 11h18M7 12h8M16 12h10M7 13h20M7 14h21M8 15h4M15 15h6M22 15h10M8 16h7M18 16h12M32 16h1M8 17h10M20 17h11M32 17h1M8 18h12M22 18h10M8 19h14M23 19h8M6 20h1M8 20h21M6 21h22M6 22h18M25 22h3M6 23h15M23 23h5M7 24h13M24 24h5M11 25h9M24 25h6M13 26h8M23 26h7M14 27h17M14 28h5M22 28h8M14 29h3M23 29h7M25 30h3" />
</svg>