<svg xmlns="http://www.w3.org/2000/svg" viewBox="0 -0.5 48 48" shape-rendering="crispEdges">
<metadata>Made with Pixels to Svg https://codepen.io/shshaw/pen/XbxvNj</metadata>
<path stroke="#ffffff" d="M0 0h11M13 0h1M17 0h31M0 1h9M11 1h2M17 1h31M0 2h7M9 2h2M17 2h31M0 3h6M7 3h3M18 3h30M0 4h5M6 4h2M18 4h30M0 5h4M5 5h2M19 5h29M0 6h3M4 6h2M21 6h27M0 7h3M4 7h1M24 7h24M0 8h2M3 8h2M27 8h6M40 8h8M0 9h2M3 9h1M29 9h1M40 9h8M0 10h2M3 10h1M5 10h1M39 10h9M0 11h2M3 11h1M5 11h1M38 11h10M0 12h1M2 12h1M4 12h4M37 12h11M0 13h1M2 13h1M4 13h4M36 13h6M45 13h3M0 14h1M2 14h1M4 14h4M35 14h6M42 14h3M46 14h2M0 15h1M2 15h1M4 15h4M20 15h2M34 15h6M41 15h1M44 15h2M47 15h1M0 16h1M2 16h1M4 16h3M19 16h3M33 16h7M45 16h1M47 16h1M0 17h1M2 17h1M4 17h3M19 17h2M35 17h4M45 17h1M47 17h1M0 18h1M2 18h1M4 18h3M34 18h5M45 18h2M0 19h2M3 19h3M7 19h1M31 19h8M45 19h2M0 20h2M3 20h3M7 20h1M34 20h4M39 20h1M45 20h2M0 21h2M3 21h3M7 21h2M13 21h1M37 21h1M39 21h1M45 21h2M0 22h2M3 22h2M6 22h6M13 22h2M22 22h2M38 22h1M40 22h1M45 22h2M0 23h3M4 23h1M6 23h6M13 23h3M18 23h5M40 23h2M45 23h2M0 24h3M4 24h1M6 24h7M17 24h5M38 24h1M40 24h2M45 24h2M0 25h4M6 25h4M35 25h1M37 25h2M40 25h3M45 25h2M0 26h5M6 26h3M16 26h1M36 26h2M40 26h3M45 26h2M0 27h8M17 27h1M19 27h2M35 27h3M39 27h4M45 27h1M0 28h7M19 28h2M33 28h4M39 28h4M44 28h2M47 28h1M0 29h6M34 29h3M38 29h4M44 29h2M47 29h1M0 30h5M6 30h1M19 30h2M35 30h1M38 30h4M43 30h2M47 30h1M0 31h4M5 31h4M20 31h1M37 31h4M42 31h3M46 31h2M0 32h4M5 32h3M16 32h4M36 32h4M41 32h3M46 32h2M0 33h3M4 33h4M14 33h8M35 33h4M40 33h4M45 33h3M0 34h3M4 34h3M12 34h10M34 34h4M39 34h4M44 34h4M0 35h3M4 35h1M11 35h12M33 35h4M38 35h4M43 35h5M0 36h4M10 36h13M32 36h4M37 36h4M44 36h4M0 37h5M12 37h11M31 37h3M36 37h3M45 37h3M0 38h3M12 38h8M29 38h3M34 38h3M46 38h2M0 39h2M3 39h1M11 39h7M28 39h6M37 39h5M47 39h1M0 40h1M2 40h1M11 40h6M34 40h12M47 40h1M0 41h1M4 41h1M6 41h1M10 41h7M27 41h1M32 41h16M0 42h1M3 42h1M5 42h2M9 42h7M23 42h25M0 43h1M2 43h2M5 43h1M8 43h7M22 43h26M0 44h4M7 44h8M25 44h23M0 45h5M6 45h10M23 45h1M26 45h22M0 46h17M20 46h2M26 46h22M0 47h18M23 47h25" />
<path stroke="#947352" d="M11 0h1M14 0h1M16 0h1M9 1h1M13 1h1M8 2h1M12 2h1M16 2h1M10 3h2M17 3h1M8 4h2M15 4h1M7 5h1M9 5h1M18 5h1M6 6h1M20 6h1M3 7h1M5 7h1M9 7h1M21 7h1M23 7h1M2 8h1M5 8h1M8 8h1M11 8h1M24 8h1M26 8h1M33 8h1M39 8h1M4 9h1M24 9h3M28 9h1M30 9h1M32 9h1M10 10h1M22 10h6M2 11h1M21 11h6M1 12h1M9 12h1M20 12h4M25 12h1M19 13h3M42 13h1M44 13h1M9 14h1M18 14h2M17 15h2M22 15h1M40 15h1M46 15h1M7 16h1M16 16h2M22 16h1M43 16h1M15 17h2M21 17h1M30 17h1M32 17h1M34 17h1M39 17h1M42 17h3M46 17h1M1 18h1M7 18h1M13 18h3M27 18h1M29 18h1M33 18h1M41 18h1M43 18h1M47 18h1M2 19h1M6 19h1M11 19h3M22 19h1M26 19h1M39 19h1M8 20h4M15 20h1M25 20h1M33 20h1M38 20h1M6 21h1M9 21h1M16 21h5M23 21h1M25 21h1M30 21h5M36 21h1M2 22h1M5 22h1M15 22h1M25 22h3M31 22h3M39 22h1M3 23h1M12 23h1M16 23h1M27 23h2M31 23h1M33 23h2M38 23h1M13 24h2M23 24h1M29 24h1M34 24h1M5 25h1M10 25h1M12 25h1M17 25h1M30 25h2M34 25h1M36 25h1M39 25h1M10 26h3M15 26h1M22 26h1M32 26h2M35 26h1M38 26h1M44 26h1M9 27h2M12 27h1M16 27h1M23 27h1M32 27h1M34 27h1M47 27h1M8 28h1M12 28h2M18 28h1M28 28h4M37 28h1M46 28h1M7 29h1M12 29h2M17 29h4M25 29h3M29 29h4M11 30h4M24 30h1M26 30h3M30 30h5M42 30h1M46 30h1M10 31h7M23 31h1M28 31h2M31 31h3M36 31h1M41 31h1M45 31h1M4 32h1M10 32h5M20 32h1M29 32h5M35 32h1M40 32h1M3 33h1M9 33h4M30 33h1M32 33h1M34 33h1M39 33h1M9 34h2M22 34h1M30 34h2M3 35h1M9 35h1M32 35h1M8 36h1M30 36h1M42 36h1M11 37h1M24 37h1M29 37h1M41 37h3M4 38h3M10 38h1M20 38h1M28 38h1M37 38h1M39 38h1M42 38h3M5 39h5M19 39h1M24 39h1M27 39h1M34 39h1M42 39h1M45 39h1M1 40h1M4 40h1M7 40h3M17 40h1M22 40h1M24 40h3M33 40h1M46 40h1M5 41h1M9 41h1M20 41h3M28 41h1M31 41h1M4 42h1M8 42h1M19 42h3M1 43h1M17 43h1M19 43h2M4 44h1M15 44h1M18 44h1M22 45h1M23 46h1M25 46h1M18 47h1M22 47h1" />
<path stroke="#313131" d="M12 0h1M15 0h1M10 1h1M16 1h1M7 2h1M11 2h1M6 3h1M5 4h1M10 4h1M16 4h2M4 5h1M14 5h1M17 5h1M3 6h1M9 6h1M13 6h1M19 6h1M12 7h1M22 7h1M25 8h1M34 8h5M2 9h1M8 9h1M11 9h1M27 9h1M31 9h1M39 9h1M2 10h1M8 10h1M28 10h2M38 10h1M8 11h1M10 11h1M27 11h1M37 11h1M8 12h1M24 12h1M36 12h1M1 13h1M8 13h2M22 13h1M35 13h1M43 13h1M1 14h1M8 14h1M20 14h2M34 14h1M41 14h1M45 14h1M1 15h1M8 15h1M19 15h1M33 15h1M1 16h1M8 16h1M18 16h1M32 16h1M40 16h1M42 16h1M46 16h1M1 17h1M7 17h2M17 17h2M31 17h1M33 17h1M41 17h1M8 18h1M16 18h1M28 18h1M30 18h3M39 18h1M44 18h1M8 19h1M14 19h2M23 19h3M27 19h4M44 19h1M47 19h1M2 20h1M6 20h1M12 20h3M16 20h9M27 20h6M44 20h1M47 20h1M2 21h1M10 21h3M15 21h1M24 21h1M29 21h1M35 21h1M38 21h1M44 21h1M47 21h1M12 22h1M24 22h1M30 22h1M37 22h1M44 22h1M47 22h1M5 23h1M24 23h3M32 23h1M36 23h1M39 23h1M44 23h1M47 23h1M3 24h1M5 24h1M16 24h1M24 24h5M33 24h1M35 24h1M37 24h1M39 24h1M44 24h1M47 24h1M4 25h1M11 25h1M13 25h4M22 25h8M44 25h1M47 25h1M5 26h1M9 26h1M13 26h2M18 26h4M23 26h9M34 26h1M47 26h1M8 27h1M13 27h3M18 27h1M24 27h8M33 27h1M38 27h1M43 27h1M7 28h1M14 28h3M23 28h5M32 28h1M43 28h1M6 29h1M14 29h3M21 29h4M28 29h1M33 29h1M37 29h1M42 29h1M46 29h1M5 30h1M15 30h3M22 30h2M29 30h1M36 30h1M4 31h1M17 31h2M22 31h1M30 31h1M34 31h2M15 32h1M21 32h2M34 32h1M45 32h1M13 33h1M22 33h1M31 33h1M44 33h1M3 34h1M11 34h1M33 34h1M43 34h1M10 35h1M23 35h1M31 35h1M42 35h1M4 36h1M9 36h1M23 36h1M41 36h1M43 36h1M5 37h6M23 37h1M39 37h2M44 37h1M3 38h1M7 38h3M21 38h4M38 38h1M40 38h2M45 38h1M2 39h1M4 39h1M10 39h1M18 39h1M23 39h1M25 39h1M35 39h2M43 39h2M46 39h1M5 40h2M10 40h1M23 40h1M27 40h6M1 41h1M3 41h1M7 41h2M17 41h1M23 41h4M29 41h2M1 42h2M16 42h2M22 42h1M4 43h1M7 43h1M15 43h1M21 43h1M6 44h1M19 44h6M5 45h1M16 45h1M20 45h2M25 45h1M17 46h1M19 46h1M24 46h1M19 47h3" />
<path stroke="#d6bd94" d="M14 1h2M13 2h3M12 3h5M11 4h4M8 5h1M10 5h4M15 5h2M7 6h2M10 6h3M14 6h5M6 7h3M10 7h2M13 7h8M6 8h2M9 8h2M12 8h12M5 9h3M9 9h2M12 9h12M33 9h6M4 10h1M6 10h2M9 10h1M11 10h11M30 10h8M4 11h1M6 11h2M9 11h1M11 11h10M28 11h9M3 12h1M10 12h10M26 12h10M3 13h1M10 13h9M23 13h12M3 14h1M10 14h8M22 14h12M3 15h1M9 15h8M23 15h10M42 15h2M3 16h1M9 16h7M23 16h9M41 16h1M44 16h1M3 17h1M9 17h6M22 17h8M40 17h1M3 18h1M9 18h4M17 18h10M40 18h1M42 18h1M9 19h2M16 19h6M40 19h4M26 20h1M40 20h4M14 21h1M21 21h2M26 21h3M40 21h4M16 22h6M28 22h2M34 22h3M41 22h3M17 23h1M23 23h1M29 23h2M35 23h1M37 23h1M42 23h2M15 24h1M22 24h1M30 24h3M36 24h1M42 24h2M18 25h4M32 25h2M43 25h1M17 26h1M39 26h1M43 26h1M11 27h1M21 27h2M44 27h1M46 27h1M9 28h3M17 28h1M21 28h2M38 28h1M8 29h4M43 29h1M7 30h4M18 30h1M21 30h1M25 30h1M37 30h1M45 30h1M9 31h1M19 31h1M21 31h1M24 31h4M8 32h2M23 32h6M44 32h1M8 33h1M23 33h7M33 33h1M7 34h2M23 34h7M32 34h1M38 34h1M5 35h4M24 35h7M37 35h1M5 36h3M24 36h6M31 36h1M36 36h1M25 37h4M30 37h1M34 37h2M11 38h1M25 38h3M32 38h2M20 39h3M26 39h1M3 40h1M18 40h4M2 41h1M18 41h2M7 42h1M18 42h1M6 43h1M16 43h1M18 43h1M5 44h1M16 44h2M17 45h3M24 45h1M18 46h1M22 46h1" />
</svg>