<svg xmlns="http://www.w3.org/2000/svg" viewBox="0 -0.5 56 56" shape-rendering="crispEdges">
<metadata>Made with Pixels to Svg https://codepen.io/shshaw/pen/XbxvNj</metadata>
<path stroke="#ffffff" d="M0 0h56M0 1h56M0 2h28M33 2h23M0 3h24M37 3h19M0 4h20M24 4h3M41 4h15M0 5h17M21 5h4M36 5h4M44 5h12M0 6h15M18 6h5M40 6h3M46 6h10M0 7h14M17 7h4M43 7h2M47 7h9M0 8h13M48 8h8M0 9h13M48 9h8M0 10h12M24 10h1M35 10h1M49 10h7M0 11h11M24 11h1M35 11h1M50 11h6M0 12h10M51 12h5M0 13h10M51 13h5M0 14h9M52 14h4M0 15h9M52 15h4M0 16h8M53 16h3M0 17h8M53 17h3M0 18h8M53 18h3M0 19h8M53 19h3M0 20h8M53 20h3M0 21h8M53 21h3M0 22h9M52 22h4M0 23h9M52 23h4M0 24h10M51 24h5M0 25h11M50 25h6M0 26h12M49 26h7M0 27h13M48 27h8M0 28h15M46 28h10M0 29h5M7 29h10M44 29h12M0 30h4M8 30h11M42 30h14M0 31h5M9 31h11M41 31h15M0 32h5M7 32h1M9 32h13M39 32h17M0 33h5M10 33h13M37 33h19M0 34h5M10 34h13M36 34h20M0 35h5M7 35h1M10 35h13M36 35h20M0 36h4M10 36h13M36 36h20M0 37h4M10 37h13M39 37h17M0 38h3M6 38h1M10 38h13M42 38h14M0 39h3M6 39h1M9 39h14M44 39h12M0 40h2M9 40h13M38 40h1M46 40h10M0 41h2M6 41h1M9 41h12M41 41h1M47 41h9M0 42h2M10 42h9M42 42h2M48 42h8M0 43h2M8 43h1M11 43h6M43 43h2M49 43h7M0 44h3M13 44h3M44 44h1M49 44h7M0 45h3M10 45h1M35 45h1M44 45h2M50 45h6M0 46h4M11 46h2M36 46h1M45 46h1M50 46h6M0 47h5M41 47h2M50 47h6M0 48h6M39 48h4M50 48h6M0 49h7M40 49h2M49 49h7M0 50h8M48 50h8M0 51h10M23 51h2M47 51h9M0 52h13M19 52h7M46 52h10M0 53h28M44 53h12M0 54h32M42 54h14M0 55h56" />
<path stroke="#b57bbd" d="M28 2h1M32 2h1M24 3h1M27 3h1M33 3h1M36 3h1M20 4h1M23 4h1M37 4h1M40 4h1M17 5h1M19 5h1M27 5h1M33 5h1M41 5h1M43 5h1M16 6h1M24 6h1M26 6h1M34 6h1M36 6h1M45 6h1M14 7h1M23 7h1M37 7h1M47 8h1M13 9h1M41 10h2M16 11h2M22 11h1M26 11h1M33 11h1M38 11h1M40 11h1M43 11h2M15 12h5M21 12h1M39 12h1M41 12h5M50 12h1M10 13h1M14 13h7M25 13h1M34 13h1M40 13h7M9 14h1M13 14h8M23 14h1M37 14h2M40 14h8M51 14h1M12 15h10M37 15h1M39 15h10M8 16h1M11 16h4M17 16h6M36 16h1M38 16h6M46 16h4M52 16h1M11 17h5M18 17h5M26 17h1M34 17h3M38 17h5M45 17h5M11 18h5M20 18h4M34 18h2M37 18h4M45 18h5M12 19h4M18 19h1M22 19h2M26 19h1M32 19h3M37 19h2M42 19h1M45 19h4M12 20h4M18 20h1M20 20h1M24 20h1M36 20h1M40 20h1M42 20h1M45 20h4M8 21h1M13 21h3M18 21h2M21 21h2M25 21h1M35 21h1M38 21h2M41 21h2M45 21h3M52 21h1M13 22h4M19 22h1M22 22h2M26 22h1M34 22h1M37 22h2M41 22h1M44 22h4M9 23h1M15 23h2M19 23h2M23 23h1M26 23h3M32 23h3M37 23h1M40 23h2M44 23h2M51 23h1M16 24h2M20 24h4M26 24h9M37 24h4M43 24h2M17 25h2M25 25h11M42 25h2M18 26h4M25 26h3M33 26h3M39 26h4M14 27h1M20 27h8M33 27h9M43 27h3M47 27h1M16 28h1M19 28h1M22 28h5M34 28h5M40 28h4M45 28h1M6 29h1M18 29h3M39 29h3M43 29h1M7 30h1M20 30h3M37 30h4M5 31h1M22 31h3M35 31h4M40 31h1M8 32h1M23 32h4M33 32h4M6 33h1M9 33h1M24 33h5M32 33h4M24 34h5M30 34h5M24 35h4M31 35h4M5 36h2M24 36h4M32 36h3M4 37h1M7 37h1M24 37h3M32 37h3M38 37h1M9 38h1M24 38h2M28 38h2M33 38h1M39 38h1M41 38h1M8 39h1M25 39h1M34 39h3M43 39h1M2 40h1M5 40h1M22 40h3M35 40h1M37 40h1M45 40h1M8 41h1M23 41h1M36 41h3M20 42h1M23 42h1M37 42h2M40 42h1M47 42h1M2 43h1M18 43h1M23 43h1M31 43h1M39 43h3M48 43h1M11 44h1M21 44h1M23 44h1M29 44h1M37 44h1M39 44h4M3 45h1M13 45h1M15 45h1M20 45h4M40 45h4M48 45h2M5 46h1M20 46h5M41 46h1M47 46h2M7 47h1M17 47h2M20 47h3M37 47h1M39 47h1M46 47h3M7 48h2M17 48h3M21 48h2M24 48h2M36 48h1M45 48h5M8 49h5M14 49h6M21 49h2M24 49h2M45 49h3M9 50h3M13 50h7M21 50h3M25 50h2M44 50h1M46 50h1M10 51h1M12 51h8M22 51h1M26 51h2M31 51h1M42 51h4M13 52h1M18 52h1M27 52h5M39 52h5M45 52h1M28 53h1M31 53h11M43 53h1M32 54h1M41 54h1" />
<path stroke="#313131" d="M29 2h3M25 3h2M34 3h2M21 4h2M38 4h2M18 5h1M28 5h5M42 5h1M15 6h1M25 6h1M35 6h1M44 6h1M46 7h1M13 8h1M24 9h1M35 9h1M47 9h1M12 10h1M16 10h2M25 10h1M34 10h1M43 10h2M48 10h1M11 11h1M15 11h1M18 11h2M25 11h1M34 11h1M41 11h2M45 11h1M49 11h1M10 12h1M14 12h1M20 12h1M24 12h3M33 12h3M40 12h1M46 12h1M13 13h1M21 13h1M26 13h1M33 13h1M39 13h1M47 13h1M50 13h1M12 14h1M21 14h1M39 14h1M48 14h1M9 15h1M11 15h1M22 15h1M24 15h1M27 15h1M31 15h1M36 15h1M38 15h1M49 15h1M51 15h1M15 16h2M23 16h1M25 16h1M35 16h1M37 16h1M44 16h2M8 17h1M16 17h2M23 17h1M27 17h7M37 17h1M43 17h2M52 17h1M8 18h1M16 18h4M24 18h1M36 18h1M41 18h4M52 18h1M8 19h1M16 19h2M19 19h3M24 19h2M35 19h2M39 19h3M43 19h2M52 19h1M8 20h1M16 20h2M21 20h3M25 20h11M37 20h3M43 20h2M52 20h1M16 21h2M23 21h2M26 21h9M36 21h2M43 21h2M9 22h1M17 22h2M24 22h2M27 22h7M35 22h2M42 22h2M51 22h1M17 23h2M24 23h2M29 23h3M35 23h2M42 23h2M10 24h1M18 24h2M24 24h2M35 24h2M41 24h2M50 24h1M11 25h1M19 25h6M36 25h6M49 25h1M12 26h1M22 26h3M28 26h5M36 26h3M48 26h1M13 27h1M19 27h1M28 27h5M46 27h1M15 28h1M20 28h2M27 28h7M39 28h1M44 28h1M5 29h1M17 29h1M21 29h18M42 29h1M4 30h1M19 30h1M23 30h14M41 30h1M8 31h1M20 31h2M25 31h10M39 31h1M5 32h1M22 32h1M27 32h6M37 32h2M5 33h1M7 33h2M23 33h1M29 33h3M36 33h1M5 34h1M9 34h1M23 34h1M35 34h1M5 35h1M9 35h1M23 35h1M35 35h1M4 36h1M9 36h1M23 36h1M35 36h1M8 37h2M23 37h1M30 37h2M35 37h3M3 38h1M8 38h1M23 38h1M26 38h2M34 38h2M40 38h1M3 39h2M23 39h2M40 39h1M42 39h1M6 40h3M36 40h1M40 40h1M44 40h1M2 41h1M21 41h2M39 41h1M46 41h1M2 42h1M7 42h1M9 42h1M19 42h1M22 42h1M39 42h1M5 43h2M10 43h1M17 43h1M22 43h1M30 43h1M32 43h7M3 44h2M9 44h1M12 44h1M16 44h2M22 44h1M28 44h1M38 44h1M48 44h1M9 45h1M14 45h1M18 45h1M26 45h2M39 45h1M4 46h1M8 46h1M13 46h1M19 46h1M25 46h1M40 46h1M42 46h3M49 46h1M5 47h2M13 47h1M19 47h1M23 47h2M38 47h1M43 47h1M49 47h1M6 48h1M13 48h1M20 48h1M23 48h1M35 48h1M43 48h1M7 49h1M13 49h1M20 49h1M23 49h1M33 49h2M44 49h1M48 49h1M8 50h1M12 50h1M20 50h1M24 50h1M32 50h1M45 50h1M47 50h1M11 51h1M20 51h2M25 51h1M46 51h1M14 52h4M26 52h1M44 52h1M29 53h2M42 53h1M33 54h8" />
<path stroke="#deb5f7" d="M28 3h5M27 4h10M20 5h1M25 5h2M34 5h2M40 5h1M17 6h1M23 6h1M27 6h7M37 6h3M43 6h1M15 7h2M21 7h2M24 7h13M38 7h5M45 7h1M14 8h33M14 9h10M25 9h10M36 9h11M13 10h3M18 10h6M26 10h8M36 10h5M45 10h3M12 11h3M20 11h2M23 11h1M27 11h6M36 11h2M39 11h1M46 11h3M11 12h3M22 12h2M27 12h6M36 12h3M47 12h3M11 13h2M22 13h3M27 13h6M35 13h4M48 13h2M10 14h2M22 14h1M24 14h13M49 14h2M10 15h1M23 15h1M25 15h2M28 15h3M32 15h4M50 15h1M9 16h2M24 16h1M26 16h9M50 16h2M9 17h2M24 17h2M50 17h2M9 18h2M25 18h9M50 18h2M9 19h3M27 19h5M49 19h3M9 20h3M19 20h1M41 20h1M49 20h3M9 21h4M20 21h1M40 21h1M48 21h4M10 22h3M20 22h2M39 22h2M48 22h3M10 23h5M21 23h2M38 23h2M46 23h5M11 24h5M45 24h5M12 25h5M44 25h5M13 26h5M43 26h5M15 27h4M42 27h1M17 28h2M5 30h2M6 31h2M6 32h1M6 34h3M29 34h1M6 35h1M8 35h1M28 35h3M7 36h2M28 36h4M5 37h2M27 37h3M4 38h2M7 38h1M30 38h3M36 38h3M5 39h1M7 39h1M26 39h8M37 39h3M41 39h1M3 40h2M25 40h10M39 40h1M41 40h3M3 41h3M7 41h1M24 41h12M40 41h1M42 41h4M3 42h4M8 42h1M21 42h1M24 42h13M41 42h1M44 42h3M3 43h2M7 43h1M9 43h1M19 43h3M24 43h6M42 43h1M45 43h3M5 44h4M10 44h1M18 44h3M24 44h4M30 44h7M43 44h1M45 44h3M4 45h5M11 45h2M16 45h2M19 45h1M24 45h2M28 45h7M36 45h3M46 45h2M6 46h2M9 46h2M14 46h5M26 46h10M37 46h3M46 46h1M8 47h5M14 47h3M25 47h12M40 47h1M44 47h2M9 48h4M14 48h3M26 48h9M37 48h2M44 48h1M26 49h7M35 49h5M42 49h2M27 50h5M33 50h11M28 51h3M32 51h10M32 52h7" />
</svg>