<svg xmlns="http://www.w3.org/2000/svg" viewBox="0 -0.5 40 40" shape-rendering="crispEdges">
<metadata>Made with Pixels to Svg https://codepen.io/shshaw/pen/XbxvNj</metadata>
<path stroke="#ffffff" d="M0 0h40M0 1h40M0 2h40M0 3h40M0 4h40M0 5h40M0 6h40M0 7h40M0 8h34M38 8h2M0 9h32M34 9h4M39 9h1M0 10h10M17 10h14M32 10h7M0 11h8M10 11h1M21 11h9M31 11h8M0 12h6M22 12h8M31 12h8M0 13h5M8 13h1M16 13h1M18 13h1M23 13h6M30 13h9M0 14h5M8 14h1M16 14h1M24 14h5M30 14h9M0 15h4M7 15h1M17 15h1M21 15h1M24 15h4M30 15h3M34 15h5M0 16h4M18 16h3M25 16h3M29 16h4M34 16h4M39 16h1M0 17h3M9 17h1M25 17h2M29 17h2M34 17h4M39 17h1M0 18h3M26 18h1M28 18h2M34 18h3M39 18h1M0 19h2M15 19h1M26 19h1M35 19h2M38 19h2M0 20h2M7 20h1M15 20h2M35 20h2M38 20h2M0 21h2M6 21h1M8 21h2M14 21h1M16 21h2M35 21h1M38 21h2M0 22h2M5 22h1M7 22h2M10 22h4M15 22h1M17 22h1M35 22h1M37 22h3M0 23h2M5 23h1M7 23h1M9 23h2M13 23h2M16 23h1M18 23h1M36 23h4M0 24h2M5 24h1M7 24h1M9 24h1M11 24h1M13 24h2M16 24h1M18 24h1M35 24h5M0 25h1M5 25h1M7 25h1M9 25h1M11 25h3M15 25h2M18 25h1M34 25h6M1 26h1M7 26h1M9 26h2M14 26h2M17 26h1M33 26h7M8 27h1M10 27h4M16 27h1M32 27h8M9 28h1M14 28h2M30 28h10M9 29h5M28 29h12M24 30h16M0 31h1M23 31h17M0 32h2M21 32h19M0 33h3M9 33h7M22 33h18M0 34h5M8 34h7M22 34h18M0 35h14M22 35h18M0 36h14M21 36h19M0 37h13M21 37h19M0 38h13M20 38h20M0 39h14M19 39h21" />
<path stroke="#313131" d="M34 8h3M32 9h2M38 9h1M11 10h5M31 10h1M9 11h1M16 11h1M18 11h2M39 11h1M7 12h1M9 12h1M15 12h1M17 12h4M30 12h1M39 12h1M6 13h2M9 13h1M15 13h1M17 13h1M19 13h3M39 13h1M5 14h2M15 14h1M18 14h5M29 14h1M39 14h1M5 15h1M8 15h1M16 15h1M19 15h1M22 15h2M4 16h1M7 16h1M9 16h5M21 16h1M23 16h1M28 16h1M4 17h3M8 17h1M14 17h1M18 17h3M24 17h1M38 17h1M3 18h1M7 18h1M9 18h3M15 18h2M24 18h1M27 18h1M6 19h1M8 19h1M14 19h1M17 19h1M25 19h1M27 19h1M5 20h1M9 20h5M18 20h1M25 20h1M37 20h1M2 21h1M7 21h1M11 21h2M15 21h1M19 21h1M26 21h1M2 22h1M4 22h1M9 22h1M16 22h1M26 22h1M2 23h1M4 23h1M6 23h1M11 23h1M20 23h1M26 23h1M35 23h1M2 24h1M4 24h1M6 24h1M8 24h1M10 24h1M12 24h1M15 24h1M17 24h1M20 24h1M26 24h1M34 24h1M2 25h3M6 25h1M8 25h1M14 25h1M17 25h1M20 25h1M26 25h1M33 25h1M3 26h2M12 26h1M16 26h1M19 26h1M32 26h1M0 27h1M4 27h2M7 27h1M9 27h1M14 27h1M19 27h1M25 27h1M30 27h1M0 28h1M5 28h2M11 28h2M18 28h1M25 28h1M28 28h1M0 29h1M6 29h2M16 29h1M24 29h3M7 30h9M22 30h1M1 31h1M7 31h3M19 31h3M2 32h1M8 32h13M3 33h2M8 33h1M16 33h6M5 34h3M15 34h2M19 34h3M14 35h1M20 35h1M14 36h1M20 36h1M13 37h1M20 37h1M13 38h1M19 38h1M15 39h3" />
<path stroke="#4a52a5" d="M37 8h1M10 10h1M16 10h1M39 10h1M8 11h1M13 11h3M17 11h1M20 11h1M30 11h1M6 12h1M11 12h4M21 12h1M5 13h1M10 13h5M22 13h1M29 13h1M7 14h1M9 14h6M17 14h1M23 14h1M4 15h1M9 15h7M18 15h1M20 15h1M28 15h1M39 15h1M8 16h1M14 16h3M22 16h1M24 16h1M33 16h1M38 16h1M3 17h1M7 17h1M13 17h1M15 17h3M21 17h3M27 17h1M33 17h1M5 18h2M14 18h1M17 18h7M25 18h1M32 18h1M38 18h1M4 19h2M13 19h1M18 19h7M32 19h1M37 19h1M2 20h1M4 20h1M8 20h1M14 20h1M19 20h6M26 20h1M31 20h1M3 21h2M10 21h1M13 21h1M20 21h6M30 21h2M37 21h1M3 22h1M6 22h1M14 22h1M20 22h6M29 22h2M36 22h1M3 23h1M8 23h1M12 23h1M15 23h1M17 23h1M21 23h5M28 23h2M3 24h1M21 24h5M27 24h2M1 25h1M10 25h1M21 25h5M27 25h2M0 26h1M6 26h1M8 26h1M11 26h1M13 26h1M20 26h8M1 27h2M15 27h1M20 27h5M26 27h1M31 27h1M1 28h3M8 28h1M10 28h1M13 28h1M19 28h6M29 28h1M1 29h5M17 29h7M27 29h1M0 30h7M16 30h6M23 30h1M2 31h5M10 31h9M22 31h1M3 32h5M5 33h3M17 34h2M15 35h5M21 35h1M15 36h5M14 37h6M14 38h5M14 39h1M18 39h1" />
<path stroke="#adb5ff" d="M11 11h2M8 12h1M10 12h1M16 12h1M6 15h1M29 15h1M33 15h1M5 16h2M17 16h1M10 17h3M28 17h1M31 17h2M4 18h1M8 18h1M12 18h2M30 18h2M33 18h1M37 18h1M2 19h2M7 19h1M9 19h4M16 19h1M28 19h4M33 19h2M3 20h1M6 20h1M17 20h1M27 20h4M32 20h3M5 21h1M18 21h1M27 21h3M32 21h3M36 21h1M18 22h2M27 22h2M31 22h4M19 23h1M27 23h1M30 23h5M19 24h1M29 24h5M19 25h1M29 25h4M2 26h1M5 26h1M18 26h1M28 26h4M3 27h1M6 27h1M17 27h2M27 27h3M4 28h1M7 28h1M16 28h2M26 28h2M8 29h1M14 29h2" />
</svg>