<svg xmlns="http://www.w3.org/2000/svg" viewBox="0 -0.5 48 48" shape-rendering="crispEdges">
<metadata>Made with Pixels to Svg https://codepen.io/shshaw/pen/XbxvNj</metadata>
<path stroke="#ffffff" d="M0 0h27M32 0h16M0 1h14M15 1h2M18 1h7M34 1h14M0 2h13M20 2h4M34 2h14M0 3h12M20 3h5M35 3h13M0 4h11M14 4h1M21 4h3M27 4h1M35 4h13M0 5h11M13 5h1M15 5h1M22 5h1M35 5h13M0 6h10M11 6h1M14 6h1M23 6h1M33 6h2M36 6h12M0 7h10M17 7h1M22 7h2M33 7h3M37 7h11M0 8h10M22 8h3M34 8h2M37 8h11M0 9h11M22 9h4M35 9h2M38 9h10M0 10h11M12 10h2M22 10h5M36 10h2M39 10h9M0 11h10M11 11h2M21 11h6M30 11h2M37 11h2M40 11h8M0 12h10M11 12h2M20 12h7M30 12h3M38 12h2M41 12h7M0 13h9M10 13h2M15 13h1M19 13h7M30 13h3M39 13h2M42 13h6M0 14h8M9 14h2M13 14h3M18 14h3M22 14h4M29 14h5M37 14h1M40 14h2M43 14h5M0 15h7M8 15h2M12 15h4M18 15h2M24 15h1M29 15h5M35 15h1M38 15h1M41 15h1M43 15h5M0 16h6M7 16h2M11 16h5M29 16h6M36 16h1M38 16h2M42 16h1M44 16h4M0 17h5M6 17h2M10 17h5M28 17h7M38 17h3M44 17h4M0 18h4M5 18h2M9 18h5M30 18h6M38 18h4M44 18h4M0 19h3M4 19h2M8 19h4M31 19h17M0 20h3M4 20h1M7 20h5M30 20h18M0 21h3M6 21h7M15 21h1M31 21h17M0 22h12M14 22h1M16 22h1M31 22h17M0 23h12M15 23h1M17 23h1M31 23h17M0 24h11M14 24h1M16 24h1M31 24h17M0 25h12M32 25h16M0 26h12M32 26h16M0 27h13M31 27h17M0 28h13M30 28h18M0 29h13M29 29h19M0 30h14M29 30h19M0 31h16M28 31h20M0 32h18M27 32h21M0 33h19M22 33h1M27 33h21M0 34h19M22 34h2M27 34h21M0 35h18M22 35h2M28 35h20M0 36h18M22 36h2M28 36h20M0 37h18M21 37h4M28 37h20M0 38h18M21 38h4M29 38h19M0 39h10M16 39h1M21 39h4M29 39h19M0 40h9M10 40h1M12 40h1M20 40h6M29 40h3M34 40h14M0 41h10M20 41h3M35 41h13M0 42h11M12 42h1M23 42h2M35 42h13M0 43h10M11 43h1M17 43h1M22 43h1M27 43h1M29 43h1M33 43h15M0 44h9M10 44h1M14 44h2M17 44h1M23 44h3M27 44h1M34 44h14M0 45h9M11 45h5M20 45h6M29 45h2M33 45h1M35 45h13M0 46h16M17 46h1M19 46h7M27 46h1M29 46h4M35 46h13M0 47h17M18 47h9M28 47h20" />
<path stroke="#947352" d="M27 0h1M31 0h1M26 1h1M33 1h1M13 2h1M15 2h1M18 2h1M34 3h1M11 4h1M29 4h1M21 5h1M24 5h1M27 5h1M33 5h1M10 6h1M25 6h1M29 6h1M32 6h1M12 7h1M19 7h1M21 7h1M36 7h1M10 8h2M26 8h2M31 8h1M13 9h1M19 9h3M27 9h5M33 9h1M15 10h1M18 10h3M33 10h1M10 11h1M16 11h3M32 11h1M39 11h1M14 12h1M16 12h2M19 12h1M29 12h1M34 12h1M26 13h1M33 13h1M35 13h1M41 13h1M42 14h1M20 15h1M23 15h1M28 15h1M34 15h1M37 15h1M18 16h1M25 16h1M43 16h1M35 17h1M14 18h1M16 18h1M24 18h1M27 18h2M36 18h1M43 18h1M3 19h1M13 19h1M19 19h1M22 19h1M26 19h1M12 20h1M17 20h1M23 20h1M25 20h1M3 21h1M5 21h1M13 21h1M30 21h1M12 22h1M18 22h1M20 22h1M26 23h1M22 24h1M24 24h1M13 25h2M22 25h1M29 25h3M12 26h3M25 26h6M14 27h2M24 27h7M14 28h2M18 28h1M22 28h7M13 29h4M18 29h10M14 30h1M16 30h10M27 30h2M16 31h1M18 31h6M18 32h1M24 32h2M20 33h1M23 33h3M19 34h2M24 34h3M18 35h1M20 35h1M26 35h2M20 36h2M24 36h1M20 37h1M27 37h1M18 38h1M28 38h1M11 39h1M15 39h1M20 39h1M25 39h1M17 40h1M28 40h1M33 40h1M10 41h1M14 41h1M19 41h1M23 41h1M26 41h1M29 41h1M31 41h1M11 42h1M16 42h1M21 42h1M34 42h1M14 43h1M19 43h1M25 43h1M31 43h1M11 44h1M13 44h1M21 44h2M26 44h1M29 44h1M10 45h1M19 45h1M28 45h1M31 45h1M34 45h1M16 46h1" />
<path stroke="#313131" d="M28 0h3M14 1h1M17 1h1M25 1h1M32 1h1M16 2h1M19 2h1M24 2h1M33 2h1M12 3h1M19 3h1M25 3h1M20 4h1M24 4h1M28 4h1M34 4h1M11 5h1M23 5h1M28 5h2M34 5h1M12 6h1M22 6h1M24 6h1M28 6h1M35 6h1M10 7h2M18 7h1M24 7h2M32 7h1M17 8h3M21 8h1M25 8h1M32 8h1M36 8h1M11 9h2M17 9h2M26 9h1M32 9h1M37 9h1M11 10h1M14 10h1M21 10h1M27 10h6M34 10h1M38 10h1M15 11h1M19 11h2M27 11h3M33 11h3M10 12h1M15 12h1M18 12h1M27 12h2M33 12h1M35 12h2M40 12h1M9 13h1M13 13h2M16 13h3M27 13h2M36 13h2M8 14h1M12 14h1M16 14h2M21 14h1M26 14h3M34 14h1M36 14h1M38 14h1M7 15h1M11 15h1M16 15h2M22 15h1M26 15h2M39 15h1M42 15h1M6 16h1M10 16h1M16 16h2M19 16h1M24 16h1M26 16h2M35 16h1M37 16h1M40 16h1M5 17h1M9 17h1M15 17h4M25 17h3M36 17h2M41 17h1M43 17h1M4 18h1M8 18h1M17 18h2M25 18h2M29 18h1M37 18h1M42 18h1M7 19h1M12 19h1M14 19h1M17 19h2M23 19h3M30 19h1M3 20h1M6 20h1M18 20h2M24 20h1M29 20h1M4 21h1M18 21h3M19 22h1M30 22h1M12 23h1M30 23h1M11 24h1M30 24h1M12 25h1M31 26h1M13 27h1M13 28h1M29 28h1M28 29h1M15 30h1M26 30h1M17 31h1M24 31h4M19 32h5M26 32h1M19 33h1M21 33h1M26 33h1M21 34h1M21 35h1M24 35h1M18 36h1M27 36h1M18 37h1M25 37h1M20 38h1M25 38h1M10 39h1M12 39h3M17 39h1M28 39h1M9 40h1M11 40h1M16 40h1M19 40h1M26 40h1M32 40h1M11 41h3M24 41h2M30 41h1M34 41h1M20 42h1M22 42h1M33 42h1M10 43h1M15 43h2M21 43h1M23 43h2M32 43h1M9 44h1M12 44h1M16 44h1M19 44h2M30 44h1M33 44h1M9 45h1M16 45h2M26 45h1M32 45h1M18 46h1M26 46h1M28 46h1M33 46h2M17 47h1M27 47h1" />
<path stroke="#d6bd94" d="M27 1h5M14 2h1M17 2h1M25 2h8M13 3h6M26 3h8M12 4h2M15 4h5M25 4h2M30 4h4M12 5h1M14 5h1M16 5h5M25 5h2M30 5h3M13 6h1M15 6h7M26 6h2M30 6h2M13 7h4M20 7h1M26 7h6M12 8h5M20 8h1M28 8h3M33 8h1M14 9h3M34 9h1M16 10h2M35 10h1M13 11h2M36 11h1M13 12h1M37 12h1M12 13h1M29 13h1M34 13h1M38 13h1M11 14h1M35 14h1M39 14h1M10 15h1M21 15h1M25 15h1M36 15h1M40 15h1M9 16h1M20 16h4M28 16h1M41 16h1M8 17h1M19 17h6M42 17h1M7 18h1M15 18h1M19 18h5M6 19h1M15 19h2M20 19h2M27 19h3M5 20h1M13 20h4M20 20h3M26 20h3M14 21h1M16 21h2M21 21h9M13 22h1M15 22h1M17 22h1M21 22h9M13 23h2M16 23h1M18 23h8M27 23h3M12 24h2M15 24h1M17 24h5M23 24h1M25 24h5M15 25h7M23 25h6M15 26h10M16 27h8M16 28h2M19 28h3M17 29h1M19 35h1M25 35h1M19 36h1M25 36h2M19 37h1M26 37h1M19 38h1M26 38h2M18 39h2M26 39h2M13 40h3M18 40h1M27 40h1M15 41h4M27 41h2M32 41h2M13 42h3M17 42h3M25 42h8M12 43h2M18 43h1M20 43h1M26 43h1M28 43h1M30 43h1M18 44h1M28 44h1M31 44h2M18 45h1M27 45h1" />
</svg>