<svg xmlns="http://www.w3.org/2000/svg" viewBox="0 -0.5 40 30" shape-rendering="crispEdges">
<metadata>Made with Pixels to Svg https://codepen.io/shshaw/pen/XbxvNj</metadata>
<path stroke="#202020" d="M19 10h3M17 11h2M22 11h1M16 12h1M22 12h1M15 13h1M23 13h1M15 14h1M23 14h1M15 15h1M22 15h1M16 16h1M22 16h1M17 17h1M23 17h1M16 18h1M24 18h1M15 19h1M24 19h1M14 20h1M25 20h1M14 21h1M23 21h1M25 21h1M14 22h1M19 22h1M25 22h1M14 23h1M24 23h1M15 24h1M24 24h1M16 25h1M22 25h2M17 26h1M20 26h2M18 27h2" />
<path stroke="#d9f989" d="M19 11h2M17 12h1M20 12h2M16 13h1M18 13h1M20 13h1M16 14h1M18 14h1M17 15h2" />
<path stroke="#525252" d="M21 11h1M18 12h2M19 13h1M19 14h1M23 20h1M19 21h1M15 23h1" />
<path stroke="#58852c" d="M17 13h1M17 14h1M19 15h1M18 16h1M21 16h1M21 17h1M20 18h1M21 19h1" />
<path stroke="#9bd12c" d="M21 13h2M20 14h3M20 15h2M17 16h1M19 16h2M19 17h2M18 18h2M22 18h1M16 19h3M23 19h1M16 20h2M15 21h3M16 22h2" />
<path stroke="#b5d069" d="M16 15h1" />
<path stroke="#73b111" d="M18 17h1M22 17h1M17 18h1M21 18h1M23 18h1M19 19h1M22 19h1M15 20h1M18 20h1M24 20h1M15 22h1M16 23h1" />
<path stroke="#faea4d" d="M20 19h1M19 20h3M18 21h1M20 21h3M18 22h1M20 22h1M23 22h1M19 23h4" />
<path stroke="#c1ba34" d="M22 20h1M21 22h2M18 26h2" />
<path stroke="#af4bca" d="M24 21h1M17 23h2M23 23h1M16 24h1M19 24h1M22 24h1M17 25h2M20 25h2" />
<path stroke="#d362e8" d="M24 22h1M17 24h2M20 24h2M23 24h1M19 25h1" />
</svg>