<svg xmlns="http://www.w3.org/2000/svg" viewBox="0 -0.5 40 30" shape-rendering="crispEdges">
<metadata>Made with Pixels to Svg https://codepen.io/shshaw/pen/XbxvNj</metadata>
<path stroke="#202020" d="M22 3h3M20 4h2M25 4h2M19 5h1M27 5h1M14 6h6M27 6h1M11 7h1M13 7h1M28 7h1M10 8h1M12 8h1M14 8h1M28 8h3M10 9h1M13 9h1M15 9h1M31 9h2M9 10h1M13 10h1M16 10h2M33 10h1M9 11h1M14 11h1M18 11h1M31 11h2M10 12h1M14 12h1M19 12h1M25 12h1M30 12h1M10 13h1M15 13h2M18 13h1M29 13h1M11 14h1M17 14h1M30 14h1M12 15h1M29 15h1M12 16h1M28 16h1M11 17h1M27 17h1M11 18h1M26 18h1M28 18h1M11 19h1M15 19h2M26 19h1M28 19h1M10 20h1M14 20h1M16 20h1M26 20h2M10 21h1M15 21h1M17 21h1M25 21h1M10 22h1M15 22h1M18 22h1M26 22h1M11 23h1M14 23h2M18 23h1M21 23h2M27 23h1M12 24h3M17 24h1M23 24h1M27 24h1M17 25h1M22 25h1M24 25h3M18 26h1M22 26h1M19 27h3" />
<path stroke="#696969" d="M22 4h2M21 5h5M24 6h2M28 9h2M26 10h7M28 11h2M20 12h1M19 13h3M14 14h3M19 14h3M14 15h2M20 15h1M13 16h3M18 16h3M13 17h3M18 17h3M12 18h3M16 18h1M19 18h1M13 19h1M18 19h2M23 20h1M20 22h1M20 23h1" />
<path stroke="#464646" d="M24 4h1M20 5h1M26 5h1M21 6h1M14 7h3M15 8h2M16 9h2M30 9h1M18 10h2M20 11h8M30 11h1M13 15h1M19 15h1M21 15h1M12 17h1M15 18h1M18 18h1M21 21h3" />
<path stroke="#9c8c52" d="M20 6h1M22 6h2M26 6h1M21 7h5M27 18h1M24 22h1" />
<path stroke="#525252" d="M17 7h2M17 8h2M18 9h3M26 9h2M20 10h6M19 11h1M14 13h1M13 14h1M17 15h1M16 16h1M21 16h1M23 16h2M16 17h1M21 17h1M20 18h1M21 19h1M21 20h1M25 20h1M20 21h1M24 21h1M19 22h1M21 22h1M23 22h1M22 24h1" />
<path stroke="#cebd6b" d="M19 7h2M26 7h2M19 8h2M24 8h4M21 9h1M24 9h2M11 13h1M12 14h1M22 16h1M22 17h3M23 18h3M12 19h1M14 19h1M24 19h2M11 20h1M13 20h1M17 20h1M20 20h1M18 21h2M25 22h1M19 23h1M23 23h4M20 24h1M24 24h1M18 25h1" />
<path stroke="#ffe67b" d="M11 8h1M21 8h3M11 9h2M22 9h2M10 10h3M10 11h4M11 12h3M12 13h2M21 18h2M17 19h1M20 19h1M22 19h2M12 20h1M18 20h2M22 20h1M24 20h1M11 21h4M11 22h1M14 22h1M18 24h2M21 24h1M19 25h3M19 26h1" />
<path stroke="#3c3c3c" d="M21 12h1M16 15h1M23 15h1M27 16h1M26 17h1M22 22h1" />
<path stroke="#424242" d="M22 12h1M27 12h3M22 13h1M18 14h1M22 14h1M18 15h1M22 15h1M27 15h2M17 16h1M25 16h2M17 17h1M25 17h1M17 18h1M27 19h1" />
<path stroke="#ffffff" d="M23 12h1M24 13h2" />
<path stroke="#d63131" d="M24 12h1" />
<path stroke="#4a737b" d="M26 12h1M29 14h1" />
<path stroke="#a5ad8c" d="M23 13h1M28 13h1M23 14h1M26 15h1" />
<path stroke="#dee6ce" d="M26 13h2M24 14h5M24 15h2M12 22h2M12 23h2M25 24h2M20 26h2" />
</svg>