<svg xmlns="http://www.w3.org/2000/svg" viewBox="0 -0.5 40 30" shape-rendering="crispEdges">
<metadata>Made with Pixels to Svg https://codepen.io/shshaw/pen/XbxvNj</metadata>
<path stroke="#202020" d="M18 9h2M13 10h1M15 10h3M20 10h2M12 11h1M14 11h1M22 11h1M12 12h1M23 12h1M13 13h1M23 13h1M12 14h1M24 14h1M12 15h1M24 15h1M12 16h1M24 16h1M13 17h1M23 17h1M14 18h1M22 18h1M15 19h1M21 19h1M23 19h1M15 20h1M22 20h1M24 20h1M15 21h1M21 21h1M23 21h2M14 22h1M22 22h1M14 23h1M22 23h1M13 24h1M21 24h1M13 25h1M16 25h2M20 25h1M13 26h3M18 26h1M20 26h1M19 27h1" />
<path stroke="#6eca95" d="M18 10h2M19 11h3M18 12h1M22 12h1M17 13h1M16 17h1M19 19h1M22 19h1M16 20h1M18 20h1M20 21h1M18 22h1M15 23h1M17 23h1M15 24h1M14 25h1" />
<path stroke="#737373" d="M13 11h1M15 11h1M13 12h1M15 12h1M14 13h1M13 15h3M13 16h3M20 20h1M17 21h1M20 22h2M19 23h3M18 24h2" />
<path stroke="#525252" d="M16 11h1M14 12h1M16 12h1M15 13h1M13 14h3M16 15h1M16 16h1M14 17h2M15 18h1M17 18h2M16 19h3M20 19h1M19 20h1M21 20h1M23 20h1M16 21h1M18 21h2M16 22h2M19 22h1M18 23h1M17 24h1M18 25h1" />
<path stroke="#99f5c0" d="M17 11h2M17 12h1M16 13h1M16 18h1M17 20h1M15 22h1M14 24h1M16 24h1M15 25h1" />
<path stroke="#ffffff" d="M19 12h3M18 13h1M19 14h2M22 14h1M20 15h3M19 16h5M20 17h1M22 17h1M19 18h2M19 25h1M19 26h1" />
<path stroke="#bdbdbd" d="M19 13h2M22 13h1M16 14h3M20 24h1" />
<path stroke="#6af244" d="M21 13h1M23 14h1M18 15h2M16 23h1" />
<path stroke="#29b103" d="M21 14h1M23 15h1M18 16h1M18 17h2" />
<path stroke="#d6d6d6" d="M17 15h1M17 16h1M17 17h1M21 17h1" />
<path stroke="#f58d9d" d="M21 18h1" />
</svg>