<svg xmlns="http://www.w3.org/2000/svg" viewBox="0 -0.5 40 30" shape-rendering="crispEdges">
<metadata>Made with Pixels to Svg https://codepen.io/shshaw/pen/XbxvNj</metadata>
<path stroke="#202020" d="M22 1h1M21 2h1M23 2h1M21 3h1M23 3h1M28 3h2M16 4h3M21 4h1M24 4h1M27 4h1M29 4h1M15 5h1M19 5h2M25 5h2M28 5h1M31 5h1M16 6h1M28 6h1M30 6h1M32 6h1M17 7h1M27 7h1M29 7h1M32 7h1M11 8h1M16 8h1M27 8h1M29 8h1M33 8h2M8 9h3M12 9h2M17 9h2M27 9h1M29 9h1M35 9h1M5 10h3M14 10h1M19 10h1M28 10h1M36 10h1M4 11h1M13 11h1M17 11h2M32 11h2M35 11h2M3 12h1M12 12h1M16 12h1M31 12h1M34 12h1M4 13h1M13 13h2M17 13h1M29 13h2M33 13h1M3 14h1M5 14h3M15 14h2M18 14h1M28 14h1M31 14h2M34 14h1M3 15h2M8 15h1M10 15h2M17 15h1M27 15h1M30 15h1M35 15h1M9 16h1M12 16h1M14 16h1M16 16h1M18 16h1M28 16h2M35 16h1M7 17h1M13 17h1M15 17h1M19 17h1M36 17h1M6 18h1M8 18h1M10 18h1M17 18h2M36 18h1M5 19h1M9 19h1M11 19h1M15 19h2M27 19h2M32 19h2M36 19h1M4 20h1M12 20h3M27 20h1M29 20h1M31 20h1M34 20h1M36 20h1M4 21h1M26 21h1M30 21h1M34 21h1M36 21h1M3 22h1M16 22h2M27 22h1M35 22h1M3 23h1M8 23h2M15 23h1M17 23h1M27 23h1M3 24h1M6 24h2M10 24h1M12 24h1M14 24h1M16 24h1M22 24h1M28 24h1M2 25h1M5 25h1M11 25h1M13 25h1M16 25h1M21 25h1M23 25h1M25 25h1M27 25h2M2 26h1M4 26h1M16 26h1M22 26h3M26 26h1M2 27h1M4 27h1M16 27h1M18 27h1M20 27h1M22 27h1M2 28h2M17 28h1M19 28h1M21 28h1" />
<path stroke="#e9f1f1" d="M22 2h1M22 3h1M22 4h2M28 4h1M16 5h3M21 5h3M27 5h1M17 6h3M22 6h2M27 6h1M18 7h2M17 8h4M19 9h2M33 9h2M31 10h3M35 10h1M5 11h4M19 11h2M30 11h2M34 11h1M4 12h1M7 12h3M17 12h5M29 12h2M5 13h6M19 13h3M28 13h1M4 14h1M8 14h4M20 14h3M33 14h1M9 15h1M12 15h1M18 15h2M22 15h2M33 15h2M13 16h1M19 16h1M33 16h2M32 17h4M7 18h1M20 18h1M30 18h6M6 19h3M17 19h1M19 19h2M29 19h3M34 19h2M5 20h4M18 20h4M30 20h1M35 20h1M5 21h5M19 21h3M35 21h1M4 22h8M19 22h2M4 23h4M10 23h5M4 24h2M11 24h1M13 24h1M3 25h2M3 26h1M3 27h1" />
<path stroke="#41414a" d="M24 5h1M26 6h1M26 7h1M28 11h1M28 12h1M22 13h1M27 13h1M19 14h1M23 14h4M26 15h1M27 16h1M28 17h1M19 18h1M27 18h1M18 19h1M26 19h1M15 20h3M17 21h2M25 21h1M22 22h1M24 22h1M21 23h3M26 23h1" />
<path stroke="#627b8b" d="M20 6h2M24 6h1M20 7h1M22 7h3M31 7h1M21 8h1M24 8h2M30 8h2M21 9h2M31 9h2M8 10h1M10 10h1M12 10h1M20 10h1M27 10h1M30 10h1M34 10h1M9 11h1M21 11h1M29 11h1M5 12h2M10 12h1M22 12h3M11 13h1M18 13h1M25 13h1M12 14h1M27 14h1M13 15h2M20 15h2M24 15h1M32 15h1M15 16h1M20 16h1M22 16h2M32 16h1M20 17h1M30 17h2M21 18h1M28 18h2M21 19h1M9 20h1M22 20h1M10 21h2M22 21h1M12 22h4M18 22h1M21 22h1M19 23h2M24 23h2M19 24h1M23 24h4M17 25h1M19 25h2M18 26h1M20 26h1" />
<path stroke="#c4dded" d="M25 6h1M31 6h1M21 7h1M25 7h1M30 7h1M22 8h2M26 8h1M32 8h1M11 9h1M23 9h2M26 9h1M30 9h1M9 10h1M11 10h1M13 10h1M21 10h2M24 10h3M29 10h1M10 11h1M12 11h1M22 11h1M25 11h3M11 12h1M25 12h3M12 13h1M24 13h1M26 13h1M13 14h2M15 15h2M25 15h1M31 15h1M21 16h1M24 16h3M30 16h2M21 17h1M23 17h1M25 17h3M29 17h1M22 18h3M10 19h1M23 19h1M25 19h1M10 20h2M24 20h3M12 21h5M23 22h1M25 22h2M18 23h1M17 24h2M20 24h2M27 24h1M18 25h1M24 25h1M26 25h1M17 26h1M19 26h1M21 26h1M17 27h1M19 27h1M21 27h1" />
<path stroke="#88a1b1" d="M25 9h1M23 13h1M22 17h1M24 17h1M25 18h2M22 19h1M24 19h1M23 20h1M23 21h2" />
<path stroke="#7b73ee" d="M23 10h1M23 11h1" />
<path stroke="#9cb5c5" d="M11 11h1" />
<path stroke="#006ab4" d="M24 11h1" />
</svg>