<svg xmlns="http://www.w3.org/2000/svg" viewBox="0 -0.5 40 30" shape-rendering="crispEdges">
<metadata>Made with Pixels to Svg https://codepen.io/shshaw/pen/XbxvNj</metadata>
<path stroke="#202020" d="M13 8h2M12 9h1M14 9h1M11 10h1M14 10h1M21 10h4M10 11h1M14 11h1M20 11h1M25 11h3M10 12h1M13 12h1M20 12h1M28 12h1M9 13h1M13 13h1M20 13h1M29 13h1M9 14h1M13 14h1M21 14h1M29 14h1M10 15h1M12 15h1M17 15h3M21 15h1M25 15h1M30 15h1M9 16h1M11 16h1M13 16h2M16 16h1M20 16h1M30 16h1M9 17h1M12 17h1M15 17h1M31 17h1M9 18h1M31 18h1M10 19h1M29 19h1M31 19h1M10 20h1M25 20h2M28 20h1M30 20h1M10 21h1M24 21h1M26 21h1M28 21h1M11 22h1M24 22h1M27 22h1M12 23h2M25 23h1M14 24h1M25 24h1M15 25h1M18 25h1M25 25h1M16 26h2M19 26h1M24 26h1M20 27h4" />
<path stroke="#2180e6" d="M13 9h1M12 10h2M11 11h2M11 12h1M10 13h2M10 14h1M24 15h1M25 16h2M27 19h1M27 20h1M27 21h1" />
<path stroke="#6b7b8c" d="M13 11h1M21 11h4M12 12h1M21 12h5M12 13h1M22 13h2M11 14h2M22 14h3M11 15h1M23 15h1M27 15h1M10 16h1M17 16h1M24 16h1M27 16h2M16 17h2M27 17h2M13 18h1M16 18h3M21 18h1M13 19h1M15 19h5M21 19h1M15 20h8M14 21h3M18 21h6M15 22h2M18 22h4M19 23h3" />
<path stroke="#7ef45b" d="M26 12h1M24 13h1M26 13h1M28 13h1M25 14h1M27 14h1M22 15h1M28 15h2M18 16h2M22 16h1M13 17h1M18 17h1M20 17h1M22 17h2M14 18h1M19 18h1M23 18h3M24 19h2M15 24h1M20 25h1" />
<path stroke="#61be42" d="M27 12h1M25 13h1M27 13h1M26 14h1M28 14h1M14 17h1M19 17h1M16 25h1M21 26h1" />
<path stroke="#5a6373" d="M21 13h1M10 18h2M22 18h1M12 19h1M22 19h2M12 20h2M23 20h2M11 21h3M12 22h1M14 22h1M22 22h2M14 23h3M18 23h1M22 23h1M24 23h1M16 24h2M19 24h3M24 24h1M17 25h1M19 25h1M21 25h1M23 25h2M23 26h1" />
<path stroke="#ffffff" d="M26 15h1" />
<path stroke="#525252" d="M21 16h1M23 16h1M11 17h1M21 17h1M24 17h3M30 17h1M12 18h1M15 18h1M20 18h1M26 18h4M11 19h1M14 19h1M20 19h1M26 19h1M11 20h1M14 20h1M17 21h1M13 22h1M17 22h1M17 23h1M18 24h1M20 26h1" />
<path stroke="#cf4479" d="M29 16h1M10 17h1M29 17h1M23 23h1M22 24h2M22 25h1M22 26h1" />
<path stroke="#0665cb" d="M30 18h1M28 19h1M30 19h1" />
</svg>