<svg xmlns="http://www.w3.org/2000/svg" viewBox="0 -0.5 40 30" shape-rendering="crispEdges">
<metadata>Made with Pixels to Svg https://codepen.io/shshaw/pen/XbxvNj</metadata>
<path stroke="#202020" d="M26 6h2M25 7h1M27 7h1M20 8h2M24 8h1M28 8h2M10 9h3M19 9h1M22 9h2M29 9h1M10 10h1M13 10h2M17 10h1M19 10h1M28 10h1M10 11h1M15 11h2M18 11h1M26 11h2M9 12h1M25 12h1M10 13h2M26 13h1M12 14h3M25 14h1M15 15h1M24 15h1M12 16h3M21 16h1M24 16h1M12 17h1M25 17h1M13 18h1M26 18h1M14 19h2M25 19h1M14 20h1M23 20h2M13 21h1M22 21h1M13 22h1M21 22h1M12 23h1M15 23h1M22 23h1M12 24h1M14 24h1M19 24h2M22 24h1M12 25h2M18 25h1M21 25h2M16 26h1M18 26h1M16 27h2" />
<path stroke="#bdbdbd" d="M26 7h1M25 8h2M24 9h5M12 10h1M25 10h2M13 11h1M25 11h1M11 12h1M14 12h1M12 13h1M15 14h1M18 14h1M18 15h2M18 17h1M18 18h2M25 18h1M18 19h2M17 20h1M19 20h2M14 21h6M14 22h7M19 23h1" />
<path stroke="#525252" d="M27 8h1M22 10h3M27 10h1M11 11h1M24 11h1M16 12h1M23 12h1M17 13h2M16 15h2M20 15h1M15 16h2M18 16h1M22 16h1M16 17h1M16 18h1M17 19h1M18 20h1M21 21h1M20 23h1M16 24h1M16 25h1" />
<path stroke="#019f7a" d="M20 9h1M21 11h1M17 12h1M24 12h1M19 14h2M23 14h1M21 17h1M23 17h1M17 18h1M13 23h1M21 23h1M21 24h1" />
<path stroke="#30eec2" d="M21 9h1M20 10h1M17 11h1M19 11h2M22 11h2M18 12h2M21 12h2M19 13h7M21 14h2M22 15h2M23 16h1M17 25h1M17 26h1" />
<path stroke="#ffffff" d="M11 10h1M12 11h1M14 11h1M10 12h1M12 12h2M15 12h1M13 13h4M16 14h2M20 16h1M20 17h1M22 17h1M24 17h1M21 18h4M16 19h1M20 19h5M15 20h2M21 20h2M17 23h2M18 24h1" />
<path stroke="#09c79b" d="M21 10h1M20 12h1M24 14h1M21 15h1M17 16h1M17 17h1M14 23h1M13 24h1M17 24h1" />
<path stroke="#949494" d="M19 16h1M19 17h1M20 18h1" />
<path stroke="#e65a52" d="M13 17h3" />
<path stroke="#b54a52" d="M14 18h2" />
<path stroke="#737373" d="M20 21h1M16 23h1" />
</svg>