<svg xmlns="http://www.w3.org/2000/svg" viewBox="0 -0.5 40 30" shape-rendering="crispEdges">
<metadata>Made with Pixels to Svg https://codepen.io/shshaw/pen/XbxvNj</metadata>
<path stroke="#202020" d="M17 8h4M15 9h2M21 9h2M14 10h1M17 10h4M23 10h1M13 11h1M16 11h1M21 11h1M24 11h1M13 12h1M15 12h1M18 12h3M24 12h1M12 13h1M15 13h1M17 13h1M25 13h1M12 14h1M14 14h1M16 14h1M25 14h1M11 15h1M14 15h1M16 15h1M26 15h1M11 16h1M13 16h1M15 16h1M26 16h1M11 17h1M13 17h1M15 17h1M26 17h1M11 18h1M13 18h1M15 18h1M20 18h1M26 18h1M11 19h1M13 19h1M15 19h1M21 19h1M24 19h2M11 20h1M14 20h1M16 20h1M23 20h1M12 21h1M14 21h1M17 21h1M22 21h1M12 22h1M15 22h1M18 22h4M13 23h1M16 23h3M14 24h1M19 24h2M15 25h3M20 25h1M18 26h1M20 26h1M18 27h3" />
<path stroke="#71acff" d="M17 9h3M15 10h1M14 11h1M19 13h3M18 14h1M17 15h1M18 25h2" />
<path stroke="#4385e1" d="M20 9h1M16 10h1M21 10h2M22 11h1M14 12h1M23 12h1M13 13h1M18 13h1M13 14h1M17 14h1M22 14h1M24 14h1M12 15h1M25 15h1M12 16h1M16 16h1M23 16h1M25 16h1M12 17h1M23 17h1M25 17h1M12 18h1M23 18h1M25 18h1M12 19h1M16 19h1M13 20h1M13 21h1M14 22h1M15 23h1M16 24h3M19 26h1" />
<path stroke="#2d6fcb" d="M15 11h1M14 13h1M23 13h2M13 15h1M22 15h1M24 15h1M23 19h1M12 20h1M13 22h1M14 23h1M15 24h1" />
<path stroke="#1456b2" d="M23 11h1M21 12h2M22 13h1M19 14h3M23 14h1M18 15h1M23 15h1M17 16h1M24 16h1M16 17h2M24 17h1M16 18h2M24 18h1M17 19h1M17 20h1M18 21h1" />
<path stroke="#a9ccff" d="M19 15h1M21 15h1M18 16h1M22 16h1M18 20h1M22 20h1M19 21h1M21 21h1" />
<path stroke="#eaf2ff" d="M20 15h1M19 16h3M18 17h2M22 17h1M18 18h2M22 18h1M18 19h2M22 19h1M19 20h3M20 21h1" />
<path stroke="#848484" d="M20 17h1" />
<path stroke="#525252" d="M21 17h1M20 19h1" />
<path stroke="#a5a5a5" d="M21 18h1" />
</svg>