<svg xmlns="http://www.w3.org/2000/svg" viewBox="0 -0.5 40 30" shape-rendering="crispEdges">
<metadata>Made with Pixels to Svg https://codepen.io/shshaw/pen/XbxvNj</metadata>
<path stroke="#202020" d="M23 7h3M21 8h2M26 8h1M20 9h1M24 9h2M20 10h1M22 10h2M20 11h1M22 11h1M19 12h2M22 12h2M18 13h1M23 13h1M17 14h1M24 14h1M17 15h1M24 15h3M16 16h1M27 16h1M15 17h2M25 17h2M14 18h1M21 18h1M25 18h1M15 19h3M22 19h1M24 19h1M17 20h1M24 20h1M18 21h1M23 21h1M19 22h2M23 22h1M20 23h1M22 23h4M20 24h1M22 24h1M26 24h1M20 25h1M24 25h2M21 26h3" />
<path stroke="#2d6fcb" d="M23 8h1M21 9h1M21 10h1M21 11h1M20 14h2M23 15h1M24 17h1M18 18h1M24 18h1M18 19h1M23 24h1" />
<path stroke="#4385e1" d="M24 8h1M22 13h1M18 14h1M22 14h2M24 16h1M26 16h1M16 18h1M21 22h1M21 23h1M21 24h1M24 24h1M21 25h1" />
<path stroke="#71acff" d="M25 8h1M22 9h2M20 13h2M19 14h1M18 15h1M17 16h1M17 17h1M15 18h1M25 24h1M22 25h2" />
<path stroke="#1456b2" d="M21 12h1M19 13h1M19 15h1M18 16h1M25 16h1M18 17h1M17 18h1M18 20h1M19 21h1M22 22h1" />
<path stroke="#a9ccff" d="M20 15h1M22 15h1M19 16h1M23 16h1M19 20h1M23 20h1M20 21h1M22 21h1" />
<path stroke="#eaf2ff" d="M21 15h1M20 16h3M19 17h2M23 17h1M19 18h2M23 18h1M19 19h2M23 19h1M20 20h3M21 21h1" />
<path stroke="#848484" d="M21 17h1" />
<path stroke="#525252" d="M22 17h1M21 19h1" />
<path stroke="#a5a5a5" d="M22 18h1" />
</svg>