<svg xmlns="http://www.w3.org/2000/svg" viewBox="0 -0.5 40 30" shape-rendering="crispEdges">
<metadata>Made with Pixels to Svg https://codepen.io/shshaw/pen/XbxvNj</metadata>
<path stroke="#202020" d="M25 0h1M15 1h1M20 1h1M24 1h1M26 1h1M14 2h1M16 2h1M19 2h1M21 2h1M24 2h1M26 2h1M14 3h1M16 3h1M18 3h2M21 3h1M23 3h1M26 3h1M14 4h1M17 4h1M21 4h3M27 4h1M13 5h1M22 5h1M27 5h1M13 6h1M27 6h1M12 7h1M27 7h1M12 8h1M28 8h1M11 9h1M28 9h1M11 10h1M28 10h1M10 11h1M29 11h1M10 12h1M29 12h1M9 13h1M27 13h1M30 13h1M8 14h1M26 14h1M28 14h1M31 14h1M7 15h1M15 15h1M27 15h1M29 15h1M32 15h1M7 16h1M14 16h1M16 16h1M28 16h2M33 16h1M6 17h1M13 17h1M17 17h1M28 17h1M30 17h1M33 17h1M5 18h1M14 18h1M16 18h1M29 18h2M34 18h1M4 19h1M14 19h1M16 19h1M29 19h1M31 19h1M34 19h1M4 20h1M15 20h1M25 20h2M29 20h1M31 20h1M34 20h1M3 21h1M25 21h1M27 21h2M31 21h1M34 21h1M3 22h1M7 22h1M20 22h2M26 22h1M31 22h1M34 22h1M3 23h1M6 23h2M19 23h1M22 23h1M27 23h1M32 23h2M3 24h1M6 24h2M9 24h2M12 24h1M18 24h1M21 24h1M26 24h1M3 25h1M5 25h1M7 25h1M9 25h1M11 25h1M13 25h1M18 25h1M21 25h1M25 25h1M3 26h1M5 26h1M7 26h1M9 26h1M13 26h1M17 26h1M22 26h1M26 26h1M3 27h1M5 27h1M8 27h1M13 27h1M17 27h1M23 27h3M3 28h1M5 28h1M13 28h1M17 28h1M4 29h1M14 29h3" />
<path stroke="#525252" d="M25 1h1M20 2h1M23 5h1M19 8h1M23 8h1M15 9h1M18 9h1M20 9h1M24 9h2M15 10h1M18 10h1M21 10h1M24 10h2M14 11h1M19 11h1M26 11h1M20 12h1M23 12h1M13 13h1M21 13h2M13 14h1M12 15h1M11 17h1M18 17h1M25 17h1M10 18h1M19 18h6M24 19h1M15 21h1M9 22h1M9 23h1M14 23h1" />
<path stroke="#efefe7" d="M15 2h1M15 3h1M18 4h1M25 4h1M14 5h2M18 5h1M25 5h1M14 6h1M16 6h1M18 6h2M24 6h2M16 7h1M18 7h1M23 7h2M26 7h1M13 8h1M16 8h1M24 8h1M17 9h1M22 9h1M12 10h1M17 10h1M17 11h1M11 12h1M15 12h1M21 12h2M10 14h1M14 14h1M9 15h1M23 15h1M8 16h1M8 17h1M7 18h1M5 19h1M7 20h1M23 20h1M6 21h1M19 21h1M18 22h1M17 23h1M4 24h1M17 24h1M4 25h1M4 26h1M4 27h1" />
<path stroke="#939393" d="M25 2h1M20 3h1M24 3h1M20 4h1M24 4h1M20 5h2M21 6h1M23 6h1M15 7h1M22 7h1M15 8h1M21 8h1M25 8h1M14 9h1M21 9h1M23 9h1M14 10h1M16 10h1M22 10h1M26 10h1M15 11h2M20 11h1M23 11h1M14 12h1M16 12h1M18 12h1M27 12h1M16 13h2M20 13h1M23 13h1M16 14h1M18 14h1M21 14h1M23 14h1M13 15h1M17 15h1M19 15h1M22 15h1M24 15h2M12 16h1M26 16h1M24 17h1M11 18h1M13 18h1M17 18h1M13 19h1M17 19h1M23 19h1M9 21h1M15 22h1M22 22h2M10 23h1M15 23h1M23 23h2M14 24h1M22 24h3M22 25h2M23 26h2M14 28h1" />
<path stroke="#b6b6b3" d="M25 3h1M15 4h2M19 4h1M26 4h1M16 5h2M19 5h1M24 5h1M26 5h1M15 6h1M17 6h1M20 6h1M26 6h1M17 7h1M20 7h2M25 7h1M17 8h1M22 8h1M16 9h1M19 9h1M25 11h1M13 12h1M17 12h1M24 12h1M14 13h1M26 13h1M28 13h1M12 14h1M15 14h1M8 15h1M11 16h1M13 16h1M30 16h1M10 17h1M9 18h1M18 18h1M27 18h2M8 19h1M10 19h1M18 19h2M25 19h2M28 19h1M9 20h1M17 20h1M20 20h1M22 20h1M24 20h1M28 20h1M32 20h1M7 21h1M17 21h2M23 21h1M32 21h1M6 22h1M8 22h1M17 22h1M19 22h1M24 22h2M32 22h1M8 23h1M12 23h1M16 23h1M18 23h1M25 23h1M5 24h1M8 24h1M8 25h1M14 25h1M17 25h1M24 25h1M8 26h1M25 26h1M14 27h3M15 28h2" />
<path stroke="#21dcb3" d="M22 6h1M21 11h2M25 12h1M18 13h2M24 13h2M19 14h2M24 14h1M20 15h2M27 16h1M27 17h1M25 18h1M11 19h1M20 19h3M10 20h1M12 20h1M14 20h1M21 20h1M10 21h1M12 21h1M14 21h1M20 21h3M10 22h1M12 22h1M14 22h1M25 24h1M14 26h1M16 26h1" />
<path stroke="#e0e0da" d="M13 7h1M19 7h1M18 8h1M20 8h1M26 8h1M12 9h1M26 9h2M27 10h1M11 11h1M13 11h1M18 11h1M27 11h1M19 12h1M26 12h1M28 12h1M10 13h1M12 13h1M15 13h1M29 13h1M9 14h1M17 14h1M29 14h1M11 15h1M14 15h1M18 15h1M30 15h1M19 16h5M31 16h1M7 17h1M12 17h1M6 18h1M18 20h1M24 21h1M33 21h1M16 22h1M33 22h1" />
<path stroke="#ffffff" d="M14 7h1M14 8h1M27 8h1M13 9h1M13 10h1M19 10h1M12 11h1M28 11h1M12 12h1M11 13h1M11 14h1M22 14h1M30 14h1M10 15h1M31 15h1M9 16h2M9 17h1M8 18h1M7 19h1M27 19h1M33 19h1M16 20h1M19 20h1M27 20h1M33 20h1M16 21h1M11 23h1M13 23h1M26 23h1M11 24h1M13 24h1M15 24h2M15 25h2" />
<path stroke="#eef6ee" d="M20 10h1M23 10h1M20 17h4" />
<path stroke="#069386" d="M24 11h1M26 17h1M26 18h1M12 19h1M11 20h1M13 20h1M11 21h1M13 21h1M11 22h1M13 22h1M15 26h1" />
<path stroke="#626262" d="M25 14h1M12 18h1M5 23h1M4 28h1" />
<path stroke="#529cde" d="M16 15h1M17 16h1M6 19h1M9 19h1M5 20h2M8 20h1M4 21h2M8 21h1M4 22h2M4 23h1" />
<path stroke="#ee415a" d="M26 15h1M32 16h1M31 17h2M31 18h3M32 19h1" />
<path stroke="#94d5ff" d="M18 16h1M19 17h1" />
<path stroke="#eeb441" d="M24 16h2" />
</svg>