<svg xmlns="http://www.w3.org/2000/svg" viewBox="0 -0.5 40 30" shape-rendering="crispEdges">
<metadata>Made with Pixels to Svg https://codepen.io/shshaw/pen/XbxvNj</metadata>
<path stroke="#202020" d="M15 4h3M13 5h2M17 5h1M12 6h1M15 6h2M11 7h1M14 7h1M30 7h2M10 8h1M13 8h1M15 8h3M28 8h2M31 8h1M10 9h1M13 9h2M18 9h2M27 9h1M30 9h1M9 10h1M20 10h1M26 10h1M29 10h1M9 11h1M20 11h1M26 11h1M29 11h1M9 12h1M21 12h2M25 12h1M29 12h1M9 13h1M23 13h2M28 13h2M9 14h1M11 14h1M15 14h1M27 14h1M10 15h1M12 15h1M27 15h1M12 16h1M28 16h1M13 17h1M28 17h1M14 18h1M28 18h1M13 19h1M24 19h1M29 19h2M14 20h1M23 20h1M25 20h2M30 20h1M15 21h1M23 21h1M27 21h1M30 21h1M14 22h1M24 22h1M27 22h1M29 22h1M13 23h1M17 23h1M19 23h2M24 23h1M26 23h1M29 23h1M12 24h1M16 24h1M18 24h1M20 24h1M23 24h1M27 24h2M13 25h3M19 25h1M23 25h1M18 26h1M23 26h1M18 27h2M22 27h1M20 28h2" />
<path stroke="#737b8c" d="M15 5h2M13 6h2M12 7h2M11 8h2M30 8h1M11 9h1M28 9h2M27 10h2M14 11h1M27 11h2M14 12h1M28 12h1M13 15h2M23 15h1M13 16h2M22 17h1M23 22h1M27 23h2M19 26h1M21 27h1" />
<path stroke="#525252" d="M12 9h1M12 10h1M11 11h1M11 12h1M12 13h1M16 13h2M21 13h1M25 13h1M27 13h1M13 14h2M18 14h1M21 14h1M24 14h1M26 14h1M18 15h1M21 15h1M17 16h1M20 16h1M16 17h2M19 17h1M23 17h2M15 18h1M17 18h2M23 18h1M21 19h2M15 20h1M21 20h1M16 21h1M21 21h1M16 22h1M20 22h1M20 26h2M20 27h1" />
<path stroke="#ffffff" d="M15 9h3M13 10h6M12 11h2M15 11h5M12 12h2M15 12h4M13 13h3M22 13h1M17 14h1M22 14h2M25 14h1M22 15h1M24 15h3M22 16h2M25 16h3M25 17h3M21 18h2M25 18h3M14 19h4M26 19h2M16 20h3M17 21h2M17 22h1M21 24h1M20 25h2" />
<path stroke="#63636b" d="M10 10h2M10 11h1M10 12h1M26 12h2M10 13h2M26 13h1M10 14h1M12 14h1M17 15h1M15 16h2M24 16h1M14 17h2M13 24h2" />
<path stroke="#bdbdbd" d="M19 10h1M19 12h2M18 13h3M19 14h2M19 15h2M18 16h2M21 16h1M18 17h1M20 17h2M16 18h1M19 18h2M24 18h1M18 19h3M23 19h1M25 19h1M28 19h1M19 20h2M22 20h1M27 20h3M19 21h2M22 21h1M28 21h2M15 22h1M18 22h2M21 22h2M28 22h1M14 23h3M18 23h1M21 23h3M15 24h1M22 24h1M22 25h1M22 26h1" />
<path stroke="#a54a42" d="M16 14h1" />
<path stroke="#e6524a" d="M15 15h2" />
</svg>