<svg xmlns="http://www.w3.org/2000/svg" viewBox="0 -0.5 40 30" shape-rendering="crispEdges">
<metadata>Made with Pixels to Svg https://codepen.io/shshaw/pen/XbxvNj</metadata>
<path stroke="#202020" d="M20 2h3M18 3h2M22 3h1M17 4h1M21 4h1M9 5h1M16 5h1M21 5h1M8 6h1M10 6h1M14 6h2M21 6h1M8 7h1M11 7h3M18 7h1M21 7h1M8 8h1M18 8h1M20 8h1M32 8h2M18 9h1M20 9h1M30 9h2M34 9h1M8 10h2M18 10h2M22 10h2M26 10h2M29 10h1M33 10h1M8 11h1M18 11h1M21 11h1M24 11h2M27 11h1M32 11h1M7 12h1M18 12h1M22 12h1M32 12h1M7 13h1M19 13h2M23 13h1M31 13h1M7 14h1M21 14h2M31 14h1M7 15h1M13 15h2M30 15h1M8 16h3M12 16h2M29 16h1M11 17h1M30 17h1M12 18h2M15 18h1M31 18h1M13 19h1M30 19h1M12 20h1M29 20h1M11 21h1M21 21h1M23 21h1M30 21h1M11 22h1M20 22h1M22 22h1M30 22h1M12 23h1M20 23h1M23 23h1M25 23h1M28 23h1M30 23h1M12 24h1M14 24h2M19 24h1M24 24h1M26 24h2M29 24h2M13 25h1M15 25h1M19 25h1M16 26h1M18 26h1M16 27h1M18 27h1M17 28h1" />
<path stroke="#ffffff" d="M20 3h2M18 4h3M17 5h3M16 6h1M18 6h2M14 7h2M17 7h1M11 8h4M16 8h2M10 9h5M16 9h2M32 9h2M10 10h4M15 10h3M30 10h3M9 11h9M23 11h1M26 11h1M29 11h2M9 12h9M24 12h1M28 12h2M10 13h4M16 13h2M10 14h2M16 14h1M10 15h1M18 16h2M13 17h2M18 17h3M26 17h1M17 18h3M15 19h1M17 19h2M17 20h2M17 21h3M18 22h1M16 23h1M19 23h1M17 24h1" />
<path stroke="#737363" d="M20 5h1M10 8h1M11 15h1M20 18h1M19 19h1M28 19h1M16 20h1M22 20h1M14 21h2M12 22h1M14 22h2M17 23h2" />
<path stroke="#bdbdbd" d="M9 6h1M9 7h2M19 7h1M9 8h1M31 11h1M30 12h1M27 13h3M12 14h1M27 14h2M16 15h1M18 15h1M15 16h2M24 16h1M28 16h1M12 17h1M17 17h1M24 17h1M28 17h1M16 18h1M28 18h3M14 19h1M16 19h1M29 19h1M13 20h1M15 20h1M19 20h1M27 20h2M12 21h1M20 21h1M27 21h1M29 21h1M17 22h1M18 24h1M18 25h1" />
<path stroke="#525252" d="M17 6h1M20 6h1M16 7h1M20 7h1M15 8h1M19 8h1M9 9h1M15 9h1M19 9h1M14 10h1M28 11h1M27 12h1M31 12h1M15 13h1M18 13h1M26 13h1M30 13h1M15 14h1M17 14h2M26 14h1M29 14h2M12 15h1M17 15h1M19 15h2M24 15h1M27 15h3M11 16h1M14 16h1M17 16h1M21 16h1M23 16h1M25 16h1M27 16h1M15 17h2M21 17h1M23 17h1M25 17h1M27 17h1M29 17h1M14 18h1M24 18h1M27 18h1M22 19h1M24 19h1M27 19h1M14 20h1M20 20h2M26 20h1M13 21h1M16 21h1M26 21h1M13 22h1M16 22h1M19 22h1M23 22h1M27 22h1M14 23h2M27 23h1" />
<path stroke="#ff87a5" d="M22 11h1M25 12h1M8 13h1M25 13h1M8 14h1M23 14h3M8 15h1M21 15h2M25 15h1M26 16h1M22 17h1M22 18h2M26 18h1M20 19h2M23 19h1M25 19h1M25 20h1M25 21h1M25 22h1M24 23h1M26 23h1M16 25h1M17 26h1M17 27h1" />
<path stroke="#dc5072" d="M8 12h1M23 12h1M26 12h1M9 13h1M9 14h1M20 14h1M9 15h1M23 15h1M26 15h1M22 16h1M21 18h1M25 18h1M26 19h1M23 20h2M26 22h1M28 22h1M13 23h1M29 23h1M13 24h1M16 24h1M17 25h1" />
<path stroke="#49be6a" d="M14 13h1M24 13h1M14 14h1M15 15h1M24 21h1" />
<path stroke="#d66342" d="M13 14h1" />
<path stroke="#c03456" d="M19 14h1M20 16h1M22 21h1M28 21h1M29 22h1" />
<path stroke="#299e4a" d="M24 22h1" />
</svg>