<svg xmlns="http://www.w3.org/2000/svg" viewBox="0 -0.5 40 30" shape-rendering="crispEdges">
<metadata>Made with Pixels to Svg https://codepen.io/shshaw/pen/XbxvNj</metadata>
<path stroke="#202020" d="M19 5h4M16 6h3M23 6h2M14 7h2M25 7h2M12 8h2M20 8h2M27 8h1M11 9h1M19 9h1M22 9h1M26 9h1M10 10h1M19 10h1M21 10h1M24 10h2M11 11h1M20 11h1M22 11h2M12 12h1M20 12h1M11 13h1M21 13h1M11 14h1M16 14h1M21 14h1M11 15h1M21 15h2M12 16h1M23 16h1M28 16h1M13 17h3M23 17h2M27 17h1M29 17h1M16 18h1M25 18h2M29 18h1M15 19h2M29 19h1M14 20h1M28 20h1M15 21h1M29 21h1M16 22h1M29 22h1M16 23h1M29 23h1M15 24h1M18 24h1M24 24h3M29 24h1M16 25h4M23 25h1M27 25h2M19 26h1M23 26h1M20 27h3" />
<path stroke="#9cd64a" d="M19 6h4M16 7h9M14 8h6M22 8h5M12 9h2M17 9h2M23 9h2M11 10h1M22 10h2M13 11h1M13 12h1M22 19h1M18 21h1" />
<path stroke="#6b9c4a" d="M14 9h1M25 9h1M12 10h1M12 11h1M22 16h1M21 19h1M15 20h1M18 20h1" />
<path stroke="#525252" d="M15 9h2M13 10h1M17 10h2M14 11h1M14 12h1M22 17h1M20 18h3M18 19h1M20 19h1M23 19h1M17 20h1M19 20h1M21 20h2M17 21h1M19 21h1M18 22h1" />
<path stroke="#8c7b3a" d="M14 10h1M13 13h1M21 16h1M27 19h1M25 22h1M17 23h1M26 23h1M23 24h1M22 26h1" />
<path stroke="#ceb55a" d="M15 10h2M19 11h1M17 12h1M12 13h1M13 15h1M15 16h2M27 18h1M28 19h1M16 20h1M23 20h1M16 21h1M27 21h2M17 22h1M26 22h3M18 23h2M23 23h1M25 23h1M19 24h1M20 25h1M22 25h1" />
<path stroke="#dece6b" d="M15 11h1M18 12h1M19 13h1M21 17h1M28 17h1M28 18h1M27 20h1M26 21h1M27 23h2M28 24h1" />
<path stroke="#ffef63" d="M16 11h3M15 12h2M19 12h1M14 13h2M20 13h1M12 14h4M19 14h2M12 15h1M14 15h2M18 15h3M13 16h2M17 16h4M16 17h5M17 18h3M23 18h2M17 19h1M19 19h1M24 19h3M20 20h1M24 20h3M20 21h6M19 22h6M20 23h3M24 23h1M20 24h3M21 25h1" />
<path stroke="#ffffff" d="M16 13h1M18 13h1M18 14h1M16 24h1M27 24h1M20 26h2" />
<path stroke="#d63131" d="M17 13h1M17 14h1" />
<path stroke="#f76b6b" d="M16 15h2" />
<path stroke="#bdbdbd" d="M17 24h1" />
</svg>