<svg xmlns="http://www.w3.org/2000/svg" viewBox="0 -0.5 40 30" shape-rendering="crispEdges">
<metadata>Made with Pixels to Svg https://codepen.io/shshaw/pen/XbxvNj</metadata>
<path stroke="#202020" d="M19 8h2M18 9h1M21 9h1M18 10h1M22 10h1M19 11h1M22 11h1M15 12h3M19 12h1M22 12h1M14 13h1M18 13h2M21 13h1M23 13h3M13 14h1M21 14h2M26 14h2M14 15h2M28 15h1M16 16h1M28 16h1M15 17h1M28 17h1M15 18h1M26 18h2M14 19h1M26 19h1M14 20h1M26 20h1M14 21h1M26 21h1M14 22h1M26 22h1M15 23h1M25 23h1M16 24h1M24 24h1M17 25h2M22 25h2M19 26h3" />
<path stroke="#acd573" d="M19 9h2M19 10h3M20 11h2M20 12h1M15 13h3M14 14h4M23 14h3M18 15h3M22 15h5M17 16h3M23 16h5M25 17h2" />
<path stroke="#6aa441" d="M21 12h1M20 13h1M18 14h1M20 14h1M27 15h1M27 17h1" />
<path stroke="#525252" d="M19 14h1M16 15h2M21 15h1M20 16h1M22 16h1M17 17h3M23 17h2M25 18h1M17 19h2M15 22h1M25 22h1M16 23h2M23 23h2M18 24h5" />
<path stroke="#bd4a7b" d="M21 16h1M20 17h3M22 18h3M22 19h4M22 20h4M22 21h4M21 22h4M20 23h3" />
<path stroke="#fff600" d="M16 17h1M16 18h1M20 18h1M20 19h1" />
<path stroke="#de6a9c" d="M17 18h3M21 18h1M15 19h2M19 19h1M21 19h1M15 20h7M15 21h7M16 22h5M18 23h2" />
<path stroke="#ffffff" d="M17 24h1" />
<path stroke="#b4bdcd" d="M23 24h1M19 25h3" />
</svg>