<svg xmlns="http://www.w3.org/2000/svg" viewBox="0 -0.5 40 30" shape-rendering="crispEdges">
<metadata>Made with Pixels to Svg https://codepen.io/shshaw/pen/XbxvNj</metadata>
<path stroke="#202020" d="M18 2h2M11 3h1M15 3h2M18 3h1M20 3h1M33 3h2M10 4h1M12 4h1M14 4h1M16 4h1M18 4h1M21 4h1M33 4h1M35 4h1M10 5h1M12 5h2M16 5h1M19 5h1M21 5h1M33 5h1M36 5h1M9 6h1M16 6h1M19 6h1M22 6h2M34 6h1M36 6h1M7 7h1M9 7h1M15 7h1M19 7h1M24 7h1M34 7h1M37 7h1M6 8h1M8 8h1M15 8h1M19 8h1M25 8h2M33 8h1M37 8h1M6 9h1M15 9h1M20 9h1M27 9h2M33 9h1M36 9h1M5 10h1M15 10h1M19 10h1M29 10h1M32 10h1M36 10h1M5 11h1M16 11h1M19 11h1M30 11h1M32 11h1M36 11h1M4 12h1M16 12h1M18 12h1M30 12h1M32 12h1M36 12h1M4 13h1M17 13h1M31 13h1M33 13h1M37 13h1M3 14h1M24 14h3M31 14h1M33 14h1M37 14h1M3 15h1M23 15h1M27 15h1M32 15h1M34 15h1M38 15h1M3 16h1M8 16h1M24 16h1M28 16h1M33 16h1M38 16h1M2 17h1M7 17h1M13 17h1M25 17h1M28 17h1M31 17h2M38 17h1M1 18h1M12 18h1M14 18h1M26 18h1M29 18h1M31 18h1M33 18h1M38 18h1M1 19h1M8 19h1M12 19h1M14 19h1M26 19h1M29 19h1M32 19h1M34 19h1M37 19h1M2 20h1M7 20h1M9 20h1M13 20h1M27 20h1M30 20h1M32 20h1M34 20h1M36 20h1M3 21h2M6 21h1M10 21h4M28 21h1M30 21h1M33 21h1M36 21h1M5 22h1M14 22h1M29 22h2M35 22h1M15 23h4M34 23h1M19 24h2M26 24h2M32 24h2M21 25h1M25 25h1M28 25h4M22 26h3" />
<path stroke="#f79473" d="M19 3h1M11 4h1M19 4h2M11 5h1M20 5h1M10 6h2M20 6h1M10 7h1M20 7h2M23 7h1M9 8h2M21 8h1M23 8h2M8 9h3M12 9h1M21 9h2M24 9h3M8 10h2M11 10h2M22 10h7M7 11h3M11 11h1M22 11h3M26 11h3M6 12h3M10 12h2M23 12h3M27 12h2M5 13h3M9 13h2M25 13h2M4 14h7M17 14h1M27 14h2M4 15h3M8 15h1M16 15h3M5 16h1M7 16h1M16 16h1M18 16h3M3 17h2M20 17h2M2 18h6M21 18h2M2 19h2M5 19h2M21 19h1M23 19h2M4 20h1M20 20h2M23 20h1M19 21h2M22 21h1M34 21h2M24 22h1M32 22h3M22 23h2M31 23h3" />
<path stroke="#b5423a" d="M15 4h1M14 5h2M13 6h3M12 7h3M13 8h2M7 9h1M14 9h1M14 10h1M6 11h1M14 11h2M5 12h1M14 12h2M15 13h1M28 13h1M29 14h1M19 15h2M30 15h1M6 16h1M17 16h1M30 16h2M12 17h1M11 18h1M4 19h1M10 19h2M30 19h1M11 20h1M22 20h1M21 21h1M23 21h1M21 22h1M23 25h1" />
<path stroke="#ff4a3a" d="M34 4h1M34 5h2M35 6h1M35 7h2M34 8h3M34 9h2M34 10h2M34 11h2M34 14h1M35 15h1M34 16h1M34 17h1M37 17h1M37 18h1" />
<path stroke="#525252" d="M12 6h1M11 7h1M11 8h2M11 9h1M13 9h1M7 10h1M10 10h1M13 10h1M21 10h1M10 11h1M12 11h1M21 11h1M9 12h1M12 12h1M22 12h1M11 13h3M16 13h1M20 13h1M23 13h2M14 14h2M19 14h1M11 16h2M21 16h1M11 17h1M18 17h2M22 17h1M33 17h1M10 18h1M20 18h1M23 18h2M9 19h1M19 19h2M25 19h1M6 20h1M15 20h1M18 20h2M24 20h1M17 21h1M24 21h1M27 21h1M32 21h1M18 22h2M22 22h2M27 22h1M31 22h1M20 23h2M26 23h1" />
<path stroke="#d6635a" d="M21 6h1M22 7h1M7 8h1M20 8h1M22 8h1M23 9h1M6 10h1M20 10h1M20 11h1M25 11h1M29 11h1M19 12h2M26 12h1M29 12h1M8 13h1M18 13h2M27 13h1M29 13h2M11 14h3M16 14h1M18 14h1M30 14h1M7 15h1M10 15h6M21 15h1M28 15h2M31 15h1M4 16h1M10 16h1M15 16h1M22 16h2M29 16h1M32 16h1M5 17h2M9 17h2M23 17h2M29 17h2M8 18h2M25 18h1M30 18h1M7 19h1M22 19h1M31 19h1M3 20h1M5 20h1M14 20h1M25 20h2M31 20h1M35 20h1M14 21h3M25 21h2M31 21h1M15 22h3M25 22h2M28 22h1M24 23h2M27 23h4M21 24h5M28 24h4" />
<path stroke="#ff9c31" d="M33 10h1M33 12h1M34 13h1M36 13h1M35 14h1M35 16h1M37 16h1M34 18h1M35 19h1" />
<path stroke="#3a6b84" d="M13 11h1M13 12h1M21 12h1M14 13h1M20 14h2M22 15h1" />
<path stroke="#ffe629" d="M33 11h1M34 12h2M35 13h1M36 14h1M36 15h2M36 16h1M35 17h2M35 18h2M36 19h1" />
<path stroke="#4a84bd" d="M21 13h2M22 14h2M8 17h1" />
<path stroke="#ffffff" d="M9 15h1M9 16h1M5 21h1M18 21h1M20 22h1M22 25h1" />
<path stroke="#d6b563" d="M13 16h2M14 17h1M15 19h1M16 20h1M19 23h1" />
<path stroke="#f7de94" d="M15 17h3M15 18h5M16 19h3M17 20h1" />
<path stroke="#bdbdbd" d="M10 20h1M12 20h1M24 25h1" />
</svg>