<svg xmlns="http://www.w3.org/2000/svg" viewBox="0 -0.5 40 30" shape-rendering="crispEdges">
<metadata>Made with Pixels to Svg https://codepen.io/shshaw/pen/XbxvNj</metadata>
<path stroke="#202020" d="M24 5h1M23 6h1M25 6h1M17 7h2M23 7h1M25 7h1M16 8h1M19 8h1M22 8h1M26 8h1M15 9h1M19 9h1M22 9h1M27 9h1M13 10h2M18 10h1M22 10h1M27 10h1M12 11h1M18 11h1M23 11h1M26 11h1M11 12h1M19 12h1M23 12h1M26 12h1M11 13h1M19 13h1M24 13h1M27 13h1M10 14h1M16 14h1M20 14h1M25 14h1M28 14h1M9 15h1M21 15h1M25 15h1M29 15h1M9 16h1M15 16h1M22 16h2M26 16h1M29 16h1M10 17h1M24 17h1M26 17h1M30 17h1M11 18h1M30 18h1M10 19h1M15 19h2M29 19h1M9 20h1M14 20h1M16 20h1M29 20h1M9 21h1M12 21h2M15 21h1M28 21h1M10 22h2M15 22h1M27 22h1M15 23h1M19 23h1M26 23h1M16 24h3M20 24h1M26 24h1M21 25h1M25 25h1M21 26h1M25 26h1M22 27h3" />
<path stroke="#f76b4a" d="M24 6h1M24 7h1M18 8h1M23 8h1M25 8h1M16 9h2M23 9h1M25 9h2M15 10h3M26 10h1M13 11h4M12 12h6M12 13h7M25 13h1M11 14h2M14 14h2M17 14h2M26 14h2M10 15h3M14 15h1M17 15h1M26 15h3M10 16h4M20 16h2M27 16h2M11 17h1M13 17h3M21 17h2M27 17h1M21 18h2M22 19h1" />
<path stroke="#ce4a42" d="M17 8h1M18 9h1M18 12h1M25 12h1M26 13h1M13 14h1M19 14h1M18 15h2M17 16h3M12 17h1M16 17h2M19 17h2M23 17h1M28 17h2M13 18h2M19 18h1M23 18h2M26 18h4M20 19h1M24 19h1M26 19h3M21 20h3M25 20h1M27 20h2M20 21h4M25 21h1M27 21h1M20 22h3M24 22h2M20 23h2M23 23h3M22 24h3" />
<path stroke="#f7a542" d="M24 8h1M23 10h1M25 10h1M25 11h1M24 12h1" />
<path stroke="#f7f729" d="M24 9h1M24 10h1M24 11h1" />
<path stroke="#525252" d="M17 11h1M20 15h1M14 16h1M18 17h1M12 18h1M15 18h3M20 18h1M25 18h1M13 19h2M21 19h1M23 19h1M25 19h1M20 20h1M24 20h1M26 20h1M17 21h1M19 21h1M24 21h1M26 21h1M18 22h1M23 22h1M26 22h1M22 23h1M21 24h1" />
<path stroke="#a5423a" d="M13 15h1M11 19h2M11 20h3M10 21h1M16 21h1M16 22h2M17 23h2M25 24h1M22 25h3M23 26h1" />
<path stroke="#196363" d="M15 15h1" />
<path stroke="#ffffff" d="M16 15h1M16 16h1M19 22h1M22 26h1" />
<path stroke="#d6b57b" d="M18 18h1M19 19h1M18 21h1" />
<path stroke="#f7d69c" d="M17 19h2M17 20h3" />
<path stroke="#bdbdbd" d="M10 20h1M11 21h1M16 23h1M24 26h1" />
</svg>