<svg xmlns="http://www.w3.org/2000/svg" viewBox="0 -0.5 40 30" shape-rendering="crispEdges">
<metadata>Made with Pixels to Svg https://codepen.io/shshaw/pen/XbxvNj</metadata>
<path stroke="#202020" d="M19 6h3M17 7h2M22 7h2M16 8h1M24 8h1M14 9h2M25 9h2M13 10h1M27 10h1M12 11h1M28 11h1M11 12h1M20 12h1M29 12h1M10 13h1M29 13h1M10 14h1M30 14h1M9 15h1M31 15h1M9 16h1M14 16h2M26 16h1M32 16h1M9 17h1M13 17h1M16 17h1M25 17h1M27 17h1M32 17h1M8 18h1M13 18h1M17 18h1M24 18h1M28 18h1M33 18h1M8 19h1M13 19h1M16 19h1M23 19h1M28 19h1M33 19h1M8 20h1M13 20h1M15 20h1M24 20h1M29 20h1M33 20h1M8 21h1M13 21h2M25 21h1M29 21h1M33 21h1M8 22h1M13 22h2M19 22h3M25 22h1M29 22h1M33 22h1M9 23h4M14 23h1M19 23h1M21 23h1M26 23h1M28 23h1M33 23h1M15 24h1M18 24h1M22 24h1M28 24h1M33 24h1M16 25h3M22 25h1M28 25h1M33 25h1M22 26h1M26 26h1M28 26h1M33 26h1M23 27h3M28 27h1M32 27h1M29 28h3" />
<path stroke="#f7845a" d="M19 7h3M17 8h5M16 9h1M20 9h1M14 10h1M25 10h1M14 11h1M24 11h2M14 12h1M24 12h1M28 12h1M14 13h2M23 13h2M27 13h2M15 14h1M23 14h7M16 15h1M22 15h4M28 15h3M21 16h3M29 16h3M30 17h2M30 18h3M30 19h3M30 20h3M23 21h2M30 21h3M22 22h3M30 22h3M23 23h1M30 23h3M23 24h1M29 24h4M29 25h4M29 26h4M30 27h2" />
<path stroke="#d65a4a" d="M22 8h2M21 9h4M21 10h3M13 11h1M22 11h1M12 12h2M11 13h3M11 14h2M21 14h1M10 15h2M15 15h1M20 15h1M26 15h2M10 16h2M16 16h2M24 16h1M28 16h1M10 17h1M17 17h2M21 17h4M29 17h1M9 18h2M19 18h4M9 19h2M18 19h1M9 20h2M16 20h1M18 20h5M9 21h2M16 21h2M19 21h3M16 22h3M15 23h4M22 23h1M29 23h1M16 24h2M23 25h3M23 26h3" />
<path stroke="#84ceb5" d="M17 9h1M19 9h1M16 10h2M19 10h2M16 11h1M18 11h1M26 11h2M16 12h1M25 12h2M24 23h2" />
<path stroke="#7b4ac5" d="M18 9h1M18 10h1M17 11h1M17 12h1M17 13h1M18 14h1" />
<path stroke="#525252" d="M15 10h1M15 11h1M15 12h1M22 12h1M16 13h1M19 13h3M14 14h1M16 14h1M14 15h1M17 15h1M18 16h3M25 16h1M17 19h1M17 20h1M23 20h1M18 21h1M22 21h1M9 22h1M12 22h1M26 24h1M26 25h1" />
<path stroke="#9c4a3a" d="M24 10h1M23 11h1M23 12h1M22 13h1M13 14h1M22 14h1M12 15h1M21 15h1M12 16h1M11 17h1M11 18h1M18 18h1M23 18h1M11 19h1M19 19h4M11 20h1M11 21h1M10 22h1M29 27h1" />
<path stroke="#63ad94" d="M26 10h1M19 11h3M18 12h2M27 12h1M18 13h1M25 13h2M17 14h1M19 14h2M13 15h1M18 15h2M13 16h1M27 16h1M12 17h1M28 17h1M12 18h1M29 18h1M12 19h1M29 19h1M12 20h1M12 21h1M15 21h1M11 22h1M24 24h2" />
<path stroke="#ffffff" d="M21 12h1" />
<path stroke="#9463e6" d="M19 17h2" />
<path stroke="#4a846b" d="M15 22h1" />
</svg>