<svg xmlns="http://www.w3.org/2000/svg" viewBox="0 -0.5 40 30" shape-rendering="crispEdges">
<metadata>Made with Pixels to Svg https://codepen.io/shshaw/pen/XbxvNj</metadata>
<path stroke="#202020" d="M17 15h2M16 16h1M19 16h1M21 16h3M14 17h2M20 17h1M24 17h1M13 18h1M17 18h1M25 18h1M13 19h1M21 19h1M25 19h1M13 20h1M26 20h1M12 21h1M26 21h1M12 22h1M27 22h1M12 23h1M27 23h1M13 24h2M27 24h1M15 25h2M25 25h2M17 26h1M22 26h3M18 27h4" />
<path stroke="#c5a5ce" d="M17 16h1M22 17h1" />
<path stroke="#947bce" d="M18 16h1M16 17h4M23 17h1M14 18h1M16 18h1M18 18h7M14 19h7M22 19h3M14 20h2M18 20h8M14 21h4M23 21h3M15 22h1M17 22h8M18 23h3M23 23h1" />
<path stroke="#7b5aad" d="M21 17h1M13 21h1M13 22h2M16 22h1M25 22h2M14 23h4M21 23h2M24 23h3M16 24h11M18 25h4M23 25h1M19 26h2" />
<path stroke="#525252" d="M15 18h1M16 20h2M18 21h5M13 23h1M15 24h1M17 25h1M22 25h1M24 25h1M18 26h1M21 26h1" />
</svg>