<svg xmlns="http://www.w3.org/2000/svg" viewBox="0 -0.5 40 30" shape-rendering="crispEdges">
<metadata>Made with Pixels to Svg https://codepen.io/shshaw/pen/XbxvNj</metadata>
<path stroke="#202020" d="M9 6h1M17 6h2M8 7h1M10 7h1M16 7h1M19 7h1M23 7h2M8 8h1M10 8h1M15 8h1M19 8h1M22 8h1M24 8h1M9 9h1M11 9h2M15 9h1M20 9h2M23 9h1M26 9h2M10 10h1M13 10h2M22 10h1M25 10h1M28 10h1M11 11h1M13 11h1M20 11h2M25 11h1M29 11h1M12 12h1M20 12h1M24 12h1M30 12h1M10 13h2M20 13h1M24 13h1M30 13h1M8 14h2M16 14h1M21 14h1M23 14h1M31 14h1M7 15h1M15 15h2M21 15h2M27 15h3M31 15h1M7 16h1M23 16h2M26 16h1M30 16h1M8 17h1M25 17h2M9 18h3M27 18h1M30 18h1M12 19h2M28 19h2M31 19h1M14 20h1M31 20h1M13 21h1M30 21h1M13 22h1M29 22h1M14 23h1M27 23h2M15 24h4M26 24h1M19 25h3M25 25h1M22 26h1M26 26h1M23 27h3" />
<path stroke="#f7e6bd" d="M9 7h1M9 8h1M23 8h1M10 9h1M22 9h1M19 10h3M18 11h1M17 12h1M17 19h1M16 20h3M17 22h3M19 24h1" />
<path stroke="#b5845a" d="M17 7h1M16 8h3M18 9h1M15 11h2M17 13h1M10 14h1M9 15h1M8 16h2M15 16h1M9 17h1M13 17h1M16 18h1M18 19h1M30 19h1M25 20h1M27 20h4M14 21h1M21 21h1M26 21h4M14 22h2M20 22h1M26 22h3M16 23h1M20 23h1M24 26h1" />
<path stroke="#525252" d="M18 7h1M16 9h1M19 9h1M17 10h2M12 11h1M17 11h1M19 11h1M16 12h1M18 12h1M12 13h1M11 14h1M10 15h1M10 16h1M16 16h1M10 17h1M17 18h1M20 18h1M14 19h3M21 19h1M27 19h1M15 20h1M22 20h1M26 20h1M15 21h1M23 21h3M16 22h1M25 22h1M15 23h1M17 23h1M26 23h1M20 24h1" />
<path stroke="#4a9484" d="M17 9h1M27 11h1M27 12h2M26 13h2M25 14h1M27 14h1M24 15h1" />
<path stroke="#d6c57b" d="M11 10h2M16 21h4M18 23h2" />
<path stroke="#f7b563" d="M15 10h2M26 10h2M14 11h1M26 11h1M28 11h1M13 12h3M19 12h1M25 12h2M29 12h1M13 13h4M18 13h2M25 13h1M29 13h1M12 14h3M17 14h4M24 14h1M30 14h1M11 15h4M18 15h3M23 15h1M30 15h1M11 16h4M18 16h5M11 17h2M14 17h11M12 18h4M18 18h2M21 18h6M19 19h2M22 19h4M19 20h3M23 20h1M20 21h1M22 21h1M21 22h4M21 23h5M21 24h5M22 25h3" />
<path stroke="#52bda5" d="M28 13h1M26 14h1M28 14h2M25 15h2M25 16h1" />
<path stroke="#ffffff" d="M15 14h1M17 15h1M17 16h1M26 19h1M24 20h1M23 26h1M25 26h1" />
<path stroke="#bdbdb5" d="M8 15h1" />
</svg>