<svg xmlns="http://www.w3.org/2000/svg" viewBox="0 -0.5 40 30" shape-rendering="crispEdges">
<metadata>Made with Pixels to Svg https://codepen.io/shshaw/pen/XbxvNj</metadata>
<path stroke="#202020" d="M14 10h2M13 11h1M15 11h1M13 12h1M15 12h1M24 12h2M12 13h1M16 13h3M23 13h1M25 13h1M12 14h1M19 14h1M22 14h1M25 14h1M13 15h1M20 15h2M24 15h1M13 16h1M24 16h1M12 17h1M17 17h2M25 17h1M11 18h1M18 18h1M24 18h1M11 19h1M23 19h1M25 19h1M12 20h1M20 20h1M22 20h1M26 20h2M13 21h2M20 21h1M22 21h1M28 21h1M15 22h1M21 22h1M29 22h1M15 23h1M26 23h2M30 23h1M16 24h1M25 24h1M28 24h2M16 25h1M24 25h1M17 26h1M22 26h2M18 27h4" />
<path stroke="#bdbdbd" d="M14 11h1M14 12h1M13 13h2M13 14h1M24 14h1M22 16h2M21 18h1M22 19h1M16 22h2M16 23h1M24 24h1M17 25h1M20 25h4M18 26h4" />
<path stroke="#525252" d="M15 13h1M14 14h1M21 16h1M20 17h1M20 18h1M21 19h1M24 19h1M23 20h1M22 23h1" />
<path stroke="#ffffff" d="M24 13h1M15 14h1M23 14h1M22 15h2M17 16h1M13 17h1M21 17h4M12 18h4M12 19h5M13 20h3M17 23h2M17 24h3M18 25h2" />
<path stroke="#638cbd" d="M16 14h1M14 15h2M14 17h2M16 18h1M17 19h1M16 20h4M15 21h5M26 21h2M18 22h3M25 22h4M19 23h2M24 23h2M28 23h2M20 24h4" />
<path stroke="#8cb5ff" d="M17 14h2M16 15h4M14 16h3M19 16h2M16 17h1M19 17h1M19 18h1M18 19h3M24 20h2M23 21h3M22 22h3" />
<path stroke="#5a739c" d="M18 16h1M17 18h1M21 23h1M23 23h1" />
<path stroke="#848473" d="M22 18h2" />
</svg>