<svg xmlns="http://www.w3.org/2000/svg" viewBox="0 -0.5 40 30" shape-rendering="crispEdges">
<metadata>Made with Pixels to Svg https://codepen.io/shshaw/pen/XbxvNj</metadata>
<path stroke="#202020" d="M13 6h2M10 7h3M14 7h1M9 8h1M14 8h3M21 8h4M8 9h1M17 9h4M24 9h1M8 10h1M23 10h1M8 11h1M10 11h1M23 11h1M9 12h1M22 12h1M9 13h2M15 13h1M22 13h1M9 14h1M21 14h1M10 15h1M15 15h1M20 15h1M25 15h2M10 16h1M20 16h1M23 16h2M27 16h1M11 17h2M20 17h1M22 17h1M28 17h1M13 18h2M21 18h1M29 18h1M15 19h1M29 19h1M15 20h1M28 20h1M14 21h1M29 21h1M14 22h1M29 22h1M13 23h1M30 23h1M13 24h1M30 24h1M14 25h4M23 25h2M27 25h3M18 26h2M22 26h1M25 26h2M20 27h2" />
<path stroke="#427342" d="M13 7h1M10 8h3M9 9h2M9 10h1M16 10h1M9 11h1M15 11h1M17 12h1M16 13h1M11 14h1M17 16h3M17 17h3M18 18h1M27 20h1M25 21h3M23 22h2" />
<path stroke="#525252" d="M13 8h1M11 9h1M13 9h2M10 10h1M12 10h1M14 10h1M18 10h1M12 11h2M17 11h1M17 14h1M18 15h2M11 16h1M24 18h2M22 19h1M26 19h2M15 21h1M28 22h1M14 23h1M19 23h1M25 23h3M29 23h1M15 24h1M20 24h5M27 24h1" />
<path stroke="#bda542" d="M12 9h1M11 10h1M15 12h1M10 14h1M16 17h1M24 17h3M17 18h1M26 18h3M17 19h1M28 19h1M20 20h1M26 20h1M28 21h1M25 22h3M23 23h2" />
<path stroke="#52945a" d="M15 9h2M21 9h3M15 10h1M19 10h4M11 11h1M14 11h1M18 11h5M11 12h4M18 12h4M11 13h4M17 13h5M12 14h3M16 14h1M18 14h3M14 15h1M16 15h2M19 18h2M22 18h2M19 19h3M25 19h1M19 20h1M21 20h4M19 21h2M20 22h3" />
<path stroke="#ffffff" d="M13 10h1M10 12h1M15 14h1" />
<path stroke="#f7f729" d="M17 10h1M16 11h1M16 12h1M15 16h2M25 16h2M23 17h1M27 17h1M18 19h1M18 20h1M25 20h1M18 21h1M21 21h4M19 22h1M20 23h3" />
<path stroke="#42c5ff" d="M11 15h3M12 16h3M13 17h3M23 19h2M16 20h2M16 21h2M15 22h4M16 23h2" />
<path stroke="#3a94c5" d="M15 18h2M16 19h1M15 23h1M18 23h1M28 23h1M14 24h1M16 24h4M25 24h2M28 24h2M18 25h5M25 25h2M20 26h2" />
</svg>