<svg xmlns="http://www.w3.org/2000/svg" viewBox="0 -0.5 40 30" shape-rendering="crispEdges">
<metadata>Made with Pixels to Svg https://codepen.io/shshaw/pen/XbxvNj</metadata>
<path stroke="#202020" d="M20 10h2M19 11h1M22 11h1M16 12h2M19 12h1M22 12h1M14 13h2M18 13h2M21 13h1M13 14h1M22 14h1M13 15h1M23 15h3M13 16h1M26 16h1M14 17h1M26 17h1M14 18h1M26 18h1M14 19h1M24 19h2M15 20h1M24 20h1M14 21h1M23 21h1M14 22h1M21 22h2M15 23h1M23 23h1M16 24h1M22 24h1M16 25h1M18 25h1M22 25h1M17 26h1M19 26h1M21 26h1M20 27h1" />
<path stroke="#7b7b7b" d="M20 11h2M20 12h2M17 14h1M20 15h1M18 16h1M17 23h1M22 23h1M19 24h2M17 25h1M21 25h1M20 26h1" />
<path stroke="#ffffff" d="M16 13h2M14 14h2M14 15h1M14 16h1M16 16h1M24 16h2M15 17h1M22 17h4M15 18h1M20 18h1M22 18h2M25 18h1M21 19h1M23 19h1M16 20h1M21 20h1M15 21h2M18 21h2M15 22h1M17 22h3M18 23h2" />
<path stroke="#525252" d="M20 13h1M18 14h4M18 15h2M21 15h2M15 16h1M21 16h1M23 16h1M21 18h1M22 19h1M20 22h1M16 23h1M20 23h2M21 24h1" />
<path stroke="#bdbdc5" d="M16 14h1M15 15h1M24 18h1M16 22h1M17 24h2M19 25h2" />
<path stroke="#c5a5ce" d="M16 15h2M17 16h1M19 16h2M22 16h1M17 17h5M17 18h3M16 19h1M19 19h1M19 20h1M22 20h1M17 21h1M20 21h2" />
<path stroke="#63c5f7" d="M16 17h1M20 19h1" />
<path stroke="#3a6394" d="M16 18h1M20 20h1" />
<path stroke="#a573bd" d="M15 19h1M23 20h1M22 21h1" />
<path stroke="#ce526b" d="M17 19h1M17 20h2" />
<path stroke="#f77b94" d="M18 19h1" />
</svg>