<svg xmlns="http://www.w3.org/2000/svg" viewBox="0 -0.5 40 30" shape-rendering="crispEdges">
<metadata>Made with Pixels to Svg https://codepen.io/shshaw/pen/XbxvNj</metadata>
<path stroke="#202020" d="M11 5h3M10 6h1M14 6h2M10 7h1M16 7h1M9 8h1M17 8h4M9 9h1M21 9h2M24 9h5M10 10h1M12 10h1M23 10h1M29 10h1M11 11h1M15 11h1M30 11h1M11 12h1M18 12h1M30 12h1M11 13h1M29 13h1M11 14h1M26 14h3M12 15h1M25 15h1M12 16h2M24 16h1M11 17h1M14 17h1M24 17h1M11 18h1M25 18h1M12 19h1M25 19h1M13 20h1M26 20h3M13 21h1M28 21h1M13 22h1M27 22h1M12 23h1M27 23h1M13 24h5M26 24h1M18 25h3M26 25h1M21 26h1M25 26h1M22 27h3" />
<path stroke="#efbdde" d="M11 6h2M11 7h3M13 8h2M17 9h2M26 10h2M24 11h3M12 17h2M20 19h2" />
<path stroke="#d69cce" d="M13 6h1M14 7h2M10 8h3M15 8h2M10 9h5M19 9h2M11 10h1M16 10h3M20 10h3M25 10h1M28 10h1M12 11h1M14 11h1M16 11h2M20 11h4M27 11h1M12 12h1M14 12h1M17 12h1M20 12h1M22 12h5M12 13h1M17 13h3M21 13h1M23 13h1M26 13h1M12 14h2M15 14h1M21 14h1M23 14h1M13 15h4M19 15h3M15 16h5M12 18h3M15 20h1M20 20h3M15 21h3M21 21h1M15 22h5M24 22h1M13 23h1M16 23h3M21 23h4M21 24h3M22 26h1M24 26h1" />
<path stroke="#525252" d="M15 9h1M14 10h1M13 11h1M28 11h2M13 12h1M15 12h2M21 12h1M27 12h3M16 13h1M20 13h1M22 13h1M24 13h1M27 13h2M17 14h1M19 14h2M22 14h1M25 14h1M22 15h1M23 16h1M15 17h1M20 17h4M15 18h4M20 18h4M15 19h5M22 19h1M14 20h1M16 20h2M19 20h1M23 20h1M20 21h1M22 21h3M26 21h1M14 22h1M21 22h3M15 23h1M20 23h1M20 24h1M21 25h1M25 25h1" />
<path stroke="#8463a5" d="M16 9h1M13 10h1M15 13h1M25 13h1M18 15h1M24 15h1M19 17h1M14 19h1M26 22h1M26 23h1M25 24h1M22 25h3" />
<path stroke="#ffffff" d="M15 10h1M19 11h1M19 12h1M14 13h1M18 14h1" />
<path stroke="#ad7bbd" d="M19 10h1M24 10h1M18 11h1M13 13h1M14 14h1M16 14h1M24 14h1M17 15h1M23 15h1M14 16h1M20 16h3M16 17h3M24 18h1M13 19h1M23 19h2M18 20h1M24 20h2M14 21h1M18 21h2M25 21h1M27 21h1M20 22h1M25 22h1M14 23h1M19 23h1M25 23h1M18 24h2M24 24h1M23 26h1" />
<path stroke="#bdbdbd" d="M19 18h1" />
</svg>