<svg xmlns="http://www.w3.org/2000/svg" viewBox="0 -0.5 40 30" shape-rendering="crispEdges">
<metadata>Made with Pixels to Svg https://codepen.io/shshaw/pen/XbxvNj</metadata>
<path stroke="#202020" d="M17 3h2M15 4h2M19 4h1M14 5h1M20 5h1M14 6h1M20 6h1M13 7h1M20 7h1M13 8h1M19 8h1M13 9h1M19 9h1M21 9h2M26 9h3M14 10h1M20 10h1M22 10h1M25 10h1M29 10h1M14 11h1M21 11h1M25 11h1M29 11h1M14 12h1M21 12h1M25 12h1M29 12h1M13 13h1M22 13h1M26 13h1M28 13h1M12 14h1M22 14h1M26 14h1M28 14h1M12 15h1M22 15h1M26 15h1M28 15h1M13 16h1M21 16h1M25 16h1M28 16h1M14 17h1M22 17h1M25 17h1M28 17h1M15 18h1M23 18h2M28 18h1M14 19h1M17 19h1M27 19h1M12 20h2M16 20h1M18 20h1M27 20h1M11 21h1M15 21h1M18 21h1M26 21h1M10 22h1M14 22h1M17 22h1M25 22h1M9 23h1M14 23h1M16 23h1M25 23h1M9 24h1M13 24h1M16 24h1M20 24h1M25 24h1M10 25h3M17 25h3M21 25h1M25 25h1M21 26h1M25 26h1M21 27h1M25 27h1M21 28h1M24 28h1M22 29h2" />
<path stroke="#d5bd4a" d="M17 4h2M16 5h1M19 5h1M14 9h1M16 9h2M15 10h3M27 10h1M16 11h1M26 11h3M26 12h1M28 12h1M19 18h2M18 19h2M23 20h1M12 21h1M22 21h2M11 22h1M24 22h1M10 23h1M23 23h2M10 24h1M24 24h1M23 25h1M22 26h2M22 27h1M22 28h1" />
<path stroke="#a49431" d="M15 5h1M17 5h2M16 6h1M19 6h1M14 8h1M16 8h2M15 9h1M18 9h1M27 12h1M27 14h1M20 17h1M15 19h1M14 20h1M23 22h1M23 24h1M24 25h1" />
<path stroke="#ffde52" d="M15 6h1M17 6h1M14 7h6M15 8h1M18 8h1M27 13h1" />
<path stroke="#ffffff" d="M18 6h1M19 13h1M19 14h1M19 15h1" />
<path stroke="#414141" d="M18 10h1M26 10h1M28 10h1M15 11h1M17 11h1M16 12h1M19 12h1M16 13h1M15 15h1M18 17h2M21 17h1M17 18h1M16 19h1M23 19h1M15 20h1M21 20h2M24 20h1M13 21h2M21 21h1M24 21h1M12 22h2M18 22h1M22 22h1M11 23h3M19 23h1M22 23h1M11 24h2M17 24h1M22 24h1M22 25h1" />
<path stroke="#838383" d="M19 10h1M18 11h1M20 13h2M20 14h2M20 15h2M15 16h1M17 16h4M26 16h1M16 17h2M27 17h1M16 18h1M18 18h1M25 18h3M24 19h3M25 20h2M25 21h1M19 22h1M17 23h2M20 23h2M18 24h2M21 24h1" />
<path stroke="#bdbdbd" d="M21 10h1M19 11h2M15 12h1M17 12h2M14 13h2M17 13h1M13 14h5M13 15h2M16 15h3M27 15h1M14 16h1M16 16h1M27 16h1M15 17h1M26 17h1M22 18h1M21 19h2M20 20h1M19 21h2M20 22h2" />
<path stroke="#626262" d="M20 12h1M21 18h1M20 19h1M19 20h1" />
<path stroke="#000000" d="M18 13h1" />
<path stroke="#f66a52" d="M18 14h1M24 26h1M23 27h2M23 28h1" />
</svg>