<svg xmlns="http://www.w3.org/2000/svg" viewBox="0 -0.5 40 30" shape-rendering="crispEdges">
<metadata>Made with Pixels to Svg https://codepen.io/shshaw/pen/XbxvNj</metadata>
<path stroke="#202020" d="M14 4h1M13 5h1M15 5h1M19 5h1M13 6h1M16 6h3M20 6h1M13 7h1M20 7h1M13 8h1M21 8h1M12 9h1M18 9h1M21 9h1M12 10h1M21 10h1M12 11h1M20 11h1M12 12h1M20 12h1M13 13h2M21 13h1M15 14h1M21 14h1M16 15h1M22 15h2M31 15h2M14 16h3M24 16h1M30 16h1M32 16h1M13 17h1M23 17h1M29 17h1M31 17h1M12 18h2M22 18h2M29 18h1M31 18h1M11 19h1M15 19h1M24 19h1M28 19h1M31 19h1M11 20h4M16 20h1M25 20h3M30 20h1M30 21h1M15 22h1M28 22h2M15 23h1M25 23h3M16 24h1M19 24h3M25 24h1M15 25h1M18 25h1M22 25h1M24 25h1M15 26h3M22 26h1M24 26h1M22 27h2" />
<path stroke="#4a4a4a" d="M14 5h1M14 6h2M14 7h1M18 7h1M17 8h1M20 8h1M16 9h2M16 10h1M14 11h1M16 11h1M13 12h1M17 12h2M19 13h2M18 14h2M17 15h2M21 15h1M22 16h1M15 17h2M21 17h2M14 18h1M16 18h2M19 18h2M12 19h1M16 19h1M18 19h1M20 19h2M23 19h1M29 19h1M17 20h1M19 20h1M22 20h2M16 21h1M19 21h3M24 21h1M25 22h1M16 25h2" />
<path stroke="#6b6b63" d="M19 6h1M15 7h3M19 7h1M14 8h3M18 8h2M13 9h3M20 9h1M13 10h3M20 10h1M13 11h1M15 11h1M19 11h1M14 12h3M20 14h1M19 15h2M17 16h5M31 16h1M17 17h4M30 17h1M18 18h1M30 18h1M20 20h1M23 26h1" />
<path stroke="#ffffff" d="M19 9h1M17 10h1M19 10h1M18 11h1" />
<path stroke="#1963ce" d="M18 10h1M17 11h1" />
<path stroke="#f7ef6b" d="M19 12h1M16 13h3M22 19h1M18 20h1M21 20h1M17 21h2M22 21h2M27 21h1M18 22h2M21 22h2M19 23h2M24 23h1M22 24h3M23 25h1" />
<path stroke="#d6b529" d="M15 13h1M16 14h2M13 19h2M24 20h1M25 21h2M26 22h2M16 23h1M17 24h2" />
<path stroke="#a54a21" d="M23 16h1M28 20h1M29 21h1" />
<path stroke="#d66321" d="M14 17h1M21 18h1M16 22h1M23 22h2M17 23h1M22 23h2" />
<path stroke="#ff8c29" d="M15 18h1M17 19h1M19 19h1M30 19h1M29 20h1M28 21h1" />
<path stroke="#9c8429" d="M17 22h1M20 22h1M18 23h1M21 23h1" />
</svg>