<svg xmlns="http://www.w3.org/2000/svg" viewBox="0 -0.5 40 30" shape-rendering="crispEdges">
<metadata>Made with Pixels to Svg https://codepen.io/shshaw/pen/XbxvNj</metadata>
<path stroke="#202020" d="M14 4h1M18 4h2M13 5h1M15 5h1M17 5h1M19 5h1M13 6h1M16 6h1M19 6h1M13 7h1M20 7h1M14 8h1M18 8h3M14 9h1M17 9h1M23 9h2M13 10h1M17 10h1M22 10h1M25 10h1M13 11h1M18 11h3M22 11h1M25 11h1M14 12h1M21 12h1M24 12h1M14 13h1M23 13h1M12 14h2M24 14h1M11 15h1M16 15h1M25 15h2M11 16h1M20 16h1M27 16h1M9 17h2M13 17h3M27 17h1M8 18h1M12 18h1M15 18h1M28 18h2M8 19h1M10 19h2M16 19h1M26 19h1M30 19h1M8 20h2M15 20h2M25 20h1M27 20h1M31 20h1M14 21h1M25 21h1M28 21h1M31 21h1M14 22h1M26 22h1M28 22h1M31 22h1M15 23h1M18 23h1M26 23h1M28 23h1M30 23h1M32 23h1M14 24h1M16 24h2M19 24h4M26 24h1M29 24h1M31 24h2M15 25h2M23 25h1M25 25h1M22 26h1M26 26h1M23 27h3" />
<path stroke="#426b9c" d="M14 5h1M14 6h1M14 7h1M16 7h1M15 8h1M20 13h1M22 14h1M12 15h2M13 16h1M15 16h1M24 16h1M26 16h1M11 17h2M16 17h2M19 17h1M9 18h3M18 18h1M26 18h1M15 21h1M17 21h1M20 21h1M15 22h2M20 22h1M23 22h1M29 22h1M16 23h2M21 23h1M23 24h1M25 24h1M24 25h1" />
<path stroke="#638cd6" d="M18 5h1M17 6h2M17 7h3M16 8h1M16 9h1M14 10h1M16 10h1M23 10h1M14 11h1M16 11h2M23 11h2M16 12h2M19 12h2M22 12h1M16 13h4M21 13h1M17 14h3M21 14h1M23 14h1M17 15h3M22 15h2M16 16h3M22 16h1M18 17h1M21 17h2M24 17h3M16 18h2M19 18h4M25 18h1M27 18h1M17 19h4M23 19h2M28 19h2M21 20h4M28 20h2M18 21h2M21 21h2M29 21h2M18 22h2M21 22h1M24 22h1M30 22h1M19 23h2M23 23h3M24 24h1M23 26h1M25 26h1" />
<path stroke="#525252" d="M15 6h1M15 7h1M17 8h1M15 9h1M15 10h1M15 11h1M15 12h1M18 12h1M23 12h1M15 13h1M22 13h1M14 14h1M16 14h1M14 15h1M20 15h1M24 15h1M12 16h1M14 16h1M23 16h1M23 17h1M23 18h2M21 19h2M25 19h1M27 19h1M17 20h4M16 21h1M23 21h2M17 22h1M22 22h1M25 22h1M22 23h1" />
<path stroke="#8cb5e6" d="M24 10h1M25 16h1M30 20h1" />
<path stroke="#debd29" d="M15 14h1M20 14h1M15 15h1M19 16h1" />
<path stroke="#f7f729" d="M21 15h1M21 16h1M20 17h1" />
<path stroke="#d6d6d6" d="M9 19h1M15 24h1" />
<path stroke="#ffffff" d="M29 23h1M31 23h1M24 26h1" />
</svg>