<svg xmlns="http://www.w3.org/2000/svg" viewBox="0 -0.5 40 30" shape-rendering="crispEdges">
<metadata>Made with Pixels to Svg https://codepen.io/shshaw/pen/XbxvNj</metadata>
<path stroke="#202020" d="M13 5h2M12 6h1M15 6h1M17 6h4M23 6h2M12 7h1M16 7h1M21 7h2M25 7h1M12 8h1M25 8h1M13 9h1M25 9h1M12 10h1M24 10h1M12 11h1M25 11h1M12 12h1M25 12h1M11 13h1M26 13h1M11 14h1M26 14h1M10 15h1M27 15h1M10 16h1M15 16h2M21 16h2M27 16h1M11 17h1M15 17h1M17 17h1M20 17h1M22 17h1M27 17h1M12 18h2M15 18h2M22 18h1M26 18h1M14 19h1M23 19h3M15 20h1M23 20h1M14 21h1M23 21h1M13 22h1M24 22h2M14 23h3M26 23h1M17 24h1M24 24h2M18 25h1M21 25h3M18 26h1M20 26h1M19 27h1" />
<path stroke="#ff8ca5" d="M13 6h1M13 7h1M23 7h1M22 8h1M21 9h1M21 10h1" />
<path stroke="#e65273" d="M14 6h1M14 7h1M24 7h1M13 8h1M23 8h2M22 9h3M22 10h1M19 15h1" />
<path stroke="#525252" d="M15 7h1M14 8h1M21 8h1M20 9h1M20 10h1M20 11h2M12 13h1M21 13h1M13 14h1M18 14h1M21 14h1M14 15h1M17 15h1M22 15h1M19 17h1M14 18h1M21 18h1M17 19h1M22 19h1M16 20h1M19 20h1M20 21h3M18 22h1M17 23h1M19 23h1M19 24h2M23 24h1" />
<path stroke="#73b573" d="M17 7h1M20 7h1M16 8h1M15 9h1M15 10h1M23 10h1M14 11h1M22 11h1M14 12h1M14 13h1M23 13h1M12 14h1M15 14h1M24 14h1M11 15h2M16 15h1M24 15h1M11 16h1M14 16h1M25 16h1M13 17h2M25 17h1M25 18h1M18 23h1M18 24h1" />
<path stroke="#84d66b" d="M18 7h2M15 8h1M17 8h4M14 9h1M16 9h4M13 10h2M16 10h4M13 11h1M15 11h5M23 11h2M13 12h1M15 12h5M21 12h4M13 13h1M15 13h4M22 13h1M24 13h2M14 14h1M16 14h2M22 14h2M25 14h1M15 15h1M23 15h1M25 15h2M23 16h2M26 16h1M23 17h2M26 17h1M23 18h2M20 25h1M19 26h1" />
<path stroke="#4a945a" d="M20 12h1M19 13h1M13 15h1M12 16h2M12 17h1M17 22h1M19 25h1" />
<path stroke="#bdbdce" d="M20 13h1M18 15h1M21 15h1M17 16h2M20 16h1M18 18h1M20 18h1M18 19h2M21 19h1M18 20h1M17 21h1M16 22h1M23 22h1M22 23h1" />
<path stroke="#c54263" d="M19 14h1" />
<path stroke="#ffffff" d="M20 14h1M20 15h1M19 16h1M15 19h2M20 20h3M16 21h1M19 21h1M14 22h2M20 22h3M20 23h2M23 23h3M21 24h2" />
<path stroke="#7b7b7b" d="M18 17h1M17 18h1M19 18h1M20 19h1M15 21h1" />
<path stroke="#cedeef" d="M17 20h1M18 21h1M19 22h1" />
</svg>