<svg xmlns="http://www.w3.org/2000/svg" viewBox="0 -0.5 40 30" shape-rendering="crispEdges">
<metadata>Made with Pixels to Svg https://codepen.io/shshaw/pen/XbxvNj</metadata>
<path stroke="#202020" d="M20 0h3M19 1h1M22 1h1M12 2h1M18 2h1M21 2h1M11 3h1M13 3h1M16 3h2M22 3h1M29 3h2M11 4h1M13 4h1M15 4h1M22 4h1M28 4h1M31 4h1M11 5h1M13 5h1M16 5h1M21 5h1M27 5h1M31 5h1M10 6h1M14 6h1M16 6h1M20 6h1M25 6h2M32 6h1M10 7h1M14 7h1M16 7h1M19 7h1M24 7h1M32 7h1M10 8h1M15 8h1M19 8h1M23 8h1M31 8h1M7 9h2M10 9h1M19 9h1M23 9h1M30 9h1M7 10h1M9 10h1M18 10h1M23 10h1M31 10h1M7 11h1M18 11h1M23 11h1M30 11h1M8 12h1M17 12h1M22 12h1M26 12h4M8 13h1M18 13h2M21 13h2M25 13h1M33 13h4M7 14h1M12 14h1M25 14h1M27 14h3M31 14h2M37 14h1M7 15h1M26 15h1M30 15h1M35 15h2M8 16h1M34 16h1M9 17h1M34 17h1M10 18h1M14 18h3M33 18h1M8 19h2M13 19h1M15 19h1M33 19h1M7 20h1M12 20h1M14 20h1M32 20h1M6 21h1M11 21h1M14 21h1M32 21h1M5 22h1M11 22h1M15 22h1M30 22h2M5 23h2M10 23h1M16 23h1M27 23h3M6 24h1M8 24h1M11 24h1M15 24h1M22 24h2M27 24h1M7 25h1M9 25h2M16 25h1M21 25h1M23 25h1M28 25h1M15 26h1M20 26h1M22 26h1M26 26h1M28 26h1M16 27h2M19 27h1M23 27h1M25 27h1M27 27h2M17 28h2M23 28h2" />
<path stroke="#6b6b6b" d="M20 1h2M19 2h2M19 3h1M16 4h2M19 4h3M12 5h1M17 5h1M19 5h2M11 6h1M13 6h1M19 6h1M14 8h1M17 13h1M18 14h2M33 14h2M32 15h3M11 16h2M33 16h1M11 17h2M29 17h2M33 17h1M12 18h1M18 18h1M30 18h2M10 19h1M17 19h3M8 20h1M10 20h2M9 21h2M6 22h1M8 22h2M7 23h1M7 24h1M9 24h2M24 24h1" />
<path stroke="#94d6ff" d="M12 3h1M12 4h1M30 5h1M29 6h1M27 7h2M26 8h3M18 9h1M25 9h5M24 10h5M9 11h1M24 11h4M9 12h1M23 12h3M24 13h1M9 14h1M15 14h2M23 14h1M9 15h1M15 15h1M17 15h1M17 16h1M22 16h2M16 17h1M20 17h1M24 17h1M20 18h1M21 20h1M23 20h1M22 21h1M21 22h2M20 23h2M20 24h2M19 25h2M25 26h1M18 27h1M24 27h1" />
<path stroke="#525252" d="M18 3h1M20 3h2M18 4h1M18 5h1M12 6h1M17 6h2M11 7h1M13 7h1M17 7h1M13 8h1M16 8h1M13 9h3M13 10h1M16 12h1M15 13h2M14 14h1M17 14h1M20 14h1M35 14h2M14 15h1M18 15h2M24 15h1M27 15h1M31 15h1M13 16h1M18 16h1M25 16h2M29 16h4M10 17h1M17 17h2M25 17h1M27 17h2M31 17h2M11 18h1M17 18h1M19 18h1M21 18h1M25 18h2M29 18h1M32 18h1M11 19h2M16 19h1M21 19h1M25 19h1M27 19h1M30 19h2M9 20h1M17 20h1M20 20h1M24 20h1M28 20h1M30 20h1M7 21h2M18 21h2M23 21h1M28 21h2M7 22h1M10 22h1M17 22h2M23 22h1M28 22h1M8 23h2M17 23h1M23 23h2M25 24h1M17 25h1" />
<path stroke="#d6f7ff" d="M29 4h2M28 5h2M27 6h2M31 6h1M18 7h1M25 7h2M30 7h2M17 8h2M24 8h1M29 8h2M16 9h2M8 10h1M14 10h3M29 10h2M8 11h1M12 11h6M28 11h2M12 12h4M9 13h1M11 13h2M8 14h1M10 14h2M21 14h2M8 15h1M10 15h1M20 15h2M9 16h1M14 16h2M19 16h2M13 17h2M22 17h1M13 18h1M22 18h2M22 19h2M20 21h2M19 22h2M18 23h2M16 24h1M18 24h2M16 26h2" />
<path stroke="#73a5d6" d="M30 6h1M29 7h1M25 8h1M24 9h1M17 10h1M13 13h2M23 13h1M24 14h1M11 15h1M16 15h1M22 15h2M10 16h1M16 16h1M21 16h1M24 16h1M15 17h1M19 17h1M21 17h1M23 17h1M24 18h1M24 19h1M22 20h1M22 23h1M17 24h1M18 25h1M25 25h1M18 26h2M24 26h1" />
<path stroke="#f7f729" d="M12 7h1M11 8h2M11 9h2M10 10h2M10 11h1M10 12h1M13 14h1M13 15h1" />
<path stroke="#f7ad29" d="M12 10h1M10 13h1M12 15h1" />
<path stroke="#adb5b5" d="M11 11h1M11 12h1M28 15h2M27 16h1M26 19h1M25 20h2M24 21h2M27 21h1M24 22h2M27 22h1M25 23h1M24 25h1M26 25h2M23 26h1" />
<path stroke="#ffffff" d="M25 15h1M26 17h1M27 26h1" />
<path stroke="#848c8c" d="M28 16h1M27 18h2M20 19h1M28 19h2M32 19h1M15 20h2M18 20h2M27 20h1M29 20h1M31 20h1M15 21h3M26 21h1M30 21h2M16 22h1M26 22h1M29 22h1M26 23h1M26 24h1" />
</svg>