<svg xmlns="http://www.w3.org/2000/svg" viewBox="0 -0.5 40 30" shape-rendering="crispEdges">
<metadata>Made with Pixels to Svg https://codepen.io/shshaw/pen/XbxvNj</metadata>
<path stroke="#202020" d="M13 5h3M12 6h1M16 6h1M11 7h1M17 7h1M24 7h3M11 8h1M17 8h1M23 8h1M27 8h1M11 9h1M17 9h1M22 9h1M28 9h1M12 10h1M18 10h3M22 10h1M28 10h1M13 11h1M21 11h2M28 11h1M13 12h1M27 12h1M12 13h1M14 13h1M25 13h2M10 14h3M20 14h1M25 14h1M9 15h1M26 15h1M9 16h1M26 16h1M9 17h1M27 17h2M10 18h3M29 18h1M13 19h1M29 19h1M12 20h1M29 20h1M12 21h1M27 21h2M13 22h1M26 22h1M12 23h1M26 23h1M12 24h1M17 24h2M26 24h1M13 25h4M19 25h3M27 25h1M22 26h1M27 26h1M23 27h4" />
<path stroke="#ceceff" d="M13 6h1M24 8h1M17 11h2M16 12h2" />
<path stroke="#b5adf7" d="M14 6h1M12 7h1M15 7h1M12 8h1M15 8h1M25 8h1M12 9h1M15 9h1M23 9h1M26 9h1M13 10h2M23 10h1M26 10h1M16 11h1M19 11h1M23 11h1M26 11h1M15 12h1M18 12h4M24 12h2M13 13h1M18 13h2M22 13h2M16 14h2M23 14h2M18 15h2M22 15h3M23 16h1M26 18h3M27 19h1M23 25h3" />
<path stroke="#9494e6" d="M15 6h1M16 7h1M16 8h1M26 8h1M27 9h1M15 10h1M17 10h1M27 10h1M15 11h1M20 11h1M27 11h1M22 12h1M10 15h2M11 16h1M24 16h2M24 17h2M24 18h1M26 19h1M28 19h1M25 20h3M24 23h2M24 24h2M26 25h1" />
<path stroke="#ce6384" d="M13 7h2M14 9h1M24 9h2M25 11h1M15 17h4M14 18h4M14 19h3M15 20h1M19 20h1M15 21h1M20 21h2M18 22h2M21 22h1" />
<path stroke="#525252" d="M13 8h1M24 10h1M14 11h1M12 15h1M12 16h2M22 16h1M11 17h1M13 17h1M23 17h1M26 17h1M13 18h1M18 18h2M23 18h1M25 18h1M17 19h3M21 19h1M23 19h1M25 19h1M16 20h1M20 20h2M23 20h1M23 21h1M25 21h2M23 22h1M14 23h3M23 23h1M22 24h1" />
<path stroke="#e67ba5" d="M14 8h1M13 9h1M25 10h1M24 11h1M17 20h2M16 21h4" />
<path stroke="#7373ce" d="M16 9h1M16 10h1M23 12h1M26 12h1M16 13h2M24 13h1M15 14h1M18 14h1M20 15h2M25 15h1M10 16h1M10 17h1M12 17h1M24 19h1M24 20h1M28 20h1M24 21h1M24 22h2M13 23h1M14 24h1M16 24h1M23 24h1M22 25h1M23 26h1M25 26h1" />
<path stroke="#ffffff" d="M14 12h1M15 13h1M20 13h2M19 14h1M21 14h2M14 16h1M14 17h1M20 18h1M14 20h1M20 22h1M24 26h1M26 26h1" />
<path stroke="#f7de5a" d="M13 14h1M13 15h3M15 16h7M20 17h3M22 18h1M22 19h1M22 20h1M13 21h1M22 21h1M14 22h3M22 22h1M17 23h3M22 23h1M19 24h3" />
<path stroke="#cea54a" d="M14 14h1M16 15h2M19 17h1M21 18h1M13 20h1M14 21h1M17 22h1M20 23h2" />
<path stroke="#dedede" d="M20 19h1M13 24h1M15 24h1" />
</svg>