<svg xmlns="http://www.w3.org/2000/svg" viewBox="0 -0.5 40 30" shape-rendering="crispEdges">
<metadata>Made with Pixels to Svg https://codepen.io/shshaw/pen/XbxvNj</metadata>
<path stroke="#202020" d="M28 5h2M27 6h1M29 6h1M13 7h1M21 7h2M25 7h2M29 7h1M12 8h1M14 8h1M17 8h1M19 8h2M22 8h1M24 8h1M28 8h1M12 9h1M14 9h1M16 9h1M18 9h1M22 9h2M28 9h1M30 9h3M12 10h1M14 10h1M16 10h1M28 10h2M32 10h1M11 11h1M15 11h1M31 11h1M11 12h1M31 12h1M11 13h1M30 13h1M9 14h2M31 14h2M8 15h1M32 15h1M7 16h1M31 16h1M8 17h3M15 17h1M30 17h1M11 18h1M29 18h1M10 19h1M28 19h1M10 20h2M28 20h1M12 21h2M24 21h1M29 21h1M14 22h1M23 22h1M25 22h2M29 22h1M12 23h2M18 23h1M22 23h1M26 23h1M29 23h1M11 24h1M17 24h3M23 24h3M27 24h1M29 24h1M10 25h1M14 25h3M18 25h1M25 25h2M28 25h2M11 26h3M17 26h1M23 26h2M17 27h3M22 27h1M20 28h2" />
<path stroke="#f7e65a" d="M28 6h1M27 7h2M21 8h1M26 8h2M17 9h1M20 9h2M24 9h4M17 10h1M19 10h3M23 10h4M30 10h2M17 11h1M20 11h1M23 11h4M28 11h3M15 12h1M17 12h2M20 12h1M22 12h8M13 13h3M17 13h2M20 13h6M27 13h3M11 14h5M17 14h3M21 14h4M28 14h1M10 15h6M17 15h3M22 15h2M8 16h13M22 16h1M14 17h1M18 17h2M21 17h1M12 18h2M21 18h1M11 19h1M17 19h1M20 19h1M16 20h4M17 21h3M15 22h4M16 23h2M16 24h1M20 24h1M19 25h3M21 26h1" />
<path stroke="#c5ad42" d="M13 8h1M25 8h1M13 9h1M19 9h1M13 10h1M12 11h2M16 11h1M18 11h1M21 11h2M12 12h1M14 12h1M16 12h1M30 12h1M12 13h1M16 13h1M16 14h1M9 15h1M16 15h1M20 15h1M31 15h1M30 16h1M12 17h2M18 18h2M12 19h1M18 19h1M12 24h2M22 24h1M13 25h1M22 25h3" />
<path stroke="#525252" d="M18 10h1M22 10h1M14 11h1M19 11h1M27 11h1M13 12h1M19 12h1M19 13h1M26 13h1M20 14h1M25 14h1M27 14h1M29 14h2M21 15h1M25 15h1M27 15h2M30 15h1M21 16h1M24 16h1M27 16h1M29 16h1M11 17h1M16 17h2M20 17h1M24 17h1M29 17h1M14 18h1M20 18h1M23 18h1M28 18h1M13 19h1M19 19h1M21 19h1M23 19h1M20 20h1M24 20h1M20 21h1M23 21h1M19 22h1M15 23h1M19 23h1M28 23h1M15 24h1M19 26h2M22 26h1M21 27h1" />
<path stroke="#947b3a" d="M27 10h1M21 12h1M24 15h1M23 16h1M22 17h1M17 18h1M22 18h1" />
<path stroke="#52adc5" d="M26 14h1M26 15h1M29 15h1M26 16h1M28 16h1M23 17h1M25 17h1M27 17h2M24 18h2M27 18h1M14 19h1M22 19h1M24 19h4M13 20h3M21 20h3M25 20h2M14 21h3M21 21h2M20 22h3M21 23h1" />
<path stroke="#4a84a5" d="M25 16h1M26 17h1M26 18h1M15 19h2M12 20h1M27 20h1M25 21h4M27 22h2M14 23h1M20 23h1M27 23h1M14 24h1M21 24h1M12 25h1" />
<path stroke="#de523a" d="M15 18h1M26 24h1M28 24h1M11 25h1M18 26h1M20 27h1" />
<path stroke="#ffffff" d="M16 18h1" />
</svg>