<svg xmlns="http://www.w3.org/2000/svg" viewBox="0 -0.5 40 30" shape-rendering="crispEdges">
<metadata>Made with Pixels to Svg https://codepen.io/shshaw/pen/XbxvNj</metadata>
<path stroke="#202020" d="M12 1h2M11 2h1M14 2h1M16 2h2M10 3h1M12 3h2M15 3h1M18 3h1M10 4h1M12 4h1M14 4h1M16 4h2M9 5h1M11 5h1M13 5h1M15 5h1M9 6h1M11 6h2M15 6h2M9 7h1M17 7h1M9 8h1M18 8h1M20 8h2M9 9h1M19 9h1M22 9h1M8 10h1M23 10h1M8 11h1M23 11h3M28 11h3M8 12h1M26 12h2M30 12h1M8 13h1M30 13h1M9 14h1M30 14h1M10 15h4M30 15h1M14 16h1M29 16h1M13 17h1M29 17h1M13 18h1M30 18h1M13 19h1M30 19h1M14 20h1M30 20h1M14 21h1M30 21h1M14 22h1M25 22h2M30 22h1M15 23h1M25 23h1M27 23h3M14 24h1M18 24h2M24 24h1M15 25h3M20 25h1M24 25h1M20 26h1M24 26h1M21 27h3" />
<path stroke="#ffc500" d="M12 2h2M11 3h1M16 3h2M11 4h1M15 4h1M10 5h1M14 5h1M10 6h1M13 6h1M10 7h1M12 7h1M12 8h1M11 9h1M11 10h1M14 10h1M21 17h1M16 18h1M21 18h1" />
<path stroke="#525252" d="M14 6h1M19 10h1M14 11h1M20 11h1M14 12h1M22 12h1M26 13h1M14 14h1M26 14h1M15 15h1M25 15h1M16 16h1M23 16h1M16 17h1M24 17h1M25 18h1M25 19h1M16 20h1M21 20h1M25 20h1M16 21h1M23 21h2M27 21h1M17 22h1M19 22h1M18 23h1" />
<path stroke="#6b944a" d="M11 7h1M16 7h1M10 8h1M15 9h1M13 10h1M16 10h1M20 12h1M15 13h1M21 13h1M21 14h1M27 14h1M21 15h1M28 15h1M21 16h1M24 16h1M20 17h1M18 18h2M15 20h1M21 21h2M20 22h1" />
<path stroke="#bdad10" d="M13 7h1M13 12h1" />
<path stroke="#94bd84" d="M14 7h1M13 8h1M12 9h1M14 9h1M18 9h1M11 11h1M16 11h1M29 12h1M9 13h1M29 13h1M11 14h1M29 14h1M29 15h1M25 16h1M17 17h1M28 18h2M27 19h3M26 20h4M25 21h2M28 21h2M15 22h1M24 22h1M29 22h1M17 23h1M24 23h1M17 24h1M20 24h1M23 24h1M21 25h1M23 25h1M23 26h1" />
<path stroke="#b5f784" d="M15 7h1M11 8h1M14 8h4M10 9h1M13 9h1M16 9h2M9 10h2M12 10h1M17 10h2M10 11h1M12 11h1M17 11h3M11 12h2M16 12h4M28 12h1M11 13h4M16 13h5M27 13h2M10 14h1M12 14h2M15 14h6M28 14h1M16 15h5M26 15h2M17 16h4M26 16h3M18 17h2M25 17h4M26 18h2M26 19h1M15 21h1M16 22h1M21 22h3M16 23h1M19 23h5M21 24h2M22 25h1" />
<path stroke="#ffffff" d="M20 9h2M15 10h1M22 10h1M13 11h1M15 11h1M22 11h1M15 12h1M24 12h2M25 13h1M25 14h1M24 15h1M14 17h1M14 18h1M24 18h1M14 19h2M24 19h1M20 20h1M22 20h3M17 21h1M19 21h2M18 22h1M15 24h1M21 26h1" />
<path stroke="#ffa5de" d="M20 10h2M21 11h1M23 12h1M24 13h1M24 14h1M15 16h1M23 17h1M23 18h1M23 19h1M17 20h1M18 21h1" />
<path stroke="#deffbd" d="M9 11h1M9 12h2M10 13h1" />
<path stroke="#ef739c" d="M21 12h1M23 13h1M22 14h2M22 15h2M15 17h1M22 17h1M15 18h1M22 18h1M17 19h3M21 19h2M18 20h2" />
<path stroke="#b5426b" d="M22 13h1M22 16h1M17 18h1M20 18h1M16 19h1M20 19h1" />
<path stroke="#bdbdbd" d="M14 15h1M27 22h2M16 24h1M22 26h1" />
</svg>