<svg xmlns="http://www.w3.org/2000/svg" viewBox="0 -0.5 40 30" shape-rendering="crispEdges">
<metadata>Made with Pixels to Svg https://codepen.io/shshaw/pen/XbxvNj</metadata>
<path stroke="#202020" d="M9 5h3M19 5h4M6 6h3M12 6h4M18 6h1M23 6h1M5 7h1M16 7h2M22 7h1M28 7h4M4 8h1M23 8h1M27 8h1M32 8h1M3 9h1M24 9h3M32 9h1M3 10h1M33 10h1M3 11h1M34 11h1M3 12h1M34 12h1M4 13h1M10 13h1M34 13h1M5 14h5M11 14h1M34 14h1M10 15h1M33 15h1M8 16h2M20 16h1M33 16h1M6 17h2M28 17h2M32 17h1M5 18h1M27 18h1M30 18h2M4 19h1M27 19h3M31 19h1M4 20h1M12 20h2M32 20h1M5 21h1M12 21h1M14 21h1M24 21h2M32 21h1M6 22h1M10 22h2M14 22h1M18 22h2M22 22h2M25 22h1M32 22h1M7 23h3M13 23h1M17 23h1M20 23h2M24 23h1M31 23h1M13 24h1M15 24h2M23 24h1M31 24h1M13 25h2M23 25h1M31 25h1M23 26h1M30 26h1M24 27h1M28 27h2M25 28h3" />
<path stroke="#83c5e6" d="M9 6h2M10 7h2M13 7h3M11 8h2M18 9h6M17 10h8M29 10h4M18 11h6M30 11h3M33 12h1M32 13h2M32 14h2M32 16h1" />
<path stroke="#5a7b7b" d="M11 6h1M19 6h2M9 7h1M12 7h1M18 7h4M7 8h2M10 8h1M13 8h4M28 8h4M5 9h2M8 9h1M11 9h5M17 9h1M27 9h2M4 10h1M11 10h4M16 10h1M25 10h1M11 11h2M17 11h1M28 11h2M33 11h1M9 12h2M18 12h4M26 12h1M30 12h3M8 13h2M27 13h2M31 13h1M29 14h1M31 14h1M29 15h1M32 15h1M13 16h1M23 16h1M30 16h1M11 17h1M9 18h2M24 18h1M9 19h2M20 19h1M22 19h4M30 19h1M10 20h2M14 20h2M21 20h1M24 20h1M28 20h3M10 21h2M16 21h2M23 21h1M26 21h2M9 22h1M27 22h1M29 24h2M29 25h2M29 26h1M27 27h1" />
<path stroke="#525252" d="M21 6h1M17 8h6M16 9h1M29 9h3M9 10h1M15 10h1M26 10h3M9 11h1M13 11h2M24 11h3M8 12h1M11 12h2M14 12h1M22 12h2M25 12h1M7 13h1M11 13h2M15 13h1M20 13h2M25 13h1M12 14h1M15 14h1M17 14h3M24 14h1M12 15h2M16 15h1M22 15h3M10 16h1M22 16h1M24 16h1M10 17h1M13 17h1M18 17h2M22 17h1M25 17h2M7 18h1M11 18h2M15 18h1M19 18h3M26 18h1M8 19h1M11 19h1M13 19h2M16 19h1M9 20h1M17 20h1M26 20h2M9 21h1M18 21h1M20 21h1M28 21h2M26 22h1M30 22h1M27 23h1M30 23h1M28 24h1M28 25h1M28 26h1M26 27h1" />
<path stroke="#b4b4b4" d="M22 6h1M4 12h1M5 13h1M25 18h1M26 19h1M25 20h1M15 21h1M15 22h3M25 27h1" />
<path stroke="#6aa4bd" d="M6 7h3M5 8h2M9 8h1M4 9h1M9 9h2M10 10h1M10 11h1M15 11h2M27 11h1M15 12h3M27 12h3M16 13h4M29 13h2M16 14h1M30 14h1M11 15h1M30 15h2M11 16h2M31 16h1M8 17h2M12 17h1M23 17h2M30 17h2M8 18h1M22 18h2M15 19h1M21 19h1M16 20h1M22 20h2M31 20h1M30 21h2M28 22h2M31 22h1M28 23h2" />
<path stroke="#dedede" d="M7 9h1M5 10h1M7 10h2M5 11h2M8 11h1M6 12h2M26 13h1M25 14h1M27 14h2M26 15h2M25 16h2M28 16h2M27 17h1M6 18h1M5 19h1M7 19h1M6 20h2M6 21h1M8 21h1M8 22h1M14 23h2M25 23h2M14 24h1M26 24h2M24 25h2M26 26h2" />
<path stroke="#838383" d="M6 10h1M4 11h1M7 11h1M5 12h1M6 13h1M26 14h1M25 15h1M28 15h1M27 16h1M6 19h1M5 20h1M8 20h1M7 21h1M7 22h1M16 23h1M24 24h2M26 25h2M24 26h2" />
<path stroke="#d5a46a" d="M13 12h1M24 12h1M13 13h2M22 13h3M14 14h1M20 14h4M14 15h2M18 15h4M15 16h4M14 17h4M13 18h1M16 18h3M17 19h3M18 20h3M19 21h1" />
<path stroke="#9c735a" d="M13 14h1M17 15h1M14 16h1M19 16h1M14 18h1M12 19h1M21 21h2M20 22h2" />
<path stroke="#ac4141" d="M21 16h1" />
<path stroke="#ee5a39" d="M20 17h2" />
</svg>