<svg xmlns="http://www.w3.org/2000/svg" viewBox="0 -0.5 40 30" shape-rendering="crispEdges">
<metadata>Made with Pixels to Svg https://codepen.io/shshaw/pen/XbxvNj</metadata>
<path stroke="#202020" d="M18 6h1M17 7h1M19 7h1M21 7h1M14 8h3M19 8h2M22 8h1M13 9h1M22 9h2M14 10h2M24 10h2M15 11h1M26 11h1M14 12h1M27 12h1M13 13h1M24 13h3M13 14h1M24 14h1M13 15h1M18 15h1M25 15h1M12 16h1M25 16h1M11 17h1M25 17h1M11 18h1M26 18h1M12 19h2M27 19h1M13 20h1M28 20h1M12 21h1M28 21h1M11 22h1M27 22h1M29 22h2M11 23h1M27 23h2M31 23h1M12 24h2M31 24h1M14 25h4M21 25h1M27 25h4M18 26h5M26 26h1M23 27h3" />
<path stroke="#ffffff" d="M18 7h1M18 8h1M21 8h1M21 9h1M18 13h1M19 14h1M19 15h1" />
<path stroke="#c5c5ce" d="M17 8h1M20 9h1" />
<path stroke="#737373" d="M14 9h2M16 10h1M19 10h4M18 11h2M21 11h1M23 11h3M16 12h2M22 12h1M24 12h3M14 14h1M23 14h1M23 15h2M22 16h3M21 17h3M19 18h2M15 19h1M17 19h3M14 20h1M14 21h1M23 21h1M27 21h1M14 22h1M22 22h1M14 23h1M21 23h1M26 23h1M30 23h1M15 24h1M29 24h2" />
<path stroke="#525252" d="M16 9h4M18 10h1M23 10h1M22 11h1M23 12h1M14 13h1M23 13h1M15 14h1M13 16h2M14 17h3M12 18h1M16 18h3M23 19h1M23 20h1M24 21h1M12 22h1M25 22h2M12 23h1M21 24h1M27 24h1M23 25h1M25 25h1M23 26h3" />
<path stroke="#f7adbd" d="M17 10h1M16 11h2M20 11h1M15 12h1M18 12h4M15 13h3M20 13h3M16 14h2M21 14h2M14 15h4M20 15h2M15 16h2M18 16h3M12 17h2M17 17h2M13 18h2M21 18h1M24 18h2M20 19h3M24 19h3M20 20h3M24 20h4M13 21h1M21 21h2M25 21h2M13 22h1M21 22h1M23 22h2M22 23h4M23 24h2" />
<path stroke="#ce849c" d="M19 13h1M20 14h1M22 15h1M17 16h1M21 16h1M19 17h2M24 17h1M15 18h1M22 18h2M14 19h1M15 20h1M18 21h1M15 22h1M13 23h1M18 23h1M14 24h1M22 24h1M25 24h2M20 25h1M22 25h1M24 25h1M26 25h1" />
<path stroke="#426bce" d="M18 14h1" />
<path stroke="#f7f7ad" d="M16 19h1M16 20h4M15 21h3M19 21h2M16 22h5M16 23h2M19 23h2M17 24h3" />
<path stroke="#ceb55a" d="M15 23h1M16 24h1M20 24h1M28 24h1M18 25h2" />
<path stroke="#adadbd" d="M29 23h1" />
</svg>