<svg xmlns="http://www.w3.org/2000/svg" viewBox="0 -0.5 40 30" shape-rendering="crispEdges">
<metadata>Made with Pixels to Svg https://codepen.io/shshaw/pen/XbxvNj</metadata>
<path stroke="#202020" d="M18 2h1M20 2h2M17 3h1M19 3h1M21 3h1M17 4h1M22 4h1M16 5h1M22 5h1M13 6h1M15 6h1M21 6h1M12 7h1M14 7h2M21 7h1M24 7h2M12 8h1M22 8h2M25 8h1M12 9h1M25 9h1M11 10h1M26 10h1M10 11h1M27 11h1M10 12h1M27 12h1M11 13h1M26 13h1M12 14h2M24 14h2M14 15h1M22 15h2M14 16h1M22 16h1M15 17h1M19 17h1M21 17h1M16 18h1M22 18h1M15 19h1M23 19h2M13 20h2M25 20h3M12 21h1M28 21h1M12 22h1M28 22h1M13 23h1M28 23h1M13 24h1M27 24h1M14 25h1M17 25h1M19 25h1M21 25h1M25 25h2M14 26h1M16 26h1M18 26h1M20 26h1M22 26h1M25 26h1M15 27h2M22 27h1M25 27h1M22 28h1M24 28h1M23 29h1" />
<path stroke="#d68cce" d="M18 3h1M20 3h1M18 4h3M17 5h3M21 5h1M16 6h1M18 6h3M13 7h1M19 7h1M24 8h1M23 9h2M26 24h1M15 26h1M24 26h1M23 27h1M23 28h1" />
<path stroke="#525252" d="M21 4h1M14 8h1M14 9h1M22 9h1M12 10h1M14 10h1M21 10h1M24 10h1M13 11h1M20 11h1M24 11h1M13 12h1M19 12h2M23 12h1M19 13h1M15 15h1M21 15h1M16 16h1M19 16h2M17 17h2M19 18h2M17 19h3M15 20h1M15 21h1M20 21h1M14 22h1M21 22h1M23 22h1M16 23h1M21 23h1M24 23h1M16 24h1M22 24h1M24 24h1M16 25h1M22 25h1" />
<path stroke="#7b5284" d="M20 5h1M14 11h2M14 12h5M15 13h4M16 17h1M17 18h2M24 20h1M13 21h2M25 21h3M13 22h1M17 22h1M19 22h2M26 22h1M17 23h4M17 24h5M18 25h1M20 25h1M24 27h1" />
<path stroke="#946b9c" d="M17 6h1M16 7h3M20 7h1M15 8h7M13 9h1M15 9h7M13 10h1M15 10h6M25 10h1M11 11h2M16 11h4M21 11h3M25 11h2M11 12h2M21 12h2M24 12h3M12 13h3M20 13h6M14 14h10M16 15h5M17 16h2M21 18h1M20 19h1M16 20h1M20 20h1M23 20h1M16 21h1M21 21h4M15 22h2M22 22h1M24 22h2M14 23h2M22 23h2M25 23h2M14 24h2M23 24h1M25 24h1M23 25h1" />
<path stroke="#bd73bd" d="M13 8h1M22 10h2M27 22h1M27 23h1M15 25h1M24 25h1M23 26h1" />
<path stroke="#bd9c3a" d="M15 16h1" />
<path stroke="#ffce31" d="M21 16h1" />
<path stroke="#d66342" d="M20 17h1M16 19h1M21 20h1M18 21h1" />
<path stroke="#ffffff" d="M21 19h1M18 20h1" />
<path stroke="#ad423a" d="M22 19h1M17 20h1M19 20h1M22 20h1M17 21h1M19 21h1M18 22h1" />
</svg>