<svg xmlns="http://www.w3.org/2000/svg" viewBox="0 -0.5 40 30" shape-rendering="crispEdges">
<metadata>Made with Pixels to Svg https://codepen.io/shshaw/pen/XbxvNj</metadata>
<path stroke="#202020" d="M15 14h1M19 14h4M14 15h1M16 15h3M23 15h2M14 16h1M25 16h1M14 17h1M26 17h1M13 18h1M26 18h1M10 19h3M27 19h1M9 20h1M28 20h1M8 21h1M25 21h1M29 21h1M8 22h1M23 22h2M26 22h1M30 22h1M8 23h1M23 23h1M27 23h1M30 23h1M9 24h2M12 24h1M14 24h2M18 24h2M23 24h1M26 24h1M30 24h1M10 25h1M12 25h1M15 25h1M17 25h1M19 25h1M23 25h1M27 25h3M11 26h1M15 26h1M17 26h1M20 26h1M22 26h1M16 27h1M20 27h2" />
<path stroke="#adde6b" d="M15 15h1M15 16h1M22 17h2M21 18h2M17 21h1M17 22h1" />
<path stroke="#bdcece" d="M19 15h1M20 16h2M25 17h1M19 18h1M24 18h1M20 19h1M23 19h1M26 19h1M13 20h1M15 20h2M21 20h2M14 21h1M23 21h1M26 21h1M19 22h1M27 22h1M18 23h1M28 23h2M27 24h1M29 24h1M11 25h1M16 26h1" />
<path stroke="#ffffff" d="M20 15h3M17 16h3M18 17h3M14 18h4M13 19h6M25 19h1M14 20h1M18 20h2M24 20h1M26 20h2M13 21h1M15 21h1M19 21h1M27 21h2M13 22h3M28 22h2M12 23h1M14 23h1M11 24h1M16 24h1M16 25h1" />
<path stroke="#737373" d="M16 16h1M22 16h3M16 17h2M21 17h1M24 17h1M18 18h1M20 18h1M23 18h1M25 18h1M19 19h1M21 19h2M24 19h1M23 20h1M25 20h1M24 21h1M16 22h1M18 22h1M15 23h1M17 23h1" />
<path stroke="#525252" d="M15 17h1M12 20h1M17 20h1M20 20h1M12 21h1M16 21h1M18 21h1M20 21h3M9 22h1M11 22h2M20 22h1M10 23h2M13 23h1M16 23h1M19 23h1M17 24h1M28 24h1M20 25h2" />
<path stroke="#d6bdad" d="M10 20h1M9 21h1M21 22h1M20 23h1" />
<path stroke="#b59c84" d="M11 20h1M10 21h2M22 22h1M9 23h1M21 23h2M20 24h2M21 26h1" />
<path stroke="#847363" d="M10 22h1M22 24h1M22 25h1" />
</svg>