<svg xmlns="http://www.w3.org/2000/svg" viewBox="0 -0.5 40 30" shape-rendering="crispEdges">
<metadata>Made with Pixels to Svg https://codepen.io/shshaw/pen/XbxvNj</metadata>
<path stroke="#202020" d="M18 5h4M17 6h1M22 6h1M14 7h2M17 7h1M23 7h1M14 8h1M16 8h2M23 8h1M15 9h1M22 9h5M14 10h1M26 10h1M14 11h2M25 11h1M16 12h1M24 12h1M15 13h1M25 13h1M15 14h1M23 14h3M14 15h1M19 15h1M23 15h1M13 16h1M23 16h2M13 17h1M25 17h1M13 18h2M25 18h1M14 19h1M25 19h4M15 20h1M29 20h1M16 21h2M29 21h1M18 22h1M28 22h1M17 23h2M20 23h1M28 23h1M16 24h1M19 24h1M21 24h1M23 24h2M29 24h1M17 25h2M20 25h1M22 25h1M25 25h4M19 26h1M23 26h1M20 27h3" />
<path stroke="#525252" d="M18 6h1M21 6h1M22 7h1M16 9h1M18 9h1M17 10h2M21 10h1M16 11h1M20 11h1M22 11h3M21 12h1M22 13h2M17 15h1M17 16h1M15 17h2M16 18h1M16 19h1M17 20h1M21 20h1M18 21h1M22 21h1M19 22h2M23 22h3M21 23h1M26 23h2" />
<path stroke="#aceede" d="M19 6h2M18 7h4M15 8h1M21 8h2M15 10h1M25 10h1M24 13h1M21 14h1M28 20h1M27 21h2M26 22h2" />
<path stroke="#8b8bd5" d="M18 8h1M17 9h1M19 9h2M16 10h1M19 10h2M22 10h3M17 11h2M21 11h1M17 12h4M22 12h2M16 13h3M20 13h2M17 14h1M22 14h1M18 15h1M20 15h3M18 16h5M17 17h4M22 17h2M17 18h3M21 18h4M17 19h3M21 19h4M18 20h2M22 20h4M27 20h1M23 21h2M26 21h1" />
<path stroke="#cdc5ff" d="M19 8h2M21 9h1M26 20h1M25 21h1" />
<path stroke="#6a6aa4" d="M19 11h1M19 13h1M16 14h1M18 14h1M20 14h1M15 18h1M15 19h1M16 20h1M20 20h1M19 21h3M21 22h2M28 24h1" />
<path stroke="#ffffff" d="M19 14h1" />
<path stroke="#ffbdbd" d="M15 15h2M15 16h1M14 17h1M20 26h1M22 26h1" />
<path stroke="#c58b8b" d="M14 16h1M16 16h1M19 23h1M22 23h1M17 24h2M22 24h1M21 25h1M21 26h1" />
<path stroke="#5a5a94" d="M21 17h1M24 17h1M20 18h1M20 19h1M23 23h3M25 24h3" />
</svg>