<svg xmlns="http://www.w3.org/2000/svg" viewBox="0 -0.5 40 30" shape-rendering="crispEdges">
<metadata>Made with Pixels to Svg https://codepen.io/shshaw/pen/XbxvNj</metadata>
<path stroke="#202020" d="M18 8h2M17 9h1M20 9h1M16 10h1M21 10h1M16 11h1M21 11h1M16 12h1M20 12h1M15 13h1M19 13h1M22 13h1M15 14h1M20 14h2M23 14h1M13 15h1M16 15h1M23 15h1M12 16h1M14 16h2M22 16h1M12 17h1M23 17h2M12 18h1M25 18h1M27 18h1M13 19h1M26 19h1M28 19h1M13 20h2M28 20h1M13 21h1M27 21h1M13 22h1M25 22h2M13 23h1M26 23h1M14 24h1M25 24h1M14 25h1M25 25h1M15 26h5M24 26h1M20 27h4" />
<path stroke="#8c633a" d="M18 9h2M17 10h1M20 10h1M17 11h1M20 11h1M18 12h1M16 13h1M18 13h1M16 14h1M19 14h1M22 14h1M17 15h3M21 15h2M13 16h1M17 16h4M14 17h1M17 17h2M20 17h2M13 18h1M15 18h4M20 18h2M23 18h2M15 19h1M18 19h3M22 19h4M27 19h1M16 20h2M19 20h9M16 21h4M22 21h1M24 21h3M17 22h2" />
<path stroke="#52423a" d="M18 10h2M18 11h1M19 12h1M20 15h1M15 17h1M22 17h1M15 20h1M20 21h1M16 22h1M19 22h1M18 23h1" />
<path stroke="#6b523a" d="M19 11h1M17 12h1M17 14h1M21 16h1M13 17h1M14 18h1M22 18h1M14 19h1M17 19h1M21 19h1M21 21h1" />
<path stroke="#525252" d="M17 13h1M18 14h1M23 21h1M22 22h1M24 22h1" />
<path stroke="#ffa508" d="M16 16h1M19 17h1M15 21h1M15 22h1M20 23h2" />
<path stroke="#ffbd63" d="M16 17h1M19 18h1M20 22h2" />
<path stroke="#bdbdbd" d="M16 19h1M18 20h1" />
<path stroke="#c56b52" d="M14 21h1M14 22h1M23 22h1M14 23h1M16 23h2M19 23h1M22 23h4M15 24h1M17 24h1M19 24h4M24 24h1M15 25h1M17 25h2M20 25h1M24 25h1M20 26h1M23 26h1" />
<path stroke="#ef8c63" d="M15 23h1M16 24h1M18 24h1M23 24h1M16 25h1M19 25h1M21 25h3M21 26h2" />
</svg>