<svg xmlns="http://www.w3.org/2000/svg" viewBox="0 -0.5 40 30" shape-rendering="crispEdges">
<metadata>Made with Pixels to Svg https://codepen.io/shshaw/pen/XbxvNj</metadata>
<path stroke="#202020" d="M16 10h2M22 10h2M15 11h1M18 11h4M24 11h1M15 12h1M24 12h1M15 13h1M24 13h1M14 14h1M25 14h1M14 15h1M25 15h1M13 16h1M26 16h1M13 17h1M26 17h1M14 18h1M26 18h1M15 19h1M25 19h1M16 20h1M23 20h1M17 21h1M22 21h1M18 22h1M21 22h1M18 23h1M22 23h1M17 24h1M23 24h2M17 25h1M25 25h1M18 26h2M23 26h2M20 27h3" />
<path stroke="#f77ba5" d="M16 11h2M16 12h1" />
<path stroke="#e65273" d="M22 11h2M17 12h2M17 13h2M17 14h1" />
<path stroke="#7b7b7b" d="M19 12h1M19 13h1M17 18h1M16 19h2M18 20h4M19 22h2M19 25h1" />
<path stroke="#73b573" d="M20 12h1M23 13h1M22 14h1M24 14h1M18 15h1M21 15h1M18 16h1M21 16h1M17 17h1M20 17h1M15 18h1M20 18h1M25 18h1M20 19h1M22 19h2" />
<path stroke="#84d66b" d="M21 12h1M20 13h3M15 14h1M19 14h3M23 14h1M15 15h1M19 15h2M22 15h3M14 16h3M19 16h2M22 16h4M14 17h3M18 17h2M21 17h5M16 18h1M18 18h2M21 18h4M18 19h2M21 19h1" />
<path stroke="#525252" d="M22 12h1M16 14h1M16 15h1M17 16h1M24 19h1" />
<path stroke="#c54263" d="M23 12h1M16 13h1M18 14h1M17 15h1" />
<path stroke="#ffffff" d="M17 20h1M22 20h1M19 21h3M19 23h1M21 23h1M18 24h1M20 24h1M18 25h1M20 25h4M20 26h2" />
<path stroke="#bdbdce" d="M18 21h1M19 24h1M22 24h1M24 25h1M22 26h1" />
<path stroke="#9c9c9c" d="M20 23h1M21 24h1" />
</svg>