<svg xmlns="http://www.w3.org/2000/svg" viewBox="0 -0.5 40 30" shape-rendering="crispEdges">
<metadata>Made with Pixels to Svg https://codepen.io/shshaw/pen/XbxvNj</metadata>
<path stroke="#202020" d="M18 6h3M16 7h2M21 7h1M23 7h2M15 8h1M22 8h1M25 8h1M13 9h2M26 9h1M12 10h1M27 10h1M11 11h1M28 11h2M11 12h1M30 12h1M11 13h1M30 13h1M12 14h1M30 14h1M13 15h2M30 15h1M14 16h1M29 16h1M13 17h1M27 17h1M29 17h1M11 18h2M26 18h1M28 18h1M30 18h1M10 19h1M24 19h2M28 19h1M31 19h1M9 20h1M14 20h2M23 20h1M27 20h1M31 20h1M9 21h3M13 21h1M16 21h1M24 21h1M27 21h1M31 21h1M11 22h2M15 22h1M24 22h1M26 22h1M30 22h1M14 23h1M24 23h2M30 23h1M15 24h1M23 24h1M25 24h1M29 24h1M16 25h3M24 25h1M26 25h2M29 25h1M19 26h1M24 26h1M28 26h1M20 27h4" />
<path stroke="#bdbdbd" d="M18 7h2M16 8h3M23 8h2M15 9h1M22 9h4M16 10h1M23 10h4M12 11h1M14 11h2M21 11h2M24 11h2M14 12h2M20 12h4M27 12h2M14 13h2M20 13h5M26 13h1M28 13h2M15 14h1M20 14h5M26 14h4M20 15h5M27 15h2M21 16h3M11 19h1M10 20h1M13 20h1M16 20h2M12 21h1M17 21h7M19 22h4M26 23h1M26 24h1M28 24h1M19 25h1M28 25h1M20 26h2" />
<path stroke="#8c8c8c" d="M20 7h1M13 10h1M16 11h1M12 12h1M12 13h1M14 14h1M15 15h1M16 17h1M24 17h3M17 18h1M22 18h4M17 19h1M22 19h2M18 20h1M21 20h2M23 23h1M20 24h3M23 25h1M22 26h1" />
<path stroke="#525252" d="M19 8h3M18 9h2M21 9h1M14 10h1M17 10h2M20 10h1M13 11h1M17 11h1M20 11h1M26 11h2M13 12h1M16 12h2M19 12h1M25 12h1M13 13h1M16 13h1M19 13h1M25 13h1M13 14h1M16 14h1M19 14h1M25 14h1M16 15h1M19 15h1M25 15h1M17 16h1M19 16h1M26 16h3M15 17h1M17 17h1M20 17h1M16 18h1M18 18h1M21 18h1M13 19h1M16 19h1M18 19h1M21 19h1M11 20h2M19 20h2M17 22h2M23 22h1M18 23h5M28 23h1M19 24h1M27 24h1M20 25h3M23 26h1" />
<path stroke="#6b6b6b" d="M16 9h2M20 9h1M15 10h1M19 10h1M21 10h2M18 11h2M23 11h1M18 12h1M24 12h1M26 12h1M29 12h1M18 13h1M17 14h1M18 15h1M26 15h1M29 15h1M15 16h2M20 16h1M24 16h2M14 17h1M18 17h2M21 17h3M28 17h1M14 18h2M19 18h2M29 18h1M12 19h1M14 19h2M19 19h2M29 19h2M28 20h3M28 21h3M16 22h1M28 22h2M15 23h3M27 23h1M16 24h3" />
<path stroke="#c55a84" d="M17 13h1M17 15h1M13 18h1" />
<path stroke="#ffffff" d="M27 13h1" />
<path stroke="#ef739c" d="M18 14h1M18 16h1M27 22h1M29 23h1" />
</svg>