<svg xmlns="http://www.w3.org/2000/svg" viewBox="0 -0.5 40 30" shape-rendering="crispEdges">
<metadata>Made with Pixels to Svg https://codepen.io/shshaw/pen/XbxvNj</metadata>
<path stroke="#202020" d="M24 6h2M24 7h1M26 7h2M13 8h3M23 8h2M28 8h1M12 9h1M16 9h1M18 9h3M22 9h1M28 9h1M11 10h1M17 10h1M21 10h1M29 10h1M11 11h2M29 11h1M13 12h1M29 12h1M13 13h1M29 13h1M12 14h1M22 14h2M28 14h1M12 15h1M17 15h1M22 15h1M24 15h1M28 15h1M11 16h1M23 16h2M27 16h1M11 17h1M26 17h1M12 18h1M26 18h1M13 19h2M26 19h1M14 20h1M26 20h1M14 21h1M23 21h1M27 21h1M15 22h1M22 22h1M24 22h1M27 22h1M15 23h1M22 23h1M24 23h1M27 23h1M15 24h1M18 24h1M22 24h1M25 24h2M16 25h2M19 25h1M22 25h1M19 26h1M22 26h1M20 27h2" />
<path stroke="#d5d5c5" d="M25 7h1M26 8h1M23 9h5M22 10h7M22 11h5M28 11h1M23 12h3M23 13h2M17 17h1M21 18h1M20 19h3M19 20h2M20 21h1" />
<path stroke="#525252" d="M25 8h1M27 8h1M14 10h1M20 10h1M13 11h1M16 11h1M19 11h1M21 11h1M27 11h1M16 12h3M22 12h1M27 12h1M21 13h2M26 13h1M24 14h2M21 15h1M22 16h1M21 17h2M25 17h1M19 18h2M22 18h1M16 19h4M23 19h1M21 20h2M16 21h1M18 21h2M21 21h1M24 21h1M17 22h1M20 22h1M18 23h1M19 24h1" />
<path stroke="#6a6a4a" d="M13 9h1M12 10h2M17 11h2" />
<path stroke="#d5b494" d="M14 9h2M15 10h2M18 10h2M20 11h1M19 12h3M14 13h7M14 14h3M18 14h4M15 15h2M19 15h2M16 16h1M19 16h1M21 16h1M23 17h2M23 18h3M24 19h2M23 20h3M22 21h1M21 22h1M19 23h3M20 24h2M20 25h2" />
<path stroke="#de94a4" d="M14 11h1" />
<path stroke="#a48b6a" d="M15 11h1M14 12h2M20 16h1M16 17h1M18 17h3M17 18h2M25 21h2M16 22h1M18 22h2M25 22h2M16 23h2" />
<path stroke="#a4a483" d="M26 12h1M28 12h1M25 13h1M27 13h2M26 14h2M25 15h3M25 16h2M15 20h4M15 21h1M17 21h1" />
<path stroke="#5aace6" d="M13 14h1M18 15h1M18 16h1" />
<path stroke="#ffffff" d="M17 14h1" />
<path stroke="#5a4a41" d="M13 15h2M15 16h1M16 18h1M15 19h1M25 23h2M16 24h2" />
<path stroke="#835a39" d="M12 16h3M13 17h3M13 18h3M20 26h2" />
<path stroke="#5283b4" d="M17 16h1" />
<path stroke="#ffbdbd" d="M12 17h1" />
</svg>