<svg xmlns="http://www.w3.org/2000/svg" viewBox="0 -0.5 40 30" shape-rendering="crispEdges">
<metadata>Made with Pixels to Svg https://codepen.io/shshaw/pen/XbxvNj</metadata>
<path stroke="#202020" d="M18 11h2M17 12h1M20 12h1M17 13h1M21 13h1M17 14h1M21 14h1M18 15h1M21 15h1M18 16h1M21 16h2M17 17h1M23 17h1M16 18h1M24 18h1M16 19h1M25 19h1M15 20h1M25 20h1M15 21h1M18 21h2M25 21h1M15 22h1M18 22h2M25 22h1M16 23h1M24 23h1M17 24h1M24 24h1M16 25h1M19 25h3M23 25h1M16 26h3M21 26h1M24 26h1M22 27h3" />
<path stroke="#de9c5a" d="M18 12h2M18 13h2M18 14h1M19 15h1" />
<path stroke="#a5734a" d="M20 13h1M19 14h2M20 15h1M20 16h1M17 25h2M22 26h2" />
<path stroke="#3a4a84" d="M19 16h1M21 17h1M17 18h1M23 18h1M17 19h1M22 19h1M20 20h2M24 20h1M23 21h2M16 22h1M23 22h2M17 23h1M21 23h3M18 24h6" />
<path stroke="#7b94d6" d="M18 17h2M18 18h4M20 19h2" />
<path stroke="#5a6bb5" d="M20 17h1M22 17h1M22 18h1M19 19h1M23 19h2M16 20h1M22 20h2M16 21h1M21 21h2M21 22h2" />
<path stroke="#c58c08" d="M18 19h1M17 20h1M19 20h1M20 21h1M20 23h1" />
<path stroke="#525252" d="M18 20h1M22 25h1" />
<path stroke="#f7f729" d="M17 21h1M17 22h1M20 22h1M18 23h2" />
</svg>