<svg xmlns="http://www.w3.org/2000/svg" viewBox="0 -0.5 40 30" shape-rendering="crispEdges">
<metadata>Made with Pixels to Svg https://codepen.io/shshaw/pen/XbxvNj</metadata>
<path stroke="#202020" d="M16 9h2M19 9h3M15 10h1M17 10h2M21 10h1M14 11h1M21 11h4M28 11h2M13 12h1M24 12h1M26 12h2M29 12h1M13 13h1M23 13h1M25 13h1M29 13h1M13 14h1M24 14h1M29 14h1M12 15h1M28 15h1M12 16h1M19 16h1M28 16h1M13 17h1M19 17h1M27 17h1M12 18h2M26 18h1M11 19h1M27 19h1M11 20h1M27 20h1M11 21h1M14 21h2M26 21h1M11 22h1M13 22h2M16 22h1M25 22h1M11 23h1M13 23h1M15 23h1M26 23h1M12 24h1M15 24h1M19 24h4M26 24h1M16 25h3M22 25h1M27 25h1M23 26h1M27 26h1M24 27h3" />
<path stroke="#5a944a" d="M16 10h1M19 10h1M15 11h1M17 11h1M15 12h1M28 12h1M14 13h1M27 13h1M14 14h1M26 14h1M14 15h1M21 15h3M25 15h1M14 16h1M21 16h1M25 16h1M23 17h2M16 18h1M22 18h2M12 19h1M15 19h1M17 19h1M22 19h1M24 19h1M12 20h1M18 20h4M16 21h2M18 22h2M16 23h2M20 23h1M22 23h1M17 24h2M25 24h1M25 25h2M25 26h1" />
<path stroke="#84c573" d="M20 10h1M18 11h3M17 12h3M21 12h3M16 13h3M20 13h3M26 13h1M15 14h6M25 14h1M13 15h1M15 15h5M13 16h1M15 16h3M22 16h1M14 17h3M21 17h1M14 18h2M17 18h2M16 19h1M25 19h2M24 20h1M23 21h1M22 22h1" />
<path stroke="#4a6b3a" d="M16 11h1M14 12h1M16 12h1M20 12h1M15 13h1M19 13h1M21 14h2M20 15h1M18 16h1M17 17h1M19 23h1" />
<path stroke="#e6d69c" d="M28 13h1M27 14h1M26 15h2M26 16h1" />
<path stroke="#525252" d="M23 14h1M24 15h1M23 16h2M22 17h1M25 17h1M20 18h2M24 18h2M14 19h1M18 19h2M21 19h1M23 19h1M14 20h4M22 20h2M18 21h2M22 21h1M17 22h1M20 22h2M18 23h1M21 23h1M25 23h1M24 24h1M24 25h1" />
<path stroke="#c5b57b" d="M28 14h1M27 16h1M26 17h1M20 19h1M20 21h2" />
<path stroke="#ffffff" d="M20 16h1M18 17h1M20 17h1M19 18h1M25 20h2M24 21h2M23 22h2M23 23h1M23 24h1M23 25h1" />
<path stroke="#c5c5c5" d="M13 19h1M13 20h1M12 21h2M12 22h1M12 23h1M24 23h1M16 24h1M24 26h1M26 26h1" />
</svg>