<svg xmlns="http://www.w3.org/2000/svg" viewBox="0 -0.5 40 30" shape-rendering="crispEdges">
<metadata>Made with Pixels to Svg https://codepen.io/shshaw/pen/XbxvNj</metadata>
<path stroke="#202020" d="M17 6h2M16 7h1M19 7h1M22 7h2M16 8h1M19 8h1M21 8h1M24 8h1M16 9h1M18 9h1M21 9h1M24 9h1M16 10h1M18 10h1M20 10h1M22 10h2M15 11h1M17 11h1M20 11h1M22 11h1M15 12h1M18 12h2M21 12h1M14 13h1M21 13h1M13 14h1M21 14h1M13 15h1M22 15h1M13 16h1M22 16h1M13 17h1M22 17h1M14 18h1M21 18h1M15 19h1M21 19h1M16 20h1M20 20h1M22 20h2M15 21h1M21 21h1M24 21h1M14 22h1M25 22h1M14 23h2M26 23h1M15 24h1M27 24h1M14 25h1M26 25h1M15 26h2M23 26h3M17 27h6" />
<path stroke="#9c8ce6" d="M17 7h1M22 8h1M17 10h1M21 11h1M20 12h1M16 13h1M19 14h1M19 16h1M14 17h1M18 17h2M15 18h1M20 22h1M22 22h2M20 23h1M23 23h1M21 24h2" />
<path stroke="#d6c5f7" d="M18 7h1M17 8h2M23 8h1M17 9h1M22 9h2M21 10h1M16 12h1M15 13h1M17 13h1M19 13h1M15 14h4M20 14h1M15 15h2M18 15h4M14 16h3M18 16h1M20 16h2M15 17h3M21 17h1M18 18h2M18 19h3M17 20h2M16 21h4M22 21h2M19 22h1M21 22h1M24 22h1M21 23h2M24 23h1M20 24h1M23 24h2M21 25h3" />
<path stroke="#525252" d="M16 11h1M18 13h1M20 13h1M20 21h1M25 23h1" />
<path stroke="#8c848c" d="M17 12h1" />
<path stroke="#219429" d="M14 14h1M14 15h1M17 15h1M17 16h1" />
<path stroke="#8cf74a" d="M20 17h1M20 18h1M19 20h1" />
<path stroke="#9452b5" d="M16 18h2M16 22h1M18 22h1M17 23h1M17 24h1M25 25h1M17 26h1M22 26h1" />
<path stroke="#ce6b7b" d="M16 19h2" />
<path stroke="#bd84de" d="M15 22h1M17 22h1M16 23h1M18 23h1M16 24h1M19 24h1M25 24h2M15 25h6M24 25h1M18 26h4" />
<path stroke="#73428c" d="M19 23h1M18 24h1" />
</svg>