<svg xmlns="http://www.w3.org/2000/svg" viewBox="0 -0.5 40 30" shape-rendering="crispEdges">
<metadata>Made with Pixels to Svg https://codepen.io/shshaw/pen/XbxvNj</metadata>
<path stroke="#202020" d="M18 10h4M16 11h2M22 11h2M15 12h1M24 12h1M14 13h1M25 13h1M14 14h1M25 14h1M13 15h1M26 15h1M12 16h1M26 16h1M11 17h1M26 17h1M11 18h1M27 18h1M10 19h1M27 19h1M11 20h2M27 20h1M12 21h1M27 21h1M11 22h1M28 22h1M11 23h1M29 23h1M12 24h2M29 24h1M14 25h1M24 25h1M27 25h2M15 26h2M19 26h2M23 26h1M25 26h2M17 27h2M21 27h2" />
<path stroke="#b59cce" d="M18 11h4M16 12h8M15 13h10M15 14h10M14 15h1M17 15h3M21 15h5M15 16h2M18 16h2M21 16h5M15 17h11M14 18h1M17 18h1M20 18h7M15 19h4M21 19h5M17 20h2M22 20h2" />
<path stroke="#525252" d="M15 15h2M14 16h1M14 17h1M15 18h2M12 19h1M14 19h1M15 20h2M21 20h1M24 20h1M22 21h2" />
<path stroke="#ffffff" d="M20 15h1" />
<path stroke="#efce4a" d="M13 16h1M12 17h1M12 18h1M19 18h1M11 19h1M20 19h1M20 20h1M20 21h1M21 22h1" />
<path stroke="#947bce" d="M17 16h1M13 17h1M13 18h1M18 18h1M13 19h1M19 19h1M26 19h1M13 20h2M25 20h2M13 21h6M21 21h1M24 21h2M12 22h4M17 22h3M23 22h3M12 23h3M18 23h3M24 23h3M28 23h1M14 24h1M18 24h3M24 24h5M15 25h1M17 25h5M23 25h1M25 25h2M17 26h2M21 26h2" />
<path stroke="#f76352" d="M20 16h1" />
<path stroke="#5a5a5a" d="M19 20h1M19 21h1M26 21h1M16 22h1M20 22h1M22 22h1M26 22h2M15 23h3M21 23h3M27 23h1M15 24h3M21 24h3M16 25h1M22 25h1" />
</svg>