<svg xmlns="http://www.w3.org/2000/svg" viewBox="0 -0.5 40 30" shape-rendering="crispEdges">
<metadata>Made with Pixels to Svg https://codepen.io/shshaw/pen/XbxvNj</metadata>
<path stroke="#202020" d="M17 6h3M16 7h1M20 7h1M23 7h3M14 8h2M19 8h1M23 8h1M26 8h1M29 8h2M13 9h1M19 9h1M22 9h1M26 9h1M28 9h1M31 9h1M12 10h1M20 10h1M22 10h1M27 10h1M31 10h1M12 11h1M21 11h1M30 11h1M11 12h1M29 12h1M8 13h3M28 13h1M7 14h1M28 14h1M7 15h1M29 15h1M8 16h1M29 16h1M9 17h1M30 17h2M9 18h1M32 18h1M10 19h1M32 19h1M11 20h1M30 20h2M12 21h1M29 21h1M13 22h1M27 22h2M13 23h1M15 23h2M22 23h1M26 23h1M14 24h1M17 24h1M21 24h1M23 24h1M25 24h1M17 25h1M21 25h1M24 25h1M18 26h1M20 26h1M18 27h1M20 27h1M19 28h1" />
<path stroke="#ffffff" d="M17 7h3M16 8h2M24 8h2M14 9h1M16 9h3M23 9h2M13 10h3M18 10h2M23 10h4M13 11h8M22 11h1M24 11h2M15 12h5M21 12h5M11 13h1M15 13h1M19 13h1M21 13h6M11 14h1M15 14h1M19 14h9M11 15h2M14 15h2M19 15h2M24 15h1M28 15h1M10 16h3M15 16h2M18 16h3M22 16h1M24 16h1M26 16h1M28 16h1M10 17h4M19 17h10M10 18h5M18 18h4M27 18h1M11 19h1M14 19h9M26 19h1M15 20h6M22 20h6M16 21h1M19 21h2M24 21h1M27 21h2" />
<path stroke="#94a5ad" d="M18 8h1M15 9h1M25 9h1M16 10h2M23 11h1M13 12h1M20 12h1M12 13h1M17 13h1M20 13h1M12 14h1M18 14h1M18 15h1" />
<path stroke="#8cd6ff" d="M29 9h1M28 10h1M30 10h1M27 11h1M9 14h1M8 15h1M9 16h1M29 18h2M31 19h1M29 20h1M14 23h1M19 24h1M24 24h1M18 25h1M20 25h1M19 26h1" />
<path stroke="#638cce" d="M30 9h1M26 11h1M26 12h1M27 13h1M10 14h1M10 15h1M29 17h1M28 18h1M31 18h1M12 19h2M13 20h1M28 20h1M14 21h1M18 21h1M21 21h2M26 21h1M15 22h3M19 22h2M23 22h3M18 23h1M20 23h1M25 23h1M18 24h1M20 24h1M19 25h1" />
<path stroke="#7badd6" d="M29 10h1M28 11h2M27 12h2M8 14h1M9 15h1M27 19h4M12 20h1M13 21h1M14 22h1M18 22h1M21 22h2M26 22h1M17 23h1M19 23h1M21 23h1M23 23h2M19 27h1" />
<path stroke="#cecece" d="M12 12h1M14 12h1M16 13h1M18 13h1" />
<path stroke="#cedee6" d="M13 13h1M13 14h1M17 14h1M17 15h1M14 20h1M21 20h1M15 21h1M17 21h1M23 21h1M25 21h1" />
<path stroke="#946bef" d="M14 13h1M14 14h1M16 14h1M16 15h1M22 15h1M26 15h1M13 16h1M21 16h1M23 16h1M25 16h1M27 16h1M14 17h4M23 18h3M24 19h1" />
<path stroke="#adc5e6" d="M13 15h1M17 16h1" />
<path stroke="#d6c5ff" d="M21 15h1M23 15h1M25 15h1M27 15h1M14 16h1M15 18h1M17 18h1" />
<path stroke="#b594ef" d="M18 17h1M16 18h1M22 18h1M26 18h1M23 19h1M25 19h1" />
</svg>