<svg xmlns="http://www.w3.org/2000/svg" viewBox="0 -0.5 40 30" shape-rendering="crispEdges">
<metadata>Made with Pixels to Svg https://codepen.io/shshaw/pen/XbxvNj</metadata>
<path stroke="#202020" d="M17 5h7M13 6h4M24 6h3M11 7h2M27 7h2M10 8h1M29 8h1M9 9h1M30 9h1M9 10h1M30 10h1M10 11h1M29 11h1M9 12h1M30 12h1M9 13h1M30 13h1M10 14h1M29 14h1M11 15h3M26 15h3M14 16h2M24 16h2M15 17h1M24 17h1M14 18h1M16 18h1M24 18h1M12 19h3M17 19h3M25 19h1M11 20h1M14 20h1M25 20h1M12 21h2M15 21h1M26 21h1M15 22h1M27 22h1M13 23h2M22 23h5M12 24h1M17 24h5M23 24h1M13 25h4M21 25h1M24 25h1M21 26h1M24 26h1M22 27h2" />
<path stroke="#de6352" d="M17 6h1M22 6h1M13 7h1M26 7h1M28 8h1M10 9h3M27 9h3M10 10h1M13 10h1M16 10h1M23 10h1M29 10h1M12 11h1M18 11h1M21 11h1M27 11h2M10 12h4M26 12h1M28 12h2M11 13h2M14 13h2M24 13h5M12 14h6M19 14h9M15 15h2M20 15h5M16 17h1M20 18h1" />
<path stroke="#ff9484" d="M18 6h1M21 6h1M16 7h1M23 7h1M25 7h1M12 8h4M24 8h2M15 10h1M24 10h3M13 11h5M22 11h2M26 11h1M14 12h2M18 12h1M20 12h6M16 13h2M19 13h2M23 13h1" />
<path stroke="#9c6352" d="M19 6h2M23 6h1M17 7h1M22 7h1M11 8h1M16 8h1M19 8h2M23 8h1M13 9h3M24 9h3M11 10h2M27 10h2M19 12h1M10 13h1M18 13h1M29 13h1M11 14h1M18 14h1M28 14h1M14 15h1M17 15h1M19 15h1M25 15h1" />
<path stroke="#ffe6ce" d="M14 7h2M24 7h1M26 8h2M14 10h1M11 11h1M24 11h2M16 12h2M27 12h1M13 13h1M21 13h2" />
<path stroke="#525252" d="M18 7h1M21 7h1M17 8h1M22 8h1M16 9h1M23 9h1M17 10h2M21 10h2M19 11h2M18 15h1M16 16h2M19 16h5M16 23h2" />
<path stroke="#f7ad31" d="M19 7h2M18 8h1M21 8h1M19 9h2" />
<path stroke="#bd8c42" d="M17 9h2M21 9h2M19 10h2" />
<path stroke="#5a73a5" d="M18 16h1M17 17h7M17 18h3M21 18h3M22 19h3M22 20h2M16 22h1M20 22h3M24 22h1M15 23h1M18 23h4M13 24h4M22 25h2M23 26h1" />
<path stroke="#6b8cce" d="M15 18h1M15 19h2M20 19h2M15 20h7M16 21h6M23 21h2M17 22h3M25 22h2" />
<path stroke="#425a84" d="M12 20h2M24 20h1M22 21h1M25 21h1M23 22h1M22 24h1M22 26h1" />
</svg>