<svg xmlns="http://www.w3.org/2000/svg" viewBox="0 -0.5 40 30" shape-rendering="crispEdges">
<metadata>Made with Pixels to Svg https://codepen.io/shshaw/pen/XbxvNj</metadata>
<path stroke="#202020" d="M12 6h2M11 7h1M14 7h1M16 7h3M21 7h2M10 8h1M14 8h2M19 8h2M23 8h2M9 9h1M24 9h1M9 10h1M17 10h1M23 10h1M10 11h1M24 11h1M29 11h3M9 12h1M25 12h2M28 12h1M32 12h2M8 13h1M27 13h1M34 13h1M8 14h1M35 14h1M9 15h1M35 15h1M10 16h1M33 16h2M11 17h2M32 17h1M12 18h1M31 18h1M13 19h1M31 19h1M12 20h2M31 20h1M11 21h1M31 21h1M10 22h1M30 22h1M10 23h1M14 23h1M29 23h1M11 24h3M15 24h2M28 24h1M17 25h5M29 25h1M22 26h1M27 26h2M23 27h4" />
<path stroke="#c5d6e6" d="M12 7h2M12 8h1M10 9h2M10 10h2M11 11h2M16 11h1M22 11h2M10 12h1M13 12h12M30 12h1M9 13h2M18 13h6M26 13h1M29 13h1M33 13h1M9 14h1M19 14h4M24 14h2M28 14h1M32 14h1M19 15h2M22 15h1M24 15h3M28 15h1M31 15h1M20 16h1M23 16h4M30 16h1M21 17h4M20 18h2M23 18h2M19 19h1M18 20h1M22 20h1M20 21h2M17 22h3" />
<path stroke="#848473" d="M11 8h1M24 13h2M23 14h1M26 14h1M21 15h1M25 17h1" />
<path stroke="#525252" d="M13 8h1M21 8h1M12 9h1M16 9h1M20 9h1M12 10h1M16 10h1M20 10h1M13 11h3M17 11h3M11 12h2M11 13h1M13 13h5M10 14h1M13 14h1M15 14h1M18 14h1M27 14h1M10 15h1M12 15h1M15 15h1M18 15h1M23 15h1M27 15h1M12 16h1M15 16h1M17 16h1M19 16h1M21 16h2M27 16h3M13 17h1M15 17h1M17 17h1M20 17h1M26 17h1M30 17h1M14 18h2M17 18h1M19 18h1M22 18h1M25 18h1M16 19h1M20 19h2M23 19h2M27 20h1M24 21h1M27 21h1M25 22h1M28 22h1M25 23h1M27 23h1M20 24h1M26 24h2" />
<path stroke="#ffffff" d="M16 8h3M22 8h1M17 9h1M21 9h3M21 10h2M20 11h2M14 19h1M15 20h3M14 21h1M15 22h2" />
<path stroke="#6bb5ef" d="M13 9h2M14 10h2M29 12h1M28 13h1M31 13h2M30 14h2M34 14h1M33 15h2M18 16h1M18 17h1M27 17h3M13 18h1M18 18h1M26 18h4M15 19h1M17 19h2M25 19h4M24 20h2M23 21h1M22 22h3M20 23h5M21 24h3M25 24h1M22 25h3M27 25h2M23 26h4" />
<path stroke="#4a8cc5" d="M15 9h1M13 10h1M31 12h1M30 13h1M29 14h1M33 14h1M29 15h2M32 15h1M31 16h2M19 17h1M31 17h1M30 18h1M22 19h1M29 19h2M14 20h1M19 20h3M23 20h1M26 20h1M28 20h3M12 21h1M15 21h5M22 21h1M25 21h2M28 21h3M11 22h3M20 22h2M26 22h2M29 22h1M11 23h3M26 23h1M28 23h1M17 24h3M24 24h1M25 25h2" />
<path stroke="#c59c42" d="M18 9h2" />
<path stroke="#ffd642" d="M18 10h2" />
<path stroke="#dec56b" d="M12 13h1M11 14h2M16 14h2M11 15h1M16 15h2M11 16h1" />
<path stroke="#d65252" d="M14 14h1M13 15h2M13 16h1" />
<path stroke="#f78c7b" d="M14 16h1M14 17h1" />
<path stroke="#ffe694" d="M16 16h1M16 17h1M16 18h1" />
<path stroke="#42639c" d="M13 21h1M14 22h1M15 23h5" />
</svg>