<svg xmlns="http://www.w3.org/2000/svg" viewBox="0 -0.5 40 30" shape-rendering="crispEdges">
<metadata>Made with Pixels to Svg https://codepen.io/shshaw/pen/XbxvNj</metadata>
<path stroke="#202020" d="M21 11h3M15 12h3M19 12h2M24 12h1M13 13h2M17 13h2M21 13h3M12 14h1M15 14h2M20 14h1M27 14h2M31 14h3M12 15h1M14 15h1M16 15h1M19 15h5M26 15h1M29 15h2M33 15h1M13 16h1M15 16h2M24 16h2M31 16h2M14 17h1M29 17h2M11 18h1M13 18h1M31 18h1M10 19h1M12 19h1M28 19h3M10 20h1M27 20h1M11 21h1M26 21h1M12 22h1M26 22h1M13 23h2M16 23h1M23 23h3M15 24h1M17 24h6" />
<path stroke="#9473a4" d="M21 12h3M19 13h2M18 14h1M27 15h1M31 15h2M27 16h1M29 16h2M20 17h2M28 17h1M22 18h1M11 19h1M15 19h1M22 19h1M11 20h1M13 20h2M18 20h1M12 21h6M19 21h2M13 22h1M15 22h4M22 22h4M15 23h1M17 23h6" />
<path stroke="#736a8b" d="M15 13h2M14 14h1M13 15h1M17 15h1M14 16h1M17 16h1M28 16h1M15 17h1M18 17h1M18 18h1M29 18h2" />
<path stroke="#525252" d="M13 14h1M17 14h1M19 14h1M18 15h1M28 15h1M18 16h1M21 16h2M26 16h1M16 17h2M19 17h1M23 17h1M27 17h1M15 18h1M17 18h1M19 18h1M24 18h1M28 18h1M13 19h1M18 19h1M24 19h1M12 20h1M15 20h1M20 20h1M22 20h1M25 20h1M18 21h1M21 21h5M14 22h1M19 22h3" />
<path stroke="#c5ded5" d="M19 16h2M23 16h1M22 17h1M24 17h1M16 18h1M20 18h2M23 18h1M25 18h1M16 19h2M23 19h1M16 20h2" />
<path stroke="#7b8b83" d="M25 17h1M26 18h1M27 19h1" />
<path stroke="#9cb4a4" d="M26 17h1M27 18h1M25 19h2M23 20h2M26 20h1" />
<path stroke="#eee66a" d="M14 18h1M14 19h1M19 19h3M19 20h1M21 20h1" />
</svg>