<svg xmlns="http://www.w3.org/2000/svg" viewBox="0 -0.5 40 30" shape-rendering="crispEdges">
<metadata>Made with Pixels to Svg https://codepen.io/shshaw/pen/XbxvNj</metadata>
<path stroke="#202020" d="M21 5h2M19 6h2M22 6h1M18 7h1M22 7h1M18 8h1M11 9h3M19 9h1M22 9h1M10 10h1M14 10h1M18 10h1M22 10h1M9 11h1M14 11h2M17 11h1M19 11h1M21 11h1M23 11h2M9 12h1M16 12h1M18 12h2M22 12h1M24 12h1M10 13h2M25 13h1M11 14h1M26 14h1M12 15h2M26 15h2M29 15h3M11 16h1M15 16h1M28 16h1M32 16h1M10 17h1M32 17h1M10 18h1M20 18h1M32 18h1M11 19h1M27 19h2M31 19h1M11 20h1M27 20h1M29 20h2M12 21h2M28 21h1M14 22h2M28 22h1M15 23h1M27 23h1M16 24h1M24 24h3M16 25h1M22 25h2M17 26h1M21 26h1M18 27h3" />
<path stroke="#737373" d="M21 6h1M20 7h2M19 8h1M20 9h2M19 10h2M20 11h1M20 12h1M18 13h3M16 14h6M16 15h6M14 16h1M16 16h5M14 17h1M16 17h4M21 17h2M15 18h5M22 18h2M16 19h4M21 19h2M19 20h1" />
<path stroke="#525252" d="M19 7h1M20 8h2M21 10h1M12 11h2M11 12h2M14 12h2M21 12h1M13 13h2M16 13h2M21 13h1M24 13h1M13 14h1M15 14h1M22 14h2M14 15h1M22 15h1M25 15h1M13 16h1M21 16h2M24 16h1M31 16h1M13 17h1M23 17h2M27 17h1M14 18h1M24 18h2M27 18h1M15 19h1M23 19h1M26 19h1M15 20h1M18 20h1M20 20h3M15 21h1M17 21h1M16 22h1M26 22h1M23 23h1" />
<path stroke="#8c6b31" d="M11 10h3M10 11h2M18 11h1M10 12h1M13 12h1M17 12h1M23 12h1M12 13h1M15 13h1M22 13h2M12 14h1M14 14h1M25 16h1" />
<path stroke="#ad8c42" d="M24 14h2M23 15h2M23 16h1M26 16h2M29 16h2M25 17h2M28 17h4M26 18h1M28 18h4M29 19h2M16 20h2M16 21h1" />
<path stroke="#ffffff" d="M15 15h1M15 17h1M20 17h1M20 19h1" />
<path stroke="#cebd73" d="M12 16h1M11 17h1M11 18h1M12 19h1M12 20h2M26 20h1M14 21h1M26 21h2M25 22h1M27 22h1M16 23h3M24 23h3M19 24h1M21 24h3M19 25h3M18 26h3" />
<path stroke="#e65a52" d="M12 17h1M13 18h1M22 21h2M22 22h2M20 23h1" />
<path stroke="#bd524a" d="M12 18h1M17 24h2M20 24h1M17 25h2" />
<path stroke="#bdbdbd" d="M21 18h1" />
<path stroke="#ffef94" d="M13 19h2M24 19h2M14 20h1M23 20h3M18 21h4M24 21h2M17 22h5M24 22h1M19 23h1M21 23h2" />
</svg>