<svg xmlns="http://www.w3.org/2000/svg" viewBox="0 -0.5 40 30" shape-rendering="crispEdges">
<metadata>Made with Pixels to Svg https://codepen.io/shshaw/pen/XbxvNj</metadata>
<path stroke="#202020" d="M17 12h3M17 13h1M20 13h1M16 14h2M21 14h1M15 15h1M21 15h1M14 16h1M22 16h1M14 17h1M22 17h1M11 18h2M14 18h1M18 18h1M23 18h1M10 19h1M13 19h1M15 19h1M23 19h1M9 20h1M15 20h2M21 20h2M9 21h1M13 21h2M16 21h1M23 21h2M27 21h3M10 22h3M15 22h1M21 22h2M25 22h2M30 22h1M15 23h1M21 23h1M23 23h1M30 23h1M15 24h1M21 24h1M24 24h2M29 24h1M16 25h1M21 25h1M26 25h3M17 26h1M20 26h1M18 27h2" />
<path stroke="#737373" d="M18 13h2M18 14h3M17 15h4M15 16h3M19 16h3M15 17h2M20 17h1M15 18h2M11 19h2M10 20h1M22 21h1M23 22h2M27 22h2M26 23h2" />
<path stroke="#525252" d="M16 15h1M21 17h1M20 18h3M16 19h2M19 19h1M21 19h2M11 20h4M17 20h4M10 21h3M20 21h2M29 22h1M24 23h2M28 23h2M26 24h3M20 25h1M18 26h2" />
<path stroke="#bd3129" d="M18 16h1M17 17h3" />
<path stroke="#e64a29" d="M17 18h1M19 18h1M18 19h1M20 19h1" />
<path stroke="#f7e629" d="M17 21h3M17 22h1M20 22h1M20 23h1M19 24h2M19 25h1" />
<path stroke="#ffffff" d="M16 22h1M18 22h2M17 23h1M17 24h1" />
<path stroke="#bda55a" d="M16 23h1M18 23h2M16 24h1M18 24h1M17 25h2" />
</svg>