<svg xmlns="http://www.w3.org/2000/svg" viewBox="0 -0.5 32 14" shape-rendering="crispEdges">
<metadata>Made with Pixels to Svg https://codepen.io/shshaw/pen/XbxvNj</metadata>
<path stroke="#ad94f7" d="M1 0h30M0 1h1M31 1h1M12 2h8M10 3h2M20 3h2M9 4h1M14 4h4M22 4h1M8 5h1M12 5h2M18 5h2M23 5h1M7 6h1M11 6h1M15 6h2M20 6h1M24 6h1M7 7h1M11 7h1M20 7h1M24 7h1M7 8h1M12 8h2M18 8h2M24 8h1M8 9h1M14 9h4M23 9h1M8 10h3M21 10h2M10 11h3M19 11h3M12 12h7" />
<path stroke="#735a9c" d="M1 1h30M0 2h12M20 2h12M0 3h10M22 3h10M0 4h9M24 4h8M0 5h8M20 5h1M25 5h7M0 6h7M10 6h1M14 6h1M17 6h1M22 6h1M26 6h6M0 7h7M9 7h2M13 7h2M17 7h3M22 7h2M26 7h6M0 8h7M9 8h2M15 8h3M22 8h2M26 8h6M0 9h7M9 9h3M21 9h2M26 9h6M0 10h7M11 10h3M19 10h2M25 10h7M0 11h8M13 11h6M24 11h8M1 12h8M23 12h8" />
<path stroke="#4a3a52" d="M12 3h8M10 4h4M18 4h4M23 4h1M9 5h3M14 5h4M21 5h2M24 5h1M8 6h2M12 6h2M18 6h2M21 6h1M23 6h1M25 6h1M8 7h1M12 7h1M15 7h2M21 7h1M25 7h1M8 8h1M11 8h1M14 8h1M20 8h2M25 8h1M7 9h1M12 9h2M18 9h3M24 9h2M7 10h1M14 10h5M23 10h2M8 11h2M22 11h2M0 12h1M9 12h3M19 12h4M31 12h1M1 13h30" />
</svg>