<svg xmlns="http://www.w3.org/2000/svg" viewBox="0 -0.5 96 96" shape-rendering="crispEdges">
<metadata>Made with Pixels to Svg https://codepen.io/shshaw/pen/XbxvNj</metadata>
<path stroke="#000000" d="M42 24h4M41 25h1M46 25h1M39 26h3M47 26h1M35 27h1M37 27h1M46 27h3M32 28h3M49 28h2M29 29h1M51 29h1M28 30h1M37 30h1M52 30h4M27 31h1M31 31h1M36 31h1M56 31h2M27 32h1M29 32h2M36 32h1M40 32h1M58 32h1M27 33h1M30 33h1M37 33h2M42 33h2M48 33h1M58 33h1M27 34h1M29 34h1M38 34h1M45 34h3M59 34h1M26 35h1M29 35h1M38 35h1M41 35h1M45 35h1M59 35h1M25 36h1M39 36h1M41 36h1M43 36h2M58 36h1M54 37h1M56 37h1M58 37h1M24 38h1M53 38h1M55 38h1M57 38h2M25 39h2M30 39h3M36 39h4M54 39h1M56 39h1M58 39h1M25 40h1M29 40h9M41 40h1M47 40h1M55 40h1M57 40h1M59 40h1M28 41h10M41 41h4M48 41h1M56 41h1M60 41h1M27 42h19M48 42h1M55 42h1M60 42h1M28 43h18M56 43h1M60 43h1M65 43h2M28 44h19M53 44h1M55 44h1M59 44h6M67 44h1M30 45h17M54 45h1M58 45h2M62 45h1M68 45h1M27 46h1M30 46h11M42 46h5M55 46h1M57 46h1M68 46h1M29 47h11M43 47h4M54 47h1M56 47h2M67 47h1M26 48h2M36 48h4M43 48h3M53 48h1M55 48h1M57 48h1M68 48h1M25 49h1M43 49h2M56 49h1M68 49h1M25 50h1M56 50h1M69 50h1M25 51h1M56 51h1M70 51h2M26 52h1M55 52h1M72 52h1M27 53h2M58 53h1M70 53h1M72 53h1M28 54h1M59 54h3M65 54h1M70 54h1M72 54h1M29 55h1M60 55h1M62 55h3M71 55h1M30 56h2M51 56h2M68 56h1M70 56h1M30 57h1M32 57h1M50 57h1M52 57h1M67 57h1M70 57h1M30 58h1M33 58h2M48 58h2M52 58h1M56 58h3M68 58h2M31 59h1M35 59h4M45 59h4M51 59h1M56 59h2M60 59h3M69 59h1M32 60h3M39 60h6M46 60h1M49 60h1M58 60h8M68 60h1M40 61h1M42 61h1M44 61h1M46 61h2M49 61h1M62 61h4M67 61h1M39 62h1M41 62h1M43 62h1M48 62h1M50 62h1M65 62h3M39 63h1M41 63h1M46 63h2M51 63h1M66 63h1M38 64h1M52 64h2M64 64h1M38 65h1M50 65h2M54 65h2M62 65h2M38 66h1M48 66h2M56 66h5M38 67h1M47 67h1M49 67h1M39 68h1M48 68h1M39 69h1M48 69h1M40 70h2M46 70h2M42 71h4" />
<path stroke="#84a5ce" d="M42 25h4M44 26h2M38 27h7M35 28h14M31 29h2M34 29h4M40 29h11M29 30h3M33 30h4M39 30h1M41 30h11M28 31h3M32 31h4M38 31h1M40 31h7M48 31h3M53 31h2M32 32h4M37 32h1M42 32h6M49 32h6M31 33h6M45 33h3M49 33h7M31 34h1M33 34h1M35 34h2M49 34h7M27 35h1M30 35h1M32 35h1M34 35h3M52 35h2M28 36h8M37 36h1M27 37h10M38 37h1M25 38h10M60 45h2M66 45h2M59 46h5M65 46h3M58 47h1M60 47h7M29 48h5M59 48h9M26 49h13M58 49h1M60 49h8M26 50h15M51 50h1M57 50h1M59 50h10M27 51h1M35 51h5M50 51h1M52 51h1M54 51h1M58 51h1M60 51h9M31 52h3M51 52h1M53 52h1M59 52h1M61 52h8M71 52h1M29 53h9M50 53h1M52 53h1M60 53h1M62 53h3M66 53h3M71 53h1M29 54h3M49 54h1M51 54h1M53 54h1M55 54h1M62 54h3M66 54h2M30 55h1M33 55h7M50 55h1M52 55h1M54 55h1M34 56h6M53 56h1M55 56h1M33 57h1M31 58h1M66 60h1M62 62h1M64 62h1M40 63h1M42 63h1M55 63h1M61 63h1M63 63h1M65 63h1M39 64h1M41 64h1M60 64h1M62 64h1M40 65h1M42 65h1M61 65h1M39 66h1M41 66h1M40 67h1" />
<path stroke="#4a63bd" d="M38 26h1M42 26h2M46 26h1M36 27h1M45 27h1M31 28h1M30 29h1M33 29h1M38 29h2M32 30h1M47 31h1M51 31h2M55 31h1M28 32h1M31 32h1M38 32h2M41 32h1M48 32h1M55 32h3M28 33h1M44 33h1M56 33h2M30 34h1M32 34h1M34 34h1M37 34h1M48 34h1M56 34h3M31 35h1M33 35h1M37 35h1M46 35h6M54 35h5M26 36h2M36 36h1M38 36h1M45 36h13M24 37h1M37 37h1M39 37h15M55 37h1M57 37h1M35 38h18M54 38h1M56 38h1M27 39h3M33 39h3M40 39h14M55 39h1M57 39h1M28 40h1M42 40h5M48 40h7M56 40h1M58 40h1M25 41h1M40 41h1M45 41h3M49 41h7M57 41h3M26 42h1M46 42h2M49 42h6M56 42h4M46 43h10M57 43h3M47 44h6M54 44h1M56 44h3M65 44h2M27 45h1M29 45h1M47 45h7M55 45h3M63 45h3M29 46h1M47 46h8M56 46h1M58 46h1M64 46h1M26 47h1M40 47h1M47 47h7M55 47h1M59 47h1M28 48h1M34 48h2M46 48h7M54 48h1M56 48h1M58 48h1M39 49h3M45 49h11M57 49h1M59 49h1M41 50h10M52 50h4M58 50h1M26 51h1M28 51h7M40 51h10M51 51h1M53 51h1M55 51h1M57 51h1M59 51h1M69 51h1M27 52h4M34 52h17M52 52h1M54 52h1M56 52h3M60 52h1M69 52h2M38 53h12M51 53h1M53 53h5M59 53h1M61 53h1M65 53h1M69 53h1M41 54h8M50 54h1M52 54h1M54 54h1M56 54h3M68 54h2M71 54h1M42 55h8M51 55h1M53 55h1M55 55h4M65 55h6M43 56h8M54 56h1M56 56h4M63 56h5M69 56h1M31 57h1M42 57h2M46 57h4M51 57h1M53 57h14M68 57h2M32 58h1M35 58h7M45 58h3M50 58h2M53 58h3M59 58h8M32 59h3M43 59h2M49 59h2M52 59h4M63 59h4M45 60h1M50 60h8M67 60h1M41 61h1M43 61h1M45 61h1M50 61h12M68 61h1M40 62h1M42 62h1M44 62h4M49 62h1M51 62h11M63 62h1M43 63h3M48 63h3M52 63h3M62 63h1M64 63h1M40 64h1M42 64h10M56 64h4M63 64h1M65 64h1M39 65h1M41 65h1M43 65h7M56 65h4M40 66h1M42 66h6M61 66h1M39 67h1M41 67h6M48 67h1M40 68h8M40 69h8M42 70h4" />
<path stroke="#ffffff" d="M38 30h1M40 30h1M37 31h1M39 31h1M29 33h1M39 33h3M28 34h1M39 34h6M28 35h1M39 35h2M42 35h3M40 36h1M42 36h1M25 37h2M26 40h2M38 40h3M26 41h2M38 41h2M28 45h1M28 46h1M41 46h1M27 47h2M41 47h2M40 48h3M42 49h1M32 54h9M31 55h2M40 55h2M59 55h1M61 55h1M32 56h2M40 56h3M60 56h3M34 57h8M44 57h2M42 58h3M67 58h1M39 59h4M58 59h2M67 59h2M66 61h1M56 63h5M54 64h2M61 64h1M60 65h1" />
</svg>