<svg xmlns="http://www.w3.org/2000/svg" viewBox="0 -0.5 96 96" shape-rendering="crispEdges">
<metadata>Made with Pixels to Svg https://codepen.io/shshaw/pen/XbxvNj</metadata>
<path stroke="#000000" d="M32 20h3M45 20h3M31 21h1M35 21h1M44 21h1M48 21h1M31 22h1M36 22h1M43 22h1M46 22h2M49 22h1M67 22h1M31 23h1M36 23h1M42 23h1M45 23h2M49 23h1M64 23h1M68 23h1M28 24h3M37 24h1M41 24h1M44 24h2M49 24h1M63 24h1M68 24h1M33 25h3M39 25h3M43 25h2M48 25h1M62 25h1M67 25h1M27 26h1M40 26h1M43 26h1M48 26h1M62 26h1M67 26h1M28 27h2M40 27h1M42 27h1M47 27h1M52 27h2M66 27h1M30 28h2M42 28h1M47 28h2M50 28h2M54 28h1M61 28h1M66 28h1M30 29h1M47 29h1M49 29h1M54 29h1M61 29h1M66 29h1M22 30h3M29 30h1M53 30h1M55 30h2M66 30h1M21 31h1M25 31h4M53 31h2M57 31h1M60 31h1M66 31h1M28 32h3M42 32h2M47 32h2M57 32h1M60 32h1M65 32h1M67 32h1M22 33h1M27 33h1M31 33h2M36 33h1M41 33h1M46 33h1M49 33h1M57 33h1M60 33h1M62 33h2M67 33h1M23 34h1M26 34h1M33 34h1M40 34h1M49 34h1M56 34h1M60 34h1M68 34h1M24 35h1M30 35h1M35 35h1M39 35h1M48 35h1M55 35h1M57 35h2M60 35h1M68 35h1M25 36h1M35 36h1M38 36h1M48 36h2M59 36h1M61 36h1M69 36h1M25 37h1M29 37h1M37 37h2M40 37h1M50 37h1M56 37h4M61 37h1M69 37h1M25 38h1M27 38h1M37 38h3M50 38h1M55 38h1M60 38h2M70 38h1M27 39h1M48 39h2M51 39h1M62 39h1M70 39h1M28 40h2M42 40h1M50 40h2M63 40h1M69 40h1M71 40h1M42 41h3M51 41h1M63 41h4M71 41h1M27 42h1M39 42h1M42 42h1M45 42h1M50 42h1M53 42h1M64 42h1M72 42h1M25 43h1M31 43h1M37 43h2M40 43h1M42 43h1M46 43h4M53 43h1M64 43h1M72 43h1M26 44h1M36 44h1M41 44h1M45 44h1M53 44h1M62 44h5M27 45h2M34 45h2M43 45h3M54 45h1M60 45h2M67 45h1M73 45h1M29 46h2M32 46h2M39 46h4M45 46h1M54 46h1M59 46h1M68 46h1M73 46h1M28 47h1M31 47h2M34 47h5M44 47h1M69 47h1M72 47h2M26 48h2M29 48h2M32 48h2M45 48h1M54 48h3M69 48h3M74 48h1M25 49h1M33 49h2M46 49h2M53 49h1M56 49h1M58 49h1M69 49h1M74 49h1M24 50h1M31 50h1M35 50h1M47 50h2M52 50h1M57 50h2M70 50h1M74 50h1M32 51h1M35 51h1M40 51h1M49 51h3M57 51h2M70 51h1M74 51h1M23 52h1M25 52h1M32 52h1M36 52h1M57 52h1M70 52h1M74 52h1M22 53h1M27 53h1M32 53h1M36 53h1M57 53h1M70 53h1M74 53h1M22 54h1M24 54h1M27 54h1M31 54h1M33 54h3M37 54h1M57 54h1M70 54h1M73 54h1M22 55h1M24 55h1M26 55h1M31 55h2M37 55h1M58 55h1M73 55h1M21 56h1M23 56h1M30 56h1M36 56h2M58 56h1M69 56h3M73 56h1M24 57h1M29 57h1M34 57h2M38 57h1M55 57h3M69 57h1M72 57h2M23 58h2M27 58h2M33 58h1M38 58h1M54 58h1M56 58h1M59 58h1M69 58h1M73 58h1M23 59h1M26 59h1M32 59h1M39 59h1M53 59h1M56 59h1M58 59h1M60 59h1M68 59h1M72 59h1M24 60h2M39 60h1M53 60h1M57 60h1M60 60h1M65 60h1M68 60h1M72 60h1M40 61h1M52 61h1M59 61h1M63 61h2M67 61h1M71 61h1M31 62h1M40 62h1M52 62h1M60 62h4M66 62h1M68 62h2M71 62h1M32 63h1M41 63h1M52 63h1M64 63h3M70 63h1M32 64h1M42 64h1M53 64h1M66 64h1M70 64h1M33 65h1M42 65h3M53 65h1M65 65h2M69 65h1M34 66h2M41 66h2M44 66h2M54 66h1M65 66h1M67 66h2M33 67h1M36 67h5M46 67h2M55 67h2M63 67h1M67 67h1M31 68h1M34 68h2M45 68h1M48 68h2M54 68h1M57 68h3M61 68h1M68 68h1M30 69h1M36 69h1M45 69h1M50 69h4M68 69h1M30 70h1M32 70h1M37 70h1M43 70h2M52 70h1M54 70h2M61 70h1M68 70h1M31 71h1M40 71h3M53 71h1M56 71h1M59 71h1M62 71h1M67 71h1M32 72h8M57 72h2M65 72h2M52 73h1M56 73h3M63 73h2M53 74h3M59 74h1M62 74h1M60 75h2" />
<path stroke="#b5adad" d="M32 21h2M47 21h1M44 22h2M48 22h1M43 23h2M48 23h1M42 24h2M48 24h1M64 24h4M30 25h3M42 25h1M47 25h1M65 25h2M28 26h2M32 26h3M36 26h1M38 26h1M41 26h2M47 26h1M63 26h2M66 26h1M30 27h8M39 27h1M41 27h1M46 27h1M62 27h4M32 28h7M40 28h2M45 28h2M52 28h1M62 28h1M64 28h2M31 29h1M34 29h5M40 29h7M48 29h1M50 29h1M63 29h3M32 30h1M34 30h16M61 30h2M64 30h2M24 31h1M31 31h1M33 31h18M61 31h1M63 31h3M25 32h2M32 32h5M38 32h4M44 32h3M49 32h1M61 32h2M23 33h1M26 33h1M28 33h2M33 33h3M37 33h4M45 33h1M47 33h2M50 33h1M64 33h2M24 34h2M29 34h1M31 34h2M34 34h2M37 34h3M45 34h4M51 34h1M61 34h2M64 34h2M26 35h2M31 35h2M34 35h1M36 35h3M45 35h3M50 35h1M52 35h1M61 35h1M63 35h4M26 36h3M32 36h1M34 36h1M36 36h2M44 36h3M51 36h1M62 36h1M64 36h2M67 36h1M27 37h2M30 37h1M33 37h2M36 37h1M44 37h6M62 37h5M29 38h3M33 38h4M42 38h8M62 38h4M67 38h1M28 39h3M32 39h15M56 39h5M63 39h4M68 39h1M31 40h10M43 40h7M55 40h7M64 40h4M28 41h11M45 41h6M54 41h9M28 42h10M47 42h3M54 42h2M58 42h5M66 42h1M68 42h1M27 43h3M32 43h5M54 43h1M59 43h4M65 43h1M67 43h1M69 43h1M27 44h8M54 44h1M59 44h3M68 44h1M29 45h3M55 45h1M58 45h2M63 45h3M46 46h1M50 46h1M52 46h1M55 46h4M60 46h8M29 47h2M40 47h3M45 47h3M49 47h1M51 47h1M53 47h1M55 47h3M60 47h2M64 47h5M28 48h1M31 48h1M34 48h11M46 48h3M50 48h1M52 48h1M59 48h2M65 48h4M26 49h6M35 49h1M41 49h5M48 49h2M51 49h1M59 49h2M65 49h4M25 50h5M42 50h2M45 50h2M49 50h2M55 50h1M59 50h1M65 50h5M24 51h5M30 51h1M44 51h2M54 51h1M56 51h1M59 51h1M64 51h6M24 52h1M29 52h1M31 52h1M46 52h2M55 52h1M58 52h2M63 52h7M23 53h1M56 53h1M58 53h2M63 53h7M23 54h1M55 54h2M58 54h3M62 54h8M23 55h1M56 55h2M59 55h11M57 56h1M59 56h10M59 57h10M35 58h2M55 58h1M61 58h1M64 58h5M34 59h1M36 59h2M54 59h2M59 59h1M65 59h3M33 60h1M35 60h1M37 60h2M55 60h1M59 60h1M67 60h1M32 61h7M53 61h2M56 61h1M58 61h1M32 62h6M50 62h1M53 62h7M33 63h4M43 63h1M45 63h1M47 63h1M49 63h1M51 63h1M53 63h8M34 64h2M44 64h1M46 64h1M48 64h1M50 64h1M54 64h8M51 65h1M55 65h6M46 66h1M48 66h1M50 66h1M52 66h1M48 67h7M55 68h1M54 69h4M31 70h1M56 70h2M36 71h2M57 71h1M56 72h1M62 72h1M54 73h2M61 73h2M60 74h2" />
<path stroke="#63638c" d="M34 21h1M32 22h4M66 22h1M32 23h4M47 23h1M65 23h1M27 24h1M31 24h6M46 24h2M26 25h1M36 25h3M45 25h2M63 25h2M44 26h3M65 26h1M43 27h3M61 27h1M39 28h1M43 28h2M53 28h1M32 29h2M39 29h1M51 29h3M50 30h3M60 30h1M51 31h2M55 31h2M21 32h1M27 32h1M37 32h1M50 32h7M64 32h1M66 32h1M30 33h1M44 33h1M51 33h6M61 33h1M66 33h1M30 34h1M36 34h1M44 34h1M50 34h1M52 34h4M66 34h2M25 35h1M33 35h1M44 35h1M49 35h1M51 35h1M53 35h2M56 35h1M67 35h1M30 36h1M33 36h1M39 36h1M43 36h1M47 36h1M50 36h1M52 36h7M66 36h1M68 36h1M26 37h1M32 37h1M35 37h1M43 37h1M51 37h5M67 37h2M28 38h1M32 38h1M40 38h2M51 38h4M56 38h4M66 38h1M68 38h2M24 39h1M31 39h1M47 39h1M50 39h1M52 39h4M61 39h1M67 39h1M69 39h1M71 39h1M24 40h1M30 40h1M41 40h1M52 40h3M62 40h1M68 40h1M70 40h1M24 41h1M39 41h1M52 41h2M67 41h4M25 42h1M38 42h1M43 42h2M46 42h1M51 42h2M63 42h1M65 42h1M67 42h1M69 42h3M30 43h1M39 43h1M43 43h3M50 43h3M63 43h1M66 43h1M68 43h1M70 43h2M35 44h1M37 44h4M42 44h3M46 44h7M67 44h1M69 44h5M32 45h2M36 45h7M46 45h8M62 45h1M66 45h1M68 45h5M31 46h1M34 46h5M43 46h2M47 46h3M51 46h1M53 46h1M69 46h4M33 47h1M39 47h1M43 47h1M48 47h1M50 47h1M52 47h1M54 47h1M58 47h2M70 47h2M49 48h1M51 48h1M53 48h1M57 48h2M72 48h2M32 49h1M50 49h1M52 49h1M54 49h2M57 49h1M70 49h4M30 50h1M32 50h3M51 50h1M53 50h2M56 50h1M71 50h3M23 51h1M29 51h1M31 51h1M33 51h2M37 51h3M46 51h3M52 51h2M55 51h1M71 51h3M26 52h3M30 52h1M33 52h3M40 52h6M53 52h2M56 52h1M71 52h3M24 53h1M28 53h4M33 53h3M54 53h2M71 53h3M28 54h3M32 54h1M54 54h1M71 54h2M74 54h1M27 55h4M52 55h2M55 55h1M70 55h3M24 56h6M38 56h2M48 56h4M56 56h1M72 56h1M21 57h1M25 57h4M36 57h2M40 57h8M70 57h2M22 58h1M25 58h2M34 58h1M37 58h1M60 58h1M62 58h2M70 58h3M38 59h1M61 59h1M64 59h1M69 59h3M32 60h1M40 60h1M52 60h1M64 60h1M66 60h1M69 60h3M31 61h1M39 61h1M41 61h2M49 61h3M68 61h3M38 62h2M43 62h6M67 62h1M70 62h1M37 63h4M61 63h3M67 63h3M33 64h1M36 64h6M51 64h2M62 64h4M67 64h3M34 65h8M45 65h6M54 65h1M61 65h4M67 65h2M33 66h1M36 66h5M43 66h1M55 66h10M66 66h1M32 67h1M34 67h2M41 67h5M57 67h6M64 67h3M36 68h9M50 68h4M56 68h1M60 68h1M62 68h6M33 69h2M37 69h8M58 69h10M38 70h5M53 70h1M58 70h3M62 70h6M38 71h2M58 71h1M63 71h4M52 72h1M63 72h2" />
<path stroke="#ffffff" d="M45 21h2M66 23h2M27 25h3M30 26h2M35 26h1M37 26h1M39 26h1M38 27h1M63 28h1M62 29h1M30 30h2M33 30h1M63 30h1M22 31h2M29 31h2M32 31h1M62 31h1M22 32h3M31 32h1M63 32h1M24 33h2M42 33h2M27 34h2M41 34h3M63 34h1M28 35h2M40 35h4M62 35h1M29 36h1M31 36h1M40 36h3M63 36h1M31 37h1M39 37h1M41 37h2M26 38h1M25 39h2M25 40h3M25 41h3M40 41h2M26 42h1M40 42h2M56 42h2M26 43h1M41 43h1M55 43h4M55 44h4M56 45h2M62 47h2M61 48h4M36 49h5M61 49h4M36 50h6M44 50h1M60 50h5M36 51h1M41 51h3M60 51h4M37 52h3M48 52h5M60 52h3M25 53h2M37 53h17M60 53h3M25 54h2M38 54h16M61 54h1M25 55h1M38 55h14M54 55h1M22 56h1M40 56h8M52 56h4M22 57h2M39 57h1M48 57h7M58 57h1M39 58h15M57 58h2M24 59h2M33 59h1M35 59h1M40 59h13M57 59h1M62 59h2M34 60h1M36 60h1M41 60h11M54 60h1M56 60h1M58 60h1M61 60h3M43 61h6M55 61h1M57 61h1M60 61h3M65 61h2M41 62h2M49 62h1M51 62h1M64 62h2M42 63h1M44 63h1M46 63h1M48 63h1M50 63h1M43 64h1M45 64h1M47 64h1M49 64h1M52 65h1M47 66h1M49 66h1M51 66h1M53 66h1M32 68h2M31 69h2M35 69h1M33 70h4M32 71h4M54 71h2M60 71h2M53 72h3M59 72h3M53 73h1M59 73h2" />
</svg>