<svg xmlns="http://www.w3.org/2000/svg" viewBox="0 -0.5 96 96" shape-rendering="crispEdges">
<metadata>Made with Pixels to Svg https://codepen.io/shshaw/pen/XbxvNj</metadata>
<path stroke="#94f700" d="M47 26h1M50 27h2M57 27h2M36 28h6M45 28h1M48 28h6M57 28h2M34 29h1M36 29h7M44 29h1M47 29h1M51 29h4M56 29h3M33 30h1M35 30h2M38 30h4M44 30h3M48 30h1M50 30h1M52 30h3M56 30h2M35 31h1M43 31h4M49 31h1M51 31h1M53 31h3M34 32h2M40 32h2M43 32h3M48 32h1M50 32h1M53 32h5M64 32h2M33 33h4M41 33h1M43 33h3M47 33h1M49 33h1M51 33h2M54 33h6M62 33h4M34 34h7M44 34h2M51 34h3M56 34h8M32 35h2M35 35h5M43 35h1M48 35h3M53 35h2M59 35h3M31 36h4M37 36h3M44 36h5M51 36h2M55 36h3M62 36h2M31 37h4M36 37h1M41 37h2M46 37h5M52 37h2M55 37h3M60 37h2M63 37h2M33 38h1M35 38h1M38 38h3M42 38h6M50 38h5M56 38h1M58 38h1M62 38h3M29 39h1M31 39h2M36 39h1M39 39h2M44 39h2M52 39h3M57 39h1M59 39h1M64 39h2M28 40h1M31 40h4M37 40h1M39 40h1M53 40h3M58 40h1M60 40h1M63 40h1M65 40h2M28 41h1M31 41h6M38 41h2M53 41h1M59 41h1M64 41h1M67 41h1M30 42h1M33 42h6M56 42h2M60 42h1M65 42h1M68 42h1M27 43h1M29 43h1M32 43h1M35 43h2M52 43h1M55 43h5M63 43h1M66 43h3M27 44h2M31 44h1M33 44h1M51 44h3M57 44h3M62 44h1M65 44h1M27 45h2M30 45h1M32 45h1M34 45h1M50 45h3M58 45h3M63 45h1M65 45h2M28 46h2M31 46h1M49 46h3M59 46h2M62 46h1M64 46h3M28 47h2M33 47h3M49 47h3M61 47h1M63 47h3M29 48h1M31 48h6M48 48h3M61 48h2M64 48h1M30 49h7M42 49h1M48 49h1M60 49h4M30 50h3M38 50h1M41 50h4M49 50h3M61 50h3M30 51h2M33 51h1M35 51h1M37 51h15M62 51h3M31 52h2M34 52h1M36 52h4M42 52h9M52 52h1M62 52h3M31 53h2M36 53h1M38 53h1M44 53h4M52 53h1M62 53h3M31 54h2M34 54h1M36 54h1M38 54h1M41 54h2M49 54h3M53 54h1M61 54h1M63 54h1M30 55h3M34 55h1M37 55h3M43 55h3M47 55h1M49 55h4M60 55h1M63 55h1M30 56h2M33 56h2M37 56h5M44 56h1M46 56h1M48 56h1M50 56h6M59 56h1M61 56h1M27 57h1M30 57h2M34 57h2M38 57h6M47 57h1M49 57h1M52 57h5M58 57h1M60 57h1M26 58h1M29 58h2M37 58h1M40 58h6M49 58h3M55 58h3M27 59h2M36 59h3M42 59h2M45 59h2M48 59h7M56 59h2M37 60h2M40 60h2M44 60h3M51 60h2M56 60h2M37 61h6M55 61h2M37 62h4" />
<path stroke="#000000" d="M48 26h4M57 26h2M36 27h6M45 27h2M52 27h2M56 27h1M59 27h1M34 28h2M42 28h3M54 28h1M56 28h1M59 28h1M33 29h1M43 29h1M48 29h3M55 29h1M59 29h1M32 30h1M37 30h1M42 30h2M47 30h1M49 30h1M51 30h1M55 30h1M58 30h1M32 31h1M36 31h7M47 31h2M50 31h1M52 31h1M56 31h2M64 31h2M32 32h1M36 32h1M39 32h1M42 32h1M46 32h2M49 32h1M51 32h2M58 32h2M62 32h2M66 32h1M32 33h1M37 33h4M42 33h1M46 33h1M48 33h1M50 33h1M53 33h1M60 33h2M66 33h1M32 34h2M41 34h3M46 34h5M54 34h2M64 34h2M31 35h1M34 35h1M40 35h1M44 35h4M51 35h2M55 35h4M62 35h3M30 36h1M35 36h2M40 36h1M53 36h2M58 36h4M64 36h1M30 37h1M35 37h1M37 37h4M54 37h1M58 37h2M65 37h1M30 38h3M34 38h1M36 38h2M41 38h1M48 38h2M55 38h1M57 38h1M59 38h3M65 38h1M30 39h1M33 39h3M37 39h1M41 39h3M46 39h6M55 39h2M58 39h1M60 39h1M62 39h1M66 39h1M35 40h2M40 40h7M50 40h3M56 40h2M59 40h1M61 40h2M67 40h1M27 41h1M40 41h6M51 41h2M54 41h5M60 41h2M63 41h1M68 41h1M27 42h1M31 42h2M39 42h7M47 42h1M51 42h3M58 42h2M61 42h4M69 42h1M26 43h1M30 43h2M33 43h2M37 43h2M42 43h4M51 43h1M60 43h3M64 43h2M69 43h1M26 44h1M29 44h2M32 44h1M34 44h4M43 44h4M50 44h1M54 44h3M60 44h2M63 44h2M66 44h3M26 45h1M29 45h1M31 45h1M33 45h1M35 45h3M39 45h1M43 45h7M53 45h1M57 45h1M61 45h2M64 45h1M67 45h1M27 46h1M30 46h1M32 46h6M43 46h6M52 46h1M58 46h1M61 46h1M63 46h1M67 46h1M27 47h1M30 47h3M36 47h3M42 47h7M52 47h1M59 47h2M62 47h1M66 47h1M28 48h1M30 48h1M37 48h11M51 48h1M59 48h2M63 48h1M65 48h1M29 49h1M37 49h3M43 49h5M49 49h3M59 49h1M64 49h1M29 50h1M33 50h5M45 50h4M52 50h1M60 50h1M64 50h1M29 51h1M32 51h1M34 51h1M36 51h1M52 51h1M60 51h2M65 51h1M30 52h1M33 52h1M35 52h1M40 52h2M51 52h1M53 52h1M60 52h2M65 52h1M30 53h1M33 53h3M39 53h5M48 53h4M53 53h1M60 53h2M65 53h1M30 54h1M33 54h1M35 54h1M39 54h2M43 54h6M52 54h1M54 54h1M60 54h1M62 54h1M64 54h1M29 55h1M33 55h1M35 55h2M40 55h3M46 55h1M48 55h1M53 55h3M59 55h1M61 55h2M64 55h1M29 56h1M32 56h1M35 56h2M42 56h2M45 56h1M47 56h1M49 56h1M56 56h3M60 56h1M62 56h2M28 57h1M32 57h2M36 57h2M44 57h3M48 57h1M50 57h2M57 57h1M59 57h1M61 57h2M31 58h1M34 58h3M38 58h2M46 58h3M52 58h3M58 58h3M26 59h1M29 59h2M35 59h1M39 59h3M47 59h1M55 59h1M58 59h1M27 60h2M35 60h1M39 60h1M42 60h2M47 60h4M53 60h3M58 60h1M35 61h1M43 61h7M51 61h2M54 61h1M57 61h1M36 62h1M41 62h3M46 62h3M51 62h1M55 62h2M37 63h4M44 63h1M52 63h1M43 64h1M45 64h2M52 64h1M43 65h1M52 65h1M42 66h1M51 66h1M42 67h1M51 67h1M42 68h1M50 68h1M43 69h2M48 69h2M45 70h3" />
<path stroke="#ffffff" d="M47 27h3M46 28h2M35 29h1M45 29h2M34 30h1M33 31h2M33 32h1M41 35h2M41 36h3M49 36h2M43 37h3M51 37h1M62 37h1M38 39h1M63 39h1M29 40h2M38 40h1M47 40h3M64 40h1M29 41h2M37 41h1M46 41h5M65 41h2M28 42h2M46 42h1M48 42h3M54 42h2M66 42h2M28 43h1M39 43h3M46 43h5M53 43h2M38 44h5M47 44h3M38 45h1M40 45h3M38 46h5M54 46h2M39 47h3M53 47h2M40 49h2M39 50h2M37 53h1M37 54h1M29 57h1M27 58h2M44 59h1M36 60h1M36 61h1M44 66h1M44 67h2M45 68h2" />
<path stroke="#8c3131" d="M54 45h3M53 46h1M56 46h2M55 47h4M52 48h7M52 49h7M53 50h7M53 51h7M54 52h6M54 53h6M55 54h5M56 55h3M50 61h1M44 62h2M49 62h2M45 63h7M44 64h1M47 64h5M44 65h8M43 66h1M45 66h6M43 67h1M46 67h5M43 68h2M47 68h3M45 69h3" />
</svg>