<svg xmlns="http://www.w3.org/2000/svg" viewBox="0 -0.5 96 96" shape-rendering="crispEdges">
<metadata>Made with Pixels to Svg https://codepen.io/shshaw/pen/XbxvNj</metadata>
<path stroke="#a58c6b" d="M47 29h1M51 29h1M47 31h2M55 31h1M43 32h1M46 32h1M43 33h1M45 35h1M48 35h1M56 36h3M58 37h1M58 38h1M51 39h1M58 39h1M49 40h1M57 40h2M57 41h1M47 42h2M57 42h2M36 43h1M58 43h1M51 44h1M58 44h2M36 45h2M42 45h1M46 45h1M49 45h1M58 45h2M34 46h2M38 46h1M40 46h1M51 46h2M57 46h3M50 47h1M53 47h1M56 47h1M58 47h3M49 48h1M54 48h1M57 48h4M38 49h1M48 49h2M54 49h1M56 49h1M58 49h3M50 50h1M57 50h4M36 51h1M48 51h1M55 51h7M36 52h1M49 52h1M54 52h5M60 52h3M36 53h1M50 53h1M52 53h5M59 53h3M32 54h1M43 54h1M49 54h1M53 54h1M33 55h1M37 55h1M39 55h1M46 55h2M59 55h1M42 56h1M49 56h2M58 56h1M62 56h1M39 57h1M54 57h1M58 57h1M62 57h1M41 58h2M50 58h5M44 59h1M51 59h4M35 60h1M40 60h1M43 60h3M53 60h1M34 61h1M36 61h1M44 61h1M50 61h1M34 62h2M41 62h2M46 62h1M54 62h1M49 63h1M53 63h1M42 64h1M48 64h1" />
<path stroke="#000000" d="M48 29h3M45 30h2M52 30h2M44 31h1M49 31h1M54 31h1M50 32h3M56 32h1M50 33h1M53 33h2M57 33h1M44 34h1M49 34h1M55 34h1M58 34h1M46 35h2M56 35h1M58 35h1M59 36h1M57 37h1M59 37h1M57 38h1M59 38h1M52 39h4M57 39h1M59 39h1M50 40h1M56 40h1M59 40h1M48 41h1M58 41h1M59 42h1M37 43h2M47 43h1M59 43h1M35 44h1M39 44h1M46 44h1M52 44h2M60 44h1M34 45h1M40 45h1M43 45h3M50 45h1M54 45h1M60 45h1M41 46h1M47 46h2M55 46h1M60 46h1M33 47h1M39 47h1M55 47h1M61 47h1M33 48h1M38 48h1M55 48h1M61 48h1M34 49h1M55 49h1M61 49h1M35 50h1M37 50h1M55 50h1M61 50h1M37 51h1M47 51h1M54 51h1M62 51h1M37 52h2M46 52h1M52 52h2M59 52h1M63 52h1M33 53h2M38 53h1M45 53h2M57 53h2M63 53h1M35 54h2M38 54h2M44 54h1M46 54h1M52 54h1M54 54h4M59 54h1M63 54h1M34 55h1M38 55h1M44 55h2M51 55h2M57 55h1M64 55h1M35 56h4M54 56h3M64 56h1M37 57h2M44 57h2M51 57h3M55 57h1M60 57h1M63 57h1M36 58h1M39 58h1M43 58h4M55 58h1M59 58h1M61 58h2M35 59h1M39 59h1M43 59h1M45 59h2M50 59h1M33 60h2M46 60h1M49 60h2M54 60h1M32 61h1M39 61h2M43 61h1M45 61h1M48 61h1M54 61h1M31 62h1M37 62h2M43 62h2M47 62h1M49 62h1M32 63h2M36 63h1M41 63h1M45 63h2M34 64h2M43 64h2M53 64h1M48 65h1M50 65h1M53 65h1M49 66h1M51 66h2" />
<path stroke="#b5bd9c" d="M47 30h5M45 31h2M50 31h4M45 32h1M47 32h3M53 32h3M46 33h4M55 33h2M45 34h4M56 34h2M57 35h1M51 40h5M49 41h8M49 42h8M48 43h10M36 44h3M47 44h4M54 44h4M35 45h1M38 45h2M47 45h2M51 45h3M55 45h3M39 46h1M42 46h5M49 46h2M53 46h2M56 46h1M34 47h1M40 47h10M54 47h1M57 47h1M34 48h1M39 48h10M56 48h1M35 49h1M39 49h9M57 49h1M38 50h12M54 50h1M56 50h1M62 50h1M38 51h9M49 51h2M53 51h1M39 52h7M50 52h2M39 53h6M51 53h1M62 53h1M40 54h3M50 54h2M60 54h1M40 55h4M49 55h2M53 55h1M40 56h2M37 58h2M40 58h1M49 58h1M36 59h3M36 60h4M51 60h2M37 61h2M51 61h3M50 62h4M52 63h1M51 65h1" />
<path stroke="#ffffff" d="M44 32h1M44 33h2M36 46h2M35 47h4M51 47h2M35 48h3M50 48h4M36 49h2M50 49h4M36 50h1M51 50h3M51 51h2M47 52h2M37 53h1M47 53h3M33 54h2M37 54h1M45 54h1M47 54h2M58 54h1M61 54h2M35 55h2M48 55h1M54 55h3M58 55h1M60 55h4M39 56h1M43 56h6M51 56h3M59 56h3M63 56h1M40 57h4M46 57h5M59 57h1M61 57h1M47 58h2M40 59h3M47 59h3M41 60h2M47 60h2M33 61h1M35 61h1M41 61h2M46 61h2M49 61h1M32 62h2M36 62h1M45 62h1M34 63h2M42 63h3M50 63h2M49 64h4M49 65h1M52 65h1" />
</svg>