<svg xmlns="http://www.w3.org/2000/svg" viewBox="0 -0.5 96 96" shape-rendering="crispEdges">
<metadata>Made with Pixels to Svg https://codepen.io/shshaw/pen/XbxvNj</metadata>
<path stroke="#000000" d="M40 29h3M39 30h1M43 30h2M37 31h1M45 31h1M36 32h1M40 32h2M46 32h1M36 33h1M42 33h2M47 33h1M37 34h1M44 34h1M47 34h1M37 35h1M45 35h1M48 35h1M54 35h4M38 36h1M46 36h1M48 36h1M52 36h2M58 36h2M39 37h2M46 37h1M48 37h1M50 37h2M60 37h1M41 38h3M48 38h2M52 38h3M61 38h1M44 39h4M49 39h1M55 39h2M62 39h1M41 40h1M46 40h1M48 40h1M50 40h1M57 40h2M62 40h1M38 41h1M41 41h2M45 41h2M48 41h1M51 41h1M59 41h1M63 41h1M39 42h7M47 42h1M49 42h1M52 42h1M60 42h1M63 42h1M40 43h2M44 43h2M47 43h4M53 43h2M63 43h1M37 44h1M40 44h1M44 44h3M48 44h4M56 44h2M62 44h1M37 45h1M45 45h1M48 45h3M53 45h2M59 45h3M36 46h1M48 46h1M52 46h2M55 46h1M35 47h3M52 47h1M54 47h1M34 48h5M54 48h1M34 49h1M37 49h2M53 49h1M34 50h1M37 50h2M45 50h4M53 50h1M34 51h5M44 51h6M52 51h1M33 52h1M35 52h3M44 52h2M48 52h2M52 52h1M33 53h1M38 53h2M44 53h2M48 53h2M52 53h1M32 54h1M36 54h2M40 54h1M44 54h6M53 54h1M32 55h1M40 55h1M45 55h4M53 55h1M32 56h1M41 56h1M53 56h1M32 57h1M53 57h1M32 58h1M52 58h1M32 59h1M52 59h1M33 60h1M52 60h1M33 61h1M51 61h1M34 62h1M51 62h1M34 63h1M50 63h1M35 64h1M49 64h1M36 65h2M47 65h2M38 66h2M44 66h3M40 67h4" />
<path stroke="#73b500" d="M38 30h1M40 31h1M42 31h2M38 32h1M43 32h3M37 33h1M39 33h3M45 33h2M38 34h2M41 34h3M45 34h2M38 35h7M46 35h2M39 36h7M47 36h1M54 36h4M41 37h5M47 37h1M52 37h5M58 37h2M44 38h4M50 38h2M55 38h5M48 39h1M50 39h5M57 39h2M60 39h1M47 40h1M51 40h6M59 40h3M40 41h1M44 41h1M47 41h1M52 41h3M56 41h2M60 41h1M62 41h1M37 42h1M46 42h1M50 42h1M53 42h4M58 42h2M61 42h2M37 43h1M39 43h1M46 43h1M55 43h4M60 43h1M62 43h1M55 44h1M58 44h4M52 45h1M58 45h1M37 46h1M39 46h1M49 46h1M38 47h2M39 48h1M48 48h1M35 49h1M39 49h1M46 49h3M50 49h1M35 50h1M49 50h2M50 51h1M34 52h1M46 52h1M50 52h1M34 53h3M43 53h1M46 53h1M33 54h3M43 54h1M33 55h3M43 55h2M33 56h2M42 56h7M33 57h2M42 57h6M33 58h1M42 58h1M44 58h1M46 58h2M33 59h1M42 59h2M45 59h3M37 60h1M42 60h1M44 60h1M46 60h1M36 61h2M42 61h2M45 61h2M36 62h2M43 62h2M46 62h1M35 63h4M43 63h5M36 64h3M43 64h5M38 65h2M44 65h3M40 66h1" />
<path stroke="#ffff08" d="M40 30h3M38 31h2M41 31h1M44 31h1M37 32h1M39 32h1M42 32h1M38 33h1M44 33h1M40 34h1M57 37h1M60 38h1M59 39h1M61 39h1M55 41h1M58 41h1M61 41h1M57 42h1M38 43h1M43 43h1M59 43h1M61 43h1M38 44h2M42 44h2M47 44h1M38 45h7M46 45h2M51 45h1M38 46h1M40 46h3M44 46h4M50 46h2M54 46h1M40 47h2M43 47h9M53 47h1M40 48h1M42 48h1M44 48h4M49 48h5M40 49h2M43 49h1M45 49h1M49 49h1M51 49h2M39 50h2M42 50h1M44 50h1M51 50h2M39 51h3M43 51h1M51 51h1M38 52h6M51 52h1M37 53h1M40 53h3M50 53h2M38 54h2M41 54h2M50 54h3M36 55h4M41 55h2M49 55h4M35 56h6M49 56h4M35 57h7M48 57h5M34 58h8M43 58h1M45 58h1M48 58h4M34 59h8M44 59h1M48 59h4M34 60h3M38 60h4M43 60h1M45 60h1M47 60h5M34 61h2M38 61h4M44 61h1M47 61h4M35 62h1M38 62h5M45 62h1M47 62h4M39 63h4M48 63h2M39 64h4M48 64h1M40 65h4M41 66h3" />
<path stroke="#ffffff" d="M38 42h1M42 43h1M41 44h1M43 46h1M42 47h1M41 48h1M43 48h1M36 49h1M42 49h1M44 49h1M36 50h1M41 50h1M43 50h1M42 51h1M47 52h1M47 53h1" />
</svg>