<svg xmlns="http://www.w3.org/2000/svg" viewBox="0 -0.5 96 96" shape-rendering="crispEdges">
<metadata>Made with Pixels to Svg https://codepen.io/shshaw/pen/XbxvNj</metadata>
<path stroke="#105aff" d="M47 31h2M46 32h1M49 32h1M46 33h1M49 33h1M46 34h1M49 34h1M46 35h1M49 35h1M45 37h1M50 37h1M45 38h1M50 38h1M44 39h1M47 39h2M51 39h1M42 40h1M53 40h1M41 41h1M46 41h1M49 41h1M54 41h1M44 42h1M51 42h1M40 43h1M55 43h1M43 44h1M47 44h2M52 44h1M46 45h1M49 45h1M46 46h1M49 46h1M43 47h1M47 47h2M52 47h1M40 48h1M55 48h1M44 49h1M51 49h1M41 50h1M46 50h1M49 50h1M54 50h1M42 51h1M53 51h1M43 52h1M52 52h1M46 53h1M49 53h1M42 54h1M53 54h1M42 55h1M45 55h1M50 55h1M53 55h1M42 56h1M53 56h1M47 57h2M41 58h1M54 58h1M41 59h1M45 59h1M50 59h1M54 59h1M41 60h1M45 60h1M47 60h2M50 60h1M54 60h1M43 61h1M52 61h1M40 62h1M44 62h1M51 62h1M55 62h1M40 63h1M44 63h1M51 63h1M55 63h1M41 64h3M52 64h3" />
<path stroke="#ffffff" d="M47 32h1M46 42h4M45 43h6M44 44h3M49 44h3M44 45h2M47 45h1M50 45h2M44 46h2M50 46h2M44 47h3M49 47h3M45 48h6M46 49h4" />
<path stroke="#739cff" d="M48 32h1M47 33h2M43 39h1M52 39h1M47 41h2M40 42h1M45 42h1M50 42h1M55 42h1M44 43h1M51 43h1M39 44h1M56 44h1M39 45h1M43 45h1M52 45h1M56 45h1M39 46h1M43 46h1M52 46h1M56 46h1M39 47h1M56 47h1M44 48h1M51 48h1M40 49h1M45 49h1M50 49h1M55 49h1M47 50h2M42 53h1M53 53h1M46 54h1M49 54h1M46 56h1M49 56h1M41 57h1M54 57h1M40 61h1M42 61h1M45 61h1M50 61h1M53 61h1M55 61h1" />
<path stroke="#000000" d="M47 34h2M47 35h2M46 36h4M46 37h4M46 38h4M45 39h2M49 39h2M43 40h10M42 41h4M50 41h4M41 42h3M52 42h3M41 43h3M52 43h3M40 44h3M53 44h3M40 45h3M48 45h1M53 45h3M40 46h3M47 46h2M53 46h3M40 47h3M53 47h3M41 48h3M52 48h3M41 49h3M52 49h3M42 50h4M50 50h4M43 51h10M44 52h8M43 53h3M50 53h3M43 54h3M50 54h3M43 55h2M51 55h2M43 56h3M50 56h3M42 57h5M49 57h5M42 58h12M42 59h3M46 59h4M51 59h3M42 60h3M51 60h3M41 61h1M44 61h1M51 61h1M54 61h1M41 62h3M52 62h3M41 63h3M52 63h3" />
</svg>