<svg xmlns="http://www.w3.org/2000/svg" viewBox="0 -0.5 96 96" shape-rendering="crispEdges">
<metadata>Made with Pixels to Svg https://codepen.io/shshaw/pen/XbxvNj</metadata>
<path stroke="#7b2194" d="M42 30h1M40 31h1M45 31h1M46 32h2M48 33h1M37 34h1M42 37h1M45 37h1M55 38h3M38 39h1M52 39h1M37 40h1M53 40h1M46 42h1M59 43h1M65 43h1M67 43h1M35 44h2M53 44h1M64 44h1M36 45h1M55 45h1M43 46h1M47 46h1M52 46h1M62 46h1M45 47h1M53 47h1M44 48h1M49 48h1M44 49h3M58 49h3M62 49h1M48 50h1M50 50h1M43 51h1M47 51h1M53 53h1M42 54h1M47 54h3M52 54h1M40 55h2M43 55h1M50 55h2M38 56h3M52 56h2M33 57h2M37 57h1M44 57h1M54 57h1M32 58h1M51 58h3M45 59h1M30 60h1M56 60h1" />
<path stroke="#000000" d="M43 30h3M41 31h1M46 31h2M39 32h1M42 32h4M48 32h1M38 33h1M40 33h2M46 33h2M49 33h1M39 34h2M48 34h2M37 35h1M39 35h1M37 36h1M39 36h1M51 36h4M38 37h1M40 37h1M43 37h2M49 37h2M55 37h3M38 38h1M41 38h1M46 38h3M51 38h4M58 38h1M39 39h1M47 39h1M49 39h3M55 39h3M38 40h1M47 40h1M49 40h1M52 40h1M37 41h1M46 41h1M48 41h1M53 41h2M36 42h2M48 42h1M55 42h2M36 43h2M57 43h2M66 43h1M37 44h1M60 44h4M67 44h1M35 45h1M56 45h1M66 45h1M35 46h1M44 46h3M58 46h4M65 46h1M35 47h1M42 47h2M46 47h3M64 47h1M36 48h1M41 48h2M45 48h1M47 48h2M54 48h2M62 48h2M36 49h1M38 49h1M41 49h2M47 49h2M51 49h1M56 49h2M61 49h1M37 50h1M42 50h2M46 50h2M52 50h2M58 50h3M38 51h2M44 51h3M49 51h1M54 51h4M40 52h2M47 52h7M39 53h1M45 53h2M38 54h1M46 54h1M37 55h1M47 55h1M37 56h1M43 56h1M48 56h1M36 57h1M43 57h1M49 57h1M35 58h2M44 58h1M50 58h1M32 59h1M36 59h1M44 59h1M51 59h2M31 60h3M35 60h3M44 60h2M53 60h3M29 61h1M33 61h2M45 61h2M56 61h2M29 62h1M34 62h1M36 62h3M45 62h1M47 62h2M54 62h2M57 62h1M30 63h1M36 63h1M39 63h2M44 63h1M49 63h4M55 63h2M31 64h1M35 64h2M41 64h3M53 64h3M32 65h3" />
<path stroke="#ffffff" d="M42 31h3M40 32h2M39 33h1M38 34h1M38 35h1M38 36h1M51 37h4M49 38h2M41 39h6M48 39h1M39 40h8M48 40h1M50 40h2M39 41h7M49 41h4M38 42h8M51 42h3M38 43h9M49 43h7M38 44h15M54 44h1M56 44h1M37 45h17M58 45h1M36 46h7M48 46h4M53 46h2M56 46h1M37 47h5M44 47h1M49 47h4M55 47h1M57 47h1M37 48h4M43 48h1M46 48h1M50 48h4M56 48h1M39 49h2M43 49h1M49 49h1M53 49h1M55 49h1M40 50h2M44 50h2M51 50h1M54 50h1M41 51h2M48 51h1M41 53h4M48 53h5M39 54h3M43 54h3M50 54h2M38 55h2M44 55h3M48 55h2M45 56h3M49 56h3M46 57h3M51 57h3M34 58h1M46 58h4M47 59h4M48 60h4M31 61h2M35 61h1M49 61h3M33 62h1" />
<path stroke="#ff7b7b" d="M39 37h1M39 38h2M42 38h4M40 39h1M38 41h1M47 41h1M47 42h1M49 42h2M54 42h1M47 43h2M56 43h1M55 44h1M57 44h3M65 44h2M54 45h1M57 45h1M59 45h7M55 46h1M57 46h1M63 46h2M36 47h1M54 47h1M56 47h1M58 47h6M57 48h5M37 49h1M50 49h1M52 49h1M54 49h1M38 50h2M49 50h1M55 50h3M40 51h1M50 51h4M42 52h5M40 53h1M47 53h1M42 55h1M41 56h2M44 56h1M38 57h5M45 57h1M50 57h1M33 58h1M37 58h7M45 58h1M33 59h3M37 59h7M46 59h1M34 60h1M38 60h6M46 60h2M52 60h1M30 61h1M36 61h9M47 61h2M52 61h4M30 62h3M35 62h1M39 62h6M49 62h5M56 62h1M31 63h5M41 63h3M53 63h2M32 64h3" />
</svg>