<svg xmlns="http://www.w3.org/2000/svg" viewBox="0 -0.5 96 96" shape-rendering="crispEdges">
<metadata>Made with Pixels to Svg https://codepen.io/shshaw/pen/XbxvNj</metadata>
<path stroke="#848431" d="M62 22h1M67 22h1M32 23h1M36 23h1M62 23h6M70 23h1M32 24h5M38 24h1M58 24h1M60 24h2M65 24h6M30 25h2M35 25h3M59 25h1M65 25h6M72 25h1M29 26h1M31 26h1M36 26h2M39 26h1M46 26h1M57 26h3M68 26h4M28 27h2M31 27h3M44 27h1M47 27h1M58 27h3M70 27h2M30 28h6M58 28h6M69 28h3M73 28h1M30 29h9M45 29h1M58 29h7M69 29h1M71 29h1M24 30h1M30 30h8M44 30h3M55 30h1M58 30h12M25 31h1M31 31h7M43 31h3M50 31h2M54 31h1M56 31h1M59 31h11M23 32h1M25 32h2M33 32h4M43 32h3M49 32h1M51 32h1M53 32h1M56 32h1M59 32h10M24 33h5M43 33h1M45 33h1M61 33h8M24 34h4M42 34h1M45 34h2M60 34h1M63 34h4M25 35h6M55 35h1M59 35h2M71 35h1M26 36h7M57 36h4M69 36h3M27 37h7M39 37h1M59 37h1M62 37h2M65 37h7M29 38h4M36 38h1M40 38h1M50 38h2M65 38h7M30 39h1M38 39h1M41 39h1M43 39h1M48 39h1M66 39h5M42 40h2M47 40h1M66 40h5M39 41h1M48 41h1M53 41h2M63 41h1M66 41h5M30 42h3M40 42h2M44 42h1M55 42h1M66 42h5M46 43h1M55 43h1M65 43h5M71 43h1M40 44h2M52 44h1M54 44h1M66 44h4M31 45h1M43 45h2M53 45h1M65 45h4M28 46h1M57 46h1M64 46h5M47 47h1M57 47h1M59 47h1M65 47h3M29 48h1M32 48h1M46 48h1M55 48h2M59 48h1M64 48h2M24 49h1M42 49h1M45 49h1M60 49h2M25 50h1M27 50h2M54 50h2M23 51h3M27 51h3M35 51h1M56 51h1M59 51h2M23 52h4M28 52h2M37 52h1M56 52h1M58 52h1M23 53h4M28 53h3M33 53h2M58 53h1M67 53h1M24 54h8M34 54h4M61 54h1M63 54h1M24 55h8M36 55h2M62 55h1M25 56h8M37 56h2M61 56h2M25 57h8M38 57h1M49 57h1M26 58h8M40 58h1M48 58h1M50 58h1M52 58h1M58 58h1M27 59h8M41 59h1M43 59h1M47 59h1M49 59h1M51 59h1M58 59h1M27 60h8M42 60h1M44 60h1M46 60h1M48 60h1M51 60h1M56 60h1M28 61h7M43 61h1M45 61h1M27 62h8M51 62h2M57 62h1M29 63h5M35 63h1M51 63h4M29 64h1M49 64h4M55 64h1M50 65h2M56 65h2M50 66h2M56 66h1M46 67h1M50 67h3M56 67h1M46 68h1M51 68h5M46 69h2M52 69h3M56 69h1M46 70h4M45 71h3M49 71h4M47 72h1M51 72h1M54 72h1M46 73h1M48 73h3M52 73h3" />
<path stroke="#000000" d="M63 22h4M33 23h3M60 23h2M68 23h2M30 24h2M37 24h1M59 24h1M71 24h1M29 25h1M38 25h1M58 25h1M71 25h1M28 26h1M30 26h1M45 26h1M72 26h1M26 27h2M30 27h1M39 27h1M43 27h1M57 27h1M72 27h1M25 28h2M28 28h2M39 28h1M43 28h1M45 28h1M47 28h1M57 28h1M72 28h1M25 29h1M27 29h3M39 29h1M42 29h1M44 29h1M47 29h1M57 29h1M70 29h1M72 29h2M25 30h5M38 30h2M42 30h1M48 30h1M57 30h1M70 30h2M73 30h1M24 31h1M26 31h5M38 31h1M41 31h1M46 31h1M48 31h1M58 31h1M70 31h2M73 31h1M27 32h6M37 32h2M40 32h2M46 32h1M48 32h1M52 32h1M58 32h1M69 32h3M73 32h1M23 33h1M29 33h3M33 33h4M38 33h1M46 33h1M48 33h1M51 33h1M56 33h2M59 33h2M69 33h4M23 34h1M28 34h3M36 34h1M56 34h1M59 34h1M61 34h2M67 34h6M24 35h1M31 35h2M36 35h1M58 35h1M61 35h1M63 35h8M72 35h1M25 36h1M33 36h3M63 36h6M72 36h1M26 37h1M35 37h1M60 37h1M64 37h1M72 37h1M27 38h2M33 38h1M62 38h3M29 39h1M31 39h3M62 39h1M64 39h2M71 39h1M30 40h1M33 40h1M38 40h1M65 40h1M71 40h1M31 41h1M38 41h1M41 41h1M49 41h4M64 41h2M71 41h1M42 42h2M48 42h1M65 42h1M71 42h1M29 43h1M39 43h1M45 43h1M50 43h1M64 43h1M70 43h1M30 44h1M38 44h1M46 44h1M70 44h1M38 45h1M40 45h1M47 45h1M64 45h1M69 45h1M29 46h2M38 46h1M43 46h1M47 46h1M63 46h1M69 46h1M29 47h1M39 47h1M64 47h1M68 47h1M27 48h2M40 48h2M63 48h1M66 48h2M25 49h2M30 49h3M43 49h2M64 49h2M23 50h1M26 50h1M31 50h1M66 50h1M22 51h1M26 51h1M31 51h4M65 51h1M22 52h1M27 52h1M32 52h1M36 52h1M66 52h1M22 53h1M27 53h1M32 53h1M37 53h1M63 53h4M23 54h1M33 54h1M38 54h1M23 55h1M33 55h3M38 55h1M24 56h1M33 56h2M36 56h1M60 56h1M24 57h1M34 57h2M37 57h1M61 57h1M25 58h1M34 58h2M37 58h1M62 58h1M26 59h1M35 59h3M55 59h1M59 59h4M26 60h1M35 60h3M40 60h1M55 60h1M58 60h1M27 61h1M35 61h2M38 61h1M40 61h2M47 61h1M51 61h1M53 61h1M56 61h1M58 61h1M35 62h1M38 62h2M42 62h1M47 62h1M50 62h1M53 62h2M56 62h1M58 62h1M28 63h1M34 63h1M43 63h1M45 63h1M47 63h2M50 63h1M55 63h2M30 64h4M43 64h1M45 64h4M56 64h1M44 65h1M46 65h4M46 66h4M57 66h1M45 67h1M47 67h3M57 67h1M45 68h1M47 68h4M56 68h1M45 69h1M48 69h4M55 69h1M45 70h1M50 70h5M53 71h2M46 72h1M50 72h1M55 72h1M47 73h1M51 73h1M55 73h1M48 74h7" />
<path stroke="#bd8c31" d="M62 24h3M32 25h3M60 25h5M32 26h4M38 26h1M60 26h8M34 27h5M61 27h9M36 28h3M64 28h5M65 29h4M47 31h1M24 32h1M72 32h1M39 33h1M50 33h1M55 33h1M55 34h1M62 35h1M61 36h2M36 37h1M61 37h1M49 38h1M59 38h3M34 39h1M59 39h3M32 40h1M34 40h1M44 40h1M59 40h6M43 41h1M47 41h1M58 41h5M57 42h8M44 43h1M57 43h7M31 44h1M42 44h4M51 44h1M56 44h1M58 44h8M39 45h1M41 45h2M45 45h2M55 45h1M57 45h7M39 46h4M44 46h3M56 46h1M58 46h5M40 47h7M55 47h1M60 47h4M39 48h1M42 48h4M54 48h1M58 48h1M60 48h3M27 49h3M41 49h1M53 49h1M55 49h1M57 49h1M59 49h1M62 49h2M24 50h1M29 50h2M50 50h1M52 50h1M56 50h1M58 50h1M62 50h4M30 51h1M36 51h1M38 51h2M41 51h1M45 51h1M47 51h1M49 51h1M51 51h1M53 51h3M57 51h2M61 51h4M30 52h2M33 52h3M40 52h3M44 52h1M46 52h1M48 52h8M57 52h1M59 52h7M31 53h1M35 53h2M38 53h20M59 53h4M32 54h1M39 54h22M62 54h1M32 55h1M39 55h23M39 56h21M33 57h1M39 57h10M50 57h10M36 58h1M38 58h2M41 58h7M49 58h1M51 58h1M53 58h5M59 58h2M38 59h3M42 59h1M44 59h3M48 59h1M50 59h1M52 59h3M56 59h2M38 60h2M41 60h1M43 60h1M45 60h1M47 60h1M49 60h2M52 60h3M57 60h1M39 61h1M42 61h1M44 61h1M46 61h1M48 61h3M52 61h1M54 61h2M57 61h1M43 62h4M48 62h2M55 62h1M44 63h1M46 63h1M49 63h1M44 64h1M53 64h2M52 65h4M52 66h4M53 67h3M48 71h1M48 72h2M52 72h2" />
<path stroke="#ffffff" d="M45 27h2M27 28h1M44 28h1M46 28h1M26 29h1M43 29h1M46 29h1M43 30h1M47 30h1M72 30h1M42 31h1M55 31h1M72 31h1M42 32h1M47 32h1M50 32h1M54 32h2M37 33h1M40 33h3M44 33h1M47 33h1M49 33h1M52 33h3M58 33h1M37 34h5M43 34h2M47 34h8M57 34h2M37 35h18M56 35h2M36 36h21M34 37h1M37 37h2M40 37h19M34 38h2M37 38h3M41 38h8M52 38h7M35 39h3M39 39h2M42 39h1M44 39h4M49 39h10M63 39h1M31 40h1M35 40h3M39 40h3M45 40h2M48 40h11M32 41h6M40 41h1M42 41h1M44 41h3M55 41h3M33 42h7M45 42h3M49 42h6M56 42h1M30 43h9M40 43h4M47 43h3M51 43h4M56 43h1M32 44h6M39 44h1M47 44h4M53 44h1M55 44h1M57 44h1M32 45h6M48 45h5M54 45h1M56 45h1M31 46h7M48 46h8M30 47h9M48 47h7M56 47h1M58 47h1M30 48h2M33 48h6M47 48h7M57 48h1M33 49h8M46 49h7M54 49h1M56 49h1M58 49h1M32 50h18M51 50h1M53 50h1M57 50h1M59 50h3M37 51h1M40 51h1M42 51h3M46 51h1M48 51h1M50 51h1M52 51h1M38 52h2M43 52h1M45 52h1M47 52h1M35 56h1M36 57h1M60 57h1M61 58h1" />
</svg>