<svg xmlns="http://www.w3.org/2000/svg" viewBox="0 -0.5 96 96" shape-rendering="crispEdges">
<metadata>Made with Pixels to Svg https://codepen.io/shshaw/pen/XbxvNj</metadata>
<path stroke="#8c52de" d="M28 20h2M31 20h1M39 20h2M45 20h1M47 20h1M58 20h1M29 21h4M37 21h2M41 21h2M44 21h1M46 21h1M51 21h1M57 21h1M59 21h1M65 21h1M29 22h1M31 22h2M36 22h1M43 22h3M49 22h2M56 22h1M58 22h1M60 22h1M64 22h1M66 22h1M26 23h1M29 23h1M32 23h1M35 23h1M41 23h4M47 23h2M55 23h1M57 23h1M59 23h3M63 23h3M67 23h1M25 24h1M28 24h1M31 24h3M35 24h1M38 24h1M40 24h10M55 24h1M58 24h7M24 25h1M26 25h1M28 25h1M30 25h1M32 25h3M37 25h1M39 25h1M41 25h7M50 25h3M54 25h1M57 25h2M60 25h4M27 26h1M31 26h2M34 26h1M36 26h1M38 26h5M44 26h1M46 26h4M51 26h1M56 26h2M61 26h2M24 27h1M27 27h1M30 27h4M35 27h5M41 27h1M43 27h1M45 27h1M48 27h3M55 27h1M57 27h1M65 27h3M23 28h1M26 28h1M30 28h3M34 28h5M40 28h1M42 28h1M49 28h3M56 28h3M63 28h1M68 28h3M23 29h1M26 29h1M30 29h8M39 29h1M41 29h1M43 29h1M50 29h1M52 29h1M54 29h5M61 29h2M71 29h1M23 30h1M25 30h1M29 30h1M31 30h4M37 30h4M42 30h1M44 30h1M46 30h1M51 30h1M53 30h3M57 30h1M60 30h1M66 30h1M68 30h1M70 30h1M72 30h1M25 31h1M30 31h4M37 31h9M47 31h1M50 31h1M52 31h3M60 31h1M65 31h1M67 31h1M69 31h1M71 31h2M24 32h2M27 32h1M29 32h4M35 32h1M38 32h9M49 32h1M51 32h1M53 32h2M60 32h1M64 32h1M66 32h6M26 33h1M28 33h1M30 33h2M34 33h2M38 33h11M50 33h4M61 33h1M63 33h1M65 33h4M70 33h3M21 34h1M27 34h1M29 34h3M34 34h2M38 34h2M41 34h1M43 34h8M52 34h1M54 34h1M61 34h7M69 34h1M71 34h1M73 34h2M20 35h1M28 35h3M33 35h3M38 35h3M42 35h1M44 35h7M52 35h4M60 35h6M68 35h1M70 35h1M72 35h1M74 35h2M27 36h2M33 36h2M37 36h1M42 36h8M51 36h3M61 36h2M64 36h3M69 36h5M75 36h1M45 37h4M50 37h2M65 37h1M68 37h5M74 37h2M21 38h1M67 38h8M20 39h1M67 39h4M73 39h1M21 40h1M68 40h2M72 40h2M24 41h1M34 41h1M38 41h1M68 41h1M71 41h2M27 42h1M33 42h1M65 42h1M67 42h1M71 42h2M34 43h1M39 43h1M67 43h1M71 43h2M34 44h1M67 44h1M72 44h2M25 45h1M56 45h1M68 45h1M70 45h1M73 45h1M65 46h1M68 46h1M70 46h3M74 46h1M26 47h1M39 47h1M69 47h7M71 48h3M38 50h1M72 50h2M37 51h1M39 51h1M66 51h2M70 51h3M27 52h1M38 52h1M40 52h1M67 52h3M71 52h1M27 53h1M36 53h1M39 53h1M41 53h1M66 53h1M68 53h1M70 53h1M72 53h1M36 54h1M38 54h1M40 54h4M64 54h2M67 54h7M35 55h1M37 55h1M39 55h1M42 55h4M63 55h2M68 55h5M30 56h1M36 56h1M38 56h1M41 56h1M44 56h1M64 56h2M67 56h6M31 57h1M66 57h2M70 57h2M30 58h1M39 58h1M55 58h1M57 58h1M65 58h3M29 59h1M32 59h1M38 59h1M54 59h1M56 59h1M65 59h3M28 60h2M31 60h1M37 60h1M53 60h1M55 60h1M58 60h1M65 60h2M28 61h1M30 61h1M36 61h1M52 61h1M57 61h2M64 61h2M29 62h2M37 62h2M51 62h1M56 62h1M58 62h1M29 63h2M38 63h1M48 63h1M53 63h1M55 63h1M57 63h1M61 63h1M30 64h2M36 64h1M39 64h1M52 64h5M62 64h1M31 65h2M51 65h6M65 65h1M33 66h1M52 66h4M35 67h1M37 67h1M51 67h3M35 68h1M37 68h1M48 70h1M51 70h1M51 71h1M46 72h2M50 72h1M47 73h1M52 73h1M46 74h1M50 75h1" />
<path stroke="#b59ca5" d="M46 20h1M48 20h1M53 20h1M57 20h1M28 21h1M39 21h2M43 21h1M45 21h1M50 21h1M52 21h1M56 21h1M58 21h1M64 21h1M30 22h1M37 22h6M46 22h3M55 22h1M57 22h1M59 22h1M63 22h1M30 23h2M36 23h5M45 23h2M49 23h1M56 23h1M58 23h1M62 23h1M29 24h2M36 24h2M39 24h1M56 24h2M25 25h1M29 25h1M31 25h1M35 25h2M38 25h1M40 25h1M49 25h1M55 25h2M59 25h1M24 26h3M28 26h3M33 26h1M35 26h1M37 26h1M43 26h1M45 26h1M50 26h1M52 26h4M58 26h1M60 26h1M23 27h1M25 27h2M28 27h2M34 27h1M40 27h1M42 27h1M44 27h1M46 27h1M51 27h4M56 27h1M24 28h2M27 28h3M33 28h1M39 28h1M41 28h1M43 28h5M52 28h4M59 28h1M64 28h4M24 29h2M27 29h3M38 29h1M40 29h1M42 29h1M44 29h6M51 29h1M53 29h1M59 29h1M63 29h8M24 30h1M26 30h3M30 30h1M41 30h1M43 30h1M45 30h1M47 30h4M52 30h1M58 30h1M61 30h5M67 30h1M69 30h1M71 30h1M24 31h1M26 31h4M35 31h2M46 31h1M48 31h2M51 31h1M61 31h4M66 31h1M68 31h1M70 31h1M26 32h1M28 32h1M34 32h1M36 32h1M47 32h2M50 32h1M52 32h1M61 32h3M65 32h1M27 33h1M29 33h1M33 33h1M36 33h1M49 33h1M54 33h1M62 33h1M64 33h1M69 33h1M28 34h1M33 34h1M36 34h1M51 34h1M53 34h1M68 34h1M70 34h1M72 34h1M32 35h1M36 35h1M51 35h1M56 35h1M66 35h2M69 35h1M71 35h1M73 35h1M22 36h2M26 36h1M31 36h2M35 36h1M50 36h1M54 36h1M67 36h2M74 36h1M23 37h3M31 37h4M36 37h3M41 37h2M49 37h1M52 37h1M66 37h2M73 37h1M28 38h3M32 38h9M43 38h1M45 38h1M48 38h1M62 38h1M23 39h7M31 39h1M33 39h10M44 39h1M61 39h1M63 39h1M71 39h2M24 40h7M32 40h12M45 40h1M62 40h1M70 40h2M27 41h3M33 41h1M36 41h2M39 41h6M46 41h1M61 41h1M63 41h1M69 41h2M28 42h1M35 42h3M39 42h7M47 42h1M62 42h1M64 42h1M68 42h3M32 43h1M36 43h3M40 43h7M63 43h2M68 43h3M32 44h1M36 44h3M40 44h6M47 44h1M56 44h1M62 44h3M68 44h4M26 45h1M32 45h2M35 45h4M40 45h7M55 45h1M62 45h3M69 45h1M71 45h2M33 46h6M40 46h6M47 46h1M62 46h3M69 46h1M73 46h1M27 47h1M33 47h6M40 47h7M62 47h2M33 48h5M39 48h7M47 48h1M57 48h1M61 48h3M32 49h5M39 49h6M46 49h1M55 49h1M61 49h3M32 50h5M40 50h4M45 50h1M53 50h3M58 50h1M61 50h3M32 51h4M38 51h1M41 51h4M46 51h1M52 51h3M60 51h1M62 51h2M31 52h2M34 52h2M37 52h1M39 52h1M41 52h3M45 52h1M52 52h2M59 52h1M61 52h3M66 52h1M70 52h1M29 53h1M31 53h1M33 53h2M40 53h1M42 53h3M53 53h1M60 53h1M62 53h3M67 53h1M69 53h1M71 53h1M30 54h4M37 54h1M45 54h1M52 54h1M61 54h3M66 54h1M36 55h1M38 55h1M46 55h1M62 55h1M65 55h3M35 56h1M37 56h1M39 56h1M46 56h1M56 56h1M62 56h2M66 56h1M30 57h1M36 57h4M52 57h1M57 57h1M62 57h4M29 58h1M32 58h1M36 58h3M47 58h1M52 58h1M58 58h1M63 58h2M28 59h1M35 59h3M47 59h1M53 59h1M55 59h1M57 59h1M63 59h2M30 60h1M35 60h2M54 60h1M56 60h2M63 60h1M29 61h1M35 61h1M48 61h1M51 61h1M53 61h4M28 62h1M35 62h1M48 62h1M52 62h4M57 62h1M34 63h2M51 63h2M54 63h1M56 63h1M58 63h1M29 64h1M33 64h3M37 64h1M50 64h2M57 64h1M30 65h1M34 65h4M49 65h1M32 66h1M35 66h2M50 66h2M56 66h1M49 67h2M54 67h1M49 68h2M50 69h1M50 70h1M49 71h2M48 72h2" />
<path stroke="#000000" d="M35 30h2M34 31h1M33 32h1M37 32h1M25 33h1M32 33h1M37 33h1M22 34h2M26 34h1M32 34h1M37 34h1M55 34h3M24 35h2M27 35h1M31 35h1M37 35h1M58 35h2M21 36h1M29 36h2M36 36h1M38 36h4M60 36h1M22 37h1M26 37h3M35 37h1M43 37h2M62 37h1M22 38h4M46 38h2M63 38h1M64 39h1M22 40h2M64 40h1M25 41h2M35 41h1M64 41h1M24 42h1M34 42h1M38 42h1M25 43h1M33 43h1M65 43h1M25 44h1M33 44h1M35 44h1M39 44h1M65 44h1M34 45h1M39 45h1M65 45h1M26 46h1M39 46h1M56 46h1M56 47h1M64 47h1M27 48h1M38 48h1M56 48h1M64 48h1M27 49h1M37 49h1M56 49h2M64 49h1M27 50h1M37 50h1M56 50h2M64 50h1M27 51h1M36 51h1M40 51h1M55 51h1M58 51h1M64 51h1M33 52h1M36 52h1M54 52h1M58 52h1M64 52h1M32 53h1M35 53h1M37 53h2M52 53h1M59 53h1M65 53h1M28 54h1M34 54h2M39 54h1M53 54h1M60 54h1M29 55h6M40 55h2M53 55h1M61 55h1M34 56h1M40 56h1M42 56h2M45 56h1M53 56h1M61 56h1M34 57h1M40 57h1M44 57h3M53 57h1M61 57h1M33 58h1M46 58h1M53 58h1M62 58h1M33 59h1M39 59h1M46 59h1M52 59h1M62 59h1M32 60h1M38 60h1M47 60h1M52 60h1M62 60h1M31 61h1M37 61h1M47 61h1M62 61h1M31 62h1M36 62h1M47 62h1M62 62h1M65 62h1M31 63h1M36 63h2M64 63h2M32 64h1M38 64h1M48 64h1M61 64h1M63 64h3M33 65h1M38 65h2M48 65h1M61 65h1M63 65h2M34 66h1M37 66h3M48 66h1M61 66h4M38 67h2M48 67h1M36 68h1M38 68h1M48 68h1M51 68h1M36 69h2M48 69h1M51 69h1M52 70h1M47 71h1M52 71h1M51 72h2M46 73h1M48 73h4M47 74h5M47 75h3" />
<path stroke="#ffffff" d="M21 35h3M26 35h1M57 35h1M24 36h2M55 36h5M29 37h2M39 37h2M53 37h9M26 38h2M31 38h1M41 38h2M44 38h1M49 38h13M21 39h2M30 39h1M32 39h1M43 39h1M45 39h16M62 39h1M31 40h1M44 40h1M46 40h16M63 40h1M30 41h3M45 41h1M47 41h14M62 41h1M25 42h2M29 42h4M46 42h1M48 42h14M63 42h1M26 43h6M35 43h1M47 43h16M26 44h6M46 44h1M48 44h8M57 44h5M27 45h5M47 45h8M57 45h5M27 46h6M46 46h1M48 46h8M57 46h5M28 47h5M47 47h9M57 47h5M28 48h5M46 48h1M48 48h8M58 48h3M28 49h4M38 49h1M45 49h1M47 49h8M58 49h3M28 50h4M39 50h1M44 50h1M46 50h7M59 50h2M28 51h4M45 51h1M47 51h5M59 51h1M61 51h1M28 52h3M44 52h1M46 52h6M60 52h1M28 53h1M30 53h1M45 53h7M61 53h1M29 54h1M44 54h1M46 54h6M47 55h6M47 56h6M35 57h1M47 57h5M34 58h2M48 58h4M34 59h1M48 59h4M33 60h2M48 60h4M64 60h1M32 61h3M49 61h2M63 61h1M32 62h3M49 62h2M63 62h2M32 63h2M49 63h2M62 63h2M49 64h1M50 65h1M62 65h1M49 66h1M36 67h1M49 69h1M49 70h1M48 71h1" />
</svg>