<svg xmlns="http://www.w3.org/2000/svg" viewBox="0 -0.5 96 96" shape-rendering="crispEdges">
<metadata>Made with Pixels to Svg https://codepen.io/shshaw/pen/XbxvNj</metadata>
<path stroke="#948400" d="M40 28h1M43 28h1M38 29h1M45 29h1M37 30h1M46 30h1M36 32h1M43 32h1M47 32h1M36 33h1M59 33h1M61 33h1M41 34h1M43 34h1M47 34h1M57 34h1M56 35h1M65 35h1M38 37h1M66 37h1M33 38h1M37 38h1M39 39h1M44 39h1M55 39h1M61 39h1M65 39h1M42 40h1M50 40h1M52 40h1M66 40h1M43 41h1M48 41h1M59 41h1M61 41h1M62 42h1M64 42h2M44 43h1M61 43h1M44 44h1M56 44h1M60 44h1M45 45h1M53 45h1M59 45h1M65 45h1M48 46h1M58 46h1M54 47h1M66 49h1M55 51h1M44 52h1M52 52h1M54 52h1M56 52h1M58 52h1M49 53h1M51 53h1M53 53h1M55 53h1M46 54h1M48 54h1M50 54h1M52 54h1M64 54h1M49 55h1M51 55h1M61 55h1M54 56h1M58 56h1M62 56h1M50 57h1M55 57h1M59 57h2M52 58h1M55 58h1M59 58h1M58 60h1M49 61h1M49 63h1M44 64h1M47 64h2M50 64h1M55 64h2M43 65h3M48 65h1M53 65h1M60 65h1" />
<path stroke="#000000" d="M41 28h2M39 29h1M44 29h1M37 31h1M46 31h1M42 32h1M37 33h1M41 33h3M47 33h1M60 33h1M62 33h1M36 34h1M38 34h1M42 34h1M58 34h1M63 34h2M34 35h1M39 35h1M47 35h1M32 36h1M38 36h1M46 36h1M56 36h1M65 36h1M31 37h1M36 37h2M46 37h1M55 37h1M30 38h1M34 38h2M38 38h1M44 38h2M55 38h1M66 38h1M32 39h1M40 39h4M60 39h1M66 39h1M29 40h1M31 40h1M43 40h2M55 40h1M59 40h3M65 40h1M30 41h1M42 41h1M44 41h1M49 41h1M51 41h1M53 41h1M56 41h1M60 41h1M65 41h1M43 42h2M46 42h2M54 42h3M43 43h1M45 43h1M56 43h3M64 43h1M45 44h2M57 44h3M61 44h1M64 44h1M44 45h1M46 45h2M54 45h5M61 45h1M43 46h1M45 46h3M53 46h5M62 46h1M65 46h1M42 47h1M46 47h1M55 47h1M58 47h1M62 47h1M65 47h1M43 48h1M58 48h1M63 48h1M65 48h1M42 49h1M59 49h1M63 49h1M43 50h1M58 50h1M63 50h1M66 50h1M44 51h1M57 51h1M64 51h1M66 51h1M57 52h1M64 52h1M66 52h1M45 53h1M56 53h3M64 53h1M66 53h1M47 54h1M54 54h1M56 54h4M65 54h1M48 55h1M50 55h1M52 55h2M55 55h1M57 55h4M49 56h5M59 56h3M51 57h4M61 57h2M53 58h2M61 58h1M52 59h1M54 59h1M59 59h1M61 59h1M51 60h1M53 60h1M60 60h1M50 61h1M52 61h1M58 61h1M60 61h1M48 62h1M51 62h1M57 62h3M45 63h3M50 63h1M53 63h4M59 63h1M42 64h1M46 64h1M51 64h2M60 64h3M41 65h1M47 65h1M49 65h1M51 65h1M54 65h1M58 65h1M63 65h1M41 66h1M43 66h3M47 66h3M51 66h1M53 66h2M56 66h2M59 66h4M42 67h1M46 67h1M50 67h1M52 67h1M55 67h1" />
<path stroke="#e6bd00" d="M40 29h1M42 29h1M38 30h2M41 30h1M43 30h3M38 31h8M37 32h4M44 32h3M38 33h3M44 33h3M35 34h1M39 34h2M44 34h3M59 34h2M62 34h1M33 35h1M40 35h7M57 35h1M59 35h1M61 35h1M63 35h2M39 36h7M57 36h2M60 36h1M62 36h3M39 37h7M56 37h10M39 38h5M56 38h10M29 39h1M56 39h3M62 39h3M56 40h3M62 40h3M50 41h1M52 41h1M57 41h2M62 41h3M48 42h1M50 42h1M52 42h2M57 42h5M46 43h2M49 43h1M51 43h5M59 43h2M47 44h2M50 44h1M52 44h4M48 45h5M44 46h1M49 46h4M43 47h3M47 47h7M56 47h2M44 48h14M43 49h16M44 50h14M45 51h10M56 51h1M45 52h7M53 52h1M55 52h1M46 53h3M50 53h1M52 53h1M54 53h1M49 54h1M51 54h1M53 54h1M55 54h1M60 58h1M53 59h1M60 59h1M52 60h1M59 60h1M51 61h1M59 61h1M49 62h2M56 62h1M48 63h1M57 63h2M43 64h1M45 64h1M49 64h1M53 64h2M57 64h3M56 65h2M59 65h1M50 66h1" />
<path stroke="#ffffff" d="M41 29h1M43 29h1M40 30h1M42 30h1M41 32h1M37 34h1M61 34h1M35 35h4M58 35h1M60 35h1M62 35h1M33 36h5M59 36h1M61 36h1M32 37h4M31 38h2M30 39h2M59 39h1M30 40h1M49 42h1M51 42h1M63 42h1M48 43h1M50 43h1M62 43h2M49 44h1M51 44h1M62 44h2M62 45h3M63 46h2M63 47h2M64 48h1M64 49h2M64 50h2M65 51h1M65 52h1M65 53h1M42 65h1M46 65h1M50 65h1M52 65h1M55 65h1M61 65h2M42 66h1M46 66h1M52 66h1M55 66h1" />
</svg>