<svg xmlns="http://www.w3.org/2000/svg" viewBox="0 -0.5 32 32" shape-rendering="crispEdges">
<metadata>Made with Pixels to Svg https://codepen.io/shshaw/pen/XbxvNj</metadata>
<path stroke="#ffffff" d="M8 12h12M7 13h2M11 13h2M19 13h4M7 14h1M22 14h3M7 15h1M24 15h3M7 16h2M10 16h1M26 16h1M8 17h1M11 17h1M26 17h1M8 18h2M12 18h1M26 18h1M9 19h2M26 19h1M10 20h2M23 20h4M11 21h3M20 21h4M13 22h8" />
<path stroke="#292429" d="M9 13h2M13 13h6M11 14h1M20 14h2M22 15h2M9 16h1M24 16h1M9 17h1M25 17h1M12 20h2M20 20h3M14 21h2M18 21h2" />
<path stroke="#202420" d="M8 14h1M8 15h1M23 19h1M16 21h2" />
<path stroke="#8f8f8b" d="M9 14h1" />
<path stroke="#f6f2f6" d="M10 14h1M10 15h2M12 16h1M12 17h2" />
<path stroke="#293431" d="M12 14h1M12 15h1" />
<path stroke="#acffff" d="M13 14h1" />
<path stroke="#b4f2ff" d="M14 14h4M17 16h1M23 16h1" />
<path stroke="#b4faff" d="M18 14h1M19 15h1" />
<path stroke="#203029" d="M19 14h1" />
<path stroke="#fffaf6" d="M9 15h1" />
<path stroke="#80bbba" d="M13 15h1" />
<path stroke="#73d2d3" d="M14 15h4" />
<path stroke="#83b7b7" d="M18 15h1" />
<path stroke="#a4eaff" d="M20 15h2" />
<path stroke="#dee0d9" d="M11 16h1M10 17h1" />
<path stroke="#393839" d="M13 16h1" />
<path stroke="#f6ffb4" d="M14 16h1" />
<path stroke="#c2c07e" d="M15 16h1M15 17h1" />
<path stroke="#f6da41" d="M16 16h1M16 17h2" />
<path stroke="#94e2ee" d="M18 16h2M19 17h1" />
<path stroke="#73d3d3" d="M20 16h2M19 18h3M18 19h1" />
<path stroke="#8fe2ee" d="M22 16h1M23 17h1" />
<path stroke="#c5eeff" d="M25 16h1M24 17h1" />
<path stroke="#5a4410" d="M14 17h1" />
<path stroke="#f6de41" d="M18 17h1" />
<path stroke="#8be2ff" d="M20 17h2M18 18h1M19 19h3" />
<path stroke="#6ad2de" d="M22 17h1" />
<path stroke="#292829" d="M10 18h1M11 19h1" />
<path stroke="#b7b7b7" d="M11 18h1" />
<path stroke="#e2e0de" d="M13 18h1M13 19h1" />
<path stroke="#5a716a" d="M14 18h1M15 19h1" />
<path stroke="#809794" d="M15 18h1" />
<path stroke="#ded283" d="M16 18h2" />
<path stroke="#83e2ff" d="M22 18h2" />
<path stroke="#7f9394" d="M24 18h1" />
<path stroke="#182829" d="M25 18h1M24 19h1" />
<path stroke="#c5c2bd" d="M12 19h1M14 20h2" />
<path stroke="#cde2e6" d="M14 19h1" />
<path stroke="#5a8689" d="M16 19h2" />
<path stroke="#62a3b4" d="M22 19h1" />
<path stroke="#e6ffff" d="M25 19h1" />
<path stroke="#c5beb4" d="M16 20h1" />
<path stroke="#73716a" d="M17 20h1" />
<path stroke="#44a0b2" d="M18 20h2" />
</svg>