<svg xmlns="http://www.w3.org/2000/svg" viewBox="0 -0.5 32 32" shape-rendering="crispEdges">
<metadata>Made with Pixels to Svg https://codepen.io/shshaw/pen/XbxvNj</metadata>
<path stroke="#ffffff" d="M13 4h6M12 5h2M18 5h5M11 6h2M22 6h2M10 7h2M23 7h1M9 8h2M23 8h2M8 9h2M24 9h1M7 10h2M24 10h1M6 11h2M24 11h2M5 12h2M25 12h2M5 13h1M26 13h2M5 14h1M27 14h1M4 15h2M27 15h1M4 16h1M27 16h2M4 17h1M28 17h1M4 18h1M28 18h1M4 19h2M28 19h1M5 20h1M27 20h2M5 21h1M25 21h3M5 22h2M24 22h2M6 23h3M23 23h2M8 24h3M15 24h3M22 24h2M10 25h6M17 25h6" />
<path stroke="#292429" d="M14 5h4M18 6h4M22 7h1M6 14h1M26 14h1M6 15h1M26 15h1M5 16h1M5 17h1M5 18h1M26 20h1M7 22h1M11 24h4M18 24h4" />
<path stroke="#212031" d="M13 6h1M12 7h1M11 8h1M10 9h1M9 10h1M8 11h1" />
<path stroke="#4f569f" d="M14 6h4M14 7h4M12 8h4M12 9h3M10 10h4M10 11h4M9 12h5M9 13h5M10 14h4M11 15h3M12 16h4M13 17h3" />
<path stroke="#686775" d="M13 7h1M11 9h1M9 11h1" />
<path stroke="#4f54a1" d="M18 7h4" />
<path stroke="#393c8c" d="M16 8h1" />
<path stroke="#292c42" d="M17 8h1M16 9h1" />
<path stroke="#2e2e47" d="M18 8h1" />
<path stroke="#2b2d55" d="M19 8h1" />
<path stroke="#2e3576" d="M20 8h1M20 9h2" />
<path stroke="#39418c" d="M21 8h1" />
<path stroke="#292839" d="M22 8h1M22 9h2M24 12h1M24 13h2M26 16h1M26 17h2M24 20h2M24 21h1M8 22h2M22 22h2M9 23h1M22 23h1" />
<path stroke="#293042" d="M15 9h1" />
<path stroke="#2e315a" d="M17 9h1" />
<path stroke="#292c63" d="M18 9h2M22 10h1M22 11h1M18 12h1M18 13h1M21 15h1M6 18h2M20 18h1M26 18h1M7 19h2M26 19h1M7 20h2M18 20h1M7 21h2M18 21h1M10 22h2M14 22h4M11 23h1M14 23h1" />
<path stroke="#313c8c" d="M14 10h1M18 17h1" />
<path stroke="#2b2e44" d="M15 10h1M14 11h1" />
<path stroke="#262e63" d="M16 10h2M16 11h2M16 12h2M22 12h2M16 13h2M22 13h2M16 14h4M16 15h4M20 16h2M20 17h2M16 20h2M16 21h2M12 22h2M20 22h2M12 23h2M20 23h2" />
<path stroke="#262c62" d="M18 10h2M18 11h1" />
<path stroke="#2e3575" d="M20 10h2M20 11h2M20 12h2M20 13h2" />
<path stroke="#292426" d="M23 10h1M23 11h1M27 18h1M6 19h1M27 19h1M6 20h1M6 21h1M10 23h1M15 23h3" />
<path stroke="#2e3568" d="M15 11h1" />
<path stroke="#313473" d="M19 11h1" />
<path stroke="#212029" d="M7 12h1M6 13h1" />
<path stroke="#656cb2" d="M8 12h1M8 13h1M10 15h1M12 17h1" />
<path stroke="#2b2e47" d="M14 12h1M14 13h1" />
<path stroke="#262d65" d="M15 12h1M15 13h1" />
<path stroke="#2e3473" d="M19 12h1M19 13h1M20 14h2M20 15h1" />
<path stroke="#888794" d="M7 13h1" />
<path stroke="#393e8c" d="M7 14h1M7 15h1" />
<path stroke="#363f89" d="M8 14h1M8 15h2M10 16h1M10 17h2M12 18h1M12 19h2" />
<path stroke="#656aaf" d="M9 14h1M11 16h1M13 18h1" />
<path stroke="#3f4686" d="M14 14h1" />
<path stroke="#29304a" d="M15 14h1M15 15h1" />
<path stroke="#282d65" d="M22 14h4M22 15h1M25 15h1M22 16h1M25 16h1M23 18h2M17 19h1M23 19h2M14 20h1M23 20h1M12 21h4M22 21h2M18 22h1M18 23h2" />
<path stroke="#4a51a5" d="M14 15h1" />
<path stroke="#393f89" d="M23 15h2M8 16h2M23 16h2M8 17h2M22 17h4M16 18h2M22 18h1M25 18h1M16 19h1M22 19h1M25 19h1M12 20h2M15 20h1M22 20h1M19 22h1" />
<path stroke="#4d569f" d="M6 16h1M6 17h1M10 19h2" />
<path stroke="#373f89" d="M7 16h1M7 17h1M10 18h2" />
<path stroke="#3f4786" d="M16 16h1" />
<path stroke="#292c4a" d="M17 16h2" />
<path stroke="#2b3160" d="M19 16h1M19 17h1" />
<path stroke="#4a55a5" d="M16 17h2M15 19h1M11 20h1M20 20h1" />
<path stroke="#4e54a0" d="M8 18h2M21 18h1M9 19h1M20 19h2M9 20h1M9 21h1" />
<path stroke="#364086" d="M14 18h2M10 20h1M21 20h1M11 21h1M20 21h1" />
<path stroke="#262c65" d="M18 18h1M18 19h2" />
<path stroke="#4c54a1" d="M19 18h1" />
<path stroke="#232c68" d="M14 19h1M10 21h1M21 21h1" />
<path stroke="#3c4084" d="M19 20h1" />
<path stroke="#4f54a5" d="M19 21h1" />
</svg>