<svg xmlns="http://www.w3.org/2000/svg" viewBox="0 -0.5 40 30" shape-rendering="crispEdges">
<metadata>Made with Pixels to Svg https://codepen.io/shshaw/pen/XbxvNj</metadata>
<path stroke="#202020" d="M20 7h1M19 8h1M21 8h1M18 9h1M22 9h1M17 10h2M22 10h2M15 11h2M24 11h1M14 12h1M25 12h1M14 13h1M25 13h1M13 14h1M26 14h1M13 15h1M26 15h1M13 16h1M26 16h1M12 17h1M25 17h1M12 18h1M14 18h1M25 18h1M12 19h2M15 19h1M24 19h1M15 20h1M24 20h1M15 21h1M25 21h1M16 22h1M26 22h1M16 23h1M22 23h2M26 23h1M17 24h1M21 24h1M24 24h1M27 24h1M17 25h1M21 25h1M24 25h1M27 25h1M18 26h1M20 26h1M25 26h2M19 27h1" />
<path stroke="#e6df8a" d="M20 8h1M20 9h1M19 10h3M17 11h1M20 11h1M23 11h1M16 12h3M22 12h3M17 13h8M17 14h1M22 14h4M23 15h3M24 16h1M18 17h4M23 20h1M17 21h1M20 21h5M23 22h3M24 23h2M25 24h2M25 25h2" />
<path stroke="#948653" d="M19 9h1M21 9h1M18 11h1M22 11h1M19 12h3M18 16h3M13 17h1M24 17h1M13 18h1M22 18h1M21 19h1M19 24h1M19 26h1" />
<path stroke="#c0b565" d="M19 11h1M21 11h1M14 14h1M14 16h1M25 16h1M15 18h1M17 18h1M23 18h2M18 19h3M22 19h1M16 20h1M17 22h2M19 23h2M18 25h3" />
<path stroke="#33bc7d" d="M15 12h1M16 13h1M16 14h1M18 14h4M16 15h2M22 15h1M15 16h1M21 16h1M23 16h1M15 17h1M22 17h2M17 20h1M16 21h1M19 22h1M18 23h1" />
<path stroke="#60dcb0" d="M15 13h1M15 14h1M15 15h1M18 15h4M16 16h2M22 16h1M16 17h1M18 21h2M20 22h2" />
<path stroke="#525252" d="M14 15h1M14 17h1M17 17h1M16 18h1M18 18h4M16 19h2M23 19h1M18 20h5M22 22h1M17 23h1M21 23h1M18 24h1M20 24h1" />
</svg>