<svg xmlns="http://www.w3.org/2000/svg" viewBox="0 -0.5 40 30" shape-rendering="crispEdges">
<metadata>Made with Pixels to Svg https://codepen.io/shshaw/pen/XbxvNj</metadata>
<path stroke="#202020" d="M15 10h4M14 11h1M19 11h1M14 12h1M20 12h1M14 13h1M21 13h2M15 14h1M23 14h1M13 15h2M23 15h1M12 16h1M24 16h2M12 17h1M26 17h2M11 18h1M28 18h1M11 19h1M28 19h1M11 20h1M15 20h1M29 20h1M12 21h1M29 21h1M12 22h1M29 22h1M13 23h2M18 23h3M28 23h1M15 24h3M20 24h1M28 24h1M21 25h2M26 25h2M23 26h3" />
<path stroke="#bfb8c5" d="M15 11h1M18 12h1M19 13h2M19 14h4M20 15h3M13 16h1M18 16h2M21 16h3M18 17h2M22 17h1M25 17h1M12 18h2M17 18h4M23 18h2M27 18h1M12 19h1M18 19h2M23 19h3M20 20h1M25 20h2M28 20h1M18 21h2M24 21h1M25 22h1M27 22h1M21 23h1M26 23h1M23 24h3" />
<path stroke="#e3dfe8" d="M16 11h3M15 12h3M15 15h3M14 16h3M14 17h3" />
<path stroke="#908599" d="M19 12h1M15 13h4M18 14h1M17 16h1M13 17h1M17 17h1M21 17h1M20 19h1M26 19h1M12 20h1M18 20h2M22 20h1M24 20h1M22 21h1M25 21h2M28 21h1M13 22h1M17 22h1M19 22h1M22 22h2M28 22h1M15 23h3M27 23h1M21 24h2M26 24h2M23 25h3" />
<path stroke="#525252" d="M16 14h2M18 15h2M20 16h1M20 17h1M23 17h2M14 18h3M21 18h2M25 18h2M13 19h1M17 19h1M21 19h2M27 19h1M13 20h1M17 20h1M21 20h1M23 20h1M27 20h1M13 21h1M17 21h1M20 21h2M23 21h1M27 21h1M14 22h3M18 22h1M20 22h2M24 22h1M26 22h1M22 23h4" />
<path stroke="#ce423a" d="M14 19h1M16 19h1M14 21h1M16 21h1" />
<path stroke="#d66342" d="M15 19h1M14 20h1M16 20h1M15 21h1" />
</svg>