<svg xmlns="http://www.w3.org/2000/svg" viewBox="0 -0.5 40 30" shape-rendering="crispEdges">
<metadata>Made with Pixels to Svg https://codepen.io/shshaw/pen/XbxvNj</metadata>
<path stroke="#202020" d="M20 8h3M19 9h1M23 9h3M17 10h2M26 10h2M16 11h1M28 11h1M15 12h1M29 12h1M14 13h1M29 13h1M13 14h1M29 14h1M13 15h1M29 15h1M13 16h1M29 16h1M13 17h1M29 17h1M13 18h1M29 18h1M13 19h1M28 19h1M13 20h1M28 20h1M13 21h1M27 21h1M12 22h1M26 22h1M12 23h1M15 23h2M25 23h1M13 24h2M17 24h2M23 24h2M18 25h1M21 25h2M19 26h2" />
<path stroke="#d96252" d="M20 9h3M21 10h5M17 11h4M24 11h4M19 12h5M27 12h1M15 13h4M22 13h4M14 14h8M25 14h1M16 15h8M19 16h5M22 17h2" />
<path stroke="#525252" d="M19 10h1M16 12h1M27 14h1M27 15h1M25 16h1M27 16h1M14 17h2M25 17h1M27 17h1M16 18h3M25 18h1M27 18h1M16 19h1M19 19h5M25 19h1M14 20h3M19 20h1M23 20h1M25 20h1M16 21h1M19 21h1M23 21h1M26 21h1M16 22h1M19 22h5M19 23h1M22 24h1" />
<path stroke="#9c4b40" d="M20 10h1M21 11h3M17 12h2M24 12h2M19 13h3M26 13h2M22 14h2M24 15h2M16 17h1M19 18h1" />
<path stroke="#c54e3e" d="M26 12h1M24 14h1M26 14h1M14 15h2M14 16h5M24 16h1M17 17h5M20 18h4M22 23h2" />
<path stroke="#85453c" d="M28 12h1M28 13h1M28 14h1M26 15h1M28 15h1M26 16h1M28 16h1M24 17h1M26 17h1M28 17h1M24 18h1M26 18h1M28 18h1M24 19h1M26 19h1M24 20h1M26 20h1M24 21h1M24 22h1M24 23h1" />
<path stroke="#ffffff" d="M14 18h1M14 19h1M20 20h1M20 21h1" />
<path stroke="#418bc5" d="M15 18h1M15 19h1M21 20h2M21 21h2" />
<path stroke="#cdc5c5" d="M17 19h1M18 20h1M17 21h1M18 22h1M17 23h1" />
<path stroke="#9c9c9c" d="M18 19h1M18 21h1M18 23h1" />
<path stroke="#836239" d="M27 19h1M27 20h1M15 21h1M25 21h1M25 22h1M21 23h1" />
<path stroke="#838383" d="M17 20h1M17 22h1" />
<path stroke="#f6c55a" d="M14 21h1M14 22h2M13 23h1M20 23h1M20 24h2M19 25h1" />
<path stroke="#d59c4a" d="M13 22h1M14 23h1M19 24h1M20 25h1" />
</svg>