<svg xmlns="http://www.w3.org/2000/svg" viewBox="0 -0.5 40 30" shape-rendering="crispEdges">
<metadata>Made with Pixels to Svg https://codepen.io/shshaw/pen/XbxvNj</metadata>
<path stroke="#202020" d="M21 9h4M19 10h2M25 10h2M18 11h1M27 11h1M17 12h1M24 12h3M16 13h1M22 13h2M15 14h1M21 14h1M14 15h1M22 15h1M13 16h1M22 16h1M13 17h1M23 17h1M13 18h1M23 18h1M13 19h1M24 19h2M14 20h1M26 20h1M13 21h1M26 21h1M26 22h1M14 23h1M26 23h1M14 24h1M26 24h1M15 25h3M23 25h3M18 26h1M21 26h2M19 27h2" />
<path stroke="#c58a5a" d="M21 10h4M19 11h7M19 12h4M18 13h1" />
<path stroke="#94623a" d="M26 11h1M18 12h1M23 12h1M23 19h1M14 21h1M22 21h1M16 22h1M19 22h1" />
<path stroke="#525252" d="M17 13h1M19 13h3M18 14h1M24 20h1M25 21h1M14 22h1M24 24h1" />
<path stroke="#f5f57c" d="M16 14h1M19 14h1M16 15h6M15 16h1M17 16h2M21 16h1M15 17h3M22 17h1M15 18h3M22 18h1M14 19h1M16 19h2M21 19h2M15 20h1M18 20h5M15 21h7M15 22h1M17 22h2M20 22h1M16 23h2" />
<path stroke="#979f57" d="M17 14h1M19 16h2M21 17h1M16 20h1M15 23h1M21 24h1M18 25h1M20 26h1" />
<path stroke="#adbd5a" d="M20 14h1M15 15h1M18 17h1M21 18h1M15 19h1M17 20h1M23 20h1M25 20h1M23 21h2M21 22h5M18 23h8M17 24h4M22 24h2M19 25h2M22 25h1" />
<path stroke="#ffffff" d="M14 16h1M20 17h1M18 18h1M20 18h1M20 19h1M25 24h1M19 26h1" />
<path stroke="#faf5c1" d="M16 16h1" />
<path stroke="#ef5a84" d="M14 17h1M19 18h1M19 19h1" />
<path stroke="#c52110" d="M19 17h1M14 18h1M18 19h1" />
<path stroke="#bdbdce" d="M15 24h1" />
<path stroke="#7c7f46" d="M16 24h1M21 25h1" />
</svg>