<svg xmlns="http://www.w3.org/2000/svg" viewBox="0 -0.5 40 30" shape-rendering="crispEdges">
<metadata>Made with Pixels to Svg https://codepen.io/shshaw/pen/XbxvNj</metadata>
<path stroke="#202020" d="M21 8h2M20 9h1M22 9h1M19 10h1M22 10h1M16 11h3M21 11h1M14 12h2M21 12h1M13 13h1M22 13h1M13 14h1M23 14h1M12 15h1M23 15h1M12 16h1M23 16h1M12 17h1M23 17h1M13 18h1M22 18h1M25 18h2M13 19h1M22 19h3M26 19h2M14 20h1M27 20h1M15 21h2M26 21h1M16 22h1M27 22h1M16 23h1M27 23h1M15 24h1M18 24h1M23 24h2M27 24h1M16 25h2M19 25h1M22 25h1M25 25h2M19 26h1M22 26h1M20 27h2" />
<path stroke="#847373" d="M21 9h1M20 10h2M19 11h2M18 12h2M14 13h7M16 14h6M13 15h2M19 15h4M13 16h1M15 16h2M18 16h1M22 16h1M15 17h1M21 17h2M21 18h1M21 20h1M20 21h2M19 22h1M21 22h1" />
<path stroke="#5a4a4a" d="M16 12h1M20 12h1M17 16h1M13 17h1M16 17h1M19 17h1M18 18h1M19 20h2M23 20h1M17 21h2M24 21h1M22 22h2M17 23h1M19 23h1M21 23h1M20 24h2" />
<path stroke="#6b5a5a" d="M17 12h1M21 13h1M22 14h1M14 16h1M14 17h1M18 17h1M20 17h1M15 18h1M20 18h1M19 19h2M22 20h1M19 21h1M23 21h1M18 22h1M18 23h1M20 23h1" />
<path stroke="#9c8c8c" d="M14 14h2M15 15h4M19 16h3" />
<path stroke="#7fb064" d="M17 17h1M14 18h1M16 18h2M19 18h1M14 19h5M25 19h1M17 20h1M24 20h1M26 20h1M25 21h1M24 22h2M24 23h3M16 24h2M25 24h2M21 25h1M20 26h2" />
<path stroke="#525252" d="M21 19h1" />
<path stroke="#9c73ce" d="M15 20h2" />
<path stroke="#5a8d43" d="M18 20h1M25 20h1M26 22h1M22 23h2M19 24h1M22 24h1M20 25h1" />
<path stroke="#b130ff" d="M22 21h1M17 22h1M20 22h1" />
</svg>