<svg xmlns="http://www.w3.org/2000/svg" viewBox="0 -0.5 40 30" shape-rendering="crispEdges">
<metadata>Made with Pixels to Svg https://codepen.io/shshaw/pen/XbxvNj</metadata>
<path stroke="#202020" d="M18 7h3M16 8h2M21 8h2M15 9h1M23 9h1M14 10h1M24 10h1M13 11h1M24 11h1M13 12h1M25 12h1M12 13h1M14 13h1M25 13h1M11 14h1M13 14h1M15 14h1M25 14h1M11 15h1M13 15h1M16 15h1M24 15h1M11 16h1M14 16h1M17 16h2M24 16h1M12 17h1M15 17h1M18 17h1M23 17h1M12 18h1M16 18h2M24 18h1M13 19h1M25 19h2M14 20h1M27 20h1M13 21h1M28 21h1M13 22h1M28 22h1M13 23h1M28 23h1M14 24h1M27 24h1M15 25h1M26 25h1M16 26h2M24 26h2M18 27h6" />
<path stroke="#aaad22" d="M18 8h3M16 9h7M17 10h3M22 10h2M14 11h2M23 11h1M15 12h3M18 13h2M18 18h2M17 19h4M16 20h4M16 21h4M17 22h4M22 22h1M19 23h2M22 23h1M18 24h1M23 24h1M17 25h8M19 26h4" />
<path stroke="#646601" d="M15 10h1M16 11h3M22 12h1M20 13h2M20 15h1M16 19h1M23 20h1M20 21h3M14 23h1M27 23h1M16 24h1M25 24h1M16 25h1M25 25h1" />
<path stroke="#858801" d="M16 10h1M20 10h2M19 11h1M22 11h1M18 12h1M23 12h2M22 13h3M20 14h5M21 15h3M21 16h3M15 18h1M14 19h1M22 19h3M21 20h2M24 20h2M14 21h1M23 21h3M27 21h1M14 22h2M21 22h1M23 22h2M26 22h2M15 23h2M21 23h1M25 23h2M15 24h1M17 24h1M24 24h1M26 24h1M18 26h1M23 26h1" />
<path stroke="#c19d3d" d="M20 11h1" />
<path stroke="#fff0b0" d="M21 11h1M19 12h1M21 12h1M12 14h1M12 16h2M19 17h1M13 18h2M20 18h1" />
<path stroke="#525252" d="M14 12h1M15 13h3M18 14h2M19 16h1M22 18h2M15 19h1M21 19h1M15 20h1M20 20h1M26 20h1M15 21h1M26 21h1M16 22h1M25 22h1M17 23h2M23 23h2M19 24h4" />
<path stroke="#a0842a" d="M20 12h1" />
<path stroke="#c56352" d="M16 14h2M17 15h3" />
<path stroke="#e5c954" d="M12 15h1M20 16h1M13 17h2M20 17h3M21 18h1" />
</svg>