<svg xmlns="http://www.w3.org/2000/svg" viewBox="0 -0.5 40 30" shape-rendering="crispEdges">
<metadata>Made with Pixels to Svg https://codepen.io/shshaw/pen/XbxvNj</metadata>
<path stroke="#202020" d="M17 11h6M15 12h2M23 12h2M14 13h1M25 13h1M14 14h1M25 14h1M13 15h1M26 15h1M13 16h1M26 16h1M13 17h1M26 17h1M13 18h1M26 18h1M14 19h1M25 19h1M15 20h2M23 20h2M16 21h2M22 21h1M15 22h1M17 22h1M22 22h1M16 23h1M20 23h1M23 23h1M16 24h1M20 24h1M24 24h1M16 25h1M23 25h1M17 26h1M22 26h1M18 27h4" />
<path stroke="#ffffff" d="M17 12h1M16 13h1M19 13h2M15 14h2M19 14h2M14 15h4M14 16h6M15 17h5M16 18h5M18 19h2M19 23h1M19 24h1M18 25h4M19 26h2" />
<path stroke="#495437" d="M18 12h4M15 13h1M17 13h1M22 13h1M24 13h1M17 14h1M22 14h1M18 15h4M21 16h1M21 17h1M14 18h1M21 18h2M25 18h1M15 19h2M21 19h4M17 20h6M17 23h1M22 23h1M22 25h1" />
<path stroke="#794bff" d="M22 12h1M23 13h1M23 14h2M22 15h4M22 16h4M23 17h2M23 18h2" />
<path stroke="#d6bdad" d="M18 13h1M21 14h1M14 17h1M20 17h1M15 18h1M17 19h1M20 19h1M16 22h1M18 22h4M21 23h1M21 24h3M17 25h1M18 26h1M21 26h1" />
<path stroke="#ad8c84" d="M21 13h1M18 14h1M20 16h1" />
<path stroke="#6e3bff" d="M22 17h1M25 17h1" />
<path stroke="#525252" d="M18 21h4" />
<path stroke="#ef739c" d="M18 23h1M17 24h2" />
</svg>