<svg xmlns="http://www.w3.org/2000/svg" viewBox="0 -0.5 40 30" shape-rendering="crispEdges">
<metadata>Made with Pixels to Svg https://codepen.io/shshaw/pen/XbxvNj</metadata>
<path stroke="#202020" d="M8 5h1M7 6h1M9 6h1M7 7h1M10 7h1M7 8h1M11 8h1M30 8h3M7 9h1M11 9h1M18 9h6M28 9h2M32 9h1M7 10h1M11 10h1M13 10h3M17 10h1M24 10h1M27 10h1M32 10h1M8 11h1M11 11h2M16 11h1M23 11h1M27 11h1M32 11h1M9 12h1M22 12h1M27 12h1M32 12h1M8 13h1M21 13h1M26 13h1M31 13h1M8 14h1M19 14h2M26 14h1M31 14h1M9 15h1M19 15h1M26 15h1M30 15h1M9 16h1M16 16h1M19 16h1M21 16h2M25 16h1M29 16h1M8 17h1M10 17h1M16 17h1M20 17h1M23 17h2M27 17h2M7 18h1M15 18h1M25 18h2M6 19h1M9 19h2M24 19h1M6 20h1M9 20h1M11 20h2M25 20h1M6 21h3M13 21h1M25 21h1M13 22h1M19 22h3M26 22h1M13 23h1M18 23h1M22 23h2M26 23h1M12 24h1M18 24h1M24 24h1M26 24h1M12 25h1M17 25h1M24 25h2M13 26h2M17 26h1M15 27h2" />
<path stroke="#cef3ff" d="M8 6h1M9 7h1M10 8h1M10 9h1M10 10h1M18 10h6M18 11h1M17 12h1M31 12h1M17 13h3M27 13h1M30 13h1M27 14h3M27 15h3M13 16h1M26 16h2M11 17h3M21 17h2M25 17h2M10 18h4M21 18h3M12 19h3M20 19h4M20 20h5M20 21h1M22 21h3M23 22h1M16 23h2M16 24h1" />
<path stroke="#6796b1" d="M8 7h1M9 8h1M9 9h1M9 10h1M19 11h3M10 12h1M18 12h1M16 13h1M14 16h1M14 17h1" />
<path stroke="#2a67c6" d="M8 8h1M8 9h1M30 9h2M28 10h4M28 11h4M19 12h2M28 12h3M28 13h2M9 17h1M19 17h1M20 18h1M7 19h2M7 20h2M17 20h2M17 21h2M25 22h1M24 23h2M14 24h1M25 24h1M13 25h1M16 25h1M15 26h2" />
<path stroke="#89cbef" d="M8 10h1M9 11h1M15 11h1M17 11h1M22 11h1M16 12h1M21 12h1M20 13h1M30 14h1M18 15h1M28 16h1M14 18h1M16 18h1M11 19h1M15 19h1M15 21h1M14 22h1M22 22h1M24 22h1M14 23h1M17 24h1" />
<path stroke="#525252" d="M10 11h1M17 14h2M17 15h1M18 16h1M18 17h1M9 18h1M17 18h1M19 18h1M17 19h1M19 19h1M13 20h1M16 20h1M19 20h1M16 21h1M19 21h1M21 21h1M16 22h3M15 23h1M13 24h1M15 24h1M14 25h2" />
<path stroke="#3781b7" d="M13 11h2M11 12h1M13 12h1M15 12h1M10 13h1M13 13h1M10 14h1M13 14h1M10 15h1M13 15h1M16 15h1M11 16h2M15 16h1" />
<path stroke="#76c4ff" d="M12 12h1M14 12h1M9 13h1M11 13h2M14 13h2M9 14h1M11 14h2M14 14h3M11 15h2M14 15h2M17 16h1M17 17h1M8 18h1M18 18h1M18 19h1" />
<path stroke="#ffffff" d="M10 16h1M15 17h1" />
<path stroke="#6b6b6b" d="M24 18h1" />
<path stroke="#5d828d" d="M16 19h1M14 20h2M14 21h1M15 22h1" />
</svg>