<svg xmlns="http://www.w3.org/2000/svg" viewBox="0 -0.5 40 30" shape-rendering="crispEdges">
<metadata>Made with Pixels to Svg https://codepen.io/shshaw/pen/XbxvNj</metadata>
<path stroke="#202020" d="M17 5h1M16 6h1M18 6h1M23 6h2M10 7h4M16 7h1M18 7h1M22 7h1M24 7h1M9 8h1M14 8h1M16 8h1M19 8h1M21 8h1M24 8h1M8 9h1M15 9h1M19 9h1M21 9h1M24 9h1M9 10h2M20 10h1M24 10h1M27 10h3M11 11h1M23 11h1M26 11h1M30 11h1M11 12h1M23 12h1M25 12h1M31 12h1M10 13h1M19 13h1M31 13h1M11 14h1M31 14h1M11 15h1M31 15h1M10 16h1M30 16h1M11 17h2M28 17h2M13 18h1M28 18h1M14 19h1M29 19h1M14 20h1M27 20h3M13 21h1M18 21h2M25 21h2M14 22h4M19 22h1M25 22h1M18 23h1M24 23h2M16 24h2M21 24h4M14 25h2M20 25h1M13 26h1M20 26h1M14 27h2M18 27h2M16 28h2" />
<path stroke="#acbbf1" d="M17 6h1M17 7h1M23 7h1M17 8h2M22 8h2M17 9h2M22 9h2M17 10h1M21 10h2M16 11h7M27 11h3M15 12h4M22 12h1M26 12h5M15 13h3M22 13h2M26 13h5M17 14h4M22 14h1M26 14h1M28 14h3M29 15h1M29 16h1M27 19h2" />
<path stroke="#595db7" d="M10 8h1M13 8h1M16 9h1M15 14h2M21 14h1M17 15h4M28 15h1M20 16h1M18 20h1M21 20h1M15 21h1M17 21h1M22 21h1M20 22h1M19 23h1M22 23h1M18 24h3M16 25h2M19 25h1M16 26h3M16 27h2" />
<path stroke="#7886d8" d="M11 8h2M9 9h6M11 10h4M23 10h1M12 11h2M15 11h1M12 12h2M19 12h1M21 12h1M11 13h2M14 13h1M23 14h1M27 14h1M21 15h2M26 15h2M30 15h1M11 16h1M21 16h1M25 16h1M27 16h1M22 17h1M16 20h2M14 21h1M16 21h1M21 21h1M14 26h2" />
<path stroke="#525252" d="M15 10h2M18 10h2M14 11h1M14 12h1M13 13h1M24 13h2M12 14h2M24 14h2M14 15h1M23 15h3M14 16h1M22 16h2M26 16h1M28 16h1M14 17h1M19 17h3M26 17h2M15 18h1M18 18h1M23 18h3M16 19h2M22 19h1M15 20h1M22 20h3M20 21h1M24 21h1M21 22h1M20 23h1M18 25h1M19 26h1" />
<path stroke="#ffffff" d="M20 12h1M18 13h1M20 13h2M14 14h1M19 16h1" />
<path stroke="#3a5cbd" d="M12 15h2M12 16h2M13 17h1M14 18h1M15 19h1M26 19h1" />
<path stroke="#f77b63" d="M15 15h1M15 16h1M17 16h2M15 17h1M17 17h2M16 18h2" />
<path stroke="#ad5242" d="M16 15h1M16 16h1" />
<path stroke="#93a1f3" d="M24 16h1M23 17h3M19 18h4M18 19h4M19 20h2M23 21h1M22 22h3M21 23h1M23 23h1" />
<path stroke="#d66b52" d="M16 17h1" />
<path stroke="#5a7cf7" d="M26 18h2M23 19h3M25 20h2" />
</svg>