<svg xmlns="http://www.w3.org/2000/svg" viewBox="0 -0.5 40 30" shape-rendering="crispEdges">
<metadata>Made with Pixels to Svg https://codepen.io/shshaw/pen/XbxvNj</metadata>
<path stroke="#202020" d="M19 7h5M16 8h3M24 8h1M15 9h1M24 9h2M14 10h1M26 10h1M13 11h2M27 11h1M11 12h2M27 12h1M10 13h1M27 13h1M11 14h2M26 14h1M12 15h1M27 15h1M30 15h2M11 16h1M28 16h2M31 16h1M11 17h1M13 17h1M15 17h2M30 17h1M11 18h2M14 18h1M19 18h1M27 18h3M14 19h1M20 19h2M26 19h1M14 20h1M27 20h1M15 21h1M27 21h1M14 22h2M25 22h2M13 23h1M18 23h1M24 23h1M14 24h4M19 24h2M23 24h1M20 25h1M23 25h1M20 26h1M23 26h1M21 27h2" />
<path stroke="#525252" d="M19 8h1M16 9h1M19 9h1M22 9h2M15 10h1M17 10h6M16 11h1M21 11h1M14 12h2M22 12h1M15 13h1M22 13h1M15 14h1M22 14h1M16 15h1M21 15h1M23 15h3M17 16h4M16 22h1M17 23h1M21 24h2" />
<path stroke="#976931" d="M20 8h2M23 8h1M25 10h1M15 11h1M17 11h1M20 11h1M26 11h1M16 12h1M21 12h1M25 12h2M16 13h2M20 13h2M23 13h1M25 13h2M16 14h1M18 14h4M23 14h3M17 15h2M20 15h1" />
<path stroke="#f5dda2" d="M22 8h1M24 13h1M17 14h1M19 15h1" />
<path stroke="#fff3cc" d="M17 9h1M23 11h1M19 12h1" />
<path stroke="#cda14c" d="M18 9h1M16 10h1M23 10h2M18 11h2M22 11h1M24 11h2M17 12h2M20 12h1M23 12h2M18 13h2" />
<path stroke="#e5c37a" d="M20 9h2" />
<path stroke="#bd8f43" d="M13 12h1M11 13h3M22 15h1M26 15h1M12 16h1M21 16h4M26 16h2M12 17h1M22 17h2M25 17h1M27 17h1M25 20h1M24 21h1M23 22h1" />
<path stroke="#946521" d="M14 13h1M13 14h1M14 16h2M25 16h1M21 17h1M26 17h1M22 18h1M26 18h1M23 19h1M23 20h1M26 20h1M23 21h1M25 21h1M22 22h1M24 22h1M22 23h2" />
<path stroke="#deaf60" d="M14 14h1M13 15h3M13 16h1M30 16h1M24 17h1M28 17h2M23 18h3M24 19h2M24 20h1" />
<path stroke="#6f8330" d="M16 16h1M14 17h1M17 17h4M18 18h1M15 20h1M16 21h1M26 21h1M17 22h1M19 22h3M14 23h3M19 23h3M21 25h2M21 26h1" />
<path stroke="#97ab58" d="M15 18h3M20 18h2M17 19h3M22 19h1M16 20h1M19 20h4M17 21h1M20 21h3" />
<path stroke="#c1702e" d="M15 19h2M17 20h2M19 21h1" />
<path stroke="#ffffff" d="M18 21h1M18 22h1" />
<path stroke="#5b6f1c" d="M22 26h1" />
</svg>