<svg xmlns="http://www.w3.org/2000/svg" viewBox="0 -0.5 40 30" shape-rendering="crispEdges">
<metadata>Made with Pixels to Svg https://codepen.io/shshaw/pen/XbxvNj</metadata>
<path stroke="#202020" d="M14 7h3M12 8h2M17 8h2M11 9h1M19 9h1M22 9h2M11 10h1M20 10h2M24 10h2M10 11h1M26 11h1M29 11h1M10 12h1M27 12h2M30 12h1M11 13h1M30 13h1M12 14h1M30 14h1M13 15h1M30 15h1M12 16h1M29 16h1M11 17h1M29 17h1M11 18h1M29 18h1M10 19h1M29 19h1M10 20h1M30 20h1M9 21h1M11 21h1M15 21h1M25 21h1M30 21h1M9 22h1M15 22h1M24 22h1M26 22h1M30 22h1M10 23h1M24 23h1M27 23h3M10 24h1M18 24h2M24 24h1M11 25h3M16 25h2M19 25h1M24 25h1M14 26h2M19 26h1M23 26h1M20 27h3" />
<path stroke="#4f8751" d="M14 8h3M12 9h1M14 9h2M17 9h2M12 10h6M11 11h5M21 11h1M23 11h1M11 12h4M25 12h1M12 13h2M19 13h1M26 14h1" />
<path stroke="#525252" d="M13 9h1M16 9h1M18 10h2M16 11h2M19 11h1M15 12h1M18 12h1M14 13h1M17 13h2M27 13h1M13 14h1M16 14h1M18 14h1M27 14h1M15 15h1M18 15h2M22 15h1M25 15h2M29 15h1M14 16h1M17 16h1M19 16h3M23 16h2M12 17h1M14 17h1M17 17h2M28 17h1M13 18h1M20 18h3M26 18h2M18 19h2M23 19h3M16 20h2M14 21h1M12 22h2M29 22h1M19 23h1M11 24h1M20 24h1M20 26h1" />
<path stroke="#55a65d" d="M22 10h2M20 11h1M22 11h1M24 11h2M19 12h6M26 12h1M20 13h7M19 14h7M20 15h2M23 15h2" />
<path stroke="#3ba674" d="M18 11h1M16 12h2M15 13h2M14 14h2M14 15h1M13 16h1M18 16h1M13 17h1" />
<path stroke="#7ee6ac" d="M29 12h1M29 13h1M28 14h1M28 15h1M26 16h2M27 17h1M10 21h1M10 22h1M16 24h2M22 24h1M14 25h2M23 25h1" />
<path stroke="#4e886d" d="M28 13h1M29 14h1M27 15h1M25 16h1M28 16h1M26 17h1" />
<path stroke="#8aefb8" d="M17 14h1M16 15h2M15 16h2M22 16h1M15 17h2M19 17h2M22 17h4M12 18h1M14 18h1M16 18h4M23 18h3M11 19h5M17 19h1M11 20h5M12 21h2M17 22h2M17 23h1M23 24h1M20 25h3" />
<path stroke="#45b07e" d="M21 17h1M15 18h1M16 19h1M29 20h1M17 21h2M26 21h4M19 22h1M18 23h1M23 23h1M15 24h1M21 24h1" />
<path stroke="#b2c838" d="M28 18h1M26 19h3M26 20h3M12 24h2" />
<path stroke="#bce050" d="M20 19h3M18 20h3M23 20h2M19 21h1M21 21h2M24 21h1M11 22h1M14 22h1M20 22h4M11 23h2M14 23h3M20 23h3" />
<path stroke="#91ad2b" d="M21 20h2M25 20h1M20 21h1M23 21h1" />
<path stroke="#cecece" d="M16 21h1M27 22h2" />
<path stroke="#ffffff" d="M16 22h1M21 26h2" />
<path stroke="#758e29" d="M13 23h1M14 24h1" />
</svg>