<svg xmlns="http://www.w3.org/2000/svg" viewBox="0 -0.5 40 30" shape-rendering="crispEdges">
<metadata>Made with Pixels to Svg https://codepen.io/shshaw/pen/XbxvNj</metadata>
<path stroke="#202020" d="M16 1h1M15 2h1M17 2h1M23 2h1M15 3h1M17 3h1M22 3h1M24 3h1M14 4h1M17 4h1M21 4h1M24 4h1M14 5h1M18 5h1M21 5h1M25 5h3M14 6h1M18 6h1M20 6h1M27 6h1M13 7h1M19 7h1M26 7h1M12 8h1M27 8h1M12 9h1M27 9h1M31 9h2M12 10h1M26 10h1M29 10h2M32 10h2M7 11h2M11 11h1M26 11h1M28 11h1M34 11h1M7 12h1M9 12h1M11 12h1M25 12h1M28 12h1M34 12h1M8 13h1M10 13h1M26 13h1M28 13h1M34 13h1M8 14h1M26 14h1M29 14h1M33 14h1M9 15h1M26 15h1M29 15h1M32 15h1M9 16h1M25 16h1M28 16h1M31 16h1M10 17h1M13 17h1M26 17h2M31 17h1M9 18h1M31 18h1M8 19h1M30 19h1M8 20h1M30 20h1M7 21h1M9 21h1M29 21h1M33 21h2M6 22h1M9 22h1M29 22h1M32 22h1M35 22h1M6 23h1M8 23h1M10 23h1M16 23h1M28 23h1M30 23h2M33 23h2M6 24h1M8 24h1M10 24h1M15 24h1M17 24h1M19 24h3M26 24h2M29 24h1M32 24h1M7 25h1M9 25h2M15 25h1M17 25h1M19 25h1M22 25h4M28 25h1M30 25h2M8 26h2M14 26h1M18 26h1M20 26h2M25 26h3M29 26h1M10 27h1M14 27h1M19 27h1M22 27h3M28 27h1M11 28h3M20 28h2M25 28h3M22 29h3" />
<path stroke="#b5383e" d="M16 2h1M16 3h1M15 4h1M15 5h1M15 6h1M14 7h2M15 8h1M20 8h1M18 9h1M20 9h1M24 9h1M21 10h1M23 10h1M30 11h1M32 11h1M19 14h2M30 15h1M15 16h1M18 16h1M20 16h1M30 16h1M15 17h1M28 17h2M15 18h1M17 18h1M27 18h1M30 18h1M11 19h1M28 19h1M28 20h1M28 21h1" />
<path stroke="#d05156" d="M23 3h1M22 4h1M22 5h1M21 6h1M26 6h1M21 7h1M25 7h1M19 8h1M24 8h2M15 9h1M19 9h1M15 10h6M24 10h1M31 10h1M15 11h2M19 11h3M23 11h2M31 11h1M20 12h1M24 12h1M30 12h2M18 13h2M24 13h2M30 13h2M17 14h2M22 14h2M30 14h1M16 15h4M22 15h2M16 16h2M21 16h1M29 16h1M16 17h3M10 18h1M12 18h1M16 18h1M26 18h1M28 18h2M13 19h6M27 19h1M14 20h3M24 20h1M29 20h1M15 21h1M24 21h2M27 21h1M15 22h1M26 22h1" />
<path stroke="#cbbe92" d="M16 4h1M16 5h2M16 6h2M16 7h3M16 8h2M26 8h1M25 9h2M25 10h1M25 11h1M29 11h1M29 12h1M32 12h1M29 13h1M33 13h1M31 14h1M9 19h1M12 20h1M13 21h1M13 22h1M14 23h1M11 27h1" />
<path stroke="#eee4af" d="M23 4h1M23 5h2M22 6h4M22 7h3M21 8h3M21 9h3M22 10h1M33 11h1M33 12h1M32 13h1M32 14h1M31 15h1M22 17h4M19 18h5M20 19h2M10 20h2M20 20h3M18 21h3M14 24h1M14 25h1M13 26h1M12 27h1" />
<path stroke="#525252" d="M20 7h1M14 8h1M18 8h1M14 9h1M16 9h2M14 10h1M14 11h1M17 11h2M22 11h1M14 12h3M18 12h2M23 12h1M11 13h1M13 13h2M17 13h1M20 13h1M23 13h1M10 14h1M13 14h1M16 14h1M21 14h1M24 14h1M15 15h1M20 15h2M24 15h1M10 16h1M13 16h2M19 16h1M22 16h3M11 17h2M19 17h3M18 18h1M24 18h2M19 19h1M23 19h1M26 19h1M17 20h3M23 20h1M26 20h1M10 21h2M14 21h1M16 21h2M21 21h3M26 21h1M10 22h1M12 22h1M14 22h1M16 22h1M18 22h1M25 22h1M11 23h1M13 23h1M15 23h1M19 23h1M13 24h1M13 25h1M11 26h2" />
<path stroke="#d1413c" d="M13 8h1M13 9h1M13 10h1M12 11h2M12 12h2M17 12h1M12 13h1M15 13h2M11 14h2M14 14h2M10 15h5M11 16h2" />
<path stroke="#b92b28" d="M8 12h1M9 13h1M9 14h1" />
<path stroke="#60271f" d="M21 12h1M25 14h1M30 17h1M29 19h1" />
<path stroke="#86271f" d="M22 12h1M21 13h2M25 15h1M24 19h2M25 20h1M27 20h1" />
<path stroke="#ffffff" d="M14 17h1M14 18h1M11 22h1M12 25h1" />
<path stroke="#f27f7e" d="M11 18h1M10 19h1M12 19h1" />
<path stroke="#ad4a3a" d="M13 18h1M12 23h1M11 24h1" />
<path stroke="#8f8360" d="M22 19h1M9 20h1M13 20h1M12 21h1M10 26h1M13 27h1" />
<path stroke="#da6465" d="M8 21h1M7 22h1M33 22h2M7 23h1M17 23h1M32 23h1M7 24h1M18 24h1M30 24h2M8 25h1M18 25h1M29 25h1M28 26h1M27 27h1" />
<path stroke="#636363" d="M8 22h1M19 22h3M27 22h1M23 23h2M27 23h1M22 24h1M25 24h1" />
<path stroke="#7b7b7b" d="M17 22h1M22 22h3M28 22h1M18 23h1M20 23h3M25 23h2M23 24h2" />
<path stroke="#d64a3a" d="M12 24h1M11 25h1" />
<path stroke="#dc7e7c" d="M19 26h1M20 27h2M25 27h2M22 28h3" />
</svg>