<svg xmlns="http://www.w3.org/2000/svg" viewBox="0 -0.5 40 30" shape-rendering="crispEdges">
<metadata>Made with Pixels to Svg https://codepen.io/shshaw/pen/XbxvNj</metadata>
<path stroke="#202020" d="M12 8h5M10 9h2M17 9h2M20 9h2M9 10h1M19 10h1M22 10h1M8 11h1M23 11h1M7 12h1M23 12h3M7 13h1M10 13h1M26 13h1M6 14h1M27 14h1M29 14h4M6 15h1M28 15h1M33 15h1M6 16h1M33 16h1M6 17h1M33 17h1M7 18h2M33 18h1M8 19h1M12 19h2M33 19h1M9 20h1M11 20h1M13 20h1M32 20h1M10 21h2M14 21h1M30 21h2M13 22h1M28 22h2M13 23h3M27 23h1M16 24h1M26 24h1M17 25h1M21 25h2M26 25h1M18 26h3M22 26h1M24 26h1M26 26h1M23 27h1M25 27h1" />
<path stroke="#876f6f" d="M12 9h4M10 10h7M21 10h1M9 11h9M8 12h3M12 12h6M8 13h2M12 13h6M25 13h1M7 14h2M15 14h2M25 14h2M7 15h3M26 15h2M7 16h2M25 16h1M27 16h1M7 17h1M25 17h1M19 18h1M22 18h2M18 19h1M22 19h1M25 20h1M24 21h1M25 22h1M24 23h1M23 24h1" />
<path stroke="#755959" d="M16 9h1M17 10h1M22 11h1M11 12h1M24 13h1M12 15h1M14 15h1M13 16h2M24 16h1M13 17h1M27 17h1M14 18h1M21 18h1M28 18h1M14 19h1M24 19h1M28 19h1M14 20h2M24 20h1M15 21h1M24 25h2" />
<path stroke="#852825" d="M18 10h1M20 11h1M18 12h2M19 13h2M17 14h1M20 14h2M23 14h1M17 15h2M21 15h1M23 15h2M30 15h2M10 16h1M18 16h2M21 16h2M29 16h1M32 16h1M11 17h1M16 17h1M18 17h1M29 17h4M16 18h1M26 18h1M30 18h3M16 19h1M26 19h1M30 19h3M19 20h3M29 20h3M18 21h1M21 21h2M29 21h1M22 22h1" />
<path stroke="#5b5252" d="M20 10h1M22 12h1M28 16h1M28 17h1M10 18h1M20 18h1M24 18h1M29 18h1M10 19h1M23 19h1M29 19h1M23 20h1M28 20h1M16 21h1M25 21h1M28 21h1M15 22h1M24 22h1M18 23h1M20 23h1M18 24h1M20 24h1M25 24h1M19 25h1" />
<path stroke="#e95516" d="M18 11h2M20 12h2M18 13h1M21 13h1M18 14h2M16 15h1M19 15h1M16 16h1M20 16h1M17 17h1M11 18h1M17 18h1M9 19h1M11 19h1M10 20h1M19 22h1M17 23h1M19 23h1M21 23h1M17 24h1M19 24h1M21 24h1M18 25h1M20 25h1" />
<path stroke="#525252" d="M21 11h1M23 13h1M9 14h1M12 14h3M22 14h1M24 14h1M10 15h2M13 15h1M15 15h1M22 15h1M25 15h1M9 16h1M12 16h1M15 16h1M23 16h1M26 16h1M30 16h2M8 17h1M14 17h1M19 17h6M26 17h1M13 18h1M18 18h1M25 18h1M27 18h1M17 19h1M19 19h3M25 19h1M27 19h1M17 20h2M22 20h1M26 20h1M17 21h1M23 21h1M26 21h1M16 22h1M23 22h1M26 22h1M16 23h1M23 23h1M25 23h1M22 24h1M24 24h1M23 25h1" />
<path stroke="#ffffff" d="M11 13h1M10 14h1" />
<path stroke="#bc3011" d="M22 13h1M20 15h1M17 16h1M9 17h1M15 17h1M9 18h1M15 18h1M15 19h1M14 22h1M17 22h2M20 22h1M23 26h1M25 26h1" />
<path stroke="#bdbdbd" d="M11 14h1" />
<path stroke="#5c3239" d="M29 15h1M32 15h1M11 16h1M10 17h1M12 17h1M12 18h1M16 20h1M27 20h1M19 21h2M27 21h1M21 22h1M27 22h1M22 23h1M26 23h1" />
</svg>