<svg xmlns="http://www.w3.org/2000/svg" viewBox="0 -0.5 40 30" shape-rendering="crispEdges">
<metadata>Made with Pixels to Svg https://codepen.io/shshaw/pen/XbxvNj</metadata>
<path stroke="#202020" d="M18 11h3M16 12h2M21 12h2M14 13h2M23 13h1M13 14h1M24 14h1M12 15h1M24 15h1M12 16h1M24 16h1M11 17h1M25 17h1M11 18h1M25 18h1M12 19h1M15 19h1M21 19h2M25 19h1M12 20h1M14 20h1M16 20h3M20 20h1M22 20h1M26 20h1M13 21h2M18 21h1M21 21h1M26 21h1M17 22h1M27 22h1M17 23h1M28 23h1M17 24h1M27 24h1M18 25h4M25 25h2M22 26h1M24 26h1M22 27h2" />
<path stroke="#73736b" d="M18 12h3M17 13h6M15 14h1M17 14h1M20 15h1M22 15h2M21 16h1M23 16h1M23 17h2M18 18h1M23 18h2M16 19h2M23 19h2M23 20h2M27 23h1M19 24h1M23 26h1" />
<path stroke="#4a4a4a" d="M16 13h1M14 14h1M20 14h4M14 15h1M21 15h1M13 16h1M22 16h1M13 17h1M22 17h1M14 18h1M22 18h1M14 19h1M22 21h1M23 22h1M25 22h2M24 23h2M18 24h1M20 24h1M24 25h1" />
<path stroke="#ffee6d" d="M16 14h1" />
<path stroke="#ffffff" d="M18 14h1M19 15h1M19 16h1M18 17h1" />
<path stroke="#bdbdbd" d="M19 14h1" />
<path stroke="#525252" d="M13 15h1M12 17h1M12 18h2M13 19h1" />
<path stroke="#d5ab00" d="M15 15h2" />
<path stroke="#ffe21b" d="M17 15h1" />
<path stroke="#1963ce" d="M18 15h1M18 16h1" />
<path stroke="#e3514a" d="M14 16h4M20 16h1M15 17h1M17 17h1M19 17h3M15 18h3M19 18h3M18 19h3M19 21h2M24 21h2M20 22h3M24 22h1M20 23h1M22 23h2M22 24h2M22 25h2" />
<path stroke="#b93b42" d="M14 17h1M16 17h1M19 20h1M25 20h1M23 21h1M18 22h1M18 23h1M26 23h1M21 24h1M25 24h1" />
<path stroke="#9a2028" d="M13 20h1M19 22h1M19 23h1M21 23h1M24 24h1M26 24h1" />
</svg>