<svg xmlns="http://www.w3.org/2000/svg" viewBox="0 -0.5 40 30" shape-rendering="crispEdges">
<metadata>Made with Pixels to Svg https://codepen.io/shshaw/pen/XbxvNj</metadata>
<path stroke="#202020" d="M14 7h1M13 8h1M15 8h1M13 9h1M15 9h1M17 9h3M22 9h2M13 10h1M16 10h1M20 10h2M23 10h1M13 11h1M24 11h1M12 12h1M25 12h1M12 13h1M25 13h1M11 14h1M26 14h1M11 15h1M26 15h1M11 16h1M14 16h1M26 16h1M12 17h1M26 17h2M13 18h1M18 18h1M28 18h1M13 19h1M29 19h1M14 20h2M28 20h1M16 21h1M27 21h1M17 22h1M25 22h2M17 23h1M25 23h1M17 24h1M20 24h2M25 24h1M18 25h2M22 25h1M25 25h1M23 26h2" />
<path stroke="#ffb179" d="M14 8h1M14 9h1M14 10h1M22 10h1M15 11h1M21 11h2M15 12h1M21 12h1M20 13h2M20 14h1M17 21h1M19 22h2" />
<path stroke="#e36c18" d="M15 10h1M14 11h1M22 12h1M18 21h2" />
<path stroke="#fce252" d="M17 10h2M19 11h1M14 12h1M13 13h1M23 13h2M22 14h3M23 15h3M23 16h2M22 18h1M21 19h2" />
<path stroke="#e3b400" d="M19 10h1M18 11h1M13 12h1M24 12h1M12 14h2M25 14h1M12 15h1M12 16h1M19 16h2M25 16h1M13 17h1M20 17h1M23 17h3M21 18h1M24 18h1M23 19h2M16 20h1M22 20h2M23 23h2M22 24h1" />
<path stroke="#525252" d="M16 11h2M20 11h1M23 11h1M16 12h1M19 12h2M23 12h1M14 13h1M22 13h1M21 14h1M22 15h1M15 17h1M21 17h2M14 18h1M20 18h1M23 18h1M25 18h3M15 19h2M20 19h1M25 19h1M17 20h5M24 20h1M20 21h1M22 21h2M21 22h4M18 23h1M22 23h1M18 24h2M23 24h2M23 25h2" />
<path stroke="#83daff" d="M17 12h2M15 13h5M14 14h6M15 15h7M15 16h4M21 16h1M14 17h1M16 17h2M16 18h2M18 19h2M18 22h1M19 23h1M21 23h1" />
<path stroke="#ffffff" d="M13 15h1M13 16h1M19 17h1M19 18h1M26 19h3M26 20h2" />
<path stroke="#54a5f6" d="M14 15h1M22 16h1M18 17h1M15 18h1M17 19h1M20 23h1" />
<path stroke="#7b7b7b" d="M14 19h1M21 21h1M26 21h1" />
<path stroke="#bdc5ce" d="M25 20h1M24 21h2" />
</svg>