<svg xmlns="http://www.w3.org/2000/svg" viewBox="0 -0.5 40 30" shape-rendering="crispEdges">
<metadata>Made with Pixels to Svg https://codepen.io/shshaw/pen/XbxvNj</metadata>
<path stroke="#202020" d="M20 8h2M19 9h1M22 9h1M18 10h1M22 10h1M17 11h1M23 11h1M15 12h2M23 12h1M13 13h2M24 13h1M12 14h1M25 14h1M13 15h1M26 15h2M14 16h1M28 16h1M13 17h1M16 17h1M29 17h1M13 18h1M20 18h1M14 19h2M25 19h2M16 20h1M24 20h1M16 21h1M25 21h2M14 22h2M27 22h2M13 23h1M19 23h1M29 23h2M14 24h1M17 24h2M20 24h1M23 24h1M31 24h1M15 25h2M21 25h2M24 25h1M30 25h1M25 26h1M28 26h2M26 27h2" />
<path stroke="#fff773" d="M20 9h1M21 10h1M21 11h1M21 12h2M21 13h2M17 14h1M20 14h2M23 14h2M17 15h9M18 16h2M22 16h5M23 17h5M23 18h1M25 18h1M23 19h1M27 23h2M26 24h5M25 25h2M28 25h2M26 26h2" />
<path stroke="#e0b823" d="M21 9h1M22 11h1M15 13h2M13 14h4M14 15h3M15 16h1M17 16h1M21 16h1M14 17h2M22 17h1M14 18h1M26 18h1M24 21h1M16 22h2M25 22h2M14 23h3M26 23h1M15 24h2M25 24h1M27 25h1" />
<path stroke="#525252" d="M19 10h2M18 11h1M20 11h1M18 12h1M20 12h1M18 13h1M20 13h1M11 14h1M18 14h2M10 15h1M12 15h1M10 16h1M12 16h1M10 17h1M12 17h1M28 17h1M10 18h2M16 18h1M27 18h1M29 18h1M20 19h1M27 19h1M29 19h1M18 20h1M23 20h1M27 20h1M29 20h1M17 21h1M22 21h2M27 21h2M18 22h2M24 22h1M17 23h1M22 23h1M25 23h1M24 24h1" />
<path stroke="#e43900" d="M19 11h1M19 12h1M19 13h1M11 15h1M11 16h1M11 17h1M28 18h1M28 19h1M28 20h1" />
<path stroke="#b38101" d="M17 12h1M17 13h1M23 13h1M22 14h1M16 16h1M20 16h1M27 16h1M18 17h2M15 18h1M22 18h1M24 18h1M22 19h1M24 19h1" />
<path stroke="#f8dede" d="M17 17h1M20 17h2M17 18h3M21 18h1M16 19h4M21 19h1M17 20h1M19 20h4M19 21h2M21 22h2M18 23h1M20 23h2M23 23h2" />
<path stroke="#e1acb4" d="M18 21h1M21 21h1M20 22h1M23 22h1M21 24h2" />
</svg>