<svg xmlns="http://www.w3.org/2000/svg" viewBox="0 -0.5 40 30" shape-rendering="crispEdges">
<metadata>Made with Pixels to Svg https://codepen.io/shshaw/pen/XbxvNj</metadata>
<path stroke="#202020" d="M13 7h1M10 8h3M14 8h1M9 9h1M15 9h1M21 9h2M9 10h1M16 10h2M20 10h1M23 10h1M30 10h4M9 11h1M18 11h2M23 11h1M28 11h2M34 11h1M9 12h1M23 12h1M27 12h1M31 12h2M35 12h1M10 13h1M23 13h1M26 13h1M29 13h2M33 13h1M35 13h1M10 14h1M22 14h1M26 14h1M28 14h1M32 14h2M35 14h1M9 15h1M22 15h1M24 15h2M27 15h1M32 15h1M34 15h4M9 16h1M21 16h1M23 16h1M27 16h2M32 16h1M37 16h1M9 17h1M22 17h2M28 17h1M31 17h1M36 17h1M8 18h1M27 18h1M30 18h1M35 18h1M9 19h3M28 19h1M30 19h3M35 19h1M12 20h2M26 20h2M33 20h3M13 21h1M26 21h1M13 22h1M27 22h1M12 23h1M16 23h2M22 23h2M27 23h1M12 24h1M16 24h1M18 24h1M21 24h1M24 24h1M27 24h1M13 25h3M17 25h1M21 25h1M25 25h2M17 26h1M21 26h1M18 27h3" />
<path stroke="#6b6b63" d="M13 8h1M13 9h2M13 10h3M14 11h4M30 11h3M12 12h1M15 12h4M33 12h1M11 13h5M17 13h1M34 13h1M11 14h4M34 14h1M11 15h3M26 15h1M11 16h3M24 16h1M11 17h2M20 17h2M26 17h2M20 18h3M24 18h1M26 18h1M19 19h3M23 19h3M27 19h1M17 20h1M23 20h3M16 21h2M24 21h2M16 22h1M18 22h1M24 22h1M18 23h1" />
<path stroke="#525252" d="M10 9h1M12 9h1M12 10h1M12 11h2M33 11h1M11 12h1M13 12h2M19 12h1M28 12h3M34 12h1M16 13h1M18 13h1M27 13h2M15 14h1M17 14h2M27 14h1M14 15h1M18 15h1M21 15h1M14 16h1M19 16h2M25 16h2M13 17h1M15 17h1M24 17h2M9 18h2M19 18h1M23 18h1M25 18h1M17 19h2M22 19h1M26 19h1M33 19h1M14 20h3M18 20h4M15 21h1M18 21h2M14 22h2M17 22h1M19 22h1M25 22h2M24 23h3" />
<path stroke="#cb9f1c" d="M11 9h1M10 10h2M22 10h1M10 11h2M10 12h1M22 13h1M10 15h1M19 15h1M10 16h1M10 17h1M12 19h1M23 21h1M13 24h3M25 24h2M18 25h1M19 26h1" />
<path stroke="#ffd52c" d="M21 10h1M20 11h3M20 12h1M22 12h1M19 13h1M16 14h1M19 14h1M21 14h1M15 15h3M20 15h1M18 16h1M14 17h1M18 17h2M13 18h2M17 18h2M13 19h4M22 20h1M20 21h3M20 22h4M21 23h1M18 26h1M20 26h1" />
<path stroke="#b0783e" d="M21 12h1M20 13h1M34 16h1M33 18h1M14 21h1M14 23h2M19 24h2" />
<path stroke="#f79029" d="M21 13h1M20 14h1M33 15h1M33 16h1M35 16h2M32 17h4M31 18h2M34 18h1M34 19h1M19 23h2M19 25h2" />
<path stroke="#ffa246" d="M15 16h1M16 17h1" />
<path stroke="#f38f28" d="M16 16h1" />
<path stroke="#ffffff" d="M17 16h1M17 17h1M15 18h2" />
<path stroke="#ef633a" d="M11 18h2" />
<path stroke="#86661b" d="M13 23h1" />
</svg>