<svg xmlns="http://www.w3.org/2000/svg" viewBox="0 -0.5 40 30" shape-rendering="crispEdges">
<metadata>Made with Pixels to Svg https://codepen.io/shshaw/pen/XbxvNj</metadata>
<path stroke="#202020" d="M31 9h2M30 10h1M32 10h1M26 11h4M32 11h1M11 12h3M25 12h1M31 12h1M9 13h2M14 13h3M24 13h1M30 13h1M8 14h1M17 14h1M24 14h1M27 14h3M8 15h1M18 15h6M26 15h1M9 16h1M25 16h1M9 17h1M26 17h1M10 18h1M26 18h1M8 19h3M27 19h1M6 20h2M27 20h1M5 21h1M10 21h2M28 21h3M5 22h1M8 22h2M12 22h1M31 22h1M6 23h2M10 23h2M32 23h2M9 24h1M34 24h1M9 25h1M13 25h3M19 25h2M34 25h1M10 26h3M16 26h3M21 26h3M31 26h3M24 27h7" />
<path stroke="#ceddff" d="M31 10h1M30 11h2M27 12h4M26 13h3" />
<path stroke="#a3bbef" d="M26 12h1M25 13h1M29 13h1M25 14h2M24 15h2M24 16h1" />
<path stroke="#525252" d="M11 13h2M10 14h1M13 14h1M11 15h2M13 18h1M12 19h1M16 20h2M15 21h1M18 21h1M16 22h2M15 23h1M26 23h2M14 24h1M25 24h1M28 24h1M26 25h2" />
<path stroke="#375ab8" d="M13 13h1M9 14h1M14 14h1M10 15h1M13 15h1M13 17h2M25 17h1M12 18h1M11 19h1M24 19h2M8 20h1M26 20h1M6 21h1" />
<path stroke="#406adc" d="M11 14h2M15 14h2M9 15h1M14 15h4M10 16h7M23 16h1M10 17h3M24 17h1M11 18h1M13 19h1M23 19h1M9 20h3M15 20h1M18 20h1M7 21h3M12 21h1M14 21h1M19 21h1M6 22h2M15 22h1M18 22h1M25 23h1M28 23h1M19 24h1M24 24h1M29 24h1M10 25h1M21 25h1M25 25h1M28 25h1M33 25h1M24 26h1" />
<path stroke="#5280ff" d="M17 16h6M15 17h9M14 18h12M14 19h9M26 19h1M12 20h3M19 20h7M13 21h1M16 21h2M20 21h8M13 22h2M19 22h12M12 23h3M16 23h9M29 23h3M10 24h4M17 24h2M20 24h4M26 24h2M30 24h4M11 25h2M22 25h3M29 25h4M25 26h6" />
<path stroke="#d0d4ff" d="M15 24h2" />
<path stroke="#9ca1e1" d="M16 25h3" />
</svg>