<svg xmlns="http://www.w3.org/2000/svg" viewBox="0 -0.5 40 30" shape-rendering="crispEdges">
<metadata>Made with Pixels to Svg https://codepen.io/shshaw/pen/XbxvNj</metadata>
<path stroke="#202020" d="M19 3h2M19 4h1M21 4h1M20 5h1M22 5h1M15 6h4M20 6h1M22 6h1M15 7h1M19 7h1M23 7h1M16 8h1M24 8h3M14 9h2M27 9h2M13 10h1M29 10h1M12 11h1M29 11h1M11 12h1M29 12h2M11 13h1M31 13h1M10 14h1M31 14h1M10 15h1M32 15h1M8 16h2M32 16h1M7 17h1M25 17h2M32 17h1M7 18h1M25 18h1M27 18h1M31 18h1M5 19h2M24 19h1M26 19h1M30 19h1M4 20h1M24 20h2M30 20h3M5 21h2M10 21h1M16 21h2M33 21h1M7 22h3M11 22h1M15 22h1M18 22h1M32 22h2M11 23h1M15 23h1M18 23h1M31 23h2M10 24h1M16 24h1M18 24h1M30 24h1M9 25h1M13 25h2M16 25h2M22 25h1M31 25h1M10 26h3M15 26h1M17 26h1M21 26h1M23 26h3M30 26h1M16 27h1M19 27h2M26 27h4M16 28h3" />
<path stroke="#c16890" d="M20 4h1M21 5h1M21 6h1M21 7h2M19 8h4M21 9h1M24 9h3M18 10h7M27 10h1M16 11h9M18 12h4M23 12h2M27 12h2M19 13h3M23 13h2M28 13h3M19 14h2M23 14h1M30 14h1M19 15h2M31 15h1M18 16h2M29 16h1M14 17h1M17 17h3M29 17h1M13 18h6M29 18h1M12 19h7M29 19h1M11 20h6M28 20h2M11 21h5M28 21h1M12 22h3M27 22h2M12 23h3M26 23h3M11 24h3M27 24h1M10 25h3" />
<path stroke="#a14a72" d="M16 7h3M16 9h2M14 10h2M28 10h1M13 11h2M26 11h1M28 11h1M12 12h3M26 12h1M12 13h2M25 13h1M11 14h3M24 14h2M11 15h3M24 15h2M10 16h3M24 16h1M8 17h5M24 17h1M8 18h4M23 18h2M7 19h4M23 19h1M5 20h5M23 20h1M7 21h3M22 21h2M22 22h1M21 23h1M21 24h1M21 25h1M19 26h2M17 27h2" />
<path stroke="#525252" d="M20 7h1M17 8h2M23 8h1M18 9h3M22 9h2M16 10h2M25 10h2M15 11h1M25 11h1M27 11h1M15 12h1M22 12h1M25 12h1M14 13h1M22 13h1M26 13h2M14 14h1M21 14h1M26 14h1M29 14h1M14 15h1M21 15h1M23 15h1M26 15h1M29 15h2M13 16h1M20 16h1M23 16h1M25 16h1M28 16h1M30 16h1M13 17h1M20 17h1M23 17h1M28 17h1M30 17h1M12 18h1M19 18h1M22 18h1M28 18h1M30 18h1M11 19h1M19 19h1M21 19h1M28 19h1M10 20h1M17 20h2M21 20h2M27 20h1M21 21h1M24 21h1M27 21h1M29 21h1M21 22h1M23 22h1M26 22h1M29 22h1M20 23h1M22 23h1M25 23h1M29 23h2M14 24h1M19 24h1M22 24h1M25 24h2M28 24h1M19 25h2M27 25h1" />
<path stroke="#ffe27c" d="M16 12h2M15 13h4M15 14h4M27 14h1M15 15h4M27 15h2M14 16h4M15 17h2M25 21h2M30 21h2M25 22h1M30 22h1" />
<path stroke="#564863" d="M22 14h1M22 15h1M24 22h1M23 23h2M23 24h2M23 25h3M28 25h1M28 26h1" />
<path stroke="#e8ad2b" d="M28 14h1M26 16h2M31 16h1M27 17h1M31 17h1M27 19h1M26 20h1" />
<path stroke="#cecece" d="M21 16h1M19 20h1M15 24h1" />
<path stroke="#6e607d" d="M22 16h1M22 17h1M20 18h2M20 19h1M20 20h1M18 21h1M20 21h1M32 21h1M19 22h2M31 22h1M19 23h1M29 24h1M18 25h1M26 25h1M29 25h2M18 26h1M26 26h2M29 26h1" />
<path stroke="#ffffff" d="M21 17h1M22 19h1M19 21h1M20 24h1M15 25h1" />
</svg>