<svg xmlns="http://www.w3.org/2000/svg" viewBox="0 -0.5 40 30" shape-rendering="crispEdges">
<metadata>Made with Pixels to Svg https://codepen.io/shshaw/pen/XbxvNj</metadata>
<path stroke="#202020" d="M19 2h5M18 3h1M24 3h1M15 4h3M23 4h1M13 5h2M21 5h2M11 6h2M15 6h6M10 7h1M13 7h2M9 8h1M12 8h1M9 9h1M11 9h1M14 9h2M9 10h1M12 10h2M16 10h2M19 10h2M10 11h1M18 11h1M21 11h1M11 12h3M21 12h1M13 13h1M21 13h4M12 14h1M25 14h3M12 15h1M18 15h2M22 15h3M28 15h2M13 16h1M21 16h1M25 16h3M30 16h1M13 17h1M22 17h3M28 17h1M30 17h1M14 18h1M17 18h2M25 18h1M29 18h1M31 18h1M15 19h2M18 19h1M24 19h1M29 19h1M31 19h1M17 20h1M24 20h1M28 20h1M31 20h1M17 21h1M25 21h3M30 21h1M18 22h1M28 22h2M18 23h1M21 23h2M26 23h2M19 24h2M23 24h1M26 24h1M23 25h1M26 25h1M24 26h2" />
<path stroke="#5588b6" d="M19 3h1M23 3h1M22 4h1M20 5h1M13 6h1M12 7h1M11 8h1M10 9h1M10 10h1M11 11h2M15 11h1M19 11h1M18 13h1M17 14h1M23 14h2M17 15h1M25 15h1M20 17h1M21 20h1M21 21h1M22 22h1M26 22h2M19 23h1M24 23h1M24 25h1" />
<path stroke="#77aad8" d="M20 3h3M18 4h4M15 5h5M14 6h1M15 10h1M14 11h1M20 12h1M14 13h1M14 14h1M21 14h1M21 15h1M26 15h2M20 16h1M28 16h1M14 17h1M18 17h2M21 17h1M29 17h1M15 18h2M20 18h2M24 18h1M30 18h1M19 19h1M22 19h1M30 19h1M18 20h1M29 20h1M18 21h1M28 21h1M21 22h1M24 22h1M25 23h1M24 24h2" />
<path stroke="#525252" d="M11 7h1M10 8h1M11 10h1M14 10h1M13 11h1M22 14h1M29 16h1M19 18h1M23 19h1M19 20h1M30 20h1M19 21h1M29 21h1M19 22h2M25 22h1M20 23h1M23 23h1" />
<path stroke="#a5e1ff" d="M16 11h2M20 11h1M14 12h6M15 13h3M19 13h2M13 14h1M15 14h2M13 15h4M14 16h4M15 17h3M22 18h2M20 19h2M20 20h1M22 20h2M20 21h1M22 21h3M23 22h1M25 25h1" />
<path stroke="#ffffff" d="M18 14h1M20 14h1M20 15h1M19 16h1" />
<path stroke="#5a7bff" d="M19 14h1M18 16h1" />
</svg>