<svg xmlns="http://www.w3.org/2000/svg" viewBox="0 -0.5 40 30" shape-rendering="crispEdges">
<metadata>Made with Pixels to Svg https://codepen.io/shshaw/pen/XbxvNj</metadata>
<path stroke="#202020" d="M19 8h2M18 9h1M21 9h1M17 10h1M22 10h1M14 11h3M22 11h1M13 12h1M23 12h1M13 13h1M24 13h1M12 14h1M25 14h2M12 15h1M27 15h1M11 16h1M27 16h1M11 17h1M27 17h1M11 18h1M26 18h1M12 19h1M25 19h1M13 20h1M25 20h1M13 21h1M25 21h1M14 22h1M24 22h1M15 23h3M24 23h1M18 24h3M24 24h1M21 25h3" />
<path stroke="#ffffff" d="M19 9h1M19 10h2M25 15h1M26 16h1M13 17h1M13 18h1M18 19h2M18 20h2M23 23h1M21 24h2" />
<path stroke="#b7bee3" d="M20 9h1M18 10h1M19 11h2M12 16h1M12 17h1M21 18h1M21 19h1M15 22h1" />
<path stroke="#696e85" d="M21 10h1M17 11h1M16 12h1M22 12h1M20 13h2M24 14h1M14 15h1M26 15h1M12 18h1M24 18h2M15 21h1M24 21h1M16 22h2M19 23h1M23 24h1" />
<path stroke="#959aba" d="M18 11h1M21 11h1M17 12h1M21 12h1M16 13h1M22 13h1M15 14h1M23 14h1M24 15h1M24 16h1M15 20h1M16 21h1M23 22h1M22 23h1" />
<path stroke="#dee3ff" d="M14 12h1M13 15h1M13 16h2M20 16h1M25 16h1M14 17h1M21 17h1M25 17h1M14 18h1M18 18h2M22 18h1M13 19h1M15 19h1M17 19h1M20 19h1M22 19h1M17 20h1M20 20h2M14 21h1M18 21h3" />
<path stroke="#8084a0" d="M15 12h1M14 13h1M23 13h1M13 14h1M18 14h1M20 15h1M15 16h1M19 16h1M21 16h1M15 17h1M18 17h3M22 17h1M15 18h1M17 18h1M20 18h1M14 19h1M16 19h1M24 19h1M14 20h1M16 20h1M22 20h1M24 20h1M17 21h1M21 21h1M18 22h3M20 23h2" />
<path stroke="#777b95" d="M18 12h3M17 13h1M16 14h1M22 14h1M15 15h1M23 15h1M23 16h1M24 17h1M23 21h1M21 22h2" />
<path stroke="#525252" d="M15 13h1M14 14h1M26 17h1M18 23h1" />
<path stroke="#4c4e5f" d="M18 13h1M19 14h2M19 15h1M21 15h1M16 16h3M22 16h1M16 17h2M16 18h1" />
<path stroke="#5f6277" d="M19 13h1M21 14h1M16 15h1M22 15h1M23 17h1M22 21h1" />
<path stroke="#54586a" d="M17 14h1M17 15h2" />
<path stroke="#666a80" d="M23 18h1M23 20h1" />
<path stroke="#525566" d="M23 19h1" />
</svg>