<svg xmlns="http://www.w3.org/2000/svg" viewBox="0 -0.5 40 30" shape-rendering="crispEdges">
<metadata>Made with Pixels to Svg https://codepen.io/shshaw/pen/XbxvNj</metadata>
<path stroke="#202020" d="M12 5h1M11 6h1M13 6h1M22 6h3M11 7h1M13 7h1M20 7h2M25 7h1M10 8h1M14 8h2M19 8h1M24 8h1M10 9h1M16 9h1M18 9h1M25 9h1M10 10h1M17 10h1M25 10h1M11 11h1M24 11h1M26 11h2M11 12h1M24 12h1M26 12h1M28 12h1M10 13h1M23 13h1M26 13h1M29 13h1M10 14h1M22 14h1M27 14h1M30 14h1M9 15h1M15 15h1M23 15h1M27 15h1M30 15h1M9 16h1M14 16h1M24 16h1M26 16h1M31 16h1M10 17h1M25 17h1M31 17h1M10 18h1M31 18h1M9 19h1M13 19h2M30 19h1M9 20h1M12 20h1M14 20h1M30 20h1M10 21h2M13 21h1M29 21h1M13 22h1M28 22h1M14 23h1M17 23h2M27 23h1M15 24h3M19 24h3M27 24h1M22 25h1M26 25h1M22 26h1M26 26h1M23 27h3" />
<path stroke="#759832" d="M12 6h1M12 7h1M11 8h3M11 9h3M11 10h1M16 10h1M23 10h1M13 12h1M23 12h1M11 13h2M17 13h3M22 13h1M14 14h1M17 14h2M20 14h2M29 14h1M13 15h1M18 15h2M28 15h2M17 16h3M30 16h1M12 17h1M14 17h3M19 17h1M22 17h1M27 17h3M18 18h1M20 18h1M24 18h1M26 18h5M11 19h2M17 19h1M24 19h2M27 19h3M10 20h1M21 20h1M25 20h1M27 20h3M14 21h1M28 21h1M14 22h2M26 22h1M16 23h1M26 23h1M22 24h1M25 24h2M23 25h3" />
<path stroke="#9cc64c" d="M22 7h3M20 8h4M15 9h1M19 9h2M23 9h2M14 10h2M19 10h1M24 10h1M12 11h1M14 11h3M18 11h1M12 12h1M14 12h3M18 12h1M27 12h1M13 13h4M27 13h2M11 14h3M15 14h1M28 14h1M10 15h3M14 15h1M22 15h1M10 16h3M21 16h3M11 17h1M13 17h1M23 17h1M21 18h2M19 19h4M20 20h1M23 20h2M22 21h4M22 22h4M23 23h2" />
<path stroke="#525252" d="M14 9h1M21 9h2M12 10h2M18 10h1M20 10h1M13 11h1M17 11h1M19 11h1M17 12h1M19 14h1M20 15h2M20 16h1M27 16h1M18 17h1M20 17h2M24 17h1M26 17h1M11 18h2M17 18h1M19 18h1M23 18h1M25 18h1M15 19h2M18 19h1M23 19h1M26 19h1M18 20h1M22 20h1M26 20h1M15 21h1M19 21h3M27 21h1M16 22h1M21 22h1M27 22h1M21 23h1" />
<path stroke="#ffa2a8" d="M21 10h2M22 11h2M22 12h1M17 17h1M13 18h4M17 22h1M19 23h2" />
<path stroke="#c96168" d="M20 11h1M19 12h3M20 13h2M16 21h2M18 22h3" />
<path stroke="#e88087" d="M21 11h1" />
<path stroke="#577221" d="M16 14h1M17 15h1M13 16h1M28 16h2M30 17h1M26 21h1M15 23h1M22 23h1M25 23h1M23 24h2M24 26h1" />
<path stroke="#ffffff" d="M16 15h1M16 16h1M10 19h1M11 20h1M19 20h1M23 26h1M25 26h1" />
<path stroke="#f76352" d="M15 16h1" />
<path stroke="#ffd2d5" d="M15 20h3M18 21h1" />
</svg>