<svg xmlns="http://www.w3.org/2000/svg" viewBox="0 -0.5 40 30" shape-rendering="crispEdges">
<metadata>Made with Pixels to Svg https://codepen.io/shshaw/pen/XbxvNj</metadata>
<path stroke="#202020" d="M27 5h3M16 6h4M24 6h3M30 6h1M13 7h3M20 7h2M23 7h1M30 7h1M11 8h2M22 8h1M31 8h1M10 9h1M32 9h1M10 10h1M32 10h1M9 11h1M31 11h1M9 12h1M20 12h1M30 12h1M9 13h1M19 13h1M21 13h1M29 13h1M10 14h1M20 14h1M29 14h3M10 15h1M15 15h1M32 15h1M9 16h1M15 16h1M32 16h1M8 17h1M31 17h1M8 18h1M31 18h1M9 19h1M30 19h1M10 20h2M29 20h1M12 21h2M29 21h1M14 22h1M27 22h2M13 23h1M17 23h1M24 23h3M13 24h4M18 24h1M23 24h1M17 25h1M22 25h1M17 26h2M21 26h1M19 27h2" />
<path stroke="#ffd839" d="M27 6h2M24 7h2M28 7h2M30 8h1M31 9h1M10 16h2M9 17h4M9 18h1" />
<path stroke="#b99e06" d="M29 6h1M26 7h1M13 8h1M26 8h1M29 8h1M12 9h1M26 9h1M29 9h1M18 10h4M25 10h1M28 10h1M16 11h2M25 11h1M28 11h1M15 12h1M21 12h1M27 12h1M22 13h1M23 14h2" />
<path stroke="#fff5ae" d="M16 7h4M14 8h3M21 8h1M13 9h2M17 9h4M13 10h1M15 10h3M12 11h1M14 11h2M12 12h3M11 13h3M11 14h2M12 15h1" />
<path stroke="#f2dc2e" d="M27 7h1M24 8h2M27 8h2M11 9h1M25 9h1M27 9h2M30 9h1M11 10h1M24 10h1M26 10h2M29 10h3M10 11h1M18 11h4M23 11h2M26 11h2M29 11h2M10 12h1M16 12h3M22 12h1M26 12h1M28 12h2M10 13h1M15 13h2M14 14h2M13 15h1" />
<path stroke="#ffea5b" d="M17 8h4M15 9h2M21 9h3M12 10h1M14 10h1M11 11h1M13 11h1M11 12h1M14 13h1M13 14h1" />
<path stroke="#525252" d="M23 8h1M24 9h1M22 10h2M22 11h1M19 12h1M23 12h1M17 13h2M23 13h2M28 13h1M16 14h2M22 14h1M25 14h1M28 14h1M11 15h1M14 15h1M17 15h2M21 15h4M27 15h2M12 16h2M17 16h3M24 16h3M30 16h2M13 17h2M18 17h2M28 17h2M11 18h2M14 18h1M18 18h1M10 19h3M14 19h1M28 19h2M13 20h1M20 20h1M14 21h1M20 21h2M15 22h2M21 22h2M18 23h1M23 23h1M19 26h1" />
<path stroke="#9e5d21" d="M24 12h2M25 13h3M26 14h2M25 15h2M23 17h1M20 19h1M15 23h2M20 24h2M19 25h1" />
<path stroke="#c07722" d="M18 14h2M21 14h1M19 15h2M20 16h2M20 17h1M22 17h1M21 18h1M18 19h1M19 20h1M24 20h2M22 21h4M23 22h2" />
<path stroke="#bdbdbd" d="M16 15h1M14 16h1M14 23h1" />
<path stroke="#fce14f" d="M29 15h3M27 16h3M17 17h1M26 17h2M15 18h3M27 18h1M15 19h3M25 19h2M16 20h3" />
<path stroke="#ffffff" d="M16 16h1M18 25h1M20 26h1" />
<path stroke="#e19f13" d="M22 16h2M21 17h1M24 17h2M19 18h2M22 18h5M19 19h1M21 19h4M21 20h3" />
<path stroke="#d9c132" d="M15 17h2M30 17h1M28 18h3M27 19h1M14 20h2M26 20h3M15 21h5M26 21h3M17 22h4M25 22h2M19 23h4M22 24h1" />
<path stroke="#dca11b" d="M10 18h1M13 18h1M13 19h1M12 20h1M19 24h1M20 25h2" />
</svg>