<svg xmlns="http://www.w3.org/2000/svg" viewBox="0 -0.5 40 30" shape-rendering="crispEdges">
<metadata>Made with Pixels to Svg https://codepen.io/shshaw/pen/XbxvNj</metadata>
<path stroke="#202020" d="M16 6h3M15 7h1M19 7h1M21 7h3M15 8h1M20 8h1M24 8h1M14 9h1M25 9h1M14 10h1M25 10h1M14 11h1M25 11h1M15 12h1M25 12h1M15 13h1M19 13h1M24 13h1M14 14h1M24 14h1M13 15h1M24 15h1M12 16h1M24 16h1M12 17h1M25 17h1M11 18h1M26 18h1M11 19h3M26 19h1M14 20h1M27 20h1M15 21h1M27 21h1M15 22h1M27 22h1M14 23h1M18 23h1M24 23h4M15 24h3M19 24h1M23 24h1M19 25h1M23 25h1M19 26h1M21 26h1M23 26h1M20 27h1M22 27h1" />
<path stroke="#aa8e3a" d="M16 7h1M17 8h1M16 9h1M19 9h1M16 10h1M18 10h1M16 11h2M20 11h1M17 12h1M16 14h1M15 15h1M18 15h1M16 16h2M21 25h1" />
<path stroke="#d3c338" d="M17 7h2M16 8h1M15 9h1M24 9h1M15 10h1M23 10h2M15 11h1M23 11h2M16 12h1M19 12h1M24 12h1M18 13h1M17 14h1M15 23h2M20 25h1M22 25h1" />
<path stroke="#11a9d5" d="M18 8h2M17 9h1M21 12h2M22 13h2M19 14h1M22 14h2M21 15h3M18 16h5M16 17h4M21 17h4M17 18h1M21 18h5M22 19h4M23 20h4M25 21h2" />
<path stroke="#fff24a" d="M21 8h3M20 9h4M19 10h4M18 11h2M18 12h1M17 13h1M16 15h2M20 26h1M22 26h1" />
<path stroke="#9cf3f7" d="M18 9h1M17 10h1M20 12h1M21 13h1M21 14h1M19 15h2M16 20h1M20 20h1M16 21h2M19 21h3M24 21h1M20 22h3M25 22h2" />
<path stroke="#525252" d="M21 11h2M23 12h1M14 15h1M15 16h1M23 16h1M15 17h1M20 17h1M14 18h1M20 18h1M14 19h1M21 19h1M21 20h1M22 21h1M16 22h1M23 22h2M17 23h1" />
<path stroke="#0c7f99" d="M16 13h1M15 14h1M13 16h2M13 17h2M16 18h1M19 18h1M16 19h1M20 19h1" />
<path stroke="#ffffff" d="M20 13h1M18 14h1M20 14h1M15 18h1M15 19h1M18 19h1M18 20h1M18 22h1" />
<path stroke="#7bc8ce" d="M12 18h2M18 18h1M17 19h1M19 19h1M15 20h1M17 20h1M19 20h1M22 20h1M18 21h1M23 21h1M17 22h1M19 22h1M19 23h5M20 24h3" />
</svg>