<svg xmlns="http://www.w3.org/2000/svg" viewBox="0 -0.5 40 30" shape-rendering="crispEdges">
<metadata>Made with Pixels to Svg https://codepen.io/shshaw/pen/XbxvNj</metadata>
<path stroke="#202020" d="M19 7h1M22 7h1M19 8h1M21 8h2M24 8h2M15 9h3M20 9h2M23 9h2M14 10h1M18 10h5M13 11h1M22 11h2M12 12h1M24 12h1M12 13h1M25 13h1M12 14h1M15 14h1M13 15h1M20 15h1M27 15h1M13 16h1M27 16h1M13 17h1M28 17h1M12 18h1M28 18h1M12 19h1M27 19h1M13 20h1M26 20h1M14 21h1M27 21h3M13 22h2M29 22h1M12 23h1M28 23h1M13 24h1M26 24h2M14 25h2M18 25h1M25 25h1M16 26h2M19 26h1M24 26h1M20 27h4" />
<path stroke="#8dd6e2" d="M15 10h3M14 11h2M18 11h4M16 12h8M16 13h4M22 13h3M16 14h3M23 14h1M25 14h1M18 15h1M24 15h1M26 15h1M24 16h3M24 17h4M24 18h4M25 19h2M18 21h3M16 22h6M17 23h4" />
<path stroke="#525252" d="M16 11h2M15 12h1M24 14h1M26 14h1M16 15h2M23 15h1M15 16h1M18 16h2M23 16h1M14 17h1M20 17h1M21 18h1M23 18h1M19 19h4M18 20h1M15 21h3M26 21h1M26 22h1M15 23h1M25 23h1M16 24h2M23 24h3M19 25h4" />
<path stroke="#65aeaf" d="M13 12h2M13 13h1M20 13h2M13 14h1M19 14h1M22 14h1M25 15h1M14 16h1M22 17h2M22 18h1M23 19h2M19 20h7M21 21h5M15 22h1M22 22h4M27 22h2M16 23h1M21 23h4M26 23h2M18 24h5" />
<path stroke="#48918f" d="M14 13h1M14 15h1M22 16h1M21 17h1" />
<path stroke="#ffffff" d="M15 13h1M14 14h1M20 14h2M15 15h1M19 15h1M21 15h2M20 16h2" />
<path stroke="#d2fbff" d="M16 16h2M15 17h2M18 17h2M14 18h5M13 19h4" />
<path stroke="#8ad1d8" d="M17 17h1" />
<path stroke="#a9e6ec" d="M13 18h1M19 18h2M17 19h2M14 20h4M13 23h2M14 24h2M24 25h1M21 26h1M23 26h1" />
<path stroke="#7ec9d0" d="M16 25h2M23 25h1M20 26h1M22 26h1" />
</svg>