<svg xmlns="http://www.w3.org/2000/svg" viewBox="0 -0.5 40 30" shape-rendering="crispEdges">
<metadata>Made with Pixels to Svg https://codepen.io/shshaw/pen/XbxvNj</metadata>
<path stroke="#202020" d="M16 10h4M14 11h2M20 11h2M13 12h1M22 12h1M8 13h3M12 13h1M14 13h1M22 13h1M8 14h1M11 14h1M23 14h1M29 14h2M9 15h1M18 15h2M23 15h1M28 15h1M31 15h1M8 16h1M24 16h2M27 16h1M31 16h1M9 17h1M26 17h1M32 17h1M9 18h1M33 18h1M10 19h2M31 19h3M12 20h1M29 20h2M13 21h1M28 21h1M12 22h1M27 22h1M11 23h1M27 23h1M12 24h4M26 24h1M16 25h2M25 25h1M18 26h3M25 26h1M21 27h4" />
<path stroke="#eca7ef" d="M16 11h4M15 12h7M15 13h3M19 13h3M14 14h2M17 14h1M20 14h2M15 15h3M20 15h1M24 17h1M24 18h2M25 19h2M21 25h3M22 26h1M24 26h1" />
<path stroke="#ffffff" d="M14 12h1M18 14h1M17 17h3M17 18h2M20 18h3M18 19h2M18 20h1M20 20h2M19 21h1" />
<path stroke="#525252" d="M13 13h1M12 14h1M19 14h1M30 15h1M13 16h1M17 16h3M29 16h1M13 17h1M16 17h1M20 17h3M25 17h1M30 17h2M12 18h1M16 18h1M23 18h1M27 18h1M12 19h1M17 19h1M22 19h2M28 19h1M17 20h1M22 20h1M28 20h1M18 21h1M20 21h2M13 22h1M18 22h2M14 23h1M23 24h1M19 25h1M24 25h1" />
<path stroke="#c27bd1" d="M18 13h1M22 14h1M21 15h2M29 15h1M20 16h4M28 16h1M30 16h1M23 17h1M27 17h3M26 18h1M28 18h5M24 19h1M27 19h1M29 19h2M23 20h5M24 21h1M26 21h2M14 22h1M21 22h1M24 22h3M12 23h2M15 23h2M20 23h7M16 24h7M24 24h2M18 25h1M20 25h1M21 26h1M23 26h1" />
<path stroke="#cecece" d="M9 14h2M11 15h3M9 16h2M11 17h2M10 18h2" />
<path stroke="#7b7b7b" d="M13 14h1M16 14h1M10 15h1M14 15h1M11 16h2M15 16h2M10 17h1M19 18h1M20 19h2M19 20h1" />
<path stroke="#fff57f" d="M14 16h1M14 17h2M13 18h3M13 19h4M13 20h4M14 21h4M15 22h2" />
<path stroke="#dcc157" d="M22 21h2M25 21h1M17 22h1M20 22h1M22 22h2M17 23h3" />
</svg>