<svg xmlns="http://www.w3.org/2000/svg" viewBox="0 -0.5 40 30" shape-rendering="crispEdges">
<metadata>Made with Pixels to Svg https://codepen.io/shshaw/pen/XbxvNj</metadata>
<path stroke="#202020" d="M18 10h1M17 11h1M19 11h1M11 12h2M17 12h1M19 12h5M11 13h1M13 13h2M16 13h1M24 13h2M28 13h2M12 14h1M15 14h1M26 14h2M29 14h1M12 15h1M28 15h1M11 16h1M28 16h1M11 17h1M28 17h1M11 18h1M28 18h1M10 19h1M28 19h1M10 20h1M27 20h1M10 21h1M17 21h1M27 21h1M10 22h1M28 22h1M9 23h1M24 23h3M29 23h1M9 24h5M22 24h2M27 24h3M14 25h3M19 25h3M16 26h1M18 26h1M16 27h2" />
<path stroke="#fae571" d="M18 11h1M18 12h1M13 14h1M26 17h1M11 19h1M24 19h1M11 20h1M22 20h1M11 21h1M13 21h1M14 22h2" />
<path stroke="#f7f0c2" d="M12 13h1M20 13h3M16 14h5M23 14h2M28 14h1M14 15h2M17 15h6M26 15h2M13 16h6M20 16h4M25 16h1M12 17h2M15 17h5M22 17h3M12 18h1M14 18h6M21 18h1M23 18h2M12 19h1M14 19h3M18 19h2M21 19h2M13 20h2M16 20h1M19 20h1M14 21h2" />
<path stroke="#da8d37" d="M17 13h2M13 15h1M24 15h2M12 16h1M27 16h1M25 18h1M20 19h1M26 19h1M15 20h1M17 20h1M20 20h1M23 20h1M26 20h1M12 21h1M16 21h1M23 21h1M26 21h1M11 22h2M23 22h1M25 22h1M22 23h1M14 24h1M21 24h1" />
<path stroke="#f4ce53" d="M19 13h1M23 13h1M14 14h1M21 14h2M25 14h1M16 15h1M23 15h1M19 16h1M24 16h1M26 16h1M14 17h1M20 17h2M25 17h1M27 17h1M13 18h1M20 18h1M22 18h1M26 18h2M13 19h1M17 19h1M23 19h1M25 19h1M27 19h1M12 20h1M21 20h1M24 20h2M20 21h3M24 21h2M13 22h1M20 22h3M24 22h1M26 22h2M10 23h2M13 23h4M19 23h3M23 23h1M27 23h2M15 24h6M18 25h1M17 26h1" />
<path stroke="#18a2dc" d="M18 20h1M17 22h1" />
<path stroke="#3ac8f2" d="M18 21h1M18 22h1" />
<path stroke="#525252" d="M19 21h1M16 22h1M19 22h1M12 23h1M17 23h2M17 25h1" />
</svg>