<svg xmlns="http://www.w3.org/2000/svg" viewBox="0 -0.5 40 30" shape-rendering="crispEdges">
<metadata>Made with Pixels to Svg https://codepen.io/shshaw/pen/XbxvNj</metadata>
<path stroke="#202020" d="M14 7h3M13 8h1M17 8h1M24 8h2M13 9h1M18 9h1M23 9h1M26 9h1M13 10h1M18 10h1M22 10h1M27 10h1M14 11h1M18 11h1M22 11h1M27 11h1M14 12h1M19 12h3M27 12h1M15 13h1M26 13h1M14 14h1M25 14h1M13 15h1M24 15h1M13 16h1M25 16h1M13 17h1M25 17h1M13 18h1M25 18h1M14 19h1M25 19h1M13 20h1M24 20h1M13 21h1M23 21h1M14 22h1M24 22h1M15 23h1M25 23h1M15 24h1M25 24h1M15 25h1M24 25h1M16 26h4M23 26h1M20 27h3" />
<path stroke="#525252" d="M14 8h1M18 12h1M16 13h1M21 13h1M15 15h1M23 15h1M15 16h1M20 16h2M14 17h1M22 17h1M16 18h1M20 18h1M22 18h1M19 19h1M22 19h1M15 20h1M21 20h1M16 21h2M22 21h1M16 22h1M22 24h1M23 25h1" />
<path stroke="#6c880c" d="M15 8h2M14 9h2M17 9h1M25 9h1M14 10h1M26 10h1M17 11h1M26 11h1M23 12h1M26 12h1M15 18h1M24 19h1M23 20h1" />
<path stroke="#737373" d="M16 9h1M15 10h1M17 10h1M24 10h1M15 11h1M23 11h1M25 11h1M16 12h1M25 12h1M24 13h1M23 14h1M19 16h1M18 17h1M18 18h1M20 19h1" />
<path stroke="#85a907" d="M24 9h1M16 10h1M23 10h1M25 10h1M16 11h1M24 11h1M15 12h1M17 12h1M24 12h1M25 13h1M24 14h1M24 16h1M23 17h2M14 18h1M23 18h2M15 19h4M21 19h1M23 19h1M14 20h1M19 20h2M22 20h1M14 21h2M15 22h1M21 23h1M16 24h2M18 25h1M22 25h1" />
<path stroke="#aed501" d="M22 12h1M17 13h4M22 13h2M15 14h8M14 15h1M16 15h7M14 16h1M16 16h3M22 16h2M15 17h3M19 17h3M17 18h1M19 18h1M21 18h1M21 22h3M22 23h3M20 24h2M23 24h2M19 25h3" />
<path stroke="#ff9cb5" d="M16 20h2" />
<path stroke="#de7b94" d="M18 20h1" />
<path stroke="#90b01c" d="M18 21h3" />
<path stroke="#cebda5" d="M21 21h1M18 22h3M16 25h2M22 26h1" />
<path stroke="#f7debd" d="M17 22h1M16 23h5M18 24h2M20 26h2" />
</svg>