<svg xmlns="http://www.w3.org/2000/svg" viewBox="0 -0.5 40 30" shape-rendering="crispEdges">
<metadata>Made with Pixels to Svg https://codepen.io/shshaw/pen/XbxvNj</metadata>
<path stroke="#202020" d="M21 8h1M20 9h1M22 9h1M20 10h1M23 10h3M11 11h2M18 11h2M25 11h1M10 12h1M13 12h1M17 12h1M22 12h1M24 12h1M10 13h1M13 13h1M16 13h1M21 13h1M23 13h1M11 14h1M14 14h1M16 14h1M23 14h1M28 14h2M10 15h2M15 15h1M23 15h1M27 15h1M30 15h1M9 16h1M15 16h1M23 16h1M25 16h2M30 16h1M9 17h1M12 17h1M14 17h1M22 17h1M24 17h1M29 17h1M10 18h2M13 18h1M15 18h1M22 18h1M24 18h1M29 18h1M14 19h2M23 19h1M26 19h2M30 19h1M15 20h1M24 20h2M27 20h1M30 20h1M15 21h1M23 21h1M28 21h2M16 22h1M22 22h1M16 23h1M23 23h1M15 24h1M23 24h1M15 25h1M24 25h1M16 26h5M24 26h1M21 27h1M24 27h1M22 28h2" />
<path stroke="#d5ec34" d="M21 9h1M24 11h1M18 12h2M18 13h3M18 14h4M17 15h2M20 15h2M17 16h2M20 16h2M16 17h1M18 17h3M16 18h2M20 18h1M17 19h3" />
<path stroke="#a8ca0a" d="M21 10h1M22 11h2M21 12h1M22 14h1M16 15h1M22 15h1M22 16h1M13 17h1M21 17h1M14 18h1M21 18h1M16 19h1M20 19h2M24 19h1M17 20h7M16 21h2M19 21h2M17 22h1M19 22h3M18 23h5M17 24h2M20 24h3M16 25h1M18 25h2M21 25h1M23 26h1M22 27h2" />
<path stroke="#6c8901" d="M22 10h1M20 11h2M22 13h1M27 18h1M25 19h1M21 21h1M16 24h1M17 25h1M20 25h1M23 25h1M21 26h2" />
<path stroke="#ffb398" d="M11 12h1M13 15h1M28 15h1M10 16h1M25 17h1M28 19h1" />
<path stroke="#fb6a37" d="M12 12h1M11 13h2M14 15h1M29 15h1M11 16h1M13 16h2M28 16h2M10 17h2M26 17h1M25 18h2M29 19h1M28 20h2" />
<path stroke="#525252" d="M20 12h1M23 12h1M17 14h1M12 16h1M19 16h1M15 17h1M22 19h1M22 21h1M22 25h1" />
<path stroke="#ffffff" d="M17 13h1M19 15h1" />
<path stroke="#b53001" d="M12 14h2M12 15h1M27 16h1M27 17h2M28 18h1" />
<path stroke="#f76b9c" d="M16 16h1M17 17h1M18 18h2" />
<path stroke="#ffc53a" d="M16 20h1M18 21h1M18 22h1M17 23h1M19 24h1" />
</svg>