<svg xmlns="http://www.w3.org/2000/svg" viewBox="0 -0.5 40 30" shape-rendering="crispEdges">
<metadata>Made with Pixels to Svg https://codepen.io/shshaw/pen/XbxvNj</metadata>
<path stroke="#202020" d="M21 9h2M20 10h1M22 10h1M19 11h1M21 11h1M19 12h1M21 12h1M17 13h2M21 13h1M15 14h2M22 14h2M14 15h1M24 15h1M14 16h1M24 16h1M13 17h1M25 17h1M13 18h2M20 18h1M25 18h2M12 19h1M19 19h2M27 19h2M11 20h1M14 20h1M25 20h2M29 20h1M10 21h1M12 21h2M15 21h2M24 21h1M27 21h2M30 21h1M9 22h1M11 22h1M17 22h5M24 22h1M29 22h1M31 22h1M9 23h2M22 23h1M25 23h1M30 23h2M23 24h1M25 24h1M24 25h1M26 25h1M24 26h1M26 26h1M25 27h1" />
<path stroke="#ffdb73" d="M21 10h1M20 11h1M20 12h1M19 13h1M18 14h3M17 15h2M20 15h2" />
<path stroke="#525252" d="M20 13h1M13 19h1" />
<path stroke="#e5ab04" d="M17 14h1M21 14h1M16 15h1M19 15h1M22 15h1M17 16h5" />
<path stroke="#3a4567" d="M15 15h1M23 15h1M25 19h1M24 20h1M21 21h1M23 21h1M22 22h1M23 23h1" />
<path stroke="#636e98" d="M15 16h1M23 16h1M24 17h1M24 18h1M24 19h1M26 19h1M12 20h2M15 20h1M23 20h1M27 20h2M17 21h4M22 21h1M29 21h1M23 22h1M30 22h1M24 23h1" />
<path stroke="#8897d6" d="M16 16h1M22 16h1M15 17h9M15 18h4M21 18h3M15 19h4M22 19h2M16 20h3M21 20h2M11 21h1M10 22h1M24 24h1M25 25h1M25 26h1" />
<path stroke="#ffffff" d="M14 17h1M19 18h1" />
<path stroke="#f7738c" d="M14 19h1M21 19h1M19 20h2" />
</svg>