<svg xmlns="http://www.w3.org/2000/svg" viewBox="0 -0.5 40 30" shape-rendering="crispEdges">
<metadata>Made with Pixels to Svg https://codepen.io/shshaw/pen/XbxvNj</metadata>
<path stroke="#202020" d="M17 6h3M21 6h3M15 7h2M20 7h1M24 7h2M14 8h1M26 8h1M13 9h1M27 9h1M13 10h1M27 10h1M12 11h1M28 11h1M12 12h1M28 12h1M7 13h2M12 13h1M29 13h1M6 14h1M9 14h1M11 14h1M17 14h1M29 14h1M6 15h1M10 15h2M29 15h1M7 16h2M20 16h1M29 16h1M9 17h3M28 17h1M12 18h1M28 18h1M11 19h1M29 19h1M10 20h1M29 20h1M32 20h2M11 21h2M30 21h2M34 21h1M13 22h2M34 22h1M14 23h1M28 23h2M33 23h1M15 24h3M27 24h1M30 24h3M18 25h3M26 25h1M21 26h1M26 26h1M22 27h4" />
<path stroke="#55ff55" d="M17 7h2M21 7h3M19 8h1M24 8h1M17 9h2M22 10h2M17 11h2M24 11h1" />
<path stroke="#15ab15" d="M19 7h1M18 10h1M13 11h2M16 12h1M25 12h1M27 12h1M14 13h2M20 13h1M22 13h1M27 13h1M13 14h1M21 14h1M27 14h1M8 15h2M14 15h1M24 15h1M27 15h2M9 16h2M23 16h1M26 16h3M12 17h1M14 17h1M24 17h1M26 17h1M13 18h1M15 18h1M21 18h1M25 18h1M27 18h1M13 19h2M16 19h7M24 19h1M27 19h2M11 20h2M14 20h2M19 20h2M26 20h1M28 20h1M13 21h2M16 21h7M24 21h3M28 21h1M18 22h2M22 22h2M25 22h1M27 22h1M23 23h1M25 23h1M27 23h1" />
<path stroke="#3cda3c" d="M15 8h2M18 8h1M20 8h4M25 8h1M14 9h3M19 9h2M24 9h3M15 10h1M19 10h1M21 10h1M25 10h2M16 11h1M19 11h2M23 11h1M26 11h2M15 12h1M19 12h6M26 12h1M13 13h1M21 13h1M23 13h4M28 13h1M12 14h1M22 14h1M24 14h3M12 15h1M22 15h1M25 15h1M12 16h1M14 16h1M22 16h1M15 17h1M23 17h1M16 18h2M25 19h1M23 20h2M29 21h1M29 22h3M30 23h1" />
<path stroke="#525252" d="M17 8h1M21 9h3M14 10h1M16 10h2M20 10h1M24 10h1M15 11h1M21 11h2M25 11h1M13 12h2M17 12h2M16 13h1M19 13h1M14 14h2M20 14h1M23 14h1M28 14h1M13 15h1M15 15h1M21 15h1M23 15h1M26 15h1M11 16h1M13 16h1M15 16h1M21 16h1M24 16h2M13 17h1M16 17h2M21 17h2M25 17h1M27 17h1M14 18h1M18 18h3M22 18h3M26 18h1M12 19h1M15 19h1M23 19h1M26 19h1M13 20h1M16 20h3M21 20h2M25 20h1M27 20h1M15 21h1M23 21h1M27 21h1M15 22h3M20 22h2M24 22h1M26 22h1M28 22h1M15 23h5M22 23h1M24 23h1M26 23h1M18 24h1M23 24h1M25 24h2M25 26h1" />
<path stroke="#ffffff" d="M17 13h1M16 14h1M17 15h1M20 15h1M19 16h1M20 17h1" />
<path stroke="#9c9c9c" d="M18 13h1M16 15h1M19 15h1M19 17h1" />
<path stroke="#b54a6b" d="M7 14h2M7 15h1M32 22h2M31 23h2M21 25h1M25 25h1M22 26h3" />
<path stroke="#737373" d="M18 14h2M18 15h1M16 16h3M18 17h1M20 23h2M19 24h4M24 24h1M22 25h3" />
<path stroke="#de6384" d="M32 21h2" />
</svg>