<svg xmlns="http://www.w3.org/2000/svg" viewBox="0 -0.5 40 30" shape-rendering="crispEdges">
<metadata>Made with Pixels to Svg https://codepen.io/shshaw/pen/XbxvNj</metadata>
<path stroke="#202020" d="M18 2h2M17 3h1M19 3h1M16 4h1M19 4h1M23 4h1M16 5h1M18 5h1M22 5h1M24 5h1M12 6h3M16 6h1M19 6h1M22 6h1M24 6h1M11 7h1M15 7h2M19 7h1M21 7h1M24 7h1M10 8h2M20 8h1M24 8h1M10 9h1M12 9h1M25 9h1M11 10h3M25 10h1M12 11h1M26 11h1M13 12h2M24 12h2M27 12h2M14 13h1M29 13h1M15 14h1M23 14h1M30 14h1M14 15h1M22 15h1M24 15h2M31 15h1M13 16h1M19 16h1M26 16h2M31 16h1M12 17h1M24 17h3M28 17h1M30 17h1M12 18h1M24 18h1M27 18h3M12 19h1M15 19h2M24 19h1M12 20h1M15 20h1M17 20h1M25 20h1M13 21h2M18 21h1M21 21h1M26 21h1M18 22h1M20 22h1M22 22h1M26 22h1M17 23h1M21 23h2M26 23h1M16 24h1M26 24h1M16 25h1M22 25h4M17 26h1M22 26h1M18 27h4" />
<path stroke="#ece971" d="M18 3h1M23 5h1M23 6h1M25 11h1M22 14h1M16 15h1M13 20h2M18 23h3M25 23h1M17 24h1M21 24h1M23 24h2M17 25h5M18 26h3" />
<path stroke="#2f3036" d="M17 4h2M17 5h1M17 6h2M14 7h1M17 7h2M22 7h2M16 8h1M22 8h2M15 9h1M19 9h1M21 9h2M14 10h1M18 10h1M24 10h1M14 11h1M17 11h1M23 11h2M17 12h1M22 12h2M15 13h1M17 13h1M21 13h2M28 13h1M17 14h1M21 14h1M18 15h2M21 15h1M24 16h1M30 16h1M15 17h2M18 17h1M29 17h1M18 18h2M21 20h1" />
<path stroke="#4d4e57" d="M12 7h2M12 8h4M19 8h1M13 9h2M16 9h3M24 9h1M15 10h3M19 10h2M23 10h1M15 11h2M18 11h5M15 12h2M18 12h4M26 12h1M16 13h1M18 13h3M23 13h5M18 14h3M24 14h6M15 15h1M20 15h1M26 15h5M15 16h1M28 16h2M19 17h2M22 18h2M21 19h2" />
<path stroke="#414141" d="M17 8h2M21 8h1M20 9h1M23 9h1M21 10h2M16 14h1M14 16h1M16 16h1M21 16h3M13 17h2M17 17h1M22 17h2M13 18h3M17 18h1M21 18h1M13 19h2M17 19h4M23 19h1M20 20h1M22 20h1M19 21h2M22 24h1" />
<path stroke="#ffffff" d="M11 9h1M13 11h1M23 15h1M25 16h1M27 17h1M20 18h1" />
<path stroke="#a29f3d" d="M17 15h1M17 16h2M19 22h1" />
<path stroke="#4aac9c" d="M20 16h1" />
<path stroke="#cdcdcd" d="M21 17h1M16 18h1M18 20h2" />
<path stroke="#525252" d="M23 20h2M22 21h4M23 22h3M23 23h2M18 24h3M25 24h1M21 26h1" />
</svg>