<svg xmlns="http://www.w3.org/2000/svg" viewBox="0 -0.5 40 30" shape-rendering="crispEdges">
<metadata>Made with Pixels to Svg https://codepen.io/shshaw/pen/XbxvNj</metadata>
<path stroke="#202020" d="M24 15h2M23 16h1M26 16h1M22 17h1M26 17h1M17 18h4M22 18h1M26 18h1M14 19h3M21 19h2M26 19h1M13 20h1M25 20h1M13 21h1M24 21h1M13 22h1M24 22h1M14 23h1M16 23h1M25 23h1M14 24h1M20 24h1M25 24h1M15 25h1M24 25h1M16 26h1M21 26h3M17 27h4" />
<path stroke="#ffc33e" d="M24 16h1M23 17h1M25 17h1M23 18h1M25 18h1M24 19h2M24 20h1M24 23h1M24 24h1M23 25h1" />
<path stroke="#d48000" d="M25 16h1M24 17h1M24 18h1M23 19h1M23 24h1" />
<path stroke="#7b7b7b" d="M17 19h4M14 20h1M16 20h1M20 20h2M23 20h1M15 21h1M21 21h2M22 22h1M23 23h1M22 25h1" />
<path stroke="#525252" d="M15 20h1M22 20h1M14 21h1M17 21h1M23 21h1M14 22h1M19 22h1M23 22h1M22 23h1M22 24h1" />
<path stroke="#f7ce8c" d="M17 20h3M16 21h1M18 21h3M15 22h1M17 22h2M20 22h2M15 23h1M17 23h3M21 23h1M16 24h4M21 24h1M17 25h2M20 25h1" />
<path stroke="#ffffff" d="M16 22h1M20 23h1" />
<path stroke="#deb573" d="M15 24h1M19 26h1" />
<path stroke="#b5845a" d="M16 25h1M19 25h1M21 25h1M17 26h2M20 26h1" />
</svg>