<svg xmlns="http://www.w3.org/2000/svg" viewBox="0 -0.5 40 30" shape-rendering="crispEdges">
<metadata>Made with Pixels to Svg https://codepen.io/shshaw/pen/XbxvNj</metadata>
<path stroke="#202020" d="M13 13h2M12 14h1M15 14h1M18 14h4M28 14h2M12 15h1M16 15h2M22 15h1M27 15h1M30 15h1M12 16h1M14 16h2M23 16h1M27 16h1M30 16h1M11 17h1M14 17h1M16 17h1M23 17h1M27 17h1M29 17h1M11 18h1M13 18h1M15 18h1M24 18h1M26 18h1M29 18h1M11 19h1M13 19h1M15 19h1M24 19h1M26 19h1M29 19h1M10 20h1M13 20h1M15 20h1M19 20h1M24 20h1M26 20h1M28 20h1M10 21h1M13 21h1M16 21h1M18 21h1M24 21h1M26 21h1M28 21h1M10 22h1M12 22h1M16 22h1M23 22h1M25 22h1M28 22h1M9 23h1M12 23h1M17 23h1M22 23h1M24 23h2M27 23h1M9 24h1M12 24h1M18 24h4M23 24h1M27 24h1M10 25h2M24 25h1M27 25h1M25 26h2" />
<path stroke="#71acff" d="M13 14h1M19 15h2M28 15h1M21 16h1M22 17h1M23 18h1M23 19h1" />
<path stroke="#4385e1" d="M14 14h1M13 15h1M15 15h1M18 15h1M29 15h1M13 16h1M17 16h1M22 16h1M28 16h1M12 17h1M28 17h1M12 18h1M16 18h1M28 18h1M12 19h1M16 19h1M27 19h1M12 20h1M16 20h1M23 20h1M27 20h1M11 21h1M23 21h1M27 21h1M11 22h1M26 22h1M10 23h2M23 23h1M26 23h1M10 24h1M26 24h1" />
<path stroke="#1456b2" d="M14 15h1M21 15h1M16 16h1M19 16h2M21 17h1M22 18h1M22 19h1M22 20h1M22 21h1M22 22h1M21 23h1M25 24h1" />
<path stroke="#2d6fcb" d="M18 16h1M29 16h1M13 17h1M17 17h1M27 18h1M28 19h1M11 20h1M12 21h1M27 22h1M11 24h1M24 24h1M25 25h2" />
<path stroke="#a9ccff" d="M18 17h1M20 17h1M17 18h1M21 18h1M17 22h1M21 22h1M18 23h1M20 23h1" />
<path stroke="#eaf2ff" d="M19 17h1M18 18h3M17 19h1M20 19h2M17 20h1M20 20h2M17 21h1M20 21h2M18 22h3M19 23h1" />
<path stroke="#525252" d="M18 19h1M19 21h1" />
<path stroke="#848484" d="M19 19h1" />
<path stroke="#a5a5a5" d="M18 20h1" />
</svg>