<svg xmlns="http://www.w3.org/2000/svg" viewBox="0 -0.5 40 30" shape-rendering="crispEdges">
<metadata>Made with Pixels to Svg https://codepen.io/shshaw/pen/XbxvNj</metadata>
<path stroke="#202020" d="M18 2h3M22 2h4M16 3h2M21 3h1M26 3h2M15 4h1M28 4h1M12 5h3M28 5h1M9 6h3M29 6h1M8 7h1M29 7h3M9 8h1M32 8h1M8 9h1M33 9h1M7 10h1M8 11h1M33 11h1M7 12h1M34 12h1M7 13h2M34 13h1M9 14h1M32 14h2M7 15h2M31 15h1M6 16h1M32 16h1M6 17h1M33 17h1M7 18h1M34 18h1M7 19h1M34 19h1M6 20h1M32 20h3M6 21h1M16 21h1M32 21h1M6 22h1M31 22h1M7 23h1M28 23h3M8 24h4M19 24h2M27 24h1M12 25h7M20 25h1M26 25h1M21 26h1M26 26h1M22 27h4" />
<path stroke="#feffa5" d="M18 3h1M24 3h2M16 4h2M25 6h2M18 7h2M26 7h2M17 8h3" />
<path stroke="#ffd800" d="M19 3h2M22 3h2M18 4h2M23 4h5M15 5h3M27 5h1M15 6h1M18 6h2M23 6h1M16 7h2M20 7h3M24 7h2M28 7h1M15 8h2M20 8h3M24 8h5M16 9h6M25 9h3M19 10h2M14 14h1M16 14h1M12 15h7M14 16h3M13 17h2M16 17h2" />
<path stroke="#525252" d="M20 4h3M19 5h1M23 5h1M14 6h1M20 6h3M15 7h1M11 8h4M29 8h1M9 9h2M14 9h2M23 9h2M28 9h2M15 10h4M21 10h7M30 10h3M16 11h5M23 11h3M11 12h2M15 12h4M22 12h2M26 12h2M10 13h1M15 13h1M18 13h1M21 13h1M28 13h2M10 14h1M19 14h1M22 14h1M30 14h1M10 15h1M20 15h3M9 16h1M21 16h4M31 16h1M8 17h1M24 17h2M29 17h2M24 18h1M26 18h4M23 19h1M27 19h1M30 19h2M7 20h1M17 20h2M23 20h1M28 20h1M8 21h1M22 21h1M28 21h1M8 22h1M15 22h1M22 22h2M28 22h1M9 23h1M21 23h1M24 23h2M26 24h1M25 26h1" />
<path stroke="#ea8d00" d="M18 5h1M24 5h3M16 6h2M24 6h1M27 6h2M23 7h1M23 8h1M22 9h1M22 18h2M21 19h2" />
<path stroke="#ffc500" d="M20 5h3" />
<path stroke="#3c9e41" d="M12 6h2M9 7h4M14 7h1M10 8h1M30 8h2M31 9h2M11 10h1M13 10h1M11 11h1M13 11h1M13 12h1M24 14h1M24 15h1M26 16h1M26 17h1" />
<path stroke="#1e8023" d="M13 7h1M9 10h1M9 12h1M25 12h1M30 12h1M9 13h1M26 13h1M30 13h1M32 13h1M27 14h2M29 16h1" />
<path stroke="#62c112" d="M11 9h3M8 10h1M10 10h1M12 10h1M14 10h1M28 10h2M9 11h2M12 11h1M14 11h2M26 11h7M8 12h1M10 12h1M14 12h1M24 12h1M28 12h2M31 12h3M22 13h4M27 13h1M31 13h1M33 13h1M23 14h1M25 14h2M29 14h1M31 14h1M23 15h1M25 15h6M25 16h1M27 16h2M30 16h1M27 17h2" />
<path stroke="#1d7121" d="M30 9h1" />
<path stroke="#b86725" d="M21 11h2M19 12h3M19 13h2M20 14h2" />
<path stroke="#8de02f" d="M11 13h2M11 14h1M10 16h1M9 17h3M19 17h3M8 18h1M10 18h3M15 18h1M18 18h3M8 19h1M10 19h1M12 19h4M19 19h2M9 20h1M12 20h1M14 20h1M16 20h1M19 20h1M9 21h1M11 21h2M14 21h1M10 22h5M18 22h1M11 23h1M13 23h3" />
<path stroke="#ad7619" d="M13 13h2M16 13h2M12 14h2M15 14h1M17 14h2M11 15h1M19 15h1M11 16h3M17 16h3M12 17h1M15 17h1M18 17h1M13 18h2M16 18h2" />
<path stroke="#3e8798" d="M9 15h1M7 16h2M7 17h1M31 17h2M25 18h1M30 18h2M33 18h1M24 19h1M26 19h1M33 19h1M24 20h2M27 20h1M23 21h1M25 21h3M25 22h1M27 22h1M27 23h1" />
<path stroke="#64b013" d="M20 16h1M22 17h2M9 18h1M21 18h1M9 19h1M16 19h3M28 19h2M8 20h1M20 20h3M29 20h3M13 21h1M19 21h3M29 21h3M19 22h3M29 22h1M10 23h1M16 23h5M22 23h2M12 24h7M21 24h5M23 25h1" />
<path stroke="#346573" d="M32 18h1M25 19h1M32 19h1M26 20h1M24 21h1M24 22h1M26 22h1M26 23h1" />
<path stroke="#368a03" d="M11 19h1M10 20h2M13 20h1M15 20h1M7 21h1M10 21h1M15 21h1M7 22h1M9 22h1M12 23h1M22 25h1M24 25h2M23 26h1" />
<path stroke="#d19900" d="M17 21h1" />
<path stroke="#ffffff" d="M18 21h1M16 22h1M22 26h1M24 26h1" />
<path stroke="#f6db87" d="M17 22h1" />
<path stroke="#bdbdbd" d="M30 22h1M8 23h1M21 25h1" />
</svg>