<svg xmlns="http://www.w3.org/2000/svg" viewBox="0 -0.5 96 96" shape-rendering="crispEdges">
<metadata>Made with Pixels to Svg https://codepen.io/shshaw/pen/XbxvNj</metadata>
<path stroke="#7b5a29" d="M12 16h2M11 17h1M13 17h1M13 18h1M12 19h1M12 20h1M25 20h1M25 21h1M24 22h3M43 22h1M26 23h1M43 23h1M23 24h1M25 24h1M42 24h2M42 25h1M44 25h2M41 26h1M45 26h1M44 27h1M43 28h1M41 29h2M39 30h2M37 31h2M68 57h10M25 58h5M65 58h3M70 58h1M73 58h1M75 58h1M78 58h2M23 59h3M29 59h1M45 59h2M67 59h1M78 59h1M80 59h1M21 60h3M44 60h1M46 60h1M66 60h1M20 61h2M26 61h2M43 61h1M45 61h1M47 61h1M19 62h1M42 62h1M47 62h1M67 62h2M25 63h2M41 63h1M48 63h1M40 64h2M48 64h1M68 64h2M24 65h2M48 65h2M69 66h2M24 67h1M39 67h1M49 67h1M38 69h1M50 69h2M53 70h1M55 71h1M54 72h1M56 73h1" />
<path stroke="#523900" d="M10 17h1M10 18h1M10 19h1M10 20h1M11 21h1M24 23h1M42 27h1M40 28h1M40 29h1M38 30h1M59 49h1M56 50h1M60 50h1M57 51h1M60 51h1M58 52h1M27 59h1M65 59h1M69 59h9M25 60h2M28 60h1M65 60h1M67 60h2M78 60h2M23 61h2M28 61h1M66 61h1M68 61h1M21 62h2M25 62h1M27 62h1M45 62h1M66 62h1M20 63h1M27 63h1M46 63h1M67 63h1M69 63h1M24 64h1M26 64h1M46 64h1M67 64h1M26 65h1M39 65h1M47 65h1M68 65h1M70 65h1M23 66h1M25 66h1M38 66h1M47 66h1M49 66h1M68 66h1M23 67h1M25 67h1M38 67h1M48 67h1M50 67h1M69 67h1M75 67h1M23 68h1M25 68h1M37 68h1M48 68h1M51 68h1M70 68h1M24 69h1M37 69h1M49 69h1M52 69h2M71 69h1M54 70h2M37 71h1M52 71h1M56 71h1M37 72h1M57 72h1M58 73h1" />
<path stroke="#eebd5a" d="M12 17h1M11 18h1M11 19h1M26 21h1M25 23h1M44 23h1M24 24h1M44 24h2M43 25h1M43 26h2M58 50h2M58 51h1M68 58h2M71 58h2M68 59h1" />
<path stroke="#d59c39" d="M12 18h1M11 20h1M42 26h1M41 27h1M43 27h1M41 28h2M39 29h1M37 30h1M74 58h1M76 58h2M26 59h1M28 59h1M66 59h1M79 59h1M24 60h1M27 60h1M45 60h1M22 61h1M44 61h1M46 61h1M67 61h1M20 62h1M26 62h1M43 62h1M46 62h1M19 63h1M42 63h1M47 63h1M68 63h1M25 64h1M47 64h1M40 65h1M69 65h1M24 66h1M39 66h1M48 66h1M70 67h1M24 68h1M38 68h1M49 68h2M71 68h1M37 70h1M51 70h2M53 71h2M55 72h2M55 73h1M57 73h1M56 74h2" />
<path stroke="#322c33" d="M24 19h2M23 20h1M26 20h1M40 20h3M12 21h1M22 21h1M27 21h1M43 21h1M13 22h1M44 22h1M48 22h1M12 23h1M14 23h2M28 23h1M34 23h2M45 23h1M16 24h3M29 24h1M33 24h1M46 24h1M25 25h1M30 25h1M47 25h1M30 26h1M48 26h1M30 27h1M40 27h1M49 27h1M39 28h1M50 28h1M53 29h1M51 30h1M54 30h1M58 30h3M36 31h1M52 31h1M61 31h1M36 32h1M33 33h1M36 33h1M36 34h1M34 35h1M36 35h1M61 35h1M36 36h1M34 37h1M59 37h1M59 38h1M61 38h1M61 39h1M34 44h1M60 45h1M35 46h1M59 46h1M36 47h1M75 47h2M25 48h1M37 48h2M58 48h1M73 48h2M24 49h1M26 49h1M39 49h2M56 49h1M67 49h6M24 50h1M27 50h1M53 50h1M64 50h3M23 51h1M28 51h1M46 51h1M63 51h1M76 51h1M23 52h1M31 52h1M60 52h1M77 52h1M22 53h1M45 53h1M58 53h1M22 54h1M44 54h1M21 55h1M40 55h1M43 55h1M20 56h1M42 56h1M52 56h1M54 56h1M19 57h1M41 57h1M53 57h1M19 58h1M40 58h1M54 58h1M58 58h1M18 59h1M39 59h1M56 59h1M18 60h1M36 60h1M38 60h1M55 60h5M18 61h1M32 61h7M18 62h1M37 62h1M18 63h1M60 63h1M19 64h1M36 64h1M59 64h1M62 64h1M32 65h1M36 65h1M33 66h1M33 67h1M29 68h1M64 68h2M31 69h1M64 69h1M67 69h2M39 70h2M68 70h1M39 71h2M39 72h3M59 72h1M39 73h3M40 74h2" />
<path stroke="#010101" d="M22 20h1M21 21h1M11 22h1M20 22h1M19 23h1M49 23h1M12 24h1M32 24h1M50 24h1M13 25h1M23 25h2M31 25h1M51 25h1M14 26h1M21 26h2M24 26h1M51 26h1M15 27h2M19 27h2M24 27h1M52 27h1M17 28h2M24 28h1M52 28h1M24 29h1M37 29h2M24 30h1M35 30h2M25 31h1M33 31h2M56 31h2M25 32h1M32 32h1M53 32h1M55 32h1M61 32h1M26 33h1M31 33h1M54 33h1M61 33h1M27 34h4M33 34h1M61 34h1M34 36h1M60 36h1M60 37h1M33 38h1M33 39h1M33 40h1M61 40h1M33 41h1M61 41h1M33 42h1M61 42h1M33 43h1M61 43h1M61 44h1M34 45h1M60 46h1M59 47h1M77 47h1M77 48h1M57 49h1M77 49h1M41 50h2M54 50h2M77 50h1M29 51h2M43 51h3M50 51h3M61 51h2M77 51h1M32 52h3M45 52h1M49 52h1M59 52h1M35 53h3M50 53h2M56 53h2M78 53h1M38 54h2M52 54h4M79 54h1M41 55h2M80 55h1M53 56h1M80 56h1M39 57h2M55 57h2M81 57h1M38 58h1M57 58h1M81 58h1M37 59h1M59 59h1M81 59h1M37 60h1M60 60h1M80 60h1M60 61h1M32 62h1M44 62h1M61 62h1M33 63h1M43 63h1M61 63h1M34 64h1M42 64h1M60 64h1M35 65h1M41 65h1M60 65h1M62 65h1M34 66h1M36 66h1M40 66h1M60 66h1M63 66h1M75 66h1M22 67h1M34 67h1M36 67h1M40 67h1M60 67h1M63 67h1M71 67h1M21 68h1M34 68h1M36 68h1M39 68h2M60 68h1M72 68h1M76 68h1M20 69h1M23 69h1M29 69h2M34 69h1M36 69h1M39 69h2M60 69h1M72 69h1M76 69h2M81 69h1M19 70h1M22 70h1M24 70h5M32 70h3M36 70h1M38 70h1M41 70h1M50 70h1M60 70h1M64 70h1M69 70h4M77 70h1M82 70h1M18 71h1M21 71h1M24 71h1M38 71h1M41 71h1M51 71h1M60 71h1M64 71h1M67 71h2M73 71h1M78 71h1M83 71h1M18 72h1M21 72h1M24 72h1M38 72h1M42 72h1M52 72h2M64 72h3M73 72h1M78 72h1M17 73h1M21 73h1M24 73h1M38 73h1M42 73h1M52 73h1M54 73h1M59 73h1M74 73h1M79 73h1M21 74h1M39 74h1M42 74h2M46 74h1M48 74h1M55 74h1M58 74h1M40 75h2M46 75h1M51 75h1M56 75h2M44 76h1M46 76h1M49 76h1M51 76h1M45 77h1M49 77h1M51 77h1M50 78h1" />
<path stroke="#685f6b" d="M24 20h1M23 21h2M41 21h2M12 22h1M21 22h3M41 22h2M13 23h1M20 23h3M27 23h1M40 23h3M48 23h1M13 24h3M19 24h3M27 24h2M39 24h1M48 24h2M14 25h6M28 25h1M37 25h1M46 25h1M49 25h1M15 26h4M28 26h2M35 26h1M46 26h2M49 26h2M17 27h1M29 27h1M32 27h2M45 27h4M50 27h2M29 28h1M46 28h4M51 28h1M47 29h3M52 29h1M48 30h3M52 30h1M35 31h1M49 31h3M53 31h2M35 32h1M50 32h3M60 32h1M35 33h1M51 33h3M55 33h2M59 33h2M52 34h9M53 35h7M55 36h4M56 37h2M76 48h1M76 49h1M67 50h5M75 50h2M64 51h4M74 51h2M27 52h4M75 52h2M23 53h2M30 53h5M76 53h2M23 54h1M34 54h4M77 54h2M22 55h1M44 55h4M78 55h2M21 56h1M43 56h6M79 56h1M42 57h8M79 57h2M41 58h9M80 58h1M40 59h5M47 59h3M40 60h4M47 60h2M41 61h2" />
<path stroke="#4d464f" d="M38 21h2M46 21h2M27 22h1M36 22h2M46 22h1M23 23h1M22 24h1M26 24h1M40 24h2M20 25h3M26 25h2M29 25h1M38 25h4M50 25h1M19 26h2M25 26h3M36 26h5M18 27h1M25 27h4M31 27h1M34 27h6M25 28h4M30 28h9M44 28h2M25 29h12M43 29h4M50 29h2M25 30h10M41 30h7M53 30h1M26 31h7M39 31h10M55 31h1M26 32h6M33 32h2M37 32h13M54 32h1M27 33h4M34 33h1M37 33h14M34 34h2M37 34h15M35 35h1M37 35h16M60 35h1M35 36h1M37 36h18M59 36h1M35 37h21M58 37h1M34 38h25M60 38h1M34 39h27M34 40h27M34 41h27M34 42h27M34 43h27M35 44h26M35 45h25M36 46h23M37 47h22M39 48h19M75 48h1M25 49h1M41 49h15M73 49h3M25 50h2M43 50h10M72 50h3M24 51h4M47 51h3M68 51h6M24 52h3M46 52h3M61 52h14M25 53h5M46 53h4M59 53h17M24 54h10M45 54h7M56 54h21M23 55h17M48 55h30M22 56h20M49 56h3M55 56h24M20 57h19M50 57h3M57 57h11M78 57h1M20 58h5M30 58h8M50 58h4M59 58h6M19 59h4M30 59h7M50 59h6M60 59h5M19 60h2M29 60h7M39 60h1M49 60h6M61 60h4M19 61h1M29 61h3M39 61h2M48 61h12M61 61h5M28 62h4M33 62h4M38 62h4M48 62h13M62 62h4M28 63h5M34 63h7M49 63h11M62 63h5M27 64h7M35 64h1M37 64h3M49 64h10M63 64h4M27 65h5M33 65h2M37 65h2M50 65h10M63 65h5M26 66h7M37 66h1M50 66h10M64 66h4M26 67h7M37 67h1M51 67h9M64 67h5M26 68h3M30 68h4M52 68h8M66 68h4M25 69h4M32 69h2M54 69h6M65 69h2M69 69h2M56 70h4M65 70h3M57 71h3M65 71h2M58 72h1" />
<path stroke="#7c777d" d="M40 21h1M38 22h3M47 22h1M36 23h4M46 23h2M34 24h5M47 24h1M32 25h5M48 25h1M31 26h4M58 31h3M56 32h4M57 33h2" />
<path stroke="#a47b10" d="M58 49h1M57 50h1M59 51h1" />
<path stroke="#d74477" d="M69 60h3M73 60h3M77 60h1M25 61h1M69 61h4M74 61h3M78 61h1M23 62h2M69 62h4M74 62h2M79 62h1M21 63h4M44 63h2M70 63h4M75 63h2M80 63h1M21 64h3M43 64h3M71 64h3M75 64h2M79 64h1M20 65h4M42 65h5M71 65h3M76 65h2M19 66h4M41 66h6M72 66h2M76 66h2M80 66h1M19 67h3M41 67h7M72 67h2M77 67h2M81 67h1M18 68h3M22 68h1M41 68h7M73 68h2M77 68h2M18 69h2M21 69h1M42 69h7M73 69h2M78 69h1M82 69h1M17 70h2M20 70h2M23 70h1M42 70h8M74 70h1M78 70h1M17 71h1M20 71h1M22 71h2M42 71h9M74 71h1M79 71h1M17 72h1M20 72h1M23 72h1M43 72h4M48 72h4M74 72h1M79 72h1M20 73h1M44 73h2M49 73h3M44 74h2M49 74h2M45 75h1M50 75h1M45 76h1M50 76h1M50 77h1" />
<path stroke="#80313d" d="M72 60h1M76 60h1M73 61h1M77 61h1M79 61h1M73 62h1M77 62h1M80 62h1M74 63h1M78 63h1M81 63h1M20 64h1M70 64h1M74 64h1M78 64h1M81 64h1M19 65h1M74 65h2M79 65h1M82 65h1M18 66h1M71 66h1M74 66h1M79 66h1M82 66h1M18 67h1M74 67h1M76 67h1M79 67h2M83 67h1M17 68h1M75 68h1M80 68h2M83 68h1M17 69h1M22 69h1M41 69h1M75 69h1M80 69h1M84 69h1M16 70h1M73 70h1M75 70h1M80 70h1M84 70h1M16 71h1M19 71h1M75 71h1M80 71h1M84 71h1M16 72h1M19 72h1M22 72h1M47 72h1M75 72h1M80 72h1M16 73h1M19 73h1M23 73h1M43 73h1M46 73h1M48 73h1M75 73h1M80 73h1M20 74h1M51 74h1M44 75h1M49 75h1" />
<path stroke="#ea7bb6" d="M76 62h1M78 62h1M77 63h1M79 63h1M77 64h1M80 64h1M78 65h1M80 65h2M78 66h1M81 66h1M82 67h1M79 68h1M82 68h1M79 69h1M83 69h1M79 70h1M83 70h1" />
</svg>