<svg xmlns="http://www.w3.org/2000/svg" viewBox="0 -0.5 96 96" shape-rendering="crispEdges">
<metadata>Made with Pixels to Svg https://codepen.io/shshaw/pen/XbxvNj</metadata>
<path stroke="#393941" d="M20 16h4M21 17h1M24 17h3M75 17h2M22 18h1M27 18h2M73 18h4M22 19h2M29 19h3M71 19h5M23 20h2M29 20h5M69 20h6M22 21h1M24 21h2M30 21h6M68 21h6M22 22h2M25 22h2M30 22h5M48 22h3M67 22h6M22 23h2M26 23h2M29 23h5M49 23h1M66 23h6M22 24h3M27 24h6M48 24h2M65 24h6M24 25h1M28 25h4M46 25h3M59 25h1M64 25h6M25 26h1M28 26h3M39 26h1M44 26h3M58 26h2M62 26h6M29 27h1M40 27h4M58 27h2M61 27h6M57 28h8M29 29h1M57 29h7M57 30h6M36 31h3M57 31h5M35 32h1M41 32h1M57 32h3M26 33h1M42 33h1M58 33h1M25 34h1M25 35h1M39 35h2M43 35h1M24 36h1M40 36h2M43 36h1M24 37h1M33 37h2M40 37h3M24 38h1M33 38h2M39 38h3M24 39h1M34 39h2M39 39h2M24 40h1M32 40h1M34 40h2M38 40h2M26 41h2M32 41h1M34 41h2M37 41h2M22 42h7M33 42h1M35 42h3M50 42h4M69 42h1M22 43h1M24 43h6M47 43h5M53 43h2M63 43h5M24 44h7M45 44h6M52 44h3M62 44h3M66 44h1M25 45h4M32 45h1M43 45h7M51 45h5M61 45h5M21 46h1M41 46h9M53 46h3M60 46h5M20 47h2M42 47h9M55 47h2M59 47h5M19 48h2M43 48h10M55 48h9M66 48h1M26 49h1M44 49h17M62 49h5M26 50h2M45 50h10M59 50h3M63 50h4M25 51h4M46 51h5M60 51h3M64 51h2M25 52h3M61 52h2M64 52h3M25 53h1M63 53h5M19 54h1M66 54h3M18 55h1M67 55h2M56 57h2M56 58h3M66 58h1M46 59h2M56 59h1M66 59h2M21 60h1M28 60h1M44 60h5M67 60h1M20 61h2M28 61h3M47 61h3M67 61h2M70 61h1M20 62h1M28 62h2M68 62h2M28 63h1M68 63h2M69 64h2M59 65h4M69 65h2M24 66h1M60 66h3M69 66h1M24 67h1M61 67h2M69 67h1M53 69h1M28 70h2M42 70h3M29 71h3M43 71h5M54 71h1M44 72h3M37 73h2M45 73h1M36 74h2M48 76h2M54 76h2M62 76h1M47 77h2" />
<path stroke="#010101" d="M76 16h2M20 17h1M73 17h2M77 17h1M20 18h2M71 18h2M77 18h1M20 19h2M69 19h2M76 19h1M21 20h2M67 20h2M75 20h2M21 21h1M23 21h1M65 21h2M74 21h2M21 22h1M24 22h1M35 22h2M46 22h2M63 22h2M73 22h3M21 23h1M24 23h2M34 23h1M45 23h4M61 23h2M72 23h4M21 24h1M25 24h2M33 24h1M43 24h5M59 24h2M71 24h4M22 25h2M25 25h3M42 25h4M58 25h1M70 25h5M22 26h3M26 26h2M41 26h3M57 26h1M68 26h6M23 27h6M57 27h1M67 27h7M23 28h7M56 28h1M65 28h8M23 29h6M56 29h1M64 29h9M24 30h5M56 30h1M63 30h5M69 30h3M24 31h5M39 31h2M56 31h1M62 31h4M68 31h4M25 32h3M38 32h3M56 32h1M60 32h5M68 32h4M25 33h1M37 33h5M57 33h1M59 33h5M67 33h5M36 34h2M39 34h4M59 34h4M67 34h4M72 34h1M35 35h2M41 35h2M60 35h2M66 35h4M72 35h1M34 36h2M42 36h1M61 36h2M65 36h4M72 36h1M63 37h3M71 37h1M71 38h1M72 39h1M26 40h2M73 40h1M21 41h5M28 41h1M51 41h2M73 41h1M21 42h1M29 42h1M48 42h2M54 42h1M64 42h5M73 42h1M21 43h1M23 43h1M30 43h1M45 43h2M52 43h1M62 43h1M68 43h1M70 43h1M73 43h1M21 44h3M31 44h1M44 44h1M51 44h1M55 44h1M61 44h1M65 44h1M67 44h1M71 44h1M73 44h1M21 45h4M29 45h3M42 45h1M50 45h1M60 45h1M66 45h2M71 45h2M20 46h1M22 46h11M40 46h1M50 46h3M56 46h1M59 46h1M65 46h6M19 47h1M22 47h12M39 47h3M51 47h4M57 47h2M64 47h4M18 48h1M21 48h14M37 48h6M53 48h2M64 48h2M67 48h1M18 49h8M27 49h17M61 49h1M67 49h1M19 50h7M28 50h17M55 50h4M62 50h1M67 50h1M20 51h5M29 51h17M51 51h9M63 51h1M66 51h2M20 52h5M28 52h33M63 52h1M67 52h1M19 53h6M26 53h37M68 53h1M18 54h1M20 54h46M69 54h1M17 55h1M19 55h48M69 55h1M17 56h52M18 57h38M58 57h11M20 58h36M59 58h7M67 58h1M69 58h1M21 59h25M48 59h8M57 59h9M68 59h1M70 59h1M20 60h1M22 60h6M29 60h15M49 60h18M68 60h1M71 60h1M19 61h1M22 61h6M31 61h16M50 61h17M69 61h1M72 61h1M19 62h1M21 62h7M30 62h38M70 62h1M72 62h1M20 63h8M29 63h39M70 63h1M72 63h1M21 64h48M71 64h1M22 65h1M24 65h35M63 65h6M71 65h1M22 66h1M25 66h35M63 66h6M70 66h1M22 67h1M25 67h28M54 67h7M63 67h6M70 67h1M22 68h1M26 68h27M56 68h14M22 69h1M27 69h26M57 69h12M22 70h1M27 70h1M30 70h12M45 70h8M59 70h9M23 71h1M28 71h1M32 71h11M48 71h5M60 71h8M23 72h1M30 72h14M47 72h7M62 72h3M67 72h1M24 73h6M33 73h4M39 73h6M46 73h8M66 73h1M34 74h2M38 74h16M66 74h1M35 75h3M40 75h16M65 75h1M42 76h6M50 76h4M56 76h2M65 76h1M44 77h3M49 77h1M53 77h3M58 77h2M64 77h1M46 78h3M60 78h2M64 78h1M62 79h2" />
<path stroke="#2b74a8" d="M22 17h1M23 18h1M62 18h2M24 19h1M28 19h1M61 19h1M63 19h1M25 20h1M60 20h1M63 20h1M26 21h1M29 21h1M59 21h1M63 21h1M27 22h1M29 22h1M58 22h1M28 23h1M63 25h1M61 26h1M60 27h1M68 30h1M66 31h2M65 32h3M64 33h1M66 33h1M38 34h1M63 34h1M66 34h1M37 35h2M62 35h1M65 35h1M36 36h1M39 36h1M64 36h1M35 37h1M39 37h1M35 38h1M38 39h1M37 40h1M36 41h1" />
<path stroke="#bbeeff" d="M23 17h1M24 18h2M25 19h3M26 20h3M61 20h1M61 21h2M60 22h3M65 22h1M60 23h1M64 23h1M62 24h2M37 37h1M36 38h2M36 39h1" />
<path stroke="#7dbbee" d="M26 18h1M27 21h2M60 21h1M67 21h1M28 22h1M59 22h1M66 22h1M63 23h1M65 23h1M61 24h1M64 24h1M60 25h3M60 26h1M65 33h1M64 34h2M63 35h2M37 36h2M63 36h1M36 37h1M38 37h1M38 38h1M37 39h1M36 40h1" />
<path stroke="#fefefe" d="M62 19h1M62 20h1M69 59h1M71 61h1" />
<path stroke="#7b7b94" d="M40 21h5M52 21h3M37 22h3M45 22h1M51 22h1M55 22h3M35 23h1M43 23h2M50 23h1M58 23h2M41 24h2M32 25h1M40 25h2M31 26h1M40 26h1M47 26h1M30 27h1M44 27h1M36 32h2M34 33h3M33 34h3M58 34h1M71 34h1M32 35h3M31 36h3M31 37h2M43 37h1M62 37h1M66 37h1M26 38h1M31 38h2M42 38h1M25 39h2M32 39h2M41 39h1M51 39h2M25 40h1M33 40h1M40 40h1M49 40h6M33 41h1M39 41h1M46 41h5M53 41h4M34 42h1M44 42h4M55 42h2M63 42h1M34 43h3M42 43h3M55 43h3M40 44h4M56 44h2M69 44h1M39 45h3M56 45h2M69 45h1M33 46h1M37 46h3M57 46h1M34 47h5M35 48h2M70 60h1M24 68h1M53 68h1M24 69h1M54 70h1M55 72h1M56 73h1M63 74h1M63 75h1M61 76h1" />
<path stroke="#e6e6f6" d="M40 22h4M52 22h3M38 23h4M53 23h5M55 24h3M56 25h1M70 35h1M70 36h2M70 37h1M70 38h1M70 39h2M71 40h2M66 72h1M65 74h1" />
<path stroke="#acaccd" d="M44 22h1M42 23h1M40 24h1M53 24h1M52 25h1M56 33h1M56 34h2M56 35h4M71 35h1M57 36h4M69 36h1M58 37h4M67 37h3M25 38h1M58 38h11M27 39h1M50 39h1M53 39h1M59 39h10M28 40h1M48 40h1M55 40h1M60 40h9M29 41h1M45 41h1M61 41h11M30 42h1M43 42h1M57 42h1M62 42h1M70 42h3M31 43h1M41 43h1M69 43h1M71 43h2M32 44h1M68 44h1M72 44h1M33 45h1M38 45h1M34 46h1M68 58h1M69 60h1M71 63h1M23 65h1M23 66h1M23 67h1M53 67h1M23 68h1M25 68h1M54 68h2M23 69h1M25 69h2M54 69h3M23 70h4M53 70h1M55 70h4M24 71h4M53 71h1M55 71h5M24 72h6M54 72h1M56 72h6M54 73h2M57 73h7M54 74h9M56 75h6M58 76h3M60 77h2M62 78h1" />
<path stroke="#c5cde6" d="M36 23h2M51 23h2M34 24h6M50 24h3M54 24h1M58 24h1M33 25h7M49 25h3M53 25h3M57 25h1M32 26h7M48 26h9M31 27h9M45 27h12M30 28h26M30 29h26M29 30h27M29 31h7M41 31h15M28 32h7M42 32h14M27 33h7M43 33h13M26 34h7M43 34h13M26 35h6M44 35h12M25 36h6M44 36h13M25 37h6M44 37h14M27 38h4M43 38h15M69 38h1M28 39h4M42 39h8M54 39h5M69 39h1M29 40h3M41 40h7M56 40h4M69 40h2M30 41h2M40 41h5M57 41h4M72 41h1M31 42h2M38 42h5M58 42h4M32 43h2M37 43h4M58 43h4M33 44h7M58 44h3M70 44h1M34 45h4M58 45h2M68 45h1M70 45h1M35 46h2M58 46h1M71 62h1M65 72h1M64 73h2M64 74h1M62 75h1M64 75h1M63 76h2M62 77h2M63 78h1" />
</svg>