<svg xmlns="http://www.w3.org/2000/svg" viewBox="0 -0.5 96 96" shape-rendering="crispEdges">
<metadata>Made with Pixels to Svg https://codepen.io/shshaw/pen/XbxvNj</metadata>
<path stroke="#101010" d="M53 23h2M52 24h1M55 24h1M52 25h1M56 25h1M52 26h1M56 26h1M52 27h1M57 27h1M52 28h1M57 28h1M52 29h1M57 29h1M34 30h3M52 30h1M32 31h1M37 31h3M32 32h1M40 32h2M33 33h1M34 34h1M35 35h2M37 36h2M39 37h3M42 38h2M27 45h1M62 45h1M28 46h1M62 46h1M29 47h1M61 47h1M30 48h2M61 48h1M32 49h2M60 49h1M34 50h2M59 50h1M36 51h2M59 51h1M41 54h1M42 55h1M60 55h1M36 56h1M60 56h1M38 57h2M44 57h1M60 57h1M40 58h1M43 58h2M60 58h1M39 59h1M42 59h2M38 60h1M41 60h1M59 60h1M38 61h1M42 61h1M59 61h1M39 62h2M59 62h1M41 63h2M59 63h1M59 64h1M37 65h1M58 65h1M38 66h1M57 66h1M45 67h6M44 68h1M51 68h1M40 69h4M52 69h7" />
<path stroke="#52525a" d="M53 24h2M53 25h3M53 26h3M53 27h4M53 28h4M55 29h2M34 31h3M33 32h7M34 33h6M35 34h4M37 35h1M31 38h3M30 39h6M30 40h6M31 41h5M29 42h8M28 43h9M28 44h10M28 45h9M29 46h5" />
<path stroke="#f7e652" d="M53 29h2M53 30h4M53 31h4M54 32h4M40 33h2M54 33h4M39 34h4M54 34h4M38 35h7M55 35h3M40 36h6M49 36h6M56 36h2M43 37h2M47 37h1M51 37h7M45 38h2M52 38h7M44 39h4M51 39h8M43 40h17M37 41h1M43 41h17M38 42h1M42 42h18M38 43h2M42 43h18M38 44h3M42 44h17M38 45h3M43 45h15M37 46h3M45 46h10M34 47h4M47 47h1M49 47h1M51 47h1M32 48h4M48 48h1M50 48h1M59 55h1M58 56h2M58 57h2M57 58h1M57 59h1M57 60h2M58 61h1M58 62h1M56 68h1M58 68h1" />
<path stroke="#292929" d="M57 30h1M33 31h1M31 37h3M30 38h1M34 38h2M29 39h1M29 40h1M29 41h2M28 42h1M27 43h1M27 44h1" />
<path stroke="#633108" d="M52 31h1M58 31h1M52 32h1M58 32h1M53 33h1M58 33h1M53 34h1M58 34h1M54 35h1M58 35h1M58 36h1M58 37h1M59 38h1M59 39h1M60 40h1M60 41h1M61 42h1M61 43h1M62 44h1M44 48h1M44 49h1M43 50h1M42 51h1M41 52h1M59 52h1M37 53h1M40 53h1M59 53h1M37 54h1M59 54h1M36 55h1M37 56h1M43 56h1M57 56h1M37 57h1M57 57h1M37 58h1M36 59h1M59 59h1M36 60h1M36 61h1M36 62h1M36 63h1M37 64h1M39 66h1M39 67h1M51 67h1M57 67h2M39 68h1M59 68h1" />
<path stroke="#f7bd21" d="M57 31h1M39 36h1M42 37h1M45 37h2M36 40h1M37 42h1M60 42h1M60 43h1M59 44h2M41 45h1M58 45h3M36 46h1M40 46h2M43 46h2M55 46h5M33 47h1M38 47h5M44 47h3M48 47h1M50 47h1M52 47h8M36 48h8M45 48h3M49 48h1M51 48h10M34 49h10M45 49h15M36 50h7M44 50h15M38 51h4M43 51h16M39 52h2M48 52h11M39 53h1M51 53h8M38 54h2M52 54h5M58 54h1M37 55h4M43 55h6M54 55h3M58 55h1M39 56h1M44 56h13M48 57h9M38 58h2M51 58h6M59 58h1M37 59h2M52 59h5M37 60h1M42 60h6M54 60h3M37 61h1M43 61h15M37 62h2M44 62h14M37 63h4M44 63h15M38 64h21M38 65h20M40 66h4M50 66h6" />
<path stroke="#de9400" d="M53 32h1M43 34h1M45 35h1M55 36h1M36 39h1M37 40h1M38 41h1M39 42h1M40 43h1M47 52h1M50 53h1M40 54h1M42 54h5M41 55h1M49 55h1M53 55h1M38 56h1M40 56h3M40 57h4M47 57h1M41 58h2M50 58h1M44 59h1M48 60h2M53 60h1M43 63h1M44 66h6M56 66h1M44 67h1M53 67h3M40 68h4M52 68h4M57 68h1" />
<path stroke="#9c5200" d="M42 33h2M44 34h1M49 35h5M46 36h3M44 38h1M43 39h1M42 40h1M36 41h1M42 41h1M41 42h1M37 43h1M41 43h1M41 44h1M37 45h1M42 45h1M34 46h2M42 46h1M30 47h3M43 47h1M38 52h1M42 52h5M38 53h1M41 53h9M47 54h5M57 54h1M50 55h3M57 55h1M45 57h2M45 58h5M58 58h1M40 59h2M45 59h7M58 59h1M39 60h2M50 60h3M39 61h3M41 62h3M40 67h4M52 67h1M56 67h1" />
<path stroke="#fff7a5" d="M48 37h3M47 38h5M48 39h3" />
<path stroke="#e65a42" d="M61 44h1M60 46h1M60 47h1" />
<path stroke="#c52119" d="M61 45h1M61 46h1" />
</svg>