<svg xmlns="http://www.w3.org/2000/svg" viewBox="0 -0.5 96 96" shape-rendering="crispEdges">
<metadata>Made with Pixels to Svg https://codepen.io/shshaw/pen/XbxvNj</metadata>
<path stroke="#5a5252" d="M43 25h10M40 26h3M53 26h3M38 27h2M56 27h2M36 28h2M58 28h2M35 29h1M60 29h1M34 30h1M61 30h1M33 31h1M62 31h1M32 32h1M63 32h1M31 33h1M64 33h1M30 34h1M65 34h1M30 35h1M65 35h1M29 36h1M61 36h2M66 36h1M29 37h1M60 37h1M63 37h1M66 37h1M28 38h1M60 38h1M64 38h1M67 38h1M28 39h1M59 39h1M65 39h1M67 39h1M59 40h1M66 40h1M68 40h1M59 41h1M68 41h1M68 42h1M69 43h1M69 44h1M69 45h1M69 46h1M69 47h1M69 48h1M69 50h1M69 51h1M69 52h1M68 53h1M68 54h1M68 55h1M65 56h1M67 56h1M65 57h1M67 57h1M66 58h1M66 59h1M65 60h1" />
<path stroke="#eeeeee" d="M43 26h10M40 27h16M38 28h20M36 29h11M52 29h8M35 30h13M55 30h6M34 31h14M57 31h5M33 32h3M38 32h10M59 32h4M32 33h3M38 33h10M60 33h4M31 34h3M39 34h8M61 34h4M31 35h2M41 35h4M62 35h3M30 36h2M64 36h2M30 37h1M65 37h1M29 38h2M66 38h1M29 39h1M28 40h2M67 40h1M28 41h1M28 42h1M27 43h2M67 43h1M27 44h1M67 44h2M27 45h1M67 45h2M67 46h1" />
<path stroke="#cdcdde" d="M47 29h5M48 30h7M48 31h9M36 32h2M48 32h11M35 33h3M48 33h12M34 34h5M47 34h14M33 35h8M45 35h17M32 36h29M63 36h1M31 37h29M61 37h2M64 37h1M31 38h29M61 38h3M65 38h1M30 39h29M60 39h5M66 39h1M30 40h29M60 40h6M29 41h30M60 41h8M29 42h37M67 42h1M29 43h37M68 43h1M28 44h38M28 45h38M28 46h39M29 47h38M30 48h36M31 49h33M32 50h30M34 51h26M68 51h1M37 52h20M67 52h1M40 53h11M66 53h2M64 54h3M62 55h3M66 55h1M62 56h3M64 57h1M66 57h1" />
<path stroke="#101010" d="M27 40h1M27 41h1M27 42h1M66 42h1M26 43h1M66 43h1M26 44h1M66 44h1M26 45h1M26 46h1M26 47h1M26 48h1M26 49h1M26 50h1M26 51h1M26 52h1M27 53h1M27 54h1M27 55h1M28 56h1M60 56h1M28 57h1M61 57h2M29 58h1M63 58h3M29 59h1M30 60h1M30 61h1M65 61h1M31 62h1M64 62h1M32 63h1M63 63h1M33 64h1M62 64h1M34 65h1M61 65h1M35 66h1M60 66h1M36 67h2M58 67h2M38 68h2M56 68h2M40 69h3M53 69h3M43 70h10" />
<path stroke="#a49c9c" d="M66 45h1M65 55h1M61 56h1M63 57h1" />
<path stroke="#f6a48b" d="M27 46h1M68 46h1" />
<path stroke="#e63931" d="M27 47h1M68 49h1" />
<path stroke="#d58394" d="M28 47h1M67 47h1M29 48h1M66 48h1M30 49h1M64 49h1M31 50h1M62 50h1M33 51h1M60 51h1M36 52h1M57 52h1M39 53h1M51 53h1" />
<path stroke="#ff5220" d="M68 47h1M68 48h1" />
<path stroke="#c52941" d="M27 48h2M67 48h1M27 49h3M65 49h3M27 50h4M63 50h5M27 51h6M61 51h6M27 52h9M58 52h8M28 53h11M52 53h12M28 54h34M28 55h31M29 56h31M29 57h32M30 58h33M30 59h36M31 60h34M31 61h34M32 62h32M33 63h30M34 64h28M35 65h26M36 66h24M38 67h20M40 68h16M43 69h10" />
<path stroke="#831010" d="M69 49h1M68 50h1M67 51h1M66 52h1M64 53h2M62 54h2M59 55h3" />
<path stroke="#ffffff" d="M68 52h1M67 54h1M67 55h1M66 56h1" />
</svg>