<svg xmlns="http://www.w3.org/2000/svg" viewBox="0 -0.5 96 96" shape-rendering="crispEdges">
<metadata>Made with Pixels to Svg https://codepen.io/shshaw/pen/XbxvNj</metadata>
<path stroke="#416adf" d="M61 1h3M60 2h1M64 2h1M60 3h1M64 3h1M58 4h2M58 5h2M58 6h1M65 6h1M73 6h2M58 7h2M72 7h1M58 8h2M57 9h3M78 9h2M57 10h3M77 10h1M57 11h3M70 11h1M76 11h1M57 12h3M70 12h1M57 13h3M69 13h3M58 14h2M69 14h3M59 15h1M69 15h3M76 15h1M69 16h3M75 16h2M70 17h2M75 17h2M70 18h3M75 18h3M70 19h3M75 19h3M71 20h1M76 20h2M77 21h1M74 22h1M82 23h2M76 24h1M84 24h1M85 25h1M79 26h1M86 26h1M81 27h1M81 30h1M82 32h1M84 34h1M85 35h1M89 35h2M85 36h6M84 37h7M86 38h5M87 39h4M87 40h1M89 40h1M87 41h1M89 41h1M87 42h2M87 43h2M86 44h3M85 45h4M86 46h3M86 47h3M86 48h2M86 49h2M85 50h3M84 51h3M85 52h2M85 53h1M80 55h2M80 56h3M79 57h3M79 58h2M84 58h1M79 59h2M79 60h2M79 61h2M80 62h1M80 63h1M80 64h2M80 65h2M81 66h2M81 67h2M43 68h3M81 68h2M39 69h10M82 69h2M38 70h13M82 70h2M38 71h4M43 71h6M50 71h1M83 71h1M37 72h5M43 72h5M50 72h1M83 72h1M37 73h4M44 73h4M83 73h1M86 73h1M37 74h4M44 74h3M83 74h1M36 75h4M45 75h2M83 75h1M87 75h1M34 76h5M45 76h2M83 76h1M87 76h1M36 77h2M44 77h4M83 77h1M87 77h1M37 78h1M44 78h1M47 78h2M82 78h1M88 78h1M37 79h1M43 79h1M81 79h1M88 79h1M80 80h1M89 80h1M93 80h1M89 81h1M93 81h1M92 82h1M89 84h1" />
<path stroke="#134884" d="M58 2h2M65 4h1M65 5h1M66 7h1M68 7h1M71 7h1M74 7h1M57 8h1M66 8h1M69 8h2M73 8h1M66 9h1M72 9h1M66 10h1M70 10h1M72 10h3M79 10h1M67 11h1M72 11h1M75 11h1M78 11h1M67 12h1M73 12h1M77 12h1M67 13h1M73 13h1M75 13h1M77 13h1M67 14h1M73 14h1M78 14h1M56 15h2M61 15h2M64 15h3M68 15h1M73 15h1M75 15h1M78 15h1M56 16h3M60 16h1M63 16h1M66 16h1M68 16h1M74 16h1M78 16h1M56 17h3M69 17h1M79 17h1M56 18h3M69 18h1M79 18h1M55 19h4M69 19h1M74 19h1M79 19h1M55 20h4M70 20h1M72 20h4M79 20h1M55 21h4M70 21h1M78 21h2M55 22h4M69 22h5M80 22h2M55 23h4M67 23h2M75 23h1M51 24h4M57 24h2M49 25h8M58 25h3M76 25h1M47 26h11M75 26h4M46 27h10M80 27h1M30 28h3M44 28h10M81 28h1M32 29h5M43 29h3M49 29h4M81 29h1M84 29h1M32 30h8M42 30h1M47 30h1M51 30h1M85 30h1M34 31h7M48 31h2M80 31h1M37 32h4M50 32h2M79 32h3M86 32h1M51 33h2M83 33h1M86 33h1M52 34h2M89 34h2M52 35h3M57 35h1M83 35h2M86 35h3M91 35h1M53 36h2M56 36h2M81 36h4M91 36h1M54 37h2M57 37h3M79 37h5M91 37h1M55 38h1M57 38h2M77 38h8M91 38h1M55 39h1M57 39h2M74 39h2M81 39h5M91 39h1M56 40h3M71 40h3M81 40h6M88 40h1M90 40h1M54 41h8M67 41h6M81 41h3M85 41h2M88 41h1M90 41h1M56 42h7M64 42h9M81 42h6M89 42h1M64 43h5M80 43h6M89 43h1M64 44h6M79 44h6M63 45h7M77 45h8M65 46h6M73 46h13M66 47h5M72 47h14M66 48h5M72 48h4M81 48h2M84 48h2M88 48h1M66 49h8M81 49h4M66 50h7M81 50h3M65 51h8M81 51h3M65 52h4M80 52h5M64 53h6M79 53h2M82 53h3M65 54h5M77 54h3M82 54h2M65 55h6M73 55h6M65 56h6M72 56h7M83 56h1M65 57h6M72 57h6M84 57h1M64 58h14M85 58h1M64 59h14M85 59h1M64 60h14M86 60h1M65 61h12M86 61h1M65 62h11M79 62h1M87 62h1M65 63h9M87 63h1M64 64h8M88 64h1M63 65h7M88 65h1M63 66h4M89 66h1M62 67h2M89 67h1M90 68h1M90 69h1M91 70h1M49 71h1M82 71h1M91 71h1M48 72h1M91 72h1M41 73h1M92 73h1M47 74h1M86 74h1M92 74h1M40 75h1M86 75h1M90 75h1M92 75h1M39 76h1M47 76h1M90 76h1M92 76h1M38 77h1M48 77h1M82 77h1M85 77h1M90 77h1M92 77h1M49 78h1M85 78h1M87 78h1M91 78h1M93 78h1M85 79h1M91 79h1M93 79h1M82 80h1M85 80h1M88 80h1M83 81h1M85 81h1M94 81h1M85 82h1M91 82h1M95 82h1M92 83h1M90 85h1" />
<path stroke="#a6c5f7" d="M61 2h3M61 3h1M73 7h1M72 8h1M71 9h1M78 10h1M77 11h1M76 12h1M82 24h2M82 25h3M83 26h3M86 27h1M81 61h1M81 62h1M81 63h1M82 64h1M82 65h1M83 67h1M83 68h1M84 70h1M84 71h1M84 72h1" />
<path stroke="#010101" d="M57 3h1M57 4h1M57 5h1M57 6h1M57 7h1M67 7h1M67 8h1M56 9h1M68 9h1M56 10h1M69 10h1M56 11h1M69 11h1M56 12h1M69 12h1M74 12h1M56 13h1M68 13h1M56 14h1M68 14h1M75 14h1M55 15h1M55 16h1M55 17h1M74 17h1M55 18h1M74 18h1M54 19h1M54 20h1M54 21h1M53 22h2M51 23h2M49 24h2M47 25h2M46 26h1M44 27h2M25 28h1M43 28h1M26 29h1M42 29h1M27 30h1M46 30h1M28 31h1M46 31h1M29 32h1M46 32h1M30 33h2M46 33h1M32 34h1M47 34h1M33 35h2M47 35h1M35 36h2M47 36h1M35 37h1M48 37h1M34 38h2M48 38h1M34 39h1M49 39h1M33 40h1M50 40h1M33 41h1M35 44h4M89 44h1M34 45h1M39 45h1M89 45h1M40 46h1M89 46h1M40 47h1M89 47h1M40 48h1M39 49h4M88 49h1M26 50h1M38 50h2M43 50h1M88 50h1M26 51h1M44 51h1M87 51h1M26 52h1M44 52h1M87 52h1M26 53h1M44 53h1M86 53h1M25 54h4M43 54h1M80 54h2M85 54h1M7 55h1M42 55h2M79 55h1M82 55h1M84 55h1M7 56h1M44 56h1M79 56h1M8 57h1M45 57h1M78 57h1M9 58h1M45 58h1M78 58h1M10 59h2M45 59h1M78 59h1M12 60h1M19 60h2M45 60h1M78 60h1M13 61h2M21 61h2M44 61h1M77 61h2M23 62h1M42 62h2M76 62h1M43 63h2M74 63h2M79 63h1M9 64h1M33 64h1M45 64h1M72 64h2M79 64h1M9 65h1M19 65h2M33 65h1M45 65h1M70 65h2M79 65h1M8 66h1M17 66h2M22 66h1M25 66h1M32 66h3M45 66h1M67 66h3M80 66h1M8 67h1M16 67h1M22 67h1M25 67h1M30 67h2M35 67h3M43 67h2M52 67h1M64 67h3M80 67h1M8 68h1M15 68h1M21 68h1M25 68h5M36 68h1M38 68h5M46 68h2M60 68h4M80 68h1M7 69h1M14 69h1M18 69h3M25 69h1M35 69h1M38 69h1M49 69h3M58 69h2M81 69h1M7 70h1M14 70h4M25 70h1M34 70h1M37 70h1M51 70h1M81 70h1M4 71h5M24 71h1M32 71h2M37 71h1M42 71h1M51 71h1M2 72h2M24 72h1M30 72h2M36 72h1M42 72h1M49 72h1M51 72h1M82 72h1M1 73h1M21 73h1M23 73h1M27 73h3M36 73h1M43 73h1M48 73h1M50 73h1M82 73h1M0 74h1M21 74h2M36 74h1M41 74h1M43 74h1M50 74h1M56 74h1M82 74h1M0 75h1M11 75h1M18 75h1M21 75h1M33 75h3M44 75h1M47 75h1M50 75h1M82 75h1M0 76h1M11 76h8M21 76h1M33 76h1M44 76h1M50 76h1M55 76h1M82 76h1M86 76h1M0 77h1M10 77h1M17 77h1M21 77h1M34 77h2M43 77h1M50 77h1M86 77h1M0 78h1M10 78h1M17 78h1M20 78h1M36 78h1M38 78h1M43 78h1M45 78h2M50 78h1M54 78h1M81 78h1M1 79h1M9 79h1M16 79h1M20 79h1M36 79h1M38 79h1M42 79h1M44 79h1M47 79h4M53 79h1M80 79h1M87 79h1M2 80h2M7 80h2M16 80h1M20 80h1M37 80h2M42 80h2M50 80h1M52 80h1M79 80h1M91 80h1M4 81h3M16 81h1M19 81h1M50 81h2M79 81h4M88 81h1M91 81h1M16 82h1M18 82h1M83 82h1M89 82h1M16 83h1M18 83h1M84 83h2M89 83h1M93 83h3M16 84h2M88 84h1M93 84h1M88 85h1M91 85h3M88 86h2" />
<path stroke="#749cf6" d="M58 3h2M62 3h2M60 4h3M64 4h1M61 5h1M62 6h1M64 6h1M61 7h5M60 8h6M68 8h1M71 8h1M60 9h6M69 9h2M60 10h6M71 10h1M60 11h7M71 11h1M73 11h2M60 12h7M71 12h2M75 12h1M60 13h7M72 13h1M76 13h1M60 14h7M72 14h1M76 14h2M60 15h1M63 15h1M72 15h1M77 15h1M72 16h2M77 16h1M72 17h2M77 17h2M73 18h1M78 18h1M73 19h1M78 19h1M78 20h1M71 21h6M75 22h5M76 23h6M77 24h5M77 25h5M80 26h3M82 27h4M82 28h2M82 29h2M82 30h3M81 31h5M83 32h3M84 33h2M85 34h1M82 57h2M81 58h3M81 59h4M81 60h5M82 61h4M82 62h5M82 63h5M83 64h5M83 65h5M83 66h6M84 67h5M84 68h6M84 69h6M85 70h6M85 71h6M85 72h4M90 72h1M84 73h1M87 73h1M90 73h1M87 74h2M90 74h1M84 75h1M88 75h2M91 75h1M84 76h2M88 76h2M91 76h1M84 77h1M88 77h2M91 77h1M83 78h2M89 78h2M92 78h1M82 79h3M89 79h2M92 79h1M81 80h1M83 80h2M90 80h1M92 80h1M84 81h1M90 81h1M92 81h1M84 82h1M90 82h1M93 82h2M90 83h2M90 84h3M89 85h1" />
<path stroke="#9cd3fd" d="M63 4h1M60 5h1M62 5h1M64 5h1M59 6h1M61 6h1M63 6h1M60 7h1M89 72h1M85 73h1M88 73h1M84 74h1M89 74h1M91 74h1M85 75h1" />
<path stroke="#72f0f6" d="M63 5h1M60 6h1M73 24h1M78 29h1M44 32h1M82 35h1M84 41h1M60 43h1M83 48h1M12 49h1M62 49h1M12 51h1M81 53h1M61 56h1M19 62h1M60 62h1M22 63h1M24 65h1M58 66h1M24 68h1M89 73h1M91 73h1M85 74h1M8 84h1M22 84h1M23 85h1M10 86h1" />
<path stroke="#123954" d="M57 14h1M58 15h1M59 16h1M59 17h1M53 23h2M55 24h2M57 25h1M26 28h4M33 28h1M27 29h5M37 29h1M28 30h4M43 30h1M48 30h1M29 31h5M43 31h3M47 31h1M50 31h1M31 32h6M41 32h3M45 32h1M47 32h3M32 33h14M47 33h4M34 34h13M48 34h4M35 35h12M48 35h4M56 35h1M37 36h2M40 36h7M48 36h5M58 36h1M36 37h1M39 37h9M49 37h5M36 38h12M49 38h6M59 38h1M35 39h14M50 39h5M59 39h1M76 39h1M80 39h1M34 40h16M51 40h4M59 40h3M74 40h1M34 41h17M52 41h2M62 41h1M73 41h1M35 42h21M63 42h1M80 42h1M32 43h3M36 43h24M61 43h2M79 43h1M7 44h1M30 44h1M32 44h3M39 44h25M70 44h1M78 44h1M4 45h2M7 45h2M29 45h5M40 45h22M70 45h1M75 45h2M5 46h6M29 46h4M41 46h20M64 46h1M72 46h1M5 47h8M28 47h4M41 47h23M65 47h1M4 48h10M28 48h3M41 48h24M76 48h1M80 48h1M7 49h5M13 49h2M28 49h3M43 49h19M63 49h2M74 49h1M8 50h7M28 50h2M44 50h22M73 50h1M9 51h3M13 51h1M45 51h19M80 51h1M11 52h3M45 52h17M64 52h1M79 52h1M45 53h18M70 53h1M78 53h1M44 54h21M70 54h1M75 54h2M8 55h1M25 55h5M44 55h20M72 55h1M9 56h2M23 56h6M45 56h16M62 56h2M10 57h4M22 57h5M46 57h19M11 58h6M22 58h4M46 58h17M12 59h7M21 59h4M46 59h15M63 59h1M14 60h4M46 60h17M16 61h5M45 61h20M13 62h6M44 62h16M61 62h3M11 63h7M45 63h19M10 64h6M46 64h15M63 64h1M11 65h3M21 65h1M46 65h16M19 66h2M46 66h7M54 66h4M59 66h4M17 67h2M46 67h6M53 67h8M16 68h2M49 68h3M53 68h4M58 68h2M15 69h2M52 69h5M52 70h5M52 71h5M52 72h4M51 73h5M51 74h5M51 75h4M51 76h4M51 77h3M51 78h3M51 79h2M51 80h1" />
<path stroke="#1766c6" d="M67 15h1M61 16h2M64 16h2M67 16h1M60 17h9M59 18h10M59 19h10M59 20h11M59 21h11M59 22h10M59 23h8M69 23h6M59 24h14M74 24h2M61 25h15M58 26h17M56 27h24M54 28h27M53 29h25M79 29h2M52 30h29M52 31h28M53 32h26M54 33h29M55 34h29M58 35h24M59 36h22M60 37h19M60 38h17M85 38h1M60 39h14M86 39h1M62 40h9M63 41h4M86 43h1M85 44h1M85 49h1M84 50h1M84 54h1M83 55h1" />
<path stroke="#0a1627" d="M25 27h8M34 28h3M38 29h2M46 29h3M40 30h2M44 30h2M49 30h2M41 31h2M51 31h1M30 32h1M52 32h1M53 33h1M33 34h1M54 34h1M55 35h1M39 36h1M55 36h1M37 37h2M56 37h1M56 38h1M56 39h1M77 39h3M55 40h1M75 40h6M51 41h1M74 41h7M32 42h3M73 42h7M30 43h2M35 43h1M63 43h1M69 43h10M29 44h1M31 44h1M71 44h7M6 45h1M28 45h1M35 45h4M62 45h1M71 45h4M28 46h1M33 46h7M61 46h3M71 46h1M27 47h1M32 47h8M64 47h1M71 47h1M27 48h1M31 48h9M65 48h1M71 48h1M77 48h3M27 49h1M31 49h8M65 49h1M75 49h6M27 50h1M30 50h8M40 50h3M74 50h7M27 51h17M64 51h1M73 51h7M27 52h17M62 52h2M69 52h10M27 53h17M63 53h1M71 53h7M7 54h2M29 54h14M71 54h4M9 55h2M23 55h2M30 55h12M64 55h1M71 55h1M8 56h1M11 56h3M22 56h1M29 56h15M64 56h1M71 56h1M9 57h1M14 57h3M21 57h1M27 57h18M71 57h1M10 58h1M17 58h2M21 58h1M26 58h19M63 58h1M19 59h2M25 59h20M61 59h2M13 60h1M18 60h1M21 60h24M63 60h1M15 61h1M23 61h21M11 62h2M20 62h3M24 62h18M64 62h1M10 63h1M18 63h4M23 63h20M64 63h1M16 64h17M34 64h11M61 64h2M10 65h1M14 65h5M22 65h2M25 65h8M34 65h11M62 65h1M9 66h8M21 66h1M23 66h2M26 66h6M35 66h10M53 66h1M9 67h7M19 67h3M23 67h2M26 67h4M32 67h3M38 67h5M45 67h1M61 67h1M9 68h6M18 68h3M22 68h2M30 68h6M48 68h1M52 68h1M57 68h1M8 69h6M17 69h1M21 69h4M29 69h6M57 69h1M8 70h6M18 70h7M28 70h6M57 70h1M9 71h15M28 71h4M57 71h1M4 72h20M27 72h3M56 72h1M2 73h19M22 73h1M56 73h1M1 74h20M1 75h10M12 75h6M19 75h2M55 75h1M1 76h10M19 76h2M1 77h9M18 77h3M54 77h1M1 78h9M18 78h2M2 79h7M17 79h3M4 80h3M17 80h3M17 81h2M17 82h1M22 82h2M7 83h3M17 83h1M21 83h5M6 84h2M9 84h3M21 84h1M23 84h3M5 85h7M20 85h3M24 85h2M4 86h6M11 86h1M20 86h6M4 87h7M20 87h6M3 88h8M20 88h5M3 89h7M20 89h5M1 90h8M19 90h5M2 91h6M18 91h5M2 92h4M19 92h4M1 93h5M19 93h2M22 93h1M1 94h1M5 94h1M19 94h1" />
<path stroke="#79848a" d="M87 27h3M84 28h3M90 28h1M91 29h1M91 30h1M86 31h1M92 31h1M88 32h1M92 32h1M87 33h1M90 33h1M92 33h1M86 34h1M91 34h1" />
<path stroke="#fbfbfb" d="M87 28h2M85 29h2M89 29h1M87 30h4M87 31h5M87 32h1M91 32h1M88 33h1M87 34h1" />
<path stroke="#cfd1d3" d="M89 28h1M87 29h2M90 29h1M86 30h1M89 32h2M89 33h1M91 33h1M88 34h1" />
</svg>