<svg xmlns="http://www.w3.org/2000/svg" viewBox="0 -0.5 96 96" shape-rendering="crispEdges">
<metadata>Made with Pixels to Svg https://codepen.io/shshaw/pen/XbxvNj</metadata>
<path stroke="#64c2d7" d="M67 20h2M67 21h1M67 22h1M70 22h1M68 23h1M70 23h1M69 24h1M71 25h1M72 26h1M34 27h2M33 28h1M35 28h1M33 29h1M35 29h1M39 29h2M32 30h1M35 30h1M37 30h2M40 30h1M50 30h1M36 31h1M39 31h1M50 31h1M33 32h3M37 32h1M39 32h1M51 32h1M51 33h1M60 35h1M60 36h1M59 37h3M59 38h2M60 39h1M19 42h1M18 43h1M20 43h1M19 44h1M21 44h3M19 45h1M21 45h4M20 46h5M72 46h1M74 46h1M20 47h8M72 47h1M74 47h1M19 48h10M72 48h3M19 49h10M73 49h3M18 50h14M36 50h2M74 50h2M18 51h15M34 51h3M74 51h2M18 52h18M62 52h2M74 52h2M18 53h17M38 53h2M63 53h2M72 53h3M19 54h16M36 54h3M63 54h4M71 54h4M19 55h20M63 55h11M20 56h17M64 56h9M19 57h5M25 57h3M29 57h7M64 57h10M19 58h4M25 58h3M30 58h2M33 58h3M65 58h8M76 58h2M19 59h5M25 59h2M28 59h2M32 59h4M65 59h8M74 59h2M20 60h5M27 60h9M66 60h5M21 61h14M67 61h9M22 62h11M68 62h6M20 63h4M25 63h5M68 63h5M24 64h7M67 64h7M23 65h9M67 65h2M70 65h6M22 66h7M30 66h3M67 66h1M72 66h3M21 67h7M23 68h3" />
<path stroke="#8e39c1" d="M60 21h4M59 22h1M64 22h2M57 23h2M66 23h1M55 24h2M54 25h1M69 25h1M53 26h1M53 27h1M73 27h1M52 28h1M70 28h1M52 29h1M70 29h1M69 30h2M71 31h1M74 31h1M30 32h3M72 32h1M75 32h1M29 33h1M72 33h1M76 33h2M28 34h1M73 34h1M77 34h1M25 35h3M52 35h1M73 35h1M75 35h2M23 36h2M52 36h1M73 36h1M22 37h1M51 37h1M62 37h1M73 37h1M21 38h1M32 38h3M46 38h1M51 38h1M73 38h1M21 39h1M30 39h2M35 39h2M47 39h1M51 39h1M73 39h1M21 40h1M47 40h1M52 40h1M60 40h1M72 40h1M21 41h1M48 41h1M52 41h1M72 41h1M22 42h1M48 42h1M53 42h1M72 42h1M39 43h1M48 43h1M53 43h1M71 43h1M39 44h1M48 44h1M54 44h2M70 44h2M38 45h1M48 45h1M56 45h2M37 46h1M49 46h1M58 46h1M42 47h4M49 47h1M59 47h1M41 48h1M60 48h1M40 49h1M48 49h1M60 49h1M46 50h2M61 50h1M61 51h1M39 65h2M42 65h2M59 65h2M63 65h3M38 66h1M41 66h1M44 66h1M53 66h1M58 66h1M61 66h2M37 67h1M44 67h1M49 67h4M58 67h1M62 67h1M69 67h1M37 68h1M44 68h1M48 68h1M52 68h1M57 68h2M62 68h2M69 68h1M38 69h1M44 69h1M47 69h1M57 69h1M61 69h1M69 69h1M38 70h1M45 70h1M47 70h1M56 70h1M60 70h2M67 70h2M37 71h1M44 71h3M56 71h5M66 71h1M36 72h2M42 72h2M45 72h2M55 72h1M62 72h4M38 73h4M47 73h2M53 73h2M49 74h4" />
<path stroke="#80fffc" d="M68 21h1M68 22h1M69 23h1M71 23h1M71 24h1M72 25h1M34 28h1M34 29h1M33 30h2M39 30h1M33 31h3M37 31h2M38 32h1M19 43h1M20 44h1M75 53h1M75 54h1M74 55h2M73 56h2M74 57h1M73 58h1M76 59h1M73 60h4M74 64h1M76 65h1" />
<path stroke="#1577c8" d="M69 21h1M69 22h1M71 22h1M72 23h1M70 24h1M72 24h1M73 25h1M73 26h1M49 29h2M49 30h1M51 30h1M32 31h1M49 31h1M36 32h1M50 32h1M50 33h1M51 34h1M60 34h2M59 35h1M61 35h1M59 36h1M61 36h1M58 37h1M58 38h1M59 39h1M17 42h2M17 43h1M21 43h1M18 44h1M18 45h1M20 45h1M72 45h1M74 45h1M19 46h1M73 46h1M75 46h1M19 47h1M73 47h1M75 47h1M18 48h1M75 48h1M18 49h1M76 49h1M17 50h1M38 50h2M76 50h1M17 51h1M37 51h1M76 51h1M17 52h1M36 52h1M38 52h3M61 52h1M76 52h1M17 53h1M35 53h3M40 53h1M62 53h1M76 53h1M18 54h1M35 54h1M39 54h1M62 54h1M76 54h1M18 55h1M39 55h1M62 55h1M76 55h1M19 56h1M37 56h2M63 56h1M75 56h1M18 57h1M24 57h1M28 57h1M36 57h1M63 57h1M75 57h1M18 58h1M23 58h2M28 58h2M32 58h1M36 58h1M64 58h1M74 58h1M18 59h1M24 59h1M27 59h1M30 59h2M36 59h1M64 59h1M73 59h1M77 59h1M19 60h1M25 60h2M36 60h1M65 60h1M71 60h2M77 60h1M20 61h1M35 61h1M66 61h1M76 61h1M20 62h2M33 62h2M67 62h1M74 62h2M19 63h1M24 63h1M30 63h3M67 63h1M73 63h2M20 64h4M31 64h1M66 64h1M75 64h3M22 65h1M32 65h2M66 65h1M69 65h1M77 65h1M21 66h1M29 66h1M33 66h1M66 66h1M68 66h1M70 66h2M75 66h2M20 67h1M28 67h1M30 67h3M66 67h2M72 67h3M21 68h2M26 68h2M23 69h3" />
<path stroke="#de9fff" d="M60 22h4M59 23h7M57 24h9M56 25h9M56 26h8M65 26h1M57 27h4M62 27h1M64 27h1M72 27h1M61 28h1M63 28h1M72 28h1M73 32h2M38 33h1M74 33h2M38 34h2M76 34h1M36 35h5M38 36h5M40 37h4M42 38h4M43 39h3M44 40h1M46 40h1M43 41h1M45 41h1M47 41h1M68 67h1M54 68h1M67 68h2M53 69h2M55 70h1" />
<path stroke="#c973e6" d="M67 23h1M66 24h3M55 25h1M65 25h4M70 25h1M54 26h2M64 26h1M66 26h6M54 27h3M61 27h1M63 27h1M65 27h7M53 28h8M62 28h1M64 28h6M71 28h1M53 29h17M52 30h17M51 31h20M52 32h20M30 33h8M39 33h1M52 33h20M73 33h1M29 34h9M40 34h1M52 34h8M62 34h11M74 34h2M28 35h8M41 35h2M53 35h6M62 35h11M25 36h13M43 36h1M53 36h6M62 36h11M23 37h17M44 37h2M52 37h6M63 37h10M22 38h10M35 38h7M52 38h6M61 38h12M22 39h8M32 39h3M37 39h6M46 39h1M52 39h7M61 39h12M22 40h22M45 40h1M53 40h7M61 40h11M22 41h21M44 41h1M46 41h1M53 41h19M23 42h25M54 42h18M22 43h17M40 43h8M54 43h17M24 44h15M40 44h8M56 44h14M25 45h13M39 45h9M58 45h14M25 46h12M38 46h11M59 46h13M28 47h14M46 47h3M60 47h12M29 48h12M44 48h6M61 48h11M29 49h11M45 49h3M61 49h12M32 50h4M62 50h12M33 51h1M62 51h12M64 52h10M65 53h7M67 54h4M39 66h2M42 66h2M59 66h2M63 66h3M38 67h6M53 67h2M59 67h3M63 67h3M38 68h6M49 68h3M53 68h1M55 68h1M59 68h3M64 68h3M39 69h5M48 69h5M55 69h1M58 69h3M62 69h7M39 70h6M48 70h7M57 70h3M62 70h5M38 71h6M47 71h9M61 71h5M38 72h4M47 72h8M49 73h4" />
<path stroke="#646357" d="M73 28h3M71 29h2M74 35h1M76 39h1M77 40h1M77 41h1M77 42h1M76 43h1M49 44h4M75 44h1M53 45h3M42 48h1M41 49h1M41 50h1M40 51h1M40 54h1M40 55h1M44 55h1M58 55h1M41 56h1M45 56h1M49 56h1M57 56h1M41 57h1M48 57h2M58 57h1M61 57h1M41 58h1M58 58h1M62 58h1M40 59h1M47 59h1M58 59h1M39 60h1M46 60h1M59 60h1M38 61h1M45 61h1M49 61h1M59 61h1M63 61h1M38 62h1M43 62h2M59 62h1M38 63h1M42 63h1M53 63h1M59 63h1M39 64h1M42 64h1M59 64h1" />
<path stroke="#ffffe3" d="M73 29h2M74 39h2M76 40h1M49 45h3M50 46h8M50 47h9M50 48h5M50 49h3M49 50h4M47 51h4" />
<path stroke="#101010" d="M75 29h1M74 30h1M73 31h1M74 44h1M73 45h1M46 56h1M58 56h3M47 57h1M57 57h1M48 58h1M56 58h1M48 59h1M56 59h1M62 59h1M48 60h1M55 60h1M62 60h1M55 61h1M49 62h1M54 62h1M63 62h1M49 63h1M63 63h1M49 64h1M53 64h1M63 64h1M50 65h1M53 65h1M50 66h1M66 72h4M42 73h4M53 74h4" />
<path stroke="#ded5ae" d="M71 30h2M74 37h1M74 38h1M73 40h3M73 41h4M73 42h4M72 43h4M72 44h2M52 45h1M43 48h1M55 48h5M42 49h2M49 49h1M53 49h7M42 50h3M48 50h1M53 50h8M42 51h5M51 51h10M42 52h19M43 53h19M44 54h6M51 54h8M60 54h2M45 55h5M51 55h7M59 55h3M47 56h2M50 56h7M61 56h2M50 57h7M62 57h1M49 58h7M63 58h1M49 59h7M63 59h1M49 60h6M63 60h2M50 61h5M64 61h2M50 62h4M64 62h3M50 63h3M64 63h3M51 64h2M64 64h2M51 65h2M51 66h2" />
<path stroke="#a3a49f" d="M73 30h1M72 31h1M74 36h1M75 37h1M75 38h1M44 49h1M45 50h1M41 51h1M41 52h1M41 53h2M41 54h3M50 54h1M59 54h1M41 55h3M50 55h1M42 56h3M42 57h5M59 57h2M42 58h6M59 58h3M41 59h6M59 59h3M40 60h6M60 60h2M39 61h6M60 61h3M39 62h4M60 62h3M39 63h3M60 63h3M40 64h2M50 64h1M60 64h3M41 65h1M61 65h2" />
<path stroke="#59237e" d="M67 71h1M69 71h1M44 72h1M56 73h1" />
<path stroke="#78499b" d="M68 71h1M55 73h1" />
</svg>