<svg xmlns="http://www.w3.org/2000/svg" viewBox="0 -0.5 96 96" shape-rendering="crispEdges">
<metadata>Made with Pixels to Svg https://codepen.io/shshaw/pen/XbxvNj</metadata>
<path stroke="#181a1d" d="M43 25h1M49 25h1M42 26h1M50 26h1M43 27h1M43 28h1M46 28h3M45 29h1M45 30h1M35 57h4M34 58h1M39 58h1M33 59h1M40 59h1M33 60h1M36 60h2M40 60h1M35 61h1M38 61h1M35 62h1M52 65h3M51 66h1M55 66h1M56 67h1" />
<path stroke="#010101" d="M44 25h1M48 25h1M44 26h1M48 26h1M41 27h1M48 27h1M41 28h1M49 28h1M44 29h1M44 30h1M36 31h1M45 31h1M36 32h1M55 32h1M35 33h1M55 33h1M35 34h1M55 34h1M35 35h1M31 37h1M61 37h1M32 38h1M60 38h1M33 39h1M59 39h1M30 43h2M59 43h4M32 44h3M35 45h1M55 45h1M36 46h1M56 46h1M36 47h2M54 47h1M57 47h3M30 48h1M36 48h1M31 49h2M36 49h1M41 49h1M66 49h1M33 50h1M37 50h1M40 50h1M63 50h3M34 51h1M37 51h1M39 51h1M62 51h1M35 52h1M38 52h2M61 52h1M51 53h1M60 53h1M38 54h1M52 54h2M58 54h2M36 55h2M39 55h1M52 55h1M54 55h4M34 56h2M38 56h2M52 56h1M39 57h1M52 57h1M52 58h1M55 58h1M55 59h3M55 60h1M33 61h1M40 61h1M51 61h1M53 61h2M33 62h1M40 62h1M44 62h3M51 62h2M33 63h1M36 63h1M39 63h1M43 63h2M47 63h1M34 64h1M37 64h2M42 64h1M44 64h1M47 64h1M50 64h1M35 65h2M40 65h2M44 65h1M47 65h1M37 66h3M45 66h1M47 66h1M49 66h1M38 67h1M45 67h2M39 68h3M45 68h2M56 68h1M42 69h3M46 69h1M50 69h6M47 70h3" />
<path stroke="#3d4547" d="M43 26h1M49 26h1M42 27h1M49 27h2M42 28h1M41 29h1M43 29h1M46 29h3M46 31h2M36 58h3M35 59h5M34 60h2M38 60h2M39 61h1M39 62h1M40 66h2M52 66h3M52 67h2" />
<path stroke="#5b4e4d" d="M51 27h2M38 28h2M50 28h1M53 28h1M37 29h1M40 29h1M49 29h1M53 29h1M37 30h1M41 30h1M49 30h1M54 30h1M42 31h1M48 31h1M54 31h1M42 32h6M41 33h1M54 34h1M36 35h1M56 35h1M31 36h2M35 36h1M56 36h1M59 36h3M33 37h3M57 37h2M34 38h1M57 38h1M34 39h1M57 39h1M31 40h2M34 40h1M57 40h5M29 41h2M34 41h1M62 41h2M28 42h1M64 42h1M58 43h1M35 44h1M58 44h1M62 44h2M32 45h3M59 45h1M61 45h1M64 45h2M31 46h2M55 46h1M57 46h1M60 46h2M66 46h1M30 47h1M55 47h1M60 47h2M65 47h2M37 48h3M52 48h4M57 48h1M60 48h1M66 48h1M37 49h4M42 49h1M49 49h7M58 49h1M60 49h1M38 50h2M51 50h5M59 50h1M38 51h1M40 51h1M53 51h4M58 51h1M55 52h3M35 53h2M39 53h1M50 53h1M35 54h3M39 54h1M34 55h2M38 55h1M53 55h1M53 56h3M57 56h1M53 57h2M57 57h1M53 58h2M57 58h1M42 59h1M52 59h3M42 60h1M51 60h3M41 61h1M44 61h1M48 61h1M52 61h1M47 62h1M50 63h1M42 65h1M49 65h1M50 66h1M49 67h1" />
<path stroke="#ada09a" d="M51 28h2M38 29h2M50 29h3M39 30h2M42 30h1M50 30h4M39 31h3M43 31h2M49 31h5M40 32h2M50 32h3M42 33h6M42 34h5M32 37h1M59 37h2M33 38h1M58 38h1M31 41h2M59 41h3M29 42h2M61 42h3M57 44h1M58 45h1M62 45h2M33 46h3M59 46h1M62 46h4M31 47h5M56 47h1M62 47h3M33 48h3M56 48h1M61 48h5M34 49h2M57 49h1M61 49h2M35 50h2M57 50h2M60 50h2M36 51h1M57 51h1M59 51h2M37 52h1M41 52h2M58 52h1M41 53h8M56 53h2M41 54h8M41 55h7M42 56h4M56 56h1M56 57h1M50 62h1M49 64h1M50 67h2" />
<path stroke="#84726f" d="M42 29h1M38 30h1M43 30h1M37 31h2M37 32h3M48 32h2M53 32h2M36 33h5M48 33h7M36 34h6M47 34h7M37 35h19M36 36h20M36 37h21M35 38h22M59 38h1M35 39h22M58 39h1M33 40h1M35 40h22M33 41h1M35 41h24M31 42h30M32 43h26M36 44h21M36 45h19M56 45h2M37 46h18M58 46h1M38 47h16M31 48h2M40 48h12M33 49h1M43 49h6M56 49h1M63 49h3M34 50h1M41 50h10M56 50h1M62 50h1M35 51h1M41 51h12M61 51h1M36 52h1M40 52h1M43 52h12M59 52h2M37 53h2M40 53h1M49 53h1M52 53h4M58 53h2M40 54h1M49 54h3M54 54h4M40 55h1M48 55h4M40 56h2M46 56h6M40 57h12M55 57h1M40 58h12M56 58h1M41 59h1M43 59h9M41 60h1M43 60h8M54 60h1M42 61h2M45 61h3M49 61h2M41 62h3M48 62h2M40 63h3M48 63h2M39 64h3M43 64h1M48 64h1M43 65h1M48 65h1M42 66h3M48 66h1M41 67h4M47 67h2M42 68h3M47 68h6M47 69h3" />
<path stroke="#272d2e" d="M46 30h3M35 58h1M34 59h1M34 61h1M36 61h2M34 62h1M36 62h3M34 63h2M37 63h2M35 64h2M37 65h3M39 67h2M54 67h2M53 68h3" />
</svg>