<svg xmlns="http://www.w3.org/2000/svg" viewBox="0 -0.5 96 96" shape-rendering="crispEdges">
<metadata>Made with Pixels to Svg https://codepen.io/shshaw/pen/XbxvNj</metadata>
<path stroke="#863716" d="M50 14h2M69 14h1M52 15h2M59 15h1M64 15h1M68 15h1M54 16h1M60 16h1M65 16h1M67 16h1M55 17h2M61 17h1M65 17h1M67 17h1M57 18h1M62 18h1M66 18h1M57 25h1M52 26h3M60 26h1M49 27h3M47 28h2M62 31h1M55 32h1M60 32h2M53 33h3M61 33h2M54 34h1M58 34h1M62 34h1M58 35h1M58 36h1M59 37h1M59 38h1M59 39h1M59 40h1M54 41h1M60 41h1M53 42h1M55 42h4M60 42h1M25 43h4M48 43h8M59 43h2M29 44h3M47 44h1M56 44h2M61 44h2M32 45h2M48 45h2M63 45h1M50 46h3M64 46h1M48 47h2M58 47h1M65 47h1M31 48h1M46 48h2M56 48h1M60 48h1M65 48h1M44 49h2M59 49h1M30 50h2M42 50h2M25 51h5M31 51h3M41 51h1M59 51h1M62 51h1M31 52h2M58 52h1M43 53h1M61 53h1M26 54h2M44 54h2M25 55h2M39 55h1M37 56h1M42 58h1M26 59h1M40 59h1M45 59h2M24 60h2M38 60h2M37 61h1M30 62h1M41 62h1M29 63h1M41 63h2M45 63h1M27 64h2M41 64h1M40 65h1M44 65h1M34 66h2M40 66h1M43 66h1M34 67h1M39 67h1M33 68h2M39 68h1M42 68h1M32 69h2M38 69h4M38 70h2M37 71h2M35 72h3M35 73h1" />
<path stroke="#5f2311" d="M70 14h1M50 15h1M70 15h1M50 16h1M58 16h1M63 16h1M70 16h1M51 17h1M58 17h1M63 17h1M58 18h1M63 18h1M48 19h3M58 19h1M62 19h1M66 19h1M51 20h1M70 20h2M53 21h1M68 21h1M68 22h1M55 25h2M58 26h2M68 26h1M69 27h1M69 28h1M53 29h1M70 29h1M51 30h2M70 30h1M49 31h2M61 31h1M65 31h1M71 31h1M47 32h2M53 32h2M59 32h1M65 32h1M71 32h1M58 33h1M60 33h1M65 33h1M71 33h1M53 34h1M64 34h1M64 35h1M61 42h1M62 43h1M28 48h3M28 49h1M31 49h2M34 49h2M39 49h1M66 49h1M24 50h5M33 50h2M36 50h3M66 50h1M35 51h1M38 51h2M66 51h1M26 52h1M36 52h1M40 52h2M52 52h1M65 52h1M37 53h1M42 53h1M51 53h1M65 53h1M25 54h1M38 54h1M50 54h1M65 54h1M24 55h1M38 55h1M49 55h1M64 55h1M36 56h1M48 56h1M35 57h1M47 57h1M26 58h2M36 58h1M41 58h1M46 58h1M54 58h1M60 58h1M24 59h2M39 59h1M54 59h1M59 59h2M23 60h1M37 60h1M45 60h1M59 60h1M36 61h1M35 62h1M42 62h2M27 63h2M34 63h1M40 63h1M43 63h1M46 63h1M26 64h1M42 64h1M25 65h1M41 65h1M41 66h1M33 67h1M40 67h1M42 67h1M32 68h1M31 69h1M31 70h1M40 70h1M34 72h1M34 73h1M36 73h1M34 74h1" />
<path stroke="#f76c1a" d="M51 15h1M69 15h1M52 16h2M59 16h1M64 16h1M68 16h1M54 17h1M60 17h1M64 17h1M68 17h1M55 18h2M61 18h1M67 18h1M57 19h1M49 20h2M51 21h2M69 21h2M55 26h2M52 27h6M68 27h1M49 28h7M68 28h1M69 29h1M53 30h2M69 30h1M51 31h2M70 31h1M49 32h2M70 32h1M58 37h1M58 38h1M58 39h1M58 40h1M59 41h1M59 42h1M56 43h3M61 43h1M25 44h4M48 44h8M58 44h3M28 45h4M50 45h13M31 46h5M59 46h5M35 47h3M62 47h3M38 48h1M63 48h2M63 49h3M64 50h2M64 51h2M64 52h1M49 69h1M50 72h1M65 72h1M50 73h1M37 75h1M67 75h1M38 76h1M66 76h1M50 77h1M50 78h1" />
<path stroke="#c24814" d="M51 16h1M69 16h1M52 17h2M59 17h1M69 17h1M52 18h3M59 18h2M64 18h2M68 18h2M53 19h4M59 19h3M63 19h3M67 19h2M53 20h16M50 21h1M54 21h14M51 22h17M69 22h1M52 23h18M53 24h16M54 25h1M58 25h11M57 26h1M61 26h7M58 27h10M56 28h12M54 29h15M55 30h14M53 31h8M63 31h2M67 31h3M51 32h2M56 32h3M62 32h3M69 32h1M56 33h2M63 33h2M55 34h3M63 34h1M54 35h4M63 35h1M55 36h3M55 37h3M55 38h3M54 39h4M54 40h4M55 41h4M54 42h1M27 45h1M29 46h2M53 46h6M30 47h5M50 47h8M61 47h1M32 48h6M48 48h8M61 48h1M29 49h2M33 49h1M36 49h3M40 49h1M46 49h12M32 50h1M35 50h1M39 50h1M44 50h14M63 50h1M34 51h1M36 51h2M42 51h15M60 51h1M63 51h1M37 52h3M53 52h4M59 52h2M62 52h2M38 53h4M44 53h7M52 53h4M57 53h4M62 53h3M39 54h5M46 54h4M51 54h14M40 55h9M50 55h14M38 56h10M49 56h15M36 57h11M48 57h16M43 58h3M47 58h7M55 58h5M61 58h2M41 59h4M47 59h5M55 59h4M61 59h2M40 60h5M46 60h4M54 60h4M60 60h2M38 61h6M45 61h2M54 61h3M60 61h2M36 62h5M53 62h3M60 62h1M44 63h1M53 63h2M43 64h2M53 64h1M42 65h2M42 66h1M41 67h1" />
<path stroke="#101010" d="M70 17h1M51 18h1M70 18h1M52 19h1M69 19h1M48 20h1M52 20h1M69 20h1M49 21h1M71 21h1M50 22h1M70 22h1M51 23h1M70 23h1M52 24h1M69 24h1M53 25h1M69 25h1M38 29h2M49 29h4M38 30h1M40 30h1M38 31h1M41 31h1M66 31h1M39 32h1M42 32h1M67 32h2M39 33h1M43 33h1M49 33h4M59 33h1M69 33h2M40 34h1M44 34h1M61 34h1M40 35h1M45 35h1M48 35h2M53 35h1M62 35h1M36 36h2M41 36h1M46 36h1M48 36h1M50 36h1M54 36h1M63 36h1M65 36h1M36 37h1M38 37h2M41 37h1M47 37h2M50 37h1M54 37h1M65 37h1M37 38h1M40 38h1M42 38h1M47 38h2M51 38h1M54 38h1M66 38h1M37 39h1M41 39h2M48 39h1M51 39h1M53 39h1M66 39h1M69 39h1M38 40h1M42 40h2M51 40h3M67 40h1M69 40h1M39 41h1M43 41h1M67 41h1M39 42h1M52 42h1M68 42h1M70 42h1M33 43h4M40 43h1M68 43h1M70 43h1M24 44h1M33 44h1M37 44h5M69 44h2M25 45h2M34 45h2M41 45h1M27 46h2M36 46h2M29 47h1M38 47h1M39 48h2M29 50h1M24 51h1M30 51h1M25 52h1M27 52h4M33 52h3M42 52h10M26 53h2M31 53h3M36 53h1M28 54h1M33 54h2M37 54h1M27 55h3M35 55h1M25 56h2M64 56h1M24 57h1M64 57h1M28 58h2M37 58h4M63 58h1M27 59h2M52 59h2M63 59h1M26 60h1M32 60h1M50 60h2M53 60h1M58 60h1M62 60h1M23 61h3M30 61h3M44 61h1M47 61h3M51 61h1M53 61h1M57 61h1M59 61h1M62 61h1M25 62h5M31 62h1M44 62h3M51 62h2M56 62h1M59 62h1M61 62h1M30 63h1M35 63h5M50 63h1M52 63h1M55 63h1M59 63h2M29 64h1M36 64h1M40 64h1M45 64h1M49 64h1M52 64h1M54 64h1M58 64h1M26 65h4M34 65h3M39 65h1M45 65h1M48 65h1M52 65h2M56 65h2M28 66h1M32 66h2M36 66h1M39 66h1M44 66h1M48 66h1M54 66h2M27 67h1M30 67h2M35 67h1M38 67h1M43 67h2M49 67h1M27 68h3M35 68h1M38 68h1M40 68h2M43 68h1M49 68h1M34 69h2M37 69h1M42 69h1M50 69h1M32 70h2M35 70h1M37 70h1M41 70h1M50 70h1M35 71h2M39 71h1M51 71h1M38 72h1M51 72h1M37 73h1M35 74h1M49 74h2M52 74h1M43 75h5M50 75h3M35 76h1M39 76h3M49 76h1M53 76h1M35 77h1M37 77h2M49 77h1M65 77h2M35 78h2M48 78h1M54 78h10M67 78h2M48 79h1M51 79h2M48 80h1M50 80h1M48 81h2" />
<path stroke="#38322d" d="M39 30h1M39 31h2M40 32h2M40 33h3M41 34h3M41 35h4M42 36h4M49 36h1M37 37h1M42 37h5M49 37h1M38 38h2M43 38h4M49 38h2M38 39h3M43 39h5M49 39h2M39 40h3M44 40h7M40 41h3M44 41h10M40 42h12M41 43h7M34 44h3M42 44h5M36 45h5M42 45h6M38 46h12M39 47h9M59 47h2M41 48h5M57 48h3M62 48h1M41 49h3M58 49h1M60 49h3M40 50h2M58 50h5M40 51h1M57 51h2M61 51h1M57 52h1M61 52h1M28 53h3M34 53h2M56 53h1M29 54h4M35 54h2M30 55h5M36 55h2M27 56h9M25 57h10M30 58h6M29 59h10M27 60h5M33 60h4M26 61h4M33 61h3M32 62h3M31 63h3M30 64h6M37 64h3M30 65h4M37 65h2M29 66h3M37 66h2M28 67h2M36 67h2M36 68h2M36 69h1M36 70h1" />
<path stroke="#50453c" d="M66 32h1M66 33h1M66 34h1M67 36h1M67 37h1M68 39h1M68 40h1M45 68h2M44 69h2M48 69h1M42 70h2M47 70h2M53 70h1M42 71h4M49 71h2M53 71h1M59 71h2M63 71h2M43 72h3M48 72h2M54 72h1M58 72h2M61 72h4M38 73h2M44 73h1M49 73h1M55 73h1M60 73h4M37 74h2M56 74h2M60 74h2M64 74h3M56 75h4M63 75h4M50 76h3M57 76h2M62 76h4M51 77h1" />
<path stroke="#272320" d="M67 33h1M67 34h1M67 35h1M68 36h1M68 37h1M68 38h1M69 41h1M56 63h2M57 64h1M45 67h2M53 67h1M44 68h1M47 68h2M53 68h1M43 69h1M46 69h1M53 69h1M44 70h1M49 70h1M54 70h1M59 70h2M63 70h2M46 71h3M54 71h1M58 71h1M61 71h2M65 71h1M39 72h1M55 72h1M57 72h1M60 72h1M66 72h1M40 73h1M52 73h1M56 73h1M64 73h3M36 74h1M48 74h1M58 74h2M63 74h1M67 74h1M36 75h1M42 75h1M60 75h2M68 75h1M68 76h1M64 77h1M68 77h1M53 78h1" />
<path stroke="#3e352b" d="M65 34h1M65 35h2M66 36h1M66 37h1M67 38h1M67 39h1M68 41h1M69 42h1M69 43h1M52 60h1M52 61h1M58 61h1M57 62h2M51 63h1M58 63h1M50 64h2M55 64h2M49 65h3M54 65h2M49 66h5M50 67h3M50 68h3M47 69h1M51 69h2M45 70h2M51 70h2M40 71h2M52 71h1M40 72h3M46 72h2M52 72h2M41 73h3M45 73h4M53 73h2M57 73h3M39 74h9M53 74h3M62 74h1M38 75h4M53 75h3M62 75h1M54 76h3M59 76h3M52 77h12M51 78h2" />
<path stroke="#ffd541" d="M51 73h1M51 74h1M36 76h2M67 76h1M36 77h1M67 77h1M49 78h1M49 79h2M49 80h1" />
</svg>