<svg xmlns="http://www.w3.org/2000/svg" viewBox="0 -0.5 96 96" shape-rendering="crispEdges">
<metadata>Made with Pixels to Svg https://codepen.io/shshaw/pen/XbxvNj</metadata>
<path stroke="#7c7d83" d="M46 7h5M43 8h2M51 8h3M41 9h2M55 9h1M39 10h2M57 10h1M38 11h1M62 16h1M63 18h1M63 19h1M36 31h1M33 32h2M32 33h1M31 34h1M55 34h1M30 35h1M56 35h1M29 36h1M57 36h1M28 37h1M28 38h1M27 39h1M27 40h1M27 41h1M26 42h1M60 42h1M26 43h1M60 43h1M26 44h1M57 44h1M60 44h1M24 45h2M58 45h1M61 45h1M58 46h1M62 46h1M62 47h1M62 48h1M62 49h1M54 50h1M53 53h1M54 54h1M63 54h1M64 55h1M65 56h1M46 57h1M66 57h1M24 58h1M67 58h1M23 59h1M56 59h1M68 59h1M23 60h1M55 60h1M40 61h1M54 61h1M28 62h3M32 62h3M52 62h2M35 63h4M50 63h2M39 64h3M48 65h2M72 65h1M41 66h2M43 67h1M46 68h1" />
<path stroke="#bdbfc1" d="M45 8h1M54 9h1M56 10h1M58 11h1M59 12h1M60 13h1M36 14h1M61 14h1M61 15h1M35 16h1M35 17h1M62 17h1M34 18h2M34 19h2M34 20h1M36 20h1M63 20h1M33 21h3M37 21h1M33 22h2M36 22h1M38 22h1M33 23h3M37 23h3M63 23h1M33 24h10M62 24h2M33 25h15M59 25h5M34 26h29M34 27h29M34 28h29M35 29h27M35 30h27M48 31h13M52 32h9M54 33h6M56 34h3M57 35h1M29 37h1M58 40h1M57 41h2M27 42h1M57 42h3M56 43h4M56 44h1M58 44h2M55 45h3M59 45h2M54 46h4M59 46h3M22 47h1M53 47h6M60 47h2M22 48h2M51 48h9M61 48h1M22 49h4M49 49h11M61 49h1M22 50h7M46 50h8M55 50h6M22 51h11M42 51h12M55 51h6M23 52h32M56 52h5M23 53h30M54 53h1M56 53h4M24 54h30M56 54h4M24 55h32M57 55h4M25 56h31M57 56h4M26 57h20M47 57h10M58 57h4M25 58h1M27 58h20M48 58h9M58 58h4M24 59h3M28 59h20M49 59h7M59 59h4M24 60h4M30 60h18M49 60h6M59 60h5M23 61h7M32 61h8M41 61h8M50 61h4M60 61h6M69 61h1M23 62h5M35 62h6M42 62h7M50 62h2M60 62h8M24 63h1M26 63h1M39 63h3M43 63h6M59 63h12M45 64h4M59 64h12M46 65h2M61 65h11M45 66h3M61 66h2M64 66h5M70 66h2M45 67h2M64 67h2M67 67h2" />
<path stroke="#ebeee6" d="M46 8h5M43 9h11M41 10h15M39 11h19M38 12h21M38 13h22M37 14h24M37 15h24M36 16h26M36 17h26M36 18h27M37 19h26M37 20h26M38 21h26M39 22h25M41 23h22M45 24h16M50 25h7M39 31h6M35 32h15M33 33h20M34 34h21M36 35h2M43 35h13M31 36h1M44 36h13M30 37h3M39 37h3M46 37h11M29 38h29M32 39h26M34 40h2M42 40h16M28 41h2M43 41h14M28 42h3M38 42h3M45 42h12M27 43h29M27 44h29M26 45h29M24 46h30M23 47h29M25 48h26M27 49h21M31 50h13M35 51h4M61 52h1M60 53h2M60 54h3M61 55h3M61 56h4M62 57h4M62 58h5M63 59h5M64 60h5M66 61h3M68 62h2M43 64h2M42 65h4M43 66h2" />
<path stroke="#101010" d="M37 12h1M36 13h1M35 14h1M35 15h1M34 16h1M34 17h1M33 18h1M33 19h1M33 20h1M32 21h1M64 21h1M32 22h1M64 22h1M32 23h1M64 23h1M32 24h1M64 24h1M32 25h1M64 25h1M33 26h1M63 26h1M33 27h1M63 27h1M33 28h1M63 28h1M34 29h1M62 29h1M34 30h1M62 30h1M35 31h1M61 31h1M61 32h1M60 33h1M59 34h1M58 35h1" />
<path stroke="#d3d8d5" d="M37 13h1M36 15h1M36 19h1M35 20h1M36 21h1M35 22h1M37 22h1M36 23h1M40 23h1M43 24h2M61 24h1M48 25h2M57 25h2M37 31h2M45 31h3M50 32h2M53 33h1M52 47h1M24 48h1M26 49h1M48 49h1M29 50h2M44 50h2M33 51h2M39 51h3" />
<path stroke="#4899c9" d="M32 34h2M35 35h1M38 35h1M42 35h1M30 36h1M32 36h1M33 37h1M38 37h1M42 37h1M45 37h1M28 39h1M31 39h1M33 40h1M36 40h1M41 40h1M30 41h1M31 42h1M37 42h1M41 42h1M44 42h1M41 67h2M40 68h4M41 69h2" />
<path stroke="#2863ad" d="M31 35h4M39 35h3M33 36h11M34 37h4M43 37h2M29 39h2M28 40h5M37 40h4M31 41h12M32 42h5M42 42h2M21 63h2M34 63h1M21 64h3M25 64h1M27 64h2M35 64h1M37 64h1M22 65h7M58 65h1M24 66h3M59 66h1M40 67h1M59 67h2M44 68h1M60 68h1M62 68h2M66 68h1M69 68h2M40 69h1M43 69h2M62 69h2M65 69h3M69 69h1M42 70h6M66 70h2M43 71h4" />
<path stroke="#000000" d="M57 37h1M58 38h1M58 39h1M59 40h1M59 41h1M22 46h2M21 47h1M59 47h1M21 48h1M60 48h1M21 49h1M60 49h1M21 50h1M61 50h1M21 51h1M54 51h1M61 51h1M22 52h1M55 52h1M62 52h1M22 53h1M55 53h1M62 53h1M23 54h1M55 54h1M23 55h1M56 55h1M24 56h1M56 56h1M25 57h1M57 57h1M26 58h1M47 58h1M57 58h1M27 59h1M48 59h1M58 59h1M28 60h2M48 60h1M58 60h1M69 60h1M22 61h1M30 61h2M49 61h1M59 61h1M70 61h1M22 62h1M41 62h1M49 62h1M59 62h1M70 62h1M23 63h1M25 63h1M27 63h1M42 63h1M49 63h1M58 63h1M71 63h1M20 64h1M24 64h1M26 64h1M33 64h2M42 64h1M49 64h1M58 64h1M71 64h1M21 65h1M35 65h3M41 65h1M59 65h2M22 66h2M27 66h2M48 66h1M58 66h1M60 66h1M63 66h1M69 66h1M72 66h1M24 67h3M44 67h1M47 67h1M58 67h1M61 67h2M66 67h1M70 67h2M39 68h1M45 68h1M59 68h1M64 68h2M67 68h2M39 69h1M47 69h1M60 69h2M64 69h1M70 69h1M48 70h1M62 70h3M68 70h2M41 71h2M48 71h1M65 71h3M43 72h4" />
<path stroke="#26a28c" d="M57 59h1M56 60h2" />
<path stroke="#2b6b67" d="M55 61h3" />
<path stroke="#1c3164" d="M21 62h1M20 63h1M28 63h1M33 63h1M29 64h1M36 64h1M38 64h1M57 64h1M29 65h1M38 65h2M57 65h1M40 66h1M39 67h1M63 67h1M69 67h1M61 68h1M71 68h1M45 69h2M68 69h1M40 70h2M65 70h1M47 71h1" />
</svg>