<svg xmlns="http://www.w3.org/2000/svg" viewBox="0 -0.5 96 96" shape-rendering="crispEdges">
<metadata>Made with Pixels to Svg https://codepen.io/shshaw/pen/XbxvNj</metadata>
<path stroke="#f8fc4b" d="M56 2h3M53 3h3M58 3h1M50 4h3M58 4h1M47 5h3M59 5h1M44 6h3M59 6h1M41 7h3M60 7h1M41 8h1M60 8h1M42 9h1M60 9h1M42 10h1M61 10h1M43 11h1M61 11h1M43 12h1M62 12h1M44 13h1M62 13h1M44 14h1M62 14h1M45 15h1M63 15h1M45 16h1M63 16h1M46 17h1M64 17h1M46 18h1M64 18h1M47 19h1M64 19h1M47 20h1M65 20h1M48 21h1M65 21h1M48 22h1M66 22h1M49 23h1M66 23h1M49 24h1M66 24h1M50 25h1M67 25h1M50 26h1M67 26h1M51 27h1M67 27h1M47 28h6M68 28h1M41 29h6M68 29h1M34 30h7M69 30h1M34 31h1M65 31h5M34 32h1M57 32h8M34 33h1M48 33h9M34 34h1M38 34h10M34 35h1M38 35h1M33 36h1M38 36h1M33 37h1M38 37h1M33 38h1M37 38h1M33 39h1M37 39h1M33 40h1M37 40h1M32 41h1M37 41h1M32 42h1M37 42h1M32 43h1M36 43h1M32 44h1M36 44h1M32 45h1M36 45h1M20 46h3M32 46h1M36 46h1M20 47h1M23 47h6M32 47h1M36 47h1M20 48h1M29 48h4M36 48h1M21 49h1M36 49h1M21 50h1M35 50h1M21 51h1M25 51h3M35 51h1M21 52h1M25 52h1M28 52h5M35 52h1M22 53h1M25 53h1M33 53h3M22 54h1M26 54h1M22 55h1M26 55h1M22 56h1M26 56h1M23 57h1M26 57h1M21 58h3M26 58h1M18 59h3M27 59h1M15 60h3M27 60h1M12 61h3M25 61h3M12 62h1M21 62h4M13 63h1M18 63h3M14 64h1M19 64h1M15 65h1M20 65h1M16 66h1M20 66h1M17 67h1M21 67h1M18 68h1M22 68h1M19 69h1M22 69h1M19 70h2M23 70h1M18 71h1M22 71h1M17 72h1M21 72h1M16 73h1M20 73h1M15 74h1M19 74h1M14 75h1M18 75h1M13 76h1M17 76h5M12 77h1M22 77h5M11 78h1M26 78h1M11 79h6M26 79h1M35 79h2M17 80h7M26 80h1M34 80h1M37 80h1M23 81h1M27 81h1M32 81h2M38 81h1M48 81h3M23 82h1M27 82h1M31 82h1M39 82h1M46 82h2M50 82h1M23 83h1M27 83h1M29 83h2M40 83h1M43 83h3M49 83h1M23 84h1M27 84h2M35 84h2M41 84h2M47 84h2M23 85h1M33 85h2M37 85h1M46 85h1M24 86h1M31 86h2M38 86h1M44 86h2M24 87h1M29 87h2M39 87h1M42 87h2M24 88h1M27 88h2M40 88h2M24 89h3" />
<path stroke="#fff6a4" d="M56 3h2M53 4h2M57 4h1M50 5h2M58 5h1M47 6h2M58 6h1M44 7h3M59 7h1M42 8h3M59 8h1M43 9h1M43 10h1M60 10h1M44 11h1M44 12h1M61 12h1M45 13h1M61 13h1M45 14h1M46 15h1M62 15h1M46 16h1M47 17h1M63 17h1M47 18h1M63 18h1M48 19h1M48 20h1M64 20h1M49 21h1M49 22h1M65 22h1M50 23h1M65 23h1M50 24h1M51 25h1M66 25h1M51 26h2M66 26h1M52 27h1M53 28h1M67 28h1M47 29h7M41 30h5M64 30h5M35 31h5M56 31h9M35 32h1M47 32h10M35 33h1M38 33h10M37 34h1M37 35h1M34 36h1M37 36h1M34 37h1M37 37h1M34 38h1M36 38h1M54 38h6M34 39h1M36 39h1M52 39h9M36 40h1M51 40h10M33 41h1M36 41h1M51 41h9M33 42h1M36 42h1M52 42h6M33 43h1M33 44h1M33 45h1M35 45h1M33 46h1M35 46h1M21 47h2M33 47h1M35 47h1M21 48h1M25 48h4M35 48h1M30 49h3M35 49h1M22 50h1M22 51h1M28 51h4M22 52h1M33 52h2M25 54h1M23 55h1M25 55h1M23 56h1M21 59h2M18 60h2M24 60h3M15 61h2M22 61h3M13 62h1M19 62h2M14 63h1M15 64h1M18 64h1M16 65h1M19 65h1M17 66h1M18 67h1M20 67h1M19 68h1M21 68h1M19 71h1M18 72h1M17 73h1M16 74h1M15 75h1M14 76h1M13 77h1M19 77h3M12 78h3M24 78h2M17 79h4M35 80h2M26 81h1M34 81h1M37 81h1M26 82h1M32 82h1M38 82h1M48 82h1M24 83h1M26 83h1M31 83h1M35 83h2M39 83h1M46 83h1M24 84h1M26 84h1M29 84h1M34 84h1M37 84h1M40 84h1M43 84h2M24 85h1M26 85h2M32 85h1M38 85h1M41 85h1M45 85h1M30 86h1M39 86h1M43 86h1M28 87h1M40 87h2M25 88h2" />
<path stroke="#fefefe" d="M55 4h2M52 5h6M49 6h9M47 7h12M45 8h14M44 9h16M44 10h16M45 11h16M45 12h16M46 13h15M46 14h16M47 15h15M47 16h16M48 17h15M48 18h15M49 19h15M49 20h15M50 21h15M50 22h15M51 23h14M51 24h15M52 25h14M53 26h13M53 27h14M54 28h13M54 29h14M46 30h18M40 31h16M36 32h11M36 33h2M35 34h2M35 35h2M35 36h2M35 37h2M35 38h1M35 39h1M34 40h2M34 41h2M34 42h2M34 43h2M34 44h2M34 45h1M34 46h1M34 47h1M22 48h3M33 48h2M22 49h8M33 49h2M23 50h12M23 51h2M32 51h3M23 52h2M23 53h2M23 54h2M24 55h1M24 56h2M24 57h2M24 58h2M23 59h4M20 60h4M17 61h5M14 62h5M15 63h3M16 64h2M17 65h2M18 66h2M19 67h1M20 68h1M20 69h2M21 70h2M20 71h2M19 72h2M18 73h2M17 74h2M16 75h2M15 76h2M14 77h5M15 78h9M21 79h5M24 80h2M24 81h2M35 81h2M24 82h2M33 82h5M49 82h1M25 83h1M32 83h3M37 83h2M47 83h2M25 84h1M30 84h4M38 84h2M45 84h2M25 85h1M28 85h4M39 85h2M42 85h3M25 86h5M40 86h3M25 87h3" />
<path stroke="#101010" d="M31 25h1M31 26h1M31 27h1M32 28h1M32 29h1M33 30h1M33 31h1M39 38h2M41 39h2M43 40h2M80 54h1M80 55h1M80 56h1M79 58h1M79 59h1M78 60h1M77 61h1M76 62h1M76 63h1M79 68h1M79 69h1M79 70h1M79 71h1M78 72h1M78 73h1M78 83h1M78 84h1M77 85h1M77 86h1M33 87h1M76 87h1M34 88h1M49 88h14M75 88h1M35 89h1M47 89h2M63 89h1M73 89h2M36 90h1M46 90h1M62 90h1M46 91h1M62 91h1M45 92h1M63 92h2M77 92h1M38 93h7M66 93h11" />
<path stroke="#292929" d="M32 25h3M83 25h2M35 26h3M81 26h2M84 26h1M38 27h3M79 27h2M84 27h1M41 28h3M78 28h1M84 28h1M77 29h1M84 29h1M76 30h1M84 30h1M75 31h1M84 31h1M74 32h1M84 32h1M83 33h1M83 34h1M83 35h1" />
<path stroke="#41414a" d="M32 26h3M83 26h1M32 27h6M81 27h3M33 28h8M79 28h5M33 29h8M78 29h6M77 30h7M76 31h8M75 32h9M79 33h4M81 34h2M82 35h1" />
<path stroke="#623108" d="M73 33h1M72 34h1M72 35h1M71 36h1M82 36h1M71 37h1M82 37h1M71 38h1M81 38h1M70 39h1M81 39h1M70 40h1M80 40h1M70 41h1M80 41h1M79 42h1M78 43h1M77 44h1M78 45h1M78 46h1M79 47h1M79 48h1M79 49h1M80 50h1M80 51h1M80 52h1M80 53h1M37 56h1M37 57h1M79 57h1M37 58h1M36 59h1M36 60h1M35 61h1M34 62h1M34 63h1M33 64h1M76 64h1M33 65h1M77 65h1M32 66h1M78 66h1M32 67h1M78 67h1M31 68h1M31 69h1M31 70h1M75 70h1M30 71h1M75 71h1M30 72h1M30 73h1M30 74h1M77 74h1M30 75h1M78 75h1M30 76h1M78 76h1M30 77h1M79 77h1M30 78h1M79 78h1M30 79h1M79 79h1M31 80h1M79 80h1M31 81h1M79 81h1M78 82h1M63 88h3M36 89h1M46 89h1M71 89h2M37 90h3M43 90h3M74 90h3M37 91h1M77 91h1M37 92h1M65 92h1" />
<path stroke="#f6e652" d="M74 33h4M48 34h4M74 34h6M39 35h14M73 35h8M39 36h15M72 36h10M40 37h11M54 37h13M72 37h10M41 38h8M51 38h3M60 38h9M72 38h9M44 39h3M49 39h3M61 39h9M71 39h10M47 40h4M61 40h9M71 40h9M46 41h5M60 41h10M71 41h8M44 42h8M58 42h12M71 42h8M43 43h35M43 44h34M42 45h34M77 45h1M42 46h36M41 47h37M41 48h37M41 49h5M58 49h19M41 50h2M62 50h15M65 51h11M46 52h12M67 52h8M43 53h19M69 53h4M44 54h26M46 55h20M59 56h2M77 66h1M77 67h1M76 68h3M76 69h3M76 70h3M77 71h1M77 72h1M75 73h1M75 74h2M75 75h3M74 76h4M74 77h5M74 78h5M75 79h4M76 80h3M76 81h3M77 82h1M77 83h1M73 91h2M76 91h1M74 92h1M76 92h1" />
<path stroke="#737383" d="M78 33h1M80 34h1M81 35h1" />
<path stroke="#9c5200" d="M52 34h1M54 36h13M51 37h3M68 37h2M49 38h2M70 38h1M44 41h1M43 42h1M42 43h1M42 44h1M41 45h1M41 46h1M40 47h1M40 48h1M39 49h1M39 50h1M39 51h1M38 52h1M38 53h1M38 54h1M38 55h1M45 56h12M42 57h19M40 58h23M39 59h3M58 59h7M62 60h4M43 63h12M40 64h19M38 65h24M36 66h5M55 66h9M35 67h2M59 67h7M63 68h4M75 68h1M75 69h1M76 72h1M76 73h1" />
<path stroke="#de9400" d="M73 34h1M53 35h1M39 37h1M67 37h1M43 39h1M45 40h1M70 42h1M47 49h9M44 50h17M42 51h22M41 52h3M60 52h6M64 53h4M44 56h1M57 56h2M41 57h1M61 57h1M39 58h1M63 58h1M38 59h1M42 59h2M56 59h2M61 60h1M66 60h1M42 63h1M55 63h2M39 64h1M59 64h1M37 65h1M62 65h1M41 66h2M53 66h2M64 66h1M34 67h1M37 67h2M57 67h2M62 68h1M67 68h1M50 83h6M49 84h10M47 85h14M46 86h17M76 86h1M44 87h22M74 87h2M38 88h2M42 88h7M66 88h9M37 89h9M64 89h7M40 90h3M63 90h10M38 91h8M63 91h9M75 91h1M38 92h7M66 92h8M75 92h1" />
<path stroke="#f6bd20" d="M69 38h1M47 39h2M46 40h1M45 41h1M79 41h1M76 45h1M78 47h1M78 48h1M40 49h1M46 49h1M56 49h2M77 49h2M40 50h1M43 50h1M61 50h1M77 50h3M40 51h2M64 51h1M76 51h4M39 52h2M44 52h2M58 52h2M66 52h1M75 52h5M39 53h4M62 53h2M68 53h1M73 53h7M39 54h5M70 54h9M39 55h7M66 55h12M38 56h6M61 56h17M38 57h3M62 57h16M38 58h1M64 58h14M37 59h1M44 59h12M65 59h14M37 60h24M67 60h11M36 61h41M35 62h41M35 63h7M57 63h19M34 64h5M60 64h16M34 65h3M63 65h14M33 66h3M43 66h10M65 66h12M33 67h1M39 67h18M66 67h11M32 68h30M68 68h7M32 69h43M32 70h43M31 71h44M76 71h1M78 71h1M31 72h45M31 73h44M77 73h1M31 74h44M31 75h44M31 76h43M31 77h43M31 78h43M31 79h4M37 79h38M32 80h2M38 80h38M39 81h9M51 81h25M40 82h6M51 82h26M41 83h2M56 83h21M59 84h19M35 85h2M61 85h16M33 86h5M63 86h13M34 87h5M66 87h8M35 88h3M73 90h1M72 91h1" />
<path stroke="#e65a41" d="M79 54h1M78 55h1M78 58h1" />
<path stroke="#c52018" d="M79 55h1M78 56h2M78 57h1" />
</svg>