<svg xmlns="http://www.w3.org/2000/svg" viewBox="0 -0.5 96 96" shape-rendering="crispEdges">
<metadata>Made with Pixels to Svg https://codepen.io/shshaw/pen/XbxvNj</metadata>
<path stroke="#2f184e" d="M34 0h2M36 1h2M38 2h4M42 3h1M43 4h1M43 5h1M43 6h1M43 7h4M56 7h1M36 8h1M42 8h1M47 8h2M57 8h1M35 9h1M37 9h1M41 9h1M43 9h1M49 9h1M55 9h1M57 9h1M35 10h1M37 10h1M45 10h1M50 10h1M58 10h1M38 11h1M40 11h1M42 11h1M46 11h1M50 11h1M58 11h1M31 12h1M39 12h1M43 12h1M51 12h1M58 12h1M62 12h2M32 13h1M40 13h1M45 13h1M51 13h1M58 13h1M61 13h1M63 13h1M32 14h1M41 14h1M51 14h1M58 14h3M63 14h1M33 15h1M57 15h1M63 15h1M34 16h2M63 16h1M31 17h1M35 17h1M44 17h4M56 17h1M62 17h1M38 18h5M48 18h5M62 18h1M34 19h4M41 19h1M53 19h3M61 19h1M32 20h1M35 20h1M41 20h1M56 20h2M60 20h1M29 21h1M40 21h1M47 21h1M59 21h3M27 22h2M40 22h1M62 22h1M26 23h1M46 23h1M58 23h1M25 24h1M30 24h1M32 24h1M39 24h1M46 24h1M57 24h1M60 24h1M25 25h1M30 25h1M39 25h1M57 25h1M67 25h1M31 26h1M39 26h1M45 26h1M68 26h1M31 27h1M39 27h1M45 27h1M57 27h1M68 27h1M39 28h1M45 28h1M69 28h1M28 29h1M39 29h1M45 29h1M69 29h1M39 30h1M45 30h1M59 30h2M69 30h1M33 31h1M39 31h1M45 31h1M58 31h1M62 31h1M68 31h1M40 32h1M45 32h1M57 32h1M67 32h2M34 33h1M40 33h1M57 33h1M68 33h1M43 34h2M46 34h1M56 34h1M69 34h1M39 35h1M41 35h1M44 35h1M48 35h1M69 35h1M35 36h1M40 36h1M45 36h1M69 36h1M34 37h1M40 37h1M45 37h1M69 37h1M25 38h1M40 38h1M45 38h1M57 38h1M68 38h1M27 39h1M41 39h1M44 39h1M68 39h1M41 40h1M43 40h2M49 40h1M67 40h1M40 41h1M44 41h1M49 41h1M66 41h1M27 42h1M40 42h1M44 42h1M49 42h1M62 42h1M64 42h2M28 43h1M40 43h1M44 43h1M50 43h1M65 43h1M29 44h1M41 44h1M43 44h1M66 44h1M20 45h1M29 45h1M38 45h1M40 45h1M44 45h1M51 45h1M54 45h2M63 45h1M66 45h2M28 46h2M38 46h1M40 46h1M44 46h1M56 46h1M63 46h1M68 46h1M27 47h1M30 47h1M40 47h1M44 47h1M57 47h1M69 47h1M19 48h1M26 48h1M31 48h2M41 48h1M44 48h1M57 48h1M70 48h2M24 49h1M27 49h1M33 49h1M40 49h1M45 49h2M58 49h1M72 49h2M25 50h1M29 50h1M33 50h1M38 50h2M57 50h2M64 50h2M74 50h1M25 51h1M30 51h1M33 51h1M35 51h1M50 51h1M57 51h2M69 51h1M25 52h1M32 52h1M42 52h2M49 52h1M57 52h2M21 53h1M25 53h1M32 53h1M36 53h1M39 53h2M44 53h1M53 53h1M57 53h1M74 53h1M21 54h1M25 54h1M33 54h1M48 54h1M54 54h1M57 54h1M64 54h1M75 54h1M21 55h1M24 55h1M26 55h1M33 55h1M40 55h1M57 55h1M21 56h1M24 56h1M27 56h1M41 56h1M55 56h1M57 56h1M62 56h1M72 56h1M76 56h1M24 57h1M28 57h2M46 57h1M55 57h1M57 57h1M63 57h1M74 57h1M24 58h1M30 58h2M57 58h1M32 59h2M41 59h1M57 59h1M22 60h1M25 60h1M34 60h1M42 60h1M57 60h1M26 61h1M43 61h1M56 61h1M71 61h1M76 61h1M27 62h1M55 62h1M28 63h1M55 63h1M60 63h1M61 64h1M61 65h1M61 66h1M43 67h2M57 67h1M61 67h1M63 67h1M42 68h1M55 68h1M61 68h1M63 68h1M37 69h1M42 69h1M61 69h2M42 70h1M44 70h1M52 70h1M54 70h3M61 70h1M35 71h1M41 71h1M47 71h1M50 71h2M55 71h1M61 71h1M50 72h1M54 72h1M60 72h1M48 73h2M34 74h1M44 74h1M46 74h1M53 74h1M45 75h1M53 75h1M35 76h2M43 76h1M34 77h1M56 77h1M38 79h1M53 80h1M53 81h1M53 82h1M33 83h1M58 83h2M64 83h2M57 84h1M63 84h1M65 84h1M32 85h1M55 85h2M61 85h2M64 85h1M32 86h1M59 86h2M32 87h1M38 87h2M28 88h1M33 88h1M37 88h1M42 88h2M34 89h3M41 89h1M43 89h1M36 90h5M35 93h1" />
<path stroke="#101010" d="M34 1h1M35 2h1M36 3h2M38 4h2M40 5h1M40 6h1M39 7h1M55 7h1M39 8h1M55 8h1M39 9h1M39 10h1M54 10h1M34 11h1M54 11h1M34 12h1M40 12h1M53 12h1M30 13h1M34 13h1M52 13h1M30 14h1M34 14h1M30 15h1M34 15h1M58 15h1M30 16h1M57 16h1M31 18h1M32 19h2M31 20h1M30 21h1M34 21h1M58 21h1M30 22h1M33 22h1M58 22h1M30 23h1M33 23h1M59 24h1M32 25h1M58 25h1M24 26h1M32 26h1M57 26h1M24 27h1M32 27h1M24 28h1M32 28h1M56 28h1M23 29h1M32 29h1M56 29h1M22 30h1M32 30h1M56 30h1M22 31h1M56 31h1M21 32h1M33 32h1M21 33h1M21 34h1M34 34h1M40 34h1M21 35h1M35 35h1M47 35h1M56 35h1M22 36h1M36 36h3M49 36h2M56 36h1M22 37h1M38 37h1M51 37h6M23 38h1M33 38h1M39 38h1M54 38h1M24 39h1M31 39h2M40 39h1M52 39h2M57 39h1M24 40h1M27 40h4M50 40h2M58 40h1M23 41h1M26 41h1M59 41h1M22 42h1M39 42h1M60 42h2M21 43h1M39 43h1M62 43h1M20 44h1M37 44h2M51 44h3M62 44h1M36 45h1M50 45h1M19 46h1M35 46h1M49 46h1M19 47h1M35 47h1M38 47h1M48 47h1M62 47h1M34 48h1M38 48h1M47 48h1M62 48h1M18 49h1M25 49h2M34 49h1M38 49h1M47 49h1M62 49h1M18 50h1M23 50h1M28 50h1M34 50h1M46 50h1M63 50h1M18 51h1M22 51h1M39 51h1M46 51h1M63 51h1M66 51h3M75 51h1M19 52h1M22 52h1M30 52h1M35 52h1M39 52h1M46 52h1M61 52h2M66 52h1M69 52h5M75 52h1M19 53h1M30 53h1M35 53h1M45 53h1M61 53h1M65 53h1M69 53h1M72 53h1M76 53h1M20 54h1M31 54h1M35 54h2M40 54h1M45 54h1M60 54h1M65 54h1M69 54h1M72 54h1M76 54h1M20 55h1M32 55h1M35 55h1M37 55h1M41 55h1M45 55h1M60 55h1M65 55h1M69 55h1M73 55h1M76 55h1M20 56h1M35 56h1M38 56h1M42 56h4M61 56h1M66 56h1M69 56h1M73 56h1M21 57h1M36 57h1M39 57h2M45 57h1M66 57h1M69 57h1M72 57h1M77 57h1M21 58h1M36 58h1M45 58h1M63 58h1M66 58h1M69 58h1M72 58h1M74 58h1M77 58h1M21 59h1M25 59h2M37 59h1M45 59h1M63 59h1M65 59h1M69 59h1M72 59h1M74 59h1M77 59h1M27 60h2M37 60h1M44 60h1M63 60h1M65 60h1M68 60h1M72 60h1M74 60h1M77 60h1M22 61h1M29 61h5M38 61h1M44 61h1M63 61h2M68 61h1M74 61h1M23 62h1M39 62h1M44 62h1M56 62h1M67 62h1M71 62h1M74 62h1M76 62h1M24 63h2M40 63h2M43 63h1M56 63h1M66 63h1M69 63h2M73 63h1M75 63h1M26 64h3M42 64h2M55 64h1M66 64h3M73 64h2M43 65h1M55 65h1M43 66h1M55 66h1M42 67h1M54 67h1M38 68h4M54 68h1M36 69h1M53 69h1M35 70h1M53 70h1M52 71h1M34 72h1M51 72h1M34 73h1M50 73h1M60 73h1M49 74h2M59 74h1M33 75h1M47 75h2M50 75h1M58 75h1M33 76h1M44 76h3M50 76h1M57 76h1M33 77h1M42 77h2M50 77h1M32 78h1M40 78h2M50 78h1M56 78h1M31 79h1M39 79h1M49 79h1M55 79h1M30 80h1M37 80h2M49 80h1M55 80h1M29 81h1M35 81h2M48 81h1M54 81h1M28 82h1M34 82h1M47 82h1M54 82h1M28 83h1M47 83h1M27 84h1M33 84h1M47 84h1M59 84h1M27 85h1M47 85h1M59 85h1M27 86h1M48 86h2M64 86h1M27 87h1M50 87h1M63 87h1M39 88h1M51 88h1M62 88h1M28 89h1M38 89h1M52 89h2M60 89h2M28 90h1M43 90h1M54 90h6M28 91h1M42 91h1M29 92h2M41 92h1M31 93h2M39 93h2M33 94h6" />
<path stroke="#433568" d="M35 1h1M36 2h2M38 3h2M40 4h1M41 5h1M41 6h1M40 7h2M40 8h1M40 9h1M45 9h2M40 10h1M46 10h3M55 10h1M36 11h1M41 11h1M47 11h3M55 11h2M35 12h3M41 12h1M47 12h3M54 12h3M35 13h4M41 13h3M46 13h5M53 13h4M35 14h6M42 14h9M52 14h5M31 15h1M35 15h22M61 15h1M31 16h2M36 16h20M58 16h4M32 17h3M36 17h8M48 17h8M57 17h5M32 18h6M47 18h1M53 18h8M47 19h1M56 19h5M33 20h2M58 20h2M32 21h2M41 21h1M46 21h1M31 22h2M39 22h1M41 22h5M47 22h3M59 22h1M31 23h2M38 23h2M41 23h5M47 23h4M59 23h1M29 24h1M31 24h1M33 24h2M37 24h2M40 24h5M47 24h5M53 24h1M58 24h1M29 25h1M31 25h1M35 25h4M40 25h5M46 25h7M55 25h2M59 25h5M28 26h3M33 26h6M40 26h5M46 26h9M58 26h7M28 27h3M33 27h6M40 27h5M46 27h11M58 27h7M28 28h4M33 28h6M40 28h5M46 28h10M57 28h8M27 29h1M29 29h3M33 29h2M37 29h2M40 29h5M46 29h10M57 29h9M30 30h2M36 30h3M40 30h5M46 30h4M52 30h4M57 30h2M62 30h6M24 31h3M29 31h4M35 31h4M41 31h4M46 31h5M54 31h2M57 31h1M59 31h2M63 31h5M27 32h1M30 32h3M34 32h6M41 32h4M46 32h6M53 32h1M59 32h4M64 32h2M28 33h1M30 33h4M35 33h5M41 33h3M46 33h7M55 33h2M58 33h1M62 33h5M23 34h3M28 34h1M30 34h4M35 34h5M42 34h1M45 34h1M47 34h8M57 34h1M59 34h3M63 34h4M22 35h5M29 35h6M36 35h3M40 35h1M42 35h2M45 35h2M49 35h7M58 35h5M64 35h4M23 36h12M39 36h1M41 36h4M46 36h3M51 36h5M58 36h6M65 36h3M23 37h11M39 37h1M41 37h4M46 37h2M49 37h2M57 37h11M24 38h1M27 38h6M42 38h2M46 38h3M51 38h3M58 38h10M25 39h2M28 39h3M42 39h1M45 39h2M48 39h2M58 39h10M25 40h2M42 40h1M45 40h3M59 40h8M24 41h2M41 41h3M45 41h3M60 41h5M24 42h2M41 42h3M45 42h3M26 43h2M42 43h1M45 43h3M63 43h1M24 44h5M39 44h2M42 44h1M44 44h5M63 44h2M23 45h6M37 45h1M39 45h1M41 45h3M45 45h4M64 45h1M22 46h6M36 46h2M39 46h1M41 46h3M45 46h4M50 46h4M21 47h6M28 47h2M36 47h2M39 47h1M42 47h1M45 47h3M49 47h6M63 47h1M20 48h6M27 48h3M35 48h3M39 48h2M42 48h1M45 48h2M48 48h7M63 48h3M19 49h5M28 49h3M35 49h3M39 49h1M41 49h4M48 49h5M63 49h7M19 50h4M31 50h2M36 50h2M40 50h6M47 50h4M53 50h3M66 50h7M19 51h3M31 51h2M36 51h3M40 51h6M47 51h3M51 51h5M70 51h4M20 52h2M23 52h2M31 52h1M37 52h2M40 52h1M44 52h2M47 52h2M50 52h6M74 52h1M20 53h1M22 53h3M31 53h1M38 53h1M42 53h2M46 53h2M50 53h1M54 53h2M75 53h1M22 54h3M32 54h1M39 54h1M41 54h4M46 54h2M51 54h3M55 54h2M22 55h2M42 55h3M46 55h1M49 55h5M55 55h2M63 55h2M22 56h2M26 56h1M46 56h1M48 56h7M56 56h1M63 56h3M22 57h1M27 57h1M47 57h8M56 57h1M64 57h2M22 58h1M25 58h1M46 58h9M56 58h1M64 58h2M22 59h1M24 59h1M27 59h1M46 59h9M56 59h1M64 59h1M23 60h1M29 60h2M45 60h10M56 60h1M64 60h1M23 61h1M45 61h4M50 61h5M24 62h1M45 62h3M49 62h6M26 63h1M44 63h3M49 63h6M44 64h3M48 64h7M57 64h1M44 65h2M47 65h8M58 65h1M44 66h11M60 66h1M62 66h1M45 67h9M59 67h2M43 68h2M46 68h8M57 68h4M62 68h1M38 69h4M44 69h2M47 69h6M54 69h7M36 70h6M43 70h1M45 70h2M48 70h4M59 70h2M36 71h5M42 71h2M45 71h2M53 71h2M56 71h3M60 71h1M35 72h6M42 72h2M45 72h5M52 72h2M55 72h5M35 73h5M41 73h3M45 73h2M51 73h3M55 73h5M35 74h4M40 74h4M45 74h1M47 74h2M51 74h2M54 74h5M34 75h3M39 75h4M44 75h1M46 75h1M51 75h2M54 75h4M34 76h1M37 76h2M40 76h3M51 76h2M54 76h3M35 77h2M39 77h3M51 77h2M54 77h2M33 78h3M38 78h2M51 78h2M54 78h1M32 79h2M36 79h2M50 79h3M31 80h6M50 80h3M30 81h5M49 81h3M29 82h5M48 82h4M29 83h4M48 83h4M28 84h4M48 84h4M28 85h4M48 85h5M28 86h4M50 86h3M54 86h2M58 86h1M63 86h1M28 87h3M51 87h3M58 87h1M62 87h1M29 88h2M52 88h3M60 88h2M29 89h2M54 89h6M29 90h3M42 90h1M29 91h4M34 91h1M41 91h1M31 92h3M35 92h6M33 93h2M36 93h3" />
<path stroke="#5d4694" d="M40 3h2M41 4h2M42 5h1M42 6h1M42 7h1M43 8h4M56 8h1M36 9h1M47 9h2M56 9h1M36 10h1M49 10h1M56 10h2M35 11h1M37 11h1M57 11h1M38 12h1M50 12h1M57 12h1M31 13h1M39 13h1M57 13h1M62 13h1M31 14h1M57 14h1M61 14h2M32 15h1M59 15h2M62 15h1M33 16h1M56 16h1M62 16h1M44 18h3M61 18h1M38 19h3M43 19h4M49 19h4M36 20h5M42 20h5M48 20h8M31 21h1M35 21h5M42 21h4M48 21h10M29 22h1M34 22h3M52 22h6M60 22h2M27 23h3M54 23h4M60 23h1M26 24h3M61 24h4M26 25h3M64 25h3M25 26h3M65 26h3M25 27h3M65 27h3M65 28h4M25 29h2M66 29h3M23 30h6M68 30h1M23 31h1M27 31h2M22 32h1M24 32h3M28 32h2M66 32h1M23 33h5M29 33h1M67 33h1M22 34h1M26 34h2M29 34h1M67 34h2M27 35h2M68 35h1M68 36h1M68 37h1M50 39h1M48 41h1M48 42h1M22 43h2M48 43h2M64 43h1M21 44h3M49 44h2M65 44h1M21 45h2M49 45h1M52 45h2M65 45h1M20 46h2M54 46h2M66 46h2M20 47h1M55 47h2M64 47h5M30 48h1M55 48h2M66 48h4M31 49h2M56 49h2M70 49h2M73 50h1M56 51h1M74 51h1M56 52h1M56 53h1M25 55h1M25 56h1M23 57h1M25 57h2M23 58h1M26 58h4M23 59h1M28 59h4M24 60h1M31 60h3M24 61h2M57 61h1M25 62h2M57 62h2M27 63h1M57 63h3M58 64h2M59 65h1M62 67h1M55 78h1M54 79h1M54 80h1M52 81h1M52 82h1M52 83h1M32 84h1M52 84h1M58 84h1M64 84h1M53 85h1M57 85h2M63 85h1M53 86h1M56 86h2M61 86h2M31 87h1M54 87h2M59 87h3M31 88h1M38 88h1M55 88h5M31 89h1M33 89h1M37 89h1M42 89h1M32 90h1M34 90h2M41 90h1M35 91h6" />
<path stroke="#352954" d="M41 8h1M44 9h1M41 10h1M42 12h1M46 12h1M44 13h1M43 18h1M42 19h1M48 19h1M47 20h1M37 22h2M46 22h1M50 22h2M34 23h4M40 23h1M51 23h3M61 23h4M35 24h2M45 24h1M52 24h1M54 24h3M65 24h2M33 25h2M45 25h1M53 25h2M55 26h2M25 28h3M24 29h1M35 29h2M29 30h1M33 30h3M50 30h2M61 30h1M34 31h1M40 31h1M51 31h3M61 31h1M23 32h1M52 32h1M54 32h3M58 32h1M63 32h1M22 33h1M44 33h2M53 33h2M59 33h3M41 34h1M55 34h1M58 34h1M62 34h1M57 35h1M63 35h1M57 36h1M64 36h1M48 37h1M26 38h1M41 38h1M44 38h1M49 38h2M43 39h1M47 39h1M51 39h1M48 40h1M65 41h1M23 42h1M26 42h1M63 42h1M24 43h2M41 43h1M43 43h1M64 46h2M41 47h1M43 47h1M43 48h1M53 49h3M24 50h1M30 50h1M35 50h1M51 50h2M56 50h1M23 51h2M64 51h2M36 52h1M41 52h1M63 52h3M37 53h1M41 53h1M48 53h2M51 53h2M62 53h3M70 53h2M73 53h1M37 54h2M49 54h2M61 54h3M70 54h2M73 54h2M36 55h1M38 55h2M47 55h2M54 55h1M61 55h2M70 55h3M74 55h2M36 56h2M39 56h2M47 56h1M70 56h2M74 56h2M37 57h2M41 57h4M70 57h2M75 57h2M37 58h8M55 58h1M70 58h2M75 58h2M38 59h3M42 59h3M55 59h1M70 59h2M75 59h2M38 60h4M43 60h1M55 60h1M69 60h3M75 60h2M39 61h4M49 61h1M55 61h1M58 61h1M69 61h2M75 61h1M40 62h4M48 62h1M59 62h1M68 62h3M75 62h1M42 63h1M47 63h2M67 63h2M74 63h1M47 64h1M56 64h1M60 64h1M46 65h1M56 65h2M60 65h1M62 65h1M56 66h4M55 67h2M58 67h1M45 68h1M56 68h1M43 69h1M46 69h1M47 70h1M57 70h2M44 71h1M48 71h2M59 71h1M41 72h1M44 72h1M40 73h1M44 73h1M47 73h1M54 73h1M39 74h1M37 75h2M43 75h1M39 76h1M53 76h1M37 77h2M53 77h1M36 78h2M53 78h1M34 79h2M53 79h1M53 83h1M53 84h1M54 85h1M56 87h2M32 88h1M32 89h1M33 90h1M33 91h1M34 92h1" />
</svg>