<svg xmlns="http://www.w3.org/2000/svg" viewBox="0 -0.5 96 96" shape-rendering="crispEdges">
<metadata>Made with Pixels to Svg https://codepen.io/shshaw/pen/XbxvNj</metadata>
<path stroke="#e6737b" d="M44 27h3M42 28h2M40 29h2M59 33h1M60 34h1M61 35h1M30 38h2M61 38h1M58 39h1M62 39h2M58 43h1M59 44h1M67 50h1M67 51h1M67 52h1M67 53h1M67 54h1M66 55h1M66 56h1M66 57h1M65 58h1" />
<path stroke="#ffacac" d="M47 27h5M52 28h2M54 29h2M56 30h1M50 31h3M57 31h1M50 32h5M58 32h1M49 33h8M39 34h3M47 34h11M38 35h21M37 36h23M32 37h1M36 37h25M35 38h26M35 39h23M59 39h3M34 40h25M60 40h1M66 40h1M33 41h27M31 42h30M66 42h1M31 43h27M59 43h4M65 43h1M31 44h28M60 44h4M30 45h30M61 45h2M30 46h31M30 47h32M30 48h34M30 49h36M30 50h37M30 51h37M30 52h37M30 53h37M26 54h1M31 54h36M27 55h1M33 55h33M27 56h2M35 56h31M28 57h3M34 57h1M38 57h28M28 58h10M40 58h25M29 59h36M30 60h34M31 61h32M32 62h30M34 63h27M36 64h24M38 65h20M40 66h16M45 67h6" />
<path stroke="#ffd5d5" d="M44 28h8M42 29h12M40 30h16M39 31h11M53 31h4M38 32h12M55 32h3M37 33h12M57 33h2M36 34h3M42 34h5M58 34h2M35 35h3M59 35h2M34 36h3M60 36h2M31 37h1M34 37h2M61 37h2M29 38h1M33 38h2M62 38h3M30 39h2M33 39h2M64 39h3M29 40h1M32 40h2M61 40h3M30 41h1M32 41h1M61 41h5M63 42h3M26 53h2M27 54h2M28 55h3M29 56h4M31 57h3" />
<path stroke="#8b4141" d="M39 30h1M38 31h1M33 35h1M31 36h2M62 36h1M29 37h2M63 37h2M26 38h3M65 38h5M25 39h1M28 39h2M70 39h2M24 40h1M26 40h2M30 40h1M59 40h1M64 40h2M72 40h1M24 41h2M29 41h1M60 41h1M72 41h1M23 42h1M61 42h2M23 43h1M72 43h1M24 44h1M73 44h1M60 45h1M69 45h1M73 45h1M70 46h3M26 52h2M25 53h1M28 53h1M25 54h1M29 54h2M26 55h1M26 56h1M27 57h1M37 57h1M27 58h1M38 58h2M28 59h1M65 59h1M64 60h1M63 61h1M62 62h1M60 65h1M36 66h2M58 66h1M61 66h2M35 67h5M56 67h4M63 67h1M35 68h6M55 68h6M63 68h1M58 69h3" />
<path stroke="#101010" d="M37 32h1M36 33h1M35 34h1M34 35h1M33 36h1M33 37h1M32 38h1M32 39h1M31 40h1M31 41h1M66 41h3M28 42h1M30 42h1M69 42h3M26 43h2M30 43h1M63 43h2M25 44h1M30 44h1M65 44h2M24 45h1M29 45h1M67 45h2M24 46h1M28 46h2M61 46h1M69 46h1M25 47h3M29 47h1M62 47h2M70 47h1M29 48h1M64 48h2M70 48h1M29 49h1M66 49h4M29 50h1M29 51h1M29 52h1M29 53h1M31 55h2M33 56h2M35 57h2M29 60h1M30 61h1M31 62h1M32 63h2M61 63h1M34 64h2M60 64h1M36 65h2M58 65h2M35 66h1M38 66h2M56 66h2M34 67h1M40 67h5M51 67h5M34 68h1M41 68h2M45 68h6M54 68h1M35 69h6M55 69h3M61 69h2M58 70h3" />
<path stroke="#ff835a" d="M26 39h2M67 39h2M28 40h1M67 40h2M28 41h1M29 42h1M67 42h2M28 43h2M66 43h3M29 44h1M64 44h1M67 44h2M63 45h4M62 46h5M64 47h3" />
<path stroke="#ee5a31" d="M69 39h1M25 40h1M69 40h3M26 41h2M69 41h3M24 42h4M24 43h2M69 43h3M26 44h3M69 44h4M25 45h4M70 45h3M25 46h3M67 46h2M67 47h3M66 48h4M59 66h2M60 67h3M61 68h2" />
</svg>