<svg xmlns="http://www.w3.org/2000/svg" viewBox="0 -0.5 96 96" shape-rendering="crispEdges">
<metadata>Made with Pixels to Svg https://codepen.io/shshaw/pen/XbxvNj</metadata>
<path stroke="#c57b10" d="M44 18h2M55 18h1M44 19h1M46 19h1M54 19h1M56 19h1M45 20h1M47 20h1M54 20h1M57 20h1M44 21h1M47 21h2M52 21h2M55 21h1M57 21h1M49 22h1M54 22h1M58 22h1M49 23h1M58 23h1M44 24h1M50 24h1M57 24h1M45 25h1M51 25h1M58 25h1M59 26h1M59 27h1M47 28h1M46 29h2M52 29h1M22 54h1M36 55h1M46 56h1M37 57h1M43 57h1M35 58h3M51 58h1M53 58h1M31 59h1M38 59h2M49 59h3M63 59h1M25 60h1M49 60h2M64 60h1M26 61h2M48 61h3M64 61h1M27 62h3M47 62h4M28 63h5M45 63h6M52 63h1M30 64h7M43 64h9M53 64h1M32 65h18M53 65h3M61 65h2M36 66h11M54 66h8M39 67h5M57 67h3" />
<path stroke="#ffee4a" d="M45 19h1M55 19h1M46 20h1M55 20h2M46 21h1M56 21h1M46 22h2M53 22h1M56 22h2M45 23h4M53 23h1M55 23h3M47 24h3M56 24h1M46 25h5M55 25h3M48 26h2M56 26h3M57 27h2M21 35h1M20 36h2M19 37h2M19 38h3M18 39h4M18 40h2M23 40h1M18 41h2M22 41h2M19 42h4M20 43h1M22 43h1M24 43h1M22 44h4M21 45h5M62 45h2M19 46h1M23 46h2M61 46h2M19 47h2M24 47h1M60 47h3M21 48h1M60 48h1M22 52h1M57 52h2M22 53h2M58 53h1M23 54h1M52 54h2M58 54h1M23 55h2M53 55h3M23 56h3M57 56h3M24 57h3M56 57h6M25 58h2M56 58h7M57 59h6M59 60h3" />
<path stroke="#7b5231" d="M45 21h1M43 22h1M52 22h1M55 22h1M43 23h1M52 23h1M53 24h1M44 25h1M53 25h1M43 26h1M51 26h2M43 27h1M51 27h1M52 28h1M58 38h2M38 41h1M54 41h1M64 45h1M54 46h1M63 46h1M63 47h1M56 48h1M61 48h2M59 49h2M58 50h1M23 51h1M23 52h1M24 53h1M59 53h1M24 54h1M25 55h1M35 55h1M60 55h1M26 56h1M38 56h1M44 56h2M55 56h1M27 57h1M38 57h1M62 57h1M29 58h1M34 58h1M40 58h1M63 58h1M24 59h1M37 59h1M52 59h1M64 62h1M64 63h1M29 64h1M63 64h1M51 65h1M35 66h1M47 66h1M44 67h1M56 67h1M60 67h1" />
<path stroke="#626262" d="M37 22h1M33 23h2M38 23h1M32 24h1M35 24h1M38 24h1M33 25h1M30 26h1M68 26h1M69 28h1M27 29h1M72 29h1M72 30h1M74 31h1M60 35h1M38 68h1M58 69h1M58 70h1M65 71h1M66 72h1M67 73h1" />
<path stroke="#e6bd31" d="M44 22h2M48 22h1M44 23h1M54 23h1M45 24h2M54 24h2M54 25h1M44 26h4M50 26h1M53 26h3M44 27h4M49 27h1M52 27h5M45 28h2M53 28h3M57 28h1M59 28h1M53 29h3M53 30h1M55 30h2M56 39h2M55 40h3M39 41h1M55 41h4M39 42h3M54 42h5M39 43h3M54 43h7M54 44h8M54 45h8M55 46h6M55 47h5M57 48h3M46 50h1M47 51h1M49 51h1M58 51h1M45 52h1M47 52h3M46 53h5M52 53h1M57 53h1M46 54h5M54 54h1M59 54h1M47 55h6M35 56h3M47 56h7M56 56h1M35 57h2M39 57h2M44 57h9M54 57h2M24 58h1M27 58h2M41 58h10M54 58h2M25 59h6M40 59h9M53 59h4M26 60h23M52 60h7M62 60h2M28 61h20M52 61h12M30 62h17M52 62h12M33 63h12M53 63h11M37 64h6M54 64h9M56 65h5" />
<path stroke="#000000" d="M36 23h1M72 23h1M71 24h1M73 24h1M31 25h2M68 25h3M74 25h1M33 26h2M38 26h1M74 26h1M30 27h2M37 27h2M69 27h2M28 28h2M32 28h1M44 28h1M30 29h1M45 29h1M70 29h1M28 30h2M31 30h1M33 30h1M40 30h1M69 30h1M71 30h1M32 31h1M40 31h1M68 31h3M73 31h1M77 31h1M43 32h4M62 32h1M71 32h2M75 32h2M33 33h1M35 33h1M37 33h1M48 33h1M61 33h1M66 33h1M73 33h2M34 34h1M36 34h1M40 34h2M49 34h1M60 34h1M65 34h2M35 35h1M40 35h3M49 35h1M59 35h1M67 35h2M73 35h1M36 36h1M39 36h1M44 36h1M48 36h1M68 36h3M35 37h2M46 37h2M62 37h2M70 37h2M35 38h1M42 38h3M56 38h2M60 38h2M63 38h2M36 39h2M45 39h7M55 39h1M58 39h2M65 39h1M69 39h1M38 40h2M47 40h1M49 40h6M58 40h1M65 40h2M40 41h2M48 41h1M51 41h3M59 41h1M67 41h1M38 42h1M42 42h1M48 42h1M53 42h1M59 42h1M61 42h1M32 43h1M38 43h1M43 43h2M47 43h1M53 43h1M61 43h1M65 43h1M32 44h1M39 44h2M45 44h2M53 44h1M63 44h2M33 45h2M42 45h2M53 45h1M35 46h2M45 46h1M37 47h2M46 47h1M54 47h1M39 48h2M46 48h1M55 48h1M41 49h2M45 49h1M57 49h2M43 50h2M37 51h2M59 51h1M32 52h1M41 52h2M59 52h1M33 53h2M43 53h1M35 54h2M44 54h1M60 54h1M22 55h1M37 55h2M44 55h1M56 55h4M22 56h1M34 56h1M39 56h2M43 56h1M54 56h1M60 56h2M23 57h1M28 57h1M34 57h1M41 57h2M53 57h1M23 58h1M30 58h2M38 58h2M52 58h1M32 59h5M24 60h1M51 60h1M25 61h1M51 61h1M26 62h1M51 62h1M27 63h1M51 63h1M28 64h1M52 64h1M30 65h2M50 65h1M52 65h1M63 65h1M32 66h3M48 66h2M53 66h1M62 66h1M35 67h4M45 67h2M54 67h2M61 67h1M36 68h2M39 68h5M56 68h5M37 69h3M55 69h3M59 69h1M55 70h3M54 71h1M56 71h3M64 71h1M31 72h1M41 72h1M53 72h1M32 73h2M39 73h2M53 73h1M34 74h5M53 74h1M66 74h2M54 75h2M63 75h3M56 76h7" />
<path stroke="#ffffff" d="M37 23h1M33 24h1M72 24h1M34 25h2M72 25h1M31 26h1M69 26h1M32 27h2M30 28h1M70 28h1M28 29h1M71 29h1M73 30h1M75 31h1M58 35h1M65 72h1M65 73h2" />
<path stroke="#c5c5c5" d="M34 24h1M37 24h1M73 25h1M32 26h1M70 26h1M73 26h1M31 28h1M71 28h1M29 29h1M74 30h1M76 31h1M57 35h1M58 36h2" />
<path stroke="#6a2020" d="M36 24h1M38 25h1M71 25h1M35 26h1M71 26h1M34 27h1M36 27h1M74 27h2M33 28h1M35 28h1M39 28h1M60 28h1M72 28h1M76 28h1M31 29h1M34 29h1M36 29h1M40 29h1M61 29h1M73 29h2M77 29h1M32 30h1M44 30h1M62 30h1M75 30h1M77 30h1M34 31h1M38 31h2M44 31h1M62 31h1M33 32h1M35 32h1M37 32h6M67 32h1M36 33h1M39 33h1M47 33h1M55 33h1M67 33h1M69 33h1M72 33h1M75 33h1M35 34h1M38 34h1M56 34h4M68 34h1M71 34h1M74 34h1M39 35h1M43 35h1M64 35h1M70 35h1M74 35h1M35 36h1M37 36h1M40 36h1M42 36h1M45 36h1M60 36h2M63 36h1M72 36h2M37 37h4M43 37h2M57 37h1M61 37h1M65 37h1M41 38h1M45 38h4M68 38h1M70 38h1M44 39h1M64 39h1M67 39h1M70 39h1M48 40h1M59 40h1M62 40h1M67 40h1M69 40h1M50 41h1M61 41h1M68 41h1M43 42h1M52 42h1M60 42h1M64 42h1M66 42h1M33 43h4M42 43h1M63 43h1M66 43h1M37 44h2M41 44h1M62 44h1M41 45h1M44 46h1M40 49h1M20 50h1M23 50h1M39 50h1M21 51h1M32 51h5M39 51h1M21 52h1M39 52h2M21 53h1M34 69h3M40 69h1M32 70h1M41 70h1M59 70h4M31 71h1M41 71h1M63 71h1M64 72h1M64 73h1M65 74h1" />
<path stroke="#cd1041" d="M36 25h1M37 26h1M72 26h1M35 27h1M50 27h1M71 27h1M34 28h1M36 28h1M38 28h1M50 28h2M74 28h1M32 29h2M35 29h1M39 29h1M34 30h2M37 30h1M39 30h1M45 30h5M70 30h1M76 30h1M33 31h1M35 31h3M45 31h9M71 31h2M34 32h1M36 32h1M47 32h11M61 32h1M68 32h3M73 32h1M34 33h1M38 33h1M45 33h2M49 33h6M56 33h5M68 33h1M37 34h1M39 34h1M44 34h5M50 34h6M67 34h1M73 34h1M36 35h3M44 35h5M50 35h7M65 35h2M69 35h1M71 35h1M38 36h1M41 36h1M43 36h1M46 36h2M49 36h9M64 36h3M41 37h2M45 37h1M48 37h9M64 37h1M69 37h1M49 38h7M62 38h1M65 38h2M39 39h5M52 39h3M60 39h4M66 39h1M40 40h7M60 40h2M68 40h1M17 41h1M42 41h6M49 41h1M60 41h1M64 41h1M66 41h1M17 42h1M44 42h4M49 42h3M63 42h1M18 43h1M45 43h2M48 43h5M18 44h2M42 44h3M47 44h6M18 45h1M36 45h5M44 45h9M17 46h1M37 46h7M46 46h8M17 47h1M26 47h1M39 47h7M47 47h7M17 48h1M25 48h1M41 48h5M47 48h8M18 49h1M24 49h1M43 49h2M46 49h10M19 50h1M40 50h3M45 50h1M47 50h8M40 51h7M48 51h1M50 51h5M37 52h2M43 52h2M46 52h1M50 52h4M36 53h7M44 53h2M51 53h1M37 54h7M45 54h1M51 54h1M39 55h5M45 55h2M41 56h2M33 70h1M35 70h6M34 71h7M55 71h1M59 71h1M34 72h7M54 72h7M34 73h5M54 73h9M54 74h11M56 75h7" />
<path stroke="#ff4a31" d="M37 25h1M36 26h1M48 27h1M72 27h2M37 28h1M48 28h2M56 28h1M58 28h1M73 28h1M75 28h1M37 29h2M48 29h4M56 29h5M75 29h2M36 30h1M38 30h1M50 30h3M54 30h1M57 30h2M54 31h6M58 32h3M74 32h1M40 33h5M70 33h2M42 34h2M69 34h2M72 34h1M72 35h1M67 36h1M71 36h1M66 37h3M36 38h5M67 38h1M69 38h1M38 39h1M68 39h1M17 40h1M63 40h2M62 41h2M65 41h1M18 42h1M62 42h1M65 42h1M19 43h1M21 43h1M62 43h1M64 43h1M20 44h2M33 44h4M19 45h2M26 45h1M35 45h1M18 46h1M20 46h3M25 46h2M18 47h1M21 47h3M25 47h1M18 48h3M22 48h3M19 49h5M56 49h1M21 50h2M55 50h3M22 51h1M55 51h3M33 52h4M54 52h3M35 53h1M53 53h4M55 54h3M34 70h1M32 71h2M60 71h3M32 72h2M61 72h3M63 73h1" />
<path stroke="#ff8b62" d="M59 30h3M60 31h2M58 37h3" />
</svg>