<svg xmlns="http://www.w3.org/2000/svg" viewBox="0 -0.5 96 96" shape-rendering="crispEdges">
<metadata>Made with Pixels to Svg https://codepen.io/shshaw/pen/XbxvNj</metadata>
<path stroke="#39394a" d="M34 24h4M32 25h2M38 25h1M31 26h1M39 26h1M30 27h1M39 27h1M30 28h2M38 28h1M40 28h1M37 29h1M40 29h1M77 33h1M76 34h1M78 34h1M76 35h1M78 35h1M71 36h2M75 36h1M74 37h1M72 39h1M72 40h1M72 41h1M73 42h1M20 51h3M23 52h1M24 54h1M25 55h1M23 57h1M24 58h1M61 64h1M59 65h4M20 66h4M59 66h2M62 66h1M19 67h1M24 67h1M59 67h2M62 67h1M19 68h1M25 68h1M54 68h4M60 68h1M62 68h1M19 69h1M23 69h2M54 69h4M61 69h1M20 70h1M23 70h1M33 70h2M24 71h1M31 71h4M25 72h1M22 73h1M45 73h1M42 74h5M42 75h5" />
<path stroke="#9c9cac" d="M34 25h4M32 26h7M33 27h2M36 27h2M78 36h1M78 37h1M77 38h1M73 39h3M20 52h3M20 53h4M20 54h4M21 55h1M23 55h2M21 67h3M20 68h4M21 69h1" />
<path stroke="#624a31" d="M55 26h1M59 27h2M62 29h2M64 30h2M66 31h1M62 35h2M63 36h4M63 37h5M63 38h6M63 39h6M64 40h7M65 41h6M65 42h6M65 43h6M65 44h6M65 45h6M65 46h5M65 47h5M65 48h4M64 49h5M64 50h4M64 51h4M64 52h3M63 53h4M70 53h1M63 54h3M69 54h1M63 55h3M63 56h3M64 57h1" />
<path stroke="#000000" d="M56 26h1M54 27h1M57 27h1M27 28h3M36 28h2M58 28h1M61 28h1M25 29h2M32 29h2M39 29h1M24 30h1M34 30h4M40 30h1M23 31h1M22 32h1M67 32h1M21 33h1M68 33h1M21 34h1M68 34h1M20 35h1M69 35h1M20 36h1M69 36h1M79 36h1M20 37h1M70 37h1M73 37h1M79 37h1M20 38h1M70 38h1M79 38h1M20 39h1M70 39h1M78 39h1M71 40h1M78 40h1M19 41h6M71 41h1M77 41h1M17 42h2M22 42h1M25 42h2M71 42h1M75 42h2M16 43h1M23 43h1M27 43h2M71 43h4M15 44h1M24 44h2M29 44h1M71 44h1M15 45h1M26 45h5M71 45h1M15 46h1M24 46h2M30 46h2M70 46h1M15 47h1M22 47h2M31 47h1M70 47h1M15 48h1M20 48h2M69 48h1M16 49h1M19 49h1M69 49h1M17 50h2M26 50h1M68 50h1M18 51h2M26 51h1M63 51h1M68 51h1M71 51h1M17 52h1M19 52h1M27 52h1M31 52h1M63 52h1M67 52h1M71 52h1M17 53h1M19 53h1M24 53h1M27 53h1M31 53h1M62 53h1M67 53h1M71 53h1M16 54h1M19 54h1M27 54h1M55 54h1M62 54h1M66 54h1M70 54h2M16 55h1M19 55h1M28 55h1M32 55h1M62 55h1M66 55h1M68 55h3M16 56h1M20 56h1M25 56h1M28 56h1M54 56h1M62 56h1M66 56h1M16 57h1M21 57h2M25 57h1M28 57h1M33 57h1M46 57h1M54 57h1M65 57h1M16 58h1M25 58h1M28 58h1M46 58h4M54 58h1M16 59h1M25 59h1M27 59h1M34 59h1M46 59h1M50 59h3M55 59h1M17 60h1M27 60h1M33 60h1M36 60h1M46 60h1M50 60h1M53 60h6M17 61h1M26 61h1M32 61h1M37 61h1M45 61h1M50 61h1M55 61h1M57 61h1M59 61h3M17 62h1M26 62h1M31 62h1M38 62h1M45 62h1M51 62h1M55 62h1M57 62h1M59 62h1M62 62h1M18 63h1M26 63h1M31 63h1M38 63h1M44 63h1M51 63h1M55 63h1M58 63h1M62 63h1M18 64h1M27 64h1M31 64h1M38 64h1M43 64h1M52 64h1M56 64h1M59 64h2M66 64h1M19 65h1M28 65h1M32 65h1M37 65h1M42 65h1M52 65h1M57 65h2M65 65h1M19 66h1M28 66h1M33 66h1M37 66h1M42 66h1M52 66h1M57 66h1M64 66h1M29 67h1M33 67h1M37 67h1M42 67h1M53 67h1M57 67h1M63 67h1M29 68h1M34 68h1M38 68h1M43 68h1M53 68h1M58 68h1M30 69h1M34 69h1M39 69h1M43 69h1M53 69h1M58 69h1M62 69h1M30 70h1M35 70h1M39 70h1M44 70h1M54 70h4M59 70h3M20 71h1M30 71h1M35 71h1M40 71h1M45 71h1M21 72h1M31 72h4M40 72h1M46 72h1M23 73h4M41 73h1M46 73h1M41 74h1M47 74h1M41 75h1M47 75h1M42 76h5" />
<path stroke="#4a3929" d="M27 27h3M25 28h2M24 29h1M23 30h1M22 31h1M21 32h1M20 33h1M20 34h1M19 35h1M19 36h1M19 37h1M62 37h1M19 38h1M19 39h1M19 40h6M63 40h1M17 41h2M25 41h2M64 41h1M16 42h1M21 42h1M27 42h2M64 42h1M15 43h1M22 43h1M29 43h1M64 43h1M14 44h1M23 44h1M28 44h1M30 44h1M64 44h1M14 45h1M24 45h2M31 45h1M64 45h1M14 46h1M22 46h2M26 46h4M64 46h1M14 47h1M20 47h2M30 47h1M64 47h1M14 48h1M19 48h1M64 48h1M15 49h1M18 49h1M63 49h1M16 50h1M63 50h1M17 51h1M16 52h1M18 52h1M16 53h1M15 54h1M15 55h1M15 56h1M15 57h1M15 58h1M15 59h1M16 60h1M16 61h1M58 61h1M16 62h1M58 62h1M17 63h1M17 64h1M18 65h1M18 66h1" />
<path stroke="#6a6a83" d="M31 27h2M35 27h1M38 27h1M32 28h4M39 28h1M34 29h3M72 38h1M78 38h1M71 39h1M76 39h2M73 40h5M73 41h4M72 42h1M74 42h1M20 55h1M22 55h1M21 56h4M24 57h1M58 66h1M61 66h1M20 67h1M58 67h1M61 67h1M24 68h1M59 68h1M61 68h1M20 69h1M22 69h1M59 69h2M21 70h2M21 71h3M22 72h3" />
<path stroke="#ac8b73" d="M55 27h1M55 28h3M59 28h1M56 29h6M58 30h6M59 31h7M60 32h7M62 33h6M63 34h5M65 35h4M67 36h2" />
<path stroke="#8b6a52" d="M56 27h1M60 28h1M61 33h1M62 34h1M64 35h1M68 37h2M69 38h1M69 39h1" />
<path stroke="#8b6220" d="M50 28h5M48 29h2M46 30h2M56 30h1M45 31h1M60 34h1M32 44h1M32 46h1M32 47h1M31 48h1M31 49h1M62 50h1M54 51h1M62 51h1M30 52h1M44 52h1M55 52h1M62 52h1M28 53h3M28 54h4M29 55h3M33 55h1M45 55h1M47 55h2M61 55h1M29 56h4M34 56h1M44 56h2M47 56h7M60 56h1M29 57h4M34 57h3M42 57h4M47 57h7M29 58h5M35 58h11M50 58h4M28 59h6M36 59h10M53 59h2M56 59h1M28 60h5M37 60h9M59 60h1M29 61h3M38 61h7M29 62h2M39 62h6M64 62h1M28 63h3M39 63h5M63 63h3M28 64h3M40 64h3M62 64h4M29 65h3M41 65h1M63 65h2M29 66h4M41 66h1M63 66h1M30 67h3M40 67h2M30 68h4M39 68h4M31 69h3M40 69h3M31 70h2M40 70h4M41 71h4M41 72h5M42 73h3" />
<path stroke="#dea44a" d="M50 29h5M48 30h8M46 31h12M45 32h14M44 33h16M43 34h17M42 35h17M41 36h17M70 36h1M40 37h16M39 38h12M37 39h10M48 39h1M35 40h10M47 40h1M49 40h1M33 41h10M46 41h1M48 41h1M35 42h6M72 44h1M72 45h1M72 46h1M63 58h1M62 59h4M62 60h5M63 61h4" />
<path stroke="#523910" d="M55 29h1M57 30h1M58 31h1M44 32h1M59 32h1M43 33h1M60 33h1M42 34h1M61 34h1M41 35h1M61 35h1M70 35h1M40 36h1M62 36h1M39 37h1M37 38h2M35 39h2M32 40h3M30 41h2M29 42h1M32 45h1M73 46h1M26 47h1M73 47h1M26 48h1M72 48h1M26 49h1M72 49h1M31 50h1M71 50h1M31 51h1M45 53h1M55 53h1M32 54h1M45 54h1M67 54h2M46 55h1M54 55h1M33 56h1M46 56h1M61 56h1M62 57h2M34 58h1M64 58h2M35 59h1M66 59h1M51 60h2M67 60h1M51 61h4M67 61h1M52 62h3M63 62h1M67 62h1M52 63h3M66 63h1M53 64h3M53 65h4M53 66h4M54 67h3" />
<path stroke="#cdcdde" d="M77 34h1M77 35h1M76 36h2M71 37h2M75 37h3M71 38h1M73 38h4" />
<path stroke="#b48331" d="M59 35h2M58 36h4M56 37h6M51 38h12M47 39h1M49 39h14M45 40h2M48 40h1M50 40h13M32 41h1M43 41h3M47 41h1M49 41h15M30 42h5M41 42h23M30 43h34M31 44h1M33 44h31M73 44h1M33 45h31M73 45h1M33 46h31M71 46h1M27 47h3M33 47h31M71 47h2M27 48h4M32 48h32M70 48h2M27 49h4M32 49h31M70 49h2M27 50h4M32 50h30M69 50h2M27 51h4M32 51h22M55 51h7M69 51h2M28 52h2M32 52h12M45 52h10M56 52h6M68 52h3M32 53h13M46 53h9M56 53h6M68 53h2M33 54h12M46 54h9M56 54h6M34 55h11M49 55h5M55 55h6M35 56h9M55 56h5M37 57h5M55 57h7M55 58h8M57 59h5M60 60h2M27 61h2M62 61h1M27 62h2M65 62h2M27 63h1M39 64h1M38 65h3M38 66h3M38 67h2" />
</svg>