<svg xmlns="http://www.w3.org/2000/svg" viewBox="0 -0.5 96 96" shape-rendering="crispEdges">
<metadata>Made with Pixels to Svg https://codepen.io/shshaw/pen/XbxvNj</metadata>
<path stroke="#101010" d="M49 20h1M49 21h1M50 22h1M50 23h1M46 25h1M53 25h2M45 26h1M52 26h1M54 26h1M44 27h1M36 28h2M38 29h3M58 29h3M67 29h2M39 30h1M60 30h1M68 30h1M39 31h1M60 31h1M61 33h1M35 35h1M35 36h1M36 37h1M37 38h1M64 38h1M37 39h1M63 39h1M63 40h1M36 43h1M52 43h1M36 44h2M51 44h1M53 44h1M38 45h1M53 45h1M63 46h1M54 47h1M61 47h2M44 48h1M55 48h1M60 48h1M26 49h1M39 49h2M43 49h1M56 49h1M58 49h1M27 50h1M43 50h1M57 50h2M27 51h1M43 51h1M59 51h2M27 52h1M42 52h1M62 52h1M28 53h1M42 53h1M63 53h2M28 54h1M42 54h1M65 54h1M29 55h1M37 55h1M42 55h1M29 56h1M38 56h1M42 56h1M67 56h1M30 57h1M39 57h1M42 57h1M45 57h1M30 58h1M42 58h1M46 58h1M69 58h1M29 59h1M38 59h1M42 59h1M46 59h1M70 59h1M37 60h1M39 60h1M47 60h1M70 60h1M28 61h1M36 61h1M40 61h1M48 61h1M71 61h1M36 62h1M41 62h1M43 62h1M52 62h1M71 62h1M27 63h1M35 63h1M42 63h2M50 63h3M71 63h1M27 64h1M34 64h1M43 64h1M52 64h1M71 64h1M33 65h1M52 65h1M70 65h1M26 66h1M31 66h2M53 66h1M70 66h1M26 67h5M53 67h1M69 67h1M51 68h2M54 68h1M69 68h1M55 69h1M64 69h1M49 70h1M62 70h2M42 71h1M48 71h2M43 72h4M50 72h5M62 72h1M55 73h7" />
<path stroke="#104a62" d="M50 20h2M52 21h1M53 22h1M53 23h1M53 24h1M52 25h1M47 26h1M51 26h1M48 27h3M55 27h1M34 28h2M42 28h2M56 28h1M34 29h1M41 29h1M57 29h1M65 29h2M63 30h2M61 31h2M39 32h1M60 32h1M38 33h1M36 34h2M61 34h1M62 35h1M63 36h1M64 37h1M37 40h1M37 41h1M63 41h1M36 42h1M62 42h1M51 43h1M62 43h1M47 44h1M62 44h1M46 45h1M51 45h1M54 45h1M63 45h1M38 46h1M45 46h1M51 46h1M53 46h1M55 46h1M39 47h1M44 47h1M51 47h1M55 47h1M26 48h5M39 48h1M52 48h1M56 48h1M59 48h1M31 49h2M41 49h1M52 49h3M57 49h1M33 50h1M42 50h1M53 50h1M34 51h1M54 51h1M57 51h1M35 52h1M55 52h2M60 52h2M36 53h1M57 53h2M61 53h2M36 54h1M59 54h2M64 54h1M61 55h2M65 55h2M37 56h1M45 56h1M63 56h1M65 56h1M38 57h1M64 57h1M68 57h1M31 58h1M40 58h2M56 58h2M65 58h1M68 58h1M54 59h2M66 59h2M69 59h1M29 60h1M43 60h1M53 60h1M67 60h1M43 61h1M53 61h1M68 61h2M28 62h1M48 62h2M68 62h1M49 63h1M69 63h1M49 64h1M51 64h1M69 64h1M27 65h1M44 65h1M49 65h1M51 65h1M44 66h1M49 66h1M51 66h1M44 67h1M48 67h1M51 67h1M66 67h1M44 68h1M48 68h1M53 68h1M65 68h1M43 69h2M48 69h1M50 69h1M68 69h1M42 70h1M48 70h1M61 70h1M66 70h2M47 71h1M63 71h3M55 72h1" />
<path stroke="#bdac5a" d="M50 21h1M51 22h1M51 23h1M50 26h1M37 30h1M38 31h1M65 31h2M38 32h1M63 32h2M62 33h2M62 34h2M63 35h2" />
<path stroke="#107394" d="M51 21h1M52 22h1M52 23h1M52 24h1M35 29h3M38 30h1M40 30h1M65 30h3M41 31h1M63 31h2M42 32h1M61 32h2M43 33h1M60 34h1M58 35h2M57 36h1M61 39h2M59 40h2M41 41h1M44 41h1M40 42h1M44 42h1M44 43h1M45 44h1M48 44h1M52 44h1M58 44h1M52 45h1M59 45h2M42 46h1M52 46h1M61 46h1M41 47h1M52 47h2M40 48h1M53 48h2M55 49h1M54 50h3M55 51h2M58 51h1M57 52h3M59 53h2M61 54h3M45 55h1M63 55h2M64 56h1M66 56h1M65 57h3M39 58h1M58 58h1M66 58h2M68 59h1M68 60h2M41 61h1M70 61h1M42 62h1M69 62h2M70 63h1M50 64h1M70 64h1M50 65h1M50 66h1M52 66h1M66 66h1M49 67h2M52 67h1M49 68h2M49 69h1M54 69h1M60 70h1" />
<path stroke="#6a6220" d="M50 24h1M49 25h1M48 26h1M35 30h1M36 31h1M67 31h1M37 32h1M66 32h1M66 33h1M65 34h1M65 35h1M64 36h1" />
<path stroke="#ffe6a4" d="M51 24h1M50 25h2M49 26h1M36 30h1M37 31h1M65 32h1M64 33h2M64 34h1" />
<path stroke="#419cbd" d="M46 26h1M45 27h3M53 27h2M45 28h5M53 28h3M45 29h5M52 29h5M41 30h1M45 30h5M52 30h5M40 31h1M42 31h1M46 31h4M51 31h5M40 32h2M43 32h1M46 32h9M58 32h2M39 33h4M44 33h1M46 33h15M39 34h9M53 34h7M40 35h6M54 35h4M60 35h2M42 36h3M54 36h3M58 36h5M37 37h8M53 37h11M38 38h6M49 38h15M38 39h6M47 39h14M38 40h3M42 40h2M46 40h13M61 40h2M42 41h2M46 41h17M41 42h3M45 42h17M39 43h5M45 43h6M53 43h9M38 44h7M46 44h1M49 44h2M54 44h4M59 44h3M39 45h7M47 45h1M55 45h4M61 45h2M39 46h3M43 46h2M54 46h1M56 46h5M62 46h1M40 47h1M42 47h2M45 47h1M56 47h5M41 48h3M50 48h2M57 48h2M42 49h1M44 49h1M49 49h3M44 50h2M48 50h5M44 51h10M43 52h12M43 53h14M43 54h16M30 55h1M43 55h2M46 55h15M30 56h3M43 56h2M46 56h17M31 57h4M43 57h2M46 57h18M32 58h7M43 58h3M47 58h9M59 58h6M30 59h8M39 59h1M43 59h3M47 59h7M56 59h10M30 60h7M40 60h1M44 60h3M48 60h5M54 60h13M29 61h7M42 61h1M44 61h4M49 61h4M54 61h14M29 62h7M44 62h4M50 62h2M53 62h15M28 63h7M44 63h5M53 63h16M28 64h6M44 64h5M53 64h16M28 65h5M45 65h4M53 65h17M27 66h4M45 66h4M54 66h12M67 66h3M45 67h3M54 67h12M67 67h2M45 68h3M55 68h10M66 68h3M45 69h3M51 69h3M56 69h8M65 69h3M44 70h4M50 70h10M64 70h2M43 71h4M50 71h13M56 72h6" />
<path stroke="#5ac5e6" d="M53 26h1M51 27h2M44 28h1M50 28h3M42 29h3M50 29h2M42 30h3M50 30h2M57 30h3M43 31h3M50 31h1M56 31h4M44 32h2M55 32h3M45 33h1M38 34h1M48 34h5M36 35h4M46 35h8M36 36h6M45 36h9M45 37h8M44 38h5M44 39h3M41 40h1M44 40h2M38 41h3M45 41h1M37 42h3M37 43h2M48 45h3M46 46h5M46 47h5M45 48h5M45 49h4M46 50h2M29 54h1M31 55h1M34 55h3M33 56h4M35 57h3M40 59h2M41 60h2M43 70h1" />
<path stroke="#83deff" d="M27 49h4M28 50h5M28 51h6M28 52h7M29 53h7M30 54h6M32 55h2" />
</svg>