<svg xmlns="http://www.w3.org/2000/svg" viewBox="0 -0.5 96 96" shape-rendering="crispEdges">
<metadata>Made with Pixels to Svg https://codepen.io/shshaw/pen/XbxvNj</metadata>
<path stroke="#391810" d="M39 17h3M38 18h1M42 18h1M48 18h2M38 19h1M42 19h1M46 19h2M37 20h1M46 20h1M37 21h1M37 22h1M37 23h1M45 24h1M41 27h3M39 28h1M37 29h1M47 29h1M34 32h1M33 33h1M33 34h1M32 35h1M32 36h1M32 37h1M31 38h1M31 39h1M28 40h1M31 40h1M28 41h1M31 41h1M29 42h1M31 42h1M57 42h1M29 43h1M31 43h1M56 43h1M30 44h1M54 44h2M32 45h1M51 45h3M32 46h1M49 46h2M32 50h1M33 53h1" />
<path stroke="#624131" d="M39 18h3M39 19h2M48 19h2M47 20h2M48 30h1M49 31h1M50 32h1M50 33h1M51 34h1M51 35h1M49 36h1M47 45h1M48 46h1M33 47h1M35 48h1M33 49h1M41 49h1M39 50h1M39 51h1M35 59h1M43 61h1M43 62h2M42 63h1M44 63h1M50 64h3M41 65h1M50 65h4M35 66h1M39 66h1M52 66h2M54 67h1M43 70h1M49 70h1M37 71h1M41 71h1M54 72h1M53 74h1" />
<path stroke="#101010" d="M50 18h1M51 19h1M42 20h1M51 20h1M42 21h1M45 21h1M51 21h1M42 22h1M45 22h1M50 22h1M41 23h1M45 23h1M49 23h1M37 24h1M41 24h1M44 24h1M49 24h1M37 25h1M41 25h1M44 25h1M48 25h1M38 26h1M40 26h1M44 26h1M47 26h1M38 27h1M40 27h1M44 27h1M47 27h1M38 28h1M46 28h1M36 30h1M35 31h1M31 44h1M31 45h1M32 47h1M49 47h1M33 48h1M48 48h1M34 49h1M35 50h1M32 51h1M35 51h1M40 51h1M32 52h1M35 52h1M39 52h1M41 52h1M35 53h1M39 53h1M41 53h1M46 53h1M33 54h1M35 54h1M39 54h1M46 54h1M34 55h2M40 55h1M42 55h1M45 55h1M35 56h1M40 56h1M43 56h2M34 57h1M41 57h1M34 58h1M41 58h1M34 59h1M42 59h1M34 60h1M34 61h1M34 62h1M34 63h1M34 64h1M34 65h1M34 66h1M35 67h1M35 68h1M35 69h1M58 69h1M36 70h1M58 70h1M36 71h1M58 71h1M37 72h1M58 72h1M38 73h1M57 73h1M39 74h1M57 74h1M40 75h1M56 75h1M41 76h2M54 76h2M43 77h2M52 77h2M45 78h7" />
<path stroke="#4a3120" d="M41 19h1M50 19h1M38 20h4M49 20h2M38 21h4M46 21h5M38 22h4M46 22h4M38 23h3M46 23h3M38 24h3M46 24h3M38 25h3M45 25h3M39 26h1M45 26h2M39 27h1M45 27h2M44 28h2M31 36h1M50 36h2M30 37h1M52 37h2M29 38h1M54 38h2M28 39h1M56 39h1M57 40h1M57 41h1M44 48h1M47 48h1M35 49h1M45 49h2M41 50h1M45 50h1M41 51h1M46 51h1M36 52h2M46 52h1M36 53h3M36 54h3M42 54h1M36 55h4M36 56h4M35 57h6M35 58h5M36 59h2M43 60h1M44 61h2M46 62h4M43 63h1M50 63h3M42 64h3M53 64h2M42 65h4M55 65h1M40 66h6M50 66h2M56 66h1M36 67h10M50 67h4M57 67h1M36 68h9M50 68h5M57 68h1M36 69h9M50 69h5M37 70h6M50 70h5M38 71h3M49 71h6M49 72h5M48 73h6M47 74h6M41 75h1M45 75h8M43 76h9M45 77h5" />
<path stroke="#8b5a41" d="M40 28h1M43 28h1M46 29h1M49 32h1M34 33h1M50 34h1M29 41h1M55 41h1M55 42h2M30 43h1M53 43h3M50 44h4M48 45h3M35 47h1M41 48h1M39 49h1M38 52h1M45 54h1M40 58h1M38 59h1M49 63h1M45 64h1M45 68h1M57 69h1M57 72h1M46 74h1M44 75h1M53 76h1M51 77h1" />
<path stroke="#bd835a" d="M41 28h2M39 29h5M37 30h7M37 31h6M38 32h3M30 38h1M29 39h2M29 40h1M40 59h2M41 60h2M41 61h2M42 62h1M46 63h3M46 64h4M48 65h2M54 65h1M55 66h1M55 67h2" />
<path stroke="#a4734a" d="M38 29h1M44 29h2M44 30h4M36 31h1M43 31h6M35 32h3M41 32h8M35 33h15M34 34h16M33 35h18M33 36h16M31 37h1M33 37h19M32 38h22M32 39h24M30 40h1M32 40h25M30 41h1M32 41h23M56 41h1M30 42h1M32 42h23M32 43h21M32 44h18M33 45h14M33 46h15M34 47h1M36 47h13M34 48h1M36 48h5M42 48h2M45 48h2M36 49h3M40 49h1M42 49h3M33 50h1M36 50h3M40 50h1M42 50h1M44 50h1M33 51h1M36 51h3M44 51h2M33 52h2M44 52h2M34 53h1M42 53h1M44 53h2M34 54h1M43 54h2M43 55h2M39 59h1M35 60h6M35 61h6M35 62h7M45 62h1M35 63h7M45 63h1M35 64h7M35 65h6M46 65h2M36 66h3M46 66h4M54 66h1M46 67h4M46 68h4M55 68h2M45 69h5M55 69h2M44 70h5M55 70h3M42 71h7M55 71h3M38 72h11M55 72h2M39 73h9M54 73h3M40 74h6M54 74h3M42 75h2M53 75h3M52 76h1M50 77h1" />
<path stroke="#de414a" d="M34 50h1M43 50h1M34 51h1M42 51h1M42 52h1M43 53h1" />
<path stroke="#ff8373" d="M43 51h1M43 52h1" />
</svg>