<svg xmlns="http://www.w3.org/2000/svg" viewBox="0 -0.5 96 96" shape-rendering="crispEdges">
<metadata>Made with Pixels to Svg https://codepen.io/shshaw/pen/XbxvNj</metadata>
<path stroke="#525252" d="M51 32h3M50 33h2M54 33h1M43 34h6M41 35h10M40 36h1M45 36h7M39 37h2M45 37h8M39 38h2M45 38h8M38 39h3M45 39h9M38 40h16M38 41h16M38 42h16M38 43h16M38 44h16M39 45h14M39 46h14M40 47h12M53 47h1M41 48h10M52 48h2M43 49h6M51 49h1M53 49h1M51 50h1M53 50h1M51 51h1M53 51h1M51 52h1M53 52h1M53 53h1M53 54h1M53 55h1M52 56h2" />
<path stroke="#101010" d="M43 33h6M41 34h2M49 34h2M54 34h1M40 35h1M51 35h1M54 35h1M39 36h1M52 36h2M38 37h1M53 37h1M38 38h1M53 38h1M37 39h1M54 39h1M37 40h1M54 40h1M37 41h1M54 41h1M37 42h1M54 42h1M37 43h1M54 43h1M37 44h1M54 44h1M38 45h1M53 45h2M38 46h1M53 46h2M39 47h1M52 47h1M54 47h1M40 48h1M51 48h1M54 48h1M41 49h2M49 49h2M54 49h1M43 50h6M54 50h1M54 51h1M54 52h1M51 53h1M54 53h1M51 54h1M54 54h1M51 55h1M54 55h1M51 56h1M54 56h1M52 57h2" />
<path stroke="#a4a4a4" d="M52 33h1M52 34h2M42 36h2M41 37h1M44 37h1M41 38h1M44 38h1M42 39h2M52 50h1M52 51h1M52 54h1" />
<path stroke="#dedede" d="M53 33h1M42 37h2M42 38h2M52 52h1M52 53h1" />
<path stroke="#737373" d="M51 34h1M52 35h2M41 36h1M44 36h1M41 39h1M44 39h1M52 49h1M52 55h1" />
</svg>