<svg xmlns="http://www.w3.org/2000/svg" viewBox="0 -0.5 96 96" shape-rendering="crispEdges">
<metadata>Made with Pixels to Svg https://codepen.io/shshaw/pen/XbxvNj</metadata>
<path stroke="#525252" d="M48 30h4M45 31h3M43 32h2M49 32h6M42 33h1M46 33h2M52 33h5M41 34h1M44 34h2M54 34h4M41 35h1M43 35h2M55 35h3M42 36h3M55 36h3M43 37h3M54 37h3M44 38h3M48 38h4M53 38h3M46 39h8M45 40h10M48 41h8M43 42h1M48 42h9M43 43h1M48 43h9M42 44h2M48 44h10M42 45h16M42 46h16M42 47h16M43 48h14M43 49h14M44 50h12M45 51h10M46 52h8M48 53h4M46 54h5M48 55h5M50 56h5M52 57h5M53 58h4M50 59h2M53 59h4M48 60h2M53 60h2M46 61h2M51 61h2M44 62h2M49 62h2M43 63h1M47 63h2M45 64h2" />
<path stroke="#dedede" d="M48 31h1M45 32h2M43 33h1M42 34h1M45 42h2M45 43h2M48 61h1M46 62h1M44 63h1" />
<path stroke="#a4a4a4" d="M49 31h2M47 32h1M44 33h1M43 34h1M42 35h1M45 41h2M44 42h1M47 42h1M44 43h1M47 43h1M45 44h2M50 60h2M49 61h1M47 62h1M45 63h1" />
<path stroke="#737373" d="M51 31h1M48 32h1M45 33h1M44 41h1M47 41h1M44 44h1M47 44h1M52 59h1M52 60h1M50 61h1M48 62h1M46 63h1M44 64h1" />
<path stroke="#101010" d="M52 31h3M55 32h2M48 33h4M57 33h1M46 34h2M52 34h2M58 34h1M45 35h1M54 35h1M58 35h1M41 36h1M45 36h1M54 36h1M58 36h1M42 37h1M46 37h1M48 37h4M53 37h1M57 37h1M43 38h1M47 38h1M52 38h1M56 38h1M44 39h2M54 39h2M44 40h1M55 40h1M43 41h1M56 41h1M42 42h1M57 42h1M42 43h1M57 43h1M41 44h1M58 44h1M41 45h1M58 45h1M41 46h1M58 46h1M41 47h1M58 47h1M42 48h1M57 48h1M42 49h1M57 49h1M43 50h1M56 50h1M44 51h1M55 51h1M45 52h1M54 52h1M45 53h3M52 53h2M45 54h1M51 54h2M46 55h2M53 55h2M48 56h2M55 56h2M50 57h2M57 57h1M52 58h1M57 58h1M57 59h1M55 60h2M53 61h2M51 62h2M49 63h2M43 64h1M47 64h2M44 65h3" />
</svg>