<svg xmlns="http://www.w3.org/2000/svg" viewBox="0 -0.5 96 96" shape-rendering="crispEdges">
<metadata>Made with Pixels to Svg https://codepen.io/shshaw/pen/XbxvNj</metadata>
<path stroke="#525252" d="M48 31h3M47 32h1M51 32h1M47 33h1M51 33h1M47 34h1M51 34h1M47 35h1M51 35h1M47 36h1M51 36h1M47 37h1M51 37h1M47 38h1M51 38h1M47 39h1M50 39h2M47 40h1M50 40h2M47 41h1M50 41h2M47 42h1M50 42h2M47 43h1M50 43h2M47 44h1M49 44h3M47 45h1M49 45h3M47 46h1M49 46h3M47 47h2M48 48h4M46 49h8M49 50h6M44 51h1M49 51h7M43 52h2M49 52h8M43 53h2M49 53h8M42 54h16M42 55h16M42 56h16M42 57h16M43 58h14M43 59h14M44 60h12M45 61h10M46 62h8M48 63h4" />
<path stroke="#101010" d="M51 31h1M52 32h1M52 33h1M52 34h1M52 35h1M52 36h1M52 37h1M52 38h1M52 39h1M52 40h1M52 41h1M52 42h1M52 43h1M52 44h1M52 45h1M52 46h1M49 47h4M46 48h2M52 48h2M45 49h1M54 49h1M44 50h1M55 50h1M43 51h1M56 51h1M42 52h1M57 52h1M42 53h1M57 53h1M41 54h1M58 54h1M41 55h1M58 55h1M41 56h1M58 56h1M41 57h1M58 57h1M42 58h1M57 58h1M42 59h1M57 59h1M43 60h1M56 60h1M44 61h1M55 61h1M45 62h1M54 62h1M46 63h2M52 63h2M48 64h4" />
<path stroke="#a4a4a4" d="M48 32h2M50 33h1M50 34h1M49 35h2M48 36h2M48 37h2M48 38h2M48 39h2M48 40h1M48 41h1M48 42h1M48 43h1M48 44h1M48 45h1M46 50h2M45 51h1M48 51h1M45 52h1M48 52h1M46 53h2" />
<path stroke="#737373" d="M50 32h1M50 36h1M50 37h1M50 38h1M49 40h1M49 41h1M49 42h1M49 43h1M48 46h1M45 50h1M48 50h1M45 53h1M48 53h1" />
<path stroke="#dedede" d="M48 33h2M48 34h2M48 35h1M46 51h2M46 52h2" />
</svg>