<svg xmlns="http://www.w3.org/2000/svg" viewBox="0 -0.5 96 96" shape-rendering="crispEdges">
<metadata>Made with Pixels to Svg https://codepen.io/shshaw/pen/XbxvNj</metadata>
<path stroke="#101010" d="M53 33h4M51 34h2M57 34h2M50 35h1M59 35h1M49 36h1M60 36h1M48 37h1M61 37h1M47 38h1M62 38h1M45 39h3M62 39h1M63 40h1M63 41h1M40 42h5M63 42h1M35 43h1M39 43h1M45 43h1M63 43h1M36 44h1M40 44h1M47 44h1M62 44h1M37 45h1M41 45h1M47 45h1M62 45h1M38 46h1M42 46h1M46 46h1M48 46h1M61 46h1M39 47h1M45 47h1M49 47h1M60 47h1M40 48h1M44 48h1M50 48h1M59 48h1M41 49h3M51 49h2M57 49h2M53 50h1M55 50h2M53 51h1M56 51h1M52 52h2M56 52h1M56 53h1M48 54h1M56 54h1M49 55h5M56 55h1M53 56h1M56 56h1M57 57h1M58 58h1M49 61h1M54 61h2M60 61h1M50 62h4M56 62h4" />
<path stroke="#525252" d="M53 34h4M51 35h8M50 36h10M53 37h8M48 38h1M53 38h9M36 39h9M48 39h1M53 39h9M35 40h1M46 40h3M53 40h10M35 41h1M37 41h26M35 42h1M37 42h3M45 42h18M37 43h2M46 43h17M37 44h3M44 44h1M46 44h1M48 44h14M38 45h3M43 45h1M45 45h2M48 45h14M39 46h3M44 46h2M49 46h12M40 47h5M50 47h10M41 48h3M51 48h8M53 49h4M54 50h1M54 51h2M49 52h3M55 52h1M48 53h1M53 53h1M55 53h1M51 54h3M55 54h1M55 55h1M55 56h1M52 57h1M54 57h3M51 58h1M53 58h4M50 59h1M52 59h6M59 59h1M49 60h1M52 60h7M60 60h1M51 61h3M56 61h4" />
<path stroke="#737373" d="M49 37h1M52 37h1M43 40h3M49 40h1M52 40h1M36 43h1M54 52h1M52 53h1M54 53h1M50 54h1M54 54h1M54 55h1M54 56h1M57 58h1M51 60h1" />
<path stroke="#a4a4a4" d="M50 37h2M49 38h1M52 38h1M49 39h1M52 39h1M36 40h1M40 40h3M50 40h2M36 42h1M45 44h1M44 45h1M43 46h1M51 53h1M49 54h1M53 57h1M52 58h1M58 59h1M59 60h1M50 61h1" />
<path stroke="#dedede" d="M50 38h2M50 39h2M37 40h3M36 41h1M49 53h2M51 59h1M50 60h1" />
</svg>