<svg xmlns="http://www.w3.org/2000/svg" viewBox="0 -0.5 96 96" shape-rendering="crispEdges">
<metadata>Made with Pixels to Svg https://codepen.io/shshaw/pen/XbxvNj</metadata>
<path stroke="#101010" d="M45 35h6M43 36h2M51 36h2M42 37h1M53 37h1M41 38h1M54 38h1M40 39h1M55 39h1M40 40h1M55 40h1M39 41h1M56 41h1M39 42h1M56 42h1M39 43h1M56 43h1M39 44h1M56 44h1M39 45h1M56 45h1M40 46h1M55 46h1M40 47h1M55 47h1M41 48h1M55 48h1M40 49h1M54 49h2M39 50h1M53 50h1M55 50h1M39 51h1M44 51h2M50 51h3M55 51h1M39 52h1M43 52h1M46 52h4M55 52h1M40 53h3M55 53h1M55 54h1M55 55h1M52 56h1M55 56h1M52 57h1M55 57h1M52 58h1M55 58h1M52 59h1M55 59h1M53 60h2" />
<path stroke="#525252" d="M45 36h6M43 37h10M42 38h1M47 38h7M41 39h2M47 39h8M41 40h2M47 40h8M40 41h3M47 41h9M40 42h16M40 43h16M40 44h16M40 45h16M41 46h14M41 47h14M42 48h13M41 49h13M40 50h1M42 50h11M54 50h1M43 51h1M46 51h4M53 51h2M40 52h1M42 52h1M52 52h1M54 52h1M52 53h1M54 53h1M52 54h1M54 54h1M52 55h1M54 55h1M54 56h1M54 57h1M54 58h1M53 59h2" />
<path stroke="#737373" d="M43 38h1M46 38h1M43 41h1M46 41h1M41 50h1M40 51h3M41 52h1M53 52h1M53 58h1" />
<path stroke="#a4a4a4" d="M44 38h2M43 39h1M46 39h1M43 40h1M46 40h1M44 41h2M53 53h1M53 56h1M53 57h1" />
<path stroke="#dedede" d="M44 39h2M44 40h2M53 54h1M53 55h1" />
</svg>