<svg xmlns="http://www.w3.org/2000/svg" viewBox="0 -0.5 96 96" shape-rendering="crispEdges">
<metadata>Made with Pixels to Svg https://codepen.io/shshaw/pen/XbxvNj</metadata>
<path stroke="#101010" d="M47 32h4M45 33h2M51 33h2M44 34h1M53 34h1M43 35h1M54 35h1M42 36h1M55 36h1M41 37h1M56 37h1M41 38h1M56 38h1M40 39h1M57 39h1M57 40h1M37 41h1M40 41h1M57 41h1M38 42h3M57 42h1M41 43h1M56 43h1M41 44h1M56 44h1M42 45h1M55 45h1M43 46h1M54 46h1M44 47h1M53 47h1M45 48h2M51 48h2M47 49h1M49 49h2M47 50h1M50 50h2M52 51h1M53 52h1M47 53h4M54 53h1M46 54h1M51 54h1M55 54h1M45 55h1M52 55h1M56 55h2M45 56h1M52 56h1M58 56h1M42 57h1M45 57h1M52 57h1M56 57h1M58 57h1M42 58h1M45 58h1M52 58h1M56 58h2M43 59h1M46 59h1M51 59h1M55 59h1M43 60h1M47 60h4M54 60h1M44 61h1M53 61h1M45 62h2M51 62h2M47 63h4" />
<path stroke="#737373" d="M47 33h2M44 35h1M47 35h1M44 38h1M47 38h1M38 41h1M49 51h1M47 52h1M44 55h1M43 57h1M53 57h1M53 58h1M52 59h1M51 60h1" />
<path stroke="#525252" d="M49 33h2M45 34h8M48 35h6M43 36h1M48 36h7M42 37h2M48 37h8M42 38h2M48 38h8M38 39h2M41 39h16M37 40h1M40 40h17M39 41h1M41 41h16M41 42h16M42 43h14M42 44h14M43 45h12M44 46h10M45 47h8M47 48h4M48 49h1M46 50h1M48 50h2M45 51h1M50 51h2M44 52h1M48 52h5M43 53h1M46 53h1M51 53h3M43 54h1M45 54h1M52 54h3M42 55h1M53 55h3M42 56h1M44 56h1M53 56h5M44 57h1M54 57h2M57 57h1M43 58h2M54 58h2M44 59h2M53 59h2M44 60h3M52 60h2M45 61h8M47 62h4" />
<path stroke="#a4a4a4" d="M45 35h2M44 36h1M47 36h1M44 37h1M47 37h1M45 38h2M39 40h1M47 51h2M46 52h1M45 53h1M44 54h1M43 55h1M43 56h1" />
<path stroke="#dedede" d="M45 36h2M45 37h2M38 40h1M46 51h1M45 52h1M44 53h1" />
</svg>