<svg xmlns="http://www.w3.org/2000/svg" viewBox="0 -0.5 96 96" shape-rendering="crispEdges">
<metadata>Made with Pixels to Svg https://codepen.io/shshaw/pen/XbxvNj</metadata>
<path stroke="#101010" d="M34 32h2M33 33h1M37 33h1M47 33h7M33 34h1M38 34h1M54 34h2M34 35h1M56 35h1M35 36h2M43 36h10M57 36h1M37 37h1M42 37h1M53 37h1M57 37h1M38 38h1M41 38h1M54 38h1M57 38h1M38 39h1M41 39h1M54 39h1M57 39h1M38 40h1M42 40h1M53 40h1M57 40h1M39 41h1M43 41h1M52 41h1M56 41h1M40 42h1M44 42h2M50 42h2M55 42h1M41 43h1M46 43h4M54 43h1M42 44h1M53 44h1M43 45h2M51 45h2M42 46h1M53 46h1M41 47h1M54 47h1M40 48h1M55 48h1M40 49h1M55 49h1M39 50h1M56 50h1M39 51h1M56 51h1M39 52h1M56 52h1M39 53h1M56 53h1M39 54h1M56 54h1M40 55h1M55 55h1M40 56h1M55 56h1M41 57h1M54 57h1M42 58h1M53 58h1M43 59h2M51 59h2M45 60h6" />
<path stroke="#525252" d="M36 32h1M34 33h1M42 33h5M34 34h1M40 34h2M48 34h6M35 35h2M39 35h1M44 35h12M37 36h2M42 36h1M53 36h4M38 37h1M41 37h1M54 37h3M40 38h1M55 38h2M40 39h1M55 39h2M40 40h2M54 40h3M40 41h3M53 41h3M41 42h3M52 42h3M42 43h4M50 43h4M43 44h10M45 45h6M43 46h10M42 47h1M47 47h7M41 48h2M47 48h8M41 49h2M47 49h8M40 50h3M47 50h9M40 51h16M40 52h16M40 53h16M40 54h16M41 55h14M41 56h14M42 57h12M43 58h10M45 59h6" />
<path stroke="#a4a4a4" d="M35 33h2M36 34h2M42 34h1M45 34h2M40 35h1M43 35h1M39 36h1M41 36h1M40 37h1M39 39h1M44 47h2M43 48h1M46 48h1M43 49h1M46 49h1M44 50h2" />
<path stroke="#737373" d="M35 34h1M47 34h1M37 35h2M39 40h1M43 47h1M46 47h1M43 50h1M46 50h1" />
<path stroke="#dedede" d="M43 34h2M41 35h2M40 36h1M39 37h1M39 38h1M44 48h2M44 49h2" />
</svg>