<svg xmlns="http://www.w3.org/2000/svg" viewBox="0 -0.5 96 96" shape-rendering="crispEdges">
<metadata>Made with Pixels to Svg https://codepen.io/shshaw/pen/XbxvNj</metadata>
<path stroke="#525252" d="M44 32h6M42 33h2M51 33h1M40 34h2M45 34h9M39 35h1M42 35h2M52 35h4M38 36h1M41 36h1M54 36h3M37 37h1M40 37h1M55 37h3M36 38h1M39 38h1M45 38h6M56 38h3M35 39h1M38 39h1M43 39h10M55 39h4M35 40h1M37 40h1M46 40h10M57 40h3M34 41h1M37 41h1M41 41h1M46 41h9M58 41h2M34 42h1M36 42h1M41 42h1M46 42h9M58 42h3M34 43h1M36 43h1M40 43h2M46 43h10M59 43h2M36 44h2M40 44h16M59 44h2M39 45h17M59 45h2M35 46h4M40 46h16M59 46h2M40 47h16M59 47h2M40 48h16M59 48h2M41 49h14M59 49h2M41 50h14M58 50h3M42 51h12M58 51h2M43 52h10M57 52h3M45 53h6M56 53h3M55 54h3M54 55h3M47 56h2M53 56h3M46 57h1M51 57h3M46 58h1M48 58h4M46 59h1M48 59h2M46 60h1M48 60h1M48 61h1M48 62h1" />
<path stroke="#101010" d="M50 32h2M52 33h2M54 34h2M44 35h8M56 35h1M42 36h2M52 36h2M57 36h1M41 37h1M45 37h6M54 37h1M58 37h1M40 38h1M43 38h2M51 38h2M54 38h1M59 38h1M39 39h1M42 39h1M53 39h1M59 39h1M38 40h1M41 40h1M56 40h1M60 40h1M38 41h1M40 41h1M55 41h1M57 41h1M60 41h1M37 42h1M40 42h1M55 42h1M57 42h1M61 42h1M37 43h1M39 43h1M56 43h1M58 43h1M61 43h1M34 44h1M38 44h2M56 44h1M58 44h1M61 44h1M34 45h1M56 45h1M58 45h1M61 45h1M34 46h1M39 46h1M56 46h1M58 46h1M61 46h1M35 47h5M56 47h1M58 47h1M61 47h1M39 48h1M56 48h1M58 48h1M61 48h1M40 49h1M55 49h1M58 49h1M61 49h1M40 50h1M55 50h1M57 50h1M61 50h1M41 51h1M54 51h1M57 51h1M60 51h1M42 52h1M53 52h1M56 52h1M60 52h1M43 53h2M51 53h2M55 53h1M59 53h1M45 54h6M53 54h2M58 54h1M51 55h2M57 55h1M49 56h2M56 56h1M54 57h2M52 58h2M50 59h2M49 60h1M46 61h1M49 61h1M46 62h1M49 62h1M47 63h2" />
<path stroke="#dedede" d="M44 33h1M42 34h1M40 35h1M39 36h1M38 37h1M37 38h1M36 39h1M43 41h2M43 42h2M47 58h1M47 59h1" />
<path stroke="#a4a4a4" d="M45 33h3M43 34h1M41 35h1M36 40h1M43 40h2M35 41h1M42 41h1M45 41h1M35 42h1M42 42h1M45 42h1M35 43h1M43 43h2M47 57h2M47 60h1M47 61h1" />
<path stroke="#737373" d="M48 33h3M44 34h1M40 36h1M39 37h1M38 38h1M55 38h1M37 39h1M54 39h1M42 40h1M45 40h1M36 41h1M42 43h1M45 43h1M35 44h1M35 45h4M53 55h1M51 56h2M49 57h2M47 62h1" />
</svg>