<svg xmlns="http://www.w3.org/2000/svg" viewBox="0 -0.5 96 96" shape-rendering="crispEdges">
<metadata>Made with Pixels to Svg https://codepen.io/shshaw/pen/XbxvNj</metadata>
<path stroke="#525252" d="M45 32h2M43 33h2M42 34h1M46 34h2M56 34h2M41 35h1M44 35h4M58 35h1M40 36h1M43 36h3M55 36h2M59 36h1M39 37h1M42 37h2M55 37h3M60 37h1M38 38h1M41 38h2M57 38h2M37 39h1M40 39h2M58 39h3M36 40h1M39 40h2M47 40h6M59 40h4M36 41h1M39 41h1M45 41h10M60 41h3M35 42h1M38 42h2M48 42h8M60 42h4M35 43h1M38 43h1M43 43h1M48 43h9M61 43h3M35 44h1M37 44h2M43 44h1M48 44h9M61 44h3M34 45h1M37 45h1M42 45h2M48 45h10M62 45h3M34 46h1M37 46h2M42 46h16M61 46h4M34 47h1M36 47h29M34 48h1M36 48h5M42 48h16M59 48h6M36 49h3M42 49h16M61 49h4M35 50h3M42 50h16M62 50h3M36 51h3M43 51h14M61 51h3M36 52h3M43 52h14M61 52h3M36 53h4M44 53h12M60 53h4M37 54h3M45 54h10M60 54h3M37 55h4M47 55h6M59 55h4M38 56h4M58 56h4M39 57h4M58 57h3M41 58h4M57 58h3M42 59h3M56 59h3M44 60h1M54 60h4M52 61h5M52 62h3" />
<path stroke="#101010" d="M47 32h1M48 33h1M48 34h1M55 34h1M48 35h1M54 35h1M46 36h2M54 36h1M44 37h2M54 37h1M43 38h1M55 38h2M61 38h1M42 39h1M47 39h6M57 39h1M62 39h1M41 40h1M45 40h2M53 40h2M58 40h1M63 40h1M40 41h1M44 41h1M55 41h1M59 41h1M63 41h1M40 42h1M43 42h1M56 42h1M59 42h1M64 42h1M39 43h1M42 43h1M57 43h1M60 43h1M64 43h1M39 44h1M42 44h1M57 44h1M60 44h1M64 44h1M38 45h1M41 45h1M58 45h1M61 45h1M65 45h1M39 46h3M58 46h3M65 46h1M65 47h1M41 48h1M58 48h1M65 48h1M34 49h1M39 49h3M58 49h3M65 49h1M34 50h1M38 50h1M41 50h1M58 50h1M61 50h1M65 50h1M35 51h1M39 51h1M42 51h1M57 51h1M60 51h1M64 51h1M35 52h1M39 52h1M42 52h1M57 52h1M60 52h1M64 52h1M35 53h1M40 53h1M43 53h1M56 53h1M59 53h1M64 53h1M36 54h1M40 54h1M44 54h1M55 54h1M59 54h1M63 54h1M36 55h1M41 55h1M45 55h2M53 55h2M58 55h1M63 55h1M37 56h1M42 56h1M47 56h6M57 56h1M62 56h1M38 57h1M43 57h2M56 57h1M61 57h1M39 58h1M45 58h1M54 58h2M60 58h1M40 59h1M45 59h1M52 59h2M59 59h1M41 60h1M45 60h1M51 60h1M58 60h1M42 61h3M51 61h1M57 61h1M51 62h1M55 62h2M52 63h3" />
<path stroke="#dedede" d="M45 33h1M43 34h1M42 35h1M57 35h1M41 36h1M58 36h1M40 37h1M39 38h1M38 39h1M37 40h1M36 42h1M45 43h2M45 44h2M35 45h1" />
<path stroke="#a4a4a4" d="M46 33h1M44 34h1M43 35h1M56 35h1M59 37h1M60 38h1M38 40h1M37 41h1M37 42h1M45 42h2M36 43h1M44 43h1M47 43h1M36 44h1M44 44h1M47 44h1M36 45h1M45 45h2M35 46h1M35 47h1" />
<path stroke="#737373" d="M47 33h1M45 34h1M55 35h1M42 36h1M57 36h1M41 37h1M58 37h1M40 38h1M59 38h1M39 39h1M61 39h1M38 41h1M44 42h1M47 42h1M37 43h1M44 45h1M47 45h1M36 46h1M35 48h1M35 49h1M57 57h1M40 58h1M56 58h1M41 59h1M54 59h2M42 60h2M52 60h2" />
</svg>