<svg xmlns="http://www.w3.org/2000/svg" viewBox="0 -0.5 96 96" shape-rendering="crispEdges">
<metadata>Made with Pixels to Svg https://codepen.io/shshaw/pen/XbxvNj</metadata>
<path stroke="#bd004a" d="M40 28h3M64 28h2M43 29h1M47 29h2M59 29h2M63 29h1M46 30h1M58 30h1M61 30h1M45 31h1M59 35h1M58 36h1M58 37h1M47 38h1M57 38h1M48 39h1M57 39h1M49 40h1M56 40h1M32 41h2M49 41h1M34 42h1M27 43h2M26 44h1M29 44h2" />
<path stroke="#7b0008" d="M66 28h1M39 29h1M43 30h1M49 30h1M62 30h1M44 31h1M49 31h1M58 31h1M62 31h1M44 32h1M59 32h1M59 33h2M45 34h1M60 34h1M46 36h1M47 37h1M43 38h1M40 39h3M64 39h2M39 40h1M66 40h1M39 41h1M55 41h1M64 41h1M66 41h1M50 42h1M54 42h1M60 42h2M34 43h1M51 43h3M65 43h1M34 44h1M64 44h1M26 45h1M31 45h1M34 45h2M44 45h1M64 45h1M36 46h2M60 46h1M63 46h1M38 47h2M59 47h1M63 47h1M40 48h1M33 49h1M65 49h2M36 50h1M60 50h1M64 50h1M38 51h1M58 51h1M63 51h1M38 52h1M60 52h2M67 54h1M68 55h2M58 56h1M70 56h1M59 57h1M63 57h1M61 60h2" />
<path stroke="#e66294" d="M40 29h1M66 29h1M40 30h2M48 30h1M65 30h2M41 31h2M47 31h2M59 31h3M64 31h2M41 32h2M46 32h2M60 32h6M41 33h6M61 33h4M42 34h3M46 34h1M61 34h4M42 35h3M61 35h3M42 36h3M61 36h3M43 37h3M61 37h2M44 38h2M60 38h3M43 39h3M60 39h3M40 40h7M59 40h5M65 40h1M40 41h7M58 41h6M44 42h4M57 42h3M62 42h3M32 43h1M45 43h4M54 43h7M63 43h1M32 44h2M45 44h3M52 44h8M61 44h2M27 45h2M32 45h2M53 45h7M61 45h3M28 46h6M43 46h1M52 46h7M62 46h1M30 47h6M42 47h1M51 47h8M60 47h2M32 48h8M41 48h2M48 48h15M34 49h30M33 50h3M37 50h22M62 50h2M65 50h2M33 51h2M37 51h1M39 51h19M59 51h3M64 51h3M39 52h21M62 52h4M39 53h27M39 54h28M39 55h5M46 55h22M39 56h1M42 56h2M46 56h7M55 56h3M60 56h10M43 57h9M55 57h4M61 57h2M66 57h4M44 58h4M51 58h1M54 58h6M61 58h3M68 58h2M44 59h4M52 59h3M57 59h1M61 59h2M45 60h2M52 60h2M50 61h5M51 62h2" />
<path stroke="#ffa4c5" d="M41 29h2M64 29h2M42 30h1M47 30h1M59 30h2M63 30h2M43 31h1M46 31h1M63 31h1M43 32h1M45 32h1M45 35h1M60 35h1M45 36h1M59 36h2M46 37h1M59 37h2M46 38h1M58 38h2M46 39h2M58 39h2M47 40h2M57 40h2M47 41h2M56 41h2M32 42h2M48 42h2M55 42h2M33 43h1M49 43h2M27 44h2M48 44h1M51 44h1M29 45h2M45 45h1M52 45h1M34 46h2M44 46h1M51 46h1M36 47h2M43 47h1M50 47h1M43 48h1M47 48h1" />
<path stroke="#000000" d="M67 29h1M39 30h1M67 30h1M40 31h1M66 31h1M40 32h1M48 32h1M66 32h1M40 33h1M47 33h1M65 33h1M41 34h1M47 34h1M65 34h1M41 35h1M46 35h1M64 35h1M41 36h1M64 36h1M42 37h1M63 37h1M42 38h1M63 38h1M63 39h1M64 40h1M65 41h1M31 42h1M40 42h4M65 42h1M31 43h1M44 43h1M61 43h2M64 43h1M31 44h1M44 44h1M60 44h1M63 44h1M43 45h1M60 45h1M26 46h2M42 46h1M59 46h1M61 46h1M28 47h2M40 47h2M62 47h1M30 48h2M63 48h1M32 49h1M64 49h1M32 50h1M59 50h1M61 50h1M67 50h1M32 51h1M35 51h2M62 51h1M67 51h1M33 52h2M37 52h1M66 52h1M38 53h1M66 53h1M38 54h1M38 55h1M38 56h1M59 56h1M39 57h1M60 57h1M64 57h2M70 57h1M39 58h1M60 58h1M64 58h1M66 58h2M70 58h1M40 59h1M60 59h1M63 59h1M68 59h2M41 60h1M60 60h1M63 60h1M41 61h2M62 61h1M41 62h1M63 62h1M40 63h1M44 63h3M59 63h2M64 63h1M40 64h1M43 64h1M47 64h5M57 64h2M61 64h1M64 64h1M41 65h2M52 65h1M56 65h1M62 65h2M52 66h1M56 66h1M52 67h1M56 67h1M53 68h3" />
<path stroke="#ffcde6" d="M49 44h2M46 45h6M45 46h6M44 47h6M44 48h3" />
<path stroke="#acc5de" d="M44 55h2M40 56h2M44 56h2M53 56h2M40 57h3M52 57h3M40 58h4M48 58h3M52 58h2M41 59h3M48 59h4M55 59h2M58 59h2M42 60h3M47 60h5M54 60h6M43 61h7M55 61h7M42 62h1M44 62h7M53 62h7M62 62h1M41 63h3M48 63h8M57 63h1M61 63h3M41 64h2M53 64h3M62 64h1M53 65h3M53 66h3M53 67h3" />
<path stroke="#5a7bac" d="M43 62h1M60 62h2M47 63h1M56 63h1M58 63h1M52 64h1M56 64h1M63 64h1" />
</svg>