<svg xmlns="http://www.w3.org/2000/svg" viewBox="0 -0.5 96 96" shape-rendering="crispEdges">
<metadata>Made with Pixels to Svg https://codepen.io/shshaw/pen/XbxvNj</metadata>
<path stroke="#8b8352" d="M39 23h2M38 24h1M41 24h1M42 25h1M43 26h2M38 28h1M35 29h1M34 30h1M33 31h1M33 32h1M53 34h1M53 35h2M54 36h2M54 37h2M55 38h2M33 39h1M56 39h1M33 40h2M33 41h2M33 42h1M39 45h3M39 46h2M61 47h1M61 48h2M61 49h1M55 57h1M51 58h1M51 59h3M52 60h2M55 61h1M36 65h2M45 65h3M44 68h1M50 68h1M52 69h1" />
<path stroke="#dedebd" d="M39 24h2M39 25h2M39 26h3M39 27h4M37 28h1M39 28h6M36 29h10M35 30h11M34 31h12M34 32h11M33 33h12M33 34h11M34 35h9M35 36h6M53 42h2M54 43h1M63 43h2M63 44h4M62 45h3M62 46h4M62 47h2M51 49h1M52 50h2M63 50h1M48 51h1M54 51h2M63 51h1M38 52h1M48 52h2M55 52h2M62 52h2M38 53h1M48 53h2M62 53h2M37 54h3M47 54h2M25 55h3M36 55h4M47 55h2M23 56h2M36 56h5M47 56h1M53 56h2M58 56h2M22 57h2M37 57h4M52 57h1M56 57h3M21 58h1M38 58h3M54 58h3M39 59h2M39 60h1M32 64h3M29 65h4M27 66h4M51 69h1M53 69h1M52 70h1M54 70h1" />
<path stroke="#4a3910" d="M38 25h1M43 25h4M38 26h1M47 26h3M38 27h1M50 27h1M53 33h1M54 34h1M32 35h1M55 35h1M32 36h1M56 36h1M33 37h1M56 37h1M32 38h1M34 38h2M57 38h1M32 39h1M36 39h3M49 39h1M32 40h1M52 40h1M42 43h6M39 44h3M48 44h3M51 45h1M42 46h7M39 47h3M49 47h2M51 48h1M53 49h1M59 49h1M63 49h1M38 50h1M55 50h1M58 50h1M64 50h1M38 51h1M49 51h1M57 51h1M64 51h1M50 52h1M64 52h1M64 53h1M25 54h7M49 54h1M63 54h1M23 55h1M32 55h2M49 55h1M53 55h2M22 56h1M34 56h2M51 56h2M55 56h2M61 56h1M21 57h1M27 57h1M36 57h1M48 57h1M50 57h1M53 57h2M61 57h1M20 58h1M25 58h2M32 58h1M48 58h1M52 58h2M60 58h1M20 59h1M47 59h2M58 59h2M47 60h1M55 60h1M35 61h1M46 61h1M49 61h2M54 61h1M36 62h1M46 62h1M31 63h1M20 64h1M29 64h1M38 64h4M47 64h1M26 65h2M44 65h1M35 66h1M48 66h1M23 67h1M49 67h1M33 68h1M51 68h3M53 70h1" />
<path stroke="#acac8b" d="M41 25h1M42 26h1M45 26h2M43 27h7M45 28h7M46 29h7M46 30h7M46 31h7M45 32h7M45 33h7M44 34h7M33 35h1M43 35h7M33 36h2M41 36h7M34 37h11M36 38h6M45 38h2M42 39h6M37 40h13M38 41h15M39 42h14M40 43h2M48 43h6M51 44h3M42 47h7M64 47h3M40 48h11M63 48h3M40 49h1M43 49h8M40 50h1M43 50h4M50 50h2M59 50h1M40 51h3M45 51h3M52 51h2M58 51h5M39 52h1M42 52h1M45 52h3M54 52h1M57 52h5M39 53h1M42 53h6M56 53h6M40 54h7M58 54h5M28 55h4M40 55h7M25 56h9M41 56h6M60 56h1M24 57h3M31 57h5M41 57h7M49 57h1M51 57h1M59 57h2M22 58h3M33 58h4M41 58h7M49 58h2M57 58h3M21 59h3M34 59h4M41 59h6M55 59h3M21 60h3M35 60h3M40 60h7M48 60h3M20 61h3M34 61h1M36 61h3M40 61h6M47 61h2M20 62h3M34 62h2M37 62h2M40 62h6M20 63h3M33 63h1M35 63h12M21 64h3M31 64h1M36 64h1M44 64h3M21 65h4M33 65h1M22 66h5M31 66h1M24 67h5M34 68h5M45 68h5M32 69h7M43 69h8M32 70h7M43 70h9M44 71h9" />
<path stroke="#6a5a31" d="M37 27h1M36 28h1M52 32h1M32 33h1M32 34h1M52 34h1M51 35h2M50 36h4M48 37h6M33 38h1M48 38h7M34 39h2M50 39h6M35 40h1M53 40h4M35 41h2M34 42h3M63 42h1M33 43h3M62 43h1M42 44h6M62 44h1M42 45h9M61 45h1M41 46h1M49 46h2M61 46h1M60 47h1M60 48h1M52 49h1M60 49h1M62 49h1M47 50h1M54 50h1M56 51h1M37 52h1M37 53h1M36 54h1M24 55h1M35 55h1M48 56h2M57 56h1M37 58h1M38 59h1M20 60h1M38 60h1M39 61h1M56 61h1M39 62h1M32 63h1M30 64h1M28 65h1M36 66h2M45 66h3M35 67h3M45 67h4" />
<path stroke="#101010" d="M51 27h1M52 28h1M53 29h1M53 30h1M53 31h1M53 32h1M52 33h1M51 34h1M50 35h1M48 36h2M45 37h3M42 38h3M47 38h1M39 39h3M48 39h1M57 39h1M36 40h1M50 40h2M57 40h1M32 41h1M37 41h1M53 41h4M32 42h1M37 42h2M55 42h1M32 43h1M36 43h1M39 43h1M55 43h1M33 44h3M54 44h1M38 45h1M52 45h2M38 46h1M51 46h1M39 48h1M39 49h1M64 49h2M48 50h2M60 50h3M50 51h2M52 52h2M50 53h1M54 53h2M56 54h2M58 55h5M28 57h3M31 58h1M24 59h1M33 59h1M49 59h2M54 59h1M24 60h1M34 60h1M51 60h1M54 60h1M56 60h2M19 61h1M23 61h1M33 61h1M51 61h3M57 61h1M19 62h1M23 62h1M33 62h1M47 62h2M54 62h3M19 63h1M23 63h1M34 63h1M47 63h1M24 64h1M35 64h1M37 64h1M42 64h2M20 65h1M25 65h1M34 65h2M38 65h1M48 65h1M21 66h1M32 66h2M38 66h1M44 66h1M22 67h1M29 67h3M34 67h1M38 67h1M44 67h1M50 67h1M24 68h5M32 68h1M39 68h1M43 68h1M31 69h1M39 69h1M42 69h1M54 69h1M31 70h1M39 70h1M42 70h1M55 70h1M32 71h7M42 71h2M53 71h3M44 72h9" />
<path stroke="#189c00" d="M67 38h3M65 39h2M70 39h2M64 40h1M72 40h2M63 41h1M73 42h2M69 43h7M67 44h5M74 44h2M65 45h5M66 46h2M70 46h2M67 47h3M41 49h2M39 50h1M41 50h2M39 51h1M43 51h2M40 52h2M43 52h2M40 53h2" />
<path stroke="#41c518" d="M67 39h1M69 39h1M65 40h1M71 40h1M73 41h1M72 42h1M68 43h1" />
<path stroke="#6ade41" d="M68 39h1M66 40h5M64 41h9M64 42h8M65 43h3" />
<path stroke="#086200" d="M74 41h1M75 42h1M76 43h1M72 44h2M76 44h1M70 45h2M74 45h3M68 46h2M72 46h1M70 47h2M66 48h4" />
</svg>