<svg xmlns="http://www.w3.org/2000/svg" viewBox="0 -0.5 96 96" shape-rendering="crispEdges">
<metadata>Made with Pixels to Svg https://codepen.io/shshaw/pen/XbxvNj</metadata>
<path stroke="#948318" d="M50 29h2M49 30h1M46 31h1M48 31h1M36 32h3M41 32h2M45 32h1M39 33h2M43 33h1M45 33h1M44 34h1M46 34h1M44 35h1M46 35h1M50 35h2M43 36h1M48 36h1M52 36h2M42 37h1M54 37h2M39 38h1M56 38h1M38 39h1M54 39h1M57 39h1M38 40h1M55 40h1M58 40h1M37 41h1M37 42h1M36 43h1M36 44h1M35 45h1M35 46h1M35 47h1M35 48h1" />
<path stroke="#000000" d="M52 29h1M52 30h1M47 31h1M52 31h1M47 32h1M51 32h1M35 33h1M41 33h1M47 33h1M51 33h1M36 34h1M41 34h1M50 34h1M37 35h1M42 35h1M49 35h1M38 36h2M40 37h2M56 41h1M58 41h1M57 42h1M58 43h1M58 44h1M59 45h1M59 46h1M59 47h1M59 48h1M35 49h1M58 49h1M36 50h1M57 50h1M37 51h1M55 51h2M38 52h2M53 52h2M40 53h3M50 53h3M55 53h1M43 54h7M53 54h2M40 55h1M52 55h1M39 56h1M52 56h1M39 57h1M38 58h1M53 58h1M38 59h1M53 59h1M38 60h1M53 60h1M39 61h1M52 61h1M39 62h1M39 63h2M44 63h4M41 64h4M47 64h2M53 64h1M49 65h4" />
<path stroke="#ffe652" d="M50 30h2M49 31h2M46 32h1M48 32h2M36 33h3M42 33h1M46 33h1M48 33h2M38 34h3M43 34h1M40 35h2M49 36h3M51 37h3M41 38h2M53 38h3M40 39h4M55 39h2M39 40h5M56 40h2M39 41h4M38 42h5M37 43h5M37 44h4M37 45h2" />
<path stroke="#decd31" d="M51 31h1M50 32h1M50 33h1M37 34h1M42 34h1M45 34h1M47 34h3M38 35h2M43 35h1M45 35h1M47 35h2M40 36h3M44 36h4M43 37h8M40 38h1M43 38h10M39 39h1M44 39h10M44 40h11M38 41h1M43 41h13M57 41h1M43 42h14M42 43h16M41 44h17M36 45h1M39 45h20M36 46h23M36 47h23M36 48h23M36 49h22M37 50h20M38 51h17M40 52h13M43 53h7" />
<path stroke="#f6e6ac" d="M55 52h1M54 53h1" />
<path stroke="#8b834a" d="M56 52h1M41 54h1M40 62h1M51 62h2M41 63h2M53 63h1M49 64h1" />
<path stroke="#dec583" d="M53 53h1M42 54h1M50 54h3M41 55h11M40 56h1M46 56h6M49 57h2M50 62h1M48 63h5M50 64h3" />
<path stroke="#8b105a" d="M41 56h5M40 57h1M46 57h3M52 57h1M49 58h2M39 60h1M52 60h1M40 61h1M41 62h2M48 62h2M43 63h1" />
<path stroke="#de4a7b" d="M41 57h5M51 57h1M39 58h10M39 59h12M40 60h12M41 61h11M43 62h5" />
<path stroke="#ff94a4" d="M51 58h2M51 59h2" />
</svg>