<svg xmlns="http://www.w3.org/2000/svg" viewBox="0 -0.5 96 96" shape-rendering="crispEdges">
<metadata>Made with Pixels to Svg https://codepen.io/shshaw/pen/XbxvNj</metadata>
<path stroke="#7b5200" d="M40 25h3M48 25h3M39 26h1M47 26h1M38 27h1M46 27h1M38 28h1M41 28h1M46 28h1M49 28h1M38 29h1M46 29h1M38 30h1M43 30h1M46 30h1M51 30h1M29 31h1M32 31h1M38 31h1M41 31h1M46 31h1M49 31h1M51 31h1M26 32h2M38 32h1M46 32h1M51 32h1M63 32h1M25 33h1M34 33h1M38 33h1M45 33h1M51 33h1M64 33h1M66 33h1M25 34h1M34 34h1M38 34h1M42 34h1M45 34h1M51 34h1M60 34h2M67 34h1M34 35h1M38 35h1M41 35h1M50 35h2M59 35h1M68 35h1M38 36h1M41 36h1M68 36h1M68 37h1M33 38h1M24 39h1M33 39h1M67 40h1M67 41h1M31 42h1M26 43h1M32 43h3M54 43h1M58 43h1M61 43h1M66 43h1M28 44h1M34 44h1M53 44h1M56 44h2M63 44h1M30 45h2M34 45h1M63 46h1M52 47h2M57 47h1M61 47h1M63 47h1M54 48h1M61 48h1M54 49h1M53 50h1M52 53h1M37 54h1M51 54h1M38 55h1M50 55h1M40 56h1M46 56h1M35 59h1M34 60h1M52 60h1M33 61h1M47 61h1M53 61h2M47 62h1M55 62h1M54 63h1" />
<path stroke="#ffcd31" d="M40 26h3M48 26h3M39 27h1M42 27h1M47 27h2M50 27h1M39 28h1M47 28h1M39 29h1M47 29h1M28 32h4M28 33h4M62 34h2M42 35h3M61 35h3M27 36h4M50 36h1M27 37h4M37 37h2M50 37h2M37 38h2M51 38h2M60 38h4M36 39h3M52 39h1M59 39h4M36 40h2M52 40h2M59 40h3M37 41h1M53 41h1M53 42h1M52 61h1M53 62h2" />
<path stroke="#b46a00" d="M43 26h1M51 26h1M43 27h1M51 27h1M43 28h1M51 28h1M43 29h1M51 29h1M30 31h2M33 32h1M62 33h2M44 34h1M65 34h2M37 36h1M49 36h1M52 36h1M36 37h1M48 37h1M52 37h1M48 38h1M53 38h1M35 39h1M53 39h1M35 40h1M54 40h1M35 41h1M54 41h1M34 42h1M54 42h1M38 60h2M48 61h1" />
<path stroke="#cd8b00" d="M40 27h2M49 27h1M40 28h1M42 28h1M48 28h1M50 28h1M40 29h1M42 29h1M48 29h1M50 29h1M40 30h1M42 30h1M48 30h1M50 30h1M40 31h1M42 31h1M48 31h1M50 31h1M32 32h1M40 32h3M48 32h3M26 33h1M33 33h1M40 33h3M46 33h1M48 33h3M26 34h1M33 34h1M40 34h2M46 34h1M48 34h3M40 35h1M48 35h2M60 35h1M65 35h3M40 36h1M44 36h1M47 36h2M67 36h1M25 37h1M31 37h1M40 37h6M47 37h1M25 38h1M32 38h1M40 38h8M49 38h1M64 38h1M25 39h1M39 39h12M64 39h3M39 40h13M63 40h4M27 41h5M39 41h13M65 41h2M26 42h5M35 42h2M38 42h15M66 42h1M27 43h5M35 43h18M59 43h2M29 44h5M35 44h18M58 44h5M35 45h29M36 46h27M39 47h13M58 47h3M42 48h6M35 49h1M36 50h4M50 50h1M39 51h11M42 52h6M38 54h2M50 54h1M39 55h11M41 56h5M34 61h6M34 62h5M48 62h4M48 63h5" />
<path stroke="#6a6a6a" d="M30 29h2M27 30h3M32 30h2M26 31h1M34 31h1M61 31h2M64 31h2M34 32h1M60 32h1M66 32h3M60 33h1M69 33h1M27 34h6M26 35h7M26 36h1M31 36h1M61 36h3M60 37h4M27 38h5M59 38h1M35 46h1M38 47h1M41 48h1M48 48h1M36 49h1M35 50h1M40 50h1M49 50h1M38 51h1M50 51h1M41 52h1M48 52h1M40 54h1M49 54h1" />
<path stroke="#101010" d="M41 29h1M49 29h1M41 30h1M49 30h1M43 31h1M43 32h1M43 33h1M43 34h1M69 34h1M25 35h1M45 35h1M69 35h1M25 36h1M33 36h2M45 36h1M59 36h1M33 37h2M59 37h1M68 38h1M58 39h1M68 39h1M24 40h1M33 40h1M58 40h1M68 40h1M24 41h1M33 41h1M68 41h1M32 42h1M57 42h1M67 42h1M67 43h1M26 44h2M54 44h2M66 44h1M28 45h2M32 45h2M65 45h1M34 46h1M64 46h1M34 47h1M54 47h3M62 47h1M34 48h1M58 48h3M34 49h1M34 50h1M35 51h1M52 51h2M35 52h1M36 53h1M37 55h1M37 56h3M47 56h4M37 57h3M41 57h5M47 57h2M36 58h2M48 58h2M36 59h1M39 59h1M48 59h2M36 60h2M40 60h1M48 60h3M40 61h1M49 61h2M33 62h1M39 62h1M34 63h5M47 63h1M55 63h1M48 64h6" />
<path stroke="#ffffff" d="M30 30h1M27 31h1M33 31h1M61 32h2M64 32h2M61 33h1" />
<path stroke="#cdcdcd" d="M31 30h1M65 33h1M67 33h2M68 34h1" />
<path stroke="#e6ac18" d="M39 30h1M47 30h1M39 31h1M47 31h1M39 32h1M47 32h1M27 33h1M32 33h1M39 33h1M47 33h1M39 34h1M47 34h1M64 34h1M39 35h1M46 35h2M64 35h1M39 36h1M42 36h2M46 36h1M51 36h1M26 37h1M39 37h1M46 37h1M49 37h1M26 38h1M36 38h1M39 38h1M50 38h1M51 39h1M63 39h1M38 40h1M62 40h1M36 41h1M38 41h1M52 41h1M37 42h1M53 43h1M51 50h2M51 53h1M35 60h1M52 62h1M53 63h1" />
<path stroke="#a4a4a4" d="M28 31h1" />
<path stroke="#313131" d="M33 35h1M32 36h1M60 36h1M64 36h3M24 37h1M32 37h1M64 37h4M24 38h1M65 38h3M26 39h7M67 39h1M25 40h8M25 41h2M32 41h1M58 41h7M25 42h1M58 42h8M25 43h1M57 43h1M62 43h4M64 44h2M64 45h1M35 47h3M35 48h6M49 48h5M37 49h17M41 50h8M36 51h2M51 51h1M36 52h5M49 52h4M37 53h14M41 54h8M49 57h1M38 58h1M50 58h1M37 59h2M50 59h1M51 60h1M51 61h1" />
</svg>