<svg xmlns="http://www.w3.org/2000/svg" viewBox="0 -0.5 96 96" shape-rendering="crispEdges">
<metadata>Made with Pixels to Svg https://codepen.io/shshaw/pen/XbxvNj</metadata>
<path stroke="#6a8b39" d="M44 25h6M41 26h3M39 27h2M44 27h2M38 28h1M41 28h9M53 28h1M37 29h1M39 29h13M54 29h1M36 30h1M38 30h6M50 30h3M55 30h1M37 31h5M44 31h6M52 31h1M55 31h2M36 32h4M43 32h9M56 32h1M35 33h4M43 33h8M56 33h2M35 34h3M43 34h6M56 34h2M34 35h3M43 35h5M56 35h3M34 36h2M37 36h1M43 36h4M56 36h3M33 37h3M37 37h2M44 37h2M56 37h3M33 38h2M36 38h4M44 38h1M56 38h3M33 39h2M36 39h5M57 39h2M32 40h3M36 40h6M49 40h4M57 40h2M32 41h2M35 41h5M46 41h7M55 41h3M32 42h2M35 42h2M47 42h6M55 42h3M32 43h2M48 43h4M54 43h4M32 44h2M49 44h3M54 44h3M32 45h2M42 45h1M50 45h1M53 45h4M32 46h2M42 46h1M53 46h3M32 47h2M41 47h2M52 47h4M32 48h3M39 48h1M41 48h1M51 48h4M32 49h3M40 49h1M50 49h4M55 49h1M33 50h3M49 50h4M54 50h1M35 51h2M42 51h1M48 51h4M47 52h3M45 53h3M47 60h1M47 61h3M39 62h1M46 62h3M38 63h1M40 63h1M44 63h7M38 64h2M42 64h3M47 64h2M52 64h1M39 65h2M53 66h1M53 67h1M35 68h1M39 68h2M52 68h2M48 69h1M52 69h2" />
<path stroke="#acd562" d="M44 26h4M41 27h3M39 28h2M38 29h1M37 30h1M36 31h1M35 32h1M34 33h1M34 34h1M41 34h2M50 34h3M33 35h1M40 35h3M48 35h6M39 36h4M47 36h7M39 37h4M46 37h8M40 38h3M45 38h9M41 39h11M42 40h6M41 41h4M38 42h8M35 43h12M35 44h7M43 44h5M36 45h5M43 45h6M36 46h4M43 46h8M36 47h4M43 47h7M37 48h2M44 48h5M44 49h4M44 50h3M44 51h1" />
<path stroke="#8bac39" d="M48 26h2M50 27h2M52 28h1M53 29h1M54 30h1M54 31h1M42 32h1M55 32h1M40 33h3M51 33h2M55 33h1M39 34h2M49 34h1M55 34h1M38 35h2M55 35h1M33 36h1M38 36h1M55 36h1M32 37h1M43 37h1M55 37h1M32 38h1M43 38h1M54 38h1M32 39h1M52 39h4M31 40h1M48 40h1M31 41h1M40 41h1M45 41h1M54 41h1M31 42h1M37 42h1M46 42h1M54 42h1M31 43h1M47 43h1M53 43h1M31 44h1M48 44h1M53 44h1M31 45h1M35 45h1M49 45h1M52 45h1M31 46h1M35 46h1M40 46h1M52 46h1M31 47h1M35 47h1M51 47h1M36 48h1M42 48h1M50 48h1M36 49h3M41 49h2M49 49h1M37 50h1M41 50h2M48 50h1M47 51h1M45 52h2M44 53h1M41 59h4M39 60h8M39 61h8M40 62h6M41 63h3M37 64h1M49 64h3M37 65h2M48 65h5M36 66h4M49 66h4M36 67h4M49 67h4M36 68h3M49 68h3M49 69h3" />
<path stroke="#415220" d="M50 26h2M46 27h4M52 27h2M50 28h1M54 28h1M55 29h1M44 30h3M56 30h1M35 31h1M42 31h2M50 31h1M53 31h1M57 31h1M34 32h1M40 32h2M53 32h1M57 32h1M33 33h1M39 33h1M53 33h1M58 33h1M33 34h1M38 34h1M53 34h1M58 34h1M32 35h1M37 35h1M59 35h1M32 36h1M36 36h1M59 36h1M31 37h1M36 37h1M59 37h1M31 38h1M35 38h1M55 38h1M59 38h1M31 39h1M35 39h1M56 39h1M59 39h1M30 40h1M35 40h1M53 40h4M59 40h1M30 41h1M34 41h1M53 41h1M58 41h1M30 42h1M34 42h1M53 42h1M30 43h1M34 43h1M30 44h1M34 44h1M42 44h1M57 44h1M30 45h1M34 45h1M41 45h1M30 46h1M34 46h1M41 46h1M56 46h1M30 47h1M34 47h1M40 47h1M31 48h1M35 48h1M40 48h1M43 48h1M35 49h1M39 49h1M43 49h1M36 50h1M38 50h1M40 50h1M43 50h1M55 50h1M38 51h1M41 51h1M43 51h1M53 51h2M41 58h4M39 59h2M45 59h3M48 60h2M50 62h1M39 63h1M40 64h1M45 64h2M53 64h1M41 65h1M47 65h1M53 65h1M48 66h1M54 68h2M41 69h1M47 70h1" />
<path stroke="#000000" d="M51 28h1M52 29h1M47 30h3M53 30h1M51 31h1M52 32h1M54 32h1M54 33h1M54 34h1M54 35h1M54 36h1M54 37h1M58 42h1M52 43h1M58 43h1M52 44h1M59 44h1M51 45h1M57 45h1M59 45h1M51 46h1M50 47h1M56 47h1M58 47h1M49 48h1M55 48h1M57 48h1M31 49h1M48 49h1M54 49h1M32 50h1M47 50h1M53 50h1M33 51h2M37 51h1M45 51h2M52 51h1M35 52h3M43 52h2M50 52h2M43 53h1M48 53h2M44 54h4M49 57h1M58 57h1M50 58h2M60 58h1M38 59h1M38 60h1M50 60h1M62 60h1M38 61h1M50 61h1M63 61h1M29 62h1M38 62h1M49 62h1M64 62h1M29 63h1M37 63h1M51 63h2M58 63h1M28 64h1M36 64h1M41 64h1M58 64h1M65 64h1M28 65h1M36 65h1M42 65h4M59 65h1M66 65h1M27 66h1M35 66h1M40 66h1M54 66h1M59 66h1M66 66h1M27 67h1M29 67h1M31 67h1M35 67h1M40 67h1M48 67h1M54 67h1M58 67h1M64 67h1M67 67h1M27 68h3M31 68h2M34 68h1M41 68h1M48 68h1M58 68h2M62 68h1M65 68h1M67 68h1M29 69h2M34 69h7M47 69h1M56 69h1M61 69h1M63 69h1M65 69h3M48 70h9M60 70h1M62 70h4" />
<path stroke="#415241" d="M59 43h1M58 46h1M56 49h1M41 52h2M52 52h1M39 53h2M37 54h2M52 54h2M36 55h1M40 55h1M54 55h2M39 56h1M56 56h2M39 57h1M59 57h1M38 58h1M37 59h1M50 59h1M52 59h2M61 59h1M31 60h1M37 60h1M54 60h2M30 61h1M36 61h1M56 61h1M36 62h1M57 62h1M35 63h1M65 63h1M35 64h1M35 65h1M32 66h2M33 67h2M61 67h1" />
<path stroke="#943141" d="M58 44h1M63 67h1M30 68h1M61 68h1M64 68h1M54 69h1M60 69h1" />
<path stroke="#7bbd9c" d="M58 45h1M57 46h1M57 47h1M56 48h1M39 54h2M38 55h2M40 56h1M48 56h2M48 57h1M50 57h2M37 58h1M39 58h2M48 58h2M52 58h2M59 58h1M48 59h2M54 59h1M36 60h1M60 60h2M31 61h1M35 61h1M57 61h6M31 62h2M34 62h2M58 62h6M30 63h5M59 63h5M30 64h5M59 64h6M30 65h5M60 65h5M34 66h1M60 66h4" />
<path stroke="#4a9462" d="M41 53h2M50 53h2M41 54h1M51 54h1M35 56h1M34 57h1M38 57h1M33 58h1M32 59h1M30 62h1M64 63h1M29 64h1M65 65h1M30 66h2M64 66h1M59 67h2M62 67h1" />
<path stroke="#acdeb4" d="M42 54h2M48 54h3M37 55h1M41 55h13M36 56h3M41 56h7M50 56h6M35 57h3M40 57h8M52 57h6M34 58h3M45 58h3M54 58h5M33 59h4M55 59h6M32 60h4M56 60h4M32 61h3M33 62h1" />
<path stroke="#cd4162" d="M29 65h1M28 66h2M65 66h1M28 67h1M30 67h1M32 67h1M65 67h2M60 68h1M63 68h1M66 68h1M55 69h1M62 69h1M64 69h1" />
</svg>