<svg xmlns="http://www.w3.org/2000/svg" viewBox="0 -0.5 96 96" shape-rendering="crispEdges">
<metadata>Made with Pixels to Svg https://codepen.io/shshaw/pen/XbxvNj</metadata>
<path stroke="#52524a" d="M45 30h2M44 31h1M47 31h1M48 32h1M48 33h1M45 34h2M49 34h1M49 35h1M43 36h2M50 36h1M42 37h1M53 37h1M54 38h1M53 39h1M42 40h2M50 40h3M56 40h2M44 41h6M38 42h1M56 42h2M38 43h1M54 43h2M59 43h1M40 44h4M50 44h4M58 44h1M60 44h1M44 45h6M58 45h1M38 46h1M56 46h2M39 47h2M52 47h4M61 47h1M41 48h11M36 49h1M38 50h1M56 50h1M41 51h1M53 51h1M52 52h1M58 52h1" />
<path stroke="#d5d5d5" d="M45 31h2M44 32h3M44 33h1M43 37h2M42 38h2M40 40h1" />
<path stroke="#000000" d="M43 32h1M43 33h1M44 34h1M45 35h1M46 36h2M51 36h2M54 37h1M55 38h1M56 39h1M57 41h1M58 42h1M58 43h1M37 44h1M36 45h1M61 45h1M35 46h1M61 46h1M35 47h1M35 48h1M60 48h1M59 49h1M37 50h1M57 50h1M59 50h1M38 51h3M54 51h4M59 51h1M42 52h10M56 52h2M59 52h1M57 53h1M59 53h1M57 54h2M58 55h1M40 56h1M40 57h1M57 57h1M41 58h1M56 58h1M42 59h1M55 59h1M43 60h2M53 60h2M45 61h1M51 61h2M46 62h2M50 62h1M48 63h2M43 65h3M51 65h1M58 65h1M54 66h4" />
<path stroke="#7b736a" d="M47 32h1M46 33h2M47 34h2M46 35h3M48 36h2M46 37h4M41 38h1M45 38h7M40 39h2M44 39h9M39 40h1M44 40h6M53 40h2M39 41h1M42 41h2M50 41h6M41 42h15M39 43h1M41 43h13M56 43h2M44 44h6M54 44h4M59 44h1M37 45h1M40 45h4M50 45h8M59 45h2M40 46h16M58 46h3M38 47h1M41 47h11M56 47h5M39 48h2M52 48h8M38 49h20M39 50h17M42 51h11" />
<path stroke="#acacac" d="M45 33h1M45 36h1M45 37h1M50 37h3M44 38h1M52 38h2M42 39h2M54 39h2M41 40h1M55 40h1M40 41h2M56 41h1M39 42h2M40 43h1M38 44h2M38 45h2M36 46h2M39 46h1M36 47h2M36 48h3M37 49h1" />
<path stroke="#313129" d="M58 49h1M56 53h1M58 53h1M58 64h1" />
<path stroke="#bdac83" d="M58 50h1M58 51h1M53 52h3M54 53h2M54 54h3M55 55h3M56 56h1M52 62h2M46 63h2M51 63h4M42 64h2M45 64h2M51 64h4M57 64h1M53 65h1M55 65h2" />
<path stroke="#523931" d="M38 52h1M41 52h1M38 53h1M39 54h1M39 55h1M57 56h1M43 59h1M54 59h1M45 60h1M52 60h1M46 61h5M48 62h2M42 63h1M50 63h1M41 64h1M47 64h2M50 64h1M42 65h1M46 65h1M52 65h1M53 66h1" />
<path stroke="#83625a" d="M39 52h2M39 53h15M40 54h14M40 55h15M41 56h15M41 57h16M42 58h14M44 59h10M46 60h6M44 61h1M53 61h4M43 62h1M51 62h1M54 62h1M57 62h1M45 63h1M55 63h1M58 63h1M44 64h1M55 64h1M54 65h1M57 65h1" />
<path stroke="#ffeebd" d="M44 62h2M55 62h2M43 63h2M56 63h2M56 64h1" />
</svg>