<svg xmlns="http://www.w3.org/2000/svg" viewBox="0 -0.5 96 96" shape-rendering="crispEdges">
<metadata>Made with Pixels to Svg https://codepen.io/shshaw/pen/XbxvNj</metadata>
<path stroke="#000000" d="M30 11h5M29 12h1M35 12h1M21 13h3M29 13h1M36 13h1M19 14h2M24 14h1M29 14h1M36 14h1M18 15h1M24 15h1M29 15h1M36 15h1M17 16h1M25 16h1M36 16h1M17 17h1M25 17h1M42 17h4M17 18h1M30 18h1M41 18h1M46 18h1M17 19h1M26 19h1M30 19h1M38 19h7M47 19h1M17 20h1M26 20h1M30 20h1M38 20h1M44 20h4M17 21h1M27 21h1M29 21h1M37 21h1M47 21h2M18 22h1M28 22h1M37 22h1M49 22h1M18 23h1M36 23h1M50 23h1M18 24h1M34 24h1M51 24h2M19 25h1M33 25h1M53 25h1M19 26h1M32 26h1M54 26h1M19 27h1M31 27h2M55 27h1M20 28h1M30 28h2M54 28h2M66 28h2M20 29h1M29 29h1M31 29h1M56 29h1M65 29h1M68 29h2M21 30h1M29 30h1M32 30h1M57 30h1M70 30h2M21 31h1M29 31h1M32 31h1M57 31h1M72 31h2M22 32h1M29 32h1M33 32h1M48 32h1M57 32h1M63 32h1M74 32h1M23 33h1M26 33h1M30 33h1M33 33h1M46 33h2M57 33h1M62 33h1M74 33h1M24 34h3M31 34h1M33 34h1M45 34h1M57 34h1M62 34h1M74 34h1M26 35h1M31 35h1M34 35h1M44 35h1M56 35h1M61 35h1M73 35h1M27 36h1M32 36h1M34 36h1M43 36h1M54 36h2M73 36h1M27 37h1M32 37h1M34 37h1M42 37h1M51 37h3M55 37h2M60 37h1M72 37h1M77 37h2M33 38h1M41 38h1M50 38h1M57 38h3M72 38h1M76 38h1M79 38h1M33 39h1M41 39h1M48 39h2M58 39h1M71 39h1M75 39h1M80 39h1M33 40h1M40 40h1M45 40h3M57 40h1M70 40h1M75 40h1M81 40h1M26 41h1M32 41h1M40 41h1M42 41h3M57 41h1M70 41h1M74 41h1M82 41h1M26 42h1M32 42h1M40 42h1M56 42h1M69 42h1M73 42h1M83 42h1M26 43h1M31 43h1M56 43h1M69 43h1M72 43h1M84 43h1M26 44h1M30 44h1M41 44h1M55 44h1M68 44h1M70 44h2M84 44h1M29 45h1M41 45h1M49 45h1M55 45h1M69 45h1M84 45h1M28 46h1M42 46h1M49 46h1M55 46h1M83 46h1M14 47h1M26 47h2M42 47h1M49 47h1M54 47h1M82 47h1M25 48h1M43 48h1M50 48h1M54 48h1M81 48h1M13 49h1M23 49h2M50 49h1M54 49h1M79 49h2M13 50h1M22 50h1M44 50h1M51 50h1M54 50h1M77 50h2M12 51h1M21 51h1M45 51h1M52 51h1M54 51h1M76 51h1M12 52h1M20 52h1M46 52h1M53 52h2M73 52h3M12 53h1M20 53h1M46 53h1M54 53h1M75 53h6M12 54h1M16 54h5M47 54h1M54 54h1M81 54h1M12 55h4M17 55h1M19 55h2M48 55h1M55 55h1M82 55h1M17 56h2M20 56h1M49 56h1M55 56h1M82 56h1M15 57h2M21 57h1M50 57h1M56 57h1M82 57h1M14 58h1M21 58h1M32 58h1M51 58h1M57 58h1M82 58h1M14 59h1M21 59h1M31 59h2M51 59h1M58 59h1M69 59h4M82 59h1M15 60h1M22 60h1M25 60h1M31 60h2M52 60h1M59 60h2M66 60h3M70 60h1M73 60h3M81 60h1M15 61h1M22 61h1M24 61h1M30 61h1M32 61h1M52 61h1M61 61h5M71 61h1M76 61h5M16 62h1M23 62h1M30 62h1M32 62h1M51 62h1M53 62h1M72 62h1M16 63h1M23 63h1M29 63h1M32 63h1M38 63h1M50 63h1M53 63h2M72 63h1M17 64h1M24 64h1M29 64h1M33 64h1M38 64h1M49 64h1M53 64h1M55 64h1M73 64h1M17 65h2M25 65h1M28 65h1M33 65h1M39 65h1M47 65h2M53 65h1M56 65h1M73 65h1M17 66h1M19 66h1M24 66h1M26 66h3M33 66h1M39 66h1M44 66h3M54 66h1M56 66h1M73 66h1M18 67h1M20 67h1M23 67h1M33 67h1M39 67h1M41 67h3M54 67h1M57 67h1M71 67h2M18 68h1M21 68h2M34 68h7M54 68h1M58 68h1M68 68h3M19 69h1M36 69h1M54 69h1M58 69h1M65 69h3M69 69h1M20 70h1M36 70h1M54 70h1M59 70h1M62 70h3M69 70h1M20 71h2M36 71h1M54 71h1M60 71h2M69 71h1M20 72h1M22 72h2M36 72h1M48 72h6M69 72h1M20 73h1M24 73h4M34 73h3M42 73h6M69 73h1M20 74h1M28 74h6M37 74h5M68 74h1M21 75h1M29 75h1M42 75h1M68 75h1M21 76h1M27 76h2M43 76h1M67 76h1M22 77h5M44 77h1M66 77h1M45 78h2M63 78h3M47 79h3M59 79h4M50 80h9M50 81h1M67 81h1M51 82h1M66 82h2M52 83h1M63 83h3M55 84h8" />
<path stroke="#ee9c62" d="M30 12h5M30 13h5M21 14h3M30 14h6M19 15h2M23 15h1M30 15h6M18 16h1M24 16h1M31 16h5M24 17h1M31 17h5M31 18h6M42 18h4M25 19h1M31 19h7M45 19h2M32 20h6M32 21h5M32 22h5M32 23h3M31 24h3M31 25h2M31 26h1M66 29h2M65 30h5M64 31h3M69 31h3M64 32h2M71 32h3M63 33h3M73 33h1M63 34h2M62 35h2M61 36h3M61 37h2M60 38h2M77 38h2M59 39h2M77 39h3M58 40h3M76 40h2M80 40h1M75 41h2M81 41h1M74 42h3M73 43h3M72 44h2M70 45h3M69 46h2M77 54h4M79 55h3M81 56h1M81 57h1M81 58h1M81 59h1M60 80h4M61 81h6M63 82h3" />
<path stroke="#d5835a" d="M35 13h1M21 15h2M19 16h1M23 16h1M30 16h1M36 17h1M24 18h1M25 20h1M31 20h1M26 21h1M31 21h1M31 22h1M31 23h1M30 26h1M30 27h1M67 31h1M66 32h1M64 35h1M61 39h1M76 39h1M78 40h1M58 41h2M77 41h1M74 44h1M73 53h2M75 54h2M78 55h1M80 56h1" />
<path stroke="#b46a52" d="M20 16h3M18 17h6M18 18h6M18 19h7M18 20h7M18 21h8M19 22h8M30 22h1M19 23h12M19 24h12M20 25h11M20 26h10M20 27h10M21 28h9M21 29h8M22 30h6M22 31h5M68 31h1M23 32h3M67 32h4M24 33h2M66 33h7M65 34h9M65 35h8M64 36h9M63 37h9M62 38h10M62 39h9M61 40h9M79 40h1M60 41h10M78 41h3M57 42h12M77 42h6M57 43h12M76 43h8M56 44h12M75 44h9M56 45h12M73 45h11M56 46h12M71 46h12M55 47h27M55 48h26M55 49h24M55 50h22M55 51h20M55 52h17M55 53h18M55 54h20M56 55h22M56 56h24M57 57h24M58 58h23M59 59h10M73 59h8M61 60h5M76 60h5M21 72h1M21 73h3M21 74h7M22 75h7M23 76h4M59 80h1M64 80h1M51 81h10M52 82h11M54 83h9" />
<path stroke="#834a31" d="M29 16h1M30 17h1M37 17h1M25 18h1M37 18h1M30 21h1M27 22h1M29 22h1M64 30h1M63 31h1M60 36h1M22 42h4M18 43h4M16 44h2M15 45h1M26 45h1M68 45h1M14 46h1M27 46h1M68 46h1M13 48h1M75 51h1M72 52h1M22 76h1M63 79h2M65 80h2M53 83h1M54 84h1" />
<path stroke="#e6d5a4" d="M39 20h3M42 21h1M44 22h1M46 23h1M47 24h2M52 30h2M54 31h1M55 32h1M55 33h1M51 38h1M50 39h2M52 40h1M52 41h1M53 42h1M54 43h2" />
<path stroke="#f6e6c5" d="M42 20h2M43 21h4M45 22h4M47 23h3M49 24h1M52 29h4M54 30h3M55 31h2M56 32h1M56 33h1M56 34h1M54 37h1M52 38h2M54 39h4M53 40h4M53 41h4M54 42h2" />
<path stroke="#d5b483" d="M38 21h4M38 22h6M38 23h8M37 24h10M37 25h12M36 26h12M36 27h10M36 28h8M30 29h1M36 29h7M30 30h1M37 30h5M51 30h1M28 31h1M30 31h1M37 31h4M50 31h4M27 32h2M30 32h1M32 32h1M37 32h3M50 32h5M27 33h3M32 33h1M48 33h1M50 33h5M27 34h4M32 34h1M46 34h10M28 35h2M32 35h2M45 35h4M50 35h6M28 36h1M30 36h2M33 36h1M44 36h6M52 36h2M29 37h3M33 37h1M43 37h8M29 38h4M42 38h8M28 39h5M42 39h6M28 40h5M41 40h4M48 40h3M27 41h5M45 41h7M27 42h5M41 42h9M51 42h2M27 43h4M42 43h8M51 43h3M27 44h3M42 44h7M50 44h5M28 45h1M42 45h7M50 45h5M43 46h6M50 46h5M43 47h6M50 47h4M44 48h6M51 48h3M45 49h5M51 49h3M45 50h6M52 50h2M46 51h6M53 51h1M47 52h3" />
<path stroke="#39416a" d="M35 23h1M36 24h1M35 26h1M48 26h1M34 27h2M47 27h3M34 28h2M45 28h6M33 29h3M43 29h8M33 30h3M42 30h8M33 31h4M42 31h7M34 32h3M40 32h8M34 33h12M34 34h11M35 35h9M35 36h8M35 37h7M34 38h7M34 39h7M34 40h6M33 41h7M33 42h7M32 43h9M31 44h10M30 45h11M29 46h12M28 47h13M26 48h16M25 49h17M23 50h20M22 51h22M21 52h23M21 53h24M21 54h25M18 55h1M21 55h25M21 56h26M22 57h26M22 58h10M33 58h15M22 59h9M33 59h16M23 60h2M26 60h5M33 60h16M23 61h1M25 61h5M31 61h1M33 61h17M24 62h6M31 62h1M33 62h17M24 63h5M30 63h2M33 63h5M39 63h11M25 64h4M30 64h3M34 64h4M39 64h10M54 64h1M26 65h2M29 65h4M34 65h5M40 65h7M54 65h2M18 66h1M25 66h1M29 66h4M34 66h5M40 66h4M55 66h1M19 67h1M24 67h9M34 67h5M40 67h1M55 67h2M19 68h2M23 68h11M55 68h3M20 69h16M55 69h3M21 70h15M55 70h4M65 70h1M22 71h14M55 71h5M62 71h5M24 72h12M54 72h13M28 73h6M48 73h19M42 74h25M43 75h23M44 76h22M45 77h20M47 78h16M50 79h9" />
<path stroke="#8b6a52" d="M37 23h1M50 24h1M36 25h1M49 25h1M46 27h1M44 28h1M52 28h2M51 29h1M28 30h1M31 30h1M36 30h1M50 30h1M27 31h1M31 31h1M41 31h1M49 31h1M26 32h1M31 32h1M49 32h1M31 33h1M49 33h1M27 35h1M30 35h1M49 35h1M29 36h1M50 36h2M28 37h1M28 38h1M54 38h3M27 39h1M52 39h2M27 40h1M51 40h1M41 41h1M50 42h1M41 43h1M50 43h1M49 44h1M27 45h1M44 49h1M50 52h2M47 53h3M53 61h1M53 66h1" />
<path stroke="#626294" d="M35 24h1M34 25h2M50 25h3M33 26h2M49 26h5M33 27h1M50 27h5M32 28h2M51 28h1M32 29h1M41 46h1M41 47h1M42 48h1M42 49h2M43 50h1M44 51h1M44 52h2M45 53h1M46 54h1M46 55h2M47 56h2M48 57h2M48 58h3M49 59h2M49 60h3M50 61h2M50 62h1M68 69h1M66 70h3M67 71h2M67 72h2M67 73h2M67 74h1M66 75h2M66 76h1M65 77h1" />
<path stroke="#ffd57b" d="M22 43h4M18 44h8M16 45h7M15 46h5M15 47h2M14 48h1M69 60h1M66 61h5M64 62h8M65 63h7M65 64h8M66 65h7M66 66h7M66 67h5M65 68h3M64 69h1" />
<path stroke="#d5a462" d="M23 45h3M20 46h3M17 47h4M23 47h3M15 48h4M21 48h4M14 49h9M14 50h8M13 51h8M13 52h7M52 52h1M13 53h7M50 53h4M13 54h3M48 54h6M49 55h6M19 56h1M50 56h5M17 57h4M51 57h5M16 58h5M52 58h5M15 59h6M52 59h6M16 60h6M53 60h6M16 61h6M54 61h7M17 62h6M52 62h1M54 62h10M17 63h6M51 63h2M55 63h10M18 64h6M50 64h3M56 64h9M19 65h6M49 65h4M57 65h9M20 66h4M47 66h6M57 66h9M21 67h2M44 67h10M58 67h8M41 68h13M59 68h6M37 69h17M59 69h5M37 70h17M60 70h2M37 71h17M37 72h10M37 73h4" />
<path stroke="#ac7b4a" d="M23 46h4M21 47h2M19 48h2M15 58h1M47 72h1M41 73h1" />
</svg>