<svg xmlns="http://www.w3.org/2000/svg" viewBox="0 -0.5 96 96" shape-rendering="crispEdges">
<metadata>Made with Pixels to Svg https://codepen.io/shshaw/pen/XbxvNj</metadata>
<path stroke="#314a4a" d="M61 13h1M60 14h1M62 14h1M42 15h1M60 15h1M63 15h1M43 16h1M61 16h1M63 16h1M43 17h1M48 17h2M64 17h1M44 18h1M50 18h1M60 18h2M65 18h1M44 19h1M51 19h1M59 19h1M43 20h1M52 20h1M58 20h1M43 21h1M53 21h2M57 21h1M72 21h1M52 22h2M57 22h1M64 22h1M72 22h1M41 23h1M51 23h1M56 23h1M60 23h1M64 23h1M67 23h1M71 23h1M42 24h1M46 24h1M50 24h1M56 24h1M60 24h1M64 24h1M70 24h1M42 25h1M49 25h1M55 25h1M64 25h1M69 25h2M55 26h1M63 26h1M70 26h1M44 27h1M55 27h1M68 27h2M71 27h1M51 28h2M56 28h1M68 28h1M72 28h1M59 29h1M72 29h1M60 30h2M73 30h1M72 31h2M35 32h2M45 32h1M49 32h1M60 32h1M34 33h1M37 33h2M45 33h1M49 33h1M34 34h1M39 34h3M44 34h1M67 34h1M70 34h1M35 35h1M42 35h2M68 35h2M44 36h2M46 37h1M45 39h1M45 40h1M60 40h4M30 41h2M64 41h2M32 42h2M43 42h1M66 42h1M34 43h2M66 43h1M36 44h3M67 44h1M67 45h1M64 46h2M75 46h3M41 47h1M63 47h1M68 47h1M72 47h3M78 47h5M62 48h1M69 48h3M80 48h1M62 49h1M68 49h1M81 49h1M26 50h2M40 50h1M62 50h1M67 50h1M81 50h1M83 50h1M25 51h1M28 51h2M39 51h1M63 51h1M67 51h1M81 51h1M84 51h1M25 52h1M30 52h2M38 52h1M67 52h1M32 53h2M67 53h1M81 53h2M34 54h2M80 54h1M65 55h1M64 56h1M36 57h1M58 57h1M64 57h1M24 58h2M36 58h1M59 58h1M64 58h1M23 59h1M26 59h1M29 59h1M35 59h1M53 59h1M23 60h1M28 60h1M34 60h1M52 60h1M64 60h1M23 61h1M50 62h2M67 62h1M31 63h1M55 63h1M67 63h1M8 64h3M32 64h1M56 64h2M68 64h1M7 65h1M11 65h4M22 65h2M31 65h1M33 65h2M58 65h3M68 65h1M7 66h1M15 66h7M30 66h1M35 66h1M61 66h2M68 66h1M25 67h3M36 67h1M63 67h1M68 67h1M8 68h1M36 68h1M48 68h1M64 68h1M37 69h1M64 69h1M37 70h1M65 70h2M25 71h1M53 72h1M54 73h1M24 74h1M36 74h1M52 74h1M59 74h3M64 74h1M19 75h1M49 75h3M62 75h2M66 75h1M35 76h1M45 76h4M66 76h1M33 77h2M65 77h1M68 77h1M65 78h1" />
<path stroke="#628bac" d="M43 14h2M45 15h1M46 16h2M57 17h2M61 17h1M56 18h1M59 18h1M56 19h1M64 19h1M49 20h3M55 20h1M61 20h4M47 21h6M60 21h2M64 21h2M70 21h2M46 22h6M59 22h2M65 22h1M68 22h2M46 23h5M58 23h2M65 23h1M47 24h3M57 24h3M65 24h1M67 24h2M56 25h3M66 25h1M44 26h1M56 26h3M64 26h1M66 26h2M45 27h1M56 27h3M64 27h4M45 28h3M50 28h1M57 28h2M63 28h5M71 28h1M46 29h6M56 29h1M58 29h1M63 29h6M46 30h11M58 30h2M62 30h7M47 31h4M52 31h6M59 31h11M47 32h2M51 32h8M61 32h11M50 33h23M47 34h18M66 34h1M71 34h3M46 35h17M37 36h1M46 36h16M37 37h3M43 37h3M47 37h15M38 38h24M39 39h6M46 39h16M40 40h5M46 40h14M40 41h4M45 41h13M38 42h1M41 42h2M44 42h13M37 43h1M43 43h14M40 44h16M57 44h2M32 45h1M38 45h1M41 45h15M57 45h4M66 45h1M33 46h2M39 46h2M42 46h14M57 46h7M66 46h1M34 47h7M42 47h14M57 47h6M66 47h1M34 48h23M58 48h4M63 48h1M35 49h22M58 49h4M63 49h2M36 50h4M41 50h17M60 50h2M63 50h4M68 50h2M80 50h1M34 51h1M37 51h2M40 51h20M64 51h3M68 51h4M77 51h4M34 52h1M39 52h23M64 52h3M68 52h13M36 53h27M66 53h1M68 53h13M28 54h1M32 54h2M36 54h27M69 54h11M29 55h2M33 55h3M37 55h26M71 55h6M30 56h34M30 57h6M37 57h21M59 57h5M31 58h5M37 58h22M62 58h2M30 59h1M32 59h3M36 59h17M54 59h6M61 59h1M24 60h1M29 60h3M35 60h17M53 60h6M60 60h1M62 60h1M24 61h1M29 61h22M52 61h8M61 61h1M24 62h2M28 62h1M30 62h20M52 62h10M24 63h2M27 63h3M32 63h18M51 63h4M56 63h7M25 64h6M33 64h17M51 64h5M58 64h6M25 65h6M32 65h1M35 65h23M61 65h5M8 66h1M25 66h5M31 66h4M36 66h25M63 66h4M8 67h2M22 67h2M28 67h8M37 67h26M64 67h3M9 68h3M24 68h1M27 68h9M37 68h11M49 68h15M65 68h2M9 69h6M24 69h1M29 69h8M38 69h11M50 69h14M65 69h2M10 70h9M25 70h1M28 70h9M38 70h12M52 70h13M11 71h14M26 71h11M38 71h12M53 71h13M13 72h12M26 72h11M38 72h12M54 72h12M15 73h10M26 73h11M38 73h13M55 73h10M17 74h7M25 74h11M37 74h14M54 74h5M62 74h2M20 75h4M25 75h11M37 75h12M53 75h9M24 76h11M36 76h9M52 76h12M67 76h1M29 77h4M35 77h4M52 77h13M52 78h13M54 79h9" />
<path stroke="#5ab4cd" d="M61 14h1M43 15h2M61 15h2M44 16h2M62 16h1M44 17h4M62 17h2M45 18h5M57 18h2M62 18h3M45 19h6M57 19h2M60 19h4M44 20h5M56 20h2M59 20h2M44 21h3M55 21h2M58 21h2M44 22h2M54 22h3M58 22h1M42 23h2M52 23h4M57 23h1M68 23h1M43 24h3M51 24h5M69 24h1M43 25h4M50 25h5M67 25h2M45 26h4M50 26h5M68 26h2M46 27h4M51 27h4M70 27h1M48 28h2M53 28h3M53 29h3M72 32h2M35 33h2M46 33h1M73 33h1M35 34h4M45 34h2M36 35h6M44 35h2M38 36h6M40 37h3M60 41h4M30 42h2M39 42h1M58 42h8M30 43h4M38 43h3M58 43h8M31 44h5M39 44h1M59 44h8M33 45h5M61 45h5M35 46h4M64 47h2M75 47h3M64 48h5M72 48h8M65 49h3M69 49h12M70 50h10M26 51h2M35 51h1M72 51h5M26 52h4M35 52h2M27 53h5M34 53h2M29 54h3M31 55h2M24 59h2M60 59h1M25 60h2M59 60h1M61 60h1M63 60h1M25 61h3M60 61h1M62 61h4M26 62h2M62 62h5M26 63h1M63 63h4M64 64h4M8 65h3M66 65h2M9 66h6M22 66h2M67 66h1M10 67h12M24 67h1M67 67h1M12 68h12M25 68h2M15 69h9M25 69h4M19 70h6M26 70h2M64 75h2M64 76h2" />
<path stroke="#101010" d="M65 19h1M65 20h1M62 21h2M66 21h1M42 22h2M61 22h1M66 22h1M44 23h2M66 23h1M66 24h1M47 25h2M59 25h1M65 25h1M43 26h1M49 26h1M59 26h1M65 26h1M50 27h1M59 27h1M63 27h1M44 28h1M59 28h1M70 28h1M45 29h1M52 29h1M57 29h1M71 29h1M45 30h1M57 30h1M70 30h1M46 31h1M51 31h1M58 31h1M71 31h1M46 32h1M50 32h1M59 32h1M74 32h1M47 33h2M74 33h1M68 34h2M74 34h1M67 35h1M70 35h4M36 36h1M36 37h1M37 38h1M38 39h1M39 40h1M39 41h1M44 41h1M58 41h2M29 42h1M40 42h1M57 42h1M29 43h1M41 43h2M57 43h1M69 43h1M30 44h1M56 44h1M68 44h1M31 45h1M39 45h2M56 45h1M32 46h1M41 46h1M56 46h1M67 46h1M33 47h1M56 47h1M67 47h1M33 48h1M57 48h1M83 48h1M34 49h1M57 49h1M82 49h1M35 50h1M58 50h2M36 51h1M60 51h3M37 52h1M63 52h1M81 52h3M26 53h1M64 53h2M27 54h1M66 54h3M28 55h1M36 55h1M69 55h2M77 55h3M29 56h1M71 56h6M29 57h1M30 58h1M60 58h2M31 59h1M62 59h3M27 60h1M32 60h2M65 60h1M28 61h1M51 61h1M66 61h1M23 62h1M29 62h1M23 63h1M30 63h1M50 63h1M24 64h1M31 64h1M50 64h1M24 65h1M24 66h1M7 67h1M67 68h1M8 69h1M49 69h1M67 69h1M9 70h1M50 70h2M67 70h1M10 71h1M37 71h1M52 71h1M66 71h1M11 72h2M25 72h1M37 72h1M66 72h1M13 73h2M25 73h1M37 73h1M53 73h1M65 73h1M15 74h2M53 74h1M65 74h1M17 75h2M24 75h1M36 75h1M52 75h1M20 76h4M51 76h1M24 77h5M39 77h6M51 77h1M29 78h10M51 78h1M69 78h1M52 79h2M63 79h6M54 80h9" />
<path stroke="#bdac5a" d="M62 22h2M61 23h3M63 24h1M64 35h2M63 36h3M63 37h3M63 38h3M63 39h3M64 40h3M66 41h1M67 42h1M67 43h2M63 53h1M64 54h1M64 55h1M51 71h1M51 72h2M52 73h1" />
<path stroke="#9cd5de" d="M70 22h2M69 23h2" />
<path stroke="#735a29" d="M61 24h2M60 25h4M60 26h3M60 27h3M60 28h3M60 29h3M70 29h1M72 30h1M65 34h1M63 35h1M66 35h1M62 36h1M67 36h1M62 37h1M67 37h1M62 38h1M67 38h1M62 39h1M68 39h1M68 40h1M68 41h1M69 42h1M62 52h1M63 54h1M65 54h1M63 55h1M50 71h1M50 72h1M51 73h1M51 74h1" />
<path stroke="#d5d5d5" d="M69 28h1M71 30h1M70 31h1M82 51h1M66 78h3" />
<path stroke="#ffffff" d="M69 29h1M69 30h1M81 48h2M82 50h1M83 51h1M66 77h2" />
<path stroke="#eee6a4" d="M66 36h1M66 37h1M66 38h1M67 39h1M67 40h1M68 42h1" />
<path stroke="#e6cd8b" d="M66 39h1M67 41h1" />
</svg>