<svg xmlns="http://www.w3.org/2000/svg" viewBox="0 -0.5 96 96" shape-rendering="crispEdges">
<metadata>Made with Pixels to Svg https://codepen.io/shshaw/pen/XbxvNj</metadata>
<path stroke="#20314a" d="M39 23h10M38 24h1M50 24h2M52 25h2M54 26h2M24 31h1M70 31h2M23 32h1M72 32h1M22 33h1M22 34h1M56 35h1M66 35h2M76 36h1M63 40h2M18 43h1M15 46h2M59 46h1M63 46h1M13 47h2M12 48h1M68 48h1M11 49h1M11 50h1M11 51h1M13 51h1M53 51h1M18 53h1M52 53h1M18 54h1M17 55h2M51 55h1M19 56h1M50 56h1M49 57h1M48 58h1M47 59h1M45 60h1M43 61h1M39 69h2" />
<path stroke="#314a73" d="M36 24h2M49 24h1M33 25h3M31 26h2M29 27h2M56 27h2M28 28h1M58 28h1M26 29h1M59 29h1M25 30h1M60 30h1M61 31h1" />
<path stroke="#629ccd" d="M39 24h8M36 25h6M34 26h4M31 27h6M29 28h9M28 29h11M27 30h12M25 31h14M24 32h15M24 33h2M27 33h11M23 34h2M28 34h10M22 35h2M28 35h8M22 36h1M30 36h4M21 37h1M21 38h1M20 39h1M20 40h1M19 41h2M19 42h1" />
<path stroke="#4a83b4" d="M47 24h2M42 25h10M33 26h1M38 26h16M37 27h8M51 27h5M38 28h6M54 28h4M39 29h4M56 29h3M26 30h1M39 30h4M58 30h2M39 31h4M59 31h2M39 32h5M65 32h7M23 33h1M26 33h1M38 33h6M61 33h14M25 34h3M38 34h6M59 34h17M24 35h4M36 35h8M58 35h7M73 35h3M23 36h7M34 36h10M57 36h5M65 36h7M22 37h21M56 37h20M22 38h21M56 38h8M73 38h4M21 39h22M56 39h8M75 39h2M21 40h21M56 40h6M22 41h20M57 41h4M20 42h1M22 42h19M19 43h1M22 43h18M18 44h2M23 44h16M18 45h2M24 45h13M18 46h2M27 46h8M18 47h1M18 48h1M18 49h1M20 57h1M21 58h1M41 62h1M36 63h2" />
<path stroke="#315a94" d="M45 27h6M44 28h10M27 29h1M43 29h13M43 30h15M43 31h16M44 32h17M44 33h15M44 34h13M44 35h12M57 35h1M65 35h1M21 36h1M44 36h13M62 36h3M72 36h1M43 37h13M20 38h1M43 38h13M64 38h9M43 39h13M64 39h11M19 40h1M42 40h14M62 40h1M68 40h9M21 41h1M42 41h15M61 41h7M72 41h5M21 42h1M41 42h31M75 42h2M20 43h2M40 43h35M20 44h3M39 44h37M20 45h4M37 45h38M20 46h7M35 46h24M64 46h11M15 47h2M19 47h45M68 47h6M13 48h4M19 48h49M70 48h3M12 49h3M17 49h1M19 49h51M12 50h2M15 50h55M14 51h39M56 51h12M12 52h42M60 52h6M11 53h7M19 53h33M11 54h7M19 54h33M11 55h6M19 55h32M12 56h4M20 56h30M21 57h28M22 58h26M22 59h25M24 60h21M25 61h18M28 62h13M31 63h5" />
<path stroke="#000000" d="M65 31h5M61 32h4M73 32h2M59 33h2M75 33h1M57 34h2M76 34h1M21 35h1M68 35h5M76 35h1M20 36h1M73 36h3M20 37h1M76 37h1M19 38h1M77 38h1M19 39h1M77 39h1M18 40h1M65 40h3M77 40h1M18 41h1M68 41h4M77 41h1M18 42h1M72 42h3M77 42h1M75 43h2M17 44h1M76 44h1M17 45h1M75 45h1M17 46h1M60 46h3M75 46h1M17 47h1M64 47h4M74 47h1M17 48h1M69 48h1M73 48h1M15 49h2M70 49h3M14 50h1M70 50h1M12 51h1M54 51h2M68 51h2M11 52h1M56 52h4M66 52h2M10 53h1M60 53h6M10 54h1M64 54h1M10 55h1M64 55h1M11 56h1M16 56h3M63 56h1M12 57h4M19 57h1M63 57h1M62 58h1M61 60h1M60 61h1M59 62h1M23 63h1M58 63h1M24 64h1M56 64h2M26 65h1M54 65h2M28 66h1M52 66h2M30 67h2M49 67h3M34 68h2M46 68h3M41 69h5" />
<path stroke="#cdb483" d="M54 52h2M53 53h7M52 54h12M52 55h8M51 56h9M50 57h10M62 57h1M20 58h1M49 58h10M21 59h1M48 59h11M61 59h1M22 60h1M46 60h13M22 61h1M24 61h1M44 61h16M24 62h3M42 62h17M25 63h4M30 63h1M38 63h3M42 63h15M26 64h3M30 64h12M43 64h13M27 65h3M31 65h12M45 65h9M29 66h2M32 66h13M49 66h3M33 67h16M36 68h10" />
<path stroke="#ffeecd" d="M60 55h4M60 56h3M60 57h2M59 58h3M59 59h2M59 60h2" />
<path stroke="#6a624a" d="M19 58h1M20 59h1M62 59h1M21 60h1M23 60h1M21 61h1M23 61h1M22 62h2M27 62h1M24 63h1M29 63h1M41 63h1M57 63h1M25 64h1M29 64h1M42 64h1M25 65h1M30 65h1M43 65h2M27 66h1M31 66h1M45 66h4M29 67h1M32 67h1M32 68h2M36 69h3" />
</svg>