<svg xmlns="http://www.w3.org/2000/svg" viewBox="0 -0.5 96 96" shape-rendering="crispEdges">
<metadata>Made with Pixels to Svg https://codepen.io/shshaw/pen/XbxvNj</metadata>
<path stroke="#bdaca4" d="M46 17h6M43 18h3M52 18h3M42 19h1M55 19h2M58 19h4M37 20h5M57 20h1M62 20h2M25 21h4M35 21h2M40 21h1M57 21h1M64 21h1M23 22h2M29 22h3M34 22h1M58 22h1M65 22h1M22 23h1M32 23h2M58 23h1M65 23h1M21 24h1M58 24h1M65 24h3M20 25h1M22 25h1M57 25h1M68 25h2M20 26h2M70 26h1M19 27h2M22 27h1M24 27h1M28 27h1M46 27h1M71 27h1M19 28h5M25 28h1M27 28h3M44 28h3M60 28h1M71 28h1M20 29h9M30 29h1M42 29h4M47 29h1M49 29h1M59 29h3M20 30h8M29 30h1M31 30h1M33 30h1M39 30h8M48 30h1M50 30h1M52 30h1M57 30h6M21 31h8M30 31h1M32 31h1M34 31h14M49 31h1M51 31h15M19 32h11M31 32h1M33 32h35M69 32h1M18 33h51M18 34h50M18 35h30M49 35h17M19 36h4M24 36h8M34 36h7M42 36h2M45 36h1M47 36h2M50 36h3M54 36h7M26 37h3M36 37h3M41 37h1M44 37h1M46 37h1M49 37h3M55 37h4M43 38h1M44 39h1M47 39h1M44 42h1M75 45h1M75 49h1M75 50h1M72 51h1M75 51h1M59 52h1M69 52h1M76 52h1M58 53h1M70 53h1M76 53h1M58 54h1M71 54h1M76 54h1M58 55h1M71 55h2M19 56h1M50 56h4M56 56h7M70 56h6M18 57h1M20 57h1M48 57h2M54 57h4M63 57h2M67 57h8M44 58h1M47 58h1M55 58h2M64 58h10M44 59h3M55 59h2M65 59h8M75 59h1M43 60h4M55 60h2M65 60h7M35 61h1M44 61h3M60 61h4M66 61h6M36 62h1M44 62h4M58 62h7M66 62h6M76 62h1M37 63h1M44 63h2M57 63h16M75 63h2M21 64h1M30 64h1M36 64h4M43 64h2M50 64h27M20 65h2M30 65h1M36 65h9M50 65h26M20 66h2M31 66h1M35 66h11M49 66h15M67 66h9M33 67h3M38 67h25M69 67h5M40 68h6M48 68h14M41 69h4M49 69h11M51 70h7M72 73h1M50 78h1" />
<path stroke="#eeded5" d="M46 18h6M43 19h12M42 20h14M58 20h4M41 21h1M43 21h1M45 21h12M58 21h6M25 22h4M42 22h1M44 22h1M46 22h12M59 22h6M24 23h6M36 23h3M43 23h1M45 23h13M59 23h6M25 24h4M34 24h7M44 24h14M60 24h5M31 25h10M42 25h15M59 25h1M61 25h1M63 25h4M30 26h29M60 26h1M62 26h1M64 26h6M30 27h15M48 27h10M59 27h1M61 27h1M63 27h8M31 28h11M49 28h10M62 28h1M64 28h6M33 29h8M51 29h7M63 29h6M70 29h1M54 30h2M64 30h2M67 30h1M69 30h1M71 30h1M66 31h1M68 31h1M70 31h1M19 57h1M18 58h2M38 58h4M48 58h6M37 59h6M48 59h7M37 60h6M48 60h6M37 61h6M48 61h6M32 62h4M38 62h6M49 62h5M31 63h5M39 63h4M50 63h3M31 64h5M31 65h4M32 66h2M30 72h1M72 74h1M50 77h1" />
<path stroke="#d5cdc5" d="M56 20h1M37 21h3M42 21h1M44 21h1M35 22h7M43 22h1M45 22h1M23 23h1M30 23h2M34 23h2M39 23h4M44 23h1M22 24h3M29 24h5M41 24h3M59 24h1M21 25h1M23 25h8M41 25h1M58 25h1M60 25h1M62 25h1M67 25h1M22 26h8M59 26h1M61 26h1M63 26h1M21 27h1M23 27h1M25 27h3M29 27h1M45 27h1M47 27h1M58 27h1M60 27h1M62 27h1M24 28h1M26 28h1M30 28h1M42 28h2M47 28h2M59 28h1M61 28h1M63 28h1M70 28h1M29 29h1M31 29h2M41 29h1M46 29h1M48 29h1M50 29h1M58 29h1M62 29h1M69 29h1M71 29h1M28 30h1M30 30h1M32 30h1M34 30h5M47 30h1M49 30h1M51 30h1M53 30h1M56 30h1M63 30h1M66 30h1M68 30h1M70 30h1M29 31h1M31 31h1M33 31h1M48 31h1M50 31h1M67 31h1M69 31h1M30 32h1M32 32h1M68 32h1M70 32h1M48 35h1M44 36h1M46 36h1M43 37h1M45 37h1M47 37h1M44 38h4M45 39h2M44 40h3M44 41h3M45 42h2M75 44h1M74 45h1M74 46h1M74 47h1M74 48h1M74 49h1M73 50h2M61 51h6M73 51h2M60 52h9M72 52h4M59 53h11M72 53h4M59 54h12M72 54h4M59 55h12M73 55h3M63 56h7M38 57h3M50 57h4M58 57h5M65 57h2M37 58h1M42 58h2M54 58h1M57 58h7M36 59h1M43 59h1M47 59h1M57 59h8M73 59h2M36 60h1M47 60h1M54 60h1M57 60h8M72 60h4M32 61h3M36 61h1M43 61h1M47 61h1M54 61h6M64 61h2M72 61h4M17 62h1M31 62h1M37 62h1M48 62h1M54 62h4M65 62h1M72 62h4M17 63h3M30 63h1M36 63h1M38 63h1M43 63h1M46 63h4M53 63h4M73 63h2M18 64h3M40 64h3M45 64h5M35 65h1M45 65h5M34 66h1M46 66h3" />
<path stroke="#838383" d="M19 29h1M72 29h1M19 30h1M72 30h1M20 31h1M71 31h1M18 32h1M71 32h1M17 33h1M69 33h2M17 34h1M68 34h1M17 35h1M66 35h2M18 36h1M23 36h1M32 36h2M41 36h1M49 36h1M53 36h1M61 36h5M19 37h3M24 37h2M29 37h3M34 37h2M39 37h2M42 37h1M48 37h1M52 37h3M59 37h2M26 38h3M36 38h3M42 38h1M48 38h4M55 38h4M43 39h1M48 39h1M43 40h1M47 40h1M43 41h1M47 41h1M43 42h1M47 42h1M38 43h3M36 44h5M42 44h5M50 44h3M35 45h1M37 45h3M41 45h8M51 45h3M76 45h1M36 46h1M41 46h9M53 46h3M75 46h1M42 47h7M55 47h2M75 47h1M44 48h1M46 48h1M48 48h1M56 48h1M73 48h1M75 48h1M43 49h1M45 49h1M47 49h1M73 49h1M44 50h1M46 50h1M48 50h1M57 50h1M63 50h4M72 50h1M56 51h3M67 51h3M56 52h3M70 52h2M41 53h1M50 53h1M57 53h1M71 53h1M21 54h4M35 54h1M42 54h1M50 54h1M55 54h1M21 55h4M34 55h1M42 55h1M49 55h1M55 55h2M76 55h1M34 56h1M43 56h1M49 56h1M76 56h1M33 57h1M43 57h1M75 57h1M17 58h1M24 58h1M33 58h1M74 58h1M24 59h2M25 60h1M76 60h1M25 61h2M76 61h1M16 62h1M27 62h3M77 62h1M16 63h1M29 63h1M77 63h1M17 64h1M77 64h1M18 65h2M76 65h1M19 66h1M64 66h1M76 66h1M20 67h1M32 67h1M36 67h2M68 67h1M74 67h2M33 68h3M38 68h2M46 68h2M68 68h1M70 68h4M40 69h1M45 69h1M48 69h1M60 69h1M65 69h1M41 70h4M49 70h2M58 70h1M50 71h5" />
<path stroke="#ac5239" d="M69 34h2M71 35h2M71 37h1M62 38h1M68 38h3M63 39h5M71 39h1M73 40h1M75 43h1M72 46h2M68 48h1M71 48h2M19 59h1M16 60h1M23 65h1M24 66h2M27 67h2M31 67h1M22 68h1M28 68h5M22 69h2M30 69h6M21 70h5M33 70h2M21 71h9M39 71h1M21 72h8M22 73h6" />
<path stroke="#cd624a" d="M68 35h1M66 38h2M71 38h1M74 38h1M68 39h2M63 40h8M62 41h9M72 41h1M62 42h10M74 42h1M60 43h15M60 44h15M60 45h11M60 46h10M71 46h1M59 47h14M59 48h9M69 48h2M62 49h6M22 59h1M22 60h2M20 61h4M20 62h6M22 63h5M24 64h4M26 65h4M29 66h2M65 67h2M36 68h2M64 68h4M36 69h4M46 69h2M63 69h2M70 69h1M35 70h5M45 70h3M37 71h2M64 71h6M49 72h2M64 72h6M40 73h1M47 73h1M50 73h1M65 73h7M40 74h7M65 74h6M40 75h7M67 75h4M40 76h7M49 76h1M40 77h8M43 78h6" />
<path stroke="#ffac6a" d="M69 35h2M68 36h3M70 37h1M73 37h1" />
<path stroke="#ee8341" d="M66 36h2M71 36h1M63 37h7M72 37h1M63 38h3M72 38h2M62 39h1M70 39h1M72 39h2M61 40h2M74 40h1M61 41h1M73 41h1M61 42h1M75 42h1M20 59h2M17 60h5M18 61h2M71 69h1M48 70h1M69 70h3M70 71h2M70 72h2M48 73h2M47 74h3M47 75h3M47 76h2M48 77h1" />
<path stroke="#5a3139" d="M72 36h2M62 37h1M74 37h1M61 38h1M61 39h1M74 39h1M60 40h1M71 40h2M75 40h1M60 41h1M71 41h1M74 41h1M60 42h1M72 42h2M76 42h1M59 43h1M76 43h1M59 44h1M59 45h1M71 45h2M59 46h1M70 46h1M58 47h1M73 47h1M68 49h3M41 50h1M67 50h1M20 58h2M17 59h2M16 61h2M22 65h1M25 65h1M22 66h1M28 66h1M21 67h1M26 67h1M30 67h1M63 67h1M21 68h1M63 68h1M21 69h1M72 69h1M32 70h1M72 70h1M30 71h1M36 71h1M63 71h1M72 71h1M29 72h1M37 72h3M51 72h1M63 72h1M51 73h1M64 73h1M50 74h1M39 76h1M39 77h1" />
<path stroke="#000000" d="M75 41h1M38 42h4M49 42h2M35 43h3M51 43h2M33 44h2M76 44h1M31 45h2M73 45h1M30 46h1M33 46h1M38 46h3M50 46h3M29 47h1M33 47h1M37 47h1M41 47h1M53 47h1M57 47h1M28 48h1M36 48h1M42 48h1M58 48h1M28 49h1M32 49h1M35 49h1M42 49h1M49 49h1M27 50h2M31 50h1M35 50h1M49 50h1M55 50h1M59 50h1M25 51h2M28 51h1M30 51h1M34 51h1M41 51h1M55 51h1M24 52h1M26 52h1M35 52h1M41 52h1M51 52h2M54 52h1M42 53h1M55 53h1M20 54h1M25 54h1M36 54h2M51 54h1M20 55h1M25 55h1M43 55h1M25 56h1M35 56h1M21 57h1M26 57h1M44 57h1M23 58h1M26 58h1M23 59h1M27 59h1M24 60h1M29 60h1M18 62h2M26 62h1M20 63h2M27 63h1M22 64h2M24 65h1M26 66h2M29 67h1M27 68h1M28 69h2M20 70h1M30 70h2M40 70h1M61 70h1M20 71h1M33 71h3M40 71h1M58 71h2M20 72h1M40 72h1M72 72h1M20 73h2M28 73h2M39 73h1M22 74h6M39 74h1M64 74h1M71 74h1M39 75h1M50 75h1M65 75h2M72 75h2M50 76h1M67 76h5M40 78h3M51 78h1M43 79h6M50 79h2" />
<path stroke="#393939" d="M42 42h1M48 42h1M41 44h1M48 44h2M53 44h2M40 45h1M49 45h2M55 45h1M56 46h1M49 47h1M33 48h1M49 48h1M54 48h1M55 49h6M42 50h1M58 50h1M60 50h3M29 51h1M50 51h1M59 51h1M25 52h1M27 52h1M30 52h1M33 52h1M42 52h1M50 52h1M55 52h1M21 53h3M26 53h1M29 53h1M32 53h1M35 53h1M39 53h2M51 53h1M53 53h2M29 54h1M31 54h1M38 54h1M43 54h1M56 54h1M28 55h1M31 55h1M35 55h1M50 55h1M57 55h1M20 56h2M28 56h1M30 56h1M44 56h1M22 57h1M28 57h1M34 57h1M22 58h1M27 58h1M34 58h1M28 59h1M30 60h1M24 61h1M28 64h2M23 66h1M22 67h4M23 68h4M24 69h4M61 69h2M66 69h2M26 70h4M59 70h2M63 70h4M41 71h4M55 71h3M31 72h1M41 72h6M52 72h3M30 73h2M42 73h4" />
<path stroke="#626262" d="M41 43h1M50 43h1M35 44h1M47 44h1M33 45h2M36 45h1M54 45h1M34 46h2M37 46h1M34 47h3M54 47h1M34 48h2M43 48h1M45 48h1M47 48h1M55 48h1M57 48h1M33 49h2M44 49h1M46 49h1M48 49h1M61 49h1M32 50h3M43 50h1M45 50h1M47 50h1M56 50h1M27 51h1M31 51h3M42 51h8M60 51h1M28 52h2M31 52h2M34 52h1M43 52h7M24 53h2M27 53h2M30 53h2M33 53h2M43 53h7M52 53h1M56 53h1M26 54h3M30 54h1M32 54h3M39 54h3M44 54h6M52 54h3M57 54h1M26 55h2M29 55h2M32 55h2M36 55h6M44 55h5M51 55h4M22 56h3M26 56h2M29 56h1M31 56h3M36 56h7M45 56h4M54 56h2M23 57h3M27 57h1M29 57h4M35 57h3M41 57h2M45 57h3M25 58h1M28 58h5M35 58h2M45 58h2M26 59h1M29 59h7M26 60h3M31 60h5M27 61h5M30 62h1M28 63h1M65 66h2M64 67h1M67 67h1M62 68h1M69 68h1M68 69h2M62 70h1M67 70h2M45 71h5M47 72h2M41 73h1M46 73h1M73 73h1M73 74h1M71 75h1M49 77h1M51 77h1M49 78h1M49 79h1" />
<path stroke="#6a2929" d="M42 43h8M31 46h2M30 47h3M38 47h3M50 47h3M29 48h2M37 48h5M50 48h4M29 49h1M36 49h2M40 49h2M50 49h1M52 49h3M36 50h1M53 50h2M35 51h2M53 51h2M36 52h1M40 52h1M53 52h1M36 53h2" />
<path stroke="#ff2020" d="M31 48h2M30 49h2M38 49h2M51 49h1M29 50h2M37 50h4M50 50h3M37 51h4M51 51h2M37 52h3M38 53h1" />
</svg>