<svg xmlns="http://www.w3.org/2000/svg" viewBox="0 -0.5 96 96" shape-rendering="crispEdges">
<metadata>Made with Pixels to Svg https://codepen.io/shshaw/pen/XbxvNj</metadata>
<path stroke="#5a94cd" d="M36 30h2M38 31h2M40 32h1M41 33h1M42 34h1M43 36h1M42 37h1M43 39h1M44 41h1M44 42h1M40 45h4M38 46h8M38 47h10M37 48h12M37 49h12M36 50h14M36 51h14M35 52h14M35 53h13M35 54h13M35 55h13M35 56h14M36 57h14M36 58h15M37 59h12M36 60h1M38 60h2M41 60h6M35 61h1M37 61h2M34 62h1M36 62h3M33 63h1M35 63h3M34 64h2M32 65h2" />
<path stroke="#396a83" d="M35 31h1M36 32h2M50 32h6M38 33h1M48 33h2M39 34h1M47 34h1M43 35h1M46 35h1M44 36h2M41 37h1M44 37h1M44 38h1M42 39h1M42 42h1M46 42h1M40 43h2M43 43h2M47 43h2M39 44h1M49 44h1M38 45h1M50 45h1M37 46h1M51 46h1M37 47h1M51 47h1M36 48h1M52 48h1M36 49h1M52 49h1M35 50h1M35 51h1M34 52h1M49 52h1M34 53h1M48 53h1M48 54h1M48 55h1M49 56h1M50 57h1M49 59h1M35 60h1M37 60h1M40 60h1M34 61h1M36 61h1M39 61h1M41 61h2M33 62h1M35 62h1M32 63h1M34 63h1M33 64h1" />
<path stroke="#7bcdff" d="M36 31h2M38 32h2M39 33h2M50 33h5M40 34h2M48 34h3M41 35h2M47 35h2M42 36h1M46 36h1M42 43h1M45 43h2M40 44h9M45 45h5M47 46h3M48 47h3M49 48h2M50 49h2M50 50h2" />
<path stroke="#62ace6" d="M55 33h1M51 34h1M49 35h1M47 36h1M43 37h1M45 37h2M43 38h1M45 38h1M44 39h2M44 40h1M39 45h1M44 45h1M46 46h1M50 46h1M51 48h1M49 49h1" />
<path stroke="#101010" d="M56 33h1M52 34h4M40 35h1M50 35h2M41 36h1M48 36h2M47 37h1M42 38h1M46 38h1M46 39h1M43 40h1M45 40h1M43 41h1M45 41h1M43 42h1M45 42h1M34 54h1M34 55h1M34 56h1M35 57h1M35 58h1M51 58h1M36 59h1M50 59h1M47 60h2M40 61h1M43 61h4M39 62h1M38 63h1M40 63h1M48 63h1M32 64h1M36 64h2M45 64h1M47 64h1M31 65h1M34 65h2M31 66h3" />
<path stroke="#9c9cc5" d="M20 35h4M15 36h3M19 36h1M24 36h1M14 37h1M18 37h1M25 37h1M26 38h1M29 38h3M27 39h2M32 39h1M27 40h1M33 40h1M33 41h1M75 41h3M34 42h2M73 42h2M78 42h2M16 43h1M36 43h1M66 43h3M72 43h1M80 43h1M16 44h1M37 44h1M64 44h2M69 44h3M80 44h1M16 45h1M37 45h1M57 45h4M63 45h1M71 45h1M17 46h1M55 46h2M61 46h2M54 47h1M62 47h1M53 48h1M21 49h1M53 49h1M52 50h1M50 51h2M24 52h1M47 61h2M40 62h1M46 62h2M45 63h1" />
<path stroke="#cdcde6" d="M20 36h1M23 36h1M17 37h1M18 38h1M14 39h1M26 39h1M14 40h1M15 41h1M18 41h1M27 41h1M16 42h2M33 42h1M77 42h1M17 43h1M33 43h1M79 43h1M17 44h1M24 44h1M72 44h1M17 45h2M22 45h2M80 45h1M18 46h6M60 46h1M63 46h1M71 46h1M80 46h1M18 47h7M30 47h1M36 47h1M80 47h1M19 48h6M30 48h2M35 48h1M73 48h1M79 48h2M22 49h4M29 49h7M73 49h2M77 49h4M21 50h14M73 50h7M21 51h14M63 51h1M72 51h7M22 52h2M25 52h9M50 52h1M62 52h1M71 52h6M25 53h9M49 53h1M55 53h1M62 53h1M68 53h8M26 54h4M31 54h3M49 54h2M53 54h4M61 54h3M67 54h9M32 55h2M49 55h27M50 56h25M51 57h2M54 57h13M68 57h7M54 58h14M70 58h3M55 59h4M60 59h8M60 60h7M62 61h3M47 63h1" />
<path stroke="#ffffff" d="M21 36h2M15 37h2M19 37h6M14 38h4M19 38h7M15 39h11M29 39h3M15 40h12M28 40h5M16 41h2M19 41h8M28 41h5M18 42h15M75 42h2M18 43h15M34 43h2M73 43h6M18 44h6M25 44h12M66 44h3M73 44h7M19 45h3M24 45h13M64 45h7M72 45h8M24 46h13M57 46h3M64 46h7M72 46h8M25 47h5M31 47h5M55 47h7M63 47h17M25 48h5M32 48h3M54 48h19M74 48h5M26 49h3M54 49h19M75 49h2M53 50h20M52 51h11M64 51h8M51 52h11M63 52h8M50 53h5M56 53h6M63 53h5M51 54h2M57 54h4M64 54h3" />
<path stroke="#838394" d="M13 38h1M13 39h1M13 40h1M14 41h1M15 42h1M81 45h1M81 46h1M17 47h1M81 47h1M18 48h1M81 48h1M19 49h2M81 49h1M20 50h1M80 50h1M20 51h1M79 51h1M21 52h1M77 52h2M22 53h3M76 53h1M25 54h1M30 54h1M76 54h1M26 55h4M31 55h1M76 55h1M32 56h2M75 56h1M53 57h1M67 57h1M75 57h1M52 58h2M68 58h2M73 58h2M54 59h1M59 59h1M68 59h1M70 59h3M55 60h5M67 60h1M60 61h2M65 61h2M62 62h3" />
<path stroke="#5a5a73" d="M49 60h1M49 61h1M41 62h1M45 62h1M48 62h1M39 63h1M44 63h1M46 63h1M44 64h1" />
</svg>