<svg xmlns="http://www.w3.org/2000/svg" viewBox="0 -0.5 96 96" shape-rendering="crispEdges">
<metadata>Made with Pixels to Svg https://codepen.io/shshaw/pen/XbxvNj</metadata>
<path stroke="#948339" d="M43 25h9M40 26h3M52 26h4M38 27h2M56 27h2M36 28h2M58 28h2M35 29h1M60 29h1M34 30h1M61 30h1M33 31h1M62 31h1M32 32h1M41 32h2M31 33h1M35 33h1M40 33h1M43 33h1M30 34h1M34 34h1M39 34h1M43 34h1M33 35h1M33 36h1M32 37h1M32 38h1M53 40h1M55 43h1M57 44h2M59 45h2M53 46h1M61 46h2M30 49h1M53 49h10M30 50h1M53 50h2M30 51h1M27 52h1M30 52h1M28 53h1M30 53h1M29 54h1M31 54h1M36 54h1M39 54h1M51 54h1M29 55h1M31 55h1M36 55h1M40 55h1M50 55h1M53 55h1M29 56h1M31 56h1M36 56h1M29 57h1M31 57h1M36 57h1M48 57h2M32 58h1M37 58h1M47 58h1M32 59h1M46 59h1M33 60h1M46 60h1M31 61h1M33 61h1M55 61h1M34 62h1M54 62h1M34 63h1M54 63h1M35 64h1M36 65h1M37 66h1M39 67h1" />
<path stroke="#eede8b" d="M43 26h9M40 27h6M51 27h5M38 28h5M55 28h3M36 29h4M58 29h1M35 30h3M59 30h2M34 31h3M61 31h1M33 32h3M32 33h3M31 34h3M31 35h2M30 36h3M30 37h2M29 38h3M29 39h2M29 40h2M29 41h2M30 42h1M55 44h2M56 45h3M58 46h3M60 47h3M62 59h2M59 60h3M59 66h1M56 67h2M52 68h4M48 69h4" />
<path stroke="#cdbd6a" d="M46 27h5M43 28h8M54 28h1M40 29h10M57 29h1M59 29h1M38 30h11M37 31h1M42 31h4M36 32h1M62 32h1M63 33h1M63 34h1M64 35h1M64 36h1M28 40h1M28 41h1M28 42h2M27 43h3M53 43h2M27 44h3M53 44h2M27 45h3M53 45h3M27 46h3M54 46h4M27 47h3M57 47h3M27 48h3M27 49h3M27 50h3M28 51h2M28 52h2M29 53h1M57 59h1M58 60h1M62 60h1M62 64h1M60 65h2M58 66h1M55 67h1M51 68h1M47 69h1" />
<path stroke="#b4a452" d="M51 28h3M50 29h7M49 30h10M38 31h4M46 31h15M37 32h4M43 32h19M36 33h4M41 33h2M44 33h19M35 34h4M40 34h3M44 34h19M34 35h5M40 35h24M34 36h5M40 36h2M43 36h15M62 36h2M33 37h7M42 37h14M33 38h22M32 39h22M32 40h15M51 40h2M32 41h13M52 41h1M32 42h13M31 43h13M31 44h13M31 45h13M31 46h12M31 47h12M31 48h12M31 49h12M31 50h13M55 50h6M27 51h1M31 51h13M53 51h5M31 52h13M53 52h2M31 53h6M39 53h6M28 54h1M30 54h1M32 54h4M37 54h2M40 54h5M52 54h1M28 55h1M30 55h1M32 55h4M37 55h3M41 55h5M51 55h2M30 56h1M32 56h4M37 56h3M41 56h13M30 57h1M32 57h4M37 57h3M41 57h7M50 57h5M30 58h2M33 58h4M38 58h2M41 58h6M48 58h2M51 58h5M30 59h2M33 59h5M40 59h6M47 59h4M52 59h5M64 59h1M31 60h2M34 60h12M47 60h4M52 60h6M63 60h2M32 61h1M34 61h12M47 61h4M52 61h3M57 61h8M32 62h2M35 62h11M47 62h4M52 62h2M55 62h2M58 62h6M33 63h1M35 63h12M48 63h2M51 63h3M55 63h2M58 63h6M34 64h1M36 64h12M50 64h4M55 64h2M58 64h4M35 65h1M37 65h18M57 65h3M38 66h20M40 67h15M41 68h10M45 69h2" />
<path stroke="#836a41" d="M63 32h1M64 33h1M64 34h1M30 35h1M39 35h1M65 35h1M29 36h1M39 36h1M42 36h1M65 36h1M29 37h1M40 37h2M64 37h1M28 38h1M28 39h1M31 39h1M27 40h1M31 40h1M50 40h1M27 41h1M31 41h1M45 41h1M51 41h1M27 42h1M31 42h1M52 42h3M26 43h1M30 43h1M44 43h1M52 43h1M56 43h1M26 44h1M30 44h1M26 45h1M30 45h1M26 46h1M30 46h1M43 46h1M26 47h1M30 47h1M43 47h1M63 47h1M26 48h1M30 48h1M43 48h1M43 49h1M63 49h1M58 51h1M44 52h1M52 52h1M55 52h1M27 53h1M37 53h2M52 53h3M45 54h1M53 54h1M46 55h1M54 55h1M40 56h1M54 56h1M40 57h1M55 57h1M40 58h1M50 58h1M56 58h2M62 58h1M38 59h2M51 59h1M58 59h4M51 60h1M46 61h1M51 61h1M56 61h1M46 62h1M51 62h1M57 62h1M64 62h1M47 63h1M50 63h1M57 63h1M48 64h2M54 64h1M57 64h1M55 65h2M60 66h1M58 67h1" />
<path stroke="#101010" d="M58 36h4M56 37h2M62 37h2M55 38h1M54 39h1M48 40h2M54 40h1M46 41h5M53 41h1M45 42h7M45 43h7M44 44h3M51 44h2M44 45h2M51 45h2M44 46h2M49 46h1M52 46h1M44 47h2M49 47h1M53 47h4M44 48h2M49 48h1M57 48h4M63 48h1M26 49h1M44 49h2M49 49h1M26 50h1M44 50h2M52 50h1M61 50h2M26 51h1M44 51h3M52 51h1M59 51h2M26 52h1M45 52h5M56 52h2M45 53h3M51 53h1M27 54h1M50 54h1M27 55h1M47 55h2M28 56h1M28 57h1M29 58h1M63 58h2M29 59h1M65 59h1M30 60h1M65 60h1M30 61h1M65 61h1M31 62h1M32 63h1M64 63h1M33 64h1M63 64h1M34 65h1M62 65h1M35 66h2M61 66h1M37 67h2M59 67h1M39 68h2M56 68h2M41 69h4M52 69h4M45 70h7" />
<path stroke="#394139" d="M47 40h1M52 47h1M52 48h5M61 48h2M52 49h1M51 50h1M51 51h1M50 52h2M48 53h3M46 54h4M49 55h1" />
<path stroke="#831029" d="M47 44h1M50 44h1M46 45h1M48 46h1M51 46h1M48 47h1M51 47h1M48 48h1M51 48h1M48 49h1M51 49h1M46 50h1M47 51h1M50 51h1" />
<path stroke="#b42039" d="M48 44h2M47 45h1M50 45h1M46 46h1M46 47h2M46 48h2M46 49h2M50 49h1M47 50h4M48 51h2" />
<path stroke="#d55a73" d="M48 45h2M47 46h1M50 46h1M50 47h1M50 48h1" />
</svg>