<svg xmlns="http://www.w3.org/2000/svg" viewBox="0 -0.5 96 96" shape-rendering="crispEdges">
<metadata>Made with Pixels to Svg https://codepen.io/shshaw/pen/XbxvNj</metadata>
<path stroke="#624a18" d="M50 16h2M49 17h1M49 18h1M49 19h1M49 20h1M49 21h1M48 22h1M48 23h1M48 24h1M48 25h1M27 26h2M48 26h1M27 27h1M29 27h2M47 27h1M27 28h1M31 28h3M46 28h1M28 29h1M45 29h1M45 30h1M45 31h1M46 32h1M69 32h3M46 33h1M66 33h3M72 33h1M42 34h2M45 34h1M50 34h2M53 34h1M63 34h2M72 34h1M40 35h2M44 35h1M48 35h2M54 35h2M62 35h1M72 35h1M38 36h2M44 36h1M47 36h1M56 36h1M61 36h1M71 36h1M37 37h1M45 37h2M56 37h1M59 37h2M70 37h1M41 38h2M55 38h1M68 38h2M40 39h1M43 39h1M54 39h1M34 40h1M39 40h1M54 40h1M67 40h1M34 41h1M39 41h1M42 41h1M55 41h1M66 41h1M17 42h4M33 42h1M38 42h1M57 42h2M64 42h2M16 43h1M22 43h6M33 43h1M38 43h1M48 43h2M62 43h2M30 44h2M47 44h1M50 44h1M35 45h1M47 45h1M50 45h1M34 46h1M47 46h1M51 46h1M63 46h1M27 47h3M34 47h1M46 47h1M51 47h1M35 48h1M40 48h1M46 48h1M28 49h2M35 49h1M45 49h1M52 49h1M35 50h1M37 50h1M45 50h1M52 50h1M38 51h2M44 51h1M52 51h1M65 51h3M31 52h1M44 52h1M63 52h2M68 52h2M31 53h1M44 53h1M51 53h1M59 53h4M70 53h1M32 54h1M44 54h1M51 54h1M58 54h1M71 54h2M33 55h1M37 55h1M45 55h1M73 55h1M37 56h1M45 56h1M61 56h3M74 56h1M32 57h1M46 57h1M64 57h2M75 57h3M30 58h2M40 58h1M46 58h1M61 58h1M66 58h1M78 58h2M34 59h2M59 59h2M64 59h1M71 59h1M79 59h1M26 60h1M39 60h1M41 60h1M72 60h2M77 60h2M25 61h1M36 61h1M40 61h2M55 61h3M25 62h1M34 62h1M37 62h2M42 62h2M53 62h2M58 62h1M24 63h1M39 63h3M52 63h1M59 63h2M23 64h1M41 64h1M45 64h2M50 64h2M54 64h1M61 64h1M23 65h1M26 65h1M41 65h1M48 65h2M55 65h1M61 65h1M40 66h1M62 66h1M40 67h1M62 67h1M40 68h1M62 68h1M39 69h1M63 69h1M38 70h1M64 70h1M38 71h1M64 71h1M38 72h1M62 72h1M39 73h1M45 73h1M39 74h1M44 74h1M38 75h1M43 75h1M38 76h1M39 77h1M39 78h1M40 79h1" />
<path stroke="#f6e662" d="M50 17h2M50 18h2M50 19h2M50 20h2M50 21h3M50 22h3M50 23h2M49 24h3M53 24h1M49 25h3M53 25h1M50 26h1M52 26h2M48 27h1M51 27h2M47 28h4M46 29h4M69 33h3M65 34h3M69 34h2M64 35h4M63 36h4M57 37h2M62 37h3M56 38h2M41 39h1M57 39h1M40 40h2M40 41h2M33 45h1M49 45h1M32 46h2M48 46h2M32 47h2M47 47h3M31 48h2M47 48h2M31 49h2M46 49h3M46 50h2M46 51h2M65 52h3M65 53h4M70 54h1M76 59h3M60 66h2M60 67h2M61 68h1M61 70h2M62 71h2" />
<path stroke="#101010" d="M52 17h1M52 18h1M53 19h1M53 20h1M53 21h1M54 22h1M55 23h1M55 24h1M55 25h1M55 26h1M55 27h1M34 28h1M55 28h1M35 29h2M56 29h1M29 30h1M37 30h1M56 30h1M30 31h1M38 31h1M55 31h1M30 32h1M38 32h1M54 32h1M31 33h1M53 33h1M32 34h1M52 34h1M33 35h1M33 36h1M57 36h2M34 37h2M36 38h1M35 39h1M67 39h1M43 40h1M42 42h1M59 42h2M41 43h1M61 43h1M16 44h1M32 44h1M39 44h2M62 44h1M17 45h3M31 45h1M62 45h1M20 46h1M31 46h1M38 46h1M21 47h1M30 47h1M37 47h1M63 47h1M22 48h1M30 48h1M37 48h1M63 48h1M23 49h2M30 49h1M37 49h1M40 49h1M63 49h1M25 50h4M30 50h1M39 50h1M63 50h1M30 51h1M35 51h1M63 51h1M35 52h1M62 52h1M35 53h1M35 54h1M32 55h1M35 55h1M50 55h1M58 55h1M33 56h2M40 56h1M50 56h1M59 56h2M33 57h1M38 57h1M40 57h1M49 57h1M61 57h1M34 58h1M38 58h2M49 58h1M62 58h2M47 59h2M65 59h6M36 60h1M59 60h1M74 60h3M35 61h1M58 61h1M32 62h2M30 63h2M28 64h2M52 64h2M27 65h1M47 65h1M54 65h1M24 66h2M47 66h1M55 66h1M46 67h1M55 67h1M46 68h1M55 68h1M47 69h1M56 69h2M47 70h1M58 70h2M47 71h1M60 71h2M46 72h1M63 72h1M43 76h1M42 77h1M42 78h1M41 79h1" />
<path stroke="#deb418" d="M52 19h1M52 20h1M49 22h1M49 23h1M52 23h1M54 23h1M54 24h1M54 25h1M49 26h1M54 26h1M53 27h2M28 28h1M51 28h4M29 29h1M31 29h1M50 29h6M48 30h1M50 30h6M31 31h2M53 31h2M31 32h1M46 34h1M71 34h1M45 35h2M63 35h1M69 35h3M45 36h1M62 36h1M68 36h3M58 38h2M42 39h1M56 39h1M42 40h1M39 42h1M17 43h1M22 44h1M33 44h2M48 44h2M20 45h1M23 45h1M28 45h3M32 45h1M34 45h1M48 45h1M22 46h4M28 46h2M50 46h1M24 47h2M31 47h1M38 47h2M33 48h1M38 48h1M63 53h1M69 53h1M38 54h1M64 54h1M38 55h2M71 56h3M71 57h4M72 58h1M29 59h2M72 59h2M29 60h1M28 61h1M27 62h1M25 63h1M25 64h2M41 66h1M41 67h2M44 67h1M41 68h2M44 68h1M59 68h1M40 69h2M43 69h2M46 69h1M59 69h2M39 70h3M43 70h2M46 70h1M60 70h1M63 70h1M40 71h1M42 71h2M46 71h1M42 72h2M42 73h2M39 75h2M39 76h2" />
<path stroke="#9c6a20" d="M53 22h1M53 23h1M46 30h2M33 31h2M37 31h1M48 31h1M35 32h2M49 32h1M53 32h1M38 33h2M49 33h1M65 33h1M33 34h2M40 34h1M44 34h1M68 34h1M35 35h1M68 35h1M36 36h1M67 36h1M36 37h1M61 37h1M65 37h2M60 38h5M58 39h3M57 40h1M62 40h4M56 41h1M61 41h1M21 42h1M56 42h1M21 43h1M28 43h1M34 43h1M40 43h1M23 44h1M29 44h1M35 44h1M24 45h2M21 46h1M26 46h1M39 46h1M22 47h1M40 47h1M50 47h1M23 48h2M34 48h1M49 48h2M52 48h1M33 49h1M49 49h1M32 50h2M48 50h1M31 51h1M33 51h1M45 51h1M48 51h1M33 52h1M45 52h1M47 52h1M51 52h1M34 53h1M38 53h2M46 53h2M34 54h1M37 54h1M39 54h1M63 54h1M40 55h1M64 55h3M71 55h2M46 56h1M67 56h4M47 57h1M59 57h1M62 57h2M28 58h2M48 58h1M58 58h1M64 58h2M27 59h1M58 59h1M31 60h3M29 61h2M28 62h1M56 62h2M26 63h2M44 64h1M58 64h1M44 65h1M58 65h1M44 66h1M59 66h1M43 67h1M59 67h1M43 68h1M42 69h1M45 69h1M42 70h1M45 70h1M41 71h1M45 71h1M41 72h1M44 72h2M41 73h1M44 73h1M41 74h1M42 75h1M42 76h1" />
<path stroke="#c59441" d="M52 24h1M52 25h1M51 26h1M49 27h2M32 30h1M36 30h1M49 30h1M46 31h2M49 31h4M32 32h3M37 32h1M47 32h2M50 32h3M32 33h6M47 33h2M50 33h3M35 34h5M47 34h3M34 35h1M36 35h4M47 35h1M34 36h2M37 36h1M46 36h1M67 37h3M65 38h3M55 39h1M61 39h6M55 40h2M58 40h4M66 40h1M57 41h4M62 41h4M40 42h2M61 42h3M20 43h1M39 43h1M17 44h1M27 46h1M30 46h1M23 47h1M26 47h1M25 48h5M39 48h1M51 48h1M25 49h3M34 49h1M38 49h2M50 49h2M31 50h1M34 50h1M38 50h1M49 50h3M32 51h1M34 51h1M49 51h3M32 52h1M34 52h1M46 52h1M48 52h3M32 53h2M45 53h1M48 53h3M33 54h1M45 54h6M59 54h4M34 55h1M46 55h4M59 55h5M38 56h2M47 56h3M64 56h3M39 57h1M48 57h1M60 57h1M66 57h5M32 58h2M47 58h1M59 58h2M67 58h5M77 58h1M31 59h3M30 60h1M34 60h2M40 60h1M31 61h4M29 62h3M55 62h1M28 63h2M42 63h2M53 63h6M24 64h1M27 64h1M42 64h2M55 64h3M60 64h1M24 65h2M42 65h2M45 65h2M56 65h2M42 66h2M45 66h2M56 66h3M45 67h1M56 67h3M45 68h1M56 68h3M60 68h1M58 69h1M61 69h2M39 71h1M44 71h1M39 72h2M40 73h1M40 74h1M42 74h2M41 75h1M41 76h1M40 77h2M40 78h2" />
<path stroke="#eede6a" d="M28 27h1M29 28h2M30 29h1M32 29h3M30 30h2M33 30h3M35 31h2M18 43h2M18 44h4M24 44h5M21 45h2M26 45h2M64 53h1M65 54h5M67 55h4M73 58h4M28 59h1M74 59h2M27 60h2M26 61h2M26 62h1M59 64h1M59 65h2" />
<path stroke="#e69400" d="M42 35h2M40 36h4M48 36h1M38 37h3M51 37h1M37 38h1M53 38h1M58 43h1M59 44h1M60 45h1M62 46h1M61 47h1M62 50h1" />
<path stroke="#f6ac00" d="M50 35h3M49 36h7M52 37h4M54 38h1M59 43h2M60 44h2M61 45h1M61 46h1M62 47h1M62 48h1M62 49h1" />
<path stroke="#a45200" d="M53 35h1M44 63h1M47 64h1" />
<path stroke="#d57b00" d="M41 37h1M38 38h1M36 39h1" />
<path stroke="#bd5a10" d="M42 37h3M47 37h4M39 38h2M43 38h10M37 39h3M44 39h10M35 40h4M44 40h10M35 41h4M43 41h12M34 42h4M43 42h13M35 43h3M42 43h6M50 43h8M36 44h3M41 44h6M51 44h8M36 45h11M51 45h9M35 46h3M40 46h7M52 46h9M35 47h2M41 47h5M52 47h9M36 48h1M41 48h5M53 48h9M36 49h1M41 49h4M53 49h9M36 50h1M40 50h5M53 50h9M36 51h2M40 51h4M53 51h10M36 52h8M52 52h10M36 53h2M40 53h4M52 53h7M36 54h1M40 54h4M52 54h6M36 55h1M41 55h4M51 55h7M35 56h2M41 56h4M51 56h8M34 57h4M41 57h5M50 57h9M35 58h3M41 58h5M50 58h8M36 59h11M49 59h9M37 60h2M42 60h17M37 61h3M42 61h13M39 62h3M44 62h9M45 63h7M48 64h2" />
</svg>