<svg xmlns="http://www.w3.org/2000/svg" viewBox="0 -0.5 96 96" shape-rendering="crispEdges">
<metadata>Made with Pixels to Svg https://codepen.io/shshaw/pen/XbxvNj</metadata>
<path stroke="#525273" d="M48 25h2M50 26h1M41 27h2M50 27h1M43 28h1M50 28h1M43 29h2M50 29h1M50 30h1M41 31h1M47 31h1M50 31h1M47 32h1M50 32h1M47 33h1M50 33h1M41 34h2M44 34h1M50 34h1M45 35h1M49 35h1M45 36h1M49 36h1M45 37h1M47 37h1M49 37h1M47 38h1M49 38h1M32 40h2M34 41h1M31 42h1M35 42h1M31 43h1M33 43h1M36 43h1M31 44h1M34 44h1M35 45h1M35 46h1M31 47h2M36 47h1M30 48h1M33 48h2M37 48h1M37 49h1M38 50h1M41 50h1M33 51h1M38 51h1M41 51h1M33 52h2M38 52h1M41 52h1M31 53h2M39 53h1M42 53h1M39 54h1M42 54h1M33 55h2M39 55h1M42 55h1M31 56h2M39 56h1M39 57h1M39 58h1M53 58h2M33 59h2M39 59h1M53 59h1M55 59h1M32 60h1M38 60h1M41 60h1M52 60h1M55 60h1M32 61h1M38 61h1M45 61h1M52 61h1M54 61h1M35 62h1M38 62h1M44 62h1M47 62h1M51 62h1M54 62h1M34 63h1M37 63h1M46 63h1M51 63h1M54 63h1M32 64h2M37 64h1M44 64h1M50 64h1M54 64h1M36 65h1M46 65h1M50 65h1M56 65h1M35 66h1M49 66h1M56 66h1M34 67h1M53 67h1M56 67h1M53 68h1M56 68h1" />
<path stroke="#000000" d="M47 26h1M47 27h1M40 28h1M45 28h2M40 29h1M40 30h1M40 31h1M46 31h1M41 32h1M44 32h2M41 33h1M44 33h1M47 34h1M42 35h1M47 35h1M42 36h1M47 36h1M42 37h1M43 38h1M46 38h1M43 39h1M46 39h1M31 40h1M43 40h1M31 41h1M43 41h1M32 42h1M41 43h1M37 44h1M40 44h1M30 45h1M38 45h1M30 46h1M39 46h1M59 46h1M39 47h1M58 47h1M60 47h1M40 48h1M57 48h2M60 48h1M30 49h1M40 49h1M57 49h1M30 50h2M57 50h1M60 50h1M32 51h1M57 51h1M57 52h1M61 52h1M63 52h1M30 53h1M58 53h1M61 53h1M63 53h1M30 54h1M58 54h1M60 54h1M30 55h1M59 55h2M64 55h1M42 56h1M64 56h1M30 57h1M42 57h1M63 57h1M30 58h1M42 58h1M30 59h1M42 59h1M63 59h1M31 60h1M61 60h2M41 61h1M56 61h1M60 61h1M31 62h1M41 62h1M45 62h1M56 62h1M58 62h2M31 63h1M40 63h1M44 63h1M47 63h1M49 63h1M56 63h2M40 64h1M42 64h2M46 64h1M49 64h1M56 64h1M33 65h1M39 65h1M44 65h2M48 65h1M53 65h1M33 66h1M38 66h1M46 66h3M53 66h1M36 67h2M49 67h1M34 68h2M50 68h1M52 68h1M54 68h2M51 69h2" />
<path stroke="#b4cdff" d="M48 26h2M48 27h2M41 28h2M48 28h2M41 29h2M46 29h4M41 30h9M42 31h3M48 31h2M43 32h1M49 32h1M32 41h2M33 42h2M34 43h2M35 44h2M36 45h1M36 46h2M37 47h2M38 48h1M39 49h1M39 50h1M55 65h1M55 66h1M54 67h2" />
<path stroke="#83a4c5" d="M47 28h1M45 29h1M45 31h1M42 32h1M48 32h1M42 33h2M48 33h2M43 34h1M48 34h2M43 35h2M48 35h1M43 36h2M48 36h1M43 37h2M48 37h1M44 38h2M48 38h1M44 39h2M47 39h1M44 40h2M32 43h1M32 44h2M31 45h4M37 45h1M31 46h4M38 46h1M33 47h3M31 48h2M35 48h2M39 48h1M31 49h6M38 49h1M32 50h6M40 50h1M34 51h4M39 51h2M35 52h3M39 52h2M33 53h6M40 53h2M31 54h8M40 54h2M31 55h2M35 55h4M40 55h2M33 56h6M40 56h2M31 57h8M40 57h2M31 58h8M40 58h2M31 59h2M35 59h4M40 59h2M54 59h1M33 60h5M39 60h2M53 60h2M33 61h5M39 61h2M53 61h1M55 61h1M32 62h3M36 62h2M39 62h2M52 62h2M55 62h1M32 63h2M35 63h2M38 63h2M52 63h2M55 63h1M34 64h3M38 64h2M51 64h3M55 64h1M34 65h2M37 65h2M51 65h2M54 65h1M34 66h1M36 66h2M50 66h3M54 66h1M35 67h1M50 67h3M51 68h1" />
<path stroke="#947b62" d="M50 38h4M54 39h2M56 40h2M44 41h2M58 41h1M49 42h1M53 42h1M55 42h2M59 42h1M48 43h4M54 43h1M56 43h2M60 43h1M48 44h3M54 44h1M61 44h1M40 45h2M55 45h1M61 45h1M42 46h1M55 46h1M62 46h1M43 47h1M48 47h4M55 47h1M62 47h1M44 48h1M48 48h5M55 48h1M62 48h1M44 49h1M48 49h5M56 49h1M63 49h1M44 50h1M49 50h3M56 50h1M63 50h1M45 51h1M56 51h1M45 52h1M56 52h1M45 53h1M50 53h3M56 53h1M45 54h1M50 54h4M57 54h1M45 55h1M51 55h3M57 55h1M45 56h1M51 56h2M57 56h1M61 56h1M56 57h1M58 57h1M56 58h1M56 59h1M56 60h1M60 60h1M43 61h1M42 62h1M42 63h2M45 63h1M50 63h1M45 64h1M47 64h2M47 65h1M49 65h1" />
<path stroke="#ac9c6a" d="M48 39h2M46 40h1M50 40h2M52 41h1M55 41h2M48 42h1M50 42h1M57 42h1M58 46h1M60 46h1M57 47h1M47 48h1M53 48h1M61 48h1M47 49h1M53 49h1M48 50h1M53 53h1M54 54h1M43 55h1M50 55h1M58 55h1M43 56h1M43 57h2M46 57h1M54 57h2M57 57h1M43 58h2M46 58h7M55 58h1M57 58h2M43 59h1M45 59h8M57 59h3M42 60h2M45 60h7M57 60h3M42 61h1M44 61h1M46 61h6M57 61h3M43 62h1M46 62h1M48 62h3M57 62h1M48 63h1" />
<path stroke="#eeeea4" d="M50 39h4M47 40h3M52 40h4M46 41h2M57 41h1M43 42h4M58 42h1M42 43h2M58 43h2M41 44h2M59 44h2M60 45h1M61 46h1M61 47h1M62 49h1M62 50h1M62 51h1" />
<path stroke="#d5cd83" d="M48 41h4M53 41h2M47 42h1M51 42h2M54 42h1M44 43h4M52 43h2M55 43h1M43 44h5M51 44h3M55 44h4M42 45h13M56 45h4M40 46h2M43 46h12M56 46h2M40 47h3M44 47h4M52 47h3M56 47h1M41 48h3M45 48h2M54 48h1M56 48h1M41 49h3M45 49h2M54 49h2M42 50h2M45 50h3M52 50h4M42 51h3M46 51h10M42 52h3M46 52h10M62 52h1M43 53h2M46 53h4M54 53h2M62 53h1M43 54h2M46 54h4M55 54h2M62 54h1M44 55h1M46 55h4M54 55h3M61 55h1M44 56h1M46 56h5M53 56h4M58 56h3M47 57h7M59 57h2M59 58h1" />
<path stroke="#62524a" d="M42 42h1M39 45h1M59 47h1M58 49h1M61 49h1M61 50h1M61 51h1M63 51h1M58 52h1M57 53h1M60 53h1M59 54h1M61 54h1M63 54h1M62 55h1M45 57h1M62 57h1M45 58h1M60 58h2M63 58h1M44 59h1M60 59h1M44 60h1M41 63h1" />
<path stroke="#ffffff" d="M59 48h1M59 49h1M59 50h1M59 51h2M59 52h1M59 53h1" />
<path stroke="#e6dee6" d="M60 49h1M58 50h1M58 51h1M60 52h1" />
<path stroke="#ff7b83" d="M63 55h1" />
<path stroke="#cd5273" d="M62 56h2M61 57h1M62 58h1M61 59h2" />
</svg>