<svg xmlns="http://www.w3.org/2000/svg" viewBox="0 -0.5 96 96" shape-rendering="crispEdges">
<metadata>Made with Pixels to Svg https://codepen.io/shshaw/pen/XbxvNj</metadata>
<path stroke="#394a7b" d="M56 26h1M55 27h1M55 28h1M54 29h1M54 30h1M53 31h1M52 32h1M52 33h1M51 34h1M54 34h1M50 35h2M53 35h1M59 37h1M60 38h1M61 39h1M62 40h1M62 41h1M63 42h1M60 45h1M33 47h1M43 47h2M59 47h1M42 48h1M50 48h1M59 48h1M35 49h1M51 49h1M59 49h1M36 51h1M40 51h1M44 51h1M39 52h1M45 52h1M37 53h2M46 54h1M47 56h1M54 56h1M49 58h1M53 58h1M55 59h1M54 60h1M54 61h1M55 62h1" />
<path stroke="#625a8b" d="M57 26h1M58 27h1M58 28h1M58 29h1M58 30h1M58 31h1M58 32h1M54 33h1M58 33h1M58 34h1M52 35h1M56 35h1M59 35h1M53 36h1M56 36h1M59 36h1M58 37h1M44 38h7M42 39h12M40 40h16M40 41h18M39 42h20M39 43h21M39 44h22M39 45h21M39 46h21M41 47h2M45 47h14M43 48h7M51 48h8M43 49h8M52 49h7M46 50h6M53 50h7M47 51h5M53 51h8M47 52h6M54 52h8M48 53h5M54 53h7M48 54h5M54 54h5M48 55h6M49 56h5M49 57h7M50 58h3M56 58h1" />
<path stroke="#73739c" d="M56 27h2M56 28h2M55 29h3M55 30h3M54 31h4M53 32h4M53 33h1M55 33h2M52 34h2M55 34h2M54 35h2M52 36h1M54 36h2M55 37h1M42 38h2M51 38h1M41 39h1M54 39h1M56 40h1M61 40h1M62 42h1M32 46h4M34 47h5M35 48h6M36 49h7M36 50h10M37 51h3M45 51h2M37 52h2M46 52h1M46 53h2M47 54h1M47 55h1M48 56h1M48 57h1" />
<path stroke="#8383ac" d="M57 32h1M57 33h1M57 34h1M57 35h2M46 36h6M57 36h2M44 37h11M56 37h2M52 38h8M55 39h6M57 40h4M58 41h4M59 42h3M60 43h2M56 57h1" />
<path stroke="#000000" d="M46 35h4M44 36h2M42 37h2M41 38h1M40 39h1M39 40h1M39 41h1M38 42h1M38 43h1M38 44h1M62 44h2M32 45h4M38 45h1M61 45h2M31 46h1M36 46h3M60 46h2M31 47h2M39 47h1M60 47h2M31 48h4M60 48h2M31 49h4M60 49h2M32 50h4M61 50h1M32 51h4M41 51h3M63 51h1M32 52h5M40 52h5M62 52h1M31 53h6M39 53h7M31 54h15M53 54h1M59 54h2M30 55h17M54 55h1M58 55h1M30 56h17M55 56h2M30 57h18M31 58h18M54 58h2M33 59h22M56 59h1M35 60h19M55 60h1M37 61h17M55 61h1M38 62h17M56 62h1M39 63h18M40 64h17M40 65h9M53 65h3M42 66h5" />
<path stroke="#18315a" d="M62 43h2M61 44h1M64 44h1M63 45h2M62 46h1M64 46h1M40 47h1M64 47h1M41 48h1M64 48h1M64 49h1M52 50h1M60 50h1M63 50h1M52 51h1M61 51h1M53 52h1M53 53h1M61 53h1M55 55h3M57 57h1M57 58h1M39 64h1" />
<path stroke="#418bac" d="M63 46h1M62 47h1M62 48h1M62 49h1" />
<path stroke="#73b4d5" d="M63 47h1M63 48h1" />
<path stroke="#4173ac" d="M63 49h1M62 50h1M62 51h1" />
</svg>