<svg xmlns="http://www.w3.org/2000/svg" viewBox="0 -0.5 96 96" shape-rendering="crispEdges">
<metadata>Made with Pixels to Svg https://codepen.io/shshaw/pen/XbxvNj</metadata>
<path stroke="#5a5262" d="M49 22h2M49 23h1M48 24h1M48 25h1M53 26h1M38 30h2M36 31h2M56 31h1M58 32h1M57 33h1M45 38h1M62 38h1M63 39h1M43 40h1M62 40h1M40 41h1M42 41h2M41 42h4M40 43h5M40 44h6M37 45h1M39 45h8M63 45h2M27 46h1M38 46h11M39 47h12M61 47h1M32 48h4M40 48h15M59 48h3M28 49h7M42 49h19M21 50h1M26 50h8M44 50h15M22 51h5M46 51h10M23 52h4M50 52h3M23 53h5M47 53h5M24 54h4M46 54h7M58 54h1M25 55h4M48 55h14M23 56h6M43 56h1M49 56h9M62 56h2M23 57h3M49 57h7M60 57h2M63 57h2M25 58h2M49 58h5M61 58h4M48 59h7M61 59h5M48 60h8M61 60h5M41 61h2M46 61h10M62 61h4M41 62h2M45 62h11M62 62h5M46 63h10M62 63h1M64 63h2M45 64h12M62 64h1M65 64h1M67 64h1M43 65h14M62 65h1M42 66h15M42 67h15M43 68h3M50 68h7M43 69h4M51 69h5M44 70h3M52 70h4M44 71h3M52 71h4M53 72h3" />
<path stroke="#9c9ca4" d="M50 23h1M49 24h2M49 25h2M48 26h4M48 27h4M47 28h6M49 29h4M38 31h2M36 32h5M61 32h3M35 33h6M59 33h4M34 34h7M60 34h2M34 35h6M33 36h7M32 37h8M31 38h8M31 39h8M30 40h8M30 41h8M29 42h8M29 43h8M29 44h7M28 45h8M28 46h7M26 47h8M23 48h7M23 49h3" />
<path stroke="#393141" d="M51 23h1M47 26h1M47 27h1M46 28h1M41 29h2M40 30h1M56 30h1M57 31h1M61 31h3M35 32h1M64 32h1M34 33h1M33 34h1M32 35h1M32 36h1M64 36h1M31 37h1M44 38h1M43 39h1M62 39h1M64 39h1M64 40h1M28 44h1M64 44h1M63 46h1M23 47h1M38 47h1M62 47h1M21 48h2M39 48h1M62 48h1M40 49h2M61 49h1M34 50h1M42 50h2M59 50h1M27 51h1M33 51h1M56 51h1M49 52h1M58 53h1M28 54h1M23 55h2M44 55h1M65 55h1M22 56h1M61 56h1M66 56h1M26 57h3M42 57h1M59 57h1M62 57h1M66 57h1M24 58h1M27 58h1M42 58h1M54 58h1M60 58h1M67 58h1M25 59h4M41 59h1M60 59h1M67 59h1M26 60h3M41 60h1M60 60h1M25 61h1M27 61h1M40 61h1M61 61h1M40 62h1M44 62h1M61 62h1M45 63h1M61 63h1M44 64h1M57 64h1M61 64h1M63 64h1M61 65h1M63 65h1M61 66h2M41 67h1M42 68h1M46 68h1M42 69h1M47 69h1M56 69h1M47 70h1" />
<path stroke="#7b7b83" d="M51 24h1M51 25h2M52 26h1M52 27h2M53 28h2M45 29h4M53 29h2M41 30h15M40 31h16M41 32h17M41 33h16M63 33h1M41 34h19M62 34h2M33 35h1M40 35h24M40 36h24M40 37h23M39 38h5M46 38h16M39 39h4M44 39h18M38 40h4M44 40h18M63 40h1M38 41h2M44 41h20M37 42h3M45 42h19M37 43h2M45 43h19M36 44h3M46 44h18M36 45h1M47 45h16M35 46h2M49 46h14M34 47h2M51 47h10M30 48h2M55 48h4M21 49h2M26 49h2M22 50h4M59 54h5M45 55h3M62 55h3M44 56h5M64 56h2M43 57h6M65 57h1M43 58h6M65 58h2M42 59h6M66 59h1M42 60h6M66 60h2M43 61h3M66 61h2M67 62h1M67 63h1" />
<path stroke="#000000" d="M52 24h1M53 25h1M54 26h1M54 27h1M45 28h1M55 28h1M43 29h2M55 29h1M59 32h2M58 33h1M64 33h1M64 34h1M64 35h1M63 37h1M30 38h1M63 38h1M30 39h1M29 40h1M42 40h1M29 41h1M41 41h1M64 41h1M28 42h1M40 42h1M64 42h1M28 43h1M39 43h1M64 43h1M27 44h1M39 44h1M27 45h1M38 45h1M26 46h1M37 46h1M24 47h2M36 47h1M36 48h1M20 49h1M35 49h1M20 50h1M60 50h1M21 51h1M28 51h5M44 51h2M57 51h2M22 52h1M27 52h1M46 52h3M53 52h3M22 53h1M28 53h1M46 53h1M52 53h1M59 53h5M23 54h1M45 54h1M53 54h5M64 54h1M22 55h1M29 55h1M21 56h1M29 56h1M58 56h3M21 57h2M56 57h2M23 58h1M55 58h1M24 59h1M55 59h1M25 60h1M56 60h1M68 60h1M24 61h1M26 61h1M56 61h1M68 61h1M23 62h3M56 62h1M68 62h1M40 63h2M56 63h1M63 63h1M66 63h1M68 63h1M64 64h1M66 64h1M68 64h1M42 65h1M57 65h1M65 65h1M67 65h2M41 66h1M57 66h1M39 67h1M57 67h1M47 68h3M57 68h1M32 69h1M38 69h1M50 69h1M37 70h2M43 70h1M51 70h1M56 70h1M43 71h1M47 71h1M51 71h1M56 71h1M44 72h4M52 72h1M56 72h1M53 73h4" />
<path stroke="#a47b10" d="M61 50h1M60 51h1M62 52h1M35 60h1M32 61h1M35 61h1M32 62h4M38 62h1M32 63h3M43 63h2M31 64h3M41 64h2M31 65h3M40 65h1M32 66h3M36 66h1M39 66h1M33 67h3M38 67h1M33 68h3M37 69h1" />
<path stroke="#523900" d="M62 50h1M59 51h1M63 51h1M60 52h1M63 52h1M35 59h2M34 60h1M36 60h1M31 61h1M39 62h1M43 62h1M31 63h1M42 63h1M30 64h1M43 64h1M30 65h1M34 65h1M31 66h1M40 66h1M32 67h1M36 67h1M32 68h1M39 68h1M33 69h4" />
<path stroke="#eebd5a" d="M61 51h2M61 52h1M37 61h1M37 62h1M36 63h3M35 64h5M36 65h2" />
<path stroke="#7b5a29" d="M31 60h3M37 60h1M33 61h2M36 61h1M38 61h1M31 62h1M35 63h1M39 63h1M34 64h1M40 64h1M41 65h1M35 66h1M36 68h1M38 68h1" />
<path stroke="#d59c39" d="M36 62h1M35 65h1M38 65h2M37 66h2M37 67h1M37 68h1" />
</svg>