<svg xmlns="http://www.w3.org/2000/svg" viewBox="0 -0.5 96 96" shape-rendering="crispEdges">
<metadata>Made with Pixels to Svg https://codepen.io/shshaw/pen/XbxvNj</metadata>
<path stroke="#4a6abd" d="M44 31h3M43 32h1M52 32h1M42 33h1M45 33h2M53 33h1M56 33h2M54 34h5M42 35h1M53 35h6M41 36h4M51 36h8M61 36h1M40 37h20M62 37h2M39 38h23M64 38h1M38 39h25M65 39h1M38 40h26M37 41h28M37 42h20M60 42h5M37 43h20M60 43h3M36 44h20M60 44h2M36 45h20M60 45h3M36 46h21M59 46h4M36 47h27M36 48h27M36 49h27M36 50h23M61 50h2M37 51h22M61 51h2M37 52h22M61 52h1M38 53h16M57 53h5M39 54h15M57 54h5M38 55h1M43 55h10M57 55h4M35 56h3M42 56h1M44 56h9M57 56h4M31 57h2M34 57h4M41 57h2M44 57h10M56 57h4M31 58h3M35 58h4M40 58h4M46 58h14M32 59h13M49 59h10M34 60h16M51 60h6M37 61h11M50 61h4M39 62h6" />
<path stroke="#394a7b" d="M56 31h3M47 32h5M55 32h1M59 32h1M54 33h1M60 33h1M42 34h2M60 34h1M41 35h1M60 35h1M40 36h1M39 37h1M38 38h1M37 39h1M65 40h1M65 41h1M65 42h1M63 43h2M35 44h1M62 44h1M35 50h1M36 51h1M36 52h1M37 53h1M32 54h2M45 59h1M48 59h1M36 61h1M48 62h3" />
<path stroke="#6a8bde" d="M44 32h3M43 33h2M52 33h1M55 33h1M58 33h2M44 34h1M53 34h1M59 34h1M43 35h1M52 35h1M59 35h1M45 36h1M50 36h1M59 36h2M60 37h2M62 38h1M64 40h1M57 42h1M59 42h1M56 44h1M56 45h1M59 45h1M58 46h1M59 50h1M60 52h1M54 53h1M56 53h1M34 54h3M33 55h5M53 55h1M30 56h2M33 56h2M39 56h3M53 56h1M56 56h1M30 57h1M39 57h2M54 57h2" />
<path stroke="#94acf6" d="M56 32h3M47 33h5M45 34h8M44 35h8M46 36h4M63 38h1M63 39h2" />
<path stroke="#000000" d="M37 40h1M36 41h1M36 42h1M36 43h1M35 45h1M35 46h1M35 47h1M35 48h1M35 49h1M65 49h1M65 50h1M65 51h1M34 53h3M37 54h2M64 54h1M30 55h3M39 55h4M29 56h1M32 56h1M38 56h1M43 56h1M29 57h1M33 57h1M38 57h1M43 57h1M30 58h1M34 58h1M39 58h1M44 58h2M31 59h1M46 59h2M59 59h1M32 60h2M50 60h1M57 60h4M34 61h2M48 61h2M54 61h3M62 61h2M36 62h3M45 62h3M51 62h3M39 63h6" />
<path stroke="#acc5ff" d="M58 42h1M57 43h3M57 44h3M57 45h2M57 46h1M60 50h1M59 51h2M59 52h1M55 53h1M54 54h3M54 55h3M54 56h2" />
<path stroke="#a4946a" d="M63 44h1M63 57h1M64 58h1M61 60h2" />
<path stroke="#6a5a31" d="M64 44h1M65 45h1M65 46h1M65 47h1M65 48h1M65 52h1M64 53h1M63 55h1M63 56h1M62 57h1M61 58h1M60 59h1M65 59h1M65 60h1M61 61h1M64 61h1" />
<path stroke="#f6e6bd" d="M63 45h1M63 46h2M63 47h2M63 48h2M63 49h2M63 50h2M63 51h2M63 52h2M62 53h2M62 54h2M61 55h2M61 56h2M61 57h1M63 58h1M63 59h2M64 60h1" />
<path stroke="#cdbd83" d="M64 45h1M62 52h1M60 57h1M60 58h1M62 58h1M61 59h2M63 60h1" />
</svg>