<svg xmlns="http://www.w3.org/2000/svg" viewBox="0 -0.5 96 96" shape-rendering="crispEdges">
<metadata>Made with Pixels to Svg https://codepen.io/shshaw/pen/XbxvNj</metadata>
<path stroke="#62396a" d="M49 20h1M48 21h1M50 21h1M50 22h1M51 23h1M52 24h1M53 25h1M48 26h1M54 26h2M53 31h1M54 32h1M15 39h3M13 40h2M18 40h1M12 41h1M19 41h1M19 42h1M20 43h1M20 44h1M9 45h1M20 45h1M20 46h1M19 50h1M18 51h1M12 54h1M59 57h1M58 59h1M59 60h1M59 61h1M58 62h1M58 63h1M57 64h1M56 66h2M56 67h2M55 68h1" />
<path stroke="#b473e6" d="M49 21h1M49 22h1M50 23h1M50 24h2M51 25h2M52 26h2M53 27h3M55 28h1M15 40h3M13 41h6M12 42h1M17 42h2M18 43h2M19 44h1M19 45h1M58 60h1M60 60h1M60 61h1M60 62h1" />
<path stroke="#000000" d="M48 22h1M48 23h1M48 24h1M48 25h1M49 27h1M49 28h1M50 29h1M51 30h1M52 31h1M55 32h2M57 33h4M61 34h6M67 35h2M69 36h1M70 37h1M11 42h1M76 42h1M10 43h1M74 43h2M78 43h1M10 44h1M76 44h2M74 45h1M9 46h1M73 46h1M75 46h1M9 47h1M19 47h1M73 47h1M75 47h1M9 48h1M18 48h1M73 48h3M9 49h1M19 49h3M74 49h1M9 50h1M22 50h2M10 51h1M24 51h2M10 52h1M18 52h1M26 52h1M79 52h4M87 52h1M11 53h1M16 53h2M27 53h1M77 53h2M83 53h4M13 54h3M28 54h1M61 54h4M76 54h1M29 55h1M60 55h1M65 55h2M74 55h2M29 56h1M59 56h1M67 56h3M72 56h2M30 57h1M68 57h1M71 57h1M30 58h1M58 58h1M60 58h1M67 58h1M70 58h1M31 59h1M60 59h1M67 59h1M69 59h1M31 60h1M57 60h1M61 60h1M66 60h1M68 60h1M31 61h1M57 61h1M61 61h1M66 61h1M68 61h1M32 62h1M57 62h1M61 62h1M65 62h1M67 62h1M32 63h1M56 63h1M60 63h1M65 63h1M67 63h1M32 64h1M56 64h1M59 64h1M65 64h1M67 64h1M32 65h1M56 65h1M58 65h1M66 65h1M33 66h1M55 66h1M58 66h1M33 67h1M55 67h1M58 67h1M33 68h1M54 68h1M56 68h2M34 69h1M54 69h1M34 70h1M53 70h1M35 71h1M52 71h1M36 72h1M51 72h1M37 73h1M49 73h2M38 74h2M46 74h3M40 75h6" />
<path stroke="#9c5abd" d="M49 23h1M49 24h1M49 25h2M49 26h3M50 27h3M50 28h5M51 29h5M52 30h4M54 31h3M77 41h1M13 42h4M11 43h7M11 44h8M10 45h9M10 46h10M10 47h9M10 48h8M10 49h9M10 50h9M11 51h7M11 52h7M12 53h4M58 61h1M59 62h1M57 63h1M59 63h1M58 64h1" />
<path stroke="#d562a4" d="M56 27h3M59 28h3M56 29h2M62 29h3M56 30h5M65 30h2M57 31h7M57 32h8M61 33h6M67 34h1M69 35h1M64 37h6M61 38h3M74 38h1M59 39h2M75 39h1M57 40h2M66 40h6M76 40h1M56 41h1M62 41h12M55 42h1M59 42h16M77 42h1M54 43h1M58 43h15M56 44h16M78 44h1M55 45h17M76 45h1M79 45h1M52 46h1M54 46h17M79 46h1M52 47h19M19 48h1M51 48h20M78 48h1M51 49h21M77 49h3M50 50h22M77 50h4M50 51h23M74 51h1M76 51h7M50 52h29M83 52h2M49 53h28M49 54h12M65 54h11M49 55h11M67 55h7M30 56h1M49 56h10M70 56h2M31 57h2M48 57h11M69 57h2M31 58h4M48 58h10M68 58h2M32 59h4M48 59h10M68 59h1M32 60h4M48 60h9M67 60h1M32 61h3M47 61h10M67 61h1M33 62h1M47 62h10M66 62h1M36 63h1M47 63h9M66 63h1M35 64h2M46 64h10M66 64h1M33 65h4M46 65h10M34 66h2M45 66h10M44 67h11M37 68h3M43 68h11M35 69h19M35 70h18M36 71h16M37 72h14M38 73h11M40 74h6" />
<path stroke="#f68bc5" d="M56 28h3M58 29h4M61 30h4M64 31h1M67 31h2M65 32h1M69 32h1M67 33h1M70 33h1M68 34h1M71 34h1M72 35h1M73 36h1M74 37h1M64 40h2M72 40h1M57 41h1M60 41h2M74 41h1M58 42h1M75 42h1M57 43h1M76 43h1M53 45h1M77 45h1M53 46h1M78 47h1M20 48h3M79 48h1M22 49h4M24 50h4M81 50h1M26 51h4M83 51h1M27 52h4M85 52h1M28 53h4M29 54h4M30 55h4M31 56h3M33 57h2" />
<path stroke="#f6accd" d="M65 31h2M66 32h2M68 33h1M69 34h1M70 35h1M70 36h1M71 37h1M64 38h9M61 39h13M59 40h5M73 40h2M58 41h2M75 41h1M56 42h2M55 43h2M77 43h1M54 44h2M54 45h1M78 45h1M78 46h1M79 47h1M80 48h1M80 49h2M82 50h1M84 51h1M86 52h1" />
<path stroke="#ffcdde" d="M68 32h1M69 33h1M70 34h1M71 35h1M71 36h2M72 37h2M73 38h1M74 39h1M75 40h1M76 41h1" />
<path stroke="#944a5a" d="M73 43h1M53 44h1M72 44h1M52 45h1M72 45h1M51 46h1M71 46h1M77 46h1M20 47h3M51 47h1M71 47h1M77 47h1M80 47h1M23 48h3M50 48h1M71 48h1M77 48h1M81 48h1M26 49h2M50 49h1M72 49h1M76 49h1M82 49h1M28 50h2M49 50h1M72 50h1M76 50h1M83 50h2M30 51h1M49 51h1M73 51h1M75 51h1M85 51h2M31 52h1M49 52h1M32 53h1M48 53h1M33 54h1M48 54h1M34 55h1M48 55h1M34 56h1M48 56h1M35 57h1M47 57h1M35 58h1M47 58h1M36 59h1M47 59h1M36 60h1M47 60h1M46 61h1M37 62h1M46 62h1M37 63h1M46 63h1M37 64h1M45 64h1M45 65h1M57 65h1M44 66h1M39 67h1M43 67h1M40 68h3" />
<path stroke="#cdbdac" d="M73 44h1M75 44h1M73 45h1M72 46h1M72 47h1M74 47h1M72 48h1M76 48h1M73 49h1M75 49h1M73 50h3M35 61h1M34 62h3M33 63h3M33 64h2M37 65h1M36 66h2M34 67h5M34 68h3" />
<path stroke="#ffffff" d="M74 44h1M75 45h1M74 46h1M76 46h1M76 47h1" />
<path stroke="#de9cff" d="M59 58h1M59 59h1" />
<path stroke="#7b6a62" d="M36 61h1M38 65h1M38 66h1" />
</svg>