<svg xmlns="http://www.w3.org/2000/svg" viewBox="0 -0.5 96 96" shape-rendering="crispEdges">
<metadata>Made with Pixels to Svg https://codepen.io/shshaw/pen/XbxvNj</metadata>
<path stroke="#4a5262" d="M51 24h4M49 25h2M55 25h3M47 26h2M58 26h1M59 27h1M60 28h1M45 29h1M56 29h2M60 29h1M44 30h1M53 30h2M61 30h1M44 31h1M51 31h2M62 31h1M43 32h1M50 32h1M63 32h1M43 33h1M49 33h1M63 33h1M43 34h1M49 34h1M64 34h1M43 35h1M48 35h1M54 35h4M64 35h1M43 36h1M48 36h1M57 36h2M42 37h1M47 37h1M57 37h1M42 38h1M47 38h1M57 38h1M42 39h1M49 39h2M57 39h1M42 40h1M54 40h1M57 40h1M62 40h1M42 41h1M41 42h1M63 42h1M41 43h1M63 43h1M40 44h1M56 44h1M58 44h1M63 44h1M39 45h1M55 45h1M58 45h1M63 45h1M38 46h1M36 47h2M48 50h1M35 52h1M47 52h1M36 53h1M49 53h2M51 54h2M53 55h1M47 56h2M33 57h1M49 57h1M33 58h1M47 58h3M33 59h1M46 59h1M50 59h1M33 60h1M51 60h1M51 61h1M34 62h1M52 62h1M52 63h1M33 66h2M44 66h1M37 67h1M40 68h1M49 68h2M40 69h1M51 69h1M52 70h1M51 71h1" />
<path stroke="#d5cdde" d="M51 25h4M53 26h4M55 27h4M56 28h4M44 29h1M43 30h1M58 30h3M59 31h3M61 32h2M61 33h2M62 34h2M63 35h1M63 36h1M58 37h1M58 38h1M60 38h1M41 44h1M40 45h2M56 45h1M39 46h3M56 46h2M38 47h3M36 48h5M38 49h2" />
<path stroke="#a49cb4" d="M49 26h4M57 26h1M47 27h8M46 28h10M46 29h9M45 30h8M56 30h2M43 31h1M45 31h6M53 31h6M42 32h1M44 32h6M51 32h10M42 33h1M44 33h5M50 33h11M41 34h2M44 34h5M50 34h12M41 35h2M44 35h4M50 35h4M59 35h4M41 36h2M44 36h4M49 36h3M60 36h3M41 37h1M44 37h3M48 37h3M61 37h3M43 38h4M48 38h2M61 38h3M43 39h4M48 39h1M59 39h1M43 40h4M43 41h3M43 42h3M42 43h4M42 44h3M42 45h3M42 46h2M41 47h3M41 48h2M35 49h3M40 49h3M35 50h7M35 51h6M36 52h2" />
<path stroke="#000000" d="M46 27h1M44 28h2M43 29h1M42 30h1M41 31h1M41 32h1M40 33h1M40 34h1M40 35h1M40 36h1M52 36h2M64 36h1M40 37h1M51 37h1M59 37h1M64 37h1M41 38h1M50 38h1M59 38h1M64 38h1M41 39h1M47 39h1M60 39h1M63 39h1M47 40h1M49 40h1M47 41h2M46 42h1M46 43h1M57 43h1M46 44h1M45 45h1M45 46h1M55 46h1M58 46h1M62 46h1M44 47h1M62 47h1M35 48h1M44 48h1M60 48h2M34 49h1M43 49h1M49 49h3M58 49h2M34 50h1M42 50h1M52 50h4M34 51h1M41 51h1M48 51h1M39 52h2M48 52h1M35 53h1M37 53h2M34 54h1M34 55h1M33 56h1M53 56h1M32 57h1M50 57h3M32 58h1M31 59h1M31 60h1M45 60h1M31 61h1M44 61h1M31 62h1M44 62h1M32 63h1M35 63h1M43 63h1M32 64h1M36 64h1M43 64h1M52 64h1M33 65h1M37 65h2M43 65h1M52 65h1M39 66h2M51 66h1M32 67h1M38 67h2M41 67h4M50 67h1M32 68h1M45 68h1M33 69h1M39 69h1M44 69h1M34 70h5M44 70h1M45 71h2M52 71h1M47 72h4" />
<path stroke="#839494" d="M55 29h1M58 29h2M55 30h1M42 31h1M41 33h1M49 35h1M58 35h1M59 36h1M43 37h1M60 37h1M62 39h1M48 40h1M46 41h1M42 42h1M45 44h1M44 46h1M43 48h1M38 52h1" />
<path stroke="#5a83ac" d="M54 36h3M52 37h5M51 38h3M55 38h2M51 39h2M56 39h1M61 39h1M50 40h3M56 40h1M60 40h2M49 41h4M56 41h4M62 41h1M47 42h6M56 42h4M47 43h10M58 43h3M47 44h9M59 44h3M46 45h6M54 45h1M60 45h2M46 46h5M61 46h1M45 47h6M45 48h5M44 49h5M43 50h5M42 51h6M41 52h6M39 53h10M35 54h14M35 55h15M34 56h13M49 56h2M34 57h15M34 58h13M32 59h1M38 59h8M47 59h1M49 59h1M32 60h1M40 60h5M46 60h2M32 61h2M41 61h3M45 61h4M32 62h2M42 62h2M45 62h5M33 63h2M42 63h1M44 63h6M33 64h3M44 64h7M34 65h3M44 65h8M35 66h4M45 66h6M33 67h4M45 67h5M33 68h7M46 68h3M34 69h5M45 69h5M45 70h4M47 71h3" />
<path stroke="#bda473" d="M54 38h1M53 39h3M53 40h1M55 40h1M53 41h1M55 41h1M54 42h1M52 45h2M51 46h4M59 46h1M51 47h5M58 47h3M50 48h10M53 49h4M35 59h3M34 60h6M35 61h6M35 62h7M36 63h6M37 64h6M39 65h4M41 66h2" />
<path stroke="#f6f6ff" d="M58 39h1M58 40h2" />
<path stroke="#837352" d="M54 41h1M53 42h1M55 42h1M59 45h1M60 46h1M56 47h2M61 47h1M52 49h1M57 49h1M56 50h1M34 59h1M34 61h1M43 66h1" />
<path stroke="#62ace6" d="M60 41h2M60 42h3M61 43h2M62 44h1M62 45h1M49 54h2M50 55h3M51 56h2M48 59h1M48 60h3M49 61h2M50 62h2M50 63h2M51 64h1M50 69h1M49 70h1M50 71h1" />
<path stroke="#ffffff" d="M57 44h1M57 45h1" />
<path stroke="#94d5ff" d="M50 70h2" />
</svg>