<svg xmlns="http://www.w3.org/2000/svg" viewBox="0 -0.5 96 96" shape-rendering="crispEdges">
<metadata>Made with Pixels to Svg https://codepen.io/shshaw/pen/XbxvNj</metadata>
<path stroke="#414a83" d="M61 31h4M60 32h1M65 32h2M56 33h1M67 33h1M53 34h2M51 35h1M50 36h1M62 36h4M59 37h3M58 38h2M64 38h2M47 39h1M58 39h1M62 39h1M66 39h1M45 40h1M57 40h1M61 40h3M67 40h1M41 41h2M51 41h1M56 41h1M63 41h1M67 41h1M38 42h1M48 42h3M56 42h1M64 42h1M68 42h1M36 43h2M46 43h2M56 43h1M59 43h1M62 43h2M65 43h1M34 44h2M51 44h3M57 44h2M62 44h1M66 44h1M33 45h2M49 45h2M57 45h1M61 45h1M66 45h1M36 46h2M41 46h1M54 46h2M61 46h1M67 46h1M34 47h1M51 47h1M61 47h1M67 47h1M31 48h1M33 48h1M44 48h1M58 48h1M60 48h2M44 49h1M54 49h1M59 49h4M46 50h1M54 50h1M63 50h1M52 51h2M57 51h1M64 51h1M53 52h1M58 52h1M53 53h1M58 53h1M54 56h1M32 58h1M52 58h2M33 59h1M46 59h2M33 60h1M46 60h1M46 61h1M45 62h1M47 62h1M36 63h1M44 63h1M38 64h4" />
<path stroke="#101010" d="M57 32h3M52 33h4M68 33h1M51 34h1M69 34h1M69 35h1M66 36h3M64 37h2M62 38h2M46 39h1M61 39h1M43 40h2M60 40h1M60 41h1M39 42h5M59 42h1M44 43h2M54 43h2M57 43h2M68 43h1M46 44h2M59 44h1M68 44h1M48 45h1M59 45h1M68 45h1M32 46h1M38 46h3M49 46h1M56 46h1M59 46h1M68 46h1M32 47h1M42 47h2M50 47h1M52 47h3M59 47h1M68 47h1M50 48h1M54 48h1M59 48h1M67 48h1M31 49h1M40 49h2M45 49h1M51 49h1M58 49h1M67 49h1M31 50h1M33 50h2M39 50h1M42 50h1M45 50h1M51 50h1M58 50h1M66 50h1M31 51h2M34 51h1M38 51h1M43 51h1M46 51h1M51 51h1M58 51h1M65 51h1M34 52h1M43 52h1M46 52h1M52 52h1M57 52h1M63 52h2M34 53h1M44 53h1M46 53h1M52 53h1M57 53h1M59 53h4M34 54h1M44 54h1M47 54h1M52 54h1M56 54h1M34 55h1M37 55h1M40 55h3M47 55h1M52 55h1M55 55h1M33 56h2M37 56h3M47 56h1M52 56h1M55 56h1M31 57h2M47 57h1M52 57h1M54 57h1M29 58h2M41 58h2M47 58h1M51 58h1M38 59h3M42 59h1M51 59h1M34 60h4M42 60h1M50 60h1M34 61h1M42 61h1M49 61h1M35 62h1M41 62h1M48 62h1M37 63h4M45 63h2M42 64h2" />
<path stroke="#528bd5" d="M61 32h1M64 32h1M58 33h3M62 33h1M55 34h8M52 35h1M55 35h13M55 36h7M55 37h4M55 38h3M54 39h4M63 39h1M65 39h1M47 40h1M53 40h4M44 41h6M53 41h3M64 41h1M45 42h3M52 42h3M65 42h3M64 43h1M40 44h3M56 44h1M63 44h3M38 45h10M51 45h1M55 45h2M62 45h4M67 45h1M35 46h1M42 46h7M50 46h4M62 46h5M33 47h1M44 47h6M62 47h5M32 48h1M45 48h5M62 48h5M46 49h4M63 49h3M47 50h4M47 51h4M47 52h4M48 53h2M48 54h1M48 55h1M48 56h1M48 57h1M48 58h1M48 59h1M47 60h2M47 61h1M46 62h1" />
<path stroke="#94b4ee" d="M62 32h2M63 33h4M67 34h2M50 37h3M49 38h5M49 39h4M64 39h1M51 40h1M64 40h3M65 41h2M38 43h6M66 43h2M36 44h4M43 44h3M67 44h1M35 45h3M33 46h2" />
<path stroke="#4a6aa4" d="M57 33h1M61 33h1M52 34h1M63 34h3M54 35h1M68 35h1M54 36h1M49 37h1M54 37h1M62 37h2M48 38h1M54 38h1M60 38h2M53 39h1M59 39h2M46 40h1M52 40h1M58 40h2M43 41h1M52 41h1M57 41h3M61 41h2M44 42h1M51 42h1M55 42h1M57 42h2M60 42h4M48 43h6M60 43h2M48 44h3M60 44h2M58 45h1M60 45h1M57 46h2M60 46h1M35 47h7M55 47h4M60 47h1M34 48h10M51 48h3M55 48h3M32 49h8M42 49h2M50 49h1M52 49h2M55 49h3M66 49h1M32 50h1M35 50h4M43 50h2M52 50h2M55 50h3M59 50h4M64 50h2M35 51h3M44 51h2M54 51h3M59 51h5M35 52h3M44 52h2M51 52h1M54 52h3M59 52h4M35 53h2M45 53h1M47 53h1M50 53h2M54 53h3M35 54h2M45 54h2M49 54h3M53 54h3M35 55h2M43 55h4M49 55h3M53 55h2M35 56h2M40 56h7M49 56h3M53 56h1M33 57h14M49 57h3M53 57h1M33 58h8M43 58h4M49 58h2M34 59h4M43 59h3M49 59h2M43 60h3M49 60h1M43 61h3M48 61h1M42 62h3M41 63h3" />
<path stroke="#73b4f6" d="M66 34h1M53 35h1M51 36h3M53 37h1M48 39h1M48 40h3M50 41h1M54 44h2M52 45h3" />
<path stroke="#dedede" d="M40 50h1M39 51h2M31 52h2M39 52h2M31 53h1M38 53h2M30 54h1M38 54h1M30 55h1M38 55h1M30 56h1M39 60h2M37 61h2" />
<path stroke="#736a73" d="M41 50h1M42 51h1M30 52h1M33 52h1M38 52h1M30 53h1M32 53h2M37 53h1M29 54h1M32 54h2M37 54h1M43 54h1M29 55h1M31 55h3M29 56h1M31 56h2M29 57h1M35 61h1M40 61h2M36 62h5" />
<path stroke="#acacac" d="M33 51h1M41 51h1M41 52h2M40 53h4M31 54h1M39 54h4M39 55h1M30 57h1M41 59h1M38 60h1M41 60h1M36 61h1M39 61h1" />
</svg>