<svg xmlns="http://www.w3.org/2000/svg" viewBox="0 -0.5 96 96" shape-rendering="crispEdges">
<metadata>Made with Pixels to Svg https://codepen.io/shshaw/pen/XbxvNj</metadata>
<path stroke="#b44100" d="M31 14h3M28 15h3M34 15h1M66 15h3M34 16h1M69 16h1M33 17h1M35 17h1M68 17h1M70 17h1M32 18h1M35 18h1M65 18h1M68 18h1M70 18h1M31 19h1M35 19h1M68 19h1M71 19h1M30 20h1M35 20h1M71 20h1M30 21h1M35 21h1M72 21h1M30 22h1M35 22h1M72 22h1M29 23h1M36 23h1M73 23h1M29 24h1M36 24h1M73 24h1M36 25h1M37 26h1M74 26h1M37 27h1M74 27h1M37 28h1M74 28h1M74 29h1M75 30h1M72 31h1M75 31h1M30 32h1M72 32h1M75 32h1M71 33h1M75 33h1M76 34h1M72 35h1M76 35h1M72 36h1M74 40h1M71 42h1" />
<path stroke="#eeac6a" d="M31 15h3M28 16h6M65 16h3M29 17h4M34 17h1M65 17h3M69 17h1M30 18h2M33 18h2M69 18h1M32 19h3M69 19h1M31 20h4M70 20h1M31 21h4M70 21h2M31 22h4M70 22h2M30 23h6M71 23h2M30 24h6M71 24h2M30 25h6M71 25h2M30 26h6M72 26h2M31 27h1M34 27h3M72 27h2M36 28h1M72 28h2M72 29h2M73 30h2M73 31h2M74 32h1" />
<path stroke="#bd6239" d="M65 15h1M28 17h1M29 18h1M30 19h1M65 19h1M61 20h4M69 20h1M61 21h4M69 21h1M25 22h1M60 22h5M69 22h1M24 23h2M60 23h5M70 23h1M24 24h3M60 24h5M70 24h1M22 25h6M59 25h7M70 25h1M21 26h8M59 26h7M71 26h1M21 27h9M59 27h7M71 27h1M20 28h11M32 28h2M59 28h7M71 28h1M20 29h10M58 29h9M71 29h1M19 30h11M58 30h9M72 30h1M19 31h11M34 31h1M58 31h10M19 32h10M32 32h1M34 32h2M58 32h10M19 33h9M32 33h2M35 33h3M56 33h2M59 33h9M69 33h1M20 34h7M33 34h2M36 34h4M41 34h1M56 34h2M59 34h9M69 34h2M21 35h3M34 35h2M37 35h4M56 35h3M60 35h8M69 35h3M24 36h2M34 36h3M38 36h3M42 36h1M56 36h3M60 36h6M70 36h2M21 37h6M35 37h3M39 37h1M41 37h2M56 37h4M66 37h4M21 38h6M36 38h2M40 38h2M57 38h1M60 38h10M71 38h2M22 39h6M37 39h1M39 39h2M59 39h10M70 39h4M75 39h1M23 40h5M58 40h4M70 40h4M25 41h3M58 41h3M70 41h3M28 42h2M32 42h1M28 43h3M35 43h1M28 44h3M37 44h1M32 45h2M39 45h1M30 46h2M33 46h4M31 47h2M35 47h5M32 48h3M36 48h4M33 49h3M37 49h2M35 50h2M28 52h2M31 52h2M28 53h2M31 53h4M28 54h2M32 54h5M30 55h2M34 55h2M37 55h2M30 56h4M36 56h3M32 57h4M34 58h5" />
<path stroke="#524a29" d="M27 16h1M26 17h1M26 18h1M66 18h2M25 19h1M47 19h4M62 19h3M25 20h1M51 20h1M65 20h1M24 21h1M52 21h1M65 21h1M24 22h1M53 22h1M65 22h1M23 23h1M54 23h1M65 23h1M22 24h2M55 24h1M65 24h1M21 25h1M29 25h1M66 25h1M20 26h1M29 26h1M56 26h1M66 26h1M20 27h1M30 27h1M56 27h1M66 27h1M19 28h1M56 28h1M66 28h1M19 29h1M34 29h1M52 29h1M67 29h1M18 30h1M34 30h1M57 30h1M67 30h1M31 31h3M35 31h1M53 31h1M57 31h1M68 31h1M29 32h1M31 32h1M33 32h1M36 32h2M40 32h1M53 32h1M57 32h1M68 32h2M28 33h1M34 33h1M38 33h2M41 33h1M58 33h1M70 33h1M27 34h1M30 34h1M35 34h1M40 34h1M42 34h1M54 34h1M58 34h1M71 34h1M20 35h1M24 35h3M30 35h1M36 35h1M41 35h3M53 35h1M59 35h1M21 36h3M26 36h1M29 36h1M37 36h1M41 36h1M43 36h1M53 36h1M59 36h1M68 36h2M76 36h1M27 37h1M29 37h1M38 37h1M40 37h1M43 37h1M52 37h1M65 37h1M70 37h3M76 37h1M27 38h1M29 38h1M38 38h2M42 38h1M52 38h1M70 38h1M73 38h1M76 38h1M28 39h1M30 39h1M38 39h1M52 39h1M57 39h2M69 39h1M74 39h1M76 39h1M28 40h1M30 40h1M38 40h1M52 40h1M64 40h3M69 40h1M75 40h1M20 41h1M23 41h2M51 41h2M61 41h1M67 41h1M25 42h2M30 42h1M50 42h1M53 42h1M58 42h1M67 42h1M70 42h1M20 43h1M23 43h2M31 43h1M36 43h2M43 43h3M53 43h1M60 43h1M66 43h1M70 43h2M19 44h1M21 44h2M31 44h3M38 44h5M54 44h1M56 44h1M61 44h1M64 44h1M67 44h1M70 44h1M20 45h1M29 45h3M34 45h3M40 45h1M54 45h2M60 45h1M68 45h1M70 45h1M22 46h1M25 46h3M32 46h1M37 46h3M53 46h1M60 46h1M70 46h1M23 47h1M27 47h1M33 47h2M52 47h1M58 47h2M69 47h1M23 48h1M27 48h1M35 48h1M51 48h1M65 48h4M24 49h1M26 49h1M31 49h1M36 49h1M39 49h1M51 49h1M60 49h5M69 49h1M25 50h1M27 50h1M31 50h1M37 50h2M51 50h1M69 50h1M23 51h1M27 51h1M31 51h2M34 51h1M50 51h1M59 51h4M69 51h1M22 52h1M30 52h1M33 52h2M50 52h1M57 52h2M63 52h2M68 52h1M18 53h1M21 53h1M26 53h1M30 53h1M35 53h2M47 53h4M65 53h1M67 53h1M18 54h1M22 54h4M30 54h2M37 54h2M43 54h4M51 54h1M64 54h3M69 54h2M72 54h2M18 55h1M26 55h2M29 55h1M32 55h2M36 55h1M39 55h4M51 55h1M62 55h2M69 55h1M72 55h1M74 55h1M19 56h1M25 56h1M27 56h1M34 56h2M39 56h1M51 56h1M56 56h1M60 56h1M67 56h2M73 56h1M16 57h1M20 57h5M27 57h1M36 57h3M52 57h1M57 57h1M62 57h5M71 57h1M73 57h1M76 57h2M18 58h2M24 58h1M27 58h1M30 58h1M52 58h1M57 58h1M61 58h1M66 58h2M70 58h1M73 58h1M78 58h1M15 59h1M18 59h1M24 59h1M28 59h1M38 59h1M52 59h1M58 59h1M73 59h1M79 59h1M17 60h1M24 60h1M34 60h1M37 60h1M53 60h1M59 60h1M67 60h1M72 60h1M17 61h1M33 61h1M37 61h1M53 61h1M59 61h1M62 61h1M71 61h1M74 61h1M81 61h1M16 62h1M25 62h1M28 62h1M32 62h1M36 62h1M51 62h4M59 62h1M63 62h1M71 62h1M75 62h1M82 62h1M16 63h1M25 63h1M28 63h1M32 63h1M34 63h2M45 63h2M49 63h2M57 63h1M59 63h1M70 63h1M82 63h1M16 64h1M25 64h1M28 64h1M31 64h1M33 64h1M42 64h3M48 64h1M69 64h1M82 64h1M16 65h1M25 65h1M27 65h1M31 65h1M34 65h2M40 65h2M50 65h2M82 65h1M24 66h1M26 66h2M30 66h1M52 66h2M69 66h2M81 66h2M23 67h1M30 67h1M33 67h1M36 67h1M54 67h2M70 67h1M81 67h1M30 68h1M34 68h1M36 68h1M43 68h2M54 68h1M71 68h1M80 68h1M31 69h1M36 69h1M42 69h1M45 69h2M53 69h1M71 69h1M80 69h1M32 70h1M39 70h1M46 70h1M53 70h1M72 70h1M78 70h2M40 71h1M47 71h1M52 71h2M67 71h1M72 71h1M75 71h3M41 72h1M47 72h1M51 72h1M53 72h1M73 72h2M33 73h2M38 73h1M42 73h3M47 73h4M54 73h1M60 73h1M34 74h1M37 74h2M41 74h1M44 74h1M46 74h1M54 74h1M35 75h2M58 75h1M35 76h1M46 76h1M57 76h2M35 77h1M42 77h2M47 77h3M55 77h2M59 77h1M49 78h6M59 78h1M49 79h1M59 79h1M47 80h2M58 80h2M55 81h3" />
<path stroke="#181818" d="M64 16h1M63 17h1M62 18h1M61 19h1M45 20h2M60 20h1M43 21h2M60 21h1M42 22h1M59 22h1M42 23h1M59 23h1M41 24h1M59 24h1M41 25h1M58 25h1M40 26h1M58 26h1M32 27h2M40 27h1M58 27h1M31 28h1M34 28h2M39 28h1M58 28h1M30 29h1M36 29h2M39 29h1M57 29h1M30 30h1M38 30h1M56 30h1M18 31h1M30 31h1M39 31h1M56 31h1M18 32h1M56 32h1M18 33h1M31 33h1M55 33h1M68 33h1M19 34h1M32 34h1M55 34h1M68 34h1M19 35h1M33 35h1M55 35h1M68 35h1M20 36h1M33 36h1M55 36h1M66 36h2M20 37h1M34 37h1M55 37h1M60 37h5M20 38h1M35 38h1M56 38h1M58 38h2M21 39h1M36 39h1M41 39h1M56 39h1M21 40h2M37 40h1M39 40h2M57 40h1M62 40h2M67 40h2M28 41h5M57 41h1M69 41h1M73 41h2M19 42h1M27 42h1M33 42h3M49 42h1M59 42h2M72 42h1M19 43h1M27 43h1M46 43h3M58 43h1M65 43h1M27 44h1M57 44h1M62 44h2M21 45h1M28 45h1M57 45h1M19 46h1M23 46h2M29 46h1M40 46h1M57 46h1M19 47h1M30 47h1M40 47h1M57 47h1M20 48h1M31 48h1M40 48h1M58 48h3M19 49h1M21 49h1M32 49h1M57 49h1M18 50h1M22 50h3M33 50h2M56 50h1M18 51h1M28 51h3M35 51h2M56 51h1M18 52h1M27 52h1M56 52h1M17 53h1M19 53h2M27 53h1M56 53h2M69 53h2M17 54h1M21 54h1M27 54h1M57 54h1M71 54h1M16 55h1M28 55h1M58 55h4M71 55h1M16 56h1M29 56h1M71 56h1M15 57h1M30 57h2M39 57h1M60 57h1M15 58h1M32 58h2M39 58h1M60 58h1M29 59h1M34 59h4M61 59h1M68 59h2M14 60h1M28 60h1M62 60h5M14 61h1M28 61h1M14 62h1M29 62h1M55 62h2M62 62h1M14 63h1M30 63h1M58 63h1M62 63h1M64 63h1M14 64h1M32 64h1M47 64h1M59 64h1M62 64h1M65 64h2M15 65h1M32 65h1M38 65h2M46 65h1M59 65h1M63 65h1M67 65h2M16 66h1M32 66h1M36 66h2M46 66h1M60 66h1M64 66h1M17 67h2M24 67h3M32 67h1M45 67h1M60 67h1M64 67h1M19 68h5M33 68h1M45 68h1M60 68h1M65 68h1M35 69h1M39 69h3M44 69h1M61 69h1M66 69h1M36 70h3M44 70h1M61 70h1M66 70h1M33 71h1M44 71h1M61 71h1M68 71h2M34 72h2M44 72h1M61 72h1M70 72h3M36 73h2M45 73h2M61 73h1M32 74h1M39 74h2M47 74h2M58 74h3M32 75h1M44 75h2M49 75h3M55 75h3M32 76h1M44 76h1M52 76h3M32 77h2M44 77h1M34 78h8M44 78h1M45 79h1M46 80h1M48 81h7" />
<path stroke="#ee8339" d="M68 16h1M27 17h1M64 17h1M27 18h2M63 18h2M26 19h4M66 19h2M70 19h1M26 20h4M66 20h3M25 21h5M66 21h3M26 22h4M66 22h3M26 23h3M66 23h4M27 24h2M66 24h4M28 25h1M67 25h3M73 25h1M36 26h1M67 26h4M67 27h4M67 28h4M31 29h3M35 29h1M68 29h3M31 30h3M35 30h3M68 30h4M36 31h3M69 31h3M38 32h2M70 32h2M73 32h1M29 33h2M40 33h1M72 33h3M28 34h2M72 34h4M27 35h3M73 35h3M27 36h2M73 36h3M28 37h1M73 37h3M28 38h1M74 38h2M29 39h1M29 40h1M31 42h1M32 43h3M34 44h3M37 45h2" />
<path stroke="#b4ac94" d="M47 20h4M47 21h3M51 21h1M43 22h3M43 23h6M42 24h8M42 25h8M41 26h10M41 27h10M40 28h11M40 29h12M56 29h1M39 30h13M40 31h13M41 32h12M42 33h11M31 34h1M43 34h11M31 35h2M44 35h9M54 35h1M30 36h3M44 36h9M54 36h1M30 37h4M44 37h8M53 37h2M30 38h5M43 38h9M53 38h3M31 39h5M42 39h10M53 39h3M31 40h6M41 40h11M53 40h4M33 41h18M53 41h4M36 42h13M51 42h2M54 42h4M25 43h2M38 43h5M49 43h4M55 43h3M20 44h1M23 44h4M43 44h11M55 44h1M65 44h2M22 45h6M41 45h13M56 45h1M61 45h7M41 46h12M54 46h1M61 46h8M41 47h11M60 47h9M41 48h10M52 48h1M61 48h4M40 49h11M65 49h1M39 50h11M61 50h5M37 51h13M51 51h1M63 51h2M36 52h14M37 53h10M51 53h1M68 53h1M19 54h1M39 54h4M47 54h4M67 54h2M19 55h7M43 55h8M66 55h3M73 55h1M21 56h3M40 56h11M52 56h1M65 56h2M25 57h2M40 57h12M61 57h1M67 57h1M25 58h2M40 58h12M62 58h4M25 59h3M39 59h13M57 59h1M62 59h6M25 60h3M35 60h1M38 60h15M58 60h1M25 61h3M35 61h2M38 61h15M72 61h2M26 62h2M33 62h3M38 62h13M72 62h3M26 63h2M33 63h1M36 63h9M47 63h2M51 63h6M71 63h5M26 64h2M35 64h7M49 64h10M70 64h7M26 65h1M36 65h2M52 65h5M69 65h10M81 65h1M54 66h2M71 66h10M71 67h10M72 68h8M72 69h8M73 70h5M73 71h2M52 72h1M51 73h3M49 74h5M52 75h3M45 76h1M45 77h2M57 77h1M45 78h4M56 78h3M46 79h3M55 79h4M54 80h3" />
<path stroke="#948b73" d="M45 21h2M46 22h3M49 23h1M50 24h1M50 25h1M55 25h1M51 26h1M51 27h1M51 28h1M52 30h1M53 33h2M21 41h2M62 41h5M20 42h5M61 42h6M21 43h2M54 43h1M59 43h1M61 43h4M67 43h1M58 44h3M58 45h2M20 46h2M58 46h2M69 46h1M20 47h3M21 48h2M20 49h1M22 49h2M58 49h2M66 49h1M19 50h3M26 50h1M32 50h1M50 50h1M57 50h4M66 50h1M19 51h4M33 51h1M57 51h2M65 51h1M19 52h3M35 52h1M59 52h4M25 53h1M58 53h7M20 54h1M26 54h1M56 54h1M58 54h6M17 55h1M56 55h1M64 55h2M17 56h2M20 56h1M24 56h1M26 56h1M61 56h4M72 56h1M75 56h1M17 57h3M56 57h1M72 57h1M16 58h2M20 58h4M31 58h1M71 58h2M16 59h2M19 59h5M30 59h4M53 59h1M70 59h3M15 60h2M18 60h6M29 60h5M36 60h1M68 60h4M73 60h1M80 60h1M15 61h2M18 61h7M29 61h4M34 61h1M63 61h8M15 62h1M17 62h8M30 62h2M37 62h1M64 62h7M15 63h1M17 63h8M31 63h1M63 63h1M65 63h5M76 63h1M15 64h1M17 64h8M34 64h1M45 64h2M63 64h2M67 64h2M77 64h2M17 65h8M33 65h1M42 65h4M47 65h3M64 65h3M79 65h2M17 66h7M25 66h1M31 66h1M33 66h3M38 66h8M47 66h5M65 66h4M19 67h4M31 67h1M34 67h2M37 67h8M46 67h8M65 67h5M31 68h2M35 68h1M37 68h6M46 68h8M66 68h5M32 69h3M37 69h2M43 69h1M47 69h6M67 69h4M33 70h3M40 70h4M45 70h1M47 70h6M67 70h5M34 71h6M41 71h3M45 71h2M48 71h4M70 71h2M36 72h5M42 72h2M45 72h2M48 72h3M35 73h1M39 73h3M33 74h1M35 74h2M42 74h2M33 75h2M37 75h7M46 75h3M33 76h2M36 76h8M47 76h5M55 76h2M34 77h1M36 77h6M50 77h5M58 77h1M55 78h1M50 79h5M49 80h5M57 80h1" />
<path stroke="#eee6de" d="M50 21h1M49 22h4M50 23h4M51 24h4M51 25h3" />
<path stroke="#e6deac" d="M54 25h1M52 26h4M52 27h4M52 28h4M53 29h3M53 30h3M54 31h2M54 32h2M68 41h1M68 42h2M68 43h2M68 44h2M69 45h1M55 46h2M53 47h4M53 48h5M52 49h5M67 49h2M52 50h4M67 50h2M52 51h4M66 51h3M51 52h5M65 52h3M52 53h4M66 53h1M52 54h4M52 55h4M70 55h1M53 56h3M69 56h2M74 56h1M53 57h3M68 57h3M74 57h2M53 58h4M68 58h2M74 58h4M54 59h3M74 59h5M54 60h4M74 60h6M54 61h5M75 61h6M57 62h2M76 62h6M77 63h5M79 64h3M57 65h2M56 66h4M56 67h4M55 68h5M54 69h7M54 70h7M54 71h7M54 72h7M55 73h5M55 74h3" />
<path stroke="#cdc5ac" d="M24 47h3M24 48h3M25 49h1M24 51h3M23 52h4M22 53h3" />
</svg>