<svg xmlns="http://www.w3.org/2000/svg" viewBox="0 -0.5 96 96" shape-rendering="crispEdges">
<metadata>Made with Pixels to Svg https://codepen.io/shshaw/pen/XbxvNj</metadata>
<path stroke="#623939" d="M43 7h2M43 8h1M45 8h1M43 9h1M46 9h1M43 10h1M47 10h1M43 11h1M44 12h1M44 13h1M44 14h2M43 15h1M42 16h1M32 17h5M41 17h1M39 18h3M41 19h1M33 20h1M40 20h1M40 21h1M36 22h1M40 22h1M40 23h1M50 23h1M39 24h1M41 24h1M54 24h1M41 25h1M53 25h1M47 27h1M46 28h1M49 28h1M46 29h1M46 30h1M43 31h1M36 32h2M39 32h1M42 32h1M34 33h2M38 33h1M40 33h2M52 33h1M32 34h2M50 34h2M56 34h3M31 35h1M59 35h2M30 36h1M39 36h2M61 36h2M29 37h1M41 37h1M50 37h1M63 37h1M28 38h1M41 38h1M49 38h1M52 38h1M64 38h1M27 39h1M49 39h1M65 39h1M27 40h1M49 40h1M66 40h1M26 41h1M29 41h1M40 41h1M66 41h1M26 42h1M41 42h1M53 42h2M67 42h1M25 43h1M28 43h1M40 43h1M53 43h1M55 43h1M67 43h1M25 44h1M39 44h1M52 44h1M55 44h1M68 44h1M25 45h1M39 45h1M42 45h1M52 45h1M56 45h1M68 45h1M24 46h1M27 46h1M39 46h1M52 46h1M56 46h1M68 46h1M24 47h1M38 47h1M45 47h3M52 47h1M56 47h1M68 47h1M38 48h1M44 48h1M48 48h1M52 48h1M57 48h1M68 48h1M36 49h1M38 49h1M42 49h2M49 49h1M51 49h1M68 49h1M35 50h1M38 50h1M69 50h1M38 51h1M50 51h1M69 51h1M38 52h1M50 52h1M69 52h1M69 53h1M66 54h1M69 54h1M66 55h1M69 55h1M45 56h1M66 56h1M69 56h1M40 57h1M44 57h1M46 57h1M50 57h1M66 57h1M69 57h1M35 58h1M41 58h3M46 58h1M65 58h1M69 58h1M45 59h1M65 59h1M68 59h1M23 60h1M45 60h1M52 60h1M68 60h1M27 61h1M36 61h1M45 61h1M45 62h1M24 63h1M45 63h1M25 64h1M28 64h1M67 64h1M44 65h1M67 65h1M29 66h1M37 66h1M44 66h1M67 66h1M44 67h1M64 67h1M67 67h1M64 68h1M67 68h1M30 69h1M67 69h1M38 70h1M67 70h1M39 71h1M67 71h1M28 72h1M31 72h1M67 72h1M64 73h1M68 73h1M52 74h1M65 74h1M68 74h1M28 75h1M44 75h1M68 75h1M31 76h1M43 76h1M68 76h1M65 77h1M69 77h1M66 78h1M69 78h1M29 79h1M69 79h1M28 80h1M39 80h1M69 80h1M27 81h1M40 81h1M70 81h1M70 82h1M43 83h1M42 84h1" />
<path stroke="#bd6a6a" d="M44 8h1M44 9h2M44 10h2M44 11h3M48 11h1M45 12h2M49 12h1M45 13h3M50 13h1M46 14h3M51 14h1M44 15h3M49 15h1M52 15h1M43 16h4M52 16h1M37 17h1M42 17h5M50 17h1M53 17h1M32 18h2M38 18h1M42 18h6M53 18h1M33 19h4M42 19h6M49 19h1M35 20h4M41 20h8M50 20h1M36 21h4M41 21h8M50 21h2M38 22h2M41 22h9M51 22h2M39 23h1M41 23h9M51 23h3M42 24h12M42 25h11M43 26h9M44 27h3M48 27h4M45 28h1M50 28h1M45 29h1M44 30h2M44 31h3M38 32h1M43 32h1M45 32h2M36 33h2M39 33h1M42 33h1M46 33h2M34 34h4M39 34h4M46 34h3M32 35h5M39 35h5M45 35h8M31 36h4M41 36h15M30 37h3M42 37h8M52 37h3M29 38h3M43 38h4M48 38h1M53 38h1M28 39h3M44 39h2M28 40h2M44 40h2M27 41h2M27 42h2M65 42h2M26 43h2M65 43h2M26 44h2M40 44h2M66 44h2M26 45h2M40 45h2M66 45h2M25 46h2M40 46h2M66 46h2M25 47h2M39 47h3M53 47h1M66 47h2M25 48h2M39 48h2M45 48h3M53 48h1M66 48h2M25 49h2M39 49h2M44 49h5M52 49h2M66 49h2M25 50h1M39 50h2M42 50h1M45 50h5M52 50h2M67 50h2M24 51h2M37 51h1M39 51h1M45 51h5M52 51h3M67 51h2M24 52h2M37 52h1M44 52h6M52 52h3M67 52h2M24 53h2M37 53h1M42 53h8M51 53h4M67 53h2M24 54h2M40 54h9M50 54h6M67 54h2M24 55h2M37 55h10M49 55h7M67 55h2M24 56h2M36 56h1M49 56h7M67 56h2M24 57h2M36 57h4M41 57h3M49 57h1M51 57h6M67 57h2M24 58h2M36 58h5M44 58h1M51 58h6M66 58h3M24 59h2M37 59h7M52 59h5M66 59h2M24 60h2M37 60h6M53 60h5M66 60h2M25 61h2M37 61h5M53 61h6M25 62h2M38 62h4M54 62h5M25 63h2M38 63h4M44 63h1M54 63h5M26 64h2M38 64h4M44 64h1M55 64h5M26 65h2M38 65h4M55 65h5M66 65h1M26 66h3M38 66h4M56 66h4M65 66h2M27 67h2M39 67h3M56 67h4M65 67h2M27 68h2M39 68h3M55 68h4M65 68h2M28 69h2M39 69h3M55 69h4M65 69h2M28 70h2M39 70h3M55 70h4M65 70h2M28 71h2M40 71h2M54 71h5M65 71h2M29 72h2M40 72h2M54 72h4M65 72h2M29 73h2M40 73h2M54 73h4M65 73h3M29 74h2M40 74h2M43 74h1M53 74h5M66 74h2M29 75h2M40 75h2M43 75h1M53 75h4M66 75h2M28 76h3M40 76h2M53 76h4M66 76h2M29 77h1M40 77h2M53 77h4M66 77h3M40 78h3M53 78h4M67 78h1M40 79h3M52 79h4M67 79h1M27 80h1M40 80h3M52 80h4M67 80h1M41 81h2M52 81h4M41 82h2M52 82h4M68 82h1M41 83h2M52 83h3M41 84h1M52 84h3M52 85h3M52 86h2M52 87h2M52 88h2" />
<path stroke="#ff734a" d="M46 10h1M47 11h1M47 12h2M48 13h2M49 14h2M50 15h2M48 16h1M51 16h1M48 17h2M52 17h1M34 18h4M49 18h3M37 19h4M50 19h1M52 19h1M39 20h1M53 20h1M53 33h2M52 34h2M53 35h2M57 35h2M56 36h5M58 37h5M60 38h4M62 39h3M63 40h3M64 41h2M39 42h2M39 43h1M38 44h1M53 44h1M38 45h1M53 45h2M37 46h2M53 46h2M37 47h1M54 47h2M37 48h1M54 48h2M37 49h1M54 49h2M36 50h2M43 50h2M54 50h3M36 51h1M41 51h4M55 51h2M36 52h1M40 52h4M55 52h3M36 53h1M39 53h3M55 53h3M36 54h1M38 54h2M56 54h2M56 55h2M56 56h2M45 57h1M57 57h1M45 58h1M57 58h2M44 59h1M57 59h2M43 60h2M58 60h1M42 61h3M59 61h1M42 62h3M59 62h1M42 63h2M59 63h1M42 64h2M42 65h2M42 66h2M42 67h2M42 68h2M42 69h2M42 70h2M42 71h2M42 72h2M42 73h2M42 74h1M42 75h1M42 76h1M28 77h1M42 77h1M27 78h3M68 78h1M26 79h3M68 79h1M24 80h3M68 80h1M22 81h3M68 81h2M69 82h1" />
<path stroke="#181818" d="M47 15h2M47 16h1M49 16h2M31 17h1M47 17h1M51 17h1M31 18h1M48 18h1M52 18h1M32 19h1M48 19h1M53 19h1M34 20h1M49 20h1M54 20h1M35 21h1M49 21h1M54 21h1M37 22h1M50 22h1M38 23h1M40 24h1M42 26h1M52 26h1M43 27h1M52 27h1M44 28h1M48 28h1M51 28h1M44 29h1M49 29h2M41 30h3M48 30h2M38 31h3M47 31h1M50 31h3M47 32h1M53 32h2M48 33h1M55 33h1M38 34h1M49 34h1M37 35h2M35 36h1M38 36h1M33 37h1M39 37h1M51 37h1M56 37h2M32 38h1M37 38h3M58 38h2M31 39h1M36 39h1M40 39h1M53 39h2M60 39h2M30 40h1M35 40h1M41 40h1M51 40h2M55 40h2M62 40h1M34 41h1M39 41h1M42 41h1M44 41h2M49 41h2M57 41h1M63 41h1M29 42h1M34 42h1M38 42h1M42 42h1M44 42h1M46 42h1M48 42h1M50 42h1M58 42h1M64 42h1M33 43h1M38 43h1M41 43h1M43 43h2M47 43h2M50 43h1M59 43h1M64 43h1M28 44h1M33 44h1M37 44h1M42 44h2M45 44h1M48 44h1M50 44h1M60 44h1M65 44h1M28 45h1M37 45h1M43 45h1M45 45h1M48 45h1M50 45h1M60 45h1M65 45h1M32 46h1M36 46h1M42 46h1M45 46h1M48 46h1M51 46h1M61 46h1M65 46h1M27 47h1M32 47h1M36 47h1M42 47h1M49 47h1M51 47h1M61 47h1M65 47h1M24 48h1M27 48h1M36 48h1M41 48h1M49 48h1M62 48h1M65 48h1M24 49h1M27 49h1M31 49h1M41 49h1M57 49h1M62 49h1M65 49h1M24 50h1M26 50h1M31 50h1M41 50h1M50 50h2M58 50h1M62 50h1M66 50h1M23 51h1M26 51h1M31 51h1M35 51h1M40 51h1M51 51h1M58 51h1M63 51h1M66 51h1M23 52h1M26 52h1M31 52h1M35 52h1M39 52h1M51 52h1M59 52h1M63 52h1M66 52h1M23 53h1M26 53h1M31 53h1M35 53h1M38 53h1M50 53h1M59 53h1M63 53h1M66 53h1M23 54h1M26 54h1M30 54h1M35 54h1M37 54h1M49 54h1M60 54h1M63 54h1M23 55h1M26 55h1M30 55h1M35 55h2M47 55h2M60 55h1M64 55h1M23 56h1M26 56h1M30 56h1M35 56h1M37 56h8M46 56h1M48 56h1M61 56h1M64 56h1M23 57h1M26 57h1M30 57h1M35 57h1M48 57h1M61 57h1M64 57h1M23 58h1M26 58h1M30 58h1M49 58h2M62 58h1M64 58h1M23 59h1M26 59h1M30 59h1M36 59h1M51 59h1M62 59h1M26 60h1M29 60h1M36 60h1M63 60h3M24 61h1M29 61h1M52 61h1M66 61h3M24 62h1M27 62h1M29 62h1M37 62h1M53 62h1M68 62h1M27 63h1M37 63h1M53 63h1M67 63h1M69 63h1M37 64h1M54 64h1M66 64h1M69 64h1M25 65h1M28 65h1M37 65h1M54 65h1M65 65h1M69 65h1M25 66h1M55 66h1M64 66h1M69 66h1M26 67h1M29 67h1M38 67h1M46 67h1M55 67h1M63 67h1M70 67h1M26 68h1M29 68h1M38 68h1M44 68h2M54 68h1M62 68h1M70 68h1M26 69h2M38 69h1M44 69h1M54 69h1M62 69h1M64 69h1M71 69h1M25 70h1M27 70h1M30 70h1M44 70h1M54 70h1M61 70h1M64 70h1M68 70h1M71 70h1M24 71h1M27 71h1M30 71h1M44 71h1M53 71h1M61 71h1M64 71h1M68 71h1M72 71h1M22 72h2M39 72h1M44 72h1M53 72h1M60 72h1M64 72h1M69 72h1M72 72h1M14 73h1M19 73h3M28 73h1M31 73h1M39 73h1M44 73h1M53 73h1M60 73h1M69 73h1M73 73h1M15 74h4M28 74h1M31 74h1M39 74h1M44 74h1M59 74h1M70 74h1M73 74h1M31 75h1M39 75h1M52 75h1M59 75h1M65 75h1M70 75h1M74 75h1M27 76h1M39 76h1M52 76h1M58 76h1M65 76h1M71 76h1M74 76h1M27 77h1M30 77h1M39 77h1M43 77h1M52 77h1M58 77h1M71 77h1M75 77h1M26 78h1M30 78h1M39 78h1M43 78h1M52 78h1M58 78h1M72 78h1M76 78h1M24 79h2M39 79h1M43 79h1M51 79h1M57 79h1M66 79h1M73 79h1M77 79h3M22 80h2M43 80h1M51 80h1M57 80h1M66 80h1M74 80h1M80 80h2M21 81h1M25 81h2M43 81h1M51 81h1M56 81h1M67 81h1M75 81h2M82 81h1M22 82h3M40 82h1M43 82h1M51 82h1M56 82h1M67 82h1M77 82h5M40 83h1M51 83h1M55 83h1M40 84h1M51 84h1M55 84h1M41 85h2M51 85h1M55 85h1M51 86h1M54 86h1M51 87h1M54 87h1M51 88h1M54 88h1M52 89h2" />
<path stroke="#6ac5de" d="M51 19h1M52 20h1M53 21h1M54 22h1M59 54h1M59 55h1M59 56h2M60 57h1M60 58h2M60 59h2M60 60h2M61 61h2M64 61h1M61 62h2M64 62h4M61 63h5M62 64h2M22 70h2M20 71h4M18 72h3M15 73h3M71 73h2M71 74h2M72 75h2M72 76h2M73 77h2M73 78h3M74 79h3M76 80h3M78 81h4" />
<path stroke="#5294ac" d="M51 20h1M52 21h1M53 22h1M44 32h1M43 33h3M43 34h3M44 35h1M37 36h1M35 37h4M34 38h3M42 38h1M47 38h1M55 38h2M33 39h3M42 39h2M46 39h3M55 39h4M33 40h2M42 40h2M46 40h3M57 40h3M32 41h2M43 41h1M46 41h3M58 41h3M32 42h2M47 42h1M59 42h3M31 43h2M60 43h2M31 44h2M61 44h2M31 45h1M61 45h2M30 46h2M62 46h2M30 47h2M62 47h2M30 48h1M63 48h2M30 49h1M63 49h2M30 50h1M63 50h2M29 51h2M64 51h2M29 52h2M64 52h2M29 53h2M64 53h2M29 54h1M64 54h2M28 55h2M65 55h1M28 56h2M65 56h1M28 57h2M59 57h1M65 57h1M28 58h2M27 59h3M27 60h2M28 61h1M28 62h1M28 63h1M66 63h1M68 63h1M61 64h1M64 64h2M68 64h1M45 65h2M61 65h2M64 65h1M68 65h1M45 66h2M61 66h2M68 66h1M25 67h1M45 67h1M61 67h1M68 67h2M24 68h2M60 68h2M68 68h2M23 69h3M60 69h2M68 69h3M24 70h1M60 70h1M69 70h2M60 71h1M69 71h3M21 72h1M59 72h1M70 72h2M18 73h1M59 73h1M70 73h1M58 75h1M71 75h1M72 77h1M75 80h1M79 80h1M77 81h1" />
<path stroke="#395262" d="M55 22h1M54 23h2M36 36h1M34 37h1M55 37h1M33 38h1M54 38h1M57 38h1M32 39h1M59 39h1M32 40h1M60 40h1M31 41h1M61 41h1M31 42h1M62 42h1M30 43h1M62 43h1M30 44h1M63 44h1M30 45h1M32 45h1M63 45h1M29 46h1M64 46h1M29 47h1M64 47h1M29 48h1M31 48h1M29 49h1M29 50h1M65 50h1M28 51h1M28 52h1M28 53h1M28 54h1M58 54h1M27 55h1M58 55h1M27 56h1M58 56h1M27 57h1M58 57h1M27 58h1M59 58h1M59 59h1M59 60h1M62 60h1M60 61h1M63 61h1M65 61h1M60 62h1M63 62h1M29 63h1M60 63h1M45 64h2M60 64h1M47 65h1M60 65h1M63 65h1M24 66h1M47 66h1M60 66h1M63 66h1M24 67h1M60 67h1M62 67h1M23 68h1M59 68h1M22 69h1M59 69h1M20 70h2M59 70h1M18 71h2M59 71h1M15 72h3M58 72h1M58 73h1M58 74h1M57 75h1M57 76h1M57 77h1M57 78h1M56 79h1M56 80h1" />
<path stroke="#525252" d="M47 28h1M47 29h2M47 30h1M48 31h2M48 32h2M49 33h2M40 37h1M40 38h1M50 38h2M41 39h1M50 39h3M50 40h1M43 42h1M45 42h1M49 42h1M45 43h2M49 43h1M44 44h1M46 44h2M49 44h1M44 45h1M46 45h2M49 45h1M43 46h2M46 46h2M49 46h2M43 47h2M48 47h1M50 47h1M42 48h2M50 48h2M50 49h1" />
<path stroke="#73736a" d="M41 31h2M40 32h2M50 32h3M51 33h1" />
<path stroke="#ffb494" d="M54 34h2M55 35h2M54 43h1M54 44h1M55 45h1M55 46h1M56 48h1M56 49h1M57 50h1M57 51h1M58 52h1M58 53h1" />
</svg>