<svg xmlns="http://www.w3.org/2000/svg" viewBox="0 -0.5 96 96" shape-rendering="crispEdges">
<metadata>Made with Pixels to Svg https://codepen.io/shshaw/pen/XbxvNj</metadata>
<path stroke="#7b5241" d="M41 20h2M50 20h2M44 21h1M49 21h1M39 23h1M55 25h1M55 26h1M38 27h2M54 28h1M46 29h1M55 29h1M55 30h1M40 31h1M44 32h1M56 32h1M56 33h1M41 34h1M43 35h1M57 35h1M56 36h2M37 70h1M55 70h1M36 71h1M56 71h2M36 72h1M44 72h1M36 73h1M41 73h3M49 73h1M49 74h1M58 74h3" />
<path stroke="#bd8b6a" d="M43 20h1M52 20h1M53 21h1M40 22h2M45 22h1M48 22h3M54 22h1M40 23h2M45 23h1M47 23h4M54 23h1M39 24h4M47 24h5M54 24h1M39 25h4M46 25h6M39 26h4M46 26h4M40 27h2M45 27h3M55 27h1M40 28h2M45 28h2M55 28h1M40 29h2M44 29h2M40 30h2M44 30h2M41 31h1M43 31h2M41 32h1M43 32h1M41 33h1M43 33h1M42 34h2M57 34h1M42 35h1M56 35h1M42 36h1M42 37h1M42 70h1M37 71h1M43 71h1M53 71h1M58 72h2M60 73h1" />
<path stroke="#101010" d="M40 21h1M48 21h1M39 22h1M47 22h1M46 23h1M38 24h1M44 24h1M46 24h1M38 25h1M43 25h1M45 25h1M38 26h1M43 26h1M45 26h1M50 26h3M42 27h1M44 27h1M48 27h2M53 27h1M39 28h1M42 28h1M44 28h1M47 28h1M39 29h1M43 29h1M39 30h1M43 30h1M46 30h1M39 31h1M45 31h1M40 32h1M42 32h1M40 33h1M42 33h1M44 33h1M39 34h1M39 35h1M41 35h1M39 36h1M41 36h1M43 36h1M39 37h1M41 37h1M55 37h1M39 38h1M42 38h1M55 38h1M38 39h1M38 40h1M38 41h1M38 42h1M38 43h1M37 44h1M37 45h1M51 45h1M36 46h1M51 46h1M36 47h1M51 47h1M36 48h1M52 48h1M63 48h1M35 49h1M52 49h1M64 49h1M35 50h1M52 50h1M64 50h1M35 51h1M53 51h1M65 51h1M34 52h1M53 52h1M65 52h1M34 53h1M53 53h1M66 53h1M34 54h1M54 54h1M34 55h1M54 55h1M33 56h1M53 56h1M55 56h1M33 57h1M53 57h1M56 57h1M32 58h1M52 58h1M56 58h1M31 59h1M52 59h1M57 59h1M31 60h1M51 60h1M58 60h1M30 61h1M50 61h1M59 61h1M30 62h1M39 62h1M49 62h1M60 62h1M37 63h2M47 63h2M61 63h2M36 64h1M46 64h1M63 64h2M28 65h1M30 65h1M34 65h1M44 65h2M30 66h1M42 66h2M27 67h1M29 67h1M40 67h2M45 67h2M27 68h1M29 68h1M37 68h3M47 68h2M27 69h2M33 69h4M27 70h6M50 71h1M50 72h1M37 73h4M50 74h8" />
<path stroke="#eecd62" d="M41 21h2M50 21h1M42 22h1M42 23h2M51 23h1M43 24h1M52 25h1M54 25h1M53 26h2M54 27h1M56 34h1M38 71h3M54 71h2M37 72h5M51 72h5M50 73h4" />
<path stroke="#ffe683" d="M43 21h1M51 21h2M43 22h2M51 22h3M44 23h1M52 23h2M52 24h2M53 25h1M41 71h2M42 72h2M56 72h2M54 73h6" />
<path stroke="#20416a" d="M45 24h1M44 25h1M44 26h1M43 27h1M50 27h3M43 28h1M48 28h6M42 29h1M47 29h7M42 30h1M47 30h7M42 31h1M46 31h8M45 32h9M45 33h9M40 34h1M44 34h10M40 35h1M44 35h11M40 36h1M44 36h12M40 37h1M43 37h12M40 38h2M43 38h12M39 39h17M37 40h1M39 40h16M56 40h1M36 41h2M39 41h16M57 41h1M35 42h1M39 42h17M58 42h1M34 43h1M37 43h1M39 43h17M59 43h1M33 44h1M36 44h1M38 44h19M60 44h1M33 45h1M35 45h2M38 45h13M52 45h5M61 45h1M32 46h1M34 46h2M37 46h14M52 46h6M61 46h1M31 47h5M37 47h14M52 47h7M62 47h1M31 48h5M37 48h15M53 48h8M30 49h5M36 49h16M53 49h11M29 50h6M36 50h16M53 50h11M29 51h6M36 51h17M54 51h11M28 52h6M35 52h18M54 52h11M28 53h6M35 53h18M54 53h12M29 54h5M35 54h19M55 54h12M29 55h5M35 55h19M55 55h11M67 55h1M29 56h4M34 56h19M56 56h10M67 56h1M30 57h3M34 57h19M57 57h10M33 58h19M58 58h9M32 59h20M60 59h7M30 60h1M34 60h17M62 60h4M26 61h3M31 61h1M33 61h1M35 61h15M32 62h1M36 62h3M40 62h9M29 63h1M31 63h2M36 63h1M39 63h8M69 63h1M29 64h1M31 64h1M35 64h1M37 64h9M65 64h1M69 64h1M35 65h9M66 65h3M28 66h1M33 66h1M36 66h6M28 67h1M31 67h2M36 67h4M30 68h1M35 68h2M32 69h1" />
<path stroke="#629cf6" d="M54 29h1M55 31h1M54 34h1M55 35h1M28 54h1M28 55h1M28 56h1M54 56h1M27 57h2M54 57h2M67 57h1M27 58h4M53 58h3M67 58h1M27 59h4M53 59h4M67 59h1M27 60h2M52 60h5M60 60h1M67 60h2M51 61h5M60 61h9M50 62h5M62 62h7M49 63h6M63 63h6M47 64h8M57 64h1M66 64h3M46 65h9M44 66h11M42 67h2M48 67h8M40 68h3M49 68h6M38 69h3M50 69h5M50 70h3" />
<path stroke="#9ccdff" d="M54 30h1M54 31h1M54 32h2M54 33h2M55 34h1M57 61h1M56 62h2M55 63h3M55 64h2M55 65h2" />
<path stroke="#205a94" d="M55 40h1M55 41h2M36 42h2M56 42h2M35 43h2M56 43h3M34 44h2M57 44h3M34 45h1M57 45h4M33 46h1M58 46h3M59 47h3M61 48h2M31 58h1M29 60h1M32 60h2M32 61h1M34 61h1M31 62h1M33 62h3M30 63h1M33 63h3M30 64h1M32 64h3M29 65h1M31 65h3M29 66h1M31 66h2M34 66h2M56 66h1M30 67h1M33 67h3M44 67h1M56 67h1M28 68h1M31 68h4M43 68h1M55 68h1M29 69h3M37 69h1M42 69h1M49 69h1M55 69h1M39 70h3M49 70h1" />
<path stroke="#397bb4" d="M27 54h1M27 55h1M66 55h1M27 56h1M66 56h1M26 57h1M29 57h1M68 57h1M26 58h1M57 58h1M68 58h1M26 59h1M58 59h2M68 59h1M26 60h1M59 60h1M61 60h1M66 60h1M69 60h1M58 61h1M69 61h1M58 62h1M61 62h1M69 62h1M58 63h1M57 65h1M47 67h1M41 69h1M38 70h1M53 70h2M51 71h2" />
<path stroke="#83b4ff" d="M57 60h1M56 61h1M55 62h1M55 66h1" />
</svg>