<svg xmlns="http://www.w3.org/2000/svg" viewBox="0 -0.5 96 96" shape-rendering="crispEdges">
<metadata>Made with Pixels to Svg https://codepen.io/shshaw/pen/XbxvNj</metadata>
<path stroke="#624a31" d="M58 30h4M43 31h3M57 31h1M42 32h1M46 32h1M62 32h1M41 33h1M52 33h4M48 34h1M46 35h1M57 35h1M42 36h3M58 36h1M62 36h1M33 37h1M48 37h1M32 38h1M31 39h1M40 39h2M53 39h1M30 40h1M38 40h1M63 40h1M65 40h1M27 41h1M30 41h1M44 41h1M63 41h1M57 42h1M58 43h1M31 44h1M44 44h1M59 44h1M26 45h1M42 45h3M28 46h1M26 47h1M26 48h1M27 49h1M31 49h1M29 50h2M40 50h1M63 50h1M67 50h1M26 51h1M41 51h1M50 51h1M64 51h1M26 52h1M50 52h1M65 52h1M51 53h1M57 53h1M64 53h1M51 54h1M57 54h1M57 55h1M39 56h1M56 56h1M32 57h1M40 57h1M56 57h1M32 58h1M40 58h1M33 59h1M40 59h1M34 60h2M41 60h1M52 60h1M33 61h1M36 61h5M51 61h1M28 62h2" />
<path stroke="#c58b41" d="M58 31h3M43 32h2M57 32h3M42 33h2M50 34h4M49 35h4M42 37h6M33 38h3M39 38h10M32 39h4M44 39h4M32 40h3M40 40h3M28 41h2M40 41h2M64 41h2M28 42h1M64 42h2M40 46h2M27 47h2M40 47h1M65 47h2M27 48h1M65 48h2M37 53h1M38 54h1M39 57h1M55 57h1M33 58h1M51 60h1" />
<path stroke="#9c6231" d="M61 31h1M45 32h1M60 32h2M44 33h3M50 33h2M57 33h6M42 34h5M49 34h1M54 34h2M57 34h6M42 35h4M47 35h2M53 35h4M58 35h5M48 36h10M59 36h3M39 37h3M51 37h11M36 38h1M38 38h1M49 38h2M53 38h10M36 39h2M39 39h1M48 39h5M54 39h9M31 40h1M35 40h3M43 40h1M45 40h18M31 41h7M39 41h1M42 41h2M46 41h17M27 42h1M29 42h1M31 42h7M39 42h6M46 42h11M58 42h6M66 42h1M27 43h3M31 43h7M39 43h6M46 43h12M59 43h8M27 44h4M32 44h7M40 44h4M46 44h13M60 44h7M27 45h15M45 45h14M60 45h6M29 46h11M42 46h2M45 46h15M61 46h3M29 47h11M41 47h4M46 47h14M61 47h4M28 48h17M46 48h14M61 48h4M28 49h3M32 49h13M46 49h15M62 49h5M31 50h9M41 50h3M45 50h16M62 50h1M64 50h3M27 51h14M44 51h6M51 51h10M62 51h2M27 52h23M51 52h10M62 52h3M27 53h7M38 53h13M52 53h5M58 53h3M62 53h2M27 54h6M39 54h12M52 54h5M58 54h3M27 55h6M39 55h12M52 55h5M58 55h3M27 56h6M40 56h11M52 56h4M57 56h3M27 57h5M41 57h10M52 57h3M57 57h3M28 58h4M41 58h10M56 58h4M28 59h5M41 59h10M55 59h4M28 60h6M42 60h8M56 60h3M29 61h4M42 61h8M30 62h3M43 62h6M45 63h3" />
<path stroke="#101010" d="M62 31h1M56 32h1M63 32h1M47 33h1M56 33h1M63 33h1M41 34h1M47 34h1M56 34h1M63 34h1M41 35h1M63 35h1M45 36h3M34 37h3M49 37h2M62 37h1M37 38h1M51 38h2M63 38h1M38 39h1M42 39h2M63 39h1M28 40h2M39 40h1M44 40h1M64 40h1M38 41h1M45 41h1M66 41h1M26 42h1M30 42h1M38 42h1M45 42h1M67 42h1M26 43h1M30 43h1M38 43h1M45 43h1M67 43h1M26 44h1M39 44h1M45 44h1M67 44h1M59 45h1M66 45h1M27 46h1M44 46h1M60 46h1M45 47h1M60 47h1M45 48h1M60 48h1M67 48h1M26 49h1M45 49h1M61 49h1M67 49h1M27 50h2M44 50h1M61 50h1M42 51h2M61 51h1M65 51h2M61 52h1M26 53h1M61 53h1M26 54h1M61 54h3M26 55h1M51 55h1M61 55h1M26 56h1M51 56h1M60 56h1M26 57h1M51 57h1M60 57h1M27 58h1M51 58h1M55 58h1M60 58h1M27 59h1M51 59h1M54 59h1M59 59h1M27 60h1M50 60h1M53 60h1M55 60h1M59 60h1M28 61h1M41 61h1M50 61h1M56 61h1M60 61h1M42 62h1M49 62h1M56 62h5M28 63h1M32 63h1M43 63h2M48 63h2M28 64h1M33 64h1M44 64h1M49 64h1M29 65h5M44 65h1M50 65h1M45 66h5" />
<path stroke="#413110" d="M64 46h3M67 47h1M33 62h1M29 63h1" />
<path stroke="#cdbd83" d="M34 53h3M33 54h5M33 55h6M33 56h6M33 57h6M34 58h6M52 58h3M34 59h6M52 59h2M36 60h5" />
<path stroke="#5a4129" d="M57 61h3M30 63h2M29 64h4M45 64h4M45 65h5" />
</svg>