<svg xmlns="http://www.w3.org/2000/svg" viewBox="0 -0.5 96 96" shape-rendering="crispEdges">
<metadata>Made with Pixels to Svg https://codepen.io/shshaw/pen/XbxvNj</metadata>
<path stroke="#101010" d="M63 22h1M62 23h1M64 23h1M64 24h1M65 25h1M63 26h1M65 26h1M65 27h1M67 27h1M66 28h1M65 29h1M45 30h1M54 30h1M64 30h1M45 31h1M53 31h1M64 31h1M45 32h1M52 32h1M63 32h1M73 32h1M45 33h1M51 33h1M63 33h1M73 33h1M46 34h1M50 34h1M63 34h1M72 34h1M46 35h1M50 35h1M63 35h1M72 35h1M47 36h1M71 36h1M49 37h1M70 37h1M49 38h1M68 38h2M49 39h1M66 39h2M49 40h1M50 42h1M50 43h1M43 44h2M23 45h1M45 45h1M22 46h1M34 46h2M46 46h2M74 46h1M22 47h1M26 47h5M36 47h1M39 47h1M48 47h2M53 47h1M72 47h2M21 48h1M25 48h1M31 48h2M37 48h1M53 48h1M59 48h1M69 48h3M21 49h1M24 49h1M33 49h2M38 49h1M40 49h1M45 49h2M52 49h1M57 49h2M62 49h1M67 49h2M21 50h1M24 50h1M35 50h1M39 50h2M44 50h1M46 50h1M53 50h3M63 50h4M21 51h1M24 51h1M36 51h1M40 51h1M21 52h1M24 52h1M37 52h1M41 52h1M47 52h1M22 53h1M25 53h1M37 53h1M43 53h1M47 53h1M22 54h1M25 54h1M30 54h1M33 54h1M38 54h2M43 54h1M47 54h1M23 55h1M26 55h1M30 55h1M34 55h2M38 55h1M23 56h1M27 56h1M30 56h1M39 56h1M24 57h1M28 57h1M22 58h1M25 58h1M23 59h1M26 59h1M36 59h2M55 59h1M24 60h1M32 60h1M38 60h1M44 60h1M53 60h1M58 60h1M64 60h1M24 61h1M28 61h5M38 61h1M44 61h1M52 61h1M58 61h1M64 61h1M27 62h1M37 62h1M52 62h1M58 62h1M64 62h1M26 63h1M37 63h1M43 63h1M45 63h1M51 63h1M25 64h1M45 64h1M51 64h1M36 65h1M44 65h1M50 65h1M36 66h1M41 66h1M44 66h1M50 66h1M59 66h1M36 67h1M41 67h1M44 67h1M50 67h1M59 67h1M44 68h1M50 68h1M53 68h3M59 68h1M35 69h1M60 69h1M66 69h1M44 70h1M61 70h5M37 71h4M44 71h1M51 72h1M46 73h5" />
<path stroke="#4a4a62" d="M63 23h1M63 24h1M62 25h1M64 25h1M64 26h1M64 27h1M63 28h2M62 29h2M62 30h2M61 31h3M60 32h3M52 33h1M59 33h4M51 34h3M57 34h6M51 35h12M50 36h13M50 37h13M50 38h14M50 39h15M50 40h16M48 41h1M50 41h16M47 42h3M51 42h17M45 43h5M51 43h18M47 44h4M52 44h19M46 45h14M61 45h2M64 45h11M23 46h1M32 46h2M48 46h4M54 46h6M61 46h3M65 46h9M32 47h3M54 47h1M56 47h3M61 47h4M67 47h5M22 48h1M33 48h4M54 48h1M56 48h2M62 48h5M22 49h2M35 49h3M53 49h1M55 49h2M63 49h4M22 50h2M36 50h3M41 50h2M22 51h2M37 51h3M41 51h3M46 51h1M63 51h1M23 52h1M38 52h3M42 52h1M46 52h1M63 52h1M23 53h2M39 53h2M42 53h1M45 53h2M52 53h1M63 53h2M23 54h2M34 54h3M41 54h2M44 54h3M48 54h1M52 54h3M64 54h1M36 55h2M39 55h2M44 55h3M48 55h7M64 55h1M38 56h1M40 56h4M45 56h11M64 56h1M37 57h3M42 57h14M64 57h1M36 58h20M64 58h1M28 59h1M40 59h2M43 59h9M53 59h1M39 60h4M45 60h7M39 61h5M45 61h7M39 62h4M45 62h7M38 63h5M46 63h5M38 64h4M46 64h5M37 65h4M46 65h4M37 66h4M45 66h5M35 67h1M37 67h4M45 67h5M37 68h4M45 68h5M46 69h3M46 70h3" />
<path stroke="#313141" d="M62 24h1M61 25h1M63 25h1M60 26h1M59 27h1M63 27h1M57 28h2M62 28h1M65 28h1M56 29h1M64 29h1M55 30h1M49 36h1M63 36h1M63 37h1M64 38h1M48 39h1M65 39h1M48 40h1M66 40h1M70 40h1M47 41h1M49 41h1M66 41h2M70 41h1M45 42h2M68 42h1M43 43h2M69 43h2M25 44h6M45 44h2M51 44h1M71 44h3M24 45h1M31 45h3M60 45h1M63 45h1M75 45h1M39 46h2M52 46h2M60 46h1M64 46h1M31 47h1M35 47h1M41 47h1M50 47h2M55 47h1M59 47h2M65 47h2M39 48h2M42 48h1M55 48h1M58 48h1M61 48h1M67 48h2M43 49h1M54 49h1M43 50h1M50 50h2M56 50h1M62 50h1M44 51h1M47 51h3M62 51h1M64 51h1M22 52h1M43 52h1M62 52h1M64 52h1M34 53h3M38 53h1M41 53h1M65 53h1M37 54h1M40 54h1M63 54h1M65 54h1M24 55h2M41 55h3M47 55h1M63 55h1M65 55h1M24 56h3M36 56h2M44 56h1M63 56h1M65 56h1M25 57h3M36 57h1M40 57h2M63 57h1M65 57h1M26 58h3M35 58h1M56 58h2M63 58h1M65 58h1M27 59h1M35 59h1M38 59h2M42 59h1M52 59h1M54 59h1M56 59h1M58 59h1M64 59h1M43 60h1M52 60h1M54 60h1M38 62h1M43 62h2M58 63h1M36 64h2M42 64h1M41 65h1M45 65h1M59 65h1M56 66h1M51 67h1M56 67h1M35 68h1M41 68h1M52 68h1M44 69h2M49 69h2M35 70h1M41 71h1M44 72h1" />
<path stroke="#4a4a73" d="M48 25h4M47 26h1M52 26h1M69 26h3M46 27h1M53 27h1M68 27h1M72 27h1M46 28h1M53 28h1M73 28h1M45 29h1M54 29h1M73 29h1M73 30h1M73 31h1M64 32h1M48 37h1M70 38h1M70 39h1M69 42h1M57 57h1M56 60h1M56 61h1M56 62h1M55 64h1M64 64h1M55 65h1M64 65h1M65 66h1M53 67h1M55 67h1M66 67h1M66 68h1M42 69h1M63 69h1M36 70h1M42 70h1M51 70h1M36 71h1M51 71h1M45 72h1M45 73h1" />
<path stroke="#627bb4" d="M48 26h1M47 27h3M47 28h4M67 28h3M46 29h5M66 29h5M46 30h6M65 30h6M46 31h6M65 31h6M46 32h6M65 32h7M46 33h5M64 33h9M47 34h3M64 34h8M47 35h3M64 35h8M48 36h1M64 36h7M64 37h6M65 38h3M67 40h1M69 41h1M60 48h1M59 49h3M52 50h1M57 50h5M54 51h8M54 52h8M54 53h7M62 53h1M55 54h6M56 55h5M56 56h6M56 57h1M58 57h5M58 58h5M59 59h5M55 60h1M59 60h5M54 61h2M59 61h5M60 62h2M52 63h1M53 64h2M60 65h2M51 66h5M52 67h1M54 67h1M36 68h1M60 68h4M65 68h1M36 69h6M61 69h2M64 69h1M37 70h5M45 70h1M49 70h1M45 71h4M46 72h5" />
<path stroke="#7bacf6" d="M49 26h3M50 27h3M69 27h3M51 28h2M70 28h3M51 29h3M71 29h2M52 30h2M71 30h2M52 31h1M71 31h2M72 32h1M68 39h2M68 40h2M68 41h1M50 51h4M52 52h2M61 53h1M61 54h2M61 55h2M62 56h1M63 64h1M62 65h2M64 67h2M64 68h1M65 69h1M50 70h1M49 71h2" />
<path stroke="#62627b" d="M61 26h2M60 27h3M59 28h3M57 29h5M56 30h6M54 31h7M53 32h7M53 33h6M54 34h3M25 45h6M24 46h8M23 47h3M40 47h1M23 48h2M41 48h1M41 49h2M45 50h1M45 51h1M44 52h2M48 52h4M44 53h1M48 53h4M53 53h1M49 54h3M55 55h1" />
<path stroke="#736252" d="M29 53h2M28 54h1M27 55h1M21 56h2M21 57h1M30 57h1M31 58h1M31 59h1M24 62h1M59 62h1M24 63h1M53 63h1M55 63h1M64 63h1M24 64h1M59 64h1M51 65h1M64 66h1M60 67h1" />
<path stroke="#ffe65a" d="M29 54h1M28 55h2M28 56h2M22 57h2M29 57h1M23 58h2M29 58h2M24 59h2M29 59h2M25 60h7M25 61h2M25 62h2M63 62h1M25 63h1M62 63h2M63 66h1" />
<path stroke="#b49c5a" d="M27 61h1M53 61h1M53 62h3M62 62h1M54 63h1M59 63h3M52 64h1M60 64h3M52 65h3M60 66h3M61 67h3" />
</svg>