<svg xmlns="http://www.w3.org/2000/svg" viewBox="0 -0.5 96 96" shape-rendering="crispEdges">
<metadata>Made with Pixels to Svg https://codepen.io/shshaw/pen/XbxvNj</metadata>
<path stroke="#101010" d="M44 16h6M43 17h1M50 17h3M53 18h3M56 19h2M58 20h2M60 21h1M61 22h1M62 23h1M62 24h1M61 25h1M50 26h1M61 26h1M50 27h1M60 27h1M50 28h1M60 28h1M49 29h1M60 29h1M49 30h1M59 30h1M49 31h1M59 31h1M48 32h1M59 32h1M47 33h1M58 33h1M47 34h2M58 34h1M49 35h1M58 35h1M50 36h1M58 36h1M50 37h1M58 37h1M51 38h1M57 38h1M51 39h1M57 39h1M51 40h1M57 40h1M52 41h1M57 41h1M63 41h1M52 42h1M56 42h1M63 42h1M71 42h1M49 43h2M52 43h1M56 43h1M46 44h2M52 44h1M56 44h1M70 44h1M52 45h1M69 45h1M45 46h1M68 46h1M44 47h1M46 50h1M64 50h2M44 51h2M63 51h1M43 52h1M48 52h1M56 52h1M62 52h1M42 53h1M46 53h2M53 53h3M61 53h1M41 54h1M45 54h1M48 54h5M56 54h1M44 55h1M57 55h2M62 55h1M43 56h1M59 56h3M41 57h1M40 58h1M39 59h1M37 60h1M36 61h1M34 62h2M32 63h2" />
<path stroke="#8bb4ee" d="M44 17h6M50 18h3M53 19h3M56 20h2M58 21h2M60 22h1M61 23h1M29 24h2M30 25h6M31 26h8M34 27h8M37 28h6M41 29h3M43 30h1M44 31h1M44 32h1M45 33h1M45 34h1M45 35h2M69 35h3M46 36h1M67 36h4M46 37h2M66 37h3M47 38h1M65 38h3M47 39h1M65 39h2M64 40h2M64 41h1M58 43h5M49 44h3M57 44h1M59 44h2M47 45h5M57 45h1M49 46h3M40 49h5M34 50h8M29 51h7M25 52h4M40 56h1M38 57h3M37 58h3M36 59h2M35 60h2M33 61h3M32 62h2" />
<path stroke="#4a417b" d="M44 18h5M49 19h3M52 20h3M55 21h2M57 22h2M26 23h1M59 23h1M27 24h2M29 25h1M30 26h1M31 27h1M32 28h1M33 29h1M33 30h1M46 30h1M34 31h1M46 31h1M34 32h1M46 32h1M55 32h2M35 33h1M46 33h1M51 33h4M35 34h1M46 34h1M49 34h2M69 34h3M35 35h1M41 35h4M47 35h1M67 35h2M72 35h1M34 36h1M38 36h3M47 36h1M66 36h1M72 36h1M34 37h3M48 37h1M59 37h1M65 37h1M72 37h1M37 38h2M48 38h1M59 38h1M64 38h1M72 38h1M39 39h2M48 39h1M60 39h1M64 39h1M72 39h1M41 40h1M49 40h1M60 40h1M63 40h1M72 40h1M42 41h2M49 41h1M60 41h1M71 41h1M44 42h2M50 42h1M58 42h5M46 43h1M48 43h1M51 43h1M57 43h1M63 43h1M70 43h1M58 44h1M45 45h1M53 46h2M55 47h1M67 47h1M42 48h3M68 48h1M47 49h1M65 49h2M68 49h1M37 51h7M49 51h1M57 51h1M64 51h2M30 52h7M25 53h5M61 54h1M40 55h1M38 56h2M42 56h1M37 57h1M36 58h1M35 59h1M38 59h1M33 60h2M32 61h1M31 62h1M31 63h1" />
<path stroke="#627bb4" d="M49 18h1M52 19h1M55 20h1M57 21h1M27 22h5M59 22h1M32 23h5M60 23h1M37 24h3M60 24h2M40 25h3M60 25h1M43 26h2M59 26h2M32 27h2M45 27h1M59 27h1M33 28h4M45 28h1M59 28h1M34 29h7M45 29h2M58 29h2M34 30h9M58 30h1M35 31h9M55 31h4M35 32h9M51 32h4M57 32h2M36 33h9M48 33h3M57 33h1M36 34h9M57 34h1M36 35h5M57 35h1M35 36h3M41 36h5M57 36h1M71 36h1M37 37h9M56 37h2M69 37h3M39 38h8M56 38h1M58 38h1M68 38h4M41 39h6M56 39h1M58 39h2M67 39h5M42 40h7M56 40h1M58 40h2M66 40h6M44 41h5M55 41h2M58 41h2M65 41h6M46 42h4M55 42h1M57 42h1M64 42h7M47 43h1M55 43h1M64 43h6M48 44h1M55 44h1M61 44h9M46 45h1M55 45h2M58 45h11M46 46h3M52 46h1M55 46h13M45 47h10M56 47h11M40 48h2M45 48h23M34 49h6M45 49h2M48 49h17M67 49h1M29 50h5M42 50h4M47 50h17M25 51h4M36 51h1M46 51h3M50 51h7M58 51h5M24 52h1M29 52h1M44 52h4M49 52h7M57 52h5M43 53h3M48 53h5M56 53h5M42 54h3M57 54h4M41 55h3M59 55h3M41 56h1" />
<path stroke="#73205a" d="M46 19h1M47 20h1M48 21h1M54 21h1M49 22h1M56 22h1M49 23h1M58 23h1M50 24h1M59 24h1M50 25h1M58 25h2M51 26h1M53 26h1M56 26h3M52 27h1M54 27h5M51 28h1M53 28h6M50 29h8M50 30h8M50 31h5M49 32h2M55 33h2M51 34h6M50 35h7M51 36h6M51 37h5M52 38h4M52 39h4M52 40h4M53 41h2M53 42h2M53 43h2M53 44h2M53 45h2" />
<path stroke="#b4529c" d="M47 19h2M48 20h4M49 21h5M50 22h6M50 23h8M51 24h8M51 25h7M52 26h1M54 26h2M51 27h1M53 27h1M52 28h1" />
<path stroke="#bdcdff" d="M27 23h5M31 24h6M36 25h4M39 26h4M42 27h3M43 28h2M44 29h1M44 30h2M45 31h1M45 32h1" />
<path stroke="#ffffff" d="M66 50h1M66 51h1M62 54h1" />
<path stroke="#626262" d="M67 50h1M67 51h1M66 52h1M63 53h1M63 54h1" />
<path stroke="#d5d5d5" d="M62 53h1" />
</svg>