<svg xmlns="http://www.w3.org/2000/svg" viewBox="0 -0.5 96 96" shape-rendering="crispEdges">
<metadata>Made with Pixels to Svg https://codepen.io/shshaw/pen/XbxvNj</metadata>
<path stroke="#101010" d="M44 26h1M44 27h1M45 28h1M45 29h1M46 30h1M45 31h1M45 32h1M45 33h2M44 34h1M44 35h1M45 36h1M44 37h1M47 37h2M44 38h1M50 38h1M43 39h1M43 40h1M41 42h1M40 43h1M40 44h1M39 45h1M38 46h1M38 47h1M37 49h1M37 50h1M37 51h1M38 53h1M37 54h1M37 55h1M37 56h1M38 57h1M38 58h1M39 59h1M57 59h1M39 60h1M57 60h1M40 61h2M56 61h1M42 62h1M55 62h1M57 62h1M43 63h2M52 63h3M58 63h2M41 64h2M45 64h2M51 64h1M49 66h1M46 67h1M48 67h1M50 67h1M52 67h1M44 68h2M48 68h1M51 68h1M46 69h2" />
<path stroke="#292931" d="M45 26h1M47 27h1M48 28h1M48 29h1M49 30h1M50 31h1M51 32h1M47 33h1M51 33h1M48 34h3M51 35h1M46 36h1M52 36h1M49 37h1M52 37h1M51 38h2M53 39h1M53 40h1" />
<path stroke="#393941" d="M45 27h1M46 28h1M46 29h2M47 30h2M46 31h2M46 32h3M48 33h3M45 34h3M45 35h3M47 36h2M45 37h2M50 37h2M45 38h5M44 39h2M49 39h4M44 40h1M58 61h1M59 62h1M41 63h1" />
<path stroke="#5a5a5a" d="M46 27h1M47 28h1M48 31h2M49 32h2M48 35h3M49 36h3" />
<path stroke="#62414a" d="M46 39h3M45 40h1M49 40h4M42 41h3M54 41h2M57 44h1M57 45h1M57 46h1M58 47h1M38 48h1M58 48h1M59 49h1M59 50h1M59 51h1M38 52h1M58 52h1M42 53h1M48 53h1M58 53h1M45 54h1M59 54h1M41 55h1M43 55h1M45 55h1M47 55h1M49 55h1M59 55h1M42 56h1M48 56h1M59 56h1M41 57h1M49 57h1M58 57h1M39 58h1M57 58h1M47 64h1M50 64h1M45 65h1M51 65h1M44 66h1M47 66h1M52 66h1M43 67h1M43 68h1M46 68h1" />
<path stroke="#b46a7b" d="M46 40h3M45 41h4M51 41h1M42 42h8M41 43h10M52 43h2M41 44h14M40 45h15M39 46h17M39 47h17M39 48h18M38 49h20M38 50h20M38 51h4M43 51h5M49 51h9M39 52h3M43 52h1M45 52h1M47 52h1M49 52h9M39 53h3M43 53h1M45 53h1M47 53h1M49 53h9M38 54h3M42 54h1M44 54h1M46 54h1M48 54h1M50 54h9M38 55h3M42 55h1M44 55h1M46 55h1M48 55h1M50 55h9M38 56h2M41 56h1M43 56h1M45 56h1M47 56h1M49 56h1M51 56h8M39 57h2M42 57h1M44 57h3M48 57h1M50 57h8M40 58h2M43 58h5M49 58h8M40 59h17M40 60h17M42 61h14M43 62h9M53 62h2M45 63h7M48 64h1M46 65h3M50 65h1M45 66h2M48 66h1M50 66h2M44 67h2M47 67h1M51 67h1M47 68h1" />
<path stroke="#ee949c" d="M49 41h1M52 41h2M50 42h6M51 43h1M54 43h3M55 44h2M55 45h2M56 47h2M57 48h1M58 49h1M58 50h1M58 51h1" />
<path stroke="#8b5262" d="M50 41h1M56 42h1M57 43h1M56 46h1M42 51h1M48 51h1M42 52h1M44 52h1M46 52h1M48 52h1M44 53h1M46 53h1M41 54h1M43 54h1M47 54h1M49 54h1M40 56h1M44 56h1M46 56h1M50 56h1M43 57h1M47 57h1M42 58h1M48 58h1M52 62h1M49 64h1M49 65h1" />
<path stroke="#737b7b" d="M57 61h1M58 62h1M42 63h1" />
</svg>