<svg xmlns="http://www.w3.org/2000/svg" viewBox="0 -0.5 96 96" shape-rendering="crispEdges">
<metadata>Made with Pixels to Svg https://codepen.io/shshaw/pen/XbxvNj</metadata>
<path stroke="#292931" d="M44 26h2M44 27h1M46 27h1M44 28h1M47 29h1M44 30h2M48 30h1M48 31h1M49 32h1M45 33h1M50 33h1M45 34h2M48 35h1M45 36h1M50 37h1M51 38h1M45 39h1M47 39h1M51 39h1M44 40h1M49 40h3" />
<path stroke="#5a5a5a" d="M45 27h1M46 28h1M45 31h2M46 32h3M47 33h3M48 34h2M48 37h2M49 38h2M50 39h1M49 41h2M50 42h2" />
<path stroke="#393941" d="M45 28h1M45 29h2M46 30h2M44 31h1M47 31h1M44 32h2M46 33h1M47 34h1M49 35h1M46 36h2M45 37h3M45 38h4M48 39h2M45 40h3M44 41h5M47 42h3M48 43h1" />
<path stroke="#101010" d="M43 31h1M43 32h1M44 33h1M44 34h1M50 34h1M45 35h3M50 35h1M44 36h1M48 36h2M44 37h1M44 38h1M46 39h1M48 40h1M43 41h1M51 41h1M44 42h3M52 42h1M42 43h1M47 43h1M49 43h4M48 44h2M47 45h1M49 45h1M46 46h1M49 46h1M38 47h1M44 47h2M50 47h1M40 48h4M51 48h2M40 49h1M53 49h4M43 50h3M39 51h1M41 51h1M45 51h1M56 51h1M38 52h1M40 52h1M45 52h1M56 52h1M38 53h2M45 53h1M52 53h1M56 53h1M39 54h1M47 54h1M52 54h1M39 55h1M47 55h1M40 56h3M44 56h1M47 56h1M52 56h2M58 56h2M37 57h3M44 57h1M51 57h1M55 57h1M57 57h1M38 58h1M40 58h1M44 58h1M47 58h2M51 58h1M56 58h2M37 59h1M39 59h1M44 59h1M46 59h1M50 59h2M56 59h1M37 60h1M39 60h1M45 60h1M52 60h1M38 61h1M43 61h1M45 61h1M52 61h1M38 62h1M41 62h1M45 62h1M53 62h1M39 63h2M45 63h1M54 63h1M40 64h1M43 64h1M46 64h1M54 64h2M41 65h3M45 65h1M47 65h2M53 65h1M55 65h1M42 66h1M45 66h1M53 66h1M56 66h1M42 67h1M44 67h1M51 67h1M54 67h1M56 67h1M42 68h1M44 68h1M46 68h1M55 68h2M42 69h2M48 69h2" />
<path stroke="#314a39" d="M43 42h1M41 43h1M53 43h1M40 44h1M54 44h2M39 45h1M56 45h1M38 46h1M50 46h1M56 46h1M39 47h1M51 47h1M57 47h1M39 48h1M44 48h1M57 48h1M44 49h1M57 49h1M39 50h2M55 50h2M42 51h1M57 51h1M39 52h1M48 52h2M53 52h2M58 52h1M40 53h1M47 53h1M50 53h1M55 53h1M59 53h1M37 54h1M44 54h2M51 54h1M56 54h1M59 54h1M37 55h1M43 55h1M52 55h1M57 55h1M60 55h1M36 56h1M39 56h1M43 56h1M54 56h1M57 56h1M60 56h1M36 57h1M40 57h2M47 57h1M54 57h1M39 58h1M49 58h1M38 59h1M49 59h1M38 60h1M43 60h2M50 60h1M57 60h1M50 61h1M57 61h1M42 62h1M50 62h1M54 62h1M57 62h1M50 63h1M55 63h2M44 64h2M49 64h1M52 66h1M45 67h1M50 67h1M47 68h1M50 68h1M47 69h1" />
<path stroke="#527341" d="M43 43h4M41 44h7M50 44h2M40 45h7M48 45h1M50 45h4M39 46h7M47 46h2M51 46h4M40 47h4M46 47h4M52 47h4M45 48h6M53 48h3M41 49h3M45 49h8M41 50h2M46 50h9M40 51h1M43 51h2M46 51h10M41 52h4M46 52h2M50 52h3M55 52h1M41 53h4M46 53h1M48 53h2M51 53h1M53 53h2M38 54h1M40 54h4M46 54h1M48 54h3M53 54h3M57 54h1M38 55h1M40 55h3M44 55h3M48 55h4M53 55h4M58 55h1M37 56h2M45 56h2M48 56h4M55 56h2M42 57h2M45 57h2M48 57h3M52 57h2M56 57h1M41 58h3M45 58h2M50 58h1M52 58h4M40 59h4M45 59h1M47 59h2M52 59h4M40 60h3M46 60h4M51 60h1M53 60h4M39 61h4M44 61h1M46 61h4M51 61h1M53 61h4M39 62h2M43 62h2M46 62h4M51 62h2M55 62h2M41 63h4M46 63h4M51 63h3M41 64h2M47 64h2M50 64h4M46 65h1M49 65h4M46 66h6M46 67h4M48 68h2" />
<path stroke="#7b9c4a" d="M52 44h2M54 45h2M55 46h1M56 47h1M56 48h1M57 52h1M57 53h2M58 54h1M59 55h1" />
<path stroke="#624a39" d="M44 65h1M54 65h1M43 66h2M54 66h2M43 67h1M55 67h1M43 68h1" />
</svg>