<svg xmlns="http://www.w3.org/2000/svg" viewBox="0 -0.5 96 96" shape-rendering="crispEdges">
<metadata>Made with Pixels to Svg https://codepen.io/shshaw/pen/XbxvNj</metadata>
<path stroke="#101010" d="M44 28h1M44 29h1M45 30h1M45 31h1M46 32h1M45 33h1M45 34h1M45 35h1M44 36h1M44 37h1M45 38h1M44 39h1M44 40h1M43 41h1M43 42h1M38 49h1M38 50h1M38 51h1M37 52h1M36 53h1M36 54h1M36 55h1M37 56h1M37 57h1M37 58h1M38 59h1M38 60h1M39 61h1M57 61h1M39 62h1M57 62h1M40 63h2M56 63h1M42 64h1M54 64h1M43 65h2M52 65h2M45 66h2M50 66h2M47 67h3" />
<path stroke="#292931" d="M45 28h1M47 29h1M48 30h1M48 31h1M49 32h1M50 33h1M51 34h1M46 35h2M51 35h1M48 36h3M51 37h1M46 38h2M52 38h1M48 39h2M52 39h1M50 40h3M53 41h1M53 42h1" />
<path stroke="#393941" d="M45 29h1M46 30h1M46 31h2M47 32h2M46 33h2M46 34h3M48 35h3M45 36h3M45 37h4M48 38h2M45 39h3M50 39h2M45 40h5M44 41h2M49 41h4M44 42h1M41 52h1M43 53h1M47 61h1M45 62h2" />
<path stroke="#5a5a5a" d="M46 29h1M47 30h1M48 33h2M49 34h2M49 37h2M50 38h2M42 50h2M41 51h1M44 51h1M42 52h1M44 52h1M42 53h1M51 54h2M50 55h2M53 55h1M50 56h1M53 56h1M51 57h2M44 59h3M44 60h1M47 60h1M44 61h1" />
<path stroke="#837362" d="M46 41h3M45 42h1M49 42h4M43 43h2M50 43h1M54 44h1M37 55h1M40 55h1M38 56h1M42 57h1M44 57h1M40 60h1M56 60h1M42 62h1M54 62h1M56 62h1M45 64h1M51 64h1M49 66h1" />
<path stroke="#ac9473" d="M46 42h1M45 43h4M42 44h10M41 45h13M41 46h14M40 47h16M40 48h16M39 49h17M39 50h3M44 50h13M39 51h2M45 51h12M38 52h3M45 52h13M37 53h5M44 53h14M37 54h14M53 54h6M38 55h2M41 55h9M54 55h5M39 56h11M54 56h5M38 57h4M43 57h1M45 57h6M53 57h6M38 58h20M39 59h5M47 59h11M39 60h1M41 60h3M48 60h8M40 61h4M48 61h9M40 62h2M43 62h2M47 62h7M55 62h1M42 63h13M43 64h2M46 64h5M52 64h2M45 65h7M47 66h2" />
<path stroke="#d5c573" d="M47 42h2M49 43h1M51 43h2M52 44h2M54 45h2M55 46h2M56 47h1M56 48h1M56 49h2M57 50h1M57 51h1" />
<path stroke="#625252" d="M42 43h1M53 43h1M41 44h1M55 44h1M40 45h1M56 45h1M40 46h1M57 46h1M39 47h1M57 47h1M39 48h1M57 48h1M58 49h1M58 50h1M58 51h1M58 52h1M58 53h1M59 54h1M59 55h1M59 56h1M59 57h1M58 58h1M58 59h1M57 60h1M55 63h1" />
<path stroke="#626a6a" d="M42 51h2M43 52h1M52 55h1M51 56h2M45 60h2M45 61h2" />
</svg>