<svg xmlns="http://www.w3.org/2000/svg" viewBox="0 -0.5 96 96" shape-rendering="crispEdges">
<metadata>Made with Pixels to Svg https://codepen.io/shshaw/pen/XbxvNj</metadata>
<path stroke="#101010" d="M46 24h2M46 25h1M48 25h1M46 26h1M49 26h1M46 27h1M49 27h1M50 28h1M47 29h1M50 29h1M46 30h1M49 30h1M46 31h1M50 31h1M46 32h1M50 32h1M47 33h1M50 33h1M47 34h1M49 34h1M47 35h1M49 35h1M47 36h1M49 36h1M47 37h1M49 37h1M47 38h1M44 39h1M47 39h1M50 39h1M53 39h1M41 40h1M44 40h1M46 40h1M50 40h1M53 40h1M42 41h2M46 41h1M50 41h1M52 41h1M54 41h2M39 42h2M46 42h1M50 42h1M56 42h1M41 43h1M45 43h1M51 43h1M42 44h1M45 44h1M51 44h1M42 45h3M52 45h1M41 46h1M53 46h2M60 46h1M62 46h1M39 47h2M59 47h1M64 47h1M34 48h1M39 48h1M55 48h1M35 49h1M39 49h1M56 49h3M64 49h3M36 50h3M58 50h1M67 50h1M36 51h1M59 51h1M67 51h1M36 52h1M68 52h1M30 53h1M35 53h1M61 53h1M68 53h1M31 54h4M61 54h1M68 54h1M62 55h1M66 55h2M63 56h3M63 59h1M37 60h1M60 60h3M38 61h1M58 61h2M38 62h1M57 62h1M57 63h1M39 64h1M39 65h1M55 65h1M40 66h1M55 66h1M41 67h1M55 67h1M41 68h1M54 68h1M42 69h1M52 69h2M43 70h1M50 70h2M45 71h1M49 71h1M46 72h3" />
<path stroke="#5a5a5a" d="M47 25h1M47 26h2M48 27h1M49 28h1M48 31h2M49 32h1" />
<path stroke="#393941" d="M47 27h1M47 28h2M48 29h2M47 30h2M47 31h1M47 32h2M48 33h2M48 34h1M48 35h1M48 36h1M48 37h1M48 38h2M48 39h2M47 40h3M47 41h3M47 42h3M46 43h5M46 44h5M45 45h7M44 46h9M42 47h2M51 47h4M41 48h1" />
<path stroke="#393131" d="M42 38h2M54 38h2M41 39h1M56 39h1M56 40h1M41 41h1M44 41h1M38 42h1M41 42h1M45 42h1M51 42h1M37 43h1M56 43h3M35 44h3M55 44h1M59 44h1M34 45h1M38 45h1M53 45h1M55 45h1M60 45h1M33 46h1M39 46h1M43 46h1M55 46h1M59 46h1M61 46h1M33 47h1M44 47h7M55 47h1M58 47h1M31 48h3M42 48h1M52 48h2M56 48h1M58 48h1M65 48h1M30 49h1M36 49h1M38 49h1M29 50h1M63 50h1M29 51h1M33 51h1M62 51h1M29 52h1M34 52h1M60 52h2M65 52h1M31 53h1M34 53h1M64 53h1M64 54h1M67 54h1M63 55h1" />
<path stroke="#a47b5a" d="M42 39h1M55 39h1M42 42h1M55 42h1M38 43h2M55 43h1M57 44h2M35 45h3M58 45h2M35 46h2M61 47h2M62 48h2M31 49h3M31 50h2M64 50h3M65 51h2M66 52h2" />
<path stroke="#624a39" d="M43 39h1M54 39h1M42 40h2M54 40h2M53 41h1M43 42h2M52 42h3M40 43h1M42 43h3M52 43h3M38 44h4M43 44h2M52 44h3M56 44h1M39 45h3M54 45h1M56 45h2M34 46h1M37 46h2M40 46h1M56 46h3M63 46h1M34 47h5M56 47h2M60 47h1M63 47h1M35 48h4M57 48h1M59 48h3M64 48h1M34 49h1M37 49h1M59 49h5M30 50h1M33 50h3M59 50h4M30 51h3M34 51h2M60 51h2M63 51h2M30 52h4M35 52h1M62 52h3M32 53h2M62 53h2M65 53h3M62 54h2M65 54h2M64 55h2" />
<path stroke="#625252" d="M42 46h1M41 47h1M54 48h1M55 49h1M39 50h1M32 55h1M32 56h1M32 57h1M64 57h1M33 58h2M64 58h1M35 59h2M60 59h1M59 60h1M38 63h2M56 63h1M53 64h1M56 64h1M42 65h1M54 65h1M41 66h1M50 67h1M50 68h1M45 69h1M51 69h1M44 70h1" />
<path stroke="#837362" d="M40 48h1M43 48h1M55 50h3M57 51h2M59 52h1M60 53h1M35 54h1M37 58h1M59 58h1M37 59h1M56 61h2M39 62h1M41 62h1M46 62h1M51 62h1M55 62h2M40 63h2M45 63h2M52 63h4M40 64h8M51 64h2M54 64h2M40 65h2M43 65h11M42 66h13M42 67h8M51 67h4M42 68h8M51 68h3M43 69h2M46 69h5M45 70h5M46 71h3" />
<path stroke="#ac9473" d="M44 48h8M40 49h15M40 50h15M37 51h20M37 52h22M36 53h24M36 54h25M33 55h29M33 56h30M33 57h31M35 58h2M38 58h21M60 58h4M38 59h22M61 59h2M38 60h21M39 61h17M40 62h1M42 62h4M47 62h4M52 62h3M42 63h3M47 63h5M48 64h3" />
</svg>