<svg xmlns="http://www.w3.org/2000/svg" viewBox="0 -0.5 96 96" shape-rendering="crispEdges">
<metadata>Made with Pixels to Svg https://codepen.io/shshaw/pen/XbxvNj</metadata>
<path stroke="#7b4120" d="M52 13h2M51 14h1M54 14h1M51 15h1M54 15h1M55 16h1M55 17h1M55 18h1M50 19h1M56 19h1M50 20h1M56 20h1M52 21h1M57 21h1M52 22h1M58 22h3M53 23h1M61 23h2M63 24h1M64 25h1M50 26h2M49 27h1M51 27h1M49 28h2M45 29h1M51 29h3M43 30h1M54 30h2M42 31h1M56 31h1M42 32h1M57 32h1M41 33h1M58 33h2M61 33h1M41 34h1M59 34h1M45 35h1M49 35h1M60 35h1M65 35h1M51 36h1M60 36h1M69 36h1M41 37h1M52 37h2M61 37h1M67 37h1M54 38h1M61 38h1M64 38h3M41 39h1M55 39h1M62 39h2M39 40h2M58 40h1M62 40h1M67 40h2M37 41h2M65 41h2M69 41h1M36 42h1M34 46h1M36 46h1M38 46h1M34 47h1M17 48h4M39 48h1M52 48h1M21 49h2M39 49h1M47 49h1M54 49h1M23 50h1M39 50h1M47 50h1M56 50h1M24 51h1M26 51h5M39 51h1M41 51h1M47 51h1M56 51h1M25 52h1M31 52h2M38 52h1M41 52h1M47 52h1M56 52h1M33 53h2M38 53h1M40 53h1M47 53h1M55 53h1M38 54h1M40 54h1M46 54h1M55 54h1M37 55h1M40 55h1M46 55h1M55 55h1M37 56h1M40 56h1M46 56h1M54 56h1M61 56h1M37 57h1M40 57h1M45 57h1M54 57h1M61 57h1M41 58h1M45 58h1M53 58h1M61 58h1M38 59h1M41 59h1M44 59h1M52 59h1M60 59h1M42 60h2M51 60h1M60 60h1M49 61h2M59 61h1M48 62h1M59 62h1M44 63h4M60 63h1M40 64h4M57 64h1M60 64h1M61 65h1M61 66h1M62 67h1M62 68h1M27 69h1M31 69h1M52 69h1M28 70h5M41 70h1M50 70h2M29 71h4M47 71h3M61 71h1M30 72h4M44 72h5M31 73h3M35 73h1M46 73h2M32 74h3M36 74h1M35 75h1M38 75h1M57 75h1M32 76h6M55 76h2M58 76h1M32 77h4M59 77h2M61 78h2" />
<path stroke="#ee7b18" d="M52 14h2M52 15h2M53 16h2M53 17h2M54 18h1M54 19h2M55 20h1M56 21h1M57 22h1M58 23h3M60 24h3M62 25h2M63 26h2M44 37h5M43 38h7M42 39h9M42 40h9M41 41h9M40 42h10M40 43h9M39 44h10M39 45h9M39 46h8M40 47h4M37 60h1M36 61h2M37 62h1M37 63h2M38 64h1M59 65h2M58 66h3M59 67h3M59 68h3M60 69h2M60 70h2M60 71h1M60 72h1M60 78h1M61 79h2" />
<path stroke="#181818" d="M50 16h1M50 17h1M50 18h1M51 19h1M51 20h1M49 21h1M49 22h1M49 23h1M50 24h1M50 25h1M46 28h3M44 29h1M62 30h1M65 30h1M62 31h2M65 31h2M59 32h1M62 32h2M60 33h1M66 33h1M60 34h2M41 35h1M46 35h3M64 35h1M70 35h1M41 36h1M44 36h1M50 36h1M66 36h3M43 37h1M42 38h1M56 40h2M59 41h6M69 42h2M35 43h1M71 43h1M34 44h1M38 44h1M71 44h1M34 45h1M37 45h1M70 45h1M37 46h1M69 46h1M36 47h1M68 47h1M35 48h1M53 48h2M63 48h2M16 49h1M35 49h1M55 49h8M17 50h1M34 50h1M61 50h1M18 51h1M34 51h1M61 51h1M19 52h1M26 52h1M34 52h1M20 53h1M27 53h1M62 53h1M20 54h1M28 54h1M35 54h1M62 54h1M21 55h1M28 55h1M35 55h1M62 55h1M21 56h1M29 56h1M36 56h1M63 56h1M22 57h1M29 57h1M36 57h1M63 57h1M22 58h1M30 58h1M37 58h1M22 59h1M30 59h1M37 59h1M64 59h1M67 59h1M23 60h1M30 60h1M38 60h1M65 60h2M23 61h1M30 61h1M38 61h1M23 62h1M30 62h1M38 62h1M24 63h1M31 63h1M39 63h1M58 63h1M24 64h1M31 64h1M39 64h1M24 65h1M31 65h1M39 65h1M56 65h1M25 66h1M31 66h1M40 66h1M55 66h1M25 67h1M32 67h1M40 67h1M54 67h1M26 68h1M32 68h1M40 68h1M52 68h2M26 69h1M32 69h1M41 69h1M50 69h2M62 69h1M27 70h1M33 70h1M42 70h1M47 70h3M62 70h1M28 71h1M33 71h1M43 71h4M29 72h1M34 72h1M61 72h1M30 73h1M34 73h1M45 73h1M60 73h1M31 74h1M35 74h1M45 74h4M59 74h1M32 75h3M36 75h2M43 75h2M49 75h3M58 75h1M31 76h1M38 76h5M52 76h2M31 77h1M36 77h2M53 77h1M32 78h4M53 78h1M63 78h1M54 79h2M64 79h1M56 80h3M64 80h1M59 81h5" />
<path stroke="#cd6a18" d="M51 16h2M53 18h1M50 21h1M55 21h1M50 22h1M56 22h1M67 32h1M45 36h4M49 37h1M50 38h1M41 40h1M39 41h1M50 41h1M56 41h2M37 42h2M55 42h8M36 43h2M39 43h1M49 43h1M56 43h5M35 44h2M58 44h2M35 45h2M38 45h1M35 46h1M35 47h1M39 47h1M40 48h3M40 49h2M59 63h1M58 64h2M58 65h1M58 67h1M59 69h1M59 70h1" />
<path stroke="#ac5a20" d="M51 17h2M51 18h2M52 19h2M52 20h3M51 21h1M53 21h2M51 22h1M53 22h3M50 23h3M54 23h4M51 24h9M51 25h11M52 26h11M65 26h1M50 27h1M52 27h12M65 27h1M51 28h13M66 28h1M54 29h10M66 29h1M56 30h6M63 30h1M67 30h1M57 31h5M67 31h1M58 32h1M60 32h2M68 32h1M62 33h1M69 33h2M49 36h1M50 37h2M51 38h3M51 39h4M51 40h5M40 41h1M51 41h5M58 41h1M39 42h1M50 42h5M38 43h1M50 43h6M37 44h1M49 44h9M48 45h12M47 46h15M46 47h15M47 48h5M55 48h5M42 49h1M48 49h6M40 50h2M48 50h8M40 51h1M48 51h8M39 52h2M48 52h8M39 53h1M48 53h7M39 54h1M47 54h8M38 55h2M47 55h8M38 56h2M47 56h7M25 57h1M38 57h2M46 57h8M25 58h2M28 58h2M38 58h3M46 58h7M23 59h7M39 59h2M45 59h7M24 60h6M35 60h1M39 60h3M44 60h7M24 61h6M31 61h1M34 61h2M39 61h10M24 62h6M31 62h6M39 62h9M25 63h6M32 63h5M40 63h4M25 64h6M32 64h6M25 65h6M32 65h7M57 65h1M26 66h5M32 66h8M56 66h2M26 67h6M33 67h7M55 67h3M27 68h5M33 68h7M54 68h5M28 69h3M33 69h8M53 69h6M34 70h7M52 70h7M34 71h9M50 71h10M35 72h9M49 72h11M36 73h9M48 73h12M37 74h8M49 74h10M39 75h4M52 75h5M54 76h1M57 76h1M54 77h5M54 78h6M56 79h5M63 79h1M59 80h5" />
<path stroke="#cdbd83" d="M64 27h1M64 32h1M63 33h3M68 33h1M62 34h1M64 34h2M61 35h3M66 35h1M69 35h1M61 36h4M62 37h5M62 38h2M67 41h1M67 43h3M64 44h5M60 45h10M62 46h7M37 47h1M44 47h2M61 47h5M43 48h1M46 48h1M60 48h3M46 49h1M18 50h2M35 50h1M42 50h1M19 51h3M35 51h2M38 51h1M20 52h5M35 52h3M46 52h1M21 53h6M28 53h1M35 53h3M41 53h2M45 53h2M21 54h7M29 54h2M36 54h2M41 54h5M22 55h6M29 55h3M36 55h1M41 55h5M22 56h7M30 56h3M41 56h5M23 57h2M26 57h3M30 57h4M41 57h4M23 58h2M27 58h1M31 58h4M42 58h3M31 59h4M42 59h2M31 60h4M32 61h2" />
<path stroke="#f6f6b4" d="M64 28h2M65 29h1M66 30h1M67 33h1M66 34h4M67 35h2M68 41h1M63 42h5M61 43h6M70 43h1M60 44h4M38 47h1M36 48h3M44 48h2M17 49h4M36 49h3M43 49h3M20 50h3M36 50h3M43 50h4M22 51h2M37 51h1M42 51h5M27 52h4M42 52h4M29 53h4M43 53h2M31 54h4M32 55h3M33 56h3M34 57h2M35 58h2M35 59h2M36 60h1" />
<path stroke="#ffde00" d="M46 29h5M45 30h9M44 31h11M45 32h11M49 33h8M51 34h6M53 35h3M50 62h1M49 63h3M46 64h6M40 65h11M41 66h9M41 67h7M41 68h4" />
<path stroke="#6a6a6a" d="M64 29h1M65 32h1M70 34h1" />
<path stroke="#e6a431" d="M44 30h1M43 31h1M55 31h1M43 32h2M56 32h1M42 33h7M57 33h1M42 34h9M57 34h2M42 35h3M50 35h3M56 35h4M42 36h2M52 36h8M42 37h1M54 37h7M55 38h6M56 39h6M59 40h3M57 50h4M57 51h4M57 52h5M56 53h6M56 54h6M56 55h6M55 56h6M55 57h6M54 58h7M53 59h7M52 60h8M51 61h8M49 62h1M51 62h8M48 63h1M52 63h6M44 64h2M52 64h5M51 65h5M50 66h5M48 67h6M45 68h7M42 69h8M43 70h4" />
<path stroke="#d5d5cd" d="M64 30h1" />
<path stroke="#ffffff" d="M64 31h1M66 32h1M65 36h1" />
<path stroke="#9c6200" d="M63 34h1M68 42h1M69 44h2" />
<path stroke="#2062a4" d="M66 47h2M69 47h1M65 48h2M69 48h1M64 49h1M67 49h1M69 49h1M64 50h1M67 50h1M69 50h1M64 51h1M67 51h1M69 51h1M62 52h1M65 52h1M67 52h1M69 52h1M65 53h1M68 53h1M65 54h1M68 54h1M65 55h1M68 55h1M66 56h1M68 56h1M66 57h1M68 57h1M64 58h1M66 58h2M66 59h1" />
<path stroke="#62bde6" d="M67 48h2M63 49h1M65 49h2M68 49h1M62 50h2M65 50h2M68 50h1M62 51h2M65 51h2M68 51h1M63 52h2M66 52h1M68 52h1M63 53h2M66 53h2M63 54h2M66 54h2M63 55h2M66 55h2M64 56h2M67 56h1M64 57h2M67 57h1M65 58h1M65 59h1" />
</svg>