<svg xmlns="http://www.w3.org/2000/svg" viewBox="0 -0.5 96 96" shape-rendering="crispEdges">
<metadata>Made with Pixels to Svg https://codepen.io/shshaw/pen/XbxvNj</metadata>
<path stroke="#6283cd" d="M80 15h1M86 15h1M9 16h5M76 16h2M80 16h1M14 17h3M74 17h2M81 17h1M17 18h2M72 18h2M19 19h2M70 19h2M21 20h2M68 20h2M23 21h2M67 21h1M25 22h2M65 22h2M27 23h1M64 23h1M28 24h1M63 24h1M65 24h1M29 25h1M62 25h1M30 26h1M61 26h1M31 27h1M60 27h1M32 28h1M59 28h1M33 29h1M58 29h1M33 30h1M32 32h1M59 32h1M31 34h1M50 35h1M60 35h2M49 36h1M51 36h1M61 36h1M41 37h1M48 37h2M52 37h1M61 37h2M29 38h2M42 38h1M47 38h2M62 38h1M62 39h1M38 40h1M49 40h2M62 40h1M38 41h2M46 41h6M62 41h1M37 42h16M62 42h1M29 43h1M37 43h18M61 43h2M29 44h2M37 44h18M61 44h1M29 45h2M36 45h19M60 45h2M30 46h2M36 46h19M59 46h2M30 47h3M36 47h18M58 47h2M31 48h4M36 48h23M33 49h1M35 49h22M35 50h20M35 51h18M35 52h19M35 53h19M34 54h19M34 55h19M34 56h19M34 57h19M34 58h19M34 59h18M34 60h17M34 61h17M35 62h16M35 63h15M35 64h15M36 65h14M53 65h1M36 66h14M37 67h13M28 68h1M35 68h1M37 68h14M30 69h3M34 69h3M38 69h12M57 69h1M31 70h5M41 70h6M56 70h4M32 71h3M57 71h3M33 72h2M57 72h2M33 73h3M57 73h2M34 74h2M57 74h2M57 75h2" />
<path stroke="#39397b" d="M81 15h5M78 16h2M82 17h1M10 18h4M78 18h4M14 19h3M75 19h3M17 20h2M73 20h2M19 21h2M71 21h2M21 22h1M69 22h2M22 23h2M68 23h1M24 24h2M66 24h2M26 25h1M64 25h2M27 26h1M63 26h1M28 27h1M62 27h1M29 28h1M61 28h1M30 29h1M61 29h1M31 30h1M58 30h1M31 31h1M33 31h1M58 31h1M60 31h1M31 32h1M33 32h1M30 33h1M32 33h1M59 33h1M61 33h1M30 34h1M32 34h1M59 34h1M61 34h1M29 35h1M31 35h1M49 35h1M62 35h1M29 36h1M31 36h1M40 36h1M48 36h1M60 36h1M62 36h1M29 37h1M31 37h1M39 37h1M47 37h1M60 37h1M63 37h1M28 38h1M31 38h1M39 38h1M43 38h4M52 38h1M61 38h1M63 38h1M28 39h1M30 39h1M38 39h1M53 39h1M61 39h1M63 39h1M28 40h1M30 40h1M37 40h1M53 40h1M61 40h1M63 40h1M28 41h1M30 41h1M37 41h1M54 41h1M61 41h1M63 41h1M28 42h1M30 42h1M36 42h1M54 42h1M61 42h1M63 42h1M28 43h1M30 43h1M36 43h1M55 43h1M60 43h1M63 43h1M28 44h1M31 44h1M36 44h1M55 44h1M60 44h1M62 44h1M28 45h1M31 45h1M59 45h1M62 45h1M29 46h1M32 46h1M58 46h1M61 46h1M29 47h1M33 47h2M54 47h4M60 47h1M30 48h1M59 48h1M31 49h2M57 49h2M33 50h1M53 60h1M53 61h1M54 62h1M54 63h1M60 64h2M27 65h2M59 65h1M26 66h1M29 66h2M52 66h2M58 66h1M31 67h1M35 67h1M54 67h2M58 67h1M32 68h1M34 68h1M51 68h2M56 68h2M29 69h1M33 69h1M58 69h1M30 70h1M31 71h1M32 72h1" />
<path stroke="#5aacee" d="M81 16h6M79 17h2M77 18h1M26 23h1M65 23h1M26 24h2M64 24h1M27 25h2M63 25h1M28 26h2M62 26h1M29 27h2M61 27h1M30 28h2M60 28h1M31 29h2M59 29h2M32 30h1M59 30h1M32 31h1M59 31h1M60 32h1M31 33h1M60 33h1M60 34h1M30 35h1M30 36h1M30 37h1M40 37h1M40 38h2M49 38h2M29 39h1M39 39h14M29 40h1M39 40h10M51 40h2M29 41h1M40 41h6M52 41h2M29 42h1M53 42h1M52 59h1M51 60h2M51 61h2M51 62h3M50 63h4M50 64h4M50 65h3M60 65h2M27 66h2M50 66h2M59 66h3M27 67h4M50 67h4M59 67h2M29 68h3M53 68h3M58 68h3M55 69h2M59 69h1" />
<path stroke="#000000" d="M87 16h1M8 17h1M83 17h4M9 18h1M14 37h1M14 38h1M14 39h1M13 40h1M13 41h1M13 42h1M12 43h1M12 44h4M16 45h2M35 45h1M55 45h1M18 46h1M35 46h1M55 46h1M35 47h1M35 48h1M34 49h1M34 50h1M55 50h2M34 51h1M53 51h2M34 52h1M34 53h1M26 54h3M33 54h1M23 55h2M29 55h3M33 55h1M58 55h4M22 56h1M32 56h2M55 56h3M63 56h3M70 56h1M20 57h2M33 57h1M53 57h2M66 57h2M70 57h1M33 58h1M53 58h1M68 58h3M33 59h1M53 59h1M33 60h1M33 61h1M34 62h1M34 63h1M34 64h1M54 64h1M35 65h1M54 65h1M62 65h1M35 66h1M62 66h1M26 67h1M36 67h1M61 67h1M27 68h1M36 68h1M61 68h1M28 69h1M37 69h1M50 69h2M53 69h2M60 69h1M36 70h1M38 70h3M47 70h3M55 70h1M60 70h1M35 71h1M41 71h6M56 71h1M60 71h1M35 72h1M56 72h1M59 72h1M32 73h1M36 73h1M56 73h1M59 73h1M33 74h1M36 74h1M56 74h1M59 74h1M34 75h2M56 75h1M59 75h1M57 76h2" />
<path stroke="#accdff" d="M9 17h5M76 17h3M14 18h3M74 18h3M17 19h2M72 19h3M19 20h2M70 20h3M21 21h2M68 21h3M22 22h3M67 22h2M24 23h2M66 23h2M50 36h1M50 37h2M51 38h1" />
<path stroke="#cd6ab4" d="M82 18h2M12 19h2M78 19h5M13 20h4M75 20h7M14 21h5M73 21h8M15 22h6M71 22h10M16 23h6M69 23h11M17 24h7M68 24h11M20 25h6M66 25h9M23 26h4M64 26h6M25 27h3M63 27h4M27 28h2M62 28h2M29 29h1M29 32h2M27 33h3M25 34h4M23 35h5M68 35h1M22 36h5M69 36h2M75 36h1M21 37h5M70 37h2M75 37h2M21 38h4M71 38h2M75 38h3M22 39h2M71 39h3M75 39h4M72 40h8M72 41h9M73 42h8M73 43h6M74 44h3M74 45h2M74 46h1" />
<path stroke="#94397b" d="M84 18h1M11 19h1M83 19h1M82 20h1M81 21h1M81 22h1M80 23h1M15 24h1M79 24h1M15 25h1M79 25h1M15 26h1M78 26h1M16 27h1M78 27h1M16 28h1M77 28h1M77 29h1M64 30h1M27 31h1M64 31h1M27 32h1M70 32h1M70 33h1M74 34h1M19 35h1M75 35h1M18 36h1M76 36h1M17 37h1M77 37h1M16 38h1M78 38h1M15 39h1M79 39h1M15 40h1M14 41h1M14 42h1M81 42h1M13 43h1M79 43h2M77 44h2M76 45h1M75 46h1M74 47h1M23 51h1M22 52h1M22 53h1M68 54h2M21 55h1M21 56h1M69 57h1" />
<path stroke="#621052" d="M85 18h1M10 19h1M12 20h1M13 21h1M14 22h1M14 23h1M16 29h1M16 30h1M60 30h4M77 30h1M16 31h1M28 31h3M65 31h3M77 31h1M16 32h1M25 32h2M68 32h2M77 32h1M15 33h1M23 33h2M71 33h2M77 33h1M15 34h1M21 34h2M73 34h1M78 34h1M15 35h1M20 35h1M78 35h1M15 36h1M78 36h1M79 37h1M79 38h1M80 39h1M80 40h1M81 41h1M82 42h1M27 43h1M81 43h2M26 44h1M63 44h1M25 45h1M64 45h1M25 46h1M65 46h1M19 47h1M24 47h1M65 47h1M19 48h1M24 48h1M66 48h1M74 48h1M20 49h1M23 49h1M66 49h1M73 49h1M20 50h1M23 50h1M67 50h1M73 50h1M21 51h1M67 51h1M72 51h1M21 52h1M54 52h1M68 52h1M72 52h1M21 53h1M54 53h1M68 53h1M71 53h1M21 54h1M25 54h1M53 54h1M71 54h1M20 55h1M53 55h1M62 55h1M69 55h1M71 55h1M20 56h1M53 56h1M69 56h1" />
<path stroke="#ac52ac" d="M15 23h1M16 24h1M16 25h4M75 25h4M16 26h7M70 26h8M17 27h8M67 27h11M17 28h10M64 28h13M17 29h12M62 29h15M17 30h14M65 30h12M17 31h10M61 31h3M68 31h9M17 32h8M28 32h1M61 32h7M71 32h6M16 33h7M25 33h2M62 33h8M73 33h4M16 34h5M23 34h2M29 34h1M62 34h11M75 34h3M16 35h3M21 35h2M28 35h1M63 35h5M69 35h6M76 35h2M16 36h2M19 36h3M27 36h2M63 36h6M71 36h4M77 36h1M15 37h2M18 37h3M26 37h3M64 37h6M72 37h3M78 37h1M15 38h1M17 38h4M25 38h3M64 38h7M73 38h2M16 39h6M24 39h4M64 39h7M74 39h1M14 40h1M16 40h12M64 40h8M15 41h13M64 41h8M15 42h13M64 42h9M14 43h13M64 43h9M16 44h10M27 44h1M64 44h10M18 45h7M26 45h2M63 45h1M65 45h9M19 46h6M26 46h3M62 46h3M66 46h8M20 47h4M25 47h4M61 47h4M66 47h8M20 48h4M25 48h5M60 48h6M67 48h7M21 49h2M24 49h7M59 49h7M67 49h6M21 50h2M24 50h9M57 50h10M68 50h5M22 51h1M24 51h10M55 51h12M68 51h4M23 52h11M55 52h13M69 52h3M23 53h11M55 53h13M69 53h2M22 54h3M29 54h4M54 54h14M70 54h1M22 55h1M32 55h1M54 55h4M63 55h6M70 55h1M54 56h1M66 56h3M68 57h1" />
</svg>