<svg xmlns="http://www.w3.org/2000/svg" viewBox="0 -0.5 96 96" shape-rendering="crispEdges">
<metadata>Made with Pixels to Svg https://codepen.io/shshaw/pen/XbxvNj</metadata>
<path stroke="#416a31" d="M36 21h3M43 23h1M46 23h1M48 24h1M39 25h1M49 25h1M59 25h1M40 26h2M48 26h1M59 26h2M41 27h2M47 27h1M59 27h2M64 27h1M41 28h6M59 28h3M42 29h4M54 29h3M58 29h5M65 29h1M42 30h4M50 30h7M58 30h8M43 31h2M48 31h9M58 31h8M47 32h10M58 32h8M45 33h13M59 33h6M45 34h20M45 35h18M45 36h15M45 37h16M46 38h14M46 39h14M46 40h13M46 41h12M46 42h11M46 43h11M46 44h10M45 45h11M45 46h11M47 47h2M51 47h5M39 48h1M52 48h5M36 49h1M39 49h1M53 49h3M48 50h1M51 50h5M47 51h2M52 51h3M58 51h1M30 52h1M43 52h1M46 52h2M52 52h2M58 52h1M41 53h2M45 53h3M51 53h2M57 53h2M40 54h13M55 54h4M27 55h1M37 55h4M55 55h4M28 56h1M33 56h7M54 56h6M30 57h7M53 57h7M25 58h3M42 58h4M51 58h3M58 58h2M25 59h4M40 59h12M24 60h8M38 60h13M29 61h12M45 61h4M30 62h9M32 63h6" />
<path stroke="#394131" d="M56 21h3M36 22h1M39 22h2M44 22h3M56 22h1M59 22h2M37 23h1M41 23h2M47 23h2M57 23h1M61 23h1M38 24h1M49 24h1M62 24h1M38 25h1M50 25h6M62 25h1M39 26h1M49 26h2M56 26h2M63 26h2M48 27h1M65 27h1M47 28h1M57 28h2M65 28h1M46 29h1M66 29h1M46 30h1M45 31h1M44 32h2M57 32h1M44 33h1M58 33h1M65 33h1M60 36h1M60 38h2M45 43h1M45 44h1M44 45h1M24 58h1M24 59h1M26 61h3M29 62h1M30 63h2M32 64h4" />
<path stroke="#5a944a" d="M37 22h2M57 22h2M38 23h3M44 23h2M58 23h3M39 24h9M58 24h4M40 25h9M60 25h2M42 26h6M61 26h2M43 27h4M61 27h3M48 28h2M62 28h3M47 29h7M63 29h2M47 30h3M46 31h2M46 32h1M37 49h2M34 50h5M32 51h5M31 52h5M29 53h6M59 53h1M28 54h6M59 54h2M28 55h6M59 55h2M29 56h4M60 56h1M60 57h1" />
<path stroke="#101010" d="M57 24h1M58 25h1M58 26h1M40 27h1M58 27h1M40 28h1M41 29h1M57 29h1M41 30h1M57 30h1M66 30h1M42 31h1M57 31h1M66 31h1M43 32h1M66 32h1M44 34h1M65 34h1M44 35h1M63 35h2M44 36h1M61 36h2M44 37h1M61 37h1M45 38h1M45 39h1M60 39h1M45 40h1M59 40h1M45 41h1M58 41h1M45 42h1M57 42h1M33 43h2M57 43h1M32 44h1M39 44h2M56 44h1M31 45h1M38 45h1M41 45h1M56 45h1M31 46h1M42 46h3M56 46h1M30 47h1M41 47h1M45 47h2M56 47h1M30 48h1M40 48h1M57 48h1M40 49h1M57 49h1M58 50h1M27 51h1M59 51h1M27 52h1M29 52h1M59 52h1M28 53h1M60 53h1M27 54h1M61 54h1M61 55h1M24 56h1M25 57h2M62 59h1M23 60h1M33 60h4M62 60h1M22 61h1M62 61h1M22 62h1M61 62h1M25 63h2M42 63h3M50 63h2M61 63h1M23 64h1M45 64h5M23 65h1M38 65h2M62 65h1M22 66h1M30 66h1M36 66h2M63 66h1M22 67h1M31 67h5M64 67h1M21 68h1M56 68h2M64 68h1M21 69h1M27 69h3M53 69h1M58 69h6M22 70h3M30 70h1M42 70h4M53 70h1M31 71h1M40 71h2M46 71h2M53 71h1M31 72h1M48 72h5M32 73h2M34 74h3" />
<path stroke="#ffde73" d="M51 26h2M50 27h7M52 28h4M38 52h1M36 53h3M35 54h1M25 56h3M28 57h2M61 57h1M30 58h2M61 58h1M60 59h1" />
<path stroke="#7bbd52" d="M53 26h3M50 28h2" />
<path stroke="#a48b39" d="M49 27h1M57 27h1M56 28h1M33 44h3M32 45h5M39 45h2M32 46h9M31 47h8M42 47h3M31 48h5M41 48h6M49 48h2M31 49h3M41 49h11M29 50h3M40 50h8M56 50h1M28 51h2M39 51h5M56 51h1M28 52h1M37 52h1M39 52h2M54 52h3M39 53h1M53 53h3M34 54h1M36 54h1M53 54h1M43 55h4M51 55h3M40 56h13M61 56h1M37 57h5M46 57h5M29 58h1M32 58h8M54 58h4M60 58h1M32 59h6M52 59h8M51 60h3M57 60h3M23 61h3M41 61h4M49 61h4M23 62h6M39 62h13M27 63h3M38 63h3M45 63h5M29 64h3M36 64h4M30 65h8M31 66h5" />
<path stroke="#524a39" d="M35 43h1M36 44h1M37 45h1M41 46h1M39 47h2M49 47h2M36 48h3M47 48h2M51 48h1M29 49h2M34 49h2M52 49h1M56 49h1M28 50h1M32 50h2M39 50h1M49 50h2M57 50h1M30 51h2M37 51h2M44 51h3M55 51h1M57 51h1M36 52h1M41 52h2M57 52h1M27 53h1M35 53h1M40 53h1M56 53h1M37 54h3M54 54h1M24 55h3M34 55h3M41 55h2M47 55h4M54 55h1M53 56h1M27 57h1M42 57h4M51 57h2M28 58h1M40 58h2M46 58h5M29 59h3M38 59h2M32 60h1M37 60h1M52 62h1M41 63h1M40 64h1" />
<path stroke="#6a7bac" d="M49 51h3M44 52h2M48 52h4M43 53h2M48 53h3M61 60h1M54 61h3M60 61h2M53 62h8M52 63h9M24 64h3M41 64h4M50 64h11M24 65h5M40 65h20M23 66h7M38 66h21M23 67h8M36 67h18M56 67h4M22 68h28M52 68h1M59 68h2M63 68h1M22 69h5M30 69h20M31 70h11M46 70h5M32 71h8M48 71h4M32 72h7M34 73h3" />
<path stroke="#5a527b" d="M62 56h1M62 57h1M62 58h1M61 59h1M54 60h3M60 60h1M53 61h1M57 61h3M23 63h2M27 64h2M61 64h1M29 65h1M54 67h2M53 68h1M58 68h1M25 70h2M52 71h1M39 72h1M37 73h2" />
<path stroke="#6ab4f6" d="M60 65h2M59 66h4M60 67h4M50 68h2M61 68h2M50 69h3M51 70h2" />
</svg>