<svg xmlns="http://www.w3.org/2000/svg" viewBox="0 -0.5 96 96" shape-rendering="crispEdges">
<metadata>Made with Pixels to Svg https://codepen.io/shshaw/pen/XbxvNj</metadata>
<path stroke="#523939" d="M48 17h1M45 18h3M49 18h1M62 18h2M43 19h2M47 19h1M61 19h1M63 19h1M42 20h1M47 20h1M60 20h1M41 21h1M59 21h1M40 22h1M45 22h1M58 22h1M39 23h1M48 23h1M38 24h1M49 24h2M57 24h1M38 25h1M45 25h1M51 25h1M58 25h1M45 26h1M59 26h1M46 27h1M59 27h1M49 28h1M60 28h1M44 29h1M49 29h1M60 29h1M44 30h1M47 30h1M49 30h1M52 30h1M60 30h1M62 30h1M46 31h1M51 31h1M62 31h1M40 32h2M45 32h1M51 32h1M61 32h1M63 32h1M45 33h1M51 33h1M61 33h1M63 33h1M39 34h1M51 34h1M61 34h1M64 34h1M38 35h1M44 35h1M51 35h1M61 35h1M65 35h1M36 36h2M51 36h1M62 36h1M35 37h1M51 37h1M62 37h1M34 38h1M52 38h1M32 39h2M52 39h1M57 39h1M43 40h1M48 40h1M52 40h1M49 41h2M50 42h1M52 44h1M41 45h1M47 45h1M50 45h1M41 46h1M46 46h1M49 46h1M41 47h1M46 47h1M49 47h1M41 48h1M46 48h1M48 48h1M40 49h1M47 49h1M40 50h1M43 50h2M53 50h1M40 51h1M42 51h1M47 51h1M53 51h1M72 51h1M41 52h1M53 52h1M73 52h1M52 53h2M74 53h1M40 54h1M48 54h1M51 54h1M54 54h1M40 55h1M47 55h1M50 55h1M40 56h1M42 56h1M45 56h1M49 56h1M38 57h1M40 57h1M42 57h1M49 57h1M38 58h1M40 58h1M43 58h1M48 58h1M38 59h1M41 59h1M48 59h1M25 60h1M37 60h1M41 60h1M45 60h1M47 60h1M42 61h1M54 61h1M42 62h1M54 62h1M70 62h1M43 63h1M54 63h1M43 64h1M47 64h1M53 64h1M43 65h1M53 65h1M44 66h1M52 66h1M55 66h1M45 67h4M51 67h1M55 67h1M43 68h1M49 68h3M54 68h1M43 69h1M44 70h1M44 71h1M53 71h1M48 72h1M53 72h1M48 73h1M53 73h1M48 74h1M53 74h1M53 75h1M49 76h1M54 76h1M47 77h2M54 77h1" />
<path stroke="#c5a47b" d="M48 18h1M48 19h2M62 19h1M48 20h2M61 20h2M49 21h1M60 21h3M49 22h1M59 22h3M49 23h1M58 23h4M58 24h4M59 25h2M60 26h1M43 30h1M61 30h1M42 31h2M61 31h1M42 32h2M52 32h1M62 32h1M41 33h3M52 33h2M62 33h1M40 34h4M52 34h2M62 34h2M39 35h5M52 35h3M62 35h2M38 36h5M52 36h3M36 37h7M53 37h3M35 38h8M53 38h4M66 38h1M31 39h1M34 39h9M53 39h4M63 39h1M32 40h11M53 40h5M63 40h1M67 40h1M32 41h10M53 41h6M63 41h2M32 42h10M53 42h7M62 42h3M31 43h11M53 43h13M31 44h11M54 44h12M30 45h11M48 45h2M54 45h12M30 46h11M47 46h2M54 46h13M29 47h12M47 47h2M54 47h14M29 48h12M54 48h14M70 48h1M28 49h12M54 49h15M25 50h1M27 50h13M55 50h15M23 51h17M55 51h16M22 52h17M55 52h18M22 53h17M55 53h19M22 54h1M24 54h14M56 54h18M23 55h15M56 55h18M23 56h14M56 56h18M23 57h15M56 57h15M72 57h2M24 58h14M56 58h16M24 59h2M27 59h11M55 59h17M27 60h8M36 60h1M55 60h17M28 61h7M56 61h2M59 61h12M29 62h5M59 62h4M64 62h6M59 63h5M66 63h3M54 64h1M60 64h3M43 66h1M43 67h2M52 67h3M44 68h3M48 68h1M52 68h2M44 69h3M48 69h6M45 70h3M49 70h4M45 71h3M49 71h4M45 72h3M50 72h3M46 73h2M50 73h3M46 74h2M50 74h3M46 75h2M50 75h3M46 76h3M51 76h3M51 77h3" />
<path stroke="#101010" d="M51 18h2M50 19h1M53 19h1M50 20h1M54 20h1M63 20h1M48 21h1M50 21h1M55 21h1M63 21h1M48 22h1M50 22h1M56 22h1M62 22h1M45 23h1M50 23h1M57 23h1M62 23h1M45 24h1M62 24h1M44 25h1M49 25h1M61 25h1M37 26h1M44 26h1M49 26h1M51 26h1M61 26h1M36 27h1M43 27h1M49 27h1M51 27h1M60 27h1M36 28h1M43 28h1M46 28h1M51 28h1M35 29h1M42 29h1M46 29h1M52 29h1M34 30h1M42 30h1M34 31h1M41 31h1M44 31h1M53 31h1M33 32h1M44 32h1M53 32h1M33 33h1M40 33h1M44 33h1M54 33h1M32 34h1M44 34h1M54 34h1M32 35h1M55 35h1M31 36h1M44 36h1M55 36h1M31 37h1M43 37h2M56 37h1M31 38h1M43 38h1M45 38h1M57 38h1M62 38h1M43 39h1M46 39h1M62 39h1M47 40h1M58 40h1M62 40h1M42 41h1M52 41h1M59 41h1M62 41h1M42 42h1M52 42h1M60 42h2M42 43h1M50 43h1M52 43h1M42 44h1M50 44h1M53 45h1M53 46h1M53 47h1M53 48h1M53 49h1M45 50h2M54 51h1M48 52h1M54 52h1M21 53h1M39 53h1M41 53h1M48 53h1M54 53h1M21 54h1M39 54h1M41 54h1M55 54h1M74 54h1M22 55h1M38 55h1M42 55h1M55 55h1M74 55h1M22 56h1M38 56h1M43 56h2M55 56h1M74 56h1M22 57h1M55 57h1M74 57h1M22 58h1M54 58h1M73 58h1M23 59h1M44 59h1M54 59h1M72 59h1M24 60h1M46 60h1M54 60h1M72 60h1M26 61h1M35 61h2M47 61h1M55 61h1M71 61h1M27 62h2M34 62h1M47 62h1M56 62h2M71 62h1M29 63h5M47 63h1M58 63h1M65 63h1M69 63h2M59 64h1M64 64h1M66 64h3M42 65h1M48 65h1M60 65h4M42 66h1M48 66h1M42 67h1M47 68h1M47 69h1M54 69h1M48 70h1M53 70h1M48 71h1M44 72h1M49 72h1M44 73h1M49 73h1M45 74h1M49 74h1M45 75h1M49 75h1M45 76h1M50 76h1M46 77h1M50 77h1M51 78h3" />
<path stroke="#b47b4a" d="M45 19h1M51 19h1M43 20h3M51 20h3M42 21h3M52 21h3M41 22h4M52 22h4M41 23h3M53 23h3M40 24h3M54 24h3M39 25h3M54 25h4M38 26h3M55 26h4M38 27h2M55 27h4M56 28h3M57 29h3M57 30h3M58 31h2M59 32h2M60 33h1M50 47h1M49 48h2M48 49h3M47 50h4M43 51h2M48 51h2M42 52h4M49 52h1M42 53h4M42 54h3" />
<path stroke="#8b5a41" d="M46 19h1M52 19h1M46 20h1M45 21h3M51 21h1M46 22h2M51 22h1M40 23h1M44 23h1M46 23h2M51 23h2M56 23h1M39 24h1M43 24h2M46 24h3M51 24h3M42 25h2M46 25h3M50 25h1M52 25h2M41 26h3M46 26h3M50 26h1M52 26h3M37 27h1M40 27h3M47 27h2M50 27h1M52 27h3M37 28h6M47 28h2M50 28h1M52 28h4M59 28h1M36 29h6M47 29h2M50 29h2M53 29h4M35 30h7M48 30h1M50 30h2M53 30h4M35 31h6M47 31h4M54 31h4M60 31h1M34 32h6M46 32h5M54 32h5M34 33h6M46 33h5M55 33h5M33 34h6M45 34h6M55 34h6M33 35h5M45 35h6M56 35h5M32 36h4M45 36h6M56 36h6M32 37h3M45 37h6M57 37h5M32 38h2M46 38h6M58 38h4M47 39h5M58 39h4M49 40h3M59 40h3M51 41h1M60 41h2M51 42h1M51 43h1M51 44h1M51 45h2M50 46h3M51 47h2M51 48h2M51 49h2M51 50h2M45 51h2M50 51h3M46 52h2M50 52h3M46 53h2M49 53h3M45 54h3M49 54h2M52 54h2M41 55h1M43 55h4M48 55h2M51 55h4M41 56h1M46 56h3M50 56h5M41 57h1M43 57h6M50 57h5M41 58h2M44 58h4M49 58h5M42 59h2M45 59h3M49 59h5M42 60h3M48 60h6M43 61h4M48 61h6M43 62h4M48 62h6M44 63h3M48 63h6M44 64h3M48 64h5M44 65h4M49 65h4M45 66h3M49 66h3M49 67h2" />
<path stroke="#836a5a" d="M43 29h1M61 29h1M52 31h1M43 36h1M65 36h1M52 37h1M66 37h1M67 39h1M68 41h1M68 42h1M48 43h2M69 43h1M47 44h1M53 44h1M69 44h1M69 45h1M70 46h1M70 47h1M47 48h1M71 49h1M24 50h1M54 50h1M71 50h1M71 51h1M39 52h1M23 54h1M38 54h1M37 56h1M71 57h1M23 58h1M55 58h1M72 58h1M26 59h1M26 60h1M35 60h1M27 61h1M58 61h1M63 62h1M64 63h1M55 64h1M63 64h1M55 65h1M53 66h1M45 73h1M48 75h1" />
<path stroke="#eedea4" d="M64 35h1M63 36h2M63 37h3M63 38h3M30 39h1M64 39h3M29 40h3M64 40h3M29 41h3M65 41h3M28 42h4M65 42h3M28 43h3M66 43h3M27 44h4M48 44h2M66 44h3M27 45h3M66 45h3M26 46h4M67 46h3M26 47h3M68 47h2M25 48h4M68 48h2M25 49h3M69 49h2M26 50h1M70 50h1M54 65h1M54 66h1" />
<path stroke="#624a41" d="M30 37h1M30 38h1M29 39h1M28 40h1M28 41h1M27 42h1M27 43h1M26 44h1M26 45h1M25 46h1M25 47h1M24 48h1M24 49h1M23 50h1M22 51h1M21 52h1M58 62h1" />
</svg>