<svg xmlns="http://www.w3.org/2000/svg" viewBox="0 -0.5 96 96" shape-rendering="crispEdges">
<metadata>Made with Pixels to Svg https://codepen.io/shshaw/pen/XbxvNj</metadata>
<path stroke="#315a18" d="M46 23h5M44 24h2M51 24h2M43 25h1M53 25h1M53 26h1M42 27h1M54 27h1M54 28h1M54 29h1M54 30h1M54 31h1M53 32h1M38 33h4M53 33h1M36 34h2M42 34h2M51 34h2M56 34h2M35 35h1M44 35h1M50 35h1M58 35h2M35 36h1M45 36h1M60 36h1M45 37h1M50 37h2M60 37h1M61 38h1M61 39h1M61 40h1M61 41h1M50 42h2M57 45h1" />
<path stroke="#9cde7b" d="M46 24h2M45 25h4M45 26h4M46 27h2M38 34h2M37 35h4M54 35h2M37 36h4M53 36h4M38 37h2M53 37h4M54 38h2" />
<path stroke="#4ac541" d="M48 24h3M44 25h1M49 25h4M44 26h1M49 26h4M43 27h3M48 27h2M52 27h2M45 28h4M53 28h1M53 29h1M40 34h2M36 35h1M41 35h2M56 35h2M36 36h1M41 36h3M57 36h3M37 37h1M40 37h1M43 37h2M52 37h1M57 37h3M44 38h1M53 38h1M56 38h1M59 38h2M60 39h1M60 40h1M60 41h1" />
<path stroke="#000000" d="M43 26h1M42 28h1M42 29h1M42 30h1M42 31h1M43 32h1M43 33h1M44 34h2M53 34h3M46 35h4M52 35h1M46 36h1M48 36h1M51 36h1M34 37h1M46 37h1M34 38h1M45 38h2M49 38h2M34 39h1M46 39h1M50 39h1M34 40h1M50 40h1M35 41h1M44 41h2M50 41h1M35 42h1M44 42h1M46 42h1M60 42h1M36 43h2M42 43h2M46 43h1M51 43h1M60 43h1M38 44h4M46 44h1M52 44h2M58 44h2M45 45h1M54 45h3M44 47h1M44 48h1M43 49h1M43 50h1M42 52h1M42 53h1M42 54h1M43 55h1M61 55h1M45 56h1M61 56h1M39 57h1M47 57h5M60 57h1M39 58h1M59 58h1M39 59h2M58 59h1M60 59h1M40 60h2M56 60h2M60 60h1M41 61h2M54 61h2M41 62h1M45 62h7M60 62h1M42 63h1M60 63h1M43 64h1M44 65h1M46 66h1M53 66h1M58 66h1M42 67h1M47 67h5M54 67h1M57 67h1M42 68h1M47 68h1M55 68h1M57 68h1M60 68h1M43 69h4M55 69h1M61 69h1M54 70h1M61 70h1M54 71h1M60 71h1M55 72h4" />
<path stroke="#5a8b5a" d="M50 27h2M43 28h2M49 28h4M43 29h10M43 30h11M43 31h11M44 32h9M44 33h9M46 34h5M43 35h1M53 35h1M44 36h1M52 36h1M35 37h2M41 37h2M35 38h9M51 38h2M57 38h2M35 39h8M51 39h9M35 40h8M51 40h9M36 41h8M51 41h9M36 42h8M52 42h8M38 43h4M52 43h8M54 44h4" />
<path stroke="#836a41" d="M47 36h1M47 37h1M47 38h1M47 39h2M44 40h2M47 40h3M47 41h2M47 42h3M47 43h4M47 44h5M46 45h7M46 46h8M45 47h9M45 48h10M44 49h11M44 50h12M57 50h1M43 51h13M43 52h13M43 53h14M43 54h14M60 54h1M44 55h12M59 55h2M41 56h1M46 56h8M57 56h4M40 57h6M56 57h4M40 58h19M41 59h17M59 59h1M42 60h14M58 60h2M44 61h9M56 61h4M42 62h2M53 62h4M59 62h1M43 63h12M57 63h2M44 64h10M55 64h4M46 65h7M54 65h5M43 66h2M48 66h5M54 66h4M43 67h4M44 68h3M56 68h1M56 69h5M55 70h6M55 71h4" />
<path stroke="#524131" d="M48 37h1M48 38h1M43 39h3M49 39h1M43 40h1M46 40h1M46 41h1M49 41h1M53 45h1M45 46h1M54 46h1M55 47h1M56 48h1M57 49h1M58 50h1M42 51h1M58 51h2M58 52h1M60 52h1M58 53h1M61 53h1M41 54h1M57 54h1M61 54h1M40 55h1M42 55h1M56 55h1M39 56h2M43 56h2M54 56h2M46 57h1M52 57h2M60 58h1M43 61h1M53 61h1M60 61h1M44 62h1M52 62h1M57 62h2M55 63h2M59 63h1M54 64h1M59 64h1M43 65h1M45 65h1M53 65h1M59 65h1M42 66h1M45 66h1M47 66h1M52 67h2M55 67h2M43 68h1M58 68h2M59 71h1M59 72h1" />
<path stroke="#ac835a" d="M54 47h1M55 48h1M55 49h2M56 50h1M56 51h2M56 52h2M59 52h1M57 53h1M59 53h2M58 54h2M41 55h1M57 55h2M42 56h1M56 56h1M54 57h2" />
</svg>