<svg xmlns="http://www.w3.org/2000/svg" viewBox="0 -0.5 96 96" shape-rendering="crispEdges">
<metadata>Made with Pixels to Svg https://codepen.io/shshaw/pen/XbxvNj</metadata>
<path stroke="#205a73" d="M42 25h1M41 28h1M44 28h1M51 28h1M41 29h2M48 29h1M41 30h3M45 30h1M47 30h3M39 31h5M45 31h1M47 31h3M40 32h5M46 32h4M40 33h5M46 33h4M40 34h5M46 34h5M39 35h13M55 35h1M39 36h14M38 37h15M38 38h16M37 39h18M37 40h18M37 41h19M38 42h18M39 43h16M41 44h11M40 48h1M38 49h6M51 49h4M37 50h17M36 51h2M39 51h16M58 51h1M35 52h2M38 52h19M34 53h3M38 53h14M54 53h4M34 54h2M37 54h16M54 54h5M61 54h1M33 55h3M37 55h17M55 55h5M33 56h2M36 56h18M55 56h5M33 57h2M36 57h18M56 57h5M31 58h4M36 58h19M56 58h6M33 59h1M35 59h21M57 59h6M33 60h1M35 60h21M58 60h1M60 60h2M34 61h23M58 61h1M34 62h23M59 62h1M33 63h28M34 64h27M33 65h29M35 66h1M37 66h24M37 67h2M40 67h10M51 67h4M56 67h5M37 68h1M41 68h3M46 68h3M52 68h3M58 68h2M40 69h2M46 69h1M52 69h2" />
<path stroke="#104141" d="M43 25h1M49 25h2M41 26h1M44 26h1M48 26h1M51 26h1M41 27h1M40 28h1M45 28h1M47 28h1M52 28h1M40 29h1M40 30h1M53 31h1M39 32h1M45 32h1M39 33h1M39 34h1M53 34h1M56 36h1M37 37h1M57 37h1M37 38h1M57 38h1M36 39h1M58 39h1M36 40h1M58 40h1M36 41h1M37 42h1M57 42h1M38 43h1M55 43h2M39 44h2M52 44h3M42 45h9M38 48h2M53 48h2M37 49h1M55 49h2M36 50h1M57 50h2M35 51h1M38 51h1M59 51h1M34 52h1M37 52h1M60 52h1M33 53h1M52 53h2M61 53h1M33 54h1M36 54h1M32 55h1M32 56h1M31 57h2M54 57h1M30 58h1M32 59h1M32 60h1M57 60h1M59 60h1M62 60h1M64 60h1M59 61h2M64 61h1M32 62h2M57 62h1M62 62h1M62 63h1M63 64h1M63 65h1M36 66h1M61 66h1M63 66h1M36 67h1M39 67h1M55 67h1M40 68h1M44 68h2M50 68h2M57 68h1M47 69h2" />
<path stroke="#317b9c" d="M42 26h2M49 26h2M42 27h2M49 27h2M42 28h2M48 28h3M43 29h2M49 29h3M44 30h1M50 30h2M44 31h1M50 31h3M50 32h3M50 33h3M51 34h2M52 35h3M53 36h3M53 37h4M54 38h3M55 39h3M55 40h3M56 41h2M56 42h1M54 50h3M55 51h3M57 52h3M58 53h3M59 54h2M60 55h2M60 56h3M61 57h2M62 58h2M63 59h2M63 60h1M61 61h1M63 61h1M61 63h1M61 64h2M62 65h1" />
<path stroke="#000000" d="M44 27h1M48 27h1M51 27h1M45 29h1M47 29h1M52 29h1M46 30h1M52 30h1M46 31h1M53 32h1M45 33h1M53 33h1M45 34h1M54 34h1M38 35h1M38 36h1M58 41h1M58 42h1M58 43h1M57 44h1M57 45h1M38 46h1M56 46h1M39 47h2M54 47h2M41 48h3M51 48h2M44 49h7M37 53h1M53 54h1M62 54h1M36 55h1M54 55h1M62 55h1M35 56h1M54 56h1M63 56h1M35 57h1M55 57h1M63 57h1M35 58h1M55 58h1M64 58h1M30 59h2M34 59h1M56 59h1M65 59h1M34 60h1M56 60h1M65 60h1M33 61h1M57 61h1M62 61h1M58 62h1M60 62h2M63 62h1M32 63h1M33 64h1M32 65h1M33 66h2M62 66h1M35 67h1M50 67h1M61 67h1M36 68h1M38 68h2M49 68h1M55 68h2M60 68h2M36 69h2M39 69h1M42 69h2M45 69h1M51 69h1M54 69h1M58 69h2M39 70h3M45 70h2M52 70h2" />
<path stroke="#524a10" d="M36 42h1M36 43h1M37 44h1M37 45h1M35 68h1M38 69h1M56 69h2M49 70h3M54 70h2" />
<path stroke="#b4b462" d="M37 43h1M38 44h1M55 44h1M38 45h3M52 45h3M39 46h17M41 47h13M44 48h7M49 69h2M55 69h1" />
<path stroke="#eee683" d="M57 43h1M56 44h1M55 45h2" />
<path stroke="#948341" d="M41 45h1M51 45h1" />
</svg>