<svg xmlns="http://www.w3.org/2000/svg" viewBox="0 -0.5 96 96" shape-rendering="crispEdges">
<metadata>Made with Pixels to Svg https://codepen.io/shshaw/pen/XbxvNj</metadata>
<path stroke="#393941" d="M68 15h3M66 16h2M71 16h7M65 17h1M69 17h2M78 17h4M64 18h1M67 18h2M76 18h2M81 18h1M83 18h1M64 19h1M76 19h1M84 19h1M65 20h3M72 20h3M85 20h1M64 21h10M85 21h2M63 22h11M84 22h1M86 22h2M63 23h11M75 23h1M84 23h1M86 23h2M62 24h13M76 24h1M83 24h2M86 24h1M62 25h13M76 25h8M85 25h1M62 26h14M78 26h4M84 26h2M88 26h1M69 27h9M82 27h7M73 28h15M76 29h8M86 29h1M79 30h4M86 30h1M80 31h3M85 31h3M56 32h3M81 32h7M54 33h2M58 33h2M83 33h3M53 34h1M56 34h2M52 35h1M55 35h1M52 36h1M54 36h1M68 36h3M52 37h1M54 37h1M66 37h2M71 37h2M52 38h2M65 38h1M73 38h1M53 39h1M64 39h1M40 40h9M64 40h3M70 40h3M74 40h1M36 41h4M53 41h1M64 41h6M71 41h1M33 42h3M55 42h1M64 42h3M32 43h1M54 43h1M59 43h1M65 43h2M73 43h1M31 44h1M53 44h1M57 44h1M61 44h1M65 44h2M29 45h5M51 45h3M56 45h1M66 45h2M71 45h1M28 46h10M45 46h2M49 46h5M55 46h2M62 46h1M26 47h17M44 47h1M51 47h3M55 47h3M62 47h1M25 48h17M43 48h1M46 48h4M52 48h2M55 48h4M61 48h2M64 48h1M24 49h18M44 49h1M49 49h2M52 49h3M56 49h7M64 49h1M23 50h18M42 50h2M50 50h2M53 50h3M58 50h4M63 50h3M22 51h19M42 51h2M50 51h2M53 51h5M61 51h5M22 52h19M42 52h2M50 52h2M53 52h13M21 53h20M42 53h2M49 53h3M53 53h2M59 53h6M21 54h21M43 54h2M48 54h3M52 54h2M55 54h4M61 54h4M20 55h22M43 55h8M52 55h1M54 55h2M59 55h2M62 55h2M20 56h23M45 56h4M51 56h1M53 56h2M62 56h1M21 57h24M49 57h3M53 57h2M61 57h1M21 58h13M40 58h12M53 58h2M22 59h10M43 59h9M53 59h3M24 60h5M45 60h7M53 60h3M46 61h7M54 61h2M47 62h7M48 63h9M50 64h7M77 64h3M22 65h1M52 65h5M76 65h4M21 66h1M23 66h1M75 66h4M80 66h2M20 67h1M23 67h1M75 67h3M79 67h4M19 68h1M22 68h1M74 68h3M78 68h6M17 69h2M74 69h3M78 69h5M14 70h3M73 70h3M77 70h5M12 71h2M18 71h1M77 71h3M14 72h1" />
<path stroke="#5a5a62" d="M68 16h3M66 17h3M71 17h7M65 18h2M69 18h7M67 19h8M68 20h4M82 20h2M75 21h2M83 21h1M75 22h2M83 22h1M76 23h2M82 23h2M77 24h6M56 33h2M54 34h2M53 35h2M53 36h1M53 37h1M68 37h3M66 38h7M65 39h9M67 40h3M73 40h1M40 41h13M73 41h1M36 42h19M73 42h1M33 43h21M56 43h3M32 44h21M55 44h2M34 45h17M55 45h1M38 46h7M45 47h4M44 48h2M43 49h1M22 66h1M21 67h2M20 68h2M19 69h3M17 70h4M14 71h4" />
<path stroke="#7b7b8b" d="M78 18h3M77 19h1M81 19h2M76 20h1M82 53h1M81 54h1M82 59h1" />
<path stroke="#181818" d="M82 18h1M65 19h2M75 19h1M78 19h3M83 19h1M85 19h1M64 20h1M75 20h1M77 20h5M84 20h1M86 20h1M63 21h1M74 21h1M77 21h6M84 21h1M87 21h1M62 22h1M74 22h1M77 22h6M85 22h1M88 22h1M62 23h1M74 23h1M78 23h4M85 23h1M88 23h1M61 24h1M75 24h1M85 24h1M87 24h3M61 25h1M75 25h1M84 25h1M86 25h4M61 26h1M76 26h2M82 26h2M86 26h2M89 26h1M62 27h7M78 27h4M89 27h1M69 28h4M88 28h2M73 29h3M84 29h2M87 29h3M76 30h3M83 30h3M87 30h3M79 31h1M83 31h2M88 31h2M80 32h1M88 32h1M81 33h2M86 33h2M85 34h1M85 35h1M84 36h1M82 37h2M82 38h1M81 39h1M49 40h4M81 40h1M54 41h3M63 41h1M74 41h1M79 41h2M56 42h4M63 42h1M74 42h1M78 42h1M31 43h1M55 43h1M60 43h2M64 43h1M78 43h1M29 44h2M54 44h1M58 44h3M62 44h1M64 44h1M73 44h1M78 44h1M27 45h2M54 45h1M57 45h6M65 45h1M72 45h1M77 45h1M26 46h2M47 46h2M54 46h1M57 46h5M63 46h1M67 46h4M77 46h1M25 47h1M43 47h1M49 47h2M54 47h1M58 47h4M63 47h2M77 47h1M24 48h1M42 48h1M50 48h2M54 48h1M59 48h2M63 48h1M65 48h1M76 48h1M23 49h1M42 49h1M45 49h4M51 49h1M55 49h1M63 49h1M65 49h1M76 49h1M22 50h1M41 50h1M44 50h6M52 50h1M56 50h2M62 50h1M66 50h1M76 50h1M21 51h1M41 51h1M44 51h6M52 51h1M58 51h3M66 51h1M76 51h1M21 52h1M41 52h1M44 52h6M52 52h1M76 52h1M20 53h1M41 53h1M44 53h5M52 53h1M55 53h4M65 53h1M83 53h2M20 54h1M42 54h1M45 54h3M51 54h1M54 54h1M59 54h2M78 54h1M85 54h1M19 55h1M42 55h1M51 55h1M53 55h1M56 55h3M61 55h1M64 55h1M79 55h1M81 55h1M86 55h1M19 56h1M43 56h2M49 56h2M52 56h1M55 56h1M61 56h1M63 56h1M79 56h1M81 56h1M86 56h1M17 57h1M20 57h1M45 57h4M52 57h1M62 57h2M79 57h1M81 57h1M86 57h1M16 58h1M20 58h1M34 58h6M52 58h1M61 58h2M70 58h2M80 58h1M86 58h1M15 59h1M21 59h1M32 59h2M40 59h3M52 59h1M62 59h1M72 59h2M85 59h1M22 60h2M29 60h3M43 60h2M52 60h1M62 60h1M74 60h2M85 60h1M14 61h1M24 61h5M45 61h1M53 61h1M63 61h1M76 61h1M13 62h1M46 62h1M54 62h2M63 62h1M77 62h1M13 63h1M17 63h1M47 63h1M77 63h3M13 64h1M17 64h1M48 64h2M64 64h1M76 64h1M80 64h1M17 65h1M50 65h2M64 65h1M75 65h1M80 65h2M17 66h1M52 66h5M74 66h1M79 66h1M82 66h1M18 67h1M74 67h1M78 67h1M83 67h1M18 68h1M73 68h1M77 68h1M22 69h1M67 69h1M73 69h1M77 69h1M21 70h1M76 70h1M19 71h2M76 71h1M15 72h3M30 72h1M45 72h1M30 73h1M45 73h1M31 74h1M45 74h1M31 75h1M44 75h1" />
<path stroke="#625239" d="M61 27h1M61 28h1M61 29h1M60 30h1M60 31h1M59 32h1M83 34h1M83 35h1M82 36h1M81 38h1M74 39h1M80 39h1M79 40h1M78 41h1M63 43h1M74 43h1M66 46h1M71 46h1M67 51h1M67 52h1M68 53h1M76 53h1M77 54h1M69 55h1M77 55h1M18 56h1M56 56h1M60 56h1M69 56h1M78 56h1M18 57h1M55 57h1M69 57h2M78 57h1M18 58h1M55 58h1M57 58h1M79 58h1M80 59h2M14 60h2M18 60h1M67 60h1M82 60h3M18 61h1M56 61h1M59 61h1M66 61h1M86 61h1M17 62h1M56 62h1M66 62h1M86 62h1M44 63h1M63 63h1M65 63h1M85 63h1M23 64h1M45 64h1M65 64h1M83 64h2M13 65h1M23 65h1M46 65h1M82 65h1M46 66h1M64 66h1M47 67h1M65 67h1M23 68h1M29 68h1M44 68h1M47 68h1M57 68h1M65 68h1M29 69h1M44 69h1M57 69h1M66 69h1M68 69h1M29 70h1M45 70h1M57 70h1M66 70h1M71 70h2M23 71h2M29 71h1M45 71h1M47 71h1M57 71h1M67 71h1M25 72h2M46 72h1M57 72h1M68 72h2M28 73h2M54 73h3M30 74h1M46 74h6M45 75h1M32 76h2M43 76h2M34 77h2" />
<path stroke="#9c8339" d="M62 28h7M62 29h11M61 30h15M61 31h18M60 32h20M60 33h21M58 34h25M56 35h1M62 35h21M55 36h1M65 36h3M71 36h11M73 37h9M54 38h1M74 38h7M54 39h2M75 39h5M53 40h6M63 40h1M75 40h4M57 41h6M75 41h3M60 42h3M75 42h3M62 43h1M75 43h3M63 44h1M74 44h4M63 45h2M73 45h4M64 46h2M72 46h5M65 47h12M66 48h10M66 49h10M67 50h9M68 51h8M66 52h1M68 52h8M66 53h2M69 53h7M65 54h12M65 55h4M70 55h7M64 56h5M70 56h8M19 57h1M64 57h5M71 57h7M17 58h1M19 58h1M63 58h7M72 58h7M16 59h5M34 59h6M63 59h9M74 59h5M16 60h2M19 60h3M32 60h11M63 60h4M68 60h6M76 60h3M15 61h3M19 61h5M29 61h16M64 61h2M67 61h9M77 61h3M14 62h3M18 62h28M64 62h2M67 62h10M78 62h4M85 62h1M14 63h3M18 63h26M45 63h2M64 63h1M66 63h11M80 63h5M14 64h3M18 64h5M24 64h21M46 64h2M66 64h10M81 64h2M14 65h3M18 65h4M24 65h22M47 65h3M65 65h10M13 66h4M18 66h3M24 66h22M47 66h5M65 66h9M14 67h4M19 67h1M24 67h23M48 67h9M66 67h8M15 68h2M24 68h5M30 68h14M45 68h2M48 68h9M66 68h7M23 69h6M30 69h14M45 69h12M69 69h4M22 70h7M30 70h15M46 70h11M25 71h4M30 71h15M46 71h1M48 71h9M27 72h3M31 72h14M47 72h10M31 73h14M46 73h8M32 74h13M32 75h12M34 76h9M36 77h6" />
<path stroke="#bdbdcd" d="M84 34h1M84 35h1M83 36h1M80 40h1M82 54h1M78 55h1M82 56h1M82 57h2M81 58h3M85 58h1M83 59h2" />
<path stroke="#cdb439" d="M57 35h5M56 36h9M55 37h11M55 38h10M56 39h8M59 40h4M79 59h1M79 60h3M80 61h6M82 62h3" />
<path stroke="#e64120" d="M70 41h1M72 41h1M68 42h5M68 43h5M68 44h4M69 45h2" />
<path stroke="#6a204a" d="M67 42h1M67 43h1M67 44h1M72 44h1M68 45h1" />
<path stroke="#ffffff" d="M83 54h2M82 55h4M83 56h3M84 57h2M84 58h1" />
<path stroke="#b4a483" d="M57 56h3M56 57h5M56 58h1M58 58h3M56 59h6M56 60h6M57 61h2M60 61h3M57 62h6M12 63h1M57 63h6M11 64h2M57 64h7M8 65h5M57 65h3M63 65h1M8 66h5M57 66h2M60 66h1M7 67h2M10 67h1M12 67h2M57 67h1M84 67h2M3 68h5M9 68h1M11 68h1M13 68h2M17 68h1M59 68h1M84 68h3M2 69h5M8 69h1M10 69h1M83 69h2M86 69h1M89 69h2M9 70h1M67 70h4M82 70h1M90 70h3M21 71h2M68 71h8M80 71h3M18 72h7M73 72h10M86 72h1M17 73h11M57 73h1M75 73h5M81 73h1M11 74h1M18 74h12M52 74h5M78 74h1M22 75h2M26 75h5M46 75h8M68 75h1M75 75h1M28 76h4M45 76h4M61 76h1M70 76h1M29 77h5M42 77h6M53 77h1M65 77h1M76 77h1M35 78h11M50 78h1M52 78h1M54 78h1M34 79h1M49 79h1M51 79h1M53 79h1M55 79h1M50 80h1M52 80h1M54 80h1" />
<path stroke="#eed594" d="M60 65h3M59 66h1M61 66h3M9 67h1M11 67h1M58 67h7M8 68h1M10 68h1M12 68h1M58 68h1M60 68h5M87 68h2M7 69h1M9 69h1M11 69h6M58 69h8M85 69h1M87 69h2M6 70h3M10 70h4M58 70h8M83 70h7M7 71h5M58 71h9M83 71h10M6 72h8M58 72h10M70 72h3M83 72h3M87 72h4M6 73h11M58 73h17M80 73h1M82 73h3M12 74h6M57 74h21M79 74h7M10 75h12M24 75h2M54 75h14M69 75h6M76 75h12M15 76h13M49 76h12M62 76h8M71 76h13M18 77h11M48 77h5M54 77h11M66 77h10M26 78h9M46 78h4M51 78h1M53 78h1M55 78h24M27 79h7M35 79h14M50 79h1M52 79h1M54 79h1M56 79h4M67 79h8M32 80h18M51 80h1M53 80h1M39 81h10" />
</svg>