<svg xmlns="http://www.w3.org/2000/svg" viewBox="0 -0.5 96 96" shape-rendering="crispEdges">
<metadata>Made with Pixels to Svg https://codepen.io/shshaw/pen/XbxvNj</metadata>
<path stroke="#009c00" d="M43 22h10M40 23h3M53 23h3M39 24h1M56 24h2M38 25h1M58 25h1M38 26h1M59 26h1M38 27h1M59 27h1M38 28h1M59 28h1M39 29h1M59 29h1M40 30h2M57 30h2M42 31h3M54 31h3M44 32h1M53 32h1M45 33h1M53 33h1M45 34h1M53 34h1M45 35h1M53 35h1M45 36h1M53 36h1M46 37h1M53 37h1M46 38h1M54 38h1M46 39h1M54 39h1M46 40h1M54 40h1M46 41h1M55 41h1M32 42h3M46 42h1M55 42h1M30 43h2M35 43h1M46 43h1M55 43h1M28 44h2M36 44h1M46 44h1M56 44h4M27 45h1M36 45h1M45 45h1M60 45h1M26 46h1M36 46h1M39 46h7M61 46h1M25 47h1M36 47h3M61 47h1M24 48h1M61 48h1M66 48h3M23 49h1M61 49h1M64 49h2M69 49h2M23 50h1M61 50h3M71 50h1M22 51h1M72 51h1M22 52h1M72 52h1M22 53h1M73 53h1M23 54h1M73 54h1M23 55h1M73 55h1M23 56h1M73 56h1M24 57h1M73 57h1M24 58h1M73 58h1M24 59h1M73 59h1M25 60h1M73 60h1M25 61h1M73 61h1M25 62h1M73 62h1M26 63h1M73 63h1M26 64h1M72 64h1M26 65h1M72 65h1M27 66h1M71 66h1M27 67h1M59 67h2M71 67h1M27 68h1M57 68h2M61 68h2M69 68h2M28 69h1M56 69h1M63 69h6M29 70h1M54 70h2M30 71h5M52 71h2M35 72h6M50 72h2M41 73h9" />
<path stroke="#00cd00" d="M43 23h10M40 24h4M52 24h4M39 25h2M55 25h3M39 26h1M57 26h2M39 27h1M58 27h1M39 28h2M58 28h1M40 29h3M56 29h3M42 30h4M53 30h4M45 31h2M51 31h3M45 32h2M51 32h2M46 33h2M52 33h1M46 34h2M52 34h1M46 35h2M52 35h1M46 36h2M52 36h1M47 37h1M52 37h1M47 38h1M52 38h2M47 39h1M53 39h1M47 40h2M53 40h1M47 41h2M53 41h2M47 42h2M53 42h2M32 43h3M47 43h2M54 43h1M30 44h6M47 44h2M54 44h2M28 45h3M34 45h2M46 45h2M54 45h6M27 46h2M35 46h1M46 46h2M59 46h2M26 47h2M35 47h1M39 47h8M60 47h1M25 48h2M35 48h5M44 48h3M60 48h1M24 49h2M35 49h3M60 49h1M66 49h3M24 50h1M60 50h1M64 50h7M23 51h2M60 51h5M69 51h3M23 52h2M62 52h2M70 52h2M23 53h2M71 53h2M24 54h2M71 54h2M24 55h2M72 55h1M24 56h2M72 56h1M25 57h1M72 57h1M25 58h2M72 58h1M25 59h2M72 59h1M26 60h1M72 60h1M26 61h1M72 61h1M26 62h2M72 62h1M27 63h1M71 63h2M27 64h1M71 64h1M27 65h1M61 65h1M70 65h2M28 66h1M57 66h6M69 66h2M28 67h1M56 67h3M61 67h3M68 67h3M28 68h2M55 68h2M63 68h6M29 69h2M53 69h3M30 70h6M51 70h3M35 71h8M49 71h3M41 72h9" />
<path stroke="#7b3920" d="M44 24h2M41 25h2M40 26h1M56 26h1M57 27h1M56 28h2M53 29h3M50 31h1M50 32h1M48 33h1M51 33h1M51 34h1M51 35h1M51 36h1M51 37h1M51 38h1M48 39h1M52 39h1M52 40h1M52 41h1M52 42h1M53 43h1M53 44h1M31 45h3M53 45h1M29 46h2M34 46h1M56 46h3M28 47h1M33 47h1M30 49h1M45 49h1M59 49h1M25 50h1M29 50h1M36 50h1M44 50h1M47 50h1M59 50h1M46 51h1M26 54h1M58 55h1M58 56h1M66 57h1M27 58h1M69 61h1M28 62h1M60 62h1M69 62h1M58 63h3M68 63h1M58 64h3M56 65h1M36 69h1M43 70h1" />
<path stroke="#c54a18" d="M46 24h6M43 25h1M52 25h3M41 26h10M55 26h1M41 27h13M43 28h13M46 29h7M48 30h1M48 31h1M48 32h1M49 33h1M49 34h1M49 35h1M49 36h1M49 37h1M49 38h1M49 39h2M50 40h1M50 41h1M50 42h1M50 43h2M50 44h2M49 45h3M49 46h5M48 47h5M54 47h1M59 47h1M27 48h1M48 48h4M59 48h1M26 49h1M47 49h3M45 50h2M26 52h1M60 52h2M26 53h6M62 53h1M27 54h20M60 54h1M27 55h21M59 55h3M27 56h21M59 56h3M27 57h21M59 57h3M69 57h1M28 58h20M59 58h2M66 58h2M28 59h20M59 59h2M66 59h3M28 60h20M59 60h2M66 60h3M28 61h20M58 61h3M66 61h3M29 62h19M58 62h2M66 62h3M29 63h19M67 63h1M29 64h19M29 65h19M30 66h18M30 67h18M54 67h1M31 68h17M52 68h1M37 69h11M50 69h1M44 70h5" />
<path stroke="#ee7329" d="M44 25h3M51 26h1M54 27h1M56 27h1M49 30h1M49 31h1M49 32h1M50 33h1M50 34h1M50 35h1M50 36h1M50 37h1M50 38h1M51 39h1M51 40h1M51 41h1M51 42h1M52 43h1M52 44h1M52 45h1M32 47h1M31 48h1M58 49h1M56 50h3M35 51h1M54 51h5M27 52h1M52 52h7M32 53h1M50 53h9M60 53h2M47 54h12M61 54h2M48 55h10M48 56h10M67 56h2M48 57h10M67 57h2M48 58h10M68 58h2M48 59h10M69 59h1M48 60h10M69 60h1M48 61h9M48 62h9M48 63h9M48 64h9M48 65h8M48 66h8M48 67h6M48 68h4M48 69h2" />
<path stroke="#ffac83" d="M47 25h5M52 26h3M55 27h1M31 46h3M29 47h3M55 47h4M28 48h3M53 48h6M27 49h3M52 49h6M26 50h3M50 50h6M26 51h9M47 51h7M28 52h24M33 53h17" />
<path stroke="#101010" d="M40 27h1M41 28h2M43 29h3M46 30h2M50 30h3M47 31h1M47 32h1M48 34h1M48 35h1M48 36h1M48 37h1M48 38h1M49 40h1M49 41h1M49 42h1M49 43h1M49 44h1M48 45h1M48 46h1M54 46h2M34 47h1M47 47h1M53 47h1M32 48h1M34 48h1M40 48h4M47 48h1M52 48h1M31 49h1M34 49h1M38 49h2M44 49h1M46 49h1M50 49h2M30 50h6M37 50h2M42 50h2M48 50h2M25 51h1M36 51h10M59 51h1M65 51h4M25 52h1M59 52h1M64 52h1M69 52h1M25 53h1M59 53h1M63 53h1M70 53h1M59 54h1M64 54h4M70 54h1M26 55h1M63 55h6M71 55h1M26 56h1M62 56h5M69 56h1M71 56h1M26 57h1M58 57h1M62 57h4M71 57h1M58 58h1M61 58h5M70 58h2M27 59h1M58 59h1M61 59h5M70 59h2M27 60h1M58 60h1M61 60h5M70 60h2M27 61h1M57 61h1M61 61h5M70 61h2M57 62h1M61 62h5M70 62h2M28 63h1M57 63h1M61 63h6M69 63h2M28 64h1M57 64h1M61 64h10M28 65h1M57 65h4M62 65h8M29 66h1M56 66h1M63 66h6M29 67h1M55 67h1M64 67h4M30 68h1M53 68h2M31 69h5M51 69h2M36 70h7M49 70h2M43 71h6" />
<path stroke="#4a4a52" d="M33 48h1M32 49h2M40 49h4M39 50h3M65 52h4M64 53h6M63 54h1M68 54h2M62 55h1M69 55h2M70 56h1M70 57h1" />
</svg>