<svg xmlns="http://www.w3.org/2000/svg" viewBox="0 -0.5 96 96" shape-rendering="crispEdges">
<metadata>Made with Pixels to Svg https://codepen.io/shshaw/pen/XbxvNj</metadata>
<path stroke="#9c8bbd" d="M19 17h1M18 18h1M25 18h1M17 19h6M16 20h1M23 20h3M79 20h1M15 21h1M26 21h2M74 21h1M28 22h2M34 22h1M71 22h1M76 22h4M30 23h2M36 23h1M73 23h3M80 23h1M16 24h4M32 24h2M37 24h1M71 24h2M20 25h3M34 25h1M38 25h1M70 25h1M78 25h3M23 26h2M35 26h2M39 26h1M67 26h1M69 26h1M76 26h2M25 27h2M37 27h1M40 27h1M66 27h1M68 27h1M74 27h2M27 28h2M38 28h1M41 28h1M65 28h1M67 28h1M73 28h1M29 29h2M39 29h1M42 29h1M65 29h2M72 29h1M31 30h1M40 30h1M42 30h1M64 30h2M70 30h2M20 31h6M32 31h2M41 31h1M43 31h1M63 31h2M69 31h1M26 32h5M34 32h1M42 32h1M44 32h1M62 32h2M68 32h1M74 32h4M31 33h3M35 33h1M43 33h1M61 33h2M67 33h1M71 33h3M34 34h3M44 34h2M60 34h2M66 34h1M69 34h2M22 35h2M37 35h1M44 35h2M60 35h1M65 35h1M67 35h2M24 36h3M38 36h1M45 36h2M59 36h1M64 36h3M27 37h3M39 37h1M45 37h2M50 37h1M55 37h1M63 37h1M74 37h2M30 38h2M40 38h1M45 38h2M52 38h1M62 38h1M71 38h3M32 39h2M41 39h1M46 39h2M55 39h1M61 39h1M69 39h2M34 40h2M42 40h1M46 40h2M51 40h1M54 40h1M59 40h2M67 40h2M25 41h2M36 41h2M43 41h1M46 41h2M54 41h1M58 41h1M65 41h2M27 42h3M38 42h2M44 42h1M47 42h2M53 42h1M57 42h1M63 42h2M30 43h2M40 43h2M44 43h1M47 43h2M56 43h1M61 43h2M32 44h2M42 44h2M45 44h1M47 44h2M52 44h1M55 44h1M59 44h2M34 45h2M44 45h1M46 45h3M51 45h1M54 45h1M57 45h2M69 45h1M36 46h2M45 46h4M54 46h3M66 46h3M38 47h2M46 47h2M49 47h2M63 47h3M40 48h2M45 48h2M50 48h1M60 48h3M36 49h8M45 49h1M57 49h3M33 50h3M43 50h3M54 50h3M31 51h2M44 51h1M52 51h3M30 52h1M39 52h6M50 52h2M55 52h5M29 53h1M36 53h9M60 53h2M28 54h1M34 54h11M47 54h2M62 54h1M33 55h11M46 55h3M63 55h1M32 56h10M44 56h1M64 56h1M32 57h7M42 57h3M49 57h1M64 57h1M39 58h5M49 58h1M65 58h1M34 59h10M48 59h1M50 59h1M65 59h1M40 60h1M42 60h1M48 60h1M50 60h1M38 61h2M41 61h2M49 61h1M51 61h1M36 62h2M40 62h1M42 62h1M49 62h1M51 62h1M35 63h1M38 63h2M41 63h2M47 63h1M50 63h1M52 63h1M34 64h1M37 64h1M41 64h2M47 64h1M50 64h1M53 64h1M33 65h1M36 65h1M40 65h1M42 65h1M47 65h1M51 65h1M53 65h1M32 66h1M35 66h1M40 66h1M42 66h1M48 66h1M51 66h1M54 66h1M34 67h1M39 67h1M48 67h1M52 67h1M54 67h1M33 68h1M39 68h1M48 68h1M52 68h1M55 68h1M38 69h1M49 69h1M53 69h1M56 69h1M38 70h1M49 70h1M54 70h1M57 70h1M50 71h1M55 71h1M58 71h1M50 72h1M56 72h1M51 73h1M54 73h1" />
<path stroke="#624a73" d="M20 17h5M17 18h1M26 18h3M16 19h1M29 19h2M31 20h2M49 20h2M75 20h4M33 21h2M49 21h1M51 21h1M72 21h2M80 21h1M15 22h1M35 22h2M49 22h1M52 22h1M70 22h1M81 22h1M15 23h1M37 23h1M50 23h1M69 23h1M81 23h1M15 24h1M38 24h1M50 24h1M53 24h1M68 24h1M81 24h1M16 25h1M39 25h1M50 25h1M67 25h1M81 25h1M16 26h1M51 26h1M54 26h1M66 26h1M81 26h1M17 27h1M51 27h1M81 27h1M17 28h1M51 28h1M80 28h1M18 29h1M51 29h1M55 29h1M64 29h1M80 29h1M19 30h1M51 30h1M80 30h1M19 31h1M47 31h2M52 31h1M59 31h1M79 31h1M20 32h1M47 32h1M49 32h1M52 32h1M56 32h1M58 32h1M60 32h1M79 32h1M20 33h1M47 33h1M52 33h1M58 33h1M78 33h1M21 34h1M47 34h1M50 34h1M52 34h1M57 34h1M78 34h1M21 35h1M48 35h1M52 35h1M57 35h1M77 35h1M22 36h1M48 36h1M52 36h1M56 36h1M77 36h1M22 37h1M48 37h1M52 37h1M56 37h1M23 38h1M48 38h1M55 38h1M75 38h1M23 39h1M49 39h1M51 39h1M23 40h1M49 40h1M24 41h1M49 41h1M73 41h1M24 42h1M49 42h1M24 43h1M49 43h1M24 44h1M25 45h1M70 45h1M25 46h1M50 46h2M70 46h1M25 47h1M48 47h1M53 47h1M69 47h1M25 48h1M47 48h1M52 48h1M69 48h1M25 49h1M46 49h1M69 49h1M26 50h1M46 50h1M68 50h1M45 51h1M68 51h1M45 52h1M68 52h1M27 53h1M45 53h1M68 53h1M45 54h1M50 54h1M67 54h1M44 55h1M50 55h1M42 56h2M46 56h2M50 56h1M31 57h1M39 57h3M51 57h1M33 58h6M51 58h1M30 59h1M52 59h1M30 60h1M43 60h1M52 60h1M29 61h1M53 61h1M29 62h1M53 62h1M29 63h1M54 63h1M29 64h1M55 64h2M61 64h3M30 65h1M57 65h4M63 65h1M30 66h1M62 66h1M31 67h1M62 67h1M31 68h1M61 68h1M32 69h1M31 70h1M34 70h2M30 71h1M36 71h1M29 72h1M57 72h1M28 73h1M57 73h1M28 74h1M54 74h1M58 74h1M29 75h1M58 75h1M30 76h1M53 76h1M58 76h1M52 77h1M57 77h1M52 78h1M55 78h2M53 79h2" />
<path stroke="#f6deff" d="M19 18h6M26 19h3M17 20h2M16 21h2M50 21h1M75 21h5M16 22h2M50 22h2M72 22h4M80 22h1M16 23h2M51 23h1M70 23h3M76 23h4M51 24h1M69 24h2M73 24h8M17 25h2M51 25h2M69 25h1M71 25h7M17 26h2M52 26h1M70 26h6M78 26h3M18 27h1M52 27h1M69 27h5M76 27h5M18 28h1M52 28h2M68 28h5M74 28h6M19 29h1M52 29h2M68 29h4M73 29h7M52 30h2M67 30h3M72 30h8M53 31h1M67 31h2M70 31h9M53 32h2M66 32h2M69 32h5M78 32h1M53 33h2M66 33h1M68 33h3M74 33h4M53 34h2M65 34h1M67 34h2M71 34h7M53 35h2M64 35h1M66 35h1M69 35h8M53 36h2M67 36h10M53 37h2M64 37h10M53 38h1M63 38h8M74 38h1M52 39h2M63 39h6M71 39h4M52 40h1M63 40h4M69 40h5M51 41h2M62 41h3M67 41h6M51 42h1M62 42h1M65 42h8M63 43h9M61 44h10M60 45h9M60 46h6M69 46h1M59 47h4M66 47h3M58 48h2M63 48h6M47 49h2M60 49h9M47 50h2M58 50h10M46 51h3M57 51h11M46 52h2M60 52h8M57 53h3M62 53h6M57 54h5M63 54h4M58 55h5M64 55h3M58 56h6M65 56h2M58 57h6M65 57h1M58 58h7M58 59h7M58 60h7M57 61h8M57 62h7M56 63h7M57 64h4M55 65h2M61 65h2M55 66h7M55 67h7M54 68h1M56 68h5M54 69h2M57 69h4M52 70h2M55 70h2M58 70h2M52 71h3M56 71h2M51 72h5M52 73h2M55 73h2M55 74h3M54 75h4M54 76h4M53 77h4M53 78h2" />
<path stroke="#eec5ff" d="M23 19h3M19 20h2M28 20h3M18 21h3M31 21h2M18 22h2M18 23h2M19 25h1M68 25h1M19 26h2M68 26h1M19 27h2M67 27h1M19 28h2M66 28h1M20 29h2M67 29h1M20 30h2M66 30h1M65 31h2M21 32h2M64 32h2M21 33h3M63 33h3M22 34h2M62 34h3M24 35h1M61 35h3M23 36h1M60 36h4M23 37h3M59 37h4M24 38h2M58 38h4M24 39h2M57 39h4M62 39h1M24 40h2M56 40h3M61 40h2M57 41h1M59 41h3M25 42h2M58 42h4M25 43h2M57 43h4M25 44h2M57 44h2M26 45h1M59 45h1M26 46h1M57 46h3M26 47h1M56 47h3M26 48h2M55 48h3M26 49h2M54 49h3M27 50h1M57 50h1M27 51h1M55 51h2M27 52h1M53 52h2M54 53h3M54 54h3M55 55h3M55 56h3M55 57h3M55 58h3M54 59h4M54 60h4M54 61h3M54 62h3M53 63h1M55 63h1M52 64h1M54 64h1M52 65h1M54 65h1M50 66h1M52 66h2M50 67h2M53 67h1M50 68h2M53 68h1M50 69h3M50 70h2M49 71h1M51 71h1M49 72h1M50 73h1" />
<path stroke="#d5acde" d="M21 20h2M26 20h2M21 21h5M28 21h3M20 22h8M30 22h4M20 23h10M32 23h4M20 24h12M34 24h3M52 24h1M23 25h11M35 25h3M21 26h2M25 26h10M37 26h2M53 26h1M21 27h4M27 27h10M38 27h2M53 27h1M21 28h6M29 28h9M39 28h2M22 29h7M31 29h8M40 29h2M54 29h1M22 30h9M32 30h8M41 30h1M54 30h1M26 31h6M34 31h7M42 31h1M54 31h1M23 32h3M31 32h3M35 32h7M43 32h1M48 32h1M55 32h1M59 32h1M24 33h7M34 33h1M36 33h7M44 33h1M48 33h1M55 33h1M59 33h1M24 34h10M37 34h7M48 34h2M55 34h1M58 34h1M25 35h12M38 35h6M49 35h1M55 35h1M58 35h1M27 36h11M39 36h6M49 36h1M55 36h1M57 36h1M26 37h1M30 37h9M40 37h5M49 37h1M57 37h1M26 38h4M32 38h8M41 38h4M49 38h2M54 38h1M56 38h1M26 39h6M34 39h7M42 39h4M50 39h1M54 39h1M26 40h8M36 40h6M43 40h3M50 40h1M53 40h1M27 41h9M38 41h5M44 41h2M50 41h1M53 41h1M56 41h1M30 42h8M40 42h4M45 42h2M50 42h1M52 42h1M55 42h2M27 43h3M32 43h8M42 43h2M45 43h2M50 43h3M54 43h2M27 44h5M34 44h8M44 44h1M46 44h1M50 44h2M54 44h1M56 44h1M27 45h7M36 45h8M45 45h1M50 45h1M53 45h1M55 45h2M27 46h9M38 46h7M53 46h1M27 47h11M40 47h6M52 47h1M54 47h2M28 48h12M42 48h3M48 48h2M53 48h2M28 49h8M44 49h1M49 49h1M51 49h3M28 50h5M36 50h7M49 50h1M51 50h3M28 51h3M33 51h11M49 51h1M51 51h1M28 52h2M31 52h8M48 52h1M52 52h1M28 53h1M30 53h6M46 53h3M50 53h4M29 54h5M46 54h1M51 54h3M29 55h4M51 55h4M30 56h2M49 56h1M51 56h4M50 57h1M52 57h3M48 58h1M50 58h1M52 58h3M31 59h3M49 59h1M51 59h1M53 59h1M31 60h9M41 60h1M49 60h1M51 60h1M53 60h1M30 61h8M40 61h1M47 61h2M50 61h1M52 61h1M30 62h6M38 62h2M41 62h1M47 62h2M50 62h1M52 62h1M30 63h5M36 63h2M40 63h1M48 63h2M51 63h1M30 64h4M35 64h2M38 64h3M48 64h2M51 64h1M31 65h2M34 65h2M37 65h3M41 65h1M48 65h3M31 66h1M33 66h2M36 66h4M41 66h1M47 66h1M49 66h1M32 67h2M35 67h4M40 67h3M47 67h1M49 67h1M32 68h1M34 68h5M40 68h3M47 68h1M49 68h1M33 69h5M39 69h4M47 69h2M32 70h2M36 70h2M39 70h2M47 70h2M31 71h3M48 71h1M30 72h3M48 72h1M29 73h4M29 74h3M30 75h2" />
<path stroke="#101010" d="M52 23h1M53 25h1M40 26h1M41 27h1M54 27h1M65 27h1M42 28h1M54 28h1M64 28h1M43 29h1M43 30h1M55 30h1M63 30h1M44 31h1M55 31h1M62 31h1M45 32h1M61 32h1M45 33h1M49 33h1M56 33h1M60 33h1M46 34h1M56 34h1M59 34h1M46 35h1M50 35h1M56 35h1M59 35h1M47 36h1M50 36h1M58 36h1M47 37h1M51 37h1M58 37h1M76 37h1M47 38h1M51 38h1M57 38h1M48 39h1M56 39h1M75 39h1M48 40h1M55 40h1M74 40h1M48 41h1M55 41h1M54 42h1M73 42h1M53 43h1M72 43h1M49 44h1M53 44h1M71 44h1M49 45h1M52 45h1M49 46h1M52 46h1M51 47h1M51 48h1M50 49h1M50 50h1M26 51h1M50 51h1M26 52h1M49 52h1M49 53h1M27 54h1M49 54h1M28 55h1M45 55h1M49 55h1M67 55h1M29 56h1M45 56h1M48 56h1M67 56h1M30 57h1M45 57h1M48 57h1M66 57h1M31 58h2M47 58h1M66 58h1M47 59h1M66 59h1M47 60h1M65 60h1M46 61h1M65 61h1M46 62h1M64 62h1M46 63h1M63 63h1M46 64h1M46 65h1M43 66h1M46 66h1M43 67h1M46 67h1M43 68h1M46 68h1M43 69h1M46 69h1M61 69h1M41 70h2M44 70h1M46 70h1M60 70h1M34 71h1M37 71h4M44 71h1M47 71h1M59 71h1M33 72h1M45 72h1M47 72h1M58 72h1M33 73h1M46 73h1M48 73h2M32 74h1M50 74h4M32 75h1M53 75h1M31 76h1" />
<path stroke="#a4837b" d="M46 57h2M45 58h1M45 66h1M44 67h2M44 68h1M45 69h1M45 70h1M45 71h2M46 72h1" />
<path stroke="#625239" d="M44 58h1M44 59h1M45 60h1M43 61h2M43 62h1M43 63h1M43 64h1M45 64h1M43 65h2M45 68h1M44 69h1M47 73h1" />
<path stroke="#c5ac8b" d="M46 58h1M45 59h2M44 60h1M46 60h1M45 61h1M44 62h2M44 63h2M44 64h1M45 65h1M44 66h1" />
</svg>