<svg xmlns="http://www.w3.org/2000/svg" viewBox="0 -0.5 96 96" shape-rendering="crispEdges">
<metadata>Made with Pixels to Svg https://codepen.io/shshaw/pen/XbxvNj</metadata>
<path stroke="#8b3110" d="M60 22h2M59 23h1M61 23h1M58 24h1M60 24h1M57 25h1M29 26h3M56 26h1M59 26h1M32 27h2M55 27h1M34 28h1M54 28h1M58 28h1M30 29h2M35 29h2M54 29h1M58 29h1M37 30h1M53 30h1M57 30h1M38 31h1M52 31h1M39 32h1M51 32h1M40 33h1M50 33h1M41 34h2M49 34h1M43 35h1M48 35h1M35 36h2M44 36h1M48 36h1M45 37h1M47 37h1M46 38h1M38 40h2M52 41h1M41 43h1M51 43h1M41 44h1M51 44h1M42 45h1M50 45h1M43 46h1M50 46h1M44 47h1M49 47h1M49 48h1M60 61h1M33 62h1M34 63h1M42 72h1M56 72h1M55 73h1M57 73h1" />
<path stroke="#ff6a18" d="M60 23h1M59 24h1M58 25h2M57 26h2M30 27h2M56 27h3M31 28h3M55 28h3M32 29h3M55 29h3M32 30h5M54 30h3M33 31h5M53 31h4M34 32h5M52 32h5M35 33h5M51 33h5M35 34h6M50 34h6M36 35h7M49 35h6M37 36h7M49 36h6M37 37h8M48 37h6M38 38h8M47 38h7M39 39h6M47 39h6M40 40h5M46 40h7M40 41h12M41 42h11M42 43h9M42 44h9M43 45h3M47 45h3M44 46h1M48 46h2M48 47h1M34 62h1M62 63h1M56 73h1" />
<path stroke="#836a39" d="M61 24h1M61 25h1M61 26h1M61 27h1M61 28h1M61 29h1M60 30h1M46 49h1M46 57h1M51 58h1M49 59h1M46 61h1M45 66h1M41 71h1" />
<path stroke="#c59c5a" d="M60 25h1M59 27h1M60 29h1M57 35h1M57 36h2M57 37h2M57 38h1M56 39h2M56 40h2M56 41h2M55 42h2M56 43h1M40 45h1M46 48h1M44 50h1M48 50h1M39 51h1M40 53h1M46 53h1M45 56h1M51 56h1M47 57h2M37 58h1M46 58h5M44 59h5M52 59h1M44 60h1M35 61h1M41 61h1M49 61h1M48 62h1M54 63h1M60 64h1M39 65h1M59 65h1M37 66h1M47 66h1M53 66h1M45 67h1M43 69h2M48 69h1M53 69h1M40 70h8M54 70h2M42 71h3M49 71h6M51 72h3" />
<path stroke="#ffe6ac" d="M60 26h1M60 27h1M59 28h2M59 29h1M58 30h2M58 31h2M58 32h2M57 33h3M57 34h2M58 35h1M52 43h2M52 44h4M41 45h1M51 45h6M40 46h3M46 46h1M51 46h6M39 47h5M46 47h1M50 47h8M39 48h4M47 48h1M50 48h8M39 49h3M43 49h3M47 49h1M49 49h9M39 50h4M45 50h3M49 50h9M40 51h4M46 51h12M40 52h3M44 52h13M41 53h3M47 53h10M41 54h15M43 55h11M46 56h5M38 58h1M37 59h3M50 59h2M55 59h2M35 60h2M38 60h3M42 60h2M46 60h3M51 60h2M54 60h3M36 61h2M39 61h2M43 61h1M47 61h1M50 61h1M53 61h3M57 61h2M37 62h5M46 62h1M49 62h1M52 62h3M56 62h3M60 62h1M36 63h1M38 63h5M45 63h4M50 63h4M55 63h3M59 63h2M36 64h2M39 64h5M45 64h3M49 64h8M59 64h1M37 65h2M40 65h4M45 65h2M48 65h7M57 65h1M38 66h3M43 66h2M46 66h1M48 66h1M51 66h2M55 66h3M38 67h3M42 67h1M44 67h1M46 67h2M49 67h2M52 67h5M40 68h3M44 68h3M48 68h2M51 68h5M45 69h2M49 69h4" />
<path stroke="#000000" d="M29 27h1M30 28h1M31 30h1M32 31h1M57 31h1M33 32h1M57 32h1M34 33h1M56 33h1M34 34h1M56 34h1M35 35h1M55 35h1M55 36h1M59 36h1M36 37h1M54 37h1M59 37h1M37 38h1M54 38h1M38 39h1M53 39h1M58 39h1M53 40h1M58 40h1M39 41h1M53 41h1M58 41h1M40 42h1M52 42h2M54 43h2M40 44h1M56 44h1M39 45h1M39 46h1M47 46h1M38 47h1M38 48h1M44 48h2M48 48h1M38 49h1M38 50h1M43 50h1M38 51h1M44 51h1M39 52h1M39 53h1M44 53h2M40 54h1M41 55h2M54 55h1M43 56h2M52 56h2M37 57h1M51 57h1M36 58h1M44 58h2M52 58h1M55 58h1M35 59h2M40 59h1M54 59h1M57 59h1M34 60h1M41 60h1M50 60h1M53 60h1M57 60h1M61 60h2M34 61h1M42 61h1M45 61h1M52 61h1M56 61h1M59 61h1M62 61h1M42 62h1M45 62h1M50 62h2M59 62h1M61 62h2M35 63h1M43 63h1M49 63h1M58 63h1M63 63h1M35 64h1M44 64h1M61 64h2M36 65h1M58 65h1M60 65h1M36 66h1M42 66h1M49 66h2M58 66h1M37 67h1M41 67h1M43 67h1M51 67h1M57 67h1M38 68h1M43 68h1M47 68h1M56 68h1M39 69h2M42 69h1M47 69h1M54 69h2M39 70h1M50 70h4M40 71h1M46 71h3M39 72h1M43 72h2M49 72h2M39 73h4M51 73h3M54 74h4" />
<path stroke="#6a4a10" d="M60 31h1M60 32h1M60 33h1M59 34h1M59 35h1M56 38h1M58 38h1M55 41h1M57 42h1M40 43h1M57 43h1M46 45h1M57 45h1M45 46h1M57 46h1M45 47h1M47 47h1M58 47h1M43 48h1M58 48h1M42 49h1M48 49h1M58 49h1M58 50h1M45 51h1M58 51h1M43 52h1M57 52h1M57 53h1M56 54h1M55 55h1M38 57h1M45 57h1M49 57h2M39 58h1M56 58h1M42 59h2M53 59h1M37 60h1M45 60h1M49 60h1M58 60h1M38 61h1M44 61h1M48 61h1M51 61h1M35 62h2M43 62h1M47 62h1M55 62h1M37 63h1M44 63h1M38 64h1M48 64h1M57 64h2M44 65h1M47 65h1M55 65h2M41 66h1M54 66h1M59 66h1M48 67h1M39 68h1M50 68h1M41 69h1M56 69h1M48 70h2M56 70h1M45 71h1M55 71h1M54 72h1" />
<path stroke="#393939" d="M56 35h1M56 36h1M55 37h2M55 38h1M54 39h2M54 40h2M54 41h1M54 42h1" />
<path stroke="#bd4a00" d="M45 39h2M45 40h1M61 61h1M61 63h1M40 72h2M55 72h1M54 73h1" />
</svg>