<svg xmlns="http://www.w3.org/2000/svg" viewBox="0 -0.5 96 96" shape-rendering="crispEdges">
<metadata>Made with Pixels to Svg https://codepen.io/shshaw/pen/XbxvNj</metadata>
<path stroke="#186273" d="M46 16h4M50 17h1M60 18h2M62 19h2M64 20h1M32 24h4M30 25h2M70 34h2M68 35h1M72 35h1M73 36h1M54 37h1M73 37h1M68 38h1M72 39h1M21 42h2M20 43h1M19 44h1M77 51h1M78 52h1M79 53h1M80 54h1M80 55h1M79 56h1M63 66h1M64 67h1M62 71h1" />
<path stroke="#000000" d="M44 17h2M43 18h1M42 19h1M55 19h2M53 20h2M41 21h1M45 21h8M65 21h1M42 22h3M53 22h3M65 22h1M40 23h2M56 23h2M66 23h1M38 24h2M58 24h2M66 24h1M36 25h2M60 25h1M66 25h1M29 26h1M38 26h1M61 26h2M66 26h1M28 27h1M39 27h1M63 27h1M66 27h1M28 28h1M39 28h1M48 28h3M64 28h2M27 29h1M39 29h1M51 29h2M27 30h1M38 30h1M53 30h1M27 31h1M38 31h1M43 31h1M54 31h1M27 32h1M37 32h1M43 32h1M54 32h1M27 33h1M36 33h1M42 33h1M55 33h1M28 34h1M34 34h2M42 34h1M55 34h1M27 35h1M30 35h4M42 35h1M55 35h1M26 36h1M43 36h1M55 36h1M63 36h1M25 37h1M43 37h1M55 37h1M63 37h1M24 38h2M44 38h1M54 38h1M63 38h1M73 38h1M24 39h1M45 39h2M52 39h2M63 39h1M73 39h1M23 40h1M47 40h5M64 40h1M73 40h1M64 41h1M26 42h1M65 42h1M27 43h1M66 43h2M72 43h1M28 44h1M68 44h4M28 45h1M59 45h1M18 46h1M29 46h1M60 46h1M18 47h1M29 47h1M47 47h1M61 47h2M18 48h1M29 48h1M48 48h1M63 48h1M18 49h1M29 49h1M48 49h1M64 49h1M28 50h1M49 50h1M66 50h1M19 51h1M28 51h1M35 51h1M49 51h1M66 51h1M19 52h2M27 52h1M35 52h1M49 52h1M67 52h1M19 53h1M21 53h1M25 53h2M35 53h1M49 53h1M67 53h1M19 54h1M23 54h2M36 54h1M48 54h1M67 54h1M19 55h1M36 55h1M48 55h1M19 56h1M37 56h1M47 56h1M63 56h1M80 56h1M20 57h1M38 57h2M45 57h2M63 57h1M80 57h1M84 57h1M20 58h1M40 58h5M63 58h1M68 58h1M80 58h1M85 58h1M20 59h1M68 59h1M74 59h1M79 59h1M85 59h1M21 60h1M62 60h1M69 60h1M76 60h3M82 60h2M21 61h1M62 61h1M69 61h1M84 61h1M22 62h1M61 62h1M70 62h1M80 62h1M85 62h1M61 63h1M71 63h2M81 63h1M85 63h1M20 64h1M24 64h1M73 64h4M79 64h1M82 64h3M20 65h1M25 65h1M62 65h1M77 65h1M80 65h1M20 66h1M27 66h2M76 66h1M80 66h1M21 67h1M29 67h2M76 67h1M79 67h1M21 68h1M28 68h1M31 68h3M64 68h1M77 68h2M22 69h1M27 69h1M34 69h3M47 69h3M64 69h1M22 70h1M27 70h2M37 70h10M50 70h3M63 70h1M20 71h2M23 71h1M31 71h1M53 71h1M19 72h1M31 72h1M54 72h1M61 72h1M18 73h1M31 73h1M54 73h1M60 73h1M18 74h1M23 74h2M30 74h1M53 74h1M60 74h1M19 75h3M24 75h1M29 75h1M51 75h3M59 75h1M25 76h1M29 76h1M50 76h1M65 76h1M26 77h3M50 77h1M56 77h4M65 77h1M50 78h1M54 78h1M61 78h4M51 79h3" />
<path stroke="#73e6cd" d="M46 17h4M60 19h2M61 20h3M32 25h3M30 26h6M29 27h6M29 28h3M47 29h3M45 30h6M45 31h6M46 32h4M69 35h3M68 36h4M68 37h5M69 38h4M70 39h2M23 42h1M21 43h5M20 44h7M20 45h6M21 46h3M40 46h3M39 47h5M38 48h6M38 49h6M39 50h4M77 52h1M76 53h3M77 54h2M63 67h1M63 68h1" />
<path stroke="#292929" d="M51 17h1M52 18h1M53 19h1M62 21h1M63 22h2M26 33h1M25 34h1M25 35h1M24 36h1M24 37h1M67 38h1M68 39h2M70 40h3M73 41h1M72 42h1M19 45h1M19 50h1M77 56h1M72 57h1M78 57h2M73 58h1M75 59h1" />
<path stroke="#626262" d="M44 18h2M43 19h5M57 19h2M43 20h4M55 20h5M42 21h2M54 21h7M56 22h6M58 23h2M65 34h5M64 35h4M65 36h2M73 52h2M72 53h3M72 54h3M72 55h4M73 56h2" />
<path stroke="#414141" d="M46 18h6M57 18h3M48 19h5M59 19h1M42 20h1M47 20h6M60 20h1M44 21h1M53 21h1M61 21h1M41 22h1M62 22h1M60 23h6M60 24h6M61 25h5M63 26h3M64 27h2M65 33h5M26 34h2M64 34h1M26 35h1M63 35h1M25 36h1M64 36h1M67 36h1M64 37h4M64 38h3M64 39h4M65 40h5M65 41h8M66 42h6M68 43h4M73 51h4M72 52h1M75 52h1M71 53h1M75 53h1M71 54h1M75 54h1M76 55h1M72 56h1M75 56h2M73 57h5M74 58h6M76 59h3" />
<path stroke="#52a48b" d="M63 21h2M35 25h1M36 26h2M35 27h4M32 28h7M28 29h11M50 29h1M28 30h10M51 30h2M28 31h10M44 31h1M51 31h3M28 32h9M44 32h2M50 32h4M28 33h8M43 33h12M29 34h5M43 34h12M43 35h12M44 36h11M72 36h1M44 37h10M45 38h9M47 39h5M24 42h1M26 43h1M27 44h1M26 45h2M19 46h2M24 46h5M43 46h2M19 47h10M38 47h1M44 47h3M19 48h10M37 48h1M44 48h4M19 49h10M37 49h1M44 49h4M20 50h8M36 50h3M43 50h6M20 51h8M36 51h13M21 52h6M36 52h13M76 52h1M23 53h2M36 53h13M37 54h11M76 54h1M79 54h1M37 55h11M77 55h3M38 56h9M78 56h1M40 57h5M63 69h1M62 70h1" />
<path stroke="#296aac" d="M45 22h8M42 23h14M40 24h14M38 25h18M39 26h18M40 27h18M62 27h1M40 28h7M51 28h7M40 29h5M53 29h6M39 30h5M54 30h6M39 31h4M55 31h6M38 32h5M55 32h8M66 32h1M37 33h5M56 33h9M36 34h6M56 34h8M28 35h1M34 35h8M56 35h7M27 36h16M56 36h7M26 37h17M56 37h7M26 38h18M55 38h8M25 39h20M54 39h9M24 40h23M52 40h12M25 41h39M27 42h30M58 42h7M28 43h30M59 43h7M29 44h29M59 44h9M29 45h11M45 45h14M60 45h11M30 46h8M47 46h12M62 46h9M30 47h7M48 47h11M63 47h7M30 48h6M49 48h10M64 48h6M30 49h6M49 49h10M66 49h3M29 50h6M50 50h9M62 50h1M67 50h3M29 51h6M50 51h10M63 51h1M67 51h4M28 52h7M50 52h10M63 52h1M68 52h2M20 53h1M27 53h8M50 53h10M68 53h1M20 54h3M25 54h11M49 54h11M68 54h1M20 55h16M49 55h12M68 55h1M20 56h17M48 56h13M69 56h1M21 57h17M47 57h14M69 57h3M21 58h19M45 58h17M69 58h4M21 59h41M69 59h5M22 60h40M70 60h6M23 61h39M70 61h10M21 62h1M23 62h38M71 62h9M84 62h1M21 63h2M24 63h37M73 63h3M77 63h2M82 63h3M21 64h3M25 64h36M77 64h2M21 65h4M27 65h35M78 65h2M21 66h6M29 66h33M77 66h3M22 67h7M31 67h31M77 67h2M22 68h6M34 68h17M54 68h8M23 69h4M38 69h8M51 69h11M23 70h4M53 70h8M24 71h3M28 71h3M54 71h7M20 72h3M24 72h7M55 72h6M19 73h8M29 73h2M55 73h5M20 74h2M25 74h4M54 74h5M26 75h3M55 75h4M62 75h3M26 76h2M52 76h13M51 77h4M61 77h3M51 78h3" />
<path stroke="#0894d5" d="M54 24h4M56 25h4M57 26h4M58 27h4M58 28h6M59 29h6M60 30h6M61 31h5M63 32h3M59 46h1M59 47h2M59 48h3M59 49h3M59 50h3M60 51h3M60 52h3M70 52h2M60 53h3M69 53h2M60 54h3M69 54h2M61 55h2M69 55h2M61 56h2M70 56h2M61 57h2M82 57h2M62 58h1M81 58h4M80 59h1M83 59h2M79 60h3M81 61h3M82 62h2" />
<path stroke="#10417b" d="M47 28h1M45 29h2M65 29h1M44 30h1M66 30h1M66 31h1M67 32h1M29 35h1M23 41h2M25 42h1M57 42h1M58 43h1M58 44h1M40 45h5M71 45h1M38 46h2M45 46h2M61 46h1M71 46h1M37 47h1M70 47h1M36 48h1M62 48h1M70 48h1M36 49h1M62 49h1M65 49h1M69 49h1M35 50h1M70 50h1M71 51h1M22 53h1M63 53h1M63 54h1M63 55h1M67 55h1M71 55h1M68 56h1M82 56h2M68 57h1M81 57h1M62 59h1M81 59h2M84 60h1M22 61h1M80 61h1M20 62h1M81 62h1M20 63h1M23 63h1M76 63h1M79 63h1M61 64h1M26 65h1M62 66h1M62 67h1M51 68h3M62 68h1M37 69h1M46 69h1M50 69h1M62 69h1M29 70h2M61 70h1M22 71h1M27 71h1M61 71h1M23 72h1M27 73h2M19 74h1M22 74h1M29 74h1M59 74h1M62 74h3M25 75h1M54 75h1M60 75h2M65 75h1M28 76h1M51 76h1M55 77h1M60 77h1M64 77h1" />
</svg>