<svg xmlns="http://www.w3.org/2000/svg" viewBox="0 -0.5 96 96" shape-rendering="crispEdges">
<metadata>Made with Pixels to Svg https://codepen.io/shshaw/pen/XbxvNj</metadata>
<path stroke="#000000" d="M43 25h1M42 26h1M52 26h1M42 27h1M52 27h1M41 28h1M51 28h1M41 29h1M51 29h1M41 30h1M51 30h1M41 31h1M50 31h1M41 32h1M50 32h1M42 33h1M50 33h1M42 34h1M49 34h1M43 35h1M49 35h1M42 36h4M53 36h1M40 37h2M51 37h2M38 38h2M37 39h1M36 40h1M54 40h1M35 41h1M54 41h1M34 42h1M54 42h1M34 43h1M55 43h1M33 44h1M55 44h1M33 45h1M55 45h2M32 46h1M56 46h1M32 47h1M57 47h1M32 48h1M57 48h1M60 48h1M31 49h1M58 49h1M60 49h1M31 50h1M59 50h1M31 51h1M31 52h1M31 53h1M32 54h1M32 55h1M32 56h1M59 56h1M33 57h1M59 57h1M59 58h1M25 59h1M58 59h1M25 60h1M30 60h1M58 60h1M30 61h1M35 61h1M57 61h1M31 62h1M34 62h1M57 62h1M20 63h1M30 63h1M34 63h1M56 63h1M21 64h4M27 64h3M33 64h1M55 64h1M60 64h2M33 65h1M47 65h1M53 65h2M59 65h1M62 65h2M68 65h1M33 66h1M46 66h1M48 66h5M56 66h3M64 66h4M33 67h1M45 67h1M34 68h1M45 68h1M34 69h1M44 69h1M35 70h1M42 70h2M37 71h5" />
<path stroke="#94cd08" d="M43 26h1M43 27h1M53 27h1M44 28h1M53 28h1M44 29h1M54 29h1M45 30h1M54 30h1M45 31h1M54 31h1M46 32h1M42 37h3M47 37h3M40 38h4M45 38h8M38 39h5M44 39h10M37 40h5M43 40h11M36 41h5M42 41h10M36 42h5M42 42h8M52 42h2M36 43h4M41 43h7M50 43h5M34 44h1M36 44h4M41 44h5M48 44h7M34 45h1M36 45h3M40 45h4M46 45h9M33 46h2M36 46h3M40 46h3M45 46h11M33 47h3M37 47h2M40 47h2M43 47h12M33 48h3M37 48h1M39 48h2M42 48h11M34 49h3M39 49h1M41 49h10M35 50h2M40 50h8M37 51h1M39 51h5" />
<path stroke="#396218" d="M44 26h1M53 26h1M44 27h1M54 27h1M45 28h1M54 28h1M45 29h1M55 29h1M46 30h1M55 30h1M46 31h1M55 31h1M47 32h1M55 32h1M47 33h1M55 33h1M48 34h1M54 34h1M48 35h1M54 35h1M46 36h4M50 37h1M53 38h2M55 39h1M52 41h2M41 42h1M40 43h1M40 44h1M46 44h2M39 45h1M45 45h1M39 46h1M43 46h1M36 47h1M39 47h1M42 47h1M36 48h1M38 48h1M41 48h1M38 49h1M40 49h1M37 50h3M60 50h1M38 51h1M60 51h1M38 52h1M60 52h1M38 53h1M60 53h1M38 54h1M60 54h1M38 55h1M60 55h1M38 56h1M32 57h1M39 57h1M31 58h1M39 58h1M30 59h1M39 59h1M40 60h1M40 61h1M40 62h1M32 63h2M39 63h1M39 64h1M38 65h1M46 65h1M38 66h1M37 67h1M37 68h1M36 69h1M36 70h1" />
<path stroke="#5a9c31" d="M42 28h2M52 28h1M42 29h2M52 29h2M42 30h3M52 30h2M42 31h3M51 31h3M42 32h4M51 32h4M43 33h4M51 33h4M43 34h5M50 34h4M44 35h4M50 35h4M50 36h3M45 37h2M44 38h1M43 39h1M54 39h1M42 40h1M41 41h1M35 42h1M50 42h2M35 43h1M48 43h2M35 44h1M35 45h1M44 45h1M35 46h1M44 46h1M55 47h2M53 48h4M32 49h2M37 49h1M51 49h7M32 50h3M48 50h11M32 51h5M44 51h16M32 52h6M39 52h21M32 53h6M39 53h21M33 54h5M39 54h21M33 55h5M39 55h21M33 56h5M39 56h20M34 57h5M40 57h19M32 58h7M40 58h19M31 59h8M40 59h18M31 60h9M41 60h17M31 61h4M36 61h4M41 61h16M32 62h2M35 62h5M41 62h16M35 63h4M40 63h16M34 64h5M40 64h15M34 65h4M39 65h7M48 65h5M34 66h4M39 66h7M34 67h3M38 67h7M35 68h2M38 68h7M35 69h1M37 69h7M37 70h5" />
<path stroke="#18734a" d="M55 40h1M55 41h2M55 42h2M56 43h2M56 44h2M57 45h2M57 46h2M58 47h1M58 48h1M59 49h1M26 59h4M59 59h1M26 60h4M59 60h3M25 61h5M58 61h7M26 62h5M58 62h6M27 63h3M57 63h6M56 64h4M56 65h3" />
<path stroke="#104139" d="M56 40h1M57 41h1M57 42h1M58 43h1M58 44h1M59 45h1M59 46h1M59 47h1M59 48h1M26 58h5M60 59h2M23 60h2M62 60h3M21 61h2M65 61h2M20 62h1M67 62h1M25 63h2M68 63h1M68 64h1M55 65h1" />
<path stroke="#299c52" d="M23 61h2M21 62h5M64 62h3M21 63h4M63 63h5M62 64h6M64 65h4" />
</svg>