<svg xmlns="http://www.w3.org/2000/svg" viewBox="0 -0.5 96 96" shape-rendering="crispEdges">
<metadata>Made with Pixels to Svg https://codepen.io/shshaw/pen/XbxvNj</metadata>
<path stroke="#b43173" d="M55 11h3M54 12h1M58 12h1M48 13h4M54 13h1M47 14h1M52 14h3M59 14h1M54 15h2M59 15h1M63 15h4M55 16h1M60 16h3M60 17h1M51 18h3M65 18h1M50 19h1M62 19h3M49 20h1M64 20h2M49 21h1M55 21h2M61 21h1M66 21h1M51 22h4M67 22h1M58 23h1M63 24h1M62 25h1M17 28h2M24 28h2M16 29h1M19 29h1M23 29h1M16 30h1M20 30h1M22 30h1M20 31h1M22 31h1M21 32h1M21 33h1M15 34h3M14 35h1M18 35h1M13 36h1M16 40h1M15 41h1M15 42h1M19 42h1M14 43h1M19 43h1M18 44h1M20 44h1M21 45h2" />
<path stroke="#e66aa4" d="M55 12h2M55 13h3M48 14h4M55 14h4M48 15h6M56 15h3M49 16h6M56 16h4M63 16h4M51 17h5M61 17h6M54 18h2M61 18h4M51 19h6M61 19h1M50 20h14M50 21h5M58 21h3M62 21h4M58 22h4M63 22h4M59 23h4M64 23h3M59 24h4M60 25h2M17 29h2M24 29h2M17 30h3M23 30h3M17 31h3M23 31h3M17 32h4M22 32h3M18 33h3M22 33h3M18 34h3M22 34h1M19 35h1" />
<path stroke="#cd4a8b" d="M57 12h1M58 13h1M21 34h1M15 35h3M20 35h2M14 36h7M14 37h7M16 38h4M18 39h2M17 40h3M16 41h4M16 42h3M20 42h1M15 43h4M20 43h1M15 44h2M21 44h1" />
<path stroke="#101010" d="M47 15h1M48 16h1M67 16h1M49 17h2M67 17h1M66 18h1M57 21h1M57 22h1M62 22h1M63 23h1M67 23h1M58 24h1M64 24h3M59 25h1M46 26h1M60 26h2M47 27h2M51 27h1M49 28h2M26 29h1M26 30h1M46 30h2M16 31h1M26 31h1M46 31h1M48 31h1M58 31h1M63 31h1M16 32h1M25 32h1M46 32h1M60 32h4M17 33h1M48 35h1M13 37h1M14 38h2M20 38h1M16 39h2M20 39h1M40 39h1M20 40h1M20 41h1M21 42h1M60 42h2M21 43h1M59 43h1M14 44h1M17 44h1M22 44h2M38 44h1M58 44h1M75 44h1M15 45h2M24 45h1M38 45h1M57 45h1M74 45h1M38 46h1M57 46h1M73 46h1M39 47h1M56 47h1M71 47h2M39 48h1M56 48h1M72 48h1M40 49h1M55 49h1M65 49h2M69 49h2M73 49h1M41 50h2M55 50h1M63 50h2M71 50h1M73 50h1M43 51h3M51 51h2M55 51h1M72 51h2M29 52h1M46 52h4M29 53h1M43 53h2M29 54h1M65 54h2M28 55h1M47 55h2M62 55h3M28 56h1M46 56h1M56 56h6M44 57h2M25 60h1M42 60h1M26 61h3M30 61h1M40 61h2M28 62h1M31 62h2M38 62h2M29 63h1M33 63h5M26 64h4M29 65h1M29 66h1M40 66h1M57 66h1M40 67h1M57 67h1M40 68h1M57 68h1M40 69h1M57 69h1M40 70h1M57 70h1M41 71h1M56 71h1M41 72h1M56 72h1M42 73h1M55 73h1M43 74h2M53 74h2M51 75h2M38 77h4M48 77h2M41 78h1M47 78h1M50 78h3M45 79h2M53 79h4M40 80h1M43 80h2M40 81h2" />
<path stroke="#b49c10" d="M56 17h1M59 17h1M60 18h1M57 19h1M47 26h5M49 27h2M59 29h1M58 30h1M28 45h2M28 46h2M28 47h1M27 56h1M27 63h2" />
<path stroke="#ffd500" d="M57 17h2M56 18h4M58 19h3M49 25h2M60 29h1M59 30h3M59 31h4M31 33h1M30 34h2M30 35h2M66 38h1M71 38h1M66 39h2M70 39h2M66 40h2M71 40h1M66 41h2M68 45h2M68 46h2" />
<path stroke="#204a20" d="M50 22h1M49 23h1M63 25h1M63 26h1M62 27h1M62 28h1M49 29h1M62 29h1M49 30h1M52 31h1M49 32h1M51 32h1M59 32h1M25 33h4M47 33h1M50 33h1M58 33h1M23 34h2M45 34h3M22 35h1M33 35h1M43 35h2M59 35h1M21 36h1M34 36h1M42 36h1M49 36h2M57 36h2M21 37h1M35 37h1M41 37h1M51 37h6M40 38h1M57 38h1M58 39h1M32 40h4M39 40h1M58 40h1M70 40h1M39 41h1M59 41h1M71 41h1M34 42h1M38 42h1M59 42h1M65 42h1M71 42h1M36 43h1M38 43h1M65 43h1M72 43h1M65 44h1M72 44h1M25 45h2M32 45h2M66 45h1M72 45h1M30 46h2M71 46h1M70 47h1M54 50h1M53 51h1M70 51h1M44 52h1M50 52h1M54 52h1M69 52h1M45 53h1M53 53h1M67 53h2M33 54h3M48 54h1M53 54h1M31 55h2M44 55h1M52 55h1M30 56h1M43 56h1M49 56h1M52 56h1M55 56h1M27 57h1M30 57h1M43 57h1M49 57h1M51 57h1M56 57h1M26 58h1M29 58h1M45 58h1M50 58h1M56 58h1M25 59h1M29 59h1M44 59h1M56 59h1M43 60h1M56 60h1M43 61h1M57 61h1M42 62h1M57 62h1M42 63h1M44 63h1M57 63h1M41 64h1M43 64h1M45 64h1M52 64h1M57 64h1M41 65h1M43 65h1M45 65h1M51 65h1M53 65h1M57 65h1M42 66h1M45 66h1M50 66h1M53 66h1M42 67h1M46 67h1M50 67h1M54 67h1M46 68h1M49 68h1M54 68h1M56 68h1M46 69h1M48 69h1M54 69h1M56 69h1M46 70h1M48 70h1M55 70h1M47 71h1M55 77h1M40 79h1M42 80h1" />
<path stroke="#419c4a" d="M55 22h2M50 23h8M51 24h7M52 25h7M52 26h8M62 26h1M52 27h8M51 28h8M50 29h8M50 30h8M49 31h3M54 31h4M50 32h1M54 32h3M55 33h1M55 34h1M23 35h1M47 35h1M22 36h3M48 36h1M22 37h4M48 37h3M21 38h7M33 38h3M41 38h1M47 38h10M21 39h15M45 39h12M21 40h11M40 40h17M69 40h1M21 41h11M40 41h17M70 41h1M22 42h11M39 42h19M22 43h13M39 43h19M60 43h1M66 43h2M70 43h2M24 44h4M30 44h5M39 44h19M66 44h2M70 44h2M31 45h1M39 45h18M71 45h1M39 46h18M40 47h16M61 47h2M40 48h16M59 48h3M41 49h14M56 49h1M58 49h4M67 49h2M43 50h11M56 50h6M65 50h6M46 51h5M56 51h14M55 52h14M36 53h7M54 53h13M43 54h2M54 54h11M42 55h2M53 55h9M31 56h2M39 56h4M47 56h2M53 56h2M31 57h12M46 57h3M52 57h2M55 57h1M30 58h15M46 58h4M51 58h3M30 59h14M45 59h10M30 60h12M44 60h11M31 61h9M44 61h11M33 62h5M43 62h12M43 63h1M45 63h11M42 64h1M46 64h6M53 64h3M42 65h1M46 65h5M54 65h2M46 66h4M54 66h3M47 67h3M55 67h2M47 68h2M55 68h1M47 69h1M55 69h1M47 70h1" />
<path stroke="#837310" d="M49 24h2M47 25h2M51 25h1M59 28h2M58 29h1M61 29h1M62 30h1M31 32h2M30 33h1M32 33h1M29 34h1M32 34h1M29 35h1M32 35h1M30 36h2M65 37h2M71 37h1M65 38h1M67 38h1M70 38h1M72 38h1M65 39h1M72 39h1M65 40h1M68 40h1M72 40h1M65 41h1M68 41h1M72 41h1M66 42h2M28 44h2M68 44h2M27 45h1M30 45h1M67 45h1M70 45h1M27 46h1M67 46h1M70 46h1M27 47h1M29 47h1M68 47h2M27 48h2M26 55h2M26 56h1M27 62h1M26 63h1" />
<path stroke="#5ad56a" d="M60 27h2M61 28h1M57 32h2M56 33h2M25 34h4M24 35h5M45 35h2M25 36h5M32 36h2M43 36h5M26 37h9M42 37h6M28 38h5M42 38h5M41 39h4M57 39h1M57 40h1M57 41h2M69 41h1M58 42h1M68 42h3M58 43h1M61 43h2M68 43h2M59 44h4M58 45h6M58 46h5M57 47h4M57 48h2M57 49h1M36 54h7M33 55h9M33 56h6M54 57h1M54 58h2M55 59h1M55 60h1M55 61h2M55 62h2M56 63h1M56 64h1M56 65h1" />
<path stroke="#186252" d="M47 31h1M47 32h2M52 32h1M48 33h2M51 33h3M48 34h6M66 34h1M49 35h6M67 35h1M38 36h1M51 36h3M68 36h1M39 37h1M68 37h1M69 38h1M37 39h1M61 39h4M36 40h3M33 41h6M35 42h3M72 42h1M37 43h1M74 43h1M36 44h2M35 45h2M64 45h1M35 46h1M63 46h1M63 47h1M62 48h1M67 48h2M62 49h1M54 51h1M30 52h1M45 52h1M51 52h3M31 53h1M46 53h7M32 54h1M45 54h3M49 54h4M45 55h2M49 55h3M44 56h2M50 56h2M50 57h1M27 58h2M26 59h3M26 60h4M29 61h1M29 62h2M30 63h3M30 64h2M34 64h1M44 64h1M30 65h2M44 65h1M52 65h1M30 66h1M41 66h1M43 66h2M51 66h2M41 67h1M43 67h3M51 67h3M41 68h5M50 68h4M41 69h5M49 69h5M41 70h5M49 70h6M56 70h1M42 71h5M48 71h8M42 72h14M43 73h12M42 74h1M45 74h8M41 75h4M48 75h3M39 76h15M43 77h5M50 77h5M42 78h5M53 78h3M41 79h4M41 80h1" />
<path stroke="#083931" d="M53 31h1M53 32h1M54 33h1M54 34h1M56 34h4M65 34h1M37 35h1M55 35h1M65 35h1M36 36h1M64 36h1M36 37h1M64 37h1M36 38h1M64 38h1M36 39h1M60 39h1M60 40h1M32 41h1M61 41h1M33 42h1M62 42h1M73 42h1M35 43h1M63 43h1M35 44h1M63 44h1M34 45h1M37 45h1M34 46h1M36 46h1M34 47h2M62 50h1M32 64h2M35 64h1M32 65h1M34 65h2M31 66h1M30 67h1M41 74h1M39 75h2M45 75h3M53 75h1M38 76h1M54 76h1M42 77h1M56 78h1" />
<path stroke="#108b73" d="M56 35h3M66 35h1M37 36h1M54 36h3M65 36h3M37 37h2M67 37h1M37 38h3M68 38h1M38 39h2M68 39h2M61 40h4M62 41h3M63 42h2M64 43h1M73 43h1M64 44h1M73 44h2M65 45h1M73 45h1M64 46h3M72 46h1M64 47h4M63 48h4M69 48h3M63 49h2M71 49h2M72 50h1M30 53h1M30 54h2M29 55h2M29 56h1M28 57h2" />
</svg>