<svg xmlns="http://www.w3.org/2000/svg" viewBox="0 -0.5 96 96" shape-rendering="crispEdges">
<metadata>Made with Pixels to Svg https://codepen.io/shshaw/pen/XbxvNj</metadata>
<path stroke="#5a4131" d="M37 18h9M35 19h2M46 19h6M33 20h2M44 20h2M52 20h3M31 21h3M40 21h4M55 21h2M27 22h4M34 22h6M57 22h1M24 23h3M37 23h1M58 23h1M23 24h1M37 24h1M59 24h1M20 25h3M36 25h1M60 25h1M17 26h3M36 26h1M61 26h3M15 27h2M19 27h1M36 27h1M64 27h6M71 27h2M14 28h1M17 28h2M36 28h1M73 28h4M14 29h3M36 29h1M74 29h1M76 29h1M36 30h3M75 30h2M36 31h1M39 31h11M70 31h3M76 31h1M30 32h4M36 32h1M47 32h7M68 32h9M23 33h6M36 33h1M49 33h10M67 33h10M19 34h8M36 34h1M52 34h25M13 35h12M37 35h1M55 35h22M13 36h10M37 36h1M60 36h5M67 36h2M74 36h2M13 37h5M37 37h1M69 37h4M75 37h1M14 38h3M37 38h1M70 38h3M75 38h1M37 39h1M75 39h1M37 40h1M64 40h3M75 40h1M65 41h2M75 41h1M74 42h1M74 43h1M74 44h1M74 45h1M74 46h1M74 47h1M37 48h1M73 48h1M37 49h1M73 49h1M37 50h1M73 50h1M37 51h1M73 51h1M38 52h1M72 52h1M23 53h2M39 53h1M22 54h3M39 54h1M39 55h1M39 56h1M67 56h3M19 57h4M38 57h1M40 57h2M52 57h18M19 58h11M35 58h4M40 58h30M19 59h21M41 59h29M20 60h20M41 60h29M21 61h19M41 61h28M22 62h18M41 62h22M27 63h13M41 63h15M81 63h1M35 64h5M41 64h3M81 64h1M41 65h1M81 65h2M29 66h1M31 66h2M80 66h3M31 67h1M34 67h1M66 67h1M80 67h2M83 67h1M32 68h2M41 68h1M60 68h1M82 68h2M20 69h2M41 69h1M65 69h1M79 69h2M82 69h3M20 70h2M41 70h1M54 70h2M64 70h2M80 70h2M83 70h2M20 71h2M40 71h2M59 71h2M64 71h3M81 71h1M84 71h1M20 72h1M41 72h1M51 72h2M58 72h3M65 72h2M84 72h1M51 73h2M58 73h3M66 73h1M51 74h2M59 74h2M51 75h2M60 75h1M52 76h1" />
<path stroke="#8b6a4a" d="M37 19h9M35 20h9M46 20h6M34 21h6M44 21h11M57 21h3M31 22h3M40 22h17M60 22h6M27 23h10M38 23h20M66 23h5M24 24h13M38 24h21M68 24h1M71 24h3M23 25h13M37 25h23M69 25h1M74 25h1M20 26h16M37 26h15M53 26h8M70 26h1M75 26h1M17 27h2M20 27h16M37 27h15M54 27h10M70 27h1M76 27h1M15 28h2M19 28h17M37 28h36M13 29h1M17 29h19M37 29h19M58 29h16M75 29h1M13 30h23M39 30h17M58 30h17M12 31h24M37 31h2M50 31h20M73 31h3M12 32h18M34 32h2M37 32h10M54 32h14M12 33h11M29 33h7M37 33h12M59 33h8M12 34h7M27 34h9M37 34h15M12 35h1M25 35h12M38 35h17M23 36h14M38 36h22M65 36h2M69 36h5M18 37h19M38 37h31M73 37h2M17 38h20M38 38h32M73 38h2M14 39h23M38 39h37M14 40h7M24 40h13M38 40h26M67 40h8M14 41h6M24 41h10M37 41h1M45 41h20M67 41h8M14 42h6M22 42h8M37 42h1M49 42h25M14 43h13M37 43h1M56 43h18M14 44h9M37 44h1M63 44h11M37 45h1M68 45h6M37 46h1M50 46h11M21 47h5M37 47h1M42 47h22M20 48h17M38 48h28M16 49h21M38 49h33M16 50h21M38 50h11M51 50h22M16 51h21M38 51h10M52 51h21M17 52h21M39 52h10M52 52h20M17 53h6M25 53h14M40 53h31M18 54h4M25 54h14M40 54h31M18 55h21M40 55h31M18 56h21M40 56h27M23 57h15M42 57h10M30 58h5M63 62h6M22 63h5M56 63h13M23 64h12M44 64h25M23 65h17M42 65h18M64 65h4M24 66h5M30 66h1M33 66h8M42 66h12M58 66h1M65 66h2M24 67h7M32 67h2M35 67h6M42 67h4M51 67h2M59 67h1M26 68h6M34 68h7M42 68h3M52 68h2M28 69h13M42 69h4M53 69h2M34 70h7M42 70h6M39 71h1M42 71h3" />
<path stroke="#ac9c83" d="M58 22h2M59 23h7M60 24h8M69 24h2M61 25h8M70 25h4M64 26h6M71 26h4M73 27h3" />
<path stroke="#c58b18" d="M52 26h1M52 27h2M56 29h2M56 30h2M21 40h3M20 41h4M34 41h3M38 41h7M20 42h2M30 42h7M38 42h11M27 43h10M38 43h18M23 44h14M38 44h25M15 45h22M38 45h30M15 46h22M38 46h12M61 46h13M15 47h6M26 47h11M38 47h4M64 47h10M15 48h5M66 48h7M71 49h2M49 50h2M48 51h4M49 52h3" />
<path stroke="#393120" d="M13 28h1M12 29h1M12 30h1M11 31h1M11 32h1M39 57h1M39 58h1M40 59h1M40 60h1M40 61h1M40 62h1M81 62h1M40 63h1M82 63h1M40 64h1M82 64h1M40 65h1M83 65h1M41 66h1M83 66h1M41 67h1M82 67h1M84 67h1M79 68h1M84 68h1M85 69h1M85 70h1M61 71h1M67 71h1M82 71h1M85 71h1M61 72h1M67 72h1M85 72h1M61 73h1M67 73h1M61 74h1M67 74h1M61 75h1M61 76h1" />
<path stroke="#101010" d="M11 33h1M11 34h1M11 35h1M12 36h1M12 37h1M13 38h1M13 39h1M13 40h1M13 41h1M13 42h1M13 43h1M13 44h1M14 45h1M14 46h1M14 47h1M14 48h1M15 49h1M15 50h1M15 51h1M16 52h1M16 53h1M71 53h1M17 54h1M71 54h1M17 55h1M71 55h1M17 56h1M70 56h1M18 57h1M70 57h1M18 58h1M70 58h1M18 59h1M70 59h1M19 60h1M70 60h1M20 61h1M69 61h1M21 62h1M69 62h1M21 63h1M69 63h1M22 64h1M69 64h1M22 65h1M62 65h2M68 65h1M71 65h1M21 66h1M23 66h1M56 66h2M59 66h1M61 66h1M64 66h1M67 66h1M69 66h2M20 67h1M23 67h1M49 67h2M53 67h1M55 67h1M58 67h1M60 67h2M65 67h1M71 67h1M20 68h1M24 68h2M45 68h1M48 68h1M51 68h1M54 68h2M59 68h1M61 68h1M65 68h1M72 68h2M80 68h2M19 69h1M23 69h2M26 69h2M46 69h1M48 69h1M52 69h1M55 69h1M59 69h1M62 69h1M66 69h1M74 69h5M81 69h1M19 70h1M23 70h1M28 70h6M48 70h1M52 70h2M56 70h1M60 70h1M62 70h1M66 70h1M79 70h1M82 70h1M19 71h1M22 71h1M34 71h5M45 71h4M52 71h1M56 71h1M63 71h1M80 71h1M83 71h1M19 72h1M21 72h1M39 72h2M42 72h3M49 72h1M53 72h1M57 72h1M64 72h1M81 72h1M83 72h1M20 73h1M49 73h1M53 73h1M57 73h1M65 73h1M84 73h1M50 74h1M53 74h1M58 74h1M66 74h1M50 75h1M53 75h1M59 75h1M51 76h1M53 76h1M60 76h1M52 77h1" />
<path stroke="#6a2918" d="M72 55h3M75 56h2M77 57h1M78 58h1M79 59h1M79 60h1M80 61h1M80 62h1M70 63h1M80 63h1M71 64h1M80 64h1M60 65h2M80 65h1M54 66h2M68 66h1M79 66h1M46 67h3M79 67h1M78 68h1M47 69h1" />
<path stroke="#bd5231" d="M71 56h2M71 57h2M71 58h3M71 59h3M71 60h4M70 61h6M70 62h7M71 63h8M70 64h1M72 64h8M69 65h2M72 65h8M22 66h1M60 66h1M62 66h2M71 66h8M21 67h2M54 67h1M56 67h2M62 67h3M72 67h7M21 68h3M46 68h2M49 68h2M56 68h3M62 68h3M74 68h4M22 69h1M49 69h3M56 69h3M63 69h2M22 70h1M49 70h3M57 70h3M63 70h1M49 71h3M57 71h2M50 72h1M50 73h1" />
<path stroke="#ee834a" d="M73 56h2M73 57h4M74 58h4M74 59h5M75 60h4M76 61h4M77 62h3M79 63h1" />
</svg>