<svg xmlns="http://www.w3.org/2000/svg" viewBox="0 -0.5 96 96" shape-rendering="crispEdges">
<metadata>Made with Pixels to Svg https://codepen.io/shshaw/pen/XbxvNj</metadata>
<path stroke="#313131" d="M47 28h2M45 29h2M49 29h1M49 32h2M51 33h2M44 34h4M53 34h1M42 35h8M54 35h1M41 36h9M54 36h1M41 37h8M55 37h1M40 38h9M53 38h1M55 38h1M40 39h9M56 39h1M40 40h9M54 40h1M56 40h1M40 41h8M54 41h1M40 42h8M54 42h2M39 43h12M53 43h2M24 44h3M39 44h15M22 45h3M26 45h2M29 45h1M38 45h16M22 46h4M27 46h1M29 46h1M38 46h11M50 46h3M21 47h1M24 47h2M27 47h1M29 47h1M37 47h1M39 47h8M48 47h2M51 47h1M63 47h4M21 48h2M24 48h1M26 48h1M30 48h2M35 48h4M40 48h8M49 48h2M66 48h1M68 48h1M21 49h3M27 49h10M42 49h6M50 49h2M69 49h1M22 50h12M44 50h2M51 50h2M60 50h1M24 51h7M44 51h2M60 51h1M69 51h1M44 52h2M53 52h1M61 52h1M64 52h1M67 52h1M69 52h1M44 53h2M55 53h2M61 53h3M66 53h2M44 54h2M56 54h8M65 54h2M68 54h1M45 55h1M58 55h4M64 55h3M45 56h2M61 56h4M45 57h2M45 58h2M46 59h1M46 60h2M47 61h1M47 62h2M48 63h2M50 64h3" />
<path stroke="#525252" d="M47 29h2M45 30h4M44 31h5M43 32h6M42 33h9M42 34h2M48 34h5M41 35h1M50 35h4M52 36h2M53 37h2M54 38h1M54 39h2M55 40h1M55 41h1M64 48h2M62 49h2M65 49h2M68 49h1M53 50h1M61 50h4M66 50h2M69 50h1M52 51h4M61 51h4M66 51h2M54 52h6M62 52h2M66 52h1M57 53h3" />
<path stroke="#101010" d="M44 30h1M49 30h1M43 31h1M49 31h1M42 32h1M41 33h1M41 34h1M40 35h1M40 36h1M40 37h1M39 38h1M39 39h1M52 39h1M39 40h1M39 41h1M56 41h1M39 42h1M56 42h1M24 43h4M38 43h1M55 43h1M22 44h2M27 44h3M38 44h1M54 44h1M21 45h1M25 45h1M28 45h1M30 45h1M37 45h1M54 45h1M21 46h1M26 46h1M28 46h1M30 46h1M37 46h1M49 46h1M53 46h1M20 47h1M22 47h2M26 47h1M28 47h1M30 47h2M35 47h2M38 47h1M47 47h1M50 47h1M52 47h1M20 48h1M23 48h1M25 48h1M27 48h3M32 48h3M39 48h1M48 48h1M51 48h2M62 48h2M67 48h1M20 49h1M24 49h3M37 49h1M40 49h2M48 49h2M52 49h2M60 49h2M64 49h1M67 49h1M21 50h1M34 50h2M42 50h2M46 50h5M54 50h2M59 50h1M65 50h1M68 50h1M70 50h1M22 51h2M31 51h3M43 51h1M46 51h1M51 51h1M56 51h4M65 51h1M68 51h1M70 51h1M24 52h7M43 52h1M46 52h1M52 52h1M60 52h1M65 52h1M68 52h1M70 52h1M43 53h1M46 53h1M53 53h2M60 53h1M64 53h2M68 53h2M43 54h1M46 54h1M55 54h1M64 54h1M67 54h1M69 54h1M44 55h1M46 55h1M56 55h2M62 55h2M67 55h2M44 56h1M47 56h1M58 56h3M65 56h2M44 57h1M47 57h1M61 57h4M44 58h1M47 58h1M45 59h1M47 59h1M56 59h1M45 60h1M48 60h1M56 60h1M46 61h1M48 61h1M55 61h1M46 62h1M49 62h1M55 62h1M47 63h1M50 63h1M54 63h1M48 64h2M53 64h1M50 65h3" />
<path stroke="#ac0000" d="M50 36h2M49 37h1M52 37h1M49 39h1M53 39h1M49 40h1M53 40h1M53 41h1M48 42h1M50 42h1M53 42h1M51 43h2" />
<path stroke="#ff0000" d="M50 37h2M49 38h4M50 39h2M50 40h2M48 41h5M49 42h1M51 42h2" />
<path stroke="#5a0000" d="M52 40h1" />
<path stroke="#8b5a20" d="M47 51h1M47 52h1M57 56h1M55 57h1M57 57h1M55 58h1M57 58h1M55 59h1M54 60h1M54 61h1M53 62h1M52 63h2" />
<path stroke="#cd8310" d="M48 51h3M48 52h4M47 53h6M47 54h8M47 55h9M48 56h8M48 57h7M48 58h7M48 59h7M49 60h5M55 60h1M49 61h5M50 62h3M54 62h1M51 63h1" />
<path stroke="#f6ac29" d="M56 56h1M56 57h1M56 58h1" />
</svg>