<svg xmlns="http://www.w3.org/2000/svg" viewBox="0 -0.5 96 96" shape-rendering="crispEdges">
<metadata>Made with Pixels to Svg https://codepen.io/shshaw/pen/XbxvNj</metadata>
<path stroke="#205273" d="M51 29h6M50 30h1M57 30h3M60 31h1M60 33h1M29 35h5M34 36h2M36 37h1M33 41h1M58 41h1M57 42h1M62 44h5M61 45h1M67 45h2M69 46h1M70 47h1M57 48h1M70 48h1M71 49h1M56 50h1M71 50h1M56 51h1M56 52h1M26 53h4M54 53h1M25 54h1M24 56h1M28 56h2M50 56h1M23 57h1M22 58h1M31 58h1M44 58h1M31 59h1M42 59h1M46 59h1M42 60h1M46 64h1M45 65h1M44 66h1" />
<path stroke="#101010" d="M49 30h1M48 31h1M47 32h1M47 33h1M46 34h1M45 35h4M28 36h1M49 36h2M27 37h1M51 37h2M63 37h1M25 38h2M53 38h1M63 38h1M24 39h1M54 39h1M63 39h1M23 40h1M30 40h3M55 40h1M22 41h1M26 41h4M34 41h1M56 41h1M62 41h1M22 42h4M33 42h1M56 42h1M61 42h1M32 43h1M57 43h1M59 43h2M31 44h1M57 44h2M31 45h1M57 45h1M59 45h2M30 46h1M57 46h2M30 47h1M57 47h1M30 48h1M56 48h1M29 49h1M56 49h1M29 50h1M55 50h1M57 50h7M29 51h1M55 51h1M64 51h2M72 51h1M29 52h1M54 52h1M66 52h2M73 52h1M30 53h1M53 53h1M68 53h1M74 53h1M24 54h1M30 54h1M52 54h1M54 54h1M69 54h1M74 54h1M23 55h1M29 55h1M31 55h1M50 55h2M53 55h1M70 55h1M75 55h1M22 56h1M30 56h1M32 56h1M48 56h2M52 56h1M71 56h1M75 56h1M22 57h1M28 57h1M30 57h1M33 57h1M44 57h3M50 57h2M72 57h1M75 57h1M21 58h1M26 58h2M34 58h9M48 58h2M73 58h1M75 58h1M21 59h1M24 59h2M32 59h1M47 59h1M74 59h1M21 60h1M23 60h1M31 60h1M36 60h6M48 60h1M22 61h1M31 61h1M33 61h3M42 61h2M49 61h1M31 62h2M44 62h1M50 62h1M44 63h1M50 63h1M44 64h1M50 64h1M43 65h1M49 65h1M42 66h1M47 66h2M43 67h4" />
<path stroke="#4a9cde" d="M51 30h6M57 31h3M59 32h2M29 36h5M28 37h3M27 38h1M25 39h1M63 45h4M64 46h5M65 47h5M68 48h2M69 49h2M70 50h1M71 51h1M72 52h1M73 53h1M26 54h2M24 55h2M23 56h1M45 60h3M46 61h3M47 62h3M47 63h3M47 64h3M48 65h1" />
<path stroke="#3173ac" d="M49 31h8M48 32h11M48 33h12M47 34h13M49 35h11M51 36h9M31 37h5M53 37h7M28 38h9M54 38h7M26 39h10M55 39h6M24 40h6M33 40h2M56 40h6M23 41h3M57 41h1M59 41h3M58 42h3M58 43h1M62 45h1M59 46h5M58 47h7M58 48h10M57 49h12M64 50h6M66 51h5M55 52h1M68 52h4M69 53h4M28 54h2M53 54h1M70 54h4M26 55h3M30 55h1M52 55h1M71 55h4M25 56h3M31 56h1M51 56h1M72 56h3M24 57h4M31 57h2M47 57h3M73 57h2M23 58h3M32 58h2M45 58h3M74 58h1M22 59h2M33 59h9M43 59h3M22 60h1M32 60h4M43 60h2M32 61h1M44 61h2M45 62h2M45 63h2M45 64h1M44 65h1M46 65h2M43 66h1M45 66h2" />
<path stroke="#31394a" d="M61 32h1M62 33h1M60 34h1M63 34h1M44 35h1M60 35h1M63 35h1M26 36h1M41 36h3M46 36h1M60 36h1M63 36h1M25 37h2M39 37h1M42 37h1M45 37h1M60 37h1M37 38h1M40 38h2M44 38h1M61 38h1M36 39h1M38 39h2M49 39h3M61 39h1M35 40h1M48 40h1M52 40h1M62 40h1M36 41h2M48 41h1M53 41h1M38 42h1M53 42h1M36 43h2M53 43h1M55 43h1M34 44h2M45 44h4M50 44h1M55 44h1M44 45h1M49 45h1M51 45h1M55 45h1M44 46h1M50 46h1M55 46h1M33 47h2M38 47h1M44 47h1M50 47h1M54 47h1M71 47h1M32 48h1M35 48h1M37 48h1M45 48h1M54 48h1M72 48h1M30 49h2M35 49h1M37 49h1M40 49h3M44 49h1M46 49h1M53 49h1M73 49h1M31 50h1M34 50h1M36 50h1M39 50h1M43 50h1M45 50h1M53 50h1M73 50h1M31 51h1M36 51h1M39 51h1M44 51h1M46 51h1M52 51h1M74 51h1M32 52h1M36 52h1M39 52h1M44 52h1M51 52h1M74 52h1M32 53h1M35 53h1M40 53h1M49 53h2M55 53h1M33 54h1M35 54h1M46 54h3M55 54h1M34 55h2M41 55h5M54 55h1M35 56h6M47 56h1M53 56h1M52 57h1M43 58h1M50 58h2M48 59h2M36 61h1M37 62h5" />
<path stroke="#526273" d="M61 33h1M61 35h1M27 36h1M44 36h2M47 36h1M61 36h1M43 37h2M61 37h2M42 38h2M62 38h1M37 39h1M40 39h3M44 39h1M48 39h1M62 39h1M36 40h3M41 40h1M43 40h5M35 41h1M39 41h9M49 41h1M39 42h8M48 42h3M38 43h10M50 43h2M56 43h1M32 44h2M36 44h9M49 44h1M32 45h3M38 45h6M50 45h1M31 46h2M35 46h9M46 46h1M51 46h1M35 47h3M39 47h5M45 47h3M51 47h2M31 48h1M36 48h1M38 48h5M44 48h1M46 48h3M51 48h3M36 49h1M38 49h2M43 49h1M45 49h1M50 49h3M54 49h1M30 50h1M35 50h1M37 50h2M44 50h1M46 50h7M54 50h1M30 51h1M32 51h4M37 51h2M40 51h1M45 51h1M47 51h5M53 51h2M30 52h2M33 52h3M37 52h2M40 52h2M45 52h2M48 52h3M52 52h2M31 53h1M33 53h2M36 53h4M41 53h2M45 53h4M51 53h2M31 54h2M34 54h1M36 54h5M44 54h2M49 54h3M32 55h2M36 55h5M46 55h4M33 56h2M41 56h6M34 57h10M37 61h5" />
<path stroke="#6a7b8b" d="M61 34h2M62 35h1M48 36h1M62 36h1M46 37h5M45 38h8M45 39h3M52 39h2M53 40h2M54 41h2M54 42h2M54 43h1M53 44h2M56 44h1M52 45h3M56 45h1M53 46h2M56 46h1M53 47h1M55 47h2M55 48h1M71 48h1M55 49h1M72 49h1M72 50h1M73 51h1" />
<path stroke="#394a52" d="M40 37h2M38 38h2M43 39h1M39 40h2M42 40h1M49 40h3M38 41h1M50 41h3M34 42h4M47 42h1M51 42h2M33 43h3M48 43h2M52 43h1M51 44h2M35 45h3M45 45h4M33 46h2M45 46h1M47 46h3M52 46h1M31 47h2M48 47h2M33 48h2M43 48h1M49 48h2M32 49h3M47 49h3M32 50h2M40 50h3M41 51h3M42 52h2M47 52h1M43 53h2M41 54h3" />
</svg>