<svg xmlns="http://www.w3.org/2000/svg" viewBox="0 -0.5 96 96" shape-rendering="crispEdges">
<metadata>Made with Pixels to Svg https://codepen.io/shshaw/pen/XbxvNj</metadata>
<path stroke="#293962" d="M54 18h5M51 19h3M60 21h1M62 33h1M63 34h1M64 35h1M64 36h1M65 37h1M65 38h1M65 39h1M66 40h1M66 41h1M66 42h1M26 43h1M66 43h1M25 44h1M67 44h1M25 45h1M67 45h1M24 46h1M67 46h1M23 47h1M68 47h1M22 48h1M68 48h1M21 49h1M69 49h1M20 50h1M69 50h1M20 51h1M70 51h1M19 52h1M71 52h1M18 53h1M72 53h1M17 54h1M72 54h1M16 55h1M26 55h1M73 55h1M16 56h1M25 56h1M59 56h1M62 56h1M74 56h1M15 57h1M24 57h1M60 57h1M75 57h1M15 58h1M24 58h1M61 58h1M75 58h1M14 59h1M23 59h1M62 59h1M76 59h1M14 60h1M23 60h1M62 60h1M76 60h1M14 61h1M23 61h1M30 61h1M63 61h1M77 61h1M14 62h1M23 62h1M29 62h1M63 62h1M77 62h1M14 63h1M22 63h1M24 63h1M27 63h2M50 63h1M64 63h1M78 63h1M14 64h1M22 64h1M26 64h1M50 64h1M79 64h1M14 65h1M43 65h1M50 65h1M79 65h1M15 66h1M47 66h3M52 66h1M15 67h1M42 67h5M16 68h1M17 69h1M21 69h1M53 69h1M18 70h1M21 70h1M24 70h1M51 70h1M54 70h1M59 70h2M19 71h3M24 71h1M35 71h1M50 71h1M50 72h1M52 72h1M29 73h2M55 74h2" />
<path stroke="#4a94d5" d="M54 19h4M56 20h3M57 21h3M59 22h2M59 23h1M60 33h2M60 34h3M61 35h2M61 36h2M61 37h2M61 38h3M62 39h2M63 40h3M63 41h3M63 42h3M63 43h3M64 44h3M65 45h2M65 46h2M66 47h2M66 48h2M66 49h3M67 50h2M67 51h3M67 52h4M68 53h4M68 54h4M69 55h4M70 56h4M70 57h5M70 58h4M71 59h3M75 59h1M71 60h4M71 61h4M71 62h4M29 63h3M72 63h4M27 64h7M72 64h4M78 64h1M25 65h11M72 65h4M19 66h16M72 66h3M20 67h12M73 67h2M24 68h5M73 68h1" />
<path stroke="#39739c" d="M58 19h1M51 20h5M50 21h7M50 22h6M58 22h1M49 23h6M48 24h5M48 25h3M62 44h2M62 45h3M25 46h1M62 46h3M24 47h2M61 47h5M23 48h4M61 48h5M22 49h4M61 49h5M21 50h5M62 50h5M21 51h5M62 51h5M20 52h6M62 52h5M19 53h7M63 53h5M18 54h8M63 54h5M17 55h8M63 55h6M17 56h8M26 56h1M64 56h6M16 57h8M25 57h2M56 57h4M64 57h6M16 58h8M25 58h2M56 58h5M65 58h5M15 59h8M24 59h4M55 59h7M65 59h6M15 60h8M24 60h5M54 60h8M66 60h5M15 61h8M24 61h6M53 61h10M66 61h5M15 62h8M24 62h5M30 62h1M52 62h11M66 62h5M15 63h7M25 63h2M37 63h2M51 63h13M67 63h5M15 64h7M34 64h6M52 64h12M67 64h5M15 65h4M24 65h1M36 65h5M53 65h11M67 65h5M16 66h2M35 66h6M54 66h9M68 66h4M16 67h3M32 67h9M55 67h7M68 67h5M17 68h3M22 68h2M29 68h11M55 68h5M68 68h5M18 69h3M25 69h13M54 69h5M68 69h4M73 69h1M19 70h2M29 70h6M52 70h2M69 70h2M25 71h1M51 71h10M69 71h2M30 72h6M51 72h1M55 72h8M69 72h2M56 73h8M69 73h2M69 74h2M68 75h3M68 76h2M67 77h2" />
<path stroke="#414a5a" d="M59 19h3M59 20h1M62 20h1M38 21h2M63 21h2M37 22h2M65 22h1M36 23h3M60 23h1M66 23h1M36 24h3M60 24h1M66 24h1M36 25h3M36 26h1M60 26h1M59 27h2M58 28h2M63 28h1M58 29h2M62 29h1M59 30h1M62 30h2M59 31h3M36 33h1M36 34h1M36 35h1M47 37h1M43 38h1M55 38h2M42 39h2M29 40h1M41 40h2M44 40h2M41 41h1M43 41h1M41 42h1M54 44h1M27 49h1M41 49h1M27 50h1M33 50h1M40 50h2M43 50h1M27 51h1M29 51h2M33 51h1M35 51h6M42 51h1M44 51h1M27 52h1M29 52h3M34 52h6M41 52h3M45 52h1M57 52h3M27 53h1M29 53h2M32 53h2M36 53h4M41 53h4M47 53h1M57 53h4M27 54h1M29 54h2M32 54h4M37 54h2M40 54h7M50 54h1M56 54h6M28 55h1M30 55h1M32 55h4M37 55h2M40 55h10M52 55h3M60 55h2M28 56h2M32 56h4M37 56h3M41 56h9M51 56h3M61 56h1M28 57h3M32 57h4M37 57h3M41 57h8M50 57h4M29 58h3M33 58h2M36 58h5M42 58h6M49 58h4M29 59h3M33 59h2M36 59h5M43 59h3M48 59h4M31 60h2M35 60h7M46 60h5M32 61h17M33 62h4M40 62h7M42 63h2M78 69h1M61 70h1M75 70h1M78 70h2M36 71h1M75 71h1M78 71h1M26 72h3M36 72h2M72 72h1M75 72h2M78 72h1M52 73h3M72 73h2M75 73h2M72 74h2M75 74h1M72 75h2M71 76h2" />
<path stroke="#293139" d="M38 20h3M41 21h1M41 22h1M61 22h1M42 23h1M62 23h1M39 24h1M63 24h2M40 25h4M65 25h1M67 25h1M59 26h1M64 26h1M66 26h1M58 27h1M62 27h1M37 28h2M40 28h3M57 28h1M61 28h2M35 29h2M39 29h1M43 29h2M56 29h1M61 29h1M63 29h1M66 29h1M34 30h1M38 30h1M44 30h1M49 30h3M56 30h2M33 31h1M38 31h1M44 31h1M47 31h2M52 31h1M57 31h1M63 31h1M32 32h1M36 32h2M43 32h1M46 32h1M53 32h1M57 32h1M59 32h1M32 33h1M34 33h2M37 33h1M43 33h1M46 33h1M54 33h1M58 33h1M32 34h2M37 34h1M42 34h1M45 34h1M55 34h1M58 34h1M30 35h1M37 35h1M40 35h2M45 35h1M55 35h1M58 35h2M36 36h1M38 36h2M46 36h2M55 36h1M59 36h1M35 37h2M48 37h2M55 37h1M59 37h1M33 38h2M36 38h1M50 38h5M59 38h1M29 39h4M36 39h1M44 39h2M55 39h6M30 40h1M35 40h1M37 40h2M43 40h1M46 40h1M29 41h1M34 41h1M39 41h1M42 41h1M47 41h1M29 42h1M33 42h2M39 42h1M42 42h1M48 42h5M29 43h1M32 43h2M39 43h1M42 43h1M53 43h3M62 43h1M29 44h3M33 44h1M39 44h1M43 44h1M55 44h1M60 44h1M33 45h1M38 45h1M43 45h1M55 45h1M60 45h1M32 46h2M38 46h1M44 46h1M55 46h1M59 46h2M31 47h1M33 47h2M37 47h1M45 47h2M54 47h1M58 47h2M28 48h3M33 48h1M35 48h2M47 48h2M54 48h1M58 48h2M26 49h1M28 49h1M33 49h1M49 49h3M54 49h1M58 49h2M26 50h1M28 50h1M34 50h1M42 50h1M52 50h2M59 50h1M28 51h1M34 51h1M41 51h1M43 51h1M60 51h1M28 52h1M32 52h2M40 52h1M44 52h1M60 52h1M28 53h1M31 53h1M34 53h2M40 53h1M45 53h2M28 54h1M31 54h1M36 54h1M39 54h1M47 54h3M29 55h1M31 55h1M36 55h1M39 55h1M50 55h2M55 55h1M30 56h2M36 56h1M40 56h1M50 56h1M54 56h2M31 57h1M36 57h1M40 57h1M49 57h1M54 57h1M32 58h1M35 58h1M41 58h1M48 58h1M53 58h2M32 59h1M35 59h1M41 59h2M46 59h2M52 59h2M33 60h2M42 60h4M51 60h2M49 61h3M37 62h1M47 62h3M44 63h3M76 64h1M76 65h1M75 66h2M77 67h1M74 68h1M77 68h1M72 69h1M74 69h1M62 70h2M71 70h1M73 70h2M26 71h3M37 71h2M64 71h1M71 71h1M74 71h1M38 72h1M64 72h1M71 72h1M74 72h1M75 75h1" />
<path stroke="#000000" d="M50 20h1M37 21h1M49 21h1M36 22h1M48 22h1M56 22h2M35 23h1M48 23h1M55 23h1M58 23h1M35 24h1M43 24h1M47 24h1M53 24h2M59 24h1M35 25h1M44 25h4M51 25h2M60 25h1M63 25h1M35 26h1M48 26h3M61 26h1M67 26h1M35 27h1M61 27h1M67 27h1M34 28h1M60 28h1M67 28h1M33 29h1M57 29h1M60 29h1M32 30h1M58 30h1M60 30h2M64 30h1M66 30h1M31 31h1M58 31h1M62 31h1M64 31h2M30 32h1M58 32h1M60 32h3M30 33h1M59 33h1M30 34h1M59 34h1M29 35h1M60 35h1M28 36h1M60 36h1M28 37h1M60 37h1M28 38h1M60 38h1M61 39h1M28 40h1M62 40h1M27 41h1M62 41h1M27 42h1M62 42h1M27 43h1M59 43h3M26 44h1M59 44h1M61 44h1M26 45h1M59 45h1M61 45h1M26 46h1M61 46h1M26 47h1M60 47h1M27 48h1M60 48h1M60 49h1M58 50h1M61 50h1M26 51h1M58 51h2M61 51h1M26 52h1M61 52h1M26 53h1M61 53h1M26 54h1M62 54h1M27 55h1M56 55h4M62 55h1M27 56h1M56 56h1M60 56h1M63 56h1M27 57h1M55 57h1M61 57h1M63 57h1M28 58h1M55 58h1M64 58h1M28 59h1M54 59h1M64 59h1M29 60h2M53 60h1M65 60h1M31 61h1M52 61h1M65 61h1M32 62h1M38 62h2M50 62h2M65 62h1M33 63h4M40 63h2M47 63h3M66 63h1M24 64h2M42 64h5M51 64h1M64 64h1M66 64h1M77 64h1M19 65h5M51 65h1M64 65h1M66 65h1M78 65h1M18 66h1M42 66h1M63 66h1M67 66h1M79 66h1M19 67h1M41 67h1M52 67h1M62 67h1M67 67h1M76 67h1M79 67h1M20 68h2M40 68h1M52 68h1M60 68h2M67 68h1M76 68h1M80 68h1M22 69h3M38 69h2M52 69h1M59 69h1M67 69h1M77 69h1M80 69h1M25 70h4M35 70h3M55 70h4M68 70h1M77 70h1M80 70h1M29 71h6M61 71h2M68 71h1M77 71h1M79 71h1M25 72h1M29 72h1M53 72h2M63 72h1M68 72h1M77 72h1M79 72h1M26 73h3M31 73h7M51 73h1M55 73h1M64 73h1M68 73h1M71 73h1M74 73h1M77 73h2M52 74h3M57 74h7M68 74h1M71 74h1M74 74h1M76 74h1M67 75h1M71 75h1M74 75h1M67 76h1M70 76h1M73 76h1M66 77h1M69 77h4M66 78h3" />
<path stroke="#627383" d="M60 20h2M40 21h1M61 21h2M39 22h2M62 22h3M39 23h3M61 23h1M63 23h3M40 24h3M61 24h1M65 24h1M61 25h1M66 25h1M65 26h1M63 27h4M64 28h3M64 29h2M65 30h1M60 40h2M77 65h1M77 66h2M75 67h1M78 67h1M75 68h1M79 68h1M76 69h1M79 69h1M72 70h1M76 70h1M63 71h1M73 71h1M76 71h1M73 72h1" />
<path stroke="#396283" d="M49 22h1M60 50h1M62 53h1M25 55h1M57 56h2M27 58h1M31 62h1M32 63h1M39 63h1M40 64h2M47 64h3M41 65h2M44 65h6M52 65h1M41 66h1M43 66h4M53 66h1M53 67h2M53 68h2M60 69h1" />
<path stroke="#525a6a" d="M56 23h2M55 24h4M39 25h1M53 25h7M37 26h11M51 26h8M36 27h22M35 28h2M39 28h1M43 28h14M34 29h1M37 29h2M40 29h3M45 29h11M33 30h1M35 30h3M39 30h5M45 30h4M52 30h4M32 31h1M34 31h4M39 31h5M45 31h2M49 31h3M53 31h4M31 32h1M33 32h3M38 32h5M44 32h2M47 32h6M54 32h3M31 33h1M33 33h1M38 33h5M44 33h2M47 33h7M55 33h3M31 34h1M34 34h2M38 34h4M43 34h2M46 34h9M56 34h2M31 35h5M38 35h2M42 35h3M46 35h9M56 35h2M29 36h7M37 36h1M40 36h6M48 36h7M56 36h3M29 37h6M37 37h10M50 37h5M56 37h3M29 38h4M35 38h1M37 38h6M44 38h6M57 38h2M33 39h3M37 39h5M46 39h9M31 40h4M36 40h1M39 40h2M47 40h13M28 41h1M30 41h4M35 41h4M40 41h1M44 41h3M48 41h14M28 42h1M30 42h3M35 42h4M40 42h1M43 42h5M53 42h9M28 43h1M30 43h2M34 43h5M40 43h2M43 43h10M56 43h3M27 44h2M32 44h1M34 44h5M40 44h3M44 44h10M56 44h3M27 45h6M34 45h4M39 45h4M44 45h11M56 45h3M27 46h5M34 46h4M39 46h5M45 46h10M56 46h3M27 47h4M32 47h1M35 47h2M38 47h7M47 47h7M55 47h3M31 48h2M34 48h1M37 48h10M49 48h5M55 48h3M29 49h4M34 49h7M42 49h7M52 49h2M55 49h3M29 50h4M35 50h5M44 50h8M54 50h4M31 51h2M45 51h13M46 52h11M48 53h9M51 54h5M78 68h1M75 69h1M72 71h1" />
<path stroke="#a4cdd5" d="M62 24h1M64 25h1M62 26h1" />
<path stroke="#e6e6e6" d="M62 25h1M63 26h1" />
<path stroke="#5aace6" d="M63 35h1M63 36h1M63 37h2M64 38h1M64 39h1M74 58h1M74 59h1M75 60h1M75 61h2M75 62h2M76 63h2" />
</svg>