<svg xmlns="http://www.w3.org/2000/svg" viewBox="0 -0.5 96 96" shape-rendering="crispEdges">
<metadata>Made with Pixels to Svg https://codepen.io/shshaw/pen/XbxvNj</metadata>
<path stroke="#419c62" d="M40 24h4M38 25h2M44 25h2M36 26h2M46 26h2M48 27h1M49 28h1M50 29h1M51 30h1M51 31h1M32 35h1M59 36h1M60 37h1M61 38h1M62 56h1M60 58h1M56 59h2M31 60h1M34 60h1M54 60h2M31 61h1M35 61h1M54 61h1M36 62h1M36 63h2M54 63h2M37 64h1" />
<path stroke="#5ab47b" d="M40 25h4M38 26h8M36 27h12M35 28h14M34 29h6M43 29h7M34 30h4M45 30h6M33 31h4M46 31h5M33 32h3M47 32h5M33 33h3M46 33h8M33 34h4M45 34h11M33 35h6M43 35h15M32 36h21M57 36h2M31 37h11M48 37h5M58 37h2M30 38h10M51 38h3M58 38h3M29 39h9M53 39h9M29 40h8M54 40h9M28 41h8M55 41h8M28 42h7M56 42h8M27 43h7M56 43h8M27 44h7M57 44h7M27 45h6M57 45h8M26 46h7M57 46h8M26 47h7M57 47h8M26 48h7M57 48h8M26 49h7M56 49h9M26 50h7M56 50h9M26 51h8M55 51h10M26 52h8M56 52h8M26 53h9M56 53h8M27 54h9M55 54h9M27 55h10M54 55h9M27 56h12M53 56h9M28 57h13M53 57h9M63 57h1M28 58h14M52 58h8M62 58h2M29 59h14M52 59h4M58 59h6M29 60h2M32 60h2M35 60h8M51 60h3M56 60h7M30 61h1M32 61h3M36 61h8M51 61h3M55 61h8M31 62h5M37 62h8M50 62h12M31 63h5M38 63h9M49 63h5M56 63h4M32 64h5M38 64h17M32 65h22M33 66h4M39 66h13M42 67h7" />
<path stroke="#317b4a" d="M35 27h1M34 28h1M33 29h1M33 30h1M32 31h1M32 32h1M52 32h2M32 33h1M54 33h2M32 34h1M56 34h2M58 35h1M31 36h1M30 37h1M29 38h1M28 39h1M62 39h1M28 40h1M63 40h1M27 41h1M63 41h1M27 42h1M64 42h1M26 43h1M64 43h1M26 44h1M64 44h1M26 45h1M65 45h1M25 46h1M65 46h1M25 47h1M65 47h1M25 48h1M65 48h1M25 49h1M65 49h1M25 50h1M65 50h1M25 51h1M65 51h1M25 52h1M64 52h1M25 53h1M64 53h1M26 54h1M64 54h1M26 55h1M63 55h1M26 56h1M63 56h1M27 57h1M62 57h1M64 57h1M27 58h1M61 58h1M64 58h1M28 59h1M64 59h1M28 60h1M63 60h1M29 61h1M63 61h1M30 62h1M62 62h1M30 63h1M60 63h2M31 64h1M55 64h5M31 65h1M54 65h1M32 66h1M37 66h2M52 66h2M33 67h4M39 67h3M49 67h3M42 68h7" />
<path stroke="#627b62" d="M40 29h3M38 30h2M43 30h2M45 31h1M46 32h1M45 33h1M43 34h2M42 37h6M40 38h2M48 38h3M38 39h2M51 39h2M37 40h1M53 40h1M36 41h1M41 50h1M43 53h1M52 55h1M50 60h1" />
<path stroke="#c5deb4" d="M40 30h3M39 31h6M40 32h6M41 33h4M43 38h5M40 39h1M42 39h9M38 40h2M41 40h12M37 41h3M41 41h13M36 42h3M40 42h13M35 43h4M40 43h11M36 44h3M40 44h9M38 45h1M40 45h5M49 59h2M44 60h6M45 61h5M47 62h2" />
<path stroke="#101010" d="M37 31h1M36 32h1M36 33h1M37 34h2M39 35h4M42 38h1M41 39h1M40 40h1M40 41h1M54 41h1M35 42h1M39 42h1M55 42h1M34 43h1M39 43h1M55 43h1M34 44h1M39 44h1M56 44h1M33 45h1M39 45h1M56 45h1M33 46h1M39 46h1M56 46h1M33 47h1M39 47h1M56 47h1M33 48h1M40 48h1M56 48h1M33 49h1M40 49h1M55 49h1M33 50h1M55 50h1M34 51h1M41 51h1M54 51h1M34 52h1M42 52h1M53 52h1M55 52h1M35 53h1M52 53h1M55 53h1M36 54h1M54 54h1M37 55h2M53 55h1M39 56h3M52 56h1M41 57h1M52 57h1M42 58h1M51 58h1M43 59h1M51 59h1M43 60h1M44 61h1M50 61h1M45 62h2M49 62h1M47 63h2" />
<path stroke="#9cbd8b" d="M38 31h1M37 32h3M37 33h4M39 34h4M53 42h2M51 43h4M35 44h1M49 44h7M34 45h4M45 45h11M34 46h5M40 46h16M34 47h5M40 47h16M34 48h6M41 48h15M34 49h6M41 49h14M34 50h7M42 50h13M35 51h6M42 51h12M35 52h7M43 52h10M54 52h1M36 53h7M44 53h8M53 53h2M37 54h17M39 55h13M42 56h10M42 57h10M43 58h8M44 59h5" />
<path stroke="#83dea4" d="M53 36h1M56 36h1M54 38h1M57 38h1" />
<path stroke="#e6ffde" d="M54 36h2M53 37h5M55 38h2" />
</svg>