<svg xmlns="http://www.w3.org/2000/svg" viewBox="0 -0.5 96 96" shape-rendering="crispEdges">
<metadata>Made with Pixels to Svg https://codepen.io/shshaw/pen/XbxvNj</metadata>
<path stroke="#4a5273" d="M44 29h2M44 31h1M42 34h1M43 35h1M40 39h1M41 40h1M40 41h1M42 41h1M38 42h2M37 43h1M37 44h1M36 45h1M36 46h1M35 47h1M57 52h1M57 53h1M54 56h1M42 57h1M50 57h1M43 58h1M52 58h1M44 59h1" />
<path stroke="#7b8bbd" d="M46 29h1M47 30h1M48 31h1M49 32h1M49 33h2M49 34h1M51 34h1M48 35h1M52 35h1M41 36h1M44 36h1M53 36h1M53 37h1M53 38h1M41 39h1M52 39h1M51 40h2M41 41h1M49 41h2M53 41h2M55 42h1M38 43h1M56 43h1M56 44h1M57 45h1M57 46h1M58 51h1M54 55h1M52 56h1M43 57h2M49 57h1M48 58h1" />
<path stroke="#000000" d="M43 30h1M44 32h1M43 33h1M43 34h1M41 35h1M40 36h1M40 37h1M40 38h1M35 48h1M35 49h1M35 50h1M35 51h1M36 52h1M36 53h1M37 54h1M56 54h1M38 55h1M55 55h1M39 56h2M53 56h1M41 57h1M51 57h2M40 58h1M41 59h3M49 59h3M45 60h3M39 61h2M42 61h1M42 62h1M52 62h2M43 63h1M43 64h1M44 65h4" />
<path stroke="#ffffff" d="M44 30h3M45 31h3M46 32h3M47 33h1M49 35h3M48 36h5M47 37h6M49 38h3M49 42h4M48 43h7M48 44h8M49 45h7M52 46h5M54 47h3M55 48h3M55 49h3M56 50h2M56 51h1M56 52h1M44 62h1M45 63h1" />
<path stroke="#d5d5ee" d="M45 32h1M46 33h1M46 37h1M48 38h1M48 42h1M53 42h1M47 43h1M55 43h1M56 45h1M51 46h1M53 47h1M54 48h1M55 50h1" />
<path stroke="#bdbdde" d="M44 33h2M48 33h1M44 34h5M50 34h1M42 35h1M44 35h4M42 36h2M45 36h3M41 37h5M41 38h7M52 38h1M42 39h10M42 40h9M43 41h6M51 41h2M40 42h8M54 42h1M39 43h8M38 44h10M37 45h12M37 46h14M36 47h17M57 47h1M36 48h2M39 48h15M36 49h1M40 49h9M50 49h5M36 50h1M40 50h8M51 50h4M36 51h2M39 51h9M51 51h5M57 51h1M37 52h12M50 52h6M37 53h20M38 54h18M39 55h15M41 56h11M45 57h4M41 58h2M44 58h4M49 58h3M45 59h3" />
<path stroke="#6aa4ee" d="M58 47h1M38 48h1M59 48h1M37 49h3M49 49h1M58 49h1M38 50h1M48 50h3M49 51h1M52 59h1M43 60h2M48 60h2M43 61h2M47 61h1M51 61h1M50 62h1M46 63h3M44 64h1M46 64h3" />
<path stroke="#a4def6" d="M58 48h1M40 60h2M51 60h3M45 61h1M49 61h1M52 61h3M45 62h2M48 62h2M44 63h1M49 63h1" />
<path stroke="#2962ac" d="M59 49h1M37 50h1M39 50h1M58 50h1M38 51h1M48 51h1M50 51h1M49 52h1M40 59h1M53 59h1M42 60h1M50 60h1M54 60h1M46 61h1M48 61h1M50 61h1M43 62h1M47 62h1M50 63h1M50 64h1" />
<path stroke="#20527b" d="M48 59h1M39 60h1M41 61h1M55 61h1M51 62h1M54 62h1M45 64h1M49 64h1M48 65h2" />
</svg>