<svg xmlns="http://www.w3.org/2000/svg" viewBox="0 -0.5 96 96" shape-rendering="crispEdges">
<metadata>Made with Pixels to Svg https://codepen.io/shshaw/pen/XbxvNj</metadata>
<path stroke="#413131" d="M41 21h10M38 22h3M51 22h3M36 23h2M35 24h1M69 36h1M69 37h1M70 38h1M70 39h1M70 40h1M23 41h1M67 42h1M37 48h1M50 48h1M22 49h4M66 49h6M20 50h8M64 50h2M72 50h2M20 51h3M27 51h3M36 51h1M55 51h1M63 51h1M74 51h1M19 52h3M28 52h3M36 52h1M62 52h1M75 52h1M19 53h3M27 53h1M29 53h3M62 53h1M76 53h1M18 54h3M27 54h1M30 54h2M35 54h1M61 54h1M76 54h1M18 55h3M22 55h1M31 55h2M61 55h1M76 55h1M18 56h3M31 56h3M61 56h1M75 56h2M18 57h3M57 57h1M61 57h1M75 57h3M18 58h3M58 58h3M75 58h3M18 59h3M61 59h4M76 59h2M19 60h3M76 60h2M19 61h3M29 61h3M75 61h3M20 62h3M24 62h1M74 62h3M20 63h4M63 63h1M74 63h3M21 64h3M63 64h1M74 64h2M22 65h4M64 65h1M73 65h3M23 66h7M64 66h2M72 66h3M26 67h4M31 67h1M58 67h1M65 67h2M70 67h4M31 68h2M57 68h1M67 68h5M33 69h2M54 69h4M32 70h1M34 70h4M51 70h4M32 71h2M35 71h17M55 71h1M33 72h2M38 72h10M52 72h2M35 73h3M48 73h4M38 74h11" />
<path stroke="#624a41" d="M41 22h10M38 23h3M50 23h3M54 23h3M36 24h3M51 24h3M57 24h2M36 25h3M51 25h4M59 25h1M36 26h4M49 26h6M60 26h2M37 27h17M62 27h1M39 28h13M63 28h1M39 29h9M64 29h1M39 30h4M65 30h1M38 31h4M66 31h1M38 32h3M66 32h1M37 33h4M67 33h1M37 34h4M68 34h1M37 35h3M68 35h1M36 36h4M36 37h4M36 38h4M69 38h1M23 39h1M35 39h4M68 39h2M23 40h2M35 40h4M66 40h4M24 41h2M35 41h4M65 41h4M24 42h3M35 42h4M63 42h4M25 43h4M34 43h5M60 43h6M27 44h5M34 44h5M57 44h7M29 45h10M52 45h10M31 46h28M34 47h22M38 48h12M37 50h1M66 50h6M64 51h10M27 52h1M56 52h1M63 52h2M71 52h4M36 53h1M56 53h1M63 53h1M72 53h4M21 54h1M56 54h1M62 54h3M71 54h1M73 54h3M27 55h1M30 55h1M57 55h1M62 55h1M70 55h1M74 55h2M23 56h1M55 56h1M57 56h1M62 56h1M74 56h1M56 57h1M62 57h1M28 58h1M61 58h2M66 58h1M21 59h1M65 59h1M75 59h1M55 60h1M75 60h1M22 61h1M25 61h1M28 61h1M67 61h1M72 61h1M64 62h3M73 62h1M24 64h1M64 64h1M69 64h1M73 64h1M26 65h1M69 65h1M31 66h1M69 66h1M32 67h1M67 67h1M33 68h1M56 68h1M35 69h1M53 69h1M38 70h1M50 70h1" />
<path stroke="#9c9483" d="M41 23h1M49 23h1M50 25h1M40 26h1M48 26h1M48 29h1M43 30h1M41 32h1M40 35h1M68 38h1M39 39h1M47 39h2M67 39h1M46 40h1M49 40h1M45 41h1M50 41h1M45 42h1M49 42h1M46 43h3M56 44h1M39 45h1M51 45h1M51 49h4M38 50h17M23 51h1M26 51h1M37 51h18M22 52h1M38 52h15M55 52h1M65 52h1M70 52h1M25 53h2M28 53h1M40 53h7M22 54h5M28 54h2M21 55h1M23 55h4M28 55h2M63 55h1M65 55h1M73 55h1M21 56h2M24 56h7M69 56h1M21 57h10M33 57h1M74 57h1M21 58h7M31 58h3M67 58h1M74 58h1M22 59h11M54 59h1M72 59h3M22 60h11M70 60h5M23 61h2M26 61h2M33 61h1M68 61h4M73 61h2M23 62h1M25 62h6M32 62h2M59 62h1M67 62h6M24 63h7M32 63h3M64 63h10M25 64h5M31 64h5M58 64h1M65 64h4M70 64h3M27 65h3M31 65h7M57 65h2M65 65h4M70 65h3M32 66h9M56 66h3M66 66h3M70 66h2M33 67h12M53 67h5M68 67h2M34 68h22M36 69h17M39 70h11" />
<path stroke="#cdc5c5" d="M42 23h7M53 23h1M39 24h12M54 24h3M39 25h11M55 25h4M41 26h7M55 26h5M54 27h8M52 28h11M49 29h15M44 30h21M42 31h24M42 32h24M41 33h26M41 34h27M41 35h27M40 36h29M40 37h29M40 38h28M40 39h7M49 39h18M39 40h7M47 40h2M50 40h16M39 41h6M46 41h4M51 41h14M39 42h6M46 42h3M50 42h13M39 43h7M49 43h11M39 44h17M40 45h11M24 51h2M23 52h4M37 52h1M53 52h2M66 52h4M22 53h3M37 53h3M47 53h9M64 53h8M36 54h20M65 54h6M72 54h1M36 55h21M64 55h1M66 55h4M71 55h2M35 56h20M56 56h1M63 56h6M70 56h4M35 57h21M63 57h11M35 58h23M63 58h3M68 58h6M34 59h20M55 59h6M66 59h6M34 60h21M56 60h14M34 61h22M57 61h10M34 62h23M60 62h4M35 63h24M36 64h22M38 65h19M41 66h15M45 67h8" />
<path stroke="#6a314a" d="M34 24h1M33 25h1M31 26h2M30 27h1M29 28h1M28 29h1" />
<path stroke="#de528b" d="M34 25h1M33 26h3M31 27h5M30 28h8M29 29h10M28 30h1M30 30h8M27 31h3M31 31h7M27 32h3M31 32h6M26 33h3M30 33h7M26 34h3M30 34h7M25 35h1M27 35h1M29 35h7M24 36h3M28 36h8M24 37h12M24 38h6M31 38h4M24 39h5M30 39h1M32 39h3M25 40h4M30 40h1M32 40h3M26 41h4M31 41h4M28 42h6M30 43h4M32 44h2" />
<path stroke="#ac3162" d="M35 25h1M36 27h1M38 28h1M29 30h1M38 30h1M30 31h1M26 32h1M30 32h1M37 32h1M29 33h1M25 34h1M29 34h1M26 35h1M28 35h1M36 35h1M27 36h1M23 38h1M30 38h1M35 38h1M29 39h1M31 39h1M29 40h1M31 40h1M30 41h1M27 42h1M34 42h1M29 43h1" />
<path stroke="#000000" d="M27 30h1M26 31h1M25 32h1M25 33h1M24 34h1M24 35h1M23 36h1M23 37h1M22 38h1M22 39h1M22 40h1M69 41h1M23 42h1M68 42h1M24 43h1M66 43h2M25 44h2M64 44h2M27 45h2M62 45h2M29 46h2M59 46h3M31 47h3M56 47h3M22 48h4M34 48h3M51 48h5M20 49h2M26 49h2M37 49h14M55 49h1M19 50h1M28 50h2M55 50h1M19 51h1M30 51h1M18 52h1M31 52h1M18 53h1M32 53h1M17 54h1M32 54h1M17 55h1M33 55h1M35 55h1M77 55h1M17 56h1M34 56h1M77 56h1M17 57h1M31 57h2M34 57h1M78 57h1M17 58h1M29 58h2M34 58h1M78 58h1M17 59h1M33 59h1M78 59h1M18 60h1M33 60h1M78 60h1M18 61h1M32 61h1M56 61h1M78 61h1M19 62h1M31 62h1M57 62h2M77 62h1M19 63h1M31 63h1M59 63h4M77 63h1M20 64h1M30 64h1M59 64h1M62 64h1M76 64h1M21 65h1M30 65h1M59 65h1M63 65h1M76 65h1M22 66h1M30 66h1M59 66h1M63 66h1M75 66h1M23 67h3M30 67h1M59 67h1M64 67h1M74 67h1M26 68h5M58 68h1M65 68h2M72 68h2M30 69h1M58 69h1M67 69h5M31 70h1M57 70h1M31 71h1M56 71h1M32 72h1M54 72h2M33 73h2M52 73h2M35 74h3M49 74h3M38 75h11" />
<path stroke="#291818" d="M31 69h2M33 70h1M55 70h2M34 71h1M52 71h3M35 72h3M48 72h4M38 73h10" />
</svg>