<svg xmlns="http://www.w3.org/2000/svg" viewBox="0 -0.5 96 96" shape-rendering="crispEdges">
<metadata>Made with Pixels to Svg https://codepen.io/shshaw/pen/XbxvNj</metadata>
<path stroke="#182941" d="M39 25h1M40 26h1M19 27h2M38 27h1M19 28h1M21 28h1M19 29h1M21 29h1M37 29h1M22 30h1M37 30h1M16 31h2M22 31h2M32 31h2M36 31h1M18 32h1M23 32h1M34 32h1M36 32h1M24 33h1M35 33h1M41 33h2M24 34h1M41 34h1M17 35h1M25 35h1M18 36h1M26 36h1M43 36h1M28 37h1M32 37h1M61 37h1M19 38h1M29 38h1M61 38h1M20 39h1M30 39h2M21 40h1M27 40h1M32 40h1M43 41h1M63 41h1M22 42h1M33 42h1M44 42h1M63 42h1M21 43h1M45 43h1M65 43h1M20 44h1M45 44h1M65 44h1M22 45h1M65 45h1M48 46h1M47 48h1M47 49h1M66 51h1M49 52h1M63 52h1M45 53h4M62 53h1M66 53h1M63 54h2M77 57h1M77 58h1M21 59h1M21 60h2M22 61h1M59 62h1M61 62h2M76 62h1M54 63h1M58 63h1M55 65h1M57 66h1" />
<path stroke="#101010" d="M38 26h1M40 27h1M37 28h1M40 28h1M40 29h1M19 30h1M41 30h1M15 31h1M19 31h1M41 31h1M15 32h1M19 32h1M32 32h1M41 32h1M43 32h4M16 33h1M32 33h1M44 33h1M16 34h1M32 34h1M44 34h1M64 34h1M32 35h1M44 35h1M64 35h1M32 36h1M53 36h1M55 36h1M18 37h1M27 37h1M43 37h1M50 37h1M53 37h1M55 37h1M27 38h1M33 38h1M43 38h1M50 38h1M27 39h1M33 39h1M42 39h1M50 39h1M56 39h1M28 40h1M33 40h1M42 40h1M51 40h1M56 40h1M63 40h1M21 41h1M28 41h1M33 41h1M42 41h1M44 41h1M51 41h1M56 41h1M70 41h1M47 42h2M50 42h2M46 43h1M48 43h2M51 43h1M57 43h1M63 43h1M71 43h1M49 44h1M51 44h1M57 44h1M63 44h1M72 44h1M21 45h1M23 45h1M48 45h1M51 45h1M57 45h1M62 45h1M66 45h1M72 45h1M23 46h2M51 46h1M62 46h1M64 46h1M66 46h1M73 46h1M24 47h1M47 47h1M50 47h2M58 47h1M61 47h1M64 47h1M66 47h1M74 47h1M25 48h1M49 48h1M51 48h1M58 48h1M63 48h1M67 48h1M76 48h1M81 48h1M26 49h1M48 49h1M51 49h1M58 49h1M62 49h1M67 49h1M80 49h1M20 50h1M27 50h1M51 50h1M59 50h1M68 50h1M78 50h1M20 51h1M28 51h2M51 51h1M60 51h1M65 51h1M68 51h1M79 51h1M30 52h3M50 52h1M61 52h1M64 52h1M67 52h1M79 52h1M19 53h1M33 53h3M50 53h1M61 53h1M67 53h1M79 53h1M19 54h1M36 54h9M49 54h1M62 54h1M65 54h1M67 54h1M80 54h1M19 55h1M37 55h1M49 55h1M62 55h1M67 55h1M79 55h1M20 56h1M49 56h1M62 56h1M68 56h1M77 56h1M80 56h1M38 57h1M40 57h1M43 57h2M46 57h1M49 57h1M61 57h1M69 57h1M78 57h3M18 58h3M28 58h1M38 58h2M41 58h1M44 58h3M61 58h1M69 58h1M24 59h2M28 59h1M40 59h1M43 59h1M50 59h1M69 59h3M73 59h1M77 59h1M25 60h4M41 60h2M51 60h1M71 60h2M77 60h1M24 61h1M74 61h1M22 62h2M51 62h1M54 62h1M75 62h1M51 63h2M55 64h1M58 64h1M58 65h1M56 66h1" />
<path stroke="#3952b4" d="M39 26h1M39 27h1M20 28h1M38 28h2M20 29h1M38 29h2M20 30h2M38 30h3M21 31h1M37 31h4M21 32h2M33 32h1M37 32h4M22 33h1M33 33h2M36 33h5M43 33h1M23 34h1M33 34h8M42 34h2M33 35h11M33 36h10M36 37h7M40 38h3" />
<path stroke="#393941" d="M33 30h4M30 31h2M42 31h3M28 32h2M27 33h1M47 33h2M26 34h1M49 34h2M51 35h1M51 36h2M52 37h1M65 47h1M65 48h1M65 49h1M64 50h1M64 51h1" />
<path stroke="#29397b" d="M20 31h1M16 32h2M20 32h1M17 33h5M23 33h1M17 34h6M18 35h7M19 36h7M19 37h8M33 37h3M20 38h7M28 38h1M34 38h6M21 39h6M28 39h2M34 39h8M22 40h5M29 40h3M34 40h8M22 41h6M29 41h4M34 41h8M23 42h10M34 42h10M64 42h1M22 43h23M47 43h1M50 43h1M64 43h1M21 44h24M46 44h3M50 44h1M64 44h1M24 45h24M49 45h2M63 45h2M25 46h23M49 46h2M63 46h1M25 47h22M48 47h2M62 47h2M26 48h21M48 48h1M50 48h1M61 48h2M27 49h20M49 49h2M61 49h1M28 50h23M67 50h1M30 51h21M67 51h1M33 52h16M65 52h2M36 53h9M63 53h3M40 58h1M42 58h2M74 58h1M41 59h2M74 59h3M23 60h2M73 60h4M23 61h1M58 61h1M75 61h2M55 62h2M58 62h1M55 63h3M56 64h2M56 65h2" />
<path stroke="#ffde52" d="M34 31h2M31 32h1M35 32h1M42 32h1M45 33h2M65 35h1M54 36h1M64 36h2M47 37h3M54 37h1M64 37h3M49 38h1M51 38h1M53 38h3M62 38h6M51 39h5M63 39h5M52 40h4M64 40h5M52 41h4M57 41h2M64 41h6M52 42h5M58 42h4M65 42h5M53 43h4M59 43h4M67 43h2M54 44h2M61 44h2M74 46h2M75 47h2M64 48h1M80 50h1" />
<path stroke="#9c8318" d="M30 32h1M29 33h1M28 35h1M47 40h1M46 41h1M45 42h1M73 45h3M76 46h3M24 48h1M22 49h4M21 50h6M79 50h1M21 51h7M78 51h1M20 52h9M20 53h10M20 54h10M45 54h1M21 55h9M38 55h7M19 56h1M21 56h9M39 56h7M19 57h10M39 57h1M41 57h1M45 57h1M22 58h3M26 58h2M22 59h2M27 59h1" />
<path stroke="#736a6a" d="M28 33h1M27 34h2M26 35h2M27 36h1M32 39h1M48 40h3M47 41h4M46 42h1M49 42h1M59 49h2M60 50h4M61 51h3M62 52h1" />
<path stroke="#cdac00" d="M30 33h2M29 34h3M47 34h2M29 35h3M28 36h4M66 36h1M29 37h3M44 37h3M30 38h3M44 38h5M43 39h7M43 40h4M45 41h1M52 43h1M58 43h1M66 43h1M69 43h2M52 44h2M56 44h1M58 44h3M66 44h6M52 45h5M58 45h4M67 45h5M52 46h6M59 46h3M67 46h6M52 47h6M59 47h2M67 47h7M77 47h2M52 48h6M59 48h1M68 48h7M77 48h4M52 49h6M64 49h1M68 49h9M78 49h2M52 50h7M69 50h9M52 51h8M69 51h9M51 52h10M68 52h11M51 53h10M68 53h10M50 54h12M68 54h12M50 55h12M68 55h11M50 56h12M69 56h8M78 56h2M50 57h11M70 57h4M75 57h2M51 58h10M70 58h1M72 58h2M76 58h1M51 59h1M53 59h8M72 59h1M53 60h9M52 61h3M56 61h2M59 61h1M61 61h1M52 62h1M57 62h1" />
<path stroke="#9c839c" d="M45 34h2M45 35h6M44 36h7" />
<path stroke="#6a5239" d="M65 34h1M54 35h1M66 35h1M63 36h1M67 36h1M51 37h1M62 37h2M67 37h1M52 38h1M56 38h1M68 38h1M62 39h1M68 39h1M57 40h2M69 40h1M59 41h3M57 42h1M62 42h1M70 42h1M58 46h1M79 47h2M22 48h2M60 48h1M75 48h1M21 49h1M63 49h1M77 49h1M66 50h1M81 50h1M80 51h2M19 52h1M29 52h1M30 53h1M78 53h1M30 54h1M46 54h1M20 55h1M30 55h1M45 55h1M18 56h1M30 56h1M38 56h1M46 56h1M18 57h1M29 57h1M42 57h1M74 57h1M21 58h1M25 58h1M50 58h1M71 58h1M75 58h1M26 59h1M52 59h1M61 59h1M52 60h1M62 60h1M51 61h1M55 61h1M60 61h1M62 61h1M53 62h1" />
</svg>