<svg xmlns="http://www.w3.org/2000/svg" viewBox="0 -0.5 96 96" shape-rendering="crispEdges">
<metadata>Made with Pixels to Svg https://codepen.io/shshaw/pen/XbxvNj</metadata>
<path stroke="#4a4a4a" d="M24 18h1M27 18h1M38 18h2M23 19h1M28 19h1M38 19h1M29 20h2M39 20h1M22 21h1M28 21h2M39 21h1M39 22h1M43 22h2M49 22h2M23 23h1M39 23h1M42 23h1M51 23h1M37 24h4M50 24h1M38 25h1M40 25h2M51 25h1M34 26h2M51 26h1M21 27h2M35 27h2M51 27h2M60 27h2M19 28h1M22 28h1M36 28h2M52 28h1M59 28h1M62 28h1M18 29h1M37 29h1M52 29h1M60 29h1M63 29h1M27 30h1M52 30h2M64 30h1M26 31h2M51 31h1M22 32h1M25 32h2M66 32h1M25 33h1M64 33h1M67 33h1M65 34h1M67 34h1M42 35h1M48 35h1M64 35h2M63 36h2M62 37h2M62 38h1M28 39h1M38 39h1M52 39h1M62 39h2M27 40h1M30 40h1M63 40h1M63 41h1M63 42h2M67 42h2M29 43h1M63 43h1M70 43h1M26 44h1M62 44h1M66 44h2M69 44h1M32 45h1M34 45h1M56 45h1M58 45h1M70 45h1M70 46h1M70 47h1M70 48h1M70 49h1M70 50h1M28 52h1M34 52h1M56 52h1M58 52h1M68 52h1M63 53h1M33 54h1M34 56h1M56 56h1M30 57h1M37 57h1M53 57h1M62 57h1M62 58h2M41 59h1M49 59h1M63 59h3M64 60h2M41 61h1M49 61h1M65 61h1M53 63h1M64 63h1M39 64h1M54 64h1M36 65h1M52 65h2M52 66h1M52 67h1M51 68h2M42 69h1M51 69h1" />
<path stroke="#101010" d="M25 18h1M26 19h1M27 20h1M30 21h3M23 22h1M38 22h1M45 22h4M38 23h1M42 24h2M47 24h3M50 25h1M41 26h1M50 26h1M33 27h2M41 27h1M32 28h1M35 28h1M40 28h1M58 28h1M33 29h1M36 29h1M40 29h1M51 29h1M57 29h1M18 30h1M34 30h1M37 30h1M40 30h1M51 30h1M56 30h1M18 31h1M35 31h1M38 31h2M52 31h4M19 32h3M27 32h1M36 32h2M23 33h1M26 33h1M23 34h1M26 34h1M64 34h1M24 35h1M26 35h1M43 35h5M63 35h1M24 36h1M27 36h1M40 36h11M62 36h1M23 37h1M28 37h1M38 37h4M49 37h4M23 38h1M29 38h1M37 38h3M51 38h3M63 38h1M23 39h1M29 39h2M36 39h2M53 39h2M24 40h1M28 40h1M35 40h2M54 40h2M25 41h3M29 41h1M34 41h2M55 41h2M29 42h1M34 42h2M55 42h2M70 42h1M33 43h2M56 43h2M33 44h2M56 44h2M71 44h1M33 45h1M57 45h1M69 45h1M71 45h1M32 46h2M57 46h2M69 46h1M71 46h1M32 47h2M57 47h2M69 47h1M71 47h1M32 48h2M57 48h2M69 48h1M71 48h1M32 49h2M57 49h2M69 49h1M71 49h1M32 50h2M57 50h2M71 50h1M32 51h2M57 51h2M70 51h1M33 52h1M57 52h1M69 52h1M33 53h2M56 53h2M64 53h5M34 54h1M56 54h2M63 54h1M34 55h2M55 55h2M62 55h1M35 56h2M54 56h2M62 56h1M35 57h2M54 57h2M61 57h1M36 58h3M52 58h3M37 59h4M50 59h4M62 59h1M39 60h13M42 61h7M29 63h1M65 63h1M30 64h1M38 64h1M55 64h1M64 64h1M31 65h1M37 65h1M56 65h1M62 65h1M32 66h1M35 66h1M57 66h1M60 66h2M33 67h2M59 67h1M43 71h4" />
<path stroke="#6a6a73" d="M26 18h1M36 18h2M27 19h1M35 19h1M39 19h1M22 20h1M28 20h1M34 20h1M40 20h1M33 21h1M40 21h1M29 23h4M43 23h8M24 24h1M27 24h8M23 25h1M25 25h11M39 25h1M23 26h1M25 26h9M36 26h1M38 26h1M40 26h1M25 27h4M40 27h1M20 28h2M24 28h4M60 28h2M24 29h4M61 29h2M24 30h3M62 30h2M24 31h2M63 31h2M64 32h2M65 33h2M35 39h1M55 39h1M64 43h6M24 49h1M32 52h1M50 70h1" />
<path stroke="#d5deee" d="M24 19h2M36 19h2M23 20h4M35 20h4M23 21h5M34 21h5M24 22h14M24 23h4M33 23h5M25 24h1M35 24h2M24 25h1M24 26h1M23 27h1M23 28h1M19 29h5M19 30h5M19 31h5" />
<path stroke="#292929" d="M40 19h1M41 20h1M41 21h1M40 22h1M40 23h1M52 23h1M44 24h3M51 24h2M52 25h1M39 26h1M52 26h1M39 27h1M50 27h1M31 28h1M33 28h2M51 28h1M53 28h1M30 29h1M34 29h2M53 29h1M29 30h1M35 30h2M54 30h2M61 30h1M28 31h1M36 31h2M62 31h1M65 31h1M63 32h1M66 34h1M66 35h1M65 36h1M61 37h1M64 37h1M61 38h1M61 39h1M62 40h1M64 40h1M62 41h1M64 41h1M62 42h1M65 42h2M69 42h1M27 43h2M62 43h1M71 43h1M24 44h2M63 44h3M68 44h1M70 44h1M23 45h1M23 46h1M23 47h1M23 48h1M23 49h1M24 50h1M69 50h1M24 51h1M69 51h1M24 52h4M28 53h1M28 54h1M28 55h1M29 56h1M29 57h1M63 57h1M29 58h1M61 58h1M64 58h1M28 59h1M27 60h1M63 60h1M66 60h1M27 61h1M64 61h1M66 61h1M28 62h1M65 62h1M54 63h1M52 64h2M63 64h1M40 65h2M51 65h1M41 66h1M51 66h1M53 66h1M41 67h1M51 67h1M53 67h1M58 67h1M41 68h1M53 68h1M52 69h1M42 70h1M51 70h1M42 71h1M47 71h4" />
<path stroke="#a4a4ac" d="M28 23h1M26 24h1M42 25h8M42 26h8M24 27h1M42 27h8M41 28h10M31 29h2M41 29h10M58 29h2M30 30h4M41 30h10M57 30h4M29 31h6M41 31h10M56 31h6M28 32h8M38 32h25M27 33h37M27 34h37M27 35h15M49 35h14M28 36h12M51 36h11M29 37h9M42 37h7M53 37h8M30 38h7M40 38h11M54 38h7M31 39h4M39 39h13M56 39h5M31 40h4M37 40h17M56 40h5M30 41h4M36 41h19M57 41h3M30 42h4M36 42h19M57 42h1M30 43h3M35 43h8M47 43h9M27 44h6M35 44h6M49 44h6M24 45h8M35 45h5M50 45h3M24 46h8M34 46h6M50 46h2M24 47h8M34 47h5M24 48h8M34 48h5M25 49h7M34 49h5M25 50h7M34 50h5M25 51h7M34 51h6M29 52h3M35 52h3M29 53h4M35 53h1M29 54h4M30 55h1" />
<path stroke="#9494b4" d="M36 25h2M37 26h1M37 27h2M38 28h2M38 29h2M38 30h2M23 32h2M24 33h1M24 34h2M25 35h1M25 36h2M24 37h4M24 38h5M24 39h4M25 40h2" />
<path stroke="#298b94" d="M29 27h3M28 28h3M28 29h2M28 30h1M43 43h4M41 44h2M47 44h2M40 45h1M49 45h1M40 46h1M39 47h1M49 47h1M39 48h1M47 48h3M39 49h1M44 49h6M39 50h1M42 50h8M41 51h8M41 52h8M43 53h4" />
<path stroke="#316262" d="M32 27h1M49 46h1M50 47h1M50 48h1M50 49h1M50 50h1M40 51h1M49 51h1M40 52h1M49 52h1M41 53h2M47 53h2M43 54h4" />
<path stroke="#73738b" d="M40 31h1M61 40h1M60 41h2M58 42h4M58 43h4M55 44h1M58 44h4M53 45h3M59 45h10M52 46h5M59 46h10M51 47h6M59 47h10M51 48h6M59 48h10M51 49h6M59 49h10M51 50h6M59 50h10M50 51h7M59 51h10M38 52h2M50 52h6M59 52h9M36 53h5M49 53h7M58 53h5M35 54h8M47 54h9M58 54h5M29 55h1M31 55h3M36 55h19M57 55h5M30 56h4M37 56h17M57 56h5M31 57h4M38 57h15M56 57h5M30 58h6M39 58h13M55 58h6M29 59h8M42 59h7M54 59h8M28 60h11M52 60h11M28 61h13M50 61h14M29 62h36M30 63h23M55 63h9M31 64h7M40 64h12M56 64h7M32 65h4M42 65h9M57 65h5M33 66h2M42 66h9M58 66h2M42 67h9M42 68h9M43 69h8M43 70h7" />
<path stroke="#29acbd" d="M43 44h4M41 45h8M41 46h8M40 47h9M40 48h7M40 49h4M40 50h2" />
</svg>