<svg xmlns="http://www.w3.org/2000/svg" viewBox="0 -0.5 96 96" shape-rendering="crispEdges">
<metadata>Made with Pixels to Svg https://codepen.io/shshaw/pen/XbxvNj</metadata>
<path stroke="#4a4a4a" d="M24 17h1M27 17h1M38 17h2M23 18h1M28 18h1M38 18h1M29 19h2M39 19h1M22 20h1M28 20h2M39 20h1M39 21h1M43 21h2M49 21h2M23 22h1M39 22h1M42 22h1M51 22h1M37 23h4M50 23h1M38 24h1M40 24h2M51 24h1M34 25h2M51 25h1M21 26h2M35 26h2M51 26h2M60 26h2M19 27h1M22 27h1M36 27h2M52 27h1M59 27h1M62 27h1M18 28h1M37 28h1M52 28h1M60 28h1M63 28h1M27 29h1M52 29h2M64 29h1M26 30h2M51 30h1M22 31h1M25 31h2M66 31h1M25 32h1M64 32h1M67 32h1M65 33h1M67 33h1M42 34h1M48 34h1M64 34h2M63 35h2M62 36h2M62 37h1M28 38h1M38 38h1M52 38h1M62 38h2M27 39h1M30 39h1M63 39h1M63 40h1M63 41h2M67 41h2M29 42h1M63 42h1M70 42h1M26 43h1M62 43h1M66 43h2M69 43h1M32 44h1M34 44h1M56 44h1M58 44h1M70 44h1M70 45h1M70 46h1M70 47h1M70 48h1M70 49h1M28 51h1M32 51h1M34 51h1M56 51h1M58 51h1M68 51h1M63 52h1M33 53h1M27 54h1M63 54h4M70 54h2M20 55h1M34 55h1M56 55h1M67 55h1M21 56h1M30 56h1M37 56h1M53 56h1M62 56h1M70 56h1M20 57h1M28 57h1M62 57h2M65 57h1M73 57h1M20 58h1M41 58h1M49 58h1M63 58h2M66 58h4M75 58h1M19 59h1M64 59h2M70 59h2M75 59h2M19 60h1M23 60h1M41 60h1M49 60h1M65 60h1M72 60h1M74 60h1M19 61h1M23 61h1M19 62h1M24 62h1M53 62h1M64 62h1M72 62h1M20 63h1M25 63h1M39 63h1M54 63h1M70 63h2M36 64h1M52 64h2M67 64h3M52 65h1M71 65h1M74 65h1M52 66h1M56 66h3M70 66h1M44 67h7M54 67h2M70 67h1M28 68h1M47 68h1M70 68h1M72 68h1M26 69h1M50 69h1M29 70h4M51 70h1M66 70h1M33 71h6M45 71h1M61 71h1M50 72h1M54 72h1M47 74h1" />
<path stroke="#101010" d="M25 17h1M26 18h1M27 19h1M30 20h3M23 21h1M38 21h1M45 21h4M38 22h1M42 23h2M47 23h3M50 24h1M41 25h1M50 25h1M33 26h2M41 26h1M32 27h1M35 27h1M40 27h1M58 27h1M33 28h1M36 28h1M40 28h1M51 28h1M57 28h1M18 29h1M34 29h1M37 29h1M40 29h1M51 29h1M56 29h1M18 30h1M35 30h1M38 30h2M52 30h4M19 31h3M27 31h1M36 31h2M23 32h1M26 32h1M23 33h1M26 33h1M64 33h1M24 34h1M26 34h1M43 34h5M63 34h1M24 35h1M27 35h1M40 35h11M62 35h1M23 36h1M28 36h1M38 36h4M49 36h4M23 37h1M29 37h1M37 37h3M51 37h3M63 37h1M23 38h1M29 38h2M36 38h2M53 38h2M24 39h1M28 39h1M35 39h2M54 39h2M25 40h3M29 40h1M34 40h2M55 40h2M29 41h1M34 41h2M55 41h2M70 41h1M33 42h2M56 42h2M33 43h2M56 43h2M71 43h1M33 44h1M57 44h1M69 44h1M71 44h1M32 45h2M57 45h2M69 45h1M71 45h1M32 46h2M57 46h2M69 46h1M71 46h1M32 47h2M57 47h2M69 47h1M71 47h1M32 48h2M57 48h2M69 48h1M71 48h1M32 49h2M57 49h2M71 49h1M32 50h2M57 50h2M70 50h1M33 51h1M57 51h1M69 51h1M33 52h2M56 52h2M64 52h5M34 53h1M56 53h2M63 53h1M26 54h1M34 54h2M55 54h2M62 54h1M23 55h2M35 55h2M54 55h2M62 55h1M35 56h2M54 56h2M61 56h1M27 57h1M36 57h3M52 57h3M25 58h2M37 58h4M50 58h4M62 58h1M24 59h1M39 59h13M42 60h7M76 60h1M73 61h1M76 61h1M29 62h1M65 62h1M76 62h1M26 63h1M30 63h1M38 63h1M55 63h1M64 63h1M76 63h1M20 64h1M27 64h2M31 64h1M37 64h1M56 64h1M62 64h1M75 64h1M21 65h1M29 65h4M35 65h1M57 65h1M60 65h2M63 65h4M75 65h1M22 66h1M24 66h1M32 66h3M59 66h4M76 66h1M23 67h1M36 67h8M51 67h3M77 67h1M22 68h1M48 68h2M71 68h1M78 68h1M21 69h1M27 69h2M67 69h3M72 69h7M21 70h5M62 70h4M51 71h1M55 71h6M39 72h7M51 72h3M46 73h1M50 73h1M49 74h1M47 75h1M49 75h1M48 76h1" />
<path stroke="#6a6a73" d="M26 17h1M36 17h2M27 18h1M35 18h1M39 18h1M22 19h1M28 19h1M34 19h1M40 19h1M33 20h1M40 20h1M29 22h4M43 22h8M24 23h1M27 23h8M23 24h1M25 24h11M39 24h1M23 25h1M25 25h9M36 25h1M38 25h1M40 25h1M25 26h4M40 26h1M20 27h2M24 27h4M60 27h2M24 28h4M61 28h2M24 29h3M62 29h2M24 30h2M40 30h1M63 30h2M64 31h2M65 32h2M64 42h6M24 48h1M20 54h4M29 54h1M72 54h1M25 55h1M63 55h4M72 55h1M22 56h1M64 56h6M66 57h7M70 58h5M21 59h1M72 59h3M21 60h1M73 60h1M22 61h1M23 62h1M73 62h1M72 64h2M25 65h1M27 66h1M28 67h1M69 68h1M46 69h1" />
<path stroke="#d5deee" d="M24 18h2M36 18h2M23 19h4M35 19h4M23 20h5M34 20h5M24 21h14M24 22h4M33 22h5M25 23h1M35 23h2M24 24h1M24 25h1M23 26h1M23 27h1M19 28h5M19 29h5M19 30h5M20 59h1M20 60h1M20 61h2M20 62h3M21 63h4M21 64h6M22 65h3M27 65h2M72 65h2M25 66h2M28 66h4M71 66h4M24 67h4M29 67h6M74 67h2M23 68h5M29 68h12M22 69h3M30 69h10M47 69h1M34 70h4M46 70h2M46 71h2M47 72h1" />
<path stroke="#292929" d="M40 18h1M41 19h1M41 20h1M40 21h1M40 22h1M52 22h1M44 23h3M51 23h2M52 24h1M39 25h1M52 25h1M39 26h1M50 26h1M31 27h1M33 27h2M51 27h1M53 27h1M30 28h1M34 28h2M53 28h1M29 29h1M35 29h2M54 29h2M61 29h1M28 30h1M36 30h2M62 30h1M65 30h1M63 31h1M66 33h1M66 34h1M65 35h1M61 36h1M64 36h1M61 37h1M61 38h1M62 39h1M64 39h1M62 40h1M64 40h1M62 41h1M65 41h2M69 41h1M27 42h2M62 42h1M71 42h1M24 43h2M63 43h3M68 43h1M70 43h1M23 44h1M23 45h1M23 46h1M23 47h1M23 48h1M24 49h1M69 49h1M24 50h1M69 50h1M24 51h4M28 52h1M28 53h1M28 54h1M29 55h1M68 55h2M29 56h1M63 56h1M71 56h2M29 57h1M61 57h1M64 57h1M74 57h1M28 58h1M65 58h1M27 59h1M63 59h1M66 59h1M27 60h1M64 60h1M66 60h1M28 61h1M65 61h1M74 61h1M54 62h1M52 63h2M63 63h1M40 64h2M51 64h1M41 65h1M51 65h1M53 65h1M35 66h1M41 66h1M51 66h1M53 66h1" />
<path stroke="#a4a4ac" d="M28 22h1M26 23h1M42 24h8M42 25h8M24 26h1M42 26h8M41 27h10M31 28h2M41 28h10M58 28h2M30 29h4M41 29h10M57 29h4M29 30h6M41 30h10M56 30h6M28 31h8M38 31h25M27 32h37M27 33h37M27 34h15M49 34h14M28 35h12M51 35h11M29 36h9M42 36h7M53 36h8M30 37h7M40 37h11M54 37h7M31 38h4M39 38h13M56 38h5M31 39h4M37 39h17M56 39h5M30 40h4M36 40h19M57 40h3M30 41h4M36 41h19M57 41h1M30 42h3M35 42h8M47 42h9M27 43h6M35 43h6M49 43h7M24 44h8M35 44h5M50 44h4M24 45h8M34 45h6M50 45h2M24 46h8M34 46h5M24 47h8M34 47h5M25 48h7M34 48h5M25 49h7M34 49h5M25 50h7M34 50h6M29 51h3M35 51h3M29 52h4M35 52h1M29 53h4M30 54h1M26 65h1M45 70h1" />
<path stroke="#9494b4" d="M36 24h2M37 25h1M37 26h2M38 27h2M38 28h2M38 29h2M23 31h2M24 32h1M24 33h2M25 34h1M25 35h2M24 36h4M24 37h5M24 38h4M25 39h2M21 55h2M26 55h3M70 55h2M23 56h6M21 57h6M21 58h4M22 59h2M22 60h1M75 60h1M75 61h1M74 62h2M72 63h4M70 64h2M74 64h1M67 65h4M23 66h1M63 66h7M75 66h1M35 67h1M56 67h14M71 67h3M76 67h1M41 68h6M50 68h19M73 68h5M25 69h1M29 69h1M40 69h6M48 69h2M51 69h16M33 70h1M38 70h7M48 70h3M52 70h10M39 71h6M48 71h3M52 71h3M46 72h1M48 72h2M47 73h3M48 74h1M48 75h1" />
<path stroke="#29acbd" d="M29 26h3M28 27h3M28 28h2M43 43h4M41 44h8M41 45h8M40 46h10M40 47h7M40 48h5M40 49h2" />
<path stroke="#316262" d="M32 26h1M28 29h1M50 46h1M50 47h1M50 48h1M50 49h1M40 50h1M49 50h1M40 51h1M49 51h1M41 52h2M47 52h2M43 53h4" />
<path stroke="#73738b" d="M35 38h1M55 38h1M61 39h1M60 40h2M58 41h4M58 42h4M58 43h4M54 44h2M59 44h10M52 45h5M59 45h10M51 46h6M59 46h10M51 47h6M59 47h10M51 48h6M59 48h10M51 49h6M59 49h10M50 50h7M59 50h10M38 51h2M50 51h6M59 51h9M36 52h5M49 52h7M58 52h5M35 53h8M47 53h9M58 53h5M31 54h3M36 54h19M57 54h5M30 55h4M37 55h17M57 55h5M31 56h4M38 56h15M56 56h5M30 57h6M39 57h13M55 57h6M29 58h8M42 58h7M54 58h8M28 59h11M52 59h11M28 60h13M50 60h14M29 61h36M30 62h23M55 62h9M31 63h7M40 63h12M56 63h7M32 64h4M42 64h9M57 64h5M33 65h2M42 65h9M58 65h2M42 66h9" />
<path stroke="#298b94" d="M43 42h4M41 43h2M47 43h2M40 44h1M49 44h1M40 45h1M49 45h1M39 46h1M39 47h1M47 47h3M39 48h1M45 48h5M39 49h1M42 49h8M41 50h8M41 51h8M43 52h4" />
</svg>