<svg xmlns="http://www.w3.org/2000/svg" viewBox="0 -0.5 96 96" shape-rendering="crispEdges">
<metadata>Made with Pixels to Svg https://codepen.io/shshaw/pen/XbxvNj</metadata>
<path stroke="#5a5a7b" d="M36 31h6M42 32h2M44 33h2M61 38h1M39 39h3M50 39h1M60 39h1M54 40h5M64 40h1M49 41h1M43 42h1M46 42h1M56 42h1M60 42h1M63 42h1M41 43h1M54 43h1M59 43h1M42 44h1M62 44h1M54 45h1M59 45h1M55 46h1M58 46h1M40 47h1M40 48h1M39 50h1M57 50h1M40 51h2M54 58h1M39 61h2M47 61h1M52 61h1M49 63h1" />
<path stroke="#29315a" d="M34 32h2M33 33h1M32 34h1M46 34h1M31 35h1M47 35h1M48 36h1M62 36h3M48 37h1M49 38h1M60 38h1M49 39h1M56 39h4M38 40h1M42 40h1M49 40h1M37 41h1M43 41h1M48 41h1M37 42h1M57 42h3M36 43h1M40 43h1M44 43h1M55 43h4M36 44h1M39 44h1M36 45h1M39 45h1M55 45h4M36 46h1M39 46h1M56 46h2M37 47h1M37 48h1M38 49h1M56 54h3M59 55h4M58 58h3M46 59h1M54 59h4M38 61h1M44 61h2M39 62h4" />
<path stroke="#c5c5d5" d="M36 32h6M34 33h10M33 34h13M32 35h3M42 35h5M32 36h1M44 36h4M46 37h2M62 37h2M47 38h2M62 38h3M48 39h1M61 39h3M50 40h3M59 40h3M50 41h10M48 42h5M59 49h1M59 50h1M58 51h1M57 52h2M60 56h3" />
<path stroke="#9494ac" d="M35 35h7M31 36h1M33 36h11M31 37h15M64 37h1M30 38h17M30 39h9M42 39h6M64 39h1M29 40h9M39 40h3M43 40h6M53 40h1M62 40h2M29 41h8M38 41h5M44 41h4M60 41h4M29 42h8M38 42h5M44 42h2M53 42h3M61 42h2M28 43h8M37 43h3M42 43h2M47 43h7M60 43h3M28 44h8M37 44h2M40 44h2M44 44h18M28 45h8M37 45h2M40 45h2M43 45h11M60 45h2M28 46h8M37 46h2M40 46h2M43 46h12M59 46h2M28 47h9M38 47h2M42 47h18M28 48h9M38 48h2M42 48h17M29 49h9M39 49h2M42 49h16M29 50h10M40 50h1M42 50h15M29 51h11M43 51h14M59 51h1M30 52h12M43 52h13M30 53h13M45 53h9M31 54h14M47 54h4M54 54h2M32 55h15M51 55h8M33 56h27M34 57h27M36 58h18M55 58h3M38 59h8M47 59h6M41 60h5M47 60h6M48 61h4M48 62h4M50 63h2" />
<path stroke="#101010" d="M30 36h1M30 37h1M60 37h2M65 37h1M29 38h1M56 38h4M65 38h1M29 39h1M51 39h5M65 39h1M28 40h1M65 40h1M28 41h1M64 41h1M28 42h1M47 42h1M64 42h1M27 43h1M45 43h2M63 43h1M27 44h1M43 44h1M63 44h1M68 44h1M27 45h1M42 45h1M62 45h1M64 45h1M68 45h1M27 46h1M42 46h1M61 46h1M27 47h1M41 47h1M60 47h1M27 48h1M41 48h1M59 48h1M28 49h1M41 49h1M58 49h1M65 49h1M68 49h1M28 50h1M41 50h1M58 50h1M66 50h2M28 51h1M42 51h1M57 51h1M64 51h1M29 52h1M42 52h1M56 52h1M63 52h1M29 53h1M43 53h2M54 53h2M61 53h2M30 54h1M45 54h2M51 54h3M31 55h1M47 55h4M32 56h1M63 56h1M33 57h1M61 57h2M34 58h2M36 59h2M53 59h1M38 60h3M46 60h1M53 60h1M41 61h3M46 61h1M53 61h1M47 62h1M52 62h1M48 63h1M52 63h1M49 64h3" />
<path stroke="#620020" d="M65 42h3M64 43h1M68 43h1M64 44h1M63 46h2M67 46h1M61 47h2M68 47h1M68 48h1M60 49h1M60 50h1M65 50h1M59 52h1M62 52h1M59 54h2" />
<path stroke="#b4204a" d="M65 43h1M67 43h1M67 45h1M60 48h2M61 49h1M61 50h2M60 51h3M60 52h2M60 53h1" />
<path stroke="#ff4a7b" d="M66 43h1M65 44h3M65 45h2M65 46h2M63 47h4M62 48h6M63 49h2M66 49h2M63 50h2" />
<path stroke="#de3162" d="M67 47h1M62 49h1M63 51h1" />
<path stroke="#398341" d="M56 53h4" />
</svg>