<svg xmlns="http://www.w3.org/2000/svg" viewBox="0 -0.5 96 96" shape-rendering="crispEdges">
<metadata>Made with Pixels to Svg https://codepen.io/shshaw/pen/XbxvNj</metadata>
<path stroke="#835a10" d="M36 26h2M35 27h1M38 27h1M35 28h1M39 28h2M51 28h2M34 29h1M41 29h5M49 29h2M53 29h1M46 30h3M53 30h1M35 31h1M52 31h1M52 32h1M51 33h1M51 34h2M52 37h1M53 38h1M53 39h1M53 40h1M20 43h1M20 44h1M21 45h1M25 47h1M64 52h1M68 52h1M64 53h1M67 53h2M64 54h1M56 55h1M71 55h1M34 57h1M37 58h1M70 58h1M50 59h1M49 61h1M69 61h1M67 62h1M51 64h1M68 66h1" />
<path stroke="#ffe629" d="M36 27h2M36 28h3M37 29h4M51 29h2M37 30h9M49 30h3M36 31h15M35 32h3M46 32h4M35 33h1M48 33h1M51 36h1M51 37h1M51 38h2M52 39h1M52 40h1M20 41h1M52 41h1M21 42h2M51 42h1M21 43h2M22 44h2M22 45h2M22 46h3M22 47h3M22 48h1M67 49h1M66 50h2M73 50h2M23 51h2M34 51h1M66 51h2M71 51h2M23 52h4M33 52h2M65 52h2M70 52h2M23 53h4M33 53h1M65 53h2M70 53h2M24 54h2M31 54h1M65 54h1M69 54h2M30 55h2M35 55h1M46 55h1M56 56h1M57 57h1M38 58h1M51 58h1M57 58h3M64 58h1M58 59h3M62 59h4M60 60h2M63 60h3M61 61h1" />
<path stroke="#cdbd20" d="M35 29h2M35 30h2M52 30h1M51 31h1M38 32h8M50 32h2M34 33h1M36 33h12M49 33h2M52 33h1M34 34h17M34 35h18M33 36h18M33 37h18M33 38h18M33 39h19M34 40h18M21 41h1M35 41h17M36 42h15M36 43h14M21 44h1M37 44h1M45 44h3M68 49h1M50 50h2M49 51h3M73 51h1M22 52h1M35 52h1M50 52h3M67 52h1M72 52h1M22 53h1M34 53h1M50 53h3M69 53h1M22 54h2M26 54h2M36 54h1M53 54h2M66 54h3M71 54h1M22 55h7M32 55h2M36 55h1M45 55h1M51 55h5M64 55h7M23 56h7M31 56h3M35 56h3M39 56h9M52 56h4M64 56h7M23 57h8M32 57h1M35 57h3M39 57h11M52 57h5M64 57h7M23 58h9M35 58h2M44 58h7M53 58h4M65 58h5M23 59h11M39 59h5M46 59h4M54 59h4M66 59h4M24 60h22M47 60h3M52 60h1M54 60h6M66 60h4M24 61h23M48 61h1M51 61h3M55 61h6M63 61h6M25 62h22M48 62h1M51 62h4M56 62h7M64 62h3M68 62h1M25 63h22M48 63h1M51 63h5M57 63h3M62 63h1M67 63h2M26 64h21M48 64h2M52 64h2M57 64h1M60 64h2M63 64h1M66 64h4M25 65h1M28 65h18M47 65h2M56 65h1M58 65h2M61 65h1M63 65h1M68 65h2M30 66h15M58 66h1M69 66h2M34 67h6" />
<path stroke="#101010" d="M34 30h1M34 31h1M34 32h1M33 33h1M33 34h1M33 35h1M32 36h1M32 37h1M32 38h1M32 39h1M33 40h1M34 41h1M35 42h1M35 43h1M36 44h1M39 44h5M49 44h3M36 45h11M52 45h2M36 46h10M36 47h10M54 47h1M35 48h12M52 48h2M35 49h3M43 49h5M50 49h2M33 50h1M35 50h2M44 50h6M68 50h1M21 51h1M35 51h2M46 51h3M68 51h1M74 51h1M21 52h1M27 52h1M36 52h1M47 52h2M69 52h1M73 52h1M21 53h1M48 53h2M72 53h1M21 54h1M28 54h1M35 54h1M50 54h1M72 54h1M21 55h1M29 55h1M34 55h1M47 55h1M50 55h1M63 55h1M30 56h1M34 56h1M38 56h1M48 56h2M51 56h1M63 56h1M71 56h1M22 57h1M31 57h1M33 57h1M38 57h1M50 57h2M63 57h1M71 57h1M22 58h1M32 58h3M39 58h5M52 58h1M62 58h2M22 59h1M34 59h5M45 59h1M51 59h3M70 59h1M46 60h1M50 60h2M53 60h1M70 60h1M23 61h1M47 61h1M50 61h1M54 61h1M47 62h1M49 62h2M55 62h1M69 62h1M24 63h1M47 63h1M49 63h2M56 63h1M64 63h3M69 63h1M24 64h2M47 64h1M50 64h1M54 64h3M65 64h1M24 65h1M26 65h2M46 65h1M49 65h5M55 65h1M57 65h1M66 65h1M25 66h2M28 66h2M45 66h4M56 66h2M67 66h1M71 66h1M30 67h4M40 67h5M58 67h1M69 67h3M34 68h6" />
<path stroke="#5a3908" d="M53 31h1M53 32h1M53 33h1M52 35h1M52 36h1M53 41h1M52 42h1M48 44h1M21 46h1M21 47h1M21 48h1M25 48h1M21 49h1M26 49h1M52 49h1M69 49h1M21 50h1M26 50h1M34 50h1M75 50h1M26 51h1M33 51h1M75 51h1M32 52h1M49 52h1M27 53h1M31 53h2M53 53h2M30 54h1M32 54h3M51 54h2M55 54h1M22 56h1M57 56h1M58 57h2M60 58h1M44 59h1M61 59h1M23 60h1M62 60h1M62 61h1M24 62h1M63 62h1M60 63h2M63 63h1M58 64h2M62 64h1M64 64h1M60 65h1M62 65h1M64 65h1M59 66h1M61 66h1M63 66h1" />
<path stroke="#ac8b18" d="M19 40h3M19 41h1M22 41h1M20 42h1M23 42h1M23 43h1M24 44h1M24 45h1M25 46h1M67 48h3M66 49h1M73 49h2M52 50h1M65 50h1M71 50h2M52 51h1M65 51h1M70 51h1M53 52h1M44 55h1M67 65h1M70 65h1" />
<path stroke="#836208" d="M50 43h2M38 44h1M44 44h1M48 45h1M47 46h4M46 47h6M33 48h1M48 48h4M33 49h2M42 49h1M37 50h1M22 51h1M45 51h1M46 52h1" />
<path stroke="#5a3900" d="M47 45h1M34 46h2M46 46h1M54 46h1M33 47h1M32 48h1M47 48h1M32 49h1M48 49h2M35 53h2M47 53h1M37 54h1M44 54h4M37 55h7M70 64h1" />
<path stroke="#ac8329" d="M49 45h3M51 46h3M34 47h2M52 47h2M23 48h2M34 48h1M22 49h4M38 49h4M22 50h4M38 50h6M25 51h1M37 51h8M37 52h9M37 53h10M38 54h6" />
</svg>