<svg xmlns="http://www.w3.org/2000/svg" viewBox="0 -0.5 96 96" shape-rendering="crispEdges">
<metadata>Made with Pixels to Svg https://codepen.io/shshaw/pen/XbxvNj</metadata>
<path stroke="#52525a" d="M48 33h2M47 34h1M54 34h1M46 35h1M55 35h1M59 35h1M46 36h1M67 36h1M60 37h1M66 37h1M68 37h1M38 38h3M45 38h1M57 38h1M60 38h1M65 38h2M69 38h1M36 39h2M60 39h1M64 39h2M70 39h1M34 40h2M46 40h1M63 40h2M70 40h1M33 41h1M47 41h1M58 41h1M63 41h1M69 41h1M32 42h1M48 42h1M58 42h1M31 43h1M63 43h1M31 44h1M49 44h1M62 44h1M37 45h1M49 45h1M62 45h1M65 45h1M38 46h1M50 46h1M57 46h1M62 46h1M39 47h1M50 47h1M56 47h3M62 47h1M52 48h1M54 48h2M58 48h4M40 49h1M52 49h1M59 49h4M40 50h1M56 50h1M59 50h4M66 50h1M40 51h1M51 51h1M56 51h1M67 51h1M39 52h2M51 52h1M57 52h1M61 52h1M36 53h5M50 53h2M57 53h2M62 53h2M30 54h10M49 54h2M57 54h2M63 54h1M28 55h2M32 55h7M49 55h2M58 55h2M63 55h2M28 56h1M34 56h3M43 56h3M48 56h2M58 56h2M64 56h2M26 57h2M41 57h2M48 57h2M59 57h2M65 57h2M25 58h2M37 58h2M48 58h1M60 58h2M67 58h1M23 59h2M35 59h2M47 59h2M61 59h4M45 60h2M65 60h1M44 61h1" />
<path stroke="#83838b" d="M50 33h3M54 36h1M45 37h1M53 37h1M55 37h1M67 37h1M41 38h3M53 38h1M55 38h1M68 38h1M44 39h1M54 39h1M58 39h1M69 39h1M47 40h1M56 40h1M71 40h2M48 41h1M52 41h1M55 41h1M57 41h1M70 41h1M46 42h1M49 42h1M52 42h2M59 42h1M69 42h1M41 43h1M45 43h1M49 43h1M52 43h1M54 43h1M60 43h3M69 43h3M40 44h1M42 44h1M46 44h1M50 44h1M59 44h3M64 44h1M33 45h4M41 45h1M50 45h1M58 45h4M31 46h7M49 46h1M58 46h4M65 46h1M31 47h8M45 47h1M48 47h1M59 47h3M31 48h8M40 48h1M44 48h1M46 48h1M51 48h1M62 48h1M30 49h10M41 49h1M43 49h1M47 49h1M57 49h1M63 49h2M30 50h10M42 50h2M30 51h9M43 51h1M30 52h8M63 52h2M31 53h4M48 53h1M66 53h2M47 54h1M39 55h1M45 55h1M37 56h2M42 56h1" />
<path stroke="#a4a4a4" d="M48 34h1M53 34h1M46 37h1M53 39h1M56 39h1M52 40h1M55 40h1M53 41h1M72 41h1M45 42h1M54 42h1M71 42h2M32 43h1M40 43h1M42 43h1M47 43h1M57 43h1M45 44h1M52 44h1M55 44h3M40 45h1M42 45h1M52 45h5M45 46h1M48 46h1M52 46h4M40 47h1M44 47h1M46 47h1M54 47h1M41 48h1M48 48h1M63 48h1M44 49h1M49 49h1M47 50h3M45 51h5M65 51h2M41 52h8M65 52h3M41 53h7M65 53h1M40 54h7M40 55h5M39 56h3" />
<path stroke="#c5c5c5" d="M49 34h4M47 35h8M47 36h7M55 36h1M47 37h6M54 37h1M46 38h7M54 38h1M56 38h1M38 39h6M48 39h5M55 39h1M36 40h10M49 40h3M53 40h2M57 40h1M34 41h13M50 41h2M54 41h1M56 41h1M60 41h2M33 42h12M47 42h1M51 42h1M55 42h3M60 42h3M33 43h7M43 43h2M46 43h1M51 43h1M53 43h1M55 43h2M59 43h1M32 44h1M37 44h3M41 44h1M43 44h2M47 44h2M53 44h2M63 44h1M38 45h2M43 45h6M64 45h1M39 46h6M46 46h2M41 47h3M47 47h1M49 47h1M42 48h2M45 48h1M47 48h1M49 48h1M64 48h1M42 49h1M45 49h2M48 49h1M41 50h1M44 50h3M65 50h1M41 51h2M44 51h1" />
<path stroke="#181820" d="M56 36h1M59 36h1M57 37h1M59 37h1M58 38h2M67 38h1M45 39h1M59 39h1M66 39h1M68 39h1M59 40h3M65 40h1M69 40h1M59 41h1M62 41h1M64 41h1M73 41h1M63 42h1M68 42h1M73 42h1M58 43h1M64 43h1M68 43h1M72 43h1M51 44h1M58 44h1M69 44h3M31 45h1M51 45h1M57 45h1M30 46h1M51 46h1M56 46h1M64 46h1M30 47h1M51 47h3M55 47h1M64 47h1M30 48h1M50 48h1M53 48h1M56 48h2M29 49h1M50 49h1M53 49h1M58 49h1M65 49h1M29 50h1M50 50h1M53 50h3M58 50h1M63 50h1M29 51h1M52 51h1M55 51h1M58 51h4M64 51h1M28 52h2M49 52h1M52 52h1M55 52h1M59 52h1M62 52h1M68 52h1M29 53h1M49 53h1M52 53h1M55 53h2M59 53h3M64 53h1M68 53h1M27 54h1M29 54h1M48 54h1M51 54h1M56 54h1M59 54h1M62 54h1M65 54h3M27 55h1M30 55h2M46 55h2M51 55h1M56 55h1M60 55h1M62 55h1M65 55h1M26 56h1M30 56h1M32 56h2M47 56h1M51 56h1M57 56h1M60 56h1M63 56h1M66 56h1M25 57h1M29 57h1M34 57h7M47 57h1M50 57h2M58 57h1M61 57h1M64 57h1M67 57h1M27 58h2M39 58h1M50 58h3M59 58h1M65 58h2M69 58h1M25 59h2M37 59h2M49 59h1M52 59h1M60 59h1M67 59h4M22 60h2M35 60h2M44 60h1M48 60h1M61 60h3M70 60h1M22 61h1M35 61h1M43 61h1M45 61h2M64 61h2M43 62h2M65 62h1M43 63h1" />
<path stroke="#6a6a73" d="M56 37h1M47 39h1M57 39h1M58 40h1M71 41h1M70 42h1M48 43h1M33 44h4M32 45h1M39 48h1M51 49h1M56 49h1M51 50h1M57 50h1M64 50h1M39 51h1M50 51h1M57 51h1M38 52h1M50 52h1M30 53h1M35 53h1M28 54h1M64 54h1M27 56h1" />
<path stroke="#393941" d="M46 39h1M48 40h1M49 41h1M50 42h1M50 43h1M65 48h1M54 49h2M52 50h1M56 52h1M58 52h1M60 52h1M28 53h1M48 55h1M57 55h1M29 56h1M50 56h1M28 57h1M24 58h1M47 58h1M49 58h1M68 58h1M22 59h1M46 59h1M47 60h1M64 60h1" />
<path stroke="#832000" d="M63 45h1" />
<path stroke="#d53918" d="M63 46h1M63 47h1M65 47h1" />
</svg>