<svg xmlns="http://www.w3.org/2000/svg" viewBox="0 -0.5 96 96" shape-rendering="crispEdges">
<metadata>Made with Pixels to Svg https://codepen.io/shshaw/pen/XbxvNj</metadata>
<path stroke="#c54a41" d="M73 14h7M68 15h4M20 16h4M64 16h4M25 17h3M61 17h3M28 18h2M30 19h2M45 23h1M64 23h1M30 24h2M45 24h2M62 24h2M32 25h1M46 25h1M47 26h1M46 27h1M46 28h2M54 28h2M58 28h3M29 29h4M46 29h3M52 29h4M58 29h5M27 30h6M51 30h13M26 31h7M36 31h1M50 31h15M25 32h8M36 32h2M49 32h16M26 33h8M36 33h3M48 33h11M61 33h5M26 34h13M48 34h11M61 34h5M26 35h4M32 35h7M48 35h18M27 36h3M32 36h8M48 36h16M27 37h13M48 37h8M28 38h12M49 38h5M56 38h8M29 39h10M49 39h3M53 39h15M34 40h5M54 40h16M27 41h7M36 41h1M54 41h18M24 42h12M53 42h20M22 43h15M51 43h23M20 44h8M30 44h6M51 44h9M63 44h13M18 45h10M31 45h3M52 45h7M63 45h15M16 46h12M31 46h4M51 46h8M62 46h20M14 47h15M31 47h5M53 47h25M16 48h19M51 48h26M18 49h13M33 49h3M51 49h24M19 50h12M33 50h3M52 50h4M58 50h16M20 51h12M33 51h2M53 51h3M58 51h15M21 52h15M53 52h18M23 53h12M52 53h17M26 54h7M35 54h1M50 54h2M54 54h12M33 55h4M50 55h4M58 55h5M32 56h6M39 56h1M47 56h11M31 57h10M47 57h14M31 58h10M47 58h15M30 59h12M47 59h16M30 60h12M47 60h16M29 61h13M47 61h17M29 62h13M47 62h17M29 63h13M47 63h18M29 64h13M47 64h18M29 65h2M33 65h9M48 65h11M61 65h4M29 66h2M33 66h9M48 66h11M61 66h4M29 67h2M33 67h8M49 67h10M61 67h4M30 68h11M49 68h16M30 69h5M37 69h4M50 69h5M57 69h8M30 70h5M37 70h3M51 70h4M57 70h9M30 71h10M52 71h15M29 72h3M34 72h5M53 72h7M63 72h5M28 73h4M34 73h4M55 73h5M63 73h6M27 74h9M57 74h14M26 75h8M60 75h8M28 76h4" />
<path stroke="#7b2000" d="M80 14h1M77 15h2M19 16h1M75 16h2M74 17h1M73 18h1M73 19h1M72 20h1M72 21h1M35 22h1M44 22h2M54 22h1M72 22h1M36 23h1M44 23h1M46 23h1M53 23h1M72 23h1M37 24h1M44 24h1M47 24h1M52 24h1M72 24h1M38 25h1M45 25h1M51 25h1M71 25h1M39 26h1M45 26h1M48 26h1M50 26h1M39 27h1M45 27h1M48 27h1M50 27h1M24 28h1M40 28h1M45 28h1M49 28h1M70 28h1M24 29h1M40 29h1M45 29h1M49 29h1M24 30h1M41 30h1M48 30h1M24 31h1M41 31h1M48 31h1M69 31h1M24 32h1M33 32h1M41 32h1M48 32h1M25 33h1M34 33h2M42 33h1M47 33h1M60 33h1M42 34h1M47 34h1M60 34h1M42 35h1M47 35h1M42 36h1M47 36h1M41 37h1M47 37h1M56 37h5M41 38h1M54 38h2M64 38h4M52 39h1M68 39h2M27 40h7M24 41h3M34 41h2M22 42h2M62 44h1M62 45h1M28 46h1M61 46h1M11 47h2M29 47h2M79 47h6M14 48h1M78 48h1M16 49h2M32 49h1M75 49h2M18 50h1M57 50h1M74 50h1M32 51h1M57 51h1M71 52h1M22 53h1M49 53h3M69 53h1M25 54h1M33 54h2M52 54h2M66 54h1M30 55h3M56 55h2M31 56h1M30 57h1M61 57h1M62 58h1M29 59h1M63 59h1M29 60h1M63 60h1M28 61h1M64 61h1M28 62h1M64 62h1M28 63h1M65 63h1M28 64h1M46 64h1M65 64h1M28 65h1M47 65h1M65 65h1M28 66h1M47 66h1M65 66h1M28 67h1M48 67h1M59 67h2M65 67h1M48 68h1M65 68h1M29 69h1M36 69h1M49 69h1M56 69h1M66 69h1M29 70h1M36 70h1M56 70h1M66 70h1M67 71h1M28 72h1M33 72h1M62 72h1M68 72h1M27 73h1M33 73h1M54 73h1M69 73h3M36 74h1M56 74h1M24 75h2M34 75h1M26 76h2M32 76h1M28 77h1" />
<path stroke="#ee7318" d="M72 15h5M68 16h7M21 17h4M64 17h10M22 18h6M61 18h12M23 19h7M59 19h14M23 20h9M57 20h15M24 21h10M56 21h7M65 21h7M24 22h11M55 22h7M65 22h7M24 23h12M54 23h8M65 23h7M25 24h5M32 24h5M53 24h9M64 24h8M25 25h5M33 25h5M52 25h19M25 26h5M33 26h6M51 26h6M59 26h12M25 27h6M33 27h6M51 27h6M59 27h12M25 28h15M50 28h4M61 28h9M25 29h4M33 29h7M50 29h2M63 29h7M25 30h2M35 30h6M49 30h2M64 30h6M25 31h1M37 31h4M49 31h1M65 31h4M38 32h3M65 32h4M39 33h3M66 33h2M39 34h3M66 34h1M39 35h3M40 36h2M40 37h1" />
<path stroke="#a42908" d="M20 17h1M21 18h1M59 18h2M22 19h1M57 19h2M22 20h1M32 20h2M56 20h1M23 21h1M34 21h1M55 21h1M23 22h1M23 23h1M24 24h1M24 25h1M47 25h1M24 26h1M46 26h1M24 27h1M47 27h1M48 28h1M70 40h2M72 41h1M73 42h1M20 43h2M74 43h2M18 44h2M76 44h2M16 45h2M78 45h3M14 46h2M82 46h1M13 47h1M78 47h1M15 48h1M77 48h1M30 58h1M29 68h1M65 69h1M29 71h1M73 72h1M72 73h1M23 74h4M71 74h1M59 75h1M68 75h1" />
<path stroke="#626262" d="M63 21h2M62 22h3M62 23h2M30 25h2M30 26h3M57 26h2M31 27h2M57 27h2M43 31h2M42 32h1M39 39h1M39 40h1M41 40h1M45 40h1M48 40h6M37 41h3M42 41h1M47 41h2M51 42h1M38 43h1M50 43h1M49 44h1M35 45h3M51 45h1M50 46h1M37 47h2M51 47h1M48 48h1M36 49h1M50 49h1M37 50h2M51 50h1M52 51h1M37 52h1M48 52h2M37 54h1M46 54h1M49 54h1M37 55h1M41 55h1M46 55h1M40 56h2M45 56h1M63 56h1M69 56h1M46 57h1M63 57h1M67 57h1M64 58h1M64 59h1M46 60h1M46 61h1M44 62h1M44 63h1M74 77h2M74 78h1" />
<path stroke="#181820" d="M71 26h1M71 27h1M70 29h1M70 30h1M69 32h1M68 33h1M25 34h1M67 34h1M25 35h1M66 35h1M26 36h1M64 36h2M26 37h1M61 37h3M27 38h1M28 39h1M36 47h1M49 48h2M36 50h1M19 51h1M35 51h1M73 51h1M20 52h1M36 52h1M50 52h3M72 52h1M21 53h1M35 53h1M70 53h1M23 54h2M36 54h1M67 54h2M26 55h4M39 55h1M47 55h3M54 55h2M63 55h3M38 56h1M46 56h1M58 56h5M41 57h1M41 58h1M68 58h2M42 59h1M42 60h1M42 61h1M42 62h1M42 63h1M42 64h1M44 64h1M42 65h2M42 66h2M41 67h1M43 67h1M41 68h1M44 68h1M41 69h1M44 69h1M40 70h1M45 70h1M50 70h1M40 71h1M46 71h1M51 71h1M39 72h1M47 72h1M52 72h1M38 73h1M48 73h1M53 73h1M73 73h1M37 74h1M49 74h1M55 74h1M72 74h1M35 75h1M50 75h2M57 75h2M69 75h3M76 75h1M33 76h1M52 76h2M59 76h10M75 76h2M29 77h3M54 77h3M76 77h1M57 78h5M75 78h1M62 79h11M75 79h1M73 80h2" />
<path stroke="#313139" d="M56 28h2M56 29h2M33 30h2M45 30h3M33 31h3M34 32h2M59 33h1M59 34h1M30 35h2M30 36h2M40 38h1M47 38h2M41 39h1M46 39h1M48 39h1M42 40h1M53 41h1M36 42h1M52 42h1M37 43h1M28 44h2M36 44h1M60 44h2M28 45h3M34 45h1M59 45h3M29 46h2M35 46h1M59 46h2M52 47h1M35 48h1M31 49h1M31 50h2M56 50h1M56 51h1M65 59h4M64 60h1M46 62h1M46 63h1M31 65h2M59 65h2M31 66h2M59 66h2M31 67h2M35 69h1M55 69h1M35 70h1M55 70h1M32 72h1M60 72h2M32 73h1M60 73h3M71 78h3M73 79h2" />
<path stroke="#e6e6e6" d="M45 31h3M43 32h5M45 33h1M44 34h1M46 34h1M66 55h1M65 56h3" />
<path stroke="#b4b4b4" d="M43 33h2M46 33h1M43 34h1M45 34h1M43 35h4M43 36h4M42 37h5M42 38h5M40 39h1M42 39h4M47 39h1M40 40h1M43 40h2M46 40h2M40 41h2M43 41h4M49 41h4M37 42h14M39 43h11M37 44h12M50 44h1M38 45h13M36 46h14M39 47h12M36 48h12M37 49h13M39 50h12M36 51h16M38 52h10M36 53h13M38 54h8M47 54h2M38 55h1M40 55h1M42 55h4M67 55h1M42 56h3M64 56h1M68 56h1M42 57h4M62 57h1M64 57h3M42 58h5M63 58h1M65 58h3M43 59h4M43 60h3M43 61h3M43 62h1M45 62h1M43 63h1M45 63h1M43 64h1" />
<path stroke="#52949c" d="M65 60h1M69 60h1M65 61h1M68 61h1M66 62h3M66 63h3M66 64h4M45 65h2M66 65h5M44 66h3M66 66h5M72 66h1M46 67h2M66 67h6M73 67h2M67 68h1M45 69h4M68 69h5M46 70h4M67 70h1M69 70h5M47 71h4M69 71h5M48 72h4M70 72h3M74 72h1M52 73h1M76 73h1M50 74h2M74 74h3M52 75h5M72 75h4M54 76h5M70 76h2M73 76h2M57 77h4M64 77h2M68 77h5M62 78h2M66 78h5" />
<path stroke="#397383" d="M66 60h1M66 61h2M65 62h1M69 63h1M70 64h1M71 65h1M71 66h1M45 67h1M72 67h1M66 68h1M68 68h5M67 69h1M73 69h1M68 70h1M68 71h1M74 71h1M69 72h1M51 73h1M74 73h2M73 74h1M69 76h1M72 76h1M61 77h3M66 77h2M73 77h1M64 78h2" />
<path stroke="#94cdd5" d="M67 60h2M69 61h2M69 62h3M70 63h3M71 64h3M72 65h2M73 66h2M73 68h3M74 69h2M74 70h2M75 71h2M75 72h1" />
<path stroke="#185262" d="M70 60h1M71 61h1M72 62h1M73 63h1M45 64h1M74 64h1M44 65h1M74 65h1M75 66h1M44 67h1M75 67h1M45 68h3M76 68h1M76 69h1M76 70h1M77 71h1M76 72h2M49 73h2M77 73h1M52 74h3M77 74h1" />
</svg>