<svg xmlns="http://www.w3.org/2000/svg" viewBox="0 -0.5 96 96" shape-rendering="crispEdges">
<metadata>Made with Pixels to Svg https://codepen.io/shshaw/pen/XbxvNj</metadata>
<path stroke="#836a41" d="M54 9h2M54 10h1M56 10h2M45 11h2M58 11h1M47 12h3M59 12h3M50 13h2M50 14h1M52 14h2M64 14h1M54 15h1M60 15h1M51 16h1M54 16h1M61 16h1M65 16h1M50 17h1M53 17h1M65 17h1M54 18h1M64 18h1M53 19h1M55 19h2M64 19h1M52 20h1M57 20h2M65 20h1M56 21h1M59 21h1M66 21h1M57 22h1M60 22h2M63 22h1M67 22h1M64 23h1M67 23h1M67 24h1M66 25h1M68 25h1M68 26h1M69 27h1M45 40h3M48 41h2M52 41h2M50 42h2M54 42h1M53 43h1M56 43h1M43 44h3M58 44h1M46 45h2M54 45h1M59 45h1M60 46h1M55 47h1M61 47h1M62 48h1M62 49h2M63 50h1M64 51h1M64 52h1M65 53h1M65 54h1M65 55h1" />
<path stroke="#e6cd7b" d="M55 10h1M56 11h2M57 12h2M58 13h2M61 13h1M60 14h2M63 14h1M62 15h3M62 16h3M63 17h1M61 18h2M61 19h3M63 20h1M65 21h1M64 22h3M65 23h1M66 24h1M67 25h1M53 42h1M54 43h2M56 44h2M57 45h2M58 46h2M59 47h2M61 48h1" />
<path stroke="#000000" d="M55 11h1M45 12h1M56 12h1M46 13h1M57 13h1M47 14h2M58 14h2M49 15h1M50 16h1M49 17h1M61 17h1M49 18h1M60 18h1M50 19h1M60 19h1M51 20h1M61 20h1M52 21h3M62 21h1M55 22h2M57 23h6M50 24h3M56 24h2M63 24h2M50 25h1M54 25h2M65 25h1M51 26h1M57 26h2M66 26h1M52 27h1M60 27h1M52 28h1M62 28h1M67 28h1M53 29h1M53 30h1M54 31h1M54 32h1M55 34h1M55 35h1M55 36h1M55 37h1M70 37h1M55 38h1M69 38h1M55 39h1M23 40h1M24 41h1M45 41h1M46 42h1M52 42h1M55 42h1M25 43h1M46 43h1M52 43h1M57 43h1M26 44h1M47 44h1M53 44h1M66 44h1M27 45h1M43 45h1M53 45h1M28 46h1M44 46h1M48 46h4M54 46h1M67 46h1M73 46h1M45 47h1M48 47h1M52 47h3M67 47h1M73 47h1M21 48h1M37 48h2M49 48h1M55 48h1M67 48h1M73 48h1M22 49h2M35 49h1M50 49h1M66 49h1M73 49h1M24 50h2M34 50h1M51 50h1M66 50h2M73 50h1M26 51h2M52 51h1M72 51h1M28 52h1M53 52h1M60 52h2M72 52h1M51 53h2M25 54h1M50 54h1M63 54h1M71 54h1M26 55h2M32 55h1M51 55h2M64 55h1M69 55h1M71 55h1M28 56h2M32 56h1M53 56h2M67 56h1M67 57h1M71 57h2M31 58h1M57 58h1M66 58h1M47 59h1M57 59h1M66 59h1M35 60h1M47 60h1M51 60h3M58 60h1M28 61h1M35 61h1M47 61h1M58 61h1M28 62h1M47 62h1M59 62h1M28 63h1M36 63h1M46 63h1M59 63h1M28 64h1M36 64h1M46 64h1M60 64h1M28 65h1M37 65h1M45 65h1M51 65h1M61 65h1M28 66h1M37 66h1M45 66h1M51 66h1M62 66h1M34 67h1M37 67h1M44 67h1M51 67h1M63 67h1M27 68h1M34 68h1M37 68h1M44 68h1M51 68h1M63 68h1M27 69h1M37 69h1M43 69h1M51 69h1M62 69h1M69 69h1M27 70h1M33 70h1M37 70h1M43 70h1M50 70h1M62 70h1M69 70h1M27 71h1M33 71h1M36 71h1M43 71h1M50 71h1M61 71h1M27 72h1M33 72h1M36 72h1M42 72h1M50 72h1M60 72h1M68 72h1M26 73h1M33 73h1M42 73h1M50 73h1M59 73h1M68 73h1M26 74h1M35 74h1M42 74h1M49 74h1M58 74h1M67 74h1M26 75h1M35 75h1M42 75h1M49 75h1M57 75h1M67 75h1M26 76h1M35 76h1M42 76h1M49 76h1M56 76h1M66 76h1M25 77h1M35 77h1M42 77h1M48 77h1M56 77h1M66 77h1M25 78h1M34 78h1M42 78h1M48 78h1M57 78h1M66 78h1M25 79h1M34 79h1M43 79h1M48 79h1M56 79h3M25 80h1M34 80h1M43 80h1M49 80h7M59 80h1M25 81h1M33 81h1M44 81h1M60 81h1M25 82h1M33 82h1M61 82h2M26 83h8M63 83h6M34 84h2M36 85h8M45 85h2" />
<path stroke="#ac9439" d="M46 12h1M47 13h3M60 13h1M62 13h2M49 14h1M51 14h1M62 14h1M50 15h4M61 15h1M65 15h1M52 16h2M51 17h2M62 17h1M64 17h1M50 18h4M63 18h1M51 19h2M54 19h1M53 20h4M62 20h1M64 20h1M55 21h1M57 21h2M63 21h2M58 22h2M66 23h1M65 24h1M67 26h1M66 28h1M46 41h2M47 42h3M47 43h5M48 44h5M54 44h2M44 45h2M48 45h3M55 45h2M45 46h3M55 46h3M46 47h1M49 47h3M56 47h3M50 48h5M56 48h5M51 49h11M52 50h11M53 51h11M54 52h5M62 52h2M53 53h5M63 53h2M51 54h6M64 54h1M53 55h4M55 56h1" />
<path stroke="#08525a" d="M53 24h1M56 26h1M59 27h1M62 27h1M61 28h1M63 29h1M71 29h1M63 30h1M71 30h1M64 31h1M64 32h1M55 33h1M64 33h1M64 34h1M64 35h1M64 36h1M64 37h1M64 38h1M65 39h1M55 40h1M65 40h1M55 41h1M65 41h1M65 42h1M66 43h1M51 45h2M67 45h1M40 47h4M47 47h1M39 48h1M44 48h3M36 49h1M68 50h1M33 51h1M68 51h1M33 52h1M59 52h1M68 52h1M32 53h1M45 53h1M58 53h1M62 53h1M68 53h1M32 54h1M45 54h1M57 54h1M68 54h1M46 55h1M57 55h1M67 55h1M30 56h1M46 56h1M56 56h1M28 57h1M30 57h1M32 57h1M47 57h1M55 57h3M65 57h1M28 58h1M30 58h1M35 58h1M47 58h1M28 59h1M35 59h1M28 60h1M33 60h1M49 60h2M54 60h1M67 60h1M34 61h1M48 61h1M50 61h1M55 61h3M67 61h1M35 62h2M50 62h1M58 62h1M68 62h1M50 63h1M58 63h1M69 63h1M35 64h1M51 64h1M58 64h1M69 64h1M35 65h1M57 65h1M70 65h1M34 66h1M57 66h1M70 66h1M28 67h1M57 67h1M70 67h1M56 68h1M69 68h1M33 69h1M56 69h1M56 70h1M28 71h1M56 71h1M68 71h1M37 72h1M57 72h1M66 72h1M33 74h1" />
<path stroke="#393941" d="M58 24h2M56 25h6M62 26h1M70 32h1M66 34h2M65 35h1M60 36h1M62 39h1M60 40h1M61 42h1M40 58h1M43 58h1M39 60h1M42 62h1M52 69h1M63 69h1M53 70h1M64 70h1M29 71h1M54 71h1M62 71h1M65 71h1M30 72h1M38 72h1M52 72h1M55 72h1M63 72h1M28 73h1M31 73h1M36 73h1M39 73h1M53 73h2M56 73h2M64 73h1M66 73h1M27 74h1M30 74h1M32 74h1M37 74h1M40 74h1M57 74h1M31 75h1M34 75h1M36 75h1M39 75h1M41 75h1M65 75h1M32 76h1M34 76h1M40 76h1M33 77h2M41 77h1M67 80h1M45 81h1M69 81h1M44 82h1M46 82h1M66 82h1M69 82h1M44 83h1M47 83h1M44 84h1M47 84h1M44 85h1" />
<path stroke="#525252" d="M60 24h3M62 25h3M63 26h3M66 27h3M69 28h3M66 32h2M68 33h2M60 37h2M61 38h2M61 39h1M60 41h2M39 59h2M42 59h2M42 60h2M42 61h2M51 70h2M63 70h1M51 71h3M63 71h2M28 72h2M53 72h2M64 72h2M27 73h1M29 73h2M37 73h2M55 73h1M65 73h1M31 74h1M36 74h1M38 74h2M55 74h2M65 74h2M32 75h2M40 75h1M66 75h1M33 76h1M41 76h1M68 80h1M66 81h1M45 82h1M68 82h1M45 83h2M45 84h2" />
<path stroke="#18acb4" d="M51 25h2M54 26h2M56 27h3M59 28h2M61 29h2M47 48h2M44 49h6M45 50h6M47 51h5M49 52h2M67 62h1M67 63h2M67 64h2M68 65h2M68 66h2M68 67h1" />
<path stroke="#317b8b" d="M53 25h1M52 26h2M59 26h3M53 27h3M61 27h1M64 27h1M53 28h6M54 29h7M54 30h9M66 30h2M55 31h9M65 31h1M71 31h1M55 32h9M56 33h8M65 33h1M56 34h8M65 34h1M56 35h8M56 36h4M61 36h3M21 37h4M56 37h4M62 37h2M21 38h1M25 38h2M56 38h5M63 38h1M22 39h1M27 39h2M56 39h5M63 39h2M29 40h2M56 40h4M61 40h4M31 41h2M56 41h4M62 41h3M25 42h1M33 42h1M56 42h5M62 42h3M34 43h1M58 43h8M36 44h1M59 44h7M37 45h1M60 45h7M25 46h3M38 46h1M52 46h2M61 46h6M21 47h4M39 47h1M62 47h5M40 48h4M63 48h4M37 49h7M64 49h2M35 50h10M64 50h2M34 51h13M65 51h3M29 52h1M34 52h15M51 52h2M65 52h3M26 53h2M33 53h12M46 53h5M59 53h3M66 53h2M33 54h12M46 54h4M58 54h5M66 54h2M33 55h13M47 55h4M58 55h6M66 55h1M33 56h13M47 56h6M57 56h10M29 57h1M33 57h14M48 57h7M58 57h7M66 57h1M29 58h1M32 58h3M36 58h4M41 58h2M44 58h3M48 58h9M58 58h8M29 59h6M36 59h3M41 59h1M44 59h3M48 59h9M58 59h8M29 60h4M34 60h1M36 60h3M40 60h2M44 60h3M48 60h1M55 60h3M59 60h8M29 61h5M36 61h6M44 61h3M51 61h4M59 61h8M29 62h6M37 62h5M43 62h4M51 62h7M60 62h7M29 63h7M37 63h9M51 63h7M60 63h7M29 64h6M37 64h9M52 64h6M61 64h6M29 65h6M38 65h7M52 65h5M62 65h6M29 66h5M38 66h7M52 66h5M63 66h5M29 67h5M38 67h6M52 67h5M64 67h4M69 67h1M28 68h6M38 68h6M52 68h4M64 68h5M28 69h5M38 69h5M53 69h3M64 69h5M28 70h5M38 70h5M54 70h2M65 70h4M30 71h3M37 71h6M55 71h1M66 71h2M31 72h2M39 72h3M56 72h1M67 72h1M32 73h1M40 73h2M67 73h1M41 74h1M49 79h1M66 79h1M43 81h1M26 82h1M36 84h1" />
<path stroke="#8bb4c5" d="M63 27h1M64 28h1M68 28h1M69 29h1M65 30h1M70 30h1M68 31h1M70 31h1M65 32h1M68 32h2M66 33h2M24 40h2M25 41h3M26 42h3M32 42h1M26 43h5M35 43h1M27 44h6M35 44h1M28 45h6M29 46h7M25 47h12M22 48h15M24 49h11M26 50h8M28 51h5M30 52h3M28 53h4M26 54h6M28 55h4M31 56h1M31 57h1M51 72h1M61 72h2M51 73h2M60 73h4M28 74h2M50 74h5M59 74h6M27 75h4M37 75h2M50 75h7M58 75h7M27 76h5M36 76h4M50 76h6M57 76h9M26 77h7M36 77h5M49 77h7M57 77h8M26 78h8M35 78h7M49 78h8M58 78h6M26 79h8M35 79h8M50 79h6M59 79h5M26 80h8M35 80h8M60 80h5M66 80h1M26 81h7M34 81h9M61 81h5M27 82h6M34 82h10M63 82h3M34 83h10M37 84h7" />
<path stroke="#ffffff" d="M65 27h1M65 36h1M65 37h2M69 37h1M66 38h3M66 39h2M68 40h2M69 41h2M70 42h1M70 43h2M71 44h1" />
<path stroke="#c5deee" d="M63 28h1M64 29h5M70 29h1M64 30h1M68 30h2M66 31h2M69 31h1M22 38h3M23 39h4M26 40h3M28 41h3M29 42h3M31 43h3M33 44h2M34 45h3M36 46h2M37 47h2M65 77h1M64 78h2M64 79h2M65 80h1" />
<path stroke="#bdbdbd" d="M65 28h1M65 38h1M66 40h2M66 41h3M66 42h4M67 43h3M67 44h4M68 45h5M68 46h5M68 47h2M71 47h2M68 48h2M71 48h2M67 49h2M70 49h3M69 50h4M69 51h3M69 52h3M69 53h2M69 54h2M68 55h1M70 55h1M71 56h1" />
<path stroke="#6a6a6a" d="M66 36h1M69 36h2M67 37h2M68 39h2M70 40h1M71 41h1M71 42h1M72 43h1M72 44h1M73 45h1M70 47h1M70 48h1M69 49h1M71 53h1M68 56h1M70 56h1M72 56h1M67 81h2M67 82h1" />
</svg>