<svg xmlns="http://www.w3.org/2000/svg" viewBox="0 -0.5 96 96" shape-rendering="crispEdges">
<metadata>Made with Pixels to Svg https://codepen.io/shshaw/pen/XbxvNj</metadata>
<path stroke="#5a3a73" d="M25 3h7M22 4h3M32 4h2M20 5h2M34 5h2M52 5h1M18 6h2M36 6h1M53 6h1M37 7h1M54 7h1M38 8h1M55 8h1M38 9h1M55 9h1M27 11h3M30 12h2M32 13h1M32 14h1M33 15h1M33 16h1M33 17h1M32 18h1M9 25h1M10 26h1M9 27h1M11 27h1M8 28h1M10 28h1M12 28h2M8 29h8M8 30h10M8 31h9M7 32h10M7 33h10M7 34h9M55 34h1M7 35h9M54 35h3M7 36h9M53 36h4M7 37h9M53 37h5M7 38h8M53 38h2M57 38h1M7 39h8M53 39h1M56 39h1M58 39h2M7 40h8M54 40h2M57 40h1M60 40h1M8 41h7M57 41h1M60 41h1M8 42h7M58 42h2M8 43h7M8 44h7M9 45h6M9 46h6M9 47h7M10 48h6M10 49h6M11 50h5M11 51h6M12 52h5M12 53h6M13 54h5M14 55h5M15 56h5M16 57h5M17 58h5M18 59h5M19 60h5M20 61h5M21 62h6M23 63h6M24 64h8M26 65h4M28 66h1M62 67h2M65 67h2M61 68h5M42 69h1M60 69h3M43 71h1M44 72h1M53 72h1M47 73h3M62 82h3M38 83h3M65 83h2M38 84h3M53 84h1M67 84h1M38 85h1M50 85h1M53 85h1M50 86h2" />
<path stroke="#8442ad" d="M25 4h7M22 5h12M20 6h16M52 6h1M18 7h19M53 7h1M17 8h21M54 8h1M16 9h22M54 9h1M16 10h23M55 10h1M15 11h12M30 11h9M56 11h1M14 12h11M27 12h3M32 12h8M56 12h1M14 13h10M25 13h7M33 13h7M57 13h1M13 14h10M24 14h8M33 14h7M57 14h2M13 15h10M24 15h9M34 15h6M58 15h1M12 16h10M23 16h10M34 16h6M58 16h2M12 17h10M23 17h10M34 17h6M59 17h2M11 18h11M23 18h9M33 18h6M59 18h2M11 19h11M23 19h16M60 19h2M10 20h13M24 20h14M10 21h13M24 21h14M10 22h14M25 22h12M9 23h14M26 23h10M9 24h13M28 24h6M10 25h11M9 26h1M11 26h9M8 27h1M10 27h1M12 27h8M9 28h1M11 28h1M14 28h5M16 29h2M55 38h2M54 39h2M58 40h2M58 41h2M65 63h1M65 64h1M64 65h1M63 66h2M41 68h1M41 69h1M40 70h3M40 71h2M40 72h2M43 72h1M40 73h1M42 73h4M51 73h2M41 74h4M46 74h3M50 74h1M41 75h2M45 75h3M44 76h3M49 82h1M63 83h2M51 84h2M63 84h4M51 85h2M66 85h1" />
<path stroke="#422152" d="M51 4h1M51 5h1M17 7h1M52 7h1M16 8h1M53 8h1M15 9h1M53 9h1M15 10h1M39 10h1M54 10h1M56 10h1M14 11h1M39 11h1M55 11h1M57 11h1M13 12h1M25 12h2M55 12h1M57 12h1M13 13h1M24 13h1M40 13h1M56 13h1M58 13h1M12 14h1M23 14h1M40 14h1M56 14h1M59 14h1M12 15h1M23 15h1M57 15h1M59 15h1M11 16h1M22 16h1M57 16h1M60 16h1M11 17h1M58 17h1M61 17h1M10 18h1M58 18h1M61 18h1M10 19h1M59 19h1M62 19h1M9 20h1M23 20h1M62 20h1M9 21h1M63 21h1M9 22h1M23 23h1M22 24h1M27 24h1M21 25h1M20 26h1M20 27h1M19 28h1M18 29h1M18 30h1M17 31h1M17 32h1M17 33h1M16 34h1M16 35h1M16 36h1M16 37h1M15 38h1M15 39h1M15 40h1M15 41h1M15 42h1M15 43h1M15 44h1M15 45h1M15 46h1M8 47h1M16 47h1M9 48h1M16 48h1M9 49h1M16 49h1M10 50h1M16 50h1M10 51h1M17 51h1M11 52h1M17 52h1M11 53h1M18 53h1M12 54h1M18 54h1M13 55h1M19 55h1M20 56h1M21 57h1M22 58h1M17 59h1M23 59h1M18 60h1M24 60h1M19 61h1M25 61h2M66 61h1M20 62h1M27 62h2M66 62h1M21 63h2M29 63h3M66 63h1M23 64h1M66 64h1M24 65h2M65 65h1M26 66h2M41 66h1M65 66h3M41 67h1M64 67h1M40 68h1M60 68h1M40 69h1M63 69h2M39 70h1M58 70h5M39 71h1M42 71h1M39 72h1M42 72h1M41 73h1M50 73h1M45 74h1M49 74h1M43 75h2M48 75h1M49 81h1M38 82h1M50 82h1M37 83h1M52 83h1M37 84h1M39 85h1M49 85h1M67 85h1M49 86h1M52 86h1M66 86h2" />
<path stroke="#101010" d="M49 9h1M48 10h1M47 11h1M40 12h1M46 12h1M46 13h1M45 14h1M54 14h1M40 15h1M45 15h1M53 15h1M40 16h1M45 16h1M53 16h1M22 17h1M40 17h1M45 17h1M53 17h1M22 18h1M39 18h1M46 18h1M22 19h1M39 19h1M46 19h1M38 20h1M47 20h1M23 21h1M38 21h1M24 22h1M37 22h1M8 23h1M25 23h1M36 23h1M62 23h1M8 24h1M26 24h1M34 24h2M42 24h1M55 24h1M62 24h1M8 25h1M28 25h6M42 25h1M54 25h1M56 25h1M8 26h1M43 26h1M54 26h1M57 26h1M7 27h1M43 27h1M54 27h1M7 28h1M44 28h1M53 28h1M56 28h1M7 29h1M45 29h2M52 29h1M61 29h1M67 29h1M7 30h1M47 30h1M53 30h1M60 30h1M66 30h1M7 31h1M20 31h1M44 31h1M53 31h1M58 31h2M65 31h1M6 32h1M20 32h1M44 32h1M54 32h1M6 33h1M20 33h1M44 33h1M54 33h1M61 33h2M6 34h1M21 34h1M45 34h1M54 34h1M60 34h1M6 35h1M22 35h3M46 35h2M53 35h1M6 36h1M6 37h1M46 37h1M52 37h1M6 38h1M47 38h1M51 38h1M6 39h1M48 39h3M6 40h1M7 41h1M17 41h1M47 41h1M7 42h1M18 42h3M46 42h1M7 43h1M7 44h1M8 45h1M8 46h1M18 50h2M38 51h1M37 52h1M37 53h1M68 54h1M4 55h1M34 55h3M68 55h1M14 56h1M33 56h1M37 56h3M67 56h1M15 57h1M30 57h3M40 57h1M67 57h1M8 58h1M16 58h1M41 58h1M47 58h1M67 58h1M9 59h1M41 59h1M46 59h1M66 59h1M4 60h1M9 60h1M42 60h1M46 60h1M66 60h1M5 61h1M43 61h1M45 61h1M65 61h1M5 62h1M65 62h1M6 63h1M43 63h1M64 63h1M11 64h1M32 64h1M64 64h1M12 65h1M30 65h2M47 65h1M63 65h1M29 66h1M51 66h1M62 66h1M28 67h2M46 67h1M61 67h1M67 67h1M13 68h1M45 68h1M50 68h1M54 68h1M66 68h1M13 69h1M58 69h2M65 69h1M53 70h1M56 70h2M48 71h1M55 71h1M17 72h2M54 72h1M19 73h1M32 73h1M39 73h1M46 73h1M53 73h1M25 74h1M32 74h2M40 74h1M51 74h2M23 75h1M26 75h2M30 75h2M34 75h1M38 75h1M40 75h1M49 75h2M28 76h2M35 76h3M41 76h3M47 76h2M37 77h1M44 77h3M38 78h1M38 79h1M51 79h1M39 80h1M52 80h1M52 82h1M51 83h1M41 84h3M50 84h1M37 85h1M40 85h1M57 85h3M63 85h3M37 86h2M53 86h2M60 86h2M49 87h3" />
<path stroke="#ffffff" d="M49 10h1M48 11h2M47 12h3M47 13h4M59 13h2M46 14h5M55 14h1M60 14h2M46 15h6M55 15h2M60 15h2M47 16h6M54 16h3M61 16h2M47 17h6M54 17h4M62 17h1M48 18h6M55 18h2M47 19h1M49 19h6M57 19h2M48 20h9M46 21h2M50 21h5M44 22h10M43 23h9M43 24h10M56 24h1M64 24h1M43 25h9M57 25h2M65 25h2M44 26h6M58 26h3M64 26h4M44 27h3M59 27h6M66 27h1M61 28h1M63 28h1M63 29h1M2 55h1M24 55h4M3 56h1M23 56h1M27 56h3M3 57h3M28 57h2M4 58h4M29 58h4M4 59h5M29 59h4M5 60h4M12 60h3M17 60h1M28 60h5M34 60h1M6 61h13M27 61h9M6 62h12M29 62h7M9 63h8M32 63h3M12 64h5M13 65h6M21 65h2M32 65h2M13 66h12M30 66h5M14 67h1M16 67h1M18 67h10M30 67h4M15 68h1M17 68h1M20 68h13M16 69h1M23 69h7M24 70h5" />
<path stroke="#b5b5bd" d="M50 10h1M50 11h1M50 12h1M58 12h3M61 13h1M62 15h1M47 18h1M48 19h1M52 23h1M64 23h1M65 24h1M52 25h2M50 26h4M47 27h7M55 27h4M67 27h1M45 28h8M57 28h4M62 28h1M66 28h1M47 29h4M59 29h2M65 29h2M46 30h1M49 30h4M58 30h2M65 30h1M45 31h8M57 31h1M45 32h9M45 33h9M46 34h7M48 35h5M48 36h4M47 37h3M48 38h3M3 55h1M34 56h3M33 57h7M3 58h1M34 58h7M34 59h7M33 60h1M35 60h7M36 61h7M19 62h1M36 62h7M18 63h3M35 63h8M18 64h5M34 64h8M19 65h2M23 65h1M35 65h7M25 66h1M35 66h6M13 67h1M15 67h1M17 67h1M34 67h7M14 68h1M16 68h1M18 68h2M33 68h7M14 69h2M17 69h6M30 69h10M15 70h9M29 70h10M17 71h22M19 72h14M34 72h5M20 73h12M33 73h6M21 74h3M27 74h5M34 74h5M28 75h2M35 75h3" />
<path stroke="#737373" d="M51 13h1M55 13h1M51 14h1M62 14h1M52 15h1M54 15h1M63 15h1M46 16h1M63 16h1M46 17h1M63 17h1M54 18h1M57 18h1M62 18h1M55 19h2M46 20h1M44 21h2M48 21h2M43 22h1M42 23h1M53 24h1M66 24h1M67 25h1M68 26h1M68 27h1M67 28h1M51 29h1M45 30h1M48 30h1M53 34h1M47 36h1M52 36h1M50 37h2M1 54h3M25 54h3M1 55h1M28 55h2M2 56h1M4 56h2M30 56h1M2 57h1M6 57h2M2 58h1M33 58h1M3 59h1M12 59h3M33 59h1M10 60h2M15 60h2M18 62h1M43 62h1M7 63h2M17 63h1M9 64h2M17 64h1M33 64h1M34 65h1M12 66h1M12 67h1M14 70h1M15 71h2M33 72h1M20 74h1M24 74h1M26 74h1M39 74h1M21 75h2" />
<path stroke="#294a31" d="M57 20h1M55 21h2M60 21h2M54 22h1M62 22h2M53 23h1M55 23h2M63 23h1M57 24h2M59 25h2M64 25h1M55 26h2M61 26h3M65 27h1M55 28h1M64 28h1M57 29h2M62 29h1M64 29h1M57 30h1M63 30h1M56 31h1M64 31h1M56 32h3M63 32h1M59 33h1M59 34h1M59 35h1M60 36h1M60 37h1M61 38h1M61 39h1M46 40h3M62 40h1M44 41h2M63 41h1M42 42h2M64 42h1M41 43h1M44 43h2M40 44h1M43 44h1M39 45h1M42 45h1M38 46h1M41 46h1M66 46h1M38 47h1M40 47h1M56 47h1M67 47h1M37 48h1M40 48h1M55 48h1M67 48h1M36 49h1M39 49h1M54 49h1M67 49h1M36 50h1M38 50h1M53 50h1M68 50h1M35 51h1M52 51h1M68 51h1M35 52h1M52 52h1M68 52h1M34 53h1M51 53h1M68 53h1M34 54h1M36 54h1M50 54h1M50 55h1M49 56h1M48 57h1M44 62h1M42 64h1M42 65h1M46 66h1M50 67h2M57 68h1M44 69h1M49 69h1M53 69h2M56 69h1M43 70h1M48 70h1M52 71h1M58 71h1M47 72h1M51 72h1M58 72h1M57 73h1M57 74h1M56 75h1M49 76h1M55 76h1M43 77h1M50 77h1M55 77h1M51 78h1M55 78h1M42 79h1M56 79h1M43 80h2M39 81h1M45 81h2M53 81h1M57 81h3M39 82h1M53 82h1M60 82h2M47 83h2M44 84h3M56 85h1M55 86h1M62 86h1" />
<path stroke="#42733a" d="M58 20h4M62 21h1M54 24h1M55 25h1M61 25h1M63 25h1M54 28h1M65 28h1M53 29h4M54 30h3M61 30h2M64 30h1M54 31h2M60 31h4M55 32h1M59 32h4M55 33h4M60 33h1M56 34h3M57 35h2M57 36h3M58 37h2M52 38h1M58 38h1M51 39h2M49 40h4M46 41h1M44 42h2M42 43h2M61 43h4M41 44h2M59 44h2M65 44h1M40 45h2M66 45h1M39 46h2M57 46h1M39 47h1M38 48h2M37 49h2M37 50h1M36 51h2M53 51h1M36 52h1M38 52h2M35 53h2M38 53h2M35 54h1M37 54h4M51 54h1M37 55h6M40 56h5M41 57h7M42 58h5M42 59h4M47 59h2M43 60h3M47 60h3M44 61h1M46 61h6M45 62h11M63 62h2M44 63h20M43 64h21M43 65h4M48 65h15M42 66h4M47 66h4M52 66h10M42 67h4M47 67h3M52 67h9M42 68h3M46 68h4M51 68h3M55 68h2M58 68h2M43 69h1M45 69h4M50 69h3M55 69h1M57 69h1M44 70h4M49 70h4M54 70h2M44 71h4M49 71h3M53 71h2M56 71h2M45 72h2M48 72h3M52 72h1M55 72h3M54 73h3M53 74h4M39 75h1M51 75h5M38 76h3M50 76h5M38 77h5M51 77h4M39 78h4M52 78h2M39 79h3M40 80h3M46 80h3M56 80h2M59 80h3M40 81h5M62 81h1M40 82h6M41 83h6M62 83h1M62 85h1" />
<path stroke="#4a9c42" d="M57 21h3M55 22h6M54 23h1M57 23h4M59 24h2M63 24h1M59 38h2M57 39h1M60 39h1M53 40h1M56 40h1M61 40h1M48 41h9M61 41h2M47 42h11M60 42h4M46 43h15M44 44h15M61 44h4M43 45h23M42 46h15M58 46h8M41 47h15M57 47h10M41 48h14M56 48h11M40 49h14M55 49h12M39 50h14M54 50h14M39 51h13M54 51h14M40 52h12M53 52h15M40 53h11M52 53h16M41 54h9M52 54h16M43 55h7M51 55h17M45 56h4M50 56h17M49 57h18M48 58h19M49 59h17M50 60h16M52 61h13M56 62h7M54 78h1M52 79h4M53 80h3M47 81h2M54 81h3M60 81h2M46 82h3M54 82h6M53 83h9M54 84h9M54 85h2M60 85h2" />
<path stroke="#ad7b4a" d="M61 22h1M21 26h3M24 27h2M26 28h1M26 29h1M27 30h1M23 31h1M27 31h1M23 32h1M26 32h1M26 33h1M17 36h3M20 37h2M22 38h1M19 39h1M22 39h1M17 44h3M16 45h1M20 45h1M21 46h1M18 47h1M20 51h3M23 52h1M20 54h2M26 56h1M24 57h1M27 57h1M25 60h1" />
<path stroke="#deb56b" d="M61 23h1M61 24h1M62 25h1M21 27h3M20 28h6M19 29h7M19 30h2M23 30h4M18 31h2M21 31h2M24 31h3M18 32h1M21 32h2M24 32h2M21 33h5M22 34h3M17 37h3M16 38h1M19 38h3M17 39h2M20 39h2M17 40h5M16 41h1M18 41h3M17 45h3M16 46h5M17 47h1M19 47h2M18 48h3M18 49h2M17 50h1M20 52h3M19 53h5M19 54h1M22 54h2M21 55h2M25 57h2M23 58h5M24 59h1M26 59h2M26 60h1" />
<path stroke="#6b4229" d="M21 30h2M19 32h1M18 33h1M17 34h1M25 34h1M17 38h2M16 39h1M16 40h1M22 40h1M21 41h1M16 42h1M16 43h1M21 47h1M17 48h1M21 48h1M17 49h1M20 49h1M18 51h1M19 52h1M24 53h1M24 54h1M20 55h1M23 55h1M21 56h2M24 56h2M23 57h1M28 58h1M25 59h1M28 59h1M27 60h1" />
</svg>