<svg xmlns="http://www.w3.org/2000/svg" viewBox="0 -0.5 96 96" shape-rendering="crispEdges">
<metadata>Made with Pixels to Svg https://codepen.io/shshaw/pen/XbxvNj</metadata>
<path stroke="#cc7087" d="M35 29h2M34 30h1M36 30h1M41 30h4M35 31h1M40 31h1M45 31h1M35 32h1M34 33h1M38 33h3M35 34h8M45 34h1M47 34h3M36 35h9M50 35h3M35 36h1M38 36h8M53 36h2M36 37h11M55 37h1M38 38h3M43 38h6M56 38h1M41 39h11M57 39h1M38 40h9M50 40h5M36 41h11M48 41h11M34 42h14M50 42h10M36 43h12M49 43h11M35 44h1M37 44h12M51 44h10M37 45h24M37 46h24M36 47h25M63 47h2M36 48h25M62 48h1M36 49h23M31 50h1M36 50h21M59 50h2M31 51h3M37 51h19M57 51h5M64 51h1M32 52h4M37 52h18M56 52h8M32 53h5M38 53h26M33 54h30M35 55h26M38 56h3M42 56h11M54 56h5M35 57h7M44 57h10M56 57h5M37 58h4M45 58h8M46 59h2M49 59h2M52 59h2M45 60h2" />
<path stroke="#ff99b3" d="M35 30h1M34 31h1M41 31h4M34 32h1M40 32h6M35 33h1M41 33h5M43 34h2M46 35h4M46 36h7M47 37h8M49 38h7M52 39h5M55 40h3M31 48h2M63 48h2M31 49h4M61 49h4M32 50h3M61 50h4M34 51h2M62 51h2" />
<path stroke="#733f4c" d="M33 31h1M38 32h2M46 32h1M36 33h2M46 33h1M46 34h1M35 35h1M45 35h1M36 36h2M36 40h2M47 40h3M58 40h1M33 41h3M47 41h1M59 41h1M33 42h1M48 42h2M60 42h1M34 43h2M60 43h1M61 44h1M61 45h1M61 46h1M31 47h2M61 47h1M33 48h2M61 48h1M65 48h1M59 49h2M65 49h1M57 50h2M65 50h1M56 51h1M65 51h1M55 52h1M64 52h1M64 53h1M63 54h1M61 55h2M59 56h2M34 57h1M35 58h2M41 58h2M37 59h4" />
<path stroke="#101010" d="M33 32h1M33 33h1M34 34h1M34 35h1M34 36h1M35 37h1M36 38h2M41 38h2M38 39h3M48 43h1M34 44h1M36 44h1M49 44h2M35 45h2M36 46h1M35 47h1M30 48h1M35 48h1M30 49h1M35 49h1M30 50h1M35 50h1M30 51h1M36 51h1M31 52h1M36 52h1M31 53h1M37 53h1M32 54h1M33 55h2M35 56h3M41 56h1M53 56h1M42 57h2M54 57h2M61 57h1M44 58h1M53 58h1M56 58h5M45 59h1M48 59h1M51 59h1M54 59h1M44 60h1M47 60h1M49 60h2M52 60h3M44 61h3M51 61h1M45 62h1M51 62h1M45 63h1M50 63h1M45 64h1M50 64h1M46 65h4" />
<path stroke="#737373" d="M57 38h1M58 39h2M60 40h1M61 41h1M62 42h1M62 43h1M63 44h1" />
<path stroke="#e5e5e5" d="M59 40h1M60 41h1M61 42h1M61 43h1M62 44h1" />
<path stroke="#a6a6a6" d="M62 45h1" />
<path stroke="#4d4d4d" d="M63 45h1M62 46h1" />
<path stroke="#592447" d="M48 60h1M48 61h1M47 62h1M47 63h1M47 64h1" />
<path stroke="#993d7a" d="M51 60h1M47 61h1M49 61h2M46 62h1M48 62h3M46 63h1M48 63h2M46 64h1M48 64h2" />
</svg>