<svg xmlns="http://www.w3.org/2000/svg" viewBox="0 -0.5 96 96" shape-rendering="crispEdges">
<metadata>Made with Pixels to Svg https://codepen.io/shshaw/pen/XbxvNj</metadata>
<path stroke="#661a2d" d="M45 22h4M43 23h2M49 23h2M42 24h1M51 24h1M41 25h1M52 25h1M41 26h1M52 26h1M42 32h1M51 32h1M33 53h1M57 53h2M34 54h2M54 54h3M37 55h17M57 57h1M38 58h3M56 58h1M36 59h2M41 59h1M55 59h1M31 60h5M42 60h1M54 60h1M43 61h1M52 61h2M44 62h2M50 62h2M46 63h4" />
<path stroke="#a62949" d="M45 23h2M43 24h6M42 25h8M42 26h9M41 27h12M41 28h12M41 29h12M41 30h12M42 31h10M43 32h8M32 54h2M57 54h1M32 55h5M54 55h4M32 56h27M31 57h26M31 58h7M41 58h15M31 59h5M42 59h13M43 60h11M44 61h8M46 62h4" />
<path stroke="#e53964" d="M47 23h2M51 25h1M51 26h1M58 54h2M58 55h2" />
<path stroke="#ff8ca9" d="M49 24h1M50 25h1" />
<path stroke="#f8f8f8" d="M50 24h1" />
<path stroke="#101010" d="M40 27h1M53 27h1M40 28h1M53 28h1M40 29h1M53 29h1M40 30h1M53 30h1M41 31h1M52 31h1M41 32h1M52 32h1M42 33h10M39 34h3M37 35h2M35 36h2M34 37h1M33 38h1M32 39h1M32 40h1M31 41h1M31 42h1M30 43h1M30 44h1M29 45h1M28 46h1M27 47h2M68 47h1M26 48h1M28 48h1M68 48h1M26 49h1M28 49h1M68 49h1M26 50h1M29 50h1M33 50h2M48 50h3M68 50h1M26 51h1M30 51h3M35 51h2M45 51h3M51 51h1M58 51h1M67 51h1M27 52h1M32 52h1M37 52h8M52 52h4M58 52h1M67 52h1M27 53h1M32 53h1M59 53h1M65 53h2M28 54h2M31 54h1M60 54h5M30 55h2M60 55h1M63 55h1M29 56h1M31 56h1M64 56h1M28 57h1M30 57h1M61 57h1M65 57h1M28 58h1M30 58h1M61 58h1M65 58h1M29 59h2M62 59h3M29 60h1M62 60h1M29 61h1M62 61h1M29 62h1M62 62h1M29 63h1M62 63h1M30 64h1M62 64h1M30 65h1M61 65h1M31 66h1M61 66h1M32 67h1M60 67h1M32 68h2M42 68h5M58 68h2M32 69h1M35 69h7M47 69h10M32 70h1M47 70h1M33 71h2M41 71h2M48 71h1M57 71h2M35 72h6M49 72h8" />
<path stroke="#cc99a6" d="M42 34h9M39 35h13M37 36h16M55 36h1M36 37h17M35 38h19M34 39h22M33 40h25M32 41h27M32 42h28M31 43h30M33 44h30M30 45h24M56 45h7M66 45h1M29 46h25M57 46h7M29 47h26M58 47h7M27 48h1M29 48h4M34 48h16M51 48h5M58 48h9M27 49h1M29 49h4M35 49h14M51 49h6M58 49h10M27 50h2M30 50h3M36 50h12M51 50h6M58 50h10M27 51h3M37 51h8M52 51h4M59 51h8M28 52h4M59 52h7M29 53h3M61 53h4M30 54h1M33 69h2M34 70h7M48 70h8M35 71h6M49 71h7" />
<path stroke="#ffccd9" d="M51 34h1M52 35h2M53 36h2M53 37h4M54 38h4M56 39h3M58 40h1M59 41h1M63 44h2M63 45h3M54 46h2M64 46h3M55 47h2M65 47h3M56 48h1M67 48h1M42 69h1M57 69h2M41 70h2M56 70h3M56 71h1" />
<path stroke="#805963" d="M52 34h2M54 35h2M56 36h1M35 37h1M57 37h1M34 38h1M58 38h1M33 39h1M59 39h1M59 40h1M60 41h1M60 42h1M61 43h4M31 44h2M65 44h2M54 45h2M67 45h1M56 46h1M67 46h1M57 47h1M33 48h1M50 48h1M57 48h1M33 49h2M49 49h2M57 49h1M35 50h1M57 50h1M56 51h1M66 52h1M28 53h1M60 53h1M36 54h1M60 56h2M60 66h1M59 67h1M34 68h1M41 68h1M47 68h1M57 68h1M43 69h1M59 69h1M33 70h1M43 70h1M59 70h1" />
<path stroke="#ccadad" d="M33 51h2M48 51h3M57 51h1M33 52h4M45 52h7M56 52h2M34 53h23M37 54h17M61 55h2M30 56h1M59 56h1M29 57h1M58 57h1M29 58h1M57 58h2M62 58h1M38 59h3M56 59h4M30 60h1M36 60h6M55 60h5M30 61h13M54 61h7M30 62h14M52 62h9M30 63h16M50 63h12M31 64h31M31 65h30M32 66h28M33 67h26M35 68h6M48 68h9" />
<path stroke="#fff2f2" d="M62 56h2M59 57h2M62 57h3M59 58h2M63 58h2M60 59h2M60 60h2M61 61h1M61 62h1" />
</svg>