<svg xmlns="http://www.w3.org/2000/svg" viewBox="0 -0.5 96 96" shape-rendering="crispEdges">
<metadata>Made with Pixels to Svg https://codepen.io/shshaw/pen/XbxvNj</metadata>
<path stroke="#334d2a" d="M48 32h8M43 33h5M56 33h4M39 34h4M52 34h2M60 34h2M36 35h3M43 35h3M54 35h2M62 35h2M33 36h3M46 36h3M56 36h2M64 36h1M31 37h2M49 37h2M58 37h1M64 37h1M29 38h2M51 38h2M59 38h1M28 39h1M53 39h1M59 39h1M28 40h1M32 40h2M54 40h1M60 40h1M27 41h1M37 41h2M54 41h1M60 41h1M27 42h1M41 42h2M55 42h1M60 42h1M27 43h1M55 43h1M27 44h1M27 45h1M27 46h1M27 47h1M57 47h1M27 48h1M56 48h1M58 48h1M27 49h1M48 49h1M52 49h1M56 49h1M58 49h1M27 50h1M48 50h1M51 50h1M53 50h1M56 50h1M58 50h1M27 51h1M48 51h1M51 51h1M53 51h1M56 51h1M58 51h1M61 51h1M27 52h1M48 52h1M51 52h1M53 52h1M57 52h1M61 52h1M27 53h1M48 53h1M51 53h1M53 53h1M56 53h1M62 53h1M27 54h1M48 54h1M52 54h1M56 54h1M62 54h2M48 55h1M55 55h1M63 55h1M48 56h1M55 56h1M48 57h1M48 58h1M48 59h1M48 60h1M48 61h1" />
<path stroke="#4c733f" d="M48 33h3M51 34h1M39 35h4M30 40h2M34 41h3M39 42h2M43 43h3M60 43h1M55 44h1M60 44h1M47 45h1M55 45h1M60 45h1M48 46h1M55 46h1M60 46h1M48 47h1M55 47h2M58 47h1M60 47h1M48 48h1M55 48h1M60 48h1M51 49h1M53 49h1M55 49h1M60 49h1M64 49h1M55 50h1M60 50h1M62 50h3M55 51h1M59 51h2M62 51h3M28 52h4M55 52h2M58 52h3M62 52h3M28 53h10M54 53h2M57 53h3M63 53h2M28 54h16M49 54h3M53 54h3M57 54h3M28 55h20M49 55h6M58 55h2M28 56h20M49 56h6M58 56h2M28 57h20M49 57h5M59 57h1M29 58h19M49 58h5M29 59h19M49 59h4M32 60h16M49 60h4M36 61h12M49 61h2M41 62h7" />
<path stroke="#659954" d="M51 33h5M43 34h1M46 34h5M54 34h6M46 35h8M56 35h6M36 36h3M41 36h5M49 36h7M58 36h6M33 37h4M39 37h10M51 37h7M59 37h5M31 38h20M53 38h6M60 38h5M29 39h24M54 39h5M60 39h5M29 40h1M34 40h20M55 40h5M61 40h4M28 41h6M39 41h15M55 41h5M61 41h4M28 42h11M43 42h12M56 42h4M61 42h4M28 43h15M46 43h9M56 43h4M61 43h4M28 44h27M56 44h4M61 44h4M28 45h19M48 45h7M56 45h4M61 45h4M28 46h20M49 46h6M56 46h4M61 46h4M28 47h20M49 47h6M59 47h1M61 47h4M28 48h20M49 48h6M57 48h1M59 48h1M61 48h4M28 49h20M49 49h2M54 49h1M57 49h1M59 49h1M61 49h3M28 50h20M49 50h2M52 50h1M54 50h1M57 50h1M59 50h1M61 50h1M28 51h20M49 51h2M52 51h1M54 51h1M57 51h1M32 52h16M49 52h2M52 52h1M54 52h1M38 53h10M49 53h2M52 53h1M44 54h4" />
<path stroke="#94bf86" d="M44 34h2M39 36h2M37 37h2" />
<path stroke="#101010" d="M65 38h1M65 39h1M65 40h1M65 41h1M65 42h1M65 43h1M65 44h1M65 45h1M65 46h1M65 47h1M68 47h1M65 48h1M68 48h1M65 49h1M67 49h1M65 50h1M67 50h1M65 51h2M65 52h1M65 53h1M64 54h1M27 55h1M57 55h1M64 55h1M27 56h1M57 56h1M62 56h2M27 57h1M58 57h1M60 57h2M28 58h1M58 58h2M28 59h1M56 59h2M29 60h3M54 60h2M32 61h4M51 61h3M36 62h5M48 62h3M41 63h7" />
<path stroke="#734b22" d="M66 47h2M60 53h1M60 54h1M60 55h1M60 56h1M54 57h1M54 58h1M53 59h1M53 60h1" />
<path stroke="#ffa64c" d="M66 48h2M66 49h1" />
<path stroke="#b37436" d="M66 50h1M61 53h1M61 54h1M56 55h1M61 55h2M56 56h1M61 56h1M55 57h3M55 58h3M54 59h2" />
</svg>