<svg xmlns="http://www.w3.org/2000/svg" viewBox="0 -0.5 96 96" shape-rendering="crispEdges">
<metadata>Made with Pixels to Svg https://codepen.io/shshaw/pen/XbxvNj</metadata>
<path stroke="#5c732e" d="M50 21h7M48 22h2M57 22h2M47 23h1M59 23h1M60 24h1M63 35h1M63 36h1M63 37h1M63 38h1M63 39h1M61 40h1M59 44h2" />
<path stroke="#b8e55c" d="M50 22h7M48 23h11M47 24h5M53 24h3M57 24h3M50 25h1M54 25h1M58 25h1M62 35h1M61 36h2M61 37h2M62 38h1M63 40h1M63 41h1M63 42h2M64 43h1M57 44h2M59 45h2" />
<path stroke="#808080" d="M34 23h5M33 24h1M39 24h1M43 24h4M32 25h1M40 25h3M47 25h2M29 26h4M40 26h1M44 26h2M28 27h1M40 27h1M46 27h2M30 32h1M32 37h1M34 37h1M30 38h3M34 38h1M33 39h1M30 40h2M33 40h1M31 41h1M33 41h1M30 42h1M32 42h1M30 43h1M32 43h1M30 44h1M32 44h1M29 45h1M31 45h1M29 46h1M31 46h1M29 47h1M31 47h1M29 48h1M31 48h1M60 48h1M29 49h1M31 49h1M60 49h1M62 49h2M29 50h1M31 50h1M60 50h1M62 50h1M29 51h1M31 51h1M60 51h1M62 51h1M29 52h1M31 52h1M59 52h1M61 52h1M30 53h1M32 53h1M59 53h1M61 53h1M30 54h1M32 54h1M59 54h1M61 54h1M30 55h1M32 55h1M59 55h1M61 55h1M31 56h1M33 56h1M58 56h1M60 56h1M31 57h1M33 57h1M58 57h1M60 57h1M32 58h1M34 58h1M60 58h1M32 59h1M34 59h1M57 59h1M59 59h1M33 60h1M35 60h1M59 60h1M34 61h1M36 61h1M56 61h1M58 61h1M35 62h1M55 62h1M57 62h1M46 63h3M53 63h2M57 63h1M49 64h4M55 64h2M58 64h1M47 65h3M53 65h2M57 65h1M50 66h3M46 67h4M48 71h1" />
<path stroke="#f8f8f8" d="M34 24h5M33 25h7M43 25h4M33 26h3M37 26h3M46 26h2M29 27h3M33 27h3M37 27h3M41 27h2M28 28h7M36 28h1M38 28h6M28 29h4M36 29h1M40 29h4M29 30h5M35 30h3M39 30h5M30 31h5M39 31h4M33 32h2M36 32h3M40 32h2M32 33h5M38 33h5M33 34h3M39 34h3M33 37h1M33 38h1M30 39h3M32 40h1M32 41h1M31 42h1M31 43h1M31 44h1M30 45h1M30 46h1M30 47h1M61 47h1M30 48h1M61 48h3M30 49h1M61 49h1M30 50h1M61 50h1M30 51h1M61 51h1M30 52h1M60 52h1M31 53h1M60 53h1M31 54h1M60 54h1M31 55h1M60 55h1M32 56h1M59 56h1M32 57h1M59 57h1M33 58h1M58 58h2M33 59h1M58 59h1M34 60h1M57 60h2M35 61h1M57 61h1M56 62h1M55 63h2M37 64h1M40 64h1M53 64h2M57 64h1M38 65h3M42 65h1M50 65h3M39 66h3M47 66h3M39 67h3M38 68h1M42 68h1" />
<path stroke="#803526" d="M52 24h1M56 24h1M49 25h1M53 25h1M55 25h1M57 25h1M48 26h1M54 26h1M58 26h1M46 28h2M46 29h1M62 29h2M64 30h1M45 32h3M61 34h1M47 35h1M66 42h2M68 43h1M32 48h2M27 49h2M34 49h1M26 50h1M35 50h1M25 51h1M35 51h1M25 52h1M35 52h2M56 52h1M26 54h1M27 55h1M54 56h1M53 57h1M30 58h1M31 59h1M39 60h3M38 61h1M42 61h1M36 62h2M43 62h2M35 63h1M45 63h1" />
<path stroke="#101010" d="M51 25h1M59 25h2M41 26h3M51 26h1M61 26h1M44 27h1M48 27h1M61 27h3M27 28h1M44 28h1M48 28h1M63 28h1M27 29h1M45 29h1M27 30h1M45 30h1M28 31h1M45 31h1M65 31h1M29 32h1M43 32h2M65 32h1M30 33h1M44 33h1M64 33h1M30 34h1M44 34h1M62 34h2M31 35h1M37 35h1M43 35h1M45 35h2M51 35h2M55 35h2M59 35h3M32 36h5M38 36h5M47 36h4M53 36h2M57 36h2M40 37h1M45 37h2M49 37h1M41 38h4M49 38h1M25 39h1M50 39h1M25 40h1M50 40h1M64 40h1M25 41h1M51 41h1M61 41h1M64 41h1M25 42h1M52 42h2M59 42h3M65 42h1M26 43h1M54 43h5M61 43h1M65 43h1M25 44h1M29 44h1M54 44h1M61 44h1M65 44h1M69 44h1M25 45h1M55 45h1M61 45h1M65 45h1M69 45h1M25 46h1M28 46h1M56 46h2M61 46h1M64 46h1M69 46h1M26 47h2M55 47h1M58 47h3M62 47h2M68 47h1M55 48h1M69 48h1M56 49h1M58 49h2M69 49h1M57 50h1M63 50h1M69 50h1M54 51h3M64 51h1M68 51h1M53 52h1M64 52h4M25 53h1M37 53h1M52 53h1M64 53h1M25 54h1M37 54h1M52 54h1M65 54h1M26 55h1M37 55h1M52 55h1M66 55h1M26 56h1M36 56h1M53 56h1M66 56h1M26 57h1M36 57h1M52 57h1M66 57h1M27 58h1M36 58h1M52 58h1M55 58h3M66 58h1M28 59h3M35 59h1M52 59h1M54 59h1M65 59h1M31 60h2M53 60h1M63 60h2M53 61h1M63 61h1M52 62h1M63 62h1M51 63h1M34 64h1M46 64h1M63 64h1M34 65h1M46 65h1M63 65h1M34 66h1M46 66h1M63 66h1M35 67h1M45 67h1M51 67h1M53 67h2M60 67h3M35 68h1M45 68h1M51 68h1M54 68h1M60 68h1M35 69h1M45 69h1M51 69h1M55 69h1M59 69h1M36 70h1M40 70h1M44 70h1M50 70h1M56 70h3M37 71h3M41 71h3M49 71h1M40 72h1M44 72h1M49 72h1M41 73h3M45 73h1M48 73h1M46 74h2" />
<path stroke="#ffe14c" d="M52 25h1M56 25h1M49 26h1M52 26h2M55 26h3M59 26h2M49 27h2M52 27h2M55 27h6M49 28h8M59 28h4M47 29h2M52 29h2M60 29h2M64 31h1M64 54h1M64 55h2M65 56h1" />
<path stroke="#bfbfbf" d="M36 26h1M32 27h1M36 27h1M43 27h1M35 28h1M37 28h1M32 29h4M37 29h3M44 29h1M28 30h1M34 30h1M38 30h1M44 30h1M29 31h1M35 31h4M43 31h2M31 32h2M35 32h1M39 32h1M42 32h1M31 33h1M37 33h1M43 33h1M31 34h2M36 34h3M42 34h2M32 35h5M38 35h5M40 63h1M43 64h1M47 64h2M41 65h1M50 67h1M39 68h1M41 68h1M46 68h5M46 69h5M45 70h5M40 71h1M44 71h4M41 72h3M45 72h4M46 73h2" />
<path stroke="#e5b045" d="M50 26h1M51 27h1M54 27h1M57 28h2M49 29h3M54 29h6M46 30h18M46 31h18M48 32h17M45 33h19M45 34h16M48 35h3M53 35h2M57 35h2M32 49h2M27 50h2M32 50h3M58 50h2M26 51h3M32 51h3M57 51h3M63 51h1M26 52h3M32 52h3M54 52h2M57 52h2M62 52h2M26 53h4M33 53h4M53 53h6M62 53h2M27 54h3M33 54h4M53 54h6M62 54h2M28 55h2M33 55h4M53 55h6M62 55h2M27 56h4M34 56h2M55 56h3M61 56h4M27 57h4M34 57h2M54 57h4M61 57h5M28 58h2M31 58h1M35 58h1M53 58h2M61 58h5M53 59h1M62 59h3" />
<path stroke="#8fb347" d="M45 27h1M45 28h1M44 35h1M43 36h4M51 36h2M55 36h2M59 36h2M41 37h4M50 37h11M50 38h12M51 39h12M51 40h10M62 40h1M52 41h9M62 41h1M54 42h5M62 42h1M62 43h2M55 44h2M62 44h3M56 45h3M62 45h3M58 46h3M62 46h2" />
<path stroke="#802653" d="M29 33h1M28 34h1M28 35h1M27 36h1M31 36h1M26 37h1M29 37h1M31 37h1M26 38h1M29 38h1M29 39h1M28 40h1M30 41h1M60 59h2M62 60h1M62 61h1M53 62h1M62 62h1M52 63h1M61 63h2" />
<path stroke="#b33674" d="M29 34h1M29 35h2M28 36h3M27 37h2M30 37h1M27 38h2M26 39h3M26 40h2M29 40h1M26 41h4M26 42h4M27 43h3M26 44h3M26 45h3M26 46h2M55 59h2M54 60h3M60 60h2M54 61h2M59 61h3M54 62h1M58 62h4M58 63h3M59 64h4M55 65h2M58 65h5M53 66h10M55 67h5M55 68h5M56 69h3" />
<path stroke="#b34a36" d="M59 43h2M66 44h1M66 45h2M65 46h4M56 47h2M64 47h4M56 48h4M64 48h5M57 49h1M64 49h5M64 50h5M65 51h3M35 65h1M43 65h3M35 66h4M42 66h4M36 67h3M42 67h3M36 68h2M40 68h1M43 68h2M36 69h9M37 70h3M41 70h3" />
<path stroke="#e56045" d="M66 43h2M67 44h2M68 45h1M39 61h3M38 62h5M36 63h4M41 63h4M35 64h2M38 64h2M41 64h2M44 64h2M36 65h2" />
</svg>