<svg xmlns="http://www.w3.org/2000/svg" viewBox="0 -0.5 96 96" shape-rendering="crispEdges">
<metadata>Made with Pixels to Svg https://codepen.io/shshaw/pen/XbxvNj</metadata>
<path stroke="#010101" d="M50 14h1M62 14h1M50 15h1M61 15h1M50 16h1M60 16h1M50 17h1M59 17h1M59 18h1M51 19h1M58 19h1M51 20h1M58 20h1M52 21h1M57 21h1M52 22h1M57 22h1M53 23h1M53 24h1M10 25h1M54 25h1M10 26h1M51 26h1M54 26h1M10 27h1M51 27h1M58 27h1M10 28h1M51 28h1M57 28h1M10 29h1M51 29h1M10 30h1M47 30h1M51 30h1M10 31h1M47 31h1M48 32h1M11 33h1M48 33h2M11 34h1M48 34h1M11 35h1M48 35h1M49 36h1M12 37h1M49 37h6M12 38h1M47 38h2M57 38h1M46 39h1M13 40h1M41 40h1M44 40h1M14 41h1M40 41h1M42 41h2M15 42h1M39 42h1M41 42h1M70 42h3M16 43h1M69 43h1M17 44h2M69 44h1M19 45h2M64 45h3M69 45h1M21 46h2M67 46h3M23 47h2M25 48h1M26 50h1M27 51h1M58 53h1M59 54h1M59 55h1M60 56h1M61 57h1M61 58h1M31 59h1M60 59h3M32 60h2M36 60h1M55 60h5M62 60h1M34 61h3M49 61h1M52 61h3M62 61h1M34 62h1M37 62h1M49 62h3M63 62h1M32 63h2M37 63h1M49 63h1M63 63h1M20 64h1M31 64h1M38 64h1M49 64h1M63 64h1M20 65h1M29 65h2M38 65h1M48 65h2M63 65h1M20 66h1M27 66h2M39 66h1M48 66h1M50 66h1M64 66h1M19 67h1M24 67h3M40 67h1M46 67h2M50 67h1M64 67h1M19 68h1M23 68h1M40 68h1M45 68h1M51 68h1M65 68h1M18 69h1M39 69h1M45 69h1M52 69h1M64 69h1M66 69h1M17 70h1M22 70h1M39 70h1M44 70h1M53 70h1M63 70h1M66 70h1M17 71h1M22 71h1M39 71h1M43 71h1M54 71h2M61 71h2M67 71h1M17 72h1M38 72h1M43 72h1M56 72h5M68 72h1M18 73h1M38 73h1M42 73h1M19 74h1M37 74h1M42 74h1M70 74h2M79 74h2M19 75h1M25 75h5M37 75h1M68 75h2M72 75h1M77 75h2M82 75h3M20 76h2M26 76h1M37 76h1M73 76h4M22 77h4M38 77h1M39 78h1M39 79h1M45 79h6M40 80h5" />
<path stroke="#2b281c" d="M51 14h1M63 14h1M52 15h1M63 15h1M53 16h1M63 16h1M53 17h1M63 17h1M51 18h1M54 18h1M62 18h1M54 19h1M62 19h1M55 20h1M62 20h1M55 21h1M61 21h1M56 22h1M61 22h1M56 23h1M60 23h1M56 24h1M60 24h1M59 25h1M55 27h1M44 38h3M49 38h8M42 39h2M47 39h13M45 40h16M41 41h1M44 41h18M40 42h1M42 42h1M45 42h18M48 43h16M49 44h16M49 45h15M50 46h13M51 47h12M68 47h1M51 48h11M69 48h1M53 49h9M68 49h2M54 50h8M68 50h1M70 50h1M54 51h8M68 51h1M70 51h1M53 52h10M69 52h2M54 53h4M59 53h4M69 53h1M71 53h1M55 54h4M60 54h4M70 54h2M55 55h4M60 55h4M65 55h4M71 55h1M54 56h6M61 56h5M69 56h2M72 56h1M53 57h8M62 57h3M66 57h3M71 57h2M54 58h7M62 58h3M69 58h4M55 59h5M63 59h2M72 59h1M63 60h2M63 61h2" />
<path stroke="#3c3126" d="M14 15h3M12 16h2M17 16h2M11 17h1M19 17h1M11 18h1M20 18h1M10 19h1M20 19h1M10 20h1M21 20h1M10 21h1M21 21h1M10 22h1M21 22h1M10 23h1M21 23h1M10 24h1M21 24h1M21 25h1M51 25h2M61 25h3M21 26h1M53 26h1M59 26h2M63 26h1M22 27h1M54 27h1M63 27h1M22 28h1M55 28h2M63 28h1M67 28h5M22 29h1M47 29h2M56 29h1M62 29h5M71 29h1M22 30h1M49 30h2M62 30h1M71 30h1M22 31h1M51 31h2M70 31h1M11 32h1M23 32h1M52 32h1M69 32h1M23 33h1M68 33h3M23 34h1M50 34h1M71 34h2M23 35h1M73 35h1M12 36h1M23 36h1M72 36h1M24 37h1M55 37h1M72 37h1M24 38h1M58 38h1M71 38h1M13 39h1M24 39h1M60 39h1M70 39h2M25 40h1M61 40h1M71 40h1M25 41h1M62 41h1M72 41h1M26 42h1M43 42h2M63 42h1M68 42h2M27 43h1M39 43h4M45 43h3M64 43h1M71 43h1M28 44h2M36 44h3M45 44h1M48 44h1M65 44h1M71 44h1M30 45h6M48 45h1M70 45h1M47 46h3M46 47h2M50 47h1M30 48h1M50 48h1M26 49h1M29 49h1M49 49h4M25 50h1M29 50h1M53 50h1M24 51h1M28 51h1M53 51h1M24 52h1M46 52h1M52 52h1M23 53h1M46 53h1M51 53h3M23 54h1M47 54h1M54 54h1M23 55h1M47 55h1M54 55h1M23 56h1M48 56h1M53 56h1M23 57h1M29 57h1M48 57h1M51 57h2M23 58h1M30 58h1M35 58h1M48 58h1M52 58h2M22 59h1M36 59h1M49 59h1M54 59h1M22 60h1M49 60h1M54 60h1M67 60h2M71 60h2M21 61h1M66 61h1M69 61h2M73 61h1M20 62h1M22 62h2M64 62h3M70 62h1M73 62h1M20 63h2M24 63h1M59 63h1M66 63h1M73 63h1M25 64h1M59 64h1M61 64h1M73 64h1M25 65h1M41 65h3M61 65h1M74 65h1M25 66h1M40 66h1M44 66h1M74 66h1M45 67h1M74 67h1M75 68h1M22 69h1M75 69h1M75 70h4M75 71h2M79 71h3M22 72h5M69 72h1M74 72h1M78 72h2M82 72h1M26 73h4M68 73h1M70 73h4M83 73h2M23 74h1M30 74h1M43 74h4M67 74h1M81 74h1M85 74h1M24 75h1M42 75h1M45 75h4M42 76h1M49 76h1M47 77h4M51 78h1" />
<path stroke="#1bc953" d="M51 15h1M62 15h1M51 16h2M61 16h2M51 17h2M60 17h3M52 18h2M60 18h2M52 19h2M59 19h3M52 20h3M59 20h3M53 21h2M58 21h3M53 22h3M58 22h3M54 23h2M57 23h3M54 24h2M57 24h3M55 25h4M55 26h4M56 27h2M69 50h1M69 51h1M70 53h1M66 56h3M69 57h2" />
<path stroke="#666042" d="M14 16h3M12 17h7M12 18h8M11 19h9M11 20h10M11 21h10M11 22h10M11 23h10M11 24h10M11 25h10M11 26h9M11 27h5M11 28h1M21 37h3M20 38h4M21 39h3M22 40h3M24 41h1M25 42h1M26 43h1M70 43h1M27 44h1M70 44h1M28 45h1M29 46h4M77 71h2M75 72h3M80 72h2M22 73h4M69 73h1M77 73h3M82 73h1M22 74h1M24 74h6M68 74h1M84 74h1M23 75h1M43 75h2M24 76h2M43 76h6M44 77h3M46 78h5" />
<path stroke="#4c4234" d="M20 26h1M16 27h4M12 28h4M19 28h1M11 29h1M15 29h1M20 36h3M16 37h1M20 37h1M16 38h4M14 39h7M14 40h8M15 41h9M16 42h9M17 43h9M19 44h8M21 45h7M29 45h1M23 46h6M33 46h1M25 47h8M26 48h4M27 49h2M27 50h2M22 63h2M21 64h4M21 65h4M21 66h4M41 66h3M20 67h4M41 67h4M20 68h3M41 68h4M19 69h3M40 69h5M18 70h4M40 70h4M18 71h4M40 71h3M18 72h4M39 72h4M19 73h3M39 73h3M74 73h3M80 73h2M20 74h2M38 74h4M69 74h1M72 74h7M82 74h2M20 75h3M38 75h4M73 75h4M22 76h2M38 76h4M39 77h5M40 78h6M40 79h5" />
<path stroke="#fbfbfb" d="M52 26h1M61 26h2M53 27h1M59 27h1M62 27h1M54 28h1M62 28h1M55 29h1M67 29h4M48 30h1M68 30h3M49 31h2M68 31h2M51 32h1M67 32h2M66 33h2M67 34h4M69 35h4M71 36h1M71 37h1M70 38h1M69 40h2M70 41h2M39 44h4M36 45h9M34 46h12M33 47h12M34 48h9M35 49h6M37 50h1M39 50h1M41 50h1M38 51h1M40 51h1M23 60h2M22 61h4M21 62h1M24 62h2M40 63h3M39 64h6M39 65h2M44 65h1M45 66h1" />
<path stroke="#fdfdfd" d="M20 27h2M16 28h3M20 28h2M12 29h3M16 29h6M11 30h11M11 31h11M12 32h11M12 33h11M12 34h11M12 35h11M13 36h7M13 37h3M17 37h3M13 38h3" />
<path stroke="#c7b8a3" d="M52 27h1M60 27h2M52 28h2M58 28h4M52 29h3M57 29h5M52 30h10M63 30h5M48 31h1M53 31h15M49 32h2M53 32h14M50 33h16M49 34h1M51 34h16M49 35h20M50 36h21M56 37h15M59 38h11M61 39h9M62 40h7M63 41h7M64 42h4M43 43h2M65 43h4M43 44h2M46 44h2M66 44h3M45 45h3M67 45h2M46 46h1M45 47h1M48 47h2M31 48h3M43 48h7M30 49h5M41 49h8M30 50h7M38 50h1M40 50h1M42 50h11M25 51h2M29 51h9M39 51h1M41 51h12M25 52h21M47 52h5M24 53h22M47 53h4M24 54h23M48 54h6M24 55h23M48 55h6M24 56h24M49 56h4M24 57h5M30 57h18M49 57h2M24 58h6M31 58h4M36 58h12M49 58h3M23 59h8M32 59h4M37 59h12M50 59h4M25 60h7M34 60h2M37 60h12M50 60h4M26 61h8M37 61h12M50 61h2M26 62h8M38 62h11M25 63h7M38 63h2M43 63h6M26 64h5M45 64h4M26 65h3M45 65h3M26 66h1M46 66h2" />
<path stroke="#58523a" d="M44 39h2M42 40h2M63 46h4M63 47h5M62 48h7M62 49h6M62 50h6M62 51h6M63 52h6M63 53h6M64 54h6M64 55h1M69 55h2M71 56h1M65 57h1M65 58h4M65 59h7M65 60h2M69 60h2M65 61h1" />
<path stroke="#7ca244" d="M60 60h2M55 61h7M52 62h11M50 63h9M60 63h3M50 64h9M60 64h1M62 64h1M50 65h11M62 65h1M51 66h13M51 67h13M52 68h13M53 69h11M54 70h9M56 71h5" />
<path stroke="#fefefe" d="M67 61h2M71 61h2M67 62h3M71 62h2M64 63h2M67 63h6M64 64h9M64 65h10M65 66h9M65 67h9M66 68h9M67 69h8M67 70h8M68 71h7M70 72h4" />
</svg>