<svg xmlns="http://www.w3.org/2000/svg" viewBox="0 -0.5 96 96" shape-rendering="crispEdges">
<metadata>Made with Pixels to Svg https://codepen.io/shshaw/pen/XbxvNj</metadata>
<path stroke="#639a67" d="M36 7h2M35 8h1M34 9h1M37 9h1M20 10h2M36 10h1M19 11h1M34 11h2M18 12h1M35 12h1M35 13h2M36 14h1M36 15h2M37 16h1M32 17h1M37 17h1M31 18h1M38 18h1M31 19h1M38 19h2M64 19h1M30 20h1M39 20h1M63 20h1M65 20h1M30 21h1M39 21h1M62 21h1M66 21h1M29 22h1M39 22h2M61 22h1M67 22h1M29 23h1M40 23h1M60 23h1M29 24h1M40 24h1M59 24h1M22 25h1M29 25h1M40 25h2M57 25h2M28 26h1M41 26h1M56 26h2M28 27h1M41 27h1M55 27h2M67 27h1M28 28h1M41 28h1M54 28h2M66 28h1M68 28h1M27 29h3M41 29h2M53 29h2M65 29h1M69 29h1M12 30h1M26 30h1M31 30h1M41 30h2M54 30h1M64 30h1M13 31h1M34 31h1M41 31h2M56 31h1M63 31h1M36 32h1M41 32h2M47 32h1M62 32h1M20 33h3M38 33h1M41 33h2M61 33h1M19 34h1M23 34h2M40 34h1M61 34h1M67 34h2M26 35h2M41 35h1M63 35h1M66 35h1M29 36h2M65 36h1M32 37h3M34 38h5M66 38h1M38 39h4M41 40h1M21 41h1M20 42h1M40 42h1M57 42h1M20 43h1M56 43h3M19 44h1M55 44h2M59 44h1M19 45h1M34 45h1M38 45h1M54 45h2M60 45h1M18 46h1M34 46h2M53 46h2M61 46h1M18 47h1M52 47h2M62 47h1M19 48h2M36 48h1M51 48h2M63 48h1M20 49h2M50 49h2M22 50h1M49 50h2M57 50h1M23 51h1M48 51h4M59 51h1M67 51h1M51 52h2M61 52h1M68 52h1M52 53h2M58 53h1M69 53h1M32 54h1M53 54h2M33 55h1M54 55h2M59 55h1M64 55h1M35 56h1M50 56h2M55 56h2M67 56h1M29 57h1M37 57h2M48 57h2M56 57h2M59 57h1M65 57h1M69 57h1M72 57h1M41 58h5M55 58h1M59 58h2M73 58h1M30 59h1M60 59h2M66 59h1M74 59h1M27 60h1M61 60h2M62 61h2M63 62h2M66 62h1M25 63h1M62 63h1M66 63h2M67 64h2M68 65h2M23 66h1M69 66h1M21 69h1" />
<path stroke="#c8e1cd" d="M36 8h2M35 9h2M34 10h2M20 11h1M19 12h1M21 12h1M42 12h1M20 13h2M43 13h2M19 14h4M34 14h1M43 14h4M19 15h4M34 15h1M44 15h5M20 16h4M33 16h3M45 16h5M20 17h4M31 17h1M35 17h1M45 17h7M20 18h5M36 18h1M46 18h7M64 18h1M21 19h4M47 19h8M63 19h1M65 19h1M21 20h5M47 20h9M62 20h1M66 20h1M22 21h5M49 21h7M61 21h1M67 21h1M22 22h5M52 22h5M58 22h1M60 22h1M23 23h4M55 23h2M59 23h1M23 24h4M58 24h1M24 25h2M25 26h1M67 26h1M66 27h1M68 27h1M69 28h1M12 31h1M20 31h1M12 32h3M19 32h4M13 33h4M19 33h1M23 33h2M52 33h1M68 33h1M14 34h3M18 34h1M25 34h2M52 34h1M69 34h1M15 35h2M18 35h1M28 35h1M52 35h1M57 35h1M17 36h1M31 36h1M52 36h1M57 36h1M62 36h1M18 37h1M52 37h2M61 37h1M53 38h1M60 38h1M53 39h1M60 39h2M54 40h1M59 40h4M20 41h1M59 41h5M19 42h1M58 42h7M19 43h1M59 43h7M18 44h1M60 44h3M64 44h3M18 45h1M61 45h2M66 45h1M17 46h1M62 46h2M68 46h1M17 47h1M63 47h1M67 47h3M64 48h1M67 48h4M66 49h3M70 49h2M67 50h2M68 51h2M73 51h1M69 52h1M73 52h2M70 53h1M73 53h3M71 54h1M73 54h4M72 55h6M72 56h6M73 57h4M74 58h2M75 59h1M57 61h1M58 62h1M58 63h3M60 64h2M24 65h1M61 65h2M62 66h1M23 67h1M29 67h2M63 67h1M22 68h1M29 68h4M22 69h1M29 69h4M21 70h1M28 70h4M20 71h2M28 71h4M27 72h4M27 73h4M26 74h4M29 75h1M37 75h1M37 76h1M60 77h1M61 78h1M61 79h1M30 81h2M30 82h1M52 82h2M51 83h2" />
<path stroke="#546b57" d="M38 8h1M39 9h1M40 10h1M22 11h1M40 11h3M22 12h1M34 12h1M41 12h1M43 12h2M22 13h1M42 13h1M45 13h2M23 14h1M35 14h1M42 14h1M47 14h2M23 15h1M43 15h1M49 15h1M24 16h1M36 16h1M44 16h1M51 16h1M24 17h1M44 17h1M52 17h1M64 17h1M25 18h1M37 18h1M45 18h1M54 18h1M63 18h1M65 18h1M25 19h1M46 19h1M55 19h1M62 19h1M66 19h1M26 20h1M38 20h1M46 20h1M56 20h1M61 20h1M67 20h1M27 21h1M47 21h1M56 21h3M60 21h1M48 22h1M57 22h1M59 22h1M39 23h1M48 23h1M57 23h2M49 24h1M57 24h1M50 25h1M56 25h1M67 25h1M40 26h1M50 26h1M55 26h1M68 26h1M51 27h1M54 27h1M69 27h1M51 28h3M64 28h2M40 29h1M51 29h2M11 30h1M19 30h2M27 30h1M30 30h1M40 30h1M50 30h1M53 30h1M11 31h1M14 31h1M19 31h1M21 31h2M26 31h2M33 31h1M49 31h1M53 31h1M55 31h1M10 32h1M15 32h2M18 32h1M23 32h2M27 32h1M35 32h1M53 32h1M57 32h1M67 32h2M17 33h2M25 33h3M37 33h1M46 33h1M53 33h1M58 33h2M69 33h1M17 34h1M27 34h2M39 34h1M53 34h1M58 34h1M60 34h1M70 34h1M29 35h3M53 35h1M58 35h1M62 35h1M69 35h1M32 36h3M53 36h1M58 36h2M63 36h2M20 37h1M35 37h4M54 37h1M58 37h1M60 37h1M62 37h1M65 37h1M22 38h1M39 38h3M54 38h1M58 38h1M61 38h1M67 38h1M24 39h1M54 39h1M57 39h1M62 39h1M19 40h1M27 40h1M55 40h1M57 40h1M63 40h1M19 41h1M29 41h1M55 41h2M64 41h1M18 42h1M32 42h1M55 42h2M65 42h1M18 43h1M35 43h1M55 43h1M66 43h1M17 44h1M54 44h1M67 44h1M17 45h1M30 45h4M53 45h1M67 45h2M16 46h1M36 46h1M52 46h1M67 46h1M69 46h1M30 47h1M51 47h1M66 47h1M70 47h1M18 48h1M50 48h1M66 48h1M71 48h1M49 49h1M65 49h1M72 49h1M21 50h1M48 50h1M65 50h1M72 50h2M64 51h1M72 51h1M74 51h1M24 52h1M32 52h2M63 52h1M72 52h1M75 52h1M31 53h1M62 53h1M72 53h1M76 53h1M31 54h1M61 54h1M72 54h1M77 54h1M30 55h1M60 55h1M71 55h1M29 56h1M59 56h1M71 56h1M58 57h1M70 57h1M28 58h1M56 58h2M69 58h1M27 59h1M52 59h2M68 59h1M30 60h1M51 60h1M67 60h1M26 61h1M29 61h2M50 61h1M59 61h1M66 61h1M25 62h1M30 62h1M49 62h1M65 62h1M30 63h1M49 63h1M63 63h2M24 64h1M29 64h1M48 64h1M62 64h1M23 65h1M29 65h1M37 65h1M48 65h1M63 65h1M29 66h1M48 66h1M63 66h1M66 66h1M22 67h1M28 67h1M64 67h1M21 68h1M28 68h1M35 68h1M64 68h1M28 69h1M64 69h1M20 70h1M27 70h1M19 71h1M27 71h1M33 71h1M26 72h1M63 72h1M26 73h1M33 73h4M25 74h1M37 74h1M55 74h3M38 75h1M55 75h1M58 75h1M38 76h1M55 76h1M59 76h2M54 77h1M61 77h1M31 78h1M54 78h1M62 78h1M30 79h1M53 79h1M62 79h1M30 80h1M34 80h1M53 80h1M29 81h1M34 81h1M52 81h1M29 82h1M34 82h1M51 82h1M50 83h1M55 83h2M56 84h1M56 85h1" />
<path stroke="#81b68e" d="M38 9h1M37 10h3M21 11h1M36 11h4M20 12h1M36 12h5M18 13h2M37 13h5M18 14h1M37 14h5M18 15h1M33 15h1M38 15h5M18 16h2M32 16h1M38 16h6M50 16h1M19 17h1M33 17h2M38 17h6M19 18h1M32 18h4M39 18h6M53 18h1M19 19h2M30 19h1M32 19h5M40 19h6M20 20h1M29 20h1M31 20h7M40 20h6M64 20h1M20 21h2M29 21h1M31 21h7M40 21h7M48 21h1M63 21h3M21 22h1M28 22h1M30 22h8M41 22h7M49 22h3M62 22h5M21 23h2M28 23h1M30 23h9M41 23h7M49 23h6M61 23h6M22 24h1M28 24h1M30 24h9M41 24h8M50 24h7M60 24h7M23 25h1M27 25h2M30 25h9M42 25h8M51 25h5M59 25h7M23 26h2M27 26h1M29 26h11M42 26h8M51 26h4M58 26h8M24 27h2M27 27h1M29 27h11M42 27h9M52 27h2M57 27h8M26 28h2M29 28h11M42 28h9M56 28h8M67 28h1M26 29h1M30 29h10M43 29h8M55 29h9M66 29h3M32 30h8M43 30h7M51 30h2M55 30h8M65 30h4M35 31h6M43 31h6M50 31h3M57 31h5M64 31h4M11 32h1M37 32h4M43 32h4M49 32h4M58 32h3M63 32h4M11 33h2M39 33h2M43 33h3M50 33h2M57 33h1M62 33h5M12 34h2M20 34h3M41 34h4M50 34h2M57 34h1M62 34h4M13 35h2M19 35h7M42 35h2M51 35h1M56 35h1M64 35h1M67 35h2M15 36h2M19 36h10M42 36h1M51 36h1M56 36h1M61 36h1M66 36h3M16 37h2M21 37h11M57 37h1M59 37h1M66 37h2M18 38h3M23 38h11M52 38h1M59 38h1M20 39h3M25 39h13M52 39h1M58 39h2M22 40h3M28 40h13M53 40h1M58 40h1M25 41h2M30 41h11M53 41h2M57 41h2M21 42h3M28 42h2M33 42h7M53 42h2M21 43h2M29 43h4M36 43h4M53 43h2M20 44h3M29 44h7M53 44h1M57 44h2M20 45h2M35 45h3M56 45h4M63 45h1M65 45h1M19 46h3M30 46h4M37 46h1M55 46h6M19 47h3M31 47h6M54 47h8M64 47h1M21 48h1M31 48h5M53 48h10M65 48h1M22 49h1M32 49h4M52 49h13M33 50h2M51 50h6M58 50h7M66 50h1M69 50h1M71 50h1M52 51h6M60 51h4M65 51h2M49 52h2M53 52h5M62 52h1M64 52h4M70 52h1M32 53h1M50 53h2M54 53h4M63 53h6M71 53h1M51 54h2M55 54h4M62 54h9M31 55h2M34 55h1M50 55h1M52 55h2M56 55h3M61 55h3M65 55h6M30 56h5M36 56h2M48 56h2M53 56h2M57 56h2M60 56h5M68 56h3M30 57h7M39 57h9M50 57h3M54 57h2M60 57h5M71 57h1M29 58h12M46 58h8M58 58h1M61 58h5M70 58h3M28 59h2M31 59h19M54 59h2M57 59h3M62 59h4M69 59h5M28 60h2M31 60h15M52 60h5M58 60h3M63 60h4M68 60h8M27 61h2M31 61h11M51 61h6M60 61h2M64 61h2M67 61h9M26 62h3M31 62h9M50 62h8M59 62h1M61 62h2M67 62h9M26 63h2M31 63h8M50 63h8M65 63h1M68 63h5M25 64h2M30 64h8M49 64h11M64 64h3M69 64h3M25 65h2M30 65h7M49 65h12M65 65h3M70 65h1M24 66h2M30 66h7M49 66h13M67 66h2M24 67h1M31 67h5M37 67h1M49 67h14M68 67h1M23 68h2M33 68h2M37 68h2M49 68h15M23 69h1M33 69h2M36 69h5M50 69h14M22 70h1M32 70h2M35 70h7M51 70h13M22 71h1M32 71h1M37 71h5M52 71h12M21 72h1M31 72h2M38 72h3M54 72h9M31 73h1M38 73h3M56 73h2M61 73h2M30 74h2M33 74h4M38 74h2M27 75h2M30 75h1M32 75h5M56 75h2M29 76h2M32 76h5M56 76h3M32 77h5M55 77h5M32 78h4M55 78h6M31 79h4M54 79h7M31 80h3M54 80h6M32 81h2M53 81h5M31 82h3M54 82h3M53 83h2M52 84h4M54 85h2" />
<path stroke="#101010" d="M33 10h1M33 11h1M17 13h1M34 13h1M17 14h1M33 14h1M17 15h1M32 15h1M35 15h1M17 16h1M31 16h1M18 17h1M30 17h1M36 17h1M18 18h1M30 18h1M18 19h1M29 19h1M37 19h1M19 20h1M28 20h1M19 21h1M28 21h1M38 21h1M68 21h1M20 22h1M27 22h1M38 22h1M68 22h1M20 23h1M27 23h1M67 23h1M21 24h1M27 24h1M39 24h1M67 24h1M26 25h1M39 25h1M66 25h1M22 26h1M26 26h1M66 26h1M23 27h1M26 27h1M40 27h1M65 27h1M24 28h2M40 28h1M70 28h1M25 29h1M64 29h1M70 29h1M25 30h1M28 30h2M63 30h1M69 30h1M25 31h1M31 31h2M62 31h1M68 31h1M26 32h1M34 32h1M56 32h1M61 32h1M10 33h1M36 33h1M49 33h1M56 33h1M60 33h1M67 33h1M11 34h1M38 34h1M49 34h1M56 34h1M66 34h1M12 35h1M17 35h1M40 35h1M50 35h1M55 35h1M61 35h1M65 35h1M70 35h1M13 36h2M18 36h1M41 36h1M50 36h1M55 36h1M60 36h1M69 36h1M15 37h1M19 37h1M51 37h1M56 37h1M68 37h1M16 38h2M21 38h1M51 38h1M57 38h1M18 39h2M23 39h1M51 39h1M55 39h2M20 40h2M25 40h2M52 40h1M64 40h2M22 41h3M27 41h2M50 41h3M25 42h3M30 42h2M52 42h1M28 43h1M33 43h2M52 43h1M28 44h1M36 44h3M52 44h1M29 45h1M52 45h1M29 46h1M16 47h1M17 48h1M30 48h1M19 49h1M31 49h1M20 50h1M23 50h1M32 50h1M22 51h1M24 51h1M33 51h2M47 51h1M23 52h1M25 52h1M34 52h1M48 52h1M25 53h2M33 53h1M49 53h1M27 54h1M50 54h1M51 55h1M78 55h1M52 56h1M78 56h1M53 57h1M77 57h1M54 58h1M76 58h1M50 59h2M56 59h1M76 59h1M46 60h4M57 60h1M76 60h1M42 61h4M58 61h1M76 61h1M29 62h1M40 62h2M60 62h1M76 62h1M28 63h1M39 63h1M61 63h1M73 63h4M27 64h1M38 64h1M63 64h1M72 64h1M76 64h2M27 65h1M38 65h1M64 65h1M71 65h1M78 65h1M26 66h1M37 66h1M65 66h1M70 66h1M79 66h1M25 67h1M36 67h1M48 67h1M67 67h1M69 67h1M79 67h1M25 68h1M36 68h1M39 68h1M48 68h1M68 68h1M80 68h1M24 69h1M35 69h1M41 69h9M69 69h1M80 69h1M23 70h1M34 70h1M42 70h1M50 70h1M64 70h1M70 70h1M81 70h1M23 71h1M34 71h1M42 71h1M51 71h1M64 71h1M71 71h1M20 72h1M22 72h1M33 72h1M41 72h1M52 72h2M71 72h1M21 73h1M32 73h1M41 73h1M54 73h2M63 73h1M72 73h1M32 74h1M40 74h1M62 74h1M72 74h1M25 75h2M31 75h1M39 75h1M73 75h1M27 76h2M31 76h1M73 76h1M29 77h3M37 77h1M73 77h1M36 78h1M35 79h1M60 80h2M58 81h2M57 82h1M30 83h7M50 84h2M52 85h2M54 86h6" />
<path stroke="#842886" d="M71 20h1M70 21h2M70 22h2M69 23h1M71 23h1M69 24h1M71 24h1M68 25h1M70 25h1M70 26h1M70 27h1M69 31h1M69 32h1M69 37h1M69 38h1M69 39h1M68 40h1M67 41h1M67 42h1M68 43h1M68 44h1M50 60h1M48 61h2M48 62h1M47 63h2M47 64h1M47 65h1M47 66h1M47 67h1M47 68h1" />
<path stroke="#cc5fcf" d="M70 23h1M70 24h1M69 25h1M69 26h1M68 38h1M67 39h2M66 40h2M65 41h2M66 42h1M67 43h1" />
<path stroke="#7a4952" d="M28 31h1M28 32h1M48 32h1M28 33h1M47 33h1M29 34h1M45 34h1M44 35h1M43 36h1M42 37h1M42 38h1M42 39h1M66 39h1M41 41h1M24 42h1M49 42h1M23 43h1M40 43h1M48 43h1M23 44h1M39 44h1M48 44h1M22 45h1M47 45h1M22 46h1M38 46h1M47 46h1M22 47h1M37 47h1M47 47h1M22 48h1M47 48h1M23 49h1M36 49h1M48 49h1M35 50h1M35 51h2M38 52h9M28 54h1M33 54h2M29 55h1M35 55h3M48 55h2M38 56h10M78 58h1M78 59h1M77 60h1M77 61h1M75 64h1M74 65h1M73 66h1M38 67h1M66 67h1M71 67h2M40 68h1M67 68h1M69 68h2M35 71h2M37 72h1M37 73h1M58 73h3M58 74h1M61 74h1M61 75h1M61 76h1" />
<path stroke="#9a6982" d="M29 31h2M54 31h1M29 32h5M54 32h2M29 33h7M48 33h1M54 33h2M30 34h8M46 34h3M54 34h2M59 34h1M32 35h8M45 35h5M54 35h1M59 35h2M35 36h6M44 36h6M54 36h1M39 37h3M43 37h8M55 37h1M63 37h2M43 38h8M55 38h2M62 38h4M43 39h8M63 39h3M42 40h10M42 41h7M41 42h7M24 43h4M41 43h6M24 44h4M40 44h6M23 45h6M39 45h7M23 46h6M39 46h6M23 47h7M38 47h7M23 48h7M37 48h8M24 49h7M37 49h8M24 50h8M36 50h9M25 51h8M37 51h9M26 52h6M35 52h3M47 52h1M27 53h4M34 53h13M29 54h2M35 54h13M38 55h10M77 58h1M77 59h1M46 61h2M42 62h6M40 63h7M39 64h8M73 64h2M39 65h8M72 65h2M38 66h9M71 66h2M39 67h8M70 67h1M41 68h6M34 72h3M59 74h2M59 75h2" />
<path stroke="#bd95a8" d="M49 41h1M48 42h1M47 43h1M46 44h2M46 45h1M45 46h2M45 47h2M45 48h2M45 49h3M45 50h3M46 51h1M47 53h2M48 54h2" />
<path stroke="#498f6c" d="M63 44h1M64 45h1M64 46h3M65 47h1M69 49h1M70 50h1M58 51h1M70 51h2M58 52h3M71 52h1M59 53h3M59 54h2M65 56h2M66 57h3M66 58h3M67 59h1" />
<path stroke="#5c635e" d="M78 60h1M78 61h2M77 62h3M77 63h4M78 64h3M79 65h2M80 66h2M80 67h2M81 68h1M81 69h1" />
<path stroke="#2f3330" d="M79 60h1M80 61h1M80 62h1M81 63h1M81 64h1M81 65h1M75 66h1M82 66h1M75 67h1M82 67h1M76 68h1M82 68h1M76 69h1M82 69h1M76 70h1M82 70h1M76 71h1M76 72h1M76 73h1M76 74h1M75 75h1M75 76h1M74 77h1M35 80h1M36 81h1M36 82h1M57 83h1M58 84h1M59 85h1" />
<path stroke="#404843" d="M74 66h1M73 67h2M71 68h5M70 69h6M71 70h5M72 71h4M72 72h4M73 73h3M73 74h3M74 75h1M74 76h1M35 81h1M35 82h1M57 84h1M57 85h2" />
</svg>