<svg xmlns="http://www.w3.org/2000/svg" viewBox="0 -0.5 96 96" shape-rendering="crispEdges">
<metadata>Made with Pixels to Svg https://codepen.io/shshaw/pen/XbxvNj</metadata>
<path stroke="#6e6e6e" d="M42 29h1M43 30h1M44 31h1M59 38h4M29 44h1M27 45h2M28 47h1M58 58h1M60 58h1M57 59h1M60 59h1M57 61h2" />
<path stroke="#080808" d="M41 30h1M41 31h1M40 32h1M40 33h1M58 38h1M57 39h2M62 39h1M57 40h2M61 40h1M58 41h3M59 42h1M26 46h1M27 47h1M28 48h1M44 48h1M62 48h1M37 49h1M45 49h1M62 49h1M62 50h1M36 51h1M46 51h1M62 51h1M30 52h1M36 52h1M46 52h1M62 52h1M30 53h1M36 53h1M46 53h1M62 53h1M30 54h1M61 54h1M31 55h1M37 55h1M45 55h1M61 55h1M31 56h1M38 56h1M44 56h1M58 56h2M61 56h1M32 57h1M40 57h3M57 57h5M32 58h2M56 58h2M61 58h1M32 59h1M55 59h2M61 59h1M32 60h1M55 60h2M61 60h1M32 61h1M56 61h1M61 61h1M32 62h2M53 62h1M57 62h5M32 63h1M34 63h1M38 63h1M54 63h3M32 64h9M51 64h3M41 65h10" />
<path stroke="#f3f3f3" d="M42 30h1M43 31h1M60 39h2" />
<path stroke="#b2b2b2" d="M42 31h1M41 32h3M59 39h1M59 40h2M27 46h2M59 58h1M58 59h2M57 60h4M59 61h2M33 63h1" />
<path stroke="#612727" d="M44 32h3M41 33h3M47 33h1M39 34h2M48 34h2M38 35h1M50 35h3M38 36h1M53 36h5M37 37h1M58 37h2M36 38h1M57 38h1M35 39h1M34 40h1M49 40h2M32 41h2M48 41h1M57 41h1M61 41h1M31 42h1M45 42h3M58 42h1M60 42h2M30 43h1M61 43h1M30 44h1M39 44h2M62 44h1M29 45h1M62 45h1M29 46h1M37 46h1M42 46h1M62 46h1M29 47h1M31 47h1M37 47h1M42 47h1M44 47h1M62 47h1M29 48h1M31 48h1M42 48h1M29 49h1M32 49h1M36 49h1M38 49h4M46 49h1M30 50h1M30 51h1M58 51h1M57 52h1M51 53h2M34 54h1M49 54h2M34 55h1M46 55h1M36 56h1M57 56h1M60 56h1M38 57h1M44 57h1M56 57h1M42 58h1M55 58h1M43 61h1M55 61h1M56 62h1M44 64h1" />
<path stroke="#914b48" d="M44 33h3M41 34h4M39 35h1M43 35h2M42 36h4M47 36h2M39 37h1M41 37h11M37 38h15M53 38h2M36 39h16M53 39h2M35 40h14M52 40h4M34 41h14M49 41h6M33 42h12M48 42h6M32 43h12M45 43h13M31 44h7M42 44h1M44 44h3M48 44h10M31 45h6M43 45h3M48 45h10M31 46h6M43 46h2M48 46h10M59 46h2M32 47h1M45 47h2M48 47h13M30 48h1M32 48h2M36 48h1M46 48h16M30 49h2M33 49h2M47 49h15M31 50h1M33 50h3M47 50h15M31 51h2M34 51h1M47 51h11M61 51h1M31 52h2M35 52h1M48 52h7M58 52h2M31 53h4M47 53h1M49 53h2M55 53h4M61 53h1M31 54h3M47 54h1M51 54h7M32 55h2M47 55h4M57 55h3M32 56h3M46 56h1M48 56h4M56 56h1M33 57h5M45 57h2M49 57h4M55 57h1M34 58h8M43 58h3M50 58h5M33 59h9M43 59h12M35 60h7M43 60h12M34 61h9M44 61h8M53 61h2M34 62h3M38 62h5M44 62h6M54 62h1M35 63h1M39 63h5M45 63h7M41 64h3M45 64h5" />
<path stroke="#792f1a" d="M45 34h3M40 35h3M46 35h2M40 36h2M46 36h1M40 37h1M56 40h1M55 41h2M54 42h3M47 44h1M58 44h1M30 45h1M38 45h4M46 45h2M58 45h2M30 46h1M38 46h4M45 46h3M58 46h1M30 47h1M33 47h4M38 47h4M47 47h1M34 48h2M38 48h4M35 49h1M60 52h1M59 53h2M35 54h2M58 54h3M35 55h2M51 55h6M60 55h1M47 56h1M52 56h4M47 57h2M53 57h2M46 58h4M33 60h2M33 61h1M52 61h1M37 62h1M50 62h3M36 63h2M52 63h2" />
<path stroke="#733837" d="M45 35h1M39 36h1M38 37h1M53 37h1M52 38h1M55 38h1M52 39h1M55 39h1M51 40h1M44 43h1M38 44h1M41 44h1M43 44h1M37 45h1M42 45h1M37 48h1M32 50h1M33 51h1M35 51h1M59 51h2M33 52h2M47 52h1M55 52h2M61 52h1M35 53h1M48 53h1M53 53h2M48 54h1M35 56h1M42 59h1M42 60h1M43 62h1M44 63h1" />
<path stroke="#b4786b" d="M48 35h2M49 36h4M52 37h1M54 37h1M57 37h1M56 38h1M56 39h1M32 42h1M57 42h1M31 43h1M59 43h2M61 44h1M60 45h2M61 46h1M61 47h1M55 62h1M50 64h1" />
<path stroke="#9b3c20" d="M55 37h2M58 43h1M59 44h2" />
<path stroke="#381616" d="M43 47h1M45 48h1M36 50h1M46 50h1M46 54h1M37 56h1M45 56h1M39 57h1M43 57h1" />
<path stroke="#1b1f21" d="M43 48h1M42 49h3M37 50h9M37 51h9M37 52h9M37 53h9M37 54h9M38 55h7M39 56h5" />
</svg>