<svg xmlns="http://www.w3.org/2000/svg" viewBox="0 -0.5 96 96" shape-rendering="crispEdges">
<metadata>Made with Pixels to Svg https://codepen.io/shshaw/pen/XbxvNj</metadata>
<path stroke="#635a4e" d="M37 13h2M31 14h1M36 14h1M38 14h1M30 15h1M32 15h1M35 15h1M38 15h1M29 16h1M33 16h2M38 16h1M28 17h1M38 17h4M23 18h5M23 19h1M29 19h1M37 19h1M23 20h1M30 20h1M36 20h1M23 21h1M23 22h1M22 23h1M38 23h1M21 24h1M38 24h1M20 25h1M24 25h1M39 25h1M19 26h1M25 26h1M40 26h1M18 27h1M22 28h1M41 28h1M21 29h1M25 29h2M42 29h1M20 30h1M23 30h1M27 30h2M30 30h1M43 30h1M44 31h1M44 32h1M35 33h1M45 33h1M36 34h1M45 34h1M45 35h1M39 36h1M44 36h1M43 37h1M41 38h1M38 39h2M28 43h2M52 43h3M26 44h1M51 44h1M55 44h1M24 45h1M50 45h1M56 45h1M23 46h1M50 46h1M22 47h1M57 47h1M21 48h1M51 48h1M20 49h1M52 50h1M19 51h1M23 51h1M50 51h3M20 52h1M22 52h1M48 52h2M57 52h1M20 53h1M22 53h1M47 53h1M50 53h1M21 54h1M48 54h2M47 55h2M29 58h3M49 58h5M27 59h2M32 59h1M48 59h1M54 59h2M26 60h1M33 60h1M47 60h1M56 60h1M25 61h1M33 61h1M38 61h3M46 61h1M24 62h1M34 62h1M37 62h2M41 62h1M46 62h1M57 62h1M24 63h1M34 63h1M37 63h1M42 63h1M37 64h1M42 64h1M58 64h1M43 65h1M58 65h1M32 66h1M38 66h1M44 66h1M34 68h1M39 68h1M59 68h1M24 69h1M34 69h1M40 69h1M34 70h1M41 70h1M42 71h1M44 72h1" />
<path stroke="#969678" d="M37 14h1M31 15h1M36 15h2M31 16h2M35 16h3M31 17h7M31 18h8M24 19h5M31 19h6M24 20h6M31 20h5M24 21h14M24 22h14M23 23h15M23 24h15M25 25h14M26 26h13M19 27h20M40 27h2M23 28h17M22 29h3M27 29h14M21 30h2M29 30h1M32 30h10M28 31h1M33 31h11M35 32h9M36 33h9M34 34h2M38 34h7M35 35h1M40 35h5M36 36h1M40 36h4M37 37h6M38 38h3M27 44h1M52 44h3M25 45h1M51 45h5M27 46h2M51 46h6M25 47h4M51 47h6M23 48h6M52 48h6M21 49h8M53 49h5M20 50h2M23 50h6M54 50h4M20 51h1M24 51h3M55 51h3M19 52h1M23 52h2M54 52h3M19 53h1M21 53h1M23 53h1M53 53h4M19 54h2M22 54h1M51 54h5M19 55h3M50 55h5M20 56h1M47 56h6M20 57h1M29 59h3M49 59h5M29 60h4M48 60h8M29 61h4M47 61h5M55 61h2M28 62h6M39 62h2M47 62h4M56 62h1M25 63h1M27 63h7M38 63h4M46 63h4M57 63h1M24 64h10M38 64h4M46 64h4M57 64h1M24 65h10M38 65h5M46 65h5M56 65h2M24 66h8M39 66h5M46 66h13M24 67h9M39 67h6M46 67h13M24 68h10M40 68h6M47 68h12M25 69h6M32 69h2M41 69h5M47 69h13M25 70h2M28 70h3M32 70h2M42 70h5M48 70h12M25 71h2M28 71h2M33 71h1M43 71h4M49 71h1M51 71h7M59 71h1M65 71h2M25 72h1M29 72h1M33 72h1M45 72h2M49 72h1M51 72h7M59 72h1M63 72h4M25 73h1M52 73h5M62 73h2M52 74h5M52 75h5M53 76h3M53 77h3" />
<path stroke="#ccccad" d="M30 16h1M29 17h2M28 18h3M39 18h2M30 19h1M38 19h2M37 20h2M22 24h1M21 25h3M20 26h5M39 26h1M39 27h1M40 28h1M41 29h1M31 30h1M42 30h1M31 31h2M31 32h4M37 34h1M37 35h3M28 44h2M26 45h3M24 46h3M23 47h2M22 48h1M52 49h1M22 50h1M53 50h1M21 51h2M53 51h2M21 52h1M50 52h4M48 53h2M51 53h2M50 54h1M49 55h1M27 60h2M26 61h3M52 61h3M25 62h3M51 62h5M26 63h1M50 63h7M50 64h7M51 65h5" />
<path stroke="#080808" d="M41 18h1M40 19h1M39 20h1M38 21h1M38 22h1M54 24h1M54 25h1M54 26h1M72 26h1M53 27h1M72 27h1M18 28h4M53 28h1M71 28h1M71 29h1M24 30h3M64 30h1M70 30h1M20 31h3M26 31h1M29 31h2M64 31h1M70 31h1M27 32h2M30 32h1M64 32h1M69 32h1M28 33h1M31 33h4M47 33h2M64 33h1M69 33h1M28 34h1M33 34h1M50 34h1M64 34h1M68 34h1M29 35h1M34 35h1M36 35h1M52 35h1M64 35h1M68 35h1M29 36h1M35 36h1M37 36h2M54 36h1M64 36h1M67 36h1M29 37h1M36 37h1M65 37h1M67 37h1M30 38h1M37 38h1M65 38h2M30 39h1M65 39h2M65 40h1M59 41h1M65 41h1M60 42h1M61 44h1M61 45h1M71 45h2M57 46h1M69 46h2M50 47h1M58 48h1M51 49h1M58 49h1M19 50h1M58 50h1M71 50h1M27 51h2M58 51h1M71 51h1M18 52h1M25 52h2M29 52h1M70 52h1M18 53h1M24 53h1M29 53h1M57 53h1M69 53h1M18 54h1M23 54h1M29 54h1M56 54h1M69 54h1M18 55h1M22 55h1M29 55h1M55 55h1M62 55h1M68 55h1M19 56h1M21 56h1M46 56h1M53 56h2M62 56h1M68 56h1M19 57h1M21 57h1M30 57h1M47 57h6M62 57h1M68 57h1M20 58h1M62 58h1M68 58h1M62 59h1M68 59h1M62 60h1M68 60h4M57 61h1M68 61h1M72 61h3M61 62h1M68 62h1M23 63h1M45 63h1M58 63h1M61 63h1M68 63h1M23 64h1M34 64h1M45 64h1M60 64h1M68 64h1M23 65h1M34 65h2M37 65h1M45 65h1M60 65h2M68 65h1M23 66h1M33 66h1M36 66h2M45 66h1M59 66h1M62 66h6M23 67h1M33 67h1M37 67h2M45 67h1M59 67h1M23 68h1M38 68h1M46 68h1M39 69h1M46 69h1M60 69h1M78 69h1M24 70h1M40 70h1M47 70h1M60 70h1M65 70h2M76 70h1M24 71h1M41 71h1M47 71h1M64 71h1M67 71h1M74 71h1M24 72h1M42 72h2M62 72h1M67 72h6M24 73h1M44 73h3M64 73h3M24 74h1M62 74h2M21 75h4M28 76h2M34 76h4M24 77h4M30 77h1M33 77h1M45 77h2M32 78h2M50 78h8M61 78h3M47 79h3M58 79h3" />
<path stroke="#71171a" d="M44 22h2M43 23h1M46 23h1M42 24h1M47 24h1M41 25h1M48 25h1M49 26h1M42 27h2M50 27h1M45 28h1M51 28h1M52 29h12M48 31h1M29 32h1M49 32h1M46 33h1M51 33h2M47 34h1M49 34h1M54 34h6M30 35h2M47 35h1M51 35h1M59 35h1M46 36h1M53 36h1M59 36h1M34 37h2M44 37h2M55 37h1M33 38h1M35 38h1M42 38h2M56 38h1M32 39h1M36 39h1M40 39h2M57 39h1M60 39h1M31 40h1M37 40h3M58 40h1M60 40h1M31 41h1M33 41h1M45 41h1M60 41h1M30 42h1M34 42h1M42 42h1M65 42h1M30 43h1M60 43h2M66 43h1M30 44h1M67 44h1M29 45h1M62 45h1M68 45h1M29 46h1M61 46h1M68 46h1M29 47h1M62 47h1M69 47h1M29 48h1M62 48h1M65 48h1M70 48h1M29 49h1M62 49h1M66 49h1M71 49h1M29 50h1M62 50h1M67 50h2M29 51h1M33 51h2M39 51h2M62 51h1M67 51h1M32 52h1M42 52h2M62 52h1M66 52h1M62 53h1M65 53h1M62 54h1M64 54h1M38 55h1M63 55h1M30 56h1M38 56h1M63 56h5M63 57h1M63 58h1M64 60h1M61 61h1M64 61h1M64 62h1M60 63h1M62 63h3M65 64h2M59 65h1M67 65h1M70 65h3M68 66h2M73 66h3M60 67h1M66 67h2M76 67h3M61 68h2M65 68h1M79 68h1M35 69h1M63 69h2M77 69h1M75 70h1M34 71h1M36 71h1M63 71h1M68 71h1M73 71h1M23 72h1M26 72h1M36 72h1M47 72h1M61 72h1M22 73h1M33 73h1M36 73h1M47 73h1M49 73h1M61 73h1M21 74h1M25 74h1M33 74h1M37 74h1M46 74h1M49 74h1M61 74h1M37 75h1M46 75h1M48 75h1M62 75h1M24 76h1M33 76h1M45 76h1M48 76h1M52 76h1M56 76h1M62 76h1M31 77h1M47 77h1M52 77h1M56 77h1M60 77h1M63 77h1M47 78h1M60 78h1" />
<path stroke="#b7282c" d="M44 23h1M44 24h1M43 25h1M43 26h1M52 30h1M51 31h1M63 31h1M50 32h1M62 32h2M61 33h3M46 34h1M48 34h1M60 34h4M46 35h1M48 35h3M60 35h4M45 36h1M47 36h2M51 36h2M60 36h4M46 37h3M53 37h1M60 37h5M34 38h1M36 38h1M44 38h6M54 38h2M61 38h4M35 39h1M37 39h1M42 39h7M50 39h1M55 39h2M61 39h4M34 40h3M40 40h7M49 40h6M56 40h2M61 40h4M34 41h11M47 41h12M61 41h4M31 42h2M35 42h7M46 42h14M61 42h2M31 43h3M45 43h7M55 43h5M31 44h4M44 44h7M56 44h5M30 45h5M43 45h7M57 45h4M30 46h5M42 46h8M58 46h3M30 47h5M42 47h8M58 47h4M30 48h5M42 48h9M59 48h3M30 49h4M43 49h8M59 49h3M30 50h3M43 50h9M59 50h3M30 51h2M44 51h6M59 51h3M30 52h1M33 52h2M39 52h2M45 52h3M58 52h4M31 53h5M39 53h5M46 53h1M58 53h4M30 54h6M39 54h7M57 54h5M30 55h7M39 55h8M56 55h6M31 56h6M39 56h7M55 56h7M31 57h7M39 57h8M53 57h2M57 57h5M64 57h4M32 58h6M39 58h10M54 58h3M59 58h3M64 58h4M33 59h6M40 59h8M56 59h3M61 59h1M64 59h4M34 60h5M40 60h7M57 60h4M65 60h3M34 61h4M41 61h5M58 61h3M65 61h3M35 62h2M42 62h4M58 62h3M65 62h3M35 63h2M43 63h2M59 63h1M65 63h3M35 64h2M43 64h2M59 64h1M67 64h1M36 65h1M44 65h1M68 67h2M66 68h5M65 69h7M31 70h1M67 70h5M27 71h1M31 71h1M61 71h1M69 71h4M27 72h1M30 72h2M48 72h1M50 72h1M58 72h1M60 72h1M27 73h1M30 73h2M34 73h1M48 73h1M50 73h1M58 73h1M60 73h1M27 74h2M30 74h2M34 74h2M48 74h1M50 74h1M58 74h1M60 74h1M27 75h5M34 75h2M47 75h1M50 75h2M57 75h2M60 75h1M26 76h2M30 76h2M47 76h1M49 76h3M57 76h2M60 76h2M49 77h3M57 77h2M61 77h1M48 78h2M58 78h1" />
<path stroke="#e74545" d="M45 23h1M43 24h1M45 24h2M42 25h1M44 25h4M41 26h2M44 26h5M45 27h5M46 28h5M47 29h5M48 30h4M53 30h10M49 31h2M52 31h10M51 32h10M29 33h2M53 33h7M29 34h4M49 36h2M49 37h3M52 38h2M33 39h2M51 39h4M33 40h1M55 40h1M32 41h1M63 43h3M62 44h5M63 45h5M64 46h4M65 47h4M66 48h4M67 49h4M70 66h3M71 67h5M60 68h1M72 68h7M61 69h2M72 69h5M62 70h3M73 70h2M62 71h1" />
<path stroke="#281715" d="M53 24h1M52 25h1M51 26h1M71 26h1M70 27h1M69 28h1M68 29h1M67 30h1M66 31h1M65 32h1M68 44h6M37 46h1M39 46h1M37 47h3M37 48h2M37 49h1M37 50h1M69 55h1M70 56h1M71 57h1M72 58h1M73 59h1M74 60h1M75 61h1" />
<path stroke="#6b473c" d="M53 25h1M52 26h1M51 27h1M71 27h1M70 28h1M69 29h1M68 30h1M67 31h2M66 32h2M65 33h2M65 34h2M65 35h1M38 45h2M69 45h2M36 48h1M40 49h1M69 56h1M70 57h1M71 58h1M72 59h1M73 60h1" />
<path stroke="#3c2b24" d="M53 26h1M52 27h1M52 28h1M70 29h1M69 30h1M69 31h1M68 32h1M67 33h2M67 34h1M66 35h2M65 36h2M66 37h1M36 44h1M41 44h1M37 45h1M40 45h1M38 46h1M40 46h1M39 48h2M36 49h1M38 49h1M41 49h1M35 50h1M38 50h1M41 50h2M37 51h1M37 52h1M69 57h1M69 58h2M69 59h3M72 60h1" />
<path stroke="#8f1f22" d="M44 27h1M42 28h3M43 29h4M44 30h4M63 30h1M45 31h3M62 31h1M45 32h4M61 32h1M49 33h2M60 33h1M51 34h3M32 35h2M53 35h6M30 36h5M55 36h4M30 37h4M52 37h1M54 37h1M56 37h4M31 38h2M50 38h2M57 38h4M31 39h1M49 39h1M58 39h2M32 40h1M47 40h2M59 40h1M46 41h1M33 42h1M43 42h1M45 42h1M63 42h2M34 43h1M36 43h5M44 43h1M62 43h1M43 44h1M35 45h1M42 45h1M35 46h1M41 46h1M62 46h2M35 47h1M41 47h1M63 47h2M63 48h2M34 49h1M42 49h1M63 49h3M33 50h1M63 50h4M69 50h2M32 51h1M35 51h1M38 51h1M43 51h1M63 51h4M68 51h3M31 52h1M35 52h1M38 52h1M41 52h1M44 52h1M63 52h3M67 52h3M30 53h1M36 53h1M38 53h1M44 53h2M63 53h2M66 53h3M36 54h1M38 54h1M46 54h2M63 54h1M65 54h4M37 55h1M64 55h4M37 56h1M38 57h1M55 57h2M38 58h1M57 58h2M39 59h1M59 59h2M63 59h1M39 60h1M61 60h1M63 60h1M62 61h2M62 62h2M61 64h4M62 65h5M70 67h1M71 68h1M31 69h1M27 70h1M35 70h1M61 70h1M72 70h1M30 71h1M32 71h1M35 71h1M48 71h1M50 71h1M58 71h1M60 71h1M28 72h1M32 72h1M34 72h2M23 73h1M26 73h1M28 73h2M32 73h1M35 73h1M51 73h1M57 73h1M59 73h1M22 74h2M26 74h1M29 74h1M32 74h1M36 74h1M47 74h1M51 74h1M57 74h1M59 74h1M25 75h2M32 75h2M36 75h1M49 75h1M59 75h1M61 75h1M25 76h1M32 76h1M46 76h1M59 76h1M32 77h1M48 77h1M59 77h1M62 77h1M59 78h1" />
<path stroke="#cc8720" d="M27 31h1M44 42h1M35 43h1M41 43h1M43 43h1M35 44h1M37 44h3M42 44h1M41 45h1M36 46h1M36 47h1M35 48h1M41 48h1M35 49h1M34 50h1M36 50h1M39 50h2M36 51h1M41 51h2M36 52h1M37 53h1M37 54h1" />
<path stroke="#9b6500" d="M42 43h1M40 44h1M36 45h1M40 47h1M39 49h1" />
</svg>