<svg xmlns="http://www.w3.org/2000/svg" viewBox="0 -0.5 96 96" shape-rendering="crispEdges">
<metadata>Made with Pixels to Svg https://codepen.io/shshaw/pen/XbxvNj</metadata>
<path stroke="#101010" d="M28 28h3M28 29h1M31 29h2M28 30h1M33 30h2M29 31h1M30 32h1M31 33h1M32 34h1M33 35h1M34 36h1M42 36h2M35 37h1M41 37h1M44 37h1M36 38h1M40 38h1M43 38h1M45 38h1M37 39h3M42 39h1M46 39h1M41 40h1M47 40h2M66 40h1M40 41h1M66 41h1M39 42h1M65 42h1M39 43h1M65 43h1M38 44h1M65 44h1M38 45h1M66 45h1M37 46h1M66 46h1M37 47h1M66 47h1M37 48h1M67 48h1M36 49h1M67 49h1M36 50h1M67 50h1M36 51h1M67 51h1M36 52h1M67 52h1M36 53h1M67 53h1M36 54h1M66 54h1M37 55h1M66 55h1M37 56h1M66 56h1M38 57h1M65 57h1M38 58h1M65 58h1M39 59h1M64 59h1M40 60h1M63 60h1M41 61h1M62 61h1M42 62h2M60 62h2M41 63h1M44 63h2M58 63h2M40 64h1M46 64h10M40 65h1M47 65h1M54 65h1M41 66h6M55 66h2M57 67h5" />
<path stroke="#ffea80" d="M29 29h2M31 30h2M32 31h2" />
<path stroke="#ccb852" d="M29 30h2M30 31h2M31 32h3M32 33h1M38 47h1M55 47h4M38 48h1M56 48h5M37 49h2M56 49h5M37 50h1M57 50h3M57 51h2M44 55h6M44 56h6M45 57h4M46 58h2" />
<path stroke="#b3b3b3" d="M34 31h1M34 32h3M43 32h2M36 33h3M44 33h1M38 34h2M45 34h1M48 36h7M48 37h10M62 37h3M49 38h10M64 38h2M50 39h3M65 39h1M49 40h1M51 40h1M65 40h1M50 41h1M52 41h1" />
<path stroke="#4d4d4d" d="M35 31h2M43 31h2M37 32h2M41 32h2M45 32h1M39 33h2M45 33h1M46 34h1M46 35h1M48 35h7M47 36h1M55 36h3M62 36h3M47 37h1M58 37h2M61 37h1M65 37h1M37 38h1M48 38h1M60 38h1M66 38h1M48 39h1M61 39h1M66 39h1M63 41h1M65 41h1M64 42h1M46 63h1M56 64h1" />
<path stroke="#808080" d="M33 33h3M41 33h3M33 34h5M40 34h5M34 35h12M35 36h7M44 36h3M36 37h5M45 37h2M38 38h2M44 38h1M46 38h2M59 38h1M61 38h3M43 39h3M47 39h1M49 39h1M58 39h3M62 39h3M42 40h5M50 40h1M52 40h2M60 40h5M41 41h9M51 41h1M53 41h2M60 41h3M64 41h1M40 42h16M59 42h5M40 43h17M58 43h7M39 44h26M39 45h27M38 46h5M50 46h16M39 47h4M50 47h5M59 47h7M39 48h5M49 48h7M61 48h6M39 49h6M48 49h8M61 49h3M66 49h1M38 50h8M47 50h10M60 50h4M37 51h20M59 51h6M37 52h28M37 53h29M37 54h29M38 55h6M50 55h16M38 56h1M40 56h4M50 56h4M57 56h9M41 57h4M49 57h5M59 57h6M41 58h5M48 58h7M60 58h5M41 59h14M59 59h5M41 60h14M57 60h6M42 61h20M44 62h16M47 63h11" />
<path stroke="#73593f" d="M53 39h5M54 40h6M55 41h5M56 42h3M57 43h1M43 46h7M43 47h7M44 48h5M45 49h3M64 49h2M46 50h1M64 50h3M65 51h2M65 52h2M66 53h1M39 56h1M54 56h3M39 57h2M54 57h5M39 58h2M55 58h5M40 59h1M55 59h4M55 60h2" />
<path stroke="#bfbfbf" d="M42 63h2M41 64h5M57 64h2M41 65h6M55 65h5M57 66h3" />
<path stroke="#f8f8f8" d="M59 64h1M60 65h2M60 66h2" />
<path stroke="#595959" d="M60 64h2M62 65h1M62 66h1" />
</svg>