<svg xmlns="http://www.w3.org/2000/svg" viewBox="0 -0.5 96 96" shape-rendering="crispEdges">
<metadata>Made with Pixels to Svg https://codepen.io/shshaw/pen/XbxvNj</metadata>
<path stroke="#78757f" d="M40 19h1M41 20h1M41 21h1M42 22h1M42 23h1M42 24h1M43 25h1M43 26h1M61 35h1M31 36h1M60 36h1M62 36h1M30 37h1M32 37h1M60 37h1M62 37h1M30 38h1M32 38h1M60 38h1M62 38h1M31 39h1M33 39h1M59 39h1M31 40h1M33 40h1M59 40h1" />
<path stroke="#101010" d="M39 20h1M39 21h1M39 22h1M40 23h1M40 24h1M40 25h1M41 26h1M41 27h1M50 30h1M51 31h1M52 32h1M53 33h1M54 34h1M55 35h1M56 36h1M57 37h1M57 38h1M58 39h1M62 39h1M58 40h1M62 40h1M31 41h1M62 41h1M31 42h1M62 42h1M31 43h1M62 43h1M31 44h1M62 44h1M31 45h1M62 45h1M32 46h1M34 46h1M62 46h1M32 47h1M34 47h1M62 47h1M32 48h1M61 48h1M33 49h1M61 49h1M33 50h1M35 50h1M60 50h1M34 51h1M60 51h1M35 52h2M59 52h1M36 53h2M58 53h1M38 54h1M56 54h2M39 55h2M54 55h2M41 56h2M52 56h2M44 57h3M50 57h2M50 60h2M42 61h3M52 61h5M26 65h1M27 66h1M28 67h2M53 67h1M30 68h3M48 68h1M53 68h1M33 69h4M46 69h3M52 69h1M37 70h6M44 70h2M48 70h1M52 70h1M42 71h1M44 71h1M49 71h1M51 71h1M42 72h1M44 72h1M49 72h1M51 72h1M43 73h1M49 73h1M51 73h1M50 74h1" />
<path stroke="#ccc0d8" d="M40 20h1M40 21h1M40 22h2M41 23h1M41 24h1M41 25h2M42 26h1M42 27h2M61 36h1M31 37h1M61 37h1M31 38h1M61 38h1M32 39h1M60 39h1M32 40h1M33 41h1" />
<path stroke="#98295e" d="M44 27h2M41 28h3M46 28h2M40 29h1M48 29h2M39 30h1M49 30h1M38 31h1M48 31h1M37 32h1M46 32h2M40 33h6M36 34h1M53 34h1M36 35h1M35 36h1M35 37h1M61 39h1M60 40h1M32 41h1M59 41h1M33 42h1M58 42h1M26 64h2M28 65h3M31 66h2" />
<path stroke="#d9338e" d="M44 28h2M42 29h6M41 30h8M41 31h7M49 31h2M38 32h1M40 32h6M48 32h4M37 33h1M39 33h1M46 33h7M40 34h10M52 34h1M40 35h9M41 36h8M43 37h4M61 42h1M33 43h1M61 43h1M32 44h1M61 44h1M50 61h1M50 62h1M28 66h1M30 67h1" />
<path stroke="#ff6ccc" d="M41 29h1M40 30h1M39 31h2M39 32h1M38 33h1M37 34h3M37 35h1M36 36h1M61 40h1M60 41h2M32 42h1M59 42h2M32 43h1M60 43h1M27 65h1M29 66h2M31 67h2" />
<path stroke="#39284d" d="M50 34h2M49 35h1M52 35h2M49 36h1M42 37h1M47 37h2M43 38h4M58 41h1M34 42h1M34 43h1M57 43h1M34 44h1M57 44h1M34 45h1M57 45h1M56 46h1M35 47h1M56 47h1M35 48h1M56 48h1M35 49h1M55 49h1M55 50h1M36 51h1M55 51h1M55 52h1M55 53h1M55 54h1M43 56h1M51 56h1M47 57h3M52 57h1M45 58h2M52 58h2M43 59h2M46 59h1M54 59h2M42 60h1M45 60h1M56 60h1M45 61h1M51 61h1M44 62h1M51 62h1M43 63h1M50 63h3M34 64h2M41 64h2M49 64h1M53 64h1M34 65h1M36 65h1M38 65h3M53 65h1M33 66h2M36 66h2M48 66h1M53 66h1M48 67h1M43 70h1M49 70h1M43 71h1M43 72h1" />
<path stroke="#453966" d="M38 35h2M37 36h1M40 36h1M34 37h1M36 37h1M41 37h1M34 38h2M34 39h1M34 40h1M34 41h1M56 45h1M54 46h2M51 47h3M36 48h1M47 48h4M37 49h10M47 58h5M48 59h2M52 60h1M49 65h1M52 67h1M33 68h1M47 68h1M49 68h4M37 69h1M45 69h1M49 69h3M50 70h2M50 71h1M50 72h1M50 73h1" />
<path stroke="#583f87" d="M50 35h2M54 35h1M38 36h2M50 36h6M37 37h4M49 37h8M36 38h7M47 38h10M36 39h22M38 40h20M40 41h18M40 42h18M35 43h1M39 43h18M58 43h2M33 44h1M35 44h22M58 44h3M32 45h2M35 45h21M58 45h4M33 46h1M35 46h19M57 46h5M33 47h1M36 47h15M54 47h2M57 47h5M33 48h2M37 48h10M51 48h5M57 48h4M34 49h1M36 49h1M47 49h8M56 49h5M34 50h1M36 50h19M56 50h4M35 51h1M37 51h18M56 51h4M37 52h18M56 52h3M38 53h17M56 53h2M39 54h16M41 55h13M44 56h7M45 59h1M47 59h1M50 59h4M43 60h2M46 60h4M53 60h3M46 61h4M45 62h5M44 63h6M45 64h4M50 64h3M45 65h4M50 65h3M35 66h1M44 66h4M49 66h4M42 67h6M49 67h3M34 68h13M38 69h7" />
<path stroke="#814eba" d="M35 39h1M35 40h3M35 41h5M35 42h5M36 43h3M43 64h2M35 65h1M41 65h4M38 66h6M33 67h9" />
</svg>