<svg xmlns="http://www.w3.org/2000/svg" viewBox="0 -0.5 96 96" shape-rendering="crispEdges">
<metadata>Made with Pixels to Svg https://codepen.io/shshaw/pen/XbxvNj</metadata>
<path stroke="#403524" d="M81 15h2M79 16h2M77 17h2M76 18h1M82 18h1M75 19h1M74 20h1M81 20h1M73 21h1M72 22h1M80 22h1M71 23h1M79 23h1M70 24h1M78 24h2M69 25h1M77 25h2M68 26h1M76 26h2M67 27h1M76 27h1M84 27h2M66 28h1M75 28h1M81 28h4M65 29h1M75 29h1M78 29h7M74 30h10M73 31h1M78 31h6M9 32h5M78 32h5M14 33h3M58 33h1M77 33h5M11 34h1M17 34h3M48 34h1M77 34h4M11 35h3M20 35h2M49 35h1M76 35h4M12 36h4M22 36h2M49 36h1M57 36h1M75 36h3M13 37h6M24 37h2M48 37h1M50 37h1M52 37h2M57 37h1M74 37h2M14 38h6M26 38h2M48 38h1M51 38h1M53 38h1M57 38h2M73 38h4M15 39h4M49 39h1M57 39h2M75 39h4M16 40h4M48 40h2M52 40h2M55 40h1M57 40h3M76 40h4M18 41h3M47 41h2M50 41h4M55 41h2M58 41h2M77 41h4M20 42h2M47 42h1M49 42h6M56 42h4M76 42h7M21 43h3M49 43h6M56 43h4M73 43h9M14 44h7M23 44h2M48 44h11M71 44h7M11 45h12M47 45h9M57 45h1M72 45h2M12 46h9M47 46h8M57 46h1M73 46h2M14 47h6M46 47h9M74 47h1M16 48h5M46 48h1M51 48h3M75 48h1M18 49h5M44 49h1M53 49h1M75 49h1M21 50h5M42 50h2M46 50h1M69 50h8M24 51h1M41 51h1M45 51h1M50 51h1M70 51h2M74 51h3M22 52h2M71 52h1M76 52h2M20 53h3M43 53h1M63 53h2M71 53h1M19 54h4M29 54h2M64 54h8M18 55h12M64 55h2M67 55h6M17 56h7M28 56h1M60 56h1M64 56h3M69 56h4M27 57h2M34 57h2M57 57h1M61 57h6M72 57h1M26 58h10M57 58h1M62 58h6M25 59h8M35 59h1M64 59h4M25 60h6M34 60h2M38 60h1M66 60h2M24 61h4M33 61h5M33 62h5M32 63h4M32 64h2" />
<path stroke="#201a12" d="M83 15h1M83 16h1M83 17h1M83 18h1M82 19h1M82 20h1M81 21h1M81 22h1M80 23h1M80 24h1M79 25h1M83 25h4M78 26h1M80 26h3M77 27h3M76 28h2M57 34h1M47 35h1M57 35h1M47 36h1M56 36h1M47 37h1M56 37h1M76 37h1M47 38h1M56 38h1M77 38h3M48 39h1M52 39h5M80 39h2M46 40h2M50 40h2M54 40h1M56 40h1M82 40h2M46 41h1M49 41h1M54 41h1M57 41h1M84 41h1M46 42h1M48 42h1M55 42h1M85 42h1M14 43h6M47 43h2M55 43h1M11 44h3M22 44h1M47 44h1M46 45h1M74 45h1M46 46h1M75 46h1M45 47h1M76 47h1M45 48h1M77 48h1M78 49h1M78 50h1M23 51h1M72 51h1M79 51h1M20 52h2M42 52h3M49 52h2M53 52h1M73 52h1M79 52h1M19 53h1M47 53h2M51 53h1M53 53h1M73 53h1M18 54h1M44 54h3M52 54h1M74 54h1M17 55h1M57 55h1M66 55h1M74 55h1M16 56h1M27 56h1M57 56h1M74 56h1M26 57h1M58 57h1M67 57h1M74 57h1M25 58h1M58 58h1M68 58h1M24 59h1M34 59h1M59 59h1M68 59h1M24 60h1M33 60h1M59 60h1M68 60h1M23 61h1M32 61h1M58 61h2M32 62h1M31 63h1M31 64h1M67 66h1M68 67h1M69 68h2M71 69h1M71 70h1M71 71h1M64 76h1" />
<path stroke="#505038" d="M81 16h2M79 17h4M77 18h5M76 19h6M75 20h6M74 21h7M73 22h7M72 23h7M71 24h7M70 25h2M76 25h1M69 26h1M83 26h3M68 27h1M80 27h4M78 28h3M76 29h2M10 33h4M12 34h5M58 34h1M14 35h6M48 35h1M58 35h1M16 36h6M48 36h1M58 36h1M19 37h5M49 37h1M58 37h1M25 38h1M49 38h2M52 38h1M59 38h1M50 39h2M59 39h1M79 39h1M80 40h2M81 41h3M83 42h2M75 47h1M47 48h4M76 48h1M45 49h8M76 49h2M44 50h2M47 50h7M77 50h1M42 51h3M46 51h4M51 51h3M77 51h2M45 52h4M51 52h2M72 52h1M78 52h1M44 53h3M52 53h1M72 53h1M72 54h2M73 55h1M73 56h1M73 57h1M58 59h1M58 60h1M67 67h1M69 69h2M70 70h1M70 71h1M62 76h2M46 78h2" />
<path stroke="#252d49" d="M72 25h4M70 26h2M75 26h1M69 27h1M75 27h1M67 28h2M74 28h1M66 29h1M74 29h1M73 30h1M72 31h1M74 31h4M71 32h3M77 32h1M70 33h2M76 33h1M69 34h1M76 34h1M75 35h1M74 36h1M72 37h2M20 38h5M70 38h3M19 39h1M73 39h2M20 40h1M75 40h1M21 41h1M60 41h1M76 41h1M22 42h2M60 42h1M73 42h3M24 43h2M60 43h1M68 43h5M25 44h3M59 44h1M70 44h1M23 45h2M56 45h1M58 45h2M71 45h1M21 46h2M39 46h1M55 46h1M59 46h1M72 46h1M20 47h1M39 47h1M55 47h1M57 47h1M59 47h1M73 47h1M21 48h2M38 48h2M54 48h1M58 48h1M74 48h1M23 49h3M40 49h1M54 49h1M58 49h1M66 49h9M26 50h3M40 50h1M54 50h1M57 50h1M68 50h1M25 51h2M54 51h1M69 51h1M24 52h1M54 52h1M62 52h3M70 52h1M23 53h1M29 53h4M62 53h1M65 53h6M23 54h6M31 54h1M57 54h2M63 54h1M30 55h1M36 55h1M59 55h2M63 55h1M29 56h1M34 56h3M40 56h1M56 56h1M61 56h3M29 57h5M36 57h1M40 57h1M36 58h1M55 58h1M36 59h1M38 59h1M36 60h2M54 60h1M53 62h1M52 63h1M51 65h1M50 66h1M37 67h1M49 67h1M37 68h1M48 68h1M36 69h1" />
<path stroke="#2f4577" d="M72 26h3M70 27h5M71 28h3M71 29h3M64 30h2M70 30h3M63 31h1M70 31h2M61 32h2M69 32h2M74 32h3M60 33h1M69 33h1M72 33h4M59 34h1M68 34h1M72 34h4M59 35h1M71 35h4M59 36h1M70 36h4M59 37h1M69 37h3M60 38h1M68 38h2M20 39h3M25 39h5M60 39h1M67 39h6M21 40h4M30 40h2M60 40h1M66 40h9M22 41h6M32 41h2M65 41h11M24 42h6M34 42h1M64 42h9M26 43h5M34 43h1M63 43h5M28 44h5M35 44h1M63 44h7M25 45h9M35 45h1M39 45h1M42 45h1M62 45h9M23 46h12M36 46h1M40 46h1M43 46h1M61 46h11M21 47h15M37 47h1M41 47h1M43 47h1M61 47h12M23 48h14M44 48h1M60 48h14M26 49h14M59 49h7M29 50h11M55 50h1M58 50h10M27 51h14M55 51h1M57 51h12M25 52h17M55 52h7M65 52h5M24 53h5M33 53h10M49 53h2M54 53h8M32 54h12M47 54h5M53 54h4M59 54h4M31 55h5M37 55h20M61 55h2M30 56h4M37 56h3M41 56h15M37 57h3M41 57h16M37 58h2M40 58h15M37 59h1M40 59h16M57 59h1M40 60h14M57 60h1M39 61h16M57 61h1M39 62h14M57 62h1M39 63h13M57 63h1M39 64h14M58 64h1M39 65h12M58 65h1M39 66h11M58 66h1M38 67h11M57 67h1M59 67h1M40 68h8M57 68h1M59 68h1M41 69h6M56 69h1M60 69h1M36 70h1M42 70h4M60 70h1M35 71h1M42 71h2M54 71h1M34 72h1M41 72h1M49 72h1M53 72h1M33 73h1M39 73h1M48 73h1M32 74h1M44 74h1M48 74h1M45 75h1M47 75h1M47 76h1M47 77h1" />
<path stroke="#080808" d="M86 26h1M86 27h1M85 28h1M85 29h1M84 30h1M84 31h1M83 32h1M9 33h1M82 33h1M10 34h1M81 34h1M10 35h1M80 35h1M11 36h1M78 36h2M12 37h1M77 37h1M13 38h1M14 39h1M15 40h1M16 41h2M18 42h2M20 43h1M82 43h3M21 44h1M78 44h4M10 45h1M75 45h3M11 46h1M12 47h2M14 48h2M16 49h2M18 50h3M21 51h2M73 51h1M74 52h2M76 53h4M58 55h1M24 56h3M59 56h1M67 56h2M16 57h8M60 57h1M69 57h3M39 58h1M61 58h1M72 58h3M33 59h1M39 59h1M62 59h2M31 60h2M39 60h1M64 60h2M28 61h3M38 61h1M66 61h3M23 62h5M38 62h1M36 63h3M34 64h2M38 64h1M31 65h3M38 65h1M38 66h1M47 69h1M46 70h1M68 70h1M44 71h2M66 71h2M69 71h1M42 72h2M50 72h3M58 72h2M65 72h1M70 72h2M40 73h2M43 73h1M54 73h4M60 73h1M37 74h3M43 74h1M60 74h1M32 75h5M44 75h1M61 75h1M44 76h1M61 76h1M44 77h1M62 77h3M45 78h1M48 78h1M46 79h2" />
<path stroke="#426eb2" d="M69 28h2M67 29h4M66 30h4M64 31h6M63 32h6M61 33h8M60 34h8M70 34h2M60 35h11M60 36h10M60 37h9M61 38h7M23 39h2M61 39h6M25 40h5M61 40h5M28 41h4M61 41h4M30 42h4M61 42h3M31 43h3M61 43h2M33 44h2M60 44h3M34 45h1M60 45h2M35 46h1M42 46h1M56 46h1M58 46h1M60 46h1M36 47h1M40 47h1M42 47h1M56 47h1M58 47h1M60 47h1M37 48h1M40 48h4M55 48h3M59 48h1M41 49h3M55 49h3M41 50h1M56 50h1M56 51h1M56 58h1M56 59h1M55 60h2M55 61h2M54 62h2M53 63h2M53 64h2M52 65h3M51 66h5M50 67h6M38 68h2M49 68h8M37 69h4M48 69h8M37 70h5M47 70h11M36 71h6M46 71h8M55 71h5M35 72h6M44 72h5M54 72h4M34 73h5M44 73h4M33 74h4M45 74h3M46 75h1" />
<path stroke="#659aba" d="M56 62h1M55 63h2M55 64h3M55 65h3M56 66h2M56 67h1M58 67h1M58 68h1M57 69h3M58 70h2" />
<path stroke="#444f59" d="M66 66h1M64 67h2M63 68h1M66 68h3M63 69h1M65 69h1M62 70h1M61 71h1M64 73h1M63 74h1M63 75h1" />
<path stroke="#95a1b6" d="M66 67h1M64 68h2M64 69h1M66 69h3M63 70h5M69 70h1M60 71h1M62 71h4M60 72h5M61 73h3M61 74h2M62 75h1M45 76h2M45 77h2" />
</svg>