<svg xmlns="http://www.w3.org/2000/svg" viewBox="0 -0.5 96 96" shape-rendering="crispEdges">
<metadata>Made with Pixels to Svg https://codepen.io/shshaw/pen/XbxvNj</metadata>
<path stroke="#36305c" d="M42 27h4M44 28h1M43 31h1M43 32h1M39 33h10M29 34h1M42 34h1M44 34h1M26 35h2M41 35h1M45 35h1M62 35h2M40 36h1M46 36h1M64 36h1M27 50h1M59 50h1M62 50h1M27 51h1M29 51h1M60 51h1M62 51h1M27 52h2M61 52h1M25 53h5M57 53h7M72 53h2M27 54h2M60 54h2M70 54h2M73 54h1M27 55h1M29 55h1M58 55h2M61 55h1M68 55h2M72 55h1M27 56h1M30 56h1M57 56h1M62 56h1M71 56h1M27 57h1M70 57h1M71 58h1M72 59h1M73 60h1M65 61h1M64 62h2M28 63h1M60 63h6M28 64h7M54 64h1M57 64h8M27 65h7M36 65h3M48 65h6M27 66h4M45 66h8M46 67h4" />
<path stroke="#79521c" d="M40 28h2M37 29h3M35 30h2M32 31h3M29 32h3M27 33h2M25 34h2M25 35h1M25 36h1M65 36h1M24 37h1M65 37h1M24 38h1M65 38h1M24 39h1M65 39h1M24 40h1M66 40h1M23 41h1M25 41h1M66 41h1M23 42h1M25 42h1M23 43h1M25 43h1M67 43h1M23 44h1M67 44h1M23 45h1M67 45h1M22 46h1M22 47h1M26 47h1M68 47h1M22 48h1M26 48h1M68 48h1M22 49h1M26 49h1M68 49h1M25 50h1M68 50h1M22 51h1M23 52h2M30 53h5M53 53h4M31 54h1M56 54h1M63 54h1M25 55h1M31 55h1M56 55h1M23 56h1M31 56h1M26 57h1M30 57h1M32 57h1M55 57h2M58 57h5M26 58h4M34 58h1M53 58h1M62 58h1M65 58h2M26 59h1M52 59h1M26 60h1M37 60h1M50 60h1M63 60h1M39 61h1M63 61h1M28 62h1M40 62h1M47 62h1M60 62h1M34 63h1M41 63h2M45 63h2M54 63h3M39 64h1M43 64h2M48 64h1" />
<path stroke="#4e46ac" d="M42 28h2M45 28h1M41 32h2M44 32h3M27 34h2M39 34h3M43 34h1M45 34h3M61 34h2M39 35h2M42 35h3M46 35h2M26 36h2M41 36h5M62 36h2M41 37h5M26 50h1M28 50h2M58 50h1M60 50h2M25 51h2M28 51h1M57 51h3M61 51h1M25 52h2M29 52h2M57 52h4M62 52h1M25 54h2M29 54h2M57 54h3M62 54h1M72 54h1M26 55h1M28 55h1M30 55h1M57 55h1M60 55h1M62 55h1M70 55h2M26 56h1M28 56h2M58 56h4M68 56h3M28 57h2M67 57h3M67 58h4M68 59h4M71 60h2" />
<path stroke="#de8b30" d="M46 28h2M48 29h3M51 30h3M54 31h3M57 32h3M29 33h1M36 33h3M60 33h3M30 34h4M48 34h7M63 34h2M28 35h2M48 35h1M57 35h5M64 35h1M39 36h1M47 36h1M25 37h2M39 37h2M46 37h2M63 37h2M39 38h1M41 38h4M48 38h1M64 38h1M38 39h1M49 39h1M64 39h1M37 40h1M50 40h1M64 40h1M24 41h1M36 41h1M51 41h1M64 41h1M24 42h1M35 42h1M52 42h1M66 42h1M24 43h1M34 43h1M53 43h1M63 43h1M24 44h2M33 44h1M54 44h1M63 44h1M24 45h2M32 45h2M55 45h1M63 45h1M23 46h4M32 46h1M56 46h1M67 46h1M23 47h3M31 47h1M57 47h1M62 47h1M23 48h3M30 48h1M58 48h1M62 48h1M23 49h3M27 49h3M58 49h5M22 50h3M30 50h1M57 50h1M23 51h2M30 51h2M56 51h1M63 51h1M67 51h2M22 52h1M31 52h1M56 52h1M63 52h3M22 53h3M35 53h18M23 54h2M32 54h24M23 55h2M32 55h24M63 55h1M24 56h2M32 56h25M24 57h2M31 57h1M33 57h22M57 57h1M24 58h2M30 58h3M35 58h18M55 58h7M25 59h1M27 59h8M36 59h16M53 59h11M25 60h1M27 60h9M38 60h12M52 60h11M26 61h12M40 61h9M50 61h13M29 62h11M41 62h6M49 62h11M35 63h6M43 63h2M47 63h7M41 64h2M45 64h3" />
<path stroke="#fdda4d" d="M40 29h4M37 30h7M35 31h7M32 32h8M30 33h6M56 34h1M65 40h1M65 41h1M65 42h1M64 43h3M64 44h3M64 45h3M64 46h3M63 47h5M63 48h5M63 49h5M63 50h5M64 51h2" />
<path stroke="#eaae55" d="M44 29h1M44 30h1M42 31h1M44 31h2M40 32h1M47 32h1M34 34h5M55 34h1M30 35h9M49 35h8M28 36h11M48 36h14M27 37h12M48 37h15M25 38h14M40 38h1M45 38h3M49 38h15M25 39h13M39 39h10M50 39h14M25 40h12M38 40h12M51 40h13M26 41h10M37 41h14M52 41h12M26 42h9M36 42h16M53 42h12M26 43h8M35 43h18M54 43h9M26 44h7M34 44h20M55 44h8M26 45h6M34 45h21M56 45h7M27 46h5M33 46h23M57 46h7M27 47h4M32 47h25M58 47h4M27 48h3M31 48h27M59 48h3M30 49h28M31 50h26M32 51h24M66 51h1M32 52h24M66 52h3M64 53h4M64 54h4M64 55h3M63 56h4M63 57h3M63 58h2M64 59h1" />
<path stroke="#ffea95" d="M45 29h3M45 30h6M46 31h8M48 32h9M49 33h11M57 34h4" />
<path stroke="#101010" d="M21 50h1M21 51h1M69 51h1M21 52h1M69 52h1M21 53h1M68 53h1M22 54h1M68 54h1M22 55h1M67 55h1M67 56h1M23 57h1M66 57h1M23 58h1M33 58h1M54 58h1M24 59h1M35 59h1M65 59h3M24 60h1M36 60h1M51 60h1M64 60h1M68 60h3M25 61h1M38 61h1M49 61h1M64 61h1M71 61h3M25 62h3M48 62h1M61 62h3M66 62h1M29 63h5M57 63h3M66 63h1M27 64h1M35 64h4M40 64h1M49 64h5M55 64h2M65 64h1M26 65h1M34 65h2M39 65h1M41 65h7M57 65h7M26 66h1M31 66h2M36 66h3M44 66h1M27 67h4M45 67h1M50 67h2M46 68h4" />
</svg>