<svg xmlns="http://www.w3.org/2000/svg" viewBox="0 -0.5 96 96" shape-rendering="crispEdges">
<metadata>Made with Pixels to Svg https://codepen.io/shshaw/pen/XbxvNj</metadata>
<path stroke="#1d1c16" d="M57 20h1M58 21h1M75 21h2M58 22h1M73 22h2M58 23h1M71 23h2M75 23h1M59 24h1M70 24h1M74 24h1M59 25h1M69 25h1M73 25h1M60 26h1M68 26h1M72 26h1M60 27h1M67 27h1M72 27h1M60 28h1M67 28h1M71 28h1M61 29h1M66 29h1M71 29h1M61 30h1M65 30h1M70 30h1M61 31h1M65 31h1M70 31h1M64 32h1M69 32h1M64 33h1M69 33h1M63 34h1M68 34h1M63 35h1M68 35h1M64 36h1M68 36h1M65 37h1M67 37h1M66 38h2M67 60h2M66 61h1M69 61h1M65 62h3M69 62h1M65 63h4M22 64h1M64 64h2M67 64h1M40 65h1M64 65h1M66 65h1M39 66h2M42 66h2M55 66h2M59 66h1M64 66h1M66 66h1M23 67h2M37 67h3M44 67h1M56 67h4M20 68h2M29 68h2M33 68h5M57 68h3M26 69h1M41 69h1M47 69h1M58 69h1M60 69h2M20 70h1M23 70h1M31 70h1M37 70h1M47 70h3M58 70h1M61 70h2M25 71h1M38 71h1M47 71h4M59 71h3M39 72h1M48 72h3M28 73h1M34 73h1" />
<path stroke="#0b0b0b" d="M56 21h1M56 22h1M76 22h1M55 23h1M76 23h1M55 24h1M76 24h1M55 25h1M76 25h1M55 26h1M76 26h1M55 27h1M75 27h1M54 28h1M75 28h1M54 29h1M75 29h1M54 30h1M74 30h1M54 31h1M74 31h1M54 32h1M74 32h1M53 33h1M73 33h1M53 34h1M73 34h1M53 35h1M73 35h1M53 36h1M72 36h1M72 37h1M72 38h1M52 39h1M52 40h1M52 41h1M52 42h1M52 43h1M52 44h1M51 48h3M73 48h1M73 49h1M72 50h1M26 51h1M52 51h4M70 51h2M25 52h1M62 52h1M67 52h2M24 53h1M64 53h3M24 54h1M40 54h3M23 55h1M40 55h1M23 56h1M41 56h1M22 57h1M41 57h1M22 58h1M41 58h1M22 59h1M42 59h1M22 60h1M42 60h1M62 60h2M22 61h1M42 61h1M59 61h3M65 61h1M22 62h1M42 62h1M56 62h3M64 62h1M23 63h1M42 63h1M54 63h2M64 63h1M23 64h1M42 64h2M55 64h1M63 64h1M21 65h1M23 65h1M41 65h1M44 65h2M54 65h1M63 65h1M21 66h1M23 66h1M41 66h1M45 66h1M54 66h1M63 66h1M22 67h1M40 67h1M45 67h1M49 67h1M55 67h1M64 67h2M44 68h2M49 68h1M56 68h1M19 69h1M42 69h2M46 69h1M49 69h1M57 69h1M19 70h1M24 70h2M42 70h1M46 70h1M50 70h1M57 70h1M20 71h4M31 71h1M43 71h1M46 71h1M51 71h1M58 71h1M62 71h1M24 72h1M30 72h1M32 72h1M38 72h1M43 72h1M47 72h1M51 72h1M59 72h3M24 73h1M29 73h1M33 73h1M38 73h1M40 73h3M48 73h3M25 74h3M35 74h3" />
<path stroke="#2e2e27" d="M57 21h1M57 22h1M75 22h1M56 23h2M73 23h2M56 24h3M71 24h3M56 25h3M70 25h3M56 26h4M69 26h3M56 27h4M68 27h4M55 28h5M68 28h3M55 29h6M67 29h4M55 30h6M66 30h4M55 31h6M66 31h4M55 32h5M65 32h4M54 33h4M65 33h4M54 34h2M64 34h4M54 35h1M64 35h4M65 36h3M66 37h1M72 48h1M35 61h2M67 61h2M23 62h2M28 62h2M34 62h4M68 62h1M24 63h1M27 63h4M33 63h5M24 64h15M40 64h1M66 64h1M22 65h1M24 65h16M65 65h1M22 66h1M24 66h15M65 66h1M25 67h12M41 67h3M22 68h7M31 68h2M38 68h6M20 69h6M27 69h14M59 69h1M21 70h2M26 70h5M32 70h5M38 70h4M59 70h2M26 71h5M32 71h6M39 71h4M25 72h5M33 72h5M40 72h3M25 73h3M35 73h3" />
<path stroke="#6c3b34" d="M75 24h1M74 25h2M73 26h3M73 27h2M72 28h3M72 29h3M71 30h3M71 31h3M70 32h4M70 33h3M69 34h4M70 35h3M71 36h1M36 60h1M23 61h1M37 61h1M30 62h1M25 63h1M31 63h1M38 63h1M40 63h1M41 64h1" />
<path stroke="#461c15" d="M60 32h1M56 34h1M55 35h1M69 35h1M54 36h1M70 36h1M53 37h1M71 37h1M53 38h1M71 38h1M72 39h1M72 40h1M72 41h1M72 42h1M72 43h1M52 45h1M71 45h1M52 46h2M71 46h1M51 47h1M53 47h1M72 47h1M31 48h8M54 48h1M29 49h2M39 49h3M53 49h1M27 50h2M42 50h2M52 50h1M56 50h1M65 50h1M44 51h1M56 51h1M62 51h1M66 51h1M69 51h1M45 52h3M55 52h1M61 52h1M63 52h1M66 52h1M69 52h1M40 53h1M45 53h1M49 53h5M61 53h1M43 54h1M46 54h1M61 54h1M43 55h2M46 55h1M62 55h1M63 56h1M64 57h2M52 58h1M66 58h1M52 59h1M61 59h2M67 59h1M53 60h1M64 60h1M45 61h1M53 61h1M45 62h1M53 62h1M59 62h1M45 63h1M53 63h1M58 63h1M46 64h1M53 64h1M58 64h1M46 65h1M52 65h1M55 65h1M58 65h1M50 66h2M57 66h2" />
<path stroke="#8e4237" d="M61 32h3M58 33h2M57 34h1M56 35h1M61 35h2M55 36h9M69 36h1M54 37h11M68 37h3M54 38h12M68 38h3M53 39h19M53 40h19M53 41h18M53 42h18M53 43h17M53 44h17M71 44h1M53 45h17M54 46h16M54 47h16M55 48h16M54 49h17M54 50h2M57 50h7M66 50h1M69 50h3M28 51h6M57 51h5M63 51h1M67 51h1M26 52h10M40 52h3M57 52h4M64 52h1M25 53h12M38 53h1M41 53h3M48 53h1M54 53h1M57 53h4M25 54h11M37 54h1M39 54h1M44 54h1M47 54h2M57 54h4M24 55h16M41 55h2M45 55h1M47 55h4M56 55h6M24 56h17M42 56h10M54 56h8M23 57h18M42 57h20M23 58h18M42 58h10M53 58h11M23 59h19M43 59h9M53 59h8M63 59h2M23 60h13M37 60h5M43 60h9M54 60h5M65 60h1M24 61h11M38 61h4M44 61h1M46 61h6M25 62h3M31 62h3M38 62h4M46 62h6M26 63h1M32 63h1M39 63h1M41 63h1M46 63h7M56 63h2M39 64h1M47 64h6M56 64h2M47 65h5M56 65h2M46 66h4M46 67h3M46 68h3M48 69h1" />
<path stroke="#c4501e" d="M60 33h4M58 34h5M57 35h4M71 41h1M71 42h1M70 43h2M70 44h1M70 45h1M70 46h1M52 47h1M70 47h2M71 48h1M31 49h8M71 49h2M29 50h13M53 50h1M64 50h1M67 50h2M27 51h1M34 51h10M64 51h2M68 51h1M36 52h4M43 52h2M56 52h1M65 52h1M37 53h1M39 53h1M44 53h1M46 53h2M55 53h2M36 54h1M38 54h1M45 54h1M49 54h8M51 55h5M52 56h2M62 56h1M62 57h2M64 58h2M65 59h2M52 60h1M66 60h1M52 61h1M52 62h1" />
<path stroke="#8d798e" d="M59 60h3M43 61h1M54 61h5M43 62h2M54 62h2M43 63h2M44 64h2" />
</svg>