<svg xmlns="http://www.w3.org/2000/svg" viewBox="0 -0.5 96 96" shape-rendering="crispEdges">
<metadata>Made with Pixels to Svg https://codepen.io/shshaw/pen/XbxvNj</metadata>
<path stroke="#0b0b0b" d="M80 17h1M65 18h1M79 18h1M81 18h1M65 19h1M79 19h1M81 19h1M65 20h1M78 20h1M81 20h1M65 21h1M78 21h1M82 21h1M66 22h1M78 22h1M82 22h1M66 23h1M77 23h1M82 23h1M66 24h1M77 24h1M82 24h1M66 25h1M77 25h1M67 26h1M85 26h1M67 27h1M85 27h1M67 28h1M85 28h1M65 29h2M68 29h1M85 29h1M65 30h1M67 30h1M85 30h1M65 31h1M66 32h1M84 32h1M84 33h1M76 39h2M75 40h1M78 40h2M84 40h1M75 41h1M80 41h4M30 44h5M28 45h2M35 45h1M27 46h1M26 47h1M9 48h1M25 48h1M9 49h1M25 49h1M9 50h1M24 51h1M34 51h1M24 52h1M34 52h1M52 52h1M10 53h1M24 53h1M34 53h1M52 53h1M10 54h1M34 54h1M52 54h1M77 54h1M25 55h1M33 55h1M51 55h6M76 55h1M11 56h1M25 56h1M33 56h1M51 56h1M58 56h2M74 56h2M11 57h1M26 57h1M33 57h1M50 57h1M61 57h4M72 57h2M26 58h1M33 58h1M39 58h1M50 58h1M64 58h1M73 58h1M10 59h1M27 59h1M32 59h1M39 59h1M49 59h1M65 59h1M74 59h1M10 60h1M27 60h1M32 60h1M39 60h1M48 60h1M65 60h1M74 60h1M10 61h1M27 61h1M31 61h1M39 61h1M47 61h1M63 61h3M74 61h1M9 62h1M27 62h1M31 62h1M39 62h1M46 62h1M62 62h1M65 62h1M69 62h2M73 62h1M9 63h1M28 63h1M31 63h1M38 63h1M45 63h1M60 63h2M64 63h1M68 63h1M70 63h1M73 63h1M9 64h1M28 64h1M31 64h1M36 64h1M38 64h1M45 64h1M64 64h1M70 64h1M73 64h1M9 65h1M28 65h1M31 65h1M36 65h1M38 65h1M44 65h1M64 65h1M69 65h1M73 65h1M9 66h1M28 66h1M32 66h1M36 66h1M39 66h1M44 66h1M63 66h1M68 66h1M70 66h1M73 66h1M9 67h1M28 67h1M32 67h1M36 67h1M39 67h1M44 67h1M63 67h1M67 67h1M70 67h1M74 67h1M9 68h1M28 68h1M32 68h1M36 68h1M39 68h1M44 68h1M63 68h1M67 68h1M71 68h1M74 68h1M9 69h1M27 69h1M32 69h1M36 69h1M40 69h1M44 69h1M63 69h1M66 69h1M71 69h1M75 69h1M10 70h1M27 70h1M33 70h1M36 70h1M40 70h1M44 70h1M63 70h1M66 70h1M72 70h1M75 70h1M10 71h1M28 71h1M33 71h1M37 71h2M41 71h1M45 71h1M63 71h1M66 71h1M72 71h1M76 71h1M9 72h1M29 72h1M33 72h1M39 72h1M41 72h1M45 72h1M64 72h1M66 72h1M73 72h1M80 72h1M8 73h1M12 73h1M17 73h1M30 73h1M34 73h1M39 73h1M41 73h1M45 73h3M64 73h1M67 73h1M73 73h1M80 73h1M7 74h1M10 74h3M16 74h1M18 74h1M23 74h2M27 74h4M35 74h4M42 74h1M48 74h1M64 74h1M71 74h1M74 74h6M7 75h3M12 75h1M14 75h2M19 75h1M22 75h1M25 75h1M27 75h1M42 75h1M49 75h1M65 75h1M71 75h1M12 76h2M20 76h2M26 76h2M43 76h1M49 76h1M66 76h5M44 77h5" />
<path stroke="#1d1c16" d="M66 18h1M80 18h1M67 19h2M80 19h1M66 20h1M69 20h1M79 20h2M66 21h2M70 21h1M79 21h2M67 22h1M71 22h1M79 22h2M67 23h2M72 23h1M78 23h3M67 24h2M73 24h1M78 24h3M67 25h3M78 25h3M84 25h1M68 26h3M78 26h3M83 26h1M68 27h2M78 27h3M83 27h1M68 28h1M79 28h1M66 30h1M66 31h2M84 31h1M67 32h1M87 37h1M86 38h1M43 40h7M64 40h1M50 41h3M62 41h2M53 42h9M66 42h3M41 43h5M63 43h2M68 43h2M41 44h9M61 44h1M70 44h1M40 45h13M59 45h1M40 46h5M46 46h7M41 47h2M46 47h6M46 48h6M47 49h4M47 50h4M47 51h3M48 52h1M71 60h2M70 61h3M71 62h1M67 63h1M71 63h1M11 64h1M18 64h1M25 64h1M35 64h1M66 64h3M71 64h1M10 65h3M17 65h3M24 65h3M33 65h3M65 65h3M70 65h2M10 66h3M16 66h5M24 66h3M33 66h3M64 66h3M71 66h2M10 67h4M15 67h7M23 67h5M33 67h3M42 67h2M64 67h2M71 67h2M10 68h18M33 68h3M41 68h3M64 68h2M72 68h1M10 69h17M33 69h3M41 69h3M64 69h1M72 69h2M11 70h16M34 70h2M41 70h3M64 70h1M73 70h1M76 70h3M11 71h17M34 71h3M42 71h3M64 71h1M73 71h2M79 71h1M10 72h19M34 72h5M42 72h3M67 72h3M74 72h3M9 73h3M13 73h4M18 73h12M35 73h4M42 73h3M65 73h1M70 73h1M74 73h6M8 74h2M13 74h3M19 74h4M25 74h2M43 74h5M65 74h3M13 75h1M20 75h2M26 75h1M43 75h6M66 75h5M44 76h5" />
<path stroke="#2e2e27" d="M66 19h1M67 20h2M68 21h2M68 22h3M69 23h3M69 24h4M70 25h3M84 26h1M84 27h1M83 28h2M83 29h2M84 30h1M87 36h1M86 37h1M43 41h7M64 41h3M42 42h11M62 42h4M46 43h17M50 44h3M56 44h5M57 45h2M73 59h1M73 60h1M73 61h1M72 62h1M69 63h1M72 63h1M69 64h1M72 64h1M68 65h1M72 65h1M67 66h1M66 67h1M73 67h1M66 68h1M73 68h1M65 69h1M74 69h1M65 70h1M74 70h1M65 71h1M75 71h1M77 71h2M65 72h1M77 72h3M66 73h1M68 73h2M68 74h3" />
<path stroke="#461c15" d="M81 21h1M82 25h1M71 26h2M82 26h1M70 27h1M82 27h1M69 28h1M80 28h1M69 29h1M68 30h1M68 31h1M67 33h1M67 34h1M66 36h1M66 37h1M80 37h2M65 38h1M82 38h1M11 39h1M65 39h1M80 39h2M11 40h1M10 41h1M41 41h2M10 42h1M40 42h1M74 42h1M10 43h1M9 44h1M9 45h1M36 45h1M9 46h1M35 46h1M37 46h1M9 47h1M35 47h1M34 48h1M34 49h1M24 50h1M34 50h1M41 50h1M73 50h1M10 51h1M40 51h1M52 51h1M73 51h1M10 52h1M38 52h1M40 52h1M65 52h1M73 52h1M39 53h2M65 53h1M72 53h1M24 54h1M39 54h1M64 54h1M72 54h1M11 55h1M39 55h1M57 55h1M64 55h1M72 55h1M39 56h1M60 56h1M64 56h1M71 56h1M39 57h1M71 57h1M11 58h1M70 58h1M69 59h1M72 59h1M38 60h1M69 60h2M37 61h1M68 61h2M37 62h1M68 62h1M36 63h1M66 63h1M34 64h1M65 64h1M32 65h1M43 66h1M41 67h1M40 68h1" />
<path stroke="#6c3b34" d="M81 22h1M81 23h1M81 24h1M73 25h4M81 25h1M77 26h1M81 26h1M78 28h1M82 28h1M79 29h1M83 30h1M83 31h1M68 32h1M83 32h1M83 33h1M19 34h10M83 34h1M16 35h3M29 35h3M67 35h1M83 35h1M14 36h2M32 36h2M79 36h1M83 36h1M13 37h1M34 37h2M84 37h1M12 38h1M36 38h1M85 38h1M37 39h1M85 39h1M38 40h1M38 41h1M67 41h1M39 42h1M41 42h1M39 43h1M67 43h1M74 43h1M40 44h1M55 44h1M62 44h1M69 44h1M74 44h1M60 45h1M73 45h1M45 46h1M73 46h1M38 47h1M40 47h1M52 47h1M73 47h1M73 48h1M41 49h1M46 49h1M51 49h1M73 49h1M52 50h1M50 51h1M66 51h1M47 52h1M49 52h1M71 58h2M70 59h2M11 63h1M18 63h1M25 63h1M10 64h1M17 64h1M19 64h1M24 64h1M26 64h1M16 65h1M13 66h1M15 66h1M21 66h1M23 66h1M27 66h1M14 67h1M22 67h1" />
<path stroke="#c4501e" d="M73 26h4M71 27h7M71 28h6M81 28h1M72 29h3M81 29h1M81 30h2M81 31h2M81 32h2M82 33h1M82 34h1M19 35h10M82 35h1M16 36h16M82 36h1M14 37h20M79 37h1M82 37h2M13 38h2M20 38h16M80 38h2M83 38h2M12 39h1M22 39h15M83 39h2M24 40h14M25 41h13M25 42h1M27 42h12M26 43h1M28 43h1M30 43h1M35 43h4M27 44h1M29 44h1M38 44h2M54 44h1M26 45h1M53 45h4" />
<path stroke="#8e4237" d="M81 27h1M70 28h1M77 28h1M70 29h2M75 29h4M80 29h1M82 29h1M69 30h12M69 31h12M69 32h12M68 33h14M68 34h14M68 35h14M67 36h12M80 36h2M67 37h12M15 38h5M66 38h14M13 39h9M66 39h10M78 39h2M82 39h1M12 40h12M65 40h10M80 40h4M11 41h14M68 41h7M11 42h14M26 42h1M69 42h5M11 43h15M27 43h1M29 43h1M31 43h4M40 43h1M65 43h2M70 43h4M10 44h17M28 44h1M35 44h3M53 44h1M63 44h6M71 44h3M10 45h16M27 45h1M37 45h3M61 45h12M10 46h17M36 46h1M38 46h2M53 46h20M10 47h16M36 47h2M39 47h1M43 47h3M53 47h20M10 48h15M35 48h11M52 48h21M10 49h15M35 49h6M42 49h4M52 49h21M10 50h14M35 50h6M42 50h5M51 50h1M53 50h20M11 51h13M35 51h5M41 51h6M51 51h1M53 51h13M67 51h6M11 52h13M35 52h3M39 52h1M41 52h6M50 52h2M53 52h12M66 52h7M11 53h13M35 53h4M41 53h11M53 53h12M66 53h6M11 54h13M35 54h4M40 54h12M53 54h11M65 54h7M12 55h13M34 55h5M40 55h11M58 55h6M65 55h7M12 56h13M34 56h5M40 56h11M61 56h3M65 56h6M12 57h14M34 57h5M40 57h10M65 57h6M12 58h14M34 58h5M40 58h10M65 58h5M11 59h16M33 59h6M40 59h9M66 59h3M11 60h16M33 60h5M40 60h8M66 60h3M11 61h16M32 61h5M40 61h7M66 61h2M10 62h17M32 62h5M40 62h6M66 62h2M10 63h1M12 63h6M19 63h6M26 63h2M32 63h4M39 63h6M65 63h1M12 64h5M20 64h4M27 64h1M32 64h2M39 64h6M13 65h3M20 65h4M27 65h1M39 65h5M14 66h1M22 66h1M40 66h3M40 67h1" />
<path stroke="#b1a7ba" d="M75 42h1M74 45h1M74 46h1M74 47h1M74 48h2M74 49h2M74 50h3M74 51h3M74 52h4M73 53h4M73 54h3M73 55h2M72 56h1M63 58h1M62 59h3M62 60h3M61 61h2M61 62h1" />
<path stroke="#8d798e" d="M76 42h1M76 43h1M77 44h1M77 45h1M78 46h1M78 47h1M79 48h1M79 49h1M79 50h1M78 51h1M78 52h1M77 53h1M76 54h1M75 55h1M73 56h1" />
<path stroke="#dfdce3" d="M75 43h1M75 44h2M75 45h2M75 46h3M75 47h3M76 48h3M76 49h3M77 50h2M77 51h1" />
<path stroke="#504857" d="M62 58h1M61 59h1M61 60h1M60 61h1M60 62h1" />
</svg>