<svg xmlns="http://www.w3.org/2000/svg" viewBox="0 -0.5 96 96" shape-rendering="crispEdges">
<metadata>Made with Pixels to Svg https://codepen.io/shshaw/pen/XbxvNj</metadata>
<path stroke="#9a632c" d="M48 25h2M47 26h1M49 26h1M35 27h2M45 27h2M50 27h1M35 28h1M44 28h1M35 29h1M43 29h1M43 30h1M43 31h1M54 32h2M53 33h1M62 36h1M40 37h2M63 37h3M65 38h1M64 39h1M62 40h2M60 41h2M63 47h1M64 48h3" />
<path stroke="#e09b24" d="M48 26h1M47 27h2M37 28h4M45 28h4M51 28h2M36 29h1M41 29h2M44 29h6M53 29h3M36 30h2M44 30h6M54 30h1M56 30h1M36 31h4M44 31h7M54 31h1M56 31h1M36 32h8M45 32h8M56 32h1M37 33h7M45 33h8M57 33h2M37 34h8M46 34h6M53 34h3M59 34h1M38 35h7M51 35h1M53 35h5M60 35h1M40 36h3M53 36h6M61 36h1M54 37h6M40 38h1M55 38h7M39 39h1M56 39h8M57 40h5M58 42h1M60 42h1M58 43h1M61 43h1M59 44h1M61 44h1M59 45h1M62 45h1M59 46h2M62 46h1M60 47h1M60 48h2M60 49h3M60 50h4" />
<path stroke="#f4d626" d="M49 27h1M36 28h1M49 28h2M37 29h2M50 29h1M38 30h2M50 30h2M40 31h3M51 31h3M53 32h1M54 33h2M56 34h1M58 35h1M59 36h1M60 37h3M62 38h3M59 43h1M60 45h1M61 46h1M61 47h2M62 48h2M63 49h3" />
<path stroke="#fef54b" d="M39 29h2M51 29h2M40 30h3M52 30h2M56 33h1M57 34h2M59 35h1M60 36h1M59 42h1M60 43h1M60 44h1M61 45h1" />
<path stroke="#101010" d="M35 30h1M35 31h1M35 32h1M44 32h1M36 33h1M44 33h1M36 34h1M45 34h1M52 34h1M37 35h1M52 35h1M38 36h2M39 37h1M39 38h1M38 39h1M38 40h1M38 41h1M57 41h3M28 44h1M28 45h1M28 46h1M28 47h1M29 48h1M29 49h1M66 49h1M30 50h1M64 50h2M30 51h1M60 51h4M31 52h1M32 53h1M67 53h1M27 54h1M33 54h1M66 54h1M27 55h1M34 55h2M65 55h1M27 56h1M36 56h3M64 56h1M28 57h1M62 57h2M29 58h1M47 58h3M59 58h3M30 59h2M50 59h9M32 60h2M39 60h1M34 61h5M45 63h3M32 64h1M43 64h3M49 64h2M65 64h1M33 65h2M41 65h2M45 65h1M51 65h2M63 65h2M35 66h6M45 66h1M50 66h1M53 66h10M44 67h1M50 67h1M44 68h1M49 68h1M43 69h1M47 69h2M43 70h4" />
<path stroke="#fef1a7" d="M55 30h1M55 31h1" />
<path stroke="#841d1a" d="M45 35h6M43 36h2M51 36h2M42 37h1M53 37h1M41 38h1M54 38h1M40 39h1M55 39h1M39 40h1M56 40h1M39 41h1M56 41h1M38 42h1M57 42h1M38 43h1M57 43h1M29 44h1M37 44h1M58 44h1M30 45h1M37 45h1M58 45h1M30 46h1M37 46h1M58 46h1M31 47h1M36 47h1M59 47h1M32 48h2M36 48h1M59 48h1M34 49h3M56 49h1M59 49h1M36 50h1M57 50h1M59 50h1M57 51h1M59 51h1M58 52h2M66 52h2M59 53h2M64 53h2M28 54h1M61 54h3M29 55h2M39 55h2M31 56h5M44 56h1M45 57h2M41 59h1M40 60h1M59 60h1M45 61h1M60 61h1M35 62h2M45 62h2M61 62h2M32 63h3M48 63h1M63 63h3" />
<path stroke="#cf301f" d="M45 36h6M43 37h10M42 38h12M41 39h14M40 40h16M40 41h16M39 42h18M39 43h18M38 44h20M29 45h1M38 45h20M29 46h1M38 46h20M29 47h2M37 47h22M30 48h2M37 48h22M30 49h4M37 49h19M57 49h2M31 50h5M37 50h20M58 50h1M31 51h26M58 51h1M32 52h25M33 53h24M66 53h1M34 54h24M65 54h1M28 55h1M36 55h3M41 55h17M64 55h1M28 56h3M39 56h5M45 56h14M63 56h1M29 57h16M47 57h15M30 58h17M50 58h9M32 59h9M42 59h8M34 60h5M41 60h18M39 61h6M46 61h14M37 62h8M47 62h13M35 63h10M49 63h11M33 64h10M51 64h10M35 65h6M53 65h10" />
<path stroke="#fb472f" d="M57 52h1M57 53h2M58 54h3M64 54h1M58 55h6M59 56h4M60 62h1M60 63h3M61 64h4" />
<path stroke="#3fad71" d="M46 64h3M46 65h5M46 66h4M45 67h4M45 68h3M44 69h3" />
<path stroke="#43d68f" d="M49 67h1M48 68h1" />
</svg>