<svg xmlns="http://www.w3.org/2000/svg" viewBox="0 -0.5 96 96" shape-rendering="crispEdges">
<metadata>Made with Pixels to Svg https://codepen.io/shshaw/pen/XbxvNj</metadata>
<path stroke="#080808" d="M45 30h1M45 31h1M45 32h1M48 32h1M44 33h1M48 33h1M44 34h1M47 34h1M32 35h1M44 35h1M47 35h1M59 35h2M32 36h1M44 36h1M46 36h1M59 36h1M61 36h1M32 37h1M45 37h2M59 37h1M61 37h1M32 38h1M45 38h1M58 38h1M61 38h1M33 39h1M58 39h1M61 39h1M33 40h1M60 40h1M33 41h1M65 42h1M26 43h1M61 43h4M26 44h1M63 44h1M26 45h1M63 45h1M27 46h2M64 46h1M29 47h3M64 47h1M30 48h2M64 48h1M74 48h1M28 49h2M64 49h1M74 49h1M26 50h2M33 50h1M65 50h1M74 50h1M26 51h1M32 51h1M35 51h2M66 51h1M73 51h1M26 52h1M32 52h1M37 52h1M66 52h1M73 52h1M27 53h1M30 53h3M43 53h2M66 53h1M72 53h1M27 54h3M32 54h1M40 54h1M42 54h1M66 54h1M70 54h2M31 55h1M33 55h1M40 55h2M43 55h2M66 55h4M30 56h1M33 56h3M39 56h1M41 56h1M46 56h1M65 56h2M30 57h1M33 57h1M36 57h3M41 57h2M45 57h1M63 57h2M31 58h2M34 58h1M38 58h1M43 58h2M55 58h2M60 58h3M34 59h1M39 59h2M46 59h3M54 59h1M57 59h2M61 59h1M35 60h1M41 60h3M49 60h2M54 60h1M58 60h3M35 61h1M42 61h1M51 61h3M58 61h1M36 62h1M43 62h2M50 62h2M57 62h1M36 63h1M45 63h5M57 63h1M37 64h2M56 64h1M39 65h4M54 65h2M43 66h3M52 66h2M46 67h6" />
<path stroke="#36312f" d="M46 30h3M49 31h1M49 32h7M38 33h5M56 33h2M35 34h3M43 34h1M48 34h2M58 34h1M33 35h2M48 35h3M42 36h1M47 36h4M60 36h1M41 37h1M43 37h1M47 37h4M60 37h1M39 38h2M43 38h1M46 38h4M59 38h2M63 38h2M34 39h6M48 39h2M59 39h2M62 39h1M65 39h1M28 40h4M34 40h6M45 40h5M57 40h1M59 40h1M66 40h1M27 41h1M32 41h1M34 41h6M42 41h3M49 41h1M57 41h1M66 41h1M27 42h1M33 42h7M42 42h1M49 42h1M56 42h1M27 43h3M41 43h1M49 43h1M52 43h4M27 44h6M41 44h1M47 44h3M27 45h5M42 45h1M44 45h3M29 46h3M42 46h2M48 46h3M63 46h1M46 47h2M51 47h2M62 47h2M45 48h1M52 48h1M30 49h1M34 49h2M45 49h1M50 49h2M28 50h5M45 50h5M27 51h5M33 51h2M27 52h5M33 52h4M54 52h2M28 53h2M33 53h5M40 53h3M46 53h1M55 53h1M33 54h6M41 54h1M46 54h1M55 54h1M32 55h1M34 55h6M42 55h1M45 55h2M55 55h1M31 56h2M36 56h3M40 56h1M42 56h4M55 56h2M31 57h2M39 57h2M43 57h2M46 57h2M54 57h4M39 58h4M45 58h4M52 58h3M57 58h3M41 59h5M49 59h5M59 59h2M44 60h5M51 60h3M43 61h8M45 62h5" />
<path stroke="#514c49" d="M46 31h3M46 32h2M45 33h3M42 34h1M45 34h2M42 35h1M45 35h2M51 35h1M45 36h1M51 36h4M58 36h1M42 37h1M51 37h8M41 38h2M50 38h8M40 39h8M50 39h8M63 39h2M40 40h5M50 40h7M58 40h1M61 40h5M28 41h4M40 41h2M50 41h7M58 41h8M28 42h5M40 42h2M50 42h6M57 42h8M30 43h11M50 43h2M56 43h5M33 44h8M50 44h13M32 45h10M47 45h16M32 46h10M44 46h4M51 46h12M32 47h14M53 47h9M32 48h13M53 48h6M31 49h3M36 49h9M52 49h5M34 50h11M50 50h7M37 51h13M53 51h3M38 52h10M38 53h2M45 53h1M39 54h1M43 54h3" />
<path stroke="#77706c" d="M49 33h7M38 34h4M50 34h8M35 35h7M43 35h1M52 35h7M33 36h9M43 36h1M55 36h3M33 37h8M44 37h1M33 38h6M44 38h1M45 41h4M43 42h6M42 43h7M42 44h5M43 45h1M48 47h3M46 48h6M46 49h4" />
<path stroke="#2a2928" d="M66 39h4M69 41h2M67 42h2M65 44h2M64 45h4M65 46h3M69 46h5M65 47h3M69 47h5M59 48h5M65 48h3M69 48h5M57 49h2M65 49h2M68 49h6M57 50h1M69 50h5M56 51h1M60 51h3M71 51h2M59 52h1M63 52h1M65 52h1M48 53h1M51 53h2M57 53h1M63 53h3M50 54h1M57 54h1M59 54h1M62 54h1M64 54h2M50 55h1M57 55h2M60 55h2M63 55h3M48 56h2M51 56h3M58 56h1M63 56h2M49 57h1M51 57h1M60 57h3M55 59h1M55 60h1M54 61h2M42 62h1M52 62h4M41 63h1M44 63h1M50 63h3M40 64h4M53 64h2M43 65h6M50 65h4M46 66h3M50 66h2" />
<path stroke="#5c5752" d="M67 40h3M67 41h2M66 42h1M58 50h2M57 51h3M50 52h3M57 52h2M49 53h2" />
<path stroke="#181716" d="M70 40h3M73 41h1M73 42h1M65 43h2M74 43h1M64 44h1M74 44h1M74 45h1M68 46h1M74 46h1M68 47h1M74 47h1M68 48h1M67 49h1M66 50h3M50 51h3M65 51h1M67 51h4M48 52h2M53 52h1M56 52h1M64 52h1M67 52h6M47 53h1M54 53h1M56 53h1M58 53h1M67 53h5M47 54h1M54 54h1M56 54h1M58 54h1M63 54h1M67 54h3M47 55h1M54 55h1M56 55h1M59 55h1M62 55h1M47 56h1M50 56h1M54 56h1M57 56h1M59 56h4M34 57h2M48 57h1M50 57h1M52 57h2M58 57h2M35 58h3M49 58h3M35 59h4M56 59h1M36 60h5M56 60h1M36 61h6M37 62h5M37 63h4M42 63h2M53 63h2M39 64h1M44 64h9M55 64h1M49 65h1M49 66h1" />
<path stroke="#403b3a" d="M71 41h2M69 42h4M67 43h7M67 44h7M68 45h6M59 49h5M60 50h5M63 51h2M60 52h3M53 53h1M59 53h4M48 54h2M51 54h3M60 54h2M48 55h2M51 55h3M57 60h1M56 61h2M56 62h1M55 63h2" />
</svg>