<svg xmlns="http://www.w3.org/2000/svg" viewBox="0 -0.5 96 96" shape-rendering="crispEdges">
<metadata>Made with Pixels to Svg https://codepen.io/shshaw/pen/XbxvNj</metadata>
<path stroke="#777042" d="M48 27h10M46 28h2M58 28h2M60 29h2M62 30h1M63 31h4M43 32h1M52 32h1M67 32h1M42 33h1M44 33h1M50 33h1M58 33h4M64 33h1M42 34h1M56 34h8M41 35h3M53 35h12M41 36h5M50 36h16M41 37h19M62 37h4M41 38h19M63 38h3M41 39h20M64 39h2M41 40h20M64 40h1M42 41h20M42 42h21M42 43h22M45 44h12M59 44h5M45 45h5M53 45h4M60 45h3M45 46h4M54 46h4M60 46h3M45 47h3M55 47h3M61 47h1M45 48h3M55 48h4M46 49h2M56 49h3M47 50h1M56 50h3M48 51h1M57 51h2M57 52h1M49 53h1" />
<path stroke="#979d4d" d="M48 28h10M46 29h14M44 30h18M43 31h20M44 32h8M54 32h10M65 32h2M45 33h5M54 33h4M62 33h2M66 33h1M53 34h3M64 34h1M52 35h1M65 35h1" />
<path stroke="#413321" d="M44 29h2M43 30h1M53 32h1M64 32h1M43 33h1M51 33h3M65 33h1M67 33h1M43 34h10M65 34h1M44 35h8M66 35h1M46 36h4M66 36h1M60 37h2M66 37h1M60 38h3M66 38h1M61 39h3M66 39h1M61 40h3M68 40h1M62 41h3M67 41h1M63 42h2M66 42h1M65 43h1M43 44h2M57 44h2M43 45h2M50 45h3M57 45h3M44 46h1M49 46h1M53 46h1M58 46h2M48 47h1M54 47h1M58 47h3M48 48h1M59 48h2M48 49h1M55 49h1M59 49h1M48 50h1M56 51h1M49 52h1M31 53h1M50 53h1M57 53h1M30 54h1M57 54h1M30 55h1M42 55h1M29 56h1M34 56h2M41 56h1M29 57h1M33 57h1M36 57h1M39 57h2M42 57h1M33 58h1M36 58h3M34 59h2M30 60h1M32 62h1M38 62h1M37 66h1" />
<path stroke="#706749" d="M62 29h2M64 30h2M66 34h2M68 35h1M68 36h1M69 37h1M69 38h1M69 39h1M66 40h2M54 48h1M55 50h1M49 51h1M33 52h4M56 52h1M32 53h1M37 53h2M39 54h1M53 54h2M39 55h1M55 55h2M40 56h1M47 56h1M57 56h2M43 57h2M46 57h1M59 57h1M46 58h1M60 58h1M41 59h1M47 59h1M60 59h1M27 60h2M43 60h1M47 60h1M26 61h1M40 61h1M43 61h1M47 61h1M44 62h3M59 62h1M53 63h3M39 64h1M52 64h1M32 65h1M38 65h1M33 66h1" />
<path stroke="#f9f2df" d="M63 30h1M67 35h1M67 36h1M67 37h2M67 38h2M55 56h2M57 57h2M59 58h1" />
<path stroke="#101010" d="M42 31h1M42 32h1M41 33h1M41 34h1M40 35h1M40 36h1M40 37h1M40 38h1M40 39h1M40 40h1M65 40h1M41 41h1M65 41h1M41 42h1M65 42h1M41 43h1M64 43h1M42 44h1M64 44h1M42 45h1M63 45h1M43 46h1M63 46h1M44 47h1M62 47h1M44 48h1M61 48h1M45 49h1M60 49h1M46 50h1M59 50h1M47 51h1M59 51h1M48 52h1M58 52h1M48 53h1M58 53h1M49 54h4M58 54h1M43 55h1M48 55h2M57 55h1M43 56h1M45 56h2M29 58h1M42 58h1M29 59h1M42 59h1M41 60h1M60 60h1M30 61h1M60 61h1M25 62h1M31 62h1M39 62h2M25 63h1M33 63h5M40 63h1M59 63h1M25 64h1M40 64h1M50 64h2M57 64h2M26 65h1M39 65h1M46 65h11M27 66h2M38 66h8M29 67h8" />
<path stroke="#cec29f" d="M67 39h2M66 41h1M50 55h5M48 56h7M47 57h10M47 58h3M58 58h1M42 60h1" />
<path stroke="#ae9e60" d="M50 46h3M49 47h5M49 48h5M49 49h6M49 50h6M50 51h6M50 52h6M51 53h6M55 54h2M50 58h8M48 59h12M29 60h1M48 60h12M27 61h3M41 61h2M48 61h12M26 62h5M41 62h3M47 62h12M26 63h6M41 63h12M56 63h3M26 64h6M41 64h9M53 64h4M27 65h5M40 65h6M29 66h4" />
<path stroke="#b3b062" d="M33 53h4M31 54h1M35 54h4M37 55h2M38 56h2M42 56h1M41 57h1M45 57h1M39 58h1M43 58h3M43 59h3" />
<path stroke="#888344" d="M32 54h3M31 55h6M30 56h4M36 56h2M30 57h3M37 57h2M30 58h3M40 58h2M30 59h4M36 59h5M46 59h1M31 60h10M44 60h3M31 61h9M44 61h3M33 62h5M32 63h1M38 63h2M32 64h7M33 65h5M34 66h3" />
</svg>