<svg xmlns="http://www.w3.org/2000/svg" viewBox="0 -0.5 96 96" shape-rendering="crispEdges">
<metadata>Made with Pixels to Svg https://codepen.io/shshaw/pen/XbxvNj</metadata>
<path stroke="#727ab1" d="M29 8h3M28 9h1M32 9h3M28 10h1M35 10h2M37 11h2M39 12h2M27 13h1M35 16h1M35 17h1M36 18h1M56 18h1M26 19h2M36 19h1M57 19h1M36 20h1M57 20h1M37 21h1M37 22h1M28 23h1M37 23h1M38 24h1M38 25h1M39 26h1M39 27h1M40 28h1M40 29h1M41 30h1M31 31h2M41 31h1M54 31h1M42 32h1M54 32h1M42 33h1M34 34h1M43 34h1M44 35h1M44 36h1M35 37h2M45 37h1M45 38h1M46 39h1M47 41h1M48 42h1M49 44h1M50 45h1M45 46h1M51 46h1M52 47h1M53 48h1M54 49h1M55 50h1M54 51h2M62 54h3M65 55h1M66 56h1M67 57h2M69 58h2M64 59h1M71 59h1M65 60h1M72 60h1M61 61h1M66 61h1M69 61h1M73 61h1M61 62h1M67 62h1M62 63h1M68 63h1M62 64h1M68 64h1M62 65h1M69 65h1M62 66h1M69 66h1M62 67h1M69 67h1M61 68h1M61 69h1" />
<path stroke="#acbfdf" d="M29 9h3M29 10h6M28 11h5M34 11h3M28 12h4M35 12h4M28 13h4M36 13h5M27 14h5M38 14h5M47 14h1M27 15h5M39 15h3M27 16h5M40 16h6M27 17h5M39 17h10M27 18h6M35 18h1M37 18h15M55 18h1M28 19h5M37 19h17M56 19h1M25 20h2M28 20h6M37 20h20M24 21h3M28 21h6M36 21h1M38 21h20M24 22h3M28 22h7M38 22h20M23 23h5M29 23h6M38 23h20M24 24h4M29 24h7M37 24h1M39 24h19M25 25h3M29 25h7M39 25h18M25 26h4M30 26h7M38 26h1M40 26h10M52 26h5M25 27h4M30 27h7M40 27h9M53 27h3M24 28h6M31 28h7M39 28h1M41 28h8M53 28h2M22 29h8M31 29h8M41 29h9M52 29h2M22 30h9M32 30h9M42 30h10M23 31h8M33 31h8M42 31h8M52 31h2M25 32h7M33 32h9M43 32h4M50 32h2M53 32h1M28 33h5M34 33h8M47 33h5M35 34h8M44 34h8M54 34h1M29 35h5M35 35h9M45 35h7M29 36h6M36 36h8M45 36h7M29 37h6M37 37h8M46 37h6M29 38h7M37 38h8M46 38h5M29 39h8M38 39h8M47 39h4M29 40h9M39 40h6M47 40h4M30 41h9M40 41h5M46 41h1M48 41h2M32 42h8M41 42h5M49 42h1M35 43h6M42 43h4M43 44h4M44 45h4M49 45h1M46 46h3M50 46h1M47 47h3M49 48h2M51 49h1M64 56h1M60 57h1M58 58h4M58 59h6M65 59h1M70 59h1M58 60h5M67 60h1M58 61h1M60 61h1M62 61h1M60 62h1M62 62h2M59 63h3M63 63h2M59 64h3M64 64h2M59 65h3M65 65h2M59 66h3M66 66h2M59 67h3M68 67h1M60 68h1M60 69h1" />
<path stroke="#101010" d="M27 11h1M27 12h1M26 14h1M26 15h1M26 16h1M26 17h1M26 18h1M25 19h1M24 20h1M27 20h1M23 21h1M27 21h1M58 21h1M23 22h1M27 22h1M58 22h1M22 23h1M58 23h1M22 24h1M28 24h1M58 24h1M22 25h1M28 25h1M57 25h1M21 26h1M29 26h1M57 26h1M21 27h1M29 27h1M56 27h1M21 28h1M30 28h1M55 28h1M21 29h1M30 29h1M54 29h1M21 30h1M31 30h1M52 30h2M22 31h1M50 31h2M23 32h2M32 32h1M47 32h3M25 33h3M33 33h1M43 33h4M28 34h6M28 35h1M34 35h1M28 36h1M35 36h1M28 37h1M28 38h1M36 38h1M28 39h1M37 39h1M28 40h1M38 40h1M29 41h1M39 41h1M29 42h1M40 42h1M30 43h1M41 43h1M31 44h1M42 44h1M32 45h2M43 45h1M34 46h1M44 46h1M33 47h1M45 47h2M33 48h1M47 48h2M33 49h1M49 49h2M33 50h1M50 50h3M34 51h1M49 51h1M53 51h1M34 52h1M49 52h1M53 52h1M35 53h1M48 53h1M53 53h1M36 54h1M47 54h1M53 54h1M36 55h1M53 55h1M35 56h1M54 56h1M55 57h3M57 58h1M57 59h1M57 60h1M66 60h1M57 61h1M67 61h2M58 62h1M70 62h4M58 63h1M58 64h1M63 64h1M58 65h1M64 65h1M58 66h1M65 66h1M30 67h1M58 67h1M66 67h2M30 68h1M59 68h1M68 68h2M59 69h1M31 70h1M60 70h1M32 72h1M51 72h1M33 73h1M49 73h2M34 74h1M35 75h1M36 76h1M45 76h2M36 77h3M44 77h1M37 78h1M39 78h2M42 78h2M37 79h1M32 82h3M44 82h2M43 83h1M46 83h1M52 83h2M32 84h1M42 84h1M47 84h2M51 84h1M33 85h4M40 85h2M49 85h2M37 86h3" />
<path stroke="#948fc2" d="M33 11h1M33 12h2M33 13h3M41 13h7M34 14h4M48 14h3M34 15h5M51 15h2M36 16h4M53 16h2M36 17h3M55 17h1M54 33h1M55 34h1M55 35h1M55 36h1M55 37h1M55 38h1M55 39h1M46 40h1M48 43h1M65 56h1M59 61h1M59 62h1" />
<path stroke="#c8e9ff" d="M32 12h1M32 13h1M32 14h2M43 14h4M32 15h2M42 15h9M32 16h3M46 16h7M32 17h3M49 17h6M33 18h2M52 18h3M33 19h3M54 19h2M34 20h2M34 21h2M35 22h2M35 23h2M36 24h1M36 25h2M37 26h1M37 27h2M38 28h1M39 29h1M52 32h1M52 33h2M52 34h2M52 35h3M52 36h3M52 37h3M51 38h4M51 39h4M45 40h1M51 40h3M45 41h1M50 41h3M46 42h2M50 42h1M46 43h2M47 44h2M48 45h1M49 46h1M50 47h2M51 48h2M52 49h2M53 50h2M62 55h3M61 56h3M61 57h6M62 58h7M66 59h4M63 60h2M68 60h4M63 61h3M70 61h3M64 62h3M65 63h3M66 64h2M67 65h2M68 66h1" />
<path stroke="#d9cedb" d="M23 24h1M23 25h2M22 26h3M50 26h2M22 27h3M49 27h4M22 28h2M49 28h4M50 29h2M37 48h2M43 48h2M36 49h3M42 49h4M36 50h3M42 50h4M36 51h3M42 51h4M37 52h2M43 52h2M49 74h1M48 75h1M47 76h1M45 77h3M38 78h1M41 78h1M44 78h4M38 79h10M38 80h10M32 81h1M35 81h1M37 81h2M40 81h5M46 81h2M36 82h2M40 82h4M46 82h3M51 82h1M35 83h2M39 83h4M47 83h3M33 84h3M38 84h4M49 84h2M37 85h3" />
<path stroke="#c15974" d="M54 40h1M54 41h1M53 42h1M53 43h1M52 44h1M51 45h1M35 46h1M55 49h5M60 50h1M61 51h1M35 52h1M48 52h1M61 52h1M36 53h1M46 53h2M61 53h1M37 54h1M44 54h3M61 54h1M47 55h1M61 55h1M48 56h1M60 56h1M34 57h1M49 57h1M58 57h2M33 58h1M50 58h1M32 59h1M51 59h1M32 60h1M51 60h1M31 61h1M52 61h1M31 62h1M52 62h1M30 63h1M53 63h1M30 64h1M53 64h1M30 65h1M38 65h1M42 65h1M53 65h1M30 66h1M38 66h1M42 66h1M53 66h1M39 67h1M42 67h1M53 67h1M39 68h1M42 68h1M53 68h1M31 69h1M52 69h1M52 70h1M32 71h1M51 71h1M34 72h1M48 72h1M34 73h1M48 73h1M36 74h1M48 74h1M36 75h1M44 75h1M47 75h1M38 76h1M44 76h1M41 77h1" />
<path stroke="#f5bac2" d="M53 41h1M51 42h2M50 43h3M50 44h1M57 50h2M57 51h3M58 52h2M35 57h1M48 57h1M34 58h1M47 58h3M33 59h1M48 59h3M49 60h2M50 61h2M51 62h1M51 63h1" />
<path stroke="#e489a0" d="M30 42h2M31 43h4M49 43h1M32 44h10M51 44h1M34 45h9M36 46h8M34 47h11M34 48h3M39 48h4M45 48h2M34 49h2M39 49h3M46 49h3M34 50h2M39 50h3M46 50h4M56 50h1M59 50h1M35 51h1M39 51h3M46 51h3M56 51h1M60 51h1M36 52h1M39 52h4M45 52h3M54 52h4M60 52h1M37 53h9M54 53h7M38 54h6M54 54h7M37 55h10M54 55h7M36 56h12M55 56h5M36 57h12M35 58h12M34 59h14M33 60h16M32 61h18M32 62h19M31 63h20M52 63h1M31 64h22M31 65h7M39 65h3M43 65h10M31 66h7M39 66h3M43 66h10M31 67h8M40 67h2M43 67h10M31 68h8M40 68h2M43 68h10M32 69h20M32 70h20M33 71h18M33 72h1M35 72h13M49 72h2M35 73h13M35 74h1M37 74h11M37 75h7M45 75h2M37 76h1M39 76h5M39 77h2M42 77h2" />
<path stroke="#856d8b" d="M50 74h1M49 75h1M48 77h1M48 78h2M35 79h2M48 79h2M32 80h3M50 80h2M31 81h1M36 81h1M45 81h1M49 81h1M52 81h2M35 82h1M50 82h1M54 82h1M33 83h2M38 83h1M51 83h1M36 84h1" />
<path stroke="#b4a2b7" d="M48 76h1M37 80h1M48 80h1M39 81h1M38 82h2M37 83h1M37 84h1" />
<path stroke="#fefefe" d="M35 80h2M49 80h1M33 81h2M48 81h1M50 81h2M49 82h1M52 82h2M50 83h1" />
</svg>