<svg xmlns="http://www.w3.org/2000/svg" viewBox="0 -0.5 96 96" shape-rendering="crispEdges">
<metadata>Made with Pixels to Svg https://codepen.io/shshaw/pen/XbxvNj</metadata>
<path stroke="#356a3c" d="M36 10h1M58 10h1M37 11h1M59 11h1M37 12h1M59 12h1M38 13h1M60 13h1M38 14h1M57 14h1M60 14h1M39 15h1M60 15h1M60 16h1M60 17h1M59 18h1M59 19h1M58 20h1M58 21h1M43 44h1M72 44h2M43 45h1M74 45h1M43 46h1M75 46h1M75 47h1M76 48h1M76 49h1M56 74h1M19 75h1M56 75h1M15 76h2M20 76h1M57 76h1M12 77h3M17 77h1M58 77h1M60 77h1M63 77h4M10 78h2M15 78h2M21 78h1M60 78h2M67 78h2M9 79h1M14 79h1M62 79h1M69 79h2M8 80h1M22 80h1M71 80h1M11 81h1M54 81h1M65 81h2M72 81h1M73 83h1M60 84h1" />
<path stroke="#101010" d="M35 11h1M57 11h1M35 12h1M57 12h1M35 13h1M57 13h1M35 14h1M26 15h1M35 15h1M56 15h1M64 15h1M26 16h1M35 16h1M56 16h1M64 16h1M26 17h1M36 17h1M55 17h1M64 17h1M26 18h1M36 18h1M54 18h1M53 19h1M63 19h1M72 19h1M25 20h1M61 20h2M72 20h1M25 21h1M59 21h2M72 21h1M24 22h1M71 22h1M24 23h1M71 23h1M70 24h1M22 25h1M68 25h2M21 26h1M32 26h1M67 26h1M20 27h1M19 28h1M18 29h1M18 30h1M20 30h1M31 30h1M19 31h1M18 32h1M17 33h1M17 34h1M30 34h1M16 35h1M30 35h1M16 36h1M24 36h1M30 36h1M56 36h1M71 36h1M15 37h1M25 37h1M30 37h1M71 37h1M15 38h1M26 38h1M57 38h1M71 38h1M15 39h1M27 39h2M56 39h1M58 39h1M15 40h1M29 40h2M55 40h1M59 40h1M70 40h1M15 41h1M28 41h1M31 41h1M53 41h2M60 41h2M26 42h2M31 42h1M50 42h3M62 42h1M14 43h1M23 43h3M32 43h1M44 43h6M63 43h1M14 44h1M32 44h1M63 44h1M13 45h1M32 45h1M13 46h1M32 46h1M64 46h1M13 47h1M32 47h1M64 47h1M14 48h1M31 48h1M64 48h1M14 49h1M31 49h1M64 49h1M15 50h1M64 50h1M16 51h1M65 51h1M17 52h1M65 52h1M18 53h1M66 53h1M19 54h1M67 54h1M68 55h2M70 56h1M46 57h1M70 57h1M46 58h1M69 58h1M21 59h1M46 59h2M68 59h1M77 59h3M20 60h1M46 60h1M48 60h1M68 60h1M75 60h2M19 61h1M39 61h1M46 61h1M48 61h1M67 61h1M72 61h3M81 61h1M86 61h1M18 62h1M39 62h1M46 62h1M49 62h1M67 62h1M71 62h1M82 62h1M85 62h1M17 63h1M24 63h1M38 63h2M46 63h1M50 63h1M68 63h1M83 63h2M17 64h1M24 64h1M38 64h1M50 64h1M23 65h1M38 65h1M40 65h1M45 65h1M51 65h1M69 65h1M16 66h1M18 66h1M23 66h1M31 66h1M37 66h1M40 66h1M45 66h1M52 66h1M69 66h2M15 67h1M18 67h1M31 67h1M37 67h1M40 67h1M45 67h3M53 67h1M14 68h1M18 68h1M22 68h1M30 68h1M32 68h1M37 68h1M40 68h1M45 68h1M48 68h1M54 68h1M18 69h1M22 69h1M30 69h1M32 69h1M37 69h1M40 69h1M45 69h1M49 69h1M55 69h1M22 70h1M29 70h1M33 70h1M37 70h1M40 70h1M44 70h1M50 70h1M56 70h1M19 71h1M22 71h1M29 71h1M33 71h1M37 71h1M44 71h1M51 71h1M59 71h1M19 72h1M33 72h1M36 72h1M41 72h1M44 72h1M51 72h1M59 72h1M19 73h1M23 73h1M28 73h1M33 73h1M36 73h1M41 73h1M43 73h1M52 73h1M59 73h1M19 74h1M23 74h1M28 74h1M32 74h1M35 74h1M41 74h1M43 74h1M52 74h1M59 74h1M23 75h2M28 75h1M31 75h1M33 75h2M42 75h1M53 75h1M59 75h1M17 76h2M23 76h2M28 76h1M31 76h2M53 76h1M59 76h1M15 77h1M23 77h1M25 77h1M28 77h1M53 77h1M12 78h1M22 78h1M25 78h1M54 78h1M65 78h2M13 79h1M22 79h1M26 79h1M29 79h1M54 79h1M63 79h2M27 80h1M29 80h1M54 80h1M68 80h2M8 81h3M23 81h1M28 81h2M70 81h2M12 82h3M23 82h1M53 82h1M72 82h1M15 83h2M22 83h1M53 83h1M17 84h5M53 84h1M61 84h13M54 85h6" />
<path stroke="#47be62" d="M36 11h1M58 11h1M36 12h1M58 12h1M37 13h1M59 13h1M37 14h1M59 14h1M38 15h1M59 15h1M39 16h1M59 16h1M59 17h1M58 19h1M57 21h1M43 43h1M42 44h1M42 45h1M72 45h2M42 46h1M73 46h2M74 47h1M75 48h1M75 49h1M16 77h1M13 78h2M59 78h1M10 79h3M60 79h2M65 79h4M9 80h4M61 80h6M70 80h1M63 81h2M67 81h3M69 82h3M72 83h1" />
<path stroke="#409555" d="M36 13h1M58 13h1M36 14h1M58 14h1M36 15h2M57 15h2M36 16h3M57 16h2M37 17h1M56 17h3M55 18h4M54 19h4M53 20h5M56 21h1M66 41h1M17 42h1M42 42h1M66 42h1M16 43h1M42 43h1M66 43h2M15 44h2M66 44h2M14 45h2M67 45h1M14 46h1M68 46h1M43 47h1M68 47h1M43 48h1M19 76h1M56 76h1M18 77h3M56 77h2M17 78h4M55 78h4M62 78h3M15 79h7M55 79h5M13 80h9M55 80h6M67 80h1M12 81h11M55 81h8M15 82h8M54 82h15M17 83h5M54 83h18M54 84h6" />
<path stroke="#433568" d="M43 14h5M41 15h2M48 15h2M40 16h1M50 16h2M39 17h1M52 17h1M53 18h1M65 18h1M27 19h1M34 19h2M50 19h1M64 19h2M26 20h2M32 20h2M41 20h1M51 20h1M63 20h3M26 21h2M31 21h1M35 21h4M40 21h1M53 21h1M61 21h4M25 22h2M30 22h1M35 22h5M56 22h1M60 22h6M69 22h2M25 23h2M34 23h5M40 23h1M63 23h8M31 24h2M34 24h5M41 24h1M55 24h5M65 24h5M28 25h1M34 25h4M43 25h1M51 25h2M66 25h2M26 26h1M31 26h1M33 26h5M40 26h1M63 26h1M22 27h1M29 27h3M33 27h5M39 27h5M58 27h4M64 27h2M20 28h1M27 28h4M33 28h5M39 28h9M50 28h6M57 28h7M66 28h1M19 29h1M26 29h5M32 29h6M39 29h11M53 29h3M57 29h9M23 30h1M25 30h6M32 30h6M39 30h14M56 30h12M20 31h2M24 31h4M29 31h2M32 31h6M39 31h2M42 31h13M56 31h13M19 32h4M24 32h4M29 32h1M32 32h6M39 32h2M42 32h3M46 32h9M56 32h13M18 33h5M24 33h3M28 33h2M31 33h7M39 33h2M42 33h3M46 33h9M56 33h13M18 34h5M24 34h3M28 34h2M31 34h7M40 34h2M43 34h3M47 34h8M56 34h10M67 34h3M17 35h7M25 35h2M28 35h2M31 35h8M40 35h2M43 35h3M47 35h9M57 35h9M67 35h3M17 36h7M25 36h2M28 36h2M31 36h8M40 36h3M44 36h3M48 36h8M57 36h4M62 36h4M67 36h3M16 37h9M26 37h1M28 37h2M31 37h8M41 37h2M44 37h4M49 37h8M58 37h4M63 37h3M67 37h3M16 38h10M28 38h2M31 38h9M41 38h3M45 38h3M49 38h7M58 38h5M64 38h2M67 38h3M16 39h1M18 39h9M29 39h1M32 39h8M42 39h2M46 39h3M50 39h4M59 39h5M65 39h4M17 40h12M32 40h9M42 40h3M46 40h4M51 40h2M61 40h8M16 41h10M32 41h10M43 41h3M47 41h4M62 41h4M67 41h2M16 42h1M18 42h6M32 42h10M44 42h3M48 42h2M63 42h3M67 42h2M15 43h1M17 43h5M33 43h9M64 43h2M68 43h2M17 44h4M33 44h9M64 44h2M68 44h3M16 45h4M33 45h9M65 45h2M68 45h4M15 46h5M33 46h9M65 46h3M69 46h3M14 47h6M33 47h1M35 47h7M65 47h3M69 47h4M15 48h6M32 48h2M35 48h7M65 48h9M15 49h7M32 49h2M35 49h7M65 49h10M16 50h8M31 50h3M35 50h7M46 50h3M65 50h10M17 51h7M31 51h3M35 51h8M49 51h1M66 51h9M18 52h4M26 52h3M30 52h3M34 52h13M66 52h9M19 53h2M23 53h10M34 53h4M39 53h11M67 53h8M21 54h8M30 54h3M34 54h2M38 54h14M68 54h7M20 55h10M31 55h1M33 55h2M37 55h9M47 55h6M54 55h2M70 55h6M78 55h1M19 56h4M24 56h8M33 56h13M47 56h7M56 56h1M71 56h6M81 56h1M19 57h3M24 57h2M27 57h4M32 57h14M47 57h7M57 57h1M72 57h6M18 58h3M23 58h3M27 58h12M40 58h6M48 58h6M58 58h1M70 58h2M74 58h7M18 59h3M23 59h3M27 59h12M40 59h6M48 59h7M58 59h1M69 59h8M81 59h1M17 60h3M23 60h7M31 60h8M40 60h6M49 60h6M69 60h6M82 60h1M17 61h2M23 61h2M26 61h4M31 61h8M40 61h6M50 61h5M68 61h2M82 61h1M16 62h2M23 62h2M26 62h4M31 62h8M40 62h6M50 62h5M56 62h1M68 62h1M83 62h2M16 63h1M22 63h2M25 63h5M31 63h7M40 63h6M51 63h4M56 63h2M69 63h1M16 64h1M21 64h2M25 64h13M41 64h4M52 64h3M56 64h3M70 64h1M15 65h1M21 65h1M24 65h7M32 65h6M41 65h4M52 65h4M57 65h3M70 65h1M15 66h1M19 66h3M24 66h7M32 66h5M41 66h4M53 66h3M57 66h3M19 67h2M24 67h7M33 67h4M41 67h4M54 67h2M57 67h3M19 68h2M23 68h7M33 68h4M41 68h4M55 68h2M58 68h2M19 69h1M23 69h7M33 69h4M41 69h4M56 69h1M58 69h2M23 70h6M34 70h3M41 70h3M58 70h1M23 71h6M34 71h3M42 71h2M56 71h2M24 72h4M34 72h2M42 72h2M57 72h1M24 73h4M34 73h2M42 73h1M57 73h1M24 74h4M33 74h2M42 74h1M57 74h1M25 75h3M32 75h1M25 76h3M26 77h2M26 78h2M27 79h2M28 80h1" />
<path stroke="#2f184e" d="M27 15h1M65 15h1M28 16h1M66 16h1M28 17h1M66 17h1M29 18h1M64 18h1M67 18h1M26 19h1M29 19h1M67 19h1M71 19h1M29 20h1M35 20h1M67 20h1M69 20h2M29 21h1M34 21h1M65 21h4M34 22h1M59 22h1M27 23h1M33 23h1M61 23h2M24 24h3M33 24h1M39 24h1M63 24h2M23 25h1M32 25h1M39 25h1M65 25h1M30 26h1M41 26h1M58 26h5M66 26h1M28 27h1M32 27h1M44 27h13M63 27h1M67 27h1M26 28h1M56 28h1M65 28h1M68 28h1M23 29h2M31 29h1M66 29h2M69 29h1M21 30h1M68 30h2M31 31h1M69 31h2M70 32h1M23 33h1M30 33h1M70 33h1M23 34h1M71 34h1M24 35h1M56 35h1M71 35h1M57 37h1M30 38h1M40 38h1M17 39h1M70 39h1M16 40h1M31 40h1M41 40h1M42 41h1M70 41h1M15 42h1M43 42h1M71 42h1M71 43h1M21 44h3M20 45h1M23 45h1M64 45h1M24 46h1M24 47h1M24 48h1M24 49h1M24 50h1M27 50h4M76 50h1M24 51h3M30 51h1M76 51h1M22 52h2M29 52h1M76 52h4M21 53h1M75 53h1M80 53h1M20 54h1M75 54h1M81 54h1M19 55h1M79 55h3M18 56h1M46 56h1M54 56h1M82 56h1M18 57h1M23 57h1M54 57h1M71 57h1M83 57h1M17 58h1M22 58h1M47 58h1M54 58h1M72 58h2M84 58h1M17 59h1M22 59h1M39 59h1M55 59h1M80 59h1M84 59h1M16 60h1M21 60h1M39 60h1M55 60h1M81 60h1M84 60h3M16 61h1M20 61h1M25 61h1M55 61h1M71 61h1M15 62h1M20 62h1M25 62h1M30 62h1M55 62h1M70 62h1M15 63h1M19 63h1M30 63h1M55 63h1M60 63h1M72 63h1M15 64h1M19 64h1M23 64h1M40 64h1M45 64h1M60 64h1M69 64h1M72 64h1M14 65h1M16 65h1M19 65h1M22 65h1M31 65h1M56 65h1M60 65h1M71 65h1M14 66h1M22 66h1M56 66h1M60 66h1M14 67h1M21 67h3M32 67h1M56 67h1M60 67h1M21 68h1M57 68h1M60 68h1M21 69h1M57 69h1M60 69h1M19 70h1M21 70h1M57 70h1M59 70h1M21 71h1M41 71h1M21 72h3M28 72h1M20 73h3M20 74h3M20 75h3M21 76h2M21 77h2M59 77h1M28 78h1" />
<path stroke="#5d4694" d="M43 15h5M27 16h1M41 16h9M65 16h1M27 17h1M40 17h12M65 17h1M27 18h2M38 18h15M66 18h1M28 19h1M37 19h13M51 19h2M66 19h1M28 20h1M34 20h1M36 20h5M42 20h9M66 20h1M71 20h1M28 21h1M32 21h2M39 21h1M41 21h12M69 21h3M27 22h2M31 22h3M41 22h15M66 22h3M29 23h4M41 23h19M27 24h4M42 24h13M60 24h3M24 25h4M44 25h7M62 25h3M22 26h4M64 26h2M21 27h1M66 27h1M67 28h1M68 29h1M69 32h1M69 33h1M70 34h1M70 35h1M70 36h1M70 37h1M56 38h1M70 38h1M54 39h2M69 39h1M53 40h2M69 40h1M26 41h2M52 41h1M69 41h1M24 42h2M69 42h2M22 43h1M70 43h1M71 44h1M21 45h2M20 46h4M72 46h1M20 47h4M42 47h1M73 47h1M21 48h3M42 48h1M74 48h1M22 49h2M42 49h2M42 50h4M75 50h1M27 51h3M43 51h6M75 51h1M24 52h2M47 52h4M75 52h1M22 53h1M50 53h2M77 53h3M52 54h1M76 54h5M76 55h2M55 56h1M77 56h4M55 57h2M78 57h5M55 58h3M81 58h3M56 59h2M82 59h2M22 60h1M56 60h3M83 60h1M21 61h2M56 61h3M70 61h1M83 61h3M21 62h2M57 62h2M69 62h1M20 63h2M58 63h2M70 63h2M20 64h1M59 64h1M71 64h1M20 65h1M58 71h1M58 72h1M58 73h1M58 74h1M58 75h1M58 76h1" />
<path stroke="#352954" d="M38 17h1M37 18h1M36 19h1M52 20h1M54 21h2M29 22h1M40 22h1M57 22h2M28 23h1M39 23h1M60 23h1M40 24h1M29 25h3M33 25h1M38 25h1M40 25h3M53 25h9M27 26h3M38 26h2M42 26h16M23 27h5M38 27h1M57 27h1M62 27h1M21 28h5M31 28h2M38 28h1M48 28h2M64 28h1M20 29h3M25 29h1M38 29h1M50 29h3M56 29h1M19 30h1M22 30h1M24 30h1M38 30h1M53 30h3M22 31h2M28 31h1M38 31h1M41 31h1M55 31h1M23 32h1M28 32h1M30 32h2M38 32h1M41 32h1M45 32h1M55 32h1M27 33h1M38 33h1M41 33h1M45 33h1M55 33h1M27 34h1M38 34h2M42 34h1M46 34h1M55 34h1M66 34h1M27 35h1M39 35h1M42 35h1M46 35h1M66 35h1M27 36h1M39 36h1M43 36h1M47 36h1M61 36h1M66 36h1M27 37h1M39 37h2M43 37h1M48 37h1M62 37h1M66 37h1M27 38h1M44 38h1M48 38h1M63 38h1M66 38h1M30 39h2M40 39h2M44 39h2M49 39h1M64 39h1M45 40h1M50 40h1M60 40h1M46 41h1M51 41h1M47 42h1M34 47h1M34 48h1M34 49h1M44 49h2M34 50h1M34 51h1M50 51h1M33 52h1M51 52h1M33 53h1M38 53h1M52 53h1M76 53h1M29 54h1M33 54h1M36 54h2M53 54h1M30 55h1M32 55h1M35 55h2M46 55h1M53 55h1M23 56h1M32 56h1M22 57h1M26 57h1M31 57h1M21 58h1M26 58h1M39 58h1M26 59h1M30 60h1M47 60h1M59 60h1M30 61h1M47 61h1M49 61h1M59 61h1M47 62h2M59 62h1M47 63h3M46 64h4M51 64h1M55 64h1M46 65h5M46 66h6M48 67h5M49 68h5M20 69h1M50 69h5M20 70h1M51 70h5M20 71h1M52 71h4M20 72h1M52 72h5M53 73h4M53 74h3M54 75h2M57 75h1M54 76h2M54 77h2" />
</svg>