<svg xmlns="http://www.w3.org/2000/svg" viewBox="0 -0.5 96 96" shape-rendering="crispEdges">
<metadata>Made with Pixels to Svg https://codepen.io/shshaw/pen/XbxvNj</metadata>
<path stroke="#1b2627" d="M37 11h6M51 11h1M43 12h3M52 12h2M46 13h3M54 13h2M49 14h2M56 14h1M60 14h1M51 15h1M57 15h1M61 15h1M41 16h1M52 16h1M58 16h1M62 16h1M59 17h1M63 17h1M64 18h1M65 19h1M67 19h2M53 20h5M65 20h1M67 20h1M69 20h1M51 21h1M59 21h2M66 21h1M69 21h1M50 22h1M62 22h2M66 22h1M70 22h1M49 23h1M64 23h1M70 23h1M48 24h1M71 24h1M71 25h1M47 26h1M72 26h1M31 27h12M47 27h1M72 27h1M47 28h1M72 28h1M68 29h3M72 29h1M71 30h2M72 31h2M74 32h1M75 33h1M60 34h1M76 34h1M61 35h1M76 35h1M61 36h1M62 37h1M62 38h1M57 43h1M57 44h1M58 45h1M59 47h1M62 50h1M26 56h2M52 56h2M23 57h3M54 57h2M56 58h2M58 59h1M35 60h1M59 60h1M34 61h1M60 61h1M61 62h1M62 63h1M62 64h1M62 65h1" />
<path stroke="#010101" d="M50 11h1M37 12h1M50 12h1M38 13h1M50 13h1M39 14h1M59 14h1M40 15h1M59 15h1M39 16h2M59 16h1M37 17h2M35 18h2M34 19h1M33 20h1M32 21h1M31 22h1M30 23h1M30 24h1M57 24h1M26 25h1M29 25h1M55 25h3M26 26h1M29 26h1M53 26h2M66 26h1M25 27h1M28 27h1M52 27h1M66 27h1M25 28h1M28 28h2M44 28h3M51 28h1M67 28h1M25 29h1M27 29h1M48 29h2M51 29h1M67 29h1M26 30h1M51 30h2M67 30h1M25 31h1M66 31h1M71 31h1M25 32h1M64 32h2M24 33h1M57 33h7M24 34h1M57 34h1M68 34h2M24 35h1M58 35h1M70 35h2M23 36h1M58 36h1M72 36h4M23 37h1M58 37h1M23 38h1M58 38h1M63 38h2M23 39h1M58 39h1M63 39h1M65 39h2M23 40h1M58 40h1M63 40h1M67 40h2M24 41h1M57 41h1M64 41h1M69 41h3M24 42h1M57 42h1M64 42h1M24 43h1M56 43h1M65 43h1M25 44h1M55 44h2M65 44h1M25 45h1M54 45h1M57 45h1M66 45h1M26 46h1M53 46h1M55 46h1M58 46h1M66 46h1M69 46h1M26 47h1M52 47h1M55 47h1M67 47h1M69 47h1M27 48h1M52 48h1M55 48h2M59 48h1M67 48h1M69 48h1M27 49h1M51 49h1M54 49h1M57 49h1M60 49h1M68 49h1M28 50h1M51 50h3M58 50h1M61 50h1M66 50h1M68 50h1M28 51h1M51 51h1M59 51h1M63 51h3M67 51h1M28 52h1M60 52h1M66 52h1M27 53h1M31 53h1M35 53h2M40 53h2M61 53h2M65 53h1M26 54h1M29 54h2M32 54h1M34 54h1M37 54h1M39 54h1M42 54h1M46 54h2M51 54h1M63 54h3M25 55h4M32 55h2M37 55h2M43 55h2M46 55h1M48 55h2M51 55h1M45 56h2M50 56h2M23 58h1M24 59h2M26 60h3M36 60h3M29 61h5M39 61h4M31 62h1M43 62h3M30 63h1M46 63h2M29 64h1M48 64h2M28 65h1M50 65h3M27 66h1M51 66h1M26 67h1M50 67h1M25 68h1M49 68h1M25 69h1M48 69h1M24 70h1M48 70h1M24 71h1M47 71h1M24 72h1M47 72h1M64 72h1M24 73h1M47 73h1M64 73h1M24 74h1M38 74h1M48 74h1M24 75h1M37 75h1M48 75h1M63 75h1M24 76h1M36 76h1M49 76h1M62 76h1M23 77h1M35 77h1M49 77h1M62 77h1M23 78h1M49 78h1M22 79h1M24 79h2M32 79h1M34 79h1M48 79h1M61 79h3M22 80h2M25 80h1M27 80h2M31 80h1M33 80h2M36 80h1M48 80h1M53 80h2M59 80h3M25 81h2M29 81h2M34 81h2M47 81h1M49 81h2M52 81h1M55 81h2M64 81h3M26 82h1M32 82h2M47 82h3M51 82h1M57 82h3M62 82h2M27 83h5M49 83h1M59 83h3M50 84h9" />
<path stroke="#474749" d="M38 12h5M51 12h1M42 13h4M52 13h2M45 14h4M53 14h3M48 15h3M55 15h2M60 15h1M50 16h2M56 16h2M60 16h2M52 17h1M58 17h1M61 17h2M53 18h1M59 18h1M61 18h3M62 19h2M63 20h2M68 20h1M64 21h2M67 21h2M65 22h1M67 22h3M66 23h4M68 24h3M70 25h1M71 26h1M67 27h1M68 28h2M71 29h1M68 30h1M67 31h2M66 32h1M69 32h1M73 32h1M66 33h2M70 33h5M58 34h2M67 34h1M73 34h1M75 34h1M59 35h2M67 35h1M72 35h2M75 35h1M59 36h2M68 36h1M59 37h3M68 37h1M60 38h2M69 38h1M62 39h1M70 39h1M71 40h1M55 58h1M56 59h2M57 60h2M58 61h2M60 62h1M61 63h1" />
<path stroke="#303034" d="M39 13h3M51 13h1M40 14h5M51 14h2M41 15h7M52 15h3M42 16h8M53 16h3M39 17h13M53 17h5M60 17h1M37 18h16M54 18h5M60 18h1M35 19h27M64 19h1M34 20h19M58 20h5M33 21h18M61 21h3M32 22h18M54 22h1M64 22h1M31 23h18M54 23h2M65 23h1M31 24h17M53 24h4M67 24h1M30 25h18M50 25h1M52 25h3M69 25h1M30 26h17M50 26h3M70 26h1M29 27h2M43 27h4M50 27h2M71 27h1M50 28h1M50 29h1M59 38h1M59 39h3M59 40h4M58 41h6M58 42h6M58 43h7M58 44h7M59 45h7M59 46h7M60 47h7M60 48h7M61 49h6M63 50h3M31 54h1M35 54h2M40 54h2M29 55h3M34 55h3M39 55h4M47 55h1M28 56h17M47 56h3M26 57h28M24 58h31M26 59h30M29 60h6M39 60h18M43 61h15M32 62h3M46 62h14M31 63h5M48 63h13M30 64h6M50 64h12M30 65h7M53 65h9M33 66h4M58 66h4M36 67h1M60 67h2M32 80h1M62 80h1M27 81h2M31 81h3M53 81h2M60 81h3M27 82h5M50 82h1M52 82h5M60 82h2M50 83h9" />
<path stroke="#6f7071" d="M52 21h1M58 21h1M56 23h1M27 25h1M48 25h1M51 25h1M27 26h2M26 27h2M53 27h2M26 28h2M31 28h12M49 28h1M52 28h4M26 29h1M29 29h17M52 29h6M27 30h20M54 30h7M66 30h1M26 31h16M52 31h14M26 32h8M36 32h3M47 32h2M51 32h4M57 32h7M25 33h9M45 33h12M27 34h6M43 34h14M29 35h2M42 35h16M69 35h1M40 36h18M71 36h1M24 37h1M38 37h20M73 37h1M24 38h1M36 38h22M24 39h3M35 39h23M24 40h3M36 40h22M25 41h2M39 41h18M25 42h1M39 42h18M25 43h1M30 43h2M39 43h17M29 44h5M40 44h15M66 44h1M29 45h6M41 45h13M56 45h1M28 46h9M42 46h11M54 46h1M56 46h2M67 46h1M28 47h10M43 47h9M53 47h2M56 47h2M28 48h12M44 48h8M53 48h2M57 48h2M28 49h14M45 49h6M52 49h2M58 49h2M29 50h22M59 50h2M67 50h1M29 51h21M60 51h3M66 51h1M29 52h7M37 52h13M61 52h1M63 52h3M28 53h3M33 53h2M37 53h3M42 53h4M47 53h2M63 53h2M27 54h2M33 54h1M38 54h1M43 54h3M48 54h2M45 55h1M50 55h1M35 62h1M37 62h4M39 63h1M36 64h1M39 64h1M39 65h1M28 66h2M27 67h6M38 67h1M51 67h7M26 68h9M38 68h1M50 68h10M26 69h10M49 69h12M25 70h12M49 70h13M25 71h13M48 71h15M25 72h13M48 72h15M25 73h13M48 73h15M25 74h12M49 74h14M25 75h12M49 75h14M25 76h11M50 76h12M24 77h11M50 77h12M24 78h1M26 78h8M50 78h11M23 79h1M26 79h6M33 79h1M49 79h4M54 79h3M58 79h3M26 80h1M29 80h2M49 80h1M51 80h2M55 80h3M48 81h1M51 81h1M57 81h2" />
<path stroke="#b2b3b2" d="M53 21h5M51 22h3M55 22h4M50 23h4M49 24h4M66 24h1M49 25h1M68 25h1M48 26h2M48 27h2M48 28h1M68 32h1M64 33h2M69 33h1M61 34h6M72 34h1M62 35h5M62 36h6M63 37h5M65 38h4M67 39h3M69 40h2M35 61h4M36 62h1M36 63h2M37 64h1M37 65h1M38 66h1" />
<path stroke="#463f39" d="M59 22h3M28 23h1M57 23h3M62 23h2M27 24h1M29 24h1M60 24h1M64 24h1M58 25h1M61 25h1M65 25h1M58 26h1M30 28h1M43 28h1M28 29h1M47 29h1M50 30h1M53 30h1M42 31h1M35 32h1M39 32h1M46 32h1M55 32h2M44 33h1M26 34h1M28 35h1M31 35h1M41 35h1M30 36h1M39 36h1M37 37h1M26 38h1M34 39h1M27 40h1M35 40h1M64 40h1M36 41h1M65 41h1M26 42h1M30 42h1M66 42h1M67 43h1M68 44h1M28 45h1M35 45h1M55 45h1M68 45h1M38 47h1M58 47h1M40 48h1M42 49h1M67 49h1M36 52h1M52 52h1M62 52h1M32 53h1M46 53h1M52 53h1M53 54h1M54 55h1M55 56h1M56 57h1M29 65h1M30 66h3M52 66h6M62 66h2M33 67h3M58 67h2M63 67h1M36 68h2M60 68h2M63 68h1M38 69h1M64 69h1M39 70h1M64 70h1M39 71h1M64 71h1M39 72h1M38 73h1M63 74h1M25 78h1M34 78h3M61 78h1M63 78h1M37 79h1M53 79h1M57 79h1M64 79h2M35 80h1M37 80h1M50 80h1M58 80h1M63 80h1M66 80h1M59 81h1M63 81h1" />
<path stroke="#949496" d="M60 23h2M28 24h1M58 24h2M61 24h3M28 25h1M59 25h2M62 25h3M55 26h3M59 26h7M55 27h11M56 28h11M46 29h1M58 29h9M47 30h3M61 30h5M48 31h4M49 32h2M65 42h1M66 43h1M67 44h1M67 45h1M68 46h1M68 47h1M68 48h1M50 51h1M50 52h2M49 53h3M50 54h1M52 54h1M52 55h2M54 56h1M62 67h1M35 68h1M62 68h1M36 69h2M61 69h3M37 70h2M62 70h2M38 71h1M63 71h1M38 72h1M63 72h1M63 73h1M37 74h1M62 78h1M35 79h2M64 80h2" />
<path stroke="#f5f5f6" d="M65 24h1M66 25h2M67 26h3M68 27h3M70 28h2M67 32h1M68 33h1M70 34h2M74 34h1M74 35h1M38 63h1M38 64h1M38 65h1M37 66h1M37 67h1" />
<path stroke="#9b4f69" d="M69 30h1M69 31h1M70 32h1M69 36h1M69 37h3M70 38h1M73 38h1M71 39h1M74 39h1M72 40h1M75 40h1M72 41h1M75 41h1M73 42h1M76 42h1M73 43h1M76 43h1M73 44h1M76 44h1M74 45h1M76 45h1M75 46h1" />
<path stroke="#df84ad" d="M70 30h1M70 31h1M71 32h2M71 38h2M72 39h2M73 40h2M73 41h2M74 42h2M74 43h2M74 44h2M75 45h1" />
<path stroke="#2b2d2e" d="M43 31h5M34 32h1M40 32h6M34 33h10M25 34h1M33 34h10M25 35h3M32 35h9M24 36h6M31 36h8M25 37h12M25 38h1M27 38h9M27 39h7M28 40h7M27 41h9M37 41h2M27 42h3M31 42h8M26 43h4M32 43h7M26 44h3M34 44h6M26 45h2M36 45h5M27 46h1M37 46h5M27 47h1M39 47h4M41 48h3M43 49h2" />
<path stroke="#fcfcfc" d="M68 35h1M70 36h1M72 37h1" />
</svg>