<svg xmlns="http://www.w3.org/2000/svg" viewBox="0 -0.5 96 96" shape-rendering="crispEdges">
<metadata>Made with Pixels to Svg https://codepen.io/shshaw/pen/XbxvNj</metadata>
<path stroke="#7b8b9b" d="M50 35h2M49 36h1M52 36h1M41 37h2M49 37h1M53 37h1M40 38h1M43 38h2M48 38h1M53 38h1M40 39h1M45 39h1M48 39h1M54 39h1M39 40h1M46 40h2M54 40h1M39 41h1M47 41h1M55 41h1M39 42h1M48 42h1M55 42h6M34 43h5M56 43h1M61 43h1M38 44h1M50 44h5M61 44h1M37 45h3M48 45h2M55 45h1M60 45h1M40 46h2M55 46h1M60 46h1M55 47h1M59 47h1M32 48h4M42 48h3M54 48h2M59 48h1M45 49h2M55 49h1M58 49h1M47 50h1M57 50h2M35 52h3M50 52h2M39 53h1M43 53h1M51 53h2M53 54h1M60 55h1M47 57h2M38 58h1" />
<path stroke="#d8e9f0" d="M50 36h1M50 37h1M41 38h1M49 38h3M41 39h2M49 39h5M40 40h5M48 40h6M40 41h5M52 41h3M40 42h2M39 43h1M60 43h1M34 44h1M37 44h1M59 44h2M34 45h3M51 45h1M53 45h1M35 46h1M35 47h1M32 49h3M43 49h1M32 50h3M46 50h1M33 51h2M58 51h1M34 52h1M59 52h1M35 53h1M35 54h1M52 54h1M33 55h2M36 55h1M53 55h1M33 56h2M36 56h2M56 56h2M35 57h1M37 57h2M50 57h2M39 58h1M43 58h2" />
<path stroke="#f5fdff" d="M51 36h1M51 37h2M42 38h1M52 38h1M43 39h2M45 40h1M58 43h2M35 44h2M52 45h1M44 49h1M45 50h1" />
<path stroke="#acc3cc" d="M45 41h2M48 41h4M42 42h6M49 42h6M40 43h16M57 43h1M39 44h11M55 44h4M40 45h8M50 45h1M54 45h1M56 45h4M37 46h3M42 46h13M56 46h4M37 47h18M56 47h3M37 48h5M45 48h9M56 48h3M35 49h1M37 49h4M42 49h1M47 49h8M56 49h2M35 50h2M38 50h3M42 50h3M48 50h9M35 51h2M38 51h4M43 51h15M39 52h3M43 52h7M52 52h7M36 53h3M40 53h3M44 53h7M53 53h8M36 54h16M54 54h7M37 55h16M55 55h5M38 56h16M55 56h1M39 57h8M49 57h1M52 57h2M40 58h3" />
<path stroke="#101010" d="M33 44h1M33 45h1M34 46h1M36 46h1M34 47h1M36 47h1M36 48h1M31 49h1M36 49h1M41 49h1M31 50h1M37 50h1M41 50h1M32 51h1M37 51h1M42 51h1M59 51h1M33 52h1M38 52h1M42 52h1M60 52h1M63 52h1M34 53h1M61 53h2M33 54h2M61 54h1M32 55h1M35 55h1M54 55h1M61 55h1M32 56h1M35 56h1M54 56h1M58 56h3M33 57h2M36 57h1M54 57h4M35 58h3M45 58h9M39 59h6" />
<path stroke="#695e77" d="M60 47h1M60 48h2M62 49h1M63 50h1M63 51h1" />
<path stroke="#edeae0" d="M59 49h3M59 50h4M60 51h2" />
<path stroke="#b3a7c2" d="M62 51h1M61 52h2" />
</svg>