<svg xmlns="http://www.w3.org/2000/svg" viewBox="0 -0.5 96 96" shape-rendering="crispEdges">
<metadata>Made with Pixels to Svg https://codepen.io/shshaw/pen/XbxvNj</metadata>
<path stroke="#8a5e48" d="M56 27h2M54 28h2M53 29h1M52 30h1M52 31h1M51 32h1M51 33h1M46 34h6M51 35h2M55 35h3M55 37h1M56 38h1M56 39h1M57 40h1M57 41h1M57 42h1M58 43h1M58 44h1M58 45h1M58 46h1M58 47h1M58 48h1M58 49h1M58 50h1M59 52h1M57 53h1M59 53h1M58 54h1M60 54h1M58 55h1M60 55h1M60 56h1M60 57h1M40 65h1M55 65h3M41 66h3M51 66h2M58 66h1" />
<path stroke="#101010" d="M58 27h1M36 28h1M58 28h1M36 29h1M58 29h1M36 30h1M58 30h1M36 31h1M58 31h1M37 32h1M57 32h1M37 33h1M57 33h1M38 34h1M56 34h1M39 35h1M58 36h1M36 37h1M57 37h1M37 38h1M38 39h1M38 40h1M37 41h1M37 42h1M37 43h1M36 44h1M36 45h1M36 46h1M36 47h1M36 48h1M36 49h1M36 50h1M36 51h1M36 52h1M35 53h1M35 54h1M35 55h1M35 56h1M59 56h1M35 57h1M59 57h1M35 58h1M60 58h1M35 59h1M60 59h1M35 60h1M59 60h1M36 61h1M59 61h1M36 62h1M58 62h1M37 63h1M58 63h1M38 64h1M57 64h1M39 65h1M39 66h1M44 66h7M39 67h1M45 67h1M51 67h1M56 67h2M40 68h5M52 68h4" />
<path stroke="#383634" d="M37 28h2M39 29h2M41 30h1M42 31h1M42 32h1M43 33h1M43 34h1M45 34h1M43 35h2M37 36h3M41 36h2M40 37h1M39 38h1" />
<path stroke="#af7044" d="M56 28h2M54 29h4M53 30h5M53 31h5M52 32h5M52 33h5M52 34h4M53 35h2M49 36h7M44 37h11M56 37h1M43 38h12M43 39h12M44 40h12M45 41h11M45 42h11M44 43h13M43 44h14M42 45h15M42 46h15M43 47h14M43 48h14M42 49h15M44 50h13M46 51h11M58 51h1M46 52h11M45 53h12M44 54h14M44 55h14M43 56h16M44 57h15M45 58h15M45 59h14M44 60h13M44 61h10" />
<path stroke="#4f4b47" d="M37 29h1M37 30h2M37 31h2M38 32h2M38 33h2M39 34h2M40 35h2M45 35h1M40 36h1M44 36h1M37 37h3M41 37h3M38 38h1M40 38h3M39 39h4M39 40h5M38 41h7M38 42h7M38 43h6M37 44h6M37 45h5M37 46h5M37 47h6M37 48h6M37 49h5M37 50h5M37 51h5M37 52h4M36 53h5M36 54h5M36 55h4M36 56h4M36 57h4M36 58h5M36 59h6M36 60h5M37 61h3" />
<path stroke="#6c6c6c" d="M38 29h1M39 30h2M39 31h3M40 32h2M40 33h3M41 34h2M42 35h1M43 36h1" />
<path stroke="#cf9c66" d="M46 35h5M45 36h4M56 36h2M55 38h1M55 39h1M56 40h1M56 41h1M56 42h1M57 43h1M57 44h1M57 45h1M57 46h1M57 47h1M57 48h1M57 49h1M57 50h1M57 51h1M57 52h2M58 53h1M59 54h1M59 55h1" />
<path stroke="#d3b351" d="M42 50h2M42 51h4M41 52h5M41 53h4M41 54h3M40 55h4M40 56h3M40 57h4M41 58h4M42 59h3M59 59h1M41 60h3M57 60h2M40 61h4M54 61h5M37 62h21M38 63h20M39 64h18M41 65h14M40 66h1M53 66h3M40 67h5M52 67h4" />
<path stroke="#f4f489" d="M56 66h2" />
</svg>