<svg xmlns="http://www.w3.org/2000/svg" viewBox="0 -0.5 96 96" shape-rendering="crispEdges">
<metadata>Made with Pixels to Svg https://codepen.io/shshaw/pen/XbxvNj</metadata>
<path stroke="#172f26" d="M54 13h4M67 13h2M51 14h3M58 14h2M67 14h1M69 14h3M46 15h5M54 15h1M57 15h6M69 15h1M72 15h2M44 16h2M51 16h1M63 16h2M71 16h1M74 16h2M46 17h1M51 17h1M57 17h1M65 17h1M73 17h1M76 17h1M47 18h1M52 18h1M59 18h2M64 18h2M73 18h1M76 18h1M47 19h1M52 19h1M62 19h1M73 19h1M27 20h4M42 20h6M52 20h1M62 20h1M72 20h1M26 21h1M71 21h1M70 22h1M25 28h2M23 29h2M22 30h1M26 30h2M76 30h1M21 31h1M77 31h1M20 32h1M78 32h1M19 33h1M79 33h1M18 34h1M80 34h1M80 35h1M65 36h1M81 36h1M77 37h1M81 37h1M77 38h4M76 39h1M69 40h1M69 41h1M65 42h1M78 42h1M69 43h1M75 43h1M78 43h1M69 44h1M79 44h1M69 45h1M76 45h1M79 45h1M69 46h1M76 46h1M80 46h1M69 47h1M80 47h1M69 48h1M77 48h1M80 48h1M69 49h1M77 49h1M81 49h1M69 50h1M77 50h1M81 50h1M68 51h1M77 51h1M81 51h1M68 52h1M77 52h1M82 52h1M20 53h1M68 53h1M77 53h1M82 53h1M68 54h1M77 54h1M82 54h1M32 55h1M47 55h1M68 55h1M82 55h1M21 56h1M32 56h1M47 56h1M67 56h1M76 56h1M83 56h1M32 57h1M67 57h1M76 57h1M83 57h1M22 58h1M61 58h1M67 58h1M76 58h1M83 58h1M46 59h1M67 59h1M83 59h1M67 60h1M67 61h1M67 62h1M47 63h5M67 63h1M82 63h1M47 64h5M68 64h1M47 65h5M68 65h1M47 66h5M68 66h1M47 67h5M47 68h4M47 69h4M47 70h4M47 71h4M47 72h4M47 73h4" />
<path stroke="#181818" d="M66 13h1M65 14h1M64 15h1M43 16h1M56 16h1M43 17h1M55 17h1M42 18h1M55 18h1M66 18h1M42 19h1M54 19h1M66 19h1M77 19h1M54 20h1M66 20h1M77 20h1M24 21h2M67 21h1M77 21h1M22 22h1M67 22h1M77 22h1M21 23h1M67 23h1M76 23h1M21 24h1M76 24h1M20 25h1M75 25h1M20 26h1M75 26h1M20 27h1M74 27h1M20 28h1M19 29h1M19 30h1M19 31h1M24 31h2M19 32h1M22 32h2M65 32h1M21 33h1M65 33h1M20 34h1M65 34h1M19 35h1M65 35h1M19 36h1M19 37h1M64 37h1M19 38h1M64 38h1M83 38h1M12 39h1M19 39h1M64 39h1M83 39h1M13 40h1M19 40h1M64 40h1M76 40h1M81 40h2M14 41h1M19 41h1M64 41h1M70 41h2M75 41h6M15 42h2M19 42h1M64 42h1M69 42h1M72 42h3M17 43h2M65 43h1M68 43h1M18 44h1M66 44h2M18 45h1M18 46h1M18 47h1M19 48h1M19 49h1M19 50h1M19 51h1M19 52h1M20 54h1M20 55h1M21 57h1M47 57h1M21 58h1M33 58h1M47 58h1M70 58h1M21 59h1M33 59h1M60 59h1M69 59h1M21 60h1M34 60h1M46 60h1M58 60h2M69 60h1M83 60h1M21 61h1M26 61h2M34 61h1M46 61h1M55 61h3M69 61h1M83 61h1M20 62h1M28 62h3M34 62h1M46 62h10M57 62h1M69 62h1M83 62h1M20 63h1M31 63h4M46 63h1M52 63h1M55 63h1M58 63h1M70 63h1M20 64h1M31 64h1M34 64h1M46 64h1M52 64h1M55 64h1M58 64h1M70 64h1M82 64h1M20 65h1M31 65h1M34 65h1M46 65h1M52 65h1M55 65h1M58 65h1M82 65h1M20 66h1M30 66h1M34 66h1M46 66h1M52 66h1M56 66h1M58 66h1M81 66h1M20 67h1M30 67h1M34 67h1M46 67h1M56 67h1M58 67h1M81 67h1M20 68h1M30 68h1M34 68h1M46 68h1M57 68h2M80 68h1M19 69h1M30 69h1M34 69h1M46 69h1M57 69h2M79 69h1M19 70h1M30 70h1M34 70h1M46 70h1M58 70h1M70 70h1M77 70h2M19 71h1M30 71h1M34 71h1M46 71h1M58 71h1M71 71h6M19 72h1M30 72h1M34 72h1M46 72h1M58 72h1M19 73h1M30 73h1M34 73h1M46 73h1M51 73h2M58 73h1M19 74h1M31 74h1M33 74h1M47 74h4M58 74h1M19 75h1M31 75h1M33 75h1M47 75h1M59 75h2M68 75h2M19 76h1M31 76h1M33 76h1M47 76h1M61 76h7M19 77h1M31 77h1M33 77h1M47 77h1M20 78h2M28 78h3M33 78h1M48 78h1M22 79h6M33 79h1M48 79h1M33 80h1M48 80h1M34 81h2M45 81h3M36 82h9" />
<path stroke="#225348" d="M54 14h4M55 15h2M46 16h5M55 16h1M57 16h1M49 17h2M58 17h1M64 17h1M48 18h4M74 18h2M48 19h4M63 19h3M74 19h3M63 20h3M73 20h4M63 21h4M74 21h3M24 22h1M30 22h1M63 22h4M75 22h2M33 23h1M51 23h1M66 23h1M35 24h1M46 24h2M70 37h1M71 39h1M72 40h1M75 40h1M73 41h2M75 42h1M76 44h1M77 47h1M77 55h1M81 60h1M80 61h1" />
<path stroke="#224236" d="M66 14h1M51 15h3M65 15h4M52 16h3M65 16h6M44 17h2M47 17h2M52 17h3M56 17h1M66 17h7M43 18h4M53 18h2M56 18h3M61 18h3M67 18h6M43 19h4M53 19h1M55 19h7M67 19h6M53 20h1M55 20h7M67 20h5M57 21h6M68 21h3M72 21h2M25 22h5M62 22h1M68 22h2M71 22h4M23 23h10M52 23h1M68 23h8M22 24h13M48 24h7M68 24h8M22 25h14M39 25h17M62 25h3M70 25h5M21 26h16M39 26h18M60 26h6M71 26h4M21 27h16M38 27h19M59 27h7M73 27h1M21 28h4M27 28h25M53 28h4M59 28h6M20 29h3M25 29h27M53 29h4M59 29h6M20 30h2M23 30h3M28 30h24M53 30h4M59 30h6M20 31h1M22 31h2M26 31h25M53 31h4M60 31h5M21 32h1M24 32h27M53 32h4M60 32h5M20 33h1M22 33h28M53 33h4M61 33h4M19 34h1M21 34h29M51 34h1M53 34h3M61 34h4M66 34h1M20 35h29M51 35h1M53 35h3M61 35h4M66 35h4M20 36h21M44 36h5M50 36h2M53 36h4M60 36h5M66 36h4M20 37h20M45 37h3M50 37h1M53 37h4M60 37h4M65 37h5M20 38h14M41 38h3M49 38h2M52 38h6M59 38h5M65 38h6M20 39h13M37 39h8M48 39h3M52 39h2M56 39h8M65 39h6M21 40h11M35 40h15M52 40h2M57 40h7M65 40h4M70 40h2M21 41h11M34 41h16M51 41h3M57 41h7M65 41h4M72 41h1M22 42h10M34 42h14M51 42h2M58 42h6M66 42h3M19 43h1M22 43h10M34 43h8M44 43h2M50 43h3M58 43h7M66 43h2M19 44h1M22 44h10M35 44h6M48 44h5M56 44h10M68 44h1M22 45h11M42 45h2M46 45h23M21 46h14M40 46h29M19 47h50M20 48h49M20 49h3M30 49h39M20 50h2M32 50h37M20 51h2M33 51h35M20 52h2M33 52h35M21 53h2M32 53h36M21 54h3M32 54h25M59 54h9M21 55h3M33 55h14M48 55h2M52 55h4M60 55h8M22 56h2M33 56h14M48 56h1M53 56h2M60 56h7M82 56h1M22 57h2M33 57h14M61 57h6M82 57h1M23 58h1M34 58h13M62 58h5M82 58h1M22 59h3M34 59h12M61 59h6M82 59h1M22 60h3M35 60h11M60 60h7M82 60h1M22 61h4M35 61h11M58 61h9M81 61h2M21 62h7M35 62h11M58 62h9M81 62h2M21 63h10M35 63h11M59 63h8M81 63h1M21 64h10M35 64h11M59 64h9M21 65h10M35 65h11M59 65h9M21 66h9M35 66h11M59 66h9M21 67h9M35 67h11M59 67h9M21 68h9M35 68h11M59 68h9M20 69h10M35 69h11M59 69h9M20 70h10M35 70h11M59 70h9M20 71h10M35 71h11M59 71h9M20 72h9M35 72h11M59 72h9M20 73h9M35 73h11M59 73h9M20 74h9M34 74h12M59 74h9M20 75h9M34 75h12M61 75h7M20 76h9M34 76h12M20 77h9M34 77h12M22 78h6M34 78h12M34 79h12M34 80h12M36 81h9" />
<path stroke="#396e63" d="M68 14h1M70 15h2M58 16h5M72 16h2M59 17h5M74 17h2M27 21h4M42 21h6M31 22h2M44 22h7M34 23h1M41 23h10M40 24h6M75 30h1M74 31h3M71 32h7M71 33h8M70 34h10M70 35h10M70 36h11M71 37h6M78 37h3M71 38h6M72 39h4M73 40h2M76 42h2M76 43h2M77 44h2M77 45h2M77 46h3M78 47h2M78 48h2M78 49h3M78 50h3M78 51h3M78 52h4M78 53h4M78 54h4M78 55h4M77 56h5M77 57h5M77 58h5M78 59h4M79 60h2" />
<path stroke="#87432c" d="M31 20h11M48 20h4M52 21h5M23 22h1M57 22h5M62 23h4M66 24h2M68 25h2M70 26h1M71 27h2M73 28h2M75 29h1M66 30h1M66 31h1M52 67h1M68 67h1M52 68h1M68 68h1M53 69h1M69 69h1M53 70h1M69 70h1M53 71h1M69 71h1M53 72h1M70 72h1M70 73h1M70 74h1" />
<path stroke="#f28f3a" d="M31 21h11M48 21h4M33 22h11M51 22h4M35 23h6M36 24h4M68 26h2M68 27h3M68 28h5M68 29h7M68 30h7M69 31h5M69 32h2M69 33h2M69 34h1M68 70h1M68 71h1M68 72h1" />
<path stroke="#c06a31" d="M55 22h2M22 23h1M53 23h9M55 24h11M21 25h1M36 25h3M56 25h6M65 25h3M37 26h2M57 26h3M66 26h2M37 27h1M57 27h2M66 27h2M52 28h1M57 28h2M65 28h3M52 29h1M57 29h2M65 29h3M52 30h1M57 30h2M65 30h1M67 30h1M51 31h2M57 31h3M65 31h1M67 31h2M51 32h2M57 32h3M66 32h3M50 33h3M57 33h4M66 33h3M50 34h1M52 34h1M56 34h5M67 34h2M49 35h2M52 35h1M56 35h5M41 36h3M49 36h1M52 36h1M57 36h3M40 37h5M48 37h2M51 37h2M57 37h3M34 38h7M44 38h5M51 38h1M58 38h1M33 39h4M45 39h3M51 39h1M54 39h2M20 40h1M32 40h3M50 40h2M54 40h3M20 41h1M32 41h2M50 41h1M54 41h3M20 42h2M32 42h2M48 42h3M53 42h5M70 42h2M20 43h2M32 43h2M42 43h2M46 43h4M53 43h5M70 43h5M20 44h2M32 44h3M41 44h7M53 44h3M70 44h6M19 45h3M33 45h9M44 45h2M70 45h6M19 46h2M35 46h5M70 46h6M70 47h7M70 48h7M70 49h7M70 50h7M69 51h8M69 52h8M69 53h8M69 54h8M69 55h8M68 56h8M68 57h8M68 58h2M72 58h4M68 59h1M74 59h1M68 60h1M51 68h1M51 69h1M68 69h1M51 70h1M51 71h1M29 72h1M51 72h1M29 73h1M68 73h1M29 74h1M46 74h1M68 74h1M29 75h1M46 75h1M29 76h1M46 76h1M29 77h1M46 77h1M46 78h1M46 79h1M46 80h1" />
<path stroke="#18584f" d="M16 35h2M14 36h2M13 37h1M12 38h3M15 39h2M17 40h1M18 41h1M23 49h7M22 50h1M30 50h2M22 51h1M32 51h1M22 52h1M32 52h1M23 53h1M31 53h1M24 54h1M31 54h1M57 54h2M24 55h1M50 55h2M56 55h1M59 55h1M24 56h1M49 56h1M52 56h1M55 56h1M59 56h1M24 57h1M48 57h1M53 57h2M60 57h1M24 58h1M60 58h1M71 58h1M25 59h1M72 59h2M75 59h1M77 59h1M25 60h1M74 60h2M78 60h1M68 61h1M75 61h1M79 61h1M76 62h1M80 62h1M77 63h1M80 63h1M81 64h1M71 65h1M81 65h1" />
<path stroke="#35c1a7" d="M18 35h1M16 36h2M14 37h4M16 38h1M76 59h1M76 60h2M76 61h3M77 62h3" />
<path stroke="#1a8c78" d="M18 36h1M18 37h1M15 38h1M17 38h2M13 39h2M17 39h2M14 40h3M18 40h1M15 41h3M17 42h2M23 50h7M23 51h9M23 52h9M24 53h7M25 54h6M25 55h7M57 55h2M25 56h7M50 56h2M56 56h3M25 57h7M49 57h4M55 57h5M25 58h8M48 58h12M26 59h7M47 59h13M70 59h2M26 60h8M47 60h11M70 60h4M28 61h6M47 61h8M70 61h5M31 62h3M56 62h1M68 62h1M70 62h6M56 63h2M68 63h2M71 63h6M78 63h2M56 64h2M69 64h1M71 64h10M56 65h2M69 65h2M72 65h9M57 66h1M69 66h12M57 67h1M69 67h12M69 68h11M70 69h9M71 70h6" />
<path stroke="#5f6559" d="M82 37h2" />
<path stroke="#eee6e9" d="M81 38h1M77 39h4M52 70h1M52 71h1M69 72h1M69 73h1" />
<path stroke="#9f9395" d="M82 38h1M81 39h2M77 40h4M52 69h1M52 72h1M30 74h1M69 74h1M30 75h1M30 76h1M30 77h1M47 78h1M47 79h1M47 80h1" />
</svg>