<svg xmlns="http://www.w3.org/2000/svg" viewBox="0 -0.5 96 96" shape-rendering="crispEdges">
<metadata>Made with Pixels to Svg https://codepen.io/shshaw/pen/XbxvNj</metadata>
<path stroke="#e39e1e" d="M65 8h1M66 9h1M56 10h2M66 10h1M58 11h2M67 11h1M60 12h2M67 12h1M71 14h1M72 17h1M57 18h1M72 18h1M63 19h1M72 19h1M62 20h1M70 20h2M55 21h1M67 21h1M70 21h1M72 21h1M66 22h3M70 22h1M64 23h5M73 23h2M63 24h4M69 24h1M73 24h1M55 25h1M62 25h3M68 25h1M70 25h1M61 26h3M71 26h1M73 26h1M75 26h1M61 27h2M72 27h1M74 27h1M76 27h1M60 28h2M60 29h2M66 29h3M58 30h1M60 30h3M67 30h3M58 31h4M67 31h3M58 32h4M67 32h3M58 33h4M68 33h4M61 34h1M68 34h5M69 35h3M75 55h1M76 56h1M77 59h1M77 60h1M74 61h1M76 61h3M75 62h1M77 62h2" />
<path stroke="#975e17" d="M64 9h1M55 10h1M64 10h1M55 11h1M64 11h1M69 11h2M55 12h1M69 12h1M71 12h1M56 13h1M62 13h1M68 13h2M71 13h1M63 14h1M68 14h2M64 15h1M69 15h1M72 15h1M69 16h1M72 16h1M50 17h7M66 17h3M49 18h1M58 18h3M64 18h3M69 18h2M50 19h2M62 19h1M67 19h1M71 19h1M53 20h1M61 20h1M72 20h1M61 21h1M73 21h1M73 22h3M58 23h1M70 23h1M76 23h1M56 24h1M68 24h1M77 24h1M54 25h1M77 25h1M53 26h1M52 27h1M57 27h1M63 27h1M62 28h1M65 28h1M62 29h3M70 30h2M71 31h1M72 32h2M73 33h1M77 53h1M78 54h1M79 55h1M79 56h1M77 57h1M80 57h1M77 58h1M80 58h1M78 59h1M80 59h1M74 60h1M76 60h1M78 60h1M75 61h1M76 62h1" />
<path stroke="#ffff84" d="M65 9h1M65 10h1M56 11h2M65 11h2M56 12h4M66 12h1M70 12h1M58 13h4M66 13h2M70 13h1M60 14h3M67 14h1M70 14h1M62 15h2M67 15h1M71 15h1M63 16h1M67 16h1M71 16h1M71 17h1M50 18h7M67 18h2M71 18h1M57 19h3M64 19h3M68 19h3M60 20h1M63 20h4M69 20h1M62 21h4M69 21h1M62 22h3M61 23h2M61 24h1M60 25h1M67 25h1M66 26h3M64 27h4M63 28h2" />
<path stroke="#101010" d="M64 12h1M64 13h1M56 14h1M64 14h1M57 15h1M58 16h1M59 17h1M52 20h1M68 20h1M54 21h1M68 21h1M55 22h2M61 22h1M69 22h1M57 23h1M60 23h1M69 23h1M55 24h1M60 24h1M67 24h1M59 25h1M65 25h2M59 26h1M64 26h1M77 26h1M58 27h1M71 27h1M73 27h1M75 27h1M77 27h1M52 28h5M58 28h1M66 28h2M72 28h1M74 28h1M76 28h1M58 29h1M65 29h1M57 30h1M63 30h1M66 30h1M57 31h1M62 31h1M66 31h1M57 32h1M62 32h1M66 32h1M57 33h1M62 33h1M67 33h1M62 34h1M67 34h1M73 34h1M68 35h1M72 35h1M69 36h3M30 46h1M30 47h1M30 48h1M31 50h1M31 51h1M30 52h1M29 56h1M75 56h1M29 57h1M76 57h1M76 58h1M30 59h1M73 59h2M76 59h1M73 60h1M75 60h1M80 60h1M31 61h1M73 61h1M80 61h1M31 62h1M74 62h1M79 62h1M31 63h1M75 63h4M32 64h1M32 65h1M32 66h1M58 66h2M31 67h1M57 67h1M60 67h1M57 68h1M61 68h1M56 69h1M61 69h1M56 70h1M62 70h1M56 71h1M62 71h1M56 72h1M63 72h1M56 73h1M63 73h1M56 74h1M63 74h1M40 75h6M55 75h2M64 75h1M17 76h1M38 76h2M45 76h10M57 76h1M64 76h1M18 77h3M35 77h3M45 77h1M57 77h1M64 77h1M21 78h4M31 78h4M44 78h1M57 78h1M65 78h1M25 79h6M34 79h1M44 79h1M57 79h1M65 79h1M33 80h1M45 80h1M57 80h1M65 80h1M33 81h1M45 81h1M58 81h1M65 81h1M34 82h2M43 82h2M58 82h1M36 83h7M58 83h1M58 84h1M59 85h1M77 85h1M60 86h2M75 86h2M62 87h13" />
<path stroke="#ead900" d="M65 12h1M57 13h1M65 13h1M57 14h3M65 14h2M58 15h4M65 15h2M68 15h1M70 15h1M59 16h4M64 16h3M68 16h1M70 16h1M60 17h6M69 17h2M61 18h3M52 19h5M60 19h2M54 20h6M67 20h1M56 21h5M66 21h1M71 21h1M57 22h4M65 22h1M71 22h2M59 23h1M63 23h1M71 23h2M75 23h1M57 24h3M62 24h1M70 24h3M74 24h3M56 25h3M61 25h1M69 25h1M71 25h6M54 26h5M60 26h1M65 26h1M72 26h1M74 26h1M76 26h1M53 27h4M59 27h2M59 28h1M59 29h1M59 30h1M70 31h1M70 32h2M72 33h1M76 53h1M75 54h3M76 55h3M77 56h2M78 57h2M78 58h2M79 59h1M79 60h1M79 61h1" />
<path stroke="#2abbfc" d="M69 26h2M68 27h1M70 27h1M68 28h2M69 29h1" />
<path stroke="#09354d" d="M69 27h1M70 28h1M70 29h1M34 35h1M33 36h1M32 37h1M32 38h1M31 39h1M31 40h1M31 41h1M30 42h1M30 43h1M30 44h1M30 45h1M47 48h2M31 49h1M45 49h2M49 49h2M32 50h2M43 50h2M34 51h8M63 51h2M76 51h1M61 52h2M65 52h1M76 52h1M30 53h1M67 53h2M75 53h1M29 54h1M70 54h5M29 55h1M74 55h1M51 56h2M73 56h1M15 57h3M50 57h1M53 57h2M72 57h1M15 58h1M18 58h2M30 58h1M49 58h1M55 58h3M70 58h2M16 59h1M20 59h2M47 59h2M58 59h4M67 59h4M17 60h1M22 60h2M31 60h1M45 60h2M62 60h5M70 60h1M17 61h1M24 61h1M32 61h2M42 61h3M70 61h1M18 62h1M25 62h1M34 62h8M69 62h1M18 63h1M26 63h1M69 63h1M19 64h1M27 64h1M68 64h1M19 65h1M28 65h1M68 65h1M19 66h1M28 66h1M34 66h3M67 66h1M20 67h1M29 67h1M32 67h1M37 67h2M58 67h2M67 67h1M20 68h1M30 68h1M58 68h3M66 68h1M20 69h1M30 69h1M57 69h4M66 69h1M20 70h1M31 70h1M57 70h5M65 70h1M19 71h1M29 71h1M57 71h5M64 71h1M19 72h1M26 72h2M57 72h6M19 73h5M57 73h6M17 74h2M57 74h6M16 75h1M57 75h7M40 76h5M58 76h6M38 77h7M58 77h6M35 78h9M58 78h7M35 79h9M58 79h7M66 79h2M34 80h11M58 80h7M68 80h4M34 81h11M59 81h6M72 81h2M36 82h7M59 82h6M74 82h2M59 83h6M76 83h1M59 84h7M77 84h1M60 85h11M62 86h10" />
<path stroke="#9ab8ba" d="M73 28h1M73 29h1M75 29h1M73 30h1M75 30h1M73 31h1M76 31h1M41 32h11M76 32h1M40 33h1M52 33h1M76 33h1M74 34h2M34 36h1M64 36h1M33 37h1M66 37h1M47 38h2M68 38h2M32 39h1M46 39h5M70 39h2M32 40h2M41 40h2M44 40h1M46 40h1M48 40h5M72 40h1M32 41h10M43 41h1M45 41h1M47 41h8M73 41h1M31 42h10M42 42h1M44 42h14M31 43h30M31 44h34M73 44h3M31 45h45M31 46h46M31 47h46M32 48h15M49 48h28M33 49h12M51 49h26M34 50h8M53 50h11M65 50h12M56 51h5M66 51h10M67 52h9M70 53h5" />
<path stroke="#edf3f2" d="M74 29h1M74 30h1M74 31h2M74 32h2M41 33h11M74 33h2M38 34h19M36 35h25M35 36h29M34 37h32M33 38h14M49 38h19M33 39h13M51 39h19M34 40h7M43 40h1M45 40h1M47 40h1M53 40h19M42 41h1M44 41h1M46 41h1M55 41h18M41 42h1M43 42h1M58 42h16M61 43h14M65 44h8M66 81h1M68 81h1M71 81h1M73 82h1M66 83h1M69 83h1M73 83h3M67 84h1M69 84h1M72 84h5M72 85h5M73 86h2" />
<path stroke="#5c7996" d="M38 33h2M53 33h4M36 34h2M57 34h4M35 35h1M61 35h3M65 36h1M67 37h1M74 42h1M75 43h1M76 44h1M76 45h1M77 46h1M77 47h1M31 48h1M77 48h1M32 49h1M47 49h2M77 49h1M42 50h1M45 50h8M64 50h1M77 50h1M32 51h2M42 51h14M61 51h2M65 51h1M31 52h30M63 52h2M66 52h1M31 53h36M69 53h1M30 54h40M30 55h44M30 56h21M53 56h20M30 57h20M55 57h17M31 58h18M58 58h12M31 59h16M62 59h5M32 60h13M34 61h8" />
<path stroke="#0981ae" d="M51 57h2M50 58h5M49 59h9M47 60h15M67 60h1M45 61h21M32 62h2M42 62h24M32 63h35M33 64h34M33 65h34M33 66h1M37 66h21M60 66h7M39 67h18M61 67h6M38 68h19M62 68h4M37 69h19M62 69h3M37 70h19M63 70h2M30 71h1M36 71h20M63 71h1M28 72h1M35 72h21M24 73h2M33 73h23M30 74h26M17 75h2M26 75h14M46 75h9M18 76h20M21 77h14M25 78h6" />
<path stroke="#085d94" d="M16 58h2M17 59h3M18 60h4M18 61h6M19 62h6M19 63h7M20 64h7M20 65h8M20 66h8M21 67h8M21 68h9M21 69h9M65 69h1M21 70h10M20 71h9M20 72h6M67 80h1M67 81h1M69 81h2M65 82h7M65 83h1M68 83h1M70 83h2M68 84h1M70 84h1" />
<path stroke="#27aed6" d="M68 60h2M66 61h4M66 62h3M67 63h2M67 64h1M67 65h1M33 67h4M31 68h7M31 69h6M32 70h5M31 71h5M29 72h6M26 73h7M19 74h11M19 75h7M66 80h1M72 82h1M67 83h1M72 83h1M66 84h1M71 84h1M71 85h1M72 86h1" />
</svg>