<svg xmlns="http://www.w3.org/2000/svg" viewBox="0 -0.5 96 96" shape-rendering="crispEdges">
<metadata>Made with Pixels to Svg https://codepen.io/shshaw/pen/XbxvNj</metadata>
<path stroke="#434c63" d="M35 8h9M33 9h2M44 9h4M32 10h1M48 10h3M31 11h1M34 11h5M51 11h3M30 12h1M32 12h1M39 12h3M30 13h1M42 13h2M29 14h1M31 14h2M29 15h1M48 15h1M29 16h1M50 16h1M29 17h1M52 17h1M29 18h1M31 18h1M29 19h1M29 20h1M30 21h1M30 22h1M41 22h1M48 22h1M30 23h1M38 23h1M50 23h1M31 24h1M36 24h1M31 25h1M32 26h1M52 26h3M55 27h2M60 27h1M70 27h1M61 28h1M70 28h1M62 29h1M70 29h1M70 30h1M70 31h1M69 32h1M66 33h3M63 34h1M65 34h1M64 35h2M60 37h1M60 38h1M67 39h1M44 40h1M67 40h1M42 41h2M68 41h1M41 42h1M43 42h1M68 42h1M44 43h1M62 43h1M65 43h1M68 43h1M44 44h1M63 44h2M68 44h1M68 45h1M61 46h1M67 46h1M67 47h1M67 48h1M66 49h1M66 50h1M65 51h1M64 52h1" />
<path stroke="#83bbed" d="M35 9h9M33 10h15M32 11h1M40 11h11M43 12h11M45 13h12M47 14h12M50 15h10M52 16h10M53 17h10M54 18h10M55 19h10M56 20h10M57 21h10M58 22h10M59 23h9M59 24h10M60 25h9M61 26h8M61 27h9M62 28h8M63 29h6M64 30h4M64 36h1M64 37h2M65 38h1M65 39h1M65 40h1M65 41h1M41 43h1M41 44h2M66 44h1M42 45h1M62 45h1M64 45h1M66 45h1M64 46h1M66 46h1M64 47h1M63 48h1M63 49h1M63 50h1M62 51h1M62 52h1" />
<path stroke="#777ebd" d="M33 11h1M39 11h1M31 12h1M34 12h5M42 12h1M54 12h3M31 13h1M33 13h9M44 13h1M57 13h2M30 14h1M33 14h14M59 14h1M30 15h1M32 15h16M49 15h1M60 15h2M30 16h1M32 16h18M51 16h1M62 16h1M30 17h1M32 17h20M63 17h1M30 18h1M32 18h22M64 18h1M30 19h25M65 19h1M30 20h26M66 20h1M31 21h26M67 21h1M31 22h10M49 22h9M68 22h1M31 23h7M51 23h8M68 23h1M32 24h4M51 24h8M69 24h1M32 25h3M52 25h8M69 25h1M33 26h1M55 26h6M69 26h1M52 27h3M57 27h3M51 28h10M50 29h12M69 29h1M49 30h15M68 30h2M47 31h23M46 32h23M46 33h20M46 34h17M64 34h1M47 35h17M47 36h17M65 36h1M47 37h13M61 37h3M66 37h1M42 38h1M48 38h12M61 38h4M66 38h1M41 39h3M48 39h13M62 39h3M66 39h1M41 40h3M49 40h11M62 40h3M66 40h1M41 41h1M51 41h7M62 41h3M66 41h1M62 42h4M63 43h2" />
<path stroke="#101010" d="M33 12h1M32 13h1M31 15h1M31 16h1M31 17h1M35 25h1M34 26h1M33 27h1M32 28h1M31 29h1M30 30h1M30 31h1M29 32h1M29 33h1M28 34h1M28 35h1M27 36h1M27 37h1M42 37h1M26 38h1M43 38h1M26 39h1M44 39h1M61 39h1M26 40h1M45 40h1M60 40h2M25 41h1M46 41h1M49 41h2M58 41h2M61 41h1M25 42h1M47 42h1M51 42h7M61 42h1M25 43h1M61 43h1M25 44h1M61 44h1M24 45h1M50 45h1M61 45h1M24 46h1M49 46h1M24 47h1M49 47h1M60 47h1M24 48h1M48 48h1M60 48h1M24 49h1M47 49h1M51 49h1M60 49h1M24 50h1M46 50h1M51 50h1M60 50h1M24 51h1M44 51h2M51 51h1M60 51h1M24 52h1M50 52h1M61 52h1M24 53h1M50 53h1M62 53h2M24 54h1M50 54h1M24 55h1M49 55h1M24 56h1M49 56h1M24 57h1M48 57h1M24 58h1M25 59h1M25 60h1M25 61h1M25 62h1M25 63h1M43 63h1M26 64h1M43 64h1M26 65h1M43 65h1M26 66h1M43 66h1M26 67h1M43 67h1M27 68h1M43 68h1M27 69h1M43 69h1M27 70h1M44 70h1M28 71h1M44 71h1M28 72h1M45 72h1M29 73h1M46 73h2M29 74h2M48 74h2M29 75h1M31 75h1M49 75h1M29 76h1M32 76h1M49 76h1M29 77h1M33 77h1M48 77h2M29 78h1M34 78h1M47 78h2M28 79h1M35 79h2M46 79h1M48 79h1M28 80h1M37 80h3M44 80h2M48 80h1M28 81h1M36 81h2M40 81h4M47 81h1M29 82h1M34 82h2M47 82h1M30 83h4M46 83h1M46 84h1M46 85h1M47 86h2M56 86h7M49 87h7" />
<path stroke="#003319" d="M42 22h2M47 22h1M39 23h2M49 23h1M37 24h2M50 24h1M36 25h1M48 58h4M53 59h2M45 60h1M44 61h1M44 62h1M61 66h1M61 67h1M62 68h1M62 69h1M62 70h1M62 71h1M62 72h1M62 73h1M50 74h1M61 74h1M61 75h1M60 76h1M60 77h1M59 78h1M58 79h1M57 80h1M56 81h1M56 82h1M55 83h1M55 84h1" />
<path stroke="#005e44" d="M44 22h3M41 23h8M39 24h11M37 25h14M36 26h14M35 27h13M35 28h5M42 28h4M34 29h6M44 29h1M34 30h7M33 31h8M33 32h9M33 33h9M32 34h9M32 35h9M32 36h9M32 37h8M32 38h8M32 39h8M32 40h8M32 41h8M32 42h8M33 43h7M33 44h7M33 45h7M33 46h8M34 47h7M34 48h7M34 49h7M35 50h6M35 51h5M35 52h4M42 52h1M36 53h8M36 54h9M36 55h9M37 56h9M37 57h11M38 58h10M52 58h1M39 59h10M52 59h1M40 60h5M46 60h4M55 60h2M41 61h3M45 61h6M57 61h1M42 62h2M45 62h7M58 62h1M44 63h8M59 63h1M44 64h9M60 64h1M44 65h9M60 65h1M44 66h10M44 67h10M44 68h10M44 69h9M54 69h1M45 70h10M45 71h10M46 72h10M48 73h8M51 74h6M30 75h1M50 75h11M30 76h2M50 76h10M30 77h3M50 77h10M30 78h4M49 78h10M29 79h6M49 79h9M29 80h8M49 80h8M29 81h7M48 81h8M30 82h4M48 82h8M47 83h8M57 83h1M47 84h8M58 84h1M47 85h12M49 86h7" />
<path stroke="#8f261b" d="M51 25h1M51 26h1M51 27h1M50 28h1M49 29h1M47 30h2M45 31h2M44 32h2M43 33h1M45 33h1M42 34h1M45 34h1M42 35h1M46 35h1M41 36h1M46 36h1M41 37h1M46 37h1M41 38h1M47 38h1M40 39h1M47 39h1M40 40h1M48 40h1M40 41h1M48 41h1M40 42h1M48 42h1M40 43h1M40 44h1M48 44h3M40 45h1M45 45h3M53 45h1M41 46h4M52 46h1M54 46h1M41 47h1M52 47h1M54 47h1M41 48h1M52 48h1M54 48h1M42 49h1M54 49h1M42 50h1M54 50h1M43 51h1M54 51h1M44 52h1M55 52h1M45 53h1M55 53h1M46 54h1M55 54h1M47 55h1M55 55h1M48 56h1M55 56h1M55 57h1M55 58h1M55 59h1M57 81h2M59 82h1M59 83h2M61 84h1M62 85h1" />
<path stroke="#008567" d="M35 26h1M34 28h1M31 30h1M33 30h1M32 33h1M32 43h1M33 47h1M34 50h1M35 53h1M36 56h1M37 58h1M38 59h1M49 59h3M39 60h1M50 60h5M40 61h1M51 61h4M41 62h1M52 62h3M52 63h3M53 64h2M59 64h1M40 65h1M53 65h2M58 65h2M39 66h1M54 66h1M57 66h3M38 67h1M56 67h4M37 68h1M55 68h5M35 69h2M55 69h4M28 70h1M33 70h2M55 70h4M31 71h2M55 71h3M61 71h1M29 72h1M56 72h1M59 72h3M56 73h6M57 74h4M35 78h1M37 79h1M40 80h1M56 83h1M56 84h2" />
<path stroke="#ff3c6d" d="M50 26h1M48 27h3M40 28h2M46 28h4M40 29h4M45 29h4M41 30h6M41 31h4M42 32h2M42 33h1M41 34h1M41 35h1M40 37h1M40 38h1M41 49h1M41 50h1M40 51h3M39 52h3M43 52h1M44 53h1M45 54h1M45 55h2M46 56h2M55 61h2M55 62h3M55 63h4M55 64h4M55 65h3M55 66h2M60 66h1M54 67h2M60 67h1M54 68h1M60 68h2M53 69h1M59 69h3M59 70h3M58 71h3M57 72h2" />
<path stroke="#39ad5a" d="M34 27h1M33 28h1M32 29h2M32 30h1M31 31h2M30 32h3M30 33h2M29 34h3M29 35h3M28 36h4M28 37h4M27 38h5M27 39h5M27 40h5M26 41h6M26 42h6M26 43h6M26 44h7M25 45h8M25 46h8M25 47h8M25 48h9M25 49h9M25 50h9M25 51h10M25 52h10M25 53h10M25 54h11M25 55h11M25 56h11M25 57h12M25 58h12M26 59h12M26 60h13M26 61h14M26 62h15M26 63h17M27 64h16M27 65h13M41 65h2M27 66h12M40 66h3M27 67h11M39 67h4M28 68h9M38 68h5M28 69h7M37 69h6M29 70h4M35 70h9M29 71h2M33 71h11M30 72h15M30 73h16M31 74h17M32 75h17M33 76h16M34 77h14M36 78h11M38 79h8M41 80h3" />
<path stroke="#d5657b" d="M44 33h1M43 34h2M43 35h3M42 36h4M43 37h3M44 38h3M45 39h2M46 40h1M45 46h1M48 46h1M42 47h7M42 48h6M43 49h4M52 49h1M43 50h3M52 50h1M52 51h1M51 52h3M51 53h3M51 54h3M50 55h4M50 56h4M49 57h6M53 58h2M58 83h1M60 84h1M59 85h1" />
<path stroke="#ff8d9f" d="M47 40h1M47 41h1M48 45h2M46 46h2M53 46h1M53 47h1M53 48h1M53 49h1M53 50h1M53 51h1M54 52h1M54 53h1M54 54h1M54 55h1M54 56h1M57 82h2M59 84h1M60 85h2" />
<path stroke="#edf3f2" d="M67 41h1M42 42h1M66 42h2M42 43h2M66 43h2M43 44h1M62 44h1M65 44h1M67 44h1M41 45h1M43 45h2M63 45h1M65 45h1M67 45h1M62 46h2M65 46h1M61 47h3M65 47h2M61 48h2M64 48h3M61 49h2M64 49h2M61 50h2M64 50h2M61 51h1M63 51h2M63 52h1" />
</svg>