<svg xmlns="http://www.w3.org/2000/svg" viewBox="0 -0.5 96 96" shape-rendering="crispEdges">
<metadata>Made with Pixels to Svg https://codepen.io/shshaw/pen/XbxvNj</metadata>
<path stroke="#2d4377" d="M88 19h2M87 20h1M89 20h1M76 21h2M85 21h1M89 21h1M74 22h2M78 22h1M84 22h1M89 22h1M74 23h1M78 23h1M83 23h1M89 23h1M78 24h2M82 24h1M88 24h1M73 25h1M80 25h2M88 25h1M71 26h1M81 26h1M88 26h1M70 27h1M87 27h1M69 28h1M87 28h1M69 29h1M86 29h1M68 30h1M85 30h2M67 31h1M86 31h1M66 32h1M82 32h1M87 32h1M65 33h1M87 33h1M63 34h2M88 34h1M60 35h3M83 35h1M88 35h1M57 36h3M88 36h1M55 37h2M88 37h1M53 38h2M88 38h1M27 39h6M51 39h1M25 40h2M33 40h2M49 40h1M23 41h2M35 41h2M48 41h1M22 42h1M37 42h4M46 42h2M20 43h2M38 43h1M42 43h4M19 44h1M47 44h2M18 45h1M43 45h2M47 45h1M49 45h1M17 46h1M31 46h1M35 46h1M43 46h1M45 46h3M17 47h1M23 47h1M25 47h1M29 47h1M31 47h4M43 47h1M47 47h1M50 47h1M16 48h1M20 48h1M30 48h5M44 48h1M51 48h1M16 49h1M18 49h1M31 49h3M44 49h1M51 49h1M77 49h1M16 50h2M32 50h1M77 50h1M27 51h1M78 51h1M26 52h1M78 52h1M25 53h1M40 53h1M78 53h1M25 54h1M39 54h1M78 54h1M24 55h1M39 55h1M67 55h1M79 55h1M38 56h1M57 56h1M67 56h1M79 56h1M27 57h1M38 57h1M57 57h1M67 57h1M74 57h1M38 58h1M57 58h1M67 58h1M74 58h1M76 58h1M25 59h2M31 59h1M37 59h1M57 59h1M67 59h1M74 59h1M76 59h1M31 60h1M37 60h1M57 60h1M67 60h2M74 60h1M30 61h1M37 61h1M63 61h1M68 61h1M76 61h2M37 62h1M56 62h1M59 62h1M63 62h1M68 62h1M73 62h1M77 62h1M36 63h1M56 63h1M59 63h1M63 63h2M66 63h1M69 63h1M73 63h1M36 64h1M55 64h1M59 64h2M62 64h1M64 64h1M66 64h1M69 64h1M73 64h1M36 65h1M55 65h1M58 65h1M60 65h1M65 65h1M70 65h1M72 65h1M76 65h1M36 66h1M54 66h1M58 66h1M61 66h1M70 66h1M72 66h1M76 66h1M36 67h1M57 67h1M71 67h1M27 68h1M35 68h1M43 68h1M35 69h1M43 69h1M35 70h1M43 70h1M25 71h1M35 71h1M42 71h2M47 71h1M35 72h1M42 72h1M35 73h1M42 73h1M35 74h1M41 74h1M35 75h1M35 76h1M35 77h1M40 77h1M35 78h1M35 79h1M18 80h1M35 80h1M39 80h1M18 81h1M35 81h1M17 82h1M35 82h1M17 83h1M35 83h1M35 84h1M35 85h1M35 86h1M35 87h1" />
<path stroke="#4999da" d="M88 20h1M87 21h2M76 22h2M86 22h3M77 23h1M84 23h5M83 24h5M74 25h6M82 25h6M73 26h8M82 26h5M71 27h8M83 27h3M71 28h6M83 28h1M70 29h6M69 30h6M68 31h6M85 31h1M67 32h7M84 32h3M66 33h7M84 33h3M65 34h8M84 34h4M63 35h10M84 35h4M60 36h3M65 36h7M85 36h3M57 37h6M66 37h6M86 37h2M55 38h8M68 38h3M87 38h1M53 39h10M27 40h6M51 40h10M25 41h10M52 41h9M23 42h14M48 42h2M56 42h5M22 43h2M34 43h4M46 43h7M58 43h4M20 44h1M37 44h2M40 44h7M49 44h7M59 44h3M40 45h3M45 45h2M48 45h1M50 45h11M41 46h2M44 46h1M48 46h2M51 46h8M45 47h2M48 47h2M51 47h5M46 48h2M49 48h2M50 49h1M26 54h1M25 55h2M40 55h1M24 56h2M39 56h2M24 57h2M39 57h2M23 58h2M39 58h2M23 59h2M38 59h4M23 60h1M38 60h4M23 61h1M38 61h4M38 62h4M37 63h5M37 64h5M37 65h5M37 66h4M37 67h4M36 68h5M36 69h4M36 70h4M36 71h3M36 72h3M36 73h2M36 74h1" />
<path stroke="#3471b4" d="M86 21h1M85 22h1M75 23h2M74 24h4M72 26h1M87 26h1M79 27h4M86 27h1M70 28h1M77 28h6M84 28h3M76 29h10M75 30h10M74 31h11M74 32h8M83 32h1M73 33h9M83 33h1M73 34h9M83 34h1M73 35h9M72 36h9M84 36h1M72 37h9M85 37h1M71 38h9M52 39h1M70 39h10M50 40h1M63 40h1M71 40h9M72 41h7M72 42h7M24 43h10M39 43h3M73 43h6M21 44h16M39 44h1M62 44h1M73 44h6M19 45h21M61 45h2M73 45h6M18 46h13M36 46h5M50 46h1M59 46h9M73 46h7M18 47h5M26 47h3M35 47h8M44 47h1M56 47h14M73 47h7M17 48h3M25 48h2M29 48h1M35 48h9M45 48h1M48 48h1M52 48h20M73 48h7M17 49h1M25 49h1M29 49h2M34 49h10M45 49h5M52 49h25M78 49h3M28 50h4M33 50h38M73 50h4M78 50h3M28 51h43M74 51h4M79 51h1M27 52h23M51 52h4M56 52h17M74 52h4M26 53h14M41 53h1M44 53h7M55 53h19M75 53h3M27 54h12M40 54h2M46 54h6M55 54h15M73 54h5M27 55h12M48 55h4M56 55h11M68 55h4M74 55h5M26 56h12M49 56h2M53 56h3M58 56h9M68 56h11M26 57h1M28 57h10M41 57h1M52 57h5M58 57h9M68 57h6M75 57h4M25 58h1M27 58h11M41 58h2M51 58h6M58 58h9M68 58h6M75 58h1M77 58h1M27 59h4M32 59h5M42 59h2M51 59h6M58 59h9M68 59h6M75 59h1M77 59h1M24 60h1M26 60h5M35 60h2M42 60h4M52 60h5M58 60h9M69 60h5M75 60h1M77 60h1M25 61h5M42 61h4M52 61h5M58 61h5M64 61h3M69 61h5M75 61h1M24 62h6M42 62h4M52 62h4M58 62h1M60 62h3M64 62h3M69 62h4M75 62h2M23 63h7M42 63h5M52 63h4M58 63h1M60 63h3M65 63h1M70 63h3M75 63h2M22 64h7M42 64h6M53 64h2M58 64h1M61 64h1M65 64h1M70 64h3M75 64h2M22 65h7M42 65h6M54 65h1M57 65h1M61 65h1M71 65h1M75 65h1M22 66h7M41 66h7M57 66h1M71 66h1M75 66h1M22 67h6M41 67h7M22 68h5M41 68h2M44 68h5M22 69h5M40 69h3M44 69h5M22 70h4M40 70h3M44 70h4M21 71h4M39 71h3M44 71h3M21 72h4M39 72h3M43 72h4M21 73h3M38 73h4M43 73h3M21 74h3M37 74h4M42 74h3M20 75h3M36 75h5M42 75h2M20 76h3M36 76h5M42 76h1M20 77h2M36 77h4M41 77h1M20 78h2M36 78h4M19 79h2M36 79h4M19 80h2M36 80h3M19 81h1M36 81h3M18 82h2M36 82h3M18 83h1M36 83h2M36 84h2M36 85h2M36 86h1M36 87h1" />
<path stroke="#080808" d="M73 24h1M72 25h1M82 33h1M82 34h1M49 36h1M83 36h1M49 37h1M84 37h1M63 38h1M85 38h2M46 39h1M63 39h1M87 39h2M47 40h1M64 40h1M61 41h1M61 42h1M79 43h1M63 44h1M79 44h1M63 45h4M79 45h1M32 46h3M68 46h1M86 46h1M24 47h1M30 47h1M70 47h1M80 47h1M21 48h2M24 48h1M27 48h2M80 48h1M85 48h1M19 49h1M24 49h1M26 49h1M28 49h1M81 49h1M84 49h1M24 50h2M27 50h1M83 50h1M24 51h1M24 52h1M23 54h1M79 54h1M23 55h1M83 55h1M23 56h1M41 56h1M80 56h1M82 56h1M23 57h1M42 57h1M26 58h1M43 58h1M22 59h1M44 59h2M78 59h1M22 60h1M25 60h1M46 60h1M76 60h1M78 60h1M83 60h1M22 61h1M24 61h1M46 61h1M57 61h1M74 61h1M79 61h1M82 61h1M22 62h2M30 62h2M46 62h1M57 62h1M74 62h1M78 62h1M22 63h1M30 63h1M32 63h1M47 63h1M57 63h1M74 63h1M77 63h1M29 64h1M33 64h2M57 64h1M63 64h1M74 64h1M77 64h1M29 65h1M35 65h1M56 65h1M62 65h1M74 65h1M77 65h1M82 65h1M21 66h1M29 66h1M48 66h1M56 66h1M62 66h1M65 66h1M82 66h1M21 67h1M28 67h1M48 67h1M56 67h1M62 67h1M66 67h1M80 67h2M21 68h1M49 68h1M62 68h1M66 68h1M21 69h1M27 69h1M49 69h3M61 69h1M66 69h1M79 69h1M21 70h1M26 70h1M48 70h1M52 70h1M78 70h1M15 71h1M53 71h1M77 71h1M5 72h1M15 72h1M20 72h1M25 72h1M33 72h2M47 72h1M53 72h4M75 72h2M5 73h1M15 73h1M20 73h1M24 73h1M31 73h2M46 73h1M52 73h2M58 73h1M62 73h1M74 73h1M5 74h1M15 74h1M20 74h1M24 74h1M29 74h2M45 74h1M51 74h1M53 74h1M59 74h3M63 74h1M68 74h2M73 74h1M5 75h1M15 75h2M23 75h1M28 75h1M41 75h1M44 75h1M54 75h1M59 75h1M65 75h3M70 75h3M5 76h1M8 76h1M15 76h2M19 76h1M23 76h1M27 76h1M41 76h1M43 76h1M54 76h1M59 76h1M70 76h1M6 77h1M8 77h1M15 77h1M17 77h1M19 77h1M22 77h1M27 77h1M42 77h1M54 77h1M59 77h1M71 77h1M6 78h1M8 78h1M15 78h1M17 78h1M19 78h1M22 78h1M26 78h1M40 78h2M54 78h1M59 78h1M71 78h1M7 79h1M15 79h1M18 79h1M21 79h1M26 79h1M40 79h1M55 79h1M59 79h1M72 79h1M9 80h1M12 80h1M15 80h1M21 80h1M26 80h1M55 80h1M59 80h1M72 80h1M9 81h1M12 81h1M15 81h1M20 81h2M25 81h1M39 81h1M55 81h1M60 81h1M73 81h1M10 82h1M13 82h1M15 82h1M20 82h2M25 82h1M39 82h1M41 82h1M55 82h1M60 82h1M73 82h1M10 83h1M13 83h1M15 83h1M19 83h1M21 83h1M25 83h1M38 83h1M41 83h1M55 83h1M61 83h1M73 83h1M11 84h1M14 84h2M17 84h2M21 84h1M25 84h1M38 84h1M55 84h1M62 84h1M74 84h1M82 84h1M21 85h1M25 85h3M38 85h1M42 85h1M56 85h1M63 85h1M74 85h1M83 85h1M21 86h1M25 86h1M27 86h2M37 86h1M42 86h1M56 86h1M61 86h3M75 86h2M84 86h1M21 87h1M26 87h1M29 87h1M37 87h1M57 87h4M77 87h8M22 88h1M28 88h2M36 88h1M43 88h1M22 89h1M26 89h2M43 89h1M48 89h2M23 90h3M43 90h1M50 90h1M43 91h1M49 91h3M44 92h2M51 92h1M46 93h6" />
<path stroke="#93262f" d="M49 34h2M49 35h1M51 35h1M82 35h1M53 36h1M63 36h2M81 36h1M46 37h2M54 37h1M63 37h1M65 37h1M81 37h1M46 38h1M48 38h2M66 38h2M80 38h1M69 39h1M80 39h1M61 40h2M70 40h1M80 40h1M87 40h1M63 41h3M71 41h1M79 41h1M87 41h1M71 42h1M79 42h1M87 42h1M62 43h1M72 43h1M87 43h1M72 44h1M86 44h1M72 45h1M86 45h1M72 46h1M80 46h1M72 47h1M85 47h1M81 50h1M15 51h1M80 51h1M83 51h1M14 52h1M79 52h1M84 52h1M13 53h1M23 53h1M42 53h2M79 53h1M84 53h1M12 54h1M42 54h1M44 54h2M84 54h1M11 55h1M41 55h2M46 55h2M80 55h1M10 56h1M48 56h1M9 57h1M49 57h1M79 57h1M82 57h1M9 58h1M22 58h1M49 58h1M78 58h1M83 58h1M8 59h1M46 59h1M50 59h1M83 59h1M7 60h1M51 60h1M7 61h1M51 61h1M78 61h1M6 62h1M51 62h1M79 62h1M81 62h1M6 63h1M50 63h2M78 63h1M82 63h1M6 64h1M21 64h1M48 64h1M52 64h1M82 64h1M5 65h1M21 65h1M48 65h1M53 65h1M5 66h1M53 66h1M77 66h1M5 67h1M53 67h3M75 67h2M5 68h1M7 68h1M15 68h1M56 68h1M74 68h1M79 68h1M5 69h1M7 69h1M15 69h1M52 69h1M57 69h1M73 69h1M5 70h1M7 70h1M10 70h1M15 70h1M57 70h1M59 70h3M64 70h4M70 70h4M5 71h1M7 71h1M10 71h1M20 71h1M58 71h1M62 71h2M68 71h2M7 72h1M10 72h1M57 72h1M74 72h1M7 73h1M10 73h1M63 73h1M69 73h1M7 74h1M16 74h1M64 74h1M8 75h1M19 75h1M11 76h1M11 77h1M11 78h1M9 79h1M12 79h1" />
<path stroke="#f45353" d="M50 35h1M50 36h2M50 37h4M64 37h1M47 38h1M51 38h2M64 38h2M48 39h3M65 39h3M85 39h1M48 40h1M66 40h4M85 40h2M62 41h1M67 41h3M85 41h2M63 42h8M85 42h2M63 43h3M70 43h2M85 43h2M64 44h1M71 44h1M85 44h1M84 45h2M84 46h2M84 47h1M83 48h1M83 49h1M18 51h3M16 52h4M82 52h2M14 53h2M17 53h5M82 53h2M13 54h2M16 54h3M20 54h2M43 54h1M83 54h1M12 55h3M16 55h3M20 55h2M43 55h3M11 56h3M15 56h3M19 56h3M44 56h4M10 57h4M15 57h3M19 57h3M44 57h5M10 58h8M19 58h3M45 58h3M81 58h2M9 59h3M13 59h4M18 59h4M48 59h2M81 59h2M8 60h4M13 60h4M18 60h4M48 60h3M82 60h1M8 61h4M13 61h4M18 61h4M48 61h3M7 62h4M12 62h10M48 62h3M7 63h4M12 63h9M49 63h1M81 63h1M7 64h4M12 64h3M16 64h5M49 64h3M81 64h1M6 65h9M16 65h4M49 65h4M81 65h1M6 66h1M8 66h7M16 66h4M50 66h3M80 66h1M6 67h1M8 67h7M16 67h3M51 67h2M8 68h2M11 68h4M17 68h1M19 68h1M54 68h2M78 68h1M8 69h1M11 69h4M16 69h1M18 69h1M54 69h3M74 69h2M78 69h1M9 70h1M12 70h3M55 70h2M74 70h1M11 71h1M13 71h1M59 71h2M64 71h3M70 71h1M12 72h1M60 72h1M65 72h2M70 72h2" />
<path stroke="#be3c45" d="M52 36h1M82 36h1M82 37h2M50 38h1M81 38h4M47 39h1M64 39h1M68 39h1M81 39h4M86 39h1M65 40h1M81 40h4M66 41h1M70 41h1M80 41h5M62 42h1M80 42h5M66 43h1M69 43h1M80 43h5M65 44h1M70 44h1M80 44h5M71 45h1M80 45h4M81 46h3M81 47h3M23 48h1M81 48h2M84 48h1M20 49h4M82 49h1M18 50h6M82 50h1M16 51h2M21 51h3M81 51h2M15 52h1M20 52h4M80 52h2M16 53h1M22 53h1M80 53h2M15 54h1M19 54h1M22 54h1M80 54h3M15 55h1M19 55h1M22 55h1M81 55h2M14 56h1M18 56h1M22 56h1M42 56h2M81 56h1M14 57h1M18 57h1M22 57h1M43 57h1M80 57h2M18 58h1M44 58h1M48 58h1M79 58h2M12 59h1M17 59h1M47 59h1M79 59h2M12 60h1M17 60h1M47 60h1M79 60h3M12 61h1M17 61h1M47 61h1M80 61h2M11 62h1M47 62h1M80 62h1M11 63h1M21 63h1M48 63h1M79 63h2M11 64h1M15 64h1M78 64h3M15 65h1M20 65h1M78 65h3M7 66h1M15 66h1M20 66h1M49 66h1M78 66h2M81 66h1M7 67h1M15 67h1M19 67h2M49 67h2M77 67h3M6 68h1M10 68h1M16 68h1M18 68h1M20 68h1M50 68h4M75 68h3M6 69h1M9 69h2M17 69h1M19 69h2M53 69h1M76 69h2M6 70h1M8 70h1M11 70h1M16 70h5M53 70h2M75 70h3M6 71h1M8 71h2M12 71h1M14 71h1M16 71h4M54 71h4M61 71h1M67 71h1M71 71h6M6 72h1M8 72h2M11 72h1M13 72h2M16 72h4M58 72h2M61 72h4M67 72h3M72 72h2M6 73h1M8 73h2M11 73h4M16 73h4M59 73h3M64 73h5M70 73h4M6 74h1M8 74h7M17 74h3M65 74h3M70 74h3M6 75h2M9 75h6M17 75h2M6 76h2M9 76h2M12 76h3M17 76h2M7 77h1M9 77h2M12 77h3M18 77h1M7 78h1M9 78h2M12 78h3M18 78h1M10 79h2M13 79h2M10 80h2M13 80h2M10 81h2M13 81h2M11 82h1M14 82h1M11 83h1M14 83h1" />
<path stroke="#fae2c0" d="M49 41h2M51 42h3M54 43h3M57 44h1M74 74h1M73 75h2M71 76h4M72 77h4M72 78h4M73 79h4M73 80h4M74 81h4M74 82h4M74 83h5M75 84h6M75 85h7M77 86h5" />
<path stroke="#d3a79a" d="M51 41h1M50 42h1M54 42h2M53 43h1M57 43h1M56 44h1M58 44h1M71 50h2M71 51h3M50 52h1M55 52h1M73 52h1M51 53h4M74 53h1M52 54h3M70 54h3M52 55h4M72 55h2M51 56h2M56 56h1M50 57h2M50 58h1M32 61h4M32 62h5M31 63h1M33 63h3M67 63h2M30 64h3M35 64h1M56 64h1M67 64h2M30 65h5M66 65h4M73 65h1M30 66h6M55 66h1M66 66h4M73 66h1M29 67h7M67 67h4M72 67h2M29 68h6M67 68h7M28 69h7M67 69h6M27 70h8M49 70h3M68 70h2M27 71h8M49 71h4M26 72h7M48 72h5M25 73h6M47 73h5M25 74h4M46 74h4M24 75h4M45 75h4M24 76h3M44 76h4M23 77h4M43 77h5M23 78h3M42 78h5M22 79h4M41 79h6M22 80h4M41 80h6M22 81h3M42 81h4M22 82h3M42 82h4M22 83h3M42 83h4M22 84h3M43 84h3M22 85h3M43 85h3M22 86h3M43 86h3M22 87h4M44 87h3M23 88h4M44 88h3M23 89h3M44 89h4M44 90h4M44 91h4M46 92h3" />
<path stroke="#34313e" d="M67 43h2M66 44h4M67 45h4M69 46h3M71 47h1M72 48h1M62 85h1M82 85h1M26 86h1M82 86h2M27 87h2M27 88h1M48 90h2M48 91h1M49 92h2" />
<path stroke="#9d6862" d="M32 60h3M31 61h1M36 61h1M67 61h1M67 62h1M59 65h1M59 66h2M74 66h1M58 67h4M74 67h1M28 68h1M57 68h5M58 69h3M58 70h1M26 71h1M48 71h1M54 73h4M75 73h1M50 74h1M54 74h5M75 74h1M49 75h1M55 75h4M75 75h1M48 76h1M55 76h4M75 76h1M48 77h1M55 77h4M76 77h1M47 78h1M55 78h4M76 78h1M47 79h1M56 79h3M77 79h1M40 80h1M47 80h1M56 80h3M77 80h1M41 81h1M46 81h1M56 81h4M78 81h1M46 82h1M56 82h4M78 82h1M46 83h1M56 83h5M79 83h2M42 84h1M46 84h1M56 84h6M81 84h1M46 85h1M57 85h5M46 86h1M57 86h4M43 87h1M47 87h1M47 88h1" />
</svg>