<svg xmlns="http://www.w3.org/2000/svg" viewBox="0 -0.5 96 96" shape-rendering="crispEdges">
<metadata>Made with Pixels to Svg https://codepen.io/shshaw/pen/XbxvNj</metadata>
<path stroke="#2d2f7b" d="M60 10h7M60 11h1M67 11h3M61 12h1M70 12h2M59 13h4M72 13h1M57 14h2M73 14h1M56 15h1M74 15h1M55 16h1M74 16h1M54 17h1M75 17h1M54 18h1M75 18h1M53 19h1M75 19h1M53 20h1M76 20h1M52 21h1M76 21h1M52 22h1M76 22h1M52 23h1M77 23h1M51 24h1M77 24h1M51 25h1M77 25h1M87 25h2M50 26h1M78 26h1M86 26h1M88 26h1M50 27h1M54 27h1M78 27h1M86 27h1M88 27h1M49 28h1M53 28h1M79 28h1M85 28h1M88 28h1M52 29h1M85 29h1M88 29h1M52 30h1M55 30h1M88 30h1M51 31h1M88 31h1M51 32h1M88 32h1M50 33h1M53 33h1M88 33h1M50 34h1M88 34h1M49 35h1M88 35h1M87 36h1M89 36h2M87 37h2M90 37h1M87 38h1M90 38h1M86 39h1M89 39h1M87 42h2M89 43h1M83 44h1M83 45h1M83 46h1M83 47h1M86 48h1M14 50h1M21 50h1M82 50h1M12 51h2M82 51h1M11 52h1M82 52h1M85 52h1M10 53h1M20 53h1M82 53h1M9 54h1M82 54h1M8 55h1M82 55h1M8 56h1M82 56h1M7 57h1M19 57h1M7 58h1M6 59h1M5 60h1M4 61h1M7 61h1M7 62h1M16 62h1M6 63h1M6 64h1M16 64h2M6 65h1M6 66h1M6 67h1M6 68h1M61 71h1M76 71h2M61 72h1M76 72h2M7 73h1M59 73h1M61 73h1M75 73h2M78 73h1M58 74h2M61 74h1M74 74h2M78 74h1M58 75h1M61 75h1M74 75h2M79 75h1M60 76h1M79 76h1M60 77h1M79 77h1M9 78h1M59 78h1M76 78h1M79 78h1M76 79h1M78 79h1M9 80h1M78 80h1M8 81h1M78 81h1M59 82h1M78 82h2M58 83h1M77 83h1M58 84h1M78 84h1M58 85h1M78 85h1" />
<path stroke="#396dce" d="M61 11h6M62 12h8M63 13h8M59 14h14M57 15h6M68 15h6M56 16h5M63 16h6M71 16h3M55 17h3M66 17h5M72 17h3M55 18h1M68 18h7M54 19h1M66 19h9M68 20h8M70 21h6M71 22h1M73 22h3M72 23h1M74 23h2M75 24h2M76 25h1M77 26h1M87 26h1M87 27h1M86 28h2M86 29h2M86 30h2M86 31h2M86 32h2M86 33h2M87 34h1M87 35h1M86 36h1M86 37h1M89 37h1M85 38h2M88 38h1M85 39h1M87 39h2M85 40h3M85 41h2M85 42h2M86 43h3M13 52h3M11 53h5M10 54h7M9 55h7M17 55h1M9 56h6M16 56h1M8 57h8M8 58h7M16 58h1M7 59h5M13 59h1M6 60h2M9 60h2M5 61h2M8 61h2M8 62h2M8 63h1M60 72h1M60 73h1M77 73h1M60 74h1M77 74h1M60 75h1M76 75h3M59 76h1M76 76h3M58 77h2M77 77h2M58 78h1M77 78h2M58 79h1M77 79h1M77 80h1M77 81h1M77 82h1M59 83h1M78 83h2M59 84h1M79 84h1M79 85h1" />
<path stroke="#2d48a8" d="M71 13h1M58 17h8M56 18h12M55 19h11M54 20h14M53 21h17M53 22h18M72 22h1M53 23h19M73 23h1M76 23h1M52 24h23M52 25h19M73 25h3M51 26h12M65 26h6M75 26h2M51 27h3M55 27h8M67 27h4M76 27h2M50 28h2M54 28h2M58 28h4M68 28h2M77 28h2M53 29h3M59 29h3M78 29h2M53 30h2M60 30h1M52 31h3M52 32h2M51 33h2M51 34h2M50 35h2M50 36h1M89 38h1M88 40h1M84 41h1M87 41h1M84 42h1M84 43h2M84 44h3M84 45h3M84 46h3M84 47h3M20 48h2M83 48h3M18 49h4M83 49h3M17 50h4M83 50h3M14 51h7M83 51h3M12 52h1M16 52h5M83 52h2M16 53h4M83 53h2M17 54h3M83 54h2M16 55h1M18 55h2M83 55h2M15 56h1M17 56h3M83 56h1M16 57h3M83 57h1M15 58h1M17 58h2M83 58h1M12 59h1M14 59h5M8 60h1M11 60h8M10 61h9M10 62h6M17 62h2M7 63h1M9 63h7M17 63h2M7 64h9M18 64h1M7 65h10M7 66h10M7 67h10M7 68h10M7 69h10M7 70h10M7 71h9M7 72h9M8 73h8M8 74h8M76 74h1M8 75h7M59 75h1M9 76h6M58 76h1M75 76h1M9 77h6M75 77h2M10 78h4M10 79h4M57 79h1M10 80h3M57 80h1M9 81h2M57 81h1M57 82h2" />
<path stroke="#f2db8a" d="M63 15h5M61 16h2M69 16h2M71 17h1" />
<path stroke="#080808" d="M71 25h1M63 26h1M71 26h1M63 27h1M71 27h1M52 28h1M56 28h1M62 28h1M70 28h1M48 29h4M56 29h1M62 29h1M70 29h1M61 30h1M55 31h1M54 32h1M54 33h1M53 34h1M52 35h1M33 36h1M51 36h1M32 37h1M47 37h1M42 38h1M47 38h1M31 39h1M37 39h1M42 39h1M46 39h1M37 40h1M42 40h1M89 40h1M35 41h2M88 41h1M29 44h2M87 44h3M26 45h3M33 45h1M87 45h1M23 46h2M29 46h1M70 46h1M87 46h1M21 47h2M30 47h1M70 47h1M87 47h1M19 48h1M22 48h1M22 49h1M86 49h1M71 50h1M86 50h1M21 51h1M86 51h1M21 52h1M72 53h1M85 53h1M20 54h1M72 54h1M81 54h1M85 54h1M20 55h1M81 55h1M85 55h1M20 56h1M81 56h1M84 56h1M82 57h1M84 57h1M19 58h1M80 58h1M82 58h1M84 58h1M19 59h1M55 59h1M80 59h1M82 59h2M19 60h1M55 60h1M73 60h1M78 60h2M19 61h1M29 61h1M55 61h1M73 61h1M76 61h2M4 62h3M19 62h1M30 62h1M55 62h1M63 62h1M73 62h1M75 62h1M16 63h1M19 63h1M31 63h1M55 63h1M63 63h1M73 63h2M19 64h1M32 64h2M35 64h1M54 64h1M63 64h1M17 65h3M25 65h1M34 65h1M38 65h1M54 65h1M63 65h1M17 66h1M24 66h1M34 66h4M48 66h1M52 66h1M54 66h1M60 66h5M72 66h1M17 67h1M23 67h1M36 67h1M47 67h1M51 67h1M53 67h1M56 67h1M61 67h1M64 67h1M72 67h1M17 68h1M22 68h1M35 68h1M46 68h1M49 68h2M53 68h1M56 68h3M62 68h1M64 68h1M72 68h1M6 69h1M17 69h1M21 69h1M34 69h1M45 69h1M52 69h3M57 69h1M59 69h4M64 69h1M72 69h1M6 70h1M17 70h1M20 70h2M33 70h1M44 70h1M52 70h1M55 70h3M59 70h1M65 70h1M72 70h1M76 70h1M6 71h1M16 71h1M18 71h2M21 71h1M31 71h2M42 71h2M51 71h1M58 71h1M60 71h1M65 71h1M75 71h1M6 72h1M16 72h2M20 72h1M29 72h2M40 72h2M50 72h2M58 72h2M66 72h1M73 72h1M75 72h1M16 73h1M20 73h1M27 73h2M36 73h4M48 73h2M51 73h1M58 73h1M67 73h1M73 73h2M7 74h1M16 74h1M19 74h1M26 74h1M38 74h1M47 74h1M52 74h1M57 74h1M68 74h1M73 74h1M7 75h1M15 75h1M18 75h1M25 75h1M37 75h1M46 75h1M52 75h1M57 75h1M68 75h1M8 76h1M15 76h1M18 76h1M25 76h1M37 76h1M46 76h1M52 76h1M57 76h1M69 76h1M74 76h1M8 77h1M15 77h1M18 77h1M24 77h1M37 77h1M45 77h1M52 77h1M57 77h1M69 77h1M14 78h1M18 78h1M24 78h1M38 78h1M45 78h1M53 78h1M57 78h1M70 78h1M9 79h1M14 79h1M18 79h1M24 79h1M38 79h1M45 79h1M53 79h1M59 79h1M70 79h1M13 80h1M19 80h1M23 80h1M39 80h1M44 80h1M53 80h1M58 80h1M71 80h1M11 81h2M19 81h1M23 81h1M39 81h1M44 81h1M53 81h1M58 81h1M71 81h1M8 82h3M19 82h1M23 82h1M39 82h1M44 82h1M53 82h1M71 82h1M19 83h1M23 83h1M40 83h1M44 83h1M53 83h1M60 83h1M72 83h1M80 83h1M19 84h1M23 84h3M40 84h1M44 84h1M54 84h1M61 84h1M72 84h1M81 84h1M19 85h1M23 85h1M25 85h2M40 85h1M44 85h1M54 85h1M59 85h3M73 85h2M82 85h1M19 86h1M24 86h1M27 86h1M41 86h1M45 86h1M55 86h4M75 86h8M20 87h1M26 87h2M41 87h1M45 87h1M20 88h1M24 88h2M41 88h1M46 88h2M21 89h3M41 89h1M48 89h1M41 90h1M47 90h3M42 91h2M49 91h1M44 92h6" />
<path stroke="#731a27" d="M72 25h1M64 26h1M73 26h2M81 26h2M65 27h2M75 27h1M80 27h1M83 27h2M57 28h1M67 28h1M76 28h1M80 28h1M84 28h1M58 29h1M68 29h2M77 29h1M80 29h1M56 30h1M59 30h1M70 30h2M78 30h2M85 30h1M60 31h2M72 31h1M79 31h1M85 31h1M55 32h1M62 32h2M73 32h1M79 32h1M85 32h1M64 33h3M74 33h1M79 33h2M85 33h1M67 34h1M75 34h2M81 34h6M31 35h3M68 35h2M77 35h3M86 35h1M29 36h2M48 36h2M53 36h6M70 36h3M80 36h3M85 36h1M27 37h2M43 37h2M50 37h3M59 37h3M73 37h4M82 37h1M85 37h1M25 38h2M31 38h1M38 38h2M45 38h1M50 38h1M62 38h2M76 38h1M81 38h1M84 38h1M21 39h2M24 39h1M40 39h1M45 39h1M51 39h1M64 39h1M76 39h1M81 39h1M84 39h1M20 40h1M22 40h2M31 40h2M41 40h1M46 40h1M52 40h2M65 40h1M75 40h1M80 40h1M84 40h1M19 41h1M22 41h1M33 41h2M42 41h1M75 41h1M80 41h1M18 42h1M35 42h1M75 42h1M80 42h1M83 42h1M18 43h1M68 43h1M75 43h1M79 43h1M83 43h1M17 44h1M28 44h1M31 44h2M69 44h1M74 44h1M79 44h1M17 45h1M25 45h1M29 45h4M34 45h1M69 45h2M74 45h1M79 45h1M16 46h1M22 46h1M27 46h1M30 46h6M74 46h1M79 46h1M16 47h1M20 47h1M26 47h1M31 47h4M15 48h1M18 48h1M26 48h1M31 48h3M70 48h1M82 48h1M15 49h1M17 49h1M25 49h1M32 49h1M71 49h1M75 49h1M82 49h1M15 50h2M25 50h1M53 50h1M24 51h1M54 51h1M71 51h1M24 52h1M37 52h1M54 52h1M72 52h1M74 52h1M79 52h1M24 53h1M37 53h1M81 53h1M23 54h1M37 54h2M23 55h1M25 55h1M38 55h1M55 55h1M72 55h1M22 56h1M24 56h1M38 56h1M55 56h1M73 56h1M21 57h1M24 57h1M28 57h1M38 57h1M55 57h1M66 57h1M73 57h1M78 57h1M80 57h1M21 58h3M28 58h1M30 58h4M38 58h1M55 58h1M66 58h1M73 58h1M23 59h1M28 59h2M34 59h2M37 59h1M65 59h2M73 59h1M23 60h1M27 60h1M29 60h1M36 60h2M63 60h1M67 60h1M22 61h1M27 61h1M30 61h1M37 61h1M54 61h1M61 61h1M67 61h1M22 62h1M26 62h1M36 62h1M40 62h1M54 62h1M56 62h2M67 62h1M21 63h1M26 63h1M36 63h1M40 63h1M53 63h1M68 63h1M72 63h1M21 64h1M25 64h1M39 64h1M49 64h1M53 64h1M68 64h1M72 64h1M20 65h1M39 65h1M48 65h2M52 65h1M69 65h1M72 65h1M20 66h1M39 66h1M49 66h1M69 66h1M19 67h1M38 67h1M49 67h1M70 67h1M19 68h1M38 68h1M70 68h1M18 69h1M38 69h1M71 69h1M37 70h1M37 71h1M36 72h1" />
<path stroke="#eb363a" d="M72 26h1M64 27h1M72 27h2M81 27h2M64 28h2M73 28h3M81 28h3M57 29h1M65 29h3M73 29h4M81 29h3M57 30h2M66 30h4M75 30h3M81 30h4M58 31h2M68 31h3M76 31h2M81 31h4M59 32h3M70 32h3M76 32h3M82 32h3M61 33h3M71 33h3M77 33h2M63 34h3M72 34h3M78 34h3M64 35h4M73 35h4M80 35h6M31 36h2M65 36h5M73 36h7M83 36h2M29 37h3M49 37h1M66 37h7M77 37h5M83 37h2M27 38h4M44 38h1M48 38h2M67 38h9M77 38h4M82 38h1M25 39h6M39 39h1M43 39h2M47 39h4M69 39h7M77 39h3M21 40h1M24 40h2M29 40h2M38 40h3M43 40h2M47 40h5M54 40h3M72 40h3M20 41h2M30 41h3M37 41h5M43 41h3M48 41h12M19 42h3M32 42h3M36 42h10M48 42h14M19 43h1M34 43h13M49 43h11M18 44h1M38 44h10M49 44h8M41 45h7M49 45h4M43 46h6M24 54h1M24 55h1M23 56h1M22 57h1M24 59h1M24 60h2M23 61h3M38 61h1M23 62h2M37 62h2M22 63h2M37 63h3M42 63h1M22 64h2M36 64h3M42 64h1M21 65h2M35 65h2M41 65h2M21 66h1M40 66h3M20 67h1M39 67h4M39 68h3M39 69h3M38 70h3M38 71h1M37 72h1" />
<path stroke="#ae2836" d="M74 27h1M63 28h1M66 28h1M71 28h2M63 29h2M71 29h2M84 29h1M62 30h4M72 30h3M80 30h1M56 31h2M62 31h6M71 31h1M73 31h3M78 31h1M80 31h1M56 32h3M64 32h6M74 32h2M80 32h2M55 33h6M67 33h4M75 33h2M81 33h4M54 34h9M66 34h1M68 34h4M77 34h1M53 35h11M70 35h3M52 36h1M59 36h6M48 37h1M53 37h6M62 37h4M43 38h1M51 38h11M64 38h3M83 38h1M38 39h1M52 39h12M65 39h4M80 39h1M82 39h2M26 40h3M57 40h8M66 40h6M76 40h4M81 40h3M23 41h7M60 41h15M76 41h4M81 41h3M22 42h10M62 42h13M76 42h4M81 42h2M20 43h14M60 43h8M69 43h6M76 43h3M80 43h3M19 44h9M33 44h5M57 44h12M70 44h4M75 44h4M80 44h3M18 45h7M35 45h6M53 45h16M71 45h3M75 45h4M80 45h3M17 46h5M28 46h1M36 46h7M49 46h21M71 46h3M75 46h4M80 46h3M17 47h3M27 47h3M35 47h35M71 47h3M75 47h4M80 47h3M16 48h2M27 48h4M34 48h36M71 48h3M75 48h4M80 48h2M16 49h1M26 49h6M33 49h25M59 49h12M72 49h2M76 49h3M80 49h2M26 50h27M54 50h4M60 50h11M72 50h2M76 50h3M80 50h2M25 51h23M49 51h5M55 51h4M60 51h2M63 51h8M72 51h2M76 51h2M80 51h2M25 52h12M38 52h10M50 52h4M55 52h7M63 52h7M71 52h1M73 52h1M76 52h2M80 52h2M25 53h12M38 53h10M51 53h11M63 53h7M71 53h1M73 53h2M76 53h2M79 53h2M25 54h12M39 54h10M51 54h10M63 54h7M71 54h1M73 54h2M76 54h2M79 54h2M26 55h12M39 55h11M52 55h3M56 55h5M62 55h5M71 55h1M73 55h2M76 55h2M79 55h2M25 56h13M39 56h8M49 56h2M52 56h3M56 56h5M62 56h7M72 56h1M74 56h1M76 56h1M79 56h2M23 57h1M25 57h3M29 57h9M39 57h8M50 57h5M56 57h4M62 57h4M67 57h3M71 57h2M74 57h1M76 57h1M79 57h1M24 58h4M29 58h1M34 58h4M39 58h10M51 58h4M56 58h4M61 58h5M67 58h3M71 58h2M74 58h1M76 58h1M78 58h2M25 59h3M36 59h1M38 59h13M52 59h3M56 59h3M61 59h4M67 59h3M71 59h2M74 59h1M76 59h1M78 59h2M26 60h1M38 60h17M56 60h3M61 60h2M68 60h2M71 60h2M74 60h1M76 60h1M26 61h1M39 61h15M56 61h2M68 61h2M71 61h2M74 61h1M25 62h1M39 62h1M41 62h13M68 62h2M71 62h2M74 62h1M24 63h2M41 63h1M43 63h10M69 63h3M24 64h1M40 64h2M43 64h6M50 64h3M69 64h3M23 65h2M37 65h1M40 65h1M43 65h5M50 65h2M70 65h2M22 66h2M43 66h5M50 66h2M70 66h2M21 67h2M43 67h4M50 67h1M71 67h1M20 68h2M42 68h4M71 68h1M19 69h2M42 69h3M18 70h2M41 70h3M17 71h1M39 71h3M38 72h2" />
<path stroke="#c2c3cf" d="M45 40h1M46 41h1M47 42h1M47 43h1M48 44h1M48 45h1M60 67h1M61 68h1M71 70h1M70 71h2M70 72h3M69 73h4M69 74h4M69 75h4M70 76h4M70 77h4M71 78h4M71 79h4M72 80h4M72 81h5M72 82h5M73 83h4M73 84h5M75 85h3" />
<path stroke="#8887a8" d="M47 41h1M46 42h1M48 43h1M58 49h1M58 50h2M48 51h1M59 51h1M62 51h1M48 52h2M62 52h1M70 52h1M48 53h3M62 53h1M70 53h1M49 54h2M61 54h2M70 54h1M50 55h2M61 55h1M67 55h4M47 56h2M51 56h1M61 56h1M69 56h3M47 57h3M60 57h2M70 57h1M49 58h2M60 58h1M70 58h1M30 59h4M51 59h1M59 59h2M70 59h1M28 60h1M30 60h6M59 60h2M64 60h3M70 60h1M28 61h1M31 61h6M58 61h3M62 61h5M70 61h1M27 62h3M31 62h5M58 62h5M64 62h3M70 62h1M27 63h4M32 63h4M54 63h1M56 63h7M64 63h4M26 64h6M34 64h1M55 64h8M64 64h4M26 65h8M53 65h1M55 65h8M64 65h5M25 66h9M53 66h1M55 66h5M65 66h4M24 67h12M48 67h1M52 67h1M54 67h2M57 67h3M65 67h5M23 68h12M47 68h2M51 68h2M54 68h2M59 68h2M65 68h5M22 69h12M46 69h6M55 69h2M58 69h1M65 69h6M22 70h11M45 70h7M53 70h2M58 70h1M66 70h5M22 71h9M44 71h7M52 71h6M66 71h4M72 71h1M21 72h8M42 72h8M52 72h6M67 72h3M21 73h6M40 73h8M52 73h6M68 73h1M20 74h6M39 74h8M53 74h4M19 75h6M38 75h8M53 75h4M73 75h1M19 76h6M38 76h8M53 76h4M19 77h5M38 77h7M53 77h4M74 77h1M19 78h5M39 78h6M54 78h3M75 78h1M19 79h5M39 79h6M54 79h3M75 79h1M20 80h3M40 80h4M54 80h3M76 80h1M20 81h3M40 81h4M54 81h3M20 82h3M40 82h4M54 82h3M20 83h3M41 83h3M54 83h4M20 84h3M41 84h3M55 84h3M20 85h3M41 85h3M55 85h3M20 86h4M42 86h3M21 87h4M42 87h3M21 88h3M42 88h4M42 89h4M42 90h4M44 91h3" />
<path stroke="#34313e" d="M74 47h1M79 47h1M74 48h1M79 48h1M74 49h1M79 49h1M74 50h2M79 50h1M74 51h2M78 51h2M75 52h1M78 52h1M75 53h1M78 53h1M75 54h1M78 54h1M75 55h1M78 55h1M75 56h1M77 56h2M75 57h1M77 57h1M75 58h1M77 58h1M75 59h1M77 59h1M75 60h1M77 60h1M75 61h1M60 84h1M80 84h1M24 85h1M80 85h2M25 86h2M25 87h1M46 89h2M46 90h1M47 91h2" />
</svg>