<svg xmlns="http://www.w3.org/2000/svg" viewBox="0 -0.5 96 96" shape-rendering="crispEdges">
<metadata>Made with Pixels to Svg https://codepen.io/shshaw/pen/XbxvNj</metadata>
<path stroke="#735a8b" d="M31 35h2M48 35h5M30 36h1M33 36h2M43 36h1M45 36h2M53 36h3M62 36h2M35 37h2M40 37h1M44 37h1M56 37h2M61 37h1M64 37h1M38 38h1M43 38h1M53 38h2M59 38h1M64 38h1M32 39h1M37 39h1M42 39h1M51 39h2M58 39h1M33 40h2M36 40h1M42 40h1M50 40h1M55 40h2M36 41h1M41 41h1M49 41h1M35 42h1M40 42h2M48 42h1M55 42h1M35 43h1M47 43h1M54 43h3M60 43h1M54 44h6M55 45h5M45 46h2M56 46h3M33 47h7M32 48h2M39 48h5M31 49h1M34 49h5M41 49h1M44 49h2M30 50h1M32 50h2M36 50h5M42 50h1M46 50h1M57 50h1M60 50h2M29 51h1M31 51h5M37 51h5M59 51h2M35 52h2M39 52h4M47 52h1M58 52h1M50 53h1M56 53h1M34 54h3M47 54h2M31 55h9M41 55h6M57 55h1M33 56h5M40 56h6M58 56h2M30 57h2M34 57h2M38 57h6M46 57h1M48 57h1M60 57h1M32 58h2M36 58h5M44 58h1M34 59h2M41 59h1M36 60h4" />
<path stroke="#4a3962" d="M44 35h4M41 36h2M30 37h1M38 37h2M60 37h1M31 38h1M37 38h1M58 38h1M36 39h1M57 39h1M63 39h1M33 41h1M32 42h1M62 42h1M32 43h1M40 43h1M63 43h1M31 44h1M35 44h1M40 44h1M47 44h1M63 44h1M35 45h5M46 45h1M63 45h1M33 46h2M40 46h2M62 46h1M32 47h1M42 47h2M45 47h1M61 47h1M31 48h1M34 48h5M44 48h2M60 48h1M32 49h2M39 49h2M46 49h1M59 49h4M29 50h1M31 50h1M34 50h2M41 50h1M58 50h1M63 50h1M30 51h1M36 51h1M42 51h2M47 51h1M55 51h1M64 51h1M33 52h2M37 52h2M43 52h2M53 52h1M64 52h1M51 53h1M61 53h3M37 54h1M49 54h1M53 54h1M60 54h1M40 55h1M51 55h1M58 55h2M61 55h1M30 56h3M38 56h2M46 56h2M62 56h1M32 57h2M36 57h2M44 57h2M34 58h2M41 58h3M36 59h5M35 60h1M43 60h1" />
<path stroke="#9c8bc5" d="M31 36h1M44 36h1M47 36h2M31 37h2M43 37h1M32 38h3M39 38h1M42 38h1M52 38h1M55 38h3M63 38h1M33 39h3M38 39h1M50 39h1M56 39h1M61 39h2M35 40h1M37 40h5M43 40h1M49 40h1M54 40h1M57 40h5M34 41h2M37 41h4M42 41h7M50 41h11M33 42h2M36 42h4M42 42h6M49 42h6M56 42h4M61 42h1M33 43h2M36 43h4M41 43h6M48 43h6M57 43h2M61 43h2M32 44h3M36 44h4M41 44h6M48 44h6M60 44h3M32 45h3M40 45h6M47 45h8M60 45h3M32 46h1M35 46h5M42 46h3M47 46h9M59 46h3M40 47h2M44 47h1M46 47h15M46 48h14M42 49h2M47 49h12M43 50h3M47 50h10M62 50h1M44 51h3M48 51h7M61 51h3M45 52h2M48 52h5M59 52h5M46 53h4M57 53h4M54 54h6M52 55h5M60 55h1M48 56h8M60 56h2M47 57h1M49 57h4M61 57h1M45 58h3M42 59h4M40 60h3" />
<path stroke="#c5bdee" d="M32 36h1M49 36h4M33 37h2M41 37h2M45 37h11M35 38h2M40 38h2M44 38h8M60 38h3M39 39h3M43 39h7M53 39h3M59 39h2M44 40h5M51 40h3" />
<path stroke="#dedef6" d="M62 37h2" />
<path stroke="#101010" d="M62 40h1M61 41h1M60 42h1M59 43h1M31 45h1M31 46h1M31 47h1M29 49h2M28 50h1M59 50h1M28 51h1M56 51h3M28 52h5M54 52h4M34 53h12M52 53h4M31 54h3M38 54h9M50 54h3M29 55h2M47 55h4M29 56h1M56 56h2M29 57h1M53 57h3M58 57h2M62 57h1M30 58h2M48 58h5M60 58h2M32 59h2M46 59h2M34 60h1M44 60h2M36 61h7" />
</svg>