<svg xmlns="http://www.w3.org/2000/svg" viewBox="0 -0.5 32 32" shape-rendering="crispEdges">
<metadata>Made with Pixels to Svg https://codepen.io/shshaw/pen/XbxvNj</metadata>
<path stroke="#202020" d="M15 9h4M13 10h2M19 10h2M11 11h2M21 11h1M10 12h1M22 12h1M9 13h1M22 13h1M9 14h1M23 14h1M8 15h1M23 15h1M8 16h1M23 16h1M8 17h1M23 17h1M8 18h1M22 18h1M8 19h1M21 19h1M9 20h1M18 20h3M10 21h8" />
<path stroke="#e6e6d5" d="M15 10h1M13 11h2M16 11h1M20 11h1M12 12h2M15 12h1M21 12h1M10 13h2M13 13h2M16 13h1M10 14h6M11 15h1M13 15h3M10 16h1M12 16h1M14 16h1M11 17h1" />
<path stroke="#cdcdbd" d="M16 10h3M15 11h1M17 11h3M11 12h1M14 12h1M16 12h5M12 13h1M15 13h1M17 13h1M21 13h1M16 14h1M10 15h1M12 15h1M9 16h1M11 16h1M13 16h1M15 16h1M9 17h2M12 17h4M10 18h5" />
<path stroke="#acac9c" d="M18 13h3M17 14h2M20 14h1M9 15h1M16 15h4M21 15h1M16 16h1M18 16h1M20 16h1M22 16h1M16 17h2M19 17h1M9 18h1M15 18h2M11 19h1M13 19h3M17 19h1M12 20h1M14 20h1" />
<path stroke="#9c948b" d="M19 14h1M21 14h1M20 15h1M22 15h1M17 16h1M21 16h1M20 17h1M22 17h1M17 18h3M9 19h1M12 19h1M16 19h1M13 20h1M15 20h2" />
<path stroke="#8b8373" d="M22 14h1M19 16h1M18 17h1M21 17h1M20 18h2M10 19h1M18 19h3M10 20h2M17 20h1" />
</svg>