<svg xmlns="http://www.w3.org/2000/svg" viewBox="0 -0.5 32 32" shape-rendering="crispEdges">
<metadata>Made with Pixels to Svg https://codepen.io/shshaw/pen/XbxvNj</metadata>
<path stroke="#202020" d="M13 8h6M11 9h2M19 9h2M10 10h1M21 10h1M9 11h1M22 11h1M9 12h1M22 12h1M8 13h1M23 13h1M8 14h1M23 14h1M8 15h1M23 15h1M8 16h1M23 16h1M8 17h1M23 17h1M8 18h1M23 18h1M9 19h1M22 19h1M9 20h1M22 20h1M10 21h1M21 21h1M11 22h2M19 22h2M13 23h6" />
<path stroke="#dede8b" d="M13 9h6M11 10h1M20 10h1M10 11h1M21 11h1M9 13h1M22 13h1M9 14h1M22 14h1M9 15h1M22 15h1M9 16h1M22 16h1M9 17h1M22 17h1M9 18h1M22 18h1M10 20h1M21 20h1M11 21h1M20 21h1M13 22h6" />
<path stroke="#e6de29" d="M12 10h2M18 11h1M10 12h1M10 13h1M20 13h1M15 15h2M15 16h2M11 18h1M20 18h1M13 20h1M18 20h1" />
<path stroke="#bdbd00" d="M14 10h4M14 11h1M19 11h1M20 12h1M14 13h1M10 14h2M13 14h1M21 14h1M10 15h1M21 15h1M10 16h1M21 16h1M10 17h1M21 17h1M11 19h1M20 19h1M12 20h1M19 20h1M14 21h4" />
<path stroke="#ffff9c" d="M18 10h2M11 11h1M13 11h1M20 11h1M19 12h1M21 12h1M11 13h1M18 13h1M21 13h1M15 14h2M14 15h1M17 15h1M14 16h1M17 16h1M15 17h2M10 18h1M13 18h1M18 18h1M21 18h1M10 19h1M12 19h1M19 19h1M21 19h1M11 20h1M20 20h1M12 21h2M18 21h2" />
<path stroke="#ffffff" d="M12 11h1M11 12h3M12 13h2M15 19h1" />
<path stroke="#a4a410" d="M15 11h3M15 13h3M18 14h1M20 14h1M11 15h1M13 15h1M18 15h1M20 15h1M11 16h1M13 16h1M18 16h1M20 16h1M11 17h1M13 17h1M18 17h1M20 17h1M14 18h4M14 20h4" />
<path stroke="#838300" d="M14 12h5M19 13h1M12 14h1M19 14h1M12 15h1M19 15h1M12 16h1M19 16h1M12 17h1M19 17h1M12 18h1M19 18h1M13 19h2M16 19h3" />
<path stroke="#ffffc5" d="M14 14h1M17 14h1M14 17h1M17 17h1" />
</svg>