<svg xmlns="http://www.w3.org/2000/svg" viewBox="0 -0.5 32 32" shape-rendering="crispEdges">
<metadata>Made with Pixels to Svg https://codepen.io/shshaw/pen/XbxvNj</metadata>
<path stroke="#202020" d="M15 7h4M13 8h2M19 8h1M12 9h1M20 9h1M11 10h1M21 10h1M10 11h1M21 11h1M10 12h1M22 12h1M9 13h1M22 13h1M9 14h1M22 14h1M8 15h1M22 15h1M8 16h1M22 16h1M8 17h1M22 17h1M8 18h1M22 18h1M8 19h1M22 19h1M9 20h1M21 20h1M9 21h1M21 21h1M10 22h1M20 22h1M11 23h2M18 23h2M13 24h5" />
<path stroke="#deeef6" d="M15 8h3M13 9h6M12 10h8M11 11h2M15 11h6M11 12h2M15 12h6M10 13h11M10 14h11M9 15h11M9 16h11M9 17h10M9 18h9M10 19h7M11 20h4" />
<path stroke="#cdd5de" d="M18 8h1M19 9h1M20 10h1M20 15h1M19 17h1M18 18h1M9 19h1M17 19h1M10 20h1M15 20h2M11 21h3M20 21h1M19 22h1M17 23h1" />
<path stroke="#ffffff" d="M13 11h2M13 12h2" />
<path stroke="#a4acb4" d="M21 12h1M21 13h1M21 14h1M21 15h1M20 16h2M20 17h2M19 18h3M18 19h4M17 20h4M10 21h1M14 21h6M11 22h8M13 23h4" />
</svg>