<svg xmlns="http://www.w3.org/2000/svg" viewBox="0 -0.5 32 32" shape-rendering="crispEdges">
<metadata>Made with Pixels to Svg https://codepen.io/shshaw/pen/XbxvNj</metadata>
<path stroke="#202020" d="M16 8h8M14 9h2M23 9h1M12 10h2M23 10h1M11 11h1M23 11h1M10 12h1M23 12h1M9 13h1M23 13h1M8 14h1M23 14h1M8 15h1M22 15h1M7 16h1M22 16h1M7 17h1M21 17h1M7 18h1M21 18h1M7 19h1M20 19h1M7 20h1M19 20h1M7 21h1M18 21h1M8 22h1M17 22h1M9 23h1M15 23h2M10 24h5" />
<path stroke="#eeee5a" d="M16 9h6M14 10h2M12 11h2M11 12h1M19 12h1M21 12h1M10 13h1M16 13h2M20 13h1M22 13h1M9 14h1M18 14h1M20 14h1M22 14h1M9 15h1M15 15h2M19 15h1M21 15h1M8 16h1M17 16h1M19 16h1M21 16h1M8 17h1M16 17h1M18 17h1M20 17h1M17 18h1M20 18h1M16 19h1M19 19h1M10 20h1M15 20h1M18 20h1M8 21h1M15 22h1" />
<path stroke="#c5c531" d="M22 9h1M21 10h2M19 11h4M17 12h2M20 12h1M22 12h1M18 13h2M21 13h1M15 14h3M19 14h1M21 14h1M17 15h2M20 15h1M16 16h1M18 16h1M20 16h1M17 17h1M19 17h1M8 18h1M16 18h1M18 18h2M8 19h1M17 19h2M8 20h1M16 20h2M11 21h1M14 21h3M9 22h6M10 23h2" />
<path stroke="#ffffee" d="M16 10h5M14 11h5M12 12h5M11 13h5M10 14h5M10 15h4M9 16h4M14 16h1M9 17h3M13 17h2M9 18h2M12 18h3M9 19h1M11 19h4M11 20h3M17 21h1M16 22h1M13 23h2" />
<path stroke="#dede7b" d="M14 15h1M13 16h1M15 16h1M12 17h1M15 17h1M11 18h1M15 18h1M10 19h1M15 19h1M9 20h1M14 20h1M12 21h2" />
<path stroke="#838308" d="M9 21h2M12 23h1" />
</svg>