<svg xmlns="http://www.w3.org/2000/svg" viewBox="0 -0.5 32 32" shape-rendering="crispEdges">
<metadata>Made with Pixels to Svg https://codepen.io/shshaw/pen/XbxvNj</metadata>
<path stroke="#202020" d="M18 8h7M16 9h2M24 9h1M14 10h2M24 10h1M13 11h1M24 11h1M12 12h1M24 12h1M11 13h1M23 13h1M10 14h1M23 14h1M10 15h1M22 15h1M9 16h1M22 16h1M9 17h1M21 17h1M8 18h1M20 18h1M8 19h1M19 19h1M8 20h1M17 20h2M8 21h1M14 21h3M7 22h1M9 22h5M6 23h1M8 23h1M6 24h2" />
<path stroke="#ee7b7b" d="M18 9h1M16 10h1M23 10h1M14 11h1M13 12h1M23 12h1M12 13h1M11 14h1M22 14h1M10 16h1M21 16h1M20 17h1M9 18h1M19 18h1M18 19h1M16 20h1M13 21h1" />
<path stroke="#ee3939" d="M19 9h3M17 10h2M20 10h1M15 11h4M14 12h2M17 12h2M13 13h3M17 13h1M12 14h1M14 14h2M11 15h2M14 15h2M11 16h2M14 16h1M10 17h3M10 18h1M12 18h1M9 19h2M9 20h2" />
<path stroke="#b43131" d="M22 9h1M19 10h1M21 10h1M19 11h2M16 12h1M16 13h1M18 13h1M13 14h1M16 14h2M13 15h1M13 16h1M15 16h1M13 17h2M11 18h1M11 19h2M9 21h1" />
<path stroke="#de4a4a" d="M23 9h1M22 10h1M23 11h1M20 12h1M19 13h1M21 14h1M17 15h1M16 16h1M15 17h1M19 17h1M14 18h1M13 19h1M12 20h1M10 21h1" />
<path stroke="#cd4a4a" d="M21 11h2M18 14h3M16 17h3M14 19h1" />
<path stroke="#bd5a5a" d="M19 12h1M16 15h1M13 18h1M11 20h1" />
<path stroke="#f66a6a" d="M21 12h2M20 13h3M18 15h4M17 16h4M15 18h4M15 19h3M13 20h3M11 21h2" />
<path stroke="#a45252" d="M8 22h1M7 23h1" />
</svg>