<svg xmlns="http://www.w3.org/2000/svg" viewBox="0 -0.5 32 32" shape-rendering="crispEdges">
<metadata>Made with Pixels to Svg https://codepen.io/shshaw/pen/XbxvNj</metadata>
<path stroke="#202020" d="M12 7h8M11 8h1M20 8h1M10 9h1M21 9h1M10 10h1M21 10h1M9 11h1M22 11h1M9 12h1M22 12h1M9 13h1M22 13h1M9 14h1M22 14h1M9 15h1M22 15h1M9 16h1M22 16h1M9 17h1M22 17h1M9 18h1M22 18h1M9 19h1M22 19h1M10 20h1M21 20h1M10 21h1M21 21h1M11 22h1M20 22h1M12 23h8" />
<path stroke="#414141" d="M12 8h6M11 9h1M17 9h2M18 10h1M10 11h1M14 11h1M18 11h2M13 12h3M19 12h1M12 13h2M15 13h2M19 13h1M12 14h1M16 14h1M19 14h1M12 15h1M16 15h1M19 15h1M12 16h1M16 16h1M19 16h1M12 17h2M15 17h2M19 17h1M13 18h3M19 18h1M10 19h1M14 19h1M18 19h2M18 20h1M11 21h1M17 21h2M12 22h6" />
<path stroke="#ac8b41" d="M18 8h1M19 9h1M19 10h2M20 11h1M20 12h2M20 13h2M20 14h2M20 15h2M20 16h2" />
<path stroke="#947331" d="M19 8h1M20 9h1M21 11h1M20 17h2M20 18h2M20 19h1M19 20h2M19 21h1M18 22h1" />
<path stroke="#73737b" d="M12 9h1M16 9h1M11 10h1M17 10h1M13 11h1M15 11h1M10 12h1M12 12h1M16 12h1M18 12h1M13 14h1M15 14h1M13 15h1M15 15h1M13 16h1M15 16h1M10 18h1M12 18h1M16 18h1M18 18h1M13 19h1M15 19h1M11 20h1M17 20h1M12 21h1M16 21h1" />
<path stroke="#cdcdd5" d="M13 9h1M15 9h1M11 11h1M17 11h1M10 13h1M14 13h1M18 13h1M10 17h1M14 17h1M18 17h1M11 19h1M17 19h1M13 21h1M15 21h1" />
<path stroke="#ffffff" d="M14 9h1M12 10h5M12 11h1M16 11h1M11 12h1M17 12h1M11 13h1M17 13h1M10 14h2M14 14h1M17 14h2M10 15h2M14 15h1M17 15h2M10 16h2M14 16h1M17 16h2M11 17h1M17 17h1M11 18h1M17 18h1M12 19h1M16 19h1M12 20h5M14 21h1" />
<path stroke="#7b6231" d="M21 19h1M20 21h1M19 22h1" />
</svg>