<svg xmlns="http://www.w3.org/2000/svg" viewBox="0 -0.5 32 32" shape-rendering="crispEdges">
<metadata>Made with Pixels to Svg https://codepen.io/shshaw/pen/XbxvNj</metadata>
<path stroke="#ffffff" d="M0 0h6M8 0h9M20 0h12M0 1h4M7 1h1M10 1h5M17 1h2M22 1h10M0 2h6M11 2h6M19 2h1M23 2h9M0 3h8M9 3h1M13 3h5M19 3h2M23 3h9M0 4h8M9 4h3M14 4h1M18 4h3M23 4h9M0 5h7M8 5h5M15 5h8M25 5h7M0 6h6M7 6h6M14 6h10M26 6h6M0 7h6M7 7h5M14 7h11M27 7h5M3 8h3M7 8h5M13 8h12M27 8h5M1 9h2M5 9h2M8 9h4M13 9h12M27 9h5M0 10h1M2 10h3M7 10h1M9 10h2M13 10h11M26 10h6M0 11h2M3 11h4M13 11h10M25 11h7M0 12h3M8 12h1M14 12h8M24 12h8M0 13h4M10 13h1M15 13h5M24 13h8M0 14h1M4 14h1M11 14h1M26 14h6M0 15h1M2 15h2M6 15h1M23 15h3M27 15h5M0 16h1M2 16h4M27 16h5M0 17h2M3 17h5M18 17h2M26 17h6M0 18h3M8 18h1M17 18h4M24 18h8M0 19h4M9 19h1M16 19h6M25 19h7M0 20h5M10 20h1M16 20h6M25 20h7M0 21h2M4 21h2M17 21h5M25 21h7M0 22h2M3 22h1M18 22h3M24 22h8M0 23h2M3 23h2M24 23h8M0 24h2M4 24h2M24 24h8M0 25h2M6 25h1M25 25h7M0 26h1M10 26h1M14 26h1M21 26h1M26 26h6M0 27h1M9 27h3M13 27h3M18 27h1M21 27h2M27 27h5M0 28h32M0 29h32M0 30h32M0 31h32" />
<path stroke="#191919" d="M6 0h2M17 0h3M5 1h1M8 1h1M16 1h1M20 1h2M7 2h1M10 2h1M17 2h1M22 2h1M11 3h1M18 3h1M22 3h1M13 4h1M17 4h1M22 4h1M7 5h1M23 5h1M25 6h1M6 7h1M26 7h1M0 8h2M26 8h1M0 9h1M3 9h1M7 9h1M5 10h1M25 10h1M2 11h1M8 11h1M3 12h1M9 12h2M23 12h1M4 13h1M11 13h2M23 13h1M2 14h2M5 14h2M12 14h2M22 14h1M24 14h2M1 15h1M4 15h2M7 15h1M13 15h2M22 15h1M1 16h1M6 16h3M13 16h4M19 16h4M26 16h1M2 17h1M8 17h2M13 17h4M22 17h4M3 18h1M9 18h2M12 18h4M23 18h1M4 19h1M10 19h1M12 19h1M14 19h2M24 19h1M5 20h1M11 20h1M14 20h2M24 20h1M3 21h1M6 21h1M10 21h1M15 21h1M22 21h1M24 21h1M2 22h1M4 22h3M15 22h1M23 22h1M2 23h1M5 23h1M7 23h1M16 23h1M21 23h1M23 23h1M2 24h1M6 24h2M17 24h1M20 24h1M22 24h2M2 25h2M18 25h4M24 25h1M1 26h1M4 26h1M20 26h1M22 26h1M25 26h1M1 27h1M3 27h3M19 27h2M23 27h1M26 27h1" />
<path stroke="#ff0000" d="M4 1h1M9 1h1M15 1h1M6 2h1M18 2h1M8 3h1M12 3h1M8 4h1M15 4h2M14 5h1M24 5h1M6 6h1M13 6h1M13 7h1M2 8h1M6 8h1M12 8h1M4 9h1M12 9h1M26 9h1M1 10h1M6 10h1M12 10h1M7 11h1M24 11h1M11 12h1M8 13h1M13 13h1M1 14h1M7 14h3M14 14h1M23 14h1M8 15h4M15 15h1M21 15h1M26 15h1M9 16h4M17 16h2M23 16h1M10 17h3M17 17h1M11 18h1M16 18h1M5 19h3M11 19h1M13 19h1M6 20h3M12 20h2M2 21h1M7 21h3M11 21h4M8 22h7M21 22h1M6 23h1M8 23h8M22 23h1M8 24h7M16 24h1M21 24h1M7 25h3M11 25h3M15 25h3M22 25h2M2 26h2M5 26h4M12 26h1M16 26h2M19 26h1M23 26h2M2 27h1M6 27h2M17 27h1M24 27h2" />
<path stroke="#ff8c00" d="M6 1h1M19 1h1M8 2h2M20 2h2M10 3h1M21 3h1M12 4h1M21 4h1M13 5h1M24 6h1M12 7h1M25 7h1M25 8h1M25 9h1M8 10h1M11 10h1M24 10h1M9 11h4M23 11h1M4 12h4M12 12h2M22 12h1M5 13h3M9 13h1M14 13h1M20 13h3M10 14h1M15 14h7M12 15h1M16 15h5M24 16h2M20 17h2M4 18h4M21 18h2M8 19h1M22 19h2M9 20h1M22 20h2M16 21h1M23 21h1M7 22h1M16 22h2M22 22h1M17 23h4M3 24h1M15 24h1M18 24h2M4 25h2M10 25h1M14 25h1M9 26h1M11 26h1M13 26h1M15 26h1M18 26h1M8 27h1M12 27h1M16 27h1" />
</svg>