<svg xmlns="http://www.w3.org/2000/svg" viewBox="0 -0.5 32 32" shape-rendering="crispEdges">
<metadata>Made with Pixels to Svg https://codepen.io/shshaw/pen/XbxvNj</metadata>
<path stroke="#ffffff" d="M0 0h32M0 1h32M0 2h32M0 3h6M9 3h23M0 4h6M11 4h21M0 5h7M9 5h1M12 5h20M0 6h7M8 6h1M10 6h1M13 6h19M0 7h8M9 7h1M11 7h1M14 7h18M0 8h5M9 8h2M12 8h1M15 8h17M0 9h4M5 9h2M10 9h2M21 9h11M0 10h4M5 10h4M11 10h1M22 10h10M0 11h5M6 11h5M23 11h9M0 12h6M9 12h2M24 12h8M0 13h6M7 13h2M22 13h2M25 13h7M0 14h1M2 14h3M8 14h2M22 14h1M25 14h7M1 15h1M3 15h2M22 15h1M26 15h6M1 16h1M3 16h5M22 16h2M26 16h6M1 17h1M3 17h4M8 17h1M22 17h2M25 17h1M27 17h5M2 18h1M4 18h3M25 18h1M27 18h5M2 19h1M4 19h3M12 19h1M27 19h5M2 20h1M4 20h2M7 20h1M27 20h5M1 21h1M3 21h1M5 21h1M21 21h2M28 21h4M1 22h1M5 22h1M20 22h1M28 22h4M1 23h1M9 23h1M19 23h1M26 23h1M28 23h4M0 24h1M2 24h1M8 24h1M18 24h1M22 24h4M27 24h5M0 25h1M2 25h1M17 25h1M21 25h5M27 25h5M0 26h1M2 26h1M16 26h1M20 26h1M26 26h6M0 27h1M11 27h1M26 27h6M0 28h32M0 29h32M0 30h32M0 31h32" />
<path stroke="#191919" d="M6 3h3M6 4h1M9 4h2M7 5h1M11 5h1M7 6h1M12 6h1M8 7h1M13 7h1M5 8h4M14 8h1M4 9h1M9 9h1M15 9h6M4 10h1M16 10h1M21 10h1M5 11h1M15 11h1M22 11h1M6 12h1M14 12h1M16 12h1M22 12h2M6 13h1M13 13h1M16 13h1M21 13h1M24 13h1M1 14h1M5 14h1M12 14h1M16 14h1M21 14h1M23 14h2M0 15h1M2 15h1M5 15h3M11 15h1M16 15h1M21 15h1M23 15h3M0 16h1M2 16h1M8 16h5M16 16h1M21 16h1M24 16h2M0 17h1M2 17h1M7 17h1M12 17h5M21 17h1M24 17h1M26 17h1M0 18h2M3 18h1M7 18h1M12 18h1M17 18h1M22 18h3M26 18h1M0 19h2M3 19h1M7 19h1M10 19h2M17 19h1M24 19h1M26 19h1M0 20h2M3 20h1M6 20h1M8 20h4M18 20h1M21 20h6M0 21h1M2 21h1M4 21h1M6 21h1M9 21h1M11 21h1M18 21h3M26 21h2M0 22h1M2 22h1M4 22h1M6 22h1M8 22h1M11 22h1M17 22h3M21 22h5M27 22h1M0 23h1M2 23h1M4 23h2M7 23h1M12 23h1M16 23h3M20 23h1M27 23h1M1 24h1M3 24h1M5 24h3M13 24h5M19 24h1M26 24h1M1 25h1M3 25h1M5 25h3M12 25h1M14 25h3M18 25h1M26 25h1M1 26h1M3 26h1M5 26h4M11 26h1M15 26h1M17 26h1M25 26h1M1 27h1M4 27h1M6 27h5M15 27h1M17 27h1M25 27h1" />
<path stroke="#ff0000" d="M7 4h1M8 5h1M9 6h1M10 7h1M11 8h1M12 9h1M13 10h1M15 10h1M17 10h4M14 11h1M16 11h2M20 11h2M7 12h2M15 12h1M21 12h1M9 13h2M15 13h1M11 14h1M15 14h1M8 15h1M12 15h1M14 15h2M13 16h3M11 17h1M10 18h2M15 18h2M21 18h1M9 19h1M16 19h1M20 19h4M16 20h2M19 20h2M8 21h1M10 21h1M16 21h2M25 21h1M7 22h1M9 22h2M15 22h2M6 23h1M8 23h1M11 23h1M14 23h2M12 24h1M4 25h1M8 25h1M11 25h1M13 25h1M4 26h1M9 26h2M13 26h2M21 26h4M5 27h1M14 27h1M18 27h3" />
<path stroke="#ff8c00" d="M8 4h1M10 5h1M11 6h1M12 7h1M13 8h1M7 9h2M13 9h2M9 10h2M12 10h1M14 10h1M11 11h3M18 11h2M11 12h3M17 12h4M11 13h2M14 13h1M17 13h4M6 14h2M10 14h1M13 14h2M17 14h4M9 15h2M13 15h1M17 15h4M17 16h4M9 17h2M17 17h4M8 18h2M13 18h2M18 18h3M8 19h1M13 19h3M18 19h2M25 19h1M12 20h4M7 21h1M12 21h4M23 21h2M3 22h1M12 22h3M26 22h1M3 23h1M10 23h1M13 23h1M21 23h5M4 24h1M9 24h3M20 24h2M9 25h2M19 25h2M12 26h1M18 26h2M2 27h2M12 27h2M16 27h1M21 27h4" />
</svg>