<svg xmlns="http://www.w3.org/2000/svg" viewBox="0 -0.5 32 32" shape-rendering="crispEdges">
<metadata>Made with Pixels to Svg https://codepen.io/shshaw/pen/XbxvNj</metadata>
<path stroke="#202020" d="M17 6h4M16 7h1M21 7h2M15 8h1M23 8h1M14 9h1M24 9h1M13 10h1M24 10h1M10 11h3M25 11h1M9 12h1M25 12h1M8 13h1M16 13h1M25 13h1M7 14h1M17 14h1M25 14h1M7 15h1M14 15h1M18 15h1M24 15h1M7 16h1M9 16h1M15 16h1M23 16h1M7 17h1M16 17h1M22 17h1M6 18h1M13 18h1M21 18h1M6 19h1M20 19h1M6 20h1M20 20h1M6 21h1M20 21h1M6 22h1M15 22h1M19 22h1M7 23h1M18 23h1M8 24h1M14 24h4M9 25h5" />
<path stroke="#a49494" d="M17 7h4M16 8h1M18 8h2M22 8h1M15 9h1M22 9h2M14 10h1M23 10h1M15 11h1M23 11h2M24 12h1M24 13h1" />
<path stroke="#eed5bd" d="M17 8h1M16 9h1M15 10h1M24 14h1M23 15h1M22 16h1M21 17h1" />
<path stroke="#ffffff" d="M20 8h1M19 9h3M18 10h3M17 11h3M17 12h2" />
<path stroke="#ffe6cd" d="M21 8h1M16 12h1M14 13h1M17 13h1M15 14h1M12 15h1M13 16h1M10 18h2M9 19h3M9 20h2" />
<path stroke="#e6bd5a" d="M17 9h2M21 10h2M21 11h2M11 12h1M12 13h1M9 14h1M18 14h1M21 14h2M9 15h2M21 15h2M11 16h1M16 16h1M20 16h1M9 17h1M17 17h1M7 18h2M14 18h1M18 18h1M7 19h1M13 19h1M15 19h1M18 19h1M7 20h1M12 20h2M15 20h2M7 21h1M11 21h2M16 21h1M8 22h4" />
<path stroke="#cd9431" d="M16 10h2M13 11h1M16 11h1M20 11h1M10 12h1M21 12h1M11 13h1M18 13h1M21 13h1M8 14h1M19 14h1M17 15h1M19 15h1M18 16h1M15 17h1M18 17h1M16 18h1M19 18h1M16 19h1M19 19h1M17 20h1M19 20h1M17 21h1M19 21h1M7 22h1M16 22h2M17 23h1" />
<path stroke="#ffd583" d="M14 11h1M12 12h2M19 12h2M23 12h1M13 13h1M15 13h1M19 13h2M23 13h1M10 14h2M14 14h1M16 14h1M11 15h1M13 15h1M15 15h2M12 16h1M14 16h1M17 16h1M10 17h2M13 17h2M20 17h1M9 18h1M12 18h1M15 18h1M8 19h1M12 19h1M8 20h1M11 20h1M8 21h3" />
<path stroke="#b48331" d="M14 12h1M22 12h1M22 13h1M12 14h1M20 14h1M23 14h1M8 15h1M20 15h1M21 16h1M8 17h1M19 17h1M20 18h1M17 19h1M14 20h1M18 20h1M13 21h2M12 22h3M8 23h7M16 23h1M9 24h5" />
<path stroke="#7b3908" d="M15 12h1M9 13h2M13 14h1M8 16h1M10 16h1M19 16h1M12 17h1M17 18h1M14 19h1M15 21h1M18 21h1M18 22h1M15 23h1" />
</svg>