<svg xmlns="http://www.w3.org/2000/svg" viewBox="0 -0.5 79 79" shape-rendering="crispEdges">
<metadata>Made with Pixels to Svg https://codepen.io/shshaw/pen/XbxvNj</metadata>
<path stroke="#000000" d="M39 26h6M37 27h2M45 27h2M33 28h2M36 28h1M40 28h2M47 28h1M32 29h1M35 29h2M39 29h1M42 29h1M48 29h1M32 30h1M37 30h2M42 30h1M44 30h3M49 30h1M28 31h1M33 31h1M41 31h1M43 31h1M47 31h1M49 31h1M27 32h1M29 32h1M34 32h2M39 32h2M42 32h1M45 32h2M48 32h1M50 32h1M33 33h2M36 33h1M38 33h1M42 33h1M44 33h3M48 33h1M50 33h1M26 34h1M29 34h1M33 34h1M36 34h1M38 34h1M42 34h1M44 34h3M48 34h1M50 34h1M26 35h1M29 35h1M33 35h1M37 35h2M43 35h1M47 35h1M49 35h1M51 35h1M26 36h1M29 36h1M33 36h1M35 36h2M39 36h2M44 36h3M49 36h1M51 36h1M26 37h1M28 37h1M34 37h1M41 37h1M48 37h1M51 37h1M26 38h1M28 38h1M34 38h1M36 38h4M42 38h2M46 38h2M50 38h1M27 39h1M33 39h1M35 39h1M40 39h1M42 39h4M50 39h1M26 40h1M28 40h1M32 40h1M35 40h1M40 40h1M42 40h1M45 40h2M49 40h1M26 41h1M28 41h2M32 41h1M34 41h1M36 41h1M40 41h2M46 41h3M26 42h2M30 42h3M34 42h2M37 42h3M45 42h1M48 42h1M26 43h1M29 43h1M31 43h1M33 43h1M35 43h1M38 43h1M45 43h1M48 43h1M26 44h1M28 44h1M30 44h1M33 44h1M36 44h2M39 44h1M44 44h1M46 44h2M27 45h2M30 45h1M33 45h1M36 45h1M40 45h4M45 45h1M27 46h1M30 46h1M33 46h1M35 46h1M44 46h2M28 47h2M31 47h1M34 47h2M43 47h1M46 47h1M30 48h4M36 48h2M42 48h2M46 48h1M33 49h1M36 49h1M38 49h3M44 49h2M34 50h2" />
<path stroke="#ffffff" d="M39 27h2M34 29h1M35 30h2M44 31h3M28 32h1M43 32h1M47 32h1M27 33h2M43 33h1M47 33h1M27 34h2M34 34h1M43 34h1M47 34h1M27 35h2M34 35h1M44 35h3M27 36h2M27 37h1M36 37h1M27 38h1M36 40h2M42 41h1M44 41h1M36 42h1M41 42h1M43 42h1M46 42h1M39 43h2M42 43h1M44 43h1M29 44h1M31 44h1M40 44h4M31 45h1M37 45h3M44 45h1M28 46h1M39 46h5M30 47h1M32 47h2M37 47h2M44 47h1M34 48h1M38 48h4" />
<path stroke="#67b737" d="M41 27h4M37 28h3M42 28h5M37 29h2M43 29h5M43 30h1M47 30h2M42 31h1M48 31h1M41 32h1M44 32h1M49 32h1M26 33h1M29 33h1M35 33h1M39 33h3M49 33h1M35 34h1M39 34h3M49 34h1M35 35h2M39 35h4M48 35h1M50 35h1M34 36h1M37 36h2M41 36h3M47 36h2M50 36h1M35 37h1M37 37h4M42 37h6M49 37h2M35 38h1M40 38h2M44 38h2M48 38h2M28 39h1M34 39h1M36 39h4M41 39h1M46 39h4M27 40h1M33 40h2M38 40h2M41 40h1M43 40h2M47 40h2M27 41h1M33 41h1M35 41h1M37 41h3M43 41h1M45 41h1M28 42h2M33 42h1M40 42h1M42 42h1M44 42h1M47 42h1M27 43h2M30 43h1M32 43h1M34 43h1M36 43h2M41 43h1M43 43h1M46 43h2M27 44h1M32 44h1M34 44h2M38 44h1M45 44h1M29 45h1M32 45h1M34 45h2M29 46h1M31 46h2M34 46h1M36 46h3M36 47h1M39 47h4M45 47h1M35 48h1M44 48h2M34 49h2M41 49h1" />
<path stroke="#ff678f" d="M33 29h1M40 29h2M33 30h2M39 30h3M34 31h7M36 32h3M37 33h1M37 34h1" />
</svg>