<svg xmlns="http://www.w3.org/2000/svg" viewBox="0 -0.5 80 80" shape-rendering="crispEdges">
<metadata>Made with Pixels to Svg https://codepen.io/shshaw/pen/XbxvNj</metadata>
<path stroke="#ff4a42" d="M37 28h1M35 29h1M37 29h7M33 30h1M35 30h2M38 30h1M40 30h6M33 31h1M37 31h1M39 31h1M41 31h7M32 32h1M38 32h1M40 32h1M42 32h7M30 33h2M39 33h1M41 33h9M32 34h1M38 34h1M40 34h1M42 34h8M29 35h3M39 35h1M41 35h10M30 36h1M32 36h1M38 36h1M40 36h11M30 37h2M33 37h1M35 37h1M37 37h1M39 37h1M41 37h11M28 38h5M34 38h1M36 38h1M38 38h14M29 39h1M31 39h8M41 39h11M29 40h1M32 40h6M40 40h3M45 40h6M29 41h1M32 41h6M39 41h2M43 41h8M29 42h1M33 42h3M37 42h2M43 42h7M29 43h2M33 43h3M44 43h6M30 44h1M33 44h3M44 44h5M30 45h2M33 45h4M44 45h4M31 46h6M42 46h5M30 47h1M33 47h12M35 48h7" />
<path stroke="#000000" d="M38 28h6M36 29h1M44 29h2M34 30h1M46 30h2M32 31h1M48 31h1M31 32h1M49 32h1M50 33h1M30 34h1M50 34h1M51 35h1M29 36h1M51 36h1M29 37h1M52 37h1M52 38h1M28 39h1M30 39h1M52 39h1M28 40h1M31 40h1M43 40h2M51 40h2M28 41h1M31 41h1M41 41h2M51 41h2M28 42h1M32 42h1M36 42h1M39 42h2M50 42h1M52 42h1M28 43h1M31 43h2M36 43h3M50 43h1M52 43h1M29 44h1M31 44h1M36 44h1M49 44h1M51 44h1M29 45h1M32 45h1M38 45h1M48 45h1M51 45h1M30 46h1M37 46h5M47 46h1M50 46h1M31 47h2M45 47h2M50 47h1M31 48h1M33 48h2M42 48h3M49 48h1M32 49h1M35 49h7M48 49h1M33 50h2M46 50h2M35 51h2M44 51h2M37 52h7" />
<path stroke="#ffffff" d="M37 30h1M39 30h1M34 31h3M38 31h1M40 31h1M33 32h5M39 32h1M41 32h1M32 33h7M40 33h1M31 34h1M33 34h5M39 34h1M41 34h1M32 35h7M40 35h1M31 36h1M33 36h5M39 36h1M32 37h1M34 37h1M36 37h1M38 37h1M40 37h1M33 38h1M35 38h1M37 38h1M39 39h2M38 40h2M30 41h1M38 41h1M30 42h1M42 42h1M40 43h4M32 44h1M38 44h6M37 45h1M39 45h4M32 48h1M33 49h2M35 50h3M37 51h3" />
<path stroke="#cebd8c" d="M30 40h1M31 42h1M41 42h1M51 42h1M39 43h1M51 43h1M37 44h1M50 44h1M43 45h1M49 45h2M48 46h2M47 47h3M45 48h4M42 49h6M38 50h8M40 51h4" />
</svg>