<svg xmlns="http://www.w3.org/2000/svg" viewBox="0 -0.5 80 80" shape-rendering="crispEdges">
<metadata>Made with Pixels to Svg https://codepen.io/shshaw/pen/XbxvNj</metadata>
<path stroke="#000000" d="M39 14h3M38 15h1M42 15h2M39 16h1M44 16h2M47 16h1M40 17h1M46 17h1M48 17h1M40 18h2M46 18h1M48 18h1M18 19h1M40 19h1M47 19h2M17 20h1M19 20h1M41 20h1M49 20h1M17 21h1M19 21h1M42 21h1M50 21h1M16 22h1M19 22h1M42 22h1M50 22h1M16 23h1M20 23h2M43 23h1M51 23h1M14 24h2M18 24h1M21 24h1M42 24h3M51 24h2M13 25h1M19 25h2M41 25h1M53 25h1M14 26h1M20 26h1M42 26h1M51 26h2M15 27h1M20 27h1M43 27h1M52 27h1M15 28h1M21 28h1M35 28h5M43 28h1M52 28h1M15 29h1M22 29h2M33 29h2M40 29h4M52 29h1M15 30h1M21 30h1M24 30h1M31 30h1M42 30h1M52 30h1M15 31h1M21 31h1M23 31h1M29 31h1M42 31h1M52 31h1M24 32h1M28 32h1M42 32h1M51 32h2M16 33h1M25 33h2M42 33h1M53 33h1M16 34h1M27 34h1M50 34h3M26 35h1M43 35h1M50 35h1M17 36h1M26 36h1M41 36h2M44 36h1M49 36h1M51 36h1M17 37h1M23 37h1M39 37h2M42 37h1M46 37h3M51 37h1M16 38h1M22 38h1M25 38h1M38 38h1M51 38h1M16 39h4M23 39h1M25 39h1M27 39h3M37 39h1M39 39h1M52 39h1M20 40h1M25 40h1M28 40h1M30 40h2M52 40h3M21 41h2M30 41h1M36 41h2M51 41h2M55 41h2M23 42h2M33 42h3M38 42h1M50 42h1M57 42h1M25 43h2M32 43h1M35 43h2M39 43h1M49 43h1M58 43h2M26 44h1M32 44h1M34 44h2M39 44h1M49 44h1M56 44h1M60 44h3M26 45h1M32 45h1M36 45h2M40 45h3M47 45h3M56 45h1M63 45h2M27 46h1M35 46h2M40 46h1M43 46h4M49 46h1M57 46h3M62 46h1M65 46h1M27 47h2M33 47h1M36 47h3M40 47h1M50 47h1M56 47h1M60 47h2M65 47h1M26 48h1M29 48h5M37 48h1M40 48h1M51 48h2M54 48h2M61 48h1M65 48h1M26 49h1M30 49h1M34 49h1M36 49h4M53 49h2M62 49h1M65 49h1M30 50h1M52 50h3M62 50h1M66 50h1M27 51h1M29 51h3M39 51h5M49 51h3M54 51h1M62 51h1M66 51h1M28 52h1M31 52h2M36 52h3M44 52h5M50 52h3M54 52h1M62 52h1M66 52h1M27 53h1M31 53h1M33 53h3M48 53h2M53 53h2M62 53h3M66 53h1M27 54h1M30 54h1M34 54h1M47 54h1M55 54h1M61 54h1M65 54h2M27 55h2M30 55h1M33 55h1M35 55h1M40 55h4M46 55h1M55 55h1M60 55h1M66 55h1M25 56h1M29 56h1M32 56h1M36 56h1M38 56h2M44 56h3M48 56h3M56 56h1M67 56h1M21 57h3M29 57h1M32 57h1M37 57h2M45 57h1M51 57h2M56 57h1M58 57h1M60 57h2M67 57h1M19 58h2M23 58h2M29 58h1M32 58h1M39 58h2M45 58h1M53 58h1M55 58h1M58 58h1M60 58h1M62 58h2M67 58h1M18 59h1M21 59h1M25 59h1M28 59h1M33 59h2M38 59h2M41 59h4M54 59h2M59 59h1M62 59h1M64 59h1M67 59h1M17 60h1M21 60h1M25 60h1M27 60h1M33 60h1M35 60h3M41 60h1M44 60h1M55 60h1M59 60h1M61 60h1M64 60h1M66 60h1M17 61h1M20 61h1M23 61h4M34 61h2M39 61h2M44 61h3M52 61h3M59 61h2M63 61h1M66 61h1M17 62h1M19 62h2M23 62h1M25 62h1M33 62h1M36 62h3M41 62h1M43 62h1M46 62h1M51 62h1M53 62h2M63 62h3M18 63h2M21 63h2M25 63h1M33 63h3M39 63h4M46 63h1M50 63h2M55 63h1M19 64h1M21 64h1M23 64h2M42 64h1M45 64h1M47 64h1M50 64h2M56 64h1M20 65h2M42 65h3M48 65h3M52 65h1M56 65h1M53 66h3" />
<path stroke="#ffffff" d="M39 15h2M41 16h1M41 17h2M44 17h1M47 17h1M42 18h2M47 18h1M41 19h1M43 19h2M43 20h2M43 21h3M17 22h1M43 22h3M44 23h3M49 23h1M19 24h2M45 24h2M50 24h1M14 25h2M42 25h3M46 25h1M49 25h1M51 25h2M15 26h2M43 26h2M46 26h2M50 26h1M45 27h3M51 27h1M16 28h1M44 28h4M50 28h1M16 29h1M44 29h4M16 30h2M22 30h2M32 30h3M43 30h5M16 31h2M22 31h1M30 31h6M43 31h4M16 32h2M23 32h1M29 32h7M43 32h4M17 33h2M22 33h1M24 33h1M28 33h3M32 33h3M43 33h4M51 33h2M17 34h2M23 34h1M25 34h1M28 34h2M31 34h1M43 34h3M17 35h3M24 35h1M27 35h2M44 35h2M18 36h2M27 36h2M18 37h3M26 37h2M41 37h1M17 38h1M19 38h3M23 38h1M26 38h2M39 38h3M20 39h3M26 39h1M38 39h1M40 39h1M21 40h3M26 40h2M29 40h1M23 41h1M26 41h2M29 41h1M31 41h1M26 42h3M36 42h2M51 42h2M27 43h2M33 43h2M38 43h1M50 43h4M27 44h3M36 44h3M51 44h2M27 45h2M30 45h1M33 45h3M39 45h1M28 46h2M33 46h1M37 46h3M29 47h2M34 47h2M62 47h1M36 48h1M38 48h2M62 48h2M31 49h1M35 49h1M63 49h1M31 50h2M63 50h1M32 51h2M63 51h1M33 52h2M28 53h1M28 54h1M35 54h1M37 54h1M48 54h3M62 54h2M36 55h1M38 55h1M47 55h3M61 55h2M26 56h2M33 56h2M47 56h1M60 56h2M25 57h2M33 57h1M48 57h2M46 58h4M59 58h1M61 58h1M19 59h2M45 59h4M60 59h1M65 59h1M18 60h2M45 60h4M60 60h1M65 60h1M18 61h1M64 61h1M18 62h1M24 62h1M34 62h1M44 62h2M24 63h1M43 63h2M52 63h2M43 64h1M52 64h3" />
<path stroke="#94ad94" d="M41 15h1M40 16h1M42 16h2M48 16h1M43 17h1M45 17h1M44 18h2M19 19h1M42 19h1M45 19h2M18 20h1M40 20h1M42 20h1M45 20h4M18 21h1M46 21h4M18 22h1M46 22h4M17 23h3M47 23h2M50 23h1M13 24h1M16 24h2M47 24h3M16 25h3M45 25h1M47 25h2M50 25h1M17 26h3M45 26h1M48 26h2M16 27h4M44 27h1M48 27h3M17 28h4M48 28h2M51 28h1M17 29h5M24 29h1M48 29h4M18 30h3M48 30h4M18 31h3M47 31h5M15 32h1M18 32h5M47 32h4M19 33h3M23 33h1M47 33h4M19 34h4M24 34h1M26 34h1M46 34h4M16 35h1M20 35h4M25 35h1M46 35h4M20 36h6M45 36h4M21 37h2M24 37h2M18 38h1M24 38h1M24 39h1M24 40h1M24 41h2M25 42h1M37 43h1M33 44h1M38 45h1M34 46h1M39 47h1M34 48h2M61 59h1M66 59h1M20 60h1M19 61h1M65 61h1M35 62h1M39 62h2M52 62h1M20 63h1M23 63h1M45 63h1M54 63h1M20 64h1M44 64h1M55 64h1M53 65h3" />
<path stroke="#845a39" d="M32 29h1M35 29h5M30 30h1M35 30h7M36 31h6M36 32h6M27 33h1M31 33h1M35 33h7M30 34h1M32 34h11M29 35h14M29 36h12M43 36h1M50 36h1M28 37h11M43 37h3M49 37h2M28 38h10M42 38h9M30 39h7M41 39h11M32 40h20M28 41h1M32 41h4M38 41h13M53 41h2M29 42h4M39 42h11M53 42h4M29 43h3M40 43h9M54 43h4M30 44h2M40 44h9M50 44h1M53 44h3M57 44h3M29 45h1M31 45h1M43 45h4M50 45h6M57 45h6M30 46h3M41 46h2M47 46h2M50 46h7M60 46h2M63 46h2M31 47h2M41 47h9M51 47h5M63 47h2M27 48h2M41 48h10M53 48h1M64 48h1M27 49h3M32 49h2M40 49h13M64 49h1M27 50h3M33 50h19M64 50h2M28 51h1M34 51h5M44 51h5M52 51h2M64 51h2M29 52h2M35 52h1M39 52h5M49 52h1M53 52h1M63 52h3M29 53h2M36 53h12M50 53h3M65 53h1M29 54h1M36 54h1M38 54h9M51 54h4M64 54h1M26 55h1M29 55h1M34 55h1M37 55h1M39 55h1M44 55h2M50 55h5M63 55h3M24 56h1M28 56h1M35 56h1M37 56h1M40 56h4M51 56h5M59 56h1M62 56h5M24 57h1M27 57h2M34 57h3M39 57h6M46 57h2M50 57h1M53 57h3M59 57h1M62 57h5M21 58h2M25 58h4M33 58h6M41 58h4M50 58h3M54 58h1M64 58h3M22 59h3M26 59h2M35 59h3M40 59h1M49 59h5M22 60h3M26 60h1M34 60h1M38 60h3M49 60h6M21 61h2M36 61h3M47 61h5M21 62h2M47 62h4M47 63h3M48 64h2" />
</svg>