<svg xmlns="http://www.w3.org/2000/svg" viewBox="0 -0.5 80 80" shape-rendering="crispEdges">
<metadata>Made with Pixels to Svg https://codepen.io/shshaw/pen/XbxvNj</metadata>
<path stroke="#000000" d="M25 13h2M58 13h4M27 14h2M56 14h1M62 14h2M24 15h1M28 15h1M53 15h2M64 15h2M24 16h1M29 16h1M52 16h1M66 16h1M29 17h3M51 17h1M67 17h1M23 18h1M25 18h1M32 18h1M51 18h1M67 18h1M21 19h2M25 19h1M33 19h1M37 19h4M50 19h1M56 19h3M67 19h1M14 20h2M20 20h1M26 20h1M34 20h3M42 20h2M50 20h1M55 20h1M59 20h1M67 20h1M13 21h1M16 21h4M26 21h1M35 21h1M44 21h1M50 21h1M54 21h1M60 21h2M66 21h1M13 22h1M35 22h1M45 22h1M49 22h1M62 22h4M13 23h1M38 23h4M45 23h1M49 23h1M53 23h1M13 24h1M37 24h1M42 24h1M46 24h1M49 24h1M53 24h1M14 25h1M37 25h1M40 25h4M46 25h1M49 25h1M53 25h1M15 26h2M30 26h1M38 26h2M42 26h2M46 26h1M54 26h1M17 27h1M30 27h1M37 27h1M44 27h1M46 27h1M50 27h1M54 27h1M17 28h1M29 28h1M36 28h1M41 28h6M50 28h1M54 28h1M17 29h1M29 29h2M36 29h1M39 29h2M46 29h5M55 29h1M18 30h1M30 30h1M35 30h1M38 30h1M50 30h2M55 30h1M18 31h1M28 31h3M35 31h1M37 31h1M47 31h1M52 31h1M56 31h1M18 32h1M28 32h2M35 32h1M37 32h1M46 32h1M52 32h1M57 32h1M19 33h1M34 33h2M37 33h1M42 33h1M44 33h3M52 33h1M58 33h1M19 34h1M33 34h4M38 34h1M45 34h1M51 34h2M59 34h1M20 35h3M32 35h1M36 35h1M40 35h1M45 35h1M51 35h1M53 35h1M59 35h1M23 36h2M31 36h1M37 36h1M41 36h1M44 36h1M50 36h1M53 36h1M60 36h1M25 37h1M30 37h2M33 37h2M37 37h2M41 37h1M43 37h1M49 37h1M54 37h1M61 37h1M26 38h4M32 38h1M35 38h5M41 38h2M48 38h2M54 38h1M62 38h1M29 39h1M32 39h1M35 39h2M39 39h2M47 39h1M50 39h1M54 39h1M62 39h1M29 40h3M33 40h2M38 40h2M46 40h1M51 40h1M53 40h1M63 40h1M29 41h2M37 41h1M46 41h1M52 41h2M63 41h1M28 42h1M31 42h1M34 42h3M46 42h1M54 42h2M64 42h1M28 43h1M31 43h1M33 43h1M45 43h1M47 43h1M50 43h1M56 43h1M64 43h1M29 44h2M33 44h1M36 44h1M45 44h1M47 44h1M49 44h1M57 44h1M64 44h1M31 45h3M36 45h1M45 45h1M47 45h1M49 45h1M58 45h1M65 45h1M34 46h3M44 46h2M48 46h1M58 46h1M65 46h1M33 47h1M35 47h1M37 47h1M43 47h1M46 47h1M48 47h1M59 47h1M65 47h1M32 48h1M35 48h1M38 48h5M46 48h1M48 48h1M59 48h1M65 48h1M32 49h1M35 49h1M39 49h2M42 49h1M46 49h1M48 49h1M59 49h1M64 49h1M32 50h1M36 50h3M40 50h1M43 50h3M48 50h1M59 50h1M64 50h1M33 51h1M40 51h1M49 51h1M60 51h1M64 51h1M33 52h1M41 52h1M49 52h1M60 52h1M63 52h1M34 53h1M41 53h1M50 53h1M60 53h1M63 53h1M35 54h2M42 54h1M51 54h1M60 54h1M62 54h1M37 55h1M43 55h2M52 55h2M61 55h1M37 56h1M44 56h3M54 56h2M58 56h1M62 56h2M33 57h4M42 57h2M47 57h3M53 57h5M62 57h1M64 57h1M26 58h7M44 58h1M50 58h6M58 58h1M64 58h1M25 59h1M40 59h1M45 59h1M55 59h1M58 59h1M64 59h1M25 60h1M28 60h1M40 60h1M45 60h1M55 60h1M57 60h1M64 60h1M25 61h1M28 61h1M36 61h9M56 61h2M63 61h1M26 62h3M33 62h3M56 62h1M63 62h1M29 63h4M55 63h1M59 63h1M64 63h1M64 64h1M53 65h1M58 65h1M64 65h1M53 66h1M57 66h2M63 66h1M54 67h3M59 67h4" />
<path stroke="#8c427b" d="M57 13h1M24 14h1M55 14h1M53 16h5M65 16h1M24 17h1M52 17h9M64 17h3M30 18h2M52 18h15M32 19h1M41 19h1M51 19h5M59 19h8M33 20h1M51 20h4M60 20h7M34 21h1M36 21h2M51 21h3M62 21h4M18 22h1M26 22h1M36 22h5M43 22h2M50 22h4M18 23h1M35 23h3M42 23h3M50 23h3M26 24h1M36 24h1M43 24h3M51 24h2M36 25h1M44 25h2M51 25h2M31 26h1M35 26h3M44 26h2M49 26h1M51 26h3M32 27h1M35 27h2M45 27h1M52 27h2M33 28h3M52 28h2M25 29h1M33 29h3M52 29h3M25 30h1M33 30h2M49 30h1M53 30h2M25 31h1M32 31h1M34 31h1M53 31h3M26 32h1M30 32h2M34 32h1M54 32h3M21 33h1M27 33h2M43 33h1M55 33h3M22 34h1M42 34h3M56 34h3M23 35h2M39 35h1M41 35h4M50 35h1M56 35h3M42 36h2M49 36h1M57 36h3M28 37h1M42 37h1M57 37h4M30 38h2M33 38h2M56 38h6M30 39h2M33 39h2M37 39h2M55 39h7M32 40h1M35 40h3M54 40h9M31 41h6M45 41h1M54 41h9M29 42h2M32 42h2M45 42h1M56 42h8M29 43h2M32 43h1M36 43h1M46 43h1M57 43h7M31 44h2M46 44h1M58 44h6M44 45h1M46 45h1M57 45h1M59 45h6M46 46h2M57 46h1M59 46h6M47 47h1M58 47h1M60 47h5M47 48h1M58 48h1M60 48h5M38 49h1M41 49h1M47 49h1M58 49h1M60 49h4M41 50h2M46 50h2M58 50h1M60 50h4M41 51h8M58 51h2M61 51h3M40 52h1M42 52h7M57 52h3M61 52h2M35 53h1M39 53h2M42 53h8M57 53h3M61 53h2M37 54h5M43 54h8M52 54h1M56 54h4M61 54h1M38 55h5M45 55h7M54 55h7M38 56h6M47 56h7M56 56h2M59 56h3M39 57h3M50 57h3M58 57h4M63 57h1M39 58h2M43 58h1M59 58h1M61 58h3M29 59h2M37 59h3M43 59h2M62 59h2M34 60h6M41 60h4M63 60h1M33 61h3M29 62h4M59 62h1M54 63h1M63 63h1M53 64h1M58 64h1M63 64h1M57 65h1M63 65h1M56 66h1M62 66h1" />
<path stroke="#ffffff" d="M25 14h2M25 15h2M25 16h1M25 17h1M14 21h1M21 21h2M14 22h1M20 22h4M14 23h1M19 23h5M14 24h2M19 24h6M15 25h2M18 25h7M18 26h7M26 26h1M18 27h9M31 27h1M18 28h9M30 28h3M37 28h1M19 29h6M26 29h1M31 29h2M19 30h6M26 30h1M29 30h1M31 30h2M36 30h1M40 30h2M44 30h4M19 31h6M31 31h1M36 31h1M39 31h3M44 31h3M19 32h6M36 32h1M39 32h2M45 32h1M20 33h1M23 33h1M36 33h1M47 33h1M20 34h2M37 34h1M46 34h2M33 35h3M37 35h2M46 35h2M25 36h2M32 36h5M45 36h2M26 37h1M32 37h1M35 37h2M44 37h2M43 38h2M41 39h3M40 40h3M38 41h4M37 42h5M34 43h2M37 43h4M37 44h4M38 45h2M34 47h1M33 48h2M51 48h2M33 49h2M50 49h4M34 50h2M50 50h4M50 51h4M51 52h2M26 59h3M26 60h2M29 60h2M29 61h1M54 64h3M59 64h4M60 65h2" />
<path stroke="#b5a5ce" d="M57 14h5M27 15h1M55 15h9M26 16h3M58 16h7M26 17h3M61 17h3M24 18h1M26 18h4M23 19h2M26 19h6M21 20h5M27 20h6M37 20h5M15 21h1M20 21h1M23 21h3M27 21h7M38 21h6M15 22h3M19 22h1M24 22h2M27 22h8M41 22h2M15 23h3M24 23h11M16 24h3M25 24h1M27 24h9M50 24h1M17 25h1M25 25h11M50 25h1M17 26h1M25 26h1M27 26h3M32 26h3M40 26h2M50 26h1M27 27h3M33 27h2M38 27h6M51 27h1M27 28h2M38 28h3M51 28h1M18 29h1M27 29h2M37 29h2M41 29h5M51 29h1M27 30h2M37 30h1M39 30h1M42 30h2M48 30h1M52 30h1M26 31h2M33 31h1M38 31h1M42 31h2M48 31h4M25 32h1M27 32h1M32 32h2M38 32h1M41 32h4M47 32h5M53 32h1M22 33h1M24 33h3M29 33h5M38 33h4M48 33h4M53 33h2M23 34h10M39 34h3M48 34h3M53 34h3M25 35h7M48 35h2M54 35h2M27 36h4M38 36h3M47 36h2M54 36h3M27 37h1M29 37h1M39 37h2M46 37h3M55 37h2M40 38h1M45 38h3M55 38h1M44 39h3M48 39h2M43 40h3M47 40h4M42 41h3M47 41h5M42 42h3M47 42h7M41 43h4M48 43h2M51 43h5M34 44h2M41 44h4M48 44h1M50 44h7M34 45h2M37 45h1M40 45h4M48 45h1M50 45h7M37 46h7M49 46h8M36 47h1M38 47h5M44 47h2M49 47h9M36 48h2M43 48h3M49 48h2M53 48h5M36 49h2M43 49h3M49 49h1M54 49h4M33 50h1M39 50h1M49 50h1M54 50h4M34 51h6M54 51h4M34 52h6M50 52h1M53 52h4M36 53h3M51 53h6M53 54h3M37 57h2M33 58h6M41 58h2M56 58h2M60 58h1M31 59h6M41 59h2M56 59h2M59 59h3M31 60h3M56 60h1M58 60h5M26 61h2M30 61h3M58 61h5M57 62h2M60 62h3M56 63h3M60 63h3M57 64h1M54 65h3M59 65h1M62 65h1M54 66h2M59 66h3" />
</svg>