<svg xmlns="http://www.w3.org/2000/svg" viewBox="0 -0.5 80 80" shape-rendering="crispEdges">
<metadata>Made with Pixels to Svg https://codepen.io/shshaw/pen/XbxvNj</metadata>
<path stroke="#ff4a31" d="M37 12h1M47 12h1M54 12h1M63 12h1M36 13h1M38 13h1M41 13h1M46 13h2M52 13h3M61 13h3M36 14h1M38 14h1M41 14h1M45 14h1M47 14h1M50 14h4M57 14h1M59 14h4M35 15h1M37 15h1M39 15h2M42 15h1M44 15h1M46 15h1M48 15h2M51 15h3M55 15h2M59 15h3M28 16h1M35 16h1M37 16h4M47 16h1M49 16h1M51 16h4M57 16h4M24 17h1M32 17h3M36 17h5M44 17h2M48 17h1M50 17h3M56 17h4M25 18h3M34 18h2M42 18h2M45 18h1M47 18h1M49 18h3M54 18h5M62 18h1M65 18h1M24 19h1M26 19h2M41 19h1M45 19h1M49 19h1M53 19h2M56 19h2M60 19h5M25 20h4M32 20h1M34 20h1M39 20h1M47 20h2M52 20h1M54 20h10M26 21h3M31 21h1M33 21h1M48 21h1M50 21h1M53 21h5M59 21h4M27 22h1M30 22h1M32 22h1M48 22h4M53 22h2M56 22h1M58 22h4M27 23h1M29 23h1M31 23h1M33 23h1M49 23h1M51 23h1M53 23h1M55 23h1M57 23h3M30 24h1M32 24h1M41 24h1M44 24h1M49 24h1M52 24h1M54 24h5M23 25h1M29 25h1M31 25h1M39 25h1M50 25h2M53 25h5M17 26h1M30 26h1M46 26h1M50 26h11M15 27h1M31 27h1M51 27h3M55 27h1M57 27h1M59 27h1M63 27h2M29 28h1M36 28h1M51 28h1M59 28h4M15 29h1M31 29h1M38 29h2M41 29h1M47 29h1M52 29h1M56 29h4M14 30h1M39 30h1M53 30h1M55 30h3M20 31h1M30 31h1M34 31h1M51 31h1M54 31h1M56 31h1M33 32h1M41 32h1M47 32h1M49 32h3M53 32h1M55 32h1M57 32h2M28 33h1M43 33h1M49 33h2M52 33h1M56 33h2M59 33h2M28 34h1M48 34h1M50 34h2M53 34h2M57 34h6M25 35h1M27 35h1M29 35h1M35 35h1M37 35h1M47 35h3M52 35h1M29 36h2M46 36h8M32 37h1M47 37h3M51 37h4M60 38h1M58 39h1M51 40h1M34 41h1M63 41h1M55 42h1M56 45h1M33 46h1M52 47h1M54 48h1M56 48h1M53 49h1M55 49h1M56 50h1M32 51h1M57 51h1M54 52h1M59 52h1M31 53h1M59 54h1M30 55h1M29 56h1M57 57h1M58 59h1M62 60h2M59 61h1M38 62h1M46 62h1M59 62h1M35 63h1M39 63h1M50 63h1M58 63h1M61 63h1M24 64h1M33 64h1M42 64h1M45 64h1M48 64h1M56 64h2M23 65h1M46 65h1M25 66h1M27 66h1M60 66h1M62 66h1" />
<path stroke="#ffa521" d="M37 13h1M37 14h1M46 14h1M58 14h1M36 15h1M38 15h1M41 15h1M45 15h1M47 15h1M50 15h1M57 15h2M36 16h1M41 16h2M48 16h1M50 16h1M55 16h2M35 17h1M43 17h1M47 17h1M49 17h1M53 17h3M48 18h1M52 18h2M61 18h1M25 19h1M40 19h1M47 19h2M50 19h3M55 19h1M58 19h2M49 20h3M53 20h1M49 21h1M51 21h2M58 21h1M26 22h1M52 22h1M55 22h1M57 22h1M50 23h1M52 23h1M54 23h1M56 23h1M60 23h1M42 24h2M50 24h2M53 24h1M27 25h1M40 25h6M52 25h1M23 26h5M38 26h4M43 26h3M21 27h1M23 27h4M28 27h1M37 27h3M42 27h5M54 27h1M56 27h1M58 27h1M60 27h3M15 28h1M20 28h1M22 28h1M24 28h3M28 28h1M37 28h1M42 28h5M52 28h7M14 29h1M16 29h4M21 29h1M23 29h4M28 29h1M36 29h1M42 29h5M53 29h3M16 30h1M20 30h8M35 30h2M41 30h7M52 30h1M54 30h1M24 31h4M35 31h1M39 31h9M50 31h1M53 31h1M55 31h1M34 32h2M37 32h4M42 32h5M52 32h1M54 32h1M56 32h1M31 33h8M44 33h3M51 33h1M53 33h1M55 33h1M58 33h1M27 34h1M32 34h5M39 34h2M42 34h5M49 34h1M52 34h1M26 35h1M28 35h1M32 35h3M38 35h1M41 35h6M50 35h2M53 35h4M32 36h2M39 36h7M54 36h6M35 37h12M50 37h1M55 37h7M36 38h24M36 39h22M36 40h15M56 40h1M60 40h1M64 40h1M35 41h14M58 41h1M61 41h2M64 41h1M35 42h16M61 42h1M63 42h2M35 43h16M35 44h17M35 45h17M34 46h18M34 47h18M34 48h19M34 49h19M34 50h20M33 51h1M35 51h19M33 52h2M36 52h1M38 52h16M37 53h1M39 53h16M38 54h18M37 55h1M39 55h18M38 56h19M36 57h1M38 57h19M35 58h1M37 58h16M54 58h1M56 58h2M28 59h1M32 59h1M34 59h18M53 59h1M55 59h3M29 60h1M31 60h1M33 60h20M54 60h1M56 60h3M27 61h2M30 61h1M32 61h20M53 61h1M55 61h4M27 62h11M47 62h12M26 63h9M51 63h7M26 64h6M53 64h3M58 64h3M28 65h3M56 65h7M26 66h1M59 66h1M61 66h1" />
<path stroke="#000000" d="M29 16h2M43 16h4M28 17h4M41 17h2M46 17h1M28 18h6M36 18h6M44 18h1M46 18h1M28 19h12M42 19h3M46 19h1M29 20h3M33 20h1M35 20h4M40 20h7M29 21h2M32 21h1M34 21h14M28 22h2M31 22h1M33 22h15M28 23h1M30 23h1M32 23h1M34 23h15M27 24h3M31 24h1M33 24h8M45 24h4M24 25h3M28 25h1M30 25h1M32 25h7M46 25h4M18 26h5M28 26h2M31 26h7M42 26h1M47 26h3M16 27h1M27 27h1M29 27h2M32 27h5M40 27h2M47 27h4M14 28h1M27 28h1M30 28h6M38 28h2M41 28h1M47 28h4M13 29h1M27 29h1M30 29h1M32 29h4M37 29h1M48 29h4M13 30h1M15 30h1M17 30h3M28 30h1M30 30h5M37 30h2M40 30h1M48 30h4M14 31h1M16 31h2M21 31h3M28 31h1M31 31h3M36 31h3M48 31h2M52 31h1M24 32h5M31 32h2M36 32h1M48 32h1M29 33h1M39 33h2M42 33h1M47 33h2M54 33h1M29 34h1M37 34h2M41 34h1M47 34h1M55 34h2M30 35h1M36 35h1M39 35h2M57 35h3M31 36h1M34 36h5M60 36h2M33 37h2M62 37h1M35 38h1M61 38h3M35 39h1M59 39h1M64 39h1M35 40h1M52 40h4M57 40h1M61 40h1M65 40h1M49 41h6M56 41h2M59 41h2M65 41h1M34 42h1M51 42h4M58 42h1M60 42h1M62 42h1M65 42h1M34 43h1M51 43h5M61 43h4M34 44h1M52 44h4M34 45h1M52 45h4M52 46h5M33 47h1M53 47h4M33 48h1M53 48h1M55 48h1M57 48h1M33 49h1M54 49h1M56 49h2M33 50h1M54 50h2M57 50h1M54 51h3M58 51h1M32 52h1M55 52h4M32 53h1M55 53h6M31 54h1M56 54h3M60 54h2M57 55h3M57 56h4M28 57h1M58 57h4M28 58h1M58 58h5M27 59h1M59 59h5M27 60h1M59 60h3M26 61h1M60 61h3M26 62h1M39 62h7M60 62h4M25 63h1M36 63h3M40 63h10M59 63h2M25 64h1M32 64h1M34 64h1M37 64h3M41 64h1M43 64h2M46 64h2M49 64h4M61 64h2M31 65h1M38 65h1M42 65h1M45 65h1M47 65h1M50 65h1M53 65h3M63 65h1M23 66h1M29 66h2M46 66h1M56 66h2M63 66h1M24 67h5M58 67h5" />
<path stroke="#ffffff" d="M17 27h4M22 27h1M16 28h4M21 28h1M23 28h1M40 28h1M20 29h1M22 29h1M29 29h1M40 29h1M29 30h1M29 31h1M29 32h2M30 33h1M41 33h1M30 34h2M31 35h1M60 39h4M58 40h2M62 40h2M34 51h1M35 52h1M37 52h1M33 53h4M38 53h1M32 54h6M31 55h6M38 55h1M30 56h8M29 57h7M37 57h1M29 58h6M36 58h1M53 58h1M55 58h1M29 59h3M33 59h1M52 59h1M54 59h1M28 60h1M30 60h1M32 60h1M53 60h1M55 60h1M29 61h1M31 61h1M52 61h1M54 61h1M24 65h4M24 66h1M28 66h1M58 66h1" />
</svg>