<svg xmlns="http://www.w3.org/2000/svg" viewBox="0 -0.5 80 80" shape-rendering="crispEdges">
<metadata>Made with Pixels to Svg https://codepen.io/shshaw/pen/XbxvNj</metadata>
<path stroke="#de3129" d="M31 15h1M43 15h1M41 16h1M39 17h1M44 17h1M28 18h1M30 19h1M40 20h1M30 22h1M34 22h1M36 22h1M39 22h2M34 23h2M39 23h4M34 24h2M40 24h4M33 25h1M35 25h2M39 25h6M32 26h1M34 26h11M35 27h4M42 27h4M34 28h4M43 28h3M34 29h4M43 29h4M32 30h1M35 30h2M39 30h2M43 30h4M31 31h1M35 31h2M43 31h1M45 31h2M25 32h2M34 32h3M46 32h1M52 32h1M24 33h1M31 33h7M51 33h1M31 34h7M32 35h5M33 36h2M50 37h1M54 37h1M29 38h1M37 38h1M44 38h1M49 38h1M51 38h1M30 39h1M32 39h2M43 39h5M25 40h4M32 40h1M35 40h2M42 40h1M23 41h5M30 41h1M39 41h1M43 41h1M50 41h2M57 41h2M22 42h4M31 42h2M38 42h2M44 42h1M47 42h6M21 43h4M32 43h3M38 43h1M45 43h1M48 43h5M21 44h3M34 44h1M36 44h3M45 44h1M48 44h4M21 45h3M33 45h1M37 45h2M46 45h1M22 46h3M32 46h1M34 46h1M38 46h1M46 46h1M49 46h1M57 46h1M22 47h4M31 47h1M38 47h1M46 47h1M52 47h1M55 47h1M23 48h3M28 48h1M30 48h1M32 48h1M36 48h4M46 48h1M27 49h1M29 49h1M31 49h1M46 49h1M41 50h1M45 50h1M35 51h2M45 51h1M33 52h1M35 52h3M39 52h1M45 52h1M34 53h6M42 53h1M44 53h1M46 53h1M61 53h1M34 54h6M41 54h5M50 54h1M52 54h1M59 54h1M62 54h1M33 55h6M41 55h2M58 55h4M33 56h6M56 56h6M33 57h6M56 57h5M33 58h5M55 58h6M34 59h3M54 59h6M54 60h5M54 61h3" />
<path stroke="#000000" d="M32 15h1M44 15h2M30 16h3M42 16h4M29 17h3M40 17h4M29 18h2M39 18h4M28 19h2M38 19h4M27 20h3M37 20h3M27 21h3M36 21h5M27 22h3M35 22h1M37 22h2M41 22h2M27 23h4M33 23h1M36 23h3M43 23h1M28 24h5M36 24h4M44 24h1M28 25h4M37 25h2M45 25h1M29 26h3M45 26h1M30 27h1M39 27h3M46 27h1M30 28h1M38 28h1M41 28h2M46 28h1M29 29h1M32 29h2M38 29h1M41 29h2M47 29h1M29 30h1M31 30h1M33 30h2M37 30h2M41 30h2M47 30h1M29 31h1M32 31h3M37 31h6M47 31h1M27 32h1M29 32h2M32 32h2M37 32h6M47 32h1M53 32h3M28 33h2M38 33h4M46 33h1M56 33h1M23 34h1M29 34h2M39 34h2M46 34h1M51 34h1M57 34h1M22 35h1M28 35h4M45 35h1M50 35h1M52 35h1M57 35h1M22 36h1M26 36h2M29 36h1M31 36h1M45 36h1M50 36h1M53 36h1M57 36h1M23 37h1M25 37h1M28 37h1M32 37h1M36 37h2M44 37h1M51 37h1M56 37h1M24 38h5M30 38h1M32 38h2M38 38h1M42 38h2M45 38h3M50 38h1M52 38h4M25 39h5M31 39h1M34 39h2M40 39h3M48 39h5M23 40h2M29 40h3M33 40h2M37 40h4M43 40h9M22 41h1M28 41h2M31 41h8M45 41h5M52 41h1M55 41h2M21 42h1M26 42h1M30 42h1M33 42h5M46 42h1M53 42h2M57 42h1M59 42h1M20 43h1M25 43h1M31 43h1M35 43h3M47 43h1M53 43h1M56 43h1M60 43h1M20 44h1M24 44h1M30 44h4M35 44h1M52 44h2M56 44h1M60 44h1M20 45h1M24 45h1M28 45h2M31 45h2M34 45h3M48 45h6M56 45h1M60 45h1M21 46h1M25 46h1M27 46h1M30 46h2M33 46h1M35 46h3M48 46h1M50 46h5M59 46h1M21 47h1M26 47h4M32 47h6M49 47h3M56 47h3M22 48h1M26 48h1M35 48h1M49 48h1M52 48h1M23 49h3M36 49h6M49 49h1M53 49h1M25 50h1M35 50h1M39 50h2M42 50h1M49 50h1M53 50h1M24 51h1M34 51h1M40 51h3M48 51h1M54 51h1M24 52h1M34 52h1M40 52h3M48 52h3M54 52h1M24 53h1M33 53h1M40 53h2M47 53h6M54 53h1M59 53h2M25 54h1M33 54h1M40 54h1M46 54h4M51 54h1M53 54h1M58 54h1M25 55h1M32 55h1M39 55h2M43 55h3M49 55h6M56 55h2M62 55h1M26 56h1M31 56h2M39 56h4M45 56h2M51 56h5M62 56h1M27 57h4M32 57h1M39 57h1M47 57h4M52 57h4M61 57h1M32 58h1M38 58h1M53 58h2M61 58h1M33 59h1M37 59h1M53 59h1M60 59h1M34 60h3M53 60h1M59 60h1M53 61h1M57 61h2M54 62h3" />
<path stroke="#ff7321" d="M33 24h1M32 25h1M34 25h1M33 26h1M31 27h4M31 28h3M30 29h2M30 30h1M30 31h1M44 31h1M31 32h1M43 32h3M42 33h4M38 34h1M41 34h5M52 34h1M23 35h1M37 35h8M51 35h1M53 35h1M56 35h1M23 36h3M28 36h1M32 36h1M35 36h10M51 36h2M54 36h3M24 37h1M26 37h2M33 37h3M38 37h6M52 37h2M55 37h1M34 38h3M39 38h3M36 39h4M41 40h1M40 41h3M44 41h1M40 42h4M45 42h1M55 42h2M39 43h6M46 43h1M54 43h2M25 44h1M39 44h6M46 44h2M54 44h2M25 45h3M30 45h1M39 45h7M47 45h1M54 45h2M57 45h1M26 46h1M28 46h2M39 46h7M47 46h1M55 46h2M58 46h1M30 47h1M39 47h7M47 47h2M27 48h1M29 48h1M31 48h1M33 48h1M40 48h6M47 48h2M50 48h1M26 49h1M28 49h1M30 49h1M32 49h1M34 49h1M42 49h4M47 49h2M51 49h1M27 50h1M29 50h1M31 50h1M33 50h1M36 50h3M43 50h2M46 50h3M50 50h1M52 50h1M26 51h1M28 51h1M30 51h1M32 51h1M37 51h3M43 51h2M46 51h2M49 51h1M51 51h1M53 51h1M25 52h1M27 52h1M29 52h1M31 52h1M38 52h1M43 52h2M46 52h2M52 52h1M26 53h1M28 53h1M30 53h1M32 53h1M43 53h1M45 53h1M53 53h1M27 54h1M29 54h1M31 54h1M60 54h2M26 55h1M28 55h1M30 55h1M47 55h1M27 56h1M29 56h1M48 56h1M50 56h1" />
<path stroke="#ffffff" d="M39 28h2M39 29h2M25 33h3M30 33h1M52 33h4M24 34h5M53 34h4M24 35h4M54 35h2M27 42h3M58 42h1M26 43h5M57 43h3M26 44h4M57 44h3M58 45h2M34 48h1M51 48h1M33 49h1M35 49h1M50 49h1M52 49h1M26 50h1M28 50h1M30 50h1M32 50h1M34 50h1M51 50h1M25 51h1M27 51h1M29 51h1M31 51h1M33 51h1M50 51h1M52 51h1M26 52h1M28 52h1M30 52h1M32 52h1M51 52h1M53 52h1M25 53h1M27 53h1M29 53h1M31 53h1M26 54h1M28 54h1M30 54h1M32 54h1M27 55h1M29 55h1M31 55h1M46 55h1M48 55h1M28 56h1M30 56h1M47 56h1M49 56h1" />
</svg>