<svg xmlns="http://www.w3.org/2000/svg" viewBox="0 -0.5 80 80" shape-rendering="crispEdges">
<metadata>Made with Pixels to Svg https://codepen.io/shshaw/pen/XbxvNj</metadata>
<path stroke="#000000" d="M54 21h3M57 22h1M50 23h2M58 23h1M48 24h2M52 24h1M58 24h1M45 25h2M50 25h3M58 25h1M38 26h2M44 26h1M46 26h2M51 26h3M57 26h1M35 27h2M40 27h1M43 27h6M50 27h1M54 27h3M32 28h2M42 28h2M47 28h1M49 28h1M31 29h1M44 29h1M49 29h1M30 30h1M29 31h3M51 31h1M27 32h2M52 32h1M26 33h1M53 33h1M25 34h1M53 34h1M24 35h2M54 35h1M23 36h1M29 36h4M54 36h1M23 37h1M28 37h1M33 37h2M54 37h1M22 38h1M27 38h1M35 38h1M55 38h1M22 39h1M25 39h3M36 39h1M23 40h2M26 40h1M31 40h2M36 40h5M56 40h1M22 41h3M26 41h1M30 41h1M33 41h1M37 41h2M41 41h2M56 41h1M21 42h3M27 42h1M34 42h1M36 42h1M43 42h1M56 42h1M21 43h3M26 43h3M33 43h1M35 43h3M41 43h3M56 43h1M21 44h1M23 44h1M26 44h2M29 44h4M36 44h3M42 44h2M54 44h1M56 44h1M21 45h1M24 45h3M37 45h2M41 45h1M54 45h1M22 46h1M26 46h1M28 46h1M35 46h1M37 46h4M55 46h1M22 47h1M26 47h3M34 47h2M38 47h1M55 47h1M23 48h1M27 48h1M37 48h1M55 48h1M23 49h1M27 49h1M37 49h1M54 49h1M23 50h1M28 50h1M36 50h1M54 50h1M24 51h1M28 51h1M35 51h1M53 51h1M24 52h1M29 52h2M33 52h2M50 52h3M25 53h1M31 53h2M47 53h1M50 53h1M52 53h1M26 54h2M46 54h1M48 54h1M51 54h1M26 55h1M28 55h3M33 55h4M44 55h2M48 55h1M50 55h2M26 56h1M29 56h4M37 56h2M42 56h2M45 56h1M49 56h2M26 57h1M28 57h2M39 57h3M45 57h1M27 58h2M42 58h1M44 58h2M43 59h2" />
<path stroke="#52299c" d="M53 22h1M52 23h1M47 24h1M50 24h2M56 24h1M55 25h2M37 26h1M43 26h1M45 26h1M48 26h1M34 27h1M48 28h1M50 30h1M49 31h2M32 32h2M34 33h1M35 34h1M55 37h1M53 38h1M53 39h1M56 39h1M25 40h1M39 41h1M24 42h1M37 42h2M41 42h2M34 43h1M38 43h1M53 43h1M24 44h1M28 44h1M33 44h3M41 44h1M27 45h10M39 45h1M55 45h1M29 46h5M36 46h1M29 47h5M36 47h2M24 48h1M28 48h9M28 49h9M29 50h7M46 50h1M29 51h6M47 51h1M31 52h2M47 52h1M46 53h1M48 53h2M51 53h1M35 54h1M49 54h2M52 54h1M27 55h1M49 55h1M27 56h2M44 56h1M51 56h1M27 57h1M42 57h3M43 58h1" />
<path stroke="#c5a53a" d="M54 22h3M53 23h1M56 23h2M53 24h1M57 24h1M47 25h3M53 25h2M49 26h2M54 26h2M49 27h1M41 28h1M46 28h1M42 29h2M31 30h1M41 30h1M43 30h3M32 31h2M42 31h3M34 32h2M39 32h1M41 32h1M43 32h1M45 32h1M47 32h1M49 32h1M51 32h1M33 33h1M35 33h4M40 33h1M42 33h1M44 33h1M46 33h1M48 33h1M50 33h1M52 33h1M33 34h2M36 34h4M41 34h1M43 34h1M51 34h1M32 35h11M50 35h1M52 35h2M24 36h1M33 36h9M51 36h1M53 36h1M25 37h1M27 37h1M35 37h7M52 37h2M23 38h4M33 38h1M36 38h6M54 38h1M23 39h2M32 39h1M34 39h2M37 39h6M52 39h1M54 39h2M22 40h1M27 40h1M33 40h1M35 40h1M41 40h4M52 40h4M27 41h2M31 41h2M34 41h3M43 41h1M45 41h1M47 41h1M49 41h1M51 41h5M25 42h1M28 42h6M35 42h1M39 42h1M44 42h1M46 42h1M48 42h1M50 42h6M24 43h2M29 43h4M39 43h2M44 43h9M54 43h2M25 44h1M39 44h2M44 44h10M55 44h1M40 45h1M42 45h12M25 46h1M41 46h14M39 47h13M53 47h1M26 48h1M38 48h11M50 48h1M52 48h1M25 49h2M38 49h10M49 49h1M24 50h1M26 50h2M37 50h9M47 50h2M25 51h1M27 51h1M36 51h11M48 51h2M26 52h3M35 52h12M48 52h2M26 53h5M33 53h5M39 53h1M41 53h5M28 54h7M36 54h1M38 54h1M40 54h1M42 54h4M31 55h2M37 55h1M39 55h1M41 55h3M40 56h2" />
<path stroke="#ffffff" d="M54 23h2M54 24h2M57 25h1M56 26h1M37 27h3M34 28h7M44 28h2M32 29h10M45 29h4M32 30h9M42 30h1M46 30h4M34 31h8M45 31h4M29 32h3M36 32h3M40 32h1M42 32h1M44 32h1M46 32h1M48 32h1M50 32h1M27 33h6M39 33h1M41 33h1M43 33h1M45 33h1M47 33h1M49 33h1M51 33h1M26 34h7M40 34h1M42 34h1M44 34h7M52 34h1M26 35h6M43 35h7M51 35h1M25 36h4M42 36h9M52 36h1M24 37h1M26 37h1M29 37h4M42 37h10M28 38h5M34 38h1M42 38h11M28 39h4M33 39h1M43 39h9M28 40h3M34 40h1M45 40h7M25 41h1M29 41h1M40 41h1M44 41h1M46 41h1M48 41h1M50 41h1M26 42h1M40 42h1M45 42h1M47 42h1M49 42h1M22 44h1M22 45h2M23 46h2M27 46h1M34 46h1M23 47h3M52 47h1M54 47h1M25 48h1M49 48h1M51 48h1M53 48h2M24 49h1M48 49h1M50 49h4M25 50h1M49 50h5M26 51h1M50 51h3M25 52h1M38 53h1M40 53h1M37 54h1M39 54h1M41 54h1M38 55h1M40 55h1M39 56h1" />
</svg>