<svg xmlns="http://www.w3.org/2000/svg" viewBox="0 -0.5 80 80" shape-rendering="crispEdges">
<metadata>Made with Pixels to Svg https://codepen.io/shshaw/pen/XbxvNj</metadata>
<path stroke="#521973" d="M29 21h1M36 21h1M38 22h1M25 23h1M27 23h1M32 23h1M27 24h1M35 24h1M40 24h1M31 25h1M36 25h1M23 26h1M31 26h1M36 26h1M42 26h1M22 27h1M32 27h1M35 27h1M25 28h1M33 28h2M43 28h1M43 29h1M27 30h1M41 30h1M20 31h1M27 31h1M56 31h1M59 31h1M27 32h1M30 32h1M55 32h1M23 33h1M26 33h1M36 33h1M43 33h3M54 33h1M61 33h1M24 34h2M42 34h1M59 34h1M21 35h1M58 35h2M54 36h1M56 36h4M61 36h1M20 38h1M56 38h1M60 38h1M57 39h1M43 40h3M42 41h1M57 41h1M41 42h1M56 42h1M26 43h2M41 43h1M25 44h1M28 44h1M41 44h1M55 44h1M24 45h1M42 45h1M24 46h1M31 46h1M39 46h1M55 46h1M24 47h1M30 47h1M40 47h2M54 47h1M30 48h1M50 48h1M55 48h1M58 48h1M30 49h1M37 50h1M52 50h1M36 51h1M43 51h1M56 51h1M25 52h1M42 52h1M53 52h1M24 53h1M27 53h1M23 54h1M46 54h1M21 55h1M20 56h1M30 56h1M40 56h1M20 57h1M23 57h1M31 57h1M39 57h1M21 58h1M32 58h2M28 60h1M32 60h2" />
<path stroke="#000000" d="M30 21h3M34 21h2M28 22h1M33 22h1M37 22h1M26 23h1M39 23h1M24 24h1M23 25h1M40 25h2M41 26h1M43 26h1M41 27h1M44 27h2M22 28h3M41 28h1M45 28h2M21 29h1M26 29h1M40 29h1M44 29h3M20 30h1M40 30h1M44 30h2M39 31h3M43 31h2M57 31h2M19 32h1M38 32h5M45 32h1M60 32h1M19 33h1M30 33h3M37 33h1M39 33h3M46 33h1M20 34h1M30 34h1M33 34h4M40 34h1M47 34h1M54 34h1M61 34h1M20 35h1M29 35h1M37 35h1M40 35h1M48 35h1M54 35h1M61 35h1M19 36h1M21 36h1M29 36h1M36 36h2M40 36h1M48 36h1M19 37h2M22 37h2M28 37h1M40 37h1M48 37h1M55 37h1M60 37h1M19 38h1M21 38h1M24 38h4M29 38h1M39 38h1M48 38h1M57 38h3M20 39h7M28 39h2M39 39h1M47 39h1M58 39h2M23 40h1M27 40h1M38 40h1M46 40h1M57 40h3M22 41h1M28 41h1M38 41h1M47 41h1M58 41h2M22 42h1M29 42h2M37 42h1M48 42h1M57 42h3M22 43h1M31 43h2M36 43h1M48 43h1M56 43h1M58 43h2M22 44h1M33 44h3M48 44h1M59 44h1M23 45h1M47 45h1M55 45h1M59 45h1M23 46h1M47 46h2M54 46h1M56 46h1M58 46h1M45 47h2M48 47h1M53 47h1M55 47h4M24 48h1M40 48h1M42 48h3M49 48h1M52 48h3M56 48h2M25 49h1M29 49h1M38 49h2M50 49h2M55 49h3M26 50h3M31 50h1M50 50h2M56 50h2M26 51h1M32 51h1M51 51h2M26 52h2M32 52h5M41 52h1M51 52h2M56 52h1M28 53h1M32 53h1M37 53h4M43 53h3M51 53h3M55 53h1M29 54h3M42 54h1M51 54h4M23 55h1M41 55h1M50 55h4M22 56h1M41 56h1M50 56h2M42 57h1M49 57h1M23 58h1M39 58h1M42 58h1M48 58h1M21 59h1M34 59h5M43 59h1M47 59h1M22 60h3M29 60h3M38 60h1M43 60h1M45 60h2M25 61h3M39 61h6" />
<path stroke="#ffffff" d="M29 22h4M34 22h3M28 23h4M33 23h6M25 24h2M28 24h3M32 24h3M36 24h4M24 25h3M28 25h3M32 25h4M37 25h3M24 26h7M32 26h4M37 26h1M39 26h1M24 27h8M33 27h2M36 27h3M26 28h7M35 28h3M39 28h1M44 28h1M22 29h4M27 29h10M38 29h1M21 30h6M28 30h6M35 30h1M37 30h1M21 31h6M29 31h6M36 31h1M38 31h1M20 32h7M28 32h1M32 32h2M35 32h1M37 32h1M56 32h2M20 33h3M24 33h2M27 33h1M29 33h1M33 33h2M55 33h4M21 34h3M26 34h1M28 34h1M55 34h4M22 35h2M25 35h1M27 35h1M36 35h1M56 35h2M22 36h3M26 36h1M28 36h1M44 36h1M46 36h1M25 37h1M27 37h1M43 37h1M45 37h1M47 37h1M28 38h1M42 38h1M44 38h1M46 38h1M43 39h1M45 39h1M24 40h3M23 41h5M31 41h2M43 41h4M23 42h6M31 42h3M40 42h1M42 42h6M23 43h3M28 43h3M33 43h2M39 43h1M42 43h5M57 43h1M23 44h2M26 44h2M29 44h4M38 44h1M40 44h1M42 44h2M45 44h1M47 44h1M57 44h1M25 45h11M37 45h1M39 45h1M41 45h1M44 45h1M46 45h1M56 45h1M25 46h6M32 46h5M38 46h1M40 46h4M45 46h1M25 47h5M31 47h7M39 47h1M42 47h3M25 48h5M31 48h6M38 48h1M26 49h3M31 49h3M35 49h1M37 49h1M54 49h1M32 50h1M34 50h1M36 50h1M38 50h2M53 50h2M29 51h2M33 51h3M37 51h2M29 52h1M31 52h1M25 53h2M30 53h1M24 54h3M24 55h2M21 56h1M21 57h2M40 57h2M22 58h1M40 58h2M22 59h2M39 59h4M39 60h4" />
<path stroke="#ff6b9c" d="M31 24h1M27 25h1M38 26h1M40 26h1M23 27h1M39 27h2M42 27h2M38 28h1M40 28h1M42 28h1M37 29h1M39 29h1M41 29h2M34 30h1M36 30h1M38 30h2M42 30h2M28 31h1M35 31h1M37 31h1M42 31h1M29 32h1M31 32h1M34 32h1M36 32h1M43 32h2M58 32h2M28 33h1M35 33h1M38 33h1M42 33h1M59 33h2M27 34h1M29 34h1M31 34h2M37 34h3M41 34h1M43 34h4M60 34h1M24 35h1M26 35h1M28 35h1M30 35h6M38 35h2M41 35h7M55 35h1M60 35h1M20 36h1M25 36h1M27 36h1M30 36h6M38 36h2M41 36h3M45 36h1M47 36h1M55 36h1M60 36h1M21 37h1M24 37h1M26 37h1M29 37h11M41 37h2M44 37h1M46 37h1M56 37h4M22 38h2M30 38h9M40 38h2M43 38h1M45 38h1M47 38h1M27 39h1M30 39h9M40 39h3M44 39h1M46 39h1M28 40h10M39 40h4M29 41h2M33 41h5M39 41h3M34 42h3M38 42h2M35 43h1M37 43h2M40 43h1M47 43h1M36 44h2M39 44h1M44 44h1M46 44h1M56 44h1M58 44h1M36 45h1M38 45h1M40 45h1M43 45h1M45 45h1M57 45h2M37 46h1M44 46h1M46 46h1M57 46h1M38 47h1M47 47h1M37 48h1M39 48h1M41 48h1M45 48h4M34 49h1M36 49h1M40 49h10M52 49h2M29 50h2M33 50h1M35 50h1M40 50h10M55 50h1M27 51h2M31 51h1M39 51h4M44 51h7M53 51h3M28 52h1M30 52h1M37 52h4M43 52h8M54 52h2M29 53h1M31 53h1M33 53h4M41 53h2M46 53h5M54 53h1M27 54h2M32 54h10M43 54h3M47 54h4M26 55h15M42 55h8M23 56h7M31 56h9M42 56h8M24 57h7M32 57h7M43 57h6M24 58h8M34 58h5M43 58h5M24 59h10M44 59h3M25 60h3M44 60h1" />
</svg>