<svg xmlns="http://www.w3.org/2000/svg" viewBox="0 -0.5 80 80" shape-rendering="crispEdges">
<metadata>Made with Pixels to Svg https://codepen.io/shshaw/pen/XbxvNj</metadata>
<path stroke="#000000" d="M39 21h5M34 22h2M38 22h1M44 22h1M32 23h1M36 23h1M45 23h5M31 24h1M38 24h1M45 24h1M50 24h2M39 25h1M52 25h1M30 26h1M32 26h3M53 26h1M30 27h2M35 27h2M44 27h1M51 27h3M29 28h1M37 28h1M48 28h1M54 28h1M29 29h1M54 29h1M30 30h1M38 30h3M46 30h3M28 31h3M36 31h2M41 31h2M45 31h1M49 31h2M54 31h1M24 32h4M31 32h2M35 32h1M43 32h1M51 32h1M53 32h1M22 33h2M32 33h4M53 33h1M20 34h1M31 34h1M36 34h1M44 34h1M51 34h2M19 35h1M37 35h2M44 35h2M48 35h5M19 36h1M28 36h1M39 36h5M46 36h2M53 36h2M18 37h1M27 37h1M55 37h2M18 38h1M26 38h1M57 38h1M19 39h1M26 39h1M48 39h1M58 39h1M20 40h1M25 40h1M48 40h1M59 40h1M21 41h2M24 41h2M29 41h1M49 41h1M60 41h1M23 42h2M30 42h2M49 42h1M61 42h1M24 43h1M32 43h3M41 43h2M50 43h1M61 43h1M24 44h1M35 44h6M50 44h1M62 44h1M24 45h1M51 45h1M62 45h1M25 46h1M52 46h1M62 46h1M25 47h1M27 47h1M53 47h2M61 47h1M26 48h2M31 48h1M54 48h3M60 48h1M26 49h1M28 49h1M31 49h1M39 49h1M54 49h1M57 49h3M27 50h1M29 50h2M39 50h1M43 50h1M53 50h1M28 51h2M39 51h1M43 51h1M52 51h1M29 52h3M40 52h3M51 52h1M30 53h1M32 53h3M49 53h3M30 54h1M36 54h3M46 54h3M51 54h1M31 55h1M36 55h1M39 55h7M51 55h1M32 56h4M46 56h1M50 56h1M47 57h3" />
<path stroke="#ffffff" d="M39 22h4M34 23h1M38 23h2M41 23h1M43 23h1M33 24h1M35 24h1M40 24h1M42 24h1M31 25h2M34 25h1M31 26h1M30 28h2M40 28h5M30 29h1M32 29h1M34 29h1M39 29h7M33 30h1M35 30h1M41 30h4M49 30h2M43 31h1M51 31h1M52 32h1M30 38h2M30 39h2M40 40h2M40 41h2" />
<path stroke="#ffb529" d="M43 22h1M35 23h1M40 23h1M42 23h1M44 23h1M32 24h1M34 24h1M36 24h2M39 24h1M41 24h1M43 24h2M47 24h3M33 25h1M35 25h4M40 25h5M46 25h6M35 26h4M40 26h4M45 26h8M32 27h3M37 27h2M45 27h4M32 28h5M46 28h1M49 28h4M31 29h1M33 29h1M35 29h3M47 29h7M31 30h2M34 30h1M36 30h1M51 30h4M31 31h5M38 31h3M46 31h3M52 31h2M33 32h2M36 32h7M44 32h7M36 33h8M45 33h7M23 34h1M37 34h7M45 34h6M22 35h1M24 35h1M40 35h4M46 35h2M20 36h2M23 36h1M25 36h1M19 37h4M24 37h1M26 37h1M19 38h7M20 39h5M21 40h3M23 41h1M59 42h1M56 43h1M58 43h1M60 43h1M53 44h1M55 44h1M57 44h1M59 44h1M61 44h1M52 45h1M54 45h1M56 45h1M58 45h1M60 45h2M53 46h3M57 46h1M59 46h1M61 46h1M55 47h6M57 48h3" />
<path stroke="#42943a" d="M33 23h1M37 23h1M46 24h1M30 25h1M45 25h1M39 26h1M44 26h1M39 27h5M49 27h2M38 28h2M45 28h1M47 28h1M53 28h1M38 29h1M46 29h1M37 30h1M45 30h1M44 31h1M28 32h3M24 33h8M44 33h1M52 33h1M21 34h2M24 34h7M32 34h4M20 35h2M23 35h1M25 35h12M39 35h1M22 36h1M24 36h1M26 36h2M29 36h10M44 36h2M48 36h5M23 37h1M25 37h1M28 37h27M27 38h3M32 38h25M25 39h1M27 39h3M32 39h16M49 39h9M24 40h1M26 40h14M42 40h6M49 40h10M26 41h3M30 41h10M42 41h7M50 41h10M25 42h5M32 42h17M50 42h9M60 42h1M25 43h7M35 43h6M43 43h7M51 43h5M57 43h1M59 43h1M25 44h10M41 44h9M51 44h2M54 44h1M56 44h1M58 44h1M60 44h1M25 45h26M53 45h1M55 45h1M57 45h1M59 45h1M26 46h26M56 46h1M58 46h1M60 46h1M26 47h1M28 47h25M28 48h3M32 48h22M27 49h1M29 49h2M32 49h7M40 49h14M28 50h1M31 50h8M40 50h3M44 50h9M30 51h9M40 51h3M44 51h8M32 52h8M43 52h8M31 53h1M35 53h14M31 54h5M39 54h7M49 54h2M32 55h4M46 55h5M47 56h3" />
</svg>