<svg xmlns="http://www.w3.org/2000/svg" viewBox="0 -0.5 80 80" shape-rendering="crispEdges">
<metadata>Made with Pixels to Svg https://codepen.io/shshaw/pen/XbxvNj</metadata>
<path stroke="#000000" d="M43 12h2M36 13h1M42 13h1M45 13h1M37 14h1M41 14h1M45 14h3M34 15h1M37 15h5M44 15h2M48 15h1M35 16h1M38 16h1M40 16h4M48 16h1M35 17h1M37 17h5M47 17h1M34 18h1M36 18h5M47 18h1M34 19h2M40 19h2M47 19h5M33 20h1M42 20h2M47 20h1M53 20h1M24 21h1M32 21h1M44 21h2M48 21h1M53 21h1M25 22h1M31 22h3M35 22h1M46 22h1M51 22h2M23 23h1M26 23h1M30 23h1M37 23h1M47 23h1M50 23h1M27 24h2M40 24h1M48 24h1M50 24h1M56 24h1M22 25h1M27 25h1M42 25h1M49 25h1M57 25h1M22 26h1M26 26h1M31 26h5M44 26h1M49 26h1M54 26h1M57 26h1M23 27h1M26 27h1M30 27h1M36 27h3M45 27h2M50 27h1M53 27h1M57 27h1M23 28h1M26 28h1M28 28h1M30 28h1M39 28h1M47 28h1M50 28h3M57 28h1M24 29h1M27 29h1M31 29h1M38 29h4M48 29h3M57 29h1M25 30h3M29 30h1M31 30h1M37 30h1M42 30h1M56 30h1M27 31h5M36 31h1M43 31h1M56 31h1M26 32h1M32 32h2M36 32h1M38 32h1M43 32h1M55 32h1M24 33h1M28 33h1M35 33h2M43 33h1M54 33h1M33 34h1M37 34h3M42 34h1M44 34h1M53 34h1M23 35h1M40 35h2M45 35h1M51 35h2M23 36h1M42 36h1M46 36h5M24 37h1M28 37h3M43 37h1M48 37h4M25 38h1M28 38h6M44 38h1M48 38h1M51 38h2M25 39h12M44 39h1M48 39h1M53 39h2M24 40h1M28 40h5M35 40h1M38 40h2M42 40h1M45 40h1M47 40h1M55 40h1M61 40h1M23 41h1M28 41h1M30 41h1M36 41h6M45 41h2M56 41h1M62 41h1M21 42h1M27 42h1M39 42h2M44 42h2M56 42h1M59 42h1M27 43h1M30 43h2M38 43h2M44 43h1M56 43h1M60 43h1M63 43h1M20 44h1M27 44h1M31 44h7M43 44h1M55 44h1M60 44h1M21 45h2M28 45h1M41 45h2M55 45h1M60 45h1M64 45h1M23 46h1M29 46h2M39 46h2M54 46h1M60 46h1M64 46h1M23 47h1M31 47h8M52 47h2M60 47h1M24 48h1M51 48h1M65 48h1M22 49h1M25 49h2M49 49h3M59 49h1M65 49h1M22 50h1M27 50h2M47 50h2M52 50h1M58 50h1M65 50h1M22 51h1M29 51h3M36 51h3M44 51h3M52 51h1M56 51h2M65 51h1M23 52h1M29 52h2M32 52h4M39 52h5M46 52h1M53 52h3M65 52h1M23 53h1M30 53h1M34 53h1M45 53h1M53 53h1M65 53h1M24 54h1M30 54h1M33 54h1M44 54h1M64 54h1M25 55h2M29 55h1M33 55h1M42 55h2M45 55h1M64 55h1M27 56h2M34 56h1M40 56h2M44 56h1M63 56h1M28 57h1M35 57h5M43 57h1M55 57h1M63 57h1M28 58h1M43 58h1M55 58h1M62 58h1M27 59h1M29 59h1M42 59h1M56 59h1M61 59h1M26 60h1M29 60h1M42 60h1M56 60h1M60 60h1M26 61h1M30 61h1M42 61h1M56 61h1M58 61h2M31 62h1M43 62h1M56 62h2M27 63h1M32 63h2M43 63h1M55 63h1M28 64h3M34 64h3M44 64h1M55 64h1M29 65h1M37 65h3M54 65h1M30 66h7M40 66h5M52 66h2M45 67h7" />
<path stroke="#f72931" d="M35 13h1M34 14h1M52 19h1M25 21h1M23 22h1M34 22h1M36 22h1M29 23h1M38 23h2M22 24h1M41 24h1M55 24h1M43 25h1M54 25h1M29 27h1M25 32h1M34 32h1M23 34h1M26 37h2M31 37h1M47 37h1M34 38h1M46 38h2M49 38h2M37 39h1M46 39h2M33 40h2M46 40h1M60 40h1M22 41h1M26 41h2M31 41h5M47 41h3M59 41h1M22 42h5M30 42h9M46 42h7M63 42h1M20 43h7M32 43h6M45 43h10M21 44h6M44 44h11M64 44h1M23 45h4M46 45h9M24 46h2M47 46h7M24 47h1M39 47h2M48 47h4M65 47h1M22 48h2M35 48h7M49 48h2M59 48h1M23 49h2M35 49h7M23 50h1M34 50h9M49 50h3M34 51h2M39 51h4M47 51h4M28 52h1M31 52h1M36 52h1M44 52h2M47 52h2M27 53h1M33 53h1M36 53h1M42 53h3M26 54h1M28 54h2M31 54h2M34 54h2M37 54h1M43 54h1M37 55h1M37 56h1M62 56h1M61 57h2M59 58h3M57 59h4M30 60h2M40 60h2M55 60h1M57 60h3M32 61h8M55 61h1M57 61h1M26 62h1M55 62h1M54 63h1M31 64h2M43 64h1M46 64h3M53 64h2M33 65h4M40 65h3M45 65h1M49 65h5M50 66h2" />
<path stroke="#ffffff" d="M43 13h2M35 14h2M42 14h3M35 15h2M42 15h2M46 15h2M36 16h2M39 16h1M44 16h3M42 17h4M41 18h4M46 18h1M36 19h4M42 19h2M45 19h1M35 20h7M44 20h1M48 20h5M34 21h10M49 21h2M24 22h1M37 22h8M24 23h2M31 23h6M40 23h4M45 23h1M23 24h4M29 24h11M42 24h3M46 24h1M23 25h4M28 25h14M45 25h1M47 25h1M55 25h2M24 26h2M27 26h4M36 26h8M46 26h1M55 26h1M24 27h2M27 27h2M39 27h6M47 27h1M54 27h2M25 28h1M27 28h1M29 28h1M40 28h6M53 28h3M28 29h3M42 29h3M46 29h2M51 29h4M28 30h1M30 30h1M38 30h4M43 30h1M45 30h10M37 31h6M45 31h9M27 32h5M37 32h1M39 32h4M46 32h7M25 33h3M29 33h6M37 33h6M47 33h4M24 34h9M34 34h3M40 34h2M24 35h16M24 36h18M25 37h1M32 37h11M26 38h2M35 38h9M38 39h6M50 39h1M52 39h1M25 40h3M36 40h2M40 40h2M48 40h2M51 40h1M53 40h1M24 41h2M29 41h1M50 41h1M52 41h1M54 41h1M60 41h2M28 42h2M53 42h1M55 42h1M60 42h3M28 43h2M61 43h2M28 44h3M61 44h1M63 44h1M27 45h1M30 45h6M43 45h1M45 45h1M62 45h1M26 46h3M42 46h1M44 46h1M46 46h1M61 46h1M63 46h1M25 47h6M41 47h1M43 47h1M45 47h1M47 47h1M62 47h1M25 48h10M42 48h1M44 48h1M46 48h1M48 48h1M27 49h8M43 49h1M45 49h1M47 49h1M29 50h5M44 50h1M46 50h1M32 51h2M43 51h1M28 53h2M35 53h1M27 54h1M27 55h2M30 55h3M34 55h3M44 55h1M29 56h5M35 56h2M42 56h2M45 56h2M48 56h1M29 57h6M40 57h3M44 57h4M49 57h1M29 58h14M44 58h5M30 59h12M43 59h5M49 59h1M32 60h8M44 60h3M48 60h1M31 61h1M40 61h2M43 61h1M45 61h1M47 61h1M32 62h11M44 62h1M34 63h9M37 64h6M30 65h3M43 65h2M46 65h3M45 66h5" />
<path stroke="#ff52ff" d="M47 16h1M36 17h1M46 17h1M35 18h1M45 18h1M44 19h1M46 19h1M34 20h1M45 20h2M33 21h1M46 21h2M51 21h2M45 22h1M47 22h4M44 23h1M46 23h1M48 23h2M45 24h1M47 24h1M49 24h1M44 25h1M46 25h1M48 25h1M23 26h1M45 26h1M47 26h2M56 26h1M31 27h5M48 27h2M56 27h1M24 28h1M31 28h8M46 28h1M48 28h2M56 28h1M25 29h2M32 29h6M45 29h1M55 29h2M32 30h5M44 30h1M55 30h1M32 31h4M44 31h1M54 31h2M35 32h1M44 32h2M53 32h2M44 33h3M51 33h3M43 34h1M45 34h8M42 35h3M46 35h5M43 36h3M44 37h3M45 38h1M45 39h1M49 39h1M51 39h1M43 40h2M50 40h1M52 40h1M54 40h1M42 41h3M51 41h1M53 41h1M55 41h1M41 42h3M54 42h1M40 43h4M55 43h1M38 44h5M62 44h1M29 45h1M36 45h5M44 45h1M61 45h1M63 45h1M31 46h8M41 46h1M43 46h1M45 46h1M62 46h1M42 47h1M44 47h1M46 47h1M61 47h1M63 47h2M43 48h1M45 48h1M47 48h1M60 48h5M42 49h1M44 49h1M46 49h1M48 49h1M60 49h5M24 50h3M43 50h1M45 50h1M59 50h6M23 51h6M51 51h1M58 51h7M24 52h4M37 52h2M49 52h4M56 52h9M24 53h3M31 53h2M37 53h5M46 53h7M54 53h11M25 54h1M36 54h1M38 54h5M45 54h19M38 55h4M46 55h18M38 56h2M47 56h1M49 56h13M48 57h1M50 57h5M56 57h5M49 58h6M56 58h3M28 59h1M48 59h1M50 59h6M27 60h2M43 60h1M47 60h1M49 60h6M27 61h3M44 61h1M46 61h1M48 61h7M27 62h4M45 62h10M28 63h4M44 63h10M33 64h1M45 64h1M49 64h4" />
</svg>