<svg xmlns="http://www.w3.org/2000/svg" viewBox="0 -0.5 80 80" shape-rendering="crispEdges">
<metadata>Made with Pixels to Svg https://codepen.io/shshaw/pen/XbxvNj</metadata>
<path stroke="#000000" d="M58 17h2M57 18h1M59 18h1M56 19h1M59 19h1M55 20h1M59 20h1M54 21h1M58 21h2M53 22h1M59 22h1M52 23h1M59 23h1M51 24h1M56 24h2M59 24h1M51 25h1M58 25h2M52 26h1M59 26h1M52 27h1M59 27h1M52 28h1M57 28h2M51 29h1M56 29h2M44 30h7M56 30h1M28 31h2M40 31h3M55 31h1M30 32h1M36 32h3M55 32h1M26 33h1M31 33h1M34 33h1M55 33h1M26 34h1M31 34h3M55 34h1M31 35h1M34 35h1M55 35h1M27 36h1M31 36h1M34 36h1M56 36h1M33 37h1M48 37h3M56 37h1M28 38h1M33 38h1M47 38h1M51 38h1M57 38h1M28 39h1M32 39h1M45 39h1M51 39h1M57 39h1M27 40h6M44 40h1M51 40h1M57 40h1M24 41h2M32 41h3M43 41h1M50 41h1M57 41h1M22 42h1M35 42h2M42 42h1M49 42h2M57 42h1M20 43h1M37 43h1M42 43h1M48 43h1M51 43h1M57 43h1M38 44h1M41 44h1M51 44h1M56 44h1M39 45h1M41 45h1M49 45h2M56 45h1M18 46h1M45 46h4M55 46h1M17 47h1M40 47h1M44 47h1M55 47h1M17 48h1M54 48h1M18 49h1M32 49h4M52 49h2M19 50h1M21 50h2M49 50h3M20 51h5M45 51h4M21 52h5M43 52h2M20 53h1M22 53h5M42 53h1M19 54h1M21 54h7M40 54h2M18 55h1M21 55h3M25 55h1M27 55h2M40 55h1M18 56h1M20 56h1M23 56h2M26 56h1M28 56h3M35 56h1M39 56h1M25 57h1M27 57h1M29 57h6M38 57h1M19 58h1M26 58h1M28 58h1M30 58h2M37 58h1M19 59h1M21 59h1M35 59h2M19 60h2M22 60h2M32 60h3M24 61h2M28 61h4M25 62h1M27 62h1M26 63h1" />
<path stroke="#ffffff" d="M58 18h1M57 19h2M56 20h1M55 21h2M55 22h1M53 23h2M56 23h1M52 24h4M58 24h1M53 25h2M53 28h1M53 29h1M51 30h2M43 31h3M27 32h2M39 32h10M27 33h3M44 33h7M27 34h3M48 34h3M27 35h4M32 35h1M35 35h5M49 35h3M28 36h3M32 36h1M35 36h8M50 36h2M28 37h3M32 37h1M38 37h7M29 38h3M42 38h4M48 38h3M29 39h3M33 39h3M44 39h1M46 39h5M33 40h6M45 40h5M36 41h5M44 41h5M25 42h6M38 42h4M43 42h5M24 43h9M40 43h2M43 43h4M49 43h2M20 44h1M24 44h8M42 44h7M19 45h2M23 45h1M25 45h5M42 45h5M19 46h1M24 46h1M26 46h1M28 46h1M43 46h2M25 47h1M27 47h1M32 48h4M32 50h5M34 51h3" />
<path stroke="#4a3a84" d="M57 20h1M54 22h1M55 23h1M52 25h1M53 26h1M54 27h2M52 29h1M43 30h1M27 31h1M39 31h1M26 32h1M30 33h1M35 33h8M34 34h13M26 35h1M41 35h7M44 36h6M55 36h1M27 37h1M31 37h1M34 37h3M46 37h2M55 37h1M34 38h7M46 38h1M56 38h1M37 39h6M56 39h1M26 40h1M40 40h4M50 40h1M56 40h1M23 41h1M41 41h2M56 41h1M21 42h1M56 42h1M21 43h1M55 43h2M19 44h1M21 44h1M50 44h1M55 44h1M18 45h1M32 45h4M54 45h2M20 46h1M30 46h8M53 46h2M18 47h2M29 47h3M36 47h3M52 47h3M29 48h2M37 48h3M50 48h4M29 49h2M36 49h1M38 49h2M47 49h5M23 50h1M29 50h2M38 50h2M44 50h5M25 51h1M30 51h2M38 51h2M42 51h3M26 52h1M30 52h4M37 52h3M42 52h1M21 53h1M27 53h1M31 53h8M28 54h1M33 54h5M19 55h1M24 55h1M26 55h1M29 55h1M19 56h1M21 56h1M25 56h1M27 56h1M36 56h1M19 57h4M24 57h1M26 57h1M28 57h1M20 58h4M27 58h1M29 58h1M35 58h2M20 59h1M22 59h4M31 59h4M24 60h8M26 61h2M26 62h1" />
<path stroke="#ffc531" d="M58 20h1M57 21h1M56 22h3M57 23h2M55 25h3M54 26h5M53 27h1M56 27h3M54 28h3M54 29h2M53 30h3M46 31h9M29 32h1M49 32h6M43 33h1M51 33h4M30 34h1M47 34h1M51 34h4M33 35h1M40 35h1M48 35h1M52 35h3M33 36h1M43 36h1M52 36h3M37 37h1M45 37h1M51 37h4M32 38h1M41 38h1M52 38h4M36 39h1M43 39h1M52 39h4M39 40h1M52 40h4M26 41h6M35 41h1M49 41h1M51 41h5M23 42h2M31 42h4M37 42h1M48 42h1M51 42h5M22 43h2M33 43h4M38 43h2M47 43h1M52 43h3M22 44h2M32 44h6M39 44h2M49 44h1M52 44h3M21 45h2M24 45h1M30 45h2M36 45h3M40 45h1M47 45h2M51 45h3M21 46h3M25 46h1M27 46h1M29 46h1M38 46h5M49 46h4M20 47h5M26 47h1M28 47h1M32 47h4M39 47h1M41 47h3M45 47h7M18 48h11M31 48h1M36 48h1M40 48h10M19 49h10M31 49h1M37 49h1M40 49h7M20 50h1M24 50h5M31 50h1M37 50h1M40 50h4M26 51h4M32 51h2M37 51h1M40 51h2M27 52h3M34 52h3M40 52h2M28 53h3M39 53h3M20 54h1M29 54h4M38 54h2M20 55h1M30 55h10M22 56h1M31 56h4M37 56h2M23 57h1M35 57h3M24 58h2M32 58h3M26 59h5" />
</svg>