<svg xmlns="http://www.w3.org/2000/svg" viewBox="0 -0.5 80 80" shape-rendering="crispEdges">
<metadata>Made with Pixels to Svg https://codepen.io/shshaw/pen/XbxvNj</metadata>
<path stroke="#000000" d="M23 17h3M53 17h5M21 18h2M27 18h2M50 18h3M58 18h1M20 19h1M30 19h2M38 19h5M47 19h3M59 19h1M26 20h2M36 20h1M44 20h2M59 20h1M19 21h1M28 21h2M33 21h2M59 21h1M32 22h1M58 22h1M60 22h1M18 23h1M31 23h1M58 23h1M60 23h1M18 24h1M60 24h1M18 25h1M57 25h1M60 25h1M19 26h1M30 26h1M32 26h1M44 26h3M49 26h1M55 26h2M60 26h1M20 27h2M28 27h1M30 27h1M33 27h1M42 27h2M48 27h1M50 27h1M52 27h2M55 27h1M59 27h1M22 28h3M27 28h1M30 28h1M41 28h1M48 28h1M51 28h2M54 28h1M56 28h1M59 28h1M22 29h2M25 29h1M27 29h1M30 29h1M33 29h1M42 29h1M48 29h1M51 29h1M53 29h1M55 29h1M59 29h1M22 30h1M24 30h1M26 30h2M30 30h1M33 30h1M37 30h1M42 30h2M48 30h1M51 30h2M54 30h1M59 30h1M23 31h3M27 31h1M30 31h1M35 31h2M38 31h1M48 31h1M51 31h1M53 31h3M58 31h1M25 32h2M30 32h1M36 32h2M43 32h2M51 32h1M53 32h1M56 32h2M25 33h2M31 33h1M33 33h2M41 33h3M45 33h1M47 33h1M52 33h2M24 34h1M26 34h1M31 34h9M44 34h4M52 34h2M24 35h1M26 35h1M31 35h5M46 35h1M52 35h1M25 36h1M27 36h1M32 36h3M36 36h5M46 36h1M53 36h1M25 37h1M27 37h1M33 37h3M41 37h3M46 37h1M53 37h3M26 38h1M44 38h2M53 38h1M56 38h2M27 39h1M50 39h1M52 39h1M58 39h1M25 40h2M28 40h2M49 40h6M59 40h1M23 41h3M30 41h2M35 41h9M47 41h5M55 41h2M59 41h1M21 42h1M24 42h2M32 42h4M39 42h9M49 42h1M57 42h1M60 42h1M20 43h1M24 43h3M35 43h2M39 43h8M48 43h1M58 43h1M60 43h1M20 44h1M24 44h3M37 44h1M40 44h5M48 44h1M58 44h3M20 45h1M25 45h3M39 45h4M48 45h1M58 45h2M21 46h1M26 46h4M49 46h2M58 46h1M22 47h4M30 47h1M51 47h2M57 47h1M30 48h1M54 48h3M30 49h1M29 50h2M54 50h1M28 51h2M54 51h5M28 52h1M54 52h1M58 52h1M27 53h1M56 53h2M27 54h1M55 54h1M27 55h1M55 55h1M28 56h1M36 56h2M54 56h1M29 57h2M38 57h6M53 57h2M28 58h1M34 58h4M44 58h2M51 58h2M54 58h1M28 59h1M37 59h1M46 59h5M55 59h1M29 60h2M36 60h1M46 60h1M55 60h1M31 61h5M47 61h1M53 61h2M48 62h5" />
<path stroke="#8c4a5a" d="M26 17h1M29 18h1M24 19h2M37 19h1M43 19h1M19 20h1M32 20h1M35 20h1M46 20h1M30 21h1M18 22h1M31 22h1M59 22h1M30 23h1M59 23h1M58 24h2M29 25h1M58 25h2M31 26h1M38 26h1M48 26h1M50 26h1M54 26h1M57 26h3M35 27h1M38 27h1M54 27h1M56 27h3M31 28h1M34 28h2M38 28h1M45 28h1M53 28h1M55 28h1M57 28h2M24 29h1M26 29h1M31 29h1M35 29h2M39 29h2M45 29h1M52 29h1M54 29h1M56 29h3M23 30h1M25 30h1M34 30h2M40 30h2M44 30h1M53 30h1M55 30h4M26 31h1M37 31h1M52 31h1M56 31h2M32 32h1M42 32h1M45 32h1M47 32h1M30 33h1M35 33h1M40 33h1M46 33h1M40 34h4M36 35h10M31 36h1M35 36h1M41 36h5M51 36h2M32 37h1M44 37h2M51 37h2M27 38h1M33 38h1M51 38h2M54 38h2M28 39h1M51 39h1M53 39h4M55 40h1M22 41h1M57 41h1M36 42h3M48 42h1M58 42h1M37 43h2M47 43h1M51 43h1M36 44h1M38 44h2M45 44h3M50 44h1M24 45h1M38 45h1M43 45h5M50 45h1M54 45h1M22 46h2M40 46h7M48 46h1M54 46h1M43 47h1M45 47h1M47 47h1M49 47h1M53 47h1M44 48h1M46 48h1M48 48h1M50 48h1M45 49h1M47 49h1M49 49h1M55 52h3M54 53h2M53 54h2M28 55h1M38 55h1M40 55h1M42 55h1M53 55h2M29 56h2M35 56h1M38 56h2M41 56h1M43 56h2M52 56h2M31 57h7M44 57h3M49 57h4M31 58h3M46 58h5M53 58h1M30 59h1M33 59h1M35 59h2M51 59h4M33 60h3M48 60h1M53 60h2M48 61h1M51 61h1" />
<path stroke="#e684b5" d="M23 18h1M25 18h1M53 18h1M55 18h1M57 18h1M22 19h1M26 19h4M50 19h3M54 19h1M56 19h1M58 19h1M21 20h1M23 20h1M25 20h1M28 20h4M40 20h4M47 20h7M55 20h1M57 20h2M22 21h6M31 21h2M41 21h18M19 22h12M33 22h3M40 22h18M19 23h11M32 23h26M19 24h39M19 25h10M30 25h27M20 26h9M33 26h5M39 26h5M47 26h1M51 26h3M22 27h6M31 27h1M34 27h1M36 27h2M39 27h3M46 27h2M51 27h1M25 28h2M36 28h2M39 28h2M46 28h2M50 28h1M29 29h1M37 29h2M46 29h2M49 29h2M29 30h1M31 30h2M38 30h2M45 30h3M49 30h2M28 31h2M31 31h4M39 31h9M49 31h2M27 32h3M31 32h1M33 32h3M38 32h4M46 32h1M48 32h3M52 32h1M27 33h3M36 33h4M48 33h4M25 34h1M27 34h4M48 34h4M25 35h1M27 35h4M47 35h5M26 36h1M28 36h3M47 36h4M26 37h1M28 37h4M36 37h5M47 37h4M28 38h5M34 38h10M46 38h5M29 39h21M57 39h1M27 40h1M30 40h19M56 40h3M26 41h4M32 41h3M44 41h3M52 41h3M58 41h1M22 42h2M26 42h6M50 42h7M59 42h1M21 43h3M27 43h8M49 43h2M52 43h6M59 43h1M21 44h3M27 44h9M49 44h1M51 44h7M21 45h3M28 45h10M49 45h1M51 45h3M55 45h3M24 46h2M30 46h10M47 46h1M51 46h3M55 46h3M31 47h12M44 47h1M46 47h1M48 47h1M50 47h1M54 47h3M31 48h13M45 48h1M47 48h1M49 48h1M51 48h3M31 49h14M46 49h1M48 49h1M50 49h4M31 50h23M30 51h24M30 52h24M31 53h23M28 54h2M31 54h22M29 55h9M39 55h1M41 55h1M43 55h10M31 56h4M40 56h1M42 56h1M45 56h7M47 57h2M29 59h1M34 59h1M31 60h2M47 60h1M49 60h4M52 61h1" />
<path stroke="#ffffff" d="M24 18h1M26 18h1M54 18h1M56 18h1M21 19h1M23 19h1M53 19h1M55 19h1M57 19h1M20 20h1M22 20h1M24 20h1M37 20h3M54 20h1M56 20h1M20 21h2M35 21h6M36 22h4M29 26h1M29 27h1M32 27h1M44 27h2M49 27h1M28 28h2M32 28h2M42 28h3M49 28h1M28 29h1M32 29h1M34 29h1M41 29h1M43 29h2M28 30h1M36 30h1M32 33h1M44 33h1M29 52h1M28 53h3M30 54h1M29 58h2M31 59h2M49 61h2" />
</svg>