<svg xmlns="http://www.w3.org/2000/svg" viewBox="0 -0.5 80 80" shape-rendering="crispEdges">
<metadata>Made with Pixels to Svg https://codepen.io/shshaw/pen/XbxvNj</metadata>
<path stroke="#ff3119" d="M43 18h1M41 19h1M38 20h1M42 20h1M46 20h2M37 21h1M43 21h3M36 22h1M43 22h6M35 23h2M42 23h9M34 24h2M41 24h1M43 24h9M33 25h2M40 25h1M42 25h11M33 26h2M41 26h1M43 26h11M32 27h4M40 27h1M42 27h12M32 28h3M39 28h1M41 28h14M31 29h3M35 29h1M38 29h1M40 29h6M48 29h7M31 30h1M39 30h1M41 30h3M47 30h1M50 30h5M37 31h3M41 31h2M46 31h4M51 31h5M33 32h6M40 32h2M45 32h6M52 32h4M32 33h7M40 33h2M46 33h5M52 33h4M33 34h6M40 34h2M48 34h4M53 34h3M27 35h1M34 35h6M41 35h2M49 35h3M53 35h3M27 36h1M29 36h1M34 36h6M41 36h2M50 36h1M52 36h3M28 37h1M30 37h1M33 37h8M42 37h2M50 37h1M52 37h3M29 38h1M32 38h10M43 38h2M48 38h2M51 38h3M31 39h8M40 39h3M45 39h3M50 39h4M30 40h1M33 40h6M40 40h5M48 40h5M31 41h1M34 41h4M39 41h13M35 42h10M49 42h2M22 43h1M25 43h1M35 43h7M50 43h1M20 44h1M25 44h1M35 44h5M47 44h2M19 45h1M24 45h2M36 45h3M45 45h3M49 45h1M23 46h2M35 46h3M44 46h3M48 46h1M23 47h2M34 47h1M36 47h1M44 47h3M48 47h1M22 48h2M33 48h1M35 48h2M43 48h3M47 48h2M22 49h2M31 49h1M34 49h1M43 49h3M47 49h3M22 50h2M33 50h1M35 50h1M43 50h3M49 50h1M22 51h2M32 51h1M34 51h2M43 51h3M50 51h1M22 52h3M30 52h1M33 52h1M35 52h1M43 52h4M49 52h1M51 52h1M53 52h3M22 53h4M28 53h3M32 53h5M43 53h5M49 53h2M52 53h1M54 53h4M61 53h2M22 54h6M30 54h2M33 54h4M44 54h7M52 54h2M58 54h5M23 55h9M33 55h4M44 55h7M52 55h1M55 55h8M24 56h9M34 56h4M45 56h5M51 56h1M53 56h6M61 56h1M25 57h9M36 57h2M47 57h3M51 57h1M54 57h4M26 58h7M38 58h1M50 58h1M56 58h2M26 59h3M44 59h1M25 60h1M43 60h1" />
<path stroke="#000000" d="M44 18h2M39 19h2M42 19h1M46 19h1M41 20h1M43 20h3M36 21h1M42 21h1M46 21h3M35 22h1M37 22h1M42 22h1M49 22h2M34 23h1M38 23h1M41 23h1M51 23h1M33 24h1M39 24h2M52 24h1M32 25h1M53 25h1M32 26h1M54 26h1M31 27h1M54 27h1M31 28h1M35 28h4M55 28h1M30 29h1M34 29h1M39 29h1M46 29h2M55 29h1M29 30h1M32 30h2M40 30h1M44 30h2M48 30h2M55 30h1M29 31h3M40 31h1M43 31h1M50 31h1M56 31h1M28 32h1M39 32h1M42 32h1M51 32h1M56 32h1M27 33h1M29 33h3M39 33h1M42 33h4M51 33h1M56 33h1M26 34h1M28 34h5M39 34h1M42 34h1M45 34h3M52 34h1M56 34h1M26 35h1M28 35h5M40 35h1M45 35h1M48 35h1M52 35h1M56 35h1M26 36h1M28 36h1M30 36h3M40 36h1M43 36h1M49 36h1M51 36h1M55 36h1M27 37h1M29 37h1M31 37h1M41 37h1M44 37h1M48 37h2M51 37h1M55 37h1M28 38h1M42 38h1M45 38h3M50 38h1M54 38h1M29 39h2M39 39h1M43 39h2M48 39h2M54 39h1M31 40h2M39 40h1M45 40h3M53 40h1M30 41h1M33 41h1M38 41h1M52 41h1M31 42h1M34 42h1M45 42h4M51 42h1M23 43h2M32 43h1M42 43h3M49 43h1M51 43h1M21 44h1M26 44h1M32 44h1M40 44h2M49 44h2M26 45h1M33 45h1M39 45h1M48 45h1M50 45h1M18 46h1M25 46h1M33 46h1M38 46h1M47 46h1M49 46h1M18 47h1M25 47h1M33 47h1M37 47h1M47 47h1M49 47h1M17 48h1M24 48h1M32 48h1M37 48h4M46 48h1M49 48h1M17 49h4M24 49h1M30 49h1M32 49h1M36 49h2M40 49h2M46 49h1M50 49h1M16 50h2M20 50h2M24 50h1M28 50h2M31 50h1M36 50h1M41 50h1M46 50h3M50 50h1M16 51h1M21 51h1M24 51h4M31 51h1M36 51h1M41 51h1M46 51h1M49 51h1M51 51h1M53 51h3M16 52h1M21 52h1M25 52h1M31 52h1M36 52h2M40 52h2M47 52h1M50 52h1M52 52h1M56 52h2M61 52h2M16 53h2M20 53h2M26 53h2M31 53h1M37 53h4M48 53h1M51 53h1M53 53h1M58 53h3M63 53h1M17 54h4M28 54h2M32 54h1M37 54h1M51 54h1M54 54h4M63 54h1M17 55h1M32 55h1M37 55h1M51 55h1M53 55h2M63 55h1M18 56h1M21 56h3M33 56h1M38 56h1M40 56h3M50 56h1M52 56h1M59 56h2M62 56h1M18 57h1M20 57h2M24 57h1M34 57h2M38 57h3M43 57h1M50 57h1M52 57h1M58 57h1M61 57h1M19 58h2M25 58h1M33 58h5M39 58h1M44 58h1M49 58h1M51 58h1M58 58h1M61 58h1M20 59h2M24 59h2M29 59h4M35 59h6M43 59h1M48 59h6M59 59h2M22 60h3M26 60h3M39 60h4M46 60h2M54 60h5M43 61h3" />
<path stroke="#ffffff" d="M43 19h1M39 20h2M38 21h2M38 22h1M39 50h2M19 51h2M39 51h2M19 52h2M23 58h2M42 58h2" />
<path stroke="#ffb521" d="M44 19h2M40 21h2M39 22h3M37 23h1M39 23h2M36 24h3M42 24h1M35 25h5M41 25h1M35 26h6M42 26h1M36 27h4M41 27h1M40 28h1M36 29h2M30 30h1M34 30h5M46 30h1M32 31h5M44 31h2M29 32h4M43 32h2M28 33h1M27 34h1M43 34h2M33 35h1M43 35h2M46 35h2M33 36h1M44 36h5M32 37h1M45 37h3M30 38h2M32 41h1M32 42h2M33 43h2M45 43h4M22 44h3M33 44h2M42 44h5M20 45h4M34 45h2M40 45h5M19 46h4M34 46h1M39 46h5M19 47h4M35 47h1M38 47h6M18 48h4M34 48h1M41 48h2M21 49h1M33 49h1M35 49h1M38 49h2M42 49h1M18 50h2M30 50h1M32 50h1M34 50h1M37 50h2M42 50h1M17 51h2M28 51h3M33 51h1M37 51h2M42 51h1M47 51h2M17 52h2M26 52h4M32 52h1M34 52h1M38 52h2M42 52h1M48 52h1M18 53h2M41 53h2M21 54h1M38 54h6M18 55h5M38 55h6M19 56h2M39 56h1M43 56h2M19 57h1M22 57h2M41 57h2M44 57h3M53 57h1M59 57h2M21 58h2M40 58h2M45 58h4M52 58h4M59 58h2M22 59h2M41 59h2M45 59h3M54 59h5M44 60h2" />
</svg>