<svg xmlns="http://www.w3.org/2000/svg" viewBox="0 -0.5 79 79" shape-rendering="crispEdges">
<metadata>Made with Pixels to Svg https://codepen.io/shshaw/pen/XbxvNj</metadata>
<path stroke="#000000" d="M22 20h2M36 20h2M21 21h1M23 21h2M26 21h2M35 21h1M38 21h1M22 22h4M29 22h1M33 22h2M37 22h2M22 23h2M30 23h3M36 23h3M21 24h1M31 24h1M35 24h1M37 24h1M20 25h1M26 25h3M31 25h2M34 25h1M36 25h2M20 26h1M25 26h4M31 26h7M43 26h4M58 26h2M25 27h3M31 27h9M42 27h1M47 27h2M57 27h1M59 27h1M19 28h1M22 28h1M30 28h8M41 28h1M49 28h1M55 28h2M58 28h2M19 29h1M28 29h9M42 29h2M50 29h1M53 29h2M58 29h1M20 30h3M26 30h2M31 30h6M43 30h3M51 30h2M57 30h2M18 31h1M23 31h3M28 31h1M31 31h8M43 31h2M46 31h1M51 31h3M56 31h3M17 32h1M19 32h1M26 32h1M28 32h1M30 32h4M35 32h4M44 32h2M47 32h1M52 32h6M17 33h4M27 33h6M34 33h1M36 33h4M44 33h1M46 33h3M52 33h6M18 34h1M31 34h3M35 34h1M37 34h3M44 34h5M52 34h5M19 35h1M25 35h2M32 35h1M34 35h1M36 35h5M44 35h6M51 35h5M20 36h5M27 36h1M32 36h2M35 36h6M43 36h7M51 36h4M20 37h1M25 37h1M32 37h9M42 37h13M21 38h1M31 38h24M22 39h3M30 39h25M25 40h5M32 40h24M29 41h1M33 41h16M50 41h1M52 41h4M30 42h2M34 42h1M36 42h14M51 42h1M53 42h4M30 43h4M35 43h3M39 43h10M50 43h1M53 43h4M31 44h4M36 44h1M38 44h6M46 44h4M54 44h4M31 45h7M39 45h4M49 45h3M55 45h2M58 45h1M31 46h6M38 46h5M49 46h2M52 46h4M58 46h1M30 47h1M32 47h4M37 47h1M39 47h4M48 47h1M50 47h1M58 47h1M30 48h1M36 48h8M48 48h1M51 48h1M57 48h1M29 49h3M36 49h1M42 49h1M44 49h4M50 49h1M53 49h2M28 50h1M34 50h2M43 50h1M49 50h1M57 50h1M28 51h1M30 51h1M35 51h2M43 51h1M49 51h1M51 51h1M57 51h1M29 52h1M32 52h1M35 52h4M43 52h1M49 52h1M53 52h1M56 52h1M30 53h5M36 53h1M41 53h1M43 53h1M50 53h1M53 53h1M56 53h1M35 54h1M42 54h1M52 54h4M35 55h1M38 55h1M41 55h1M36 56h5" />
<path stroke="#ff374f" d="M22 21h1M36 21h2M21 22h1M28 22h1M35 22h2M21 23h1M33 23h3M32 24h3M36 24h1M33 25h1M35 25h1M19 27h1M30 27h1M41 27h1M58 27h1M29 28h1M40 28h1M57 28h1M27 29h1M44 29h1M55 29h3M25 30h1M46 30h1M53 30h4M19 31h1M22 31h1M45 31h1M47 31h1M54 31h2M18 32h1M25 32h1M34 32h1M39 32h1M46 32h1M26 33h1M33 33h1M35 33h1M45 33h1M30 34h1M34 34h1M36 34h1M40 34h1M49 34h1M24 35h1M31 35h1M33 35h1M35 35h1M43 35h1M26 36h1M31 36h1M34 36h1M31 37h1M30 38h1M28 39h2M30 40h2M28 41h1M30 41h3M49 41h1M51 41h1M32 42h2M35 42h1M50 42h1M52 42h1M34 43h1M38 43h1M49 43h1M51 43h2M30 44h1M35 44h1M37 44h1M44 44h2M50 44h4M38 45h1M43 45h6M52 45h3M37 46h1M44 46h5M38 47h1M44 48h1M46 48h1M32 49h1M52 49h1M55 49h3M33 50h1M32 51h1M39 52h2M50 52h1M38 54h1M51 54h1M36 55h1" />
<path stroke="#ffffff" d="M26 22h2M24 23h4M22 24h7M21 25h4M21 26h4M20 27h5M43 27h4M20 28h2M23 28h1M38 28h2M43 28h6M37 29h5M48 29h2M28 30h3M40 30h3M20 31h2M26 31h2M29 31h1M42 31h1M27 32h1M29 32h1M25 36h1M51 46h1M51 47h2M52 48h2M37 49h3M51 49h1M29 50h2M36 50h4M50 50h3M29 51h1M37 51h1M50 51h1M52 51h2M51 52h2M35 53h1M37 53h2" />
<path stroke="#ff6707" d="M28 23h2M29 24h2M25 25h1M29 25h2M29 26h2M28 27h2M24 28h5M42 28h1M20 29h7M45 29h3M23 30h2M37 30h3M47 30h4M30 31h1M39 31h3M48 31h3M20 32h5M40 32h4M48 32h4M21 33h5M40 33h4M49 33h3M19 34h11M41 34h3M50 34h2M20 35h4M27 35h4M41 35h2M50 35h1M28 36h3M41 36h2M50 36h1M21 37h4M26 37h5M41 37h1M22 38h8M25 39h3M57 45h1M43 46h1M56 46h2M31 47h1M43 47h5M53 47h5M31 48h5M45 48h1M47 48h1M54 48h3M33 49h3M40 49h2M31 50h2M40 50h3M53 50h4M31 51h1M33 51h2M38 51h5M54 51h3M30 52h2M33 52h2M41 52h2M54 52h2M39 53h2M42 53h1M51 53h2M54 53h2M36 54h2M39 54h3M37 55h1M39 55h2" />
</svg>