<svg xmlns="http://www.w3.org/2000/svg" viewBox="0 -0.5 80 80" shape-rendering="crispEdges">
<metadata>Made with Pixels to Svg https://codepen.io/shshaw/pen/XbxvNj</metadata>
<path stroke="#8c3a19" d="M44 20h1M43 21h1M50 23h1M49 24h1M39 25h1M42 25h1M47 25h1M23 26h1M25 26h1M22 27h1M37 28h1M30 29h2M35 29h1M52 29h1M24 30h1M29 30h1M32 30h1M38 30h1M26 31h2M34 31h1M41 31h1M20 32h1M25 32h1M34 32h1M40 32h1M24 33h1M44 33h1M23 34h1M38 34h1M41 34h1M44 34h1M26 35h1M37 35h1M41 35h1M44 35h1M50 36h1M28 37h3M38 37h1M27 38h2M39 38h1M29 39h2M43 39h1M31 40h1M41 40h1M29 41h2M38 41h1M43 41h2M49 41h2M39 42h1M41 42h2M46 42h1M49 42h1M52 42h1M40 43h1M43 43h3M41 44h2M46 44h1M40 45h1M43 45h3M47 45h1M53 45h1M55 45h1M39 46h1M41 46h7M37 47h11M35 48h7M43 48h6M36 49h7M44 49h2M47 49h3M54 49h1M36 50h7M46 50h3M36 51h1M39 51h4M45 51h3M41 52h1M46 52h2M37 53h2M51 53h1M50 54h1M37 55h1M49 55h1M52 55h1M36 56h4M49 56h4M32 57h8M50 57h5M32 58h5" />
<path stroke="#000000" d="M45 20h2M47 21h1M43 22h1M48 22h1M40 23h2M43 23h1M48 23h1M51 23h1M39 24h1M42 24h1M47 24h1M52 24h1M41 25h1M48 25h1M53 25h1M24 26h1M39 26h2M46 26h2M53 26h1M26 27h1M38 27h1M53 27h1M22 28h1M27 28h1M36 28h1M52 28h1M23 29h2M28 29h1M37 29h1M51 29h1M22 30h2M25 30h1M28 30h1M34 30h1M50 30h1M53 30h1M21 31h1M25 31h1M29 31h1M32 31h1M38 31h1M42 31h1M49 31h1M53 31h1M28 32h1M32 32h1M38 32h1M41 32h1M43 32h1M49 32h1M54 32h1M20 33h1M23 33h1M27 33h1M31 33h1M34 33h1M38 33h1M40 33h3M54 33h1M21 34h2M26 34h1M31 34h1M35 34h1M40 34h1M42 34h1M52 34h1M54 34h1M23 35h1M30 35h1M35 35h1M40 35h1M42 35h1M51 35h1M54 35h1M23 36h1M30 36h1M36 36h2M41 36h1M51 36h1M53 36h1M24 37h1M50 37h2M53 37h1M25 38h2M31 38h1M38 38h1M50 38h1M52 38h1M27 39h1M32 39h1M37 39h1M40 39h1M44 39h3M51 39h1M28 40h1M33 40h4M42 40h1M47 40h1M49 40h2M28 41h1M34 41h1M45 41h4M51 41h2M29 42h1M37 42h2M47 42h2M53 42h3M30 43h1M34 43h3M39 43h1M47 43h1M49 43h1M51 43h2M56 43h2M31 44h3M39 44h1M48 44h1M50 44h1M58 44h1M39 45h1M48 45h2M54 45h1M58 45h1M37 46h2M40 46h1M48 46h1M52 46h4M58 46h1M36 47h1M48 47h1M51 47h1M54 47h1M56 47h2M42 48h1M49 48h2M54 48h1M57 48h1M35 49h1M43 49h1M46 49h1M50 49h1M57 49h1M35 50h1M43 50h3M49 50h2M55 50h2M35 51h1M37 51h2M43 51h2M48 51h1M51 51h1M36 52h1M40 52h1M42 52h1M45 52h1M48 52h1M52 52h1M36 53h1M39 53h3M46 53h2M49 53h1M52 53h1M35 54h3M39 54h1M49 54h1M52 54h1M33 55h2M38 55h2M48 55h1M50 55h2M53 55h2M32 56h1M40 56h1M48 56h1M55 56h1M31 57h1M40 57h1M49 57h1M55 57h1M31 58h1M37 58h3M50 58h5M32 59h5" />
<path stroke="#bd7b94" d="M44 21h1M44 22h2M44 23h3M40 24h2M43 24h4M50 24h1M40 25h1M43 25h4M49 25h2M41 26h5M48 26h4M25 27h1M39 27h4M46 27h6M23 28h4M38 28h5M47 28h5M25 29h3M38 29h6M47 29h4M26 30h2M31 30h1M37 30h1M39 30h11M51 30h2M23 31h2M28 31h1M30 31h2M36 31h2M39 31h2M43 31h6M50 31h3M22 32h3M26 32h2M29 32h3M36 32h2M39 32h1M44 32h5M50 32h4M21 33h2M25 33h2M28 33h3M36 33h2M39 33h1M45 33h9M24 34h2M27 34h4M36 34h2M39 34h1M45 34h7M53 34h1M24 35h2M27 35h3M36 35h1M38 35h2M45 35h6M53 35h1M24 36h6M38 36h3M44 36h6M25 37h3M39 37h11M40 38h10M51 38h1M39 39h1M41 39h2M47 39h4M32 40h1M37 40h4M43 40h4M48 40h1M31 41h3M35 41h3M39 41h4M30 42h7M40 42h1M43 42h3M31 43h3M41 43h2M46 43h1M53 43h2M40 44h1M43 44h3M47 44h1M52 44h4M41 45h2M46 45h1M51 45h2M56 45h1M50 46h2M56 46h2M49 47h2M55 47h1M55 48h2M55 49h2M49 51h2M37 52h3M49 52h3M50 53h1M38 54h1M51 54h1M36 55h1M35 56h1M53 56h1" />
<path stroke="#ffffff" d="M45 21h2M46 22h2M47 23h1M48 24h1M51 24h1M51 25h2M52 26h1M23 27h2M43 27h3M52 27h1M43 28h4M36 29h1M44 29h3M30 30h1M35 30h2M22 31h1M35 31h1M21 32h1M35 32h1M42 32h1M35 33h1M43 33h1M43 34h1M43 35h1M52 35h1M42 36h2M52 36h1M52 37h1M29 38h2M28 39h1M31 39h1M38 39h1M29 40h2M50 42h2M48 43h1M50 43h1M55 43h1M49 44h1M51 44h1M56 44h2M50 45h1M57 45h1M49 46h1M35 55h1M33 56h2M54 56h1" />
</svg>