<svg xmlns="http://www.w3.org/2000/svg" viewBox="0 -0.5 80 80" shape-rendering="crispEdges">
<metadata>Made with Pixels to Svg https://codepen.io/shshaw/pen/XbxvNj</metadata>
<path stroke="#bd4a52" d="M38 18h1M41 19h2M45 19h1M33 20h1M41 20h3M31 21h1M40 21h3M49 21h1M30 22h1M39 22h5M49 22h2M37 23h1M39 23h2M44 23h1M48 23h5M30 24h1M38 24h2M45 24h7M30 25h2M36 25h1M46 25h6M30 26h6M37 26h1M46 26h6M31 27h5M37 27h3M45 27h6M32 28h2M37 28h2M40 28h1M44 28h6M38 29h1M41 29h3M45 29h3M50 29h2M45 30h9M45 31h8M44 32h9M41 33h12M32 34h2M42 34h5M48 34h4M34 35h1M42 35h6M42 36h7M42 37h6M41 38h5M41 39h2M49 39h2M48 40h4M34 41h1M36 41h1M47 41h3M32 42h2M35 42h3M46 42h3M30 43h3M34 43h6M44 43h5M29 44h3M33 44h15M28 45h4M36 45h9M47 45h1M29 46h2M37 46h9M38 47h8M39 48h6M39 49h7M40 50h6M40 51h7M40 52h7M51 52h2M41 53h7M49 53h4M41 54h7M49 54h4M41 55h7M49 55h3M41 56h7M49 56h1M33 57h1M42 57h5M31 58h5M43 58h4M31 59h1M33 59h5M42 59h2M46 59h3M30 60h1M33 60h5M43 60h2M47 60h2M34 61h2M44 61h3" />
<path stroke="#000000" d="M39 18h4M37 19h1M43 19h1M46 19h2M34 20h3M44 20h1M48 20h2M32 21h1M36 21h2M43 21h1M50 21h1M38 22h1M51 22h1M30 23h1M38 23h1M41 23h3M29 24h1M44 24h1M52 24h1M29 25h1M45 25h1M52 25h1M29 26h1M36 26h1M45 26h1M52 26h1M30 27h1M36 27h1M51 27h1M31 28h1M34 28h3M39 28h1M50 28h2M32 29h3M36 29h2M39 29h2M44 29h1M48 29h2M52 29h1M33 30h3M38 30h2M41 30h3M31 31h2M39 31h1M41 31h1M53 31h1M30 32h1M40 32h2M53 32h1M30 33h1M32 33h2M40 33h1M53 33h1M31 34h1M34 34h1M41 34h1M47 34h1M52 34h1M31 35h1M33 35h1M35 35h2M41 35h1M48 35h4M32 36h1M34 36h2M41 36h1M49 36h1M33 37h1M41 37h1M48 37h1M33 38h3M40 38h1M46 38h5M53 38h2M36 39h2M40 39h1M43 39h6M51 39h2M55 39h1M34 40h14M52 40h1M55 40h1M32 41h2M35 41h1M37 41h10M50 41h1M53 41h3M26 42h2M30 42h2M34 42h1M38 42h8M49 42h1M56 42h2M25 43h1M28 43h2M33 43h1M40 43h4M51 43h2M55 43h1M58 43h1M22 44h4M28 44h1M32 44h1M48 44h1M53 44h1M56 44h2M21 45h1M24 45h1M26 45h2M32 45h1M45 45h2M48 45h1M51 45h2M56 45h1M22 46h2M31 46h1M46 46h4M55 46h1M23 47h2M29 47h3M46 47h1M50 47h5M23 48h1M25 48h1M28 48h1M30 48h1M45 48h1M23 49h1M26 49h2M30 49h1M46 49h1M24 50h2M30 50h1M46 50h1M53 50h2M30 51h1M47 51h1M51 51h2M55 51h1M31 52h1M47 52h4M55 52h1M31 53h1M48 53h1M54 53h1M32 54h1M48 54h1M53 54h1M32 55h1M40 55h1M48 55h1M52 55h1M33 56h1M40 56h1M48 56h1M50 56h2M31 57h2M34 57h2M41 57h1M47 57h3M29 58h2M36 58h2M41 58h2M47 58h2M27 59h2M38 59h4M49 59h1M26 60h1M38 60h1M40 60h2M49 60h1M27 61h3M33 61h1M36 61h2M40 61h1M49 61h1M30 62h6M40 62h1M43 62h4M49 62h1M41 63h2M47 63h2" />
<path stroke="#ff944a" d="M38 19h3M37 20h4M45 20h3M33 21h3M38 21h2M44 21h5M31 22h7M44 22h5M31 23h6M45 23h3M31 24h7M40 24h4M32 25h4M37 25h8M38 26h7M40 27h5M41 28h3M34 33h1M35 34h6M32 35h1M37 35h4M33 36h1M36 36h5M34 37h7M36 38h4M38 39h2M51 41h2M50 42h6M49 43h2M53 43h2M49 44h2M54 44h2M25 45h1M35 45h1M49 45h2M53 45h3M24 46h5M36 46h1M50 46h5M25 47h4M37 47h1M26 48h2M37 48h2M37 49h2M36 50h4M31 51h1M35 51h5M53 51h2M32 52h8M53 52h1M32 53h9M53 53h1M33 54h8M33 55h7M34 56h6M36 57h5M38 58h3M30 59h1M32 59h1M44 59h2M45 60h2" />
<path stroke="#ffffff" d="M35 29h1M36 30h2M40 30h1M44 30h1M33 31h6M40 31h1M42 31h3M31 32h9M42 32h2M31 33h1M35 33h5M53 39h2M53 40h2M26 43h2M56 43h2M26 44h2M51 44h2M22 45h2M33 45h2M32 46h4M32 47h5M24 48h1M31 48h6M24 49h2M31 49h6M31 50h5M32 51h3M54 52h1M29 59h1M27 60h3M31 60h2M42 60h1M30 61h3M41 61h3M47 61h2M41 62h2M47 62h2" />
</svg>