<svg xmlns="http://www.w3.org/2000/svg" viewBox="0 -0.5 79 79" shape-rendering="crispEdges">
<metadata>Made with Pixels to Svg https://codepen.io/shshaw/pen/XbxvNj</metadata>
<path stroke="#000000" d="M27 11h3M26 12h1M30 12h1M32 12h2M45 12h3M25 13h1M31 13h1M34 13h1M44 13h1M48 13h1M25 14h1M32 14h1M35 14h1M44 14h1M48 14h1M26 15h2M35 15h1M44 15h1M48 15h1M27 16h1M35 16h2M43 16h1M48 16h1M17 17h2M27 17h1M37 17h3M43 17h1M47 17h1M51 17h2M15 18h1M19 18h1M26 18h1M38 18h1M40 18h1M43 18h1M47 18h1M50 18h1M53 18h1M13 19h1M20 19h1M26 19h1M38 19h1M40 19h1M43 19h1M47 19h1M50 19h1M54 19h1M58 19h3M21 20h1M26 20h1M37 20h2M41 20h2M47 20h1M49 20h1M54 20h1M57 20h1M61 20h1M12 21h1M22 21h2M25 21h1M35 21h3M41 21h2M46 21h1M49 21h1M53 21h1M56 21h1M61 21h1M12 22h1M24 22h1M33 22h2M36 22h1M42 22h1M46 22h1M48 22h1M53 22h1M55 22h1M60 22h1M12 23h1M23 23h1M25 23h1M33 23h1M37 23h1M46 23h2M52 23h1M54 23h1M60 23h1M13 24h1M17 24h3M25 24h5M32 24h1M37 24h1M46 24h2M52 24h2M59 24h1M13 25h1M16 25h6M26 25h1M29 25h2M32 25h1M37 25h1M46 25h1M51 25h2M58 25h1M61 25h2M14 26h2M19 26h4M26 26h2M29 26h2M32 26h2M38 26h1M51 26h1M57 26h1M59 26h2M63 26h1M20 27h4M27 27h1M29 27h2M33 27h2M50 27h1M56 27h3M63 27h1M18 28h12M33 28h2M63 28h1M17 29h1M22 29h5M33 29h1M35 29h1M51 29h3M62 29h1M16 30h1M24 30h1M26 30h1M33 30h1M47 30h2M50 30h1M54 30h1M60 30h2M16 31h1M18 31h3M24 31h1M27 31h1M33 31h1M36 31h3M46 31h1M49 31h1M54 31h1M59 31h1M17 32h2M20 32h4M26 32h1M30 32h1M34 32h2M39 32h2M44 32h2M48 32h1M55 32h4M62 32h3M20 33h3M25 33h1M27 33h3M35 33h2M41 33h3M53 33h3M59 33h3M65 33h1M19 34h4M25 34h2M30 34h1M37 34h1M59 34h1M66 34h1M18 35h4M24 35h1M30 35h1M57 35h4M66 35h1M18 36h1M23 36h1M31 36h1M56 36h1M61 36h1M64 36h2M15 37h3M19 37h4M31 37h1M62 37h2M14 38h1M28 38h1M62 38h1M14 39h1M28 39h1M32 39h1M41 39h1M59 39h3M15 40h1M29 40h1M42 40h1M57 40h2M62 40h2M13 41h5M28 41h2M34 41h1M43 41h1M64 41h1M12 42h1M27 42h1M29 42h1M43 42h1M63 42h1M11 43h1M27 43h1M30 43h1M44 43h1M58 43h2M62 43h1M11 44h1M27 44h1M29 44h3M44 44h1M60 44h2M12 45h4M26 45h1M28 45h1M30 45h3M44 45h2M62 45h1M12 46h2M26 46h2M31 46h3M43 46h1M45 46h1M63 46h1M11 47h1M26 47h1M30 47h2M34 47h3M42 47h1M46 47h1M58 47h1M64 47h1M11 48h1M26 48h1M29 48h1M36 48h6M43 48h2M46 48h1M59 48h2M64 48h1M12 49h5M26 49h1M28 49h1M31 49h1M33 49h1M35 49h2M39 49h1M42 49h1M44 49h1M46 49h1M60 49h4M13 50h2M27 50h2M30 50h1M32 50h2M35 50h1M39 50h1M42 50h1M44 50h3M61 50h1M12 51h1M29 51h2M32 51h2M35 51h1M38 51h2M43 51h2M46 51h1M62 51h1M11 52h1M18 52h1M27 52h1M31 52h2M34 52h1M38 52h2M45 52h1M57 52h1M63 52h1M11 53h1M17 53h1M28 53h1M30 53h1M38 53h2M42 53h1M45 53h1M57 53h1M63 53h1M12 54h1M15 54h3M28 54h3M37 54h1M39 54h1M42 54h1M44 54h1M49 54h1M58 54h1M64 54h1M13 55h2M16 55h1M21 55h1M28 55h2M33 55h1M37 55h1M39 55h1M42 55h1M44 55h1M49 55h1M53 55h1M58 55h2M64 55h1M16 56h1M21 56h1M29 56h1M33 56h1M37 56h1M42 56h2M48 56h2M58 56h1M60 56h1M63 56h1M15 57h1M20 57h1M24 57h1M29 57h2M33 57h1M36 57h1M38 57h1M43 57h1M48 57h1M53 57h1M59 57h2M63 57h1M15 58h1M20 58h1M25 58h1M30 58h1M32 58h1M36 58h1M38 58h1M42 58h1M47 58h2M53 58h1M59 58h1M61 58h2M15 59h1M20 59h1M25 59h1M30 59h3M36 59h1M38 59h1M41 59h1M47 59h2M53 59h1M59 59h1M16 60h1M20 60h2M26 60h1M31 60h2M36 60h1M39 60h2M46 60h1M48 60h1M53 60h1M59 60h1M16 61h1M20 61h2M26 61h1M32 61h4M39 61h1M46 61h2M52 61h1M54 61h1M58 61h1M17 62h3M21 62h1M26 62h2M33 62h1M39 62h1M45 62h1M47 62h1M52 62h1M54 62h1M58 62h1M22 63h1M26 63h1M28 63h1M32 63h1M40 63h2M44 63h1M46 63h1M51 63h1M54 63h1M57 63h1M23 64h3M29 64h3M42 64h2M46 64h1M51 64h1M55 64h2M47 65h1M50 65h1M48 66h2" />
<path stroke="#ffffff" d="M27 12h3M26 13h5M32 13h2M26 14h2M30 14h1M33 14h2M29 15h2M32 15h3M28 16h3M32 16h2M28 17h2M31 17h3M35 17h2M16 18h3M27 18h2M30 18h3M35 18h3M44 18h1M14 19h6M27 19h2M30 19h3M34 19h1M36 19h2M45 19h1M13 20h8M27 20h2M30 20h2M33 20h4M44 20h1M46 20h1M13 21h9M27 21h1M29 21h2M32 21h3M43 21h1M45 21h1M50 21h1M13 22h11M30 22h1M32 22h1M39 22h1M43 22h3M49 22h1M51 22h1M56 22h1M13 23h10M24 23h1M31 23h2M35 23h1M38 23h1M40 23h1M43 23h3M50 23h1M53 23h1M55 23h1M57 23h1M14 24h3M20 24h5M34 24h1M36 24h1M39 24h1M41 24h1M43 24h3M48 24h4M54 24h1M56 24h1M58 24h1M14 25h2M22 25h3M33 25h1M35 25h1M38 25h3M42 25h4M48 25h3M53 25h5M23 26h2M28 26h1M34 26h4M39 26h2M42 26h4M47 26h4M52 26h5M58 26h1M24 27h1M26 27h1M28 27h1M35 27h3M39 27h2M42 27h4M47 27h3M51 27h5M59 27h1M35 28h4M40 28h1M42 28h3M46 28h10M58 28h1M60 28h1M34 29h1M36 29h3M40 29h5M46 29h5M54 29h4M59 29h1M61 29h1M25 30h1M34 30h1M36 30h11M49 30h1M55 30h5M25 31h1M34 31h2M39 31h7M51 31h3M55 31h4M24 32h2M41 32h3M54 32h1M23 33h2M56 33h2M23 34h2M54 34h4M62 34h1M22 35h2M40 35h1M42 35h1M44 35h1M61 35h1M63 35h1M19 36h4M41 36h1M43 36h1M45 36h1M57 36h3M62 36h1M44 37h1M46 37h1M48 37h1M57 37h2M60 37h1M45 38h1M47 38h1M56 38h4M16 39h1M18 39h1M22 39h1M24 39h1M46 39h1M57 39h2M17 40h1M23 40h1M45 40h1M59 40h2M22 41h1M24 41h1M46 41h1M48 41h1M60 41h2M15 42h1M21 42h1M23 42h1M47 42h1M61 42h1M14 43h1M16 43h1M22 43h1M35 43h4M46 43h1M48 43h1M60 43h1M15 44h2M21 44h1M33 44h9M47 44h1M49 44h1M59 44h1M22 45h1M27 45h1M33 45h10M48 45h1M60 45h2M14 46h2M21 46h1M29 46h1M35 46h8M49 46h1M60 46h2M13 47h1M15 47h1M22 47h1M28 47h1M38 47h4M60 47h1M62 47h1M14 48h3M27 48h1M42 48h1M61 48h1M29 49h1M37 49h2M40 49h2M43 49h1M45 49h1M59 49h1M15 50h1M29 50h1M31 50h1M34 50h1M36 50h3M40 50h2M43 50h1M58 50h3M14 51h2M27 51h1M31 51h1M34 51h1M36 51h2M40 51h3M45 51h1M57 51h4M15 52h2M28 52h1M30 52h1M33 52h1M35 52h3M40 52h5M58 52h2M61 52h1M14 53h1M16 53h1M29 53h1M31 53h7M41 53h1M43 53h2M56 53h1M58 53h1M60 53h1M62 53h1M32 54h3M36 54h1M38 54h1M40 54h1M43 54h1M45 54h1M53 54h5M59 54h1M61 54h1M17 55h2M31 55h1M35 55h1M38 55h1M41 55h1M45 55h2M52 55h1M54 55h4M18 56h2M30 56h1M32 56h1M34 56h1M36 56h1M38 56h1M44 56h4M50 56h8M59 56h1M17 57h1M19 57h1M21 57h1M35 57h1M44 57h4M49 57h4M54 57h3M58 57h1M18 58h1M21 58h4M28 58h2M43 58h1M45 58h2M50 58h1M52 58h1M55 58h1M57 58h1M19 59h1M22 59h1M24 59h1M26 59h3M42 59h1M44 59h1M46 59h1M49 59h1M51 59h1M54 59h1M56 59h1M58 59h1M23 60h1M27 60h1M29 60h1M43 60h1M45 60h1M47 60h1M50 60h1M52 60h1M44 61h1M51 61h1M46 62h1" />
<path stroke="#f9411f" d="M45 13h3M45 14h3M45 15h3M44 16h4M16 17h1M44 17h3M14 18h1M39 18h1M45 18h2M51 18h2M39 19h1M44 19h1M46 19h1M51 19h3M12 20h1M39 20h2M43 20h1M45 20h1M50 20h4M58 20h3M38 21h3M44 21h1M51 21h2M57 21h4M25 22h2M28 22h1M35 22h1M37 22h2M40 22h2M50 22h1M52 22h1M57 22h3M26 23h4M34 23h1M36 23h1M39 23h1M41 23h1M49 23h1M51 23h1M56 23h1M58 23h2M30 24h1M33 24h1M35 24h1M38 24h1M40 24h1M55 24h1M57 24h1M25 25h1M31 25h1M34 25h1M36 25h1M25 26h1M31 26h1M61 26h2M25 27h1M31 27h2M60 27h3M30 28h3M57 28h1M59 28h1M61 28h2M18 29h4M27 29h6M58 29h1M60 29h1M17 30h7M27 30h6M17 31h1M21 31h3M26 31h1M28 31h5M50 31h1M27 32h3M31 32h3M36 32h3M46 32h2M49 32h1M53 32h1M26 33h1M30 33h4M37 33h4M44 33h6M51 33h2M62 33h3M27 34h3M31 34h3M38 34h15M60 34h2M63 34h3M25 35h5M31 35h2M37 35h3M41 35h1M43 35h1M45 35h9M62 35h1M64 35h2M24 36h7M37 36h4M42 36h1M44 36h1M46 36h10M63 36h1M23 37h8M37 37h7M45 37h1M47 37h1M49 37h7M22 38h6M29 38h3M36 38h9M46 38h1M48 38h6M20 39h2M23 39h1M25 39h3M29 39h3M36 39h5M42 39h4M47 39h9M21 40h2M24 40h5M30 40h3M35 40h7M43 40h2M46 40h11M19 41h3M23 41h1M25 41h3M30 41h4M35 41h8M44 41h2M47 41h1M49 41h10M18 42h3M22 42h1M24 42h3M30 42h13M44 42h3M48 42h7M57 42h2M18 43h4M23 43h4M31 43h4M39 43h5M45 43h1M47 43h1M49 43h8M20 44h1M22 44h5M32 44h1M42 44h2M45 44h2M48 44h1M50 44h8M17 45h5M23 45h3M29 45h1M43 45h1M46 45h2M49 45h6M56 45h3M17 46h4M22 46h4M28 46h1M30 46h1M34 46h1M44 46h1M46 46h3M50 46h2M53 46h3M57 46h2M17 47h2M21 47h1M23 47h3M27 47h1M29 47h1M33 47h1M37 47h1M43 47h2M47 47h5M53 47h3M57 47h1M19 48h7M28 48h1M30 48h6M45 48h1M47 48h2M50 48h3M54 48h3M17 49h9M27 49h1M30 49h1M32 49h1M34 49h1M47 49h2M50 49h3M54 49h3M17 50h3M21 50h6M47 50h3M51 50h2M54 50h3M17 51h2M20 51h7M28 51h1M47 51h3M51 51h2M54 51h2M19 52h3M23 52h4M29 52h1M46 52h4M51 52h2M54 52h2M19 53h2M22 53h6M40 53h1M46 53h4M51 53h2M19 54h2M22 54h2M25 54h3M31 54h1M35 54h1M41 54h1M47 54h2M50 54h2M22 55h2M25 55h3M30 55h1M32 55h1M34 55h1M36 55h1M40 55h1M43 55h1M22 56h2M25 56h4M31 56h1M35 56h1M39 56h3M25 57h3M31 57h2M34 57h1M39 57h4M31 58h1M33 58h3M39 58h3M33 59h3M39 59h2M33 60h3" />
<path stroke="#3d7f1e" d="M28 14h2M31 14h1M28 15h1M31 15h1M31 16h1M34 16h1M30 17h1M34 17h1M29 18h1M33 18h2M29 19h1M33 19h1M35 19h1M29 20h1M32 20h1M26 21h1M28 21h1M31 21h1M27 22h1M29 22h1M31 22h1M30 23h1M42 23h1M48 23h1M31 24h1M42 24h1M27 25h2M41 25h1M47 25h1M41 26h1M46 26h1M38 27h1M41 27h1M46 27h1M39 28h1M41 28h1M45 28h1M56 28h1M39 29h1M45 29h1M35 30h1M51 30h3M47 31h2M50 32h3M34 33h1M50 33h1M58 33h1M34 34h3M53 34h1M58 34h1M33 35h4M54 35h3M32 36h5M60 36h1M18 37h1M32 37h5M56 37h1M59 37h1M61 37h1M15 38h7M32 38h4M54 38h2M60 38h2M15 39h1M17 39h1M19 39h1M33 39h3M56 39h1M16 40h1M18 40h3M33 40h2M61 40h1M18 41h1M59 41h1M62 41h2M13 42h2M16 42h2M55 42h2M59 42h2M62 42h1M12 43h2M15 43h1M17 43h1M57 43h1M61 43h1M12 44h3M17 44h3M58 44h1M16 45h1M55 45h1M59 45h1M16 46h1M52 46h1M56 46h1M59 46h1M62 46h1M12 47h1M14 47h1M16 47h1M19 47h2M32 47h1M45 47h1M52 47h1M56 47h1M59 47h1M61 47h1M63 47h1M12 48h2M17 48h2M49 48h1M53 48h1M57 48h2M62 48h2M49 49h1M53 49h1M57 49h2M16 50h1M20 50h1M50 50h1M53 50h1M57 50h1M13 51h1M16 51h1M19 51h1M50 51h1M53 51h1M56 51h1M61 51h1M12 52h3M17 52h1M22 52h1M50 52h1M53 52h1M56 52h1M60 52h1M62 52h1M12 53h2M15 53h1M18 53h1M21 53h1M50 53h1M53 53h3M59 53h1M61 53h1M13 54h2M18 54h1M21 54h1M24 54h1M46 54h1M52 54h1M60 54h1M62 54h2M19 55h2M24 55h1M47 55h2M50 55h2M60 55h4M17 56h1M20 56h1M24 56h1M61 56h2M16 57h1M18 57h1M22 57h2M28 57h1M57 57h1M61 57h2M16 58h2M19 58h1M26 58h2M44 58h1M49 58h1M51 58h1M54 58h1M56 58h1M58 58h1M16 59h3M21 59h1M23 59h1M29 59h1M43 59h1M45 59h1M50 59h1M52 59h1M55 59h1M57 59h1M17 60h3M22 60h1M24 60h2M28 60h1M30 60h1M41 60h2M44 60h1M49 60h1M51 60h1M54 60h5M17 61h3M22 61h4M27 61h5M40 61h4M45 61h1M48 61h3M55 61h3M22 62h4M28 62h5M40 62h5M48 62h4M55 62h3M23 63h3M29 63h3M42 63h2M47 63h4M55 63h2M47 64h4M48 65h2" />
</svg>