<svg xmlns="http://www.w3.org/2000/svg" viewBox="0 -0.5 79 79" shape-rendering="crispEdges">
<metadata>Made with Pixels to Svg https://codepen.io/shshaw/pen/XbxvNj</metadata>
<path stroke="#af1747" d="M34 21h1M31 23h1M48 23h1M30 24h1M47 24h1M54 25h1M29 26h1M44 26h1M52 27h1M28 28h1M25 30h1M33 30h1M51 30h1M27 31h1M32 31h1M36 31h1M46 31h1M48 31h1M43 32h1M45 32h1M47 32h1M50 32h1M25 33h1M29 33h1M44 33h1M46 33h1M49 33h1M35 34h1M43 34h1M45 34h1M47 34h1M27 35h1M42 35h5M49 35h1M24 36h1M27 36h1M31 36h1M35 36h1M41 36h2M48 36h1M53 36h1M26 37h1M32 37h1M35 37h1M47 37h1M49 37h1M51 37h1M55 37h1M33 38h1M35 38h1M48 38h2M23 39h1M31 39h1M34 39h1M44 39h3M49 39h2M30 40h1M33 40h1M40 40h5M25 41h2M38 41h1M41 41h1M27 42h1M39 42h2M45 42h2M24 43h1M29 43h1M36 43h1M38 43h2M41 43h1M44 43h4M50 43h1M30 44h1M34 44h1M37 44h2M40 44h1M45 44h3M27 45h1M35 45h3M39 45h1M46 45h2M52 45h1M33 46h6M49 46h1M32 47h2M35 47h3M49 47h1M51 47h2M33 48h6M50 48h1M52 48h2M32 49h3M36 49h3M50 49h1M52 49h2M33 50h3M38 50h1M44 50h1M49 50h1M51 50h4M32 51h1M34 51h3M47 51h2M50 51h5M33 52h3M38 52h1M43 52h1M45 52h1M50 52h5M30 53h1M34 53h1M38 53h1M43 53h1M46 53h1M53 53h1M32 54h3M39 54h1M42 54h1M52 54h1M29 55h1M39 55h4M40 56h1" />
<path stroke="#000000" d="M35 21h1M33 22h1M36 22h1M32 23h1M36 23h1M32 24h1M37 24h1M49 24h1M30 25h1M37 25h1M46 25h1M49 25h5M37 26h1M41 26h2M45 26h1M55 26h1M29 27h1M37 27h1M40 27h1M43 27h1M48 27h4M54 27h1M37 28h1M40 28h1M45 28h7M53 28h1M28 29h1M36 29h1M39 29h1M42 29h10M53 29h1M29 30h1M34 30h3M38 30h1M41 30h10M53 30h1M24 31h1M26 31h1M29 31h3M37 31h1M40 31h6M47 31h1M49 31h2M52 31h1M24 32h1M28 32h2M40 32h3M44 32h1M46 32h1M48 32h2M52 32h1M39 33h2M43 33h1M45 33h1M47 33h2M51 33h1M25 34h1M38 34h1M42 34h1M44 34h1M46 34h1M48 34h1M51 34h1M25 35h2M33 35h3M41 35h1M47 35h1M50 35h1M26 36h1M32 36h1M40 36h1M43 36h4M49 36h1M54 36h1M24 37h1M31 37h1M41 37h2M48 37h1M52 37h1M24 38h1M30 38h1M32 38h1M44 38h4M50 38h1M55 38h1M30 39h1M32 39h2M39 39h5M47 39h2M54 39h1M23 40h1M31 40h2M39 40h1M45 40h1M48 40h2M51 40h1M53 40h1M23 41h1M39 41h1M46 41h2M51 41h1M53 41h1M24 42h1M38 42h1M50 42h1M52 42h1M54 42h2M28 43h1M37 43h1M51 43h2M56 43h1M25 44h1M28 44h2M35 44h2M53 44h1M55 44h1M26 45h1M31 45h4M54 45h1M32 46h1M53 46h1M34 47h1M53 47h1M31 48h1M51 48h1M54 48h1M31 49h1M35 49h1M39 49h1M45 49h1M51 49h1M54 49h1M31 50h1M36 50h2M39 50h1M45 50h1M50 50h1M55 50h1M30 51h1M37 51h2M44 51h3M49 51h1M55 51h1M30 52h1M36 52h1M44 52h1M46 52h4M55 52h1M35 53h1M44 53h2M47 53h1M50 53h3M54 53h1M30 54h1M35 54h1M38 54h1M43 54h4M50 54h1M54 54h1M31 55h1M34 55h1M38 55h1M43 55h1M51 55h3M29 56h5M38 56h1M42 56h1M39 57h3" />
<path stroke="#df8fb7" d="M34 22h2M33 23h1M35 23h1M34 24h3M31 25h1M33 25h1M35 25h2M48 25h1M30 26h1M32 26h1M34 26h3M46 26h9M31 27h1M33 27h4M41 27h2M44 27h4M53 27h1M29 28h2M32 28h5M41 28h4M52 28h1M29 29h1M31 29h1M33 29h3M40 29h2M52 29h1M30 30h3M39 30h2M52 30h1M33 31h3M38 31h2M51 31h1M25 32h2M33 32h7M51 32h1M26 33h3M32 33h7M41 33h2M50 33h1M26 34h9M36 34h2M39 34h3M49 34h2M28 35h5M36 35h5M48 35h1M25 36h1M28 36h3M36 36h4M47 36h1M27 37h4M36 37h5M43 37h4M27 38h3M36 38h8M51 38h4M26 39h4M35 39h4M51 39h3M25 40h5M34 40h5M46 40h2M50 40h1M52 40h1M24 41h1M27 41h11M40 41h1M42 41h4M48 41h3M52 41h1M28 42h10M41 42h4M47 42h3M51 42h1M53 42h1M30 43h6M40 43h1M42 43h2M48 43h2M53 43h3M31 44h3M39 44h1M41 44h4M48 44h5M54 44h1M38 45h1M40 45h6M48 45h4M53 45h1M39 46h10M50 46h3M38 47h11M50 47h1M32 48h1M39 48h11M40 49h5M46 49h4M32 50h1M40 50h4M46 50h3M31 51h1M33 51h1M39 51h5M31 52h2M39 52h4M31 53h3M39 53h4M31 54h1M40 54h2" />
<path stroke="#ffffff" d="M34 23h1M31 24h1M33 24h1M48 24h1M32 25h1M34 25h1M47 25h1M31 26h1M33 26h1M30 27h1M32 27h1M31 28h1M30 29h1M32 29h1M25 31h1M27 32h1M30 32h3M30 33h2M33 36h2M25 37h1M33 37h2M53 37h2M25 38h2M31 38h1M34 38h1M24 39h2M24 40h1M25 42h2M25 43h3M26 44h2M51 54h1M53 54h1M30 55h1M32 55h2M39 56h1M41 56h1" />
</svg>