<svg xmlns="http://www.w3.org/2000/svg" viewBox="0 -0.5 107 107" shape-rendering="crispEdges">
<metadata>Made with Pixels to Svg https://codepen.io/shshaw/pen/XbxvNj</metadata>
<path stroke="#474f6f" d="M54 30h1M58 30h1M51 31h1M60 31h1M66 31h1M70 31h1M72 32h1M59 34h1M75 35h1M40 36h1M37 37h1M35 38h1M55 40h1M52 41h1M31 42h1M50 42h1M30 44h1M30 48h1M30 51h1M29 53h1M60 54h1M62 54h1M58 55h1M45 56h1M55 56h1M63 56h1M29 57h1M44 57h3M51 57h1M44 58h3M30 59h1M45 59h1M47 59h1M64 59h1M32 60h1M38 60h1M46 60h1M65 60h1M43 61h1M47 61h1M65 61h3M44 62h1M49 62h1M46 63h1M48 63h1M50 63h1M65 63h1M49 64h1M51 64h1M63 64h1M48 65h1M50 65h1M52 65h1M63 65h1M49 66h1M51 66h1M53 66h1M55 66h1M62 66h1M50 67h1M52 67h1M54 67h1M57 68h2M63 70h1M53 71h1M59 71h1M63 71h2M67 71h1M48 72h2M64 72h3M46 73h1M48 73h2M52 73h1M61 73h1M46 74h3M51 74h1M63 74h1M49 75h1" />
<path stroke="#000000" d="M55 30h3M52 31h2M59 31h1M67 31h3M49 32h2M61 32h1M63 32h3M71 32h1M48 33h1M61 33h2M73 33h1M47 34h5M60 34h1M74 34h1M45 35h3M52 35h2M58 35h2M41 36h4M48 36h3M54 36h1M57 36h1M75 36h1M38 37h2M43 37h1M46 37h2M51 37h1M55 37h2M75 37h1M36 38h1M42 38h1M45 38h1M49 38h2M56 38h1M75 38h1M34 39h1M42 39h1M44 39h5M55 39h7M75 39h1M33 40h1M41 40h1M44 40h3M53 40h2M62 40h2M74 40h1M32 41h1M41 41h1M51 41h1M64 41h2M74 41h1M41 42h1M47 42h3M66 42h1M73 42h1M31 43h1M42 43h5M67 43h1M72 43h1M39 44h4M67 44h1M70 44h2M30 45h1M37 45h2M41 45h1M68 45h2M30 46h1M35 46h2M40 46h1M68 46h1M30 47h1M34 47h1M40 47h1M68 47h1M33 48h1M39 48h1M67 48h1M31 49h2M39 49h1M67 49h1M31 50h1M38 50h1M66 50h1M38 51h1M65 51h1M30 52h1M38 52h1M64 52h1M38 53h1M62 53h2M29 54h1M39 54h1M61 54h1M29 55h1M39 55h1M44 55h3M59 55h4M29 56h1M40 56h1M43 56h1M46 56h2M56 56h7M40 57h2M43 57h1M47 57h1M52 57h12M30 58h1M40 58h4M47 58h11M60 58h5M31 59h1M39 59h2M42 59h3M46 59h1M48 59h3M53 59h5M60 59h4M65 59h1M33 60h5M43 60h3M47 60h4M53 60h12M66 60h2M44 61h3M48 61h17M68 61h1M45 62h4M50 62h5M56 62h13M47 63h1M49 63h1M51 63h4M56 63h8M66 63h2M47 64h2M50 64h1M52 64h11M49 65h1M51 65h1M53 65h10M48 66h1M50 66h1M52 66h1M54 66h1M56 66h6M49 67h1M51 67h1M53 67h1M55 67h7M50 68h7M59 68h3M51 69h3M59 69h5M50 70h4M59 70h4M64 70h2M48 71h5M60 71h3M66 71h1M46 72h2M50 72h3M60 72h4M67 72h1M45 73h1M50 73h2M62 73h6M45 74h1M49 74h2M64 74h3M46 75h3" />
<path stroke="#ff371f" d="M54 31h5M51 32h10M66 32h5M49 33h5M57 33h4M63 33h10M52 34h1M56 34h3M61 34h4M67 34h7M54 35h4M60 35h6M68 35h4M73 35h2M55 36h2M58 36h3M62 36h9M74 36h1M40 37h3M48 37h3M57 37h3M63 37h10M74 37h1M37 38h5M46 38h3M57 38h18M35 39h7M62 39h13M34 40h2M38 40h3M56 40h6M64 40h10M33 41h2M37 41h4M53 41h11M66 41h8M32 42h9M51 42h4M57 42h9M67 42h6M32 43h10M47 43h13M63 43h4M68 43h4M31 44h8M43 44h18M64 44h3M68 44h2M31 45h6M39 45h2M42 45h6M51 45h11M64 45h4M31 46h4M38 46h2M41 46h2M44 46h3M50 46h18M31 47h3M36 47h4M41 47h1M43 47h25M31 48h2M35 48h1M37 48h2M40 48h1M42 48h1M44 48h23M34 49h1M36 49h3M40 49h2M43 49h1M45 49h12M59 49h8M33 50h1M35 50h1M37 50h1M39 50h2M44 50h1M46 50h3M50 50h1M52 50h4M58 50h8M31 51h2M34 51h1M36 51h2M39 51h1M41 51h1M45 51h1M47 51h1M49 51h1M51 51h14M31 52h1M33 52h1M35 52h1M37 52h1M39 52h2M44 52h1M46 52h1M48 52h1M50 52h14M30 53h1M32 53h1M34 53h1M36 53h2M39 53h1M41 53h1M43 53h1M45 53h1M47 53h15M30 54h2M33 54h1M35 54h4M40 54h1M42 54h18M30 55h9M40 55h4M47 55h11M30 56h10M41 56h2M48 56h7M30 57h10M42 57h1M48 57h3M31 58h9M58 58h2M32 59h7M51 59h2M58 59h2M51 60h2M55 62h1M55 63h1" />
<path stroke="#ffffff" d="M54 33h3M53 34h3M65 34h2M48 35h4M66 35h2M72 35h1M45 36h3M51 36h3M61 36h1M71 36h3M44 37h2M52 37h3M60 37h3M73 37h1M43 38h2M51 38h5M43 39h1M49 39h6M36 40h2M42 40h2M47 40h6M35 41h2M42 41h9M42 42h5M55 42h2M60 43h3M61 44h3M48 45h3M62 45h2M37 46h1M43 46h1M47 46h3M35 47h1M42 47h1M34 48h1M36 48h1M41 48h1M43 48h1M33 49h1M35 49h1M42 49h1M44 49h1M57 49h2M32 50h1M34 50h1M36 50h1M41 50h3M45 50h1M49 50h1M51 50h1M56 50h2M33 51h1M35 51h1M40 51h1M42 51h3M46 51h1M48 51h1M50 51h1M32 52h1M34 52h1M36 52h1M41 52h3M45 52h1M47 52h1M49 52h1M31 53h1M33 53h1M35 53h1M40 53h1M42 53h1M44 53h1M46 53h1M32 54h1M34 54h1M41 54h1M44 56h1M65 71h1M47 73h1" />
</svg>