<svg xmlns="http://www.w3.org/2000/svg" viewBox="0 -0.5 80 80" shape-rendering="crispEdges">
<metadata>Made with Pixels to Svg https://codepen.io/shshaw/pen/XbxvNj</metadata>
<path stroke="#734a21" d="M55 14h1M60 14h1M25 15h1M29 15h1M55 15h6M63 15h1M25 16h5M31 16h1M51 16h1M53 16h11M23 17h8M39 17h1M52 17h1M57 17h7M65 17h1M22 18h1M28 18h5M37 18h1M40 18h1M50 18h2M61 18h4M21 19h1M24 19h2M30 19h2M51 19h3M63 19h2M21 20h1M23 20h4M30 20h2M38 20h1M51 20h6M62 20h3M66 20h1M23 21h6M31 21h1M37 21h3M51 21h7M62 21h1M64 21h1M23 22h8M36 22h3M47 22h3M51 22h12M18 23h1M24 23h7M36 23h3M49 23h1M52 23h11M16 24h1M18 24h2M26 24h3M36 24h1M38 24h1M49 24h1M52 24h10M17 25h5M35 25h1M38 25h2M48 25h1M54 25h8M17 26h4M31 26h1M53 26h1M56 26h4M18 27h6M30 27h1M52 27h3M64 27h1M19 28h7M52 28h2M62 28h3M20 29h7M32 29h1M50 29h3M55 29h1M58 29h7M22 30h4M29 30h1M33 30h1M43 30h2M50 30h1M52 30h1M58 30h7M23 31h1M31 31h1M34 31h1M36 31h1M41 31h1M52 31h2M59 31h5M35 32h2M40 32h1M59 32h5M32 33h1M41 33h1M46 33h2M59 33h5M23 34h3M33 34h2M37 34h1M48 34h1M59 34h5M39 35h1M48 35h1M58 35h5M64 35h1M33 36h2M45 36h1M47 36h1M57 36h6M36 37h2M46 37h1M57 37h5M50 38h1M57 38h5M40 39h1M50 39h1M52 39h1M58 39h3M39 40h1M48 40h2M52 40h1M57 40h1M22 41h1M35 41h1M38 41h1M47 41h1M53 41h2M17 42h1M48 42h1M18 43h1M20 43h2M49 43h1M52 43h2M59 43h2M16 44h3M20 44h3M28 44h1M49 44h1M51 44h1M16 45h4M21 45h2M30 45h1M51 45h1M16 46h4M21 46h3M26 46h2M17 47h8M27 47h4M17 48h8M29 48h2M54 48h2M18 49h8M30 49h2M18 50h8M31 50h1M33 50h1M41 50h1M43 50h1M19 51h8M32 51h1M34 51h1M36 51h1M40 51h1M42 51h1M44 51h1M51 51h1M20 52h8M33 52h1M35 52h1M37 52h1M39 52h1M41 52h1M49 52h1M20 53h8M36 53h1M38 53h1M21 54h7M30 54h1M35 54h1M37 54h1M44 54h2M20 55h8M44 55h4M22 56h5M28 56h1M42 56h4M48 56h1M22 57h1M42 57h3M49 57h2M43 58h2M49 58h1M39 59h1M43 59h3M49 59h1M39 60h1M43 60h6M39 61h2M44 61h4M49 61h1M39 62h4M38 63h3M42 63h4M40 64h1M44 64h1M47 64h1M39 65h1M41 65h3M45 65h3" />
<path stroke="#000000" d="M56 14h4M26 15h3M53 15h2M61 15h2M23 16h2M30 16h1M52 16h1M64 16h1M22 17h1M31 17h1M38 17h1M51 17h1M64 17h1M21 18h1M23 18h1M36 18h1M65 18h1M19 19h2M22 19h2M32 19h1M36 19h1M38 19h1M40 19h1M50 19h1M65 19h1M18 20h2M22 20h1M32 20h1M35 20h1M37 20h1M40 20h1M50 20h1M65 20h1M18 21h1M20 21h3M32 21h1M35 21h1M41 21h1M44 21h1M50 21h1M63 21h1M65 21h2M18 22h5M31 22h4M39 22h1M41 22h1M43 22h2M46 22h1M50 22h1M63 22h2M66 22h1M17 23h1M19 23h5M31 23h1M34 23h1M39 23h1M41 23h2M44 23h2M51 23h1M63 23h2M66 23h1M20 24h6M29 24h3M39 24h1M41 24h1M44 24h1M51 24h1M62 24h5M16 25h1M22 25h3M26 25h3M31 25h1M47 25h1M49 25h1M51 25h3M62 25h4M16 26h1M21 26h3M30 26h1M48 26h1M50 26h1M52 26h1M54 26h2M60 26h6M17 27h1M24 27h2M29 27h1M56 27h8M65 27h1M18 28h1M26 28h3M49 28h1M51 28h1M54 28h1M56 28h6M65 28h1M19 29h1M27 29h2M53 29h1M57 29h1M65 29h1M20 30h2M26 30h1M53 30h1M55 30h3M22 31h1M24 31h3M55 31h1M57 31h2M64 31h1M23 32h1M26 32h1M31 32h1M58 32h1M64 32h1M24 33h1M31 33h1M34 33h1M42 33h4M58 33h1M64 33h1M35 34h2M41 34h1M58 34h1M64 34h1M22 35h1M32 35h1M38 35h1M43 35h1M57 35h1M63 35h1M23 36h1M31 36h1M39 36h1M56 36h1M63 36h1M24 37h1M31 37h1M33 37h1M40 37h1M56 37h1M62 37h1M23 38h1M31 38h1M36 38h1M40 38h1M56 38h1M62 38h1M22 39h1M32 39h1M57 39h1M61 39h1M22 40h2M33 40h2M56 40h1M58 40h3M20 41h2M25 41h1M36 41h2M57 41h1M59 41h2M18 42h2M23 42h2M61 42h1M16 43h1M19 43h1M24 43h1M58 43h1M15 44h1M19 44h1M24 44h4M59 44h1M15 45h1M20 45h1M25 45h1M29 45h1M57 45h2M15 46h1M20 46h1M25 46h1M30 46h1M56 46h1M16 47h1M26 47h1M31 47h1M57 47h1M16 48h1M26 48h3M31 48h1M53 48h1M56 48h1M17 49h1M26 49h2M29 49h1M32 49h1M54 49h1M17 50h1M27 50h2M30 50h1M32 50h1M55 50h1M18 51h1M27 51h2M30 51h2M52 51h4M19 52h1M28 52h3M51 52h1M19 53h1M28 53h4M44 53h1M46 53h1M49 53h1M51 53h1M20 54h1M28 54h2M31 54h1M34 54h1M40 54h1M43 54h1M46 54h2M49 54h3M28 55h1M31 55h1M33 55h1M35 55h1M38 55h1M40 55h2M43 55h1M48 55h2M21 56h1M27 56h1M32 56h1M36 56h1M38 56h4M49 56h1M23 57h4M37 57h1M39 57h3M39 58h4M50 58h1M38 59h1M40 59h3M50 59h1M38 60h1M40 60h3M49 60h1M38 61h1M41 61h3M48 61h1M38 62h1M43 62h5M46 63h2M39 64h1M43 64h1M48 64h1M40 65h1M44 65h1M48 65h1M41 66h7" />
<path stroke="#ff7b31" d="M53 17h4M24 18h4M52 18h9M26 19h4M54 19h9M27 20h3M57 20h5M29 21h2M58 21h4M40 22h1M46 23h1M17 24h1M43 24h1M46 24h1M32 25h1M46 25h1M49 27h1M55 27h1M48 28h1M55 28h1M29 29h1M54 29h1M54 30h1M27 31h1M54 31h1M25 32h1M27 32h1M37 32h1M52 32h6M36 33h1M40 33h1M51 33h7M50 34h8M37 35h1M50 35h7M24 36h1M35 36h4M44 36h1M49 36h1M51 36h5M32 37h1M34 37h2M38 37h2M50 37h6M32 38h4M37 38h3M49 38h1M51 38h5M33 39h7M53 39h4M24 40h1M32 40h1M35 40h4M45 40h1M47 40h1M51 40h1M53 40h3M34 41h1M44 41h1M46 41h1M50 41h1M52 41h1M55 41h2M58 41h1M20 42h3M45 42h1M47 42h1M49 42h1M51 42h1M55 42h6M17 43h1M22 43h2M25 43h2M32 43h1M34 43h1M38 43h1M40 43h1M42 43h1M44 43h1M46 43h3M50 43h2M54 43h4M23 44h1M29 44h1M31 44h1M33 44h3M37 44h1M39 44h1M41 44h8M50 44h1M52 44h7M23 45h2M26 45h3M32 45h19M52 45h5M24 46h1M28 46h2M31 46h25M25 47h1M32 47h25M25 48h1M32 48h21M33 49h20M26 50h1M34 50h7M42 50h1M44 50h10M29 51h1M33 51h1M35 51h1M37 51h3M41 51h1M43 51h1M45 51h6M31 52h2M34 52h1M36 52h1M38 52h1M40 52h1M42 52h7M50 52h1M32 53h4M37 53h1M39 53h5M45 53h1M47 53h2M50 53h1M32 54h2M36 54h1M38 54h2M41 54h2M48 54h1M32 55h1M36 55h2M39 55h1M42 55h1M37 56h1M46 56h2M45 57h4M45 58h4M46 59h3M41 63h1M41 64h2M45 64h2" />
<path stroke="#ffffff" d="M38 18h2M37 19h1M39 19h1M20 20h1M36 20h1M39 20h1M19 21h1M36 21h1M40 21h1M35 22h1M65 22h1M32 23h2M35 23h1M40 23h1M43 23h1M47 23h2M50 23h1M65 23h1M32 24h4M37 24h1M40 24h1M42 24h1M45 24h1M47 24h2M50 24h1M25 25h1M29 25h2M33 25h2M36 25h2M40 25h6M50 25h1M24 26h6M32 26h16M49 26h1M51 26h1M26 27h3M31 27h18M50 27h2M29 28h19M50 28h1M30 29h2M33 29h17M56 29h1M27 30h2M30 30h3M34 30h9M45 30h5M51 30h1M28 31h3M32 31h2M35 31h1M37 31h4M42 31h10M56 31h1M24 32h1M28 32h3M32 32h3M38 32h2M41 32h11M25 33h6M33 33h1M35 33h1M37 33h3M48 33h3M26 34h7M38 34h3M42 34h6M49 34h1M23 35h9M33 35h4M40 35h3M44 35h4M49 35h1M25 36h6M32 36h1M40 36h4M46 36h1M48 36h1M50 36h1M25 37h6M41 37h5M47 37h3M24 38h7M41 38h8M23 39h9M41 39h9M51 39h1M25 40h7M40 40h5M46 40h1M50 40h1M23 41h2M26 41h8M39 41h5M45 41h1M48 41h2M51 41h1M25 42h20M46 42h1M50 42h1M52 42h3M27 43h5M33 43h1M35 43h3M39 43h1M41 43h1M43 43h1M45 43h1M30 44h1M32 44h1M36 44h1M38 44h1M40 44h1M31 45h1M28 49h1M53 49h1M29 50h1M54 50h1" />
</svg>