<svg xmlns="http://www.w3.org/2000/svg" viewBox="0 -0.5 80 80" shape-rendering="crispEdges">
<metadata>Made with Pixels to Svg https://codepen.io/shshaw/pen/XbxvNj</metadata>
<path stroke="#a5ff39" d="M41 20h1M45 21h1M44 22h1M46 22h2M37 23h1M43 23h1M45 23h4M44 24h1M46 24h4M36 25h1M43 25h1M45 25h5M47 26h4M35 27h1M42 27h1M47 27h4M25 28h1M35 28h1M41 28h1M43 28h1M47 28h4M25 29h3M32 29h2M42 29h1M44 29h7M25 30h1M27 30h5M34 30h1M41 30h1M43 30h7M25 31h2M29 31h3M40 31h1M42 31h8M25 32h4M39 32h1M41 32h1M43 32h6M26 33h4M41 33h7M26 34h4M42 34h4M26 35h3M43 35h2M27 36h1M43 36h1M30 37h1M32 37h1M29 38h1M31 38h1M33 38h1M28 39h1M30 39h1M32 39h3M29 40h1M31 40h6M42 40h1M30 41h10M41 41h2M50 41h5M32 42h9M42 42h1M47 42h4M35 43h6M45 43h8M57 43h1M59 43h1M40 44h1M43 44h9M55 44h1M58 44h1M60 44h1M46 45h5M54 45h1M56 45h1M59 45h2M48 46h3M53 46h1M55 46h1M57 46h2M60 46h2M49 47h1M52 47h1M54 47h1M56 47h4M61 47h1M51 48h1M53 48h1M55 48h5M61 48h2M54 49h7M62 49h1M57 50h4M62 50h1M60 51h2M61 52h1" />
<path stroke="#000000" d="M42 20h4M39 21h2M46 21h2M38 22h1M48 22h1M49 23h1M37 24h1M50 24h1M50 25h2M36 26h2M44 26h3M51 26h2M24 27h2M37 27h1M44 27h1M46 27h1M51 27h3M24 28h1M26 28h2M36 28h1M44 28h2M51 28h1M53 28h2M24 29h1M28 29h4M35 29h1M51 29h1M54 29h1M24 30h1M26 30h1M35 30h1M50 30h2M54 30h2M24 31h1M27 31h2M34 31h1M50 31h1M54 31h2M24 32h1M29 32h2M34 32h5M49 32h1M54 32h2M25 33h1M31 33h1M33 33h1M39 33h2M48 33h1M54 33h1M25 34h1M32 34h1M41 34h1M46 34h1M53 34h2M25 35h1M32 35h1M34 35h4M42 35h1M45 35h1M52 35h3M26 36h1M32 36h1M34 36h6M42 36h1M44 36h1M51 36h3M26 37h1M33 37h1M36 37h5M43 37h2M50 37h2M27 38h1M34 38h1M38 38h3M43 38h1M49 38h2M27 39h1M35 39h2M42 39h2M46 39h4M28 40h1M37 40h5M43 40h1M45 40h4M51 40h5M29 41h1M40 41h1M43 41h7M56 41h2M30 42h2M41 42h1M43 42h1M45 42h2M51 42h3M58 42h2M27 43h1M33 43h2M41 43h2M44 43h1M54 43h2M60 43h1M24 44h2M27 44h1M34 44h6M41 44h2M56 44h2M61 44h1M26 45h2M40 45h2M43 45h3M58 45h1M61 45h1M27 46h2M39 46h3M46 46h2M59 46h1M62 46h1M28 47h1M39 47h1M41 47h1M48 47h1M60 47h1M62 47h1M26 48h4M40 48h1M49 48h2M60 48h1M63 48h1M24 49h2M30 49h1M39 49h1M41 49h2M51 49h3M61 49h1M63 49h1M30 50h3M40 50h1M42 50h6M54 50h3M61 50h1M63 50h1M31 51h2M39 51h3M44 51h3M48 51h3M57 51h3M62 51h1M32 52h2M39 52h2M50 52h3M60 52h1M62 52h1M33 53h2M38 53h2M52 53h2M61 53h1M34 54h5M53 54h1M53 55h2M53 56h4M51 57h9M50 58h2M55 58h2M56 59h2" />
<path stroke="#ffffff" d="M41 21h4M39 22h5M45 22h1M38 23h5M44 23h1M38 24h6M45 24h1M37 25h6M44 25h1M38 26h6M36 27h1M38 27h4M43 27h1M45 27h1M38 28h3M42 28h1M36 29h6M43 29h1M32 30h2M36 30h5M42 30h1M32 31h2M35 31h5M41 31h1M31 32h3M40 32h1M42 32h1M30 33h1M32 33h1M34 33h3M30 34h2M35 34h3M29 35h3M28 36h4M27 37h3M31 37h1M28 38h1M30 38h1M32 38h1M29 39h1M31 39h1M30 40h1M55 41h1M54 42h4M53 43h1M56 43h1M58 43h1M52 44h3M59 44h1M51 45h3M55 45h1M57 45h1M51 46h2M54 46h1M56 46h1M50 47h2M53 47h1M55 47h1M52 48h1M54 48h1" />
<path stroke="#de524a" d="M52 25h1M53 26h1M54 27h1M37 28h1M46 28h1M53 29h1M55 29h1M37 33h2M53 33h1M55 33h1M33 34h2M38 34h3M33 35h1M38 35h4M33 36h1M40 36h2M34 37h2M41 37h2M52 37h1M35 38h3M41 38h2M48 38h1M51 38h1M37 39h5M44 42h1M32 43h1M43 43h1M26 44h1M29 47h1M40 47h1M30 48h1M39 48h1M41 48h1M29 49h1M31 49h1M40 49h1M41 50h1M42 51h2M47 51h1M49 52h1M32 53h1M35 53h1M37 53h1M51 53h1M52 54h1M60 57h1" />
</svg>