<svg xmlns="http://www.w3.org/2000/svg" viewBox="0 -0.5 80 80" shape-rendering="crispEdges">
<metadata>Made with Pixels to Svg https://codepen.io/shshaw/pen/XbxvNj</metadata>
<path stroke="#425a39" d="M36 15h1M37 16h1M39 16h3M44 16h1M31 17h1M36 17h1M38 17h1M40 17h2M44 17h4M29 18h1M31 18h3M41 18h2M44 18h6M29 19h3M35 19h1M37 19h4M47 19h5M27 20h3M32 20h1M34 20h1M36 20h1M38 20h5M44 20h1M49 20h2M28 21h1M31 21h1M33 21h1M35 21h1M37 21h1M39 21h4M44 21h3M30 22h1M32 22h1M34 22h1M36 22h1M38 22h5M44 22h4M51 22h4M25 23h1M31 23h1M33 23h1M35 23h1M37 23h1M39 23h4M45 23h3M50 23h6M24 24h1M26 24h1M30 24h1M32 24h1M34 24h10M46 24h2M50 24h7M25 25h1M27 25h1M29 25h15M50 25h7M23 26h1M25 26h1M27 26h1M36 26h6M45 26h4M52 26h6M24 27h1M26 27h2M38 27h3M43 27h7M53 27h7M22 28h2M25 28h3M42 28h8M58 28h1M24 29h2M42 29h9M53 29h2M23 30h3M43 30h8M52 30h2M24 31h1M45 31h6M52 31h1M26 32h1M45 32h5M51 32h2M55 32h1M62 32h1M18 33h1M23 33h1M46 33h2M54 33h1M23 34h2M33 34h1M35 34h2M46 34h1M63 34h1M17 35h1M22 35h1M24 35h1M23 36h2M51 36h2M16 37h1M37 37h1M48 37h1M53 37h1M26 38h1M32 38h1M45 38h1M47 38h1M53 38h1M20 39h1M22 39h1M46 39h1M48 39h1M55 39h2M19 40h1M21 40h3M45 40h1M47 40h3M57 40h1M18 41h1M22 41h1M24 41h1M27 41h1M44 41h1M46 41h8M17 42h3M26 42h2M43 42h1M45 42h9M58 42h2M26 43h4M40 43h1M42 43h8M56 43h4M26 44h4M37 44h1M39 44h1M42 44h6M53 44h1M56 44h3M27 45h2M30 45h1M36 45h1M38 45h1M40 45h1M43 45h4M48 45h1M54 45h2M57 45h2M27 46h1M29 46h1M31 46h1M35 46h1M37 46h4M55 46h2M28 47h1M30 47h1M32 47h1M34 47h1M36 47h6M44 47h2M56 47h1M29 48h1M31 48h1M35 48h1M37 48h3M43 48h3M56 48h1M27 49h1M34 49h1M40 49h2M44 49h2M55 49h3M27 50h2M33 50h1M35 50h8M44 50h1M47 50h1M55 50h3M26 51h5M36 51h5M48 51h1M53 51h5M23 52h10M43 52h4M48 52h10M24 53h1M26 53h2M29 53h5M49 53h8M25 54h1M27 54h1M29 54h1M31 54h3M50 54h1M52 54h1M54 54h3M23 55h1M31 55h2M56 55h2M22 56h1M25 56h3M31 56h3M47 56h2M50 56h1M53 56h1M55 56h3M49 57h1M51 57h2M54 57h3M56 58h1M50 59h1" />
<path stroke="#000000" d="M37 15h5M35 16h1M42 16h1M45 16h3M32 17h4M42 17h2M48 17h2M30 18h1M34 18h7M43 18h1M50 18h2M28 19h1M32 19h3M41 19h6M52 19h1M30 20h2M43 20h1M45 20h4M51 20h2M27 21h1M29 21h1M43 21h1M47 21h8M27 22h3M43 22h1M48 22h3M55 22h1M26 23h4M43 23h2M48 23h2M56 23h1M27 24h2M44 24h2M48 24h2M57 24h1M24 25h1M28 25h1M44 25h6M57 25h1M28 26h8M42 26h3M49 26h3M58 26h1M23 27h1M28 27h3M36 27h2M41 27h2M50 27h3M28 28h1M38 28h4M50 28h8M59 28h1M22 29h1M26 29h2M39 29h3M51 29h2M58 29h2M22 30h1M26 30h1M36 30h2M40 30h3M51 30h1M60 30h1M21 31h3M25 31h1M34 31h2M41 31h4M51 31h1M61 31h1M19 32h2M22 32h4M33 32h1M41 32h4M50 32h1M56 32h2M22 33h1M24 33h3M32 33h3M41 33h5M48 33h6M62 33h1M18 34h1M21 34h1M25 34h2M32 34h1M34 34h1M42 34h4M47 34h1M50 34h1M55 34h2M21 35h1M38 35h1M42 35h5M57 35h1M63 35h1M17 36h1M21 36h1M25 36h1M29 36h1M35 36h4M42 36h8M58 36h1M63 36h1M20 37h3M24 37h3M31 37h6M42 37h6M49 37h2M58 37h1M62 37h1M16 38h1M19 38h1M23 38h3M27 38h5M41 38h4M46 38h1M48 38h2M59 38h1M62 38h1M16 39h1M18 39h1M26 39h1M40 39h6M47 39h1M49 39h1M52 39h2M59 39h1M61 39h1M16 40h2M27 40h1M39 40h6M46 40h1M50 40h5M59 40h2M16 41h1M25 41h2M28 41h2M37 41h7M45 41h1M54 41h1M58 41h3M22 42h4M28 42h15M44 42h1M54 42h1M56 42h2M60 42h1M16 43h1M20 43h3M25 43h1M30 43h10M41 43h1M50 43h6M60 43h1M16 44h1M19 44h1M25 44h1M30 44h7M38 44h1M40 44h2M48 44h2M54 44h2M59 44h1M17 45h1M19 45h1M24 45h3M29 45h1M31 45h5M37 45h1M39 45h1M41 45h2M47 45h1M56 45h1M59 45h1M18 46h2M23 46h1M26 46h1M28 46h1M30 46h1M32 46h3M36 46h1M41 46h7M57 46h2M22 47h1M26 47h2M29 47h1M31 47h1M33 47h1M35 47h1M42 47h2M46 47h1M57 47h2M22 48h1M27 48h2M30 48h1M32 48h3M36 48h1M40 48h3M46 48h1M57 48h1M21 49h1M28 49h6M35 49h5M42 49h2M46 49h1M58 49h1M21 50h1M29 50h4M34 50h1M43 50h1M45 50h2M58 50h1M22 51h1M31 51h5M41 51h7M58 51h1M22 52h1M33 52h10M47 52h1M58 52h1M23 53h1M25 53h1M28 53h1M34 53h1M38 53h9M48 53h1M57 53h1M24 54h1M26 54h1M28 54h1M30 54h1M34 54h1M49 54h1M51 54h1M53 54h1M57 54h1M33 55h2M47 55h2M58 55h1M35 56h1M46 56h1M58 56h1M22 57h1M24 57h1M28 57h1M31 57h5M45 57h1M57 57h1M22 58h1M24 58h1M26 58h3M30 58h2M45 58h1M47 58h2M51 58h2M57 58h1M23 59h1M25 59h1M29 59h1M46 59h1M48 59h1M52 59h1M54 59h3M49 60h1M53 60h1" />
<path stroke="#948c7b" d="M36 16h1M38 16h1M37 17h1M39 17h1M36 19h1M33 20h1M35 20h1M37 20h1M30 21h1M32 21h1M34 21h1M36 21h1M38 21h1M31 22h1M33 22h1M35 22h1M37 22h1M30 23h1M32 23h1M34 23h1M36 23h1M38 23h1M25 24h1M29 24h1M31 24h1M33 24h1M26 25h1M24 26h1M26 26h1M25 27h1M31 27h5M24 28h1M31 28h7M23 29h1M28 29h1M32 29h7M55 29h3M27 30h1M31 30h5M38 30h2M54 30h6M26 31h2M30 31h4M37 31h4M53 31h8M21 32h1M30 32h3M37 32h4M53 32h2M58 32h4M19 33h3M29 33h3M37 33h4M55 33h7M19 34h2M22 34h1M28 34h4M37 34h5M51 34h4M57 34h6M18 35h3M23 35h1M25 35h13M39 35h3M50 35h7M58 35h5M18 36h3M22 36h1M26 36h3M30 36h5M39 36h3M50 36h1M53 36h5M59 36h4M17 37h3M23 37h1M27 37h4M38 37h4M54 37h4M59 37h3M17 38h2M20 38h3M33 38h8M54 38h5M60 38h2M17 39h1M19 39h1M21 39h1M27 39h13M54 39h1M57 39h2M60 39h1M18 40h1M28 40h11M58 40h1M17 41h1M23 41h1M30 41h7M16 42h1M19 43h1M50 44h3M49 45h5M24 46h2M48 46h7M23 47h3M47 47h9M23 48h4M47 48h9M22 49h5M47 49h8M22 50h5M48 50h7M23 51h3M49 51h4M24 55h7M49 55h7M23 56h2M28 56h3M49 56h1M51 56h2M54 56h1M27 57h1M48 57h1M55 58h1" />
<path stroke="#ffffff" d="M29 28h2M29 29h3M28 30h3M28 31h2M36 31h1M27 32h3M34 32h3M27 33h2M35 33h2M27 34h1M48 34h2M47 35h3M51 37h2M50 38h3M23 39h3M50 39h2M20 40h1M24 40h3M55 40h2M19 41h3M55 41h3M20 42h2M55 42h1M17 43h2M17 44h2M18 45h1M34 56h1M23 57h1M25 57h2M29 57h2M46 57h2M50 57h1M53 57h1M23 58h1M25 58h1M29 58h1M46 58h1M49 58h2M53 58h2M49 59h1M53 59h1" />
</svg>