<svg xmlns="http://www.w3.org/2000/svg" viewBox="0 -0.5 80 80" shape-rendering="crispEdges">
<metadata>Made with Pixels to Svg https://codepen.io/shshaw/pen/XbxvNj</metadata>
<path stroke="#000000" d="M47 14h4M45 15h2M51 15h3M44 16h1M49 16h2M54 16h1M43 17h1M48 17h1M55 17h1M43 18h1M52 18h5M42 19h1M51 19h1M57 19h1M42 20h1M58 20h1M30 21h6M41 21h1M58 21h1M28 22h2M36 22h3M41 22h1M58 22h1M27 23h1M40 23h2M58 23h1M26 24h1M29 24h3M41 24h1M49 24h4M57 24h1M26 25h3M42 25h1M47 25h2M53 25h4M26 26h1M46 26h2M25 27h1M49 27h2M25 28h1M31 28h2M40 28h4M51 28h2M25 29h1M30 29h1M38 29h2M44 29h1M53 29h1M25 30h1M29 30h1M37 30h1M45 30h1M54 30h1M26 31h1M29 31h1M36 31h1M45 31h1M55 31h1M27 32h3M36 32h1M46 32h1M56 32h1M30 33h1M35 33h1M46 33h1M56 33h1M31 34h4M41 34h5M57 34h1M37 35h2M57 35h1M35 36h1M58 36h1M33 37h1M58 37h1M17 38h3M22 38h3M32 38h1M38 38h2M58 38h1M15 39h2M20 39h2M25 39h1M28 39h6M37 39h1M39 39h1M58 39h1M14 40h1M17 40h2M22 40h1M26 40h2M34 40h3M39 40h1M58 40h1M13 41h1M19 41h1M25 41h1M29 41h2M35 41h1M39 41h1M58 41h1M13 42h1M24 42h1M31 42h1M34 42h1M38 42h2M58 42h1M13 43h1M24 43h1M27 43h2M31 43h1M38 43h1M40 43h1M57 43h1M14 44h1M23 44h1M26 44h1M28 44h2M36 44h2M41 44h1M57 44h1M15 45h2M21 45h4M26 45h4M41 45h1M57 45h1M17 46h2M20 46h1M25 46h1M27 46h2M42 46h1M56 46h1M19 47h1M26 47h1M42 47h1M56 47h1M19 48h1M21 48h3M26 48h1M36 48h2M42 48h1M55 48h1M20 49h1M23 49h1M27 49h2M38 49h1M42 49h1M54 49h1M19 50h1M22 50h1M27 50h1M29 50h1M34 50h2M38 50h1M42 50h1M52 50h2M19 51h1M22 51h1M27 51h4M33 51h1M35 51h2M42 51h1M46 51h2M49 51h3M20 52h4M28 52h3M33 52h4M42 52h1M48 52h3M21 53h1M24 53h2M31 53h2M34 53h2M41 53h1M51 53h7M20 54h1M25 54h2M33 54h1M41 54h1M58 54h2M19 55h1M24 55h1M26 55h1M34 55h1M40 55h1M60 55h1M19 56h1M23 56h1M27 56h1M31 56h2M35 56h1M39 56h4M56 56h3M60 56h1M19 57h1M22 57h1M27 57h1M29 57h2M32 57h1M35 57h1M37 57h2M43 57h1M52 57h3M59 57h2M19 58h1M26 58h3M32 58h1M35 58h2M44 58h1M55 58h1M59 58h1M20 59h1M25 59h1M28 59h1M31 59h1M34 59h1M45 59h2M55 59h1M59 59h1M21 60h4M29 60h5M47 60h2M55 60h4M49 61h6" />
<path stroke="#ffffff" d="M47 15h3M45 16h4M51 16h2M44 17h4M49 17h5M44 18h3M48 18h3M44 19h6M53 19h1M55 19h1M43 20h8M52 20h1M54 20h1M43 21h7M51 21h1M53 21h1M55 21h1M30 22h3M34 22h1M42 22h7M50 22h1M52 22h1M54 22h1M28 23h4M33 23h1M35 23h1M37 23h1M42 23h4M47 23h1M27 24h2M32 24h1M34 24h1M36 24h1M42 24h3M46 24h1M29 25h5M43 25h1M27 26h6M35 26h1M26 27h5M34 27h1M36 27h1M26 28h4M33 28h1M35 28h1M27 29h2M31 29h4M45 29h1M47 29h1M30 30h5M46 30h1M48 30h1M30 31h5M47 31h1M30 32h4M46 34h2M39 35h11M51 35h1M36 36h15M52 36h1M34 37h16M51 37h1M53 37h1M33 38h5M40 38h9M50 38h1M52 38h1M17 39h3M22 39h3M34 39h3M38 39h1M40 39h8M49 39h1M51 39h1M53 39h1M15 40h2M19 40h3M23 40h1M25 40h1M28 40h6M37 40h1M40 40h5M46 40h1M48 40h1M50 40h1M52 40h1M14 41h5M20 41h1M22 41h1M26 41h3M32 41h1M34 41h1M36 41h2M40 41h2M43 41h1M45 41h1M47 41h1M49 41h1M51 41h1M14 42h4M19 42h1M21 42h1M25 42h5M33 42h1M35 42h2M42 42h1M44 42h1M46 42h1M48 42h1M50 42h1M15 43h4M20 43h1M25 43h2M30 43h1M32 43h1M34 43h1M43 43h1M45 43h1M47 43h1M49 43h1M17 44h1M19 44h1M24 44h2M27 44h1M31 44h1M33 44h1M44 44h1M46 44h1M48 44h1M30 45h1M32 45h1M45 45h1M21 46h4M20 47h6M20 48h1M24 48h2M21 49h2M24 49h3M20 50h2M23 50h4M28 50h1M23 51h4M34 51h1M24 52h4M45 52h1M47 52h1M22 53h2M26 53h5M44 53h1M46 53h1M48 53h3M21 54h1M27 54h6M45 54h9M55 54h1M57 54h1M20 55h1M27 55h7M44 55h1M46 55h7M54 55h1M56 55h1M58 55h1M28 56h3M33 56h2M45 56h1M47 56h3M51 56h1M53 56h1M59 56h1M28 57h1M31 57h1M33 57h2M46 57h1M48 57h1M50 57h1M29 58h3M33 58h2M47 58h1M49 58h1M51 58h1M53 58h1M32 59h2M50 59h1" />
<path stroke="#9cadff" d="M50 15h1M53 16h1M54 17h1M47 18h1M51 18h1M43 19h1M50 19h1M52 19h1M54 19h1M56 19h1M51 20h1M53 20h1M55 20h3M42 21h1M50 21h1M52 21h1M54 21h1M56 21h2M33 22h1M35 22h1M49 22h1M51 22h1M53 22h1M55 22h3M32 23h1M34 23h1M36 23h1M38 23h2M46 23h1M48 23h10M33 24h1M35 24h1M37 24h4M45 24h1M47 24h2M53 24h4M34 25h8M44 25h3M33 26h2M36 26h10M31 27h3M35 27h1M37 27h12M30 28h1M34 28h1M36 28h4M44 28h7M26 29h1M29 29h1M35 29h3M46 29h1M48 29h5M26 30h3M35 30h2M47 30h1M49 30h5M27 31h2M35 31h1M46 31h1M48 31h7M34 32h2M47 32h9M31 33h4M47 33h9M39 34h2M48 34h9M36 35h1M50 35h1M52 35h5M34 36h1M51 36h1M53 36h5M50 37h1M52 37h1M54 37h4M21 38h1M49 38h1M51 38h1M53 38h5M48 39h1M50 39h1M52 39h1M54 39h4M24 40h1M38 40h1M45 40h1M47 40h1M49 40h1M51 40h1M53 40h5M21 41h1M23 41h2M31 41h1M33 41h1M38 41h1M42 41h1M44 41h1M46 41h1M48 41h1M50 41h1M52 41h6M18 42h1M20 42h1M22 42h2M30 42h1M32 42h1M37 42h1M40 42h2M43 42h1M45 42h1M47 42h1M49 42h1M51 42h7M14 43h1M19 43h1M21 43h3M29 43h1M33 43h1M35 43h3M39 43h1M41 43h2M44 43h1M46 43h1M48 43h1M50 43h7M15 44h2M18 44h1M20 44h3M30 44h1M32 44h1M34 44h2M38 44h3M42 44h2M45 44h1M47 44h1M49 44h8M17 45h4M25 45h1M31 45h1M33 45h8M42 45h3M46 45h11M19 46h1M26 46h1M29 46h13M43 46h13M27 47h15M43 47h13M27 48h9M38 48h4M43 48h12M29 49h9M39 49h3M43 49h11M30 50h4M36 50h2M39 50h3M43 50h9M20 51h2M31 51h2M37 51h5M43 51h3M48 51h1M31 52h2M37 52h5M43 52h2M46 52h1M33 53h1M36 53h5M42 53h2M45 53h1M47 53h1M34 54h7M42 54h3M54 54h1M56 54h1M35 55h5M41 55h3M45 55h1M53 55h1M55 55h1M57 55h1M59 55h1M36 56h3M43 56h2M46 56h1M50 56h1M52 56h1M54 56h2M36 57h1M44 57h2M47 57h1M49 57h1M51 57h1M55 57h4M45 58h2M48 58h1M50 58h1M52 58h1M54 58h1M56 58h3M29 59h2M47 59h3M51 59h4M56 59h3M49 60h6" />
<path stroke="#ef5a94" d="M22 54h3M21 55h3M25 55h1M20 56h3M24 56h3M20 57h2M23 57h4M20 58h6M21 59h4" />
</svg>