<svg xmlns="http://www.w3.org/2000/svg" viewBox="0 -0.5 32 32" shape-rendering="crispEdges">
<metadata>Made with Pixels to Svg https://codepen.io/shshaw/pen/XbxvNj</metadata>
<path stroke="#202020" d="M15 9h2M13 10h2M17 10h2M6 11h1M11 11h2M19 11h2M25 11h1M5 12h1M7 12h1M9 12h2M21 12h2M24 12h1M26 12h1M4 13h1M8 13h1M23 13h1M27 13h1M3 14h1M28 14h1M2 15h1M29 15h1M3 16h1M28 16h1M4 17h1M8 17h1M23 17h1M27 17h1M5 18h1M7 18h1M9 18h2M21 18h2M24 18h1M26 18h1M6 19h1M11 19h2M19 19h2M25 19h1M13 20h2M17 20h2M15 21h2" />
<path stroke="#f6eebd" d="M15 10h1M17 11h1M16 12h2M19 12h1M7 13h1M16 13h1M20 13h2M26 13h1M7 14h2M16 14h2M19 14h4M26 14h2M6 16h1M25 16h1M6 17h1M25 17h1M6 18h1M25 18h1" />
<path stroke="#d5cd94" d="M16 10h1M18 11h1M20 12h1M22 13h1" />
<path stroke="#ffffde" d="M13 11h1M11 12h1M9 13h1M3 15h3M7 15h3M22 15h3M26 15h3" />
<path stroke="#ffffee" d="M14 11h1M6 12h1M12 12h2M15 12h1M25 12h1M5 13h2M10 13h3M14 13h2M24 13h2M4 14h3M9 14h4M14 14h1M23 14h3M6 15h1M10 15h3M14 15h1M25 15h1" />
<path stroke="#b4b4ac" d="M15 11h1M14 12h1M13 13h1M13 14h1M15 14h1M13 15h1M15 15h1" />
<path stroke="#acac8b" d="M16 11h1M18 12h1M17 13h3M18 14h1" />
<path stroke="#948b62" d="M16 15h1M12 16h2M12 17h2M15 17h1M13 18h1" />
<path stroke="#cdbd7b" d="M17 15h5M4 16h2M9 16h3M14 16h2M23 16h2M5 17h1M10 17h2M14 17h1M24 17h1M12 18h1M14 18h2M14 19h2" />
<path stroke="#a49c4a" d="M7 16h2M17 16h1M19 16h4M26 16h2M7 17h1M9 17h1M16 17h1M20 17h2M26 17h1M11 18h1M17 18h1M19 18h1M13 19h1M16 19h2M15 20h1" />
<path stroke="#7b7341" d="M16 16h1M18 16h1M17 17h3M16 18h1M18 18h1" />
<path stroke="#9c8b39" d="M22 17h1M20 18h1M18 19h1M16 20h1" />
</svg>