<svg xmlns="http://www.w3.org/2000/svg" viewBox="0 -0.5 32 32" shape-rendering="crispEdges">
<metadata>Made with Pixels to Svg https://codepen.io/shshaw/pen/XbxvNj</metadata>
<path stroke="#202020" d="M15 12h2M13 13h2M17 13h2M11 14h2M19 14h2M9 15h2M21 15h2M8 16h1M23 16h1M9 17h2M21 17h2M11 18h2M19 18h2M13 19h2M17 19h2M15 20h2" />
<path stroke="#f6f69c" d="M15 13h1M13 14h1M11 15h1M10 16h6" />
<path stroke="#d5a410" d="M16 13h1M18 14h1M20 15h1" />
<path stroke="#fffff6" d="M14 14h2M12 15h4" />
<path stroke="#eed518" d="M16 14h2M16 15h4" />
<path stroke="#deb410" d="M9 16h1M16 16h6M12 17h4M14 18h2" />
<path stroke="#c58b18" d="M22 16h1M11 17h1M16 17h4M13 18h1M16 18h2M15 19h1" />
<path stroke="#b47320" d="M20 17h1M18 18h1M16 19h1" />
</svg>