<svg xmlns="http://www.w3.org/2000/svg" viewBox="0 -0.5 32 32" shape-rendering="crispEdges">
<metadata>Made with Pixels to Svg https://codepen.io/shshaw/pen/XbxvNj</metadata>
<path stroke="#202020" d="M15 10h2M13 11h2M17 11h2M11 12h2M19 12h2M9 13h2M21 13h2M7 14h2M23 14h2M5 15h2M25 15h2M4 16h1M27 16h1M5 17h2M25 17h2M7 18h2M23 18h2M9 19h2M21 19h2M11 20h2M19 20h2M13 21h2M17 21h2M15 22h2" />
<path stroke="#fff68b" d="M15 11h1M13 12h1M11 13h1M9 14h1M7 15h1M6 16h8" />
<path stroke="#eea400" d="M16 11h1M18 12h1M20 13h1M22 14h1M24 15h1" />
<path stroke="#fffff6" d="M14 12h2M12 13h3M10 14h4M8 15h6" />
<path stroke="#ffd508" d="M16 12h2M18 13h2M17 14h1M21 14h1M16 15h1M21 15h3" />
<path stroke="#b4b4ac" d="M15 13h1M14 14h2M14 15h2" />
<path stroke="#b49408" d="M16 13h2M16 14h1M18 14h3M17 15h4" />
<path stroke="#f6ac00" d="M5 16h1M16 16h1M19 16h7M8 17h5M15 17h1M10 18h2M14 18h1M12 19h2M14 20h2" />
<path stroke="#b4ac62" d="M14 16h2" />
<path stroke="#ac7b00" d="M17 16h2M13 17h2M12 18h2M15 18h1M14 19h2" />
<path stroke="#d58308" d="M26 16h1M7 17h1M19 17h5M9 18h1M18 18h4M11 19h1M16 19h4M13 20h1M16 20h2M15 21h1" />
<path stroke="#945a00" d="M16 17h3M16 18h2" />
<path stroke="#c56a10" d="M24 17h1M22 18h1M20 19h1M18 20h1M16 21h1" />
</svg>