<svg xmlns="http://www.w3.org/2000/svg" viewBox="0 -0.5 32 32" shape-rendering="crispEdges">
<metadata>Made with Pixels to Svg https://codepen.io/shshaw/pen/XbxvNj</metadata>
<path stroke="#202020" d="M15 10h2M13 11h2M17 11h2M11 12h2M19 12h2M9 13h2M21 13h2M7 14h2M23 14h2M5 15h2M25 15h2M4 16h1M27 16h1M5 17h2M25 17h2M7 18h2M23 18h2M9 19h2M21 19h2M11 20h2M19 20h2M13 21h2M17 21h2M15 22h2" />
<path stroke="#9cfff6" d="M15 11h1M13 12h1M11 13h1M9 14h1M7 15h1M6 16h7M14 16h1" />
<path stroke="#188bde" d="M16 11h1M18 12h1M20 13h1M22 14h1M24 15h1" />
<path stroke="#e6ffff" d="M14 12h2M12 13h3M10 14h4M15 14h1M8 15h6M15 15h1" />
<path stroke="#62c5ff" d="M16 12h2M17 13h3M16 14h1M18 14h4M16 15h1M18 15h6" />
<path stroke="#a4b4b4" d="M15 13h1M14 14h1M14 15h1" />
<path stroke="#418bb4" d="M16 13h1M17 14h1M17 15h1" />
<path stroke="#299ce6" d="M5 16h1M17 16h1M19 16h7M8 17h5M14 17h2M10 18h3M15 18h1M12 19h2M14 20h2" />
<path stroke="#6ab4ac" d="M13 16h1M15 16h1" />
<path stroke="#186aa4" d="M16 16h1M18 16h1" />
<path stroke="#0873d5" d="M26 16h1M7 17h1M16 17h2M19 17h5M9 18h1M16 18h1M19 18h3M11 19h1M18 19h2M13 20h1M16 20h2M15 21h1" />
<path stroke="#206aa4" d="M13 17h1M13 18h2M14 19h2" />
<path stroke="#005294" d="M18 17h1M17 18h2M16 19h2" />
<path stroke="#005ac5" d="M24 17h1M22 18h1M20 19h1M18 20h1M16 21h1" />
</svg>