<svg xmlns="http://www.w3.org/2000/svg" viewBox="0 -0.5 48 48" shape-rendering="crispEdges">
<metadata>Made with Pixels to Svg https://codepen.io/shshaw/pen/XbxvNj</metadata>
<path stroke="#ffffff" d="M0 0h48M0 1h48M0 2h48M0 3h48M0 4h48M0 5h48M0 6h48M0 7h48M0 8h48M0 9h48M0 10h48M0 11h18M29 11h19M0 12h15M18 12h11M32 12h16M0 13h13M15 13h12M34 13h14M0 14h11M13 14h12M33 14h1M36 14h12M0 15h10M11 15h13M34 15h2M37 15h11M0 16h9M10 16h13M24 16h1M31 16h1M33 16h1M35 16h2M38 16h10M0 17h8M9 17h13M23 17h1M32 17h1M34 17h1M36 17h2M39 17h9M0 18h7M8 18h11M20 18h1M22 18h1M24 18h1M31 18h1M33 18h1M35 18h1M37 18h2M40 18h8M0 19h6M7 19h11M19 19h1M21 19h1M23 19h1M32 19h1M34 19h1M36 19h1M38 19h2M41 19h7M0 20h5M6 20h12M20 20h1M22 20h1M33 20h1M35 20h1M37 20h1M39 20h2M42 20h6M0 21h4M5 21h12M32 21h1M34 21h1M36 21h1M38 21h1M40 21h2M43 21h5M0 22h4M5 22h12M35 22h1M37 22h1M39 22h1M41 22h1M43 22h5M0 23h3M4 23h12M34 23h1M36 23h1M38 23h1M40 23h3M44 23h4M0 24h3M4 24h12M35 24h1M37 24h1M39 24h1M41 24h2M44 24h4M0 25h2M3 25h13M36 25h1M38 25h1M40 25h1M42 25h2M45 25h3M0 26h2M3 26h12M35 26h1M37 26h1M39 26h1M41 26h1M43 26h1M45 26h3M0 27h2M3 27h12M36 27h1M38 27h1M40 27h1M42 27h2M45 27h3M0 28h1M2 28h13M35 28h1M37 28h1M39 28h1M41 28h1M46 28h2M0 29h1M2 29h13M36 29h1M38 29h1M40 29h1M46 29h2M0 30h1M2 30h12M46 30h2M0 31h1M2 31h12M44 31h1M46 31h2M0 32h1M2 32h12M42 32h3M46 32h2M0 33h1M2 33h12M42 33h3M46 33h2M0 34h1M2 34h12M43 34h2M46 34h2M0 35h1M4 35h6M43 35h2M46 35h2M0 36h1M43 36h2M46 36h2M0 37h2M43 37h1M45 37h3M0 38h2M5 38h2M43 38h1M45 38h3M0 39h2M5 39h3M43 39h1M45 39h3M0 40h3M6 40h2M44 40h4M0 41h3M6 41h3M44 41h4M0 42h4M7 42h2M43 42h5M0 43h4M43 43h5M0 44h5M42 44h6M0 45h6M41 45h7M0 46h7M40 46h8M0 47h8M39 47h9" />
<path stroke="#ff4a42" d="M18 11h3M15 12h1M13 13h1M11 14h1M10 15h1M9 16h1M8 17h1M7 18h1M6 19h1M5 20h1M4 21h1M3 23h1M2 25h1M44 28h1M1 29h1M43 29h2M41 30h3M38 31h4M34 32h7M30 33h12M25 34h17M19 35h23M2 36h2M10 36h32M45 36h1M3 37h2M8 37h34M3 38h1M9 38h33M3 39h1M9 39h33M44 39h1M4 40h1M10 40h33M4 41h1M10 41h33M10 42h32M5 43h1M10 43h32M6 44h1M9 44h32M7 45h33M8 46h31M9 47h29" />
<path stroke="#000000" d="M21 11h8M16 12h2M29 12h3M14 13h1M32 13h2M12 14h1M34 14h2M36 15h1M37 16h1M38 17h1M39 18h1M40 19h1M41 20h1M42 21h1M4 22h1M42 22h1M43 23h1M3 24h1M43 24h1M44 25h1M2 26h1M44 26h1M2 27h1M44 27h1M43 28h1M45 28h1M41 29h2M45 29h1M1 30h1M38 30h3M44 30h2M1 31h1M34 31h4M42 31h2M45 31h1M1 32h1M30 32h4M41 32h1M45 32h1M1 33h1M25 33h5M45 33h1M1 34h1M19 34h6M42 34h1M45 34h1M1 35h3M10 35h9M42 35h1M45 35h1M1 36h1M4 36h6M42 36h1M2 37h1M42 37h1M44 37h1M2 38h1M42 38h1M44 38h1M2 39h1M42 39h1M3 40h1M43 40h1M3 41h1M43 41h1M4 42h1M42 42h1M4 43h1M42 43h1M5 44h1M41 44h1M6 45h1M40 45h1M7 46h1M39 46h1M8 47h1M38 47h1" />
<path stroke="#cebd8c" d="M27 13h5M25 14h8M24 15h10M23 16h1M25 16h6M32 16h1M34 16h1M22 17h1M24 17h8M33 17h1M35 17h1M19 18h1M21 18h1M23 18h1M25 18h6M32 18h1M34 18h1M36 18h1M18 19h1M20 19h1M22 19h1M24 19h8M33 19h1M35 19h1M37 19h1M18 20h2M21 20h1M23 20h10M34 20h1M36 20h1M38 20h1M17 21h15M33 21h1M35 21h1M37 21h1M39 21h1M17 22h18M36 22h1M38 22h1M40 22h1M16 23h18M35 23h1M37 23h1M39 23h1M16 24h19M36 24h1M38 24h1M40 24h1M16 25h20M37 25h1M39 25h1M41 25h1M15 26h20M36 26h1M38 26h1M40 26h1M42 26h1M15 27h21M37 27h1M39 27h1M41 27h1M1 28h1M15 28h20M36 28h1M38 28h1M40 28h1M42 28h1M15 29h21M37 29h1M39 29h1M14 30h24M14 31h20M14 32h16M14 33h11M14 34h5M5 37h3M4 38h1M7 38h2M4 39h1M8 39h1M5 40h1M8 40h2M5 41h1M9 41h1M5 42h2M9 42h1M6 43h4M7 44h2" />
</svg>