<svg xmlns="http://www.w3.org/2000/svg" viewBox="0 -0.5 48 48" shape-rendering="crispEdges">
<metadata>Made with Pixels to Svg https://codepen.io/shshaw/pen/XbxvNj</metadata>
<path stroke="#ffffff" d="M0 0h36M37 0h11M0 1h35M36 1h1M38 1h10M0 2h34M36 2h1M38 2h10M0 3h18M19 3h14M34 3h4M39 3h9M0 4h17M18 4h1M20 4h11M33 4h6M41 4h7M0 5h16M17 5h2M20 5h10M31 5h10M42 5h6M0 6h14M15 6h1M17 6h2M20 6h2M24 6h7M33 6h4M38 6h1M40 6h1M43 6h5M0 7h13M14 7h1M16 7h4M22 7h2M25 7h8M35 7h1M37 7h1M39 7h1M41 7h1M43 7h5M0 8h13M14 8h11M26 8h7M34 8h1M36 8h1M38 8h1M40 8h1M43 8h5M0 9h13M14 9h8M23 9h1M26 9h5M35 9h1M37 9h1M42 9h6M0 10h14M15 10h4M20 10h1M22 10h1M25 10h5M40 10h8M0 11h15M19 11h1M21 11h1M24 11h5M39 11h9M0 12h18M20 12h1M22 12h1M24 12h2M28 12h1M39 12h9M0 13h19M41 13h7M0 14h18M43 14h5M0 15h17M45 15h3M0 16h17M46 16h2M0 17h17M29 17h2M47 17h1M0 18h18M28 18h2M31 18h1M47 18h1M0 19h19M27 19h2M30 19h1M0 20h8M11 20h10M27 20h1M29 20h1M31 20h1M0 21h7M15 21h5M28 21h1M30 21h1M0 22h7M19 22h1M47 22h1M0 23h8M47 23h1M0 24h9M40 24h2M46 24h2M0 25h11M40 25h2M44 25h4M0 26h13M41 26h2M44 26h4M0 27h14M41 27h1M46 27h2M0 28h15M47 28h1M0 29h13M47 29h1M0 30h12M14 30h3M46 30h2M0 31h5M13 31h4M45 31h3M0 32h4M44 32h4M0 33h4M44 33h4M0 34h5M30 34h3M45 34h3M0 35h7M29 35h5M45 35h3M0 36h9M28 36h6M44 36h4M0 37h10M28 37h5M43 37h5M0 38h10M29 38h2M42 38h6M0 39h10M42 39h6M0 40h1M9 40h2M42 40h6M42 41h6M42 42h6M0 43h1M41 43h7M0 44h3M41 44h1M44 44h4M0 45h6M45 45h3M0 46h9M45 46h3M0 47h9M46 47h2" />
<path stroke="#000000" d="M36 0h1M37 1h1M34 2h2M37 2h1M33 3h1M38 3h1M17 4h1M19 4h1M32 4h1M39 4h2M19 5h1M41 5h1M14 6h1M16 6h1M19 6h1M23 6h1M31 6h2M42 6h1M15 7h1M20 7h2M24 7h1M33 7h1M42 7h1M13 8h1M25 8h1M33 8h1M42 8h1M13 9h1M25 9h1M32 9h1M40 9h2M14 10h1M24 10h1M30 10h1M39 10h1M15 11h3M23 11h1M38 11h1M18 12h1M23 12h1M26 12h2M29 12h1M38 12h1M19 13h1M24 13h2M28 13h2M39 13h2M18 14h1M30 14h1M41 14h2M30 15h1M43 15h2M17 16h1M29 16h1M45 16h1M17 17h1M27 17h1M46 17h1M18 18h1M22 18h1M46 18h1M19 19h3M47 19h1M9 20h2M21 20h1M47 20h1M11 21h3M47 21h1M7 22h1M15 22h3M20 22h1M46 22h1M8 23h1M19 23h4M37 23h1M46 23h1M9 24h2M23 24h3M38 24h2M44 24h2M11 25h2M26 25h1M42 25h2M13 26h1M26 26h1M40 26h1M43 26h1M14 27h2M26 27h1M40 27h1M42 27h1M44 27h2M15 28h3M25 28h1M41 28h1M46 28h1M13 29h2M18 29h1M25 29h1M40 29h1M46 29h1M12 30h1M19 30h2M25 30h1M39 30h1M45 30h1M7 31h5M20 31h3M24 31h1M39 31h1M44 31h1M11 32h7M19 32h6M30 32h6M38 32h1M42 32h2M4 33h1M18 33h6M28 33h2M36 33h2M43 33h1M5 34h2M21 34h5M27 34h1M38 34h1M44 34h1M7 35h2M21 35h6M39 35h1M44 35h1M9 36h2M20 36h6M40 36h1M43 36h1M10 37h3M20 37h6M40 37h3M10 38h1M13 38h2M19 38h6M41 38h1M10 39h1M15 39h2M19 39h1M22 39h3M41 39h1M2 40h7M11 40h1M15 40h1M17 40h2M24 40h1M41 40h1M9 41h8M24 41h1M41 41h1M0 42h1M17 42h1M24 42h1M41 42h1M1 43h2M17 43h1M25 43h1M40 43h1M3 44h3M17 44h1M25 44h1M40 44h1M42 44h2M6 45h3M16 45h1M26 45h1M39 45h1M41 45h1M44 45h1M9 46h2M16 46h1M27 46h1M38 46h1M41 46h1M44 46h1M9 47h5M16 47h1M28 47h2M36 47h2M39 47h1M42 47h1M45 47h1" />
<path stroke="#bd4a52" d="M35 1h1M18 3h1M31 4h1M16 5h1M30 5h1M22 6h1M13 7h1M31 9h1M29 11h1M38 14h3M17 15h1M37 15h1M39 15h4M36 16h1M38 16h1M40 16h4M28 17h1M37 17h1M39 17h4M44 17h1M36 18h1M38 18h6M45 18h1M37 19h6M44 19h1M46 19h1M8 20h1M37 20h7M45 20h1M7 21h1M14 21h1M20 21h1M38 21h7M46 21h1M9 22h4M18 22h1M38 22h8M9 23h8M36 23h1M38 23h8M11 24h12M33 24h1M35 24h3M42 24h2M13 25h13M28 25h1M30 25h1M32 25h1M34 25h6M14 26h12M27 26h1M29 26h1M31 26h1M33 26h1M35 26h5M16 27h10M27 27h2M30 27h1M32 27h8M18 28h7M26 28h15M19 29h6M26 29h14M21 30h4M26 30h13M5 31h2M23 31h1M25 31h14M4 32h1M9 32h2M25 32h5M36 32h2M6 33h12M24 33h4M41 33h1M7 34h14M26 34h1M9 35h12M11 36h9M13 37h7M15 38h4M17 39h2M20 39h2M1 40h1M16 40h1M19 40h5M0 41h1M5 41h4M17 41h7M2 42h15M18 42h6M3 43h14M18 43h7M6 44h11M18 44h7M9 45h7M17 45h4M22 45h1M24 45h2M40 45h1M42 45h2M11 46h5M17 46h3M21 46h1M23 46h4M39 46h2M42 46h2M14 47h2M17 47h2M20 47h1M22 47h1M24 47h4M38 47h1M40 47h2M43 47h2" />
<path stroke="#ffa500" d="M37 6h1M39 6h1M41 6h1M34 7h1M36 7h1M38 7h1M40 7h1M35 8h1M37 8h1M39 8h1M41 8h1M22 9h1M24 9h1M33 9h2M36 9h1M38 9h2M19 10h1M21 10h1M23 10h1M31 10h8M18 11h1M20 11h1M22 11h1M30 11h8M19 12h1M21 12h1M30 12h8M20 13h4M26 13h2M30 13h9M19 14h11M31 14h7M18 15h12M31 15h6M38 15h1M18 16h11M30 16h6M37 16h1M39 16h1M44 16h1M18 17h9M31 17h6M38 17h1M43 17h1M45 17h1M19 18h3M23 18h5M30 18h1M32 18h4M37 18h1M44 18h1M22 19h5M29 19h1M31 19h6M43 19h1M45 19h1M22 20h5M28 20h1M30 20h1M32 20h5M44 20h1M46 20h1M8 21h3M21 21h7M29 21h1M31 21h7M45 21h1M8 22h1M13 22h2M21 22h17M17 23h2M23 23h13M26 24h7M34 24h1M27 25h1M29 25h1M31 25h1M33 25h1M28 26h1M30 26h1M32 26h1M34 26h1M29 27h1M31 27h1M43 27h1M42 28h4M15 29h3M41 29h5M13 30h1M17 30h2M40 30h5M12 31h1M17 31h3M40 31h4M5 32h4M18 32h1M39 32h3M5 33h1M30 33h6M38 33h3M42 33h1M28 34h2M33 34h5M39 34h5M27 35h2M34 35h5M40 35h4M26 36h2M34 36h6M41 36h2M26 37h2M33 37h7M11 38h2M25 38h4M31 38h10M11 39h4M25 39h16M12 40h3M25 40h16M1 41h4M25 41h16M1 42h1M25 42h16M26 43h14M26 44h14M21 45h1M23 45h1M27 45h12M20 46h1M22 46h1M28 46h10M19 47h1M21 47h1M23 47h1M30 47h6" />
</svg>