<svg xmlns="http://www.w3.org/2000/svg" viewBox="0 -0.5 48 48" shape-rendering="crispEdges">
<metadata>Made with Pixels to Svg https://codepen.io/shshaw/pen/XbxvNj</metadata>
<path stroke="#ffffff" d="M0 0h17M24 0h24M0 1h14M17 1h7M27 1h21M0 2h13M14 2h1M16 2h11M28 2h20M0 3h11M13 3h1M15 3h1M17 3h1M19 3h9M30 3h18M0 4h10M11 4h2M14 4h1M16 4h1M18 4h12M31 4h17M0 5h10M11 5h3M15 5h1M17 5h13M31 5h17M0 6h9M10 6h21M32 6h16M0 7h8M9 7h23M33 7h15M0 8h8M9 8h23M33 8h15M0 9h8M9 9h9M19 9h1M21 9h11M33 9h15M0 10h7M8 10h9M18 10h1M20 10h13M34 10h14M0 11h7M8 11h10M19 11h1M21 11h8M30 11h1M32 11h1M34 11h14M0 12h7M8 12h18M27 12h1M29 12h1M31 12h1M34 12h14M0 13h7M9 13h1M11 13h14M26 13h1M28 13h1M30 13h1M32 13h1M34 13h14M0 14h7M8 14h1M10 14h1M12 14h1M14 14h1M16 14h6M25 14h1M27 14h1M29 14h1M31 14h1M34 14h14M0 15h8M9 15h1M11 15h1M13 15h1M15 15h1M17 15h1M19 15h1M26 15h1M28 15h1M33 15h15M0 16h8M10 16h1M12 16h1M14 16h1M16 16h1M18 16h1M33 16h15M0 17h8M11 17h1M13 17h1M33 17h15M0 18h9M18 18h1M32 18h16M0 19h10M15 19h1M17 19h1M19 19h1M31 19h17M0 20h10M16 20h1M31 20h17M0 21h11M30 21h18M0 22h13M18 22h1M20 22h1M28 22h20M0 23h6M12 23h2M17 23h1M19 23h1M21 23h1M27 23h21M0 24h4M6 24h6M14 24h3M24 24h24M0 25h3M4 25h10M15 25h5M21 25h3M25 25h11M42 25h6M0 26h2M3 26h12M16 26h5M22 26h2M25 26h2M30 26h4M36 26h6M44 26h4M0 27h1M2 27h16M22 27h3M27 27h3M31 27h2M34 27h10M45 27h3M0 28h1M2 28h9M12 28h1M14 28h2M19 28h2M23 28h1M26 28h3M30 28h2M33 28h12M46 28h2M1 29h9M11 29h1M13 29h1M16 29h1M18 29h4M27 29h1M31 29h1M33 29h13M47 29h1M1 30h10M12 30h1M14 30h1M17 30h4M25 30h2M32 30h14M47 30h1M1 31h9M11 31h1M17 31h2M21 31h3M25 31h4M32 31h15M1 32h1M3 32h1M5 32h4M10 32h1M19 32h4M25 32h5M31 32h16M2 33h1M4 33h1M6 33h1M19 33h4M27 33h3M31 33h16M1 34h1M3 34h1M5 34h1M18 34h4M31 34h16M0 35h1M2 35h1M18 35h2M31 35h1M33 35h1M35 35h12M0 36h1M34 36h8M43 36h1M45 36h2M0 37h2M4 37h1M6 37h1M33 37h1M35 37h6M42 37h1M44 37h1M47 37h1M0 38h3M5 38h1M7 38h1M32 38h1M34 38h1M36 38h2M39 38h1M41 38h1M47 38h1M0 39h4M6 39h1M33 39h1M38 39h1M40 39h1M42 39h1M46 39h2M0 40h6M34 40h1M39 40h1M41 40h1M43 40h1M45 40h3M0 41h6M38 41h1M40 41h1M44 41h4M0 42h5M42 42h6M0 43h4M42 43h6M0 44h4M42 44h6M0 45h5M41 45h7M0 46h6M41 46h7M0 47h6M41 47h7" />
<path stroke="#9494ef" d="M17 0h1M23 0h1M14 1h1M26 1h1M15 2h1M11 3h1M14 3h1M16 3h1M18 3h1M29 3h1M10 4h1M13 4h1M15 4h1M17 4h1M30 4h1M14 5h1M16 5h1M8 7h1M32 7h1M18 9h1M20 9h1M7 10h1M17 10h1M19 10h1M33 10h1M18 11h1M20 11h1M29 11h1M31 11h1M26 12h1M28 12h1M30 12h1M32 12h1M8 13h1M10 13h1M25 13h1M27 13h1M29 13h1M31 13h1M7 14h1M9 14h1M11 14h1M13 14h1M15 14h1M22 14h3M26 14h1M28 14h1M30 14h1M32 14h1M10 15h1M12 15h1M14 15h1M16 15h1M18 15h1M20 15h6M27 15h1M29 15h3M9 16h1M11 16h1M13 16h1M15 16h1M17 16h1M19 16h13M9 17h2M12 17h1M14 17h18M10 18h8M19 18h12M11 19h4M16 19h1M18 19h1M20 19h10M11 20h5M17 20h13M12 21h16M14 22h4M19 22h1M21 22h6M6 23h6M18 23h1M20 23h1M22 23h2M4 24h2M12 24h2M3 25h1M14 25h1M36 25h6M2 26h1M15 26h1M34 26h2M42 26h2M1 27h1M33 27h1M44 27h1M1 28h1M11 28h1M13 28h1M24 28h1M32 28h1M45 28h1M0 29h1M10 29h1M12 29h1M14 29h2M23 29h2M32 29h1M46 29h1M0 30h1M11 30h1M13 30h1M15 30h1M46 30h1M0 31h1M10 31h1M12 31h2M31 31h1M47 31h1M0 32h1M2 32h1M4 32h1M9 32h1M11 32h2M16 32h1M30 32h1M47 32h1M0 33h2M3 33h1M5 33h1M7 33h5M15 33h3M30 33h1M47 33h1M0 34h1M2 34h1M4 34h1M6 34h5M14 34h3M30 34h1M47 34h1M1 35h1M3 35h7M14 35h3M30 35h1M32 35h1M34 35h1M47 35h1M1 36h8M13 36h1M15 36h5M21 36h1M30 36h4M42 36h1M44 36h1M47 36h1M2 37h2M5 37h1M7 37h2M14 37h1M16 37h1M18 37h1M20 37h1M22 37h1M31 37h2M34 37h1M41 37h1M43 37h1M45 37h2M3 38h2M6 38h1M13 38h1M15 38h1M17 38h1M19 38h1M21 38h1M31 38h1M33 38h1M35 38h1M38 38h1M40 38h1M42 38h5M4 39h2M7 39h1M14 39h1M16 39h1M18 39h1M32 39h1M34 39h4M39 39h1M41 39h1M43 39h3M6 40h1M33 40h1M35 40h4M40 40h1M42 40h1M44 40h1M34 41h4M39 41h1M41 41h3M6 42h3M36 42h6M6 43h2" />
<path stroke="#3a5ace" d="M18 0h5M15 1h2M24 1h2M13 2h1M27 2h1M12 3h1M28 3h1M10 5h1M30 5h1M9 6h1M31 6h1M8 8h1M32 8h1M8 9h1M32 9h1M7 11h1M33 11h1M7 12h1M33 12h1M7 13h1M33 13h1M33 14h1M8 15h1M32 15h1M8 16h1M32 16h1M8 17h1M32 17h1M9 18h1M31 18h1M10 19h1M30 19h1M10 20h1M30 20h1M11 21h1M28 21h2M13 22h1M27 22h1M14 23h3M24 23h3M17 24h7M20 25h1M27 26h1M18 27h1M26 27h1M16 28h1M21 28h1M24 30h1M29 30h2M19 31h1M30 31h1M14 32h2M13 33h2M18 33h1M24 33h1M12 34h2M17 34h1M23 34h4M11 35h3M22 35h8M10 36h3M14 36h1M20 36h1M22 36h8M10 37h4M15 37h1M17 37h1M19 37h1M21 37h1M23 37h8M9 38h4M14 38h1M16 38h1M18 38h1M20 38h1M22 38h9M9 39h5M15 39h1M17 39h1M19 39h13M8 40h25M10 41h24M5 42h1M9 42h1M12 42h23M5 43h1M8 43h4M14 43h21M36 43h5M5 44h9M16 44h18M35 44h6M6 45h34M9 46h30M7 47h2M13 47h27" />
<path stroke="#000000" d="M24 25h1M21 26h1M24 26h1M28 26h2M19 27h3M25 27h1M30 27h1M17 28h2M22 28h1M25 28h1M29 28h1M17 29h1M22 29h1M25 29h2M28 29h3M16 30h1M21 30h3M27 30h2M31 30h1M14 31h3M20 31h1M24 31h1M29 31h1M13 32h1M17 32h2M23 32h2M12 33h1M23 33h1M25 33h2M11 34h1M22 34h1M27 34h3M10 35h1M17 35h1M20 35h2M9 36h1M9 37h1M8 38h1M8 39h1M7 40h1M6 41h4M10 42h2M35 42h1M4 43h1M12 43h2M35 43h1M41 43h1M4 44h1M14 44h2M34 44h1M41 44h1M5 45h1M40 45h1M6 46h3M39 46h2M6 47h1M9 47h4M40 47h1" />
</svg>