<svg xmlns="http://www.w3.org/2000/svg" viewBox="0 -0.5 48 48" shape-rendering="crispEdges">
<metadata>Made with Pixels to Svg https://codepen.io/shshaw/pen/XbxvNj</metadata>
<path stroke="#ffffff" d="M0 0h48M0 1h48M0 2h48M0 3h48M0 4h48M0 5h48M0 6h48M0 7h48M0 8h48M0 9h48M0 10h48M0 11h48M0 12h48M0 13h48M0 14h48M0 15h48M0 16h48M0 17h48M0 18h48M0 19h48M0 20h48M0 21h26M29 21h19M0 22h18M22 22h3M27 22h1M29 22h19M0 23h16M29 23h19M0 24h15M28 24h20M0 25h14M27 25h21M0 26h13M27 26h21M0 27h12M28 27h20M0 28h12M28 28h20M0 29h11M29 29h19M0 30h11M29 30h19M0 31h11M29 31h19M0 32h11M29 32h19M0 33h12M29 33h19M0 34h12M29 34h19M0 35h13M29 35h19M0 36h14M29 36h19M0 37h15M29 37h19M0 38h16M24 38h1M29 38h19M0 39h18M22 39h3M29 39h19M0 40h25M29 40h19M0 41h25M29 41h19M0 42h25M29 42h19M0 43h25M29 43h19M0 44h25M29 44h19M0 45h25M29 45h19M0 46h26M28 46h20M0 47h48" />
<path stroke="#000000" d="M26 21h2M25 22h1M28 22h1M18 23h4M24 23h2M28 23h1M16 24h12M15 25h12M14 26h2M20 26h6M13 27h2M21 27h6M13 28h2M21 28h6M12 29h3M21 29h7M12 30h3M21 30h7M12 31h4M20 31h8M12 32h16M13 33h15M13 34h15M14 35h14M15 36h13M16 37h8M26 37h2M18 38h4M26 38h2M26 39h2M26 40h2M26 41h2M26 42h2M26 43h2" />
<path stroke="#5aff7b" d="M28 21h1M18 22h4M16 23h1M23 23h1M12 27h1M17 27h2M27 27h1M16 28h4M11 29h1M16 29h4M28 29h1M11 30h1M17 30h2M28 30h1M11 31h1M11 32h1M12 34h1M16 38h1M23 38h1M18 39h4M26 44h2M26 45h2" />
<path stroke="#007b42" d="M26 22h1M17 23h1M22 23h1M26 23h2M15 24h1M14 25h1M13 26h1M16 26h4M26 26h1M15 27h2M19 27h2M12 28h1M15 28h1M20 28h1M27 28h1M15 29h1M20 29h1M15 30h2M19 30h2M16 31h4M28 31h1M28 32h1M12 33h1M28 33h1M28 34h1M13 35h1M28 35h1M14 36h1M28 36h1M15 37h1M24 37h2M28 37h1M17 38h1M22 38h1M25 38h1M28 38h1M25 39h1M28 39h1M25 40h1M28 40h1M25 41h1M28 41h1M25 42h1M28 42h1M25 43h1M28 43h1M25 44h1M28 44h1M25 45h1M28 45h1M26 46h2" />
</svg>