<svg xmlns="http://www.w3.org/2000/svg" viewBox="0 -0.5 48 48" shape-rendering="crispEdges">
<metadata>Made with Pixels to Svg https://codepen.io/shshaw/pen/XbxvNj</metadata>
<path stroke="#ffffff" d="M0 0h48M0 1h48M0 2h48M0 3h48M0 4h48M0 5h48M0 6h48M0 7h48M0 8h48M0 9h48M0 10h48M0 11h48M0 12h48M0 13h48M0 14h48M0 15h48M0 16h48M0 17h48M0 18h48M0 19h48M0 20h48M0 21h48M0 22h48M0 23h26M30 23h18M0 24h24M32 24h16M0 25h23M33 25h15M0 26h22M34 26h14M0 27h21M35 27h13M0 28h20M36 28h12M0 29h20M36 29h12M0 30h19M37 30h11M0 31h19M37 31h11M0 32h19M37 32h11M0 33h19M37 33h11M0 34h20M36 34h12M0 35h20M36 35h12M0 36h20M35 36h13M0 37h14M16 37h3M34 37h14M0 38h13M15 38h1M33 38h15M0 39h13M22 39h2M32 39h16M0 40h14M21 40h5M30 40h18M0 41h15M20 41h28M0 42h14M19 42h29M0 43h14M18 43h30M0 44h14M17 44h31M0 45h48M0 46h48M0 47h48" />
<path stroke="#5aff7b" d="M26 23h4M24 24h1M31 24h1M20 28h1M25 28h2M35 28h1M24 29h4M19 30h1M24 30h4M36 30h1M19 31h1M25 31h2M36 31h1M19 32h1M36 32h1M19 33h1M36 33h1M20 35h1M35 35h1M24 39h1M31 39h1M26 40h4M14 44h1" />
<path stroke="#007b42" d="M25 24h1M30 24h1M23 25h1M32 25h1M22 26h1M33 26h1M21 27h1M24 27h4M34 27h1M23 28h2M27 28h2M20 29h1M23 29h1M28 29h1M35 29h1M23 30h1M28 30h1M23 31h2M27 31h2M24 32h4M20 34h1M35 34h1M34 36h1M33 37h1M14 38h1M17 38h1M23 38h1M32 38h1M15 39h2M25 39h1M30 39h1" />
<path stroke="#000000" d="M26 24h4M24 25h8M23 26h10M22 27h2M28 27h6M21 28h2M29 28h6M21 29h2M29 29h6M20 30h3M29 30h7M20 31h3M29 31h7M20 32h4M28 32h8M20 33h16M21 34h14M21 35h14M20 36h14M14 37h2M19 37h14M13 38h1M16 38h1M18 38h5M24 38h8M13 39h2M17 39h5M26 39h4M14 40h7M15 41h5M14 42h5M14 43h4M15 44h2" />
</svg>