<svg xmlns="http://www.w3.org/2000/svg" viewBox="0 -0.5 48 48" shape-rendering="crispEdges">
<metadata>Made with Pixels to Svg https://codepen.io/shshaw/pen/XbxvNj</metadata>
<path stroke="#ffffff" d="M0 0h48M0 1h48M0 2h48M0 3h25M27 3h6M35 3h13M0 4h24M25 4h2M28 4h4M33 4h2M36 4h12M0 5h23M24 5h2M33 5h2M37 5h11M0 6h21M32 6h4M37 6h11M0 7h18M34 7h2M38 7h10M0 8h17M40 8h8M0 9h15M42 9h6M0 10h14M43 10h5M0 11h13M44 11h4M0 12h12M45 12h3M0 13h12M45 13h3M0 14h14M36 14h1M44 14h4M0 15h18M36 15h1M40 15h8M0 16h18M35 16h2M41 16h7M0 17h9M12 17h5M36 17h2M43 17h5M0 18h8M13 18h4M43 18h5M0 19h8M13 19h4M43 19h5M0 20h7M15 20h1M43 20h5M0 21h7M43 21h5M0 22h7M9 22h1M42 22h6M0 23h7M10 23h1M41 23h3M46 23h2M0 24h8M9 24h3M39 24h2M47 24h1M0 25h8M9 25h4M0 26h8M9 26h3M34 26h5M40 26h1M0 27h9M10 27h1M14 27h1M31 27h9M0 28h9M15 28h1M30 28h1M32 28h6M47 28h1M0 29h3M8 29h2M14 29h1M29 29h1M31 29h1M33 29h3M46 29h2M0 30h2M9 30h1M13 30h1M15 30h1M30 30h1M32 30h1M46 30h2M0 31h1M10 31h1M12 31h1M14 31h1M45 31h3M0 32h1M10 32h1M13 32h1M44 32h4M0 33h1M11 33h2M43 33h5M0 34h1M11 34h1M13 34h1M42 34h6M0 35h1M12 35h1M41 35h7M0 36h2M40 36h8M0 37h3M8 37h1M39 37h9M0 38h3M7 38h2M37 38h1M39 38h9M0 39h2M6 39h2M37 39h2M40 39h8M0 40h2M5 40h3M37 40h2M40 40h8M0 41h2M5 41h3M37 41h2M40 41h8M0 42h1M5 42h3M37 42h3M41 42h7M0 43h1M4 43h3M37 43h3M41 43h7M0 44h1M4 44h3M37 44h3M41 44h7M0 45h1M4 45h3M36 45h4M41 45h7M0 46h1M4 46h3M36 46h4M41 46h7M0 47h1M4 47h3M35 47h4M40 47h8" />
<path stroke="#000000" d="M25 3h2M33 3h2M24 4h1M27 4h1M32 4h1M35 4h1M23 5h1M26 5h6M36 5h1M21 6h5M28 6h1M30 6h2M36 6h1M19 7h5M29 7h1M31 7h3M36 7h2M17 8h5M28 8h1M30 8h1M32 8h8M16 9h5M29 9h13M15 10h6M27 10h6M36 10h7M13 11h7M25 11h9M38 11h6M13 12h7M24 12h12M40 12h5M13 13h6M23 13h11M36 13h3M43 13h2M15 14h4M23 14h10M37 14h1M39 14h5M18 15h1M22 15h11M37 15h3M18 16h1M20 16h1M22 16h11M37 16h2M40 16h1M9 17h3M17 17h1M19 17h1M21 17h12M38 17h1M41 17h1M8 18h1M11 18h2M17 18h1M20 18h1M22 18h10M41 18h2M8 19h1M10 19h1M12 19h1M17 19h1M19 19h1M21 19h10M42 19h1M7 20h1M9 20h1M13 20h2M16 20h1M20 20h11M42 20h1M7 21h2M15 21h2M19 21h1M21 21h1M23 21h9M42 21h1M7 22h1M16 22h1M18 22h1M20 22h1M22 22h11M41 22h1M7 23h1M15 23h1M19 23h1M21 23h1M23 23h11M39 23h2M44 23h2M8 24h1M15 24h1M18 24h1M20 24h1M22 24h14M38 24h1M41 24h3M46 24h1M8 25h1M17 25h1M19 25h21M44 25h1M46 25h2M8 26h1M15 26h2M18 26h1M20 26h12M45 26h3M9 27h1M15 27h1M17 27h1M19 27h7M45 27h3M9 28h1M16 28h1M18 28h5M46 28h1M3 29h5M10 29h1M18 29h2M45 29h1M2 30h1M7 30h2M10 30h1M45 30h1M1 31h1M8 31h2M11 31h1M44 31h1M1 32h1M8 32h2M11 32h1M43 32h1M1 33h1M8 33h3M42 33h1M1 34h2M7 34h4M41 34h1M1 35h10M40 35h1M2 36h8M24 36h2M39 36h1M3 37h2M6 37h2M9 37h1M23 37h1M25 37h3M34 37h1M37 37h2M3 38h1M6 38h1M9 38h1M22 38h1M24 38h1M26 38h2M35 38h2M38 38h1M2 39h1M5 39h1M8 39h1M20 39h2M23 39h1M25 39h4M2 40h1M4 40h1M8 40h1M20 40h10M39 40h1M2 41h1M4 41h1M8 41h1M20 41h10M39 41h1M1 42h1M4 42h1M8 42h4M21 42h9M1 43h1M3 43h1M7 43h1M9 43h1M11 43h2M21 43h8M40 43h1M1 44h1M3 44h1M7 44h2M10 44h1M12 44h1M22 44h6M40 44h1M1 45h1M3 45h1M7 45h1M9 45h1M11 45h3M22 45h5M40 45h1M1 46h1M3 46h1M7 46h2M10 46h4M23 46h3M40 46h1M1 47h1M3 47h1M7 47h1M9 47h6M39 47h1" />
<path stroke="#31316b" d="M32 5h1M35 5h1M26 6h2M29 6h1M18 7h1M24 7h5M30 7h1M22 8h6M29 8h1M31 8h1M15 9h1M21 9h8M14 10h1M21 10h6M33 10h3M20 11h5M34 11h4M12 12h1M20 12h4M36 12h4M12 13h1M19 13h4M39 13h4M14 14h1M19 14h4M33 14h1M35 14h1M19 15h3M35 15h1M19 16h1M21 16h1M18 17h1M20 17h1M35 17h1M42 17h1M9 18h2M18 18h2M21 18h1M9 19h1M11 19h1M18 19h1M20 19h1M8 20h1M17 20h3M31 20h1M17 21h2M20 21h1M22 21h1M37 21h1M41 21h1M17 22h1M19 22h1M21 22h1M38 22h3M16 23h3M20 23h1M22 23h1M16 24h2M19 24h1M21 24h1M44 24h2M15 25h2M18 25h1M40 25h1M45 25h1M17 26h1M19 26h1M32 26h1M16 27h1M18 27h1M26 27h1M13 28h1M17 28h1M23 28h1M12 29h1M20 29h1M6 30h1M12 30h1M2 31h1M6 31h2M2 32h6M2 33h6M3 34h4M23 36h1M26 36h1M22 37h1M24 37h1M21 38h1M23 38h1M25 38h1M28 38h1M32 38h1M22 39h1M24 39h1M33 39h3M39 39h1M20 42h1M40 42h1M8 43h1M10 43h1M29 43h1M9 44h1M11 44h1M13 44h1M21 44h1M28 44h1M8 45h1M10 45h1M9 46h1M14 46h1M22 46h1M8 47h1" />
<path stroke="#de7b94" d="M34 13h2M34 14h1M38 14h1M33 15h2M33 16h2M39 16h1M33 17h2M39 17h2M32 18h9M31 19h11M10 20h3M32 20h10M9 21h6M32 21h5M38 21h3M8 22h1M10 22h6M33 22h5M8 23h2M11 23h4M34 23h5M12 24h3M36 24h2M13 25h2M41 25h3M12 26h3M33 26h1M39 26h1M41 26h4M11 27h3M27 27h4M40 27h5M10 28h3M14 28h1M24 28h6M31 28h1M38 28h8M11 29h1M13 29h1M15 29h3M21 29h8M30 29h1M32 29h1M36 29h9M3 30h3M11 30h1M14 30h1M16 30h14M31 30h1M33 30h12M3 31h3M13 31h1M15 31h29M12 32h1M14 32h29M13 33h29M12 34h1M14 34h27M11 35h1M13 35h27M10 36h13M27 36h12M5 37h1M10 37h12M28 37h6M35 37h2M4 38h2M10 38h11M29 38h3M33 38h2M3 39h2M9 39h11M29 39h4M36 39h1M3 40h1M9 40h11M30 40h7M3 41h1M9 41h11M30 41h7M2 42h2M12 42h8M30 42h7M2 43h1M13 43h8M30 43h7M2 44h1M14 44h7M29 44h8M2 45h1M14 45h8M27 45h9M2 46h1M15 46h7M26 46h10M2 47h1M15 47h20" />
</svg>