<svg xmlns="http://www.w3.org/2000/svg" viewBox="0 -0.5 48 48" shape-rendering="crispEdges">
<metadata>Made with Pixels to Svg https://codepen.io/shshaw/pen/XbxvNj</metadata>
<path stroke="#ffffff" d="M0 0h48M0 1h27M29 1h19M0 2h26M27 2h2M30 2h3M36 2h12M0 3h26M27 3h1M31 3h1M33 3h3M37 3h11M0 4h19M22 4h4M27 4h1M33 4h2M38 4h10M0 5h18M19 5h2M24 5h3M34 5h1M38 5h10M0 6h6M11 6h7M19 6h1M26 6h1M34 6h2M39 6h9M0 7h5M6 7h3M15 7h4M35 7h1M39 7h9M0 8h5M6 8h2M35 8h1M40 8h8M0 9h6M36 9h1M40 9h8M0 10h7M36 10h1M41 10h7M0 11h9M41 11h7M0 12h10M29 12h1M42 12h6M0 13h12M27 13h1M42 13h6M0 14h12M25 14h2M43 14h5M0 15h8M21 15h4M43 15h5M0 16h1M20 16h1M22 16h2M31 16h2M44 16h4M1 17h4M19 17h1M21 17h2M31 17h2M44 17h4M1 18h2M18 18h1M20 18h2M31 18h2M44 18h4M0 19h1M19 19h3M32 19h1M45 19h3M0 20h2M18 20h1M20 20h1M32 20h2M45 20h3M0 21h4M17 21h1M19 21h2M33 21h1M45 21h3M0 22h7M18 22h3M33 22h1M46 22h2M0 23h10M17 23h1M19 23h1M46 23h2M0 24h8M16 24h1M18 24h2M45 24h3M0 25h6M8 25h3M15 25h1M17 25h3M45 25h3M0 26h4M6 26h3M16 26h1M18 26h1M45 26h3M0 27h2M4 27h3M15 27h1M17 27h2M44 27h4M0 28h1M2 28h3M16 28h1M44 28h4M0 29h1M2 29h2M17 29h2M45 29h3M0 30h2M16 30h2M45 30h3M0 31h7M13 31h1M15 31h3M45 31h3M0 32h10M14 32h3M44 32h4M0 33h10M13 33h1M15 33h2M44 33h4M0 34h10M12 34h1M14 34h3M44 34h4M0 35h9M13 35h3M43 35h5M0 36h9M12 36h1M14 36h2M43 36h5M0 37h9M13 37h3M42 37h6M0 38h8M12 38h3M42 38h6M0 39h8M11 39h1M13 39h2M41 39h7M0 40h8M12 40h3M41 40h7M0 41h8M11 41h1M40 41h8M0 42h7M13 42h1M40 42h8M0 43h7M11 43h3M39 43h9M0 44h7M10 44h4M32 44h1M34 44h1M39 44h9M0 45h7M9 45h1M11 45h2M34 45h1M38 45h10M0 46h7M10 46h3M33 46h1M35 46h1M37 46h11M0 47h7M9 47h1M11 47h2M35 47h13" />
<path stroke="#7b3131" d="M27 1h1M26 2h1M33 2h1M32 3h1M20 4h2M37 4h1M23 5h1M6 6h1M38 6h1M5 7h1M27 7h2M32 10h2M29 11h1M27 12h1M22 13h1M25 13h1M14 14h1M8 15h2M12 15h2M1 16h2M0 17h1M42 23h1M44 23h1M6 25h1M42 26h1M44 26h1M2 27h2M1 28h1M36 40h1M13 41h6M34 41h2M37 41h1M10 42h3M19 42h3M36 42h1M9 43h1M22 43h2M31 43h1M35 43h1M37 43h1M8 44h1M24 44h2M30 44h1M36 44h1M26 45h1M27 46h1M28 47h1" />
<path stroke="#000000" d="M28 1h1M29 2h1M34 2h2M26 3h1M30 3h1M36 3h1M19 4h1M26 4h1M31 4h2M18 5h1M22 5h1M27 5h1M32 5h2M37 5h1M7 6h4M18 6h1M24 6h2M27 6h1M33 6h1M11 7h4M19 7h1M26 7h1M31 7h3M38 7h1M5 8h1M15 8h6M33 8h1M39 8h1M6 9h1M20 9h1M34 9h1M39 9h1M7 10h2M20 10h1M31 10h1M34 10h1M40 10h1M9 11h1M20 11h1M30 11h1M34 11h1M40 11h1M10 12h2M21 12h1M28 12h1M35 12h1M41 12h1M12 13h1M21 13h1M26 13h1M35 13h1M41 13h1M12 14h1M22 14h3M35 14h1M42 14h1M10 15h2M31 15h3M42 15h1M3 16h5M30 16h1M34 16h1M43 16h1M30 17h1M35 17h1M43 17h1M0 18h1M30 18h1M36 18h1M43 18h1M1 19h1M30 19h1M38 19h1M44 19h1M2 20h2M31 20h1M44 20h1M4 21h3M31 21h1M44 21h1M7 22h3M32 22h1M45 22h1M10 23h2M32 23h1M43 23h1M45 23h1M8 24h3M33 24h1M42 24h3M7 25h1M33 25h1M42 25h3M4 26h2M31 26h2M43 26h1M30 27h1M33 27h2M43 27h1M17 28h3M30 28h1M35 28h1M37 28h1M43 28h1M1 29h1M15 29h2M20 29h3M29 29h1M36 29h1M44 29h1M2 30h5M13 30h2M23 30h3M29 30h1M44 30h1M7 31h4M12 31h1M26 31h2M30 31h1M44 31h1M10 32h2M28 32h3M43 32h1M10 33h1M30 33h2M43 33h1M10 34h1M31 34h1M43 34h1M9 35h1M32 35h1M42 35h1M9 36h1M32 36h1M42 36h1M9 37h1M33 37h1M41 37h1M8 38h1M33 38h1M41 38h1M8 39h1M34 39h1M40 39h1M8 40h1M34 40h1M40 40h1M8 41h1M39 41h1M7 42h1M34 42h1M39 42h1M7 43h1M32 43h1M34 43h1M38 43h1M7 44h1M33 44h1M35 44h1M38 44h1M7 45h1M30 45h1M33 45h1M35 45h1M37 45h1M7 46h1M29 46h1M34 46h1M36 46h1M7 47h1M29 47h1M34 47h1" />
<path stroke="#635ae6" d="M28 3h2M28 4h3M35 4h2M21 5h1M28 5h4M35 5h2M20 6h4M28 6h5M36 6h2M9 7h2M20 7h6M29 7h2M34 7h1M36 7h2M8 8h7M21 8h12M34 8h1M36 8h3M7 9h13M21 9h13M35 9h1M37 9h2M9 10h11M21 10h10M35 10h1M37 10h3M10 11h10M21 11h8M31 11h3M35 11h5M12 12h9M22 12h5M30 12h5M36 12h5M13 13h8M23 13h2M28 13h7M36 13h5M13 14h1M15 14h7M27 14h8M36 14h6M14 15h7M25 15h6M34 15h8M8 16h12M21 16h1M24 16h6M33 16h1M35 16h8M5 17h14M20 17h1M23 17h7M33 17h2M36 17h7M3 18h15M19 18h1M22 18h8M33 18h3M37 18h6M2 19h17M22 19h8M31 19h1M33 19h5M39 19h5M4 20h14M19 20h1M21 20h10M34 20h10M7 21h10M18 21h1M21 21h10M32 21h1M34 21h10M10 22h8M21 22h11M34 22h11M12 23h5M18 23h1M20 23h12M33 23h9M11 24h5M17 24h1M20 24h13M34 24h8M11 25h4M16 25h1M20 25h13M34 25h8M9 26h7M17 26h1M19 26h12M33 26h9M7 27h8M16 27h1M19 27h11M31 27h2M35 27h8M5 28h11M20 28h10M31 28h4M36 28h1M38 28h5M4 29h11M19 29h1M23 29h6M30 29h6M37 29h7M7 30h6M15 30h1M18 30h5M26 30h3M30 30h14M11 31h1M14 31h1M18 31h8M28 31h2M31 31h13M12 32h2M17 32h11M31 32h12M11 33h2M14 33h1M17 33h13M32 33h11M11 34h1M13 34h1M17 34h14M32 34h11M10 35h3M16 35h16M33 35h9M10 36h2M13 36h1M16 36h16M33 36h9M10 37h3M16 37h17M34 37h7M9 38h3M15 38h18M34 38h7M9 39h2M12 39h1M15 39h19M35 39h5M9 40h3M15 40h19M35 40h1M37 40h3M9 41h2M12 41h1M19 41h15M36 41h1M38 41h1M8 42h2M14 42h5M22 42h12M35 42h1M37 42h2M8 43h1M10 43h1M14 43h8M24 43h7M33 43h1M36 43h1M9 44h1M14 44h10M26 44h4M31 44h1M37 44h1M8 45h1M10 45h1M13 45h13M27 45h3M31 45h2M36 45h1M8 46h2M13 46h14M28 46h1M30 46h3M8 47h1M10 47h1M13 47h15M30 47h4" />
</svg>