<svg xmlns="http://www.w3.org/2000/svg" viewBox="0 -0.5 48 48" shape-rendering="crispEdges">
<metadata>Made with Pixels to Svg https://codepen.io/shshaw/pen/XbxvNj</metadata>
<path stroke="#ffffff" d="M0 0h48M0 1h21M23 1h10M34 1h14M0 2h21M22 2h1M25 2h7M33 2h1M35 2h13M0 3h22M23 3h2M27 3h5M33 3h1M36 3h12M0 4h22M23 4h4M29 4h3M33 4h1M37 4h11M0 5h23M24 5h5M31 5h1M33 5h2M37 5h11M0 6h22M24 6h7M33 6h2M38 6h10M0 7h21M22 7h2M25 7h6M33 7h2M38 7h10M0 8h21M23 8h9M34 8h1M39 8h9M0 9h19M21 9h11M39 9h9M0 10h17M19 10h12M38 10h10M0 11h16M17 11h12M40 11h8M0 12h17M19 12h8M41 12h7M0 13h18M24 13h1M43 13h5M0 14h17M44 14h4M0 15h17M45 15h3M0 16h16M45 16h3M0 17h16M45 17h3M0 18h17M44 18h4M0 19h18M43 19h5M0 20h19M44 20h4M0 21h18M43 21h1M45 21h3M0 22h18M45 22h3M0 23h19M45 23h3M0 24h19M45 24h3M0 25h12M16 25h4M44 25h4M0 26h9M12 26h4M18 26h2M44 26h4M0 27h7M9 27h9M43 27h5M0 28h5M7 28h13M43 28h5M0 29h4M5 29h16M42 29h6M0 30h3M4 30h2M7 30h15M41 30h7M0 31h4M6 31h17M40 31h1M42 31h6M0 32h3M4 32h19M40 32h1M42 32h6M0 33h2M3 33h21M40 33h2M43 33h5M0 34h2M3 34h2M6 34h18M40 34h3M44 34h4M0 35h1M2 35h1M5 35h9M17 35h6M41 35h2M44 35h4M0 36h2M5 36h8M17 36h5M41 36h3M45 36h3M0 37h3M4 37h7M18 37h4M42 37h3M46 37h2M0 38h2M3 38h7M18 38h3M42 38h2M45 38h3M0 39h2M3 39h6M19 39h1M43 39h2M46 39h2M0 40h2M3 40h1M5 40h3M44 40h1M46 40h2M0 41h3M46 41h2M0 42h5M45 42h3M0 43h6M44 43h4M0 44h8M44 44h4M0 45h9M43 45h5M0 46h9M43 46h5M0 47h9M42 47h6" />
<path stroke="#ff4a21" d="M21 1h1M24 2h1M32 2h1M26 3h1M28 4h1M30 5h1M19 9h1M17 10h1M35 11h2M33 12h3M39 12h1M31 13h4M29 14h6M42 14h1M22 15h1M28 15h7M43 15h1M27 16h10M41 16h3M17 17h3M27 17h17M18 18h2M24 18h1M26 18h17M23 19h19M22 20h14M37 20h4M42 20h1M19 21h18M38 21h2M41 21h2M19 22h19M40 22h3M20 23h24M20 24h24M21 25h22M22 26h1M24 26h1M26 26h17M23 27h1M25 27h1M28 27h14M24 28h1M26 28h1M30 28h12M23 29h1M32 29h9M24 30h1M26 30h1M30 30h1M34 30h6M4 31h1M25 31h1M27 31h1M31 31h2M35 31h4M41 31h1M32 32h2M36 32h3M2 33h1M28 33h2M34 33h1M36 33h3M26 34h1M28 34h4M35 34h5M43 34h1M4 35h1M27 35h1M31 35h3M35 35h5M26 36h1M33 36h7M15 37h1M26 37h3M34 37h7M26 38h5M34 38h7M26 39h6M33 39h8M25 40h16M43 40h1M4 41h1M25 41h11M37 41h4M24 42h13M38 42h2M43 42h1M24 43h11M36 43h1M38 43h2M23 44h11M35 44h1M38 44h2M22 45h11M34 45h1M36 45h1M38 45h2M10 46h1M23 46h11M35 46h1M37 46h2M10 47h3M24 47h9M34 47h1M37 47h2" />
<path stroke="#000000" d="M22 1h1M33 1h1M21 2h1M23 2h1M34 2h1M22 3h1M25 3h1M32 3h1M35 3h1M22 4h1M27 4h1M32 4h1M36 4h1M23 5h1M29 5h1M32 5h1M36 5h1M22 6h2M31 6h2M37 6h1M21 7h1M24 7h1M37 7h1M21 8h2M38 8h1M20 9h1M38 9h1M18 10h1M37 10h1M16 11h1M33 11h2M37 11h3M17 12h2M31 12h2M36 12h1M40 12h1M18 13h3M29 13h2M35 13h1M41 13h2M17 14h1M20 14h3M28 14h1M35 14h1M43 14h1M17 15h1M21 15h1M23 15h1M27 15h1M44 15h1M16 16h1M20 16h1M22 16h1M26 16h1M44 16h1M16 17h1M20 17h1M23 17h2M26 17h1M44 17h1M17 18h1M25 18h1M43 18h1M18 19h2M42 19h1M19 20h1M36 20h1M41 20h1M43 20h1M18 21h1M37 21h1M40 21h1M44 21h1M18 22h1M38 22h2M43 22h2M19 23h1M44 23h1M19 24h1M44 24h1M12 25h4M20 25h1M43 25h1M9 26h3M16 26h2M20 26h2M23 26h1M25 26h1M43 26h1M7 27h2M18 27h5M24 27h1M26 27h2M42 27h1M5 28h2M20 28h1M25 28h1M27 28h3M42 28h1M4 29h1M21 29h2M29 29h3M41 29h1M3 30h1M22 30h2M25 30h1M27 30h1M31 30h3M40 30h1M23 31h2M26 31h1M28 31h3M33 31h2M39 31h1M3 32h1M23 32h1M26 32h6M34 32h2M39 32h1M41 32h1M24 33h1M30 33h4M35 33h1M39 33h1M42 33h1M2 34h1M24 34h2M27 34h1M32 34h3M1 35h1M25 35h2M28 35h3M34 35h1M40 35h1M43 35h1M2 36h2M25 36h1M27 36h6M40 36h1M44 36h1M3 37h1M25 37h1M29 37h5M41 37h1M45 37h1M2 38h1M14 38h1M25 38h1M31 38h3M41 38h1M44 38h1M2 39h1M13 39h1M25 39h1M32 39h1M41 39h1M45 39h1M2 40h1M4 40h1M12 40h1M24 40h1M41 40h1M45 40h1M3 41h1M12 41h1M24 41h1M36 41h1M41 41h1M43 41h1M45 41h1M5 42h1M7 42h1M11 42h1M23 42h1M37 42h1M40 42h1M44 42h1M6 43h2M9 43h2M23 43h1M37 43h1M40 43h1M43 43h1M8 44h1M22 44h1M37 44h1M40 44h1M43 44h1M9 45h2M21 45h1M37 45h1M40 45h1M42 45h1M9 46h1M11 46h2M19 46h2M36 46h1M39 46h1M42 46h1M9 47h1M13 47h6M36 47h1M39 47h1M41 47h1" />
<path stroke="#ffbd3a" d="M34 3h1M34 4h2M35 5h1M35 6h2M31 7h2M35 7h2M32 8h2M35 8h3M32 9h6M31 10h6M29 11h4M27 12h4M37 12h2M21 13h3M25 13h4M36 13h5M18 14h2M23 14h5M36 14h6M18 15h3M24 15h3M35 15h8M17 16h3M21 16h1M23 16h3M37 16h4M21 17h2M25 17h1M20 18h4M20 19h3M20 20h2M21 28h3M24 29h5M6 30h1M28 30h2M5 31h1M24 32h2M25 33h3M5 34h1M3 35h1M14 35h3M23 35h2M4 36h1M13 36h4M22 36h3M11 37h4M16 37h2M22 37h3M10 38h4M15 38h3M21 38h4M9 39h4M14 39h5M20 39h5M42 39h1M8 40h4M13 40h11M42 40h1M5 41h7M13 41h11M42 41h1M44 41h1M6 42h1M8 42h3M12 42h11M41 42h2M8 43h1M11 43h12M35 43h1M41 43h2M9 44h13M34 44h1M36 44h1M41 44h2M11 45h10M33 45h1M35 45h1M41 45h1M13 46h6M21 46h2M34 46h1M40 46h2M19 47h5M33 47h1M35 47h1M40 47h1" />
</svg>