<svg xmlns="http://www.w3.org/2000/svg" viewBox="0 -0.5 80 80" shape-rendering="crispEdges">
<metadata>Made with Pixels to Svg https://codepen.io/shshaw/pen/XbxvNj</metadata>
<path stroke="#101010" d="M40 25h4M34 26h3M39 26h1M44 26h1M32 27h1M37 27h1M45 27h1M31 28h1M31 29h1M50 31h1M51 32h1M51 33h1M52 34h1M26 35h1M52 35h1M26 36h1M30 36h1M26 37h1M28 37h2M53 37h1M24 38h3M37 38h2M53 38h1M23 39h1M39 39h3M46 39h1M53 39h1M22 40h1M34 40h1M39 40h1M42 40h2M46 40h1M53 40h1M22 41h1M24 41h2M34 41h1M46 41h1M52 41h1M22 42h1M25 42h2M35 42h1M52 42h1M22 43h2M45 43h1M51 43h1M23 44h2M37 44h1M43 44h2M51 44h1M25 45h3M50 45h1M28 46h3M49 46h1M31 47h1M48 47h1M47 48h1M47 49h1M46 50h1M31 51h1M46 51h1M31 52h1M42 52h1M31 53h1M42 53h1M45 53h1M16 54h2M31 54h1M42 54h1M45 54h1M30 55h1M48 55h4M30 56h1M35 56h2M41 56h1M46 56h2M53 56h1M59 56h2M27 57h1M34 57h1M37 57h1M41 57h1M48 57h1M54 57h1M58 57h1M15 58h1M18 58h1M24 58h3M33 58h1M41 58h1M53 58h3M16 59h2M33 59h1M41 59h1M62 59h1M62 60h1M42 61h1M62 61h1M62 62h1M30 63h1M37 63h2M47 63h1M61 63h1M18 64h1M31 64h1M36 64h1M39 64h1M47 64h1M60 64h1M19 65h2M32 65h2M35 65h1M47 65h1M49 65h1M58 65h2M21 66h4M34 66h2M46 66h1M48 66h1M52 66h6M36 67h1M46 67h2M37 68h2M44 68h2M39 69h5" />
<path stroke="#5a2129" d="M37 26h2M37 28h1M46 28h2M30 29h1M37 29h1M48 29h1M29 30h1M37 30h1M49 30h1M28 31h1M31 31h1M28 32h1M32 32h3M27 33h1M27 34h1M40 34h3M38 35h2M43 35h2M31 36h2M37 36h1M45 36h1M52 36h1M33 37h1M36 37h1M45 37h1M27 38h1M33 38h1M36 38h1M39 38h1M46 38h1M33 39h1M25 40h1M26 41h1M24 42h1M45 42h1M25 43h1M35 43h1M36 44h1M38 45h5M29 47h1M32 47h1M30 48h1M30 49h1M20 50h4M31 50h1M18 51h2M24 51h1M39 51h3M17 52h1M24 52h1M37 52h2M45 52h1M16 53h1M23 53h1M30 53h1M36 53h1M46 53h3M23 54h1M29 54h1M35 54h1M49 54h1M22 55h1M28 55h1M34 55h1M41 55h1M45 55h1M22 56h1M28 56h1M34 56h1M52 56h1M22 57h2M29 57h1M33 57h1M61 57h1M22 58h1M29 58h1M52 58h1M58 58h1M61 58h1M23 59h1M29 59h1M42 59h3M50 59h2M56 59h2M16 60h1M24 60h2M29 60h1M33 60h1M41 60h1M45 60h1M16 61h1M29 61h1M33 61h1M46 61h1M30 62h1M33 62h1M42 62h1M46 62h1M34 63h1M43 63h1M55 63h1M28 64h3M34 64h1M49 64h1M26 65h2M34 65h1M50 65h2" />
<path stroke="#efe6ad" d="M40 26h4M34 27h1M33 28h3M32 29h3M16 55h2M15 56h3M15 57h2M35 57h2M34 58h4M34 59h3M19 61h2M18 62h3M18 63h2M56 63h2M37 64h2M55 64h1M36 65h3M36 66h3" />
<path stroke="#524210" d="M33 27h1M36 27h1M39 27h2M32 28h1M41 28h4M31 30h1M32 31h1M35 31h2M15 55h1M18 55h1M14 56h1M19 56h1M14 57h1M19 57h1M38 58h1M38 59h1M61 59h1M19 60h2M34 60h1M37 60h1M60 60h1M18 61h1M21 61h1M35 61h2M60 61h1M17 62h1M22 62h1M56 62h2M60 62h1M17 63h1M22 63h1M58 63h1M21 64h1M59 64h1M40 65h1M55 65h1M40 66h1M39 67h1" />
<path stroke="#c59c5a" d="M35 27h1M41 27h4M36 28h1M35 29h2M32 30h5M33 31h2M18 56h1M17 57h2M16 58h2M37 59h1M35 60h2M61 60h1M61 61h1M21 62h1M61 62h1M20 63h2M19 64h2M56 64h3M39 65h1M56 65h2M39 66h1M37 67h2" />
<path stroke="#e65a4a" d="M38 27h1M38 28h3M45 28h1M38 29h9M30 30h1M38 30h10M29 31h2M37 31h12M29 32h3M36 32h13M28 33h21M28 34h12M43 34h6M27 35h11M40 35h3M45 35h3M27 36h3M33 36h4M38 36h6M46 36h2M27 37h1M30 37h3M34 37h2M37 37h8M46 37h1M28 38h5M34 38h2M40 38h6M24 39h9M34 39h3M42 39h4M23 40h2M26 40h5M35 40h2M44 40h2M23 41h1M35 41h2M44 41h2M23 42h1M36 42h2M43 42h2M24 43h1M36 43h3M42 43h3M38 44h5M46 45h1M48 45h1M45 46h1M47 46h1M46 47h1M20 51h4M18 52h4M32 52h2M39 52h3M17 53h3M32 53h3M37 53h5M18 54h1M30 54h1M32 54h3M36 54h5M29 55h1M31 55h3M35 55h4M29 56h1M31 56h3M37 56h1M48 56h4M28 57h1M30 57h3M51 57h2M59 57h1M27 58h2M30 58h3M59 58h1M18 59h1M27 59h2M30 59h3M52 59h4M58 59h2M17 60h2M30 60h3M52 60h7M17 61h1M30 61h3M34 61h1M31 62h2M34 62h3M23 63h1M35 63h2M22 64h4M35 64h1M48 64h1M21 65h4M48 65h1" />
<path stroke="#a53110" d="M47 29h1M48 30h1M49 31h1M35 32h1M49 32h2M49 33h2M49 34h3M48 35h4M44 36h1M48 36h4M47 37h6M47 38h6M47 39h6M31 40h3M47 40h6M27 41h7M47 41h5M27 42h8M46 42h6M26 43h9M46 43h5M25 44h11M45 44h6M28 45h10M43 45h3M47 45h1M49 45h1M31 46h14M46 46h1M48 46h1M30 47h1M33 47h13M47 47h1M31 48h16M31 49h16M32 50h14M32 51h7M42 51h4M22 52h2M34 52h3M43 52h2M20 53h3M35 53h1M43 53h2M19 54h4M41 54h1M43 54h2M46 54h3M19 55h3M39 55h2M42 55h3M46 55h2M20 56h2M38 56h3M42 56h4M20 57h2M38 57h3M42 57h6M49 57h2M53 57h1M60 57h1M19 58h3M23 58h1M39 58h2M42 58h10M60 58h1M19 59h4M24 59h3M39 59h2M45 59h5M60 59h1M21 60h3M26 60h3M38 60h3M42 60h3M46 60h6M59 60h1M22 61h7M37 61h5M43 61h3M47 61h13M23 62h7M37 62h5M43 62h3M47 62h9M58 62h2M24 63h6M31 63h3M39 63h4M44 63h3M48 63h7M59 63h2M26 64h2M32 64h2M40 64h7M50 64h5M25 65h1M41 65h6M52 65h3M41 66h5M47 66h1M40 67h6M39 68h5" />
<path stroke="#5a5a5a" d="M37 39h1M37 40h1M37 41h1M43 41h1M38 42h1M42 42h1M39 43h3" />
<path stroke="#ffffff" d="M38 39h1M38 40h1M40 40h2M38 41h5M39 42h3" />
</svg>