<svg xmlns="http://www.w3.org/2000/svg" viewBox="0 -0.5 80 80" shape-rendering="crispEdges">
<metadata>Made with Pixels to Svg https://codepen.io/shshaw/pen/XbxvNj</metadata>
<path stroke="#4a4a8c" d="M26 5h3M29 6h2M31 7h2M27 8h1M33 8h2M35 9h2M39 10h1M28 11h1M39 11h1M29 13h1M43 13h1M27 14h1M29 14h1M26 15h1M28 15h1M25 16h1M46 16h1M25 17h1M42 17h1M48 17h1M48 18h1M31 19h1M45 19h1M28 20h1M35 20h1M43 20h1M49 20h1M33 21h1M51 21h1M45 22h1M48 22h1M52 22h2M52 23h3M27 24h1M36 24h1M53 24h2M28 25h2M34 25h2M31 26h3M57 27h1M12 29h3M27 29h5M15 30h2M28 30h2M60 30h1M9 31h1M17 31h2M28 31h2M42 31h2M50 31h1M17 32h3M28 32h2M43 32h3M47 32h1M51 32h1M6 33h1M10 33h2M16 33h1M18 33h1M27 33h3M43 33h4M52 33h1M55 33h1M9 34h1M13 34h4M18 34h1M21 34h1M26 34h5M43 34h5M63 34h1M7 35h2M13 35h3M17 35h1M21 35h2M25 35h6M43 35h5M51 35h1M64 35h1M11 36h2M16 36h2M20 36h2M25 36h4M43 36h5M50 36h2M57 36h1M62 36h1M9 37h1M12 37h5M20 37h2M24 37h3M42 37h6M50 37h1M59 37h2M8 38h2M14 38h2M19 38h2M24 38h2M41 38h6M53 38h1M57 38h1M61 38h1M18 39h2M23 39h2M39 39h8M49 39h1M58 39h1M22 40h2M38 40h8M59 40h1M38 41h7M48 41h1M59 41h1M37 42h8M58 42h2M37 43h3M43 43h1M53 43h1M55 43h1M57 43h1M52 44h7M42 45h1M51 45h3M55 45h4M51 46h2M55 46h2M43 47h1M34 48h1M51 48h1M51 49h2M51 50h2M51 51h2M27 52h2M33 52h4M50 52h3M27 53h12M44 53h1M49 53h4M27 54h10M45 54h8M28 55h6M46 55h6M30 56h2M48 56h2M52 56h1M31 57h3M36 57h2M51 57h3M56 57h1M32 58h3M36 58h2M52 58h2M55 58h2M33 59h5M53 59h2M56 59h1M30 60h6M53 60h4M36 61h1M57 61h1M23 62h2M35 62h2M23 63h1M29 63h1M35 63h1M31 64h1M48 64h1M29 65h3M58 65h1M48 66h2M56 66h2" />
<path stroke="#101010" d="M26 6h1M26 7h1M26 8h1M27 9h1M27 10h1M37 10h2M27 11h1M40 11h2M28 12h1M42 12h2M28 13h1M44 13h1M45 14h1M46 15h1M47 16h1M37 17h1M24 18h1M37 18h1M24 19h1M49 19h1M50 20h1M23 21h1M50 21h1M24 22h1M30 22h3M51 22h1M25 23h2M29 23h1M33 23h4M40 23h2M51 23h1M25 24h1M37 24h3M52 24h1M26 25h1M53 25h3M27 26h1M56 26h2M28 27h1M58 27h1M28 28h4M59 28h1M60 29h1M10 30h2M27 30h1M30 30h1M61 30h2M4 31h3M8 31h1M27 31h1M30 31h1M41 31h1M63 31h2M3 32h1M7 32h1M20 32h1M27 32h1M30 32h1M42 32h1M65 32h1M17 33h1M21 33h2M26 33h1M30 33h1M42 33h1M56 33h5M62 33h1M66 33h1M6 34h1M10 34h1M12 34h1M17 34h1M23 34h1M25 34h1M31 34h1M42 34h1M52 34h4M66 34h1M6 35h1M9 35h1M12 35h1M16 35h1M24 35h1M31 35h1M42 35h1M52 35h1M57 35h3M7 36h3M13 36h3M24 36h1M29 36h2M32 36h1M42 36h1M52 36h1M54 36h3M7 37h2M10 37h2M27 37h2M33 37h2M41 37h1M52 37h2M7 38h1M10 38h1M13 38h1M26 38h1M35 38h2M49 38h3M63 38h1M7 39h3M14 39h4M25 39h1M37 39h2M48 39h1M63 39h1M18 40h3M24 40h1M37 40h1M47 40h2M61 40h2M21 41h3M37 41h1M47 41h1M60 41h2M36 42h1M47 42h1M53 42h1M60 42h1M36 43h1M52 43h1M58 43h2M35 44h1M51 44h1M59 44h1M34 45h1M46 45h1M50 45h1M54 45h1M59 45h1M33 46h1M46 46h1M50 46h1M53 46h2M57 46h2M47 47h1M49 47h1M51 47h2M55 47h3M47 48h1M49 48h1M52 48h1M48 49h1M53 49h1M42 50h1M53 50h1M36 51h1M42 51h1M53 51h1M37 52h2M53 52h1M39 53h5M53 53h1M37 54h2M53 54h1M27 55h1M35 55h2M45 55h1M53 55h1M28 56h1M34 56h1M38 56h1M46 56h1M53 56h1M29 57h2M34 57h1M38 57h1M48 57h3M54 57h1M57 57h1M31 58h1M35 58h1M38 58h1M57 58h1M32 59h1M38 59h1M57 59h1M28 60h2M52 60h1M26 61h2M37 61h1M51 61h2M58 61h1M25 62h1M37 62h1M50 62h2M58 62h1M36 63h1M48 63h2M52 63h1M56 63h3M23 64h3M28 64h1M34 64h2M47 64h1M50 64h2M54 64h1M58 64h2M25 65h4M32 65h2M47 65h1M50 65h1M55 65h1M59 65h1M29 66h3M47 66h1M50 66h1M55 66h1M58 66h2M48 67h4M54 67h5M51 68h4" />
<path stroke="#6b73d6" d="M27 6h2M27 7h4M28 8h5M28 9h7M28 10h9M29 11h10M29 12h13M30 13h13M31 14h14M32 15h7M41 15h5M32 16h5M41 16h5M31 17h3M43 17h5M25 18h2M30 18h4M44 18h4M26 19h5M41 19h1M46 19h3M27 20h1M40 20h3M47 20h2M34 21h8M43 21h2M48 21h2M38 22h2M42 22h3M49 22h2M42 23h4M49 23h2M26 24h1M40 24h6M27 25h1M36 25h10M28 26h3M34 26h12M51 26h1M54 26h2M29 27h18M50 27h1M55 27h2M37 28h10M55 28h4M39 29h8M54 29h6M12 30h3M41 30h6M50 30h1M53 30h7M10 31h7M44 31h3M51 31h12M8 32h9M46 32h1M52 32h13M7 33h3M14 33h2M47 33h1M53 33h2M61 33h1M63 33h3M7 34h2M64 34h2M58 36h4M61 37h2M54 38h3M62 38h1M50 39h8M62 39h1M49 40h1M53 40h6M54 41h5M54 42h4M40 43h3M54 43h1M56 43h1M37 44h6M36 45h6M45 45h1M36 46h6M44 46h2M32 47h2M38 47h4M44 47h3M50 47h1M30 48h4M43 48h4M50 48h1M29 49h6M43 49h5M49 49h2M28 50h7M43 50h8M28 51h8M43 51h8M29 52h4M44 52h6M45 53h4M36 60h1M33 61h3M34 62h1M30 63h2M29 64h2M49 64h1M56 64h2M48 65h2M56 65h2" />
<path stroke="#849cff" d="M28 14h1M30 14h1M27 15h1M29 15h3M26 16h6M26 17h5M27 18h3M52 26h2M51 27h4M50 28h5M50 29h4M51 30h2" />
<path stroke="#313142" d="M39 15h1M37 16h2M40 16h1M35 17h2M40 17h2M34 18h1M40 18h4M25 19h1M32 19h4M39 19h2M42 19h3M24 20h3M29 20h6M36 20h4M44 20h3M51 20h1M25 21h5M45 21h3M52 21h2M27 22h2M46 22h2M54 22h1M24 23h1M46 23h3M55 23h1M46 24h6M55 24h1M46 25h7M46 26h5M47 27h3M47 28h3M47 29h3M47 30h3M47 31h3M48 32h3M12 33h2M19 33h2M48 33h4M11 34h1M19 34h2M22 34h1M48 34h4M61 34h2M10 35h2M18 35h3M23 35h1M48 35h3M60 35h4M65 35h1M10 36h1M18 36h2M22 36h2M48 36h2M63 36h3M17 37h3M22 37h2M48 37h2M51 37h1M54 37h5M63 37h2M16 38h3M21 38h3M39 38h2M47 38h2M52 38h1M58 38h3M20 39h3M47 39h1M59 39h3M21 40h1M46 40h1M60 40h1M45 41h2M45 42h2M44 43h3M36 44h1M43 44h4M35 45h1M43 45h2M32 46h1M34 46h2M42 46h2M30 47h2M34 47h2M42 47h1M29 48h1M35 48h1M42 48h1M28 49h1M35 49h2M42 49h1M27 50h1M35 50h2M27 51h1M26 52h1M43 52h1M26 53h1M26 54h1M44 54h1M34 55h1M29 56h1M32 56h2M36 56h2M47 56h1M35 57h1M30 59h2M37 60h2M57 60h2M23 61h3M28 61h5M53 61h4M22 62h1M29 62h2M52 62h6M22 63h1M24 63h1M33 63h2M50 63h2M53 63h3M32 64h2M55 64h1" />
<path stroke="#525252" d="M40 15h1M34 17h1M31 62h3M32 63h1" />
<path stroke="#b58c19" d="M39 16h1M39 18h1M36 19h1M38 19h1" />
<path stroke="#ffd619" d="M38 17h2M35 18h2M38 18h1M37 19h1" />
<path stroke="#e6525a" d="M24 21h1M30 21h3M42 21h1M25 22h2M29 22h1M33 22h5M40 22h2M27 23h2M37 23h3M5 29h5M32 29h1M35 29h2M3 30h7M31 30h2M35 30h4M31 31h10M31 32h10M31 33h10M32 34h1M34 34h5M40 34h1M33 35h1M35 35h3M39 35h1M41 35h1M40 36h1M50 41h3M49 42h4M48 43h3M47 44h3M47 45h2M48 46h1M26 62h3M25 63h2M52 64h2M51 65h4M51 66h2" />
<path stroke="#9c3a3a" d="M23 22h1M5 28h5M32 28h5M3 29h2M10 29h2M37 29h2M2 30h1M39 30h2M2 31h2M7 31h1M2 32h1M41 32h1M41 33h1M33 34h1M39 34h1M41 34h1M32 35h1M34 35h1M38 35h1M40 35h1M33 36h7M41 36h1M35 37h6M37 38h2M50 40h3M49 41h1M53 41h1M48 42h1M47 43h1M51 43h1M50 44h1M49 45h1M47 46h1M49 46h1M48 47h1M48 48h1M27 63h2M26 64h2M53 66h2M52 67h2" />
<path stroke="#b5b5c5" d="M30 23h1M32 23h1M28 24h1M30 24h1M33 24h1M31 25h1M37 50h1M38 51h4M40 52h3" />
<path stroke="#ffffff" d="M31 23h1M29 24h1M31 24h2M34 24h2M30 25h1M32 25h2M36 47h2M37 48h5M39 49h3" />
<path stroke="#ff9ca5" d="M33 29h2M33 30h2" />
<path stroke="#7b7b8c" d="M36 48h1M37 49h2M38 50h4M37 51h1M39 52h1" />
<path stroke="#3a3a52" d="M52 55h1M50 56h2M56 56h2M55 57h1M51 58h1M54 58h1M52 59h1M55 59h1" />
</svg>