<svg xmlns="http://www.w3.org/2000/svg" viewBox="0 -0.5 80 80" shape-rendering="crispEdges">
<metadata>Made with Pixels to Svg https://codepen.io/shshaw/pen/XbxvNj</metadata>
<path stroke="#8c7310" d="M21 14h2M23 15h2M40 15h2M39 16h1M38 17h1M23 18h1M41 18h1M23 19h1M40 19h1M24 20h1M29 20h1M39 20h1M24 21h1M30 21h3M39 21h1M38 22h1M55 22h1M24 23h1M39 23h2M57 23h1M61 23h1M62 25h1M39 26h1M23 27h1M23 28h1M23 29h1M25 29h1M23 30h1M26 30h1M37 30h1M36 31h2M27 32h1M33 32h1M50 32h2M27 33h1M30 33h1M48 33h1M18 34h3M27 34h1M30 34h1M19 35h1M30 35h1M33 35h1M30 36h1M61 36h1M9 37h1M30 37h1M32 37h2M62 37h1M63 38h1M30 39h1M19 40h1M19 41h1M55 42h1M18 43h1M18 44h1M43 44h1M18 45h1M43 45h1M19 46h1M22 46h1M41 46h1M43 46h1M19 47h1M28 47h1M39 47h1M41 47h2M20 48h1M27 48h1M39 48h1M42 48h1M20 49h1M22 49h1M39 49h1M21 50h1M24 50h1M33 50h1M24 51h1M33 51h1M48 51h1M23 52h1M47 52h1M38 53h1M46 53h1M46 54h1M21 55h1M21 56h1M26 56h1M23 60h2" />
<path stroke="#634a08" d="M42 14h2M21 15h1M21 16h1M25 16h1M26 17h1M27 18h1M37 18h1M43 18h1M22 19h1M27 19h1M35 19h2M28 20h1M33 20h2M56 21h2M23 22h1M62 22h2M64 23h1M60 24h1M22 26h1M64 26h1M39 27h1M65 27h1M24 28h1M36 28h3M57 28h1M34 29h2M56 29h1M32 30h1M31 31h1M31 32h1M8 33h2M7 34h1M54 34h1M7 35h1M34 35h1M58 35h3M8 36h1M35 36h1M50 36h2M7 37h1M49 37h1M27 38h1M33 38h1M48 38h1M27 39h1M32 39h1M64 39h1M8 40h1M25 40h1M28 40h1M31 40h1M24 41h1M65 41h1M18 42h1M24 42h1M23 43h1M56 43h1M31 44h1M37 44h1M57 44h1M66 44h1M38 45h1M57 45h1M29 46h1M38 46h1M58 46h1M67 46h1M30 47h1M58 47h1M73 47h2M26 48h1M30 48h1M58 48h1M72 48h1M75 48h1M25 49h1M35 50h2M73 50h1M34 51h1M25 52h2M35 52h1M38 52h1M59 52h1M22 53h1M27 53h1M32 53h1M58 53h1M60 53h1M70 53h1M22 54h1M33 54h1M45 54h1M63 54h1M67 54h1M46 57h1M23 58h1M29 58h1M47 58h1M19 59h1M22 59h1M48 59h1M50 60h1M53 60h1M48 61h1M50 61h1M22 62h1M53 64h1M54 65h1M47 66h1" />
<path stroke="#ffef29" d="M22 15h1M42 15h1M22 16h2M40 16h3M23 17h2M39 17h3M24 18h2M38 18h1M40 18h1M42 18h1M24 19h3M37 19h1M39 19h1M25 20h3M35 20h1M38 20h1M25 21h5M33 21h2M38 21h1M41 21h1M25 22h2M33 22h5M56 22h3M29 23h1M32 23h7M58 23h1M62 23h2M24 24h1M30 24h10M59 24h1M62 24h2M23 25h2M28 25h1M30 25h8M39 25h1M63 25h1M24 26h1M26 26h1M32 26h7M22 27h1M25 27h1M27 27h1M31 27h7M22 28h1M25 28h3M29 28h1M31 28h4M58 28h2M21 29h2M26 29h7M57 29h5M21 30h2M27 30h4M56 30h5M22 31h3M28 31h3M56 31h4M23 32h3M28 32h2M14 33h2M25 33h2M28 33h2M8 34h2M13 34h3M26 34h1M28 34h2M8 35h3M12 35h2M28 35h2M9 36h1M28 36h2M52 36h2M58 36h2M8 37h1M25 37h1M28 37h2M50 37h5M57 37h5M23 38h2M28 38h2M46 38h2M49 38h14M21 39h4M38 39h2M50 39h14M20 40h5M38 40h3M55 40h9M20 41h4M37 41h4M45 41h2M57 41h7M19 42h5M38 42h4M44 42h5M61 42h4M21 43h2M39 43h3M43 43h5M63 43h2M39 44h2M44 44h2M64 44h1M44 45h1M64 45h2M65 46h2M29 47h1M66 47h1M28 48h2M26 49h4M43 49h2M25 50h4M43 50h4M25 51h3M35 51h2M44 51h4M24 52h1M45 52h2M23 53h4M45 53h1M47 53h2M23 54h4M47 54h3M22 55h4M47 55h3M23 56h2M47 56h3M47 57h4M48 58h3M23 59h2M28 59h1M20 60h3M21 61h1M23 61h3M49 61h1M25 62h1M49 62h3M49 63h3M48 64h3M48 65h1" />
<path stroke="#101010" d="M43 15h1M43 16h1M21 17h1M43 17h1M21 18h1M42 19h1M22 20h1M42 20h1M22 21h1M42 21h1M58 21h1M41 22h1M59 22h1M10 23h4M23 23h1M41 23h1M59 23h1M9 24h1M14 24h1M23 24h1M57 24h1M64 24h1M9 25h1M14 25h1M55 25h2M64 25h1M8 26h1M15 26h1M42 26h1M57 26h1M63 26h1M8 27h1M15 27h1M43 27h1M57 27h1M62 27h1M8 28h1M15 28h1M44 28h1M61 28h1M65 28h1M8 29h1M15 29h1M37 29h1M44 29h1M55 29h1M65 29h1M9 30h1M14 30h1M25 30h1M33 30h1M44 30h1M53 30h2M64 30h1M9 31h1M14 31h1M21 31h1M25 31h1M33 31h1M43 31h1M50 31h3M64 31h1M10 32h1M13 32h3M22 32h1M41 32h2M47 32h3M53 32h1M62 32h2M16 33h5M23 33h2M39 33h2M45 33h3M54 33h4M59 33h3M10 34h1M17 34h1M21 34h2M25 34h1M37 34h2M41 34h4M48 34h3M59 34h1M11 35h1M17 35h1M20 35h4M26 35h1M36 35h1M43 35h1M51 35h3M10 36h1M15 36h2M19 36h1M24 36h2M36 36h1M43 36h1M54 36h1M57 36h1M10 37h1M13 37h2M17 37h2M23 37h2M27 37h1M37 37h2M44 37h4M55 37h2M7 38h1M11 38h1M14 38h1M17 38h1M21 38h2M26 38h1M34 38h1M39 38h1M44 38h1M8 39h2M14 39h1M16 39h1M20 39h1M25 39h1M35 39h1M40 39h1M44 39h1M10 40h4M36 40h1M41 40h1M44 40h1M64 40h1M9 41h1M13 41h3M26 41h1M36 41h1M41 41h1M44 41h1M10 42h2M14 42h1M26 42h1M37 42h1M42 42h2M65 42h1M14 43h1M27 43h1M31 43h7M42 43h1M65 43h1M15 44h1M23 44h1M28 44h3M38 44h1M12 45h1M15 45h1M23 45h1M29 45h1M66 45h1M13 46h2M20 46h1M68 46h1M20 47h1M22 47h1M43 47h1M69 47h2M22 48h1M41 48h1M44 48h2M71 48h1M31 49h1M41 49h1M46 49h2M58 49h1M74 49h1M32 50h1M39 50h3M48 50h1M58 50h1M31 51h1M37 51h2M41 51h1M49 51h2M58 51h1M71 51h2M29 52h2M32 52h1M42 52h1M51 52h1M57 52h1M28 53h1M36 53h2M43 53h1M52 53h1M57 53h1M61 53h2M68 53h2M28 54h1M44 54h1M52 54h1M56 54h1M64 54h3M28 55h1M34 55h1M45 55h1M53 55h1M55 55h1M27 56h1M35 56h1M45 56h1M53 56h2M22 57h1M27 57h1M36 57h2M53 57h1M27 58h2M38 58h3M52 58h1M20 59h2M32 59h1M41 59h7M52 59h3M30 60h2M49 60h1M55 60h1M22 61h1M29 61h2M56 61h1M27 62h2M48 62h1M57 62h1M16 63h6M27 63h1M48 63h1M57 63h1M25 64h2M47 64h1M52 64h1M58 64h1M24 65h2M47 65h1M52 65h1M58 65h1M21 66h3M51 66h1M58 66h1M51 67h1M58 67h1M48 68h1M50 68h1M57 68h2M49 69h1" />
<path stroke="#d6bd08" d="M24 16h1M22 17h1M25 17h1M42 17h1M22 18h1M26 18h1M41 19h1M23 20h1M40 20h2M23 21h1M40 21h1M24 22h1M39 22h2M40 24h1M58 24h1M61 24h1M38 25h1M40 25h2M57 25h3M23 26h1M40 26h2M58 26h2M24 27h1M38 27h1M40 27h3M58 27h2M63 27h2M21 28h1M35 28h1M39 28h5M60 28h1M62 28h3M33 29h1M38 29h6M62 29h3M31 30h1M38 30h6M61 30h3M27 31h1M38 31h5M60 31h4M26 32h1M30 32h1M34 32h7M52 32h1M56 32h6M10 33h1M31 33h8M49 33h5M58 33h1M16 34h1M31 34h6M51 34h3M55 34h4M14 35h3M18 35h1M27 35h1M31 35h2M35 35h1M54 35h4M14 36h1M17 36h2M26 36h2M31 36h4M55 36h2M60 36h1M15 37h2M26 37h1M31 37h1M34 37h3M8 38h3M15 38h2M25 38h1M30 38h3M35 38h4M10 39h2M15 39h1M28 39h2M31 39h1M36 39h2M9 40h1M14 40h2M29 40h2M37 40h1M52 40h3M10 41h1M53 41h4M64 41h1M54 42h1M56 42h5M38 43h1M48 43h2M54 43h2M57 43h6M20 44h1M32 44h5M46 44h5M55 44h2M58 44h6M65 44h1M30 45h2M33 45h1M35 45h1M37 45h1M41 45h1M45 45h6M55 45h2M58 45h6M30 46h2M33 46h1M35 46h1M37 46h1M44 46h8M56 46h2M59 46h6M31 47h1M37 47h2M44 47h8M56 47h2M59 47h7M67 47h2M31 48h2M34 48h1M36 48h3M43 48h1M46 48h6M56 48h2M59 48h12M73 48h2M30 49h1M32 49h7M42 49h1M45 49h1M48 49h4M56 49h2M59 49h15M29 50h3M34 50h1M37 50h2M42 50h1M47 50h1M49 50h3M56 50h2M59 50h14M28 51h3M32 51h1M39 51h2M42 51h2M51 51h1M56 51h2M59 51h12M27 52h2M33 52h2M36 52h2M39 52h3M43 52h2M48 52h3M56 52h1M58 52h1M60 52h11M33 53h3M39 53h4M44 53h1M49 53h3M55 53h2M63 53h5M27 54h1M34 54h10M50 54h2M55 54h1M26 55h2M35 55h10M46 55h1M50 55h3M54 55h1M22 56h1M25 56h1M36 56h9M46 56h1M50 56h3M23 57h4M38 57h8M51 57h2M24 58h3M41 58h6M51 58h1M25 59h3M49 59h3M25 60h5M51 60h2M54 60h1M20 61h1M26 61h3M51 61h5M20 62h2M26 62h1M52 62h5M26 63h1M52 63h5M51 64h1M54 64h2M51 65h1" />
<path stroke="#ffffbd" d="M39 18h1M38 19h1M36 20h2M35 21h3M27 22h6M25 23h4M30 23h2M25 24h4M25 25h3M25 26h1M26 27h1M19 43h2M19 44h1M21 44h2M41 44h2M19 45h1M21 45h2M39 45h2M42 45h1M21 46h1M39 46h2M42 46h1M21 47h1M40 47h1M21 48h1M40 48h1M21 49h1M40 49h1" />
<path stroke="#5a3a08" d="M43 23h6M41 24h2M49 24h2M18 25h5M42 25h1M51 25h1M17 26h1M52 26h1M16 27h1M21 27h1M52 27h1M16 28h1M53 28h1M54 29h1M42 37h2M41 38h3M41 39h3M42 40h2M42 41h2" />
<path stroke="#5a5a5a" d="M54 23h1M10 24h1M13 24h1M54 24h1M54 25h1M60 25h1M60 26h1M60 27h1M13 33h1M12 34h1M13 38h1M11 41h2M11 43h1M12 44h1M30 58h2M29 59h1M18 60h2M17 61h1M16 62h1M23 62h2M22 63h1M25 63h1M21 64h1M56 64h2M21 65h1M49 65h2M55 65h1M48 66h1M55 66h1M48 67h1M56 67h1" />
<path stroke="#ffffff" d="M55 23h2M55 24h1M11 25h1M61 25h1M10 26h2M61 26h1M10 27h1M61 27h1M10 28h1M24 29h1M24 30h1M34 30h3M26 31h1M34 31h2M53 31h3M11 36h2M11 37h1M12 39h2M18 61h2M17 62h2M23 63h2M22 64h2M22 65h1M56 65h1M49 66h2M56 66h2M49 67h1M57 67h1M49 68h1" />
<path stroke="#b5b5b5" d="M11 24h2M9 26h1M14 26h1M9 27h1M14 27h1M9 28h1M14 28h1M9 29h1M14 29h1M55 30h1M10 31h1M13 31h1M32 31h1M11 32h2M32 32h1M11 33h2M11 34h1M12 42h2M12 43h2M13 44h2M13 45h2" />
<path stroke="#e63a29" d="M29 24h1M29 25h1M27 26h5M28 27h3M28 28h1M30 28h1M32 45h1M34 45h1M36 45h1M32 46h1M34 46h1M36 46h1M32 47h5M33 48h1M35 48h1" />
<path stroke="#7b5208" d="M43 24h2M43 25h1M43 26h1M51 26h1M44 27h2M50 27h2M45 28h8M45 29h9M15 30h1M45 30h8M15 31h1M44 31h6M16 32h6M43 32h4M21 33h2M41 33h4M23 34h2M39 34h2M24 35h2M37 35h6M37 36h6M39 37h3M40 38h1M26 39h1M33 39h2M26 40h2M32 40h4M27 41h9M27 42h10M49 42h4M28 43h3M50 43h4M51 44h4M20 45h1M51 45h4M52 46h4M52 47h4M52 48h4M52 49h4M52 50h4M52 51h4M52 52h4M53 53h2M53 54h2" />
<path stroke="#a57329" d="M45 24h4M44 25h7M18 26h4M44 26h7M17 27h4M46 27h4M17 28h4M16 29h5M16 30h5M16 31h5M13 36h1M12 37h1M45 38h1M45 39h5M45 40h7M47 41h6M53 42h1" />
<path stroke="#dedede" d="M56 24h1M10 25h1M12 25h2M12 26h2M62 26h1M11 27h3M11 28h3M10 29h4M36 29h1M10 30h4M11 31h2M54 32h2M12 38h1M30 59h2M19 62h1M24 64h1M23 65h1M57 65h1M50 67h1" />
</svg>