<svg xmlns="http://www.w3.org/2000/svg" viewBox="0 -0.5 80 80" shape-rendering="crispEdges">
<metadata>Made with Pixels to Svg https://codepen.io/shshaw/pen/XbxvNj</metadata>
<path stroke="#7b5a29" d="M51 16h4M55 17h1M54 19h1M58 20h1M60 20h1M59 21h1M44 22h1M54 22h1M41 23h1M43 23h1M48 23h1M53 23h1M60 23h1M40 24h1M42 24h1M51 24h2M59 24h1M39 26h1M39 27h1M41 27h1M38 28h1M60 29h1M30 30h2M59 30h1M61 30h1M30 31h1M32 31h1M30 32h1M33 32h1M29 33h1M36 33h1M29 34h1M38 34h1M27 35h1M39 35h1M26 36h1M25 38h1M23 40h1M36 40h1M22 41h1M58 41h1M21 42h1M46 42h1M21 43h1M28 43h1M46 43h1M19 44h2M46 44h1M46 45h1M45 46h1M20 47h1M45 49h1M20 50h1M21 51h1M45 52h1M23 53h1M44 53h1M24 54h1M35 55h1M26 56h1M29 57h1M30 58h1" />
<path stroke="#000000" d="M52 17h1M56 17h1M53 18h1M57 18h1M58 19h1M54 20h1M54 21h1M61 21h1M46 22h2M61 22h1M45 23h1M49 23h1M50 24h1M60 24h1M40 25h1M61 25h1M40 26h1M60 26h1M27 27h1M60 27h1M27 28h1M60 28h1M27 29h1M38 29h1M61 29h1M38 30h1M28 31h1M39 31h1M62 31h1M34 32h1M48 32h1M62 32h1M35 33h1M61 33h1M36 34h1M39 34h1M49 34h1M61 34h1M36 35h1M42 35h1M49 35h1M61 35h1M37 36h1M40 36h1M46 36h2M49 36h1M62 36h1M37 37h1M39 37h1M44 37h3M48 37h1M50 37h1M61 37h1M24 38h1M37 38h2M42 38h4M48 38h1M51 38h1M60 38h1M23 39h1M25 39h1M37 39h2M40 39h6M47 39h1M51 39h1M60 39h1M25 40h1M40 40h5M47 40h1M52 40h1M59 40h1M25 41h1M38 41h6M46 41h1M52 41h1M26 42h1M37 42h5M45 42h1M53 42h1M58 42h1M27 43h1M39 43h1M44 43h1M53 43h1M56 43h2M29 44h3M38 44h1M42 44h2M53 44h3M19 45h1M24 45h1M40 45h2M47 45h1M53 45h1M20 46h1M34 46h1M39 46h1M47 46h1M54 46h1M32 47h1M35 47h1M39 47h1M47 47h1M19 48h1M32 48h3M39 48h1M46 48h1M55 48h1M20 49h1M26 49h1M32 49h2M38 49h1M46 49h1M55 49h1M24 50h1M38 50h1M47 50h1M55 50h1M25 51h1M37 51h1M46 51h1M48 51h3M55 51h1M21 52h1M27 52h1M36 52h1M55 52h1M22 53h1M29 53h6M45 53h1M23 54h1M43 54h2M54 54h1M41 55h2M50 55h4M42 56h1M27 57h1M42 57h1M20 58h1M22 58h1M25 58h2M28 58h2M40 58h2M21 59h4M31 59h1M39 59h1M31 60h1M33 60h1M35 60h1M38 60h1M32 61h5" />
<path stroke="#ffcd7b" d="M53 17h2M55 18h2M56 19h1M55 22h1M44 23h1M54 23h1M56 23h1M41 24h1M43 24h2M47 24h3M53 24h1M55 24h1M57 24h1M41 25h3M45 25h8M54 25h1M56 25h1M42 26h16M40 27h1M42 27h16M39 28h19M39 29h1M41 29h1M43 29h15M40 30h1M42 30h1M44 30h14M31 31h1M41 31h1M43 31h1M45 31h1M47 31h7M55 31h2M31 32h2M44 32h1M46 32h1M50 32h3M55 32h2M30 33h4M55 33h1M30 34h5M37 34h1M54 34h1M29 35h6M37 35h2M27 36h9M38 36h1M27 37h6M34 37h2M26 38h8M35 38h1M24 39h1M26 39h8M35 39h1M24 40h1M26 40h7M35 40h1M24 41h1M27 41h4M22 42h1M25 42h1M22 43h3M22 44h2M20 45h2M23 45h1M21 46h3M22 47h1M20 48h2M21 49h2M21 50h3M22 51h2M39 51h2M24 52h1M38 52h2M41 52h2M37 53h5M39 54h2" />
<path stroke="#cda452" d="M54 18h1M55 19h1M57 19h1M55 20h3M55 21h4M60 21h1M56 22h5M46 23h2M55 23h1M57 23h3M45 24h2M54 24h1M56 24h1M58 24h1M44 25h1M53 25h1M55 25h1M57 25h4M41 26h1M58 26h2M58 27h2M58 28h2M40 29h1M42 29h1M58 29h2M39 30h1M41 30h1M43 30h1M58 30h1M60 30h1M40 31h1M42 31h1M44 31h1M46 31h1M54 31h1M57 31h5M45 32h1M49 32h1M53 32h2M57 32h5M34 33h1M50 33h5M56 33h5M35 34h1M50 34h4M55 34h6M28 35h1M35 35h1M50 35h11M36 36h1M39 36h1M50 36h12M26 37h1M33 37h1M36 37h1M38 37h1M51 37h10M34 38h1M36 38h1M52 38h8M34 39h1M36 39h1M52 39h8M33 40h2M53 40h6M23 41h1M26 41h1M31 41h5M53 41h5M23 42h2M27 42h8M54 42h4M29 43h4M45 43h1M54 43h2M21 44h1M24 44h1M44 44h2M22 45h1M42 45h4M40 46h5M46 46h1M21 47h1M40 47h7M22 48h1M40 48h6M39 49h6M39 50h8M24 51h1M38 51h1M41 51h5M22 52h2M25 52h1M37 52h1M40 52h1M43 52h2M24 53h4M35 53h2M42 53h2M25 54h14M41 54h2M26 55h9M27 56h6M28 57h1M30 57h2" />
<path stroke="#8b5218" d="M26 27h1M25 28h1M25 29h1M24 30h1M24 31h1M24 32h1M40 32h2M24 33h1M45 33h1M37 40h1M51 40h1M52 42h1M52 43h1M39 44h1M51 44h2M49 45h4M38 46h1M48 46h6M34 47h1M37 47h2M48 47h6M36 48h3M47 48h8M35 49h3M47 49h8M33 50h5M48 50h3M54 50h1M31 51h6M28 52h7M50 54h1M23 55h1M25 55h1M39 55h1M34 56h1M41 56h1M23 57h1M40 57h1M31 58h1M33 59h1M35 59h1M38 59h1" />
<path stroke="#ffcd5a" d="M26 28h1M26 29h1M25 30h2M25 31h1M26 46h2M25 47h4M25 48h3M34 57h3M33 58h3" />
<path stroke="#622900" d="M27 30h1M28 32h1M38 32h2M42 32h2M47 32h1M37 33h1M46 33h1M48 33h2M24 34h1M41 34h1M44 34h2M24 35h1M40 35h1M43 35h1M46 35h2M24 36h1M45 36h1M25 37h1M43 37h1M41 38h1M46 38h1M39 40h1M36 41h1M35 42h1M42 42h1M25 43h1M33 43h2M40 43h1M28 44h1M32 44h1M25 45h1M39 45h1M24 46h1M33 46h1M35 46h1M23 47h1M54 47h1M23 48h1M31 48h1M35 48h1M23 49h1M31 49h1M34 49h1M51 50h1M26 52h1M35 52h1M50 52h1M28 53h1M49 53h1M54 53h1M49 54h1M52 54h1M22 55h1M36 55h1M40 55h1M21 56h1M33 56h1M20 57h1M32 57h1M41 57h1M37 60h1" />
<path stroke="#dea439" d="M26 31h2M25 32h3M25 33h3M38 33h5M47 33h1M26 34h1M40 34h1M42 34h2M46 34h1M48 34h1M41 35h1M44 35h2M48 35h1M41 36h1M43 36h2M40 37h3M39 38h2M39 39h1M38 40h1M37 41h1M37 43h2M27 44h1M36 44h2M26 45h13M25 46h1M28 46h4M36 46h1M24 47h1M29 47h2M24 48h1M28 48h3M24 49h2M28 49h3M25 50h7M26 51h4M51 54h1M53 54h1M22 56h4M35 56h2M21 57h2M24 57h1M33 57h1M37 57h1M32 58h1M36 58h2M32 59h1M34 59h1M36 59h1" />
<path stroke="#b47b31" d="M28 33h1M43 33h2M25 34h1M27 34h2M47 34h1M25 35h2M25 36h1M42 36h1M48 36h1M47 37h1M49 37h1M47 38h1M49 38h2M46 39h1M48 39h3M45 40h2M48 40h3M44 41h2M47 41h5M36 42h1M43 42h2M47 42h5M26 43h1M35 43h2M41 43h3M47 43h5M26 44h1M33 44h3M40 44h2M47 44h4M48 45h1M32 46h1M37 46h1M31 47h1M36 47h1M27 49h1M32 50h1M52 50h2M30 51h1M51 51h4M51 52h4M50 53h4M24 55h1M37 55h2M37 56h4M25 57h2M38 57h2M21 58h1M23 58h2M38 58h2M37 59h1M32 60h1M34 60h1M36 60h1" />
<path stroke="#ffffff" d="M25 44h1M33 47h1" />
</svg>