<svg xmlns="http://www.w3.org/2000/svg" viewBox="0 -0.5 80 80" shape-rendering="crispEdges">
<metadata>Made with Pixels to Svg https://codepen.io/shshaw/pen/XbxvNj</metadata>
<path stroke="#4173bd" d="M12 4h2M11 5h1M14 5h2M16 6h1M71 6h3M12 7h1M17 7h2M68 7h3M74 7h1M9 8h2M19 8h1M65 8h3M74 8h1M8 9h1M11 9h1M20 9h1M63 9h2M8 10h1M12 10h1M21 10h2M61 10h2M15 11h1M23 11h1M59 11h2M14 12h1M16 12h1M24 12h1M57 12h2M71 12h3M16 13h2M25 13h1M55 13h2M59 13h1M69 13h2M74 13h1M26 14h1M53 14h2M57 14h2M65 14h1M67 14h1M22 15h1M26 15h1M52 15h1M56 15h1M63 15h2M9 16h2M23 16h1M27 16h1M51 16h1M55 16h1M62 16h1M8 17h1M11 17h2M24 17h1M54 17h1M70 17h1M13 18h3M53 18h1M68 18h1M16 19h1M43 19h2M70 19h3M40 20h3M67 20h3M73 20h1M24 21h1M33 21h1M38 21h2M62 21h3M33 22h1M60 22h2M14 23h1M35 23h1M40 23h2M17 24h1M37 24h3M33 25h1M35 25h3M68 25h4M13 26h1M33 26h1M35 26h1M45 26h1M60 26h1M72 26h1M43 27h1M16 28h2M39 28h1M58 31h1M59 32h1M31 33h1M65 33h2M27 34h2M67 34h1M26 35h1M25 36h1M40 36h2M24 37h1M39 37h1M45 37h1M43 38h1M23 39h1M40 39h2M23 40h1M38 40h1M38 41h1M22 42h1M22 43h1M42 44h1M42 45h1M43 46h1M33 47h1M43 47h1M55 47h1M63 47h5M36 48h1M40 48h1M54 48h1M60 48h3M68 48h2M41 49h1M53 49h1M58 49h1M70 49h1M31 50h1M35 50h1M52 50h1M71 50h1M50 51h2M56 51h1M69 51h1M49 52h1M55 52h1M65 52h2M68 52h1M70 52h1M34 53h1M47 53h2M53 53h2M63 53h1M65 53h3M69 53h1M71 53h1M34 54h1M44 54h4M51 54h2M63 54h1M65 54h3M69 54h2M34 55h1M44 55h7M63 55h1M65 55h3M69 55h2M31 56h1M35 56h1M44 56h5M52 56h2M62 56h2M65 56h3M69 56h2M29 57h2M46 57h5M62 57h1M64 57h4M69 57h4M20 58h5M41 58h1M61 58h1M64 58h3M68 58h4M15 59h5M62 59h5M68 59h4M12 60h3M37 60h1M61 60h1M63 60h3M67 60h4M10 61h2M18 61h10M42 61h2M59 61h2M64 61h1M66 61h5M9 62h1M15 62h3M28 62h2M33 62h3M44 62h3M55 62h4M65 62h5M13 63h2M27 63h2M36 63h3M47 63h8M63 63h1M65 63h4M11 64h2M39 64h1M43 64h2M61 64h2M7 65h1M45 65h4M57 65h4M10 66h1M49 66h8M8 67h2M9 68h1M7 69h2M8 70h1M8 71h1" />
<path stroke="#bdeeff" d="M12 5h2M12 6h3M13 7h4M71 7h3M13 8h5M68 8h6M9 9h2M14 9h6M65 9h9M9 10h3M15 10h2M19 10h2M63 10h2M67 10h6M9 11h4M17 11h1M20 11h2M61 11h2M66 11h5M10 12h4M22 12h2M59 12h2M65 12h4M10 13h4M23 13h2M57 13h2M64 13h3M71 13h3M11 14h4M24 14h1M55 14h2M69 14h5M12 15h1M14 15h2M25 15h1M54 15h2M67 15h6M53 16h1M66 16h5M9 17h2M52 17h1M65 17h5M9 18h4M64 18h4M10 19h4M63 19h2M11 20h4M70 20h3M14 21h2M40 21h1M65 21h8M10 22h3M38 22h1M64 22h7M10 23h4M63 23h5M11 24h3M62 24h3M12 25h3M40 25h1M14 26h2M66 26h6M11 27h2M62 27h10M11 28h3M60 28h10M12 29h3M64 29h2M60 34h7M62 35h4M33 39h1M33 40h1M32 41h2M29 42h1M32 42h2M28 43h1M32 43h2M24 44h1M28 44h1M31 44h3M23 45h2M27 45h2M31 45h3M23 46h3M27 46h2M30 46h4M24 47h2M27 47h6M24 48h9M25 49h7M26 50h5M27 51h4M27 52h3M28 53h1" />
<path stroke="#000000" d="M11 6h1M12 8h1M13 9h1M74 9h1M14 10h1M73 10h1M72 11h1M70 12h1M9 13h1M68 13h1M10 14h1M66 14h1M11 15h1M12 16h1M8 18h1M9 19h1M67 19h1M10 20h1M27 20h1M45 20h1M11 21h2M27 21h1M35 21h1M44 21h1M13 22h2M27 22h1M43 22h1M9 23h1M27 23h1M36 23h1M42 23h1M49 23h1M70 23h2M10 24h1M27 24h1M35 24h1M42 24h1M49 24h1M67 24h2M11 25h1M26 25h1M32 25h1M34 25h1M38 25h1M43 25h3M49 25h1M64 25h2M12 26h1M26 26h1M32 26h1M34 26h1M36 26h1M46 26h1M49 26h1M13 27h2M26 27h1M35 27h1M44 27h2M30 28h1M34 28h1M38 28h1M41 28h3M71 28h1M11 29h1M30 29h1M35 29h1M39 29h1M42 29h1M48 29h1M68 29h2M12 30h1M31 30h1M35 30h2M42 30h1M48 30h1M63 30h3M13 31h2M30 31h1M35 31h1M42 31h1M59 31h2M15 32h2M30 32h1M34 32h1M42 32h1M47 32h1M32 33h2M13 34h1M41 34h1M14 35h3M41 35h1M56 36h3M66 36h1M60 37h5M14 38h1M18 38h1M15 39h3M17 40h1M54 40h2M61 40h1M17 41h1M57 41h4M18 42h2M34 42h1M51 42h1M20 43h1M34 43h1M52 43h1M21 44h1M34 44h1M48 44h1M54 44h3M34 45h1M49 45h1M66 45h2M50 46h2M69 46h1M70 47h1M23 48h1M33 48h1M71 48h1M24 49h1M32 49h1M42 49h2M25 50h1M72 50h1M26 51h1M31 51h1M65 51h3M72 51h1M26 52h1M30 52h1M62 52h2M69 52h1M27 53h1M29 53h1M60 53h1M62 53h1M73 53h1M28 54h2M43 54h1M58 54h1M73 54h1M25 55h1M43 55h1M56 55h2M73 55h1M26 56h1M32 56h2M43 56h1M54 56h2M61 56h1M73 56h1M27 57h2M31 57h2M42 57h1M44 57h2M51 57h3M73 57h1M32 58h1M36 58h1M42 58h1M46 58h5M29 59h1M32 59h1M38 59h4M57 59h2M72 59h1M30 60h1M33 60h1M38 60h1M41 60h1M53 60h2M71 60h1M30 61h1M33 61h1M71 61h1M39 62h1M70 62h1M19 63h8M32 63h1M40 63h1M42 63h1M69 63h1M14 64h3M27 64h1M33 64h3M40 64h1M42 64h1M67 64h2M11 65h2M24 65h1M33 65h1M36 65h3M42 65h1M65 65h2M32 66h2M39 66h1M62 66h3M30 67h2M44 67h3M58 67h4M21 68h1M29 68h1M43 68h1M47 68h11M22 69h3M26 69h1M28 69h1M9 70h1M26 70h2M9 71h1M35 71h2M42 71h1M10 72h1M33 72h2M39 72h1M42 72h1M11 73h2M38 73h1M42 73h1M36 74h2M42 74h1" />
<path stroke="#73acff" d="M15 6h1M18 8h1M65 10h1M22 11h1M63 11h2M61 12h2M21 13h1M60 13h1M18 14h1M22 14h1M59 14h1M23 15h1M57 15h1M65 15h1M13 16h1M24 16h1M56 16h1M61 16h1M71 16h1M55 17h1M25 18h1M54 18h1M17 19h1M25 19h1M54 19h1M25 20h1M43 20h2M25 21h1M34 21h1M42 21h2M53 21h1M24 22h2M40 22h3M59 22h1M71 22h1M24 23h2M34 23h1M38 23h2M68 23h1M18 24h1M23 24h2M33 24h2M36 24h1M65 24h1M23 25h2M52 25h1M62 25h1M23 26h2M38 26h1M41 26h4M59 26h1M23 27h2M36 27h7M18 28h1M22 28h3M19 29h6M26 29h1M40 29h2M21 30h4M39 30h1M41 30h1M51 30h1M16 31h1M22 31h4M27 31h1M57 31h1M18 32h8M14 33h1M20 33h7M49 33h1M17 34h2M21 34h6M48 34h1M22 35h4M54 35h3M66 35h1M20 36h5M33 36h1M47 36h1M60 36h5M15 37h1M18 37h2M21 37h3M46 37h2M15 38h3M20 38h4M33 38h1M38 38h1M44 38h5M51 38h1M19 39h4M34 39h1M42 39h3M46 39h1M48 39h1M52 39h1M18 40h3M22 40h1M34 40h1M39 40h6M47 40h1M49 40h1M53 40h1M18 41h2M21 41h2M39 41h6M47 41h1M49 41h2M55 41h1M21 42h1M38 42h5M44 42h2M48 42h1M50 42h1M21 43h1M37 43h6M44 43h2M51 43h1M37 44h5M45 44h1M49 44h1M36 45h6M45 45h2M35 46h5M41 46h2M57 46h1M63 46h5M34 47h6M41 47h2M62 47h1M68 47h2M34 48h2M42 48h2M66 48h2M70 48h1M33 49h2M59 49h1M64 49h6M32 50h3M51 50h1M57 50h1M62 50h9M32 51h2M49 51h1M53 51h1M55 51h1M61 51h3M70 51h2M31 52h3M42 52h1M50 52h5M59 52h2M71 52h1M30 53h4M41 53h2M49 53h4M55 53h1M57 53h2M72 53h1M27 54h1M30 54h4M35 54h1M40 54h3M48 54h3M53 54h5M72 54h1M26 55h4M32 55h2M35 55h8M51 55h5M72 55h1M27 56h4M36 56h7M49 56h3M72 56h1M36 57h6M38 58h3M62 58h1M20 59h9M33 59h2M60 59h2M15 60h15M34 60h3M57 60h4M62 60h1M14 61h4M28 61h2M34 61h5M44 61h2M53 61h6M61 61h3M13 62h2M18 62h10M36 62h3M43 62h1M47 62h8M59 62h5M9 63h2M15 63h2M33 63h3M39 63h1M43 63h4M55 63h8M64 63h1M8 64h2M36 64h3M45 64h16M63 64h4M8 65h2M39 65h1M43 65h2M49 65h8M61 65h4M7 66h2M45 66h4M57 66h5M7 67h1M47 67h11M7 68h1" />
<path stroke="#acd5ff" d="M17 10h2M66 10h1M16 11h1M18 11h2M65 11h1M17 12h5M63 12h2M14 13h2M18 13h3M22 13h1M61 13h3M15 14h3M19 14h3M23 14h1M25 14h1M60 14h5M68 14h1M13 15h1M16 15h6M24 15h1M53 15h1M58 15h5M66 15h1M14 16h9M25 16h2M52 16h1M54 16h1M57 16h4M63 16h3M15 17h9M25 17h2M53 17h1M56 17h9M16 18h8M26 18h1M52 18h1M55 18h9M14 19h2M18 19h6M26 19h1M51 19h2M55 19h8M65 19h1M15 20h9M26 20h1M51 20h2M54 20h11M13 21h1M16 21h8M26 21h1M41 21h1M51 21h1M54 21h8M15 22h9M26 22h1M34 22h1M39 22h1M51 22h1M53 22h6M62 22h2M17 23h7M26 23h1M33 23h1M37 23h1M50 23h2M53 23h10M14 24h3M19 24h4M25 24h2M50 24h2M53 24h9M15 25h8M25 25h1M41 25h2M50 25h1M53 25h9M16 26h7M25 26h1M39 26h2M50 26h1M52 26h7M16 27h7M25 27h1M50 27h1M52 27h10M14 28h2M19 28h3M25 28h1M50 28h1M52 28h8M15 29h4M25 29h1M49 29h2M52 29h12M14 30h7M25 30h2M40 30h1M49 30h1M52 30h9M17 31h5M26 31h1M36 31h6M49 31h1M51 31h6M26 32h2M35 32h7M48 32h2M51 32h8M15 33h5M27 33h2M30 33h1M34 33h7M47 33h2M51 33h12M14 34h3M31 34h10M46 34h2M50 34h10M19 35h3M33 35h8M44 35h3M49 35h5M57 35h5M17 36h3M34 36h6M42 36h3M48 36h7M16 37h2M34 37h5M40 37h3M48 37h8M24 38h1M34 38h4M39 38h2M49 38h2M52 38h6M35 39h4M45 39h1M47 39h1M49 39h3M54 39h7M35 40h3M45 40h2M48 40h1M50 40h3M57 40h4M23 41h1M35 41h3M45 41h2M48 41h1M51 41h4M35 42h3M43 42h1M46 42h1M49 42h1M52 42h5M35 43h2M43 43h1M46 43h2M49 43h2M54 43h3M35 44h2M43 44h2M46 44h2M50 44h2M35 45h1M43 45h2M47 45h2M50 45h2M60 45h5M44 46h2M47 46h2M58 46h5M44 47h2M56 47h6M37 48h3M53 48h1M55 48h5M63 48h3M36 49h5M51 49h2M54 49h4M60 49h4M36 50h6M50 50h1M53 50h4M58 50h4M25 51h1M35 51h7M52 51h1M54 51h1M57 51h4M25 52h1M35 52h7M56 52h3M25 53h2M35 53h6M56 53h1M26 54h1M36 54h4M12 61h2M10 62h3M11 63h2M10 64h1" />
<path stroke="#204a83" d="M8 11h1M13 11h2M71 11h1M9 12h1M15 12h1M69 12h1M67 13h1M74 14h1M73 15h1M72 16h1M13 17h2M27 17h1M51 17h1M71 17h1M24 18h1M27 18h1M51 18h1M69 18h1M24 19h1M27 19h1M45 19h1M50 19h1M53 19h1M66 19h1M24 20h1M34 20h1M50 20h1M53 20h1M65 20h2M10 21h1M50 21h1M52 21h1M73 21h1M9 22h1M35 22h1M37 22h1M50 22h1M52 22h1M72 22h1M15 23h2M32 23h1M52 23h1M69 23h1M32 24h1M40 24h2M52 24h1M66 24h1M39 25h1M51 25h1M63 25h1M66 25h2M11 26h1M37 26h1M51 26h1M61 26h5M10 27h1M15 27h1M33 27h2M49 27h1M51 27h1M72 27h1M10 28h1M26 28h1M35 28h2M40 28h1M49 28h1M51 28h1M70 28h1M27 29h1M51 29h1M66 29h2M13 30h1M27 30h1M50 30h1M61 30h2M15 31h1M28 31h1M48 31h1M50 31h1M14 32h1M17 32h1M28 32h1M50 32h1M60 32h3M13 33h1M29 33h1M41 33h1M46 33h1M50 33h1M63 33h2M19 34h2M44 34h2M49 34h1M17 35h2M42 35h2M47 35h2M67 35h1M15 36h2M45 36h2M55 36h1M59 36h1M65 36h1M14 37h1M20 37h1M33 37h1M43 37h2M56 37h2M19 38h1M41 38h2M58 38h3M18 39h1M39 39h1M53 39h1M61 39h1M21 40h1M56 40h1M20 41h1M34 41h1M56 41h1M20 42h1M47 42h1M57 42h1M48 43h1M53 43h1M57 43h1M22 44h1M52 44h1M60 44h5M22 45h1M52 45h1M57 45h3M65 45h1M22 46h1M34 46h1M40 46h1M46 46h1M49 46h1M55 46h2M68 46h1M23 47h1M40 47h1M46 47h3M53 47h2M41 48h1M44 48h2M51 48h2M35 49h1M50 49h1M71 49h1M24 50h1M42 50h1M49 50h1M24 51h1M34 51h1M42 51h1M48 51h1M64 51h1M68 51h1M24 52h1M34 52h1M43 52h1M47 52h2M61 52h1M64 52h1M67 52h1M72 52h1M24 53h1M43 53h4M59 53h1M64 53h1M68 53h1M70 53h1M25 54h1M62 54h1M64 54h1M68 54h1M71 54h1M30 55h2M62 55h1M64 55h1M68 55h1M71 55h1M34 56h1M64 56h1M68 56h1M71 56h1M35 57h1M61 57h1M63 57h1M68 57h1M25 58h4M33 58h2M37 58h1M60 58h1M63 58h1M67 58h1M72 58h1M35 59h3M59 59h1M67 59h1M42 60h4M55 60h2M66 60h1M46 61h7M65 61h1M64 62h1M8 63h1M17 63h2M7 64h1M13 64h1M10 65h1M6 66h1M9 66h1M11 66h1M6 67h1M10 67h1M6 68h1M8 68h1M10 68h1M6 69h1M9 69h1M7 70h1M7 71h1M8 72h2M10 73h1" />
<path stroke="#5a3918" d="M31 27h2M31 29h1M32 30h1M31 31h1M29 58h1M39 61h1M41 61h1M30 62h1M32 62h1M40 62h1M42 62h1M29 63h1M28 64h1M25 65h2M40 65h1M23 66h2M27 67h1M39 67h1M25 68h2M37 68h2M35 69h2M42 69h1M38 70h1M42 70h1M37 71h1M40 71h1M36 72h1M40 72h1" />
<path stroke="#b49473" d="M31 28h3M33 29h2M34 30h1M31 32h3M31 61h1M31 62h1M30 63h1M29 64h2M27 65h3M26 66h3M41 66h1M24 67h3M40 67h2M24 68h1M27 68h1M39 68h3M38 69h4M35 70h1M39 70h1M41 70h1M37 72h1M41 72h1" />
<path stroke="#bd2939" d="M37 28h1M36 29h1M33 30h1M37 30h1M32 31h2" />
<path stroke="#8b6a52" d="M32 29h1M34 31h1M30 58h2M30 59h2M31 60h2M39 60h2M32 61h1M40 61h1M41 62h1M31 63h1M41 63h1M31 64h1M41 64h1M30 65h2M41 65h1M25 66h1M29 66h3M40 66h1M42 66h1M28 67h2M42 67h1M28 68h1M42 68h1M37 69h1M36 70h2M40 70h1M38 71h2M41 71h1M38 72h1" />
<path stroke="#e66273" d="M37 29h1" />
<path stroke="#ffffff" d="M38 29h1M38 30h1M22 67h1M23 68h1M27 69h1M34 71h1M37 73h1M41 73h1" />
<path stroke="#e6ffff" d="M29 34h2M27 35h6M26 36h7M25 37h8M25 38h8M24 39h9M24 40h9M24 41h8M23 42h6M30 42h2M23 43h5M29 43h3M23 44h1M25 44h3M29 44h2M25 45h2M29 45h2M26 46h1M29 46h1M26 47h1" />
<path stroke="#525252" d="M32 64h1M22 66h1M43 66h2M21 67h1M23 67h1M22 68h1M34 70h1M33 71h1M36 73h1M40 73h1M41 74h1" />
<path stroke="#cdcdcd" d="M32 65h1M43 67h1" />
</svg>