<svg xmlns="http://www.w3.org/2000/svg" viewBox="0 -0.5 80 80" shape-rendering="crispEdges">
<metadata>Made with Pixels to Svg https://codepen.io/shshaw/pen/XbxvNj</metadata>
<path stroke="#de0000" d="M56 16h1M55 17h2M22 18h1M49 18h1M54 18h1M56 18h1M63 18h1M22 19h1M49 19h1M53 19h1M56 19h1M58 19h1M61 19h3M68 19h2M21 20h2M48 20h1M50 20h1M52 20h1M56 20h3M60 20h1M62 20h1M66 20h2M69 20h1M21 21h2M48 21h1M50 21h2M56 21h1M58 21h2M62 21h1M64 21h2M68 21h1M20 22h1M22 22h1M44 22h1M47 22h1M50 22h2M58 22h1M61 22h3M68 22h1M18 23h1M20 23h1M22 23h1M31 23h1M44 23h1M47 23h1M50 23h1M67 23h1M18 24h3M22 24h1M25 24h1M30 24h2M44 24h2M47 24h1M66 24h1M18 25h2M22 25h1M24 25h2M29 25h1M31 25h1M44 25h1M46 25h1M66 25h1M18 26h2M22 26h2M25 26h1M29 26h1M31 26h1M42 26h1M44 26h1M46 26h1M65 26h1M68 26h3M17 27h1M22 27h2M26 27h1M28 27h1M30 27h1M42 27h1M44 27h1M65 27h3M70 27h1M17 28h1M22 28h1M26 28h2M30 28h1M42 28h3M63 28h2M68 28h2M17 29h1M26 29h2M30 29h1M42 29h1M44 29h1M67 29h1M17 30h1M26 30h1M29 30h1M42 30h1M65 30h2M16 31h1M29 31h1M31 31h2M42 31h1M67 31h2M13 32h1M16 32h1M30 32h1M32 32h1M42 32h1M66 32h2M13 33h2M16 33h1M31 33h1M64 33h2M13 34h2M16 34h1M31 34h1M63 34h5M13 35h1M15 35h2M30 35h1M68 35h2M13 36h1M15 36h2M30 36h1M66 36h2M13 37h1M16 37h1M29 37h1M63 37h3M13 38h1M16 38h1M29 38h1M61 38h2M14 39h1M17 39h1M28 39h1M58 39h3M14 40h1M27 40h1M56 40h2M14 41h1M52 41h3M15 42h1M15 43h1M16 44h1M16 45h1M17 46h1M18 47h1M18 48h1M19 49h1" />
<path stroke="#ff5a00" d="M55 18h1M54 19h2M49 20h1M53 20h3M61 20h1M68 20h1M49 21h1M52 21h4M57 21h1M60 21h2M66 21h2M21 22h1M48 22h2M52 22h6M59 22h2M64 22h4M21 23h1M48 23h2M51 23h6M58 23h9M21 24h1M48 24h4M53 24h3M58 24h4M64 24h2M20 25h2M45 25h1M47 25h5M53 25h2M57 25h3M63 25h3M20 26h2M24 26h1M45 26h1M47 26h4M53 26h1M57 26h1M62 26h3M18 27h4M24 27h2M45 27h6M61 27h4M68 27h2M18 28h4M23 28h3M45 28h2M48 28h2M60 28h3M65 28h3M18 29h6M25 29h1M43 29h1M45 29h2M49 29h1M59 29h8M18 30h4M23 30h1M25 30h1M43 30h4M58 30h2M63 30h2M17 31h5M25 31h1M43 31h1M45 31h2M62 31h5M17 32h5M29 32h1M45 32h1M60 32h6M17 33h5M62 33h2M17 34h3M21 34h1M61 34h2M14 35h1M17 35h3M59 35h9M14 36h1M17 36h3M57 36h9M14 37h2M17 37h3M55 37h8M14 38h2M17 38h2M55 38h6M15 39h2M18 39h1M54 39h4M15 40h4M53 40h3M15 41h2M18 41h1M30 41h1M16 42h2M29 42h1M16 43h2M29 43h1M17 44h2M17 45h2M18 46h2M19 47h1M19 48h1M26 48h1M26 49h1M26 50h1" />
<path stroke="#ff9c00" d="M57 23h1M52 24h1M56 24h2M62 24h1M30 25h1M55 25h1M60 25h1M51 26h1M54 26h1M58 26h1M53 27h1M56 27h1M28 28h1M47 28h1M50 28h1M24 29h1M29 29h1M48 29h1M22 30h1M49 30h1M23 31h1M26 31h1M61 31h1M25 32h1M59 32h1M25 33h1M28 33h1M20 34h1M30 34h1M60 34h1M21 35h1M58 35h1M21 36h1M29 36h1M56 36h1M53 37h2M19 38h1M28 38h1M19 39h1M27 39h1M19 40h1M17 41h1M19 41h1M19 42h1M30 42h1M30 43h1M19 45h1" />
<path stroke="#ffd500" d="M63 24h1M52 25h1M56 25h1M61 25h2M30 26h1M52 26h1M55 26h2M59 26h3M29 27h1M51 27h2M54 27h2M57 27h4M29 28h1M51 28h9M28 29h1M47 29h1M50 29h9M24 30h1M27 30h2M47 30h2M50 30h8M60 30h3M22 31h1M24 31h1M27 31h2M47 31h14M22 32h3M26 32h3M31 32h1M48 32h11M22 33h3M26 33h2M29 33h2M49 33h13M22 34h8M49 34h11M20 35h1M22 35h8M52 35h6M20 36h1M22 36h7M54 36h2M20 37h9M20 38h8M20 39h6M20 40h4M25 40h1M20 41h4M18 42h1M20 42h4M18 43h5M19 44h3M20 45h1M20 46h1" />
<path stroke="#8b5a10" d="M44 31h1M43 32h2M45 33h1M48 33h1M49 35h1M52 37h1M54 38h1M53 39h1M25 41h1M60 41h1M60 42h1M59 48h1M57 49h2M41 50h1M55 50h2M26 51h1M41 51h1M44 51h1M25 52h1M43 52h1M53 52h1M55 52h1M17 54h1M28 54h1M16 55h1M33 55h4M43 55h1M14 56h2M11 57h3M10 58h1M19 58h2M37 58h1M17 59h2M36 59h1M11 60h1M13 60h1M35 60h1M36 62h1M38 62h1" />
<path stroke="#b48b41" d="M46 32h1M51 35h1M53 36h1M26 39h1M24 40h1M55 41h1M52 43h1M46 44h1M21 45h1M44 45h1M20 47h1M39 48h1M60 48h1M31 49h1M37 49h1M59 49h2M57 50h3M57 51h2M56 52h1" />
<path stroke="#a45229" d="M47 32h1M46 33h2M42 34h1M44 34h4M41 35h8M50 35h1M40 36h11M42 37h8M43 38h5M30 39h1M44 39h1M46 39h1M26 40h1M29 40h3M43 40h1M45 40h1M47 40h1M24 41h1M26 41h2M29 41h1M31 41h1M44 41h1M46 41h1M24 42h3M28 42h1M31 42h1M23 43h4M28 43h1M31 43h1M22 44h10M22 45h11M21 46h5M28 46h5M21 47h4M29 47h4M20 48h3M24 48h1M29 48h4M18 49h1M20 49h3M32 49h2M18 50h4M23 50h1M18 51h4M23 51h1M18 52h6M18 53h6M19 54h4M19 55h2" />
<path stroke="#5a1000" d="M42 33h3M41 34h1M40 35h1M38 36h2M35 37h3M31 38h4M27 42h1M27 43h1M22 50h1M24 50h1M22 51h1M17 52h1" />
<path stroke="#7b3108" d="M43 34h1M48 34h1M51 36h2M38 37h4M50 37h2M35 38h8M48 38h6M32 39h12M45 39h1M47 39h6M33 40h10M44 40h1M46 40h1M48 40h5M33 41h11M45 41h1M47 41h5M33 42h21M33 43h19M32 44h14M33 45h11M33 46h9M33 47h8M23 48h1M33 48h6M23 49h2M34 49h3" />
<path stroke="#101010" d="M30 38h1M29 39h1M31 39h1M28 40h1M32 40h1M59 40h1M28 41h1M32 41h1M32 42h1M32 43h1M61 43h1M61 44h1M61 45h1M26 46h2M60 46h1M25 47h1M60 47h1M17 48h1M25 48h1M61 48h1M17 49h1M48 49h3M61 49h1M17 50h1M25 50h1M45 50h3M51 50h4M60 50h1M17 51h1M24 51h2M52 51h1M59 51h1M24 52h1M42 52h1M52 52h1M57 52h2M17 53h1M42 53h1M53 53h4M18 54h1M30 54h3M36 54h1M43 54h1M18 55h1M27 55h3M37 55h1M19 56h1M25 56h2M38 56h1M44 56h1M20 57h5M38 57h1M44 57h1M44 58h1M10 59h1M43 59h1M10 60h1M16 60h1M42 60h1M11 61h5M35 61h1M41 61h1M35 62h1M40 62h1M36 63h4" />
<path stroke="#e6b45a" d="M58 40h1M56 41h4M54 42h6M53 43h8M47 44h5M55 44h6M45 45h6M56 45h5M42 46h9M56 46h4M41 47h11M55 47h5M40 48h19M29 49h1M38 49h10M51 49h6M28 50h1M33 50h8M42 50h3M27 51h1M32 51h9M42 51h2M53 51h4M32 52h10M54 52h1M30 53h12M29 54h1M33 54h3M37 54h6M17 55h1M21 55h1M38 55h5M16 56h3M39 56h5M14 57h6M39 57h5M11 58h8M41 58h3M11 59h6M41 59h2M12 60h1M14 60h2M40 60h2M36 61h1M38 61h3M37 62h1M39 62h1" />
<path stroke="#ffde94" d="M52 44h3M51 45h5M51 46h5M52 47h3M30 49h1M29 50h4M28 51h4M26 52h6M24 53h6M23 54h5M22 55h5M20 56h5M38 58h3M37 59h4M36 60h4M37 61h1" />
<path stroke="#ffffff" d="M26 47h2M27 48h1M25 49h1M27 49h1" />
<path stroke="#9c9c9c" d="M28 47h1M28 48h1M28 49h1M27 50h1" />
</svg>