<svg xmlns="http://www.w3.org/2000/svg" viewBox="0 -0.5 80 80" shape-rendering="crispEdges">
<metadata>Made with Pixels to Svg https://codepen.io/shshaw/pen/XbxvNj</metadata>
<path stroke="#6a8329" d="M43 15h3M41 16h2M46 16h2M41 17h1M47 17h1M41 20h3M41 21h1M47 21h1M11 22h4M41 22h2M47 22h1M9 23h2M15 23h1M8 24h1M7 25h1M7 26h1M6 27h1M6 28h1M6 29h1M7 30h1M30 32h3M28 33h2M34 33h1M26 34h2M35 34h1M25 35h1M33 35h1M36 35h1M24 36h1M34 36h1M36 36h1M37 37h1M37 38h1M37 39h1M17 40h1M36 40h1M34 41h2M32 42h2M67 49h3M70 50h1M70 51h1M66 54h1M67 56h1M68 57h1M68 58h1M61 61h2M63 62h1" />
<path stroke="#cdde20" d="M43 16h3M42 17h5M43 18h4M44 19h2M14 23h1M15 24h1M16 25h1M16 26h2M7 27h1M16 27h2M7 28h1M16 28h2M7 29h2M15 29h2M8 30h2M14 30h3M9 31h7M11 32h3M30 33h3M28 34h7M28 35h2M34 35h2M29 36h1M35 36h1M24 37h1M35 37h2M35 38h2M35 39h2M31 40h5M31 41h3M65 55h1M65 56h1M64 57h4M65 58h3" />
<path stroke="#8352a4" d="M23 18h7M21 19h2M30 19h1M37 19h6M20 20h1M32 20h1M35 20h3M34 21h2M20 22h1M19 23h1M37 27h1M25 29h2M23 30h2M22 31h1M21 32h1M20 33h1M19 34h1M19 35h1M63 36h1M64 37h2M63 38h3M63 39h2M62 40h3M62 41h3M18 42h1M62 42h3M19 43h1M51 43h1M62 43h3M19 44h1M51 44h2M61 44h3M20 45h1M51 45h2M61 45h3M50 46h4M61 46h3M24 47h1M50 47h4M61 47h3M44 48h1M50 48h5M60 48h4M19 49h4M49 49h6M59 49h5M18 50h1M49 50h7M58 50h7M18 51h1M48 51h9M60 51h5M41 52h2M47 52h19M46 53h20M30 54h1M45 54h20M44 55h14M60 55h5M31 56h1M43 56h12M60 56h4M41 57h13M33 58h20M34 59h16M51 59h2M35 60h12M48 60h1M50 60h1M37 61h9M47 61h1M49 61h1M40 62h5M46 62h1M48 62h1" />
<path stroke="#4a085a" d="M37 18h6M31 19h2M35 19h2M43 19h1M24 20h4M33 20h2M38 20h2M19 21h1M22 21h2M28 21h1M18 22h1M21 22h1M35 22h1M17 23h1M36 23h1M19 24h1M36 24h1M37 25h1M37 26h1M29 27h6M38 27h2M27 28h2M45 30h1M46 31h1M47 32h1M48 33h1M49 34h1M64 35h2M50 36h1M62 36h1M66 36h1M61 37h1M66 37h1M60 38h1M66 38h1M60 39h1M65 39h1M59 40h1M65 40h1M59 41h1M65 41h1M59 42h1M65 42h1M52 43h1M58 43h1M65 43h1M53 44h1M58 44h1M64 44h1M34 45h4M53 45h1M58 45h1M64 45h1M33 46h1M38 46h2M54 46h1M58 46h1M64 46h1M32 47h1M40 47h2M54 47h1M58 47h1M64 47h1M24 48h1M32 48h1M42 48h2M55 48h1M64 48h1M23 49h3M32 49h1M64 49h1M33 50h1M65 50h1M28 51h1M34 51h2M57 51h3M65 51h1M19 52h1M29 52h1M36 52h3M20 53h2M26 53h4M22 54h4M29 54h1M30 55h1M58 55h2M30 56h1M57 56h1M31 57h1M36 61h1" />
<path stroke="#a4b420" d="M47 18h1M46 19h2M44 20h4M42 21h5M43 22h3M16 24h1M17 25h1M18 27h1M18 28h1M17 29h2M17 30h1M8 31h1M16 31h2M9 32h2M14 32h3M11 33h4M33 33h1M30 35h1M18 36h1M18 37h2M23 37h1M34 37h1M17 38h1M20 38h3M28 38h1M17 39h1M34 39h1M29 41h2M66 50h4M66 51h4M66 52h3M66 53h2M65 54h1M58 56h2M64 56h1M66 56h1M59 57h5M60 58h5M61 59h5M62 60h3M63 61h2" />
<path stroke="#315200" d="M48 18h1M48 19h1M40 20h1M48 20h1M46 22h1M16 23h1M43 23h3M17 24h1M18 25h1M18 26h1M19 29h1M18 30h1M7 31h1M9 33h2M31 35h2M30 36h1M29 37h1M28 39h1M28 40h1M31 42h1M28 43h3M22 44h5M65 49h2M69 52h1M68 53h1M60 59h1M66 59h2M61 60h1M65 60h1M65 61h1M62 62h1M64 62h1" />
<path stroke="#f6acff" d="M23 19h4M21 20h2M27 29h2M25 30h5M24 31h6M22 32h7M21 33h6M20 34h6M20 35h5M19 36h5M20 37h3M34 46h4M33 47h5M33 48h8M34 49h8M19 50h7M36 50h6M20 51h6M21 52h4" />
<path stroke="#d583ee" d="M27 19h3M23 20h1M29 20h3M20 21h2M19 22h1M18 23h1M18 24h1M29 28h7M29 29h9M30 30h9M23 31h1M30 31h10M29 32h1M33 32h7M35 33h6M36 34h5M37 35h4M37 36h4M38 37h3M38 38h2M38 39h2M37 40h2M36 41h1M34 42h1M38 47h1M33 49h1M42 49h2M26 50h1M35 50h1M42 50h3M19 51h1M26 51h2M37 51h7M20 52h1M25 52h4M23 53h3" />
<path stroke="#a46abd" d="M28 20h1M30 21h4M31 22h4M32 23h4M32 24h4M33 25h4M33 26h4M35 27h2M36 28h5M38 29h5M39 30h6M40 31h6M40 32h7M27 33h1M41 33h7M41 34h8M41 35h8M41 36h9M64 36h2M41 37h9M62 37h2M40 38h11M61 38h2M40 39h11M61 39h2M39 40h12M60 40h2M37 41h15M60 41h2M35 42h17M60 42h2M31 43h20M59 43h3M20 44h2M31 44h20M59 44h2M21 45h2M31 45h3M38 45h13M59 45h2M22 46h3M30 46h3M40 46h10M59 46h2M25 47h2M29 47h3M39 47h1M42 47h8M59 47h2M26 48h6M41 48h1M45 48h5M59 48h1M27 49h5M44 49h5M28 50h5M34 50h1M45 50h4M29 51h5M36 51h1M44 51h4M30 52h6M43 52h4M22 53h1M30 53h16M31 54h14M31 55h13M32 56h11M32 57h9M50 59h1M47 60h1M49 60h1M51 60h1M46 61h1M48 61h1M50 61h1M45 62h1M47 62h1" />
<path stroke="#000000" d="M29 21h1M36 21h2M30 22h1M31 23h1M31 24h1M32 25h1M32 26h1M19 27h1M40 27h1M19 28h1M41 28h2M43 29h2M18 31h1M8 32h1M17 32h1M15 33h2M11 34h4M49 35h1M50 37h1M29 38h2M51 38h1M29 39h2M51 39h1M51 40h1M17 41h1M52 41h1M17 42h1M52 42h1M18 43h1M18 44h1M30 44h1M19 45h1M23 45h1M30 45h1M20 46h2M25 46h1M29 46h1M22 47h2M27 47h2M25 48h1M58 48h1M26 49h1M55 49h1M58 49h1M27 50h1M56 50h2M39 52h2M67 54h1M66 55h1M55 56h2M54 57h1M58 57h1M32 58h1M53 58h1M59 58h1M33 59h1M53 59h1M34 60h1M52 60h1M35 61h1M51 61h1M37 62h3M49 62h2M40 63h9" />
<path stroke="#eeff62" d="M11 23h3M9 24h1M12 24h3M8 25h1M13 25h3M8 26h1M13 26h3M8 27h2M12 27h4M8 28h8M9 29h6M10 30h4M26 35h2M25 36h4M25 37h4M18 38h2M23 38h5M18 39h10M18 40h10M18 41h11M19 42h12M20 43h8" />
<path stroke="#ffffff" d="M10 24h2M9 25h4M9 26h4M10 27h2M31 36h2M30 37h1M32 37h2M32 38h2M32 39h2" />
<path stroke="#cdcdd5" d="M33 36h1M34 38h1" />
<path stroke="#ee625a" d="M31 37h1M31 38h1M31 39h1M29 40h2M28 44h2M27 45h3M26 46h3" />
<path stroke="#a4314a" d="M27 44h1M24 45h3" />
</svg>