<svg xmlns="http://www.w3.org/2000/svg" viewBox="0 -0.5 80 80" shape-rendering="crispEdges">
<metadata>Made with Pixels to Svg https://codepen.io/shshaw/pen/XbxvNj</metadata>
<path stroke="#185294" d="M30 29h2M47 29h2M29 30h1M32 30h1M46 30h1M29 31h1M33 31h1M38 31h2M34 32h1M41 32h1M49 32h1M35 33h1M43 33h2M48 33h1M33 34h2M45 34h3M33 35h1M38 35h2M46 35h1M37 36h1M43 36h1M46 36h1M36 37h1M31 38h1M35 38h1M39 38h1M47 38h1M31 39h1M35 39h1M38 39h1M47 39h1M31 40h1M47 40h1M47 41h1M36 43h1M43 43h1M46 43h1M33 44h1M46 44h1M34 45h1M45 45h1M47 45h1M30 46h1M34 46h2M43 46h3M48 46h1M29 47h1M34 47h1M38 47h4M49 47h1M29 48h1M33 48h1M29 49h1M32 49h1M49 49h1" />
<path stroke="#101010" d="M32 29h1M49 29h1M33 30h1M50 30h1M34 31h1M40 31h2M45 31h1M50 31h1M29 32h1M35 32h3M42 32h3M50 32h1M30 33h1M34 33h1M45 33h1M49 33h1M31 34h1M48 34h1M32 35h1M40 35h2M47 35h1M32 36h1M42 36h1M47 36h1M32 37h1M43 37h1M47 37h1M40 38h1M44 38h1M48 38h1M40 39h2M44 39h1M48 39h1M35 40h1M38 40h2M41 40h1M44 40h1M48 40h1M31 41h1M35 41h1M39 41h2M44 41h1M48 41h1M32 42h1M36 42h1M43 42h1M47 42h1M32 43h1M37 43h1M42 43h1M47 43h1M32 44h1M38 44h4M47 44h1M31 45h1M33 45h1M46 45h1M48 45h1M49 46h1M35 47h3M42 47h3M50 47h1M34 48h1M38 48h4M45 48h1M50 48h1M33 49h1M46 49h1M50 49h1M30 50h3M47 50h3" />
<path stroke="#dedede" d="M30 30h1M48 30h1M36 34h1M35 35h1M34 36h1M38 36h1M41 36h1M33 37h1M33 38h1M36 38h1M43 38h1M36 41h1M43 41h1M38 43h1M41 43h1M31 47h1M30 48h1" />
<path stroke="#62a4e6" d="M31 30h1M49 30h1M30 31h2M47 31h1M37 33h3M37 34h1M36 35h1M35 36h1M34 37h1M41 38h1M33 39h1M38 41h1M41 41h1M45 41h1M45 42h1M44 43h1M43 44h1M40 45h3M32 46h1M47 47h1M48 48h1" />
<path stroke="#296abd" d="M47 30h1M32 31h1M46 31h1M48 31h2M30 32h4M38 32h3M45 32h4M31 33h3M36 33h1M40 33h3M46 33h2M32 34h1M35 34h1M38 34h7M34 35h1M37 35h1M42 35h4M33 36h1M36 36h1M44 36h2M35 37h1M44 37h3M32 38h1M34 38h1M45 38h2M32 39h1M34 39h1M45 39h2M32 40h3M40 40h1M45 40h2M32 41h3M46 41h1M33 42h3M44 42h1M46 42h1M33 43h3M45 43h1M34 44h4M42 44h1M44 44h2M32 45h1M35 45h5M43 45h2M31 46h1M33 46h1M36 46h7M46 46h2M30 47h1M32 47h2M45 47h2M48 47h1M31 48h2M46 48h2M49 48h1M30 49h2M47 49h2" />
<path stroke="#ffffff" d="M39 36h2M37 37h6M37 38h2M42 38h1M36 39h2M39 39h1M42 39h2M36 40h2M42 40h2M37 41h1M42 41h1M37 42h6M39 43h2" />
</svg>