<svg xmlns="http://www.w3.org/2000/svg" viewBox="0 -0.5 80 80" shape-rendering="crispEdges">
<metadata>Made with Pixels to Svg https://codepen.io/shshaw/pen/XbxvNj</metadata>
<path stroke="#185294" d="M30 26h3M47 26h3M29 27h1M38 27h4M29 28h1M36 28h1M34 29h2M44 29h2M33 30h2M45 30h2M33 31h1M38 31h2M46 31h1M37 32h1M43 32h1M46 32h1M36 33h1M31 34h1M35 34h1M39 34h1M47 34h1M31 35h1M35 35h1M38 35h1M47 35h1M31 36h1M47 36h1M31 37h1M47 37h1M31 38h1M47 38h1M36 39h1M43 39h1M33 40h1M46 40h1M34 41h1M45 41h1M35 42h2M44 42h1M37 43h6M39 44h2M40 45h1M38 46h1M40 46h1M38 47h1M40 47h1M37 48h1M40 48h2M41 49h1M42 50h1M35 51h1M43 51h1M34 52h1M39 52h2M44 52h1M34 53h1M38 53h1M41 53h1M44 53h1" />
<path stroke="#dedede" d="M30 27h1M36 30h1M35 31h1M34 32h1M38 32h1M41 32h1M33 33h1M33 34h1M36 34h1M43 34h1M36 37h1M43 37h1M38 39h1M41 39h1M39 46h1M39 47h1" />
<path stroke="#62a4e6" d="M31 27h1M48 27h1M30 28h2M47 28h1M37 29h3M37 30h1M36 31h1M35 32h1M34 33h1M41 34h1M33 35h1M38 37h1M41 37h1M45 38h1M44 39h1M43 40h1M40 41h3M39 45h1M39 48h1M39 49h1M38 50h1M37 51h1M42 51h1M36 52h1M43 52h1" />
<path stroke="#296abd" d="M32 27h1M47 27h1M49 27h1M32 28h2M38 28h4M46 28h1M48 28h2M31 29h3M36 29h1M40 29h4M46 29h3M32 30h1M35 30h1M38 30h7M47 30h1M34 31h1M37 31h1M42 31h4M33 32h1M36 32h1M44 32h2M35 33h1M44 33h3M32 34h1M34 34h1M45 34h2M32 35h1M34 35h1M45 35h2M32 36h3M40 36h1M45 36h2M32 37h3M45 37h2M32 38h4M44 38h1M46 38h1M33 39h3M45 39h2M34 40h4M42 40h1M44 40h2M35 41h5M43 41h2M37 42h7M38 48h1M38 49h1M40 49h1M37 50h1M39 50h3M36 51h1M38 51h4M35 52h1M37 52h2M41 52h2M35 53h3M42 53h2" />
<path stroke="#101010" d="M33 27h1M46 27h1M50 27h1M34 28h1M37 28h1M42 28h2M45 28h1M50 28h1M30 29h1M49 29h1M31 30h1M48 30h1M32 31h1M40 31h2M47 31h1M32 32h1M42 32h1M47 32h1M32 33h1M43 33h1M47 33h1M40 34h1M44 34h1M48 34h1M40 35h2M44 35h1M48 35h1M35 36h1M38 36h2M41 36h1M44 36h1M48 36h1M35 37h1M39 37h2M44 37h1M48 37h1M36 38h1M43 38h1M48 38h1M32 39h1M37 39h1M42 39h1M47 39h1M32 40h1M38 40h4M47 40h1M33 41h1M46 41h1M34 42h1M45 42h1M35 43h2M43 43h2M37 44h2M41 44h2M38 45h1M41 45h1M41 46h1M41 47h1M42 48h1M37 49h1M42 49h1M36 50h1M43 50h1M44 51h1M45 52h1M39 53h2M45 53h1M35 54h4M41 54h4" />
<path stroke="#ffffff" d="M39 32h2M37 33h6M37 34h2M42 34h1M36 35h2M39 35h1M42 35h2M36 36h2M42 36h2M37 37h1M42 37h1M37 38h6M39 39h2" />
</svg>