<svg xmlns="http://www.w3.org/2000/svg" viewBox="0 -0.5 80 80" shape-rendering="crispEdges">
<metadata>Made with Pixels to Svg https://codepen.io/shshaw/pen/XbxvNj</metadata>
<path stroke="#185294" d="M49 25h1M32 26h4M51 26h1M30 27h2M43 27h1M51 27h1M29 28h1M46 28h1M50 28h1M28 29h1M43 29h1M47 29h1M28 30h1M44 30h1M47 30h1M28 31h1M46 33h1M45 34h1M44 35h1M35 36h1M40 36h1M43 36h1M33 37h3M40 37h3M31 40h1M36 40h2M30 41h1M35 41h1M41 41h1M44 41h1M30 42h1M34 42h1M29 43h1M33 43h1M37 43h1M45 43h1M29 44h1M33 44h1M36 44h1M45 44h1M29 45h1M45 45h1M29 46h1M45 46h1M29 47h1M45 47h1M34 48h1M41 48h1M31 49h1M44 49h1M32 50h1M43 50h1M33 51h1M42 51h1M35 52h6" />
<path stroke="#101010" d="M50 25h2M36 26h8M48 26h1M52 26h1M44 27h2M47 27h1M52 27h1M51 28h1M33 29h10M49 29h2M32 30h1M43 30h1M48 30h1M31 31h1M44 31h1M47 31h1M28 32h1M31 32h1M44 32h1M47 32h1M28 33h1M32 33h1M43 33h1M47 33h1M29 34h1M33 34h1M42 34h1M46 34h1M30 35h1M34 35h2M40 35h2M45 35h1M31 36h1M36 36h4M44 36h1M32 37h1M43 37h1M33 38h1M42 38h1M32 39h1M43 39h1M38 40h2M44 40h1M40 41h1M45 41h1M41 42h1M45 42h1M38 43h1M42 43h1M46 43h1M38 44h2M42 44h1M46 44h1M33 45h1M36 45h2M39 45h1M42 45h1M46 45h1M33 46h1M37 46h2M42 46h1M46 46h1M34 47h1M41 47h1M46 47h1M30 48h1M35 48h1M40 48h1M45 48h1M30 49h1M36 49h4M45 49h1M31 50h1M44 50h1M32 51h1M43 51h1M33 52h2M41 52h2M35 53h6" />
<path stroke="#62a4e6" d="M49 26h2M35 27h2M38 27h1M48 27h2M33 28h1M31 29h1M30 30h1M29 32h1M36 38h2M35 39h1M34 40h1M33 41h1M32 42h1M39 43h1M31 44h1M36 46h1M39 46h1M43 47h1M42 48h1M41 49h1M38 50h3" />
<path stroke="#296abd" d="M32 27h1M37 27h1M39 27h4M50 27h1M30 28h1M34 28h12M47 28h3M29 29h1M32 29h1M44 29h3M48 29h1M31 30h1M45 30h2M30 31h1M45 31h2M30 32h1M45 32h2M29 33h3M44 33h2M30 34h3M43 34h2M31 35h3M42 35h2M32 36h3M41 36h2M36 37h4M34 38h2M38 38h4M33 39h1M36 39h7M32 40h1M35 40h1M40 40h4M31 41h1M34 41h1M42 41h2M33 42h1M42 42h3M30 43h1M32 43h1M43 43h2M30 44h1M32 44h1M43 44h2M30 45h3M38 45h1M43 45h2M30 46h3M43 46h2M30 47h4M42 47h1M44 47h1M31 48h3M43 48h2M32 49h4M40 49h1M42 49h2M33 50h5M41 50h2M34 51h8" />
<path stroke="#dedede" d="M33 27h2M31 28h2M30 29h1M29 30h1M29 31h1M34 39h1M33 40h1M32 41h1M36 41h1M39 41h1M31 42h1M31 43h1M34 43h1M41 43h1M34 46h1M41 46h1M36 48h1M39 48h1" />
<path stroke="#ffffff" d="M37 41h2M35 42h6M35 43h2M40 43h1M34 44h2M37 44h1M40 44h2M34 45h2M40 45h2M35 46h1M40 46h1M35 47h6M37 48h2" />
</svg>