<svg xmlns="http://www.w3.org/2000/svg" viewBox="0 -0.5 80 80" shape-rendering="crispEdges">
<metadata>Made with Pixels to Svg https://codepen.io/shshaw/pen/XbxvNj</metadata>
<path stroke="#101010" d="M31 27h18M30 28h1M49 28h1M30 29h1M49 29h1M31 30h7M42 30h7M38 31h1M41 31h1M38 32h1M41 32h1M38 33h1M41 33h1M38 34h1M41 34h1M38 35h1M41 35h1M37 36h2M41 36h2M43 37h2M45 38h1M46 39h1M40 40h2M47 40h1M42 41h1M47 41h1M43 42h1M48 42h1M40 43h1M44 43h1M48 43h1M40 44h2M44 44h1M48 44h1M35 45h1M38 45h2M41 45h1M44 45h1M48 45h1M31 46h1M35 46h1M39 46h2M44 46h1M48 46h1M31 47h1M36 47h1M43 47h1M48 47h1M32 48h1M37 48h1M42 48h1M47 48h1M32 49h1M38 49h4M47 49h1M33 50h1M46 50h1M34 51h1M45 51h1M35 52h2M43 52h2M37 53h6" />
<path stroke="#296abd" d="M31 28h1M41 28h1M43 28h5M39 34h1M39 35h1M37 37h5M35 38h2M40 38h4M34 39h1M38 39h7M33 40h1M37 40h1M42 40h4M33 41h1M36 41h1M44 41h3M32 42h1M35 42h1M44 42h3M32 43h1M34 43h1M45 43h2M32 44h1M34 44h1M45 44h2M32 45h3M40 45h1M45 45h2M32 46h3M45 46h2M32 47h4M44 47h1M46 47h1M33 48h3M45 48h2M34 49h4M42 49h1M44 49h2M35 50h5M43 50h2M36 51h8" />
<path stroke="#62a4e6" d="M32 28h1M36 28h5M42 28h1M39 31h1M39 32h1M39 33h1M38 38h2M37 39h1M36 40h1M35 41h1M34 42h1M41 43h1M33 44h1M38 46h1M41 46h1M45 47h1M44 48h1M43 49h1M40 50h3" />
<path stroke="#dedede" d="M33 28h3M37 38h1M35 39h2M34 40h2M34 41h1M38 41h1M41 41h1M33 42h1M33 43h1M36 43h1M43 43h1M36 46h1M43 46h1M38 48h1M41 48h1" />
<path stroke="#185294" d="M48 28h1M31 29h18M38 30h4M40 31h1M40 32h1M40 33h1M40 34h1M40 35h1M39 36h2M35 37h2M42 37h1M34 38h1M44 38h1M33 39h1M45 39h1M32 40h1M38 40h2M46 40h1M32 41h1M37 41h1M43 41h1M31 42h1M36 42h1M47 42h1M31 43h1M35 43h1M39 43h1M47 43h1M31 44h1M35 44h1M38 44h1M47 44h1M31 45h1M47 45h1M47 46h1M47 47h1M36 48h1M43 48h1M33 49h1M46 49h1M34 50h1M45 50h1M35 51h1M44 51h1M37 52h6" />
<path stroke="#ffffff" d="M39 41h2M37 42h6M37 43h2M42 43h1M36 44h2M39 44h1M42 44h2M36 45h2M42 45h2M37 46h1M42 46h1M37 47h6M39 48h2" />
</svg>