<svg xmlns="http://www.w3.org/2000/svg" viewBox="0 -0.5 80 80" shape-rendering="crispEdges">
<metadata>Made with Pixels to Svg https://codepen.io/shshaw/pen/XbxvNj</metadata>
<path stroke="#101010" d="M32 16h3M30 17h2M35 17h1M36 18h1M36 19h1M49 19h4M31 20h1M37 20h1M48 20h1M53 20h2M31 21h1M37 21h1M47 21h1M55 21h2M26 22h2M30 22h1M57 22h1M25 23h1M51 23h3M58 23h1M24 24h1M50 24h1M58 24h1M50 25h1M58 25h1M20 26h1M58 26h1M20 27h1M59 27h1M20 28h1M59 28h1M20 29h1M30 29h4M20 30h1M29 30h1M45 30h4M21 31h1M28 31h1M44 31h1M21 32h1M23 32h1M27 32h1M43 32h1M21 33h1M23 33h1M25 33h2M30 33h4M36 33h2M42 33h1M57 33h3M62 33h1M20 34h3M29 34h6M39 34h3M44 34h4M56 34h1M59 34h1M62 34h1M14 35h1M23 35h1M28 35h7M43 35h6M54 35h2M60 35h1M63 35h1M14 36h1M24 36h1M27 36h4M34 36h1M42 36h8M60 36h1M13 37h2M24 37h6M32 37h1M35 37h2M41 37h4M48 37h3M52 37h3M56 37h5M15 38h2M24 38h6M31 38h3M35 38h9M46 38h1M49 38h2M55 38h1M61 38h4M17 39h2M23 39h1M27 39h3M32 39h1M35 39h1M39 39h5M45 39h3M49 39h2M54 39h1M65 39h2M19 40h4M28 40h3M34 40h1M41 40h3M46 40h1M49 40h6M67 40h1M15 41h1M25 41h2M29 41h5M42 41h3M48 41h7M65 41h1M67 41h1M15 42h1M24 42h1M27 42h1M30 42h3M35 42h3M43 42h7M54 42h1M65 42h1M67 42h1M16 43h2M28 43h1M34 43h1M38 43h3M44 43h5M55 43h1M67 43h1M28 44h1M33 44h1M49 44h4M57 44h10M33 45h1M48 45h1M57 45h1M60 45h2M47 46h1M57 46h1M59 46h1M61 46h1M20 47h1M55 47h2M59 47h1M61 47h1M20 48h1M58 48h1M60 48h2M20 49h1M23 49h1M58 49h1M60 49h6M21 50h1M23 50h1M54 50h4M60 50h1M22 51h2M60 51h1M23 52h1M61 52h1M23 53h1M61 53h1M24 54h1M61 54h1M25 55h1M60 55h1M26 56h1M30 56h2M54 56h1M60 56h1M27 57h3M32 57h2M53 57h7M32 58h1M53 58h1M33 59h1M45 59h2M52 59h1M33 60h1M39 60h6M47 60h5M34 61h3M42 61h1M37 62h5" />
<path stroke="#b49c41" d="M43 16h4M41 17h2M46 17h1M45 18h3M28 19h2M48 19h1M28 20h3M28 21h3M29 22h1M42 23h1M27 25h1M54 25h2M26 26h2M54 26h2M26 27h2M54 27h2M30 28h5M45 28h5M28 29h2M35 29h1M43 29h8M22 30h1M28 30h1M36 30h1M42 30h3M49 30h3M59 30h1M22 31h2M27 31h1M36 31h3M41 31h3M52 31h1M58 31h2M22 32h1M25 32h2M35 32h8M52 32h1M58 32h5M22 33h1M39 33h3M53 33h1M60 33h2M53 34h1M60 34h2M53 35h1M61 35h2M52 36h2M61 36h2M61 37h2M27 43h1M27 44h1M27 45h2M39 45h2M28 46h2M40 46h2M50 46h4M60 46h1M29 47h3M40 47h3M53 47h2M60 47h1M41 48h5M54 48h1M59 48h1M43 49h3M59 49h1M58 50h1M28 51h1M53 51h6M29 52h2M53 52h8M28 53h4M39 53h4M52 53h9M39 54h6M51 54h10M27 55h1M40 55h6M51 55h4M58 55h2M27 56h3M40 56h4M52 56h2M41 57h5M33 58h3M43 58h4M34 59h11M34 60h5M37 61h5" />
<path stroke="#f6ffac" d="M32 17h3M30 18h6M31 19h3M49 20h4M48 21h7M50 22h7M56 23h1M22 25h1M21 26h2M21 27h2M21 28h2M21 29h1M25 42h2M24 43h2M49 45h4M48 46h2M47 47h2M47 48h1M24 49h1M24 50h1M24 51h2M24 52h3M24 53h3M25 54h1" />
<path stroke="#eee683" d="M43 17h3M34 19h1M32 20h1M47 22h3M34 23h7M48 23h3M54 23h2M22 24h1M31 24h14M30 25h14M29 26h12M42 26h1M23 27h1M29 27h1M34 27h6M41 27h1M23 28h1M36 28h3M40 28h1M42 28h1M22 29h1M37 29h1M39 29h1M41 29h1M21 30h1M51 32h1M51 33h1M51 34h2M52 35h1M19 42h2M19 43h2M26 43h1M35 43h3M19 44h3M23 44h1M38 44h2M20 45h2M23 45h4M34 45h4M23 46h5M33 46h6M23 47h6M32 47h8M23 48h18M25 49h17M46 49h1M48 49h1M25 50h21M47 50h1M49 50h1M26 51h2M31 51h13M46 51h1M48 51h1M27 52h1M34 52h5M51 57h1M48 58h4M49 59h3" />
<path stroke="#8b6a10" d="M47 17h1M28 18h2M38 18h7M48 18h1M27 19h1M30 19h1M37 19h1M45 19h3M27 20h1M27 21h1M38 22h1M46 22h1M22 23h3M43 23h3M21 24h1M51 24h5M21 25h1M26 25h1M51 25h3M56 25h1M25 26h1M52 26h2M56 26h1M25 27h1M31 27h3M29 28h1M60 28h2M59 29h1M62 29h1M23 30h1M27 30h1M34 30h1M60 30h1M63 30h1M24 31h3M34 31h1M49 31h1M60 31h1M63 31h1M24 32h1M34 32h1M50 32h1M63 32h1M35 33h1M38 33h1M50 33h1M50 34h1M57 34h2M51 35h1M56 35h4M51 36h1M54 36h6M63 36h1M63 37h1M19 41h3M23 41h1M18 42h1M21 42h1M23 42h1M34 42h1M18 43h1M21 43h2M18 44h1M22 44h1M41 44h1M19 45h1M22 45h1M29 45h1M41 45h1M53 45h1M58 45h2M20 46h1M30 46h3M42 46h1M54 46h1M58 46h1M43 47h4M52 47h1M57 47h2M22 48h1M53 48h1M55 48h3M53 49h5M59 50h1M29 51h2M59 51h1M28 52h1M31 52h1M39 52h4M38 53h1M43 53h2M38 54h1M45 54h1M28 55h2M39 55h1M46 55h1M55 55h3M44 56h3M55 56h5" />
<path stroke="#d5c562" d="M35 19h1M38 19h7M33 20h4M38 20h10M32 21h5M38 21h9M28 22h1M31 22h7M39 22h7M26 23h8M41 23h1M46 23h2M57 23h1M23 24h1M25 24h6M45 24h5M56 24h2M23 25h3M28 25h2M44 25h6M57 25h1M23 26h2M28 26h1M41 26h1M43 26h9M57 26h1M24 27h1M28 27h1M30 27h1M40 27h1M42 27h12M56 27h3M24 28h5M35 28h1M39 28h1M41 28h1M43 28h2M50 28h9M23 29h5M34 29h1M36 29h1M38 29h1M40 29h1M42 29h1M51 29h8M60 29h2M24 30h3M35 30h1M37 30h5M52 30h7M61 30h2M35 31h1M39 31h2M50 31h2M53 31h5M61 31h2M53 32h5M52 33h1M54 33h3M54 34h2M22 41h1M22 42h1M23 43h1M24 44h3M34 44h4M40 44h1M38 45h1M21 46h2M39 46h1M21 47h2M49 47h3M21 48h1M46 48h1M48 48h5M21 49h2M42 49h1M47 49h1M49 49h4M22 50h1M46 50h1M48 50h1M50 50h4M44 51h2M47 51h1M49 51h4M32 52h2M43 52h10M27 53h1M32 53h6M45 53h7M26 54h12M46 54h5M26 55h1M30 55h9M47 55h4M32 56h8M47 56h5M34 57h7M46 57h5M52 57h1M36 58h7M47 58h1M52 58h1M47 59h2" />
<path stroke="#9c7b29" d="M30 30h4M29 31h3M45 31h4M28 32h2M44 32h6M24 33h1M27 33h2M43 33h3M49 33h1M14 34h6M23 34h5M37 34h2M42 34h1M24 35h3M25 36h2M15 37h4M23 37h1M51 37h1M55 37h1M17 38h7M51 38h4M56 38h4M21 39h2M26 39h1M52 39h2M55 39h5M64 39h1M55 40h4M16 41h3M55 41h9M16 42h2M51 42h2M55 42h9M30 43h3M50 43h4M56 43h9M66 43h1M44 44h5M53 44h3M54 45h3M55 46h2M62 46h2M62 47h4M62 48h4" />
<path stroke="#bd9c4a" d="M32 31h2M30 32h4M34 33h1M46 33h3M35 34h2M48 34h2M20 35h3M36 35h1M39 35h3M49 35h2M15 36h1M19 36h5M36 36h1M40 36h1M50 36h1M19 37h4M40 37h1M24 39h2M60 39h4M23 40h4M36 40h1M39 40h2M59 40h8M24 41h1M27 41h1M35 41h1M40 41h1M64 41h1M28 42h1M40 42h2M64 42h1M29 43h1M33 43h1M41 43h2M65 43h1M29 44h4M42 44h2M30 45h3M42 45h6M43 46h4" />
<path stroke="#735200" d="M29 33h1M28 34h1M43 34h1M13 35h1M27 35h1M35 35h1M42 35h1M13 36h1M35 36h1M41 36h1M37 37h2M60 38h1M19 39h2M36 39h3M51 39h1M16 40h3M27 40h1M35 40h1M28 41h1M34 41h1M41 41h1M66 41h1M29 42h1M33 42h1M42 42h1M50 42h1M53 42h1M66 42h1M43 43h1M49 43h1M54 43h1M56 44h1M62 45h2M64 46h2M66 47h1M66 48h1" />
<path stroke="#debd6a" d="M15 35h5M37 35h2M16 36h3M37 36h3M39 37h1M37 40h2M36 41h4M38 42h2" />
<path stroke="#ffffff" d="M31 36h3M30 37h1M34 37h1M45 37h3M30 38h1M34 38h1M44 38h1M48 38h1M30 39h1M34 39h1M44 39h1M48 39h1M31 40h3M44 40h1M48 40h1M45 41h3" />
<path stroke="#6a6a6a" d="M31 37h1M33 37h1M45 38h1M47 38h1M31 39h1M33 39h1M45 40h1M47 40h1" />
</svg>