<svg xmlns="http://www.w3.org/2000/svg" viewBox="0 -0.5 80 80" shape-rendering="crispEdges">
<metadata>Made with Pixels to Svg https://codepen.io/shshaw/pen/XbxvNj</metadata>
<path stroke="#414a9c" d="M17 12h5M22 13h2M35 15h1M47 15h1M59 15h5M34 16h1M36 16h1M46 16h1M48 16h1M57 16h2M34 17h1M36 17h1M46 17h1M48 17h1M56 17h1M34 18h1M36 18h1M45 18h1M55 18h1M33 19h1M37 19h1M44 19h1M54 19h1M14 20h2M19 20h1M33 20h1M37 20h1M44 20h1M54 20h1M18 21h1M22 21h1M33 21h1M37 21h1M43 21h1M53 21h1M60 21h1M33 22h1M37 22h1M48 22h1M53 22h1M60 22h1M64 22h2M32 23h1M37 23h5M47 23h1M53 23h1M60 23h1M63 23h1M32 24h1M35 24h2M52 24h1M58 24h1M61 24h1M32 25h2M32 26h1M47 27h2M17 28h1M19 28h2M29 28h1M49 28h1M18 29h1M33 29h1M42 29h1M50 29h1M34 30h1M41 30h1M50 30h1M34 31h1M41 31h1M46 31h1M31 32h1M45 32h1M59 32h1M28 33h1M32 33h1M60 33h1M31 34h1M44 34h1M46 34h1M59 34h1M46 36h1M44 37h1M32 38h1M32 39h1M31 40h1M29 43h4M29 44h1M26 45h2M30 45h1M47 45h1M28 46h1M48 46h1M29 47h1M46 48h2M35 49h2M44 49h1M37 50h2M46 50h1M50 51h1M30 52h3M35 52h1M44 52h1M28 53h2M36 53h1M27 54h1M33 54h1M26 55h1M34 55h1M26 56h1M37 56h1M26 63h2M27 64h3M27 65h1" />
<path stroke="#101010" d="M17 13h1M18 14h1M24 14h1M19 15h1M25 15h1M19 16h1M26 16h1M63 16h1M20 17h1M26 17h1M62 17h1M20 18h1M27 18h1M48 18h1M62 18h1M20 19h1M27 19h1M48 19h1M61 19h1M27 20h1M48 20h1M61 20h1M14 21h1M16 21h2M27 21h1M48 21h1M14 22h1M18 22h4M28 22h1M42 22h1M14 23h1M28 23h1M42 23h1M65 23h1M15 24h1M28 24h1M41 24h1M47 24h1M62 24h1M65 24h1M15 25h1M28 25h1M47 25h1M52 25h1M59 25h3M65 25h1M16 26h1M28 26h1M47 26h1M52 26h1M65 26h1M17 27h2M28 27h1M31 27h1M52 27h1M65 27h1M27 28h1M30 28h1M52 28h1M64 28h1M27 29h1M30 29h1M52 29h1M64 29h1M19 30h2M25 30h2M29 30h1M52 30h1M63 30h1M21 31h4M29 31h1M51 31h1M53 31h1M62 31h1M23 32h1M29 32h1M50 32h1M53 32h1M60 32h2M24 33h1M29 33h1M42 33h1M50 33h1M54 33h2M25 34h4M30 34h1M45 34h1M50 34h1M56 34h3M27 35h1M30 35h1M32 35h3M39 35h6M49 35h1M51 35h1M55 35h2M28 36h1M30 36h1M33 36h1M35 36h4M44 36h1M47 36h2M52 36h3M29 37h2M32 37h2M42 37h1M45 37h2M51 37h1M20 38h1M30 38h2M33 38h1M42 38h2M49 38h2M23 39h1M34 39h1M40 39h1M47 39h2M23 40h1M35 40h5M48 40h1M21 41h2M31 41h1M48 41h1M18 42h3M22 42h1M31 42h1M48 42h1M23 43h1M47 43h1M57 43h1M20 44h4M26 44h3M47 44h1M57 44h1M62 44h1M19 45h1M24 45h2M33 45h3M58 45h2M62 45h1M26 46h1M31 46h2M34 46h1M36 46h2M43 46h2M56 46h2M60 46h3M31 47h1M34 47h1M38 47h6M45 47h1M48 47h1M22 48h1M29 48h1M31 48h1M35 48h1M43 48h1M45 48h1M48 48h1M22 49h1M29 49h2M42 49h1M49 49h1M52 49h1M23 50h1M28 50h1M34 50h1M39 50h3M44 50h1M47 50h3M51 50h1M24 51h4M34 51h1M40 51h1M44 51h2M51 51h1M33 52h1M39 52h2M50 52h1M33 53h1M37 53h3M43 53h1M51 53h1M38 54h1M43 54h1M51 54h1M37 55h1M43 55h1M51 55h1M35 56h2M44 56h1M46 56h1M51 56h1M25 57h1M38 57h1M45 57h2M51 57h1M25 58h1M38 58h1M50 58h1M25 59h1M38 59h1M47 59h1M50 59h1M25 60h1M38 60h1M47 60h1M49 60h1M26 61h1M37 61h1M48 61h1M26 62h1M37 62h1M25 63h1M36 63h1M25 64h1M34 64h2M25 65h1M28 65h6M24 66h1M26 66h2M24 67h2" />
<path stroke="#cddeff" d="M18 13h4M19 14h5M21 15h4M23 16h2M35 16h1M47 16h1M59 16h4M24 17h2M35 17h1M47 17h1M57 17h4M25 18h1M35 18h1M46 18h1M56 18h3M34 19h2M45 19h2M55 19h3M34 20h2M45 20h2M55 20h2M34 21h2M44 21h2M54 21h3M15 22h1M34 22h1M43 22h3M54 22h2M15 23h2M33 23h2M43 23h3M54 23h2M64 23h1M16 24h3M33 24h2M37 24h4M42 24h3M54 24h1M63 24h2M16 25h4M35 25h10M62 25h3M17 26h2M33 26h12M62 26h2M32 27h13M31 28h4M36 28h4M41 28h2M31 29h1M34 29h1M36 29h3M40 29h2M30 30h1M35 30h4M40 30h1M35 31h6M39 32h1M32 40h3M32 41h4M32 42h6M33 43h4M30 44h3M31 45h2M45 52h2M45 53h2M28 54h2M27 55h4M27 56h4M28 57h2" />
<path stroke="#8b9ce6" d="M20 15h1M20 16h2M21 17h3M61 17h1M21 18h4M26 18h1M59 18h3M21 19h6M36 19h1M47 19h1M58 19h3M20 20h7M36 20h1M47 20h1M57 20h4M15 21h1M19 21h3M23 21h4M36 21h1M47 21h1M57 21h3M16 22h2M22 22h6M36 22h1M46 22h2M56 22h4M17 23h11M36 23h1M46 23h1M56 23h4M20 24h8M46 24h1M53 24h1M55 24h3M59 24h2M20 25h8M45 25h2M53 25h6M19 26h9M45 26h2M53 26h9M19 27h9M45 27h2M53 27h10M64 27h1M18 28h1M21 28h6M28 28h1M35 28h1M40 28h1M45 28h4M53 28h11M19 29h8M28 29h2M35 29h1M39 29h1M46 29h4M53 29h11M21 30h4M27 30h2M39 30h1M46 30h4M53 30h10M25 31h4M30 31h1M47 31h4M52 31h1M54 31h8M24 32h5M30 32h1M35 32h4M46 32h4M51 32h2M54 32h5M25 33h3M30 33h2M35 33h5M44 33h6M51 33h3M56 33h4M29 34h1M32 34h12M47 34h3M51 34h5M28 35h2M35 35h4M45 35h4M50 35h1M52 35h3M29 36h1M45 36h1M49 36h3M47 37h4M44 38h5M41 39h6M40 40h8M37 41h11M38 42h10M38 43h9M34 44h13M36 45h11M27 46h1M29 46h2M38 46h5M45 46h3M27 47h2M30 47h1M46 47h2M26 48h3M30 48h1M23 49h6M45 49h4M24 50h4M35 50h2M45 50h1M35 51h3M46 51h4M34 52h1M47 52h3M30 53h3M34 53h2M44 53h1M47 53h4M30 54h3M34 54h2M44 54h4M50 54h1M31 55h3M44 55h3M31 56h4M45 56h1M26 57h2M30 57h5M26 58h9M27 59h7M29 60h3M33 62h1M32 63h1M34 63h1M26 64h1M33 64h1M26 65h1M25 66h1" />
<path stroke="#b4cdff" d="M22 16h1M25 16h1M47 18h1M46 21h1M35 22h1M35 23h1M19 24h1M45 24h1M34 25h1M64 26h1M63 27h1M33 39h1M36 41h1M37 43h1M33 44h1M28 45h2" />
<path stroke="#5a5a5a" d="M43 28h2M32 29h1M45 29h1M31 30h1M33 32h1M40 32h1M42 32h1M44 32h1M33 33h1M40 33h1M43 33h1M20 39h1M19 40h1M18 41h1M60 41h1M61 42h1M61 43h1M20 46h2M22 47h1M26 47h1M23 48h3M48 54h2M47 55h1M50 55h1M47 58h1" />
<path stroke="#c5cdd5" d="M43 29h2M45 30h1M41 33h1M31 35h1M32 36h1M43 36h1M21 39h2M20 40h3M19 41h2M58 42h3M58 43h1M58 44h2M60 45h1M24 46h2M23 47h3M48 58h1M48 59h2M48 60h1" />
<path stroke="#ffffff" d="M32 30h2M42 30h3M31 31h3M42 31h4M32 32h1M34 32h1M41 32h1M43 32h1M34 33h1M31 36h1M42 36h1M31 37h1M43 37h1M59 43h2M60 44h2M20 45h4M61 45h1M22 46h2M48 55h2M47 56h4M47 57h4M49 58h1" />
<path stroke="#102083" d="M22 33h1M22 34h1M22 35h1M58 35h1M21 36h1M58 36h1M21 37h1M58 37h1M21 38h2M28 38h2M58 38h1M26 39h2M49 39h2M59 39h1M25 40h1M51 40h2M59 40h1M25 41h1M53 41h1M58 41h2M54 42h1M57 42h1M55 43h1M55 44h1M54 47h2M53 48h1" />
<path stroke="#4a5abd" d="M23 33h1M23 34h2M25 35h2M22 36h1M26 36h2M55 36h1M52 37h3M23 38h1M27 38h1M51 38h1M24 39h2M28 39h4M24 40h1M26 40h5M49 40h2M53 40h1M23 41h2M26 41h5M49 41h4M54 41h1M23 42h8M49 42h5M55 42h1M24 43h5M48 43h7M56 43h1M24 44h2M48 44h7M56 44h1M48 45h10M49 46h7M49 47h5M49 48h4M50 49h2M50 50h1" />
<path stroke="#6283e6" d="M23 35h2M57 35h1M23 36h3M56 36h2M22 37h7M55 37h3M24 38h3M52 38h6M51 39h8M54 40h5M55 41h3M56 42h1" />
<path stroke="#d55a39" d="M34 36h1M39 36h3M34 37h8M36 38h1M40 38h2M39 39h1" />
<path stroke="#ff946a" d="M34 38h2M37 38h3M35 39h4" />
<path stroke="#737bcd" d="M35 46h1M35 47h3M36 48h7M37 49h5M38 51h2M36 52h3M36 54h2M35 55h2M35 57h3M35 58h3M26 59h1M34 59h4M26 60h3M32 60h6M27 61h10M27 62h6M34 62h3M28 63h4M33 63h1M35 63h1M30 64h3" />
</svg>