<svg xmlns="http://www.w3.org/2000/svg" viewBox="0 -0.5 80 80" shape-rendering="crispEdges">
<metadata>Made with Pixels to Svg https://codepen.io/shshaw/pen/XbxvNj</metadata>
<path stroke="#6a4194" d="M38 7h3M37 8h1M41 8h1M36 9h1M39 9h2M44 9h5M36 10h1M38 10h1M42 10h2M49 10h1M36 11h1M38 11h1M41 11h1M38 12h1M21 13h1M21 14h1M22 15h1M27 15h1M23 16h1M31 16h1M34 16h2M23 17h1M27 17h2M46 19h2M28 20h2M48 20h1M62 20h3M30 21h1M39 21h1M48 21h1M60 21h2M29 22h1M58 22h2M29 23h1M25 24h1M50 24h1M25 25h1M37 25h1M24 26h1M33 26h1M37 26h1M24 27h1M29 27h1M32 27h1M34 27h1M36 27h1M24 28h1M28 28h1M31 28h1M24 29h1M28 29h1M30 29h1M52 29h1M54 29h1M30 30h1M29 31h1M34 35h1M34 39h1M19 40h1M35 40h1M19 41h1M35 41h1M34 42h1M33 43h2M32 44h1M35 44h3M31 45h1M38 45h2M30 46h1M39 46h2M30 47h5M39 47h1M41 47h1M35 48h2M38 48h1M42 48h1M37 49h2M42 49h1M38 50h1M29 51h4M39 51h1M33 52h2M40 52h1M35 53h1M40 53h1M36 54h1M41 54h1M36 55h1M28 56h3M37 56h1M31 57h1M37 57h1M32 58h1M37 58h1M32 59h1M32 60h1M25 61h3M28 62h1M13 63h1M28 63h1M13 64h1M19 64h3M13 65h1M18 65h1M13 66h1M18 66h1M13 67h1M14 68h1M14 69h1" />
<path stroke="#a46ac5" d="M38 8h3M37 9h2M37 10h1M37 11h1M37 12h1M33 15h3M26 16h3M33 16h1M30 17h3M25 18h2M30 18h3M25 19h3M31 19h3M26 20h2M31 20h6M26 21h4M31 21h8M27 22h1M30 22h9M31 23h7M32 24h6M33 25h4M38 25h1M34 26h3M38 26h1M42 26h1M54 26h1M35 27h1M37 27h3M41 27h2M54 27h1M36 28h6M53 28h1M35 29h7M53 29h1M36 30h6M51 30h8M36 31h6M51 31h2M35 32h6M58 32h1M34 33h6M59 33h1M33 34h1M40 34h1M59 34h1M35 35h5M59 35h1M36 36h4M58 36h1M25 37h3M36 37h4M58 37h1M24 38h3M31 38h1M35 38h5M57 38h1M22 39h3M35 39h6M47 39h1M57 39h1M20 40h3M37 40h4M46 40h2M57 40h1M21 41h1M38 41h4M44 41h3M58 41h1M39 42h3M43 42h2M58 42h1M39 43h4M59 43h1M39 44h4M59 44h1M40 45h3M44 45h3M41 46h3M46 46h3M40 47h1M42 47h2M48 47h2M39 48h3M43 48h1M49 48h3M39 49h3M43 49h1M50 49h4M37 50h1M39 50h4M52 50h4M36 51h3M40 51h3M35 52h5M41 52h2M34 53h1M36 53h4M41 53h1M34 54h2M37 54h4M32 55h4M37 55h4M31 56h6M38 56h2M28 57h3M32 57h5M38 57h1M28 58h4M33 58h4M28 59h4M33 59h3M27 60h5M28 61h3M24 62h1M26 62h2M29 62h1M16 63h5M23 63h2M26 63h2M15 64h4M22 64h2M25 64h3M14 65h4M19 65h5M25 65h3M14 66h4M19 66h4M24 66h3M14 67h5M23 67h4M15 68h12M15 69h11M16 70h10M18 71h6" />
<path stroke="#101010" d="M28 10h2M27 11h1M30 11h1M45 11h4M22 12h2M27 12h1M30 12h1M33 12h4M40 12h1M43 12h2M24 13h1M27 13h1M31 13h2M37 13h1M40 13h1M42 13h1M24 14h1M28 14h1M33 14h3M38 14h2M42 14h1M25 15h2M28 15h1M32 15h1M36 15h1M41 15h1M29 16h1M32 16h1M37 16h4M26 17h1M29 17h1M33 17h1M24 18h1M27 18h1M29 18h1M33 18h1M24 19h1M28 19h1M30 19h1M34 19h3M25 20h1M30 20h1M37 20h2M44 20h2M25 21h1M40 21h4M65 21h1M26 22h1M39 22h1M49 22h1M65 22h1M26 23h1M38 23h1M50 23h1M56 23h2M62 23h3M26 24h1M38 24h1M46 24h4M55 24h1M59 24h3M44 25h2M54 25h1M57 25h2M43 26h1M53 26h1M56 26h1M62 26h4M43 27h1M53 27h1M55 27h1M60 27h2M66 27h1M35 28h1M42 28h1M52 28h1M54 28h1M58 28h2M66 28h1M34 29h1M42 29h1M51 29h1M55 29h3M62 29h4M25 30h1M32 30h2M42 30h1M50 30h1M59 30h3M25 31h1M30 31h2M42 31h1M49 31h1M53 31h6M25 32h1M41 32h1M48 32h1M51 32h2M24 33h1M40 33h1M48 33h1M50 33h1M24 34h1M34 34h6M41 34h1M47 34h1M50 34h1M23 35h1M33 35h1M40 35h1M42 35h2M47 35h1M49 35h1M22 36h1M33 36h1M35 36h1M40 36h1M44 36h2M47 36h1M49 36h1M21 37h1M32 37h1M35 37h1M40 37h1M46 37h1M49 37h1M20 38h1M27 38h2M32 38h1M34 38h1M40 38h1M46 38h1M48 38h1M19 39h1M25 39h2M29 39h3M33 39h1M41 39h1M46 39h1M48 39h1M18 40h1M23 40h2M32 40h1M41 40h1M44 40h2M48 40h1M18 41h1M20 41h1M22 41h1M30 41h2M42 41h2M47 41h1M19 42h3M29 42h1M42 42h1M45 42h2M28 43h1M43 43h2M27 44h1M43 44h4M26 45h1M43 45h1M47 45h2M59 45h3M26 46h1M44 46h2M49 46h1M58 46h1M62 46h2M25 47h1M44 47h1M46 47h2M50 47h2M56 47h2M64 47h1M25 48h1M29 48h1M44 48h1M48 48h1M52 48h4M59 48h3M65 48h1M25 49h1M29 49h1M44 49h1M49 49h1M58 49h1M62 49h1M65 49h1M25 50h1M29 50h1M43 50h1M50 50h2M56 50h2M63 50h2M25 51h1M28 51h1M43 51h1M52 51h4M26 52h1M28 52h1M43 52h1M26 53h1M28 53h1M42 53h1M26 54h1M28 54h1M42 54h1M27 55h1M41 55h1M27 56h1M40 56h1M27 57h1M39 57h1M18 58h4M27 58h1M38 58h1M16 59h2M22 59h2M27 59h1M36 59h2M15 60h1M24 60h1M26 60h1M33 60h3M14 61h1M24 61h1M31 61h2M14 62h1M25 62h1M30 62h1M25 63h1M29 63h1M24 64h1M28 64h1M24 65h1M28 65h1M23 66h1M27 66h1M19 67h4M27 67h1M27 68h1M26 69h1M15 70h1M26 70h1M16 71h2M24 71h2M18 72h6" />
<path stroke="#c58be6" d="M44 10h2M28 11h2M42 11h3M28 12h2M41 12h2M22 13h2M28 13h3M33 13h4M41 13h1M22 14h2M29 14h4M36 14h2M40 14h2M23 15h2M29 15h3M37 15h4M24 16h2M30 16h1M24 17h2M28 22h1M40 22h4M30 23h1M39 23h6M58 23h2M39 24h5M56 24h3M39 25h5M55 25h2M39 26h3M55 26h1M40 27h1M60 28h2M58 29h4M29 30h1M35 30h1M35 31h1M50 31h1M49 32h2M49 33h1M48 34h2M48 35h1M48 36h1M47 37h2M47 38h1M52 39h1M50 40h2M38 42h1M52 43h2M47 44h5M59 46h3M58 47h4M56 48h3M54 49h4M33 54h1M16 60h1M15 61h1M15 62h1M23 62h1M14 63h2M21 63h2M14 64h1" />
<path stroke="#eed5ff" d="M46 10h3M46 20h2M44 21h4M62 21h3M44 22h5M60 22h5M45 23h5M60 23h2M44 24h2M62 27h4M62 28h4M51 33h1M50 35h1M50 36h2M50 37h3M49 38h4M49 39h3M49 40h1M48 41h4M47 42h6M45 43h7M52 44h2M49 45h5M50 46h4M52 47h1M62 47h2M62 48h3M63 49h2" />
<path stroke="#d5acf6" d="M27 23h2M27 24h5M26 25h7M25 26h8M25 27h4M30 27h2M25 28h3M29 28h2M25 29h3M29 29h1M26 30h3M34 30h1M26 31h3M32 31h3M26 32h9M25 33h9M25 34h8M24 35h9M23 36h10M22 37h3M28 37h4M55 37h2M21 38h3M29 38h2M53 38h2M20 39h2M36 40h1M36 41h2M35 42h3M55 42h2M35 43h4M54 43h1M33 44h2M38 44h1M32 45h6M31 46h8M35 47h4M30 48h5M37 48h1M30 49h7M30 50h7M33 51h3M29 52h4M29 53h5M29 54h4M28 55h4M18 59h4M17 60h7M16 61h8M16 62h7" />
<path stroke="#ffffff" d="M33 27h1M32 28h3M33 29h1M31 30h1M53 32h5M45 33h2M52 33h7M44 34h3M51 34h8M44 35h3M51 35h8M52 36h6M53 37h2M57 37h1M55 38h2M53 39h4M52 40h5M52 41h6M53 42h2M57 42h1M55 43h4M54 44h5M54 45h5M54 46h4M53 47h3" />
<path stroke="#bd3931" d="M31 29h2" />
<path stroke="#7b7b7b" d="M43 31h1M44 32h3M47 33h1M46 36h1" />
<path stroke="#d5d5d5" d="M42 32h2M41 33h4M42 34h2" />
<path stroke="#ac6200" d="M33 40h2M32 41h1M33 42h1M29 43h2M31 44h1M27 46h2M29 47h1M26 49h3M27 52h1" />
<path stroke="#f6de4a" d="M33 41h2M30 42h3M31 43h2M28 44h3M27 45h4M29 46h1M26 47h3M26 48h3" />
<path stroke="#e6a439" d="M26 50h3M26 51h2M27 53h1M27 54h1" />
</svg>