<svg xmlns="http://www.w3.org/2000/svg" viewBox="0 -0.5 80 80" shape-rendering="crispEdges">
<metadata>Made with Pixels to Svg https://codepen.io/shshaw/pen/XbxvNj</metadata>
<path stroke="#101010" d="M23 20h1M31 21h2M25 22h1M33 22h1M25 23h1M34 23h1M26 24h1M34 24h1M27 25h2M35 25h1M23 26h1M35 26h1M22 27h1M36 27h1M36 28h1M36 29h1M37 30h1M48 30h3M37 31h1M46 31h2M51 31h3M18 32h1M37 32h1M45 32h1M54 32h1M17 33h1M26 33h1M38 33h1M55 33h2M27 34h1M38 34h1M57 34h2M59 35h1M17 36h1M39 36h1M58 36h1M18 37h1M24 37h3M40 37h1M55 37h1M58 37h1M19 38h2M28 38h1M55 38h1M21 39h1M56 39h1M22 40h2M56 40h1M24 41h3M56 41h1M27 42h1M56 42h1M57 44h1M57 45h1M26 46h1M58 46h1M26 47h1M58 47h1M26 48h1M59 48h1M26 49h1M60 49h1M26 50h1M54 50h1M59 50h1M25 51h1M43 51h1M54 51h1M56 51h2M61 51h1M25 52h1M43 52h1M54 52h1M58 52h3M25 53h1M43 53h1M54 53h1M24 54h2M43 54h1M53 54h1M24 55h1M30 55h1M42 55h1M47 55h1M53 55h1M24 56h1M29 56h1M42 56h1M47 56h1M52 56h1M25 57h4M42 57h1M48 57h4M41 58h1M37 59h4" />
<path stroke="#7b4a18" d="M22 21h1M22 22h1M30 22h1M21 23h1M30 23h1M21 24h1M29 24h1M21 25h1M29 25h1M21 26h1M29 26h2M21 27h1M23 28h3M22 29h3M21 30h4M32 30h2M21 31h3M27 31h7M19 32h9M31 32h2M18 33h7M31 33h1M44 33h1M53 33h2M20 34h6M31 34h3M44 34h1M21 35h6M30 35h6M38 35h2M44 35h1M20 36h17M40 36h2M43 36h1M57 36h1M20 37h3M28 37h8M42 37h2M23 38h1M29 38h5M56 38h2M22 39h5M29 39h3M24 40h10M29 41h5M28 42h4M28 43h5M56 43h1M28 44h5M51 44h1M29 45h2M32 45h2M51 45h2M29 46h2M52 46h1M30 47h1M52 47h1M30 48h1M44 48h1M46 48h1M52 48h1M44 49h2M53 49h1M43 50h2M53 50h1M55 50h1M61 50h1M60 51h1M49 52h1M53 52h1M26 53h1M29 53h1M41 53h1M49 53h2M52 53h2M26 54h4M38 54h1M40 54h3M49 54h4M25 55h5M38 55h4M48 55h5M26 56h1M28 56h1M38 56h4M48 56h1M50 56h2M39 57h2M37 58h1M39 58h2" />
<path stroke="#eed57b" d="M23 21h1M23 22h2M32 22h1M24 23h1M31 23h2M24 24h2M30 24h1M32 24h1M24 25h2M30 25h1M33 26h1M29 27h1M33 27h1M29 28h1M33 28h1M26 29h4M33 29h1M25 30h6M25 31h2M48 31h2M47 32h1M50 32h3M45 33h1M48 33h4M46 34h7M45 35h3M49 35h1M51 35h1M45 36h2M48 36h1M50 36h1M49 37h1M51 37h1M41 38h5M41 39h6M40 40h7M38 41h8M35 42h11M33 43h12M34 44h11M34 45h10M28 46h1M31 46h6M38 46h5M29 47h1M31 47h5M37 47h1M39 47h2M33 48h4M38 48h1" />
<path stroke="#4a2000" d="M24 21h1M23 23h1M23 24h1M31 24h1M22 25h2M31 25h1M22 26h1M31 26h2M30 27h3M21 28h1M30 28h3M21 29h1M30 29h2M20 30h1M20 31h1M28 32h2M25 33h1M19 37h1M23 37h1M21 38h2M27 41h2M26 42h1M27 43h1M27 44h1M27 45h1M46 49h1M32 50h2M45 50h2M32 51h1M34 51h2M44 51h1M47 51h1M31 52h1M36 52h1M47 52h1M31 53h1M36 53h1M48 53h1M30 54h1M37 54h1M48 54h1M37 55h1M25 56h1M27 56h1M37 56h1M49 56h1M36 57h1M41 57h1M36 58h1M38 58h1" />
<path stroke="#ac7b31" d="M31 22h1M22 23h1M26 25h1M32 25h1M24 26h1M23 27h1M25 27h2M28 27h1M28 28h1M25 29h1M31 30h1M24 31h1M50 31h1M32 33h1M52 33h1M34 34h1M36 35h1M54 36h1M44 37h2M56 37h2M24 38h1M26 38h1M46 38h2M32 39h1M34 40h1M33 42h2M46 42h1M50 42h1M46 43h1M48 43h1M51 43h1M33 44h1M47 44h3M31 45h1M50 45h1M57 46h1M57 47h1M58 48h1M31 49h1M35 49h1M58 49h1M35 50h1M36 51h1M27 52h1M37 57h2" />
<path stroke="#cd9c62" d="M33 23h1M22 24h1M33 24h1M33 25h2M25 26h2M34 26h1M24 27h1M34 27h2M22 28h1M34 28h2M32 29h1M34 29h2M34 30h3M34 31h3M33 32h4M46 32h1M48 32h2M53 32h1M33 33h5M46 33h2M35 34h3M45 34h1M53 34h4M37 35h1M48 35h1M50 35h1M52 35h7M37 36h2M44 36h1M47 36h1M49 36h1M51 36h3M55 36h2M36 37h4M41 37h1M46 37h3M50 37h1M52 37h3M34 38h7M48 38h7M27 39h2M33 39h8M47 39h9M35 40h5M47 40h9M34 41h4M46 41h10M32 42h1M47 42h3M51 42h5M45 43h1M47 43h1M49 43h2M52 43h4M45 44h2M50 44h1M52 44h5M28 45h1M44 45h6M53 45h4M27 46h1M43 46h9M53 46h4M27 47h2M41 47h11M53 47h4M27 48h3M31 48h2M39 48h5M45 48h1M47 48h5M53 48h5M27 49h4M32 49h3M36 49h8M47 49h6M54 49h4M59 49h1M27 50h5M34 50h1M36 50h7M47 50h6M56 50h3M60 50h1M26 51h6M37 51h6M48 51h6M58 51h2M26 52h1M28 52h3M37 52h6M48 52h1M50 52h3M27 53h2M30 53h1M37 53h4M42 53h1M51 53h1M39 54h1" />
<path stroke="#f6ee94" d="M27 26h2M27 27h1M26 28h2M37 46h1M36 47h1M38 47h1M37 48h1" />
<path stroke="#8bbdee" d="M30 32h1M29 33h2M29 34h2M28 35h2" />
<path stroke="#ffffff" d="M27 33h1M27 37h1M25 38h1M27 38h1" />
<path stroke="#7b5a52" d="M28 33h1M19 34h1" />
<path stroke="#ac3941" d="M17 34h2M17 35h1M20 35h1" />
<path stroke="#de4a41" d="M26 34h1M28 34h1M27 35h1M18 36h2" />
<path stroke="#ffa47b" d="M18 35h2" />
</svg>