<svg xmlns="http://www.w3.org/2000/svg" viewBox="0 -0.5 80 80" shape-rendering="crispEdges">
<metadata>Made with Pixels to Svg https://codepen.io/shshaw/pen/XbxvNj</metadata>
<path stroke="#087352" d="M34 16h2M33 17h1M36 17h1M35 18h1M29 19h2M34 19h1M28 20h1M33 20h1M26 21h2M25 22h1M22 25h1M29 25h2M52 25h2M21 26h1M28 26h2M49 26h1M21 27h1M27 27h2M30 27h1M46 27h1M20 28h1M30 28h1M44 28h1M19 29h1M42 29h1M19 30h1M28 30h1M19 31h1M27 31h1M20 32h1M20 33h1M30 34h1M31 36h1M31 37h1M30 38h1M29 39h2M28 40h3M28 41h4M30 42h3M28 52h1" />
<path stroke="#084a41" d="M32 17h1M31 18h1M32 21h1M32 22h1M24 23h1M31 23h1M23 24h1M30 24h1M31 25h1M54 25h4M31 26h1M50 26h2M47 27h1M29 29h1M29 30h1M40 30h1M29 31h1M38 31h1M30 32h1M23 33h4M30 33h1M21 34h2M35 34h1M21 35h1M35 35h1M47 37h3M43 39h1M27 41h1M55 41h2M27 42h3M52 42h3M30 43h2M49 43h3M44 44h5M40 45h4" />
<path stroke="#7be6c5" d="M34 17h1M32 18h1M31 19h1M29 20h2M28 21h2M27 22h2M26 23h2M25 24h3M24 25h3M23 26h3M22 27h3M22 28h2M21 29h2M21 30h1M23 34h1M25 34h2M26 35h3M28 36h1" />
<path stroke="#4abd73" d="M35 17h1M33 18h2M32 19h2M31 20h2M30 21h2M26 22h1M29 22h3M25 23h1M28 23h3M24 24h1M28 24h2M23 25h1M27 25h2M22 26h1M26 26h2M30 26h1M52 26h4M25 27h2M29 27h1M49 27h4M21 28h1M24 28h6M46 28h4M20 29h1M23 29h6M44 29h3M51 29h2M20 30h1M22 30h6M42 30h3M49 30h1M20 31h7M28 31h1M40 31h3M21 32h9M38 32h3M21 33h2M27 33h3M37 33h3M29 34h1M36 34h3M30 35h1M36 35h3M29 36h1M36 36h2M28 37h2M37 37h1M28 38h2M37 38h1M28 39h1M36 39h1M32 40h1M35 40h2M34 41h2M34 42h1M26 52h1" />
<path stroke="#000000" d="M31 24h1M58 25h1M59 26h1M48 27h1M56 27h3M45 28h1M54 28h2M43 29h1M53 29h1M41 30h1M50 30h1M52 30h1M39 31h1M52 31h1M37 32h1M51 32h1M36 33h1M50 33h1M27 34h2M48 34h2M20 35h1M29 35h1M46 35h2M18 36h1M30 36h1M35 36h1M45 36h1M17 37h1M23 37h1M25 37h1M30 37h1M36 37h1M45 37h1M17 38h1M24 38h2M31 38h1M36 38h1M45 38h2M49 38h1M18 39h1M25 39h1M31 39h2M35 39h1M44 39h1M47 39h2M19 40h1M31 40h1M33 40h2M43 40h1M45 40h2M20 41h1M32 41h2M42 41h3M20 42h1M41 42h1M57 42h1M20 43h1M26 43h1M41 43h1M55 43h2M20 44h1M25 44h1M39 44h2M53 44h2M23 45h2M37 45h3M50 45h3M23 46h2M38 46h1M47 46h3M22 47h1M39 47h1M45 47h2M23 48h1M41 48h4M23 49h1M39 49h2M24 50h1M38 50h1M25 51h2M34 51h1M36 51h3M25 52h1M27 52h1M33 52h1M35 52h1M37 52h2M24 53h1M27 53h1M29 53h4M35 53h1M37 53h1M25 54h2M28 54h1M32 54h1M37 54h1M33 55h2M36 55h1" />
<path stroke="#c5cdcd" d="M56 26h3M53 27h3M50 28h4M47 29h4M45 30h4M51 30h1M43 31h9M41 32h10M40 33h10M39 34h9M39 35h7M27 36h1M38 36h5M38 37h7M38 38h6M37 39h5M27 40h1M37 40h6M36 41h6M35 42h5M33 43h8M30 44h9M31 45h6M32 46h3M32 47h5M32 48h5M24 49h1M26 49h2M31 49h7M25 50h12M27 51h7M35 51h1M29 52h4" />
<path stroke="#ffa452" d="M24 34h1M22 35h4M24 36h2M21 41h2M21 42h1M21 43h1M29 44h1M28 45h2M28 46h1M27 47h1" />
<path stroke="#7b5a39" d="M19 36h1M22 37h1M20 38h1M22 39h1M23 40h1M24 41h2M20 45h1M21 46h2" />
<path stroke="#f6ac52" d="M20 36h1M23 39h2M25 40h1M26 41h1M26 42h1M25 43h1M23 44h2M25 53h1M33 54h1M36 54h1" />
<path stroke="#bd4a00" d="M21 36h1M19 38h1M20 39h2M21 40h2M26 40h1" />
<path stroke="#e66200" d="M22 36h2M24 40h1M23 41h1M22 42h4M22 43h2M27 43h3M22 44h1M26 44h3M25 45h3M25 46h3M23 47h4M24 48h3M25 49h1" />
<path stroke="#ffffff" d="M26 36h1M24 37h1M26 37h2M26 38h2M26 39h2M30 45h1M29 46h3M28 47h4M27 48h5M28 49h3" />
<path stroke="#299c62" d="M43 36h2M44 38h1M47 38h2M42 39h1M45 39h2M44 40h1M33 42h1M40 42h1M55 42h2M32 43h1M52 43h3M49 44h4M44 45h6M35 46h3M39 46h8M37 47h2M40 47h5M37 48h4M38 49h1M37 50h1M34 52h1M36 52h1M33 53h2M36 53h1M35 54h1" />
<path stroke="#cd834a" d="M18 37h1M18 38h1M19 39h1M20 40h1M24 43h1" />
<path stroke="#ffde4a" d="M19 37h3M21 38h3M21 44h1M21 45h2M26 53h1M28 53h1M34 54h1" />
</svg>