<svg xmlns="http://www.w3.org/2000/svg" viewBox="0 -0.5 80 80" shape-rendering="crispEdges">
<metadata>Made with Pixels to Svg https://codepen.io/shshaw/pen/XbxvNj</metadata>
<path stroke="#4a3910" d="M42 19h2M33 20h2M41 20h1M43 20h1M32 21h1M34 21h1M38 21h1M40 21h1M43 21h1M48 21h3M31 22h1M34 22h1M38 22h2M43 22h1M46 22h2M50 22h1M30 23h1M34 23h2M38 23h1M43 23h1M45 23h1M28 24h1M30 24h1M34 24h1M39 24h1M44 24h1M27 25h1M42 25h4M49 25h3M31 26h2M40 26h2M47 26h2M29 27h2M39 27h1M46 27h1M51 27h1M25 28h1M24 29h1M37 29h2M44 29h1M53 29h5M24 30h1M46 30h3M51 30h2M57 30h1M44 31h2M56 31h1M23 32h1M49 33h1M43 34h6M55 34h3M40 35h3M48 35h1M53 35h1M39 36h1M47 36h1M49 36h3M52 37h2M54 38h1M57 38h2M55 39h1M59 39h1M37 40h2M53 40h2M43 41h1M50 41h3M53 42h3M56 53h1M26 54h1M27 55h1M28 56h1M36 56h1M27 57h5M36 57h1M26 58h1M25 59h1M28 59h2M24 60h1M30 60h1M34 60h1M48 60h1M23 61h1M30 61h1M48 61h1M28 62h1M48 62h1" />
<path stroke="#bd0820" d="M42 20h1M33 21h1M37 21h1M32 22h2M36 22h1M40 22h1M42 22h1M48 22h2M31 23h3M39 23h2M42 23h1M46 23h4M31 24h3M35 24h1M37 24h2M40 24h3M45 24h5M30 25h3M37 25h2M40 25h2M46 25h3M26 26h1M30 26h1M33 26h1M36 26h3M42 26h1M46 26h1M49 26h3M25 27h1M33 27h1M36 27h3M40 27h1M44 27h1M47 27h4M33 28h1M35 28h3M39 28h1M43 28h2M46 28h5M33 29h1M35 29h2M42 29h2M45 29h5M33 30h1M41 30h3M45 30h1M53 30h4M32 31h2M40 31h4M46 31h5M52 31h4M32 32h1M40 32h3M44 32h6M51 32h5M32 33h1M39 33h3M43 33h6M50 33h5M16 34h2M39 34h2M42 34h1M49 34h5M16 35h4M38 35h2M43 35h5M49 35h3M54 35h4M17 36h4M37 36h1M40 36h7M48 36h1M52 36h5M17 37h3M38 37h9M48 37h4M54 37h1M18 38h2M37 38h9M47 38h7M55 38h2M37 39h8M46 39h9M56 39h3M39 40h4M45 40h8M55 40h5M53 41h5" />
<path stroke="#de3141" d="M41 21h2M37 22h1M41 22h1M36 23h2M41 23h1M36 24h1M28 25h1M35 25h2M27 26h2M35 26h1M43 26h2M26 27h3M31 27h2M35 27h1M41 27h3M26 28h2M30 28h3M40 28h3M25 29h2M30 29h3M40 29h2M25 30h1M30 30h3M40 30h1M24 31h1M30 31h2M24 32h1M30 32h2M30 33h2M29 34h2" />
<path stroke="#101010" d="M50 23h1M29 24h1M43 24h1M50 24h1M29 25h1M33 25h2M39 25h1M52 25h1M29 26h1M34 26h1M39 26h1M45 26h1M52 26h1M34 27h1M45 27h1M28 28h2M34 28h1M38 28h1M45 28h1M51 28h1M27 29h1M29 29h1M34 29h1M50 29h1M29 30h1M34 30h1M39 30h1M44 30h1M49 30h2M23 31h1M29 31h1M39 31h1M51 31h1M29 32h1M39 32h1M43 32h1M50 32h1M56 32h1M15 33h3M24 33h1M29 33h1M42 33h1M55 33h1M15 34h1M18 34h2M28 34h1M38 34h1M41 34h1M54 34h1M15 35h1M20 35h1M28 35h1M37 35h1M52 35h1M58 35h1M16 36h1M38 36h1M57 36h1M16 37h1M37 37h1M47 37h1M55 37h2M17 38h1M46 38h1M18 39h2M21 39h1M30 39h4M36 39h1M45 39h1M20 40h3M29 40h1M32 40h2M36 40h1M43 40h2M60 40h1M21 41h1M29 41h1M32 41h1M35 41h1M39 41h4M58 41h2M19 42h1M22 42h1M29 42h3M35 42h1M40 42h1M44 42h1M56 42h2M18 43h1M34 43h1M45 43h1M54 43h1M33 44h1M43 44h1M45 44h1M55 44h1M19 45h1M21 45h1M44 45h1M20 46h1M29 46h1M44 46h1M20 47h1M28 47h1M44 47h1M20 48h1M26 48h2M43 48h1M13 49h1M21 49h1M34 49h2M43 49h1M62 49h1M21 50h1M29 50h1M34 50h1M42 50h1M59 50h3M12 51h1M21 51h1M30 51h1M42 51h1M56 51h3M12 52h1M21 52h1M31 52h1M40 52h2M56 52h1M12 53h1M19 53h1M21 53h1M40 53h1M12 54h1M19 54h2M38 54h2M55 54h1M19 55h1M37 55h1M45 55h2M55 55h1M19 56h1M31 56h5M40 56h4M47 56h2M54 56h1M19 57h1M49 57h1M55 57h1M20 58h1M37 58h1M49 58h1M56 58h1M20 59h1M37 59h1M49 59h1M56 59h1M20 60h1M35 60h2M57 60h1M19 61h2M32 61h2M57 61h1M18 62h2M23 62h2M29 62h3M49 62h1M57 62h1M25 63h3M56 63h1M49 64h1M52 64h1M55 64h1M50 65h1M52 65h1M54 65h1M51 66h3" />
<path stroke="#5a4a00" d="M20 29h2M39 29h1M20 30h1M22 30h1M26 30h1M35 30h2M20 31h1M25 31h1M34 31h1M20 32h1M25 32h1M33 32h1M20 33h1M33 33h1M38 33h1M21 34h1M24 34h1M32 34h1M21 35h1M21 36h1M36 36h1M20 37h1M36 37h1M20 38h1M36 38h1M16 43h2M41 43h2M15 44h1M19 44h1M56 44h1M14 45h1M57 45h2M14 46h1M60 46h2M13 47h1M65 47h1M13 48h1M28 48h1M34 48h1M64 48h1M26 49h1M29 49h1M55 49h1M63 49h1M56 50h1M25 51h1M25 52h1M45 52h1M26 53h1M45 53h1M46 54h1M12 55h1M44 55h1M38 56h2M50 57h2" />
<path stroke="#d5c57b" d="M28 29h1M21 30h1M27 30h2M37 30h2M21 31h2M26 31h3M35 31h4M21 32h2M26 32h3M34 32h5M21 33h1M25 33h3M34 33h4M25 34h3M33 34h5M22 35h6M30 35h2M33 35h4M22 36h12M21 37h13M21 38h10M22 39h8M23 40h6M23 41h6M23 42h5M19 43h2M23 43h6M16 44h3M24 44h4M39 44h4M15 45h4M24 45h3M38 45h5M49 45h3M15 46h4M36 46h7M48 46h5M14 47h5M35 47h6M47 47h6M63 47h2M14 48h5M35 48h1M38 48h3M46 48h7M14 49h3M27 49h1M40 49h1M46 49h7M14 50h2M26 50h3M47 50h6M13 51h3M26 51h3M48 51h4M13 52h2M26 52h4M13 53h1M27 53h2M51 60h4M52 61h1" />
<path stroke="#ac9462" d="M22 33h2M22 34h2M31 34h1M29 35h1M34 36h1M34 37h2M31 38h1M34 38h2M44 41h5M20 42h1M41 42h3M45 42h7M21 43h1M43 43h2M46 43h8M20 44h2M44 44h1M46 44h9M20 45h1M43 45h1M45 45h4M52 45h5M19 46h1M43 46h1M45 46h3M54 46h6M19 47h1M41 47h3M45 47h2M53 47h1M55 47h8M19 48h1M41 48h2M45 48h1M53 48h2M56 48h8M17 49h4M28 49h1M39 49h1M41 49h2M45 49h1M53 49h2M56 49h6M16 50h5M40 50h2M46 50h1M53 50h3M57 50h2M18 51h3M29 51h1M41 51h1M46 51h2M52 51h4M19 52h2M30 52h1M46 52h10M20 53h1M29 53h3M46 53h10M27 54h4M47 54h8M28 55h2M47 55h8M29 56h1M49 56h5M32 57h3M52 57h3M29 58h8M50 58h6M30 59h7M50 59h6M31 60h3M49 60h2M55 60h2M31 61h1M49 61h1M55 61h2M56 62h1" />
<path stroke="#837329" d="M28 33h1M32 35h1M35 36h1M49 41h1M28 42h1M52 42h1M39 43h2M38 44h1M36 45h2M59 45h1M35 46h1M53 46h1M62 46h4M34 47h1M54 47h1M37 48h1M55 48h1M38 49h1M13 50h1M25 50h1M39 50h1M45 50h1M40 51h1M45 51h1M35 57h1" />
<path stroke="#525252" d="M32 38h2M20 39h1M20 41h1M33 41h1M21 42h1M32 42h1M22 43h1M22 44h1M32 44h1M30 45h2M25 48h1M36 48h1M38 50h1M16 51h2M34 51h1M18 52h1M33 52h1M37 52h1M14 53h2M32 53h1M13 54h1M15 54h1M31 54h1M15 55h1M30 55h1M30 56h1M14 58h1M14 59h1M17 59h1M15 60h1M18 60h1M16 61h2M50 61h2M53 61h2M55 62h1M49 63h1M52 63h1" />
<path stroke="#decdbd" d="M34 39h2M34 40h2M31 41h1M34 41h1M36 41h3M33 42h2M36 42h4M29 43h5M35 43h4M28 44h4M34 44h4M27 45h3M32 45h4M27 46h2M30 46h5M25 47h3M29 47h5M29 48h5M44 48h1M30 49h4M44 49h1M30 50h4M43 50h2M31 51h3M43 51h2M32 52h1M42 52h3M18 53h1M41 53h4M18 54h1M40 54h6M31 55h2M38 55h6M16 56h1M14 57h1M17 58h1M27 58h1M15 59h2M26 59h1M16 60h2M25 60h1M27 60h3M18 61h1M24 61h1M26 61h4M25 62h3M50 62h1M51 65h1" />
<path stroke="#8b8b8b" d="M30 40h1M23 45h1M23 46h1M24 47h1M37 51h1M15 52h1M36 53h1M39 53h1M35 54h1M13 55h1M33 55h2M36 55h1M13 56h1M15 56h1M13 57h1M16 57h1M16 58h1M28 58h1M27 59h1M26 60h1M25 61h1M52 62h1" />
<path stroke="#ffffff" d="M31 40h1M22 41h1M30 41h1M23 44h1M24 46h3M36 49h2M35 50h3M35 51h2M38 51h2M16 52h2M34 52h3M38 52h2M16 53h2M33 53h3M37 53h2M14 54h1M16 54h2M32 54h3M36 54h2M14 55h1M16 55h3M35 55h1M14 56h1M17 56h2M15 57h1M17 57h2M15 58h1M18 58h2M18 59h2M19 60h1M51 62h1M53 62h2M50 63h2M53 63h3M50 64h2M53 64h2M53 65h1" />
</svg>