<svg xmlns="http://www.w3.org/2000/svg" viewBox="0 -0.5 80 80" shape-rendering="crispEdges">
<metadata>Made with Pixels to Svg https://codepen.io/shshaw/pen/XbxvNj</metadata>
<path stroke="#526220" d="M57 5h1M56 6h1M58 6h1M56 7h1M55 9h1M58 9h1M55 10h1M59 11h1M54 12h1M60 12h1M54 13h1M61 13h1M62 14h1M53 17h1M64 17h1M65 19h1M66 22h1M9 30h3M66 30h1M12 31h1M10 32h1M14 32h1M15 33h1M65 33h1M11 34h1M17 34h1M18 35h1M12 36h1M19 36h2M12 37h1M21 37h1M12 38h1M22 38h2M47 38h1M60 38h1M12 39h1M24 39h1M58 39h1M25 40h2M46 40h1M55 40h1M27 41h1M45 41h1M48 41h1M28 42h2M45 42h1M47 42h1M30 43h1M32 44h1M12 45h1M33 45h1M13 47h1M32 47h1M17 51h1M28 51h1M19 52h1M25 52h1" />
<path stroke="#bdc55a" d="M57 6h1M57 7h1M57 8h1M56 9h2M56 10h2M56 11h2M55 12h2M55 13h2M55 14h2M54 15h2M54 16h2M11 31h1M12 32h1M13 33h2M14 34h2M15 35h2M49 35h1M16 36h1M48 36h2M48 37h1M48 38h1M29 43h1M28 44h3M29 45h4M31 46h2" />
<path stroke="#101010" d="M58 7h1M58 8h1M59 10h1M53 15h1M63 15h1M53 16h1M64 16h1M52 18h1M65 18h1M52 19h1M66 20h1M51 21h1M66 21h1M51 22h1M51 23h1M67 23h1M67 24h1M50 25h1M67 25h1M50 26h1M67 26h1M50 27h1M67 27h1M67 28h1M49 29h1M67 29h1M49 30h1M9 31h1M66 31h1M66 32h1M10 33h1M48 33h1M48 34h1M65 34h1M11 35h1M48 35h1M64 35h1M47 36h1M63 36h1M42 37h1M47 37h1M62 37h1M43 38h1M61 38h1M45 39h2M59 39h1M11 40h1M56 40h2M11 41h1M49 41h6M11 42h1M48 42h1M11 43h1M49 43h1M11 44h1M46 44h1M46 45h1M50 45h1M12 46h1M45 46h1M50 46h1M45 47h1M50 47h1M13 48h1M32 48h1M44 48h2M50 48h1M14 49h1M31 49h1M34 49h1M50 49h2M15 50h1M30 50h1M35 50h1M37 50h1M50 50h1M16 51h1M29 51h1M36 51h2M67 51h2M18 52h1M26 52h2M49 52h1M64 52h2M20 53h5M48 53h1M52 55h1M52 56h1M54 56h1M51 57h1M56 57h1M50 58h1M58 58h4M44 59h1M46 59h3M44 60h1M44 61h1M44 62h1M44 63h1M36 64h1M31 65h4M43 65h1M42 67h1" />
<path stroke="#628b18" d="M56 8h1M58 10h1M55 11h1M58 11h1M57 12h3M57 13h4M54 14h1M57 14h5M56 15h7M56 16h8M56 17h8M58 18h5M59 19h4M59 20h5M60 21h6M60 22h6M61 23h6M61 24h6M61 25h3M66 25h1M61 26h3M61 27h4M61 28h6M61 29h6M60 30h6M10 31h1M60 31h3M65 31h1M11 32h1M13 32h1M59 32h4M11 33h2M58 33h6M12 34h2M16 34h1M56 34h9M12 35h3M17 35h1M54 35h5M61 35h3M13 36h3M50 36h9M62 36h1M13 37h3M49 37h11M13 38h3M49 38h4M54 38h6M14 39h2M47 39h6M55 39h3M14 40h2M47 40h6M13 41h3M46 41h2M12 42h4M46 42h1M12 43h5M12 44h2M15 44h2M31 44h1M15 45h3M27 45h2M14 46h6M25 46h6M14 47h18M14 48h2M18 48h14M18 49h7M27 49h4M17 50h4M22 50h3M28 50h2M18 51h2M22 51h4M22 52h3" />
<path stroke="#f6ff62" d="M54 17h2M53 18h3M53 19h2M49 33h1M49 34h1M17 36h2M16 37h3M27 42h1M26 43h3M44 47h1M36 50h1" />
<path stroke="#cdde00" d="M56 18h2M63 18h2M55 19h4M63 19h2M55 20h4M64 20h2M56 21h4M57 22h3M57 23h4M58 24h3M58 25h3M64 25h2M58 26h3M64 26h3M58 27h3M65 27h2M58 28h3M57 29h4M57 30h3M56 31h4M63 31h2M54 32h5M63 32h3M50 33h8M64 33h1M50 34h6M50 35h4M59 35h2M59 36h3M60 37h2M16 38h2M53 38h1M13 39h1M16 39h2M53 39h2M12 40h2M16 40h2M53 40h2M12 41h1M16 41h2M16 42h2M17 43h2M14 44h1M17 44h3M24 44h4M13 45h2M18 45h9M13 46h1M20 46h5M16 48h2M15 49h3M25 49h2M16 50h1M21 50h1M25 50h3M20 51h2M26 51h2M20 52h2" />
<path stroke="#8b185a" d="M52 20h1M54 20h1M54 21h2M54 22h3M54 23h3M51 24h1M53 24h5M53 25h5M53 26h5M52 27h6M50 28h1M52 28h6M52 29h5M51 30h6M49 31h1M51 31h5M49 32h1M51 32h3M20 37h1M18 38h1M18 39h2M23 39h1M18 40h4M18 41h5M26 41h1M19 42h6M19 43h7M21 44h3" />
<path stroke="#ac418b" d="M53 20h1M52 21h2M52 22h2M52 23h2M52 24h1M51 25h2M51 26h2M51 27h1M51 28h1M50 29h2M50 30h1M50 31h1M50 32h1M19 37h1M19 38h3M20 39h3M22 40h3M23 41h3M18 42h1M25 42h2M20 44h1" />
<path stroke="#6acd62" d="M33 23h2M33 24h1M33 25h1M34 26h1M34 27h1M34 28h1M35 29h1M36 32h1M38 32h1M39 34h1M39 35h1M40 36h1M40 37h2M37 38h1M41 38h2M41 39h4M36 40h1M42 40h4M43 41h2M35 42h1M44 42h1M44 43h1M47 43h2M45 44h1M47 44h2M47 45h3M46 46h4M46 47h4M46 48h4M58 48h7M46 49h4M56 49h14M46 50h3M54 50h15M46 51h3M52 51h14M36 52h2M45 52h4M58 52h5M37 53h2M44 53h4M51 53h7M39 54h8M52 54h7M43 55h2M54 55h5M56 56h1M40 57h2M37 58h4M42 58h1M35 59h5M41 59h3M34 60h5M40 60h4M33 61h5M41 61h3M32 62h6M31 63h6M30 64h5M38 69h1" />
<path stroke="#94eea4" d="M34 24h1M34 25h1M35 51h1M59 54h1M57 56h1M39 61h2M42 62h2" />
<path stroke="#5aa452" d="M35 24h1M35 25h1M36 26h1M36 27h1M37 28h1M37 29h1M35 30h1M38 30h1M35 31h1M38 31h1M39 32h1M36 33h1M36 34h1M37 35h1M37 36h1M37 37h1M36 39h1M35 41h1M34 43h1M45 43h2M34 44h1M45 45h1M57 48h1M65 48h1M55 49h1M70 49h2M49 50h1M51 50h1M53 50h1M69 50h1M45 51h1M50 51h1M50 52h3M39 53h1M43 53h1M49 53h2M38 54h1M47 54h4M63 54h2M45 55h7M65 55h2M40 56h1M42 56h10M67 56h2M37 57h3M43 57h8M69 57h1M35 58h2M45 58h4M70 58h1M34 59h1M33 60h1M37 65h1M37 66h1M37 67h1M37 68h1M38 70h1M40 70h1M38 71h1M38 72h2M38 73h1M38 74h1" />
<path stroke="#c5ffbd" d="M35 26h1M35 27h1M35 28h2M36 29h1M36 30h2M36 31h2M37 32h1M37 33h2M37 34h2M38 35h1M38 36h2M38 37h2M38 38h3M37 39h4M37 40h5M36 41h7M36 42h8M35 43h9M35 44h10M34 45h11M34 46h9M34 47h6M34 48h4M35 49h1M60 54h3M59 55h6M58 56h9M58 57h11M39 62h3M38 63h6M38 64h5M38 65h5M38 66h4M38 67h4M38 68h3M39 69h2M39 70h1M39 71h1" />
<path stroke="#107320" d="M39 33h1M40 34h1M40 35h1M41 36h1M44 38h1M49 44h1M33 46h1M33 47h1M58 47h7M33 48h1M56 48h1M66 48h4M33 49h1M54 49h1M34 50h1M52 50h1M70 50h1M34 51h1M49 51h1M51 51h1M66 51h1M35 52h1M53 52h5M63 52h1M36 53h1M58 53h5M37 54h1M51 54h1M39 55h4M53 55h1M41 56h1M55 56h1M42 57h1M57 57h1M41 58h1M43 58h2M49 58h1M62 58h8M40 59h1M45 59h1M39 60h1M32 61h1M38 61h1M31 62h1M38 62h1M30 63h1M37 63h1M29 64h1M35 64h1M37 64h1M43 64h1M28 65h3M42 66h1M41 68h1M41 69h1M40 71h1M39 73h1" />
<path stroke="#f6735a" d="M43 46h2M40 47h4M38 48h6M36 49h9M38 50h6M38 51h4" />
<path stroke="#d54129" d="M45 49h1M44 50h2M42 51h3M38 52h7M40 53h3" />
</svg>