<svg xmlns="http://www.w3.org/2000/svg" viewBox="0 -0.5 80 80" shape-rendering="crispEdges">
<metadata>Made with Pixels to Svg https://codepen.io/shshaw/pen/XbxvNj</metadata>
<path stroke="#ac3920" d="M27 12h7M24 13h3M35 13h2M23 14h1M36 14h3M22 15h1M36 15h2M22 16h9M36 16h2M21 17h4M30 17h8M21 18h2M34 18h5M21 19h1M37 19h3M43 19h2M39 20h6M40 21h6M41 22h5M42 23h5M55 23h1M43 24h4M56 24h1M63 24h1M44 25h3M62 25h2M44 26h3M57 26h3M61 26h3M45 27h2M58 27h3M62 27h2M45 28h1M59 28h3M45 29h1M51 29h1M53 29h1M59 29h3M44 30h1M50 30h1M55 30h1M58 30h4M50 31h1M54 31h1M56 31h5M51 32h1M53 32h3M57 32h3M51 33h6M52 34h4M32 42h1M43 42h1M32 43h2M39 43h1M44 43h1M31 44h4M38 44h1M27 45h1M29 45h1M31 45h1M37 45h2M28 46h1M30 46h1M27 47h2M46 47h1M26 48h3M46 48h1M28 49h1M46 49h2M47 50h1M47 51h2M29 52h1M38 52h1M47 52h2M28 53h2M31 53h1M36 53h3M46 53h3M27 54h4M32 54h8M41 54h1M45 54h4M28 55h4M33 55h7M41 55h7M30 56h3M35 56h6M42 56h6M31 57h3M38 57h4M44 57h4M31 58h3M45 58h3M33 59h1M45 59h4M47 60h2M32 61h1M48 61h1M31 62h2M45 64h1" />
<path stroke="#7b2910" d="M34 12h3M37 13h2M22 14h1M21 15h1M41 15h1M21 16h1M20 17h1M20 18h1M33 18h1M44 18h1M20 19h1M36 19h1M45 19h1M22 20h1M38 20h1M45 20h1M22 21h1M46 21h1M23 22h1M46 22h1M59 22h4M47 23h1M56 23h3M63 23h1M47 24h1M43 25h1M47 25h1M57 25h1M35 26h1M56 26h1M60 26h1M44 27h1M55 27h1M61 27h1M46 28h1M52 28h1M54 28h1M62 28h1M54 29h1M43 30h1M54 30h1M41 31h2M38 32h2M50 32h1M50 33h1M51 34h1M52 35h1M39 42h1M44 42h1M31 43h1M38 43h1M45 43h1M29 44h2M37 44h1M45 44h1M28 45h1M30 45h1M46 45h1M27 46h1M29 46h1M46 46h1M26 47h1M29 47h1M29 48h1M25 49h1M29 49h1M39 49h1M25 50h1M29 50h1M39 50h1M48 50h1M25 51h1M29 51h1M39 51h1M25 52h1M30 52h1M39 52h1M26 53h1M30 53h1M39 53h1M40 54h1M40 55h1M48 55h1M29 56h1M34 56h1M41 56h1M37 57h1M43 57h1M44 58h1M48 58h1M29 59h1M44 59h1M28 60h1M44 60h1M49 60h1M43 61h1M49 61h1M49 62h1" />
<path stroke="#ff7b41" d="M27 13h7M25 14h10M26 15h10M32 16h3" />
<path stroke="#ee5a31" d="M34 13h1M24 14h1M35 14h1M23 15h3M31 16h1M35 16h1M59 23h4M55 24h1M58 24h5M60 25h2M56 27h2M55 28h4M52 29h1M55 29h4M51 30h3M56 30h2M51 31h3M52 32h1M32 45h5M31 46h8M30 47h10M30 48h10M26 49h2M30 49h9M40 49h1M45 49h1M26 50h3M30 50h9M40 50h2M44 50h3M26 51h3M30 51h9M40 51h7M26 52h3M31 52h7M40 52h7M27 53h1M32 53h4M40 53h6M42 54h3M30 59h3M29 60h4M45 60h2M30 61h2M44 61h4M44 62h3M45 63h1" />
<path stroke="#de7b00" d="M40 13h3M39 14h1M43 14h1M38 15h1M44 15h1M44 16h1M30 29h2M29 30h1M24 43h2M41 43h1M22 44h2M26 44h1M42 44h1M21 45h1M23 45h1M26 45h1M42 45h1M21 46h1M23 46h1M43 46h1M21 47h1M23 47h1M40 47h1M43 47h1M23 48h1M43 48h1M23 49h1M43 49h1M25 60h3M23 61h2M27 61h3M22 62h1M26 62h1M30 62h1M42 62h2M47 62h2M22 63h1M30 63h1M41 63h1M44 63h1M46 63h1M21 64h1M24 64h1M29 64h1M41 64h1M44 64h1M46 64h1M21 65h1M40 65h1M45 65h1M40 66h1M45 66h1" />
<path stroke="#ffe67b" d="M40 14h3M39 15h2M40 16h1M24 44h2M40 44h1M43 44h1M22 45h1M24 45h2M40 45h2M43 45h2M22 46h1M24 46h1M40 46h3M44 46h1M22 47h1M41 47h2M44 47h1M22 48h1M42 48h1M25 61h2M24 62h1M27 62h2M23 63h1M26 63h2M42 63h2M47 63h2M22 64h2M25 64h2M42 64h1M47 64h2M22 65h1M24 65h2M41 65h2M46 65h2M24 66h1M41 66h1M46 66h2M46 67h1M46 68h1" />
<path stroke="#101010" d="M42 15h1M38 16h1M41 16h2M25 17h5M38 17h1M44 17h1M23 18h1M31 18h2M39 18h1M43 18h1M22 19h1M34 19h2M40 19h3M21 20h1M37 20h1M21 21h1M39 21h1M22 22h1M40 22h1M23 23h1M34 23h2M41 23h1M24 24h1M33 24h4M42 24h1M57 24h1M64 24h1M33 25h1M35 25h2M58 25h2M64 25h1M33 26h2M36 26h1M43 26h1M47 26h1M64 26h1M34 27h2M47 27h1M52 27h1M64 27h1M31 28h2M39 28h1M44 28h1M53 28h1M63 28h1M28 29h2M39 29h1M44 29h1M46 29h1M62 29h1M25 30h2M38 30h1M45 30h1M62 30h1M38 31h1M43 31h2M55 31h1M61 31h1M37 32h1M40 32h3M56 32h1M60 32h2M28 33h1M36 33h1M57 33h3M62 33h1M29 34h1M56 34h1M62 34h1M53 35h3M60 35h1M63 35h1M31 36h1M36 36h3M63 36h1M61 37h1M64 37h1M44 38h1M61 38h1M64 38h1M44 39h1M61 39h1M64 39h1M64 40h1M25 41h1M33 41h1M43 41h1M64 41h1M31 42h1M33 42h1M41 42h2M64 42h1M26 43h1M30 43h1M34 43h1M27 44h2M35 44h2M63 44h1M63 45h1M45 47h1M47 47h3M62 47h1M25 48h1M45 48h1M47 48h1M24 49h1M44 49h1M48 49h1M61 49h1M24 50h1M43 50h1M60 50h1M49 51h1M59 51h1M49 52h1M58 52h1M49 53h1M56 53h2M26 54h1M31 54h1M54 54h2M27 55h1M32 55h1M51 55h3M28 56h1M33 56h1M48 56h3M30 57h1M34 57h3M42 57h1M48 57h1M30 58h1M34 58h1M38 58h6M34 59h1M49 59h1M33 60h1M33 61h1M33 62h1M31 63h2M49 63h1M30 64h1M50 64h1M27 65h3M50 65h1M21 66h2M25 66h2M44 66h1M50 66h1M23 67h2M40 67h1M43 67h1M45 67h1M49 67h1M40 68h1M42 68h1M45 68h1M49 68h1M40 69h2M48 69h1M47 70h1" />
<path stroke="#ffbd29" d="M43 15h1M39 16h1M43 16h1M39 17h5M40 18h3M30 30h2M29 31h2M29 32h1M42 43h1M41 44h1M25 46h1M24 47h1M24 48h1M41 48h1M44 48h1M42 49h1M23 62h1M29 62h1M25 63h1M28 63h2M27 64h2M43 64h1M49 64h1M26 65h1M43 65h2M48 65h2M42 66h2M48 66h2M41 67h2M47 67h2M41 68h1M47 68h2M47 69h1" />
<path stroke="#6a5241" d="M24 18h1M30 18h1M25 19h2M31 19h1M27 20h1M31 20h1M36 20h1M23 21h2M28 21h1M36 21h1M25 22h1M27 22h1M26 23h1M40 23h1M26 24h1M39 24h1M53 24h2M25 25h1M52 25h1M55 25h2M52 26h1M40 27h3M53 27h1M30 28h1M27 29h1M32 29h1M40 29h1M28 30h1M41 30h1M28 31h1M31 31h1M28 32h1M30 32h1M30 34h1M35 34h1M60 34h1M31 35h1M35 35h1M39 36h2M61 36h1M30 37h2M36 37h1M41 37h3M39 38h2M41 39h2M24 40h1M43 40h1M61 40h1M27 41h1M32 41h1M39 41h1M60 41h1M26 42h1M40 42h1M60 42h1M59 43h1M63 43h1M57 44h2M55 45h2M52 46h3M62 46h1M50 47h2M61 48h1M49 54h1" />
<path stroke="#ac8b5a" d="M25 18h5M23 19h2M27 19h4M32 19h2M23 20h4M28 20h3M32 20h4M25 21h3M29 21h7M37 21h2M24 22h1M26 22h1M32 22h8M24 23h2M36 23h4M25 24h1M37 24h2M40 24h2M37 25h6M25 26h1M37 26h6M24 27h1M37 27h3M43 27h1M24 28h1M38 28h1M40 28h4M24 29h1M38 29h1M41 29h3M32 30h1M39 30h2M42 30h1M39 31h2M35 33h1M60 33h2M61 34h1M61 35h2M62 36h1M28 37h2M62 37h2M25 38h2M31 38h1M38 38h1M62 38h2M24 39h1M62 39h2M28 40h1M33 40h1M38 40h1M62 40h2M26 41h1M42 41h1M62 41h2M62 42h2M29 43h1M62 43h1M62 44h1M61 45h2M61 46h1M60 47h2M48 48h6M58 48h3M49 49h12M49 50h11M50 51h9M50 52h8M50 53h6M50 54h4M49 55h2" />
<path stroke="#dea473" d="M28 22h4M33 23h1M55 26h1M54 27h1M37 28h1M37 29h1M36 30h2M35 31h3M33 32h4M31 33h4M31 34h4M32 35h3M32 36h4M32 37h4M37 37h4M27 38h1M32 38h6M41 38h3M33 39h8M43 39h1M37 40h1M39 40h4M38 41h1M40 41h2M61 41h1M38 42h1M61 42h1M35 43h3M60 43h2M59 44h3M57 45h4M55 46h6M52 47h8M54 48h4" />
<path stroke="#ffe68b" d="M27 23h6M27 24h1M30 24h3M26 25h1M30 25h3M53 25h2M26 26h1M29 26h4M53 26h2M25 27h9M36 27h1M25 28h5M33 28h4M25 29h2M33 29h4M33 30h3M32 31h3M31 32h2M28 38h3M25 39h8M25 40h3M29 40h4M34 40h3M28 41h4M34 41h4M27 42h4M34 42h4M27 43h2" />
<path stroke="#ffffac" d="M28 24h2M27 25h3M27 26h2M29 33h2" />
<path stroke="#ffffff" d="M34 25h1" />
<path stroke="#ac5a00" d="M40 43h1M43 43h1M39 44h1M44 44h1M39 45h1M45 45h1M26 46h1M39 46h1M45 46h1M25 47h1M21 48h1M40 48h1M22 49h1M41 49h1M23 50h1M42 50h1M25 62h1M24 63h1M23 65h1M23 66h1M46 69h1M46 70h1" />
</svg>