<svg xmlns="http://www.w3.org/2000/svg" viewBox="0 -0.5 80 80" shape-rendering="crispEdges">
<metadata>Made with Pixels to Svg https://codepen.io/shshaw/pen/XbxvNj</metadata>
<path stroke="#5a7b6a" d="M24 23h5M22 24h2M20 25h2M19 26h1M40 30h1M27 32h1M41 32h1M20 33h2M27 33h1M16 34h2M23 34h1M38 34h3M23 35h1M37 35h1M41 35h2M37 36h1M41 36h2M44 36h3M37 37h1M41 37h2M47 37h2M32 38h1M35 38h1M38 38h5M49 38h1M30 39h1M32 39h1M35 39h1M41 39h2M50 39h1M40 40h3M17 41h1M39 41h4M18 42h1M39 42h4M44 42h1M19 43h1M21 43h1M36 43h6M44 43h2M20 44h1M22 44h1M24 44h1M35 44h7M43 44h4M52 44h1M21 45h1M23 45h1M25 45h1M32 45h9M43 45h2M51 45h1M22 46h1M24 46h16M43 46h1M51 46h1M23 47h16M42 47h1M45 47h3M51 47h2M25 48h12M41 48h2M45 48h2M51 48h2M28 49h6M39 49h3M45 49h2M52 49h3M45 50h2M52 50h3M32 51h1M46 51h2M52 51h3M29 52h1M32 52h2M46 52h2M50 52h1M32 53h1M47 53h1M50 53h1M31 54h2M47 54h4M47 55h4" />
<path stroke="#184a39" d="M29 23h3M32 24h3M35 25h2M37 26h1M18 27h1M38 27h1M17 28h1M39 28h1M17 29h1M40 29h1M16 30h1M41 30h1M16 31h1M19 31h1M41 31h1M16 32h1M18 32h1M20 32h1M26 32h1M42 32h1M15 33h1M17 33h1M25 33h1M28 33h1M42 33h1M15 34h1M21 34h1M24 34h1M28 34h1M42 34h1M15 35h2M22 35h1M29 35h1M43 35h1M15 36h1M29 36h1M43 36h1M15 37h1M30 37h1M15 38h1M30 38h1M33 38h2M15 39h1M31 39h1M34 39h1M16 40h1M35 40h1M51 40h1M16 41h1M35 41h1M51 41h1M17 42h1M35 42h4M43 42h1M52 42h1M17 43h1M52 43h1M18 44h1M51 44h1M53 44h1M19 45h1M41 45h1M50 45h1M20 46h1M40 46h1M42 46h1M46 46h2M50 46h1M54 46h1M21 47h2M39 47h1M41 47h1M48 47h1M50 47h1M23 48h2M37 48h2M40 48h1M44 48h1M50 48h1M55 48h1M27 49h1M34 49h1M44 49h1M50 49h2M55 49h1M33 50h1M51 50h1M55 50h1M29 51h1M34 51h1M45 51h1M51 51h1M55 51h1M28 52h1M34 52h4M45 52h1M52 52h3M28 53h1M46 53h1M28 54h1M46 54h1M46 55h1M47 56h1" />
<path stroke="#a4d5bd" d="M24 24h5M22 25h8M20 26h11M20 27h11M19 28h1M21 28h1M23 28h7M18 29h1M20 29h1M22 29h1M24 29h4M19 30h1M44 37h3M44 38h5M44 39h6M45 40h4" />
<path stroke="#7bac9c" d="M29 24h3M30 25h5M31 26h6M19 27h1M31 27h7M18 28h1M20 28h1M22 28h1M30 28h9M19 29h1M21 29h1M23 29h1M28 29h12M17 30h2M20 30h20M17 31h2M20 31h21M17 32h1M19 32h1M21 32h5M28 32h13M16 33h1M18 33h2M22 33h3M26 33h1M29 33h13M18 34h3M22 34h1M25 34h3M29 34h9M41 34h1M17 35h5M24 35h5M30 35h7M16 36h13M30 36h7M16 37h14M31 37h6M16 38h14M31 38h1M36 38h2M16 39h14M33 39h1M36 39h5M17 40h18M36 40h4M44 40h1M49 40h2M18 41h17M36 41h3M44 41h7M19 42h16M45 42h7M18 43h1M20 43h1M22 43h14M46 43h4M19 44h1M21 44h1M23 44h1M25 44h10M47 44h2M20 45h1M22 45h1M24 45h1M26 45h6M48 45h1M52 45h2M21 46h1M23 46h1M52 46h2M53 47h2M47 48h2M53 48h2M47 49h2M47 50h3M30 51h2M48 51h2M30 52h2M48 52h2M29 53h3M48 53h2M29 54h2" />
<path stroke="#202020" d="M38 35h1M40 35h1M38 37h1M40 37h1M43 37h1M43 38h1M43 39h1M43 40h1M43 41h1M42 43h1M42 44h1M49 48h1M25 49h2M35 49h2M49 49h1M28 50h5M44 50h1M50 50h1M33 51h1M43 51h2M50 51h1M38 52h5M33 53h1M51 53h1M33 54h1M51 54h1M29 55h4M51 55h1M48 56h3" />
<path stroke="#399418" d="M39 35h1M38 36h1M40 36h1M39 37h1M51 43h1M50 44h1M45 46h1M49 46h1M44 47h1M49 47h1M42 51h1" />
<path stroke="#ffffff" d="M39 36h1" />
<path stroke="#414131" d="M43 43h1M42 45h1M41 46h1M40 47h1M39 48h1M37 49h2M36 50h1M37 51h1" />
<path stroke="#b4ff94" d="M50 43h1M49 44h1M45 45h2M49 45h1M44 46h1M43 47h1M43 48h1" />
<path stroke="#83de62" d="M47 45h1M48 46h1M42 49h1M34 50h2M37 50h5" />
<path stroke="#5ab439" d="M43 49h1M42 50h2M35 51h2M38 51h4" />
</svg>