<svg xmlns="http://www.w3.org/2000/svg" viewBox="0 -0.5 80 80" shape-rendering="crispEdges">
<metadata>Made with Pixels to Svg https://codepen.io/shshaw/pen/XbxvNj</metadata>
<path stroke="#cdcde6" d="M54 21h4M53 22h1M52 23h1M57 23h1M59 23h1M50 24h2M58 24h1M60 24h1M49 25h1M57 25h1M59 25h2M49 26h1M58 26h1M60 26h2M48 27h1M57 27h1M59 27h4M48 28h1M57 28h6M48 29h1M56 29h7M48 30h1M55 30h6M48 31h1M56 31h6M49 32h1M54 32h9M49 33h1M53 33h10M48 34h1M53 34h10M47 35h1M54 35h8M47 36h1M55 36h7M46 37h1M57 37h4M46 38h1M56 38h3M46 39h1M54 39h4M47 40h1M53 40h5M48 41h1M51 41h7M21 42h3M47 42h1M51 42h6M18 43h3M24 43h1M47 43h1M51 43h5M17 44h1M50 44h4M16 45h1M51 45h4M16 46h1M43 47h1M41 48h3M40 49h4M18 50h4M26 50h3M40 50h3M18 51h5M25 51h5M33 51h3M19 52h17M53 52h1M20 53h15M54 53h1M25 54h10M25 55h4M31 55h2M45 57h1" />
<path stroke="#eeeef6" d="M54 22h4M53 23h4M58 23h1M54 24h4M59 24h1M53 25h1M55 25h2M58 25h1M54 26h1M56 26h2M59 26h1M53 27h1M55 27h2M58 27h1M54 28h3M53 29h3M49 30h6M49 31h7M50 32h4M50 33h3M52 34h1M52 35h2M52 36h3M52 37h5M51 38h5M49 39h5M49 40h4M49 41h2M48 42h3M27 43h1M48 43h3M28 44h1M48 44h2M39 45h3M17 46h1M29 46h1M40 46h3M17 47h2M23 47h1M29 47h3M39 47h2M17 48h3M22 48h1M28 48h5M38 48h2M19 49h4M26 49h9M22 50h4M29 50h6M23 51h2M30 51h3M54 52h1M52 53h1M52 54h1M47 57h1M45 58h1" />
<path stroke="#9c9cc5" d="M58 22h2M60 23h1M61 24h1M61 25h1M62 26h1M63 27h1M63 28h1M63 29h1M61 30h2M62 31h1M63 32h1M63 33h1M63 34h1M62 35h1M62 36h1M61 37h1M59 38h2M58 39h1M58 40h1M58 41h1M25 42h3M57 42h1M28 43h1M56 43h1M29 44h1M35 44h1M39 44h3M47 44h1M54 44h2M29 45h1M38 45h1M48 45h3M30 46h2M37 46h1M43 46h1M51 46h2M16 47h1M32 47h1M41 47h2M16 48h1M33 48h2M37 48h1M40 48h1M17 49h2M38 49h1M17 50h1M17 51h1M53 51h1M18 52h1M52 52h1M19 53h1M35 53h1M53 53h1M20 54h5M35 54h1M24 55h1M29 55h2M33 55h2M25 56h4M31 56h2M47 56h1M44 57h1M46 57h1" />
<path stroke="#ffffff" d="M52 24h2M50 25h3M54 25h1M50 26h4M55 26h1M49 27h4M54 27h1M49 28h5M49 29h4M49 34h3M48 35h4M48 36h4M47 37h5M47 38h4M47 39h2M48 40h1M21 43h3M25 43h2M42 43h1M18 44h10M17 45h12M18 46h11M38 46h2M19 47h4M24 47h5M36 47h1M38 47h1M20 48h2M23 48h5M23 49h3" />
<path stroke="#cd9c52" d="M41 27h2M40 28h1M39 29h1M39 30h1M38 33h1M27 34h6M26 35h1M33 35h2M25 36h1M35 36h2M37 37h1M37 38h2M38 39h1M39 40h3M38 41h1M45 41h3M49 46h2M59 46h1M49 47h3M54 47h4M49 48h3M35 49h1M44 49h1M48 49h4M35 50h1M46 50h6M36 51h1M44 51h7M36 52h1M43 52h8M36 53h1M42 53h8M42 54h7M38 55h1M42 55h6M43 56h2" />
<path stroke="#ac7b20" d="M43 27h1M43 28h1M42 29h1M38 31h1M38 32h1M40 32h1M37 34h1M37 35h1M39 35h1M26 36h5M37 36h1M31 37h3M35 38h1M37 39h1M38 40h1M42 40h3M58 44h3M43 45h1M55 45h3M61 45h1M44 46h1M54 46h1M60 46h1M37 47h1M44 47h1M52 47h1M58 47h2M44 48h1M52 48h1M56 48h2M52 49h1M39 50h1M43 50h1M40 51h3M51 51h1M37 54h1M39 56h1M45 56h1" />
<path stroke="#ffffc5" d="M41 28h2M40 29h2M40 30h1M27 35h6M32 36h3M38 42h4M37 43h5M37 44h2M36 45h2M36 46h1M36 49h2M36 50h3M37 51h2" />
<path stroke="#101010" d="M41 30h1M41 31h1M40 33h1M40 34h1M39 36h1M39 37h1M34 38h1M39 38h1M36 39h1M39 39h1M45 40h2M43 43h1M42 44h2M53 46h1M53 47h1M36 48h1M53 48h3M53 49h1M52 50h2M52 51h1M54 51h1M51 52h1M55 52h1M50 53h2M55 53h1M49 54h1M51 54h1M53 54h2M37 55h1M48 55h1M52 55h1M38 56h1M46 56h1M48 56h1M40 57h4M48 57h1M44 58h1M47 58h1M45 59h1" />
<path stroke="#ffee7b" d="M39 31h2M39 32h1M31 36h1M34 37h3M36 38h1M39 41h5M42 42h4M44 43h3M44 44h3M44 45h4M45 46h3M45 47h2M39 51h1M37 52h3M37 53h2M38 54h1" />
<path stroke="#e6c573" d="M39 33h1M38 34h2M38 35h1M38 36h1M38 37h1M44 41h1M37 42h1M46 42h1M36 43h1M36 44h1M35 45h1M58 45h3M35 46h1M48 46h1M55 46h4M35 47h1M47 47h2M35 48h1M45 48h4M45 49h3M44 50h2M43 51h1M40 52h3M39 53h3M39 54h3M39 55h3M40 56h3" />
<path stroke="#b4b4de" d="M42 45h1M39 49h1" />
</svg>