<svg xmlns="http://www.w3.org/2000/svg" viewBox="0 -0.5 80 80" shape-rendering="crispEdges">
<metadata>Made with Pixels to Svg https://codepen.io/shshaw/pen/XbxvNj</metadata>
<path stroke="#e6a44a" d="M37 19h3M36 20h1M43 22h1" />
<path stroke="#a47352" d="M40 19h1M35 20h1M41 20h2M34 21h1M43 21h1M44 23h1M44 24h1M36 26h1M39 26h1M42 26h1M39 27h1" />
<path stroke="#ffffff" d="M37 20h3M38 21h3M37 25h1M31 27h2M31 28h2" />
<path stroke="#ffe694" d="M40 20h1M37 21h1M41 21h1M38 22h4M38 24h1M38 25h1M37 26h1" />
<path stroke="#ffcd5a" d="M35 21h2M42 21h1M35 22h3M42 22h1M35 23h9M36 24h2M39 24h5M39 25h4M38 26h1M30 29h1M30 30h1M37 31h1M37 32h1" />
<path stroke="#101010" d="M34 22h1M34 23h1M35 24h1M36 25h1M43 25h1M40 26h2M27 39h1M43 39h1M28 40h1M41 40h2M39 41h3M30 42h1M34 42h4M57 52h1M47 53h1M57 53h1M46 54h1M57 56h1M55 57h2M53 58h1M50 59h2" />
<path stroke="#6abd7b" d="M31 26h5M28 27h2M37 27h2M30 28h1M39 28h2M29 29h1M41 29h1M29 30h1M37 30h1M42 30h1M36 31h1M43 31h1M36 32h1M24 33h2M33 33h1M37 33h1M30 39h2M37 39h1M29 40h1M31 40h3M35 40h1M31 41h4M31 42h2M31 43h1M30 44h2M29 45h4M30 46h5M30 47h6M31 48h5M29 49h1M32 49h4M30 52h1" />
<path stroke="#cdffcd" d="M30 27h1M33 27h3M28 28h2M33 28h6M27 29h2M32 29h2M36 29h5M28 30h1M38 30h4M39 31h4M27 32h1M40 32h3M26 33h1M40 33h1M42 33h1M24 34h3M24 35h3M27 36h1M29 36h1M43 36h1M26 37h1M28 37h1M30 37h1M43 37h1M27 38h2M42 38h1M42 39h1M37 41h2M29 47h1M29 48h1M30 49h1M30 50h1M30 51h1M31 52h1M31 53h1M32 54h1M33 55h1M34 56h2" />
<path stroke="#94e694" d="M36 27h1M34 29h2M32 30h5M28 31h2M31 31h5M28 32h3M33 32h3M39 32h1M27 33h6M38 33h2M27 34h13M27 35h12M28 36h1M30 36h11M27 37h1M29 37h1M31 37h11M32 38h8M41 38h1M29 39h1M34 39h3M38 39h3M30 40h1M36 40h2M39 40h2M36 41h1M29 46h1M30 48h1M31 49h1M36 49h1M31 50h6M31 51h7M32 52h5M32 53h5M33 54h6M34 55h6M37 56h1" />
<path stroke="#cd6a00" d="M27 28h1M26 29h1M25 30h2M25 31h1M25 32h1M43 32h1M44 33h1M44 37h1M49 50h2M51 51h1M55 51h3M49 52h2M52 52h3M40 53h1M48 53h4M55 53h2M41 54h2M47 54h9M43 55h2M46 55h10M45 56h12M43 57h11M38 58h14M41 59h8" />
<path stroke="#39834a" d="M31 29h1M31 30h1M30 31h1M38 31h1M31 32h2M38 32h1M34 33h3M23 34h1M23 35h1M24 36h3M25 37h1M26 38h1M29 38h3M40 38h1M43 38h1M28 39h1M32 39h2M41 39h1M34 40h1M38 40h1M29 41h2M35 41h1M33 42h1M38 42h1M30 43h1M32 43h1M29 44h1M32 44h1M28 45h1M33 45h1M28 46h1M35 46h1M28 47h1M36 47h1M28 48h1M36 48h1M37 49h1M29 50h1M37 50h1M29 51h1M38 51h1M39 52h1M30 53h1M31 54h1M32 55h1M33 56h1M34 57h1" />
<path stroke="#ffbd29" d="M27 30h1M26 31h2M26 32h1M43 33h1M42 34h2M43 35h1M49 51h2M37 52h2M51 52h1M55 52h2M37 53h3M52 53h3M39 54h2M40 55h3M36 56h1M38 56h5M36 57h4" />
<path stroke="#f69400" d="M41 33h1M40 34h2M39 35h4M41 36h2M42 37h1" />
<path stroke="#9c4100" d="M44 34h1M44 35h1M44 36h1M48 51h1M48 52h1M56 54h1M45 55h1M56 55h2M43 56h2M35 57h1M40 57h3M54 57h1M36 58h2M52 58h1M38 59h3M49 59h1M41 60h8" />
</svg>