<svg xmlns="http://www.w3.org/2000/svg" viewBox="0 -0.5 80 80" shape-rendering="crispEdges">
<metadata>Made with Pixels to Svg https://codepen.io/shshaw/pen/XbxvNj</metadata>
<path stroke="#005a00" d="M19 14h3M18 15h1M21 15h2M18 16h1M24 16h1M19 17h1M59 17h3M56 18h3M55 19h1" />
<path stroke="#39bd62" d="M19 15h2M23 15h1M19 16h5M25 16h1M20 17h3M21 18h1M59 18h4M56 19h6M57 20h4M58 21h1" />
<path stroke="#ffdede" d="M23 17h3M22 18h6M23 19h7M36 19h4M24 20h8M34 20h8M53 20h4M25 21h8M34 21h9M50 21h8M26 22h6M33 22h4M40 22h4M47 22h10M28 23h4M33 23h3M37 23h2M41 23h14M29 24h3M34 24h2M37 24h3M41 24h12M30 25h2M35 25h4M41 25h10M29 26h4M41 26h8M29 27h5M40 27h7M28 28h7M39 28h7M28 29h19M27 30h21M27 31h3M31 31h1M33 31h5M39 31h2M42 31h6M27 32h3M31 32h1M33 32h5M39 32h2M42 32h7M26 33h4M31 33h1M33 33h5M39 33h2M42 33h7M26 34h4M32 34h8M42 34h7M26 35h24M26 36h24M22 37h10M39 37h12M18 38h35M19 39h37M20 40h3M25 40h36M25 41h34M25 42h24M53 42h5M25 43h24M56 43h1M25 44h24M25 45h24M25 46h24M25 47h23M25 48h23M25 49h22M26 50h20M27 51h18M28 52h15M30 53h10" />
<path stroke="#ee9c9c" d="M26 17h2M28 18h1M36 18h3M22 19h1M34 19h2M22 20h2M33 20h1M23 21h2M23 22h3M57 22h1M24 23h4M55 23h2M25 24h4M53 24h4M26 25h4M51 25h5M26 26h3M49 26h6M27 27h1M47 27h6M46 28h6M61 28h2M18 29h3M47 29h4M59 29h3M18 30h5M48 30h2M57 30h4M19 31h6M48 31h3M58 31h2M20 32h6M49 32h2M21 33h4M49 33h2M22 34h3M30 34h1M41 34h1M50 34h2M23 35h2M50 35h2M16 36h4M50 36h3M16 37h1M32 37h1M38 37h1M51 37h3M53 38h2M56 39h1M23 40h2M19 41h5M59 41h1M61 41h1M21 42h3M50 42h2M58 42h1M61 42h1M50 43h5M59 43h2M62 43h1M49 44h9M61 44h2M49 45h2M61 45h2M49 46h4M62 46h1M49 47h4M62 47h1M48 48h5M54 48h2M61 48h2M48 49h5M54 49h4M59 49h4M47 50h6M54 50h4M59 50h3M46 51h7M54 51h3M58 51h4M44 52h10M57 52h5M41 53h13M55 53h6M38 54h16M55 54h6M32 55h22M55 55h5M34 56h20M55 56h4M34 57h1M38 57h17M56 57h1M35 58h2M44 58h11M35 59h3M46 59h9M34 60h4M47 60h6M34 61h3M49 61h1M34 62h3M35 63h1" />
<path stroke="#101010" d="M62 17h1M19 18h1M63 18h1M20 19h1M63 19h1M20 20h1M62 20h1M21 21h1M61 21h1M22 22h1M44 22h1M60 22h1M23 23h1M59 23h1M24 24h1M58 24h1M24 25h1M57 25h1M25 26h1M55 26h1M26 27h1M54 27h1M52 28h2M51 29h1M63 29h1M26 30h1M54 30h1M62 30h1M26 31h1M51 31h3M61 31h1M26 32h1M32 32h1M38 32h1M51 32h1M60 32h1M20 33h1M25 33h1M32 33h1M38 33h1M51 33h1M59 33h1M21 34h1M25 34h1M58 34h1M22 35h1M25 35h1M52 35h1M57 35h4M25 36h1M63 37h1M16 38h1M62 38h1M61 39h1M18 40h1M61 40h1M18 41h1M60 41h1M19 42h2M60 42h1M21 43h3M61 43h1M58 44h3M22 45h2M52 45h6M20 46h2M53 46h1M63 46h1M53 47h3M61 47h1M63 47h1M24 48h1M53 48h1M57 48h4M63 48h1M24 49h1M53 49h1M53 50h1M62 50h1M62 51h1M25 52h1M54 52h2M25 53h1M54 53h1M61 53h1M54 54h1M54 55h1M60 55h1M26 56h1M59 56h1M55 57h1M57 57h2M27 58h1M38 58h5M55 58h2M28 59h1M38 59h1M44 59h1M55 59h1M28 60h1M38 60h1M45 60h2M55 60h1M37 61h1M47 61h2M52 61h1M55 61h1M37 62h1M49 62h2M53 62h2M36 63h2M51 63h2M28 64h9" />
<path stroke="#088341" d="M20 18h1M21 19h1M62 19h1M21 20h1M61 20h1M22 21h1M59 21h2M58 22h2M57 23h2M57 24h1M56 25h1" />
<path stroke="#cd5a5a" d="M29 18h1M30 19h2M53 19h2M32 20h1M50 20h3M43 21h1M47 21h3M45 22h2M32 23h1M32 24h1M36 24h1M25 25h1M40 25h1M33 26h1M40 26h1M34 27h1M39 27h1M53 27h1M61 27h2M27 28h1M35 28h4M59 28h2M63 28h1M17 29h1M22 29h1M27 29h1M56 29h3M17 30h1M23 30h2M50 30h2M55 30h2M18 31h1M25 31h1M19 32h1M30 32h1M41 32h1M30 33h1M41 33h1M52 34h1M19 35h3M61 35h2M22 36h3M53 36h1M63 36h1M15 37h1M17 37h5M33 37h5M54 37h1M17 38h1M55 38h2M18 39h1M57 39h4M62 41h1M62 42h1M19 43h1M24 43h1M58 43h1M63 43h1M18 44h1M24 44h1M63 44h1M18 45h1M24 45h1M51 45h1M60 45h1M63 45h1M19 46h1M24 46h1M61 46h1M24 47h1M56 47h1M56 48h1M58 49h1M63 49h1M58 50h1M25 51h1M53 51h1M57 51h1M56 52h1M62 52h1M61 54h1M26 55h1M54 56h1M35 57h2M37 58h1M43 58h1M45 59h1M29 61h1M29 62h2M32 62h2M34 63h1" />
<path stroke="#de7b7b" d="M39 18h1M40 19h2M42 20h1M33 21h1M32 22h1M37 22h3M36 23h1M39 23h2M40 24h1M32 25h2M28 27h1M18 28h3M21 29h1M62 29h1M61 30h1M30 31h1M41 31h1M54 31h4M60 31h1M52 32h8M52 33h7M31 34h1M40 34h1M53 34h5M16 35h3M53 35h4M15 36h1M20 36h2M54 36h9M55 37h8M57 38h5M19 40h1M24 41h1M24 42h1M59 42h1M20 43h1M19 44h5M19 45h3M58 45h2M54 46h7M57 47h4M25 50h1M26 54h1M27 57h1M37 57h1" />
<path stroke="#f6bdbd" d="M33 24h1M34 25h1M39 25h1M34 26h6M35 27h4M49 34h1M49 42h1M52 42h1M49 43h1M55 43h1M57 43h1M48 47h1M47 49h1M46 50h1M26 51h1M45 51h1M26 52h2M43 52h1M26 53h4M40 53h1M27 54h11M27 55h5M27 56h7M28 57h6M28 58h7M29 59h6M29 60h5M30 61h4M31 62h1" />
<path stroke="#ffffff" d="M32 31h1M38 31h1M53 61h2M51 62h2M29 63h2M32 63h2" />
<path stroke="#838383" d="M53 60h2M50 61h2M28 63h1M31 63h1" />
</svg>