<svg xmlns="http://www.w3.org/2000/svg" viewBox="0 -0.5 80 80" shape-rendering="crispEdges">
<metadata>Made with Pixels to Svg https://codepen.io/shshaw/pen/XbxvNj</metadata>
<path stroke="#399483" d="M36 11h1M45 11h5M33 12h3M31 13h1M29 14h1M28 15h1M31 15h2M27 16h1M30 16h2M26 17h1M29 17h2M25 18h1M28 18h2M42 18h1M24 19h1M27 19h2M24 20h1M27 20h2M45 20h1M23 21h1M26 21h2M44 21h1M47 21h1M61 21h1M23 22h1M25 22h2M60 22h1M22 23h1M24 23h1M26 23h1M59 23h1M22 24h2M21 25h2M20 26h2M25 26h1M19 27h1M21 27h1M25 27h1M18 28h1M21 28h1M25 28h1M17 29h1M25 29h1M64 29h2M17 30h1M25 30h1M56 30h1M61 30h1M66 30h2M16 31h1M25 31h1M68 31h1M16 32h1M25 32h1M16 33h1M21 33h1M25 33h2M55 33h1M16 34h1M21 34h1M26 34h1M16 35h1M22 35h1M26 35h1M54 35h1M26 36h2M53 36h1M27 37h1M51 37h2M27 38h2M48 38h3M24 39h2M28 39h1M44 39h4M26 40h1M21 41h1M30 41h1M31 42h1M32 43h1M33 44h1M34 45h1M51 46h2M50 47h2M50 48h1M51 49h1M56 52h2M37 53h3M54 53h4M50 54h8M45 55h5M54 55h3M5 56h1M54 56h2M56 57h1M4 58h1M3 59h1M7 59h1M57 59h1M3 60h1M7 60h1M40 60h2M56 60h3M3 61h1M6 61h1M12 61h1M30 61h1M39 61h2M55 61h5M6 62h1M29 62h1M57 62h3M29 63h1M37 63h3M59 63h1M6 64h1M28 64h1M38 64h2M6 65h1M28 65h1M38 65h2M38 66h1M49 66h1" />
<path stroke="#085a41" d="M37 11h5M50 11h3M43 12h1M53 12h2M36 13h1M42 13h1M55 13h2M34 14h1M36 14h6M57 14h1M34 15h3M58 15h1M33 16h2M38 16h1M59 16h1M32 17h2M35 17h2M41 17h2M44 17h1M47 17h1M60 17h1M30 18h2M37 18h1M43 18h1M48 18h1M60 18h1M29 19h1M37 19h2M43 19h1M49 19h1M52 19h1M61 19h1M39 20h2M44 20h1M53 20h1M61 20h1M28 21h1M40 21h1M46 21h1M54 21h1M62 21h1M27 22h2M38 22h1M41 22h2M45 22h2M49 22h1M55 22h1M61 22h1M39 23h12M58 23h1M26 24h1M41 24h12M56 24h1M27 25h1M43 25h11M57 25h1M46 26h12M30 27h1M33 27h2M37 27h1M48 27h11M31 28h2M35 28h2M47 28h1M54 28h7M21 29h1M56 29h5M62 29h2M21 30h1M54 30h1M58 30h3M21 31h1M26 31h1M28 31h1M31 31h2M35 31h2M39 31h2M54 31h1M21 32h1M26 32h1M29 32h2M33 32h2M37 32h2M41 32h1M54 32h1M27 33h1M55 34h1M27 35h1M30 35h1M33 35h1M37 35h1M42 35h1M28 36h1M31 36h2M35 36h2M17 37h1M28 37h1M59 37h1M64 37h1M17 38h1M29 38h1M43 38h1M60 38h1M63 38h1M18 39h1M29 39h2M19 40h1M27 40h5M31 41h1M26 42h1M44 42h1M58 42h1M27 43h1M57 43h1M28 44h1M45 44h1M55 44h1M18 45h1M30 45h1M35 45h1M53 45h1M17 46h1M31 46h1M35 46h1M15 47h2M32 47h1M35 47h1M45 47h1M13 48h2M33 48h1M35 48h1M45 48h1M10 49h3M33 49h1M35 49h1M44 49h1M8 50h1M32 50h1M7 51h1M31 51h1M35 51h1M42 51h2M6 52h1M29 52h1M36 52h1M41 52h1M5 53h1M19 53h1M28 53h1M5 54h1M28 54h1M4 55h1M18 55h1M28 55h1M4 56h1M18 56h1M29 56h1M4 57h3M31 57h1M7 58h1M9 58h1M18 58h1M30 58h1M33 58h3M48 58h5M10 59h1M13 59h2M31 59h1M12 60h1M15 60h1M30 60h1M32 60h1M11 61h1M15 61h1M34 61h1M47 61h1M53 61h1M3 62h1M10 62h2M15 62h1M3 63h1M11 63h1M15 63h1M4 64h1M11 64h1M49 64h1M11 65h1M40 65h1M49 65h1M12 66h1M28 66h1M39 66h1M29 67h2M37 67h1M50 67h1M31 68h1M36 68h1M52 68h1M58 68h1M57 69h1" />
<path stroke="#62bd8b" d="M36 12h6M33 13h3M32 14h2M36 18h1M40 18h2M36 19h1M39 19h4M36 20h3M41 20h3M46 20h2M37 21h3M42 21h2M48 21h1M68 28h1M68 29h1M55 30h1M68 30h1M55 31h7M66 31h2M55 32h14M56 33h12M56 34h12M57 35h10M17 36h1M56 36h1M58 36h8M18 37h2M55 37h3M60 37h4M18 38h5M54 38h6M19 39h4M52 39h9M22 40h2M49 40h11M26 41h1M44 41h15M27 42h4M45 42h13M28 43h4M45 43h12M29 44h4M46 44h9M31 45h3M46 45h7M32 46h3M46 46h5M33 47h2M46 47h4M34 48h1M46 48h4M34 49h1M45 49h6M33 50h2M44 50h10M32 51h3M44 51h13M30 52h6M42 52h14M31 53h6M40 53h14M32 54h18M34 55h11M50 55h4M46 56h8M47 57h6M31 58h2M47 58h1M56 58h1M4 59h1M8 59h1M32 59h4M48 59h1M33 60h7M46 60h3M7 61h1M35 61h4M48 61h1M12 62h1M53 62h4M14 63h1M35 63h2M56 63h3M35 64h3M57 64h4M36 65h2M57 65h4M36 66h2M58 66h3M35 67h2M58 67h2" />
<path stroke="#181818" d="M42 12h1M37 13h5M35 14h1M33 15h1M32 16h1M39 16h2M31 17h1M34 17h1M37 17h1M45 17h2M33 18h1M49 18h2M30 19h1M33 19h1M29 20h1M34 20h2M50 20h1M29 21h1M36 21h1M41 21h1M45 21h1M50 21h1M37 22h1M39 22h2M43 22h2M47 22h2M62 22h2M27 23h1M38 23h1M56 23h1M64 23h2M27 24h1M39 24h1M57 24h1M66 24h1M26 25h1M40 25h2M67 25h1M26 26h1M40 26h1M42 26h2M58 26h1M68 26h1M26 27h1M40 27h1M44 27h2M59 27h2M68 27h1M26 28h1M40 28h1M48 28h6M61 28h1M69 28h1M26 29h1M40 29h1M54 29h2M61 29h1M69 29h1M26 30h1M40 30h1M57 30h1M69 30h1M69 31h1M69 32h1M41 33h1M68 33h1M27 34h1M41 34h1M68 34h1M56 35h1M67 35h1M22 36h1M42 36h1M57 36h1M66 36h1M22 37h1M42 37h1M58 37h1M65 37h1M23 38h1M61 38h2M23 39h1M43 39h1M61 39h1M24 40h1M43 40h1M60 40h1M20 41h1M25 41h1M59 41h1M20 42h1M22 42h4M32 42h1M20 43h1M24 43h1M33 43h1M44 43h1M19 44h1M23 44h1M34 44h1M56 44h1M23 45h1M45 45h1M54 45h1M22 46h1M36 46h1M45 46h1M21 47h1M36 47h1M21 48h1M36 48h1M51 48h1M20 49h1M52 49h2M20 50h1M35 50h1M54 50h3M20 51h1M30 51h1M36 51h1M57 51h1M37 52h4M58 52h1M58 53h1M19 54h1M58 54h1M57 55h1M56 56h2M18 57h1M30 57h1M53 57h3M57 57h1M8 58h1M57 58h1M17 59h1M36 59h12M56 59h1M58 59h1M17 60h1M42 60h1M45 60h1M55 60h1M59 60h1M16 61h1M33 61h1M41 61h1M46 61h1M54 61h1M16 62h1M35 62h6M48 62h5M60 62h1M6 63h1M10 63h1M40 63h1M49 63h1M60 63h1M5 64h1M10 64h1M14 64h1M40 64h1M61 64h1M9 65h1M14 65h1M61 65h1M7 66h2M13 66h1M61 66h1M38 67h1M60 67h1M32 68h4M51 68h1M59 68h1M53 69h4" />
<path stroke="#c5eee6" d="M44 12h9M32 13h1M43 13h4M51 13h4M30 14h2M42 14h4M52 14h5M29 15h2M41 15h5M52 15h6M28 16h2M41 16h6M51 16h8M27 17h2M43 17h1M48 17h12M26 18h2M51 18h9M25 19h2M53 19h7M25 20h2M54 20h5M24 21h2M55 21h3M24 22h1M23 23h1M25 23h1M60 23h3M24 24h2M58 24h2M23 25h2M22 26h3M20 27h1M22 27h2M17 31h2M17 32h4M18 33h3M19 34h2M5 59h1M4 60h1M4 62h1M8 62h1M13 62h1M13 63h1M12 64h2" />
<path stroke="#ffffff" d="M47 13h4M46 14h6M46 15h6M47 16h4M39 17h2M35 18h1M38 18h2M45 18h2M34 19h2M44 19h3M19 28h2M18 29h3M18 30h3M19 31h2M35 56h4M36 57h3M5 58h1M36 58h3M8 60h1M13 60h1M4 61h1M8 61h1M13 61h1M7 62h1M7 63h2M12 63h1M32 63h1M7 64h1M31 64h2M7 65h1M30 65h3M52 65h1M30 66h2M52 66h1M31 67h1M53 67h1M53 68h2" />
<path stroke="#8b836a" d="M37 15h4M35 16h3M31 19h1M30 20h1M30 21h1M35 21h1M29 22h1M35 22h2M50 22h3M28 23h1M35 23h3M51 23h3M55 23h1M28 24h1M34 24h5M53 24h3M28 25h1M32 25h8M54 25h3M27 26h3M38 26h2M27 27h3M38 27h2M27 28h4M33 28h2M37 28h3M27 29h13M27 30h1M27 31h1M27 32h2M31 32h2M35 32h2M39 32h2M28 33h13M28 34h2M34 34h1M38 34h3M28 35h2M34 35h1M38 35h4M29 36h2M33 36h2M37 36h5M29 37h13M30 38h13M31 39h12M33 40h10M35 41h8M36 42h6M20 44h2M19 45h3M18 46h4M17 47h4M15 48h6M13 49h7M37 49h7M9 50h1M14 50h6M37 50h7M16 51h4M37 51h5M17 52h3M6 53h2M17 53h2M6 54h1M16 54h3M5 55h2M17 55h1M6 56h5M17 56h1M7 57h7M17 57h1M10 58h8M11 59h2M15 59h2M11 60h1M16 60h1" />
<path stroke="#9ce6c5" d="M38 17h1M34 18h1M44 18h1M47 18h1M47 19h2M60 19h1M48 20h2M59 20h2M49 21h1M58 21h3M56 22h4M57 23h1M63 23h1M60 24h6M25 25h1M58 25h9M41 26h1M59 26h9M24 27h1M41 27h3M61 27h7M22 28h3M41 28h6M62 28h6M22 29h3M41 29h13M66 29h2M22 30h3M41 30h13M62 30h4M22 31h3M41 31h13M62 31h4M22 32h3M42 32h12M17 33h1M22 33h3M42 33h13M17 34h2M22 34h4M42 34h13M17 35h5M23 35h3M43 35h11M55 35h1M18 36h4M23 36h3M43 36h10M54 36h2M20 37h2M23 37h4M43 37h8M53 37h2M24 38h3M44 38h4M51 38h3M26 39h2M48 39h4M20 40h2M25 40h1M44 40h5M22 41h3M27 41h3M29 53h2M29 54h3M29 55h5M30 56h5M39 56h7M32 57h4M39 57h8M6 58h1M39 58h8M53 58h3M6 59h1M9 59h1M49 59h7M5 60h2M9 60h2M14 60h1M31 60h1M49 60h6M5 61h1M9 61h2M14 61h1M31 61h2M49 61h4M5 62h1M9 62h1M14 62h1M30 62h5M4 63h2M9 63h1M30 63h2M33 63h2M50 63h6M8 64h2M29 64h2M33 64h2M50 64h7M8 65h1M12 65h2M29 65h1M33 65h3M50 65h2M53 65h4M29 66h1M32 66h4M50 66h2M53 66h5M32 67h3M51 67h2M54 67h4M55 68h3" />
<path stroke="#acac7b" d="M32 18h1M32 19h1M50 19h2M31 20h3M51 20h2M31 21h4M51 21h3M30 22h5M53 22h2M29 23h6M54 23h1M29 24h5M29 25h3M10 50h4M8 51h8M7 52h10M10 53h7M10 54h1M14 54h2" />
<path stroke="#6a6a52" d="M40 24h1M42 25h1M30 26h1M33 26h2M37 26h1M44 26h2M46 27h2M28 30h1M31 30h2M35 30h2M39 30h1M30 34h1M33 34h1M37 34h1M32 40h1M32 41h3M43 41h1M21 42h1M33 42h3M42 42h2M21 43h3M34 43h10M22 44h1M35 44h10M22 45h1M36 45h9M37 46h8M37 47h8M37 48h8M36 49h1M36 50h1" />
<path stroke="#ffb4a4" d="M31 26h1M35 26h1M29 30h1M33 30h1M37 30h1M31 34h1M35 34h1" />
<path stroke="#ff6273" d="M32 26h1M36 26h1M31 27h2M35 27h2M30 30h1M34 30h1M38 30h1M29 31h2M33 31h2M37 31h2M32 34h1M36 34h1M31 35h2M35 35h2M8 54h1M11 55h2M14 56h2" />
<path stroke="#bd3983" d="M8 53h2M7 54h1M9 54h1M11 54h3M7 55h4M13 55h4M11 56h3M16 56h1M14 57h3" />
</svg>