<svg xmlns="http://www.w3.org/2000/svg" viewBox="0 -0.5 80 80" shape-rendering="crispEdges">
<metadata>Made with Pixels to Svg https://codepen.io/shshaw/pen/XbxvNj</metadata>
<path stroke="#29526a" d="M9 18h2M7 19h2M10 19h1M32 19h3M69 19h2M11 20h1M31 20h1M39 20h2M68 20h1M71 20h2M3 21h2M11 21h1M30 21h1M39 21h1M68 21h1M73 21h1M3 22h1M5 22h2M29 22h1M38 22h1M67 22h1M2 23h2M28 23h1M38 23h1M74 23h2M2 24h1M28 24h1M37 24h1M76 24h1M37 25h1M76 25h1M77 26h1M3 28h2M2 29h1M2 30h2M74 30h2M76 31h1M75 32h2M75 33h1M40 47h1M52 53h1M52 54h1M48 60h1" />
<path stroke="#52a4d5" d="M9 19h1M7 20h4M33 20h1M69 20h2M7 21h4M31 21h3M40 21h1M69 21h4M4 22h1M8 22h2M30 22h3M39 22h2M68 22h5M4 23h3M29 23h4M39 23h3M69 23h3M3 24h4M29 24h3M38 24h4M74 24h2M3 25h3M28 25h3M38 25h4M72 25h4M5 26h1M28 26h1M37 26h5M73 26h4M38 27h3M74 27h3M40 28h1M3 29h2M4 30h2M73 30h1M4 31h2M73 31h3M72 32h3M21 33h2M73 33h2M20 34h3M35 34h1M49 34h4M20 35h3M34 35h2M48 35h6M20 36h2M27 36h1M34 36h3M49 36h5M21 37h1M27 37h1M34 37h3M49 37h4M21 38h1M27 38h1M34 38h1M36 38h1M49 38h4M34 39h1M49 39h3M49 40h2M48 41h1M31 46h1M36 46h2M31 47h6M30 48h6M31 49h3M21 53h3M21 54h4M22 55h2M51 55h3M26 56h2M49 56h5M25 57h4M51 57h2M26 58h2M46 58h3M46 59h4M47 60h1" />
<path stroke="#101010" d="M6 20h1M34 20h1M6 21h1M34 21h1M41 21h1M7 22h1M33 22h1M41 22h1M73 22h1M33 23h1M42 23h1M72 23h1M32 24h1M42 24h1M71 24h3M2 25h1M27 25h1M32 25h1M42 25h1M3 26h2M27 26h1M32 26h1M42 26h1M5 27h1M27 27h1M31 27h1M42 27h1M77 27h1M27 28h1M31 28h1M41 28h1M73 28h4M28 29h1M31 29h1M41 29h1M72 29h2M28 30h1M40 30h1M3 31h1M6 31h2M28 31h1M38 31h2M4 32h2M8 32h1M36 32h3M8 33h1M35 33h1M39 33h1M70 33h3M9 34h1M70 34h1M73 34h3M10 35h1M40 35h1M69 35h1M10 36h1M40 36h1M68 36h1M11 37h1M40 37h1M12 38h1M35 38h1M40 38h1M67 38h1M13 39h1M26 39h1M35 39h1M66 39h1M14 40h1M27 40h1M39 40h1M65 40h1M15 41h1M27 41h1M38 41h1M40 41h2M64 41h1M17 42h1M25 42h2M28 42h1M36 42h4M42 42h1M63 42h1M19 43h2M24 43h1M27 43h2M34 43h2M37 43h1M42 43h1M61 43h1M22 44h3M29 44h2M33 44h1M36 44h1M41 44h1M58 44h2M25 45h1M30 45h3M36 45h1M40 45h4M54 45h3M26 46h2M40 46h1M44 46h9M29 47h1M29 48h1M41 48h1M28 49h1M41 49h1M35 50h1M37 50h1M41 50h1M27 51h1M40 51h1M21 52h2M28 52h5M34 52h1M39 52h2M20 53h1M33 53h6M40 53h2M51 53h1M20 54h1M36 54h1M41 54h2M53 54h1M21 55h1M24 55h2M35 55h1M38 55h1M42 55h2M54 55h1M22 56h2M25 56h1M32 56h3M38 56h2M43 56h1M48 56h1M54 56h1M24 57h1M29 57h3M34 57h2M37 57h1M39 57h1M41 57h2M48 57h3M53 57h1M24 58h2M28 58h1M35 58h2M40 58h2M49 58h1M51 58h2M25 59h3M45 59h1M50 59h1M46 60h1M49 60h2M47 61h2" />
<path stroke="#297b9c" d="M32 20h1M41 27h1M23 34h3M23 35h4M46 35h2M22 36h4M44 36h5M22 37h4M42 37h7M22 38h4M41 38h8M22 39h4M27 39h1M36 39h1M41 39h8M22 40h5M34 40h3M40 40h9M23 41h4M35 41h1M39 41h1M42 41h6M24 42h1M27 42h1M43 42h5M43 43h2M30 47h1M37 47h3M41 47h2M36 48h5M42 48h3M30 49h1M34 49h6M42 49h4M32 50h3M38 50h1M42 50h4M41 51h6M27 52h1M41 52h6M28 53h5M42 53h4M29 54h3M43 54h2" />
<path stroke="#eeee73" d="M10 22h2M9 23h3M67 23h2M7 24h2M10 24h4M64 24h7M6 25h11M60 25h10M6 26h13M57 26h12M70 26h3M7 27h14M55 27h19M5 28h18M53 28h20M5 29h19M51 29h19M6 30h1M8 30h17M49 30h24M8 31h16M25 31h1M47 31h1M49 31h24M9 32h14M24 32h1M46 32h1M48 32h1M50 32h20M71 32h1M9 33h12M23 33h1M47 33h1M49 33h21M10 34h10M48 34h1M53 34h16M11 35h9M54 35h15M11 36h9M54 36h14M12 37h9M53 37h14M13 38h8M53 38h14M14 39h8M52 39h14M15 40h7M51 40h14M17 41h5M49 41h15M19 42h4M48 42h14M22 43h1M48 43h12M47 44h10M46 45h7M25 48h1M25 49h1M49 49h1M24 50h2M48 50h1M24 51h3M49 51h1M24 52h3M48 52h1M50 52h1M24 53h4M49 53h2M25 54h1M27 54h1M48 54h4M26 55h3M47 55h4M28 56h2M45 56h2M44 57h4M45 58h1" />
<path stroke="#948b29" d="M12 22h1M7 23h2M12 23h2M64 23h3M14 24h3M60 24h4M17 25h2M57 25h3M70 25h2M19 26h2M55 26h2M6 27h1M21 27h2M53 27h2M23 28h2M51 28h2M25 29h1M49 29h2M71 29h1M7 30h1M26 30h1M47 30h2M27 31h1M45 31h2M44 32h1M70 32h1M43 33h1M42 34h1M69 34h1M41 35h1M67 37h2M16 41h1M18 42h1M62 42h1M21 43h1M60 43h1M57 44h1M53 45h1M25 47h1M28 47h1M48 47h1M24 48h1M49 48h1M24 49h1M50 49h1M23 50h1M50 50h1M23 51h1M51 51h1M23 52h1M51 52h1M26 54h1M35 54h1M47 56h1M43 58h2" />
<path stroke="#d5cd41" d="M9 24h1M69 26h1M24 29h1M70 29h1M25 30h1M24 31h1M26 31h1M48 31h1M23 32h1M25 32h3M45 32h1M47 32h1M49 32h1M24 33h4M44 33h3M48 33h1M26 34h1M43 34h5M42 35h4M41 36h3M41 37h1M22 41h1M23 42h1M23 43h1M45 43h3M42 44h5M44 45h2M41 46h3M26 47h2M43 47h5M26 48h3M45 48h4M26 49h2M46 49h3M26 50h1M46 50h2M49 50h1M47 51h2M50 51h1M47 52h1M49 52h1M46 53h3M28 54h1M32 54h3M45 54h3M29 55h6M44 55h3M30 56h2M44 56h1M43 57h1" />
<path stroke="#c5cdd5" d="M31 25h1M29 26h3M28 27h3M37 27h1M28 28h3M36 28h4M29 29h2M36 29h4M29 30h1M36 30h3M29 31h1M35 31h3M29 32h1M34 32h2M29 33h1M34 33h1M29 34h1M33 34h1M33 35h1M28 36h1M32 36h1M28 37h1M32 37h1M28 38h1M32 38h1M32 39h1M40 42h1M25 43h2M38 43h4M25 44h3M39 44h2M26 45h1M29 49h1M29 50h2M36 50h1M28 51h2M36 51h2M35 52h2" />
<path stroke="#525a6a" d="M36 26h1M36 27h1M35 28h1M35 29h1M34 31h1M36 33h1M27 50h2M37 52h1" />
<path stroke="#838b9c" d="M40 29h1M30 30h1M35 30h1M39 30h1M28 35h1M33 36h1M33 37h1M33 38h1M28 39h1M33 39h1M28 40h1M33 40h1M33 41h1M34 42h1M41 42h1M28 44h1M37 44h2M27 45h3M37 45h3M28 46h1M30 51h1M35 51h1" />
<path stroke="#293129" d="M31 30h4M30 31h1M28 32h1M30 32h1M28 33h1M27 34h1M27 35h1M26 36h1M26 37h1M26 38h1M39 39h2M29 43h1M29 46h2M31 50h1M31 51h1M34 51h1M39 53h1M37 54h4M37 55h1M39 55h2" />
<path stroke="#5a6a5a" d="M31 31h3M31 32h3M30 33h4M37 33h2M28 34h1M30 34h3M36 34h3M29 35h4M36 35h4M29 36h3M37 36h2M29 37h3M37 37h2M29 38h3M37 38h1M29 39h3M29 40h4M29 41h1M31 41h2M29 42h1M31 42h3M30 43h1M32 43h1M32 44h1M33 45h3M32 46h4" />
<path stroke="#394a31" d="M34 34h1M39 34h2M39 36h1M39 37h1M38 38h2M37 39h2M37 40h2M28 41h1M30 41h1M34 41h1M36 41h2M30 42h1M35 42h1M31 43h1M33 43h1M36 43h1M31 44h1M34 44h2M38 46h2M40 49h1M39 50h2M32 51h2M38 51h2M33 52h1M38 52h1M36 55h1M41 55h1M35 56h3M40 56h3M36 57h1M40 57h1" />
</svg>