<svg xmlns="http://www.w3.org/2000/svg" viewBox="0 -0.5 80 80" shape-rendering="crispEdges">
<metadata>Made with Pixels to Svg https://codepen.io/shshaw/pen/XbxvNj</metadata>
<path stroke="#204a29" d="M39 22h4M38 23h1M43 23h1M37 24h1M37 25h1M35 26h3M45 26h2M33 27h2M38 27h1M47 27h1M39 28h2M28 30h3M51 30h3M27 31h1M31 31h1M50 31h1M54 31h1M26 32h1M32 32h1M26 33h1M49 33h1M26 34h1M37 34h5M27 35h1M42 35h1M28 37h1M34 37h1M44 37h1M54 37h1M34 38h1M44 38h1M54 38h1M37 39h4M27 40h1M34 40h1M36 40h1M41 40h1M44 40h1M27 41h1M34 41h1M36 41h1M41 41h1M44 41h1M27 42h1M34 42h1M36 42h1M41 42h1M44 42h1M27 43h1M36 43h1M41 43h1M27 44h1M34 44h1M37 44h4M43 44h1M26 45h3M34 45h1M43 45h1M25 46h1M29 46h1M50 46h3M25 47h1M36 47h1M40 47h2M53 47h1M25 48h1M37 48h3M25 49h1M26 50h1M48 50h1M27 51h2M49 51h1M38 52h2M49 52h1M33 54h1M34 55h2M35 56h1M36 57h1" />
<path stroke="#4a9441" d="M39 23h2M38 24h1M40 24h1M38 25h2M37 27h1M44 27h2M35 28h4M43 28h4M33 29h15M31 30h18M28 31h2M32 31h5M42 31h8M51 31h2M27 32h1M29 32h1M33 32h2M44 32h5M50 32h1M52 32h1M27 33h2M33 33h1M45 33h4M50 33h2M46 34h3M32 35h1M47 35h3M31 36h1M47 36h3M30 37h2M48 37h3M30 38h2M48 38h3M29 39h2M48 39h3M29 40h2M39 40h1M48 40h3M29 41h2M39 41h1M48 41h3M29 42h2M37 42h3M48 42h3M29 43h2M48 43h3M29 44h2M48 44h3M29 45h3M47 45h3M27 46h1M30 46h2M47 46h3M26 47h1M28 47h1M31 47h2M46 47h3M50 47h2M26 48h2M31 48h2M45 48h3M49 48h1M51 48h1M31 49h3M44 49h4M49 49h2M30 50h6M42 50h6M31 51h16M32 52h5M40 52h6M32 53h4M37 53h2M41 53h4M34 54h1M36 54h1M38 54h1M36 55h2" />
<path stroke="#316a31" d="M41 23h2M41 24h3M40 25h3M38 26h5M44 26h1M39 27h4M46 27h1M32 28h1M48 28h1M31 29h1M49 29h1M50 30h1M30 31h1M37 31h5M53 31h1M30 32h2M35 32h9M49 32h1M53 32h2M29 33h3M34 33h11M52 33h3M27 34h5M33 34h4M42 34h4M50 34h5M28 35h3M33 35h2M37 35h5M45 35h2M51 35h3M32 36h3M37 36h6M45 36h2M32 37h2M35 37h9M45 37h3M51 37h3M28 38h1M32 38h2M35 38h9M45 38h3M52 38h2M27 39h1M31 39h2M36 39h1M41 39h2M46 39h2M52 39h2M31 40h1M40 40h1M47 40h1M52 40h2M31 41h1M40 41h1M47 41h1M52 41h2M31 42h1M40 42h1M47 42h1M52 42h2M31 43h2M37 43h4M42 43h1M46 43h2M52 43h2M31 44h3M35 44h2M41 44h2M44 44h4M51 44h3M32 45h2M35 45h8M44 45h3M51 45h3M26 46h1M28 46h1M32 46h2M36 46h6M44 46h3M29 47h1M33 47h1M37 47h3M44 47h2M49 47h1M52 47h1M28 48h2M33 48h4M40 48h5M48 48h1M52 48h2M26 49h4M34 49h10M48 49h1M51 49h3M27 50h2M36 50h6M49 50h5M48 51h1M50 51h3M37 52h1M47 52h2M36 53h1M39 53h1M46 53h2M35 54h1M39 54h2M42 54h1M44 54h3M38 55h3M42 55h3M36 56h6M37 57h4" />
<path stroke="#73bd6a" d="M39 24h1M35 27h2M33 28h2M47 28h1M32 29h1M48 29h1M49 30h1M28 32h1M51 32h1M35 35h2M43 35h2M35 36h2M43 36h2M50 36h1M29 37h1M29 38h1M51 38h1M28 39h1M51 39h1M28 40h1M51 40h1M28 41h1M51 41h1M28 42h1M51 42h1M28 43h1M51 43h1M28 44h1M50 45h1M34 46h2M42 46h2M27 47h1M34 47h2M42 47h2M50 48h1M47 51h1M46 52h1M45 53h1M37 54h1M43 54h1" />
<path stroke="#101010" d="M44 24h1M43 25h2M43 26h1M43 27h1M48 27h1M41 28h2M49 28h1M50 29h1M55 32h1M32 33h1M55 33h1M32 34h1M49 34h1M55 34h1M31 35h1M50 35h1M54 35h1M28 36h3M51 36h3M54 39h1M54 40h1M54 41h1M54 42h1M54 43h1M54 44h1M54 45h1M53 46h1M30 47h1M30 48h1M54 48h1M30 49h1M54 49h1M29 50h1M54 50h1M29 51h2M53 51h1M31 52h1M50 52h3M40 53h1M48 53h1M41 54h1M47 54h1M41 55h1M45 55h2M42 56h3M41 57h1M37 58h4" />
<path stroke="#ffde73" d="M33 39h3M43 39h3M33 40h1M35 40h1M43 40h1M45 40h1M33 41h1M35 41h1M43 41h1M45 41h1M33 42h1M35 42h1M43 42h1M45 42h1M33 43h3M43 43h3" />
<path stroke="#94b48b" d="M32 40h1M42 40h1M46 40h1M32 41h1M42 41h1M46 41h1M32 42h1M42 42h1M46 42h1" />
<path stroke="#7bde7b" d="M37 40h2M37 41h2" />
</svg>