<svg xmlns="http://www.w3.org/2000/svg" viewBox="0 -0.5 80 80" shape-rendering="crispEdges">
<metadata>Made with Pixels to Svg https://codepen.io/shshaw/pen/XbxvNj</metadata>
<path stroke="#6a626a" d="M35 8h4M34 9h1M39 9h1M33 10h1M40 10h1M33 11h1M33 12h1M33 13h1M35 15h1" />
<path stroke="#ffffff" d="M35 9h3M34 10h5M34 11h5M35 12h3M28 40h1M39 41h1M32 42h1M38 53h1" />
<path stroke="#ded5de" d="M38 9h1M34 12h1M38 12h1" />
<path stroke="#bdacbd" d="M39 10h1M39 11h1M39 12h1M34 13h6M35 14h4" />
<path stroke="#000000" d="M40 11h1M40 12h1M40 13h1M34 14h1M39 14h1M36 15h3M40 15h1M39 18h1M43 19h1M39 20h1M44 20h1M44 22h1M43 23h1M33 26h1M27 30h1M47 30h1M27 31h1M47 31h1M27 32h2M46 32h1M23 39h1M28 39h1M50 39h1M23 40h1M27 40h1M29 40h1M39 40h1M42 40h1M50 40h1M23 41h1M27 41h3M38 41h1M40 41h1M42 41h1M50 41h1M24 42h1M28 42h1M38 42h3M42 42h1M49 42h1M25 43h2M35 43h1M39 43h1M30 44h1M35 44h1M46 44h2M55 44h1M27 45h1M31 45h4M38 45h1M44 45h2M54 45h1M28 46h1M43 46h1M52 46h1M29 47h1M42 47h1M50 47h1M31 48h1M40 48h2M47 48h2M32 49h6M43 49h3M46 51h3M23 52h1M49 52h1M35 53h1M49 53h1M22 54h1M33 54h1M37 54h1M49 54h1M22 55h1M32 55h1M37 55h1M41 55h1M48 55h2M23 56h1M28 56h2M39 56h2M48 56h1M25 57h2M33 57h1M47 57h1M51 57h1M34 58h1M45 58h2M49 58h2M35 59h1M39 59h1M44 59h1M47 59h2M36 60h4M43 60h1M45 60h2M40 61h3M44 61h1M36 62h1M37 64h1M41 64h1M38 65h1M41 65h1M39 66h2" />
<path stroke="#39946a" d="M39 15h1M39 16h2M35 25h1M35 26h3M36 27h3M36 28h3M28 29h1M28 30h2M28 31h4M42 31h1M44 31h1M46 31h1M29 32h13M43 32h1M45 32h1M29 33h12M42 33h1M44 33h1M29 34h2M37 34h7M41 35h2M24 39h1M24 40h2M43 40h1M48 40h2M24 41h2M43 41h7M25 42h1M43 42h6M43 43h5M44 44h2M49 56h1M48 57h3M47 58h2M45 59h2M44 60h1M36 61h2M43 61h1M41 62h2M40 63h2M38 64h3M39 65h1" />
<path stroke="#295a41" d="M38 16h1M41 16h1M39 17h1M42 17h1M43 18h1M40 19h1M36 20h3M34 21h2M44 21h1M33 22h1M33 23h1M33 24h1M42 24h1M34 25h1M43 25h1M31 26h2M34 26h1M44 26h1M29 27h2M35 27h1M45 27h1M28 28h1M46 28h1M27 29h1M47 29h1M28 33h1M46 33h1M26 34h1M47 34h1M25 35h1M48 35h1M24 36h1M49 36h1M24 37h1M49 37h1M23 38h1M43 38h1M50 38h1M42 39h1M48 43h1M43 44h1M50 55h1M50 56h2M35 60h1M43 62h1M37 63h1M42 63h1M40 65h1" />
<path stroke="#5ac58b" d="M40 17h2M40 18h3M41 19h2M40 20h4M36 21h8M34 22h10M34 23h9M34 24h8M36 25h7M38 26h6M31 27h4M39 27h6M29 28h7M39 28h7M29 29h18M30 30h17M32 31h10M43 31h1M45 31h1M42 32h1M44 32h1M41 33h1M43 33h1M45 33h1M27 34h2M44 34h3M26 35h3M43 35h5M25 36h3M43 36h6M25 37h2M44 37h5M24 38h3M44 38h6M25 39h1M43 39h7M44 40h4M38 61h2M37 62h4M38 63h2" />
<path stroke="#732073" d="M31 34h6M29 35h1M38 35h3M28 36h1M41 36h2M27 37h1M43 37h1M27 38h1M26 39h1M26 40h1M26 41h1M34 41h1M52 41h3M26 42h1M35 42h1M51 42h2M55 42h1M51 43h1M55 43h1M27 44h1M51 44h1M49 45h2M33 46h6M46 46h3M53 46h1M34 47h4M41 47h1M43 47h3M51 47h1M30 48h1M39 48h1M49 48h1M38 49h1M42 49h1M46 49h1M35 50h1M44 50h2M34 51h1M24 52h2M32 52h2M36 52h1M38 52h3M22 53h1M25 53h2M29 53h3M37 53h1M41 53h1M26 54h3M35 54h1M41 54h1M47 54h2M31 55h1M34 55h2M30 56h1M33 56h1M38 56h1M24 57h1M27 57h1M44 57h1M35 58h1M44 58h1M40 60h1" />
<path stroke="#e69cbd" d="M30 35h1M37 35h1M40 36h1M42 37h1M27 42h1M41 42h1M27 43h3M36 43h3M40 43h3M28 44h2M36 44h7M54 44h1M28 45h3M35 45h3M39 45h5M29 46h4M39 46h4M49 46h1M30 47h4M38 47h3M46 47h4M32 48h7M42 48h5M39 49h3M36 50h7M35 51h7M34 52h2M37 52h1M46 52h1M33 53h2M36 53h1M29 54h1M32 54h1M23 55h1M30 55h1M27 56h1M35 57h1M39 58h1M36 59h1M38 59h1M43 59h1M41 60h2" />
<path stroke="#ffd5de" d="M31 35h6M29 36h11M28 37h14M28 38h15M27 39h1M29 39h13M30 40h9M40 40h2M30 41h1M35 41h3M41 41h1M29 42h1M36 42h2M53 42h2M52 43h3M52 44h2M51 45h3M50 46h2M43 50h1M42 51h4M41 52h5M47 52h2M23 53h2M32 53h1M42 53h7M23 54h3M30 54h2M36 54h1M42 54h5M24 55h6M36 55h1M42 55h6M24 56h3M34 56h4M41 56h7M34 57h1M36 57h8M45 57h2M36 58h3M40 58h4M37 59h1M40 59h3" />
<path stroke="#c5209c" d="M31 41h3M30 42h1M34 42h1M30 43h1M33 43h2M31 44h4M40 53h1M40 54h1M38 55h3" />
<path stroke="#ee6a31" d="M31 42h1M33 42h1M31 43h2M39 53h1M38 54h2" />
</svg>