<svg xmlns="http://www.w3.org/2000/svg" viewBox="0 -0.5 80 80" shape-rendering="crispEdges">
<metadata>Made with Pixels to Svg https://codepen.io/shshaw/pen/XbxvNj</metadata>
<path stroke="#41416a" d="M39 5h4M36 6h2M43 6h1M34 7h1M62 7h3M33 8h1M60 8h2M65 8h2M32 9h1M59 9h1M67 9h1M31 10h1M58 10h1M30 11h1M57 11h1M18 12h3M57 12h1M17 13h1M21 13h1M29 13h1M56 13h1M16 14h1M29 14h1M56 14h1M15 15h1M28 15h1M45 15h1M55 15h1M28 16h1M44 16h1M55 16h1M28 17h1M43 17h1M55 17h1M14 18h1M28 18h1M43 18h1M54 18h1M65 18h3M14 19h1M28 19h1M42 19h1M54 19h1M64 19h1M68 19h1M14 20h1M24 20h1M28 20h1M54 20h1M63 20h1M14 21h1M24 21h1M28 21h1M54 21h1M63 21h1M14 22h1M23 22h1M28 22h1M41 22h1M54 22h1M62 22h1M14 23h1M23 23h1M54 23h1M62 23h1M14 24h1M23 24h1M29 24h1M54 24h1M62 24h1M14 25h1M23 25h1M29 25h1M54 25h1M62 25h1M14 26h1M23 26h1M29 26h1M54 26h1M62 26h1M15 27h1M23 27h1M29 27h1M54 27h1M57 27h1M63 27h1M15 28h1M23 28h1M30 28h1M57 28h1M64 28h1M15 29h1M23 29h1M30 29h1M57 29h1M23 30h1M30 30h1M58 30h1M19 31h1M23 31h1M31 31h1M58 31h1M19 32h1M23 32h1M31 32h1M59 32h1M20 33h1M23 33h1M59 33h1M20 34h1M24 34h1M60 34h2M21 35h1M24 35h1M61 35h2M62 40h7M61 41h1M70 41h3M60 42h1M74 42h1M59 43h1M76 43h1M7 44h5M58 44h1M77 44h1M4 45h1M13 45h2M58 45h1M78 45h1M3 46h1M16 46h1M62 46h1M67 46h1M78 46h1M2 47h1M17 47h1M61 47h1M70 47h1M1 48h1M18 48h1M73 48h1M19 49h1M74 49h1M5 50h1M9 50h1M20 50h1M75 50h1M3 51h1M11 51h1M20 51h1M13 52h1M65 52h1M75 52h1M14 53h1M15 54h1M16 55h1M17 56h1M17 57h1" />
<path stroke="#181820" d="M50 5h2M44 6h1M52 6h1M54 6h2M45 7h2M56 7h1M47 8h1M56 8h1M57 9h1M68 10h1M28 11h2M68 11h1M69 12h1M22 13h1M69 13h1M23 14h1M70 14h1M70 15h1M70 16h1M70 17h1M70 18h1M70 19h1M70 20h1M71 21h1M71 22h1M71 23h1M72 24h1M73 25h1M74 26h1M75 27h1M77 30h1M77 31h1M78 32h1M66 33h1M78 33h1M65 34h1M78 34h1M63 35h2M78 35h1M60 36h3M78 36h1M60 37h1M78 37h1M22 38h3M59 38h1M78 38h1M22 39h1M25 39h1M54 39h2M59 39h1M78 39h1M22 40h1M26 40h1M54 40h1M57 40h1M59 40h1M77 40h1M22 41h1M26 41h1M52 41h3M58 41h2M77 41h1M22 42h1M27 42h1M58 42h1M77 42h1M21 43h1M27 43h1M21 44h1M28 44h1M21 45h1M29 45h1M21 46h1M29 46h1M21 47h1M20 48h1M1 49h1M20 49h1M1 50h1M1 51h1M60 51h1M1 52h1M60 52h1M1 53h1M24 53h6M37 53h1M48 53h3M60 53h1M64 53h1M23 54h1M30 54h1M36 54h1M41 54h6M51 54h1M60 54h1M63 54h1M65 54h2M75 54h2M31 55h2M35 55h1M52 55h1M59 55h4M66 55h1M74 55h1M21 56h1M34 56h1M53 56h1M57 56h3M67 56h3M73 56h1M16 57h1M20 57h2M34 57h1M54 57h1M68 57h1M72 57h1M16 58h1M19 58h1M21 58h1M55 58h1M69 58h3M16 59h3M69 59h1M6 60h3M10 60h2M16 60h1M69 60h1M5 61h1M11 61h1M15 61h1M68 61h1M3 62h2M11 62h1M14 62h1M36 62h1M68 62h2M12 63h2M36 63h1M54 64h1M71 64h1M18 65h1M35 65h1M54 65h1M71 65h1M18 66h1M37 66h1M53 66h1M72 66h1M19 67h1M37 67h1M53 67h1M72 67h1M19 68h1M36 68h1M71 68h1M38 69h1M71 69h1M38 70h1M38 71h1M53 71h1M65 71h2M73 71h1M36 72h2M55 72h3M60 72h4M67 72h6M26 73h3M34 73h2M22 74h4M29 74h5" />
<path stroke="#5a6283" d="M38 6h1M35 7h1M63 8h2M62 9h1M61 10h1M60 11h1M60 12h1M19 13h1M59 13h1M18 14h1M44 14h2M59 14h1M18 15h1M43 15h2M59 15h1M15 16h1M17 16h1M42 16h2M58 16h1M15 17h1M17 17h1M42 17h1M58 17h1M17 18h1M41 18h2M58 18h1M17 19h1M41 19h1M57 19h1M17 20h1M40 20h2M57 20h1M17 21h1M40 21h2M57 21h1M17 22h1M40 22h1M57 22h1M17 23h1M39 23h2M57 23h1M17 24h1M30 24h1M38 24h3M57 24h1M61 24h1M17 25h1M30 25h11M57 25h1M60 25h2M17 26h1M30 26h11M55 26h1M57 26h5M17 27h1M30 27h11M55 27h2M58 27h5M18 28h1M22 28h1M31 28h10M56 28h1M58 28h6M18 29h1M22 29h1M31 29h3M36 29h5M56 29h1M58 29h7M17 30h2M21 30h2M31 30h3M36 30h5M56 30h2M59 30h7M17 31h2M20 31h3M32 31h9M57 31h1M59 31h8M18 32h1M20 32h3M32 32h9M57 32h2M60 32h7M18 33h2M21 33h2M33 33h8M58 33h1M60 33h6M19 34h1M21 34h3M33 34h8M59 34h1M62 34h3M20 35h1M22 35h2M34 35h2M38 35h1M40 35h1M21 36h4M34 36h1M39 36h1M23 37h2M40 37h1M39 38h2M38 39h1M39 40h1M36 41h3M69 41h1M73 42h1M63 44h5M5 45h1M12 45h1M61 45h10M15 46h1M60 46h2M68 46h5M60 47h1M71 47h4M60 48h1M74 48h2M4 49h7M60 49h1M75 49h2M2 50h3M10 50h3M76 50h2M2 51h1M12 51h3M76 51h2M2 52h1M14 52h2M64 52h1M76 52h2M2 53h1M15 53h2M65 53h2M75 53h2M16 54h2M17 55h2M18 56h1M18 57h1M17 58h2M10 59h2" />
<path stroke="#6a73bd" d="M39 6h4M39 7h6M34 8h2M39 8h8M62 8h1M33 9h12M47 9h1M60 9h2M63 9h4M32 10h2M36 10h8M60 10h1M62 10h6M31 11h3M36 11h8M61 11h7M30 12h15M61 12h8M18 13h1M20 13h1M30 13h7M39 13h6M60 13h9M17 14h1M19 14h4M32 14h5M39 14h5M58 14h1M60 14h10M16 15h2M19 15h5M29 15h1M32 15h11M56 15h3M60 15h10M18 16h5M29 16h13M56 16h2M59 16h11M19 17h4M29 17h4M35 17h7M56 17h2M59 17h11M19 18h5M29 18h4M35 18h6M55 18h3M59 18h6M68 18h2M19 19h6M29 19h12M55 19h2M58 19h6M69 19h1M15 20h1M18 20h6M29 20h11M55 20h2M58 20h5M15 21h2M18 21h6M29 21h11M55 21h2M58 21h5M15 22h2M18 22h5M29 22h11M55 22h2M58 22h4M15 23h2M18 23h5M29 23h4M35 23h4M55 23h2M58 23h4M15 24h2M18 24h5M31 24h2M35 24h3M55 24h2M58 24h3M15 25h2M18 25h5M55 25h2M58 25h2M15 26h2M18 26h5M56 26h1M16 27h1M18 27h5M16 28h2M19 28h3M16 29h2M19 29h3M19 30h2M39 35h1M35 36h1M38 36h1M40 36h1M35 37h5M35 38h4M36 39h2M39 39h1M36 40h3M62 41h1M65 41h4M61 42h1M66 42h7M60 43h2M66 43h10M59 44h4M68 44h9M10 45h2M59 45h2M71 45h7M7 46h8M59 46h1M73 46h5M5 47h12M59 47h1M75 47h4M2 48h1M5 48h13M76 48h3M2 49h1M11 49h8M77 49h2M13 50h7M78 50h1M15 51h5M78 51h1M16 52h5M17 53h4M18 54h3M19 55h2M19 56h2M19 57h1" />
<path stroke="#298b39" d="M48 6h2M48 7h1M48 8h1M55 8h1M49 9h3M55 9h2M49 10h3M53 10h5M48 11h9M46 12h11M23 13h1M46 13h2M53 13h3M26 14h2M26 15h2M24 16h4M24 17h2M67 58h2M67 59h2M21 60h1M27 60h3M33 60h1M55 60h2M61 60h3M66 60h3M20 61h1M22 61h1M27 61h3M32 61h2M55 61h4M64 61h4M19 62h1M22 62h2M25 62h2M28 62h8M56 62h6M64 62h4M19 63h1M23 63h13M56 63h3M64 63h6M26 64h9M55 64h4M61 64h10M27 65h8M55 65h16M27 66h10M54 66h15M71 66h1M25 67h12M54 67h15M71 67h1M25 68h11M55 68h5M62 68h6M70 68h1M19 69h1M21 69h2M25 69h13M57 69h3M62 69h6M70 69h1M18 70h5M25 70h13M64 70h8M18 71h20M56 71h2M62 71h2M67 71h6M20 72h16M22 73h4M29 73h5" />
<path stroke="#394a5a" d="M50 6h1M52 7h1M45 9h1M26 10h2M34 10h2M44 10h1M26 11h1M34 11h2M44 11h1M24 12h2M45 12h1M37 13h2M45 13h1M48 13h5M30 14h2M37 14h2M46 14h10M24 15h1M30 15h2M48 15h4M23 16h1M48 16h3M23 17h1M26 17h2M33 17h2M48 17h3M24 18h4M33 18h2M48 18h3M25 19h3M25 20h2M42 20h1M69 20h1M25 21h2M42 21h1M68 21h3M25 22h2M67 22h4M28 23h1M33 23h2M41 23h1M46 23h3M66 23h3M25 24h3M33 24h2M41 24h1M45 24h1M49 24h1M66 24h2M24 25h1M28 25h1M41 25h1M44 25h2M49 25h2M71 25h2M24 26h1M28 26h1M41 26h1M45 26h1M49 26h1M70 26h4M24 27h1M28 27h1M41 27h1M46 27h3M69 27h3M25 28h3M41 28h1M55 28h1M68 28h3M34 29h2M41 29h1M46 29h3M55 29h1M65 29h1M69 29h3M76 29h1M16 30h1M26 30h3M34 30h2M41 30h1M45 30h1M49 30h1M55 30h1M66 30h1M68 30h4M16 31h1M25 31h1M29 31h1M41 31h1M44 31h2M49 31h2M56 31h1M67 31h3M17 32h1M24 32h2M29 32h1M41 32h1M45 32h1M49 32h1M56 32h1M67 32h2M17 33h1M25 33h1M29 33h1M32 33h1M41 33h1M46 33h3M57 33h1M67 33h1M18 34h1M26 34h3M32 34h1M41 34h1M58 34h1M73 34h2M15 35h3M19 35h1M33 35h1M36 35h2M41 35h1M46 35h3M59 35h2M73 35h4M14 36h5M20 36h1M29 36h3M33 36h1M36 36h2M41 36h1M45 36h1M49 36h1M65 36h4M73 36h5M17 37h2M21 37h2M25 37h1M28 37h1M32 37h1M34 37h1M41 37h1M44 37h2M49 37h2M53 37h4M64 37h7M76 37h2M17 38h2M25 38h1M27 38h2M32 38h1M34 38h1M41 38h1M45 38h1M49 38h1M52 38h7M64 38h8M77 38h1M12 39h1M17 39h4M28 39h1M32 39h1M35 39h1M40 39h1M46 39h3M52 39h2M56 39h3M70 39h2M77 39h1M10 40h6M19 40h3M29 40h3M35 40h1M40 40h1M52 40h2M58 40h1M10 41h6M21 41h1M28 41h1M35 41h1M39 41h1M9 42h1M21 42h1M28 42h2M36 42h3M7 43h1M16 43h2M28 43h3M77 43h1M6 44h1M16 44h4M29 44h2M18 45h3M20 46h1M58 46h1M63 46h4M20 47h1M58 47h1M62 47h8M79 47h1M59 48h1M61 48h1M65 48h8M79 48h1M59 49h1M65 49h4M72 49h2M79 49h1M6 50h3M60 50h1M65 50h4M72 50h3M79 50h1M4 51h7M24 51h6M64 51h4M72 51h1M75 51h1M79 51h1M3 52h3M9 52h4M21 52h1M23 52h9M37 52h1M66 52h2M72 52h1M78 52h1M3 53h2M9 53h5M21 53h1M23 53h1M30 53h3M38 53h1M59 53h1M77 53h1M2 54h1M4 54h1M9 54h6M21 54h1M31 54h2M40 54h1M57 54h3M9 55h4M15 55h1M21 55h2M56 55h3M8 56h5M16 56h1M56 56h1M9 57h4M9 58h4M33 58h1M5 59h1M9 59h1M12 59h1M21 59h1M33 59h1M54 59h2M5 60h1M20 60h1M34 60h1M54 60h1M2 61h1M34 61h2M54 61h1M55 62h1M55 63h1M70 63h1M18 64h1M35 64h1M54 68h1M18 69h1M53 69h1M17 70h1M52 70h1M72 70h1M17 71h1M52 71h1M58 71h1M64 71h1M18 72h2M38 72h1M54 72h1M59 72h1M20 73h2" />
<path stroke="#4aa462" d="M51 6h1M49 7h3M53 7h3M49 8h6M46 9h1M48 9h1M52 9h3M45 10h4M52 10h1M27 11h1M45 11h3M26 12h4M24 13h5M24 14h2M28 14h1M25 15h1M21 61h1M61 61h3M20 62h2M62 62h2M20 63h3M59 63h5M19 64h7M59 64h2M19 65h8M19 66h8M69 66h2M20 67h5M69 67h2M20 68h5M60 68h2M68 68h2M20 69h1M23 69h2M54 69h3M60 69h2M68 69h2M23 70h2M53 70h11M54 71h2M59 71h3" />
<path stroke="#e6ffff" d="M36 7h3M36 8h3M59 10h1M58 11h2M58 12h2M57 13h2M57 14h1M46 15h1M53 15h2M16 16h1M45 16h2M52 16h3M16 17h1M18 17h1M44 17h3M51 17h4M15 18h2M18 18h1M44 18h3M51 18h3M15 19h2M18 19h1M43 19h5M51 19h3M16 20h1M43 20h11M43 21h11M24 22h1M42 22h12M24 23h4M42 23h4M49 23h5M24 24h1M28 24h1M42 24h3M50 24h4M42 25h2M47 25h1M51 25h3M26 26h1M42 26h3M50 26h4M42 27h4M49 27h5M24 28h1M28 28h2M42 28h13M24 29h6M42 29h4M49 29h6M24 30h2M29 30h1M42 30h3M50 30h5M24 31h1M30 31h1M42 31h2M47 31h1M51 31h4M16 32h1M27 32h1M30 32h1M42 32h3M50 32h5M69 32h4M16 33h1M24 33h1M30 33h2M42 33h4M49 33h6M68 33h6M16 34h2M25 34h1M29 34h3M42 34h13M68 34h5M18 35h1M25 35h8M42 35h4M49 35h6M67 35h6M25 36h4M32 36h1M42 36h3M50 36h4M70 36h3M15 37h2M26 37h2M33 37h1M42 37h2M47 37h1M51 37h2M72 37h3M15 38h2M26 38h1M30 38h1M33 38h1M42 38h3M50 38h2M72 38h3M14 39h3M26 39h2M33 39h2M41 39h5M49 39h2M64 39h5M72 39h3M16 40h2M27 40h2M32 40h3M41 40h10M69 40h5M16 41h2M29 41h6M40 41h10M63 41h2M11 42h7M30 42h6M39 42h11M62 42h4M8 43h8M31 43h18M62 43h4M12 44h2M31 44h16M48 44h1M6 45h4M31 45h15M47 45h1M49 45h1M4 46h3M30 46h15M46 46h1M48 46h1M3 47h2M32 47h10M45 47h1M47 47h1M3 48h2M28 48h6M3 49h1M27 49h7M26 50h8M61 50h2M30 51h5M61 51h3M69 51h2M32 52h3M61 52h3M68 52h3M33 53h2M61 53h3M68 53h3M24 54h6M33 54h1M62 54h1M67 54h4M5 55h2M23 55h8M68 55h2M5 56h3M22 56h2M25 56h8M2 57h2M5 57h3M22 57h1M24 57h3M28 57h3M59 57h3M2 58h2M6 58h3M24 58h3M59 58h3M2 59h3M6 59h2M60 59h2M2 60h3M3 61h2" />
<path stroke="#739cac" d="M47 15h1M52 15h1M47 16h1M51 16h1M47 17h1M47 18h1M48 19h3M69 23h1M68 24h1M67 25h1M70 25h1M69 26h1M68 27h1M72 27h1M75 28h1M70 31h1M75 34h1M77 35h1M69 36h1M57 37h1M71 37h1M75 37h1M76 38h1M69 39h1M18 40h1M56 40h1M20 41h1M27 41h1M52 42h3M18 43h1M17 45h1M19 46h1M71 49h1M64 50h1M68 51h1M74 51h1M6 52h1M8 52h1M5 53h1M67 53h1M71 53h1M3 54h1M61 54h1M71 54h1M74 54h1M8 55h1M13 55h1M67 55h1M70 55h1M66 56h1M8 57h1M69 57h1M23 58h1M27 58h1M8 59h1" />
<path stroke="#8bb4c5" d="M65 19h3M64 20h5M64 21h4M63 22h4M63 23h3M63 24h2M63 25h2M63 26h1M55 45h1M54 46h1M29 47h3M34 48h1M51 48h1M35 49h1M51 50h1M73 51h1M38 52h2M46 52h4M73 52h2M40 53h7M73 53h2M14 55h1M13 56h3M14 57h2M66 57h2M15 58h1M65 58h2M63 59h4M64 60h2" />
<path stroke="#b4d5de" d="M27 20h1M27 21h1M27 22h1M70 23h1M65 24h1M69 24h3M65 25h2M68 25h2M64 26h5M64 27h4M73 27h2M65 28h3M71 28h4M66 29h3M72 29h4M67 30h1M72 30h5M55 31h1M71 31h6M55 32h1M73 32h5M55 33h2M74 33h4M55 34h3M76 34h2M55 35h4M19 36h1M54 36h6M19 37h2M58 37h2M19 38h3M75 38h1M21 39h1M51 39h1M75 39h2M51 40h1M55 40h1M74 40h3M18 41h2M50 41h2M55 41h3M73 41h4M18 42h3M50 42h2M55 42h3M75 42h2M19 43h2M49 43h10M14 44h2M20 44h1M47 44h1M49 44h9M15 45h2M30 45h1M46 45h1M48 45h1M50 45h5M56 45h2M17 46h2M45 46h1M47 46h1M49 46h5M55 46h3M18 47h2M42 47h3M46 47h1M48 47h10M19 48h1M35 48h16M52 48h7M62 48h3M34 49h1M36 49h15M52 49h7M61 49h4M69 49h2M34 50h2M37 50h13M52 50h8M63 50h1M69 50h3M35 51h2M38 51h12M51 51h9M71 51h1M7 52h1M35 52h2M40 52h6M51 52h9M71 52h1M6 53h3M35 53h2M51 53h8M72 53h1M5 54h4M34 54h2M52 54h5M64 54h1M72 54h2M3 55h1M7 55h1M33 55h2M53 55h3M63 55h3M71 55h3M2 56h2M33 56h1M54 56h2M60 56h6M70 56h3M13 57h1M27 57h1M31 57h3M55 57h4M62 57h4M70 57h2M4 58h1M13 58h2M22 58h1M28 58h5M56 58h3M62 58h3M13 59h3M22 59h11M56 59h4M62 59h1M12 60h4M22 60h5M30 60h3M57 60h4M12 61h3M23 61h4M30 61h2M59 61h2M12 62h2M24 62h1M27 62h1" />
<path stroke="#ee7b8b" d="M46 24h3M25 25h3M46 25h1M48 25h1M25 26h1M27 26h1M46 26h3M25 27h3" />
<path stroke="#5ac5f6" d="M46 30h3M26 31h3M46 31h1M48 31h1M26 32h1M28 32h1M46 32h3M26 33h3" />
<path stroke="#6a7b8b" d="M15 32h1M15 33h1M15 34h1M67 34h1M66 35h1M14 37h1M14 38h1M13 39h1M63 39h1M10 42h1M28 47h1M27 48h1M26 49h1M51 49h1M25 50h1M36 50h1M50 50h1M37 51h1M50 51h1M50 52h1M39 53h1M47 53h1M2 55h1M4 55h1M1 56h1M4 56h1M24 56h1M1 57h1M4 57h1M23 57h1M1 58h1M5 58h1M1 59h1M1 60h1" />
<path stroke="#b4bdc5" d="M46 36h3M29 37h3M46 37h1M48 37h1M29 38h1M31 38h1M46 38h3M29 39h3" />
</svg>