<svg xmlns="http://www.w3.org/2000/svg" viewBox="0 -0.5 80 80" shape-rendering="crispEdges">
<metadata>Made with Pixels to Svg https://codepen.io/shshaw/pen/XbxvNj</metadata>
<path stroke="#ac8341" d="M15 3h2M14 4h1M16 4h1M14 5h1M16 5h1M22 5h2M13 6h1M23 6h1M13 7h1M12 8h1M17 8h3M21 8h1M11 9h1M20 9h1M40 9h6M10 10h1M19 10h1M36 10h3M18 11h1M31 11h4M16 12h2M7 13h1M6 15h1M6 16h1M6 17h1M20 21h1M9 22h1M13 22h2M18 22h2M9 23h3M16 29h1M15 31h1M15 32h1M65 32h5M14 33h1M64 33h1M13 34h1M13 35h1M21 35h1M14 36h1M51 36h2M15 37h1M49 37h2M16 38h1M47 38h2M25 43h1M28 43h1M14 44h2M24 44h1M30 44h1M13 45h1M23 45h1M12 46h1M12 47h1M19 51h1M18 52h2M17 53h2M42 53h2M42 54h3M26 55h1M41 55h5M24 56h2M41 56h5M56 56h1M15 57h1M22 57h2M42 57h5M56 57h1M14 58h1M16 58h1M44 58h2M56 58h1M60 58h1M14 59h1M16 59h1M43 59h1M46 59h1M56 59h1M61 59h1M14 60h1M18 60h1M43 60h4M56 60h1M62 60h1M15 61h1M18 61h1M44 61h2M54 61h1M57 61h1M63 61h1M15 62h1M55 62h1M58 62h1M64 62h1M15 63h1M49 63h2M64 63h1M15 64h1M48 64h3M64 64h1M48 65h4M49 66h3M50 67h2M50 68h1" />
<path stroke="#fff68b" d="M15 4h1M15 5h1M14 6h2M22 6h1M14 7h2M22 7h1M13 8h3M22 8h1M12 9h1M16 9h4M21 9h2M24 9h1M13 10h6M20 10h3M24 10h4M40 10h6M10 11h8M19 11h4M24 11h7M36 11h13M11 12h5M18 12h5M24 12h17M46 12h7M11 13h12M30 13h8M10 14h7M19 14h4M10 15h5M18 15h4M10 16h2M18 16h4M18 17h4M25 17h1M17 18h4M24 18h1M17 19h4M23 19h2M17 20h3M22 20h2M16 21h3M21 21h3M15 22h2M20 22h4M19 23h5M19 24h5M19 25h6M19 26h8M18 27h12M18 28h10M17 29h4M22 29h4M17 30h4M22 30h3M16 31h6M23 31h2M16 32h6M23 32h2M16 33h6M23 33h7M65 33h6M16 34h5M23 34h6M63 34h5M16 35h4M23 35h4M62 35h4M17 36h2M23 36h3M60 36h4M22 37h4M33 37h5M51 37h3M58 37h5M22 38h4M31 38h10M49 38h5M58 38h4M22 39h4M30 39h12M47 39h7M58 39h3M22 40h7M31 40h6M48 40h6M58 40h1M23 41h12M49 41h3M23 42h6M30 42h4M49 42h4M23 43h2M26 43h2M30 43h5M49 43h5M23 44h1M25 44h5M31 44h5M49 44h6M14 45h2M24 45h7M32 45h7M49 45h6M13 46h3M24 46h8M33 46h8M49 46h6M58 46h1M13 47h2M23 47h10M35 47h3M50 47h5M58 47h1M14 48h1M23 48h6M50 48h4M58 48h1M14 49h1M23 49h4M50 49h4M22 50h4M50 50h2M21 51h5M20 52h5M19 53h6M18 54h6M56 54h2M18 55h6M56 55h2M17 56h6M57 56h2M17 57h4M24 57h1M55 57h1M57 57h2M15 58h1M17 58h8M55 58h1M57 58h3M15 59h1M17 59h2M20 59h4M57 59h4M15 60h3M19 60h5M57 60h5M16 61h2M19 61h4M58 61h5M16 62h7M54 62h1M59 62h5M16 63h6M55 63h2M59 63h5M17 64h4M56 64h8M18 65h3M58 65h1M61 65h3M18 66h2M62 66h2M18 67h2M63 67h1M18 68h2M18 69h1M18 70h1M17 71h1" />
<path stroke="#101010" d="M16 6h1M21 6h1M16 7h1M21 7h1M23 7h1M20 8h1M23 8h2M23 9h1M23 10h1M23 11h1M23 12h1M53 12h1M23 13h1M46 13h7M17 14h2M42 14h2M15 15h1M17 15h1M22 15h1M40 15h2M12 16h1M17 16h1M22 16h1M27 16h6M38 16h2M7 17h1M17 17h1M26 17h1M33 17h5M8 18h1M21 18h1M25 18h1M9 19h1M25 19h1M10 20h1M16 20h1M20 20h1M10 21h1M12 21h1M14 21h2M12 23h6M40 23h1M18 24h1M38 24h2M60 24h1M18 25h1M37 25h1M60 25h1M36 26h1M47 26h1M59 26h1M30 27h1M35 27h1M48 27h1M58 27h1M30 28h1M35 28h1M49 28h1M57 28h1M29 29h1M35 29h1M50 29h1M56 29h1M28 30h1M36 30h1M55 30h1M28 31h1M37 31h1M55 31h1M48 32h1M30 33h1M34 33h1M47 33h1M55 33h1M72 33h2M30 34h1M51 34h2M70 34h2M29 35h1M49 35h1M53 35h1M56 35h1M68 35h2M28 36h1M48 36h1M56 36h1M67 36h1M27 37h1M31 37h2M47 37h1M57 37h1M66 37h1M27 38h1M30 38h1M57 38h1M65 38h1M17 39h1M57 39h1M65 39h1M17 40h1M64 40h1M52 41h1M64 41h1M16 42h1M48 42h1M53 42h1M58 42h1M63 42h1M16 43h1M36 43h3M48 43h1M54 43h1M58 43h1M61 43h2M16 44h1M41 44h5M48 44h1M58 44h3M16 45h1M31 45h1M48 45h1M58 45h1M16 46h1M23 46h1M32 46h1M48 46h1M59 46h1M17 47h1M22 47h1M33 47h1M48 47h1M60 47h1M17 48h1M22 48h1M33 48h1M47 48h1M59 48h1M18 49h1M22 49h1M31 49h2M47 49h1M57 49h2M19 50h1M21 50h1M28 50h3M47 50h1M49 50h1M57 50h1M15 51h1M20 51h1M28 51h1M49 51h1M57 51h1M16 52h1M27 52h1M29 52h1M41 52h1M43 52h1M49 52h1M57 52h1M26 53h1M29 53h1M35 53h6M44 53h1M48 53h1M58 53h1M17 54h1M26 54h2M30 54h1M35 54h1M45 54h1M58 54h1M17 55h1M25 55h1M27 55h1M34 55h1M46 55h1M49 55h1M55 55h1M58 55h1M16 56h1M27 56h1M33 56h1M46 56h1M50 56h1M55 56h1M59 56h1M16 57h1M26 57h1M33 57h1M41 57h1M47 57h1M54 57h1M59 57h1M26 58h1M42 58h2M46 58h2M54 58h1M25 59h1M33 59h1M44 59h2M47 59h1M25 60h1M29 60h2M33 60h1M53 60h1M24 61h1M28 61h1M34 61h1M43 61h1M53 61h1M24 62h1M27 62h1M35 62h1M44 62h1M49 62h2M53 62h1M24 63h1M35 63h1M48 63h1M51 63h1M54 63h1M25 64h1M34 64h2M47 64h1M51 64h1M55 64h1M25 65h1M44 65h3M52 65h1M55 65h1M57 65h1M64 65h1M25 66h1M47 66h1M52 66h2M55 66h1M58 66h1M64 66h1M24 67h1M47 67h1M52 67h1M54 67h1M59 67h1M64 67h1M24 68h1M47 68h1M51 68h1M64 68h1M23 69h1M47 69h1M50 69h1M64 69h1M23 70h1M47 70h1M50 70h1M64 70h1M47 71h1M49 71h1M64 71h1M17 72h1M47 72h2M63 72h1M16 73h1M63 73h1M15 74h1M61 74h1M63 74h1M13 75h2M61 75h2" />
<path stroke="#dec539" d="M16 8h1M13 9h3M25 9h1M11 10h2M28 10h1M39 10h1M9 11h1M35 11h1M8 12h1M41 12h5M24 13h1M29 13h1M38 13h2M7 14h1M34 14h3M23 18h1M10 19h1M22 19h1M11 20h1M21 20h1M11 21h1M19 21h1M10 22h3M17 22h1M18 23h1M24 24h1M25 25h1M18 26h1M27 26h1M17 27h1M15 28h3M28 28h2M15 29h1M21 29h1M26 29h2M16 30h1M21 30h1M25 30h2M22 31h1M25 31h1M27 31h1M22 32h1M25 32h3M22 33h1M71 33h1M14 34h1M21 34h2M29 34h1M14 35h1M20 35h1M22 35h1M27 35h2M15 36h2M19 36h2M22 36h1M26 36h2M17 37h3M26 37h1M38 37h3M18 38h1M26 38h1M41 38h2M26 39h2M42 39h2M36 44h3M39 45h6M41 46h4M15 47h1M34 47h1M38 47h7M49 47h1M59 47h1M15 48h1M29 48h4M34 48h11M48 48h2M15 49h1M27 49h4M33 49h11M48 49h1M15 50h2M26 50h2M31 50h13M52 50h1M16 51h2M26 51h2M33 51h10M50 51h3M17 52h1M25 52h2M35 52h6M50 52h3M25 53h1M49 53h4M57 53h1M24 54h2M49 54h4M24 55h1M50 55h2M23 56h1M26 56h1M51 56h1M21 57h1M25 57h1M25 58h1M19 59h1M24 59h1M54 59h2M24 60h1M54 60h2M23 61h1M55 61h2M56 62h2M23 63h1M57 63h2M22 64h3M22 65h3M21 66h4M22 67h2M23 68h1" />
<path stroke="#6a5220" d="M26 9h2M29 10h2M46 10h3M49 11h3M24 20h1M24 21h1M24 23h1M25 24h1M26 25h1M17 26h1M28 26h2M15 27h2M14 28h1M14 29h1M28 29h1M15 30h1M27 30h1M26 31h1M28 32h2M63 33h1M62 34h1M60 35h2M57 36h3M28 39h2M29 40h2M29 42h1M29 43h1M13 48h1M13 49h1M14 50h1M31 51h2M33 52h2M41 53h1M41 54h1M40 55h1M40 56h1M42 59h1M42 60h1M23 62h1M22 63h1M21 64h1M21 65h1M20 66h1M20 67h1M20 68h1M19 69h1M19 70h1M18 71h1" />
<path stroke="#ff83ac" d="M9 12h1M8 13h2M8 14h1M7 15h2M7 16h2M30 23h1M37 23h3M45 23h2M36 24h2M46 24h2M47 25h3M58 25h2M49 26h2M57 26h1M50 27h2M55 27h2M38 33h5M36 34h4M34 35h3M38 41h6M36 42h5M16 65h1M16 66h1M16 67h1M15 68h2M15 69h1M15 70h1M61 71h2M62 72h1M62 73h1M62 74h1" />
<path stroke="#c5184a" d="M10 12h1M10 13h1M9 14h1M34 25h1M31 26h5M58 26h1M34 27h1M57 27h1M56 28h1M32 29h1M55 29h1M31 30h5M30 31h2M33 31h4M30 32h1M34 32h4M35 33h1M50 33h3M43 34h2M49 34h2M48 35h1M55 35h1M29 36h1M47 36h1M28 37h1M46 37h1M56 37h1M28 38h1M56 38h1M56 39h1M57 40h1M47 41h1M57 41h1M45 42h3M57 42h1M39 43h9M57 43h1M47 44h1M57 44h1M46 45h2M57 45h1M46 46h2M57 46h1M46 47h2M46 48h1M45 49h2M44 50h2M54 50h1M56 50h1M44 51h2M56 51h1M28 52h1M44 52h3M27 53h2M34 53h1M45 53h3M55 53h1M28 54h2M33 54h2M46 54h2M28 55h2M32 55h2M48 55h1M29 56h4M49 56h1M54 56h1M31 57h2M50 57h1M29 58h1M28 59h5M31 60h2M59 66h2M60 67h2M60 68h3M62 69h1M15 73h1M14 74h1" />
<path stroke="#5a6273" d="M25 13h4M40 13h6M25 14h9M37 14h5M16 15h1M23 15h2M30 15h10M25 16h2M33 16h5M8 17h4M16 17h1M22 17h3M15 18h2M22 18h1M11 19h3M21 19h1M13 21h1M15 33h1M15 34h1M15 35h1M16 37h1M17 38h1M62 38h1M61 39h3M59 40h5M22 41h1M53 41h2M59 41h5M21 42h2M54 42h1M59 42h4M21 43h2M59 43h2M17 44h2M20 44h3M17 45h2M20 45h3M17 46h3M21 46h2M16 47h1M18 47h2M21 47h1M16 48h1M18 48h3M16 49h2M19 49h2M49 49h1M17 50h2M20 50h1M48 50h1M18 51h1M48 51h1M48 52h1" />
<path stroke="#394152" d="M23 14h2M25 15h5M16 16h1M23 16h2M9 18h4M16 19h1M12 20h2M21 36h1M20 37h1M19 38h2M18 39h1M20 39h1M20 40h1M19 41h1M19 42h1M19 43h1M19 44h1M19 45h1M20 46h1M20 47h1M21 48h1M21 49h1" />
<path stroke="#9c0031" d="M9 15h1M9 16h1M29 22h3M37 22h4M44 22h3M29 23h1M31 23h1M35 23h2M44 23h1M47 23h1M29 24h1M32 24h1M34 24h1M45 24h1M48 24h1M58 24h2M30 25h1M33 25h1M46 25h1M50 25h1M57 25h1M30 26h1M51 26h1M55 26h2M31 27h1M52 27h3M31 28h1M31 29h1M30 30h1M50 30h1M29 31h1M32 31h1M49 31h1M31 32h1M33 32h1M38 32h5M54 32h1M36 33h2M44 33h1M34 34h2M45 34h2M55 34h1M30 35h1M33 35h1M44 35h2M30 36h1M33 36h8M53 36h1M29 37h1M41 37h2M54 37h1M29 38h1M43 38h1M46 38h1M54 38h1M44 39h1M46 39h1M54 39h1M37 40h8M47 40h1M54 40h1M35 41h2M48 41h1M55 41h1M58 41h1M34 42h1M55 42h1M35 43h1M55 43h1M39 44h2M46 44h1M55 44h1M45 45h1M55 45h1M45 46h1M55 46h1M45 47h1M55 47h1M57 47h1M45 48h1M54 48h1M57 48h1M44 49h1M54 49h1M46 50h1M53 50h1M43 51h1M46 51h2M53 51h1M42 52h1M47 52h1M53 52h1M56 52h1M33 53h1M53 53h1M56 53h1M32 54h1M48 54h1M53 54h1M55 54h1M30 55h2M52 55h1M28 56h1M52 56h1M28 57h1M51 57h1M28 58h1M32 58h1M27 59h1M53 59h1M26 60h1M47 60h1M26 61h1M31 61h1M46 61h1M26 62h1M32 62h1M45 62h1M33 63h1M44 63h1M16 64h1M43 64h1M46 64h1M52 64h1M15 65h1M17 65h1M43 65h1M47 65h1M59 65h2M15 66h1M17 66h1M48 66h1M61 66h1M15 67h1M17 67h1M48 67h2M62 67h1M14 68h1M17 68h1M21 68h1M48 68h2M59 68h1M63 68h1M14 69h1M17 69h1M21 69h1M48 69h2M60 69h1M63 69h1M14 70h1M17 70h1M21 70h1M48 70h2M60 70h1M63 70h1M13 71h1M16 71h1M21 71h2M48 71h1M60 71h1M63 71h1M13 72h1M16 72h1M61 72h1M13 73h1M61 73h1M12 74h1M12 75h1" />
<path stroke="#c50039" d="M13 16h1M13 17h1" />
<path stroke="#00e600" d="M14 16h2M12 17h1M14 17h1M14 19h2M14 20h2M32 27h1M32 28h2M33 29h1M52 29h2M51 30h2M51 31h1M29 57h2M30 58h2M49 58h2M50 59h2" />
<path stroke="#009c00" d="M15 17h1M13 18h2M33 27h1M34 28h1M34 29h1M53 30h1M52 31h2M49 59h1M50 60h2" />
<path stroke="#ee4a73" d="M30 24h2M35 24h1M31 25h2M35 25h2M48 26h1M49 27h1M50 28h6M51 29h1M54 29h1M54 30h1M50 31h1M54 31h1M49 32h5M43 33h1M48 33h2M53 33h2M40 34h3M47 34h2M53 34h2M37 35h7M46 35h2M54 35h1M41 36h6M54 36h2M43 37h3M55 37h1M44 38h2M55 38h1M45 39h1M55 39h1M45 40h2M55 40h2M37 41h1M44 41h3M56 41h1M35 42h1M41 42h4M56 42h1M56 43h1M56 44h1M56 45h1M56 46h1M56 47h1M55 48h2M55 49h2M55 50h1M54 51h2M54 52h2M54 53h1M54 54h1M47 55h1M53 55h2M47 56h2M53 56h1M48 57h2M52 57h2M48 58h1M51 58h3M48 59h1M52 59h1M27 60h2M48 60h2M52 60h1M27 61h1M32 61h2M47 61h6M33 62h2M46 62h3M51 62h2M34 63h1M45 63h3M52 63h2M44 64h2M53 64h2M53 65h2M54 66h1M21 67h1M22 68h1M16 69h1M22 69h1M61 69h1M16 70h1M22 70h1M61 70h2M14 71h2M14 72h2M14 73h1M13 74h1" />
<path stroke="#7b8394" d="M68 34h2M66 35h2M64 36h3M21 37h1M63 37h3M21 38h1M63 38h2M19 39h1M21 39h1M64 39h1M18 40h2M21 40h1M17 41h2M20 41h2M17 42h2M20 42h1M17 43h2M20 43h1" />
</svg>