<svg xmlns="http://www.w3.org/2000/svg" viewBox="0 -0.5 80 80" shape-rendering="crispEdges">
<metadata>Made with Pixels to Svg https://codepen.io/shshaw/pen/XbxvNj</metadata>
<path stroke="#ffe631" d="M30 10h1M31 11h1M22 22h2M21 23h2M20 24h2M28 24h1M18 25h3M26 25h2M17 26h4M22 26h2M25 26h2M17 27h4M23 27h3M16 28h4M21 28h1M24 28h1M16 29h5M24 29h1M17 30h1M19 30h2M24 30h1M17 31h1M19 31h1M24 31h1" />
<path stroke="#ffb410" d="M30 11h1M31 12h1M31 16h1M18 17h1M29 17h2M29 18h1M35 18h2M28 19h1M34 19h2M17 21h1M24 21h1M17 22h2M18 23h1M19 24h1M22 24h1M27 24h1M17 25h1M21 25h2M25 25h1M24 26h1M21 27h2M26 27h1M20 28h1M25 28h1M21 29h1M25 29h1M16 30h1M18 30h1M20 31h1M17 32h1M24 32h1M18 33h1" />
<path stroke="#ff6220" d="M22 14h1M23 17h4M22 18h7M30 18h1M19 19h2M22 19h6M18 20h8M18 21h6M25 21h2M29 21h3M33 21h2M19 22h3M24 22h10M19 23h2M23 23h9M18 24h1M23 24h4M29 24h3M23 25h2M28 25h3M21 26h1M27 26h3M27 27h1M22 28h2M26 28h2M26 29h2M21 30h1M25 30h3M18 31h1M25 31h2M18 32h3M25 32h2M19 33h1M24 33h2M19 34h1M24 34h1" />
<path stroke="#945200" d="M54 18h1M53 19h1M53 20h1M53 21h2M54 22h1M61 23h2M55 24h2M63 24h2M55 25h1M65 25h1M58 26h1M66 26h1M37 27h1M60 27h1M41 28h2M51 28h2M61 28h1M64 28h1M67 28h1M22 29h2M44 29h1M51 29h1M57 29h1M64 29h1M22 30h2M45 30h1M51 30h1M62 30h1M21 31h3M51 31h1M21 32h3M46 32h1M55 32h1M67 32h1M20 33h4M42 33h1M67 33h1M20 34h4M42 34h1M47 34h1M65 34h1M68 34h1M20 35h1M23 35h1M43 35h1M49 35h1M60 35h1M62 35h1M19 36h1M23 36h1M48 36h1M19 37h1M23 37h1M48 37h1M19 38h1M64 38h1M19 39h1M54 39h1M58 39h1M40 40h1M24 41h1M37 41h2M35 42h2M53 42h1M25 43h1M34 43h1M53 43h1M32 44h2M54 44h1M31 45h1M55 45h1M30 46h1M52 46h1M55 46h1M56 47h1M29 48h1M51 48h1M56 48h1M28 49h1M56 49h1M28 50h1M50 50h1M56 50h1M27 51h1M37 51h1M53 51h1M57 51h1M27 52h1M49 52h1M51 52h1M53 52h1M57 52h1M27 53h1M51 53h1M58 53h1M37 54h1M52 54h1M26 55h1M46 55h1M52 55h1M25 56h1M28 56h1M38 56h1M43 56h1M46 56h1M52 56h1M60 56h1M31 57h1M51 57h1M60 57h1M24 58h1M30 58h1M60 58h1M41 61h1M25 62h1M28 63h2" />
<path stroke="#dea429" d="M55 18h1M56 19h1M57 20h1M58 21h1M59 22h2M59 26h1M38 27h2M40 28h1M36 29h1M52 29h1M33 30h5M52 30h1M63 30h1M34 31h4M52 31h3M38 32h1M51 32h4M66 32h1M38 33h4M51 33h4M56 33h1M38 34h2M51 34h5M60 34h1M21 35h1M50 35h10M49 36h13M49 37h14M44 38h1M50 38h14M43 39h2M50 39h4M59 39h3M42 40h1M44 40h1M51 40h2M52 41h1M52 43h1M52 44h2M52 45h3M53 46h2M25 47h3M53 47h3M23 48h6M53 48h3M24 49h4M37 49h1M54 49h2M25 50h3M37 50h1M54 50h2M26 51h1M54 51h3M54 52h3M54 53h3M27 54h1M54 54h2M58 54h1M27 55h2M36 55h1M54 55h2M59 55h1M26 56h2M34 56h2M51 56h1M54 56h2M26 57h4M32 57h2M44 57h4M50 57h1M54 57h3M26 58h4M31 58h2M43 58h7M54 58h3M24 59h3M42 59h7M55 59h2M60 59h1M23 60h5M30 60h1M41 60h9M56 60h2M25 61h1M27 61h4M42 61h7M56 61h1M28 62h2M42 62h6" />
<path stroke="#ffe600" d="M54 19h2M54 20h3M55 21h3M55 22h4M55 23h6M57 24h6M56 25h9M54 26h4M60 26h6M53 27h6M61 27h6M37 28h3M53 28h5M62 28h2M65 28h2M37 29h7M53 29h4M62 29h2M65 29h2M38 30h7M53 30h5M64 30h2M38 31h7M55 31h11M39 32h7M56 32h10M43 33h3M57 33h10M43 34h4M61 34h4M66 34h2M44 35h3M63 35h2M66 35h2M20 36h1M44 36h4M63 36h5M20 37h1M22 37h1M44 37h4M64 37h3M20 38h1M22 38h1M45 38h5M20 39h3M45 39h5M20 40h3M43 40h1M45 40h6M20 41h4M40 41h12M20 42h4M37 42h11M51 42h2M20 43h5M35 43h11M21 44h4M34 44h10M21 45h5M32 45h11M21 46h6M31 46h10M22 47h3M30 47h10M30 48h5M36 48h3M29 49h5M29 50h5M28 51h7M28 52h7M50 52h1M28 53h9M50 53h1M57 53h1M28 54h9M49 54h3M56 54h2M29 55h7M48 55h4M56 55h3M29 56h5M47 56h4M56 56h4M30 57h1M48 57h2M57 57h3M57 58h3M27 59h4M57 59h3M28 60h2" />
<path stroke="#101010" d="M54 23h1M54 24h1M54 25h1M53 26h1M32 27h1M52 27h1M59 27h1M33 28h1M59 28h2M34 29h2M58 29h3M67 29h1M58 30h2M66 30h1M30 31h4M45 31h1M66 31h1M34 32h1M50 32h1M46 33h1M50 33h1M55 33h1M40 34h2M50 34h1M56 34h4M33 35h7M47 35h1M61 35h1M65 35h1M68 35h1M43 36h1M62 36h1M68 36h1M43 37h1M63 37h1M67 37h1M23 38h1M43 38h1M65 38h2M23 39h1M42 39h1M55 39h3M62 39h2M19 40h1M23 40h1M41 40h1M53 40h1M59 40h3M19 41h1M39 41h1M53 41h1M19 42h1M24 42h1M19 43h1M20 44h1M25 44h1M20 45h1M26 45h1M20 46h1M27 46h1M21 47h1M28 47h2M52 47h1M21 48h1M52 48h1M22 49h1M51 49h1M53 49h1M22 50h1M53 50h1M23 51h1M50 51h1M24 52h1M37 52h1M25 53h1M37 53h1M49 53h1M53 53h1M26 54h1M48 54h1M53 54h1M47 55h1M53 55h1M36 56h2M44 56h2M53 56h1M25 57h1M34 57h2M39 57h5M25 58h1M33 58h1M42 58h1M50 58h1M23 59h1M31 59h1M41 59h1M49 59h1M22 60h1M31 60h1M40 60h1M22 61h1M40 61h1M22 62h1M41 62h1M52 62h1M56 62h1M60 62h1M62 62h1M22 63h1M30 63h1M32 63h1M42 63h11M54 63h1M56 63h1M61 63h2M22 64h2M27 64h1M31 64h1M55 64h1M57 64h1M59 64h1M26 65h1M58 65h1" />
<path stroke="#6a6a6a" d="M32 26h4M36 27h1M31 29h1M30 30h1M35 32h1M34 33h1M33 34h1M37 34h1M53 57h1M54 59h1M61 59h1M50 60h1M54 60h1M61 60h1M32 61h1M49 61h1M51 61h1M53 61h1M60 61h1M62 61h1M32 62h1M48 62h1M53 62h1M24 63h2M27 63h1M57 63h1M59 63h1M25 64h1" />
<path stroke="#ffffff" d="M33 27h3M34 28h3M58 28h1M61 29h1M60 30h2M36 32h2M36 33h2M35 34h2M55 60h1M58 60h1M50 61h1M54 61h2M57 61h3M23 62h2M26 62h1M31 62h1M49 62h3M54 62h2M57 62h3M23 63h1M26 63h1M31 63h1M55 63h1M58 63h1M26 64h1M58 64h1" />
<path stroke="#b4b4b4" d="M32 29h2M31 30h2M35 33h1M34 34h1M59 60h2M23 61h2M26 61h1M31 61h1M61 61h1M27 62h1M30 62h1M61 62h1" />
<path stroke="#ffee8b" d="M22 35h1M21 36h2M21 37h1M21 38h1M35 48h1M34 49h3M34 50h3M35 51h2M35 52h2" />
<path stroke="#fff6ac" d="M48 42h3M46 43h6M44 44h8M43 45h9M41 46h10M40 47h11M39 48h12M38 49h12M38 50h12M38 51h11M39 52h10M39 53h9M42 54h5" />
<path stroke="#eede5a" d="M51 46h1M51 47h1M22 48h1M23 49h1M50 49h1M23 50h2M24 51h2M49 51h1M25 52h2M38 52h1M26 53h1M38 53h1M48 53h1M38 54h4M47 54h1M37 55h9M39 56h4" />
</svg>