<svg xmlns="http://www.w3.org/2000/svg" viewBox="0 -0.5 32 32" shape-rendering="crispEdges">
<metadata>Made with Pixels to Svg https://codepen.io/shshaw/pen/XbxvNj</metadata>
<path stroke="#ffffff" d="M21 7h4M19 8h3M24 8h2M17 9h3M25 9h1M16 10h2M25 10h1M15 11h2M24 11h2M14 12h2M24 12h1M13 13h2M23 13h2M12 14h2M23 14h1M11 15h2M22 15h2M10 16h2M21 16h2M10 17h1M20 17h2M9 18h2M14 18h1M19 18h2M9 19h1M12 19h2M18 19h2M8 20h2M11 20h3M17 20h2M8 21h1M11 21h2M16 21h2M8 22h1M10 22h1M14 22h3M8 23h2M12 23h3M9 24h4" />
<path stroke="#202020" d="M22 8h2M20 9h2M24 9h1M18 10h2M24 10h1M17 11h1M23 11h1M16 12h1M23 12h1M15 13h1M22 13h1M14 14h1M22 14h1M13 15h1M21 15h1M12 16h1M20 16h1M11 17h1M19 17h1M11 18h1M18 18h1M10 19h1M17 19h1M10 20h1M16 20h1M9 21h1M14 21h2M9 22h1M12 22h2M10 23h2" />
<path stroke="#4183cd" d="M22 9h1M20 10h1M18 11h1" />
<path stroke="#3962b4" d="M23 9h1M21 10h3M22 11h1M22 12h1M21 14h1" />
<path stroke="#419ce6" d="M19 11h3M18 12h2M21 12h1M17 13h1M20 13h2M20 14h1M19 15h2M19 16h1M18 17h1" />
<path stroke="#5aace6" d="M17 12h1M20 12h1M16 13h1M15 14h1" />
<path stroke="#6ab4ee" d="M18 13h2M16 14h2M19 14h1M14 15h1M18 15h1M13 16h1M18 16h1M12 17h1M17 18h1M16 19h1M15 20h1" />
<path stroke="#94c5ee" d="M18 14h1M15 15h1M17 17h1" />
<path stroke="#b4d5f6" d="M16 15h2M14 16h4M13 17h2M16 17h1M12 18h1M15 18h2M11 19h1M15 19h1M14 20h1M13 21h1" />
<path stroke="#deeeff" d="M15 17h1M13 18h1M14 19h1M10 21h1M11 22h1" />
</svg>