<svg xmlns="http://www.w3.org/2000/svg" viewBox="0 -0.5 40 30" shape-rendering="crispEdges">
<metadata>Made with Pixels to Svg https://codepen.io/shshaw/pen/XbxvNj</metadata>
<path stroke="#202020" d="M22 4h3M20 5h2M24 5h1M19 6h1M22 6h2M8 7h2M18 7h1M21 7h1M8 8h1M10 8h2M18 8h1M20 8h5M9 9h1M12 9h1M17 9h1M25 9h2M10 10h1M13 10h1M17 10h1M27 10h1M10 11h1M13 11h1M17 11h1M28 11h1M10 12h1M14 12h1M17 12h1M28 12h1M10 13h2M15 13h2M28 13h1M12 14h1M20 14h2M24 14h1M27 14h1M12 15h1M20 15h1M27 15h1M11 16h1M19 16h1M27 16h1M11 17h1M26 17h1M11 18h1M25 18h1M9 19h2M15 19h1M26 19h1M9 20h1M13 20h2M16 20h1M25 20h1M9 21h1M12 21h1M16 21h1M24 21h1M10 22h1M12 22h1M15 22h1M25 22h1M10 23h1M13 23h1M15 23h1M19 23h2M22 23h1M26 23h1M11 24h2M16 24h1M19 24h1M21 24h1M23 24h1M27 24h1M16 25h1M20 25h1M24 25h3M16 26h1M21 26h1M17 27h1M20 27h2M18 28h2" />
<path stroke="#737b8c" d="M22 5h2M20 6h2M19 7h2M9 8h1M19 8h1M10 9h2M18 9h2M11 10h2M18 10h1M11 11h2M18 11h1M25 11h1M11 12h1M18 12h1M25 12h1M18 13h3M19 14h1M16 15h1M19 15h1M25 15h2M25 16h2M17 17h1M16 22h1M11 23h2M20 26h1M18 27h1" />
<path stroke="#525252" d="M20 9h1M19 10h1M19 11h1M20 12h2M12 13h1M14 13h1M17 13h1M22 13h2M27 13h1M13 14h1M15 14h1M17 14h2M25 14h2M18 15h1M20 16h2M15 17h2M22 17h2M16 18h1M22 18h1M24 18h1M17 19h2M21 19h1M18 20h1M21 20h1M24 20h1M18 21h1M20 21h1M23 21h1M19 22h1M23 22h1M18 26h2M19 27h1" />
<path stroke="#ffffff" d="M21 9h4M21 10h6M20 11h5M26 11h2M22 12h3M26 12h2M24 13h3M14 14h1M16 14h1M22 14h1M13 15h3M17 15h1M12 16h3M16 16h1M12 17h3M12 18h3M17 18h2M12 19h2M22 19h4M22 20h2M21 21h2M22 22h1M18 24h1M18 25h2" />
<path stroke="#bdbdbd" d="M20 10h1M17 16h2M18 17h4M15 18h1M19 18h3M23 18h1M11 19h1M14 19h1M16 19h1M19 19h2M10 20h3M17 20h1M19 20h2M10 21h2M17 21h1M19 21h1M11 22h1M17 22h2M20 22h2M24 22h1M16 23h3M21 23h1M23 23h3M17 24h1M24 24h1M17 25h1M17 26h1" />
<path stroke="#63636b" d="M12 12h2M19 12h1M13 13h1M21 13h1M21 15h2M15 16h1M22 16h3M24 17h2M25 24h2" />
<path stroke="#a54a42" d="M23 14h1" />
<path stroke="#e6524a" d="M23 15h2" />
</svg>