<svg xmlns="http://www.w3.org/2000/svg" viewBox="0 -0.5 40 30" shape-rendering="crispEdges">
<metadata>Made with Pixels to Svg https://codepen.io/shshaw/pen/XbxvNj</metadata>
<path stroke="#202020" d="M19 4h2M18 5h1M21 5h1M17 6h1M21 6h1M17 7h1M20 7h1M17 8h1M20 8h1M22 8h3M14 9h3M18 9h1M20 9h2M25 9h1M13 10h1M17 10h2M26 10h1M12 11h1M27 11h1M11 12h1M27 12h1M11 13h1M27 13h1M10 14h1M24 14h1M27 14h1M10 15h1M15 15h1M23 15h1M25 15h2M10 16h1M14 16h1M16 16h1M22 16h1M10 17h1M14 17h1M17 17h2M23 17h2M11 18h1M13 18h1M17 18h1M25 18h1M11 19h1M15 19h2M24 19h1M12 20h1M14 20h1M24 20h1M15 21h1M24 21h1M16 22h1M23 22h1M17 23h1M22 23h1M18 24h1M21 24h1M18 25h1M21 25h1M19 26h2" />
<path stroke="#acd573" d="M19 5h2M18 6h3M18 7h2M19 8h1M22 9h3M14 10h3M22 10h4M13 11h3M19 11h3M25 11h2M12 12h3M20 12h3M26 12h1M12 13h4M12 14h2M12 15h3M13 16h1" />
<path stroke="#6aa441" d="M18 8h1M19 9h1M19 10h1M21 10h1M24 12h1M25 13h1M11 14h1M25 14h1M11 15h1M11 16h2M11 17h3M12 18h1M12 19h1" />
<path stroke="#525252" d="M20 10h1M18 11h1M22 11h3M17 12h1M19 12h1M23 12h1M25 12h1M16 13h1M20 13h3M24 13h1M26 13h1M15 14h1M26 14h1M21 17h1M19 18h1M22 18h1M18 19h1M23 19h1M17 20h1M16 21h1M18 23h1M21 23h1M20 25h1" />
<path stroke="#fff600" d="M16 11h2M15 12h2M14 14h1" />
<path stroke="#ffeeee" d="M18 12h1M17 13h1M16 14h1M18 14h1M20 14h3M16 15h1M18 15h1M21 15h2M17 16h1M19 16h3M18 18h1M17 19h1M15 20h2M18 20h1M23 20h1M17 21h2M20 21h2M23 21h1M18 22h1M20 22h2" />
<path stroke="#bdacc5" d="M18 13h2M17 15h1M18 16h1M22 17h1M23 18h2M22 20h1M19 21h1M22 21h1M17 22h1M19 22h1M22 22h1" />
<path stroke="#ac396a" d="M23 13h1M19 14h1M20 15h1M19 17h2M22 19h1M19 20h3M19 23h2M20 24h1" />
<path stroke="#de6a9c" d="M17 14h1M23 14h1M19 15h1M20 18h2M19 19h3M19 24h1M19 25h1" />
</svg>