<svg xmlns="http://www.w3.org/2000/svg" viewBox="0 -0.5 40 30" shape-rendering="crispEdges">
<metadata>Made with Pixels to Svg https://codepen.io/shshaw/pen/XbxvNj</metadata>
<path stroke="#202020" d="M17 10h4M16 11h1M21 11h1M15 12h1M22 12h1M15 13h1M22 13h1M14 14h1M23 14h1M14 15h1M23 15h1M14 16h1M19 16h1M23 16h1M14 17h1M20 17h1M23 17h1M14 18h1M14 19h1M16 19h1M22 19h1M14 20h1M17 20h4M23 20h1M14 21h1M17 21h1M20 21h1M23 21h1M14 22h1M17 22h1M21 22h2M14 23h1M17 23h1M14 24h1M17 24h1M14 25h1M17 25h1M14 26h1M17 26h1M14 27h1M17 27h1M15 28h2" />
<path stroke="#525252" d="M17 11h1M20 11h1M18 12h2M17 13h1M16 14h1M16 15h1M20 15h1M16 16h1M22 16h1M16 17h1M19 17h1M22 17h1M15 18h2M22 18h1M15 19h1M17 19h1M21 19h1M16 20h1M22 20h1M16 21h1M22 21h1M16 22h1M16 23h1M16 24h1M16 25h1M16 26h1M16 27h1" />
<path stroke="#848484" d="M18 11h2M16 12h2M20 12h2M19 15h1M15 16h1M21 20h1M15 22h1M15 23h1M15 24h1M15 25h1M15 26h1M15 27h1" />
<path stroke="#a5a5a5" d="M16 13h1M15 14h1M15 15h1M20 16h1" />
<path stroke="#cecece" d="M18 13h1M20 13h1M17 14h1M21 14h1M17 18h1M21 18h1M18 19h1M20 19h1" />
<path stroke="#ffffff" d="M19 13h1M18 14h3M17 15h2M21 15h1M17 16h2M21 16h1M17 17h2M21 17h1M18 18h3M19 19h1" />
<path stroke="#6b6b6b" d="M21 13h1M22 14h1M22 15h1M15 17h1M15 20h1M15 21h1M21 21h1" />
</svg>