<svg xmlns="http://www.w3.org/2000/svg" viewBox="0 -0.5 40 30" shape-rendering="crispEdges">
<metadata>Made with Pixels to Svg https://codepen.io/shshaw/pen/XbxvNj</metadata>
<path stroke="#202020" d="M15 9h4M14 10h1M19 10h1M24 10h2M13 11h1M20 11h1M22 11h2M26 11h1M13 12h1M20 12h2M26 12h1M12 13h1M21 13h1M23 13h1M25 13h1M12 14h1M21 14h2M25 14h1M12 15h1M17 15h1M21 15h2M24 15h1M13 16h1M18 16h1M20 16h2M24 16h1M13 17h1M20 17h1M22 17h2M14 18h1M19 18h1M15 19h6M16 20h1M18 20h1M21 20h1M16 21h1M20 21h1M16 22h1M18 22h2M16 23h1M16 24h1M18 24h2M15 25h1M20 25h1M14 26h1M17 26h3M15 27h2" />
<path stroke="#848484" d="M15 10h1M18 10h1M14 11h1M19 11h1M24 12h1M24 13h1M13 14h1M17 14h1M23 14h1M13 15h1M23 15h1M22 16h1M17 25h1M19 25h1M15 26h2" />
<path stroke="#a5a5a5" d="M16 10h2M15 11h1M24 11h2M14 12h1M22 12h2M18 15h1M20 20h1" />
<path stroke="#525252" d="M16 11h2M15 12h1M25 12h1M13 13h2M22 13h1M14 14h1M18 14h1M24 14h1M17 16h1M23 16h1M15 18h1M18 21h2M16 25h1" />
<path stroke="#6b6b6b" d="M18 11h1M19 12h1M20 13h1M20 14h1M14 15h1M20 15h1M14 16h1M14 17h1M17 20h1M19 20h1M17 21h1M17 22h1M17 23h1M17 24h1M18 25h1" />
<path stroke="#cecece" d="M16 12h1M18 12h1M15 13h1M19 13h1M15 17h1M19 17h1M16 18h1M18 18h1" />
<path stroke="#ffffff" d="M17 12h1M16 13h3M15 14h2M19 14h1M15 15h2M19 15h1M15 16h2M19 16h1M16 17h3M17 18h1" />
</svg>