<svg xmlns="http://www.w3.org/2000/svg" viewBox="0 -0.5 40 30" shape-rendering="crispEdges">
<metadata>Made with Pixels to Svg https://codepen.io/shshaw/pen/XbxvNj</metadata>
<path stroke="#202020" d="M20 9h4M19 10h1M24 10h2M19 11h1M22 11h1M26 11h1M19 12h1M22 12h3M27 12h1M19 13h1M22 13h1M25 13h1M28 13h1M18 14h1M23 14h1M25 14h1M28 14h1M17 15h1M24 15h1M26 15h1M29 15h1M17 16h1M24 16h1M26 16h1M29 16h1M16 17h1M25 17h1M27 17h1M29 17h1M16 18h1M25 18h1M27 18h1M29 18h1M16 19h1M21 19h1M25 19h1M27 19h1M29 19h1M17 20h1M22 20h1M24 20h1M26 20h1M29 20h1M17 21h1M24 21h1M26 21h1M29 21h1M18 22h1M23 22h1M25 22h1M28 22h1M19 23h4M25 23h1M28 23h1M23 24h2M27 24h1M20 25h3M26 25h1M19 26h1M24 26h2M20 27h4" />
<path stroke="#a5a5a5" d="M20 10h3M20 14h2M19 15h1M18 16h1M22 19h1" />
<path stroke="#848484" d="M23 10h1M21 11h1M24 11h2M21 12h1M26 12h1M26 13h2M19 14h1M22 14h1M27 14h1M18 15h1M23 15h1M28 15h1M28 16h1M17 17h1M28 17h1M17 18h1M21 18h1M28 18h1M28 19h1M28 20h1M27 21h1M27 22h1M26 23h1M25 24h1M23 25h2M21 26h2" />
<path stroke="#6b6b6b" d="M20 11h1M23 11h1M22 15h1M27 15h1M23 16h1M24 17h1M24 18h1M17 19h1M24 19h1" />
<path stroke="#525252" d="M20 12h1M25 12h1M20 13h2M26 14h1M20 15h2M19 16h1M27 16h1M18 17h1M18 18h1M22 18h1M18 19h1M18 20h1M21 20h1M27 20h1M18 21h1M28 21h1M19 22h1M26 22h1M27 23h1M26 24h1M25 25h1M20 26h1M23 26h1" />
<path stroke="#cecece" d="M20 16h1M22 16h1M19 17h1M23 17h1M19 21h1M23 21h1M20 22h1M22 22h1" />
<path stroke="#ffffff" d="M21 16h1M20 17h3M19 18h2M23 18h1M19 19h2M23 19h1M19 20h2M23 20h1M20 21h3M21 22h1" />
</svg>