<svg xmlns="http://www.w3.org/2000/svg" viewBox="0 -0.5 40 30" shape-rendering="crispEdges">
<metadata>Made with Pixels to Svg https://codepen.io/shshaw/pen/XbxvNj</metadata>
<path stroke="#202020" d="M24 9h1M19 10h3M23 10h1M25 10h1M18 11h1M22 11h1M25 11h1M12 12h6M25 12h1M12 13h1M25 13h1M11 14h2M25 14h1M10 15h1M26 15h1M11 16h1M24 16h1M26 16h1M11 17h1M20 17h1M27 17h1M10 18h1M27 18h1M10 19h1M27 19h1M11 20h1M26 20h1M11 21h1M26 21h1M11 22h1M25 22h1M12 23h1M26 23h1M12 24h1M23 24h3M13 25h3M21 25h2M16 26h2M20 26h1M18 27h2" />
<path stroke="#16bd29" d="M24 10h1M23 11h2M13 13h2M14 14h1" />
<path stroke="#ffcece" d="M19 11h3M19 12h2M24 12h1M15 13h4M20 13h2M24 13h1M15 14h4M23 14h2M15 15h9M16 16h2M19 16h1M21 16h3M25 16h1M17 17h1M19 17h1M21 17h5M16 18h3M20 18h2M24 18h2M16 19h6M24 19h2M16 20h3M20 20h6M17 21h2M21 21h4M20 22h4" />
<path stroke="#525252" d="M18 12h1M23 12h1M19 13h1M23 13h1M13 14h1M20 14h3M13 15h2M13 16h3M14 17h3M14 18h1M22 18h2M11 19h3M13 20h1M13 21h1M20 21h1M14 22h1M18 22h2M14 23h1M24 23h1M13 24h1M15 24h1M22 24h1M16 25h1" />
<path stroke="#ee8e8e" d="M21 12h2M22 13h1M19 14h1M11 15h2M25 15h1M12 16h1M18 16h1M18 17h1M26 17h1M15 18h1M19 18h1M14 19h2M23 19h1M14 20h2M14 21h3M25 21h1M15 22h3M24 22h1M15 23h9M16 24h6M17 25h4" />
<path stroke="#ffffff" d="M24 15h1M20 16h1M26 18h1M19 21h1M18 26h2" />
<path stroke="#d96969" d="M12 17h2M11 18h3M22 19h1M26 19h1M12 20h1M19 20h1M12 21h1M12 22h2M13 23h1M14 24h1" />
<path stroke="#bdbdbd" d="M25 23h1" />
</svg>