<svg xmlns="http://www.w3.org/2000/svg" viewBox="0 -0.5 40 30" shape-rendering="crispEdges">
<metadata>Made with Pixels to Svg https://codepen.io/shshaw/pen/XbxvNj</metadata>
<path stroke="#202020" d="M22 6h2M27 6h2M14 7h2M21 7h1M24 7h1M27 7h1M29 7h1M13 8h1M15 8h1M20 8h1M23 8h1M26 8h1M29 8h1M13 9h1M15 9h1M18 9h1M20 9h1M24 9h2M28 9h1M12 10h1M16 10h2M19 10h1M28 10h1M8 11h2M12 11h1M29 11h1M7 12h1M9 12h1M13 12h1M29 12h1M6 13h1M9 13h1M13 13h1M29 13h1M6 14h1M10 14h1M12 14h1M28 14h1M7 15h1M11 15h1M22 15h1M29 15h1M7 16h1M29 16h1M6 17h1M28 17h1M6 18h1M29 18h1M7 19h2M30 19h1M9 20h1M30 20h1M9 21h1M27 21h3M10 22h1M27 22h1M11 23h1M22 23h2M26 23h1M12 24h2M19 24h3M23 24h1M27 24h1M14 25h1M18 25h1M24 25h3M14 26h1M18 26h1M15 27h3" />
<path stroke="#ffc9ce" d="M22 7h2M22 8h1M21 9h3M22 10h3M21 11h4M23 12h3M24 13h2M24 14h1M14 19h2M19 19h3M25 19h1M19 20h4M12 21h1M20 21h1M12 22h4M23 22h1M12 23h1M14 23h1M14 24h1" />
<path stroke="#d44e58" d="M28 7h1M27 8h2M26 9h2M18 10h1M26 10h2M18 11h1M27 11h2M8 12h1M18 12h2M27 12h2M7 13h2M19 13h1M28 13h1M7 14h3M13 14h1M8 15h3M13 15h1M8 16h4M13 16h2M18 16h1M7 17h6M14 17h4M7 18h6M19 18h1M9 19h3M10 20h1M10 21h1M23 21h2M22 22h1M21 23h1M24 24h2M15 25h1" />
<path stroke="#f75d68" d="M14 8h1M14 9h1M13 10h3M21 10h1M13 11h4M20 11h1M14 12h3M20 12h2M14 13h4M20 13h4M26 13h1M14 14h5M21 14h3M25 14h2M14 15h5M23 15h3M15 16h3M23 20h2M21 21h2M21 22h1M16 25h1" />
<path stroke="#ff959f" d="M21 8h1M25 11h1M22 12h1" />
<path stroke="#525252" d="M20 10h1M25 10h1M17 11h1M19 11h1M26 11h1M17 12h1M26 12h1M18 13h1M27 13h1M19 14h2M27 14h1M12 15h1M19 15h2M26 15h1M28 15h1M12 16h1M19 16h1M21 16h5M27 16h1M13 17h1M18 17h3M26 17h1M13 18h5M20 18h2M25 18h3M12 19h1M16 19h1M22 19h3M26 19h1M11 20h3M16 20h3M25 20h1M27 20h1M11 21h1M13 21h4M19 21h1M25 21h1M16 22h1M20 22h1M24 22h1M26 22h1M15 23h1M20 23h1M24 23h2M15 24h2M17 25h1M16 26h1" />
<path stroke="#ffffff" d="M21 15h1M15 26h1M17 26h1" />
<path stroke="#fa7a85" d="M27 15h1M18 18h1M28 18h1M17 19h2M27 19h3M28 20h1M11 22h1M13 23h1" />
<path stroke="#e4717a" d="M20 16h1M26 16h1M21 17h1M23 17h2M22 18h1M26 20h1M26 21h1M25 22h1M16 23h1M17 24h2" />
<path stroke="#a8565b" d="M28 16h1M27 17h1M13 19h1M14 20h2M29 20h1" />
<path stroke="#ffa1a9" d="M22 17h1M25 17h1M23 18h2M17 21h2M17 22h3M17 23h3" />
<path stroke="#bdbdbd" d="M26 24h1" />
</svg>