<svg xmlns="http://www.w3.org/2000/svg" viewBox="0 -0.5 40 30" shape-rendering="crispEdges">
<metadata>Made with Pixels to Svg https://codepen.io/shshaw/pen/XbxvNj</metadata>
<path stroke="#202020" d="M29 0h2M28 1h1M31 1h1M27 2h1M32 2h3M11 3h3M27 3h1M34 3h1M10 4h1M14 4h1M28 4h1M33 4h1M9 5h1M15 5h1M28 5h1M33 5h1M5 6h4M14 6h1M24 6h2M28 6h1M33 6h1M5 7h1M13 7h1M18 7h2M22 7h1M24 7h1M26 7h2M33 7h1M6 8h1M13 8h1M17 8h1M20 8h2M23 8h1M33 8h1M7 9h1M13 9h1M16 9h1M33 9h1M7 10h1M13 10h1M16 10h1M34 10h1M6 11h1M13 11h1M15 11h1M34 11h1M6 12h1M13 12h1M15 12h1M33 12h1M6 13h1M13 13h1M15 13h1M32 13h1M6 14h1M13 14h1M15 14h1M31 14h1M6 15h1M14 15h1M31 15h1M5 16h1M14 16h1M30 16h1M4 17h1M9 17h1M29 17h1M4 18h3M8 18h1M10 18h1M27 18h2M7 19h1M9 19h1M26 19h1M7 20h1M25 20h1M29 20h2M8 21h1M10 21h1M12 21h2M24 21h1M27 21h2M31 21h1M33 21h1M9 22h1M11 22h1M13 22h1M24 22h3M32 22h1M34 22h1M12 23h1M23 23h1M34 23h1M11 24h1M22 24h1M24 24h1M34 24h1M10 25h1M12 25h2M22 25h1M25 25h2M33 25h1M10 26h2M14 26h2M23 26h1M27 26h2M31 26h2M15 27h1M23 27h1M29 27h2M16 28h2M21 28h2M18 29h3" />
<path stroke="#ee8bac" d="M29 1h2M28 2h4M30 3h1M11 4h3M10 5h5M9 6h3M32 6h1M10 7h1M25 7h1M32 7h1M18 8h2M26 8h1M32 8h1M17 9h2M26 9h2M32 9h1M8 10h1M17 10h1M7 11h2M16 11h1M7 12h2M16 12h1M7 13h1M31 13h1M7 14h1M30 14h1M7 15h1M30 15h1M29 16h1M28 17h1M8 19h1M11 19h1M8 20h1M10 20h3M9 21h1M11 21h1M15 21h1M14 22h3M15 23h1M13 24h1M14 25h2" />
<path stroke="#8d6066" d="M28 3h2M12 6h2M30 6h2M11 7h1M29 7h1M31 7h1M11 8h1M25 8h1M27 8h1M29 8h1M31 8h1M10 9h2M25 9h1M29 9h1M31 9h1M9 10h1M11 10h1M26 10h1M31 10h1M9 11h1M11 11h1M26 11h1M30 11h1M9 12h1M11 12h1M30 12h1M8 13h1M10 13h2M30 13h1M8 14h2M29 14h1M10 15h2M29 15h1M10 16h1M28 16h1M10 17h4M13 18h2M10 19h1M12 19h1M14 19h1M9 20h1M15 20h3M18 21h1M17 22h1M14 23h1M16 23h1M14 24h2" />
<path stroke="#21497b" d="M31 3h1M30 4h1M30 5h3M9 7h1M20 9h1M19 10h1M24 10h1M32 10h1M24 11h1M20 12h1M25 12h1M31 12h2M25 13h1M17 15h1M18 16h1M8 17h1M18 17h1M7 18h1M18 18h1M18 19h2M19 20h1M27 22h1M13 23h1M24 23h1M26 23h1M12 24h1M31 25h1M29 26h1M17 27h1" />
<path stroke="#3a6294" d="M32 3h2M31 4h2M8 7h1M7 8h1M9 8h1M21 10h2M28 10h1M33 10h1M21 11h2M28 11h1M31 11h3M21 12h1M27 12h2M19 13h1M21 13h2M27 13h1M16 14h1M19 14h1M22 14h2M26 14h2M16 15h1M19 15h2M23 15h1M26 15h2M6 16h2M17 16h1M20 16h1M25 16h2M17 17h1M20 17h2M24 17h3M20 18h1M22 18h2M25 18h1M23 19h1M25 19h1M21 20h4M22 21h1M30 21h1M22 22h1M29 22h1M31 22h1M18 23h3M28 23h1M31 23h1M33 23h1M17 24h1M25 24h2M28 24h2M11 25h1M17 25h2M28 25h1M18 26h1M21 27h1" />
<path stroke="#f8dbdb" d="M29 4h1M29 5h1M29 6h1M12 7h1M28 7h1M12 8h1M28 8h1M12 9h1M12 10h1M25 10h1M12 11h1M25 11h1M12 12h1M12 13h1M10 14h3M12 15h2M11 16h3M14 17h1M15 18h1M15 19h2" />
<path stroke="#5b83b5" d="M6 7h2M8 8h1M22 8h1M22 9h1M23 10h1M18 11h1M23 11h1M18 12h1M18 13h1M18 14h1M24 14h1M18 15h1M24 15h1M8 16h1M19 16h1M5 17h3M19 17h1M19 18h1M20 19h1M20 20h1M20 21h1M29 21h1M21 22h1M28 22h1M33 22h1M27 23h1M21 24h1M27 24h1M20 25h2M27 25h1M32 25h1M20 26h1M30 26h1M16 27h1M22 27h1M19 28h1" />
<path stroke="#e9b0b2" d="M30 7h1M24 8h1M30 8h1M24 9h1M30 9h1M10 10h1M30 10h1M10 11h1M10 12h1M9 13h1M29 13h1M22 16h2M11 18h2M13 19h1M13 20h2M14 21h1M16 21h2" />
<path stroke="#273342" d="M10 8h1M8 9h2M19 9h1M21 9h1M23 9h1M28 9h1M18 10h1M20 10h1M27 10h1M29 10h1M17 11h1M19 11h2M27 11h1M29 11h1M17 12h1M19 12h1M26 12h1M29 12h1M16 13h2M20 13h1M26 13h1M28 13h1M17 14h1M20 14h1M25 14h1M28 14h1M8 15h2M15 15h1M21 15h1M25 15h1M28 15h1M9 16h1M15 16h2M21 16h1M24 16h1M27 16h1M15 17h2M22 17h2M27 17h1M16 18h2M26 18h1M17 19h1M18 20h1M19 21h1M18 22h3M23 22h1M17 23h1M21 23h2M25 23h1M32 23h1M16 24h1M30 24h2M33 24h1M16 25h1M29 25h1M17 26h1M19 26h1M21 26h1M18 27h1M20 27h1M18 28h1M20 28h1" />
<path stroke="#836abd" d="M22 12h1M23 13h1" />
<path stroke="#ffffff" d="M23 12h1M24 13h1" />
<path stroke="#8bc518" d="M24 12h1" />
<path stroke="#ff6a94" d="M21 14h1M22 15h1M21 18h1M24 18h1M21 19h2M24 19h1M21 21h1M23 21h1" />
<path stroke="#d5d5bd" d="M30 22h1M29 23h2M18 24h3M19 25h1" />
<path stroke="#acacac" d="M32 24h1M30 25h1M16 26h1M22 26h1M19 27h1" />
</svg>