<svg xmlns="http://www.w3.org/2000/svg" viewBox="0 -0.5 80 80" shape-rendering="crispEdges">
<metadata>Made with Pixels to Svg https://codepen.io/shshaw/pen/XbxvNj</metadata>
<path stroke="#737b7b" d="M59 0h1M48 1h1M58 1h1M48 2h1M57 2h1M48 3h1M50 3h1M56 3h1M48 4h1M55 4h1M47 5h1M51 5h1M54 5h1M47 6h1M46 7h1M67 13h1M66 14h1M65 15h1M64 16h1M67 16h1M66 18h1M74 19h1M67 20h1M70 20h1M10 22h1M10 23h1M11 24h1M11 25h1M42 25h3M11 26h1M38 26h3M46 26h2M11 27h1M11 28h1M10 29h1M10 30h1M39 30h1M14 33h1M17 34h1M15 35h2M66 43h1M65 44h1M39 45h2M64 45h1M39 46h1M66 46h1M39 47h1M39 48h1M65 48h1M39 49h1M4 54h1M5 55h1M4 56h1M5 57h1M4 58h1M5 62h1M4 63h1M3 64h1" />
<path stroke="#181818" d="M60 0h1M49 1h1M60 1h1M20 2h1M50 2h1M60 2h1M20 3h1M60 3h1M20 4h1M51 4h1M59 4h1M20 5h1M59 5h1M20 6h1M52 6h2M58 6h1M20 7h1M58 7h1M20 8h1M46 8h1M58 8h1M20 9h1M45 9h1M58 9h1M20 10h1M35 10h1M45 10h4M59 10h6M20 11h1M34 11h1M64 11h1M20 12h1M33 12h1M42 12h1M62 12h2M20 13h1M32 13h1M41 13h1M60 13h2M68 13h1M20 14h1M31 14h1M39 14h1M59 14h1M68 14h1M10 15h1M30 15h1M42 15h1M50 15h2M68 15h1M11 16h1M29 16h1M38 16h2M48 16h1M51 16h1M28 17h1M40 17h1M43 17h1M50 17h1M63 17h1M67 17h1M12 18h1M27 18h1M40 18h1M63 18h1M75 18h5M26 19h2M38 19h2M49 19h1M63 19h1M66 19h1M71 19h3M79 19h1M13 20h1M25 20h1M27 20h1M36 20h1M49 20h1M62 20h1M68 20h2M77 20h2M14 21h1M24 21h1M27 21h1M34 21h1M48 21h1M59 21h2M74 21h3M23 22h1M27 22h1M48 22h1M54 22h4M72 22h2M15 23h1M22 23h1M48 23h1M55 23h1M70 23h2M21 24h1M24 24h1M26 24h1M55 24h1M69 24h1M22 25h4M69 25h1M37 26h1M50 26h1M53 26h1M70 26h1M37 27h1M50 27h2M63 27h3M71 27h1M47 28h3M63 28h1M66 28h3M72 28h1M36 29h1M46 29h1M69 29h4M15 30h7M25 30h1M37 30h2M46 30h1M64 30h1M11 31h1M15 31h1M17 31h1M23 31h1M25 31h2M36 31h1M40 31h2M46 31h1M12 32h2M15 32h2M18 32h1M24 32h2M27 32h1M36 32h1M42 32h2M47 32h1M18 33h1M44 33h1M47 33h1M65 33h1M14 34h1M19 34h1M28 34h1M36 34h1M45 34h2M65 34h1M19 35h1M37 35h1M65 35h1M20 36h1M38 36h1M65 36h1M21 37h1M34 37h1M65 37h1M21 38h1M34 38h1M65 38h1M20 39h1M34 39h1M39 39h1M33 40h1M39 40h1M64 40h1M19 41h1M32 41h1M39 41h1M63 41h1M19 42h1M21 42h1M30 42h2M39 42h1M63 42h1M19 43h1M29 43h2M63 43h1M67 43h1M19 44h1M23 44h3M29 44h1M38 44h1M63 44h1M67 44h1M28 45h1M67 45h1M22 46h6M37 46h1M41 46h1M62 46h1M20 47h1M62 47h1M66 47h1M20 48h1M36 48h1M62 48h1M12 49h1M20 49h1M36 49h1M65 49h1M12 50h1M19 50h1M37 50h1M61 50h1M64 50h1M13 51h1M19 51h1M35 51h1M37 51h1M41 51h2M61 51h1M64 51h1M66 51h1M13 52h1M18 52h1M38 52h3M42 52h1M60 52h1M68 52h1M14 53h4M37 53h1M41 53h1M59 53h1M69 53h2M38 54h3M53 54h4M72 54h1M57 55h1M73 55h1M57 56h1M74 56h1M57 57h1M75 57h1M56 59h1M60 59h7M76 59h1M56 60h1M68 60h1M76 60h1M7 61h7M28 61h4M33 61h1M70 61h1M76 61h1M22 62h1M25 62h2M55 62h1M71 62h1M76 62h1M20 63h1M54 63h1M62 63h1M72 63h1M76 63h1M18 64h1M53 64h2M76 64h1M14 65h2M48 65h3M54 65h1M63 65h1M10 66h3M54 66h1M73 66h1M75 66h1M2 67h7M54 67h1M73 67h2M64 68h1M73 68h1M53 69h1M64 69h1M73 69h1M53 70h1M64 70h1M72 70h1M64 71h1M72 71h1M35 72h1M52 72h1M64 72h1M71 72h1M36 73h1M51 73h1M70 73h1M37 74h1M50 74h1M63 74h1M68 74h2M38 75h1M49 75h1M66 75h2M40 76h1M62 76h4M42 77h4M47 77h1M60 77h2M49 78h1M58 78h2M51 79h6" />
<path stroke="#184173" d="M18 1h2M18 2h1M18 3h1M18 4h1M18 5h1M18 6h1M17 7h1M17 8h1M30 8h8M45 8h1M17 9h1M33 9h2M38 9h2M49 9h4M7 10h2M17 10h1M32 10h1M36 10h2M40 10h1M53 10h2M7 11h1M9 11h1M17 11h1M31 11h1M38 11h5M55 11h1M8 12h1M10 12h1M17 12h1M30 12h1M56 12h1M8 13h1M11 13h1M16 13h1M28 13h2M40 13h1M57 13h1M9 14h1M12 14h1M16 14h1M27 14h2M38 14h1M41 14h1M58 14h1M13 15h2M16 15h1M20 15h1M25 15h2M35 15h1M37 15h1M58 15h1M15 16h2M21 16h1M23 16h2M36 16h2M42 16h1M59 16h2M12 17h1M16 17h1M21 17h2M46 17h1M61 17h2M16 18h1M21 18h1M43 18h3M48 18h2M13 19h1M15 19h1M19 19h1M37 19h1M42 19h2M47 19h1M10 20h2M15 20h1M19 20h1M35 20h1M40 20h2M45 20h1M61 20h1M10 21h1M12 21h1M15 21h1M19 21h1M38 21h2M43 21h1M58 21h1M62 21h1M11 22h1M13 22h1M15 22h1M33 22h1M36 22h2M41 22h1M52 22h2M63 22h1M12 23h1M14 23h1M16 23h1M27 23h1M33 23h1M35 23h1M39 23h1M51 23h1M63 23h1M13 24h1M17 24h1M20 24h1M33 24h2M38 24h1M49 24h1M63 24h1M14 25h2M17 25h3M34 25h4M50 25h1M54 25h1M63 25h1M14 26h1M20 26h1M52 26h1M63 26h1M62 27h1M36 28h1M62 28h1M35 29h1M63 29h1M35 30h1M59 30h2M34 31h1M64 31h1M34 32h1M65 32h1M33 33h1M35 33h1M33 34h2M17 35h1M33 35h1M35 35h1M16 36h1M34 36h1M36 36h1M18 37h1M36 37h1M38 37h1M17 38h1M39 38h1M17 39h1M37 39h1M64 39h1M17 40h1M37 40h1M17 41h1M37 41h1M62 41h1M18 42h1M59 42h2M16 43h1M18 43h1M38 43h1M57 43h2M16 44h1M18 44h1M19 45h1M37 45h1M62 45h1M17 46h1M19 46h1M18 47h1M34 47h1M36 47h1M18 48h1M34 48h1M18 49h1M34 49h1M61 49h1M17 50h1M35 50h1M15 51h2M60 51h1M62 51h1M65 51h1M63 52h2M67 52h1M58 53h1M68 53h1M52 54h1M57 54h1M66 54h2M71 54h1M65 55h1M64 56h1M63 57h1M57 58h1M62 58h1M75 58h1M32 59h1M59 59h1M4 60h1M32 60h1M57 60h2M67 60h1M5 61h2M14 61h2M23 61h1M27 61h1M55 61h1M59 61h2M69 61h1M21 62h1M24 62h1M61 62h1M13 63h3M19 63h1M9 64h4M17 64h1M52 64h1M62 64h1M72 64h1M2 65h7M13 65h1M16 65h1M47 65h1M51 65h1M73 65h1M75 65h1M1 66h1M9 66h1M63 66h1M64 67h1M53 68h1M52 71h1M63 73h1M48 75h1M62 75h1M46 76h2M48 77h1M50 78h1M57 78h1" />
<path stroke="#f6f6f6" d="M59 1h1M49 2h1M58 2h2M49 3h1M57 3h2M49 4h2M56 4h2M48 5h3M55 5h2M48 6h4M54 6h3M47 7h9M47 8h8M46 9h3M67 14h1M66 15h2M65 16h2M64 17h3M64 18h2M48 19h1M64 19h2M75 19h4M46 20h3M64 20h3M71 20h6M25 21h2M44 21h4M64 21h8M24 22h3M42 22h6M65 22h3M26 23h1M41 23h7M16 24h1M22 24h1M39 24h10M38 25h3M46 25h4M42 26h4M49 26h1M38 27h12M37 28h10M37 29h9M23 30h2M40 30h6M16 31h1M24 31h1M42 31h4M44 32h3M45 33h2M20 41h1M20 42h1M26 42h1M26 43h1M66 44h1M63 45h1M65 45h2M40 46h1M63 46h3M40 47h2M63 47h3M40 48h1M63 48h2M62 49h3M62 50h2M63 51h1M5 54h3M6 55h5M5 56h9M6 57h10M5 58h8M6 62h9M5 63h7M4 64h5" />
<path stroke="#10839c" d="M19 2h1M19 3h1M19 4h1M19 5h1M19 6h1M18 7h2M18 8h2M18 9h2M27 9h2M41 9h2M18 10h2M24 10h3M33 10h2M8 11h1M18 11h2M22 11h2M32 11h2M9 12h1M18 12h2M21 12h1M31 12h2M9 13h2M17 13h3M30 13h2M10 14h2M17 14h3M29 14h2M40 14h1M11 15h2M17 15h3M27 15h3M38 15h4M43 15h1M12 16h3M17 16h3M25 16h4M40 16h2M43 16h3M49 16h1M57 16h2M13 17h3M17 17h3M23 17h5M41 17h2M44 17h2M47 17h1M55 17h5M13 18h3M17 18h3M22 18h5M41 18h2M50 18h8M14 19h1M16 19h3M20 19h6M40 19h2M46 19h1M50 19h6M14 20h1M16 20h3M20 20h5M37 20h3M44 20h1M50 20h3M11 21h1M16 21h3M20 21h4M35 21h3M42 21h1M49 21h6M61 21h1M12 22h1M16 22h7M34 22h2M40 22h1M49 22h3M58 22h5M13 23h1M17 23h5M34 23h1M49 23h2M52 23h3M56 23h7M14 24h2M18 24h2M50 24h5M56 24h7M51 25h3M57 25h6M51 26h1M58 26h5M58 27h4M59 28h3M59 29h2M36 30h1M35 31h1M59 31h2M35 32h1M59 32h3M34 33h1M60 33h3M18 34h1M35 34h1M60 34h4M36 35h1M61 35h4M61 36h4M16 37h1M61 37h4M15 38h1M37 38h1M61 38h4M15 39h1M60 39h4M15 40h1M60 40h4M15 41h1M59 41h3M16 42h1M37 42h1M58 42h1M36 43h1M59 43h1M36 44h1M57 44h3M17 45h1M35 45h1M58 45h3M35 46h1M58 46h3M58 47h4M58 48h4M57 49h4M57 50h4M3 51h5M56 51h4M3 52h1M8 52h5M55 52h5M13 53h1M54 53h4M53 55h2M72 55h1M54 56h1M73 56h1M55 57h1M74 57h1M74 58h1M74 59h2M59 60h8M74 60h2M56 61h3M61 61h8M74 61h2M56 62h5M62 62h9M73 62h2M55 63h7M63 63h2M68 63h4M73 63h2M55 64h7M63 64h1M69 64h3M73 64h1M55 65h8M69 65h4M59 66h4M68 66h4M60 67h4M67 67h4M60 68h4M65 68h5M59 69h5M65 69h4M57 70h7M65 70h2M53 71h10M53 72h7M52 73h5" />
<path stroke="#acb4cd" d="M59 3h1M58 4h1M57 5h2M57 6h1M56 7h2M55 8h3M53 9h5M55 10h4M56 11h8M57 12h5M58 13h2M26 20h1M63 20h1M63 21h1M72 21h2M64 22h1M68 22h4M11 23h1M40 23h1M64 23h6M12 24h1M64 24h5M12 25h2M41 25h1M45 25h1M64 25h5M12 26h2M41 26h1M48 26h1M64 26h6M12 27h2M66 27h5M12 28h2M69 28h3M11 29h4M11 30h4M12 31h3M14 32h1M17 32h1M15 33h3M15 34h2M11 55h1M14 56h1M16 57h1M15 62h1M12 63h1" />
<path stroke="#186294" d="M43 8h2M29 9h1M20 16h1M20 17h1M60 17h1M20 18h1M58 18h2M56 19h3M53 20h3M29 21h1M29 22h1M29 23h1M27 24h2M33 28h1M32 29h1M32 30h1M31 31h1M31 32h1M31 33h1M13 48h1M14 49h1M14 50h1M35 52h2M4 53h4M32 53h3M8 54h4M16 54h1M29 54h3M12 55h3M17 55h2M27 55h2M31 55h1M15 56h2M19 56h2M25 56h3M31 56h1M17 57h2M21 57h1M23 57h2M26 57h1M31 57h1M13 58h4M22 58h1M26 58h1M31 58h1M5 59h7M22 59h1M26 59h1M22 60h1M27 60h1M18 61h2M16 62h2" />
<path stroke="#00acd5" d="M30 9h3M35 9h3M29 10h3M38 10h2M49 10h4M28 11h3M35 11h3M44 11h11M27 12h3M34 12h8M43 12h13M21 13h1M25 13h3M33 13h7M42 13h15M21 14h6M32 14h6M42 14h16M21 15h4M31 15h4M36 15h1M44 15h6M52 15h6M22 16h1M30 16h6M46 16h2M50 16h1M52 16h5M29 17h11M48 17h2M51 17h4M28 18h12M46 18h2M60 18h3M28 19h9M44 19h2M59 19h4M28 20h7M42 20h2M56 20h5M28 21h1M30 21h4M40 21h2M55 21h3M28 22h1M30 22h3M38 22h2M28 23h1M30 23h3M36 23h3M29 24h4M35 24h3M16 25h1M20 25h2M26 25h8M15 26h5M21 26h16M16 27h6M26 27h11M27 28h6M34 28h2M28 29h4M33 29h2M29 30h3M33 30h2M30 31h1M32 31h2M32 32h2M32 33h1M32 34h1M18 35h1M32 35h1M18 36h1M33 36h1M37 36h1M33 37h1M37 37h1M33 38h1M38 38h1M32 39h2M38 39h1M32 40h1M38 40h1M31 41h1M38 41h1M17 42h1M38 42h1M17 43h1M37 43h1M17 44h1M37 44h1M18 45h1M36 45h1M18 46h1M36 46h1M19 47h1M35 47h1M19 48h1M35 48h1M13 49h1M19 49h1M35 49h1M13 50h1M18 50h1M36 50h1M14 51h1M17 51h2M36 51h1M14 52h4M37 52h1M41 52h1M61 52h2M65 52h2M8 53h1M38 53h3M60 53h8M12 54h1M36 54h1M58 54h3M64 54h2M68 54h3M15 55h1M35 55h1M52 55h1M58 55h3M66 55h6M17 56h2M32 56h4M52 56h2M58 56h4M65 56h8M29 57h1M32 57h4M52 57h3M60 57h3M64 57h10M20 58h2M27 58h2M52 58h4M61 58h1M63 58h1M66 58h5M73 58h1M12 59h1M17 59h5M27 59h4M52 59h4M67 59h3M5 60h17M23 60h3M51 60h5M69 60h1M16 61h2M20 61h3M51 61h4M18 62h3M50 62h5M16 63h3M49 63h5M13 64h4M47 64h5M9 65h4M2 66h7M47 66h4M47 67h4M47 68h4M47 69h5M48 70h5M48 71h4M49 72h3" />
<path stroke="#7bdeee" d="M43 9h2M27 10h2M41 10h4M24 11h4M43 11h1M22 12h5M22 13h3M17 36h1M17 37h1M16 38h1M16 39h1M16 40h1M16 41h1M4 52h4M9 53h4M35 53h2M13 54h3M32 54h4M16 55h1M29 55h2M32 55h3M28 56h3M19 57h2M25 57h1M27 57h2M17 58h3M23 58h2M13 59h4M23 59h1" />
<path stroke="#ee6241" d="M23 23h3M24 37h6M22 38h8M22 39h7M22 40h7M22 41h3M27 41h1M22 42h3M22 43h3" />
<path stroke="#bd3162" d="M23 24h1M25 24h1M26 35h3M23 36h7M22 37h2" />
<path stroke="#cdac62" d="M55 25h2M54 26h4M52 27h6M50 28h9M25 29h2M47 29h12M62 29h1M26 30h2M47 30h12M61 30h3M27 31h2M47 31h9M61 31h3M28 32h2M48 32h5M56 32h3M62 32h3M29 33h1M53 33h7M63 33h2M29 34h2M47 34h13M64 34h1M30 35h1M46 35h15M46 36h15M46 37h15M46 38h15M47 39h13M47 40h13M46 41h1M49 41h10M45 42h4M51 42h7M62 42h1M20 43h1M28 43h1M45 43h6M60 43h3M27 44h2M46 44h11M60 44h3M26 45h2M46 45h12M61 45h1M47 46h11M61 46h1M47 47h11M43 48h1M48 48h10M43 49h1M48 49h9M44 50h1M49 50h8M45 51h2M50 51h6M47 52h2M51 52h4M49 53h1M52 53h2M61 54h3M55 55h2M61 55h4M55 56h2M62 56h2M30 57h1M56 57h1M58 57h2M25 58h1M29 58h2M32 58h4M37 58h1M56 58h1M58 58h3M64 58h2M71 58h2M24 59h2M31 59h1M33 59h2M37 59h1M57 59h2M70 59h4M26 60h1M28 60h4M33 60h2M38 60h1M70 60h4M24 61h3M39 61h1M71 61h3M40 62h2M72 62h1M75 62h1M42 63h2M65 63h3M75 63h1M44 64h3M64 64h5M74 64h2M52 65h2M64 65h5M74 65h1M51 66h3M55 66h4M64 66h4M72 66h1M74 66h1M51 67h3M55 67h5M65 67h2M71 67h2M51 68h2M54 68h6M70 68h3M52 69h1M54 69h5M69 69h4M54 70h3M67 70h5M63 71h1M65 71h7M60 72h4M65 72h6M57 73h6M64 73h6M51 74h12M64 74h4M50 75h12M63 75h3M48 76h14M49 77h11M51 78h6" />
<path stroke="#5a4120" d="M14 27h2M22 27h4M14 28h1M16 28h5M26 28h1M15 29h1M22 29h3M27 29h1M61 29h1M28 30h1M29 31h1M56 31h3M30 32h1M53 32h3M28 33h1M30 33h1M48 33h5M31 34h1M29 35h1M31 35h1M45 35h1M30 36h1M32 36h1M45 36h1M30 37h1M32 37h1M45 37h1M30 38h1M32 38h1M45 38h1M29 39h1M31 39h1M46 39h1M20 40h1M29 40h1M31 40h1M46 40h1M28 41h1M30 41h1M45 41h1M47 41h2M28 42h1M44 42h1M49 42h2M61 42h1M21 43h1M27 43h1M43 43h1M51 43h6M22 44h1M26 44h1M43 44h1M20 45h2M42 45h1M42 46h1M42 47h1M41 48h1M40 49h1M39 50h1M38 51h1M50 53h2M37 54h1M36 55h1M36 56h1M36 57h1M36 58h1M35 59h1M35 60h1M34 61h1M34 62h1M34 63h1M33 64h1M33 65h1M33 66h1M33 67h1M33 68h1M34 69h1M34 70h1M35 71h1M39 75h1M41 76h1" />
<path stroke="#f6e6ac" d="M15 28h1M21 28h5M16 29h6M31 36h1M31 37h1M31 38h1M30 39h1M30 40h1M29 41h1M29 42h1M44 43h1M20 44h2M44 44h2M22 45h4M43 45h3M43 46h4M43 47h4M42 48h1M44 48h4M41 49h2M44 49h4M40 50h4M45 50h4M39 51h2M43 51h2M47 51h3M43 52h4M49 52h2M42 53h7M41 54h11M37 55h15M37 56h15M37 57h15M38 58h14M36 59h1M38 59h14M36 60h2M39 60h12M35 61h4M40 61h11M35 62h5M42 62h8M35 63h7M44 63h5M34 64h10M34 65h13M34 66h13M34 67h13M34 68h13M35 69h12M35 70h13M36 71h12M36 72h13M37 73h14M38 74h12M40 75h8M42 76h4" />
<path stroke="#6a1820" d="M22 30h1M18 31h5M19 32h5M26 32h1M19 33h9M20 34h8M20 35h6M21 36h2M21 39h1M21 40h1M21 41h1M25 41h2M25 42h1M27 42h1M25 43h1" />
</svg>