<svg xmlns="http://www.w3.org/2000/svg" viewBox="0 -0.5 80 80" shape-rendering="crispEdges">
<metadata>Made with Pixels to Svg https://codepen.io/shshaw/pen/XbxvNj</metadata>
<path stroke="#de0000" d="M57 2h2M55 3h3M35 4h1M53 4h2M56 4h1M34 5h2M42 5h1M51 5h2M55 5h1M33 6h1M35 6h1M41 6h2M49 6h2M54 6h1M33 7h1M35 7h1M40 7h1M42 7h1M47 7h2M53 7h1M32 8h1M35 8h1M39 8h1M42 8h1M45 8h2M52 8h1M31 9h1M36 9h1M38 9h1M42 9h3M51 9h1M25 10h1M31 10h1M37 10h1M50 10h7M25 11h2M29 11h2M55 11h1M25 12h1M27 12h2M53 12h2M51 13h2M49 14h2M56 14h5M48 15h1M52 15h4M59 15h1M48 16h6M57 16h1M51 17h5M49 18h16M51 19h3M62 19h2M52 20h4M60 20h2M50 21h5M58 21h2M49 22h4M56 22h2M50 23h6M44 24h10M46 25h6M48 26h7M49 27h9M43 28h17M42 29h2M48 29h3M57 29h2M40 30h2M53 30h4M18 31h1M38 31h2M52 31h1M17 32h3M37 32h1M46 32h8M17 33h2M38 33h3M47 33h1M41 34h3M44 35h2M46 36h2M48 37h3" />
<path stroke="#ff6200" d="M55 4h1M41 7h1M40 8h2M32 9h1M35 9h1M39 9h3M45 9h1M35 10h2M38 10h2M41 10h3M31 11h1M35 11h4M41 11h1M26 12h1M29 12h2M35 12h3M34 13h3M35 14h1M56 15h3M47 16h1M54 16h3M50 17h1M48 18h1M50 19h1M54 19h8M51 20h1M56 20h4M47 21h3M55 21h3M48 22h1M53 22h3M49 23h1M42 24h2M45 25h1M47 26h1M47 27h2M18 28h1M44 29h4M51 29h6M42 30h11M40 31h12M38 32h8M41 33h6M44 34h4M46 35h3M48 36h2" />
<path stroke="#ffde00" d="M53 5h2M34 6h1M51 6h3M34 7h1M49 7h4M33 8h2M48 8h4M33 9h2M47 9h4M32 10h3M40 10h1M45 10h5M32 11h3M39 11h2M43 11h12M31 12h3M38 12h15M32 13h2M37 13h14M36 14h13M37 15h11M39 16h8M40 17h10M41 18h7M44 19h5M45 20h6M45 21h2M44 22h4M45 23h4M43 25h1M44 26h2M43 27h4" />
<path stroke="#ff9c00" d="M47 8h1M46 9h1M44 10h1M42 11h1M34 12h1M49 19h1M44 25h1M46 26h1M18 27h1" />
<path stroke="#415a94" d="M25 13h7M22 14h3M32 14h1M14 15h1M20 15h2M32 15h3M14 16h2M18 16h2M31 16h6M12 17h1M14 17h2M25 17h1M29 17h10M12 18h1M14 18h1M16 18h4M22 18h1M24 18h2M27 18h13M12 19h1M15 19h5M23 19h2M26 19h15M12 20h1M14 20h7M22 20h2M25 20h18M12 21h1M16 21h7M24 21h20M12 22h1M17 22h26M11 23h1M17 23h4M28 23h16M11 24h1M16 24h3M31 24h11M15 25h2M33 25h10M10 26h1M14 26h1M34 26h10M10 27h1M13 27h1M35 27h8M10 28h3M36 28h7M10 29h2M37 29h5M38 30h2M48 33h3M48 34h3M43 35h1M49 35h3M44 36h2M50 36h2M44 37h4M51 37h2M45 38h8M46 39h8M47 40h7M48 41h6M50 42h5M52 43h3M54 44h1" />
<path stroke="#08205a" d="M14 14h1M33 14h2M13 15h1M15 15h1M35 15h2M13 16h1M16 16h1M25 16h2M37 16h2M16 17h2M23 17h2M26 17h1M39 17h1M15 18h1M21 18h1M26 18h1M40 18h1M14 19h1M20 19h1M25 19h1M41 19h3M13 20h1M24 20h1M43 20h2M23 21h1M44 21h1M43 22h1M44 23h1M17 28h1M10 30h1M10 31h1M52 36h1M54 41h1M55 44h1M56 47h1M57 50h1M58 53h1M59 54h1M65 66h1M65 69h1" />
<path stroke="#4183a4" d="M25 14h7M22 15h10M20 16h5M27 16h4M13 17h1M18 17h5M27 17h2M13 18h1M20 18h1M23 18h1M13 19h1M21 19h2M21 20h1M13 21h3M13 22h4M12 23h5M12 24h4M11 25h4M11 26h3M11 27h2" />
<path stroke="#a48b4a" d="M21 23h1M27 23h1M30 24h1M32 25h1M20 27h1M16 28h1M21 29h1M37 30h1M12 31h1M25 35h2M23 36h4M21 37h7M35 37h1M17 38h2M21 38h7M35 38h1M15 39h2M21 39h7M34 39h1M45 39h1M14 40h1M20 40h4M19 41h2M29 41h1M46 41h1M19 42h1M47 43h1M48 45h1M49 47h1M50 49h1M30 52h1M51 52h1M26 53h1M30 53h1M25 54h1M24 55h1M24 56h1M48 56h1M23 57h1M50 57h1M23 58h1M51 60h1M22 61h1M52 61h1M57 65h1M34 66h3M23 67h1M29 67h11M58 67h1M24 68h13M24 69h11M59 69h1M26 70h7M25 71h6M27 72h3M24 73h1M23 74h1" />
<path stroke="#ffee94" d="M22 23h5M19 24h11M17 25h2M21 25h11M15 26h3M21 26h13M14 27h3M21 27h14M13 28h3M20 28h16M12 29h9M22 29h15M11 30h6M21 30h16M11 31h1M13 31h2M21 31h3M26 31h12M12 32h2M21 32h2M28 32h9M21 33h1M29 33h9M29 34h12M29 35h14M29 36h15M29 37h6M36 37h8M19 38h2M29 38h6M36 38h8M17 39h3M29 39h5M35 39h9M15 40h4M29 40h5M35 40h9M15 41h1M30 41h3M34 41h9M30 42h2M33 42h10M32 43h10M26 44h1M30 44h11M23 45h1M25 45h15M23 46h15M24 47h11M25 48h6M35 48h5M31 49h12M31 50h14M29 51h1M31 51h16M28 52h2M31 52h18M27 53h3M31 53h19M26 54h25M25 55h26M25 56h23M24 57h26M24 58h28M23 59h30M23 60h28M23 61h29M22 62h32M22 63h34M22 64h35M22 65h32M55 65h1M23 66h10M40 66h13M54 66h1M56 66h1M24 67h4M43 67h11M55 67h1M45 68h7M54 68h1M24 72h1M22 73h2M25 73h2M21 74h2M24 74h1" />
<path stroke="#6a5229" d="M19 25h1M18 26h1M20 26h1M17 27h1M17 30h1M15 31h2M11 32h1M14 32h1M20 32h1M25 32h3M19 33h1M26 33h1M28 33h1M17 34h1M19 34h1M26 34h1M24 35h1M27 35h1M17 36h1M21 36h2M27 36h1M19 37h2M28 37h1M28 38h1M28 39h1M24 40h1M28 40h1M34 40h1M44 40h1M14 41h1M18 41h1M21 41h1M33 41h1M43 41h1M15 42h1M18 42h1M29 42h1M43 42h1M25 43h1M29 43h1M31 43h1M22 44h2M25 44h1M27 44h1M22 45h1M22 46h1M38 46h1M23 47h1M35 47h1M24 48h1M31 48h1M29 50h2M28 51h1M30 51h1M27 52h1M22 59h1M22 60h1M21 62h1M21 63h1M21 64h1M21 65h1M22 66h1M37 66h3M22 67h1M37 68h1M44 68h1M35 69h1M46 69h1M25 70h1M33 70h1M48 70h1M31 71h1M50 71h1M23 72h1M52 72h1M21 73h1M54 73h1M20 74h1M55 74h1M61 74h1M63 74h1M56 75h1M59 75h1M57 76h1M60 76h1" />
<path stroke="#101010" d="M20 25h1M18 30h3M17 31h1M19 31h2M24 31h2M16 32h1M23 32h1M12 33h2M16 33h1M22 33h1M51 33h1M15 34h1M21 34h1M25 34h1M51 34h1M16 35h1M20 35h1M23 35h1M52 35h1M18 36h2M53 37h1M44 38h1M53 38h1M44 39h1M54 39h1M25 40h3M54 40h1M16 41h2M22 41h2M16 42h1M20 42h1M32 42h1M55 42h1M18 43h2M26 43h1M30 43h1M42 43h1M55 43h1M28 44h2M41 44h1M24 45h1M40 45h1M56 45h1M39 46h1M56 46h1M36 47h2M23 48h1M32 48h3M57 48h1M25 49h6M57 49h1M58 51h1M58 52h1M59 55h1M59 56h1M60 57h1M61 58h1M62 59h2M64 60h4M66 61h1M62 62h2M65 62h1M64 63h2M66 64h1M65 65h3M40 67h3M66 67h1M23 68h1M38 68h2M43 68h1M67 68h1M23 69h1M36 69h1M45 69h1M62 69h1M66 69h3M24 70h1M34 70h1M47 70h1M60 70h1M62 70h2M65 70h1M24 71h1M32 71h1M49 71h1M60 71h1M62 71h1M64 71h2M22 72h1M30 72h1M51 72h1M61 72h2M65 72h1M27 73h2M53 73h1M62 73h1M25 74h2M21 75h4M62 75h1M64 75h1M59 76h1M62 76h3M58 77h2M61 77h2" />
<path stroke="#ffffff" d="M19 26h1M19 27h1M15 32h1M16 34h1M18 34h1" />
<path stroke="#d5c573" d="M19 28h1M20 33h1M27 33h1M20 34h1M27 34h2M17 35h3M28 35h1M28 36h1M20 39h1M19 40h1M45 40h1M44 41h2M44 42h3M43 43h4M42 44h6M41 45h7M40 46h9M38 47h11M40 48h10M43 49h7M45 50h6M47 51h4M49 52h2M50 53h2M51 54h2M51 55h1M54 65h1M56 65h1M33 66h1M53 66h1M55 66h1M57 66h1M28 67h1M54 67h1M56 67h2M52 68h2M55 68h4M47 69h12M49 70h11M51 71h9M25 72h2M53 72h8M55 73h7M56 74h5M62 74h1M57 75h2M60 75h2M63 75h1M58 76h1M61 76h1" />
<path stroke="#20416a" d="M46 40h1M47 41h1M47 42h3M48 43h4M48 44h6M49 45h7M49 46h7M50 47h6M50 48h7M51 49h6M51 50h6M51 51h7M52 52h6M52 53h6M53 54h6M52 55h7M49 56h10M51 57h9M52 58h9M53 59h9M52 60h12M53 61h13M54 62h8M64 62h1M56 63h8M57 64h9M58 65h7M58 66h7M59 67h7M59 68h8M60 69h2M63 69h2M61 70h1M64 70h1M61 71h1" />
</svg>