<svg xmlns="http://www.w3.org/2000/svg" viewBox="0 -0.5 80 80" shape-rendering="crispEdges">
<metadata>Made with Pixels to Svg https://codepen.io/shshaw/pen/XbxvNj</metadata>
<path stroke="#9c1020" d="M42 12h2M41 13h1M40 15h1M34 17h2M39 17h1M46 17h1M34 18h1M36 18h1M34 19h1M38 19h1M43 19h1M34 20h1M43 20h1M34 21h1M34 22h1M47 22h1M34 23h1M34 24h1M39 27h1M38 28h1M40 28h1M52 32h1M19 48h2M19 49h1M21 49h1M19 50h1M22 50h1M19 51h1M22 51h1M19 52h1M20 53h1" />
<path stroke="#ffac5a" d="M42 13h1M42 14h1M41 15h1M41 16h1M40 17h1M35 18h1M40 18h1M35 19h1M39 19h1M35 20h1M39 20h1M35 21h1M35 22h1M35 23h1M35 24h1M20 49h1M20 50h1M20 51h1M20 52h1" />
<path stroke="#101010" d="M43 13h1M43 14h1M43 15h1M43 16h1M43 17h1M47 17h1M43 18h1M45 18h1M47 18h1M37 19h1M44 19h1M47 19h1M38 20h1M47 20h1M47 21h1M46 23h1M45 24h2M41 25h2M46 25h1M39 26h1M43 26h1M47 26h1M38 27h1M43 27h2M39 28h1M43 28h2M48 28h1M41 29h3M49 30h2M27 31h2M35 31h1M40 31h1M42 31h1M49 31h1M51 31h2M28 32h1M30 32h2M33 32h1M35 32h1M37 32h2M43 32h2M49 32h1M53 32h1M29 33h1M32 33h1M34 33h1M45 33h1M54 33h1M31 34h1M38 34h1M45 34h1M50 34h1M53 34h1M32 35h1M39 35h1M45 35h1M50 35h1M52 35h1M33 36h1M40 36h1M45 36h1M50 36h1M53 36h1M33 37h1M40 37h1M45 37h1M54 37h1M33 38h1M51 38h1M53 38h1M33 39h1M39 39h1M44 39h1M51 39h2M51 40h4M59 40h2M34 41h1M38 41h1M43 41h1M51 41h1M56 41h2M61 41h1M32 42h1M35 42h3M42 42h1M60 42h1M33 43h1M41 43h1M52 43h1M60 43h1M35 44h5M52 44h1M61 44h1M24 45h1M60 45h2M23 46h1M53 46h1M59 46h1M24 47h1M53 47h1M56 47h2M23 48h1M53 48h2M23 49h2M53 49h1M25 50h2M32 50h2M53 50h1M28 51h4M53 51h2M23 52h1M31 52h1M53 52h2M23 53h1M53 53h1M55 53h1M20 54h2M23 54h1M53 54h1M56 55h1M52 56h1M56 56h1M19 57h1M52 57h1M56 57h1M20 58h2M56 58h1M22 59h2M37 59h1M51 59h1M56 59h1M24 60h2M27 60h1M37 60h1M50 60h1M26 61h2M49 61h1M55 61h1M28 62h1M47 62h2M29 63h1M36 63h1M44 63h3M55 63h2M29 64h1M35 64h8M47 64h2M57 64h1M28 65h1M35 65h1M49 65h2M57 65h1M27 66h1M35 66h1M51 66h6M27 67h1M33 67h2M28 68h5" />
<path stroke="#ff4a4a" d="M41 14h1M42 15h1M40 16h1M42 16h1M41 17h2M39 18h1M41 18h2M36 19h1M40 19h3M45 19h1M36 20h2M40 20h3M44 20h1M36 21h9M36 22h8M36 23h3M36 24h1M21 50h1M21 51h1M21 52h2M21 53h2M22 54h1" />
<path stroke="#d51810" d="M46 18h1M46 19h1M45 20h2M45 21h2M44 22h3M44 23h2M35 25h1M50 31h1M50 32h2M50 33h4M51 34h2M51 35h1M51 36h2M51 37h3M52 38h1" />
<path stroke="#20627b" d="M39 23h5M33 24h1M37 24h2M44 24h1M34 25h1M36 25h1M43 25h1M44 26h1M31 27h1M47 27h1M27 29h1M44 29h1M48 29h1M27 30h1M29 30h4M43 30h1M45 30h1M36 31h1M45 31h1M45 32h1M49 33h1M50 37h1M58 40h1M51 42h1M30 43h2M24 44h1M27 44h3M23 45h1M52 45h1M27 46h1M58 46h1M26 47h1M55 47h1M27 48h1M27 50h1M31 50h1M27 52h1M24 53h2M30 53h1M19 54h1M29 54h1M55 54h1M18 55h1M22 55h2M28 55h1M18 56h1M28 56h1M27 57h1M27 58h1M27 59h1M55 60h1M36 62h1M54 62h1M30 63h1M47 63h1M52 64h2M55 64h2M30 65h1M32 65h1M54 65h1M56 65h1M29 66h1M31 66h1M29 67h1M31 67h1" />
<path stroke="#208bbd" d="M31 24h2M29 25h1M28 26h1M40 26h1M42 26h1M28 27h1M32 27h1M27 28h1M29 28h1M31 28h1M39 29h2M33 30h2M46 36h1M46 37h1M45 38h2M45 39h2M44 40h2M44 41h2M52 41h4M58 41h3M43 42h2M52 42h8M24 43h2M32 43h1M42 43h2M53 43h7M26 44h1M40 44h2M53 44h8M53 45h7M26 46h1M28 46h1M52 46h1M54 46h4M54 47h1M35 48h1M34 49h1M51 50h1M50 51h2M28 52h1M50 52h2M26 53h1M31 53h1M49 53h3M54 53h1M49 54h3M54 54h1M47 55h1M50 55h1M53 55h3M45 56h3M53 56h3M20 57h1M44 57h4M53 57h3M22 58h2M44 58h4M52 58h4M24 59h3M36 59h1M44 59h4M52 59h4M26 60h1M28 60h1M34 60h3M45 60h2M51 60h4M28 61h9M50 61h5M29 62h7M49 62h5M31 63h5M48 63h7M30 64h5M49 64h3M54 64h1M29 65h1M31 65h1M33 65h2M51 65h2M33 66h2M28 67h1M30 67h1M32 67h1" />
<path stroke="#6acdcd" d="M39 24h5M33 25h1M37 25h4M44 25h2M32 26h7M45 26h2M29 27h1M33 27h5M45 27h2M28 28h1M30 28h1M32 28h6M45 28h3M28 29h11M45 29h3M28 30h1M35 30h8M46 30h3M37 31h3M46 31h3M46 32h3M46 33h3M46 34h4M46 35h4M47 36h3M47 37h3M47 38h4M47 39h4M46 40h5M46 41h5M45 42h6M44 43h8M30 44h5M42 44h10M27 45h9M41 45h11M29 46h7M42 46h10M28 47h8M44 47h8M24 48h3M28 48h7M36 48h5M47 48h4M25 49h9M35 49h7M50 49h1M28 50h3M34 50h8M50 50h1M36 51h7M49 51h1M29 52h2M37 52h6M49 52h1M27 53h3M32 53h2M38 53h5M24 54h5M30 54h6M39 54h4M19 55h3M24 55h4M29 55h7M40 55h2M19 56h9M29 56h8M21 57h6M28 57h9M24 58h3M28 58h9M28 59h8M29 60h5M53 65h1M55 65h1M28 66h1M30 66h1M32 66h1" />
<path stroke="#8beee6" d="M30 25h3M29 26h3M30 27h1M29 31h1M32 34h2M33 35h1M25 44h1M25 45h2M24 46h2M25 47h1M27 47h1" />
<path stroke="#ffffff" d="M41 26h1M41 27h2M41 28h2M44 30h1M33 31h2M43 31h2M29 32h1M34 32h1M39 34h2M40 35h1" />
<path stroke="#e64120" d="M40 27h1M37 35h2M36 36h4M36 37h4M35 38h5M35 39h4M35 40h4M36 41h2" />
<path stroke="#7b0000" d="M30 31h3M32 32h1M36 32h1M39 32h1M33 33h1M35 33h5M34 34h4M34 35h3M34 36h2M34 37h2M34 38h1M34 39h1M34 40h1M35 41h1" />
<path stroke="#8b6200" d="M41 31h1M40 32h1M40 33h1M41 34h1M41 35h1M32 36h1M31 38h1M40 38h1M44 38h1M31 39h1M31 40h1M33 40h1M39 40h1M43 40h1M34 43h1M40 43h1M36 45h1M36 46h1M52 55h1M37 56h1M37 57h1M37 58h1M51 58h1M37 61h1M43 63h1" />
<path stroke="#eeb44a" d="M41 32h2M41 33h4M42 34h3M42 35h3M41 36h4M32 37h1M41 37h4M41 38h3M40 39h4M40 40h3M32 41h1M40 41h3M39 42h3M38 43h2M52 47h1M51 48h2M51 49h2M52 50h1M52 51h1M32 52h2M52 52h1M34 53h2M52 53h1M36 54h1M48 54h1M52 54h1M36 55h1M46 55h1M48 55h2M51 55h1M48 56h4M43 57h1M48 57h4M41 58h3M48 58h3M38 59h6M48 59h3M38 60h7M47 60h3M38 61h11M37 62h10M37 63h6" />
<path stroke="#ffff62" d="M32 38h1M32 39h1M32 40h1M33 41h1M39 41h1M33 42h2M38 42h1M35 43h3M37 45h4M37 46h5M36 47h8M41 48h6M42 49h8M42 50h8M32 51h4M43 51h6M34 52h3M43 52h6M36 53h2M43 53h6M37 54h2M43 54h5M37 55h3M42 55h4M38 56h7M38 57h5M38 58h3" />
</svg>