<svg xmlns="http://www.w3.org/2000/svg" viewBox="0 -0.5 80 80" shape-rendering="crispEdges">
<metadata>Made with Pixels to Svg https://codepen.io/shshaw/pen/XbxvNj</metadata>
<path stroke="#734a31" d="M34 21h2M33 22h1M35 22h1M37 22h1M29 23h1M35 23h1M37 23h1M28 24h1M30 24h1M37 24h2M28 25h1M35 25h1M39 25h1M27 26h1M30 26h1M33 26h1M27 27h1M39 27h1M33 28h1M35 28h2M29 29h1M31 29h1M38 29h1M30 30h1M40 32h1M38 33h1M27 34h1M37 34h1M26 35h1M36 35h1M40 35h1M43 35h1M26 36h1M44 36h2M46 37h1M25 38h1M49 38h2M25 39h1M37 39h1M37 40h1M52 40h1M24 41h1M47 41h1M49 41h3M24 42h1M45 42h2M51 43h1M38 44h1M44 44h2M39 45h1M42 45h1M50 45h1M43 46h1M49 46h1M50 47h1M48 48h1M41 49h1M49 49h1M38 50h1M40 50h1" />
<path stroke="#cd835a" d="M34 22h1M33 23h2M36 23h1M32 24h5M31 25h4M32 26h1M36 36h1M42 36h2M26 37h1M36 37h1M39 37h7M35 38h2M39 38h8M36 39h1M38 39h6M45 39h1M25 40h1M38 40h7M46 40h1M39 41h3M43 41h1M40 42h3M49 43h1M37 44h1M48 45h1M28 46h1M38 46h1M28 47h1M34 47h1M37 47h4M43 47h1M47 47h1M29 48h1M33 48h10M45 48h1M31 49h10M47 49h1M50 49h1M33 50h5" />
<path stroke="#a4625a" d="M36 22h1M32 23h1M31 24h1M31 26h1M30 27h2M30 28h1M37 29h1M38 30h2M32 31h1M39 31h1M33 32h1M39 32h1M31 33h1M39 33h2M38 34h3M37 35h3M37 36h5M37 37h2M37 38h2M51 38h2M44 39h1M46 39h2M49 39h6M45 40h1M47 40h2M50 40h2M38 41h1M42 41h1M44 41h3M52 41h2M38 42h2M43 42h2M50 42h5M36 43h1M38 43h8M28 44h1M32 44h1M36 44h1M39 44h5M25 45h1M33 45h1M37 45h1M40 45h2M43 45h1M27 46h1M29 46h1M33 46h1M41 46h2M31 47h1M30 48h1" />
<path stroke="#e6bd62" d="M29 24h1M29 25h1M29 26h1M37 26h1M32 27h1M38 27h1M31 28h2M37 28h4M30 29h1M31 31h1M32 32h1M32 33h3M28 34h1M31 34h3M35 34h1M29 35h5M30 36h3M35 37h1M35 39h1M35 42h1M48 42h1M28 43h1M32 43h1M46 43h1M25 44h1M29 45h1M32 45h1M36 45h1M44 45h1M26 46h1M30 46h3M35 46h2M44 46h2M50 46h1M30 47h1M32 47h1M44 47h3M46 48h2M49 48h2M48 49h1" />
<path stroke="#101010" d="M30 25h1M38 26h1M29 27h1M40 27h1M27 28h1M29 28h1M41 28h1M32 29h1M35 29h2M39 29h2M31 30h1M33 30h1M35 30h3M40 30h1M33 31h1M35 31h4M40 31h1M26 32h1M28 32h3M34 32h5M26 33h2M35 33h3M41 33h1M29 34h2M36 34h1M41 34h1M41 35h2M47 38h1M48 39h1M49 40h1M37 41h1M48 41h1M37 42h1M49 42h1M24 43h1M37 43h1M50 43h1M24 44h1M50 44h1M28 45h1M38 45h1M25 46h1M34 46h1M37 46h1M39 46h2M25 47h3M29 47h1M33 47h1M35 47h2M41 47h1M28 48h1M31 48h2M29 49h2M42 49h1M30 50h3M39 50h1M42 50h1M29 51h1M32 51h7M40 51h1M27 52h1M34 52h1M40 52h1M43 52h1M36 53h1M40 53h1M25 54h1M33 54h4M39 54h1M25 55h3M31 55h2M39 55h1M45 55h1M27 56h1M29 56h2M42 56h1M27 57h2M38 57h1M41 57h3M46 57h1M38 58h1M40 58h1M44 58h1M46 58h1M39 59h1M45 59h1" />
<path stroke="#ffee9c" d="M36 25h3M28 26h1M34 26h3M28 27h1M33 27h5M28 28h1M34 34h1M27 35h2M34 35h2M27 36h3M33 36h3M27 37h8M26 38h9M26 39h9M26 40h11M25 41h12M25 42h10M36 42h1M47 42h1M25 43h3M29 43h3M33 43h3M47 43h2M26 44h2M29 44h3M33 44h3M46 44h4M26 45h2M30 45h2M34 45h2M45 45h3M49 45h1M46 46h3M48 47h2" />
<path stroke="#838383" d="M34 28h1M33 29h1M34 31h1M35 52h1M26 53h1M28 53h1M34 53h1M28 54h1M38 56h1M46 56h1" />
<path stroke="#bd2920" d="M27 29h1M26 30h2M26 31h1M29 31h2M31 32h1M28 33h3M41 50h1M30 51h2M41 51h2M28 52h1M31 52h3M41 52h2M29 53h5M44 53h1M31 54h2M45 54h1M40 55h2M43 55h2M41 56h1M43 56h1" />
<path stroke="#ee6241" d="M28 29h1M28 30h2M28 31h1M27 32h1M29 52h2M41 53h3M40 54h5M42 55h1" />
<path stroke="#bdbdbd" d="M34 29h1M32 30h1M27 53h1M35 53h1M26 54h2M29 54h2M30 55h1M28 56h1M40 57h1M44 57h1" />
<path stroke="#ffffff" d="M34 30h1M28 55h2M39 56h2M44 56h2M39 57h1M45 57h1M39 58h1M45 58h1" />
<path stroke="#ffac73" d="M27 31h1" />
<path stroke="#412918" d="M51 37h2M53 38h2M55 39h1M53 40h3M54 41h1M55 42h1M52 43h3M51 44h1M51 46h1M42 47h1M51 47h1M43 48h2M51 48h1M45 49h2M51 49h1M47 50h4" />
</svg>