<svg xmlns="http://www.w3.org/2000/svg" viewBox="0 -0.5 80 80" shape-rendering="crispEdges">
<metadata>Made with Pixels to Svg https://codepen.io/shshaw/pen/XbxvNj</metadata>
<path stroke="#000000" d="M32 15h1M31 16h1M33 16h1M31 17h1M33 17h1M31 18h1M34 18h1M60 18h2M31 19h1M34 19h1M59 19h1M61 19h1M35 20h1M57 20h2M61 20h1M35 21h1M56 21h1M61 21h1M35 22h1M55 22h1M60 22h1M36 23h1M60 23h1M36 24h1M59 24h1M59 25h1M32 26h1M58 26h1M32 27h1M58 27h1M33 28h1M50 28h1M57 28h1M33 29h1M37 29h1M50 29h1M56 29h1M37 30h1M49 30h1M55 30h1M37 31h1M49 31h1M54 31h1M37 32h1M48 32h1M53 32h1M34 33h1M38 33h1M46 33h2M52 33h1M54 33h2M33 34h1M36 34h3M45 34h1M51 34h1M54 34h3M33 35h1M45 35h3M50 35h3M55 35h2M24 36h3M32 36h1M44 36h10M55 36h3M62 36h1M22 37h2M27 37h1M32 37h1M46 37h9M56 37h2M61 37h1M20 38h2M48 38h8M59 38h1M19 39h1M26 39h1M29 39h1M50 39h2M53 39h1M56 39h1M59 39h1M18 40h1M27 40h1M32 40h4M51 40h1M53 40h1M57 40h1M17 41h1M21 41h2M24 41h1M30 41h2M37 41h2M50 41h1M53 41h1M58 41h2M17 42h1M20 42h1M23 42h1M25 42h1M38 42h3M49 42h1M53 42h2M60 42h1M16 43h1M19 43h1M23 43h1M28 43h1M39 43h1M41 43h1M48 43h2M52 43h3M16 44h1M18 44h1M24 44h1M39 44h2M42 44h1M46 44h2M50 44h2M53 44h3M17 45h1M22 45h7M40 45h4M45 45h1M47 45h1M51 45h1M54 45h3M16 46h1M21 46h1M40 46h5M47 46h1M52 46h1M54 46h4M65 46h1M15 47h1M22 47h2M41 47h2M46 47h1M48 47h1M53 47h6M66 47h1M14 48h1M20 48h1M24 48h2M41 48h1M45 48h1M48 48h1M54 48h3M59 48h2M67 48h1M14 49h1M26 49h2M41 49h1M44 49h1M49 49h1M55 49h1M61 49h2M13 50h1M33 50h1M37 50h1M41 50h1M43 50h2M49 50h1M63 50h2M68 50h1M13 51h1M24 51h1M32 51h1M37 51h1M41 51h3M49 51h1M65 51h1M13 52h1M17 52h1M24 52h1M26 52h1M35 52h1M37 52h1M40 52h4M50 52h1M66 52h1M69 52h1M12 53h1M16 53h1M24 53h1M26 53h1M33 53h3M37 53h1M40 53h2M50 53h1M67 53h1M69 53h1M12 54h1M15 54h1M25 54h1M33 54h2M36 54h1M39 54h1M51 54h1M67 54h1M11 55h1M14 55h1M26 55h1M32 55h1M38 55h1M51 55h1M68 55h1M11 56h1M13 56h1M24 56h1M26 56h1M52 56h1M11 57h1M13 57h1M24 57h1M36 57h1M53 57h2M11 58h2M27 58h1M32 58h1M36 58h1M55 58h1M25 59h1M27 59h1M36 59h1M26 60h2M34 60h1M56 60h1M31 61h3M57 61h1M59 61h1M57 62h1M59 62h1M58 63h2" />
<path stroke="#ffde41" d="M32 16h1M32 17h1M32 18h2M32 19h2M60 19h1M32 20h3M59 20h1M32 21h3M57 21h3M32 22h3M56 22h3M33 23h1M55 23h4M54 24h4M56 25h1M35 27h2M34 28h3M51 28h3M34 29h3M51 29h2M35 30h2M50 30h2M36 31h1M50 31h1M36 32h1M49 32h1M46 34h2M48 35h2M61 35h2M52 40h1M51 41h2M24 42h1M51 42h1M25 43h1M59 44h3M46 45h1M59 45h5M17 46h2M45 46h2M60 46h5M16 47h3M44 47h1M62 47h2M16 48h2M43 48h1M15 49h2M51 49h2M52 50h2M66 50h1M52 51h3M66 51h2M53 52h3M67 52h2M13 53h1M54 53h1M68 53h1M13 54h1M68 54h1M12 55h1M58 59h1M58 60h1" />
<path stroke="#6a5218" d="M31 20h1M31 21h1M31 22h1M32 23h1M54 23h1M32 24h1M53 24h1M37 27h1M51 27h1M37 28h1M34 30h1M34 31h1M35 32h1M52 32h1M35 33h1M48 33h1M51 33h1M58 33h2M50 34h1M60 34h3M63 35h1M28 37h1M60 37h1M28 38h1M60 38h1M52 39h1M29 40h2M23 41h1M28 41h1M19 42h1M29 42h1M52 42h1M26 43h1M51 43h1M61 43h2M63 44h1M64 45h1M43 47h1M42 48h1M53 48h1M19 49h1M43 49h1M54 49h1M19 50h1M42 50h1M55 50h1M18 51h1M55 51h1M68 51h1M56 52h1M56 53h1M69 54h1M69 55h1M59 59h1M59 60h1" />
<path stroke="#bda418" d="M60 20h1M60 21h1M59 22h1M59 23h1M58 24h1M57 25h2M57 26h1M54 28h1M53 29h3M52 30h3M35 31h1M51 31h3M50 32h2M36 33h2M49 33h2M48 34h2M58 34h2M59 35h2M59 36h3M59 37h1M27 38h1M20 39h2M27 39h2M19 40h4M28 40h1M19 41h2M29 41h1M50 42h1M17 43h1M24 43h1M50 43h1M17 44h1M25 44h2M62 44h1M58 45h1M58 46h2M19 47h1M45 47h1M59 47h3M15 48h1M18 48h2M44 48h1M61 48h2M17 49h2M42 49h1M53 49h1M16 50h3M50 50h2M54 50h1M50 51h2M51 52h2M51 53h3M14 54h1M52 54h2M13 55h1M52 55h1M12 56h1M12 57h1M57 59h1M57 60h1M58 61h1M58 62h1" />
<path stroke="#bd83e6" d="M34 23h1M33 24h2M33 25h2M53 25h3M34 26h1M53 26h3M52 27h3M25 37h1M24 38h2M23 39h1M54 39h2M54 40h3M56 41h2M21 42h2M56 42h4M20 43h3M57 43h4M19 44h2M48 44h2M18 45h1M48 45h3M49 46h3M50 47h2M64 47h2M51 48h2M63 48h4M65 49h2M15 50h1M67 50h1M14 51h1M35 51h1M36 52h1M36 53h1M55 53h1M54 54h3M55 55h2M56 56h2M57 57h1M57 58h1" />
<path stroke="#9c5ac5" d="M35 23h1M35 24h1M35 25h1M33 26h1M35 26h1M52 26h1M56 26h1M33 27h2M55 27h3M55 28h2M24 37h1M26 37h1M23 38h1M22 39h1M24 39h1M18 41h1M54 41h2M18 42h1M55 42h1M18 43h1M56 43h1M21 44h1M56 44h3M19 45h2M57 45h1M19 46h2M48 46h1M49 47h1M52 47h1M49 48h2M50 49h1M63 49h2M14 50h1M25 50h1M35 50h2M65 50h1M15 51h3M25 51h1M36 51h1M14 52h2M25 52h1M14 53h1M25 53h1M32 53h1M32 54h1M35 54h1M53 55h2M53 56h3M55 57h2M56 58h1M58 58h1" />
<path stroke="#62319c" d="M32 25h1M36 25h1M52 25h1M36 26h1M51 26h1M22 38h1M26 38h1M25 39h1M23 40h2M55 43h1M22 44h1M16 45h1M20 47h1M25 49h1M67 49h1M24 50h1M34 50h1M16 52h1M32 52h1M15 53h1M26 54h1M57 54h1M57 55h1M58 56h1M58 57h1M59 58h1M56 59h1" />
<path stroke="#7b1800" d="M42 28h8M40 29h1M38 30h1M55 31h1M54 32h1M56 32h1M57 33h1M57 34h1M57 35h2M58 36h1M58 37h1M31 38h1M58 38h1M31 39h1M49 39h1M57 39h2M31 40h1M36 40h1M50 40h1M58 40h2M36 41h1M27 44h1M52 44h1M29 45h1M39 45h1M52 45h2M30 46h1M53 46h1M31 47h1M40 47h1M31 48h1M40 48h1M30 49h1M35 49h2M40 49h1M28 50h2M40 50h1M40 51h1M44 51h1M48 51h1M44 52h4M31 53h1M39 53h1M31 54h1M31 55h1M33 55h2M34 56h2M37 56h1M27 57h1M32 57h2M28 58h1M31 58h1M29 59h2" />
<path stroke="#bd3939" d="M41 29h1M39 30h1M55 32h1M53 33h1M56 33h1M52 34h2M53 35h2M54 36h1M55 37h1M56 38h2M37 40h1M48 40h2M39 41h1M47 41h3M30 42h1M37 42h1M41 42h1M45 42h4M38 43h1M42 43h6M43 44h3M30 45h1M44 45h1M31 46h1M39 46h1M32 47h1M38 47h2M47 47h1M32 48h2M37 48h3M46 48h2M31 49h4M37 49h3M45 49h4M30 50h3M38 50h2M45 50h4M29 51h3M38 51h2M45 51h3M30 52h2M38 52h2M30 53h1M38 53h1M30 54h1M37 54h2M27 55h1M29 55h2M35 55h3M27 56h7M36 56h1M28 57h4M29 58h2" />
<path stroke="#ff5241" d="M42 29h8M45 30h4M46 31h3M47 32h1M43 37h3M32 38h1M42 38h6M32 39h2M40 39h9M38 40h10M32 41h1M35 41h1M40 41h7M35 42h2M42 42h3M34 43h4M28 44h1M34 44h5M31 45h1M33 45h6M32 46h7M33 47h5M34 48h3M27 50h1M29 52h1M28 53h2M27 54h3M28 55h1" />
<path stroke="#ff8b73" d="M40 30h5M38 31h8M46 32h1M36 36h6M33 37h10M33 38h9M34 39h6M33 41h2M31 42h4M29 43h5M29 44h5M32 45h1M27 51h2M27 52h2M27 53h1" />
<path stroke="#5a5a5a" d="M38 32h8M39 33h7M34 34h2M39 34h6M34 35h11M33 36h3M42 36h2M40 43h1M41 44h1M21 45h1M25 55h1M24 58h1M32 59h1M35 59h1M31 60h1M35 60h1" />
<path stroke="#ffffff" d="M22 46h6M24 47h6M26 48h3M26 50h1M26 51h1M33 51h2M33 52h2M25 56h1M25 57h1M34 57h1M25 58h2M34 58h1M26 59h1M33 59h1M32 60h1" />
<path stroke="#bdbdbd" d="M28 46h2M30 47h1M29 48h2M28 49h2M26 57h1M35 57h1M33 58h1M35 58h1M34 59h1M33 60h1" />
</svg>