<svg xmlns="http://www.w3.org/2000/svg" viewBox="0 -0.5 80 80" shape-rendering="crispEdges">
<metadata>Made with Pixels to Svg https://codepen.io/shshaw/pen/XbxvNj</metadata>
<path stroke="#5a73c5" d="M25 18h4M21 19h4M26 20h1M36 22h1M37 23h1M39 26h1M56 26h3M40 27h1M59 27h1M40 28h1M61 28h1M41 29h1M50 29h2M62 29h1M41 30h1M49 30h1M63 30h1M41 31h1M48 31h1M61 31h1M63 31h1M42 32h1M47 32h1M64 32h1M42 33h1M46 33h1M64 33h1M46 34h1M65 34h1M45 35h1M65 35h1M45 36h1M44 37h1M30 38h6M44 38h1M27 39h2M38 39h1M43 39h1M19 40h2M26 40h1M43 40h1M18 41h1M21 41h2M25 41h1M23 42h1M32 42h1M24 43h1M32 43h1M38 43h1M24 44h1M32 44h1M37 44h1M43 44h1M24 45h2M30 45h2M36 45h1M44 45h1M24 46h1M26 46h4M33 46h1M36 46h1M45 46h1M24 47h2M36 47h1M45 47h1M25 48h2M45 48h1M25 49h4M37 49h1M45 49h1M47 49h1M26 50h6M38 50h1M44 50h4M27 51h20M29 52h19M30 53h19M32 54h13M46 54h1M48 54h1M35 55h8" />
<path stroke="#295294" d="M29 18h3M32 19h3M35 20h2M37 21h1M38 22h1M39 23h1M54 26h2M52 27h2M60 27h1M60 29h1M61 30h1M42 34h1M42 35h1M42 36h1M42 37h1M42 38h1M18 42h1M20 44h1M21 45h2M48 50h1M47 51h2M28 52h1M49 52h1M29 54h1M30 55h2M33 55h2M43 55h1M54 55h1M30 56h2M37 56h4M55 56h1M38 58h3M50 58h1M38 59h2M51 59h1" />
<path stroke="#6aa4e6" d="M25 19h7M32 20h3M35 21h2M37 22h1M38 23h1M38 24h1M39 25h1M54 27h3M52 28h2M62 31h1M29 39h2M31 40h1M41 41h2M33 42h1M39 42h6M19 43h1M33 43h5M42 43h4M21 44h1M33 44h4M44 44h2M32 45h4M45 45h2M25 46h1M30 46h3M34 46h2M46 46h1M26 47h7M34 47h2M46 47h2M27 48h10M46 48h2M29 49h8M46 49h1M32 50h6M47 54h1M47 55h3M48 56h1M50 56h1M51 58h1" />
<path stroke="#c59400" d="M18 20h3M16 21h2M14 22h2M13 23h1M12 24h1M11 25h1M20 26h1M19 27h1M18 28h2M17 29h2M11 30h1M15 30h4M12 31h5M63 37h1M65 37h1M62 38h1M66 38h1M62 39h1M66 39h1M30 40h1M61 40h1M67 40h1M61 41h1M67 41h1M60 42h1M39 43h3M60 43h1M68 43h1M38 44h1M59 44h1M68 44h1M42 45h1M59 45h1M68 45h1M44 46h1M59 46h1M68 46h1M59 47h1M68 47h1M39 48h1M42 48h1M59 48h1M67 48h2M44 49h1M60 49h1M66 49h3M39 50h1M43 50h1M61 50h7M61 51h7M63 52h3" />
<path stroke="#ffcd52" d="M21 20h2M18 21h5M16 22h6M14 23h8M13 24h2M17 24h3M13 25h1M18 25h2M12 26h2M18 26h1M12 27h3M17 27h2M12 28h6M13 29h4M64 36h1M64 37h1M63 38h3M63 39h3M28 40h2M62 40h5M27 41h2M62 41h5M26 42h1M30 42h2M61 42h6M25 43h3M31 43h1M61 43h7M26 44h2M29 44h2M39 44h3M60 44h2M64 44h4M27 45h3M40 45h1M60 45h1M65 45h3M37 46h2M43 46h1M60 46h1M65 46h3M37 47h2M43 47h2M60 47h2M64 47h3M38 48h1M41 48h1M61 48h5M39 49h4M62 49h3" />
<path stroke="#94cde6" d="M23 20h3M63 32h1M63 33h1M64 34h1M64 35h1M33 39h3M33 40h3M19 41h2M19 42h2M21 43h1M50 54h1M50 55h3M51 56h4M51 57h4M52 58h2" />
<path stroke="#08295a" d="M27 20h3M31 20h1M23 21h3M32 21h1M34 21h1M39 24h1M40 25h1M38 26h1M40 26h1M41 27h1M41 28h1M50 28h2M54 28h5M42 29h1M49 29h1M52 29h2M59 29h1M42 30h1M48 30h1M50 30h2M42 31h1M47 31h1M49 31h1M43 32h1M48 32h1M62 32h1M43 33h1M62 33h1M43 34h1M41 35h1M43 35h1M46 35h1M41 36h1M43 36h1M46 36h1M41 37h1M36 38h2M41 38h1M39 39h3M25 40h1M24 41h1M24 42h1M18 43h1M46 43h1M19 44h1M46 44h1M23 46h1M47 46h1M23 47h1M48 47h1M48 48h1M24 49h1M48 49h1M25 50h1M26 51h1M27 52h1M28 53h1M30 54h1M29 55h1M44 55h2M53 55h1M32 56h1M36 56h1M41 56h2M37 57h4M55 57h1M37 58h1M49 58h1M54 58h2M40 59h1M52 59h3" />
<path stroke="#000000" d="M30 20h1M33 21h1M35 22h1M36 23h1M37 24h1M38 25h1M39 27h1M39 28h1M40 29h1M19 30h1M40 30h1M18 31h1M40 31h1M14 32h3M41 32h1M46 32h1M41 33h1M47 33h1M41 34h1M45 34h1M47 34h1M44 35h1M44 36h1M43 37h1M45 37h1M43 38h1M45 38h1M42 39h1M44 39h1M41 40h2M44 40h1M29 41h1M43 41h2M27 42h3M45 42h1M23 43h1M28 43h1M30 43h1M23 44h1M23 45h1M38 45h2M41 45h1M47 45h1M40 46h2M40 47h1M42 47h1M24 48h1M60 50h1M60 51h1M68 51h1M48 52h1M61 52h1M67 52h1M29 53h1M49 53h2M63 53h3M31 54h1M45 54h1M51 54h2M32 55h1M46 55h1M29 56h1M35 56h1M47 56h1M30 57h2M48 57h1M37 59h1M38 60h2" />
<path stroke="#836252" d="M22 22h1M11 26h1M10 27h1M20 27h1M10 28h1M10 29h1M11 31h1M17 31h1M12 32h1M63 36h1M65 36h1M26 41h1M30 41h1M29 43h1M28 44h1M42 44h1M39 46h1M41 47h1M40 48h1M43 48h1M62 52h1M66 52h1" />
<path stroke="#522918" d="M23 22h1M22 23h1M21 24h1M21 25h1M21 26h1M20 28h1M19 29h1M13 32h1M63 34h1M63 35h1M69 45h1M69 46h1M69 47h1M69 48h1M59 49h1M69 49h1M68 50h1M62 53h1M66 53h1" />
<path stroke="#ffee83" d="M15 24h2M14 25h4M14 26h4M15 27h2M62 44h2M61 45h4M61 46h4M62 47h2" />
<path stroke="#e6b429" d="M20 24h1M12 25h1M20 25h1M19 26h1M11 27h1M11 28h1M11 29h2M12 30h3M27 40h1M31 41h1M25 42h1M67 42h1M25 44h1M31 44h1M26 45h1M37 45h1M43 45h1M42 46h1M39 47h1M67 47h1M37 48h1M44 48h1M60 48h1M66 48h1M38 49h1M43 49h1M61 49h1M65 49h1M40 50h3" />
<path stroke="#7bbde6" d="M57 27h2M59 28h2M61 29h1M62 30h1M31 39h2M36 39h2M32 40h1M36 40h5M32 41h9M21 42h2M34 42h5M20 43h1M22 43h1M22 44h1M49 54h1M49 56h1M49 57h2" />
<path stroke="#b40000" d="M33 47h1" />
</svg>