<svg xmlns="http://www.w3.org/2000/svg" viewBox="0 -0.5 80 80" shape-rendering="crispEdges">
<metadata>Made with Pixels to Svg https://codepen.io/shshaw/pen/XbxvNj</metadata>
<path stroke="#0862ac" d="M41 11h2M40 12h1M43 12h1M44 13h1M39 14h1M44 14h1M39 15h1M45 15h1M39 16h1M45 16h1M39 17h1M46 17h1M24 18h4M39 18h1M46 18h1M21 19h3M28 19h2M40 19h1M46 19h1M20 20h1M19 21h1M28 21h1M30 21h1M40 27h1M34 28h5M40 28h1M44 31h1M28 33h1M37 33h2M30 34h1M36 34h1M39 34h1M46 34h1M30 35h1M36 35h1M39 35h1M29 36h1M32 36h1M37 36h2M47 36h1M30 37h1M35 37h1M48 38h1M49 41h1M21 44h1M49 44h1M21 45h1M51 45h1M14 46h1M20 46h1M18 47h3M47 47h1M14 48h7M15 49h4M50 49h1M60 57h1M65 57h1M61 58h4M27 61h3M42 61h2M24 62h2M32 62h1M40 62h1M44 62h1M23 63h1M45 63h1M46 64h1M47 65h1" />
<path stroke="#73b4f6" d="M41 12h2M41 13h3M40 14h4M40 15h1M43 15h2M40 16h1M44 16h1M44 17h2M45 18h1M45 19h1M22 20h5M20 21h8M20 22h6M21 23h2M32 31h4M30 32h6M31 33h4M31 45h3M38 45h1M41 45h1M30 46h1M34 46h1M43 47h1M46 47h1M52 47h4M38 48h1M41 48h1M52 48h5M30 49h1M34 49h1M53 49h4M31 50h3M62 54h2M62 55h2M25 63h2M44 65h2" />
<path stroke="#3183c5" d="M40 13h1M29 20h1M29 21h1M19 22h1M26 22h1M29 22h2M19 23h1M23 23h1M30 23h1M41 23h1M30 24h1M41 24h1M26 25h1M31 25h1M41 25h1M27 26h1M31 26h1M45 26h1M28 27h1M31 27h1M45 27h1M28 28h1M44 28h1M32 29h1M40 29h1M43 29h2M30 30h1M43 30h1M29 31h1M43 31h1M43 32h1M28 36h1M36 37h1M35 38h1M34 39h1M48 43h1M18 45h3M46 45h1M15 46h5M47 46h1M14 47h4M48 47h1M47 48h1M49 48h1M22 49h1M47 49h2M22 50h2M42 50h2M46 50h4M23 51h5M39 51h10M23 52h2M27 52h4M34 52h3M40 52h4M46 52h2M23 53h1M28 53h2M41 53h2M61 53h1M64 53h1M60 54h1M65 54h1M60 55h1M65 55h1M60 56h2M64 56h2M61 57h4M26 62h1M29 62h3M41 62h3M24 63h1M30 63h1M44 63h1M29 64h1M24 65h4M42 66h1M43 67h4" />
<path stroke="#bd2931" d="M41 15h2M41 16h3M41 17h1M41 18h1M44 18h1M42 24h2M42 25h1M44 25h1M30 26h1M41 26h1M29 27h2M41 27h1M30 28h1M30 29h2M41 29h1M42 30h1M31 38h2" />
<path stroke="#5a9cee" d="M40 17h1M40 18h1M24 19h4M41 19h1M21 20h1M27 20h2M41 20h1M45 20h2M41 21h1M45 21h2M41 22h1M45 22h2M20 23h1M45 23h2M45 24h2M45 25h2M44 27h1M33 29h6M31 30h11M30 31h2M36 31h7M28 32h2M36 32h7M44 32h1M27 33h1M30 33h1M35 33h2M39 33h7M26 34h2M31 34h5M40 34h6M26 35h2M31 35h5M40 35h7M25 36h3M30 36h2M33 36h4M39 36h8M25 37h5M37 37h11M24 38h7M36 38h12M24 39h8M35 39h14M23 40h26M23 41h26M23 42h27M22 43h1M25 43h23M49 43h1M22 44h1M25 44h24M22 45h9M34 45h4M42 45h4M47 45h4M22 46h8M35 46h3M42 46h5M48 46h5M22 47h2M26 47h4M35 47h3M42 47h1M49 47h3M22 48h1M27 48h3M35 48h3M42 48h1M50 48h2M27 49h3M35 49h8M51 49h2M26 50h5M34 50h8M52 50h4M28 51h11M62 53h2M61 54h1M64 54h1M61 55h1M64 55h1M62 56h2M27 62h2M27 63h3M41 63h3M24 64h5M41 64h5M42 65h2M46 65h1M43 66h4" />
<path stroke="#941010" d="M42 17h2M42 18h2M42 19h3M42 20h3M42 21h3M42 22h3M26 23h3M42 23h3M24 24h6M44 24h1M27 25h4M28 26h2M29 28h1M31 28h1M29 29h1M29 30h1M31 37h4" />
<path stroke="#10315a" d="M30 20h1M40 20h1M47 20h1M40 21h1M47 21h1M18 22h1M31 22h1M40 22h1M47 22h1M18 23h1M29 23h1M31 23h1M40 23h1M47 23h1M19 24h4M31 24h1M40 24h1M47 24h1M25 25h1M32 25h1M40 25h1M47 25h1M26 26h1M32 26h1M40 26h1M46 26h1M27 27h1M32 27h1M46 27h1M27 28h1M32 28h1M45 28h1M28 29h1M39 29h1M45 29h1M28 30h1M44 30h1M28 31h1M27 32h1M45 32h1M26 33h1M29 33h1M46 33h1M25 34h1M28 35h1M47 35h1M48 37h1M49 39h1M49 40h1M50 42h1M21 43h1M50 43h1M18 44h3M50 44h1M14 45h4M52 45h1M13 46h1M21 46h1M53 46h2M13 47h1M21 47h1M56 47h1M13 48h1M21 48h1M57 48h1M19 49h2M57 49h1M18 50h1M56 50h1M22 51h1M54 51h2M61 52h4M60 53h1M65 53h1M59 54h1M59 55h1M59 56h1M59 57h1" />
<path stroke="#101010" d="M27 22h2M24 23h2M23 24h1M28 34h1M38 34h1M25 35h1M29 35h1M37 35h2M24 36h1M24 37h1M23 38h1M23 39h1M22 40h1M22 41h1M22 42h1M55 46h1M48 48h1M14 49h1M21 49h1M49 49h1M15 50h3M21 50h1M50 50h2M50 51h1M52 51h2M22 52h1M50 52h1M22 53h1M23 54h1M49 54h1M66 54h1M23 55h1M51 55h1M66 55h1M24 56h1M48 56h1M51 56h1M66 56h1M47 57h1M50 57h3M55 57h1M66 57h1M26 58h1M46 58h1M50 58h3M55 58h2M60 58h1M65 58h1M27 59h1M45 59h1M47 59h1M49 59h2M52 59h1M55 59h3M59 59h1M61 59h4M28 60h1M44 60h1M47 60h4M52 60h2M55 60h1M57 60h1M59 60h1M30 61h1M41 61h1M48 61h2M52 61h4M57 61h3M33 62h7M49 62h1M53 62h2M58 62h2M31 63h1M40 63h1M53 63h2M59 63h1M23 64h1M30 64h1M40 64h1M54 64h1M23 65h1M28 65h2M41 65h1M24 66h4M41 66h1M47 66h1M42 67h1M47 67h1M43 68h4" />
<path stroke="#de4152" d="M43 25h1M42 26h3M42 27h2M41 28h3M42 29h1M33 38h2M32 39h2" />
<path stroke="#ffffff" d="M29 34h1M37 34h1M23 43h2M23 44h2M39 45h2M31 46h3M38 46h4M24 47h2M30 47h5M38 47h4M44 47h2M23 48h4M30 48h5M39 48h2M43 48h3M24 49h3M31 49h3M43 49h2" />
<path stroke="#c5c5d5" d="M46 48h1M23 49h1M45 49h2M24 50h2M44 50h2M49 51h1M25 52h2M31 52h3M37 52h3M44 52h2M48 52h2M24 53h4M30 53h11M43 53h6M24 54h25M25 55h23M25 56h23M26 57h21M27 58h19M28 59h17M30 60h13M32 61h8" />
<path stroke="#6a6a6a" d="M49 53h1M24 55h1M48 55h1M50 56h1M52 56h1M25 57h1M46 59h1M60 59h1M29 60h1M43 60h1M56 60h1M58 60h1M31 61h1M40 61h1M50 61h1M52 62h1M55 62h1M53 64h1M54 65h1" />
</svg>