<svg xmlns="http://www.w3.org/2000/svg" viewBox="0 -0.5 80 80" shape-rendering="crispEdges">
<metadata>Made with Pixels to Svg https://codepen.io/shshaw/pen/XbxvNj</metadata>
<path stroke="#101010" d="M33 13h5M32 14h8M32 15h3M37 15h4M31 16h1M33 16h1M39 16h3M31 17h1M33 17h1M35 17h2M40 17h2M31 18h1M36 18h2M40 18h3M32 19h1M35 19h3M41 19h2M33 20h4M41 20h2M42 21h2M42 22h2M43 23h1M43 24h1M44 25h2M46 26h1M48 27h1M49 28h1M42 30h2M50 30h1M29 31h2M42 31h3M29 32h1M43 32h2M51 32h1M34 33h4M51 33h1M59 33h1M31 34h11M55 34h1M59 34h1M63 34h1M26 35h1M30 35h14M52 35h1M55 35h1M63 35h1M26 36h1M30 36h6M44 36h2M52 36h1M56 36h1M62 36h1M27 37h1M31 37h3M52 37h1M64 37h1M28 38h1M31 38h2M52 38h1M64 38h1M29 39h1M31 39h1M52 39h1M64 39h1M16 40h1M29 40h1M31 40h1M62 40h2M16 41h1M29 41h1M30 42h1M17 43h1M31 43h1M47 43h1M58 43h1M17 44h1M32 44h1M46 44h1M57 44h1M17 45h1M21 45h2M34 45h1M43 45h2M55 45h2M18 46h3M24 46h3M36 46h6M53 46h2M28 47h4M31 48h1M52 48h1M30 49h1M52 49h1M16 51h1M19 51h1M53 51h1M17 52h1M19 52h1M22 52h1M53 52h1M15 53h1M20 53h2M48 53h2M53 53h1M16 54h2M28 54h1M39 54h1M42 54h1M50 54h1M53 54h1M28 55h1M36 55h1M40 55h2M45 55h1M51 55h1M53 55h1M28 56h1M37 56h2M42 56h1M45 56h1M51 56h1M53 56h1M18 57h1M28 57h1M38 57h1M43 57h2M51 57h1M19 58h1M29 58h1M51 58h1M19 59h1M29 59h1M51 59h1M20 60h1M27 60h1M30 60h1M48 60h1M51 60h1M20 61h1M26 61h1M30 61h1M48 61h1M21 62h1M25 62h1M27 62h1M31 62h2M47 62h1M50 62h1M22 63h3M29 63h6M38 63h1M47 63h1M49 63h1M35 64h4M46 64h3M38 65h1M42 65h1M45 65h1M39 66h1M42 66h1M44 66h1M40 67h2M43 67h1" />
<path stroke="#527b73" d="M32 16h1M32 17h1M32 18h2M33 19h2M42 23h1M42 24h1M30 27h1M29 28h1M28 29h1M27 30h1M27 31h1M33 31h1M36 31h1M28 32h1" />
<path stroke="#317b00" d="M37 24h5M33 25h3M43 25h1M31 26h2M47 26h1M44 27h2M47 27h1M46 28h1M48 28h1M47 29h1M49 29h1M47 30h1M47 31h1M50 31h1M26 32h1M46 32h1M26 33h1M33 33h1M38 33h2M26 34h1M42 34h2M51 34h1M44 35h1M27 36h1M29 36h1M46 36h1M28 37h3M56 37h1M29 38h1M55 38h1M24 39h1M54 39h1M25 40h3M52 40h2M28 41h1M51 41h2M60 41h1M59 42h1M23 45h1M33 45h1M27 46h1M33 46h1M49 46h1M32 47h1M50 47h3M32 48h1M52 50h1M22 53h1M24 53h3M47 53h1M22 54h2M27 54h1M46 54h1M17 55h1M23 55h1M18 56h1M24 56h1M39 56h1M52 57h1M38 58h1M43 58h2M48 58h1M52 58h1M38 59h1M44 59h1M48 59h1M38 60h1M44 60h1M27 61h1M38 61h1M50 61h2M28 62h1M38 62h1M45 63h1M45 64h1M44 65h1M43 66h1M42 67h1" />
<path stroke="#7bbd18" d="M36 25h1M42 25h1M33 26h1M31 27h1M43 27h1M46 27h1M31 28h1M42 28h1M47 28h1M31 29h1M48 29h1M48 30h2M48 31h2M27 32h1M41 32h2M47 32h4M27 33h1M40 33h8M50 33h1M44 34h3M45 35h2M51 35h1M51 36h1M51 37h1M30 38h1M50 38h2M30 39h1M50 39h2M49 40h3M49 41h2M23 42h1M29 42h1M49 42h3M57 42h2M23 43h3M29 43h2M48 43h5M55 43h3M23 44h9M47 44h10M24 45h9M45 45h10M28 46h5M34 46h2M42 46h7M50 46h3M33 47h17M33 48h2M41 48h11M43 49h9M37 50h2M45 50h7M39 51h1M46 51h7M46 52h7M18 53h2M50 53h3M18 54h4M51 54h2M18 55h5M50 55h1M52 55h1M19 56h5M27 56h1M40 56h2M52 56h1M19 57h9M39 57h4M48 57h1M50 57h1M20 58h1M23 58h6M32 58h2M39 58h4M47 58h1M49 58h2M24 59h5M33 59h2M39 59h5M45 59h3M49 59h2M24 60h3M28 60h2M33 60h3M39 60h5M45 60h3M49 60h2M25 61h1M28 61h2M34 61h4M39 61h1M42 61h6M49 61h1M29 62h2M35 62h3M43 62h4M48 62h2M43 63h2M46 63h1M48 63h1M43 64h2M43 65h1" />
<path stroke="#9cee31" d="M37 25h5M36 26h10M37 27h6M36 28h6M35 29h7M31 30h11M31 31h2M34 31h2M37 31h5M30 32h11M28 33h5M27 34h4M27 35h3M28 36h1M56 38h2M55 39h4M24 40h1M54 40h5M24 41h4M53 41h6M24 42h5M52 42h5M26 43h3M53 43h2M31 49h2M35 50h2M34 51h5M33 52h3M38 52h2M33 53h2M24 54h3M32 54h3M47 54h3M24 55h4M32 55h2M46 55h4M25 56h2M32 56h2M46 56h5M32 57h2M45 57h3M49 57h1M34 58h1M45 58h2" />
<path stroke="#cdff83" d="M34 26h2M32 27h5M32 28h1M35 28h1M32 29h3" />
<path stroke="#ffffff" d="M30 28h1M33 28h2M43 28h3M29 29h1M45 29h2M30 30h1M44 30h1M46 30h1M28 31h1" />
<path stroke="#9c6200" d="M30 29h1M42 29h3M29 30h1M45 30h1M45 31h1M56 32h3M60 32h3M55 33h1M63 33h1M59 35h1M20 36h3M57 36h1M60 36h1M63 36h1M19 37h1M23 37h1M17 38h3M23 38h1M16 39h1M20 39h1M23 39h1M20 40h1M22 40h1M61 40h1M30 41h1M18 42h3M48 42h1M21 43h1M33 44h1M45 44h1M35 45h1M42 45h1M17 49h2M16 50h1M19 50h3M30 50h1M22 51h1M29 51h1M15 52h1M18 52h1M29 52h1M40 52h2M17 53h1M29 53h1M37 53h3M42 53h1M36 54h1M43 54h2M39 55h1M42 55h1M21 58h2M20 59h1M23 59h1M23 60h1M21 61h1M24 61h1M31 61h1M40 61h2M24 62h1M39 62h1M42 62h1M42 63h1M42 64h1" />
<path stroke="#cdcdcd" d="M28 30h1M46 31h1M45 32h1" />
<path stroke="#e66a31" d="M48 33h2M47 34h1M50 34h1M47 35h1M50 35h1M50 36h1M47 37h1M50 37h1M36 38h4M48 38h2M34 39h7M34 40h7M35 41h4" />
<path stroke="#ffe652" d="M56 33h2M60 33h3M56 34h2M60 34h3M61 35h1M20 37h3M61 37h2M20 38h2M61 38h3M17 39h3M62 39h2M17 40h2M31 42h1M43 42h1M18 43h3M32 43h2M41 43h2M18 44h2M35 44h6M33 49h1M17 50h2M31 50h4M17 51h2M20 51h2M30 51h4M16 52h1M20 52h2M30 52h3M36 52h2M30 53h3M35 53h2M40 53h2M30 54h2M35 54h1M37 54h2M40 54h2M30 55h2M34 55h2M37 55h2M43 55h1M31 56h1M34 56h3M34 57h4M35 58h3M37 59h1M40 62h1M39 63h3M39 64h3M40 65h1" />
<path stroke="#e6b429" d="M58 33h1M58 34h1M56 35h3M60 35h1M62 35h1M58 36h2M61 36h1M46 37h1M57 37h4M63 37h1M22 38h1M46 38h2M58 38h3M21 39h2M45 39h5M59 39h3M19 40h1M21 40h1M23 40h1M30 40h1M45 40h4M59 40h2M17 41h7M31 41h1M44 41h5M59 41h1M17 42h1M21 42h2M32 42h1M42 42h1M44 42h4M22 43h1M34 43h1M40 43h1M43 43h4M20 44h3M34 44h1M41 44h4M18 45h3M36 45h6M35 48h6M34 49h9M39 50h6M40 51h6M42 52h4M16 53h1M43 53h4M29 54h1M45 54h1M29 55h1M44 55h1M29 56h2M43 56h2M29 57h3M30 58h2M21 59h2M30 59h3M35 59h2M21 60h2M31 60h2M36 60h2M22 61h2M32 61h2M22 62h2M33 62h2M41 62h1M35 63h3M39 65h1M41 65h1M40 66h2" />
<path stroke="#ff94c5" d="M48 34h2M48 35h2M47 36h3M48 37h2" />
<path stroke="#b41831" d="M36 36h8M34 37h12M33 38h3M40 38h6M32 39h2M41 39h4M32 40h2M41 40h4M32 41h3M39 41h5M33 42h9M35 43h5" />
</svg>