<svg xmlns="http://www.w3.org/2000/svg" viewBox="0 -0.5 80 80" shape-rendering="crispEdges">
<metadata>Made with Pixels to Svg https://codepen.io/shshaw/pen/XbxvNj</metadata>
<path stroke="#dea418" d="M41 17h1M39 18h2M37 19h2M34 20h2M45 20h2M28 21h4M34 21h1M45 21h1M28 22h1M36 24h1M42 24h2M35 25h1M44 25h1M34 26h1M43 26h1M52 26h2M29 27h1M33 27h1M42 27h1M48 27h3M52 27h1M45 28h4M52 28h1M27 29h1M33 29h1M42 29h1M26 30h1M33 30h1M35 30h1M39 30h1M42 30h1M52 30h1M25 31h1M34 31h1M40 31h1M42 31h1M26 32h1M33 32h1M53 32h1M33 33h1M42 33h1M33 34h1M42 34h1M52 34h2M33 35h1M42 35h1M45 35h1M28 36h1M30 36h1M33 36h1M42 36h1M45 36h2M29 37h1M34 37h1M43 37h2M34 38h1M42 38h2M49 38h2M34 39h2M40 39h2M50 39h1M40 40h1M34 41h1" />
<path stroke="#101010" d="M42 17h1M42 18h1M43 19h1M45 19h3M44 20h1M47 20h1M44 21h1M52 22h1M35 23h1M52 23h1M29 24h1M35 24h1M51 24h1M29 25h1M51 25h1M54 26h1M34 27h1M41 27h1M53 27h1M35 28h1M42 28h1M53 28h1M35 29h1M47 29h1M47 30h1M26 33h1M30 33h1M54 33h1M27 34h1M30 34h1M54 34h1M28 35h1M30 35h1M52 35h2M29 36h1M31 36h1M51 36h1M31 37h1M32 38h1M28 39h1M33 39h1M51 39h1M34 40h1M49 40h3M27 41h2M48 41h1M29 42h5M48 42h1M33 43h1M42 43h2M48 43h1M34 44h1M40 44h1M45 44h3M35 45h1M38 45h2M36 46h2M37 49h1M21 50h1M33 50h2M36 50h1M43 50h3M21 51h2M32 51h1M42 51h1M47 51h1M24 52h2M30 52h2M35 52h1M48 52h1M58 52h1M26 53h4M35 53h1M49 53h2M57 53h1M35 54h1M52 54h2M36 56h1M37 57h1M42 57h1M38 58h3M40 59h1M28 60h1M37 60h1M50 60h1M27 61h1M35 61h2M42 61h1M51 61h1M27 62h1M33 62h2M43 62h2M51 62h1M28 63h2M31 63h2M45 63h3M49 63h2" />
<path stroke="#fff610" d="M41 18h1M39 19h4M37 20h6M36 21h7M29 22h5M36 22h6M46 22h4M30 23h4M37 23h3M44 23h8M30 24h3M45 24h6M30 25h2M46 25h5M46 26h5M46 27h2M49 29h2M27 30h3M48 30h4M26 31h4M48 31h5M27 32h3M48 32h5M28 33h2M48 33h6M49 34h2M29 38h1M45 38h2M29 39h2M43 39h5M28 40h3M42 40h6M43 41h4M35 42h3M35 43h5M35 44h5M36 45h2" />
<path stroke="#835a10" d="M33 19h3M33 20h1M36 20h1M32 21h2M35 21h1M46 21h4M34 22h2M44 22h2M50 22h2M29 23h1M43 23h1M37 24h5M34 25h1M43 25h1M52 25h3M28 26h2M33 26h1M44 26h1M51 26h1M28 27h1M30 27h1M45 27h1M51 27h1M28 28h3M33 28h1M40 28h1M49 28h3M39 29h1M46 29h1M48 29h1M52 29h1M30 30h1M46 30h1M53 30h1M30 31h1M33 31h1M41 31h1M46 31h1M53 31h1M25 32h1M30 32h1M34 32h1M42 32h1M46 32h1M54 32h1M46 33h1M46 34h1M46 35h1M27 36h1M27 37h2M45 37h6M28 38h1M44 38h1M48 38h1M51 38h1M42 39h1M49 39h1M27 40h1M35 40h5M41 40h1M33 41h1M40 41h2M41 42h1M41 43h1M42 44h1" />
<path stroke="#eecd08" d="M43 20h1M43 21h1M42 22h2M34 23h1M36 23h1M40 23h3M33 24h2M44 24h1M32 25h2M45 25h1M30 26h3M45 26h1M31 27h1M28 29h3M51 29h1M47 31h1M47 32h1M27 33h1M47 33h1M28 34h2M47 34h2M51 34h1M29 35h1M47 35h5M48 36h3M30 37h1M30 38h2M47 38h1M31 39h2M48 39h1M31 40h3M48 40h1M29 41h4M35 41h5M42 41h1M47 41h1M34 42h1M38 42h3M42 42h6M34 43h1M40 43h1M44 43h4" />
<path stroke="#e6de5a" d="M36 25h1M42 25h1M41 32h1M31 33h1M34 33h1M40 33h2M45 33h1M31 34h2M34 34h1M40 34h2M43 34h3M31 35h2M34 35h2M39 35h3M43 35h2M32 36h1M34 36h8M43 36h2M32 37h2M35 37h8M33 38h1M35 38h7M36 39h4" />
<path stroke="#ffffa4" d="M37 25h5M35 26h8M35 27h6M43 27h2M32 28h1M34 28h1M36 28h4M41 28h1M43 28h2M32 29h1M34 29h1M36 29h3M40 29h2M43 29h3M31 30h2M34 30h1M36 30h3M40 30h2M43 30h3M31 31h2M35 31h5M43 31h3M31 32h2M43 32h3M32 33h1M43 33h2" />
<path stroke="#c57b20" d="M32 27h1M31 28h1M31 29h1M47 36h1" />
<path stroke="#9c2000" d="M35 32h6M35 33h2M35 34h2M39 34h1M36 35h3" />
<path stroke="#de3900" d="M37 33h3M37 34h2" />
<path stroke="#5a8341" d="M43 44h1M43 45h1M41 46h1M43 46h1M43 47h1M38 48h1M35 51h1M43 51h1M36 55h1M43 55h1M41 58h1M41 59h1M43 59h2M45 60h3M48 61h1" />
<path stroke="#526229" d="M44 44h1M42 45h1M44 45h1M26 46h5M44 46h1M47 46h5M24 47h2M31 47h2M39 47h1M45 47h2M52 47h2M23 48h1M33 48h2M43 48h2M54 48h1M22 49h1M35 49h1M42 49h1M55 49h1M56 50h1M23 51h1M36 51h1M44 51h1M46 51h1M57 51h2M41 52h1M44 52h1M44 53h1M56 53h1M44 54h1M51 54h1M54 54h1M35 55h1M43 56h1M36 58h1M42 58h1M32 59h4M38 59h1M29 60h2M41 60h1M48 60h2M30 62h1M48 62h1" />
<path stroke="#73ac31" d="M42 46h1M40 47h1M42 47h1M26 48h5M42 48h1M47 48h5M24 49h2M31 49h4M45 49h2M52 49h2M35 50h1M54 50h1M31 51h1M55 51h2M42 52h2M41 53h3M51 53h1M55 53h1M36 54h1M40 54h4M37 55h6M37 56h6M38 57h4M37 58h1M36 59h2M42 59h1M31 60h2M36 60h1M42 60h3M30 61h1M34 61h1M43 61h2M47 61h1M45 62h1" />
<path stroke="#acde5a" d="M26 47h5M41 47h1M47 47h5M24 48h2M31 48h2M39 48h3M45 48h2M52 48h2M23 49h1M26 49h5M38 49h4M43 49h2M47 49h5M54 49h1M22 50h11M37 50h6M46 50h8M55 50h1M24 51h7M37 51h5M48 51h7M26 52h4M36 52h5M49 52h9M36 53h5M52 53h3M37 54h3M33 60h3M28 61h2M31 61h3M45 61h2M49 61h2M28 62h2M31 62h2M46 62h2M49 62h2" />
</svg>