<svg xmlns="http://www.w3.org/2000/svg" viewBox="0 -0.5 80 80" shape-rendering="crispEdges">
<metadata>Made with Pixels to Svg https://codepen.io/shshaw/pen/XbxvNj</metadata>
<path stroke="#292941" d="M20 20h2M20 21h1M20 22h1M20 23h1M53 23h3M20 24h1M36 24h2M53 24h1M21 25h1M35 25h1M37 25h1M52 25h1M21 26h1M34 26h1M38 26h1M21 27h1M33 27h1M38 27h1M51 27h1M21 28h1M39 28h1M50 28h1M22 29h1M25 29h1M39 29h1M22 30h1M25 30h1M28 30h1M30 30h1M49 30h1M53 30h1M22 31h1M24 31h1M28 31h1M30 31h1M48 31h1M53 31h1M24 32h1M29 32h1M47 32h1M52 32h1M24 33h1M29 33h1M46 33h1M51 33h1M23 34h1M45 34h1M50 34h1M55 34h2M23 35h1M44 35h1M53 35h2M23 36h1M35 36h2M44 36h1M51 36h2M18 37h7M34 37h1M44 37h1M16 38h1M24 38h4M17 39h6M28 39h1M43 39h1M53 39h2M19 40h8M31 40h1M43 40h1M21 41h9M34 41h1M42 41h1M24 42h9M36 42h1M42 42h1M53 42h2M23 43h1M28 43h2M32 43h3M38 43h1M34 44h3M40 44h1M48 44h3M35 45h4M51 45h2M34 46h6M45 46h2M55 46h1M36 47h3M47 47h2M55 47h4M35 49h1M42 49h2M46 50h1M41 51h1M55 51h1M39 52h2M57 52h1M36 53h1M58 53h1M31 54h1M34 54h1M46 54h1M57 54h1M35 55h1M45 55h1M44 56h1M36 58h1" />
<path stroke="#41629c" d="M21 21h1M21 22h1M21 23h1M21 24h1M54 24h2M22 25h1M36 25h1M53 25h3M22 26h1M35 26h3M53 26h2M22 27h1M34 27h4M52 27h3M22 28h1M33 28h4M51 28h3M26 29h1M32 29h5M51 29h3M26 30h2M32 30h4M50 30h3M25 31h3M31 31h5M49 31h3M25 32h4M30 32h5M36 32h1M48 32h3M25 33h4M30 33h4M35 33h1M47 33h2M24 34h4M29 34h4M34 34h1M36 34h1M46 34h1M24 35h7M33 35h1M35 35h1M45 35h1M24 36h5M45 36h1M45 37h1M17 38h7M45 38h1M24 39h4M44 39h1M28 40h3M44 40h1M31 41h3M43 41h2M34 42h2M43 42h1M26 43h1M30 43h2M36 43h2M42 43h1M33 44h1M38 44h1M33 52h2M31 53h5M32 54h2M35 54h1M32 55h1" />
<path stroke="#101010" d="M22 21h1M22 22h1M24 22h2M23 23h1M25 23h1M23 24h1M25 24h1M56 24h1M23 25h1M25 25h3M56 25h1M25 26h1M27 26h1M55 26h1M58 26h2M27 27h1M55 27h1M57 27h1M60 27h1M26 28h4M54 28h1M56 28h1M61 28h1M27 29h1M29 29h1M54 29h2M61 29h1M40 30h1M54 30h1M60 30h1M40 31h1M59 31h1M23 32h1M40 32h1M58 32h1M23 33h1M41 33h3M57 33h1M60 33h2M39 34h2M43 34h1M58 34h2M62 34h1M37 35h2M43 35h1M62 35h1M43 36h1M62 36h1M42 37h1M60 37h2M42 38h1M57 38h3M16 39h1M29 39h2M41 39h1M55 39h2M60 39h2M17 40h2M32 40h2M41 40h1M61 40h1M19 41h2M35 41h1M40 41h1M61 41h1M21 42h3M37 42h1M40 42h1M55 42h6M39 43h1M41 43h1M57 43h1M41 44h1M57 44h1M40 45h1M53 45h4M40 46h1M51 46h2M32 47h2M39 47h1M49 47h2M20 48h1M25 48h2M36 48h3M47 48h2M59 48h1M20 49h1M24 49h1M28 49h1M37 49h1M44 49h3M58 49h1M21 50h1M23 50h1M33 50h2M36 50h1M43 50h2M47 50h1M57 50h1M22 51h2M27 51h5M35 51h1M42 51h1M45 51h1M48 51h1M56 51h1M31 52h2M46 52h1M48 52h1M30 53h1M47 53h1M29 54h2M36 54h1M48 54h2M54 54h1M31 55h1M33 55h1M36 55h1M50 55h2M55 55h1M31 56h3M52 56h4M34 57h1M42 57h2M48 57h1M35 58h1M40 58h2M37 59h3M46 59h3" />
<path stroke="#314162" d="M22 23h1M24 23h1M22 24h1M24 24h1M24 25h1M23 26h2M26 26h1M51 26h2M23 27h4M58 27h2M23 28h3M32 28h1M37 28h2M57 28h4M23 29h2M28 29h1M31 29h1M37 29h2M49 29h2M56 29h5M23 30h2M29 30h1M31 30h1M36 30h4M55 30h5M23 31h1M29 31h1M36 31h4M52 31h1M54 31h5M35 32h1M37 32h3M51 32h1M53 32h5M34 33h1M36 33h5M49 33h2M52 33h5M28 34h1M33 34h1M35 34h1M37 34h2M41 34h2M47 34h3M51 34h4M57 34h1M60 34h2M31 35h2M34 35h1M36 35h1M39 35h4M46 35h7M55 35h7M29 36h6M37 36h6M46 36h5M53 36h9M17 37h1M25 37h9M35 37h7M46 37h14M28 38h14M44 38h1M46 38h11M23 39h1M31 39h10M45 39h8M57 39h3M27 40h1M34 40h7M45 40h16M30 41h1M36 41h4M45 41h16M33 42h1M38 42h2M44 42h9M35 43h1M43 43h14M29 44h1M37 44h1M39 44h1M42 44h6M51 44h6M29 45h1M39 45h1M41 45h10M29 46h1M41 46h4M47 46h4M53 46h2M31 47h1M34 47h2M40 47h7M51 47h4M32 48h4M39 48h8M49 48h10M32 49h3M38 49h4M47 49h11M31 50h2M35 50h1M37 50h6M48 50h9M32 51h3M36 51h5M43 51h2M49 51h6M35 52h4M41 52h5M49 52h8M37 53h10M48 53h10M37 54h9M50 54h4M55 54h2M34 55h1M37 55h8M52 55h3M34 56h10M35 57h7M37 58h3" />
<path stroke="#738bbd" d="M24 43h1M34 45h1M33 46h1M47 56h1M49 57h1" />
<path stroke="#732939" d="M25 43h1M25 44h1M30 46h1M46 51h1" />
<path stroke="#b49c20" d="M27 43h1M27 45h2M24 46h5M23 47h8M22 48h3M27 48h2M30 48h2M21 49h3M25 49h2M29 49h1M22 50h1M26 50h4M46 56h1M44 57h3M42 58h1M46 58h4" />
<path stroke="#5a4a20" d="M22 44h3M28 44h1M21 45h1M20 46h1M20 47h1M29 48h1M27 49h1M30 49h2M24 50h2M30 50h1M26 51h1M46 55h2M45 56h1M48 56h2M47 57h1M50 57h1M43 58h3M50 58h1M49 59h1" />
<path stroke="#eeee52" d="M26 44h2M22 45h5M21 46h3M21 47h2M21 48h1" />
<path stroke="#ffffff" d="M30 44h1M31 45h1M33 45h1M31 46h1" />
<path stroke="#d54152" d="M31 44h2M30 45h1M32 45h1M32 46h1M47 51h1M47 52h1" />
</svg>