<svg xmlns="http://www.w3.org/2000/svg" viewBox="0 -0.5 80 80" shape-rendering="crispEdges">
<metadata>Made with Pixels to Svg https://codepen.io/shshaw/pen/XbxvNj</metadata>
<path stroke="#7b3129" d="M46 16h2M48 17h1M44 18h2M49 18h2M53 18h1M54 19h1M50 20h1M50 23h1M50 24h1M53 24h1M50 25h1M49 26h1M49 27h1M48 28h1M48 29h1M47 30h1M53 30h1M47 31h1M46 32h1M45 34h1M43 36h1" />
<path stroke="#101010" d="M50 16h1M46 17h1M49 17h1M51 17h1M46 18h1M52 18h1M50 19h2M52 20h2M52 21h1M53 22h1M53 23h1M54 25h1M41 26h1M54 26h1M41 27h1M54 27h1M25 28h1M39 28h2M54 28h1M26 29h1M41 29h1M54 29h1M53 31h1M39 32h2M38 33h3M42 33h1M39 34h2M42 34h1M40 35h1M42 35h1M42 36h1M43 37h1M20 38h1M43 38h1M20 39h1M32 39h1M44 39h1M32 40h1M44 40h1M45 41h2M18 42h1M47 42h2M19 43h1M49 43h1M55 43h1M58 43h1M61 43h1M19 44h1M31 44h1M50 44h1M53 44h5M59 44h3M20 45h1M32 45h1M51 45h2M21 46h1M51 46h1M22 47h2M36 47h1M52 47h1M24 48h2M33 48h2M44 48h1M52 48h1M59 48h1M26 49h5M53 49h2M57 49h3M45 50h1M53 50h1M55 50h3M37 51h1M45 51h1M37 52h1M46 52h1M54 52h1M30 53h1M37 53h1M46 53h1M54 53h1M32 54h2M46 54h2M29 55h1M35 55h2M38 55h1M46 55h1M48 55h1M55 55h1M28 56h1M38 56h1M46 56h1M49 56h1M53 56h2M21 57h2M27 57h1M39 57h1M50 57h3M23 58h4M45 58h1M38 59h3M43 59h1M45 59h1M41 60h2M44 60h1" />
<path stroke="#ff7b7b" d="M47 17h1M47 18h1M46 19h4M53 19h1M47 20h3M47 21h3M51 21h1M40 22h1M46 22h4M51 22h1M40 23h2M45 23h5M39 24h10M42 25h7M42 26h6M42 27h4M19 36h1M33 37h1M19 39h1M31 40h1M33 40h1" />
<path stroke="#d5415a" d="M50 17h1M48 18h1M51 18h1M42 19h2M52 19h1M41 20h1M51 20h1M40 21h1M50 21h1M50 22h1M52 22h1M51 23h2M49 24h1M51 24h2M49 25h1M51 25h3M48 26h1M50 26h4M46 27h3M50 27h4M41 28h7M49 28h5M42 29h6M49 29h5M42 30h5M48 30h5M43 31h4M48 31h5M43 32h3M47 32h5M43 33h4M51 33h1M43 34h2M46 34h1M43 35h1M19 37h2M19 38h1M32 38h2M31 39h1M33 39h1" />
<path stroke="#105220" d="M29 18h3M29 19h1M32 19h1M34 19h3M26 20h4M32 20h1M36 20h1M26 21h1M36 21h4M26 22h1M35 22h1M39 22h1M25 23h2M39 23h1M25 24h1M38 24h1M25 25h1M31 25h1M37 25h5M26 26h2M32 26h1M25 27h1M28 27h1M32 27h1M33 28h1M38 28h1M33 29h1M52 32h3M56 32h4M47 33h4M52 33h1M55 33h1M59 33h1M47 34h1M51 34h1M55 34h1M59 34h5M44 35h4M51 35h1M54 35h1M59 35h1M63 35h1M44 36h1M47 36h1M51 36h1M54 36h1M58 36h1M63 36h1M44 37h1M47 37h1M62 37h4M44 38h1M61 38h1M65 38h1M53 39h5M65 39h1M50 40h3M64 40h1M48 41h2M64 41h1M55 42h1M58 42h1M61 42h1M64 42h1M52 43h1M62 43h3M52 44h1M54 47h1M58 47h1M54 48h1M57 48h1" />
<path stroke="#83e65a" d="M30 19h2M34 20h2M27 21h2M26 24h2M57 33h2M61 35h2M63 38h2" />
<path stroke="#ffaca4" d="M44 19h2M42 20h5M41 21h6M41 22h5M42 23h3" />
<path stroke="#6ab420" d="M30 20h2M30 21h6M27 22h8M37 22h2M28 23h2M31 23h8M29 24h2M32 24h4M26 25h5M32 25h2M29 26h2M26 27h2M26 28h1M53 33h2M56 33h1M48 34h3M54 34h1M57 34h2M57 35h1M60 35h1M59 36h4M58 37h3M59 38h2M62 38h1M59 39h6M60 40h3M60 41h4M62 42h2M54 45h1M54 46h3M55 47h3M55 48h2" />
<path stroke="#4a8b20" d="M33 20h1M29 21h1M36 22h1M27 23h1M30 23h1M28 24h1M31 24h1M36 24h2M34 25h3M28 26h1M31 26h1M33 26h8M29 27h3M33 27h8M27 28h6M34 28h4M27 29h6M34 29h7M34 30h4M52 34h2M56 34h1M48 35h3M52 35h2M55 35h2M58 35h1M45 36h2M48 36h3M52 36h2M55 36h3M45 37h2M48 37h10M61 37h1M45 38h14M45 39h8M58 39h1M45 40h5M53 40h7M63 40h1M47 41h1M50 41h10M49 42h6M56 42h2M59 42h2M50 43h2M53 43h2M56 43h2M59 43h2M51 44h1M53 45h1M55 45h2M52 46h2M57 46h1M53 47h1M53 48h1M58 48h1M55 49h2" />
<path stroke="#317ba4" d="M20 30h3M19 31h1M26 31h4M33 31h1M37 31h1M21 32h1M25 32h4M38 32h1M20 33h1M23 33h1M25 33h2M41 33h1M22 34h2M41 34h1M23 35h1M34 35h1M41 35h1M29 36h1M35 36h1M39 36h1M41 36h1M18 37h1M22 37h1M28 37h1M40 37h3M18 38h1M22 38h1M36 38h1M40 38h3M18 39h1M41 39h3M17 40h1M30 40h1M41 40h3M19 41h2M22 41h1M24 41h1M33 41h3M41 41h3M25 42h1M30 42h1M40 42h5M20 43h2M26 43h5M40 43h5M48 43h1M20 44h11M33 44h1M35 44h1M38 44h8M48 44h2M21 45h11M33 45h18M22 46h29M24 47h11M37 47h7M45 47h7M23 48h1M26 48h6M35 48h9M45 48h4M51 48h1M23 49h1M32 49h13M46 49h3M52 49h1M24 50h1M26 50h11M38 50h7M46 50h4M52 50h1M24 51h1M26 51h2M29 51h8M38 51h2M42 51h3M46 51h2M49 51h4M22 52h2M26 52h3M30 52h7M38 52h2M44 52h2M49 52h5M22 53h1M25 53h5M32 53h5M38 53h2M44 53h2M48 53h6M24 54h5M35 54h3M39 54h2M43 54h3M48 54h6M23 55h6M39 55h7M49 55h4M21 56h1M23 56h5M40 56h3M45 56h1M40 57h3M41 58h4" />
<path stroke="#10414a" d="M25 30h9M38 30h4M23 31h2M34 31h3M42 31h1M19 32h1M42 32h1M19 33h1M37 33h1M19 34h1M38 34h1M39 35h1M20 36h1M33 36h1M40 36h1M32 37h1M28 38h1M31 38h1M30 39h1M36 39h1M36 40h1M17 41h1M44 41h1M20 42h2M26 42h4M45 42h2M22 43h4M31 43h3M45 43h3M34 44h1M46 44h2M35 47h1M44 47h1M32 48h1M49 48h2M31 49h1M45 49h1M49 49h3M23 50h1M37 50h1M50 50h2M23 51h1M28 51h1M40 51h2M48 51h1M53 51h1M29 52h1M40 52h4M47 52h2M31 53h1M40 53h4M47 53h1M22 54h1M29 54h1M34 54h1M38 54h1M41 54h2M54 54h1M22 55h1M37 55h1M53 55h1M39 56h1M43 56h2M51 56h1M24 57h1M26 57h1M43 57h3M38 58h1M40 58h1M42 59h1" />
<path stroke="#8bd5f6" d="M20 31h3M39 31h3M22 32h3M29 32h1M21 33h1M24 33h1M28 33h1M21 34h1M24 34h5M21 35h1M24 35h4M22 36h4M35 37h1" />
<path stroke="#62b4cd" d="M25 31h1M30 31h3M38 31h1M20 32h1M30 32h8M41 32h1M22 33h1M27 33h1M29 33h8M20 34h1M29 34h9M20 35h1M22 35h1M28 35h6M35 35h4M21 36h1M26 36h3M30 36h3M36 36h3M21 37h1M23 37h5M29 37h3M36 37h4M21 38h1M23 38h5M29 38h2M37 38h3M21 39h9M37 39h4M18 40h12M37 40h4M18 41h1M21 41h1M23 41h1M25 41h8M36 41h5M22 42h3M31 42h9M34 43h6M36 44h2M24 49h2M25 50h1M25 51h1M24 52h2M23 53h2M23 54h1" />
<path stroke="#ffffff" d="M19 35h1M34 36h1M34 37h1M34 38h2M34 39h2M34 40h2M19 42h1M32 44h1M54 55h1M22 56h1M50 56h1M52 56h1M23 57h1M25 57h1M39 58h1M41 59h1M44 59h1" />
</svg>