<svg xmlns="http://www.w3.org/2000/svg" viewBox="0 -0.5 80 80" shape-rendering="crispEdges">
<metadata>Made with Pixels to Svg https://codepen.io/shshaw/pen/XbxvNj</metadata>
<path stroke="#31628b" d="M28 14h4M26 15h1M35 15h1M24 16h1M38 16h1M23 17h1M22 18h1M13 58h1M46 58h1M12 59h1M14 59h1M18 59h1M43 59h1M46 59h1M11 60h1M15 60h3M19 60h4M35 60h1M43 60h1M56 60h3M60 60h1M10 61h1M32 61h1M35 61h1M38 61h1M42 61h1M44 61h1M47 61h1M51 61h3M55 61h1M58 61h1M63 61h1M9 62h1M20 62h2M38 62h1M44 62h2M50 62h1M54 62h1M63 62h2M9 63h1M15 63h2M33 63h1M49 63h1M61 63h1M65 63h1M8 64h1M49 64h1M62 64h1M66 64h1M7 65h1M18 65h1M20 65h1M57 65h1M67 65h1M6 66h1M13 66h2M58 66h1M68 66h1M66 68h1M7 69h1M52 69h2M61 73h1" />
<path stroke="#101010" d="M32 14h3M36 15h2M39 16h1M40 17h1M41 18h1M22 19h1M42 19h1M32 20h2M42 20h1M23 21h1M30 21h1M34 21h1M41 21h1M24 22h1M32 22h1M35 22h1M40 22h1M24 23h1M31 23h3M35 23h1M39 24h1M31 25h3M38 25h1M29 26h1M32 26h1M38 26h1M30 27h1M31 28h2M39 28h1M34 29h1M8 30h4M40 30h1M13 31h5M22 31h1M24 31h2M41 31h1M20 32h2M27 32h2M42 32h1M14 33h6M30 33h5M44 33h1M50 33h4M46 34h4M54 34h1M24 35h8M55 35h1M17 36h5M55 36h1M55 37h1M55 38h1M55 39h1M55 40h1M55 41h1M55 42h1M50 43h1M54 43h1M50 44h1M54 44h1M51 45h1M54 45h1M43 46h1M51 46h1M53 46h1M43 47h1M52 47h1M44 48h1M53 48h1M44 49h1M53 49h1M44 50h1M54 50h1M44 51h1M54 51h1M45 52h1M55 52h1M45 53h1M55 53h1M45 54h1M56 54h1M46 55h1M56 55h1M45 56h2M57 56h1M43 57h1M46 57h1M58 57h1M40 58h2M47 58h1M59 58h1M35 59h4M41 59h1M47 59h1M60 59h1M24 60h11M38 60h1M41 60h1M47 60h1M61 60h1M17 61h1M21 61h1M23 61h1M30 61h1M48 61h1M59 61h1M62 61h1M16 62h1M23 62h1M31 62h1M33 62h1M36 62h1M42 62h1M47 62h2M60 62h1M20 63h1M22 63h1M32 63h1M34 63h1M36 63h3M43 63h2M46 63h3M55 63h1M15 64h1M19 64h1M21 64h1M35 64h2M48 64h1M56 64h1M14 65h1M19 65h1M21 65h1M49 65h1M63 65h1M18 66h1M20 66h1M50 66h1M64 66h1M6 67h1M13 67h1M17 67h1M19 67h1M51 67h1M59 67h1M65 67h1M69 67h1M6 68h1M12 68h1M16 68h3M52 68h1M60 68h1M69 68h1M6 69h1M11 69h1M15 69h2M61 69h1M67 69h2M7 70h4M12 70h3M53 70h1M61 70h1M67 70h1M54 71h1M62 71h1M66 71h1M55 72h1M62 72h4M56 73h2M62 73h1M58 74h4" />
<path stroke="#5aa4cd" d="M27 15h1M31 15h4M25 16h1M32 16h6M32 17h1M38 17h2M40 18h1M25 20h4M25 21h4M25 22h3M27 23h1M44 57h2M42 58h4M42 59h1M44 59h2M18 60h1M23 60h1M36 60h2M42 60h1M44 60h3M14 61h3M18 61h3M22 61h1M31 61h1M33 61h2M36 61h2M43 61h1M45 61h2M56 61h2M60 61h2M10 62h1M13 62h3M17 62h3M22 62h1M32 62h1M34 62h2M37 62h1M43 62h1M46 62h1M51 62h3M55 62h5M61 62h2M13 63h2M17 63h3M21 63h1M35 63h1M52 63h3M56 63h5M62 63h3M12 64h3M16 64h3M20 64h1M52 64h4M57 64h5M63 64h3M11 65h3M15 65h3M50 65h1M53 65h4M58 65h5M64 65h3M10 66h3M15 66h3M19 66h1M54 66h4M59 66h5M65 66h3M9 67h4M14 67h3M18 67h1M55 67h4M60 67h5M66 67h3M7 68h5M13 68h3M55 68h5M61 68h5M67 68h2M8 69h3M12 69h3M56 69h5M62 69h5M57 70h4M62 70h5M58 71h4M63 71h3M59 72h3M59 73h2" />
<path stroke="#a4e6ff" d="M28 15h2M26 16h5M24 17h7M24 18h6M25 19h3" />
<path stroke="#7bcdee" d="M30 15h1M31 16h1M31 17h1M23 18h1M30 18h1M24 19h1M28 19h2M13 59h1M12 60h3M11 61h3M11 62h2M10 63h3M50 63h2M9 64h3M50 64h2M8 65h3M51 65h2M7 66h3M51 66h3M7 67h2M52 67h3M53 68h2M54 69h2M54 70h3M55 71h3M56 72h3M58 73h1" />
<path stroke="#cdd5ee" d="M33 17h5M31 18h9M23 19h1M30 19h12M24 20h1M34 20h8M36 21h5M38 22h2M29 25h1M35 26h1M40 31h1M40 32h2M41 33h2M41 34h4M41 35h8M41 36h10M53 36h2M41 37h14M41 38h14M41 39h7M49 39h6M41 40h1M43 40h5M49 40h5M41 41h1M43 41h6M50 41h4M43 42h6M50 42h3M43 43h7M51 43h2M42 44h1M45 44h5M51 44h1M42 45h1M45 45h6M46 46h5M46 47h6M46 48h7M47 49h6M47 50h7M47 51h7M48 52h7M48 53h7M49 54h7M49 55h7M49 56h8M50 57h8M17 58h1M50 58h9M16 59h2M19 59h2M50 59h10M51 60h5M59 60h1M54 61h1" />
<path stroke="#737383" d="M23 20h1M31 20h1M29 22h1M31 22h1M33 22h1M29 23h1M39 23h1M29 24h1M35 24h1M35 25h1M31 26h1M33 26h1M38 27h1M39 29h1M43 33h1M45 34h1M48 39h1M42 40h1M48 40h1M42 41h1M49 41h1M42 42h1M49 42h1M42 43h1M43 44h1M43 45h1M14 56h1M14 57h1" />
<path stroke="#ffffff" d="M29 20h2M24 21h1M29 21h1M31 21h3M35 21h1M28 22h1M30 22h1M34 22h1M36 22h2M28 23h1M30 23h1M34 23h1M36 23h3M28 24h1M30 24h5M36 24h3M30 25h1M34 25h1M36 25h2M30 26h1M34 26h1M36 26h2M31 27h7M34 28h5M37 29h2M38 30h2M50 34h4M49 35h6M51 36h2M44 44h1M44 45h1M44 46h2M44 47h2M45 48h1M45 49h2M45 50h2M45 51h2M46 52h2M46 53h2M46 54h3M47 55h2M47 56h2M15 57h1M47 57h3M14 58h3M48 58h2M15 59h1M48 59h2M48 60h3M49 61h2M49 62h1" />
<path stroke="#8b4131" d="M25 23h2M24 24h1M27 24h1M23 25h1M28 25h1M21 26h2M27 27h1M26 28h1M33 28h1M35 29h2M7 30h1M12 30h1M18 30h6M37 30h1M26 31h1M38 31h1M9 32h4M25 32h1M29 32h1M39 32h1M7 33h2M13 33h1M23 33h2M35 33h2M40 33h1M6 34h1M21 34h2M33 34h2M40 34h1M5 35h1M11 35h5M23 35h1M32 35h1M40 35h1M5 36h1M9 36h2M16 36h1M22 36h1M40 36h1M5 37h1M8 37h1M40 37h1M5 38h1M40 38h1M5 39h1M40 39h1M5 40h1M40 40h1M6 41h1M39 41h1M6 42h1M39 42h1M6 43h1M39 43h1M7 44h1M39 44h1M7 45h1M38 45h1M7 46h1M38 46h1M8 47h1M53 47h1M8 48h1M9 49h1M9 50h1M10 51h1M11 52h1M12 53h1M13 54h1M14 55h1M15 56h1M44 56h1M16 57h2M42 57h1M18 58h3M39 58h1M21 59h3M34 59h1" />
<path stroke="#ffde4a" d="M25 24h2M24 25h4M23 26h4M16 27h10M12 28h13M11 29h6M28 29h3M26 30h4M37 33h2M7 34h1M36 34h3M6 35h1M34 35h5M13 36h3M26 36h13M11 37h27M9 38h29M9 39h29M9 40h28M9 41h28M9 42h28M10 43h26M10 44h26M10 45h25M10 46h25M11 47h23M11 48h22M12 49h20M12 50h20M13 51h16M30 51h1M32 51h1M13 52h15M29 52h1M31 52h1M14 53h11M28 53h1M30 53h1M32 53h1M14 54h8M27 54h1M29 54h1M31 54h1M15 55h3M17 56h2M18 57h3M21 58h3" />
<path stroke="#c57b31" d="M16 26h5M10 27h6M28 27h1M8 28h2M27 28h1M7 29h1M23 31h1M39 31h1M22 32h3M36 32h2M20 33h3M9 34h12M7 35h4M7 36h2M54 40h1M40 41h1M54 41h1M41 42h1M53 42h2M41 43h1M53 43h1M41 44h1M52 44h1M41 45h1M53 45h1M42 46h1M38 47h1M42 47h1M37 48h1M43 48h1M37 49h1M36 50h1" />
<path stroke="#f6b431" d="M27 26h2M26 27h1M29 27h1M25 28h1M28 28h3M17 29h11M31 29h3M13 30h5M24 30h2M30 30h7M27 31h11M30 32h6M38 32h1M9 33h4M39 33h1M8 34h1M35 34h1M39 34h1M33 35h1M39 35h1M39 36h1M38 37h2M38 38h2M38 39h2M37 40h3M37 41h2M37 42h2M40 42h1M36 43h3M40 43h1M36 44h3M40 44h1M53 44h1M35 45h3M39 45h2M52 45h1M35 46h3M39 46h3M52 46h1M34 47h4M39 47h3M33 48h4M38 48h5M32 49h5M38 49h6M32 50h4M37 50h7M29 51h1M31 51h1M33 51h11M28 52h1M30 52h1M32 52h13M25 53h3M29 53h1M31 53h1M33 53h12M22 54h5M28 54h1M30 54h1M32 54h13M18 55h28M16 56h1M19 56h25M21 57h21M24 58h15M24 59h10" />
<path stroke="#ffffac" d="M10 28h2M8 29h3M6 36h1M11 36h2M23 36h3M6 37h2M9 37h2M6 38h3M6 39h3M6 40h3M7 41h2M7 42h2M7 43h3M8 44h2M8 45h2M8 46h2M9 47h2M9 48h2M10 49h2M10 50h2M11 51h2M12 52h1M13 53h1" />
<path stroke="#cd4152" d="M26 32h1M25 33h5M23 34h10M16 35h7" />
</svg>