<svg xmlns="http://www.w3.org/2000/svg" viewBox="0 -0.5 80 80" shape-rendering="crispEdges">
<metadata>Made with Pixels to Svg https://codepen.io/shshaw/pen/XbxvNj</metadata>
<path stroke="#b43952" d="M7 0h1M5 1h1M12 1h1M4 2h1M14 2h1M40 2h2M3 3h1M15 3h1M42 3h2M3 4h1M16 4h1M44 4h1M2 5h1M45 5h1M2 6h1M2 7h1M2 8h1M2 9h1M2 10h1M2 11h1M3 12h1M40 12h1M3 13h1M38 13h2M3 14h1M37 14h1M4 15h1M35 15h2M4 16h1M34 16h1M5 17h1M33 17h1M5 18h1M31 18h2M6 19h1M13 19h1M22 19h2M29 19h2M7 20h1M12 20h1M20 20h2M24 20h2M28 20h1M7 21h1M11 21h1M19 21h1M8 22h1M18 22h1M9 23h1M18 23h1M36 23h1M9 24h1M17 24h1M26 24h1M34 24h1M24 25h3M24 26h3M24 27h3M30 27h1M22 28h1M24 28h3M24 29h3M41 29h2M24 30h3M41 30h3M60 30h3M24 31h4M40 31h5M61 31h4M25 32h3M40 32h6M62 32h4M25 33h3M44 33h3M63 33h3M25 34h3M46 34h1M65 34h2M25 35h3M14 36h3M25 36h3M14 37h3M26 37h3M14 38h2M26 38h3M13 39h3M26 39h3M13 40h3M26 40h3M13 41h3M26 41h3M12 42h3M27 42h3M12 43h3M27 43h3M11 44h4M27 44h3M12 45h1M14 45h1M28 45h1M30 45h1M11 46h1M13 46h2M29 46h1M9 47h1M12 47h1M28 47h1M30 47h1M9 48h1M13 48h1M29 48h1M9 49h1M8 50h1M8 51h1M7 52h1M13 52h1M7 53h1M6 54h1M6 55h1M5 56h1M36 56h1M4 57h1M12 57h1M37 57h1M3 58h1M38 58h2M2 59h1M40 59h2M1 60h1M4 60h1M42 60h1M4 61h1M39 61h1M43 61h1M3 62h1M7 62h1M35 62h1M40 62h1M2 63h1M7 63h1M35 63h1M40 63h1M2 64h1M4 64h1M7 64h1M36 64h1M41 64h1M36 65h1M36 66h1" />
<path stroke="#e65262" d="M8 0h4M6 1h2M13 1h1M5 2h1M37 2h3M4 3h1M35 3h2M41 3h1M4 4h1M34 4h1M43 4h1M3 5h1M44 5h1M3 6h1M44 6h1M3 7h1M44 7h1M3 8h1M44 8h1M3 9h1M43 9h1M3 10h1M43 10h1M3 11h1M42 11h1M4 12h1M41 12h1M4 13h1M40 13h1M4 14h1M38 14h2M5 15h1M37 15h1M5 16h1M35 16h2M6 17h1M34 17h1M6 18h1M33 18h1M7 19h1M31 19h2M8 20h1M29 20h2M8 21h2M28 21h1M26 22h2M23 23h3M34 23h2M68 23h2M75 23h1M31 24h3M64 24h2M69 24h1M74 24h2M29 25h4M65 25h2M69 25h1M74 25h3M28 26h4M66 26h1M69 26h2M74 26h3M28 27h2M59 27h2M66 27h1M70 27h1M74 27h2M59 28h4M67 28h1M70 28h1M74 28h2M19 29h1M21 29h1M60 29h4M67 29h1M70 29h1M73 29h3M63 30h2M70 30h1M73 30h2M70 31h1M73 31h2M73 32h1" />
<path stroke="#414139" d="M8 1h4M6 2h2M12 2h2M5 3h1M14 3h1M37 3h4M5 4h1M35 4h2M41 4h2M4 5h1M24 5h1M34 5h1M43 5h1M4 6h1M24 6h1M43 6h1M45 6h1M4 7h1M24 7h1M43 7h1M45 7h1M4 8h1M24 8h1M43 8h1M45 8h1M4 9h1M24 9h1M42 9h1M44 9h1M4 10h1M24 10h1M42 10h1M44 10h1M4 11h1M24 11h1M41 11h1M43 11h1M5 12h1M24 12h1M42 12h1M68 12h1M5 13h1M24 13h1M41 13h1M69 13h1M5 14h1M24 14h1M40 14h1M70 14h1M6 15h1M24 15h1M38 15h2M70 15h1M78 15h1M6 16h1M24 16h1M37 16h1M71 16h1M78 16h1M7 17h1M35 17h2M64 17h1M71 17h1M79 17h1M7 18h1M34 18h1M65 18h1M72 18h1M79 18h1M8 19h1M33 19h1M65 19h1M72 19h1M79 19h1M9 20h1M31 20h2M66 20h1M72 20h1M79 20h1M10 21h1M26 21h2M30 21h1M66 21h1M73 21h1M79 21h1M11 22h1M23 22h3M37 22h2M67 22h1M73 22h1M79 22h1M21 23h2M37 23h3M62 23h1M67 23h1M73 23h1M79 23h1M19 24h2M27 24h1M35 24h2M39 24h2M63 24h1M68 24h1M73 24h1M79 24h1M22 25h1M33 25h2M40 25h6M64 25h1M68 25h1M73 25h1M79 25h1M22 26h1M32 26h2M41 26h2M47 26h4M65 26h1M68 26h1M73 26h1M79 26h1M22 27h1M31 27h1M41 27h2M52 27h3M65 27h1M69 27h1M73 27h1M78 27h1M28 28h3M40 28h4M54 28h2M66 28h1M69 28h1M73 28h1M78 28h1M17 29h2M22 29h1M29 29h4M39 29h2M43 29h2M54 29h1M66 29h1M69 29h1M72 29h1M78 29h1M19 30h3M31 30h10M44 30h2M54 30h1M67 30h1M69 30h1M72 30h1M77 30h1M12 31h1M31 31h1M38 31h2M45 31h2M54 31h1M67 31h1M69 31h1M72 31h1M77 31h1M12 32h1M30 32h2M38 32h2M46 32h2M50 32h4M67 32h1M69 32h1M72 32h1M76 32h1M13 33h1M30 33h1M47 33h4M68 33h1M72 33h1M76 33h1M29 34h2M47 34h1M68 34h1M71 34h1M75 34h1M29 35h1M47 35h1M62 35h1M68 35h1M71 35h1M29 36h1M63 36h2M70 36h1M48 37h1M65 37h3M49 38h1M68 38h1M49 39h1M68 39h1M30 40h2M50 40h1M68 40h1M30 41h2M50 41h1M67 41h1M50 42h1M67 42h3M50 43h1M66 43h1M68 43h2M50 44h1M66 44h1M50 45h1M65 45h1M65 47h2M65 48h3M67 49h1M34 50h2M47 50h1M34 51h2M44 51h3M43 52h1M45 52h1M65 52h1M43 53h2M64 53h1M40 54h3M37 55h3M21 64h1M22 65h1M23 66h1M24 67h1M25 68h1" />
<path stroke="#946a6a" d="M22 4h2M21 5h1M21 6h1M21 7h1M20 8h1M20 9h1M19 10h1M19 11h1M18 12h1M18 13h1M17 14h1M16 15h1M15 16h1M24 17h1M25 18h1M12 23h1M10 25h1M17 25h2M10 26h1M11 27h1M11 28h1M11 29h1M11 30h1M54 32h1M21 33h1M51 33h1M20 35h1M20 36h1M20 37h1M20 38h1M19 39h1M19 40h1M19 41h1M18 42h1M18 43h1M18 44h1M18 45h1M18 46h1M50 46h1M17 47h1M50 47h1M17 48h1M50 48h1M17 49h1M50 49h1M17 50h1M17 51h1M17 52h1M17 53h1M17 54h1M18 55h1M18 56h1M18 57h1M18 58h1M19 59h1M19 60h1M20 61h1M20 62h1M21 63h1" />
<path stroke="#ffdea4" d="M22 5h2M22 6h2M22 7h2M21 8h3M21 9h3M20 10h3M20 11h3M19 12h4M19 13h4M18 14h4M17 15h5M16 16h6M18 17h3M19 18h2M19 19h1M14 20h1M18 20h2M14 21h5M14 22h4M10 23h2M14 23h4M10 24h3M14 24h3M11 25h6M19 25h3M12 26h8M12 27h6M12 28h6M12 29h5M55 29h2M12 30h6M55 30h3M13 31h5M55 31h4M13 32h4M56 32h3M14 33h2M57 33h3M58 34h2M59 35h2M60 36h1M60 37h2M21 38h2M61 38h1M20 39h4M50 39h1M61 39h2M20 40h4M51 40h1M62 40h1M20 41h4M51 41h1M62 41h1M19 42h5M51 42h2M19 43h6M51 43h2M19 44h6M51 44h3M19 45h1M22 45h3M51 45h3M23 46h2M51 46h3M18 47h1M23 47h2M51 47h3M24 48h2M49 48h1M51 48h4M24 49h2M49 49h1M51 49h4M24 50h2M48 50h1M50 50h5M24 51h2M47 51h2M50 51h5M24 52h3M46 52h2M49 52h6M18 53h1M23 53h4M45 53h10M18 54h1M23 54h4M43 54h12M19 55h1M22 55h6M40 55h14M19 56h9M37 56h17M19 57h10M38 57h16M19 58h10M40 58h13M20 59h10M42 59h11M20 60h10M43 60h9M21 61h10M44 61h7M21 62h2M24 62h7M44 62h6M23 63h1M25 63h1M27 63h5M41 63h8M22 64h1M24 64h1M26 64h1M28 64h4M42 64h5M23 65h1M25 65h1M30 65h3M37 65h2M42 65h3M32 66h2M37 66h5" />
<path stroke="#deb483" d="M23 10h1M23 11h1M23 12h1M23 13h1M22 14h2M22 15h2M22 16h2M21 17h3M21 18h4M20 19h2M9 22h2M21 24h3M11 26h1M23 26h1M18 27h1M23 27h1M23 28h1M23 29h1M18 30h1M22 30h2M18 31h6M17 32h7M55 32h1M59 32h1M16 33h5M22 33h2M52 33h5M15 34h4M21 34h3M48 34h10M60 34h1M21 35h3M48 35h11M21 36h3M48 36h12M61 36h1M21 37h3M49 37h11M23 38h1M50 38h11M62 38h1M51 39h10M52 40h10M52 41h10M53 42h11M53 43h11M54 44h10M54 45h10M54 46h10M54 47h10M55 48h9M55 49h9M49 50h1M55 50h9M49 51h1M55 51h9M48 52h1M55 52h9M55 53h8M55 54h8M54 55h9M54 56h8M54 57h8M53 58h9M53 59h8M52 60h9M51 61h9M23 62h1M50 62h10M22 63h1M24 63h1M26 63h1M49 63h10M23 64h1M25 64h1M27 64h1M47 64h11M24 65h1M26 65h4M45 65h12M24 66h8M42 66h14M25 67h10M37 67h18M26 68h27M28 69h23M30 70h18M34 71h11" />
<path stroke="#007394" d="M67 13h1M66 14h1M77 14h1M61 15h2M66 15h1M76 15h1M60 16h1M63 16h1M65 16h1M75 16h1M60 17h1M65 17h1M74 17h1M60 18h1M74 18h1M59 19h1M73 19h1M55 20h2M59 20h1M73 20h1M54 21h1M57 21h3M54 22h1M60 22h2M54 23h1M37 24h1M55 24h1M35 25h1M46 25h2M55 25h1M46 26h1M51 26h2M55 26h1M32 27h1M51 27h1M56 27h1M31 28h1M37 28h3M44 28h4M34 29h5M45 29h6M46 30h7M59 30h1M30 31h1M32 31h6M47 31h7M60 31h1M65 31h2M68 31h1M29 32h1M32 32h6M48 32h2M61 32h1M66 32h1M68 32h1M70 32h1M29 33h1M31 33h7M61 33h2M66 33h2M69 33h3M73 33h2M31 34h5M62 34h3M67 34h1M69 34h2M72 34h3M30 35h5M63 35h5M69 35h2M72 35h2M30 36h4M65 36h5M71 36h2M30 37h3M68 37h4M30 38h3M69 38h2M30 39h2M69 39h1M69 40h1M68 41h2M31 42h1M31 43h1M67 43h1M31 44h1M67 44h3M32 45h1M66 45h3M32 46h1M65 46h4M32 47h1M67 47h2M33 48h1M33 49h2M65 49h2M65 50h2M36 51h1M65 51h1M35 52h4M44 52h1M35 53h8M36 54h4" />
<path stroke="#399ccd" d="M68 13h1M67 14h3M67 15h3M77 15h1M61 16h2M66 16h5M76 16h2M61 17h3M66 17h5M75 17h4M61 18h4M66 18h6M75 18h4M60 19h5M66 19h6M74 19h5M60 20h6M67 20h5M74 20h5M55 21h2M60 21h6M67 21h6M74 21h5M39 22h6M55 22h5M62 22h5M68 22h5M74 22h5M40 23h8M55 23h7M63 23h4M70 23h3M74 23h1M76 23h3M38 24h1M41 24h10M56 24h7M66 24h2M70 24h3M76 24h3M36 25h4M48 25h5M56 25h8M67 25h1M70 25h3M77 25h2M34 26h7M43 26h3M53 26h1M56 26h9M67 26h1M71 26h2M77 26h2M33 27h8M43 27h8M57 27h2M61 27h4M67 27h2M71 27h2M76 27h2M32 28h5M48 28h6M57 28h2M63 28h3M68 28h1M71 28h2M76 28h2M28 29h1M33 29h1M51 29h3M58 29h2M64 29h2M68 29h1M71 29h1M76 29h2M28 30h3M53 30h1M65 30h2M68 30h1M71 30h1M75 30h2M29 31h1M71 31h1M75 31h2M71 32h1M74 32h2M75 33h1" />
<path stroke="#622929" d="M14 17h1M14 18h1M27 25h1M27 26h1M27 27h1M27 28h1M27 29h1M27 30h1M28 31h1M24 32h1M28 32h1M24 33h1M28 33h1M24 34h1M28 34h1M14 35h1M24 35h1M28 35h1M13 36h1M17 36h1M24 36h1M28 36h1M13 37h1M17 37h1M24 37h1M29 37h1M13 38h1M16 38h1M24 38h1M29 38h1M12 39h1M16 39h1M24 39h1M29 39h1M12 40h1M16 40h1M24 40h1M29 40h1M12 41h1M16 41h1M24 41h1M29 41h1M11 42h1M15 42h1M24 42h1M30 42h1M11 43h1M15 43h1M25 43h1M30 43h1M10 44h1M15 44h1M25 44h1M30 44h1M10 45h1M15 45h1M25 45h1M31 45h1M10 46h1M15 46h1M25 46h1M31 46h1M14 47h1M25 47h1M31 47h1M14 48h1M26 48h1M32 48h1M14 49h1M26 49h1M32 49h1M14 50h1M26 50h1M33 50h1M14 51h1M26 51h1M33 51h1M14 52h1M27 52h1M34 52h1M13 53h1M27 53h1M34 53h1M13 54h1M27 54h1M35 54h1M13 55h1M28 55h1M36 55h1M13 56h1M28 56h1M13 57h1M29 57h1M12 58h1M29 58h1M12 59h1M30 59h1M11 60h1M30 60h1M1 61h3M11 61h1M31 61h1M10 62h1M31 62h1M41 62h3M6 63h1M10 63h1M32 63h1M5 64h1M9 64h1M32 64h1M37 64h2M2 65h2M7 65h2M33 65h1M39 65h3M34 66h1M35 67h2" />
<path stroke="#fff6cd" d="M15 17h3M15 18h4M14 19h5M15 20h3M20 27h1M20 45h2M19 46h4M19 47h4M18 48h6M18 49h6M18 50h6M18 51h6M18 52h6M19 53h4M19 54h4M20 55h2" />
<path stroke="#833939" d="M24 19h2M26 20h1" />
<path stroke="#ee6a7b" d="M13 20h1M22 20h2M12 21h2M20 21h6M12 22h2M19 22h4M13 23h1M19 23h2M13 24h1M18 24h1M25 37h1M25 38h1M25 39h1M25 40h1M25 41h1M25 42h2M26 43h1M26 44h1M11 45h1M13 45h1M26 45h2M29 45h1M12 46h1M26 46h3M30 46h1M10 47h2M13 47h1M26 47h2M29 47h1M10 48h3M27 48h2M30 48h2M10 49h4M27 49h5M9 50h5M27 50h6M9 51h5M27 51h6M8 52h5M28 52h6M8 53h5M28 53h6M7 54h6M28 54h7M7 55h6M29 55h7M6 56h7M29 56h7M5 57h7M30 57h7M4 58h8M30 58h8M3 59h9M31 59h9M2 60h2M5 60h6M31 60h11M5 61h6M32 61h7M40 61h3M4 62h3M8 62h2M32 62h3M36 62h4M3 63h3M8 63h2M33 63h2M36 63h4M3 64h1M8 64h1M33 64h3M39 64h2M34 65h2M35 66h1" />
<path stroke="#101020" d="M29 21h1M37 21h8M28 22h1M34 22h3M45 22h3M26 23h2M31 23h3M48 23h3M24 24h2M29 24h2M51 24h2M23 25h1M28 25h1M53 25h1M20 26h2M54 26h1M19 27h1M21 27h1M55 27h1M18 28h4M56 28h1M20 29h1M57 29h1M58 30h1M59 31h1M60 32h1M38 33h6M60 33h1M14 34h1M19 34h2M36 34h2M44 34h2M61 34h1M15 35h4M35 35h1M46 35h1M61 35h1M74 35h1M34 36h1M47 36h1M62 36h1M73 36h1M33 37h1M62 37h1M72 37h1M33 38h1M63 38h1M71 38h1M32 39h1M63 39h1M70 39h1M32 40h1M63 40h1M70 40h1M32 41h1M63 41h1M70 41h1M32 42h1M64 42h1M70 42h1M32 43h1M64 43h1M70 43h1M32 44h1M64 44h1M70 44h1M33 45h1M64 45h1M69 45h1M33 46h1M49 46h1M64 46h1M69 46h1M33 47h1M49 47h1M64 47h1M69 47h1M34 48h1M48 48h1M64 48h1M68 48h1M35 49h1M48 49h1M64 49h1M68 49h1M36 50h1M64 50h1M67 50h1M37 51h2M64 51h1M66 51h1M39 52h4M64 52h1M63 53h1M63 54h1M63 55h1M62 56h1M62 57h1M62 58h1M61 59h1M61 60h1M60 61h1M60 62h1M59 63h1M58 64h1M57 65h1M56 66h1M55 67h1M53 68h2M26 69h2M51 69h2M28 70h2M48 70h3M30 71h4M45 71h3M34 72h11" />
</svg>