<svg xmlns="http://www.w3.org/2000/svg" viewBox="0 -0.5 80 80" shape-rendering="crispEdges">
<metadata>Made with Pixels to Svg https://codepen.io/shshaw/pen/XbxvNj</metadata>
<path stroke="#832939" d="M64 9h2M63 10h1M65 10h1M63 11h1M65 11h1M62 12h1M65 12h1M62 13h1M65 13h1M62 14h1M66 14h2M61 15h1M61 16h1M65 16h2M61 17h1M60 18h1M60 19h1M64 19h2M60 20h1M19 21h1M59 21h1M18 22h1M59 22h1M17 23h1M59 23h1M17 24h1M58 24h1M62 24h1M16 25h1M26 25h3M58 25h1M16 26h1M25 26h1M58 26h1M15 27h1M57 27h1M15 28h1M24 28h1M57 28h1M15 29h1M24 29h1M57 29h1M61 29h1M15 30h1M24 30h2M56 30h1M15 31h1M56 31h1M16 32h1M56 32h1M16 33h2M22 33h1M55 33h1M24 34h1M55 34h1M60 34h1M55 35h1M54 36h1M54 37h1M54 38h1M53 39h1M59 39h1M48 40h6M46 41h2M52 41h1M12 42h1M44 42h2M11 43h1M13 43h1M48 43h3M58 43h1M7 44h5M13 44h1M15 44h1M52 44h1M6 45h1M14 45h1M16 45h1M17 46h5M56 46h1M22 47h5M27 48h4M45 51h5M43 52h2M50 52h2M56 52h1M42 53h1M41 54h1M68 54h7M58 55h1M60 55h2M66 55h2M20 56h4M58 56h1M18 57h2M57 57h1M74 57h1M16 58h2M45 58h3M55 58h2M59 58h1M71 58h2M15 59h1M48 59h7M64 59h1M74 59h1M14 60h1M61 60h1M60 61h2M60 62h1M59 63h2M57 64h2M45 67h1M47 67h3M45 68h1M48 68h3M44 69h1M50 69h1M44 70h1M44 71h1M48 71h1M44 72h1" />
<path stroke="#ff6262" d="M64 10h1M64 11h1M63 12h1M63 13h1M63 14h1M62 15h1M62 16h1M62 17h1M61 18h1M61 19h1M61 20h1M20 21h6M60 21h2M19 22h9M60 22h1M22 23h2M60 23h1M59 24h2M59 25h1M59 26h1M16 27h1M58 27h2M16 28h1M58 28h1M16 29h2M58 29h1M16 30h2M57 30h2M16 31h3M57 31h1M17 32h2M57 32h1M56 33h2M56 34h2M56 35h1M55 36h2M55 37h2M55 38h1M54 39h2M54 40h2M53 41h2M50 42h5M52 43h2M8 45h3M11 46h3M14 47h3M45 52h5M34 53h2M43 53h6M33 54h4M42 54h6M33 55h6M44 55h2M68 55h6M32 56h2M37 56h4M67 56h6M20 57h2M33 57h1M35 57h1M68 57h6M18 58h5M33 58h1M35 58h2M68 58h3M16 59h7M69 59h5M16 60h6M69 60h4M19 61h1M70 61h4" />
<path stroke="#de4a52" d="M64 12h1M63 15h1M62 18h1M61 22h1M24 23h5M23 24h7M23 25h3M29 25h2M60 25h1M23 26h2M29 26h2M22 27h3M20 28h4M59 28h1M18 29h6M18 30h6M19 31h3M58 31h1M23 34h1M57 35h1M56 38h1M51 41h1M49 42h1M11 45h1M14 46h1M17 47h1M49 53h1M48 54h1M67 57h1M68 59h1" />
<path stroke="#bd314a" d="M64 13h1M64 14h2M64 15h4M63 16h2M63 17h2M63 18h3M62 19h2M62 20h2M62 21h1M62 22h1M61 23h2M61 24h1M61 25h1M60 26h2M60 27h2M60 28h2M59 29h2M59 30h2M59 31h2M58 32h3M58 33h3M58 34h2M58 35h2M57 36h3M57 37h3M57 38h3M56 39h3M56 40h3M48 41h3M55 41h4M46 42h3M55 42h4M12 43h1M47 43h1M51 43h1M54 43h4M12 44h1M53 44h7M7 45h1M12 45h2M15 45h1M54 45h6M10 46h1M15 46h2M55 46h1M57 46h4M13 47h1M18 47h4M56 47h1M58 47h3M16 48h11M57 48h1M59 48h2M19 49h11M57 49h2M60 49h1M22 50h8M58 50h1M60 50h1M25 51h5M58 51h2M28 52h2M34 52h2M57 52h3M33 53h1M36 53h1M50 53h2M57 53h4M37 54h2M49 54h3M58 54h3M32 55h1M39 55h1M43 55h1M46 55h5M59 55h1M43 56h6M59 56h8M22 57h2M40 57h2M58 57h9M23 58h3M37 58h1M57 58h2M62 58h6M23 59h2M35 59h5M42 59h6M55 59h6M65 59h3M15 60h1M22 60h2M35 60h3M41 60h19M67 60h2M16 61h1M20 61h1M40 61h20M37 62h22M39 63h18M41 64h14M44 65h8M46 67h1M46 68h2M45 69h4M45 70h2M48 70h1M45 71h1" />
<path stroke="#7b7394" d="M24 14h2M23 15h1M35 15h4M22 16h1M33 16h2M22 17h1M31 17h2M21 18h1M30 18h1M38 18h1M21 19h6M28 19h2M37 19h1M20 20h2M26 20h2M35 21h1M34 23h1M33 28h1M21 35h1M35 36h2M37 38h1M38 39h1M41 42h1M30 43h1M31 45h1M32 47h1M47 47h5M32 48h1M52 48h2M30 49h1M54 49h1M30 50h1M44 50h1M50 50h2M55 50h1M30 51h1M52 51h1M30 52h1M52 52h1M30 53h1M53 53h1M29 54h1M31 54h1M28 57h1M27 58h1M14 61h1M17 61h1M13 62h1M16 62h1" />
<path stroke="#eeeeff" d="M24 15h1M23 16h2M35 16h2M23 17h1M33 17h3M22 18h2M31 18h3M30 19h2M30 20h1M19 23h2M18 24h4M17 25h4M17 26h3M17 27h3M17 28h2M40 43h1M42 43h1M39 44h1M41 44h1M43 44h1M40 45h1M42 45h1M39 46h1M41 46h1M38 47h3M42 47h1M37 48h5M47 48h2M31 49h1M35 49h9M45 49h6M31 50h13M45 50h4M31 51h14M31 52h3M36 52h7M31 53h2M37 53h5M30 54h1M32 54h1M39 54h2M30 55h1M41 55h1M30 56h1M30 57h1M17 62h1" />
<path stroke="#101010" d="M25 15h1M68 15h1M25 16h1M38 16h1M67 16h1M25 17h1M37 17h1M65 17h1M25 18h1M66 18h1M36 20h1M64 20h1M63 21h1M35 22h1M63 22h1M63 23h1M34 24h1M63 24h1M34 25h1M62 25h1M34 26h1M62 26h1M34 27h1M62 27h1M26 28h1M34 28h1M62 28h1M26 29h1M33 29h1M62 29h1M33 30h1M61 30h1M33 31h1M61 31h1M33 32h1M61 32h1M23 33h2M34 33h1M61 33h1M17 34h3M34 34h1M61 34h1M20 35h1M35 35h1M60 35h1M21 36h2M60 36h1M23 37h2M36 37h1M60 37h1M25 38h1M60 38h1M26 39h1M60 39h1M27 40h1M39 40h1M59 40h1M28 41h1M40 41h2M59 41h1M29 42h1M42 42h2M59 42h1M59 43h1M30 44h1M60 44h1M60 45h1M7 46h3M31 46h1M61 46h1M10 47h3M31 47h1M57 47h1M61 47h1M13 48h3M31 48h1M58 48h1M61 48h1M16 49h3M59 49h1M61 49h1M19 50h3M59 50h1M61 50h1M22 51h3M55 51h1M60 51h1M25 52h3M54 52h1M60 52h1M28 53h2M52 53h1M61 53h1M52 54h1M61 54h1M29 55h1M31 55h1M40 55h1M51 55h1M62 55h4M74 55h1M29 56h1M31 56h1M41 56h2M49 56h2M73 56h1M24 57h2M29 57h1M32 57h1M42 57h1M45 57h4M26 58h1M30 58h1M32 58h1M42 58h3M60 58h2M25 59h1M28 59h4M33 59h1M61 59h3M24 60h4M32 60h2M60 60h1M62 60h1M64 60h3M73 60h1M15 61h1M18 61h1M21 61h3M34 61h1M62 61h1M67 61h3M74 61h1M15 62h1M18 62h3M35 62h2M59 62h1M61 62h1M70 62h5M13 63h2M16 63h2M37 63h2M57 63h2M61 63h1M39 64h2M55 64h2M59 64h2M41 65h3M52 65h7M44 66h8M50 67h1M51 68h1M49 69h1M51 69h1M47 70h1M50 70h2M46 71h1M45 72h1" />
<path stroke="#d5cde6" d="M37 16h1M24 17h1M36 17h1M24 18h1M34 18h4M32 19h5M22 20h4M28 20h2M31 20h5M26 21h9M28 22h7M29 23h5M22 24h1M30 24h4M21 25h2M31 25h3M20 26h2M27 26h1M31 26h3M20 27h1M30 27h4M29 28h4M29 29h4M29 30h4M23 31h10M20 32h13M18 33h4M25 33h9M20 34h3M25 34h9M22 35h13M24 36h11M25 37h11M26 38h11M27 39h11M28 40h11M29 41h11M30 42h11M31 43h9M41 43h1M43 43h4M31 44h8M40 44h1M42 44h1M44 44h7M32 45h8M41 45h1M43 45h10M33 46h6M40 46h1M42 46h12M33 47h5M41 47h1M43 47h4M52 47h3M33 48h4M42 48h3M49 48h3M54 48h2M33 49h2M51 49h3M55 49h2M52 50h3M56 50h1M50 51h2M53 51h2M56 51h2M53 52h1M55 52h1M54 53h2M53 54h4M42 55h1M52 55h6M51 56h7M31 57h1M43 57h2M49 57h8M28 58h2M31 58h1M48 58h7M26 59h2M32 59h1" />
<path stroke="#ffa473" d="M18 23h1M21 23h1M22 26h1M21 27h1M19 28h1M22 31h1M19 32h1" />
<path stroke="#cda44a" d="M26 26h1M26 27h1M25 28h1M25 29h1" />
<path stroke="#ffffff" d="M28 26h1M25 27h1M28 27h1M28 28h1M28 29h1M14 62h1" />
<path stroke="#ffcd5a" d="M27 27h1M27 28h1M27 29h1" />
<path stroke="#aca4cd" d="M29 27h1M26 30h3M23 36h1M51 44h1M53 45h1M32 46h1M54 46h1M55 47h1M45 48h2M56 48h1M32 49h1M44 49h1M49 50h1M57 50h1M56 53h1M57 54h1" />
<path stroke="#73acee" d="M34 56h3M34 57h1M36 57h4M34 58h1" />
<path stroke="#5a6ab4" d="M38 58h4M34 59h1M40 59h2M34 60h1M38 60h3M35 61h5" />
</svg>