<svg xmlns="http://www.w3.org/2000/svg" viewBox="0 -0.5 80 80" shape-rendering="crispEdges">
<metadata>Made with Pixels to Svg https://codepen.io/shshaw/pen/XbxvNj</metadata>
<path stroke="#73a44a" d="M43 23h3M41 24h2M40 25h1M39 26h1M38 27h1M47 27h1M38 28h1M39 30h1M43 30h1M38 31h1M40 31h3M44 31h1M47 31h1M45 32h2M50 32h1M49 33h1M39 34h1M39 35h3M40 36h1M41 37h1M36 38h2M34 39h2M45 39h1M33 40h1M44 40h1M32 41h1M31 42h1M49 42h1M31 43h1M30 44h1M50 44h1M50 45h1M50 46h1M49 47h3M49 48h3M50 49h2M30 50h1M50 50h2M30 51h1M50 51h2M31 52h1M49 52h2M31 53h4M48 53h3M34 54h1M44 54h1M47 54h3M35 55h1M43 55h1M48 55h2M36 56h2M41 56h2M35 57h9M38 58h5" />
<path stroke="#b4ee73" d="M43 24h3M41 25h6M40 26h1M42 26h3M46 26h1M48 26h1M39 27h1M41 27h3M46 27h1M48 27h2M39 28h5M45 28h3M49 28h1M38 29h10M49 29h2M38 30h1M40 30h3M44 30h4M49 30h2M45 31h2M49 31h2M49 32h1" />
<path stroke="#000000" d="M46 24h1M47 25h1M41 26h1M45 26h1M47 26h1M40 27h1M44 28h1M48 29h1M48 30h1M48 31h1M47 32h1M47 33h1M51 33h1M38 34h1M46 34h1M50 34h1M50 35h1M39 36h1M48 37h1M45 38h3M42 39h3M37 43h1M50 43h1M43 44h1M36 45h1M43 45h1M51 45h1M51 46h1M52 47h1M29 48h1M52 48h1M29 49h1M52 49h1M29 50h1M52 50h1M29 51h1M52 51h1M30 52h1M51 52h1M30 53h1M51 53h1M50 54h1M31 55h1M50 55h1M49 56h1M34 57h1M48 57h1M32 58h2M35 58h2M43 58h2M47 58h1M38 59h5M45 59h2" />
<path stroke="#395a29" d="M48 25h1M49 26h1M44 27h2M50 27h1M48 28h1M50 28h1M37 29h1M51 29h1M37 30h1M51 30h1M37 31h1M51 31h1M37 32h1M48 32h1M51 32h1M37 33h1M50 33h1M38 35h1M44 35h2M41 36h3M49 36h1M38 37h3M40 39h2M47 39h1M42 40h2M48 40h1M44 41h1M49 41h1M45 42h1M50 42h1M34 43h1M46 43h1M46 44h1M51 44h1M30 45h1M33 45h1M47 45h1M30 46h1M33 46h1M29 47h1M33 47h1M44 53h1M31 54h1" />
<path stroke="#7bd55a" d="M39 31h1M43 31h1M38 32h7M38 33h9M48 33h1M40 34h6M47 34h3M42 35h2M46 35h4M44 36h5M42 37h6M38 38h7M36 39h4M46 39h1M34 40h4M45 40h3M33 41h3M45 41h4M32 42h3M46 42h3M32 43h2M47 43h3M31 44h3M47 44h3M31 45h2M48 45h2M31 46h2M48 46h2M30 47h2M48 47h1M30 48h1M30 49h1" />
<path stroke="#948300" d="M38 40h2M36 41h1M35 42h1M34 44h1M36 44h2M43 46h1M34 47h1M37 47h1M40 47h2M46 47h1M38 48h2M36 49h1M43 49h1M32 54h2M45 54h2M34 55h1M44 55h1M47 55h1M30 56h1M35 56h1M43 56h1M48 56h1M30 57h1M44 57h1M47 57h1M31 58h1M45 58h1" />
<path stroke="#ffee6a" d="M40 40h2M38 41h6M36 42h9M35 43h2M38 43h8M35 44h1M38 44h5M44 44h2M34 45h2M37 45h6M44 45h2M35 46h8M44 46h1M36 47h1M38 47h2M42 47h1M31 56h1M31 57h1M46 57h1M46 58h1" />
<path stroke="#e6bd39" d="M37 41h1M46 45h1M34 46h1M45 46h2M35 47h1M43 47h3M35 48h3M40 48h6M37 49h6M32 55h2M45 55h2M32 56h3M44 56h4M32 57h2M45 57h1" />
<path stroke="#20524a" d="M47 46h1M32 47h1M47 47h1M31 48h1M34 48h1M46 48h1M48 48h1M31 49h1M35 49h1M44 49h2M49 49h1M31 50h1M37 50h6M49 50h1M31 51h1M35 51h1M49 51h1M32 52h3M43 52h1M48 52h1M35 53h1M43 53h1M45 53h3M35 54h1M43 54h1M36 55h2M41 55h2M38 56h3M37 58h1" />
<path stroke="#317b62" d="M32 48h1M48 49h1M47 50h2M32 51h1M45 51h4M35 52h2M42 52h1M44 52h4M36 53h7M36 54h7M38 55h3" />
<path stroke="#4a9473" d="M33 48h1M47 48h1M32 49h3M46 49h2M32 50h5M43 50h4M33 51h2M36 51h9M37 52h5" />
</svg>