<svg xmlns="http://www.w3.org/2000/svg" viewBox="0 -0.5 80 80" shape-rendering="crispEdges">
<metadata>Made with Pixels to Svg https://codepen.io/shshaw/pen/XbxvNj</metadata>
<path stroke="#292931" d="M42 16h2M41 17h1M43 17h1M43 18h1M40 19h1M40 20h1M43 22h1M38 23h1M42 23h1M38 24h1M41 24h2M39 25h4M43 26h1M36 28h1M36 29h1" />
<path stroke="#83837b" d="M42 17h1M41 21h1M40 22h2M39 23h2M40 26h1M38 27h3M37 28h3M36 32h2M34 38h2M33 39h1M34 40h1" />
<path stroke="#5a5a5a" d="M41 18h2M41 19h1M40 21h1M42 21h2M42 22h1M41 23h1M39 24h2M38 26h2M41 26h2M37 27h1M41 27h2M40 28h2M37 29h2M38 31h3M38 32h5M35 37h4M33 38h1M36 38h4M35 39h3M40 39h1M35 40h3M40 40h1M36 41h2M40 41h1M31 42h2M34 42h6M31 43h3M35 43h4M33 44h4" />
<path stroke="#393941" d="M42 19h1M41 20h3M39 22h1M39 29h2M36 31h2M41 31h1M35 32h1M38 33h2M42 33h1M35 36h4M33 37h2M39 37h1M32 38h1M40 38h1M34 39h1M41 40h1M30 41h1M33 41h3M41 41h1M30 42h1M40 42h1M34 43h1M39 43h1M32 44h1M37 44h2M40 53h1M40 54h1M43 54h1M30 55h1M40 55h1M44 55h1M29 56h1M32 56h1M41 56h2M45 56h1M31 57h1M43 57h1M45 57h1M43 58h1M46 58h1M46 59h1M45 60h1" />
<path stroke="#101010" d="M44 21h1M44 22h1M43 23h1M43 27h1M42 28h1M41 29h1M37 30h6M42 31h1M43 32h1M43 33h1M44 34h1M46 36h1M47 37h1M47 38h1M48 39h1M31 40h1M33 40h1M38 40h1M49 40h1M32 41h1M49 41h1M33 42h1M50 43h1M50 44h1M50 45h1M49 47h1M50 48h1M50 49h1M50 50h1M49 51h1M49 52h1M48 53h1M48 54h1M48 55h1M28 56h1M47 56h1M27 57h1M46 57h1M27 58h1M29 58h2M32 58h1M44 58h1M27 59h1M29 59h1M33 59h3M42 59h1M44 59h1M27 60h1M29 60h1M36 60h1M41 60h1M28 61h1M42 61h1M38 62h1M43 62h1M35 63h1M37 63h1M39 63h1M41 63h1M44 63h1M36 64h1M39 64h1M42 64h2M40 65h2" />
<path stroke="#8b5262" d="M35 33h3M33 34h1M32 35h1M30 36h1M46 38h1M30 43h1M40 43h2M39 44h1M32 45h1M37 45h1M40 45h1M31 46h1M48 46h1M31 47h1M35 58h1M40 60h1M38 61h1M43 63h1" />
<path stroke="#62414a" d="M40 33h2M43 34h1M44 35h2M29 37h1M28 38h1M28 39h1M29 40h1M28 41h1M28 42h1M49 42h1M27 43h1M27 44h1M27 45h1M26 46h1M49 46h1M26 47h1M26 48h1M27 49h1M27 50h1M28 51h1M28 52h1M41 52h1M47 52h1M28 53h1M31 53h1M42 53h1M29 54h2M32 54h1M42 54h1M32 55h1M37 60h1M36 61h1M35 62h1M40 62h1M41 64h1" />
<path stroke="#b46a7b" d="M34 34h1M38 34h2M42 34h1M31 36h1M40 37h1M41 38h1M30 39h1M41 39h1M30 40h1M48 40h1M29 44h1M31 44h1M42 44h1M28 45h1M30 45h1M33 45h1M36 45h1M43 45h1M49 45h1M29 46h1M38 46h1M41 46h1M43 46h1M29 47h1M39 47h1M41 47h1M31 48h1M39 48h1M49 50h1M29 51h1M48 51h1M38 52h1M42 52h1M45 52h2M48 52h1M29 53h1M39 53h1M43 53h5M33 54h1M37 54h1M39 54h1M44 54h4M33 55h2M36 55h1M38 55h1M45 55h3M33 56h3M37 56h1M39 56h2M46 56h1M32 57h11M33 58h2M36 58h7M36 59h6M38 60h2M37 61h1M39 61h3M36 62h2M39 62h1M41 62h2M36 63h1M40 63h1M42 63h1M40 64h1" />
<path stroke="#ee949c" d="M35 34h3M40 34h2M33 35h11M32 36h3M39 36h7M30 37h3M41 37h6M29 38h3M42 38h4M29 39h1M42 39h6M42 40h6M29 41h1M42 41h7M29 42h1M41 42h8M28 43h2M42 43h8M28 44h1M30 44h1M40 44h2M43 44h7M29 45h1M31 45h1M34 45h2M38 45h2M41 45h2M44 45h5M27 46h2M30 46h1M32 46h6M39 46h2M42 46h1M44 46h4M27 47h2M30 47h1M32 47h7M40 47h1M42 47h7M27 48h4M32 48h7M40 48h10M28 49h22M28 50h21M30 51h18M29 52h9M39 52h2M43 52h2M30 53h1M32 53h7M34 54h3M38 54h1M35 55h1M37 55h1M39 55h1M36 56h1M38 56h1" />
<path stroke="#ffd54a" d="M31 39h1M38 39h1M39 40h1M31 41h1M38 41h1" />
<path stroke="#9c8b29" d="M32 39h1M39 39h1M32 40h1M39 41h1" />
<path stroke="#737b7b" d="M41 53h1M31 54h1M41 54h1M31 55h1M41 55h3M30 56h2M43 56h1M29 57h2" />
<path stroke="#9cacac" d="M44 56h1M28 57h1M44 57h1M28 58h1M45 58h1M28 59h1M45 59h1M28 60h1" />
</svg>