<svg xmlns="http://www.w3.org/2000/svg" viewBox="0 -0.5 80 80" shape-rendering="crispEdges">
<metadata>Made with Pixels to Svg https://codepen.io/shshaw/pen/XbxvNj</metadata>
<path stroke="#104a7b" d="M40 17h1M39 18h1M41 18h1M39 19h1M41 19h1M30 20h2M39 20h1M32 21h1M33 22h1M38 22h1M42 22h1M34 23h1M38 23h2M38 24h1M38 25h1M34 26h1M38 26h1M33 27h1M38 27h1M27 32h1M30 32h1M28 35h1M39 38h1M42 38h1M32 39h3M40 39h1M35 40h6M39 41h1M46 44h1M46 45h1M52 48h1M51 49h1M33 50h1M29 51h3M28 52h1M27 53h1M43 53h1M42 55h1M36 56h1M41 56h1M37 57h3M59 57h3M30 58h1M43 58h1M57 58h2M32 59h1M42 59h1M54 59h3M38 60h1M52 60h1M42 61h1M61 62h1" />
<path stroke="#4a9cee" d="M40 18h1M40 19h1M40 20h2M31 21h1M39 21h3M31 22h2M39 22h3M31 23h2M40 23h2M31 24h1M41 24h1M41 25h1M39 27h1M33 28h1M37 28h5M36 29h6M32 30h1M36 30h5M35 31h4M35 32h1M50 46h2M51 47h1M53 48h3M52 49h4M50 50h3M55 50h1M33 51h2M29 52h6M30 53h5M31 54h4M32 55h4M59 58h3M57 59h5" />
<path stroke="#101010" d="M42 20h1M30 21h1M42 21h1M30 22h1M30 23h1M43 23h1M30 24h1M34 24h1M43 24h1M31 25h1M35 25h1M43 25h1M31 26h1M43 26h1M31 27h1M43 27h2M32 28h1M44 28h1M32 29h1M44 29h1M45 30h1M31 31h1M45 31h1M19 32h1M24 32h1M31 32h1M40 32h1M46 32h1M18 33h1M22 33h2M38 33h1M46 33h1M18 34h1M20 34h2M36 34h1M38 34h1M45 34h1M47 34h1M17 35h1M27 35h1M45 35h1M48 35h1M17 36h1M25 36h2M44 36h1M48 36h1M17 37h1M19 37h1M23 37h2M28 37h1M44 37h1M49 37h1M18 38h5M29 38h1M43 38h1M45 38h1M49 38h1M35 39h2M41 39h2M45 39h1M50 39h1M56 39h1M49 40h1M51 40h1M55 40h1M36 41h1M46 41h3M52 41h3M47 42h1M47 43h2M34 44h1M49 44h2M35 45h2M51 45h1M36 46h1M47 46h2M52 46h2M38 47h1M46 47h1M49 47h2M54 47h2M38 48h1M45 48h1M51 48h1M56 48h1M44 49h1M50 49h1M56 49h1M34 50h3M44 50h1M48 50h2M56 50h1M44 51h3M43 52h2M44 53h1M28 54h1M45 54h1M45 55h1M52 55h2M46 56h2M51 56h2M24 57h1M48 57h3M24 58h1M51 58h1M62 58h1M25 59h1M29 59h3M52 59h1M63 59h1M26 60h1M30 60h1M33 60h5M53 60h1M64 60h1M26 61h1M31 61h1M39 61h2M53 61h1M64 61h1M27 62h1M32 62h1M41 62h2M53 62h3M58 62h3M65 62h1M27 63h1M32 63h1M43 63h1M53 63h1M56 63h2M61 63h1M65 63h1M33 64h1M44 64h1M53 64h1M62 64h1M65 64h1M24 65h3M33 65h1M44 65h1M52 65h1M54 65h1M62 65h1M64 65h1M23 66h1M32 66h1M45 66h1M50 66h2M53 66h2M63 66h1M23 67h1M32 67h1M46 67h4M53 67h1M55 67h1M23 68h2M30 68h2M48 68h1M52 68h1M55 68h1M25 69h5M49 69h6" />
<path stroke="#29739c" d="M38 21h1M33 23h1M42 23h1M33 24h1M42 24h1M34 25h1M42 25h1M39 26h1M41 26h2M32 27h1M40 27h3M42 28h1M28 32h2M25 33h6M24 34h6M44 34h1M25 35h2M43 35h2M41 36h3M35 37h9M32 38h5M40 38h2M37 39h3M47 44h2M47 45h4M49 46h1M52 47h2M32 51h1M28 53h2M30 54h1M35 54h1M43 54h2M31 55h1M43 55h2M31 56h5M42 56h4M31 57h6M40 57h8M31 58h12M44 58h7M33 59h9M43 59h9M62 59h1M39 60h13M54 60h10M41 61h1M43 61h10M54 61h10M43 62h10M56 62h2M62 62h3M44 63h9M62 63h3M45 64h8M63 64h2M45 65h7M63 65h1M46 66h4" />
<path stroke="#393939" d="M32 24h1M39 24h2M32 25h2M39 25h2M33 26h1M35 26h3M40 26h1M34 27h1M45 28h1M45 29h3M21 30h1M31 30h1M46 30h4M22 31h1M28 31h3M46 31h5M23 32h1M25 32h2M47 32h3M51 32h2M24 33h1M31 33h1M47 33h2M53 33h1M19 34h1M22 34h2M30 34h1M46 34h1M48 34h1M54 34h1M18 35h7M29 35h1M46 35h2M55 35h1M18 36h7M28 36h1M45 36h3M55 36h1M18 37h1M20 37h3M45 37h4M56 37h1M30 38h2M37 38h2M46 38h3M56 38h1M46 39h4M44 40h5M43 42h1M42 43h1M42 45h1M42 46h1M43 47h1M44 48h1M35 51h3M52 51h4M35 52h3M52 52h1M35 53h2M41 53h2M48 53h1M51 53h1M27 54h1M29 54h1M36 54h1M38 54h1M40 54h3M46 54h2M52 54h1M25 55h2M30 55h1M36 55h6M50 55h1M24 56h1M30 56h1M37 56h4M48 56h2M30 57h1M25 58h1M28 58h2M26 59h3M27 60h3M27 61h4M28 62h4M28 63h4M27 64h2M30 64h3M31 65h2M53 65h1M25 66h1M27 66h2M31 66h1M52 66h1M24 67h1M26 67h1M30 67h2M50 67h3M54 67h1M26 68h1M29 68h1M49 68h3M53 68h2" />
<path stroke="#5a5a5a" d="M32 26h1M35 27h3M34 28h1M36 28h1M43 28h1M33 29h1M42 29h2M35 30h1M41 30h4M32 31h1M39 31h6M37 32h3M41 32h5M50 32h1M36 33h2M41 33h5M49 33h4M35 34h1M41 34h3M49 34h5M34 35h3M40 35h3M49 35h6M29 36h1M32 36h9M49 36h6M29 37h6M50 37h6M50 38h6M51 39h5M52 40h3M37 41h1M45 41h1M37 42h1M44 42h3M45 43h2M45 44h1M43 45h3M43 46h4M44 47h2M38 49h1M37 50h1M53 50h2M47 51h5M45 52h7M45 53h3M49 53h2M48 54h4M27 55h3M46 55h4M51 55h1M28 56h2M50 56h1M28 57h2M26 58h2M29 64h1M27 65h4M29 66h2M29 67h1" />
<path stroke="#838383" d="M35 28h1M34 29h2M20 30h1M33 30h2M20 31h1M33 31h2M32 32h3M36 32h1M19 33h1M32 33h4M31 34h4M30 35h4M30 36h2M44 39h1M41 40h1M40 41h1M38 42h1M39 43h1M43 43h2M43 44h2M56 51h1M57 52h1M56 53h1M37 54h1M54 54h2M25 56h3M25 57h3M24 66h1M26 66h1M25 67h1M27 67h2M25 68h1M27 68h2" />
<path stroke="#d5d5d5" d="M21 31h1M20 32h3M20 33h2M37 43h2M38 44h1M53 52h2M52 53h2M53 54h1" />
<path stroke="#de4141" d="M39 33h1M37 34h1M39 34h1M37 35h2" />
<path stroke="#ffffff" d="M40 33h1M40 34h1M39 35h1M36 43h1M35 44h3M55 52h2M54 53h2" />
<path stroke="#b4b462" d="M43 39h1M42 40h2M38 41h1M41 41h2M39 42h4M40 43h2M42 44h1M41 47h2M39 48h5M39 49h5M38 50h6M38 51h6M38 52h5M39 53h2M39 54h1" />
<path stroke="#e6e69c" d="M43 41h2M40 44h2M39 45h3M37 46h5M39 47h2M37 53h2" />
<path stroke="#524120" d="M36 42h1M35 43h1M39 44h1M37 45h2M37 47h1" />
</svg>