<svg xmlns="http://www.w3.org/2000/svg" viewBox="0 -0.5 80 80" shape-rendering="crispEdges">
<metadata>Made with Pixels to Svg https://codepen.io/shshaw/pen/XbxvNj</metadata>
<path stroke="#625239" d="M28 30h4M37 30h6M26 31h2M32 31h5M43 31h2M25 32h1M40 46h1M39 47h1M39 48h1M65 52h1M65 53h1M47 54h1M54 54h2M65 54h1M46 55h1M65 55h1M66 56h1M73 56h1M62 57h2M66 57h1M74 57h1M41 58h2M60 58h2M65 58h2M75 58h1M36 59h4M43 59h1M57 59h2M66 59h1M77 59h1M65 61h1" />
<path stroke="#cdb439" d="M28 31h4M37 31h6M26 32h19M26 33h14M43 33h3M25 34h14M45 34h2M25 35h13M46 35h1M24 36h14M46 36h2M24 37h13M47 37h1M23 38h14M47 38h2M23 39h14M47 39h2M22 40h15M47 40h4M21 41h17M46 41h6M28 42h10M46 42h6M33 43h6M45 43h8M35 44h5M43 44h10M36 45h18M37 46h3M41 46h14M38 47h1M40 47h15M38 48h1M40 48h8M49 48h7M39 49h9M49 49h8M39 50h8M48 50h10M39 51h8M48 51h11M39 52h7M47 52h13M39 53h6M46 53h8M55 53h6M40 54h2M45 54h2M49 54h5M56 54h2M59 54h1M61 54h1M42 55h4M48 55h7M58 55h1M60 55h1M47 56h8M59 56h1M41 57h4M47 57h9M36 58h5M43 58h2M46 58h10M46 59h10M46 60h9M49 61h4" />
<path stroke="#393941" d="M23 32h2M48 32h3M21 33h2M47 33h1M51 33h1M54 33h1M20 34h1M47 34h1M60 34h1M20 35h1M47 35h1M61 35h1M19 36h1M48 36h1M52 36h1M61 36h1M63 36h1M19 37h1M41 37h4M48 37h1M52 37h1M57 37h1M60 37h1M64 37h2M67 37h3M20 38h1M22 38h1M39 38h3M44 38h1M49 38h1M53 38h1M62 38h1M70 38h1M20 39h1M22 39h1M50 39h1M54 39h2M61 39h1M21 40h1M51 40h1M56 40h5M20 41h1M52 41h1M62 41h4M71 41h2M17 42h11M52 42h1M61 42h1M66 42h2M71 42h2M11 43h3M15 43h2M28 43h1M30 43h3M43 43h1M53 43h1M68 43h1M72 43h1M9 44h2M41 44h2M53 44h1M71 44h1M8 45h1M11 45h1M29 45h1M54 45h1M8 46h1M10 46h1M25 46h1M33 46h1M36 46h1M55 46h1M71 46h2M7 47h1M27 47h1M37 47h1M55 47h1M71 47h2M7 48h1M9 48h1M14 48h1M28 48h1M33 48h1M37 48h1M56 48h1M71 48h1M7 49h1M25 49h1M32 49h1M35 49h1M38 49h1M57 49h1M71 49h1M7 50h1M13 50h1M38 50h1M58 50h1M8 51h1M28 51h1M38 51h1M59 51h2M8 52h1M31 52h1M38 52h1M61 52h2M9 53h1M38 53h1M63 53h2M72 53h1M38 54h1M72 54h1M37 55h1M72 55h1M37 56h1M36 57h1" />
<path stroke="#5a5a62" d="M45 32h1M23 33h2M40 33h1M46 33h1M48 33h3M21 34h3M40 34h3M48 34h4M53 34h1M21 35h3M38 35h7M48 35h6M20 36h3M39 36h6M49 36h3M53 36h2M20 37h3M37 37h4M45 37h1M49 37h3M53 37h4M61 37h1M63 37h1M21 38h1M38 38h1M45 38h1M50 38h3M54 38h8M63 38h3M67 38h3M21 39h1M38 39h2M45 39h1M51 39h3M56 39h5M62 39h5M68 39h3M38 40h2M45 40h1M52 40h4M61 40h7M69 40h3M39 41h1M53 41h9M66 41h3M70 41h1M39 42h3M44 42h1M53 42h8M62 42h4M68 42h2M17 43h11M40 43h3M54 43h6M61 43h4M69 43h2M11 44h3M15 44h12M28 44h5M34 44h1M54 44h6M61 44h3M69 44h2M9 45h2M12 45h2M15 45h11M27 45h2M33 45h1M35 45h1M55 45h5M61 45h3M70 45h2M9 46h1M12 46h2M15 46h10M26 46h2M34 46h1M56 46h4M61 46h3M70 46h1M8 47h2M12 47h2M15 47h10M26 47h1M34 47h1M36 47h1M56 47h5M62 47h2M8 48h1M11 48h3M15 48h10M26 48h2M34 48h1M36 48h1M57 48h4M62 48h3M8 49h1M11 49h2M14 49h11M26 49h3M33 49h2M36 49h2M58 49h4M63 49h2M8 50h5M14 50h12M27 50h7M35 50h3M59 50h4M9 51h3M13 51h14M29 51h3M34 51h4M61 51h4M9 52h2M12 52h17M32 52h6M63 52h2M11 53h2M15 53h10M27 53h11M11 54h1M15 54h10M28 54h2M33 54h5M11 55h1M14 55h12M28 55h2M33 55h4M12 56h25M15 57h4M22 57h6M31 57h5M24 58h4M31 58h3M26 59h6" />
<path stroke="#181818" d="M54 32h5M25 33h1M41 33h2M52 33h2M55 33h6M24 34h1M39 34h1M43 34h2M52 34h1M54 34h6M61 34h1M24 35h1M45 35h1M54 35h7M62 35h1M23 36h1M38 36h1M45 36h1M55 36h6M62 36h1M23 37h1M46 37h1M58 37h2M62 37h1M37 38h1M46 38h1M66 38h1M37 39h1M41 39h1M46 39h1M67 39h1M71 39h1M37 40h1M46 40h1M68 40h1M72 40h1M38 41h1M45 41h1M69 41h1M73 41h1M38 42h1M45 42h1M70 42h1M73 42h1M29 43h1M39 43h1M44 43h1M60 43h1M67 43h1M71 43h1M73 43h1M14 44h1M27 44h1M33 44h1M40 44h1M60 44h1M68 44h1M72 44h1M14 45h1M26 45h1M30 45h3M34 45h1M60 45h1M69 45h1M72 45h1M11 46h1M14 46h1M28 46h5M35 46h1M60 46h1M69 46h1M73 46h1M10 47h2M14 47h1M25 47h1M28 47h6M35 47h1M61 47h1M70 47h1M73 47h1M10 48h1M25 48h1M29 48h4M35 48h1M61 48h1M70 48h1M72 48h1M74 48h1M9 49h2M13 49h1M29 49h3M62 49h1M70 49h1M72 49h1M74 49h1M26 50h1M34 50h1M63 50h2M71 50h1M74 50h1M12 51h1M27 51h1M32 51h2M71 51h1M75 51h1M11 52h1M29 52h2M71 52h1M75 52h1M10 53h1M13 53h2M25 53h2M54 53h1M75 53h1M10 54h1M12 54h3M25 54h3M30 54h3M75 54h1M10 55h1M12 55h2M26 55h2M30 55h3M55 55h1M74 55h1M11 56h1M41 56h5M55 56h1M74 56h1M12 57h3M19 57h3M28 57h3M37 57h4M45 57h1M56 57h1M14 58h5M22 58h2M28 58h3M34 58h2M56 58h1M24 59h2M32 59h2M44 59h1M56 59h1M26 60h6M45 60h1" />
<path stroke="#e64120" d="M42 38h2M40 39h1M42 39h2M40 40h4M41 41h3M42 42h1" />
<path stroke="#6a204a" d="M44 39h1M44 40h1M40 41h1M44 41h1M43 42h1" />
<path stroke="#9c8339" d="M49 39h1M48 48h1M73 48h1M48 49h1M73 49h1M47 50h1M72 50h2M47 51h1M72 51h3M46 52h1M60 52h1M72 52h3M45 53h1M61 53h2M73 53h2M39 54h1M42 54h3M48 54h1M58 54h1M60 54h1M62 54h3M73 54h2M38 55h4M47 55h1M56 55h2M59 55h1M61 55h4M73 55h1M38 56h3M46 56h1M56 56h3M60 56h6M46 57h1M57 57h5M64 57h2M45 58h1M57 58h3M45 59h1" />
<path stroke="#eed594" d="M65 43h2M64 44h4M64 45h5M64 46h5M65 47h5M65 48h5M65 49h5M65 50h6M66 51h1M68 51h3M66 52h5M66 53h3M70 53h2M66 54h2M69 54h3M66 55h6M67 56h6M67 57h7M67 58h8M7 59h3M67 59h5M73 59h4M7 60h4M66 60h3M70 60h9M6 61h12M66 61h14M5 62h15M39 62h7M64 62h10M75 62h3M5 63h18M30 63h24M59 63h9M69 63h1M71 63h4M6 64h27M36 64h33M70 64h1M72 64h4M9 65h59M69 65h1M71 65h1M12 66h13M26 66h31M58 66h7M9 67h36M46 67h8M55 67h1M57 67h1M59 67h5M7 68h23M31 68h16M48 68h7M56 68h1M58 68h1M11 69h16M28 69h3M32 69h22M55 69h1M57 69h1M20 70h35M24 71h24M32 72h18" />
<path stroke="#b4a483" d="M64 47h1M65 51h1M67 51h1M69 53h1M68 54h1M76 54h2M75 55h5M75 56h4M75 57h2M10 58h4M19 58h3M62 58h3M10 59h14M34 59h2M40 59h3M59 59h7M72 59h1M11 60h15M32 60h13M55 60h11M69 60h1M18 61h31M53 61h12M4 62h1M20 62h19M46 62h18M74 62h1M2 63h3M23 63h7M54 63h5M68 63h1M70 63h1M0 64h6M33 64h3M69 64h1M71 64h1M3 65h6M68 65h1M70 65h1M72 65h1M11 66h1M25 66h1M57 66h1M45 67h1M54 67h1M56 67h1M58 67h1M30 68h1M47 68h1M55 68h1M57 68h1M59 68h1M27 69h1M31 69h1M54 69h1M56 69h1M58 69h1M55 70h1M48 71h1" />
</svg>