<svg xmlns="http://www.w3.org/2000/svg" viewBox="0 -0.5 80 80" shape-rendering="crispEdges">
<metadata>Made with Pixels to Svg https://codepen.io/shshaw/pen/XbxvNj</metadata>
<path stroke="#295a62" d="M30 23h1M30 24h1M30 25h1M29 26h2M34 26h1M16 27h1M29 27h1M15 28h1M17 28h1M14 29h1M17 29h1M47 29h2M14 30h1M49 30h2M13 31h1M18 31h1M32 31h1M51 31h1M13 32h1M13 33h1M16 35h1M42 37h1M41 38h1M43 38h1M41 39h1M43 39h1M40 40h1M43 40h2M40 41h1M44 41h1M39 42h1M44 42h1M29 43h3M39 43h1M44 43h1M29 44h1M32 44h1M39 44h1M44 44h1M29 45h1M33 45h1M40 45h1M43 45h1M46 45h3M30 46h1M34 46h1M40 46h1M43 46h1M45 46h1M49 46h1M34 47h1M41 47h2M50 47h1M35 48h1M42 48h1M35 49h1M32 50h2M35 50h1M33 51h3" />
<path stroke="#101010" d="M31 23h1M32 24h1M33 25h1M27 27h2M34 27h1M34 28h1M34 29h1M33 30h1M47 30h1M33 31h1M47 31h1M32 32h1M48 32h1M31 33h1M48 33h1M14 34h1M30 34h1M15 35h1M30 35h1M56 35h1M17 36h4M56 36h1M21 37h1M27 37h2M57 37h1M23 38h4M45 38h1M57 38h1M45 39h1M57 39h1M45 40h1M56 40h1M46 41h1M56 41h1M26 42h3M55 42h1M24 43h2M42 43h1M48 43h1M53 43h2M23 44h1M33 44h1M49 44h4M22 45h1M22 46h1M21 47h1M30 47h1M33 47h1M44 47h1M21 48h1M30 48h1M44 48h1M20 49h1M24 49h1M31 49h1M43 49h1M46 49h1M49 49h1M20 50h4M43 50h1M48 50h1M24 51h1M31 51h1M47 51h1M49 51h1M25 52h2M30 52h1M34 52h1M49 52h1M60 52h1M30 53h1M36 53h1M48 53h1M54 53h4M60 53h1M30 54h1M34 54h1M46 54h2M53 54h1M58 54h2M31 55h1M35 55h1M44 55h2M54 55h1M32 56h3M38 56h6M33 57h1M32 58h1M35 58h3M33 59h2M36 59h1M53 59h3M59 59h1M35 60h1M40 60h2M60 60h1M35 61h1M39 61h1M42 61h2M50 61h2M60 61h1M35 62h1M38 62h1M44 62h6M59 62h1M35 63h1M38 63h1M36 64h2" />
<path stroke="#b4b4d5" d="M31 24h1M31 25h2M31 26h3M30 27h4M30 28h4M31 29h3M32 30h1M14 32h1M17 32h4M14 33h8M52 33h1M15 34h7M51 34h2M17 35h4M49 35h4M50 36h2M24 46h1M24 47h2M49 47h1M24 48h2M49 48h1M23 49h1M47 49h2M44 50h1M47 50h1M33 52h1M31 54h2M32 55h3" />
<path stroke="#414173" d="M24 26h3M22 27h2M21 28h1M28 28h2M20 29h1M28 29h2M20 30h1M28 30h4M27 31h4M27 32h4M52 32h1M25 33h6M53 33h2M22 34h8M47 34h2M53 34h1M55 34h1M22 35h8M46 35h1M48 35h1M53 35h1M21 36h8M49 36h1M52 36h1M23 37h4M45 37h1M50 37h2M20 38h2M18 39h2M17 40h1M18 41h2M21 42h3M46 42h2M47 43h1M49 43h1M24 44h1M23 45h1M25 46h1M20 47h1M26 47h1M18 48h2M26 48h1M17 49h1M25 49h1M54 49h3M51 50h1M57 50h1M18 51h6M50 51h2M19 52h6M48 52h1M50 52h2M55 52h1M21 53h5M47 53h1M49 53h3M48 54h2M51 54h2M28 55h2M43 55h1M46 55h3M52 55h1M55 55h1M26 56h2M44 56h6M51 56h1M53 56h1M56 56h1M25 57h1M37 57h1M41 57h10M52 57h2M58 57h1M24 58h1M38 58h1M40 58h1M43 58h6M51 58h3M59 58h1M23 59h1M32 59h1M35 59h1M41 59h2M49 59h4M56 59h1M33 60h2M39 60h1M42 60h11M33 61h2M40 61h2M44 61h6M37 63h1" />
<path stroke="#6a6ab4" d="M24 27h3M22 28h6M21 29h1M24 29h4M21 30h1M24 30h4M20 31h7M21 32h6M22 33h3M46 36h1M53 36h1M55 36h1M52 37h1M54 37h1M56 37h1M22 38h1M27 38h2M46 38h1M53 38h1M55 38h2M23 39h7M46 39h3M52 39h1M54 39h3M24 40h6M46 40h10M20 41h1M26 41h4M45 41h1M47 41h9M19 42h2M24 42h2M36 42h2M48 42h7M21 43h3M36 43h1M38 43h1M50 43h3M35 44h1M47 44h2M24 45h1M35 45h1M49 45h2M28 46h2M35 46h1M50 46h1M27 47h3M20 48h1M27 48h3M18 49h2M26 49h5M17 50h3M24 50h8M41 50h1M49 50h1M54 50h1M17 51h1M25 51h6M37 51h3M42 51h1M45 51h2M48 51h1M52 51h4M27 52h3M35 52h2M38 52h10M52 52h3M56 52h1M38 53h9M53 53h1M58 53h2M26 54h4M36 54h10M27 55h1M30 55h1M38 55h5M28 56h4M36 56h2M54 56h2M26 57h7M34 57h3M54 57h4M25 58h7M33 58h2M39 58h1M55 58h2M24 59h8M37 59h4M26 60h5M37 60h2M57 60h1M36 61h3M58 61h1M36 62h2M36 63h1" />
<path stroke="#deeef6" d="M16 28h1M15 29h2M15 30h2M48 30h1M15 31h2M48 31h3M49 32h3M49 33h3M42 44h1M46 46h3M22 47h2M45 47h4M22 48h2M33 48h1M45 48h2M21 49h2M44 49h2M32 51h1M31 52h2M32 53h4" />
<path stroke="#949cee" d="M22 29h2M22 30h2M54 34h1M47 35h1M54 35h2M47 36h2M54 36h1M46 37h4M53 37h1M55 37h1M47 38h6M54 38h1M20 39h3M49 39h3M53 39h1M18 40h6M21 41h5M38 41h2M38 42h1M45 42h1M26 43h3M35 43h1M37 43h1M45 43h2M25 44h4M34 44h1M36 44h3M45 44h2M25 45h4M34 45h1M36 45h4M44 45h2M26 46h2M36 46h4M44 46h1M35 47h6M43 47h1M36 48h6M43 48h1M36 49h7M36 50h2M40 50h1M55 50h2M36 51h1M56 51h3M57 52h3M25 55h2M24 56h2M24 57h1M23 58h1M57 58h2M57 59h2M58 60h2M59 61h1" />
<path stroke="#292931" d="M30 29h1M17 30h1M19 31h1M31 31h1M31 32h1M21 35h1M29 36h1M22 37h1M29 38h1M30 39h1M30 40h1M17 41h1M30 41h1M18 42h1M29 42h1M19 43h2M21 44h2M51 45h1M51 46h1M51 47h1M50 48h2M50 49h1M16 50h1M38 50h1M50 50h1M52 50h2M58 50h1M16 51h1M59 51h1M17 52h2M19 53h2M26 53h4M52 53h1M21 54h5M24 55h1M36 55h2M53 55h1M23 56h1M35 56h1M52 56h1M57 56h1M23 57h1M38 57h3M51 57h1M22 58h1M41 58h2M49 58h2M54 58h1M22 59h1M43 59h6M23 60h3M31 60h2M36 60h1M56 60h1M26 61h5M32 61h1M57 61h1M33 62h2M39 62h2M58 62h1" />
<path stroke="#d5cde6" d="M14 31h1M17 31h1M15 32h2M49 34h2M23 46h1M47 48h2M31 53h1M33 54h1" />
<path stroke="#1894b4" d="M42 38h1M42 39h1M41 40h2M41 41h3M40 42h4M40 43h2M43 43h1M30 44h2M40 44h2M43 44h1M30 45h3M41 45h2M31 46h3M41 46h2M31 47h2M31 48h2M34 48h1M32 49h3M34 50h1" />
<path stroke="#4a416a" d="M38 40h2M36 41h2M34 42h2M33 43h2M39 50h1M42 50h1M45 50h2M40 51h2M43 51h2M37 52h1M37 53h1M35 54h1" />
<path stroke="#625aa4" d="M50 54h1M49 55h3M50 56h1" />
</svg>