<svg xmlns="http://www.w3.org/2000/svg" viewBox="0 -0.5 80 80" shape-rendering="crispEdges">
<metadata>Made with Pixels to Svg https://codepen.io/shshaw/pen/XbxvNj</metadata>
<path stroke="#7b6a7b" d="M28 1h2M30 2h1M31 3h1M41 3h1M32 4h1M40 4h1M33 5h1M40 5h1M34 6h1M35 7h1M39 7h1M13 8h1M36 8h1M14 9h1M28 9h6M15 10h1M30 10h3M35 10h4M15 11h1M33 11h7M15 12h2M35 12h3M15 13h2M36 13h4M62 13h1M15 14h2M37 14h4M62 14h1M13 15h5M26 15h1M39 15h3M48 15h1M62 15h2M13 16h5M41 16h2M46 16h3M63 16h1M14 17h5M42 17h2M45 17h6M63 17h2M14 18h5M26 18h1M43 18h6M64 18h2M15 19h4M44 19h4M49 19h2M64 19h3M5 20h1M14 20h1M16 20h1M18 20h2M46 20h2M49 20h2M64 20h3M6 21h1M15 21h1M17 21h1M19 21h1M29 21h1M65 21h3M6 22h1M16 22h1M18 22h2M65 22h3M20 23h1M30 23h1M41 23h1M66 23h2M67 24h1M67 25h2M66 26h1M68 26h1M66 27h1M68 27h1M67 28h2M64 29h5M41 30h1M60 30h8M29 31h1M39 31h2M59 31h9M30 32h1M37 32h2M58 32h9M30 33h7M59 33h4M28 35h1M27 36h2M26 37h4M22 38h9M41 38h4M25 39h8M39 39h8M26 40h16M48 40h1M26 41h2M33 41h7M48 41h1M36 42h2M21 50h1M24 50h1M21 51h5M22 52h5M22 53h6M38 53h3M53 53h6M20 54h2M23 54h7M35 54h7M43 54h1M50 54h10M18 55h4M23 55h20M50 55h11M18 56h5M24 56h18M43 56h1M49 56h12M19 57h5M25 57h8M37 57h2M40 57h1M42 57h1M48 57h13M20 58h4M27 58h4M41 58h1M48 58h9M60 58h2M20 59h5M48 59h7M61 59h1M21 60h5M49 60h5M61 60h1M21 61h4M49 61h5M21 62h2M50 62h3M52 63h1M19 65h1M18 66h6M19 67h2" />
<path stroke="#948bac" d="M65 1h3M28 2h1M64 2h1M28 3h1M63 3h1M68 3h1M31 4h1M63 4h1M67 4h3M29 5h2M65 5h4M72 5h1M10 6h1M40 6h1M42 6h1M65 6h3M9 7h2M32 7h3M7 8h3M39 8h1M42 8h1M73 8h2M7 9h2M39 9h2M42 9h1M63 9h2M71 9h3M13 10h1M42 10h2M60 10h5M5 11h1M13 11h1M61 11h3M4 12h2M12 12h2M2 13h4M11 13h3M3 14h3M27 22h1M44 33h1M43 34h1M30 35h1M42 35h2M30 36h3M39 36h4M32 38h1" />
<path stroke="#39394a" d="M27 2h1M27 3h1M28 4h1M42 4h1M70 4h3M28 5h1M42 5h1M64 5h1M69 5h1M73 5h1M29 6h1M64 6h1M74 6h1M5 7h1M11 7h2M29 7h1M43 7h1M65 7h1M70 7h1M74 7h1M6 8h1M10 8h3M28 8h5M43 8h1M65 8h1M70 8h1M6 9h1M9 9h1M13 9h1M38 9h1M65 9h1M7 10h1M9 10h1M14 10h1M40 10h2M65 10h1M68 10h2M72 10h2M9 11h1M14 11h1M16 11h1M42 11h1M67 11h1M6 12h1M17 12h1M38 12h2M48 12h1M60 12h1M62 12h2M67 12h1M6 13h1M8 13h1M10 13h1M17 13h1M61 13h1M67 13h1M12 14h2M61 14h1M68 14h1M70 14h1M2 15h1M4 15h2M45 15h1M61 15h1M70 15h1M3 16h1M8 16h1M10 16h1M45 16h1M62 16h1M3 17h1M9 17h2M44 17h1M62 17h1M4 18h1M10 18h1M37 18h2M49 18h2M63 18h1M25 19h1M48 19h1M63 19h1M26 20h1M48 20h1M63 20h1M40 21h2M48 21h1M64 21h1M41 22h1M49 22h1M64 22h1M27 23h1M49 23h1M28 24h1M51 24h2M65 24h1M77 24h1M50 25h1M65 25h1M29 26h1M49 26h1M65 26h1M73 26h1M29 27h1M44 27h1M48 27h1M65 27h1M73 27h1M10 28h1M17 28h3M29 28h1M44 28h1M47 28h1M66 28h1M11 29h1M16 29h1M28 29h2M44 29h1M46 29h1M59 29h2M72 29h1M12 30h1M24 30h2M27 30h2M40 30h1M43 30h1M46 30h1M58 30h1M72 30h1M13 31h1M24 31h1M26 31h3M38 31h1M42 31h1M56 31h2M13 32h2M28 32h1M35 32h2M44 32h1M55 32h1M14 33h3M27 33h2M45 33h1M54 33h1M67 33h1M71 33h1M14 34h1M16 34h3M27 34h3M52 34h2M64 34h1M67 34h1M71 34h1M15 35h1M17 35h4M27 35h1M29 35h1M38 35h2M52 35h1M66 35h1M15 36h1M17 36h5M26 36h1M29 36h1M34 36h4M43 36h1M52 36h1M18 37h4M23 37h2M30 37h1M41 37h1M51 37h1M56 37h2M71 37h2M18 38h4M31 38h1M39 38h1M49 38h2M52 38h1M56 38h1M71 38h1M73 38h2M19 39h1M22 39h1M33 39h5M47 39h3M54 39h2M57 39h1M71 39h1M70 40h1M70 41h1M70 42h1M74 42h1M69 43h1M73 43h4M69 44h1M72 44h4M66 45h2M72 45h2M66 46h2M71 46h2M65 47h7M65 48h8M20 49h1M65 49h3M69 49h1M73 49h1M20 50h1M74 50h1M78 50h1M20 51h1M73 51h2M76 51h3M21 52h1M62 52h1M72 52h1M74 52h1M76 52h3M20 53h2M72 53h1M76 53h2M18 54h2M22 54h1M71 54h1M75 54h3M17 55h1M49 55h1M71 55h1M75 55h2M17 56h1M23 56h1M48 56h1M70 56h1M74 56h3M68 57h2M66 58h2M25 59h1M47 59h1M26 60h1M47 60h1M27 61h1M48 61h1M28 62h2M48 62h1M17 63h1M30 63h1M49 63h1M18 64h2M30 64h2M45 64h1M17 65h1M20 65h3M24 65h1M42 65h1M46 65h5M52 65h1M60 65h1M16 66h1M47 66h4M53 66h1M15 67h1M18 67h1M50 67h1M53 67h1M59 67h1M14 68h1M20 68h1M23 68h1M27 68h1M13 69h1M18 69h2M49 69h1M49 70h1M52 70h2M59 70h2M49 71h1M54 71h1M61 71h1M50 72h1M55 72h1M51 73h1M51 74h1M58 74h1" />
<path stroke="#eeeeff" d="M29 2h1M65 2h2M29 3h1M64 3h3M41 4h1M64 4h2M6 5h3M41 5h1M70 5h2M6 6h3M70 6h3M7 7h1M61 7h2M71 7h2M60 8h3M10 9h2M60 9h2M2 10h2M10 10h2M2 11h2M10 11h2M41 13h1M37 16h1M44 16h1M37 17h1M40 19h1M40 20h1M42 23h1M41 24h2M15 68h2M14 69h2M21 69h1M20 70h2M52 72h1M59 72h1M52 73h2M59 73h2M52 74h2M59 74h2" />
<path stroke="#cdcdde" d="M67 2h1M30 3h1M67 3h1M29 4h2M66 4h1M9 5h1M31 5h2M9 6h1M30 6h4M41 6h1M73 6h1M6 7h1M8 7h1M30 7h2M40 7h3M73 7h1M33 8h3M40 8h2M63 8h1M71 8h2M12 9h1M41 9h1M43 9h1M62 9h1M4 10h1M12 10h1M4 11h1M12 11h1M2 12h2M11 12h1M44 15h1M26 16h1M38 17h1M27 18h1M26 19h2M41 20h1M29 22h1M42 22h1M28 23h2M29 24h2M43 24h1M31 37h10M33 38h6M16 67h2M17 68h1M21 68h2M16 69h1M20 69h1M22 69h2M19 70h1M22 70h1M52 71h2M59 71h2M51 72h1M53 72h2M58 72h1M60 72h2M54 73h1M58 73h1M61 73h1" />
<path stroke="#6a6273" d="M68 2h1M69 3h1M6 4h4M5 5h1M10 5h1M5 6h1M11 6h1M61 6h2M60 7h1M59 8h1M2 9h3M59 9h1M1 10h1M59 10h1M1 11h1M1 12h1M1 13h1M43 32h1M43 33h1M42 34h1M40 35h2M33 36h1M38 36h1" />
<path stroke="#5a4a62" d="M68 6h2M13 7h1M63 7h2M66 7h4M14 8h1M64 8h1M66 8h4M15 9h1M34 9h4M66 9h4M74 9h1M5 10h2M8 10h1M16 10h1M27 10h1M33 10h2M39 10h1M66 10h2M70 10h2M74 10h1M6 11h3M27 11h1M32 11h1M40 11h2M43 11h2M60 11h1M64 11h3M70 11h6M7 12h4M14 12h1M26 12h1M34 12h1M44 12h2M61 12h1M64 12h3M70 12h6M7 13h1M14 13h1M26 13h1M35 13h1M40 13h1M46 13h1M63 13h4M70 13h6M2 14h1M6 14h2M11 14h1M14 14h1M26 14h1M41 14h1M47 14h2M63 14h5M71 14h5M3 15h1M6 15h2M11 15h2M38 15h1M47 15h1M49 15h1M64 15h6M71 15h5M4 16h4M11 16h2M39 16h2M43 16h1M49 16h1M64 16h12M4 17h5M11 17h3M40 17h2M65 17h11M5 18h5M11 18h3M41 18h2M66 18h10M5 19h10M28 19h1M42 19h2M67 19h9M6 20h8M15 20h1M17 20h1M28 20h1M43 20h3M67 20h9M5 21h1M7 21h8M16 21h1M18 21h1M43 21h5M49 21h2M68 21h9M7 22h9M17 22h1M44 22h5M50 22h2M68 22h9M7 23h13M44 23h5M50 23h2M65 23h1M68 23h9M7 24h14M45 24h6M66 24h1M68 24h7M8 25h13M45 25h5M66 25h1M69 25h5M9 26h12M45 26h4M67 26h1M69 26h4M10 27h11M45 27h3M59 27h1M67 27h1M69 27h4M11 28h6M20 28h2M43 28h1M45 28h2M58 28h3M69 28h4M12 29h4M17 29h3M21 29h1M42 29h2M45 29h1M56 29h3M61 29h1M69 29h3M13 30h8M42 30h1M44 30h2M47 30h1M54 30h4M59 30h1M68 30h4M14 31h10M41 31h1M44 31h6M54 31h2M58 31h1M68 31h4M15 32h8M27 32h1M39 32h3M45 32h1M50 32h2M53 32h2M56 32h2M67 32h5M19 33h4M26 33h1M37 33h5M51 33h3M55 33h4M63 33h2M68 33h3M15 34h1M22 34h1M26 34h1M31 34h9M51 34h1M54 34h7M65 34h2M68 34h3M16 35h1M22 35h1M26 35h1M33 35h5M51 35h1M53 35h6M67 35h5M16 36h1M25 36h1M50 36h2M53 36h4M67 36h5M16 37h2M25 37h1M42 37h3M50 37h1M52 37h4M67 37h4M17 38h1M40 38h1M45 38h1M51 38h1M53 38h3M57 38h1M67 38h4M72 38h1M18 39h1M38 39h1M50 39h4M56 39h1M67 39h4M72 39h2M42 40h3M47 40h1M49 40h3M54 40h2M68 40h2M71 40h3M28 41h4M49 41h1M68 41h2M71 41h2M35 42h1M48 42h1M68 42h2M71 42h2M68 43h1M70 43h2M68 44h1M70 44h1M76 44h1M69 45h2M74 45h4M73 46h5M72 47h7M61 48h1M73 48h6M58 49h5M68 49h1M71 49h2M74 49h5M50 50h1M56 50h9M69 50h5M75 50h3M49 51h24M49 52h13M63 52h9M73 52h1M47 53h1M49 53h4M59 53h4M64 53h8M73 53h2M42 54h1M44 54h6M60 54h3M64 54h7M72 54h2M22 55h1M43 55h6M61 55h3M65 55h6M72 55h2M42 56h1M44 56h4M61 56h3M66 56h4M71 56h2M24 57h1M39 57h1M41 57h1M43 57h5M61 57h2M66 57h2M70 57h3M24 58h3M38 58h3M42 58h6M62 58h1M68 58h4M26 59h4M39 59h8M62 59h1M66 59h5M27 60h3M39 60h8M48 60h1M62 60h1M65 60h5M25 61h2M28 61h2M40 61h8M61 61h2M65 61h4M23 62h5M40 62h8M49 62h1M61 62h2M64 62h3M21 63h9M40 63h9M50 63h2M60 63h3M64 63h1M20 64h10M40 64h5M51 64h3M59 64h3M18 65h1M23 65h1M25 65h6M39 65h3M53 65h2M57 65h3M17 66h1M24 66h7M52 66h1M54 66h5M60 66h1M21 67h8M51 67h2M54 67h5M60 67h2M18 68h2M24 68h3M51 68h11M24 69h2M50 69h12M50 70h2M54 70h5M61 70h2M50 71h2M55 71h4M62 71h1M62 72h1" />
<path stroke="#101010" d="M75 8h1M27 9h1M70 9h1M75 9h1M26 10h1M28 10h2M75 10h1M26 11h1M30 11h2M68 11h2M76 11h1M25 12h1M32 12h2M68 12h2M76 12h1M9 13h1M25 13h1M34 13h1M47 13h1M68 13h2M76 13h1M8 14h3M17 14h1M25 14h1M36 14h1M69 14h1M76 14h1M8 15h3M18 15h1M37 15h1M42 15h1M51 15h1M76 15h1M9 16h1M18 16h1M25 16h1M38 16h1M51 16h1M76 16h1M19 17h1M26 17h1M39 17h1M52 17h1M76 17h1M19 18h1M40 18h1M53 18h1M76 18h1M4 19h1M19 19h1M41 19h1M76 19h1M4 20h1M20 20h1M27 20h1M42 20h1M54 20h1M76 20h1M20 21h1M27 21h1M42 21h1M54 21h1M77 21h1M5 22h1M20 22h1M28 22h1M43 22h1M54 22h1M77 22h1M6 23h1M21 23h1M38 23h3M43 23h1M55 23h1M77 23h1M6 24h1M21 24h1M36 24h2M44 24h1M57 24h1M78 24h1M7 25h1M22 25h1M29 25h1M34 25h2M44 25h1M59 25h1M78 25h1M8 26h1M23 26h1M30 26h1M33 26h1M43 26h2M78 26h1M9 27h1M23 27h1M30 27h1M32 27h1M43 27h1M61 27h1M78 27h1M9 28h1M23 28h1M30 28h1M32 28h1M42 28h1M61 28h1M64 28h2M78 28h1M20 29h1M30 29h2M41 29h1M62 29h2M78 29h1M21 30h3M29 30h1M31 30h1M39 30h1M30 31h1M37 31h1M43 31h1M77 31h1M29 32h1M31 32h4M42 32h1M77 32h1M17 33h2M29 33h1M42 33h1M65 33h2M19 34h3M30 34h1M40 34h2M61 34h3M76 34h1M21 35h1M31 35h2M59 35h2M76 35h1M22 36h1M57 36h2M66 36h1M22 37h1M58 37h1M66 37h1M75 37h1M16 38h1M58 38h1M66 38h1M17 39h1M59 39h2M66 39h1M74 39h1M18 40h1M61 40h1M67 40h1M74 40h1M62 41h1M67 41h1M73 41h1M62 42h1M67 42h1M73 42h1M62 43h1M67 43h1M72 43h1M62 44h1M66 44h2M71 44h1M77 44h1M65 45h1M68 45h1M71 45h1M78 45h1M61 46h1M65 46h1M68 46h3M78 46h1M61 47h1M64 47h1M79 47h1M62 48h1M64 48h1M79 48h1M63 49h2M70 49h1M79 49h1M65 50h4M79 50h1M75 51h1M79 51h1M75 52h1M79 52h1M63 53h1M75 53h1M78 53h1M63 54h1M74 54h1M78 54h1M74 55h1M77 55h1M65 56h1M73 56h1M65 57h1M73 57h3M65 58h1M72 58h1M65 59h1M71 59h1M70 60h1M69 61h1M63 62h1M67 62h2M63 63h1M65 63h2M46 64h5M62 64h3M31 65h1M33 65h2M43 65h3M51 65h1M61 65h1M31 66h1M36 66h6M46 66h1M51 66h1M59 66h1M61 66h1M29 67h2M47 67h3M62 67h1M28 68h1M50 68h1M62 68h1M17 69h1M26 69h1M62 69h1M14 70h3M18 70h1M23 70h3M63 70h1M19 71h4M63 71h1M56 72h2M63 72h1M55 73h1M57 73h1M62 73h1M54 74h1M61 74h1M52 75h2M59 75h2" />
<path stroke="#523100" d="M44 9h1M44 10h1M28 11h2M46 11h1M27 12h5M47 12h1M27 13h7M49 13h1M27 14h9M50 14h1M27 15h10M27 16h10M27 17h10M51 17h1M28 18h9M39 18h1M29 19h11M29 20h11M28 21h1M30 21h10M30 22h11M31 23h7M53 23h2M31 24h5M38 24h3M56 24h1M30 25h4M36 25h8M58 25h1M27 26h2M31 26h2M34 26h2M41 26h2M60 26h1M26 27h1M31 27h1M33 27h1M42 27h1M25 28h1M31 28h1M9 29h1M23 29h2M9 30h1M30 30h1M10 31h1M31 31h2M10 32h1M23 32h1M46 32h1M11 33h1M23 33h1M11 34h1M44 34h1M12 35h1M44 35h1M13 36h1M23 36h1M44 36h1M14 37h1M45 37h1M15 38h1M46 38h1M23 39h2M25 40h1M45 40h2M52 40h2M56 40h1M59 40h1M32 41h1M40 41h1M47 41h1M50 41h2M55 41h2M58 41h1M27 42h1M33 42h2M38 42h2M49 42h1M51 42h1M55 42h1M58 42h1M36 43h2M48 43h1M56 43h2M57 44h1M50 45h1M57 45h1M61 45h1M24 46h1M50 46h1M57 46h1M24 47h1M57 47h2M20 48h1M24 48h2M51 48h1M57 48h4M21 49h1M24 49h2M52 49h1M56 49h2M22 50h2M25 50h1M49 50h1M51 50h5M26 51h1M48 51h1M27 52h1M37 52h4M46 52h3M28 53h2M35 53h3M41 53h6M48 53h1M30 54h5M64 55h1M64 56h1M18 57h1M33 57h4M63 57h1M19 58h1M31 58h2M37 58h1M63 58h1M30 59h1M38 59h1M63 59h1M20 60h1M30 60h1M38 60h1M60 60h1M63 60h1M20 61h1M30 61h1M39 61h1M60 61h1M63 61h2M20 62h1M30 62h2M39 62h1M60 62h1M20 63h1M31 63h1M39 63h1M59 63h1M32 64h1M39 64h1M54 64h1M57 64h2M35 65h1M38 65h1M55 65h2" />
<path stroke="#943900" d="M45 11h1M42 13h2M44 14h1M46 14h1M51 18h1M75 24h1M74 25h1M21 26h1M36 26h5M21 27h1M34 27h8M33 28h9M73 28h1M22 29h1M32 29h9M47 29h1M55 29h1M26 30h1M32 30h7M48 30h1M77 30h1M33 31h4M50 31h1M53 31h1M72 31h1M49 32h1M52 32h1M50 33h1M76 33h1M14 35h1M25 35h1M72 36h1M75 36h1M73 37h1M58 39h1M19 40h1M57 40h2M60 40h1M18 41h1M41 41h1M54 41h1M57 41h1M59 41h3M18 42h1M26 42h1M44 42h2M56 42h2M59 42h3M18 43h1M23 43h1M27 43h1M46 43h1M51 43h1M58 43h4M18 44h1M24 44h1M27 44h1M47 44h1M50 44h1M56 44h1M58 44h4M19 45h1M24 45h1M27 45h1M35 45h1M58 45h3M19 46h1M25 46h2M35 46h4M48 46h1M58 46h3M20 47h1M25 47h2M36 47h3M48 47h4M59 47h2M26 48h1M36 48h3M48 48h3M26 49h1M37 49h2M48 49h4M26 50h1M37 50h3M47 50h2M27 51h1M36 51h4M47 51h1M28 52h1M36 52h1M45 52h1M30 53h1M16 57h1M15 58h1M57 58h3M15 59h1M34 59h4M60 59h1M15 60h1M32 60h2M37 60h1M16 61h1M31 61h1M37 61h2M16 62h1M32 62h1M37 62h2M53 62h1M32 63h7M53 63h1M33 64h6M36 65h2" />
<path stroke="#bd4100" d="M40 12h2M46 12h1M48 13h1M45 14h1M49 14h1M46 15h1M50 15h1M50 16h1M52 18h1M51 19h3M51 20h3M51 21h3M52 22h2M52 23h1M21 25h1M22 26h1M58 26h1M77 26h1M22 27h1M27 27h2M58 27h1M60 27h1M22 28h1M26 28h3M57 28h1M10 29h1M25 29h3M10 30h2M49 30h1M11 31h2M25 31h1M51 31h1M76 31h1M11 32h2M75 32h2M12 33h2M73 33h3M12 34h2M73 34h3M13 35h1M73 35h3M14 36h1M73 36h2M15 37h1M49 37h1M74 37h1M47 38h2M20 39h1M20 40h2M24 40h1M22 41h1M24 41h2M46 41h1M52 41h2M23 42h3M43 42h1M46 42h2M50 42h1M52 42h3M24 43h3M28 43h4M38 43h1M41 43h2M47 43h1M49 43h2M52 43h4M25 44h2M32 44h7M40 44h1M48 44h2M51 44h5M25 45h2M36 45h4M47 45h3M51 45h6M39 46h1M49 46h1M51 46h6M52 47h5M52 48h5M23 49h1M36 49h1M39 49h1M47 49h1M53 49h3M36 50h1M35 51h1M40 51h1M46 51h1M35 52h1M41 52h4M31 53h4M64 57h1M64 58h1M19 59h1M55 59h1M64 59h1M34 60h3M54 60h1M64 60h1M32 61h5M59 61h1M19 62h1M33 62h4M58 62h2M18 63h2M54 63h5M55 64h2" />
<path stroke="#ee5200" d="M42 12h2M44 13h2M53 24h3M76 24h1M51 25h7M75 25h3M50 26h8M59 26h1M74 26h3M49 27h9M74 27h4M48 28h9M74 28h4M48 29h7M73 29h5M50 30h4M73 30h4M52 31h1M73 31h3M24 32h3M47 32h2M72 32h3M24 33h2M46 33h4M72 33h1M23 34h3M45 34h6M72 34h1M23 35h2M45 35h6M72 35h1M24 36h1M45 36h5M46 37h3M21 39h1M22 40h2M19 41h3M23 41h1M42 41h4M19 42h4M28 42h5M40 42h3M19 43h4M32 43h4M39 43h2M43 43h3M19 44h5M28 44h4M39 44h1M41 44h6M20 45h4M28 45h7M40 45h7M20 46h4M27 46h8M40 46h8M21 47h3M27 47h9M39 47h9M21 48h3M27 48h9M39 48h9M22 49h1M27 49h9M40 49h7M27 50h9M40 50h7M28 51h7M41 51h5M29 52h6M17 57h1M16 58h3M33 58h4M16 59h3M31 59h3M56 59h4M16 60h4M31 60h1M55 60h5M17 61h3M54 61h5M17 62h2M54 62h4" />
<path stroke="#ac2900" d="M42 14h2M43 15h1" />
</svg>