<svg xmlns="http://www.w3.org/2000/svg" viewBox="0 -0.5 80 80" shape-rendering="crispEdges">
<metadata>Made with Pixels to Svg https://codepen.io/shshaw/pen/XbxvNj</metadata>
<path stroke="#839cb4" d="M69 10h2M67 11h2M65 12h2M63 13h2M61 14h2M60 15h1M58 16h1M56 17h2M55 18h1M54 19h1M52 20h2M51 21h1M62 21h1M50 22h1M49 23h1M48 24h1M59 24h1M33 26h2M58 26h1M31 27h2M30 28h1M29 29h1M28 30h1M62 31h1M58 33h1M61 33h1M60 34h1M29 35h2M39 35h1M38 36h1M28 37h1M37 38h1M27 39h1M37 39h1M15 42h1M58 42h1M61 42h2M10 43h3M27 43h1M54 43h2M7 44h3M61 44h2M5 45h2M42 45h1M44 45h1M4 46h1M28 46h1M48 46h1M60 46h1M4 47h1M27 48h1M23 50h1M50 50h1M20 51h1M51 51h1M50 53h1M57 54h1M57 55h1M41 56h1M58 56h1M42 57h1M58 57h1" />
<path stroke="#4a5a73" d="M71 10h1M72 11h1M72 12h1M72 13h1M71 14h1M63 21h2M61 22h1M47 25h1M46 26h1M35 27h1M45 27h1M58 27h1M35 28h1M44 28h1M35 29h1M43 29h1M57 29h1M62 29h1M42 30h1M62 30h1M27 31h1M41 31h2M61 31h1M26 32h1M41 32h1M57 32h1M61 32h1M40 33h1M39 34h1M58 34h1M59 35h1M29 36h1M66 37h3M28 38h1M64 38h2M69 38h1M62 39h2M69 39h1M68 40h1M66 41h2M16 42h3M56 42h2M63 42h3M13 43h2M66 43h1M66 44h1M43 45h1M62 45h4M45 46h3M63 46h1M64 47h1M61 48h1M64 48h1M13 49h2M26 49h2M62 49h2M15 50h3M24 50h2M18 51h2M21 52h1M17 53h1M57 53h1M18 54h5M27 55h1M53 56h1M54 57h1M36 58h1M51 58h1M55 58h2M52 59h2M57 59h2M54 60h1M56 60h1" />
<path stroke="#eeeeff" d="M69 11h3M67 12h4M65 13h4M63 14h5M61 15h6M60 16h5M58 17h6M56 18h7M55 19h7M54 20h7M52 21h8M51 22h8M50 23h8M49 24h8M48 25h8M47 26h8M33 27h1M46 27h8M31 28h3M45 28h8M30 29h3M44 29h9M29 30h4M43 30h9M28 31h4M43 31h8M27 32h5M42 32h9M26 33h5M32 33h1M41 33h9M26 34h4M31 34h2M37 34h2M40 34h9M25 35h4M31 35h2M35 35h4M40 35h9M24 36h5M30 36h8M39 36h9M24 37h4M29 37h9M39 37h8M23 38h5M29 38h8M38 38h9M22 39h5M28 39h8M38 39h8M22 40h14M37 40h8M21 41h24M19 42h1M21 42h23M16 43h4M21 43h6M29 43h14M10 44h9M20 44h8M29 44h14M7 45h11M20 45h7M29 45h13M6 46h6M20 46h7M29 46h13M20 47h22M20 48h7M28 48h13M21 49h5M28 49h13M57 49h1M21 50h2M26 50h14M54 50h1M56 50h1M22 51h18M53 51h1M55 51h1M23 52h16M54 52h1M24 53h9M34 53h4M53 53h1M55 53h1M27 54h6M35 54h1M54 54h1M29 55h3M57 57h1M53 58h1M57 58h2M54 59h2" />
<path stroke="#bdc5de" d="M71 12h1M69 13h3M68 14h3M67 15h4M59 16h1M65 16h5M64 17h5M63 18h6M62 19h6M61 20h6M60 21h2M65 21h1M59 22h2M62 22h3M58 23h2M61 23h5M57 24h2M60 24h6M56 25h3M60 25h6M55 26h3M59 26h7M34 27h1M54 27h4M59 27h7M34 28h1M53 28h5M59 28h7M33 29h2M53 29h4M58 29h4M63 29h2M33 30h1M52 30h5M58 30h4M63 30h2M32 31h1M51 31h6M58 31h3M63 31h2M51 32h6M58 32h3M62 32h2M50 33h8M59 33h2M62 33h2M49 34h9M59 34h1M61 34h2M49 35h10M60 35h3M48 36h14M38 37h1M47 37h15M47 38h14M66 38h3M36 39h1M46 39h14M64 39h5M36 40h1M45 40h14M62 40h6M45 41h13M60 41h6M44 42h12M59 42h2M15 43h1M43 43h11M56 43h10M43 44h18M63 44h3M18 45h1M45 45h17M5 46h1M12 46h7M42 46h3M49 46h11M61 46h2M5 47h14M42 47h18M61 47h3M8 48h11M41 48h18M62 48h2M15 49h5M41 49h16M58 49h1M12 50h3M18 50h2M40 50h1M42 50h8M52 50h2M55 50h1M57 50h1M13 51h5M40 51h1M44 51h5M52 51h1M54 51h1M56 51h2M15 52h6M39 52h2M44 52h4M52 52h2M55 52h2M18 53h5M38 53h3M43 53h7M52 53h1M54 53h1M26 54h1M36 54h18M56 54h1M28 55h1M32 55h1M36 55h11M48 55h5M55 55h2M30 56h10M43 56h3M49 56h2M54 56h4M33 57h8M43 57h3M51 57h3M55 57h2M37 58h7M52 58h1M54 58h1M56 59h1" />
<path stroke="#101010" d="M71 15h1M70 16h1M69 17h1M69 18h1M68 19h1M67 20h1M66 21h1M65 22h1M60 23h1M66 23h1M66 24h1M41 25h3M59 25h1M66 25h1M39 26h2M43 26h1M66 26h1M37 27h2M43 27h1M66 27h1M36 28h1M42 28h1M58 28h1M66 28h1M42 29h1M65 29h1M34 30h1M57 30h1M65 30h1M33 31h1M57 31h1M65 31h1M32 32h1M40 32h1M64 32h1M25 33h1M31 33h1M64 33h1M25 34h1M30 34h1M63 34h1M24 35h1M63 35h1M23 36h1M62 36h1M23 37h1M62 37h1M22 38h1M61 38h1M60 39h1M21 40h1M59 40h3M58 41h2M20 42h1M20 43h1M28 43h1M19 44h1M28 44h1M19 45h1M27 45h2M19 46h1M27 46h1M19 47h1M60 47h1M5 48h3M19 48h1M59 48h1M8 49h5M20 49h1M59 49h1M11 50h1M20 50h1M58 50h1M12 51h1M21 51h1M58 51h1M13 52h2M22 52h1M57 52h1M15 53h2M23 53h1M56 53h1M24 54h2M55 54h1M58 54h1M26 55h1M53 55h2M58 55h1M28 56h2M51 56h2M59 56h1M30 57h3M48 57h3M59 57h1M33 58h3M44 58h4M59 58h1M37 59h7M55 60h1" />
<path stroke="#4183ee" d="M41 26h2M39 27h4M37 28h5M36 29h6M35 30h7M34 31h7M33 32h7M33 33h5M34 34h2M33 35h1M33 53h1M33 54h2" />
<path stroke="#733129" d="M23 31h2M22 32h1M24 32h1M21 33h1M24 33h1M21 34h1M24 34h1M20 35h1M20 36h1M20 37h1M19 38h1M19 39h1M21 39h1M19 40h1M19 41h1" />
<path stroke="#cd4a31" d="M23 32h1M22 33h2M22 34h2M21 35h3M21 36h2M21 37h2M20 38h2M20 39h1M20 40h1M20 41h1M41 51h2M41 52h3M41 53h1M47 55h1M46 56h3M46 57h2" />
<path stroke="#94b4ff" d="M38 33h2M33 34h1M36 34h1M34 35h1" />
<path stroke="#bd8383" d="M41 50h1M43 51h1M42 53h1" />
<path stroke="#525aac" d="M51 50h1M49 51h2M48 52h4M51 53h1M33 55h3M40 56h1M42 56h1M41 57h1" />
</svg>