<svg xmlns="http://www.w3.org/2000/svg" viewBox="0 -0.5 80 80" shape-rendering="crispEdges">
<metadata>Made with Pixels to Svg https://codepen.io/shshaw/pen/XbxvNj</metadata>
<path stroke="#7b0808" d="M46 14h6M43 15h3M52 15h2M41 16h2M54 16h1M40 17h1M39 18h1M38 19h1M37 20h1M36 21h1M35 23h1M34 24h1M33 25h1M32 27h1M31 28h1M30 29h1M28 30h2M26 31h2M24 32h2M23 33h1M22 34h1M21 35h1M21 36h1M20 37h1M20 38h1" />
<path stroke="#ff6a6a" d="M46 15h5M43 16h8M44 17h6M45 18h4M43 19h4M40 20h5M39 21h4M40 22h1M26 32h7M24 33h2M29 33h2M23 34h1M30 34h3M22 35h1M29 35h7M22 36h2M26 36h4M21 37h5M21 38h3M22 39h1" />
<path stroke="#ee3131" d="M51 15h1M51 16h2M50 17h4M49 18h4M47 19h6M45 20h10M37 21h2M43 21h12M37 22h3M41 22h4M51 22h5M36 23h9M53 23h3M35 24h10M53 24h3M34 25h14M53 25h3M37 26h19M37 27h18M36 28h19M33 29h17M30 30h20M28 31h24M33 32h4M42 32h12M31 33h6M44 33h10M33 34h4M44 34h9M36 35h4M44 35h9M30 36h20M26 37h24M24 38h4M38 38h12M23 39h3M44 39h4M23 40h2" />
<path stroke="#bd3141" d="M53 16h1M54 17h1M55 21h3M35 22h2M56 22h2M56 23h2M56 24h3M56 25h3M32 26h2M56 26h3M55 27h3M55 28h3M55 29h3M56 30h4M56 31h4M54 32h6M54 33h7M53 34h8M53 35h8M55 36h6M56 37h6M28 38h10M50 38h3M56 38h6M26 39h3M31 39h13M48 39h12M25 40h3M32 40h4M38 40h22M24 41h3M33 41h2M39 41h22M24 42h3M44 42h5M51 42h12M25 43h1M52 43h13M53 44h12M56 45h9M60 46h2M64 46h1" />
<path stroke="#ffd552" d="M41 17h3M40 18h5M53 18h1M39 19h4M54 19h1M38 20h2M46 22h3M45 23h7M46 24h7M49 25h3M34 26h2M33 27h4M32 28h3M31 29h1M51 29h3M50 30h4M53 31h1M38 32h2M26 33h3M37 33h6M24 34h6M38 34h6M23 35h6M41 35h2M24 36h2M51 36h1M50 37h2" />
<path stroke="#101010" d="M55 17h1M56 18h1M57 19h1M57 20h1M58 21h1M58 22h1M58 23h1M59 24h1M59 25h1M59 26h1M59 27h1M60 28h1M60 29h1M60 30h1M60 31h1M60 32h1M61 33h1M61 34h1M61 35h1M61 36h1M62 37h1M62 38h1M20 39h2M63 39h1M22 40h1M64 40h1M23 41h1M64 41h1M23 42h1M27 42h1M32 42h3M39 42h4M65 42h1M24 43h1M27 43h2M31 43h1M34 43h1M39 43h1M42 43h5M51 43h1M65 43h1M24 44h3M29 44h2M35 44h1M38 44h1M42 44h4M52 44h1M65 44h1M25 45h2M36 45h2M42 45h1M44 45h1M52 45h3M65 45h1M25 46h1M27 46h1M42 46h1M52 46h7M62 46h2M65 46h1M25 47h1M29 47h2M41 47h1M53 47h4M59 47h1M61 47h1M64 47h1M25 48h3M30 48h3M39 48h2M42 48h1M53 48h2M59 48h2M64 48h1M24 49h7M33 49h6M53 49h1M56 49h1M59 49h1M62 49h1M65 49h1M24 50h2M31 50h1M53 50h4M60 50h3M66 50h1M23 51h1M28 51h5M53 51h1M56 51h2M60 51h4M67 51h1M23 52h1M26 52h2M33 52h3M53 52h1M57 52h1M60 52h3M64 52h2M68 52h1M22 53h1M25 53h1M33 53h1M37 53h4M53 53h1M56 53h3M61 53h1M65 53h1M68 53h1M19 54h1M22 54h1M25 54h1M32 54h1M52 54h4M58 54h1M62 54h1M66 54h1M68 54h1M19 55h1M22 55h1M25 55h1M32 55h1M52 55h1M59 55h1M63 55h1M66 55h1M68 55h1M18 56h1M20 56h1M22 56h1M26 56h1M29 56h2M33 56h1M52 56h1M60 56h1M63 56h1M66 56h1M68 56h1M18 57h1M21 57h2M26 57h1M31 57h2M34 57h1M51 57h1M60 57h1M63 57h1M66 57h1M68 57h1M17 58h1M27 58h1M33 58h2M51 58h1M60 58h1M63 58h1M65 58h1M67 58h1M17 59h1M25 59h3M50 59h1M60 59h1M63 59h1M65 59h2M17 60h1M50 60h1M59 60h1M62 60h1M16 61h1M49 61h1M58 61h1M61 61h1M16 62h1M48 62h1M58 62h3M16 63h1M47 63h1M45 64h2M42 65h3" />
<path stroke="#d5cd31" d="M54 18h1M55 19h2M56 20h1M58 28h2M59 29h1M54 30h2M54 31h1M52 36h2M52 37h4M54 38h2M61 39h2M60 40h4M62 41h2M64 42h1" />
<path stroke="#de6a31" d="M55 18h1M55 20h1M58 27h1M58 29h1M54 36h1M53 38h1M60 39h1M18 41h3M61 41h1M16 42h5M63 42h1M15 43h6M32 43h2M49 43h2M15 44h5M31 44h4M47 44h4M14 45h6M30 45h6M46 45h5M14 46h5M32 46h5M45 46h6M13 47h5M45 47h6M57 47h2M62 47h2M13 48h5M44 48h7M57 48h2M62 48h2M13 49h4M44 49h6M57 49h2M63 49h2M12 50h5M43 50h7M57 50h3M63 50h3M12 51h4M43 51h7M58 51h2M64 51h3M12 52h4M43 52h7M58 52h2M66 52h2M12 53h4M42 53h7M59 53h2M12 54h3M42 54h7M59 54h3M12 55h3M42 55h7M60 55h2M12 56h3M42 56h7M13 57h2M42 57h6M13 58h2M43 58h5M13 59h2M43 59h5M14 60h2M43 60h4M14 61h2M44 61h3M15 62h1M44 62h2M44 63h1M43 64h1" />
<path stroke="#ff8352" d="M53 19h1M45 22h1M49 22h2M52 23h1M45 24h1M48 25h1M52 25h1M36 26h1M35 28h1M32 29h1M50 29h1M54 29h1M52 31h1M55 31h1M37 32h1M40 32h2M43 33h1M37 34h1M40 35h1M43 35h1M50 36h1" />
<path stroke="#621000" d="M19 39h1M29 39h2M17 40h2M28 40h1M31 40h1M36 40h2M16 41h1M27 41h1M32 41h1M35 41h1M38 41h1M15 42h1M43 42h1M49 42h2M14 43h1M26 43h1M41 43h1M47 43h2M14 44h1M27 44h1M46 44h1M13 45h1M27 45h1M43 45h1M45 45h1M55 45h1M13 46h1M26 46h1M28 46h1M41 46h1M44 46h1M59 46h1M12 47h1M26 47h3M42 47h1M44 47h1M60 47h1M12 48h1M28 48h2M43 48h1M55 48h1M43 49h1M54 49h2M60 49h2M11 50h1M26 50h5M42 50h1M11 51h1M27 51h1M33 51h1M42 51h1M54 51h2M11 52h1M30 52h3M36 52h1M41 52h2M54 52h3M11 53h1M19 53h1M30 53h1M32 53h1M41 53h1M54 53h2M11 54h1M29 54h1M41 54h1M11 55h1M23 55h1M29 55h1M41 55h1M11 56h1M23 56h1M41 56h1M24 57h1M41 57h1M12 58h1M24 58h1M42 58h1M12 59h1M42 59h1M13 60h1M42 60h1M13 61h1M43 61h1M14 62h1M43 62h1M15 63h1M43 63h1M42 64h1" />
<path stroke="#b44139" d="M19 40h3M17 41h1M21 41h2M21 42h2M21 43h3M40 43h1M20 44h4M28 44h1M39 44h3M51 44h1M20 45h5M28 45h2M38 45h4M51 45h1M19 46h6M29 46h3M37 46h4M43 46h1M51 46h1M18 47h7M31 47h10M43 47h1M51 47h2M18 48h7M33 48h6M41 48h1M51 48h2M56 48h1M61 48h1M12 49h1M17 49h7M31 49h2M39 49h4M50 49h3M17 50h7M32 50h10M50 50h3M16 51h7M24 51h3M34 51h8M50 51h3M16 52h7M24 52h2M37 52h4M50 52h3M16 53h3M20 53h2M23 53h2M31 53h1M49 53h4M66 53h2M15 54h4M20 54h2M23 54h2M30 54h2M49 54h3M67 54h1M15 55h4M20 55h2M24 55h1M30 55h2M49 55h3M62 55h1M67 55h1M15 56h3M21 56h1M24 56h2M31 56h2M49 56h3M61 56h2M67 56h1M12 57h1M15 57h3M25 57h1M33 57h1M48 57h3M61 57h2M67 57h1M15 58h2M25 58h2M48 58h3M61 58h2M66 58h1M15 59h2M48 59h2M61 59h2M16 60h1M47 60h3M60 60h2M47 61h2M59 61h2M46 62h2M45 63h2M44 64h1" />
<path stroke="#fff6ff" d="M29 40h2M29 41h2M36 41h2M36 42h2" />
<path stroke="#d5d5d5" d="M28 41h1M28 42h3M35 42h1M35 43h3" />
<path stroke="#9c8ba4" d="M31 41h1M31 42h1M38 42h1M29 43h2M38 43h1M36 44h2" />
</svg>