<svg xmlns="http://www.w3.org/2000/svg" viewBox="0 -0.5 80 80" shape-rendering="crispEdges">
<metadata>Made with Pixels to Svg https://codepen.io/shshaw/pen/XbxvNj</metadata>
<path stroke="#6a5231" d="M20 7h3M23 8h3M26 9h2M28 10h1M29 11h1M30 12h1M31 13h1M32 14h1M32 15h1M33 16h1M23 18h1M23 19h1M27 19h1M28 21h1M29 23h1M29 24h1M30 26h1M20 27h1M20 28h1M22 28h1M19 29h1M19 30h1M16 31h2M20 32h1M19 33h1M26 34h1M28 34h1M25 35h1M26 36h1M26 37h1M26 38h1M26 39h1M26 40h1M26 41h1M26 42h1M26 43h1M26 44h1M25 45h1M25 46h1M25 47h1M58 54h1M57 55h1M30 67h3" />
<path stroke="#101010" d="M20 8h1M21 9h1M21 10h1M22 11h1M22 12h1M22 13h1M22 14h1M23 15h1M23 16h1M23 17h1M33 17h1M34 18h1M25 19h2M34 19h1M23 20h1M27 20h1M35 20h1M35 21h1M28 22h1M35 22h1M21 23h1M28 23h1M36 23h1M21 24h1M36 24h1M21 25h1M29 25h1M36 25h1M21 26h1M36 26h1M30 27h1M36 27h1M30 28h1M36 28h1M21 29h1M30 29h1M36 29h1M21 30h1M30 30h1M35 30h1M34 31h1M15 32h1M29 32h1M34 32h1M16 33h3M29 33h1M33 33h1M19 34h2M24 34h2M32 34h1M21 35h3M27 35h1M30 35h2M28 36h2M34 43h1M35 45h1M36 47h1M24 48h1M24 49h1M40 49h1M23 50h1M25 50h2M42 50h2M22 51h1M24 51h1M45 51h1M48 51h1M22 52h2M46 52h2M22 53h1M33 53h1M21 54h1M34 54h1M45 54h4M21 55h1M34 55h1M49 55h5M29 56h1M35 56h1M54 56h5M19 57h1M25 57h1M29 57h1M25 58h1M30 58h1M24 59h1M31 59h2M53 59h1M21 60h3M33 60h3M18 61h1M22 61h1M36 61h3M16 62h2M23 62h1M39 62h3M69 62h1M14 63h2M24 63h1M42 63h4M66 63h3M12 64h2M25 64h1M46 64h5M62 64h4M9 65h3M26 65h2M47 65h1M51 65h11M5 66h4M28 66h2M44 66h2M41 67h3M33 68h8" />
<path stroke="#ffeebd" d="M21 8h2M22 9h3M23 10h3M31 29h2M31 30h2M31 31h3M30 32h3M30 33h3M29 34h3M28 35h2" />
<path stroke="#ac945a" d="M25 9h1M22 10h1M27 10h1M23 11h1M24 12h1M24 13h1M25 14h1M25 15h1M25 16h1M25 17h2M25 18h2M24 19h1M28 20h1M28 24h1M21 27h1M21 28h1M20 29h1M35 29h1M20 30h1M18 31h3M30 31h1M18 32h2M33 32h1M25 33h4M21 34h3M27 34h1M26 35h1M27 36h1M27 37h2M27 38h3M27 39h3M28 40h2M27 50h1M27 54h1M56 54h2M27 55h1M54 55h3M27 56h2M26 57h1M25 61h1M26 62h2M31 62h3M26 63h8M27 64h8M28 65h7M30 66h7M33 67h6" />
<path stroke="#ffd573" d="M26 10h1M24 11h5M23 12h1M25 12h5M23 13h1M25 13h6M23 14h2M26 14h6M24 15h1M26 15h6M24 16h1M26 16h7M24 17h1M27 17h6M24 18h1M27 18h7M28 19h6M29 20h6M29 21h6M29 22h6M30 23h6M30 24h6M28 25h1M30 25h6M27 26h3M31 26h5M26 27h4M31 27h5M25 28h4M31 28h5M22 29h6M33 29h2M22 30h5M33 30h2M21 31h8M16 32h2M21 32h6M20 33h5M27 40h1M27 41h3M27 42h3M27 43h3M27 44h3M26 45h4M26 46h4M26 47h4M26 48h4M25 49h6M30 50h1M27 57h2M26 58h4M25 59h6M25 60h8M26 61h7M28 62h3" />
<path stroke="#8b417b" d="M45 19h7M24 20h1M41 20h4M52 20h3M22 21h1M39 21h2M55 21h2M22 22h1M37 22h2M57 22h1M58 23h1M27 24h1M59 24h1M60 25h1M60 26h1M22 27h1M24 27h1M61 27h1M61 28h1M61 29h1M62 30h1M62 31h1M41 32h7M62 32h1M38 33h3M48 33h3M62 33h1M36 34h2M51 34h1M62 34h1M24 35h1M34 35h2M52 35h1M62 35h1M24 36h1M33 36h1M53 36h1M62 36h1M23 37h1M32 37h1M53 37h1M62 37h1M23 38h1M54 38h1M61 38h1M23 39h1M54 39h1M61 39h1M22 40h1M54 40h1M61 40h1M22 41h1M54 41h1M60 41h1M22 42h1M54 42h1M60 42h1M22 43h1M25 43h1M53 43h1M59 43h1M21 44h1M53 44h1M59 44h1M21 45h1M24 45h1M53 45h1M58 45h1M21 46h1M52 46h1M57 46h1M21 47h1M23 47h1M52 47h1M57 47h1M21 48h1M23 48h1M51 48h1M56 48h1M22 49h1M50 49h1M55 49h1M22 50h1M49 50h1M54 50h1M26 51h1M29 51h1M25 52h1M28 52h1M30 52h1M45 53h3M43 54h2M29 55h1M45 55h4M48 56h6M23 57h1M31 57h1M34 57h1M51 57h7M61 57h2M22 58h2M32 58h1M35 58h1M54 58h3M58 58h1M60 58h1M63 58h3M22 59h2M33 59h1M40 59h1M56 59h2M59 59h1M61 59h1M66 59h2M17 60h1M47 60h1M59 60h1M11 62h1M15 62h1M9 63h1M12 63h2M65 63h1M5 64h7M51 64h1M61 64h1M5 65h4" />
<path stroke="#d58bcd" d="M25 20h2M45 20h7M23 21h4M41 21h14M23 22h4M39 22h18M23 23h3M37 23h21M23 24h2M37 24h6M52 24h7M37 25h3M54 25h6M55 26h5M56 27h5M57 28h4M57 29h4M58 30h4M58 31h4M59 32h3M59 33h3M59 34h3M59 35h3M25 36h1M59 36h3M24 37h1M59 37h3M24 38h1M59 38h2M59 39h2M23 40h1M59 40h2M58 41h2M58 42h2M58 43h1M22 44h1M57 44h2M57 45h1M56 46h1M56 47h1M55 48h1M25 51h1M28 51h1M24 52h1M26 52h1M29 52h1M31 52h1M23 53h4M28 53h5M24 54h2M29 54h3" />
<path stroke="#c55a9c" d="M27 21h1M27 22h1M22 23h1M26 23h2M22 24h1M25 24h2M43 24h9M22 25h5M40 25h14M22 26h4M37 26h18M23 27h1M37 27h19M37 28h4M51 28h6M37 29h1M53 29h4M27 30h2M54 30h4M55 31h3M55 32h4M56 33h3M56 34h3M56 35h3M57 36h2M25 37h1M57 37h2M25 38h1M57 38h2M24 39h2M57 39h2M24 40h1M57 40h2M23 41h2M57 41h1M23 42h1M56 42h2M23 43h1M56 43h2M23 44h1M56 44h1M22 45h1M55 45h2M22 46h1M55 46h1M22 47h1M54 47h2M22 48h1M54 48h1M53 49h2M52 50h1M51 51h1M22 54h2M32 54h2M22 55h4M30 55h4M22 56h4M30 56h5M21 57h2M24 57h1M30 57h1M32 57h2M35 57h1M58 57h1M19 58h3M24 58h1M31 58h1M33 58h2M57 58h1M59 58h1M61 58h2M17 59h3M34 59h6M58 59h1M60 59h1M62 59h4M13 60h4M36 60h11M60 60h8M10 61h5M39 61h30M8 62h3M42 62h27M6 63h3M46 63h19M52 64h9" />
<path stroke="#52395a" d="M27 25h1M26 26h1M25 27h1M23 28h2M29 28h1M28 29h1M29 30h1M28 50h2M53 50h1M27 51h1M30 51h2M52 51h1M27 52h1M32 52h1M50 52h2M27 53h1M43 53h2M48 53h2M26 54h1M28 54h1M41 54h2M26 55h1M28 55h1M43 55h2M21 56h1M26 56h1M45 56h3M20 57h1M48 57h3M59 57h2M17 58h2M36 58h4M51 58h3M13 59h4M20 59h2M41 59h6M54 59h2M10 60h3M18 60h3M48 60h11M68 60h1M8 61h2M15 61h3M69 61h1M6 62h2M12 62h3M22 62h1M5 63h1M10 63h2M4 64h1M4 65h1" />
<path stroke="#e6c5ee" d="M41 28h10M38 29h15M36 30h18M35 31h20M35 32h6M48 32h7M34 33h4M51 33h5M33 34h3M52 34h4M33 35h1M53 35h3M54 36h3M54 37h3M55 38h2M55 39h2M25 40h1M55 40h2M25 41h1M55 41h2M24 42h2M55 42h1M24 43h1M54 43h2M24 44h1M54 44h2M23 45h1M54 45h1M23 46h1M53 46h2M53 47h1M52 48h2M51 49h2M50 50h2M49 51h2M48 52h2" />
<path stroke="#ffffff" d="M29 29h1" />
<path stroke="#8394f6" d="M29 31h1M27 32h1M31 40h1M30 41h3M30 42h3M30 43h4M30 44h4M30 45h5M31 46h4M31 47h5M31 48h6M31 49h7M24 50h1M31 50h10M23 51h1M32 51h11M33 52h13M34 53h9M35 54h6M35 55h8M36 56h9M36 57h10M40 58h4M33 61h3" />
<path stroke="#526ab4" d="M28 32h1M32 35h1M30 36h1M32 36h1M29 37h2M30 38h1M30 39h2M30 40h1M43 51h1M50 53h2M49 54h7M46 57h2M44 58h7M47 59h6M24 60h1M23 61h2M24 62h2M34 62h5M25 63h1M34 63h8M26 64h1M35 64h11M35 65h11M37 66h7M39 67h2" />
<path stroke="#39417b" d="M31 36h1M31 37h1M31 38h1M32 39h1M32 40h1M33 41h1M33 42h1M34 44h1M35 46h1M37 48h1M38 49h2M41 50h1M44 51h1M52 53h6M46 65h1" />
<path stroke="#c5b4b4" d="M30 46h1M30 47h1M25 48h1M30 48h1" />
</svg>