<svg xmlns="http://www.w3.org/2000/svg" viewBox="0 -0.5 80 80" shape-rendering="crispEdges">
<metadata>Made with Pixels to Svg https://codepen.io/shshaw/pen/XbxvNj</metadata>
<path stroke="#5a3908" d="M49 18h3M39 19h5M52 19h1M45 20h2M52 20h1M34 21h2M52 21h1M51 23h1M30 24h1M30 25h1M50 25h1M31 26h1M31 27h1M30 32h1M31 33h2M46 33h2M33 34h2M48 34h2M35 35h1M50 35h2M33 36h1M52 36h1M32 37h1M43 37h1M53 37h1M37 38h1M52 38h1M36 39h2M44 39h1M46 39h1M50 39h1M35 40h1M47 40h2M39 41h2M36 42h1M42 42h1M44 42h2M35 43h1M43 43h1M46 43h2M32 44h1M42 44h1M54 44h1M18 45h1M31 45h1M57 45h3M19 46h1M30 46h1M41 46h1M47 46h1M60 46h2M19 47h1M32 47h2M39 47h1M45 47h1M49 47h1M62 47h1M17 48h1M29 48h3M38 48h1M44 48h1M13 49h1M30 49h1M37 49h2M30 50h1M34 50h1M36 50h1M47 50h3M30 51h1M35 51h1M45 51h2M50 51h2M35 52h1M42 52h3M52 52h1M59 52h1M35 53h1M53 53h1M59 53h1M54 54h1M59 54h1M38 55h1M54 55h1M58 55h1M37 56h1M53 56h1M58 56h1M37 57h1M40 57h1M51 57h1M57 57h1M38 58h1M51 58h1M55 58h2M39 59h2M51 59h1M50 60h1" />
<path stroke="#835a10" d="M38 19h1M47 19h2M29 20h4M36 20h1M29 21h1M29 22h1M49 26h1M30 30h1M30 31h1M48 32h1M36 33h1M41 33h1M20 43h1M17 44h1M21 45h1M15 47h2M26 47h1M12 48h1M18 48h1M22 48h1M25 48h1M14 49h1M24 49h1M15 50h2M17 51h1M23 51h1M18 52h1M18 53h1M27 53h3M19 55h1M23 55h1M18 56h1M17 57h1M21 57h1" />
<path stroke="#ffe629" d="M49 19h3M38 20h5M48 20h3M30 21h3M36 21h8M46 21h3M30 22h4M36 22h12M31 23h16M31 24h1M33 24h13M33 25h13M32 26h14M32 27h14M32 28h13M32 29h1M34 29h10M31 30h3M35 30h8M31 31h4M36 31h6M31 32h4M37 32h4M43 32h2M33 33h3M37 33h4M42 33h2M35 34h5M38 42h4M39 43h4M44 43h2M18 44h3M36 44h1M39 44h3M43 44h5M19 45h2M35 45h6M43 45h5M36 46h3M42 46h5M55 46h5M41 47h4M47 47h2M55 47h7M13 48h2M26 48h2M39 48h5M45 48h6M56 48h7M25 49h4M39 49h4M45 49h6M57 49h4M24 50h2M28 50h1M40 50h1M45 50h2M59 50h1M47 51h3M45 52h7M61 52h3M40 53h8M51 53h2M60 53h5M41 54h5M52 54h2M60 54h5M20 55h1M39 55h2M53 55h1M59 55h5M19 56h2M38 56h3M59 56h5M18 57h2M38 57h2M50 57h1M58 57h5M39 58h2M50 58h1M57 58h4M50 59h1M56 59h3M49 60h1" />
<path stroke="#ac8329" d="M37 20h1M44 20h1M33 21h1M44 21h1M34 22h1M51 22h1M29 23h1M47 23h1M47 24h1M50 24h1M31 28h1M50 28h1M44 29h2M34 30h1M50 31h1M48 35h2M34 36h1M39 36h1M48 36h4M34 37h2M49 37h2M38 39h3M36 40h1M38 40h4M50 40h1M35 41h2M42 41h1M35 42h1M46 42h1M48 43h1M35 44h1M41 45h2M33 46h1M40 46h1M40 47h1M46 47h1M33 48h1M35 48h1M36 49h1M44 49h1M62 49h2M31 50h1M38 50h1M60 50h4M34 51h1M38 51h3M59 51h6M60 52h1M64 52h1M49 53h1M40 54h1M49 54h1M41 56h1M41 57h1M48 57h1M48 58h1" />
<path stroke="#cdbd20" d="M43 20h1M47 20h1M45 21h1M49 21h1M35 22h1M48 22h1M30 23h1M32 24h1M46 24h1M31 25h2M46 25h3M46 26h3M46 27h4M45 28h5M31 29h1M33 29h1M46 29h5M44 30h7M43 31h7M35 32h1M42 32h1M45 32h3M44 33h1M40 34h4M36 35h1M41 35h1M49 40h1M47 41h3M37 42h1M47 42h2M33 44h2M49 44h5M32 45h2M48 45h1M50 45h7M21 46h1M31 46h2M35 46h1M39 46h1M50 46h5M20 47h2M29 47h3M35 47h4M51 47h4M15 48h2M20 48h2M28 48h1M32 48h1M36 48h2M52 48h4M15 49h2M18 49h5M29 49h1M31 49h3M43 49h1M51 49h1M53 49h4M17 50h6M26 50h2M29 50h1M32 50h2M37 50h1M39 50h1M41 50h2M44 50h1M50 50h2M53 50h6M18 51h5M24 51h6M36 51h2M41 51h1M43 51h2M52 51h1M55 51h4M19 52h4M24 52h6M36 52h1M39 52h1M58 52h1M19 53h8M48 53h1M50 53h1M22 54h2M46 54h3M50 54h2M21 55h1M41 55h9M21 56h2M42 56h8M20 57h1M42 57h1M46 57h2M49 57h1M49 58h1M61 58h1M49 59h1M59 59h1" />
<path stroke="#f6f6a4" d="M51 20h1M50 21h2M49 22h2M48 23h3M48 24h2M49 25h1M37 35h4M37 36h2M40 36h1M38 37h2M36 43h3M37 44h2" />
<path stroke="#101010" d="M50 26h1M50 27h1M51 29h1M43 30h1M51 30h1M35 31h1M42 31h1M51 31h1M36 32h1M41 32h1M49 32h2M45 34h3M43 35h5M35 36h2M41 36h6M37 37h1M40 37h2M44 37h2M31 38h1M38 38h2M44 38h2M53 38h1M31 39h1M45 39h1M51 39h3M32 40h3M37 40h1M46 40h1M51 40h2M34 41h1M37 41h1M46 41h1M50 41h1M34 42h1M49 42h1M33 43h2M49 43h5M21 44h1M48 44h1M55 44h2M34 45h1M49 45h1M22 46h1M29 46h1M34 46h1M48 46h2M22 47h1M27 47h2M34 47h1M50 47h1M34 48h1M51 48h1M63 48h1M23 49h1M34 49h2M52 49h1M64 49h1M23 50h1M35 50h1M43 50h1M52 50h1M64 50h1M31 51h3M42 51h1M53 51h2M65 51h1M30 52h1M34 52h1M37 52h2M40 52h2M53 52h1M55 52h3M65 52h1M36 53h1M39 53h1M58 53h1M65 53h1M19 54h1M24 54h3M39 54h1M65 54h1M50 55h3M64 55h1M23 56h1M50 56h1M64 56h1M22 57h1M43 57h3M63 57h1M18 58h3M41 58h2M46 58h2M62 58h1M48 59h1M55 59h1M60 59h2M48 60h1M56 60h4M49 61h1" />
<path stroke="#836208" d="M45 33h1M44 34h1M42 35h1M47 36h1M33 37h1M36 37h1M42 37h1M46 37h3M51 37h2M32 38h5M40 38h4M46 38h6M32 39h4M41 39h3M47 39h3M42 40h4M38 41h1M41 41h1M43 41h3M43 42h1" />
<path stroke="#ac8b18" d="M18 43h2M20 46h1M13 47h2M19 48h1M17 49h1M23 52h1M20 54h2M22 55h1" />
<path stroke="#d5b452" d="M61 49h1" />
</svg>