<svg xmlns="http://www.w3.org/2000/svg" viewBox="0 -0.5 80 80" shape-rendering="crispEdges">
<metadata>Made with Pixels to Svg https://codepen.io/shshaw/pen/XbxvNj</metadata>
<path stroke="#a47329" d="M22 11h2M24 12h1M39 24h1M45 25h4M45 26h6M20 27h2M46 27h7M19 28h2M47 28h7M19 29h2M47 29h7M18 30h4M32 30h1M48 30h5M18 31h2M28 36h1M27 37h3M27 38h3M34 38h2M27 39h4M33 39h4M48 39h1M27 40h10M28 41h3M28 42h2M20 43h1M20 44h1M51 44h3M19 45h1M47 45h1M53 45h1M19 46h1M45 46h1M57 46h2M45 47h1M56 47h4M20 48h1M56 48h4M44 49h2M56 49h5M57 50h4M21 51h1M57 51h4M58 52h3M58 53h3M58 54h3M58 55h2M58 56h2M57 57h2M57 58h1M54 63h1M53 64h1" />
<path stroke="#8b7310" d="M43 11h2M41 12h2M40 13h1M39 14h1M38 15h1M42 15h1M37 16h1M41 16h1M25 17h1M36 17h1M40 17h1M31 18h1M34 18h1M40 18h1M39 19h1M26 20h1M39 20h1M40 21h1M43 22h1M43 23h1M43 24h1M25 25h1M39 25h1M25 26h1M38 26h1M25 27h1M36 27h1M38 27h1M25 28h1M28 28h1M34 28h1M38 28h1M33 29h1M38 29h1M27 30h3M34 30h3M43 30h1M29 31h1M32 31h1M40 31h1M29 32h1M32 32h1M37 32h2M27 33h1M32 33h1M35 33h2M26 34h1M32 34h1M49 34h1M36 35h1M50 35h1M53 35h2M34 36h1M50 36h1M55 36h1M11 37h1M30 37h1M32 37h1M11 38h2M25 38h1M50 38h2M18 39h1M25 39h1M8 40h2M24 40h1M15 41h1M9 42h1M16 42h2M47 42h1M53 42h1M11 43h1M47 43h1M49 43h1M55 43h2M57 44h1M61 44h1M61 45h1M62 46h1M64 46h1M41 47h1M40 48h1M63 48h1M71 48h2M36 49h1M40 49h1M48 49h2M51 49h2M71 49h1M73 49h1M35 50h1M37 50h1M40 50h1M50 50h1M52 50h1M71 50h1M73 50h1M25 51h1M38 51h1M41 51h1M49 51h1M70 51h1M25 52h2M29 52h1M39 52h1M45 52h2M48 52h2M27 53h2M47 53h2M54 53h1M25 54h1M32 54h1M36 54h1M49 55h1M37 56h1M49 56h1M52 57h1M24 59h3M31 59h1M33 59h1M48 59h1M21 60h1M24 60h1M33 60h1M49 60h1M22 61h1M25 61h2M49 61h1M22 62h1M24 62h1M47 62h1M26 64h1M46 64h1M50 65h1M55 65h2M54 66h1" />
<path stroke="#624a08" d="M45 11h1M22 12h1M25 12h1M45 12h1M22 13h1M26 13h1M22 14h1M27 14h1M23 15h1M28 15h1M44 15h1M23 16h1M29 16h1M23 17h1M30 17h1M24 18h1M32 18h2M43 18h1M24 19h1M24 20h1M23 25h1M56 33h3M59 34h2M10 35h3M57 35h1M61 35h2M9 36h1M13 36h2M58 36h1M63 36h1M8 37h1M59 37h1M64 37h1M8 38h1M54 38h1M59 38h1M65 38h1M7 39h2M55 39h1M58 39h1M65 39h1M6 40h1M56 40h1M66 40h1M5 41h1M18 41h1M66 41h1M5 42h1M10 42h1M18 42h1M66 42h1M6 43h1M17 43h1M22 43h1M67 43h1M17 44h1M22 44h1M67 44h1M17 45h1M42 45h1M67 45h1M17 46h1M42 46h1M47 46h1M67 46h1M17 47h1M30 47h2M47 47h1M62 47h1M64 47h1M68 47h1M18 48h1M28 48h2M45 48h2M62 48h1M68 48h1M18 49h1M26 49h2M33 49h1M46 49h1M62 49h2M68 49h1M25 50h1M44 50h1M62 50h1M68 50h1M24 51h1M35 51h1M44 51h1M62 51h1M69 51h1M74 51h1M23 52h1M40 52h2M43 52h1M61 52h1M69 52h1M23 53h1M42 53h1M61 53h1M70 53h1M24 54h1M61 54h1M74 54h1M60 55h1M73 55h1M27 58h1M22 59h2M27 59h1M40 59h1M64 59h1M68 59h1M41 60h2M55 60h2M43 61h3M53 61h2" />
<path stroke="#ffee29" d="M23 12h1M43 12h2M23 13h2M41 13h4M24 14h2M40 14h4M25 15h1M39 15h3M25 16h2M38 16h3M24 17h1M26 17h1M37 17h3M26 18h1M30 18h1M36 18h3M25 19h1M29 19h10M25 20h1M27 20h12M26 21h14M26 22h15M25 23h5M31 23h10M25 24h3M33 24h6M24 25h1M26 25h3M32 25h7M26 26h3M30 26h1M32 26h5M23 27h2M27 27h8M22 28h3M29 28h5M22 29h3M30 29h3M24 30h3M30 30h2M25 31h4M30 31h2M27 32h2M30 32h2M28 33h1M30 33h2M30 34h2M50 34h1M55 34h4M30 35h2M38 35h2M51 35h1M58 35h3M10 36h3M24 36h2M30 36h1M38 36h4M51 36h1M56 36h2M59 36h4M9 37h2M23 37h2M31 37h1M39 37h4M54 37h4M60 37h4M9 38h2M21 38h3M31 38h2M40 38h4M55 38h2M60 38h5M9 39h2M20 39h4M40 39h5M60 39h5M7 40h1M20 40h3M41 40h4M49 40h1M54 40h2M61 40h5M6 41h3M19 41h4M41 41h5M47 41h3M54 41h3M64 41h2M6 42h2M21 42h2M42 42h3M54 42h3M65 42h1M42 43h2M54 43h1M57 43h1M66 43h1M66 44h1M34 45h1M36 45h1M38 45h2M34 46h1M36 46h1M39 46h2M35 47h1M37 47h1M39 47h1M41 48h1M28 49h3M41 49h1M47 49h1M72 49h1M26 50h4M36 50h1M45 50h5M51 50h1M72 50h1M26 51h2M36 51h2M47 51h2M50 51h3M71 51h2M50 52h3M70 52h2M25 53h2M50 53h3M50 54h3M51 55h2M22 60h2M25 60h1M27 61h1M25 62h2M48 62h1M26 63h1M47 63h3M24 64h1M47 64h1M46 65h4M46 66h1M49 66h1" />
<path stroke="#d5bd08" d="M25 13h1M23 14h1M26 14h1M44 14h1M24 15h1M26 15h2M43 15h1M24 16h1M27 16h2M42 16h2M27 17h3M41 17h3M25 18h1M27 18h3M35 18h1M39 18h1M41 18h2M26 19h3M40 19h3M40 20h3M41 21h2M41 22h2M41 23h2M40 24h3M40 25h4M23 26h2M37 26h1M39 26h5M26 27h1M35 27h1M39 27h6M39 28h7M25 29h1M29 29h1M39 29h7M23 30h1M33 30h1M37 30h6M33 31h7M26 32h1M33 32h4M29 33h1M33 33h2M27 34h3M33 34h5M25 35h2M32 35h3M37 35h1M31 36h3M52 36h1M12 37h3M33 37h1M50 37h3M58 37h1M47 38h1M52 38h2M57 38h2M11 39h1M46 39h2M50 39h5M56 39h2M59 39h1M10 40h2M16 40h1M19 40h1M46 40h1M50 40h4M57 40h1M59 40h2M10 41h3M16 41h2M50 41h4M58 41h6M8 42h1M11 42h3M20 42h1M48 42h5M58 42h7M7 43h3M12 43h2M34 43h3M48 43h1M59 43h7M8 44h3M19 44h1M33 44h6M49 44h2M59 44h2M62 44h4M9 45h2M40 45h2M48 45h5M58 45h3M62 45h5M41 46h1M48 46h6M59 46h3M63 46h1M65 46h2M40 47h1M48 47h7M60 47h2M63 47h1M65 47h3M30 48h2M33 48h1M35 48h1M37 48h1M39 48h1M48 48h8M60 48h2M64 48h4M31 49h2M34 49h2M37 49h3M50 49h1M53 49h3M61 49h1M64 49h4M30 50h3M34 50h1M38 50h2M41 50h1M53 50h4M61 50h1M63 50h5M28 51h6M39 51h2M45 51h2M54 51h3M61 51h1M63 51h6M73 51h1M24 52h1M27 52h2M37 52h2M44 52h1M47 52h1M54 52h4M62 52h7M72 52h2M24 53h1M29 53h2M36 53h1M40 53h2M43 53h3M49 53h1M53 53h1M55 53h3M62 53h8M71 53h3M26 54h6M37 54h9M47 54h3M53 54h1M55 54h3M62 54h12M27 55h5M37 55h9M47 55h2M50 55h1M53 55h1M55 55h3M61 55h12M28 56h4M38 56h9M48 56h1M50 56h3M54 56h4M61 56h12M28 57h3M38 57h9M48 57h4M53 57h4M62 57h10M28 58h3M39 58h9M49 58h3M53 58h4M63 58h7M28 59h3M32 59h1M41 59h7M49 59h3M53 59h4M65 59h3M26 60h7M43 60h5M50 60h2M53 60h2M23 61h2M28 61h5M46 61h1M48 61h1M50 61h2M23 62h1M27 62h4M49 62h4M24 63h2M27 63h2M50 63h4M27 64h1M48 64h5M54 64h2M51 65h4M47 66h2M53 66h1" />
<path stroke="#101010" d="M45 13h1M45 14h1M44 16h1M44 17h1M43 19h1M43 20h1M25 21h1M43 21h1M25 22h1M24 23h1M24 24h1M44 25h1M22 26h1M44 26h1M22 27h1M45 27h1M21 28h1M27 28h1M35 28h1M46 28h1M21 29h1M46 29h1M22 30h1M44 30h2M55 30h1M16 31h1M24 31h1M41 31h1M56 31h1M16 32h1M25 32h1M39 32h1M56 32h1M16 33h1M24 33h1M26 33h1M37 33h2M49 33h2M54 33h2M24 34h2M38 34h2M42 34h1M48 34h1M51 34h4M24 35h1M27 35h3M35 35h1M40 35h2M43 35h1M47 35h1M52 35h1M55 35h2M23 36h1M26 36h1M29 36h1M36 36h2M42 36h1M44 36h4M53 36h2M21 37h2M25 37h1M34 37h1M38 37h1M43 37h1M45 37h1M47 37h1M49 37h1M53 37h1M13 38h1M18 38h3M24 38h1M30 38h1M33 38h1M39 38h1M44 38h1M46 38h1M48 38h2M12 39h1M16 39h2M19 39h1M24 39h1M31 39h2M39 39h1M45 39h1M49 39h1M12 40h1M14 40h2M17 40h2M23 40h1M25 40h1M40 40h1M45 40h1M47 40h2M58 40h1M9 41h1M13 41h2M23 41h2M40 41h1M57 41h1M14 42h2M23 42h1M34 42h3M41 42h1M57 42h1M10 43h1M14 43h1M28 43h1M33 43h1M37 43h2M41 43h1M50 43h4M58 43h1M7 44h1M11 44h3M29 44h2M32 44h1M39 44h3M47 44h2M54 44h1M58 44h1M7 45h2M11 45h1M22 45h1M31 45h2M57 45h1M6 46h1M9 46h2M22 46h1M32 46h1M4 47h2M19 47h1M22 47h1M32 47h1M42 47h1M19 48h1M22 48h1M32 48h1M42 48h1M47 48h1M20 49h1M22 49h1M42 49h1M20 50h1M22 50h1M33 50h1M42 50h1M20 51h1M34 51h1M42 51h1M53 51h1M21 52h1M30 52h4M35 52h2M42 52h1M53 52h1M74 52h1M31 53h1M35 53h1M37 53h3M46 53h1M74 53h1M46 54h1M54 54h1M26 55h1M32 55h1M36 55h1M46 55h1M54 55h1M27 56h1M32 56h1M36 56h1M47 56h1M53 56h1M60 56h1M73 56h1M27 57h1M31 57h1M37 57h1M47 57h1M59 57h1M61 57h1M72 57h1M31 58h3M38 58h1M48 58h1M52 58h1M58 58h1M62 58h1M70 58h2M39 59h1M52 59h1M57 59h1M63 59h1M69 59h1M48 60h1M52 60h1M65 60h3M33 61h4M47 61h1M52 61h1M31 62h2M46 62h1M53 62h2M18 63h1M20 63h4M29 63h2M46 63h1M55 63h1M18 64h2M28 64h1M56 64h1M26 65h2M45 65h1M22 66h1M24 66h2M45 66h1M50 66h3M22 67h2M46 67h1M49 67h1M53 67h2" />
<path stroke="#e63929" d="M30 23h1M28 24h5M29 25h3M29 26h1M31 26h1M33 45h1M35 45h1M37 45h1M33 46h1M35 46h1M37 46h2M33 47h2M36 47h1M38 47h1M34 48h1M36 48h1M38 48h1" />
<path stroke="#5a3908" d="M45 24h4M49 25h2M20 26h2M51 26h2M19 27h1M53 27h1M18 28h1M54 28h1M18 29h1M54 29h1M17 30h1M41 32h1M42 33h1M27 36h1M26 37h1M26 38h1M26 39h1M26 40h1M27 41h1M32 41h7M27 42h1M30 42h4M37 42h4M30 43h3M39 43h2M31 44h1" />
<path stroke="#dedede" d="M37 27h1M37 28h1M28 29h1M37 29h1M22 32h1M19 33h1M22 33h1M18 34h1M20 34h2M49 35h1M17 36h1M16 37h1M48 37h1M16 43h1M46 43h1M16 44h1M45 44h1M56 44h1M4 45h1M55 46h1M21 61h1M20 62h2M19 63h1M25 65h1M55 66h2M56 67h1M48 69h1" />
<path stroke="#ffffff" d="M26 28h1M36 28h1M26 29h1M34 29h1M36 29h1M20 32h2M20 33h2M48 35h1M48 36h1M46 42h1M45 43h1M55 44h1M55 45h1M20 61h1M19 62h1M25 64h1M23 65h2M23 66h1M47 67h2M48 68h1" />
<path stroke="#5a5a5a" d="M27 29h1M35 29h1M20 31h3M19 32h1M23 32h1M18 33h1M17 34h1M17 35h1M16 36h1M15 37h1M14 38h1M13 39h1M13 40h1M46 41h1M45 42h1M15 43h1M44 43h1M4 44h2M15 44h1M44 44h1M46 44h1M3 45h1M15 45h2M45 45h1M54 45h1M3 46h1M54 46h1M56 46h1M55 47h1M34 58h1M35 59h1M20 60h1M36 60h1M19 61h1M18 62h1M23 64h1M22 65h1M57 66h1M57 67h1M46 68h1M49 68h1M55 68h1M57 68h1M47 69h1M49 69h1M56 69h1M48 70h1" />
<path stroke="#7b5208" d="M46 30h2M53 30h2M17 31h1M23 31h1M42 31h14M17 32h2M24 32h1M40 32h1M42 32h14M17 33h1M25 33h1M39 33h3M43 33h6M51 33h3M40 34h2M43 34h5M42 35h1M44 35h3M35 36h1M43 36h1M35 37h3M44 37h1M46 37h1M36 38h3M45 38h1M37 39h2M37 40h3M31 41h1M39 41h1M29 43h1" />
<path stroke="#b4b4b4" d="M23 33h1M19 34h1M22 34h2M18 35h6M18 36h5M49 36h1M17 37h4M15 38h3M14 39h2M6 44h1M5 45h2M56 45h1M4 46h2M34 59h1M34 60h2M55 67h1M47 68h1M56 68h1" />
<path stroke="#ffffbd" d="M19 42h1M18 43h2M21 43h1M18 44h1M21 44h1M42 44h2M18 45h1M20 45h2M43 45h2M46 45h1M18 46h1M20 46h2M43 46h2M46 46h1M18 47h1M20 47h2M43 47h2M46 47h1M21 48h1M43 48h2M21 49h1M43 49h1M21 50h1M43 50h1M43 51h1" />
</svg>