<svg xmlns="http://www.w3.org/2000/svg" viewBox="0 -0.5 32 32" shape-rendering="crispEdges">
<metadata>Made with Pixels to Svg https://codepen.io/shshaw/pen/XbxvNj</metadata>
<path stroke="#292429" d="M13 7h3M17 7h4M9 11h1M24 11h1M9 12h1M24 12h1M9 13h1M24 13h1M24 14h1M9 15h1M23 18h1M23 19h1M11 20h1M22 20h1M11 21h1M12 22h2M20 22h1M18 23h2" />
<path stroke="#292829" d="M12 8h1M12 9h1M10 10h2M16 23h2" />
<path stroke="#759249" d="M13 8h1M10 11h1M16 22h1" />
<path stroke="#9cc65f" d="M14 8h1M14 9h2M10 12h2M11 13h1M17 20h1M16 21h2" />
<path stroke="#739544" d="M15 8h1M10 13h1M16 20h1" />
<path stroke="#292c21" d="M16 8h1M10 14h1" />
<path stroke="#496d26" d="M17 8h1M10 15h1" />
<path stroke="#5a8a36" d="M18 8h2M18 9h2M18 10h2M18 11h2M18 12h6M18 13h6M10 16h6M10 17h6M12 18h2M12 19h2" />
<path stroke="#446c2b" d="M20 8h1M23 11h1M9 16h1" />
<path stroke="#292821" d="M21 8h1M21 9h1M22 10h2M8 16h1M8 17h1" />
<path stroke="#9cc75a" d="M13 9h1M11 11h1M22 17h1M17 22h1" />
<path stroke="#394c23" d="M16 9h1M11 14h1" />
<path stroke="#5a8e29" d="M17 9h1M11 15h1" />
<path stroke="#528e31" d="M20 9h1M22 11h1M9 17h1" />
<path stroke="#9cc660" d="M12 10h4M12 11h4M12 12h4M12 13h4M18 16h4M18 17h4M18 18h4M18 19h4M18 20h2M18 21h2" />
<path stroke="#4f7f39" d="M16 10h2M12 14h1M12 15h1" />
<path stroke="#5a8b34" d="M20 10h1M20 11h2M12 20h2M13 21h1" />
<path stroke="#41701e" d="M21 10h1M12 21h1" />
<path stroke="#738a39" d="M16 11h1M13 14h1" />
<path stroke="#086939" d="M17 11h1M13 15h1" />
<path stroke="#7b9242" d="M16 12h1M14 14h1" />
<path stroke="#084d29" d="M17 12h1M17 13h1M14 15h2M10 19h1M15 20h1M15 21h1" />
<path stroke="#416f35" d="M16 13h1M15 14h1" />
<path stroke="#4e6729" d="M16 14h1" />
<path stroke="#084d31" d="M17 14h1M16 15h4M16 16h1M16 17h1" />
<path stroke="#5a8a35" d="M18 14h2" />
<path stroke="#5a8935" d="M20 14h2M14 18h2M14 19h1" />
<path stroke="#5a8a29" d="M22 14h1" />
<path stroke="#446e29" d="M23 14h1" />
<path stroke="#086d42" d="M20 15h2M15 19h1" />
<path stroke="#183829" d="M22 15h2M23 16h1M23 17h1M14 22h2" />
<path stroke="#709b4c" d="M17 16h1" />
<path stroke="#709749" d="M22 16h1" />
<path stroke="#a5c35a" d="M17 17h1" />
<path stroke="#313c21" d="M8 18h2M9 19h1" />
<path stroke="#5a8a31" d="M10 18h2" />
<path stroke="#086942" d="M16 18h1" />
<path stroke="#9cc35a" d="M17 18h1M17 19h1" />
<path stroke="#9cc763" d="M22 18h1M22 19h1M18 22h2" />
<path stroke="#3e752e" d="M11 19h1" />
<path stroke="#6aa552" d="M16 19h1" />
<path stroke="#5a8629" d="M14 20h1" />
<path stroke="#949788" d="M20 20h1" />
<path stroke="#293021" d="M21 20h1M20 21h1" />
<path stroke="#3e7329" d="M14 21h1" />
</svg>