<svg xmlns="http://www.w3.org/2000/svg" viewBox="0 -0.5 32 32" shape-rendering="crispEdges">
<metadata>Made with Pixels to Svg https://codepen.io/shshaw/pen/XbxvNj</metadata>
<path stroke="#202020" d="M15 7h2M13 8h2M17 8h2M11 9h2M14 9h1M17 9h1M19 9h2M10 10h1M21 10h1M9 11h1M11 11h2M19 11h2M22 11h1M8 12h1M10 12h3M15 12h2M19 12h3M23 12h1M8 13h1M11 13h1M14 13h4M20 13h1M23 13h1M7 14h1M14 14h4M24 14h1M7 15h1M24 15h1M6 16h1M25 16h1M6 17h1M25 17h1M6 18h1M25 18h1M6 19h1M25 19h1M6 20h1M25 20h1M7 21h1M24 21h1M8 22h1M23 22h1M9 23h3M20 23h3M9 24h1M12 24h8M22 24h1M10 25h2M20 25h2" />
<path stroke="#c5def6" d="M15 8h2M15 9h2M12 10h2M18 10h2M13 11h6M14 12h1M17 12h1M9 15h1M22 15h1M10 16h2M20 16h2M8 17h1M12 17h8M23 17h1M9 18h1M22 18h1M10 19h1M14 19h4M21 19h1M13 20h1M18 20h1" />
<path stroke="#83c5ff" d="M13 9h1M18 9h1M9 12h1M10 13h1M11 14h2M8 15h1M23 15h1M11 18h1M13 18h1M18 18h1M20 18h1" />
<path stroke="#acc5de" d="M11 10h1M14 10h1M17 10h1M20 10h1M10 11h1M21 11h1M13 12h1M18 12h1M12 13h2M18 13h2M8 14h1M13 14h1M18 14h1M23 14h1M9 16h1M22 16h1M7 17h1M10 17h2M20 17h2M24 17h1M12 18h1M19 18h1M7 20h1M10 20h1M21 20h1M24 20h1M8 21h2M13 21h1M18 21h1M22 21h2M14 22h4" />
<path stroke="#736231" d="M15 10h2" />
<path stroke="#62a4f6" d="M22 12h1M9 13h1M21 13h1M10 14h1M19 14h3M12 15h8M7 16h2M23 16h2M9 17h1M22 17h1M8 18h1M10 18h1M14 18h4M21 18h1M23 18h1M8 19h2M11 19h1M13 19h1M18 19h1M20 19h1M22 19h2M11 20h2M14 20h4M19 20h2" />
<path stroke="#4a73c5" d="M22 13h1M10 15h2M20 15h2M12 16h3M17 16h3M7 18h1M24 18h1M7 19h1M12 19h1M19 19h1M24 19h1M8 20h2M22 20h2M10 21h3M14 21h4M19 21h3M11 22h3M18 22h3" />
<path stroke="#315a9c" d="M9 14h1M22 14h1M15 16h2M9 22h2M21 22h2M12 23h8M10 24h2M20 24h2" />
</svg>