<svg xmlns="http://www.w3.org/2000/svg" viewBox="0 -0.5 80 80" shape-rendering="crispEdges">
<metadata>Made with Pixels to Svg https://codepen.io/shshaw/pen/XbxvNj</metadata>
<path stroke="#bd6a10" d="M52 4h2M46 5h3M52 5h1M54 5h1M46 6h1M49 6h2M52 6h1M55 6h1M46 7h1M51 7h2M56 7h1M46 8h1M57 8h1M47 9h1M58 9h1M43 10h5M58 10h1M43 11h1M43 12h1M44 13h1M60 13h1M45 14h1M45 15h1M46 16h1M47 18h1M48 19h1M18 20h2M17 21h1M19 21h1M49 21h1M17 22h1M19 22h1M13 23h1M16 23h1M19 23h1M14 24h1M16 24h1M19 24h1M33 24h4M65 24h1M15 25h1M20 25h1M22 25h2M33 25h1M64 25h1M20 26h2M23 26h1M54 26h1M20 27h1M23 27h1M23 28h1M23 29h1M23 30h1M23 31h1M23 32h1M23 33h1M53 57h3M51 58h6M59 58h1M31 59h1M50 59h8M30 60h2M49 60h8M58 60h1M60 60h1M29 61h3M49 61h9M59 61h1M61 61h2M29 62h2M48 62h11M60 62h1M28 63h3M48 63h12M27 64h3M47 64h10M60 64h2M27 65h3M47 65h8M58 65h5M26 66h4M46 66h8M55 66h8M26 67h4M46 67h8M55 67h9M26 68h4M45 68h8M54 68h10M25 69h5M45 69h8M54 69h12M25 70h5M45 70h8M54 70h12M25 71h5M44 71h8M53 71h13M24 72h6M44 72h8M53 72h13M24 73h6M44 73h8M53 73h13M24 74h6M43 74h8M52 74h14M24 75h7M43 75h8M52 75h14" />
<path stroke="#f6ff94" d="M53 5h1M47 6h2M53 6h2M47 7h3M53 7h3M47 8h5M53 8h3M48 9h5M54 9h1M56 9h1M48 10h8M57 10h1M44 11h2M49 11h6M56 11h1M44 12h9M54 12h1M45 13h7M53 13h1M46 14h3M50 14h1M52 14h1M46 15h2M49 15h1M47 16h2M50 16h1M49 17h1M18 21h1M18 22h1M12 23h1M17 23h2M12 24h2M17 24h2M12 25h3M16 25h4M12 26h3M16 26h4M22 26h1M12 27h8M21 27h2M12 28h7M20 28h2M12 29h9M22 29h1M13 30h5M19 30h1M21 30h1M13 31h2M16 31h1M18 31h1M13 32h1M15 32h1M14 33h1" />
<path stroke="#e6e673" d="M50 7h1M56 8h1M55 9h1M56 10h1M55 11h1M57 11h2M53 12h1M55 12h4M52 13h1M54 13h6M49 14h1M51 14h1M53 14h8M48 15h1M50 15h11M49 16h1M51 16h11M48 17h1M50 17h13M48 18h15M49 19h15M50 20h14M50 21h15M51 22h14M51 23h14M52 24h13M34 25h1M53 25h11M55 26h8M56 27h7M22 28h1M57 28h5M21 29h1M58 29h3M18 30h1M20 30h1M22 30h1M59 30h1M15 31h1M17 31h1M19 31h4M14 32h1M16 32h7M13 33h1M15 33h8M13 34h10M14 35h9M14 36h8M14 37h8M14 38h7M15 39h6M15 40h6M15 41h5M16 42h4M18 43h2" />
<path stroke="#737b00" d="M52 8h1M53 9h1M46 11h3M15 26h1M19 28h1M14 39h1" />
<path stroke="#a4ac31" d="M57 9h1M59 12h1M61 15h1M47 17h1M49 20h1M48 26h1M50 26h2M63 26h1M47 27h1M49 27h1M51 27h3M45 28h2M48 28h1M50 28h6M40 29h17M37 30h21M35 31h24M33 32h27M32 33h28M30 34h31M29 35h33M28 36h34M26 37h36M22 38h1M25 38h38M22 39h41M22 40h41M21 41h42M21 42h42M21 43h42M21 44h42M21 45h42M21 46h41M22 47h40M22 48h39M22 49h38M23 50h37M24 51h35M24 52h34M25 53h32M26 54h29M28 55h27M29 56h24M30 57h21M32 58h18M35 59h14M33 60h15M33 61h15M32 62h15M32 63h15M32 64h14M31 65h15M31 66h14M31 67h14M31 68h13M31 69h13M31 70h13M31 71h12M31 72h12M31 73h12M32 74h10M32 75h10" />
<path stroke="#5a1800" d="M59 11h1M60 12h1M61 14h1M62 15h1M62 16h1M63 17h1M63 18h1M64 19h1M64 20h1M65 21h1M50 22h1M65 22h1M50 23h1M65 23h1M51 24h1M52 25h1M64 26h1M63 27h1M62 28h1M61 29h1M60 30h1M60 31h1M53 56h1M56 56h2M52 57h1M58 57h2M50 58h1M60 58h1M33 59h2M49 59h1M61 59h1M62 60h1M32 61h1M48 61h1M63 61h1M63 62h1M47 63h1M60 63h1M64 63h1M31 64h1M58 64h2M64 64h1M26 65h1M30 65h1M46 65h1M55 65h2M65 65h1M45 66h1M54 66h1M65 66h1M45 67h1M54 67h1M65 67h1M25 68h1M44 68h1M65 68h1M53 69h1M66 69h1M53 70h1M66 70h1M24 71h1M43 71h1M66 71h1M52 72h1M66 72h1M30 73h1M52 73h1M66 73h1M51 74h1M66 74h1M51 75h1M66 75h1" />
<path stroke="#8b5210" d="M11 22h2M11 23h1M11 24h1M11 25h1M37 25h1M11 26h1M32 26h3M52 26h1M11 27h1M30 27h2M54 27h2M11 28h1M29 28h1M56 28h1M11 29h1M28 29h1M57 29h1M12 30h1M27 30h1M58 30h1M12 31h1M12 32h1M12 33h1M60 33h1M12 34h1M13 35h1M13 36h1M22 36h1M13 37h1M22 37h1M62 37h1M13 38h1M21 38h1M63 38h1M21 39h1M63 39h1M14 40h1M21 40h1M14 41h1M20 41h1M15 42h1M20 42h1M16 43h2M18 44h2M63 45h1M20 46h1M21 47h1M60 49h1M23 51h1M55 54h1M27 55h1M51 57h1M48 60h1M28 62h1M47 62h1M62 62h1M61 63h1M30 64h1M46 64h1M57 64h1M57 65h1M53 68h1M52 71h1M30 74h2" />
<path stroke="#101010" d="M38 24h11M35 25h2M49 25h3M53 26h1M26 31h1M59 31h1M25 32h1M60 32h1M24 33h1M61 33h1M23 34h1M61 34h1M23 35h1M62 35h1M62 36h1M63 40h1M63 41h1M63 42h1M20 43h1M63 43h1M20 44h1M63 44h1M20 45h1M62 46h1M62 47h1M21 48h1M61 48h1M21 49h1M61 49h1M22 50h1M60 50h1M22 51h1M59 51h1M23 52h1M58 52h1M24 53h1M57 53h1M25 54h1M56 54h1M26 55h1M55 55h1M27 56h2M54 56h2M29 57h1M30 58h2M30 59h1M32 59h1M29 60h1M32 60h1M28 61h1M27 62h1M31 62h1M27 63h1M31 63h1M26 64h1M25 66h1M30 66h1M25 67h1M30 67h1M24 68h1M30 68h1M24 69h1M30 69h1M44 69h1M24 70h1M30 70h1M44 70h1M23 71h1M30 71h1M23 72h1M30 72h1M43 72h1M23 73h1M43 73h1M23 74h1M42 74h1M23 75h1M31 75h1M42 75h1" />
<path stroke="#cdd54a" d="M38 25h10M35 26h13M49 26h1M32 27h15M48 27h1M50 27h1M31 28h14M47 28h1M49 28h1M29 29h11M28 30h9M27 31h8M26 32h7M25 33h7M25 34h5M24 35h5M23 36h5M23 37h3M23 38h2" />
<path stroke="#d59c31" d="M48 25h1M30 28h1M24 34h1M56 57h2M57 58h2M58 59h3M57 60h1M59 60h1M61 60h1M58 61h1M60 61h1M59 62h1M61 62h1M62 63h2M62 64h2M63 65h2M63 66h2M64 67h1M64 68h1" />
</svg>