<svg xmlns="http://www.w3.org/2000/svg" viewBox="0 -0.5 80 80" shape-rendering="crispEdges">
<metadata>Made with Pixels to Svg https://codepen.io/shshaw/pen/XbxvNj</metadata>
<path stroke="#6a5218" d="M63 12h2M62 13h1M64 13h1M5 14h2M61 14h1M64 14h1M5 15h1M7 15h1M60 15h1M64 15h1M5 16h1M8 16h1M59 16h1M64 16h1M5 17h1M9 17h1M58 17h1M64 17h1M5 18h1M10 18h1M57 18h1M64 18h1M5 19h1M11 19h1M56 19h1M64 19h1M5 20h1M12 20h1M55 20h1M64 20h1M5 21h1M55 21h1M64 21h1M6 22h1M13 22h1M54 22h1M64 22h1M6 23h1M14 23h1M53 23h1M63 23h1M6 24h1M53 24h1M63 24h1M6 25h1M15 25h1M6 26h1M7 27h1M62 27h1M7 28h1M7 29h1M48 41h1M22 44h1M47 44h1M53 44h1M51 47h1M20 49h1M43 49h1M44 51h1M62 51h1M46 52h1M62 52h1M62 53h1M61 54h1M61 55h1M60 56h1M56 59h1M64 63h2M3 64h1M60 64h4M2 65h1M2 66h1M65 66h2M1 67h1M15 67h1M23 67h1M62 67h3M1 68h1M13 68h1M59 68h3" />
<path stroke="#ffde41" d="M63 13h1M62 14h2M6 15h1M61 15h2M6 16h2M60 16h3M6 17h3M59 17h3M6 18h4M58 18h4M6 19h1M8 19h3M57 19h4M6 20h2M9 20h3M56 20h5M6 21h1M8 21h1M11 21h1M56 21h2M59 21h1M7 22h1M12 22h1M55 22h2M58 22h1M60 22h1M7 23h1M54 23h4M59 23h1M7 24h1M54 24h3M53 25h4M53 26h3M53 27h1M63 52h1M63 53h1M62 54h2M62 55h1M61 56h2M60 57h2M60 58h1M62 58h1M58 59h2M61 59h1M60 60h1M64 64h2M60 65h4M16 67h7M14 68h11" />
<path stroke="#bdac41" d="M63 15h1M63 16h1M62 17h2M62 18h2M7 19h1M61 19h3M8 20h1M61 20h3M7 21h1M9 21h2M12 21h1M58 21h1M60 21h4M8 22h4M57 22h1M59 22h1M61 22h3M8 23h6M58 23h1M60 23h3M8 24h7M57 24h6M7 25h8M57 25h6M7 26h9M56 26h7M8 27h8M54 27h8M8 28h7M55 28h7M8 29h5M57 29h5M19 38h1M18 39h2M14 40h7M49 40h1M15 41h6M49 41h2M16 42h5M48 42h7M16 43h6M48 43h6M17 44h5M48 44h5M18 45h5M47 45h6M19 46h5M47 46h5M19 47h6M46 47h5M20 48h7M45 48h6M21 49h3M44 49h6M21 50h1M41 50h8M45 51h4M47 52h1M63 55h2M63 56h2M62 57h2M59 58h1M61 58h1M60 59h1M57 60h3M72 60h2M57 61h4M70 61h4M58 62h2M69 62h5M4 63h2M58 63h2M69 63h6M4 64h3M58 64h1M68 64h7M3 65h4M64 65h3M68 65h7M3 66h3M59 66h6M68 66h7M2 67h4M59 67h3M68 67h5M2 68h4M68 68h4" />
<path stroke="#000000" d="M13 21h1M15 24h1M63 25h1M16 26h1M63 26h1M16 27h1M17 28h1M62 28h1M17 29h1M62 29h1M8 30h1M18 30h1M50 30h1M61 30h1M8 31h1M18 31h1M50 31h1M61 31h1M8 32h1M18 32h1M50 32h1M61 32h1M9 33h1M19 33h1M49 33h1M60 33h1M9 34h1M19 34h1M49 34h1M60 34h1M10 35h1M19 35h1M49 35h1M59 35h1M10 36h1M20 36h1M49 36h1M59 36h1M11 37h1M20 37h1M48 37h1M58 37h1M12 38h1M20 38h1M48 38h1M58 38h1M12 39h1M20 39h1M48 39h1M57 39h1M13 40h1M21 40h1M48 40h1M56 40h1M14 41h1M21 41h1M56 41h1M15 42h1M21 42h1M47 42h1M55 42h1M15 43h1M22 43h1M47 43h1M54 43h1M16 44h1M54 44h1M17 45h1M23 45h1M46 45h1M53 45h1M18 46h1M24 46h1M46 46h1M52 46h1M64 46h2M18 47h1M25 47h2M45 47h1M66 47h1M19 48h1M27 48h12M44 48h1M51 48h1M67 48h1M13 49h1M24 49h19M50 49h1M68 49h1M13 50h1M20 50h1M22 50h19M49 50h1M68 50h1M14 51h1M20 51h2M34 51h10M49 51h1M55 51h1M69 51h1M14 52h1M37 52h9M48 52h1M56 52h1M70 52h1M14 53h1M40 53h10M57 53h1M70 53h1M42 54h10M71 54h1M6 55h1M43 55h10M58 55h1M71 55h1M6 56h1M45 56h9M72 56h1M5 57h1M46 57h9M59 57h1M64 57h1M72 57h1M5 58h1M10 58h1M14 58h2M47 58h9M58 58h1M63 58h1M73 58h1M5 59h1M9 59h1M11 59h6M33 59h6M48 59h8M57 59h1M62 59h1M73 59h1M4 60h1M9 60h8M32 60h9M49 60h8M61 60h1M74 60h1M4 61h1M8 61h8M32 61h11M50 61h7M61 61h1M66 61h1M74 61h1M4 62h1M8 62h8M32 62h12M51 62h7M60 62h1M66 62h1M74 62h1M3 63h1M8 63h7M33 63h11M51 63h7M60 63h1M66 63h1M75 63h1M7 64h7M33 64h12M52 64h6M59 64h1M66 64h1M75 64h1M7 65h1M9 65h3M34 65h11M52 65h8M75 65h1M6 66h1M16 66h7M35 66h10M52 66h7M67 66h1M75 66h1M6 67h1M14 67h1M24 67h1M37 67h7M52 67h7M67 67h1M76 67h1M6 68h1M12 68h1M25 68h1M39 68h4M52 68h7M67 68h1M76 68h1" />
<path stroke="#296acd" d="M52 25h1M52 26h1M51 27h1M15 28h2M51 28h1M14 29h3M51 29h1M54 29h2M9 30h9M53 30h8M9 31h9M53 31h8M9 32h9M52 32h9M10 33h9M50 33h10M10 34h9M50 34h10M11 35h8M50 35h9M11 36h9M50 36h9M12 37h8M49 37h9M13 38h6M49 38h9M13 39h4M49 39h8M50 40h6M52 41h4M63 47h1M65 47h1M11 48h2M63 48h1M10 49h1M63 49h1M9 50h1M63 50h1M8 51h1M12 51h2M63 51h1M8 52h1M11 52h1M13 52h1M64 52h1M69 52h1M7 53h2M10 53h1M12 53h2M64 53h1M69 53h1M7 54h1M9 54h5M64 54h1M69 54h2M8 55h1M10 55h3M65 55h1M69 55h2M7 56h1M9 56h3M65 56h1M68 56h4M6 57h5M65 57h1M68 57h4M6 58h4M65 58h1M68 58h5M6 59h3M65 59h1M67 59h1M69 59h4M5 60h4M66 60h1M68 60h3M5 61h3M67 61h1M69 61h1M75 61h2M5 62h3M68 62h1M77 62h1M7 63h1M67 63h2M77 63h1M67 64h1M78 64h1M67 65h1M78 65h1M78 66h1M74 67h2M79 67h1M73 68h3M79 68h1" />
<path stroke="#5a9cff" d="M52 27h1M52 28h3M13 29h1M52 29h2M56 29h1M51 30h2M51 31h2M51 32h1M17 39h1M51 41h1M64 47h1M64 48h3M11 49h2M64 49h4M10 50h3M64 50h4M9 51h3M64 51h5M9 52h2M12 52h1M65 52h4M9 53h1M11 53h1M65 53h4M8 54h1M65 54h4M7 55h1M9 55h1M66 55h3M8 56h1M66 56h2M66 57h2M66 58h2M66 59h1M68 59h1M67 60h1M71 60h1M68 61h1M67 62h1M75 62h2M6 63h1M76 63h1M76 64h2M76 65h2M76 66h2M73 67h1M77 67h2M72 68h1M77 68h2" />
<path stroke="#5a0052" d="M41 47h4M51 49h2M53 50h2M19 51h1M33 51h1M17 52h2M36 52h1M15 53h2M39 53h1M50 53h1M14 54h1M57 54h1M13 55h1M12 56h1M58 56h1M11 57h1M58 57h1M13 58h1M10 59h1M39 59h1M41 60h1M50 62h1M44 63h1M51 64h1M8 65h1M36 67h1M44 67h1M38 68h1M43 68h1" />
<path stroke="#83207b" d="M39 48h2M22 51h1M49 52h1M15 54h1M41 54h1M44 56h1M11 58h2M16 61h1M49 61h1M32 63h1M12 65h1M51 65h1" />
<path stroke="#de73d5" d="M41 48h3M50 50h3M23 51h10M50 51h5M19 52h17M50 52h4M55 52h1M17 53h15M51 53h2M54 53h1M16 54h13M14 55h14M13 56h14M12 57h14M27 57h1M16 58h7M24 58h1M26 58h1M17 59h4M23 59h1M25 59h1M17 60h2M22 60h1M19 61h1M18 62h1M20 62h1M19 63h1" />
<path stroke="#6a6a6a" d="M52 48h5M56 49h1M56 50h1" />
<path stroke="#ffffff" d="M53 49h3M55 50h1" />
<path stroke="#ac4aa4" d="M54 52h1M32 53h7M53 53h1M55 53h2M29 54h12M52 54h5M28 55h15M53 55h5M27 56h17M54 56h4M26 57h1M28 57h18M55 57h3M23 58h1M25 58h1M27 58h20M56 58h2M21 59h2M24 59h1M26 59h7M40 59h8M19 60h3M23 60h9M42 60h7M17 61h2M20 61h12M43 61h6M16 62h2M19 62h1M21 62h11M44 62h6M15 63h4M20 63h12M45 63h6M14 64h19M45 64h6M13 65h21M45 65h6M7 66h9M23 66h12M45 66h7M7 67h7M25 67h11M45 67h7M7 68h5M26 68h12M44 68h8" />
</svg>