<svg xmlns="http://www.w3.org/2000/svg" viewBox="0 -0.5 80 80" shape-rendering="crispEdges">
<metadata>Made with Pixels to Svg https://codepen.io/shshaw/pen/XbxvNj</metadata>
<path stroke="#6a0031" d="M20 18h6M62 18h5M18 20h7M62 20h7M17 21h7M62 21h7M17 22h6M62 22h7M16 23h7M62 23h7M16 24h6M62 24h7M16 25h6M62 25h7M16 26h6M61 26h8M61 27h7M15 28h1M67 28h1M13 29h6M61 29h6M12 30h6M61 30h7M12 31h6M61 31h7M11 32h6M61 32h7M11 33h6M61 33h7M11 34h6M60 34h8M11 35h6M60 35h8M11 36h6M60 36h8M11 37h6M60 37h7M11 38h6M60 38h7M11 39h6M59 39h8M11 40h7M59 40h7M12 41h7M59 41h7M12 42h4M58 42h7M58 43h5M26 55h1M25 57h2" />
<path stroke="#626283" d="M60 18h2M26 19h3M56 19h4M29 20h2M53 20h3M31 21h2M37 21h10M51 21h2M33 22h4M47 22h4M32 23h2M49 23h1M30 24h2M29 25h1M23 28h1M55 29h1M58 29h1M28 30h1M52 30h1M50 31h2M25 38h2M23 39h1M48 39h1M21 40h1M49 40h2M51 41h1M28 44h1M30 45h1M45 45h1M41 46h1M40 47h1M56 50h1M54 51h1M23 62h3" />
<path stroke="#101010" d="M18 19h2M67 19h2M17 20h1M69 20h1M16 21h1M69 21h1M16 22h1M69 22h1M15 23h1M69 23h1M15 24h1M69 24h1M15 25h1M69 25h1M15 26h1M69 26h1M15 27h8M68 27h1M13 28h2M24 28h2M59 28h8M68 28h1M12 29h1M26 29h2M56 29h2M67 29h1M11 30h1M53 30h2M68 30h1M11 31h1M68 31h1M10 32h1M68 32h1M10 33h1M68 33h1M10 34h1M68 34h1M10 35h1M68 35h1M10 36h1M68 36h1M10 37h1M67 37h2M10 38h1M67 38h1M10 39h1M24 39h1M67 39h1M10 40h1M22 40h3M66 40h2M11 41h1M19 41h3M24 41h1M52 41h1M66 41h1M11 42h1M16 42h4M24 42h2M52 42h3M65 42h2M12 43h5M25 43h2M54 43h4M63 43h3M26 44h2M49 44h5M56 44h8M24 45h2M28 45h2M46 45h3M54 45h3M21 46h3M30 46h3M42 46h4M53 46h6M20 47h1M23 47h1M33 47h7M49 47h4M59 47h1M20 48h1M48 48h1M59 48h1M20 49h1M24 49h1M47 49h1M58 49h2M21 50h1M24 50h1M47 50h1M57 50h2M22 51h2M25 51h1M34 51h3M45 51h2M55 51h2M24 52h3M31 52h2M37 52h2M43 52h3M51 52h4M25 53h6M39 53h5M50 53h2M27 54h1M50 54h1M27 55h1M50 55h1M26 56h1M50 56h1M50 57h1M25 58h1M49 58h1M24 59h1M49 59h1M23 60h1M49 60h1M22 61h1M24 61h3M50 61h1M22 62h1M26 62h3M37 62h4M47 62h1M50 62h1" />
<path stroke="#cd5a8b" d="M20 19h6M62 19h5M16 28h3" />
<path stroke="#9494b4" d="M60 19h2M28 20h1M60 20h2M24 21h3M58 21h4M23 22h7M55 22h7M23 23h9M46 23h3M50 23h1M52 23h10M22 24h8M39 24h23M22 25h7M30 25h1M35 25h27M22 26h8M31 26h1M33 26h28M23 27h6M30 27h1M32 27h1M34 27h27M22 28h1M26 28h33M19 29h7M28 29h27M59 29h2M18 30h10M29 30h23M55 30h6M18 31h32M52 31h9M17 32h44M17 33h44M17 34h43M17 35h43M17 36h43M17 37h43M17 38h8M27 38h33M17 39h6M25 39h23M49 39h10M18 40h3M25 40h24M51 40h8M25 41h26M53 41h6M26 42h26M55 42h3M27 43h27M29 44h20M54 44h2M31 45h14M33 46h8M21 47h2M53 47h6M21 48h3M49 48h10M21 49h3M48 49h10M22 50h2M48 50h8M24 51h1M47 51h7M33 52h4M46 52h5M31 53h8M44 53h6M28 54h22M28 55h21M28 56h11M41 56h7M28 57h10M42 57h5M28 58h10M42 58h5M27 59h11M42 59h5M24 60h15M41 60h7M23 61h1M27 61h23M29 62h8M41 62h6M48 62h2" />
<path stroke="#c5c5e6" d="M25 20h3M56 20h4M27 21h4M53 21h5M30 22h3M37 22h10M51 22h4M34 23h12M51 23h1M32 24h7M31 25h4M30 26h1M32 26h1M29 27h1M31 27h1M33 27h1M19 28h3" />
<path stroke="#eebde6" d="M26 45h1M24 46h3M24 47h4M25 48h5M25 49h4M30 49h1M25 50h5M31 50h1M33 50h1M42 50h1M26 51h7M41 51h1M43 51h1M27 52h4M42 52h1" />
<path stroke="#ee9ccd" d="M27 45h1M49 45h5M27 46h3M46 46h7M28 47h5M41 47h8M30 48h18M29 49h1M31 49h16M30 50h1M32 50h1M34 50h8M43 50h3M37 51h4M42 51h1M44 51h1M39 52h3" />
<path stroke="#de6aac" d="M24 48h1M46 50h1M33 51h1M49 55h1M27 56h1M39 56h2M48 56h2M27 57h1M38 57h4M47 57h3M26 58h2M38 58h4M47 58h2M25 59h2M38 59h4M47 59h2M39 60h2M48 60h1" />
</svg>