<svg xmlns="http://www.w3.org/2000/svg" viewBox="0 -0.5 80 80" shape-rendering="crispEdges">
<metadata>Made with Pixels to Svg https://codepen.io/shshaw/pen/XbxvNj</metadata>
<path stroke="#d59c39" d="M21 3h2M21 4h1M23 4h2M21 5h1M25 5h1M21 6h1M26 6h1M21 7h1M27 7h1M21 8h1M28 8h1M21 9h1M29 9h1M22 10h1M30 10h1M22 11h1M22 12h1M30 12h2M22 13h1M29 13h4M27 14h7M24 15h10M24 16h11M25 17h11M25 18h11M26 19h11M26 20h12M27 21h11M27 22h12M28 23h11M29 24h11M31 25h10M33 26h8M35 27h7M38 28h2M65 41h1M18 43h2M65 43h1M18 44h1M21 44h1M18 45h1M22 45h1M18 46h1M23 46h1M18 47h1M18 48h1M18 49h1M19 50h1M26 50h1M19 51h1M25 51h2M19 52h1M23 52h5M20 53h8M21 54h8M21 55h8M22 56h8M8 57h6M22 57h8M8 58h1M14 58h3M23 58h7M8 59h1M17 59h1M24 59h7M9 60h1M18 60h1M25 60h6M18 61h3M26 61h5M17 62h5M27 62h4M17 63h6M28 63h4M16 64h8M29 64h3M14 65h11M30 65h2M16 66h10M31 66h1M18 67h9M21 68h6M6 69h3M25 69h3M3 70h3M10 70h4M2 71h1M11 71h7M3 72h1M11 72h9M10 73h12M10 74h13M10 75h10" />
<path stroke="#fff69c" d="M22 4h1M22 5h2M22 6h4M22 7h5M22 8h6M23 9h6M23 10h7M23 11h7M23 12h6M24 13h4M24 14h2M19 44h1M19 45h3M19 46h4M19 47h5M19 48h6M19 49h7M20 50h5M20 51h4M9 58h5M9 59h8M10 60h7M10 61h7M11 62h6M12 63h4M13 64h1M6 70h3M3 71h7M4 72h6M5 73h5M8 74h1" />
<path stroke="#ffe631" d="M24 5h1M22 9h1M30 11h1M29 12h1M23 13h1M28 13h1M26 14h1M20 44h1M25 50h1M24 51h1M20 52h3M17 60h1M17 61h1M16 63h1M14 64h2M9 70h1M10 71h1M10 72h1M7 74h1M9 74h1" />
<path stroke="#835210" d="M31 11h1M32 12h1M33 13h1M23 14h1M34 14h1M23 15h1M34 15h1M23 16h1M35 16h1M36 17h1M36 18h1M37 19h1M38 20h1M38 21h1M39 23h1M41 26h1M37 28h1M24 47h1M25 48h1M26 49h1M27 50h1M27 51h1M28 53h1M20 54h1M20 55h1M29 55h1M21 56h1M30 56h1M21 57h1M22 58h1M30 58h1M18 59h1M23 59h1M19 60h2M9 61h1M21 61h1M10 62h1M22 62h1M11 63h1M12 64h1M15 66h1M27 68h1M9 69h1M24 69h1M14 70h1M18 71h1M20 72h1M4 73h1M5 74h2M7 75h3" />
<path stroke="#000000" d="M24 17h1M24 18h1M25 19h1M25 20h1M26 21h1M26 22h1M39 22h1M27 23h1M28 24h1M40 24h1M29 25h2M41 25h1M31 26h2M54 26h2M61 26h1M33 27h2M42 27h1M52 27h2M61 27h1M35 28h2M40 28h2M50 28h2M61 28h1M38 29h2M61 29h1M61 30h1M61 31h1M61 32h1M61 33h1M61 34h1M60 35h1M62 35h1M62 36h1M63 37h1M64 38h1M62 39h3M63 40h1M65 40h1M30 41h1M63 41h1M30 42h1M63 42h1M65 42h1M30 43h1M62 43h2M30 44h1M30 45h1M64 45h1M31 46h1M63 46h1M65 46h2M31 47h1M66 47h1M31 48h1M66 48h1M32 49h1M65 49h1M32 50h1M65 50h1M33 51h1M64 51h1M28 52h1M34 52h1M63 52h1M35 53h1M62 53h1M29 54h1M36 54h2M60 54h2M38 55h2M58 55h2M40 56h2M55 56h3M30 57h1M40 57h1M49 57h6M39 58h1M48 58h1M31 59h1M24 60h1M31 60h1M46 60h2M25 61h1M31 61h1M48 61h2M26 62h1M31 62h1M50 62h1M23 63h1M27 63h1M32 63h1M51 63h1M24 64h1M28 64h1M32 64h1M52 64h1M13 65h1M25 65h1M29 65h1M32 65h1M14 66h1M26 66h1M29 66h2M32 66h1M46 66h1M16 67h2M27 67h1M31 67h2M46 67h2M56 67h1M18 68h3M45 68h1M48 68h1M58 68h2M10 69h4M21 69h3M28 69h1M45 69h1M49 69h1M61 69h3M15 70h3M25 70h4M45 70h1M50 70h1M65 70h3M19 71h1M45 71h1M51 71h1M70 71h1M21 72h1M44 72h1M52 72h1M73 72h2M22 73h1M44 73h1M53 73h2M76 73h1M23 74h1M41 74h2M44 74h1M55 74h2M77 74h1M20 75h3M43 75h2M57 75h3M72 75h2M77 75h1M10 76h10M21 76h1M45 76h1M60 76h3M74 76h1M77 76h1" />
<path stroke="#8b204a" d="M57 25h5M56 26h1M44 27h8M42 28h2M49 29h1M36 30h2M35 31h1M34 32h1M33 33h1M32 34h1M60 34h1M32 35h1M31 36h1M60 36h1M31 37h1M30 39h1M30 40h1M33 50h1M64 50h1M36 53h1M61 53h1M47 58h1M38 59h1M47 59h1M37 60h1M35 61h1M33 62h2M45 65h1M53 65h1M28 66h1M54 66h1M55 67h1M57 68h1M60 69h1M23 70h1M22 71h1M46 71h1M22 72h1M46 72h1M40 74h1" />
<path stroke="#e67ba4" d="M57 26h4M54 27h6M44 28h6M52 28h4M41 29h8M50 29h3M38 30h12M37 31h12M35 32h10M46 32h1M34 33h10M45 33h1M47 33h1M34 34h9M44 34h1M46 34h1M33 35h8M43 35h1M33 36h3M37 36h2M32 37h1M34 37h1M36 37h1M33 38h1M35 38h1M32 39h1M46 61h2M35 62h2M46 62h4M34 63h3M48 63h1M50 63h1M33 64h3M49 64h1M51 64h1M33 65h3M33 66h2M28 67h3M33 67h2M28 68h4M33 68h1M35 68h1M29 69h2M32 69h1M34 69h1M24 70h1M29 70h1M31 70h1M63 70h1M25 71h3M64 73h2M60 74h1" />
<path stroke="#cd529c" d="M60 27h1M56 28h5M40 29h1M53 29h8M50 30h11M36 31h1M49 31h12M45 32h1M47 32h14M44 33h1M46 33h1M48 33h13M33 34h1M43 34h1M45 34h1M47 34h13M41 35h2M44 35h16M61 35h1M32 36h1M36 36h1M39 36h21M61 36h1M33 37h1M35 37h1M37 37h26M31 38h2M34 38h1M36 38h28M31 39h1M33 39h29M31 40h32M31 41h32M31 42h32M31 43h31M31 44h33M31 45h33M32 46h31M64 46h1M32 47h34M32 48h34M33 49h32M34 50h30M34 51h30M35 52h28M37 53h24M38 54h22M40 55h18M42 56h13M41 57h8M40 58h7M39 59h8M38 60h8M36 61h10M37 62h9M33 63h1M37 63h11M49 63h1M36 64h13M50 64h1M36 65h9M46 65h7M35 66h11M47 66h7M35 67h11M48 67h7M32 68h1M34 68h1M36 68h9M49 68h8M31 69h1M33 69h1M35 69h10M50 69h10M30 70h1M32 70h13M51 70h12M23 71h2M28 71h17M52 71h12M23 72h21M45 72h1M53 72h12M23 73h21M45 73h1M55 73h9M24 74h16M43 74h1M45 74h1M57 74h3M23 75h20M60 75h2M22 76h23" />
<path stroke="#bdbdc5" d="M64 40h1M64 71h5M65 72h7M46 73h1M66 73h9M46 74h1M61 74h8M71 74h6M45 75h3M62 75h9M74 75h3M46 76h3M63 76h11M75 76h2" />
<path stroke="#f6f6ff" d="M64 41h1M64 42h1M64 43h1M65 44h1M65 45h1" />
<path stroke="#5a5a5a" d="M66 42h1M66 43h1M64 44h1M66 44h1M66 45h1M64 70h1M68 70h1M69 71h1M71 71h1M72 72h1M47 73h1M75 73h1M47 74h1M69 74h2M48 75h1M71 75h1M49 76h1" />
</svg>