<svg xmlns="http://www.w3.org/2000/svg" viewBox="0 -0.5 80 80" shape-rendering="crispEdges">
<metadata>Made with Pixels to Svg https://codepen.io/shshaw/pen/XbxvNj</metadata>
<path stroke="#52a452" d="M27 30h2M29 31h1M29 32h1M30 33h1M31 34h1M27 35h2M31 35h1M51 38h1M51 39h1M38 41h11M50 41h1M34 42h4M49 42h1M31 43h3M49 43h1M73 43h2M28 44h3M48 44h1M71 44h2M26 45h2M47 45h1M69 45h2M7 46h3M24 46h2M46 46h1M67 46h2M10 47h3M22 47h2M64 47h3M13 48h2M20 48h2M10 49h1M15 49h3M19 49h2M10 50h1M19 50h1M18 51h1M17 52h1M15 55h1M50 60h1M51 61h1M52 62h1M53 63h1M54 64h1M58 64h1M32 65h1M54 65h1M58 65h1M32 66h1M45 66h1M55 66h1M58 66h1M55 67h1M57 67h1M33 68h1M46 68h1M55 68h1M57 68h1M33 69h1M46 69h1M55 69h3M33 70h1M46 70h1M56 70h1M33 71h1M46 71h1M56 71h1" />
<path stroke="#318331" d="M27 31h1M27 32h1M27 33h1M55 33h1M27 34h1M28 36h1M32 36h1M28 37h1M54 37h1M28 38h2M33 38h1M29 39h1M29 40h1M29 41h2M30 42h1M30 43h1M48 43h1M55 43h2M57 44h2M53 45h1M59 45h2M52 46h1M60 46h2M72 46h1M7 47h1M62 47h1M72 47h1M8 48h1M52 48h1M63 48h1M9 49h1M69 49h1M11 50h1M18 50h1M68 50h1M12 51h1M17 51h1M65 51h1M68 51h1M13 52h1M16 52h1M67 52h1M14 53h1M16 53h1M15 54h1M14 55h1M14 56h1M13 57h1M61 57h1M13 58h1M61 58h1M64 58h1M12 59h2M61 59h1M64 59h1M12 60h1M61 60h1M12 61h1M62 61h1M11 62h2M62 62h1M11 63h1M63 63h1M11 64h1M64 64h2M11 65h1M11 66h1M11 67h1M11 68h1M11 69h1M11 70h2M12 71h1" />
<path stroke="#d5ffb4" d="M28 31h1M28 32h1M28 33h2M28 34h2M54 34h1M29 35h1M53 35h2M53 36h1M52 37h2M52 38h2M52 39h1M38 42h11M35 43h13M54 43h1M33 44h15M54 44h3M35 45h12M54 45h2M64 60h1M64 61h1" />
<path stroke="#6ab452" d="M54 32h2M53 33h1M53 34h1M52 35h1M52 36h1M51 37h1M50 40h1M15 53h1" />
<path stroke="#c5ff83" d="M54 33h1M53 39h1M51 40h3M51 41h2M50 42h3M50 43h3M31 44h2M51 44h2M73 44h2M29 45h6M51 45h1M56 45h3M71 45h3M27 46h19M53 46h7M69 46h3M25 47h20M53 47h9M68 47h3M23 48h23M53 48h4M60 48h3M22 49h26M53 49h3M62 49h2M20 50h35M64 50h1M20 51h35M21 52h32M21 53h31M22 54h9M32 54h1M34 54h1M36 54h14M24 55h6M31 55h1M33 55h1M35 55h1M37 55h1M39 55h9M26 56h5M32 56h1M34 56h1M36 56h1M38 56h1M40 56h5" />
<path stroke="#9cde62" d="M30 34h1M30 35h1M29 36h3M29 37h4M30 38h3M30 39h4M30 40h5M31 41h5M31 42h3M34 43h1M49 44h2M28 45h1M48 45h3M26 46h1M47 46h5M8 47h2M24 47h1M45 47h7M67 47h1M9 48h4M22 48h1M46 48h6M57 48h3M64 48h6M11 49h2M21 49h1M48 49h4M56 49h6M65 49h4M55 50h9M66 50h2M19 51h1M55 51h10M67 51h1M18 52h3M53 52h13M17 53h4M52 53h14M16 54h6M31 54h1M33 54h1M35 54h1M50 54h16M16 55h8M30 55h1M32 55h1M34 55h1M36 55h1M38 55h1M48 55h6M55 55h10M15 56h11M31 56h1M33 56h1M35 56h1M37 56h1M39 56h1M45 56h10M56 56h5M15 57h30M47 57h9M57 57h4M14 58h33M49 58h8M58 58h3M14 59h35M50 59h7M58 59h3M14 60h26M42 60h8M51 60h7M59 60h2M14 61h15M30 61h12M43 61h8M52 61h6M59 61h2M14 62h16M31 62h12M44 62h8M53 62h5M59 62h1M15 63h16M32 63h12M45 63h8M54 63h4M16 64h16M33 64h11M45 64h9M55 64h2M18 65h14M33 65h12M46 65h8M22 66h10M33 66h12M46 66h6M27 67h6M34 67h11M47 67h1" />
<path stroke="#181818" d="M55 34h1M55 35h1M55 36h1M33 37h1M55 37h1M54 38h1M34 39h1M54 39h1M35 40h1M54 40h1M36 41h1M54 41h1M53 42h2M53 43h1M53 44h1M74 45h1M73 46h1M52 47h1M71 47h1M70 48h1M64 49h1M65 50h1M66 51h1M66 52h1M66 53h2M67 54h1M67 55h2M67 56h2M64 57h1M68 57h1M65 58h1M68 58h1M65 59h1M68 59h1M65 60h2M68 60h1M66 61h1M68 61h1M66 62h1M68 62h1M66 63h1M68 63h1M67 64h2M67 65h1M67 66h1M66 67h2M66 68h1M65 69h2M64 70h2M63 71h2" />
<path stroke="#83c529" d="M54 36h1M53 41h1M52 45h1M13 49h2M52 49h1M12 50h6M13 51h4M14 52h2M66 54h1M54 55h1M65 55h2M55 56h1M63 56h4M14 57h1M45 57h2M56 57h1M65 57h3M47 58h2M57 58h1M66 58h2M49 59h1M57 59h1M66 59h2M13 60h1M40 60h2M58 60h1M67 60h1M13 61h1M29 61h1M42 61h1M58 61h1M61 61h1M67 61h1M13 62h1M30 62h1M43 62h1M58 62h1M60 62h2M67 62h1M12 63h3M31 63h1M44 63h1M58 63h5M67 63h1M12 64h4M32 64h1M44 64h1M57 64h1M59 64h5M66 64h1M12 65h6M45 65h1M55 65h3M59 65h8M12 66h10M52 66h3M56 66h2M59 66h8M12 67h15M33 67h1M45 67h2M48 67h7M56 67h1M58 67h8M12 68h21M34 68h12M47 68h8M56 68h1M58 68h8M12 69h21M34 69h12M47 69h8M58 69h7M13 70h20M34 70h12M47 70h9M57 70h7M13 71h20M34 71h12M47 71h9M57 71h6" />
<path stroke="#730000" d="M61 56h2M63 57h1M65 61h1M65 62h1M65 63h1" />
<path stroke="#bd3100" d="M62 57h1M62 58h2M62 59h2M62 60h2M63 61h1M63 62h2M64 63h1" />
</svg>