<svg xmlns="http://www.w3.org/2000/svg" viewBox="0 -0.5 80 80" shape-rendering="crispEdges">
<metadata>Made with Pixels to Svg https://codepen.io/shshaw/pen/XbxvNj</metadata>
<path stroke="#7b5231" d="M48 21h4M45 22h3M52 22h1M41 23h4M52 23h1M24 24h7M52 24h1M23 25h1M31 25h4M52 25h1M22 26h1M35 26h2M52 26h1M22 27h1M35 27h1M52 27h1M22 28h1M34 28h1M52 28h1M22 29h1M34 29h1M52 29h1M23 30h1M33 30h1M52 30h1M23 31h1M33 31h1M24 32h1M24 33h1M32 33h1M25 34h1M32 34h1M26 35h1M31 36h1M27 37h1M31 37h1M28 38h1M29 39h1M29 40h1M30 41h1" />
<path stroke="#ffc55a" d="M48 22h4M45 23h3M24 25h1M23 26h1M23 27h1M23 28h1M23 29h1M24 30h1M24 31h1M25 32h1M25 33h1M26 34h1M27 36h1" />
<path stroke="#e68331" d="M48 23h4M42 24h10M25 25h6M46 25h6M24 26h11M48 26h4M24 27h11M49 27h3M24 28h10M50 28h2M24 29h10M50 29h2M25 30h8M51 30h1M25 31h8M26 32h7M26 33h6M27 34h5M27 35h5M28 36h3M28 37h3M29 38h2M30 39h1M30 40h1" />
<path stroke="#4aa4cd" d="M34 24h6M38 25h2M37 26h1M48 28h1M48 29h1M48 30h2M48 31h3M47 32h3M47 33h1M50 33h2M48 34h4M47 35h6M46 36h7M45 37h8M41 38h2M44 38h10M39 39h4M44 39h10M25 40h2M36 40h6M43 40h11M25 41h5M31 41h11M43 41h11M25 42h5M31 42h10M42 42h8M51 42h1M53 42h1M24 43h1M26 43h4M31 43h10M42 43h9M52 43h1M24 44h1M26 44h15M42 44h8M51 44h1M25 45h1M27 45h4M32 45h8M41 45h8M50 45h1M27 46h4M32 46h8M41 46h7M30 47h2M33 47h7M41 47h3" />
<path stroke="#101010" d="M40 24h2M43 25h3M46 26h2M47 27h2M49 28h1M49 29h1M50 30h1M51 31h1M51 32h1M52 33h1M53 35h1M53 36h1M54 39h1M54 40h1M54 41h1M54 42h1M54 43h1M53 44h1M51 45h2M48 46h4M27 47h2M48 47h2M30 48h8M47 48h2M32 49h1M46 49h2M33 50h2M42 50h4M35 51h2M40 51h3M37 52h1M41 52h1M36 53h1M35 54h1M34 55h1M32 56h2M30 57h2M51 57h1M35 58h1M52 58h1M33 59h2M44 59h3M53 59h1M26 60h1M31 60h2M44 60h2M47 60h1M52 60h2M28 61h3M45 61h1M49 61h3M45 62h2M45 63h2" />
<path stroke="#c5f6f6" d="M35 25h3M40 25h3M38 26h7M36 27h10M35 28h11M35 29h11M34 30h12M34 31h11M33 32h12M33 33h10M33 34h9M25 35h1M32 35h9M25 36h1M32 36h7M32 37h4" />
<path stroke="#8bcde6" d="M45 26h1M46 27h1M46 28h2M46 29h2M46 30h2M45 31h3M45 32h2M43 33h4M42 34h5M41 35h5M24 36h1M26 36h1M39 36h6M24 37h3M36 37h8M24 38h4M31 38h10M24 39h5M31 39h8M27 40h2M31 40h5M50 42h1M52 42h1M51 43h1M53 43h1M50 44h1M52 44h1M49 45h1" />
<path stroke="#107bac" d="M50 32h1M48 33h2M24 34h1M47 34h1M52 34h1M24 35h1M46 35h1M23 36h1M45 36h1M23 37h1M44 37h1M53 37h1M23 38h1M43 38h1M54 38h1M23 39h1M43 39h1M23 40h2M42 40h1M23 41h2M42 41h1M23 42h2M30 42h1M41 42h1M23 43h1M25 43h1M30 43h1M41 43h1M23 44h1M25 44h1M41 44h1M24 45h1M26 45h1M31 45h1M40 45h1M25 46h2M31 46h1M40 46h1M29 47h1M32 47h1M40 47h1M44 47h4M38 48h6" />
<path stroke="#d5acde" d="M44 48h3M33 49h12M35 50h5M38 51h1M38 52h2M38 53h3M36 54h7M35 55h2M38 55h7M34 56h3M38 56h3M42 56h4M34 57h2M37 57h1M44 57h1M34 58h1" />
<path stroke="#8b52a4" d="M45 49h1M37 51h1M39 51h1M40 52h1M37 53h1M41 53h2M43 54h2M37 55h1M45 55h2M37 56h1M41 56h1M47 56h3M36 57h1M42 57h2M50 57h1M27 58h3M36 58h1M43 58h2M26 59h1M36 59h1M43 59h1M27 60h1M35 60h1M48 60h1M51 60h1M35 61h1M44 61h1M34 62h1M33 63h1" />
<path stroke="#fff6ff" d="M40 50h2M46 56h1M32 57h2M38 57h4M45 57h5M30 58h4M37 58h6M45 58h7M27 59h6M37 59h6M47 59h6M28 60h3M36 60h8M49 60h2M36 61h8M35 62h10M34 63h11" />
</svg>