<svg xmlns="http://www.w3.org/2000/svg" viewBox="0 -0.5 80 80" shape-rendering="crispEdges">
<metadata>Made with Pixels to Svg https://codepen.io/shshaw/pen/XbxvNj</metadata>
<path stroke="#de5a08" d="M17 15h7M14 16h3M24 16h2M12 17h2M18 17h1M26 17h1M10 18h2M15 18h1M27 18h1M9 19h1M13 19h1M28 19h1M8 20h1M11 20h1M8 22h1M6 23h2M6 24h1M30 24h1M5 25h2M5 26h1M4 27h2M4 28h1M3 29h2M3 30h1M3 31h1M2 32h2M2 33h1M2 34h1M2 35h1M2 36h1M2 37h1M51 37h1M58 37h1M2 38h1M48 38h1M2 39h1M46 39h1M52 39h1M57 39h2M2 40h1M49 40h1M58 40h2M2 41h1M11 41h1M47 41h1M59 41h2M2 42h1M12 42h1M60 42h2M3 43h1M12 43h1M60 43h2M65 43h1M3 44h1M11 44h1M13 44h1M61 44h2M65 44h2M3 45h1M13 45h1M40 45h1M61 45h3M65 45h2M4 46h1M39 46h1M62 46h5M4 47h2M12 47h1M39 47h1M63 47h3M5 48h4M11 48h1M38 48h3M67 48h3M7 49h3M38 49h2M66 49h4M37 50h3M66 50h3M37 51h2M36 52h3M36 53h2M36 54h2M35 55h3M35 56h2M35 57h2M35 58h2M35 59h2M35 60h2M35 61h2M58 61h2M35 62h2M57 62h4M36 63h2M57 63h6M36 64h2M56 64h6M37 65h2M55 65h6" />
<path stroke="#ff7b29" d="M17 16h7M14 17h4M23 17h3M12 18h3M25 18h2M10 19h3M26 19h2M9 20h2M27 20h2M8 21h2M28 21h1M7 22h1M28 22h2M29 23h1M29 24h1M30 25h1M30 26h1M56 27h2M54 28h5M52 37h6M49 38h11M47 39h5M59 39h1M45 40h4M60 40h1M10 41h1M44 41h3M11 42h1M43 42h3M11 43h1M42 43h3M12 44h1M41 44h3M12 45h1M41 45h2M12 46h1M40 46h2M11 47h1M40 47h1M9 48h2" />
<path stroke="#7b3900" d="M19 17h4M16 18h2M23 18h2M14 19h1M25 19h1M12 20h1M26 20h1M7 21h1M10 21h1M27 21h1M29 21h1M6 22h1M9 22h1M27 22h1M5 23h1M8 23h1M28 23h1M30 23h1M5 24h1M7 24h1M28 24h1M4 25h1M7 25h1M29 25h1M31 25h1M4 26h1M6 26h1M29 26h1M31 26h1M57 26h1M3 27h1M6 27h1M29 27h1M58 27h2M3 28h1M5 28h1M2 29h1M5 29h1M2 30h1M4 30h1M2 31h1M4 31h1M1 32h1M4 32h1M1 33h1M3 33h1M1 34h1M3 34h1M3 35h1M3 36h1M3 37h1M3 38h1M3 39h1M3 40h1M3 41h1M3 42h1M2 43h1M4 43h1M66 43h1M4 44h1M4 45h1M11 45h1M3 46h1M5 46h1M11 46h1M13 46h1M6 47h1M9 47h2M13 47h1M4 48h1M12 48h1M6 49h1M10 49h1M69 50h1M68 51h1" />
<path stroke="#39415a" d="M19 21h3M17 22h2M22 22h2M16 23h1M24 23h1M41 23h8M15 24h1M25 24h1M37 24h4M49 24h4M15 25h1M26 25h1M34 25h3M53 25h3M14 26h1M26 26h1M32 26h2M56 26h1M14 27h1M27 27h1M30 27h2M14 28h1M27 28h1M29 28h1M60 28h2M13 29h1M27 29h2M51 29h6M62 29h1M28 30h1M49 30h10M63 30h1M28 31h1M47 31h14M64 31h1M28 32h1M46 32h15M65 32h2M28 33h1M45 33h15M64 33h1M66 33h3M28 34h1M43 34h17M63 34h1M65 34h1M69 34h1M28 35h2M41 35h19M64 35h1M70 35h1M28 36h33M70 36h1M28 37h23M59 37h2M71 37h1M28 38h20M60 38h2M71 38h1M27 39h19M60 39h3M66 39h1M72 39h1M26 40h19M53 40h4M61 40h7M72 40h1M26 41h18M50 41h8M61 41h7M72 41h1M25 42h18M48 42h11M62 42h6M17 43h1M25 43h17M46 43h13M62 43h3M67 43h1M73 43h1M24 44h17M45 44h15M63 44h2M67 44h1M74 44h1M24 45h16M44 45h16M64 45h1M67 45h1M75 45h1M17 46h1M23 46h16M43 46h18M67 46h1M76 46h1M16 47h3M23 47h16M42 47h20M66 47h2M77 47h1M16 48h22M42 48h21M65 48h2M77 48h1M16 49h22M42 49h24M78 49h1M15 50h22M41 50h25M78 50h1M15 51h22M41 51h24M78 51h1M15 52h21M40 52h28M15 53h21M40 53h30M72 53h1M15 54h21M39 54h32M14 55h21M39 55h34M14 56h21M39 56h35M75 56h1M14 57h21M38 57h36M76 57h1M13 58h22M38 58h36M13 59h22M38 59h37M13 60h22M38 60h21M61 60h14M12 61h23M38 61h20M62 61h13M12 62h23M38 62h19M64 62h10M12 63h24M39 63h18M66 63h7M11 64h25M39 64h17M11 65h26M40 65h15" />
<path stroke="#83deff" d="M19 22h3M17 23h7M16 24h2M22 24h3M16 25h1M23 25h3M15 26h1M24 26h2M25 27h2M25 28h2M26 29h1M26 30h2M27 31h1M27 32h1M66 34h3M67 35h3M67 36h3M68 37h3M68 38h3M69 39h2M74 45h1M75 46h1M75 47h2M75 48h2M77 49h1" />
<path stroke="#6aa4de" d="M18 24h4M17 25h6M16 26h1M21 26h3M15 27h1M21 27h4M15 28h1M22 28h3M14 29h2M22 29h4M14 30h3M23 30h3M14 31h3M23 31h4M14 32h4M23 32h4M14 33h4M22 33h1M27 33h1M14 34h9M27 34h1M14 35h10M27 35h1M15 36h4M21 36h3M27 36h1M15 37h4M22 37h6M15 38h4M22 38h6M16 39h3M22 39h5M68 39h1M71 39h1M16 40h3M22 40h4M69 40h3M17 41h3M22 41h4M69 41h3M17 42h8M69 42h3M18 43h7M69 43h3M18 44h6M69 44h3M73 44h1M19 45h5M68 45h3M73 45h1M20 46h3M68 46h3M74 46h1M21 47h2M74 47h1M75 49h2M76 50h2M76 51h2M77 52h1" />
<path stroke="#7b7b8b" d="M41 24h8M37 25h16M34 26h22M32 27h24M30 28h24M59 28h1M29 29h21M58 29h4M29 30h19M60 30h3M29 31h18M62 31h2M29 32h17M29 33h16M29 34h14M31 35h9M70 53h2M72 54h2M73 55h2M74 56h1M74 57h2M75 58h1M75 59h1M75 60h1M75 61h1" />
<path stroke="#5a7bb4" d="M17 26h1M20 26h1M16 27h1M16 28h1M21 28h1M16 29h1M22 30h1M17 31h1M22 31h1M22 32h1M18 33h1M21 33h1M23 33h1M26 33h1M23 34h1M64 34h1M14 36h1M19 36h2M24 36h1M26 36h1M21 37h1M15 39h1M19 40h1M16 41h1M20 41h2M76 52h1" />
<path stroke="#182039" d="M18 26h2M17 27h4M17 28h4M17 29h5M13 30h1M17 30h5M13 31h1M18 31h4M13 32h1M18 32h4M64 32h1M13 33h1M19 33h2M24 33h2M65 33h1M13 34h1M24 34h3M13 35h1M24 35h3M66 35h1M13 36h1M25 36h1M66 36h1M14 37h1M19 37h2M67 37h1M14 38h1M19 38h3M67 38h1M14 39h1M19 39h3M53 39h4M67 39h1M15 40h1M20 40h2M50 40h3M57 40h1M68 40h1M15 41h1M48 41h2M58 41h1M68 41h1M46 42h2M59 42h1M68 42h1M72 42h1M16 43h1M45 43h1M59 43h1M68 43h1M44 44h1M60 44h1M68 44h1M17 45h1M43 45h1M60 45h1M71 45h1M18 46h1M42 46h1M61 46h1M73 46h1M19 47h2M41 47h1M62 47h1M68 47h2M41 48h1M63 48h2M74 48h1M40 49h2M40 50h1M75 50h1M39 51h2M65 51h3M39 52h1M68 52h4M78 52h1M38 53h2M73 53h1M38 54h1M74 54h1M38 55h1M75 55h1M37 56h2M37 57h1M37 58h1M76 58h1M37 59h1M76 59h1M37 60h1M59 60h2M76 60h1M37 61h1M61 61h1M37 62h1M63 62h1M75 62h1M38 63h1M65 63h1M73 63h1M38 64h1M39 65h1" />
<path stroke="#4a627b" d="M50 29h1M57 29h1M48 30h1M59 30h1M61 31h1M63 32h1M30 35h1M40 35h1M71 54h1M74 58h1M74 62h1" />
<path stroke="#ffffff" d="M61 32h2M60 33h4M60 34h3M60 35h3M65 35h1M61 36h5M61 37h6M62 38h5M63 39h3" />
<path stroke="#101010" d="M1 35h1M63 35h1M1 36h1M1 37h1M1 38h1M1 39h1M1 40h1M1 41h1M1 42h1M16 42h1M1 43h1M72 43h1M2 44h1M17 44h1M72 44h1M2 45h1M16 45h1M18 45h1M72 45h1M2 46h1M16 46h1M19 46h1M71 46h2M3 47h1M15 47h1M70 47h2M73 47h1M3 48h1M13 48h1M15 48h1M70 48h1M73 48h1M4 49h2M11 49h2M15 49h1M70 49h1M74 49h1M6 50h5M14 50h1M70 50h1M74 50h1M14 51h1M69 51h1M75 51h1M14 52h1M75 52h1M14 53h1M76 53h2M13 54h2M13 55h1M13 56h1M12 57h2M12 58h1M12 59h1M11 60h2M11 61h1M60 61h1M76 61h1M11 62h1M61 62h2M76 62h1M10 63h2M63 63h2M74 63h2M10 64h1M62 64h1M65 64h9M9 65h2M61 65h1" />
</svg>