<svg xmlns="http://www.w3.org/2000/svg" viewBox="0 -0.5 80 80" shape-rendering="crispEdges">
<metadata>Made with Pixels to Svg https://codepen.io/shshaw/pen/XbxvNj</metadata>
<path stroke="#9c6252" d="M46 1h5M44 2h2M51 2h2M42 3h2M53 3h1M41 4h1M54 4h1M40 5h1M39 6h1M21 7h5M38 7h1M19 8h2M26 8h1M37 8h1M18 9h1M27 9h1M37 9h1M51 9h1M17 10h1M27 10h1M36 10h1M50 10h1M17 11h1M36 11h1M49 11h1M16 12h1M26 12h1M35 12h1M48 12h1M16 13h1M25 13h1M35 13h1M15 14h1M24 14h1M34 14h1M15 15h1M34 15h1M15 16h1M23 16h1M34 16h1M62 16h6M15 17h1M33 17h1M60 17h2M68 17h1M14 18h1M22 18h1M33 18h1M42 18h1M58 18h2M69 18h1M14 19h1M32 19h1M56 19h2M69 19h1M14 20h1M32 20h1M54 20h2M70 20h1M14 21h1M32 21h1M40 21h1M51 21h2M14 22h1M31 22h1M39 22h1M50 22h1M12 23h3M31 23h1M48 23h2M10 24h2M14 24h1M31 24h1M47 24h1M9 25h1M14 25h2M31 25h1M46 25h1M8 26h1M15 26h1M30 26h1M45 26h1M8 27h1M15 27h1M30 27h1M44 27h1M61 27h1M65 27h1M7 28h1M15 28h2M43 28h1M66 28h1M14 29h1M42 29h1M66 29h1M17 30h1M41 30h1M66 30h1M13 31h1M40 31h1M67 31h1M67 32h1M39 33h1M49 33h1M48 34h1M8 35h1M38 35h1M47 35h1M37 37h1M69 42h4M66 43h3M73 43h1M64 44h2M74 44h1M43 45h1M60 45h3M74 45h1M45 46h1M56 46h4M48 47h8M70 50h1M67 51h1M22 52h1M44 52h1M63 52h1M26 53h1M47 53h1M59 53h1M21 54h1M20 56h1M34 56h1M42 57h1M44 58h1M47 59h1M56 61h1M25 62h1M26 64h1M35 65h1M27 66h1M47 66h1M23 67h1M50 67h1M22 68h1M32 71h1M34 72h1" />
<path stroke="#ffac73" d="M46 2h5M44 3h9M42 4h8M52 4h2M41 5h2M46 5h3M53 5h1M40 6h1M53 6h1M23 8h2M23 9h2M37 11h5M36 12h8M36 13h9M35 14h10M17 15h5M35 15h10M16 16h7M35 16h9M16 17h7M34 17h9M65 17h2M15 18h7M34 18h8M64 18h4M15 19h7M33 19h9M65 19h2M15 20h7M33 20h8M15 21h7M33 21h7M53 21h3M15 22h7M32 22h7M51 22h7M15 23h7M32 23h7M50 23h9M15 24h7M32 24h6M48 24h12M16 25h6M32 25h6M47 25h14M16 26h6M31 26h6M46 26h15M9 27h3M16 27h6M31 27h6M45 27h16M8 28h5M17 28h6M31 28h6M44 28h15M8 29h6M17 29h6M31 29h5M43 29h14M8 30h6M18 30h5M31 30h5M42 30h12M8 31h5M18 31h6M31 31h5M41 31h11M8 32h5M19 32h5M31 32h5M40 32h11M8 33h5M20 33h3M31 33h4M40 33h9M8 34h6M32 34h3M39 34h9M9 35h5M39 35h8M9 36h6M38 36h8M10 37h4M38 37h7M11 38h2M37 38h7M37 39h6M37 40h5M38 41h3M71 43h2M71 44h2M39 45h4M63 45h1M38 46h7M60 46h5M38 47h10M56 47h9M38 48h28M39 49h27M40 50h26M42 51h23M35 52h2M45 52h18M20 53h2M27 53h2M34 53h4M48 53h11M19 54h2M26 54h4M34 54h5M18 55h3M25 55h5M34 55h6M18 56h2M25 56h5M35 56h6M17 57h3M25 57h5M35 57h7M17 58h3M25 58h6M35 58h9M17 59h3M25 59h6M36 59h11M17 60h3M25 60h7M37 60h14M18 61h3M25 61h7M38 61h16M18 62h3M26 62h7M39 62h16M18 63h4M26 63h7M41 63h14M19 64h2M27 64h7M43 64h12M27 65h8M45 65h10M28 66h9M48 66h6M28 67h9M29 68h8M30 69h6M31 70h4" />
<path stroke="#f66a20" d="M50 4h2M43 5h3M49 5h4M41 6h12M39 7h15M21 8h2M25 8h1M38 8h15M19 9h4M25 9h2M38 9h13M18 10h9M37 10h13M18 11h9M42 11h7M17 12h9M44 12h4M17 13h8M45 13h2M16 14h8M45 14h1M16 15h1M22 15h2M62 17h3M67 17h1M60 18h4M68 18h1M58 19h7M67 19h2M56 20h14M56 21h14M58 22h12M59 23h10M12 24h2M60 24h8M10 25h4M61 25h5M9 26h6M61 26h3M12 27h3M13 28h2M69 43h2M66 44h5M73 44h1M64 45h10M65 46h9M65 47h9M66 48h7M66 49h6M66 50h4M65 51h2M54 61h2M55 62h5M55 63h6M21 64h2M55 64h6M20 65h4M55 65h6M20 66h4M54 66h7M21 67h2M37 67h2M51 67h9M21 68h1M37 68h4M36 69h6M35 70h7M33 71h9M35 72h6" />
<path stroke="#101010" d="M54 5h1M54 6h1M54 7h1M53 8h1M52 9h1M51 10h1M27 11h1M50 11h1M27 12h1M49 12h1M26 13h1M47 13h2M25 14h1M46 14h2M24 15h1M45 15h2M24 16h1M44 16h2M23 17h1M43 17h2M23 18h1M43 18h1M22 19h1M42 19h1M22 20h1M41 20h2M22 21h1M41 21h1M70 21h1M22 22h1M40 22h1M70 22h1M22 23h1M39 23h1M69 23h1M22 24h1M38 24h2M68 24h2M22 25h1M27 25h4M38 25h1M66 25h3M22 26h1M25 26h2M37 26h3M64 26h3M22 27h3M37 27h1M40 27h2M62 27h3M23 28h1M30 28h1M37 28h1M42 28h1M59 28h3M7 29h1M15 29h2M23 29h1M30 29h1M36 29h2M57 29h2M7 30h1M14 30h1M16 30h1M23 30h1M26 30h5M36 30h1M54 30h4M7 31h1M14 31h1M17 31h1M24 31h7M36 31h1M52 31h3M7 32h1M13 32h1M17 32h2M24 32h7M36 32h1M39 32h1M51 32h2M7 33h1M13 33h1M16 33h1M18 33h2M23 33h7M35 33h3M50 33h2M7 34h1M14 34h1M16 34h1M19 34h4M31 34h1M35 34h4M49 34h1M68 34h1M7 35h1M14 35h1M16 35h3M33 35h5M48 35h1M68 35h1M8 36h1M15 36h2M34 36h4M46 36h2M68 36h1M8 37h2M14 37h1M35 37h2M45 37h4M68 37h1M9 38h2M13 38h1M35 38h2M44 38h2M48 38h1M56 38h5M68 38h1M10 39h3M36 39h1M43 39h2M48 39h1M55 39h7M68 39h1M11 40h1M36 40h1M42 40h2M48 40h2M55 40h3M60 40h3M67 40h1M10 41h1M36 41h2M41 41h2M49 41h1M54 41h3M61 41h2M67 41h1M9 42h1M36 42h6M49 42h1M54 42h3M62 42h1M67 42h1M8 43h1M36 43h6M49 43h1M54 43h3M62 43h2M8 44h1M36 44h7M49 44h1M54 44h3M62 44h2M7 45h1M36 45h3M44 45h1M49 45h1M54 45h4M7 46h1M36 46h2M46 46h2M49 46h1M55 46h1M74 46h1M6 47h1M35 47h3M74 47h1M6 48h1M35 48h3M73 48h2M6 49h1M34 49h5M72 49h2M5 50h1M33 50h7M71 50h2M5 51h1M21 51h3M31 51h11M68 51h3M5 52h1M19 52h3M23 52h12M37 52h2M41 52h3M64 52h4M5 53h1M18 53h2M22 53h4M29 53h5M38 53h1M44 53h3M60 53h4M5 54h1M17 54h2M22 54h4M30 54h4M39 54h1M45 54h1M47 54h14M5 55h1M17 55h1M21 55h1M24 55h1M30 55h4M40 55h1M44 55h2M60 55h1M5 56h1M16 56h2M21 56h2M24 56h1M30 56h1M33 56h1M41 56h1M43 56h2M59 56h1M5 57h1M16 57h1M20 57h2M23 57h2M30 57h1M33 57h2M43 57h1M57 57h2M5 58h1M16 58h1M20 58h1M23 58h2M31 58h1M34 58h1M45 58h2M54 58h3M6 59h1M16 59h1M20 59h1M24 59h1M31 59h1M34 59h2M48 59h6M6 60h1M16 60h1M20 60h1M24 60h1M32 60h5M51 60h5M6 61h1M17 61h1M21 61h1M24 61h1M32 61h1M36 61h2M57 61h3M7 62h1M17 62h1M21 62h1M24 62h1M33 62h1M37 62h2M60 62h1M7 63h1M17 63h1M22 63h1M25 63h1M33 63h1M38 63h3M61 63h1M7 64h2M18 64h1M23 64h1M25 64h1M34 64h1M40 64h3M61 64h1M8 65h1M18 65h2M24 65h1M26 65h1M36 65h1M42 65h3M61 65h1M8 66h2M19 66h1M24 66h1M26 66h1M37 66h2M44 66h3M61 66h1M9 67h1M19 67h2M24 67h1M27 67h1M39 67h2M47 67h3M60 67h2M9 68h1M20 68h1M23 68h1M27 68h2M41 68h1M50 68h11M9 69h2M20 69h3M28 69h2M42 69h1M10 70h1M21 70h1M29 70h2M42 70h1M10 71h1M22 71h1M30 71h2M42 71h1M10 72h2M22 72h1M32 72h2M41 72h2M11 73h1M22 73h2M34 73h8M11 74h1M23 74h1M11 75h2M23 75h2M12 76h1M24 76h1M12 77h1M24 77h2M12 78h1M25 78h1M12 79h1M25 79h1" />
<path stroke="#94316a" d="M48 14h1M49 15h3M31 16h3M52 16h3M29 17h2M55 17h2M27 18h2M57 18h1M26 19h1M25 20h1M24 21h1M23 22h1M27 26h1M39 27h1M25 28h5M41 28h1M24 29h6M59 29h1M24 30h2M37 30h2M37 31h3M37 32h2M17 33h1M30 33h1M38 33h1M67 33h1M23 34h1M30 34h1M19 35h1M32 35h1M33 36h1M56 36h5M34 37h1M55 37h8M54 38h2M61 38h3M35 39h1M54 39h1M62 39h2M67 39h1M35 40h1M44 40h1M53 40h2M63 40h1M35 41h1M43 41h2M48 41h1M53 41h1M63 41h2M35 42h1M42 42h4M48 42h1M53 42h1M63 42h3M9 43h1M34 43h2M42 43h7M53 43h1M64 43h2M32 44h4M43 44h6M53 44h1M24 45h12M45 45h4M53 45h1M22 46h14M48 46h1M53 46h2M7 47h1M21 47h14M20 48h15M19 49h15M19 50h14M18 51h3M24 51h7M18 52h1M39 52h2M17 53h1M39 53h5M40 54h5M46 54h1M16 55h1M22 55h2M41 55h3M46 55h9M23 56h1M31 56h2M42 56h1M45 56h10M31 57h2M44 57h13M6 58h1M32 58h2M47 58h7M32 59h2M7 61h1M18 66h1M21 71h1" />
<path stroke="#de839c" d="M47 15h2M46 16h6M31 17h2M45 17h10M29 18h4M44 18h13M27 19h5M50 19h6M26 20h4M53 20h1M25 21h2M24 22h1M62 28h3M62 29h3M62 30h3M62 31h3M63 32h3M63 33h4M65 34h3M66 35h2M17 36h4M67 36h1M15 37h7M14 38h8M13 39h8M12 40h5M11 41h4M10 42h3M10 43h2M9 44h2M8 45h2M8 46h1M8 47h1M7 48h1M7 49h1M6 50h1M6 51h1M6 52h1M6 53h1M18 68h2M18 69h2M18 70h3M18 71h3M19 72h3M19 73h3M19 74h4M20 75h3M20 76h2" />
<path stroke="#bd5a94" d="M43 19h7M30 20h2M43 20h10M27 21h5M42 21h9M25 22h6M41 22h9M23 23h8M40 23h8M23 24h8M40 24h7M23 25h4M39 25h7M23 26h2M28 26h2M40 26h5M25 27h5M38 27h1M42 27h2M24 28h1M38 28h3M38 29h4M39 30h2M58 30h2M55 31h5M53 32h7M52 33h9M17 34h2M24 34h6M50 34h11M20 35h12M49 35h13M21 36h12M48 36h8M61 36h2M22 37h12M49 37h6M63 37h2M22 38h13M46 38h2M49 38h5M64 38h2M21 39h14M45 39h3M49 39h5M64 39h3M17 40h18M45 40h3M50 40h3M64 40h3M15 41h20M45 41h3M50 41h3M65 41h2M13 42h22M46 42h2M50 42h3M66 42h1M12 43h22M50 43h3M11 44h21M50 44h3M10 45h14M50 45h3M9 46h13M50 46h3M9 47h12M8 48h12M8 49h11M7 50h12M7 51h11M7 52h11M7 53h10M6 54h11M6 55h10M55 55h5M6 56h10M55 56h4M6 57h10M7 58h9M7 59h9M7 60h9M8 61h9M8 62h9M8 63h9M9 64h9M9 65h9M10 66h8M10 67h9M10 68h8M11 69h7M11 70h7M11 71h7M12 72h7M12 73h7M12 74h7M13 75h7M13 76h7M13 77h8M13 78h6" />
<path stroke="#ffde29" d="M65 28h1M60 29h2M65 29h1M60 30h2M65 30h1M60 31h2M65 31h2M61 32h2M66 32h1M62 33h1M63 34h2M65 35h1M57 42h1M57 43h3M57 44h5M58 45h2M22 76h2M21 77h3M21 78h4M22 79h3" />
<path stroke="#e6ac00" d="M60 32h1M61 33h1M61 34h2M62 35h3M63 36h4M65 37h3M66 38h2M58 40h2M57 41h4M58 42h4M60 43h2M19 78h2M13 79h9" />
</svg>