<svg xmlns="http://www.w3.org/2000/svg" viewBox="0 -0.5 80 80" shape-rendering="crispEdges">
<metadata>Made with Pixels to Svg https://codepen.io/shshaw/pen/XbxvNj</metadata>
<path stroke="#005a00" d="M71 12h4M7 13h5M67 13h4M6 14h1M12 14h3M64 14h3M71 14h2M7 15h2M15 15h2M69 15h3M7 16h4M68 16h3M8 17h4M72 17h1M9 18h2M10 19h1M8 20h1M10 20h1M9 21h2M11 22h1M12 24h1" />
<path stroke="#39bd62" d="M71 13h3M7 14h5M67 14h4M9 15h6M66 15h3M11 16h6" />
<path stroke="#088341" d="M74 13h1M73 14h2M72 15h3M71 16h3M69 17h3M8 18h1M69 18h3M9 19h1M69 19h2M68 20h2M68 21h1M10 22h1M67 22h1" />
<path stroke="#101010" d="M75 13h1M75 14h1M6 15h1M75 15h1M6 16h1M74 16h1M7 17h1M73 17h1M7 18h1M72 18h1M8 19h1M71 19h1M9 20h1M70 20h1M48 21h1M69 21h1M68 22h1M11 23h1M67 23h1M66 24h1M13 25h1M65 25h1M14 26h1M64 26h1M15 27h1M63 27h1M16 28h1M62 28h1M17 29h1M61 29h1M60 30h1M18 31h1M57 32h2M19 33h1M56 33h1M6 34h1M6 35h1M20 35h1M66 35h1M54 36h1M7 37h1M18 37h2M51 37h1M65 37h1M8 38h1M19 38h1M48 38h1M64 38h1M9 39h1M20 39h1M46 39h1M63 39h1M10 40h1M21 40h1M44 40h1M62 40h1M9 41h2M60 41h2M59 42h1M62 42h1M2 43h1M58 43h1M3 44h1M59 44h1M4 45h1M5 46h2M7 47h2M9 48h1M65 48h1M10 49h1M63 49h2M8 50h1M60 50h3M76 50h1M21 51h4M57 51h2M74 51h2M5 52h1M27 52h1M56 52h1M78 52h1M5 53h1M74 53h1M78 53h1M6 54h1M74 54h1M7 55h2M44 55h1M77 55h1M46 56h2M49 57h2M61 57h2M75 57h1M7 58h1M53 58h2M60 58h1M62 58h2M74 58h1M56 59h4M62 59h1M65 59h2M73 59h1M6 60h1M28 60h1M62 60h1M68 60h5M62 61h1M5 62h1M17 62h1M30 62h1M5 63h1M61 63h1M5 64h1M16 64h1M61 64h1M4 65h1M25 65h1M31 65h1M61 65h1M4 66h1M15 66h1M27 66h1M31 66h1M4 67h1M15 67h1M28 67h1M31 67h1M60 67h1" />
<path stroke="#ee9c9c" d="M61 15h3M58 16h3M66 16h2M12 17h2M38 17h1M43 17h1M56 17h2M64 17h5M11 18h5M35 18h1M55 18h1M62 18h7M11 19h6M53 19h1M61 19h7M11 20h8M36 20h8M59 20h9M11 21h9M33 21h13M50 21h1M57 21h11M12 22h10M28 22h1M32 22h15M49 22h1M55 22h12M13 23h11M29 23h17M47 23h2M53 23h14M13 24h12M28 24h38M14 25h12M27 25h38M15 26h49M16 27h47M17 28h45M18 29h43M19 30h40M19 31h39M20 32h36M20 33h35M65 33h1M7 34h1M12 34h1M21 34h32M55 34h1M7 35h2M14 35h1M16 35h1M21 35h35M8 36h3M16 36h1M21 36h32M64 36h1M9 37h4M17 37h1M20 37h30M61 37h4M9 38h7M18 38h1M20 38h28M50 38h2M53 38h1M59 38h5M10 39h7M18 39h2M21 39h25M48 39h3M52 39h1M54 39h9M11 40h4M17 40h4M22 40h22M46 40h16M11 41h4M19 41h3M23 41h19M44 41h16M3 42h13M20 42h3M24 42h16M42 42h6M51 42h8M60 42h1M3 43h13M21 43h3M25 43h13M40 43h6M51 43h7M59 43h1M4 44h13M22 44h3M26 44h10M38 44h6M50 44h8M60 44h1M5 45h13M23 45h19M49 45h11M66 45h1M7 46h11M24 46h16M47 46h16M66 46h1M9 47h9M25 47h13M46 47h19M10 48h7M25 48h12M45 48h20M11 49h4M24 49h13M45 49h18M65 49h1M10 50h4M21 50h17M46 50h13M63 50h4M7 51h7M26 51h13M48 51h9M59 51h10M72 51h1M76 51h2M6 52h9M22 52h4M29 52h8M39 52h2M50 52h6M58 52h20M6 53h7M23 53h6M31 53h8M41 53h2M52 53h4M58 53h14M75 53h3M7 54h3M23 54h8M32 54h9M43 54h4M52 54h6M59 54h12M72 54h2M75 54h2M23 55h9M33 55h10M46 55h13M60 55h14M75 55h2M23 56h10M34 56h12M49 56h11M61 56h12M74 56h2M22 57h12M35 57h14M52 57h8M63 57h12M21 58h13M35 58h17M57 58h3M65 58h9M20 59h1M27 59h8M36 59h20M68 59h5M7 60h1M18 60h1M21 60h6M29 60h6M36 60h23M7 61h2M17 61h1M19 61h10M30 61h5M37 61h22M7 62h10M18 62h12M31 62h5M37 62h22M6 63h10M18 63h12M31 63h5M37 63h22M6 64h10M17 64h14M32 64h4M37 64h22M6 65h9M17 65h7M27 65h4M32 65h26M5 66h10M16 66h7M24 66h3M28 66h3M32 66h26M5 67h10M16 67h6M23 67h5M29 67h2M32 67h26" />
<path stroke="#ffdede" d="M64 15h2M61 16h5M14 17h5M39 17h4M58 17h6M16 18h5M36 18h10M56 18h6M17 19h6M34 19h13M54 19h7M19 20h6M32 20h4M44 20h3M52 20h7M20 21h7M31 21h2M46 21h2M51 21h6M22 22h6M30 22h2M50 22h5M24 23h4M49 23h4M25 24h2M7 33h4M8 34h4M56 34h2M62 34h4M9 35h5M59 35h7M11 36h5M56 36h8M13 37h4M53 37h8M16 38h2M52 38h1M54 38h5M17 39h1M51 39h1M53 39h1M60 43h2M61 44h3M63 45h2M65 46h1M66 47h2M66 48h3M66 49h4M67 50h4M69 51h3M18 52h3M15 53h7M13 54h10M11 55h12M10 56h12M9 57h13M8 58h13M8 59h12M60 59h2M9 60h9M59 60h3M10 61h6M59 61h3M59 62h2M59 63h2M59 64h2M58 65h3M58 66h2M58 67h2" />
<path stroke="#cd5a5a" d="M17 16h2M38 16h6M19 17h2M35 17h3M44 17h2M21 18h2M33 18h2M46 18h1M54 18h1M23 19h2M32 19h2M47 19h1M52 19h1M25 20h2M31 20h1M47 20h2M50 20h2M27 21h4M49 21h1M29 22h1M47 22h2M28 23h1M46 23h1M27 24h1M18 30h1M59 30h1M58 31h2M7 32h4M19 32h1M56 32h1M6 33h1M11 33h2M55 33h1M57 33h2M62 33h3M13 34h2M20 34h1M53 34h2M58 34h4M66 34h1M15 35h1M56 35h3M7 36h1M17 36h1M19 36h2M53 36h1M55 36h1M65 36h1M8 37h1M50 37h1M52 37h1M49 38h1M47 39h1M45 40h1M3 41h6M22 41h1M42 41h2M2 42h1M23 42h1M40 42h2M61 42h1M24 43h1M39 43h1M62 43h2M25 44h1M58 44h1M64 44h1M60 45h3M65 45h1M63 46h2M67 46h1M65 47h1M68 47h1M69 48h1M70 49h1M7 50h1M9 50h1M59 50h1M71 50h2M77 50h1M5 51h2M18 51h3M25 51h1M73 51h1M78 51h1M15 52h3M26 52h1M28 52h1M37 52h2M57 52h1M13 53h2M29 53h2M39 53h2M56 53h2M72 53h2M11 54h2M31 54h1M41 54h2M58 54h1M71 54h1M77 54h1M10 55h1M32 55h1M43 55h1M45 55h1M59 55h1M74 55h1M9 56h1M33 56h1M48 56h1M60 56h1M73 56h1M76 56h1M8 57h1M34 57h1M51 57h1M60 57h1M34 58h1M52 58h1M55 58h2M61 58h1M64 58h1M6 59h2M21 59h6M35 59h1M67 59h1M19 60h2M27 60h1M35 60h1M5 61h2M18 61h1M29 61h1M35 61h2M6 62h1M36 62h1M61 62h2M16 63h2M30 63h1M36 63h1M62 63h1M4 64h1M31 64h1M36 64h1M5 65h1M15 65h2M24 65h1M26 65h1M23 66h1M60 66h2M22 67h1" />
<path stroke="#de7b7b" d="M68 19h1M12 23h1M26 25h1M15 40h2M15 41h4M16 42h4M48 42h3M16 43h5M38 43h1M46 43h5M17 44h5M36 44h2M44 44h6M18 45h5M42 45h7M18 46h6M40 46h7M18 47h7M38 47h8M17 48h8M37 48h8M15 49h9M37 49h8M14 50h7M38 50h8M14 51h4M39 51h9M41 52h9M43 53h9M10 54h1M47 54h5M9 55h1" />
<path stroke="#f6bdbd" d="M21 52h1M22 53h1M22 56h1M8 60h1M9 61h1M16 61h1" />
</svg>