<svg xmlns="http://www.w3.org/2000/svg" viewBox="0 -0.5 80 80" shape-rendering="crispEdges">
<metadata>Made with Pixels to Svg https://codepen.io/shshaw/pen/XbxvNj</metadata>
<path stroke="#8b5210" d="M17 5h5M23 6h2M36 6h1M26 7h1M37 7h1M18 8h1M28 8h1M38 8h1M30 9h1M39 9h1M19 10h1M35 10h1M34 12h1M20 13h1M43 13h1M21 15h1M18 17h3M16 18h2M14 19h2M17 20h1M36 21h1M22 22h1M33 22h1M41 22h1M23 23h1M32 23h1M39 23h1M22 25h1M21 26h1M29 27h1M28 28h1M31 28h1M33 29h1M47 30h1M52 30h1M19 31h1M41 31h1M48 31h1M20 32h1M44 32h1M23 33h1M26 34h2M53 34h1M42 35h1M55 35h1M22 36h1M43 36h1M23 37h1M44 37h1M46 37h1M51 37h1M23 38h2M45 38h1M49 38h1M21 39h1M27 39h2M40 39h1M20 40h1M42 40h1M24 41h1M43 41h1M28 42h1M26 43h1M14 45h1M17 46h1M16 47h1M18 47h1M17 48h1M13 50h1M19 50h2M10 51h1M17 51h1M9 53h1M18 53h1M11 54h1M38 54h1M32 55h1M40 55h1M43 55h1M15 56h1M19 56h1M28 56h1M42 56h1M45 56h1M17 57h1M21 57h1M47 57h1M31 58h1M46 58h1M16 59h1M33 59h1M45 59h1M15 60h5M25 60h1M35 60h1M23 61h1M26 61h1M27 62h1M31 62h1M35 62h1M46 62h1M18 63h1M26 63h1M29 63h2M41 63h1M24 64h1M29 64h1M45 64h1M22 65h1M28 65h1M34 65h1M42 65h1M16 66h1M20 66h1M27 66h1M37 66h1M44 66h1M18 67h1M26 67h1M36 67h1M43 67h1M16 68h1M25 68h1M33 68h1M35 68h1" />
<path stroke="#080808" d="M17 6h1M17 7h1M35 7h1M17 8h1M35 8h1M18 9h1M35 9h1M18 10h1M34 10h1M19 11h1M34 11h1M19 12h1M19 13h1M20 14h1M20 15h1M21 16h1M15 20h2M17 21h3M19 22h3M21 23h2M22 24h1M21 25h1M20 26h1M20 27h6M26 28h1M26 29h1M27 30h1M16 31h3M27 31h1M17 32h1M21 32h2M18 33h1M24 33h2M19 34h1M19 35h2M20 36h2M21 37h2M22 38h1M18 39h3M19 40h1M21 41h1M73 41h1M22 42h2M73 42h1M21 43h1M72 43h1M13 44h4M20 44h1M72 44h1M13 45h1M17 45h3M71 45h1M14 46h1M70 46h1M14 47h1M69 47h1M15 48h1M68 48h1M13 49h2M66 49h2M10 50h3M65 50h2M7 51h3M64 51h2M6 52h2M62 52h3M8 53h1M60 53h3M64 53h1M9 54h2M58 54h3M11 55h3M57 55h2M63 55h1M13 56h2M54 56h3M62 56h1M15 57h2M51 57h3M61 57h1M50 58h2M59 58h2M15 59h1M49 59h1M55 59h4M14 60h1M48 60h1M58 60h2M13 61h6M48 61h1M18 62h1M47 62h1M17 63h1M32 63h1M34 63h1M46 63h2M16 64h2M31 64h1M34 64h1M40 64h1M46 64h1M16 65h1M30 65h1M33 65h1M39 65h1M41 65h1M45 65h2M15 66h1M21 66h2M24 66h1M29 66h1M33 66h1M38 66h3M42 66h1M45 66h1M63 66h1M15 67h1M19 67h2M24 67h1M27 67h2M33 67h1M37 67h2M40 67h3M44 67h1M62 67h1M14 68h1M17 68h2M24 68h1M26 68h1M32 68h1M36 68h1M42 68h3M60 68h2M14 69h3M24 69h2M32 69h1M34 69h2M45 69h1M58 69h2M32 70h2M45 70h1M53 70h5M44 71h2M53 71h1M44 72h1M53 72h1M43 73h1M53 73h1M42 74h2M52 74h1M41 75h2M52 75h2M40 76h2M52 76h1M54 76h1M38 77h2M52 77h1M36 78h2M51 78h1M34 79h2M51 79h1M55 79h1" />
<path stroke="#ac9c20" d="M18 6h1M22 6h1M18 7h2M25 7h1M19 8h2M27 8h1M19 9h4M29 9h1M36 9h1M20 10h4M31 10h2M36 10h1M40 10h1M20 11h5M33 11h1M35 11h3M41 11h1M20 12h6M35 12h4M42 12h1M21 13h6M33 13h6M21 14h8M33 14h7M43 14h1M22 15h8M33 15h8M22 16h9M32 16h9M21 17h19M41 17h1M18 18h22M43 18h1M16 19h25M45 19h1M18 20h15M35 20h6M20 21h13M37 21h4M23 22h10M38 22h3M24 23h7M33 23h1M40 23h2M23 24h8M41 24h1M23 25h9M22 26h3M26 26h6M27 27h1M30 27h3M45 27h2M27 28h1M32 28h1M46 28h3M28 29h1M47 29h4M37 30h2M48 30h4M38 31h3M49 31h5M18 32h2M39 32h5M49 32h7M19 33h4M40 33h7M50 33h6M20 34h6M41 34h8M51 34h2M54 34h3M21 35h7M43 35h10M56 35h1M23 36h6M44 36h9M24 37h4M45 37h1M47 37h3M52 37h2M25 38h3M46 38h1M50 38h1M22 39h4M41 39h3M21 40h6M43 40h2M25 41h3M27 42h1M15 45h2M15 46h2M18 46h1M17 47h1M14 50h3M11 51h5M18 51h2M8 52h11M10 53h8M12 54h10M39 54h2M14 55h7M33 55h7M44 55h2M16 56h3M29 56h11M41 56h1M43 56h2M18 57h2M22 57h1M30 57h16M17 58h5M32 58h14M47 58h1M17 59h4M34 59h11M46 59h2M22 60h2M36 60h11M20 61h3M24 61h1M27 61h1M36 61h11M19 62h8M28 62h1M36 62h10M19 63h7M27 63h2M35 63h6M42 63h4M18 64h6M26 64h3M35 64h5M42 64h3M17 65h5M25 65h3M35 65h4M43 65h2M17 66h3M25 66h2M34 66h3M43 66h1M16 67h2M25 67h1M34 67h2M15 68h1M34 68h1M33 69h1" />
<path stroke="#dec539" d="M19 6h3M20 7h5M36 7h1M21 8h6M36 8h2M23 9h6M37 9h2M24 10h7M37 10h3M25 11h8M38 11h3M26 12h8M39 12h3M27 13h6M39 13h4M29 14h4M40 14h3M30 15h3M41 15h3M31 16h1M41 16h4M42 17h3M44 18h2" />
<path stroke="#6a6a29" d="M44 14h1M45 16h1M40 17h1M46 17h1M40 18h3M47 18h1M41 19h2M48 19h1M33 20h2M41 20h3M49 20h1M33 21h3M41 21h4M34 22h4M42 22h3M50 22h1M31 23h1M34 23h5M42 23h4M51 23h1M31 24h10M42 24h5M52 24h1M32 25h15M53 25h1M25 26h1M32 26h12M47 26h1M54 26h1M26 27h1M28 27h1M33 27h11M29 28h2M33 28h12M55 28h1M29 29h4M34 29h1M39 29h6M56 29h1M28 30h8M42 30h4M57 30h8M29 31h7M45 31h2M58 31h1M66 31h3M29 32h8M47 32h1M59 32h1M69 32h2M29 33h9M56 33h1M59 33h1M71 33h1M29 34h10M57 34h1M59 34h2M72 34h1M30 35h10M53 35h2M57 35h2M60 35h1M73 35h1M30 36h11M53 36h9M73 36h1M28 37h1M30 37h12M50 37h1M54 37h9M74 37h1M28 38h1M30 38h10M47 38h2M51 38h14M74 38h1M26 39h1M31 39h7M46 39h21M74 39h1M27 40h3M31 40h8M45 40h1M47 40h23M73 40h2M28 41h2M31 41h10M44 41h29M29 42h1M31 42h12M45 42h27M23 43h2M27 43h3M31 43h41M22 44h2M28 44h43M21 45h49M20 46h49M19 47h49M18 48h49M18 49h48M17 50h2M21 50h44M16 51h1M20 51h44M19 52h43M19 53h41M63 53h1M22 54h10M37 54h1M41 54h17M61 54h2M21 55h5M41 55h2M46 55h10M59 55h3M20 56h7M40 56h1M46 56h7M57 56h4M20 57h1M23 57h5M46 57h1M48 57h1M50 57h1M54 57h6M22 58h7M48 58h1M52 58h6M21 59h10M50 59h5M21 60h1M24 60h1M26 60h7M47 60h1M49 60h5M57 60h1M25 61h1M28 61h7M49 61h6M59 61h2M29 62h2M48 62h8M61 62h1M48 63h10M62 63h1M47 64h13M63 64h1M40 65h1M47 65h15M63 65h1M41 66h1M46 66h16M45 67h16M46 68h13M48 69h9M47 70h6M46 71h7M45 72h8M45 73h7M44 74h8M43 75h9M42 76h10M41 77h10M39 78h12M37 79h14" />
<path stroke="#a4a431" d="M44 15h1M45 17h1M46 18h1M43 19h2M46 19h2M44 20h5M45 21h5M45 22h5M46 23h5M47 24h5M47 25h6M48 26h6M49 27h6M51 28h4M53 29h3M54 30h3M56 31h2M59 31h7M57 32h2M60 32h9M58 33h1M60 33h11M61 34h11M61 35h12M62 36h11M63 37h11M65 38h9M67 39h7M70 40h3M54 60h3M55 61h4M56 62h5M58 63h4M60 64h3M62 65h1" />
<path stroke="#313120" d="M44 26h3M44 27h1M47 27h2M45 28h1M49 28h2M27 29h1M35 29h4M45 29h2M51 29h2M36 30h1M39 30h3M46 30h1M53 30h1M28 31h1M36 31h2M42 31h3M47 31h1M54 31h2M28 32h1M37 32h2M45 32h2M48 32h1M56 32h1M28 33h1M38 33h2M47 33h3M57 33h1M28 34h1M39 34h2M49 34h2M58 34h1M28 35h2M40 35h2M59 35h1M29 36h1M41 36h2M29 37h1M42 37h2M29 38h1M40 38h5M29 39h2M38 39h2M44 39h2M30 40h1M39 40h3M46 40h1M22 41h2M30 41h1M41 41h2M24 42h3M30 42h1M43 42h2M72 42h1M22 43h1M25 43h1M30 43h1M21 44h1M24 44h4M71 44h1M20 45h1M70 45h1M19 46h1M69 46h1M15 47h1M68 47h1M16 48h1M67 48h1M15 49h3M32 54h5M63 54h1M26 55h6M56 55h1M62 55h1M27 56h1M53 56h1M61 56h1M28 57h2M49 57h1M60 57h1M16 58h1M29 58h2M49 58h1M58 58h1M31 59h2M48 59h1M20 60h1M33 60h2M19 61h1M35 61h1M47 61h1M32 62h3M31 63h1M25 64h1M30 64h1M41 64h1M23 65h2M29 65h1M28 66h1M62 66h1M61 67h1M45 68h1M59 68h1M46 69h2M57 69h1M46 70h1M44 73h1M52 73h1M40 77h1M51 77h1M38 78h1M36 79h1" />
<path stroke="#94395a" d="M53 76h1M53 77h2M52 78h2M55 78h1M52 79h2" />
<path stroke="#ee3910" d="M54 78h1M54 79h1" />
</svg>