<svg xmlns="http://www.w3.org/2000/svg" viewBox="0 -0.5 80 80" shape-rendering="crispEdges">
<metadata>Made with Pixels to Svg https://codepen.io/shshaw/pen/XbxvNj</metadata>
<path stroke="#eea473" d="M24 10h3M23 11h2M26 11h2M23 12h1M28 12h1M23 13h1M29 13h1M23 14h1M30 14h1M23 15h1M30 15h1M23 16h1M31 16h1M23 17h1M31 17h1M23 18h1M32 18h1M23 19h1M32 19h1M23 20h1M33 20h1M23 21h1M33 21h1M23 22h1M34 22h1M23 23h1M34 23h1M23 24h1M35 24h1M23 25h1M35 25h1M24 26h1M36 26h1M24 27h1M36 27h1M24 28h1M36 28h1M24 29h1M37 29h1M24 30h1M37 30h1M24 31h1M38 31h1M24 32h1M38 32h1M24 33h1M39 33h1M25 34h1M39 34h1M25 35h1M40 35h1M25 36h1M40 36h3M25 37h1M43 37h2M25 38h1M45 38h2M24 39h2M47 39h1M24 40h1M48 40h1M23 41h1M49 41h1M22 42h1M50 42h1M21 43h2M50 43h1M21 44h1M51 44h1M20 45h2M51 45h1M20 46h1M51 46h1M20 47h1M52 47h1M19 48h1M52 48h1M19 49h1M52 49h1M19 50h1M52 50h1M19 51h1M52 51h1M19 52h1M52 52h1M19 53h1M52 53h1M19 54h1M52 54h2M19 55h1M53 55h1M19 56h2M54 56h2M20 57h1M55 57h2M20 58h2M51 58h1M57 58h2M21 59h1M50 59h3M58 59h2M21 60h2M50 60h1M53 60h1M60 60h2M22 61h1M49 61h1M54 61h1M61 61h2M21 62h1M48 62h1M55 62h1M63 62h2M19 63h2M25 63h1M47 63h1M56 63h1M64 63h2M17 64h2M24 64h3M47 64h2M57 64h1M66 64h1M16 65h2M23 65h1M26 65h3M48 65h1M58 65h1M67 65h2M14 66h2M22 66h1M28 66h5M48 66h1M59 66h1M69 66h2M13 67h1M21 67h1M32 67h1M47 67h2M60 67h1M71 67h1M11 68h2M20 68h1M32 68h1M47 68h1M61 68h1M70 68h1M10 69h2M19 69h1M33 69h1M46 69h1M62 69h1M69 69h1M8 70h2M18 70h1M34 70h2M44 70h2M61 70h1M68 70h1M8 71h1M18 71h1M36 71h3M43 71h1M60 71h1M68 71h1M9 72h1M19 72h1M39 72h1M43 72h1M59 72h1M69 72h1M9 73h1M20 73h1M40 73h1M43 73h1M58 73h1M70 73h1" />
<path stroke="#f6bd8b" d="M25 11h1M24 12h4M24 13h1M27 13h2M24 14h1M28 14h2M24 15h1M29 15h1M24 16h1M29 16h2M24 17h1M30 17h1M24 18h1M30 18h2M24 19h1M31 19h1M24 20h1M31 20h2M24 21h2M32 21h1M24 22h2M32 22h2M24 23h2M33 23h1M24 24h2M33 24h2M24 25h2M33 25h2M25 26h1M34 26h2M25 27h1M34 27h2M25 28h2M35 28h1M25 29h2M35 29h2M25 30h2M35 30h2M25 31h2M36 31h2M25 32h2M36 32h2M25 33h2M37 33h2M26 34h1M37 34h2M26 35h2M37 35h3M26 36h2M38 36h2M26 37h2M38 37h5M26 38h2M41 38h4M26 39h2M43 39h4M25 40h3M45 40h3M24 41h3M46 41h3M23 42h3M47 42h3M23 43h2M48 43h2M22 44h2M48 44h3M22 45h2M49 45h2M21 46h2M49 46h2M21 47h2M50 47h2M20 48h2M50 48h2M20 49h2M50 49h2M20 50h2M50 50h2M20 51h2M50 51h2M20 52h2M50 52h2M20 53h2M50 53h2M20 54h2M50 54h2M20 55h2M50 55h3M21 56h2M50 56h4M21 57h2M49 57h6M22 58h2M49 58h2M52 58h5M22 59h2M48 59h2M53 59h5M23 60h2M47 60h3M54 60h6M23 61h3M46 61h3M55 61h2M59 61h2M22 62h5M45 62h3M56 62h2M60 62h3M21 63h4M26 63h3M44 63h3M57 63h2M62 63h2M19 64h5M27 64h4M45 64h2M58 64h2M63 64h3M18 65h2M22 65h1M29 65h6M45 65h3M59 65h2M65 65h2M16 66h2M21 66h1M33 66h2M45 66h3M60 66h2M66 66h3M14 67h3M19 67h2M33 67h3M44 67h3M61 67h3M68 67h3M13 68h2M18 68h2M33 68h4M42 68h5M62 68h2M68 68h2M12 69h1M17 69h2M34 69h12M63 69h1M67 69h2M10 70h3M16 70h2M36 70h8M62 70h6M9 71h9M39 71h4M61 71h7M10 72h9M40 72h3M60 72h2M66 72h3M10 73h2M18 73h2M41 73h2M59 73h2M68 73h2" />
<path stroke="#8b0031" d="M25 13h2M27 14h1M28 15h1M29 17h1M26 20h1M26 21h1M27 27h1M27 28h1M35 31h1M36 33h1M28 34h1M36 34h1M28 35h1M37 36h1M38 38h1M45 41h1M44 42h1M25 43h1M24 44h2M44 45h1M23 46h1M44 46h1M23 47h1M45 47h1M22 48h2M46 48h1M46 49h1M47 50h1M23 54h1M24 56h1M48 56h2M25 58h1M47 58h2M28 61h1M44 61h1M30 62h1M32 63h1M41 63h1M35 64h1M37 64h1M43 64h1M43 66h1M37 67h1M41 67h1" />
<path stroke="#101010" d="M25 14h1M25 15h1M25 16h1M25 17h1M25 18h1M25 19h1M25 20h1M26 22h1M26 23h1M26 24h1M26 25h1M26 26h1M26 27h1M27 29h1M27 30h1M27 31h1M27 32h1M27 33h1M27 34h1M28 36h1M28 37h1M28 38h1M28 39h1M28 40h1M27 41h1M26 42h1M44 43h1M44 44h1M24 45h1M24 46h1M45 48h1M47 48h1M22 49h1M22 50h1M22 51h1M48 51h2M22 52h1M49 52h1M22 53h1M49 53h1M22 54h1M49 54h1M22 55h2M49 55h1M23 56h1M23 57h2M48 57h1M24 58h1M24 59h2M47 59h1M25 60h2M46 60h1M26 61h2M45 61h1M27 62h3M43 62h2M29 63h3M42 63h2M31 64h4M36 64h1M44 64h1M35 65h1M44 65h1M35 66h1M44 66h1M36 67h1M42 67h2M37 68h5" />
<path stroke="#ff1052" d="M26 14h1M27 15h1M27 17h1M28 19h1M29 22h1M30 25h1M31 28h1M32 31h1M33 34h1M34 37h1M38 40h1M40 41h1M27 42h2M26 43h2M26 44h1M25 45h2M25 46h1M24 47h2M24 48h1M24 49h1" />
<path stroke="#c50041" d="M26 15h1M26 16h1M28 16h1M26 17h1M26 18h2M29 18h1M26 19h2M30 19h1M27 20h2M30 20h1M27 21h2M31 21h1M27 22h2M31 22h1M27 23h3M31 23h2M27 24h3M32 24h1M27 25h3M32 25h1M27 26h4M33 26h1M28 27h3M33 27h1M28 28h3M33 28h2M28 29h4M34 29h1M28 30h4M34 30h1M28 31h4M28 32h5M35 32h1M28 33h5M29 34h4M29 35h5M36 35h1M29 36h5M29 37h5M37 37h1M29 38h6M39 38h2M29 39h6M41 39h2M29 40h9M43 40h2M28 41h12M29 42h13M46 42h1M28 43h15M27 44h17M27 45h17M26 46h18M26 47h19M25 48h20M23 49h1M25 49h21M23 50h24M23 51h25M23 52h26M23 53h26M24 54h25M24 55h25M25 56h23M25 57h23M26 58h21M26 59h21M27 60h19M29 61h15M31 62h12M33 63h8M38 64h5M36 65h8M36 66h7M38 67h3" />
<path stroke="#ff739c" d="M27 16h1M28 17h1M28 18h1M29 19h1M29 20h1M29 21h2M30 22h1M30 23h1M30 24h2M31 25h1M31 26h2M31 27h2M32 28h1M32 29h2M32 30h2M33 31h2M33 32h2M33 33h3M34 34h2M34 35h2M34 36h3M35 37h2M35 38h3M35 39h6M39 40h4M41 41h4M42 42h2M43 43h1" />
<path stroke="#ffffff" d="M45 42h1M45 43h1M45 44h1M45 45h1M46 46h1M46 47h1M59 63h2M60 64h3M61 65h3M63 66h2M17 67h2M64 67h3M16 68h2M65 68h2M14 69h2M65 69h2M13 70h2M64 72h1M13 73h4M63 73h4" />
<path stroke="#0894c5" d="M46 43h2M46 44h2M47 45h2M48 46h1M48 47h2M49 48h1" />
<path stroke="#52d5ff" d="M46 45h1M47 46h1M48 48h1M49 49h1" />
<path stroke="#bdbdbd" d="M45 46h1M47 49h2M48 50h2" />
<path stroke="#4a4a52" d="M47 47h1" />
<path stroke="#ffdebd" d="M57 61h2M58 62h2M61 63h1M20 65h2M64 65h1M18 66h3M62 66h1M65 66h1M67 67h1M15 68h1M64 68h1M67 68h1M13 69h1M16 69h1M64 69h1M15 70h1M62 72h2M65 72h1M12 73h1M17 73h1M61 73h2M67 73h1" />
</svg>