<svg xmlns="http://www.w3.org/2000/svg" viewBox="0 -0.5 40 40" shape-rendering="crispEdges">
<metadata>Made with Pixels to Svg https://codepen.io/shshaw/pen/XbxvNj</metadata>
<path stroke="#383841" d="M5 5h6M29 5h6M5 6h8M17 6h6M27 6h8M5 7h2M11 7h2M14 7h12M27 7h2M33 7h2M5 8h2M12 8h5M23 8h5M33 8h2M5 9h5M12 9h3M25 9h3M30 9h5M6 10h5M13 10h2M25 10h2M29 10h5M5 11h2M10 11h1M13 11h2M25 11h2M29 11h1M33 11h2M4 12h2M10 12h1M13 12h2M25 12h2M29 12h1M34 12h2M4 13h2M9 13h1M13 13h1M26 13h1M30 13h1M34 13h2M5 14h2M9 14h1M12 14h2M26 14h2M30 14h1M33 14h2M6 15h4M12 15h2M26 15h2M30 15h4M7 16h2M12 16h1M27 16h1M31 16h2M7 17h2M11 17h2M27 17h2M31 17h2M6 18h2M11 18h1M28 18h1M32 18h2M6 19h2M10 19h2M28 19h2M32 19h2M5 20h3M10 20h2M28 20h2M32 20h3M5 21h1M7 21h1M10 21h1M29 21h1M32 21h1M34 21h1M4 22h2M7 22h1M10 22h1M29 22h1M32 22h1M34 22h2M4 23h2M7 23h1M10 23h1M13 23h3M24 23h3M29 23h1M32 23h1M34 23h2M4 24h2M7 24h1M10 24h1M12 24h1M16 24h2M22 24h2M27 24h1M29 24h1M32 24h1M34 24h2M4 25h2M7 25h1M10 25h1M12 25h1M17 25h2M21 25h2M27 25h1M29 25h1M32 25h1M34 25h2M4 26h2M8 26h1M11 26h2M18 26h4M27 26h2M31 26h1M34 26h2M5 27h1M8 27h1M12 27h2M18 27h1M21 27h1M26 27h2M31 27h1M34 27h1M5 28h2M9 28h1M12 28h2M18 28h1M21 28h1M26 28h2M30 28h1M33 28h2M6 29h1M10 29h4M16 29h3M21 29h3M26 29h4M33 29h1M6 30h2M13 30h4M18 30h4M23 30h4M32 30h2M7 31h3M14 31h2M19 31h2M24 31h2M30 31h3M8 32h7M18 32h4M25 32h7M11 33h5M17 33h2M21 33h2M24 33h5M15 34h3M22 34h3M16 35h2M22 35h2" />
<path stroke="#7e7e8f" d="M16 6h1M23 6h1M13 7h1M26 7h1M5 10h1M34 10h1M4 14h1M35 14h1M5 15h1M34 15h1M6 16h1M33 16h1M6 17h1M33 17h1M5 19h1M34 19h1M4 21h1M35 21h1M12 23h1M27 23h1M11 24h1M28 24h1M11 25h1M28 25h1M4 27h1M35 27h1M5 29h1M34 29h1M6 31h1M33 31h1M7 32h1M32 32h1M9 33h2M29 33h2M14 34h1M18 34h1M21 34h1M25 34h1" />
<path stroke="#e6492f" d="M7 7h4M29 7h4M7 8h5M28 8h5M10 9h2M28 9h2M11 10h2M27 10h2M11 11h2M27 11h2M11 12h2M18 12h4M27 12h2M10 13h3M17 13h6M27 13h3M10 14h2M16 14h3M21 14h3M28 14h2M10 15h2M16 15h2M22 15h2M28 15h2M9 16h3M28 16h3M9 17h2M29 17h2M8 18h3M29 18h3M8 19h2M30 19h2M8 20h2M30 20h2M8 21h2M30 21h2M9 22h1M30 22h1M13 24h3M24 24h3M13 25h4M23 25h4M15 26h3M22 26h3M19 27h2M15 32h3M22 32h3M16 33h1M23 33h1" />
<path stroke="#f7f7f7" d="M17 8h6M15 9h1M24 9h1M19 14h2M18 15h1M21 15h1M18 16h1M21 16h1" />
<path stroke="#efef52" d="M16 9h8M15 10h10M15 11h10M15 12h3M22 12h3M15 13h2M23 13h2M15 14h1M24 14h1M14 15h2M24 15h2M14 16h2M24 16h2M13 17h3M19 17h2M24 17h3M13 18h4M23 18h4M12 19h6M22 19h6M12 20h16M13 21h14M15 22h10M18 23h4" />
<path stroke="#9852c3" d="M7 11h1M32 11h1M6 12h1M33 12h1M7 14h2M31 14h2M6 24h1M33 24h1M6 25h1M33 25h1M6 26h2M32 26h2M6 27h2M32 27h2M7 28h2M31 28h2M7 29h3M30 29h3M8 30h5M27 30h5M10 31h4M26 31h4" />
<path stroke="#bb5bf7" d="M8 11h2M30 11h2M7 12h3M30 12h3M6 13h3M31 13h3M6 21h1M33 21h1M6 22h1M33 22h1M6 23h1M33 23h1" />
<path stroke="#bbbb52" d="M14 13h1M25 13h1M14 14h1M25 14h1M13 16h1M26 16h1M16 17h3M21 17h3M12 18h1M27 18h1M18 19h4M12 21h1M27 21h1M12 22h3M25 22h3M16 23h2M22 23h2M18 24h4M19 25h2" />
<path stroke="#8f8f0d" d="M19 15h2M16 16h2M19 16h2M22 16h2M17 18h6M11 21h1M28 21h1M11 22h1M28 22h1M11 23h1M28 23h1" />
<path stroke="#bb2f2f" d="M8 22h1M31 22h1M8 23h2M30 23h2M8 24h2M30 24h2M8 25h2M30 25h2M9 26h2M13 26h2M25 26h2M29 26h2M9 27h3M14 27h4M22 27h4M28 27h3M10 28h2M14 28h4M19 28h2M22 28h4M28 28h2M14 29h2M19 29h2M24 29h2M17 30h1M22 30h1M16 31h3M21 31h3" />
</svg>