<svg xmlns="http://www.w3.org/2000/svg" viewBox="0 -0.5 40 40" shape-rendering="crispEdges">
<metadata>Made with Pixels to Svg https://codepen.io/shshaw/pen/XbxvNj</metadata>
<path stroke="#383841" d="M13 5h4M23 5h4M12 6h6M22 6h6M12 7h2M16 7h3M21 7h3M26 7h2M10 8h4M17 8h2M21 8h2M26 8h4M9 9h5M17 9h2M21 9h2M26 9h5M9 10h2M14 10h12M29 10h2M7 11h4M14 11h12M29 11h4M6 12h5M14 12h2M19 12h2M24 12h2M29 12h5M6 13h2M11 13h5M18 13h4M24 13h5M32 13h2M6 14h2M11 14h4M17 14h2M21 14h2M25 14h4M32 14h2M6 15h3M11 15h1M16 15h2M22 15h2M28 15h1M31 15h3M7 16h5M15 16h2M23 16h2M28 16h5M8 17h4M14 17h2M24 17h2M28 17h4M10 18h2M13 18h2M25 18h2M28 18h2M10 19h4M26 19h4M10 20h3M27 20h3M11 21h1M28 21h1M11 22h2M27 22h2M12 23h2M26 23h2M12 24h3M25 24h3M12 25h4M24 25h4M12 26h2M15 26h10M26 26h2M10 27h4M17 27h6M26 27h4M9 28h5M18 28h4M26 28h5M8 29h2M12 29h3M18 29h4M25 29h3M30 29h2M7 30h2M13 30h3M17 30h2M21 30h2M24 30h3M31 30h2M7 31h3M14 31h2M17 31h2M21 31h2M24 31h2M30 31h3M8 32h3M13 32h5M22 32h5M29 32h3M9 33h9M22 33h9M10 34h4M26 34h4" />
<path stroke="#f7f7f7" d="M14 7h2M24 7h2M11 10h1M28 10h1M8 13h1M31 13h1M8 14h1M31 14h1" />
<path stroke="#d5d5c3" d="M14 8h3M23 8h3M14 9h3M23 9h3M12 10h1M27 10h1M11 11h1M28 11h1M17 12h2M21 12h2M9 13h2M17 13h1M22 13h1M29 13h2M9 14h2M16 14h1M23 14h1M29 14h2M9 15h2M15 15h1M24 15h1M29 15h2M12 16h3M25 16h3M12 17h2M26 17h2M12 18h1M27 18h1" />
<path stroke="#8f8fa0" d="M13 10h1M26 10h1M12 11h2M26 11h2M11 12h3M16 12h1M23 12h1M26 12h3M16 13h1M23 13h1M15 14h1M24 14h1M12 15h3M25 15h3" />
<path stroke="#bbbb52" d="M19 14h2M18 15h1M21 15h1M17 16h1M22 16h1M16 17h1M23 17h1M15 18h1M24 18h1M14 19h1M25 19h1M13 20h2M25 20h2M14 21h1M25 21h1M15 22h1M24 22h1M16 23h1M23 23h1M17 24h6" />
<path stroke="#efef52" d="M19 15h2M18 16h4M17 17h2M21 17h2M16 18h3M21 18h3M15 19h2M23 19h2M15 20h3M22 20h3M13 21h1M15 21h3M22 21h3M26 21h1M13 22h2M16 22h2M19 22h2M22 22h2M25 22h2M14 23h2M17 23h6M24 23h2M15 24h2M23 24h2M17 25h6" />
<path stroke="#8f8f0d" d="M19 17h2M19 18h2M17 19h6M18 20h4M18 21h4M18 22h1M21 22h1" />
<path stroke="#7e7e8f" d="M10 21h1M12 21h1M27 21h1M29 21h1M11 23h1M28 23h1M16 25h1M23 25h1M14 26h1M25 26h1M16 27h1M23 27h1" />
<path stroke="#7e7ecc" d="M14 27h2M24 27h2M14 28h4M22 28h4M10 29h2M15 29h3M22 29h3M28 29h2M9 30h4M16 30h1M23 30h1M27 30h4M10 31h4M16 31h1M23 31h1M26 31h4M11 32h2M27 32h2" />
</svg>