<svg xmlns="http://www.w3.org/2000/svg" viewBox="0 -0.5 40 40" shape-rendering="crispEdges">
<metadata>Made with Pixels to Svg https://codepen.io/shshaw/pen/XbxvNj</metadata>
<path stroke="#7e7e8f" d="M16 5h1M23 5h1M13 6h1M26 6h1M11 7h1M28 7h1M9 9h1M30 9h1M5 12h1M34 12h1M33 13h1M6 15h1M33 15h1M5 16h1M34 16h1M6 19h1M33 19h1M7 20h1M32 20h1M7 21h1M32 21h1M7 22h1M32 22h1M7 27h1M32 27h1M7 28h1M32 28h1M8 29h1M31 29h1M8 30h1M31 30h1M9 31h1M30 31h1M10 32h1M29 32h1M12 33h1M27 33h1M15 34h1M24 34h1" />
<path stroke="#383841" d="M17 5h6M14 6h12M12 7h4M24 7h4M10 8h3M27 8h3M5 9h4M10 9h2M28 9h2M31 9h4M5 10h7M28 10h7M5 11h2M9 11h3M28 11h3M33 11h2M6 12h2M9 12h3M28 12h2M32 12h2M6 13h3M10 13h2M28 13h2M31 13h2M7 14h2M10 14h2M28 14h2M31 14h2M7 15h1M10 15h2M28 15h2M32 15h1M6 16h1M10 16h2M28 16h2M33 16h1M5 17h2M10 17h2M28 17h2M33 17h2M5 18h4M10 18h2M28 18h2M31 18h4M7 19h5M28 19h5M8 20h4M28 20h4M8 21h4M28 21h4M8 22h2M11 22h2M27 22h2M30 22h2M7 23h2M11 23h2M27 23h2M31 23h2M7 24h2M11 24h2M27 24h2M31 24h2M7 25h2M12 25h2M26 25h2M31 25h2M7 26h2M12 26h3M25 26h3M31 26h2M8 27h2M13 27h3M24 27h3M30 27h2M8 28h2M14 28h3M23 28h3M30 28h2M9 29h2M15 29h4M21 29h4M29 29h2M9 30h3M17 30h6M28 30h3M10 31h4M19 31h2M26 31h4M11 32h6M23 32h6M13 33h14M16 34h8" />
<path stroke="#f7f7f7" d="M16 7h8M13 8h3M24 8h3M12 9h1M27 9h1M15 20h1M24 20h1M15 21h2M23 21h2M16 22h2M22 22h2M17 23h2M21 23h2M18 24h4M19 25h2" />
<path stroke="#efef52" d="M16 8h8M15 9h2M23 9h2M15 10h1M24 10h1M15 11h1M19 11h2M24 11h1M15 12h1M18 12h1M21 12h1M24 12h1M15 13h3M22 13h3M15 14h1M18 14h1M21 14h1M24 14h1M15 15h1M19 15h2M24 15h1M15 16h1M24 16h1M15 17h2M23 17h2M16 18h8M17 19h6M18 20h4M19 21h2M15 24h1M24 24h1M16 25h1M23 25h1M17 26h1M22 26h1M18 27h1M21 27h1" />
<path stroke="#bbbb52" d="M13 9h2M17 9h2M21 9h2M25 9h2M13 10h2M16 10h1M23 10h1M25 10h2M13 11h2M25 11h2M13 12h2M25 12h2M13 13h2M18 13h1M21 13h1M25 13h2M13 14h2M25 14h2M13 15h2M25 15h2M14 16h1M16 16h1M23 16h1M25 16h1M17 17h2M21 17h2M13 22h1M26 22h1M14 23h1M25 23h1M14 24h1M25 24h1M15 25h1M24 25h1M16 26h1M23 26h1M17 27h1M22 27h1M19 28h2" />
<path stroke="#8f8f0d" d="M19 9h2M12 10h1M17 10h6M27 10h1M12 11h1M16 11h3M21 11h3M27 11h1M12 12h1M16 12h2M19 12h2M22 12h2M27 12h1M12 13h1M19 13h2M27 13h1M12 14h1M16 14h2M19 14h2M22 14h2M27 14h1M16 15h3M21 15h3M17 16h6M19 17h2M12 21h1M27 21h1M13 23h1M26 23h1M13 24h1M26 24h1M14 25h1M25 25h1M15 26h1M24 26h1M16 27h1M23 27h1M17 28h2M21 28h2M19 29h2" />
<path stroke="#e6492f" d="M7 11h2M31 11h2M8 12h1M30 12h2M9 13h1M30 13h1M9 14h1M30 14h1M8 15h2M30 15h2M7 16h3M30 16h3M9 17h1M30 17h1M15 18h1M24 18h1M15 19h2M23 19h2M16 20h2M22 20h2M17 21h2M21 21h2M15 22h1M18 22h4M24 22h1M15 23h2M19 23h2M23 23h2M16 24h2M22 24h2M17 25h2M21 25h2M18 26h4M11 27h1M19 27h2M28 27h1M10 28h3M27 28h3M11 29h3M26 29h3M12 30h3M25 30h3M14 31h3M23 31h3M17 32h6" />
<path stroke="#bb2f2f" d="M12 15h1M27 15h1M12 16h2M26 16h2M7 17h2M13 17h2M25 17h2M31 17h2M9 18h1M14 18h1M25 18h1M30 18h1M12 19h1M27 19h1M12 20h2M26 20h2M13 21h2M25 21h2M10 22h1M14 22h1M25 22h1M29 22h1M9 23h2M29 23h2M9 24h2M29 24h2M9 25h3M28 25h3M9 26h3M28 26h3M10 27h1M12 27h1M27 27h1M29 27h1M13 28h1M26 28h1M14 29h1M25 29h1M15 30h2M23 30h2M17 31h2M21 31h2" />
<path stroke="#d5d5dd" d="M12 17h1M27 17h1M12 18h2M26 18h2M13 19h2M25 19h2M14 20h1M25 20h1" />
</svg>