<svg xmlns="http://www.w3.org/2000/svg" viewBox="0 -0.5 40 40" shape-rendering="crispEdges">
<metadata>Made with Pixels to Svg https://codepen.io/shshaw/pen/XbxvNj</metadata>
<path stroke="#7e7e8f" d="M14 6h1M12 7h1M19 7h2M27 7h1M11 8h1M28 8h1M10 10h1M29 10h1M10 15h1M29 15h1M11 17h1M28 17h1M12 19h1M27 19h1M19 28h2M18 29h1M21 29h1M18 31h1M21 31h1M16 32h1M23 32h1" />
<path stroke="#383841" d="M15 6h3M22 6h4M13 7h6M21 7h6M12 8h2M18 8h4M26 8h2M11 9h2M19 9h2M27 9h2M11 10h1M28 10h1M10 11h2M28 11h2M10 12h2M28 12h2M10 13h2M28 13h2M10 14h2M28 14h2M11 15h2M27 15h2M11 16h2M27 16h2M12 17h2M26 17h2M12 18h3M25 18h3M13 19h3M24 19h3M13 20h4M23 20h4M13 21h5M22 21h5M13 22h2M16 22h3M21 22h3M25 22h2M13 23h2M17 23h6M25 23h2M13 24h2M18 24h4M25 24h2M13 25h2M19 25h2M25 25h2M13 26h2M25 26h2M13 27h2M25 27h2M13 28h2M25 28h2M13 29h2M19 29h2M25 29h2M13 30h2M16 30h8M25 30h2M13 31h5M22 31h5M13 32h3M24 32h3M13 33h2M25 33h2" />
<path stroke="#e6492f" d="M14 8h4M22 8h4M13 9h6M21 9h6M12 10h3M18 10h4M25 10h3M12 11h2M19 11h2M26 11h2M12 12h2M26 12h2M12 13h2M26 13h2M13 14h2M25 14h2M13 15h2M25 15h2M14 16h2M24 16h2M15 17h2M23 17h2M16 18h2M22 18h2M17 19h2M21 19h2M18 20h4M19 21h2M15 24h1M24 24h1M15 25h2M23 25h2M15 26h2M23 26h2M15 27h2M23 27h2M15 28h2M23 28h2M15 29h2M23 29h2M15 30h1M24 30h1" />
<path stroke="#f7f7f7" d="M15 10h3M22 10h3M14 11h1M18 11h1M21 11h1M25 11h1M17 25h1M22 25h1M17 26h2M21 26h2M17 27h6M17 28h2M21 28h2M17 29h1M22 29h1" />
<path stroke="#efef52" d="M15 11h3M22 11h3M15 12h10M15 13h10M16 14h8M16 15h8M17 16h6M18 17h4M19 18h2" />
<path stroke="#bbbb52" d="M14 12h1M25 12h1M14 13h1M25 13h1M15 14h1M24 14h1M15 15h1M24 15h1M16 16h1M23 16h1M17 17h1M22 17h1M18 18h1M21 18h1M19 19h2" />
<path stroke="#bb2f2f" d="M12 14h1M27 14h1M13 16h1M26 16h1M14 17h1M25 17h1M15 18h1M24 18h1M16 19h1M23 19h1M17 20h1M22 20h1M18 21h1M21 21h1M15 22h1M19 22h2M24 22h1M15 23h2M23 23h2M16 24h1M23 24h1" />
<path stroke="#d5d5dd" d="M17 24h1M22 24h1M18 25h1M21 25h1M19 26h2" />
</svg>