<svg xmlns="http://www.w3.org/2000/svg" viewBox="0 -0.5 32 32" shape-rendering="crispEdges">
<metadata>Made with Pixels to Svg https://codepen.io/shshaw/pen/XbxvNj</metadata>
<path stroke="#ffffff" d="M12 6h8M10 7h3M19 7h3M9 8h2M21 8h2M8 9h2M22 9h2M7 10h2M23 10h2M7 11h1M11 11h2M24 11h1M6 12h2M11 12h2M24 12h2M6 13h1M25 13h1M6 14h1M25 14h1M6 15h1M25 15h1M6 16h1M25 16h1M6 17h1M25 17h1M6 18h1M13 18h1M25 18h1M6 19h2M12 19h3M25 19h1M7 20h1M10 20h1M13 20h1M24 20h2M7 21h2M11 21h1M24 21h1M8 22h2M23 22h2M9 23h2M21 23h3M10 24h3M19 24h3M12 25h8" />
<path stroke="#202020" d="M13 7h6M11 8h2M19 8h2M10 9h1M21 9h1M9 10h1M22 10h1M8 11h1M23 11h1M8 12h1M23 12h1M7 13h1M24 13h1M7 14h1M24 14h1M7 15h1M24 15h1M7 16h1M24 16h1M7 17h1M24 17h1M7 18h1M24 18h1M8 19h1M24 19h1M8 20h1M23 20h1M9 21h1M23 21h1M10 22h1M21 22h2M11 23h2M19 23h2M13 24h6" />
<path stroke="#ffb483" d="M13 8h1M17 8h1M12 9h1M15 9h1M11 10h2M10 11h1M13 11h1M10 12h1M11 13h1" />
<path stroke="#f6cd39" d="M14 8h3M13 9h2M13 10h3M14 11h3M13 12h3M21 12h1M8 13h1M12 13h3M20 13h1M8 14h1M12 14h2M8 15h1M19 15h1M19 16h1" />
<path stroke="#ee8b41" d="M18 8h1M11 9h1M16 9h4M10 10h1M16 10h5M9 11h1M17 11h4M9 12h1M16 12h5M9 13h2M15 13h5M9 14h3M14 14h6M9 15h10M9 16h10M10 17h2M15 17h2" />
<path stroke="#cd6a29" d="M20 9h1M21 10h1M21 11h2M9 17h1M17 17h2M16 18h3" />
<path stroke="#d5ac31" d="M22 12h1M21 13h3M20 14h4M20 15h4M8 16h1M20 16h3M19 17h3M22 19h1M21 20h2M20 21h2" />
<path stroke="#948341" d="M23 16h1M22 17h1M19 18h1M23 19h1M22 21h1M20 22h1" />
<path stroke="#4a5252" d="M8 17h1M12 17h3M23 17h1M8 18h4M15 18h1M20 18h4M10 19h2M15 19h7M15 20h5" />
<path stroke="#a4a4c5" d="M12 18h1M14 18h1M12 20h1M14 20h1M11 22h1M19 22h1M13 23h6" />
<path stroke="#7b7b83" d="M9 19h1M11 20h1M20 20h1M12 21h3" />
<path stroke="#decdf6" d="M9 20h1M10 21h1M15 21h5M12 22h7" />
</svg>