<svg xmlns="http://www.w3.org/2000/svg" viewBox="0 -0.5 32 32" shape-rendering="crispEdges">
<metadata>Made with Pixels to Svg https://codepen.io/shshaw/pen/XbxvNj</metadata>
<path stroke="#ffffff" d="M12 6h8M10 7h3M19 7h3M9 8h2M21 8h2M8 9h2M22 9h2M7 10h2M23 10h2M7 11h1M11 11h2M24 11h1M6 12h2M11 12h2M24 12h2M6 13h1M25 13h1M6 14h1M25 14h1M6 15h1M25 15h1M6 16h1M25 16h1M6 17h1M25 17h1M6 18h1M13 18h1M25 18h1M6 19h2M12 19h3M24 19h2M7 20h1M10 20h1M13 20h1M24 20h1M7 21h2M11 21h1M23 21h2M8 22h2M22 22h2M9 23h2M21 23h2M10 24h3M19 24h3M12 25h8" />
<path stroke="#202020" d="M13 7h6M11 8h2M19 8h2M10 9h1M21 9h1M9 10h1M22 10h1M8 11h1M23 11h1M8 12h1M23 12h1M7 13h1M24 13h1M7 14h1M24 14h1M7 15h1M24 15h1M7 16h1M24 16h1M7 17h1M24 17h1M7 18h1M24 18h1M8 19h1M23 19h1M8 20h1M23 20h1M9 21h1M22 21h1M10 22h1M21 22h1M11 23h2M19 23h2M13 24h6" />
<path stroke="#de5a39" d="M13 8h1M12 9h1M19 9h2M18 10h1M21 10h1M21 11h2M21 12h2M21 13h3M20 14h4M10 15h1M20 15h4M17 16h1M19 16h4M19 17h3" />
<path stroke="#decd39" d="M14 8h1M18 9h1M13 10h1M17 10h1M18 12h1M18 13h1M11 14h1M18 14h1M11 15h1M17 15h1M10 16h1M16 16h1M17 17h1M16 18h2" />
<path stroke="#a4a4c5" d="M15 8h2M14 9h2M15 11h1M16 12h1M16 13h1M13 14h3M12 16h3M11 17h1M15 17h1M12 18h1M14 18h1M12 20h1M14 20h1M22 20h1M21 21h1M11 22h1M19 22h2M13 23h6" />
<path stroke="#7b7b83" d="M17 8h1M16 9h1M14 11h1M14 12h2M13 13h3M9 19h1M22 19h1M11 20h1M20 20h1M12 21h3" />
<path stroke="#b4a439" d="M18 8h1M18 17h1M18 18h1" />
<path stroke="#ff9439" d="M11 9h1M10 10h1M19 10h2M9 11h1M18 11h3M9 12h1M19 12h2M8 13h3M19 13h2M8 14h3M19 14h1M8 15h2M18 15h2M9 16h1M18 16h1" />
<path stroke="#f6ee39" d="M13 9h1M17 9h1M14 10h3M16 11h2M17 12h1M17 13h1M12 14h1M16 14h2M12 15h5M11 16h1M15 16h1M10 17h1M16 17h1" />
<path stroke="#ffd539" d="M11 10h1M10 11h1M10 12h1" />
<path stroke="#f6f68b" d="M12 10h1M11 13h1" />
<path stroke="#decdf6" d="M13 11h1M13 12h1M12 13h1M9 20h1M21 20h1M10 21h1M15 21h6M12 22h7" />
<path stroke="#9c4a39" d="M8 16h1M23 16h1M9 17h1M22 17h1M19 18h1" />
<path stroke="#4a5252" d="M8 17h1M12 17h3M23 17h1M8 18h4M15 18h1M20 18h4M10 19h2M15 19h7M15 20h5" />
</svg>