<svg xmlns="http://www.w3.org/2000/svg" viewBox="0 -0.5 32 32" shape-rendering="crispEdges">
<metadata>Made with Pixels to Svg https://codepen.io/shshaw/pen/XbxvNj</metadata>
<path stroke="#ffffff" d="M14 6h5M13 7h2M18 7h2M12 8h2M19 8h2M12 9h1M20 9h1M11 10h2M20 10h2M11 11h1M21 11h1M10 12h2M21 12h2M9 13h2M22 13h2M9 14h1M23 14h1M8 15h2M23 15h2M8 16h1M24 16h1M8 17h1M24 17h1M8 18h1M24 18h1M8 19h1M24 19h1M8 20h2M23 20h2M9 21h2M22 21h2M10 22h2M21 22h2M11 23h2M20 23h2M12 24h3M18 24h3M14 25h5" />
<path stroke="#202020" d="M15 7h3M14 8h1M18 8h1M13 9h1M19 9h1M13 10h1M19 10h1M12 11h1M20 11h1M12 12h1M20 12h1M11 13h1M21 13h1M10 14h1M22 14h1M10 15h1M22 15h1M9 16h1M23 16h1M9 17h1M23 17h1M9 18h1M23 18h1M9 19h1M23 19h1M10 20h1M22 20h1M11 21h1M21 21h1M12 22h1M20 22h1M13 23h2M18 23h2M15 24h3" />
<path stroke="#9cf6f6" d="M15 8h3M15 9h3M14 10h5M14 11h5M13 12h7M13 13h1M16 13h1M19 13h1M12 14h1M20 14h1M11 15h2M20 15h2M11 16h1M21 16h1M10 17h2M14 17h1M18 17h1M21 17h2M10 18h2M16 18h1M21 18h2M11 19h1M15 19h1M17 19h1M21 19h1M11 20h2M20 20h2M13 21h1M19 21h1M13 22h7M15 23h3" />
<path stroke="#8bdede" d="M14 9h1M18 9h1M13 11h1M19 11h1M14 13h2M17 13h2M11 14h1M13 14h1M16 14h1M19 14h1M21 14h1M13 15h1M16 15h1M19 15h1M10 16h1M12 16h1M20 16h1M22 16h1M12 17h1M20 17h1M12 18h1M20 18h1M10 19h1M12 19h1M20 19h1M22 19h1M13 20h1M19 20h1M14 21h5" />
<path stroke="#5aaca4" d="M12 13h1M20 13h1M12 21h1M20 21h1" />
<path stroke="#ff3139" d="M14 14h2M17 14h2M14 15h2M17 15h2M13 16h7M13 17h1M15 17h3M19 17h1M13 18h3M17 18h3M13 19h2M16 19h1M18 19h2M14 20h5" />
</svg>