<svg xmlns="http://www.w3.org/2000/svg" viewBox="0 -0.5 80 80" shape-rendering="crispEdges">
<metadata>Made with Pixels to Svg https://codepen.io/shshaw/pen/XbxvNj</metadata>
<path stroke="#000000" d="M40 25h1M42 25h2M38 26h2M41 26h1M44 26h1M37 27h1M39 27h3M44 27h1M37 28h1M40 28h1M42 28h1M44 28h1M37 29h1M42 29h1M45 29h1M35 30h2M43 30h1M46 30h2M34 31h1M44 31h1M48 31h1M33 32h1M45 32h1M49 32h1M32 33h1M46 33h1M50 33h1M32 34h1M41 34h3M47 34h1M51 34h1M27 35h2M31 35h1M39 35h2M44 35h1M47 35h1M51 35h1M26 36h1M29 36h10M44 36h1M48 36h1M52 36h1M26 37h1M44 37h1M48 37h1M52 37h1M26 38h1M35 38h2M44 38h1M48 38h1M52 38h2M34 39h3M45 39h1M48 39h1M51 39h1M54 39h1M25 40h1M34 40h2M45 40h1M48 40h1M51 40h1M54 40h1M25 41h1M37 41h1M40 41h2M47 41h1M50 41h1M55 41h1M27 42h1M31 42h2M36 42h1M39 42h1M42 42h1M46 42h2M49 42h1M55 42h1M24 43h1M26 43h1M28 43h1M31 43h2M36 43h1M38 43h3M43 43h1M46 43h5M55 43h1M24 44h1M26 44h1M40 44h1M43 44h1M46 44h1M49 44h2M52 44h1M55 44h1M24 45h1M26 45h1M29 45h1M37 45h1M40 45h1M43 45h1M46 45h1M52 45h1M54 45h1M56 45h1M25 46h1M28 46h2M37 46h1M39 46h3M46 46h1M52 46h1M54 46h1M56 46h1M25 47h1M29 47h1M49 47h1M51 47h1M53 47h1M56 47h1M26 48h1M30 48h1M34 48h1M41 48h3M45 48h1M49 48h4M54 48h2M25 49h1M27 49h2M37 49h2M40 49h1M42 49h1M44 49h1M49 49h2M25 50h1M28 50h3M34 50h3M40 50h2M43 50h1M47 50h1M49 50h1M24 51h1M29 51h4M37 51h2M41 51h2M46 51h3M24 52h1M31 52h2M39 52h2M46 52h3M25 53h2M29 53h2M33 53h6M41 53h1M48 53h1M26 54h3M41 54h1M47 54h1M40 55h1M42 55h1M44 55h1M47 55h1M41 56h6" />
<path stroke="#60f858" d="M40 26h1M43 26h1M38 27h1M42 27h2M38 28h2M41 28h1M43 28h1M39 29h3M43 29h2M40 30h3M44 30h2M39 31h1M41 31h3M45 31h3M38 32h1M40 32h5M46 32h3M33 33h1M39 33h1M41 33h5M47 33h3M33 34h2M38 34h1M40 34h1M44 34h3M48 34h3M32 35h7M43 35h1M45 35h2M48 35h3M27 36h2M42 36h2M45 36h3M49 36h3M28 37h10M41 37h3M45 37h3M49 37h3M29 38h6M37 38h7M45 38h3M49 38h3M26 39h1M31 39h3M37 39h8M46 39h2M49 39h2M52 39h2M28 40h1M30 40h4M36 40h9M46 40h2M49 40h2M52 40h2M27 41h1M29 41h8M38 41h2M42 41h5M48 41h2M51 41h4M25 42h2M28 42h3M33 42h3M37 42h2M43 42h3M48 42h1M50 42h5M29 43h2M33 43h3M37 43h1M44 43h2M51 43h4M29 44h9M44 44h2M47 44h2M51 44h1M53 44h2M25 45h1M30 45h7M44 45h2M47 45h5M53 45h1M55 45h1M26 46h2M30 46h7M42 46h4M47 46h5M53 46h1M55 46h1M26 47h3M30 47h19M50 47h1M52 47h1M54 47h2M27 48h3M31 48h3M35 48h6M44 48h1M46 48h3M26 49h1M29 49h1M32 49h5M43 49h1M45 49h4M26 50h2M31 50h3M42 50h1M44 50h3M48 50h1M25 51h4M39 51h2M43 51h3M26 52h5M33 52h6M41 52h5M28 53h1M42 53h6M42 54h5M45 55h1" />
<path stroke="#f8f8f8" d="M42 26h1M38 29h1M37 30h3M35 31h4M40 31h1M34 32h4M39 32h1M34 33h5M40 33h1M35 34h3M39 34h1M41 35h2M39 36h3M27 37h1M38 37h3M27 38h2M27 39h4M26 40h2M29 40h1M26 41h1M28 41h1M40 42h2M25 43h1M27 43h1M41 43h2M25 44h1M27 44h1M38 44h1M41 44h2M27 45h1M38 45h1M41 45h2M30 49h2M39 49h1M25 52h1M27 53h1M41 55h1M43 55h1M46 55h1" />
<path stroke="#f85030" d="M28 44h1M39 44h1M28 45h1M39 45h1M38 46h1M41 49h1M37 50h3M33 51h4" />
</svg>