<svg xmlns="http://www.w3.org/2000/svg" viewBox="0 -0.5 80 80" shape-rendering="crispEdges">
<metadata>Made with Pixels to Svg https://codepen.io/shshaw/pen/XbxvNj</metadata>
<path stroke="#f840a8" d="M41 23h1M47 23h1M38 24h1M50 24h1M36 25h1M34 26h1M54 26h1M32 27h1M34 27h1M30 28h1M32 28h1M55 28h1M28 29h1M31 29h1M39 29h1M46 29h1M54 29h1M25 30h1M30 30h2M38 30h1M45 30h1M30 31h1M53 31h1M61 31h3M24 32h2M29 32h1M22 33h5M29 33h1M60 33h1M63 33h2M23 34h2M27 34h1M60 34h5M25 35h2M40 35h2M53 35h1M59 35h1M63 35h2M24 36h3M58 36h1M61 36h2M29 37h1M31 37h1M58 37h5M52 38h1M55 38h1M59 38h3M54 39h1M56 39h1M58 39h1M35 40h1M55 40h1M57 40h1M59 40h1M56 41h1M58 41h1M38 42h1M55 42h1M57 42h1M59 42h1M36 43h1M41 43h1M54 43h2M58 43h1M60 43h1M57 44h1M59 44h1M34 45h1M54 45h1M56 45h1M58 45h1M60 45h1M44 46h1M55 46h1M57 46h1M59 46h1M61 46h1M65 46h1M33 47h1M56 47h1M58 47h1M60 47h1M55 48h1M57 48h1M59 48h1M61 48h1M32 49h1M54 49h1M56 49h1M58 49h1M60 49h1M64 49h1M33 50h1M43 50h3M55 50h1M57 50h1M59 50h1M61 50h1M63 50h1M65 50h1M34 51h1M36 51h1M38 51h1M40 51h1M42 51h4M54 51h1M56 51h1M58 51h1M60 51h1M64 51h1M33 52h1M35 52h1M37 52h1M39 52h1M41 52h5M53 52h1M55 52h1M57 52h1M59 52h1M61 52h1M63 52h1M32 53h1M34 53h1M36 53h1M38 53h1M40 53h7M54 53h1M56 53h1M58 53h1M60 53h1M62 53h3M35 54h1M37 54h1M39 54h6M53 54h1M55 54h1M57 54h1M59 54h1M62 54h2M34 55h12M52 55h1M54 55h1M56 55h1M58 55h1M61 55h2M36 56h8M51 56h1M53 56h1M55 56h1M57 56h1M59 56h1M61 56h1M37 57h5M43 57h1M52 57h1M54 57h1M56 57h1M58 57h1M60 57h1M41 58h1M49 58h1M51 58h1M53 58h1M55 58h1M57 58h1M48 59h1M50 59h1M52 59h1M54 59h1M56 59h1M30 60h1M45 60h1M47 60h1M49 60h1M51 60h1M53 60h2M31 61h2M38 61h1M40 61h1M42 61h1M44 61h1M46 61h1M48 61h1M50 61h1M52 61h1M29 62h1M33 62h2M38 62h2M41 62h1M43 62h1M45 62h1M47 62h3M53 62h2M32 63h3M49 63h3M28 64h4M56 64h3M53 65h6" />
<path stroke="#000000" d="M42 23h5M39 24h2M48 24h2M37 25h1M51 25h2M35 26h1M53 26h1M33 27h1M39 27h1M46 27h1M54 27h2M31 28h1M38 28h2M45 28h2M56 28h2M29 29h1M38 29h1M45 29h1M58 29h3M26 30h2M55 30h2M61 30h3M22 31h3M57 31h3M64 31h1M21 32h1M39 32h1M43 32h1M54 32h1M60 32h5M21 33h1M27 33h2M40 33h3M55 33h2M65 33h1M21 34h2M25 34h2M28 34h1M35 34h2M57 34h3M65 34h1M22 35h3M27 35h2M33 35h2M37 35h1M60 35h3M65 35h1M23 36h1M27 36h1M32 36h1M37 36h1M54 36h1M63 36h2M24 37h4M36 37h1M55 37h2M63 37h1M26 38h1M36 38h1M57 38h2M62 38h1M26 39h1M35 39h1M53 39h1M59 39h3M25 40h1M54 40h1M60 40h1M25 41h1M55 41h1M60 41h1M25 42h1M39 42h2M49 42h1M56 42h1M61 42h1M25 43h1M37 43h1M42 43h1M50 43h2M56 43h1M61 43h1M24 44h1M35 44h1M43 44h1M52 44h4M61 44h1M24 45h1M44 45h1M61 45h1M24 46h1M34 46h1M62 46h1M66 46h1M24 47h1M45 47h1M62 47h1M64 47h1M67 47h1M24 48h1M33 48h1M45 48h1M62 48h2M67 48h1M24 49h1M33 49h1M43 49h4M62 49h1M67 49h1M24 50h1M32 50h1M34 50h9M46 50h1M62 50h1M66 50h1M25 51h1M32 51h1M46 51h1M62 51h1M66 51h1M25 52h1M32 52h1M46 52h1M62 52h1M65 52h1M25 53h1M61 53h1M65 53h1M26 54h1M33 54h1M45 54h1M61 54h1M64 54h1M26 55h1M33 55h1M60 55h1M63 55h1M27 56h1M34 56h1M44 56h1M60 56h1M62 56h1M28 57h1M35 57h2M42 57h1M59 57h1M61 57h1M29 58h1M37 58h4M58 58h3M30 59h1M57 59h2M31 60h2M55 60h2M29 61h2M33 61h2M53 61h3M28 62h1M35 62h3M50 62h3M55 62h2M27 63h1M35 63h2M38 63h11M57 63h2M27 64h1M32 64h3M49 64h2M59 64h1M28 65h4M51 65h2M59 65h1M53 66h6" />
<path stroke="#f8f8f8" d="M41 24h5M40 25h7M41 26h4M35 27h1M38 27h1M45 27h1M34 28h1M36 28h1M33 29h1M35 29h1M32 30h1M34 30h1M36 30h1M31 31h1M33 31h1M35 31h1M30 32h1M32 32h1M34 32h1M31 33h1M33 33h1M30 34h1M32 34h1M29 35h1M31 35h1M35 35h1M28 36h1M30 36h1M33 36h2M32 37h2M28 38h1M30 38h1M32 38h1M27 39h1M29 39h1M28 40h1M38 43h3M36 44h7M35 45h7M43 45h1M35 46h6M42 46h1M34 47h8M43 47h1M34 48h7M42 48h1M44 48h1M34 49h6M41 49h1" />
<path stroke="#d898b8" d="M46 24h2M38 25h2M47 25h4M36 26h5M45 26h8M36 27h2M40 27h5M47 27h7M33 28h1M35 28h1M37 28h1M40 28h5M47 28h8M30 29h1M32 29h1M34 29h1M36 29h2M40 29h5M47 29h7M55 29h3M28 30h2M33 30h1M35 30h1M37 30h1M39 30h6M46 30h9M57 30h4M25 31h5M32 31h1M34 31h1M36 31h17M54 31h3M60 31h1M22 32h2M26 32h3M31 32h1M33 32h1M35 32h4M40 32h3M44 32h10M55 32h5M30 33h1M32 33h1M34 33h6M43 33h12M57 33h3M61 33h2M29 34h1M31 34h1M33 34h2M37 34h20M30 35h1M32 35h1M36 35h1M38 35h2M42 35h11M54 35h5M29 36h1M31 36h1M35 36h2M38 36h16M55 36h3M59 36h2M28 37h1M30 37h1M34 37h2M37 37h18M57 37h1M27 38h1M29 38h1M31 38h1M33 38h3M37 38h15M53 38h2M56 38h1M28 39h1M30 39h5M36 39h17M55 39h1M57 39h1M26 40h2M29 40h6M36 40h18M56 40h1M58 40h1M26 41h29M57 41h1M59 41h1M26 42h12M41 42h8M50 42h5M58 42h1M60 42h1M26 43h10M43 43h7M52 43h2M57 43h1M59 43h1M25 44h10M44 44h8M56 44h1M58 44h1M60 44h1M25 45h9M42 45h1M45 45h9M55 45h1M57 45h1M59 45h1M25 46h9M41 46h1M43 46h1M45 46h10M56 46h1M58 46h1M60 46h1M25 47h8M42 47h1M44 47h1M46 47h10M57 47h1M59 47h1M61 47h1M65 47h2M25 48h8M41 48h1M43 48h1M46 48h9M56 48h1M58 48h1M60 48h1M64 48h3M25 49h7M40 49h1M42 49h1M47 49h7M55 49h1M57 49h1M59 49h1M61 49h1M63 49h1M65 49h2M25 50h7M47 50h8M56 50h1M58 50h1M60 50h1M64 50h1M26 51h6M33 51h1M35 51h1M37 51h1M39 51h1M41 51h1M47 51h7M55 51h1M57 51h1M59 51h1M61 51h1M63 51h1M65 51h1M26 52h6M34 52h1M36 52h1M38 52h1M40 52h1M47 52h6M54 52h1M56 52h1M58 52h1M60 52h1M64 52h1M26 53h6M33 53h1M35 53h1M37 53h1M39 53h1M47 53h7M55 53h1M57 53h1M59 53h1M27 54h6M34 54h1M36 54h1M38 54h1M46 54h7M54 54h1M56 54h1M58 54h1M60 54h1M27 55h6M46 55h6M53 55h1M55 55h1M57 55h1M59 55h1M28 56h6M35 56h1M45 56h6M52 56h1M54 56h1M56 56h1M58 56h1M29 57h6M44 57h8M53 57h1M55 57h1M57 57h1M30 58h7M42 58h7M50 58h1M52 58h1M54 58h1M56 58h1M31 59h17M49 59h1M51 59h1M53 59h1M55 59h1M33 60h12M46 60h1M48 60h1M50 60h1M52 60h1M35 61h3M39 61h1M41 61h1M43 61h1M45 61h1M47 61h1M49 61h1M51 61h1M30 62h3M40 62h1M42 62h1M44 62h1M46 62h1M28 63h4M52 63h5M51 64h5" />
</svg>