<svg xmlns="http://www.w3.org/2000/svg" viewBox="0 -0.5 80 80" shape-rendering="crispEdges">
<metadata>Made with Pixels to Svg https://codepen.io/shshaw/pen/XbxvNj</metadata>
<path stroke="#000000" d="M30 21h1M29 22h3M29 23h1M31 23h1M28 24h1M31 24h1M33 24h1M35 24h2M28 25h1M32 25h1M34 25h1M37 25h3M41 25h2M27 26h1M34 26h1M39 26h2M43 26h1M27 27h1M34 27h1M38 27h2M43 27h1M26 28h1M33 28h1M36 28h3M43 28h1M26 29h1M33 29h1M36 29h2M42 29h1M44 29h1M25 30h2M31 30h6M42 30h1M45 30h1M25 31h1M29 31h2M33 31h3M42 31h1M46 31h1M24 32h2M27 32h9M42 32h1M46 32h4M52 32h3M24 33h6M33 33h2M42 33h1M46 33h1M48 33h1M50 33h1M52 33h1M54 33h3M23 34h6M34 34h1M43 34h1M45 34h1M47 34h1M49 34h1M51 34h1M53 34h1M55 34h1M57 34h2M23 35h1M25 35h3M42 35h1M45 35h2M48 35h1M50 35h7M58 35h2M25 36h2M31 36h2M41 36h1M45 36h5M56 36h2M59 36h2M22 37h1M25 37h2M30 37h3M41 37h1M44 37h1M58 37h1M60 37h2M22 38h1M25 38h1M29 38h1M31 38h2M38 38h3M44 38h1M59 38h3M23 39h3M29 39h3M37 39h1M44 39h1M62 39h1M23 40h1M25 40h1M29 40h1M37 40h1M43 40h2M53 40h1M63 40h1M23 41h1M37 41h1M43 41h1M53 41h1M63 41h1M24 42h1M36 42h1M42 42h1M44 42h1M53 42h1M61 42h1M64 42h1M24 43h2M36 43h1M43 43h1M54 43h1M61 43h1M64 43h1M24 44h1M27 44h2M35 44h1M40 44h3M54 44h1M61 44h1M65 44h1M25 45h2M33 45h2M38 45h2M47 45h1M55 45h1M62 45h1M65 45h1M27 46h6M37 46h1M46 46h1M55 46h2M62 46h1M65 46h1M36 47h1M38 47h1M43 47h7M53 47h2M56 47h1M62 47h1M65 47h1M36 48h1M39 48h4M45 48h9M57 48h1M62 48h1M66 48h1M28 49h2M32 49h2M37 49h3M47 49h7M57 49h1M62 49h1M66 49h1M29 50h3M34 50h3M39 50h1M47 50h4M53 50h1M57 50h1M62 50h1M66 50h1M28 51h1M37 51h2M48 51h2M54 51h1M57 51h1M62 51h1M66 51h1M27 52h1M35 52h2M42 52h1M44 52h1M49 52h1M54 52h1M57 52h1M61 52h1M66 52h1M24 53h3M33 53h2M42 53h1M45 53h2M49 53h1M54 53h1M57 53h1M61 53h1M65 53h1M32 54h1M42 54h1M47 54h2M53 54h1M56 54h1M61 54h1M65 54h1M22 55h1M30 55h2M43 55h1M47 55h1M52 55h1M56 55h1M60 55h1M64 55h1M22 56h1M24 56h1M27 56h3M43 56h1M47 56h1M52 56h1M55 56h1M60 56h1M64 56h1M23 57h4M44 57h1M48 57h1M51 57h1M55 57h1M60 57h1M63 57h1M45 58h1M49 58h2M54 58h2M57 58h1M59 58h1M62 58h1M51 59h3M56 59h3M60 59h2M58 60h2M40 61h2M55 61h3M38 62h2M50 62h5M37 63h1M48 63h2M36 64h1M43 64h5M35 65h1M40 65h3M36 66h4" />
<path stroke="#4858f8" d="M28 23h1M27 25h1M31 25h1M43 25h1M30 26h1M26 27h1M30 27h1M33 27h1M37 27h1M29 28h1M32 28h1M42 28h1M25 29h1M29 29h1M31 29h1M35 29h1M41 29h1M28 30h1M41 30h1M24 31h1M28 31h1M31 31h2M36 31h1M40 31h1M43 31h3M39 32h1M32 33h1M35 33h1M41 33h1M47 33h1M49 33h1M51 33h1M53 33h1M40 34h2M46 34h1M48 34h1M50 34h1M52 34h1M54 34h1M56 34h1M24 35h1M39 35h1M47 35h1M49 35h1M57 35h1M23 36h2M27 36h1M30 36h1M38 36h1M42 36h3M58 36h1M23 37h2M29 37h1M59 37h1M23 38h2M26 38h1M36 38h1M35 39h2M53 39h1M60 39h2M35 40h2M61 40h2M35 41h2M38 41h2M61 41h2M34 42h2M40 42h2M62 42h2M32 43h4M44 43h1M52 43h2M62 43h2M30 44h5M43 44h4M50 44h4M62 44h3M27 45h6M42 45h5M48 45h7M63 45h2M25 46h1M34 46h1M40 46h6M47 46h8M63 46h2M26 47h1M31 47h1M35 47h1M39 47h4M50 47h3M63 47h2M27 48h2M31 48h1M37 48h2M63 48h3M63 49h3M32 50h2M37 50h2M51 50h2M63 50h3M30 51h7M50 51h4M63 51h3M30 52h5M43 52h1M50 52h4M62 52h4M29 53h4M50 53h4M62 53h3M23 54h1M28 54h4M43 54h1M49 54h4M62 54h3M23 55h1M26 55h4M48 55h4M61 55h3M23 56h1M25 56h2M44 56h1M48 56h4M61 56h3M45 57h1M49 57h2M59 57h1M61 57h2M56 58h1M58 58h1M60 58h2M44 59h3M50 59h1M54 59h2M59 59h1M42 60h2M52 60h6M51 61h4M47 62h3M45 63h3M41 64h2M38 65h2" />
<path stroke="#f8f8f8" d="M30 23h1M29 24h2M29 25h2M33 25h1M28 26h2M31 26h3M41 26h2M28 27h2M31 27h2M40 27h3M27 28h2M30 28h2M39 28h3M27 29h2M30 29h1M32 29h1M38 29h3M43 29h1M27 30h1M29 30h2M37 30h4M26 31h2M37 31h3M41 31h1M26 32h1M36 32h3M40 32h2M43 32h3M36 33h5M43 33h3M35 34h5M42 34h1M35 35h4M40 35h2M35 36h3M39 36h2M36 37h5M42 37h2M30 38h1M37 38h1M42 38h2M24 40h1M40 40h3M24 41h3M40 41h3M25 42h2M40 43h2M26 46h1M33 46h1M27 47h4M32 47h3M29 48h2M32 48h4M30 49h2M34 49h2" />
<path stroke="#80b0f8" d="M35 25h2M35 26h4M35 27h2M34 28h2M34 29h1M43 30h2M30 33h2M29 34h5M44 34h1M28 35h7M43 35h2M28 36h2M33 36h2M50 36h6M27 37h2M33 37h3M45 37h13M27 38h2M33 38h3M41 38h1M45 38h14M26 39h3M32 39h3M38 39h6M45 39h8M54 39h6M26 40h3M30 40h5M38 40h2M45 40h8M54 40h7M27 41h8M44 41h9M54 41h7M27 42h7M37 42h3M43 42h1M45 42h8M54 42h7M26 43h6M37 43h3M42 43h1M45 43h7M55 43h6M25 44h2M29 44h1M36 44h4M47 44h3M55 44h6M35 45h3M40 45h2M56 45h6M35 46h2M38 46h2M57 46h5M37 47h1M57 47h5M58 48h4M36 49h1M58 49h4M58 50h4M29 51h1M58 51h4M28 52h2M58 52h3M27 53h2M43 53h2M58 53h3M24 54h4M44 54h3M57 54h4M24 55h2M44 55h3M57 55h3M45 56h2M56 56h4M46 57h2M56 57h3M46 58h3M47 59h3M44 60h8M42 61h9M40 62h7M38 63h7M37 64h4M36 65h2" />
</svg>