<svg xmlns="http://www.w3.org/2000/svg" viewBox="0 -0.5 80 80" shape-rendering="crispEdges">
<metadata>Made with Pixels to Svg https://codepen.io/shshaw/pen/XbxvNj</metadata>
<path stroke="#f84818" d="M32 22h1M32 23h2M37 23h1M25 24h1M33 24h1M37 24h1M25 25h2M31 25h1M33 25h1M36 25h1M25 26h1M31 26h1M33 26h1M36 26h2M39 26h1M25 27h1M27 27h1M31 27h1M33 27h1M35 27h1M37 27h1M39 27h1M25 28h1M27 28h1M33 28h1M35 28h1M37 28h3M22 29h1M27 29h2M30 29h1M34 29h1M36 29h4M23 30h1M25 30h1M27 30h2M30 30h1M33 30h2M36 30h3M48 30h1M24 31h2M28 31h1M30 31h1M32 31h1M34 31h1M36 31h3M48 31h1M65 31h1M22 32h1M24 32h2M28 32h3M33 32h6M47 32h2M64 32h1M22 33h1M25 33h1M28 33h3M32 33h7M47 33h2M50 33h1M63 33h1M22 34h1M25 34h1M28 34h3M33 34h5M47 34h3M62 34h1M23 35h1M29 35h2M32 35h6M44 35h1M46 35h4M51 35h1M61 35h3M23 36h1M29 36h3M33 36h5M44 36h1M46 36h3M60 36h3M23 37h1M29 37h2M32 37h6M44 37h1M46 37h3M51 37h2M60 37h3M65 37h2M24 38h1M30 38h2M33 38h4M38 38h1M44 38h5M50 38h3M57 38h1M61 38h1M63 38h1M66 38h1M24 39h1M30 39h1M32 39h5M40 39h1M44 39h9M56 39h1M65 39h1M24 40h1M31 40h1M33 40h3M41 40h1M44 40h8M55 40h1M62 40h1M64 40h3M25 41h1M30 41h1M32 41h4M42 41h1M44 41h8M54 41h2M60 41h2M63 41h1M65 41h1M23 42h1M25 42h1M29 42h1M31 42h5M39 42h1M43 42h8M54 42h1M56 42h1M58 42h7M25 43h1M30 43h1M32 43h3M37 43h2M44 43h21M26 44h1M30 44h3M36 44h2M45 44h4M52 44h1M54 44h1M56 44h8M26 45h1M30 45h2M55 45h1M57 45h1M59 45h4M26 46h1M29 46h2M56 46h1M58 46h1M60 46h5M29 47h2M38 47h1M59 47h1M61 47h5M29 48h1M58 48h1M60 48h8M27 49h1M29 49h1M36 49h1M41 49h1M56 49h2M60 49h4M28 50h1M35 50h1M58 50h2M63 50h2M25 51h1M35 51h1M43 51h1M61 51h1M65 51h1M33 52h1M35 52h1M63 52h4M33 53h1M39 53h1M49 53h1M62 53h2M25 54h1M37 54h1M45 54h1M32 55h1M36 55h1M48 55h1M55 55h1M27 56h1M30 56h1M46 56h1M52 56h1M54 56h1M56 56h1M38 57h1M41 57h1M48 57h1M53 57h1M55 57h1M41 58h1M54 58h1M56 58h1M41 59h1M55 59h1M61 59h1M54 61h1M58 61h2M26 62h1M56 64h1M58 64h1M42 65h1M44 65h1" />
<path stroke="#f8e020" d="M32 24h1M32 25h1M37 25h1M39 25h1M26 26h1M32 26h1M26 27h1M32 27h1M36 27h1M38 27h1M26 28h1M31 28h2M36 28h1M26 29h1M31 29h3M35 29h1M22 30h1M26 30h1M31 30h2M35 30h1M39 30h1M22 31h2M26 31h2M31 31h1M33 31h1M35 31h1M47 31h1M23 32h1M26 32h2M31 32h2M23 33h2M26 33h2M31 33h1M46 33h1M64 33h1M23 34h1M26 34h2M31 34h2M38 34h1M46 34h1M50 34h1M63 34h1M25 35h4M31 35h1M50 35h1M60 35h1M26 36h3M32 36h1M45 36h1M49 36h3M59 36h1M24 37h1M26 37h3M31 37h1M45 37h1M49 37h2M58 37h2M26 38h4M32 38h1M49 38h1M58 38h3M64 38h2M27 39h3M31 39h1M57 39h8M27 40h4M32 40h1M56 40h6M63 40h1M27 41h3M31 41h1M56 41h4M62 41h1M64 41h1M28 42h1M30 42h1M40 42h1M55 42h1M57 42h1M28 43h2M31 43h1M39 43h2M27 44h3M38 44h3M44 44h1M27 45h3M38 45h2M45 45h1M63 45h1M27 46h2M47 46h1M49 46h1M51 46h1M27 47h2M39 47h2M48 47h1M50 47h1M66 47h1M27 48h2M37 48h4M28 49h1M37 49h4M58 49h2M37 50h6M60 50h3M37 51h6M62 51h3M36 52h8M50 52h1M36 53h3M40 53h5M50 53h2M64 53h1M35 54h2M39 54h6M49 54h4M33 55h3M37 55h9M49 55h4M31 56h5M38 56h8M47 56h5M26 57h1M31 57h4M39 57h2M42 57h1M44 57h4M49 57h3M26 58h1M31 58h3M40 58h1M44 58h4M49 58h4M26 59h2M30 59h2M45 59h3M51 59h3M26 60h3M45 60h3M53 60h3M25 61h4M45 61h2M60 61h1M25 62h1M27 62h1M44 62h3M57 62h4M42 63h5M56 63h5M44 64h2M45 65h1" />
<path stroke="#f8f8f8" d="M24 34h1M24 35h1M24 36h2M25 37h1M25 38h1M62 38h1M25 39h2M25 40h2M26 41h1M26 42h2M26 43h2M34 52h1M28 57h3M43 57h1M28 58h3M42 58h2M25 59h1M29 59h1M42 59h3M25 60h1M42 60h3M42 61h3M42 62h2M41 64h3M57 64h1M59 64h1M41 65h1M43 65h1" />
<path stroke="#000000" d="M37 38h1M37 39h3M36 40h5M23 41h2M36 41h6M22 42h1M24 42h1M36 42h3M41 42h2M22 43h3M35 43h2M41 43h3M24 44h2M33 44h3M41 44h3M49 44h3M53 44h1M55 44h1M25 45h1M32 45h6M40 45h5M46 45h9M56 45h1M58 45h1M25 46h1M31 46h16M48 46h1M50 46h1M52 46h4M57 46h1M59 46h1M24 47h3M31 47h7M41 47h7M49 47h1M51 47h8M60 47h1M24 48h3M30 48h7M41 48h17M59 48h1M24 49h3M30 49h6M42 49h14M24 50h4M29 50h6M36 50h1M43 50h15M24 51h1M26 51h9M36 51h1M44 51h17M25 52h8M44 52h6M51 52h12M25 53h8M34 53h2M45 53h4M52 53h10M26 54h9M38 54h1M46 54h3M53 54h10M26 55h6M46 55h2M53 55h2M56 55h7M26 56h1M28 56h2M36 56h2M53 56h1M55 56h1M57 56h6M25 57h1M27 57h1M35 57h3M52 57h1M54 57h1M56 57h7M25 58h1M27 58h1M34 58h2M38 58h2M48 58h1M53 58h1M55 58h1M57 58h5M24 59h1M28 59h1M32 59h2M40 59h1M48 59h3M54 59h1M56 59h5M24 60h1M29 60h3M41 60h1M48 60h1M51 60h2M56 60h5M24 61h1M29 61h1M41 61h1M47 61h2M53 61h1M55 61h3M61 61h1M24 62h1M28 62h1M41 62h1M47 62h1M56 62h1M61 62h1M25 63h3M41 63h1M47 63h1M55 63h1M61 63h1M40 64h1M46 64h1M55 64h1M60 64h1M40 65h1M46 65h1M56 65h4M41 66h5" />
</svg>