<svg xmlns="http://www.w3.org/2000/svg" viewBox="0 -0.5 80 80" shape-rendering="crispEdges">
<metadata>Made with Pixels to Svg https://codepen.io/shshaw/pen/XbxvNj</metadata>
<path stroke="#000000" d="M46 29h3M45 30h1M50 30h1M44 31h1M51 31h1M44 32h1M51 32h1M44 33h1M51 33h1M44 34h1M51 34h2M45 35h1M50 35h4M46 36h4M52 36h3M35 37h3M43 37h3M53 37h3M33 38h2M38 38h2M41 38h1M46 38h2M53 38h1M30 39h1M32 39h1M40 39h1M48 39h1M56 39h1M27 40h2M31 40h1M49 40h1M55 40h3M26 41h1M32 41h1M49 41h1M54 41h4M35 42h3M51 42h1M54 42h1M57 42h2M25 43h2M29 43h3M33 43h1M38 43h2M52 43h2M58 43h1M25 44h1M27 44h3M32 44h1M40 44h1M53 44h2M58 44h1M24 45h1M26 45h3M36 45h2M41 45h2M53 45h3M58 45h1M26 46h3M31 46h1M35 46h1M38 46h1M41 46h4M54 46h3M58 46h1M23 47h1M27 47h1M31 47h1M39 47h1M41 47h1M44 47h2M55 47h3M22 48h1M28 48h1M30 48h1M32 48h1M39 48h2M43 48h1M46 48h1M55 48h3M22 49h1M29 49h2M33 49h1M38 49h3M43 49h1M46 49h2M55 49h3M23 50h1M34 50h4M40 50h2M45 50h1M47 50h2M55 50h2M29 51h1M31 51h1M40 51h3M45 51h4M54 51h3M24 52h1M29 52h3M41 52h2M45 52h3M55 52h1M25 53h2M29 53h1M37 53h1M41 53h4M56 53h1M24 54h1M27 54h3M36 54h2M40 54h1M56 54h1M24 55h1M40 55h1M56 55h1M30 56h1M39 56h1M50 56h1M55 56h1M25 57h1M30 57h1M37 57h2M50 57h1M55 57h1M26 58h2M31 58h1M35 58h2M50 58h1M53 58h3M25 59h1M28 59h2M32 59h3M37 59h1M49 59h3M54 59h2M25 60h1M28 60h2M37 60h1M49 60h2M54 60h2M24 61h1M27 61h4M38 61h1M48 61h1M51 61h1M54 61h1M24 62h1M26 62h4M31 62h2M37 62h4M45 62h3M52 62h2M25 63h3M33 63h4M39 63h1M41 63h4M39 64h1M42 64h3M40 65h1M42 65h2M41 66h2" />
<path stroke="#502898" d="M49 29h1M48 32h1M46 33h3M52 33h1M47 34h2M53 34h1M54 35h1M51 36h1M55 36h1M42 37h1M52 37h1M56 38h1M29 39h1M39 39h1M53 39h1M57 39h1M40 40h1M54 40h1M50 41h1M25 42h1M34 42h1M48 42h1M26 44h1M41 44h1M55 44h1M31 45h1M43 45h1M52 45h1M56 45h1M23 46h1M42 47h2M58 47h1M27 48h1M31 48h1M41 48h2M28 49h1M31 49h2M41 49h2M29 50h5M38 50h2M42 50h1M46 50h1M23 51h1M32 51h8M32 52h9M53 52h1M30 53h6M38 53h3M30 54h6M38 54h2M29 55h11M49 55h1M24 56h1M31 56h8M31 57h6M32 58h3M26 59h2M52 59h2M26 60h2M51 60h3M25 61h2M52 61h2M25 62h1M28 63h1M40 63h1M45 63h1M40 64h2M41 65h1M44 65h1" />
<path stroke="#c0a038" d="M46 30h4M45 31h1M48 31h3M45 32h1M49 32h2M45 33h1M49 33h2M45 34h2M49 34h2M46 35h4M45 38h1M54 38h2M38 39h1M46 39h2M54 39h2M30 40h1M32 40h2M37 40h3M46 40h3M30 41h2M33 41h9M45 41h4M26 42h1M29 42h5M38 42h10M49 42h2M55 42h2M27 43h2M32 43h1M36 43h2M40 43h12M54 43h4M30 44h1M35 44h5M42 44h11M56 44h2M34 45h2M38 45h3M44 45h8M57 45h1M34 46h1M36 46h2M39 46h2M45 46h9M57 46h1M32 47h7M40 47h1M46 47h9M33 48h6M47 48h8M26 49h2M34 49h4M48 49h7M24 50h5M49 50h6M24 51h5M49 51h5M25 52h4M48 52h5M54 52h1M27 53h2M45 53h11M25 54h2M41 54h15M25 55h4M41 55h8M50 55h6M25 56h5M40 56h10M51 56h4M26 57h4M39 57h11M51 57h4M28 58h3M37 58h13M51 58h2M30 59h2M35 59h2M38 59h11M30 60h7M38 60h11M31 61h7M39 61h9M33 62h4M41 62h4" />
<path stroke="#f8f8f8" d="M46 31h2M46 32h2M35 38h3M42 38h3M33 39h5M41 39h5M29 40h1M34 40h3M41 40h5M27 41h3M42 41h3M27 42h2M34 43h2M31 44h1M33 44h2M25 45h1M29 45h2M32 45h2M24 46h2M29 46h2M32 46h2M24 47h3M28 47h3M23 48h4M29 48h1M44 48h2M23 49h3M44 49h2M43 50h2M30 51h1M43 51h2M43 52h2M36 53h1" />
</svg>