<svg xmlns="http://www.w3.org/2000/svg" viewBox="0 -0.5 80 80" shape-rendering="crispEdges">
<metadata>Made with Pixels to Svg https://codepen.io/shshaw/pen/XbxvNj</metadata>
<path stroke="#38a030" d="M34 13h2M40 13h1M39 14h1M42 14h1M41 15h1M31 16h1M44 16h1M45 18h1M34 19h2M43 19h1M46 21h1M35 23h1M39 23h3M31 24h1M40 24h1M43 24h3M32 25h1M39 25h1M45 25h3M30 26h1M46 26h4M38 27h1M47 27h4M29 28h1M35 28h1M37 28h2M47 28h5M61 28h1M21 29h1M28 29h1M30 29h1M32 29h1M34 29h1M36 29h1M38 29h2M47 29h6M60 29h1M20 30h1M27 30h2M31 30h1M35 30h5M47 30h7M27 31h14M46 31h8M58 31h1M25 32h4M35 32h7M45 32h10M57 32h1M26 33h1M38 33h17M18 34h1M40 34h6M49 34h7M42 35h3M50 35h6M51 36h6M26 37h1M51 37h5M51 38h4M57 38h1M25 39h1M27 39h1M50 39h4M55 39h2M58 39h1M24 40h1M26 40h3M49 40h2M54 40h2M57 40h1M59 40h1M25 41h5M46 41h3M53 41h4M58 41h1M25 42h7M44 42h5M52 42h6M26 43h8M43 43h14M28 44h8M41 44h15M57 44h1M30 45h24M56 45h2M18 46h1M31 46h2M34 46h14M51 46h8M17 47h1M32 47h1M34 47h3M40 47h7M52 47h7M27 48h1M33 48h2M42 48h5M52 48h7M22 49h1M30 49h1M33 49h1M44 49h3M52 49h2M57 49h2M21 50h4M27 50h1M30 50h2M45 50h3M51 50h1M58 50h2M20 51h3M28 51h3M32 51h1M37 51h2M46 51h1M50 51h3M58 51h2M15 52h1M20 52h3M28 52h3M36 52h5M48 52h1M50 52h3M58 52h2M14 53h1M19 53h4M28 53h3M36 53h6M49 53h5M57 53h3M19 54h5M27 54h4M35 54h2M39 54h3M49 54h6M56 54h4M19 55h7M27 55h4M35 55h2M40 55h2M49 55h7M57 55h3M18 56h8M27 56h5M35 56h2M48 56h8M57 56h3M19 57h7M27 57h5M36 57h2M48 57h8M57 57h3M20 58h2M25 58h5M31 58h2M36 58h2M49 58h7M57 58h2M26 59h1M28 59h1M30 59h4M37 59h2M49 59h8M58 59h1M26 60h1M30 60h5M38 60h3M50 60h1M54 60h3M26 61h1M31 61h5M39 61h5M55 61h2M26 62h1M33 62h5M42 62h5M55 62h2M25 63h1M36 63h4M48 63h2M55 63h1M46 64h4M55 64h1" />
<path stroke="#000000" d="M36 13h4M33 14h2M40 14h2M32 15h2M42 15h2M32 16h1M35 16h2M42 16h2M31 17h2M36 17h2M43 17h2M31 18h2M36 18h2M43 18h2M32 19h2M36 19h1M44 19h2M33 20h3M44 20h2M44 21h2M38 22h4M44 22h3M36 23h2M42 23h5M32 24h3M41 24h2M46 24h2M29 25h3M40 25h1M44 25h1M48 25h2M28 26h1M39 26h1M41 26h3M45 26h1M50 26h1M27 27h1M29 27h1M39 27h6M46 27h1M51 27h1M27 28h2M39 28h2M43 28h2M46 28h1M52 28h1M62 28h1M22 29h1M24 29h2M27 29h1M40 29h1M43 29h2M46 29h1M53 29h1M63 29h1M23 30h1M26 30h1M29 30h1M33 30h1M40 30h5M46 30h1M54 30h1M60 30h1M64 30h1M20 31h1M26 31h1M41 31h3M45 31h1M54 31h1M59 31h1M64 31h1M20 32h1M29 32h6M42 32h3M55 32h1M65 32h1M19 33h1M25 33h1M27 33h2M35 33h3M55 33h1M57 33h1M65 33h1M25 34h2M38 34h2M46 34h3M56 34h1M58 34h1M66 34h1M18 35h1M25 35h1M40 35h2M45 35h1M49 35h1M56 35h2M66 35h1M19 36h2M26 36h1M42 36h3M50 36h1M57 36h1M65 36h1M21 37h1M44 37h1M50 37h1M56 37h1M63 37h2M22 38h1M27 38h1M44 38h1M50 38h1M55 38h1M62 38h1M22 39h1M28 39h1M45 39h1M49 39h1M54 39h1M61 39h1M23 40h1M29 40h1M46 40h3M51 40h3M60 40h1M24 41h1M30 41h1M44 41h2M49 41h2M59 41h1M24 42h1M32 42h1M43 42h1M58 42h1M25 43h1M34 43h2M41 43h2M57 43h2M26 44h2M36 44h5M56 44h1M58 44h1M28 45h2M54 45h2M58 45h1M19 46h2M30 46h1M33 46h1M48 46h3M59 46h1M21 47h1M31 47h1M33 47h1M47 47h1M51 47h1M59 47h1M17 48h1M21 48h2M28 48h3M32 48h1M47 48h1M51 48h1M59 48h1M17 49h1M21 49h1M23 49h1M26 49h1M31 49h2M47 49h1M51 49h1M54 49h3M59 49h1M18 50h3M25 50h2M32 50h1M48 50h3M52 50h2M57 50h1M60 50h1M18 51h1M23 51h1M27 51h1M31 51h1M47 51h2M53 51h1M57 51h1M60 51h1M16 52h3M23 52h1M27 52h1M31 52h1M45 52h3M53 52h1M57 52h1M60 52h1M18 53h1M23 53h1M27 53h1M31 53h1M44 53h1M48 53h1M54 53h3M60 53h1M14 54h1M18 54h1M24 54h3M31 54h1M44 54h1M48 54h1M55 54h1M60 54h1M14 55h1M18 55h1M26 55h1M31 55h1M44 55h1M48 55h1M56 55h1M60 55h1M15 56h3M26 56h1M32 56h1M45 56h3M56 56h1M60 56h1M18 57h1M26 57h1M32 57h1M47 57h1M56 57h1M60 57h1M19 58h1M30 58h1M33 58h1M48 58h1M56 58h1M59 58h1M20 59h1M27 59h1M29 59h1M34 59h1M48 59h1M57 59h1M59 59h1M20 60h1M27 60h3M35 60h1M49 60h1M57 60h2M21 61h1M27 61h2M30 61h1M36 61h2M49 61h1M57 61h1M21 62h1M27 62h1M31 62h2M38 62h1M49 62h1M57 62h1M22 63h1M26 63h1M33 63h3M40 63h4M45 63h3M50 63h1M56 63h1M23 64h3M36 64h4M44 64h2M50 64h1M56 64h1M46 65h6M55 65h1M52 66h3" />
<path stroke="#c8f820" d="M38 23h1M35 24h5M33 25h6M31 26h8M30 27h8M30 28h5M36 28h1M29 29h1M31 29h1M33 29h1M35 29h1M37 29h1M22 30h1M24 30h2M30 30h1M32 30h1M34 30h1M61 30h3M21 31h5M60 31h4M21 32h4M59 32h6M20 33h5M58 33h7M20 34h5M59 34h7M19 35h6M37 35h3M48 35h1M58 35h8M21 36h5M34 36h1M36 36h1M38 36h4M45 36h1M48 36h2M58 36h7M22 37h4M33 37h1M35 37h1M37 37h7M45 37h5M57 37h6M23 38h4M28 38h1M30 38h1M32 38h1M34 38h1M36 38h8M45 38h5M56 38h1M58 38h4M23 39h2M26 39h1M29 39h1M31 39h1M33 39h12M46 39h3M57 39h1M59 39h2M25 40h1M30 40h16M56 40h1M58 40h1M31 41h13M51 41h2M57 41h1M33 42h10M49 42h3M36 43h5M20 47h1M37 47h3M50 47h1M20 48h1M35 48h7M50 48h1M18 49h3M27 49h3M34 49h10M48 49h3M28 50h2M33 50h12M56 50h1M19 51h1M26 51h1M33 51h4M39 51h7M49 51h1M56 51h1M19 52h1M26 52h1M32 52h4M41 52h4M49 52h1M54 52h3M17 53h1M24 53h3M32 53h4M42 53h2M47 53h1M17 54h1M32 54h3M37 54h2M42 54h2M47 54h1M15 55h3M32 55h3M37 55h3M42 55h2M45 55h3M33 56h2M37 56h8M33 57h3M38 57h9M22 58h3M34 58h2M38 58h10M21 59h5M35 59h2M39 59h9M21 60h5M36 60h2M41 60h8M51 60h3M22 61h4M38 61h1M44 61h5M50 61h5M22 62h4M39 62h3M47 62h2M50 62h5M23 63h2M44 63h1M51 63h4M51 64h4M52 65h3" />
<path stroke="#f8f8f8" d="M41 25h3M29 26h1M40 26h1M44 26h1M28 27h1M45 27h1M41 28h2M45 28h1M41 29h2M45 29h1M61 29h2M21 30h1M45 30h1M44 31h1M58 32h1M29 33h6M19 34h1M27 34h11M26 35h11M46 35h2M27 36h7M35 36h1M37 36h1M46 36h2M27 37h6M34 37h1M36 37h1M29 38h1M31 38h1M33 38h1M35 38h1M30 39h1M32 39h1M18 47h2M48 47h2M18 48h2M48 48h2M54 50h2M24 51h2M54 51h2M24 52h2M15 53h2M45 53h2M15 54h2M45 54h2" />
</svg>