<svg xmlns="http://www.w3.org/2000/svg" viewBox="0 -0.5 80 80" shape-rendering="crispEdges">
<metadata>Made with Pixels to Svg https://codepen.io/shshaw/pen/XbxvNj</metadata>
<path stroke="#000000" d="M64 23h2M63 24h1M65 24h2M44 25h3M62 25h1M65 25h2M42 26h2M45 26h2M61 26h1M65 26h2M41 27h1M44 27h3M59 27h2M64 27h2M23 28h1M40 28h1M43 28h4M58 28h2M63 28h3M22 29h3M39 29h1M44 29h2M57 29h1M64 29h1M21 30h1M23 30h3M38 30h1M45 30h1M56 30h1M61 30h1M64 30h1M21 31h1M23 31h3M38 31h1M41 31h2M45 31h1M56 31h1M60 31h2M63 31h1M21 32h1M23 32h4M37 32h1M40 32h3M44 32h1M51 32h3M55 32h1M58 32h5M21 33h1M24 33h1M27 33h1M37 33h1M40 33h5M49 33h2M54 33h7M21 34h1M27 34h1M37 34h1M39 34h5M48 34h1M56 34h3M22 35h1M26 35h3M36 35h1M39 35h5M47 35h1M55 35h3M22 36h1M25 36h4M36 36h1M38 36h5M47 36h1M53 36h5M23 37h1M26 37h4M33 37h4M38 37h4M46 37h1M52 37h7M23 38h2M27 38h3M31 38h10M46 38h1M48 38h1M50 38h1M52 38h8M24 39h1M27 39h5M35 39h8M45 39h1M47 39h1M49 39h1M51 39h9M25 40h2M28 40h3M32 40h3M36 40h8M45 40h2M48 40h1M50 40h10M27 41h3M31 41h1M34 41h1M36 41h3M40 41h6M47 41h1M49 41h12M28 42h1M31 42h3M35 42h3M41 42h4M46 42h1M48 42h13M34 43h4M41 43h18M60 43h2M28 44h2M32 44h6M39 44h1M41 44h17M60 44h2M28 45h2M35 45h3M39 45h1M41 45h15M59 45h3M28 46h1M30 46h1M36 46h2M40 46h14M55 46h2M59 46h3M30 47h1M36 47h18M56 47h1M60 47h2M29 48h1M31 48h1M36 48h18M56 48h3M61 48h1M30 49h2M35 49h5M41 49h12M55 49h5M61 49h1M32 50h7M41 50h1M43 50h10M55 50h6M34 51h4M42 51h1M44 51h8M54 51h1M58 51h3M36 52h2M43 52h1M45 52h7M54 52h1M59 52h2M35 53h4M44 53h7M54 53h1M57 53h1M59 53h2M35 54h7M43 54h1M45 54h6M55 54h1M57 54h1M59 54h1M34 55h2M38 55h5M44 55h1M46 55h4M56 55h3M33 56h2M36 56h2M39 56h1M42 56h1M45 56h5M30 57h5M36 57h3M42 57h1M46 57h1M48 57h1M29 58h1M33 58h3M37 58h1M42 58h1M48 58h1M28 59h1M34 59h3M47 59h2M28 60h1M31 60h1M34 60h3M41 60h1M46 60h3M29 61h2M34 61h2M41 61h1M46 61h2M31 62h3M40 62h1M45 62h1M47 62h1M40 63h1M44 63h4M39 64h1M44 64h3M39 65h1M41 65h1M45 65h2M39 66h1M41 66h1M43 66h1M45 66h1M40 67h5" />
<path stroke="#303828" d="M66 23h1M64 24h1M63 25h2M44 26h1M62 26h3M42 27h2M62 27h2M66 27h1M22 28h1M58 29h3M65 29h1M22 30h1M39 30h3M57 30h4M22 31h1M39 31h2M57 31h3M22 32h1M38 32h2M56 32h2M22 33h2M38 33h2M51 33h3M61 33h1M22 34h2M38 34h1M49 34h7M59 34h1M37 35h2M48 35h7M37 36h1M48 36h5M25 37h1M37 37h1M47 37h5M25 38h2M47 38h1M49 38h1M51 38h1M25 39h2M46 39h1M48 39h1M50 39h1M27 40h1M47 40h1M49 40h1M32 41h2M46 41h1M48 41h1M29 42h1M45 42h1M47 42h1M29 43h2M30 44h2M30 45h5M56 45h2M31 46h5M57 46h1M31 47h5M57 47h1M32 48h4M32 49h2M40 49h1M53 49h1M39 50h2M42 50h1M38 51h4M43 51h1M55 51h3M38 52h5M44 52h1M57 52h2M39 53h5M55 53h2M58 53h1M42 54h1M44 54h1M56 54h1M58 54h1M43 55h1M45 55h1M43 56h2M43 57h3M49 57h1M30 58h3M43 58h3M30 59h4M42 59h3M29 60h1M33 60h1M42 60h3M31 61h3M42 61h3M41 62h4M41 63h3M43 64h1M40 65h1M42 65h3M40 66h1M42 66h1M44 66h1" />
<path stroke="#887800" d="M61 27h1M41 28h2M60 28h3M40 29h4M61 29h3M42 30h3M62 30h2M43 31h2M62 31h1M43 32h1M25 33h2M24 34h3M23 35h3M23 36h2M24 37h1M32 39h3M31 40h1M35 40h1M30 41h1M35 41h1M39 41h1M30 42h1M34 42h1M38 42h3M28 43h1M31 43h3M40 43h1M59 43h1M40 44h1M58 44h2M38 45h1M40 45h1M58 45h1M38 46h2M58 46h1M29 47h1M58 47h2M30 48h1M59 48h2M34 49h1M60 49h1M36 55h2M35 56h1M38 56h1M40 56h1M35 57h1M47 57h1M36 58h1M46 58h2M45 59h2M45 60h1M45 61h1M46 62h1" />
<path stroke="#f8f8f8" d="M38 43h2M38 44h1M29 46h1M55 52h2M29 59h1M30 60h1M32 60h1M40 64h3" />
</svg>