<svg xmlns="http://www.w3.org/2000/svg" viewBox="0 -0.5 80 80" shape-rendering="crispEdges">
<metadata>Made with Pixels to Svg https://codepen.io/shshaw/pen/XbxvNj</metadata>
<path stroke="#58f878" d="M36 24h1M43 24h1M40 25h1M32 26h1M31 27h1M38 27h1M41 27h1M36 30h1M43 30h1M47 30h1M34 31h1M39 31h1M48 31h1M32 33h1M39 33h2M26 34h1M32 34h1M37 34h1M42 34h1M53 34h1M36 35h1M43 35h1M29 36h1M31 36h1M31 37h1M35 37h1M44 37h1M31 38h1M35 38h1M44 38h1M53 38h1M29 39h1M31 39h1M52 39h1M36 40h1M43 40h1M26 41h1M32 41h1M37 41h1M42 41h1M47 41h1M39 42h2M36 45h1M43 45h1M31 48h1M38 48h3M32 49h1M36 51h1M39 53h2M40 54h1" />
<path stroke="#007840" d="M37 24h1M42 24h1M34 25h2M44 25h2M47 26h1M37 27h1M42 27h1M48 27h1M30 28h1M35 28h1M44 28h1M49 28h1M29 29h1M33 29h1M46 29h1M50 29h1M28 30h1M37 30h1M42 30h1M51 30h1M35 31h1M40 31h1M44 31h1M27 32h1M45 32h1M52 32h1M30 33h1M38 33h1M41 33h1M46 33h1M49 33h1M36 34h1M43 34h1M47 34h1M26 35h1M29 35h1M32 35h1M50 35h1M53 35h1M35 36h1M39 36h2M44 36h1M48 36h3M38 37h1M41 37h1M38 38h1M41 38h1M52 38h1M35 39h1M39 39h2M44 39h1M48 39h4M26 40h1M29 40h1M32 40h1M47 40h1M36 41h1M43 41h1M30 42h1M33 42h1M38 42h1M41 42h1M46 42h1M27 43h1M34 43h1M45 43h1M35 44h1M44 44h1M28 45h1M37 45h1M42 45h1M29 46h1M33 46h1M30 47h1M35 47h1M37 48h1M41 49h1M34 50h2M41 50h1M37 51h2M41 51h1M38 52h1M41 52h1M38 53h1M41 53h1M38 54h1M41 54h1M39 55h2" />
<path stroke="#000000" d="M38 24h4M36 25h3M41 25h3M33 26h14M32 27h5M43 27h5M31 28h4M45 28h4M30 29h3M47 29h3M29 30h4M38 30h4M48 30h3M28 31h6M36 31h3M41 31h3M49 31h3M28 32h3M32 32h13M49 32h3M27 33h3M33 33h5M42 33h4M50 33h3M27 34h3M33 34h3M44 34h3M50 34h3M27 35h2M33 35h3M44 35h4M51 35h2M26 36h3M32 36h3M45 36h3M51 36h3M26 37h3M32 37h3M40 37h1M45 37h9M26 38h3M32 38h3M39 38h2M45 38h7M26 39h3M32 39h3M45 39h3M27 40h2M33 40h3M44 40h3M27 41h3M33 41h3M44 41h3M27 42h3M34 42h4M42 42h4M28 43h3M35 43h10M28 44h4M36 44h8M29 45h4M38 45h4M30 46h3M31 47h4M32 48h5M33 49h8M36 50h5M39 51h2M39 52h2" />
<path stroke="#f8f8f8" d="M39 25h1M38 34h4M37 35h6M36 36h3M41 36h3M36 37h2M39 37h1M42 37h2M36 38h2M42 38h2M36 39h3M41 39h3M37 40h6M38 41h4M39 54h1" />
</svg>