<svg xmlns="http://www.w3.org/2000/svg" viewBox="0 -0.5 80 80" shape-rendering="crispEdges">
<metadata>Made with Pixels to Svg https://codepen.io/shshaw/pen/XbxvNj</metadata>
<path stroke="#58f878" d="M38 27h4M36 28h1M43 28h1M39 31h2M32 32h1M37 32h1M42 32h1M47 32h1M36 33h1M43 33h1M31 34h1M48 34h1M31 35h1M35 35h1M44 35h1M48 35h1M31 36h1M35 36h1M44 36h1M48 36h1M31 37h1M48 37h1M36 38h1M43 38h1M37 39h1M42 39h1M47 39h1M39 40h2M36 43h1M43 43h1M38 44h4M48 45h1M33 50h2M34 51h1" />
<path stroke="#007840" d="M37 28h1M42 28h1M35 29h1M44 29h1M34 30h1M45 30h1M33 31h1M38 31h1M41 31h1M46 31h1M36 32h1M43 32h1M32 33h1M47 33h1M35 34h1M39 34h2M44 34h1M38 35h1M41 35h1M38 36h1M41 36h1M35 37h1M39 37h2M44 37h1M32 38h1M47 38h1M32 39h1M36 39h1M43 39h1M32 40h1M38 40h1M41 40h1M46 40h1M32 41h1M32 42h1M35 42h1M32 43h1M35 43h1M37 43h1M42 43h1M32 44h1M35 44h1M46 44h1M32 45h1M35 45h1M32 46h1M35 46h1M32 47h1M35 47h1M32 48h1M35 48h1M32 49h1M35 49h1M32 50h1M35 50h1M32 51h1M35 51h1M33 52h2" />
<path stroke="#000000" d="M38 28h4M36 29h8M35 30h10M34 31h4M42 31h4M33 32h3M44 32h3M33 33h3M44 33h3M32 34h3M45 34h3M32 35h3M40 35h1M45 35h3M32 36h3M39 36h2M45 36h3M32 37h3M45 37h3M33 38h3M44 38h3M33 39h3M44 39h3M33 40h5M42 40h4M33 41h14M33 42h2M36 42h12M33 43h2M38 43h4M44 43h5M33 44h2M45 44h1M47 44h2M33 45h2M46 45h2M33 46h2M33 47h2M33 48h2M33 49h2" />
<path stroke="#f8f8f8" d="M38 32h4M37 33h6M36 34h3M41 34h3M36 35h2M39 35h1M42 35h2M36 36h2M42 36h2M36 37h3M41 37h3M37 38h6M38 39h4M33 51h1" />
</svg>