<svg xmlns="http://www.w3.org/2000/svg" viewBox="0 -0.5 80 80" shape-rendering="crispEdges">
<metadata>Made with Pixels to Svg https://codepen.io/shshaw/pen/XbxvNj</metadata>
<path stroke="#383870" d="M40 30h1M29 32h1M51 32h1M27 33h1M32 33h2M39 33h1M41 33h1M48 33h1M53 33h1M32 34h4M39 34h3M45 34h1M47 34h1M25 35h1M33 35h4M38 35h1M42 35h1M44 35h1M46 35h1M55 35h1M35 36h3M39 36h3M43 36h3M36 37h3M40 37h1M42 37h3M28 38h1M37 38h2M42 38h2M52 38h1M29 39h1M38 39h5M51 39h1M25 40h4M39 40h3M52 40h4M24 41h2M37 41h1M43 41h1M55 41h2M24 42h1M32 42h1M34 42h13M48 42h1M56 42h1M30 43h7M38 43h5M44 43h7M27 44h8M37 44h7M46 44h8M26 45h2M37 45h7M53 45h2M24 46h1M37 46h8M36 47h2M43 47h2M29 48h1M31 48h1M49 48h1M51 48h1M30 49h1M32 49h1M34 49h1M46 49h1M48 49h1M50 49h1M27 50h1M29 50h3M33 50h1M35 50h1M45 50h1M47 50h1M49 50h3M53 50h1M23 51h1M25 51h1M28 51h5M34 51h1M36 51h1M44 51h1M46 51h1M48 51h5M55 51h1M22 52h1M29 52h2M34 52h13M50 52h2M33 53h15M32 54h2M38 54h1M42 54h1M47 54h2M27 55h1M53 55h1M29 56h1M51 56h1M28 57h3M50 57h3M28 58h2M37 58h7M51 58h2M32 59h1M35 59h11M48 59h1M31 60h3M35 60h11M47 60h3M31 61h2M34 61h5M40 61h1M42 61h5M48 61h2M34 62h4M39 62h3M43 62h4M35 63h2M38 63h5M44 63h2M39 64h3" />
<path stroke="#000000" d="M39 31h1M41 31h1M30 32h4M39 32h1M41 32h1M47 32h4M28 33h1M34 33h2M38 33h1M42 33h1M45 33h2M52 33h1M26 34h1M36 34h1M38 34h1M42 34h1M44 34h1M54 34h1M30 35h3M37 35h1M39 35h3M43 35h1M48 35h3M25 36h1M28 36h7M38 36h1M42 36h1M46 36h7M55 36h1M26 37h10M39 37h1M41 37h1M45 37h10M29 38h8M39 38h3M44 38h8M25 39h4M30 39h3M37 39h1M43 39h1M48 39h3M52 39h4M24 40h1M29 40h3M34 40h2M38 40h1M42 40h1M45 40h2M49 40h3M56 40h1M23 41h1M26 41h6M33 41h4M38 41h5M44 41h4M49 41h6M57 41h1M23 42h1M25 42h7M33 42h1M47 42h1M49 42h7M57 42h1M23 43h7M37 43h1M43 43h1M51 43h7M26 44h1M35 44h2M44 44h2M54 44h1M25 45h1M33 45h4M44 45h4M55 45h1M33 46h3M45 46h3M56 46h1M24 47h1M29 47h7M45 47h7M56 47h1M25 48h4M30 48h1M32 48h4M45 48h4M50 48h1M52 48h4M26 49h4M31 49h1M33 49h1M35 49h1M45 49h1M47 49h1M49 49h1M51 49h4M25 50h2M28 50h1M32 50h1M34 50h1M36 50h9M46 50h1M48 50h1M52 50h1M54 50h2M24 51h1M33 51h1M35 51h1M37 51h7M45 51h1M47 51h1M56 51h2M31 52h3M47 52h3M58 52h1M22 53h1M26 53h7M48 53h7M58 53h1M23 54h9M39 54h3M49 54h9M28 55h3M38 55h5M50 55h3M28 56h1M30 56h1M35 56h11M50 56h1M52 56h1M27 57h1M31 57h19M53 57h1M26 58h1M30 58h7M44 58h7M54 58h1M26 59h1M29 59h3M33 59h2M46 59h2M49 59h3M54 59h1M27 60h2M30 60h1M34 60h1M46 60h1M50 60h1M52 60h2M30 61h1M33 61h1M39 61h1M41 61h1M47 61h1M50 61h1M31 62h3M38 62h1M42 62h1M47 62h3M34 63h1M37 63h1M43 63h1M46 63h1M35 64h2M38 64h1M42 64h1M44 64h2M39 65h3" />
<path stroke="#f8f8f8" d="M40 31h1M33 39h4M44 39h4M32 40h2M36 40h2M43 40h2M47 40h2M32 41h1M48 41h1M25 46h1M39 47h3M36 48h1M23 52h2" />
<path stroke="#a87850" d="M40 32h1M29 33h3M40 33h1M47 33h1M49 33h3M27 34h5M46 34h1M48 34h6M26 35h4M45 35h1M47 35h1M51 35h4M26 36h2M53 36h2M28 45h5M48 45h5M26 46h7M36 46h1M48 46h8M25 47h4M38 47h1M42 47h1M52 47h4M37 48h8M36 49h9M26 51h2M53 51h2M25 52h4M52 52h6M23 53h3M55 53h3M34 54h4M43 54h4M31 55h7M43 55h7M31 56h4M46 56h4M27 58h1M53 58h1M27 59h2M52 59h2" />
</svg>