<svg xmlns="http://www.w3.org/2000/svg" viewBox="0 -0.5 80 80" shape-rendering="crispEdges">
<metadata>Made with Pixels to Svg https://codepen.io/shshaw/pen/XbxvNj</metadata>
<path stroke="#000000" d="M62 20h2M23 21h5M60 21h2M64 21h2M21 22h2M28 22h2M38 22h1M50 22h1M59 22h1M66 22h1M20 23h1M30 23h1M37 23h1M39 23h1M49 23h1M51 23h1M58 23h1M66 23h1M20 24h1M31 24h1M37 24h1M39 24h1M49 24h1M51 24h1M57 24h1M65 24h1M21 25h3M31 25h1M37 25h1M39 25h1M48 25h1M51 25h1M57 25h1M64 25h1M24 26h1M32 26h1M36 26h1M40 26h1M48 26h1M52 26h1M56 26h1M64 26h1M25 27h1M32 27h1M36 27h1M40 27h1M47 27h1M52 27h1M56 27h1M64 27h1M66 27h1M23 28h3M28 28h1M32 28h1M36 28h1M40 28h1M47 28h1M52 28h1M56 28h1M65 28h1M67 28h1M22 29h1M25 29h3M33 29h1M36 29h1M41 29h1M46 29h1M52 29h1M55 29h1M59 29h2M63 29h2M67 29h1M22 30h1M33 30h1M35 30h1M41 30h1M46 30h1M52 30h1M55 30h1M60 30h3M67 30h1M22 31h1M33 31h1M35 31h1M44 31h2M52 31h1M55 31h1M67 31h1M23 32h1M33 32h1M35 32h1M52 32h1M55 32h1M66 32h1M23 33h1M32 33h1M35 33h1M52 33h1M55 33h1M66 33h1M24 34h1M32 34h1M35 34h1M53 34h1M55 34h1M65 34h1M25 35h1M31 35h1M33 35h1M36 35h1M53 35h1M56 35h1M65 35h1M26 36h2M31 36h1M34 36h2M37 36h1M47 36h2M54 36h3M64 36h1M28 37h3M34 37h2M38 37h1M46 37h1M54 37h2M57 37h1M62 37h2M29 38h2M34 38h1M39 38h1M45 38h1M54 38h1M58 38h4M29 39h1M31 39h2M34 39h1M38 39h1M46 39h1M54 39h2M60 39h1M63 39h1M28 40h1M33 40h1M35 40h1M38 40h1M46 40h1M51 40h1M54 40h1M56 40h1M59 40h1M63 40h1M28 41h1M33 41h1M36 41h1M49 41h2M53 41h1M57 41h2M64 41h1M27 42h3M34 42h1M37 42h2M45 42h4M50 42h3M56 42h1M64 42h1M26 43h1M30 43h1M35 43h3M39 43h6M46 43h1M48 43h2M54 43h2M65 43h1M24 44h1M37 44h4M42 44h1M46 44h2M52 44h2M62 44h4M25 45h2M30 45h4M36 45h1M40 45h1M45 45h2M53 45h1M55 45h2M61 45h1M65 45h2M27 46h3M34 46h1M36 46h1M41 46h1M45 46h1M53 46h1M57 46h3M67 46h1M27 47h1M36 47h1M42 47h3M53 47h1M61 47h1M65 47h2M28 48h1M37 48h1M52 48h1M62 48h3M29 49h1M37 49h1M51 49h2M62 49h1M30 50h1M36 50h1M38 50h1M52 50h2M61 50h1M29 51h3M33 51h3M39 51h2M54 51h2M57 51h3M61 51h1M28 52h1M32 52h1M36 52h1M38 52h2M41 52h2M48 52h4M53 52h1M56 52h1M60 52h1M27 53h1M33 53h1M37 53h1M43 53h5M50 53h1M52 53h1M55 53h1M61 53h1M26 54h1M33 54h3M37 54h1M43 54h1M50 54h1M52 54h1M54 54h2M61 54h1M26 55h1M30 55h3M36 55h1M44 55h1M49 55h1M53 55h1M56 55h1M59 55h1M61 55h1M26 56h1M29 56h2M36 56h1M45 56h4M50 56h4M57 56h4M27 57h1M29 57h1M31 57h1M36 57h1M45 57h2M50 57h1M54 57h1M59 57h1M28 58h1M32 58h4M44 58h1M47 58h3M51 58h1M55 58h1M58 58h1M44 59h1M47 59h1M51 59h1M56 59h2M43 60h1M48 60h3M57 60h1M43 61h1M57 61h1M44 62h1M57 62h1M44 63h1M56 63h1M45 64h2M55 64h1M47 65h3M53 65h2M50 66h1M52 66h1M51 67h1" />
<path stroke="#c83090" d="M62 21h2M25 22h3M60 22h2M64 22h2M24 23h6M59 23h1M63 23h3M21 24h10M58 24h1M61 24h4M24 25h7M60 25h4M25 26h7M39 26h1M50 26h2M57 26h1M59 26h5M26 27h6M38 27h2M50 27h2M57 27h7M26 28h2M29 28h3M38 28h2M49 28h3M57 28h8M66 28h1M24 29h1M28 29h5M37 29h4M47 29h1M49 29h3M56 29h3M61 29h2M65 29h2M24 30h9M36 30h5M47 30h5M56 30h4M63 30h2M66 30h1M23 31h10M36 31h5M46 31h6M56 31h7M65 31h2M24 32h9M36 32h6M45 32h7M56 32h6M64 32h2M24 33h8M36 33h5M46 33h6M56 33h10M25 34h7M36 34h1M38 34h3M45 34h8M56 34h9M26 35h5M32 35h1M37 35h5M44 35h9M57 35h8M28 36h3M32 36h2M36 36h1M39 36h5M45 36h2M49 36h5M57 36h7M31 37h3M39 37h4M44 37h2M50 37h4M56 37h1M58 37h4M31 38h3M35 38h1M40 38h3M44 38h1M51 38h3M55 38h1M57 38h1M33 39h1M35 39h2M40 39h5M49 39h5M57 39h3M34 40h1M36 40h2M40 40h5M47 40h4M52 40h2M55 40h1M57 40h2M34 41h2M37 41h12M51 41h2M54 41h3M35 42h2M39 42h6M49 42h1M53 42h3M28 43h2M50 43h4M26 44h5M48 44h4M27 45h3M37 45h3M47 45h6M62 45h3M37 46h4M46 46h7M61 46h5M37 47h5M45 47h8M62 47h3M38 48h14M38 49h3M42 49h9M37 50h1M39 50h1M41 50h1M43 50h9M36 51h3M42 51h1M44 51h10M29 52h3M33 52h2M37 52h1M43 52h5M52 52h1M54 52h2M57 52h3M30 53h3M34 53h3M48 53h2M53 53h2M56 53h1M59 53h2M29 54h4M36 54h1M45 54h5M53 54h1M58 54h1M60 54h1M28 55h2M33 55h3M47 55h2M54 55h2M57 55h2M60 55h1M27 56h2M31 56h5M49 56h1M54 56h3M28 57h1M32 57h4M47 57h3M51 57h3M55 57h4M45 58h2M50 58h1M52 58h3M56 58h2M45 59h2M48 59h3M52 59h4M44 60h4M51 60h6M44 61h13M45 62h2M49 62h8M45 63h2M50 63h6M47 64h1M51 64h4M50 65h3M51 66h1" />
<path stroke="#f8f8f8" d="M23 22h2M62 22h2M21 23h3M38 23h1M50 23h1M60 23h3M38 24h1M50 24h1M59 24h2M38 25h1M49 25h2M58 25h2M37 26h2M49 26h1M58 26h1M37 27h1M48 27h2M37 28h1M48 28h1M23 29h1M48 29h1M23 30h1M65 30h1M63 31h2M42 32h3M62 32h2M41 33h5M41 34h4M42 35h2M37 37h1M47 37h2M36 38h3M46 38h4M56 38h1M37 39h1M47 39h2M56 39h1M39 40h1M45 40h1M27 43h1M38 43h1M47 43h1M25 44h1M66 46h1M41 49h1M40 50h1M42 50h1M41 51h1M43 51h1M35 52h1M28 53h2M57 53h2M27 54h2M44 54h1M56 54h2M59 54h1M27 55h1M45 55h2M47 62h2M47 63h3M48 64h3" />
<path stroke="#4038a0" d="M41 31h3M37 34h1M35 35h1M38 36h1M44 36h1M36 37h1M43 37h1M49 37h1M43 38h1M50 38h1M30 39h1M39 39h1M45 39h1M61 39h2M29 40h4M60 40h3M29 41h4M59 41h5M30 42h4M57 42h7M25 43h1M31 43h4M45 43h1M56 43h9M31 44h6M41 44h1M43 44h3M54 44h8M34 45h2M41 45h4M54 45h1M57 45h4M30 46h4M35 46h1M42 46h3M54 46h3M60 46h1M28 47h8M54 47h7M29 48h8M53 48h9M30 49h7M53 49h9M31 50h5M54 50h7M32 51h1M56 51h1M60 51h1" />
</svg>