<svg xmlns="http://www.w3.org/2000/svg" viewBox="0 -0.5 80 80" shape-rendering="crispEdges">
<metadata>Made with Pixels to Svg https://codepen.io/shshaw/pen/XbxvNj</metadata>
<path stroke="#000000" d="M60 21h3M24 22h1M54 22h3M59 22h1M63 22h1M22 23h1M25 23h2M53 23h1M57 23h2M64 23h1M27 24h1M30 24h1M53 24h1M58 24h2M64 24h1M21 25h1M28 25h1M53 25h1M64 25h1M21 26h1M32 26h1M54 26h1M64 26h1M22 27h1M29 27h1M32 27h1M54 27h1M63 27h1M22 28h1M29 28h1M31 28h1M55 28h1M63 28h1M23 29h1M30 29h1M54 29h1M62 29h1M24 30h1M31 30h1M54 30h1M62 30h1M24 31h1M31 31h1M53 31h1M62 31h1M25 32h1M32 32h1M52 32h1M61 32h1M25 33h1M33 33h1M52 33h1M61 33h1M22 34h5M34 34h1M51 34h1M60 34h4M35 35h1M49 35h2M60 35h1M64 35h1M20 36h1M36 36h2M48 36h1M64 36h1M20 37h1M38 37h2M47 37h1M64 37h1M21 38h2M40 38h7M58 38h1M61 38h3M23 39h2M36 39h1M58 39h3M25 40h2M34 40h1M37 40h2M57 40h1M27 41h1M39 41h2M57 41h1M60 41h3M27 42h1M33 42h1M56 42h1M59 42h1M63 42h1M24 43h1M28 43h1M33 43h1M56 43h1M59 43h1M63 43h1M23 44h2M28 44h1M34 44h1M56 44h1M58 44h2M64 44h2M35 45h1M55 45h3M65 45h1M21 46h1M29 46h1M35 46h1M52 46h3M65 46h1M21 47h1M29 47h1M36 47h1M64 47h1M22 48h2M36 48h1M62 48h2M24 49h2M34 49h1M42 49h1M61 49h1M26 50h2M34 50h1M42 50h1M62 50h1M28 51h1M57 51h1M62 51h1M28 52h1M35 52h1M40 52h1M55 52h2M58 52h2M61 52h1M27 53h1M36 53h1M39 53h1M54 53h1M58 53h1M60 53h1M26 54h2M37 54h2M53 54h1M58 54h1M25 55h1M27 55h1M46 55h2M58 55h1M45 56h1M58 56h1M23 57h1M58 57h1M24 58h1M28 58h1M43 58h1M58 58h1M25 59h5M44 59h1M57 59h1M30 60h1M45 60h3M57 60h1M30 61h1M32 61h1M31 62h1M58 62h1M30 63h1M36 63h3M52 63h2M58 63h1M30 64h1M35 64h1M39 64h6M51 64h1M54 64h1M58 64h1M31 65h4M46 65h1M50 65h1M55 65h3M47 66h3" />
<path stroke="#e03868" d="M23 22h1M21 24h1M29 24h1M31 24h1M32 25h1M21 34h1M20 35h1M35 39h1M44 39h3M27 40h2M42 40h2M29 41h1M33 41h1M25 42h2M22 44h1M25 44h1M21 45h1M28 45h1M36 45h2M27 46h1M36 46h3M26 47h1M28 47h1M37 47h2M25 48h1M27 48h1M29 48h1M37 48h1M26 49h1M28 49h1M24 55h1M23 56h1M27 56h1M44 56h1M28 57h1M43 57h1M57 61h1M42 63h2M45 64h1M50 64h1" />
<path stroke="#f858f8" d="M60 22h3M56 23h1M59 23h5M25 24h2M56 24h2M60 24h4M26 25h2M29 25h3M54 25h10M22 26h2M26 26h6M55 26h9M23 27h2M27 27h2M30 27h2M55 27h8M23 28h3M27 28h2M30 28h1M56 28h7M24 29h3M28 29h2M55 29h7M25 30h6M55 30h7M25 31h6M54 31h8M26 32h6M53 32h8M26 33h7M53 33h8M27 34h7M52 34h8M22 35h13M51 35h9M61 35h3M23 36h13M49 36h15M23 37h15M48 37h16M23 38h17M47 38h11M59 38h2M25 39h10M37 39h7M47 39h11M29 40h5M39 40h3M44 40h13M28 41h1M30 41h3M36 41h3M41 41h16M28 42h5M34 42h22M60 42h3M25 43h3M29 43h4M34 43h22M60 43h3M26 44h2M29 44h5M35 44h21M60 44h4M22 45h6M29 45h6M38 45h17M58 45h7M22 46h5M28 46h1M30 46h5M39 46h13M55 46h10M22 47h4M27 47h1M30 47h6M39 47h25M24 48h1M26 48h1M28 48h1M30 48h6M38 48h24M27 49h1M29 49h5M35 49h7M43 49h18M28 50h6M35 50h7M43 50h19M29 51h28M58 51h4M29 52h6M36 52h4M41 52h14M57 52h1M60 52h1M29 53h7M37 53h2M40 53h14M55 53h3M30 54h7M39 54h13M54 54h4M26 55h1M29 55h5M37 55h9M48 55h3M54 55h3M26 56h1M28 56h5M37 56h7M46 56h4M55 56h1M26 57h2M31 57h3M36 57h7M46 57h4M25 58h3M33 58h5M40 58h3M46 58h5M33 59h4M41 59h1M45 59h6M34 60h2M56 61h1M54 62h2" />
<path stroke="#f8f8f8" d="M23 23h2M54 23h2M22 24h3M54 24h2M22 25h4M24 26h2M25 27h2M26 28h1M27 29h1M21 35h1M21 36h2M21 37h2M35 40h2M34 41h2M28 53h1M28 54h2M52 54h1M28 55h1M34 55h3M51 55h3M57 55h1M24 56h2M33 56h4M50 56h5M56 56h2M24 57h2M29 57h2M34 57h2M44 57h2M50 57h8M29 58h4M38 58h2M44 58h2M51 58h7M30 59h3M37 59h4M42 59h2M51 59h6M31 60h3M36 60h9M48 60h9M31 61h1M33 61h23M32 62h22M56 62h2M31 63h5M39 63h3M44 63h8M54 63h4M31 64h4M46 64h4M55 64h3M47 65h3" />
</svg>