<svg xmlns="http://www.w3.org/2000/svg" viewBox="0 -0.5 80 80" shape-rendering="crispEdges">
<metadata>Made with Pixels to Svg https://codepen.io/shshaw/pen/XbxvNj</metadata>
<path stroke="#000000" d="M31 15h3M28 16h3M34 16h2M52 16h4M26 17h1M36 17h1M40 17h4M50 17h1M56 17h2M37 18h1M44 18h3M48 18h1M58 18h1M24 19h1M34 19h2M47 19h1M59 19h1M23 20h1M33 20h1M46 20h1M59 20h1M23 21h1M60 21h1M23 22h2M60 22h2M23 23h1M35 23h1M40 23h1M54 23h1M60 23h2M23 24h1M35 24h1M40 24h1M55 24h1M60 24h1M62 24h1M22 25h1M29 25h1M55 25h1M59 25h1M62 25h1M22 26h1M28 26h1M59 26h1M62 26h1M22 27h1M28 27h1M34 27h5M48 27h1M55 27h1M58 27h1M61 27h1M23 28h1M27 28h1M35 28h1M38 28h1M48 28h1M55 28h3M61 28h1M24 29h1M27 29h1M38 29h1M49 29h1M54 29h1M60 29h1M22 30h2M25 30h2M36 30h2M50 30h4M58 30h2M21 31h1M26 31h1M55 31h3M21 32h1M25 32h1M52 32h3M57 32h2M21 33h1M25 33h1M41 33h4M50 33h2M59 33h1M20 34h1M24 34h2M40 34h1M45 34h3M59 34h1M19 35h1M23 35h2M39 35h1M48 35h1M59 35h1M19 36h1M22 36h1M24 36h1M39 36h1M58 36h2M20 37h1M39 37h1M56 37h2M59 37h1M18 38h1M40 38h1M58 38h1M60 38h1M16 39h1M41 39h2M59 39h2M15 40h1M23 40h1M43 40h2M59 40h2M15 41h1M22 41h1M34 41h3M45 41h2M57 41h2M60 41h1M16 42h1M21 42h2M32 42h1M38 42h1M56 42h1M17 43h4M22 43h1M31 43h1M39 43h1M54 43h2M21 44h1M30 44h1M40 44h1M47 44h1M55 44h1M61 44h4M20 45h1M30 45h1M40 45h1M48 45h2M55 45h1M61 45h1M65 45h1M18 46h2M29 46h1M41 46h1M50 46h5M60 46h2M65 46h1M17 47h1M29 47h1M41 47h1M61 47h2M64 47h1M16 48h1M29 48h1M41 48h2M63 48h2M16 49h1M40 49h1M42 49h1M65 49h1M17 50h2M28 50h1M30 50h1M38 50h2M43 50h1M65 50h1M19 51h2M28 51h1M31 51h7M43 51h1M59 51h2M63 51h2M20 52h1M28 52h1M43 52h1M61 52h2M19 53h1M43 53h1M54 53h1M62 53h1M18 54h1M29 54h1M42 54h1M55 54h2M63 54h1M18 55h1M23 55h1M42 55h1M49 55h1M56 55h2M63 55h1M19 56h5M30 56h1M41 56h1M50 56h2M56 56h1M58 56h5M24 57h1M32 57h1M39 57h2M52 57h4M57 57h1M25 58h1M27 58h1M34 58h5M56 58h1M28 59h3M54 59h2M30 60h3M51 60h3M28 61h2M33 61h5M46 61h5M55 61h1M27 62h1M37 62h9M47 62h1M56 62h1M26 63h1M36 63h2M48 63h1M57 63h1M26 64h1M33 64h3M49 64h2M57 64h1M27 65h6M51 65h2M57 65h1M53 66h4" />
<path stroke="#902840" d="M27 16h1M51 16h1M25 17h1M31 17h2M38 17h2M49 17h1M24 18h1M33 18h1M36 18h1M47 18h1M45 20h1M26 21h2M32 21h1M50 21h2M25 22h1M31 22h1M52 22h2M30 23h1M29 24h1M26 25h2M49 25h2M25 26h1M48 26h1M51 26h1M51 27h1M36 28h2M36 29h2M21 34h1M49 35h1M21 36h1M19 37h1M24 37h1M54 37h2M17 38h1M23 38h1M23 39h1M50 39h1M50 40h1M44 41h1M47 41h1M49 41h1M33 42h1M37 42h1M44 42h1M55 42h1M60 42h1M45 43h1M53 43h1M61 43h1M46 44h1M21 45h1M21 46h1M28 49h1M58 50h1M21 51h1M28 53h1M53 53h1M47 54h1M24 55h1M29 55h1M48 55h1M58 55h1M31 57h1M33 58h1M30 61h3M51 61h4M33 62h4M48 62h3M49 63h1" />
<path stroke="#e06070" d="M31 16h3M30 17h1M33 17h3M54 17h2M29 18h4M34 18h2M42 18h2M49 18h1M53 18h5M27 19h7M41 19h1M43 19h4M48 19h11M24 20h9M34 20h2M39 20h2M42 20h3M47 20h12M24 21h2M28 21h4M33 21h17M52 21h8M26 22h5M32 22h3M36 22h4M41 22h11M54 22h6M24 23h6M31 23h4M36 23h4M41 23h13M55 23h5M24 24h5M30 24h5M36 24h4M41 24h14M56 24h4M61 24h1M23 25h3M28 25h1M30 25h19M51 25h4M56 25h3M60 25h2M23 26h2M26 26h2M29 26h19M49 26h2M52 26h7M60 26h2M23 27h5M29 27h5M39 27h9M49 27h2M52 27h3M56 27h2M59 27h2M24 28h3M28 28h7M39 28h9M49 28h6M58 28h3M25 29h2M28 29h8M39 29h10M50 29h4M55 29h5M27 30h9M38 30h12M54 30h4M27 31h28M26 32h26M26 33h15M45 33h5M26 34h14M43 34h2M48 34h1M25 35h14M40 35h1M42 35h1M44 35h4M23 36h1M25 36h14M40 36h2M43 36h8M21 37h3M25 37h14M40 37h11M58 37h1M19 38h4M24 38h16M41 38h10M59 38h1M17 39h6M24 39h17M43 39h7M16 40h1M18 40h5M24 40h19M45 40h5M17 41h1M19 41h3M23 41h11M37 41h7M48 41h1M59 41h1M17 42h4M23 42h9M39 42h5M57 42h3M23 43h8M40 43h5M56 43h5M22 44h8M38 44h1M41 44h5M56 44h5M22 45h1M24 45h6M37 45h1M39 45h1M41 45h7M56 45h5M23 46h6M38 46h1M40 46h1M42 46h8M55 46h2M58 46h1M24 47h5M37 47h1M39 47h1M42 47h14M57 47h1M59 47h1M23 48h1M25 48h1M27 48h2M36 48h1M38 48h1M43 48h10M54 48h1M56 48h1M24 49h1M26 49h1M29 49h1M35 49h1M41 49h1M43 49h5M49 49h1M51 49h1M53 49h1M27 50h1M29 50h1M40 50h3M44 50h1M46 50h1M48 50h1M50 50h1M52 50h1M29 51h2M38 51h5M45 51h1M47 51h1M29 52h14M29 53h14M30 54h12M30 55h12M31 56h10M33 57h6M28 62h5M51 62h5M27 63h1M30 63h6M50 63h7M27 64h6M51 64h2M56 64h1M53 65h4" />
<path stroke="#f8f8f8" d="M27 17h3M51 17h3M25 18h4M38 18h4M50 18h3M25 19h2M36 19h5M42 19h1M36 20h3M41 20h1M35 22h1M40 22h1M24 30h1M22 31h4M22 32h3M55 32h2M22 33h3M52 33h7M22 34h2M41 34h2M49 34h10M20 35h3M41 35h1M43 35h1M50 35h9M20 36h1M42 36h1M51 36h7M51 37h3M51 38h7M51 39h8M17 40h1M51 40h8M16 41h1M18 41h1M50 41h7M34 42h3M45 42h10M21 43h1M32 43h7M46 43h7M31 44h7M39 44h1M48 44h7M19 45h1M23 45h1M31 45h6M38 45h1M50 45h5M62 45h3M17 46h1M20 46h1M22 46h1M30 46h8M39 46h1M57 46h1M59 46h1M62 46h3M16 47h1M18 47h6M30 47h7M38 47h1M40 47h1M56 47h1M58 47h1M60 47h1M63 47h1M17 48h6M24 48h1M26 48h1M30 48h6M37 48h1M39 48h2M53 48h1M55 48h1M57 48h6M65 48h1M17 49h7M25 49h1M27 49h1M30 49h5M36 49h4M48 49h1M50 49h1M52 49h1M54 49h11M16 50h1M19 50h8M31 50h7M45 50h1M47 50h1M49 50h1M51 50h1M53 50h5M59 50h6M18 51h1M22 51h6M44 51h1M46 51h1M48 51h11M61 51h2M65 51h1M19 52h1M21 52h7M44 52h17M63 52h1M18 53h1M20 53h8M44 53h9M55 53h7M63 53h1M19 54h10M43 54h4M48 54h7M57 54h6M19 55h4M25 55h4M43 55h5M50 55h6M59 55h4M18 56h1M24 56h6M42 56h8M52 56h4M57 56h1M63 56h1M23 57h1M25 57h6M41 57h11M56 57h1M24 58h1M26 58h1M28 58h5M39 58h17M27 59h1M31 59h23M56 59h1M33 60h18M54 60h1M38 61h8M46 62h1M28 63h2M53 64h3" />
</svg>