<svg xmlns="http://www.w3.org/2000/svg" viewBox="0 -0.5 80 80" shape-rendering="crispEdges">
<metadata>Made with Pixels to Svg https://codepen.io/shshaw/pen/XbxvNj</metadata>
<path stroke="#000000" d="M25 12h1M24 13h1M26 13h4M33 13h3M22 14h2M27 14h1M30 14h3M36 14h1M20 15h2M26 15h4M33 15h2M37 15h1M19 16h1M32 16h2M37 16h1M16 17h3M30 17h3M38 17h1M15 18h1M25 18h5M33 18h1M38 18h1M15 19h1M23 19h2M28 19h1M34 19h2M39 19h1M16 20h1M22 20h1M24 20h2M27 20h1M36 20h1M40 20h2M17 21h1M21 21h2M24 21h3M37 21h2M42 21h1M49 21h3M16 22h2M19 22h2M23 22h1M39 22h1M43 22h2M47 22h2M52 22h2M16 23h1M18 23h2M23 23h2M40 23h1M43 23h1M45 23h2M54 23h1M15 24h1M26 24h1M37 24h4M42 24h1M45 24h1M55 24h1M15 25h1M27 25h1M34 25h3M42 25h1M56 25h2M65 25h1M14 26h1M20 26h1M27 26h1M34 26h1M39 26h1M41 26h1M56 26h1M58 26h2M63 26h1M66 26h1M14 27h1M19 27h1M21 27h1M27 27h1M34 27h1M40 27h2M60 27h3M66 27h1M14 28h1M18 28h1M22 28h1M27 28h2M34 28h1M41 28h1M60 28h1M65 28h1M14 29h1M18 29h2M23 29h1M27 29h2M33 29h1M42 29h1M55 29h2M58 29h2M65 29h1M15 30h1M17 30h1M20 30h4M26 30h1M29 30h1M33 30h1M42 30h1M53 30h1M56 30h2M64 30h1M15 31h1M17 31h1M21 31h1M24 31h1M26 31h1M29 31h1M33 31h1M41 31h1M50 31h2M56 31h1M64 31h1M15 32h1M17 32h1M20 32h1M22 32h1M24 32h1M26 32h1M29 32h1M33 32h1M41 32h2M48 32h2M55 32h1M63 32h1M16 33h2M20 33h1M23 33h1M25 33h1M30 33h1M32 33h1M40 33h1M43 33h1M46 33h2M54 33h1M63 33h1M18 34h1M20 34h1M23 34h1M30 34h1M32 34h1M41 34h1M44 34h2M53 34h1M62 34h1M18 35h1M20 35h1M30 35h1M32 35h1M41 35h1M52 35h1M61 35h2M18 36h1M20 36h1M31 36h1M40 36h1M60 36h1M62 36h5M19 37h1M39 37h1M43 37h1M60 37h1M66 37h1M19 38h1M35 38h1M39 38h1M44 38h1M64 38h2M19 39h1M22 39h1M31 39h2M34 39h1M36 39h1M38 39h1M45 39h2M60 39h4M19 40h1M22 40h2M31 40h1M33 40h1M37 40h1M47 40h3M58 40h2M63 40h1M65 40h1M20 41h3M24 41h1M30 41h1M50 41h2M55 41h3M64 41h1M66 41h1M22 42h1M24 42h1M29 42h1M52 42h3M58 42h1M66 42h1M22 43h1M25 43h1M28 43h1M42 43h1M58 43h1M65 43h1M22 44h1M26 44h2M34 44h1M43 44h1M59 44h1M65 44h1M22 45h1M34 45h1M43 45h1M59 45h1M64 45h1M22 46h1M27 46h1M34 46h1M43 46h1M59 46h1M63 46h1M23 47h1M28 47h1M34 47h1M43 47h1M59 47h1M61 47h2M23 48h4M29 48h1M35 48h1M43 48h1M47 48h1M51 48h1M58 48h1M60 48h1M22 49h1M25 49h4M30 49h2M35 49h1M42 49h1M47 49h3M51 49h1M58 49h3M22 50h2M27 50h7M36 50h1M42 50h1M46 50h6M57 50h4M23 51h8M34 51h15M52 51h9M23 52h1M27 52h4M36 52h1M42 52h7M51 52h1M55 52h5M23 53h1M30 53h1M36 53h9M46 53h2M51 53h8M60 53h1M23 54h1M29 54h1M36 54h3M43 54h3M47 54h1M52 54h5M61 54h1M22 55h1M29 55h1M37 55h1M44 55h1M46 55h1M48 55h1M54 55h1M62 55h1M21 56h1M29 56h1M37 56h1M44 56h2M47 56h1M49 56h1M55 56h2M63 56h1M21 57h1M29 57h1M37 57h1M44 57h1M49 57h1M57 57h1M63 57h1M20 58h2M30 58h1M37 58h1M44 58h1M49 58h1M57 58h1M63 58h1M18 59h2M30 59h1M37 59h1M45 59h1M49 59h1M57 59h1M64 59h1M17 60h1M21 60h1M30 60h1M36 60h1M45 60h1M48 60h1M56 60h1M64 60h1M17 61h1M20 61h1M29 61h1M36 61h1M45 61h3M61 61h1M64 61h1M17 62h1M20 62h1M27 62h2M37 62h1M40 62h1M46 62h1M55 62h1M60 62h1M63 62h1M18 63h3M25 63h2M36 63h1M47 63h1M55 63h1M57 63h1M60 63h1M63 63h1M21 64h4M36 64h1M47 64h1M56 64h7M36 65h1M39 65h1M44 65h1M47 65h1M37 66h3M44 66h3M40 67h4" />
<path stroke="#f85808" d="M25 13h1M25 14h2M33 14h3M23 15h3M35 15h2M23 16h9M34 16h3M21 17h2M28 17h2M33 17h5M20 18h1M34 18h4M18 19h1M36 19h3M18 20h2M32 20h1M37 20h3M18 21h2M31 21h1M33 21h1M39 21h3M18 22h1M27 22h2M30 22h1M32 22h1M40 22h3M28 23h2M31 23h1M41 23h2M41 24h1M37 25h5M45 25h1M18 26h1M26 26h1M35 26h4M40 26h1M42 26h1M44 26h1M17 27h1M20 27h1M26 27h1M35 27h4M43 27h1M45 27h1M17 28h1M19 28h1M26 28h1M35 28h5M42 28h1M44 28h1M46 28h1M25 29h1M34 29h5M40 29h1M43 29h1M45 29h1M47 29h1M49 29h1M51 29h1M16 30h1M25 30h1M27 30h2M34 30h8M44 30h1M46 30h1M48 30h1M50 30h1M16 31h1M22 31h2M25 31h1M27 31h2M34 31h7M42 31h2M45 31h1M47 31h1M54 31h2M62 31h2M16 32h1M21 32h1M23 32h1M27 32h2M34 32h7M43 32h2M53 32h2M61 32h2M18 33h1M21 33h2M24 33h1M26 33h4M33 33h7M45 33h1M52 33h2M62 33h1M21 34h2M24 34h6M33 34h6M40 34h1M51 34h2M57 34h1M21 35h2M24 35h6M33 35h1M35 35h1M37 35h1M39 35h1M44 35h1M53 35h3M21 36h10M32 36h1M34 36h1M36 36h1M38 36h1M41 36h1M43 36h2M48 36h1M52 36h1M56 36h1M59 36h1M20 37h14M35 37h1M37 37h1M40 37h3M47 37h1M55 37h1M58 37h2M20 38h13M34 38h1M36 38h1M38 38h1M40 38h4M45 38h2M54 38h1M57 38h2M60 38h4M21 39h1M23 39h1M25 39h3M29 39h1M33 39h1M37 39h1M39 39h6M47 39h1M53 39h1M56 39h2M59 39h1M20 40h2M26 40h1M28 40h1M30 40h1M35 40h2M38 40h9M53 40h4M61 40h1M23 41h1M27 41h1M29 41h1M35 41h8M44 41h6M52 41h3M60 41h1M62 41h1M23 42h1M28 42h1M36 42h6M43 42h9M55 42h3M59 42h1M61 42h1M23 43h2M36 43h6M43 43h15M60 43h1M23 44h3M35 44h1M39 44h4M44 44h15M23 45h4M40 45h3M44 45h4M49 45h10M60 45h1M23 46h4M40 46h3M44 46h4M49 46h10M61 46h1M24 47h4M35 47h1M39 47h3M44 47h4M49 47h1M51 47h8M60 47h1M27 48h2M36 48h3M40 48h1M42 48h1M44 48h3M48 48h3M52 48h6M59 48h1M29 49h1M37 49h1M39 49h1M41 49h1M43 49h3M50 49h1M52 49h6M38 50h1M40 50h1M52 50h3M24 52h2M24 53h6M24 54h5M39 54h1M41 54h1M59 54h2M23 55h6M38 55h3M42 55h1M58 55h4M22 56h1M24 56h5M38 56h4M43 56h1M58 56h5M24 57h2M27 57h2M38 57h6M58 57h4M27 58h3M38 58h6M58 58h5M27 59h3M38 59h1M40 59h3M44 59h1M58 59h1M60 59h1M62 59h2M26 60h1M28 60h2M37 60h2M40 60h3M44 60h1M63 60h1M25 61h3M37 61h1M18 62h2M24 62h3M21 63h4M61 63h2M37 65h2M45 65h2M40 66h4" />
<path stroke="#f8f8f8" d="M24 14h1M22 15h1M30 15h3M19 17h1M23 17h3M16 18h3M21 18h1M16 19h2M20 19h1M25 19h3M17 20h1M20 20h1M26 20h1M29 20h3M23 21h1M28 21h3M21 22h2M29 22h1M49 22h3M17 23h1M20 23h3M44 23h1M47 23h7M16 24h10M43 24h2M46 24h9M16 25h3M20 25h7M43 25h2M47 25h9M15 26h3M21 26h5M43 26h1M45 26h1M47 26h9M57 26h1M64 26h2M15 27h2M22 27h4M39 27h1M42 27h1M44 27h1M47 27h9M57 27h3M63 27h3M15 28h2M20 28h2M23 28h3M40 28h1M43 28h1M45 28h1M47 28h13M61 28h4M15 29h2M20 29h3M24 29h1M39 29h1M41 29h1M44 29h1M46 29h1M48 29h1M50 29h1M52 29h2M57 29h1M60 29h5M24 30h1M43 30h1M45 30h1M47 30h1M49 30h1M51 30h1M54 30h2M58 30h6M44 31h1M46 31h1M48 31h2M52 31h2M57 31h5M45 32h3M50 32h3M56 32h5M41 33h2M44 33h1M48 33h4M55 33h5M42 34h2M46 34h5M54 34h3M60 34h2M31 35h1M42 35h2M45 35h5M58 35h3M45 36h3M50 36h1M53 36h1M57 36h2M61 36h1M44 37h3M49 37h2M52 37h3M56 37h2M61 37h5M48 38h2M51 38h3M55 38h2M20 39h1M48 39h2M51 39h2M54 39h2M24 40h2M32 40h1M50 40h3M60 40h1M62 40h1M25 41h2M31 41h3M58 41h2M61 41h1M65 41h1M25 42h2M30 42h5M60 42h1M63 42h3M26 43h2M29 43h6M59 43h1M61 43h1M63 43h2M28 44h6M36 44h3M60 44h1M62 44h3M28 45h2M32 45h2M35 45h5M61 45h3M30 46h2M35 46h5M60 46h1M62 46h1M29 47h5M36 47h3M30 48h5M23 49h2M32 49h3M34 50h2M38 52h2M52 52h1M62 57h1M22 58h2M20 59h4M25 59h1M18 60h3M23 60h3M59 60h1M18 61h2M21 61h4M39 61h1M43 61h1M56 61h2M59 61h2M62 61h1M21 62h3M39 62h1M41 62h5M56 62h1M58 62h2M61 62h2M37 63h3M41 63h6M56 63h1M58 63h2M37 64h2M40 64h4M45 64h2M40 65h4" />
<path stroke="#882000" d="M28 14h2M20 16h3M20 17h1M26 17h2M19 18h1M22 18h3M30 18h3M19 19h1M21 19h2M29 19h5M21 20h1M23 20h1M28 20h1M33 20h3M20 21h1M27 21h1M32 21h1M34 21h3M24 22h3M31 22h1M33 22h6M25 23h3M30 23h1M32 23h8M27 24h10M19 25h1M28 25h6M46 25h1M64 25h1M19 26h1M28 26h6M46 26h1M18 27h1M28 27h6M46 27h1M56 27h1M29 28h5M17 29h1M26 29h1M29 29h4M54 29h1M18 30h2M30 30h3M52 30h1M18 31h3M30 31h3M18 32h2M25 32h1M30 32h3M19 33h1M31 33h1M60 33h2M19 34h1M31 34h1M39 34h1M58 34h2M19 35h1M23 35h1M34 35h1M36 35h1M38 35h1M40 35h1M50 35h2M56 35h2M19 36h1M33 36h1M35 36h1M37 36h1M39 36h1M42 36h1M49 36h1M51 36h1M54 36h2M34 37h1M36 37h1M38 37h1M48 37h1M51 37h1M33 38h1M37 38h1M47 38h1M50 38h1M59 38h1M24 39h1M28 39h1M30 39h1M35 39h1M50 39h1M58 39h1M27 40h1M29 40h1M34 40h1M57 40h1M28 41h1M34 41h1M43 41h1M63 41h1M27 42h1M35 42h1M42 42h1M62 42h1M35 43h1M62 43h1M61 44h1M27 45h1M30 45h2M48 45h1M28 46h2M32 46h2M48 46h1M42 47h1M48 47h1M50 47h1M39 48h1M41 48h1M36 49h1M38 49h1M40 49h1M46 49h1M24 50h3M37 50h1M39 50h1M41 50h1M43 50h3M55 50h2M26 52h1M37 52h1M40 52h2M53 52h2M45 53h1M59 53h1M40 54h1M42 54h1M46 54h1M57 54h2M41 55h1M43 55h1M45 55h1M47 55h1M55 55h3M23 56h1M42 56h1M46 56h1M48 56h1M57 56h1M22 57h2M26 57h1M45 57h4M24 58h3M45 58h4M24 59h1M26 59h1M39 59h1M43 59h1M46 59h3M59 59h1M61 59h1M22 60h1M27 60h1M39 60h1M43 60h1M46 60h2M57 60h2M60 60h3M28 61h1M38 61h1M40 61h3M44 61h1M55 61h1M58 61h1M63 61h1M38 62h1M57 62h1M40 63h1M39 64h1M44 64h1" />
</svg>