<svg xmlns="http://www.w3.org/2000/svg" viewBox="0 -0.5 80 80" shape-rendering="crispEdges">
<metadata>Made with Pixels to Svg https://codepen.io/shshaw/pen/XbxvNj</metadata>
<path stroke="#000000" d="M25 12h2M21 13h2M24 13h1M27 13h1M58 13h2M20 14h1M23 14h1M27 14h1M57 14h1M60 14h1M19 15h1M23 15h1M27 15h1M38 15h2M45 15h1M57 15h1M61 15h1M17 16h3M23 16h1M27 16h1M37 16h1M40 16h1M44 16h1M46 16h1M57 16h1M61 16h1M16 17h1M19 17h1M23 17h1M27 17h1M37 17h1M40 17h1M43 17h1M47 17h1M57 17h1M61 17h1M16 18h1M19 18h1M27 18h1M31 18h1M36 18h1M40 18h1M43 18h1M47 18h1M57 18h1M61 18h3M16 19h1M20 19h1M28 19h1M30 19h1M32 19h1M36 19h1M40 19h1M42 19h1M47 19h1M51 19h2M57 19h1M61 19h1M64 19h1M15 20h2M20 20h1M28 20h2M32 20h1M36 20h1M40 20h1M42 20h1M46 20h1M50 20h1M53 20h1M64 20h1M14 21h1M17 21h1M20 21h1M28 21h1M32 21h1M36 21h1M40 21h2M46 21h1M49 21h1M54 21h1M56 21h1M60 21h1M64 21h1M14 22h1M28 22h1M33 22h1M35 22h1M40 22h2M45 22h1M49 22h1M54 22h1M56 22h1M60 22h1M64 22h1M14 23h1M18 23h1M28 23h2M33 23h1M35 23h1M40 23h2M45 23h1M48 23h1M53 23h1M55 23h1M15 24h1M18 24h1M29 24h1M33 24h1M35 24h1M40 24h1M45 24h4M53 24h1M55 24h1M63 24h1M15 25h1M19 25h1M29 25h1M33 25h2M36 25h1M40 25h1M45 25h1M48 25h1M52 25h1M54 25h1M63 25h1M65 25h2M16 26h1M29 26h1M33 26h2M36 26h1M40 26h1M44 26h1M47 26h1M52 26h1M54 26h1M63 26h2M67 26h1M14 27h3M30 27h1M33 27h1M36 27h1M39 27h1M44 27h1M47 27h1M51 27h1M53 27h1M67 27h1M13 28h1M16 28h2M30 28h1M34 28h1M36 28h1M39 28h1M43 28h1M46 28h1M51 28h2M67 28h1M13 29h1M30 29h1M34 29h1M39 29h1M43 29h1M46 29h1M50 29h2M66 29h1M13 30h1M31 30h1M34 30h1M49 30h2M65 30h1M14 31h1M31 31h1M35 31h1M47 31h2M65 31h1M14 32h3M32 32h1M35 32h4M46 32h2M63 32h2M67 32h1M13 33h1M16 33h2M33 33h3M39 33h3M44 33h2M67 33h1M13 34h1M18 34h2M32 34h2M42 34h2M67 34h1M13 35h1M39 35h3M65 35h2M14 36h2M21 36h3M30 36h1M38 36h1M61 36h4M15 37h5M22 37h1M24 37h1M29 37h1M63 37h1M14 38h1M17 38h1M25 38h1M29 38h1M42 38h1M65 38h1M14 39h1M16 39h1M25 39h1M42 39h1M59 39h1M66 39h1M15 40h1M25 40h1M28 40h1M60 40h3M65 40h1M14 41h1M24 41h1M28 41h1M43 41h1M61 41h1M63 41h2M14 42h1M24 42h1M27 42h1M57 42h1M62 42h1M15 43h1M24 43h1M27 43h2M34 43h2M44 43h1M51 43h1M58 43h1M61 43h1M63 43h4M15 44h1M25 44h2M29 44h1M32 44h2M44 44h1M47 44h1M52 44h1M59 44h4M67 44h1M16 45h1M25 45h1M29 45h1M31 45h1M44 45h1M47 45h2M53 45h1M59 45h1M67 45h1M17 46h1M26 46h1M31 46h1M44 46h1M48 46h2M53 46h2M57 46h2M65 46h2M17 47h1M30 47h1M43 47h1M45 47h1M49 47h2M52 47h1M54 47h3M61 47h4M18 48h1M30 48h1M42 48h1M45 48h1M48 48h4M57 48h4M19 49h1M27 49h2M31 49h2M41 49h1M43 49h2M46 49h3M51 49h2M59 49h4M19 50h1M27 50h3M31 50h4M39 50h3M46 50h1M48 50h2M53 50h2M63 50h1M19 51h2M26 51h1M29 51h1M31 51h2M34 51h8M47 51h1M49 51h2M55 51h2M63 51h1M16 52h3M21 52h2M26 52h1M29 52h1M31 52h1M36 52h1M40 52h2M43 52h1M45 52h1M47 52h2M50 52h1M55 52h1M57 52h2M62 52h1M15 53h1M23 53h3M29 53h1M31 53h1M35 53h1M40 53h2M43 53h1M45 53h2M48 53h1M51 53h1M56 53h1M59 53h2M63 53h1M14 54h1M24 54h2M27 54h2M30 54h1M32 54h2M35 54h2M40 54h1M42 54h3M46 54h2M52 54h1M55 54h1M61 54h2M22 55h1M26 55h3M30 55h1M33 55h4M40 55h2M45 55h1M48 55h2M53 55h2M13 56h1M24 56h2M27 56h1M29 56h1M33 56h1M36 56h1M40 56h2M45 56h1M50 56h1M54 56h2M13 57h1M23 57h2M27 57h1M29 57h1M33 57h1M36 57h1M40 57h1M42 57h1M46 57h1M50 57h1M56 57h1M14 58h1M21 58h3M27 58h1M29 58h1M32 58h1M36 58h1M40 58h1M42 58h1M46 58h1M50 58h2M57 58h1M14 59h1M20 59h1M22 59h2M28 59h1M30 59h1M32 59h1M36 59h2M41 59h1M43 59h1M47 59h3M52 59h1M58 59h1M19 60h1M23 60h1M28 60h1M30 60h3M35 60h1M37 60h1M41 60h1M43 60h1M47 60h1M53 60h1M56 60h2M15 61h1M18 61h1M23 61h2M27 61h2M30 61h1M32 61h1M35 61h1M37 61h1M41 61h1M44 61h1M48 61h1M54 61h1M57 61h1M16 62h1M18 62h1M23 62h2M27 62h1M29 62h1M33 62h1M35 62h1M37 62h1M41 62h1M44 62h1M48 62h1M55 62h2M17 63h1M24 63h1M26 63h2M29 63h1M34 63h1M38 63h1M41 63h1M45 63h1M49 63h1M24 64h4M29 64h1M38 64h1M41 64h1M45 64h1M49 64h1M24 65h3M28 65h1M39 65h2M46 65h1M49 65h1M24 66h1M27 66h1M47 66h2M25 67h2" />
<path stroke="#387818" d="M25 13h2M21 14h2M24 14h3M20 15h3M24 15h3M20 16h3M24 16h1M26 16h1M17 17h2M20 17h2M25 17h1M17 18h2M20 18h1M22 18h2M25 18h2M58 18h2M17 19h3M21 19h1M24 19h1M27 19h1M60 19h1M17 20h2M23 20h2M56 20h1M60 20h1M15 21h2M19 21h1M22 21h1M24 21h1M61 21h1M15 22h4M21 22h1M24 22h1M62 22h1M15 23h3M21 23h1M25 23h1M59 23h1M63 23h1M16 24h1M20 24h1M22 24h1M25 24h1M59 24h1M17 25h1M21 25h2M58 25h1M62 25h1M19 26h1M23 26h1M57 26h1M61 26h2M65 26h2M17 27h1M19 27h1M60 27h2M63 27h1M65 27h2M14 28h2M20 28h1M58 28h2M63 28h1M66 28h1M14 29h3M18 29h1M21 29h1M63 29h1M14 30h2M17 30h1M20 30h3M61 30h2M16 31h1M19 31h1M22 31h2M58 31h3M64 31h1M66 31h1M17 32h1M19 32h1M60 32h1M65 32h2M14 33h1M20 33h1M54 33h2M60 33h1M62 33h1M64 33h3M14 34h2M17 34h1M21 34h2M56 34h4M63 34h4M14 35h1M16 35h1M20 35h1M31 35h1M57 35h1M62 35h1M64 35h1M17 36h1M19 36h1M51 36h2M58 36h1M20 37h1M37 37h1M53 37h2M57 37h1M60 37h1M62 37h1M15 38h2M21 38h1M49 38h2M53 38h1M55 38h2M59 38h1M61 38h1M63 38h2M15 39h1M17 39h2M21 39h1M28 39h1M46 39h1M51 39h2M58 39h1M60 39h6M19 40h1M22 40h1M30 40h2M43 40h1M46 40h2M50 40h1M55 40h1M57 40h1M59 40h1M63 40h2M19 41h1M22 41h1M29 41h1M31 41h2M44 41h2M48 41h2M52 41h1M54 41h1M56 41h1M58 41h3M17 42h1M19 42h1M22 42h1M28 42h1M31 42h3M44 42h1M51 42h1M53 42h1M55 42h1M58 42h4M17 43h1M20 43h1M22 43h1M30 43h4M45 43h1M47 43h1M49 43h1M52 43h1M54 43h4M59 43h2M16 44h2M20 44h1M23 44h1M30 44h2M46 44h1M48 44h1M50 44h1M53 44h6M17 45h1M20 45h1M23 45h1M30 45h1M45 45h1M49 45h4M54 45h5M18 46h1M21 46h1M24 46h1M30 46h1M45 46h3M50 46h3M55 46h2M18 47h1M21 47h1M24 47h1M44 47h1M46 47h3M51 47h1M19 48h1M22 48h1M27 48h2M43 48h2M46 48h2M22 49h1M29 49h1M20 50h1M23 50h1M26 50h1M47 50h1M21 51h1M23 51h1M28 51h1M25 52h1M27 52h1M16 53h1M27 53h1M22 54h1M26 54h1M13 55h1M28 56h1M15 60h1M22 60h1M23 63h1" />
<path stroke="#f83818" d="M58 14h2M58 15h3M38 16h2M45 16h1M59 16h2M38 17h2M44 17h3M37 18h3M44 18h3M25 19h2M31 19h1M37 19h3M43 19h4M58 19h2M62 19h2M25 20h2M30 20h2M37 20h1M39 20h1M44 20h1M51 20h2M57 20h3M63 20h1M23 21h1M25 21h2M29 21h3M38 21h1M43 21h1M45 21h1M50 21h4M58 21h2M22 22h2M25 22h2M29 22h4M37 22h1M39 22h1M42 22h1M44 22h1M51 22h1M53 22h1M58 22h2M61 22h1M22 23h3M26 23h1M30 23h1M32 23h1M50 23h1M52 23h1M57 23h2M60 23h3M23 24h2M26 24h1M31 24h1M51 24h1M57 24h2M60 24h3M20 25h1M23 25h5M30 25h1M32 25h1M57 25h1M59 25h3M20 26h3M24 26h4M31 26h1M56 26h1M58 26h3M20 27h8M56 27h4M62 27h1M21 28h8M55 28h3M60 28h3M22 29h7M54 29h9M23 30h6M53 30h8M20 31h2M24 31h6M52 31h6M20 32h10M31 32h1M51 32h9M21 33h10M32 33h1M36 33h3M49 33h5M56 33h4M23 34h9M35 34h1M37 34h5M46 34h1M48 34h1M50 34h6M21 35h10M32 35h1M34 35h1M36 35h3M45 35h1M47 35h1M49 35h8M20 36h1M24 36h6M33 36h1M35 36h1M37 36h1M40 36h1M42 36h1M44 36h1M46 36h5M53 36h5M25 37h4M32 37h1M34 37h1M36 37h1M39 37h1M41 37h12M55 37h2M26 38h3M31 38h1M33 38h1M35 38h3M40 38h2M43 38h6M51 38h2M26 39h2M29 39h2M32 39h10M43 39h3M47 39h4M26 40h2M29 40h1M32 40h11M44 40h2M48 40h2M25 41h3M33 41h10M25 42h2M34 42h10M25 43h2M36 43h8M27 44h2M34 44h10M63 44h1M65 44h2M26 45h3M32 45h12M64 45h3M25 46h1M27 46h3M32 46h12M63 46h1M25 47h5M31 47h12M23 48h4M29 48h1M31 48h11M23 49h4M30 49h1M33 49h8M42 49h1M45 49h1M24 50h2M30 50h1M35 50h4M42 50h4M58 50h1M60 50h3M24 51h2M30 51h1M42 51h5M59 51h1M61 51h2M23 52h2M30 52h1M32 52h3M44 52h1M46 52h1M60 52h2M28 53h1M30 53h1M33 53h2M44 53h1M61 53h2M23 54h1M29 54h1M23 55h3M29 55h1M22 56h2M26 56h1M21 57h2M25 57h2M28 57h1M30 57h1M35 57h1M55 57h1M20 58h1M24 58h3M28 58h1M30 58h2M34 58h1M54 58h1M56 58h1M18 59h2M24 59h4M29 59h1M31 59h1M33 59h3M38 59h1M53 59h1M55 59h3M16 60h3M24 60h4M29 60h1M33 60h2M39 60h1M54 60h2M16 61h2M26 61h1M29 61h1M33 61h2M38 61h1M40 61h1M45 61h1M47 61h1M55 61h2M17 62h1M25 62h2M28 62h1M34 62h1M38 62h3M46 62h1M25 63h1M28 63h1M39 63h2M47 63h2M28 64h1M39 64h2M46 64h3M47 65h2" />
<path stroke="#f8f8f8" d="M25 16h1M58 16h1M22 17h1M24 17h1M26 17h1M58 17h3M21 18h1M24 18h1M60 18h1M22 19h2M19 20h1M21 20h2M27 20h1M38 20h1M43 20h1M45 20h1M61 20h2M18 21h1M21 21h1M27 21h1M37 21h1M39 21h1M42 21h1M44 21h1M57 21h1M62 21h2M19 22h2M27 22h1M36 22h1M38 22h1M43 22h1M50 22h1M52 22h1M57 22h1M63 22h1M19 23h2M27 23h1M31 23h1M36 23h4M42 23h3M49 23h1M51 23h1M56 23h1M17 24h1M19 24h1M21 24h1M27 24h2M30 24h1M32 24h1M36 24h4M41 24h4M49 24h2M52 24h1M56 24h1M16 25h1M18 25h1M28 25h1M31 25h1M35 25h1M37 25h3M41 25h4M46 25h2M49 25h3M55 25h2M17 26h2M28 26h1M30 26h1M32 26h1M35 26h1M37 26h3M41 26h3M45 26h2M48 26h4M55 26h1M18 27h1M28 27h2M31 27h2M34 27h2M37 27h2M40 27h4M45 27h2M48 27h3M54 27h2M64 27h1M18 28h2M29 28h1M31 28h3M35 28h1M37 28h2M40 28h3M44 28h2M47 28h4M53 28h2M64 28h2M17 29h1M19 29h2M29 29h1M31 29h3M35 29h4M40 29h3M44 29h2M47 29h3M52 29h2M64 29h2M16 30h1M18 30h2M29 30h2M32 30h2M35 30h14M51 30h2M63 30h2M15 31h1M17 31h2M30 31h1M32 31h3M36 31h11M49 31h3M61 31h3M18 32h1M30 32h1M33 32h2M39 32h7M48 32h3M61 32h2M15 33h1M18 33h2M31 33h1M42 33h2M46 33h3M61 33h1M63 33h1M16 34h1M20 34h1M34 34h1M36 34h1M44 34h2M47 34h1M49 34h1M60 34h3M15 35h1M17 35h3M33 35h1M35 35h1M42 35h3M46 35h1M48 35h1M58 35h4M63 35h1M16 36h1M18 36h1M31 36h2M34 36h1M36 36h1M39 36h1M41 36h1M43 36h1M45 36h1M59 36h2M21 37h1M23 37h1M30 37h2M33 37h1M35 37h1M38 37h1M40 37h1M58 37h2M61 37h1M18 38h3M22 38h3M30 38h1M32 38h1M34 38h1M38 38h2M54 38h1M57 38h2M60 38h1M62 38h1M19 39h2M22 39h3M31 39h1M53 39h5M16 40h3M20 40h2M23 40h2M51 40h4M56 40h1M58 40h1M15 41h4M20 41h2M23 41h1M30 41h1M46 41h2M50 41h2M53 41h1M55 41h1M57 41h1M15 42h2M18 42h1M20 42h2M23 42h1M29 42h2M45 42h6M52 42h1M54 42h1M56 42h1M16 43h1M18 43h2M21 43h1M23 43h1M29 43h1M46 43h1M48 43h1M50 43h1M53 43h1M18 44h2M21 44h2M24 44h1M45 44h1M49 44h1M51 44h1M64 44h1M18 45h2M21 45h2M24 45h1M46 45h1M60 45h4M19 46h2M22 46h2M59 46h4M64 46h1M19 47h2M22 47h2M53 47h1M57 47h4M20 48h2M52 48h5M20 49h2M49 49h2M53 49h6M21 50h2M50 50h3M55 50h3M59 50h1M22 51h1M27 51h1M33 51h1M48 51h1M51 51h4M57 51h2M60 51h1M19 52h2M28 52h1M35 52h1M37 52h3M42 52h1M49 52h1M51 52h4M59 52h1M17 53h6M26 53h1M32 53h1M36 53h4M42 53h1M47 53h1M49 53h2M52 53h4M15 54h7M31 54h1M34 54h1M37 54h3M41 54h1M45 54h1M48 54h4M53 54h2M14 55h8M31 55h2M37 55h3M42 55h3M46 55h2M50 55h3M14 56h8M30 56h3M34 56h2M37 56h3M42 56h3M46 56h4M51 56h3M14 57h7M31 57h2M34 57h1M37 57h3M41 57h1M43 57h3M47 57h3M51 57h4M15 58h5M33 58h1M35 58h1M37 58h3M41 58h1M43 58h3M47 58h3M52 58h2M55 58h1M15 59h3M39 59h2M44 59h3M54 59h1M38 60h1M40 60h1M44 60h3M25 61h1M39 61h1M46 61h1M45 62h1M47 62h1M46 63h1M27 65h1M25 66h2" />
</svg>