<svg xmlns="http://www.w3.org/2000/svg" viewBox="0 -0.5 80 80" shape-rendering="crispEdges">
<metadata>Made with Pixels to Svg https://codepen.io/shshaw/pen/XbxvNj</metadata>
<path stroke="#f868c8" d="M19 18h1M26 19h1M30 20h1M22 21h2M39 21h1M22 22h4M38 22h1M40 22h1M42 22h1M51 22h1M23 23h4M30 23h1M36 23h1M39 23h1M41 23h5M23 24h8M35 24h1M37 24h2M40 24h9M50 24h1M55 24h2M24 25h7M34 25h2M37 25h3M41 25h7M49 25h1M51 25h1M53 25h4M25 26h4M30 26h1M34 26h6M41 26h8M50 26h1M52 26h6M26 27h2M29 27h3M33 27h7M41 27h17M26 28h2M29 28h3M33 28h7M41 28h17M29 29h4M35 29h3M40 29h17M29 30h6M38 30h17M29 31h25M23 32h1M29 32h2M32 32h1M34 32h4M39 32h1M41 32h12M22 33h4M28 33h3M32 33h1M34 33h4M39 33h1M41 33h11M59 33h4M23 34h2M28 34h3M32 34h1M34 34h4M39 34h1M41 34h10M55 34h6M24 35h1M28 35h4M34 35h4M40 35h11M54 35h5M23 36h2M28 36h23M56 36h1M21 37h4M28 37h4M33 37h1M37 37h2M40 37h12M23 38h1M28 38h5M39 38h13M56 38h5M28 39h7M38 39h14M28 40h7M37 40h13M28 41h21M24 42h1M28 42h22M23 43h2M29 43h24M55 43h3M21 44h4M29 44h30M20 45h5M29 45h25M56 45h2M20 46h5M29 46h19M51 46h2M57 46h3M20 47h2M25 47h1M30 47h21M56 47h2M25 48h1M30 48h22M53 48h1M31 49h21M53 49h3M57 49h1M59 49h1M31 50h21M53 50h3M58 50h1M31 51h20M52 51h4M57 51h1M59 51h1M30 52h1M32 52h19M52 52h3M56 52h4M29 53h1M31 53h20M52 53h3M56 53h3M28 54h1M30 54h1M32 54h19M52 54h2M55 54h4M29 55h1M31 55h1M34 55h9M46 55h4M51 55h1M54 55h4M30 56h1M32 56h2M37 56h5M45 56h1M47 56h3M52 56h6M29 57h1M31 57h1M33 57h4M41 57h1M46 57h3M50 57h7M30 58h1M32 58h6M42 58h1M45 58h1M47 58h2M50 58h5M29 59h1M31 59h6M42 59h6M49 59h3M34 60h3M46 60h2M49 60h1M33 61h1M35 61h1M45 61h1M47 61h1" />
<path stroke="#000000" d="M20 18h3M19 19h1M25 19h1M35 19h4M19 20h2M28 20h2M33 20h1M40 20h1M20 21h2M32 21h1M42 21h1M56 21h6M21 22h1M32 22h1M44 22h1M53 22h2M62 22h1M21 23h1M31 23h1M46 23h5M60 23h3M22 24h1M31 24h1M58 24h5M23 25h1M31 25h1M57 25h5M24 26h1M31 26h1M40 26h1M58 26h3M25 27h1M40 27h1M58 27h2M25 28h1M32 28h1M40 28h1M58 28h1M26 29h1M33 29h1M39 29h1M57 29h1M27 30h1M35 30h3M56 30h1M22 31h2M26 31h1M54 31h1M24 32h3M33 32h1M38 32h1M53 32h1M59 32h4M21 33h1M33 33h1M38 33h1M52 33h1M55 33h3M63 33h1M22 34h1M33 34h1M38 34h1M52 34h2M61 34h2M23 35h1M25 35h1M51 35h1M59 35h2M21 36h2M25 36h1M51 36h1M57 36h2M20 37h1M25 37h1M35 37h2M52 37h1M57 37h4M21 38h2M24 38h1M33 38h1M37 38h2M52 38h1M61 38h1M23 39h1M37 39h1M52 39h1M57 39h4M23 40h1M35 40h2M53 40h1M57 40h1M19 41h1M22 41h1M54 41h2M58 41h1M20 42h1M56 42h4M18 43h1M60 43h1M18 44h1M59 44h1M17 45h1M60 45h1M17 46h2M49 46h2M60 46h1M19 47h1M22 47h3M52 47h2M58 47h2M20 48h2M52 48h1M54 48h4M60 48h1M25 49h1M52 49h1M60 49h1M52 50h1M60 50h1M51 51h1M60 51h1M26 52h1M51 52h1M60 52h1M26 53h1M51 53h1M51 54h1M59 54h1M27 55h1M50 55h1M50 56h1M58 56h1M28 57h1M40 57h1M49 57h1M57 57h1M29 58h1M38 58h1M41 58h1M49 58h1M55 58h2M37 59h3M41 59h1M48 59h1M53 59h2M40 60h1M48 60h1M50 60h2M29 61h1M36 61h1M40 61h1M48 61h2M30 62h6M41 62h7" />
<path stroke="#683800" d="M23 18h1M20 19h5M21 20h2M27 20h1M34 20h1M39 20h1M31 21h1M41 21h1M55 21h1M62 21h1M20 22h1M43 22h1M45 22h1M52 22h1M55 22h7M63 22h1M22 23h1M37 23h2M56 23h4M63 23h1M36 24h1M39 24h1M57 24h1M63 24h1M36 25h1M40 25h1M62 25h1M29 26h1M61 26h1M28 27h1M32 27h1M60 27h1M28 28h1M27 29h1M34 29h1M38 29h1M55 30h1M21 31h1M20 32h1M31 32h1M40 32h1M26 33h1M31 33h1M40 33h1M58 33h1M25 34h1M31 34h1M40 34h1M51 34h1M54 34h1M32 35h2M38 35h2M52 35h2M52 36h4M32 37h1M34 37h1M39 37h1M53 37h4M34 38h3M53 38h3M24 39h1M35 39h2M53 39h4M54 40h3M21 41h1M56 41h2M18 42h1M19 45h1M54 45h2M58 45h1M19 46h1M48 46h1M53 46h1M56 46h1M51 47h1M54 47h2M56 49h1M25 50h1M56 50h1M26 51h1M56 51h1M55 52h1M55 53h1M59 53h1M27 54h1M31 54h1M54 54h1M32 55h2M52 55h2M58 55h1M28 56h1M34 56h3M51 56h1M37 57h3M39 58h2M30 59h1M40 59h1M52 59h1M29 60h1M31 60h3M37 60h1M41 60h1M43 60h3M31 61h1M34 61h1M43 61h1M46 61h1" />
<path stroke="#f8f8f8" d="M23 20h4M35 20h4M24 21h7M33 21h6M40 21h1M26 22h6M33 22h5M39 22h1M41 22h1M27 23h3M32 23h4M40 23h1M51 23h5M32 24h3M49 24h1M51 24h4M32 25h2M48 25h1M50 25h1M52 25h1M32 26h2M49 26h1M51 26h1M28 29h1M28 30h1M27 31h2M21 32h2M27 32h2M27 33h1M26 34h2M26 35h2M26 36h2M26 37h2M25 38h3M25 39h3M24 40h4M50 40h3M23 41h5M49 41h5M19 42h1M21 42h3M25 42h3M50 42h6M19 43h4M25 43h4M53 43h2M58 43h2M19 44h2M25 44h4M18 45h1M25 45h4M59 45h1M25 46h4M54 46h2M26 47h4M26 48h4M58 48h2M26 49h5M58 49h1M26 50h5M57 50h1M59 50h1M27 51h4M58 51h1M27 52h3M31 52h1M27 53h2M30 53h1M29 54h1M28 55h1M30 55h1M43 55h3M29 56h1M31 56h1M42 56h3M46 56h1M30 57h1M32 57h1M42 57h4M31 58h1M43 58h2M46 58h1M30 60h1M42 60h1M30 61h1M32 61h1M41 61h2M44 61h1" />
</svg>