<svg xmlns="http://www.w3.org/2000/svg" viewBox="0 -0.5 80 80" shape-rendering="crispEdges">
<metadata>Made with Pixels to Svg https://codepen.io/shshaw/pen/XbxvNj</metadata>
<path stroke="#f87038" d="M49 18h2M49 19h2M54 19h1M21 20h2M40 20h4M56 20h1M21 21h2M27 21h1M37 21h9M34 22h1M36 22h1M39 22h1M43 22h5M19 23h1M31 23h1M33 23h1M35 23h3M40 23h3M45 23h3M30 24h3M34 24h1M37 24h3M42 24h3M47 24h2M24 25h2M30 25h5M36 25h1M38 25h1M40 25h1M43 25h4M48 25h1M24 26h2M29 26h1M32 26h2M35 26h1M37 26h1M39 26h1M41 26h1M43 26h1M45 26h3M50 26h1M29 27h1M32 27h2M35 27h2M38 27h1M40 27h1M42 27h6M49 27h1M51 27h1M55 27h1M58 27h1M29 28h4M34 28h6M41 28h1M43 28h6M50 28h2M29 29h4M34 29h1M37 29h8M47 29h2M50 29h1M52 29h1M58 29h1M30 30h3M34 30h1M37 30h8M47 30h2M50 30h1M52 30h1M59 30h1M30 31h3M34 31h15M50 31h3M54 31h1M58 31h1M27 32h3M32 32h1M34 32h15M50 32h3M54 32h2M57 32h1M59 32h1M24 33h8M35 33h13M49 33h3M53 33h4M58 33h1M22 34h8M35 34h13M49 34h3M53 34h6M22 35h6M30 35h4M36 35h11M48 35h3M52 35h6M21 36h1M23 36h4M28 36h7M38 36h7M47 36h3M53 36h3M20 37h1M22 37h1M24 37h2M27 37h10M40 37h3M45 37h3M50 37h3M21 38h1M23 38h1M26 38h1M29 38h4M48 38h7M26 39h1M28 39h3M46 39h11M27 40h3M49 40h9M28 41h1M53 41h6M55 42h4M56 43h4M35 44h2M57 44h3M34 45h1M37 45h6M58 45h1M34 46h1M42 46h2M58 46h1M62 46h1M18 47h2M34 47h2M43 47h1M18 48h2M35 48h3M41 48h3M37 49h1M39 49h1M41 49h2M59 50h1M61 52h2M61 53h2" />
<path stroke="#404868" d="M58 18h1M40 19h1M37 20h1M33 21h1M31 22h1M29 24h1M28 26h1M34 33h1M32 34h2M35 36h1M37 36h1M39 37h1M33 39h4M33 40h11M32 41h5M38 41h3M42 41h6M32 42h1M37 42h5M47 42h2M31 43h18M31 44h4M37 44h13M20 45h1M30 45h4M44 45h1M46 45h1M48 45h1M31 46h1M45 46h1M47 46h1M49 46h1M30 47h1M32 47h1M46 47h1M48 47h1M31 48h1M45 48h1M26 49h3M52 49h1M26 50h2M51 50h4M30 51h1M53 51h2M31 52h1M50 52h1M56 52h1M32 53h1M52 53h1M55 53h1M35 55h1M42 55h1M44 55h1M48 55h1M32 56h1M44 56h1M49 56h1M39 57h1M30 58h3M39 58h1M46 58h2M38 59h1M45 59h4M35 60h1M46 60h2" />
<path stroke="#000000" d="M41 19h3M38 20h2M44 20h2M34 21h3M46 21h2M32 22h1M37 22h2M40 22h3M48 22h1M30 23h1M38 23h2M43 23h2M48 23h1M36 24h1M45 24h2M49 24h1M54 24h2M29 25h1M35 25h1M47 25h1M49 25h2M53 25h1M56 25h2M34 26h1M48 26h1M51 26h1M54 26h1M58 26h1M28 27h1M34 27h1M48 27h1M52 27h1M59 27h1M28 28h1M33 28h1M49 28h1M52 28h1M55 28h1M59 28h1M28 29h1M33 29h1M49 29h1M53 29h1M55 29h1M60 29h1M29 30h1M33 30h1M49 30h1M53 30h2M60 30h1M27 31h3M33 31h1M49 31h1M53 31h1M60 31h1M24 32h3M30 32h2M33 32h1M49 32h1M53 32h1M60 32h1M22 33h2M32 33h2M48 33h1M52 33h1M60 33h1M21 34h1M30 34h2M34 34h1M48 34h1M52 34h1M59 34h1M20 35h1M28 35h2M34 35h2M47 35h1M51 35h1M58 35h1M20 36h1M27 36h1M36 36h1M45 36h2M50 36h3M56 36h2M19 37h1M26 37h1M37 37h2M43 37h2M48 37h2M53 37h3M19 38h1M24 38h2M33 38h15M55 38h2M19 39h1M23 39h1M25 39h1M31 39h2M37 39h9M57 39h1M20 40h1M22 40h1M26 40h1M30 40h1M32 40h1M44 40h5M58 40h1M20 41h1M22 41h1M27 41h1M29 41h1M31 41h1M37 41h1M41 41h1M48 41h5M59 41h1M21 42h1M28 42h2M31 42h1M33 42h4M42 42h5M49 42h1M53 42h2M59 42h1M30 43h1M49 43h1M55 43h1M60 43h1M30 44h1M50 44h1M56 44h1M60 44h1M29 45h1M35 45h2M43 45h1M45 45h1M47 45h1M49 45h2M57 45h1M59 45h1M29 46h2M32 46h2M37 46h5M44 46h1M46 46h1M48 46h1M50 46h1M57 46h1M59 46h1M29 47h1M31 47h1M33 47h1M42 47h1M44 47h2M47 47h1M49 47h2M57 47h2M26 48h5M32 48h3M44 48h1M46 48h7M25 49h1M29 49h8M43 49h9M53 49h3M25 50h1M28 50h12M41 50h10M55 50h2M26 51h4M31 51h22M55 51h2M32 52h17M51 52h5M33 53h15M53 53h2M34 54h14M36 55h6M45 55h3M33 56h6M45 56h4M30 57h9M45 57h6M29 58h1M33 58h6M45 58h1M48 58h3M29 59h9M49 59h2M30 60h5M45 60h1M48 60h3M46 61h4" />
<path stroke="#f8f8f8" d="M33 22h1M35 22h1M32 23h1M34 23h1M33 24h1M35 24h1M40 24h2M37 25h1M39 25h1M41 25h2M54 25h2M30 26h2M36 26h1M38 26h1M40 26h1M42 26h1M44 26h1M49 26h1M55 26h3M30 27h2M37 27h1M39 27h1M41 27h1M50 27h1M56 27h2M40 28h1M42 28h1M56 28h3M35 29h2M45 29h2M51 29h1M56 29h2M59 29h1M35 30h2M45 30h2M51 30h1M55 30h4M55 31h3M59 31h1M56 32h1M58 32h1M57 33h1M59 33h1M21 35h1M22 36h1M21 37h1M23 37h1M20 38h1M22 38h1M27 38h2M20 39h3M27 39h1M21 40h1M21 41h1M35 46h2M36 47h6M38 48h3M38 49h1M40 49h1M40 50h1" />
</svg>