<svg xmlns="http://www.w3.org/2000/svg" viewBox="0 -0.5 80 80" shape-rendering="crispEdges">
<metadata>Made with Pixels to Svg https://codepen.io/shshaw/pen/XbxvNj</metadata>
<path stroke="#000000" d="M13 12h2M12 13h1M15 13h1M12 14h1M17 14h1M13 15h1M19 15h1M13 16h1M20 16h1M14 17h1M21 17h1M14 18h1M22 18h1M14 19h1M23 19h1M15 20h1M15 21h1M24 21h1M16 22h1M28 22h1M25 23h1M28 23h2M40 23h2M17 24h1M28 24h1M30 24h1M38 24h2M41 24h1M17 25h1M26 25h1M28 25h1M30 25h1M36 25h2M40 25h1M18 26h1M27 26h1M29 26h1M31 26h1M35 26h1M39 26h1M18 27h1M27 27h1M29 27h1M31 27h1M34 27h1M38 27h1M18 28h1M27 28h1M29 28h1M31 28h1M33 28h1M37 28h1M27 29h1M30 29h1M32 29h1M36 29h1M41 29h6M19 30h1M28 30h1M30 30h2M35 30h1M38 30h3M44 30h2M55 30h6M19 31h1M27 31h4M34 31h4M41 31h3M50 31h3M62 31h2M19 32h1M25 32h2M29 32h1M33 32h2M38 32h3M47 32h2M65 32h2M25 33h1M28 33h2M36 33h2M44 33h2M67 33h1M20 34h1M24 34h1M27 34h2M34 34h3M42 34h2M67 34h1M20 35h1M24 35h1M27 35h2M32 35h2M37 35h1M67 35h1M21 36h1M24 36h1M27 36h1M32 36h1M38 36h1M66 36h1M21 37h2M25 37h1M27 37h1M31 37h1M35 37h2M39 37h1M66 37h1M19 38h2M23 38h1M26 38h1M31 38h1M34 38h3M39 38h1M65 38h1M24 39h4M31 39h1M34 39h4M39 39h1M64 39h1M26 40h1M32 40h1M38 40h1M63 40h1M17 41h1M24 41h2M32 41h2M37 41h1M61 41h2M17 42h1M23 42h1M25 42h1M27 42h2M31 42h1M34 42h3M59 42h2M18 43h1M22 43h1M25 43h2M28 43h1M30 43h4M36 43h1M57 43h2M18 44h2M22 44h1M24 44h1M28 44h2M37 44h1M55 44h2M17 45h1M23 45h1M26 45h1M35 45h1M38 45h4M53 45h2M16 46h1M20 46h4M25 46h1M27 46h1M36 46h1M38 46h1M42 46h3M51 46h2M15 47h1M19 47h1M23 47h2M26 47h3M34 47h2M38 47h1M45 47h6M18 48h1M24 48h3M29 48h2M32 48h1M34 48h1M37 48h1M39 48h1M51 48h2M14 49h1M18 49h1M25 49h1M31 49h3M35 49h3M39 49h1M53 49h1M14 50h1M17 50h1M24 50h1M34 50h1M36 50h2M39 50h1M54 50h1M15 51h2M24 51h1M34 51h1M36 51h1M38 51h2M54 51h1M24 52h1M34 52h1M36 52h1M40 52h2M54 52h1M25 53h1M33 53h1M35 53h2M42 53h1M54 53h1M26 54h1M31 54h2M43 54h2M53 54h1M27 55h4M45 55h3M50 55h3M48 56h1M51 56h1M49 57h1M52 57h1M50 58h1M53 58h1M50 59h1M54 59h1M51 60h1M55 60h1M51 61h1M55 61h1M52 62h1M56 62h1M52 63h1M56 63h1M53 64h1M56 64h1M54 65h2" />
<path stroke="#f8f8f8" d="M13 13h1M16 14h1M17 15h1M14 16h1M16 16h1M18 16h1M15 17h1M17 17h1M16 18h1M18 18h1M20 18h1M17 19h1M19 19h1M16 20h1M28 26h1M28 27h1M28 28h1M28 29h2M29 30h1M20 31h1M53 31h9M21 32h1M27 32h1M49 32h4M20 33h1M26 33h2M46 33h3M57 33h1M59 33h1M61 33h1M21 34h1M44 34h2M56 34h1M58 34h1M60 34h1M62 34h1M64 34h1M25 35h1M57 35h1M59 35h1M61 35h1M63 35h1M65 35h1M25 36h1M33 36h2M37 36h1M62 36h1M64 36h1M26 37h1M33 37h2M38 37h1M65 37h1M38 38h1M62 38h1M32 39h1M38 39h1M61 39h1M63 39h1M27 40h1M33 40h1M37 40h1M62 40h1M26 41h2M30 41h1M34 41h3M26 42h1M29 42h2M29 43h1M23 44h1M24 46h1M35 48h1M38 50h1M35 52h1" />
<path stroke="#d850c0" d="M14 13h1M15 14h1M14 15h1M18 15h1M15 16h1M19 16h1M16 17h1M19 17h2M15 18h1M17 18h1M21 18h1M18 19h1M21 19h2M18 20h3M22 20h2M16 21h2M19 21h3M23 21h1M17 22h2M20 22h2M23 22h2M17 23h3M21 23h2M24 23h1M18 24h2M21 24h2M24 24h2M40 24h1M19 25h2M22 25h2M25 25h1M38 25h2M22 26h2M25 26h2M36 26h2M19 27h2M23 27h2M26 27h1M35 27h1M19 28h3M23 28h2M26 28h1M34 28h1M19 29h4M24 29h1M26 29h1M33 29h1M21 30h2M24 30h2M27 30h1M32 30h1M43 30h1M22 31h2M25 31h1M31 31h1M40 31h1M20 32h1M23 32h1M28 32h1M30 32h2M36 32h2M53 32h1M62 32h3M21 33h1M23 33h2M30 33h1M49 33h1M54 33h3M58 33h1M60 33h1M65 33h2M22 34h1M25 34h1M29 34h1M46 34h1M50 34h6M57 34h1M59 34h1M61 34h1M63 34h1M21 35h3M29 35h1M34 35h3M41 35h4M47 35h10M58 35h1M60 35h1M62 35h1M64 35h1M66 35h1M28 36h1M39 36h3M45 36h6M60 36h2M63 36h1M65 36h1M23 37h2M28 37h1M32 37h1M42 37h5M53 37h7M64 37h1M21 38h2M27 38h1M32 38h1M40 38h4M47 38h6M56 38h6M63 38h1M19 39h5M44 39h12M58 39h3M62 39h1M18 40h3M25 40h1M39 40h19M60 40h2M21 41h3M48 41h12M19 42h4M37 42h11M55 42h4M19 43h1M27 43h1M42 43h13M56 43h1M20 44h2M27 44h1M30 44h2M33 44h1M38 44h4M48 44h7M18 45h3M22 45h1M27 45h4M32 45h1M42 45h2M45 45h3M52 45h1M17 46h3M28 46h4M33 46h1M39 46h3M46 46h5M16 47h3M29 47h2M32 47h1M39 47h6M15 48h3M27 48h2M31 48h1M43 48h8M15 49h3M26 49h1M29 49h2M40 49h3M47 49h6M15 50h2M26 50h3M42 50h5M50 50h4M25 51h1M28 51h4M40 51h2M45 51h5M52 51h2M25 52h3M42 52h3M47 52h5M53 52h1M26 53h5M43 53h4M49 53h4M45 54h4M50 54h3M48 55h2M49 56h2M50 57h2M51 58h2M51 59h3M52 60h3M52 61h3M53 62h3M53 63h3M54 64h2" />
<path stroke="#586070" d="M16 13h1M13 14h2M18 14h1M15 15h2M17 16h1M18 17h1M19 18h1M15 19h2M20 19h1M17 20h1M21 20h1M24 20h1M18 21h1M22 21h1M19 22h1M22 22h1M25 22h1M16 23h1M20 23h1M23 23h1M20 24h1M23 24h1M26 24h1M29 24h1M18 25h1M21 25h1M24 25h1M29 25h1M19 26h3M24 26h1M30 26h1M38 26h1M21 27h2M25 27h1M30 27h1M36 27h2M22 28h1M25 28h1M30 28h1M35 28h2M18 29h1M23 29h1M25 29h1M31 29h1M34 29h2M20 30h1M23 30h1M26 30h1M33 30h2M41 30h2M53 30h2M61 30h1M21 31h1M24 31h1M26 31h1M32 31h2M38 31h2M49 31h1M64 31h1M22 32h1M24 32h1M32 32h1M35 32h1M46 32h1M54 32h8M19 33h1M22 33h1M31 33h5M50 33h4M62 33h3M23 34h1M26 34h1M30 34h4M41 34h1M47 34h3M65 34h2M26 35h1M30 35h2M39 35h2M45 35h2M22 36h2M26 36h1M29 36h3M35 36h2M42 36h3M51 36h9M29 37h2M37 37h1M40 37h2M47 37h6M60 37h4M24 38h2M28 38h3M33 38h1M37 38h1M44 38h3M53 38h3M64 38h1M18 39h1M28 39h3M33 39h1M40 39h4M56 39h2M17 40h1M21 40h4M28 40h4M34 40h3M58 40h2M18 41h3M28 41h2M31 41h1M38 41h10M60 41h1M18 42h1M24 42h1M32 42h2M48 42h7M20 43h2M23 43h2M34 43h2M37 43h5M55 43h1M25 44h2M32 44h1M34 44h3M42 44h6M21 45h1M24 45h2M31 45h1M33 45h2M36 45h2M44 45h1M48 45h4M26 46h1M32 46h1M34 46h2M37 46h1M45 46h1M25 47h1M31 47h1M33 47h1M36 47h2M14 48h1M33 48h1M36 48h1M38 48h1M40 48h3M27 49h2M34 49h1M38 49h1M43 49h4M25 50h1M29 50h5M35 50h1M40 50h2M47 50h3M26 51h2M32 51h2M35 51h1M42 51h3M50 51h2M28 52h6M45 52h2M52 52h1M31 53h2M47 53h2M53 53h1M27 54h4M49 54h1" />
</svg>