<svg xmlns="http://www.w3.org/2000/svg" viewBox="0 -0.5 80 80" shape-rendering="crispEdges">
<metadata>Made with Pixels to Svg https://codepen.io/shshaw/pen/XbxvNj</metadata>
<path stroke="#604050" d="M31 31h1M52 31h1M54 31h1M30 32h1M40 32h2M49 32h1M38 33h1M48 33h1M54 33h1M33 35h1M53 35h1M34 37h1M34 38h1M27 39h1M32 40h1M52 40h1M34 41h1M44 41h1M24 42h1M46 42h1M33 43h1M44 43h2M52 43h2M23 44h1M29 44h1M32 44h1M37 44h1M42 44h1M51 44h1M54 44h2M28 45h1M32 45h2M49 45h2M54 45h3M22 46h1M24 46h2M28 46h1M31 46h4M48 46h3M53 46h4M23 47h4M29 47h7M38 47h1M48 47h9M23 48h4M29 48h2M48 48h8M22 49h1M26 49h2M43 49h2M49 49h4M40 50h6M31 51h2M38 51h1M41 51h7M30 52h1M38 52h1M41 52h9M54 52h1M21 53h1M26 53h2M45 53h5M53 53h2M25 54h1M48 54h2M57 54h1M31 55h1M30 56h2M26 57h1M29 57h2M46 57h1M27 58h1M45 58h2M37 59h2M53 59h1M36 60h2M53 60h1M48 61h1M54 61h1M27 62h1M29 62h3M36 62h3M28 63h1M32 63h1M48 63h1M54 63h1M32 66h1" />
<path stroke="#000000" d="M32 31h1M53 31h1M33 32h2M42 32h3M50 32h2M54 32h1M30 33h1M32 33h1M35 33h2M39 33h1M45 33h3M51 33h2M30 34h1M33 34h1M37 34h1M50 34h1M53 34h1M31 35h1M49 35h1M31 36h1M34 36h1M49 36h1M52 36h1M32 37h1M52 37h1M32 38h1M51 38h1M28 39h1M33 39h1M51 39h1M26 40h1M29 40h1M25 41h1M29 41h1M32 41h1M35 41h1M45 41h2M52 41h1M28 42h1M32 42h1M36 42h1M43 42h2M52 42h2M24 43h1M28 43h5M37 43h1M42 43h2M51 43h1M54 43h2M28 44h1M33 44h1M49 44h2M56 44h1M23 45h1M27 45h1M34 45h1M47 45h2M57 45h1M27 46h1M35 46h1M45 46h3M57 46h1M22 47h1M27 47h2M36 47h1M41 47h1M44 47h4M57 47h1M22 48h1M27 48h2M31 48h8M43 48h5M56 48h1M21 49h1M28 49h4M37 49h6M45 49h4M53 49h3M21 50h1M27 50h2M39 50h1M46 50h7M54 50h1M21 51h1M26 51h1M40 51h1M48 51h2M51 51h1M54 51h1M21 52h1M26 52h1M33 52h1M36 52h1M40 52h1M50 52h1M52 52h1M55 52h1M31 53h1M34 53h2M37 53h2M40 53h5M50 53h1M52 53h1M56 53h1M22 54h1M28 54h1M31 54h1M34 54h1M37 54h1M39 54h1M45 54h3M50 54h4M22 55h1M26 55h1M29 55h2M35 55h1M37 55h2M48 55h3M54 55h1M57 55h1M23 56h1M26 56h1M35 56h1M37 56h1M39 56h1M46 56h3M52 56h3M57 56h1M23 57h1M35 57h1M37 57h1M39 57h1M45 57h1M47 57h1M50 57h2M55 57h3M24 58h1M26 58h1M35 58h1M37 58h1M39 58h2M44 58h1M47 58h3M58 58h1M25 59h3M35 59h2M39 59h2M44 59h3M59 59h1M26 60h2M34 60h1M38 60h3M44 60h1M56 60h3M27 61h1M34 61h1M36 61h4M43 61h2M55 61h2M34 62h2M39 62h5M48 62h1M57 62h1M34 63h1M36 63h3M43 63h1M46 63h2M49 63h5M57 63h1M28 64h1M33 64h1M44 64h2M51 64h1M53 64h1M57 64h1M27 65h1M32 65h1M46 65h5M54 65h3M28 66h4" />
<path stroke="#e09818" d="M31 32h2M52 32h2M31 33h1M33 33h2M40 33h5M49 33h2M53 33h1M31 34h1M34 34h3M38 34h12M52 34h1M34 35h4M40 35h9M52 35h1M32 36h1M35 36h2M40 36h9M51 36h1M35 37h2M39 37h13M33 38h1M35 38h16M34 39h17M33 40h19M26 41h1M33 41h1M36 41h8M47 41h5M25 42h1M27 42h1M33 42h3M37 42h6M47 42h5M25 43h3M34 43h3M38 43h4M46 43h5M24 44h4M30 44h2M34 44h3M38 44h4M43 44h6M52 44h2M24 45h3M29 45h3M35 45h12M51 45h3M23 46h1M26 46h1M29 46h2M36 46h9M51 46h2M37 47h1M39 47h2M42 47h2M39 48h4M23 49h3M32 49h5M22 50h5M29 50h10M53 50h1M22 51h4M27 51h4M33 51h5M39 51h1M52 51h2M22 52h4M27 52h3M34 52h2M37 52h1M39 52h1M53 52h1M22 53h4M28 53h3M32 53h2M36 53h1M55 53h1M23 54h2M29 54h2M32 54h2M35 54h2M38 54h1M40 54h5M54 54h3M23 55h3M27 55h2M32 55h3M36 55h1M39 55h9M51 55h3M55 55h2M24 56h2M27 56h3M32 56h3M36 56h1M38 56h1M40 56h6M49 56h3M55 56h2M24 57h2M27 57h2M31 57h4M36 57h1M38 57h1M40 57h5M48 57h2M52 57h3M25 58h1M28 58h7M36 58h1M38 58h1M41 58h3M50 58h6M28 59h7M41 59h3M47 59h6M54 59h5M28 60h6M35 60h1M41 60h3M45 60h8M54 60h2M28 61h6M35 61h1M40 61h3M47 61h1M49 61h5M28 62h1M32 62h2M46 62h2M49 62h8M29 63h3M33 63h1M45 63h1M55 63h2M29 64h4M46 64h5M56 64h1M29 65h3M53 65h1" />
<path stroke="#f8f8f8" d="M32 34h1M51 34h1M32 35h1M38 35h2M50 35h2M33 36h1M37 36h3M50 36h1M33 37h1M37 37h2M27 40h2M27 41h2M26 42h1M45 42h1M31 52h2M39 53h1M26 54h2M56 58h2M45 61h2M44 62h2M44 63h1M54 64h2M28 65h1" />
</svg>