<svg xmlns="http://www.w3.org/2000/svg" viewBox="0 -0.5 80 80" shape-rendering="crispEdges">
<metadata>Made with Pixels to Svg https://codepen.io/shshaw/pen/XbxvNj</metadata>
<path stroke="#000000" d="M41 23h2M39 24h2M43 24h1M37 25h2M42 25h1M36 26h1M42 26h1M34 27h1M42 27h1M33 28h1M41 28h1M32 29h1M41 29h1M31 30h1M41 30h1M31 31h1M41 31h1M30 32h1M42 32h1M57 32h2M30 33h1M42 33h1M55 33h2M59 33h2M42 34h1M54 34h1M61 34h1M29 35h1M43 35h1M53 35h1M62 35h1M29 36h1M43 36h1M51 36h2M57 36h3M62 36h1M29 37h1M43 37h1M46 37h3M53 37h1M56 37h1M60 37h1M62 37h1M29 38h1M42 38h4M50 38h2M54 38h2M61 38h1M30 39h1M40 39h3M52 39h1M55 39h1M30 40h1M38 40h1M53 40h1M55 40h1M31 41h1M37 41h1M39 41h2M43 41h1M53 41h1M55 41h1M30 42h3M35 42h2M39 42h2M43 42h1M54 42h1M28 43h2M33 43h2M38 43h1M42 43h1M54 43h1M26 44h1M35 44h2M39 44h3M55 44h1M37 45h1M45 45h3M55 45h1M27 46h5M38 46h1M44 46h1M48 46h1M55 46h1M23 47h1M26 47h8M39 47h1M49 47h1M55 47h1M22 48h1M25 48h7M34 48h1M40 48h1M43 48h1M45 48h2M49 48h1M54 48h1M22 49h1M25 49h6M35 49h1M40 49h1M43 49h1M45 49h2M54 49h1M22 50h1M24 50h7M35 50h1M41 50h1M44 50h1M48 50h1M53 50h1M21 51h1M24 51h6M36 51h1M41 51h1M45 51h3M51 51h5M21 52h1M24 52h6M36 52h1M49 52h2M56 52h2M66 52h2M21 53h1M24 53h6M37 53h1M42 53h1M48 53h1M58 53h2M64 53h2M67 53h1M21 54h1M24 54h6M37 54h1M42 54h1M47 54h1M60 54h4M67 54h1M22 55h1M24 55h7M37 55h1M42 55h1M47 55h1M67 55h1M22 56h1M25 56h6M37 56h1M46 56h1M67 56h1M22 57h1M25 57h7M37 57h1M42 57h1M46 57h1M66 57h1M23 58h1M26 58h2M29 58h1M31 58h2M37 58h1M42 58h1M46 58h1M66 58h1M23 59h1M26 59h1M28 59h1M30 59h1M32 59h3M36 59h1M45 59h2M65 59h1M24 60h1M27 60h1M29 60h1M31 60h1M33 60h1M35 60h2M41 60h1M43 60h2M47 60h1M65 60h1M25 61h1M28 61h3M32 61h1M34 61h2M41 61h2M47 61h1M64 61h1M26 62h1M30 62h4M40 62h1M48 62h1M63 62h1M27 63h2M39 63h1M49 63h2M61 63h2M29 64h2M37 64h2M51 64h3M59 64h2M31 65h6M54 65h5" />
<path stroke="#68f838" d="M41 24h2M39 25h3M35 26h1M38 26h4M36 27h6M35 28h6M34 29h7M33 30h8M33 31h1M35 31h1M37 31h4M32 32h1M34 32h1M36 32h1M38 32h4M31 33h1M33 33h1M35 33h1M37 33h5M31 34h11M31 35h12M31 36h12M50 36h1M31 37h12M49 37h1M30 38h12M31 39h9M51 39h1M32 40h6M42 40h1M52 40h1M32 41h5M51 41h1M33 42h2M37 42h1M50 42h1M52 42h1M45 43h1M47 43h1M49 43h1M51 43h1M53 43h1M42 44h1M44 44h1M46 44h1M48 44h1M50 44h5M39 45h1M41 45h1M43 45h1M48 45h3M53 45h2M40 46h1M42 46h2M49 46h2M53 46h2M40 47h4M50 47h5M41 48h2M50 48h4M41 49h2M49 49h5M42 50h2M49 50h4M42 51h3M48 51h3M42 52h7M51 52h3M43 53h5M49 53h7M43 54h4M48 54h9M58 54h1M66 54h1M43 55h4M48 55h8M57 55h1M59 55h8M43 56h3M47 56h8M56 56h1M58 56h9M43 57h1M45 57h1M47 57h9M57 57h9M44 58h1M47 58h8M56 58h1M58 58h8M42 59h2M47 59h5M53 59h1M55 59h1M57 59h8M42 60h1M48 60h3M52 60h1M54 60h1M56 60h9M48 61h4M53 61h1M55 61h9M49 62h14M51 63h10M54 64h5" />
<path stroke="#f8f8f8" d="M37 26h1M35 27h1M34 28h1M33 29h1M32 30h1M32 31h1M34 31h1M36 31h1M31 32h1M33 32h1M35 32h1M37 32h1M32 33h1M34 33h1M36 33h1M57 33h1M30 34h1M55 34h1M30 35h1M30 36h1M30 37h1M50 37h3M46 38h4M52 38h2M43 39h4M49 39h2M53 39h2M31 40h1M39 40h3M43 40h4M49 40h3M54 40h1M38 41h1M41 41h2M44 41h7M52 41h1M54 41h1M38 42h1M41 42h2M44 42h6M51 42h1M53 42h1M30 43h3M35 43h3M39 43h3M43 43h2M46 43h1M48 43h1M50 43h1M52 43h1M27 44h8M37 44h2M43 44h1M45 44h1M47 44h1M49 44h1M25 45h3M32 45h3M38 45h1M40 45h1M42 45h1M44 45h1M24 46h2M39 46h1M41 46h1M45 46h3M24 47h1M44 47h5M23 48h1M44 48h1M47 48h2M23 49h1M44 49h1M47 49h2M45 50h3M54 52h2M56 53h2M66 53h1M57 54h1M59 54h1M64 54h2M56 55h1M58 55h1M55 56h1M57 56h1M44 57h1M56 57h1M43 58h1M45 58h1M55 58h1M57 58h1M44 59h1M52 59h1M54 59h1M56 59h1M51 60h1M53 60h1M55 60h1M52 61h1M54 61h1" />
<path stroke="#e84848" d="M58 33h1M29 34h1M56 34h5M54 35h8M53 36h4M60 36h2M54 37h2M61 37h1M47 39h2M47 40h2M27 43h1M25 44h1M24 45h1M28 45h4M35 45h2M51 45h2M23 46h1M26 46h1M32 46h6M51 46h2M25 47h1M34 47h5M24 48h1M32 48h2M35 48h5M24 49h1M31 49h4M36 49h4M23 50h1M31 50h4M36 50h5M22 51h2M30 51h6M37 51h4M22 52h2M30 52h6M37 52h5M22 53h2M30 53h7M38 53h4M22 54h2M30 54h7M38 54h4M23 55h1M31 55h6M38 55h4M23 56h2M31 56h6M38 56h5M23 57h2M32 57h5M38 57h4M24 58h2M28 58h1M30 58h1M33 58h4M38 58h4M24 59h2M27 59h1M29 59h1M31 59h1M35 59h1M37 59h5M25 60h2M28 60h1M30 60h1M32 60h1M34 60h1M37 60h4M26 61h2M31 61h1M33 61h1M36 61h5M27 62h3M34 62h6M29 63h10M31 64h6" />
</svg>