<svg xmlns="http://www.w3.org/2000/svg" viewBox="0 -0.5 80 80" shape-rendering="crispEdges">
<metadata>Made with Pixels to Svg https://codepen.io/shshaw/pen/XbxvNj</metadata>
<path stroke="#f84898" d="M42 13h1M48 13h1M51 14h1M53 15h1M60 21h1M48 25h3M62 25h1M48 26h3M48 27h3M30 28h1M48 28h3M63 28h1M29 29h2M47 29h3M29 30h2M47 30h3M29 31h1M46 31h3M64 31h1M29 32h1M45 32h4M29 33h1M45 33h3M30 34h1M44 34h3M30 35h2M34 35h1M40 35h6M31 36h2M35 36h9M32 37h2M38 37h4M34 38h6M23 39h1M39 40h1M17 42h1M15 44h1M21 52h1M22 56h1M23 59h1M24 61h1M44 64h1M35 67h1M44 67h1" />
<path stroke="#000000" d="M43 13h5M34 14h4M40 14h2M49 14h2M31 15h3M38 15h2M43 15h5M52 15h1M28 16h3M37 16h1M41 16h2M48 16h3M54 16h2M26 17h2M36 17h1M39 17h2M49 17h1M51 17h2M56 17h1M25 18h1M35 18h1M38 18h1M50 18h1M53 18h2M57 18h1M24 19h1M37 19h1M51 19h1M55 19h1M58 19h1M23 20h1M34 20h1M36 20h1M51 20h1M56 20h1M59 20h1M23 21h1M34 21h2M52 21h1M57 21h1M22 22h1M34 22h1M52 22h1M58 22h1M60 22h1M22 23h1M33 23h1M52 23h1M58 23h1M61 23h1M22 24h4M33 24h1M46 24h7M59 24h1M61 24h1M26 25h3M33 25h1M44 25h4M51 25h1M59 25h1M29 26h1M40 26h8M51 26h1M60 26h1M62 26h1M29 27h2M38 27h10M51 27h1M60 27h1M62 27h1M29 28h1M31 28h1M37 28h11M51 28h1M60 28h1M28 29h1M31 29h1M36 29h5M42 29h5M50 29h1M61 29h1M63 29h1M28 30h1M31 30h2M36 30h5M43 30h4M50 30h1M61 30h1M63 30h1M28 31h1M30 31h1M32 31h2M35 31h6M44 31h2M49 31h2M61 31h1M28 32h1M30 32h1M33 32h8M44 32h1M49 32h2M62 32h1M64 32h1M28 33h1M30 33h1M33 33h9M44 33h1M48 33h3M62 33h1M64 33h1M29 34h1M31 34h1M34 34h10M47 34h2M50 34h1M62 34h1M64 34h1M29 35h1M32 35h2M35 35h5M46 35h3M50 35h1M62 35h1M64 35h1M30 36h1M44 36h4M50 36h1M62 36h1M64 36h1M31 37h1M42 37h2M45 37h2M50 37h1M62 37h1M64 37h1M32 38h2M40 38h3M45 38h1M50 38h1M55 38h4M61 38h1M64 38h1M24 39h4M32 39h2M35 39h1M37 39h3M42 39h1M44 39h1M50 39h5M59 39h3M63 39h1M21 40h2M29 40h2M33 40h4M40 40h4M49 40h2M60 40h2M63 40h1M19 41h2M31 41h2M34 41h1M47 41h2M51 41h3M61 41h1M63 41h1M18 42h1M23 42h6M33 42h2M46 42h1M54 42h2M62 42h2M16 43h1M20 43h3M29 43h3M34 43h1M46 43h1M56 43h1M63 43h1M18 44h2M32 44h1M34 44h1M45 44h1M57 44h1M64 44h1M15 45h1M17 45h1M33 45h1M45 45h1M64 45h1M14 46h1M33 46h1M46 46h2M59 46h1M65 46h1M14 47h1M33 47h1M48 47h2M60 47h1M65 47h1M13 48h1M17 48h3M21 48h2M29 48h4M50 48h1M60 48h1M65 48h1M13 49h1M15 49h2M21 49h1M23 49h6M32 49h1M49 49h1M51 49h1M61 49h1M65 49h1M13 50h2M21 50h1M24 50h1M31 50h1M49 50h1M52 50h1M61 50h1M65 50h1M21 51h1M25 51h1M31 51h1M49 51h1M53 51h1M61 51h1M65 51h1M26 52h1M31 52h1M48 52h1M54 52h1M62 52h1M66 52h1M22 53h1M27 53h1M31 53h1M48 53h1M55 53h1M62 53h1M66 53h1M22 54h1M28 54h1M32 54h1M47 54h1M55 54h1M62 54h1M66 54h1M22 55h1M29 55h1M32 55h1M47 55h1M56 55h1M62 55h1M66 55h1M30 56h1M33 56h1M46 56h1M56 56h2M66 56h1M23 57h1M31 57h1M34 57h1M45 57h1M55 57h1M58 57h1M65 57h1M23 58h1M31 58h1M35 58h2M43 58h2M55 58h1M57 58h2M65 58h1M31 59h1M37 59h6M54 59h1M57 59h1M59 59h1M65 59h1M24 60h1M32 60h1M53 60h1M56 60h1M59 60h1M64 60h1M32 61h1M52 61h1M55 61h1M60 61h1M64 61h1M25 62h2M32 62h1M50 62h2M54 62h1M60 62h1M64 62h1M27 63h3M33 63h1M48 63h2M53 63h1M61 63h1M63 63h1M30 64h1M34 64h2M45 64h3M51 64h2M61 64h1M63 64h1M31 65h2M36 65h8M49 65h2M62 65h1M33 66h2M45 66h4M36 67h8" />
<path stroke="#f8f8f8" d="M42 14h7M40 15h2M49 15h3M38 16h2M51 16h3M37 17h1M53 17h3M27 18h1M29 18h1M31 18h1M36 18h1M55 18h2M26 19h1M28 19h1M30 19h1M32 19h1M35 19h1M56 19h2M24 20h2M27 20h1M29 20h1M31 20h1M33 20h1M35 20h1M57 20h2M24 21h1M26 21h1M28 21h1M30 21h1M32 21h1M58 21h2M23 22h3M27 22h1M29 22h1M31 22h1M59 22h1M23 23h4M28 23h1M30 23h1M32 23h1M59 23h2M27 24h3M60 24h1M29 25h2M60 25h2M31 26h1M61 26h1M61 27h1M61 28h2M41 29h1M62 29h1M41 30h2M62 30h1M31 31h1M41 31h3M62 31h2M31 32h2M41 32h3M63 32h1M31 33h2M42 33h2M63 33h1M32 34h2M63 34h1M63 35h1M33 36h2M34 37h4M44 37h1M43 38h2M34 39h1M36 39h1M40 39h2M43 39h1M24 40h1M26 40h1M37 40h2M21 41h3M25 41h1M35 41h11M19 42h4M35 42h6M44 42h1M57 42h1M59 42h1M17 43h2M23 43h1M35 43h7M44 43h1M54 43h1M58 43h1M60 43h1M16 44h2M20 44h1M22 44h1M24 44h1M35 44h10M51 44h1M53 44h1M55 44h1M59 44h1M61 44h1M16 45h1M19 45h1M21 45h1M23 45h1M34 45h2M39 45h6M50 45h1M52 45h1M54 45h1M56 45h1M60 45h1M62 45h1M20 46h1M22 46h1M34 46h2M39 46h6M51 46h3M55 46h1M57 46h1M61 46h1M34 47h2M38 47h8M47 47h1M52 47h5M58 47h1M62 47h1M33 48h12M46 48h1M53 48h3M57 48h1M59 48h1M61 48h1M22 49h1M33 49h11M45 49h1M47 49h1M54 49h3M58 49h1M22 50h2M32 50h8M42 50h3M46 50h1M55 50h3M59 50h1M22 51h3M32 51h7M42 51h2M45 51h1M47 51h1M56 51h1M22 52h4M32 52h7M41 52h2M44 52h1M46 52h1M57 52h1M23 53h4M32 53h12M45 53h1M57 53h1M23 54h5M33 54h8M42 54h1M44 54h1M46 54h1M23 55h6M33 55h7M41 55h1M43 55h1M45 55h1M23 56h7M34 56h1M36 56h1M38 56h1M40 56h1M42 56h1M44 56h1M24 57h6M35 57h1M37 57h1M39 57h1M41 57h1M43 57h1M24 58h6M38 58h1M40 58h1M42 58h1M24 59h4M50 63h1M48 64h3M33 65h3M44 65h5M35 66h10" />
<path stroke="#78d018" d="M34 15h4M42 15h1M48 15h1M31 16h6M40 16h1M43 16h5M28 17h8M38 17h1M41 17h8M26 18h1M28 18h1M30 18h1M32 18h3M37 18h1M39 18h11M25 19h1M27 19h1M29 19h1M31 19h1M33 19h2M36 19h1M38 19h13M26 20h1M28 20h1M30 20h1M32 20h1M37 20h14M25 21h1M27 21h1M29 21h1M31 21h1M33 21h1M36 21h16M26 22h1M28 22h1M30 22h1M32 22h2M35 22h17M27 23h1M29 23h1M31 23h1M34 23h18M26 24h1M30 24h3M34 24h12M31 25h2M34 25h10M30 26h1M32 26h8M31 27h7M32 28h5M32 29h4M33 30h3M34 31h1M49 34h1M49 35h1M48 36h2M63 36h1M47 37h3M63 37h1M46 38h4M62 38h2M45 39h5M55 39h4M62 39h1M23 40h1M25 40h1M27 40h2M44 40h5M51 40h9M62 40h1M24 41h1M26 41h5M46 41h1M49 41h2M54 41h7M62 41h1M29 42h4M41 42h3M45 42h1M47 42h7M56 42h1M58 42h1M60 42h2M19 43h1M24 43h5M32 43h2M42 43h2M45 43h1M47 43h7M55 43h1M57 43h1M59 43h1M61 43h2M21 44h1M23 44h1M25 44h7M33 44h1M46 44h5M52 44h1M54 44h1M56 44h1M58 44h1M60 44h1M62 44h2M18 45h1M20 45h1M22 45h1M24 45h9M36 45h3M46 45h4M51 45h1M53 45h1M55 45h1M57 45h3M61 45h1M63 45h1M15 46h5M21 46h1M23 46h10M36 46h3M45 46h1M48 46h3M54 46h1M56 46h1M58 46h1M60 46h1M62 46h3M15 47h18M36 47h2M46 47h1M50 47h2M57 47h1M59 47h1M61 47h1M63 47h2M14 48h3M20 48h1M23 48h6M45 48h1M47 48h3M51 48h2M56 48h1M58 48h1M62 48h3M14 49h1M44 49h1M46 49h1M48 49h1M52 49h2M57 49h1M59 49h2M62 49h3M40 50h2M45 50h1M47 50h2M53 50h2M58 50h1M60 50h1M62 50h3M39 51h3M44 51h1M46 51h1M48 51h1M54 51h2M57 51h4M62 51h3M39 52h2M43 52h1M45 52h1M47 52h1M55 52h2M58 52h4M63 52h3M44 53h1M46 53h2M56 53h1M58 53h4M63 53h3M41 54h1M43 54h1M45 54h1M56 54h6M63 54h3M40 55h1M42 55h1M44 55h1M46 55h1M57 55h5M63 55h3M35 56h1M37 56h1M39 56h1M41 56h1M43 56h1M45 56h1M58 56h8M30 57h1M36 57h1M38 57h1M40 57h1M42 57h1M44 57h1M56 57h2M59 57h6M30 58h1M37 58h1M39 58h1M41 58h1M56 58h1M59 58h6M28 59h3M55 59h2M60 59h5M25 60h7M54 60h2M60 60h4M25 61h7M53 61h2M61 61h3M27 62h5M52 62h2M61 62h3M30 63h3M51 63h2M62 63h1M31 64h3M62 64h1" />
</svg>