<svg xmlns="http://www.w3.org/2000/svg" viewBox="0 -0.5 80 80" shape-rendering="crispEdges">
<metadata>Made with Pixels to Svg https://codepen.io/shshaw/pen/XbxvNj</metadata>
<path stroke="#58a0f8" d="M35 30h1M39 30h1M39 31h1M40 32h3M33 33h1M40 33h4M33 34h1M39 34h3M32 35h3M37 35h4M43 35h3M31 36h9M41 36h2M31 37h11M30 38h11M29 39h11M27 40h13M28 41h3M33 41h6M28 42h2M33 42h6M26 43h1M28 43h2M34 43h5M24 44h2M29 44h1M34 44h6M22 45h4M29 45h2M33 45h7M23 46h2M28 46h13M25 47h2M28 47h4M33 47h11M25 48h2M28 48h3M35 48h8M56 48h1M58 48h1M25 49h3M36 49h5M55 49h1M57 49h2M25 50h2M29 50h1M37 50h3M41 50h1M57 50h2M26 51h1M28 51h4M36 51h1M40 51h3M58 51h1M28 52h6M35 52h9M53 52h2M33 53h1M35 53h9M53 53h5M30 54h1M36 54h8M52 54h5M30 55h1M33 55h2M39 55h4M51 55h4M30 56h1M34 56h3M49 56h4M31 57h1M36 57h4M45 57h5M31 58h1M39 58h7M32 59h1M33 60h1M34 61h1M35 62h2M47 62h4M37 63h4M44 63h4M51 63h2M41 64h10M43 65h10M46 66h6" />
<path stroke="#000000" d="M36 30h3M32 31h4M40 31h2M31 32h1M33 32h2M43 32h1M30 33h1M32 33h1M44 33h1M29 34h2M32 34h1M45 34h1M29 35h3M46 35h1M28 36h1M30 36h1M43 36h4M28 37h1M30 37h1M42 37h1M45 37h3M28 38h2M41 38h1M46 38h2M28 39h1M40 39h2M46 39h3M40 40h3M45 40h1M47 40h2M27 41h1M39 41h5M47 41h2M24 42h4M31 42h2M39 42h3M47 42h1M22 43h2M27 43h1M30 43h1M33 43h1M39 43h2M47 43h1M21 44h1M26 44h1M28 44h1M30 44h1M33 44h1M40 44h1M46 44h1M21 45h1M26 45h1M28 45h1M31 45h2M40 45h1M45 45h1M22 46h1M25 46h3M41 46h1M43 46h2M23 47h2M27 47h1M32 47h1M44 47h1M56 47h3M24 48h1M27 48h1M31 48h4M43 48h1M55 48h1M57 48h1M59 48h1M24 49h1M28 49h3M35 49h1M41 49h2M54 49h1M56 49h1M59 49h1M24 50h1M27 50h1M30 50h1M32 50h1M36 50h1M40 50h1M42 50h1M53 50h1M56 50h1M59 50h1M25 51h1M32 51h4M37 51h3M43 51h1M53 51h1M55 51h1M59 51h1M26 52h2M34 52h1M44 52h1M52 52h1M55 52h1M58 52h1M27 53h6M34 53h1M44 53h1M52 53h1M58 53h1M29 54h1M31 54h4M44 54h1M51 54h1M57 54h1M29 55h1M31 55h2M35 55h2M43 55h1M49 55h2M55 55h2M29 56h1M31 56h1M33 56h1M37 56h6M45 56h4M53 56h2M30 57h1M32 57h1M34 57h2M40 57h5M50 57h3M30 58h1M32 58h1M36 58h3M46 58h4M31 59h1M33 59h1M39 59h7M31 60h1M34 60h1M32 61h1M35 61h2M47 61h4M33 62h2M37 62h4M44 62h3M51 62h2M35 63h2M41 63h3M48 63h3M53 63h1M37 64h3M51 64h3M40 65h2M53 65h1M42 66h3M52 66h1M45 67h7" />
<path stroke="#f8f8f8" d="M36 31h3M32 32h1M35 32h5M31 33h1M34 33h6M31 34h1M34 34h5M42 34h3M35 35h2M41 35h2M40 36h1M43 37h2M42 38h4M42 39h4M43 40h2M31 41h2M30 42h1M24 43h2M31 43h1M22 44h2M27 44h1M27 45h1M31 49h4M28 50h1M31 50h1M33 50h3M54 50h2M27 51h1M54 51h1M56 51h2M56 52h2M35 54h1M37 55h2M32 60h1M33 61h1M40 64h1M42 65h1M45 66h1" />
<path stroke="#f03050" d="M30 32h1M29 33h1M28 35h1M29 36h1M29 37h1M46 40h1M44 41h3M42 42h5M32 43h1M41 43h6M31 44h2M41 44h5M41 45h4M42 46h1" />
</svg>