<svg xmlns="http://www.w3.org/2000/svg" viewBox="0 -0.5 80 80" shape-rendering="crispEdges">
<metadata>Made with Pixels to Svg https://codepen.io/shshaw/pen/XbxvNj</metadata>
<path stroke="#405838" d="M57 20h2M56 21h1M63 22h2M55 23h1M62 23h1M60 24h1M59 25h2M57 26h4M65 26h1M67 26h1M55 27h2M58 27h4M64 27h3M44 28h1M46 28h1M56 28h2M59 28h2M62 28h5M43 29h1M45 29h1M47 29h1M51 29h2M56 29h2M59 29h2M62 29h5M42 30h1M48 30h1M50 30h4M55 30h2M60 30h1M62 30h4M36 31h2M45 31h2M49 31h5M59 31h4M35 32h4M40 32h1M42 32h1M44 32h1M46 32h7M54 32h3M60 32h2M63 32h2M35 33h4M41 33h1M43 33h1M45 33h12M61 33h2M65 33h1M35 34h1M37 34h1M39 34h8M51 34h4M61 34h5M33 35h1M36 35h1M38 35h1M40 35h1M45 35h1M49 35h1M51 35h3M62 35h4M33 36h1M35 36h1M37 36h1M39 36h1M43 36h1M45 36h1M49 36h1M51 36h1M53 36h1M57 36h1M60 36h1M62 36h4M32 37h5M39 37h1M43 37h1M49 37h1M56 37h3M61 37h4M32 38h1M35 38h1M38 38h1M43 38h1M49 38h1M55 38h8M29 39h2M39 39h1M55 39h10M29 40h2M35 40h1M55 40h3M59 40h4M28 41h2M34 41h1M36 41h1M50 41h1M56 41h1M58 41h3M29 42h2M58 42h5M56 43h8M26 44h1M45 44h1M55 44h9M25 45h3M29 45h2M33 45h1M35 45h2M44 45h1M53 45h11M24 46h1M26 46h5M37 46h2M41 46h3M52 46h4M57 46h2M61 46h2M64 46h1M25 47h1M27 47h3M35 47h2M39 47h2M42 47h2M52 47h3M56 47h1M58 47h1M60 47h1M63 47h2M26 48h4M36 48h1M42 48h3M51 48h5M57 48h1M59 48h1M61 48h2M26 49h3M37 49h1M47 49h6M54 49h1M56 49h1M58 49h1M60 49h4M25 50h3M43 50h3M49 50h4M54 50h10M25 51h2M53 51h2M57 51h4M62 51h1M25 52h2M29 52h2M35 52h1M37 52h1M52 52h2M59 52h3M24 53h7M34 53h1M36 53h1M38 53h2M51 53h3M58 53h4M27 54h3M35 54h1M37 54h1M39 54h16M60 54h1M62 54h2M23 55h1M28 55h2M33 55h2M36 55h1M38 55h1M42 55h2M49 55h4M57 55h1M62 55h2M27 56h1M29 56h2M34 56h3M41 56h1M43 56h6M51 56h1M57 56h1M62 56h2M23 57h1M25 57h3M29 57h2M34 57h5M41 57h1M43 57h9M57 57h1M62 57h2M23 58h1M25 58h4M30 58h1M34 58h1M36 58h5M42 58h11M62 58h2M24 59h1M27 59h1M36 59h5M45 59h7M56 59h2M60 59h2M26 60h6M37 60h1M39 60h4M24 61h7M32 61h1M39 61h2M43 61h1M45 61h1M47 61h1M22 62h2M25 62h6M32 62h2M42 62h1M44 62h1M48 62h1M23 63h1M25 63h7M45 63h1M24 64h7M26 65h3" />
<path stroke="#908878" d="M57 21h2M57 22h2M58 23h1M58 24h1M62 24h1M65 24h1M56 25h2M62 25h3M62 26h2M49 28h2M54 28h2M49 29h2M54 29h2M49 30h1M44 31h1M48 31h1M41 32h1M43 32h1M45 32h1M59 32h1M40 33h1M42 33h1M44 33h1M59 33h2M36 34h1M38 34h1M58 34h3M35 35h1M37 35h1M39 35h1M47 35h2M55 35h2M58 35h3M34 36h1M36 36h1M38 36h1M41 36h2M47 36h2M54 36h3M59 36h1M41 37h2M46 37h3M52 37h1M54 37h2M37 38h1M41 38h2M44 38h1M46 38h3M51 38h3M33 39h2M36 39h3M41 39h13M32 40h3M37 40h16M26 41h1M31 41h3M38 41h12M53 41h2M24 42h3M31 42h3M35 42h1M38 42h17M23 43h3M28 43h1M30 43h3M34 43h4M39 43h16M23 44h2M28 44h2M31 44h2M34 44h11M46 44h7M23 45h2M28 45h1M31 45h2M37 45h7M45 45h6M25 46h1M32 46h3M39 46h2M45 46h4M56 46h1M59 46h1M24 47h1M26 47h1M32 47h3M45 47h2M55 47h1M57 47h1M59 47h1M23 48h3M31 48h5M56 48h1M58 48h1M60 48h1M23 49h3M31 49h6M42 49h5M55 49h1M57 49h1M59 49h1M23 50h2M31 50h12M23 51h2M28 51h2M32 51h6M39 51h3M21 52h2M24 52h1M28 52h1M32 52h3M36 52h1M55 52h2M21 53h3M32 53h2M35 53h1M37 53h1M55 53h3M21 54h3M31 54h4M36 54h1M38 54h1M57 54h3M22 55h1M24 55h3M31 55h1M35 55h1M37 55h1M55 55h2M58 55h3M22 56h1M24 56h3M33 56h1M39 56h2M53 56h4M58 56h3M64 56h1M33 57h1M39 57h2M53 57h3M58 57h3M64 57h1M56 58h4M54 59h2M33 61h3M21 62h1M34 62h2M21 63h2M21 64h2" />
<path stroke="#000000" d="M59 21h1M56 22h1M59 22h1M65 22h1M59 23h2M66 23h1M55 24h1M59 24h1M61 24h1M66 24h1M55 25h1M58 25h1M61 25h1M65 25h2M55 26h2M61 26h1M64 26h1M66 26h1M44 27h3M49 27h2M54 27h1M57 27h1M62 27h2M67 27h1M43 28h1M45 28h1M47 28h2M51 28h3M58 28h1M61 28h1M67 28h1M41 29h2M44 29h1M46 29h1M48 29h1M53 29h1M58 29h1M61 29h1M67 29h1M36 30h2M40 30h2M43 30h5M54 30h1M57 30h3M61 30h1M66 30h1M35 31h1M38 31h6M47 31h1M54 31h5M63 31h3M34 32h1M39 32h1M53 32h1M57 32h2M62 32h1M65 32h1M34 33h1M39 33h1M57 33h2M63 33h2M66 33h1M33 34h2M47 34h4M55 34h3M66 34h1M32 35h1M34 35h1M41 35h4M46 35h1M50 35h1M54 35h1M57 35h1M61 35h1M66 35h1M31 36h2M40 36h1M44 36h1M46 36h1M50 36h1M52 36h1M58 36h1M61 36h1M66 36h1M31 37h1M37 37h2M40 37h1M44 37h2M50 37h2M53 37h1M59 37h2M65 37h1M29 38h3M33 38h2M36 38h1M39 38h2M45 38h1M50 38h1M54 38h1M63 38h3M28 39h1M31 39h2M35 39h1M40 39h1M54 39h1M65 39h1M26 40h1M28 40h1M31 40h1M36 40h1M53 40h2M58 40h1M63 40h2M24 41h2M27 41h1M30 41h1M35 41h1M37 41h1M51 41h2M55 41h1M57 41h1M61 41h2M23 42h1M27 42h2M34 42h1M36 42h2M55 42h3M63 42h1M22 43h1M26 43h2M29 43h1M33 43h1M38 43h1M55 43h1M64 43h1M22 44h1M25 44h1M27 44h1M30 44h1M33 44h1M53 44h2M64 44h1M22 45h1M34 45h1M51 45h2M64 45h1M23 46h1M31 46h1M35 46h2M44 46h1M49 46h3M60 46h1M63 46h1M65 46h1M23 47h1M30 47h2M37 47h2M41 47h1M44 47h1M47 47h2M51 47h1M61 47h2M65 47h1M22 48h1M30 48h1M37 48h1M40 48h2M45 48h2M48 48h1M63 48h2M22 49h1M29 49h2M40 49h1M53 49h1M64 49h1M22 50h1M28 50h3M46 50h3M53 50h1M64 50h1M21 51h2M27 51h1M30 51h2M38 51h1M42 51h2M49 51h4M55 51h2M61 51h1M63 51h1M20 52h1M23 52h1M27 52h1M31 52h1M38 52h4M51 52h1M54 52h1M57 52h2M62 52h1M20 53h1M31 53h1M40 53h11M54 53h1M62 53h2M20 54h1M24 54h3M30 54h1M55 54h2M61 54h1M64 54h1M21 55h1M27 55h1M30 55h1M32 55h1M39 55h3M44 55h5M53 55h2M61 55h1M64 55h1M21 56h1M23 56h1M28 56h1M31 56h2M37 56h2M42 56h1M49 56h2M52 56h1M61 56h1M65 56h1M22 57h1M24 57h1M28 57h1M31 57h2M42 57h1M52 57h1M56 57h1M61 57h1M65 57h1M22 58h1M24 58h1M29 58h1M31 58h1M33 58h1M35 58h1M41 58h1M53 58h3M60 58h2M64 58h1M23 59h1M25 59h2M28 59h4M34 59h2M41 59h4M52 59h2M58 59h2M62 59h2M23 60h3M32 60h4M38 60h1M43 60h9M54 60h4M59 60h3M21 61h3M31 61h1M36 61h3M41 61h2M44 61h1M46 61h1M48 61h2M20 62h1M24 62h1M31 62h1M36 62h1M39 62h3M43 62h1M45 62h3M49 62h1M20 63h1M24 63h1M32 63h4M41 63h4M46 63h3M20 64h1M23 64h1M31 64h1M43 64h3M21 65h2M24 65h2M29 65h2M26 66h3" />
<path stroke="#f8f8f8" d="M56 23h2M63 23h3M56 24h2M63 24h2M49 47h2M38 48h2M47 48h1M49 48h2M38 49h2M41 49h1M44 51h5M42 52h9M36 60h1" />
</svg>