<svg xmlns="http://www.w3.org/2000/svg" viewBox="0 -0.5 80 80" shape-rendering="crispEdges">
<metadata>Made with Pixels to Svg https://codepen.io/shshaw/pen/XbxvNj</metadata>
<path stroke="#000000" d="M44 15h2M39 16h3M43 16h1M46 16h1M38 17h1M42 17h1M46 17h1M38 18h1M46 18h1M30 19h4M38 19h2M45 19h2M29 20h1M34 20h1M37 20h1M39 20h1M46 20h4M28 21h1M35 21h1M37 21h1M40 21h1M44 21h2M50 21h1M28 22h1M35 22h1M38 22h3M42 22h2M51 22h1M27 23h2M34 23h2M40 23h2M51 23h2M55 23h1M25 24h2M36 24h2M40 24h1M43 24h4M49 24h2M53 24h1M56 24h1M24 25h1M27 25h1M38 25h3M42 25h1M47 25h2M52 25h1M56 25h1M23 26h1M25 26h1M36 26h2M40 26h2M48 26h1M51 26h1M56 26h1M23 27h3M34 27h1M39 27h1M41 27h1M49 27h1M55 27h1M57 27h1M18 28h1M21 28h1M27 28h3M44 28h2M49 28h1M55 28h1M57 28h1M19 29h2M24 29h1M31 29h3M36 29h1M40 29h1M43 29h1M48 29h1M56 29h4M16 30h1M20 30h1M29 30h1M33 30h2M40 30h1M43 30h1M48 30h1M53 30h3M60 30h2M65 30h2M15 31h1M19 31h1M35 31h1M44 31h1M47 31h1M51 31h2M62 31h3M67 31h1M15 32h1M19 32h1M36 32h1M39 32h1M44 32h3M49 32h2M63 32h1M67 32h1M15 33h1M19 33h1M37 33h1M45 33h4M61 33h2M67 33h1M15 34h1M20 34h2M24 34h3M37 34h1M45 34h2M67 34h1M15 35h1M22 35h8M38 35h1M43 35h2M47 35h1M54 35h1M66 35h1M15 36h1M23 36h8M38 36h1M42 36h1M48 36h1M54 36h1M65 36h2M15 37h1M23 37h8M33 37h2M38 37h1M41 37h1M48 37h1M53 37h1M66 37h1M16 38h1M23 38h1M25 38h9M37 38h1M40 38h1M48 38h1M53 38h1M66 38h1M16 39h1M22 39h1M24 39h9M37 39h1M48 39h1M52 39h1M54 39h1M16 40h1M22 40h1M27 40h4M36 40h1M47 40h1M52 40h1M63 40h3M17 41h1M23 41h2M34 41h2M47 41h1M50 41h2M53 41h2M60 41h3M65 41h1M17 42h1M19 42h1M25 42h9M46 42h1M58 42h2M65 42h1M17 43h2M46 43h1M54 43h6M64 43h1M18 44h1M45 44h1M51 44h2M55 44h1M57 44h3M64 44h1M17 45h1M44 45h1M46 45h1M49 45h2M53 45h2M57 45h2M64 45h1M17 46h1M42 46h2M45 46h1M47 46h2M57 46h2M63 46h1M17 47h1M41 47h1M43 47h2M46 47h3M57 47h1M63 47h1M43 48h5M57 48h1M62 48h1M16 49h1M44 49h3M56 49h1M61 49h1M16 50h1M44 50h1M56 50h1M59 50h2M16 51h1M45 51h1M56 51h3M16 52h1M56 52h1M16 53h1M36 53h2M55 53h1M17 54h1M35 54h1M55 54h1M17 55h1M34 55h1M55 55h1M17 56h1M34 56h1M54 56h1M18 57h1M54 57h1M18 58h2M33 58h1M53 58h1M19 59h2M33 59h1M47 59h1M53 59h1M19 60h1M21 60h2M33 60h1M47 60h1M52 60h1M20 61h1M23 61h2M34 61h1M47 61h1M51 61h1M21 62h1M25 62h2M34 62h1M46 62h1M50 62h1M21 63h1M27 63h5M35 63h1M46 63h1M48 63h2M25 64h1M31 64h4M36 64h1M45 64h3M22 65h9M35 65h1M41 65h1M44 65h1M36 66h8" />
<path stroke="#f8f8f8" d="M44 16h1M39 17h2M43 17h2M39 18h3M43 18h1M40 19h1M42 19h1M30 20h3M41 20h1M43 20h1M29 21h2M42 21h1M46 21h2M45 22h4M29 23h2M32 23h1M42 23h1M44 23h1M46 23h3M28 24h2M31 24h1M33 24h1M47 24h1M54 24h2M25 25h2M43 25h2M53 25h2M24 26h1M26 26h1M52 26h2M35 27h4M51 27h3M22 28h5M34 28h6M50 28h3M17 29h2M21 29h3M25 29h6M34 29h2M37 29h3M50 29h2M17 30h3M21 30h8M30 30h3M35 30h5M16 31h2M20 31h15M36 31h4M55 31h1M57 31h1M65 31h1M20 32h16M37 32h2M52 32h1M54 32h1M56 32h1M58 32h1M60 32h1M64 32h2M20 33h2M25 33h12M51 33h1M53 33h1M55 33h1M57 33h1M59 33h1M63 33h2M22 34h2M28 34h9M52 34h1M54 34h1M56 34h1M58 34h1M60 34h4M31 35h7M45 35h2M51 35h3M55 35h1M57 35h1M59 35h5M33 36h5M45 36h3M51 36h3M56 36h1M58 36h1M60 36h1M62 36h1M64 36h1M31 37h2M36 37h2M46 37h2M51 37h2M54 37h2M57 37h1M59 37h1M61 37h1M63 37h1M24 38h1M34 38h3M54 38h2M58 38h1M60 38h1M62 38h1M23 39h1M34 39h3M53 39h1M55 39h1M57 39h1M59 39h1M61 39h1M23 40h3M32 40h4M53 40h3M58 40h1M21 41h2M25 41h9M20 42h4M19 43h5M19 44h4M53 44h2M19 45h1M21 45h1M23 45h1M18 46h1M20 46h1M22 46h1M19 47h1M21 47h1M17 48h2M61 48h1M17 49h3M59 49h2M17 50h5M27 50h5M57 50h2M18 51h16M17 52h1M20 52h14M17 53h3M23 53h12M18 54h5M36 54h2M18 55h16M35 55h4M19 56h15M35 56h5M21 57h12M34 57h5M20 58h1M26 58h7M35 58h1M37 58h1M39 58h1M21 59h5M34 59h1M36 59h1M38 59h1M23 60h10M25 61h9M29 62h3M32 63h3M21 64h4M35 64h1M36 65h4" />
<path stroke="#709860" d="M45 16h1M41 17h1M45 17h1M42 18h1M44 18h2M41 19h1M43 19h2M38 20h1M40 20h1M42 20h1M44 20h2M38 21h2M41 21h1M43 21h1M48 21h2M41 22h1M44 22h1M49 22h2M33 23h1M43 23h1M45 23h1M49 23h2M54 23h1M56 23h1M35 24h1M41 24h2M48 24h1M51 24h2M41 25h1M49 25h3M55 25h1M27 26h1M35 26h1M38 26h1M49 26h2M54 26h2M22 27h1M26 27h2M50 27h1M54 27h1M56 27h1M17 28h1M30 28h1M33 28h1M40 28h1M53 28h2M56 28h1M16 29h1M49 29h1M52 29h4M49 30h4M56 30h4M67 30h1M18 31h1M40 31h1M48 31h3M53 31h2M56 31h1M58 31h4M66 31h1M16 32h2M47 32h2M51 32h1M53 32h1M55 32h1M57 32h1M59 32h1M61 32h2M66 32h1M22 33h3M38 33h1M49 33h2M52 33h1M54 33h1M56 33h1M58 33h1M60 33h1M65 33h2M27 34h1M47 34h5M53 34h1M55 34h1M57 34h1M59 34h1M64 34h3M30 35h1M48 35h3M56 35h1M58 35h1M64 35h2M31 36h2M44 36h1M49 36h2M55 36h1M57 36h1M59 36h1M61 36h1M63 36h1M35 37h1M45 37h1M49 37h2M56 37h1M58 37h1M60 37h1M62 37h1M64 37h2M46 38h2M49 38h4M56 38h2M59 38h1M61 38h1M63 38h3M33 39h1M49 39h3M56 39h1M58 39h1M60 39h1M62 39h5M26 40h1M31 40h1M48 40h4M56 40h2M59 40h4M48 41h2M52 41h1M55 41h5M63 41h2M47 42h11M60 42h5M47 43h7M60 43h4M46 44h5M56 44h1M60 44h4M45 45h1M47 45h2M59 45h5M44 46h1M46 46h1M49 46h1M59 46h4M18 47h1M45 47h1M58 47h5M16 48h1M19 48h1M58 48h3M20 49h2M27 49h5M57 49h2M22 50h5M32 50h2M17 51h1M34 51h1M18 52h2M34 52h1M20 53h3M35 53h1M23 54h12M18 56h1M19 57h2M33 57h1M21 58h5M47 58h1M26 59h7M27 62h2M32 62h2M22 63h3M20 64h1M37 64h4M21 65h1" />
<path stroke="#f850f8" d="M33 20h1M31 21h4M29 22h6M31 23h1M27 24h1M30 24h1M32 24h1M34 24h1M28 25h10M45 25h2M28 26h7M39 26h1M42 26h6M28 27h6M40 27h1M42 27h7M31 28h2M41 28h3M46 28h3M41 29h2M44 29h4M41 30h2M44 30h4M41 31h3M45 31h2M18 32h1M40 32h4M16 33h3M39 33h6M16 34h4M38 34h7M16 35h6M39 35h4M16 36h7M39 36h3M43 36h1M16 37h7M39 37h2M42 37h3M17 38h6M38 38h2M41 38h5M17 39h5M38 39h10M17 40h5M37 40h10M18 41h3M36 41h11M18 42h1M24 42h1M34 42h12M24 43h22M23 44h22M18 45h1M20 45h1M22 45h1M24 45h20M51 45h2M55 45h2M19 46h1M21 46h1M23 46h19M50 46h7M20 47h1M22 47h19M42 47h1M49 47h8M20 48h23M48 48h9M22 49h5M32 49h12M47 49h9M34 50h10M45 50h11M35 51h10M46 51h10M35 52h21M38 53h17M38 54h17M39 55h16M40 56h14M39 57h15M34 58h1M36 58h1M38 58h1M40 58h7M48 58h5M35 59h1M37 59h1M39 59h8M48 59h5M20 60h1M34 60h13M48 60h4M21 61h2M35 61h12M48 61h3M22 62h3M35 62h11M47 62h3M25 63h2M36 63h10M47 63h1M26 64h5M41 64h4M40 65h1M42 65h2" />
</svg>