<svg xmlns="http://www.w3.org/2000/svg" viewBox="0 -0.5 80 80" shape-rendering="crispEdges">
<metadata>Made with Pixels to Svg https://codepen.io/shshaw/pen/XbxvNj</metadata>
<path stroke="#600860" d="M35 16h1M32 17h1M29 18h1M29 19h1M27 20h1M25 21h2M48 21h2M23 22h5M46 22h5M24 23h5M43 23h8M24 24h8M41 24h8M21 25h1M25 25h9M38 25h5M20 26h1M26 26h14M52 26h1M20 27h1M28 27h2M33 27h5M44 27h2M52 27h2M31 28h1M43 28h5M51 28h3M21 29h1M40 29h15M21 30h1M23 30h1M30 30h1M37 30h3M43 30h1M45 30h10M20 31h1M26 31h1M30 31h1M35 31h2M42 31h12M21 32h1M25 32h2M30 32h1M33 32h2M42 32h11M21 33h1M25 33h2M31 33h3M41 33h8M56 33h1M19 34h1M22 34h1M34 34h1M39 34h7M47 34h1M49 34h1M55 34h3M23 35h2M34 35h11M46 35h1M48 35h1M50 35h1M55 35h4M61 35h1M39 36h3M43 36h1M45 36h1M47 36h1M49 36h1M54 36h3M62 36h1M41 37h3M46 37h1M48 37h1M50 37h6M63 37h1M20 38h1M39 38h1M41 38h3M47 38h1M49 38h5M35 39h1M42 39h2M48 39h2M62 39h2M32 40h1M37 40h1M42 40h2M60 40h4M42 41h1M56 41h7M17 42h2M26 42h1M42 42h1M55 42h8M16 43h2M19 43h1M27 43h4M38 43h1M44 43h4M54 43h8M15 44h3M19 44h1M24 44h2M29 44h5M40 44h2M43 44h7M53 44h9M15 45h3M19 45h2M23 45h3M31 45h10M42 45h3M46 45h5M53 45h9M15 46h3M20 46h5M27 46h2M33 46h7M48 46h3M54 46h4M59 46h3M16 47h3M27 47h3M32 47h1M35 47h4M48 47h3M54 47h1M56 47h1M58 47h1M60 47h1M62 47h1M17 48h4M25 48h5M31 48h1M33 48h5M42 48h3M49 48h2M53 48h1M55 48h1M57 48h1M59 48h1M20 49h3M25 49h4M30 49h1M32 49h1M34 49h1M36 49h1M40 49h6M49 49h1M51 49h4M27 50h1M31 50h1M33 50h1M35 50h1M37 50h10M49 50h1M51 50h1M32 51h1M36 51h5M43 51h4M51 51h2M63 51h2M17 52h1M34 52h4M44 52h3M51 52h4M62 52h3M15 53h1M30 53h3M44 53h3M51 53h8M61 53h5M14 54h1M31 54h5M45 54h1M49 54h17M21 55h1M32 55h6M45 55h1M47 55h5M56 55h7M64 55h1M19 56h5M34 56h6M47 56h3M58 56h4M63 56h1M65 56h1M17 57h2M22 57h3M36 57h7M58 57h1M60 57h1M62 57h1M64 57h1M23 58h2M29 58h2M40 58h4M46 58h1M55 58h1M57 58h1M59 58h1M61 58h1M63 58h1M23 59h3M27 59h2M33 59h2M41 59h3M46 59h3M54 59h1M56 59h7M14 60h1M22 60h6M34 60h2M41 60h3M45 60h5M55 60h1M58 60h4M22 61h6M34 61h3M41 61h2M44 61h3M49 61h4M56 61h4M13 62h1M21 62h2M26 62h1M35 62h1M52 62h6M13 63h1M19 63h3M35 63h1M17 64h3M34 64h1" />
<path stroke="#000000" d="M36 16h5M33 17h2M41 17h3M30 18h2M44 18h2M27 19h2M46 19h2M25 20h2M48 20h2M24 21h1M50 21h1M51 22h1M23 23h1M52 23h1M22 24h1M52 24h1M53 25h1M53 26h1M54 27h1M21 28h1M54 28h1M22 29h1M55 29h1M40 30h3M44 30h1M55 30h1M23 31h1M37 31h3M56 31h1M20 32h1M24 32h1M35 32h2M56 32h1M20 33h1M23 33h2M34 33h1M57 33h1M23 34h1M25 34h1M32 34h2M37 34h1M58 34h2M19 35h1M60 35h1M19 36h1M42 36h1M20 37h1M40 37h1M44 37h2M40 38h1M44 38h3M63 38h1M21 39h1M36 39h1M39 39h3M44 39h4M50 39h2M64 39h1M20 40h1M22 40h3M33 40h4M39 40h3M44 40h6M64 40h1M17 41h3M24 41h14M39 41h3M43 41h5M63 41h1M16 42h1M19 42h1M25 42h1M27 42h11M39 42h3M43 42h3M63 42h1M15 43h1M18 43h1M25 43h1M31 43h7M39 43h3M43 43h1M62 43h1M14 44h1M18 44h1M26 44h2M34 44h6M42 44h1M62 44h1M14 45h1M28 45h3M41 45h1M62 45h1M14 46h1M29 46h4M40 46h1M63 46h1M15 47h1M30 47h2M33 47h2M39 47h1M53 47h1M63 47h1M16 48h1M30 48h1M32 48h1M38 48h1M51 48h2M63 48h1M17 49h3M23 49h2M29 49h1M31 49h1M33 49h1M35 49h1M37 49h1M50 49h1M64 49h1M20 50h3M25 50h2M28 50h3M32 50h1M34 50h1M36 50h1M50 50h1M64 50h1M27 51h5M33 51h3M50 51h1M65 51h1M18 52h4M28 52h6M47 52h1M50 52h1M65 52h1M16 53h1M22 53h1M26 53h4M47 53h1M49 53h2M66 53h1M23 54h3M46 54h3M66 54h1M14 55h1M46 55h1M66 55h1M14 56h1M45 56h1M66 56h1M15 57h1M45 57h1M65 57h1M15 58h2M45 58h1M65 58h1M15 59h1M45 59h1M63 59h2M44 60h1M62 60h1M14 61h1M43 61h1M47 61h2M60 61h2M23 62h3M36 62h1M41 62h2M44 62h3M49 62h3M58 62h2M22 63h1M26 63h1M36 63h5M52 63h6M13 64h1M20 64h2M26 64h1M35 64h1M14 65h6M27 65h2M32 65h3M29 66h3" />
<path stroke="#e810a0" d="M35 17h6M33 18h11M32 19h12M28 20h2M34 20h7M46 20h2M27 21h5M44 21h4M28 22h8M40 22h6M29 23h14M51 23h1M32 24h9M49 24h3M24 25h1M34 25h4M43 25h10M23 26h3M40 26h12M21 27h1M23 27h5M30 27h3M38 27h6M46 27h6M22 28h9M32 28h11M48 28h3M23 29h1M25 29h6M32 29h8M24 30h6M32 30h5M24 31h2M27 31h3M31 31h4M54 31h2M27 32h3M31 32h2M53 32h3M27 33h4M49 33h7M20 34h2M26 34h6M46 34h1M48 34h1M50 34h5M21 35h2M25 35h9M45 35h1M47 35h1M49 35h1M51 35h4M59 35h1M22 36h17M44 36h1M46 36h1M48 36h1M50 36h4M57 36h3M23 37h17M47 37h1M49 37h1M56 37h3M62 37h1M27 38h12M48 38h1M54 38h4M61 38h2M22 39h2M30 39h5M37 39h2M52 39h10M21 40h1M25 40h7M38 40h1M53 40h7M20 41h4M38 41h1M48 41h1M52 41h4M20 42h5M38 42h1M46 42h9M20 43h5M26 43h1M42 43h1M48 43h6M20 44h4M28 44h1M50 44h3M18 45h1M21 45h2M26 45h2M45 45h1M51 45h2M18 46h2M25 46h2M41 46h7M51 46h3M58 46h1M62 46h1M19 47h8M40 47h8M51 47h2M55 47h1M57 47h1M59 47h1M61 47h1M21 48h4M39 48h3M45 48h4M54 48h1M56 48h1M58 48h1M60 48h3M38 49h2M46 49h3M55 49h9M47 50h2M52 50h12M42 51h1M47 51h3M53 51h10M41 52h1M43 52h1M48 52h2M55 52h7M19 53h3M34 53h1M36 53h1M38 53h1M40 53h1M42 53h2M48 53h1M59 53h2M19 54h4M27 54h1M29 54h1M36 54h2M39 54h1M41 54h4M17 55h4M22 55h5M28 55h1M30 55h1M38 55h7M52 55h4M63 55h1M65 55h1M15 56h4M24 56h10M40 56h5M46 56h1M50 56h8M62 56h1M64 56h1M16 57h1M19 57h3M25 57h11M43 57h2M46 57h12M59 57h1M61 57h1M63 57h1M17 58h6M25 58h4M31 58h9M44 58h1M47 58h8M56 58h1M58 58h1M60 58h1M62 58h1M64 58h1M16 59h4M21 59h2M26 59h1M29 59h4M35 59h6M44 59h1M49 59h5M55 59h1M15 60h2M19 60h3M28 60h1M31 60h3M36 60h5M50 60h5M56 60h2M18 61h4M31 61h3M37 61h4M53 61h3M17 62h4M27 62h1M30 62h5M37 62h4M16 63h3M27 63h8M14 64h3M27 64h7M29 65h3" />
<path stroke="#f8f8f8" d="M32 18h1M30 19h2M44 19h2M30 20h4M41 20h5M32 21h12M36 22h4M23 24h1M22 25h2M21 26h2M22 27h1M24 29h1M31 29h1M22 30h1M31 30h1M21 31h2M40 31h2M22 32h2M37 32h5M22 33h1M35 33h6M24 34h1M35 34h2M38 34h1M20 35h1M20 36h2M60 36h2M21 37h2M59 37h3M21 38h6M58 38h3M24 39h6M50 40h3M49 41h3M41 51h1M38 52h3M42 52h1M17 53h2M33 53h1M35 53h1M37 53h1M39 53h1M41 53h1M15 54h4M26 54h1M28 54h1M30 54h1M38 54h1M40 54h1M15 55h2M27 55h1M29 55h1M31 55h1M20 59h1M17 60h2M29 60h2M15 61h3M28 61h3M14 62h3M28 62h2M14 63h2" />
</svg>