<svg xmlns="http://www.w3.org/2000/svg" viewBox="0 -0.5 80 80" shape-rendering="crispEdges">
<metadata>Made with Pixels to Svg https://codepen.io/shshaw/pen/XbxvNj</metadata>
<path stroke="#a85870" d="M29 30h1M28 31h1M28 32h1M28 33h1M28 34h1M43 34h1M28 35h1M36 35h3M41 35h1M46 35h1M48 35h2M28 36h1M34 36h1M48 36h4M28 37h1M32 37h1M43 37h1M50 37h1M52 37h2M26 38h1M31 38h1M41 38h1M52 38h2M24 39h1M30 39h1M40 39h1M51 39h1M23 40h1M29 40h1M39 40h1M50 40h1M22 41h1M49 41h1M47 42h1M55 42h1M57 42h1M25 43h1M29 43h2M54 43h2M57 43h1M27 44h1M30 44h4M36 44h1M46 44h1M53 44h2M56 44h2M29 45h1M34 45h1M39 45h1M53 45h2M56 45h2M35 46h1M42 46h1M54 46h1M40 47h2M43 47h2M39 48h1M45 48h2M29 49h1M35 49h1M48 49h1M30 50h1M34 50h1M50 50h1M39 52h1M45 52h1M31 53h5M40 53h1M44 53h1M30 54h8M25 55h2M29 55h4M34 55h5M24 56h3M28 56h4M33 56h6M25 57h1M27 57h2M32 57h6M27 58h1M34 58h4M26 59h2M35 59h2M26 60h2M35 60h2M47 60h3M26 61h4M34 61h3M45 61h4M26 62h10M47 62h1M26 63h10M27 64h8M28 65h6M50 66h1" />
<path stroke="#000000" d="M30 30h1M31 31h1M32 32h1M33 33h1M44 33h3M34 34h7M47 34h3M42 35h4M47 35h1M50 35h2M35 36h1M46 36h2M52 36h2M27 37h1M33 37h1M44 37h2M48 37h2M51 37h1M54 37h1M56 37h2M25 38h1M42 38h1M50 38h2M54 38h2M58 38h1M52 39h2M58 39h1M51 40h1M57 40h1M38 41h1M48 41h1M57 41h1M21 42h1M37 42h1M56 42h1M58 42h1M21 43h1M26 43h3M47 43h1M56 43h1M58 43h1M22 44h3M28 44h2M34 44h2M55 44h1M58 44h1M27 45h2M35 45h4M46 45h1M55 45h1M58 45h1M26 46h3M36 46h6M55 46h3M24 47h2M27 47h2M36 47h4M55 47h3M23 48h1M27 48h2M32 48h1M36 48h3M56 48h1M22 49h1M27 49h2M36 49h3M46 49h2M56 49h1M22 50h1M28 50h2M35 50h4M46 50h4M57 50h1M22 51h1M28 51h11M42 51h1M46 51h6M57 51h1M23 52h1M29 52h10M46 52h7M57 52h1M24 53h2M30 53h1M36 53h4M45 53h6M53 53h4M25 54h2M29 54h1M38 54h12M55 54h1M24 55h1M27 55h2M33 55h1M39 55h9M54 55h1M23 56h1M27 56h1M32 56h1M39 56h5M54 56h1M22 57h1M26 57h1M31 57h1M38 57h1M54 57h1M22 58h1M25 58h2M31 58h1M38 58h1M54 58h1M23 59h3M30 59h1M37 59h2M47 59h3M53 59h1M25 60h1M30 60h1M37 60h2M42 60h5M50 60h3M25 61h1M37 61h5M43 61h2M51 61h1M25 62h1M36 62h1M45 62h2M51 62h1M36 63h1M47 63h1M52 63h1M26 64h1M35 64h1M48 64h1M52 64h1M27 65h1M34 65h1M49 65h1M52 65h1M29 66h4M51 66h1" />
<path stroke="#f8f8f8" d="M29 31h2M29 32h3M29 33h2M30 34h1M31 36h3M29 37h3M34 37h3M27 38h4M32 38h6M39 38h1M56 38h1M25 39h5M31 39h6M38 39h1M54 39h2M24 40h2M27 40h1M31 40h1M33 40h1M35 40h1M37 40h1M41 40h1M43 40h1M52 40h3M23 41h2M26 41h1M28 41h1M30 41h1M32 41h1M34 41h1M36 41h1M40 41h1M42 41h1M44 41h1M50 41h4M22 42h10M33 42h1M35 42h1M43 42h1M45 42h1M50 42h3M22 43h3M31 43h6M37 44h3M30 45h4M40 45h3M29 46h6M43 46h2M29 47h7M42 47h1M45 47h2M24 48h1M29 48h3M33 48h3M40 48h5M47 48h2M23 49h1M30 49h5M39 49h7M49 49h2M23 50h1M31 50h3M39 50h7M51 50h1M23 51h1M39 51h3M43 51h3M52 51h1M24 52h1M40 52h5M53 52h3M41 53h3M29 58h2M29 59h1M31 59h2M31 60h2M48 62h1M48 63h2M49 64h2M50 65h2" />
<path stroke="#9088a0" d="M31 33h2M29 34h1M31 34h3M44 34h3M29 35h7M39 35h2M29 36h2M36 36h10M37 37h6M46 37h2M38 38h1M40 38h1M43 38h7M57 38h1M37 39h1M39 39h1M41 39h10M56 39h2M26 40h1M28 40h1M30 40h1M32 40h1M34 40h1M36 40h1M38 40h1M40 40h1M42 40h1M44 40h6M55 40h2M25 41h1M27 41h1M29 41h1M31 41h1M33 41h1M35 41h1M37 41h1M39 41h1M41 41h1M43 41h1M45 41h3M54 41h3M32 42h1M34 42h1M36 42h1M38 42h5M44 42h1M46 42h1M48 42h2M53 42h2M37 43h10M48 43h6M40 44h6M47 44h6M43 45h3M47 45h6M45 46h9M26 47h1M47 47h8M25 48h2M49 48h7M24 49h3M51 49h5M24 50h4M52 50h5M24 51h4M53 51h4M25 52h4M56 52h1M26 53h4M51 53h2M27 54h2M50 54h5M48 55h6M44 56h10M23 57h2M29 57h2M39 57h15M23 58h2M28 58h1M32 58h2M39 58h15M28 59h1M33 59h2M39 59h8M50 59h3M28 60h2M33 60h2M39 60h3M30 61h4M49 61h2M49 62h2M50 63h2M51 64h1" />
</svg>