<svg xmlns="http://www.w3.org/2000/svg" viewBox="0 -0.5 64 64" shape-rendering="crispEdges">
<metadata>Made with Pixels to Svg https://codepen.io/shshaw/pen/XbxvNj</metadata>
<path stroke="#686028" d="M21 6h2M23 7h1M24 8h1M33 8h1M50 8h1M32 9h1M45 9h2M50 9h1M43 10h2M49 10h1M35 11h1M40 11h3M48 11h1M35 12h1M39 12h1M36 13h1M47 13h1M36 14h2M46 14h2M28 15h3M45 15h2M48 15h1M27 16h6M34 16h1M44 16h2M48 16h1M25 17h1M27 17h5M42 17h3M48 17h1M26 18h1M28 18h3M41 18h2M48 18h1M27 19h1M40 19h2M48 19h1M39 20h3M51 20h1M24 21h2M30 21h1M39 21h2M52 21h1M23 22h1M25 22h4M39 22h2M53 22h1M23 23h1M25 23h5M39 23h2M23 24h2M26 24h5M40 24h2M57 24h2M24 25h2M27 25h4M40 25h2M15 26h2M24 26h2M28 26h2M41 26h2M57 26h1M17 27h1M41 27h3M56 27h1M19 28h1M42 28h2M55 28h1M22 29h1M24 30h1M56 30h1M26 31h1M56 31h1M20 32h4M56 32h1M19 33h6M56 33h2M20 34h6M27 34h1M56 34h2M21 35h5M50 35h1M56 35h1M22 36h4M27 36h1M51 36h1M54 36h4M23 37h2M26 37h1M43 37h3M52 37h6M11 38h2M24 38h2M42 38h2M54 38h3M14 39h1M38 39h1M43 39h1M16 40h1M18 41h1M20 42h1M35 42h1M21 43h1M16 44h4M34 44h1M49 44h1M16 45h5M22 45h1M48 45h2M17 46h5M33 46h1M45 46h6M18 47h2M21 47h1M49 47h2M5 48h2M20 48h1M43 48h6M5 49h1M41 49h2M45 49h4M32 50h2M39 50h2M46 50h3M12 51h1M31 51h1M33 51h4M38 51h1M46 51h4M7 52h3M14 52h1M30 52h1M32 52h5M46 52h4M8 53h5M17 53h1M25 53h1M27 53h1M29 53h1M31 53h7M46 53h2M9 54h6M17 54h2M20 54h1M22 54h1M24 54h1M26 54h1M28 54h1M30 54h8M45 54h1M48 54h5M10 55h10M21 55h1M23 55h1M25 55h1M27 55h12M40 55h1M44 55h1M50 55h5M11 56h3M15 56h24M40 56h4M50 56h7M14 57h26M41 57h3M51 57h8" />
<path stroke="#403808" d="M20 7h1M48 7h3M20 8h1M25 8h1M34 8h1M47 8h1M21 9h1M26 9h3M35 9h1M21 10h1M29 10h1M32 10h1M35 10h1M22 11h1M30 11h1M32 11h1M36 11h1M21 12h1M31 12h1M33 12h1M36 12h1M48 12h1M20 13h1M32 13h2M37 13h2M48 13h1M19 14h1M21 14h2M33 14h1M38 14h1M48 14h1M18 15h1M20 15h1M23 15h1M33 15h1M37 15h1M47 15h1M18 16h1M20 16h1M24 16h2M33 16h1M37 16h1M47 16h1M20 17h1M26 17h1M32 17h1M34 17h1M36 17h1M47 17h1M21 18h1M27 18h1M31 18h1M36 18h1M47 18h1M22 19h1M28 19h2M35 19h1M47 19h1M50 19h1M22 20h1M29 20h2M35 20h1M47 20h2M17 21h1M23 21h1M31 21h1M35 21h1M18 22h1M24 22h1M36 22h1M24 23h1M36 23h1M53 23h1M25 24h1M31 24h1M37 24h1M54 24h3M37 25h1M52 25h1M54 25h1M26 26h1M38 26h1M51 26h1M53 26h1M14 27h1M18 27h1M26 27h1M39 27h2M44 27h1M51 27h1M55 27h1M14 28h1M20 28h2M25 28h1M41 28h1M44 28h1M56 28h1M14 29h1M23 29h2M42 29h2M53 29h1M56 29h1M15 30h1M25 30h2M51 30h1M57 30h1M16 31h1M27 31h1M54 31h1M17 32h1M18 33h1M58 33h1M27 35h1M57 35h1M20 37h1M13 38h1M19 38h1M23 38h1M44 38h2M52 38h1M11 39h1M15 39h2M18 39h1M39 39h4M54 39h1M11 40h1M17 40h1M37 40h2M43 40h1M11 41h1M19 41h1M36 41h1M46 41h1M12 42h1M36 42h1M13 43h1M35 43h1M14 44h1M22 44h1M35 44h1M14 45h2M34 45h1M14 46h1M34 46h1M13 47h1M20 47h1M33 47h1M43 47h1M7 48h1M13 48h1M33 48h1M41 48h2M8 49h2M12 49h1M33 49h2M39 49h2M5 50h1M10 50h2M34 50h1M38 50h1M5 51h1M38 53h1M48 53h1M16 54h1M46 54h2M39 55h1M45 55h1M55 55h1M8 56h2M14 56h1M44 56h1M57 56h1M7 57h1M10 57h1" />
<path stroke="#a8a868" d="M21 7h2M21 8h3M22 9h4M33 9h1M24 10h2M27 10h1M33 10h1M45 10h1M47 10h1M23 11h2M26 11h1M28 11h1M43 11h2M46 11h1M22 12h2M25 12h1M27 12h1M29 12h1M32 12h1M40 12h4M45 12h1M21 13h2M24 13h1M26 13h1M39 13h4M44 13h1M20 14h1M23 14h1M39 14h3M19 15h1M21 15h2M38 15h3M19 16h1M21 16h2M38 16h2M18 17h2M21 17h3M33 17h1M37 17h2M18 18h3M22 18h2M32 18h2M37 18h1M19 19h1M30 19h3M31 20h1M50 21h2M50 22h3M51 23h2M57 25h2M15 27h2M27 27h1M15 28h4M26 28h4M15 29h3M26 29h3M30 29h1M16 30h3M27 30h1M29 30h1M18 31h1M21 37h1M20 38h3M12 39h2M20 39h2M23 39h1M12 40h3M19 40h4M12 41h4M21 41h1M23 41h1M13 42h3M37 42h2M37 43h3M37 44h4M36 45h1M38 45h3M15 46h1M37 46h1M39 46h1M41 46h1M14 47h3M38 47h1M40 47h1M14 48h3M6 49h2M13 49h3M17 49h1M6 50h3M13 50h2M16 50h1M6 51h2" />
<path stroke="#888848" d="M48 8h2M34 9h1M47 9h3M22 10h2M26 10h1M28 10h1M34 10h1M46 10h1M48 10h1M25 11h1M27 11h1M29 11h1M33 11h2M45 11h1M47 11h1M24 12h1M26 12h1M28 12h1M30 12h1M34 12h1M44 12h1M46 12h2M23 13h1M25 13h1M27 13h5M34 13h2M43 13h1M45 13h2M24 14h9M34 14h2M42 14h4M24 15h4M31 15h2M34 15h3M41 15h4M23 16h1M26 16h1M35 16h2M40 16h4M24 17h1M35 17h1M39 17h3M24 18h2M34 18h2M38 18h3M18 19h1M20 19h2M23 19h4M33 19h2M36 19h4M18 20h4M23 20h6M32 20h3M36 20h3M49 20h2M18 21h5M26 21h4M32 21h3M36 21h3M47 21h3M19 22h4M29 22h2M32 22h4M37 22h2M46 22h4M19 23h4M30 23h1M32 23h4M37 23h2M46 23h5M20 24h3M32 24h5M38 24h2M45 24h9M22 25h2M31 25h6M38 25h2M45 25h7M53 25h1M55 25h2M31 26h7M39 26h2M44 26h7M54 26h3M30 27h9M45 27h6M54 27h1M30 28h11M45 28h6M18 29h4M25 29h1M29 29h1M31 29h11M44 29h7M55 29h1M19 30h5M28 30h1M30 30h21M55 30h1M17 31h1M19 31h7M28 31h26M55 31h1M18 32h2M24 32h32M25 33h31M26 34h1M28 34h28M26 35h1M28 35h20M51 35h5M28 36h19M52 36h2M27 37h16M26 38h16M19 39h1M22 39h1M24 39h14M15 40h1M23 40h14M39 40h4M16 41h2M22 41h1M24 41h12M37 41h9M16 42h4M22 42h13M39 42h9M14 43h7M23 43h12M36 43h1M40 43h9M15 44h1M20 44h2M23 44h11M36 44h1M41 44h8M21 45h1M23 45h11M35 45h1M37 45h1M41 45h7M22 46h11M35 46h2M38 46h1M40 46h1M42 46h3M22 47h11M34 47h4M39 47h1M41 47h2M17 48h1M21 48h12M34 48h7M16 49h1M18 49h15M35 49h4M43 49h2M9 50h1M15 50h1M17 50h15M41 50h5M8 51h4M15 51h16M32 51h1M39 51h7M10 52h4M16 52h14M31 52h1M38 52h8M13 53h3M18 53h7M26 53h1M28 53h1M30 53h1M39 53h7M15 54h1M19 54h1M21 54h1M23 54h1M25 54h1M27 54h1M29 54h1M39 54h6M20 55h1M22 55h1M24 55h1M26 55h1M41 55h3M46 55h4M45 56h5M8 57h2M45 57h6" />
<path stroke="#101010" d="M51 8h1M51 9h1M50 10h1M49 11h1M49 12h1M49 13h1M49 14h1M49 15h1M49 16h1M17 17h1M49 17h1M17 18h1M49 18h1M17 19h1M49 19h1M17 20h1M31 22h1M18 23h1M31 23h1M19 24h1M20 25h2M26 25h1M59 25h1M22 26h2M27 26h1M30 26h1M58 26h1M24 27h2M28 27h2M53 27h1M57 27h1M54 28h1M54 29h1M53 30h2M57 31h1M57 32h1M19 34h1M58 34h1M20 35h1M48 35h2M58 35h1M21 36h1M26 36h1M47 36h1M50 36h1M58 36h1M22 37h1M25 37h1M46 37h1M51 37h1M58 37h1M53 38h1M57 38h1M55 39h2M18 40h1M44 40h2M53 40h1M20 41h1M47 41h1M52 41h1M21 42h1M48 42h3M22 43h1M49 43h1M50 44h1M50 45h1M16 46h1M51 46h1M17 47h1M44 47h5M51 47h1M18 48h2M49 48h2M49 49h1M12 50h1M35 50h3M49 50h1M13 51h2M37 51h1M50 51h1M6 52h1M15 52h1M37 52h1M50 52h1M7 53h1M16 53h1M49 53h4M8 54h1M38 54h1M53 54h2M9 55h1M56 55h1M10 56h1M39 56h1M58 56h1M11 57h3M40 57h1M44 57h1M59 57h1" />
<path stroke="#886070" d="M46 16h1M45 17h1M43 18h2M42 19h1M42 20h3M41 21h5M41 22h5M41 23h5M42 24h3M42 25h3M43 26h1M51 41h1" />
<path stroke="#c090a8" d="M46 17h1M45 18h2M43 19h4M45 20h2M46 21h1M48 36h2M47 37h4M46 38h1M51 38h1" />
<path stroke="#d0d0d0" d="M52 26h1" />
<path stroke="#f8f8f8" d="M52 27h1M51 28h3M51 29h2M52 30h1" />
<path stroke="#e8b0c8" d="M47 38h4M44 39h7M46 40h3" />
<path stroke="#f8d0e0" d="M51 39h3M49 40h4M48 41h3" />
</svg>