<svg xmlns="http://www.w3.org/2000/svg" viewBox="0 -0.5 64 64" shape-rendering="crispEdges">
<metadata>Made with Pixels to Svg https://codepen.io/shshaw/pen/XbxvNj</metadata>
<path stroke="#e0a028" d="M33 8h1M32 9h1M28 10h2M43 10h2M26 11h2M43 11h3M24 12h2M43 12h3M42 13h4M54 13h1M42 14h3M55 14h2M41 15h2M56 15h2M41 16h1M56 16h2M40 17h1M57 17h2M39 18h1M57 18h2M38 19h1M58 19h2M36 20h2M58 20h2M29 21h8M58 21h2M25 22h12M58 22h2M14 23h1M22 23h6M35 23h1M37 23h1M57 23h3M11 24h1M18 24h1M21 24h5M37 24h2M56 24h4M19 25h1M22 25h2M38 25h2M52 25h2M56 25h3M19 26h2M22 26h1M39 26h3M49 26h10M20 27h2M40 27h18M6 28h1M20 28h2M40 28h5M55 28h2M5 29h1M20 29h1M41 29h2M46 29h8M4 30h1M19 30h2M50 30h6M4 31h1M19 31h1M52 31h5M3 32h1M19 32h1M53 32h4M19 33h1M53 33h5M2 34h1M19 34h1M53 34h5M18 35h2M53 35h5M18 36h3M52 36h6M16 37h3M52 37h3M56 37h2M15 38h2M21 38h6M52 38h3M57 38h1M14 39h1M26 39h4M51 39h1M53 39h1M57 39h1M27 40h4M32 40h1M50 40h1M52 40h2M56 40h2M28 41h3M32 41h1M49 41h1M51 41h1M53 41h4M28 42h3M32 42h1M48 42h1M50 42h1M52 42h5M10 43h1M29 43h2M32 43h2M47 43h9M5 44h5M29 44h2M32 44h2M48 44h8M6 45h4M29 45h2M32 45h3M48 45h7M8 46h1M29 46h2M32 46h4M41 46h2M47 46h7M29 47h3M33 47h1M37 47h6M46 47h7M28 48h4M33 48h2M38 48h14M28 49h4M34 49h17M27 50h5M35 50h14M26 51h6M36 51h10M10 52h1M27 52h5M38 52h5M10 53h2M27 53h4M11 54h4M25 54h5M13 55h16M15 56h11" />
<path stroke="#a85818" d="M34 8h8M30 9h2M42 9h1M49 12h2M23 13h1M48 13h1M22 14h1M46 14h1M21 15h1M58 15h1M20 16h1M20 17h1M59 17h1M19 18h1M19 19h1M60 19h1M18 20h1M18 21h1M18 22h1M15 23h4M12 24h2M19 24h1M9 25h2M21 25h1M8 26h1M7 27h1M30 27h4M28 28h1M34 28h1M45 28h1M54 28h1M57 32h1M3 33h1M37 33h1M58 33h1M30 34h1M36 34h1M58 34h1M2 35h1M35 35h1M2 36h1M34 36h1M2 37h1M19 37h1M26 37h1M33 37h1M2 38h1M18 38h1M29 38h1M2 39h1M16 39h1M14 40h1M13 41h1M3 42h1M12 42h1M4 44h1M31 46h1M9 47h1M32 49h2M32 50h1M34 50h1M32 51h1M35 51h1M37 52h1M31 53h1M30 54h1M29 55h1M26 56h2" />
<path stroke="#f0c858" d="M33 9h9M30 10h13M32 11h1M37 11h6M36 12h7M33 13h7M49 13h5M33 14h7M41 14h1M48 14h1M50 14h5M32 15h9M47 15h1M49 15h1M51 15h5M21 16h1M31 16h10M48 16h1M50 16h2M54 16h2M29 17h11M50 17h2M55 17h2M20 18h1M28 18h4M35 18h4M50 18h3M55 18h2M20 19h1M27 19h4M36 19h2M49 19h9M19 20h3M25 20h9M39 20h1M48 20h10M19 21h10M38 21h1M47 21h11M19 22h6M38 22h1M45 22h6M52 22h3M57 22h1M20 23h2M38 23h2M43 23h8M52 23h3M14 24h4M39 24h7M47 24h7M11 25h8M40 25h5M46 25h6M12 26h7M42 26h7M13 27h7M13 28h7M13 29h7M13 30h2M17 30h2M43 30h7M13 31h1M17 31h2M40 31h12M12 32h1M16 32h3M42 32h11M12 33h1M15 33h4M43 33h10M3 34h1M11 34h2M15 34h4M43 34h6M51 34h2M3 35h1M10 35h8M42 35h6M51 35h2M3 36h1M9 36h9M41 36h6M51 36h1M3 37h2M8 37h6M40 37h6M50 37h2M3 38h2M7 38h6M19 38h2M40 38h6M49 38h3M3 39h2M8 39h5M17 39h1M19 39h1M21 39h5M39 39h12M52 39h1M4 40h2M8 40h6M16 40h1M18 40h1M20 40h7M38 40h1M40 40h10M51 40h1M4 41h9M19 41h1M21 41h1M24 41h4M37 41h1M39 41h6M46 41h3M50 41h1M52 41h1M4 42h8M20 42h2M26 42h2M33 42h1M36 42h1M38 42h1M40 42h4M45 42h3M49 42h1M51 42h1M5 43h5M20 43h3M26 43h3M34 43h2M37 43h1M39 43h8M20 44h9M34 44h12M20 45h9M35 45h10M20 46h9M36 46h5M20 47h9M9 48h2M19 48h3M24 48h4M9 49h2M19 49h9M9 50h3M17 50h10M9 51h17M11 52h1M14 52h11M15 53h6M15 54h6" />
<path stroke="#101010" d="M43 9h2M45 10h1M46 11h1M46 12h1M51 12h4M46 13h2M55 13h2M45 14h1M57 14h1M43 15h2M42 16h1M58 16h1M41 17h1M40 18h1M59 18h1M39 19h1M38 20h1M60 20h1M37 21h1M60 21h1M37 22h1M60 22h1M19 23h1M28 23h7M36 23h1M60 23h1M20 24h1M26 24h2M35 24h2M60 24h1M20 25h1M24 25h2M29 25h4M37 25h1M59 25h1M21 26h1M23 26h1M27 26h8M38 26h1M59 26h1M22 27h1M26 27h4M34 27h2M39 27h1M58 27h1M22 28h1M25 28h3M35 28h1M39 28h1M46 28h8M57 28h1M21 29h1M24 29h3M35 29h1M40 29h1M43 29h3M54 29h3M21 30h1M23 30h3M34 30h1M40 30h3M56 30h1M20 31h1M23 31h2M34 31h1M39 31h1M57 31h1M20 32h1M23 32h2M33 32h1M38 32h1M20 33h1M24 33h2M31 33h2M20 34h1M26 34h4M20 35h1M58 35h1M21 36h1M58 36h1M20 37h6M58 37h1M17 38h1M27 38h2M32 38h1M58 38h1M15 39h1M30 39h1M32 39h1M58 39h1M3 40h1M31 40h1M58 40h1M3 41h1M31 41h1M57 41h1M31 42h1M57 42h1M4 43h1M11 43h1M31 43h1M56 43h1M10 44h1M31 44h1M56 44h1M5 45h1M10 45h1M31 45h1M55 45h1M6 46h2M9 46h1M54 46h1M8 47h1M32 47h1M53 47h1M8 48h1M32 48h1M52 48h1M8 49h1M51 49h1M8 50h1M33 50h1M49 50h2M60 50h1M8 51h1M33 51h2M46 51h4M60 51h1M9 52h1M32 52h1M35 52h2M43 52h3M50 52h2M60 52h1M9 53h1M32 53h1M37 53h6M50 53h1M59 53h1M10 54h1M31 54h1M58 54h1M11 55h2M30 55h1M54 55h3M13 56h2M28 56h2M51 56h3" />
<path stroke="#f8e878" d="M28 11h4M26 12h1M29 12h3M24 13h2M28 13h5M23 14h10M47 14h1M49 14h1M22 15h10M45 15h2M48 15h1M50 15h1M22 16h3M27 16h4M43 16h5M49 16h1M21 17h2M27 17h2M42 17h8M21 18h2M25 18h3M41 18h1M44 18h6M21 19h6M40 19h2M45 19h4M22 20h3M40 20h3M44 20h4M39 21h8M39 22h6M40 23h3M9 26h3M8 27h2M12 27h1M7 28h2M12 28h1M6 29h3M11 29h2M5 30h8M5 31h8M4 32h3M8 32h4M39 32h3M4 33h2M7 33h5M38 33h3M4 34h7M37 34h3M4 35h6M36 35h4M4 36h5M35 36h6M7 37h1M34 37h6M33 38h4M38 38h2M18 39h1M20 39h1M33 39h3M37 39h2M15 40h1M17 40h1M19 40h1M33 40h5M39 40h1M14 41h5M20 41h1M33 41h4M38 41h1M13 42h7M34 42h2M37 42h1M39 42h1M12 43h8M36 43h1M38 43h1M11 44h9M12 45h8M10 46h2M13 46h3M19 46h1M10 47h7M11 48h8M11 49h8M12 50h5" />
<path stroke="#f8f0c8" d="M33 11h1M36 11h1M32 12h1M40 14h1M32 18h1M34 20h2M51 22h1M56 23h1M46 24h1M54 25h2M16 31h1M13 32h1M14 34h1M50 34h1M47 36h1M50 36h1M55 37h1M13 38h1M48 38h1M55 38h2M13 39h1M54 39h3M54 40h2M23 41h1M25 42h1M44 42h1M23 43h1M46 44h2M45 45h3M18 46h1M43 46h4M19 47h1M34 47h3M43 47h3M22 48h2M35 48h3M25 52h2M12 53h1M24 53h3M21 54h4" />
<path stroke="#f8f8e8" d="M34 11h2M27 12h2M33 12h3M26 13h2M40 13h2M25 16h2M52 16h2M23 17h4M52 17h3M23 18h2M33 18h2M42 18h2M53 18h2M31 19h5M42 19h3M43 20h1M55 22h2M51 23h1M55 23h1M54 24h2M45 25h1M10 27h2M9 28h3M9 29h2M15 30h2M14 31h2M7 32h1M14 32h2M6 33h1M13 33h2M41 33h2M13 34h1M40 34h3M49 34h1M40 35h2M48 35h3M48 36h2M5 37h2M14 37h2M46 37h4M5 38h2M14 38h1M37 38h1M46 38h2M5 39h3M36 39h1M6 40h2M22 41h1M45 41h1M22 42h3M24 43h2M11 45h1M12 46h1M16 46h2M17 47h2M12 52h2M13 53h2M21 53h3" />
<path stroke="#e0a858" d="M28 24h1M34 24h1M28 25h1M33 25h1M35 26h1M37 26h1M25 27h1M38 27h1M24 28h1M38 28h1M23 29h1M38 29h1M38 30h1M21 31h1M37 31h1M36 33h1M21 34h1M35 34h1M21 35h2M33 35h2M22 36h2M31 36h3M27 37h5" />
<path stroke="#f8e098" d="M29 24h5M26 25h2M34 25h3M25 26h2M36 26h1M24 27h1M36 27h2M23 28h1M36 28h2M22 29h1M36 29h2M22 30h1M36 30h2M22 31h1M35 31h2M21 32h2M34 32h3M21 33h2M33 33h3M22 34h3M31 34h4M23 35h10M24 36h7" />
<path stroke="#b88030" d="M24 26h1M23 27h1M29 28h5M27 29h8M39 29h1M26 30h8M35 30h1M39 30h1M25 31h9M38 31h1M25 32h8M37 32h1M23 33h1M26 33h5M25 34h1M32 37h1M30 38h2M31 39h1" />
<path stroke="#204818" d="M57 48h3M55 49h2M60 49h1M54 50h1M52 51h2M57 54h1" />
<path stroke="#589048" d="M57 49h3M55 50h4M54 51h3" />
<path stroke="#487040" d="M59 50h1M57 51h3M33 52h2M46 52h4M52 52h8M33 53h4M43 53h7M51 53h8M32 54h25M31 55h23M30 56h21" />
</svg>