<svg xmlns="http://www.w3.org/2000/svg" viewBox="0 -0.5 64 64" shape-rendering="crispEdges">
<metadata>Made with Pixels to Svg https://codepen.io/shshaw/pen/XbxvNj</metadata>
<path stroke="#a05820" d="M26 12h8M24 13h2M22 14h2M21 15h1M20 16h1M19 17h1M19 18h1M18 19h1M36 19h1M38 19h1M18 20h1M35 20h1M37 20h1M39 20h1M18 21h1M34 21h1M36 21h5M17 22h1M35 22h7M17 23h1M34 23h8M33 24h5M44 24h1M33 25h3M31 26h3M48 26h1M27 27h6M20 28h1M28 28h4M31 29h1M16 30h1M15 31h1M14 32h1M13 33h1M49 33h1M51 33h1M13 34h1M48 34h1M50 34h1M52 34h1M12 35h1M47 35h1M49 35h4M12 36h1M33 36h1M35 36h1M48 36h5M12 37h1M32 37h1M34 37h1M47 37h1M49 37h4M33 38h1M35 38h2M48 38h5M32 39h1M34 39h3M47 39h6M31 40h1M33 40h4M46 40h1M48 40h5M30 41h1M32 41h5M47 41h5M29 42h1M31 42h6M46 42h6M30 43h7M38 43h1M44 43h8M29 44h1M31 44h6M38 44h14M12 45h1M28 45h1M30 45h7M38 45h5M47 45h3M12 46h1M27 46h1M29 46h8M39 46h1M11 47h3M24 47h7M34 47h3M13 48h4M21 48h7M16 49h3M24 49h3" />
<path stroke="#c07840" d="M26 13h8M27 14h9M28 15h10M28 16h11M27 17h13M26 18h14M26 19h10M37 19h1M39 19h2M25 20h10M36 20h1M38 20h1M40 20h1M25 21h9M35 21h1M24 22h11M23 23h1M25 23h9M18 24h1M20 24h1M22 24h1M24 24h9M19 25h1M21 25h1M23 25h10M38 25h7M18 26h1M20 26h1M22 26h9M40 26h7M18 27h9M41 27h8M18 28h2M41 28h9M20 29h9M41 29h10M21 30h10M40 30h11M22 31h11M36 31h1M38 31h1M40 31h12M22 32h12M35 32h1M37 32h1M39 32h13M21 33h14M36 33h1M38 33h1M40 33h9M50 33h1M20 34h15M37 34h1M39 34h9M49 34h1M51 34h1M19 35h17M38 35h9M48 35h1M18 36h1M20 36h13M34 36h1M37 36h11M13 37h1M15 37h1M17 37h1M19 37h13M33 37h1M35 37h1M37 37h10M48 37h1M12 38h1M14 38h1M16 38h1M18 38h15M34 38h1M38 38h10M13 39h1M15 39h1M17 39h1M19 39h13M33 39h1M38 39h9M12 40h1M14 40h1M16 40h1M18 40h13M32 40h1M38 40h8M47 40h1M12 41h2M15 41h1M17 41h13M31 41h1M38 41h9M12 42h17M30 42h1M38 42h8M12 43h18M39 43h5M12 44h17M30 44h1M13 45h15M29 45h1M13 46h14M28 46h1M14 47h10M17 48h4" />
<path stroke="#682000" d="M34 13h2M36 14h2M38 15h1M39 16h1M40 17h1M40 18h1M41 19h1M41 20h1M41 21h1M42 22h1M42 23h1M17 24h1M38 24h6M17 25h1M36 25h2M45 25h2M17 26h1M34 26h2M47 26h1M17 27h1M33 27h1M49 27h1M17 28h1M21 28h7M32 28h1M50 28h1M17 29h3M29 29h2M51 29h1M17 30h1M31 30h2M51 30h1M33 31h1M52 31h1M34 32h1M52 32h1M35 33h1M52 33h1M35 34h1M53 34h1M36 35h1M53 35h1M36 36h1M53 36h1M36 37h1M53 37h1M11 38h1M37 38h1M53 38h1M11 39h1M37 39h1M53 39h1M11 40h1M37 40h1M53 40h1M11 41h1M37 41h1M52 41h1M11 42h1M37 42h1M52 42h1M11 43h1M37 43h1M52 43h1M11 44h1M37 44h1M11 45h1M37 45h1M11 46h1M37 46h1" />
<path stroke="#e0a060" d="M24 14h3M22 15h6M21 16h7M20 17h7M20 18h6M19 19h7M19 20h6M19 21h6M18 22h6M18 23h5M24 23h1M19 24h1M21 24h1M23 24h1M18 25h1M20 25h1M22 25h1M19 26h1M21 26h1M36 26h4M34 27h7M33 28h8M32 29h9M18 30h3M33 30h7M16 31h6M34 31h2M37 31h1M39 31h1M15 32h7M36 32h1M38 32h1M14 33h7M37 33h1M39 33h1M14 34h6M36 34h1M38 34h1M13 35h6M37 35h1M13 36h5M19 36h1M14 37h1M16 37h1M18 37h1M13 38h1M15 38h1M17 38h1M12 39h1M14 39h1M16 39h1M18 39h1M13 40h1M15 40h1M17 40h1M14 41h1M16 41h1" />
<path stroke="#101010" d="M52 44h2M44 45h2M50 45h2M54 45h1M48 46h2M51 46h1M55 46h1M10 47h1M32 47h2M37 47h3M55 47h1M11 48h1M34 48h3M40 48h1M55 48h1M11 49h1M14 49h2M22 49h2M41 49h1M16 50h2M24 50h2M42 50h1M17 51h1M25 51h1M43 51h1M16 52h1" />
<path stroke="#807848" d="M10 45h1M9 46h1M44 46h1M52 46h1M9 47h1M40 47h1M43 47h1M50 47h4M8 48h1M39 48h1M41 48h1M50 48h5M8 49h1M12 49h1M37 49h2M40 49h1M42 49h1M50 49h5M8 50h1M12 50h2M15 50h1M23 50h1M26 50h1M36 50h4M41 50h1M51 50h3M11 51h3M16 51h1M24 51h1M26 51h1M34 51h7M42 51h1M12 52h3M23 52h1M34 52h7" />
<path stroke="#585020" d="M43 45h1M46 45h1M52 45h2M38 46h1M40 46h3M47 46h1M53 46h2M31 47h1M41 47h2M54 47h1M9 48h1M12 48h1M28 48h3M38 48h1M42 48h1M13 49h1M19 49h3M27 49h1M39 49h1M14 50h1M18 50h1M22 50h1M40 50h1M14 51h2M23 51h1M27 51h1M41 51h1M15 52h1M22 52h1M24 52h3M42 52h1" />
<path stroke="#e0e0b0" d="M10 46h1M44 47h5M10 48h1M31 48h2M43 48h6M9 49h2M28 49h5M43 49h4M9 50h1M19 50h3M27 50h3M44 50h2M9 51h1M18 51h3M28 51h1M44 51h1M17 52h3" />
<path stroke="#b0a870" d="M43 46h1M45 46h2M50 46h1M49 47h1M33 48h1M37 48h1M49 48h1M33 49h4M47 49h3M10 50h2M30 50h6M43 50h1M46 50h5M10 51h1M21 51h2M29 51h5M45 51h7M9 52h3M20 52h2M27 52h7M44 52h1M46 52h1M48 52h1" />
</svg>