<svg xmlns="http://www.w3.org/2000/svg" viewBox="0 -0.5 64 64" shape-rendering="crispEdges">
<metadata>Made with Pixels to Svg https://codepen.io/shshaw/pen/XbxvNj</metadata>
<path stroke="#101010" d="M32 7h3M32 8h4M32 9h4M39 9h2M32 10h4M38 10h3M26 11h3M32 11h4M38 11h3M26 12h4M32 12h4M38 12h2M27 13h4M33 13h3M37 13h3M28 14h3M33 14h3M37 14h2M29 15h3M34 15h2M37 15h2M30 16h2M34 16h2M37 16h2M28 17h5M34 17h4M42 17h1M31 18h6M44 18h1M32 19h4M45 19h1M46 20h1M47 21h1M48 22h1M49 24h1M50 26h1M18 27h1M18 28h1M48 28h1M51 28h1M18 29h1M45 29h2M49 29h1M51 29h1M18 30h1M49 30h1M51 30h1M10 31h1M50 31h1M10 32h1M50 32h1M10 33h1M19 33h1M50 33h1M10 34h1M51 34h1M51 35h1M51 36h1M11 37h1M51 37h1M11 38h1M53 38h1M12 40h1M12 41h1M54 41h1M12 42h1M54 42h1M12 43h1M54 43h1M11 44h1M53 44h1M11 45h1M49 45h3M11 46h1M48 46h1M47 47h1M10 48h1M18 48h1M46 48h1M10 49h1M20 49h1M45 49h1M10 50h1M21 50h1M45 50h1M10 51h1M45 51h1M45 52h1M11 53h1M14 53h1M44 53h1M11 54h1M14 54h1M44 54h1M11 55h1M14 55h1M44 55h1M12 56h1M15 56h1M43 56h1" />
<path stroke="#186068" d="M32 16h2M36 16h1M39 16h1M27 17h1M40 17h2M25 18h2M43 18h1M20 19h2M23 19h2M19 20h1M22 20h1M19 21h1M21 21h1M17 22h2M20 22h1M15 23h2M20 23h1M48 23h1M14 24h1M19 24h1M13 25h1M19 25h1M49 25h1M12 26h1M18 26h1M11 27h1M50 27h1M11 28h1M44 28h1M47 28h1M11 29h1M43 29h1M10 30h1M43 30h1M18 31h1M42 31h1M51 31h1M19 32h1M41 32h1M51 32h1M42 33h2M20 34h1M43 34h1M10 35h1M42 35h1M11 36h1M16 36h1M42 36h1M16 37h1M41 37h1M52 37h1M15 38h1M40 38h1M51 38h1M12 39h1M14 39h1M38 39h2M50 39h1M53 39h1M13 40h1M50 40h1M54 40h1M13 41h1M50 41h1M50 42h1M49 43h1M49 44h1M52 44h1M48 45h1M10 47h1M15 47h2M14 48h1M17 48h1M45 48h1M13 49h1M19 49h1M44 49h1M13 50h1M41 50h3M13 51h1M10 52h1M13 52h1" />
<path stroke="#90d0d8" d="M33 17h1M38 17h2M27 18h4M37 18h5M25 19h7M36 19h8M20 20h2M23 20h3M30 20h15M20 21h1M22 21h2M32 21h14M19 22h1M22 22h1M33 22h14M18 23h2M21 23h2M24 23h1M32 23h16M16 24h3M21 24h3M29 24h1M31 24h17M14 25h5M20 25h3M24 25h1M26 25h1M28 25h1M30 25h19M14 26h4M20 26h4M25 26h1M27 26h1M29 26h20M13 27h5M20 27h29M12 28h6M20 28h24M45 28h2M12 29h6M20 29h23M44 29h1M47 29h1M12 30h6M21 30h22M44 30h5M11 31h7M22 31h20M44 31h5M11 32h8M24 32h17M42 32h8M12 33h7M26 33h4M31 33h1M33 33h1M35 33h1M37 33h1M39 33h1M41 33h1M44 33h6M11 34h1M13 34h1M15 34h4M30 34h1M32 34h1M34 34h1M36 34h1M38 34h1M40 34h1M44 34h6M12 35h1M14 35h1M16 35h4M33 35h1M35 35h1M37 35h1M39 35h1M43 35h8M13 36h1M15 36h1M17 36h4M43 36h8M17 37h5M42 37h9M16 38h7M41 38h9M15 39h7M23 39h1M25 39h1M40 39h10M14 40h9M24 40h1M26 40h1M28 40h1M38 40h12M14 41h10M25 41h1M27 41h1M29 41h1M31 41h1M33 41h1M35 41h1M37 41h1M39 41h11M13 42h12M26 42h1M28 42h1M30 42h1M32 42h1M34 42h1M36 42h1M38 42h8M48 42h1M13 43h17M31 43h1M33 43h1M35 43h10M12 44h32M12 45h31M12 46h29M11 47h4M17 47h23M11 48h3M19 48h20M11 49h2M14 49h1M17 49h2M21 49h18M11 50h2M14 50h7M23 50h15M39 50h1M12 51h1M16 51h3M20 51h1M22 51h1M24 51h11M36 51h1M38 51h1M11 52h1M19 52h1M21 52h1M23 52h1M25 52h1M27 52h1M29 52h1M31 52h1M33 52h1M35 52h1M37 52h1M22 53h1M24 53h1M26 53h1M28 53h1M30 53h1M32 53h1M34 53h1M36 53h1M25 54h1M27 54h1M29 54h1M31 54h1M33 54h1" />
<path stroke="#68a8b0" d="M42 18h1M44 19h1M45 20h1M46 21h1M21 22h1M47 22h1M17 23h1M15 24h1M20 24h1M48 24h1M13 26h1M19 26h1M49 26h1M12 27h1M19 27h1M49 27h1M19 28h1M49 28h2M19 29h1M48 29h1M50 29h1M11 30h1M19 30h2M50 30h1M19 31h3M43 31h1M49 31h1M20 32h4M11 33h1M20 33h6M30 33h1M32 33h1M34 33h1M36 33h1M38 33h1M40 33h1M12 34h1M14 34h1M19 34h1M21 34h9M31 34h1M33 34h1M35 34h1M37 34h1M39 34h1M41 34h2M50 34h1M11 35h1M13 35h1M15 35h1M20 35h13M34 35h1M36 35h1M38 35h1M40 35h2M12 36h1M14 36h1M21 36h21M12 37h4M22 37h19M12 38h3M23 38h17M50 38h1M13 39h1M22 39h1M24 39h1M26 39h12M23 40h1M25 40h1M27 40h1M29 40h9M24 41h1M26 41h1M28 41h1M30 41h1M32 41h1M34 41h1M36 41h1M38 41h1M25 42h1M27 42h1M29 42h1M31 42h1M33 42h1M35 42h1M37 42h1M46 42h2M49 42h1M30 43h1M32 43h1M34 43h1M45 43h4M44 44h5M43 45h5M41 46h7M40 47h7M39 48h6M39 49h5M22 50h1M38 50h1M40 50h1M44 50h1M11 51h1M14 51h2M19 51h1M21 51h1M23 51h1M35 51h1M37 51h1M39 51h6M12 52h1M14 52h5M20 52h1M22 52h1M24 52h1M26 52h1M28 52h1M30 52h1M32 52h1M34 52h1M36 52h1M38 52h7M12 53h2M15 53h7M23 53h1M25 53h1M27 53h1M29 53h1M31 53h1M33 53h1M35 53h1M37 53h7M12 54h2M15 54h10M26 54h1M28 54h1M30 54h1M32 54h1M34 54h10M12 55h2M15 55h29M13 56h2M16 56h27" />
<path stroke="#98e8e8" d="M26 20h4M24 21h8M23 22h10M23 23h1M25 23h7M24 24h5M30 24h1M23 25h1M25 25h1M27 25h1M29 25h1M24 26h1M26 26h1M28 26h1M15 48h2M15 49h2" />
<path stroke="#d0f0f0" d="M52 38h1M51 39h2M51 40h2M51 41h2M51 42h1M50 43h1" />
<path stroke="#a8c8c8" d="M53 40h1M53 41h1M52 42h2M51 43h3M50 44h2" />
</svg>