<svg xmlns="http://www.w3.org/2000/svg" viewBox="0 -0.5 64 64" shape-rendering="crispEdges">
<metadata>Made with Pixels to Svg https://codepen.io/shshaw/pen/XbxvNj</metadata>
<path stroke="#485000" d="M17 8h1M15 9h1M19 9h2M13 10h1M21 10h1M44 10h1M23 11h1M43 11h1M40 12h1M47 12h1M49 12h1M24 13h1M37 13h1M39 13h1M50 13h1M25 14h1M51 14h1M9 16h1M36 16h1M51 16h1M36 17h1M51 17h1M10 18h1M35 18h1M52 18h1M10 19h1M34 19h1M11 20h1M35 20h1M10 21h1M24 21h1M26 21h1M35 21h1M11 22h2M23 22h1M25 22h1M35 22h1M52 22h1M13 23h2M36 23h1M51 23h1M15 24h2M37 24h1M36 25h1M28 26h1M37 26h2M29 27h1M31 27h1M39 27h2M45 28h1M47 28h1M46 29h1M28 36h1M31 36h1M22 37h2M25 37h1M28 37h1M32 37h1M20 38h1M22 38h1M54 38h1M18 39h1M21 39h1M17 40h1M19 40h1M16 41h1M15 42h1M38 42h2M16 43h1M39 43h1M40 44h1M14 45h1M40 45h1M13 48h1M13 49h1M40 49h2M13 52h1M13 53h1M14 54h1M14 55h1" />
<path stroke="#707800" d="M16 9h1M18 9h1M22 9h1M14 10h1M20 10h1M23 10h1M12 11h1M42 11h1M45 11h1M11 12h1M24 12h1M41 12h1M46 12h1M11 13h1M23 13h1M48 13h1M10 14h1M23 14h2M36 14h1M10 15h1M22 15h3M37 15h1M50 15h1M22 16h2M10 17h1M19 17h1M21 17h3M16 18h1M18 18h1M20 18h4M11 19h1M15 19h1M17 19h1M19 19h6M26 19h1M49 19h1M12 20h2M16 20h9M49 20h1M13 21h11M46 21h1M48 21h2M13 22h10M41 22h1M43 22h1M45 22h1M47 22h3M15 23h6M38 23h1M40 23h1M42 23h1M44 23h7M17 24h1M19 24h1M39 24h1M41 24h10M16 25h1M38 25h13M40 26h1M43 26h7M44 27h5M44 28h1M46 28h1M27 35h1M26 36h1M24 37h1M25 38h1M16 40h1M33 40h1M34 41h1M15 43h1M14 44h1M39 45h1M13 46h1M16 46h1M12 47h1M15 47h1M19 47h1M21 47h1M40 47h1M16 48h1M20 48h1M38 48h1M24 49h1M26 49h1M30 49h1M37 49h1M39 49h1M12 50h1M23 50h1M25 50h1M29 50h1M31 50h2M34 50h1M36 50h2M39 50h3M13 51h1M28 51h1M30 51h2M33 51h1M35 51h1M37 51h4M27 52h1M29 52h12M22 53h1M26 53h16M15 54h1M19 54h1M21 54h1M23 54h1M25 54h16M15 55h2M18 55h3M22 55h20" />
<path stroke="#c0c848" d="M17 9h1M16 10h4M22 10h1M13 11h2M17 11h1M19 11h1M21 11h2M44 11h1M12 12h2M15 12h1M18 12h1M22 12h2M42 12h3M12 13h1M38 13h1M40 13h3M45 13h1M47 13h1M49 13h1M11 14h3M37 14h3M41 14h1M43 14h1M46 14h1M48 14h1M50 14h1M11 15h1M38 15h1M40 15h1M10 16h1M12 16h1M37 16h3M37 17h1M36 18h2M38 19h1M27 36h1M26 37h2M31 37h1M23 38h2M27 38h6M24 39h1M26 39h2M30 39h1M32 39h2M31 40h1M17 41h1M20 41h1M16 42h2M19 42h1M36 42h1M17 43h2M36 43h3M15 44h1M17 44h1M19 44h1M37 44h3M16 45h1M36 45h1M38 45h1M14 46h2M37 46h3M13 47h2M38 47h1M15 48h1" />
<path stroke="#98a020" d="M15 10h1M15 11h2M18 11h1M20 11h1M46 11h1M14 12h1M16 12h2M19 12h3M45 12h1M48 12h1M13 13h10M43 13h2M46 13h1M14 14h9M40 14h1M42 14h1M44 14h2M47 14h1M49 14h1M12 15h10M36 15h1M39 15h1M41 15h9M11 16h1M13 16h9M40 16h11M11 17h8M20 17h1M38 17h13M11 18h5M17 18h1M19 18h1M38 18h13M12 19h3M16 19h1M18 19h1M35 19h3M39 19h10M14 20h2M36 20h13M11 21h2M36 21h10M47 21h1M36 22h5M42 22h1M44 22h1M46 22h1M37 23h1M39 23h1M41 23h1M43 23h1M38 24h1M40 24h1M37 25h1M39 26h1M26 38h1M20 39h1M22 39h2M25 39h1M28 39h2M31 39h1M34 39h1M18 40h1M20 40h11M32 40h1M18 41h2M21 41h13M36 41h1M18 42h1M20 42h16M37 42h1M19 43h17M16 44h1M18 44h1M20 44h17M15 45h1M17 45h19M37 45h1M17 46h20M40 46h1M16 47h3M20 47h1M22 47h16M39 47h1M14 48h1M17 48h3M21 48h17M39 48h2M14 49h10M25 49h1M27 49h3M31 49h6M38 49h1M13 50h10M24 50h1M26 50h3M30 50h1M33 50h1M35 50h1M38 50h1M14 51h14M29 51h1M32 51h1M34 51h1M36 51h1M14 52h13M28 52h1M14 53h8M23 53h3M16 54h3M20 54h1M22 54h1M24 54h1M17 55h1M21 55h1" />
<path stroke="#101010" d="M25 15h1M24 16h1M24 17h2M24 18h3M25 19h1M51 19h1M26 20h1M50 20h1M52 20h1M50 21h3M51 22h1M21 23h2M25 23h1M18 24h1M20 24h1M22 24h2M26 24h1M17 25h3M24 25h1M27 25h1M17 26h3M25 26h1M41 26h2M17 27h3M26 27h1M42 27h2M49 27h1M17 28h3M27 28h1M42 28h2M49 28h1M17 29h3M28 29h1M30 29h1M32 29h1M42 29h3M18 30h2M29 30h1M32 30h1M41 30h3M47 30h1M50 30h1M18 31h3M29 31h1M31 31h1M41 31h2M18 32h3M30 32h1M40 32h2M48 32h1M18 33h3M39 33h3M51 33h1M18 34h3M39 34h2M49 34h1M51 34h1M19 35h2M38 35h3M19 36h3M37 36h4M50 36h1M52 36h1M19 37h3M29 37h2M36 37h3M50 37h1M52 37h1M19 38h1M21 38h1M33 38h7M51 38h1M19 39h1M35 39h4M50 39h1M53 39h1M34 40h4M51 40h2M35 41h1M37 41h1M41 46h1M41 47h1M41 48h2M42 50h1M41 51h1M41 52h1M42 53h1M41 54h1M42 55h1" />
<path stroke="#f8f8f8" d="M25 16h1M51 20h1" />
<path stroke="#606060" d="M26 16h1M26 17h1M51 18h1M50 19h1M52 19h1M50 22h1M41 27h1M40 28h2M40 29h2M17 30h1M20 30h1M40 30h1M40 31h1M39 32h1M42 32h1M38 34h1M41 34h1M18 35h1M21 35h1M35 37h1M39 37h1M38 40h1" />
<path stroke="#e0c878" d="M25 20h1M25 21h1M24 22h1M26 22h1M23 23h2M26 23h1M24 24h2M25 25h2M26 26h2M27 27h2M28 28h2M48 28h1M51 28h1M29 29h1M47 29h2M30 30h2M48 30h2M30 31h1M49 31h1M49 32h2M52 32h1M50 33h1M50 34h1M51 35h1M51 36h1M51 37h1M52 38h2M51 39h2" />
<path stroke="#806818" d="M27 22h1M28 23h1M29 24h1M30 25h1M31 26h1M51 26h1M51 27h1M30 28h1M32 28h1M49 29h1M52 29h1M52 30h1M48 31h1M50 31h1M52 31h1M51 32h1M49 33h1M53 33h1M53 34h1M50 35h1M52 35h2M54 36h1M54 37h1" />
<path stroke="#f8f0a0" d="M27 23h1M27 24h2M28 25h2M29 26h2M50 26h1M30 27h1M50 27h1M31 28h1M50 28h1M31 29h1M50 29h2M51 30h1M51 31h1M52 33h1M52 34h1M53 36h1M53 37h1" />
</svg>