<svg xmlns="http://www.w3.org/2000/svg" viewBox="0 -0.5 64 64" shape-rendering="crispEdges">
<metadata>Made with Pixels to Svg https://codepen.io/shshaw/pen/XbxvNj</metadata>
<path stroke="#98d8f8" d="M17 14h1M19 14h1M29 14h1M31 14h1M18 15h1M20 15h1M26 15h1M28 15h1M30 15h1M32 15h1M11 16h1M15 16h1M17 16h1M19 16h1M21 16h1M25 16h1M27 16h1M29 16h3M33 16h1M35 16h1M37 16h1M10 17h1M12 17h1M14 17h1M16 17h1M18 17h3M22 17h1M24 17h1M26 17h1M28 17h1M32 17h1M36 17h1M38 17h1M11 18h1M13 18h1M15 18h7M23 18h1M25 18h1M27 18h2M31 18h1M33 18h1M35 18h1M37 18h1M45 18h1M47 18h1M49 18h1M10 19h1M12 19h1M14 19h1M16 19h2M21 19h2M24 19h1M26 19h1M28 19h3M32 19h1M34 19h1M36 19h1M38 19h1M40 19h1M44 19h1M46 19h1M48 19h1M50 19h1M11 20h1M13 20h1M15 20h2M22 20h2M29 20h1M31 20h1M37 20h1M39 20h1M43 20h1M45 20h3M49 20h1M51 20h1M14 21h2M22 21h1M36 21h1M38 21h1M40 21h1M44 21h2M47 21h4M13 22h1M15 22h1M20 22h1M22 22h2M39 22h1M41 22h1M43 22h1M45 22h1M48 22h2M51 22h1M14 23h2M19 23h1M21 23h1M23 23h2M40 23h1M42 23h1M44 23h2M48 23h1M50 23h1M13 24h4M20 24h1M22 24h2M45 24h5M51 24h1M14 25h1M16 25h4M21 25h2M46 25h1M48 25h1M50 25h1M13 26h1M15 26h1M17 26h6M47 26h1M49 26h1M53 26h1M12 27h1M14 27h1M16 27h6M48 27h1M50 27h1M52 27h1M54 27h1M13 28h1M16 28h2M49 28h1M51 28h1M53 28h1M10 29h1M12 29h1M15 29h1M50 29h1M52 29h1M54 29h1M7 30h1M9 30h1M11 30h1M14 30h1M16 30h1M53 30h1M55 30h1M6 31h1M8 31h1M10 31h1M52 31h3M7 32h1M11 32h1M51 32h2M55 32h1M6 33h1M8 33h1M10 33h1M13 33h1M52 33h1M54 33h1M7 34h1M9 34h2M12 34h1M53 34h1M55 34h1M8 35h4M54 35h1M56 35h1M60 35h1M5 36h1M9 36h2M53 36h1M57 36h1M59 36h1M61 36h1M2 37h1M4 37h1M6 37h1M8 37h1M45 37h1M54 37h1M56 37h1M58 37h1M60 37h1M62 37h1M1 38h1M3 38h1M5 38h1M7 38h1M9 38h2M53 38h3M57 38h5M2 39h5M8 39h1M10 39h1M53 39h2M56 39h2M60 39h3M1 40h2M6 40h2M9 40h1M52 40h1M55 40h2M61 40h1M63 40h1M0 41h2M6 41h4M56 41h2M61 41h2M1 42h1M7 42h1M56 42h1M58 42h1M60 42h2M63 42h1M0 43h2M6 43h3M56 43h2M59 43h4M1 44h2M4 44h4M56 44h1M58 44h2M62 44h2M0 45h1M2 45h3M6 45h1M57 45h1M59 45h1M62 45h1M1 46h1M3 46h1M5 46h1M7 46h1M58 46h4M63 46h1M2 47h1M4 47h1M6 47h3M57 47h2M60 47h1M62 47h1M3 48h1M5 48h4M56 48h1M58 48h2M61 48h1M6 49h4M56 49h4" />
<path stroke="#70b0d0" d="M29 17h3M29 18h2M18 19h3M17 20h5M16 21h6M24 21h1M26 21h1M28 21h1M30 21h1M32 21h1M34 21h1M46 21h1M16 22h4M21 22h1M25 22h1M27 22h1M29 22h3M33 22h1M35 22h1M37 22h1M46 22h2M16 23h3M20 23h1M22 23h1M26 23h1M28 23h7M36 23h1M38 23h1M46 23h2M17 24h3M21 24h1M25 24h4M30 24h8M39 24h1M41 24h1M43 24h1M20 25h1M24 25h2M27 25h1M29 25h1M31 25h1M33 25h1M35 25h1M37 25h2M40 25h1M42 25h3M23 26h4M32 26h1M34 26h1M36 26h1M38 26h5M44 26h2M22 27h2M25 27h1M39 27h1M41 27h1M43 27h1M46 27h1M11 28h1M15 28h1M19 28h4M24 28h1M26 28h1M42 28h2M47 28h1M14 29h1M16 29h1M18 29h2M21 29h1M23 29h1M47 29h2M13 30h1M15 30h1M17 30h2M20 30h1M48 30h2M51 30h1M12 31h1M14 31h1M16 31h2M49 31h2M13 32h1M15 32h2M53 32h2M12 33h1M14 33h2M17 33h1M53 33h1M11 34h1M13 34h4M51 34h1M12 35h2M15 35h1M52 35h1M11 36h2M14 36h1M16 36h1M10 37h4M11 38h2M11 39h2M58 39h2M3 40h3M10 40h2M57 40h4M2 41h4M10 41h2M54 41h1M58 41h3M2 42h5M9 42h3M54 42h2M59 42h1M2 43h4M9 43h2M55 43h1M3 44h1M8 44h2M54 44h2M60 44h2M8 45h3M55 45h2M60 45h2M8 46h2M54 46h3M9 47h2M55 47h2M9 48h2M54 48h2M10 49h1M55 49h1" />
<path stroke="#4888a8" d="M29 24h1M26 25h1M28 25h1M30 25h1M32 25h1M34 25h1M36 25h1M27 26h4M37 26h1M24 27h1M27 27h1M29 27h1M31 27h1M33 27h1M35 27h1M37 27h2M40 27h1M42 27h1M28 28h1M39 28h3M45 28h1M20 29h1M25 29h1M40 29h1M42 29h2M46 29h1M22 30h1M19 31h1M18 32h1M16 33h1M14 35h1M17 35h1M13 36h1M15 36h1M14 37h1M17 37h1M13 38h1M15 38h1M14 39h1M12 40h1M13 41h1M12 42h1M13 43h1M54 43h1M10 44h1M12 44h1M11 45h1M54 45h1M10 46h1M12 46h1M53 46h1M11 47h1M52 47h1M54 47h1M53 48h1M52 49h1M54 49h1" />
<path stroke="#502860" d="M31 26h1M33 26h1M35 26h1M43 26h1M26 27h1M28 27h1M30 27h1M32 27h1M34 27h1M36 27h1M44 27h1M23 28h1M25 28h1M27 28h1M29 28h10M44 28h1M22 29h1M24 29h1M26 29h14M41 29h1M44 29h1M19 30h1M21 30h1M23 30h1M25 30h14M40 30h1M42 30h3M47 30h1M18 31h1M20 31h3M24 31h18M43 31h2M48 31h1M17 32h1M19 32h3M23 32h1M29 32h12M42 32h1M44 32h1M49 32h1M18 33h5M30 33h10M41 33h1M49 33h2M17 34h5M31 34h10M42 34h1M44 34h1M50 34h1M16 35h1M18 35h3M30 35h1M32 35h8M41 35h1M43 35h1M50 35h2M17 36h4M31 36h10M42 36h1M44 36h1M51 36h1M15 37h2M18 37h3M28 37h1M30 37h1M32 37h13M50 37h3M14 38h1M16 38h6M27 38h1M29 38h1M31 38h15M50 38h3M13 39h1M15 39h6M22 39h1M24 39h1M26 39h1M28 39h1M30 39h16M52 39h1M13 40h9M23 40h1M25 40h1M27 40h1M29 40h18M53 40h1M12 41h1M14 41h33M53 41h1M13 42h35M53 42h1M11 43h2M14 43h29M44 43h5M53 43h1M11 44h1M13 44h30M45 44h5M53 44h1M12 45h31M46 45h5M53 45h1M11 46h1M13 46h30M47 46h6M12 47h31M49 47h3M53 47h1M11 48h33M50 48h3M11 49h34M51 49h1M53 49h1" />
<path stroke="#d8d8d8" d="M45 29h1M46 30h1M47 31h1M48 32h1M49 34h1M45 36h1M50 36h1M46 39h1M47 41h1M52 41h1M48 42h1M49 43h1M50 44h1M51 45h1M47 47h1M46 48h1M45 49h1" />
<path stroke="#9070c0" d="M24 30h1M39 30h1M41 30h1M23 31h1M42 31h1M22 32h1M24 32h5M41 32h1M43 32h1M23 33h2M27 33h3M40 33h1M42 33h3M22 34h2M27 34h4M41 34h1M43 34h1M21 35h3M26 35h4M31 35h1M40 35h1M42 35h1M44 35h1M21 36h10M41 36h1M43 36h1M21 37h7M29 37h1M31 37h1M22 38h5M28 38h1M30 38h1M21 39h1M23 39h1M25 39h1M27 39h1M29 39h1M22 40h1M24 40h1M26 40h1M28 40h1" />
<path stroke="#a880e0" d="M25 33h2M24 34h3M24 35h2" />
<path stroke="#101010" d="M43 43h1M44 44h1M45 45h1M46 46h1M48 47h1M49 48h1M50 49h1" />
<path stroke="#d85038" d="M43 44h1M43 45h2M43 46h2M43 47h2M44 48h1M47 48h2M46 49h4" />
</svg>