<svg xmlns="http://www.w3.org/2000/svg" viewBox="0 -0.5 80 80" shape-rendering="crispEdges">
<metadata>Made with Pixels to Svg https://codepen.io/shshaw/pen/XbxvNj</metadata>
<path stroke="#4a6a52" d="M43 10h2M42 11h1M42 12h1M42 13h1M42 14h1M41 15h2M41 18h1M34 29h1M36 29h1M52 29h1M36 30h1M35 31h1M50 31h2M54 31h2M35 32h1M34 33h1M33 34h1M51 35h1M53 38h1M54 39h1M27 40h1M53 41h2M53 42h1M56 42h1M52 43h1M27 44h1M51 44h1M57 44h1M27 45h2M50 45h1M28 46h3M50 46h1M29 47h3M49 47h1M29 48h4M49 48h1M29 49h4M49 49h1M30 50h2M50 50h1M52 53h1M51 54h1M25 63h5M31 64h3M33 65h1M35 65h1M36 67h1M21 68h1M37 68h1M39 68h1M36 69h1M38 69h1M40 69h1" />
<path stroke="#83c54a" d="M43 11h2M43 12h3M43 13h3M43 14h4M43 15h4M44 16h3M45 17h3M46 18h2M47 19h2M47 20h2M48 21h2M49 22h1M49 23h1M49 24h2M50 25h1M50 26h1M50 27h2M51 28h1M54 37h1M31 38h1M30 39h1M28 40h3M26 41h4M55 41h1M26 42h3M54 42h2M53 43h4M52 44h5M53 45h5M55 46h4M57 47h2M28 54h1M27 55h3M27 56h4M27 57h6M27 58h13M26 59h14M26 60h14M26 61h13M25 62h14M31 63h7M25 64h5M34 64h4M24 65h9M36 65h1M24 66h11M23 67h12M22 68h12M21 69h11" />
<path stroke="#394a41" d="M45 11h1M46 12h1M46 13h1M47 14h1M47 15h1M41 16h1M47 16h2M41 17h1M48 17h1M40 18h1M48 18h2M40 19h1M40 20h1M49 20h2M39 21h1M39 22h1M50 22h2M38 23h1M38 24h1M37 25h1M51 25h2M37 26h1M36 27h1M35 28h1M52 28h2M34 30h1M51 30h1M54 30h1M33 31h1M32 32h1M50 32h1M55 32h1M31 33h1M50 33h1M55 33h1M30 34h1M50 34h1M55 34h1M32 35h1M50 35h1M55 35h1M31 36h1M51 36h1M55 36h1M30 37h1M52 37h1M55 37h1M29 38h1M27 39h2M26 40h1M54 40h3M25 41h1M56 41h1M25 42h1M57 42h1M57 43h1M26 44h1M27 46h1M26 47h1M28 47h1M58 48h2M57 49h2M29 50h1M56 50h2M27 51h1M29 51h1M50 51h1M55 51h1M27 52h1M51 52h1M54 52h1M27 53h1M51 53h1M53 53h1M26 55h1M51 55h1M53 55h1M26 56h1M51 56h2M26 57h1M51 57h1M50 58h2M25 59h1M50 59h2M25 60h1M50 60h1M49 61h2M24 62h1M49 62h2M24 63h1M48 63h1M23 64h2M48 64h1M23 65h1M34 65h1M47 65h1M49 65h1M22 66h1M35 66h2M47 66h1M21 67h1M37 67h1M48 67h1M20 68h1M36 68h1M38 68h1M46 68h1M19 69h2M35 69h1M39 69h1M45 69h1" />
<path stroke="#6a8b5a" d="M42 16h2M42 17h3M42 18h4M41 19h6M41 20h6M40 21h8M40 22h8M39 23h10M50 23h1M39 24h10M38 25h11M38 26h12M51 26h1M37 27h13M36 28h14M35 29h1M37 29h13M35 30h1M37 30h14M34 31h1M36 31h14M33 32h2M36 32h14M32 33h2M35 33h15M51 33h2M31 34h2M34 34h16M51 34h1M30 35h2M34 35h16M29 36h2M33 36h18M28 37h2M33 37h19M27 38h2M32 38h21M32 39h22M31 40h23M31 41h22M30 42h23M26 43h1M29 43h23M28 44h23M29 45h21M51 45h1M31 46h19M51 46h3M32 47h17M50 47h6M33 48h16M50 48h8M33 49h16M50 49h7M32 50h18M51 50h5M30 51h20M51 51h4M29 52h22M52 52h2M29 53h22M26 54h2M30 54h21M30 55h21M32 56h19M34 57h17M25 58h2M40 58h10M40 59h10M40 60h10M24 61h2M40 61h9M39 62h10M30 63h1M39 63h9M30 64h1M38 64h10M37 65h10M23 66h1M37 66h10M22 67h1M35 67h1M38 67h9M34 68h2M40 68h6M33 69h2M37 69h1M41 69h4" />
<path stroke="#000000" d="M49 19h1M50 21h1M51 23h1M51 24h1M52 26h1M52 27h1M53 29h1M53 33h2M53 34h2M29 35h1M53 35h1M28 36h1M27 37h1M26 38h1M54 38h2M26 39h1M55 39h1M25 43h1M25 44h1M58 44h1M26 45h1M58 45h1M26 46h1M59 46h1M27 47h1M59 47h1M27 48h2M27 49h2M27 50h1M56 51h1M55 52h1M54 53h1M52 54h2M52 55h1M49 63h1M49 64h1M48 65h1M48 66h1M47 67h1M47 68h1M46 69h2" />
<path stroke="#6aa44a" d="M48 22h1M49 25h1M50 28h1M50 29h2M52 30h2M52 31h2M51 32h4M33 35h1M32 36h1M31 37h2M30 38h1M29 39h1M31 39h1M30 41h1M29 42h1M27 43h2M52 45h1M54 46h1M56 47h1M28 50h1M28 51h1M28 52h1M28 53h1M29 54h1M31 56h1M33 57h1M39 61h1M38 63h1M32 69h1" />
<path stroke="#ffffff" d="M52 34h1M52 35h1M54 35h1M52 36h3M53 37h1" />
</svg>