<svg xmlns="http://www.w3.org/2000/svg" viewBox="0 -0.5 80 80" shape-rendering="crispEdges">
<metadata>Made with Pixels to Svg https://codepen.io/shshaw/pen/XbxvNj</metadata>
<path stroke="#9c6a39" d="M40 12h2M39 13h1M42 13h1M38 14h1M41 14h2M37 15h1M41 15h3M36 16h1M40 16h4M36 17h1M40 17h4M35 18h1M39 18h5M34 19h1M39 19h5M34 20h1M38 20h7M33 21h1M38 21h7M32 22h1M38 22h7M32 23h1M37 23h8M31 24h1M37 24h8M30 25h1M37 25h8M30 26h1M36 26h10M37 27h9M37 28h9M35 29h11M8 30h5M36 30h10M7 31h1M13 31h7M36 31h11M7 32h2M20 32h2M34 32h13M7 33h3M35 33h12M8 34h2M35 34h12M8 35h3M12 35h1M33 35h14M9 36h3M34 36h13M9 37h5M34 37h14M10 38h5M32 38h2M35 38h13M10 39h7M34 39h1M36 39h1M38 39h10M11 40h7M35 40h1M37 40h1M39 40h1M41 40h7M11 41h8M20 41h1M31 41h1M36 41h1M38 41h1M40 41h1M42 41h4M48 41h1M12 42h8M21 42h1M39 42h1M41 42h1M43 42h1M46 42h3M12 43h10M44 43h6M13 44h10M30 44h1M42 44h8M13 45h11M25 45h1M40 45h11M14 46h12M38 46h13M14 47h13M36 47h15M15 48h13M34 48h18M15 49h14M32 49h20M16 50h13M44 50h8M16 51h11M32 51h12M58 51h1M17 52h8M33 52h26M70 52h1M17 53h6M32 53h1M34 53h35M18 54h3M33 54h1M35 54h32M18 55h2M28 55h1M33 55h2M36 55h29M18 56h1M27 56h1M29 56h1M34 56h2M37 56h26M18 57h1M26 57h1M28 57h1M34 57h3M38 57h23M19 58h1M25 58h3M29 58h1M35 58h3M39 58h20M19 59h1M24 59h6M35 59h4M40 59h17M20 60h1M24 60h6M36 60h4M41 60h14M20 61h1M23 61h7M36 61h5M42 61h11M22 62h9M37 62h5M44 62h7M22 63h9M37 63h6M46 63h5M23 64h8M38 64h7M24 65h7M38 65h9M25 66h6M39 66h11M18 67h2M26 67h6M39 67h11M18 68h3M27 68h5M40 68h10M17 69h5M28 69h4M40 69h11M16 70h7M29 70h3M41 70h10M14 71h10M30 71h2M41 71h10" />
<path stroke="#623131" d="M42 12h1M43 13h1M43 14h1M44 19h1M45 20h1M45 25h2M46 30h2M6 32h1M6 33h1M7 34h1M7 35h1M8 36h1M47 36h2M8 37h1M9 38h1M9 39h1M25 39h1M10 40h1M48 40h1M10 41h1M26 41h1M49 41h2M44 42h1M52 42h1M27 43h1M42 43h2M54 43h2M40 44h2M28 45h1M38 45h2M26 46h1M37 46h1M27 47h1M29 47h1M35 47h1M28 48h2M33 48h1M30 49h2M30 50h1M37 50h4M29 51h1M31 51h1M28 52h1M32 52h1M72 52h1M28 53h1M33 53h1M71 53h2M27 54h1M34 54h1M70 54h2M32 55h1M35 55h1M68 55h1M36 56h1M66 56h1M33 57h1M37 57h1M30 58h1M38 58h1M30 59h1M34 59h1M39 59h1M30 60h1M40 60h1M30 61h1M35 61h1M41 61h1M15 62h1M21 62h1M42 62h1M15 63h1M21 63h1M31 63h1M36 63h1M44 63h2M14 64h1M22 64h1M37 64h1M46 64h1M23 65h1M37 65h1M13 66h1M18 66h1M24 66h1M38 66h1M17 67h1M25 67h1M32 67h1M38 67h1M53 67h1M12 68h1M17 68h1M26 68h1M39 68h1M39 69h1M11 70h1M40 70h1M40 71h1" />
<path stroke="#deb462" d="M40 13h2M39 14h2M38 15h3M38 16h2M37 17h3M36 18h3M36 19h3M35 20h3M34 21h4M34 22h4M33 23h4M32 24h5M32 25h5M31 26h5M30 27h6M30 28h6M29 29h6M28 30h7M8 31h5M27 31h8M11 32h9M26 32h8M14 33h11M26 33h8M17 34h7M25 34h9M21 35h3M25 35h8M23 36h1M25 36h8M25 37h8M26 38h6M26 39h6M27 40h5M27 41h4M28 42h3M49 42h2M28 43h3M50 43h3M29 44h1M50 44h6M29 45h1M52 45h6M55 46h6M58 47h6M61 48h5M65 49h4M68 50h3" />
<path stroke="#000000" d="M44 15h1M44 16h1M44 17h1M44 18h1M45 21h1M45 22h1M45 23h1M45 24h1M46 26h1M46 27h1M46 28h1M46 29h1M47 31h1M47 32h1M47 33h1M47 34h1M47 35h1M48 37h1M48 38h1M48 39h1M11 42h1M11 43h1M12 44h1M12 45h1M13 46h1M36 46h1M13 47h1M34 47h1M14 48h1M32 48h1M14 49h1M14 50h2M31 50h6M15 51h1M15 52h2M16 53h1M16 54h2M17 55h1M69 55h1M16 56h1M67 56h1M16 57h1M64 57h2M63 58h1M61 59h2M59 60h2M57 61h2M54 62h3M51 63h4M31 64h1M47 64h4M53 64h1M14 65h1M31 65h1M53 65h1M19 66h1M31 66h1M53 66h1M13 67h1M20 67h1M54 67h1M21 68h1M32 68h1M54 68h1M12 69h1M22 69h1M27 69h1M32 69h1M54 69h1M23 70h1M28 70h1M33 70h1M54 70h1M11 71h1M24 71h1M29 71h1M33 71h1M54 71h1" />
<path stroke="#d59c52" d="M37 16h1M35 19h1M33 22h1M31 25h1M29 28h1M9 32h2M10 33h4M11 34h6M13 35h8M14 36h9M15 37h9M16 38h9M18 39h7M19 40h7M21 41h5M22 42h5M23 43h4M24 44h4M26 45h2M51 45h1M27 46h2M51 46h4M28 47h1M51 47h7M52 48h9M52 49h13M29 50h1M52 50h16M27 51h2M59 51h13M25 52h3M71 52h1M23 53h4M69 53h2M21 54h6M67 54h3M20 55h6M65 55h3M19 56h6M63 56h3M19 57h6M61 57h3M20 58h4M59 58h3M20 59h3M57 59h3M21 60h2M55 60h3M21 61h1M53 61h3M16 62h1M51 62h2M16 63h1M15 64h3M15 65h3M14 66h4M20 66h1M14 67h3M13 68h3M13 69h3M12 70h3M12 71h2" />
<path stroke="#7b5239" d="M29 27h1M36 27h1M28 28h1M36 28h1M28 29h1M7 30h1M27 30h1M35 30h1M6 31h1M26 31h1M35 31h1M22 32h4M25 33h1M34 33h1M10 34h1M24 34h1M34 34h1M11 35h1M24 35h1M12 36h2M24 36h1M33 36h1M14 37h1M24 37h1M33 37h1M15 38h1M25 38h1M34 38h1M17 39h1M32 39h2M35 39h1M37 39h1M18 40h1M26 40h1M32 40h3M36 40h1M38 40h1M40 40h1M19 41h1M32 41h4M37 41h1M39 41h1M41 41h1M46 41h2M20 42h1M27 42h1M31 42h8M40 42h1M42 42h1M45 42h1M51 42h1M22 43h1M31 43h11M53 43h1M23 44h1M28 44h1M31 44h9M56 44h2M24 45h1M30 45h8M58 45h3M29 46h7M61 46h3M30 47h4M64 47h2M30 48h2M66 48h3M29 49h1M69 49h2M41 50h3M71 50h1M30 51h1M44 51h14M72 51h1M29 52h3M59 52h11M27 53h1M29 53h3M28 54h5M26 55h2M29 55h3M25 56h2M28 56h1M30 56h4M25 57h1M27 57h1M29 57h4M24 58h1M28 58h1M31 58h4M62 58h1M23 59h1M31 59h3M60 59h1M23 60h1M31 60h5M58 60h1M22 61h1M31 61h4M56 61h1M31 62h6M43 62h1M53 62h1M32 63h4M43 63h1M32 64h5M45 64h1M51 64h2M32 65h5M47 65h6M32 66h6M50 66h3M33 67h5M50 67h3M16 68h1M33 68h6M50 68h4M16 69h1M33 69h6M51 69h3M15 70h1M32 70h1M34 70h6M51 70h3M32 71h1M34 71h6M51 71h3" />
<path stroke="#fff6a4" d="M17 56h1M17 57h1M17 58h2M18 59h1M18 60h2M19 61h1M19 62h2M20 63h1" />
<path stroke="#5a4131" d="M15 58h1M15 59h1M16 60h1M16 61h1M17 62h1M17 63h1M18 64h1M18 65h1" />
<path stroke="#eede31" d="M16 58h1M16 59h2M17 60h1M17 61h2M18 62h1M18 63h2M20 64h2M21 65h2M22 66h2" />
<path stroke="#cd9429" d="M19 64h1M19 65h2M21 66h1M21 67h2M24 67h1M22 68h1M25 68h1M26 69h1M27 70h1M28 71h1" />
<path stroke="#836a41" d="M23 67h1M23 68h2M23 69h3M24 70h3M25 71h3" />
</svg>