<svg xmlns="http://www.w3.org/2000/svg" viewBox="0 -0.5 80 80" shape-rendering="crispEdges">
<metadata>Made with Pixels to Svg https://codepen.io/shshaw/pen/XbxvNj</metadata>
<path stroke="#4a3929" d="M43 14h2M43 15h1M45 15h4M50 16h1M43 17h3M52 17h1M46 18h1M54 18h1M48 19h1M56 19h1M59 20h1M50 22h1M64 23h1M51 24h1M65 24h1M52 25h1M65 25h1M66 26h1M53 27h1M54 28h1M66 28h1M55 30h1M68 30h1M68 43h1M68 46h1M67 47h1M57 49h1M56 50h1M66 52h1M65 54h1" />
<path stroke="#8b6a52" d="M44 15h1M43 16h5M46 17h5M47 18h6M46 19h2M49 19h6M50 20h7M51 21h9M51 22h11M52 23h2M55 23h2M58 23h6M52 24h3M56 24h2M59 24h1M61 24h1M63 24h2M53 25h3M57 25h1M63 25h2M54 26h2M64 26h2M54 27h3M60 27h2M64 27h2M56 28h1M58 28h1M61 28h2M65 28h1M56 29h4M61 29h3M65 29h2M57 30h3M61 30h6M57 31h10M58 32h9M58 33h9M58 34h2M61 34h6M58 35h2M61 35h4M66 35h1M58 36h1M62 36h1M64 36h1M62 37h1" />
<path stroke="#8b6220" d="M36 16h6M33 17h2M31 18h1M29 19h1M28 20h1M27 21h1M24 24h1M23 25h1M21 26h1M18 27h1M18 28h1M53 28h1M68 28h1M69 29h1M16 30h1M54 31h1M55 34h1M12 38h1M56 39h1M11 41h1M56 49h1M55 52h1M55 57h1M63 57h1M56 61h1" />
<path stroke="#523910" d="M42 16h1M45 19h1M45 20h4M26 22h1M25 23h1M22 25h1M20 26h1M19 27h1M67 27h1M17 28h1M16 29h1M15 30h1M15 31h1M14 32h1M14 33h1M13 34h1M13 35h1M12 36h1M12 37h1M11 38h1M10 41h1M72 41h1M9 43h2M8 45h2M72 45h1M7 46h2M71 46h1M6 47h2M6 48h1M69 48h2M5 49h1M52 49h1M3 50h1M53 51h1M68 51h1M2 52h1M68 52h1M54 53h1M67 56h1M66 57h1M1 58h1M44 58h1M44 59h1M45 61h1" />
<path stroke="#624a31" d="M48 16h2M51 17h1M53 18h1M55 19h1M57 19h1M49 20h1M57 20h2M60 20h1M50 21h1M60 21h3M62 22h2M51 23h1M53 26h1M55 28h1M55 29h1M56 30h1M56 31h1M67 31h1M56 32h2M67 32h1M56 33h2M67 33h2M57 34h1M60 34h1M67 34h2M57 35h1M60 35h1M65 35h1M67 35h2M57 36h1M59 36h3M63 36h1M65 36h4M57 37h5M63 37h6M57 38h12M58 39h11M58 40h11M58 41h11M58 42h11M58 43h10M58 44h10M58 45h10M58 46h10M58 47h9M58 48h9M58 49h9M57 50h9M57 51h9M57 52h9M56 53h9M56 54h9M56 55h8M56 56h7M57 57h5M57 58h5M57 59h4M57 60h4M58 61h2M58 62h2M58 63h2" />
<path stroke="#b48331" d="M35 17h1M32 18h1M30 19h1M41 26h7M20 27h1M39 27h11M19 28h1M38 28h13M17 29h3M37 29h15M17 30h3M34 30h19M16 31h5M31 31h23M15 32h8M28 32h27M15 33h40M14 34h41M14 35h42M13 36h43M13 37h43M13 38h43M12 39h44M12 40h45M12 41h45M11 42h46M70 42h2M11 43h46M69 43h3M10 44h47M69 44h3M11 45h46M69 45h3M11 46h46M69 46h2M8 47h1M11 47h46M68 47h2M11 48h46M68 48h1M11 49h41M53 49h3M68 49h1M5 50h1M12 50h41M54 50h2M67 50h2M4 51h2M12 51h41M55 51h1M67 51h1M4 52h1M12 52h42M67 52h1M3 53h2M11 53h43M66 53h2M3 54h2M8 54h1M10 54h1M12 54h43M66 54h2M2 55h3M7 55h1M9 55h1M11 55h44M65 55h3M2 56h5M8 56h1M10 56h45M64 56h3M2 57h53M64 57h2M2 58h42M45 58h11M1 59h43M45 59h11M1 60h43M45 60h11M1 61h44M46 61h10M1 62h44M46 62h11M1 63h44M47 63h10" />
<path stroke="#e6c57b" d="M36 17h3M33 18h4M31 19h6M29 20h7M28 21h8M37 21h2M27 22h1M30 22h2M33 22h5M29 23h1M33 23h4M32 24h2M36 24h1M36 25h2M35 26h1" />
<path stroke="#dea44a" d="M39 17h4M37 18h9M37 19h8M36 20h9M36 21h1M39 21h11M28 22h2M32 22h1M38 22h12M26 23h3M30 23h3M37 23h14M25 24h7M34 24h2M37 24h14M24 25h12M38 25h14M22 26h13M36 26h5M48 26h5M21 27h18M50 27h3M20 28h18M51 28h2M20 29h17M52 29h2M68 29h1M20 30h14M53 30h1M21 31h10M23 32h5M10 45h1M9 46h2M9 47h2M7 48h4M6 49h5M6 50h6M6 51h6M5 52h7M5 53h6M5 54h3M9 54h1M11 54h1M5 55h2M8 55h1M10 55h1M7 56h1M9 56h1" />
<path stroke="#ac8b73" d="M54 23h1M57 23h1M55 24h1M58 24h1M60 24h1M62 24h1M56 25h1M58 25h5M56 26h8M57 27h3M62 27h2M57 28h1M59 28h2M63 28h2M60 29h1M64 29h1M60 30h1" />
<path stroke="#39394a" d="M76 25h2M78 26h1M78 27h1M79 28h1M69 30h1M74 30h1M71 31h2M79 34h1M78 35h1M76 38h1M70 39h2M74 39h1" />
<path stroke="#6a6a83" d="M76 26h2M75 27h1M77 27h1M75 28h1M77 28h2M75 29h1M77 29h2M70 30h2M77 30h2M73 31h1M76 31h3M69 32h2M76 32h3M70 33h2M75 33h4M70 34h9M70 35h8M70 36h8M70 37h7M70 38h5M72 40h1" />
<path stroke="#000000" d="M66 27h1M67 28h1M54 29h1M67 29h1M79 29h1M54 30h1M67 30h1M79 30h1M55 31h1M68 31h1M79 31h1M55 32h1M68 32h1M79 32h1M55 33h1M69 33h1M79 33h1M56 34h1M69 34h1M56 35h1M69 35h1M56 36h1M69 36h1M78 36h1M56 37h1M69 37h1M77 37h1M56 38h1M69 38h1M75 38h1M11 39h1M57 39h1M69 39h1M72 39h2M11 40h1M57 40h1M69 40h1M73 40h1M57 41h1M69 41h3M10 42h1M57 42h1M69 42h1M72 42h1M57 43h1M72 43h1M9 44h1M57 44h1M68 44h1M72 44h1M57 45h1M68 45h1M57 46h1M57 47h1M70 47h1M5 48h1M57 48h1M67 48h1M4 49h1M67 49h1M69 49h1M4 50h1M53 50h1M66 50h1M69 50h1M3 51h1M54 51h1M56 51h1M66 51h1M69 51h1M3 52h1M54 52h1M56 52h1M2 53h1M55 53h1M65 53h1M68 53h1M2 54h1M55 54h1M68 54h1M1 55h1M55 55h1M64 55h1M68 55h1M1 56h1M55 56h1M63 56h1M68 56h1M1 57h1M56 57h1M62 57h1M67 57h1M56 58h1M62 58h4M0 59h1M56 59h1M61 59h2M0 60h1M44 60h1M56 60h1M61 60h1M0 61h1M57 61h1M60 61h1M0 62h1M45 62h1M57 62h1M60 62h1M0 63h1M45 63h2M57 63h1M60 63h1" />
<path stroke="#9c9cac" d="M76 27h1M76 28h1M76 29h1M75 30h2M70 31h1M74 31h2M71 32h5M72 33h3M70 40h2" />
<path stroke="#cdcdde" d="M69 31h1" />
</svg>