<svg xmlns="http://www.w3.org/2000/svg" viewBox="0 -0.5 80 80" shape-rendering="crispEdges">
<metadata>Made with Pixels to Svg https://codepen.io/shshaw/pen/XbxvNj</metadata>
<path stroke="#5a525a" d="M31 5h2M30 6h1M33 6h1M33 7h1M44 7h2M33 8h1M43 8h1M46 8h1M33 9h1M42 9h1M46 9h1M29 10h1M33 10h1M46 10h1M30 11h1M41 11h1M46 11h1M30 12h1M34 12h1M40 12h1M42 12h1M46 12h1M27 13h1M34 13h1M40 13h1M42 13h1M46 13h1M28 14h1M31 14h1M34 14h1M39 14h1M43 14h1M25 15h1M28 15h1M31 15h1M34 15h1M43 15h1M47 15h1M24 16h1M26 16h1M34 16h1M47 16h1M26 17h1M29 17h1M38 17h1M40 17h1M44 17h1M47 17h1M29 18h1M35 18h1M37 18h1M44 18h1M47 18h1M27 19h1M35 19h1M40 19h1M25 20h1M27 20h1M35 20h1M41 20h1M48 20h1M35 21h1M37 21h1M41 21h1M48 21h1M35 22h1M38 22h1M42 22h1M48 22h1M26 23h1M36 23h1M36 24h1M49 24h1M27 25h1M39 25h1M49 25h1M40 26h1M49 26h1M41 27h1M49 27h1M28 28h1M50 28h1M46 29h1M50 29h1M45 30h1M51 30h1M48 31h1M56 31h4M44 32h1M48 32h1M61 32h1M44 33h1M48 33h1M44 34h1M47 35h1M36 61h1M36 62h1M36 63h1M36 64h1M36 65h1M36 66h1M36 67h1M37 68h1M37 69h1M37 70h1M37 71h1M38 72h1" />
<path stroke="#ded5de" d="M31 6h2M30 7h3M30 8h3M30 9h3M43 9h1M28 10h1M30 10h3M43 10h1M28 11h2M31 11h2M43 11h1M28 12h2M31 12h3M41 12h1M43 12h1M26 13h1M28 13h2M31 13h3M41 13h1M43 13h1M26 14h2M29 14h2M32 14h2M40 14h3M26 15h2M29 15h2M32 15h2M40 15h3M25 16h1M27 16h1M29 16h5M40 16h3M25 17h1M27 17h2M30 17h4M39 17h1M41 17h1M43 17h1M25 18h1M27 18h2M30 18h5M38 18h2M41 18h1M43 18h1M25 19h2M28 19h7M38 19h2M41 19h1M26 20h1M28 20h7M38 20h3M42 20h1M26 21h9M38 21h3M42 21h1M26 22h9M39 22h3M43 22h1M27 23h8M39 23h5M27 24h9M40 24h5M28 25h8M40 25h5M28 26h7M39 26h1M41 26h4M29 27h5M39 27h2M42 27h4M30 28h3M40 28h6M31 29h1M40 29h6M41 30h4M41 31h3M42 32h2M45 32h1M43 33h1M45 33h1M50 33h1M58 33h2M45 34h2M49 34h2M57 34h2M45 35h2M48 35h2M57 35h1M45 36h5M46 37h3M36 55h1M36 56h1M35 57h1M35 58h1M35 59h1M34 60h2M34 61h2M34 62h2M34 63h2M34 64h2M34 65h2M34 66h2M34 67h2M34 68h2M34 69h3M35 70h2M35 71h2M35 72h2M36 73h2M36 74h2" />
<path stroke="#000000" d="M29 7h1M29 8h1M28 9h2M27 10h1M42 10h1M27 11h1M42 11h1M26 12h2M25 13h1M25 14h1M39 15h1M38 16h2M24 17h1M24 18h1M40 18h1M24 19h1M37 19h1M37 20h1M25 21h1M25 22h1M38 23h1M26 24h1M38 24h2M37 25h2M27 26h1M35 26h1M38 26h1M28 27h1M34 27h1M38 27h1M29 28h1M33 28h1M39 28h1M29 29h2M32 29h1M39 29h1M30 30h2M40 30h1M31 31h1M40 31h1M51 31h1M30 32h1M41 32h1M51 32h1M30 33h1M42 33h1M51 33h1M60 33h1M29 34h1M43 34h1M51 34h1M59 34h1M29 35h1M44 35h1M50 35h1M58 35h1M29 36h1M44 36h1M50 36h1M57 36h1M28 37h1M45 37h1M49 37h1M52 37h2M28 38h1M46 38h3M51 38h2M28 39h1M51 39h2M28 40h1M51 40h2M53 41h1M27 43h1M27 44h1M26 47h1M41 49h1M40 50h3M39 51h1M44 51h2M24 52h1M38 52h2M47 52h5M38 53h1M23 54h1M37 54h1M37 55h1M22 56h1M37 56h1M36 57h1M21 58h1M36 58h2M21 59h1M36 59h2M21 60h1M36 60h1M20 62h1M20 63h1M20 64h1M20 65h1M19 67h1M19 68h1M19 69h1M19 70h1M19 71h1M19 72h1M19 73h1M38 73h1M19 74h1M38 74h1" />
<path stroke="#ffffff" d="M44 8h2M44 9h2M44 10h2M44 11h2M44 12h2M44 13h2M44 14h2M44 15h3M44 16h3M42 17h1M45 17h2M42 18h1M45 18h2M42 19h2M45 19h2M43 20h5M43 21h5M44 22h4M44 23h4M45 24h4M45 25h4M45 26h4M46 27h3M46 28h4M48 29h2M46 30h2M49 30h2M46 31h2M49 31h2M46 32h2M49 32h2M56 32h5M46 33h2M49 33h1M56 33h2M47 34h1M53 38h1M53 39h1M40 53h1M39 54h3M39 55h3M40 56h1" />
<path stroke="#a49ca4" d="M33 11h1M30 13h1M46 14h1M28 16h1M43 16h1M34 17h1M26 18h1M44 19h1M47 19h1M35 23h1M48 23h1M47 29h1M48 30h1M44 31h2M60 31h2M48 34h1M53 40h1M36 68h1M37 72h1" />
<path stroke="#183173" d="M36 25h1M50 25h1M51 26h1M52 27h1M53 28h1M32 30h1M31 32h1M30 34h1M56 36h1M29 37h1M56 37h1M56 38h1M56 39h1M56 40h1M28 41h1M51 41h1M55 41h1M27 42h1M51 42h1M55 42h1M52 43h1M27 45h1M55 45h1M26 46h1M55 46h1M26 48h1M42 48h2M56 48h1M25 49h1M42 49h1M56 49h1M25 50h1M43 50h1M55 50h1M24 51h1M43 51h1M46 51h1M52 51h3M46 52h1M52 52h1M23 53h1M22 55h1M22 57h1M21 61h1M20 66h1" />
<path stroke="#4a6ac5" d="M36 26h1M50 26h1M50 27h1M33 29h1M54 29h1M54 30h1M32 31h2M37 31h3M55 31h1M32 32h9M55 32h1M31 33h11M52 33h1M55 33h1M31 34h12M52 34h1M56 34h1M30 35h14M51 35h3M56 35h1M30 36h14M51 36h3M30 37h15M50 37h2M54 37h1M29 38h17M49 38h2M54 38h1M29 39h22M54 39h2M29 40h22M54 40h2M29 41h22M28 42h23M28 43h24M55 43h1M28 44h26M55 44h1M28 45h25M27 46h26M27 47h26M56 47h1M27 48h15M44 48h10M26 49h15M43 49h13M26 50h14M44 50h11M25 51h14M47 51h5M25 52h13M24 53h14M24 54h12M23 55h12M23 56h12M23 57h11M22 58h12M22 59h12M22 60h12M22 61h12M21 62h13M21 63h13M21 64h13M21 65h13M21 66h13M20 67h14M20 68h14M20 69h14M20 70h14M20 71h14M20 72h15M20 73h15M20 74h15" />
<path stroke="#73a4ff" d="M37 26h1M35 27h3M51 27h1M34 28h5M51 28h2M34 29h5M51 29h3M33 30h7M52 30h2M34 31h3M52 31h3M52 32h3M53 33h2M53 34h3M54 35h2M54 36h2M55 37h1M55 38h1M54 41h1M54 42h1M54 43h1M54 44h1M53 45h2M53 46h2M53 47h3M54 48h2" />
<path stroke="#830839" d="M52 41h1M53 42h1" />
<path stroke="#b4084a" d="M52 42h1M53 43h1" />
<path stroke="#415aff" d="M40 52h1M39 53h1M41 53h1M38 54h1M42 54h1M38 55h1M39 56h1M41 56h1M37 57h1M40 57h3M38 58h3M40 59h1" />
<path stroke="#5a8bee" d="M36 54h1M35 55h1M35 56h1M34 57h1M34 58h1M34 59h1M34 70h1M34 71h1M35 73h1M35 74h1" />
<path stroke="#18297b" d="M42 55h1M42 56h1M41 58h1M38 59h2" />
<path stroke="#7bcdff" d="M38 56h1M38 57h2" />
</svg>