<svg xmlns="http://www.w3.org/2000/svg" viewBox="0 -0.5 80 80" shape-rendering="crispEdges">
<metadata>Made with Pixels to Svg https://codepen.io/shshaw/pen/XbxvNj</metadata>
<path stroke="#101010" d="M36 10h3M49 10h2M36 11h2M39 11h2M49 11h1M51 11h1M37 12h2M41 12h1M49 12h2M52 12h1M38 13h3M42 13h1M49 13h3M53 13h1M39 14h3M43 14h1M50 14h2M54 14h1M40 15h3M44 15h1M50 15h3M54 15h1M40 16h6M50 16h3M55 16h1M41 17h6M51 17h3M55 17h1M41 18h6M51 18h3M56 18h1M41 19h6M51 19h4M56 19h1M41 20h6M52 20h6M40 21h6M52 21h6M51 22h7M37 23h2M51 23h7M36 24h1M50 24h7M34 25h1M50 25h7M33 26h1M51 26h5M32 27h4M53 27h2M38 28h2M42 29h1M44 30h1M61 31h1M38 32h4M61 32h1M36 33h8M35 34h10M35 35h11M13 36h1M34 36h13M12 37h1M18 37h5M34 37h13M11 38h1M17 38h8M34 38h13M15 39h11M34 39h14M53 39h1M60 39h1M14 40h12M34 40h14M54 40h1M60 40h1M9 41h1M14 41h13M35 41h13M59 41h1M13 42h14M35 42h12M55 42h1M58 42h2M63 42h1M72 42h1M8 43h1M13 43h14M35 43h12M55 43h1M57 43h2M63 43h1M8 44h1M12 44h15M36 44h11M56 44h2M73 44h1M7 45h1M12 45h15M37 45h8M56 45h1M62 45h1M73 45h1M7 46h1M12 46h14M39 46h4M56 46h1M62 46h1M73 46h1M7 47h1M12 47h14M56 47h1M60 47h5M73 47h1M7 48h1M12 48h13M56 48h3M65 48h1M73 48h1M6 49h1M13 49h12M56 49h1M65 49h1M72 49h1M6 50h1M13 50h11M56 50h1M62 50h2M71 50h1M6 51h1M13 51h10M56 51h5M66 51h5M6 52h1M14 52h8M56 52h1M6 53h1M15 53h5M56 53h1M56 54h1M7 55h2M55 55h1M6 56h3M31 56h4M55 56h1M6 57h4M15 57h1M29 57h8M55 57h1M6 58h4M15 58h1M28 58h10M54 58h2M6 59h5M15 59h1M27 59h12M54 59h1M56 59h2M6 60h5M15 60h1M27 60h12M53 60h1M59 60h2M71 60h1M7 61h4M15 61h1M26 61h13M53 61h2M71 61h1M7 62h5M15 62h1M26 62h14M53 62h1M55 62h3M71 62h1M8 63h4M26 63h14M52 63h1M58 63h3M71 63h1M8 64h4M25 64h15M51 64h2M60 64h2M70 64h1M8 65h4M25 65h15M50 65h2M62 65h1M68 65h2M9 66h2M16 66h1M25 66h15M49 66h1M52 66h1M63 66h6M9 67h2M25 67h14M48 67h1M52 67h1M10 68h1M25 68h14M47 68h2M53 68h1M11 69h1M17 69h1M26 69h11M45 69h3M49 69h1M54 69h1" />
<path stroke="#5a5252" d="M38 11h1M50 11h1M39 12h2M51 12h1M41 13h1M52 13h1M42 14h1M52 14h2M43 15h1M53 15h1M53 16h2M54 17h1M54 18h2M55 19h1M57 26h2M59 27h1M60 28h1M60 29h1M61 30h1M61 33h1M60 34h1M66 40h4M64 41h2M70 41h2M72 43h1M62 44h1M72 48h1M64 50h1M70 50h1M65 51h1M64 56h4M63 57h1M69 57h1M61 58h1M70 58h1M61 59h1M70 59h1M70 63h1M63 65h1" />
<path stroke="#6a2918" d="M40 22h7M39 23h1M49 23h2M35 24h1M35 25h1M28 27h4M36 27h2M55 27h1M25 28h2M31 28h1M37 28h1M40 28h1M56 28h1M22 29h2M28 29h1M41 29h1M20 30h1M26 30h1M43 30h1M57 30h1M19 31h1M25 31h1M45 31h2M58 31h1M17 32h1M24 32h1M46 32h2M58 32h1M16 33h1M23 33h1M48 33h1M59 33h1M15 34h1M22 34h2M49 34h1M14 35h1M22 35h1M50 35h1M61 35h1M21 36h1M51 36h1M61 36h1M52 37h1M61 37h1M16 38h1M47 38h1M53 38h1M59 38h3M10 39h1M56 39h1M9 40h2M55 40h1M13 41h1M34 41h1M54 41h1M8 42h1M47 42h1M12 43h1M7 44h1M55 44h1M8 45h1M45 45h1M26 46h1M43 46h2M6 48h1M25 48h1M7 49h1M12 49h1M6 54h2M15 54h2M55 54h1M6 55h1M15 55h1M9 56h1M15 56h1M30 56h1M54 57h1M10 58h1M26 60h1M11 61h1M39 61h1M52 62h1M15 63h1M25 63h1M15 64h1M16 65h1M11 66h1M11 67h1M16 67h1M39 67h1M17 68h1M46 68h1M37 69h1" />
<path stroke="#b44131" d="M47 22h2M40 23h2M48 23h1M37 24h9M36 25h13M34 26h17M38 27h15M27 28h1M30 28h1M36 28h1M41 28h15M24 29h1M29 29h1M35 29h6M43 29h15M21 30h1M27 30h1M32 30h11M45 30h12M29 31h16M47 31h11M18 32h3M26 32h12M42 32h4M48 32h10M17 33h6M24 33h12M44 33h4M49 33h9M16 34h6M24 34h11M45 34h4M50 34h8M15 35h7M23 35h12M46 35h4M51 35h8M14 36h7M22 36h12M47 36h2M50 36h1M52 36h8M13 37h5M23 37h11M47 37h3M51 37h1M53 37h7M12 38h4M25 38h9M48 38h2M52 38h1M54 38h5M11 39h4M26 39h8M48 39h3M54 39h2M57 39h1M11 40h3M26 40h8M48 40h3M53 40h1M10 41h3M27 41h7M48 41h3M9 42h4M27 42h8M48 42h4M54 42h1M9 43h3M27 43h8M47 43h5M9 44h3M27 44h9M47 44h5M9 45h3M27 45h10M46 45h7M55 45h1M8 46h4M27 46h12M45 46h8M8 47h4M26 47h27M8 48h4M26 48h27M54 48h1M8 49h4M25 49h29M55 49h1M7 50h6M24 50h29M54 50h1M7 51h6M23 51h31M55 51h1M7 52h7M22 52h34M7 53h8M20 53h36M8 54h7M17 54h38M9 55h6M16 55h39M10 56h5M16 56h14M35 56h20M10 57h5M16 57h13M37 57h17M11 58h4M16 58h12M38 58h16M11 59h4M16 59h11M39 59h15M11 60h4M16 60h10M39 60h14M12 61h3M16 61h10M40 61h13M12 62h3M16 62h10M40 62h12M12 63h3M16 63h9M40 63h12M12 64h3M16 64h9M40 64h11M12 65h4M17 65h8M40 65h10M12 66h4M17 66h8M40 66h9M12 67h4M17 67h8M40 67h8M11 68h6M18 68h7M39 68h7M12 69h5M18 69h8M38 69h7" />
<path stroke="#f65a18" d="M42 23h6M46 24h4M49 25h1M28 28h2M32 28h4M25 29h3M30 29h5M22 30h4M28 30h4M20 31h5M26 31h3M21 32h3M25 32h1M58 33h1M58 34h2M59 35h2M49 36h1M60 36h1M50 37h1M60 37h1M50 38h2M51 39h2M51 40h2M51 41h3M52 42h2M52 43h3M52 44h3M53 45h2M53 46h3M53 47h3M53 48h1M55 48h1M54 49h1M53 50h1M55 50h1M54 51h1" />
<path stroke="#aca4a4" d="M56 26h1M58 27h1M60 30h1M60 31h1M59 32h2M60 33h1M64 42h1M71 42h1M71 43h1M63 44h1M71 44h2M63 45h2M70 45h3M63 46h10M65 47h8M66 48h6M66 49h6M65 50h5M62 57h1M68 57h1M62 58h1M69 58h1M69 59h1M61 60h1M69 60h2M61 61h2M68 61h3M62 62h9M62 63h8M62 64h8M64 65h4" />
<path stroke="#ffffff" d="M56 27h2M66 41h4M65 42h6M64 43h7M64 44h6M65 45h4M64 57h4M63 58h6M62 59h7M63 60h5M63 61h4" />
<path stroke="#d5cdcd" d="M57 28h3M58 29h2M58 30h2M59 31h1M70 44h1M69 45h1M62 60h1M68 60h1M67 61h1" />
<path stroke="#d5b47b" d="M58 39h2M56 40h4M55 41h4M56 42h2M56 43h1" />
<path stroke="#4a3173" d="M59 48h6M61 49h4M60 50h2M61 51h1M58 59h1M58 60h1M58 61h3M58 62h4M57 63h1M61 63h1M50 66h2M49 67h2M49 68h2M50 69h2" />
<path stroke="#6a62b4" d="M57 49h4M57 50h3M55 59h1M54 60h4M55 61h3M51 67h1M51 68h2M52 69h2" />
</svg>