<svg xmlns="http://www.w3.org/2000/svg" viewBox="0 -0.5 80 80" shape-rendering="crispEdges">
<metadata>Made with Pixels to Svg https://codepen.io/shshaw/pen/XbxvNj</metadata>
<path stroke="#c54a41" d="M36 18h5M34 19h2M33 20h2M32 21h1M38 23h1M32 24h1M42 24h1M29 25h1M26 27h1M22 31h1M62 41h3M61 42h1M65 42h1M66 43h1M18 55h1M62 56h1M19 59h1M61 59h1M32 60h1" />
<path stroke="#ffa494" d="M36 19h5M35 20h6M36 21h4M35 24h7M30 25h14M28 26h15M27 27h8M25 28h6M24 29h3M23 30h2M23 31h1M59 42h1M62 42h3M59 43h2M62 43h3M60 44h1M62 44h2" />
<path stroke="#622018" d="M41 19h1M42 20h1M42 21h1M31 22h1M42 22h1M30 23h1M39 23h4M29 24h3M43 24h4M28 25h1M26 26h2M25 27h1M24 28h1M23 29h1M22 30h1M21 31h1M60 42h1M61 43h1M66 44h1M65 46h1M62 48h1M64 48h1M17 49h1M63 49h1M27 54h5M25 55h1M27 55h1M32 55h2M17 56h2M24 56h2M34 56h1M35 57h1M62 57h2M23 58h2M35 58h1M23 59h1M32 59h1M36 59h1M18 60h2M31 60h1M36 60h1M62 60h1M31 61h1M36 61h1" />
<path stroke="#de7b6a" d="M41 20h1M33 21h3M40 21h2M32 22h10M31 23h7M33 24h2M44 25h1M43 26h1M35 27h8M31 28h12M27 29h15M25 30h17M24 31h18M22 32h20M22 33h20M22 34h20M21 35h22M21 36h22M21 37h23M21 38h23M20 39h25M20 40h26M19 41h28M19 42h29M19 43h31M58 43h1M65 43h1M19 44h33M56 44h4M61 44h1M64 44h2M18 45h48M18 46h47M18 47h47M18 48h44M63 48h1M18 49h45M18 50h45M18 51h45M18 52h45M18 53h45M18 54h9M32 54h31M19 55h6M28 55h4M34 55h29M19 56h5M26 56h8M35 56h27M19 57h5M25 57h10M36 57h26M19 58h4M25 58h10M36 58h26M20 59h3M24 59h8M33 59h3M37 59h24M20 60h3M24 60h7M33 60h3M37 60h24M20 61h3M24 61h7M32 61h4M37 61h24" />
<path stroke="#523100" d="M47 24h1M54 25h3M58 26h2M60 27h1M42 30h1M42 31h1M42 32h1M42 33h1M17 34h1M42 34h1M16 35h1M43 35h1M15 36h1M43 36h1M20 37h1M44 37h1M14 38h1M20 38h1M44 38h1M19 39h1M45 39h1M13 40h1M19 40h1M46 40h1M18 41h1M47 41h1M18 42h1M48 42h2M58 42h1M18 43h1M50 43h2M56 43h2M12 44h1M52 44h4M17 45h1M17 46h1M17 47h1M17 48h1" />
<path stroke="#6a4a31" d="M48 24h5M45 25h2M53 25h1M57 26h1M57 27h1M59 27h1M56 28h1M58 28h1M60 28h2M42 29h1M57 29h1M59 29h4M49 30h14M44 31h19M19 32h3M43 32h20M18 33h2M21 33h1M43 33h19M21 34h1M43 34h19M20 35h1M44 35h18M20 36h1M44 36h17M45 37h16M18 38h2M45 38h15M16 39h3M46 39h14M15 40h4M47 40h12M13 41h5M48 41h11M13 42h5M50 42h8M13 43h5M52 43h4M14 44h5M15 45h2M16 46h1" />
<path stroke="#a46a00" d="M47 25h6M44 26h13M43 27h14M58 27h1M43 28h13M57 28h1M59 28h1M43 29h14M58 29h1M43 30h6M43 31h1M20 33h1M18 34h3M17 35h3M16 36h4M15 37h5M15 38h3M14 39h2M14 40h1" />
<path stroke="#101010" d="M61 27h1M62 28h1M63 29h1M63 30h1M63 31h1M63 32h1M62 33h2M62 34h1M62 35h1M61 36h2M14 37h1M61 37h1M60 38h2M13 39h1M60 39h1M59 40h2M12 41h1M59 41h1M12 42h1M12 43h1M13 44h1M13 45h2M66 45h1M14 46h2M15 47h2M65 47h1M16 48h1M64 49h1M17 50h1M63 50h1M17 51h1M63 51h1M17 52h1M63 52h1M17 53h1M63 53h1M17 54h1M63 54h1M17 55h1M26 55h1M63 55h1M63 56h1M18 57h1M24 57h1M18 58h1M62 58h1M18 59h1M62 59h1M23 60h1M61 60h1M19 61h1M23 61h1M61 61h1" />
</svg>