<svg xmlns="http://www.w3.org/2000/svg" viewBox="0 -0.5 80 80" shape-rendering="crispEdges">
<metadata>Made with Pixels to Svg https://codepen.io/shshaw/pen/XbxvNj</metadata>
<path stroke="#b45273" d="M33 17h1M38 17h1M31 18h1M39 18h2M30 19h1M41 19h1M41 20h1M44 21h4M48 22h2M50 23h1M50 24h1M51 25h1M51 26h1M31 27h1M51 27h1M46 32h2M50 32h1M52 33h1M53 34h1M54 35h1M55 36h1M56 37h1M56 38h2M57 40h2M58 42h2M59 45h1" />
<path stroke="#9c1852" d="M34 17h4M32 18h1M30 20h1M29 21h1M42 21h1M26 22h1M42 22h2M26 23h1M41 23h1M41 24h1M24 25h1M29 25h2M40 25h1M23 26h1M30 26h1M40 28h1M51 28h1M41 29h1M51 29h1M23 30h2M50 30h1M49 31h2M48 32h1M51 32h1M27 33h1M20 37h2M19 39h2M57 39h1M58 41h1M19 42h1M59 43h1M59 44h1M60 45h1M18 46h1M60 46h1M61 48h1M60 49h1M62 49h1M60 50h1M63 50h1M63 51h1M64 52h1M60 53h1M16 54h1M18 54h1M59 56h2M19 57h1M58 58h2M20 60h1M57 60h1" />
<path stroke="#e6839c" d="M33 18h2M31 19h3M40 19h1M31 20h6M30 21h9M30 22h11M27 23h2M30 23h11M42 23h2M49 23h1M25 24h4M30 24h11M42 24h4M25 25h4M31 25h9M41 25h7M24 26h6M31 26h9M41 26h8M24 27h7M32 27h8M41 27h8M24 28h16M41 28h9M24 29h17M42 29h9M25 30h25M25 31h24M26 32h20M49 32h1M25 33h1M28 33h24M24 34h27M23 35h27M22 36h28M22 37h29M55 37h1M21 38h30M21 39h31M20 40h33M20 41h34M20 42h35M19 43h37M19 44h37M19 45h38M19 46h39M59 46h1M18 47h42M18 48h42M18 49h42M61 49h1M18 50h42M61 50h2M18 51h45M18 52h46M18 53h42M61 53h3M17 54h1M19 54h41M61 54h3M17 55h1M19 55h41M17 56h1M19 56h40M17 57h1M20 57h39M20 58h38M20 59h38M21 60h36M21 61h36M22 62h34M23 63h32" />
<path stroke="#ffacbd" d="M35 18h4M34 19h6M37 20h4M39 21h3M41 22h1M44 22h4M44 23h5M46 24h4M48 25h3M49 26h2M49 27h2M50 28h1M51 34h2M50 35h4M50 36h5M51 37h4M51 38h5M52 39h5M53 40h4M54 41h4M55 42h3M56 43h3M56 44h3M57 45h2M58 46h1" />
<path stroke="#101010" d="M27 22h3M25 23h1M29 23h1M24 24h1M29 24h1M40 26h1M23 27h1M40 27h1M23 28h1M23 29h1M24 31h1M25 32h1M24 33h1M26 33h1M23 34h1M22 35h1M21 36h1M20 38h1M19 40h1M19 41h1M18 42h1M18 43h1M18 44h1M18 45h1M17 46h1M17 47h1M60 47h1M17 48h1M60 48h1M17 49h1M17 50h1M17 51h1M17 52h1M17 53h1M64 53h1M60 54h1M64 54h1M16 55h1M18 55h1M60 55h4M16 56h1M18 56h1M16 57h1M18 57h1M59 57h1M17 58h3M19 59h1M58 59h1M19 60h1M58 60h1M20 61h1M57 61h1M20 62h2M56 62h2M21 63h2M55 63h2" />
</svg>