<svg xmlns="http://www.w3.org/2000/svg" viewBox="0 -0.5 80 80" shape-rendering="crispEdges">
<metadata>Made with Pixels to Svg https://codepen.io/shshaw/pen/XbxvNj</metadata>
<path stroke="#101010" d="M37 2h2M37 3h1M39 3h1M39 4h1M40 5h1M40 6h1M40 7h1M1 8h2M40 8h1M1 9h1M3 9h2M41 9h1M1 10h1M5 10h1M41 10h1M1 11h1M7 11h1M41 11h1M1 12h1M41 12h1M1 13h1M42 13h1M1 14h1M42 14h1M2 15h1M42 15h1M2 16h1M42 16h1M2 17h1M3 18h1M43 18h1M3 19h1M43 19h1M3 20h1M43 20h1M43 21h1M4 22h1M43 22h1M5 23h1M32 23h1M43 23h1M5 24h1M32 24h1M43 24h1M6 25h1M32 25h1M43 25h1M7 26h1M32 26h1M43 26h1M8 27h1M32 27h1M42 27h1M9 28h1M33 28h1M42 28h1M10 29h1M22 29h1M33 29h1M42 29h1M11 30h1M22 30h1M33 30h1M42 30h1M12 31h2M22 31h2M28 31h6M41 31h1M14 32h2M23 32h3M33 32h1M41 32h1M16 33h3M23 33h1M34 33h1M41 33h1M19 34h1M22 34h1M34 34h1M40 34h2M20 35h2M40 35h2M20 36h1M40 36h2M19 37h1M39 37h1M42 37h1M19 38h1M39 38h1M42 38h1M18 39h1M42 39h1M76 39h3M18 40h1M43 40h1M74 40h2M78 40h1M17 41h1M43 41h1M78 41h1M17 42h1M43 42h1M78 42h1M17 43h1M78 43h1M17 44h1M78 44h1M17 45h1M43 45h1M78 45h1M17 46h1M43 46h1M78 46h1M17 47h1M44 47h1M78 47h1M17 48h2M44 48h1M77 48h1M18 49h1M44 49h1M77 49h1M18 50h1M77 50h1M18 51h1M45 51h1M77 51h1M18 52h2M45 52h1M77 52h1M19 53h1M43 53h2M57 53h1M76 53h1M19 54h1M37 54h1M41 54h2M56 54h1M76 54h1M19 55h1M36 55h1M39 55h2M56 55h1M76 55h1M19 56h1M36 56h3M55 56h1M76 56h1M19 57h1M36 57h1M55 57h1M76 57h1M19 58h1M36 58h1M54 58h1M19 59h1M36 59h1M54 59h1M75 59h1M19 60h1M37 60h1M54 60h1M19 61h1M37 61h1M53 61h1M74 61h1M18 62h1M38 62h1M53 62h1M73 62h1M18 63h1M39 63h1M53 63h1M72 63h1M18 64h1M40 64h2M53 64h1M71 64h1M17 65h1M42 65h6M52 65h1M70 65h1M17 66h1M48 66h5M68 66h2M16 67h1M52 67h1M67 67h2M16 68h1M51 68h1M66 68h1M16 69h1M51 69h1M64 69h2M15 70h1M62 70h2M15 71h1M60 71h2M15 72h1M57 72h3M15 73h1M55 73h3M14 74h1M52 74h3M57 74h1M14 75h1M58 75h1M14 76h1M58 76h1" />
<path stroke="#29314a" d="M38 3h1M36 4h1M38 4h1M36 5h1M38 5h2M38 6h2M35 7h1M38 7h2M35 8h1M37 8h3M41 8h1M2 9h1M37 9h4M2 10h2M6 10h1M34 10h1M37 10h4M2 11h3M6 11h1M34 11h1M37 11h4M2 12h3M8 12h2M37 12h4M42 12h1M2 13h4M9 13h2M33 13h1M36 13h5M2 14h5M10 14h2M33 14h1M36 14h5M1 15h1M3 15h5M12 15h1M33 15h1M36 15h6M3 16h6M13 16h1M33 16h1M36 16h6M3 17h7M36 17h5M2 18h1M4 18h7M4 19h6M4 20h4M17 20h1M4 21h2M18 21h1M18 22h1M19 23h1M33 23h1M42 23h1M15 24h2M19 24h1M34 24h1M41 24h2M14 25h4M20 25h1M35 25h8M12 26h7M20 26h1M35 26h8M9 27h10M21 27h1M35 27h7M43 27h1M10 28h10M21 28h1M35 28h7M12 29h8M35 29h7M12 30h9M34 30h8M14 31h8M27 31h1M34 31h7M42 31h1M17 32h5M26 32h1M32 32h1M34 32h7M24 33h1M32 33h2M35 33h5M18 34h1M23 34h1M31 34h3M35 34h4M22 35h1M28 35h9M19 36h1M21 36h1M25 36h12M39 36h1M42 36h1M20 37h2M23 37h14M40 37h2M18 38h1M20 38h17M38 38h1M40 38h2M19 39h23M43 39h1M19 40h24M76 40h1M18 41h25M75 41h3M18 42h24M75 42h3M18 43h24M43 43h1M74 43h4M18 44h24M68 44h1M73 44h5M18 45h24M44 45h1M66 45h2M71 45h7M18 46h24M44 46h1M70 46h8M18 47h24M65 47h1M68 47h10M19 48h24M65 48h1M67 48h10M78 48h1M19 49h24M65 49h12M19 50h27M59 50h1M65 50h12M19 51h26M59 51h1M65 51h12M20 52h25M58 52h1M66 52h9M20 53h23M58 53h1M66 53h10M77 53h1M20 54h17M38 54h3M43 54h1M57 54h1M67 54h9M20 55h16M37 55h2M41 55h1M59 55h1M68 55h8M20 56h16M39 56h1M56 56h1M59 56h1M70 56h4M20 57h16M56 57h1M58 57h2M20 58h16M55 58h1M58 58h3M20 59h16M55 59h1M57 59h5M20 60h17M56 60h7M18 61h1M20 61h17M54 61h1M56 61h8M19 62h19M54 62h12M19 63h20M54 63h17M17 64h1M19 64h21M54 64h17M18 65h24M48 65h1M53 65h17M16 66h1M18 66h23M53 66h14M17 67h21M46 67h6M53 67h14M17 68h20M43 68h8M52 68h14M67 68h1M15 69h1M17 69h19M37 69h1M39 69h1M41 69h10M52 69h12M16 70h21M38 70h1M40 70h22M16 71h44M16 72h41M14 73h1M16 73h39M15 74h37M55 74h2M15 75h43M15 76h43" />
<path stroke="#5a6273" d="M37 4h1M37 5h1M37 6h1M36 7h1M36 8h1M36 9h1M35 10h2M5 11h1M35 11h2M6 12h2M35 12h1M6 13h3M34 13h2M7 14h3M34 14h2M8 15h4M34 15h2M9 16h3M35 16h1M10 17h2M17 22h1M17 23h2M17 24h2M33 24h1M18 25h2M33 25h2M19 26h1M33 26h2M20 27h1M34 27h1M20 28h1M34 28h1M21 29h1M34 29h1M21 30h1M27 32h5M25 33h7M24 34h6M23 35h4M22 36h2M22 37h1M73 42h2M71 43h3M69 44h4M68 45h3M66 46h4M66 47h2M66 48h1M58 54h1M57 55h2M57 56h2M57 57h1M56 58h2M56 59h1M55 60h1M55 61h1" />
<path stroke="#4a5262" d="M36 6h1M37 7h1M35 9h1M4 10h1M5 12h1M34 12h1M36 12h1M16 23h1M19 27h1M33 27h1M20 29h1M30 34h1M27 35h1M24 36h1M41 66h7M38 67h8M37 68h6M36 69h1M38 69h1M40 69h1M37 70h1M39 70h1" />
<path stroke="#293141" d="M41 13h1M41 14h1M17 21h1M11 29h1M16 32h1M22 32h1M19 33h4M40 33h1M20 34h2M39 34h1M37 35h3M37 36h2M37 37h2M37 38h1M77 40h1M73 41h2M71 42h2M69 43h2M75 52h2M71 63h1M67 66h1" />
<path stroke="#7b6200" d="M12 16h1M34 16h1M12 17h1M14 17h1M33 17h1M35 17h1M41 17h1M43 17h1M15 18h1M32 18h1M16 19h1M32 19h1M8 20h1M32 20h1M6 21h1M32 21h1M16 22h1M32 22h1M6 24h1M35 24h1M40 24h1M13 25h1M8 26h1M11 26h1M64 46h2M62 47h2M61 48h1M60 49h1M59 52h1M65 52h1M59 53h1M59 54h1M66 54h1M67 55h1M69 56h1M74 56h1M60 57h1M75 58h1M74 60h1M64 61h1M66 62h1M72 62h1" />
<path stroke="#e6c518" d="M13 17h1M12 18h3M34 18h2M12 19h4M33 19h3M13 20h4M33 20h2M14 21h3M33 21h2M15 22h1M34 22h1M34 23h1M64 47h1M63 48h2M61 49h4M61 50h4M60 51h3M60 52h2M60 53h1" />
<path stroke="#bd9c4a" d="M34 17h1M42 17h1M11 18h1M33 18h1M36 18h7M10 19h2M36 19h7M9 20h4M35 20h8M7 21h7M35 21h8M5 22h10M33 22h1M35 22h8M6 23h10M35 23h7M7 24h8M36 24h4M7 25h6M9 26h2M62 48h1M60 50h1M63 51h2M62 52h3M61 53h5M60 54h6M60 55h7M60 56h9M75 56h1M61 57h15M61 58h14M62 59h13M63 60h11M65 61h9M67 62h5" />
<path stroke="#732929" d="M42 42h1M43 47h1M43 49h1" />
<path stroke="#cd4120" d="M42 43h1M42 44h1M42 45h1M42 46h1M42 47h1M43 48h1" />
<path stroke="#ee6a52" d="M43 44h1" />
</svg>