<svg xmlns="http://www.w3.org/2000/svg" viewBox="0 -0.5 80 80" shape-rendering="crispEdges">
<metadata>Made with Pixels to Svg https://codepen.io/shshaw/pen/XbxvNj</metadata>
<path stroke="#525252" d="M39 15h1M46 15h1M38 16h1M47 16h1M48 17h1M41 21h1M46 21h1M40 22h1M37 23h1M33 26h1M33 31h1M34 32h1M35 33h1M43 36h1M43 37h2M43 38h1M43 39h1M43 40h1M43 41h1M38 42h2M43 42h1M36 43h2M42 43h2M35 44h1M44 44h2M46 45h2M47 46h2M48 47h2M31 48h1M48 48h2M49 49h2M30 50h1M49 50h2M29 51h1M49 51h3M49 52h3M49 53h3M49 54h3M49 55h3M29 56h1M48 56h4M48 57h3M31 58h1M47 58h4M32 59h1M46 59h4M32 60h2M45 60h5M33 61h3M43 61h6M34 62h14M36 63h10M38 64h6" />
<path stroke="#101010" d="M40 15h6M36 16h2M34 17h2M32 18h2M48 18h1M31 19h1M48 19h1M30 20h1M47 20h1M29 21h1M42 21h4M29 22h1M38 22h2M28 23h1M36 23h1M28 24h1M35 24h1M27 25h1M34 25h1M27 26h1M27 27h1M33 27h1M27 28h1M33 28h1M27 29h1M33 29h1M27 30h1M33 30h1M28 31h1M34 31h1M28 32h1M35 32h1M29 33h1M36 33h1M29 34h1M37 34h2M30 35h1M39 35h2M31 36h1M41 36h2M32 37h1M33 38h2M44 38h1M35 39h2M44 39h1M37 40h1M44 40h1M37 41h1M44 41h1M37 42h1M40 42h3M44 42h1M44 43h2M34 44h1M46 44h2M33 45h1M48 45h1M32 46h1M49 46h1M31 47h1M50 47h1M50 48h1M30 49h1M51 49h1M51 50h1M52 51h1M29 52h1M52 52h1M29 53h1M52 53h1M29 54h1M52 54h1M29 55h1M52 55h1M52 56h1M30 57h1M51 57h1M30 58h1M51 58h1M31 59h1M50 59h1M31 60h1M50 60h1M32 61h1M49 61h1M33 62h1M48 62h1M34 63h2M46 63h2M36 64h2M44 64h2M38 65h6" />
<path stroke="#737373" d="M39 16h1M46 16h1M36 17h1M47 17h1M34 18h1M38 18h5M47 18h1M32 19h1M36 19h12M31 20h1M34 20h13M30 21h1M33 21h8M32 22h6M29 23h1M31 23h5M31 24h4M28 25h1M30 25h4M30 26h3M30 27h3M30 28h3M30 29h3M28 30h1M30 30h3M30 31h3M29 32h5M30 33h3M34 33h1M30 34h4M36 34h1M31 35h4M38 35h1M32 36h5M40 36h1M33 37h6M35 38h7M37 39h5M38 40h4M38 41h4M38 43h4M36 44h8M34 45h12M33 46h2M38 46h9M32 47h2M39 47h9M32 48h2M39 48h9M31 49h3M39 49h10M31 50h4M38 50h11M30 51h19M30 52h19M30 53h19M30 54h19M30 55h19M30 56h18M31 57h17M32 58h15M33 59h13M34 60h11M36 61h7" />
<path stroke="#a4a4a4" d="M40 16h4M37 17h7M46 17h1M35 18h3M43 18h4M33 19h3M32 20h2M31 21h2M30 22h2M30 23h1M29 24h2M29 25h1M29 26h1M29 27h1M28 28h2M28 29h2M29 30h1M29 31h1M33 33h1M34 34h2M35 35h3M37 36h3M39 37h4M42 38h1M42 39h1M42 40h1M42 41h1M35 46h3M34 47h1M38 47h1M34 48h1M38 48h1M34 49h1M38 49h1M35 50h3" />
<path stroke="#dedede" d="M44 16h2M44 17h2M28 26h1M28 27h1M35 47h3M35 48h3M35 49h3" />
</svg>