<svg xmlns="http://www.w3.org/2000/svg" viewBox="0 -0.5 80 80" shape-rendering="crispEdges">
<metadata>Made with Pixels to Svg https://codepen.io/shshaw/pen/XbxvNj</metadata>
<path stroke="#4a5a94" d="M51 8h2M50 9h1M53 9h1M50 10h1M53 10h1M67 10h3M50 11h1M53 11h1M66 11h1M70 11h1M26 12h3M39 12h6M47 12h3M53 12h1M57 12h5M66 12h1M71 12h1M25 13h1M30 13h2M38 13h1M55 13h1M62 13h1M65 13h1M71 13h1M25 14h1M32 14h2M70 14h1M25 15h1M69 15h2M25 16h1M58 16h1M69 16h1M26 17h2M55 17h1M68 17h1M28 18h5M43 18h2M33 19h3M67 19h1M26 21h3M43 21h1M26 22h1M30 22h2M44 22h1M26 23h1M32 23h2M46 23h1M27 24h1M34 24h2M41 24h1M36 25h1M42 25h1M64 25h1M53 26h1M55 26h1M28 27h1M56 27h1M63 27h1M28 29h1M38 29h1M52 29h1M59 29h1M27 30h1M37 30h1M53 31h1M61 31h1M31 32h1M43 32h1M54 33h1M46 34h1M60 35h1M63 35h2M47 36h1M61 36h1M40 37h1M56 37h1M59 37h1M61 37h1M7 38h6M42 38h1M56 38h1M62 38h1M64 38h2M5 39h2M13 39h3M55 39h1M62 39h1M4 40h1M16 40h2M61 40h1M18 41h1M61 41h1M8 42h1M11 42h1M19 42h1M61 42h1M65 42h2M14 43h1M20 43h1M35 43h1M46 43h1M62 43h1M16 44h1M21 44h1M66 44h1M21 45h1M48 45h1M22 46h1M67 46h1M19 47h1M22 47h1M68 47h1M23 48h1M69 48h1M20 49h1M23 49h1M56 49h1M60 49h1M70 49h1M61 50h1M72 50h1M74 51h1M21 52h1M58 52h1M24 53h1M54 53h1M69 53h1M52 54h1M71 54h1M8 55h8M5 56h3M16 56h1M22 56h1M50 56h1M3 57h2M25 57h1M2 58h1M10 58h1M14 58h1M1 59h1M7 59h1M39 59h1M1 60h1M5 60h1M19 60h1M26 60h1M21 61h1M51 62h1M52 63h1M53 64h1M54 66h1M54 67h1M55 68h1M27 69h1M55 69h1M56 70h1M28 71h1" />
<path stroke="#acd5ff" d="M51 9h2M52 10h1M52 11h1M67 11h3M52 12h1M69 12h2M26 13h3M39 13h6M57 13h5M70 13h1M26 14h2M29 14h3M39 14h2M45 14h2M55 14h2M26 15h1M32 15h3M39 15h1M47 15h2M53 15h2M49 16h4M27 22h2M42 22h2M27 23h5M42 23h4M28 24h4M42 24h6M28 25h3M43 25h4M28 26h2M43 26h3M51 26h2M29 27h1M43 27h2M53 27h3M43 28h1M55 28h2M42 29h2M28 30h1M42 30h2M28 31h2M41 31h2M7 39h6M64 39h1M5 40h11M64 40h1M5 41h13M64 41h1M5 42h3M12 42h7M64 42h1M15 43h5M65 43h1M17 44h4M65 44h1M18 45h3M66 45h1M19 46h3M66 46h1M20 47h2M67 47h1M20 48h3M67 48h2M21 49h2M68 49h2M21 50h2M70 50h2M21 51h1M72 51h2M74 52h2M50 62h1M51 63h1M51 64h2M52 65h2M53 66h1" />
<path stroke="#629ccd" d="M51 10h1M51 11h1M50 12h2M67 12h2M29 13h1M47 13h6M56 13h1M66 13h4M28 14h1M41 14h4M49 14h4M57 14h7M66 14h4M27 15h5M40 15h7M55 15h14M26 16h12M40 16h9M53 16h5M62 16h7M28 17h12M45 17h10M63 17h5M33 18h10M47 18h6M64 18h4M64 19h3M52 20h1M63 20h4M52 21h1M63 21h3M29 22h1M52 22h1M62 22h4M51 23h2M62 23h3M49 24h4M61 24h4M33 25h3M60 25h4M32 26h5M59 26h5M31 27h7M47 27h4M52 27h1M58 27h5M31 28h8M41 28h1M46 28h6M53 28h2M57 28h1M59 28h4M31 29h7M39 29h2M45 29h7M53 29h6M60 29h2M31 30h6M38 30h3M45 30h8M54 30h8M32 31h4M37 31h3M45 31h8M54 31h7M33 32h2M36 32h4M46 32h8M55 32h7M36 33h7M46 33h8M55 33h8M35 34h10M47 34h8M56 34h7M35 35h11M47 35h8M56 35h4M61 35h2M34 36h12M48 36h7M58 36h3M62 36h2M34 37h2M41 37h6M48 37h7M60 37h1M62 37h2M34 38h1M36 38h4M43 38h4M48 38h7M61 38h1M63 38h1M35 39h7M44 39h3M48 39h7M61 39h1M63 39h1M35 40h9M45 40h2M48 40h8M62 40h2M35 41h10M46 41h1M48 41h9M62 41h2M35 42h11M48 42h10M62 42h2M36 43h10M48 43h12M63 43h1M36 44h11M48 44h17M36 45h12M49 45h16M36 46h12M49 46h17M37 47h10M49 47h17M37 48h8M50 48h17M38 49h5M52 49h4M61 49h7M23 50h1M39 50h2M51 50h1M57 50h3M62 50h7M22 51h2M51 51h10M62 51h9M22 52h2M50 52h8M63 52h10M22 53h2M50 53h4M63 53h4M70 53h8M22 54h3M49 54h3M72 54h5M22 55h3M48 55h3M23 56h2M47 56h3M23 57h2M40 57h1M45 57h5M15 58h6M23 58h3M40 58h9M18 59h4M23 59h3M40 59h9M20 60h3M24 60h2M39 60h10M22 61h5M39 61h11M23 62h4M38 62h12M24 63h4M37 63h14M25 64h3M36 64h15M26 65h3M36 65h16M26 66h3M35 66h18M27 67h3M35 67h19M27 68h3M34 68h21M28 69h3M34 69h21M14 70h4M28 70h3M33 70h23M18 71h4M29 71h3M33 71h23M22 72h2M29 72h4M34 72h22" />
<path stroke="#101010" d="M45 13h2M53 13h1M63 13h1M34 14h1M38 14h1M47 14h2M53 14h2M64 14h2M35 15h4M49 15h4M38 16h2M59 16h3M40 17h5M56 17h3M62 17h1M45 18h2M53 18h3M63 18h1M68 18h1M36 19h7M47 19h7M63 19h1M49 20h1M53 20h1M62 20h1M67 20h1M41 21h2M49 21h1M53 21h1M62 21h1M66 21h2M41 22h1M45 22h1M49 22h1M53 22h1M61 22h1M66 22h1M41 23h1M47 23h2M53 23h1M61 23h1M65 23h2M48 24h1M53 24h1M60 24h1M65 24h1M27 25h1M49 25h5M59 25h1M65 25h1M27 26h1M37 26h1M42 26h1M50 26h1M54 26h1M58 26h1M64 26h1M38 27h1M41 27h2M51 27h1M57 27h1M64 27h1M28 28h1M39 28h2M42 28h1M52 28h1M58 28h1M63 28h1M41 29h1M62 29h2M41 30h1M53 30h1M62 30h1M27 31h1M36 31h1M40 31h1M62 31h1M27 32h4M35 32h1M40 32h3M54 32h1M62 32h1M32 33h4M43 33h3M63 33h1M34 34h1M45 34h1M55 34h1M63 34h1M34 35h1M46 35h1M55 35h1M33 36h1M46 36h1M55 36h3M64 36h1M33 37h1M36 37h4M47 37h1M55 37h1M64 37h1M33 38h1M35 38h1M40 38h2M47 38h1M55 38h1M60 38h1M33 39h2M42 39h2M47 39h1M56 39h1M60 39h1M65 39h1M34 40h1M44 40h1M47 40h1M56 40h1M60 40h1M65 40h1M4 41h1M34 41h1M45 41h1M47 41h1M57 41h1M65 41h1M4 42h1M9 42h2M34 42h1M46 42h2M58 42h2M5 43h3M12 43h2M34 43h1M47 43h1M60 43h2M66 43h1M15 44h1M35 44h1M47 44h1M17 45h1M35 45h1M67 45h1M18 46h1M35 46h1M48 46h1M18 47h1M36 47h1M47 47h2M19 48h1M36 48h1M45 48h2M49 48h1M19 49h1M37 49h1M43 49h2M50 49h2M57 49h3M71 49h1M20 50h1M24 50h1M37 50h2M41 50h2M50 50h1M52 50h5M60 50h1M73 50h1M20 51h1M24 51h1M39 51h2M50 51h1M61 51h1M75 51h1M20 52h1M24 52h1M39 52h1M49 52h1M59 52h4M76 52h2M21 53h1M38 53h1M49 53h1M55 53h4M62 53h1M67 53h2M78 53h1M21 54h1M25 54h1M38 54h1M48 54h1M53 54h2M63 54h4M69 54h2M77 54h2M21 55h1M25 55h1M38 55h1M47 55h1M51 55h2M71 55h6M17 56h1M25 56h1M39 56h1M46 56h1M51 56h1M18 57h3M22 57h1M39 57h1M41 57h4M50 57h1M11 58h3M21 58h2M26 58h1M39 58h1M49 58h2M8 59h3M14 59h4M22 59h1M26 59h1M38 59h1M49 59h1M6 60h2M17 60h2M23 60h1M38 60h1M49 60h1M2 61h4M19 61h2M27 61h1M37 61h2M50 61h1M21 62h2M27 62h1M36 62h2M23 63h1M28 63h1M36 63h1M24 64h1M28 64h1M35 64h1M25 65h1M29 65h1M35 65h1M54 65h1M25 66h1M29 66h1M34 66h1M26 67h1M30 67h1M34 67h1M26 68h1M30 68h1M33 68h1M58 68h1M26 69h1M31 69h1M33 69h1M59 69h1M8 70h1M27 70h1M31 70h2M59 70h2M8 71h1M27 71h1M32 71h1M56 71h1M60 71h1M8 72h1M28 72h1M33 72h1M56 72h1M60 72h2" />
<path stroke="#8bbdee" d="M50 20h2M50 21h2M50 22h2M49 23h2M32 24h2M31 25h2M47 25h2M30 26h2M46 26h4M30 27h1M45 27h2M29 28h2M44 28h2M29 29h2M44 29h1M29 30h2M44 30h1M30 31h2M43 31h2M32 32h1M44 32h2M64 43h1M65 45h1M66 47h1M69 50h1M71 51h1M73 52h1M8 56h8M5 57h13M3 58h7M2 59h5M2 60h3" />
<path stroke="#ffffff" d="M57 37h1M57 38h2M57 39h2M57 40h2M58 41h2M60 42h1M32 47h4M29 48h4M35 48h1M28 49h2M33 49h3M28 50h6M36 50h1M28 51h4M34 51h2M29 52h5M15 60h2M13 61h5M12 62h6M11 63h6M11 64h6M10 65h6M17 65h1M10 66h5M16 66h1M10 67h4M15 67h1M17 67h1M9 68h4M16 68h1M9 69h2" />
<path stroke="#7b7b7b" d="M58 37h1M32 46h3M29 47h3M28 48h1M33 48h2M27 49h1M30 49h3M36 49h1M46 49h1M48 49h1M27 50h1M34 50h2M45 50h1M48 50h1M27 51h1M32 51h2M36 51h1M43 51h2M47 51h1M28 52h1M34 52h2M41 52h2M46 52h1M29 53h5M45 53h1M44 54h1M43 55h1M40 56h1M45 56h1M13 60h2M12 61h1M11 62h1M10 63h1M10 64h1M9 65h1M9 66h1M9 67h1M8 68h1M8 69h1" />
<path stroke="#bd3931" d="M59 38h1M59 39h1M59 40h1M60 41h1" />
<path stroke="#d5d5d5" d="M47 48h2M45 49h1M47 49h1M49 49h1M43 50h2M46 50h2M49 50h1M41 51h2M45 51h2M48 51h2M40 52h1M43 52h3M47 52h2M39 53h6M46 53h3M39 54h5M45 54h3M39 55h4M44 55h3M41 56h4M18 61h1M18 62h3M17 63h6M17 64h7M16 65h1M18 65h7M15 66h1M17 66h8M14 67h1M16 67h1M18 67h8M13 68h3M17 68h9M11 69h15M9 70h5M18 70h9M9 71h9M22 71h5M9 72h13M24 72h4" />
<path stroke="#ac6a00" d="M55 65h1M56 66h1M57 67h1M58 69h1M57 70h1" />
<path stroke="#f6e64a" d="M55 66h1M55 67h2M56 68h2" />
<path stroke="#e6ac39" d="M56 69h2M58 70h1M57 71h3M57 72h3" />
</svg>