<svg xmlns="http://www.w3.org/2000/svg" viewBox="0 -0.5 80 80" shape-rendering="crispEdges">
<metadata>Made with Pixels to Svg https://codepen.io/shshaw/pen/XbxvNj</metadata>
<path stroke="#943120" d="M33 14h2M31 15h2M45 15h6M30 16h1M43 16h2M51 16h1M29 17h1M25 18h2M29 18h1M41 18h1M23 19h2M22 20h1M28 20h1M52 20h2M21 21h1M28 21h1M55 21h1M20 22h1M25 24h2M44 24h1M58 24h1M45 25h1M32 26h1M46 26h1M19 27h1M31 27h1M46 27h1M19 28h1M31 28h1M47 28h1M20 34h1M31 34h1M46 34h2M21 36h1M48 36h1M48 37h1M42 38h1M24 39h1M30 39h2M51 39h1M29 40h1M51 40h1M53 42h1M52 43h1M52 44h1M51 45h1M51 46h1M51 47h1M51 48h1M52 49h1M54 53h1M28 54h4M52 54h1M30 58h1M43 61h1M55 61h1M16 62h2M44 62h1M46 62h1M53 62h1M18 63h2M46 63h1M20 64h3" />
<path stroke="#101010" d="M35 14h4M39 15h2M41 16h2M52 16h1M42 17h1M53 17h1M27 18h2M54 18h1M28 19h1M55 19h1M54 20h2M56 21h1M57 22h1M20 23h1M58 23h1M19 24h1M24 24h1M19 25h1M22 25h2M59 25h1M19 26h1M21 26h1M59 26h1M20 27h1M59 27h1M20 28h1M59 28h1M19 29h1M30 29h1M47 29h1M59 29h1M19 30h1M30 30h1M47 30h1M59 30h1M19 31h1M30 31h1M47 31h1M59 31h1M19 32h1M30 32h1M47 32h1M58 32h1M19 33h1M30 33h1M47 33h1M58 33h1M19 34h1M57 34h1M20 35h1M31 35h1M46 35h1M56 35h1M20 36h1M32 36h1M45 36h3M54 36h2M21 37h1M33 37h2M44 37h2M49 37h4M54 37h1M21 38h2M34 38h3M43 38h2M51 38h1M54 38h1M22 39h2M36 39h7M54 39h1M24 40h5M27 41h2M55 41h1M27 42h1M57 42h1M28 43h1M58 43h1M28 44h1M58 44h1M29 45h1M58 45h1M29 46h2M57 46h1M30 47h2M57 47h1M31 48h3M56 48h1M33 49h3M55 49h1M34 50h1M36 50h4M52 50h3M34 51h1M37 51h16M34 52h1M37 52h13M55 52h4M34 53h16M52 53h2M56 53h1M60 53h1M32 54h2M40 54h12M56 54h1M59 54h4M28 55h1M34 55h1M45 55h5M62 55h1M28 56h1M34 56h1M58 56h1M61 56h1M29 57h1M34 57h1M55 57h1M57 57h1M59 57h2M29 58h1M55 58h2M59 58h1M29 59h2M33 59h1M58 59h1M29 60h1M31 60h2M57 60h1M28 61h2M56 61h1M28 62h1M45 62h1M54 62h2M16 63h1M27 63h2M47 63h7M16 64h1M27 64h1M51 64h2M17 65h1M23 65h6M52 65h1M17 66h2M52 66h1" />
<path stroke="#ff7b62" d="M33 15h3M31 16h6M45 16h6M30 17h7M43 17h10M30 18h7M42 18h3M51 18h3M25 19h3M29 19h8M41 19h2M52 19h3M23 20h5M29 20h7M51 20h1M22 21h6M29 21h6M49 21h6M21 22h12M36 22h4M53 22h4M22 23h20M55 23h3M27 24h17M56 24h2M24 25h12M41 25h4M57 25h1M22 26h5M31 26h1M33 26h1M43 26h3M21 27h3M32 27h1M44 27h2M21 28h2M32 28h1M45 28h2M20 29h2M31 29h2M46 29h1M20 30h2M31 30h1M46 30h1M20 31h1M31 31h1M20 32h1M31 32h1M29 55h3M17 63h1M17 64h3M18 65h4M19 66h2" />
<path stroke="#d55239" d="M36 15h3M37 16h4M37 17h5M37 18h4M45 18h6M37 19h4M43 19h9M36 20h15M35 21h14M33 22h3M40 22h13M21 23h1M42 23h13M20 24h4M45 24h11M20 25h2M36 25h5M46 25h11M58 25h1M20 26h1M27 26h4M34 26h9M47 26h12M24 27h7M33 27h11M47 27h12M23 28h8M33 28h12M48 28h11M22 29h8M33 29h13M48 29h11M22 30h8M32 30h14M48 30h11M21 31h9M32 31h15M48 31h11M21 32h9M32 32h15M48 32h10M20 33h10M31 33h16M48 33h10M21 34h10M32 34h14M48 34h9M21 35h10M32 35h14M47 35h9M22 36h10M33 36h12M49 36h5M22 37h11M35 37h9M46 37h2M23 38h11M37 38h5M45 38h6M25 39h5M32 39h4M43 39h8M30 40h21M29 41h23M28 42h24M29 43h23M29 44h23M30 45h21M31 46h20M32 47h19M34 48h17M36 49h16M40 50h12M55 53h1M34 54h6M53 54h3M32 55h2M35 55h10M50 55h10M29 56h5M35 56h21M59 56h1M30 57h4M35 57h20M58 57h1M31 58h24M57 58h2M31 59h2M34 59h24M30 60h1M33 60h24M30 61h13M44 61h11M29 62h15M47 62h6M29 63h17M28 64h21M22 65h1M29 65h19M21 66h27" />
<path stroke="#c5c5c5" d="M53 37h1M52 38h1M58 54h1M60 55h2M60 56h1" />
<path stroke="#ffffff" d="M53 38h1M52 39h2M52 40h2M52 41h2M57 53h3M57 54h1M56 56h2M56 57h1" />
<path stroke="#73737b" d="M54 40h1M52 42h1M35 50h1M35 51h2M35 52h2M59 52h2" />
<path stroke="#d5ac00" d="M54 41h1M54 42h1M53 43h2M53 44h3M52 45h6M52 46h5M52 47h5M52 48h3M49 64h2M48 65h4M48 66h4" />
<path stroke="#ffffb4" d="M55 42h1M55 43h3M56 44h2" />
<path stroke="#ac8300" d="M56 42h1M55 48h1M53 49h2" />
</svg>