<svg xmlns="http://www.w3.org/2000/svg" viewBox="0 -0.5 80 80" shape-rendering="crispEdges">
<metadata>Made with Pixels to Svg https://codepen.io/shshaw/pen/XbxvNj</metadata>
<path stroke="#101010" d="M48 20h8M45 21h2M56 21h2M43 22h1M58 22h2M42 23h1M59 23h2M34 24h8M61 24h1M30 25h3M61 25h1M28 26h1M62 26h1M16 27h5M26 27h1M62 27h1M10 28h6M23 28h3M63 28h1M8 29h1M17 29h1M24 29h1M63 29h2M6 30h1M19 30h1M63 30h1M65 30h1M5 31h1M20 31h1M63 31h1M65 31h1M4 32h1M54 32h1M66 32h1M56 33h1M66 33h1M3 34h1M57 34h1M66 34h1M58 35h1M66 35h1M2 36h1M66 36h1M2 37h1M50 37h2M59 37h1M61 37h1M65 37h1M2 38h1M48 38h1M52 38h1M59 38h1M62 38h1M65 38h1M2 39h1M8 39h1M59 39h1M64 39h1M68 39h3M2 40h1M7 40h1M47 40h1M59 40h1M63 40h1M66 40h1M2 41h1M6 41h1M47 41h1M59 41h1M63 41h2M72 41h1M2 42h1M47 42h1M58 42h1M64 42h1M72 42h1M3 43h1M5 43h1M48 43h1M58 43h1M65 43h1M72 43h4M3 44h1M5 44h1M11 44h3M49 44h2M56 44h2M65 44h1M72 44h1M76 44h1M4 45h2M10 45h1M14 45h1M51 45h5M66 45h1M72 45h1M76 45h1M5 46h1M66 46h1M71 46h1M76 46h1M5 47h1M15 47h1M66 47h1M71 47h1M76 47h1M6 48h1M15 48h1M67 48h1M71 48h6M6 49h2M15 49h1M67 49h1M7 50h2M14 50h1M67 50h1M77 50h1M9 51h5M68 51h1M77 51h1M11 52h2M68 52h1M76 52h1M8 53h1M11 53h1M68 53h1M75 53h1M9 54h1M11 54h1M68 54h1M74 54h1M10 55h1M69 55h1M72 55h1M10 56h1M69 56h1M10 57h1M69 57h1M8 58h1M10 58h1M69 58h1M9 59h2M69 59h1M76 59h1M10 60h1M69 60h6" />
<path stroke="#bd2031" d="M47 21h1M55 21h1M44 22h1M57 22h1M60 24h1M33 25h1M41 25h1M29 26h1M40 26h1M61 26h1M21 27h1M27 27h1M40 27h1M22 28h1M40 28h1M62 28h1M9 29h1M16 29h1M18 29h1M7 30h1M18 30h1M23 30h1M21 32h1M51 32h3M63 32h1M4 33h1M55 33h1M63 33h1M3 35h1M58 36h2M49 37h1M10 38h2M9 39h1M47 39h1M53 39h1M62 39h2M53 40h1M58 41h1M3 42h1M5 42h2M48 42h1M57 43h1M64 43h1M4 44h1M55 44h1M75 44h1M65 45h1M9 46h1M15 46h1M6 47h1M9 47h1M66 48h1M9 50h1M67 51h1M67 52h1M11 55h1M68 55h1M11 56h1M68 56h1" />
<path stroke="#ffacc5" d="M48 21h7M45 22h5M43 23h4M42 24h3M39 25h2M42 25h2M30 26h2M38 26h2M41 26h2M28 27h5M36 27h4M41 27h1M16 28h6M26 28h11M10 29h6M21 29h3M25 29h10M8 30h8M24 30h9M6 31h6M24 31h8M5 32h5M23 32h1M25 32h6M5 33h3M24 33h1M26 33h3M4 34h3M23 34h1M25 34h1M4 35h2M3 36h3M3 37h2M3 38h2M3 39h1M3 40h1" />
<path stroke="#ee7b9c" d="M50 22h7M47 23h12M45 24h15M44 25h17M43 26h18M42 27h20M37 28h3M41 28h21M19 29h2M35 29h28M16 30h2M20 30h3M33 30h30M64 30h1M12 31h8M21 31h3M32 31h31M64 31h1M10 32h11M22 32h1M24 32h1M31 32h20M55 32h8M64 32h2M8 33h16M25 33h1M29 33h26M57 33h6M64 33h2M7 34h16M24 34h1M26 34h31M58 34h8M6 35h52M59 35h7M6 36h52M60 36h6M5 37h44M52 37h7M60 37h1M62 37h3M5 38h5M12 38h36M49 38h3M53 38h6M60 38h2M63 38h2M4 39h4M10 39h37M48 39h5M54 39h5M60 39h2M4 40h3M8 40h39M48 40h5M54 40h5M60 40h3M3 41h3M7 41h40M48 41h10M60 41h3M4 42h1M7 42h40M49 42h9M59 42h5M4 43h1M6 43h42M49 43h8M59 43h5M6 44h5M14 44h35M51 44h4M58 44h7M73 44h2M6 45h4M11 45h3M15 45h36M56 45h9M73 45h3M6 46h3M10 46h5M16 46h50M72 46h4M7 47h2M10 47h5M16 47h50M72 47h4M7 48h8M16 48h50M8 49h7M16 49h51M10 50h4M15 50h52M14 51h53M13 52h54M12 53h56M12 54h56M12 55h56M12 56h56M11 57h58M11 58h58M11 59h58M11 60h58" />
<path stroke="#ffd5de" d="M34 25h5M32 26h6M33 27h3" />
<path stroke="#6a6a6a" d="M71 39h1M67 40h1M72 40h1M65 41h1M71 45h1M70 49h2M77 49h1M7 51h1M76 51h1M7 52h1M73 54h1M71 55h1M73 55h1M9 56h1M74 56h1M8 57h1M75 57h1M76 58h1M75 60h1" />
<path stroke="#dedede" d="M68 40h4M66 41h6M65 42h7M66 43h6M66 44h6M67 45h4M67 46h4M67 47h4M68 48h3M68 49h2M72 49h5M68 50h9M8 51h1M69 51h7M8 52h3M69 52h7M9 53h2M69 53h6M10 54h1M69 54h4M70 55h1M70 56h4M9 57h1M70 57h5M9 58h1M70 58h6M70 59h6" />
</svg>