<svg xmlns="http://www.w3.org/2000/svg" viewBox="0 -0.5 80 80" shape-rendering="crispEdges">
<metadata>Made with Pixels to Svg https://codepen.io/shshaw/pen/XbxvNj</metadata>
<path stroke="#6a6a6a" d="M50 12h4M42 13h4M48 13h1M54 13h1M40 14h1M47 14h1M39 15h1M46 15h1M58 15h1M38 16h1M46 16h1M58 16h2M38 17h1M45 17h1M59 17h1M45 18h1M59 18h2M45 19h1M59 19h2M45 20h1M59 20h3M37 21h1M46 21h1M59 21h3M51 22h1M59 22h4M67 22h2M36 23h1M38 23h1M52 23h1M58 23h1M60 23h5M68 23h1M60 24h8M41 25h1M64 25h5M78 25h1M35 26h1M66 26h4M77 26h1M67 27h3M77 27h1M34 28h1M68 28h3M76 28h1M54 29h1M70 29h1M76 29h1M70 30h2M76 30h1M33 31h1M64 31h1M71 31h1M55 32h1M71 32h2M68 33h1M72 33h1M75 33h1M78 33h1M76 37h1M76 42h1M63 43h1M65 44h1M68 45h1M73 45h1M76 48h1M63 52h1M69 53h1M64 55h1" />
<path stroke="#a4a4a4" d="M49 13h1M41 14h1M45 14h1M44 15h2M54 15h1M44 16h2M53 16h3M44 17h1M47 17h1M52 17h6M43 18h2M47 18h11M39 19h6M46 19h12M61 19h1M38 20h7M46 20h12M62 20h1M38 21h8M47 21h11M62 21h3M66 21h2M37 22h9M47 22h4M52 22h6M63 22h3M37 23h1M39 23h8M48 23h4M53 23h5M65 23h2M36 24h3M40 24h6M50 24h2M53 24h6M36 25h4M42 25h2M53 25h6M36 26h5M54 26h6M35 27h5M54 27h6M35 28h4M54 28h5M60 28h1M34 29h4M55 29h4M60 29h2M34 30h3M55 30h5M61 30h2M34 31h2M55 31h5M62 31h2M33 32h2M56 32h5M63 32h3M33 33h1M56 33h6M65 33h3M56 34h7M67 34h5M57 35h7M69 35h6M57 36h9M70 36h6M58 37h18M58 38h19M59 39h18M60 40h17M61 41h16M62 42h14M64 43h12M66 44h9M64 45h1M69 45h4M63 46h5M63 47h6M70 47h3M62 48h7M70 48h3M62 49h7M70 49h3M61 50h8M70 50h3M60 51h8M70 51h2M59 52h3M64 52h3M70 52h2M58 53h2M62 53h2M70 53h2M57 54h2M62 54h3M69 54h3M62 55h2M69 55h2M62 56h2M69 56h2M62 57h1M69 57h1M69 58h1" />
<path stroke="#ffffff" d="M50 13h4M42 14h3M48 14h8M40 15h3M47 15h6M55 15h2M39 16h5M47 16h6M56 16h1M39 17h5M46 17h1M48 17h3M38 18h1M40 18h2M46 18h1M38 19h1M78 26h1M78 27h1M77 28h2M77 29h2M60 30h1M67 30h2M78 30h1M60 31h2M67 31h2M61 32h2M68 32h2M62 33h3M63 34h3M64 35h4M67 36h3" />
<path stroke="#101010" d="M55 13h1M46 14h1M56 14h1M58 14h2M57 15h1M59 15h1M57 16h1M60 16h1M58 17h1M60 17h1M37 18h1M58 18h1M61 18h1M37 19h1M58 19h1M62 19h2M37 20h1M58 20h1M63 20h5M58 21h1M65 21h1M68 21h1M36 22h1M46 22h1M58 22h1M66 22h1M69 22h1M47 23h1M59 23h1M67 23h1M69 23h1M35 24h1M39 24h1M46 24h4M52 24h1M59 24h1M68 24h2M35 25h1M40 25h1M44 25h2M50 25h3M59 25h5M69 25h1M79 25h1M34 26h1M41 26h3M53 26h1M60 26h1M63 26h3M70 26h1M79 26h1M34 27h1M40 27h2M53 27h1M60 27h1M65 27h2M70 27h2M79 27h1M33 28h1M39 28h1M53 28h1M61 28h1M66 28h2M71 28h1M79 28h1M33 29h1M38 29h1M53 29h1M62 29h1M66 29h1M68 29h2M71 29h2M79 29h1M33 30h1M37 30h1M54 30h1M63 30h1M69 30h1M72 30h1M79 30h1M36 31h1M54 31h1M65 31h2M70 31h1M72 31h2M75 31h1M79 31h1M32 32h1M35 32h1M54 32h1M66 32h2M70 32h1M73 32h1M75 32h1M79 32h1M32 33h1M34 33h1M55 33h1M69 33h3M73 33h1M79 33h1M32 34h1M55 34h1M72 34h3M78 34h1M32 35h1M56 35h1M75 35h1M78 35h1M32 36h1M56 36h1M76 36h1M78 36h1M56 37h2M78 37h1M57 38h1M77 38h1M58 39h1M77 39h1M59 40h1M77 40h1M54 41h1M59 41h2M77 41h1M59 42h1M61 42h1M78 42h1M43 43h5M53 43h1M59 43h1M62 43h1M76 43h1M78 43h1M41 44h1M49 44h1M52 44h1M58 44h1M63 44h2M75 44h1M78 44h1M39 45h1M51 45h1M58 45h1M63 45h1M65 45h3M74 45h2M78 45h1M52 46h1M58 46h1M68 46h8M78 46h1M53 47h1M57 47h1M62 47h1M69 47h1M73 47h1M75 47h1M78 47h1M57 48h1M69 48h1M73 48h1M75 48h1M78 48h1M57 49h1M61 49h1M69 49h1M73 49h1M76 49h1M78 49h1M49 50h3M56 50h1M60 50h1M69 50h1M73 50h1M76 50h1M78 50h1M34 51h1M47 51h2M53 51h1M56 51h1M59 51h1M68 51h2M72 51h1M77 51h2M7 52h1M45 52h2M54 52h2M58 52h1M62 52h1M67 52h3M72 52h1M6 53h1M33 53h1M44 53h1M55 53h1M57 53h1M60 53h2M64 53h4M72 53h1M5 54h1M33 54h1M43 54h1M56 54h1M59 54h1M61 54h1M65 54h1M68 54h1M72 54h1M4 55h1M42 55h1M56 55h3M61 55h1M68 55h1M71 55h2M4 56h1M23 56h1M32 56h1M41 56h1M57 56h1M61 56h1M64 56h1M68 56h1M71 56h1M3 57h1M22 57h1M32 57h1M41 57h1M58 57h1M61 57h1M63 57h1M68 57h1M70 57h2M3 58h1M21 58h1M40 58h1M58 58h1M61 58h2M68 58h1M70 58h1M2 59h1M20 59h1M31 59h1M40 59h1M59 59h1M68 59h2M2 60h1M31 60h1M39 60h1M59 60h1M2 61h1M19 61h1M39 61h1M48 61h1M60 61h1M1 62h1M30 62h1M39 62h1M48 62h1M60 62h1M1 63h1M18 63h1M30 63h1M38 63h1M48 63h2M60 63h2M1 64h1M29 64h1M38 64h1M48 64h3M60 64h3M1 65h1M17 65h1M29 65h1M38 65h1M48 65h4M60 65h3M0 66h1M17 66h1M28 66h1M38 66h1M49 66h4M60 66h2M63 66h1M0 67h1M28 67h1M37 67h1M41 67h1M49 67h6M60 67h2M63 67h1M0 68h1M16 68h1M27 68h1M37 68h1M42 68h1M51 68h6M59 68h3M64 68h1M0 69h1M16 69h1M26 69h1M36 69h1M43 69h1M52 69h10M64 69h1M0 70h1M16 70h1M25 70h1M35 70h1M43 70h2M54 70h7M65 70h1" />
<path stroke="#d5d5d5" d="M43 15h1M53 15h1M51 17h1M39 18h1M42 18h1M59 28h1M59 29h1M67 29h1M77 30h1M76 31h3M76 32h3M76 33h2M66 34h1M75 34h3M68 35h1M76 35h2M66 36h1M77 36h1M77 37h1M77 42h1M77 43h1M76 44h2M76 45h2M76 46h2M76 47h2M77 48h1M77 49h1M77 50h1" />
<path stroke="#7b29de" d="M46 25h4M44 26h9M42 27h11M40 28h1M42 28h11M39 29h1M41 29h1M43 29h10M38 30h1M40 30h1M42 30h1M44 30h10M41 31h1M43 31h11M41 32h13M40 33h15M33 34h2M39 34h16M33 35h1M38 35h17M37 36h19M37 37h19M36 38h21M36 39h22M35 40h19M55 40h4M34 41h20M55 41h4M33 42h20M54 42h5M32 43h10M49 43h4M54 43h5M31 44h9M47 44h1M50 44h2M54 44h4M29 45h10M47 45h3M53 45h5M26 46h12M46 46h6M53 46h5M22 47h15M44 47h9M54 47h3M17 48h19M42 48h15M15 49h20M40 49h17M13 50h22M39 50h9M52 50h4M11 51h23M38 51h8M54 51h2M10 52h24M38 52h6M7 53h21M30 53h3M34 53h1M37 53h6M6 54h19M29 54h4M34 54h8M6 55h18M28 55h5M34 55h7M5 56h18M27 56h5M33 56h8M5 57h17M27 57h5M33 57h7M4 58h17M26 58h6M33 58h7M4 59h16M26 59h5M32 59h7M3 60h16M25 60h6M32 60h7M3 61h16M25 61h6M32 61h7M3 62h15M24 62h6M31 62h7M2 63h16M24 63h6M31 63h7M2 64h15M23 64h6M30 64h8M2 65h15M18 65h1M23 65h6M30 65h8M2 66h15M18 66h2M22 66h6M29 66h8M1 67h15M18 67h10M29 67h8M1 68h15M17 68h10M28 68h8M1 69h15M17 69h9M27 69h9M1 70h15M17 70h8M26 70h9" />
<path stroke="#d59c29" d="M61 26h2M61 27h4M62 28h4M63 29h3M64 30h2M60 42h1M60 43h2M59 44h4M59 45h4M59 46h3M58 47h4M58 48h3M58 49h3M57 50h3M49 51h4M57 51h2M47 52h7M56 52h2M45 53h10M56 53h1M44 54h12M43 55h13M42 56h15M42 57h15M41 58h17M41 59h17M40 60h8M49 60h10M40 61h8M49 61h10M40 62h8M50 62h10M39 63h9M50 63h10M39 64h9M51 64h9M39 65h9M52 65h8M39 66h9M54 66h6M38 67h3M42 67h7M56 67h4M62 67h1M38 68h4M44 68h6M58 68h1M62 68h1M37 69h6M44 69h8M62 69h2M36 70h7M45 70h9M61 70h3" />
<path stroke="#b473ff" d="M41 28h1M40 29h1M42 29h1M39 30h1M41 30h1M43 30h1M37 31h4M42 31h1M36 32h5M35 33h5M35 34h4M34 35h4M33 36h4M32 37h5M31 38h5M30 39h6M29 40h6M28 41h6M27 42h6M26 43h1M28 43h4M24 44h1M27 44h4M43 44h4M26 45h3M41 45h6M25 46h1M39 46h7M16 47h1M21 47h1M38 47h6M14 48h3M37 48h5M12 49h3M36 49h4M10 50h3M36 50h3M9 51h2M35 51h3M8 52h2M35 52h3M28 53h2M35 53h2M26 54h3M25 55h3M24 56h3M23 57h4M22 58h4M21 59h5M21 60h4M20 61h5M20 62h4M19 63h5M19 64h4M19 65h4M20 66h2" />
<path stroke="#8b6210" d="M66 30h1M62 46h1M61 48h1M57 57h1M58 59h1M48 60h1M59 61h1M49 62h1M48 66h1M53 66h1M62 66h1M55 67h1M43 68h1M50 68h1M57 68h1M63 68h1M64 70h1" />
<path stroke="#c50000" d="M69 31h1" />
<path stroke="#411094" d="M55 35h1M31 37h1M30 38h1M29 39h1M28 40h1M54 40h1M27 41h1M26 42h1M53 42h1M24 43h2M42 43h1M48 43h1M22 44h2M40 44h1M42 44h1M48 44h1M53 44h1M19 45h3M40 45h1M50 45h1M52 45h1M16 46h3M38 46h1M14 47h2M37 47h1M12 48h2M36 48h1M10 49h2M35 49h1M9 50h1M35 50h1M48 50h1M8 51h1M46 51h1M34 52h1M44 52h1M43 53h1M25 54h1M42 54h1M5 55h1M24 55h1M33 55h1M41 55h1M4 57h1M40 57h1M32 58h1M3 59h1M39 59h1M19 60h2M31 61h1M2 62h1M18 62h2M38 62h1M17 64h2M1 66h1M37 66h1M16 67h2M36 68h1" />
<path stroke="#d5b4ff" d="M27 43h1M25 44h2M22 45h4M19 46h6M17 47h4" />
</svg>