<svg xmlns="http://www.w3.org/2000/svg" viewBox="0 -0.5 80 80" shape-rendering="crispEdges">
<metadata>Made with Pixels to Svg https://codepen.io/shshaw/pen/XbxvNj</metadata>
<path stroke="#b43931" d="M56 9h2M39 10h1M55 10h1M54 14h1M65 49h1M65 50h1M66 51h1M66 52h1M67 53h1M68 54h1M69 55h1M69 56h2M70 57h1M71 58h1M72 59h1M72 60h1M35 71h1M33 72h2M30 73h3M28 74h2M24 75h4M21 76h3M19 77h2M28 78h4M21 79h7" />
<path stroke="#de6231" d="M40 10h1M41 11h1M42 12h1M42 14h1M55 14h1M42 15h4M43 16h1M55 16h1M55 17h2M55 18h2M56 19h1M33 55h2M31 56h3M30 57h3M29 58h3M66 58h1M28 59h3M26 60h5M38 60h1M43 60h1M25 61h5M38 61h1M42 61h2M24 62h5M38 62h1M42 62h3M67 62h1M73 62h1M23 63h5M38 63h2M41 63h4M67 63h2M72 63h2M23 64h5M38 64h2M41 64h6M67 64h7M23 65h5M39 65h8M68 65h6M23 66h5M40 66h8M68 66h7M22 67h6M41 67h7M68 67h7M23 68h4M43 68h1M45 68h4M69 68h6M42 69h1M44 69h1M46 69h3M69 69h6M43 70h1M45 70h5M69 70h5M32 71h2M36 71h1M44 71h6M31 72h2M44 72h7M43 73h8M42 74h10M41 75h11M35 76h1M40 76h13M32 77h3M39 77h15M36 78h2M40 78h15M34 79h2M38 79h18" />
<path stroke="#ff6a52" d="M56 10h1M40 11h1M56 11h1M41 12h1M56 12h1M41 13h2M56 13h1M43 14h1M56 14h1M55 15h2M56 16h1M65 51h1M65 52h1M65 53h2M66 54h2M66 55h3M66 56h3M66 57h4M67 58h4M67 59h5M67 60h5M67 61h6M68 62h5M69 63h3M38 65h1M37 66h3M37 67h4M36 68h7M44 68h1M36 69h6M43 69h1M45 69h1M34 70h9M44 70h1M34 71h1M37 71h7M35 72h9M33 73h10M30 74h12M28 75h13M24 76h11M36 76h4M21 77h11M35 77h4M19 78h9M32 78h4M28 79h6" />
<path stroke="#523131" d="M57 10h1M39 11h1M55 11h1M57 11h1M40 12h1M55 12h1M57 12h1M40 13h1M43 13h1M55 13h1M57 13h1M41 14h1M44 14h2M57 14h1M41 15h1M46 15h1M54 15h1M57 15h1M42 16h1M54 16h1M57 16h1M54 17h1M57 17h1M57 18h1M55 19h1M57 19h1M56 20h2M57 21h1M57 22h1M58 23h1M58 24h1M58 25h1M59 26h1M59 27h1M59 28h1M32 45h2M28 46h4M40 48h1M40 49h1M35 50h1M40 50h2M33 51h2M39 51h1M41 51h1M31 52h2M34 52h1M42 52h1M34 53h1M38 53h1M42 53h1M26 54h1M33 54h3M42 54h1M31 55h2M35 55h1M43 55h1M30 56h1M34 56h2M43 56h1M29 57h1M33 57h1M36 57h1M44 57h1M28 58h1M32 58h1M44 58h1M5 59h1M31 59h1M44 59h1M5 60h1M31 60h1M45 60h1M4 61h1M30 61h1M45 61h1M73 61h1M4 62h1M29 62h1M46 62h1M74 62h1M3 63h1M28 63h1M46 63h1M53 63h1M74 63h1M3 64h1M6 64h1M14 64h1M22 64h1M28 64h1M47 64h1M53 64h1M61 64h1M74 64h1M2 65h1M13 65h1M22 65h1M28 65h1M47 65h1M61 65h1M74 65h1M2 66h1M5 66h1M12 66h1M22 66h1M28 66h1M48 66h1M54 66h1M61 66h1M4 67h1M10 67h2M21 67h1M28 67h1M48 67h1M54 67h1M61 67h1M9 68h1M21 68h1M28 68h1M49 68h1M68 68h1M3 69h1M8 69h1M21 69h1M49 69h1M55 69h1M62 69h1M68 69h1M7 70h1M21 70h1M29 70h1M50 70h1M55 70h1M62 70h1M68 70h1M6 71h1M21 71h1M29 71h1M50 71h1M62 71h1M69 71h1M5 72h1M21 72h1M29 72h1M51 72h1M56 72h1M62 72h1M69 72h1M22 73h1M29 73h1M51 73h1M56 73h1M22 74h1M27 74h1M52 74h1M57 74h1M63 74h1M22 75h1M52 75h1M57 75h1M63 75h1M53 76h1M57 76h1M63 76h1M54 77h1M58 77h1M63 77h1M18 78h1M38 78h2M55 78h1M58 78h1M63 78h1M19 79h2M36 79h2M56 79h3M63 79h1" />
<path stroke="#8b7362" d="M44 16h7M41 17h3M51 17h2M39 18h2M53 18h2M38 19h1M37 20h1M36 21h1M35 22h1M34 23h1M33 24h1M32 25h1M31 26h1M30 27h1M29 28h1M29 29h1M59 29h1M28 30h1M27 31h1M26 32h1M25 33h1M24 34h1M60 34h1M23 35h1M22 36h1M21 37h1M20 38h1M61 38h1M19 39h1M18 40h1M18 41h1M32 41h1M17 42h1M31 42h1M62 42h1M16 43h1M30 43h1M15 44h1M29 44h1M15 45h1M28 45h1M34 45h1M14 46h1M13 47h1M31 47h1M40 47h1M12 48h1M30 48h1M63 48h1M11 49h1M29 49h1M36 49h1M11 50h1M29 50h1M34 50h1M10 51h1M28 51h1M9 52h1M27 52h1M8 53h1M26 53h1M8 54h1M14 54h1M64 54h1M7 55h1M13 55h1M7 56h1M12 56h1M6 57h1M11 57h1M59 57h1M6 58h1M11 58h1M27 58h1M59 58h1M10 59h1M19 59h1M59 59h1M65 59h1M9 60h1M18 60h1M52 60h1M60 60h1M8 61h1M17 61h1M52 61h1M60 61h1M8 62h1M16 62h1M53 62h1M60 62h1M7 63h1M15 63h1M60 63h2M5 65h2M53 65h2M66 65h1M3 68h2M22 68h1M27 68h1M54 68h2M61 68h2M23 69h4M28 69h2M74 70h1M28 71h1M56 71h1M70 71h4M22 72h1M27 72h1M23 73h4M62 73h2M70 74h1M75 74h1M71 75h4M71 78h1M75 78h1M72 79h3" />
<path stroke="#eed5ac" d="M44 17h7M42 18h11M40 19h15M38 20h18M37 21h19M36 22h21M35 23h23M34 24h24M33 25h25M33 26h4M44 26h15M34 27h1M47 27h11M48 28h6M55 28h1M49 29h4M54 29h1M56 29h1M49 30h3M53 30h1M55 30h1M57 30h1M54 31h1M56 31h1M32 42h2M31 43h3M30 44h3M29 45h3" />
<path stroke="#cdb49c" d="M41 18h1M39 19h1M56 21h1M32 26h1M37 26h7M31 27h3M35 27h12M58 27h1M30 28h18M54 28h1M56 28h3M30 29h19M53 29h1M55 29h1M57 29h2M29 30h20M52 30h1M54 30h1M56 30h1M58 30h2M28 31h26M55 31h1M57 31h3M27 32h33M26 33h34M25 34h35M24 35h37M23 36h38M22 37h39M21 38h40M20 39h42M19 40h43M19 41h13M33 41h29M18 42h13M34 42h28M17 43h13M34 43h29M16 44h13M33 44h30M16 45h12M35 45h28M15 46h13M32 46h31M14 47h17M32 47h8M41 47h22M13 48h17M31 48h9M41 48h22M12 49h17M30 49h6M37 49h3M41 49h23M12 50h17M30 50h4M36 50h4M42 50h22M11 51h17M29 51h4M35 51h4M42 51h22M10 52h17M28 52h3M33 52h1M35 52h4M43 52h21M9 53h17M27 53h2M31 53h3M35 53h3M43 53h21M9 54h5M15 54h11M29 54h4M36 54h2M43 54h21M8 55h5M14 55h17M36 55h1M44 55h21M8 56h4M13 56h17M36 56h1M44 56h21M7 57h4M12 57h17M45 57h14M60 57h5M7 58h4M12 58h15M45 58h14M60 58h5M6 59h4M11 59h8M20 59h6M45 59h14M60 59h5M6 60h3M10 60h8M19 60h6M46 60h6M53 60h7M61 60h5M5 61h3M9 61h8M18 61h6M46 61h6M53 61h7M61 61h5M5 62h3M9 62h7M17 62h6M47 62h6M54 62h6M61 62h5M4 63h3M8 63h7M16 63h6M47 63h6M54 63h6M62 63h4M4 64h2M7 64h7M15 64h6M48 64h5M54 64h7M62 64h4M3 65h2M7 65h6M14 65h6M48 65h5M55 65h6M62 65h4M3 66h2M6 66h6M13 66h5M49 66h5M55 66h6M62 66h5M3 67h1M5 67h5M12 67h5M49 67h5M55 67h6M62 67h5M5 68h4M10 68h6M50 68h4M56 68h5M63 68h4M4 69h4M9 69h5M50 69h5M56 69h6M63 69h4M3 70h4M8 70h5M51 70h4M56 70h6M63 70h4M3 71h3M7 71h5M51 71h5M57 71h5M63 71h4M3 72h2M6 72h3M52 72h4M57 72h5M63 72h4M52 73h4M57 73h5M64 73h3M53 74h4M58 74h5M64 74h3M53 75h4M58 75h5M64 75h3M54 76h3M58 76h5M64 76h3M55 77h3M59 77h4M64 77h2M56 78h2M59 78h4M64 78h2M59 79h4M64 79h1" />
<path stroke="#101010" d="M60 29h1M60 30h1M60 31h1M60 32h1M60 33h1M61 34h1M61 35h1M61 36h1M61 37h1M62 38h1M62 39h1M62 40h1M62 41h1M63 42h1M63 43h1M63 44h1M63 45h1M63 46h1M63 47h1M64 48h1M64 49h1M64 50h1M64 51h1M39 52h1M64 52h1M29 53h2M39 53h1M64 53h1M27 54h2M38 54h1M65 54h1M37 55h2M65 55h1M37 56h1M65 56h1M35 57h1M65 57h1M36 58h1M65 58h1M26 59h2M36 59h1M66 59h1M25 60h1M37 60h1M66 60h1M24 61h1M37 61h1M66 61h1M23 62h1M37 62h1M66 62h1M22 63h1M37 63h1M66 63h1M21 64h1M37 64h1M66 64h1M20 65h1M36 65h2M67 65h1M75 65h1M18 66h2M36 66h1M67 66h1M75 66h1M2 67h1M17 67h1M36 67h1M67 67h1M75 67h1M2 68h1M16 68h1M35 68h1M67 68h1M75 68h1M14 69h2M34 69h2M67 69h1M75 69h1M2 70h1M13 70h1M33 70h1M67 70h1M75 70h1M2 71h1M12 71h1M67 71h1M75 71h1M2 72h1M9 72h3M67 72h1M75 72h2M3 73h2M6 73h3M67 73h1M69 73h1M76 73h1M67 74h1M69 74h1M76 74h1M67 75h1M69 75h1M76 75h1M67 76h1M69 76h1M76 76h1M66 77h1M70 77h1M76 77h2M66 78h1M70 78h1M77 78h1M65 79h1M70 79h1M77 79h1" />
<path stroke="#e6ac5a" d="M40 51h1M40 52h2M40 53h2M39 54h3M39 55h4M38 56h5M37 57h7M37 58h7M37 59h7M39 60h4M44 60h1M39 61h3M44 61h1M39 62h3M45 62h1M40 63h1M45 63h1M40 64h1" />
<path stroke="#ac948b" d="M22 69h1M27 69h1M22 70h7M22 71h6M74 71h1M23 72h4M28 72h1M70 72h5M27 73h2M70 73h6M23 74h4M71 74h4M23 75h1M70 75h1M75 75h1M70 76h6M71 77h5M72 78h3M76 78h1M71 79h1M75 79h2" />
</svg>