<svg xmlns="http://www.w3.org/2000/svg" viewBox="0 -0.5 80 80" shape-rendering="crispEdges">
<metadata>Made with Pixels to Svg https://codepen.io/shshaw/pen/XbxvNj</metadata>
<path stroke="#4a526a" d="M42 10h2M41 11h1M44 11h1M41 12h1M44 12h1M40 13h1M44 13h1M40 14h1M45 14h1M40 15h1M45 15h1M40 16h1M45 16h1M46 17h1M46 18h2M58 24h1M49 25h6M58 25h1M46 26h7M56 26h1M44 27h7M54 27h3M42 28h7M52 28h5M41 29h6M51 29h6M40 30h6M50 30h7M66 30h1M39 31h6M49 31h7M39 32h5M48 32h7M41 33h2M48 33h5M59 33h1M47 34h3M51 34h1M59 34h1M48 35h1M50 35h1M52 35h1M60 35h1M65 35h1M49 36h1M51 36h1M61 36h2M65 36h1M48 37h1M50 37h1M69 37h1M68 39h1M68 40h1M68 41h1M68 42h1M69 43h1M64 47h1M65 48h1M66 50h1M70 51h1M37 63h1M35 64h2M33 65h4M46 65h1M32 66h5M41 66h2M44 66h3M31 67h1M34 67h2M38 67h4M43 67h4M34 68h2M37 68h9M33 69h13M50 69h1M33 70h8M42 70h5M32 71h7M41 71h6M49 71h1M32 72h4M41 72h6M48 72h2M40 73h9M40 74h3M45 74h4M40 75h2M45 75h3M40 76h1M45 76h3M45 77h1" />
<path stroke="#acacb4" d="M42 11h2M42 12h2M41 13h3M41 14h4M67 14h3M41 15h4M65 15h5M41 16h4M64 16h5M42 17h4M63 17h4M43 18h3M63 18h2M45 19h2M49 29h1M48 30h1M46 31h2M67 33h1M66 34h3M66 35h3M66 36h3M67 37h2M70 43h2M68 44h5M66 45h7M66 46h7M67 47h6M69 48h5M71 49h2M56 68h2M56 69h2M56 70h3M56 71h3M57 72h2M57 73h2M57 74h2M58 75h1M56 76h1M55 77h1M57 77h1M54 78h1M56 78h1M55 79h1M57 79h1" />
<path stroke="#313141" d="M67 13h3M65 14h2M70 14h1M64 15h1M63 16h1M69 16h1M62 17h1M67 17h2M61 18h2M66 18h3M61 19h1M66 19h2M60 20h1M65 20h3M60 21h1M64 21h4M59 22h1M64 22h3M59 23h1M63 23h4M63 24h4M62 25h5M62 26h5M62 27h5M62 28h5M62 29h5M62 30h4M56 31h2M62 31h4M55 32h3M63 32h3M68 32h1M38 33h3M53 33h5M63 33h3M68 33h1M38 34h4M50 34h1M52 34h5M64 34h1M69 34h1M37 35h6M47 35h1M49 35h1M51 35h1M53 35h4M69 35h1M37 36h4M47 36h2M50 36h1M52 36h5M69 36h1M36 37h4M46 37h2M49 37h1M51 37h6M70 37h1M36 38h4M46 38h10M70 38h1M35 39h5M45 39h11M70 39h1M34 40h5M45 40h11M66 40h1M71 40h1M33 41h6M44 41h12M65 41h2M31 42h8M44 42h12M65 42h3M28 43h10M43 43h14M64 43h4M72 43h1M25 44h13M43 44h14M64 44h3M21 45h4M26 45h11M43 45h14M64 45h1M25 46h12M42 46h15M23 47h14M41 47h17M25 48h3M29 48h8M40 48h18M28 49h7M38 49h21M26 50h7M36 50h23M70 50h1M24 51h7M33 51h27M65 51h4M23 52h2M27 52h4M32 52h29M25 53h7M35 53h5M41 53h20M62 53h1M23 54h6M30 54h4M39 54h23M63 54h1M22 55h5M29 55h4M35 55h28M22 56h2M28 56h4M33 56h25M59 56h5M27 57h3M32 57h27M61 57h3M27 58h2M30 58h5M36 58h23M26 59h3M30 59h3M35 59h25M24 60h6M33 60h27M23 61h9M34 61h3M38 61h23M21 62h11M37 62h25M18 63h14M33 63h4M38 63h19M58 63h4M15 64h16M32 64h3M37 64h21M59 64h4M11 65h20M32 65h1M37 65h9M47 65h5M53 65h6M61 65h2M11 66h7M19 66h11M31 66h1M37 66h4M43 66h1M47 66h5M55 66h6M12 67h17M30 67h1M32 67h2M36 67h2M42 67h1M47 67h5M14 68h2M17 68h10M29 68h5M36 68h1M46 68h5M16 69h8M27 69h6M46 69h4M15 70h7M25 70h8M41 70h1M47 70h3M13 71h7M23 71h9M39 71h2M47 71h2M11 72h8M20 72h7M28 72h4M36 72h5M47 72h1M10 73h9M20 73h5M27 73h13M9 74h11M25 74h15M43 74h2M8 75h14M24 75h4M30 75h10M42 75h3M8 76h15M28 76h12M41 76h4M7 77h16M24 77h21M46 77h1M7 78h15M23 78h23M6 79h16M23 79h22" />
<path stroke="#101010" d="M70 15h1M70 16h1M69 17h1M69 18h1M68 19h1M68 20h1M68 21h1M67 22h1M67 23h1M49 24h6M67 24h1M46 25h1M55 25h3M57 26h1M68 26h1M51 27h2M57 27h1M68 27h1M49 28h2M57 28h1M68 28h1M47 29h2M57 29h1M68 29h1M46 30h2M57 30h1M68 30h1M45 31h1M58 31h1M67 31h1M44 32h1M58 32h1M66 32h2M43 33h1M58 33h1M66 33h1M42 34h1M57 34h1M65 34h1M57 35h1M64 35h1M41 36h1M57 36h1M57 37h1M56 38h1M56 39h1M56 40h1M70 40h1M56 41h1M70 41h2M56 42h2M71 42h1M57 43h1M57 44h1M73 44h2M57 45h1M73 45h1M75 45h1M40 46h1M57 46h2M75 46h1M39 47h2M58 47h1M65 47h2M73 47h1M75 47h1M37 48h3M58 48h1M63 48h2M67 48h2M74 48h1M25 49h3M35 49h3M59 49h1M63 49h2M69 49h2M73 49h2M24 50h2M33 50h3M59 50h1M64 50h1M67 50h1M69 50h1M71 50h3M23 51h1M31 51h2M60 51h1M71 51h2M22 52h1M31 52h1M61 52h1M69 52h2M22 53h2M32 53h3M61 53h1M67 53h3M22 54h1M29 54h1M34 54h4M62 54h1M64 54h3M21 55h1M27 55h2M33 55h2M63 55h1M21 56h1M24 56h3M32 56h1M58 56h1M64 56h1M21 57h3M30 57h2M59 57h2M64 57h1M29 58h1M59 58h5M29 59h1M60 59h1M30 60h3M60 60h1M32 61h2M61 61h1M32 62h4M62 62h1M32 63h1M57 63h1M62 63h1M31 64h1M58 64h1M63 64h1M31 65h1M52 65h1M59 65h2M63 65h1M30 66h1M53 66h2M61 66h2M29 67h1M55 67h6M27 68h2M58 68h1M14 69h2M24 69h3M58 69h1M13 70h2M22 70h3M59 70h1M11 71h2M20 71h3M59 71h1M10 72h1M19 72h1M59 72h1M9 73h1M19 73h1M59 73h1M8 74h1M20 74h3M59 74h1M7 75h1M22 75h2M59 75h1M7 76h1M23 76h2M59 76h1M6 77h1M23 77h1M59 77h1M6 78h1M22 78h1M58 78h1M5 79h1M22 79h1M58 79h1" />
<path stroke="#202029" d="M39 17h1M39 18h1M39 19h1M48 19h1M39 20h1M49 20h1M39 21h1M50 21h1M39 22h1M50 22h1M40 23h1M51 23h1M40 24h1M40 25h1M47 25h2M67 25h1M41 26h1M43 26h3M53 26h3M41 27h3M53 27h1M41 28h1M51 28h1M40 29h1M50 29h1M39 30h1M49 30h1M38 31h1M48 31h1M38 32h1M47 32h1M37 33h1M47 33h1M37 34h1M46 34h1M36 35h1M46 35h1M36 36h1M45 36h2M35 37h1M40 37h1M45 37h1M35 38h1M40 38h1M44 38h2M34 39h1M40 39h1M44 39h1M33 40h1M39 40h1M43 40h2M31 41h2M39 41h1M43 41h1M28 42h3M39 42h1M43 42h1M25 43h3M38 43h1M42 43h1M21 44h4M38 44h1M42 44h1M20 45h1M25 45h1M37 45h2M41 45h2M20 46h5M37 46h1M41 46h1M21 47h2M37 47h1M23 48h2M28 48h1M25 52h2M24 53h1M40 53h1M38 54h1M27 56h1M26 57h1M25 58h2M35 58h1M24 59h2M33 59h2M23 60h1M21 61h2M37 61h1M18 62h3M36 62h1M15 63h3M11 64h4M10 65h1M10 66h1M18 66h1M52 66h1M11 67h1M52 67h1M12 68h2M16 68h1M51 68h1M51 69h1M50 70h1M50 71h1M27 72h1M50 72h1M25 73h2M49 73h1M23 74h2M49 74h1M28 75h2M48 75h1M25 76h3M48 76h1M47 77h1M46 78h1M45 79h1" />
<path stroke="#948b9c" d="M40 17h2M40 18h3M65 18h1M40 19h5M47 19h1M62 19h4M40 20h9M61 20h4M40 21h10M61 21h3M40 22h10M60 22h4M41 23h10M60 23h3M41 24h8M59 24h4M41 25h5M59 25h3M42 26h1M58 26h4M67 26h1M58 27h4M67 27h1M58 28h4M67 28h1M58 29h4M67 29h1M58 30h4M67 30h1M59 31h3M66 31h1M45 32h2M59 32h4M44 33h3M60 33h3M43 34h3M58 34h1M60 34h4M43 35h3M58 35h2M61 35h3M42 36h3M58 36h3M63 36h2M41 37h4M58 37h9M41 38h3M57 38h12M41 39h3M57 39h11M40 40h3M57 40h9M67 40h1M40 41h3M57 41h8M67 41h1M40 42h3M58 42h7M39 43h3M58 43h6M68 43h1M39 44h3M58 44h6M67 44h1M39 45h2M58 45h6M65 45h1M38 46h2M59 46h7M38 47h1M59 47h5M59 48h4M60 49h3M68 49h1M60 50h4M68 50h1M61 51h4M69 51h1M62 52h7M63 53h4M53 67h2M52 68h4M52 69h4M51 70h5M51 71h5M51 72h6M50 73h7M50 74h7M49 75h9M49 76h7M57 76h2M48 77h7M56 77h1M58 77h1M47 78h7M55 78h1M57 78h1M46 79h9M56 79h1" />
<path stroke="#de3939" d="M69 38h1M69 39h1M69 40h1M69 41h1M74 45h1" />
<path stroke="#ffc55a" d="M69 42h1" />
<path stroke="#a41010" d="M70 42h1M73 46h2M74 47h1M67 49h1" />
<path stroke="#c5cdd5" d="M66 48h1M65 49h2M65 50h1" />
</svg>