<svg xmlns="http://www.w3.org/2000/svg" viewBox="0 -0.5 80 80" shape-rendering="crispEdges">
<metadata>Made with Pixels to Svg https://codepen.io/shshaw/pen/XbxvNj</metadata>
<path stroke="#624a31" d="M42 28h3M40 29h2M45 29h1M39 30h1M45 30h1M50 30h3M35 31h1M49 31h1M52 31h2M40 32h1M53 32h1M40 33h1M40 34h1M48 34h2M51 34h2M36 35h1M49 35h1M36 36h1M35 37h1M54 37h1M53 38h1M50 39h2M52 40h2M55 41h1M22 42h1M55 42h1M21 43h1M20 44h1M58 44h1M19 45h1M59 45h1M18 46h2M60 46h1M17 47h2M60 47h2M16 49h2M61 49h1M62 51h1M15 52h2M63 53h1M14 55h2M13 56h1M15 56h1M64 57h1M6 58h1M6 59h1M13 61h2M12 62h1M11 63h1M69 66h1M21 67h1M61 67h1M69 67h1M19 68h1M21 68h1M62 68h1M19 69h1M36 69h1M50 69h1M16 70h1M36 70h1M50 70h2M63 70h2M35 71h1M37 71h1M50 71h1M52 71h1" />
<path stroke="#101010" d="M36 29h2M38 30h1M39 31h1M44 31h4M35 32h1M39 32h1M42 32h1M47 32h2M35 33h1M41 33h1M48 33h1M53 33h2M35 34h1M41 34h1M55 34h1M40 35h1M50 35h1M55 35h1M49 36h1M55 36h1M52 39h1M54 41h1M56 42h1M57 43h1M17 48h1M61 48h1M62 49h1M16 50h1M62 50h1M16 51h1M63 51h1M63 52h1M15 53h1M64 53h1M15 54h1M64 54h1M64 55h1M64 56h1M65 57h1M65 58h1M65 59h1M6 60h1M65 60h1M7 61h2M65 61h1M8 62h4M65 62h1M65 63h1M66 64h1M10 65h1M67 65h1M10 66h1M68 66h1M10 67h1M22 67h1M70 67h1M10 68h2M20 68h1M71 68h1M11 69h2M17 69h2M63 69h1M71 69h1M13 70h3M35 70h1M72 70h1M34 71h1M64 71h2M72 71h1" />
<path stroke="#eec58b" d="M42 29h3M40 30h1M37 32h1M39 33h1M44 34h1M42 35h1M34 38h1M34 39h1M33 41h1M30 44h1M24 48h1M10 57h4M8 58h6M7 59h8M7 60h8M9 61h4M15 61h2M13 62h4M12 63h6M12 64h8M11 65h10M11 66h9M11 67h7M13 68h3" />
<path stroke="#946a31" d="M35 30h1M43 31h1M43 32h1M36 34h1M35 36h1M40 36h1M32 37h3M22 43h1M21 44h1M20 45h1M10 56h3M7 57h3M7 58h1M15 60h2M10 64h2M23 66h1M22 68h1M13 69h1M16 69h1M21 69h1M20 70h2M20 71h1M51 71h1" />
<path stroke="#ffe6ac" d="M36 30h2M36 31h3M50 31h2M38 32h1M44 32h3M52 32h1M42 33h6M42 34h2M33 38h1M32 39h2M32 40h2M31 41h2M30 42h3M23 43h2M28 43h4M22 44h8M21 45h8M20 46h8M19 47h1M21 47h5M18 48h1M20 48h1M22 48h2M19 49h1M21 49h1M18 50h1M20 50h1" />
<path stroke="#d5a45a" d="M41 30h4M40 31h3M36 32h1M41 32h1M49 32h3M36 33h3M49 33h4M37 34h3M45 34h3M50 34h1M53 34h2M37 35h3M41 35h1M43 35h6M51 35h4M37 36h3M41 36h8M50 36h5M36 37h18M32 38h1M35 38h18M35 39h15M34 40h18M34 41h20M33 42h22M32 43h25M31 44h27M29 45h30M28 46h18M51 46h9M20 47h1M26 47h18M52 47h8M19 48h1M21 48h1M29 48h14M53 48h8M18 49h1M20 49h1M22 49h1M30 49h13M53 49h8M17 50h1M19 50h1M21 50h1M31 50h11M54 50h8M17 51h4M31 51h11M54 51h8M17 52h4M31 52h11M54 52h9M16 53h4M31 53h11M54 53h9M16 54h4M31 54h12M53 54h11M16 55h4M30 55h13M53 55h11M14 56h1M16 56h4M30 56h14M52 56h12M14 57h7M29 57h17M50 57h14M14 58h8M27 58h38M15 59h50M17 60h21M40 60h25M17 61h19M41 61h24M17 62h18M42 62h23M18 63h16M42 63h23M20 64h14M42 64h24M21 65h14M41 65h26M20 66h3M24 66h12M40 66h28M18 67h3M23 67h38M62 67h7M12 68h1M16 68h3M23 68h39M63 68h8M14 69h2M22 69h14M37 69h13M51 69h12M64 69h7M22 70h13M37 70h13M52 70h11M65 70h7M21 71h13M38 71h12M53 71h11M66 71h6" />
<path stroke="#415231" d="M30 38h2M27 39h3M25 40h2M24 41h1M23 42h1M14 71h1" />
<path stroke="#8bc583" d="M30 39h2M27 40h5M25 41h6M24 42h6M25 43h3" />
<path stroke="#5a834a" d="M46 46h5M44 47h8M25 48h4M43 48h10M23 49h7M43 49h10M22 50h9M42 50h12M21 51h10M42 51h12M21 52h10M42 52h12M20 53h11M42 53h12M20 54h11M43 54h10M20 55h10M43 55h10M20 56h10M44 56h8M21 57h8M46 57h4M22 58h5M38 60h2M36 61h5M35 62h7M34 63h8M34 64h8M35 65h6M36 66h4M20 69h1M17 70h3M15 71h5M36 71h1" />
</svg>