<svg xmlns="http://www.w3.org/2000/svg" viewBox="0 -0.5 80 80" shape-rendering="crispEdges">
<metadata>Made with Pixels to Svg https://codepen.io/shshaw/pen/XbxvNj</metadata>
<path stroke="#bd6210" d="M34 11h7M32 12h2M41 12h1M30 13h2M42 13h1M29 14h1M28 15h1M52 15h5M27 16h1M50 16h2M57 16h1M27 17h1M38 17h1M48 17h2M26 18h1M47 18h1M59 18h1M26 19h1M46 19h1M26 20h1M45 20h1M17 21h3M25 21h1M44 21h1M15 22h2M20 22h1M25 22h1M33 22h1M43 22h1M14 23h1M25 23h1M42 23h1M57 23h1M13 24h1M24 24h1M32 24h1M41 24h1M13 25h1M24 25h1M41 25h1M12 26h1M24 26h1M31 26h1M51 26h1M12 27h1M24 27h1M49 27h1M12 28h1M11 29h1M11 30h1M11 31h1M62 31h5M60 32h2M59 33h1M57 34h2M68 34h1M56 35h2M55 36h1M53 37h2M50 38h3M64 42h1M61 43h1M57 44h1M53 45h2M49 53h2M62 53h1M51 54h1M59 54h1M46 58h1M65 60h1M50 61h1M53 62h1M61 62h1M43 66h1M30 67h1M46 68h1" />
<path stroke="#ffd58b" d="M34 12h3M29 16h5M28 17h8M27 18h10M27 19h8M28 20h5M46 20h1M45 21h4M44 22h7M45 23h7M47 24h3M16 26h3M14 27h4M13 28h4M13 29h3" />
<path stroke="#ffac6a" d="M37 12h1M34 13h3M52 16h3M51 17h5M50 18h5M35 19h1M51 19h2M27 20h1M33 20h2M26 21h8M26 22h7M15 23h2M26 23h7M43 23h2M14 24h2M25 24h7M42 24h5M50 24h2M14 25h1M25 25h7M42 25h11M25 26h6M41 26h10M18 27h1M25 27h6M40 27h9M17 28h2M40 28h8M12 29h1M16 29h2M39 29h8M12 30h6M39 30h7M12 31h5M41 31h4M12 32h4M42 32h2M12 33h3M13 34h1M13 35h1M58 35h2M56 36h4M55 37h6M53 38h8M50 39h12M48 40h14M48 41h14M48 42h14M49 43h12M49 44h8M49 45h4M48 54h3M48 55h12M48 56h12M47 57h14M47 58h14M47 59h14M49 60h11M51 61h9M54 62h5M39 63h1M38 64h3M36 65h6M24 66h6M36 66h7M24 67h6M36 67h9M25 68h6M37 68h8" />
<path stroke="#ee7b39" d="M38 12h3M32 13h2M37 13h5M30 14h12M29 15h13M28 16h1M34 16h6M55 16h2M36 17h2M50 17h1M56 17h3M48 18h2M55 18h4M47 19h4M53 19h7M47 20h13M49 21h11M17 22h3M51 22h8M17 23h4M52 23h5M16 24h5M52 24h3M15 25h6M13 26h3M19 26h1M13 27h1M62 32h5M60 33h8M59 34h9M60 35h9M60 36h9M61 37h8M61 38h8M62 39h6M62 40h6M62 41h5M62 42h2M63 53h3M60 54h7M60 55h7M60 56h7M61 57h6M61 58h6M61 59h5M60 60h5M60 61h4M59 62h2M45 68h1" />
<path stroke="#101010" d="M42 14h1M42 15h1M40 16h2M58 16h1M39 17h2M59 17h1M37 18h2M36 19h1M60 19h1M35 20h1M60 20h1M34 21h1M60 21h1M34 22h1M59 22h1M21 23h1M33 23h1M58 23h1M21 24h1M33 24h1M55 24h3M21 25h1M32 25h1M53 25h3M20 26h1M32 26h1M40 26h1M52 26h2M19 27h2M31 27h1M39 27h1M50 27h2M19 28h1M39 28h1M48 28h2M18 29h1M38 29h1M47 29h2M18 30h1M46 30h1M45 31h1M11 32h1M44 32h1M67 32h1M11 33h1M43 33h2M68 33h1M12 34h1M12 35h1M69 35h1M69 36h1M69 37h1M12 38h1M69 38h1M12 39h1M47 39h3M68 39h1M11 40h1M47 40h1M68 40h1M11 41h1M47 41h1M67 41h1M11 42h1M65 42h2M48 43h1M62 43h3M10 44h1M48 44h1M58 44h4M10 45h1M48 45h1M55 45h4M10 46h1M48 46h8M10 47h1M48 47h1M10 48h1M48 48h1M10 49h1M48 49h1M10 50h1M48 50h1M10 51h1M48 51h1M48 52h1M63 52h3M11 53h1M48 53h1M59 53h3M66 53h1M11 54h1M47 54h1M52 54h7M67 54h1M47 55h1M67 55h1M12 56h1M47 56h1M67 56h1M16 57h1M46 57h1M67 57h1M13 58h3M67 58h1M14 59h1M22 59h1M44 59h3M66 59h1M13 60h1M22 60h1M44 60h1M47 60h2M66 60h1M12 61h1M21 61h1M42 61h1M48 61h2M64 61h2M12 62h1M20 62h1M39 62h3M50 62h3M62 62h3M11 63h1M19 63h2M37 63h2M40 63h1M52 63h11M11 64h1M18 64h5M35 64h3M41 64h1M17 65h2M23 65h13M42 65h2M10 66h1M16 66h2M23 66h1M30 66h1M35 66h1M44 66h1M10 67h1M16 67h1M23 67h1M31 67h1M35 67h1M45 67h2M10 68h1M15 68h2M24 68h1M31 68h1M36 68h1M47 68h2" />
<path stroke="#62184a" d="M24 28h10M34 29h3M19 30h2M37 30h2M17 31h2M39 31h2M16 32h1M41 32h1M15 33h1M42 33h1M14 34h1M43 34h1M14 35h1M44 35h1M13 36h1M45 36h1M13 37h1M45 37h1M46 38h1M46 39h1M12 40h1M47 42h1M11 43h1M11 44h1M10 52h2M47 53h1M11 55h2M18 56h3M46 56h1M12 57h2M17 57h1M21 57h1M22 58h1M45 58h1M43 60h1M41 61h1M23 64h2M34 64h1" />
<path stroke="#944a8b" d="M21 29h3M32 31h4M34 32h7M26 33h3M36 33h6M15 34h1M27 34h6M38 34h5M27 35h8M39 35h5M26 36h11M40 36h5M14 37h1M25 37h13M41 37h4M13 38h1M24 38h15M42 38h4M13 39h1M23 39h17M42 39h4M14 40h1M16 40h1M20 40h20M43 40h4M12 41h2M15 41h1M17 41h24M43 41h4M12 42h1M14 42h1M16 42h25M44 42h3M12 43h30M44 43h4M12 44h30M44 44h4M11 45h31M45 45h3M11 46h32M45 46h3M11 47h32M45 47h3M11 48h32M45 48h3M11 49h32M45 49h3M12 50h31M45 50h3M12 51h31M45 51h3M13 52h30M45 52h3M13 53h29M45 53h2M14 54h28M44 54h3M14 55h21M40 55h2M44 55h3M13 56h1M15 56h3M21 56h12M44 56h2M14 57h2M22 57h9M35 57h4M43 57h3M23 58h7M33 58h7M42 58h3M23 59h6M32 59h7M42 59h2M23 60h6M31 60h5M41 60h2M22 61h6M31 61h3M40 61h1M21 62h7M31 62h2M21 63h7M31 63h2M25 64h4M32 64h2" />
<path stroke="#e6a4de" d="M24 29h9M21 30h15M19 31h3M31 31h1M17 32h3M16 33h2M16 34h1M21 34h6M15 35h1M19 35h7M14 36h1M17 36h9M16 37h9M15 38h8M15 39h6" />
<path stroke="#b473a4" d="M33 29h1M36 30h1M36 31h3M22 33h4M19 34h2M17 35h2M26 35h1M16 36h1M15 37h1M14 38h1M23 38h1M14 39h1M21 39h2M13 40h1M15 40h1M17 40h3M14 41h1M16 41h1M13 42h1M15 42h1M11 50h1M11 51h1M12 52h1M12 53h1M12 54h2M13 55h1M14 56h1" />
<path stroke="#ffde29" d="M22 31h7M20 32h8M18 33h3M17 34h2" />
<path stroke="#e6ac00" d="M29 31h2M28 32h6M21 33h1M29 33h7M33 34h5M16 35h1M35 35h4M15 36h1M37 36h3M38 37h3M39 38h3M40 39h2M40 40h3M41 41h2M41 42h3M42 43h2M42 44h2M42 45h3M43 46h2M43 47h2M43 48h2M43 49h2M43 50h2M43 51h2M43 52h2M42 53h3M42 54h2M35 55h5M42 55h2M33 56h11M18 57h3M31 57h4M39 57h4M16 58h6M30 58h3M40 58h2M15 59h7M29 59h3M39 59h3M17 60h5M29 60h2M36 60h5M14 61h3M18 61h3M28 61h3M34 61h6M13 62h5M19 62h1M28 62h3M33 62h6M12 63h6M28 63h3M33 63h4M12 64h6M29 64h3M14 65h3M12 66h2M15 66h1M11 67h4M11 68h4" />
<path stroke="#737373" d="M14 60h3M13 61h1M17 61h1M18 62h1M18 63h1M11 65h3M11 66h1M14 66h1M15 67h1" />
</svg>