<svg xmlns="http://www.w3.org/2000/svg" viewBox="0 -0.5 80 80" shape-rendering="crispEdges">
<metadata>Made with Pixels to Svg https://codepen.io/shshaw/pen/XbxvNj</metadata>
<path stroke="#394a7b" d="M57 3h2M56 4h1M59 4h1M56 5h1M59 5h1M55 6h1M59 6h1M54 7h1M59 7h1M54 8h1M59 8h1M53 9h1M59 9h1M52 10h1M59 10h1M52 11h1M59 11h1M51 12h1M59 12h1M50 13h1M59 13h1M49 14h1M59 14h1M49 15h1M59 15h1M48 16h1M59 16h1M47 17h1M51 17h1M55 17h1M59 17h1M45 18h2M50 18h1M55 18h1M59 18h1M40 19h5M48 19h2M54 19h1M59 19h1M36 20h4M47 20h2M54 20h1M59 20h1M34 21h2M55 21h1M59 21h1M32 22h2M57 22h3M31 23h1M59 23h2M30 24h1M61 24h2M29 25h1M63 25h1M28 26h1M64 26h1M28 27h1M65 27h1M27 28h1M66 28h1M27 29h1M67 29h1M67 31h1M66 32h2M65 33h1M67 33h2M67 34h2M64 35h1M68 35h1M69 36h2M69 37h2M69 38h2M27 39h1M69 39h2M69 40h2M28 41h1M69 41h2M64 42h1M68 42h1M65 44h1M66 45h1M39 46h1M37 47h1M49 48h1M35 50h1M50 50h1M21 51h3M20 52h1M24 52h3M20 53h1M22 53h2M27 53h4M20 54h2M25 54h1M31 54h3M17 55h3M14 56h3M12 57h2M10 58h2M15 58h1M43 58h1M52 58h1M9 59h1M47 59h1M53 60h1M32 62h1M38 62h1M54 62h1M55 63h1M56 64h1M57 65h1M52 66h1M58 66h1M59 67h2M57 68h1M61 68h1M62 69h1" />
<path stroke="#73739c" d="M57 4h1M57 5h1M56 6h2M55 7h3M55 8h3M54 9h4M53 10h5M53 11h4M52 12h5M51 13h6M50 14h7M50 15h7M49 16h7M49 17h1M52 17h3M48 18h1M52 18h1M54 18h1M45 19h1M47 19h1M51 19h1M53 19h1M55 19h1M50 20h1M52 20h1M55 20h1M53 21h2M37 23h1M50 23h1M34 24h1M54 24h1M32 25h1M60 27h1M37 51h1M21 53h1M35 53h1M26 54h1M55 67h1" />
<path stroke="#8383ac" d="M58 4h1M58 5h1M58 6h1M58 7h1M58 8h1M58 9h1M58 10h1M57 11h2M57 12h2M57 13h2M57 14h2M57 15h2M56 16h3M48 17h1M50 17h1M56 17h3M47 18h1M49 18h1M51 18h1M53 18h1M56 18h3M46 19h1M50 19h1M52 19h1M56 19h3M40 20h7M49 20h1M51 20h1M53 20h1M56 20h3M36 21h17M56 21h3M34 22h23M32 23h5M51 23h8M31 24h3M55 24h6M30 25h2M57 25h6M29 26h2M59 26h5M29 27h1M61 27h4M28 28h1M62 28h4M63 29h4M64 30h3M65 31h2M37 49h1M36 50h2M34 51h3M21 52h3M33 52h4M24 53h3M31 53h4M27 54h4M20 55h1M17 56h4M14 57h6M16 58h2M52 59h1M52 60h1M52 61h2M53 62h1M53 63h2M54 64h2M54 65h3M55 66h3M56 67h3M58 68h3M59 69h3" />
<path stroke="#625a8b" d="M38 23h12M35 24h19M33 25h24M31 26h28M30 27h30M29 28h33M28 29h35M27 30h37M27 31h38M27 32h39M27 33h38M27 34h38M27 35h37M27 36h37M27 37h37M27 38h37M28 39h36M28 40h36M29 41h35M29 42h35M30 43h35M31 44h34M32 45h34M33 46h6M40 46h27M35 47h2M39 47h10M50 47h16M38 48h11M51 48h14M38 49h12M51 49h13M38 50h12M52 50h10M38 51h13M52 51h8M37 52h14M52 52h5M36 53h15M34 54h17M27 55h24M28 56h24M20 57h1M28 57h24M18 58h3M29 58h14M46 58h6M17 59h3M29 59h13M48 59h4M30 60h11M49 60h3M31 61h9M50 61h2M33 62h5M50 62h3M51 63h2M51 64h3M52 65h2M53 66h2" />
<path stroke="#203141" d="M26 30h1M67 30h1M26 31h1M68 31h1M26 32h1M68 32h1M26 33h1M66 33h1M69 33h1M26 34h1M65 34h2M69 34h1M26 35h1M65 35h2M69 35h1M26 36h1M64 36h2M26 37h1M64 37h2M26 38h1M64 38h2M26 39h1M64 39h2M27 40h1M64 40h2M27 41h1M64 41h2M28 42h1M65 42h2M69 42h1M28 43h2M65 43h5M29 44h2M66 44h3M30 45h2M67 45h2M31 46h2M67 46h1M32 47h3M38 47h1M49 47h1M66 47h2M34 48h4M50 48h1M65 48h2M35 49h2M50 49h1M64 49h2M33 50h2M51 50h1M62 50h3M32 51h2M51 51h1M60 51h3M30 52h3M51 52h1M57 52h4M51 53h7M22 54h3M51 54h1M21 55h6M51 55h1M21 56h7M52 56h1M21 57h7M52 57h1M12 58h3M21 58h8M44 58h2M10 59h7M20 59h9M42 59h5M53 59h1M9 60h21M41 60h8M9 61h22M40 61h10M54 61h1M9 62h23M39 62h11M10 63h40M12 64h39M14 65h38M16 66h36M16 67h37M15 68h41M15 69h44" />
<path stroke="#73b4d5" d="M67 35h1M67 36h2M67 37h1" />
<path stroke="#418bac" d="M66 36h1M66 37h1M66 38h2M66 39h2M66 40h2M66 41h3M67 42h1" />
<path stroke="#4173ac" d="M68 37h1M68 38h1M68 39h1M68 40h1" />
<path stroke="#18315a" d="M50 63h1M53 67h2M56 68h1" />
</svg>