<svg xmlns="http://www.w3.org/2000/svg" viewBox="0 -0.5 80 80" shape-rendering="crispEdges">
<metadata>Made with Pixels to Svg https://codepen.io/shshaw/pen/XbxvNj</metadata>
<path stroke="#414139" d="M26 9h5M25 10h1M31 10h3M34 11h2M36 12h1M37 13h1M37 14h1M38 21h2M40 22h2M42 23h3M45 24h2M47 25h1M49 26h1M17 29h4M14 30h3M13 31h1M12 33h1M49 33h1M50 36h1M11 39h1M51 39h1M52 42h1M8 43h1M7 45h1M53 45h1M54 48h1M49 56h1M64 56h4M51 57h1M61 57h1M68 57h2M32 58h1M54 58h1M57 58h2M71 58h1M73 59h1M72 61h1" />
<path stroke="#101010" d="M24 10h1M22 11h2M21 12h1M20 13h1M20 14h6M25 15h2M37 15h1M26 16h1M37 16h1M24 17h2M36 17h2M23 18h2M35 18h2M23 19h1M35 19h1M23 20h1M34 20h2M23 21h1M36 21h2M23 22h2M24 23h3M26 24h4M25 25h2M48 25h1M24 26h1M23 27h1M50 27h1M22 28h1M51 28h1M21 29h1M50 29h2M20 30h1M49 30h1M52 30h1M19 31h1M49 31h1M12 32h1M18 32h2M49 32h1M18 33h1M11 34h1M17 34h2M50 34h1M11 35h1M17 35h1M50 35h1M11 36h1M16 36h2M11 37h1M16 37h1M51 37h1M11 38h1M15 38h2M51 38h1M10 39h1M14 39h1M9 40h2M14 40h1M52 40h1M8 41h2M13 41h1M52 41h1M8 42h1M13 42h1M7 43h1M12 43h1M53 43h1M57 43h1M7 44h1M12 44h1M53 44h1M57 44h1M6 45h1M11 45h2M57 45h1M6 46h1M11 46h1M54 46h1M57 46h1M6 47h1M10 47h2M54 47h1M6 48h1M10 48h1M6 49h1M9 49h2M55 49h1M6 50h2M9 50h1M44 50h1M55 50h1M7 51h3M45 51h1M55 51h1M8 52h1M45 52h2M55 52h1M61 52h1M8 53h1M46 53h2M55 53h1M60 53h2M7 54h2M47 54h2M55 54h2M59 54h2M7 55h1M48 55h2M55 55h5M7 56h1M50 56h2M54 56h2M62 56h2M7 57h1M52 57h3M59 57h2M70 57h1M7 58h1M55 58h2M72 58h1M7 59h1M32 59h1M7 60h1M32 60h1M73 60h1M7 61h1M32 61h1M73 61h1M7 62h1M32 62h2M70 62h3M7 63h2M33 63h1M68 63h3M8 64h1M33 64h1M67 64h2M8 65h1M33 65h2M66 65h2M8 66h2M34 66h1M66 66h1M9 67h1M34 67h2M66 67h1M9 68h2M35 68h2M65 68h2M10 69h2M36 69h2M65 69h1M11 70h2M37 70h2M64 70h2M12 71h2M38 71h3M62 71h3" />
<path stroke="#6a6a5a" d="M26 10h5M24 11h10M29 12h7M31 13h6M32 14h5M36 15h1M35 22h5M34 23h8M34 24h11M34 25h13M35 26h7M46 26h3M37 27h3M49 27h1M50 28h1M17 30h3M14 31h5M14 32h4M15 33h3M45 53h1M45 54h2M44 55h4M44 56h5M44 57h7M62 57h6M45 58h9M59 58h3M67 58h4M46 59h13M70 59h3M48 60h9M71 60h2M50 61h5" />
<path stroke="#52524a" d="M22 12h7M21 13h10M26 14h6M27 15h9M27 16h10M26 17h10M25 18h10M24 19h11M24 20h10M24 21h12M25 22h10M27 23h7M30 24h4M27 25h7M25 26h10M42 26h4M24 27h13M40 27h9M23 28h27M22 29h28M21 30h28M20 31h29M13 32h1M20 32h29M13 33h2M19 33h30M12 34h5M19 34h31M12 35h5M18 35h32M12 36h4M18 36h32M12 37h4M17 37h34M12 38h3M17 38h34M12 39h2M24 39h7M35 39h16M11 40h3M28 40h2M36 40h16M10 41h3M36 41h16M9 42h4M36 42h16M9 43h3M36 43h17M8 44h4M15 44h7M35 44h18M8 45h3M13 45h12M33 45h20M7 46h4M12 46h15M33 46h21M7 47h3M12 47h15M33 47h21M7 48h3M11 48h17M32 48h22M7 49h2M11 49h44M8 50h1M10 50h34M45 50h10M10 51h35M46 51h9M9 52h14M27 52h18M47 52h8M18 53h4M28 53h17M48 53h7M28 54h17M49 54h6M28 55h16M50 55h5M28 56h16M52 56h2M10 57h3M27 57h17M8 58h9M26 58h6M33 58h12M62 58h5M8 59h12M26 59h6M33 59h13M59 59h11M8 60h12M26 60h6M33 60h15M57 60h14M8 61h12M26 61h6M33 61h17M55 61h17M8 62h13M25 62h7M34 62h36M9 63h24M34 63h34M9 64h24M34 64h33M9 65h24M35 65h31M10 66h24M35 66h31M10 67h24M36 67h30M11 68h24M37 68h28M12 69h24M38 69h27M13 70h24M39 70h25M14 71h24M41 71h21" />
<path stroke="#ded5ac" d="M50 30h2M50 31h2M50 32h3M50 33h3M51 34h2M51 35h3M51 36h4M52 37h3M52 38h4M16 39h7M31 39h4M52 39h5M15 40h12M30 40h6M53 40h4M14 41h22M53 41h4M14 42h22M53 42h4M13 43h23M54 43h3M13 44h1M23 44h12M54 44h3M26 45h7M54 45h3M27 46h6M55 46h2M27 47h6M55 47h2M28 48h4M55 48h2M56 49h1M56 50h2M56 51h3M23 52h4M56 52h5M10 53h7M22 53h6M56 53h4M9 54h19M57 54h2M8 55h20M8 56h20M8 57h1M14 57h13M18 58h8M20 59h6M20 60h6M20 61h6M21 62h4" />
<path stroke="#ffffe6" d="M52 31h1M53 32h1M53 33h1M53 34h2M54 35h1M55 36h1M55 37h1M57 48h1M57 49h2M58 50h2M59 51h2" />
<path stroke="#6a5a52" d="M53 31h1M54 32h1M54 33h1M55 34h1M55 35h1M56 36h1M56 37h1M56 38h1M57 39h1M57 40h1M57 41h1M57 42h1M57 47h1M58 48h1M59 49h1M60 50h1M61 51h1" />
<path stroke="#8b8b7b" d="M15 39h1M14 44h1" />
<path stroke="#948b73" d="M23 39h1M27 40h1M22 44h1M25 45h1M9 53h1M17 53h1M9 57h1M13 57h1M17 58h1" />
</svg>