<svg xmlns="http://www.w3.org/2000/svg" viewBox="0 -0.5 80 80" shape-rendering="crispEdges">
<metadata>Made with Pixels to Svg https://codepen.io/shshaw/pen/XbxvNj</metadata>
<path stroke="#4a73b4" d="M43 19h8M40 20h3M51 20h3M54 21h2M56 22h1M36 23h2M35 24h4M50 24h2M34 25h7M47 25h7M34 26h21M33 27h23M32 28h25M32 29h25M31 30h27M31 31h28M30 32h30M30 33h33M29 34h34M29 35h34M28 36h32M61 36h2M28 37h32M27 38h32M27 39h32M27 40h32M26 41h33M26 42h33M26 43h32M25 44h33M25 45h33M24 46h34M23 47h35M28 48h30M31 49h27M33 50h24M34 51h23M35 52h21M35 53h21M36 54h20M36 55h19M36 56h15M54 56h1M36 57h15M35 58h12M48 58h2M35 59h12M49 59h1M34 60h12M49 60h1M33 61h13M49 61h1M31 62h15M49 62h2M29 63h18M49 63h2" />
<path stroke="#7bc5ff" d="M43 20h8M40 21h14M39 22h17M38 23h19M40 24h9M53 24h5M54 25h4M55 26h4M56 27h3M57 28h3M58 29h2M58 30h3M59 31h3M60 32h1" />
<path stroke="#4a5273" d="M38 21h2M36 22h2M35 23h1M57 23h1M34 24h1M58 24h1M33 25h1M58 25h1M33 26h1M59 26h1M22 27h1M59 27h1M22 28h1M60 28h1M22 29h1M60 29h1M22 30h1M61 30h1M22 31h1M62 31h1M22 32h1M62 32h1M22 33h1M63 33h1M22 34h1M22 35h2M23 36h1M60 36h1M23 37h1M61 37h1M23 38h2M24 39h1M20 47h3M18 48h2M16 49h2M12 51h1M12 52h1M8 54h1M8 55h1M5 56h1M4 57h2M3 58h1M2 59h1M1 60h1M1 61h1M0 62h1M59 62h1M0 63h1M59 63h1" />
<path stroke="#5a94de" d="M38 22h1M39 24h1M49 24h1M52 24h1M41 25h6M57 29h1M61 32h1M20 48h8M18 49h13M16 50h17M14 51h20M13 52h22M11 53h24M10 54h26M9 55h27M7 56h29M6 57h30M4 58h31M3 59h32M2 60h32M2 61h31M55 61h1M1 62h30M55 62h1M1 63h28M54 63h3" />
<path stroke="#7b83ac" d="M22 26h4M26 27h3M29 28h2M74 30h6M23 31h3M68 31h6M27 32h2M63 32h5M24 35h1M26 36h1M69 36h9M67 39h2M70 40h4M75 41h2M61 42h1M67 42h1M61 43h1M64 43h1M68 43h1M64 44h1M69 44h1M65 45h1M70 45h1M65 46h1M71 46h1M72 47h1M66 48h1M66 49h1M67 50h1" />
<path stroke="#dedeff" d="M23 27h3M23 28h6M23 29h8M23 30h7M27 31h3M74 31h5M23 32h3M68 32h11M23 33h6M64 33h15M23 34h5M64 34h15M26 35h2M64 35h15M24 36h1M64 36h4M24 37h3M63 37h15M25 38h1M62 38h16M25 39h1M62 39h5M70 39h8M62 40h7M75 40h2M62 41h12M62 42h5M68 42h9M62 43h2M65 43h3M69 43h7M62 44h2M65 44h4M70 44h6M62 45h3M66 45h4M71 45h4M63 46h2M66 46h5M72 46h3M63 47h2M67 47h5M73 47h1M63 48h3M67 48h6M63 49h3M67 49h5M64 50h3M68 50h3M64 51h3M68 51h1M64 52h3" />
<path stroke="#101010" d="M32 27h1M31 28h1M31 29h1M30 30h1M30 31h1M79 31h1M29 32h1M79 32h1M29 33h1M79 33h1M28 34h1M63 34h1M79 34h1M28 35h1M63 35h1M79 35h1M27 36h1M63 36h1M78 36h1M27 37h1M62 37h1M78 37h1M26 38h1M61 38h1M78 38h1M26 39h1M61 39h1M78 39h1M25 40h2M61 40h1M77 40h1M25 41h1M60 41h2M77 41h1M25 42h1M60 42h1M77 42h1M24 43h2M59 43h2M76 43h1M24 44h1M59 44h1M61 44h1M76 44h1M24 45h1M59 45h1M61 45h1M75 45h1M23 46h1M59 46h1M62 46h1M75 46h1M62 47h1M74 47h1M62 48h1M73 48h1M62 49h1M72 49h1M14 50h2M63 50h1M71 50h1M13 51h1M63 51h1M67 51h1M69 51h2M11 52h1M63 52h1M67 52h2M10 53h1M61 53h1M63 53h4M9 54h1M61 54h1M7 55h1M61 55h1M6 56h1M61 56h1M61 57h1M60 58h2M60 59h1M60 60h1M60 61h1" />
<path stroke="#bdbdd5" d="M26 31h1M26 32h1M25 35h1M25 36h1M68 36h1M69 39h1M69 40h1M74 40h1M74 41h1M65 47h2" />
<path stroke="#eecdac" d="M60 37h1M60 38h1M59 39h2M59 40h2M59 41h1M59 42h1M58 46h1M58 47h2M58 48h2M58 49h2M58 50h2M57 51h4M57 52h4M56 53h5M56 54h5M56 55h5M52 56h1M55 56h6M51 57h10M51 58h9M47 59h1M51 59h9M47 60h2M51 60h9M47 61h2M51 61h4M56 61h4M47 62h2M51 62h3M57 62h2M47 63h1M52 63h2M57 63h2" />
<path stroke="#c5b48b" d="M59 38h1M58 43h1M58 44h1M58 45h1M57 50h1M56 52h1M55 55h1M51 56h1M53 56h1M47 58h1M50 58h1M48 59h1M50 59h1M46 60h1M50 60h1M46 61h1M50 61h1M46 62h1M54 62h1M56 62h1M48 63h1M51 63h1" />
<path stroke="#7b6252" d="M60 47h1M60 48h1M60 49h1M60 50h1M61 51h1M61 52h1" />
</svg>