<svg xmlns="http://www.w3.org/2000/svg" viewBox="0 -0.5 80 80" shape-rendering="crispEdges">
<metadata>Made with Pixels to Svg https://codepen.io/shshaw/pen/XbxvNj</metadata>
<path stroke="#525273" d="M34 18h1M32 19h1M31 20h1M30 21h1M29 22h1M28 23h1M27 24h1M27 25h1M26 26h1M26 27h1M26 28h1M18 29h1M25 29h1M17 30h1M25 30h1M16 31h1M25 31h1M16 32h1M25 32h1M14 33h2M25 33h1M61 33h1M13 34h1M15 34h1M24 34h1M61 34h1M12 35h1M15 35h1M24 35h1M61 35h1M11 36h1M15 36h1M24 36h1M11 37h1M15 37h1M24 37h1M10 38h1M15 38h1M24 38h1M9 39h1M15 39h1M24 39h1M9 40h1M16 40h1M24 40h1M8 41h1M16 41h1M24 41h1M48 41h1M8 42h1M16 42h1M47 42h1M7 43h1M16 43h1M46 43h1M7 44h1M16 44h1M44 44h1M6 45h2M16 45h1M43 45h1M5 46h1M17 46h1M42 46h1M4 47h1M17 47h1M41 47h1M17 48h1M40 48h1M17 49h1M39 49h1M17 50h1M38 50h1M18 51h1M37 51h1M18 52h1M36 52h1M7 53h1M9 53h1M19 53h1M35 53h1M19 54h1M35 54h1M74 54h1M5 55h2M20 55h1M72 55h2M70 56h2M67 57h3M63 58h4M58 59h5M50 60h8M72 61h1M6 62h1" />
<path stroke="#7b7383" d="M35 18h7M33 19h1M42 19h2M44 20h1M45 21h1M27 22h2M46 22h1M25 23h2M47 23h1M24 24h1M28 24h1M49 24h2M23 25h1M51 25h1M22 26h1M27 26h1M38 26h1M53 26h1M20 27h1M37 27h1M55 27h1M19 28h1M36 28h1M56 28h1M26 29h1M35 29h1M57 29h1M34 30h1M58 30h1M33 31h1M59 31h1M60 32h1M32 33h1M25 34h1M31 34h1M31 35h1M58 35h3M62 35h1M56 36h2M63 36h1M30 37h1M54 37h2M64 37h2M29 38h1M52 38h2M66 38h1M16 39h1M29 39h1M51 39h1M67 39h1M50 40h1M68 40h1M28 41h1M49 41h1M68 41h1M24 42h1M27 42h1M69 42h1M25 43h2M69 43h1M45 44h1M69 44h3M17 45h1M72 45h2M7 46h1M64 46h1M74 46h1M7 47h2M62 47h1M74 47h1M8 48h1M61 48h1M75 48h1M8 49h1M59 49h1M8 50h1M18 50h1M58 50h1M9 51h1M56 51h1M9 52h1M19 52h1M55 52h1M53 53h1M20 54h1M52 54h1M51 55h1M71 55h1M19 56h1M27 56h1M50 56h1M69 56h1M49 57h1M66 57h1M18 58h1M35 58h1M48 58h1M62 58h1M9 59h1M48 59h1M57 59h1M11 60h1M17 60h1M36 60h1M49 60h1" />
<path stroke="#eeeed5" d="M34 19h8M32 20h12M31 21h8M43 21h2M30 22h7M44 22h2M27 23h1M30 23h5M25 24h2M30 24h4M42 24h6M24 25h3M30 25h2M45 25h6M23 26h3M47 26h5M22 27h2M49 27h5M50 28h6M52 29h5M53 30h5M54 31h5M55 32h5M58 36h5M59 37h5M61 38h5M62 39h5M63 40h5M64 41h4M65 42h4M65 43h4M66 44h2M68 45h4M67 46h7M66 47h8M65 48h9M64 49h9M63 50h7M63 51h4" />
<path stroke="#cdcdcd" d="M39 21h4M37 22h7M29 23h1M35 23h7M29 24h1M34 24h6M28 25h2M32 25h7M40 25h5M28 26h10M39 26h8M24 27h2M27 27h10M38 27h11M20 28h6M27 28h9M37 28h13M19 29h6M27 29h8M36 29h16M18 30h7M26 30h8M35 30h18M18 31h7M26 31h7M34 31h20M17 32h8M26 32h6M33 32h22M17 33h8M26 33h6M33 33h24M16 34h8M26 34h5M32 34h22M13 35h1M16 35h8M25 35h6M32 35h21M13 36h1M16 36h8M25 36h5M31 36h20M12 37h2M16 37h8M25 37h5M31 37h19M56 37h3M11 38h3M16 38h8M25 38h4M30 38h19M54 38h7M11 39h3M17 39h7M25 39h4M30 39h17M53 39h9M10 40h4M17 40h7M25 40h3M29 40h17M51 40h12M9 41h5M17 41h7M25 41h3M29 41h16M50 41h14M9 42h6M17 42h7M26 42h1M28 42h15M49 42h16M9 43h6M17 43h8M27 43h15M47 43h18M8 44h7M17 44h24M46 44h20M8 45h7M18 45h22M45 45h21M6 46h1M8 46h7M18 46h21M44 46h20M66 46h1M5 47h2M9 47h6M18 47h20M43 47h19M64 47h2M5 48h3M9 48h7M18 48h19M42 48h18M62 48h3M74 48h1M5 49h3M9 49h7M18 49h18M41 49h18M61 49h3M73 49h2M5 50h3M9 50h7M19 50h16M40 50h17M59 50h4M70 50h5M5 51h3M10 51h6M28 51h6M39 51h17M58 51h5M67 51h8M6 52h3M10 52h7M38 52h16M56 52h19M10 53h6M39 53h14M55 53h20M6 54h1M9 54h7M40 54h12M53 54h21M7 55h8M41 55h10M52 55h19M7 56h8M41 56h9M51 56h18M72 56h1M7 57h7M42 57h7M50 57h16M70 57h3M8 58h6M43 58h5M49 58h13M67 58h6M10 59h3M43 59h5M50 59h7M63 59h10M6 60h1M12 60h1M43 60h6M58 60h15M6 61h2M44 61h28M7 62h3M44 62h28" />
<path stroke="#acacb4" d="M42 23h5M40 24h2M48 24h1M39 25h1M52 26h1M21 27h1M54 27h1M17 31h1M32 32h1M16 33h1M57 33h4M14 34h1M54 34h7M14 35h1M53 35h5M12 36h1M14 36h1M30 36h1M51 36h5M14 37h1M50 37h4M14 38h1M49 38h3M10 39h1M14 39h1M47 39h4M52 39h1M14 40h2M28 40h1M46 40h4M14 41h2M45 41h3M15 42h1M25 42h1M43 42h4M48 42h1M8 43h1M15 43h1M42 43h4M15 44h1M41 44h3M68 44h1M15 45h1M40 45h3M44 45h1M66 45h2M15 46h2M39 46h3M43 46h1M65 46h1M15 47h2M38 47h3M42 47h1M63 47h1M16 48h1M37 48h3M41 48h1M60 48h1M16 49h1M36 49h3M40 49h1M60 49h1M16 50h1M35 50h3M39 50h1M57 50h1M8 51h1M16 51h2M19 51h9M34 51h3M38 51h1M57 51h1M17 52h1M20 52h16M37 52h1M54 52h1M8 53h1M16 53h3M20 53h15M36 53h3M54 53h1M16 54h3M21 54h14M36 54h4M15 55h5M21 55h13M35 55h6M15 56h4M28 56h6M35 56h6M14 57h5M35 57h7M6 58h1M14 58h4M36 58h7M6 59h2M13 59h5M36 59h7M49 59h1M7 60h2M13 60h4M37 60h6M8 61h3M37 61h7M10 62h7M37 62h7" />
<path stroke="#181818" d="M4 48h1M4 49h1M75 49h1M4 50h1M75 50h1M4 51h1M75 51h1M4 52h2M75 52h1M5 53h2M75 53h1M5 54h1M7 54h2M75 54h1M34 55h1M74 55h1M6 56h1M20 56h7M34 56h1M73 56h1M6 57h1M19 57h1M27 57h8M73 57h1M5 58h1M7 58h1M19 58h1M34 58h1M73 58h1M5 59h1M8 59h1M18 59h1M35 59h1M73 59h1M5 60h1M9 60h2M18 60h1M35 60h1M73 60h1M5 61h1M11 61h7M36 61h1M73 61h1M5 62h1M17 62h1M36 62h1M72 62h1" />
<path stroke="#625a4a" d="M20 57h7M20 58h14M19 59h16M19 60h16M18 61h18M18 62h18" />
</svg>