<svg xmlns="http://www.w3.org/2000/svg" viewBox="0 -0.5 80 80" shape-rendering="crispEdges">
<metadata>Made with Pixels to Svg https://codepen.io/shshaw/pen/XbxvNj</metadata>
<path stroke="#101010" d="M61 8h1M61 9h1M61 10h1M61 11h1M61 12h1M60 13h1M63 13h1M63 14h1M63 15h1M62 16h1M62 17h1M36 18h1M35 19h1M35 20h1M34 21h1M65 21h2M34 22h1M47 22h1M49 22h2M65 22h1M47 23h2M64 23h1M33 24h1M45 24h2M63 24h2M33 25h1M43 25h2M63 25h1M33 26h1M42 26h1M62 26h1M33 27h1M41 27h1M62 27h1M33 28h1M40 28h1M61 28h1M33 29h1M39 29h1M61 29h1M33 30h1M38 30h1M61 30h1M34 31h1M38 31h1M60 31h1M74 31h1M34 32h1M37 32h1M60 32h1M74 32h1M35 33h1M37 33h1M60 33h1M36 34h1M60 34h1M73 34h1M36 35h1M60 35h1M35 36h1M60 36h1M72 36h1M35 37h1M60 37h1M72 37h1M35 38h1M61 38h1M70 38h2M35 39h1M61 39h1M69 39h1M35 40h1M62 40h1M67 40h2M33 41h1M35 41h1M63 41h5M35 42h1M67 42h1M35 43h1M67 43h1M36 44h1M67 44h1M70 44h1M22 45h1M36 45h1M68 45h1M70 45h1M22 46h1M37 46h1M68 46h2M23 47h1M69 47h1M24 48h2M38 48h1M70 48h1M26 49h2M39 49h1M71 49h1M28 50h4M40 50h1M50 50h1M72 50h1M29 51h2M41 51h1M51 51h1M73 51h1M31 52h2M41 52h1M49 52h1M51 52h1M75 52h1M34 53h8M48 53h1M52 53h1M60 53h1M76 53h1M40 54h1M48 54h1M53 54h1M61 54h3M74 54h2M47 55h1M54 55h2M64 55h10M46 56h1M56 56h2M68 56h2M37 57h1M40 57h1M45 57h1M57 57h10M36 58h1M39 58h1M44 58h1M57 58h1M59 58h1M8 59h1M35 59h4M42 59h1M57 59h1M9 60h1M22 60h1M39 60h2M58 60h1M10 61h1M22 61h1M58 61h1M10 62h1M22 62h1M27 62h3M59 62h1M11 63h1M21 63h2M59 63h1M11 64h1M22 64h1M59 64h1M12 65h1M22 65h1M59 65h1M12 66h1M22 66h1M59 66h1M13 67h1M16 67h4M22 67h1M59 67h1M62 67h1M11 68h3M16 68h1M21 68h2M29 68h1M59 68h1M62 68h1M4 69h2M14 69h1M17 69h1M23 69h1M29 69h1M59 69h1M62 69h1M6 70h2M14 70h1M17 70h1M24 70h1M59 70h1M62 70h1M7 71h2M16 71h3M25 71h1M46 71h1M58 71h2M61 71h2M8 72h2M14 72h2M18 72h1M46 72h1M58 72h1M61 72h1M9 73h2M13 73h1M19 73h1M46 73h1M58 73h1M61 73h1M9 74h4M19 74h1M47 74h1M57 74h2M60 74h2M3 75h6M11 75h1M18 75h3M47 75h1M57 75h1M60 75h1M3 76h1M16 76h2M20 76h1M36 76h1M45 76h3M57 76h1M60 76h1M4 77h1M9 77h1M15 77h2M36 77h1M43 77h2M47 77h1M57 77h1M59 77h1M5 78h2M9 78h1M14 78h2M36 78h1M41 78h2M47 78h1M57 78h1M59 78h1M6 79h3M13 79h2M36 79h1M40 79h1M47 79h1M57 79h2" />
<path stroke="#313141" d="M62 9h1M62 10h1M63 11h1M63 12h1M64 13h1M60 14h1M64 14h1M59 15h1M65 15h1M58 16h1M65 16h1M65 17h1M61 18h1M65 18h1M61 19h1M65 19h1M53 20h1M60 20h1M65 20h1M51 21h2M34 39h1M34 40h1M32 42h1M30 43h2M36 43h1M27 44h3M35 44h1M23 45h4M37 45h1M36 46h1M24 47h1M37 47h2M26 48h1M37 48h1M28 49h1M38 49h1M50 49h1M32 50h1M39 50h1M31 51h5M40 51h1M49 51h1M57 51h1M33 52h2M52 52h1M58 52h1M74 52h1M53 53h1M59 53h1M61 53h1M75 53h1M54 54h1M64 54h1M73 54h1M39 55h1M56 55h1M63 55h1M38 56h1M45 56h1M58 56h2M66 56h2M44 57h1M8 58h4M43 58h1M22 59h1M41 59h1M60 59h1M60 60h1M18 61h1M11 62h1M19 62h2M26 62h1M26 63h1M12 64h1M13 66h1M4 67h7M3 68h1M14 68h1M20 68h1M6 69h1M22 69h1M29 70h1M61 70h1M29 71h1M17 72h1M19 72h1M26 72h1M11 73h1M18 73h1M27 73h1M60 73h1M20 74h1M9 75h2M17 75h1M9 76h2M19 76h1M59 76h1M20 77h2M21 78h1M58 78h1" />
<path stroke="#4a4a62" d="M62 11h1M62 12h1M61 13h2M62 14h1M60 15h1M62 15h1M64 15h1M59 16h1M61 16h1M63 16h2M57 17h1M61 17h1M63 17h2M56 18h1M62 18h3M55 19h1M62 19h3M54 20h1M61 20h4M53 21h1M60 21h5M51 22h1M58 22h7M49 23h1M58 23h6M47 24h1M57 24h6M57 25h6M43 26h2M56 26h6M42 27h2M55 27h7M41 28h3M53 28h8M40 29h3M44 29h1M52 29h9M39 30h5M45 30h1M47 30h1M49 30h12M39 31h4M44 31h1M46 31h1M48 31h12M38 32h6M45 32h15M38 33h22M37 34h23M37 35h23M36 36h24M36 37h24M36 38h25M36 39h25M36 40h26M34 41h1M36 41h27M33 42h2M36 42h31M32 43h3M37 43h30M30 44h5M37 44h28M66 44h1M27 45h9M38 45h26M65 45h1M67 45h1M23 46h13M38 46h27M66 46h1M25 47h12M39 47h25M65 47h1M27 48h10M39 48h26M29 49h9M40 49h10M51 49h13M33 50h6M41 50h9M51 50h14M36 51h4M42 51h7M50 51h1M52 51h5M58 51h8M35 52h6M42 52h7M50 52h1M53 52h5M59 52h8M42 53h6M49 53h2M54 53h5M62 53h7M41 54h7M49 54h1M55 54h6M65 54h8M40 55h7M48 55h1M57 55h6M39 56h6M47 56h1M60 56h6M38 57h2M41 57h3M46 57h1M37 58h2M40 58h3M45 58h1M58 58h1M13 59h2M23 59h1M39 59h2M43 59h1M58 59h2M10 60h1M15 60h2M24 60h1M38 60h1M41 60h1M59 60h1M11 61h2M17 61h1M25 61h1M61 61h1M12 62h3M23 62h1M61 62h1M12 63h5M23 63h2M62 63h1M13 64h7M23 64h2M27 64h1M62 64h1M13 65h8M23 65h3M62 65h1M14 66h8M23 66h4M28 66h1M62 66h1M14 67h2M20 67h2M23 67h4M28 67h1M4 68h7M15 68h1M23 68h5M7 69h7M15 69h2M18 69h1M24 69h4M30 69h3M61 69h1M8 70h6M15 70h2M18 70h4M25 70h4M30 70h4M46 70h1M58 70h1M60 70h1M9 71h7M19 71h6M26 71h3M30 71h4M60 71h1M10 72h4M16 72h1M20 72h6M27 72h8M59 72h2M12 73h1M14 73h4M20 73h7M28 73h7M47 73h1M57 73h1M59 73h1M13 74h6M21 74h15M46 74h1M59 74h1M12 75h5M21 75h15M45 75h2M58 75h2M4 76h5M11 76h5M18 76h1M21 76h15M58 76h1M5 77h4M10 77h5M17 77h3M22 77h14M58 77h1M7 78h2M10 78h4M16 78h5M22 78h14M9 79h4M15 79h21" />
<path stroke="#62627b" d="M61 14h1M61 15h1M60 16h1M58 17h3M57 18h4M56 19h5M55 20h5M54 21h6M52 22h6M50 23h8M48 24h9M45 25h12M45 26h11M44 27h11M44 28h9M43 29h1M45 29h7M44 30h1M46 30h1M48 30h1M43 31h1M45 31h1M47 31h1M44 32h1M65 44h1M64 45h1M66 45h1M65 46h1M67 46h1M64 47h1M66 47h3M65 48h5M64 49h7M65 50h7M66 51h7M67 52h7M69 53h6M9 59h4M11 60h4M23 60h1M13 61h4M23 61h2M59 61h2M15 62h4M24 62h2M60 62h1M17 63h4M25 63h1M60 63h2M20 64h2M25 64h2M60 64h2M21 65h1M26 65h2M60 65h2M27 66h1M60 66h2M27 67h1M29 67h2M60 67h2M17 68h3M28 68h1M30 68h2M60 68h2M19 69h3M28 69h1M60 69h1M22 70h2" />
<path stroke="#4a4a73" d="M39 16h2M37 17h1M44 17h1M45 18h1M46 19h1M46 20h1M68 20h2M47 21h1M67 21h1M34 23h1M44 24h1M42 25h1M41 26h1M63 26h1M75 26h1M40 27h1M75 27h1M39 28h1M62 28h1M75 28h1M38 29h1M75 29h1M34 30h1M75 30h1M37 31h1M61 31h1M35 32h1M36 33h1M73 33h2M72 35h2M71 37h1M62 39h1M63 40h1M71 41h1M71 42h1M71 43h1M69 45h1M33 60h3M30 61h3" />
<path stroke="#627bb4" d="M41 16h2M38 17h1M43 17h1M37 18h3M44 18h1M36 19h5M45 19h1M36 20h6M70 20h3M35 21h8M73 21h1M35 22h8M66 22h1M74 22h1M35 23h9M46 23h1M65 23h1M74 23h1M34 24h10M66 24h3M75 24h1M34 25h8M64 25h6M75 25h1M34 26h7M64 26h6M34 27h6M63 27h8M34 28h5M63 28h8M34 29h4M62 29h9M35 30h3M62 30h9M74 30h1M35 31h2M62 31h9M36 32h1M61 32h10M61 33h10M61 34h9M61 35h9M61 36h8M61 37h8M62 38h6M63 39h6M71 39h1M64 40h3M71 40h1M70 42h1M68 43h3M68 44h2M51 53h1M50 54h3M49 55h5M48 56h8M47 57h10M46 58h11M44 59h13M36 60h2M42 60h13M57 60h1M33 61h21M30 62h1M33 62h21M27 63h2M35 63h18M36 64h17M36 65h17M35 66h18M33 67h21M32 68h21M33 69h21M55 69h1M58 69h1M34 70h12M47 70h6M54 70h1M56 70h1M34 71h12M47 71h7M55 71h1M57 71h1M35 72h11M47 72h11M35 73h11M48 73h9M36 74h10M48 74h9M36 75h9M48 75h9M37 76h8M48 76h9M37 77h6M48 77h9M37 78h4M48 78h9M37 79h3M48 79h9" />
<path stroke="#7bacf6" d="M39 17h4M40 18h4M41 19h4M42 20h4M43 21h4M68 21h5M43 22h4M67 22h7M44 23h2M66 23h8M65 24h1M69 24h6M70 25h5M70 26h5M71 27h4M71 28h4M71 29h4M71 30h3M71 31h3M71 32h3M71 33h2M70 34h3M70 35h2M69 36h3M69 37h2M68 38h2M70 39h1M69 40h2M68 41h3M68 42h2M55 60h2M54 61h4M31 62h2M54 62h5M29 63h6M53 63h6M28 64h8M53 64h6M28 65h8M53 65h6M29 66h6M53 66h6M31 67h2M54 67h5M53 68h6M54 69h1M56 69h2M53 70h1M55 70h1M57 70h1M54 71h1M56 71h1" />
</svg>