<svg xmlns="http://www.w3.org/2000/svg" viewBox="0 -0.5 80 80" shape-rendering="crispEdges">
<metadata>Made with Pixels to Svg https://codepen.io/shshaw/pen/XbxvNj</metadata>
<path stroke="#627bb4" d="M59 10h1M56 11h3M30 12h1M54 12h2M62 12h3M26 13h1M31 13h1M52 13h2M60 13h5M26 14h1M34 14h1M51 14h1M58 14h6M26 15h2M56 15h8M26 16h3M50 16h1M54 16h10M26 17h4M53 17h10M26 18h5M49 18h1M52 18h11M27 19h6M39 19h1M49 19h1M51 19h11M27 20h8M38 20h2M49 20h13M27 21h12M49 21h12M28 22h10M42 22h7M50 22h10M28 23h8M39 23h10M50 23h10M29 24h6M37 24h21M31 25h3M36 25h21M35 26h20M35 27h17M34 28h21M34 29h22M34 30h22M34 31h21M34 32h20M35 33h19M36 34h17M35 35h18M31 36h1M33 36h1M35 36h13M50 36h3M31 37h1M36 37h12M52 37h1M37 38h10M51 38h1M34 39h12M52 39h1M32 40h14M27 41h1M30 41h17M29 42h19M26 43h1M28 43h19M48 43h1M52 43h3M26 44h22M49 44h1M51 44h4M25 45h24M50 45h6M25 46h24M50 46h7M25 47h24M51 47h6M25 48h24M51 48h7M26 49h22M51 49h7M59 49h1M25 50h13M39 50h9M52 50h7M24 51h10M35 51h3M39 51h8M52 51h8M24 52h10M35 52h3M39 52h6M52 52h9M24 53h1M29 53h6M36 53h2M39 53h5M53 53h9M23 54h1M30 54h5M36 54h1M40 54h2M53 54h7M62 54h1M22 55h1M32 55h3M38 55h1M53 55h6M63 55h1M21 56h1M30 56h1M53 56h6M62 56h1M64 56h1M17 57h1M20 57h1M30 57h1M53 57h5M61 57h1M63 57h3M16 58h4M28 58h3M53 58h4M60 58h1M62 58h5M14 59h5M26 59h5M52 59h4M59 59h1M61 59h7M15 60h3M24 60h3M30 60h1M39 60h1M52 60h3M57 60h2M60 60h8M14 61h3M23 61h2M30 61h1M52 61h2M55 61h2M59 61h10M12 62h4M22 62h1M30 62h2M52 62h3M57 62h13M13 63h2M21 63h1M31 63h1M38 63h2M51 63h19M12 64h2M31 64h1M38 64h2M51 64h19M12 65h1M31 65h1M39 65h2M50 65h20M11 66h2M31 66h2M39 66h2M54 66h16M11 67h1M32 67h1M39 67h2M56 67h13M10 68h2M32 68h1M39 68h2M57 68h12M10 69h1M31 69h2M40 69h1M58 69h11M10 70h1M30 70h2M40 70h1M58 70h10" />
<path stroke="#4a417b" d="M60 10h5M25 12h5M25 13h1M32 13h2M25 14h1M35 14h1M64 14h2M25 15h1M36 15h1M50 15h1M37 16h1M49 16h1M38 17h1M49 17h1M63 17h1M39 18h1M48 18h1M26 19h1M40 19h1M43 19h3M62 19h1M40 20h3M39 21h1M48 21h1M61 21h1M27 22h1M49 22h1M60 22h1M36 23h1M49 23h1M28 24h1M58 24h1M29 25h2M34 25h2M57 25h1M31 26h3M55 26h1M34 27h1M52 27h2M56 27h1M55 28h1M57 30h1M55 31h1M33 32h1M54 32h1M35 34h1M53 34h1M33 35h2M32 36h1M48 36h2M30 37h1M50 37h1M29 38h1M28 39h1M27 40h1M53 40h1M26 41h1M54 42h1M47 43h1M55 43h1M48 44h1M55 44h1M24 45h1M49 45h1M56 45h1M57 46h1M49 47h1M57 47h1M49 48h1M58 48h1M25 49h1M48 49h1M58 49h1M23 50h2M38 50h1M59 50h1M22 51h2M34 51h1M38 51h1M47 51h1M60 51h1M21 52h1M34 52h1M45 52h2M61 52h1M20 53h1M25 53h1M28 53h1M35 53h1M44 53h1M46 53h1M62 53h1M19 54h1M29 54h1M38 54h2M42 54h1M44 54h1M63 54h1M18 55h1M31 55h1M42 55h1M17 56h1M35 56h1M52 56h1M63 56h1M16 57h1M36 57h1M52 57h1M62 57h1M15 58h1M52 58h1M61 58h1M51 59h1M60 59h1M14 60h1M27 60h3M36 60h1M40 60h1M51 60h1M59 60h1M68 60h1M13 61h1M25 61h2M31 61h2M37 61h1M51 61h1M57 61h2M69 61h1M21 62h1M23 62h2M51 62h1M55 62h2M12 63h1M20 63h1M22 63h1M50 63h1M70 63h1M11 64h1M14 64h1M37 64h1M40 64h1M50 64h1M70 64h1M11 65h1M32 65h2M38 65h1M41 65h1M70 65h1M10 66h1M13 66h1M33 66h1M53 66h1M70 66h1M10 67h1M53 67h1M55 67h1M69 67h1M9 68h1M12 68h1M38 68h1M56 68h1M69 68h1M9 69h1M39 69h1M57 69h1M9 70h1M68 70h1" />
<path stroke="#101010" d="M65 10h1M65 11h1M65 12h1M65 13h1M64 15h1M25 16h1M64 16h1M25 17h1M64 17h1M25 18h1M63 18h1M46 19h3M63 19h1M26 20h1M48 20h1M62 20h1M26 21h1M62 21h1M61 22h1M27 23h1M60 23h1M35 24h1M59 24h1M58 25h1M30 26h1M34 26h1M56 26h2M32 27h2M54 27h2M33 28h1M56 28h1M33 29h1M56 29h1M33 30h1M56 30h1M33 31h1M34 33h1M54 33h2M57 33h1M34 34h1M56 34h2M53 35h1M53 36h1M51 37h1M53 37h1M52 38h1M53 39h1M54 41h1M26 42h1M25 43h1M25 44h1M24 46h1M49 46h1M24 47h1M50 47h1M24 48h1M50 48h1M24 49h1M49 49h2M48 50h2M51 50h1M48 51h1M51 51h1M38 52h1M47 52h1M51 52h1M26 53h2M38 53h1M45 53h1M52 53h1M24 54h2M28 54h1M35 54h1M43 54h1M52 54h1M23 55h1M29 55h2M35 55h1M39 55h3M52 55h1M64 55h1M22 56h1M31 56h4M39 56h1M65 56h1M21 57h1M31 57h1M39 57h1M66 57h1M20 58h1M31 58h1M36 58h1M39 58h1M67 58h1M19 59h1M31 59h1M36 59h1M39 59h1M68 59h1M18 60h1M31 60h1M69 60h1M17 61h1M40 61h1M70 61h1M16 62h1M32 62h1M37 62h1M40 62h1M70 62h1M15 63h1M32 63h1M37 63h1M40 63h1M71 63h1M20 64h2M32 64h1M71 64h1M13 65h1M49 65h1M71 65h1M38 66h1M41 66h1M49 66h4M71 66h1M12 67h1M22 67h1M33 67h1M38 67h1M41 67h1M54 67h1M70 67h1M22 68h1M33 68h1M41 68h1M55 68h1M70 68h1M11 69h1M22 69h1M33 69h1M41 69h1M56 69h1M69 69h1M11 70h1M21 70h1M32 70h1M39 70h1M41 70h1M57 70h1M69 70h1" />
<path stroke="#8bb4ee" d="M59 11h6M56 12h6M27 13h4M54 13h6M27 14h7M52 14h6M28 15h8M51 15h5M29 16h8M51 16h3M30 17h8M50 17h3M31 18h8M50 18h2M33 19h6M50 19h1M35 20h3M43 20h5M40 21h8M38 22h4M37 23h2M36 24h1M34 36h1M32 37h4M48 37h2M30 38h7M47 38h4M29 39h5M46 39h6M28 40h4M46 40h7M28 41h2M47 41h7M27 42h2M48 42h6M27 43h1M49 43h3M50 44h1M22 52h2M21 53h3M20 54h3M37 54h1M60 54h2M19 55h3M36 55h2M59 55h4M18 56h3M36 56h3M59 56h3M18 57h2M37 57h2M58 57h3M37 58h2M57 58h3M37 59h2M56 59h3M37 60h2M55 60h2M38 61h2M54 61h1M38 62h2" />
<path stroke="#ffffff" d="M56 31h1M56 32h1" />
<path stroke="#626262" d="M57 31h1M57 32h1" />
<path stroke="#d5d5d5" d="M55 32h1M56 33h1" />
<path stroke="#73205a" d="M26 54h2M25 55h1M28 55h1M25 56h1M29 56h1M24 57h1M28 57h2M23 58h1M26 58h2M23 59h3M22 60h2M22 61h1M27 61h3M29 62h1M30 63h1M30 64h1M21 65h1M30 65h1M22 66h1M30 66h1M31 67h1M31 68h1M30 69h1M29 70h1" />
<path stroke="#b4529c" d="M26 55h2M26 56h3M25 57h3M24 58h2M25 62h4M23 63h7M22 64h8M22 65h8M23 66h7M23 67h8M23 68h8M23 69h7M22 70h7" />
</svg>