<svg xmlns="http://www.w3.org/2000/svg" viewBox="0 -0.5 80 80" shape-rendering="crispEdges">
<metadata>Made with Pixels to Svg https://codepen.io/shshaw/pen/XbxvNj</metadata>
<path stroke="#101010" d="M32 3h7M32 4h1M33 5h1M34 6h1M35 7h1M35 8h7M35 9h1M34 10h1M34 11h1M34 12h1M35 13h8M45 13h1M34 14h1M44 14h2M33 15h1M33 16h1M33 17h1M33 18h1M37 18h6M34 19h3M43 19h2M34 20h1M45 20h2M33 21h1M33 22h1M37 22h5M47 22h1M33 23h1M35 23h2M42 23h3M47 23h1M33 24h2M45 24h3M30 25h4M47 25h1M28 26h2M33 26h1M46 26h1M26 27h2M25 28h1M25 29h1M24 30h1M24 31h1M53 31h1M24 32h1M23 33h2M22 34h2M22 35h1M21 36h1M21 37h1M21 38h1M21 39h1M58 39h1M21 40h1M57 40h1M58 41h1M22 42h1M58 42h1M23 43h1M22 44h1M24 44h1M32 44h1M40 44h1M21 45h1M32 45h1M40 45h1M21 46h1M34 46h1M38 46h1M20 47h1M31 47h1M34 47h1M38 47h1M20 48h1M29 48h2M43 48h3M20 49h1M33 49h1M36 49h1M40 49h1M58 49h1M20 50h1M31 50h2M35 50h1M37 50h1M41 50h4M57 50h2M20 51h1M34 51h1M55 51h3M20 52h1M31 52h2M40 52h4M56 52h1M21 53h1M57 53h1M21 54h1M22 55h2M58 55h1M23 56h2M58 56h1M24 57h1M58 57h1M23 58h1M58 58h1M23 59h1M23 60h1M23 61h2M50 61h2M24 62h1M49 62h1M52 62h1M55 62h1M25 63h2M49 63h1M53 63h1M55 63h1M26 64h3M50 64h1M54 64h1M26 65h1M29 65h1M31 65h1M51 65h1M55 65h1M25 66h1M29 66h3M51 66h2M56 66h1M24 67h1M28 67h1M31 67h1M50 67h1M52 67h2M56 67h1M24 68h1M27 68h2M32 68h1M48 68h2M53 68h1M56 68h1M24 69h1M27 69h1M32 69h3M44 69h4M53 69h1M57 69h1M23 70h1M27 70h1M35 70h4M44 70h1M54 70h1M58 70h1M22 71h1M26 71h1M37 71h1M45 71h1M55 71h1M59 71h1M21 72h1M25 72h1M36 72h1M39 72h1M42 72h1M46 72h1M56 72h1M59 72h1M21 73h1M24 73h1M35 73h1M38 73h2M42 73h2M47 73h1M57 73h2M22 74h2M35 74h1M37 74h1M39 74h1M42 74h1M44 74h1M47 74h1M35 75h2M38 75h1M41 75h1M45 75h2M38 76h1M41 76h1M38 77h3" />
<path stroke="#393941" d="M39 3h1M33 4h3M40 4h2M34 5h4M42 5h1M35 6h5M42 6h1M36 7h4M42 7h1M36 9h3M42 9h2M35 10h6M44 10h1M35 11h7M45 11h1M35 12h8M45 12h1M43 13h1M35 14h6M43 14h1M34 15h9M46 15h1M34 16h10M34 17h11M47 17h1M34 18h3M43 18h2M47 18h1M37 19h6M47 19h1M35 20h8M34 21h10M46 21h1M34 22h3M42 22h3M34 23h1" />
<path stroke="#5a5a5a" d="M36 4h4M38 5h2M40 6h1M40 7h2M39 9h3M41 10h2M42 11h1M43 12h1M44 13h1M41 14h2M43 15h2M44 16h1M46 16h1M45 17h1M45 18h1M45 19h2M43 20h2M44 21h2M45 22h2M45 23h2" />
<path stroke="#83837b" d="M40 5h2M41 6h1M43 10h1M43 11h2M44 12h1M45 15h1M45 16h1M46 17h1M46 18h1" />
<path stroke="#b46a7b" d="M37 23h5M35 24h7M34 25h5M40 25h1M30 26h3M34 26h6M41 26h1M50 26h1M32 27h7M40 27h1M30 28h10M41 28h1M43 28h1M29 29h15M25 30h1M29 30h15M25 31h1M28 31h17M25 32h20M26 33h20M24 34h23M51 34h2M23 35h30M57 35h1M23 36h30M22 37h32M22 38h33M22 39h36M22 40h35M23 41h35M23 42h35M24 43h33M23 44h1M25 44h7M33 44h7M41 44h16M22 45h10M33 45h7M41 45h15M22 46h10M33 46h1M35 46h3M39 46h1M41 46h15M21 47h10M33 47h1M35 47h3M39 47h2M42 47h14M21 48h8M32 48h2M35 48h1M37 48h1M40 48h2M46 48h11M21 49h12M34 49h2M37 49h2M41 49h17M21 50h10M33 50h2M36 50h1M38 50h3M45 50h12M21 51h13M35 51h3M40 51h15M22 52h9M34 52h6M44 52h12M22 53h35M23 54h34M24 55h34M25 56h32M25 57h32M24 58h32M24 59h32M24 60h31M25 61h25M52 61h3M25 62h24M53 62h2M27 63h22M54 63h1M29 64h21M30 65h1M32 65h19M32 66h19M32 67h17M33 68h14M36 69h8M39 70h5M38 71h7M37 72h2M40 72h2M43 72h3M36 73h2M40 73h2M44 73h3M36 74h1M40 74h2M45 74h2M39 75h2M39 76h2" />
<path stroke="#ee949c" d="M42 24h3M39 25h1M41 25h6M40 26h1M42 26h4M47 26h3M28 27h4M39 27h1M41 27h11M26 28h4M40 28h1M42 28h1M44 28h9M26 29h3M44 29h9M26 30h3M44 30h9M26 31h2M45 31h7M45 32h9M46 33h10M47 34h4M53 34h4M53 35h4M53 36h5M54 37h4M55 38h3M57 43h2M57 44h2M56 45h3M56 46h3M56 47h3M57 48h1M57 56h1M57 57h1M56 58h2M56 59h1M55 60h2M55 61h1" />
<path stroke="#8b5262" d="M48 25h2M51 26h1M52 27h1M53 28h1M53 29h1M53 30h1M52 31h1M54 32h2M56 33h1M57 34h1M58 36h1M58 37h1M58 38h1M59 43h1M59 44h1M59 45h1M59 46h1M59 47h1M38 48h2M58 48h1M57 59h1M57 60h1M56 61h1" />
<path stroke="#62414a" d="M25 33h1M22 36h1M21 41h2M32 46h1M40 46h1M32 47h1M41 47h1M31 48h1M34 48h1M36 48h1M42 48h1M39 49h1M38 51h2M21 52h1M33 52h1M22 54h1M57 54h1M49 67h1M31 68h1M47 68h1M35 69h1" />
<path stroke="#737b7b" d="M50 62h2M50 63h3M51 64h3M27 65h2M52 65h3M26 66h3M53 66h2M25 67h3M25 68h2M25 69h2M24 70h1M23 71h1M57 71h2M22 72h1M57 72h2" />
<path stroke="#9cacac" d="M55 66h1M54 67h2M54 68h2M54 69h3M25 70h2M55 70h3M24 71h2M56 71h1M23 72h2M22 73h2" />
</svg>