<svg xmlns="http://www.w3.org/2000/svg" viewBox="0 -0.5 80 80" shape-rendering="crispEdges">
<metadata>Made with Pixels to Svg https://codepen.io/shshaw/pen/XbxvNj</metadata>
<path stroke="#101010" d="M31 6h7M31 7h1M32 8h1M33 9h1M34 10h1M34 11h7M34 12h1M33 13h1M33 14h1M33 15h1M34 16h8M44 16h1M33 17h1M43 17h2M32 18h1M32 19h1M32 20h1M32 21h1M36 21h6M33 22h3M42 22h2M33 23h1M44 23h2M32 24h1M32 25h1M46 25h1M46 26h1M42 28h3M40 30h1M39 31h1M38 32h1M46 32h1M37 33h1M47 33h1M36 34h1M49 34h1M24 35h1M34 35h1M50 35h4M24 36h1M31 36h2M50 36h1M24 37h6M50 37h1M26 38h1M50 38h1M26 39h1M25 40h1M30 40h1M25 41h1M27 41h1M30 41h1M37 41h1M25 42h2M30 42h1M35 42h1M25 43h1M31 43h1M33 43h1M24 44h1M31 44h2M46 44h1M31 45h1M46 45h1M55 45h1M23 46h1M31 46h1M56 46h1M23 47h1M31 47h1M47 47h1M23 48h1M31 48h1M48 48h1M57 48h1M23 49h1M29 49h5M46 49h1M49 49h1M57 49h1M23 50h1M26 50h3M33 50h1M36 50h1M46 50h1M50 50h2M57 50h1M23 51h3M33 51h1M36 51h1M46 51h1M53 51h5M23 52h1M33 52h3M47 52h1M54 52h2M22 53h1M33 53h1M35 53h1M45 53h1M47 53h1M55 53h1M22 54h1M35 54h1M45 54h1M48 54h1M56 54h1M21 55h1M32 55h1M35 55h1M45 55h1M49 55h1M56 55h1M21 56h1M32 56h1M35 56h1M45 56h1M50 56h2M56 56h1M21 57h1M31 57h1M36 57h1M44 57h1M51 57h3M56 57h1M21 58h1M30 58h1M36 58h1M44 58h1M53 58h4M21 59h1M28 59h2M37 59h1M43 59h1M51 59h1M54 59h1M21 60h7M38 60h1M42 60h1M52 60h1M54 60h1M27 61h2M39 61h3M52 61h3M27 62h1M29 62h1M50 62h3M27 63h1M29 63h1M49 63h1M52 63h1M26 64h1M30 64h1M49 64h1M26 65h1M30 65h2M35 65h1M50 65h1M26 66h1M31 66h1M35 66h1M49 66h3M25 67h1M29 67h1M32 67h1M34 67h1M36 67h1M49 67h1M51 67h1M25 68h1M29 68h1M32 68h1M34 68h1M36 68h1M48 68h1M52 68h1M25 69h1M28 69h1M33 69h2M37 69h1M41 69h1M48 69h1M52 69h1M56 69h1M25 70h1M28 70h1M37 70h1M40 70h2M47 70h1M53 70h1M56 70h1M26 71h2M38 71h1M40 71h1M42 71h1M46 71h1M54 71h3M39 72h1M42 72h1M45 72h1M42 73h2" />
<path stroke="#393941" d="M38 6h1M32 7h3M39 7h2M33 8h4M41 8h1M34 9h5M41 9h1M35 10h4M41 10h1M35 12h3M41 12h2M34 13h6M43 13h1M34 14h7M44 14h1M34 15h8M44 15h1M42 16h1M34 17h6M42 17h1M33 18h9M45 18h1M33 19h10M33 20h11M46 20h1M33 21h3M42 21h2M46 21h1M36 22h6M46 22h1M34 23h8M33 24h10M45 24h1M33 25h2M42 25h2M42 26h2M42 27h4" />
<path stroke="#5a5a5a" d="M35 7h4M37 8h2M39 9h1M39 10h2M38 12h3M40 13h2M41 14h1M42 15h1M43 16h1M40 17h2M42 18h2M43 19h1M45 19h1M44 20h1M44 21h1M44 22h2M42 23h2M43 24h2M44 25h2M44 26h2" />
<path stroke="#83837b" d="M39 8h2M40 9h1M42 13h1M42 14h2M43 15h1M44 18h1M44 19h1M45 20h1M45 21h1" />
<path stroke="#314a39" d="M35 25h7M32 26h3M41 26h1M31 27h2M41 27h1M46 27h6M29 28h2M41 28h1M45 28h1M53 28h1M28 29h1M40 29h2M44 29h1M55 29h1M27 30h1M44 30h1M26 31h1M45 31h1M57 31h1M25 32h1M58 32h1M25 33h1M48 33h1M59 33h1M24 34h1M35 34h1M48 34h1M57 34h3M33 35h1M54 35h2M30 36h1M53 36h1M54 37h1M25 39h1M50 39h1M55 39h1M28 40h2M40 40h2M50 40h1M55 40h1M38 41h2M42 41h1M51 41h1M55 41h2M36 42h1M42 42h1M46 42h6M55 42h1M34 43h1M42 43h1M46 43h1M51 43h2M54 43h1M43 44h1M53 44h2M24 45h1M43 45h1M43 46h1M47 46h1M18 47h1M39 47h3M43 47h1M56 47h1M18 48h5M38 48h1M42 48h1M46 48h1M37 49h1M43 49h1M58 49h3M44 50h1M52 50h1M44 51h1M52 51h1M45 52h1M32 54h2M27 59h1M39 60h1M35 64h1M49 65h1M36 66h1M41 68h1M47 69h1M44 72h1" />
<path stroke="#527341" d="M35 26h6M33 27h8M31 28h10M46 28h2M52 28h1M29 29h11M42 29h2M45 29h5M54 29h1M28 30h12M41 30h3M45 30h7M56 30h1M27 31h12M40 31h5M46 31h8M26 32h12M39 32h7M47 32h9M26 33h11M38 33h9M49 33h8M25 34h10M37 34h11M50 34h7M25 35h8M35 35h15M25 36h5M33 36h17M51 36h2M30 37h20M51 37h2M27 38h23M51 38h2M54 38h1M24 39h1M27 39h23M51 39h3M22 40h2M26 40h2M31 40h9M42 40h8M51 40h3M21 41h1M26 41h1M28 41h2M31 41h6M40 41h2M43 41h8M52 41h2M20 42h1M27 42h3M31 42h4M37 42h5M43 42h3M52 42h3M57 42h1M19 43h1M26 43h5M32 43h1M35 43h7M43 43h3M47 43h4M53 43h1M58 43h1M19 44h1M25 44h6M33 44h10M44 44h2M47 44h6M58 44h1M18 45h1M25 45h6M32 45h11M44 45h2M47 45h8M59 45h1M18 46h1M24 46h7M32 46h11M44 46h3M48 46h8M59 46h1M24 47h7M32 47h7M42 47h1M44 47h3M48 47h8M60 47h1M24 48h7M32 48h6M39 48h3M43 48h3M47 48h1M49 48h8M60 48h1M24 49h5M34 49h3M38 49h5M44 49h2M47 49h2M50 49h7M24 50h2M29 50h4M34 50h2M37 50h7M45 50h1M47 50h3M53 50h4M26 51h7M34 51h2M37 51h7M45 51h1M47 51h5M24 52h9M36 52h9M46 52h1M48 52h6M23 53h10M34 53h1M36 53h9M46 53h1M48 53h7M23 54h9M34 54h1M36 54h9M46 54h2M49 54h7M22 55h10M33 55h2M36 55h9M46 55h3M50 55h6M22 56h10M33 56h2M36 56h9M46 56h4M52 56h4M22 57h9M32 57h4M37 57h7M45 57h6M54 57h2M22 58h8M31 58h5M37 58h7M45 58h8M22 59h5M30 59h7M38 59h5M44 59h7M52 59h2M28 60h10M40 60h2M43 60h9M53 60h1M29 61h10M42 61h10M30 62h20M30 63h19M31 64h4M36 64h13M32 65h3M36 65h13M32 66h3M37 66h12M33 67h1M37 67h12M33 68h1M37 68h4M42 68h6M38 69h3M42 69h5M38 70h2M42 70h5M39 71h1M43 71h3M43 72h1" />
<path stroke="#7b9c4a" d="M48 28h4M50 29h4M52 30h4M54 31h3M56 32h2M57 33h2M53 37h1M53 38h1M54 39h1M24 40h1M54 40h1M22 41h3M54 41h1M21 42h4M56 42h1M20 43h5M55 43h3M20 44h4M55 44h3M19 45h5M56 45h3M19 46h4M57 46h2M19 47h4M57 47h3M58 48h2" />
<path stroke="#8b6a4a" d="M28 62h1M28 63h1M50 63h2M28 64h2M50 64h2M27 65h3M51 65h2M27 66h2M52 66h1M27 67h2M53 67h1M26 68h3M53 68h1M26 69h2M54 69h2M26 70h2M54 70h2" />
<path stroke="#624a39" d="M27 64h1M53 64h1M54 65h1M29 66h1M54 66h1M26 67h1M52 67h1M55 67h1M55 68h1M53 69h1" />
<path stroke="#c59452" d="M52 64h1M53 65h1M53 66h1M54 67h1M54 68h1" />
</svg>