<svg xmlns="http://www.w3.org/2000/svg" viewBox="0 -0.5 80 80" shape-rendering="crispEdges">
<metadata>Made with Pixels to Svg https://codepen.io/shshaw/pen/XbxvNj</metadata>
<path stroke="#101010" d="M36 3h2M36 4h1M38 4h1M36 5h1M39 5h1M36 6h1M36 7h1M40 7h1M36 8h1M41 8h1M36 9h1M42 10h1M37 11h1M42 11h1M38 12h1M42 12h1M36 13h1M40 13h2M35 14h1M41 14h1M35 15h1M42 15h1M35 16h1M43 16h1M36 17h1M43 17h1M37 18h1M43 18h1M38 19h1M42 19h1M38 20h1M38 21h1M38 22h1M38 23h1M38 24h1M38 25h1M38 26h1M38 27h1M30 28h1M38 28h1M29 29h1M38 29h1M29 30h1M38 30h1M46 30h1M29 31h1M34 31h1M38 31h1M46 31h1M30 32h1M33 32h1M38 32h1M46 32h1M30 33h4M38 33h1M42 33h1M45 33h5M29 34h2M37 34h1M42 34h3M28 35h1M37 35h1M43 35h1M22 36h1M28 36h1M36 36h2M43 36h1M50 36h1M21 37h1M28 37h1M36 37h2M43 37h1M49 37h2M58 37h2M20 38h1M29 38h1M35 38h3M43 38h2M48 38h1M56 38h2M21 39h1M30 39h1M33 39h2M45 39h4M56 39h1M22 40h1M30 40h4M48 40h1M13 41h2M23 41h1M30 41h1M48 41h1M13 42h1M24 42h1M29 42h1M32 42h12M49 42h1M55 42h1M12 43h1M24 43h1M29 43h3M45 43h3M50 43h2M55 43h1M64 43h2M12 44h1M24 44h1M28 44h2M48 44h8M62 44h2M24 45h4M52 45h4M61 45h1M23 46h2M55 46h2M61 46h1M7 47h1M16 47h1M23 47h1M56 47h1M60 47h1M6 48h1M17 48h1M21 48h2M57 48h4M74 48h1M6 49h1M18 49h4M59 49h2M74 49h1M5 50h1M18 50h1M60 50h1M74 50h1M5 51h1M18 51h1M60 51h1M74 51h1M5 52h1M18 52h1M60 52h1M73 52h1M6 53h1M17 53h1M61 53h1M72 53h1M7 54h1M17 54h1M62 54h1M71 54h1M8 55h1M16 55h1M63 55h2M69 55h2M9 56h2M15 56h2M64 56h6M9 57h1M11 57h5M67 57h2M9 58h1M67 58h1M9 59h1M66 59h2M10 60h1M66 60h1M11 61h1M65 61h1M12 62h3M63 62h2M14 63h1M58 63h5M14 64h1M58 64h1M14 65h1M19 65h1M15 66h4M20 66h2M57 66h1M22 67h4M24 68h1M52 68h2M24 69h1M53 69h1M24 70h1M53 70h1M25 71h2M27 72h2M51 72h2M28 73h1M48 73h4M28 74h1M48 74h1M28 75h2M48 75h1M29 76h2M46 76h2" />
<path stroke="#5a5a5a" d="M37 4h1M37 5h2M37 6h1M37 7h1M37 8h2M40 8h1M37 9h2M38 10h2M41 10h1M38 11h4M40 12h2M38 13h1M36 14h5M36 15h3M36 16h4M42 16h1M37 17h6M38 18h5M39 19h2M39 20h1M39 21h1M39 22h1M39 23h1M39 24h1M39 25h1M39 26h1M39 27h1M39 28h1M39 29h1M39 30h1M39 31h1M39 32h2M39 33h2M39 34h3M39 35h3M38 36h5M38 37h5M38 38h5M35 39h10M34 40h13M32 41h15M44 42h4" />
<path stroke="#737b6a" d="M38 6h1M38 7h2M39 8h1M39 9h2M40 10h1M39 15h3M40 16h2M40 20h1M40 21h1M40 22h1M40 23h1M40 24h1M40 25h1M40 26h1M40 27h1M40 28h1M40 29h1M40 30h1M40 31h1" />
<path stroke="#393941" d="M39 6h2M41 9h1M37 10h1M39 12h1M37 13h1M39 13h1M41 19h1M41 20h1M41 21h1M41 22h1M41 23h1M41 24h1M41 25h1M41 26h1M41 27h1M41 28h1M41 29h1M41 30h1M41 31h1M41 32h1M41 33h1M38 34h1M38 35h1M42 35h1M47 40h1M31 41h1M47 41h1M30 42h2M48 42h1M48 43h2" />
<path stroke="#393131" d="M31 28h3M34 29h1M46 29h1M34 30h1M51 31h1M50 32h1M34 34h1M50 34h1M35 35h1M50 35h1M23 36h4M27 37h1M56 37h1M60 37h2M59 38h1M63 38h1M15 39h6M25 39h2M59 39h1M64 39h2M14 40h1M27 40h2M56 40h1M66 40h1M15 41h2M56 41h1M66 41h1M66 42h1M13 43h1M19 43h1M66 43h4M21 44h2M70 44h2M8 45h7M72 45h1M7 46h1M15 46h1M64 46h1M73 46h1M8 47h2M61 47h1M64 47h1M73 47h1M10 48h1M11 49h1M72 49h1M70 50h2M14 51h2" />
<path stroke="#624a39" d="M47 28h3M30 29h2M50 29h1M30 30h3M47 30h2M51 30h1M30 31h4M47 31h3M31 32h2M47 32h3M31 34h2M45 34h3M29 35h5M44 35h5M29 36h7M44 36h6M51 36h5M22 37h1M29 37h7M44 37h5M21 38h4M28 38h1M30 38h5M45 38h3M49 38h6M58 38h1M62 38h1M22 39h3M29 39h1M31 39h2M49 39h7M57 39h2M23 40h4M29 40h1M49 40h7M57 40h3M65 40h1M17 41h1M24 41h6M49 41h7M57 41h5M14 42h5M25 42h4M50 42h5M56 42h8M14 43h5M20 43h1M25 43h4M52 43h3M56 43h8M13 44h8M23 44h1M25 44h3M56 44h6M69 44h1M15 45h9M56 45h5M62 45h3M16 46h7M57 46h4M62 46h2M10 47h1M17 47h6M57 47h3M62 47h2M7 48h3M18 48h3M61 48h6M73 48h1M7 49h4M61 49h8M73 49h1M6 50h7M61 50h9M72 50h2M6 51h8M16 51h1M61 51h13M6 52h11M61 52h12M7 53h10M62 53h10M8 54h9M63 54h8M9 55h7M65 55h4M11 56h4" />
<path stroke="#a47b5a" d="M32 29h2M47 29h3M33 30h1M49 30h2M50 31h1M33 34h1M48 34h2M34 35h1M49 35h1M23 37h4M51 37h5M25 38h3M55 38h1M60 38h2M27 39h2M60 39h4M15 40h7M60 40h5M18 41h5M62 41h4M19 42h5M64 42h2M21 43h3M64 44h5M65 45h7M8 46h7M65 46h8M11 47h5M65 47h8M11 48h6M67 48h6M12 49h6M69 49h3M13 50h5M17 51h1M17 52h1" />
<path stroke="#625252" d="M32 43h2M43 43h2M30 44h1M47 44h1M12 61h1M15 62h2M27 64h1M15 65h1M27 65h1M57 65h1M25 66h2M48 66h1M49 67h2M56 67h1M51 68h1M54 68h2M25 70h1M27 71h1M31 71h1M52 71h1M29 72h2M47 73h1" />
<path stroke="#d5c573" d="M34 43h9M31 44h16M28 45h24M26 46h27M26 47h27M26 48h23M50 48h1M52 48h1M25 49h1M27 49h23M51 49h1M26 50h1M28 50h21M50 50h1M25 51h1M27 51h1M30 51h19M26 52h1M28 52h1M32 52h15M34 53h9M56 62h2M55 63h3M51 64h1M53 64h1M55 64h3M52 65h1M54 65h3M51 66h1M53 66h4M51 67h5M25 68h2M25 69h2M26 70h3M50 70h3M28 71h2M49 71h3M47 72h4" />
<path stroke="#ac9473" d="M25 46h1M53 46h2M24 47h2M53 47h3M23 48h3M49 48h1M51 48h1M53 48h4M22 49h3M26 49h1M50 49h1M52 49h7M19 50h7M27 50h1M49 50h1M51 50h9M19 51h6M26 51h1M28 51h2M49 51h11M19 52h7M27 52h1M29 52h3M47 52h13M18 53h16M43 53h18M18 54h44M17 55h46M17 56h47M10 57h1M16 57h51M10 58h57M10 59h56M11 60h55M13 61h52M17 62h39M58 62h5M15 63h40M15 64h12M28 64h23M52 64h1M54 64h1M16 65h3M20 65h7M28 65h24M53 65h1M22 66h3M27 66h21M49 66h2M52 66h1M26 67h23M27 68h24M27 69h26M29 70h21M30 71h1M32 71h17M31 72h16M29 73h18M29 74h19M30 75h18M31 76h15" />
</svg>