<svg xmlns="http://www.w3.org/2000/svg" viewBox="0 -0.5 80 80" shape-rendering="crispEdges">
<metadata>Made with Pixels to Svg https://codepen.io/shshaw/pen/XbxvNj</metadata>
<path stroke="#314152" d="M34 15h6M32 16h2M40 16h2M30 17h2M42 17h2M29 18h2M28 19h1M50 19h8M27 20h1M45 20h1M49 20h1M58 20h3M28 21h1M46 21h1M60 21h3M62 22h2M32 23h2M63 23h2M64 24h1M65 25h1M66 27h1M38 29h1M44 29h1M38 30h1M44 30h1M67 30h2M37 31h1M44 31h2M35 32h2M43 32h4M42 33h3M57 33h5M41 34h3M50 34h1M62 34h3M41 35h3M65 35h1M67 35h1M41 36h3M66 36h2M42 37h3M43 38h2M43 39h3" />
<path stroke="#52a44a" d="M34 16h6M32 17h10M31 18h13M29 19h16M28 20h17M51 20h7M33 21h13M49 21h11M34 22h12M48 22h1M50 22h12M36 23h10M47 23h1M49 23h1M51 23h12M39 24h6M48 24h1M50 24h1M52 24h12M56 25h9M59 26h7M61 27h5M63 28h3M65 29h1M38 31h1M37 32h3M35 33h5M35 34h3" />
<path stroke="#101010" d="M44 18h1M45 19h1M48 20h1M29 21h2M47 21h1M31 22h2M46 22h1M33 24h1M65 24h1M34 25h1M66 25h1M34 26h2M66 26h1M35 27h3M43 27h2M67 27h1M37 28h6M44 28h1M67 28h1M45 29h1M67 29h1M45 30h1M20 31h2M43 31h1M46 31h1M68 31h1M27 32h1M33 32h1M42 32h1M47 32h1M68 32h1M33 33h2M40 33h2M45 33h1M48 33h2M68 33h1M28 34h1M34 34h1M38 34h3M44 34h1M51 34h6M68 34h1M34 35h3M40 35h1M44 35h1M35 36h1M40 36h1M44 36h1M35 37h1M41 37h1M45 37h1M35 38h1M41 38h2M45 38h1M35 39h1M42 39h1M46 39h1M34 40h2M42 40h6M18 41h1M34 41h1M49 41h3M18 42h1M33 42h2M53 42h1M19 43h1M33 43h1M54 43h1M20 44h1M31 44h2M21 45h1M30 45h2M23 46h7M59 49h1M31 51h1M60 51h1M31 52h1M60 52h1M31 53h1M60 53h1M31 54h1M60 54h1M31 55h1M60 55h1M31 56h1M60 56h1M31 57h1M60 57h1M32 58h1M59 58h1M32 59h1M59 59h1M32 60h1M58 60h1M33 61h1M57 61h2M33 62h1M57 62h1M34 63h1M40 63h4M56 63h1" />
<path stroke="#39734a" d="M50 20h1M31 21h2M48 21h1M33 22h1M47 22h1M49 22h1M34 23h2M46 23h1M48 23h1M50 23h1M34 24h5M45 24h3M49 24h1M51 24h1M35 25h21M36 26h23M38 27h5M45 27h16M43 28h1M45 28h18M66 28h1M39 29h5M46 29h19M66 29h1M39 30h5M46 30h21M39 31h4M47 31h21M40 32h2M48 32h20M50 33h7M62 33h6M65 34h3M66 35h1" />
<path stroke="#ac416a" d="M23 29h7M21 30h3M29 30h1M30 31h2M19 32h1M31 32h2M31 33h2M23 34h1M31 34h3M31 35h3M18 36h1M30 36h5M18 37h2M29 37h6M18 38h4M27 38h8M18 39h17M19 40h15M19 41h15M42 41h1M20 42h13M40 42h1M46 42h2M20 43h13M38 43h2M44 43h4M22 44h9M37 44h2M43 44h6M24 45h5M36 45h3M42 45h7M35 46h3M41 46h9M34 47h4M41 47h10M57 47h1M34 48h3M40 48h13M56 48h2M33 49h4M40 49h19M33 50h4M40 50h19M33 51h4M40 51h20M32 52h5M40 52h20M32 53h5M40 53h20M32 54h5M40 54h20M32 55h3M43 55h17M32 56h3M43 56h17M33 57h26M33 58h26M33 59h26M34 60h24M34 61h23M35 62h22M36 63h4M47 63h9" />
<path stroke="#de6283" d="M24 30h5M23 31h7M20 32h7M28 32h3M20 33h2M24 33h3M29 33h2M19 34h3M25 34h3M29 34h2M19 35h10M30 35h1M19 36h11M20 37h9M22 38h5M48 42h3M48 43h5M49 44h3M54 44h1M49 45h3M54 45h2M50 46h7M51 47h6M53 48h3" />
<path stroke="#6a394a" d="M30 30h2M22 31h1M18 33h2M22 33h2M27 33h2M18 34h1M22 34h1M24 34h1M17 35h2M18 40h1M43 41h4M19 42h1M41 42h5M37 43h1M40 43h4M36 44h1M39 44h4M35 45h1M39 45h3M34 46h1M38 46h3M38 47h3M37 48h3M37 49h3M37 50h3M37 51h3M37 52h3M37 53h3M37 54h3M35 55h8M35 56h8" />
<path stroke="#413131" d="M32 31h1M29 35h1M17 36h1M17 37h1M17 38h1M17 39h1M17 40h1M48 40h1M40 41h2M47 41h2M38 42h2M52 42h1M21 44h1M55 44h1M22 45h2M29 45h1M56 45h1M57 46h1M33 47h1M58 47h1M32 48h2M58 48h2M32 49h1M32 50h1M59 50h2M32 51h1M32 57h1M59 57h1M33 60h1M34 62h1M35 63h1" />
<path stroke="#833152" d="M51 42h1M53 43h1M44 63h3" />
<path stroke="#ff8bac" d="M52 44h2M52 45h2" />
</svg>