<svg xmlns="http://www.w3.org/2000/svg" viewBox="0 -0.5 80 80" shape-rendering="crispEdges">
<metadata>Made with Pixels to Svg https://codepen.io/shshaw/pen/XbxvNj</metadata>
<path stroke="#101010" d="M59 3h3M58 4h1M58 5h1M58 6h1M58 7h1M57 8h2M57 9h1M57 10h1M57 11h1M20 12h3M56 12h2M19 13h1M23 13h1M56 13h1M18 14h1M23 14h1M56 14h1M18 15h1M56 15h1M17 16h1M55 16h1M17 17h1M53 17h3M17 18h1M54 18h1M17 19h1M53 19h1M17 20h1M33 20h2M36 20h1M52 20h1M17 21h2M34 21h2M18 22h1M33 22h2M69 22h1M18 23h1M33 23h1M68 23h1M18 24h1M32 24h1M68 24h1M18 25h2M32 25h1M67 25h1M19 26h1M31 26h1M67 26h1M19 27h2M31 27h1M66 27h1M20 28h1M31 28h1M65 28h2M20 29h2M30 29h1M64 29h2M21 30h1M30 30h1M63 30h2M22 31h1M30 31h1M64 31h1M23 32h1M30 32h1M24 33h1M30 33h1M25 34h2M30 34h1M63 34h3M26 35h3M30 35h1M61 35h1M28 36h4M59 36h1M31 37h1M31 38h1M72 38h1M27 39h6M71 39h1M25 40h2M32 40h1M69 40h2M24 41h1M32 41h1M67 41h2M23 42h1M33 42h1M60 42h7M23 43h1M33 43h1M63 43h1M23 44h1M33 44h1M62 44h1M24 45h2M32 45h3M61 45h1M26 46h6M34 46h1M61 46h1M35 47h1M60 47h1M35 48h1M59 48h2M35 49h2M59 49h1M36 50h1M59 50h1M36 51h1M59 51h1M36 52h2M58 52h2M37 53h1M58 53h1M37 54h1M58 54h1M37 55h1M58 55h1M37 56h1M58 56h1M37 57h1M58 57h1M22 58h4M37 58h1M59 58h1M20 59h2M30 59h1M36 59h1M59 59h1M19 60h1M31 60h1M36 60h1M60 60h1M18 61h1M32 61h1M35 61h1M60 61h1M18 62h1M32 62h1M34 62h1M61 62h1M17 63h1M33 63h1M17 64h1M33 64h1M17 65h1M17 66h1M17 67h1M17 68h1M18 69h1M18 70h2M68 70h1M19 71h2M69 71h1M20 72h2M70 72h1M20 73h1M22 73h2M71 73h1M8 74h6M19 74h1M72 74h1M6 75h2M14 75h2M18 75h1M69 75h1M72 75h1M5 76h1M16 76h2M69 76h1M73 76h1" />
<path stroke="#6a4a39" d="M59 4h5M59 5h2M64 5h1M59 6h2M59 7h2M59 8h3M58 9h4M58 10h5M58 11h5M58 12h5M20 13h3M57 13h6M19 14h3M57 14h7M19 15h3M24 15h1M57 15h7M18 16h4M24 16h1M45 16h7M56 16h8M18 17h4M25 17h1M41 17h3M52 17h1M56 17h8M69 17h1M18 18h4M26 18h2M40 18h1M55 18h9M69 18h1M18 19h4M28 19h3M54 19h9M69 19h1M18 20h5M31 20h2M44 20h4M53 20h10M69 20h1M19 21h4M41 21h6M52 21h11M69 21h1M19 22h4M39 22h5M52 22h11M68 22h1M19 23h5M51 23h13M65 23h1M67 23h1M19 24h6M50 24h13M64 24h1M66 24h2M20 25h6M49 25h15M65 25h1M20 26h8M47 26h20M21 27h10M35 27h2M44 27h22M21 28h10M34 28h31M22 29h8M31 29h33M22 30h8M31 30h32M23 31h7M31 31h33M24 32h6M31 32h32M65 32h1M25 33h5M31 33h32M65 33h1M27 34h3M31 34h31M66 34h5M29 35h1M31 35h30M63 35h1M71 35h1M32 36h7M41 36h18M61 36h7M72 36h1M32 37h6M41 37h29M72 37h1M32 38h6M41 38h31M33 39h5M41 39h30M28 40h4M33 40h5M40 40h29M25 41h7M33 41h24M60 41h7M24 42h9M34 42h25M24 43h9M34 43h28M24 44h9M35 44h10M47 44h14M26 45h6M35 45h9M48 45h13M36 46h8M48 46h12M36 47h7M48 47h12M36 48h7M48 48h11M37 49h6M47 49h12M37 50h6M47 50h12M37 51h6M46 51h13M38 52h5M45 52h13M38 53h20M38 54h20M38 55h20M38 56h20M38 57h20M38 58h20M22 59h4M37 59h20M20 60h5M30 60h1M37 60h20M19 61h6M31 61h1M36 61h21M19 62h7M31 62h1M35 62h22M18 63h9M30 63h3M34 63h23M62 63h1M18 64h15M34 64h24M63 64h1M18 65h15M34 65h24M18 66h16M35 66h24M64 66h1M18 67h16M35 67h24M65 67h1M19 68h15M35 68h25M66 68h1M19 69h42M67 69h1M20 70h42M21 71h43M22 72h44M21 73h1M24 73h9M36 73h33M20 74h12M37 74h12M53 74h17M8 75h6M19 75h12M36 75h12M54 75h15M6 76h10M18 76h12M35 76h13M54 76h15" />
<path stroke="#a46a39" d="M61 5h1M61 6h1M61 7h1M62 9h1M63 13h1M22 14h1M44 17h1M22 19h1M63 19h1M43 20h1M63 20h1M40 21h1M63 21h1M68 21h1M23 22h1M63 22h2M67 22h1M34 23h1M64 23h1M66 23h1M34 24h1M63 24h1M65 24h1M35 25h1M64 25h1M66 25h1M28 26h1M35 26h1M32 27h1M34 27h1M32 28h2M63 32h1M70 35h1M26 59h3M57 59h1M25 60h5M25 61h6M26 62h5M27 63h3M57 63h1M62 64h1M58 65h1M63 65h1M59 67h1M66 72h1" />
<path stroke="#c5944a" d="M62 5h2M62 6h3M62 7h4M62 8h4M63 9h4M63 10h4M63 11h5M63 12h5M64 13h4M64 14h5M22 15h2M64 15h5M22 16h2M64 16h5M22 17h3M45 17h5M64 17h5M22 18h4M41 18h9M64 18h5M23 19h5M39 19h10M64 19h5M23 20h8M38 20h5M64 20h5M23 21h11M38 21h2M64 21h4M24 22h9M65 22h2M24 23h9M25 24h7M33 24h1M26 25h6M33 25h2M29 26h2M32 26h3M33 27h1M64 32h1M63 33h2M62 34h1M64 35h6M68 36h4M70 37h2M58 58h1M58 59h1M57 60h3M57 61h3M57 62h4M58 63h4M58 64h4M59 65h4M59 66h5M60 67h5M60 68h6M61 69h6M62 70h6M64 71h5M67 72h2" />
<path stroke="#4a3939" d="M65 6h1M66 7h1M66 8h1M67 9h1M67 10h1M68 11h1M68 12h1M68 13h1M69 14h1M69 15h1M69 16h1M39 18h1M37 19h2M35 20h1M51 21h1M51 22h1M50 23h1M49 24h1M47 25h2M36 26h1M44 26h3M37 27h7M62 35h1M60 36h1M27 40h1M57 41h3M59 42h1M62 43h1M34 44h1M61 44h1M35 46h1M60 46h1M26 58h3M29 59h1M33 65h1M34 66h1M34 67h1M18 68h1M34 68h1" />
<path stroke="#ffde73" d="M50 17h2M50 18h4M49 19h3M37 20h1M36 21h2M35 22h4M35 23h3M35 24h2M69 72h1M69 73h2M70 74h2M70 75h2M70 76h3" />
<path stroke="#a48b39" d="M52 19h1M48 20h4M47 21h4M44 22h7M38 23h12M37 24h12M36 25h11M37 26h7" />
<path stroke="#ac6294" d="M39 36h2M38 37h3M38 38h3M38 39h3M38 40h2M45 44h2M44 45h4M44 46h4M43 47h5M43 48h5M43 49h4M43 50h4M43 51h3M43 52h2M33 73h3M32 74h5M49 74h4M31 75h5M48 75h6M30 76h5M48 76h6" />
</svg>