<svg xmlns="http://www.w3.org/2000/svg" viewBox="0 -0.5 80 80" shape-rendering="crispEdges">
<metadata>Made with Pixels to Svg https://codepen.io/shshaw/pen/XbxvNj</metadata>
<path stroke="#ac8318" d="M38 20h3M36 21h2M35 22h1M35 26h3M41 26h3M36 27h7M36 28h7M38 29h3M39 30h1M39 31h1M38 35h1M40 35h1M37 40h1M41 40h1M37 41h1M41 41h1M37 42h5M37 43h5M37 44h5M37 45h5M36 46h7M38 47h3" />
<path stroke="#f6cd52" d="M38 21h3M36 22h1M39 22h4M36 23h1M39 23h4M35 24h9M35 25h9M38 26h3M39 32h1M39 33h1M39 34h1M39 35h1M38 36h3M38 37h3M38 38h3M38 39h3M38 40h3M38 41h3" />
<path stroke="#625a6a" d="M41 21h1M35 23h1M34 24h1M38 33h1M40 33h1M38 34h1M40 34h1M37 35h1M37 36h1M37 37h1M37 38h1M37 39h1M31 42h5M43 42h6M26 43h5M49 43h4M23 44h3M54 44h3M20 45h2M35 45h2M42 45h2M58 45h2M18 46h1M61 46h1M16 47h1M37 47h1M41 47h1M63 47h1M14 48h1M16 48h1M38 48h3M65 48h1M12 49h1M16 49h1M67 49h1M9 50h1M14 50h2M70 50h1M9 51h1M13 51h2M70 51h1M8 52h1M11 52h2M61 52h1M8 53h3M61 53h1M65 53h1M5 55h1M74 55h1M5 56h1M68 56h1M74 56h1M6 57h1M69 57h1M73 57h1M6 58h1M69 58h1M73 58h1M7 59h1M64 59h1M68 59h2M72 59h1M8 60h1M65 60h4M71 60h1M9 61h2M42 61h2M49 61h2M69 61h2M11 62h2M67 62h2M13 63h5M63 63h4" />
<path stroke="#101010" d="M42 21h1M43 22h1M43 23h1M44 24h1M34 25h1M44 25h1M34 26h1M44 26h1M35 27h1M43 27h1M35 28h1M43 28h1M36 29h2M41 29h2M38 30h1M40 30h1M38 31h1M40 31h1M38 32h1M40 32h1M41 35h1M41 36h1M41 37h1M41 38h1M41 39h1M36 40h1M42 40h1M36 41h1M42 41h1M36 42h1M42 42h1M36 43h1M42 43h1M53 43h1M22 44h1M36 44h1M42 44h1M57 44h1M19 45h1M60 45h1M16 46h2M35 46h1M43 46h1M62 46h2M14 47h2M36 47h1M42 47h1M64 47h2M12 48h2M66 48h2M10 49h2M68 49h2M10 50h1M69 50h1M71 50h1M7 51h2M71 51h2M6 52h2M72 52h2M5 53h2M73 53h2M4 54h2M74 54h2M3 55h2M75 55h2M3 56h1M76 56h1M2 57h2M76 57h2M2 58h1M77 58h1M1 59h2M77 59h2M1 60h1M78 60h1M0 61h2M78 61h2M0 62h1M79 62h1M0 63h1M79 63h1" />
<path stroke="#ffffff" d="M37 22h2M37 23h2" />
<path stroke="#7b7b83" d="M31 43h1M48 43h1M26 44h1M53 44h1M22 45h1M19 46h1M27 46h8M44 46h3M22 47h14M43 47h6M50 47h1M19 48h19M41 48h9M51 48h1M53 48h1M15 49h1M17 49h32M50 49h1M52 49h1M54 49h1M56 49h1M16 50h34M51 50h1M53 50h1M55 50h1M57 50h2M68 50h1M15 51h36M52 51h1M54 51h1M56 51h5M13 52h48M65 52h1M71 52h1M7 53h1M11 53h49M62 53h2M6 54h54M61 54h4M6 55h54M61 55h5M6 56h55M62 56h5M69 56h1M7 57h54M62 57h6M7 58h55M63 58h6M8 59h36M49 59h14M65 59h3M70 59h1M9 60h34M45 60h3M50 60h15M69 60h2M11 61h31M44 61h5M51 61h18M13 62h29M43 62h7M51 62h16M18 63h24M43 63h7M51 63h12" />
<path stroke="#acacb4" d="M32 43h4M43 43h5M27 44h9M43 44h10M23 45h12M44 45h14M20 46h7M47 46h14M17 47h5M49 47h1M51 47h12M15 48h1M17 48h2M50 48h1M52 48h1M54 48h11M13 49h2M49 49h1M51 49h1M53 49h1M55 49h1M57 49h10M11 50h3M50 50h1M52 50h1M54 50h1M56 50h1M59 50h9M10 51h3M51 51h1M53 51h1M55 51h1M61 51h9M9 52h2M66 52h5M64 53h1M67 53h6M65 54h2M68 54h6M66 55h2M69 55h5M67 56h1M70 56h4M68 57h1M70 57h3M70 58h3M71 59h1" />
<path stroke="#414152" d="M62 52h3M60 53h1M66 53h1M60 54h1M67 54h1M60 55h1M68 55h1M61 56h1M61 57h1M62 58h1M44 59h5M63 59h1M43 60h2M48 60h2M42 62h1M50 62h1M42 63h1M50 63h1" />
<path stroke="#6a739c" d="M4 56h1M4 57h2M3 58h3M3 59h4M2 60h6M2 61h7M71 61h2M1 62h10M69 62h4M1 63h12M67 63h7" />
<path stroke="#9cbdee" d="M75 56h1M74 57h2M74 58h3M73 59h4M72 60h6M73 61h5M74 62h5M74 63h5" />
<path stroke="#8394c5" d="M73 62h1" />
</svg>