<svg xmlns="http://www.w3.org/2000/svg" viewBox="0 -0.5 80 80" shape-rendering="crispEdges">
<metadata>Made with Pixels to Svg https://codepen.io/shshaw/pen/XbxvNj</metadata>
<path stroke="#73cdff" d="M35 25h2M34 26h1M43 26h1M34 27h1M37 27h4M42 27h3M33 28h12M32 29h14M29 30h6M36 30h10M28 31h13M42 31h5M25 32h1M28 32h7M37 32h11M25 33h1M27 33h9M42 33h9M25 34h29M26 35h28M26 36h28M27 37h26M27 38h26M27 39h25M28 40h24M29 41h22M29 42h20M50 42h1M30 43h17M49 43h1M31 44h1M35 44h11M48 44h1M50 44h1M36 45h9M47 45h1M49 45h1M37 46h7M40 47h2" />
<path stroke="#398bbd" d="M37 25h1M41 25h3M38 26h3M44 26h1M33 27h1M32 28h1M45 28h1M29 29h3M26 30h3M46 30h1M25 31h1M24 32h1M36 32h1M48 32h1M24 33h1M36 33h1M51 33h1M24 34h1M25 35h1M26 37h1M27 40h1M26 41h3M51 41h1M26 42h3M49 42h1M51 42h2M25 43h5M48 43h1M50 43h3M24 44h7M33 44h2M46 44h2M49 44h1M51 44h3M24 45h12M45 45h2M48 45h1M50 45h5M23 46h14M44 46h12M23 47h16M43 47h14M23 48h34M24 49h33M26 50h30M31 51h16M51 51h3M35 52h9M37 53h5" />
<path stroke="#c5ffff" d="M35 26h2M41 26h1M26 31h2M26 32h1" />
<path stroke="#9ce6ff" d="M37 26h1M42 26h1M35 27h2M41 27h1M27 32h1M26 33h1" />
<path stroke="#295a9c" d="M45 27h1M46 29h1M47 31h1M35 32h1M49 32h2M37 33h1M40 33h2M52 33h2M54 34h1M25 36h1M53 37h1M26 38h1M26 39h1M26 40h1M25 41h1M52 41h1M25 42h1M24 43h1M53 43h1M23 44h1M23 45h1M22 46h1M22 47h1M57 47h1M22 48h1M23 49h1M25 50h1M30 51h1M47 51h1M50 51h1M54 51h1M34 52h1M44 52h1M36 53h1M42 53h1" />
<path stroke="#000000" d="M35 30h1M41 31h1M38 33h2M54 35h1M54 36h1M53 38h1M52 39h1M52 40h1M53 42h1M54 44h1M55 45h1M56 46h1M57 48h1M57 49h1M24 50h1M56 50h1M26 51h4M48 51h2M55 51h1M31 52h3M45 52h2M51 52h3M35 53h1M43 53h1M37 54h5" />
<path stroke="#62a4de" d="M47 43h1M32 44h1M39 47h1M42 47h1" />
</svg>