<svg xmlns="http://www.w3.org/2000/svg" viewBox="0 -0.5 80 80" shape-rendering="crispEdges">
<metadata>Made with Pixels to Svg https://codepen.io/shshaw/pen/XbxvNj</metadata>
<path stroke="#b473b4" d="M6 8h3M9 9h2M11 10h2M70 10h2M13 11h1M72 11h1M14 12h1M15 13h1M16 14h1M16 15h1M17 16h1M52 16h1M17 17h1M51 17h1M50 18h1M49 19h1M49 20h1M48 21h1M48 22h1M17 23h2M17 24h3M20 29h2M45 30h1M44 31h1M44 32h1M20 33h2M44 33h1M20 34h1M44 34h1M43 35h1M14 36h1M43 36h1M43 37h1M42 38h1M21 39h1M25 39h1M42 39h1M41 40h1M12 41h1M16 41h1M21 41h1M40 41h1M12 42h1M16 42h1M21 42h1M27 42h1M39 42h1M20 43h1M24 43h1M38 43h1M7 44h1M24 44h1M28 44h1M34 44h1M37 44h1M7 45h1M28 45h1M30 45h1M7 46h1M12 46h1M8 47h1M31 47h2M8 48h1M10 48h1M40 52h1M13 54h1M28 54h1M41 54h1M57 54h5M28 55h1M53 55h4M62 55h1M11 56h2M22 56h1M43 56h1M10 57h1M12 57h1M43 57h3M50 57h2M10 58h1M19 58h1M42 58h9M17 59h1M44 59h7M40 60h1M45 60h7M44 61h1M46 61h7M69 61h2M30 62h1M46 62h4M67 62h1M70 62h2M30 63h1M36 63h1M66 63h3M71 63h2M31 64h2M69 64h5M31 65h2M44 65h3M72 65h2M31 66h1M44 66h3M30 67h2M43 67h5M28 68h2M31 68h1M43 68h2M47 68h1M28 69h1M31 69h1M44 69h1M48 69h1" />
<path stroke="#73396a" d="M6 9h1M7 10h2M9 11h2M11 12h1M65 12h8M12 13h1M62 13h3M13 14h1M59 14h3M14 15h1M57 15h2M14 16h1M55 16h2M15 17h1M54 17h1M15 18h4M53 18h1M19 19h2M52 19h1M20 20h2M52 20h1M16 21h1M22 21h1M51 21h1M15 22h1M47 22h1M50 22h1M19 23h1M44 23h1M47 23h1M20 24h1M43 24h3M51 24h1M17 25h1M45 25h1M51 25h1M19 26h1M43 26h1M50 26h1M19 27h1M44 27h2M49 27h1M13 28h2M19 28h1M21 28h1M45 28h1M48 28h1M13 29h1M15 29h1M18 29h1M28 29h1M45 29h1M48 29h1M13 30h1M15 30h1M18 30h1M28 30h1M47 30h1M13 31h1M16 31h1M18 31h1M28 31h1M47 31h1M13 32h1M16 32h1M18 32h1M20 32h1M28 32h1M13 33h1M17 33h2M23 33h1M27 33h1M13 34h1M19 34h1M21 34h2M27 34h1M46 34h1M26 35h1M46 35h1M26 36h1M25 37h1M25 38h1M45 38h1M20 39h1M26 39h1M19 40h1M26 40h2M18 41h1M27 41h1M10 42h2M17 42h1M28 42h1M32 42h2M42 42h1M16 43h2M28 43h1M31 43h1M34 43h1M29 44h1M31 44h1M36 44h1M6 45h1M24 45h1M29 45h1M35 45h1M11 46h1M30 46h1M34 46h1M10 47h1M20 47h3M20 48h3M7 49h1M21 49h3M8 50h1M26 50h1M37 50h1M9 51h1M24 51h1M26 51h1M38 51h1M24 52h1M39 52h1M41 52h1M14 53h1M21 53h1M23 53h1M41 53h1M23 54h1M26 54h1M42 54h1M13 55h1M21 55h1M23 55h1M42 55h2M63 55h2M23 56h1M42 56h1M44 56h2M50 56h3M65 56h1M20 57h1M42 57h1M46 57h4M26 58h1M41 58h1M60 58h4M68 58h1M11 59h1M13 59h1M27 59h1M41 59h1M43 59h1M57 59h3M64 59h2M69 59h2M21 60h1M55 60h2M66 60h2M72 60h1M26 61h1M53 61h2M68 61h1M19 62h1M26 62h1M29 62h1M66 62h1M13 63h1M25 63h1M31 63h2M37 63h1M45 63h1M47 63h3M65 63h1M73 63h1M25 64h1M33 64h5M45 64h1M66 64h3M25 65h1M33 65h1M47 65h1M69 65h3M30 66h1M32 66h1M43 66h1M47 66h1M72 66h3M32 67h1M42 67h1M48 67h1M27 68h1M30 68h1M32 68h1M42 68h1M45 68h2M48 68h1M27 69h1M29 69h1M43 69h1M45 69h2M49 69h1M27 70h1M29 70h1M45 70h1M47 70h1M28 71h2" />
<path stroke="#ffc5f6" d="M7 9h2M9 10h2M11 11h2M65 11h7M13 12h1M61 12h4M14 13h1M58 13h4M15 14h1M56 14h3M54 15h3M53 16h2M52 17h1M51 18h1M16 19h2M50 19h1M17 20h2M44 21h3M16 22h1M21 22h1M45 22h2M15 23h1M21 23h1M49 23h2M15 24h1M49 24h1M43 25h1M46 28h1M14 29h1M46 29h1M14 30h1M27 30h1M46 30h1M14 31h2M26 31h2M45 31h2M14 32h2M25 32h2M45 32h2M14 33h3M24 33h3M45 33h2M14 34h3M24 34h2M45 34h1M14 35h1M16 35h4M25 35h1M44 35h2M15 36h4M20 36h2M44 36h2M13 37h10M44 37h2M12 38h11M43 38h2M12 39h5M18 39h2M43 39h2M13 40h3M17 40h2M42 40h2M13 41h3M17 41h1M41 41h2M13 42h3M40 42h2M8 43h8M39 43h2M8 44h10M38 44h2M8 45h9M36 45h3M8 46h3M13 46h2M35 46h3M9 47h1M12 47h2M33 47h4M11 48h2M30 48h7M30 49h7M29 50h8M28 51h9M28 52h10M28 53h11M29 54h2M32 54h7M27 55h1M29 55h1M31 55h8M27 56h1M29 56h1M31 56h8M27 57h11M20 58h1M27 58h11M19 59h1M28 59h9M14 60h4M30 60h5" />
<path stroke="#cd9cc5" d="M65 10h5M61 11h4M12 12h1M58 12h3M13 13h1M56 13h2M14 14h1M54 14h2M15 15h1M53 15h1M15 16h2M16 17h1M53 17h1M52 18h1M18 19h1M51 19h1M19 20h1M44 20h2M50 20h2M18 21h4M43 21h1M49 21h2M17 22h2M20 22h1M16 23h1M46 23h1M46 24h2M50 24h1M19 25h2M42 25h1M44 25h1M46 25h3M50 25h1M20 26h1M44 26h6M20 27h1M46 27h3M20 28h1M47 28h1M19 29h1M47 29h1M19 30h1M19 31h1M19 32h1M27 32h1M19 33h1M23 34h1M26 34h1M15 35h1M22 35h3M19 36h1M22 36h4M23 37h2M23 38h2M17 39h1M22 39h3M12 40h1M16 40h1M21 40h5M44 40h1M22 41h4M43 41h1M8 42h2M22 42h4M7 43h1M21 43h3M25 43h2M32 43h2M18 44h6M25 44h2M32 44h2M17 45h7M25 45h2M31 45h4M15 46h5M24 46h3M28 46h2M31 46h3M7 47h1M11 47h1M14 47h3M24 47h2M27 47h4M37 47h1M9 48h1M13 48h2M24 48h2M27 48h3M8 49h5M24 49h1M26 49h4M9 50h3M23 50h2M27 50h2M10 51h2M23 51h1M27 51h1M37 51h1M22 52h2M38 52h1M22 53h1M39 53h2M22 54h1M27 54h1M31 54h1M39 54h2M22 55h1M30 55h1M39 55h3M57 55h5M21 56h1M28 56h1M30 56h1M39 56h3M53 56h12M21 57h1M38 57h4M52 57h15M21 58h1M38 58h3M51 58h9M64 58h4M71 58h1M12 59h1M18 59h1M20 59h2M37 59h4M42 59h1M51 59h6M66 59h3M71 59h1M12 60h2M18 60h3M28 60h2M35 60h5M41 60h3M52 60h3M68 60h4M12 61h9M27 61h1M29 61h15M71 61h2M13 62h6M27 62h2M31 62h14M68 62h2M72 62h1M26 63h4M33 63h3M38 63h7M69 63h2M26 64h5M39 64h6M26 65h5M41 65h3M27 66h3M32 69h1M47 69h1M28 70h1M32 70h1M44 70h1M48 70h1M44 71h1M48 71h1" />
<path stroke="#1020bd" d="M7 11h2M8 12h1M9 13h1M9 14h1M10 15h1M10 16h1M10 17h1M10 18h1M11 19h1M11 20h1M11 21h1M11 22h1M51 22h1M12 23h1M12 24h1M12 25h1M12 26h1M11 27h1M11 28h1M10 29h1M10 30h1M9 31h1M9 32h1M17 32h1M8 33h1M11 34h2M8 35h5M10 36h3M11 37h1M50 39h8M61 39h1M47 40h9M45 41h7M44 42h5M42 43h5M41 44h4M40 45h4M39 46h4M39 47h3M38 48h3M38 49h3M38 50h2M39 51h1" />
<path stroke="#4162ff" d="M9 12h2M10 13h2M65 13h5M10 14h3M62 14h6M11 15h3M59 15h8M11 16h3M57 16h9M11 17h4M55 17h10M11 18h1M13 18h2M54 18h10M14 19h1M53 19h8M63 19h1M14 20h1M53 20h6M15 21h1M52 21h6M62 21h1M12 22h1M52 22h5M52 23h4M61 23h1M52 24h3M16 25h1M52 25h2M18 26h1M51 26h2M18 27h1M50 27h3M17 28h2M49 28h3M17 29h1M49 29h3M16 30h2M48 30h3M17 31h1M48 31h3M48 32h2M48 33h2M10 34h1M47 34h3M47 35h2M60 35h1M47 36h2M47 37h2M46 38h4M58 38h1M46 39h1" />
<path stroke="#18089c" d="M70 13h1M68 14h2M67 15h1M66 16h1M64 18h1M63 20h1M62 22h1M61 24h1M60 27h1M7 34h1M60 34h1M7 35h1M8 36h2M10 37h1M61 37h1M11 38h1M50 38h8M62 38h1M47 39h3M58 39h3M46 40h1M56 40h1M52 41h2M49 42h1M47 43h1M45 44h1M41 48h1M40 50h1M40 51h1" />
<path stroke="#000000" d="M65 17h1M15 19h1M64 19h1M15 20h2M46 20h1M17 21h1M47 21h1M63 21h1M19 22h1M22 22h1M43 22h2M49 22h1M14 23h1M20 23h1M22 23h1M45 23h1M48 23h1M51 23h1M62 23h1M14 24h1M16 24h1M21 24h1M48 24h1M15 25h1M18 25h1M21 25h1M49 25h1M61 25h1M21 26h1M42 26h1M61 26h1M21 27h1M60 28h1M27 29h1M60 29h1M20 30h1M26 30h1M60 30h1M20 31h1M25 31h1M60 31h1M24 32h1M47 32h1M60 32h1M47 33h1M60 33h1M17 34h2M13 35h1M20 35h2M61 35h1M13 36h1M46 36h1M61 36h1M12 37h1M46 37h1M11 39h1M45 39h1M62 39h1M11 40h1M45 40h1M57 40h6M26 41h1M44 41h1M54 41h2M26 42h1M43 42h1M50 42h2M18 43h1M27 43h1M41 43h1M48 43h1M27 44h1M40 44h1M46 44h1M27 45h1M39 45h1M44 45h1M6 46h1M20 46h4M27 46h1M38 46h1M43 46h1M6 47h1M17 47h3M23 47h1M26 47h1M38 47h1M42 47h1M7 48h1M15 48h2M23 48h1M26 48h1M37 48h1M13 49h2M20 49h1M25 49h1M37 49h1M41 49h1M12 50h1M21 50h2M25 50h1M12 51h1M22 51h1M10 52h2M27 52h1M27 53h1M26 55h1M26 56h1M66 56h1M22 57h1M26 57h1M67 57h1M71 57h1M22 58h1M70 58h1M72 58h1M14 59h3M22 59h1M72 59h1M11 60h1M27 60h1M44 60h1M11 61h1M21 61h1M28 61h1M45 61h1M73 61h1M12 62h1M20 62h1M45 62h1M50 62h3M73 62h1M14 63h5M46 63h1M38 64h1M46 64h1M74 64h1M39 65h2M74 65h1M26 66h1M41 66h2M27 67h3M30 69h1M33 69h1M31 70h1M33 70h1M43 70h1M49 70h1M32 71h2M43 71h1M45 71h1M47 71h1M49 71h1M44 72h2M48 72h2" />
<path stroke="#6a94ff" d="M12 18h1M12 19h2M61 19h2M12 20h2M59 20h4M12 21h3M58 21h4M13 22h2M57 22h5M13 23h1M56 23h5M13 24h1M55 24h6M13 25h2M54 25h7M13 26h5M53 26h8M12 27h6M53 27h7M12 28h1M15 28h2M52 28h8M11 29h2M16 29h1M52 29h8M11 30h2M51 30h9M10 31h3M51 31h9M10 32h3M50 32h10M9 33h4M50 33h10M8 34h2M50 34h10M49 35h11M49 36h12M49 37h12M59 38h3" />
<path stroke="#ffffff" d="M20 40h1M19 41h2M13 56h1M20 56h1M11 58h1M17 58h1" />
<path stroke="#cdcdcd" d="M18 42h1M20 42h1M14 54h1M21 54h1M11 57h1M17 57h1M12 58h1M18 58h1" />
<path stroke="#317329" d="M19 42h1M19 43h1" />
<path stroke="#832041" d="M17 48h3M15 49h1M17 49h3M16 50h5M15 51h2M18 51h4M15 52h1M21 52h1M20 54h1M14 55h1M20 55h1M17 56h1M19 56h1M13 57h1M16 57h1M18 57h2M13 58h1M16 58h1" />
<path stroke="#cd394a" d="M16 49h1M17 51h1M16 52h1M18 52h1M20 52h1M15 53h1M20 53h1M15 54h1M19 55h1M14 56h1M14 58h1" />
<path stroke="#e68b9c" d="M17 52h1M19 52h1M16 53h4M16 54h4M15 55h4M15 56h2M18 56h1M14 57h2M15 58h1" />
</svg>