<svg xmlns="http://www.w3.org/2000/svg" viewBox="0 -0.5 80 80" shape-rendering="crispEdges">
<metadata>Made with Pixels to Svg https://codepen.io/shshaw/pen/XbxvNj</metadata>
<path stroke="#415a18" d="M22 1h2M21 2h1M24 2h1M22 3h2M19 4h1M21 4h1M19 5h1M21 5h1M19 6h1M21 6h1M30 6h1M22 7h2M31 7h1M51 7h1M24 8h1M28 8h1M32 8h2M50 8h1M25 9h1M27 9h1M32 9h1M34 9h2M37 9h3M26 10h1M35 10h2M42 10h1M49 10h1M25 11h1M33 11h2M37 11h1M44 11h4M32 12h1M36 12h1M38 12h1M42 12h1M48 12h1M38 13h1M16 14h2M39 14h1M15 15h1M18 15h1M23 15h1M50 15h3M15 16h1M18 16h1M49 16h1M54 16h1M15 17h1M17 17h1M19 17h1M49 17h1M56 17h1M15 18h1M19 18h1M32 18h1M49 18h1M58 18h1M15 19h1M20 19h1M22 19h1M33 19h1M49 19h1M59 19h1M15 20h1M21 20h1M60 20h1M15 21h1M39 21h1M48 21h1M61 21h1M17 22h1M40 22h1M48 22h1M62 22h1M16 23h1M63 23h1M16 24h1M21 24h1M25 24h1M32 24h1M36 24h1M47 24h1M64 24h1M16 25h1M32 25h1M47 25h1M64 25h1M17 26h1M31 26h1M46 26h1M65 26h1M17 27h1M45 27h1M65 27h1M18 28h1M43 28h2M66 28h1M18 29h1M66 29h1M19 30h1M25 30h1M67 30h1M20 31h1M24 31h1M67 31h1M23 32h1M48 32h1M67 32h1M50 33h2M65 33h1M67 33h1M65 34h1M67 34h1M13 35h3M41 35h1M66 35h1M11 36h2M10 37h1M9 38h1M8 39h1M57 40h1M50 43h1M57 43h1M53 44h1M56 44h1M39 48h1M17 49h1M38 49h1M71 50h2M16 51h1M70 51h1M15 52h1M69 52h1M15 53h1M67 53h1M18 54h1M64 54h2M71 54h1M14 55h1M18 55h1M53 55h2M61 55h2M14 56h1M19 56h1M55 56h5M70 56h1M14 57h1M19 57h1M14 58h1M20 58h1M14 59h1M20 59h1M21 60h1M21 61h1M22 62h1M44 65h1M17 66h1M19 66h1M46 66h1M56 66h1M16 67h1M47 67h1M52 67h1M47 68h1M14 69h1M16 70h1M48 74h1M52 75h1" />
<path stroke="#f6e6cd" d="M22 2h2M21 3h1M20 4h1M20 5h1M20 6h1M21 7h1M22 8h1M51 8h1M51 9h1M37 10h4M50 10h1M35 11h2M41 11h2M48 11h2M33 12h2M43 12h5M31 34h2M25 35h8M24 36h8M23 38h10M23 39h10M22 40h11M21 42h13M21 43h13M21 44h12M20 46h15M20 47h15M19 48h16M20 49h14M19 51h17M19 52h18M21 53h13M19 54h1M20 55h16M20 56h16M22 57h12" />
<path stroke="#527b31" d="M20 3h1M29 7h1M40 9h1M50 9h1M29 10h3M41 10h1M48 10h1M43 11h1M24 12h1M37 12h1M24 13h1M33 13h1M23 14h1M31 16h1M34 16h1M53 16h1M16 17h1M35 17h1M55 17h1M16 18h1M35 18h1M57 18h1M16 19h1M23 19h1M31 19h1M35 19h1M16 20h1M19 20h2M38 20h1M49 20h1M16 21h1M20 21h1M38 21h1M16 22h1M37 22h3M17 23h1M37 23h3M48 23h1M17 24h1M22 24h1M37 24h3M17 25h1M36 25h4M18 26h1M32 26h1M35 26h6M47 26h2M18 27h1M34 27h3M40 27h1M46 27h2M19 28h1M34 28h2M41 28h1M45 28h2M19 29h1M34 29h1M44 29h2M20 30h1M34 30h1M25 31h1M34 31h1M24 32h1M34 32h1M22 33h3M33 33h1M19 34h5M33 34h1M51 34h1M16 35h8M33 35h1M16 36h7M33 36h1M41 36h1M43 36h1M17 37h5M33 37h1M41 37h2M17 38h5M33 38h1M42 38h2M9 39h1M17 39h4M33 39h1M42 39h2M17 40h4M34 40h1M43 40h1M16 41h2M34 41h1M43 41h2M10 42h1M15 42h1M34 42h1M44 42h1M57 42h1M11 43h1M34 43h1M44 43h1M51 43h1M34 44h1M45 44h1M55 44h1M35 45h1M45 45h1M35 46h1M46 46h1M35 47h1M40 47h1M36 48h1M36 49h1M16 50h2M37 50h1M49 50h1M50 52h1M68 53h1M71 53h1M15 54h1M51 54h1M66 54h1M51 55h1M63 55h1M70 55h1M18 56h1M51 56h1M53 56h2M60 56h1M69 56h1M17 57h2M50 57h2M53 57h4M67 57h3M15 58h5M37 58h1M50 58h2M53 58h6M64 58h5M15 59h5M49 59h3M53 59h15M16 60h5M38 60h1M49 60h3M53 60h14M16 61h5M39 61h1M48 61h3M52 61h14M17 62h5M40 62h2M46 62h5M52 62h11M17 63h6M41 63h10M52 63h8M18 64h6M43 64h7M51 64h5M19 65h6M45 65h5M20 66h6M47 66h4M17 67h10M46 67h1M48 67h3M15 68h11M46 68h1M48 68h4M15 69h11M45 69h7M17 70h7M45 70h2M50 70h3M18 71h3M44 71h2M51 71h3M44 72h1M50 72h4M44 73h1M49 73h1M51 73h4M45 74h1M52 74h1M45 75h1" />
<path stroke="#102908" d="M20 7h1M21 8h1M52 8h1M22 9h2M28 9h1M52 9h1M24 10h1M51 10h1M38 11h3M50 11h1M35 12h1M41 12h1M49 12h1M34 13h1M43 13h5M32 15h2M39 15h1M39 16h1M39 17h1M39 18h1M39 19h1M39 20h1M40 23h1M40 24h1M35 25h1M40 25h1M33 26h2M41 26h1M32 27h1M41 27h1M42 28h1M26 29h1M43 29h1M26 30h1M44 30h2M26 31h1M46 31h2M22 32h1M25 32h1M49 32h1M19 33h3M25 33h1M16 34h3M24 34h1M52 34h1M24 35h1M23 36h1M42 36h1M22 37h1M43 37h2M22 38h1M45 38h1M21 39h1M46 39h1M21 40h1M44 40h1M47 40h1M18 41h2M48 41h1M16 42h2M49 42h1M14 43h2M45 43h1M50 44h1M57 44h1M53 45h1M57 45h1M38 50h1M50 50h1M37 51h1M37 52h1M18 53h1M37 53h1M51 53h1M36 54h1M36 55h1M15 60h1M52 60h1M15 61h1M51 61h1M66 61h1M16 62h1M16 63h1M23 63h1M40 63h1M17 64h1M24 64h1M41 64h2M50 64h1M18 65h1M43 65h1M50 65h1M18 66h1M26 66h1M45 66h1M51 66h1M15 67h1M27 67h1M31 67h1M45 67h1M14 68h1M26 68h1M36 68h1M43 68h1M45 68h1M26 69h1M37 69h1M42 69h1M44 69h1M24 70h1M44 70h1M21 71h1M43 71h1M54 72h1M55 73h1M44 74h1" />
<path stroke="#94c58b" d="M30 7h1M30 8h1M27 10h2M32 10h1M26 11h7M26 12h6M25 13h8M24 14h11M24 15h8M24 16h7M24 17h7M24 18h7M24 19h7M22 20h10M22 21h13M21 22h14M22 23h12M23 24h2M26 24h6M23 25h2M26 25h5M23 26h6M49 36h2M48 37h5M48 38h6M49 39h6M50 40h5M52 41h2M40 51h2M39 52h4M38 53h5M38 54h5M38 55h5M38 56h5M39 57h3" />
<path stroke="#e6b49c" d="M23 8h1M24 9h1M25 10h1M33 27h1M30 28h4M27 29h6M33 30h1M27 31h7M26 32h7M26 34h5M32 36h1M22 39h1M33 40h1M20 44h1M33 44h1M20 45h1M19 47h1M35 48h1M19 49h1M33 50h3M36 51h1M20 54h1M34 54h2M19 55h1M20 57h2M34 57h2M22 58h12M21 59h1M34 59h3M22 60h15M22 61h15M24 62h10M37 62h2M63 62h2M34 63h6M60 63h2M25 64h14M57 64h2M60 64h1M28 65h8M39 65h4M51 65h2M54 65h2M57 65h2M36 66h7M52 66h1M54 66h2M33 67h7M43 67h2M40 68h3" />
<path stroke="#73a45a" d="M29 8h1M31 8h1M29 9h3M33 9h1M33 10h2M25 12h1M35 13h3M35 14h4M16 15h2M34 15h5M16 16h2M35 16h4M50 16h3M18 17h1M36 17h3M50 17h5M18 18h1M36 18h3M50 18h1M54 18h3M19 19h1M36 19h3M50 19h1M56 19h3M32 20h6M50 20h1M58 20h2M21 21h1M35 21h3M49 21h2M59 21h2M35 22h2M49 22h1M60 22h2M21 23h1M34 23h3M49 23h1M61 23h2M33 24h3M48 24h2M62 24h2M22 25h1M25 25h1M31 25h1M33 25h2M48 25h1M63 25h1M29 26h2M63 26h2M25 27h5M37 27h3M64 27h1M36 28h5M64 28h2M35 29h8M65 29h1M35 30h9M65 30h2M35 31h11M66 31h1M35 32h13M66 32h1M34 33h16M66 33h1M34 34h17M66 34h1M34 35h7M42 35h11M13 36h3M34 36h7M44 36h5M51 36h3M11 37h6M34 37h7M45 37h3M53 37h2M10 38h7M34 38h8M46 38h2M54 38h2M10 39h7M34 39h8M47 39h2M55 39h2M10 40h7M35 40h8M48 40h2M55 40h2M11 41h5M35 41h8M49 41h3M54 41h4M11 42h4M35 42h9M50 42h7M35 43h9M52 43h5M35 44h10M54 44h1M36 45h9M36 46h10M36 47h4M41 47h6M37 48h2M40 48h8M37 49h1M39 49h10M39 50h10M17 51h1M38 51h2M42 51h8M71 51h1M16 52h2M38 52h1M43 52h7M70 52h2M16 53h2M43 53h8M69 53h2M16 54h2M37 54h1M43 54h8M67 54h4M15 55h3M37 55h1M43 55h8M64 55h6M15 56h3M37 56h1M43 56h8M61 56h8M15 57h2M37 57h2M42 57h8M57 57h10M38 58h12M59 58h5M38 59h11M39 60h10M40 61h8M42 62h4M47 70h3M46 71h5M45 72h5M45 73h4" />
<path stroke="#ffffff" d="M23 16h1M33 16h1M32 17h1M34 17h1M34 18h1M34 19h1M8 41h1M8 42h1M51 44h1M58 44h1M51 45h1M55 46h2M56 47h1M14 70h2M13 71h2M16 71h2M12 72h2M15 72h2M47 74h1M50 74h1M46 75h2M49 75h3M53 75h1M47 76h1M50 76h2M53 76h1M51 77h1" />
<path stroke="#cdcdcd" d="M32 16h1M9 41h1M9 43h1M58 43h1M9 44h2M12 44h1M52 44h1M9 45h1M55 45h2M13 69h1M12 70h1M17 72h1M50 73h1M46 74h1M49 74h1M51 74h1M53 74h2M54 75h1" />
<path stroke="#000000" d="M23 17h1M31 17h1M33 17h1M23 18h1M31 18h1M33 18h1M32 19h1M20 22h1M20 23h1M21 25h1M23 27h2M30 27h2M25 28h5M23 29h1M24 30h1M53 35h1M54 36h1M55 37h1M44 38h1M56 38h1M44 39h1M57 39h1M20 41h1M45 41h1M58 41h1M7 42h1M9 42h1M20 42h1M45 42h1M58 42h1M7 43h2M19 43h1M59 43h1M8 44h1M11 44h1M13 44h1M19 44h1M46 44h1M59 44h1M8 45h1M10 45h1M12 45h2M19 45h1M46 45h1M50 45h1M52 45h1M54 45h1M58 45h1M9 46h1M19 46h1M47 46h1M50 46h2M54 46h1M57 46h1M18 47h1M47 47h1M55 47h1M57 47h1M18 48h1M48 48h1M56 48h1M18 49h1M49 49h1M18 50h1M18 51h1M50 51h1M72 51h1M18 52h1M51 52h1M72 52h1M72 53h1M52 54h1M52 55h1M71 55h1M36 56h1M52 56h1M36 57h1M52 57h1M70 57h1M36 58h1M52 58h1M69 58h1M37 59h1M52 59h1M68 59h1M37 60h1M67 60h1M38 61h1M39 62h1M51 62h1M65 62h1M51 63h1M63 63h2M61 64h2M25 65h2M59 65h2M27 66h2M57 66h2M29 67h2M51 67h1M53 67h3M32 68h4M44 68h1M52 68h1M38 69h4M52 69h1M25 70h1M53 70h1M22 71h2M54 71h1M11 72h1M14 72h1M18 72h3M43 72h1M12 73h6M43 73h1M55 74h1M44 75h1M55 75h1M45 76h2M48 76h1M52 76h1M54 76h1M47 77h2M50 77h1M53 77h1M51 78h2" />
<path stroke="#9c4a94" d="M17 18h1M51 18h1M18 19h1M51 19h1M18 20h1M51 20h2M19 21h1M51 21h2M19 22h1M50 22h1M53 22h1M19 23h1M50 23h1M53 23h1M20 24h1M50 24h1M54 24h1M20 25h1M49 25h1M54 25h1M21 26h2M49 26h1M54 26h1M22 27h1M48 27h1M55 27h1M21 28h4M47 28h1M55 28h1M24 29h2M46 29h1M49 29h3M55 29h1M48 30h1M52 30h2M56 30h1M54 31h1M56 31h1M55 32h2" />
<path stroke="#cd7bbd" d="M52 18h2M17 19h1M52 19h4M17 20h1M53 20h5M17 21h2M53 21h6M18 22h1M51 22h2M54 22h6M18 23h1M51 23h2M54 23h2M58 23h3M18 24h2M51 24h3M60 24h2M18 25h2M50 25h4M61 25h2M19 26h2M50 26h4M55 26h1M62 26h1M19 27h3M49 27h6M63 27h1M20 28h1M48 28h7M63 28h1M20 29h1M47 29h2M52 29h3M56 29h1M58 29h3M64 29h1M46 30h2M54 30h2M57 30h1M61 30h2M64 30h1M55 31h1M63 31h1M65 31h1M64 32h2" />
<path stroke="#eeacee" d="M56 23h2M55 24h5M55 25h6M56 26h6M56 27h7M56 28h7M57 29h1M61 29h3M63 30h1M64 31h1" />
<path stroke="#a48352" d="M33 29h1M27 30h6M33 32h1M26 33h7M25 34h1M23 37h10M21 41h13M20 43h1M21 45h14M34 49h2M19 50h14M36 50h1M19 53h2M34 53h3M21 54h13M21 58h1M34 58h2M22 59h12M37 61h1M23 62h1M34 62h3M24 63h10M62 63h1M39 64h2M56 64h1M59 64h1M27 65h1M36 65h3M53 65h1M56 65h1M29 66h7M43 66h2M53 66h1M32 67h1M40 67h3M37 68h3" />
<path stroke="#626262" d="M8 40h2M7 41h1M10 41h1M10 43h1M12 43h2M13 68h1M12 69h1M11 70h1M13 70h1M11 71h2M15 71h1M48 75h1M49 76h1M52 77h1" />
</svg>