<svg xmlns="http://www.w3.org/2000/svg" viewBox="0 -0.5 80 80" shape-rendering="crispEdges">
<metadata>Made with Pixels to Svg https://codepen.io/shshaw/pen/XbxvNj</metadata>
<path stroke="#202031" d="M42 21h1M37 22h2M41 22h1M43 22h1M39 23h3M43 23h1M37 24h1M42 24h3M37 25h1M42 25h6M36 26h1M40 26h7M35 27h1M40 27h1M42 27h4M34 28h1M43 28h2M33 29h1M43 29h2M18 30h5M33 30h1M43 30h2M18 31h1M23 31h4M33 31h2M43 31h2M18 32h1M27 32h2M34 32h1M43 32h2M19 33h1M27 33h3M35 33h1M42 33h3M19 34h1M28 34h2M35 34h1M41 34h3M19 35h1M29 35h1M20 36h1M22 36h1M29 36h1M20 37h3M21 38h2M21 39h3M22 40h4M35 48h2M35 49h3" />
<path stroke="#524141" d="M43 21h1M42 22h1M37 23h2M42 23h1M38 24h4M38 25h4M37 26h2M36 27h2M35 28h2M34 29h2M34 30h2M19 31h4M19 32h8M20 33h3M26 33h1M20 34h4M20 35h2M21 36h1M23 38h1M38 40h1M37 41h1M35 50h1M37 50h1M46 50h1M46 51h2M47 52h2M47 53h1" />
<path stroke="#bd7b00" d="M39 26h1M41 27h1M37 28h1M42 28h1M36 29h1M42 29h1M42 30h1M42 31h1M42 32h1M25 33h1M41 33h1M27 34h1M39 36h1M30 37h1M24 39h1M28 39h1M27 41h1M32 44h1M38 45h1M32 46h2M39 49h1M31 50h1M33 51h1M31 54h1M33 54h2" />
<path stroke="#ffd500" d="M38 27h2M38 28h3M37 29h5M37 30h5M36 31h6M36 32h6M24 33h1M36 33h5M24 34h3M37 34h4M23 35h6M37 35h1M23 36h6M33 36h6M24 37h5M34 37h6M24 38h6M35 38h1M38 38h3M25 39h2M39 39h2M34 40h1M39 40h1M29 41h1M33 41h3M38 41h1M31 42h8M32 43h8M33 44h6M31 45h3M36 45h2M34 46h2M38 46h1M33 47h1M37 47h3M32 48h3M38 48h2M32 49h2M38 50h1M34 51h5M33 52h5M35 53h2M40 54h1M39 55h3M40 56h1" />
<path stroke="#de9c39" d="M41 28h1M36 30h1M35 31h1M35 32h1M23 33h1M36 34h1M22 35h1M36 35h1M38 35h2M23 37h1M29 37h1M40 37h1M27 39h1M41 39h1M28 40h1M31 43h1M31 44h1M39 44h2M29 45h1M39 45h1M31 46h1M36 46h1M35 47h1M34 49h1M40 49h1M32 50h2M36 50h1M39 50h2M39 51h2M38 52h3M33 53h2M37 53h4M32 54h1M35 54h4M32 55h3M41 56h1" />
<path stroke="#000000" d="M34 33h1M40 35h3M37 38h1M37 39h2M26 40h2M36 40h2M29 42h1M29 43h1M29 44h2M40 47h1M40 48h1M44 49h3M43 50h3M47 50h1M42 51h4M48 51h1M42 52h1M45 52h2M49 52h1M46 53h1M48 53h1M47 54h1M36 55h3M42 55h1M32 56h3M42 56h1M40 57h2" />
<path stroke="#5a2000" d="M33 35h1M31 36h1M40 36h1M41 37h1M41 38h1M42 39h1M42 40h1M27 42h1M27 43h1M27 44h1M41 44h1M30 45h1M40 45h1M37 46h1M39 46h1M32 47h1M34 47h1M36 47h1M31 48h1M37 48h1M31 49h1M38 49h1M41 49h1M34 50h1M41 50h1M32 51h1M41 51h1M32 52h1M41 52h1M32 53h1M41 53h1M31 55h1M35 55h1" />
<path stroke="#8b4a00" d="M34 35h2M32 36h1M39 54h1M41 54h1M39 56h1" />
<path stroke="#ffee6a" d="M31 37h3M30 38h5M29 39h6M29 40h5M28 41h1M30 41h3M28 42h1M28 43h1M28 44h1" />
<path stroke="#948b7b" d="M36 38h1M35 39h1M35 40h1M36 41h1M30 42h1" />
<path stroke="#eee6cd" d="M36 39h1M30 43h1" />
<path stroke="#ff3141" d="M40 40h2M39 41h3M39 42h3M40 43h1M28 45h1M35 45h1M29 46h2M31 47h1" />
<path stroke="#8b2020" d="M42 41h1M42 42h1M41 43h1M34 45h1M28 46h1M29 47h1" />
<path stroke="#bd2929" d="M30 47h1" />
</svg>