<svg xmlns="http://www.w3.org/2000/svg" viewBox="0 -0.5 80 80" shape-rendering="crispEdges">
<metadata>Made with Pixels to Svg https://codepen.io/shshaw/pen/XbxvNj</metadata>
<path stroke="#d56a8b" d="M36 27h3M35 28h1M39 28h2M34 29h1M41 29h1M34 30h1M35 32h1M39 32h1M35 33h1M39 33h1M37 35h2M32 42h1M43 42h1M31 43h1M44 43h1M45 44h1M51 44h2M33 45h1M42 45h1M48 45h1M30 46h1M31 49h1M35 50h1M48 51h1" />
<path stroke="#ffd5f6" d="M36 28h2M35 29h5M35 30h6M35 31h2M40 31h2M36 32h1M38 32h1M40 32h2M36 33h3M40 33h3M33 34h3M37 34h2M40 34h3M32 35h5M39 35h4M32 36h11M31 37h12M31 38h3M35 38h4M40 38h4M31 39h3M35 39h4M40 39h4M31 40h1M35 40h4M42 40h2M30 41h5M36 41h2M39 41h6M30 42h2M34 42h1M39 42h2M44 42h1M32 43h2M35 43h6M42 43h2M31 44h3M35 44h5M42 44h3M32 45h1M36 45h3M43 45h2" />
<path stroke="#f6b4d5" d="M38 28h1M40 29h1M39 31h1M42 31h1M34 32h1M42 32h2M33 33h2M32 34h1M31 36h1M43 37h1M44 39h1M30 40h1M33 40h1M40 40h1M44 40h1M45 41h1M35 42h1M38 42h1M41 42h1M45 42h2M30 43h1M46 43h2M30 44h1M40 44h1M46 44h2M30 45h2M34 45h2M39 45h3M45 45h3M51 45h1M31 46h17M51 46h1M31 47h16M50 47h2M31 48h16M50 48h2M32 49h14M49 49h2M32 50h3M36 50h4M42 50h4M33 51h1M43 51h2" />
<path stroke="#e68bb4" d="M41 30h1M37 31h2M43 31h1M37 32h1M36 34h1M39 34h1M32 40h1M41 40h1M45 40h1M35 41h1M38 41h1M46 41h3M47 42h2M45 43h1M48 43h1M50 43h1M48 44h1M50 44h1M49 45h2M49 46h2M47 47h1M49 47h1M48 48h2M46 49h1M48 49h1M40 50h1M47 50h2M34 51h1" />
<path stroke="#94395a" d="M42 30h2M34 31h1M34 40h1M39 40h1M49 40h1M29 41h1M49 41h1M29 42h1M33 42h1M42 42h1M50 42h1M29 43h1M34 43h1M41 43h1M51 43h1M29 44h1M34 44h1M41 44h1M29 45h1M52 45h1M30 47h1M30 48h1M41 50h1M49 50h1M35 51h1M42 51h1M45 51h2" />
<path stroke="#209c39" d="M31 31h2M29 32h2M44 32h1M27 33h2M43 33h1M31 34h1M43 34h1M52 34h1M31 35h1M51 35h2M27 36h1M30 36h1M44 36h1M49 36h3M28 37h2M45 37h7M28 38h2M45 38h6M29 39h1M46 39h3" />
<path stroke="#41c552" d="M33 31h1M33 32h1M45 32h1M32 33h1M44 33h1M27 34h1M44 34h1M49 34h3M27 35h4M44 35h7M28 36h2M45 36h4" />
<path stroke="#086a08" d="M44 31h4M48 32h3M51 33h2M26 34h1M53 34h1M43 35h1M43 36h1M52 36h1M27 37h1M30 37h1M44 37h1M30 38h1M44 38h1M30 39h1M45 39h1M49 39h1M46 40h1" />
<path stroke="#62ee6a" d="M31 32h2M46 32h2M29 33h3M45 33h6M28 34h3M45 34h4" />
<path stroke="#101010" d="M26 35h1M53 35h1M26 36h1M52 37h1M27 38h1M51 38h1M28 39h1M34 39h1M39 39h1M50 39h1M29 40h1M47 40h2M49 42h1M49 43h1M49 44h1M48 46h1M52 46h1M48 47h1M52 47h1M47 48h1M52 48h1M47 49h1M51 49h1M31 50h1M46 50h1M50 50h1M32 51h1M36 51h6M47 51h1M33 52h2M43 52h2" />
<path stroke="#ffffff" d="M34 38h1M39 38h1" />
<path stroke="#9c0000" d="M36 42h2" />
</svg>