<svg xmlns="http://www.w3.org/2000/svg" viewBox="0 -0.5 80 80" shape-rendering="crispEdges">
<metadata>Made with Pixels to Svg https://codepen.io/shshaw/pen/XbxvNj</metadata>
<path stroke="#837b10" d="M31 19h1M30 20h1M35 20h1M30 21h1M34 21h1M27 22h1M29 22h1M33 22h1M26 23h1M29 23h1M32 23h1M35 23h1M38 23h2M26 24h1M28 24h1M35 24h3M25 25h1M34 25h2M24 26h2M31 28h3M37 28h3M30 29h1M40 29h2M29 30h1M33 30h1M42 30h1M33 31h1M39 31h1M37 32h1M38 33h1M39 34h1M37 36h1M38 37h1M25 38h1M27 38h1M24 39h1M36 39h1M25 40h2M55 40h3M26 41h1M31 41h1M34 41h1M52 41h3M58 41h1M26 42h1M28 42h1M31 42h1M34 42h1M50 42h2M58 42h1M28 43h1M32 43h1M32 44h1M53 46h1" />
<path stroke="#bdac20" d="M31 20h1M31 21h1M31 22h1M35 22h1M27 23h1M31 23h1M27 24h1M31 24h1M34 24h1M38 24h1M26 25h2M33 25h1M36 25h2M31 26h5M24 27h3M29 27h4M25 28h5M28 38h2M25 39h1M27 39h5M27 40h7M27 41h1M29 41h2M32 41h2M55 41h3M29 42h1M32 42h2M52 42h6M29 43h1M33 43h1M33 44h1" />
<path stroke="#000000" d="M36 20h1M32 21h1M36 21h1M32 22h1M36 22h1M39 24h1M38 25h1M39 26h1M23 27h1M38 27h1M23 28h1M23 29h2M24 30h2M31 30h1M30 31h2M40 31h2M38 32h2M27 33h2M55 33h1M26 34h4M55 34h1M25 35h1M38 35h2M54 35h1M54 36h1M26 37h3M53 37h1M37 38h2M52 38h1M52 39h1M36 40h1M51 40h1M28 41h1M36 41h1M50 41h1M27 42h1M30 42h1M35 42h3M49 42h1M27 43h1M30 43h1M34 43h1M37 43h1M48 43h2M57 43h1M27 44h1M29 44h2M34 44h1M38 44h1M47 44h2M53 44h4M29 45h1M33 45h1M39 45h2M45 45h2M48 45h5M28 46h1M30 46h1M41 46h4M47 46h2M54 46h2M29 47h1M31 47h1M47 47h1M49 47h2M56 47h1M30 48h3M44 48h1M46 48h1M51 48h2M55 48h1M31 49h1M34 49h2M44 49h2M53 49h2M32 50h1M36 50h4M44 50h1M33 51h1M35 51h1M40 51h1M43 51h1M28 52h3M41 52h1M35 53h1M41 53h1M44 53h1M36 54h1M42 54h1M45 54h1M32 55h5M46 55h1M31 56h1M43 56h2M28 57h2M42 57h1M45 57h2M40 58h2M47 58h1" />
<path stroke="#e6ee52" d="M35 21h1M30 22h1M34 22h1M30 23h1M33 23h2M29 24h2M32 24h2M28 25h5M26 26h5M27 27h2" />
<path stroke="#94a418" d="M36 26h3M33 27h5M24 28h1M30 28h1M34 28h3M25 29h1M28 29h2M33 29h7M34 30h8M34 31h5M31 32h6M31 33h7M30 34h9M30 35h8M30 36h7M29 37h9M26 38h1M30 38h7M26 39h1M32 39h4M34 40h2M35 41h1M50 43h7M49 44h4M49 46h4M51 47h5M53 48h2" />
<path stroke="#bd6a00" d="M26 29h2M28 30h1M24 31h1M29 31h1M47 31h4M23 32h1M30 32h1M43 32h3M51 32h4M23 33h1M30 33h1M40 33h2M24 34h1M27 35h1M29 35h1M26 36h1M29 36h1M32 52h1M34 52h1M31 53h2M34 53h1M29 54h2" />
<path stroke="#c5bd9c" d="M31 29h2M35 44h3M35 45h2M38 45h1M37 46h3M42 50h2M41 51h2M28 54h1M35 54h1" />
<path stroke="#fff673" d="M26 30h2M26 31h2M25 32h2M50 32h1M24 33h2M44 33h1M54 33h1M53 34h1M52 35h1M46 36h1M53 36h1M47 37h1M52 37h1M51 38h1M48 40h1M50 40h1M49 41h1M42 52h1M43 53h1M31 54h2M43 54h1M30 55h1M42 55h1M45 55h1M46 56h1" />
<path stroke="#ffffff" d="M30 30h1M32 30h1M32 31h1M28 53h1M29 55h1M29 56h1M41 56h1M47 56h1M41 57h1M47 57h1" />
<path stroke="#ffd500" d="M25 31h1M28 31h1M27 32h3M26 33h1M29 33h1M43 33h1M49 33h3M25 34h1M40 34h5M48 34h1M28 35h1M40 35h5M53 35h1M27 36h2M39 36h7M51 36h2M39 37h8M39 38h8M39 39h9M50 39h1M40 40h8M40 41h7M42 42h3M34 51h1M33 52h1M29 53h2M33 53h1M33 54h2M31 55h1M43 55h2M42 56h1M45 56h1" />
<path stroke="#ffffc5" d="M24 32h1M47 32h3M45 33h4M52 33h2M45 34h2M49 34h4M47 35h5M47 36h4M48 37h1M51 37h1M49 38h2M48 39h2" />
<path stroke="#eea400" d="M46 32h1M42 33h1M47 34h1M54 34h1M45 35h2M38 36h1M49 37h2M47 38h2M37 39h2M51 39h1M37 40h3M49 40h1M37 41h3M47 41h2M38 42h4M45 42h4M38 43h10M28 44h1M39 44h8M28 45h1M41 45h4M29 46h1M30 47h1M43 52h1M42 53h1M44 54h1" />
<path stroke="#8b8362" d="M31 43h1M35 43h2M31 44h1M30 45h3M34 45h1M47 45h1M31 46h4M40 46h1M45 46h2M35 47h7M43 47h4M34 48h6M42 48h2M45 48h1M32 49h2M36 49h2M40 49h4M33 50h2M40 50h2" />
<path stroke="#625a4a" d="M37 45h1M35 46h2M32 47h3M42 47h1M33 48h1M40 48h2M38 49h2M35 50h1M27 53h1M27 54h1M28 55h1M41 55h1M47 55h1M28 56h1M30 56h1M40 56h1M48 56h1M40 57h1M48 57h1" />
</svg>