<svg xmlns="http://www.w3.org/2000/svg" viewBox="0 -0.5 80 80" shape-rendering="crispEdges">
<metadata>Made with Pixels to Svg https://codepen.io/shshaw/pen/XbxvNj</metadata>
<path stroke="#526a52" d="M36 29h8M33 30h2M44 30h1M31 31h2M30 32h1M29 33h1M28 34h1M27 35h1M26 36h1M25 38h1M24 40h1M24 41h1M24 42h1M24 43h1M30 44h1M51 47h1" />
<path stroke="#9cb494" d="M35 30h1M41 30h3M43 31h2M31 32h1M32 33h1M48 33h2M31 34h1M34 34h1M47 34h4M41 35h1M46 35h3M30 36h1M40 36h1M47 36h1M26 37h1M31 37h1M41 37h1M30 38h1M52 38h1M25 39h1M50 39h3M48 40h4M45 41h1M48 41h3M46 42h3M25 44h1M51 44h2M55 44h1M26 45h1M47 45h6M54 45h1M26 46h2M39 46h12M52 46h4M28 47h20M49 47h2M32 48h9M42 48h2M45 48h1M47 48h1M50 48h1M43 49h1M47 49h1" />
<path stroke="#7b9473" d="M36 30h5M34 31h5M33 32h4M33 33h3M43 33h2M32 34h2M42 34h4M31 35h2M42 35h3M31 36h1M41 36h2M30 37h1M40 37h1M46 38h2M45 39h3M43 40h5M27 41h1M33 41h1M42 41h3M28 42h4M35 42h1M27 43h1M32 43h1M37 43h1M46 43h1M54 43h1M28 44h1M44 44h1M53 44h1M25 45h1M42 45h5M53 45h1M51 46h1M48 47h1M52 47h1M41 48h1M46 48h1M48 48h1" />
<path stroke="#101010" d="M45 30h2M47 31h2M49 32h1M50 33h1M51 34h1M52 36h1M53 38h1M53 39h1M53 40h1M53 41h1M53 42h2M53 43h1M32 44h1M27 45h1M32 45h1M28 46h4M28 48h2M32 49h10M46 49h1M50 49h2M43 50h2M47 50h2" />
<path stroke="#bdd5ac" d="M33 31h1M39 31h4M32 32h1M37 32h7M30 33h2M36 33h7M29 34h2M35 34h7M28 35h3M33 35h8M45 35h1M27 36h3M32 36h8M43 36h4M27 37h3M32 37h8M42 37h5M26 38h4M31 38h15M26 39h19M25 40h18M25 41h2M28 41h5M34 41h8M46 41h2M25 42h1M27 42h1M32 42h2M36 42h10M26 43h1M33 43h3M38 43h8M26 44h1M33 44h11M33 45h9M32 46h7" />
<path stroke="#314a39" d="M45 31h2M44 32h5M45 33h3M46 34h1M49 35h4M48 36h4M47 37h6M48 38h4M48 39h2M52 40h1M51 41h2M26 42h1M34 42h1M49 42h4M25 43h1M36 43h1M47 43h6M55 43h2M24 44h1M45 44h6M54 44h1M56 44h1M55 45h1M25 46h1M56 46h1M26 47h2M53 47h4M30 48h2M44 48h1M49 48h1M51 48h2M42 49h1M44 49h2M48 49h1" />
<path stroke="#ffbd83" d="M28 43h3M29 44h1M31 44h1" />
<path stroke="#de8b52" d="M31 43h1M28 45h3" />
<path stroke="#b46229" d="M27 44h1M31 45h1" />
</svg>