<svg xmlns="http://www.w3.org/2000/svg" viewBox="0 -0.5 80 80" shape-rendering="crispEdges">
<metadata>Made with Pixels to Svg https://codepen.io/shshaw/pen/XbxvNj</metadata>
<path stroke="#9c5abd" d="M54 22h3M27 23h1M53 23h1M52 24h1M51 25h1M55 25h1M38 26h2M51 26h1M55 26h1M36 27h1M50 27h1M52 27h1M54 27h1M24 28h2M50 28h1M52 28h1M54 28h1M23 29h1M31 29h2M38 29h1M43 29h2M49 29h1M51 29h1M55 29h1M22 30h1M30 30h1M33 30h1M42 30h3M48 30h1M51 30h1M34 31h1M44 31h2M50 31h1M54 31h1M34 32h1M29 33h1M34 33h1M45 33h1M50 33h1M53 33h1M34 34h1M44 34h2M51 34h1M33 35h1M45 35h2M32 36h1M36 36h1M35 37h1M37 38h1M44 38h2M46 39h3M34 41h2M53 41h5M51 42h2M57 42h1M48 43h3M56 43h1M45 44h3M55 44h1M48 45h3M55 45h1M51 46h2M55 46h1M49 47h1M56 47h1M50 48h1M57 48h1M50 49h1M57 49h1M51 50h1M57 50h1M52 51h1M56 52h1M56 53h1M57 54h1M57 55h1M57 56h1" />
<path stroke="#73319c" d="M28 23h1M56 23h1M26 24h1M28 24h1M54 24h2M26 25h1M29 25h1M53 25h1M26 26h1M29 26h4M40 26h3M53 26h1M26 27h1M43 27h2M45 28h1M45 29h1M45 30h2M55 30h1M22 31h1M26 31h1M46 31h2M54 32h1M46 33h3M40 34h3M46 34h3M50 34h1M53 34h1M38 35h2M47 35h3M52 35h2M28 36h1M37 36h1M49 36h1M27 37h1M38 38h1M29 40h2M31 41h2M33 42h2M36 42h1M48 42h1M36 43h1M47 43h1M37 44h3M37 45h1M40 45h2M44 45h2M38 46h1M46 46h1M47 47h1M47 48h1M48 49h1M48 50h1M49 51h1M49 52h1M50 53h1M51 54h2M53 55h2M55 56h1M56 57h2" />
<path stroke="#cd94ee" d="M54 23h2M53 24h1M28 25h1M52 25h1M52 26h1M37 27h1M42 27h1M51 27h1M44 28h1M51 28h1M50 29h1M49 30h2M54 30h1M43 31h1M49 31h1M52 31h2M49 32h3M46 36h1M36 37h1M39 37h1M45 37h1M44 39h2M31 40h1M43 40h2M33 41h1M42 41h3M35 42h1M40 42h4M35 43h1M37 43h6M36 44h1M48 44h1M36 45h1M46 45h2M54 45h1M36 46h1M47 46h1M53 46h1M36 47h1M53 47h3M37 48h1M48 48h1M53 51h1M56 51h1M50 52h1M54 52h2" />
<path stroke="#eecdff" d="M27 24h1M27 25h1M28 27h4M27 28h7M53 28h1M24 29h7M52 29h3M24 30h6M52 30h2M27 31h1M51 31h1M30 34h1M40 35h2M39 36h2M54 42h3M52 43h4M52 44h3M53 45h1M54 46h1M51 47h1M51 48h5M52 49h5M52 50h5M54 51h2" />
<path stroke="#d5acee" d="M54 25h1M27 26h2M54 26h1M27 27h1M32 27h1M38 27h4M53 27h1M26 28h1M34 28h2M38 28h6M33 29h5M39 29h3M23 30h1M34 30h8M28 31h1M35 31h8M35 32h11M52 32h2M37 33h7M51 33h2M35 34h2M43 34h1M52 34h1M29 35h1M34 35h4M43 35h2M29 36h2M33 36h3M38 36h1M42 36h4M28 37h7M37 37h2M41 37h1M44 37h1M25 38h12M40 38h4M28 39h16M32 40h11M36 41h6M37 42h3M53 42h1M51 43h1M35 44h1M49 44h3M35 45h1M51 45h2M35 46h1M37 46h1M48 46h3M37 47h1M48 47h1M50 47h1M52 47h1M36 48h1M49 48h1M56 48h1M49 49h1M51 49h1M49 50h2M50 51h2M51 52h3M51 53h5M53 54h4M55 55h2M56 56h1" />
<path stroke="#101010" d="M33 27h3M36 28h2M46 29h1M47 30h1M48 31h1M22 32h1M27 32h1M31 32h1M48 32h1M23 33h1M28 33h1M32 33h1M49 33h1M24 34h1M28 34h1M49 34h1M24 35h1M28 35h1M42 35h1M50 35h1M23 36h2M41 36h1M50 36h1M23 37h1M40 37h1M50 37h1M24 38h1M39 38h1M50 38h1M25 39h3M50 39h1M28 40h1M49 40h1M49 41h1M34 43h1M34 44h1M34 45h1M42 45h2M34 46h1M35 47h1M38 47h1M35 48h1M38 48h1M36 49h2" />
<path stroke="#bd83d5" d="M42 29h1M23 31h1M29 31h1M28 32h2M46 32h2M35 33h2M44 33h1M29 34h1M37 34h3M30 35h1M31 36h1M47 36h2M42 37h2M46 37h4M46 38h4M49 39h1M45 40h4M45 41h4M44 42h4M43 43h4M40 44h5" />
<path stroke="#ffffff" d="M31 30h2M30 31h1M33 31h1M23 32h1M26 32h1M30 32h1M32 32h2M30 33h1M33 33h1M31 34h3M31 35h2M24 37h1M26 37h1" />
<path stroke="#8b0000" d="M24 31h2M24 32h2M24 33h4M25 34h3M25 35h3M25 36h3M25 37h1" />
<path stroke="#aca4b4" d="M31 31h1" />
<path stroke="#7b7383" d="M32 31h1M31 33h1" />
</svg>