<svg xmlns="http://www.w3.org/2000/svg" viewBox="0 -0.5 80 80" shape-rendering="crispEdges">
<metadata>Made with Pixels to Svg https://codepen.io/shshaw/pen/XbxvNj</metadata>
<path stroke="#836a29" d="M46 18h2M43 19h3M51 19h1M40 20h2M53 20h1M37 21h2M50 21h1M35 22h2M49 22h4M54 22h2M34 23h1M48 23h1M47 24h1M32 25h1M46 25h1M31 26h1M45 26h1M30 27h1M44 27h1M53 32h1M49 33h1M53 33h1M52 34h2M52 35h1M44 36h1M51 36h2M44 37h1M51 37h2M43 38h1M50 38h2M27 39h1M32 39h1M43 39h1M50 39h2M28 40h6M43 40h1M49 40h2M29 41h7M49 41h2M30 42h9M49 42h2M53 42h1M29 43h6M49 43h2M52 43h2M49 44h2M52 44h5M41 45h1M49 45h1M51 45h6M25 46h1M41 46h1M49 46h1M51 46h5M25 47h2M41 47h1M49 47h1M51 47h4M25 48h6M40 48h1M49 48h1M51 48h4M26 49h2M31 49h3M40 49h1M50 49h4M55 49h1M59 49h1M26 50h2M34 50h4M40 50h1M50 50h3M54 50h2M27 51h1M38 51h2M50 51h2M56 51h3M41 52h8M52 52h7M41 53h17M28 54h2M41 54h16M28 55h4M41 55h15M28 56h4M41 56h9M28 57h4M51 57h3M29 58h3M38 58h3M43 58h7M51 58h3M31 59h1M38 59h2M43 59h7M51 59h3M42 60h8M51 60h3M43 61h7M51 61h1M43 62h7" />
<path stroke="#4a3908" d="M48 18h3M52 19h1M54 20h1M55 21h1M56 22h1M57 23h1M33 24h1M58 24h1M33 25h1M58 25h1M33 26h1M36 26h1M58 26h1M37 27h7M58 27h1M44 28h1M58 28h1M45 29h1M58 29h1M46 30h1M59 30h1M42 31h1M47 31h1M53 31h3M59 31h1M43 32h1M48 32h1M52 32h1M54 32h1M56 32h1M59 32h1M54 33h1M57 33h1M59 33h1M51 34h1M57 34h1M59 34h1M40 35h4M49 35h1M53 35h1M57 35h1M59 35h1M50 36h1M53 36h1M57 36h1M59 36h1M58 37h2M49 38h1M52 38h1M58 38h1M31 39h1M33 39h1M52 39h1M58 39h1M26 40h1M34 40h2M48 40h1M51 40h1M58 40h1M36 41h2M51 41h1M58 41h1M51 42h2M58 42h1M51 43h1M54 43h2M58 43h1M24 44h1M51 44h1M57 44h1M25 45h1M50 45h1M26 46h1M50 46h1M27 47h1M50 47h1M50 48h1M49 49h1M49 50h1M56 50h4M40 51h8M49 51h1M53 51h3M59 51h1M27 53h1M27 54h1M27 55h1M27 56h1M32 56h3M32 57h5M39 57h1M50 57h1M32 58h5M42 58h1M50 58h1M32 59h5M42 59h1M50 59h1M36 60h1M50 60h1M42 61h1M50 61h1M40 62h1M42 62h1M50 62h1" />
<path stroke="#f6d55a" d="M46 19h5M43 20h7M40 21h10M37 22h12M35 23h13M35 24h12M36 25h10M37 26h8M41 31h1M42 32h1M43 33h2" />
<path stroke="#c59c52" d="M42 20h1M50 20h1M39 21h1M53 22h1M49 23h8M34 24h1M48 24h10M35 25h1M47 25h11M32 26h1M46 26h12M31 27h1M45 27h13M45 28h13M46 29h12M41 30h1M47 30h12M48 31h5M56 31h3M49 32h3M55 32h1M57 32h2M45 33h1M50 33h2M55 33h2M58 33h1M50 34h1M54 34h3M58 34h1M50 35h1M54 35h3M58 35h1M41 36h3M45 36h5M54 36h3M58 36h1M42 37h2M45 37h5M53 37h5M42 38h1M44 38h5M53 38h5M59 38h1M41 39h2M44 39h5M53 39h5M59 39h1M27 40h1M41 40h2M44 40h4M52 40h6M59 40h1M26 41h3M40 41h8M52 41h6M59 41h1M26 42h4M39 42h9M54 42h4M59 42h1M25 43h4M35 43h13M56 43h2M59 43h1M25 44h23M58 44h2M26 45h15M42 45h6M58 45h2M27 46h14M42 46h6M57 46h3M28 47h13M42 47h6M56 47h4M31 48h9M41 48h7M56 48h4M28 49h3M34 49h6M41 49h7M56 49h3M28 50h6M38 50h2M41 50h7M28 51h10M28 52h13M30 53h11M32 54h9M35 55h6M38 56h3M41 58h1M40 59h2M39 60h3M39 61h3M41 62h1" />
<path stroke="#ffee9c" d="M51 20h2M51 21h4" />
<path stroke="#181818" d="M34 25h1M34 26h2M37 28h7M38 29h7M25 30h1M38 30h3M42 30h4M25 31h1M39 31h2M43 31h4M25 32h1M39 32h3M44 32h4M25 33h1M39 33h4M46 33h3M52 33h1M39 34h11M26 35h1M44 35h5M51 35h1M26 36h1M29 36h1M40 36h1M29 37h2M41 37h1M50 37h1M27 38h1M30 38h3M41 38h1M60 38h1M26 39h1M28 39h3M49 39h1M60 39h1M40 40h1M60 40h1M25 41h1M38 41h2M48 41h1M60 41h1M25 42h1M48 42h1M60 42h1M24 43h1M48 43h1M60 43h1M48 44h1M60 44h1M24 45h1M48 45h1M57 45h1M60 45h1M24 46h1M48 46h1M56 46h1M60 46h1M24 47h1M48 47h1M55 47h1M60 47h1M24 48h1M48 48h1M55 48h1M60 48h1M25 49h1M48 49h1M54 49h1M60 49h1M48 50h1M53 50h1M26 51h1M48 51h1M52 51h1M26 52h2M49 52h3M59 52h1M26 53h1M28 53h2M58 53h1M26 54h1M30 54h2M57 54h1M26 55h1M32 55h3M56 55h1M35 56h3M50 56h6M27 57h1M37 57h2M40 57h10M54 57h1M28 58h1M37 58h1M54 58h1M29 59h2M37 59h1M54 59h1M31 60h5M37 60h2M54 60h1M38 61h1M52 61h2M39 62h1M51 62h1M41 63h9" />
<path stroke="#9c2029" d="M32 27h5M27 28h4M26 29h1M26 31h1M26 32h3M35 32h4M26 33h4M36 33h3M27 34h5M38 34h1M27 35h6M39 35h1M27 36h2M30 36h5M28 37h1M32 37h4M28 38h1M33 38h5M34 39h5M40 39h1M36 40h4" />
<path stroke="#de5252" d="M31 28h1M36 28h1M37 29h1M37 30h1M27 31h1M38 31h1M34 32h1M30 33h1M37 34h1M33 35h1M36 37h1" />
<path stroke="#ffac9c" d="M32 28h2M27 29h9M26 30h6" />
<path stroke="#ff6a6a" d="M34 28h2M36 29h1M32 30h5M28 31h10M29 32h5M31 33h5M32 34h5M34 35h5M35 36h5M37 37h4M38 38h3M39 39h1" />
<path stroke="#5a1820" d="M26 34h1M27 37h1M31 37h1M29 38h1" />
</svg>