<svg xmlns="http://www.w3.org/2000/svg" viewBox="0 -0.5 80 80" shape-rendering="crispEdges">
<metadata>Made with Pixels to Svg https://codepen.io/shshaw/pen/XbxvNj</metadata>
<path stroke="#7bac00" d="M7 0h2M2 1h2M10 1h2M66 3h2M62 4h2M65 4h1M71 4h3M0 5h2M61 5h1M70 5h2M22 6h2M61 6h1M21 7h5M18 8h9M0 9h3M15 9h13M10 10h11M24 10h5M6 11h8M26 11h3M2 12h1M27 12h3M25 13h1M27 13h3M52 13h1M70 13h2M22 14h4M27 14h4M51 14h1M69 14h1M71 14h1M18 15h7M26 15h5M50 15h1M68 15h1M70 15h1M20 16h3M25 16h6M49 16h1M62 16h1M66 16h2M69 16h1M24 17h8M48 17h1M62 17h1M65 17h1M67 17h2M3 18h2M24 18h8M47 18h1M62 18h1M64 18h1M66 18h2M3 19h5M25 19h7M46 19h1M62 19h2M65 19h1M4 20h9M29 20h3M45 20h1M62 20h1M64 20h1M4 21h8M45 21h1M54 21h1M61 21h1M5 22h7M60 22h1M5 23h8M59 23h1M6 24h8M54 24h2M58 24h1M6 25h4M57 25h1M7 26h8M18 26h2M56 26h1M58 26h6M7 27h8M16 27h5M67 27h1M8 28h4M17 28h5M41 28h3M54 28h1M9 29h7M18 29h4M40 29h6M53 29h1M56 29h5M9 30h8M18 30h1M20 30h2M40 30h11M52 30h1M63 30h2M10 31h7M19 31h4M39 31h12M52 31h1M54 31h10M11 32h7M19 32h4M39 32h10M51 32h1M53 32h10M11 33h7M20 33h4M38 33h10M49 33h2M52 33h10M12 34h7M20 34h4M38 34h9M48 34h1M51 34h9M13 35h6M21 35h3M37 35h9M47 35h1M49 35h10M13 36h7M21 36h2M36 36h9M46 36h1M48 36h10M14 37h6M22 37h1M36 37h7M45 37h1M47 37h9M15 38h6M35 38h7M43 38h2M46 38h9M16 39h5M35 39h6M42 39h1M45 39h9M16 40h4M34 40h6M41 40h1M43 40h10M17 41h3M34 41h5M40 41h1M42 41h10M18 42h1M33 42h4M39 42h1M41 42h9M33 43h3M37 43h2M40 43h9M32 44h3M36 44h1M39 44h8M30 45h1M33 45h1M35 45h1M37 45h8M30 46h3M36 46h7M15 47h1M29 47h6M28 48h9M40 48h3M14 49h1M29 49h9M39 49h1M43 49h4M29 50h9M39 50h3M47 50h2M29 51h9M39 51h3M45 51h2M29 52h10M40 52h3M47 52h5M28 53h11M40 53h3M48 53h9M59 53h3M17 54h1M28 54h11M40 54h3M49 54h9M62 54h5M28 55h11M40 55h4M50 55h11M67 55h4M27 56h1M29 56h10M40 56h4M53 56h10M71 56h4M26 57h1M30 57h9M40 57h4M55 57h11M25 58h2M31 58h8M40 58h4M58 58h12M76 58h2M13 59h1M23 59h3M32 59h7M40 59h4M62 59h13M76 59h3M14 60h1M20 60h5M33 60h6M40 60h4M63 60h3M68 60h7M77 60h2M14 61h2M17 61h7M34 61h4M39 61h5M64 61h2M69 61h3M73 61h3M15 62h2M18 62h5M36 62h2M39 62h5M70 62h2M74 62h2M15 63h2M18 63h5M37 63h1M39 63h5M16 64h1M18 64h4M39 64h4M17 65h1M19 65h2M41 65h2M19 66h1" />
<path stroke="#417b00" d="M6 1h1M9 1h1M1 2h1M4 2h1M6 2h1M9 2h1M12 2h1M1 3h1M5 3h2M12 3h1M2 4h1M13 4h8M68 4h1M2 5h1M10 5h3M21 5h3M64 5h2M68 5h1M0 6h1M8 6h2M24 6h2M65 6h1M68 6h2M0 7h2M6 7h2M26 7h1M61 7h1M2 8h1M5 8h1M27 8h1M59 8h3M74 8h3M4 9h1M28 9h1M57 9h2M72 9h2M0 10h1M21 10h3M29 10h1M55 10h2M0 11h1M14 11h7M24 11h2M29 11h1M54 11h1M0 12h2M8 12h5M18 12h1M26 12h1M30 12h1M53 12h1M2 13h1M17 13h1M30 13h1M74 13h3M1 14h1M16 14h1M1 15h1M1 16h1M74 16h1M74 17h1M25 20h4M73 20h1M29 21h3M63 21h1M44 22h1M54 22h1M62 22h1M43 23h1M54 23h1M61 23h1M43 24h1M60 24h1M10 25h4M42 25h1M55 25h1M59 25h1M41 26h1M55 26h1M15 27h1M21 27h1M41 27h1M55 27h1M57 27h1M12 28h5M22 28h1M40 28h1M56 28h1M16 29h2M22 29h1M39 29h1M55 29h1M17 30h1M19 30h1M22 30h1M39 30h1M54 30h1M17 31h2M23 31h1M38 31h1M51 31h1M53 31h1M18 32h1M23 32h1M38 32h1M49 32h2M52 32h1M18 33h2M37 33h1M48 33h1M51 33h1M19 34h1M37 34h1M47 34h1M49 34h2M19 35h2M36 35h1M46 35h1M48 35h1M20 36h1M35 36h1M45 36h1M47 36h1M20 37h2M35 37h1M43 37h2M46 37h1M21 38h1M34 38h1M42 38h1M45 38h1M34 39h1M41 39h1M43 39h2M33 40h1M40 40h1M42 40h1M33 41h1M39 41h1M41 41h1M32 42h1M37 42h2M40 42h1M32 43h1M36 43h1M39 43h1M31 44h1M35 44h1M37 44h2M34 45h1M36 45h1M15 46h1M35 46h1M14 47h1M28 47h1M38 47h5M14 48h1M27 48h1M37 48h1M43 48h4M13 49h1M25 49h2M38 49h1M42 49h1M47 49h5M13 50h1M23 50h3M38 50h1M43 50h4M52 50h5M15 51h1M20 51h3M25 51h1M38 51h1M47 51h5M57 51h5M16 52h4M26 52h1M39 52h1M43 52h1M52 52h5M62 52h5M17 53h1M26 53h1M39 53h1M43 53h1M57 53h2M67 53h4M27 54h1M39 54h1M43 54h1M71 54h4M16 55h1M27 55h1M39 55h1M44 55h1M75 55h2M16 56h1M39 56h1M44 56h1M51 56h2M77 56h1M16 57h1M27 57h1M39 57h1M44 57h1M53 57h2M12 58h1M16 58h1M27 58h1M39 58h1M44 58h1M55 58h3M12 59h1M16 59h1M26 59h1M39 59h1M44 59h1M13 60h1M16 60h1M25 60h1M39 60h1M44 60h1M67 60h1M75 60h2M13 61h1M16 61h1M24 61h1M38 61h1M44 61h1M72 61h1M14 62h1M17 62h1M23 62h2M38 62h1M44 62h1M73 62h1M14 63h1M17 63h1M23 63h1M38 63h1M44 63h1M15 64h1M17 64h1M22 64h1M43 64h1M16 65h1M18 65h1M21 65h1M43 65h1M17 66h2M20 66h1M18 67h2" />
<path stroke="#9cd510" d="M7 1h2M2 2h2M7 2h2M10 2h2M2 3h3M7 3h5M3 4h10M3 5h7M13 5h1M20 5h1M1 6h7M10 6h1M21 6h1M2 7h4M8 7h1M20 7h1M3 8h2M6 8h1M17 8h1M3 9h1M5 9h1M14 9h1M1 10h2M4 10h6M1 11h3M3 12h3M3 13h5M24 13h1M2 14h5M21 14h1M2 15h5M2 16h6M3 17h6M5 18h5M8 19h4M43 26h1M45 26h1M42 27h1M44 27h1M46 27h1M45 28h1M47 28h1M46 29h1M48 29h1M61 30h2M28 49h1M28 50h1M28 51h1M28 52h1M26 56h1M12 57h1M25 57h1M24 58h1M14 59h1M22 59h1M15 60h1M19 60h1" />
<path stroke="#b4f600" d="M66 4h2M14 5h6M62 5h2M66 5h2M72 5h2M11 6h10M62 6h3M66 6h2M70 6h4M9 7h11M62 7h11M7 8h10M62 8h10M6 9h8M59 9h13M74 9h3M57 10h20M21 11h3M55 11h21M16 12h2M19 12h7M54 12h21M18 13h6M53 13h17M72 13h2M17 14h4M52 14h17M70 14h1M72 14h5M51 15h17M69 15h1M71 15h6M50 16h12M63 16h3M68 16h1M70 16h4M49 17h13M63 17h2M66 17h1M69 17h5M48 18h14M63 18h1M65 18h1M68 18h7M47 19h15M64 19h1M66 19h9M46 20h16M63 20h1M65 20h8M46 21h8M55 21h6M62 21h1M64 21h9M45 22h9M55 22h5M61 22h1M63 22h9M44 23h10M55 23h4M60 23h1M62 23h9M44 24h10M56 24h2M59 24h1M61 24h9M43 25h12M56 25h1M58 25h1M60 25h9M42 26h1M44 26h1M46 26h9M57 26h1M64 26h4M43 27h1M45 27h1M47 27h8M56 27h1M58 27h9M44 28h1M46 28h1M48 28h6M55 28h1M57 28h10M47 29h1M49 29h4M54 29h1M61 29h5M51 30h1M53 30h1M55 30h6M27 49h1M14 50h1M26 50h2M49 50h3M13 51h2M23 51h2M26 51h2M52 51h5M13 52h3M20 52h6M27 52h1M57 52h5M13 53h4M18 53h8M27 53h1M62 53h5M12 54h5M18 54h9M58 54h4M67 54h4M12 55h4M17 55h10M61 55h6M71 55h4M12 56h4M17 56h9M63 56h8M75 56h2M13 57h3M17 57h8M66 57h11M13 58h3M17 58h7M70 58h6M15 59h1M17 59h5M17 60h2" />
<path stroke="#101010" d="M74 5h1M74 6h1M73 7h1M72 8h1M77 9h1M3 10h1M77 10h1M4 11h2M76 11h1M6 12h2M13 12h2M75 12h1M15 13h1M26 13h1M26 14h1M31 14h1M77 14h1M7 15h1M16 15h2M25 15h1M31 15h1M77 15h1M8 16h1M18 16h2M23 16h2M31 16h1M75 16h2M2 17h1M9 17h1M20 17h4M32 17h1M2 18h1M10 18h2M17 18h2M23 18h1M32 18h1M75 18h1M2 19h1M12 19h5M24 19h1M32 19h1M75 19h1M3 20h1M24 20h1M32 20h1M74 20h1M3 21h1M24 21h1M32 21h1M73 21h1M4 22h1M24 22h1M33 22h1M72 22h1M4 23h1M13 23h2M24 23h1M33 23h1M71 23h1M5 24h1M33 24h1M70 24h1M5 25h1M14 25h1M18 25h1M22 25h1M33 25h1M69 25h1M6 26h1M15 26h3M20 26h2M33 26h1M68 26h1M6 27h1M33 27h1M68 27h1M7 28h1M33 28h1M67 28h1M8 29h1M33 29h1M66 29h1M8 30h1M33 30h1M65 30h1M9 31h1M33 31h1M64 31h1M10 32h1M33 32h1M63 32h1M10 33h1M33 33h1M62 33h1M11 34h1M33 34h1M60 34h2M12 35h1M32 35h1M59 35h1M12 36h1M32 36h1M58 36h1M13 37h1M32 37h1M56 37h2M14 38h1M32 38h1M55 38h1M15 39h1M31 39h1M54 39h1M15 40h1M31 40h1M53 40h1M16 41h1M31 41h1M52 41h1M17 42h1M30 42h1M50 42h2M30 43h1M49 43h1M30 44h1M47 44h2M29 45h1M31 45h2M45 45h2M29 46h1M33 46h2M43 46h2M35 47h3M38 48h2M40 49h2M42 50h1M12 51h1M42 51h1M12 52h1M12 53h1M11 54h1M11 55h1M11 56h1M28 56h1M11 57h1M29 57h1M77 57h1M11 58h1M30 58h1M78 58h1M11 59h1M31 59h1M58 59h4M75 59h1M79 59h1M11 60h1M32 60h1M62 60h1M66 60h1M79 60h1M33 61h1M53 61h1M63 61h1M66 61h1M68 61h1M76 61h3M34 62h2M53 62h1M64 62h2M69 62h1M72 62h1M76 62h1M36 63h1M70 63h3M74 63h2M37 64h2M54 64h1M39 65h2M54 65h1M41 66h2M54 66h1M55 68h1M55 69h1M55 70h1M25 71h1M37 71h1M55 71h1M9 72h1M25 72h1M37 72h1M55 72h1M9 73h1M18 73h1M25 73h1M37 73h1M45 73h1M54 73h1M10 74h1M18 74h1M37 74h1M45 74h1M54 74h1M18 75h1M26 75h1M37 75h1M46 75h1M54 75h1M9 76h1M17 76h1M26 76h1M36 76h1M46 76h1M54 76h1M10 77h7M27 77h1M36 77h1M47 77h7M27 78h1M33 78h3M28 79h6" />
<path stroke="#b46200" d="M15 12h1M8 13h1M13 13h1M7 14h1M9 14h1M15 15h1M9 16h5M19 17h1M20 18h1M18 19h1M12 21h1M25 21h1M12 22h1M25 22h1M23 23h1M26 23h1M14 24h1M23 24h1M26 24h1M19 25h1M26 25h1M26 26h2M32 26h1M26 27h1M28 27h4M26 28h1M26 29h1M25 30h1M25 31h1M25 32h1M24 33h1M24 34h1M24 35h1M23 36h1M23 37h1M22 38h1M21 39h1M20 40h1M20 41h1M19 42h1M18 43h1M17 44h1M16 45h1M43 51h2M45 52h2M47 53h1M48 54h1M49 55h1M50 56h1M51 57h1M52 58h1M52 59h1M53 60h1M12 61h1M12 62h1M12 63h1M54 63h1M11 64h1M13 64h1M10 65h1M13 65h1M9 66h1M9 67h1M27 67h1M55 67h1M8 68h1M26 68h1M8 69h1M15 69h1M26 69h1M36 69h1M8 70h1M16 70h1M25 70h1M36 70h1M9 71h1M17 71h2M19 72h3M45 72h1M19 73h1M22 73h3M42 73h3M11 74h2M25 74h2M38 74h4M10 75h1M13 75h1M47 75h1M49 75h3M14 76h1M29 76h3M48 76h1M52 76h1M28 77h1M32 77h1" />
<path stroke="#e6a418" d="M9 13h4M14 15h1M14 16h4M10 17h9M12 18h5M20 19h1M23 19h1M13 20h2M18 20h1M20 20h1M17 21h1M20 21h1M26 21h3M16 22h1M20 22h1M26 22h7M15 23h1M19 23h1M27 23h6M19 24h1M27 24h6M27 25h6M28 26h4M27 27h1M32 27h1M27 28h6M27 29h6M26 30h7M26 31h7M26 32h7M25 33h8M25 34h8M25 35h7M24 36h8M24 37h8M23 38h9M24 39h7M25 40h6M26 41h5M26 42h1M28 42h1M27 43h1M29 43h1M28 44h1M27 45h1M28 46h1M44 52h1M44 53h3M44 54h4M45 55h4M45 56h5M28 57h1M45 57h6M28 58h2M45 58h7M27 59h4M45 59h7M12 60h1M26 60h6M45 60h8M25 61h8M45 61h8M13 62h1M25 62h9M45 62h7M13 63h1M24 63h12M45 63h6M12 64h1M14 64h1M23 64h14M44 64h6M11 65h2M14 65h2M22 65h17M44 65h5M12 66h5M21 66h20M43 66h6M13 67h5M20 67h7M28 67h22M54 67h1M13 68h13M27 68h1M31 68h20M53 68h1M13 69h2M16 69h10M32 69h4M37 69h16M54 69h1M9 70h1M13 70h3M17 70h8M26 70h1M32 70h4M37 70h15M53 70h1M12 71h5M19 71h6M26 71h1M32 71h5M38 71h15M54 71h1M10 72h9M22 72h3M26 72h1M32 72h5M38 72h7M46 72h9M10 73h8M26 73h2M31 73h6M38 73h4M46 73h8M13 74h5M27 74h10M46 74h8M14 75h4M27 75h10M48 75h1M52 75h2M15 76h2M27 76h2M32 76h4M53 76h1M33 77h3" />
<path stroke="#ffffff" d="M14 13h1M16 13h1" />
<path stroke="#eebd39" d="M8 14h1M10 14h6M9 15h5M19 18h1M21 18h2M17 19h1M19 19h1M21 19h2M15 20h3M19 20h1M21 20h3M13 21h4M18 21h2M21 21h3M13 22h3M19 22h1M23 22h1M15 24h1M18 24h1M22 24h1M15 25h3M20 25h2M22 39h2M21 40h4M21 41h5M20 42h6M27 42h1M29 42h1M19 43h8M28 43h1M18 44h10M29 44h1M17 45h10M28 45h1M16 46h12M16 47h12M15 48h12M15 49h10M15 50h8M16 51h4M52 62h1M51 63h3M50 64h4M49 65h5M10 66h2M49 66h5M12 67h1M50 67h4M9 68h1M12 68h1M28 68h3M51 68h2M54 68h1M9 69h4M27 69h1M30 69h2M53 69h1M10 70h3M27 70h1M30 70h2M52 70h1M54 70h1M10 71h2M27 71h5M53 71h1M27 72h5M28 73h3M12 76h2M47 76h1M49 76h3M31 77h1M30 78h3" />
<path stroke="#ffee00" d="M8 15h1M10 67h2M10 68h2M28 69h2M28 70h2" />
<path stroke="#ffff6a" d="M17 22h2M21 22h2M16 23h3M20 23h3M16 24h2M20 24h2M11 75h2M10 76h2M29 77h2M28 78h2" />
</svg>