<svg xmlns="http://www.w3.org/2000/svg" viewBox="0 -0.5 80 80" shape-rendering="crispEdges">
<metadata>Made with Pixels to Svg https://codepen.io/shshaw/pen/XbxvNj</metadata>
<path stroke="#e6a44a" d="M26 14h2M25 15h1M32 16h1M28 17h3M26 18h6M25 19h7M23 20h1M25 20h5M25 21h2M28 21h2M28 22h1" />
<path stroke="#a47352" d="M28 14h3M24 15h1M31 15h1M23 16h1M23 17h1M22 18h1M30 20h1M27 21h1M30 21h1" />
<path stroke="#ffffff" d="M26 15h2M26 16h2M27 24h2M26 25h2" />
<path stroke="#ffe694" d="M28 15h1M25 16h1M28 16h1M26 17h2M33 24h1M25 27h1" />
<path stroke="#ffcd5a" d="M29 15h2M24 16h1M29 16h3M24 17h2M31 17h2M23 18h3M32 18h1M23 19h2M24 20h1M33 25h1M25 28h1" />
<path stroke="#101010" d="M32 15h1M33 16h1M33 17h1M33 18h1M22 19h1M32 19h1M22 20h1M31 20h1M23 21h2M25 22h3M42 27h1M42 28h1M42 29h1M42 30h1M41 31h1M41 32h1M40 33h1M39 34h1M37 35h2M24 36h2M28 37h6M60 60h1M57 61h3M56 63h1M55 64h1M50 65h5M46 66h1M49 66h1M47 67h2" />
<path stroke="#6abd7b" d="M31 21h6M29 22h2M27 23h2M33 23h1M26 24h1M32 24h1M25 25h1M24 26h2M24 27h1M32 27h1M30 28h2M36 28h1M27 29h3M25 33h1M35 33h3M33 34h4M40 34h1M26 35h1M32 35h5M39 35h2M28 36h1M31 36h1M35 36h2M39 39h4M36 41h1M35 42h1M35 43h1M35 44h1M45 47h2M45 48h2M44 49h4M43 50h6M42 51h1M44 51h7M41 52h1M43 52h5M50 52h1M42 53h1M44 53h3M42 54h5M42 55h6M43 56h4M48 56h1M43 57h3M45 58h1" />
<path stroke="#cdffcd" d="M31 22h6M29 23h4M35 23h4M29 24h1M36 24h1M38 24h1M28 25h1M26 26h2M39 26h1M40 27h2M38 28h2M41 28h1M24 29h1M37 29h2M41 29h1M25 30h1M40 30h1M39 31h2M25 32h2M38 32h2M26 33h1M39 33h1M24 34h4M24 35h2M27 35h3M29 36h2M42 40h1M43 41h1M43 42h1M44 43h1M44 44h1M45 45h1" />
<path stroke="#39834a" d="M37 22h2M39 23h1M34 24h1M32 25h1M34 25h1M33 26h1M26 27h1M38 27h2M23 28h2M26 28h1M37 28h1M40 28h1M23 29h1M25 29h1M40 29h1M39 30h1M35 32h3M24 33h1M33 33h2M23 34h1M32 34h1M41 34h1M23 35h1M31 35h1M41 35h1M26 36h2M34 36h1M37 36h1M39 36h2M34 37h2M38 37h1M35 38h1M38 38h1M36 39h1M36 40h1M43 40h1M44 41h1M44 42h1M45 43h1M45 44h1M36 45h1M46 45h1M36 46h1M47 46h1M37 47h1M48 47h1M37 48h1M48 48h1M38 49h1M49 49h1M38 50h1M50 50h1M39 51h1M40 52h1M40 53h1M41 54h1M41 55h1M42 56h1M42 57h1" />
<path stroke="#94e694" d="M34 23h1M30 24h2M35 24h1M29 25h3M35 25h1M28 26h5M34 26h2M27 27h5M33 27h5M27 28h3M32 28h4M26 29h1M30 29h7M39 29h1M26 30h13M41 30h1M26 31h13M27 32h8M40 32h1M27 33h6M38 33h1M28 34h4M37 34h2M30 35h1M32 36h2M36 37h2M36 38h2M37 39h2M37 40h5M37 41h6M36 42h7M36 43h8M36 44h8M37 45h8M37 46h10M38 47h7M47 47h1M38 48h7M47 48h1M39 49h5M48 49h1M39 50h4M49 50h1M40 51h2M43 51h1M42 52h1M41 53h1M43 53h1" />
<path stroke="#ffbd29" d="M37 24h1M36 25h2M36 26h1M38 26h1M24 30h1M25 31h1M51 52h1M52 53h1M53 54h1M54 55h1M55 56h1M56 57h1M57 58h2M59 59h1" />
<path stroke="#f69400" d="M39 24h1M38 25h3M37 26h1M40 26h1M24 31h1" />
<path stroke="#9c4100" d="M40 24h1M41 25h1M41 26h1M23 30h1M23 31h1M51 51h1M52 52h1M53 53h1M54 54h1M55 55h1M56 56h1M57 57h2M43 58h1M59 58h1M43 59h1M60 59h1M44 60h1M44 61h1M45 62h1M56 62h1M45 63h1M46 64h1M46 65h1" />
<path stroke="#cd6a00" d="M24 32h1M48 52h2M47 53h5M47 54h6M48 55h6M47 56h1M49 56h6M46 57h10M44 58h1M46 58h11M44 59h15M45 60h15M45 61h12M46 62h10M46 63h10M47 64h8M47 65h3M47 66h2" />
</svg>