<svg xmlns="http://www.w3.org/2000/svg" viewBox="0 -0.5 80 80" shape-rendering="crispEdges">
<metadata>Made with Pixels to Svg https://codepen.io/shshaw/pen/XbxvNj</metadata>
<path stroke="#9c83ac" d="M36 8h1M25 9h1M35 9h1M24 10h1M33 10h2M21 11h3M30 11h3M36 11h1M18 12h3M28 12h2M16 13h2M23 13h1M35 13h1M15 14h1M22 14h1M36 14h1M43 14h1M45 15h1M32 16h1M46 16h1M13 17h1M30 17h1M17 18h1M17 19h1M10 20h2M17 20h2M20 20h1M11 21h2M17 21h2M29 21h1M58 21h1M12 22h1M18 22h2M59 24h1M29 28h1M27 29h1M29 29h1M65 29h1M16 30h1M27 30h1M29 30h2M14 31h2M27 31h1M29 31h2M12 32h2M16 32h1M27 32h1M29 32h2M27 33h2M30 33h1M28 34h1M30 34h2M33 34h1M35 34h1M38 34h1M67 34h1M28 35h1M30 35h3M34 35h2M39 35h1M28 36h2M31 36h3M35 36h3M39 36h1M41 36h1M28 37h2M31 37h3M35 37h3M39 37h3M46 37h1M15 38h1M27 38h1M29 38h2M32 38h3M36 38h2M39 38h4M45 38h1M26 39h2M29 39h3M33 39h2M36 39h3M40 39h3M44 39h2M14 40h1M29 40h3M33 40h3M37 40h2M40 40h3M44 40h1M46 40h1M48 40h1M71 40h1M25 41h1M30 41h3M34 41h2M37 41h2M40 41h2M43 41h5M23 42h1M30 42h3M34 42h2M37 42h2M40 42h2M43 42h4M51 42h1M23 43h1M25 43h1M31 43h3M35 43h1M37 43h2M40 43h2M43 43h5M50 43h1M23 44h2M32 44h2M35 44h1M37 44h1M39 44h3M43 44h4M48 44h3M22 45h1M33 45h1M36 45h2M39 45h2M42 45h4M47 45h3M51 45h2M21 46h1M34 46h1M36 46h2M39 46h2M42 46h3M46 46h6M36 47h1M38 47h2M41 47h3M45 47h5M15 48h1M17 48h1M20 48h1M38 48h2M41 48h2M44 48h5M17 49h1M38 49h1M40 49h3M44 49h3M49 49h1M16 50h1M39 50h3M43 50h2M47 50h2M50 50h1M20 51h1M39 51h2M42 51h2M45 51h3M17 52h1M41 52h4M17 53h2M40 53h3M45 53h1M18 54h2M21 54h1M43 54h1M18 55h3M41 55h2M19 56h2M24 56h1M19 57h2M19 58h2M29 58h1M46 58h3M19 59h2M29 59h1M49 59h2M19 60h2M25 60h1M29 60h2M19 61h2M26 61h1M30 61h2M19 62h2M25 62h3M30 62h3M18 63h2M31 63h1M17 64h1M28 64h3M27 65h1M29 65h1M19 66h1M22 66h1M27 66h1M21 67h1" />
<path stroke="#7b5a83" d="M37 8h1M26 9h1M37 9h1M26 10h1M26 11h1M25 12h3M24 13h1M37 13h7M44 14h2M14 15h1M46 15h6M13 16h1M16 16h2M44 16h2M52 16h2M16 17h1M18 17h1M31 17h3M42 17h2M54 17h2M12 18h1M16 18h1M19 18h1M34 18h2M41 18h1M56 18h1M9 19h4M16 19h1M18 19h1M20 19h1M36 19h2M40 19h1M57 19h1M12 20h1M16 20h1M38 20h2M58 20h1M13 21h1M16 21h1M19 21h1M30 21h1M39 21h1M13 22h2M31 22h1M40 22h1M59 22h1M12 23h1M32 23h1M41 23h1M54 23h6M12 24h1M33 24h1M36 24h1M41 24h1M52 24h2M60 24h1M11 25h1M33 25h1M36 25h1M41 25h1M50 25h2M61 25h2M11 26h1M34 26h1M36 26h1M49 26h1M63 26h1M11 27h1M27 27h2M34 27h1M36 27h1M48 27h1M64 27h1M10 28h1M27 28h2M36 28h1M47 28h1M65 28h1M9 29h1M28 29h1M36 29h1M46 29h1M8 30h1M26 30h1M28 30h1M36 30h1M46 30h1M66 30h1M8 31h1M26 31h1M28 31h1M36 31h1M45 31h1M66 31h1M17 32h1M28 32h1M37 32h1M45 32h1M60 32h5M66 32h1M14 33h1M29 33h1M37 33h1M44 33h1M58 33h2M65 33h3M16 34h1M29 34h1M32 34h1M37 34h1M44 34h1M56 34h2M68 34h1M16 35h1M29 35h1M33 35h1M38 35h1M44 35h1M54 35h2M69 35h1M15 36h1M30 36h1M34 36h1M38 36h1M43 36h1M53 36h1M70 36h1M15 37h1M30 37h1M34 37h1M38 37h1M43 37h1M52 37h1M70 37h1M28 38h1M31 38h1M35 38h1M38 38h1M43 38h1M51 38h1M71 38h1M14 39h1M32 39h1M35 39h1M39 39h1M43 39h1M50 39h1M71 39h1M26 40h1M32 40h1M36 40h1M39 40h1M43 40h1M50 40h1M13 41h1M26 41h1M29 41h1M33 41h1M36 41h1M39 41h1M42 41h1M49 41h1M72 41h1M13 42h1M25 42h1M33 42h1M36 42h1M39 42h1M42 42h1M48 42h1M72 42h1M13 43h1M34 43h1M36 43h1M39 43h1M42 43h1M48 43h1M13 44h1M34 44h1M36 44h1M38 44h1M42 44h1M47 44h1M57 44h5M14 45h1M34 45h2M38 45h1M41 45h1M46 45h1M54 45h3M62 45h3M14 46h1M35 46h1M38 46h1M41 46h1M45 46h1M52 46h2M65 46h2M21 47h1M35 47h1M37 47h1M40 47h1M44 47h1M50 47h2M67 47h1M26 48h1M37 48h1M40 48h1M43 48h1M49 48h1M68 48h1M20 49h1M26 49h1M39 49h1M43 49h1M47 49h2M69 49h1M17 50h1M19 50h1M26 50h1M42 50h1M45 50h2M52 50h7M69 50h1M17 51h1M19 51h1M26 51h1M38 51h1M41 51h1M44 51h1M48 51h4M59 51h2M70 51h1M18 52h3M25 52h1M30 52h1M40 52h1M45 52h3M61 52h2M70 52h1M19 53h1M25 53h1M29 53h1M43 53h2M63 53h1M71 53h1M29 54h1M41 54h2M46 54h5M64 54h1M71 54h1M21 55h1M28 55h1M43 55h3M51 55h2M65 55h1M18 56h1M21 56h1M41 56h2M53 56h2M66 56h1M24 57h2M55 57h1M66 57h1M25 58h1M43 58h3M56 58h1M67 58h1M25 59h1M40 59h3M57 59h1M67 59h1M26 60h1M28 60h1M37 60h3M57 60h1M67 60h1M25 61h1M27 61h3M35 61h2M58 61h1M67 61h1M28 62h1M33 62h2M58 62h1M29 63h1M32 63h1M58 63h1M18 64h1M31 64h1M58 64h1M17 65h1M28 65h1M57 65h1M20 66h1M28 66h1M57 66h1M22 67h1M29 67h1M35 67h1M56 67h1M28 68h1M33 68h1M54 68h2M27 69h1M31 69h1M53 69h1" />
<path stroke="#dedee6" d="M36 9h1M25 10h1M35 10h2M24 11h2M33 11h3M21 12h4M30 12h6M18 13h5M25 13h10M16 14h6M23 14h12M37 14h6M15 15h19M35 15h10M14 16h2M18 16h14M34 16h10M47 16h5M14 17h2M17 17h1M19 17h11M34 17h8M44 17h10M13 18h3M18 18h1M20 18h13M36 18h5M42 18h14M13 19h3M19 19h1M21 19h14M38 19h2M41 19h16M14 20h1M19 20h1M24 20h4M34 20h2M40 20h18M26 21h3M36 21h1M40 21h18M15 22h2M28 22h3M41 22h18M13 23h6M29 23h1M31 23h1M33 23h2M42 23h12M13 24h7M34 24h2M37 24h1M42 24h10M54 24h5M12 25h3M17 25h3M34 25h2M37 25h3M42 25h8M52 25h9M12 26h2M17 26h2M35 26h1M37 26h12M50 26h13M12 27h2M16 27h3M37 27h11M49 27h15M11 28h7M37 28h2M40 28h7M48 28h17M10 29h7M38 29h1M40 29h3M44 29h2M48 29h17M11 30h5M24 30h1M41 30h1M44 30h1M47 30h19M9 31h4M23 31h2M47 31h19M10 32h1M22 32h4M47 32h13M65 32h1M21 33h5M47 33h1M49 33h9M60 33h5M19 34h1M21 34h6M49 34h7M58 34h9M18 35h1M20 35h7M49 35h1M52 35h2M56 35h13M17 36h1M19 36h1M21 36h6M51 36h2M54 36h16M17 37h9M53 37h17M16 38h10M52 38h19M16 39h10M52 39h1M54 39h17M15 40h10M27 40h1M54 40h17M14 41h11M27 41h1M53 41h18M14 42h9M26 42h3M53 42h1M57 42h14M15 43h6M22 43h1M26 43h4M56 43h14M15 44h6M25 44h6M55 44h2M62 44h8M16 45h4M23 45h9M57 45h5M65 45h4M22 46h11M54 46h11M22 47h4M27 47h7M53 47h14M21 48h5M28 48h7M52 48h16M21 49h4M28 49h8M54 49h15M21 50h4M29 50h8M59 50h10M22 51h2M30 51h8M52 51h7M61 51h9M22 52h2M31 52h8M48 52h13M63 52h6M31 53h7M47 53h16M64 53h3M68 53h1M31 54h7M51 54h13M66 54h1M32 55h5M49 55h2M53 55h12M47 56h6M55 56h11M46 57h9M56 57h10M49 58h7M57 58h9M43 59h6M51 59h6M58 59h7M40 60h17M58 60h1M60 60h3M64 60h1M37 61h20M60 61h3M36 62h21M61 62h1M38 63h18M21 64h2M46 64h8M19 65h5M21 66h1M23 66h1" />
<path stroke="#101010" d="M37 10h1M37 11h1M36 12h1M36 13h1M35 14h1M34 15h1M33 16h1M9 20h1M10 21h1M21 21h1M11 22h1M22 22h1M32 22h3M11 23h1M22 23h2M35 23h3M23 24h3M38 24h2M23 25h1M26 25h2M40 25h1M23 26h1M28 26h1M24 27h1M29 27h1M24 28h1M30 28h1M34 28h1M24 29h1M26 29h1M30 29h1M34 29h1M9 30h2M25 30h1M31 30h1M34 30h1M25 31h1M31 31h1M33 31h1M9 32h1M26 32h1M31 32h1M33 32h1M10 33h2M15 33h2M26 33h1M31 33h2M12 34h2M27 34h1M27 35h1M27 36h1M27 37h1M28 39h1M28 40h1M29 42h1M30 43h1M72 43h1M31 44h1M72 44h1M13 45h1M32 45h1M71 45h1M33 46h1M71 46h1M14 47h1M70 47h1M14 48h1M36 48h1M70 48h1M15 49h1M37 49h1M15 50h1M38 50h1M16 51h1M16 52h1M39 52h1M16 53h1M20 53h1M39 53h1M17 54h1M20 54h1M25 54h1M40 54h1M17 55h1M25 55h1M40 55h1M71 55h1M25 56h1M28 56h1M40 56h1M71 56h1M18 57h1M21 57h1M28 57h1M40 57h1M70 57h1M18 58h1M21 58h1M24 58h1M28 58h1M40 58h1M70 58h1M18 59h1M21 59h1M24 59h1M28 59h1M69 59h1M18 60h1M21 60h1M24 60h1M69 60h1M18 61h1M21 61h1M24 61h1M68 61h1M18 62h1M21 62h1M24 62h1M29 62h1M67 62h1M17 63h1M20 63h1M24 63h5M30 63h1M66 63h1M16 64h1M19 64h1M24 64h1M27 64h1M66 64h1M16 65h1M18 65h1M24 65h1M26 65h1M30 65h1M65 65h1M17 66h2M24 66h1M26 66h1M29 66h1M63 66h2M19 67h2M23 67h1M27 67h2M36 67h8M58 67h5M21 68h2M34 68h1M44 68h4M32 69h1M48 69h5M27 70h1M30 70h1M27 71h1M29 71h1M28 72h1" />
<path stroke="#bdb4cd" d="M33 18h1M35 19h1M13 20h1M15 20h1M21 20h3M28 20h6M36 20h2M14 21h2M20 21h1M22 21h4M31 21h5M37 21h2M17 22h1M20 22h2M23 22h5M35 22h5M19 23h3M24 23h5M30 23h1M38 23h3M20 24h3M26 24h7M40 24h1M20 25h3M28 25h5M19 26h4M29 26h5M19 27h5M30 27h4M35 27h1M18 28h6M31 28h3M35 28h1M39 28h1M17 29h7M31 29h3M35 29h1M37 29h1M39 29h1M43 29h1M47 29h1M17 30h7M32 30h2M35 30h1M37 30h4M42 30h2M45 30h1M13 31h1M16 31h7M32 31h1M34 31h2M37 31h8M46 31h1M11 32h1M14 32h2M18 32h4M32 32h1M34 32h3M38 32h7M46 32h1M12 33h2M17 33h4M33 33h4M38 33h6M45 33h2M48 33h1M17 34h2M20 34h1M34 34h1M36 34h1M39 34h5M45 34h4M17 35h1M19 35h1M36 35h2M40 35h4M45 35h4M50 35h2M16 36h1M18 36h1M20 36h1M40 36h1M42 36h1M44 36h7M16 37h1M26 37h1M42 37h1M44 37h2M47 37h5M26 38h1M44 38h1M46 38h5M15 39h1M46 39h4M51 39h1M53 39h1M25 40h1M45 40h1M47 40h1M49 40h1M51 40h3M28 41h1M48 41h1M50 41h3M71 41h1M24 42h1M47 42h1M49 42h2M52 42h1M54 42h3M71 42h1M14 43h1M21 43h1M24 43h1M49 43h1M51 43h5M70 43h2M14 44h1M21 44h2M51 44h4M70 44h2M15 45h1M20 45h2M50 45h1M53 45h1M69 45h2M15 46h6M67 46h4M15 47h6M26 47h1M34 47h1M52 47h1M68 47h2M16 48h1M18 48h2M27 48h1M35 48h1M50 48h2M69 48h1M16 49h1M18 49h2M25 49h1M27 49h1M36 49h1M50 49h4M18 50h1M20 50h1M25 50h1M27 50h2M37 50h1M49 50h1M51 50h1M18 51h1M21 51h1M24 51h2M27 51h3M21 52h1M24 52h1M26 52h4M69 52h1M21 53h4M26 53h3M30 53h1M38 53h1M46 53h1M67 53h1M69 53h2M22 54h3M26 54h3M30 54h1M38 54h2M44 54h2M65 54h1M67 54h4M22 55h3M26 55h2M29 55h3M37 55h3M46 55h3M66 55h5M22 56h2M26 56h2M29 56h11M43 56h4M67 56h4M22 57h2M26 57h2M29 57h11M41 57h5M67 57h3M22 58h2M26 58h2M30 58h10M41 58h2M66 58h1M68 58h2M22 59h2M26 59h2M30 59h10M65 59h2M68 59h1M22 60h2M27 60h1M31 60h6M59 60h1M63 60h1M65 60h2M68 60h1M22 61h2M32 61h3M57 61h1M59 61h1M63 61h4M22 62h2M35 62h1M57 62h1M59 62h2M62 62h5M21 63h3M56 63h2M59 63h7M20 64h1M23 64h1M37 64h9M54 64h4M59 64h7M39 65h18M58 65h7M37 66h20M58 66h5M44 67h12M48 68h6" />
<path stroke="#b41000" d="M15 25h2M14 26h1M16 26h1" />
<path stroke="#ffffff" d="M15 26h1" />
<path stroke="#ff6a29" d="M14 27h2" />
<path stroke="#94ace6" d="M33 63h5M34 64h3M36 65h3M35 66h2" />
<path stroke="#629cff" d="M32 64h2M31 65h5M30 66h5M30 67h5M29 68h4M28 69h3M28 70h2M28 71h1" />
</svg>