<svg xmlns="http://www.w3.org/2000/svg" viewBox="0 -0.5 80 80" shape-rendering="crispEdges">
<metadata>Made with Pixels to Svg https://codepen.io/shshaw/pen/XbxvNj</metadata>
<path stroke="#8b2941" d="M33 21h1M30 22h1M30 23h1M30 24h1M27 25h1M48 26h1M50 26h3M25 29h1M25 30h1M37 30h3M25 31h1M36 31h1M25 32h1M35 32h1M42 32h1M26 33h1M35 33h1M18 34h1M24 34h2M27 34h1M35 34h1M19 35h1M23 35h1M27 35h1M34 35h2M22 36h1M28 36h1M29 37h1M33 37h1M17 38h1M30 38h1M33 38h1M22 39h1M32 39h1M38 39h1M46 39h5M37 40h2M46 40h1M51 40h2M27 41h1M53 41h1M26 42h1M54 42h1M29 43h2M35 43h2M55 43h1M32 44h5M55 44h1M26 45h1M33 45h2M25 46h1M34 46h1M52 46h1M24 47h1M42 47h1M44 47h1M53 47h1M23 48h1M41 48h1M44 48h2M36 49h1M40 49h1M46 49h3M22 50h1M31 50h3M43 50h1M49 50h1M22 51h1M30 51h1M42 51h1M22 52h3M31 52h2M44 52h1M25 53h1M33 53h1M45 53h1M25 54h1M32 54h1M40 54h1M42 54h2M45 54h1M25 55h1M32 55h1M36 55h1M39 55h1M33 56h1M39 56h1" />
<path stroke="#e65283" d="M29 22h1M32 22h1M28 23h1M31 23h1M47 23h3M27 24h1M45 24h2M49 24h1M30 25h1M43 25h2M49 25h1M26 26h1M42 26h1M26 27h1M41 27h1M48 27h2M52 27h1M26 28h1M41 28h1M40 29h1M20 31h4M40 31h1M18 32h2M24 32h1M26 32h1M41 32h1M17 33h1M41 33h1M41 34h1M36 35h1M40 35h2M16 36h4M37 36h4M28 37h1M23 38h1M27 38h2M23 39h6M36 39h1M24 40h4M36 40h1M28 42h1M30 42h1M28 43h1M35 45h1M51 45h1M35 47h2M23 49h1M39 49h1M34 50h1M26 51h1M25 52h1M40 52h2M34 53h1M34 54h1" />
<path stroke="#ffeeee" d="M33 22h1M29 23h1M32 23h2M28 24h2M32 24h2M28 25h2M31 25h4M27 26h8M27 27h9M27 28h9M26 29h10M26 30h7M26 31h3" />
<path stroke="#101010" d="M34 22h1M34 23h1M35 24h1M35 25h1M36 26h1M36 27h1M36 28h1M52 28h1M36 29h1M52 29h1M36 30h1M40 30h1M51 30h1M41 31h1M51 31h1M50 32h1M42 33h1M50 33h1M26 34h1M42 34h1M49 34h1M43 35h1M47 35h2M34 36h1M36 36h1M41 36h1M44 36h3M16 37h1M22 37h1M37 37h4M44 37h1M22 38h1M29 38h1M45 38h1M17 39h1M29 39h1M45 39h1M18 40h1M23 40h1M28 40h1M45 40h1M19 41h2M24 41h3M45 41h1M21 42h2M45 42h1M23 43h4M44 43h1M44 44h1M27 45h1M43 45h1M52 45h4M28 46h1M42 46h1M29 47h1M41 47h1M43 47h1M30 48h1M39 48h2M42 48h1M54 48h1M32 49h2M37 49h2M44 49h1M52 49h2M50 50h2M43 51h1M31 53h1M29 54h2M26 55h3M34 55h1M44 55h1M34 56h1M40 56h2M44 56h1M35 57h1M38 57h2M42 57h2M36 58h2" />
<path stroke="#ff94cd" d="M31 24h1M34 24h1M35 26h1M43 32h1M34 33h1M43 33h3M34 34h1M43 34h6M44 35h3M20 36h1M33 36h1M31 38h1M21 40h2M47 40h4M21 41h3M46 41h7M23 42h3M46 42h6M45 43h4M45 44h2M36 45h1M44 45h3M26 46h2M35 46h2M43 46h5M25 47h4M45 47h3M24 48h6M46 48h3M25 49h7M26 50h5M35 50h1M39 50h2M27 51h3M35 51h1M38 51h2M28 52h3M34 52h3M38 52h2M42 52h2M29 53h2M35 53h10M28 54h1M33 54h1M35 54h5M44 54h1M33 55h1M37 55h2M38 56h1" />
<path stroke="#ffc5e6" d="M47 24h2M45 25h4M43 26h5M42 27h6M50 27h2M42 28h10M41 29h11M33 30h3M41 30h10M29 31h7M42 31h9M20 32h4M27 32h8M38 32h1M44 32h6M18 33h8M27 33h7M37 33h2M46 33h4M19 34h5M28 34h6M20 35h3M28 35h6M21 36h1M25 36h1M29 36h4M17 37h5M24 37h2M30 37h3M18 38h4M32 38h1M18 39h4M19 40h2M52 42h2M49 43h6M47 44h8M47 45h4M48 46h4M48 47h5M43 48h1M49 48h5M24 49h1M41 49h3M49 49h3M23 50h3M41 50h2M23 51h3M31 51h4M40 51h2M26 52h2M33 52h1M26 53h3M26 54h2" />
<path stroke="#ff9cc5" d="M37 31h3M36 32h1M39 32h2M36 33h1M39 33h2M36 34h5M24 35h3M37 35h3M23 36h1M26 36h2M23 37h1M26 37h2M24 38h3" />
<path stroke="#ffe6f6" d="M37 32h1M24 36h1M37 39h1M29 42h1" />
<path stroke="#ac5200" d="M42 35h1M37 41h1M27 44h1M29 44h1M31 48h1M34 49h2M41 54h1M35 55h1M40 55h1M37 56h1" />
<path stroke="#ffa429" d="M35 36h1M42 36h2M34 37h1M36 37h1M41 37h3M37 38h1M42 38h3M33 39h1M42 39h3M42 40h3M29 41h1M38 41h1M42 41h3M41 42h4M34 43h1M41 43h3M30 44h1M40 44h4M28 45h1M38 45h5M33 46h1M37 46h5M30 47h1M34 47h1M37 47h4M32 48h7M41 55h3M35 56h2M42 56h2M36 57h2" />
<path stroke="#ffcd6a" d="M35 37h1M34 38h3M38 38h4M30 39h2M34 39h2M39 39h3M29 40h7M39 40h3M28 41h1M30 41h7M39 41h3M27 42h1M31 42h10M27 43h1M31 43h3M37 43h4M28 44h1M31 44h1M37 44h3M29 45h4M37 45h1M29 46h4M31 47h3" />
<path stroke="#006210" d="M36 50h1M36 51h1M37 52h1" />
<path stroke="#189439" d="M37 50h2M37 51h1" />
</svg>