<svg xmlns="http://www.w3.org/2000/svg" viewBox="0 -0.5 80 80" shape-rendering="crispEdges">
<metadata>Made with Pixels to Svg https://codepen.io/shshaw/pen/XbxvNj</metadata>
<path stroke="#7b1041" d="M48 24h2M46 25h1M45 26h1M48 26h1M44 27h1M55 27h3M41 28h1M44 28h1M53 28h2M40 29h1M43 29h1M47 29h1M51 29h2M56 29h1M40 30h1M50 30h1M55 30h1M49 31h1M39 32h1M48 32h1M39 33h1M48 33h1M52 33h1M57 33h6M39 34h1M47 34h1M54 34h3M39 35h1M51 35h1M53 35h1M39 36h1M51 36h1M41 37h1M50 37h1M56 37h1M53 40h1M53 41h7M60 42h3M63 43h1M57 44h1M53 45h2M54 46h2M56 47h2M58 48h1M50 49h2M59 49h1M30 50h1M52 50h2M60 50h1M54 51h1M61 51h1M55 52h1M31 53h1M46 53h1M31 54h1M34 54h1M31 55h5M42 55h1M31 56h5M41 56h2M32 57h4M32 58h4M21 59h1M33 59h3M50 59h1M31 60h1M33 60h2M49 60h2M31 61h1M33 61h2M38 61h1M46 61h5M21 62h1M23 62h1M35 62h1M37 62h2M47 62h4M19 63h3M23 63h6M36 63h3M47 63h4M19 64h4M25 64h4M35 64h3M39 64h1M48 64h2M17 65h2M21 65h3M26 65h3M33 65h5M18 66h1M20 66h1M32 66h5" />
<path stroke="#bd1852" d="M47 25h2M46 26h2M45 27h3M45 28h3M55 28h2M41 29h1M44 29h3M53 29h3M41 30h1M44 30h3M51 30h4M40 31h2M43 31h1M45 31h2M50 31h4M40 32h2M45 32h2M49 32h4M40 33h2M45 33h2M49 33h3M40 34h1M44 34h3M48 34h4M57 34h6M40 35h1M44 35h2M47 35h4M54 35h6M44 36h2M47 36h4M52 36h6M44 37h6M51 37h5M43 38h12M43 39h2M46 39h8M43 40h1M46 40h7M45 41h8M44 42h16M43 43h20M45 44h12M44 45h9M43 46h11M42 47h14M40 48h18M29 49h1M39 49h11M52 49h7M38 50h14M56 50h4M28 51h1M30 51h1M38 51h16M59 51h2M28 52h1M37 52h12M52 52h3M26 53h2M36 53h10M47 53h3M28 54h3M35 54h12M49 54h2M28 55h3M36 55h6M44 55h1M46 55h2M51 55h1M29 56h2M36 56h5M44 56h2M49 56h1M18 57h1M29 57h3M36 57h4M44 57h6M19 58h1M22 58h1M28 58h4M36 58h3M44 58h6M18 59h2M22 59h10M36 59h2M45 59h5M18 60h3M22 60h9M35 60h3M46 60h3M18 61h3M22 61h9M35 61h3M18 62h3M24 62h5M36 62h1" />
<path stroke="#101010" d="M49 25h1M49 26h1M48 27h1M48 28h1M57 28h1M48 29h1M43 30h1M47 30h1M42 31h1M47 31h1M54 31h1M42 32h1M47 32h1M53 32h1M42 33h1M47 33h1M53 33h1M41 34h1M52 34h1M63 34h1M41 35h1M46 35h1M52 35h1M60 35h2M41 36h1M46 36h1M58 36h2M57 37h1M55 38h2M54 39h1M31 41h1M32 42h1M33 43h2M33 44h1M58 44h5M35 45h1M55 45h3M35 46h1M30 49h1M18 50h1M31 50h1M54 50h2M18 51h1M31 51h1M56 51h3M18 52h1M31 52h1M49 52h3M59 52h3M50 53h1M52 53h4M51 54h1M52 55h1M24 56h1M50 56h3M50 57h1M41 58h3M50 58h1M17 59h1M32 59h1M39 59h1M51 59h1M17 60h1M32 60h1M38 60h1M51 60h1M16 61h2M32 61h1M51 61h1M14 62h1M17 62h1M33 62h2M39 62h1M51 62h1M15 63h4M31 63h1M39 63h1M51 63h1M18 64h1M23 64h2M32 64h1M45 64h1M51 64h1M19 65h2M24 65h2M29 65h2M32 65h1M38 65h1M45 65h2M48 65h1M50 65h1M16 66h1M21 66h3M26 66h3M30 66h1M37 66h1M47 66h3M17 67h3M30 67h2M33 67h1M35 67h2M32 68h3" />
<path stroke="#ffd5a4" d="M44 31h1M43 32h2M43 33h1M43 34h1M42 35h2M40 36h1M42 36h1M40 37h1M42 37h1M40 38h3M40 39h3M45 39h1M40 40h3M44 40h1M30 41h1M40 41h5M31 42h1M40 42h4M31 43h1M39 43h4M31 44h2M34 44h1M39 44h3M44 44h1M31 45h2M34 45h1M38 45h6M31 46h2M34 46h1M37 46h5M30 47h2M33 47h2M36 47h5M30 48h4M36 48h4M31 49h3M35 49h4M19 50h1M26 50h2M32 50h1M34 50h4M19 51h3M24 51h3M32 51h5M20 52h1M22 52h5M34 52h2M20 53h6M20 54h6M20 55h4M21 56h2M21 57h1M15 62h2M29 62h3M29 63h1M33 63h2M31 64h1" />
<path stroke="#de945a" d="M44 33h1M42 34h1M43 36h1M43 37h1M45 40h1M42 44h2M33 46h1M42 46h1M32 47h1M41 47h1M34 48h2M20 50h1M33 50h1M37 51h1M19 52h1M21 52h1M32 52h2M36 52h1M32 53h4M32 54h2M24 55h2M20 56h1M23 56h1M22 57h1M40 57h3M39 58h2M38 59h1M32 62h1M30 63h1M32 63h1M30 64h1" />
<path stroke="#625a41" d="M39 37h1M39 38h1M39 39h1M29 40h2M39 40h1M29 41h1M39 41h1M30 42h1M39 42h1M30 43h1M32 43h1M38 43h1M30 44h1M38 44h1M30 45h1M33 45h1M37 45h1M30 46h1M36 46h1M29 47h1M35 47h1M28 48h1M19 49h2M26 49h2M34 49h1M21 50h1M24 50h2M22 51h2M19 53h1M28 53h1M19 54h1M26 54h2M19 55h1M18 56h1" />
<path stroke="#5a2008" d="M29 48h1M28 49h1M28 50h1M27 51h1M27 52h1M47 54h2M43 55h1M45 55h1M48 55h3M43 56h1M46 56h3M43 57h1M18 58h1M44 59h1M21 60h1M45 60h1M21 61h1M45 61h1M22 62h1M46 62h1M22 63h1M35 63h1M46 63h1M29 64h1M33 64h2M38 64h1M47 64h1M50 64h1M31 65h1M20 67h1" />
<path stroke="#834a31" d="M29 50h1M30 52h1M29 53h2M20 57h1M21 58h1" />
<path stroke="#f68b4a" d="M29 51h1M29 52h1M27 55h1M27 56h2M27 57h2M20 58h1M26 58h2M20 59h1" />
<path stroke="#ffffff" d="M26 55h1M19 56h1M25 56h2M19 57h1M23 57h1M25 57h2M24 58h2M47 65h1M49 65h1M19 66h1M32 67h1M34 67h1" />
<path stroke="#6a6273" d="M24 57h1" />
<path stroke="#b4b4d5" d="M23 58h1M46 64h1M17 66h1M31 66h1" />
</svg>