<svg xmlns="http://www.w3.org/2000/svg" viewBox="0 -0.5 80 80" shape-rendering="crispEdges">
<metadata>Made with Pixels to Svg https://codepen.io/shshaw/pen/XbxvNj</metadata>
<path stroke="#316a31" d="M34 23h3M48 23h3M33 24h1M36 24h2M40 24h5M47 24h1M32 25h1M36 25h2M39 25h1M45 25h1M50 25h2M32 26h1M35 26h3M47 26h1M50 26h2M32 27h6M47 27h5M32 28h1M34 28h3M48 28h3M31 29h1M51 29h1M30 30h1M38 30h6M51 30h2M29 31h1M36 31h3M41 31h5M52 31h1M28 32h1M34 32h4M43 32h4M52 32h2M33 33h3M38 33h5M44 33h4M52 33h2M24 34h3M32 34h2M37 34h7M45 34h3M53 34h1M23 35h1M26 35h1M32 35h1M37 35h8M46 35h3M53 35h2M22 36h1M26 36h2M31 36h2M41 36h4M47 36h2M53 36h2M22 37h1M25 37h3M31 37h2M40 37h1M42 37h3M47 37h2M22 38h6M30 38h3M35 38h1M40 38h1M42 38h3M46 38h3M55 38h1M23 39h4M30 39h2M33 39h3M40 39h1M42 39h3M46 39h3M55 39h2M30 40h2M34 40h2M37 40h4M45 40h3M54 40h3M26 41h1M30 41h2M34 41h3M45 41h3M52 41h5M26 42h1M30 42h3M34 42h7M45 42h2M51 42h1M53 42h3M26 43h2M31 43h2M34 43h7M45 43h2M51 43h2M27 44h1M31 44h3M36 44h1M39 44h2M43 44h3M51 44h2M27 45h1M32 45h4M41 45h4M50 45h2M28 46h1M33 46h11M50 46h2M28 47h2M35 47h7M49 47h2M37 48h3M48 48h3M31 49h1M47 49h3M27 50h1M31 50h2M45 50h1M47 50h2M27 51h1M30 51h3M45 51h2M28 52h5M34 52h7M44 52h3M29 53h3M35 53h5M42 53h5M43 54h3" />
<path stroke="#4a9441" d="M34 24h2M50 24h1M33 25h1M35 25h1M47 25h1M49 25h1M33 26h2M39 26h5M48 26h2M39 27h7M38 28h9M33 29h1M37 29h11M32 30h6M44 30h7M31 31h5M46 31h4M51 31h1M30 32h4M47 32h4M29 33h4M48 33h3M29 34h3M48 34h4M24 35h2M28 35h4M49 35h3M23 36h1M25 36h1M29 36h2M49 36h3M23 37h2M29 37h2M39 37h1M49 37h3M29 38h1M39 38h1M49 38h3M53 38h2M28 39h2M37 39h3M49 39h2M52 39h1M54 39h1M27 40h3M48 40h3M52 40h2M27 41h3M48 41h3M27 42h3M47 42h4M28 43h3M47 43h3M28 44h3M46 44h4M28 45h4M45 45h4M29 46h4M44 46h5M30 47h5M42 47h6M32 48h5M40 48h7M29 49h2M33 49h10M28 50h1M30 50h1M34 50h8M43 50h2M28 51h2M34 51h7M42 51h1M44 51h1M42 52h2" />
<path stroke="#73bd6a" d="M48 24h2M34 25h1M40 25h5M48 25h1M44 26h2M32 29h1M31 30h1M30 31h1M39 31h2M50 31h1M29 32h1M39 32h2M51 32h1M51 33h1M28 34h1M52 34h1M52 35h1M24 36h1M45 36h2M52 36h1M37 37h1M45 37h2M52 37h1M53 39h1M32 40h2M32 41h2M50 43h1M37 44h2M50 44h1M37 45h2M49 45h1M49 46h1M48 47h1M47 48h1M46 49h1M29 50h1M43 51h1" />
<path stroke="#204a29" d="M51 24h1M38 25h1M46 25h1M52 25h1M46 26h1M46 27h1M33 28h1M47 28h1M52 29h1M53 30h1M53 31h1M38 32h1M41 32h2M28 33h1M36 33h2M43 33h1M27 34h1M44 34h1M27 35h1M35 35h1M45 35h1M28 36h1M34 36h2M37 36h4M34 37h1M36 37h1M41 37h1M53 37h2M36 38h1M41 38h1M45 38h1M52 38h1M56 38h1M32 39h1M36 39h1M41 39h1M45 39h1M51 39h1M57 39h1M36 40h1M41 40h1M51 40h1M37 41h4M43 41h1M51 41h1M33 42h1M42 42h2M52 42h1M33 43h1M42 43h1M34 44h2M53 44h1M36 45h1M39 45h2M29 48h3M28 49h1M32 49h1M43 49h3M33 50h1M42 50h1M46 50h1M41 51h1M47 51h1M27 52h1M41 52h1M28 53h1M40 53h2M42 54h1" />
<path stroke="#101010" d="M38 26h1M52 26h1M38 27h1M52 27h1M37 28h1M51 28h1M34 29h3M48 29h3M54 32h1M54 33h1M54 34h1M55 35h1M55 36h1M28 37h1M55 37h1M28 38h1M27 39h1M24 40h3M57 40h1M25 41h1M57 41h1M25 42h1M56 42h1M25 43h1M53 43h3M26 44h1M26 45h1M52 45h1M27 46h1M52 46h1M27 47h1M51 47h1M28 48h1M51 48h1M50 49h1M49 50h1M33 51h1M48 51h1M33 52h1M47 52h1M32 53h3M47 53h1M29 54h3M35 54h5M46 54h1M43 55h3" />
<path stroke="#94b48b" d="M34 34h1M36 34h1M33 35h1M33 38h1M42 40h1M44 40h1M41 41h1M44 43h1M41 44h1" />
<path stroke="#ffde73" d="M35 34h1M34 35h1M36 35h1M33 36h1M36 36h1M33 37h1M35 37h1M34 38h1M43 40h1M42 41h1M44 41h1M41 42h1M44 42h1M41 43h1M43 43h1M42 44h1" />
<path stroke="#7bde7b" d="M38 37h1M37 38h2" />
</svg>