<svg xmlns="http://www.w3.org/2000/svg" viewBox="0 -0.5 80 80" shape-rendering="crispEdges">
<metadata>Made with Pixels to Svg https://codepen.io/shshaw/pen/XbxvNj</metadata>
<path stroke="#101052" d="M22 11h3M43 11h1M20 12h1M25 12h1M39 12h1M44 12h1M19 13h1M26 13h1M38 13h1M45 13h1M26 14h1M37 14h1M45 14h1M25 15h1M37 15h1M45 15h1M36 16h1M45 16h1M57 16h1M22 17h1M24 17h1M36 17h1M45 17h1M23 18h1M36 18h1M44 18h1M57 18h1M22 19h2M44 19h1M20 20h2M33 20h2M36 20h1M43 20h1M56 20h1M37 21h1M24 22h1M37 22h1M55 22h1M31 23h1M47 23h1M55 23h1M47 24h1M24 25h1M46 25h1M54 25h1M24 26h1M45 26h1M53 26h1M25 27h1M37 27h2M45 27h1M51 27h1M26 28h2M39 28h1M44 28h1M49 28h2M37 29h2M44 29h1M51 29h1M43 30h1M31 31h1M38 31h2M52 31h1M30 32h1M46 32h7M28 33h2M24 34h4M48 34h2M54 34h1M45 35h3M54 35h1M40 36h5M53 36h1M63 36h1M12 37h1M52 37h1M62 37h1M64 37h1M53 38h1M62 38h1M64 38h1M62 39h1M64 39h1M35 40h1M61 40h1M39 41h1M61 41h1M34 42h1M37 42h1M61 42h1M8 43h2M34 43h2M58 43h2M65 43h7M50 44h3M60 44h1M53 45h4M61 45h1M53 46h1M62 46h1M48 47h1M52 47h1M54 47h1M57 47h1M60 47h1M63 47h1M66 47h1M47 48h1M52 48h1M58 48h1M61 48h1M63 48h2M67 48h1M47 49h1M56 49h1M58 49h1M61 49h2M66 49h1M46 50h1M57 50h3M65 50h1M46 51h1M57 51h1M65 51h1M33 52h1M46 52h1M57 52h1M64 52h1M34 53h1M46 53h1M58 53h1M63 53h1M35 54h1M46 54h1M58 54h1M62 54h1M36 55h1M58 55h1M60 55h2M38 56h1M56 56h1M58 56h2M55 57h1M58 57h1M34 58h1M42 58h6M57 58h1M29 59h1M31 59h1M35 59h1M51 59h1M57 59h1M27 60h2M31 60h1M52 60h1M58 60h1M30 61h1M35 61h1M52 61h2M58 61h1M52 62h2M57 62h1M54 63h1M57 63h1M54 64h1" />
<path stroke="#3129a4" d="M30 11h4M41 11h2M21 12h1M28 12h2M34 12h2M40 12h1M25 13h1M27 13h1M36 13h1M38 14h1M18 15h1M35 15h2M17 16h1M23 16h1M25 16h1M56 16h1M23 17h1M54 17h2M21 18h2M24 18h1M53 18h1M56 18h1M19 19h3M34 19h3M42 19h1M51 19h2M23 20h1M35 20h1M37 20h1M40 20h3M50 20h1M55 20h1M31 21h1M35 21h2M38 21h3M49 21h1M54 21h1M35 22h1M48 22h1M52 22h3M24 23h1M29 23h1M34 23h1M38 23h1M51 23h4M24 24h1M28 24h1M33 24h1M38 24h1M49 24h5M31 25h1M38 25h1M47 25h7M25 26h1M30 26h1M37 26h2M46 26h7M28 27h1M46 27h5M45 28h4M45 29h6M40 30h1M44 30h8M45 31h7M31 32h2M38 32h1M45 32h1M21 33h3M30 33h3M50 33h2M53 33h1M18 34h3M28 34h4M40 34h1M15 35h3M24 35h8M40 35h3M13 36h2M23 36h2M31 36h1M17 37h1M22 37h1M44 37h1M63 37h1M16 38h1M20 38h1M43 38h1M63 38h1M16 39h4M63 39h1M14 40h5M41 40h2M62 40h3M14 41h4M42 41h2M62 41h3M14 42h3M57 42h1M62 42h3M14 43h2M47 43h1M60 43h5M15 44h1M47 44h3M59 44h1M61 44h6M47 45h6M57 45h1M62 45h3M68 45h2M29 46h2M46 46h7M54 46h3M63 46h6M45 47h3M49 47h3M55 47h2M58 47h2M61 47h2M64 47h2M29 48h1M46 48h1M48 48h1M55 48h3M59 48h2M62 48h1M65 48h1M28 49h1M51 49h1M57 49h1M59 49h2M63 49h1M27 50h1M51 50h1M55 50h1M60 50h1M32 51h1M52 51h1M55 51h1M24 52h1M26 52h1M31 52h2M55 52h2M24 53h2M29 53h5M53 53h1M55 53h1M24 54h11M54 54h1M25 55h9M54 55h1M27 56h6M57 56h1M29 57h5M56 57h2M31 58h3M51 58h1M54 58h3M30 59h1M32 59h3M52 59h5M29 60h2M32 60h4M53 60h5M26 61h4M31 61h4M54 61h4M28 62h5M54 62h3M58 62h1M29 63h2M52 63h2M55 63h2M58 63h2M52 64h2M55 64h1M60 64h1M52 65h2M60 65h1M58 66h2M55 67h3M60 67h1M54 68h1M57 68h1M57 69h1M57 70h1" />
<path stroke="#4141cd" d="M22 12h3M30 12h4M41 12h3M24 13h1M30 13h6M39 13h6M31 14h6M43 14h2M20 15h3M31 15h4M44 15h1M18 16h5M30 16h6M38 16h4M18 17h4M25 17h2M29 17h7M37 17h6M56 17h1M18 18h3M25 18h11M37 18h6M54 18h2M24 19h10M37 19h5M53 19h3M24 20h9M38 20h2M51 20h4M24 21h7M50 21h4M25 22h5M49 22h3M25 23h4M30 23h1M48 23h3M25 24h3M29 24h4M48 24h1M25 25h6M26 26h4M26 27h2M39 27h1M37 28h2M39 29h1M38 30h2M40 31h2M39 32h2M38 33h3M44 33h6M52 33h1M21 34h3M39 34h1M41 34h7M50 34h1M21 35h3M39 35h1M43 35h2M53 35h1M18 36h5M45 36h1M50 36h3M18 37h4M47 37h5M17 38h3M44 38h9M42 39h11M43 40h9M46 41h4M44 42h2M42 43h5M43 44h4M67 44h4M43 45h4M65 45h3M44 46h2M30 47h1M30 48h2M49 48h3M29 49h3M48 49h3M55 49h1M28 50h4M47 50h4M56 50h1M27 51h5M47 51h5M56 51h1M27 52h4M47 52h6M26 53h3M47 53h6M57 53h1M47 54h7M57 54h1M48 55h1M51 55h3M57 55h1M48 56h1M52 56h3M49 57h1M52 57h3M52 58h2M56 64h4M54 65h6M53 66h5M60 66h1M53 67h2" />
<path stroke="#7394bd" d="M20 13h1M25 14h1M19 15h1M24 15h1M24 16h1M37 16h1M44 16h1M43 17h2M43 18h1M43 19h1M66 48h1M64 49h2M61 50h4M58 51h7M37 52h3M45 52h1M58 52h6M35 53h1M37 53h4M44 53h2M59 53h4M36 54h10M59 54h3M37 55h10M59 55h1M39 56h8M42 57h6" />
<path stroke="#9cdef6" d="M21 13h3M19 14h6M39 14h4M23 15h1M38 15h6M42 16h2M36 49h1M36 50h2M36 51h3" />
<path stroke="#5a5aee" d="M28 13h2M27 14h4M26 15h5M26 16h4M27 17h2M41 32h4M41 33h3M51 34h3M18 35h3M48 35h5M15 36h3M46 36h4M45 37h2M53 39h1M52 40h3M50 41h6M48 42h9M50 43h8M53 44h6M58 45h3M49 55h2M49 56h3M50 57h2" />
<path stroke="#101820" d="M18 14h1M17 17h1M57 17h1M17 18h1M18 19h1M56 19h1M19 20h1M23 21h1M32 21h1M34 21h1M41 21h2M55 21h1M23 22h1M30 22h2M34 22h1M38 22h3M23 23h1M32 23h2M39 23h1M39 24h1M54 24h1M39 25h1M39 26h1M29 27h2M40 27h1M52 27h1M28 28h1M30 28h1M40 28h1M31 29h1M40 29h1M31 30h1M41 30h1M52 30h1M42 31h3M25 36h6M23 37h2M31 37h1M21 38h2M20 39h1M54 39h1M19 40h1M40 40h1M55 40h1M65 40h1M12 41h2M18 41h1M41 41h1M44 41h2M56 41h1M65 41h1M10 42h2M13 42h1M17 42h1M42 42h2M46 42h2M65 42h1M13 43h1M16 43h1M48 43h2M14 44h1M16 44h1M71 44h1M15 45h1M30 45h1M70 45h1M57 46h5M69 46h1M67 47h2M24 49h2M23 52h1M23 53h1M23 54h1M24 55h1M34 55h2M47 55h1M25 56h2M33 56h1M37 56h1M47 56h1M27 57h2M34 57h1M39 57h3M48 57h1M29 58h2M49 58h2M23 62h1M33 62h2M59 62h1M22 63h1M31 63h2M51 63h1M60 63h1M23 64h2M28 64h3M51 64h1M61 64h1M25 65h3M51 65h1M52 66h1M52 67h1M61 67h1M53 68h1M61 68h1M63 68h2M54 69h1M58 69h2M55 70h1M60 70h2M56 71h2" />
<path stroke="#ffff18" d="M33 21h1" />
<path stroke="#de9c18" d="M32 22h2" />
<path stroke="#521000" d="M36 22h1M35 23h1M35 25h1M37 25h1M33 26h2M31 27h2M37 30h1M32 31h1M32 34h1M32 35h1M32 36h1M32 37h1M32 38h1M32 39h1M32 40h1M32 41h1M31 43h1M31 44h1M31 45h1M31 46h1M31 47h1M32 49h1M32 50h1" />
<path stroke="#ac3910" d="M36 23h2M35 24h3M33 25h2M36 25h1M31 26h2M35 26h2M33 27h4M31 28h6M32 29h5M33 30h3M32 42h1M32 48h1M45 48h1M44 49h3M42 50h4M33 51h2M40 51h6M34 52h3M40 52h5M36 53h1M41 53h3" />
<path stroke="#c5cdd5" d="M34 24h1M14 37h3M40 37h4M12 38h4M38 38h1M40 38h3M13 39h3M41 39h1M12 40h2M36 40h1M36 41h2M35 42h1M28 45h1M27 46h2M27 47h3M27 48h2M27 49h1M52 49h2M25 50h1M52 50h2M25 51h1M53 51h1M53 52h2M54 53h1M55 54h1M56 55h1M24 62h1M26 62h1M23 63h1M27 63h2M26 64h2M62 65h1M61 66h1M55 68h1M58 68h1M60 68h1M55 69h1" />
<path stroke="#ffffff" d="M32 25h1M39 38h1M11 39h2M37 39h4M10 40h2M37 40h3M9 41h3M8 42h2M27 43h1M27 44h1M27 45h1M26 46h1M26 47h1M53 47h1M26 48h1M53 48h1M26 49h1M24 50h1M54 50h1M24 51h1M54 51h1M25 52h1M56 53h1M56 54h1M55 55h1M55 56h1M25 63h1M61 65h1M62 66h1M58 67h2M63 67h1M56 68h1M59 68h1M56 69h1M60 69h1M56 70h1" />
<path stroke="#ee6a08" d="M32 30h1M36 30h1M33 31h5M33 32h5M33 33h5M33 34h6M33 35h6M33 36h7M33 37h6M33 38h4M33 39h3M33 40h2M33 41h2M40 41h1M33 42h1M38 42h4M32 43h2M36 43h6M32 44h11M32 45h11M32 46h12M32 47h13M33 48h12M33 49h3M37 49h7M33 50h3M38 50h4M35 51h1M39 51h1" />
<path stroke="#737b83" d="M13 37h1M39 37h1M11 38h1M37 38h1M10 39h1M36 39h1M9 40h1M8 41h1M35 41h1M38 41h1M7 42h1M27 42h1M36 42h1M7 43h1M26 43h1M28 43h1M26 44h1M28 44h1M26 45h1M29 45h1M25 46h1M25 47h1M25 48h1M54 48h1M54 49h1M23 50h1M26 50h1M23 51h1M26 51h1M26 60h1M24 61h2M25 62h1M27 62h1M24 63h1M26 63h1M25 64h1M62 64h1M63 65h1M63 66h1M62 67h1M64 67h1M61 69h1" />
</svg>