<svg xmlns="http://www.w3.org/2000/svg" viewBox="0 -0.5 80 80" shape-rendering="crispEdges">
<metadata>Made with Pixels to Svg https://codepen.io/shshaw/pen/XbxvNj</metadata>
<path stroke="#a44110" d="M40 20h4M38 21h1M44 21h2M34 22h4M46 22h1M32 23h2M36 23h1M47 23h1M31 24h1M44 24h3M30 25h1M35 25h1M42 25h2M47 25h2M30 26h1M30 27h1M41 28h3M29 29h1M44 29h1M43 31h1M52 31h1M42 32h2M30 33h1M39 33h2M43 33h1M30 34h1M29 35h1M31 35h2M40 35h1M29 36h1M31 36h1M30 37h1M32 37h1M49 37h1M30 38h1M33 38h1M37 38h2M49 38h1M31 39h1M35 39h1M32 40h1M38 40h1M33 41h1M45 42h1" />
<path stroke="#cd8320" d="M39 21h1M34 23h1M32 24h1M35 24h2M43 24h1M31 25h1M40 25h2M39 26h1M33 27h1M30 28h2M40 28h1M31 29h1M39 29h1M33 30h1M39 30h1M41 30h2M31 31h1M34 31h1M40 31h1M30 32h1M32 32h1M39 32h1M41 32h1M48 32h1M32 33h1M41 33h1M31 34h1M33 34h1M39 34h1M42 34h1M49 34h1M30 35h1M33 35h1M41 35h1M48 35h1M52 35h1M30 36h1M33 36h1M48 36h1M50 36h3M31 37h1M47 37h2M50 37h2M31 38h2M46 38h3M50 38h2M32 39h2M36 39h4M45 39h6M33 40h3M43 40h7M34 41h5M42 41h6M36 42h3M43 42h2" />
<path stroke="#ffac62" d="M40 21h4M43 22h3M35 23h1M44 23h3M47 24h1M44 25h3M31 26h1M40 26h10M31 27h2M37 27h14M32 28h1M37 28h3M44 28h7M30 29h1M32 29h1M37 29h2M46 29h6M30 30h3M37 30h2M47 30h5M29 31h2M32 31h2M36 31h4M41 31h2M48 31h4M29 32h1M33 32h6M40 32h1M49 32h4M29 33h1M33 33h6M42 33h1M49 33h4M29 34h1M32 34h1M34 34h5M40 34h2M50 34h3M34 35h6M42 35h1M50 35h2M32 36h1M34 36h9M33 37h9M34 38h3M39 38h2" />
<path stroke="#ffd5a4" d="M38 22h5M37 23h7M33 24h2M37 24h6M32 25h3M36 25h4M32 26h2M36 26h3" />
<path stroke="#101010" d="M48 24h1M49 25h1M50 26h1M51 27h1M51 28h1M45 29h1M52 29h1M29 30h1M46 30h1M52 30h1M28 31h1M47 31h1M28 32h1M47 32h1M53 32h1M28 33h1M48 33h1M53 33h1M28 34h1M48 34h1M53 34h1M28 35h1M49 35h1M53 35h1M28 36h1M49 36h1M53 36h1M29 37h1M52 37h1M29 38h1M52 38h1M30 39h1M34 39h1M43 39h2M51 39h1M31 40h1M36 40h2M42 40h1M50 40h1M32 41h1M34 42h2M52 43h2M47 44h5M39 45h1M48 45h1M37 46h2M49 46h1M35 47h2M40 47h1M32 48h3M40 48h1M52 48h1M29 49h3M40 49h1M52 49h1M41 50h1M51 50h1M19 51h1M44 51h1M49 51h2M19 52h1M43 52h1M48 52h1M19 53h1M44 53h1M13 54h1M43 54h1M47 54h1M13 55h1M42 55h1M46 55h1M13 56h1M45 56h1M14 57h1M44 57h1M15 58h1M41 58h2M35 59h6M31 60h4M15 61h2M19 61h2M27 61h4M20 62h1M25 62h2M21 63h2M24 63h1M23 64h1" />
<path stroke="#ee4141" d="M34 26h1M35 27h1M33 28h3M33 29h2M19 57h1M19 58h1" />
<path stroke="#5a3941" d="M35 26h1M36 27h1M36 28h1M36 29h1M36 30h1M35 31h1" />
<path stroke="#ffffff" d="M34 27h1" />
<path stroke="#ac4141" d="M35 29h1M34 30h2M24 54h2M25 55h2M18 57h1M20 58h1" />
<path stroke="#ffe69c" d="M40 29h4M40 30h1M43 30h3M44 31h3M31 32h1M44 32h3M44 33h3M43 34h4M43 35h3M43 36h2M42 37h1M39 43h4M36 44h4M41 44h5M32 45h7M41 45h7M27 46h10M41 46h8M31 47h3M42 47h6M30 48h2M43 48h1M46 48h1M51 48h1M44 49h1M43 50h2M14 54h2M21 54h1M14 55h4M20 55h2M14 56h9M15 57h3M20 57h3M36 57h2M17 58h2M21 58h1M34 58h3M16 59h5M22 59h1M24 59h1M30 59h5M15 60h10M27 60h4M21 61h6M21 62h1M23 62h1M23 63h1" />
<path stroke="#eebd62" d="M31 33h1M47 33h1M47 34h1M46 35h1M45 36h2M43 37h3M41 38h4M40 39h3M55 39h1M39 40h2M53 40h2M40 41h1M51 41h3M40 42h2M48 42h7M45 43h7M40 45h1M29 47h1M34 47h1M41 47h1M48 47h1M41 48h2M47 48h3M41 49h1M46 49h3M50 49h2M42 50h1M46 50h5M20 51h2M26 51h1M42 51h2M45 51h3M20 52h4M25 52h2M41 52h1M44 52h4M20 53h1M22 53h6M41 53h3M23 54h1M26 54h2M40 54h3M23 55h2M27 55h1M39 55h3M24 56h5M38 56h3M24 57h6M38 57h1M26 58h3" />
<path stroke="#414141" d="M47 35h1M47 36h1M46 37h1M45 38h1M55 38h2M53 39h2M56 39h1M41 40h1M51 40h2M56 40h1M39 41h1M41 41h1M48 41h3M55 41h1M39 42h1M42 42h1M46 42h2M55 42h1M36 43h2M43 43h1M54 43h1M32 44h3M46 44h1M27 45h4M26 46h1M40 46h1M26 47h3M50 47h2M28 48h1M50 48h1M43 49h1M45 49h1M19 50h3M26 50h1M45 50h1M23 51h1M25 51h1M27 51h1M41 51h1M24 52h1M27 52h1M40 52h1M42 52h1M13 53h3M21 53h1M28 53h1M40 53h1M45 53h1M47 53h1M17 54h1M20 54h1M28 54h1M39 54h1M44 54h1M19 55h1M38 55h1M43 55h1M23 56h1M29 56h1M36 56h2M41 56h1M23 57h1M30 57h1M34 57h2M39 57h2M43 57h1M16 58h1M24 58h1M30 58h4M37 58h2M25 59h1M27 59h3M14 60h1M25 60h2M17 61h2" />
<path stroke="#ac6a31" d="M55 40h1M54 41h1M38 43h1M44 43h1M35 44h1M40 44h1M31 45h1M30 47h1M49 47h1M29 48h1M44 48h2M42 49h1M49 49h1M22 51h1M48 51h1M46 53h1M16 54h1M22 54h1M45 54h2M18 55h1M22 55h1M28 55h1M44 55h2M42 56h3M41 57h2M22 58h2M25 58h1M29 58h1M39 58h2M15 59h1M21 59h1M23 59h1M26 59h1M22 62h1M24 62h1" />
</svg>