<svg xmlns="http://www.w3.org/2000/svg" viewBox="0 -0.5 80 80" shape-rendering="crispEdges">
<metadata>Made with Pixels to Svg https://codepen.io/shshaw/pen/XbxvNj</metadata>
<path stroke="#31417b" d="M4 14h2M3 15h1M6 15h2M2 16h1M8 16h1M2 17h1M9 17h1M2 18h1M10 18h1M2 19h1M11 19h1M65 19h8M3 20h1M12 20h1M61 20h4M73 20h3M3 21h1M13 21h1M58 21h3M76 21h1M3 22h1M13 22h1M26 22h1M55 22h3M76 22h1M4 23h1M14 23h1M25 23h1M28 23h1M53 23h2M77 23h1M4 24h1M15 24h1M25 24h1M50 24h3M77 24h1M5 25h1M16 25h1M24 25h1M48 25h2M77 25h1M5 26h1M16 26h1M24 26h1M27 26h1M47 26h1M77 26h1M6 27h1M17 27h1M23 27h1M27 27h1M45 27h2M77 27h1M7 28h1M18 28h1M23 28h1M44 28h1M7 29h1M15 29h2M19 29h1M22 29h1M43 29h1M8 30h1M17 30h1M19 30h1M22 30h1M33 30h1M42 30h1M8 31h1M17 31h1M20 31h1M22 31h1M26 31h1M32 31h1M40 31h2M9 32h1M18 32h1M20 32h2M26 32h1M31 32h1M39 32h1M43 32h1M9 33h1M18 33h1M21 33h1M30 33h1M38 33h1M41 33h1M9 34h1M19 34h1M21 34h1M29 34h1M32 34h1M37 34h1M40 34h1M10 35h1M19 35h2M28 35h1M36 35h1M39 35h1M10 36h1M20 36h1M27 36h1M31 36h1M35 36h1M38 36h1M10 37h1M20 37h1M26 37h1M34 37h1M37 37h1M11 38h1M25 38h1M30 38h1M34 38h1M11 39h1M18 39h1M33 39h1M36 39h1M12 40h1M18 40h1M28 40h1M33 40h1M35 40h1M12 41h1M19 41h1M30 41h3M35 41h1M13 42h1M19 42h1M32 42h1M34 42h1M13 43h1M16 43h1M24 43h1M33 43h2M14 44h1M16 44h1M20 44h1M24 44h1M33 44h1M14 45h1M25 45h1M34 45h1M15 46h1M34 46h1M41 46h7M16 47h2M21 47h1M25 47h1M34 47h1M37 47h4M48 47h3M18 48h1M22 48h1M24 48h1M34 48h1M52 48h2M33 49h1M55 49h1M19 50h1M33 50h1M57 50h1M19 51h1M58 51h1M19 52h1M59 52h1M20 53h1M59 53h1M20 54h2M58 54h1M18 55h2M58 55h1M17 56h1M57 56h1M17 57h1M56 57h1M55 58h2M57 59h2M59 60h1M59 61h1" />
<path stroke="#6283c5" d="M4 15h2M3 16h5M6 17h3M7 18h3M8 19h3M9 20h3M65 20h8M10 21h3M61 21h15M4 22h2M11 22h2M58 22h7M74 22h2M7 23h1M12 23h2M55 23h6M76 23h1M8 24h1M12 24h3M53 24h5M9 25h1M13 25h3M50 25h6M6 26h1M10 26h1M14 26h2M48 26h5M8 27h1M11 27h1M14 27h3M47 27h3M68 27h6M10 28h2M15 28h3M45 28h4M62 28h4M12 29h1M17 29h2M44 29h3M57 29h6M13 30h1M18 30h1M43 30h3M54 30h2M63 30h3M13 31h1M18 31h2M42 31h3M51 31h2M67 31h2M14 32h1M19 32h1M40 32h3M49 32h2M69 32h1M10 33h1M15 33h2M19 33h2M39 33h2M47 33h2M71 33h1M12 34h1M20 34h1M38 34h2M46 34h1M13 35h2M37 35h2M44 35h2M60 35h8M15 36h1M17 36h1M36 36h2M43 36h1M54 36h4M69 36h1M11 37h2M16 37h1M35 37h2M42 37h1M51 37h2M13 38h2M20 38h1M35 38h2M41 38h1M48 38h2M15 39h2M24 39h1M34 39h2M40 39h1M46 39h2M16 40h2M26 40h2M34 40h1M39 40h1M44 40h2M63 40h5M15 41h1M17 41h1M25 41h1M33 41h2M39 41h1M43 41h1M57 41h5M14 42h1M16 42h1M24 42h1M33 42h1M38 42h1M41 42h2M53 42h5M14 43h1M37 43h1M40 43h1M49 43h3M58 43h2M36 44h1M39 44h1M46 44h3M61 44h1M30 45h1M35 45h1M38 45h1M44 45h2M62 45h1M21 46h1M25 46h1M29 46h1M35 46h1M37 46h1M28 47h3M33 47h1M36 47h1M51 47h1M63 47h1M23 48h1M28 48h1M31 48h3M54 48h1M62 48h1M27 49h1M32 49h1M41 49h6M56 49h1M60 49h1M23 50h1M26 50h2M47 50h4M23 51h5M51 51h2M25 52h2M42 52h4M53 52h2M46 53h3M55 53h1M49 54h2M57 54h1M44 55h1M52 55h1M27 56h1M45 56h1M54 56h1M26 57h1M47 57h1M55 57h1M25 58h1M28 58h1M49 58h1M50 59h1" />
<path stroke="#b4deff" d="M3 17h2M3 18h4M3 19h5M4 20h5M4 21h6M6 22h5M67 22h5M5 23h1M8 23h3M62 23h14M5 24h3M9 24h3M59 24h18M6 25h3M10 25h3M57 25h20M8 26h2M11 26h3M54 26h23M7 27h1M10 27h1M12 27h2M51 27h16M75 27h2M8 28h2M12 28h2M49 28h12M67 28h8M8 29h4M13 29h1M48 29h9M64 29h12M9 30h4M46 30h8M57 30h6M66 30h9M9 31h4M45 31h6M54 31h12M69 31h6M10 32h3M44 32h5M51 32h18M71 32h3M12 33h1M43 33h4M49 33h22M72 33h1M10 34h2M42 34h1M44 34h2M47 34h25M11 35h1M43 35h1M46 35h13M69 35h2M11 36h1M45 36h9M59 36h10M44 37h1M46 37h5M54 37h16M45 38h1M47 38h1M51 38h18M48 39h21M46 40h1M48 40h14M47 41h9M62 41h6M48 42h4M58 42h10M47 43h1M52 43h6M60 43h7M49 44h11M62 44h5M48 45h1M50 45h12M63 45h3M49 46h14M64 46h1M52 47h11M55 48h7M57 49h3M55 52h4M43 53h2M49 53h6M57 53h2M43 54h6M52 54h5M45 55h7M54 55h4M44 56h1M47 56h7M55 56h2M44 57h3M49 57h6M44 58h5M50 58h5M45 59h5M51 59h6M46 60h5M52 60h1M54 60h5M48 61h3M55 61h4M56 62h2" />
<path stroke="#83a4e6" d="M5 17h1M28 21h1M27 22h2M65 22h2M72 22h2M6 23h1M11 23h1M27 23h1M61 23h1M27 24h1M58 24h1M27 25h1M56 25h1M7 26h1M26 26h1M53 26h1M9 27h1M26 27h1M50 27h1M67 27h1M74 27h1M14 28h1M26 28h1M61 28h1M66 28h1M75 28h1M14 29h1M26 29h1M47 29h1M63 29h1M14 30h1M26 30h1M56 30h1M14 31h1M25 31h1M33 31h1M53 31h1M66 31h1M13 32h1M25 32h1M32 32h2M70 32h1M11 33h1M13 33h2M25 33h1M32 33h1M42 33h1M13 34h3M25 34h1M31 34h1M41 34h1M43 34h1M12 35h1M15 35h1M24 35h2M31 35h1M40 35h3M59 35h1M68 35h1M12 36h3M16 36h1M24 36h2M30 36h1M39 36h4M44 36h1M58 36h1M13 37h3M24 37h1M29 37h2M38 37h4M43 37h1M45 37h1M53 37h1M12 38h1M15 38h2M24 38h1M28 38h2M37 38h4M42 38h3M46 38h1M50 38h1M12 39h3M17 39h1M27 39h3M37 39h3M41 39h5M13 40h3M36 40h3M40 40h4M47 40h1M62 40h1M13 41h2M16 41h1M36 41h3M40 41h3M44 41h3M56 41h1M15 42h1M35 42h3M39 42h2M43 42h5M52 42h1M15 43h1M20 43h1M23 43h1M35 43h2M38 43h2M41 43h6M48 43h1M15 44h1M21 44h3M31 44h2M34 44h2M37 44h2M40 44h6M60 44h1M15 45h2M21 45h4M31 45h3M36 45h2M39 45h5M46 45h2M49 45h1M16 46h2M22 46h3M30 46h4M36 46h1M38 46h3M48 46h1M63 46h1M18 47h1M22 47h3M31 47h2M35 47h1M41 47h7M37 48h15M39 49h2M47 49h8M41 50h6M51 50h6M42 51h9M53 51h5M20 52h1M46 52h7M21 53h1M45 53h1M56 53h1M22 54h2M27 54h1M51 54h1M20 55h8M53 55h1M18 56h9M46 56h1M18 57h4M23 57h3M27 57h2M48 57h1M19 58h2M24 58h1M26 58h2M25 59h3M51 60h1" />
<path stroke="#101010" d="M28 20h2M27 21h1M29 21h1M29 22h1M28 24h1M28 25h1M27 28h1M76 28h1M27 29h1M76 29h1M15 30h1M27 30h1M34 30h1M75 30h1M15 31h1M34 31h1M75 31h1M15 32h1M34 32h1M74 32h1M26 33h1M33 33h1M73 33h1M16 34h1M26 34h1M72 34h1M16 35h1M26 35h1M32 35h1M71 35h1M26 36h1M70 36h1M17 37h1M25 37h1M31 37h1M70 37h1M17 38h1M69 38h1M30 39h1M69 39h1M29 40h1M68 40h1M29 41h1M68 41h1M18 42h1M28 42h1M30 42h1M68 42h1M18 43h2M26 43h3M30 43h1M67 43h1M18 44h2M26 44h3M30 44h1M67 44h1M17 45h1M20 45h1M29 45h1M66 45h1M18 46h3M26 46h3M65 46h1M19 47h1M27 47h1M64 47h1M19 48h1M27 48h1M29 48h1M63 48h1M20 49h1M22 49h3M26 49h1M28 49h1M31 49h1M34 49h1M61 49h2M20 50h3M24 50h2M28 50h1M32 50h1M58 50h3M20 51h1M33 51h1M21 52h1M27 52h1M29 52h1M33 52h1M22 53h2M27 53h2M32 53h1M24 54h2M29 54h3M28 55h1M30 55h1M36 55h2M42 55h1M28 56h1M33 56h1M22 57h1M29 57h2M34 57h2M18 58h1M21 58h1M23 58h1M29 58h1M31 58h2M39 58h2M19 59h2M24 59h1M28 59h1M30 59h1M43 59h2M25 60h3M30 60h1M34 60h1M41 60h1M43 60h1M45 60h1M53 60h1M31 61h1M35 61h2M41 61h1M43 61h1M46 61h2M51 61h2M54 61h1M32 62h2M40 62h1M48 62h3M55 62h1M58 62h1M34 63h2M42 63h1M56 63h2M36 64h2M41 64h1M39 65h2" />
<path stroke="#9cbdff" d="M26 23h1M26 24h1M25 25h2M25 26h1M24 27h2M24 28h2M23 29h3M16 30h1M23 30h3M16 31h1M23 31h2M16 32h2M22 32h3M17 33h1M22 33h3M31 33h1M17 34h2M22 34h3M30 34h1M17 35h2M21 35h3M29 35h2M18 36h2M21 36h3M28 36h2M18 37h2M21 37h3M27 37h2M18 38h2M21 38h3M26 38h2M19 39h5M25 39h2M19 40h7M20 41h5M20 42h4M31 42h1M21 43h2M31 43h2" />
<path stroke="#ffffff" d="M18 41h1M26 41h2M17 42h1M26 42h2M25 48h2M21 49h1M25 49h1" />
<path stroke="#b4bdc5" d="M28 41h1M25 42h1M29 42h1M17 43h1M25 43h1M29 43h1M17 44h1M25 44h1M29 44h1M18 45h2M26 45h3M20 47h1M26 47h1M20 48h2" />
<path stroke="#624a39" d="M30 48h1M35 48h2M30 49h1M37 49h2M30 50h1M39 50h2M22 51h1M28 51h1M30 51h1M32 51h1M38 51h1M40 51h2M23 52h2M31 52h1M39 52h1M41 52h1M25 53h2M30 53h1M37 53h3M42 53h1M26 54h1M28 54h1M37 54h1M42 54h1M35 55h1M43 55h1M30 56h1M32 56h1M35 56h1M40 56h2M43 56h1M32 57h1M40 57h1M43 57h1M38 58h1M43 58h1M38 59h1M33 60h1M36 60h3M42 60h1M32 61h2M41 62h2M37 63h3M38 65h1" />
<path stroke="#c5a48b" d="M29 49h1M35 49h2M31 50h1M35 50h4M35 51h3M39 51h1M32 52h1M36 52h3M40 52h1M40 53h1" />
<path stroke="#a47b7b" d="M29 50h1M34 50h1M21 51h1M29 51h1M31 51h1M34 51h1M22 52h1M28 52h1M30 52h1M34 52h2M24 53h1M29 53h1M31 53h1M33 53h4M41 53h1M32 54h5M38 54h4M29 55h1M31 55h4M38 55h4M29 56h1M31 56h1M34 56h1M36 56h4M42 56h1M31 57h1M33 57h1M36 57h4M41 57h2M30 58h1M33 58h5M41 58h2M31 59h7M39 59h4M31 60h2M35 60h1M39 60h2M34 61h1M37 61h4M42 61h1M34 62h6M36 63h1M40 63h2M38 64h3" />
</svg>