<svg xmlns="http://www.w3.org/2000/svg" viewBox="0 -0.5 80 80" shape-rendering="crispEdges">
<metadata>Made with Pixels to Svg https://codepen.io/shshaw/pen/XbxvNj</metadata>
<path stroke="#52b494" d="M29 14h2M29 15h1M31 15h1M33 16h1M36 19h1M27 20h1M33 23h1M40 23h1M34 24h1M25 25h1M29 27h1M33 27h1M33 28h3M32 29h1M36 29h2M32 30h1M31 31h1M41 31h2M29 32h1M31 32h1M41 32h2M30 33h1M35 33h1M42 33h1M35 34h1M42 34h1M42 35h1M31 56h1M33 56h1M41 56h1M48 56h1M50 56h1M31 57h3M40 57h1M42 57h1M49 57h3M31 58h3M40 58h1M50 58h2M30 59h3M50 59h3M30 60h3M43 60h1M50 60h3M30 61h2M51 61h2M29 62h1M31 62h1M51 62h1M53 62h1M43 63h2" />
<path stroke="#52eec5" d="M30 15h1M30 16h3M30 17h5M31 18h5M31 19h5M25 20h2M32 20h5M26 21h4M32 21h6M26 22h6M33 22h5M27 23h6M34 23h5M28 24h6M35 24h4M26 25h2M30 25h10M23 26h16M25 27h4M30 27h3M34 27h5M28 28h1M30 28h3M36 28h2M29 29h3M29 30h3M29 31h2M30 32h1M35 35h1M34 36h1M41 57h1M41 58h2M40 59h3M40 60h3M41 61h3M41 62h3M42 63h1M42 64h1M44 64h1" />
<path stroke="#206a62" d="M32 15h1M29 16h1M34 16h1M29 17h1M35 17h1M36 18h1M24 19h3M28 20h2M37 20h1M30 21h2M38 21h1M32 22h1M38 22h1M40 22h1M39 23h1M26 24h2M39 24h1M23 25h2M28 25h2M24 27h1M29 28h1M28 29h1M28 30h1M28 31h1M40 32h1M41 33h1M41 34h1M34 35h1M41 35h1M41 36h1M31 55h1M33 55h1M49 55h2M32 56h1M34 56h1M49 56h1M51 56h1M30 57h1M38 57h1M48 57h1M30 58h1M39 58h1M49 58h1M52 58h1M29 59h1M33 59h1M39 59h1M43 59h1M49 59h1M29 60h1M39 60h1M49 60h1M29 61h1M32 61h1M40 61h1M50 61h1M53 61h1M28 62h1M30 62h1M40 62h1M52 62h1M54 62h1M28 63h1M41 63h1M41 64h1M43 64h1M43 65h2" />
<path stroke="#9494ac" d="M52 16h2M39 17h2M50 17h2M42 18h1M49 18h1M59 18h6M47 19h1M55 19h3M21 20h2M46 20h1M53 20h2M22 21h1M45 21h1M61 21h1M11 22h4M15 23h4M20 24h1M55 25h1M9 26h3M39 26h1M58 26h2M8 27h1M60 27h1M9 28h2M27 30h1M37 30h1M49 30h1M37 32h1M27 33h1M33 33h1M33 34h1M33 35h1M37 35h1M26 36h1M41 37h1M36 38h1M34 39h1M40 39h1M27 40h1M31 40h1M30 41h2M38 42h1M35 43h1M33 44h1M38 44h2M33 45h2M32 46h1M34 47h1M36 47h1M36 48h1M35 49h1M50 49h2M49 50h1M33 51h1M34 52h2M35 53h1M37 53h1M42 53h1M46 53h1M42 54h1" />
<path stroke="#52525a" d="M54 16h1M41 17h1M54 17h1M39 18h1M43 18h1M53 18h1M40 19h1M44 19h1M40 20h1M45 20h1M52 20h1M64 20h1M20 21h1M41 21h1M51 21h1M19 22h1M22 22h1M41 22h1M10 23h1M19 23h1M22 23h1M41 23h1M11 24h2M23 24h1M40 24h1M57 24h1M12 25h2M40 25h1M39 27h1M27 28h1M38 28h1M60 28h1M12 29h1M27 29h1M53 29h4M17 30h1M38 30h1M41 30h1M44 30h1M50 30h2M16 31h1M35 31h2M45 31h1M49 31h1M15 32h1M19 32h1M22 32h1M25 32h1M33 32h2M49 32h1M15 33h1M22 33h1M24 33h1M32 33h1M37 33h1M49 33h1M23 34h2M26 34h1M37 34h1M26 35h1M24 36h2M25 37h1M35 39h1M32 40h2M29 41h1M39 41h2M32 42h1M34 43h1M31 44h2M30 45h1M31 46h1M30 47h1M29 48h1M34 48h1M52 48h1M32 49h1M31 50h1M51 50h1M31 51h1M50 51h1M31 52h1M50 52h1M31 53h1M36 53h1M30 54h1M35 54h1M37 54h1M43 54h4M30 55h1M38 55h1M44 55h1M47 55h1M30 56h1M38 56h1M44 56h1M47 56h1" />
<path stroke="#ffffff" d="M52 17h2M40 18h2M50 18h3M41 19h3M49 19h3M59 19h5M42 20h3M47 20h5M55 20h7M42 21h3M46 21h5M52 21h9M42 22h18M11 23h4M42 23h16M13 24h6M41 24h15M14 25h5M41 25h14M12 26h2M15 26h3M40 26h13M55 26h3M9 27h9M42 27h18M11 28h6M43 28h13M14 29h3M34 29h2M43 29h9M33 30h4M46 30h2M32 31h3M38 31h2M47 31h2M32 32h1M36 32h1M38 32h2M48 32h1M28 33h1M34 33h1M36 33h1M38 33h3M27 34h5M36 34h1M38 34h3M27 35h6M36 35h1M38 35h3M28 36h5M35 36h2M38 36h2M26 37h14M26 38h10M37 38h2M27 39h7M36 39h2M29 40h2M40 42h2M38 43h2M31 45h2M38 45h1M33 46h3M37 46h4M31 47h3M35 47h1M37 47h5M30 48h3M35 48h1M37 48h8M34 49h1M36 49h11M33 50h14M34 51h3M38 51h8M36 52h1M38 52h7M38 53h4M38 54h4M39 55h4M39 56h2M42 56h1M39 57h1" />
<path stroke="#101010" d="M30 18h1M30 19h1M53 19h1M65 19h1M24 20h1M31 20h1M63 20h1M25 21h1M62 21h1M25 22h1M60 22h2M26 23h1M59 23h1M58 24h1M56 25h1M22 26h1M23 27h1M25 28h2M57 28h3M11 29h1M52 29h1M13 30h4M42 30h2M26 31h2M40 31h1M43 31h1M46 31h1M20 32h2M27 32h1M43 32h1M47 32h1M16 33h3M43 33h1M48 33h1M34 34h1M43 34h1M43 35h1M42 36h1M24 37h1M42 37h1M24 38h1M41 38h1M25 39h1M41 39h1M59 39h1M26 40h1M40 40h1M28 41h1M30 42h2M54 42h1M33 43h1M51 43h2M49 44h2M50 47h2M33 48h1M30 49h2M51 53h1M51 54h1M35 55h1M43 55h1M51 55h1M35 56h1M43 56h1M52 56h1M34 57h1M43 57h1M52 57h1M34 58h1M43 58h1M53 59h1M33 60h1M44 60h1M53 60h1M44 61h1M32 62h1M44 62h1M50 62h1M29 63h3M45 63h1M51 63h3M45 64h1M42 65h1" />
<path stroke="#cdcdd5" d="M48 19h1M52 19h1M58 19h1M64 19h1M41 20h1M62 20h1M21 21h1M20 22h2M20 23h2M58 23h1M19 24h1M21 24h2M56 24h1M19 25h4M14 26h1M18 26h4M53 26h2M18 27h5M40 27h2M17 28h8M39 28h4M56 28h1M13 29h1M17 29h10M33 29h1M38 29h5M18 30h9M39 30h2M45 30h1M48 30h1M17 31h9M37 31h1M16 32h3M23 32h2M28 32h1M35 32h1M23 33h1M29 33h1M31 33h1M32 34h1M27 36h1M33 36h1M37 36h1M40 36h1M40 37h1M25 38h1M39 38h2M26 39h1M38 39h2M28 40h1M34 40h6M32 41h7M33 42h5M39 42h1M36 43h2M40 43h1M34 44h4M35 45h3M36 46h1M49 48h3M33 49h1M47 49h3M32 50h1M47 50h2M50 50h1M32 51h1M37 51h1M46 51h4M32 52h2M37 52h1M45 52h5M32 53h3M43 53h3M47 53h4M31 54h4M47 54h4M32 55h1M34 55h1M48 55h1" />
<path stroke="#bd4a5a" d="M47 36h6M45 37h2M53 37h1M43 38h2M56 38h1M42 39h1M44 40h1M41 41h1M46 41h1M42 42h1M40 44h1M47 44h2M40 45h1M42 46h1M44 47h1M48 47h1" />
<path stroke="#f64a41" d="M47 37h6M45 38h11M43 39h16M42 40h2M45 40h13M42 41h4M48 41h8M43 42h11M42 43h3M46 43h5M41 44h6M41 45h9M43 46h9M45 47h3" />
<path stroke="#7b3952" d="M54 37h2M57 38h2M41 40h1M58 40h1M47 41h1M56 41h2M55 42h1M41 43h1M45 43h1M53 43h1M39 45h1M50 45h2M41 46h1M52 46h1M42 47h2M49 47h1M45 48h4" />
</svg>