<svg xmlns="http://www.w3.org/2000/svg" viewBox="0 -0.5 80 80" shape-rendering="crispEdges">
<metadata>Made with Pixels to Svg https://codepen.io/shshaw/pen/XbxvNj</metadata>
<path stroke="#9c5a6a" d="M38 19h6M36 20h2M35 21h1M34 22h1M34 23h1M48 27h1M48 28h1M48 29h1M47 30h2M26 31h5M47 31h2M24 32h2M46 32h3M23 33h1M34 33h1M44 33h5M22 34h1M35 34h2M41 34h6M22 35h1M36 35h9M36 36h8M37 37h6M54 37h1M37 38h5M37 39h5M55 39h1M36 40h1M38 40h3M55 40h1M36 41h1M38 41h3M55 41h1M36 42h1M38 42h2M55 42h1M36 43h1M38 43h2M55 43h1M35 44h3M39 44h1M54 44h2M35 45h3M40 45h1M54 45h1M23 46h1M34 46h4M40 46h1M54 46h1M24 47h2M32 47h6M40 47h1M53 47h2M24 48h15M40 48h2M51 48h3M24 49h1M27 49h12M40 49h4M48 49h2M52 49h2M28 50h11M40 50h1M43 50h6M29 51h2M34 51h5M44 51h4M35 52h2" />
<path stroke="#d59c6a" d="M38 20h6M36 21h9M35 22h3M39 22h3M43 22h2M35 23h3M39 23h3M43 23h1M36 24h2M39 24h3M26 32h4M24 33h6M23 34h6M23 35h5M47 35h5M23 36h1M25 36h2M45 36h7M44 37h1M46 37h6M43 38h2M46 38h3M50 38h1M44 39h1M46 39h3" />
<path stroke="#523129" d="M44 20h2M46 21h1M47 22h1M47 23h1M33 24h1M48 24h1M33 25h1M48 25h1M33 26h1M48 26h1M32 27h1M32 28h1M32 29h1M32 30h1M32 31h1M31 32h2M33 33h1M34 34h1M47 34h5M35 35h1M45 35h2M52 35h2M21 36h1M35 36h1M44 36h1M21 37h1M43 37h1M21 38h1M42 38h1M21 39h1M36 39h1M42 39h1M21 40h1M41 40h1M21 41h1M41 41h1M21 42h1M40 42h1M21 43h1M37 43h1M40 43h1M22 44h1M40 44h1M39 45h1M55 45h1M39 46h1M23 47h1M38 47h2" />
<path stroke="#bd7352" d="M45 21h1M45 22h2M44 23h3M34 24h2M43 24h5M34 25h5M42 25h6M34 26h4M43 26h5M33 27h4M44 27h4M33 28h4M44 28h4M33 29h5M43 29h5M33 30h14M33 31h14M30 32h1M33 32h13M30 33h3M35 33h9M29 34h5M37 34h4M29 35h6M22 36h1M27 36h1M29 36h6M52 36h2M22 37h2M25 37h3M29 37h7M52 37h2M22 38h2M25 38h1M30 38h6M51 38h4M22 39h3M31 39h5M43 39h1M50 39h5M22 40h2M31 40h5M42 40h2M47 40h2M50 40h5M22 41h2M30 41h6M42 41h1M48 41h7M22 42h3M29 42h7M41 42h2M49 42h6M22 43h14M41 43h3M49 43h6M23 44h12M41 44h4M48 44h6M23 45h12M41 45h13M24 46h10M41 46h13M26 47h6M41 47h12M42 48h9M44 49h4" />
<path stroke="#ffffff" d="M38 22h1M42 22h1M28 35h1M24 36h1M45 37h1M49 38h1" />
<path stroke="#101010" d="M38 23h1M42 23h1M38 24h1M42 24h1M37 27h1M43 27h1M49 27h1M37 28h1M43 28h1M49 28h1M39 29h3M49 29h1M49 30h1M49 31h1M49 32h1M49 33h1M28 36h1M54 36h1M24 37h1M28 37h1M36 37h1M55 37h1M24 38h1M29 38h1M36 38h1M45 38h1M55 38h1M30 39h1M45 39h1M49 39h1M56 39h1M30 40h1M37 40h1M49 40h1M56 40h1M24 41h1M29 41h1M37 41h1M47 41h1M56 41h1M25 42h3M37 42h1M48 42h1M56 42h1M44 43h1M48 43h1M56 43h1M38 44h1M45 44h2M56 44h1M22 45h1M38 45h1M22 46h1M38 46h1M55 46h1M22 47h1M55 47h2M23 48h1M39 48h1M57 48h1M23 49h1M39 49h1M57 49h1M18 50h1M39 50h1M49 50h1M52 50h2M58 50h2M28 51h1M39 51h2M43 51h1M48 51h1M60 51h1M29 52h1M34 52h1M37 52h3M44 52h3M35 53h2M55 54h1M55 55h1M50 56h2M55 56h1M47 57h3M41 58h2M41 59h1" />
<path stroke="#08297b" d="M39 25h3M38 26h1M42 26h1M38 28h1M42 28h1M38 29h1M42 29h1M26 38h3M25 39h1M24 40h1M44 40h3M25 41h1M28 41h1M43 41h1M28 42h1M43 42h1M47 43h1M47 44h1" />
<path stroke="#8394f6" d="M39 26h2M26 39h1M44 41h2" />
<path stroke="#5a6acd" d="M41 26h1M39 27h3M27 39h2M26 40h3M46 41h1M44 42h3" />
<path stroke="#3152a4" d="M38 27h1M42 27h1M39 28h3M29 39h1M25 40h1M29 40h1M26 41h2M47 42h1M45 43h2" />
<path stroke="#837b4a" d="M21 47h1M21 48h1M19 49h2M54 50h1M18 51h1M24 51h1M27 51h1M54 51h1M57 51h1M19 52h1M21 52h2M25 52h2M40 52h1M43 52h1M48 52h1M53 52h7M20 53h1M23 53h1M25 53h1M29 53h1M37 53h1M40 53h3M46 53h1M48 53h2M52 53h1M55 53h4M19 54h1M24 54h1M28 54h1M35 54h2M38 54h2M46 54h2M49 54h4M56 54h1M20 55h1M23 55h2M28 55h1M37 55h1M39 55h4M44 55h2M48 55h1M50 55h2M21 56h2M27 56h1M29 56h1M35 56h3M40 56h2M43 56h4M48 56h2M27 57h1M32 57h4M41 57h1M43 57h4M28 58h5M35 58h2M40 58h1M43 58h3M38 59h3" />
<path stroke="#b4ac73" d="M22 48h1M55 48h2M55 49h2M19 50h1M22 50h2M50 50h2M55 50h2M19 51h5M41 51h2M50 51h2M58 51h2M20 52h1M23 52h2M27 52h2M33 52h1M41 52h2M50 52h2M24 53h1M26 53h3M33 53h2M38 53h1M47 53h1M22 54h2M25 54h3M29 54h1M32 54h3M37 54h1M48 54h1M53 54h2M21 55h2M25 55h3M29 55h1M32 55h3M36 55h1M38 55h1M47 55h1M49 55h1M52 55h3M26 56h1M30 56h4M52 56h3M28 57h2M36 57h1M38 57h2M38 58h2" />
<path stroke="#5a5220" d="M54 48h1M25 49h2M50 49h2M54 49h1M24 50h1M27 50h1M41 50h2M57 50h1M31 51h3M49 51h1M52 51h2M55 51h2M30 52h1M47 52h1M49 52h1M52 52h1M60 52h1M39 53h1M43 53h3M50 53h2M53 53h2M59 53h1M40 54h6M57 54h2M35 55h1M43 55h1M46 55h1M56 55h1M25 56h1M34 56h1M38 56h2M42 56h1M47 56h1M26 57h1M30 57h2M37 57h1M40 57h1M42 57h1M52 57h3M33 58h2M37 58h1M46 58h1M29 59h4M35 59h3M43 59h3M38 60h3" />
<path stroke="#e6e6b4" d="M21 49h2M20 50h2M25 50h2M25 51h2M31 52h2M21 53h2M30 53h3M20 54h2M30 54h2M30 55h2M28 56h1" />
</svg>