<svg xmlns="http://www.w3.org/2000/svg" viewBox="0 -0.5 80 80" shape-rendering="crispEdges">
<metadata>Made with Pixels to Svg https://codepen.io/shshaw/pen/XbxvNj</metadata>
<path stroke="#416283" d="M30 22h6M28 23h1M37 23h1M27 24h1M38 24h1M26 25h1M25 26h1M24 28h1M41 28h1M24 29h1M37 29h1M24 30h1M37 30h1M24 31h1M37 31h1M23 32h1M23 33h1M24 34h1M30 34h1M37 34h1M41 34h1M25 35h1M40 35h1M25 36h2M36 36h1M27 37h1M28 38h2M34 38h1M40 38h3M23 39h2M30 39h1M36 39h1M39 39h1M43 39h1M54 39h5M26 40h4M35 40h1M44 40h1M52 40h1M59 40h1M21 41h2M51 41h1M60 41h1M23 42h1M39 42h2M51 42h1M60 42h1M23 43h1M36 43h1M50 43h1M56 43h2M50 44h1M55 44h1M58 44h1M26 45h1M36 45h1M40 45h1M54 45h1M28 49h1M43 49h1M27 50h1M42 50h1M27 51h1M41 51h1M40 52h1M47 52h1M27 54h1M41 54h1M28 55h1M26 56h1M42 56h1M48 56h1M46 58h1" />
<path stroke="#7ba4e6" d="M29 23h1M36 23h1M33 26h1M39 26h1M25 27h1M32 27h1M34 27h3M38 27h2M33 28h1M37 28h4M26 29h1M38 29h3M26 30h1M38 30h3M38 31h3M24 32h2M37 32h4M26 33h1M28 33h1M34 33h7M38 34h3M37 35h3M37 36h3M36 37h3M35 38h3M31 39h5M40 39h3M24 40h2M39 40h5M53 40h2M58 40h1M23 41h7M38 41h6M52 41h2M59 41h1M22 42h1M25 42h5M38 42h1M41 42h3M52 42h1M25 43h4M37 43h2M41 43h2M51 43h3M60 43h1M26 44h3M37 44h5M51 44h4M60 44h1M37 45h3M50 45h4M55 45h1M59 45h2M50 46h4M55 46h5M50 47h4M55 47h5M49 48h6M56 48h3M49 49h7M45 50h1M49 50h5M30 51h1M46 51h1M48 51h3M27 52h1M30 52h2M46 52h1M27 53h6M46 53h2M28 54h7M45 54h3M29 55h4M42 55h6M28 56h5M43 56h5M30 57h1M43 57h5M44 58h1" />
<path stroke="#b4cdff" d="M30 23h6M31 24h7M31 25h8M26 26h1M30 26h3M34 26h5M26 27h6M33 27h1M37 27h1M26 28h7M27 29h6M27 30h6M26 31h7M26 32h7M24 33h2M27 33h1M29 33h5M26 34h4M23 40h1M55 40h3M54 41h5M37 42h1M53 42h7M24 43h1M39 43h1M54 43h2M58 43h2M36 44h1M56 44h2M59 44h1M56 45h3M29 49h1M29 50h1M43 50h2M28 51h2M44 51h2M28 52h2M41 52h1M44 52h2M41 53h5M42 54h3M27 56h1M28 57h2M48 57h1M45 58h1M47 58h1" />
<path stroke="#e6f6ff" d="M28 24h3M27 25h4M27 26h3M28 50h1M42 51h2M42 52h2" />
<path stroke="#101010" d="M39 25h1M40 26h1M40 27h1M25 28h1M34 28h1M33 29h1M35 29h1M41 29h1M25 30h1M33 30h3M41 30h1M34 31h1M41 31h1M41 32h1M41 33h1M25 34h1M31 34h6M24 35h1M26 35h4M36 35h1M40 36h1M26 37h1M35 37h1M39 37h1M27 38h1M38 38h1M22 39h1M28 39h2M37 39h1M22 40h1M30 40h5M38 40h1M36 41h2M44 41h1M21 42h1M24 42h1M36 42h1M44 42h1M22 43h1M40 43h1M43 43h1M61 43h1M24 44h2M35 44h1M42 44h1M49 44h1M61 44h1M27 45h3M35 45h1M41 45h1M49 45h1M61 45h1M29 46h1M37 46h3M49 46h1M54 46h1M60 46h1M29 47h1M49 47h1M54 47h1M60 47h1M55 48h1M59 48h1M44 49h2M48 49h1M56 49h3M46 50h1M48 50h1M54 50h3M47 51h1M51 51h3M26 52h1M32 52h1M48 52h3M26 53h1M33 53h2M40 53h1M48 53h1M35 54h6M48 54h1M27 55h1M33 55h2M41 55h1M48 55h1M33 56h1M26 57h2M31 57h2M42 57h1M49 57h1M28 58h3M43 58h1M48 58h2M44 59h2M47 59h2" />
<path stroke="#d5cdcd" d="M35 28h2M36 29h1M36 32h1M44 39h1M45 41h1M45 42h1M44 43h2M44 44h2M44 45h3M45 46h2M45 47h2M46 48h2M46 49h2M47 50h1" />
<path stroke="#ffffff" d="M25 29h1M34 29h1M36 30h1M36 31h1M41 35h1M41 36h1M41 37h2M43 38h1" />
<path stroke="#833900" d="M25 31h1M33 31h1M35 31h1M34 32h2M30 35h6M27 36h4M28 37h2M30 38h4M30 41h1M29 43h1M29 44h1M41 47h1M29 48h1M42 48h1M30 50h1M35 50h1M31 51h1M34 51h1M37 51h1M33 52h1M39 52h1" />
<path stroke="#cd8b20" d="M33 32h1M31 36h5M30 37h5M38 39h1M36 40h2M30 42h2M32 43h2M35 43h1M34 44h1M30 45h1M34 45h1M31 46h1M40 46h1M32 47h3M36 47h2M31 48h1M30 49h1M35 49h1M42 49h1M36 50h1M38 51h1M35 53h1" />
<path stroke="#105a10" d="M42 35h1M43 36h2M40 37h1M45 37h1M39 38h1M46 38h1M47 39h1M48 41h1M48 42h1M46 43h1M49 43h1M46 44h1M43 45h1M48 45h1M47 46h1M44 47h1M47 47h1M48 48h1" />
<path stroke="#5aac29" d="M42 36h1M43 37h1M44 38h1M45 40h1M47 40h1M46 41h2M46 42h2M47 43h2M43 44h1M47 44h2M47 45h1M44 46h1M48 46h1M48 47h1M45 48h1" />
<path stroke="#9cde7b" d="M44 37h1M45 38h1M45 39h2M46 40h1" />
<path stroke="#e6bd52" d="M31 41h5M32 42h4M31 43h1M34 43h1M42 45h1M34 46h1M41 46h3M31 47h1M35 47h1M38 47h1M42 47h2M35 48h1M41 48h1M43 48h2M31 49h1M39 49h3M31 50h4M37 50h5M32 51h2M35 51h2M39 51h2M34 52h5M36 53h4" />
<path stroke="#ffe662" d="M30 43h1M30 44h4M31 45h3M30 46h1M32 46h2M35 46h2M30 47h1M39 47h2M30 48h1M32 48h3M36 48h5M32 49h3M36 49h3" />
</svg>