<svg xmlns="http://www.w3.org/2000/svg" viewBox="0 -0.5 80 80" shape-rendering="crispEdges">
<metadata>Made with Pixels to Svg https://codepen.io/shshaw/pen/XbxvNj</metadata>
<path stroke="#736294" d="M44 17h7M42 18h2M51 18h2M53 19h2M55 20h1M32 28h1M32 29h1M32 30h1M33 31h2M33 32h1M33 35h1M49 35h1M50 36h1M29 37h3M37 37h1M51 37h2M28 38h1M34 38h1M36 38h1M42 38h1M53 38h1M31 39h1M34 39h2M42 39h1M33 40h1M35 40h1M43 40h1M32 41h1M43 41h1M52 41h1M29 42h1M31 42h1M36 42h1M43 42h1M50 42h1M36 43h1M41 43h2M44 43h1M48 43h2M37 44h4M45 44h1M52 44h1M36 45h1M41 45h1M46 45h1M54 45h2M30 46h1M47 46h1M56 46h1M35 47h1M57 47h1M40 48h1M55 48h2M35 49h1M40 49h5M50 49h1M55 49h2M38 50h9M55 50h1M57 50h1M40 51h5M54 52h1M35 53h1M36 54h1M38 55h2M46 55h3M42 56h5" />
<path stroke="#006218" d="M40 18h2M38 19h2M41 19h1M37 20h1M40 20h1M36 21h1M39 21h1M53 21h4M35 22h1M52 22h1M57 22h1M34 23h1M38 23h1M51 23h1M58 23h1M34 24h1M50 24h1M59 24h1M33 25h1M50 25h1M59 25h1M33 26h1M49 26h1M60 26h1M49 27h1M60 27h1M35 28h1M49 28h1M60 28h1M49 29h1M60 29h1M41 30h2M60 30h1M40 31h1M43 31h1M50 31h1M60 31h1M39 32h1M44 32h1M50 32h1M39 33h1M44 33h1M51 33h1M59 33h1M40 34h1M43 34h1M51 34h1M41 35h2M52 35h2M57 35h1M54 36h2" />
<path stroke="#c5b4e6" d="M44 18h1M49 18h2M42 19h1M47 19h6M41 20h1M46 20h9M40 21h1M46 21h4M52 21h1M39 22h2M45 22h4M51 22h1M39 23h3M44 23h5M50 23h1M38 24h10M37 25h11M49 25h1M37 26h11M36 27h12M33 28h1M36 28h4M42 28h6M33 29h6M44 29h5M34 30h1M36 30h2M40 30h1M43 30h1M45 30h2M48 30h2M36 31h2M39 31h1M44 31h3M48 31h2M35 32h4M45 32h2M48 32h2M34 33h5M45 33h3M49 33h2M34 34h5M45 34h3M49 34h2M35 35h5M44 35h4M50 35h2M36 36h2M39 36h10M51 36h2M38 37h12M29 38h3M37 38h5M43 38h6M28 39h3M32 39h1M37 39h5M29 40h3M37 40h5M29 41h2M33 41h1M37 41h4M32 42h1M37 42h3M32 43h1M33 44h1M36 44h1M34 45h2M52 45h2M34 46h2M37 46h5M50 46h6M34 47h1M36 47h5M50 47h6M36 48h3M50 48h4M36 49h1M51 49h2" />
<path stroke="#e6d5ff" d="M45 18h4M43 19h4M42 20h4M41 21h5M50 21h2M41 22h4M49 22h2M42 23h2M49 23h1M48 24h2M48 25h1M48 26h1M48 27h1M48 28h1M40 29h4M39 30h1M44 30h1" />
<path stroke="#009c52" d="M40 19h1M39 20h1M38 22h1M53 22h4M35 23h3M52 23h1M55 23h3M36 24h2M51 24h1M56 24h3M36 25h1M51 25h1M56 25h3M36 26h1M50 26h2M56 26h4M33 27h1M50 27h2M55 27h5M34 28h1M50 28h9M50 29h1M53 29h6M50 30h1M53 30h6M42 31h1M51 31h5M58 31h1M40 32h4M52 32h3M59 32h1M40 33h3M53 33h2M52 34h1M58 34h1M54 35h1" />
<path stroke="#ffffff" d="M38 20h1M37 21h1M53 24h2M52 25h4M52 26h3M53 27h1M51 29h1M41 31h1M34 42h1M34 43h1M44 44h1M42 45h4" />
<path stroke="#4af6bd" d="M38 21h1M36 22h2M53 23h2M52 24h1M55 24h1M55 26h1M52 27h1M54 27h1M52 29h1M51 30h2" />
<path stroke="#18c58b" d="M35 24h1M34 25h2M34 26h2M34 27h2M59 28h1M59 29h1M59 30h1M56 31h2M59 31h1M51 32h1M55 32h4M43 33h1M52 33h1M55 33h4M41 34h2M53 34h5M55 35h2" />
<path stroke="#9c83b4" d="M40 28h2M39 29h1M33 30h1M35 30h1M38 30h1M47 30h1M35 31h1M38 31h1M47 31h1M34 32h1M47 32h1M48 33h1M39 34h1M44 34h1M48 34h1M34 35h1M40 35h1M43 35h1M48 35h1M34 36h2M38 36h1M49 36h1M53 36h1M57 36h1M34 37h3M50 37h1M53 37h4M33 38h1M35 38h1M49 38h4M33 39h1M36 39h1M43 39h12M28 40h1M32 40h1M34 40h1M36 40h1M42 40h1M44 40h10M28 41h1M31 41h1M36 41h1M41 41h2M44 41h8M30 42h1M40 42h3M44 42h6M29 43h1M33 43h1M37 43h4M45 43h3M50 43h2M29 44h1M34 44h2M46 44h6M33 45h1M37 45h4M47 45h5M36 46h1M42 46h1M45 46h2M48 46h2M41 47h6M49 47h1M56 47h1M34 48h1M39 48h1M45 48h2M54 48h1M53 49h1M56 50h1M55 51h1" />
<path stroke="#000000" d="M33 33h1M33 34h1M58 35h1M33 36h1M56 36h1M33 37h1M57 37h1M32 38h1M54 38h3M27 39h1M55 39h1M27 40h1M54 40h1M27 41h1M35 41h1M53 41h1M28 42h1M35 42h1M51 42h1M28 43h1M30 43h2M43 43h1M52 43h1M28 44h1M30 44h3M43 44h1M53 44h1M19 45h2M24 45h1M29 45h4M18 46h1M21 46h1M29 46h1M31 46h3M17 47h1M22 47h1M25 47h1M30 47h3M47 47h2M17 48h1M23 48h1M26 48h2M30 48h2M33 48h1M35 48h1M41 48h4M47 48h3M57 48h1M18 49h1M24 49h1M28 49h3M33 49h2M37 49h3M45 49h3M49 49h1M54 49h1M57 49h1M19 50h1M25 50h2M31 50h7M47 50h1M49 50h6M20 51h1M27 51h4M33 51h7M45 51h3M50 51h5M56 51h1M21 52h1M34 52h15M50 52h4M55 52h1M15 53h1M34 53h1M36 53h13M50 53h5M16 54h1M35 54h1M37 54h12M51 54h2M17 55h2M22 55h1M36 55h2M40 55h6M49 55h1M51 55h1M20 56h2M38 56h4M47 56h3M52 56h2M41 57h6M50 57h1M54 57h2M51 58h2M53 59h1M54 60h1M58 61h1M58 62h1M58 63h1M58 64h1M45 67h1M53 67h2M47 68h6" />
<path stroke="#d5d5d5" d="M34 41h1M33 42h1M35 43h1M41 44h2M43 46h2" />
<path stroke="#525220" d="M18 42h3M16 43h2M21 43h2M15 44h1M23 44h1M14 45h1M14 46h1M24 46h1M13 47h1M13 48h1M13 49h1M32 49h1M48 49h1M13 50h1M14 51h1M49 51h1M14 52h1M22 53h1M19 54h1M22 54h1M50 54h1M20 55h2M19 56h1M56 58h1M57 59h1M57 60h1M43 61h3M55 61h1M42 62h1M46 62h2M55 62h1M42 63h1M48 63h7M42 64h1M43 65h1M47 65h2M57 65h1M44 66h1M56 66h1" />
<path stroke="#d5c594" d="M18 43h3M16 44h7M15 45h3M23 45h1M15 46h2M14 47h3M14 48h3M14 49h4M14 50h2M17 50h1M15 51h1M44 62h2M43 63h1M45 63h3M55 63h1M43 64h2M47 64h8M44 65h3M50 65h3" />
<path stroke="#838341" d="M18 45h1M17 46h1M22 46h1M33 47h1M24 48h2M32 48h1M25 49h3M31 49h1M27 50h4M48 50h1M16 51h1M48 51h1M17 52h1M20 52h1M49 52h1M18 53h4M49 53h1M17 54h2M20 54h2M49 54h1M19 55h1M50 55h1M50 56h2M51 57h3M53 58h3M54 59h1M43 62h1M44 63h1M45 64h2M57 64h1M49 65h1M46 67h1M52 67h1M55 67h1" />
<path stroke="#b4ac73" d="M21 45h2M23 46h1M23 47h2M16 50h1M18 50h1M17 51h3M15 52h2M18 52h2M16 53h2M55 59h2M55 60h2M56 61h2M56 62h2M56 63h2M55 64h2M53 65h4M45 66h11M47 67h5" />
</svg>