<svg xmlns="http://www.w3.org/2000/svg" viewBox="0 -0.5 80 80" shape-rendering="crispEdges">
<metadata>Made with Pixels to Svg https://codepen.io/shshaw/pen/XbxvNj</metadata>
<path stroke="#524a4a" d="M31 13h2M33 15h1M24 16h3M42 16h3M22 17h2M26 17h1M34 17h1M41 17h1M45 17h1M57 17h2M22 18h1M40 18h1M56 18h1M42 19h1M54 19h1M44 20h1M52 20h1M56 21h1M49 22h1M54 22h3M53 23h2M60 23h2M52 24h1M59 24h1M62 24h1M63 25h1M63 26h1M58 28h2M50 29h2M56 29h2M51 30h5M30 31h1M14 32h2M29 32h1M13 33h1M16 33h2M29 33h2M32 33h1M40 33h1M13 34h1M18 34h1M29 34h1M31 34h1M40 34h1M12 35h1M20 35h1M32 35h1M10 38h2M12 39h1M14 40h1M12 43h1M14 44h1M62 44h1M44 48h2M19 49h2M43 49h1M45 49h1M18 50h1M21 50h1M45 50h2M18 51h2M22 51h1M18 52h1M40 53h1M40 54h1M40 55h1M53 55h1M56 55h2M23 56h1M40 56h1M54 56h1M57 56h1M22 57h1M40 57h1M42 57h1M22 58h1M31 58h1M40 58h1M42 58h3M23 59h1M40 59h1M23 60h1M41 60h1M24 61h2M41 61h1M26 62h1M41 62h1M25 63h1M42 63h1M25 64h1" />
<path stroke="#393131" d="M29 14h2M28 15h2M29 16h2M30 17h1M23 18h1M26 18h1M30 18h1M55 18h1M59 18h1M22 19h3M31 19h1M40 19h1M59 19h1M24 20h1M31 20h1M58 20h2M24 21h1M32 21h1M50 21h1M57 21h2M25 22h1M32 22h1M48 22h1M25 23h1M48 23h1M26 24h1M47 24h1M58 24h1M26 25h1M47 25h1M56 25h2M62 25h1M27 26h2M47 26h1M53 26h3M61 26h2M29 27h2M36 27h1M48 27h1M60 27h2M48 28h1M31 31h1M32 32h1M43 32h1M15 33h1M33 33h1M44 33h1M65 33h2M15 34h1M19 34h1M33 34h1M42 34h3M63 34h2M67 34h1M14 35h1M21 35h1M30 35h1M33 35h1M40 35h1M42 35h1M44 35h1M63 35h1M65 35h3M14 36h1M31 36h2M41 36h3M63 36h5M22 37h1M61 37h6M23 38h1M57 38h1M59 38h6M13 39h1M23 39h1M58 39h5M9 40h1M12 40h1M23 40h1M57 40h4M11 41h1M23 41h1M57 41h3M68 41h2M11 42h1M22 42h1M58 42h2M66 42h4M22 43h1M58 43h3M64 43h1M67 43h4M21 44h1M35 44h1M59 44h3M65 44h6M19 45h2M32 45h1M36 45h1M59 45h10M32 46h1M34 46h3M59 46h8M32 47h1M34 47h1M36 47h1M60 47h5M33 48h3M46 48h1M47 49h1M41 50h2M47 50h1M21 51h1M30 51h4M40 51h1M47 51h1M21 52h1M28 52h2M32 52h2M40 52h1M43 52h3M19 53h2M26 53h2M30 53h5M44 53h2M25 54h1M29 54h6M44 54h2M24 55h1M27 55h9M42 55h1M44 55h2M55 55h1M26 56h10M42 56h1M44 56h2M53 56h1M55 56h1M25 57h5M32 57h4M54 57h1M56 57h1M23 58h5M32 58h4M24 59h3M32 59h4M43 59h2M24 60h2M31 60h4M43 60h3M30 61h5M44 61h2M29 62h5M44 62h2M28 63h5M44 63h2M26 64h6M42 64h1M44 64h2M27 65h3M27 66h2" />
<path stroke="#8b8b8b" d="M31 14h2M30 15h3M31 16h3M24 17h2M31 17h3M24 18h2M31 18h4M42 18h2M57 18h2M25 19h2M32 19h3M41 19h1M43 19h3M55 19h4M25 20h3M32 20h4M45 20h1M53 20h5M25 21h3M33 21h3M51 21h5M26 22h3M33 22h1M50 22h4M26 23h4M32 23h1M49 23h4M27 24h6M48 24h4M60 24h2M27 25h5M48 25h4M58 25h4M29 26h3M48 26h5M56 26h5M49 27h11M49 28h9M52 29h4M41 32h2M14 33h1M42 33h1M14 34h1M16 34h2M30 34h1M41 34h1M65 34h2M13 35h1M15 35h5M31 35h1M43 35h1M64 35h1M15 36h7M61 36h2M16 37h6M59 37h2M18 38h5M58 38h1M10 39h2M19 39h4M57 39h1M10 40h2M13 40h1M19 40h4M10 41h1M12 41h4M18 41h5M12 42h10M13 43h9M65 43h2M15 44h6M33 44h2M63 44h2M17 45h2M34 45h1M33 46h1M35 47h1M46 49h1M20 50h1M22 50h1M20 51h1M42 51h3M46 51h1M20 52h1M30 52h2M28 53h2M43 53h1M26 54h3M43 54h1M25 55h2M43 55h1M54 55h1M24 56h2M43 56h1M23 57h2M55 57h1M30 59h2M29 60h2M29 61h1M43 61h1M27 62h2M43 62h1M26 63h2M43 63h1M43 64h1" />
<path stroke="#101010" d="M33 14h1M28 16h1M34 16h1M29 17h1M27 18h1M29 18h1M35 18h1M46 18h1M27 19h1M30 19h1M35 19h1M46 19h1M53 19h1M23 20h1M28 20h1M30 20h1M36 20h1M46 20h1M51 20h1M60 20h1M23 21h1M28 21h1M31 21h1M49 21h1M59 21h2M24 22h1M29 22h1M31 22h1M57 22h2M24 23h1M30 23h2M55 23h2M25 24h1M53 24h2M25 25h1M52 25h1M26 26h1M27 27h2M62 27h1M29 28h2M60 28h2M49 29h1M58 29h2M50 30h1M56 30h2M50 31h1M52 31h4M50 32h1M49 34h1M48 35h1M61 35h2M12 36h2M22 36h1M47 36h4M59 36h2M68 36h1M14 37h2M23 37h1M32 37h2M44 37h1M52 37h1M57 37h2M67 37h2M16 38h2M24 38h1M36 38h2M42 38h1M54 38h1M56 38h1M65 38h2M18 39h1M24 39h1M39 39h3M55 39h2M63 39h2M15 40h1M18 40h1M24 40h1M39 40h1M56 40h1M61 40h2M68 40h2M9 41h1M16 41h2M39 41h1M56 41h1M60 41h1M66 41h2M70 41h1M9 42h2M57 42h1M60 42h1M64 42h2M70 42h1M11 43h1M57 43h1M61 43h3M71 43h1M13 44h1M38 44h1M58 44h1M71 44h1M15 45h2M21 45h2M38 45h1M58 45h1M69 45h2M17 46h4M22 46h1M38 46h1M58 46h1M67 46h2M22 47h1M38 47h1M58 47h2M65 47h2M22 48h1M26 48h1M38 48h1M58 48h1M60 48h5M22 49h1M52 49h1M58 49h1M43 50h2M23 51h1M45 51h1M57 51h1M24 52h1M34 52h1M46 52h1M56 52h1M25 53h1M35 53h1M38 53h1M46 53h1M55 53h1M35 54h1M37 54h1M46 54h1M54 54h1M36 55h1M46 55h1M51 55h2M36 56h1M46 56h5M30 57h2M36 57h1M43 57h3M57 57h1M28 58h3M36 58h1M45 58h1M54 58h3M27 59h1M29 59h1M36 59h1M45 59h1M26 60h1M28 60h1M35 60h1M46 60h1M27 61h2M35 61h1M46 61h1M34 62h1M46 62h1M33 63h1M46 63h1M32 64h1M46 64h1M26 65h1M30 65h2M43 65h3M26 66h1M29 66h2M27 67h2" />
<path stroke="#ffffff" d="M42 17h2M37 24h2M35 25h5M34 26h7M34 27h2M37 27h4M34 28h7M34 29h6M35 30h5M36 31h1M30 32h1M41 33h1M26 44h2M25 45h4M51 45h3M25 46h4M49 46h6M25 47h5M49 47h6M25 48h1M27 48h3M48 48h7M25 49h5M48 49h4M53 49h2M25 50h4M48 50h7M26 51h2M49 51h6M51 52h2" />
<path stroke="#d5d5d5" d="M44 17h1M41 18h1M44 18h2M36 24h1M39 24h1M40 25h1M40 29h1M37 31h1M31 32h1M31 33h1M43 33h1M32 34h1M41 35h1M33 45h1M35 45h1M29 46h1M24 47h1M33 47h1M55 47h1M24 48h1M55 48h1M24 49h1M44 49h1M55 49h1M19 50h1M29 50h1M28 51h1M19 52h1M50 52h1" />
<path stroke="#948b52" d="M38 20h6M36 21h2M44 21h2M34 22h2M46 22h1M33 23h1M37 23h2M33 24h1M35 24h1M32 25h1M34 25h1M32 26h1M41 26h1M31 27h1M33 27h1M41 27h1M31 28h1M33 28h1M31 29h1M31 30h1M34 30h1M40 30h1M35 31h1M39 31h1M49 33h1M33 36h1M46 36h1M29 37h3M34 37h1M45 37h1M51 37h1M27 38h1M35 38h1M43 38h1M53 38h1M26 39h1M38 39h1M25 40h1M40 40h1M55 40h1M24 41h1M23 42h1M39 42h1M23 43h1M26 43h2M38 43h1M22 44h1M25 44h1M28 44h1M51 44h3M24 45h1M29 45h1M49 45h1M54 45h1M24 46h1M48 46h1M30 47h1M48 47h1M30 48h1M30 49h1M38 49h1M23 50h1M30 50h1M39 50h1M55 50h1M57 50h1M25 51h1M29 51h1M39 51h1M48 51h1M55 51h1M26 52h2M39 52h1M49 52h1M54 52h1M50 53h3M36 54h1M53 54h1" />
<path stroke="#e6deac" d="M38 21h6M36 22h9M35 23h2M39 23h7M34 24h1M41 24h5M33 25h1M42 25h4M33 26h1M42 26h4M32 27h1M42 27h4M32 28h1M42 28h3M32 29h1M41 29h4M32 30h2M41 30h3M32 31h3M40 31h3M34 32h7M34 33h4M46 37h5M30 38h5M44 38h9M31 39h6M43 39h10M26 40h1M31 40h7M44 40h9M25 41h3M30 41h8M44 41h8M26 42h12M43 42h9M28 43h9M39 43h1M42 43h9M29 44h4M39 44h12M30 45h2M39 45h10M31 46h1M39 46h9M39 47h7M40 48h4M47 48h1" />
<path stroke="#c5b494" d="M45 22h1M34 23h1M46 23h1M40 24h1M46 24h1M41 25h1M46 25h1M46 26h1M46 27h2M41 28h1M45 28h3M33 29h1M45 29h4M44 30h6M38 31h1M43 31h7M33 32h1M44 32h6M38 33h2M45 33h4M34 34h6M45 34h4M34 35h6M45 35h3M34 36h7M44 36h2M35 37h9M28 38h1M38 38h4M37 39h1M53 39h2M38 40h1M53 40h2M38 41h1M52 41h4M24 42h2M38 42h1M52 42h5M24 43h2M37 43h1M51 43h6M23 44h2M36 44h2M54 44h4M23 45h1M37 45h1M55 45h3M23 46h1M30 46h1M37 46h1M55 46h3M23 47h1M31 47h1M37 47h1M46 47h2M56 47h2M23 48h1M31 48h2M36 48h2M39 48h1M56 48h2M23 49h1M31 49h7M39 49h4M56 49h2M24 50h1M31 50h8M40 50h1M56 50h1M24 51h1M34 51h5M56 51h1M25 52h1M35 52h4M47 52h2M55 52h1M36 53h2M47 53h3M53 53h2M47 54h6M47 55h4" />
<path stroke="#ffffcd" d="M29 38h1M27 39h4M42 39h1M27 40h4M41 40h3M28 41h2M40 41h4M40 42h3M40 43h2" />
<path stroke="#b4b4b4" d="M50 45h1M41 51h1M41 52h2M53 52h1M41 53h2M41 54h2M41 55h1M41 56h1M56 56h1M41 57h1M41 58h1M41 59h2M42 60h1M42 61h1M42 62h1" />
</svg>