<svg xmlns="http://www.w3.org/2000/svg" viewBox="0 -0.5 80 80" shape-rendering="crispEdges">
<metadata>Made with Pixels to Svg https://codepen.io/shshaw/pen/XbxvNj</metadata>
<path stroke="#5a9c4a" d="M60 9h9M56 10h4M53 11h3M60 11h1M51 12h2M56 12h1M49 13h2M48 14h1M47 15h1M47 16h1M50 16h1M48 17h1M49 20h1M51 21h1M69 22h1M65 23h1M62 24h1M33 28h2M32 29h1M51 29h1M31 30h1M33 30h1M39 30h2M30 31h1M32 31h1M45 31h1M44 32h2M40 33h3M45 33h1M48 33h1M33 34h1M39 34h3M45 34h1M47 34h2M15 35h6M33 35h1M39 35h1M46 35h2M13 36h2M38 36h1M46 36h1M11 37h2M34 37h1M37 37h1M47 37h1M10 38h1M14 38h1M44 38h1M9 39h1M12 39h1M19 39h1M21 39h1M31 39h1M38 39h2M43 39h1M51 39h2M8 40h1M39 40h1M43 40h1M49 40h4M7 41h1M45 41h1M48 41h5M6 42h1M22 42h1M41 42h1M45 42h8M6 43h1M8 43h1M24 43h1M44 43h1M46 43h6M5 44h1M26 44h1M44 44h2M47 44h4M5 45h1M7 45h1M28 45h1M34 45h1M37 45h1M44 45h3M4 46h1M33 46h3M37 46h2M45 46h5M4 47h1M6 47h1M34 47h2M38 47h2M50 47h2M3 48h1M5 48h1M49 48h2M52 48h1M3 49h1M5 49h1M49 49h2M3 50h1M45 50h1M48 50h2M56 50h2M47 51h3M54 51h4M51 52h6M43 53h2M52 53h5M42 54h3M50 54h2M53 54h3M44 55h2M47 55h3M35 56h1M58 56h1M62 56h1M36 57h1M57 57h1M61 57h1M31 58h1M55 58h2M36 59h2M53 59h2M60 59h2M27 65h2M28 66h1M31 66h2" />
<path stroke="#8bcd73" d="M60 10h9M56 11h4M55 12h1M53 13h1M51 14h1M50 15h1M48 16h2M49 17h1M49 18h1M49 19h2M50 20h1M50 21h1M50 22h2M70 22h5M51 23h1M66 23h4M51 24h1M63 24h3M49 25h1M51 25h1M60 25h3M40 26h2M48 26h1M51 26h1M59 26h1M38 27h4M47 27h1M51 27h1M37 28h6M47 28h1M51 28h1M33 29h1M36 29h5M46 29h1M50 29h1M35 30h4M46 30h1M50 30h1M35 31h3M50 31h1M50 32h2M43 33h1M51 33h2M30 34h1M42 34h2M52 34h2M30 35h1M34 35h1M40 35h5M51 35h1M17 36h3M33 36h1M35 36h1M39 36h6M50 36h2M19 37h1M33 37h1M38 37h6M49 37h2M19 38h2M32 38h6M40 38h2M46 38h2M49 38h2M20 39h1M32 39h3M45 39h4M20 40h2M30 40h3M38 40h1M45 40h4M8 41h1M21 41h2M38 41h1M43 41h1M46 41h2M7 42h1M23 42h2M37 42h2M42 42h2M7 43h1M25 43h2M37 43h1M42 43h2M6 44h1M27 44h2M35 44h2M42 44h2M6 45h1M29 45h2M39 45h3M43 45h1M57 45h1M5 46h1M30 46h2M40 46h3M56 46h2M5 47h1M31 47h2M54 47h8M4 48h1M31 48h2M53 48h7M4 49h1M42 49h2M52 49h6M4 50h1M41 50h3M51 50h5M42 51h2M45 51h2M51 51h3M43 52h1M45 52h5M46 53h5M46 54h4M50 55h3M56 55h2M34 56h1M47 56h11M63 56h1M34 57h2M38 57h1M48 57h9M59 57h1M62 57h2M32 58h7M49 58h6M57 58h1M59 58h7M30 59h6M51 59h2M55 59h4M62 59h6M29 60h1M32 60h5M53 60h7M61 60h8M28 61h1M31 61h6M55 61h5M61 61h9M27 62h1M30 62h7M57 62h3M61 62h10M27 63h10M61 63h10M26 64h10M62 64h6M70 64h1M26 65h1M29 65h7M62 65h2M66 65h2M29 66h2M33 66h3M62 66h2M67 66h1M29 67h1M33 67h2M63 67h1M67 67h1M33 68h2M63 68h1" />
<path stroke="#415a20" d="M69 10h1M61 11h8M57 12h3M54 13h2M52 14h2M51 15h1M50 17h1M48 18h1M50 18h1M48 19h1M51 19h1M51 20h1M70 21h5M52 22h1M66 22h3M52 23h1M63 23h2M70 23h4M40 24h3M49 24h1M52 24h1M60 24h2M66 24h3M38 25h2M42 25h1M48 25h1M52 25h1M58 25h2M63 25h2M37 26h1M42 26h1M47 26h1M49 26h1M52 26h1M60 26h2M36 27h1M42 27h1M46 27h1M48 27h1M52 27h1M35 28h1M43 28h1M46 28h1M48 28h1M52 28h1M34 29h1M41 29h5M47 29h1M45 30h1M47 30h1M51 30h1M43 31h2M46 31h1M51 31h1M40 32h3M48 32h1M52 32h1M29 33h1M37 33h3M47 33h1M49 33h1M53 33h1M36 34h1M46 34h1M49 34h1M51 34h1M35 35h1M38 35h1M48 35h1M52 35h1M20 36h1M34 36h1M47 36h2M15 37h4M20 37h1M29 37h1M46 37h1M13 38h1M18 38h1M21 38h1M29 38h1M38 38h2M45 38h1M48 38h1M51 38h1M11 39h1M29 39h1M42 39h1M44 39h1M49 39h2M10 40h1M19 40h1M22 40h1M29 40h1M37 40h1M42 40h1M9 41h1M20 41h1M23 41h2M37 41h1M42 41h1M8 42h1M21 42h1M25 42h2M36 42h1M23 43h1M27 43h2M35 43h2M41 43h1M7 44h1M25 44h1M29 44h2M38 44h4M57 44h2M27 45h1M31 45h1M33 45h1M38 45h1M42 45h1M47 45h1M56 45h1M58 45h1M6 46h1M29 46h1M36 46h1M39 46h1M54 46h2M58 46h5M30 47h1M36 47h2M45 47h1M52 47h2M30 48h1M34 48h2M38 48h3M42 48h1M51 48h1M41 49h1M48 49h1M51 49h1M58 49h1M40 50h1M44 50h1M50 50h1M40 51h2M50 51h1M39 52h1M42 52h1M50 52h1M38 53h1M42 53h1M45 53h1M36 54h2M57 54h1M60 54h1M34 55h2M43 55h1M46 55h1M61 55h3M33 56h1M64 56h1M32 57h2M39 57h1M58 57h1M64 57h2M30 58h1M39 58h1M58 58h1M66 58h1M29 59h1M38 59h1M50 59h1M59 59h1M28 60h1M37 60h1M52 60h1M60 60h1M27 61h1M60 61h1M26 62h1M26 63h1M25 64h1M36 64h1M61 64h1M25 65h1M24 66h1M23 67h1M35 67h1M62 67h1M70 71h1" />
<path stroke="#c5f65a" d="M53 12h2M51 13h2M49 14h2M48 15h2M40 25h2M38 26h2M37 27h1M36 28h1M35 29h1M32 30h1M34 30h1M41 30h4M31 31h1M33 31h2M38 31h5M30 32h10M30 33h7M31 34h2M34 34h2M31 35h2M15 36h2M31 36h2M13 37h2M30 37h3M11 38h2M30 38h2M10 39h1M30 39h1M9 40h1M30 60h2M29 61h2M28 62h2" />
<path stroke="#ffffff" d="M60 12h3M56 13h4M63 13h1M54 14h4M60 14h2M52 15h5M58 15h3M51 16h5M57 16h3M51 17h4M56 17h3M51 18h4M56 18h3M52 19h2M55 19h3M52 20h2M55 20h3M52 21h2M55 21h2M53 22h1M55 22h2M53 23h1M55 23h2M53 24h1M55 24h2M53 25h1M55 25h2M53 26h2M56 26h2M53 27h2M56 27h2M53 28h2M56 28h3M52 29h3M56 29h4M52 30h2M55 30h3M52 31h1M54 31h2M53 32h2M36 35h2M37 36h1M35 37h1M15 38h3M13 39h6M11 40h8M35 40h1M10 41h4M16 41h4M9 42h3M14 42h2M18 42h3M9 43h2M12 43h6M20 43h3M8 44h2M11 44h9M21 44h4M8 45h1M10 45h11M23 45h4M7 46h2M10 46h4M20 46h3M25 46h4M7 47h1M9 47h2M23 47h2M29 47h1M7 48h1M24 48h5M25 49h2M25 50h1M71 64h1M69 65h1M71 65h1M25 66h1M27 66h1M65 66h1M69 66h1M71 66h2M24 67h1M26 67h2M31 67h1M65 67h1M69 67h2M72 67h1M24 68h1M26 68h2M30 68h2M65 68h2M69 68h2M72 68h1M25 69h3M30 69h2M65 69h2M69 69h3M25 70h2M30 70h1M66 70h1M70 70h2" />
<path stroke="#dedede" d="M63 12h3M60 13h3M58 14h2M57 15h1M56 16h1M55 17h1M55 18h1M54 19h1M54 20h1M54 21h1M54 22h1M54 23h1M54 24h1M54 25h1M55 26h1M55 27h1M55 28h1M55 29h1M54 30h1M53 31h1M37 34h1M14 41h2M12 42h2M16 42h2M11 43h1M18 43h2M10 44h1M20 44h1M9 45h1M21 45h2M9 46h1M23 46h2M8 47h1M25 47h4M6 48h1M29 48h1" />
<path stroke="#737373" d="M66 12h2M64 13h2M62 14h2M61 15h1M60 16h1M59 17h1M59 18h1M58 19h1M58 20h1M57 21h1M57 22h1M14 46h1M19 46h1M11 47h1M22 47h1M8 48h1M23 48h1M6 49h1M27 49h1M68 64h2M64 65h2M68 65h1M70 65h1M26 66h1M64 66h1M66 66h1M68 66h1M70 66h1M25 67h1M28 67h1M30 67h1M32 67h1M64 67h1M66 67h1M68 67h1M71 67h1M28 68h1M32 68h1M67 68h1M71 68h1M28 69h1M67 69h1M72 69h1M67 70h1" />
<path stroke="#101010" d="M49 21h1M75 21h1M49 22h1M75 22h1M50 23h1M57 23h1M74 23h1M50 24h1M57 24h1M72 24h1M50 25h1M57 25h1M71 25h1M50 26h1M58 26h1M70 26h1M50 27h1M58 27h1M69 27h1M50 28h1M59 28h1M68 28h1M49 29h1M60 29h1M67 29h1M49 30h1M58 30h3M66 30h1M49 31h1M56 31h2M67 31h2M43 32h1M46 32h1M49 32h1M55 32h1M68 32h1M44 33h1M46 33h1M50 33h1M54 33h1M67 33h1M29 34h1M38 34h1M44 34h1M54 34h1M66 34h1M29 35h1M45 35h1M50 35h1M53 35h2M65 35h1M30 36h1M36 36h1M45 36h1M49 36h1M52 36h1M64 36h1M36 37h1M44 37h2M48 37h1M51 37h1M63 37h1M42 38h2M52 38h1M62 38h1M35 39h3M40 39h2M53 39h1M59 39h2M33 40h2M40 40h1M44 40h1M53 40h5M30 41h4M35 41h1M39 41h1M44 41h1M53 41h1M33 42h1M39 42h1M44 42h1M53 42h1M34 43h1M38 43h1M45 43h1M52 43h1M34 44h1M37 44h1M46 44h1M51 44h1M35 45h2M48 45h3M15 46h4M32 46h1M43 46h2M50 46h2M12 47h2M20 47h2M33 47h1M40 47h3M46 47h4M62 47h1M9 48h1M33 48h1M43 48h1M48 48h1M60 48h2M7 49h1M24 49h1M28 49h2M31 49h2M44 49h2M59 49h1M5 50h1M24 50h1M26 50h1M46 50h2M58 50h1M3 51h2M24 51h2M44 51h1M58 51h1M44 52h1M57 52h1M59 52h1M51 53h1M57 53h1M59 53h1M40 54h2M45 54h1M52 54h1M56 54h1M39 55h1M42 55h1M53 55h3M58 55h1M38 56h1M44 56h3M59 56h1M37 57h1M47 57h1M60 57h1M48 58h1M67 58h1M49 59h1M68 59h1M51 60h1M69 60h1M37 61h1M53 61h2M70 61h1M37 62h1M55 62h2M60 62h1M71 62h1M37 63h1M57 63h4M71 63h1M72 64h1M36 65h1M61 65h1M72 65h1M36 66h1M61 66h1M73 66h1M73 67h1M23 68h1M35 68h1M62 68h1M64 68h1M68 68h1M73 68h1M23 69h2M32 69h3M63 69h2M68 69h1M73 69h1M24 70h1M27 70h3M31 70h1M64 70h2M68 70h2M72 70h1M24 71h3M29 71h2M66 71h2M71 71h2" />
<path stroke="#9c8b31" d="M69 24h1M65 25h1M62 26h1M59 27h1M62 31h5M59 32h3M57 33h2M55 34h2M61 38h1M58 39h1" />
<path stroke="#eedeb4" d="M70 24h2M66 25h5M63 26h7M49 27h1M60 27h9M49 28h1M60 28h8M48 29h1M61 29h6M48 30h1M61 30h5M47 31h2M58 31h4M47 32h1M56 32h3M62 32h6M55 33h2M59 33h8M50 34h1M57 34h9M49 35h1M55 35h10M53 36h11M52 37h11M53 38h8M54 39h4" />
<path stroke="#b42910" d="M36 40h1M34 41h1M36 41h1M34 42h2" />
<path stroke="#cdbd4a" d="M41 40h1M40 41h2M43 47h2M44 48h4M46 49h2M40 52h2M58 52h1M41 53h1M58 53h1" />
<path stroke="#ffee8b" d="M40 42h1M39 43h2M39 53h2M38 54h2M58 54h2M36 55h3M59 55h2M36 56h2M60 56h2" />
<path stroke="#bdbdbd" d="M25 68h1M29 68h1M29 69h1" />
</svg>