<svg xmlns="http://www.w3.org/2000/svg" viewBox="0 -0.5 80 80" shape-rendering="crispEdges">
<metadata>Made with Pixels to Svg https://codepen.io/shshaw/pen/XbxvNj</metadata>
<path stroke="#6a6262" d="M33 17h2M32 18h1M31 19h1M41 19h3M31 20h1M39 20h2M30 21h1M38 21h1M41 21h1M29 22h1M37 22h1M28 23h1M35 23h1M33 24h1M27 25h1M31 25h1M17 26h1M30 26h1M15 27h4M26 27h1M14 28h2M18 28h2M29 28h1M45 28h7M13 29h2M19 29h1M27 29h2M42 29h4M49 29h7M13 30h2M19 30h2M25 30h1M28 30h1M41 30h4M50 30h9M12 31h4M18 31h3M24 31h1M29 31h1M39 31h7M50 31h11M12 32h6M20 32h2M29 32h2M37 32h4M44 32h2M50 32h12M12 33h1M16 33h2M21 33h1M30 33h2M36 33h3M45 33h2M49 33h13M17 34h2M37 34h1M45 34h18M19 35h1M30 35h1M45 35h18M31 36h1M43 36h7M57 36h6M17 37h1M31 37h1M42 37h5M59 37h4M16 38h3M42 38h3M59 38h4M16 39h1M42 39h1M59 39h3M58 40h3M19 41h1M27 41h1M33 41h1M54 41h5M19 42h2M49 42h7M18 43h2M43 43h11M18 44h1M21 44h2M24 44h1M46 44h7M20 45h1M26 45h2M46 45h7M28 46h2M46 46h7M16 47h1M29 47h1M41 47h8M15 48h1M29 48h2M41 48h7M14 49h1M28 49h3M42 49h6M27 50h2M41 50h6M13 51h1M23 51h1M27 51h1M17 52h2M34 52h1M38 52h2M12 53h1M16 53h1M19 53h1M35 53h7M15 54h1M20 54h1M26 54h1M31 54h1M37 54h6M15 55h1M25 55h2M32 55h1M37 55h4M15 56h1M25 56h2M33 56h1M37 56h2M26 57h1M34 57h4M13 58h1M19 58h1M26 58h2M35 58h3M27 59h1M37 59h1M52 59h1M14 60h1M18 60h1M53 60h3M15 61h3" />
<path stroke="#8b837b" d="M33 18h1M33 19h1M32 20h1M42 20h1M39 21h2M26 30h2M25 31h4M24 32h5M23 33h3M23 34h1M28 35h2M27 36h1M26 39h1M23 41h1M31 41h1M30 42h1M24 46h4M21 47h1M23 47h1M26 47h3M32 47h1M27 48h2M27 49h1M53 59h1" />
<path stroke="#414139" d="M34 18h1M34 19h1M33 20h1M43 20h1M31 21h2M42 21h1M30 22h1M38 22h4M29 23h1M36 23h2M28 24h1M34 24h2M28 25h1M32 25h2M20 26h1M27 26h1M31 26h1M27 27h1M29 27h2M21 28h1M26 28h3M21 29h1M26 29h1M29 29h1M37 29h1M22 30h1M29 30h1M36 30h1M22 31h1M35 31h1M11 32h1M34 32h1M11 33h1M33 33h1M64 33h1M12 34h1M32 34h1M35 34h2M64 34h1M13 35h1M34 35h3M64 35h1M14 36h2M34 36h2M64 36h1M16 37h1M63 37h1M15 38h1M29 38h1M31 38h1M41 38h1M63 38h1M15 39h1M28 39h2M31 39h1M39 39h3M16 40h2M26 40h1M28 40h2M31 40h1M38 40h3M18 41h1M22 41h1M26 41h1M30 41h1M36 41h4M18 42h1M21 42h3M27 42h3M35 42h4M17 43h1M21 43h1M33 43h10M17 44h1M32 44h4M21 45h3M25 45h1M28 45h1M31 45h2M17 46h1M20 46h1M23 46h1M20 47h1M34 47h7M22 48h1M48 48h1M34 49h3M22 50h1M29 50h2M37 50h2M47 50h1M21 51h1M28 51h1M39 51h2M21 52h1M24 52h1M27 52h1M33 52h1M40 52h2M25 53h1M27 54h1M24 55h1M27 55h1M41 55h1M43 55h2M24 56h1M27 56h1M32 56h1M39 56h1M45 56h2M25 57h1M27 57h1M33 57h1M38 57h1M47 57h1M25 58h1M28 58h1M34 58h1M38 58h1M49 58h1M52 58h4M26 59h1M28 59h1M35 59h2M38 59h1M56 59h1M27 60h2" />
<path stroke="#ded5d5" d="M32 19h1M41 20h1M27 33h2M22 34h1M25 34h5M21 35h7M21 36h6M21 37h5M21 38h5M21 39h5M21 40h5M24 41h2M21 46h2M30 46h2M24 47h2M23 48h3M23 49h4M24 50h2M22 51h1M29 51h1M22 52h2M28 52h3M29 53h1M54 59h1" />
<path stroke="#9c8b41" d="M16 24h3M15 25h1M19 25h1M14 26h1M16 26h1M44 26h10M13 27h1M20 27h1M41 27h3M54 27h4M13 28h1M39 28h2M58 28h2M12 29h1M38 29h1M56 29h1M60 29h2M12 30h1M37 30h1M40 30h1M62 30h1M11 31h1M38 31h1M63 31h1M36 32h1M63 32h1M35 33h1M62 33h1M34 34h1M44 35h1M63 35h1M36 36h1M50 36h1M56 36h1M63 36h1M35 37h1M47 37h1M58 37h1M40 38h1M58 39h1M18 40h1M37 40h1M41 40h1M57 40h1M53 41h1M34 42h1M48 42h1M36 44h1M45 44h1M33 45h1M34 46h1M45 46h1M33 48h1M40 48h1M41 49h1" />
<path stroke="#ffff31" d="M16 25h3M18 26h2M19 27h1M44 27h10M20 28h1M41 28h2M53 28h4M39 29h2M19 32h1M42 32h2M14 33h1M19 33h2M40 33h5M13 34h4M20 34h1M38 34h7M14 35h4M40 35h4M17 36h3M41 36h1M49 37h9M46 38h12M44 39h14M43 40h13M43 41h9M42 44h2M42 45h3M41 46h3" />
<path stroke="#e6cd5a" d="M15 26h1M14 27h1M43 28h2M52 28h1M57 28h1M20 29h1M41 29h1M57 29h3M21 30h1M38 30h2M59 30h3M21 31h1M36 31h2M61 31h2M18 32h1M22 32h1M35 32h1M41 32h1M62 32h1M13 33h1M15 33h1M18 33h1M34 33h1M39 33h1M63 33h1M19 34h1M33 34h1M63 34h1M18 35h1M37 35h3M16 36h1M37 36h4M42 36h1M51 36h5M18 37h1M36 37h6M48 37h1M35 38h5M45 38h1M58 38h1M17 39h2M35 39h4M43 39h1M35 40h2M42 40h1M56 40h1M34 41h2M40 41h3M52 41h1M39 42h9M37 44h5M44 44h1M34 45h8M45 45h1M35 46h6M44 46h1M34 48h6M37 49h4" />
<path stroke="#f64131" d="M16 28h1M15 29h3M16 30h2M46 30h3M46 31h4M47 32h2M34 54h2M34 55h3M35 56h1" />
<path stroke="#a44a41" d="M17 28h1M18 29h1M46 29h3M15 30h1M18 30h1M45 30h1M49 30h1M16 31h2M46 32h1M49 32h1M47 33h2M33 53h2M33 54h1M36 54h1M33 55h1M34 56h1M36 56h1" />
<path stroke="#101010" d="M30 31h1M23 32h1M31 32h1M22 33h1M32 33h1M21 34h1M20 35h1M33 35h1M20 36h1M33 36h1M19 37h1M34 37h1M19 38h1M34 38h1M19 39h1M34 39h1M62 39h1M19 40h1M34 40h1M61 40h1M20 41h1M59 41h2M33 42h1M56 42h3M20 43h1M22 43h1M32 43h1M54 43h2M19 44h2M23 44h1M30 44h2M53 44h1M18 45h2M24 45h1M29 45h2M53 45h1M18 46h1M33 46h1M53 46h1M17 47h1M33 47h1M49 47h4M16 48h1M21 48h1M31 48h2M15 49h1M22 49h1M31 49h1M48 49h1M14 50h1M31 50h1M39 50h2M14 51h1M31 51h1M41 51h7M13 52h1M32 52h1M42 52h1M13 53h1M17 53h2M22 53h1M26 53h2M32 53h1M42 53h1M12 54h1M16 54h1M19 54h1M23 54h3M28 54h1M32 54h1M43 54h1M12 55h1M20 55h1M29 55h3M42 55h1M12 56h1M20 56h1M40 56h1M43 56h2M12 57h1M20 57h1M45 57h2M12 58h1M20 58h1M47 58h2M13 59h1M19 59h1M49 59h3M13 60h1M19 60h1M37 60h2M52 60h1M56 60h1M14 61h1M18 61h1M53 61h3M15 62h3" />
<path stroke="#b4aca4" d="M26 33h1M29 33h1M24 34h1M30 34h2M31 35h2M32 36h1M26 37h1M32 37h2M26 38h1M32 38h2M32 39h2M32 40h2M21 41h1M32 41h1M24 42h3M31 42h2M23 43h9M25 44h5M32 46h1M22 47h1M30 47h2M26 48h1M23 50h1M26 50h1M24 51h3M30 51h1M25 52h2M31 52h1M23 53h2M28 53h1M30 53h2M29 54h2M55 59h1" />
<path stroke="#83d5ff" d="M28 36h2M29 37h2M30 38h1M34 51h2M35 52h3" />
<path stroke="#629cff" d="M30 36h1M20 38h1M20 39h1M27 39h1M30 39h1M20 40h1M27 40h1M30 40h1M28 41h2M32 49h2M32 50h5M32 51h2M36 51h3" />
<path stroke="#ffffee" d="M20 37h1M27 37h2M27 38h2" />
</svg>