<svg xmlns="http://www.w3.org/2000/svg" viewBox="0 -0.5 80 80" shape-rendering="crispEdges">
<metadata>Made with Pixels to Svg https://codepen.io/shshaw/pen/XbxvNj</metadata>
<path stroke="#bd206a" d="M28 2h4M25 3h3M22 4h3M35 4h1M22 5h1M34 5h1M32 6h3M36 6h1M31 7h1M33 7h2M29 8h3M22 9h9M20 10h7M21 11h2M13 66h1M70 66h1M13 67h1M19 67h1M50 67h1M67 67h1M69 67h1M71 67h1M12 68h3M18 68h2M42 68h1M49 68h2M66 68h2M69 68h2M72 68h1M12 69h9M42 69h2M48 69h4M66 69h3M70 69h2M74 69h2M12 70h9M42 70h10M66 70h4M72 70h2M77 70h2M13 71h8M43 71h9M67 71h5M74 71h3M78 71h1M13 72h7M43 72h8M67 72h5M75 72h2M78 72h1M15 73h3M44 73h7M68 73h4M75 73h2M46 74h4M70 74h4" />
<path stroke="#d55a94" d="M28 3h4M25 4h9M36 4h1M23 5h4M30 5h4M36 5h1M21 6h3M27 6h3M21 7h1M24 7h7M22 8h7M20 9h2M15 65h3M44 65h4M14 66h5M43 66h7M14 67h5M43 67h7M15 68h3M43 68h6M44 69h4M72 72h2M72 73h2" />
<path stroke="#5a1839" d="M32 3h5M34 4h1M37 4h1M21 5h1M27 5h3M35 5h1M37 5h1M24 6h3M30 6h2M35 6h1M37 6h1M23 7h1M32 7h1M35 7h2M32 8h3M31 9h2M27 10h4M26 11h1M14 65h1M19 66h1M50 66h1M42 67h1M68 67h1M70 67h1M20 68h1M51 68h1M68 68h1M71 68h1M69 69h1M72 69h2M70 70h2M74 70h3M12 71h1M42 71h1M72 71h2M77 71h1M51 72h1M74 72h1M77 72h1M14 73h1M18 73h1M74 73h1M77 73h1M69 74h1M74 74h1" />
<path stroke="#295a83" d="M19 5h1M17 6h4M15 7h3M20 7h1M14 8h1M20 8h1M12 9h2M18 9h1M12 10h1M19 10h1M20 11h1M19 12h1M17 13h1M15 14h1M14 15h1M6 16h1M35 17h6M33 18h1M26 20h2M24 21h2M3 22h1M7 22h1M23 22h1M2 24h1M21 24h1M2 25h1M6 25h1M24 25h1M49 25h1M20 26h2M19 27h1M5 28h1M18 28h1M5 29h1M18 29h1M5 30h1M17 30h1M2 31h1M5 31h1M17 31h1M42 31h1M57 31h1M4 32h3M3 33h4M16 33h1M42 33h2M49 33h1M60 33h1M4 34h4M15 34h1M57 34h4M4 35h4M15 35h1M43 35h1M57 35h4M5 36h4M14 36h1M40 36h2M43 36h2M56 36h4M6 37h4M43 37h2M54 37h6M7 38h4M18 38h1M51 38h8M8 39h5M18 39h2M51 39h7M59 39h1M9 40h4M18 40h3M51 40h5M58 40h3M11 41h2M18 41h2M53 41h1M56 41h1M59 41h2M55 42h1M60 42h2M54 43h1M60 43h2M55 44h1M61 44h2M14 45h1M55 45h1M61 45h2M13 46h3M55 46h1M61 46h2M14 47h1M30 47h1M54 47h2M61 47h2M18 48h1M30 48h1M33 48h1M54 48h5M60 48h1M62 48h1M55 49h3M59 49h2M56 50h1M58 50h4M48 51h4M57 51h1M59 51h4M41 52h1M48 52h4M57 52h2M60 52h4M39 53h2M46 53h6M57 53h3M61 53h2M13 54h1M37 54h15M57 54h4M12 55h3M22 55h2M28 55h1M30 55h1M39 55h5M45 55h6M56 55h5M12 56h3M21 56h1M23 56h5M29 56h1M31 56h1M36 56h8M45 56h3M49 56h1M56 56h6M11 57h5M23 57h6M30 57h1M32 57h1M35 57h4M41 57h4M46 57h3M57 57h5M11 58h6M23 58h15M44 58h1M46 58h2M58 58h5M11 59h1M13 59h5M22 59h1M24 59h15M58 59h3M62 59h1M11 60h1M13 60h9M23 60h1M26 60h4M31 60h10M44 60h3M48 60h1M58 60h3M62 60h1M12 61h3M16 61h6M23 61h3M28 61h2M31 61h17M56 61h6M63 61h1M13 62h2M16 62h6M25 62h1M27 62h2M30 62h3M34 62h3M38 62h12M54 62h1M56 62h7M66 62h1M15 63h2M20 63h1M27 63h2M30 63h1M32 63h1M34 63h3M38 63h5M45 63h2M52 63h4M57 63h3M61 63h3M27 64h1M34 64h4M39 64h5M53 64h3M57 64h3M61 64h4M25 65h1M27 65h1M35 65h4M41 65h2M54 65h2M58 65h3M62 65h2M69 65h1M22 66h4M33 66h1M35 66h6M55 66h1M58 66h4M68 66h1M23 67h5M36 67h5M55 67h1M59 67h5M66 67h1M23 68h5M38 68h2M60 68h5M24 69h3M62 69h3" />
<path stroke="#183962" d="M20 5h1M22 7h1M21 8h1M19 9h1M11 10h1M10 11h1M23 11h3M9 12h1M20 12h3M8 13h1M18 13h2M7 14h1M16 14h2M6 15h1M15 15h1M13 16h1M5 17h1M12 17h1M4 18h1M11 18h1M34 18h1M41 18h2M4 19h1M10 19h1M32 19h1M43 19h1M3 20h1M9 20h1M28 20h1M31 20h1M36 20h3M41 20h2M3 21h1M8 21h1M29 21h3M35 21h1M40 21h1M2 22h1M8 22h1M30 22h1M34 22h1M39 22h1M2 23h1M7 23h1M22 23h1M30 23h1M34 23h1M42 23h5M7 24h1M40 24h2M47 24h1M1 25h1M22 25h2M39 25h1M1 26h1M6 26h1M28 26h2M38 26h1M52 26h1M1 27h1M6 27h1M30 27h1M37 27h1M42 27h1M1 28h1M6 28h1M24 28h2M31 28h1M37 28h1M41 28h1M1 29h1M6 29h1M26 29h2M31 29h1M36 29h1M40 29h1M55 29h1M1 30h1M6 30h1M28 30h1M36 30h1M40 30h1M56 30h1M6 31h1M28 31h1M36 31h1M43 31h3M56 31h1M2 32h1M7 32h1M17 32h1M24 32h1M41 32h2M46 32h2M2 33h1M7 33h1M23 33h1M48 33h1M3 34h1M8 34h1M22 34h1M42 34h2M56 34h1M3 35h1M8 35h1M19 35h1M22 35h1M27 35h1M42 35h1M56 35h1M4 36h1M9 36h1M18 36h1M21 36h1M42 36h1M54 36h2M5 37h1M10 37h1M14 37h1M18 37h1M21 37h1M42 37h1M6 38h1M11 38h1M13 38h1M17 38h1M21 38h1M17 39h1M21 39h1M17 40h1M21 40h1M56 40h1M10 41h1M17 41h1M54 41h2M12 42h2M18 42h1M54 42h1M19 43h1M23 43h1M49 43h1M53 43h1M55 43h1M23 44h1M37 44h2M49 44h1M13 45h1M23 45h1M32 45h1M36 45h1M43 45h1M49 45h1M12 46h1M22 46h1M42 46h1M50 46h1M56 46h1M12 47h1M19 47h1M27 47h3M40 47h2M45 47h1M53 47h1M11 48h1M15 48h1M31 48h2M38 48h2M11 49h1M15 49h1M21 49h1M25 49h1M47 49h1M51 49h1M11 50h1M14 50h1M63 50h1M12 51h1M14 51h1M18 51h1M55 51h2M63 51h1M14 52h1M18 52h1M52 52h1M56 52h1M64 52h1M13 53h1M18 53h1M52 53h1M64 53h1M12 54h1M19 54h1M52 54h1M56 54h1M65 54h1M11 55h1M15 55h1M20 55h2M44 55h1M51 55h1M55 55h1M65 55h1M11 56h1M22 56h1M44 56h1M48 56h1M62 56h1M66 56h1M10 57h1M16 57h1M22 57h1M45 57h1M50 57h1M66 57h1M10 58h1M17 58h2M51 58h1M53 58h1M63 58h1M67 58h1M10 59h1M12 59h1M23 59h1M67 59h1M10 60h1M12 60h1M22 60h1M24 60h2M30 60h1M57 60h1M61 60h1M10 61h2M15 61h1M22 61h1M26 61h2M30 61h1M48 61h1M54 61h1M64 61h1M68 61h1M11 62h1M15 62h1M22 62h1M29 62h1M33 62h1M37 62h1M69 62h1M10 63h1M14 63h1M37 63h1M43 63h2M66 63h1M69 63h1M10 64h1M14 64h1M38 64h1M44 64h1M66 64h1M70 64h1M9 65h1M34 65h1M57 65h1M64 65h1M67 65h1M70 65h1M9 66h1M26 66h1M57 66h1M67 66h1M69 66h1M71 66h1M57 67h1M33 68h1M57 68h2M56 69h4M55 70h4M60 70h2M55 71h3M61 71h3" />
<path stroke="#3973ac" d="M18 7h1M15 8h1M14 9h1M17 9h1M15 10h2M11 11h1M18 11h2M16 12h3M14 13h3M12 14h3M7 15h1M10 15h4M7 16h6M6 17h6M5 18h6M40 18h1M5 19h5M39 19h4M4 20h5M40 20h1M47 20h1M4 21h4M36 21h4M41 21h1M48 21h2M4 22h3M35 22h4M40 22h2M47 22h4M3 23h4M27 23h3M35 23h7M47 23h5M3 24h4M26 24h5M34 24h6M42 24h5M49 24h3M3 25h3M25 25h7M33 25h6M42 25h7M50 25h3M2 26h4M24 26h4M30 26h8M43 26h9M53 26h3M2 27h4M24 27h6M31 27h6M43 27h15M2 28h3M22 28h2M26 28h5M32 28h5M42 28h17M2 29h3M21 29h5M28 29h3M37 29h1M41 29h14M56 29h3M2 30h3M18 30h10M29 30h1M34 30h2M37 30h3M41 30h15M57 30h3M3 31h2M18 31h10M35 31h1M37 31h3M41 31h1M46 31h10M58 31h2M3 32h1M18 32h6M25 32h5M34 32h2M37 32h3M43 32h3M48 32h9M58 32h3M17 33h6M24 33h7M32 33h1M36 33h1M38 33h3M44 33h4M50 33h7M58 33h2M16 34h6M23 34h9M38 34h4M44 34h5M50 34h6M18 35h1M20 35h2M25 35h2M28 35h3M39 35h3M45 35h1M48 35h1M50 35h6M19 36h2M25 36h1M27 36h2M48 36h2M51 36h3M19 37h2M25 37h1M48 37h2M14 38h1M19 38h2M25 38h1M43 38h2M46 38h4M20 39h1M25 39h1M43 39h2M46 39h4M22 40h1M24 40h2M43 40h2M46 40h4M14 41h1M16 41h1M23 41h4M42 41h3M46 41h4M57 41h1M14 42h4M20 42h2M23 42h4M42 42h3M46 42h4M51 42h2M56 42h3M15 43h4M20 43h3M24 43h4M41 43h3M45 43h4M50 43h3M56 43h3M15 44h3M19 44h4M24 44h4M39 44h5M45 44h4M50 44h4M57 44h3M16 45h2M19 45h4M24 45h4M29 45h3M37 45h6M45 45h4M50 45h4M57 45h3M17 46h1M19 46h3M23 46h5M29 46h13M43 46h1M45 46h5M51 46h3M57 46h3M13 47h1M15 47h2M20 47h7M31 47h9M42 47h3M46 47h7M56 47h3M12 48h3M16 48h2M20 48h7M28 48h2M34 48h4M40 48h5M46 48h7M12 49h3M16 49h4M22 49h3M27 49h19M48 49h3M53 49h1M12 50h2M15 50h7M25 50h23M51 50h4M13 51h1M15 51h1M17 51h1M19 51h29M52 51h3M13 52h1M19 52h22M42 52h6M53 52h3M19 53h20M41 53h5M53 53h3M63 53h1M18 54h1M20 54h17M53 54h3M62 54h3M19 55h1M24 55h4M29 55h1M31 55h8M52 55h3M62 55h3M16 56h1M19 56h2M28 56h1M30 56h1M32 56h4M51 56h4M63 56h3M17 57h5M29 57h1M31 57h1M33 57h2M39 57h2M51 57h3M55 57h2M63 57h3M19 58h3M38 58h6M48 58h3M54 58h4M64 58h3M39 59h7M47 59h11M64 59h3M41 60h3M49 60h7M64 60h4M50 61h4M65 61h3M12 62h1M23 62h2M65 62h1M67 62h2M11 63h3M22 63h4M31 63h1M65 63h1M67 63h2M11 64h3M22 64h4M30 64h3M65 64h1M67 64h3M10 65h3M22 65h3M30 65h3M65 65h2M68 65h1M10 66h2M30 66h3M65 66h2M10 67h2M30 67h4M31 68h2" />
<path stroke="#529cc5" d="M19 7h1M16 8h4M15 9h2M13 10h2M17 10h2M12 11h6M10 12h6M9 13h5M8 14h4M8 15h2M35 18h5M33 19h6M32 20h4M43 20h4M26 21h3M32 21h3M42 21h6M24 22h6M31 22h3M42 22h5M23 23h4M31 23h3M22 24h4M31 24h3M32 25h1M40 25h2M22 26h2M39 26h4M20 27h4M38 27h4M19 28h3M38 28h3M19 29h2M38 29h2M32 30h2M30 31h5M30 32h4M31 33h1M16 35h2M23 35h2M46 35h2M15 36h3M22 36h3M46 36h2M15 37h3M22 37h3M46 37h2M15 38h2M22 38h3M14 39h3M22 39h3M14 40h3M23 40h1M15 41h1M16 51h1M15 52h3M15 53h3M15 54h3M16 55h3M17 56h2" />
<path stroke="#000000" d="M44 19h4M39 20h1M48 20h2M50 21h1M51 22h1M52 23h1M48 24h1M52 24h1M21 25h1M53 25h3M56 26h2M58 27h1M59 28h1M32 29h4M59 29h1M30 30h2M60 30h1M29 31h1M40 31h1M60 31h1M36 32h1M40 32h1M57 32h1M61 32h1M33 33h3M37 33h1M41 33h1M57 33h1M61 33h1M32 34h1M36 34h2M49 34h1M61 34h1M31 35h1M38 35h1M44 35h1M49 35h1M61 35h1M26 36h1M29 36h2M39 36h1M45 36h1M50 36h1M60 36h1M26 37h3M40 37h2M45 37h1M50 37h4M60 37h1M12 38h1M26 38h1M42 38h1M45 38h1M50 38h1M59 38h1M7 39h1M13 39h1M26 39h1M42 39h1M45 39h1M50 39h1M58 39h1M60 39h1M8 40h1M13 40h1M26 40h1M42 40h1M45 40h1M50 40h1M57 40h1M61 40h1M9 41h1M13 41h1M20 41h3M27 41h1M41 41h1M45 41h1M50 41h3M58 41h1M61 41h1M11 42h1M19 42h1M22 42h1M27 42h1M41 42h1M45 42h1M50 42h1M53 42h1M59 42h1M62 42h1M13 43h2M28 43h1M39 43h2M44 43h1M59 43h1M62 43h1M14 44h1M18 44h1M28 44h4M44 44h1M54 44h1M56 44h1M60 44h1M63 44h1M15 45h1M18 45h1M28 45h1M33 45h3M44 45h1M54 45h1M56 45h1M60 45h1M63 45h1M16 46h1M18 46h1M28 46h1M44 46h1M54 46h1M60 46h1M63 46h1M17 47h2M59 47h2M63 47h1M19 48h1M27 48h1M45 48h1M53 48h1M59 48h1M61 48h1M63 48h1M20 49h1M26 49h1M46 49h1M52 49h1M54 49h1M58 49h1M61 49h2M22 50h3M48 50h3M55 50h1M57 50h1M62 50h1M58 51h1M12 52h1M59 52h1M14 53h1M56 53h1M60 53h1M14 54h1M61 54h1M61 55h1M15 56h1M50 56h1M55 56h1M49 57h1M54 57h1M62 57h1M22 58h1M45 58h1M52 58h1M18 59h4M46 59h1M61 59h1M63 59h1M47 60h1M56 60h1M63 60h1M68 60h1M49 61h1M55 61h1M62 61h1M26 62h1M50 62h4M55 62h1M63 62h2M17 63h3M21 63h1M26 63h1M29 63h1M33 63h1M47 63h3M51 63h1M56 63h1M60 63h1M64 63h1M15 64h2M20 64h2M26 64h1M28 64h2M33 64h1M45 64h3M52 64h1M56 64h1M60 64h1M13 65h1M18 65h1M21 65h1M26 65h1M28 65h2M33 65h1M39 65h2M43 65h1M48 65h2M53 65h1M56 65h1M61 65h1M12 66h1M21 66h1M27 66h1M29 66h1M34 66h1M41 66h2M54 66h1M56 66h1M62 66h3M9 67h1M12 67h1M22 67h1M28 67h1M34 67h2M41 67h1M54 67h1M56 67h1M58 67h1M64 67h2M72 67h1M10 68h2M22 68h1M28 68h1M30 68h1M34 68h1M36 68h2M40 68h2M55 68h2M59 68h1M65 68h1M73 68h3M11 69h1M23 69h1M27 69h1M31 69h3M38 69h2M41 69h1M55 69h1M60 69h2M65 69h1M76 69h3M11 70h1M24 70h3M41 70h1M54 70h1M59 70h1M62 70h4M79 70h1M27 71h11M54 71h1M58 71h1M60 71h1M64 71h1M66 71h1M79 71h1M12 72h1M22 72h5M38 72h2M42 72h1M53 72h1M55 72h3M61 72h3M66 72h1M79 72h1M13 73h1M20 73h2M40 73h4M52 73h1M67 73h1M78 73h1M15 74h5M43 74h3M50 74h2M68 74h1M75 74h3M45 75h5M70 75h4" />
<path stroke="#4a4a52" d="M33 34h3M32 35h6M31 36h8M29 37h1M32 37h8M33 38h6M37 69h1M40 69h1M37 70h4M38 71h4M40 72h2" />
<path stroke="#ffffff" d="M30 37h2M29 38h1M31 38h2M29 39h4M36 39h2M30 40h2M35 40h1M37 40h2M35 41h4M36 42h2" />
<path stroke="#313139" d="M27 38h2M30 38h1M39 38h3M27 39h2M33 39h3M38 39h4M27 40h3M32 40h3M36 40h1M39 40h3M28 41h7M39 41h2M28 42h8M38 42h3M29 43h10M32 44h5M50 63h1M17 64h3M48 64h4M19 65h2M50 65h3M20 66h1M28 66h1M51 66h3M20 67h2M29 67h1M51 67h3M21 68h1M29 68h1M35 68h1M52 68h3M21 69h2M28 69h3M34 69h3M52 69h3M21 70h3M27 70h10M52 70h2M21 71h6M52 71h2M20 72h2M52 72h1M19 73h1M51 73h1" />
</svg>