<svg xmlns="http://www.w3.org/2000/svg" viewBox="0 -0.5 48 48" shape-rendering="crispEdges">
<metadata>Made with Pixels to Svg https://codepen.io/shshaw/pen/XbxvNj</metadata>
<path stroke="#73625a" d="M5 2h42M4 3h43M3 4h3M45 4h2M2 5h3M45 5h2M2 6h2M45 6h2M2 7h2M45 7h2M2 8h2M45 8h2M2 9h2M44 9h3M2 10h2M44 10h2M2 11h2M44 11h2M2 12h2M44 12h2M2 13h2M43 13h3M2 14h2M43 14h2M2 15h2M42 15h3M2 16h2M41 16h3M2 17h2M41 17h2M2 18h2M40 18h3M2 19h2M40 19h2M2 20h2M39 20h3M2 21h2M39 21h2M2 22h2M24 22h1M38 22h3M2 23h2M25 23h2M38 23h2M2 24h2M25 24h3M37 24h3M2 25h2M26 25h3M37 25h2M2 26h2M23 26h7M36 26h3M2 27h2M22 27h9M35 27h3M2 28h2M21 28h3M29 28h8M2 29h2M21 29h2M30 29h6M2 30h2M20 30h1M29 30h3M2 31h2M29 31h2M2 32h2M29 32h2M2 33h2M28 33h3M2 34h2M27 34h3M2 35h2M27 35h2M2 36h2M27 36h2M2 37h2M27 37h2M2 38h2M27 38h3M2 39h2M28 39h3M2 40h2M29 40h2M2 41h2M29 41h2M2 42h3M29 42h2M3 43h3M28 43h3M4 44h26M5 45h24" />
<path stroke="#527be6" d="M6 4h39M5 5h40M4 6h3M44 6h1M4 7h2M44 7h1M4 8h2M43 8h2M4 9h2M43 9h1M4 10h2M41 10h1M43 10h1M4 11h2M40 11h1M42 11h2M4 12h2M39 12h1M41 12h3M4 13h2M38 13h1M40 13h1M42 13h1M4 14h2M39 14h1M41 14h2M4 15h2M38 15h1M40 15h2M4 16h2M40 16h1M4 17h2M39 17h2M4 18h2M39 18h1M4 19h2M38 19h2M4 20h3M38 20h1M4 21h2M7 21h1M23 21h2M37 21h2M4 22h1M6 22h1M23 22h1M25 22h2M37 22h1M4 23h2M7 23h1M24 23h1M27 23h1M36 23h2M4 24h1M6 24h1M24 24h1M28 24h1M36 24h1M4 25h2M7 25h1M23 25h3M29 25h1M35 25h2M4 26h1M6 26h1M22 26h1M30 26h1M34 26h2M4 27h2M7 27h1M21 27h1M31 27h4M4 28h3M20 28h1M24 28h5M4 29h2M20 29h1M23 29h1M28 29h2M4 30h2M19 30h1M21 30h2M28 30h1M4 31h2M19 31h2M28 31h1M4 32h2M27 32h2M4 33h2M26 33h2M4 34h2M26 34h1M4 35h2M26 35h1M4 36h2M26 36h1M4 37h2M24 37h1M26 37h1M4 38h2M25 38h2M4 39h2M24 39h1M26 39h2M4 40h2M23 40h1M25 40h1M27 40h2M4 41h3M24 41h1M26 41h1M28 41h1M5 42h19M25 42h1M27 42h2M6 43h22" />
<path stroke="#6a94ff" d="M7 6h37M6 7h2M42 7h2M6 8h1M9 8h34M6 9h1M8 9h35M6 10h35M42 10h1M6 11h34M41 11h1M6 12h33M40 12h1M6 13h32M39 13h1M41 13h1M6 14h33M40 14h1M6 15h32M39 15h1M6 16h34M6 17h33M6 18h33M6 19h32M7 20h31M6 21h1M8 21h15M25 21h12M5 22h1M7 22h16M27 22h10M6 23h1M8 23h16M28 23h8M5 24h1M7 24h17M29 24h7M6 25h1M8 25h15M30 25h5M5 26h1M7 26h15M31 26h3M6 27h1M8 27h13M7 28h13M6 29h14M24 29h4M6 30h13M23 30h5M6 31h13M21 31h7M6 32h21M6 33h20M6 34h20M6 35h20M6 36h20M6 37h18M25 37h1M6 38h1M8 38h17M6 39h1M9 39h15M25 39h1M6 40h2M22 40h1M24 40h1M26 40h1M7 41h17M25 41h1M27 41h1M24 42h1M26 42h1" />
<path stroke="#9cc5ff" d="M8 7h1M7 8h1M7 39h1M8 40h1" />
<path stroke="#83acff" d="M9 7h33M8 8h1M7 9h1M7 38h1M8 39h1M9 40h13" />
</svg>