<svg xmlns="http://www.w3.org/2000/svg" viewBox="0 -0.5 64 80" shape-rendering="crispEdges">
<metadata>Made with Pixels to Svg https://codepen.io/shshaw/pen/XbxvNj</metadata>
<path stroke="#73625a" d="M44 1h5M43 2h11M42 3h3M49 3h10M41 4h3M53 4h7M40 5h3M58 5h4M39 6h3M60 6h2M38 7h3M60 7h2M37 8h3M60 8h2M36 9h3M60 9h3M35 10h3M61 10h2M35 11h2M61 11h2M34 12h3M61 12h2M33 13h3M61 13h2M33 14h2M61 14h2M32 15h3M61 15h2M27 16h7M61 16h2M25 17h8M60 17h3M22 18h6M60 18h2M20 19h6M60 19h2M19 20h4M60 20h2M17 21h4M60 21h2M17 22h2M60 22h2M17 23h2M59 23h2M17 24h2M59 24h2M17 25h2M58 25h3M17 26h2M55 26h5M17 27h2M52 27h7M16 28h3M50 28h6M16 29h2M48 29h5M16 30h2M47 30h4M16 31h2M46 31h3M15 32h3M46 32h2M15 33h2M46 33h2M14 34h3M46 34h2M13 35h3M45 35h2M11 36h4M45 36h2M10 37h4M45 37h2M9 38h3M45 38h2M7 39h4M45 39h2M5 40h5M44 40h3M4 41h4M44 41h2M4 42h2M44 42h2M4 43h2M43 43h3M3 44h2M43 44h2M3 45h2M43 45h2M2 46h3M43 46h2M1 47h3M43 47h2M1 48h2M43 48h2M1 49h2M43 49h2M1 50h2M43 50h2M1 51h2M43 51h2M1 52h2M42 52h3M1 53h2M42 53h2M1 54h2M42 54h2M1 55h2M40 55h4M1 56h2M38 56h5M1 57h3M36 57h5M2 58h2M34 58h5M2 59h2M33 59h3M2 60h2M32 60h3M2 61h3M31 61h3M3 62h2M31 62h2M3 63h3M30 63h2M4 64h2M28 64h4M4 65h3M28 65h3M5 66h2M28 66h2M5 67h2M28 67h2M5 68h2M28 68h2M5 69h3M27 69h3M6 70h3M27 70h2M7 71h2M27 71h2M7 72h3M27 72h2M8 73h2M27 73h2M8 74h3M26 74h2M9 75h6M26 75h2M11 76h9M26 76h2M15 77h13M19 78h8" />
<path stroke="#9c9483" d="M49 1h1M60 4h1M18 20h1M61 23h1M47 35h1M3 43h1M36 59h1M32 63h1M28 74h1M10 76h1M14 77h1" />
<path stroke="#dec594" d="M45 3h4M44 4h2M48 4h5M43 5h2M52 5h6M42 6h2M57 6h3M41 7h1M59 7h1M40 8h2M59 8h1M39 9h2M59 9h1M38 10h2M59 10h2M37 11h2M60 11h1M37 12h1M60 12h1M36 13h2M60 13h1M35 14h2M60 14h1M35 15h1M60 15h1M34 16h2M59 16h2M33 17h2M59 17h1M28 18h6M59 18h1M26 19h3M59 19h1M23 20h4M59 20h1M21 21h3M59 21h1M19 22h3M58 22h2M19 23h1M58 23h1M19 24h1M57 24h2M19 25h1M54 25h4M19 26h1M51 26h4M19 27h1M49 27h3M19 28h1M48 28h2M18 29h2M18 30h1M18 31h1M18 32h1M17 33h2M17 34h1M16 35h2M15 36h2M14 37h2M44 37h1M12 38h3M44 38h1M11 39h2M44 39h1M10 40h2M8 41h3M6 42h3M6 43h1M5 44h2M5 45h1M42 45h1M5 46h1M42 46h1M4 47h2M42 47h1M3 48h2M42 48h1M3 49h1M42 49h1M3 50h1M42 50h1M3 51h1M41 51h2M3 52h1M41 52h1M3 53h1M41 53h1M3 54h1M39 54h3M3 55h1M37 55h3M3 56h2M35 56h3M4 57h1M33 57h3M4 58h1M32 58h2M4 59h1M31 59h2M4 60h1M30 60h2M30 61h1M5 62h1M29 62h2M6 63h1M27 63h3M6 64h2M27 64h1M7 65h1M27 65h1M7 66h1M27 66h1M7 67h1M27 67h1M7 68h2M26 68h2M8 69h2M26 69h1M9 70h1M26 70h1M9 71h2M26 71h1M10 72h1M26 72h1M10 73h2M25 73h2M11 74h5M25 74h1M15 75h6M25 75h1M20 76h6" />
<path stroke="#bda473" d="M46 4h2M45 5h7M44 6h13M42 7h1M46 7h13M47 8h12M41 9h1M48 9h11M40 10h2M48 10h2M51 10h8M39 11h2M49 11h11M38 12h3M45 12h1M49 12h7M58 12h2M38 13h2M44 13h2M50 13h10M37 14h3M44 14h2M50 14h10M36 15h3M43 15h4M50 15h10M36 16h2M43 16h4M50 16h9M35 17h2M42 17h5M50 17h9M34 18h2M41 18h6M50 18h9M29 19h6M40 19h3M44 19h3M50 19h9M27 20h8M39 20h7M50 20h4M55 20h4M24 21h10M38 21h8M50 21h9M22 22h4M27 22h7M38 22h7M49 22h9M20 23h11M37 23h3M41 23h4M49 23h9M20 24h8M37 24h7M48 24h9M20 25h6M36 25h1M48 25h6M20 26h4M33 26h12M48 26h3M20 27h3M30 27h15M48 27h1M20 28h2M28 28h17M20 29h1M26 29h18M19 30h2M25 30h15M41 30h3M19 31h1M24 31h9M34 31h10M19 32h1M24 32h2M27 32h6M34 32h9M23 33h20M18 34h1M23 34h19M18 35h1M22 35h19M17 36h1M26 36h11M38 36h3M16 37h1M22 37h3M29 37h12M15 38h1M21 38h7M32 38h7M13 39h1M20 39h11M40 39h1M12 40h1M20 40h21M11 41h1M19 41h21M9 42h2M17 42h23M7 43h4M15 43h1M17 43h8M26 43h13M7 44h3M14 44h2M17 44h22M6 45h4M14 45h2M17 45h21M6 46h3M13 46h3M17 46h14M33 46h4M6 47h3M13 47h3M18 47h18M41 47h1M5 48h4M12 48h5M18 48h4M23 48h12M40 48h2M4 49h5M12 49h5M19 49h14M39 49h3M4 50h5M12 50h1M14 50h4M19 50h12M38 50h4M4 51h5M12 51h6M21 51h10M37 51h4M4 52h5M12 52h8M35 52h6M4 53h5M12 53h18M34 53h7M4 54h5M12 54h17M34 54h5M4 55h4M13 55h5M20 55h7M33 55h4M5 56h1M13 56h12M32 56h3M12 57h1M15 57h7M31 57h2M10 58h4M29 58h3M8 59h5M27 59h4M9 60h2M24 60h6M16 61h14M15 62h14M13 63h14M8 64h8M18 64h9M8 65h19M8 66h17M26 66h1M8 67h19M9 68h5M15 68h11M10 69h16M10 70h16M11 71h8M21 71h5M11 72h15M12 73h13M16 74h9M21 75h4" />
<path stroke="#947b62" d="M43 7h3M42 8h5M42 9h2M45 9h3M42 10h2M46 10h2M41 11h3M46 11h3M41 12h2M47 12h2M56 12h1M40 13h3M47 13h3M40 14h2M48 14h2M39 15h3M48 15h2M38 16h3M48 16h2M37 17h3M48 17h2M36 18h3M48 18h2M35 19h3M43 19h1M48 19h2M35 20h2M48 20h2M34 21h3M47 21h3M34 22h2M47 22h2M31 23h5M46 23h3M28 24h9M46 24h2M26 25h6M45 25h3M24 26h5M46 26h2M23 27h4M46 27h2M22 28h3M46 28h2M21 29h3M46 29h2M21 30h2M45 30h2M20 31h3M33 31h1M45 31h1M20 32h2M45 32h1M19 33h3M44 33h2M19 34h2M44 34h2M19 35h2M43 35h2M18 36h4M42 36h3M17 37h3M41 37h3M16 38h3M40 38h1M42 38h2M14 39h5M42 39h2M13 40h5M42 40h2M12 41h3M17 41h1M42 41h2M11 42h3M41 42h2M11 43h2M25 43h1M41 43h2M10 44h3M40 44h2M10 45h2M40 45h2M9 46h3M32 46h1M39 46h3M9 47h2M38 47h3M9 48h2M37 48h3M9 49h2M36 49h3M9 50h2M13 50h1M34 50h4M9 51h2M32 51h5M9 52h2M30 52h5M9 53h2M32 53h2M9 54h3M31 54h3M8 55h5M18 55h1M30 55h3M6 56h5M12 56h1M28 56h4M5 57h4M26 57h5M5 58h2M14 58h3M23 58h6M5 59h2M15 59h12M5 60h2M14 60h10M6 61h2M12 61h4M7 62h8M8 63h5M17 64h1M19 71h1" />
<path stroke="#ac946a" d="M44 9h1M44 10h2M50 10h1M44 11h2M43 12h2M46 12h1M57 12h1M43 13h1M46 13h1M42 14h2M46 14h2M42 15h1M47 15h1M41 16h2M47 16h1M40 17h2M47 17h1M39 18h2M47 18h1M38 19h2M47 19h1M37 20h2M46 20h2M54 20h1M37 21h1M46 21h1M26 22h1M36 22h2M45 22h2M36 23h1M40 23h1M45 23h1M44 24h2M32 25h4M37 25h8M29 26h4M45 26h1M27 27h3M45 27h1M25 28h3M45 28h1M24 29h2M44 29h2M23 30h2M40 30h1M44 30h1M23 31h1M44 31h1M22 32h2M26 32h1M33 32h1M43 32h2M22 33h1M43 33h1M21 34h2M42 34h2M21 35h1M41 35h2M22 36h4M37 36h1M41 36h1M20 37h2M25 37h4M19 38h2M28 38h4M39 38h1M41 38h1M19 39h1M31 39h9M41 39h1M18 40h2M41 40h1M15 41h2M18 41h1M40 41h2M14 42h3M40 42h1M43 42h1M13 43h2M16 43h1M39 43h2M13 44h1M16 44h1M39 44h1M42 44h1M12 45h2M16 45h1M38 45h2M12 46h1M16 46h1M31 46h1M37 46h2M11 47h2M16 47h2M36 47h2M11 48h1M17 48h1M22 48h1M35 48h2M11 49h1M17 49h2M33 49h3M11 50h1M18 50h1M31 50h3M11 51h1M18 51h3M31 51h1M11 52h1M20 52h10M11 53h1M30 53h2M29 54h2M19 55h1M27 55h3M11 56h1M25 56h3M9 57h3M13 57h2M22 57h4M7 58h3M17 58h6M7 59h1M13 59h2M7 60h2M11 60h3M5 61h1M8 61h4M6 62h1M7 63h1M16 64h1M25 66h1M14 68h1M20 71h1" />
</svg>