<svg xmlns="http://www.w3.org/2000/svg" viewBox="0 -0.5 64 80" shape-rendering="crispEdges">
<metadata>Made with Pixels to Svg https://codepen.io/shshaw/pen/XbxvNj</metadata>
<path stroke="#73625a" d="M37 1h8M36 2h13M36 3h2M44 3h9M36 4h2M49 4h6M36 5h2M53 5h3M35 6h2M54 6h2M35 7h2M54 7h3M35 8h2M55 8h2M35 9h2M55 9h3M34 10h3M56 10h3M34 11h2M57 11h2M34 12h2M57 12h2M34 13h2M57 13h2M33 14h3M57 14h3M32 15h4M58 15h2M32 16h2M58 16h3M31 17h2M59 17h2M30 18h3M59 18h3M29 19h3M60 19h2M28 20h3M60 20h2M25 21h5M60 21h2M23 22h5M60 22h3M21 23h5M61 23h2M20 24h4M61 24h2M20 25h2M61 25h2M20 26h2M61 26h2M19 27h3M61 27h2M19 28h2M61 28h2M19 29h2M61 29h2M19 30h2M61 30h2M19 31h2M61 31h2M19 32h2M60 32h3M19 33h2M59 33h3M19 34h2M59 34h2M19 35h2M59 35h2M18 36h3M58 36h2M18 37h2M58 37h2M18 38h2M56 38h4M17 39h3M54 39h5M17 40h2M53 40h4M17 41h2M52 41h3M17 42h2M50 42h4M17 43h2M49 43h4M17 44h2M48 44h3M16 45h2M47 45h3M16 46h2M47 46h2M16 47h2M46 47h3M15 48h3M46 48h2M13 49h4M46 49h2M11 50h5M46 50h2M8 51h6M45 51h3M5 52h7M45 52h2M4 53h5M45 53h2M3 54h3M45 54h2M3 55h2M45 55h2M3 56h2M45 56h2M2 57h2M45 57h2M2 58h2M43 58h4M2 59h2M41 59h4M2 60h2M38 60h6M2 61h2M36 61h6M1 62h3M31 62h8M1 63h2M30 63h7M1 64h2M29 64h3M1 65h2M29 65h2M1 66h2M28 66h3M1 67h2M27 67h3M1 68h2M27 68h2M1 69h2M26 69h3M1 70h3M25 70h3M2 71h2M24 71h3M2 72h2M23 72h3M2 73h2M22 73h3M2 74h4M21 74h3M4 75h7M20 75h3M5 76h10M19 76h3M10 77h11M15 78h5" />
<path stroke="#9c9483" d="M49 2h1M53 3h1M35 5h1M31 16h1M27 20h1M60 36h1M16 44h1M2 56h1M45 59h1M3 75h1M14 78h1" />
<path stroke="#dec594" d="M38 3h6M38 4h1M43 4h6M38 5h1M48 5h5M37 6h2M52 6h2M37 7h1M53 7h1M37 8h1M53 8h2M37 9h1M54 9h1M37 10h1M54 10h2M36 11h2M55 11h2M36 12h1M56 12h1M36 13h1M56 13h1M36 14h1M56 14h1M36 15h1M56 15h2M34 16h3M57 16h1M33 17h2M58 17h1M33 18h1M32 19h2M59 19h1M31 20h2M59 20h1M30 21h2M59 21h1M28 22h3M59 22h1M26 23h3M59 23h2M24 24h3M60 24h1M22 25h3M60 25h1M22 26h1M60 26h1M22 27h1M60 27h1M21 28h2M60 28h1M21 29h1M60 29h1M21 30h1M60 30h1M21 31h1M59 31h2M21 32h1M58 32h2M21 33h1M58 33h1M21 34h1M58 34h1M57 35h2M57 36h1M55 37h3M53 38h3M52 39h2M19 40h1M51 40h2M19 41h1M49 41h3M19 42h1M48 42h2M47 43h2M46 44h2M46 45h1M45 46h2M45 47h1M45 48h1M45 49h1M44 50h2M14 51h2M44 51h1M12 52h3M44 52h1M9 53h4M44 53h1M6 54h4M44 54h1M5 55h2M44 55h1M5 56h1M44 56h1M4 57h2M42 57h3M4 58h1M40 58h3M4 59h1M37 59h4M4 60h1M35 60h3M4 61h1M30 61h6M4 62h1M29 62h2M3 63h2M28 63h2M3 64h1M28 64h1M3 65h1M27 65h2M3 66h1M26 66h2M3 67h1M26 67h1M3 68h1M25 68h2M3 69h2M24 69h2M4 70h1M23 70h2M4 71h1M22 71h2M4 72h1M22 72h1M4 73h3M20 73h2M6 74h6M19 74h2M11 75h5M18 75h2M15 76h4" />
<path stroke="#bda473" d="M39 4h4M39 5h9M39 6h13M38 7h15M38 8h5M45 8h8M38 9h16M38 10h16M38 11h11M50 11h5M37 12h19M37 13h1M39 13h17M37 14h19M37 15h9M48 15h8M37 16h14M35 17h14M34 18h14M34 19h6M53 19h2M33 20h4M51 20h5M32 21h3M50 21h4M31 22h2M42 22h7M51 22h1M29 23h3M39 23h12M58 23h1M27 24h4M37 24h7M46 24h5M56 24h4M25 25h5M35 25h17M55 25h5M23 26h7M34 26h18M55 26h5M23 27h6M44 27h8M55 27h5M23 28h4M33 28h10M46 28h6M55 28h5M22 29h4M33 29h12M46 29h4M51 29h1M55 29h5M22 30h3M31 30h14M47 30h5M55 30h5M22 31h2M29 31h12M42 31h4M47 31h5M55 31h4M22 32h1M28 32h18M48 32h3M55 32h3M27 33h4M33 33h14M48 33h3M55 33h3M26 34h21M48 34h2M54 34h4M25 35h22M48 35h2M54 35h3M25 36h13M39 36h8M48 36h1M53 36h4M24 37h23M53 37h2M24 38h21M52 38h1M23 39h21M51 39h1M23 40h1M33 40h11M50 40h1M25 41h7M36 41h7M48 41h1M23 42h12M39 42h3M47 42h1M23 43h3M27 43h11M46 43h1M23 44h19M45 44h1M22 45h19M45 45h1M21 46h20M21 47h9M31 47h6M38 47h2M44 47h1M20 48h10M31 48h9M44 48h1M20 49h3M24 49h15M43 49h2M20 50h18M43 50h1M19 51h17M42 51h2M15 52h1M19 52h15M41 52h3M13 53h3M19 53h12M40 53h4M10 54h6M27 54h1M38 54h6M7 55h9M20 55h7M36 55h8M6 56h9M19 56h4M24 56h3M33 56h11M6 57h9M19 57h7M30 57h7M38 57h4M5 58h9M18 58h8M30 58h10M5 59h4M10 59h4M18 59h7M29 59h8M5 60h9M17 60h3M21 60h3M29 60h6M5 61h9M17 61h6M28 61h2M5 62h9M17 62h5M27 62h2M5 63h9M17 63h4M26 63h2M4 64h10M17 64h4M25 64h3M4 65h10M18 65h2M24 65h3M4 66h10M18 66h2M24 66h2M4 67h2M8 67h7M18 67h1M23 67h3M4 68h11M23 68h2M5 69h8M14 69h2M22 69h2M5 70h11M22 70h1M5 71h12M5 72h13M21 72h1M7 73h13M12 74h7M16 75h2" />
<path stroke="#ac946a" d="M43 8h1M49 11h1M38 13h1M47 15h1M56 16h1M57 17h1M52 18h4M58 18h1M50 19h3M55 19h2M49 20h2M56 20h1M41 21h6M54 21h3M38 22h4M49 22h2M52 22h3M36 23h3M52 23h1M34 24h3M44 24h1M33 25h2M32 26h2M52 26h1M34 27h10M52 27h1M32 28h1M43 28h3M52 28h1M30 29h3M45 29h1M52 29h1M28 30h3M45 30h2M52 30h1M27 31h2M41 31h1M46 31h1M52 31h1M26 32h2M46 32h2M51 32h2M25 33h2M32 33h1M47 33h1M51 33h1M24 34h2M47 34h1M50 34h2M21 35h1M24 35h1M47 35h1M50 35h1M23 36h2M47 36h1M49 36h2M20 37h1M23 37h1M47 37h3M22 38h2M45 38h1M47 38h2M22 39h1M44 39h2M22 40h1M24 40h9M44 40h1M22 41h1M24 41h1M32 41h4M43 41h2M35 42h4M42 42h2M22 43h1M26 43h1M38 43h4M21 44h2M42 44h1M20 45h2M41 45h2M20 46h1M41 46h1M19 47h2M30 47h1M37 47h1M40 47h2M19 48h1M40 48h1M19 49h1M23 49h1M39 49h2M18 50h2M38 50h2M18 51h1M36 51h3M18 52h1M34 52h3M18 53h1M31 53h4M19 54h8M28 54h4M18 55h2M18 56h1M23 56h1M27 56h1M17 57h2M26 57h2M37 57h1M17 58h1M26 58h1M9 59h1M16 59h2M25 59h2M16 60h1M24 60h2M16 61h1M23 61h2M16 62h1M22 62h2M16 63h1M21 63h2M16 64h1M21 64h1M16 65h2M20 65h2M17 66h1M20 66h1M6 67h1M17 67h1M19 67h2M18 68h2M13 69h1M18 69h2M19 70h1" />
<path stroke="#947b62" d="M44 8h1M46 15h1M51 16h5M49 17h8M48 18h4M56 18h2M40 19h10M57 19h2M37 20h12M57 20h2M35 21h6M47 21h3M57 21h2M33 22h5M55 22h4M32 23h4M51 23h1M53 23h5M31 24h3M45 24h1M51 24h5M30 25h3M52 25h3M30 26h2M53 26h2M29 27h5M53 27h2M27 28h5M53 28h2M26 29h4M50 29h1M53 29h2M25 30h3M53 30h2M24 31h3M53 31h2M23 32h3M53 32h2M22 33h3M31 33h1M52 33h3M22 34h2M52 34h2M22 35h2M51 35h3M21 36h2M38 36h1M51 36h2M21 37h2M50 37h3M20 38h2M46 38h1M49 38h3M20 39h2M46 39h5M20 40h2M45 40h5M20 41h2M23 41h1M45 41h3M20 42h3M44 42h3M19 43h3M42 43h4M19 44h2M43 44h2M18 45h2M43 45h2M18 46h2M42 46h3M18 47h1M42 47h2M18 48h1M30 48h1M41 48h3M17 49h2M41 49h2M16 50h2M40 50h3M16 51h2M39 51h3M16 52h2M37 52h4M16 53h2M35 53h5M16 54h3M32 54h6M16 55h2M27 55h9M15 56h3M28 56h5M15 57h2M28 57h2M14 58h3M27 58h3M14 59h2M27 59h2M14 60h2M20 60h1M26 60h3M14 61h2M25 61h3M14 62h2M24 62h3M14 63h2M23 63h3M14 64h2M22 64h3M14 65h2M22 65h2M14 66h3M21 66h3M7 67h1M15 67h2M21 67h2M15 68h3M20 68h3M16 69h2M20 69h2M16 70h3M20 70h2M17 71h5M18 72h3" />
</svg>