<svg xmlns="http://www.w3.org/2000/svg" viewBox="0 -0.5 48 48" shape-rendering="crispEdges">
<metadata>Made with Pixels to Svg https://codepen.io/shshaw/pen/XbxvNj</metadata>
<path stroke="#73625a" d="M21 0h7M18 1h13M16 2h6M27 2h6M13 3h6M30 3h5M12 4h5M32 4h4M11 5h3M34 5h3M10 6h3M35 6h2M9 7h3M35 7h3M8 8h3M32 8h1M36 8h3M8 9h2M33 9h1M37 9h3M7 10h3M38 10h2M7 11h2M34 11h1M38 11h3M7 12h2M35 12h1M39 12h3M7 13h2M40 13h2M6 14h3M36 14h1M40 14h2M5 15h3M36 15h1M40 15h2M5 16h2M14 16h1M36 16h1M40 16h3M4 17h3M14 17h1M36 17h1M41 17h3M4 18h2M14 18h1M42 18h3M3 19h3M14 19h1M35 19h1M43 19h2M3 20h2M43 20h3M3 21h2M15 21h1M44 21h3M3 22h2M15 22h1M45 22h2M3 23h2M15 23h2M46 23h2M3 24h2M33 24h1M46 24h2M3 25h2M18 25h2M30 25h1M46 25h2M3 26h2M21 26h2M27 26h2M46 26h2M3 27h2M17 27h1M23 27h3M46 27h2M3 28h2M16 28h6M45 28h3M4 29h2M16 29h8M27 29h5M45 29h2M4 30h2M15 30h3M21 30h12M44 30h3M4 31h2M14 31h3M23 31h5M31 31h3M44 31h2M4 32h2M13 32h3M32 32h3M43 32h3M4 33h2M13 33h2M33 33h3M43 33h2M4 34h2M12 34h3M34 34h3M43 34h2M5 35h2M11 35h3M35 35h3M42 35h2M5 36h2M10 36h3M36 36h3M41 36h3M5 37h7M37 37h6M6 38h5M38 38h4" />
<path stroke="#ace6d5" d="M22 2h5M19 3h3M27 3h3M17 4h2M30 4h2M14 5h3M32 5h2M13 6h3M33 6h2M12 7h1M15 7h2M32 7h1M34 7h1M11 8h1M17 8h2M31 8h1M35 8h1M10 9h1M16 9h5M29 9h2M36 9h1M10 10h1M16 10h1M21 10h2M28 10h1M37 10h1M9 11h1M15 11h1M23 11h5M9 12h7M25 12h2M38 12h1M9 13h2M15 13h1M26 13h1M39 13h1M9 14h1M14 14h1M16 14h1M27 14h1M39 14h1M8 15h1M14 15h1M16 15h1M28 15h1M39 15h1M7 16h1M13 16h1M16 16h1M28 16h1M39 16h1M7 17h1M13 17h1M17 17h1M28 17h2M38 17h3M6 18h1M12 18h1M17 18h1M27 18h4M35 18h3M41 18h1M6 19h1M12 19h1M17 19h1M25 19h2M31 19h4M42 19h1M5 20h1M12 20h1M17 20h1M23 20h2M32 20h2M5 21h2M11 21h1M17 21h1M20 21h3M32 21h1M43 21h1M5 22h2M11 22h1M17 22h3M32 22h1M44 22h1M5 23h1M7 23h2M10 23h1M17 23h1M32 23h1M34 23h1M45 23h1M5 24h1M8 24h3M17 24h1M32 24h1M35 24h1M44 24h2M5 25h1M9 25h1M17 25h1M31 25h1M36 25h1M43 25h1M45 25h1M5 26h1M9 26h1M17 26h1M31 26h1M37 26h1M41 26h2M45 26h1M5 27h1M9 27h1M16 27h1M18 27h3M31 27h1M37 27h2M40 27h1M45 27h1M6 28h1M9 28h1M15 28h1M22 28h1M28 28h4M38 28h2M44 28h1M6 29h1M9 29h1M15 29h1M24 29h3M32 29h1M38 29h1M44 29h1M6 30h1M8 30h1M14 30h1M33 30h1M38 30h1M43 30h1M6 31h1M8 31h1M13 31h1M34 31h1M39 31h1M43 31h1M6 32h1M8 32h1M35 32h1M39 32h1M6 33h1M8 33h1M12 33h1M36 33h1M40 33h1M42 33h1M7 34h2M11 34h1M37 34h1M40 34h1M42 34h1M7 35h1M10 35h1M38 35h1M41 35h1M7 36h3M39 36h2" />
<path stroke="#5abdc5" d="M22 3h5M19 4h8M17 5h5M31 5h1M16 6h2M32 6h1M13 7h2M17 7h1M12 8h5M11 9h5M21 9h1M31 9h1M11 10h5M23 10h1M29 10h1M10 11h5M37 11h1M11 13h4M27 13h1M10 14h4M15 14h1M9 15h5M8 16h5M29 16h1M8 17h5M16 17h1M7 18h5M13 18h1M31 18h1M38 18h3M7 19h5M27 19h1M36 19h6M6 20h6M25 20h1M31 20h1M36 20h7M7 21h4M23 21h1M33 21h1M36 21h7M7 22h4M20 22h1M34 22h1M36 22h8M6 23h1M9 23h1M11 23h1M36 23h9M6 24h2M36 24h8M6 25h3M10 25h1M37 25h6M44 25h1M6 26h3M18 26h1M36 26h1M38 26h3M6 27h3M15 27h1M21 27h1M39 27h1M41 27h1M7 28h2M23 28h1M27 28h1M7 29h2M39 29h1M7 30h1M9 30h1M39 30h1M7 31h1M38 31h1M7 32h1M12 32h1M42 32h1M7 33h1M39 33h1M10 34h1M41 34h1M8 35h2M39 35h2" />
<path stroke="#5a8383" d="M27 4h3M22 5h4M30 5h1M18 6h3M31 6h1M18 7h1M31 7h1M32 9h1M30 10h4M16 11h1M28 11h6M16 12h1M27 12h8M16 13h1M28 13h8M25 14h1M28 14h8M15 15h1M22 15h1M24 15h1M26 15h1M29 15h7M15 16h1M21 16h1M23 16h1M25 16h1M27 16h1M30 16h6M15 17h1M24 17h1M26 17h1M30 17h6M15 18h2M25 18h1M32 18h3M15 19h2M28 19h3M15 20h2M26 20h5M35 20h1M16 21h1M24 21h8M35 21h1M16 22h1M21 22h11M33 22h1M35 22h1M18 23h14M33 23h1M35 23h1M18 24h14M20 25h10M23 26h4" />
<path stroke="#739c9c" d="M26 5h4M21 6h10M19 7h12M19 8h12M22 9h7M17 10h4M24 10h4M17 11h6M17 12h8M17 13h9M17 14h8M26 14h1M17 15h5M23 15h1M25 15h1M27 15h1M17 16h4M22 16h1M24 16h1M26 16h1M18 17h6M25 17h1M27 17h1M18 18h7M26 18h1M18 19h7M18 20h5M34 20h1M18 21h2M34 21h1" />
<path stroke="#41a4ac" d="M33 7h1M33 8h2M34 9h2M34 10h3M35 11h2M36 12h2M36 13h3M37 14h2M37 15h2M37 16h2M37 17h1M13 19h1M13 20h2M12 21h3M12 22h3M12 23h3M11 24h6M34 24h1M11 25h6M32 25h4M10 26h7M19 26h2M29 26h2M32 26h4M43 26h2M10 27h5M22 27h1M26 27h5M32 27h5M42 27h3M10 28h5M24 28h3M32 28h6M40 28h4M10 29h5M33 29h5M40 29h4M10 30h4M34 30h4M40 30h3M9 31h4M35 31h3M40 31h3M9 32h3M36 32h3M40 32h2M9 33h3M37 33h2M41 33h1M9 34h1M38 34h2" />
<path stroke="#9c9483" d="M5 28h1M3 29h1M6 34h1M4 35h1" />
</svg>