<svg xmlns="http://www.w3.org/2000/svg" viewBox="0 -0.5 80 64" shape-rendering="crispEdges">
<metadata>Made with Pixels to Svg https://codepen.io/shshaw/pen/XbxvNj</metadata>
<path stroke="#73625a" d="M31 3h22M25 4h42M19 5h13M52 5h22M13 6h13M66 6h9M8 7h12M73 7h2M7 8h7M73 8h2M7 9h2M73 9h3M7 10h2M74 10h2M7 11h2M74 11h2M6 12h3M74 12h3M6 13h2M75 13h2M6 14h2M75 14h2M5 15h3M75 15h2M5 16h2M75 16h2M5 17h2M75 17h2M4 18h3M75 18h2M4 19h2M74 19h3M4 20h2M74 20h2M3 21h3M74 21h2M3 22h2M74 22h2M3 23h2M74 23h3M2 24h3M75 24h2M2 25h2M75 25h2M2 26h2M75 26h2M2 27h2M75 27h2M2 28h2M75 28h2M2 29h2M75 29h2M2 30h2M75 30h3M2 31h2M76 31h2M1 32h3M76 32h2M1 33h2M76 33h2M1 34h2M76 34h2M1 35h2M76 35h2M1 36h2M76 36h2M1 37h2M76 37h2M1 38h2M76 38h2M1 39h2M76 39h2M1 40h3M75 40h3M2 41h3M74 41h3M3 42h4M72 42h4M4 43h4M71 43h3M6 44h5M70 44h3M8 45h7M66 45h6M11 46h6M63 46h8M14 47h4M62 47h5M16 48h3M62 48h2M17 49h2M61 49h3M17 50h2M61 50h2M17 51h3M61 51h2M18 52h2M61 52h2M18 53h5M61 53h2M19 54h6M60 54h3M22 55h4M59 55h3M24 56h3M57 56h4M25 57h3M52 57h8M26 58h6M46 58h12M28 59h8M41 59h12M31 60h16M35 61h7" />
<path stroke="#dec594" d="M32 5h20M26 6h7M51 6h15M20 7h7M65 7h8M14 8h7M72 8h1M9 9h6M72 9h1M9 10h1M72 10h2M9 11h1M73 11h1M9 12h1M73 12h1M8 13h2M73 13h2M8 14h1M74 14h1M8 15h1M74 15h1M7 16h2M74 16h1M7 17h1M74 17h1M7 18h1M73 18h2M6 19h2M73 19h1M6 20h1M73 20h1M6 21h1M73 21h1M5 22h2M73 22h1M5 23h1M73 23h1M5 24h1M73 24h2M4 25h2M74 25h1M4 26h1M74 26h1M4 27h1M74 27h1M4 28h1M74 28h1M4 29h1M74 29h1M4 30h1M74 30h1M4 31h1M74 31h2M4 32h1M75 32h1M3 33h2M75 33h1M3 34h1M75 34h1M3 35h1M75 35h1M3 36h1M75 36h1M3 37h1M75 37h1M3 38h1M75 38h1M3 39h2M74 39h2M4 40h2M73 40h2M5 41h3M71 41h3M7 42h2M70 42h2M8 43h4M69 43h2M11 44h5M65 44h5M15 45h3M63 45h3M17 46h2M62 46h1M18 47h1M61 47h1M61 48h1M60 50h1M60 51h1M60 52h1M23 53h3M60 53h1M25 54h2M59 54h1M26 55h2M56 55h3M27 56h2M52 56h5M28 57h5M45 57h7M32 58h5M40 58h6M36 59h5" />
<path stroke="#ac946a" d="M33 6h1M46 6h1M30 7h1M50 7h1M34 8h12M31 9h4M45 9h5M55 9h1M62 9h1M25 10h1M29 10h3M38 10h3M49 10h4M28 11h2M36 11h3M52 11h3M58 11h1M22 12h1M26 12h3M34 12h4M54 12h2M25 13h2M33 13h4M55 13h3M14 14h1M23 14h3M30 14h1M32 14h4M57 14h2M70 14h1M22 15h2M27 15h1M29 15h1M31 15h4M58 15h2M62 15h1M21 16h2M28 16h1M30 16h4M59 16h2M17 17h1M20 17h2M27 17h1M29 17h4M45 17h1M54 17h1M60 17h1M19 18h2M28 18h4M60 18h2M66 18h1M19 19h1M27 19h1M29 19h2M61 19h1M18 20h2M26 20h1M28 20h3M61 20h2M15 21h1M18 21h1M28 21h2M36 21h1M62 21h1M65 21h1M17 22h2M20 22h1M28 22h1M62 22h2M17 23h1M28 23h1M63 23h1M17 24h1M63 24h1M66 24h1M17 25h9M43 25h1M63 25h2M25 26h6M56 26h1M64 26h1M25 27h9M61 27h1M64 27h1M24 28h4M30 28h6M61 28h1M64 28h1M10 29h1M24 29h2M33 29h5M60 29h2M64 29h1M23 30h2M28 30h2M35 30h4M59 30h2M64 30h1M20 31h1M23 31h1M27 31h2M37 31h3M58 31h3M64 31h1M22 32h2M26 32h2M38 32h3M42 32h1M57 32h3M64 32h1M22 33h1M26 33h2M39 33h3M56 33h4M64 33h1M19 34h1M22 34h1M26 34h1M32 34h1M40 34h3M55 34h4M64 34h1M21 35h2M37 35h1M41 35h3M54 35h4M63 35h2M9 36h1M21 36h6M42 36h2M53 36h5M63 36h1M66 36h1M26 37h3M42 37h3M52 37h3M56 37h1M58 37h1M63 37h1M20 38h1M28 38h2M43 38h2M51 38h3M55 38h1M57 38h1M62 38h2M27 39h4M35 39h1M43 39h3M49 39h4M54 39h1M62 39h1M69 39h2M17 40h1M26 40h6M42 40h1M44 40h2M51 40h1M53 40h1M55 40h1M62 40h1M26 41h1M30 41h3M41 41h2M44 41h3M52 41h1M54 41h1M61 41h2M25 42h2M31 42h3M39 42h3M45 42h2M61 42h1M25 43h1M27 43h1M31 43h3M37 43h4M45 43h2M60 43h2M24 44h2M31 44h2M34 44h1M45 44h3M60 44h1M24 45h1M29 45h3M34 45h2M44 45h4M59 45h2M20 46h1M23 46h2M27 46h3M35 46h1M44 46h5M51 46h1M58 46h2M22 47h2M25 47h3M35 47h1M43 47h6M58 47h1M22 48h1M24 48h2M35 48h1M41 48h4M48 48h2M57 48h2M21 49h4M35 49h1M38 49h4M49 49h1M56 49h2M21 50h2M35 50h4M45 50h1M49 50h1M54 50h3M25 51h1M33 51h1M49 51h1M53 51h2M39 52h1M49 52h1M52 52h2M57 52h1M49 53h4M49 54h2" />
<path stroke="#947b62" d="M34 6h12M31 7h19M28 8h6M46 8h8M27 9h4M50 9h5M26 10h3M53 10h4M24 11h4M55 11h3M23 12h3M56 12h4M21 13h4M58 13h3M20 14h3M59 14h3M14 15h1M19 15h3M60 15h2M18 16h3M61 16h2M18 17h2M61 17h3M17 18h2M62 18h2M67 18h1M16 19h3M62 19h3M16 20h2M63 20h2M16 21h2M35 21h1M51 21h1M63 21h2M15 22h2M64 22h2M15 23h2M64 23h2M15 24h2M64 24h2M15 25h2M65 25h2M15 26h10M65 26h2M16 27h9M65 27h2M22 28h2M65 28h2M21 29h3M65 29h2M21 30h2M65 30h2M21 31h2M65 31h2M20 32h2M65 32h2M20 33h2M65 33h2M20 34h2M65 34h2M19 35h2M65 35h2M8 36h1M19 36h2M64 36h2M19 37h7M64 37h2M21 38h7M64 38h2M24 39h3M36 39h1M63 39h3M24 40h2M63 40h2M23 41h3M63 41h2M23 42h2M62 42h3M22 43h3M62 43h2M22 44h2M33 44h1M61 44h3M21 45h3M32 45h2M51 45h1M61 45h2M21 46h2M30 46h5M60 46h2M20 47h2M28 47h7M59 47h2M19 48h3M26 48h5M33 48h2M45 48h3M59 48h2M19 49h2M25 49h4M33 49h2M42 49h7M58 49h3M19 50h2M23 50h4M33 50h2M39 50h6M47 50h2M57 50h3M20 51h5M34 51h9M47 51h2M55 51h4M20 52h4M34 52h5M47 52h2M54 52h3M47 53h2M53 53h3M47 54h2M51 54h4M47 55h7M48 56h4" />
<path stroke="#bda473" d="M47 6h4M27 7h3M51 7h14M21 8h7M54 8h18M15 9h12M35 9h10M56 9h6M63 9h9M10 10h15M32 10h6M41 10h8M57 10h15M10 11h14M30 11h6M39 11h13M59 11h14M10 12h12M29 12h5M38 12h16M60 12h13M10 13h11M27 13h6M37 13h18M61 13h12M9 14h5M15 14h5M26 14h4M31 14h1M36 14h21M62 14h8M71 14h3M9 15h5M15 15h4M24 15h3M28 15h1M30 15h1M35 15h23M63 15h11M9 16h9M23 16h5M29 16h1M34 16h25M63 16h11M8 17h9M22 17h5M28 17h1M33 17h12M46 17h8M55 17h5M64 17h10M8 18h9M21 18h7M32 18h28M64 18h2M68 18h5M8 19h8M20 19h7M28 19h1M31 19h30M65 19h8M7 20h9M20 20h6M27 20h1M31 20h30M65 20h8M7 21h8M19 21h9M30 21h5M37 21h14M52 21h10M66 21h7M7 22h8M19 22h1M21 22h7M29 22h33M66 22h7M6 23h9M18 23h10M29 23h34M66 23h7M6 24h9M18 24h45M67 24h6M6 25h9M26 25h17M44 25h19M67 25h7M5 26h10M31 26h25M57 26h7M67 26h7M5 27h11M34 27h27M62 27h2M67 27h7M5 28h17M28 28h2M36 28h25M62 28h2M67 28h7M5 29h5M11 29h10M26 29h7M38 29h22M62 29h2M67 29h7M5 30h16M25 30h3M30 30h5M39 30h20M61 30h3M67 30h7M5 31h15M24 31h3M29 31h8M40 31h18M61 31h3M67 31h7M5 32h15M24 32h2M28 32h10M41 32h1M43 32h14M60 32h4M67 32h8M5 33h15M23 33h3M28 33h11M42 33h14M60 33h4M67 33h8M4 34h15M23 34h3M27 34h5M33 34h7M43 34h12M59 34h5M67 34h8M4 35h15M23 35h14M38 35h3M44 35h10M58 35h5M67 35h8M4 36h4M10 36h9M27 36h15M44 36h9M58 36h5M67 36h8M4 37h15M29 37h13M45 37h7M55 37h1M57 37h1M59 37h4M66 37h9M4 38h16M30 38h13M45 38h6M54 38h1M56 38h1M58 38h4M66 38h9M5 39h19M31 39h4M37 39h6M46 39h3M53 39h1M55 39h7M66 39h3M71 39h3M6 40h11M18 40h6M32 40h10M43 40h1M46 40h5M52 40h1M54 40h1M56 40h6M65 40h8M8 41h15M27 41h3M33 41h8M43 41h1M47 41h5M53 41h1M55 41h6M65 41h6M9 42h14M27 42h4M34 42h5M42 42h3M47 42h14M65 42h5M12 43h10M26 43h1M28 43h3M34 43h3M41 43h4M47 43h13M64 43h5M16 44h6M26 44h5M35 44h10M48 44h12M64 44h1M18 45h3M25 45h4M36 45h8M48 45h3M52 45h7M19 46h1M25 46h2M36 46h8M49 46h2M52 46h6M19 47h1M24 47h1M36 47h7M49 47h9M23 48h1M31 48h2M36 48h5M50 48h7M29 49h4M36 49h2M50 49h6M27 50h6M46 50h1M50 50h4M26 51h7M43 51h4M50 51h3M59 51h1M24 52h10M40 52h7M50 52h2M58 52h2M26 53h21M56 53h4M27 54h20M55 54h4M28 55h19M54 55h2M29 56h19M33 57h12M37 58h3" />
<path stroke="#9c9483" d="M74 43h1M7 45h1M10 46h1M27 59h1" />
</svg>