<svg xmlns="http://www.w3.org/2000/svg" viewBox="0 -0.5 64 32" shape-rendering="crispEdges">
<metadata>Made with Pixels to Svg https://codepen.io/shshaw/pen/XbxvNj</metadata>
<path stroke="#73625a" d="M33 1h10M28 2h19M24 3h10M42 3h7M19 4h10M46 4h5M14 5h11M48 5h5M11 6h9M50 6h5M9 7h6M52 7h4M7 8h5M54 8h3M6 9h4M55 9h3M5 10h3M56 10h3M4 11h3M57 11h2M4 12h2M57 12h3M3 13h3M58 13h2M3 14h2M58 14h3M2 15h3M59 15h2M2 16h2M59 16h2M2 17h2M59 17h2M2 18h2M59 18h2M2 19h2M59 19h2M2 20h2M59 20h2M2 21h2M59 21h2M2 22h3M58 22h3M3 23h2M58 23h2M3 24h3M57 24h3M4 25h3M56 25h3M5 26h3M54 26h4M6 27h4M51 27h6M7 28h6M48 28h7M9 29h10M43 29h10M13 30h36M18 31h26" />
<path stroke="#949483" d="M34 3h8M29 4h17M25 5h11M41 5h7M20 6h10M44 6h6M15 7h11M47 7h5M12 8h9M49 8h5M10 9h6M43 9h2M51 9h4M8 10h5M24 10h2M43 10h2M53 10h3M7 11h4M24 11h2M54 11h3M6 12h3M55 12h2M6 13h2M56 13h2M5 14h3M52 14h2M56 14h2M5 15h2M52 15h2M56 15h3M4 16h3M9 16h2M57 16h2M4 17h2M9 17h2M57 17h2M4 18h2M57 18h2M4 19h2M57 19h2M4 20h2M56 20h3M4 21h3M14 21h2M56 21h3M5 22h2M14 22h2M38 22h2M56 22h2M5 23h3M38 23h2M55 23h3M6 24h4M26 24h2M53 24h4M7 25h5M26 25h2M50 25h6M8 26h7M47 26h7M10 27h11M42 27h9M13 28h35M19 29h24" />
<path stroke="#acac9c" d="M36 5h5M30 6h14M26 7h21M21 8h28M16 9h27M45 9h6M13 10h11M26 10h17M45 10h8M11 11h13M26 11h11M39 11h15M9 12h28M39 12h16M8 13h48M8 14h6M16 14h9M27 14h25M54 14h2M7 15h7M16 15h9M27 15h21M50 15h2M54 15h2M7 16h2M11 16h37M50 16h7M6 17h3M11 17h46M6 18h51M6 19h37M45 19h12M6 20h37M45 20h11M7 21h7M16 21h14M32 21h24M7 22h7M16 22h4M22 22h8M32 22h6M40 22h16M8 23h12M22 23h16M40 23h15M10 24h16M28 24h25M12 25h14M28 25h22M15 26h32M21 27h21" />
<path stroke="#d5d5c5" d="M37 11h2M37 12h2M48 15h2M48 16h2M30 21h2M20 22h2M30 22h2M20 23h2" />
<path stroke="#c5c5b4" d="M14 14h2M25 14h2M14 15h2M25 15h2M43 19h2M43 20h2" />
</svg>