<svg xmlns="http://www.w3.org/2000/svg" viewBox="0 -0.5 64 64" shape-rendering="crispEdges">
<metadata>Made with Pixels to Svg https://codepen.io/shshaw/pen/XbxvNj</metadata>
<path stroke="#9c9483" d="M19 1h1M24 1h1M32 1h1M44 1h1M18 2h1M47 2h1M49 3h1M56 5h1M62 8h1M10 23h1M9 25h1M6 30h1M62 31h1M61 35h1M60 38h1M1 39h1M57 42h1M56 43h1M52 44h1M50 45h1M1 51h1M43 51h1M41 52h1M38 53h1M34 54h1M8 58h1M11 59h1M15 61h1M19 61h1" />
<path stroke="#73625a" d="M20 1h4M33 1h11M19 2h28M18 3h2M24 3h9M44 3h5M18 4h2M47 4h5M17 5h3M49 5h7M17 6h2M51 6h8M17 7h2M56 7h6M17 8h2M58 8h4M17 9h2M61 9h2M17 10h2M61 10h2M17 11h2M61 11h2M17 12h2M61 12h2M16 13h3M61 13h2M16 14h2M61 14h2M16 15h2M61 15h2M15 16h3M61 16h2M14 17h3M61 17h2M13 18h3M61 18h2M13 19h2M61 19h2M12 20h3M61 20h2M12 21h2M61 21h2M11 22h3M61 22h2M11 23h2M61 23h2M10 24h2M61 24h2M10 25h2M61 25h2M9 26h2M61 26h2M8 27h3M61 27h2M8 28h2M61 28h2M7 29h3M61 29h2M7 30h2M61 30h2M6 31h2M60 31h2M5 32h3M60 32h2M4 33h3M60 33h2M4 34h2M60 34h2M3 35h3M59 35h2M3 36h2M59 36h2M2 37h3M59 37h2M2 38h2M58 38h2M2 39h2M57 39h3M1 40h2M56 40h3M1 41h2M56 41h2M1 42h2M52 42h5M1 43h2M50 43h6M1 44h2M47 44h5M1 45h2M47 45h3M1 46h2M46 46h3M1 47h2M45 47h3M1 48h2M44 48h3M1 49h2M43 49h3M1 50h2M40 50h5M2 51h2M39 51h4M2 52h3M34 52h7M3 53h3M31 53h7M4 54h3M29 54h5M5 55h3M27 55h5M6 56h3M25 56h5M7 57h5M23 57h5M9 58h5M21 58h5M12 59h4M19 59h5M13 60h9M16 61h3" />
<path stroke="#dec594" d="M20 3h4M20 4h1M20 5h1M19 6h2M19 7h1M55 7h1M19 8h1M56 8h2M57 9h4M60 10h1M60 11h1M60 12h1M60 13h1M60 14h1M60 15h1M10 28h1M10 29h1M9 30h2M8 31h2M8 32h1M7 33h2M6 34h2M59 34h1M6 35h1M5 36h2M58 36h1M5 37h1M58 37h1M4 38h2M57 38h1M4 39h1M56 39h1M3 40h2M55 40h1M3 41h1M54 41h2M3 42h1M3 43h1M3 44h1M3 45h1M45 45h2M3 46h1M44 46h2M3 47h1M43 47h2M3 48h1M42 48h2M3 49h1M39 49h4M3 50h2M38 50h2M4 51h2M33 51h6M5 52h2M30 52h4M6 53h2M28 53h3M7 54h2M26 54h3M8 55h2M24 55h3M9 56h4M22 56h3M12 57h3M20 57h3M14 58h3M18 58h3M16 59h3" />
<path stroke="#ac946a" d="M33 3h11M30 4h4M43 4h4M27 5h5M46 5h3M25 6h9M40 6h1M48 6h3M24 7h2M31 7h4M50 7h2M23 8h2M33 8h3M50 8h3M22 9h2M34 9h3M51 9h3M21 10h2M35 10h3M51 10h4M20 11h2M36 11h2M51 11h2M54 11h2M19 12h2M36 12h3M51 12h2M55 12h1M19 13h1M37 13h2M40 13h1M51 13h2M55 13h2M18 14h1M37 14h2M51 14h2M56 14h1M22 15h1M37 15h2M51 15h2M56 15h2M37 16h2M50 16h3M57 16h1M37 17h2M50 17h2M54 17h1M57 17h2M16 18h1M35 18h10M49 18h3M58 18h1M15 19h11M33 19h3M44 19h3M48 19h3M58 19h1M15 20h13M32 20h2M37 20h6M46 20h4M58 20h1M14 21h4M25 21h4M31 21h2M35 21h2M43 21h2M47 21h2M58 21h1M14 22h2M27 22h3M31 22h1M34 22h1M45 22h1M48 22h1M53 22h1M58 22h1M14 23h1M28 23h4M33 23h1M46 23h1M48 23h2M58 23h1M13 24h2M29 24h2M33 24h1M49 24h1M58 24h1M13 25h1M30 25h1M32 25h1M38 25h5M47 25h1M49 25h1M58 25h1M13 26h1M17 26h1M29 26h2M32 26h1M37 26h1M42 26h2M47 26h1M49 26h1M55 26h1M58 26h1M13 27h1M29 27h1M32 27h1M36 27h1M39 27h2M43 27h1M47 27h1M49 27h1M57 27h2M13 28h1M23 28h1M29 28h1M31 28h1M36 28h1M38 28h4M43 28h1M47 28h1M49 28h1M55 28h4M13 29h1M29 29h1M31 29h1M36 29h1M38 29h1M43 29h1M47 29h1M49 29h10M13 30h1M29 30h1M31 30h1M36 30h1M38 30h1M40 30h1M43 30h1M46 30h1M49 30h7M57 30h1M13 31h1M29 31h1M31 31h1M33 31h1M36 31h1M39 31h2M45 31h2M48 31h2M57 31h1M13 32h1M29 32h1M31 32h1M36 32h2M40 32h5M48 32h1M56 32h2M13 33h1M18 33h1M29 33h1M31 33h1M37 33h2M46 33h3M56 33h1M13 34h1M29 34h1M31 34h1M38 34h9M55 34h2M13 35h2M21 35h1M29 35h1M31 35h2M44 35h2M55 35h1M11 36h1M14 36h1M25 36h1M29 36h1M32 36h2M44 36h2M54 36h2M14 37h1M28 37h2M32 37h2M44 37h2M53 37h2M9 38h1M14 38h2M27 38h2M33 38h2M44 38h2M52 38h2M12 39h1M15 39h1M26 39h2M31 39h1M34 39h2M44 39h3M50 39h3M15 40h2M24 40h3M35 40h3M45 40h2M48 40h3M13 41h1M16 41h2M22 41h3M37 41h4M45 41h4M17 42h6M27 42h1M34 42h1M40 42h6M18 43h2M25 43h1M36 43h1M10 44h1M23 44h1M39 44h1M20 45h1M34 45h1M26 46h1M16 47h1M31 49h1M7 50h1M13 52h1M21 52h1" />
<path stroke="#bda473" d="M21 4h3M34 4h9M21 5h2M32 5h14M21 6h1M34 6h6M41 6h7M20 7h1M26 7h5M35 7h5M41 7h9M25 8h8M36 8h14M24 9h10M37 9h14M23 10h12M38 10h13M58 10h2M22 11h14M38 11h13M53 11h1M58 11h2M21 12h15M39 12h12M53 12h2M59 12h1M20 13h8M29 13h8M39 13h1M41 13h10M53 13h2M59 13h1M19 14h18M39 14h12M53 14h3M18 15h4M23 15h14M39 15h7M47 15h4M53 15h3M18 16h19M39 16h11M53 16h4M17 17h20M39 17h11M52 17h2M55 17h2M17 18h18M45 18h4M52 18h6M26 19h7M47 19h1M51 19h7M28 20h4M50 20h8M18 21h7M29 21h2M37 21h6M49 21h9M16 22h11M30 22h1M35 22h10M49 22h3M54 22h4M15 23h13M34 23h12M50 23h8M15 24h14M34 24h13M50 24h8M14 25h16M33 25h5M43 25h4M50 25h8M14 26h2M18 26h11M33 26h4M44 26h3M50 26h5M56 26h2M14 27h15M33 27h3M44 27h3M50 27h7M14 28h9M24 28h5M32 28h4M44 28h3M50 28h5M14 29h15M32 29h4M39 29h2M44 29h3M14 30h15M32 30h4M39 30h1M44 30h2M56 30h1M10 31h1M14 31h15M32 31h1M34 31h2M41 31h4M50 31h7M9 32h2M14 32h15M32 32h4M49 32h7M9 33h2M14 33h4M19 33h10M32 33h5M49 33h7M8 34h3M14 34h15M32 34h6M47 34h8M7 35h4M15 35h6M22 35h7M33 35h11M46 35h9M7 36h4M15 36h10M26 36h3M34 36h10M46 36h8M6 37h6M15 37h13M34 37h10M46 37h7M6 38h3M10 38h2M16 38h11M35 38h6M42 38h2M46 38h3M50 38h2M5 39h7M16 39h10M36 39h8M47 39h3M5 40h8M17 40h7M30 40h2M38 40h7M47 40h1M4 41h9M18 41h4M29 41h4M41 41h4M4 42h10M28 42h6M4 43h11M26 43h10M4 44h5M11 44h5M24 44h15M4 45h13M21 45h13M35 45h10M4 46h21M27 46h17M4 47h12M17 47h26M4 48h38M4 49h27M33 49h6M5 50h2M8 50h30M6 51h27M7 52h6M15 52h6M22 52h8M8 53h20M9 54h17M10 55h14M13 56h9M15 57h5M17 58h1" />
<path stroke="#947b62" d="M24 4h6M23 5h4M22 6h3M21 7h3M40 7h1M52 7h3M20 8h3M53 8h3M19 9h3M54 9h3M19 10h2M55 10h3M19 11h1M56 11h2M56 12h3M28 13h1M57 13h2M57 14h3M46 15h1M58 15h2M58 16h3M59 17h2M59 18h2M36 19h8M59 19h2M34 20h3M43 20h3M59 20h2M33 21h2M45 21h2M59 21h2M32 22h2M46 22h2M52 22h1M59 22h2M13 23h1M32 23h1M47 23h1M59 23h2M12 24h1M31 24h2M47 24h2M59 24h2M12 25h1M31 25h1M48 25h1M59 25h2M11 26h2M16 26h1M31 26h1M38 26h4M48 26h1M59 26h2M11 27h2M30 27h2M37 27h2M41 27h2M48 27h1M59 27h2M11 28h2M30 28h1M37 28h1M42 28h1M48 28h1M59 28h2M11 29h2M30 29h1M37 29h1M41 29h2M48 29h1M59 29h2M11 30h2M30 30h1M37 30h1M41 30h2M47 30h2M58 30h3M11 31h2M30 31h1M37 31h2M47 31h1M58 31h2M11 32h2M30 32h1M38 32h2M45 32h3M58 32h2M11 33h2M30 33h1M39 33h7M57 33h3M11 34h2M30 34h1M57 34h2M11 35h2M30 35h1M56 35h3M12 36h2M30 36h2M56 36h2M12 37h2M30 37h2M55 37h3M12 38h2M29 38h4M41 38h1M49 38h1M54 38h3M13 39h2M28 39h3M32 39h2M53 39h3M13 40h2M27 40h3M32 40h3M51 40h4M14 41h2M25 41h4M33 41h4M49 41h5M14 42h3M23 42h4M35 42h5M46 42h6M15 43h3M20 43h5M37 43h13M9 44h1M16 44h7M40 44h7M17 45h3M25 46h1M32 49h1M14 52h1" />
</svg>