<svg xmlns="http://www.w3.org/2000/svg" viewBox="0 -0.5 64 64" shape-rendering="crispEdges">
<metadata>Made with Pixels to Svg https://codepen.io/shshaw/pen/XbxvNj</metadata>
<path stroke="#73625a" d="M25 4h4M33 4h6M22 5h8M32 5h10M19 6h7M28 6h7M38 6h7M16 7h7M29 7h5M41 7h7M15 8h5M30 8h3M44 8h5M14 9h3M30 9h3M47 9h3M14 10h2M31 10h3M48 10h2M13 11h3M31 11h4M48 11h3M13 12h2M32 12h3M49 12h2M13 13h2M32 13h3M49 13h2M12 14h3M31 14h3M49 14h3M12 15h2M31 15h3M50 15h2M12 16h2M30 16h3M50 16h2M12 17h2M30 17h3M50 17h2M11 18h3M30 18h2M50 18h3M11 19h2M29 19h3M51 19h2M11 20h2M29 20h2M51 20h2M11 21h2M28 21h3M51 21h2M10 22h3M28 22h3M51 22h3M10 23h2M28 23h2M52 23h2M10 24h2M27 24h3M52 24h2M10 25h2M27 25h2M52 25h2M9 26h3M19 26h3M26 26h3M42 26h3M52 26h3M9 27h2M18 27h5M26 27h4M41 27h5M53 27h2M9 28h2M18 28h5M27 28h4M41 28h5M53 28h2M9 29h2M18 29h5M28 29h5M41 29h5M53 29h2M8 30h3M19 30h3M29 30h5M42 30h3M53 30h3M8 31h2M29 31h5M54 31h2M8 32h2M28 32h7M54 32h2M8 33h2M27 33h9M54 33h2M7 34h3M26 34h4M33 34h4M54 34h3M7 35h2M25 35h4M34 35h4M55 35h2M7 36h2M20 36h8M35 36h8M55 36h2M7 37h2M19 37h8M36 37h8M55 37h2M6 38h3M19 38h7M37 38h7M55 38h3M6 39h2M19 39h2M42 39h2M56 39h2M6 40h2M19 40h2M42 40h2M56 40h2M6 41h2M18 41h3M42 41h3M56 41h2M5 42h3M18 42h2M43 42h2M56 42h3M5 43h2M18 43h2M43 43h2M57 43h2M5 44h2M18 44h2M43 44h2M57 44h2M5 45h2M19 45h1M43 45h1M57 45h2M5 46h2M57 46h2M5 47h2M57 47h2M5 48h2M57 48h2M5 49h3M56 49h3M6 50h2M56 50h2M6 51h3M55 51h3M7 52h3M54 52h3M8 53h3M53 53h3M9 54h2M53 54h2M9 55h3M52 55h3M10 56h3M51 56h3M11 57h3M50 57h3M12 58h4M48 58h4M13 59h7M44 59h7M15 60h10M39 60h10M19 61h26M24 62h16" />
<path stroke="#948b7b" d="M26 6h2M35 6h3M23 7h6M34 7h7M20 8h7M29 8h1M33 8h1M37 8h7M17 9h7M33 9h1M40 9h7M16 10h5M30 10h1M43 10h5M16 11h2M46 11h2M15 12h3M31 12h1M46 12h3M15 13h2M47 13h2M15 14h2M34 14h1M47 14h2M14 15h3M30 15h1M47 15h3M14 16h2M48 16h2M14 17h2M48 17h2M14 18h2M29 18h1M32 18h1M48 18h2M13 19h3M48 19h3M13 20h2M28 20h1M31 20h1M49 20h2M13 21h2M49 21h2M13 22h2M49 22h2M12 23h3M27 23h1M30 23h1M49 23h3M12 24h2M50 24h2M12 25h2M26 25h1M29 25h1M50 25h2M12 26h2M29 26h1M50 26h2M11 27h3M50 27h3M11 28h2M31 28h1M51 28h2M11 29h2M33 29h1M51 29h2M11 30h2M51 30h2M10 31h3M28 31h1M34 31h1M51 31h3M10 32h2M52 32h2M10 33h2M52 33h2M10 34h2M30 34h3M52 34h2M9 35h3M24 35h1M38 35h1M52 35h3M9 36h2M19 36h1M43 36h1M53 36h2M9 37h2M53 37h2M9 38h2M26 38h1M36 38h1M53 38h2M8 39h3M53 39h3M8 40h2M18 40h1M44 40h1M54 40h2M8 41h2M54 41h2M8 42h2M20 42h1M42 42h1M54 42h2M7 43h3M54 43h3M7 44h2M55 44h2M7 45h2M18 45h1M44 45h1M55 45h2M7 46h2M55 46h2M7 47h2M55 47h2M8 48h2M54 48h2M8 49h4M52 49h4M8 50h7M49 50h7M9 51h10M45 51h10M10 52h44M11 53h42M12 54h40M12 55h40M13 56h38M15 57h35M16 58h31M20 59h24M25 60h14" />
<path stroke="#aca48b" d="M27 8h2M34 8h3M24 9h6M34 9h6M21 10h9M34 10h9M18 11h13M35 11h11M18 12h13M35 12h11M17 13h15M35 13h12M17 14h14M35 14h12M17 15h13M34 15h13M16 16h14M33 16h15M16 17h14M33 17h15M16 18h13M33 18h15M16 19h13M32 19h16M15 20h13M32 20h17M15 21h13M31 21h18M15 22h13M31 22h18M15 23h12M31 23h18M14 24h13M30 24h20M14 25h12M30 25h20M14 26h5M22 26h4M30 26h12M45 26h5M14 27h4M23 27h3M30 27h11M46 27h4M13 28h5M23 28h4M32 28h9M46 28h5M13 29h5M23 29h5M34 29h7M46 29h5M13 30h6M22 30h7M34 30h8M45 30h6M13 31h15M35 31h16M12 32h16M35 32h17M12 33h15M36 33h16M12 34h14M37 34h15M12 35h12M29 35h5M39 35h13M11 36h8M28 36h7M44 36h9M11 37h8M27 37h9M44 37h9M11 38h8M27 38h9M44 38h9M11 39h8M21 39h21M44 39h9M10 40h8M21 40h21M45 40h9M10 41h8M21 41h21M45 41h9M10 42h8M21 42h21M45 42h9M10 43h8M20 43h23M45 43h9M9 44h9M20 44h23M45 44h10M9 45h9M20 45h23M45 45h10M9 46h46M9 47h46M10 48h44M12 49h40M15 50h34M19 51h26" />
<path stroke="#837b6a" d="M7 48h1M56 48h1M11 54h1M52 54h1M14 57h1M47 58h1" />
<path stroke="#9c9483" d="M8 54h1M55 54h1" />
</svg>