<svg xmlns="http://www.w3.org/2000/svg" viewBox="0 -0.5 48 48" shape-rendering="crispEdges">
<metadata>Made with Pixels to Svg https://codepen.io/shshaw/pen/XbxvNj</metadata>
<path stroke="#73625a" d="M20 2h8M18 3h12M16 4h5M27 4h5M15 5h4M29 5h4M14 6h3M31 6h3M13 7h3M32 7h3M12 8h3M33 8h3M11 9h3M34 9h3M11 10h2M35 10h2M10 11h2M36 11h2M9 12h3M36 12h3M9 13h2M37 13h2M8 14h2M38 14h2M7 15h3M38 15h3M7 16h2M39 16h2M6 17h3M39 17h3M6 18h2M40 18h2M6 19h2M40 19h2M5 20h3M40 20h3M5 21h2M41 21h2M5 22h2M41 22h2M4 23h3M41 23h3M4 24h2M42 24h2M4 25h2M42 25h2M4 26h2M42 26h2M4 27h2M42 27h2M4 28h2M42 28h2M4 29h2M42 29h2M4 30h2M42 30h2M5 31h2M41 31h2M5 32h2M41 32h2M5 33h2M41 33h2M6 34h2M40 34h2M6 35h2M40 35h2M6 36h3M39 36h3M7 37h2M39 37h2M7 38h3M38 38h3M8 39h3M37 39h3M9 40h3M36 40h3M10 41h3M35 41h3M11 42h4M33 42h4M13 43h4M31 43h4M14 44h6M28 44h6M17 45h14M20 46h8" />
<path stroke="#b4ac9c" d="M21 4h6M19 5h10M17 6h4M27 6h4M16 7h3M29 7h3M15 8h2M31 8h2M14 9h2M32 9h2M13 10h2M33 10h2M13 11h1M34 11h1M12 12h2M34 12h2M11 13h2M35 13h2M10 14h3M35 14h3M10 15h2M36 15h2M9 16h3M36 16h3M9 17h2M37 17h2M8 18h3M37 18h3M8 19h2M38 19h2M8 20h2M38 20h2M7 21h3M38 21h3M7 22h2M39 22h2M7 23h2M39 23h2M7 24h2M39 24h2M6 25h3M39 25h3M6 26h3M39 26h3M6 27h3M39 27h3M6 28h3M39 28h3M6 29h4M38 29h4M7 30h3M38 30h3M7 31h3M37 31h4M7 32h2M10 32h1M37 32h4M7 33h3M36 33h5M8 34h1M10 34h1M35 34h5M8 35h2M11 35h1M13 35h1M34 35h6M9 36h2M12 36h1M14 36h1M33 36h6M9 37h1M11 37h1M13 37h1M15 37h2M31 37h8M10 38h1M12 38h1M14 38h6M28 38h10M11 39h26M12 40h24M13 41h22M15 42h18M18 43h12M21 44h6" />
<path stroke="#cdc5b4" d="M21 6h6M19 7h10M17 8h14M16 9h4M22 9h10M15 10h3M23 10h10M14 11h3M23 11h11M14 12h2M24 12h10M13 13h3M24 13h11M13 14h2M24 14h11M12 15h3M24 15h12M12 16h3M24 16h12M11 17h4M23 17h14M11 18h5M23 18h14M10 19h6M22 19h16M10 20h7M21 20h17M10 21h28M9 22h30M9 23h20M31 23h8M9 24h19M32 24h7M9 25h19M32 25h7M9 26h20M31 26h8M9 27h30M9 28h30M10 29h28M10 30h28M10 31h27M9 32h1M11 32h26M10 33h26M9 34h1M11 34h24M10 35h1M12 35h1M14 35h20M11 36h1M13 36h1M15 36h18M10 37h1M12 37h1M14 37h1M17 37h14M11 38h1M13 38h1M20 38h8" />
<path stroke="#e6decd" d="M20 9h2M18 10h5M17 11h6M16 12h8M16 13h8M15 14h9M15 15h9M15 16h9M15 17h8M16 18h7M16 19h6M17 20h4M29 23h2M28 24h4M28 25h4M29 26h2" />
<path stroke="#9c9483" d="M10 10h1M37 10h1M12 11h1M35 11h1M8 13h1M39 13h1M5 19h1M42 19h1M4 22h1M43 22h1M6 24h1M41 24h1M6 30h1M41 30h1M4 31h1M43 31h1M5 34h1M42 34h1M12 43h1M17 43h1M30 43h1M35 43h1M20 44h1M27 44h1M16 45h1M31 45h1M19 46h1M28 46h1" />
</svg>