<svg xmlns="http://www.w3.org/2000/svg" viewBox="0 -0.5 48 48" shape-rendering="crispEdges">
<metadata>Made with Pixels to Svg https://codepen.io/shshaw/pen/XbxvNj</metadata>
<path stroke="#73625a" d="M5 2h39M4 3h40M3 4h3M42 4h2M2 5h3M42 5h2M2 6h2M42 6h2M2 7h2M42 7h2M2 8h2M41 8h3M2 9h2M41 9h2M2 10h2M41 10h2M2 11h2M40 11h3M2 12h2M19 12h1M40 12h2M2 13h2M20 13h2M36 13h6M2 14h2M20 14h3M31 14h10M2 15h2M21 15h3M27 15h10M2 16h2M20 16h12M2 17h2M19 17h10M2 18h2M18 18h3M27 18h2M2 19h2M18 19h2M27 19h2M2 20h2M17 20h1M27 20h2M2 21h2M27 21h2M2 22h2M27 22h2M2 23h2M27 23h2M2 24h2M27 24h3M2 25h2M28 25h2M2 26h2M28 26h2M2 27h2M28 27h2M2 28h2M28 28h3M2 29h2M29 29h2M2 30h2M29 30h2M2 31h2M29 31h2M2 32h2M29 32h3M2 33h2M30 33h3M2 34h2M31 34h3M2 35h2M32 35h3M2 36h2M33 36h3M2 37h2M34 37h4M2 38h2M35 38h4M2 39h2M37 39h3M2 40h2M38 40h3M2 41h2M39 41h3M2 42h3M40 42h2M3 43h3M40 43h2M4 44h38M5 45h37" />
<path stroke="#de5241" d="M6 4h36M5 5h37M4 6h3M40 6h2M4 7h2M40 7h2M4 8h2M40 8h1M4 9h2M37 9h1M39 9h2M4 10h2M36 10h1M38 10h3M4 11h2M18 11h2M35 11h1M37 11h1M39 11h1M4 12h2M18 12h1M20 12h2M35 12h5M4 13h2M19 13h1M22 13h1M30 13h6M4 14h2M19 14h1M23 14h1M26 14h5M4 15h2M20 15h1M24 15h3M4 16h1M6 16h1M19 16h1M4 17h2M7 17h1M18 17h1M4 18h1M6 18h1M17 18h1M21 18h6M4 19h2M7 19h1M17 19h1M20 19h1M26 19h1M4 20h1M6 20h1M16 20h1M18 20h2M26 20h1M4 21h2M16 21h2M26 21h1M4 22h3M26 22h1M4 23h2M26 23h1M4 24h2M26 24h1M4 25h2M26 25h2M4 26h2M27 26h1M4 27h2M27 27h1M4 28h2M27 28h1M4 29h2M27 29h2M4 30h2M28 30h1M4 31h2M28 31h1M4 32h2M28 32h1M4 33h2M28 33h2M4 34h2M29 34h2M4 35h2M30 35h2M4 36h2M31 36h2M4 37h2M30 37h1M32 37h2M4 38h2M29 38h1M31 38h1M33 38h2M4 39h2M30 39h1M32 39h1M34 39h3M4 40h2M31 40h1M33 40h1M35 40h3M4 41h3M34 41h5M5 42h35M6 43h34" />
<path stroke="#ff7362" d="M7 6h33M6 7h2M39 7h1M6 8h1M9 8h31M6 9h1M8 9h29M38 9h1M6 10h30M37 10h1M6 11h12M20 11h15M36 11h1M38 11h1M6 12h12M22 12h13M6 13h13M23 13h7M6 14h13M24 14h2M6 15h14M5 16h1M7 16h12M6 17h1M8 17h10M5 18h1M7 18h10M6 19h1M8 19h9M21 19h5M5 20h1M7 20h9M20 20h6M6 21h10M18 21h8M7 22h19M6 23h20M6 24h20M6 25h20M6 26h21M6 27h21M6 28h21M6 29h21M6 30h22M6 31h22M6 32h22M6 33h22M6 34h23M6 35h24M6 36h25M6 37h24M31 37h1M6 38h1M8 38h21M30 38h1M32 38h1M6 39h1M9 39h21M31 39h1M33 39h1M6 40h2M29 40h2M32 40h1M34 40h1M7 41h27" />
<path stroke="#ffb4a4" d="M8 7h1M7 8h1M7 39h1M8 40h1" />
<path stroke="#ff9c8b" d="M9 7h30M8 8h1M7 9h1M7 38h1M8 39h1M9 40h20" />
</svg>