<svg xmlns="http://www.w3.org/2000/svg" viewBox="0 -0.5 16 64" shape-rendering="crispEdges">
<metadata>Made with Pixels to Svg https://codepen.io/shshaw/pen/XbxvNj</metadata>
<path stroke="#8b8b8b" d="M2 0h1M13 0h1M0 2h1M15 2h1M4 3h8M3 4h10M3 5h2M7 5h6M3 6h2M7 6h4M3 7h8M3 8h10M3 9h10M3 10h10M3 11h5M9 11h4M3 12h5M9 12h4M3 13h10M3 14h10M3 15h10M3 16h10M3 17h10M3 18h10M3 19h10M3 20h3M8 20h5M3 21h3M8 21h5M3 22h10M3 23h10M3 24h10M3 25h10M3 26h7M11 26h2M3 27h7M11 27h2M3 28h1M5 28h8M3 29h1M5 29h8M3 30h10M3 31h1M6 31h7M3 32h1M6 32h4M12 32h1M3 33h7M12 33h1M3 34h10M3 35h10M3 36h10M3 37h3M7 37h6M3 38h3M7 38h6M3 39h10M3 40h10M3 41h10M3 42h5M10 42h3M3 43h5M10 43h3M3 44h10M3 45h10M3 46h10M3 47h10M4 48h6M12 48h1M4 49h6M12 49h1M3 50h10M3 51h10M3 52h10M3 53h2M6 53h7M3 54h2M6 54h7M3 55h10M3 56h10M3 57h10M3 58h5M10 58h3M3 59h5M10 59h3M4 60h8M0 61h1M15 61h1M2 63h1M13 63h1" />
<path stroke="#73625a" d="M3 0h10M1 1h14M1 2h2M13 2h2M0 3h2M14 3h2M0 4h2M14 4h2M0 5h2M14 5h2M0 6h2M14 6h2M0 7h2M14 7h2M0 8h2M14 8h2M0 9h2M14 9h2M0 10h2M14 10h2M0 11h2M14 11h2M0 12h2M14 12h2M0 13h2M14 13h2M0 14h2M14 14h2M0 15h2M14 15h2M0 16h2M14 16h2M0 17h2M14 17h2M0 18h2M14 18h2M0 19h2M14 19h2M0 20h2M14 20h2M0 21h2M14 21h2M0 22h2M14 22h2M0 23h2M14 23h2M0 24h2M14 24h2M0 25h2M14 25h2M0 26h2M14 26h2M0 27h2M14 27h2M0 28h2M14 28h2M0 29h2M14 29h2M0 30h2M14 30h2M0 31h2M14 31h2M0 32h2M14 32h2M0 33h2M14 33h2M0 34h2M14 34h2M0 35h2M14 35h2M0 36h2M14 36h2M0 37h2M14 37h2M0 38h2M14 38h2M0 39h2M14 39h2M0 40h2M14 40h2M0 41h2M14 41h2M0 42h2M14 42h2M0 43h2M14 43h2M0 44h2M14 44h2M0 45h2M14 45h2M0 46h2M14 46h2M0 47h2M14 47h2M0 48h2M14 48h2M0 49h2M14 49h2M0 50h2M14 50h2M0 51h2M14 51h2M0 52h2M14 52h2M0 53h2M14 53h2M0 54h2M14 54h2M0 55h2M14 55h2M0 56h2M14 56h2M0 57h2M14 57h2M0 58h2M14 58h2M0 59h2M14 59h2M0 60h2M14 60h2M1 61h2M13 61h2M1 62h14M3 63h10" />
<path stroke="#7b7b7b" d="M3 2h10M2 3h2M12 3h2M2 4h1M13 4h1M2 5h1M5 5h2M13 5h1M2 6h1M5 6h2M11 6h3M2 7h1M11 7h3M2 8h1M13 8h1M2 9h1M13 9h1M2 10h1M13 10h1M2 11h1M13 11h1M2 12h1M13 12h1M2 13h1M13 13h1M2 14h1M13 14h1M2 15h1M13 15h1M2 16h1M13 16h1M2 17h1M13 17h1M2 18h1M13 18h1M2 19h1M13 19h1M2 20h1M6 20h2M13 20h1M2 21h1M6 21h2M13 21h1M2 22h1M13 22h1M2 23h1M13 23h1M2 24h1M13 24h1M2 25h1M13 25h1M2 26h1M13 26h1M2 27h1M13 27h1M2 28h1M13 28h1M2 29h1M13 29h1M2 30h1M13 30h1M2 31h1M4 31h2M13 31h1M2 32h1M4 32h2M10 32h2M13 32h1M2 33h1M10 33h2M13 33h1M2 34h1M13 34h1M2 35h1M13 35h1M2 36h1M13 36h1M2 37h1M13 37h1M2 38h1M13 38h1M2 39h1M13 39h1M2 40h1M13 40h1M2 41h1M13 41h1M2 42h1M8 42h2M13 42h1M2 43h1M8 43h2M13 43h1M2 44h1M13 44h1M2 45h1M13 45h1M2 46h1M13 46h1M2 47h1M13 47h1M2 48h2M10 48h2M13 48h1M2 49h2M10 49h2M13 49h1M2 50h1M13 50h1M2 51h1M13 51h1M2 52h1M13 52h1M2 53h1M13 53h1M2 54h1M13 54h1M2 55h1M13 55h1M2 56h1M13 56h1M2 57h1M13 57h1M2 58h1M8 58h2M13 58h1M2 59h1M8 59h2M13 59h1M2 60h2M12 60h2M3 61h10" />
<path stroke="#a4a48b" d="M8 11h1M8 12h1M10 26h1M10 27h1M4 28h1M4 29h1M6 37h1M6 38h1M5 53h1M5 54h1" />
</svg>