<svg xmlns="http://www.w3.org/2000/svg" viewBox="0 -0.5 32 64" shape-rendering="crispEdges">
<metadata>Made with Pixels to Svg https://codepen.io/shshaw/pen/XbxvNj</metadata>
<path stroke="#8b8b8b" d="M2 0h1M29 0h1M0 2h1M31 2h1M4 3h24M3 4h26M3 5h2M7 5h22M3 6h2M7 6h14M23 6h6M3 7h26M4 8h25M3 9h26M3 10h22M27 10h2M3 11h22M27 11h2M5 12h24M3 13h26M3 14h26M3 15h2M7 15h22M3 16h2M7 16h22M3 17h26M3 18h26M3 19h15M20 19h9M4 20h14M20 20h9M4 21h25M3 22h18M23 22h6M3 23h26M3 24h26M3 25h26M3 26h22M27 26h2M3 27h9M14 27h11M27 27h2M3 28h9M14 28h15M3 29h26M3 30h26M3 31h26M3 32h26M3 33h26M3 34h26M3 35h15M20 35h9M3 36h2M7 36h11M20 36h8M3 37h2M7 37h21M3 38h18M23 38h6M3 39h26M3 40h26M3 41h26M3 42h26M3 43h26M3 44h24M3 45h26M3 46h26M3 47h22M27 47h2M3 48h22M27 48h2M3 49h9M14 49h15M3 50h3M8 50h4M14 50h15M3 51h26M3 52h25M3 53h25M3 54h26M3 55h26M3 56h26M3 57h2M7 57h14M23 57h6M3 58h2M7 58h22M3 59h26M4 60h24M0 61h1M31 61h1M2 63h1M29 63h1" />
<path stroke="#73625a" d="M3 0h26M1 1h30M1 2h2M29 2h2M0 3h2M30 3h2M0 4h2M30 4h2M0 5h2M30 5h2M0 6h2M30 6h2M0 7h2M30 7h2M0 8h2M30 8h2M0 9h2M30 9h2M0 10h2M30 10h2M0 11h2M30 11h2M0 12h2M30 12h2M0 13h2M30 13h2M0 14h2M30 14h2M0 15h2M30 15h2M0 16h2M30 16h2M0 17h2M30 17h2M0 18h2M30 18h2M0 19h2M30 19h2M0 20h2M30 20h2M0 21h2M30 21h2M0 22h2M30 22h2M0 23h2M30 23h2M0 24h2M30 24h2M0 25h2M30 25h2M0 26h2M30 26h2M0 27h2M30 27h2M0 28h2M30 28h2M0 29h2M30 29h2M0 30h2M30 30h2M0 31h2M30 31h2M0 32h2M30 32h2M0 33h2M30 33h2M0 34h2M30 34h2M0 35h2M30 35h2M0 36h2M30 36h2M0 37h2M30 37h2M0 38h2M30 38h2M0 39h2M30 39h2M0 40h2M30 40h2M0 41h2M30 41h2M0 42h2M30 42h2M0 43h2M30 43h2M0 44h2M30 44h2M0 45h2M30 45h2M0 46h2M30 46h2M0 47h2M30 47h2M0 48h2M30 48h2M0 49h2M30 49h2M0 50h2M30 50h2M0 51h2M30 51h2M0 52h2M30 52h2M0 53h2M30 53h2M0 54h2M30 54h2M0 55h2M30 55h2M0 56h2M30 56h2M0 57h2M30 57h2M0 58h2M30 58h2M0 59h2M30 59h2M0 60h2M30 60h2M1 61h2M29 61h2M1 62h30M3 63h26" />
<path stroke="#7b7b7b" d="M3 2h26M2 3h2M28 3h2M2 4h1M29 4h1M2 5h1M5 5h2M29 5h1M2 6h1M5 6h2M29 6h1M2 7h1M29 7h1M2 8h2M29 8h1M2 9h1M29 9h1M2 10h1M25 10h2M29 10h1M2 11h1M25 11h2M29 11h1M2 12h1M29 12h1M2 13h1M29 13h1M2 14h1M29 14h1M2 15h1M5 15h2M29 15h1M2 16h1M5 16h2M29 16h1M2 17h1M29 17h1M2 18h1M29 18h1M2 19h1M18 19h2M29 19h1M2 20h2M18 20h2M29 20h1M2 21h2M29 21h1M2 22h1M29 22h1M2 23h1M29 23h1M2 24h1M29 24h1M2 25h1M29 25h1M2 26h1M25 26h2M29 26h1M2 27h1M12 27h2M25 27h2M29 27h1M2 28h1M12 28h2M29 28h1M2 29h1M29 29h1M2 30h1M29 30h1M2 31h1M29 31h1M2 32h1M29 32h1M2 33h1M29 33h1M2 34h1M29 34h1M2 35h1M18 35h2M29 35h1M2 36h1M5 36h2M18 36h2M28 36h2M2 37h1M5 37h2M28 37h2M2 38h1M29 38h1M2 39h1M29 39h1M2 40h1M29 40h1M2 41h1M29 41h1M2 42h1M29 42h1M2 43h1M29 43h1M2 44h1M29 44h1M2 45h1M29 45h1M2 46h1M29 46h1M2 47h1M25 47h2M29 47h1M2 48h1M25 48h2M29 48h1M2 49h1M12 49h2M29 49h1M2 50h1M12 50h2M29 50h1M2 51h1M29 51h1M2 52h1M28 52h2M2 53h1M28 53h2M2 54h1M29 54h1M2 55h1M29 55h1M2 56h1M29 56h1M2 57h1M5 57h2M29 57h1M2 58h1M5 58h2M29 58h1M2 59h1M29 59h1M2 60h2M28 60h2M3 61h26" />
<path stroke="#a4a48b" d="M21 6h2M3 12h2M21 22h2M21 38h2M27 44h2M6 50h2M21 57h2" />
</svg>