<svg xmlns="http://www.w3.org/2000/svg" viewBox="0 -0.5 48 32" shape-rendering="crispEdges">
<metadata>Made with Pixels to Svg https://codepen.io/shshaw/pen/XbxvNj</metadata>
<path stroke="#8b8b8b" d="M2 0h1M29 0h1M0 2h1M31 2h1M4 3h2M8 3h20M3 4h3M8 4h21M3 5h26M3 6h15M20 6h6M28 6h1M3 7h8M13 7h5M20 7h6M28 7h1M3 8h26M3 9h2M7 9h22M3 10h2M7 10h22M3 11h26M4 12h25M0 13h1M18 13h9M19 14h8M2 15h1M19 15h10M19 16h10M45 16h1M19 17h10M19 18h2M23 18h7M47 18h1M19 19h5M26 19h18M19 20h5M26 20h19M19 21h26M19 22h15M36 22h6M44 22h1M19 23h15M36 23h6M44 23h1M19 24h26M19 25h2M23 25h22M19 26h2M23 26h14M39 26h6M19 27h26M20 28h12M34 28h10M16 29h1M47 29h1M18 31h1M45 31h1" />
<path stroke="#73625a" d="M3 0h26M1 1h30M1 2h2M29 2h2M0 3h2M30 3h2M0 4h2M30 4h2M0 5h2M30 5h2M0 6h2M30 6h2M0 7h2M30 7h2M0 8h2M30 8h2M0 9h2M30 9h2M0 10h2M30 10h2M0 11h2M30 11h2M0 12h2M30 12h2M1 13h2M30 13h2M1 14h16M30 14h2M3 15h15M30 15h2M16 16h2M30 16h15M16 17h2M31 17h16M16 18h2M45 18h2M16 19h2M46 19h2M16 20h2M46 20h2M16 21h2M46 21h2M16 22h2M46 22h2M16 23h2M46 23h2M16 24h2M46 24h2M16 25h2M46 25h2M16 26h2M46 26h2M16 27h2M46 27h2M16 28h2M46 28h2M17 29h2M45 29h2M17 30h30M19 31h26" />
<path stroke="#7b7b7b" d="M3 2h26M2 3h2M6 3h2M28 3h2M2 4h1M6 4h2M29 4h1M2 5h1M29 5h1M2 6h1M18 6h2M26 6h2M29 6h1M2 7h1M18 7h2M26 7h2M29 7h1M2 8h1M29 8h1M2 9h1M5 9h2M29 9h1M2 10h1M5 10h2M29 10h1M2 11h1M29 11h1M2 12h2M29 12h1M3 13h15M27 13h3M17 14h2M27 14h3M18 15h1M29 15h1M18 16h1M29 16h1M18 17h1M29 17h2M18 18h1M30 18h15M18 19h1M24 19h2M44 19h2M18 20h1M24 20h2M45 20h1M18 21h1M45 21h1M18 22h1M34 22h2M42 22h2M45 22h1M18 23h1M34 23h2M42 23h2M45 23h1M18 24h1M45 24h1M18 25h1M21 25h2M45 25h1M18 26h1M21 26h2M45 26h1M18 27h1M45 27h1M18 28h2M32 28h2M44 28h2M19 29h26" />
<path stroke="#a4a48b" d="M11 7h2M21 18h2M37 26h2" />
</svg>