<svg xmlns="http://www.w3.org/2000/svg" viewBox="0 -0.5 64 16" shape-rendering="crispEdges">
<metadata>Made with Pixels to Svg https://codepen.io/shshaw/pen/XbxvNj</metadata>
<path stroke="#8b8b8b" d="M2 0h1M61 0h1M0 2h1M63 2h1M4 3h2M8 3h52M3 4h3M8 4h24M34 4h14M50 4h11M3 5h23M28 5h4M34 5h14M50 5h11M3 6h39M44 6h14M60 6h1M3 7h8M13 7h29M44 7h14M60 7h1M3 8h17M22 8h39M3 9h2M7 9h13M22 9h15M39 9h22M3 10h2M7 10h24M33 10h20M55 10h6M3 11h25M30 11h1M33 11h28M4 12h44M50 12h10M0 13h1M63 13h1M2 15h1M61 15h1" />
<path stroke="#73625a" d="M3 0h58M1 1h62M1 2h2M61 2h2M0 3h2M62 3h2M0 4h2M62 4h2M0 5h2M62 5h2M0 6h2M62 6h2M0 7h2M62 7h2M0 8h2M62 8h2M0 9h2M62 9h2M0 10h2M62 10h2M0 11h2M62 11h2M0 12h2M62 12h2M1 13h2M61 13h2M1 14h62M3 15h58" />
<path stroke="#7b7b7b" d="M3 2h58M2 3h2M6 3h2M60 3h2M2 4h1M6 4h2M32 4h2M48 4h2M61 4h1M2 5h1M32 5h2M48 5h2M61 5h1M2 6h1M42 6h2M58 6h2M61 6h1M2 7h1M42 7h2M58 7h2M61 7h1M2 8h1M20 8h2M61 8h1M2 9h1M5 9h2M20 9h2M61 9h1M2 10h1M5 10h2M31 10h2M61 10h1M2 11h1M31 11h2M61 11h1M2 12h2M48 12h2M60 12h2M3 13h58" />
<path stroke="#a4a48b" d="M26 5h2M11 7h2M37 9h2M53 10h2M28 11h2" />
</svg>