<svg xmlns="http://www.w3.org/2000/svg" viewBox="0 -0.5 80 80" shape-rendering="crispEdges">
<metadata>Made with Pixels to Svg https://codepen.io/shshaw/pen/XbxvNj</metadata>
<path stroke="#73625a" d="M39 2h8M24 3h27M23 4h17M46 4h7M23 5h2M50 5h4M22 6h3M52 6h3M22 7h2M53 7h4M22 8h2M54 8h4M22 9h2M56 9h3M21 10h2M57 10h3M21 11h2M58 11h2M20 12h3M59 12h2M20 13h2M59 13h2M20 14h2M59 14h4M19 15h3M60 15h4M18 16h3M62 16h6M17 17h3M63 17h12M15 18h4M67 18h9M14 19h4M74 19h2M12 20h4M74 20h2M11 21h4M74 21h3M9 22h4M75 22h2M8 23h4M75 23h2M7 24h3M75 24h2M6 25h3M41 25h8M75 25h2M6 26h2M36 26h18M75 26h3M5 27h2M32 27h10M48 27h9M76 27h2M5 28h2M32 28h5M53 28h8M76 28h2M5 29h2M32 29h2M57 29h7M76 29h2M4 30h3M31 30h3M60 30h5M76 30h2M4 31h2M31 31h2M63 31h3M77 31h2M4 32h2M30 32h2M64 32h2M77 32h2M3 33h3M30 33h2M64 33h2M77 33h2M3 34h2M30 34h2M64 34h2M77 34h2M3 35h2M30 35h2M64 35h2M77 35h2M3 36h2M29 36h3M64 36h2M77 36h2M2 37h3M29 37h2M64 37h2M77 37h2M2 38h2M29 38h2M64 38h2M77 38h2M2 39h2M29 39h2M64 39h3M77 39h2M2 40h2M29 40h2M65 40h2M76 40h3M1 41h3M29 41h2M65 41h2M74 41h4M1 42h2M29 42h2M65 42h2M73 42h4M1 43h2M29 43h2M65 43h10M1 44h2M29 44h3M66 44h8M1 45h2M30 45h2M1 46h2M30 46h2M1 47h2M30 47h2M1 48h2M30 48h5M0 49h3M31 49h6M0 50h2M34 50h7M0 51h2M36 51h6M0 52h2M40 52h3M0 53h2M41 53h3M0 54h2M42 54h3M0 55h3M43 55h2M1 56h2M43 56h2M1 57h3M43 57h2M2 58h2M43 58h3M2 59h2M43 59h3M2 60h2M44 60h3M2 61h2M45 61h2M2 62h2M46 62h2M1 63h3M46 63h2M1 64h2M46 64h2M1 65h2M46 65h2M1 66h2M46 66h2M1 67h2M46 67h2M1 68h2M46 68h2M1 69h2M46 69h2M1 70h3M45 70h3M2 71h2M43 71h4M2 72h3M40 72h6M3 73h3M37 73h7M4 74h8M34 74h7M5 75h8M30 75h8M11 76h5M28 76h7M12 77h6M26 77h5M16 78h13M17 79h10" />
<path stroke="#dec594" d="M40 4h6M25 5h16M45 5h5M25 6h1M49 6h3M24 7h2M51 7h2M24 8h1M52 8h2M24 9h1M53 9h3M23 10h2M55 10h2M23 11h1M56 11h2M23 12h1M57 12h2M22 13h2M58 13h1M22 14h1M58 14h1M22 15h1M58 15h2M21 16h2M20 17h2M19 18h2M66 18h1M18 19h2M67 19h7M16 20h3M73 20h1M15 21h2M73 21h1M13 22h3M73 22h2M12 23h2M74 23h1M10 24h3M40 24h10M74 24h1M9 25h2M35 25h6M49 25h6M74 25h1M8 26h2M31 26h5M54 26h4M74 26h1M7 27h2M31 27h1M57 27h5M74 27h2M7 28h1M31 28h1M61 28h4M75 28h1M7 29h1M30 29h2M64 29h2M75 29h1M7 30h1M30 30h1M65 30h2M75 30h1M6 31h2M29 31h2M66 31h1M75 31h2M6 32h1M29 32h1M66 32h1M76 32h1M6 33h1M29 33h1M66 33h1M76 33h1M5 34h2M29 34h1M66 34h1M76 34h1M5 35h1M29 35h1M66 35h1M76 35h1M5 36h1M28 36h1M66 36h1M76 36h1M5 37h1M28 37h1M66 37h1M76 37h1M4 38h2M28 38h1M66 38h2M76 38h1M4 39h1M28 39h1M67 39h1M75 39h2M4 40h1M28 40h1M67 40h1M73 40h3M4 41h1M67 41h1M72 41h2M3 42h2M67 42h6M3 43h1M3 44h1M3 45h1M3 46h1M3 47h1M3 48h1M3 49h1M2 50h2M2 51h1M2 52h1M37 52h3M2 53h1M39 53h2M2 54h2M40 54h2M3 55h1M41 55h2M3 56h2M42 56h1M4 57h1M42 57h1M4 58h1M42 58h1M4 59h1M42 59h1M4 60h1M42 60h2M4 61h1M43 61h2M4 62h1M44 62h2M4 63h1M45 63h1M3 64h2M45 64h1M3 65h1M45 65h1M3 66h1M45 66h1M3 67h1M45 67h1M3 68h1M45 68h1M3 69h2M44 69h2M4 70h1M42 70h3M4 71h2M39 71h4M5 72h1M36 72h4M6 73h1M34 73h3M33 74h1M24 77h2" />
<path stroke="#bda473" d="M41 5h4M26 6h23M26 7h25M25 8h27M25 9h7M34 9h9M52 9h1M25 10h15M53 10h2M24 11h4M29 11h8M55 11h1M24 12h12M47 12h3M56 12h1M24 13h11M42 13h3M47 13h3M57 13h1M23 14h12M38 14h1M42 14h3M47 14h3M51 14h3M57 14h1M23 15h12M37 15h3M42 15h3M52 15h2M57 15h1M23 16h12M37 16h4M53 16h1M57 16h2M22 17h13M38 17h2M57 17h1M21 18h10M32 18h4M45 18h5M56 18h1M20 19h17M42 19h15M59 19h3M19 20h3M23 20h34M60 20h2M69 20h4M17 21h40M63 21h2M70 21h3M16 22h34M51 22h7M62 22h3M71 22h2M14 23h6M25 23h4M30 23h29M67 23h2M72 23h2M13 24h5M26 24h3M30 24h10M50 24h11M67 24h2M72 24h2M11 25h6M27 25h8M55 25h9M72 25h2M10 26h6M22 26h2M27 26h4M58 26h7M71 26h3M9 27h6M23 27h1M27 27h4M62 27h5M70 27h4M8 28h7M19 28h3M27 28h4M65 28h10M8 29h7M18 29h5M27 29h3M66 29h9M8 30h6M20 30h2M26 30h4M67 30h8M8 31h5M26 31h3M67 31h8M7 32h6M16 32h4M26 32h3M67 32h2M70 32h6M7 33h5M16 33h5M25 33h4M67 33h5M73 33h3M7 34h2M10 34h2M16 34h4M24 34h5M67 34h9M6 35h6M16 35h4M24 35h5M67 35h9M6 36h6M23 36h5M67 36h2M70 36h6M6 37h5M16 37h3M23 37h5M67 37h9M6 38h5M14 38h6M24 38h4M68 38h8M5 39h5M14 39h6M24 39h4M68 39h7M5 40h5M14 40h6M25 40h3M68 40h5M5 41h5M13 41h6M68 41h4M5 42h5M13 42h6M4 43h6M13 43h4M20 43h1M4 44h3M14 44h1M18 44h4M4 45h3M13 45h2M17 45h5M24 45h3M4 46h2M12 46h4M17 46h5M23 46h5M4 47h1M11 47h4M23 47h5M4 48h1M11 48h2M16 48h6M25 48h4M9 49h1M14 49h10M26 49h3M8 50h3M13 50h16M3 51h1M8 51h3M12 51h6M19 51h12M3 52h1M8 52h3M12 52h20M3 53h1M8 53h24M37 53h2M9 54h24M38 54h2M9 55h19M29 55h4M38 55h3M10 56h19M30 56h4M39 56h3M10 57h11M22 57h8M31 57h3M39 57h3M5 58h1M10 58h3M14 58h3M18 58h3M22 58h4M27 58h3M31 58h4M40 58h2M5 59h1M10 59h3M14 59h3M18 59h4M23 59h7M32 59h3M40 59h2M5 60h1M10 60h2M13 60h9M23 60h8M32 60h4M41 60h1M5 61h1M10 61h2M13 61h9M23 61h8M32 61h4M41 61h2M5 62h1M10 62h2M13 62h9M24 62h7M32 62h5M41 62h3M5 63h1M10 63h2M13 63h10M24 63h7M32 63h2M35 63h2M41 63h4M10 64h2M13 64h10M24 64h7M33 64h4M41 64h4M4 65h1M10 65h2M13 65h10M24 65h8M33 65h4M41 65h4M4 66h1M9 66h3M13 66h10M24 66h8M33 66h3M41 66h4M4 67h1M9 67h3M14 67h9M25 67h2M28 67h4M34 67h2M41 67h4M4 68h1M9 68h3M14 68h9M25 68h7M40 68h5M10 69h3M14 69h10M25 69h6M40 69h4M10 70h3M14 70h10M25 70h6M39 70h3M11 71h2M15 71h9M25 71h6M38 71h1M16 72h7M26 72h4M34 72h2M17 73h6M18 74h4" />
<path stroke="#9c9483" d="M21 9h1M60 11h1M5 26h1M56 29h1M78 30h1M33 31h1M1 40h1M47 61h1" />
<path stroke="#947b62" d="M32 9h1M43 9h9M40 10h13M37 11h6M45 11h1M51 11h4M36 12h5M51 12h5M35 13h3M51 13h1M54 13h3M35 14h2M55 14h2M35 15h2M46 15h1M50 15h1M55 15h2M35 16h2M42 16h1M45 16h6M55 16h2M59 16h3M35 17h3M41 17h16M58 17h5M36 18h9M50 18h6M57 18h2M62 18h4M37 19h5M57 19h2M63 19h4M57 20h2M65 20h4M57 21h3M66 21h4M58 22h4M68 22h3M20 23h5M59 23h5M69 23h3M18 24h8M29 24h1M61 24h5M70 24h2M17 25h4M24 25h3M64 25h3M69 25h3M16 26h3M25 26h2M65 26h6M15 27h3M25 27h2M67 27h3M15 28h2M25 28h2M15 29h2M24 29h3M14 30h3M24 30h2M13 31h3M23 31h3M13 32h2M22 32h4M69 32h1M12 33h3M22 33h3M12 34h2M22 34h2M12 35h2M21 35h3M12 36h2M21 36h2M11 37h4M19 37h4M11 38h2M21 38h3M10 39h3M22 39h2M10 40h2M22 40h3M10 41h2M21 41h8M10 42h2M20 42h1M24 42h5M10 43h2M25 43h1M28 43h1M7 44h6M15 44h3M7 45h4M16 45h1M22 45h1M29 45h1M6 46h3M16 46h1M22 46h1M29 46h1M5 47h4M20 47h3M29 47h1M5 48h2M29 48h1M4 49h3M10 49h3M29 49h2M4 50h2M11 50h1M30 50h4M4 51h2M33 51h3M4 52h2M34 52h3M4 53h2M35 53h2M4 54h2M35 54h3M4 55h3M36 55h2M5 56h2M36 56h3M5 57h3M37 57h2M6 58h2M17 58h1M37 58h3M6 59h2M38 59h2M6 60h2M31 60h1M38 60h3M6 61h2M31 61h1M39 61h2M6 62h2M31 62h1M39 62h2M6 63h2M12 63h1M31 63h1M39 63h2M5 64h3M12 64h1M23 64h1M32 64h1M39 64h2M5 65h2M12 65h1M23 65h1M32 65h1M39 65h2M5 66h2M12 66h1M23 66h1M32 66h1M39 66h2M5 67h2M12 67h1M23 67h1M27 67h1M32 67h1M38 67h3M5 68h2M13 68h1M24 68h1M32 68h1M38 68h2M5 69h2M13 69h1M24 69h1M32 69h2M37 69h3M5 70h3M13 70h1M24 70h1M32 70h7M6 71h2M13 71h1M24 71h1M32 71h6M6 72h3M13 72h1M24 72h1M32 72h2M7 73h3M13 73h2M24 73h1M31 73h3M12 74h4M24 74h2M29 74h4M13 75h4M23 75h7M16 76h12M18 77h6" />
<path stroke="#ac946a" d="M33 9h1M28 11h1M43 11h2M46 11h5M41 12h6M50 12h1M38 13h4M45 13h2M50 13h1M52 13h2M37 14h1M39 14h3M45 14h2M50 14h1M54 14h1M40 15h2M45 15h1M47 15h3M51 15h1M54 15h1M41 16h1M43 16h2M51 16h2M54 16h1M40 17h1M31 18h1M59 18h3M62 19h1M22 20h1M59 20h1M62 20h3M60 21h3M65 21h1M50 22h1M65 22h3M29 23h1M64 23h3M66 24h1M69 24h1M21 25h3M67 25h2M19 26h3M24 26h1M18 27h5M24 27h1M17 28h2M22 28h3M17 29h1M23 29h1M17 30h3M22 30h2M16 31h7M15 32h1M20 32h2M15 33h1M21 33h1M72 33h1M9 34h1M14 34h2M20 34h2M14 35h2M20 35h1M14 36h7M69 36h1M15 37h1M13 38h1M20 38h1M13 39h1M20 39h2M12 40h2M20 40h2M12 41h1M19 41h2M12 42h1M19 42h1M21 42h3M12 43h1M17 43h3M21 43h4M26 43h2M13 44h1M22 44h7M11 45h2M15 45h1M23 45h1M27 45h2M9 46h3M28 46h1M9 47h2M15 47h5M28 47h1M7 48h4M13 48h3M22 48h3M7 49h2M13 49h1M24 49h2M6 50h2M12 50h1M29 50h1M6 51h2M11 51h1M18 51h1M31 51h2M6 52h2M11 52h1M32 52h2M6 53h2M32 53h3M6 54h3M33 54h2M7 55h2M28 55h1M33 55h3M7 56h3M29 56h1M34 56h2M8 57h2M21 57h1M30 57h1M34 57h3M8 58h2M13 58h1M21 58h1M26 58h1M30 58h1M35 58h2M8 59h2M13 59h1M17 59h1M22 59h1M30 59h2M35 59h3M8 60h2M12 60h1M22 60h1M36 60h2M8 61h2M12 61h1M22 61h1M36 61h3M8 62h2M12 62h1M22 62h2M37 62h2M8 63h2M23 63h1M34 63h1M37 63h2M8 64h2M31 64h1M37 64h2M7 65h3M37 65h2M7 66h2M36 66h3M7 67h2M13 67h1M24 67h1M33 67h1M36 67h2M7 68h2M12 68h1M23 68h1M33 68h5M7 69h3M31 69h1M34 69h3M8 70h2M31 70h1M8 71h3M14 71h1M31 71h1M9 72h4M14 72h2M23 72h1M25 72h1M30 72h2M10 73h3M15 73h2M23 73h1M25 73h6M16 74h2M22 74h2M26 74h3M17 75h6" />
</svg>