<svg xmlns="http://www.w3.org/2000/svg" viewBox="0 -0.5 80 80" shape-rendering="crispEdges">
<metadata>Made with Pixels to Svg https://codepen.io/shshaw/pen/XbxvNj</metadata>
<path stroke="#9c9483" d="M30 1h1M11 19h1M29 23h1M61 32h1M31 46h1M9 58h1M26 74h1M40 78h1" />
<path stroke="#73625a" d="M31 1h10M26 2h16M21 3h10M40 3h3M18 4h9M41 4h2M17 5h5M41 5h3M17 6h2M42 6h3M17 7h2M43 7h2M17 8h2M43 8h2M17 9h2M43 9h2M17 10h2M43 10h2M17 11h2M43 11h2M16 12h3M43 12h2M16 13h2M39 13h6M16 14h2M31 14h13M16 15h2M30 15h10M15 16h3M29 16h3M14 17h3M29 17h2M14 18h2M29 18h2M12 19h4M28 19h3M10 20h5M28 20h2M9 21h3M28 21h2M8 22h3M28 22h2M7 23h3M27 23h2M7 24h2M27 24h2M6 25h3M27 25h2M5 26h3M26 26h3M4 27h3M26 27h2M4 28h2M26 28h2M3 29h3M26 29h2M3 30h2M26 30h2M3 31h2M25 31h3M3 32h2M25 32h2M62 32h9M2 33h3M25 33h2M60 33h12M2 34h2M25 34h2M58 34h4M70 34h3M2 35h2M25 35h2M54 35h7M71 35h2M2 36h2M25 36h2M53 36h7M71 36h3M2 37h2M25 37h2M52 37h3M72 37h2M2 38h2M25 38h3M51 38h3M72 38h2M2 39h2M26 39h2M50 39h3M72 39h3M2 40h3M26 40h2M50 40h2M73 40h2M3 41h2M26 41h2M50 41h2M73 41h2M3 42h2M26 42h2M50 42h2M73 42h3M3 43h2M26 43h3M49 43h3M74 43h2M3 44h2M27 44h2M49 44h2M74 44h2M3 45h2M27 45h2M48 45h3M74 45h3M3 46h2M27 46h4M48 46h2M75 46h2M3 47h2M27 47h5M48 47h2M75 47h2M3 48h2M30 48h7M44 48h6M75 48h2M3 49h2M32 49h17M75 49h3M3 50h2M36 50h9M76 50h2M3 51h2M76 51h3M3 52h2M77 52h2M3 53h2M77 53h3M3 54h2M78 54h2M3 55h4M78 55h2M4 56h6M78 56h2M6 57h7M78 57h2M10 58h6M78 58h2M12 59h5M78 59h2M15 60h3M78 60h2M16 61h3M78 61h2M17 62h3M77 62h3M18 63h2M77 63h2M18 64h3M76 64h2M19 65h3M76 65h2M20 66h2M76 66h2M20 67h3M75 67h3M21 68h3M74 68h3M22 69h2M74 69h2M22 70h3M74 70h2M23 71h3M74 71h2M24 72h3M74 72h2M25 73h6M74 73h2M27 74h7M73 74h3M30 75h8M72 75h3M33 76h9M57 76h7M70 76h4M37 77h13M55 77h18M41 78h17M63 78h8M49 79h7" />
<path stroke="#dec594" d="M31 3h9M27 4h5M39 4h2M22 5h6M40 5h1M19 6h4M40 6h2M19 7h1M41 7h2M19 8h1M42 8h1M19 9h1M42 9h1M19 10h1M42 10h1M19 11h1M42 11h1M19 12h1M38 12h5M18 13h1M30 13h9M29 14h2M28 15h2M28 16h1M28 17h1M27 18h2M27 19h1M15 20h1M27 20h1M12 21h4M27 21h1M11 22h2M26 22h2M10 23h2M26 23h1M9 24h2M26 24h1M9 25h1M25 25h2M8 26h2M25 26h1M7 27h2M25 27h1M6 28h2M25 28h1M6 29h1M25 29h1M5 30h2M24 30h2M5 31h1M24 31h1M5 32h1M24 32h1M5 33h1M24 33h1M4 34h2M24 34h1M62 34h8M4 35h1M24 35h1M61 35h2M69 35h2M4 36h1M24 36h1M60 36h2M70 36h1M4 37h1M24 37h1M55 37h6M70 37h2M4 38h1M24 38h1M54 38h2M71 38h1M4 39h2M24 39h2M53 39h2M71 39h1M5 40h1M25 40h1M52 40h2M71 40h2M5 41h1M25 41h1M52 41h1M72 41h1M5 42h1M25 42h1M52 42h1M72 42h1M5 43h1M25 43h1M72 43h2M5 44h1M25 44h2M73 44h1M5 45h1M26 45h1M73 45h1M5 46h1M26 46h1M74 46h1M5 47h1M26 47h1M5 48h1M26 48h4M5 49h1M29 49h3M5 50h1M31 50h5M5 51h1M36 51h5M5 52h1M5 53h1M5 54h3M77 54h1M7 55h4M77 55h1M10 56h4M13 57h4M16 58h2M17 59h2M18 60h2M19 61h2M20 62h1M20 63h2M21 64h2M22 65h1M22 66h2M23 67h2M24 68h1M24 69h2M25 70h2M26 71h2M27 72h5M31 73h4M73 73h1M34 74h5M71 74h2M38 75h5M56 75h9M69 75h3M42 76h9M54 76h3M64 76h6M50 77h5" />
<path stroke="#bda473" d="M32 4h7M28 5h12M23 6h17M20 7h13M34 7h7M20 8h3M26 8h16M20 9h2M27 9h15M20 10h1M28 10h4M33 10h3M37 10h5M23 11h2M28 11h14M23 12h2M28 12h10M27 13h3M27 14h2M21 15h2M26 15h2M21 16h2M25 16h3M22 17h1M25 17h3M19 18h2M25 18h2M19 19h2M24 19h3M19 20h1M24 20h3M16 21h1M23 21h4M13 22h5M22 22h4M12 23h1M18 23h8M11 24h1M19 24h7M10 25h1M19 25h6M10 26h1M14 26h3M19 26h6M9 27h1M14 27h2M19 27h6M8 28h1M14 28h1M19 28h6M7 29h2M19 29h3M23 29h2M7 30h2M12 30h3M18 30h6M6 31h3M12 31h3M18 31h6M6 32h3M12 32h3M18 32h6M6 33h3M18 33h6M6 34h3M18 34h6M5 35h4M13 35h3M19 35h5M63 35h6M5 36h4M13 36h3M19 36h5M62 36h8M5 37h5M13 37h3M19 37h5M61 37h9M5 38h5M20 38h4M56 38h15M6 39h4M16 39h1M20 39h4M55 39h5M68 39h3M6 40h5M15 40h3M20 40h5M54 40h4M70 40h1M6 41h5M14 41h4M20 41h5M53 41h3M71 41h1M6 42h5M15 42h2M20 42h5M53 42h1M6 43h6M19 43h6M62 43h4M6 44h7M18 44h7M60 44h8M72 44h1M6 45h20M58 45h5M64 45h4M72 45h1M6 46h3M10 46h16M56 46h11M6 47h3M10 47h16M54 47h10M6 48h12M19 48h7M52 48h7M65 48h4M6 49h23M51 49h6M60 49h12M6 50h17M25 50h6M51 50h5M57 50h16M6 51h5M12 51h24M48 51h7M56 51h17M6 52h35M46 52h21M68 52h5M6 53h19M30 53h11M45 53h13M59 53h14M8 54h16M33 54h8M45 54h4M50 54h22M11 55h12M34 55h6M45 55h3M50 55h17M14 56h9M26 56h2M36 56h2M46 56h2M49 56h13M69 56h3M17 57h3M21 57h2M26 57h1M29 57h1M49 57h10M63 57h11M18 58h5M28 58h3M44 58h3M48 58h9M59 58h16M19 59h4M28 59h3M33 59h1M43 59h4M48 59h27M20 60h4M28 60h2M32 60h4M38 60h3M44 60h3M48 60h27M21 61h3M29 61h1M32 61h4M37 61h6M44 61h3M48 61h3M52 61h23M21 62h4M32 62h4M37 62h6M45 62h2M48 62h10M60 62h14M22 63h4M32 63h4M37 63h7M48 63h25M23 64h4M38 64h6M46 64h1M49 64h23M23 65h7M38 65h10M49 65h22M24 66h7M41 66h3M45 66h3M50 66h8M60 66h7M25 67h8M46 67h3M51 67h9M69 67h3M25 68h12M47 68h2M53 68h19M26 69h13M50 69h21M27 70h7M35 70h9M49 70h7M66 70h3M28 71h16M50 71h4M32 72h12M35 73h11M39 74h8M58 74h6M43 75h6M65 75h4M51 76h3" />
<path stroke="#ac946a" d="M33 7h1M24 10h1M36 10h1M25 11h1M22 12h1M25 12h1M22 13h3M21 14h3M20 15h1M23 15h1M20 16h1M19 17h3M18 18h1M21 18h1M18 19h1M21 19h1M18 20h1M20 20h1M14 25h3M13 26h1M13 27h1M16 27h1M15 28h2M11 29h4M22 29h1M11 30h1M15 30h1M11 31h1M15 31h1M11 32h1M15 32h1M11 33h4M12 34h4M11 35h2M16 35h1M11 36h2M16 36h1M12 37h1M12 38h5M13 39h3M17 39h1M13 40h2M13 41h1M61 41h6M14 42h1M59 42h10M57 43h5M66 43h4M55 44h5M68 44h2M53 45h5M63 45h1M68 45h2M9 46h1M52 46h4M67 46h2M51 47h3M18 48h1M51 48h1M59 48h1M64 48h1M69 48h4M57 49h3M72 49h2M23 50h1M50 50h1M56 50h1M73 50h1M11 51h1M44 51h4M55 51h1M73 51h2M43 52h3M73 52h2M43 53h2M58 53h1M73 53h2M44 54h1M49 54h1M72 54h2M26 55h3M43 55h2M48 55h2M67 55h1M25 56h1M28 56h3M42 56h4M48 56h1M62 56h2M68 56h1M72 56h3M20 57h1M25 57h1M27 57h2M30 57h2M42 57h3M48 57h1M59 57h4M74 57h2M25 58h3M31 58h4M39 58h2M42 58h2M57 58h2M75 58h1M26 59h2M31 59h2M34 59h3M38 59h4M75 59h1M26 60h2M30 60h2M36 60h1M41 60h3M47 60h1M75 60h1M27 61h2M30 61h2M36 61h1M43 61h1M47 61h1M51 61h1M75 61h1M28 62h4M36 62h1M43 62h1M47 62h1M59 62h1M74 62h2M31 63h1M36 63h1M47 63h1M73 63h2M32 64h6M45 64h1M47 64h2M72 64h2M34 65h3M48 65h1M71 65h2M38 66h3M44 66h1M48 66h2M58 66h2M67 66h1M40 67h4M45 67h1M50 67h1M60 67h3M68 67h1M72 67h2M45 68h2M51 68h2M72 68h2M46 69h3M71 69h3M34 70h1M46 70h3M56 70h10M69 70h4M48 71h2M54 71h18M48 72h9M65 72h5M50 73h5" />
<path stroke="#947b62" d="M23 8h3M22 9h5M21 10h3M25 10h3M32 10h1M20 11h3M26 11h2M20 12h2M26 12h2M19 13h3M25 13h2M18 14h3M24 14h3M18 15h2M24 15h2M18 16h2M23 16h2M17 17h2M23 17h2M16 18h2M22 18h3M16 19h2M22 19h2M16 20h2M21 20h3M17 21h6M18 22h4M13 23h5M12 24h7M11 25h3M17 25h2M11 26h2M17 26h2M10 27h3M17 27h2M9 28h5M17 28h2M9 29h2M15 29h4M9 30h2M16 30h2M9 31h2M16 31h2M9 32h2M16 32h2M9 33h2M15 33h3M9 34h3M16 34h2M9 35h2M17 35h2M9 36h2M17 36h2M10 37h2M16 37h3M10 38h2M17 38h3M10 39h3M18 39h2M60 39h8M11 40h2M18 40h2M58 40h12M11 41h2M18 41h2M56 41h5M67 41h4M11 42h3M17 42h3M54 42h5M69 42h3M12 43h7M52 43h5M70 43h2M13 44h5M51 44h4M70 44h2M51 45h2M70 45h2M50 46h2M69 46h5M9 47h1M50 47h1M64 47h11M50 48h1M60 48h4M73 48h2M49 49h2M74 49h1M24 50h1M45 50h5M74 50h2M41 51h3M75 51h1M41 52h2M67 52h1M75 52h2M25 53h5M41 53h2M75 53h2M24 54h9M41 54h3M74 54h3M23 55h3M29 55h5M40 55h3M68 55h9M23 56h2M31 56h5M38 56h4M64 56h4M75 56h3M23 57h2M32 57h10M45 57h3M76 57h2M23 58h2M35 58h4M41 58h1M47 58h1M76 58h2M23 59h3M37 59h1M42 59h1M47 59h1M76 59h2M24 60h2M37 60h1M76 60h2M24 61h3M76 61h2M25 62h3M44 62h1M58 62h1M76 62h1M26 63h5M44 63h3M75 63h2M27 64h5M44 64h1M74 64h2M30 65h4M37 65h1M73 65h3M31 66h7M68 66h8M33 67h7M44 67h1M49 67h1M63 67h5M74 67h1M37 68h8M49 68h2M39 69h7M49 69h1M44 70h2M73 70h1M44 71h4M72 71h2M44 72h4M57 72h8M70 72h4M46 73h4M55 73h18M47 74h11M64 74h7M49 75h7" />
</svg>