<svg xmlns="http://www.w3.org/2000/svg" viewBox="0 -0.5 64 64" shape-rendering="crispEdges">
<metadata>Made with Pixels to Svg https://codepen.io/shshaw/pen/XbxvNj</metadata>
<path stroke="#73625a" d="M44 0h6M40 1h11M35 2h10M49 2h2M29 3h12M49 3h3M23 4h13M50 4h2M18 5h12M50 5h3M12 6h12M51 6h3M9 7h10M52 7h3M8 8h5M53 8h3M8 9h2M54 9h3M7 10h3M55 10h3M7 11h2M56 11h3M6 12h3M57 12h2M6 13h2M57 13h3M5 14h3M58 14h3M5 15h2M59 15h3M4 16h3M60 16h3M4 17h2M61 17h2M3 18h3M61 18h2M3 19h2M61 19h2M2 20h3M61 20h2M2 21h2M60 21h3M1 22h3M60 22h2M1 23h2M60 23h2M1 24h2M60 24h2M1 25h2M60 25h2M1 26h2M60 26h2M1 27h3M59 27h3M2 28h2M59 28h2M2 29h2M59 29h2M2 30h2M59 30h2M2 31h2M59 31h2M2 32h3M59 32h2M3 33h2M59 33h2M3 34h2M58 34h3M3 35h2M58 35h2M3 36h4M58 36h2M4 37h4M58 37h2M6 38h4M56 38h4M7 39h4M55 39h4M9 40h4M53 40h4M10 41h4M52 41h4M12 42h4M51 42h3M13 43h4M49 43h4M15 44h4M47 44h4M16 45h4M46 45h4M18 46h3M46 46h2M19 47h2M45 47h3M19 48h3M45 48h2M20 49h2M44 49h3M20 50h3M44 50h2M21 51h2M43 51h3M21 52h3M43 52h2M22 53h2M42 53h3M22 54h3M42 54h2M23 55h2M39 55h5M23 56h3M33 56h10M24 57h16M24 58h10" />
<path stroke="#dec594" d="M45 2h4M41 3h5M48 3h1M36 4h6M48 4h2M30 5h7M49 5h1M24 6h7M49 6h2M19 7h6M50 7h2M13 8h7M51 8h2M10 9h4M52 9h2M10 10h1M53 10h2M9 11h2M54 11h2M9 12h1M55 12h2M8 13h2M56 13h1M8 14h1M56 14h2M7 15h2M57 15h2M7 16h1M58 16h2M6 17h2M59 17h2M6 18h1M60 18h1M5 19h2M60 19h1M5 20h1M4 21h2M4 22h1M3 23h2M3 24h1M3 25h1M3 26h2M4 27h1M4 28h1M58 28h1M4 29h1M58 29h1M4 30h1M58 30h1M4 31h2M58 31h1M5 32h1M58 32h1M5 33h1M57 33h2M5 34h1M57 34h1M5 35h3M57 35h1M7 36h2M57 36h1M8 37h3M55 37h3M10 38h2M54 38h2M11 39h3M52 39h3M13 40h2M52 40h1M14 41h3M16 42h2M17 43h3M19 44h2M20 45h2M21 46h1M21 47h2M22 48h1M43 48h2M22 49h2M43 49h1M23 50h1M42 50h2M23 51h2M42 51h1M24 52h1M41 52h2M24 53h2M41 53h1M25 54h1M38 54h4M25 55h2M32 55h7M26 56h7" />
<path stroke="#bda473" d="M46 3h2M42 4h6M37 5h12M31 6h18M25 7h25M20 8h31M14 9h32M48 9h4M11 10h18M40 10h13M11 11h16M42 11h12M10 12h2M13 12h12M44 12h11M10 13h2M13 13h11M31 13h7M45 13h11M9 14h14M29 14h11M46 14h10M9 15h13M27 15h15M47 15h10M8 16h10M19 16h2M26 16h17M48 16h10M8 17h13M25 17h15M41 17h1M43 17h1M49 17h10M7 18h4M16 18h4M25 18h1M27 18h14M42 18h1M44 18h1M49 18h11M7 19h3M17 19h3M24 19h1M26 19h14M41 19h1M43 19h1M45 19h1M50 19h3M59 19h1M6 20h4M18 20h1M23 20h1M25 20h14M40 20h1M42 20h1M44 20h1M50 20h2M6 21h3M13 21h1M18 21h1M24 21h1M26 21h14M41 21h1M43 21h4M5 22h4M13 22h2M18 22h1M23 22h1M25 22h14M40 22h3M44 22h3M55 22h2M5 23h3M12 23h3M22 23h1M24 23h24M54 23h5M4 24h4M12 24h2M22 24h26M54 24h4M4 25h4M11 25h2M21 25h27M55 25h1M5 26h2M11 26h1M17 26h1M21 26h27M5 27h2M10 27h1M16 27h2M21 27h27M51 27h1M5 28h2M15 28h3M21 28h27M51 28h2M5 29h2M14 29h4M22 29h26M51 29h7M5 30h2M12 30h6M22 30h26M51 30h7M6 31h13M22 31h25M51 31h7M6 32h13M23 32h24M51 32h7M6 33h13M23 33h23M50 33h7M6 34h7M15 34h5M24 34h22M50 34h7M8 35h12M25 35h20M49 35h8M9 36h12M26 36h8M35 36h9M49 36h8M11 37h11M27 37h4M32 37h1M34 37h9M48 37h7M12 38h11M29 38h1M31 38h1M33 38h1M35 38h6M47 38h7M14 39h10M32 39h1M34 39h4M51 39h1M15 40h10M17 41h10M18 42h11M40 42h3M48 42h1M20 43h5M31 43h12M46 43h3M21 44h3M32 44h11M46 44h1M22 45h1M32 45h11M22 46h1M27 46h2M33 46h10M26 47h3M33 47h11M27 48h3M34 48h9M28 49h2M34 49h9M30 50h1M34 50h5M40 50h2M34 51h8M25 52h1M34 52h7M26 53h2M34 53h7M26 54h12M27 55h5" />
<path stroke="#947b62" d="M46 9h1M29 10h11M27 11h15M25 12h5M39 12h5M12 13h1M24 13h4M41 13h4M23 14h3M43 14h3M22 15h3M44 15h3M21 16h3M45 16h3M21 17h2M46 17h3M11 18h5M20 18h3M47 18h2M10 19h7M20 19h2M47 19h3M53 19h6M10 20h2M15 20h3M19 20h3M48 20h2M52 20h9M9 21h3M16 21h2M19 21h2M48 21h6M58 21h2M9 22h2M16 22h2M19 22h2M49 22h4M8 23h3M16 23h5M49 23h4M8 24h2M16 24h4M49 24h4M8 25h2M15 25h5M49 25h4M59 25h1M7 26h3M14 26h3M18 26h2M49 26h5M57 26h3M7 27h2M13 27h3M18 27h2M49 27h2M52 27h7M7 28h2M11 28h4M18 28h2M49 28h2M53 28h5M7 29h7M18 29h2M49 29h2M7 30h5M18 30h3M49 30h2M19 31h2M49 31h2M19 32h2M48 32h3M19 33h3M48 33h2M14 34h1M20 34h2M47 34h3M20 35h3M47 35h2M21 36h3M46 36h3M22 37h3M45 37h3M23 38h3M44 38h3M24 39h4M42 39h9M25 40h6M39 40h13M27 41h20M50 41h2M29 42h11M43 42h2M50 42h1M25 43h6M43 43h2M24 44h8M43 44h2M23 45h3M30 45h2M43 45h2M23 46h2M30 46h3M43 46h3M23 47h2M31 47h2M44 47h1M23 48h2M31 48h3M24 49h2M32 49h2M24 50h3M32 50h2M25 51h4M32 51h2M26 52h8M28 53h6" />
<path stroke="#ac946a" d="M47 9h1M12 12h1M30 12h9M28 13h3M38 13h3M26 14h3M40 14h3M25 15h2M42 15h2M18 16h1M24 16h2M43 16h2M23 17h2M40 17h1M42 17h1M44 17h2M23 18h2M26 18h1M41 18h1M43 18h1M45 18h2M22 19h2M25 19h1M40 19h1M42 19h1M44 19h1M46 19h1M12 20h3M22 20h1M24 20h1M39 20h1M41 20h1M43 20h1M45 20h3M12 21h1M14 21h2M21 21h3M25 21h1M40 21h1M42 21h1M47 21h1M54 21h4M11 22h2M15 22h1M21 22h2M24 22h1M39 22h1M43 22h1M47 22h2M53 22h2M57 22h3M11 23h1M15 23h1M21 23h1M23 23h1M48 23h1M53 23h1M59 23h1M10 24h2M14 24h2M20 24h2M48 24h1M53 24h1M58 24h2M10 25h1M13 25h2M20 25h1M48 25h1M53 25h2M56 25h3M10 26h1M12 26h2M20 26h1M48 26h1M54 26h3M9 27h1M11 27h2M20 27h1M48 27h1M9 28h2M20 28h1M48 28h1M20 29h2M48 29h1M21 30h1M48 30h1M21 31h1M47 31h2M21 32h2M47 32h1M22 33h1M46 33h2M13 34h1M22 34h2M46 34h1M23 35h2M45 35h2M24 36h2M34 36h1M44 36h2M25 37h2M31 37h1M33 37h1M43 37h2M26 38h3M30 38h1M32 38h1M34 38h1M41 38h3M28 39h4M33 39h1M38 39h4M31 40h8M47 41h3M45 42h3M49 42h1M45 43h1M45 44h1M26 45h4M45 45h1M25 46h2M29 46h1M25 47h1M29 47h2M25 48h2M30 48h1M26 49h2M30 49h2M27 50h3M31 50h1M39 50h1M29 51h3" />
</svg>