<svg xmlns="http://www.w3.org/2000/svg" viewBox="0 -0.5 64 64" shape-rendering="crispEdges">
<metadata>Made with Pixels to Svg https://codepen.io/shshaw/pen/XbxvNj</metadata>
<path stroke="#cc3300" d="M29 19h3M26 20h1M24 21h1M35 22h1M37 22h1M22 23h1M34 23h1M36 23h1M38 23h2M21 24h1M35 24h1M37 24h1M39 24h2M21 25h1M36 25h1M38 25h3M20 26h1M37 26h5M20 27h1M36 27h6M19 28h1M36 28h8M19 29h1M21 29h1M37 29h7M19 30h1M21 30h1M37 30h7M19 31h1M26 31h1M38 31h6M19 32h1M21 32h1M29 32h1M34 32h1M37 32h6M19 33h1M21 33h1M37 33h6M21 34h1M37 34h5M20 35h1M22 35h1M29 35h1M36 35h5M21 36h1M24 36h1M30 36h2M35 36h1M37 36h2M22 37h2M32 37h2M36 37h1M33 38h1" />
<path stroke="#801010" d="M32 19h3M35 20h2M38 21h1M42 25h1M43 26h1M43 27h1M44 28h1M22 31h1M36 31h2M23 32h1M26 32h1M35 32h1M43 32h1M24 33h1M26 33h1M29 33h1M33 33h1M43 33h1M25 34h1M29 34h1M31 34h1M42 34h1M30 35h1M41 35h1M39 36h1M37 37h1M24 38h1M34 38h2M26 39h6" />
<path stroke="#f85020" d="M27 20h2M32 20h3M25 21h1M29 21h4M23 22h1M28 22h4M29 23h3M29 24h4M29 25h5M21 26h1M29 26h6M21 27h1M28 27h7M20 28h3M27 28h8M20 29h1M22 29h14M20 30h1M22 30h14M20 31h2M23 31h3M27 31h4M32 31h4M20 32h1M24 32h2M27 32h2M33 32h1M20 33h1M25 33h1M27 33h2M20 34h1M26 34h3M21 35h1M26 35h3M22 36h1M26 36h4M24 37h8M26 38h6" />
<path stroke="#f8a898" d="M29 20h3M26 21h3M24 22h4M23 23h6M22 24h7M22 25h7M22 26h7M22 27h6M23 28h4M31 31h1M30 32h3M36 32h1M30 33h3M30 34h1" />
<path stroke="#101010" d="M37 20h1M39 21h1M40 22h1M41 23h1M42 24h1M44 29h1M44 30h1M44 31h1M44 32h1M44 33h1M24 34h1M32 34h1M44 34h1M24 35h1M32 35h1M43 37h1M42 39h1M41 40h1M40 41h1M24 42h1M39 42h1M36 43h2M33 44h2" />
<path stroke="#e04000" d="M33 21h5M32 22h3M36 22h1M38 22h2M32 23h2M35 23h1M37 23h1M40 23h1M33 24h2M36 24h1M38 24h1M41 24h1M34 25h2M37 25h1M41 25h1M35 26h2M42 26h1M35 27h1M42 27h1M35 28h1M36 29h1M36 30h1M23 36h1M25 36h1M36 36h1M34 37h2M25 38h1M32 38h1" />
<path stroke="#d8d0d0" d="M22 32h1M22 33h1M34 33h1M36 33h1M22 34h1M36 34h1M23 35h1M25 35h1M20 36h1M32 36h3M21 37h1M21 38h2M34 39h1M37 39h1M39 39h1M33 40h2M38 40h1M40 40h1M24 41h1M32 41h2M37 41h1M30 42h3M29 43h2" />
<path stroke="#f8f8f8" d="M23 33h1M35 33h1M23 34h1M33 34h3M31 35h1M33 35h3M22 39h3M23 40h10M25 41h7M26 42h4" />
<path stroke="#b0a8a8" d="M19 34h1M43 34h1M42 35h2M40 36h3M38 37h5M23 38h1M36 38h6M25 39h1M32 39h2M35 39h2M38 39h1M40 39h2M35 40h3M39 40h1M34 41h3M38 41h2M33 42h5M28 43h1M31 43h4" />
<path stroke="#585050" d="M19 35h1M44 35h1M19 36h1M43 36h1M20 37h1M20 38h1M42 38h1M21 39h1M22 40h1M23 41h1M25 42h1M38 42h1M26 43h2M35 43h1M29 44h4" />
</svg>