<svg xmlns="http://www.w3.org/2000/svg" viewBox="0 -0.5 64 64" shape-rendering="crispEdges">
<metadata>Made with Pixels to Svg https://codepen.io/shshaw/pen/XbxvNj</metadata>
<path stroke="#999999" d="M28 14h8M25 15h2M37 15h2M23 16h1M39 16h1M22 17h1M20 18h1M19 19h1M18 20h1M16 23h1M16 24h1M47 24h1M15 25h1M20 25h1M15 26h1M21 26h1M22 27h1M14 28h1M14 29h1M23 29h1M38 29h1M40 29h1M14 30h1M25 30h1M34 30h1M48 30h1M14 31h1M23 31h1M25 31h1M31 31h1M14 32h1M25 32h1M29 32h1M31 32h1M34 40h1M37 40h1M34 41h1M37 41h1M34 42h1M37 42h1M34 43h1M37 43h1M34 44h1" />
<path stroke="#cccccc" d="M27 15h1M36 15h1M24 16h1M21 18h1M18 21h1M17 22h1M43 22h1M45 22h1M42 23h1M44 23h1M46 23h1M43 24h1M45 24h1M42 25h1M44 25h1M46 25h2M43 26h5M15 27h1M43 27h5M43 28h6M43 29h6M43 30h5M43 31h5M43 32h4M29 33h1M42 33h4M42 34h2M17 35h1M20 36h1M37 36h1M23 37h1M30 37h2M38 39h2M39 40h1M30 41h1M24 42h3" />
<path stroke="#f8f8f8" d="M28 15h5M25 16h10M23 17h13M22 18h15M21 19h16M20 20h17M20 21h17M20 22h16M21 23h14M21 24h13M22 25h10M24 26h5M35 41h2M38 41h1M31 42h3M35 42h2M28 43h6M35 43h2M28 44h6M35 44h1" />
<path stroke="#e8e8e8" d="M33 15h3M35 16h4M36 17h5M37 18h5M20 19h1M37 19h7M19 20h1M37 20h8M19 21h1M37 21h8M18 22h2M36 22h7M44 22h1M17 23h4M35 23h7M43 23h1M45 23h1M17 24h4M34 24h9M44 24h1M46 24h1M16 25h4M21 25h1M32 25h10M43 25h1M45 25h1M16 26h5M22 26h2M29 26h14M16 27h6M23 27h20M15 28h7M23 28h20M15 29h8M24 29h14M41 29h2M15 30h8M24 30h1M26 30h3M30 30h4M38 30h5M15 31h8M26 31h3M30 31h1M34 31h9M15 32h8M24 32h1M26 32h3M32 32h11M15 33h8M24 33h5M30 33h1M32 33h10M16 34h15M32 34h10M18 35h23M21 36h16M24 37h6M35 40h2M38 40h1M31 41h3M27 42h4M38 42h1M26 43h2" />
<path stroke="#585050" d="M40 16h1M41 17h1M42 18h2M44 19h1M45 20h1M45 21h1M46 22h1M47 23h1M48 25h1M48 26h1M48 27h1M22 28h1M39 29h1M23 30h1M29 30h1M35 30h3M24 31h1M29 31h1M32 31h2M30 32h1" />
<path stroke="#101010" d="M49 28h1M49 29h1M49 30h1M49 31h1M23 32h1M49 32h1M23 33h1M31 33h1M49 33h1M31 34h1M49 34h1M49 35h1M48 37h1M48 38h1M47 40h1M46 41h1M45 43h1M44 44h1M42 45h2M41 46h1M40 47h1M37 48h2M28 49h8" />
<path stroke="#b03000" d="M48 31h1M47 32h1M46 33h1M15 34h1M44 34h1M16 35h1M41 35h2M18 36h2M38 36h3M15 37h1M21 37h2M32 37h5M15 38h1M24 38h7M38 38h2M34 39h4M16 40h1M19 40h2M30 40h4M23 41h7M39 41h1M22 42h1M18 43h1M26 44h2M36 44h1M21 45h1M28 45h8" />
<path stroke="#e04000" d="M48 32h1M47 33h2M45 34h4M43 35h6M15 36h1M41 36h7M37 37h7M45 37h1M47 37h1M31 38h1M33 38h5M41 38h2M44 38h1M46 38h1M16 39h1M33 39h1M41 39h1M43 39h1M45 39h1M41 40h2M44 40h1M46 40h1M17 41h1M40 41h2M43 41h1M45 41h1M18 42h1M40 42h3M44 42h1M39 43h6M38 44h6M22 45h1M25 45h3M36 45h6M23 46h18M25 47h14M28 48h8" />
<path stroke="#801010" d="M14 33h1M14 34h1M14 35h1M48 36h1M40 38h1M40 39h1M47 39h1M40 40h1M21 41h2M23 42h1M39 42h1M45 42h1M24 43h2M38 43h1M19 44h1M37 44h1M20 45h1M22 46h1M23 47h2M39 47h1M25 48h3M36 48h1" />
<path stroke="#f87848" d="M15 35h1M17 36h1M20 37h1M44 37h1M46 37h1M16 38h1M23 38h1M32 38h1M43 38h1M45 38h1M47 38h1M25 39h8M42 39h1M44 39h1M46 39h1M17 40h1M24 40h6M43 40h1M45 40h1M18 41h3M42 41h1M44 41h1M19 42h3M43 42h1M19 43h5M20 44h6M23 45h2" />
<path stroke="#f8b098" d="M16 36h1M16 37h4M17 38h6M17 39h8M18 40h1M21 40h3" />
</svg>