<svg xmlns="http://www.w3.org/2000/svg" viewBox="0 -0.5 64 64" shape-rendering="crispEdges">
<metadata>Made with Pixels to Svg https://codepen.io/shshaw/pen/XbxvNj</metadata>
<path stroke="#a05000" d="M25 4h1M25 5h1M24 6h1M23 9h1M18 10h1M21 10h1M23 10h1M26 10h1M43 10h1M14 11h1M19 11h1M22 11h1M26 11h3M35 11h3M41 11h3M47 11h1M15 12h1M19 12h1M22 12h1M29 12h1M34 12h1M38 12h1M40 12h2M44 12h1M48 12h2M11 13h1M15 13h1M20 13h1M34 13h1M40 13h1M48 13h1M50 13h1M11 14h1M15 14h1M19 14h2M25 14h1M34 14h1M39 14h1M42 14h1M49 14h1M12 15h3M16 15h1M18 15h1M21 15h1M32 15h2M35 15h1M39 15h1M49 15h1M15 16h1M17 16h1M30 16h2M34 16h2M38 16h1M16 17h1M24 17h1M27 17h1M30 17h1M33 17h2M38 17h1M40 17h1M16 18h1M23 18h1M32 18h1M34 18h1M38 18h1M41 18h1M51 18h1M15 19h1M22 19h1M35 19h1M39 19h1M41 19h1M51 19h1M15 20h1M17 20h1M27 20h2M37 20h1M40 20h2M48 20h1M51 20h1M12 21h2M18 21h1M26 21h1M39 21h1M42 21h1M52 21h1M19 22h1M25 22h1M42 22h1M11 23h1M17 23h1M24 23h1M41 23h1M43 23h1M18 24h1M26 24h2M39 24h1M43 24h2M13 25h1M53 25h1M15 26h1M19 26h1M22 26h1M27 26h1M37 26h2M44 26h1M51 26h1M53 26h1M15 27h2M24 27h1M30 27h2M36 27h1M40 27h2M45 27h1M54 27h1M11 28h1M15 28h1M17 28h2M23 28h1M30 28h1M33 28h1M45 28h1M55 28h1M17 29h1M19 29h1M28 29h2M32 29h1M46 29h2M52 29h1M10 30h1M18 30h1M20 30h8M30 30h2M14 31h1M19 31h1M28 31h2M39 31h2M47 31h1M49 31h2M20 32h2M26 32h2M40 32h1M43 32h1M20 33h1M22 33h1M25 33h1M39 33h1M44 33h1M53 33h3M10 34h1M15 34h2M20 34h1M44 34h1M52 34h1M8 35h1M17 35h1M21 35h1M31 35h1M45 35h1M51 35h1M18 36h1M21 36h1M28 36h1M45 36h1M51 36h1M57 36h1M7 37h1M18 37h1M20 37h1M42 37h1M46 37h1M51 37h1M7 38h1M15 38h1M20 38h1M40 38h1M46 38h1M51 38h1M7 39h1M9 39h1M12 39h1M15 39h1M27 39h1M52 39h1M7 40h1M9 40h1M12 40h1M17 40h1M52 40h1M8 41h1M16 41h1M18 41h1M28 41h1M52 41h1M14 42h1M43 42h1M46 42h1M52 42h1M13 43h2M20 43h1M46 43h1M21 44h1M26 44h1M31 44h1M40 44h1M45 44h1M57 44h1M21 45h1M30 45h1M45 45h1M57 45h1M21 46h2M29 46h1M44 46h1M51 46h1M57 46h1M22 47h1M44 47h1M51 47h1M23 48h1M43 48h1M51 48h1M56 48h1M17 49h1M24 49h1M50 49h1M55 49h1M25 50h2M37 50h1M43 50h1M49 50h1M55 50h1M19 51h1M25 51h1M28 51h2M38 51h1M47 51h2M17 52h1M24 52h1M34 52h4M16 53h2M19 53h1M24 53h1M15 54h1M23 54h1M45 54h1M50 54h1M37 55h3M46 55h1M48 55h2M15 56h3M23 56h1M39 56h1M50 56h1M18 57h1M45 57h2M50 57h1M40 58h1M44 58h1M47 58h1M50 58h1M44 59h1M47 59h1M51 59h1" />
<path stroke="#101010" d="M26 4h1M26 5h1M26 6h1M26 7h1M26 8h1M26 9h1M44 10h3M48 11h1M25 12h1M30 12h1M25 13h1M31 13h1M38 13h1M32 14h1M38 14h1M50 14h1M27 15h2M36 15h2M50 15h1M19 16h1M26 16h2M49 16h2M25 17h2M48 17h3M20 18h1M24 18h3M47 18h4M20 19h1M23 19h3M36 19h1M46 19h4M21 20h4M38 20h1M45 20h3M20 21h4M40 21h2M21 22h2M41 22h1M47 22h1M52 22h1M19 23h1M21 23h1M25 23h1M46 23h4M52 23h1M12 24h1M19 24h1M25 24h1M40 24h1M45 24h4M51 24h3M37 25h2M44 25h4M50 25h3M12 26h3M28 26h3M35 26h2M39 26h1M45 26h2M49 26h2M11 27h3M25 27h2M34 27h1M42 27h3M19 28h4M14 29h3M53 29h3M16 30h2M53 30h1M10 31h1M12 31h2M17 31h2M30 31h2M41 31h6M52 31h1M9 32h1M12 32h1M17 32h1M22 32h4M28 32h3M48 32h1M51 32h1M9 33h1M11 33h3M17 33h1M26 33h4M9 34h1M17 34h1M25 34h4M56 34h1M24 35h4M32 35h4M57 35h1M23 36h1M25 36h2M29 36h6M22 37h1M24 37h14M43 37h2M58 37h1M18 38h1M21 38h1M23 38h14M41 38h5M58 38h1M18 39h1M20 39h1M22 39h1M24 39h3M30 39h6M39 39h8M58 39h1M15 40h1M18 40h1M20 40h2M23 40h1M29 40h6M38 40h9M58 40h1M9 41h1M12 41h1M15 41h1M20 41h2M29 41h5M37 41h10M58 41h1M10 42h4M17 42h1M20 42h1M28 42h5M36 42h7M53 42h3M58 42h1M15 43h2M27 43h5M35 43h7M52 43h5M58 43h1M27 44h4M34 44h2M37 44h3M52 44h5M26 45h4M36 45h3M52 45h1M55 45h2M26 46h3M35 46h2M56 46h1M19 47h1M26 47h1M28 47h1M34 47h2M56 47h1M18 48h3M33 48h1M44 48h2M52 48h2M19 49h3M42 49h4M51 49h4M17 50h1M20 50h3M41 50h2M46 50h1M53 50h2M17 51h2M27 51h1M41 51h1M46 51h1M54 51h1M18 52h3M30 52h4M38 52h2M45 52h2M53 52h1M20 53h2M34 53h6M43 53h4M52 53h1M25 54h1M35 54h3M40 54h1M42 54h3M47 54h1M51 54h1M25 55h1M40 55h1M24 56h1M51 56h1M12 57h2M21 57h2M39 57h1M14 58h1M17 58h4M39 58h1M15 59h2M40 59h3M50 59h1M53 59h1M43 60h3M47 60h3M52 60h2M46 61h2" />
<path stroke="#f8e090" d="M25 6h1M25 7h1M25 8h1M25 9h1M25 10h1M24 11h2M46 11h1M21 12h1M24 12h1M27 12h2M37 12h1M46 12h2M13 13h1M21 13h2M24 13h1M27 13h4M46 13h2M12 14h1M21 14h4M27 14h5M35 14h1M40 14h2M45 14h4M15 15h1M19 15h2M23 15h4M29 15h3M34 15h1M40 15h9M16 16h1M20 16h5M28 16h2M33 16h1M39 16h10M17 17h1M20 17h2M28 17h2M31 17h1M41 17h7M17 18h1M27 18h5M42 18h5M26 19h6M42 19h4M18 20h1M25 20h2M29 20h3M42 20h3M49 20h1M17 21h1M19 21h1M24 21h2M29 21h2M12 22h1M16 22h1M23 22h2M29 22h1M48 22h1M12 23h5M20 23h1M22 23h2M13 24h5M20 24h3M15 25h4M16 26h2M14 27h1M14 28h1M13 29h1M13 30h3M15 31h1M13 32h3M31 32h2M31 33h3M29 34h6M11 35h6M28 35h3M9 36h1M15 36h3M27 36h1M8 37h2M14 37h1M16 37h2M8 38h1M10 38h1M16 38h1M8 39h1M16 39h1M28 39h2M25 40h4M35 40h2M23 41h5M34 41h3M21 42h7M33 42h3M21 43h6M32 43h3M23 44h3M32 44h2M24 45h2M31 45h4M30 46h3M18 49h1M18 50h2M20 51h1M21 52h1M18 53h1M16 54h6M46 54h1M15 55h5M44 55h2M44 56h5" />
<path stroke="#e0a050" d="M24 7h1M18 8h2M23 8h1M18 9h1M20 9h1M12 11h2M11 12h1M41 13h1M49 13h1M34 19h1M19 20h1M14 21h1M11 22h1M20 22h1M40 22h1M38 23h3M28 24h1M36 24h3M14 25h1M34 25h3M31 26h1M33 26h2M52 26h1M17 27h1M32 27h2M35 27h1M39 27h1M52 27h2M31 28h2M34 28h2M40 28h2M51 28h4M10 29h1M30 29h2M33 29h3M51 29h1M28 30h2M32 30h3M50 30h3M25 31h3M32 31h2M48 31h1M51 31h1M39 32h1M41 32h2M15 33h2M21 33h1M30 33h1M38 33h1M40 33h4M21 34h1M24 34h1M39 34h5M53 34h3M23 35h1M40 35h5M54 35h3M7 36h1M43 36h2M55 36h2M15 37h1M45 37h1M55 37h3M9 38h1M12 38h1M55 38h3M13 39h2M17 39h1M55 39h3M8 40h1M10 40h1M13 40h2M16 40h1M24 40h1M55 40h3M10 41h2M13 41h2M17 41h1M22 41h1M55 41h3M15 42h2M44 42h2M56 42h2M42 43h4M57 43h1M41 44h4M40 45h5M20 46h1M40 46h4M54 46h2M21 47h1M23 47h1M39 47h5M54 47h2M24 48h2M38 48h5M54 48h2M25 49h3M35 49h7M24 50h1M27 50h10M38 50h3M51 50h2M23 51h2M30 51h8M39 51h2M49 51h5M22 52h2M40 52h2M47 52h6M22 53h2M40 53h1M47 53h5M24 54h1M38 54h2M48 54h2M22 55h3M21 56h2M40 56h1M19 57h2M40 57h1M41 58h3M49 58h1M43 59h1M48 59h2" />
<path stroke="#f8f8d0" d="M24 8h1M19 9h1M24 9h1M19 10h2M24 10h1M20 11h2M23 11h1M44 11h2M12 12h2M20 12h1M23 12h1M35 12h2M42 12h2M45 12h1M12 13h1M23 13h1M35 13h2M42 13h4M43 14h2M16 19h1M16 20h1M15 21h2M13 22h3M12 28h2M11 29h2M11 30h2M10 36h5M10 37h4" />
<path stroke="#f8d068" d="M14 12h1M26 12h1M14 13h1M26 13h1M37 13h1M13 14h2M26 14h1M36 14h2M22 15h1M25 16h1M32 16h1M22 17h2M32 17h1M39 17h1M18 18h1M21 18h2M33 18h1M39 18h2M17 19h2M21 19h1M32 19h2M40 19h1M50 19h1M32 20h5M50 20h1M31 21h8M43 21h9M30 22h10M43 22h4M49 22h3M29 23h9M44 23h2M50 23h2M23 24h1M29 24h7M49 24h2M19 25h15M48 25h2M18 26h1M20 26h2M23 26h4M32 26h1M47 26h2M18 27h6M37 27h2M46 27h6M36 28h4M42 28h3M46 28h5M18 29h1M36 29h10M48 29h3M19 30h1M35 30h15M16 31h1M20 31h5M34 31h5M16 32h1M33 32h6M14 33h1M23 33h2M34 33h4M11 34h4M22 34h2M35 34h4M9 35h2M22 35h1M36 35h4M52 35h2M8 36h1M22 36h1M35 36h8M52 36h3M21 37h1M38 37h4M52 37h3M11 38h1M13 38h2M17 38h1M37 38h3M52 38h3M10 39h2M36 39h3M53 39h2M11 40h1M37 40h1M53 40h2M53 41h2M22 44h1M36 44h1M22 45h2M35 45h1M39 45h1M53 45h2M23 46h3M33 46h2M37 46h3M52 46h2M20 47h1M24 47h2M27 47h1M29 47h5M36 47h3M52 47h2M21 48h2M26 48h7M34 48h4M22 49h2M28 49h7M23 50h1M44 50h2M50 50h1M21 51h2M42 51h4M42 52h3M41 53h2M22 54h1M41 54h1M20 55h2M41 55h3M47 55h1M18 56h3M41 56h3M49 56h1M41 57h4M47 57h3M48 58h1" />
<path stroke="#707070" d="M18 16h1M18 17h2M19 18h1M19 19h1M20 20h1M11 31h1M10 32h2M10 33h1M24 36h1M23 37h1M22 38h1M21 39h1M23 39h1M22 40h1M13 55h2M12 56h1M14 57h2M52 57h1M53 58h1" />
<path stroke="#f8f8f8" d="M27 21h2M17 22h2M26 22h3M18 23h1M26 23h3M24 24h1M29 27h1M16 28h1M29 28h1M13 56h2M16 57h1M51 57h1M15 58h1M46 58h1M46 59h1" />
<path stroke="#b83008" d="M27 27h1M28 28h1M20 29h2" />
<path stroke="#f85020" d="M24 28h4M22 29h6" />
</svg>