<svg xmlns="http://www.w3.org/2000/svg" viewBox="0 -0.5 64 64" shape-rendering="crispEdges">
<metadata>Made with Pixels to Svg https://codepen.io/shshaw/pen/XbxvNj</metadata>
<path stroke="#b07800" d="M26 13h1M31 13h1M25 14h1M32 14h1M35 15h1M21 17h1M20 19h1M19 21h1M19 22h1M40 23h1M40 25h2M42 26h1M43 27h1M20 29h1M32 30h1M43 31h1M41 32h2M23 33h1M25 33h1M31 33h1M36 33h1M23 34h1M26 34h1M27 35h1M29 35h1M32 35h1M33 36h1M44 36h1M25 37h1M34 37h1M29 39h1M30 40h1M35 40h1M44 40h1M31 41h1M32 42h1M40 43h1M34 44h1M42 45h1" />
<path stroke="#885800" d="M27 13h4M33 14h2M36 15h1M41 20h1M19 23h1M19 24h1M41 24h1M19 25h1M19 26h1M19 27h1M44 27h1M19 28h1M34 29h1M21 30h2M22 31h3M23 32h1M26 32h1M36 32h1M40 32h1M35 33h1M44 33h1M30 34h2M23 35h1M24 36h4M40 36h1M45 36h1M27 37h1M39 37h1M26 38h1M28 38h1M35 38h1M38 38h1M27 39h2M38 39h1M39 40h1M45 40h1M39 41h1M44 41h1M33 43h1M38 43h2M35 44h3M34 45h1M35 46h1M40 46h2M36 47h4M37 48h1M38 49h1" />
<path stroke="#e0a858" d="M24 14h1M31 14h1M23 15h1M32 15h3M22 16h1M34 16h3M34 17h4M21 18h1M35 18h4M35 19h5M20 20h1M36 20h5M36 21h5M36 22h5M36 23h4M36 24h4M36 25h3M35 26h3M39 26h3M35 27h2M38 27h5M34 28h2M37 28h2M42 28h2M33 29h1M36 29h2M42 29h2M31 30h1M34 30h2M42 30h1M28 31h1M32 31h2M40 31h1M25 32h1M29 32h1M31 32h1M35 32h1M43 32h1M28 33h2M37 33h6M28 34h1M32 34h10M43 34h1M30 35h2M34 35h2M40 35h1M42 35h2M29 36h4M39 36h1M41 36h3M30 37h4M40 37h5M30 38h4M42 38h3M31 39h3M35 39h3M43 39h2M32 40h2M32 41h2M35 41h4M43 41h1M37 42h3M43 42h1M34 43h1M37 43h1M43 43h1M38 44h4M39 45h3M40 47h2M38 48h3" />
<path stroke="#f8e098" d="M26 14h3M24 15h4M23 16h4M22 17h4M22 18h3M21 19h4M21 20h3M20 21h4M20 22h4M20 23h4M20 24h4M20 25h4M21 26h1M22 27h1M40 30h2M36 31h4M26 33h1M39 35h1M38 36h1M28 37h2M37 37h1M29 38h1M30 39h1M40 39h1M40 40h2M41 41h1" />
<path stroke="#f8d068" d="M29 14h2M28 15h4M27 16h7M26 17h8M25 18h10M25 19h10M24 20h12M24 21h12M24 22h8M34 22h2M24 23h7M35 23h1M24 24h6M35 24h1M24 25h6M35 25h1M22 26h7M34 26h1M23 27h6M33 27h2M23 28h6M31 28h3M39 28h3M23 29h10M38 29h4M23 30h8M36 30h4M25 31h3M34 31h2M24 32h1M32 32h3M24 33h1M27 33h1M24 34h2M27 34h1M24 35h2M36 35h3M28 36h1M35 36h3M26 37h1M36 37h1M27 38h1M39 38h3M39 39h1M41 39h2M31 40h1M42 40h2M40 41h1M42 41h1M35 42h2M41 42h2M35 43h2M42 43h1M35 45h4M36 46h4" />
<path stroke="#101010" d="M37 16h1M38 17h1M39 18h1M40 19h1M41 21h1M32 22h2M41 22h1M31 23h4M41 23h1M33 24h2M40 24h1M33 25h2M39 25h1M42 25h1M38 26h1M43 26h1M31 27h2M37 27h1M22 28h1M29 28h2M36 28h1M44 28h1M22 29h1M35 29h1M44 29h1M33 30h1M43 30h1M29 31h3M41 31h2M44 31h1M27 32h2M30 32h1M37 32h3M44 32h1M30 33h1M32 33h3M43 33h1M29 34h1M42 34h1M44 34h1M26 35h1M28 35h1M33 35h1M41 35h1M44 35h1M34 36h1M35 37h1M38 37h1M45 37h1M34 38h1M36 38h2M45 38h1M34 39h1M45 39h1M34 40h1M36 40h3M34 41h1M33 42h2M40 42h1M44 42h1M41 43h1M44 43h1M42 44h2M43 45h1M42 46h1M42 47h1M41 48h1M39 49h2" />
<path stroke="#333333" d="M30 24h3M32 25h1M20 26h1M33 26h1M21 27h1M21 28h1" />
<path stroke="#666666" d="M30 25h2M29 26h1M31 26h2M20 27h1M29 27h1M20 28h1" />
<path stroke="#f8f8f8" d="M30 26h1M30 27h1M21 29h1" />
</svg>