<svg xmlns="http://www.w3.org/2000/svg" viewBox="0 -0.5 64 64" shape-rendering="crispEdges">
<metadata>Made with Pixels to Svg https://codepen.io/shshaw/pen/XbxvNj</metadata>
<path stroke="#b88828" d="M37 10h5M35 11h2M42 11h1M34 12h1M33 13h1M33 14h1M32 15h1M32 16h1M47 17h1M38 21h2M39 22h1M45 26h1M44 28h1M43 29h1M38 30h1M42 30h1M37 31h6M38 32h4M38 33h3M15 42h1M10 43h3M46 43h2M46 44h3M31 45h2M46 45h2M32 46h2M47 46h1M33 47h1M48 47h1M54 48h1M23 49h3M22 50h1M23 53h1" />
<path stroke="#f8f858" d="M37 11h5M40 12h4M41 13h3M40 14h5M33 15h2M39 15h6M33 16h2M36 16h2M39 16h6M33 17h12M33 18h12M34 19h5M41 19h3M16 42h1M16 43h2M9 44h2M15 44h3M9 45h8M30 46h2M50 46h5M29 47h4M51 47h4M28 48h5M28 49h4M27 50h4M22 51h2M27 51h3M22 52h7M26 53h1" />
<path stroke="#705010" d="M43 11h1M44 12h1M45 13h1M45 14h1M46 15h1M46 16h1M32 17h1M32 18h1M47 18h1M33 19h1M47 19h1M34 20h1M36 21h2M38 22h1M47 22h1M39 23h1M46 23h1M46 24h1M47 41h1M9 43h1M13 43h2M8 44h1M8 45h1M33 45h1M50 45h2M21 51h1M21 52h1" />
<path stroke="#f8f8f8" d="M35 12h5M34 13h7M34 14h6M36 15h2M22 30h1M33 30h3M21 31h1M26 31h1M33 31h3M21 32h1M25 32h1M33 32h3M21 33h6M33 33h4M21 34h5M34 34h4M35 35h5M27 36h2M36 36h3M26 37h3M37 37h1M18 38h1M26 38h3M17 39h3M26 39h2M17 40h3M30 40h4M18 41h1M29 41h7M29 42h6M15 43h1M29 43h1M34 43h1M11 44h4M26 49h2M23 50h4M24 51h3" />
<path stroke="#e8c048" d="M44 13h1M45 15h1M45 16h1M45 17h2M45 18h2M39 19h2M44 19h3M40 20h7M41 21h6M40 22h7M40 23h6M41 24h5M41 25h5M41 26h4M40 27h5M40 28h4M39 29h4M39 30h3M48 45h2M10 46h5M48 46h2M49 47h2M50 48h4M24 53h2" />
<path stroke="#101010" d="M35 15h1M38 15h1M35 16h1M38 16h1M35 20h5M47 20h1M40 21h1M47 21h1M40 24h1M40 25h1M46 25h1M40 26h1M46 26h1M39 27h1M45 27h1M39 28h1M45 28h1M30 29h3M37 29h2M44 29h1M23 30h4M36 30h2M43 30h2M22 31h4M36 31h1M43 31h1M22 32h2M37 32h1M42 32h1M44 32h1M20 33h1M37 33h1M41 33h1M44 33h1M20 34h1M38 34h4M44 34h1M20 35h1M44 35h1M18 37h1M46 37h1M46 38h1M47 39h1M16 40h1M47 40h1M17 41h1M46 41h1M17 42h1M46 42h2M30 43h4M45 43h1M48 43h1M18 44h1M29 44h6M45 44h1M49 44h1M17 45h2M29 45h2M34 45h1M42 45h1M45 45h1M52 45h3M9 46h1M15 46h2M19 46h2M29 46h1M34 46h1M42 46h1M44 46h3M55 46h1M10 47h5M22 47h2M28 47h1M34 47h1M43 47h1M47 47h1M55 47h1M24 48h4M33 48h2M41 48h2M48 48h2M55 48h1M32 49h2M36 49h5M50 49h5M31 50h5M30 51h1M29 52h1M22 53h1M27 53h2M23 54h4" />
<path stroke="#802000" d="M36 27h3M24 28h4M34 28h2M22 29h2M28 29h2M33 29h1M21 30h1M29 30h1M32 30h1M20 31h1M29 31h1M32 31h1M20 32h1M29 32h1M32 32h1M28 33h1M32 33h1M27 34h1M33 34h1M21 35h1M26 35h1M33 35h1M43 35h1M19 36h2M22 36h3M34 36h1M43 36h1M45 36h1M19 37h1M35 37h2M42 37h1M45 37h1M17 38h1M19 38h1M37 38h5M44 38h1M16 39h1M20 39h1M30 39h4M44 39h1M20 40h1M29 40h1M35 40h1M43 40h1M16 41h1M28 41h1M36 41h1M43 41h1M21 42h1M28 42h1M37 42h1M43 42h1M18 43h1M21 43h1M27 43h1M37 43h1M42 43h1M21 44h1M27 44h1M38 44h1M42 44h1M21 45h1M27 45h1M38 45h1M41 45h1M21 46h1M27 46h1M38 46h1M40 46h2M27 47h1M38 47h5M37 48h4" />
<path stroke="#f0c8b0" d="M36 28h3M27 29h1M34 29h2M27 30h2M27 31h2M26 32h3M27 33h1M26 34h1M22 35h3M34 35h1M35 36h1M19 41h1M18 42h3M35 42h2M19 43h2M28 43h1M35 43h2M19 44h1M28 44h1M35 44h2M28 45h1M35 45h2M28 46h1M35 46h2M35 47h1" />
<path stroke="#908070" d="M24 29h3M36 29h1M24 32h1M36 32h1M42 33h1" />
<path stroke="#c03810" d="M30 30h2M30 31h2M30 32h2M29 33h3M28 34h3M25 35h1M27 35h3M33 36h1M44 36h1M34 37h1M43 37h2M34 38h3M42 38h2M34 39h10M36 40h7M21 41h1M37 41h6M22 42h1M38 42h5M22 43h5M38 43h4M22 44h5M39 44h3M22 45h5M39 45h2M22 46h5M39 46h1M24 47h3" />
<path stroke="#e09880" d="M43 32h1M43 33h1M42 34h2M40 35h3M39 36h4M38 37h4M45 38h1M45 39h2M34 40h1M44 40h3M20 41h1M44 41h2M44 42h2M43 43h2M20 44h1M37 44h1M43 44h2M19 45h2M37 45h1M43 45h2M37 46h1M43 46h1M36 47h2M35 48h2M34 49h2" />
<path stroke="#f07038" d="M31 34h2M20 37h1M32 37h2M20 38h1M31 38h3M21 39h2M29 39h1M21 40h8M22 41h6M23 42h5" />
<path stroke="#f8b078" d="M30 35h3M21 36h1M25 36h2M29 36h4M21 37h5M29 37h3M21 38h5M29 38h2M23 39h3M28 39h1" />
</svg>