<svg xmlns="http://www.w3.org/2000/svg" viewBox="0 -0.5 64 64" shape-rendering="crispEdges">
<metadata>Made with Pixels to Svg https://codepen.io/shshaw/pen/XbxvNj</metadata>
<path stroke="#68b078" d="M27 19h2M22 20h2M41 20h2M19 21h1M41 21h5M38 22h8M35 23h1M43 23h2M30 24h1M35 24h8M20 25h1M27 25h1M30 25h1M41 25h4M26 26h1M43 26h1M49 26h1M19 27h4M50 27h1M23 30h1M46 30h1M43 31h1M47 31h1M38 32h1M47 32h2M12 33h2M16 33h3M22 33h13M47 33h2M50 33h1M24 34h9M40 34h1M47 34h2M50 34h1M25 35h2M30 35h2M40 35h1M42 35h1M46 35h4M25 36h1M32 36h1M40 36h2M43 36h7M22 37h1M24 37h2M38 37h2M43 37h6M22 38h3M33 38h1M37 38h3M45 38h4M22 39h2M34 39h6M46 39h4M21 40h2M36 40h5M46 40h4M20 41h2M38 41h3M48 41h1M36 42h4M39 43h1" />
<path stroke="#508858" d="M29 19h14M24 20h3M43 20h2M52 20h1M20 21h2M51 21h1M17 22h2M51 22h1M15 23h2M36 23h7M50 23h1M14 24h1M31 24h4M16 25h1M28 25h2M19 26h1M48 26h1M49 27h1M14 28h1M48 28h3M12 29h2M47 29h4M10 30h2M48 30h2M9 31h1M39 31h4M49 31h1M27 32h4M35 32h3M49 34h1M12 35h1M27 35h3M26 36h5M30 37h2M26 38h4M25 39h2M24 40h4M25 41h3M37 41h1" />
<path stroke="#98d880" d="M27 20h14M22 21h19M19 22h19M17 23h18M15 24h15M15 25h1M17 25h3M21 25h6M31 25h10M15 26h1M18 26h1M20 26h6M31 26h12M50 26h2M30 27h11M29 28h9M17 29h3M15 30h6M24 30h4M51 30h1M13 31h15M44 31h3M50 31h2M12 32h15M39 32h8M50 32h1M35 33h6M42 33h5M33 34h7M42 34h5M23 35h2M32 35h7M43 35h3M23 36h2M33 36h6M23 37h1M33 37h5M34 38h3M17 40h1M18 41h2M45 41h3M45 42h1M47 42h2M35 43h4M35 44h1M37 44h2" />
<path stroke="#405040" d="M45 20h1M46 21h1M46 22h1M45 23h1M53 23h1M43 24h2M50 24h1M14 25h1M49 25h1M17 26h1M52 26h1M18 27h1M23 27h2M48 27h1M20 28h1M24 28h1M44 28h2M47 28h1M51 28h1M24 29h1M42 29h1M46 29h1M52 29h1M40 30h1M47 30h1M35 31h1M38 31h1M48 31h1M52 31h1M9 32h1M31 32h1M49 32h1M10 33h1M14 33h2M19 33h1M41 33h1M49 33h1M11 34h3M23 34h1M51 34h1M17 35h1M22 35h1M39 35h1M17 36h1M22 36h1M31 36h1M39 36h1M50 36h1M16 37h2M26 37h1M29 37h1M32 37h1M40 37h1M49 37h1M15 38h1M17 38h1M20 38h2M25 38h1M32 38h1M40 38h1M16 39h2M19 39h1M21 39h1M27 39h2M33 39h1M40 39h1M45 39h1M16 40h1M18 40h3M34 40h2M45 40h1M17 41h1M24 41h1M36 41h1M44 41h1M35 42h1M46 42h1M34 43h1M34 44h1M36 44h1" />
<path stroke="#f8e820" d="M52 21h1M52 22h1M51 23h2M51 24h1M50 25h2M16 26h1M28 26h2M16 27h2M26 27h3M15 28h3M25 28h3M14 29h2M25 29h9M12 30h2M28 30h3M44 30h2M10 31h2M10 32h2" />
<path stroke="#181818" d="M53 21h1M53 22h1M52 24h1M45 25h1M52 25h1M14 26h1M45 26h1M15 27h1M44 27h1M51 27h1M21 28h1M43 28h1M21 29h1M41 29h1M51 29h1M39 30h1M50 30h1M52 30h1M36 31h2M32 32h3M51 32h1M20 33h2M51 33h1M14 34h1M17 34h2M22 34h1M41 34h1M14 35h1M41 35h1M50 35h1M13 36h1M42 36h1M27 37h2M41 37h2M30 38h2M43 38h2M49 38h1M24 39h1M29 39h1M50 39h1M23 40h1M28 40h1M41 40h1M50 40h1M22 41h1M28 41h1M41 41h1M49 41h1M18 42h4M25 42h3M40 42h1M44 42h1M49 42h1M40 43h1M45 43h4M39 44h1M35 45h4" />
<path stroke="#d0d018" d="M27 26h1M30 26h1M25 27h1M29 27h1M42 27h2M18 28h2M28 28h1M39 28h4M16 29h1M34 29h7M45 29h1M14 30h1M31 30h8M43 30h1M12 31h1M28 31h7M11 33h1" />
<path stroke="#a8c040" d="M44 26h1M41 27h1M38 28h1M43 29h2M41 30h2" />
<path stroke="#c0c8d8" d="M22 28h2M20 29h1" />
<path stroke="#f8f8f8" d="M22 29h2M21 30h2M10 34h1M13 35h1M16 38h1M20 39h1" />
<path stroke="#903038" d="M19 34h3M18 35h4M18 36h2M18 37h1" />
<path stroke="#cc3333" d="M20 36h2M19 37h3M18 38h2M18 39h1" />
</svg>