<svg xmlns="http://www.w3.org/2000/svg" viewBox="0 -0.5 64 64" shape-rendering="crispEdges">
<metadata>Made with Pixels to Svg https://codepen.io/shshaw/pen/XbxvNj</metadata>
<path stroke="#c87870" d="M23 16h7M21 17h2M30 17h3M20 18h1M33 18h1M19 19h1M22 19h2M18 20h1M23 20h1M17 21h1M24 21h1M24 22h2M29 22h1M29 25h1M30 26h1M37 26h1M39 26h1M32 28h1M37 28h1M39 28h1M32 29h2M37 29h3M36 30h4M35 31h5M18 32h1M33 32h1M35 32h4M20 33h1M22 33h1M30 33h4M37 33h2M43 33h1M21 34h1M23 34h15M43 34h1M22 35h15M22 36h14M38 36h2M44 36h1M24 37h10M38 37h3M44 37h1M27 38h5M37 38h4M44 38h1M35 39h5M43 39h1M30 40h2M33 40h6M45 40h1M28 41h1M31 41h1M33 41h5M40 41h3M44 41h2M28 42h2M40 42h2M44 42h1M29 43h1M46 43h2M28 44h1M30 44h2M45 44h3M26 45h2M30 45h2M42 45h3M42 46h3" />
<path stroke="#f8b878" d="M23 17h7M21 18h11M24 19h8M19 20h4M24 20h9M19 21h5M25 21h8M18 22h6M30 22h3M18 23h11M30 23h2M19 24h1M21 24h8M30 24h2M18 25h1M20 25h1M22 25h7M30 25h1M19 26h1M21 26h1M23 26h5M40 33h2M39 34h4M42 35h2" />
<path stroke="#e89848" d="M32 18h1M32 19h3M33 20h3M18 21h1M33 21h4M33 22h5M32 23h6M17 24h2M20 24h1M32 24h7M17 25h1M19 25h1M21 25h1M31 25h8M17 26h2M20 26h1M22 26h1M28 26h2M31 26h6M17 27h13M31 27h6M17 28h13M31 28h1M35 28h2M17 29h13M35 29h2M18 30h16M35 30h1M18 31h16M19 32h14M19 33h1M21 33h1M23 33h7M20 34h1M22 34h1M21 35h1M39 35h3M40 36h4M41 37h3M41 38h3M46 41h1M27 42h1M42 42h1M45 42h2M27 43h2M41 43h3M45 43h1M26 44h2M41 44h3" />
<path stroke="#704040" d="M34 18h1M20 19h2M35 19h1M36 20h1M17 22h1M26 22h3M17 23h1M29 23h1M38 23h1M16 24h1M29 24h1M16 25h1M39 25h1M16 26h1M16 27h1M30 27h1M16 28h1M30 28h1M33 28h2M30 29h2M34 29h1M17 30h1M34 30h1M17 31h1M34 31h1M34 32h1M40 32h2M18 33h1M34 33h3M42 33h1M19 34h1M38 34h1M44 34h1M20 35h1M37 35h1M44 35h1M21 36h1M36 36h1M45 36h1M23 37h1M34 37h2M45 37h1M26 38h1M32 38h1M46 38h1M31 39h1M45 39h2M28 40h2M40 40h3M44 40h1M46 40h1M27 41h1M29 41h1M39 41h1M43 41h1M47 41h1M26 42h1M30 42h1M33 42h1M39 42h1M43 42h1M47 42h1M26 43h1M30 43h1M32 43h1M34 43h1M40 43h1M44 43h1M25 44h1M40 44h1M25 45h1M29 45h1M41 45h1M45 45h1" />
<path stroke="#202020" d="M37 21h1M38 22h1M39 24h1M40 26h1M39 27h2M38 28h1M40 28h1M16 29h1M40 29h1M40 30h1M40 31h1M39 32h1M39 33h1M22 37h1M24 38h2M27 39h4M31 43h1M38 43h2M48 43h1M29 44h1M32 44h6M44 44h1M48 44h1M28 45h1M32 45h1M46 45h2M26 46h2M30 46h2M41 46h1M45 46h1M42 47h3" />
<path stroke="#404030" d="M38 26h1M37 27h1M38 35h1M37 36h1M36 37h2M33 38h4M32 39h3M32 40h1M32 41h1" />
<path stroke="#f8f8f8" d="M38 27h1" />
<path stroke="#a8c060" d="M45 38h1M40 39h1M39 40h1M30 41h1M38 41h1M31 42h2M34 42h4" />
<path stroke="#d8f070" d="M41 39h2M44 39h1M43 40h1" />
<path stroke="#789048" d="M38 42h1M33 43h1M35 43h3" />
</svg>