<svg xmlns="http://www.w3.org/2000/svg" viewBox="0 -0.5 64 64" shape-rendering="crispEdges">
<metadata>Made with Pixels to Svg https://codepen.io/shshaw/pen/XbxvNj</metadata>
<path stroke="#b81010" d="M27 16h3M26 17h1M30 17h1M25 18h1M24 19h1M39 19h5M24 20h1M38 20h1M44 20h1M24 21h1M45 21h1M26 22h1M45 22h1M44 24h1M41 25h4" />
<path stroke="#f89090" d="M27 17h2M27 18h1M39 20h1M41 20h3M41 21h4M40 22h3" />
<path stroke="#e0d840" d="M29 17h1M26 19h1M25 20h1M40 20h1M29 21h2M39 21h2M43 23h2M39 25h1M40 26h1" />
<path stroke="#101010" d="M31 17h1M32 18h1M33 19h1M29 20h2M33 20h1M28 21h1M31 21h4M38 21h1M25 22h1M28 22h3M36 22h3M23 23h2M26 23h3M38 23h1M45 23h1M23 24h1M25 24h1M27 24h1M39 24h1M45 24h1M23 25h1M38 25h1M40 25h1M45 25h1M27 26h1M39 26h1M41 26h4M46 26h1M25 27h1M28 27h3M36 27h2M40 27h1M45 27h1M24 28h3M28 28h1M32 28h5M38 28h1M42 28h3M46 28h1M25 29h2M28 29h1M37 29h1M39 29h1M42 29h1M45 29h2M22 30h2M27 30h1M35 30h1M38 30h1M40 30h5M47 30h2M50 30h1M22 31h1M24 31h3M34 31h3M38 31h2M43 31h1M48 31h1M50 31h1M22 32h1M27 32h2M35 32h2M38 32h1M44 32h1M48 32h1M50 32h1M22 33h1M25 33h1M30 33h1M33 33h1M37 33h2M45 33h1M48 33h1M50 33h1M21 34h1M23 34h2M27 34h1M31 34h1M34 34h3M38 34h1M46 34h1M48 34h1M50 34h1M15 35h1M21 35h2M24 35h1M26 35h4M32 35h1M38 35h1M46 35h1M49 35h1M16 36h4M21 36h1M23 36h7M31 36h2M37 36h2M20 37h1M23 37h1M25 37h1M27 37h5M35 37h4M19 38h1M21 38h1M23 38h1M26 38h3M30 38h5M36 38h1M38 38h1M47 38h1M19 39h1M22 39h2M29 39h2M36 39h1M38 39h1M47 39h1M17 40h1M19 40h1M39 40h1M47 40h1M18 41h2M38 41h2M47 41h1M36 42h2M45 42h1M47 42h1M33 43h3M42 43h1M46 43h1M42 44h1M46 44h1M43 45h1M46 45h1M43 46h1M46 46h1M44 47h1M46 47h1M45 48h1" />
<path stroke="#f8f058" d="M26 18h1M25 19h1M43 22h2" />
<path stroke="#f84848" d="M28 18h4M27 19h1M31 19h2M26 20h1M32 20h1M25 21h2M39 22h1M39 23h4M40 24h3" />
<path stroke="#999999" d="M28 19h3M27 20h2M31 20h1M27 21h1M27 22h1M26 27h1M24 29h1M36 30h1M34 32h1M26 34h1M31 35h1M26 37h1M29 38h1" />
<path stroke="#a05810" d="M19 22h3M35 22h1M17 23h2M22 23h1M16 24h1M15 25h1M24 25h3M28 25h6M15 26h1M23 26h1M34 26h2M38 26h1M47 26h1M14 27h1M22 27h1M31 27h1M41 27h1M48 27h1M14 28h1M22 28h1M40 28h2M49 28h1M14 29h1M22 29h1M33 29h1M38 29h1M40 29h2M50 29h1M14 30h1M32 30h1M39 30h1M14 31h1M32 31h1M14 32h1M29 32h1M32 32h1M14 33h1M26 33h1M15 34h1M49 34h1M37 35h1M36 36h1M46 36h1M16 37h1M34 37h1M47 37h1M16 38h1M37 38h1M17 39h1M37 39h1M35 40h1M38 40h1M34 41h1M37 41h1M43 41h2M33 42h1M40 42h1M42 42h1M41 43h1" />
<path stroke="#e8d888" d="M31 22h3M30 23h4M17 24h2M16 25h3M16 26h2M28 26h4M16 27h2M16 28h2M29 28h2M16 29h1M29 29h2M28 30h2M40 32h2M40 33h2M40 34h3M41 35h2M41 36h2M44 43h1M44 44h1M44 45h1" />
<path stroke="#e0b850" d="M34 22h1M19 23h3M29 23h1M34 23h3M19 24h4M28 24h9M19 25h4M27 25h1M34 25h3M18 26h4M32 26h2M15 27h1M18 27h4M32 27h4M46 27h2M15 28h1M18 28h3M31 28h1M48 28h1M15 29h1M17 29h4M31 29h2M15 30h5M30 30h2M15 31h5M23 31h1M27 31h5M40 31h3M15 32h5M23 32h4M30 32h2M39 32h1M42 32h2M15 33h5M23 33h2M27 33h3M32 33h1M39 33h1M42 33h3M16 34h4M28 34h2M33 34h1M39 34h1M43 34h3M39 35h2M43 35h3M40 36h1M43 36h3M17 37h1M21 37h1M40 37h6M17 38h1M41 38h5M41 39h4M41 40h1M43 43h1M43 44h1M44 46h1" />
<path stroke="#b88830" d="M37 23h1M24 24h1M37 24h2M43 24h1M37 25h1M22 26h1M36 26h2M38 27h2M21 28h1M37 28h1M39 28h1M45 28h1M47 28h1M21 29h1M43 29h2M47 29h3M20 30h2M49 30h1M20 31h2M49 31h1M20 32h2M49 32h1M20 33h2M31 33h1M49 33h1M20 34h1M30 34h1M32 34h1M37 34h1M16 35h5M33 35h4M20 36h1M22 36h1M33 36h3M39 36h1M18 37h2M22 37h1M32 37h2M39 37h1M46 37h1M18 38h1M22 38h1M39 38h2M46 38h1M18 39h1M39 39h2M45 39h2M18 40h1M36 40h2M40 40h1M42 40h5M35 41h2M40 41h3M45 41h2M34 42h2M41 42h1M43 42h2M46 42h1M45 43h1M45 44h1M45 45h1M45 46h1M45 47h1" />
<path stroke="#e0e0e0" d="M24 26h3M23 27h1M27 27h1M23 28h1M27 28h1M23 29h1M27 29h1M34 29h3M24 30h3M33 30h1M37 30h1M33 31h1M37 31h1M33 32h1M37 32h1M34 33h3M25 34h1M25 35h1M30 35h1M30 36h1" />
<path stroke="#f8f0f8" d="M24 27h1M34 30h1" />
</svg>