<svg xmlns="http://www.w3.org/2000/svg" viewBox="0 -0.5 64 64" shape-rendering="crispEdges">
<metadata>Made with Pixels to Svg https://codepen.io/shshaw/pen/XbxvNj</metadata>
<path stroke="#d0b000" d="M18 6h2M39 6h1M38 7h1M37 8h1M18 10h1M20 11h1M20 12h1M24 12h1M33 12h1M37 12h1M20 13h2M26 13h1M31 13h1M37 13h1M53 13h1M55 13h2M21 14h1M36 14h2M54 14h2M21 15h1M36 15h2M53 15h2M53 16h2M49 17h1M52 17h2M20 18h1M35 18h1M38 18h1M48 18h1M52 18h2M38 19h1M49 19h2M52 19h2M34 20h2M37 20h3M21 21h1M36 21h4M52 21h1M21 22h1M35 22h4M52 22h1M21 23h1M35 23h4M51 23h2M22 24h1M33 24h6M51 24h2M21 25h1M24 25h1M30 25h7M43 25h1M51 25h2M13 26h2M29 26h6M51 26h2M14 27h2M29 27h2M32 27h1M47 27h1M51 27h2M12 28h1M15 28h1M29 28h2M42 28h2M52 28h1M14 29h1M25 29h1M29 29h1M43 29h2M50 29h2M10 30h1M13 30h1M23 30h2M29 30h2M44 30h3M50 30h1M52 30h1M9 31h1M11 31h2M22 31h2M29 31h1M46 31h1M50 31h1M52 31h1M8 32h1M22 32h1M27 32h2M40 32h1M45 32h2M51 32h1M43 33h4M51 33h1M37 34h1M43 34h2M50 34h1M52 34h2M21 35h1M38 35h1M40 35h3M51 35h4M18 36h1M28 36h2M39 36h1M41 36h3M48 36h1M50 36h3M17 37h1M28 37h1M30 37h1M40 37h1M42 37h3M49 37h1M10 38h1M28 38h1M30 38h3M41 38h1M43 38h3M49 38h3M10 39h1M25 39h1M27 39h1M29 39h1M31 39h3M40 39h1M43 39h3M50 39h2M25 40h1M27 40h1M29 40h1M31 40h4M38 40h1M40 40h1M42 40h5M50 40h1M26 41h1M28 41h1M30 41h5M37 41h1M40 41h1M42 41h5M50 41h1M15 42h1M24 42h1M26 42h1M28 42h1M30 42h4M37 42h2M40 42h1M43 42h4M14 43h1M24 43h2M29 43h4M35 43h5M41 43h1M43 43h4M26 44h2M30 44h1M41 44h1M43 44h3M18 45h2M26 45h2M31 45h3M41 45h1M43 45h3M14 46h6M25 46h1M29 46h5M35 46h1M40 46h1M42 46h3M17 47h2M26 47h1M28 47h6M36 47h5M17 48h1M26 48h7M34 48h1M37 48h3M43 48h2M16 49h1M34 49h9M12 50h1M18 50h1M34 50h1M38 50h5M17 51h2M42 51h2M13 52h1M18 52h1M12 53h3M18 53h1M11 54h1M15 54h1M16 55h1" />
<path stroke="#886000" d="M40 6h1M18 7h1M20 7h1M18 8h1M21 8h1M18 9h1M36 9h1M20 10h1M35 10h1M40 10h1M19 11h1M21 11h1M34 11h1M37 11h1M39 11h1M19 12h1M21 12h1M32 12h1M36 12h1M54 12h3M19 13h1M22 13h1M27 13h4M36 13h1M52 13h1M20 14h1M22 14h1M35 14h1M51 14h1M20 15h1M22 15h1M35 15h1M39 15h1M50 15h1M55 15h1M20 16h1M36 16h1M49 16h1M20 17h1M54 17h1M19 18h1M36 19h1M48 19h1M51 19h1M21 20h2M36 20h1M48 20h1M52 20h2M35 21h1M48 21h1M53 21h1M25 23h1M30 23h1M23 24h3M29 24h4M25 25h1M29 25h1M12 26h1M26 26h1M28 26h1M41 26h2M12 27h1M26 27h1M28 27h1M31 27h1M48 27h1M26 28h1M28 28h1M47 28h2M11 29h1M26 29h1M28 29h1M47 29h1M47 30h1M51 30h1M28 31h1M42 31h1M45 31h1M47 31h1M51 31h1M9 32h2M17 32h1M47 32h3M52 32h1M8 33h1M16 33h1M40 33h1M55 33h1M8 34h1M15 34h1M21 34h1M45 34h2M8 35h1M16 35h1M43 35h1M8 36h1M13 36h1M9 37h1M12 37h1M31 37h2M41 37h1M50 37h1M9 38h1M11 38h1M33 38h2M40 38h1M42 38h1M9 39h1M34 39h1M37 39h1M15 40h1M51 40h1M12 41h1M34 42h1M42 42h1M10 43h1M23 43h1M26 43h1M33 43h1M9 44h1M24 44h2M28 44h1M31 44h1M34 44h1M36 44h4M12 45h1M14 45h2M22 45h1M25 45h1M28 45h1M34 45h1M22 46h1M27 46h1M34 46h1M12 47h1M19 47h1M23 47h1M35 47h1M12 48h2M18 48h1M24 48h1M35 48h2M41 48h2M11 49h1M13 49h1M17 49h1M26 49h1M45 49h1M10 50h2M17 50h1M19 50h1M43 50h1M9 51h1M34 51h1M8 52h1M37 52h1M43 52h1M8 53h2M41 53h1M10 54h1M12 54h1M17 54h2M10 55h1M15 55h1M8 56h1" />
<path stroke="#f8f878" d="M19 7h1M20 8h1M38 8h1M21 9h1M37 9h1M36 10h1M35 11h2M24 15h3M23 16h5M22 17h5M28 17h1M22 18h3M22 19h4M24 20h2M32 20h2M31 21h1M30 22h1M29 23h1M9 33h2M9 34h1M13 37h2M12 38h3M12 39h3M12 40h2" />
<path stroke="#f8e828" d="M39 7h1M19 8h1M39 8h1M19 9h2M38 9h2M19 10h1M21 10h2M37 10h3M22 11h2M38 11h1M22 12h2M34 12h2M38 12h1M23 13h3M32 13h4M38 13h1M54 13h1M23 14h12M38 14h1M52 14h2M23 15h1M27 15h8M38 15h1M51 15h2M22 16h1M28 16h8M37 16h1M50 16h3M21 17h1M29 17h9M50 17h2M21 18h1M30 18h5M36 18h2M49 18h3M20 19h2M29 19h7M37 19h1M19 20h2M23 20h1M27 20h1M29 20h3M49 20h3M18 21h3M24 21h7M49 21h3M18 22h3M25 22h5M49 22h3M18 23h3M26 23h3M49 23h2M19 24h3M26 24h3M49 24h2M22 25h2M26 25h3M49 25h2M23 26h3M27 26h1M43 26h2M48 26h3M13 27h1M25 27h1M27 27h1M42 27h3M13 28h2M25 28h1M27 28h1M31 28h1M44 28h2M49 28h2M12 29h2M23 29h2M27 29h1M31 29h2M45 29h2M48 29h2M11 30h2M21 30h2M26 30h3M32 30h2M48 30h2M10 31h1M26 31h2M33 31h2M43 31h1M48 31h2M34 32h2M41 32h4M53 32h1M11 33h1M17 33h1M34 33h3M41 33h2M53 33h2M10 34h3M16 34h1M18 34h1M35 34h2M54 34h1M9 35h5M15 35h1M18 35h3M35 35h3M9 36h4M16 36h2M25 36h3M36 36h3M10 37h2M15 37h2M24 37h1M26 37h1M36 37h4M15 38h2M26 38h1M37 38h3M15 39h1M36 39h1M38 39h2M14 40h1M36 40h1M39 40h1M13 41h2M36 41h1M39 41h1M13 42h2M35 42h2M11 43h2M10 44h1M12 44h1M22 44h2M11 45h1M23 45h2M35 45h1M40 45h1M23 46h2M36 46h4M13 47h4M24 47h2M14 48h3M12 49h1M14 49h2M43 49h2M13 50h4M35 50h3M10 51h7M37 51h5M9 52h4M14 52h4M41 52h2M10 53h2M15 53h3M16 54h1" />
<path stroke="#101010" d="M40 7h1M40 8h1M22 9h1M40 9h1M23 10h1M24 11h1M25 12h1M39 12h1M57 12h1M39 13h1M57 13h1M39 14h1M56 14h1M38 16h1M55 16h1M38 17h1M39 18h1M41 18h3M54 18h1M39 19h1M44 19h1M54 19h1M46 20h1M23 21h1M32 21h3M47 21h1M24 22h1M31 22h1M39 22h1M53 22h1M24 23h1M31 23h1M39 23h1M48 23h1M53 23h1M40 24h1M43 24h1M46 24h1M48 24h1M53 24h1M13 25h2M37 25h2M40 25h1M44 25h1M48 25h1M53 25h1M15 26h1M20 26h1M35 26h3M40 26h1M47 26h1M53 26h1M16 27h1M20 27h2M33 27h2M37 27h1M41 27h1M45 27h1M49 27h2M53 27h1M16 28h4M37 28h2M41 28h1M46 28h1M51 28h1M53 28h1M15 29h1M19 29h1M37 29h6M52 29h2M14 30h1M20 30h1M25 30h1M31 30h1M38 30h1M43 30h1M53 30h1M13 31h1M21 31h1M24 31h1M30 31h1M32 31h1M40 31h2M44 31h1M53 31h1M11 32h2M21 32h1M23 32h1M29 32h1M50 32h1M54 32h1M12 33h1M21 33h1M27 33h2M33 33h1M37 33h1M50 33h1M52 33h1M13 34h1M17 34h1M22 34h1M38 34h5M49 34h1M51 34h1M55 34h1M14 35h1M17 35h1M22 35h1M26 35h4M34 35h1M44 35h4M49 35h2M55 35h1M14 36h2M23 36h2M31 36h2M40 36h1M49 36h1M53 36h2M33 37h3M51 37h2M35 38h2M52 38h1M11 39h1M24 39h1M35 39h1M42 39h1M52 39h1M11 40h1M24 40h1M35 40h1M37 40h1M41 40h1M24 41h1M35 41h1M38 41h1M41 41h1M51 41h1M11 42h2M23 42h1M39 42h1M41 42h1M50 42h1M6 43h4M13 43h1M22 43h1M27 43h2M34 43h1M40 43h1M42 43h1M49 43h1M11 44h1M14 44h2M18 44h4M29 44h1M32 44h2M35 44h1M40 44h1M42 44h1M48 44h1M10 45h1M13 45h1M16 45h2M20 45h1M29 45h2M36 45h4M42 45h1M47 45h1M11 46h3M20 46h1M26 46h1M28 46h1M41 46h1M45 46h1M27 47h1M34 47h1M41 47h4M19 48h1M25 48h1M33 48h1M40 48h1M18 49h1M27 49h5M44 50h5M19 51h1M35 51h2M19 52h1M38 52h3M19 53h1M42 53h5M13 54h2M19 54h1M11 55h1M19 55h1M9 56h1M19 56h1M6 57h2M19 57h1M19 58h1" />
<path stroke="#663300" d="M21 16h1M16 17h4M15 18h1M40 18h1M13 19h1M19 19h1M18 20h1M40 20h1M45 20h1M11 21h1M17 21h1M41 21h1M11 22h1M17 22h1M48 22h1M11 23h1M17 23h1M12 24h1M18 24h1M39 24h1M45 24h1M19 25h2M47 25h1M21 26h2M45 26h1M19 27h1M23 27h2M36 27h1M46 27h1M20 28h1M23 28h2M32 28h1M36 28h1M21 29h2M30 29h1M33 29h1M36 29h1M34 30h1M37 30h1M39 30h1M25 31h1M35 31h1M26 32h1M33 32h1M22 33h1M34 34h1M23 35h1M25 35h1M39 35h1M30 36h1M35 36h1M44 36h1M47 36h1M45 37h1M48 37h1M46 38h1M48 38h1M41 39h1M46 39h1M49 39h1M47 40h1M49 40h1M47 41h1M49 41h1M47 42h1M49 42h1M47 43h1M46 44h1M46 45h1" />
<path stroke="#f08888" d="M27 17h1M25 18h1M29 18h1M26 20h1M28 20h1" />
<path stroke="#d0b050" d="M16 18h1M15 19h3M13 20h5M14 21h3" />
<path stroke="#a88028" d="M17 18h2M18 19h1M42 20h3M12 21h2M42 21h4M12 22h5M42 22h3M12 23h4M43 23h1M13 24h1M45 25h2M46 26h1M22 27h1M21 28h2M20 29h1M24 32h2M23 33h4M23 34h3M45 36h2M46 37h2M47 38h1M47 39h2M48 40h1M48 41h1M48 42h1M48 43h1M47 44h1" />
<path stroke="#f04030" d="M26 18h3M26 19h3M25 37h1M27 37h1M29 37h1M25 38h1M27 38h1M29 38h1M26 39h1M28 39h1M30 39h1M26 40h1M28 40h1M30 40h1M25 41h1M27 41h1M29 41h1M25 42h1M27 42h1M29 42h1" />
<path stroke="#886010" d="M14 19h1M40 19h4M11 20h2M41 20h1M46 21h1M45 22h3M16 23h1M44 23h4M14 24h4M44 24h1M47 24h1M15 25h4M39 25h1M16 26h4M38 26h2M17 27h2M35 27h1M38 27h3M33 28h3M39 28h2M34 29h2M35 30h2M31 31h1M36 31h1M30 32h3M29 33h4M26 34h8M24 35h1M30 35h4M33 36h2" />
<path stroke="#f8f8f8" d="M22 21h1M22 22h1M32 22h2M40 22h1M22 23h2M32 23h2M40 23h2M41 24h1M41 25h2M19 30h1M19 31h2M19 32h2M37 32h3M19 33h1M48 33h1M48 34h1M19 37h4M18 38h3M22 38h2M18 39h3M23 39h1M6 42h2M15 43h1M16 44h1M32 50h2M8 54h2M7 55h3M17 55h1M7 56h1M17 56h1" />
<path stroke="#585858" d="M40 21h1M41 22h1M42 23h1M18 29h1M18 30h1M18 31h1M37 31h3M18 32h1M36 32h1M18 33h1M47 33h1M19 34h2M47 34h1M48 35h1M19 36h4M18 37h1M23 37h1M17 38h1M24 38h1M16 39h2M9 40h2M6 41h3M15 41h2M5 42h1M10 42h1M17 42h1M5 43h1M18 43h1M45 48h3M32 49h2M48 49h1M31 50h1M32 51h2M44 51h2M46 52h1M7 53h1M7 54h1M6 55h1M6 56h1M16 56h1M17 57h1M18 58h1" />
<path stroke="#d8d8d8" d="M23 22h1M34 22h1M34 23h1M42 24h1M20 33h1M38 33h2M49 33h1M21 38h1M21 39h2M18 40h6M19 41h3M8 42h1M16 42h1M16 43h2M17 44h1M46 49h2M44 52h2M18 55h1M18 56h1M18 57h1" />
<path stroke="#b0b0b0" d="M16 40h2M9 41h3M17 41h2M22 41h2M9 42h1M18 42h5M19 43h3M13 44h1" />
</svg>