<svg xmlns="http://www.w3.org/2000/svg" viewBox="0 -0.5 64 64" shape-rendering="crispEdges">
<metadata>Made with Pixels to Svg https://codepen.io/shshaw/pen/XbxvNj</metadata>
<path stroke="#4890c0" d="M31 8h1M30 9h1M29 19h1M30 20h1M31 21h1M37 21h3M31 22h1M37 22h6M37 23h4M43 23h1M36 24h5M36 25h5M23 26h2M36 26h6M45 26h1M23 27h2M33 27h1M38 27h3M42 27h2M23 28h2M31 28h1M41 28h3M47 28h1M21 29h1M30 29h1M39 29h5M22 30h1M29 30h1M37 30h1M39 30h4M25 31h1M30 31h3M36 31h3M30 32h1M33 32h6M30 33h1M37 33h2M30 34h1" />
<path stroke="#205080" d="M32 8h1M29 9h1M28 10h1M35 10h1M27 11h1M34 11h1M26 12h1M34 12h1M26 13h1M34 13h1M25 14h1M34 14h1M25 15h1M34 15h1M25 16h1M35 16h1M25 17h1M35 17h1M23 18h2M36 18h1M37 19h1M28 20h2M38 20h2M24 21h1M27 21h1M30 21h1M40 21h3M27 22h1M30 22h1M43 22h1M28 23h2M42 23h1M25 24h1M23 25h2M22 26h1M27 26h1M31 26h1M42 26h3M21 27h1M25 27h2M32 27h1M37 27h1M41 27h1M46 27h1M21 28h1M25 28h1M38 28h3M25 29h1M31 29h1M37 29h2M47 29h1M25 30h2M30 30h3M36 30h1M38 30h1M47 30h1M22 31h3M27 31h3M33 31h3M47 31h1M24 32h1M29 32h1M24 33h1M34 33h1M28 34h1M32 34h1M37 34h1M29 35h1" />
<path stroke="#101010" d="M33 8h3M44 16h1M44 17h1M44 18h1M23 19h1M44 19h1M23 20h1M43 20h1M43 21h1M24 22h1M24 23h1M42 24h1M25 25h1M42 25h1M25 26h1M34 27h3M26 28h1M32 28h2M27 29h1M34 29h1M28 30h1M39 31h1M39 32h5M46 32h1M25 33h3M35 33h2M39 33h1M41 33h1M44 33h2M33 34h1M38 34h1M42 34h1M30 35h2M43 35h1M44 37h1M24 38h1M44 38h1M22 39h1M25 39h1M23 40h1M26 40h1M24 41h1M43 41h1M24 42h1M27 42h1M42 42h1M27 43h1M41 43h1M23 44h1M40 44h1M22 45h1M26 46h1M35 47h1M25 48h1M19 49h2M24 49h1M34 49h1M17 50h2M23 50h1M34 50h1M18 51h4M29 51h1M34 51h1M34 52h1M30 53h1M34 53h1M32 54h2" />
<path stroke="#68b0e0" d="M31 9h4M31 10h3M32 11h1M32 12h1M32 13h1M26 14h2M31 14h2M26 15h7M26 16h8M26 17h8M25 18h10M24 19h4M30 19h6M24 20h3M31 20h6M25 21h2M32 21h5M25 22h2M32 22h5M25 23h3M30 23h7M41 23h1M26 24h10M41 24h1M26 25h10M41 25h1M26 26h1M28 26h3M32 26h4M22 27h1M27 27h5M44 27h2M22 28h1M27 28h4M44 28h3M23 29h2M28 29h2M44 29h3M43 30h4M26 31h1M44 31h2M25 32h3M31 32h2M31 33h3M31 34h1" />
<path stroke="#98e0f0" d="M35 9h1M29 10h2M34 10h1M28 11h4M33 11h1M27 12h5M33 12h1M27 13h5M33 13h1M28 14h3M33 14h1M33 15h1M34 16h1M34 17h1M35 18h1M28 19h1M36 19h1M27 20h1M37 20h1M22 29h1M23 30h2M40 31h4M46 31h1M28 32h1M44 32h2M28 33h2M29 34h1" />
<path stroke="#801010" d="M36 9h4M27 10h1M40 10h2M42 11h1M43 12h1M24 13h1M43 13h1M23 14h1M44 14h1M23 15h1M44 15h1M23 16h1M23 17h1" />
<path stroke="#b02820" d="M26 10h1M36 10h4M25 11h1M35 11h2M40 11h2M24 12h1M35 12h1M41 12h2M35 13h1M41 13h1M24 14h1M35 14h1M35 15h2M36 16h3M36 17h2M37 18h1M38 19h1M28 22h1" />
<path stroke="#f8f8f8" d="M26 11h1M25 12h1M37 12h3M37 13h3M37 14h3M28 21h1M35 29h2M33 30h3" />
<path stroke="#f8c0b8" d="M37 11h3M36 12h1M40 12h1M25 13h1M36 13h1M40 13h1M36 14h1M40 14h1M37 15h3M41 15h2M41 16h2" />
<path stroke="#f85048" d="M42 13h1M41 14h3M24 15h1M40 15h1M43 15h1M24 16h1M39 16h2M43 16h1M24 17h1M38 17h6M38 18h6M39 19h5M40 20h3M29 21h1M29 22h1" />
<path stroke="#cccccc" d="M34 28h4M26 29h1M32 29h2M27 30h1" />
<path stroke="#505020" d="M22 32h1M23 33h1M22 34h1M40 34h1M20 35h1M22 35h1M41 35h1M20 36h1M22 36h1M41 36h1M43 36h1M21 37h1M23 37h1M42 37h1M21 38h1M42 38h1M42 39h1M44 39h1M41 40h1M44 40h1M26 41h1M40 41h1M38 42h1M24 43h1M36 43h1M27 44h1M34 44h1M39 44h1M21 45h1M26 45h1M32 45h2M38 45h1M18 46h2M31 46h1M36 46h2M17 47h1M25 47h1M30 47h1M16 48h1M21 48h1M34 48h1M16 49h1M29 49h1M22 50h1M29 50h1M30 52h1M31 54h1" />
<path stroke="#b0a870" d="M23 32h1M22 33h1M40 33h1M21 34h1M41 34h1M21 35h1M42 35h1M21 36h1M42 36h1M22 37h1M43 37h1M22 38h1M43 38h1M23 39h1M43 39h1M24 40h1M42 40h1M41 41h1M25 42h2M25 43h1M24 44h2M23 45h2M21 46h4M18 47h6M22 48h1M21 49h1" />
<path stroke="#808040" d="M21 33h1M20 34h1M23 38h1M24 39h1M25 40h1M43 40h1M25 41h1M42 41h1M39 42h1M41 42h1M26 43h1M37 43h1M40 43h1M26 44h1M35 44h1M38 44h1M25 45h1M36 45h2M20 46h1M25 46h1M34 46h2M24 47h1M32 47h3M23 48h2M31 48h3M22 49h2M31 49h3M19 50h3M31 50h3M31 51h3M31 52h3M31 53h3" />
<path stroke="#d0c090" d="M40 42h1M38 43h2M36 44h2M34 45h2M32 46h2M31 47h1M17 48h4M30 48h1M17 49h2M30 49h1M30 50h1M30 51h1" />
</svg>