<svg xmlns="http://www.w3.org/2000/svg" viewBox="0 -0.5 64 64" shape-rendering="crispEdges">
<metadata>Made with Pixels to Svg https://codepen.io/shshaw/pen/XbxvNj</metadata>
<path stroke="#999999" d="M8 9h1M7 10h1M48 10h5M6 11h1M47 11h1M53 11h2M46 12h1M55 12h1M5 13h1M46 13h1M5 14h1M46 14h1M49 14h1M5 15h1M45 15h1M51 15h1M6 16h1M45 16h1M7 17h1M45 17h1M8 18h1M44 18h1M44 19h1M44 20h1M34 21h1M44 21h1M35 22h1M45 22h1M51 23h1M36 24h1M47 24h1M36 25h1M42 25h1M48 25h1M36 26h1M42 26h1M42 27h2M43 28h2M48 28h1M0 29h4M44 29h5M44 30h4M45 31h3M46 32h1M0 36h2M0 37h1M1 38h1M52 47h1M52 48h1M50 49h1M52 49h2M50 50h4M51 51h3M52 52h2M52 53h2M52 54h1M14 59h2M13 60h1M15 60h1M37 60h1M36 61h1" />
<path stroke="#484880" d="M9 9h2M11 10h1M12 11h5M20 11h4M28 11h2M13 12h1M16 12h3M24 12h2M13 13h1M15 13h1M53 13h1M56 13h1M14 14h1M52 14h3M56 14h1M52 15h3M56 15h1M23 16h3M28 16h1M55 16h1M14 17h1M16 17h1M19 17h1M21 17h1M25 17h1M55 17h1M15 18h2M20 18h1M54 18h1M9 19h1M12 19h1M54 19h1M10 20h2M53 20h1M11 21h1M14 21h2M30 21h1M53 21h1M11 22h1M30 22h1M44 22h1M52 22h1M11 23h1M20 23h2M23 23h1M28 23h3M44 23h1M46 23h2M52 23h1M13 24h1M22 24h1M26 24h2M31 24h1M43 24h1M48 24h1M16 25h1M41 26h1M33 27h1M41 27h1M42 28h1M32 29h1M43 29h1M0 30h1M4 30h3M31 30h1M42 30h1M1 31h1M4 31h1M7 31h2M13 31h3M44 31h1M2 32h5M9 32h1M16 32h1M45 32h1M4 33h1M9 33h1M39 33h2M46 33h1M3 34h1M9 34h1M13 34h1M16 34h1M38 34h1M46 34h1M2 35h1M4 35h3M9 35h1M13 35h1M16 35h1M33 35h1M37 35h1M9 36h1M13 36h1M16 36h1M33 36h1M36 36h1M41 36h1M48 36h1M3 37h1M8 37h1M13 37h1M16 37h1M33 37h1M36 37h1M40 37h1M48 37h1M2 38h1M7 38h1M13 38h1M16 38h1M34 38h1M36 38h1M39 38h1M11 39h2M16 39h1M35 39h2M38 39h2M11 40h1M37 40h1M17 41h1M17 42h1M45 42h1M43 43h1M44 44h1M18 45h1M39 45h3M38 46h1M47 46h2M60 46h2M19 47h1M37 47h1M48 47h1M59 47h1M61 47h1M20 48h1M37 48h1M49 48h1M57 48h2M14 49h1M20 49h1M36 49h1M55 49h2M13 50h1M21 50h1M36 50h1M13 51h1M22 51h1M36 51h1M50 51h1M60 51h1M22 52h1M36 52h1M50 52h2M23 53h1M36 53h1M48 53h1M50 53h1M14 54h1M24 54h2M36 54h1M50 54h1M25 55h1M37 55h1M47 55h1M50 55h1M25 56h2M38 56h1M46 56h1M50 56h1M25 57h2M39 57h1M50 57h1M16 58h1M24 58h3M38 58h1M49 58h2M16 59h1M19 59h1M22 59h1M25 59h1M42 59h2M49 59h2M20 60h2M25 60h1M39 60h1M41 60h1M48 60h2M40 61h1M48 61h1M36 62h1M41 62h1M45 62h2M42 63h1" />
<path stroke="#cccccc" d="M8 10h3M7 11h5M7 12h6M8 13h5M9 14h4M10 15h3M11 16h2M12 17h1M23 17h2M51 17h4M12 18h1M50 18h4M50 19h4M49 20h4M49 21h4M38 22h1M48 22h4M48 23h3M47 25h1M47 26h2M46 27h3M45 28h3M2 31h1M6 34h1M18 34h1M18 35h1M18 36h1M18 37h1M18 38h1M33 38h1M18 39h1M34 39h1M34 40h2M40 43h1M48 43h1M41 44h3M48 44h2M48 45h3M49 46h3M49 47h3M50 48h2M51 49h1M24 59h1M19 60h1M24 60h1M44 60h2M50 60h1M39 61h1M45 61h2M49 61h3M44 62h1" />
<path stroke="#4080c0" d="M19 11h1M27 11h1M14 12h2M26 12h1M29 12h1M29 13h1M13 14h1M29 14h1M20 15h1M29 15h1M14 16h1M17 16h3M22 16h1M26 16h1M29 16h2M17 17h2M27 17h5M17 18h3M25 18h1M29 18h3M21 19h4M29 19h4M17 20h1M29 20h4M16 21h1M28 21h2M31 21h3M27 22h3M31 22h3M14 23h1M24 23h4M31 23h3M32 24h2M32 25h2M32 26h2M32 27h1M36 29h6M35 30h1M41 30h1M5 31h2M10 31h3M34 31h1M42 31h1M7 32h2M12 32h1M34 32h1M42 32h2M2 33h1M7 33h2M16 33h1M33 33h1M44 33h1M2 34h1M7 34h2M33 34h1M41 34h3M7 35h2M15 35h1M34 35h1M42 35h3M5 36h4M14 36h2M34 36h1M5 37h3M9 37h4M14 37h2M34 37h2M8 38h5M14 38h2M35 38h1M37 38h1M44 38h1M13 39h3M37 39h1M42 39h5M41 40h5M41 41h5M41 42h4M17 45h1M42 45h4M16 46h1M44 46h3M15 47h1M45 47h3M14 48h1M45 48h4M45 49h4M60 49h1M20 50h1M45 50h4M59 50h2M20 51h1M44 51h5M58 51h2M19 52h2M44 52h5M55 52h5M19 53h2M22 53h1M44 53h4M55 53h4M18 54h2M21 54h3M43 54h5M49 54h1M54 54h4M15 55h4M20 55h5M41 55h6M49 55h1M53 55h4M19 56h6M39 56h7M48 56h2M52 56h4M17 57h8M46 57h4M52 57h2M17 58h7M41 58h8M20 59h2M38 59h1M46 59h3M47 60h1" />
<path stroke="#f8f8f8" d="M48 11h5M6 12h1M47 12h1M53 12h2M6 13h2M47 13h1M54 13h2M6 14h3M47 14h2M55 14h1M6 15h4M46 15h5M55 15h1M7 16h4M46 16h9M8 17h4M13 17h1M22 17h1M33 17h1M46 17h5M9 18h3M13 18h1M21 18h1M23 18h2M33 18h3M45 18h5M10 19h2M34 19h3M45 19h5M34 20h4M45 20h4M35 21h3M45 21h4M36 22h2M46 22h2M13 23h1M22 23h1M36 23h3M45 23h1M37 24h2M44 24h3M37 25h3M43 25h4M37 26h3M43 26h4M36 27h5M44 27h2M35 28h7M34 29h2M42 29h1M1 30h3M33 30h2M43 30h1M3 31h1M17 31h1M23 31h1M33 31h1M32 32h2M5 33h2M32 33h1M4 34h2M17 34h1M32 34h1M17 35h1M32 35h1M2 36h1M17 36h1M32 36h1M45 36h3M1 37h2M17 37h1M32 37h1M44 37h3M17 38h1M32 38h1M45 38h2M17 39h1M33 39h1M17 40h1M38 40h2M37 41h3M46 42h1M44 43h3M46 44h1M17 59h2M23 59h1M14 60h1M16 60h3M22 60h2M38 60h1M42 60h2M37 61h2M41 61h4M42 62h2" />
<path stroke="#80d0f8" d="M19 12h4M27 12h2M16 13h6M26 13h1M15 14h4M21 15h2M20 16h2M13 19h4M12 20h3M12 21h1M37 30h3M36 31h3M10 32h2M36 32h2M3 33h1M10 33h1M36 33h1M3 35h1M3 36h1M17 46h1M16 47h3M15 48h4M40 48h2M15 49h3M39 49h3M14 50h4M39 50h3M15 51h2M38 51h3M42 51h1M38 52h2M41 52h1M40 53h1" />
<path stroke="#68a8e0" d="M23 12h1M14 13h1M22 13h4M27 13h1M19 14h8M14 15h6M23 15h3M15 16h2M15 17h1M20 17h1M26 17h1M26 18h3M17 19h4M25 19h4M15 20h2M18 20h11M13 21h1M17 21h11M12 22h15M36 30h1M40 30h1M35 31h1M39 31h3M14 32h2M35 32h1M38 32h4M11 33h2M14 33h2M34 33h2M37 33h2M10 34h3M14 34h2M34 34h4M39 34h2M10 35h3M14 35h1M35 35h2M38 35h4M4 36h1M10 36h3M35 36h1M37 36h4M4 37h1M37 37h3M41 37h3M38 38h1M40 38h4M40 39h2M40 40h1M40 41h1M18 46h1M39 46h5M38 47h7M60 47h1M19 48h1M38 48h2M42 48h3M59 48h2M18 49h2M37 49h2M42 49h3M57 49h3M18 50h2M37 50h2M42 50h3M55 50h4M14 51h1M17 51h3M37 51h1M41 51h1M43 51h1M55 51h3M14 52h5M37 52h1M40 52h1M42 52h2M14 53h5M37 53h3M41 53h3M15 54h3M37 54h6M38 55h3M39 58h2M39 59h3M40 60h1" />
<path stroke="#101010" d="M30 12h1M48 12h5M28 13h1M30 13h1M48 13h5M27 14h2M30 14h1M42 14h1M50 14h2M13 15h1M26 15h3M30 15h1M33 15h3M42 15h1M13 16h1M27 16h1M31 16h1M38 16h1M42 16h1M32 17h1M42 17h1M14 18h1M22 18h1M32 18h1M33 19h1M33 20h1M34 22h1M42 22h2M12 23h1M15 23h5M34 23h2M41 23h3M14 24h2M23 24h3M34 24h2M40 24h3M49 24h4M56 24h1M26 25h1M34 25h2M40 25h2M49 25h4M26 26h1M34 26h2M40 26h1M49 26h4M55 26h1M34 27h2M49 27h4M33 28h2M49 28h3M54 28h1M33 29h1M49 29h3M53 29h1M17 30h1M32 30h1M48 30h5M18 31h1M30 31h3M43 31h1M48 31h3M13 32h1M29 32h3M44 32h1M47 32h3M13 33h1M26 33h4M41 33h3M45 33h1M47 33h2M19 34h5M44 34h2M47 34h1M55 34h1M45 35h3M55 35h1M42 36h3M55 36h1M47 37h1M55 37h1M3 38h4M47 38h1M55 38h1M7 39h4M47 39h1M55 39h1M12 40h5M36 40h1M46 40h1M55 40h1M36 41h1M46 41h1M55 41h1M37 42h4M47 42h1M41 43h2M47 43h1M54 43h1M45 44h1M47 44h1M54 44h1M37 45h2M46 45h2M54 45h1M35 46h2M53 46h1M53 47h1M53 48h1M61 48h1M49 49h1M54 49h1M61 49h1M49 50h1M54 50h1M61 50h1M21 51h1M49 51h1M54 51h1M13 52h1M21 52h1M49 52h1M54 52h1M60 52h1M13 53h1M21 53h1M35 53h1M49 53h1M51 53h1M54 53h1M59 53h1M20 54h1M32 54h3M48 54h1M51 54h1M53 54h1M58 54h1M14 55h1M19 55h1M26 55h1M48 55h1M51 55h2M57 55h1M15 56h4M27 56h3M47 56h1M51 56h1M56 56h1M16 57h1M27 57h1M33 57h6M40 57h6M51 57h1M54 57h2M27 58h1M51 58h3M26 59h1M44 59h2M51 59h1M26 60h1M46 60h1M51 60h1M14 61h12M47 61h1M52 61h1M37 62h4M47 62h6M43 63h2" />
<path stroke="#684838" d="M42 13h4M31 15h2M36 15h1M43 15h1M37 16h1M39 16h1M43 16h2M34 17h2M40 17h2M43 17h2M56 17h1M36 18h1M42 18h2M56 18h1M37 19h1M42 19h2M57 19h1M38 20h1M40 20h2M43 20h1M54 20h1M57 20h1M38 21h2M43 21h1M54 21h1M57 21h1M39 22h1M41 22h1M53 22h2M57 22h1M39 23h2M53 23h1M57 23h1M39 24h1M55 25h2M17 26h1M17 27h1M55 27h1M17 28h1M32 28h1M17 29h1M31 29h1M54 29h1M30 30h1M54 30h1M16 31h1M29 31h1M51 31h1M54 31h1M17 32h1M27 32h2M50 32h1M52 32h1M55 32h1M17 33h2M25 33h1M49 33h1M53 33h1M55 33h1M24 34h1M48 34h1M53 34h1M19 35h1M54 35h1M19 36h1M19 37h1M19 38h1M35 41h1M47 41h1M55 42h1M39 43h1M39 44h2M51 45h1M53 45h1M19 46h1M52 46h1M27 55h1M30 56h1M31 57h2" />
<path stroke="#e0a858" d="M43 14h3M44 15h1M32 16h5M36 17h4M37 18h5M55 18h1M38 19h4M55 19h2M39 20h1M55 20h2M55 21h2M55 22h2M54 23h3M53 24h3M53 25h2" />
<path stroke="#986848" d="M42 20h1M40 21h3M40 22h1M53 26h2M53 27h2M52 28h2M52 29h1M54 36h1M54 37h1M54 38h1M32 39h1M54 39h1M33 40h1M54 40h1M34 41h1M53 41h2M48 42h1M53 42h2M49 43h1M52 43h2M50 44h4M52 45h1" />
<path stroke="#a86020" d="M16 24h6M17 25h9M18 26h3M24 26h2M18 27h2M25 27h2M18 28h1M25 28h2M18 29h1M24 29h2M18 30h1M23 30h3M22 31h1M24 31h1M19 32h5M19 39h12M20 46h1M33 46h2M21 47h12M26 54h6" />
<path stroke="#f8d068" d="M28 24h2M27 25h4M27 26h4M27 27h4M27 28h3M27 29h3M26 30h3M25 31h3M24 32h2M25 34h6M20 35h11M20 36h11M20 37h11M21 38h9M19 41h13M19 42h14M19 43h14M19 44h15M19 45h15M22 46h10M21 49h12M22 50h10M23 51h7" />
<path stroke="#e8a858" d="M30 24h1M31 25h1M21 26h3M31 26h1M20 27h5M31 27h1M19 28h6M30 28h1M19 29h5M26 29h1M30 29h1M19 30h4M29 30h1M19 31h3M28 31h1M18 32h1M26 32h1M19 33h6M30 33h1M20 38h1M30 38h1M31 39h1M19 40h14M32 41h2M33 42h4M33 43h6M34 44h5M34 45h3M21 46h1M32 46h1M37 46h1M20 47h1M33 47h4M21 48h16M33 49h3M32 50h4M30 51h6M23 52h13M24 53h11M35 54h1M28 55h9M31 56h7" />
<path stroke="#b88838" d="M31 28h1M53 30h1M52 31h2M51 32h1M53 32h2M31 33h1M50 33h3M54 33h1M31 34h1M49 34h4M54 34h1M31 35h1M48 35h6M31 36h1M49 36h5M31 37h1M49 37h5M31 38h1M48 38h6M48 39h6M18 40h1M47 40h7M18 41h1M48 41h5M18 42h1M49 42h4M18 43h1M50 43h2M18 44h1" />
</svg>