<svg xmlns="http://www.w3.org/2000/svg" viewBox="0 -0.5 96 96" shape-rendering="crispEdges">
<metadata>Made with Pixels to Svg https://codepen.io/shshaw/pen/XbxvNj</metadata>
<path stroke="#120b0b" d="M34 33h2M58 33h2M33 34h1M36 34h1M42 34h6M53 34h3M57 34h1M60 34h1M33 35h1M37 35h1M39 35h3M48 35h2M52 35h1M56 35h1M60 35h1M33 36h1M37 36h2M50 36h2M56 36h1M60 36h1M34 37h1M36 37h1M51 37h1M55 37h1M60 37h1M35 38h1M54 38h4M60 38h1M35 39h1M46 39h1M54 39h2M58 39h1M60 39h1M62 39h2M33 40h2M47 40h1M53 40h1M56 40h1M59 40h3M64 40h1M32 41h1M34 41h1M48 41h1M56 41h1M60 41h1M64 41h1M32 42h1M34 42h1M45 42h7M56 42h2M60 42h1M64 42h1M31 43h1M34 43h1M44 43h3M52 43h1M55 43h1M57 43h1M61 43h1M63 43h1M31 44h1M34 44h1M43 44h3M49 44h3M53 44h1M56 44h1M61 44h1M63 44h1M30 45h1M34 45h1M43 45h2M48 45h2M51 45h1M53 45h3M62 45h1M30 46h1M35 46h1M43 46h2M47 46h2M51 46h1M53 46h2M62 46h1M30 47h1M35 47h1M43 47h1M46 47h3M51 47h1M53 47h2M62 47h1M30 48h1M34 48h2M43 48h1M45 48h1M47 48h2M50 48h1M52 48h2M58 48h1M62 48h1M30 49h1M34 49h1M36 49h1M43 49h1M46 49h4M52 49h2M59 49h1M62 49h1M31 50h3M36 50h1M44 50h1M51 50h1M53 50h1M59 50h1M62 50h1M36 51h1M45 51h6M52 51h1M59 51h2M62 51h1M35 52h1M52 52h2M59 52h4M35 53h1M52 53h2M59 53h2M63 53h1M35 54h1M51 54h2M59 54h1M63 54h1M35 55h1M51 55h2M59 55h1M63 55h1M35 56h1M43 56h2M50 56h2M59 56h2M64 56h1M36 57h1M43 57h2M49 57h3M58 57h1M60 57h1M64 57h1M36 58h1M43 58h1M48 58h1M50 58h3M58 58h1M61 58h1M64 58h1M37 59h1M47 59h5M53 59h1M57 59h1M62 59h2M38 60h1M46 60h1M48 60h2M53 60h1M56 60h1M39 61h7M47 61h2M52 61h1M55 61h1M43 62h4M52 62h3M39 63h4M51 63h1M38 64h1M51 64h1M37 65h1M50 65h1M37 66h1M49 66h1M38 67h1M49 67h1M39 68h3M49 68h1M42 69h2M48 69h1M44 70h4" />
<path stroke="#ffedff" d="M34 34h1M58 34h2M34 35h1M42 35h5M53 35h2M57 35h2M40 36h9M52 36h2M57 36h1M37 37h13M52 37h2M37 38h9M47 38h6M36 39h10M48 39h5M35 40h11M51 40h2M35 41h5M41 41h3M53 41h1M35 42h4M40 42h3M35 43h7M36 44h5M36 45h5M50 45h1M36 46h5M49 46h2M37 47h4M49 47h2M37 48h5M46 48h1M49 48h1M37 49h5M37 50h6M37 51h7M37 52h12M36 53h13M36 54h14M37 55h5M45 55h5M37 56h5M46 56h3M38 57h4M46 57h1M39 58h4M45 58h1M52 59h1M50 60h3M49 61h3M47 62h4M43 63h7M39 64h10M38 65h11M38 66h4M44 66h4M39 67h2M43 67h5M43 68h4" />
<path stroke="#d1a5ad" d="M35 34h1M35 35h1M47 35h1M55 35h1M59 35h1M34 36h2M49 36h1M54 36h1M58 36h2M50 37h1M56 37h3M46 38h1M53 38h1M47 39h1M56 39h2M46 40h1M48 40h3M54 40h2M57 40h2M33 41h1M40 41h1M44 41h2M52 41h1M54 41h2M57 41h3M33 42h1M39 42h1M43 42h1M53 42h2M58 42h2M32 43h2M42 43h1M53 43h1M58 43h3M32 44h1M35 44h1M41 44h1M47 44h1M52 44h1M57 44h4M31 45h2M35 45h1M41 45h1M46 45h1M52 45h1M56 45h5M31 46h2M41 46h1M45 46h1M52 46h1M56 46h5M31 47h1M36 47h1M41 47h1M52 47h1M56 47h4M31 48h1M36 48h1M42 48h1M44 48h1M51 48h1M56 48h2M42 49h1M44 49h2M50 49h2M56 49h3M43 50h1M45 50h6M52 50h1M56 50h3M44 51h1M51 51h1M55 51h4M36 52h1M49 52h3M55 52h4M49 53h3M55 53h3M50 54h1M55 54h3M36 55h1M44 55h1M50 55h1M54 55h4M36 56h1M45 56h1M49 56h1M54 56h3M37 57h1M42 57h1M45 57h1M47 57h2M53 57h4M37 58h2M44 58h1M46 58h2M49 58h1M53 58h2M38 59h9M39 60h7M51 62h1M50 63h1M49 64h1M42 66h2M48 66h1M41 67h2M48 67h1M42 68h1M47 68h1M44 69h3" />
<path stroke="#70708a" d="M36 35h1M36 36h1M39 36h1M55 36h1M35 37h1M54 37h1M59 37h1M36 38h1M58 38h2M53 39h1M59 39h1M62 40h2M46 41h2M49 41h3M61 41h3M44 42h1M52 42h1M55 42h1M61 42h3M43 43h1M47 43h5M54 43h1M56 43h1M62 43h1M33 44h1M42 44h1M46 44h1M48 44h1M54 44h2M62 44h1M33 45h1M42 45h1M45 45h1M47 45h1M61 45h1M33 46h2M42 46h1M46 46h1M55 46h1M61 46h1M32 47h3M42 47h1M44 47h2M55 47h1M60 47h2M32 48h2M54 48h2M59 48h3M31 49h3M54 49h2M60 49h2M54 50h2M60 50h2M53 51h2M61 51h1M54 52h1M54 53h1M58 53h1M61 53h2M53 54h2M58 54h1M60 54h3M42 55h2M53 55h1M58 55h1M60 55h3M42 56h1M52 56h2M57 56h2M61 56h3M52 57h1M57 57h1M61 57h3M55 58h3M62 58h2M54 59h3M54 60h2M53 61h2M50 64h1M49 65h1M48 68h1M47 69h1" />
<path stroke="#ffffff" d="M47 60h1M46 61h1" />
</svg>