<svg xmlns="http://www.w3.org/2000/svg" viewBox="0 -0.5 96 96" shape-rendering="crispEdges">
<metadata>Made with Pixels to Svg https://codepen.io/shshaw/pen/XbxvNj</metadata>
<path stroke="#120b0b" d="M29 26h1M28 27h1M30 27h1M51 27h9M27 28h1M30 28h1M52 28h1M27 29h1M31 29h1M53 29h1M60 29h4M26 30h1M31 30h1M54 30h1M58 30h2M64 30h2M26 31h1M32 31h1M55 31h1M57 31h1M60 31h3M66 31h2M25 32h1M32 32h1M56 32h1M63 32h2M68 32h1M25 33h1M33 33h1M65 33h1M69 33h1M25 34h1M34 34h1M65 34h1M69 34h1M24 35h1M34 35h1M56 35h1M63 35h2M68 35h1M24 36h1M35 36h1M55 36h1M57 36h1M60 36h3M68 36h1M24 37h1M36 37h1M54 37h1M57 37h3M67 37h1M23 38h1M37 38h2M49 38h5M57 38h1M66 38h1M23 39h2M39 39h7M47 39h2M52 39h1M65 39h1M22 40h2M43 40h1M46 40h1M64 40h1M21 41h1M24 41h1M42 41h2M47 41h1M62 41h2M20 42h1M23 42h1M25 42h1M27 42h1M31 42h2M40 42h2M43 42h1M48 42h1M60 42h2M20 43h1M22 43h1M24 43h2M27 43h2M30 43h1M33 43h1M39 43h1M43 43h1M59 43h1M21 44h1M23 44h1M25 44h1M27 44h1M29 44h2M34 44h1M38 44h1M59 44h1M21 45h2M26 45h1M30 45h1M35 45h1M37 45h1M46 45h2M60 45h1M31 46h1M34 46h1M36 46h2M44 46h2M48 46h1M60 46h1M31 47h1M35 47h1M42 47h1M48 47h1M60 47h1M31 48h2M38 48h3M47 48h1M60 48h1M30 49h1M45 49h2M59 49h1M29 50h1M44 50h1M59 50h1M29 51h1M38 51h1M43 51h1M59 51h1M25 52h2M29 52h1M37 52h2M42 52h1M58 52h1M61 52h2M27 53h2M36 53h1M39 53h1M41 53h1M51 53h3M58 53h1M60 53h1M63 53h1M23 54h1M35 54h2M39 54h1M41 54h1M54 54h2M57 54h3M63 54h1M28 55h1M33 55h2M36 55h1M41 55h1M56 55h3M61 55h1M63 55h1M22 56h1M27 56h1M42 56h1M44 56h1M58 56h3M64 56h1M43 57h1M45 57h1M61 57h8M21 58h1M43 58h1M46 58h1M65 58h1M67 58h1M21 59h1M28 59h7M38 59h1M43 59h1M47 59h1M65 59h2M22 60h1M25 60h8M35 60h3M43 60h1M48 60h1M66 60h1M22 61h1M24 61h1M28 61h1M30 61h1M36 61h1M43 61h1M48 61h1M66 61h1M23 62h1M27 62h3M33 62h3M42 62h1M48 62h1M66 62h1M26 63h1M28 63h1M33 63h1M35 63h1M41 63h1M48 63h1M67 63h1M25 64h3M34 64h1M39 64h2M48 64h1M67 64h1M24 65h1M26 65h1M31 65h3M37 65h2M48 65h1M68 65h1M21 66h1M23 66h3M31 66h1M33 66h1M36 66h1M42 66h2M47 66h1M69 66h1M20 67h1M22 67h1M24 67h2M32 67h1M35 67h1M41 67h1M44 67h3M70 67h1M20 68h1M23 68h2M29 68h4M34 68h1M40 68h1M42 68h4M71 68h1M21 69h1M23 69h2M29 69h1M31 69h1M40 69h2M43 69h1M46 69h1M72 69h1M21 70h4M29 70h2M33 70h1M42 70h1M44 70h2M47 70h3M73 70h1M24 71h1M28 71h1M30 71h1M41 71h1M43 71h1M46 71h1M50 71h2M74 71h1M22 72h1M25 72h3M29 72h1M32 72h1M41 72h2M44 72h2M52 72h3M75 72h1M24 73h1M27 73h2M43 73h1M55 73h3M73 73h2M26 74h1M30 74h1M58 74h4M71 74h2M28 75h2M62 75h9" />
<path stroke="#d1a5ad" d="M29 27h1M28 28h2M53 28h5M28 29h2M54 29h2M57 29h3M28 30h3M55 30h2M27 31h4M56 31h1M27 32h5M26 33h6M66 33h1M26 34h7M66 34h1M26 35h8M65 35h2M26 36h9M63 36h3M25 37h5M32 37h4M60 37h5M24 38h4M29 38h1M31 38h6M54 38h3M60 38h4M25 39h1M28 39h1M30 39h9M53 39h3M59 39h4M24 40h1M27 40h1M29 40h11M49 40h12M22 41h2M26 41h1M28 41h11M46 41h1M50 41h9M21 42h1M24 42h1M28 42h2M33 42h4M45 42h2M50 42h8M23 43h1M26 43h1M32 43h1M34 43h2M42 43h1M44 43h2M49 43h10M22 44h1M26 44h1M32 44h2M43 44h16M32 45h2M40 45h6M48 45h11M33 46h1M39 46h4M49 46h10M33 47h2M36 47h1M38 47h3M45 47h2M49 47h10M43 48h3M48 48h10M34 49h10M47 49h11M34 50h9M46 50h11M32 51h6M39 51h3M45 51h11M30 52h4M35 52h2M39 52h2M44 52h10M30 53h2M40 53h1M44 53h7M30 54h2M40 54h1M45 54h9M30 55h3M39 55h2M46 55h9M23 56h1M29 56h6M39 56h3M46 56h11M22 57h21M47 57h13M22 58h6M33 58h5M39 58h4M48 58h16M22 59h3M35 59h3M39 59h4M49 59h16M38 60h4M50 60h15M37 61h4M51 61h15M36 62h4M51 62h15M36 63h4M51 63h11M64 63h2M35 64h3M50 64h11M63 64h4M34 65h3M49 65h11M62 65h5M34 66h2M48 66h6M55 66h4M62 66h6M33 67h2M42 67h1M48 67h4M54 67h3M61 67h8M33 68h1M41 68h1M46 68h1M52 68h2M60 68h9M32 69h2M44 69h1M59 69h10M31 70h2M43 70h1M58 70h9M22 71h2M31 71h2M42 71h1M44 71h1M61 71h3M23 72h2M30 72h2M43 72h1M25 73h2M29 73h3M27 74h3" />
<path stroke="#70708a" d="M58 28h2M30 29h1M56 29h1M27 30h1M57 30h1M60 30h4M31 31h1M63 31h3M26 32h1M65 32h3M32 33h1M67 33h2M33 34h1M67 34h2M25 35h1M67 35h1M25 36h1M66 36h2M31 37h1M65 37h2M30 38h1M58 38h2M64 38h2M29 39h1M56 39h3M63 39h2M28 40h1M40 40h3M61 40h3M27 41h1M39 41h3M48 41h2M59 41h3M22 42h1M26 42h1M30 42h1M37 42h3M47 42h1M49 42h1M58 42h2M21 43h1M29 43h1M36 43h3M46 43h3M35 44h3M34 45h1M36 45h1M59 45h1M35 46h1M43 46h1M59 46h1M41 47h1M47 47h1M59 47h1M37 48h1M46 48h1M58 48h2M44 49h1M58 49h1M43 50h1M45 50h1M57 50h2M42 51h1M44 51h1M56 51h3M24 52h1M41 52h1M43 52h1M54 52h4M23 53h1M32 53h1M42 53h2M54 53h4M61 53h2M32 54h1M42 54h3M56 54h1M60 54h3M22 55h1M27 55h1M29 55h1M42 55h4M55 55h1M59 55h2M62 55h1M28 56h1M35 56h4M43 56h1M45 56h1M57 56h1M61 56h3M21 57h1M46 57h1M60 57h1M28 58h5M38 58h1M47 58h1M64 58h1M66 58h1M25 59h3M48 59h1M23 60h2M33 60h2M42 60h1M49 60h1M65 60h1M23 61h1M31 61h5M41 61h2M49 61h2M30 62h3M40 62h2M49 62h2M29 63h4M40 63h1M49 63h2M63 63h1M66 63h1M28 64h6M38 64h1M49 64h1M62 64h1M27 65h4M61 65h1M67 65h1M26 66h5M54 66h1M60 66h2M68 66h1M26 67h6M43 67h1M47 67h1M52 67h2M59 67h2M69 67h1M25 68h4M47 68h5M57 68h3M69 68h2M25 69h4M34 69h1M45 69h1M47 69h3M54 69h5M69 69h3M25 70h4M46 70h1M50 70h8M67 70h6M21 71h1M25 71h3M33 71h1M45 71h1M52 71h9M64 71h10M55 72h20M23 73h1M32 73h1M58 73h15M25 74h1M31 74h1M62 74h9M27 75h1" />
<path stroke="#ffedff" d="M56 36h1M30 37h1M55 37h2M28 38h1M26 39h2M49 39h3M25 40h2M44 40h2M47 40h2M25 41h1M44 41h2M42 42h1M44 42h1M31 43h1M40 43h2M31 44h1M39 44h4M31 45h1M38 45h2M32 46h1M38 46h1M46 46h2M32 47h1M37 47h1M43 47h2M33 48h4M41 48h2M31 49h3M30 50h4M30 51h2M34 52h1M24 53h3M29 53h1M33 53h3M37 53h2M24 54h6M33 54h2M37 54h2M23 55h4M35 55h1M37 55h2M24 56h3M29 61h1M27 63h1M34 63h1M62 63h1M61 64h1M25 65h1M60 65h1M32 66h1M59 66h1M21 67h1M23 67h1M57 67h2M21 68h2M54 68h3M22 69h1M30 69h1M42 69h1M50 69h4M29 71h1M28 72h1" />
</svg>