<svg xmlns="http://www.w3.org/2000/svg" viewBox="0 -0.5 96 96" shape-rendering="crispEdges">
<metadata>Made with Pixels to Svg https://codepen.io/shshaw/pen/XbxvNj</metadata>
<path stroke="#d19c00" d="M66 30h1M30 32h1M33 32h1M53 32h1M31 33h1M35 33h1M51 33h1M57 33h1M32 34h1M36 34h1M51 34h3M33 35h1M35 35h2M52 35h3M34 36h1M66 37h1M40 38h1M47 38h1M37 39h1M50 39h1M34 42h1M51 42h1M63 43h3M33 44h1M52 44h1M60 44h5M34 45h1M49 45h2M59 45h5M33 46h3M48 46h2M51 46h1M53 46h1M58 46h5M34 47h1M49 47h2M59 47h3M39 48h1M44 48h1M60 48h2M63 48h1M33 49h1M64 49h1M32 50h1M34 50h1M49 50h2M54 50h1M32 51h2M49 51h1M55 51h1M33 52h1M62 52h1M54 53h1M64 53h1M32 54h1M52 54h5M51 55h5M50 56h2M60 56h1M63 56h1M46 57h1M45 58h1M59 58h1M62 58h1M30 59h1M33 59h1M55 59h1M61 59h1M31 60h2M53 60h3M57 60h1M60 60h1M32 61h2M54 61h2M58 61h1M33 62h2M44 62h1M46 62h1M57 62h1M35 63h1M37 63h1M42 63h4M55 63h1M40 64h5M54 65h1M51 66h1M53 67h2M53 68h2" />
<path stroke="#ffe468" d="M41 31h2M41 32h3M41 33h3M41 34h2M41 35h1M50 35h2M37 36h1M49 36h5M37 37h2M50 37h3M30 38h2M37 38h3M50 38h2M29 39h3M49 39h1M58 39h1M30 40h2M59 40h4M31 41h1M61 41h3M62 42h3M61 43h2M36 44h1M38 44h1M45 44h1M48 44h1M33 47h1M53 47h1M53 48h1M52 49h2M52 50h2M37 51h5M53 51h2M36 52h7M54 52h1M35 53h9M34 54h11M34 55h11M47 55h1M34 56h11M46 56h1M55 56h1M67 56h1M34 57h11M55 57h1M66 57h2M33 58h12M54 58h2M65 58h3M34 59h11M54 59h1M64 59h2M34 60h11M52 60h1M35 61h10M46 61h1M51 61h3M36 62h8M47 62h1M50 62h6M38 63h4M47 63h8M61 63h1M48 64h7M61 64h2M49 65h5M62 65h2M52 66h2M62 66h3M62 67h4M63 68h2" />
<path stroke="#120b0b" d="M65 31h2M31 32h2M54 32h4M64 32h1M66 32h1M32 33h3M52 33h5M63 33h1M66 33h1M33 34h3M50 34h1M54 34h3M62 34h1M66 34h1M34 35h1M37 35h1M49 35h1M55 35h1M61 35h1M66 35h1M38 36h1M48 36h1M54 36h1M60 36h1M66 36h1M35 37h1M39 37h1M48 37h1M53 37h1M59 37h1M36 38h1M41 38h6M52 38h1M58 38h1M65 38h1M38 39h1M47 39h1M51 39h1M57 39h1M64 39h1M36 40h1M50 40h1M58 40h1M63 40h1M35 41h1M37 41h1M46 41h2M51 41h1M59 41h2M64 41h1M36 42h1M38 42h1M45 42h1M47 42h2M61 42h1M65 42h1M34 43h1M36 43h3M45 43h4M52 43h1M60 43h1M66 43h1M37 44h1M46 44h2M59 44h1M65 44h1M33 45h1M40 45h1M53 45h1M58 45h1M64 45h1M32 46h1M57 46h1M63 46h1M32 47h1M37 47h1M40 47h2M45 47h1M54 47h1M58 47h1M62 47h1M32 48h1M38 48h1M42 48h2M54 48h1M59 48h1M62 48h1M31 49h2M49 49h2M54 49h1M60 49h4M31 50h1M33 50h1M48 50h1M51 50h1M61 50h4M31 51h1M34 51h1M47 51h1M50 51h1M62 51h3M32 52h1M49 52h1M55 52h1M63 52h2M33 53h1M48 53h1M55 53h1M62 53h2M61 54h3M32 55h1M56 55h1M61 55h3M32 56h1M56 56h1M61 56h2M32 57h1M56 57h1M60 57h3M32 58h1M56 58h1M60 58h2M31 59h2M45 59h1M56 59h1M59 59h2M30 60h1M33 60h1M45 60h1M56 60h1M58 60h2M31 61h1M34 61h1M45 61h1M56 61h2M32 62h1M35 62h1M45 62h1M56 62h1M33 63h2M36 63h1M46 63h1M56 63h1M38 64h2M45 64h1M47 64h1M55 64h1M40 65h5M48 65h1M49 66h2M54 66h1M52 67h1M55 67h1M52 68h1M55 68h1M53 69h2" />
<path stroke="#ffedff" d="M65 32h1M64 33h2M63 34h3M62 35h4M35 36h2M61 36h5M36 37h1M49 37h1M60 37h6M48 38h2M59 38h6M39 39h8M48 39h1M59 39h5M37 40h13M36 41h1M38 41h8M48 41h3M35 42h1M37 42h1M39 42h6M46 42h1M49 42h2M35 43h1M39 43h6M49 43h3M34 44h2M39 44h6M49 44h3M35 45h5M41 45h8M51 45h2M36 46h12M50 46h1M52 46h1M35 47h2M38 47h2M42 47h3M46 47h3M51 47h2M33 48h5M40 48h2M45 48h8M34 49h15M51 49h1M35 50h13M35 51h2M42 51h5M48 51h1M51 51h2M34 52h2M43 52h6M50 52h4M34 53h1M44 53h4M49 53h5M33 54h1M45 54h7M33 55h1M45 55h2M48 55h3M33 56h1M45 56h1M47 56h3M52 56h3M33 57h1M45 57h1M47 57h8M46 58h8M46 59h8M46 60h6M47 61h4M48 62h2" />
</svg>