<svg xmlns="http://www.w3.org/2000/svg" viewBox="0 -0.5 96 96" shape-rendering="crispEdges">
<metadata>Made with Pixels to Svg https://codepen.io/shshaw/pen/XbxvNj</metadata>
<path stroke="#a5683f" d="M40 34h1M42 34h1M39 35h1M43 35h1M41 36h1M46 36h1M45 37h2M48 37h2M53 37h1M38 38h1M42 38h2M47 38h1M54 38h1M37 39h1M40 39h1M45 39h2M51 39h1M37 40h1M43 40h1M47 40h1M50 40h1M36 41h1M42 41h1M49 41h1M51 41h1M54 41h1M58 41h3M35 42h1M40 42h1M50 42h2M58 42h1M61 42h1M34 43h1M36 43h2M39 43h1M59 43h1M32 44h1M50 44h4M59 44h1M61 44h1M63 44h1M33 45h1M52 45h2M33 46h1M54 46h1M60 46h1M63 46h2M34 47h2M50 47h1M54 47h1M61 47h2M36 48h3M49 48h3M55 48h1M64 48h2M38 49h4M47 49h3M51 49h1M56 49h2M41 50h8M50 50h1M56 50h1M62 50h2M66 50h1M37 51h1M39 51h1M42 51h3M49 51h2M54 51h1M56 51h3M64 51h3M37 52h1M40 52h1M46 52h1M50 52h1M54 52h1M57 52h1M60 52h2M65 52h1M36 53h1M40 53h2M45 53h1M57 53h1M61 53h4M40 54h2M44 54h3M51 54h1M53 54h1M58 54h1M60 54h1M64 54h2M32 55h1M37 55h3M43 55h1M47 55h1M49 55h3M54 55h1M56 55h1M58 55h1M60 55h1M65 55h1M34 56h1M39 56h1M42 56h1M45 56h1M48 56h1M52 56h2M55 56h1M57 56h2M60 56h3M64 56h1M66 56h1M40 57h1M44 57h1M50 57h1M56 57h1M63 57h2M66 57h1M32 58h1M37 58h1M41 58h1M50 58h1M53 58h1M57 58h1M59 58h2M63 58h2M31 59h2M35 59h2M40 59h1M49 59h1M59 59h3M63 59h1M65 59h1M33 60h2M41 60h1M43 60h2M46 60h1M50 60h2M53 60h2M59 60h3M63 60h1M33 61h2M37 61h1M41 61h5M47 61h2M52 61h2M55 61h1M58 61h4M64 61h1M32 62h1M34 62h2M38 62h1M40 62h2M43 62h4M53 62h1M55 62h4M60 62h2M63 62h1M34 63h2M38 63h1M40 63h2M43 63h3M53 63h1M55 63h4M62 63h1M33 64h1M35 64h2M38 64h1M40 64h2M44 64h1M46 64h1M53 64h1M55 64h3M61 64h1M35 65h4M40 65h1M45 65h1M55 65h1M58 65h1M60 65h1M36 66h2M41 66h2M48 66h1M52 66h1M59 66h1M36 67h1M47 67h1M51 67h1M57 67h1M48 68h1" />
<path stroke="#120b0b" d="M41 34h1M39 36h1M42 36h4M38 37h3M47 37h1M50 37h3M37 38h1M48 38h1M35 39h2M52 39h1M54 39h1M34 40h1M36 40h1M51 40h1M54 40h1M34 41h2M50 41h1M34 42h1M43 42h2M53 42h1M33 43h1M42 43h1M44 43h2M51 43h3M62 43h1M33 44h1M42 44h4M54 44h1M32 45h1M43 45h2M54 45h1M60 45h1M63 45h1M32 46h1M55 46h1M33 47h1M55 47h1M64 47h1M34 48h2M56 48h1M61 48h1M36 49h2M50 49h1M61 49h1M65 49h1M38 50h3M49 50h1M57 50h1M61 50h1M65 50h1M38 51h1M40 51h2M45 51h4M61 51h1M41 52h5M58 52h1M66 52h1M42 53h3M54 53h1M58 53h3M66 53h1M36 54h1M42 54h2M54 54h1M59 54h1M66 54h1M30 55h2M36 55h1M42 55h1M52 55h2M55 55h1M59 55h1M66 55h1M30 56h1M33 56h1M36 56h1M49 56h3M56 56h1M59 56h1M30 57h1M35 57h3M42 57h1M48 57h1M52 57h1M57 57h1M59 57h1M65 57h1M31 58h1M36 58h1M38 58h1M40 58h1M42 58h1M44 58h1M47 58h2M65 58h1M39 59h1M41 59h4M46 59h3M50 59h1M53 59h1M62 59h1M64 59h1M32 60h1M42 60h1M45 60h1M47 60h2M62 60h1M64 60h1M32 61h1M46 61h1M54 61h1M62 61h2M33 62h1M42 62h1M47 62h1M54 62h1M59 62h1M62 62h1M33 63h1M39 63h1M42 63h1M46 63h2M54 63h1M59 63h3M34 64h1M39 64h1M42 64h2M45 64h1M47 64h1M54 64h1M58 64h3M34 65h1M39 65h1M41 65h4M46 65h2M53 65h2M56 65h2M59 65h1M35 66h1M38 66h3M43 66h5M53 66h6M37 67h2M48 67h1M52 67h5M49 68h6" />
<path stroke="#ffedff" d="M40 35h2M40 38h2M44 38h2M50 38h4M39 39h1M42 39h2M49 39h1M53 39h1M35 40h1M41 40h2M53 40h1M37 41h1M40 41h1M45 41h3M38 42h2M48 42h1M59 42h2M43 43h1M46 43h3M36 44h2M40 44h1M46 44h3M62 44h1M35 45h7M46 45h2M61 45h1M36 46h11M39 47h7M53 47h1M53 48h1M62 48h2M52 49h1M55 49h1M51 50h2M54 50h1M52 51h2M62 51h2M48 52h2M53 52h1M64 52h1M38 53h1M49 53h2M50 54h1M61 54h3M40 55h1M44 55h2M64 55h1M31 56h2M38 56h1M40 56h2M43 56h2M46 56h2M33 57h2M39 57h1M41 57h1M43 57h1M45 57h2M49 57h1M51 57h1M54 57h1M34 58h2M45 58h1M49 58h1M51 58h2M55 58h1M58 58h1M34 59h1M45 59h1M51 59h1M55 59h1M58 59h1M36 60h1M56 60h1M49 61h3M56 61h1M49 62h3M49 63h3M49 64h3M50 65h1" />
<path stroke="#e49c70" d="M42 35h1M40 36h1M41 37h4M39 38h1M46 38h1M49 38h1M38 39h1M41 39h1M44 39h1M47 39h2M50 39h1M38 40h3M44 40h3M48 40h2M52 40h1M38 41h2M41 41h1M43 41h2M48 41h1M52 41h2M36 42h2M41 42h2M45 42h3M49 42h1M52 42h1M35 43h1M38 43h1M40 43h2M49 43h2M60 43h2M34 44h2M38 44h2M41 44h1M49 44h1M60 44h1M34 45h1M42 45h1M45 45h1M48 45h4M62 45h1M34 46h2M47 46h7M61 46h2M32 47h1M36 47h3M46 47h4M51 47h2M63 47h1M39 48h10M52 48h1M54 48h1M42 49h5M53 49h2M62 49h3M53 50h1M55 50h1M64 50h1M51 51h1M55 51h1M38 52h2M47 52h1M51 52h2M55 52h2M62 52h2M37 53h1M39 53h1M46 53h3M51 53h3M55 53h2M65 53h1M37 54h3M47 54h3M52 54h1M55 54h3M41 55h1M46 55h1M48 55h1M57 55h1M61 55h3M37 56h1M54 56h1M63 56h1M65 56h1M31 57h2M38 57h1M47 57h1M53 57h1M55 57h1M58 57h1M60 57h3M33 58h1M39 58h1M43 58h1M46 58h1M54 58h1M56 58h1M61 58h2M33 59h1M37 59h2M52 59h1M54 59h1M56 59h2M35 60h1M37 60h4M49 60h1M52 60h1M55 60h1M57 60h2M35 61h2M38 61h3M57 61h1M36 62h2M39 62h1M48 62h1M52 62h1M36 63h2M48 63h1M52 63h1M37 64h1M48 64h1M52 64h1M48 65h2M51 65h2M49 66h3M49 67h2" />
</svg>