<svg xmlns="http://www.w3.org/2000/svg" viewBox="0 -0.5 96 96" shape-rendering="crispEdges">
<metadata>Made with Pixels to Svg https://codepen.io/shshaw/pen/XbxvNj</metadata>
<path stroke="#120b0b" d="M42 26h1M41 27h2M42 28h1M40 29h1M42 29h1M54 29h4M39 30h1M42 30h1M44 30h1M50 30h2M56 30h1M37 31h1M39 31h1M42 31h1M45 31h1M48 31h1M55 31h1M36 32h1M38 32h1M41 32h1M45 32h2M54 32h1M35 33h1M38 33h1M40 33h1M44 33h1M53 33h11M38 34h2M44 34h1M47 34h1M51 34h2M61 34h1M34 35h1M38 35h1M44 35h1M46 35h1M48 35h2M59 35h1M29 36h1M33 36h1M38 36h1M43 36h1M45 36h1M48 36h1M57 36h2M31 37h2M38 37h1M43 37h2M48 37h1M55 37h8M27 38h1M38 38h1M43 38h1M48 38h1M53 38h5M63 38h3M27 39h1M31 39h1M38 39h1M42 39h1M47 39h1M51 39h5M66 39h2M31 40h1M37 40h1M39 40h1M41 40h1M47 40h1M50 40h4M59 40h7M26 41h1M30 41h1M37 41h1M39 41h1M47 41h3M53 41h1M56 41h5M63 41h1M26 42h1M30 42h1M36 42h1M39 42h1M47 42h1M53 42h3M65 42h1M26 43h1M36 43h1M40 43h1M46 43h1M50 43h1M53 43h1M56 43h5M66 43h1M35 44h1M40 44h1M45 44h1M49 44h1M53 44h2M61 44h1M35 45h1M40 45h1M44 45h1M48 45h1M53 45h1M62 45h1M67 45h1M27 46h1M44 46h1M47 46h1M52 46h1M55 46h2M59 46h2M63 46h2M43 47h1M52 47h1M54 47h1M63 47h3M68 47h1M31 48h1M51 48h3M61 48h1M63 48h4M69 48h1M28 49h1M31 49h1M49 49h5M57 49h1M61 49h1M63 49h1M65 49h3M69 49h1M28 50h1M30 50h1M32 50h1M48 50h5M57 50h1M61 50h3M67 50h3M28 51h1M30 51h3M41 51h4M47 51h6M57 51h1M61 51h2M67 51h2M28 52h1M31 52h2M39 52h2M43 52h1M47 52h3M51 52h2M61 52h3M68 52h1M28 53h1M31 53h1M39 53h2M42 53h1M47 53h2M52 53h1M60 53h5M69 53h1M28 54h1M38 54h5M46 54h3M52 54h1M56 54h1M60 54h5M69 54h1M29 55h1M38 55h2M46 55h2M52 55h1M56 55h1M59 55h1M63 55h3M69 55h2M24 56h2M45 56h2M53 56h1M56 56h1M59 56h1M65 56h1M70 56h1M25 57h1M28 57h1M30 57h1M43 57h4M53 57h1M56 57h1M58 57h1M66 57h1M70 57h1M27 58h1M41 58h5M53 58h1M55 58h1M58 58h1M66 58h1M69 58h1M26 59h1M31 59h1M39 59h5M53 59h1M55 59h1M57 59h1M66 59h2M69 59h1M38 60h1M40 60h1M54 60h1M56 60h1M66 60h2M32 61h1M37 61h1M41 61h1M54 61h1M66 61h1M68 61h1M34 62h2M43 62h1M55 62h1M65 62h1M68 62h1M44 63h2M55 63h2M65 63h1M42 64h2M48 64h6M57 64h2M66 64h1M51 65h1M59 65h3M67 65h1M50 66h1M61 66h1M38 67h11M60 67h1M68 67h1M60 68h3M66 68h3M60 69h1M63 69h3M59 70h1M64 70h1M69 70h1M63 71h1M69 71h1M62 72h1M66 72h1M68 72h1M61 73h1M67 73h1" />
<path stroke="#a5683f" d="M40 28h1M41 29h1M53 29h1M58 29h2M41 30h1M45 30h1M49 30h1M57 30h1M40 31h2M43 31h1M47 31h1M52 31h3M56 31h1M40 32h1M44 32h1M49 32h5M39 33h1M42 33h2M46 33h7M64 33h1M34 34h1M41 34h3M45 34h2M48 34h3M62 34h1M39 35h5M45 35h1M50 35h9M60 35h1M28 36h1M30 36h1M40 36h3M44 36h1M49 36h8M27 37h1M39 37h3M49 37h6M63 37h1M32 38h1M40 38h1M42 38h1M47 38h1M49 38h4M58 38h5M66 38h1M39 39h1M41 39h1M48 39h3M56 39h10M68 39h1M26 40h1M40 40h1M48 40h2M54 40h5M31 41h1M41 41h1M46 41h1M54 41h2M61 41h2M64 41h1M40 42h1M46 42h1M56 42h9M30 43h1M39 43h1M45 43h1M49 43h1M51 43h1M54 43h2M61 43h5M26 44h1M39 44h1M48 44h1M50 44h1M62 44h6M39 45h1M47 45h1M49 45h2M63 45h4M39 46h1M43 46h1M48 46h2M65 46h4M28 47h1M37 47h2M47 47h2M57 47h1M61 47h1M66 47h2M28 48h1M47 48h1M57 48h1M67 48h2M30 49h1M32 49h1M62 49h1M64 49h1M68 49h1M64 50h3M40 51h1M63 51h4M69 51h1M26 52h1M30 52h1M50 52h1M57 52h1M64 52h4M25 53h1M32 53h1M38 53h1M41 53h1M43 53h1M49 53h3M56 53h1M65 53h4M24 54h1M27 54h1M29 54h1M32 54h1M49 54h1M51 54h1M65 54h4M70 54h1M24 55h1M26 55h1M40 55h1M48 55h2M60 55h3M66 55h3M30 56h1M47 56h3M52 56h1M60 56h5M66 56h4M29 57h1M47 57h2M59 57h2M63 57h3M67 57h3M25 58h1M31 58h1M46 58h3M59 58h1M64 58h2M67 58h2M70 58h1M44 59h4M58 59h2M65 59h1M68 59h1M31 60h1M41 60h5M55 60h1M57 60h2M65 60h1M68 60h2M56 61h3M65 61h1M33 62h1M36 62h1M42 62h1M57 62h1M64 62h1M46 63h1M63 63h2M66 63h1M68 63h1M41 64h1M44 64h1M46 64h2M54 64h1M62 64h4M67 64h1M40 65h1M43 65h1M47 65h4M65 65h2M38 66h1M44 66h1M46 66h4M51 66h1M66 66h3M37 67h1M49 67h1M61 67h1M66 67h2M65 68h1M59 69h1M69 69h1M59 71h1M65 71h1M60 72h1" />
<path stroke="#e49c70" d="M41 28h1M52 29h1M60 29h1M40 30h1M52 30h1M55 30h1M58 30h1M51 31h1M57 31h1M39 32h1M43 32h1M47 32h2M55 32h4M37 33h1M45 33h1M65 33h2M37 34h1M40 34h1M53 34h1M58 34h3M63 34h1M36 35h2M47 35h1M61 35h1M35 36h3M39 36h1M47 36h1M59 36h1M35 37h3M42 37h1M46 37h2M64 37h1M31 38h1M34 38h4M39 38h1M41 38h1M45 38h2M67 38h1M30 39h1M34 39h4M40 39h1M44 39h3M69 39h1M30 40h1M33 40h4M43 40h4M29 41h1M33 41h4M40 41h1M42 41h4M29 42h1M31 42h5M38 42h1M41 42h5M50 42h3M31 43h5M38 43h1M41 43h4M52 43h1M29 44h6M37 44h2M41 44h4M51 44h1M26 45h1M29 45h6M37 45h2M41 45h3M51 45h1M56 45h2M59 45h3M30 46h9M40 46h3M50 46h1M57 46h2M61 46h2M30 47h7M39 47h4M44 47h1M49 47h1M56 47h1M58 47h1M60 47h1M62 47h1M32 48h12M48 48h1M56 48h1M60 48h1M62 48h1M33 49h11M47 49h1M56 49h1M60 49h1M34 50h4M40 50h5M56 50h1M60 50h1M27 51h1M35 51h2M39 51h1M45 51h1M56 51h1M60 51h1M35 52h1M38 52h1M41 52h1M44 52h1M56 52h1M60 52h1M29 53h1M35 53h1M44 53h1M59 53h1M31 54h1M43 54h1M50 54h1M59 54h1M30 55h1M32 55h1M41 55h1M45 55h1M50 55h2M55 55h1M58 55h1M28 56h2M44 56h1M50 56h2M55 56h1M58 56h1M27 57h1M31 57h1M42 57h1M49 57h4M55 57h1M57 57h1M61 57h2M40 58h1M49 58h4M54 58h1M57 58h1M60 58h4M38 59h1M48 59h3M54 59h1M56 59h1M60 59h5M36 60h2M46 60h4M59 60h6M33 61h4M42 61h5M55 61h1M59 61h6M67 61h1M44 62h1M56 62h1M58 62h6M66 62h1M43 63h1M47 63h1M53 63h2M57 63h6M67 63h1M45 64h1M59 64h3M39 65h1M44 65h3M62 65h1M64 65h1M68 65h1M37 66h1M42 66h2M45 66h1M64 66h2M36 67h1M50 67h1M62 67h4M59 68h1M63 68h2M69 68h1M62 69h1M67 69h2M63 70h1M68 70h1M60 71h1M62 71h1M67 71h2M61 72h1M67 72h1" />
<path stroke="#ffedff" d="M53 30h2M44 31h1M49 31h2M37 32h1M42 32h1M36 33h1M41 33h1M35 34h2M54 34h4M35 35h1M34 36h1M46 36h1M28 37h3M33 37h2M45 37h1M28 38h3M33 38h1M44 38h1M28 39h2M32 39h2M43 39h1M27 40h3M32 40h1M38 40h1M42 40h1M27 41h2M32 41h1M38 41h1M50 41h3M27 42h2M37 42h1M48 42h2M27 43h3M37 43h1M47 43h2M27 44h2M36 44h1M46 44h2M52 44h1M55 44h6M27 45h2M36 45h1M45 45h2M52 45h1M54 45h2M58 45h1M28 46h2M45 46h2M51 46h1M53 46h2M29 47h1M45 47h2M50 47h2M53 47h1M55 47h1M59 47h1M29 48h2M44 48h3M49 48h2M54 48h2M58 48h2M29 49h1M44 49h3M48 49h1M54 49h2M58 49h2M29 50h1M31 50h1M33 50h1M38 50h2M45 50h3M53 50h3M58 50h2M29 51h1M33 51h2M37 51h2M46 51h1M53 51h3M58 51h2M27 52h1M29 52h1M33 52h2M36 52h2M42 52h1M45 52h2M53 52h3M58 52h2M26 53h2M30 53h1M33 53h2M36 53h2M45 53h2M53 53h3M57 53h2M25 54h2M30 54h1M33 54h5M44 54h2M53 54h3M57 54h2M25 55h1M27 55h2M31 55h1M33 55h5M42 55h3M53 55h2M57 55h1M26 56h2M31 56h13M54 56h1M57 56h1M26 57h1M32 57h10M54 57h1M26 58h1M32 58h8M56 58h1M32 59h6M51 59h2M32 60h4M50 60h4M47 61h7M45 62h10M67 62h1M48 63h5M41 65h2M63 65h1M39 66h3M62 66h2M61 69h1M66 69h1M60 70h3M65 70h3M61 71h1M66 71h1" />
</svg>