<svg xmlns="http://www.w3.org/2000/svg" viewBox="0 -0.5 96 96" shape-rendering="crispEdges">
<metadata>Made with Pixels to Svg https://codepen.io/shshaw/pen/XbxvNj</metadata>
<path stroke="#d19c00" d="M33 20h1M36 20h1M30 21h1M32 21h1M39 22h1M27 24h1M36 24h1M24 25h1M35 25h1M56 25h1M58 25h1M24 26h1M34 26h2M37 26h1M47 26h1M59 26h1M24 27h2M27 27h1M33 27h1M35 27h1M39 27h1M42 27h2M48 27h1M26 28h1M31 28h1M36 28h1M41 28h4M48 28h1M23 29h1M25 29h1M36 29h3M40 29h2M43 29h3M47 29h1M24 30h1M36 30h8M45 30h1M30 31h1M37 31h2M43 31h1M31 32h1M36 32h1M63 32h1M65 32h1M23 33h1M31 33h1M37 33h1M60 33h1M62 33h1M67 33h1M30 34h1M49 34h2M47 35h4M52 35h1M22 36h1M47 36h4M52 36h1M56 36h1M21 37h1M30 37h1M47 37h4M52 37h4M57 37h1M71 37h1M29 38h1M46 38h1M48 38h3M52 38h4M57 38h1M25 39h2M45 39h2M48 39h3M52 39h3M56 39h3M72 39h1M24 40h1M29 40h1M34 40h1M45 40h2M48 40h3M52 40h3M56 40h4M29 41h1M35 41h1M46 41h2M49 41h3M53 41h2M56 41h5M63 41h1M68 41h1M35 42h1M47 42h2M50 42h2M53 42h1M55 42h6M63 42h4M72 42h1M28 43h1M36 43h1M47 43h1M50 43h2M53 43h1M55 43h5M61 43h5M71 43h1M23 44h1M27 44h1M33 44h1M36 44h1M51 44h1M53 44h1M55 44h4M60 44h5M22 45h2M34 45h1M36 45h1M49 45h1M53 45h1M55 45h3M59 45h6M22 46h2M28 46h1M35 46h2M48 46h1M55 46h3M59 46h6M21 47h2M34 47h1M36 47h1M53 47h1M56 47h1M58 47h8M73 47h1M22 48h1M35 48h1M54 48h1M59 48h7M74 48h1M24 49h1M30 49h1M41 49h1M55 49h1M65 49h2M31 50h2M41 50h1M55 50h1M58 50h7M33 51h2M44 51h1M55 51h1M59 51h10M24 52h1M26 52h1M28 52h1M33 52h1M43 52h1M55 52h1M58 52h1M60 52h10M25 53h1M27 53h1M42 53h1M55 53h1M59 53h1M61 53h8M70 53h1M74 53h1M35 54h1M54 54h1M59 54h2M62 54h6M73 54h1M36 55h1M42 55h1M53 55h1M56 55h2M59 55h3M63 55h4M42 56h1M51 56h1M53 56h6M60 56h3M64 56h2M42 57h2M49 57h1M52 57h7M60 57h4M65 57h1M42 58h3M49 58h2M52 58h7M60 58h4M65 58h1M74 58h1M47 59h3M51 59h8M60 59h2M75 59h1M43 60h5M50 60h9M60 60h1M65 60h1M35 61h1M40 61h8M49 61h10M60 61h1M31 62h1M34 62h1M41 62h6M48 62h2M55 62h4M66 62h1M30 63h1M42 63h4M47 63h1M58 63h1M67 63h1M28 64h1M42 64h1M59 64h1M75 64h1M42 65h1M74 65h1M38 66h1M40 66h1M35 67h1M37 67h1M56 67h1M32 68h1M34 68h1M54 68h1M67 68h1M23 69h1M31 69h1M66 69h1M22 70h1M26 70h1M28 70h1M31 70h1M51 70h1M24 71h1M47 71h1M67 71h1M69 71h1M43 72h1M46 72h1M22 73h1M27 73h1M33 73h1M42 73h1M47 73h1M52 73h1M60 73h1M63 73h1M28 74h1M32 74h1M53 74h1M59 74h1" />
<path stroke="#120b0b" d="M34 20h2M31 21h1M37 21h1M29 22h1M38 22h1M23 23h1M28 23h1M40 23h1M23 24h2M35 24h1M41 24h1M23 25h1M25 25h1M27 25h1M34 25h1M36 25h1M42 25h1M57 25h1M23 26h1M25 26h1M27 26h1M33 26h1M36 26h1M43 26h1M55 26h1M60 26h1M23 27h1M26 27h1M32 27h1M36 27h1M38 27h1M44 27h1M54 27h1M61 27h1M23 28h1M40 28h1M45 28h1M53 28h1M62 28h1M35 29h1M42 29h1M46 29h1M52 29h1M63 29h1M35 30h1M44 30h1M49 30h4M63 30h1M23 31h1M36 31h1M39 31h4M48 31h1M52 31h1M64 31h1M23 32h1M29 32h2M37 32h1M47 32h1M51 32h1M64 32h1M29 33h2M46 33h1M51 33h1M61 33h1M66 33h1M22 34h1M28 34h2M38 34h1M46 34h1M51 34h1M59 34h1M68 34h1M22 35h1M39 35h1M44 35h3M51 35h1M58 35h1M69 35h1M40 36h1M43 36h1M46 36h1M51 36h1M57 36h1M70 36h1M41 37h2M46 37h1M51 37h1M56 37h1M21 38h1M42 38h1M47 38h1M51 38h1M56 38h1M71 38h1M21 39h2M29 39h1M43 39h1M47 39h1M51 39h1M55 39h1M21 40h3M26 40h1M28 40h1M44 40h1M47 40h1M51 40h1M55 40h1M72 40h1M27 41h1M45 41h1M48 41h1M52 41h1M55 41h1M64 41h4M72 41h1M26 42h1M28 42h1M46 42h1M49 42h1M52 42h1M54 42h1M61 42h2M69 42h1M48 43h2M52 43h1M54 43h1M60 43h1M70 43h1M49 44h2M52 44h1M54 44h1M59 44h1M71 44h1M27 45h1M51 45h2M54 45h1M58 45h1M72 45h1M27 46h1M52 46h3M58 46h1M73 46h1M26 47h1M28 47h1M54 47h2M57 47h1M25 48h1M29 48h1M55 48h4M35 49h1M56 49h9M74 49h1M24 50h1M30 50h1M35 50h1M56 50h2M65 50h4M74 50h1M24 51h1M30 51h3M35 51h1M41 51h1M56 51h3M69 51h1M74 51h1M29 52h1M34 52h2M41 52h1M56 52h2M59 52h1M70 52h1M74 52h1M26 53h1M35 53h1M41 53h1M43 53h1M56 53h3M60 53h1M71 53h1M41 54h3M55 54h4M61 54h1M72 54h1M41 55h1M43 55h1M54 55h2M58 55h1M62 55h1M73 55h1M36 56h1M41 56h1M43 56h1M52 56h1M59 56h1M63 56h1M74 56h1M36 57h1M41 57h1M44 57h1M50 57h2M59 57h1M64 57h1M74 57h1M36 58h1M41 58h1M45 58h1M47 58h2M51 58h1M59 58h1M64 58h1M36 59h1M41 59h6M50 59h1M59 59h1M65 59h1M36 60h1M41 60h2M48 60h2M59 60h1M75 60h1M36 61h4M48 61h1M59 61h1M66 61h1M75 61h1M32 62h2M47 62h1M59 62h1M75 62h1M29 63h1M46 63h1M59 63h1M75 63h1M27 64h1M43 64h2M67 64h1M26 65h1M41 65h1M58 65h1M67 65h1M25 66h1M39 66h1M57 66h1M67 66h1M74 66h1M24 67h1M36 67h1M55 67h1M67 67h1M73 67h1M23 68h1M33 68h1M53 68h1M72 68h1M30 69h1M32 69h1M52 69h1M71 69h1M27 70h1M30 70h1M50 70h1M66 70h1M70 70h1M22 71h1M25 71h1M29 71h1M48 71h2M65 71h1M68 71h1M22 72h2M28 72h1M44 72h2M64 72h1M34 73h8M48 73h4M61 73h2M29 74h3M54 74h5" />
<path stroke="#ffedff" d="M33 21h4M30 22h8M29 23h11M28 24h5M37 24h2M28 25h3M37 25h2M28 26h2M56 26h3M28 27h1M55 27h6M27 28h4M54 28h8M26 29h8M57 29h6M25 30h9M58 30h5M24 31h6M31 31h4M58 31h6M24 32h5M32 32h3M59 32h4M24 33h5M32 33h4M59 33h1M63 33h3M24 34h3M31 34h5M62 34h6M23 35h4M29 35h10M62 35h7M23 36h9M33 36h7M62 36h8M22 37h8M32 37h9M63 37h8M22 38h5M28 38h1M32 38h10M64 38h7M23 39h2M27 39h2M31 39h2M34 39h9M65 39h7M27 40h1M31 40h3M35 40h9M66 40h6M30 41h4M36 41h9M69 41h2M29 42h6M36 42h9M29 43h6M37 43h9M28 44h5M37 44h10M28 45h5M37 45h11M71 45h1M29 46h5M37 46h11M49 46h2M70 46h3M29 47h5M37 47h2M40 47h7M48 47h3M70 47h3M26 48h1M30 48h3M36 48h3M41 48h11M70 48h4M25 49h3M36 49h4M42 49h10M70 49h4M25 50h3M36 50h4M43 50h1M45 50h7M70 50h4M25 51h2M36 51h4M45 51h7M70 51h4M25 52h1M36 52h4M44 52h8M71 52h2M36 53h4M44 53h7M36 54h4M44 54h7M37 55h3M44 55h6M37 56h3M44 56h4M37 57h3M72 57h2M37 58h3M71 58h3M37 59h3M70 59h5M37 60h3M70 60h5M69 61h6M35 62h1M69 62h6M31 63h7M69 63h6M29 64h10M64 64h3M68 64h7M27 65h11M61 65h6M68 65h6M26 66h9M41 66h10M58 66h9M68 66h6M25 67h7M38 67h14M57 67h10M68 67h5M24 68h6M35 68h17M55 68h12M68 68h4M24 69h5M33 69h19M53 69h13M69 69h2M23 70h3M29 70h1M32 70h18M52 70h14M23 71h1M30 71h17M51 71h14M29 72h14M52 72h12M28 73h5M54 73h6" />
<path stroke="#ffe468" d="M33 24h2M39 24h2M31 25h3M39 25h3M30 26h3M38 26h5M29 27h3M34 27h1M37 27h1M40 27h2M24 28h2M32 28h4M37 28h3M24 29h1M34 29h1M39 29h1M53 29h4M34 30h1M53 30h5M35 31h1M49 31h3M53 31h5M35 32h1M48 32h3M52 32h7M36 33h1M47 33h4M52 33h7M23 34h1M27 34h1M36 34h2M47 34h2M52 34h7M60 34h2M27 35h2M53 35h5M59 35h3M32 36h1M44 36h2M53 36h3M58 36h4M31 37h1M43 37h3M58 37h5M27 38h1M30 38h2M43 38h3M58 38h6M30 39h1M33 39h1M44 39h1M59 39h6M25 40h1M30 40h1M60 40h6M25 41h2M34 41h1M61 41h2M71 41h1M24 42h2M45 42h1M67 42h2M70 42h2M23 43h2M35 43h1M46 43h1M66 43h4M22 44h1M24 44h1M34 44h2M47 44h2M65 44h6M21 45h1M24 45h1M33 45h1M35 45h1M48 45h1M50 45h1M65 45h6M21 46h1M24 46h1M34 46h1M51 46h1M65 46h5M20 47h1M23 47h1M27 47h1M35 47h1M39 47h1M47 47h1M51 47h2M66 47h4M20 48h2M23 48h1M27 48h2M33 48h2M39 48h2M52 48h2M66 48h4M21 49h2M28 49h2M31 49h4M40 49h1M52 49h3M67 49h3M21 50h2M28 50h2M33 50h2M40 50h1M42 50h1M44 50h1M52 50h3M69 50h1M21 51h1M27 51h3M40 51h1M42 51h2M52 51h3M27 52h1M40 52h1M42 52h1M52 52h3M73 52h1M40 53h1M51 53h4M69 53h1M72 53h2M40 54h1M51 54h3M68 54h4M40 55h1M50 55h3M67 55h6M40 56h1M48 56h3M66 56h8M40 57h1M45 57h4M66 57h6M40 58h1M46 58h1M66 58h5M40 59h1M62 59h3M66 59h4M40 60h1M61 60h4M66 60h4M61 61h5M67 61h2M36 62h5M50 62h5M60 62h6M67 62h2M38 63h4M48 63h10M60 63h7M68 63h1M39 64h3M45 64h14M60 64h4M38 65h3M43 65h15M59 65h2M35 66h3M51 66h6M32 67h3M52 67h3M30 68h2M52 68h1M29 69h1M67 69h2M67 70h3M50 71h1M47 72h5M53 73h1" />
<path stroke="#ffffff" d="M28 41h1M27 42h1M25 43h3M25 44h2M25 45h2M25 46h2M24 47h2M24 48h1" />
</svg>