<svg xmlns="http://www.w3.org/2000/svg" viewBox="0 -0.5 96 96" shape-rendering="crispEdges">
<metadata>Made with Pixels to Svg https://codepen.io/shshaw/pen/XbxvNj</metadata>
<path stroke="#120b0b" d="M56 33h2M37 34h2M55 34h1M58 34h1M36 35h1M39 35h1M43 35h8M54 35h1M36 36h1M40 36h1M53 36h1M59 36h1M35 37h1M38 37h4M56 37h2M35 38h1M37 38h1M39 38h1M55 38h4M60 38h1M35 39h2M38 39h1M46 39h1M55 39h4M60 39h1M35 40h1M56 40h2M37 41h1M45 41h1M48 41h1M59 41h1M34 42h1M37 42h1M44 42h1M46 42h1M50 42h1M60 42h1M36 43h2M43 43h1M45 43h1M48 43h1M51 43h1M60 43h1M35 44h1M38 44h1M47 44h2M33 45h2M36 45h2M39 45h1M42 45h1M44 45h1M46 45h5M52 45h1M33 46h1M35 46h2M38 46h1M40 46h2M47 46h3M61 46h2M35 47h4M40 47h1M45 47h1M48 47h1M51 47h1M58 47h1M63 47h1M29 48h2M32 48h1M34 48h1M36 48h2M39 48h1M46 48h1M50 48h1M62 48h1M32 49h1M35 49h4M48 49h1M61 49h1M28 50h1M32 50h1M60 50h2M30 51h1M32 51h1M41 51h4M59 51h1M61 51h1M32 52h1M44 52h1M58 52h1M61 52h1M32 53h1M43 53h1M61 53h1M42 54h1M60 54h1M33 55h1M60 55h1M59 56h1M34 57h1M59 57h1M35 58h1M58 58h1M36 59h1M56 59h2M37 60h1M54 60h2M41 61h3M47 61h7M39 62h2M44 62h4M53 62h1M44 63h1M48 63h1M38 64h1M42 64h1M50 64h1M55 64h1M39 65h2M52 65h2" />
<path stroke="#ffedff" d="M56 34h2M55 35h3M54 36h2M43 37h6M54 37h1M38 38h1M40 38h3M47 38h5M37 39h1M39 39h4M47 39h6M36 40h1M38 40h4M47 40h8M36 41h1M38 41h3M46 41h1M50 41h6M35 42h2M38 42h2M45 42h1M47 42h3M51 42h5M35 43h1M38 43h2M44 43h1M46 43h1M50 43h1M52 43h5M34 44h1M36 44h2M39 44h1M43 44h1M45 44h1M49 44h1M51 44h1M53 44h4M35 45h1M38 45h1M40 45h1M43 45h1M45 45h1M51 45h1M53 45h5M34 46h1M37 46h1M39 46h1M42 46h2M45 46h1M51 46h1M53 46h5M34 47h1M39 47h1M41 47h4M46 47h1M50 47h1M52 47h5M60 47h3M35 48h1M38 48h1M40 48h6M47 48h3M51 48h5M57 48h4M28 49h3M34 49h1M39 49h8M50 49h10M34 50h15M52 50h7M34 51h1M37 51h3M45 51h12M35 52h5M45 52h11M35 53h6M45 53h11M35 54h7M44 54h11M36 55h19M37 56h17M39 57h13M41 58h8M39 63h2M53 63h2" />
<path stroke="#f6adc0" d="M37 35h2M58 35h1M37 36h3M42 36h10M58 36h1M36 37h2M49 37h5M59 37h1M36 38h1M43 38h3M52 38h2M59 38h1M43 39h3M53 39h1M59 39h1M42 40h2M59 40h1M41 41h2M58 41h1M40 42h2M56 42h3M40 43h2M57 43h3M40 44h2M57 44h3M41 45h1M58 45h3M58 46h2M33 48h1M61 48h1M31 49h1M33 49h1M60 49h1M31 50h1M33 50h1M49 50h3M59 50h1M33 51h1M35 51h2M57 51h1M33 52h2M40 52h1M33 53h2M41 53h1M44 53h1M56 53h2M34 54h1M55 54h3M34 55h2M55 55h2M35 56h2M54 56h3M35 57h4M52 57h4M37 58h4M49 58h6M38 59h15M41 60h7M41 63h1M50 63h3M39 64h3M51 64h4" />
<path stroke="#e470a5" d="M42 35h1M51 35h1M59 35h1M41 36h1M52 36h1M56 36h2M42 37h1M55 37h1M58 37h1M60 37h1M46 38h1M54 38h1M54 39h1M37 40h1M44 40h3M55 40h1M58 40h1M60 40h1M35 41h1M43 41h2M47 41h1M49 41h1M56 41h2M42 42h2M59 42h1M34 43h1M42 43h1M47 43h1M49 43h1M33 44h1M42 44h1M44 44h1M46 44h1M50 44h1M52 44h1M60 44h1M61 45h1M44 46h1M46 46h1M50 46h1M52 46h1M60 46h1M63 46h1M32 47h2M47 47h1M49 47h1M57 47h1M59 47h1M28 48h1M31 48h1M56 48h1M27 49h1M47 49h1M49 49h1M27 50h1M29 50h2M29 51h1M31 51h1M40 51h1M58 51h1M60 51h1M31 52h1M41 52h3M56 52h2M59 52h2M42 53h1M58 53h3M32 54h2M43 54h1M58 54h2M61 54h1M57 55h3M33 56h2M57 56h2M60 56h1M56 57h3M36 58h1M55 58h3M37 59h1M53 59h3M38 60h3M48 60h6M39 61h2M44 61h3M41 62h3M48 62h5M54 62h1M38 63h1M42 63h2M49 63h1M55 63h1M43 64h1M49 64h1M38 65h1M41 65h1M51 65h1M54 65h1" />
</svg>