<svg xmlns="http://www.w3.org/2000/svg" viewBox="0 -0.5 96 96" shape-rendering="crispEdges">
<metadata>Made with Pixels to Svg https://codepen.io/shshaw/pen/XbxvNj</metadata>
<path stroke="#120b0b" d="M52 20h2M58 20h1M40 21h1M47 21h3M51 21h1M54 21h1M57 21h1M59 21h1M40 22h2M46 22h1M50 22h1M55 22h2M59 22h1M40 23h1M42 23h1M45 23h1M50 23h1M56 23h1M59 23h1M30 24h1M40 24h1M43 24h3M50 24h1M56 24h1M58 24h1M60 24h1M30 25h1M32 25h1M40 25h1M42 25h1M45 25h1M51 25h1M53 25h2M57 25h1M60 25h1M30 26h1M32 26h1M40 26h1M45 26h1M47 26h7M60 26h1M30 27h1M40 27h2M46 27h1M52 27h1M60 27h1M34 28h1M40 28h1M43 28h6M60 28h1M35 29h1M39 29h2M42 29h1M47 29h5M61 29h1M36 30h3M41 30h1M50 30h7M51 31h1M55 31h2M62 31h1M45 32h3M52 32h1M56 32h1M63 32h1M23 33h1M44 33h2M47 33h1M52 33h1M57 33h1M25 34h1M31 34h1M38 34h1M43 34h2M52 34h1M57 34h1M64 34h1M24 35h1M27 35h1M31 35h1M39 35h1M42 35h1M44 35h2M51 35h1M57 35h1M29 36h3M43 36h1M51 36h1M53 36h4M58 36h1M65 36h1M25 37h1M32 37h6M50 37h3M58 37h1M65 37h1M32 38h1M35 38h1M37 38h1M41 38h1M49 38h2M26 39h1M34 39h2M43 39h2M49 39h2M64 39h1M27 40h1M46 40h1M48 40h2M63 40h1M28 41h1M38 41h1M47 41h3M30 42h1M37 42h1M43 42h1M47 42h2M62 42h1M31 43h2M37 43h1M40 43h1M48 43h2M61 43h1M33 44h2M36 44h1M48 44h2M60 44h1M35 45h3M49 45h2M61 45h1M67 45h1M37 46h1M49 46h2M62 46h1M65 46h1M67 46h1M50 47h2M62 47h1M65 47h1M67 47h1M38 48h1M50 48h2M63 48h2M67 48h1M38 49h1M50 49h2M63 49h1M67 49h1M38 50h1M49 50h2M64 50h1M67 50h1M48 51h2M64 51h1M40 52h1M47 52h1M64 52h1M42 53h2M46 53h1M65 53h1M40 54h2M44 54h2M65 54h1M68 54h1M37 55h1M45 55h1M65 55h1M68 55h1M35 56h1M42 56h2M45 56h1M62 56h2M66 56h3M34 57h1M37 57h2M40 57h2M45 57h2M65 57h4M34 58h2M39 58h1M42 58h5M66 58h3M38 59h1M40 59h2M45 59h3M69 59h1M37 60h1M45 60h3M70 60h1M35 61h1M46 61h3M59 61h1M71 61h1M34 62h1M46 62h5M57 62h3M72 62h1M33 63h1M46 63h7M55 63h6M72 63h1M33 64h1M46 64h9M59 64h3M72 64h1M33 65h1M45 65h6M55 65h1M62 65h2M72 65h1M34 66h1M44 66h2M56 66h1M64 66h2M72 66h1M35 67h3M56 67h1M65 67h2M71 67h1M38 68h12M55 68h1M66 68h2M70 68h2M47 69h6M55 69h1M66 69h2M69 69h2M43 70h3M54 70h1M66 70h5M40 71h3M54 71h1M64 71h2M71 71h2M39 72h1M43 72h2M53 72h1M63 72h1M73 72h1M41 73h2M45 73h1M48 73h2M52 73h1M62 73h1M67 73h1M70 73h1M74 73h1M46 74h2M50 74h2M62 74h1M64 74h5M70 74h3M74 74h1M63 75h1M68 75h2M73 75h1" />
<path stroke="#6893c9" d="M54 20h1M57 20h1M55 21h1M49 22h1M53 22h2M30 23h1M48 23h1M52 23h2M58 23h1M60 23h1M31 24h1M47 24h1M52 24h1M47 25h1M55 25h2M58 25h1M41 26h1M54 26h5M33 27h1M43 27h1M47 27h5M53 27h6M30 28h1M42 28h1M49 28h9M61 28h1M30 29h1M46 29h1M52 29h5M31 30h1M49 30h1M62 30h1M31 31h1M37 31h1M50 31h1M52 31h1M57 31h2M63 31h1M31 32h1M51 32h1M57 32h2M24 33h1M31 33h1M39 33h1M51 33h1M58 33h1M64 33h1M23 34h1M26 34h1M40 34h1M51 34h1M58 34h1M28 35h1M38 35h1M46 35h1M50 35h1M52 35h1M56 35h1M58 35h2M65 35h1M24 36h1M44 36h2M50 36h1M52 36h1M57 36h1M59 36h1M38 37h1M49 37h1M53 37h3M59 37h1M25 38h1M40 38h1M42 38h1M47 38h2M51 38h3M59 38h1M65 38h1M36 39h1M45 39h4M51 39h2M60 39h1M33 40h2M39 40h1M45 40h1M47 40h1M50 40h3M50 41h3M62 41h2M66 41h1M29 42h1M31 42h1M38 42h1M49 42h3M61 42h1M66 42h1M33 43h1M47 43h1M50 43h1M60 43h1M62 43h1M67 43h1M35 44h1M50 44h2M61 44h1M65 44h1M67 44h1M48 45h1M51 45h1M62 45h1M65 45h1M51 46h2M61 46h1M38 47h1M49 47h1M52 47h1M63 47h1M52 48h2M62 48h1M49 49h1M52 49h2M64 49h1M48 50h1M51 50h3M63 50h1M39 51h1M47 51h1M50 51h3M63 51h1M68 51h1M41 52h1M48 52h3M65 52h1M68 52h1M45 53h1M47 53h2M64 53h1M68 53h1M38 54h2M46 54h2M64 54h1M36 55h1M46 55h2M63 55h2M66 55h1M41 56h1M46 56h3M64 56h2M44 57h1M47 57h3M63 57h2M36 58h1M47 58h3M60 58h1M39 59h1M42 59h3M48 59h3M60 59h1M67 59h2M36 60h1M38 60h1M48 60h5M59 60h1M69 60h1M36 61h1M45 61h1M49 61h7M57 61h2M70 61h1M45 62h1M51 62h6M60 62h1M71 62h1M34 63h1M44 63h2M53 63h2M61 63h2M71 63h1M34 64h1M42 64h4M55 64h4M62 64h3M70 64h2M34 65h1M37 65h8M51 65h1M56 65h1M64 65h3M69 65h3M35 66h9M46 66h8M66 66h6M38 67h18M67 67h4M50 68h5M68 68h2M53 69h2M68 69h1M53 70h1M48 71h1M53 71h1M66 71h1M46 72h2M52 72h1M67 72h1M70 72h1M51 73h1M66 73h1M71 73h1" />
<path stroke="#ffedff" d="M52 21h2M58 21h1M47 22h2M51 22h2M57 22h2M41 23h1M46 23h2M51 23h1M57 23h1M41 24h1M46 24h1M51 24h1M57 24h1M31 25h1M41 25h1M43 25h2M46 25h1M52 25h1M31 26h1M42 26h3M46 26h1M31 27h2M42 27h1M31 28h2M41 28h1M31 29h3M41 29h1M32 30h1M32 31h1M32 32h2M32 33h3M46 33h1M24 34h1M32 34h3M39 34h1M45 34h2M25 35h1M33 35h1M43 35h1M25 36h2M26 37h2M26 38h3M33 38h2M36 38h1M27 39h3M33 39h1M40 39h3M29 40h1M40 40h4M30 41h1M39 41h5M39 42h4M45 42h2M38 43h1M41 43h2M45 43h2M66 43h1M40 44h5M66 44h1M39 45h8M66 45h1M39 46h8M66 46h1M39 47h9M66 47h1M39 48h9M65 48h2M39 49h8M65 49h1M39 50h8M65 50h1M40 51h6M65 51h1M42 52h3M42 54h2M38 55h7M36 56h3M44 56h1M35 57h2M42 57h2M40 58h2M62 59h2M39 60h4M61 60h4M38 61h3M61 61h4M62 62h2M50 70h2M43 71h2M49 71h1M48 72h1M64 72h2M68 72h1M71 72h2M63 73h1M68 73h2M73 73h1M63 74h1M69 74h1M73 74h1" />
<path stroke="#a5c9ed" d="M49 23h1M54 23h2M42 24h1M48 24h2M53 24h3M59 24h1M48 25h3M59 25h1M33 26h1M59 26h1M44 27h2M59 27h1M33 28h1M58 28h2M34 29h1M43 29h3M57 29h4M30 30h1M33 30h3M39 30h2M42 30h7M57 30h5M30 31h1M33 31h4M38 31h12M59 31h3M30 32h1M34 32h11M48 32h3M59 32h4M35 33h4M40 33h4M48 33h3M59 33h5M35 34h3M41 34h2M47 34h4M59 34h5M26 35h1M32 35h1M34 35h4M40 35h2M47 35h3M60 35h5M27 36h2M32 36h11M46 36h4M60 36h5M28 37h4M39 37h10M56 37h2M60 37h5M29 38h3M38 38h2M43 38h4M54 38h5M60 38h5M30 39h3M37 39h3M53 39h7M61 39h3M28 40h1M30 40h3M35 40h4M44 40h1M53 40h10M66 40h1M29 41h1M31 41h7M44 41h3M53 41h9M32 42h5M44 42h1M52 42h9M34 43h3M39 43h1M43 43h2M51 43h9M65 43h1M37 44h3M45 44h3M52 44h8M34 45h1M38 45h1M47 45h1M52 45h9M36 46h1M38 46h1M47 46h2M53 46h8M37 47h1M48 47h1M53 47h9M37 48h1M48 48h2M54 48h8M47 49h2M54 49h9M66 49h1M47 50h1M54 50h9M66 50h1M68 50h1M38 51h1M46 51h1M53 51h10M66 51h2M39 52h1M45 52h2M51 52h13M66 52h2M44 53h1M49 53h15M66 53h2M48 54h16M66 54h2M48 55h15M67 55h1M39 56h2M49 56h13M39 57h1M50 57h13M50 58h10M61 58h5M51 59h9M61 59h1M64 59h3M43 60h2M53 60h6M60 60h1M65 60h4M37 61h1M41 61h4M56 61h1M60 61h1M65 61h5M35 62h10M61 62h1M64 62h7M35 63h9M63 63h8M35 64h7M65 64h5M35 65h2M52 65h3M67 65h2M54 66h2M48 70h2M52 70h1M45 71h3M50 71h3M67 71h4M42 72h1M45 72h1M49 72h3M66 72h1M69 72h1M46 73h2M50 73h1M64 73h2M72 73h1" />
<path stroke="#ffffff" d="M53 31h2M53 32h3M53 33h4M53 34h4M53 35h3" />
</svg>