<svg xmlns="http://www.w3.org/2000/svg" viewBox="0 -0.5 96 96" shape-rendering="crispEdges">
<metadata>Made with Pixels to Svg https://codepen.io/shshaw/pen/XbxvNj</metadata>
<path stroke="#120b0b" d="M38 31h2M56 31h1M37 32h1M40 32h1M54 32h1M57 32h1M34 33h1M37 33h1M41 33h1M52 33h1M55 33h3M34 34h2M38 34h1M44 34h5M54 34h1M57 34h1M34 35h1M36 35h1M38 35h1M53 35h1M57 35h1M33 36h1M36 36h1M39 36h1M54 36h2M57 36h1M32 37h1M36 37h1M39 37h1M56 37h2M32 38h1M35 38h1M38 38h1M57 38h1M31 39h1M35 39h1M37 39h1M58 39h1M31 40h1M34 40h1M36 40h1M58 40h1M30 41h1M34 41h1M36 41h1M51 41h2M59 41h1M30 42h1M34 42h1M36 42h1M41 42h1M50 42h1M59 42h1M30 43h1M34 43h1M37 43h1M42 43h1M49 43h1M59 43h2M30 44h1M35 44h4M43 44h1M48 44h1M58 44h1M61 44h1M31 45h1M35 45h1M38 45h2M43 45h1M48 45h1M56 45h2M62 45h1M31 46h1M34 46h1M39 46h2M54 46h3M63 46h1M31 47h1M34 47h1M39 47h3M51 47h5M63 47h1M32 48h1M35 48h1M40 48h3M49 48h6M61 48h2M32 49h1M36 49h7M44 49h1M46 49h1M48 49h6M59 49h2M33 50h1M35 50h1M40 50h4M47 50h14M34 51h1M39 51h1M41 51h11M54 51h3M59 51h2M30 52h3M34 52h3M39 52h3M47 52h5M54 52h3M59 52h1M61 52h1M30 53h1M33 53h2M37 53h1M42 53h2M50 53h2M55 53h1M59 53h1M30 54h1M34 54h1M38 54h1M44 54h1M51 54h1M55 54h1M59 54h1M62 54h1M31 55h1M34 55h1M38 55h1M45 55h1M51 55h1M55 55h1M59 55h1M31 56h1M34 56h1M38 56h1M43 56h1M46 56h1M51 56h2M63 56h1M31 57h1M38 57h1M41 57h1M44 57h2M48 57h5M60 57h1M63 57h1M32 58h1M38 58h2M42 58h1M45 58h4M50 58h4M60 58h1M63 58h1M32 59h1M38 59h7M51 59h3M60 59h1M63 59h1M32 60h1M38 60h2M50 60h4M60 60h1M62 60h1M32 61h1M37 61h1M39 61h1M50 61h4M61 61h1M32 62h1M37 62h1M39 62h2M49 62h5M60 62h1M62 62h1M32 63h2M37 63h1M39 63h3M48 63h6M55 63h3M60 63h2M31 64h1M34 64h1M36 64h1M38 64h17M58 64h2M31 65h1M34 65h1M36 65h1M47 65h8M58 65h2M32 66h4M54 66h1M57 66h1M55 67h2" />
<path stroke="#d19c00" d="M55 31h1M38 32h1M53 32h1M38 33h2M42 33h1M51 33h1M39 34h2M43 34h1M49 34h2M55 34h2M39 35h3M54 35h3M35 36h1M56 36h1M34 37h2M34 38h1M33 39h2M38 39h1M33 40h1M37 40h1M33 41h1M40 41h2M50 41h1M58 41h1M31 42h3M37 42h1M42 42h1M49 42h1M58 42h1M33 43h1M43 43h1M48 43h1M57 43h2M33 44h2M56 44h2M59 44h1M32 45h1M34 45h1M40 45h1M54 45h2M58 45h1M38 46h1M41 46h1M52 46h2M57 46h1M62 46h1M35 47h4M42 47h1M50 47h1M56 47h1M61 47h2M33 48h2M36 48h4M48 48h1M55 48h6M35 49h1M43 49h1M47 49h1M54 49h5M34 50h1M44 50h3M38 51h1M40 51h1M38 52h1M46 52h1M38 53h1M49 53h1M62 53h1M37 54h1M37 55h1M41 55h2M52 55h1M54 55h1M58 55h1M60 55h1M62 55h2M37 56h1M49 56h2M53 56h9M32 57h6M39 57h1M46 57h2M53 57h7M62 57h1M33 58h5M40 58h2M49 58h1M54 58h6M61 58h2M33 59h5M48 59h3M54 59h6M61 59h2M33 60h5M47 60h3M54 60h6M61 60h1M63 60h1M33 61h4M38 61h1M47 61h3M54 61h7M62 61h1M33 62h4M38 62h1M45 62h4M54 62h6M61 62h1M34 63h3M38 63h1M42 63h6M54 63h1M58 63h2M35 64h1M57 64h1M60 64h1M33 65h1M35 65h1M57 65h1M55 66h2" />
<path stroke="#ffe468" d="M39 32h1M40 33h1M41 34h2M51 34h1M35 35h1M42 35h11M34 36h1M40 36h2M44 36h10M40 37h1M45 37h1M47 37h9M39 38h2M45 38h12M39 39h3M44 39h14M38 40h20M31 41h2M37 41h3M42 41h8M53 41h5M38 42h3M43 42h6M51 42h7M31 43h2M38 43h4M44 43h4M50 43h7M31 44h2M39 44h4M44 44h4M49 44h7M60 44h1M33 45h1M37 45h1M41 45h2M44 45h4M49 45h5M61 45h1M32 46h2M35 46h3M42 46h10M58 46h1M61 46h1M32 47h2M43 47h7M57 47h4M43 48h5M33 49h2M45 49h1M38 50h2M37 51h1M53 51h1M58 51h1M37 52h1M42 52h2M52 52h2M57 52h2M31 53h2M35 53h2M39 53h2M44 53h1M48 53h1M52 53h3M56 53h3M60 53h1M31 54h3M35 54h2M45 54h1M52 54h3M56 54h3M60 54h2M32 55h2M35 55h2M39 55h2M43 55h1M46 55h1M49 55h2M53 55h1M56 55h2M61 55h1M32 56h2M35 56h2M39 56h1M44 56h2M47 56h2M62 56h1M40 57h1M42 57h1M61 57h1M43 58h2M45 59h3M40 60h7M40 61h7M41 62h4M33 64h1M56 64h1M32 65h1M55 65h2" />
<path stroke="#ffedff" d="M55 32h2M53 33h2M52 34h2M42 36h2M33 37h1M41 37h4M46 37h1M33 38h1M41 38h4M32 39h1M42 39h2M32 40h1M36 45h1M59 45h2M59 46h2M36 50h2M35 51h2M52 51h1M57 51h1M44 52h2M60 52h1M41 53h1M45 53h3M61 53h1M39 54h5M46 54h5M44 55h1M47 55h2M40 56h3M43 57h1M32 64h1M55 64h1" />
<path stroke="#ffffff" d="M35 40h1M35 41h1M35 42h1M35 43h2" />
</svg>