<svg xmlns="http://www.w3.org/2000/svg" viewBox="0 -0.5 96 96" shape-rendering="crispEdges">
<metadata>Made with Pixels to Svg https://codepen.io/shshaw/pen/XbxvNj</metadata>
<path stroke="#120b0b" d="M64 27h1M30 28h2M35 28h2M62 28h1M65 28h1M29 29h1M32 29h1M38 29h1M60 29h1M28 30h1M31 30h1M40 30h1M58 30h1M64 30h1M27 31h1M41 31h1M55 32h1M63 32h1M26 33h1M42 33h1M44 33h1M62 33h1M26 34h1M43 34h1M46 34h1M61 34h1M26 35h1M47 35h1M54 35h1M62 35h1M26 36h1M36 36h1M64 36h1M26 37h1M35 37h1M38 37h1M48 37h1M65 37h1M26 38h1M35 38h1M38 38h1M48 38h1M53 38h1M27 39h1M34 39h1M38 39h1M53 39h1M66 39h1M27 40h1M38 40h1M45 40h1M50 40h1M65 40h1M28 41h1M46 41h2M51 41h1M54 41h1M64 41h1M27 42h1M34 42h2M51 42h1M54 42h1M66 42h1M27 43h1M33 43h1M35 43h1M52 43h1M54 43h1M33 44h3M53 44h1M55 44h1M33 45h2M49 45h1M55 45h3M68 45h1M26 46h1M37 46h1M51 46h2M59 46h1M68 46h1M26 47h1M36 47h1M60 47h1M26 48h1M35 48h1M61 48h1M67 48h1M34 49h2M61 49h1M65 49h1M27 50h1M32 50h1M34 50h2M63 50h2M29 51h2M33 51h1M35 51h1M62 51h1M52 52h1M62 52h1M34 53h1M52 53h1M62 53h1M32 54h2M36 54h1M45 54h1M53 54h1M31 55h1M36 55h1M44 55h1M54 55h1M30 56h1M36 56h1M45 56h7M55 56h1M63 56h1M30 57h1M35 57h1M43 57h1M49 57h2M53 57h4M30 58h1M35 58h1M42 58h1M50 58h1M56 58h3M64 58h1M31 59h1M35 59h1M41 59h1M51 59h1M58 59h2M68 59h1M32 60h2M35 60h1M42 60h2M52 60h1M58 60h3M65 60h1M67 60h1M69 60h1M34 61h1M43 61h1M53 61h1M58 61h1M61 61h1M66 61h1M69 61h1M34 62h1M41 62h2M54 62h1M58 62h1M62 62h1M69 62h1M34 63h1M40 63h1M53 63h1M58 63h1M62 63h1M68 63h1M33 64h1M38 64h6M52 64h1M59 64h1M63 64h1M67 64h1M69 64h1M33 65h1M43 65h1M51 65h1M57 65h2M63 65h1M68 65h1M32 66h1M41 66h2M51 66h2M55 66h1M58 66h1M63 66h1M67 66h1M32 67h1M39 67h2M50 67h1M52 67h3M56 67h2M63 67h1M67 67h1M31 68h3M36 68h3M50 68h5M63 68h1M66 68h2M30 69h1M32 69h5M50 69h5M63 69h5M30 70h6M50 70h3M62 70h1M64 70h4M31 71h4M62 71h5" />
<path stroke="#d14728" d="M65 27h1M37 28h1M63 28h1M33 29h2M39 29h1M61 29h1M65 29h1M32 30h1M57 30h1M59 30h1M31 31h1M56 31h1M64 31h1M27 32h1M30 32h1M41 32h1M45 33h1M55 33h1M29 34h1M54 34h1M37 35h1M63 35h1M38 36h1M48 36h1M54 36h1M28 37h1M37 37h1M53 37h1M28 38h1M34 38h1M37 38h1M39 38h1M66 38h1M28 39h1M36 39h2M39 39h1M47 39h2M29 40h1M33 40h1M39 40h2M46 40h1M49 40h1M53 40h1M59 40h1M32 41h1M39 41h2M48 41h1M59 41h1M28 42h1M40 42h2M59 42h2M65 42h1M28 43h1M41 43h2M55 43h1M58 43h4M67 43h1M27 44h1M42 44h3M58 44h4M68 44h1M26 45h1M45 45h4M54 45h1M58 45h4M50 46h1M53 46h1M60 46h3M61 47h2M68 47h1M27 48h1M31 48h1M62 48h1M26 49h1M30 49h1M62 49h2M66 49h1M33 50h1M62 50h1M28 51h1M31 51h1M35 52h1M36 53h1M62 54h1M53 55h1M63 55h1M35 56h1M44 56h1M52 56h3M34 57h1M51 57h2M64 57h1M33 58h2M51 58h5M32 59h3M54 59h4M64 59h2M34 60h1M41 60h1M44 60h1M55 60h3M64 60h1M68 60h1M56 61h2M63 61h3M67 61h2M36 62h3M56 62h2M63 62h6M35 63h3M55 63h3M63 63h5M34 64h4M44 64h1M54 64h5M64 64h3M68 64h1M34 65h9M52 65h5M64 65h4M33 66h8M53 66h2M56 66h2M64 66h3M33 67h6M64 67h3M34 68h2M64 68h2" />
<path stroke="#ff9c47" d="M64 28h1M30 29h2M37 29h1M64 29h1M29 30h2M33 30h1M38 30h1M28 31h3M38 31h3M63 31h1M28 32h1M38 32h2M56 32h1M62 32h1M30 33h1M37 33h4M61 33h1M36 34h6M55 34h1M58 34h3M29 35h1M35 35h2M38 35h5M44 35h3M57 35h3M29 36h1M34 36h2M37 36h1M39 36h9M56 36h4M29 37h1M34 37h1M36 37h1M39 37h9M55 37h5M27 38h1M29 38h1M36 38h1M40 38h8M55 38h6M29 39h2M33 39h1M40 39h3M44 39h3M55 39h6M28 40h1M30 40h1M34 40h1M36 40h2M41 40h2M55 40h4M60 40h1M29 41h1M38 41h1M41 41h1M49 41h1M56 41h3M60 41h2M39 42h1M46 42h4M56 42h3M61 42h1M67 42h1M40 43h1M43 43h6M56 43h2M62 43h1M28 44h1M41 44h1M45 44h2M52 44h1M56 44h2M62 44h2M66 44h2M42 45h3M52 45h2M62 45h2M66 45h2M38 46h1M45 46h4M63 46h1M65 46h3M27 47h3M37 47h2M63 47h5M28 48h3M36 48h3M63 48h4M27 49h3M31 49h2M36 49h2M64 49h1M28 50h4M36 50h2M36 51h1M35 53h1M44 53h1M51 53h1M61 53h1M34 54h2M43 54h2M50 54h3M60 54h2M33 55h3M42 55h2M45 55h8M61 55h2M33 56h2M42 56h2M62 56h1M31 57h3M41 57h2M63 57h1M31 58h2M38 58h4M36 59h5M52 59h2M36 60h5M53 60h2M35 61h8M54 61h2M35 62h1M39 62h2M55 62h1M38 63h2M54 63h1M53 64h1M51 67h1M31 69h1M63 70h1" />
<path stroke="#ffedff" d="M35 29h2M62 29h2M34 30h4M39 30h1M60 30h4M32 31h6M57 31h6M29 32h1M31 32h7M40 32h1M57 32h5M27 33h3M31 33h6M41 33h1M56 33h5M27 34h2M30 34h6M42 34h1M44 34h2M56 34h2M27 35h2M30 35h5M43 35h1M55 35h2M60 35h2M27 36h2M30 36h4M55 36h1M60 36h4M27 37h1M30 37h4M54 37h1M60 37h5M30 38h4M54 38h1M61 38h5M31 39h2M35 39h1M43 39h1M54 39h1M61 39h5M31 40h2M35 40h1M43 40h2M47 40h2M54 40h1M61 40h4M30 41h2M33 41h5M42 41h4M50 41h1M55 41h1M62 41h2M29 42h5M36 42h3M42 42h4M50 42h1M55 42h1M62 42h3M29 43h4M34 43h1M36 43h4M49 43h3M63 43h4M29 44h4M36 44h5M47 44h5M54 44h1M64 44h2M27 45h6M35 45h7M50 45h2M64 45h2M27 46h10M39 46h6M49 46h1M54 46h5M64 46h1M30 47h6M39 47h21M32 48h3M39 48h22M33 49h1M38 49h23M38 50h24M37 51h25M36 52h16M53 52h9M37 53h7M45 53h6M53 53h8M37 54h6M46 54h4M54 54h6M32 55h1M37 55h5M55 55h6M31 56h2M37 56h5M56 56h6M36 57h5M57 57h6M36 58h2M59 58h5M60 59h4M61 60h3M62 61h1" />
</svg>