<svg xmlns="http://www.w3.org/2000/svg" viewBox="0 -0.5 96 96" shape-rendering="crispEdges">
<metadata>Made with Pixels to Svg https://codepen.io/shshaw/pen/XbxvNj</metadata>
<path stroke="#120b0b" d="M42 30h3M41 31h1M44 31h1M40 32h1M44 32h1M61 32h4M40 33h1M44 33h1M59 33h2M64 33h1M39 34h1M44 34h1M57 34h2M63 34h1M39 35h1M44 35h1M56 35h1M63 35h1M39 36h1M43 36h6M55 36h1M62 36h1M38 37h1M41 37h2M50 37h2M54 37h1M62 37h1M38 38h1M40 38h1M53 38h1M61 38h1M39 39h1M52 39h1M60 39h1M38 40h1M52 40h1M59 40h1M38 41h2M49 41h2M52 41h1M59 41h1M37 42h1M40 42h1M48 42h1M53 42h2M58 42h1M37 43h1M41 43h1M47 43h1M55 43h1M58 43h1M34 44h3M40 44h1M48 44h1M55 44h3M32 45h2M36 45h1M38 45h1M40 45h2M47 45h2M52 45h1M55 45h1M31 46h1M37 46h1M41 46h1M47 46h1M52 46h2M55 46h1M61 46h4M30 47h1M37 47h2M55 47h1M59 47h2M65 47h1M29 48h1M37 48h1M39 48h1M50 48h1M54 48h5M66 48h1M29 49h1M32 49h1M38 49h1M40 49h2M47 49h3M54 49h4M67 49h1M29 50h1M39 50h1M42 50h6M49 50h1M52 50h5M67 50h1M29 51h1M34 51h1M38 51h1M40 51h1M48 51h1M51 51h3M57 51h1M67 51h1M30 52h1M33 52h1M37 52h1M41 52h1M49 52h4M58 52h1M67 52h1M31 53h2M36 53h1M42 53h9M52 53h1M58 53h2M66 53h1M32 54h1M36 54h1M42 54h5M52 54h1M58 54h2M65 54h1M31 55h1M35 55h1M41 55h4M53 55h1M57 55h1M60 55h5M31 56h1M35 56h1M40 56h1M44 56h2M52 56h2M55 56h2M60 56h1M30 57h1M35 57h1M39 57h2M46 57h2M51 57h1M54 57h1M61 57h1M30 58h1M35 58h5M48 58h2M55 58h1M61 58h1M29 59h1M35 59h1M39 59h1M50 59h1M55 59h1M61 59h1M29 60h1M35 60h1M39 60h1M51 60h1M55 60h1M60 60h1M29 61h1M35 61h1M40 61h1M51 61h1M55 61h1M58 61h3M29 62h1M36 62h1M40 62h2M51 62h1M54 62h4M60 62h1M30 63h1M36 63h1M40 63h3M50 63h2M53 63h1M55 63h1M60 63h1M30 64h1M37 64h1M39 64h6M49 64h4M55 64h1M59 64h3M31 65h1M37 65h12M55 65h1M58 65h5M32 66h2M38 66h2M43 66h3M54 66h2M57 66h2M63 66h1M34 67h5M44 67h3M54 67h4M64 67h1M38 68h1M45 68h3M53 68h4M64 68h1M37 69h1M46 69h7M56 69h2M64 69h1M37 70h1M46 70h1M58 70h6M36 71h1M45 71h1M36 72h1M44 72h1M37 73h7" />
<path stroke="#ffedff" d="M42 31h1M42 32h1M41 33h1M40 34h2M59 34h2M57 35h3M40 36h1M56 36h3M39 37h1M44 37h2M55 37h2M42 38h5M54 38h2M57 38h1M41 39h6M53 39h2M56 39h1M40 40h6M53 40h1M55 40h1M40 41h4M54 41h1M55 42h2M50 43h1M38 44h2M41 44h1M47 44h1M49 44h2M34 45h2M39 45h1M49 45h2M32 46h5M40 46h1M48 46h2M31 47h6M30 48h7M64 48h2M30 49h2M34 49h4M63 49h4M30 50h1M35 50h4M48 50h1M63 50h4M30 51h1M35 51h3M64 51h3M31 52h1M34 52h3M65 52h2M33 53h3M53 53h2M33 54h3M53 54h2M32 55h3M47 55h1M32 56h3M42 56h1M46 56h3M32 57h3M41 57h3M48 57h1M55 57h1M31 58h1M33 58h2M41 58h3M52 58h1M56 58h2M30 59h2M33 59h2M41 59h3M51 59h3M56 59h2M30 60h2M41 60h3M52 60h2M56 60h1M52 61h2M52 62h1M56 63h1M48 66h4M49 67h2M38 70h1M37 71h3M38 72h1" />
<path stroke="#a5c9ed" d="M43 31h1M43 32h1M43 33h1M61 33h3M43 34h1M61 34h2M41 35h2M60 35h2M42 36h1M40 37h1M43 37h1M46 37h3M59 37h3M39 38h1M41 38h1M47 38h3M58 38h3M40 39h1M47 39h4M57 39h3M39 40h1M46 40h6M56 40h3M44 41h3M51 41h1M38 42h1M41 42h5M50 42h3M57 42h1M39 43h1M42 43h3M49 43h1M51 43h2M56 43h2M37 44h1M42 44h3M51 44h2M37 45h1M42 45h4M51 45h1M38 46h2M42 46h5M50 46h2M39 47h13M62 47h2M38 48h1M40 48h10M61 48h3M39 49h1M42 49h5M60 49h3M31 50h3M40 50h2M60 50h3M31 51h3M41 51h3M60 51h4M32 52h1M54 52h2M61 52h4M38 53h2M55 53h2M63 53h3M37 54h3M48 54h1M55 54h2M64 54h1M37 55h3M46 55h1M48 55h2M54 55h2M37 56h2M41 56h1M43 56h1M49 56h2M57 56h2M44 57h1M49 57h2M52 57h1M56 57h3M40 58h1M44 58h3M51 58h1M53 58h1M58 58h2M37 59h2M40 59h1M44 59h4M54 59h1M58 59h2M33 60h2M37 60h2M44 60h4M54 60h1M57 60h2M30 61h2M33 61h2M37 61h2M42 61h6M54 61h1M56 61h1M30 62h3M34 62h1M38 62h1M43 62h4M53 62h1M58 62h1M31 63h3M52 63h1M57 63h1M31 64h2M53 64h1M49 65h6M47 66h1M52 66h2M48 67h1M51 67h2M39 68h2M60 68h3M38 69h5M59 69h4M39 70h5M40 71h5M37 72h1M39 72h5" />
<path stroke="#6893c9" d="M41 32h1M42 33h1M42 34h1M40 35h1M43 35h1M62 35h1M41 36h1M49 36h1M59 36h3M49 37h1M57 37h2M50 38h3M56 38h1M51 39h1M55 39h1M54 40h1M47 41h2M53 41h1M55 41h4M39 42h1M46 42h2M49 42h1M38 43h1M40 43h1M45 43h2M48 43h1M53 43h2M45 44h2M53 44h2M46 45h1M53 45h2M54 46h1M52 47h3M61 47h1M64 47h1M51 48h3M59 48h2M33 49h1M50 49h4M58 49h2M34 50h1M50 50h2M57 50h3M39 51h1M44 51h4M49 51h2M54 51h3M58 51h2M38 52h3M42 52h7M53 52h1M56 52h2M59 52h2M37 53h1M40 53h2M51 53h1M57 53h1M60 53h3M40 54h2M47 54h1M49 54h3M57 54h1M60 54h4M36 55h1M40 55h1M45 55h1M50 55h3M56 55h1M58 55h2M36 56h1M39 56h1M51 56h1M54 56h1M59 56h1M31 57h1M36 57h3M45 57h1M53 57h1M59 57h2M32 58h1M47 58h1M50 58h1M54 58h1M60 58h1M32 59h1M36 59h1M48 59h2M60 59h1M32 60h1M36 60h1M40 60h1M48 60h3M59 60h1M32 61h1M36 61h1M39 61h1M41 61h1M48 61h3M57 61h1M33 62h1M35 62h1M37 62h1M39 62h1M42 62h1M47 62h4M59 62h1M34 63h2M37 63h3M43 63h7M54 63h1M58 63h2M33 64h4M38 64h1M45 64h4M54 64h1M56 64h3M32 65h5M56 65h2M34 66h4M40 66h3M46 66h1M56 66h1M59 66h4M39 67h5M47 67h1M53 67h1M58 67h6M41 68h4M48 68h5M57 68h3M63 68h1M43 69h3M58 69h1M63 69h1M44 70h2" />
</svg>