<svg xmlns="http://www.w3.org/2000/svg" viewBox="0 -0.5 96 96" shape-rendering="crispEdges">
<metadata>Made with Pixels to Svg https://codepen.io/shshaw/pen/XbxvNj</metadata>
<path stroke="#120b0b" d="M38 31h1M40 32h1M52 32h2M39 33h1M41 33h1M51 33h1M54 33h1M42 34h1M51 34h1M55 34h1M40 35h1M43 35h8M57 35h1M38 36h4M44 36h1M52 36h2M59 36h1M35 37h1M49 37h2M61 37h1M32 38h1M44 38h2M54 38h4M62 38h1M31 39h1M41 39h1M52 39h1M61 39h1M64 39h1M39 40h1M51 40h1M59 40h2M63 40h1M30 41h1M37 41h1M49 41h1M59 41h1M61 41h2M35 42h1M48 42h1M61 42h1M63 42h2M29 43h1M33 43h1M46 43h1M58 43h1M61 43h2M64 43h1M29 44h1M32 44h1M45 44h1M58 44h1M60 44h1M30 45h2M44 45h1M59 45h1M63 45h1M31 46h1M43 46h1M57 46h2M62 46h2M31 47h1M42 47h1M61 47h1M63 47h1M32 48h1M41 48h1M56 48h1M63 48h1M31 49h2M40 49h1M55 49h1M58 49h2M63 49h1M30 50h1M33 50h1M63 50h1M30 51h1M34 51h2M39 51h1M54 51h1M62 51h1M29 52h1M35 52h5M53 52h1M62 52h1M29 53h1M35 53h2M39 53h2M52 53h1M61 53h2M29 54h1M34 54h2M40 54h2M51 54h1M61 54h2M29 55h1M33 55h3M38 55h1M40 55h1M44 55h1M50 55h1M60 55h1M62 55h1M29 56h1M32 56h2M35 56h2M40 56h2M43 56h9M58 56h2M62 56h1M30 57h1M32 57h1M35 57h10M49 57h9M61 57h1M31 58h1M35 58h10M47 58h1M49 58h4M61 58h1M31 59h1M35 59h1M39 59h6M48 59h5M61 59h1M31 60h1M34 60h1M41 60h11M60 60h2M33 61h1M42 61h10M60 61h2M32 62h1M42 62h7M50 62h1M59 62h1M61 62h1M32 63h1M42 63h5M49 63h2M58 63h2M61 63h1M32 64h1M42 64h1M49 64h1M56 64h2M59 64h1M61 64h1M32 65h1M41 65h1M50 65h6M60 65h2M32 66h1M41 66h1M48 66h2M33 67h1M40 67h1M42 67h6M34 68h6" />
<path stroke="#70708a" d="M39 31h1M38 32h1M38 33h1M39 34h1M56 34h1M54 35h1M58 35h1M36 36h2M51 36h1M60 36h1M34 37h1M41 37h1M46 37h3M54 37h3M41 38h3M63 38h1M40 39h1M53 39h1M58 39h2M30 40h1M38 40h1M64 40h1M36 41h1M50 41h1M63 41h1M29 42h1M34 42h1M58 42h1M34 43h1M47 43h1M30 44h1M33 44h1M46 44h1M61 44h1M63 44h1M32 45h2M45 45h1M57 45h1M60 45h1M62 45h1M32 46h1M44 46h1M59 46h1M32 47h1M43 47h1M56 47h2M33 48h1M42 48h1M60 48h1M33 49h1M41 49h1M32 50h1M34 50h1M40 50h2M54 50h1M32 51h2M40 51h1M31 52h4M40 52h1M31 53h4M31 54h3M42 54h1M31 55h2M41 55h1M43 55h1M45 55h2M49 55h1M51 55h1M31 56h1M34 56h1M39 56h1M42 56h1M52 56h1M60 56h1M33 57h2M45 57h1M48 57h1M58 57h2M33 58h2M53 58h6M33 59h2M36 59h3M45 59h1M53 59h6M33 60h1M35 60h6M52 60h6M38 61h4M52 61h6M37 62h1M40 62h2M49 62h1M51 62h6M60 62h1M36 63h1M41 63h1M47 63h2M51 63h5M60 63h1M35 64h1M41 64h1M43 64h6M60 64h1M42 65h6" />
<path stroke="#d1a5ad" d="M39 32h1M40 34h1M53 34h2M41 35h1M51 35h3M55 35h2M45 36h5M54 36h5M36 37h5M51 37h3M57 37h4M33 38h7M46 38h5M58 38h4M32 39h7M42 39h8M54 39h4M60 39h1M62 39h2M31 40h6M40 40h8M52 40h7M61 40h2M31 41h5M38 41h8M51 41h7M60 41h1M30 42h4M36 42h8M49 42h8M59 42h2M30 43h3M35 43h8M48 43h9M59 43h2M63 43h1M31 44h1M34 44h7M47 44h9M59 44h1M62 44h1M34 45h6M46 45h9M58 45h1M61 45h1M33 46h6M45 46h9M56 46h1M60 46h1M33 47h5M44 47h9M58 47h2M34 48h3M43 48h9M55 48h1M57 48h2M34 49h2M42 49h9M54 49h1M56 49h2M31 50h1M39 50h1M42 50h5M55 50h3M62 50h1M31 51h1M36 51h1M38 51h1M41 51h5M53 51h1M55 51h2M30 52h1M41 52h5M52 52h1M54 52h2M61 52h1M30 53h1M37 53h1M41 53h5M51 53h1M53 53h3M30 54h1M43 54h4M50 54h1M52 54h3M60 54h1M30 55h1M47 55h2M52 55h3M59 55h1M61 55h1M30 56h1M53 56h1M56 56h2M61 56h1M31 57h1M60 57h1M32 58h1M60 58h1M32 59h1M60 59h1M32 60h1M59 60h1M32 61h1M35 61h3M59 61h1M34 62h3M38 62h2M58 62h1M34 63h2M37 63h1M40 63h1M57 63h1M34 64h1M36 64h1M50 64h5M33 65h4M48 65h2M34 66h2M40 66h1M42 66h6M34 67h2M38 67h2" />
<path stroke="#ffedff" d="M40 33h1M52 33h2M41 34h1M52 34h1M42 35h1M42 36h2M50 36h1M42 37h4M40 38h1M51 38h3M39 39h1M50 39h2M37 40h1M48 40h3M46 41h3M58 41h1M44 42h4M57 42h1M62 42h1M43 43h3M57 43h1M41 44h4M56 44h2M40 45h4M55 45h2M39 46h4M54 46h2M61 46h1M38 47h4M53 47h3M60 47h1M62 47h1M37 48h4M52 48h3M59 48h1M61 48h2M36 49h4M51 49h3M60 49h3M35 50h4M47 50h7M58 50h4M37 51h1M46 51h7M57 51h5M46 52h6M56 52h5M38 53h1M46 53h5M56 53h5M36 54h4M47 54h3M55 54h5M36 55h2M39 55h1M42 55h1M55 55h4M37 56h2M54 56h2M46 57h2M45 58h2M48 58h1M59 58h1M46 59h2M59 59h1M58 60h1M34 61h1M58 61h1M33 62h1M57 62h1M33 63h1M38 63h2M56 63h1M33 64h1M37 64h4M55 64h1M37 65h4M33 66h1M36 66h4M36 67h2" />
</svg>