<svg xmlns="http://www.w3.org/2000/svg" viewBox="0 -0.5 32 32" shape-rendering="crispEdges">
<metadata>Made with Pixels to Svg https://codepen.io/shshaw/pen/XbxvNj</metadata>
<path stroke="#ffffff" d="M16 7h4M15 8h2M19 8h1M13 9h3M19 9h1M10 10h4M19 10h1M7 11h4M19 11h2M7 12h1M20 12h1M7 13h1M20 13h1M7 14h2M20 14h2M8 15h2M21 15h1M9 16h1M21 16h2M9 17h2M22 17h2M10 18h1M23 18h1M10 19h1M23 19h1M10 20h2M20 20h4M11 21h1M17 21h4M11 22h1M15 22h3M11 23h1M14 23h2M11 24h4" />
<path stroke="#202020" d="M17 8h2M16 9h1M18 9h1M14 10h2M18 10h1M11 11h3M18 11h1M8 12h3M19 12h1M8 13h1M19 13h1M9 14h1M19 14h1M10 15h1M20 15h1M10 16h1M20 16h1M11 17h1M21 17h1M11 18h1M22 18h1M11 19h1M20 19h3M12 20h1M17 20h3M12 21h1M15 21h2M12 22h1M14 22h1M12 23h2" />
<path stroke="#eefff6" d="M17 9h1M16 10h1M14 11h3M13 12h4M14 13h2M15 14h1" />
<path stroke="#83ace6" d="M17 10h1M17 11h1M11 12h1M16 13h1M12 14h1M18 15h2M15 16h1M17 16h3M13 17h2M20 17h1M12 18h3M12 19h2M13 20h1" />
<path stroke="#c5dee6" d="M12 12h1M10 13h4M13 14h2M15 15h1" />
<path stroke="#628bde" d="M17 12h2M9 13h1M17 13h2M10 14h2M16 14h3M11 15h4M16 15h2M11 16h4M16 16h1M12 17h1M15 17h1M19 17h1M14 19h1M13 21h1" />
<path stroke="#4a52b4" d="M16 17h1M18 17h1M15 18h1M21 18h1M15 19h2M14 20h3M14 21h1M13 22h1" />
<path stroke="#41397b" d="M17 17h1M16 18h5M17 19h3" />
</svg>