<svg xmlns="http://www.w3.org/2000/svg" viewBox="0 -0.5 32 32" shape-rendering="crispEdges">
<metadata>Made with Pixels to Svg https://codepen.io/shshaw/pen/XbxvNj</metadata>
<path stroke="#ffffff" d="M13 8h6M11 9h3M18 9h3M10 10h2M20 10h2M9 11h2M21 11h2M9 12h1M13 12h2M22 12h1M8 13h2M13 13h2M22 13h2M8 14h1M23 14h1M8 15h1M23 15h1M8 16h1M15 16h1M23 16h1M8 17h1M23 17h1M8 18h2M22 18h2M9 19h1M22 19h1M9 20h2M21 20h2M10 21h2M20 21h2M11 22h3M18 22h3M13 23h6" />
<path stroke="#202020" d="M14 9h4M12 10h2M18 10h2M11 11h1M20 11h1M10 12h1M21 12h1M10 13h1M21 13h1M9 14h1M22 14h1M9 15h1M22 15h1M9 16h1M22 16h1M9 17h1M22 17h1M10 18h1M21 18h1M10 19h1M21 19h1M11 20h1M20 20h1M12 21h2M18 21h2M14 22h4" />
<path stroke="#ffe662" d="M14 10h1M12 11h4M11 12h2M15 12h1M11 13h2M15 13h1M11 14h5M12 15h3" />
<path stroke="#ffcd4a" d="M15 10h1M17 10h1M16 11h1M19 11h1M16 12h2M16 13h2M10 14h1M16 14h2M10 15h2M15 15h3M11 16h4M16 16h1M12 17h4M11 19h1M20 19h1M12 20h1M19 20h1M14 21h4" />
<path stroke="#cdac4a" d="M16 10h1M17 11h2M19 12h2M18 13h1M18 14h1M21 14h1M18 15h1M10 16h1M17 16h2M10 17h2M16 17h3M21 17h1M12 18h6M20 18h1M14 19h1M16 19h1M19 19h1M13 20h1M18 20h1" />
<path stroke="#9c7310" d="M18 12h1M19 13h2M19 14h2M19 15h3M19 16h3M19 17h2M11 18h1M18 18h2M12 19h2M15 19h1M17 19h2M14 20h4" />
</svg>