<svg xmlns="http://www.w3.org/2000/svg" viewBox="0 -0.5 96 96" shape-rendering="crispEdges">
<metadata>Made with Pixels to Svg https://codepen.io/shshaw/pen/XbxvNj</metadata>
<path stroke="#627383" d="M71 11h3M71 12h1M74 12h1M79 12h1M27 13h2M71 13h1M74 13h1M78 13h1M80 13h1M25 14h2M28 14h1M70 14h1M74 14h1M77 14h1M81 14h1M21 15h2M25 15h1M28 15h1M30 15h3M70 15h1M74 15h1M76 15h1M81 15h1M20 16h1M22 16h1M25 16h1M28 16h2M32 16h1M49 16h2M68 16h3M75 16h1M80 16h1M19 17h1M23 17h1M25 17h1M29 17h1M32 17h1M48 17h1M51 17h2M67 17h1M70 17h1M75 17h1M79 17h1M19 18h1M23 18h3M29 18h1M32 18h1M48 18h1M67 18h1M69 18h1M74 18h1M79 18h1M85 18h2M20 19h1M26 19h1M32 19h1M41 19h3M47 19h1M67 19h1M73 19h1M79 19h1M83 19h2M86 19h1M20 20h1M26 20h1M33 20h1M40 20h1M43 20h1M46 20h1M57 20h1M67 20h2M78 20h1M81 20h2M87 20h1M21 21h1M27 21h1M33 21h1M40 21h1M43 21h1M46 21h1M50 21h2M56 21h1M58 21h1M67 21h1M79 21h2M87 21h1M17 22h2M21 22h1M27 22h1M33 22h1M40 22h1M42 22h4M50 22h1M52 22h2M55 22h1M66 22h1M77 22h2M85 22h2M16 23h1M19 23h4M33 23h1M35 23h2M39 23h2M42 23h1M45 23h1M49 23h1M53 23h2M84 23h2M15 24h1M20 24h1M22 24h1M33 24h2M36 24h1M42 24h1M45 24h1M49 24h1M53 24h1M58 24h2M83 24h1M85 24h1M15 25h1M33 25h1M37 25h1M42 25h1M45 25h1M48 25h1M52 25h1M57 25h1M60 25h1M83 25h1M85 25h1M16 26h1M32 26h2M37 26h1M41 26h1M45 26h3M52 26h1M56 26h1M61 26h1M82 26h7M14 27h5M34 27h1M38 27h1M41 27h1M47 27h1M51 27h1M55 27h1M61 27h1M80 27h2M88 27h1M14 28h1M18 28h2M34 28h1M38 28h1M41 28h1M51 28h2M54 28h1M60 28h1M88 28h1M14 29h1M34 29h1M39 29h2M42 29h2M53 29h1M59 29h1M85 29h3M15 30h2M35 30h2M40 30h1M42 30h1M44 30h2M53 30h1M58 30h1M64 30h2M82 30h3M17 31h3M33 31h2M36 31h1M42 31h1M45 31h1M57 31h1M62 31h2M65 31h1M84 31h1M18 32h1M31 32h1M33 32h1M37 32h1M42 32h1M45 32h1M58 32h1M60 32h2M66 32h1M84 32h1M19 33h1M33 33h1M37 33h1M41 33h1M45 33h1M58 33h2M66 33h1M79 33h5M28 34h1M34 34h1M38 34h1M41 34h1M46 34h1M49 34h2M64 34h2M28 35h1M34 35h1M39 35h1M41 35h1M46 35h1M48 35h1M50 35h1M54 35h2M63 35h1M26 36h3M35 36h1M39 36h1M45 36h1M48 36h1M52 36h2M62 36h4M28 37h1M45 37h1M47 37h1M51 37h1M65 37h7M29 38h1M31 38h1M45 38h3M50 38h1M27 39h1M29 39h1M33 39h2M43 39h2M49 39h1M35 40h1M42 40h1M53 40h4M68 40h1M26 41h2M36 41h1M41 41h1M52 41h1M65 41h1M28 42h1M36 42h1M41 42h1M66 42h2M37 43h1M52 43h1M37 44h1M40 44h1M26 45h2M29 45h1M38 45h1M40 45h1M51 45h1M61 45h1M24 46h2M38 46h1M62 46h1M23 47h1M29 47h1M38 47h1M50 47h1M63 47h1M65 47h1M23 48h2M30 48h1M64 48h1M68 48h4M22 49h1M30 49h1M65 49h1M72 49h1M22 50h1M48 50h1M59 50h1M63 50h1M65 50h1M72 50h1M29 51h1M55 51h2M60 51h3M64 51h1M67 51h1M28 52h1M54 52h1M57 52h1M60 52h1M65 52h1M24 53h1M27 53h1M55 53h1M58 53h1M61 53h1M65 53h1M24 54h1M26 54h1M30 54h1M39 54h1M52 54h1M55 54h1M59 54h3M66 54h1M72 54h2M23 55h1M26 55h1M28 55h2M38 55h1M40 55h1M48 55h1M53 55h2M57 55h1M67 55h1M70 55h2M22 56h1M27 56h1M29 56h1M32 56h2M48 56h2M53 56h1M67 56h1M22 57h1M29 57h1M31 57h1M33 57h1M38 57h1M48 57h1M50 57h1M52 57h1M68 57h1M75 57h1M20 58h2M30 58h1M33 58h1M42 58h1M47 58h2M51 58h1M55 58h1M69 58h2M74 58h1M18 59h2M34 59h1M38 59h1M41 59h1M47 59h1M56 59h1M71 59h3M15 60h3M31 60h1M34 60h1M39 60h3M44 60h1M47 60h1M74 60h1M14 61h1M31 61h1M34 61h1M36 61h1M39 61h1M42 61h1M44 61h1M47 61h1M57 61h1M59 61h1M75 61h1M13 62h1M28 62h1M30 62h1M35 62h1M45 62h3M53 62h1M58 62h1M73 62h1M76 62h1M11 63h2M29 63h1M33 63h1M38 63h1M54 63h1M73 63h1M77 63h2M11 64h1M14 64h1M17 64h1M33 64h1M37 64h2M43 64h1M48 64h1M54 64h1M67 64h1M70 64h1M74 64h1M11 65h3M16 65h1M33 65h1M37 65h2M43 65h1M48 65h1M55 65h1M67 65h1M70 65h1M74 65h1M12 66h1M16 66h1M32 66h1M36 66h1M38 66h1M43 66h2M49 66h1M62 66h1M67 66h1M71 66h1M11 67h1M15 67h1M20 67h1M25 67h1M36 67h1M38 67h1M43 67h2M49 67h3M62 67h1M67 67h1M71 67h1M11 68h1M14 68h1M19 68h1M25 68h1M39 68h2M43 68h2M49 68h1M52 68h1M62 68h1M68 68h1M12 69h1M15 69h1M25 69h1M36 69h1M40 69h1M43 69h1M45 69h1M49 69h1M62 69h1M66 69h1M36 70h1M40 70h1M43 70h1M45 70h1M61 70h1M18 71h1M22 71h1M26 71h1M37 71h1M63 71h1" />
<path stroke="#99cdff" d="M15 12h3M84 12h4M15 13h1M18 13h1M82 13h2M87 13h1M15 14h1M19 14h2M15 15h1M20 15h1M84 15h1M86 15h2M16 16h1M23 16h1M82 16h1M84 16h3M24 17h1M80 17h1M82 17h4M16 18h1M80 18h5M17 19h1M19 19h1M80 19h3M18 20h1M79 20h2M19 21h1M78 21h1M19 22h2M78 48h3M77 49h1M76 50h1M80 50h1M75 51h1M74 52h1M77 52h1M74 53h1" />
<path stroke="#6ba1ca" d="M18 12h1M88 12h1M19 13h2M88 13h1M21 14h2M86 14h3M23 15h1M85 15h1M88 15h1M15 16h1M24 16h1M83 16h1M87 16h2M15 17h2M81 17h1M86 17h2M15 18h1M17 18h1M16 19h1M18 19h1M17 20h1M19 20h1M18 21h1M20 21h1M81 48h1M76 49h1M81 49h1M75 50h1M81 50h1M79 51h3M78 52h3M77 53h3M78 54h1" />
<path stroke="#fefefe" d="M72 12h2M16 13h2M72 13h2M79 13h1M84 13h3M16 14h3M27 14h1M71 14h3M78 14h3M82 14h4M16 15h4M26 15h2M71 15h2M77 15h4M82 15h2M17 16h3M21 16h1M26 16h2M30 16h2M71 16h2M76 16h4M81 16h1M17 17h2M20 17h3M26 17h3M30 17h2M49 17h2M71 17h4M76 17h3M18 18h1M20 18h3M26 18h3M30 18h2M49 18h3M70 18h4M75 18h4M21 19h5M27 19h5M48 19h3M70 19h3M74 19h5M85 19h1M21 20h5M27 20h6M41 20h2M47 20h5M69 20h9M83 20h4M22 21h5M28 21h5M41 21h2M47 21h3M57 21h1M68 21h9M81 21h6M22 22h5M31 22h2M41 22h1M46 22h4M51 22h1M56 22h3M68 22h9M79 22h6M17 23h2M23 23h5M32 23h1M43 23h2M50 23h3M55 23h3M69 23h2M72 23h4M77 23h7M16 24h4M21 24h1M23 24h2M26 24h2M35 24h1M43 24h2M50 24h3M56 24h1M69 24h1M73 24h10M16 25h8M34 25h3M43 25h2M49 25h3M58 25h2M74 25h9M17 26h6M34 26h3M42 26h3M48 26h4M57 26h4M74 26h8M19 27h4M32 27h2M35 27h3M42 27h4M48 27h3M56 27h5M74 27h6M82 27h6M15 28h3M20 28h2M31 28h3M35 28h3M42 28h4M47 28h4M55 28h5M75 28h13M15 29h8M31 29h3M35 29h4M41 29h1M44 29h9M54 29h5M79 29h6M17 30h3M32 30h3M37 30h2M41 30h1M43 30h1M46 30h7M54 30h4M32 31h1M35 31h1M37 31h3M41 31h1M43 31h2M46 31h6M53 31h4M64 31h1M25 32h2M32 32h1M34 32h3M38 32h4M43 32h2M46 32h12M62 32h4M24 33h4M31 33h2M34 33h3M38 33h3M42 33h3M46 33h12M60 33h6M25 34h3M32 34h2M35 34h2M40 34h1M42 34h4M47 34h2M51 34h6M58 34h6M26 35h2M29 35h1M31 35h1M33 35h1M35 35h4M40 35h1M42 35h4M47 35h1M49 35h1M51 35h3M56 35h7M29 36h1M31 36h4M36 36h3M40 36h1M42 36h3M46 36h2M49 36h1M51 36h1M54 36h1M56 36h5M27 37h1M29 37h2M32 37h3M36 37h3M40 37h5M46 37h1M48 37h2M52 37h2M55 37h10M27 38h2M30 38h1M33 38h2M36 38h9M48 38h2M51 38h3M55 38h16M28 39h1M30 39h3M35 39h8M45 39h4M50 39h3M54 39h17M28 40h6M36 40h6M44 40h9M57 40h11M29 41h6M37 41h4M43 41h9M53 41h3M57 41h7M27 42h1M29 42h7M37 42h4M42 42h12M56 42h10M28 43h9M38 43h2M41 43h11M55 43h3M59 43h14M29 44h8M38 44h2M41 44h11M55 44h4M61 44h12M30 45h8M39 45h1M41 45h10M54 45h6M62 45h9M26 46h1M30 46h8M39 46h1M41 46h5M47 46h3M54 46h8M63 46h5M24 47h3M30 47h3M34 47h4M39 47h6M47 47h3M53 47h10M64 47h1M25 48h3M31 48h2M35 48h4M40 48h3M47 48h1M52 48h12M65 48h2M23 49h5M32 49h1M36 49h3M40 49h2M51 49h8M60 49h5M66 49h6M78 49h3M23 50h5M30 50h1M37 50h2M40 50h1M49 50h6M56 50h3M61 50h2M64 50h1M66 50h6M77 50h3M26 51h1M30 51h2M38 51h3M48 51h7M57 51h3M76 51h3M29 52h4M37 52h5M46 52h8M58 52h2M75 52h2M29 53h2M32 53h7M40 53h11M52 53h3M59 53h2M63 53h2M25 54h1M31 54h8M40 54h7M48 54h4M53 54h2M62 54h4M24 55h2M31 55h2M34 55h4M41 55h7M49 55h2M59 55h7M23 56h4M28 56h1M34 56h4M41 56h7M58 56h9M23 57h6M34 57h3M43 57h5M59 57h9M22 58h8M35 58h1M44 58h2M59 58h10M20 59h11M37 59h1M42 59h1M60 59h11M18 60h12M38 60h1M60 60h14M15 61h14M61 61h14M14 62h2M17 62h2M20 62h8M61 62h12M74 62h2M13 63h2M16 63h2M19 63h9M61 63h12M74 63h3M12 64h2M15 64h2M18 64h3M22 64h6M61 64h6M68 64h2M71 64h3M75 64h3M14 65h2M17 65h4M22 65h7M61 65h6M68 65h2M71 65h3M77 65h1M13 66h3M17 66h3M21 66h4M26 66h3M60 66h2M63 66h4M68 66h3M72 66h3M12 67h3M16 67h4M21 67h4M26 67h3M59 67h3M63 67h4M68 67h3M73 67h3M12 68h2M15 68h4M21 68h4M26 68h3M59 68h3M63 68h4M69 68h3M74 68h1M13 69h1M16 69h3M21 69h4M26 69h2M59 69h3M63 69h3M69 69h3M16 70h3M23 70h2M26 70h2M59 70h2M63 70h3M70 70h1M16 71h2M23 71h2M27 71h1M58 71h3M64 71h2M17 72h1M23 72h2M27 72h1M58 72h2M64 72h2M23 73h2M59 73h1" />
<path stroke="#c5d5de" d="M73 15h1M73 16h2M68 17h2M68 18h1M68 19h2M28 22h3M67 22h1M28 23h4M41 23h1M46 23h3M65 23h4M76 23h1M25 24h1M28 24h1M31 24h2M55 24h1M65 24h4M84 24h1M24 25h3M31 25h2M56 25h1M66 25h3M84 25h1M23 26h4M31 26h1M67 26h1M23 27h2M26 27h1M46 27h1M66 27h1M73 27h1M22 28h2M27 28h1M65 28h1M72 28h3M72 29h4M20 30h4M72 30h2M79 30h3M20 31h5M79 31h1M82 31h2M19 32h2M22 32h2M79 32h5M37 34h1M39 34h1M35 38h1M34 40h1M43 40h1M35 41h1M42 41h1M40 43h1M54 43h1M58 43h1M53 44h2M28 45h1M52 45h2M27 46h2M40 46h1M50 46h1M52 46h2M27 47h2M51 47h2M28 48h2M48 48h2M51 48h1M28 49h2M31 49h1M47 49h2M50 49h1M28 50h2M31 50h2M39 50h1M47 50h1M27 51h1M32 51h2M46 51h2M63 51h1M65 51h2M33 52h2M45 52h1M55 52h2M61 52h4M25 53h2M28 53h1M56 53h2M62 53h1M27 54h3M56 54h3M27 55h1M30 55h1M51 55h2M55 55h2M58 55h1M30 56h2M50 56h3M54 56h3M30 57h1M32 57h1M37 57h1M49 57h1M51 57h1M53 57h5M31 58h1M34 58h1M36 58h1M46 58h1M49 58h2M52 58h3M56 58h2M32 59h2M35 59h1M44 59h3M48 59h8M57 59h2M32 60h2M35 60h1M37 60h1M43 60h1M45 60h2M48 60h8M58 60h1M32 61h2M35 61h1M37 61h2M40 61h2M43 61h1M45 61h2M48 61h9M58 61h1M31 62h4M36 62h3M40 62h2M43 62h2M48 62h5M54 62h4M30 63h3M34 63h4M39 63h15M55 63h4M29 64h3M34 64h3M39 64h4M44 64h4M49 64h5M55 64h4M30 65h1M34 65h3M39 65h4M44 65h4M49 65h6M56 65h2M33 66h3M39 66h4M45 66h4M50 66h1M53 66h3M33 67h3M40 67h3M45 67h4M53 67h3M20 68h1M34 68h2M41 68h2M45 68h4M53 68h2M41 69h2M46 69h3M22 70h1M41 70h2M46 70h2" />
<path stroke="#202931" d="M52 18h1M51 19h1M44 20h2M52 20h1M52 21h1M59 22h1M38 23h1M58 23h1M38 24h1M57 24h1M38 25h1M38 26h1M31 27h1M30 28h1M30 29h1M31 30h1M25 31h2M31 31h1M24 32h1M27 32h1M30 32h1M23 33h1M28 33h1M30 33h1M24 34h1M29 34h1M31 34h1M25 35h1M30 35h1M30 36h1M50 36h1M55 36h1M23 37h2M26 37h1M31 37h1M50 37h1M54 37h1M22 38h1M25 38h2M32 38h1M54 38h1M71 38h1M22 39h1M53 39h1M71 39h1M22 40h2M27 40h1M69 40h2M24 41h2M28 41h1M56 41h1M66 41h2M26 42h1M54 42h2M68 42h5M24 43h4M53 43h1M73 43h1M21 44h4M28 44h1M52 44h1M73 44h1M21 45h1M71 45h3M21 46h1M29 46h1M51 46h1M68 46h4M22 47h1M66 47h2M71 47h1M50 48h1M49 49h1M73 49h2M20 50h2M35 50h1M43 50h1M74 50h1M20 51h1M22 51h4M68 51h5M74 51h1M20 52h1M25 52h3M73 52h1M20 53h3M73 53h1M75 53h2M22 54h1M74 54h1M77 54h1M78 55h1M38 56h1M40 56h1M57 56h1M77 56h1M41 57h2M58 57h1M76 57h1M32 58h1M37 58h1M43 58h1M58 58h1M75 58h4M31 59h1M36 59h1M43 59h1M59 59h1M78 59h1M30 60h1M36 60h1M59 60h1M78 60h1M29 61h1M60 61h1M76 61h2M60 62h1M28 63h1M59 63h2M28 64h1M32 64h1M59 64h2M78 64h1M29 65h1M31 65h1M58 65h1M60 65h1M75 65h2M78 65h1M29 66h2M56 66h2M59 66h1M75 66h1M77 66h2M29 67h1M31 67h2M56 67h1M58 67h1M72 67h1M76 67h1M29 68h2M33 68h1M36 68h1M55 68h1M58 68h1M67 68h1M72 68h2M75 68h2M14 69h1M19 69h2M28 69h2M34 69h2M53 69h2M58 69h1M68 69h1M72 69h1M74 69h1M12 70h2M15 70h1M19 70h1M21 70h1M25 70h1M28 70h1M48 70h2M58 70h1M62 70h1M66 70h1M69 70h1M71 70h1M75 70h1M15 71h1M25 71h1M28 71h1M41 71h3M46 71h2M57 71h1M61 71h1M66 71h1M69 71h2M75 71h1M15 72h2M18 72h1M22 72h1M25 72h2M28 72h1M57 72h1M60 72h1M63 72h1M66 72h1M76 72h1M17 73h2M22 73h1M25 73h1M27 73h2M41 73h2M46 73h8M58 73h1M60 73h1M63 73h3M76 73h1M22 74h3M26 74h1M29 74h1M43 74h3M54 74h3M59 74h1M76 74h1M26 75h1M30 75h2M42 75h1M57 75h1M76 75h1M32 76h2M40 76h2M58 76h2M76 76h1M25 77h1M31 77h1M34 77h1M38 77h1M41 77h1M60 77h1M77 77h1M25 78h1M30 78h1M33 78h2M38 78h1M42 78h1M77 78h1M30 79h4M37 79h6M78 79h1M10 80h2M26 80h1M33 80h4M73 80h2M79 80h1M7 81h3M17 81h6M27 81h1M65 81h3M73 81h1M76 81h2M80 81h1M14 82h2M24 82h4M63 82h2M68 82h2M73 82h1M78 82h3M12 83h2M61 83h2M70 83h2M74 83h1M58 84h3M72 84h3" />
<path stroke="#acbdcd" d="M44 21h2M77 21h1M39 24h3M46 24h3M54 24h1M39 25h3M46 25h2M53 25h3M39 26h2M53 26h3M39 27h2M52 27h3M39 28h2M46 28h1M53 28h1M39 30h1M40 31h1M52 31h1M80 31h2M57 34h1M32 35h1M41 36h1M61 36h1M35 37h1M39 37h1M23 38h2M23 39h4M24 40h3M64 41h1M25 44h3M59 44h2M22 45h4M60 45h1M22 46h2M46 47h1M68 47h3M33 48h1M39 48h1M67 48h1M39 49h1M59 49h1M55 50h1M60 50h1M73 50h1M21 51h1M28 51h1M41 51h1M73 51h1M21 52h4M42 52h1M66 52h7M23 53h1M31 53h1M39 53h1M51 53h1M66 53h7M23 54h1M47 54h1M67 54h5M75 54h2M33 55h1M66 55h1M68 55h2M72 55h6M68 56h9M69 57h6M71 58h3M74 59h4M42 60h1M56 60h2M75 60h3M16 62h1M19 62h1M39 62h1M42 62h1M59 62h1M15 63h1M18 63h1M21 64h1M21 65h1M59 65h1M20 66h1M25 66h1M37 66h1M51 66h2M58 66h1M37 67h1M39 67h1M52 67h1M57 67h1M31 68h2M37 68h2M50 68h2M56 68h2M30 69h4M37 69h3M44 69h1M50 69h3M55 69h3M29 70h4M34 70h2M37 70h3M44 70h1M50 70h8M29 71h3M35 71h2M38 71h3M44 71h2M48 71h9M29 72h3M36 72h21M29 73h2M37 73h4M43 73h3M54 73h4M30 74h1M38 74h5M57 74h2M60 74h1M40 75h2M58 75h3M60 76h1" />
<path stroke="#29398b" d="M63 21h3M62 22h1M65 22h1M61 23h1M64 23h1M71 23h1M29 24h2M60 24h1M63 24h2M70 24h1M72 24h1M27 25h2M30 25h1M65 25h1M69 25h1M73 25h1M27 26h1M30 26h1M66 26h1M68 26h1M73 26h1M25 27h1M27 27h1M65 27h1M67 27h1M72 27h1M24 28h1M26 28h1M28 28h1M64 28h1M66 28h1M71 28h1M23 29h1M27 29h2M64 29h2M70 29h2M76 29h3M24 30h1M28 30h1M63 30h1M71 30h1M74 30h2M78 30h1M71 31h3M78 31h1M21 32h1M70 32h2M78 32h1M20 33h1M22 33h1M69 33h1M78 33h1M20 34h1M76 34h2M20 35h2M74 35h2M22 36h1M72 36h5M76 37h4M79 38h1M79 39h1M78 40h1M72 41h7M12 71h1M11 72h1M61 72h1M11 73h1M61 73h1M10 74h1M61 74h1M10 75h1M32 75h1M37 75h3M61 75h1M10 76h1M15 76h1M25 76h1M34 76h6M61 76h1M70 76h1M75 76h1M9 77h1M14 77h1M33 77h1M37 77h1M39 77h2M61 77h2M71 77h1M75 77h1M8 78h1M11 78h1M14 78h1M22 78h1M32 78h1M37 78h1M39 78h3M61 78h1M71 78h1M8 79h1M11 79h1M13 79h1M25 79h1M35 79h2M60 79h1M72 79h1M74 79h1M7 80h1M12 80h2M60 80h1M67 80h1M72 80h1M75 80h1M12 81h1M16 81h1M23 81h1M59 81h1M12 82h1M59 82h1M58 83h1" />
<path stroke="#3983b4" d="M63 22h2M62 23h2M61 24h2M71 24h1M61 25h4M70 25h3M62 26h4M69 26h4M62 27h3M68 27h4M61 28h3M67 28h4M60 29h4M66 29h4M59 30h4M66 30h5M76 30h2M58 31h4M66 31h5M74 31h4M59 32h1M67 32h3M72 32h6M67 33h2M70 33h8M66 34h10M64 35h10M66 36h6M34 71h1M73 71h2M12 72h2M35 72h1M70 72h6M12 73h4M36 73h1M66 73h10M11 74h8M62 74h14M11 75h11M62 75h13M12 76h3M16 76h1M18 76h7M62 76h8M71 76h4M12 77h2M15 77h2M18 77h7M63 77h8M72 77h2M13 78h1M15 78h3M19 78h3M23 78h1M62 78h1M64 78h4M69 78h2M72 78h1M14 79h4M19 79h2M22 79h3M61 79h7M69 79h3M14 80h12M61 80h4M66 80h1M68 80h4M13 81h3M25 81h2M60 81h5M69 81h4M13 82h1M60 82h3M71 82h2M59 83h2M72 83h2" />
<path stroke="#315a9c" d="M29 25h1M28 26h2M28 27h3M25 28h1M29 28h1M24 29h3M29 29h1M25 30h3M29 30h2M27 31h4M28 32h2M21 33h1M29 33h1M21 34h3M30 34h1M22 35h3M23 36h3M25 37h1M72 37h4M72 38h7M72 39h7M71 40h7M68 41h4M67 69h1M73 69h1M14 70h1M20 70h1M33 70h1M67 70h2M72 70h3M13 71h2M19 71h3M32 71h2M62 71h1M67 71h2M71 71h2M14 72h1M19 72h3M32 72h3M62 72h1M67 72h3M16 73h1M19 73h3M26 73h1M31 73h5M62 73h1M19 74h3M25 74h1M31 74h7M22 75h4M33 75h4M75 75h1M11 76h1M17 76h1M10 77h2M17 77h1M32 77h1M35 77h2M74 77h1M76 77h1M9 78h2M12 78h1M18 78h1M24 78h1M31 78h1M35 78h2M63 78h1M68 78h1M73 78h4M9 79h2M12 79h1M18 79h1M21 79h1M34 79h1M68 79h1M73 79h1M75 79h3M8 80h2M65 80h1M76 80h3M24 81h1M68 81h1M78 81h2M70 82h1" />
<path stroke="#9c73e6" d="M46 46h1M33 47h1M45 47h1M33 49h1M33 50h1M41 50h1M46 50h1M34 51h1M42 51h1M45 51h1M35 52h2M43 52h2" />
<path stroke="#6241bd" d="M34 48h1M43 48h2M46 48h1M35 49h1M42 49h2M46 49h1M36 50h1M37 51h1" />
<path stroke="#dea4f6" d="M45 48h1M34 49h1M44 49h2M34 50h1M42 50h1M44 50h2M35 51h2M43 51h2M40 57h1M39 58h3M39 59h2" />
<path stroke="#b05852" d="M39 55h1M39 56h1M39 57h1M38 58h1" />
</svg>