<svg xmlns="http://www.w3.org/2000/svg" viewBox="0 -0.5 96 96" shape-rendering="crispEdges">
<metadata>Made with Pixels to Svg https://codepen.io/shshaw/pen/XbxvNj</metadata>
<path stroke="#395a5a" d="M56 9h2M55 10h1M57 10h1M54 11h1M57 11h1M62 11h3M53 12h1M57 12h1M61 12h1M52 13h1M57 13h1M53 14h1M57 14h1M51 15h1M54 15h1M57 15h1M50 16h1M54 16h1M57 16h1M49 17h1M58 17h1M48 18h1M48 19h1M47 20h1M47 21h1M47 22h1M58 22h1M46 23h1M57 23h1M46 24h1M56 24h1M46 25h1M53 25h3M46 26h1M46 27h1M86 27h2M47 28h1M58 28h1M84 28h2M59 29h1M83 29h1M44 30h2M60 30h1M69 30h3M81 30h2M46 31h3M60 31h1M68 31h1M72 31h1M77 31h2M80 31h1M84 31h1M49 32h2M60 32h4M67 32h1M76 32h1M78 32h2M83 32h1M51 33h2M55 33h2M60 33h1M64 33h1M75 33h1M78 33h1M82 33h1M53 34h3M57 34h2M65 34h1M74 34h1M77 34h1M80 34h1M55 35h1M65 35h1M68 35h1M76 35h1M79 35h1M56 36h1M65 36h1M78 36h1M53 37h1M64 37h1M71 37h1M77 37h1M87 37h1M55 38h1M62 38h2M71 38h1M76 38h1M88 38h1M57 39h1M71 39h3M75 39h1M85 39h1M88 39h1M55 40h1M59 40h1M63 40h3M70 40h1M74 40h1M77 40h1M84 40h1M86 40h2M61 41h2M66 41h1M69 41h1M76 41h1M84 41h1M67 42h1M59 43h1M67 43h1M48 44h1M57 44h1M60 44h1M67 44h1M70 44h1M85 44h1M48 45h1M53 45h1M56 45h1M60 45h2M66 45h1M74 45h2M84 45h1M86 45h1M48 46h1M52 46h2M55 46h1M59 46h1M63 46h3M76 46h3M84 46h1M87 46h2M35 47h4M49 47h1M54 47h1M58 47h2M73 47h3M81 47h1M89 47h2M39 48h3M49 48h1M53 48h1M57 48h2M64 48h3M72 48h1M91 48h1M42 49h3M49 49h1M51 49h1M62 49h2M67 49h1M71 49h1M92 49h1M45 50h2M49 50h2M56 50h1M62 50h1M68 50h1M93 50h1M47 51h3M62 51h1M68 51h1M47 52h1M61 52h2M68 52h1M46 53h1M63 53h1M67 53h1M46 54h1M64 54h3M76 54h1M77 55h3M37 56h2M50 56h2M77 56h1M80 56h1M36 57h3M50 57h1M81 57h1M32 58h2M36 58h4M45 58h1M49 58h1M82 58h1M32 59h2M35 59h1M38 59h1M41 59h1M45 59h1M49 59h1M82 59h1M28 60h2M31 60h1M34 60h1M41 60h1M45 60h1M83 60h1M27 61h1M30 61h1M38 61h1M41 61h1M44 61h1M60 61h1M83 61h1M23 62h2M26 62h1M31 62h1M34 62h1M38 62h1M40 62h1M44 62h1M59 62h1M84 62h1M22 63h1M25 63h2M30 63h1M34 63h1M37 63h1M40 63h1M59 63h1M84 63h1M21 64h1M26 64h1M29 64h1M33 64h1M37 64h1M58 64h1M85 64h1M20 65h2M24 65h1M29 65h1M33 65h1M37 65h1M57 65h1M73 65h1M85 65h1M24 66h1M55 66h2M86 66h1M23 67h1M54 67h1M86 67h1M23 68h1M52 68h2M50 69h2M48 70h1M48 71h1M48 72h1M49 73h1M49 74h1M49 75h1M17 76h1M50 76h1M83 76h1M13 77h2M51 77h1M83 77h1M14 78h4M21 78h1M24 78h1M42 78h1M52 78h1M84 78h1M87 78h2M15 79h2M18 79h1M25 79h1M32 79h1M44 79h1M84 79h3M16 80h2M19 80h1M22 80h1M30 80h1M33 80h1M36 80h1M40 80h1M45 80h2M50 80h2M87 80h1M90 80h1M20 81h6M35 81h2M42 81h1M22 82h2M25 82h4M31 82h1M34 82h4M43 82h1M46 82h2M86 82h1M25 83h2M28 83h2M32 83h4M37 83h1M39 83h1M42 83h1M44 83h4M34 84h3M40 84h2M46 84h2M35 85h2" />
<path stroke="#bdf6ff" d="M56 10h1M55 11h1M54 12h1M53 13h1M50 17h1M49 18h1M49 19h1M48 20h3M48 21h1M50 21h1M50 22h1M66 46h1M66 47h2M67 48h1M56 56h2M55 57h2M54 58h3" />
<path stroke="#a4deee" d="M56 11h1M55 12h2M54 13h3M54 14h3M55 15h2M55 16h2M51 17h1M54 17h4M50 18h4M56 18h2M50 19h3M56 19h3M51 20h1M56 20h4M55 21h5M48 22h1M55 22h3M59 22h2M47 23h3M54 23h3M59 23h2M47 24h3M52 24h4M59 24h3M47 25h6M59 25h3M47 26h4M59 26h3M47 27h1M49 27h1M59 27h3M48 28h2M60 28h3M60 29h3M61 30h2M61 31h3M68 36h1M68 37h3M64 38h1M69 38h2M63 39h3M69 39h2M69 40h1M70 45h1M56 46h2M71 46h3M55 47h3M63 47h3M71 47h2M36 48h3M54 48h3M63 48h1M71 48h1M39 49h3M53 49h3M42 50h3M51 50h4M50 51h3M48 52h4M47 53h4M61 53h2M68 53h1M72 53h1M47 54h2M61 54h3M67 54h2M72 54h4M47 55h1M58 55h1M60 55h7M73 55h4M55 56h1M58 56h4M74 56h3M57 57h4M75 57h2M57 58h3M76 58h1M54 59h6M53 60h6M53 61h1M57 61h1M52 62h1M60 62h2M65 62h3M60 63h10M61 64h1M65 64h5M66 65h3M67 66h1M54 68h3M52 69h6M52 70h5" />
<path stroke="#101010" d="M60 12h1M64 12h1M59 13h1M63 13h1M58 14h1M63 14h1M59 15h1M62 15h1M59 16h1M62 16h1M62 17h1M62 18h1M62 19h1M62 20h1M53 21h1M63 21h1M53 22h1M63 22h1M63 23h1M64 24h1M64 25h1M51 26h2M65 26h1M50 27h1M65 27h1M50 28h1M56 28h2M66 28h1M87 28h1M48 29h2M51 29h5M66 29h1M87 29h1M67 30h1M86 30h1M44 31h1M85 31h1M45 32h1M73 32h1M85 32h1M46 33h1M73 33h1M84 33h1M92 33h2M47 34h1M59 34h1M73 34h1M83 34h1M90 34h2M93 34h1M48 35h2M59 35h1M72 35h1M82 35h1M89 35h1M93 35h1M50 36h1M59 36h1M69 36h3M81 36h1M88 36h1M92 36h1M51 37h1M60 37h1M80 37h1M92 37h1M50 38h1M52 38h1M61 38h1M79 38h1M91 38h1M49 39h1M51 39h1M53 39h1M62 39h1M78 39h1M90 39h1M49 40h1M51 40h1M54 40h1M62 40h1M79 40h1M90 40h1M49 41h1M52 41h1M56 41h1M75 41h1M80 41h1M89 41h1M48 42h1M52 42h1M57 42h1M61 42h1M75 42h2M80 42h1M83 42h1M88 42h1M48 43h1M51 43h2M58 43h1M61 43h1M75 43h1M77 43h2M81 43h1M83 43h1M87 43h1M51 44h1M61 44h1M74 44h1M79 44h2M82 44h2M86 44h1M51 45h1M62 45h1M71 45h3M83 45h1M62 46h1M74 46h1M53 47h1M62 47h1M77 47h1M79 47h2M84 47h2M35 48h1M61 48h2M76 48h1M78 48h1M82 48h2M86 48h1M36 49h2M56 49h1M60 49h1M77 49h2M87 49h2M38 50h2M55 50h1M58 50h2M61 50h1M77 50h1M79 50h1M89 50h2M40 51h2M54 51h1M56 51h2M61 51h1M77 51h1M79 51h1M91 51h3M42 52h2M53 52h1M72 52h1M76 52h1M78 52h2M44 53h2M53 53h3M60 53h1M73 53h4M49 54h1M52 54h1M55 54h1M60 54h1M77 54h1M37 55h2M46 55h1M48 55h1M50 55h2M55 55h1M59 55h1M36 56h1M39 56h1M43 56h2M47 56h1M54 56h1M32 57h2M35 57h1M39 57h1M42 57h1M45 57h1M47 57h1M54 57h1M31 58h1M34 58h2M40 58h2M46 58h1M53 58h1M28 59h2M31 59h1M34 59h1M36 59h2M39 59h1M53 59h1M66 59h1M76 59h1M27 60h1M30 60h1M32 60h2M35 60h1M38 60h1M52 60h1M60 60h1M66 60h1M76 60h1M23 61h4M28 61h2M31 61h1M34 61h1M52 61h1M61 61h1M65 61h1M76 61h1M22 62h1M25 62h1M27 62h1M30 62h1M51 62h1M62 62h3M75 62h1M1 63h1M21 63h1M23 63h2M27 63h1M51 63h1M58 63h1M72 63h3M2 64h1M20 64h1M22 64h1M25 64h1M50 64h1M3 65h1M19 65h1M50 65h1M52 65h1M3 66h2M18 66h1M50 66h1M53 66h1M66 66h1M72 66h1M4 67h2M17 67h1M49 67h1M66 67h1M70 67h3M4 68h1M6 68h1M16 68h1M49 68h1M60 68h1M66 68h1M68 68h2M73 68h3M86 68h1M5 69h1M7 69h1M15 69h1M49 69h1M61 69h1M65 69h3M76 69h2M86 69h1M6 70h1M8 70h1M14 70h1M62 70h4M78 70h2M85 70h1M6 71h1M9 71h1M14 71h1M60 71h3M79 71h1M85 71h1M7 72h1M10 72h1M15 72h1M56 72h4M79 72h1M84 72h1M8 73h1M11 73h1M15 73h1M50 73h6M78 73h1M83 73h1M8 74h1M12 74h1M16 74h1M53 74h1M77 74h1M82 74h1M9 75h1M13 75h1M16 75h1M54 75h1M77 75h1M82 75h1M9 76h1M13 76h2M16 76h1M54 76h1M78 76h1M10 77h1M12 77h1M15 77h3M53 77h1M78 77h1M10 78h1M12 78h2M18 78h1M53 78h1M79 78h1M86 78h1M11 79h1M14 79h1M17 79h1M19 79h1M22 79h1M54 79h2M79 79h1M88 79h2M15 80h1M18 80h1M20 80h2M23 80h4M35 80h1M56 80h1M80 80h1M16 81h2M19 81h1M26 81h3M31 81h1M34 81h1M37 81h1M43 81h1M46 81h2M52 81h2M56 81h1M80 81h1M90 81h1M20 82h2M24 82h1M29 82h2M32 82h2M38 82h2M42 82h1M44 82h2M48 82h2M52 82h1M54 82h2M80 82h2M87 82h4M22 83h3M27 83h1M30 83h2M36 83h1M38 83h1M40 83h2M43 83h1M48 83h1M50 83h2M82 83h5M25 84h2M28 84h2M32 84h2M37 84h1M39 84h1M42 84h1M44 84h2M48 84h1M34 85h1M37 85h1M40 85h2M46 85h2M35 86h2" />
<path stroke="#62b49c" d="M62 12h2M60 13h3M59 14h4M60 15h2M60 16h2M61 17h1M54 18h1M59 18h3M60 19h2M60 20h2M49 21h1M60 21h3M49 22h1M61 22h2M50 23h1M61 23h2M50 24h1M62 24h2M62 25h2M63 26h2M58 27h1M64 27h1M59 28h1M65 28h1M66 30h1M67 31h1M88 37h2M89 38h2M89 39h1M85 40h1M88 40h2M85 41h4M84 42h4M76 43h1M84 43h3M49 44h2M58 44h2M75 44h4M84 44h1M49 45h2M57 45h3M76 45h6M49 46h3M58 46h1M79 46h4M50 47h3M82 47h2M50 48h2M38 49h1M50 49h1M40 50h2M42 51h5M53 51h1M44 52h3M52 52h1M51 53h2M50 54h2M67 55h1M72 55h1M65 56h1M78 56h2M77 57h4M77 58h5M77 59h5M59 60h1M77 60h6M58 61h1M77 61h6M76 62h8M76 63h8M51 64h1M70 64h1M75 64h10M69 65h1M74 65h11M68 66h1M73 66h13M67 67h1M74 67h12M77 68h9M80 69h5M57 70h2M82 70h3M53 71h2" />
<path stroke="#5a948b" d="M51 16h1M52 17h2M59 17h2M58 18h1M53 19h1M59 19h1M52 20h1M51 21h1M51 22h1M48 27h1M63 27h1M64 28h1M86 28h1M65 29h1M84 29h2M65 30h1M83 30h2M45 31h1M66 31h1M81 31h3M46 32h3M66 32h1M77 32h1M80 32h3M48 33h3M67 33h1M76 33h2M79 33h3M50 34h3M56 34h1M67 34h1M75 34h2M78 34h2M51 35h4M56 35h3M67 35h1M73 35h3M77 35h2M52 36h4M57 36h2M67 36h1M72 36h6M54 37h6M67 37h1M72 37h5M56 38h5M68 38h1M72 38h4M58 39h4M68 39h1M74 39h1M60 40h2M68 40h1M78 40h1M68 41h1M77 41h3M69 42h1M77 42h3M69 43h1M79 43h2M69 44h1M81 44h1M69 45h1M82 45h1M85 45h1M70 46h1M83 46h1M85 46h2M70 47h1M86 47h3M52 48h1M70 48h1M87 48h4M52 49h1M70 49h1M89 49h3M71 50h1M91 50h2M71 51h1M71 52h1M71 53h1M53 54h2M58 54h2M69 54h1M71 54h1M49 55h1M52 55h1M56 55h2M68 55h1M71 55h1M48 56h1M66 56h1M73 56h1M43 57h2M42 58h1M40 59h1M36 60h2M39 60h1M32 61h2M35 61h1M59 61h1M28 62h2M32 62h1M58 62h1M28 63h1M75 63h1M23 64h2M59 64h2M74 64h1M22 65h1M51 65h1M70 65h2M51 66h2M69 66h3M50 67h4M68 67h2M73 67h1M50 68h2M67 68h1M76 68h1M78 69h2M85 69h1M15 70h3M47 70h1M51 70h1M80 70h2M17 71h6M43 71h5M55 71h4M80 71h5M16 72h2M21 72h27M53 72h3M80 72h4M16 73h6M25 73h24M79 73h4M17 74h9M30 74h12M48 74h1M50 74h3M78 74h4M17 75h14M40 75h9M50 75h4M78 75h4M18 76h4M23 76h27M51 76h3M79 76h4M18 77h2M21 77h2M24 77h6M31 77h10M42 77h9M52 77h1M79 77h4M19 78h2M22 78h2M25 78h6M32 78h10M44 78h8M80 78h4M20 79h2M23 79h2M26 79h3M30 79h2M33 79h6M40 79h3M45 79h3M50 79h4M80 79h4M87 79h1M27 80h3M31 80h2M34 80h1M37 80h3M42 80h3M47 80h3M52 80h4M81 80h6M88 80h2M29 81h2M32 81h2M38 81h3M44 81h2M48 81h4M54 81h2M81 81h9M40 82h2M50 82h2M82 82h4" />
<path stroke="#ffbf5a" d="M55 18h1M55 19h1M55 20h1M54 21h1M54 22h1M52 23h2M51 24h1M64 29h1M64 30h1M65 31h1M65 32h1M65 33h2M66 34h1M66 35h1M66 36h1M66 37h1M66 38h2M67 39h1M67 40h1M67 41h1M68 42h1M68 43h1M68 44h1M68 45h1M68 46h2M69 47h1M69 48h1M69 49h1M69 50h2M70 51h1M70 52h1M70 53h1M70 54h1M69 55h2M67 56h6M66 57h6M67 58h4M67 59h3M67 60h3M68 61h2M70 62h1M58 65h3M57 66h3M57 67h3M58 68h2M59 69h1M49 70h2M49 71h3" />
<path stroke="#c88640" d="M54 19h1M54 20h1M51 23h1M58 23h1M57 24h2M56 25h3M53 26h6M62 26h1M51 27h7M62 27h1M51 28h5M63 28h1M63 29h1M63 30h1M64 31h1M64 32h1M92 34h1M90 35h3M89 36h3M65 37h1M90 37h2M65 38h1M50 39h1M66 39h1M50 40h1M66 40h1M50 41h2M49 42h3M49 43h2M67 45h1M67 46h1M68 47h1M68 48h1M68 49h1M69 51h1M69 52h1M69 53h1M66 61h2M68 62h2M70 63h2M71 64h3M72 65h1M55 67h2M57 68h1M58 69h1M60 69h1M59 70h3M52 71h1M59 71h1M49 72h4" />
<path stroke="#f36144" d="M53 20h1M52 21h1M52 22h1" />
<path stroke="#376a63" d="M86 29h1M85 30h1M84 32h1M47 33h1M83 33h1M48 34h2M81 34h2M50 35h1M80 35h2M51 36h1M79 36h2M52 37h1M78 37h2M53 38h2M77 38h2M54 39h3M76 39h2M56 40h3M75 40h2M57 41h4M58 42h3M60 43h1M60 46h2M75 46h1M60 47h2M76 47h1M59 48h2M77 48h1M57 49h3M57 50h1M78 50h1M78 51h1M53 55h2M49 56h1M52 56h2M48 57h2M51 57h3M43 58h2M47 58h2M50 58h3M42 59h3M46 59h3M50 59h3M40 60h1M42 60h3M46 60h6M36 61h2M39 61h2M42 61h2M45 61h7M33 62h1M35 62h3M39 62h1M41 62h3M45 62h6M29 63h1M31 63h3M35 63h2M38 63h2M41 63h10M27 64h2M30 64h3M34 64h3M38 64h12M23 65h1M25 65h4M30 65h3M34 65h3M38 65h12M19 66h5M25 66h25M18 67h5M24 67h25M17 68h6M24 68h25M16 69h33M18 70h29M15 71h2M23 71h20M18 72h3M22 73h3M26 74h4M42 74h6M31 75h9M22 76h1M20 77h1M23 77h1M30 77h1M41 77h1M31 78h1M43 78h1M29 79h1M39 79h1M43 79h1M48 79h2M41 80h1M41 81h1" />
<path stroke="#ffbd52" d="M69 31h3M68 32h4M61 33h3M68 33h4M60 34h5M68 34h3M60 35h5M61 36h3M71 40h3M63 41h3M70 41h4M62 42h5M70 42h3M62 43h5M70 43h2M63 44h2M73 48h2M64 49h3M72 49h2M63 50h4M63 51h4M63 52h3" />
<path stroke="#c58339" d="M72 32h1M72 33h1M71 34h2M69 35h3M60 36h1M64 36h1M61 37h3M74 41h1M73 42h2M72 43h3M62 44h1M65 44h2M71 44h3M63 45h3M75 48h1M74 49h3M67 50h1M72 50h5M67 51h1M72 51h5M66 52h2M73 52h3M64 53h3" />
<path stroke="#8b2929" d="M62 56h3M61 57h1M65 57h1M72 57h3M60 58h1M66 58h1M71 58h1M75 58h1M60 59h1M70 59h1M70 60h1M54 61h3M70 61h1M1 62h3M19 62h3M53 62h1M57 62h1M71 62h1M3 63h5M15 63h4M52 63h1M57 63h1M4 64h2M8 64h7M52 64h1M57 64h1M62 64h3M5 65h2M55 65h2M61 65h1M65 65h1M7 66h2M54 66h1M60 66h1M65 66h1M9 67h2M60 67h1M64 67h2M5 68h1M11 68h2M61 68h5M6 69h1M13 69h2M62 69h3M7 70h1M7 71h2M8 72h2M9 73h2M9 74h3M10 75h3M10 76h3M11 77h1M11 78h1" />
<path stroke="#ff9230" d="M62 57h3M61 58h4M72 58h2M61 59h4M71 59h3M62 60h2M71 60h2" />
<path stroke="#d54a31" d="M65 58h1M74 58h1M65 59h1M74 59h2M61 60h1M64 60h2M73 60h3M62 61h3M71 61h5M54 62h3M72 62h3M2 63h1M19 63h2M53 63h4M3 64h1M6 64h2M15 64h5M53 64h4M4 65h1M7 65h12M53 65h2M62 65h3M5 66h2M9 66h9M61 66h4M6 67h3M11 67h6M61 67h3M7 68h4M13 68h3M8 69h5M9 70h5M10 71h4M11 72h4M12 73h3M13 74h3M14 75h2M15 76h1" />
</svg>