<svg xmlns="http://www.w3.org/2000/svg" viewBox="0 -0.5 96 96" shape-rendering="crispEdges">
<metadata>Made with Pixels to Svg https://codepen.io/shshaw/pen/XbxvNj</metadata>
<path stroke="#31403c" d="M23 11h1M27 11h1M20 12h1M22 12h1M26 12h1M31 12h1M19 13h1M22 13h1M26 13h1M30 13h1M18 14h1M21 14h1M25 14h1M30 14h1M17 15h1M20 15h1M24 15h1M29 15h1M16 16h1M19 16h1M28 16h1M15 17h1M18 17h1M14 18h1M17 18h1M13 19h1M15 19h2M14 20h1M38 20h1M13 21h1M16 21h2M34 21h2M38 21h1M13 22h1M15 22h1M19 22h2M28 22h1M34 22h2M38 22h1M13 23h1M15 23h1M18 23h1M27 23h1M36 23h1M38 23h1M13 24h1M15 24h1M18 24h1M25 24h1M32 24h1M36 24h3M45 24h1M12 25h1M15 25h1M17 25h1M23 25h1M29 25h1M35 25h1M37 25h1M45 25h1M48 25h1M12 26h1M14 26h1M17 26h1M22 26h1M28 26h1M31 26h1M42 26h1M45 26h1M12 27h1M14 27h1M17 27h1M21 27h1M30 27h1M42 27h1M45 27h1M52 27h1M11 28h1M14 28h1M16 28h1M20 28h1M27 28h1M42 28h1M45 28h1M49 28h1M52 28h1M11 29h1M13 29h1M16 29h1M19 29h1M26 29h1M45 29h1M51 29h2M54 29h1M11 30h1M13 30h1M15 30h1M20 30h1M25 30h1M30 30h1M56 30h1M11 31h1M13 31h1M15 31h1M21 31h1M23 31h1M31 31h1M48 31h3M57 31h1M72 31h1M10 32h1M27 32h1M32 32h3M51 32h3M57 32h1M73 32h1M81 32h1M10 33h1M28 33h1M33 33h2M58 33h1M73 33h2M81 33h1M73 34h2M81 34h2M15 35h1M29 35h1M59 35h1M67 35h1M74 35h2M81 35h2M16 36h1M60 36h2M68 36h2M74 36h2M81 36h2M88 36h1M16 37h2M60 37h3M69 37h1M74 37h2M81 37h3M88 37h1M17 38h3M33 38h1M61 38h2M69 38h2M74 38h3M80 38h4M88 38h1M18 39h4M61 39h3M70 39h1M74 39h3M80 39h4M87 39h3M18 40h4M50 40h1M61 40h3M70 40h2M74 40h3M80 40h4M87 40h3M19 41h3M50 41h1M61 41h3M70 41h2M74 41h3M79 41h4M87 41h3M19 42h3M32 42h1M50 42h2M60 42h4M70 42h2M74 42h3M79 42h4M86 42h4M20 43h2M50 43h2M56 43h1M60 43h4M65 43h1M70 43h2M74 43h3M79 43h4M86 43h3M20 44h1M51 44h2M55 44h1M61 44h2M64 44h2M69 44h2M73 44h3M78 44h5M85 44h4M51 45h3M62 45h1M68 45h3M72 45h4M77 45h5M84 45h5M52 46h2M68 46h2M71 46h4M83 46h5M22 47h7M75 47h1M84 47h4M20 48h3M52 48h2M83 48h1M85 48h3M19 49h2M51 49h3M56 49h3M82 49h2M85 49h2M48 50h1M52 50h1M55 50h5M66 50h1M82 50h2M86 50h1M55 51h5M64 51h3M81 51h3M55 52h5M65 52h3M81 52h2M52 53h1M56 53h4M61 53h1M65 53h3M45 54h1M51 54h3M55 54h3M67 54h1M51 55h8M50 56h3M54 56h5M61 56h1M49 57h3M53 57h9M78 57h2M48 58h3M53 58h3M57 58h4M67 58h1M78 58h2M31 59h2M47 59h3M52 59h3M56 59h5M66 59h2M32 60h1M46 60h2M52 60h2M56 60h2M59 60h2M66 60h1M46 61h1M52 61h1M55 61h2M59 61h1M66 61h1M75 61h1M52 62h1M55 62h2M58 62h2M75 62h1M55 63h1M58 63h1M75 63h1M55 64h1M57 64h2M57 65h1M71 66h2M33 69h1M34 70h1M70 70h2M35 71h2M56 71h1M70 71h2M37 72h3M56 72h1M69 72h3M38 73h4M57 73h1M69 73h3M32 74h3M38 74h4M57 74h1M70 74h3M28 75h1M31 75h4M37 75h6M65 75h3M71 75h2M28 76h1M31 76h3M36 76h7M60 76h2M65 76h4M71 76h2M31 77h3M36 77h8M59 77h4M65 77h5M71 77h2M32 78h1M35 78h5M41 78h1M59 78h4M64 78h6M72 78h1M34 79h6M59 79h4M64 79h7M72 79h1M33 80h4M59 80h4M65 80h4M72 80h1M60 81h2M66 81h2M72 81h1" />
<path stroke="#849d98" d="M23 12h1M27 12h1M20 13h1M23 13h1M27 13h1M31 13h1M19 14h1M22 14h1M26 14h1M31 14h1M18 15h1M21 15h1M25 15h1M30 15h1M17 16h1M20 16h1M24 16h1M29 16h1M16 17h1M19 17h1M23 17h1M28 17h1M15 18h1M18 18h1M22 18h1M27 18h1M14 19h1M17 19h1M21 19h1M26 19h1M13 20h1M15 20h2M20 20h1M24 20h2M14 21h1M18 21h1M23 21h1M14 22h1M16 22h2M21 22h2M14 23h1M16 23h1M19 23h2M16 24h1M19 24h1M13 25h1M18 25h1M13 26h1M15 26h1M18 26h1M29 26h1M15 27h1M29 27h1M12 28h1M17 28h1M28 28h1M12 29h1M14 29h1M17 29h1M27 29h1M12 30h1M14 30h1M16 30h1M26 30h1M71 30h1M80 30h1M12 31h1M14 31h1M16 31h1M24 31h1M71 31h1M80 31h1M11 32h5M80 32h1M11 33h3M72 33h1M80 33h1M72 34h1M80 34h1M87 34h1M66 35h1M80 35h1M87 35h1M67 36h1M73 36h1M80 36h1M87 36h1M68 37h1M73 37h1M79 37h1M87 37h1M52 38h2M68 38h1M73 38h1M79 38h1M52 39h2M73 39h1M79 39h1M69 40h1M73 40h1M86 40h1M69 41h1M73 41h1M78 41h1M69 42h1M78 42h1M85 42h1M81 47h2M81 48h2M80 49h2M74 50h1M80 50h2M79 51h2M80 52h1M75 53h1M77 54h1M77 55h2M72 56h1M76 56h3M77 57h1M69 59h1M74 60h1M70 61h1M73 61h2M73 62h2M74 63h1M29 64h1M70 64h1M25 65h2M30 65h1M65 65h1M71 65h1M25 66h2M66 66h1M25 68h1M60 68h1M63 68h1M67 68h1M26 69h1M59 69h2M64 69h1M59 70h2M31 71h1M59 72h1M64 72h1M60 73h1M63 73h1" />
<path stroke="#010101" d="M24 12h1M28 12h1M21 13h1M25 13h1M28 13h1M32 13h1M29 14h1M32 14h1M33 15h1M33 16h1M33 17h1M34 18h1M34 19h1M34 20h1M39 28h1M38 29h1M71 29h1M80 29h1M36 30h2M72 30h1M81 30h1M32 31h4M73 31h1M81 31h1M18 32h8M35 32h1M44 32h3M61 32h1M74 32h1M82 32h1M15 33h2M18 33h1M21 33h2M25 33h1M27 33h1M35 33h1M40 33h4M62 33h1M75 33h1M82 33h1M87 33h1M10 34h4M15 34h1M17 34h1M19 34h1M21 34h1M23 34h1M25 34h1M52 34h1M62 34h1M66 34h2M75 34h1M83 34h1M88 34h1M14 35h1M16 35h1M20 35h2M28 35h1M34 35h1M50 35h2M61 35h1M63 35h1M68 35h2M76 35h1M83 35h1M88 35h1M15 36h1M17 36h1M34 36h1M46 36h4M62 36h2M70 36h1M76 36h1M83 36h1M89 36h1M15 37h1M18 37h1M34 37h1M63 37h1M70 37h1M76 37h1M84 37h1M89 37h1M16 38h1M20 38h1M28 38h1M34 38h1M50 38h1M63 38h1M71 38h1M77 38h1M84 38h1M89 38h1M17 39h1M22 39h5M50 39h1M64 39h1M71 39h1M77 39h1M84 39h1M90 39h1M17 40h1M22 40h1M33 40h1M49 40h1M64 40h1M72 40h1M77 40h1M84 40h1M90 40h1M18 41h1M22 41h1M33 41h1M49 41h1M64 41h2M72 41h1M77 41h1M83 41h1M90 41h1M18 42h1M22 42h1M33 42h1M49 42h1M64 42h2M72 42h1M83 42h1M90 42h1M19 43h1M22 43h1M32 43h1M49 43h1M64 43h1M66 43h1M72 43h1M83 43h1M19 44h1M21 44h1M29 44h4M50 44h1M63 44h1M66 44h1M89 44h1M19 45h2M33 45h1M39 45h4M50 45h1M63 45h1M66 45h1M89 45h1M34 46h4M44 46h3M51 46h1M62 46h1M48 47h3M52 47h1M88 47h1M70 48h1M88 48h1M67 49h3M87 49h1M62 50h4M67 50h1M62 51h1M67 51h1M90 51h1M62 52h1M68 52h1M89 52h1M62 53h1M68 53h1M88 53h1M13 54h5M62 54h1M68 54h1M87 54h1M62 55h1M86 55h1M62 56h1M70 56h1M85 56h2M17 57h2M62 57h1M68 57h2M82 57h2M15 58h2M33 58h1M61 58h1M65 58h2M68 58h1M87 58h1M14 59h1M33 59h1M61 59h4M68 59h1M86 59h1M13 60h1M20 60h1M33 60h1M61 60h1M67 60h1M85 60h1M19 61h1M23 61h1M44 61h2M60 61h1M64 61h2M67 61h1M84 61h1M18 62h1M22 62h1M32 62h1M43 62h1M60 62h1M66 62h2M83 62h1M17 63h1M21 63h1M32 63h1M59 63h1M68 63h1M16 64h1M20 64h1M23 64h1M32 64h1M59 64h1M69 64h1M84 64h1M19 65h1M23 65h1M32 65h1M47 65h2M58 65h1M70 65h1M83 65h1M23 66h1M32 66h1M42 66h5M57 66h1M70 66h1M82 66h1M23 67h1M33 67h1M52 67h1M56 67h1M71 67h1M81 67h1M33 68h1M50 68h2M55 68h1M71 68h1M80 68h1M24 69h1M34 69h1M46 69h3M53 69h2M78 69h3M25 70h1M35 70h2M49 70h4M72 70h1M75 70h3M79 70h1M25 71h1M37 71h2M55 71h1M72 71h1M78 71h1M26 72h1M40 72h6M55 72h1M72 72h1M77 72h1M26 73h1M42 73h1M47 73h4M56 73h1M75 73h2M27 74h1M42 74h1M52 74h5M73 74h2M27 75h1M43 75h1M73 75h1M43 76h1M57 76h1M73 76h1M44 77h1M57 77h1M73 77h1M43 78h2M58 78h1M73 78h1M40 79h2M58 79h1M73 79h1M38 80h2M73 80h1M20 81h3M32 81h5M73 81h1M22 82h4M30 82h2M61 82h1M73 82h1M26 83h4M61 83h1M66 83h1M73 83h1M60 84h2M66 84h1M72 84h1M59 85h1M61 85h1M65 85h1M67 85h1M71 85h1M58 86h1M62 86h1M65 86h1M68 86h1M71 86h1M57 87h1M62 87h1M64 87h1M68 87h1M70 87h1M63 88h1M69 88h1" />
<path stroke="#4a5e58" d="M24 13h1M20 14h1M23 14h1M27 14h2M19 15h1M22 15h1M26 15h2M31 15h2M18 16h1M21 16h1M23 16h1M25 16h2M30 16h3M17 17h1M20 17h1M22 17h1M24 17h2M27 17h1M29 17h4M16 18h1M19 18h1M21 18h1M23 18h1M26 18h1M28 18h6M20 19h1M22 19h1M24 19h2M27 19h7M35 19h1M18 20h2M23 20h1M26 20h6M35 20h3M15 21h1M21 21h2M24 21h6M36 21h2M18 22h1M23 22h5M36 22h2M17 23h1M21 23h6M37 23h1M42 23h2M14 24h1M17 24h1M20 24h5M33 24h2M42 24h3M14 25h1M16 25h1M19 25h4M30 25h5M42 25h3M16 26h1M19 26h3M30 26h1M43 26h2M49 26h1M13 27h1M16 27h1M18 27h3M28 27h1M43 27h2M49 27h3M13 28h1M15 28h1M18 28h2M29 28h1M43 28h2M50 28h2M15 29h1M18 29h1M28 29h2M44 29h1M17 30h3M27 30h3M54 30h2M17 31h4M25 31h6M54 31h3M16 32h2M28 32h4M49 32h2M54 32h3M59 32h1M72 32h1M14 33h1M29 33h4M52 33h6M60 33h2M29 34h5M53 34h2M61 34h1M30 35h4M52 35h1M55 35h4M62 35h1M73 35h1M30 36h4M51 36h1M53 36h7M30 37h4M52 37h8M80 37h1M30 38h3M51 38h1M54 38h7M87 38h1M30 39h3M51 39h1M54 39h7M69 39h1M30 40h3M51 40h10M79 40h1M30 41h3M51 41h10M86 41h1M30 42h2M52 42h8M73 42h1M30 43h2M52 43h4M69 43h1M73 43h1M78 43h1M85 43h1M53 44h2M68 44h1M72 44h1M77 44h1M84 44h1M83 45h1M76 47h5M71 48h10M70 49h10M49 50h3M68 50h6M78 50h2M47 51h4M46 52h6M46 53h6M69 53h6M46 54h5M69 54h8M46 55h5M70 55h7M47 56h3M71 56h1M48 57h1M29 59h2M71 59h2M27 60h5M68 60h1M70 60h4M30 61h3M71 61h2M61 62h5M60 63h8M26 64h3M60 64h9M27 65h3M66 65h4M27 66h4M67 66h3M25 67h6M57 67h1M67 67h4M26 68h5M56 68h1M61 68h2M68 68h3M27 69h3M56 69h1M61 69h3M68 69h3M56 70h1M61 70h4M68 70h2M26 71h1M59 71h6M68 71h2M27 72h1M30 72h3M60 72h4M68 72h1M27 73h1M30 73h4M61 73h2M28 74h1M31 74h1" />
<path stroke="#fab672" d="M24 14h1M23 15h1M28 15h1M22 16h1M27 16h1M21 17h1M26 17h1M20 18h1M24 18h1M18 19h1M23 19h1M17 20h1M21 20h1M19 21h1M32 21h1M39 21h2M31 22h2M41 22h1M39 23h1M26 24h1M29 24h1M39 24h2M46 24h2M26 25h1M28 25h1M40 25h1M23 26h1M26 26h1M38 26h1M47 27h2M22 28h1M25 28h1M47 28h2M53 28h1M47 29h1M24 30h1M58 31h1M36 33h1M37 34h1M43 34h1M42 35h2M43 36h1M44 37h1M48 37h3M48 38h1M47 39h1M46 40h1M44 41h1M35 42h1M37 47h1M45 47h1M47 47h1M56 47h4M50 48h1M54 48h1M60 48h1M55 49h1M59 49h1M61 49h1M53 50h1M84 50h1M51 51h2M63 51h1M76 51h2M61 52h1M63 52h2M70 52h2M74 52h5M55 53h1M64 53h1M78 53h1M81 53h1M58 54h1M61 54h1M80 54h1M35 55h1M59 55h1M37 56h1M60 56h1M35 57h1M73 57h2M81 57h1M51 58h1M69 58h2M73 58h2M50 59h1M65 59h1M76 59h2M62 60h1M65 60h1M77 60h1M26 61h2M29 61h1M53 61h1M57 61h1M27 62h2M31 62h1M30 63h1M54 63h1M57 63h1M72 63h2M25 64h1M54 64h1M72 64h3M59 65h1M61 65h2M73 65h1M37 66h1M58 66h1M60 66h4M36 67h1M65 67h1M32 68h1M34 68h1M58 68h1M30 69h1M32 69h1M78 70h1M28 71h2M33 71h1M54 71h1M73 71h1M76 71h1M29 72h1M36 72h1M58 72h1M65 72h2M76 72h1M28 73h1M34 73h1M37 73h1M58 73h1M66 73h1M30 74h1M37 74h1M58 74h2M65 74h1M68 74h1M29 75h1M36 75h1M61 75h2M70 75h1M58 76h1M62 76h1M64 76h1M35 77h1M64 77h1M34 78h1M70 78h1" />
<path stroke="#fff493" d="M25 18h1M19 19h1M22 20h1M20 21h1M33 21h1M30 22h1M33 22h1M39 22h2M28 23h5M40 23h2M27 24h2M30 24h1M41 24h1M27 25h1M38 25h2M41 25h1M46 25h2M27 26h1M37 26h1M39 26h3M46 26h3M23 27h1M26 27h2M39 27h3M46 27h1M21 28h1M26 28h1M46 28h1M20 29h6M46 29h1M48 29h3M53 29h1M21 30h3M46 30h8M22 31h1M36 31h1M47 31h1M51 31h3M36 32h2M58 32h1M37 33h2M44 33h1M59 33h1M38 34h5M60 34h1M39 35h3M44 36h1M45 37h3M46 38h2M46 39h1M45 40h1M34 41h1M36 47h1M46 47h1M47 48h3M55 48h5M54 49h1M60 49h1M54 50h1M60 50h2M75 50h3M53 51h2M60 51h2M68 51h8M78 51h1M84 51h1M52 52h3M60 52h1M69 52h1M72 52h2M79 52h1M53 53h2M60 53h1M63 53h1M76 53h2M79 53h2M54 54h1M59 54h2M78 54h2M60 55h2M79 55h2M35 56h2M53 56h1M59 56h1M73 56h3M79 56h2M52 57h1M70 57h3M75 57h2M80 57h1M52 58h1M56 58h1M71 58h2M75 58h3M80 58h1M51 59h1M55 59h1M70 59h1M73 59h3M78 59h1M51 60h1M54 60h2M58 60h1M63 60h2M69 60h1M75 60h2M28 61h1M54 61h1M58 61h1M68 61h2M76 61h1M25 62h2M29 62h2M53 62h2M57 62h1M68 62h5M76 62h1M25 63h5M31 63h1M56 63h1M69 63h3M76 63h1M24 64h1M30 64h2M56 64h1M71 64h1M75 64h2M24 65h1M31 65h1M60 65h1M63 65h2M72 65h1M74 65h1M24 66h1M31 66h1M33 66h4M59 66h1M64 66h2M73 66h1M24 67h1M31 67h2M34 67h2M58 67h7M66 67h1M72 67h1M31 68h1M57 68h1M59 68h1M64 68h3M72 68h1M25 69h1M31 69h1M57 69h2M65 69h3M72 69h1M26 70h8M53 70h2M57 70h2M65 70h3M73 70h1M27 71h1M30 71h1M32 71h1M34 71h1M57 71h2M65 71h3M74 71h2M77 71h1M28 72h1M33 72h3M57 72h1M67 72h1M29 73h1M35 73h2M59 73h1M64 73h2M67 73h2M29 74h1M35 74h2M60 74h5M66 74h2M69 74h1M30 75h1M35 75h1M58 75h3M63 75h2M68 75h2M29 76h2M34 76h2M59 76h1M63 76h1M69 76h2M30 77h1M34 77h1M58 77h1M63 77h1M70 77h1M33 78h1M63 78h1M71 78h1M33 79h1M63 79h1M71 79h1M71 80h1" />
<path stroke="#1b2721" d="M35 18h1M36 19h2M12 20h1M32 20h2M12 21h1M30 21h2M12 22h1M29 22h1M42 22h2M12 23h1M33 23h3M44 23h2M12 24h1M31 24h1M35 24h1M36 25h1M49 25h1M36 26h1M50 26h2M55 29h1M70 29h1M79 29h1M57 30h1M70 30h1M79 30h1M59 31h1M70 31h1M79 31h1M26 32h1M60 32h1M71 32h1M79 32h1M17 33h1M71 33h1M79 33h1M86 33h1M14 34h1M28 34h1M34 34h1M55 34h5M65 34h1M71 34h1M79 34h1M86 34h1M53 35h2M60 35h1M65 35h1M72 35h1M79 35h1M86 35h1M29 36h1M50 36h1M52 36h1M66 36h1M72 36h1M79 36h1M86 36h1M29 37h1M51 37h1M67 37h1M72 37h1M78 37h1M86 37h1M29 38h1M67 38h1M72 38h1M78 38h1M86 38h1M29 39h1M33 39h1M68 39h1M72 39h1M78 39h1M86 39h1M29 40h1M68 40h1M78 40h1M85 40h1M29 41h1M68 41h1M85 41h1M29 42h1M68 42h1M77 42h1M84 42h1M29 43h1M68 43h1M77 43h1M84 43h1M89 43h1M67 44h1M71 44h1M76 44h1M83 44h1M67 45h1M71 45h1M76 45h1M82 45h1M22 46h7M70 46h1M75 46h8M88 46h1M20 47h2M29 47h2M53 47h1M70 47h5M83 47h1M19 48h1M51 48h1M84 48h1M18 49h1M48 49h3M84 49h1M47 50h1M85 50h1M46 51h1M45 52h1M45 53h1M44 54h1M29 58h4M27 59h2M26 60h1M25 61h1M61 61h3M24 62h1M24 63h1M24 68h1M55 69h1M71 69h1M55 70h1M72 73h1M57 75h1M40 78h1M42 78h1M37 80h1" />
<path stroke="#fe6336" d="M24 25h2M24 26h2M22 27h1M24 27h2M23 28h2" />
<path stroke="#272324" d="M32 26h4M36 27h3M30 28h1M40 28h2M30 29h1M42 29h2M44 30h2M37 31h1M46 31h1M47 32h2M39 33h1M49 33h3M26 34h2M44 34h1M17 35h2M24 35h2M44 35h1M19 36h5M45 36h1M19 37h1M21 38h1M27 38h1M34 40h2M36 41h1M57 43h3M60 44h1M32 45h1M38 45h1M43 45h1M61 45h1M64 45h2M31 46h1M47 46h1M54 46h1M61 46h1M66 46h2M31 47h1M35 47h1M51 47h1M54 47h1M61 47h1M68 47h2M23 48h2M30 48h3M36 48h1M21 49h1M33 49h1M36 49h1M66 49h1M20 50h1M34 50h1M36 50h1M87 50h4M20 51h1M34 51h2M85 51h2M20 52h1M35 52h1M83 52h2M20 53h1M35 53h1M82 53h1M18 54h1M21 54h1M35 54h1M63 54h4M81 54h1M18 55h1M22 55h2M34 55h1M67 55h3M81 55h1M18 56h1M24 56h3M34 56h1M81 56h1M19 57h1M34 57h1M67 57h1M84 57h4M20 58h1M81 58h2M21 59h2M79 59h2M23 60h3M78 60h1M33 61h1M77 61h1M77 62h1M77 63h1M80 63h5M77 64h3M75 65h2M74 66h1M37 67h4M73 67h1M41 68h5M73 68h1M73 69h1M74 70h1M39 71h1M46 72h1M75 72h1M51 73h1" />
<path stroke="#3f3b3c" d="M31 27h1M37 29h1M31 30h1M34 30h2M45 31h1M38 32h1M43 32h1M19 33h1M23 33h1M45 33h1M35 34h2M51 34h1M23 35h1M26 35h1M35 35h4M45 35h1M49 35h1M24 36h1M28 36h1M35 36h8M27 37h2M35 37h9M26 38h1M35 38h11M49 38h1M34 39h12M48 39h2M36 40h9M47 40h2M35 41h1M37 41h7M45 41h4M34 42h1M36 42h13M33 43h16M33 44h5M44 44h6M59 44h1M34 45h2M46 45h4M54 45h2M59 45h2M32 46h2M38 46h6M49 46h2M56 46h5M63 46h1M32 47h3M38 47h7M55 47h1M60 47h1M62 47h1M67 47h1M25 48h5M33 48h3M37 48h1M44 48h3M61 48h2M65 48h5M22 49h1M27 49h6M34 49h2M46 49h2M62 49h4M21 50h3M28 50h6M35 50h1M21 51h3M28 51h6M36 51h1M21 52h4M27 52h8M21 53h14M19 54h2M22 54h13M82 54h2M86 54h1M19 55h3M24 55h10M44 55h1M63 55h1M66 55h1M82 55h4M19 56h5M27 56h7M43 56h1M67 56h3M82 56h3M20 57h14M43 57h1M65 57h2M21 58h8M34 58h1M42 58h1M62 58h3M83 58h1M86 58h1M23 59h4M42 59h1M85 59h1M42 60h1M84 60h1M42 61h1M78 61h2M82 61h2M33 62h1M46 62h1M78 62h5M33 63h1M45 63h1M78 63h2M33 64h2M43 64h2M83 64h1M33 65h4M42 65h1M77 65h1M82 65h1M38 66h4M47 66h1M75 66h1M80 66h2M41 67h6M74 67h2M78 67h3M35 68h6M74 68h6M35 69h11M74 69h4M37 70h12M40 71h14M47 72h8M73 72h2M52 73h4M73 73h2" />
<path stroke="#595355" d="M32 27h4M31 28h8M31 29h6M39 29h3M32 30h2M38 30h6M38 31h7M39 32h4M20 33h1M24 33h1M26 33h1M46 33h3M16 34h1M18 34h1M20 34h1M22 34h1M24 34h1M45 34h6M19 35h1M22 35h1M27 35h1M46 35h3M18 36h1M25 36h3M20 37h7M22 38h4M38 44h6M56 44h3M36 45h2M44 45h2M56 45h3M48 46h1M55 46h1M64 46h2M63 47h4M38 48h6M63 48h2M23 49h4M37 49h9M24 50h4M37 50h10M24 51h4M37 51h9M87 51h3M25 52h2M36 52h9M85 52h4M36 53h9M83 53h5M36 54h8M84 54h2M36 55h8M64 55h2M38 56h5M63 56h4M36 57h7M63 57h2M35 58h7M84 58h2M34 59h8M81 59h4M34 60h8M79 60h5M34 61h8M80 61h2M34 62h9M44 62h2M34 63h11M35 64h8M80 64h3M37 65h5M78 65h4M76 66h4M76 67h2" />
<path stroke="#696532" d="M17 50h3M15 51h2M14 52h1M13 53h1M18 53h2M14 55h1M45 55h1M13 56h1M46 56h1M13 57h1M47 57h1M12 58h1M17 58h1M47 58h1M12 59h1M16 59h1M46 59h1M12 60h1M16 60h1M45 60h1M48 60h3M15 61h1M47 61h1M51 61h1M15 62h1M51 62h1M15 63h1M18 63h1M50 63h4M15 64h1M18 64h1M49 64h1M53 64h1M18 65h1M53 65h4M48 66h1M53 66h1M56 66h1M47 67h1M46 68h1M49 69h1M25 76h3M23 77h2M26 77h4M22 78h1M25 78h1M29 78h3M21 79h1M24 79h1M29 79h1M32 79h1M20 80h1M23 80h1M28 80h1M32 80h1M58 80h1M63 80h2M69 80h2M27 81h1M57 81h1M59 81h1M62 81h1M65 81h1M68 81h1M71 81h1M26 82h1M57 82h1M60 82h1M66 82h2M72 82h1M56 83h1M60 83h1M67 83h1M72 83h1M56 84h1M67 84h1M56 85h1M56 86h1M56 87h1" />
<path stroke="#d6ca3f" d="M17 51h3M15 52h4M14 53h3M44 57h2M43 58h3M43 59h2M43 60h1M43 61h1M48 61h1M47 62h2M46 63h2M45 64h3M43 65h3M50 66h2M48 67h3M47 68h2M23 78h2M22 79h2M25 79h2M21 80h2M24 80h3M29 80h1M24 81h2M28 81h2M58 81h1M63 81h1M69 81h1M27 82h2M58 82h1M62 82h3M68 82h3M57 83h2M62 83h3M68 83h3M57 84h1M62 84h3M68 84h3M57 85h1M63 85h1M69 85h1" />
<path stroke="#979b3c" d="M19 52h1M17 53h1M15 55h3M14 56h4M44 56h2M14 57h3M46 57h1M13 58h2M18 58h2M46 58h1M13 59h1M17 59h4M45 59h1M17 60h3M21 60h2M44 60h1M16 61h3M20 61h3M49 61h2M16 62h2M19 62h3M49 62h2M16 63h1M19 63h2M48 63h2M19 64h1M48 64h1M50 64h3M46 65h1M49 65h4M49 66h1M52 66h1M54 66h2M51 67h1M53 67h3M49 68h1M52 68h3M50 69h3M25 77h1M26 78h3M27 79h2M30 79h2M27 80h1M30 80h2M23 81h1M26 81h1M30 81h2M64 81h1M70 81h1M29 82h1M59 82h1M65 82h1M71 82h1M59 83h1M65 83h1M71 83h1M58 84h2M65 84h1M71 84h1M58 85h1M62 85h1M64 85h1M68 85h1M70 85h1M57 86h1M63 86h2M69 86h2M63 87h1M69 87h1" />
</svg>