<svg xmlns="http://www.w3.org/2000/svg" viewBox="0 -0.5 96 96" shape-rendering="crispEdges">
<metadata>Made with Pixels to Svg https://codepen.io/shshaw/pen/XbxvNj</metadata>
<path stroke="#5a5252" d="M43 25h10M40 26h3M38 27h2M36 28h2M35 29h1M34 30h1M33 31h1M32 32h1M31 33h1M30 34h1M30 35h1M29 36h1M54 36h3M29 37h1M35 37h2M53 37h1M57 37h1M28 38h1M34 38h1M37 38h1M52 38h1M58 38h1M28 39h1M33 39h1M38 39h1M51 39h1M59 39h1M32 40h1M38 40h1M50 40h1M59 40h1M32 41h1M39 41h1M49 41h1M60 41h1M31 42h1M39 42h1M49 42h1M31 43h1M40 43h1M48 43h1M40 44h1M46 44h1M48 44h1M46 45h1M46 46h1M53 61h1M49 62h1M53 62h1M49 63h1" />
<path stroke="#cdcdde" d="M43 26h1M52 26h1M40 27h1M55 27h1M38 28h1M56 28h1M36 29h1M55 29h1M57 29h1M59 29h1M56 30h1M58 30h3M34 31h1M58 31h4M33 32h1M59 32h4M32 33h1M60 33h4M31 34h2M60 34h5M31 35h1M61 35h4M30 36h2M57 36h1M61 36h5M30 37h1M54 37h3M58 37h1M62 37h4M29 38h2M53 38h5M59 38h1M62 38h5M29 39h1M37 39h1M52 39h4M58 39h1M60 39h1M62 39h5M28 40h2M51 40h3M60 40h1M62 40h6M28 41h2M38 41h1M50 41h2M59 41h1M63 41h5M28 42h2M48 42h1M50 42h1M63 42h5M27 43h2M39 43h1M46 43h2M49 43h1M63 43h6M27 44h2M47 44h1M63 44h6M27 45h2M47 45h2M63 45h6M28 46h1M47 46h1M63 46h5M63 47h4M62 48h4M62 49h2M58 56h1M36 57h3M54 57h5M36 58h1M38 58h17M57 59h1M56 60h1M54 62h1M43 63h1M51 63h1" />
<path stroke="#eeeeee" d="M44 26h8M41 27h14M39 28h17M57 28h1M37 29h3M45 29h10M56 29h1M58 29h1M35 30h4M46 30h10M57 30h1M35 31h3M47 31h11M34 32h4M47 32h12M33 33h5M47 33h13M33 34h6M46 34h14M32 35h8M45 35h16M32 36h22M58 36h3M31 37h4M37 37h16M59 37h3M31 38h3M35 38h2M38 38h14M60 38h2M30 39h3M34 39h3M39 39h12M56 39h2M61 39h1M30 40h2M33 40h5M39 40h11M54 40h5M61 40h1M30 41h2M33 41h5M40 41h9M52 41h7M61 41h2M30 42h1M32 42h7M40 42h5M46 42h2M51 42h12M29 43h2M32 43h7M41 43h4M50 43h13M29 44h11M41 44h5M49 44h14M29 45h8M38 45h8M49 45h14M29 46h8M38 46h8M48 46h4M53 46h10M29 47h8M38 47h14M53 47h10M30 48h7M38 48h14M53 48h9M31 49h21M53 49h9M32 50h30M34 51h26M37 52h20M40 53h11" />
<path stroke="#101010" d="M53 26h3M56 27h2M58 28h2M60 29h1M61 30h1M62 31h1M63 32h1M64 33h1M65 34h1M65 35h1M66 36h1M66 37h1M67 38h1M67 39h1M27 40h1M68 40h1M27 41h1M68 41h1M27 42h1M68 42h1M26 43h1M69 43h1M26 44h1M69 44h1M26 45h1M37 45h1M69 45h1M26 46h1M37 46h1M52 46h1M69 46h1M26 47h1M37 47h1M52 47h1M69 47h1M26 48h1M52 48h1M69 48h1M26 49h1M69 49h1M26 50h1M69 50h1M26 51h1M69 51h1M26 52h1M69 52h1M27 53h1M68 53h1M27 54h1M68 54h1M27 55h1M68 55h1M28 56h1M34 56h1M59 56h1M67 56h1M28 57h1M35 57h1M59 57h1M67 57h1M29 58h1M35 58h1M58 58h1M66 58h1M29 59h1M36 59h1M58 59h1M66 59h1M30 60h1M37 60h1M57 60h1M65 60h1M30 61h1M38 61h1M56 61h1M65 61h1M31 62h1M39 62h2M55 62h1M64 62h1M32 63h1M41 63h2M52 63h3M63 63h1M33 64h1M43 64h9M62 64h1M34 65h1M61 65h1M35 66h1M60 66h1M36 67h2M58 67h2M38 68h2M56 68h2M40 69h3M53 69h3M43 70h10" />
<path stroke="#ffffff" d="M40 29h5M39 30h7M38 31h9M38 32h9M38 33h9M39 34h7M40 35h5M37 58h1M55 58h3M37 59h20M38 60h15M54 60h2M39 61h10M50 61h3M54 61h2M41 62h8M50 62h3M44 63h5M50 63h1" />
<path stroke="#a49c9c" d="M45 42h1M45 43h1M37 48h1M52 49h1M53 60h1M49 61h1" />
<path stroke="#838bde" d="M27 46h1M68 46h1M28 47h1M67 47h1M66 48h1M64 49h1M62 50h1" />
<path stroke="#394ad5" d="M27 47h1M68 47h1M27 48h2M67 48h2M27 49h2M65 49h4M27 50h2M63 50h6M27 51h2M62 51h7M27 52h2M62 52h7M28 53h2M61 53h7M28 54h2M59 54h1M61 54h7M28 55h3M34 55h1M60 55h8M29 56h2M60 56h7M29 57h3M60 57h7M30 58h3M59 58h7M30 59h5M59 59h7M31 60h6M58 60h7M31 61h7M57 61h8M32 62h7M56 62h8M33 63h8M55 63h8M34 64h9M52 64h10M35 65h26M36 66h24M38 67h20M40 68h16M43 69h10" />
<path stroke="#94acee" d="M29 48h1M30 49h1M31 50h1M33 51h1M60 51h1M36 52h1M57 52h1M39 53h1M51 53h1" />
<path stroke="#2073ff" d="M29 49h1M29 50h2M30 51h3M30 52h6M58 52h2M30 53h9M52 53h7M32 54h26M32 55h1M35 55h23M39 56h15" />
<path stroke="#3162ee" d="M29 51h1M61 51h1M29 52h1M60 52h2M59 53h2M30 54h2M58 54h1M31 55h1M31 56h3M32 57h3M33 58h2M35 59h1" />
<path stroke="#103183" d="M60 54h1M33 55h1M58 55h2M35 56h4M54 56h4M39 57h15" />
</svg>