<svg xmlns="http://www.w3.org/2000/svg" viewBox="0 -0.5 96 96" shape-rendering="crispEdges">
<metadata>Made with Pixels to Svg https://codepen.io/shshaw/pen/XbxvNj</metadata>
<path stroke="#101010" d="M46 21h1M46 22h1M47 23h1M47 24h1M48 25h1M48 26h1M47 27h1M46 28h1M45 29h1M45 30h1M46 31h1M56 39h1M56 40h1M55 41h1M38 42h1M55 42h1M39 43h1M53 43h2M40 44h1M51 44h2M42 45h8M41 50h1M41 51h1M40 52h1M40 53h1M39 54h1M39 55h1M38 56h1M38 57h1M38 58h1M37 59h1M37 60h1M37 61h1M36 62h1M56 62h1M36 63h1M56 63h1M36 64h1M57 64h1M36 65h1M57 65h1M35 66h1M57 66h2M34 67h2M58 67h2M33 68h1M35 68h1M58 68h1M60 68h1M32 69h1M35 69h1M58 69h1M61 69h1M26 70h1M30 70h2M35 70h1M58 70h1M62 70h1M27 71h3M35 71h1M58 71h1M63 71h2M69 71h1M58 72h1M65 72h4M36 73h1M58 73h1M36 74h1M58 74h1M37 75h1M57 75h1M37 76h1M57 76h1M38 77h1M57 77h1M38 78h1M56 78h1M56 79h1M39 80h1M55 80h1M40 81h1M45 81h3M55 81h1M40 82h1M44 82h1M48 82h2M55 82h1M44 83h1M50 83h1M45 84h1M50 84h1M45 85h1M50 85h1M41 86h4M51 86h1M34 87h7M51 87h1M57 87h3M53 88h5" />
<path stroke="#c26cbc" d="M44 32h6M41 33h3M50 33h3M39 34h2M53 34h2M38 35h1M55 35h1M38 36h1M41 36h1M46 36h1M55 36h1M37 37h1M39 37h2M47 37h3M37 38h1M42 40h3M41 41h1M45 41h1M40 42h1M46 42h1M54 42h1M41 43h5M50 44h1" />
<path stroke="#edbbed" d="M44 33h6M41 34h1M44 34h9M40 35h1M43 35h11M39 36h2M42 36h4M47 36h8M38 37h1M42 37h4M50 37h6M38 38h1M42 38h4M50 38h6M38 39h1M42 39h4M50 39h6M38 40h2M46 40h1M49 40h6M39 41h1M47 41h6M47 42h3M43 51h1M47 51h1M41 53h1M50 54h1M40 55h1M51 56h1M39 57h1M38 60h1M52 61h1M37 64h1M53 64h1M38 66h1M53 66h1M52 67h1M37 68h1M54 68h1M36 69h1M54 69h1" />
<path stroke="#fcfcfc" d="M42 34h2M41 35h2M40 38h1M47 38h2M40 39h1M47 39h2M42 41h3M42 42h3M44 51h3M42 52h7M42 53h8M41 54h9M41 55h10M40 56h11M40 57h12M39 58h13M39 59h14M39 60h14M38 61h14M38 62h14M39 63h12M38 64h15M37 65h17M39 66h14M39 67h13M38 68h16M37 69h17M36 70h19M36 71h19M37 72h18M37 73h16M39 74h11M42 75h4" />
<path stroke="#cc8cca" d="M39 35h1M54 35h1M41 37h1M46 37h1M39 38h1M41 38h1M46 38h1M49 38h1M39 39h1M41 39h1M46 39h1M49 39h1M40 40h2M45 40h1M47 40h2M55 40h1M40 41h1M46 41h1M53 41h2M39 42h1M50 42h4M40 43h1M46 43h7M42 44h8M44 50h3M42 51h1M48 51h1M41 52h1M49 52h1M50 53h1M40 54h1M51 55h1M39 56h1M52 57h1M52 58h1M38 59h1M53 60h1M53 61h1M37 62h1M52 62h3M37 63h2M51 63h4M54 64h1M54 65h1M36 66h2M54 66h2M36 67h3M53 67h3M36 68h1M55 68h1M55 69h1M55 70h1M55 71h1" />
<path stroke="#7a1f71" d="M56 37h1M56 38h1M37 39h1M37 40h1M38 41h1M41 44h1" />
<path stroke="#d9d1d8" d="M41 42h1M45 42h1M53 73h1M38 74h1M50 74h1M52 74h1M41 75h1M46 75h2M49 75h1M51 75h1M53 75h1M50 76h1M52 76h1" />
<path stroke="#5e2443" d="M50 45h1M43 46h1M50 46h1M42 47h1M51 47h1M42 48h1M52 48h1M41 49h1M53 49h1M40 50h1M54 50h1M39 51h1M55 51h1M39 52h1M56 52h1M38 53h1M57 53h1M37 54h1M57 54h1M37 55h1M53 55h1M58 55h1M36 56h1M59 56h1M35 57h1M54 57h1M59 57h1M35 58h1M54 58h1M60 58h1M34 59h1M61 59h1M34 60h1M55 60h1M61 60h1M33 61h1M55 61h1M62 61h1M33 62h1M63 62h1M32 63h1M63 63h1M32 64h1M64 64h1M31 65h1M64 65h1M30 66h1M65 66h1M29 67h1M66 67h1M27 68h2M67 68h1M26 69h1M68 69h1M69 70h1" />
<path stroke="#6c2e4f" d="M44 46h5M43 47h4M42 49h1M56 53h1M53 54h1M53 56h2M58 56h1M37 58h1M55 59h1M60 59h1M36 60h1M36 61h1M56 61h1M35 62h1M62 62h1M35 63h1M57 63h1M34 64h2M34 65h2M58 65h1M33 66h2M59 66h1M32 67h2M60 67h1M31 68h2M61 68h1M29 69h3M62 69h2M28 70h2M63 70h3M65 71h4" />
<path stroke="#944c6f" d="M49 46h1M47 47h4M43 48h9M43 49h10M42 50h2M47 50h7M40 51h1M49 51h6M50 52h6M39 53h1M51 53h5M38 54h1M51 54h2M54 54h3M38 55h1M52 55h1M54 55h4M37 56h1M52 56h1M55 56h3M36 57h2M53 57h1M55 57h4M36 58h1M53 58h1M55 58h5M35 59h2M53 59h2M56 59h4M35 60h1M54 60h1M56 60h5M34 61h2M54 61h1M57 61h5M34 62h1M55 62h1M57 62h5M33 63h2M55 63h1M58 63h5M33 64h1M55 64h2M58 64h6M32 65h2M55 65h2M59 65h5M31 66h2M56 66h1M60 66h5M30 67h2M56 67h2M61 67h5M29 68h2M56 68h2M62 68h5M27 69h2M56 69h2M64 69h4M27 70h1M56 70h2M66 70h3M56 71h2M36 72h1M56 72h2M56 73h2M56 74h2M56 75h1M56 76h1M56 77h1M39 79h1M43 80h3" />
<path stroke="#b8a7b4" d="M55 72h1M54 73h2M37 74h1M51 74h1M53 74h3M38 75h3M48 75h1M50 75h1M52 75h1M54 75h2M38 76h12M51 76h1M53 76h3M39 77h17M39 78h17M40 79h16M40 80h3M46 80h9M41 81h4M48 81h7M41 82h3M50 82h5M43 83h1M51 83h1" />
<path stroke="#7b5241" d="M37 83h3M56 83h1M35 84h2M57 84h1M34 85h1M56 85h1M58 85h1M33 86h1M36 86h2M54 86h1M57 86h1M59 86h1M52 87h1M55 87h1" />
<path stroke="#ffcc59" d="M40 83h2M53 83h3M37 84h7M51 84h6M35 85h3M40 85h3M52 85h1M54 85h2M57 85h1M34 86h2M38 86h2M52 86h2M55 86h2" />
<path stroke="#d59045" d="M42 83h1M52 83h1M44 84h1M38 85h2M43 85h2M51 85h1M53 85h1M40 86h1M58 86h1M53 87h2M56 87h1" />
</svg>