<svg xmlns="http://www.w3.org/2000/svg" viewBox="0 -0.5 96 96" shape-rendering="crispEdges">
<metadata>Made with Pixels to Svg https://codepen.io/shshaw/pen/XbxvNj</metadata>
<path stroke="#bcb9be" d="M32 25h2M31 26h1M34 26h1M31 27h1M34 27h1M31 28h1M35 28h1M59 28h3M32 29h1M36 29h1M51 29h2M58 29h1M61 29h1M29 30h3M33 30h1M36 30h1M50 30h1M53 30h1M58 30h1M61 30h1M29 31h1M32 31h1M37 31h2M41 31h2M50 31h1M53 31h2M57 31h1M60 31h1M30 32h1M39 32h2M51 32h1M55 32h2M59 32h1M33 33h1M39 33h1M51 33h1M55 33h1M32 34h1M42 34h1M51 34h2M55 34h1M32 35h1M41 35h1M50 35h1M53 35h1M33 36h1M36 36h1M50 36h1M35 37h1M50 37h1M47 38h3M56 38h1M42 39h1M46 39h1M31 40h2M43 40h1M46 40h1M33 41h2M38 41h1M45 41h1M61 41h2M35 42h4M60 42h1M63 42h3M36 43h1M60 43h1M62 43h2M33 44h1M36 44h3M60 44h1M65 44h1M32 45h1M60 45h1M33 46h2M53 46h1M57 46h3M63 46h1M35 47h1M52 47h1M56 47h1M63 47h1M62 48h1M59 50h1M58 51h1M43 54h1M27 55h2M44 55h1M26 56h1M26 57h1M25 58h1M25 59h1" />
<path stroke="#f2f2f2" d="M32 26h2M32 27h2M32 28h3M33 29h3M59 29h2M34 30h2M51 30h2M59 30h2M30 31h2M33 31h4M51 31h2M58 31h2M31 32h8M52 32h3M57 32h2M34 33h5M52 33h3M56 33h3M33 34h6M53 34h2M56 34h3M33 35h6M51 35h2M54 35h4M34 36h2M37 36h1M51 36h6M36 37h1M38 37h1M51 37h6M37 38h1M50 38h6M57 38h1M38 39h1M47 39h11M37 40h1M47 40h9M47 41h7M49 42h4M61 42h2M51 43h2M61 43h1M64 43h2M52 44h2M61 44h3M53 45h1M61 45h2M60 46h1" />
<path stroke="#7b787c" d="M29 32h1M43 32h1M30 33h3M43 33h1M59 33h1M59 34h1M42 35h1M58 35h2M42 36h1M57 36h1M33 37h2M41 37h1M57 37h1M35 38h1M41 38h1M58 38h1M36 39h1M43 39h1M58 39h1M36 40h1M44 40h2M56 40h2M30 41h1M37 41h1M54 41h2M30 42h1M53 42h1M66 42h1M31 43h1M53 43h1M66 43h1M32 44h1M54 44h1M66 44h1M54 45h1M64 45h1M64 47h1M64 48h1M61 49h3M60 50h1M59 51h1M58 52h1M58 53h1M58 54h1M45 56h1M39 57h1M45 57h1M30 58h1M39 58h1M44 58h1M28 59h3M40 59h2M44 59h1M26 60h2M42 60h1M45 60h1M42 61h1M45 61h1M43 62h2" />
<path stroke="#e1dfe2" d="M41 32h2M40 33h3M39 34h3M39 35h2M38 36h4M37 37h1M39 37h2M36 38h1M38 38h3M37 39h1M39 39h3M38 40h5M39 41h2M46 41h1M33 42h2M45 42h2M46 43h1M47 44h1M64 44h1M33 45h1M38 45h1M63 45h1M50 46h1M61 46h2M36 47h1M51 47h1M57 47h6M56 48h6M63 48h1M57 49h4M57 50h2M42 54h1M29 55h1M40 55h1M29 56h1M39 56h1M29 57h2M40 58h1M44 60h1M43 61h2" />
<path stroke="#f9f2fc" d="M31 41h2M31 42h2M32 43h4M34 44h2M34 45h3M35 46h1M27 56h1M43 56h2M27 57h2M40 57h5M26 58h3M41 58h3M26 59h2M42 59h2M43 60h1" />
<path stroke="#d0cfd0" d="M41 41h4M39 42h6M37 43h9M39 44h8M39 45h9M32 46h1M38 46h12M31 47h3M37 47h14M31 48h21M30 49h1M33 49h19M30 50h1M33 50h4M39 50h12M30 51h1M33 51h3M39 51h12M29 52h3M33 52h3M39 52h14M29 53h7M38 53h10M51 53h2M29 54h4M35 54h7M44 54h3M51 54h2M30 55h2M34 55h1M36 55h4M45 55h2M52 55h1M30 56h6M37 56h2M52 56h1M31 57h8M33 58h4M34 59h2" />
<path stroke="#d3c4d9" d="M47 42h2M47 43h4M48 44h4M37 45h1M48 45h5M36 46h2M51 46h2M41 55h3M28 56h1M40 56h3M29 58h1" />
<path stroke="#9c94a3" d="M31 46h1M55 46h1M30 47h1M30 48h1M29 49h1M31 49h1M29 50h1M38 50h1M29 51h1M28 52h1M28 53h1M28 54h1M34 54h1M32 55h1M35 55h1" />
<path stroke="#b8b4ba" d="M54 46h1M34 47h1M53 47h3M52 48h4M52 49h5M53 50h4M36 51h1M53 51h5M36 52h1M53 52h5M36 53h1M50 53h1M53 53h5M33 54h1M47 54h1M53 54h5M33 55h1M51 55h1M53 55h1M56 55h1M36 56h1M46 56h1M52 57h1M37 58h2M45 58h1" />
<path stroke="#101010" d="M32 49h1M31 50h2M37 50h1M31 51h1M37 51h2M38 52h1M57 56h1M57 57h1M58 58h1M31 59h1M54 59h1M58 59h1M52 60h2M55 60h1M58 60h1M32 61h1M50 61h2M56 61h2M32 62h1M35 62h2M48 62h2M32 63h1M36 63h1M38 63h5M47 63h1M33 64h3M43 64h1M47 64h1M43 65h1M47 65h1M44 66h3" />
<path stroke="#a29aa2" d="M51 50h2M51 51h2M48 53h2M48 54h3M47 55h4M54 55h2M47 56h5M53 56h4M46 57h6M53 57h4M31 58h2M46 58h12M32 59h2M36 59h4M45 59h8M55 59h3M33 60h9M46 60h6M56 60h2M34 61h8M46 61h4M33 62h2M38 62h4M45 62h2M33 63h3M43 63h4M44 64h3M44 65h3" />
<path stroke="#c6a4ff" d="M32 51h1M37 52h1" />
<path stroke="#9362e6" d="M32 52h1M37 53h1" />
<path stroke="#635e63" d="M57 55h1M53 59h1M32 60h1M33 61h1M37 62h1M42 62h1M47 62h1" />
</svg>