<svg xmlns="http://www.w3.org/2000/svg" viewBox="0 -0.5 96 96" shape-rendering="crispEdges">
<metadata>Made with Pixels to Svg https://codepen.io/shshaw/pen/XbxvNj</metadata>
<path stroke="#772c2e" d="M45 3h1M44 4h1M39 5h2M43 5h1M38 6h1M40 6h1M42 6h1M32 7h1M37 7h1M40 7h2M35 8h2M39 8h1M31 9h1M33 9h2M38 9h1M31 10h1M30 11h1M30 12h1M29 13h1M28 14h1M27 15h1M44 15h1M26 16h1M43 16h1M26 17h1M41 17h2M25 18h1M25 19h1M25 20h1M24 21h1M24 22h1M42 22h3M24 23h1M45 23h2M24 24h1M47 24h6M24 25h1M44 25h3M53 25h2M42 26h2M43 32h1M48 32h1M74 33h4M78 34h3M84 34h2M81 35h3M85 35h1M84 36h1M80 37h1M81 38h1M82 39h1M82 40h1M83 41h1M83 42h1M84 43h1M84 44h1M85 45h1M85 46h1M15 47h1M85 47h1M86 48h1M86 49h1M86 50h1M86 51h1M86 52h1M86 53h1M86 54h1M86 55h1M86 56h1M86 57h1M50 64h1M50 65h1M51 66h1M51 67h1M51 68h1M52 69h1M26 70h1M52 70h1M25 71h1M27 71h1M52 71h1M25 72h1M27 72h1M52 72h1M24 73h1M27 73h1M29 73h1M49 73h2M52 73h1M24 74h1M28 74h1M49 74h1M51 74h2M24 75h1M28 75h1M49 75h1M52 75h1M24 76h1M29 76h1M49 76h1M52 76h1M30 77h2M49 77h1M53 77h1M57 77h2M54 78h1M56 78h1M58 78h1M55 79h1M58 79h1M58 80h1M30 81h1M58 81h1M23 82h4M57 82h1M28 85h1M52 85h1M50 86h1M56 86h1M49 87h1" />
<path stroke="#080808" d="M45 4h1M45 5h1M45 6h1M45 7h1M44 8h1M44 9h1M44 10h1M43 11h1M43 12h1M42 13h1M42 14h1M76 14h1M41 15h1M76 15h1M41 16h1M44 16h1M76 16h1M44 17h1M76 17h1M81 17h1M44 18h1M75 18h1M81 18h1M43 19h1M75 19h1M81 19h1M43 20h1M74 20h1M80 20h1M42 21h1M80 21h1M41 22h1M80 22h1M39 23h2M79 23h1M37 24h2M79 24h1M35 25h2M79 25h1M33 26h2M78 26h1M31 27h2M78 27h1M77 28h1M17 29h1M28 29h1M77 29h1M17 30h1M28 30h1M76 30h1M17 31h2M28 31h1M49 31h2M75 31h1M17 32h2M27 32h2M44 32h4M74 32h1M18 33h1M27 33h2M41 33h2M73 33h1M27 34h1M40 34h1M49 34h1M72 34h1M40 35h1M49 35h1M71 35h1M40 36h1M49 36h1M70 36h3M12 37h1M40 37h1M49 37h1M72 37h1M83 37h1M12 38h1M40 38h1M49 38h1M71 38h1M82 38h1M13 39h1M40 39h1M48 39h1M71 39h1M12 40h2M40 40h1M48 40h1M70 40h1M12 41h1M23 41h1M39 41h1M48 41h1M70 41h1M12 42h1M39 42h1M47 42h1M69 42h1M13 43h1M39 43h1M47 43h1M69 43h2M13 44h1M38 44h1M46 44h1M68 44h1M71 44h2M38 45h1M46 45h1M67 45h1M73 45h2M14 46h1M38 46h1M45 46h1M67 46h2M75 46h2M14 47h1M37 47h1M44 47h1M66 47h1M68 47h1M77 47h2M15 48h1M23 48h2M37 48h1M43 48h1M68 48h1M79 48h1M16 49h2M21 49h2M36 49h1M42 49h1M67 49h1M80 49h1M17 50h4M36 50h1M42 50h1M67 50h1M81 50h1M17 51h1M35 51h1M41 51h2M66 51h1M82 51h1M17 52h1M35 52h1M41 52h2M65 52h1M82 52h1M18 53h1M34 53h1M40 53h1M42 53h1M64 53h1M82 53h2M12 54h2M18 54h1M34 54h1M40 54h1M42 54h1M63 54h2M82 54h2M11 55h1M18 55h2M33 55h1M40 55h1M42 55h1M62 55h1M64 55h1M82 55h1M84 55h1M10 56h1M17 56h1M20 56h1M32 56h1M39 56h1M42 56h1M61 56h1M64 56h1M82 56h1M84 56h1M9 57h1M16 57h1M21 57h1M31 57h1M39 57h1M42 57h1M47 57h1M60 57h1M64 57h1M82 57h1M85 57h1M9 58h1M15 58h1M22 58h1M30 58h1M38 58h1M41 58h1M48 58h1M59 58h1M65 58h1M81 58h1M8 59h1M14 59h1M23 59h1M29 59h1M38 59h1M41 59h1M57 59h3M65 59h1M81 59h1M13 60h1M24 60h1M27 60h2M37 60h1M41 60h1M55 60h2M59 60h1M66 60h1M76 60h1M80 60h1M13 61h1M25 61h2M37 61h1M41 61h1M53 61h2M60 61h1M66 61h1M76 61h1M80 61h1M12 62h1M25 62h1M36 62h1M41 62h1M50 62h3M60 62h1M67 62h1M76 62h1M79 62h1M26 63h1M35 63h1M40 63h1M44 63h6M60 63h1M67 63h2M76 63h1M78 63h1M26 64h2M34 64h1M40 64h1M42 64h2M49 64h1M60 64h1M67 64h1M69 64h1M77 64h1M26 65h1M28 65h1M33 65h1M40 65h2M49 65h1M59 65h1M67 65h1M70 65h2M77 65h1M26 66h1M29 66h1M32 66h1M40 66h1M49 66h1M59 66h1M66 66h1M72 66h1M78 66h1M27 67h1M30 67h2M39 67h1M49 67h1M58 67h1M66 67h1M72 67h1M78 67h1M27 68h1M39 68h1M49 68h1M58 68h1M66 68h1M71 68h1M73 68h1M78 68h1M28 69h1M39 69h1M48 69h1M58 69h1M66 69h1M71 69h1M73 69h1M77 69h1M28 70h1M38 70h1M48 70h1M57 70h1M66 70h1M70 70h1M73 70h1M77 70h1M29 71h1M38 71h1M48 71h1M57 71h1M67 71h1M70 71h1M73 71h1M77 71h1M29 72h1M38 72h1M48 72h1M57 72h1M67 72h1M69 72h1M73 72h1M77 72h1M30 73h1M37 73h1M47 73h1M57 73h1M67 73h1M69 73h1M73 73h1M77 73h1M30 74h1M37 74h1M47 74h1M57 74h1M68 74h1M73 74h1M76 74h1M31 75h1M36 75h1M46 75h1M57 75h1M73 75h1M76 75h1M31 76h1M36 76h1M44 76h2M57 76h1M73 76h1M76 76h1M24 77h1M32 77h1M35 77h1M43 77h1M45 77h2M72 77h1M76 77h1M24 78h1M32 78h1M35 78h1M42 78h1M44 78h1M46 78h2M49 78h1M70 78h2M76 78h1M24 79h1M31 79h1M33 79h2M42 79h2M45 79h1M48 79h2M69 79h1M71 79h2M76 79h1M25 80h1M31 80h1M43 80h5M49 80h1M68 80h1M70 80h1M72 80h2M76 80h1M25 81h1M49 81h1M68 81h2M71 81h1M74 81h2M30 82h1M50 82h1M69 82h5M21 83h4M30 83h1M50 83h1M57 83h1M20 84h1M22 84h1M24 84h3M30 84h1M51 84h1M57 84h1M19 85h1M21 85h1M24 85h1M26 85h1M29 85h1M51 85h1M57 85h1M19 86h2M23 86h1M26 86h2M20 87h6M51 87h2M56 87h1M48 88h3M53 88h2M56 88h1M48 89h1M50 89h1M53 89h1M56 89h1M48 90h1M50 90h1M52 90h1M54 90h2M49 91h2M52 91h2M50 92h2" />
<path stroke="#cb3369" d="M44 5h1M39 6h1M43 6h2M38 7h1M42 7h3M37 8h2M41 8h3M32 9h1M35 9h3M39 9h5M32 10h1M34 10h9M31 11h12M31 12h11M30 13h12M29 14h12M28 15h13M27 16h14M27 17h3M31 17h9M43 17h1M26 18h3M30 18h10M41 18h2M26 19h3M30 19h12M26 20h2M29 20h3M33 20h8M27 21h1M29 21h2M32 21h7M31 22h6M33 23h1M35 23h1M32 24h1M34 24h1M36 24h1M33 25h1M47 25h6M49 26h2M51 27h3M49 28h1M51 28h1M50 29h1M52 29h1M49 30h1M73 34h5M21 35h1M72 35h9M84 35h1M18 36h1M21 36h1M25 36h1M73 36h6M80 36h4M18 37h1M20 37h2M23 37h2M73 37h7M82 37h1M19 38h5M72 38h9M19 39h1M72 39h10M75 40h7M74 41h1M76 41h1M78 41h5M75 42h1M77 42h1M81 42h2M76 43h1M78 43h1M25 44h1M15 46h3M16 47h1M50 63h2M51 64h1M51 65h2M52 66h1M52 67h1M52 68h2M53 69h1M53 70h1M53 71h2M53 72h2M53 73h2M50 74h1M53 74h2M50 75h2M53 75h2M50 76h2M53 76h2M50 77h3M54 77h1M50 78h4M57 78h1M50 79h5M56 79h2M50 80h8M50 81h7M51 82h6M52 83h3M51 86h4M50 87h1M53 87h3M55 88h1M55 89h1" />
<path stroke="#a22c47" d="M39 7h1M32 8h1M40 8h1M33 10h1M43 10h1M42 12h1M41 14h1M30 17h1M40 17h1M29 18h1M40 18h1M43 18h1M29 19h1M42 19h1M28 20h1M32 20h1M41 20h2M25 21h2M28 21h1M31 21h1M39 21h3M25 22h3M29 22h2M37 22h4M25 23h2M30 23h3M34 23h1M36 23h3M41 23h4M25 24h1M30 24h2M33 24h1M35 24h1M39 24h8M31 25h2M34 25h1M37 25h7M31 26h2M35 26h7M44 26h5M35 27h13M35 28h5M41 28h5M48 28h1M50 28h1M52 28h1M36 29h3M41 29h9M51 29h1M36 30h2M41 30h8M50 30h2M41 31h8M41 32h2M79 36h1M81 37h1M71 40h4M71 41h3M75 41h1M77 41h1M70 42h5M76 42h1M78 42h3M27 43h1M71 43h5M77 43h1M79 43h5M26 44h1M73 44h11M75 45h10M77 46h8M79 47h6M77 48h2M80 48h6M77 49h3M81 49h5M77 50h4M82 50h4M78 51h4M83 51h3M78 52h4M83 52h3M78 53h4M84 53h2M78 54h4M84 54h2M79 55h3M85 55h1M79 56h3M85 56h1M79 57h3M79 58h2M79 59h2M79 60h1M77 61h3M77 62h2M77 63h1M68 64h1M68 65h2M67 66h5M67 67h5M67 68h4M67 69h4M67 70h3M26 71h1M68 71h2M26 72h1M68 72h1M25 73h2M68 73h1M25 74h3M29 74h1M25 75h3M29 75h1M25 76h4M25 77h5M25 78h7M25 79h6M26 80h5M26 81h4M57 81h1M27 82h3M25 83h5M51 83h1M55 83h2M27 84h3M52 84h5M27 85h1M53 85h4M55 86h1" />
<path stroke="#82533c" d="M25 13h1M24 14h2M75 14h1M23 15h1M25 15h1M74 15h1M22 16h1M25 16h1M72 16h2M21 17h1M25 17h1M69 17h3M80 17h1M19 18h2M63 18h6M79 18h1M17 19h2M60 19h3M78 19h1M16 20h1M58 20h2M76 20h2M15 21h1M57 21h1M74 21h2M14 22h1M28 22h1M56 22h1M73 22h1M14 23h1M17 23h1M27 23h1M29 23h1M56 23h1M72 23h1M13 24h1M16 24h1M18 24h1M27 24h1M29 24h1M55 24h1M13 25h1M16 25h1M18 25h1M27 25h1M30 25h1M55 25h1M13 26h1M16 26h1M19 26h1M27 26h1M30 26h1M54 26h1M13 27h1M16 27h1M19 27h1M30 27h1M54 27h1M13 28h1M16 28h1M20 28h1M26 28h1M30 28h1M40 28h1M53 28h1M11 29h1M13 29h1M16 29h1M20 29h1M26 29h1M30 29h1M39 29h2M53 29h1M11 30h3M16 30h1M18 30h1M22 30h1M26 30h1M30 30h1M38 30h1M40 30h1M52 30h1M11 31h1M13 31h1M16 31h1M21 31h1M23 31h1M25 31h1M27 31h1M30 31h1M37 31h1M40 31h1M51 31h1M11 32h1M14 32h1M16 32h1M21 32h1M23 32h1M25 32h1M30 32h1M36 32h1M40 32h1M49 32h1M11 33h1M15 33h1M17 33h1M20 33h1M23 33h2M30 33h1M35 33h1M40 33h1M44 33h1M11 34h1M17 34h1M20 34h1M23 34h1M28 34h1M30 34h1M39 34h1M43 34h1M47 34h2M11 35h1M17 35h1M19 35h1M29 35h1M39 35h1M43 35h4M12 36h1M16 36h1M19 36h1M28 36h1M38 36h1M41 36h3M16 37h1M28 37h1M38 37h1M68 37h2M16 38h1M27 38h1M37 38h1M16 39h1M37 39h1M17 40h1M36 40h1M51 40h1M14 41h1M18 41h1M36 41h2M49 41h1M51 41h1M16 42h3M35 42h1M37 42h1M50 42h2M16 43h1M22 43h1M37 43h1M51 43h1M14 44h2M20 44h3M37 44h1M51 44h1M12 45h1M14 45h1M18 45h3M51 45h1M12 46h1M36 46h1M50 46h1M11 47h1M29 47h1M36 47h1M50 47h1M11 48h1M30 48h1M50 48h1M65 48h1M10 49h1M31 49h1M49 49h1M10 50h1M30 50h1M41 50h1M49 50h1M10 51h1M20 51h1M29 51h1M48 51h1M9 52h1M21 52h1M27 52h1M47 52h1M9 53h1M13 53h3M22 53h1M26 53h1M46 53h1M9 54h1M14 54h1M19 54h1M45 54h1M8 55h1M13 55h1M44 55h1M8 56h1M13 56h1M44 56h8M8 57h1M12 57h1M50 57h1M8 58h1M12 58h1M49 58h1M12 59h1M48 59h1M12 60h1M47 60h1M12 61h1M46 61h1M45 62h1M35 66h1M33 69h1M31 70h1" />
<path stroke="#e4d398" d="M24 15h1M75 15h1M23 16h1M74 16h1M22 17h1M72 17h2M69 18h4M74 18h1M80 18h1M63 19h8M79 19h2M60 20h1M64 20h5M73 20h1M78 20h2M16 21h1M58 21h2M63 21h4M72 21h1M76 21h1M78 21h2M15 22h1M57 22h1M60 22h4M70 22h2M74 22h1M77 22h2M15 23h1M57 23h1M59 23h2M69 23h3M73 23h1M76 23h2M14 24h1M56 24h1M58 24h1M67 24h5M75 24h2M78 24h1M14 25h1M56 25h1M58 25h1M65 25h5M73 25h3M77 25h1M18 26h1M29 26h1M51 26h3M55 26h1M57 26h1M63 26h6M71 26h4M77 26h1M17 27h2M28 27h2M49 27h2M55 27h3M61 27h6M68 27h6M76 27h1M18 28h2M27 28h1M29 28h1M54 28h3M60 28h13M75 28h2M18 29h2M27 29h1M29 29h1M54 29h3M60 29h11M74 29h2M19 30h2M29 30h1M39 30h1M53 30h4M59 30h10M74 30h1M12 31h1M19 31h1M22 31h1M26 31h1M29 31h1M38 31h2M52 31h4M59 31h8M73 31h1M12 32h2M19 32h1M22 32h1M26 32h1M29 32h1M37 32h3M51 32h5M59 32h6M72 32h1M12 33h3M19 33h1M21 33h2M25 33h2M29 33h1M36 33h4M49 33h6M59 33h4M70 33h2M12 34h1M18 34h2M21 34h2M24 34h3M38 34h1M50 34h4M68 34h3M13 35h1M18 35h1M20 35h1M22 35h6M37 35h2M47 35h2M50 35h2M66 35h4M13 36h1M17 36h1M22 36h2M26 36h2M37 36h1M44 36h5M63 36h6M13 37h1M17 37h1M26 37h2M36 37h2M41 37h8M60 37h8M70 37h2M14 38h1M17 38h2M25 38h2M36 38h1M41 38h4M46 38h3M57 38h8M68 38h3M14 39h1M17 39h1M21 39h4M35 39h2M41 39h2M46 39h2M49 39h14M65 39h5M18 40h1M21 40h2M35 40h1M45 40h3M52 40h18M13 41h1M15 41h1M34 41h2M44 41h4M52 41h16M13 42h2M34 42h1M36 42h1M43 42h4M52 42h7M61 42h6M68 42h1M14 43h2M18 43h4M33 43h1M35 43h2M41 43h6M52 43h5M59 43h7M67 43h1M17 44h2M32 44h5M40 44h6M52 44h3M57 44h7M13 45h1M16 45h2M30 45h7M39 45h6M52 45h2M56 45h7M66 45h1M13 46h1M30 46h6M39 46h6M51 46h2M55 46h6M65 46h1M12 47h1M30 47h6M38 47h6M51 47h1M54 47h5M65 47h1M31 48h5M38 48h5M51 48h6M63 48h2M34 49h1M37 49h5M50 49h2M53 49h2M62 49h4M33 50h2M37 50h4M50 50h1M52 50h1M62 50h3M32 51h3M36 51h5M61 51h4M10 52h1M28 52h2M32 52h2M36 52h4M50 52h1M61 52h3M10 53h1M27 53h2M32 53h2M35 53h5M48 53h2M55 53h2M61 53h2M26 54h2M31 54h2M35 54h5M47 54h1M53 54h4M60 54h2M9 55h1M31 55h2M35 55h4M49 55h7M60 55h1M9 56h1M30 56h2M36 56h3M53 56h2M59 56h1M29 57h2M38 57h1M53 57h2M58 57h2M28 58h2M31 58h1M37 58h1M52 58h2M57 58h2M26 59h2M30 59h3M35 59h3M51 59h1M56 59h1M26 60h1M30 60h3M35 60h2M49 60h2M54 60h1M30 61h2M34 61h2M40 61h1M48 61h1M52 61h1M30 62h2M34 62h1M40 62h1M46 62h1M49 62h1M31 63h1M33 63h1M39 63h1M31 64h2M38 64h2M31 65h2M38 65h2M31 66h1M38 66h2M37 67h2M34 68h1M37 68h2M34 69h1M36 69h3M34 70h4M35 71h3M35 72h3M36 73h1M36 74h1M34 75h2M34 76h2M34 77h1M34 78h1" />
<path stroke="#c59965" d="M24 16h1M23 17h2M75 17h1M22 18h3M21 19h4M71 19h1M74 19h1M19 20h6M69 20h1M17 21h7M67 21h1M71 21h1M73 21h1M16 22h8M64 22h1M69 22h1M72 22h1M79 22h1M16 23h1M18 23h6M61 23h1M68 23h1M15 24h1M19 24h5M59 24h1M66 24h1M15 25h1M19 25h5M64 25h1M78 25h1M14 26h2M20 26h4M58 26h1M62 26h1M75 26h1M14 27h2M20 27h3M27 27h1M48 27h1M60 27h1M74 27h1M77 27h1M14 28h2M17 28h1M21 28h1M28 28h1M46 28h2M57 28h1M73 28h1M14 29h2M59 29h1M71 29h1M76 29h1M14 30h2M27 30h1M69 30h1M73 30h1M75 30h1M14 31h2M56 31h1M67 31h1M72 31h1M74 31h1M15 32h1M50 32h1M65 32h1M71 32h1M73 32h1M45 33h4M55 33h1M63 33h1M69 33h1M72 33h1M29 34h1M44 34h3M54 34h1M67 34h1M71 34h1M12 35h1M28 35h1M52 35h1M65 35h1M70 35h1M20 36h1M24 36h1M36 36h1M62 36h1M69 36h1M14 37h1M19 37h1M22 37h1M25 37h1M59 37h1M13 38h1M24 38h1M35 38h1M56 38h1M65 38h3M15 39h1M20 39h1M25 39h1M43 39h1M45 39h1M63 39h2M70 39h1M14 40h2M19 40h1M23 40h1M34 40h1M41 40h1M44 40h1M49 40h2M19 41h1M43 41h1M50 41h1M69 41h1M15 42h1M20 42h1M33 42h1M42 42h1M59 42h2M17 43h1M32 43h1M34 43h1M40 43h1M57 43h2M68 43h1M16 44h1M19 44h1M31 44h1M39 44h1M55 44h2M64 44h1M67 44h1M15 45h1M45 45h1M54 45h1M63 45h1M29 46h1M53 46h1M61 46h1M66 46h1M13 47h1M52 47h1M59 47h1M64 47h1M67 47h1M13 48h2M57 48h1M62 48h1M66 48h2M12 49h4M32 49h1M35 49h1M55 49h1M66 49h1M12 50h5M31 50h1M53 50h1M61 50h1M65 50h2M11 51h6M18 51h2M30 51h1M51 51h1M65 51h1M11 52h6M18 52h1M20 52h1M34 52h1M40 52h1M64 52h1M11 53h2M16 53h2M19 53h1M21 53h1M29 53h1M31 53h1M41 53h1M54 53h1M60 53h1M63 53h1M10 54h2M15 54h3M20 54h1M22 54h1M28 54h1M33 54h1M41 54h1M48 54h1M52 54h1M10 55h1M14 55h4M20 55h1M26 55h2M30 55h1M34 55h1M39 55h1M41 55h1M46 55h1M56 55h1M59 55h1M14 56h3M21 56h1M29 56h1M35 56h1M40 56h2M52 56h1M55 56h1M58 56h1M13 57h3M22 57h1M28 57h1M36 57h2M40 57h2M51 57h2M57 57h1M13 58h2M23 58h1M27 58h1M32 58h1M39 58h2M50 58h2M56 58h1M13 59h1M24 59h1M28 59h1M39 59h2M49 59h2M52 59h1M55 59h1M25 60h1M29 60h1M34 60h1M38 60h3M48 60h1M53 60h1M28 61h2M32 61h1M36 61h1M38 61h2M47 61h1M51 61h1M26 62h1M29 62h1M33 62h1M38 62h2M27 63h1M29 63h2M38 63h1M28 64h3M35 64h1M27 65h1M29 65h2M34 65h2M27 66h1M30 66h1M33 66h2M37 66h1M33 67h2M28 68h1M30 68h1M33 68h1M36 68h1M30 69h1M29 70h2M30 71h2M34 71h1M30 72h2M34 72h1M31 73h1M35 73h1M31 74h1M33 74h1M35 74h1M32 75h2M32 76h2M33 77h1M33 78h1" />
<path stroke="#ee51c2" d="M75 16h1M74 17h1M73 18h1M72 19h2M70 20h3M68 21h3M65 22h4M62 23h6M78 23h1M60 24h6M77 24h1M26 25h1M59 25h5M76 25h1M25 26h2M59 26h3M76 26h1M24 27h3M58 27h2M75 27h1M23 28h3M58 28h2M74 28h1M22 29h4M57 29h2M72 29h2M21 30h1M23 30h3M57 30h2M70 30h3M20 31h1M24 31h1M57 31h2M68 31h4M20 32h1M24 32h1M56 32h3M66 32h5M56 33h3M64 33h5M31 34h2M55 34h12M30 35h6M53 35h12M29 36h7M39 36h1M50 36h12M29 37h6M39 37h1M50 37h9M28 38h7M38 38h2M45 38h1M50 38h6M28 39h6M38 39h2M44 39h1M28 40h1M30 40h4M37 40h3M42 40h2M17 41h1M24 41h1M27 41h2M30 41h3M38 41h1M40 41h3M68 41h1M23 42h1M30 42h3M38 42h1M40 42h2M67 42h1M30 43h2M38 43h1M66 43h1M29 44h2M65 44h2M28 45h2M64 45h2M26 46h3M62 46h3M26 47h3M60 47h4M25 48h5M58 48h4M23 49h7M33 49h1M56 49h6M21 50h5M27 50h2M32 50h1M54 50h7M25 51h2M31 51h1M52 51h9M24 52h1M26 52h1M30 52h2M51 52h10M24 53h2M30 53h1M50 53h4M57 53h3M24 54h2M29 54h2M49 54h3M57 54h3M24 55h2M28 55h2M47 55h2M57 55h2M25 56h4M33 56h2M56 56h2M25 57h3M32 57h4M55 57h2M26 58h1M33 58h4M54 58h2M33 59h2M53 59h2M33 60h1M51 60h2M33 61h1M49 61h2M32 62h1M47 62h2M32 63h1M37 65h1M36 66h1M36 67h1M35 68h1M35 69h1M33 72h1M33 73h2M34 74h1" />
<path stroke="#f8f6d3" d="M21 18h1M19 19h2M17 20h2M61 20h3M60 21h3M77 21h1M58 22h2M75 22h2M28 23h1M58 23h1M74 23h2M17 24h1M28 24h1M57 24h1M72 24h3M17 25h1M28 25h2M57 25h1M70 25h3M17 26h1M28 26h1M56 26h1M69 26h2M67 27h1M18 39h1M20 40h1M20 41h1M19 42h1M55 45h1M54 46h1M53 47h1M12 48h1M11 49h1M52 49h1M11 50h1M51 50h1M49 51h2M48 52h2M47 53h1M46 54h1M62 54h1M45 55h1M61 55h1M60 56h1M35 62h1M34 63h1M33 64h1" />
<path stroke="#7b2e56" d="M26 24h1M25 25h1M24 26h1M34 27h1M34 28h1M35 29h1M35 30h1M36 31h1M16 33h1M31 33h2M13 34h3M33 34h4M70 44h1M48 45h1M48 46h1M71 46h1M48 47h1M72 47h1M76 47h1M47 48h1M76 48h1M47 49h1M68 49h1M76 49h1M47 50h1M68 50h1M76 50h1M23 51h2M47 51h1M69 51h1M77 51h1M23 52h1M25 52h1M69 52h1M75 52h1M77 52h1M23 53h1M69 53h1M75 53h1M77 53h1M23 54h1M70 54h1M75 54h1M77 54h1M23 55h1M70 55h1M74 55h1M78 55h1M24 56h1M71 56h1M74 56h1M78 56h1M24 57h1M71 57h1M74 57h1M78 57h1M25 58h1M44 58h2M72 58h1M74 58h1M78 58h1M25 59h1M46 59h2M72 59h1M74 59h1M76 59h1M78 59h1M73 60h1M77 60h2M55 62h1M56 63h1" />
<path stroke="#ae3695" d="M23 27h1M33 27h1M22 28h1M31 28h3M21 29h1M31 29h4M31 30h4M31 31h5M31 32h5M33 33h2M43 33h1M16 34h1M37 34h1M41 34h2M14 35h3M36 35h1M41 35h2M14 36h2M15 37h1M35 37h1M15 38h1M34 39h1M16 40h1M27 40h1M29 40h1M33 41h1M22 42h1M27 42h1M48 42h2M29 43h1M48 43h3M47 44h4M69 44h1M37 45h1M47 45h1M49 45h2M68 45h3M37 46h1M46 46h2M49 46h1M69 46h2M73 46h2M45 47h3M49 47h1M69 47h3M73 47h3M36 48h1M44 48h3M48 48h2M69 48h7M30 49h1M43 49h4M48 49h1M69 49h7M26 50h1M29 50h1M35 50h1M43 50h4M48 50h1M69 50h7M21 51h2M27 51h2M43 51h4M70 51h7M19 52h1M22 52h1M43 52h4M70 52h5M76 52h1M20 53h1M43 53h3M70 53h5M76 53h1M21 54h1M43 54h2M71 54h4M76 54h1M21 55h2M43 55h1M71 55h3M76 55h2M22 56h2M43 56h1M72 56h2M76 56h2M23 57h1M43 57h4M72 57h2M76 57h2M24 58h1M42 58h2M46 58h2M73 58h1M76 58h2M42 59h4M73 59h1M77 59h1M42 60h5M27 61h1M42 61h4M55 61h2M27 62h2M37 62h1M42 62h3M56 62h1M28 63h1M36 63h2M41 63h3M36 64h2M41 64h1M36 65h1M28 66h1M28 67h2M32 67h1M35 67h1M29 68h1M31 68h2M29 69h1M31 69h2M32 70h2M32 71h2M32 72h1M32 73h1M32 74h1" />
<path stroke="#34313e" d="M26 39h2M24 40h3M16 41h1M21 41h2M26 41h1M29 41h1M21 42h1M25 42h2M28 42h2M23 43h4M28 43h1M24 44h1M27 44h2M25 45h3M23 46h1M25 46h1M23 47h3M21 48h2M18 49h3M44 77h1M43 78h1M45 78h1M44 79h1M46 79h2M70 79h1M69 80h1M71 80h1M70 81h1M72 81h2M21 84h1M23 84h1M20 85h1M22 85h2M25 85h1M21 86h2M24 86h2M51 88h2M49 89h1M51 89h2M54 89h1M49 90h1M51 90h1M53 90h1M51 91h1" />
<path stroke="#fdfdfd" d="M25 41h1M24 42h1" />
<path stroke="#c2c3cf" d="M23 44h1M21 45h1M23 45h2M18 46h4M17 47h5M17 48h3M65 55h2M65 56h5M48 57h2M65 57h6M66 58h6M66 59h6M67 60h6M74 60h1M68 61h7M53 62h2M57 62h2M70 62h4M52 63h4M57 63h3M53 64h7M53 65h6M53 66h6M54 67h4M54 68h4M54 69h4M55 70h2M55 71h2M55 72h2M55 73h2M55 74h2M55 75h2M55 76h1" />
<path stroke="#8887a8" d="M22 45h1M71 45h2M22 46h1M24 46h1M72 46h1M22 47h1M16 48h1M20 48h1M67 51h2M66 52h3M65 53h4M65 54h5M67 55h3M75 55h1M70 56h1M75 56h1M75 57h1M75 58h1M75 59h1M57 60h2M75 60h1M57 61h3M67 61h1M75 61h1M59 62h1M68 62h2M74 62h2M69 63h7M52 64h1M70 64h7M72 65h5M50 66h1M73 66h5M50 67h1M53 67h1M73 67h5M50 68h1M74 68h4M49 69h3M74 69h3M49 70h3M54 70h1M74 70h3M49 71h3M74 71h3M49 72h3M74 72h3M48 73h1M51 73h1M74 73h3M48 74h1M74 74h2M30 75h1M47 75h2M74 75h2M30 76h1M46 76h3M56 76h1M74 76h2M47 77h2M55 77h2M73 77h3M48 78h1M55 78h1M72 78h4M73 79h3M74 80h2" />
</svg>