<svg xmlns="http://www.w3.org/2000/svg" viewBox="0 -0.5 96 96" shape-rendering="crispEdges">
<metadata>Made with Pixels to Svg https://codepen.io/shshaw/pen/XbxvNj</metadata>
<path stroke="#f8fc4b" d="M37 1h3M37 2h1M40 2h3M37 3h1M43 3h3M36 4h1M46 4h3M36 5h1M49 5h3M35 6h1M52 6h3M35 7h1M54 7h1M35 8h1M53 8h1M34 9h1M53 9h1M34 10h1M52 10h1M33 11h1M52 11h1M33 12h1M51 12h1M33 13h1M51 13h1M32 14h1M50 14h1M32 15h1M50 15h1M31 16h1M49 16h1M31 17h1M49 17h1M31 18h1M48 18h1M30 19h1M48 19h1M30 20h1M47 20h1M29 21h1M47 21h1M29 22h1M46 22h1M29 23h1M46 23h1M28 24h1M45 24h1M28 25h1M45 25h1M28 26h1M44 26h1M49 26h6M27 27h1M43 27h6M27 28h1M26 29h1M26 30h5M31 31h8M39 32h5M62 33h1M62 34h1M62 35h1M62 36h1M62 37h1M58 38h1M62 38h1M58 39h1M62 39h1M58 40h1M63 40h1M58 41h1M63 41h1M59 42h1M63 42h1M59 43h1M63 43h1M59 44h1M63 44h1M59 45h1M63 45h1M73 45h3M59 46h1M63 46h1M67 46h6M75 46h1M59 47h1M63 47h4M75 47h1M59 48h1M74 48h1M60 49h1M74 49h1M60 50h1M68 50h3M74 50h1M60 51h1M63 51h5M70 51h1M74 51h1M60 52h3M70 52h1M73 52h1M69 53h1M73 53h1M69 54h1M73 54h1M69 55h1M73 55h1M69 56h1M72 56h1M69 57h1M72 57h3M68 58h1M75 58h3M68 59h1M78 59h3M68 60h3M81 60h3M71 61h4M83 61h1M75 62h3M82 62h1M76 63h1M81 63h1M75 64h1M80 64h1M75 65h1M79 65h1M74 66h1M78 66h1M73 67h1M77 67h1M73 68h1M76 68h1M72 69h1M75 69h2M73 70h1M77 70h1M74 71h1M78 71h1M75 72h1M79 72h1M76 73h1M80 73h1M77 74h1M81 74h1M74 75h5M82 75h1M69 76h5M83 76h1M69 77h1M84 77h1M69 78h1M79 78h6M69 79h1M72 79h7M68 80h1M72 80h1M68 81h1M72 81h1M65 82h2M68 82h1M72 82h1M67 83h2M72 83h1M72 84h1M71 85h1M63 86h2M71 86h1M65 87h4M71 87h1M69 88h3" />
<path stroke="#ffe683" d="M38 2h2M38 3h1M41 3h2M37 4h1M44 4h2M37 5h1M47 5h2M36 6h1M49 6h3M36 7h1M51 7h3M52 8h1M35 9h1M52 9h1M51 10h1M34 11h1M51 11h1M34 12h1M50 12h1M50 13h1M33 14h1M49 14h1M49 15h1M32 16h1M48 16h1M32 17h1M48 17h1M47 18h1M31 19h1M47 19h1M46 20h1M30 21h1M46 21h1M30 22h1M45 22h1M45 23h1M29 24h1M44 24h1M29 25h1M43 25h2M43 26h1M28 27h1M49 27h3M27 29h5M31 30h9M39 31h6M28 36h7M26 37h10M59 37h1M24 38h12M59 38h1M23 39h12M59 39h1M23 40h10M59 40h1M24 41h6M59 41h1M60 44h1M60 45h1M60 46h1M73 46h2M60 47h1M67 47h4M74 47h1M60 48h1M63 48h3M73 49h1M64 50h4M73 50h1M61 51h2M73 51h1M70 53h1M70 54h1M72 54h1M72 55h1M74 58h1M69 59h3M77 59h1M71 60h3M80 60h1M75 61h2M82 61h1M77 63h1M76 64h1M75 66h1M74 67h1M76 70h1M77 71h1M78 72h1M79 73h1M80 74h1M81 75h1M74 76h2M82 76h1M81 77h3M76 78h3M69 80h1M69 81h1M69 82h1M71 82h1M65 83h2M71 83h1M71 84h1M64 85h2M65 86h4M69 87h2" />
<path stroke="#fefefe" d="M39 3h2M38 4h6M38 5h9M37 6h12M37 7h14M36 8h16M36 9h16M35 10h16M35 11h16M35 12h15M34 13h16M34 14h15M33 15h16M33 16h15M33 17h15M32 18h15M32 19h15M31 20h15M31 21h15M31 22h14M30 23h15M30 24h14M30 25h13M29 26h14M29 27h14M28 28h22M32 29h16M40 30h7M61 35h1M60 36h2M60 37h2M60 38h2M60 39h2M60 40h3M60 41h3M60 42h3M37 43h1M60 43h3M36 44h3M61 44h2M20 45h1M37 45h1M61 45h2M19 46h2M61 46h2M20 47h1M61 47h2M71 47h3M61 48h2M66 48h8M61 49h12M61 50h3M71 50h2M71 51h2M71 52h2M71 53h2M71 54h1M70 55h2M70 56h2M70 57h2M69 58h5M72 59h5M74 60h6M77 61h5M78 62h4M78 63h3M77 64h3M76 65h3M76 66h2M75 67h2M74 68h2M73 69h2M74 70h2M75 71h2M76 72h2M77 73h2M78 74h2M79 75h2M76 76h6M70 77h11M70 78h6M70 79h2M70 80h2M70 81h2M70 82h1M69 83h2M64 84h7M66 85h5M69 86h2" />
<path stroke="#101010" d="M11 24h2M64 24h1M11 25h1M13 25h2M64 25h1M11 26h1M15 26h2M64 26h1M11 27h1M17 27h1M64 27h1M11 28h1M63 28h1M11 29h1M63 29h1M11 30h1M63 30h1M11 31h1M62 31h1M12 32h1M62 32h1M12 33h1M61 33h1M12 34h1M61 34h1M60 35h1M59 36h1M58 37h1M57 38h1M56 39h1M55 40h1M54 41h1M37 42h2M53 42h1M19 44h2M35 44h1M40 44h1M54 44h1M18 45h1M35 45h1M40 45h1M17 46h1M55 46h1M17 47h1M21 47h1M37 47h2M20 48h1M56 48h1M19 49h2M56 49h1M57 51h1M57 52h1M57 53h1M58 55h1M15 56h1M58 56h1M16 57h1M16 58h1M59 58h1M17 59h1M59 59h1M18 60h1M60 60h1M18 61h1M61 61h1M61 62h1M17 63h1M62 63h1M17 64h1M62 64h1M63 65h1M63 66h1M64 67h1M16 68h1M64 68h1M16 69h1M16 70h1M65 70h1M16 71h1M65 71h1M16 72h1M65 72h1M16 73h1M65 73h1M15 74h1M18 74h1M65 74h1M15 75h1M19 75h1M65 75h1M14 76h1M20 76h1M65 76h1M14 77h1M65 77h1M14 78h1M65 78h1M14 79h1M65 79h1M14 80h1M65 80h1M15 82h1M64 82h1M15 83h1M64 83h1M63 84h1M16 85h1M63 85h1M17 86h1M45 86h1M62 86h1M18 87h1M30 87h17M61 87h1M19 88h1M28 88h1M47 88h1M59 88h2M27 89h1M49 89h1M59 89h1M25 90h1M50 90h1M59 90h1M24 91h1M50 91h1M59 91h1M17 92h6M51 93h1M53 94h7" />
<path stroke="#292929" d="M61 24h3M12 25h1M58 25h3M12 26h3M55 26h3M12 27h5M12 28h6M12 29h5M12 30h4M12 31h4M13 32h2M13 33h2M13 34h1M39 43h1M39 44h1M18 46h1M36 46h2M19 48h1" />
<path stroke="#52525a" d="M61 25h3M58 26h6M56 27h8M57 28h6M17 29h1M57 29h6M16 30h1M58 30h5M58 31h4M15 32h1M59 32h3M59 33h2M14 34h1M59 34h2" />
<path stroke="#b43100" d="M52 27h3M50 28h2M48 29h2M47 30h1M45 31h2M44 32h1M43 33h1M28 35h13M25 36h2M23 37h1M53 41h1M18 42h1M52 42h1M17 44h1M16 46h1M15 49h1M26 49h2M26 53h3M34 53h1M23 54h2M31 54h2M18 62h1M45 62h2M20 63h2M43 63h1M18 64h1M41 64h1M17 65h1M40 65h1M17 66h1M25 66h1M38 66h2M53 66h1M16 67h1M25 67h1M36 67h2M53 67h1M26 68h1M35 68h1M53 68h1M26 69h1M34 69h1M52 69h1M27 70h1M34 70h1M17 71h1M27 71h1M34 71h1M17 72h1M27 72h1M34 72h1M47 72h1M18 73h1M27 73h1M35 73h1M44 73h1M26 74h1M35 74h3M41 74h3M23 75h1M26 75h1M37 75h4M21 76h2M24 76h2M23 83h1M24 84h1M25 85h2M45 85h1M27 86h3M20 88h2M50 89h1M58 89h1M19 90h1M19 91h1M56 92h1M56 93h2" />
<path stroke="#737383" d="M55 27h1M56 28h1M57 30h1M58 32h1M59 35h1" />
<path stroke="#731000" d="M18 28h1M19 29h1M20 30h1M21 31h1M22 32h1M23 33h1M23 34h1M13 35h1M24 35h1M13 36h1M14 37h1M14 38h1M15 39h1M16 40h1M17 41h1M17 42h1M36 42h1M39 42h1M17 43h1M35 43h1M40 43h1M53 43h1M16 45h1M54 45h1M35 46h1M40 46h1M15 47h1M36 47h1M39 47h1M55 47h1M15 48h1M17 48h1M21 48h1M18 49h1M14 50h1M56 50h1M14 51h1M14 52h1M14 53h1M15 54h1M57 54h1M15 55h1M58 57h1M64 69h1M52 70h1M51 71h1M48 72h3M45 73h2M15 81h1M64 81h1M16 84h1M29 87h1M48 88h1M17 89h3M26 89h1M16 90h1M16 91h1M23 91h1M51 92h1M60 92h1M52 93h1M60 93h1" />
<path stroke="#ffc531" d="M52 28h4M50 29h7M49 30h8M47 31h11M46 32h12M44 33h15M43 34h16M42 35h17M35 36h5M41 36h17M25 37h1M36 37h21M23 38h1M36 38h20M22 39h1M35 39h20M21 40h2M33 40h21M20 41h4M30 41h22M19 42h16M41 42h10M18 43h17M41 43h8M22 44h13M41 44h6M22 45h13M41 45h8M22 46h13M41 46h10M16 47h1M22 47h13M41 47h12M16 48h1M22 48h32M16 49h1M22 49h4M29 49h26M15 50h30M49 50h7M15 51h29M50 51h7M17 52h18M36 52h7M51 52h6M19 53h3M23 53h2M30 53h3M35 53h8M51 53h6M19 54h4M26 54h4M34 54h9M51 54h6M20 55h23M51 55h7M20 56h24M50 56h8M20 57h23M50 57h8M20 58h20M49 58h10M22 59h15M49 59h10M48 60h11M47 61h11M50 62h7M45 63h5M51 63h8M19 64h4M43 64h17M18 65h6M41 65h19M18 66h7M40 66h13M54 66h7M17 67h8M38 67h15M54 67h7M17 68h9M27 68h1M36 68h16M54 68h7M17 69h9M27 69h3M35 69h16M53 69h9M17 70h10M28 70h6M35 70h2M38 70h12M53 70h9M18 71h9M28 71h6M35 71h1M37 71h11M52 71h10M18 72h7M26 72h1M28 72h6M36 72h3M40 72h6M51 72h11M19 73h3M23 73h2M28 73h7M36 73h2M39 73h5M47 73h15M19 74h3M24 74h2M27 74h8M38 74h3M44 74h18M20 75h3M24 75h2M27 75h10M41 75h21M23 76h1M26 76h19M46 76h16M20 77h25M46 77h16M20 78h24M46 78h16M21 79h23M45 79h16M21 80h23M45 80h14M60 80h1M22 81h22M45 81h11M57 81h1M59 81h1M23 82h20M46 82h7M54 82h1M56 82h1M58 82h1M60 82h1M24 83h17M55 83h1M57 83h1M26 84h12M17 90h2M20 90h3M17 91h2M20 91h3M53 91h3M57 91h1M52 92h4M57 92h3M53 93h3M58 93h2" />
<path stroke="#ffa400" d="M18 29h1M17 30h3M48 30h1M16 31h5M16 32h6M45 32h1M15 33h8M15 34h8M14 35h10M14 36h11M58 36h1M15 37h8M57 37h1M15 38h7M56 38h1M16 39h5M55 39h1M17 40h4M54 40h1M18 41h2M52 41h1M35 42h1M40 42h1M51 42h1M49 43h4M18 44h1M21 44h1M47 44h7M17 45h1M21 45h1M49 45h5M21 46h1M51 46h4M35 47h1M40 47h1M53 47h2M54 48h2M17 49h1M21 49h1M55 49h1M18 53h1M19 55h1M43 57h2M49 57h1M40 58h9M19 59h3M37 59h12M19 60h29M59 60h1M19 61h28M58 61h3M19 62h25M57 62h4M18 63h2M23 63h19M50 63h1M59 63h3M23 64h18M60 64h2M25 65h15M60 65h3M26 66h12M61 66h2M26 67h10M61 67h3M28 68h7M52 68h1M61 68h3M30 69h4M51 69h1M62 69h2M37 70h1M50 70h2M62 70h3M48 71h3M62 71h3M39 72h1M46 72h1M62 72h3M17 73h1M25 73h2M62 73h3M16 74h2M22 74h2M62 74h3M16 75h3M62 75h3M15 76h5M62 76h3M15 77h5M62 77h3M15 78h5M62 78h3M15 79h6M61 79h4M15 80h6M59 80h1M61 80h4M16 81h6M56 81h1M58 81h1M60 81h4M16 82h7M43 82h1M45 82h1M53 82h1M55 82h1M57 82h1M59 82h1M61 82h3M16 83h7M41 83h3M45 83h10M56 83h1M58 83h6M17 84h7M25 84h1M38 84h6M46 84h17M18 85h7M27 85h18M46 85h17M20 86h5M30 86h15M47 86h15M48 87h12M50 88h7M53 90h5M51 91h2M56 91h1M58 91h1" />
<path stroke="#e68300" d="M42 34h1M41 35h1M27 36h1M40 36h1M24 37h1M22 38h1M21 39h1M28 49h1M35 52h1M22 53h1M25 53h1M29 53h1M33 53h1M25 54h1M30 54h1M33 54h1M44 62h1M47 62h3M22 63h1M42 63h1M44 63h1M42 64h1M24 65h1M36 71h1M25 72h1M35 72h1M22 73h1M38 73h1M45 76h1M45 77h1M44 78h2M44 79h1M44 80h1M44 81h1M44 82h1M44 83h1M44 84h2M17 85h1M18 86h2M25 86h2M46 86h1M19 87h10M47 87h1M60 87h1M22 88h6M49 88h1M57 88h2M20 89h6M51 89h7M23 90h2M51 90h2M58 90h1" />
<path stroke="#61616d" d="M36 43h1M38 43h1M19 45h1M36 45h1M38 45h2M38 46h2M18 47h2M18 48h1" />
<path stroke="#e66241" d="M45 50h4M44 51h5M15 52h2M43 52h4M15 53h3M17 54h2M18 55h1" />
<path stroke="#c52918" d="M49 51h1M47 52h4M43 53h8M16 54h1M43 54h8M16 55h2M43 55h8M16 56h4M44 56h6M17 57h3M45 57h4M17 58h3M18 59h1" />
</svg>