<svg xmlns="http://www.w3.org/2000/svg" viewBox="0 -0.5 96 96" shape-rendering="crispEdges">
<metadata>Made with Pixels to Svg https://codepen.io/shshaw/pen/XbxvNj</metadata>
<path stroke="#d69d47" d="M24 3h1M23 4h1M23 5h1M10 6h1M23 6h1M9 7h1M22 7h1M41 7h10M9 8h1M22 8h1M39 8h2M51 8h2M9 9h1M22 9h1M36 9h1M9 10h1M22 10h1M9 11h1M21 11h1M9 12h1M21 12h1M9 13h1M21 13h1M9 14h1M21 14h1M10 15h1M21 15h1M10 16h1M21 16h1M24 16h2M10 17h1M21 17h1M24 17h3M10 18h1M21 18h1M24 18h3M10 19h1M21 19h1M11 20h1M24 20h2M11 21h1M22 21h1M25 21h1M43 21h5M11 22h1M29 22h1M32 22h1M39 22h7M48 22h3M23 23h1M39 23h6M48 23h5M24 24h1M34 24h1M39 24h5M47 24h7M24 25h1M39 25h4M47 25h8M24 26h1M36 26h3M40 26h2M46 26h3M54 26h1M13 27h2M37 27h3M47 27h1M55 27h1M12 28h1M14 28h1M37 28h3M12 29h1M14 29h2M36 29h2M49 29h1M12 30h1M15 30h1M35 30h1M40 30h1M8 31h1M38 31h1M69 31h1M2 32h2M8 32h2M36 32h1M45 32h1M54 32h1M69 32h1M4 33h2M9 33h2M42 33h2M69 33h1M10 34h1M12 34h1M34 34h1M38 34h2M52 34h1M69 34h1M12 35h1M33 35h1M50 35h1M69 35h1M8 36h3M12 36h1M25 36h2M31 36h2M48 36h1M69 36h1M10 37h1M13 37h1M27 37h4M37 37h1M69 37h1M9 38h1M14 38h1M18 38h2M39 38h2M69 38h1M8 39h4M15 39h3M33 39h1M69 39h1M7 40h6M22 40h1M29 40h1M33 40h1M35 40h1M69 40h1M7 41h7M22 41h7M35 41h2M38 41h1M42 41h1M69 41h1M6 42h8M20 42h9M38 42h3M69 42h1M7 43h6M17 43h1M21 43h7M69 43h1M7 44h5M68 44h2M8 45h3M68 45h2M8 46h3M68 46h2M8 47h2M68 47h1M9 48h1M68 48h1M9 49h1M68 49h1M67 50h2M67 51h2M67 52h1M67 53h1M67 54h1M66 55h2M66 56h2M66 57h1M66 58h1M9 59h1M17 59h2M46 59h1M65 59h2M17 60h1M65 60h2M10 61h1M17 61h1M45 61h1M64 61h4M63 62h5M41 63h1M66 63h3M22 64h1M37 64h3M68 64h1M14 65h1M21 65h1M35 65h2M56 65h1M69 65h1M34 66h1M56 66h1M87 67h1M17 68h1M33 68h1M45 68h1M86 68h3M24 69h1M51 69h4M56 69h1M85 69h5M22 70h1M46 70h2M54 70h1M56 70h2M84 70h6M21 71h2M43 71h3M56 71h3M82 71h8M12 72h1M19 72h3M33 72h1M39 72h6M57 72h4M71 72h1M73 72h2M79 72h10M15 73h5M33 73h11M58 73h5M70 73h1M72 73h16M34 74h10M58 74h13M72 74h14M34 75h10M59 75h12M72 75h12M35 76h10M59 76h11M75 76h6M36 77h9M59 77h11M37 78h8M59 78h11M38 79h8M59 79h10M39 80h7M58 80h11M40 81h6M58 81h3M66 81h2M44 82h3M57 82h2M40 83h1M45 83h2M57 83h3M68 83h1M44 84h3M56 84h3M42 85h5M56 85h2M42 86h4M56 86h1M42 87h1M56 87h1" />
<path stroke="#9c4609" d="M25 3h1M25 4h1M25 5h1M25 6h1M11 7h1M24 7h1M11 8h1M24 8h1M37 8h2M53 8h2M11 9h1M24 9h1M34 9h2M55 9h3M11 10h1M24 10h1M32 10h2M58 10h2M11 11h1M24 11h1M30 11h2M60 11h1M11 12h1M23 12h1M28 12h2M61 12h1M11 13h1M23 13h1M26 13h2M33 13h1M62 13h1M11 14h1M23 14h1M25 14h1M31 14h1M36 14h1M63 14h1M12 15h1M23 15h2M64 15h1M12 16h1M23 16h1M37 16h1M65 16h1M12 17h1M23 17h1M33 17h1M65 17h1M12 18h1M23 18h1M27 18h1M35 18h1M38 18h1M66 18h1M12 19h1M23 19h1M26 19h1M66 19h1M12 20h1M23 20h1M30 20h1M43 20h5M67 20h1M24 21h1M41 21h2M48 21h3M67 21h1M24 22h1M26 22h1M35 22h1M46 22h1M51 22h2M68 22h1M10 23h2M24 23h1M34 23h1M45 23h1M53 23h1M68 23h1M11 24h1M25 24h1M44 24h1M54 24h1M68 24h1M11 25h1M25 25h1M35 25h1M38 25h1M43 25h1M55 25h1M68 25h1M4 26h2M9 26h1M12 26h1M39 26h1M42 26h1M55 26h1M4 27h1M6 27h1M12 27h1M40 27h2M45 27h2M56 27h1M4 28h1M6 28h1M10 28h1M13 28h1M40 28h1M47 28h1M56 28h1M5 29h1M7 29h1M11 29h1M13 29h1M28 29h3M38 29h2M48 29h1M56 29h1M5 30h1M8 30h1M14 30h1M27 30h1M31 30h2M36 30h2M47 30h1M56 30h1M69 30h1M6 31h1M9 31h1M11 31h1M26 31h1M33 31h1M45 31h2M55 31h1M10 32h2M14 32h2M26 32h1M34 32h1M42 32h3M1 33h1M11 33h1M13 33h1M16 33h1M25 33h1M34 33h1M36 33h6M6 34h2M11 34h1M17 34h1M25 34h1M8 35h2M11 35h1M18 35h1M25 35h1M38 35h2M18 36h1M19 37h1M33 37h1M36 37h1M47 37h1M50 37h1M8 38h1M10 38h2M32 38h1M35 38h1M46 38h1M50 38h1M7 39h1M32 39h1M34 39h1M38 39h1M50 39h1M6 40h1M23 40h6M34 40h1M37 40h1M50 40h1M6 41h1M20 41h2M29 41h4M34 41h1M37 41h1M50 41h1M5 42h1M14 42h1M17 42h3M29 42h1M31 42h1M37 42h1M50 42h1M5 43h1M16 43h1M30 43h1M50 43h1M4 44h1M12 44h1M18 44h1M49 44h1M4 45h1M11 45h1M49 45h1M4 46h1M11 46h1M49 46h1M3 47h1M10 47h1M49 47h1M69 47h1M3 48h1M10 48h1M49 48h1M3 49h1M10 49h1M48 49h1M2 50h1M9 50h1M48 50h1M2 51h1M9 51h1M48 51h1M2 52h1M9 52h1M48 52h1M68 52h1M2 53h1M9 53h1M47 53h1M2 54h1M9 54h1M47 54h1M2 55h1M9 55h1M47 55h1M2 56h1M9 56h1M46 56h1M2 57h1M9 57h1M46 57h1M3 58h1M9 58h1M46 58h1M86 58h1M3 59h1M10 59h1M45 59h1M86 59h1M3 60h1M10 60h1M19 60h1M45 60h1M87 60h1M3 61h1M11 61h1M20 61h1M44 61h1M87 61h1M11 62h1M16 62h3M20 62h1M42 62h2M87 62h1M12 63h1M15 63h1M19 63h2M40 63h1M69 63h1M87 63h1M13 64h2M23 64h1M69 64h1M87 64h1M23 65h1M70 65h1M87 65h1M23 66h1M70 66h1M86 66h1M23 67h1M33 67h1M55 67h1M71 67h1M86 67h1M18 68h1M55 68h1M71 68h1M85 68h1M25 69h1M32 69h1M46 69h3M55 69h1M72 69h1M84 69h1M25 70h1M32 70h1M55 70h1M82 70h2M20 71h1M25 71h1M32 71h1M73 71h2M79 71h3M23 72h2M32 72h1M75 72h4M32 73h1M84 75h1M81 76h1M37 79h1M38 80h1M39 81h1M39 82h2M56 82h1" />
<path stroke="#fbecba" d="M24 4h1M24 5h1M24 6h1M10 7h1M23 7h1M10 8h1M23 8h1M41 8h10M10 9h1M23 9h1M37 9h18M10 10h1M23 10h1M35 10h23M10 11h1M38 11h9M56 11h3M10 12h1M41 12h3M22 36h3M20 37h7M20 38h1M42 63h1M40 64h2M38 65h2M36 66h3M35 67h2M34 68h2M34 69h1" />
<path stroke="#f8cd8d" d="M34 10h1M22 11h2M32 11h6M47 11h9M59 11h1M22 12h1M30 12h11M44 12h17M10 13h1M22 13h1M28 13h5M36 13h26M10 14h1M22 14h1M26 14h5M37 14h26M11 15h1M22 15h1M25 15h5M37 15h27M11 16h1M22 16h1M26 16h3M38 16h27M11 17h1M22 17h1M27 17h1M38 17h27M11 18h1M22 18h1M39 18h27M11 19h1M22 19h1M39 19h27M22 20h1M39 20h4M48 20h19M23 21h1M39 21h2M51 21h16M23 22h1M25 22h1M30 22h2M53 22h15M12 23h1M25 23h9M46 23h1M54 23h14M12 24h1M26 24h8M45 24h1M55 24h13M12 25h2M26 25h9M44 25h2M56 25h12M13 26h1M25 26h11M43 26h2M49 26h5M56 26h13M5 27h1M25 27h12M42 27h2M48 27h7M57 27h12M5 28h1M25 28h12M41 28h2M48 28h8M57 28h12M6 29h1M25 29h3M31 29h5M40 29h2M50 29h6M57 29h12M6 30h2M13 30h1M25 30h2M33 30h2M38 30h2M49 30h7M57 30h12M7 31h1M12 31h5M24 31h2M34 31h4M48 31h7M56 31h13M12 32h2M16 32h2M22 32h4M35 32h1M47 32h7M56 32h13M2 33h2M12 33h1M17 33h8M35 33h1M46 33h8M55 33h14M4 34h2M18 34h7M35 34h3M44 34h8M54 34h15M6 35h2M19 35h6M34 35h2M40 35h10M53 35h16M19 36h3M33 36h1M36 36h12M51 36h18M12 37h1M31 37h2M34 37h2M38 37h9M51 37h18M13 38h1M21 38h11M33 38h2M36 38h3M41 38h5M51 38h18M13 39h2M18 39h14M35 39h3M39 39h6M51 39h18M14 40h8M30 40h2M36 40h1M38 40h6M51 40h18M15 41h5M39 41h3M51 41h18M16 42h1M51 42h18M6 43h1M51 43h18M5 44h2M50 44h18M5 45h3M50 45h18M5 46h3M50 46h18M4 47h4M50 47h18M4 48h5M50 48h18M4 49h5M49 49h19M3 50h6M49 50h18M3 51h6M49 51h18M3 52h6M49 52h18M3 53h6M48 53h19M3 54h6M48 54h19M3 55h6M48 55h18M3 56h6M47 56h19M3 57h6M47 57h19M4 58h5M47 58h19M4 59h5M47 59h18M4 60h6M46 60h19M4 61h6M46 61h18M5 62h6M44 62h19M5 63h7M16 63h3M43 63h23M5 64h8M15 64h5M42 64h26M6 65h8M15 65h5M37 65h1M40 65h16M57 65h12M6 66h14M35 66h1M39 66h17M57 66h13M7 67h12M20 67h1M34 67h1M37 67h18M56 67h15M7 68h10M19 68h3M36 68h9M46 68h9M56 68h15M8 69h14M33 69h1M35 69h11M49 69h2M57 69h15M9 70h12M33 70h13M58 70h14M10 71h10M33 71h10M59 71h13M13 72h6M34 72h5M61 72h10M63 73h7M61 81h5M41 82h3M59 82h9M41 83h4M60 83h2M66 83h2M41 84h3M41 85h1" />
<path stroke="#101010" d="M34 13h2M32 14h4M30 15h7M29 16h8M28 17h5M35 17h3M28 18h4M36 18h2M24 19h2M27 19h4M36 19h3M7 20h3M26 20h4M36 20h3M6 21h5M16 21h1M26 21h4M36 21h3M6 22h5M17 22h1M27 22h2M36 22h3M47 22h1M6 23h3M15 23h1M35 23h4M47 23h1M6 24h3M15 24h2M18 24h1M20 24h1M35 24h4M46 24h1M7 25h2M17 25h3M36 25h2M46 25h1M7 26h2M17 26h2M45 26h1M69 26h1M8 27h2M15 27h3M19 27h1M44 27h1M69 27h1M8 28h2M16 28h1M19 28h1M22 28h1M43 28h1M69 28h1M9 29h2M20 29h2M42 29h1M69 29h1M9 30h3M20 30h1M41 30h1M48 30h1M10 31h1M39 31h2M47 31h1M70 31h1M7 32h1M37 32h2M46 32h1M55 32h1M70 32h1M8 33h1M44 33h2M54 33h1M70 33h1M2 34h2M9 34h1M40 34h4M53 34h1M70 34h1M4 35h2M10 35h1M36 35h2M51 35h2M70 35h1M6 36h2M11 36h1M34 36h2M49 36h2M70 36h1M8 37h2M11 37h1M48 37h1M70 37h1M12 38h1M70 38h1M12 39h1M45 39h1M70 39h1M13 40h1M32 40h1M44 40h1M70 40h1M14 41h1M33 41h1M43 41h1M70 41h1M15 42h1M35 42h2M41 42h2M70 42h1M13 43h1M19 43h2M28 43h2M38 43h3M70 43h1M21 44h7M70 44h1M70 45h1M70 46h1M69 48h1M69 49h1M69 50h1M69 51h1M91 52h1M68 53h1M86 53h1M91 53h1M68 54h1M76 54h1M86 54h1M92 54h1M68 55h1M77 55h1M85 55h1M92 55h1M68 56h1M78 56h1M84 56h1M92 56h1M67 57h1M80 57h3M93 57h1M67 58h1M93 58h1M67 59h1M93 59h1M67 60h1M93 60h1M68 61h1M93 61h1M4 62h1M68 62h1M93 62h1M4 63h1M93 63h1M4 64h1M20 64h1M93 64h1M5 65h1M20 65h1M93 65h1M5 66h1M20 66h1M92 66h1M6 67h1M19 67h1M21 67h1M92 67h1M6 68h1M22 68h1M92 68h1M7 69h1M22 69h1M91 69h1M8 70h1M21 70h1M23 70h1M48 70h6M72 70h1M91 70h1M9 71h1M23 71h1M46 71h2M54 71h2M72 71h1M90 71h1M10 72h2M22 72h1M45 72h1M56 72h1M72 72h1M89 72h1M12 73h3M20 73h2M44 73h1M57 73h1M71 73h1M88 73h1M15 74h5M33 74h1M44 74h1M57 74h1M71 74h1M86 74h2M33 75h1M44 75h1M58 75h1M71 75h1M85 75h1M34 76h1M45 76h1M58 76h1M70 76h1M72 76h3M82 76h2M35 77h1M45 77h1M58 77h1M70 77h1M75 77h6M36 78h1M45 78h1M58 78h1M70 78h1M46 79h1M58 79h1M69 79h1M46 80h1M57 80h1M69 80h1M46 81h1M57 81h1M68 81h1M47 82h1M68 82h1M47 83h1M56 83h1M69 83h1M26 84h1M47 84h1M55 84h1M70 84h1M26 85h1M47 85h1M55 85h1M71 85h1M26 86h1M46 86h1M55 86h1M71 86h1M27 87h1M43 87h3M55 87h1M72 87h1M29 88h5M35 88h8M56 88h1M72 88h1M56 89h1M72 89h1M57 90h1M71 90h1M58 91h3M68 91h3M61 92h7" />
<path stroke="#986100" d="M15 17h5M14 18h1M20 18h1M13 19h1M20 19h1M13 20h1M19 20h1M21 20h1M12 21h1M15 21h1M21 21h1M12 22h1M21 22h2M13 23h1M18 23h1M20 23h1M22 23h1M13 24h1M23 24h1M14 25h1M16 25h1M22 25h2M14 26h1M21 26h1M23 26h1M24 27h1M15 28h1M21 28h1M23 28h2M16 29h1M22 29h1M24 29h1M16 30h1M19 30h1M24 30h1M17 31h1M23 31h1M18 32h4" />
<path stroke="#ff7352" d="M34 17h1M32 18h3M31 19h5M31 20h5M30 21h6M33 22h2M9 23h1M9 24h2M9 25h2M10 26h2M10 27h2M11 28h1" />
<path stroke="#f9d400" d="M15 18h1M18 18h1M14 19h1M17 19h2M16 20h3M18 21h2M16 22h1M18 22h2M14 23h1M16 23h2M19 23h1M19 24h1M21 24h1M15 25h1M20 25h2M16 26h1M19 26h2M20 27h3M17 28h2M17 29h2M22 30h1M18 31h4" />
<path stroke="#f6f6f6" d="M16 18h2M15 19h2M14 20h2M14 22h2M30 42h1M18 43h1M18 60h1M18 61h2M19 62h1M22 65h1M21 66h2M22 67h1M24 70h1M24 71h1" />
<path stroke="#cca700" d="M19 18h1M19 19h1M20 20h1M13 21h2M17 21h1M20 21h1M13 22h1M20 22h1M21 23h1M14 24h1M17 24h1M22 24h1M15 26h1M22 26h1M18 27h1M23 27h1M20 28h1M19 29h1M23 29h1M17 30h2M21 30h1M23 30h1M22 31h1" />
<path stroke="#fced87" d="M28 30h3M27 31h6M27 32h7M14 33h2M26 33h8M13 34h4M26 34h8M13 35h5M26 35h7M13 36h5M27 36h4M14 37h5M15 38h3" />
<path stroke="#ac2939" d="M79 44h4M77 45h2M83 45h2M76 46h1M85 46h2M76 47h1M87 47h1M75 48h1M81 48h3M88 48h1M75 49h1M80 49h1M84 49h1M89 49h1M75 50h1M80 50h1M85 50h1M90 50h1M75 51h1M80 51h1M86 51h1M90 51h1M75 52h1M86 52h1M76 53h1M79 56h1M83 56h1M85 57h1M29 81h3M33 81h3M27 82h2M32 82h1M36 82h3M26 83h1M28 83h1M32 83h1M62 83h4M28 84h1M32 84h1M59 84h3M66 84h4M28 85h1M32 85h1M58 85h1M67 85h1M70 85h1M27 86h1M29 86h1M33 86h1M57 86h1M62 86h1M28 87h1M30 87h1M34 87h2M57 87h1M62 87h1M68 87h1M62 88h1M68 88h1M62 89h1M68 89h1M62 90h1M68 90h1M61 91h1" />
<path stroke="#d5526a" d="M79 45h1M77 46h1M84 47h3M76 48h1M80 48h1M84 48h4M81 49h3M85 49h4M81 50h4M86 50h4M76 51h1M81 51h5M87 51h3M76 52h10M87 52h4M77 53h9M87 53h4M77 54h9M87 54h5M78 55h7M86 55h6M80 56h3M85 56h7M86 57h7M87 58h6M87 59h6M88 60h5M88 61h5M88 62h5M88 63h5M88 64h5M88 65h5M88 66h4M89 67h3M90 68h2M90 69h1M29 82h1M37 83h2M37 84h3M27 85h1M31 85h1M33 85h1M36 85h4M61 85h1M28 86h1M30 86h3M34 86h7M61 86h1M67 86h1M29 87h1M31 87h3M36 87h5M71 87h1M57 88h2M71 88h1M57 89h5M63 89h1M67 89h1M69 89h3M58 90h4M63 90h5M69 90h2M62 91h6" />
<path stroke="#f67b8b" d="M80 45h3M78 46h7M77 47h7M77 48h3M76 49h4M76 50h4M77 51h3M87 66h1M88 67h1M89 68h1M90 70h1M30 82h2M33 82h3M27 83h1M29 83h3M33 83h4M39 83h1M27 84h1M29 84h3M33 84h4M40 84h1M62 84h4M29 85h2M34 85h2M40 85h1M59 85h2M62 85h5M68 85h2M41 86h1M58 86h3M63 86h4M68 86h3M41 87h1M58 87h4M63 87h5M69 87h2M59 88h3M63 88h5M69 88h2M64 89h3" />
</svg>