<svg xmlns="http://www.w3.org/2000/svg" viewBox="0 -0.5 96 96" shape-rendering="crispEdges">
<metadata>Made with Pixels to Svg https://codepen.io/shshaw/pen/XbxvNj</metadata>
<path stroke="#b47b00" d="M54 30h2M57 30h2M52 31h1M56 31h1M59 31h1M34 32h2M38 32h2M51 32h1M59 32h2M32 33h2M37 33h1M40 33h2M49 33h1M52 33h1M62 33h1M65 33h4M31 34h1M36 34h1M42 34h1M48 34h1M60 34h1M63 34h1M70 34h1M30 35h1M36 35h1M51 35h1M54 35h1M57 35h1M61 35h1M71 35h1M30 36h1M46 36h4M51 36h1M56 36h1M60 36h1M72 36h1M29 37h1M35 37h2M44 37h2M50 37h2M59 37h1M29 38h1M35 38h1M38 38h1M43 38h1M55 38h1M58 38h1M72 38h1M29 39h1M37 39h1M42 39h1M57 39h1M72 39h1M29 40h1M41 40h1M68 40h1M72 40h1M35 41h1M40 41h1M56 41h1M72 41h1M30 42h3M37 42h1M72 42h1M29 43h1M73 43h1M30 44h5M41 44h1M52 44h2M29 45h1M35 45h1M65 45h4M72 45h1M27 46h1M32 46h1M44 46h1M55 46h1M59 46h2M65 46h5M72 46h1M36 47h1M54 47h1M61 47h2M67 47h3M72 47h1M33 48h1M53 48h1M62 48h1M64 48h1M71 48h1M25 49h1M33 49h2M41 49h1M53 49h1M62 49h1M65 49h1M71 49h1M23 50h1M26 50h1M32 50h1M42 50h2M50 50h1M62 50h1M66 50h1M70 50h1M30 51h3M34 51h2M46 51h4M52 51h1M22 52h1M55 53h5M21 54h1M65 54h1M21 55h1M24 55h2M64 55h1M70 55h1M21 56h1M28 56h1M63 56h1M21 57h1M29 57h1M22 58h1M22 59h1M54 59h1M59 59h1M23 60h1M43 60h1M55 60h1M24 61h1M44 61h1M50 61h1M56 61h1M58 61h1M25 62h1M57 62h3M27 63h1M35 63h1M60 63h1M60 64h1M65 64h1" />
<path stroke="#101010" d="M53 31h3M57 31h2M36 32h2M53 32h6M61 32h1M53 33h1M58 33h3M43 34h1M52 34h2M59 34h1M62 34h1M44 35h1M48 35h1M58 35h2M45 36h1M54 36h2M54 37h1M72 37h1M52 38h1M73 38h1M53 39h1M73 39h1M36 40h1M54 40h1M57 40h1M66 40h2M74 40h1M29 41h1M36 41h1M55 41h1M74 41h1M29 42h1M39 42h1M56 42h1M74 42h1M31 43h1M39 43h1M56 43h1M72 43h1M74 43h1M36 44h1M38 44h1M57 44h1M74 44h1M36 45h1M38 45h1M57 45h1M74 45h1M37 46h1M43 46h1M49 46h1M56 46h3M74 46h1M38 47h1M43 47h1M49 47h1M74 47h1M38 48h1M74 48h1M39 49h1M73 49h1M39 50h1M52 50h1M63 50h1M73 50h1M26 51h1M39 51h1M67 51h1M69 51h1M72 51h1M31 52h1M40 52h1M51 52h1M68 52h1M71 52h1M40 53h1M51 53h1M69 53h2M40 54h1M51 54h1M58 54h1M69 54h1M40 55h1M51 55h1M40 56h1M51 56h1M70 56h1M40 57h1M51 57h1M70 57h1M40 58h1M52 58h1M70 58h1M39 59h1M41 59h1M52 59h1M70 59h1M39 60h1M42 60h1M51 60h3M69 60h1M38 61h1M45 61h5M53 61h1M69 61h1M37 62h1M54 62h1M68 62h1M26 63h1M36 63h1M55 63h1M67 63h1M28 64h7M56 64h2M66 64h1M58 65h7" />
<path stroke="#ffee10" d="M52 32h1M51 33h1M61 33h1M32 34h4M50 34h1M61 34h1M65 34h3M34 35h2M37 35h2M49 35h2M63 35h1M66 35h4M36 36h4M50 36h1M52 36h1M61 36h1M67 36h4M34 37h1M37 37h4M46 37h4M52 37h2M58 37h1M60 37h1M67 37h5M30 38h1M33 38h2M36 38h1M40 38h1M44 38h7M54 38h1M56 38h2M59 38h2M66 38h6M30 39h5M36 39h1M40 39h2M43 39h1M47 39h5M54 39h1M56 39h1M58 39h5M68 39h3M30 40h6M39 40h2M42 40h1M48 40h5M58 40h6M69 40h2M30 41h5M39 41h1M41 41h1M48 41h5M57 41h9M68 41h3M33 42h3M40 42h2M47 42h6M57 42h14M33 43h6M40 43h3M45 43h8M57 43h14M37 44h1M39 44h1M42 44h9M58 44h12M31 45h1M37 45h1M39 45h1M44 45h5M58 45h7M31 46h1M33 46h1M38 46h2M45 46h3M61 46h4M32 47h1M34 47h1M39 47h1M45 47h3M56 47h4M63 47h1M26 48h1M32 48h1M34 48h1M39 48h1M43 48h7M54 48h8M26 49h2M31 49h2M35 49h1M40 49h1M42 49h9M56 49h6M27 50h5M33 50h3M40 50h2M45 50h5M51 50h1M57 50h5M27 51h3M40 51h5M50 51h2M57 51h5M65 51h2M23 52h1M26 52h4M41 52h10M52 52h1M57 52h6M64 52h4M23 53h8M35 53h1M41 53h10M52 53h1M61 53h7M22 54h10M34 54h2M42 54h8M52 54h3M60 54h5M67 54h1M22 55h2M27 55h9M44 55h4M52 55h4M59 55h5M65 55h2M22 56h5M29 56h7M53 56h4M58 56h5M64 56h3M22 57h7M30 57h5M54 57h5M60 57h3M64 57h3M23 58h11M55 58h4M60 58h6M24 59h9M56 59h2M60 59h5M26 60h5M60 60h3" />
<path stroke="#f6cd10" d="M34 33h2M37 34h2M49 34h1M68 34h1M39 35h1M70 35h1M40 36h1M71 36h1M39 38h1M41 38h1M51 38h1M65 38h1M52 39h1M71 39h1M53 40h1M55 40h1M71 40h1M53 41h1M71 41h1M53 42h2M53 43h2M35 44h1M54 44h2M33 45h2M54 45h2M69 45h1M34 46h3M54 46h1M35 47h1M55 47h1M60 47h1M64 47h1M36 48h2M36 49h2M36 50h2M36 51h2M64 51h1M36 52h2M36 53h2M36 54h2M41 54h1M50 54h1M36 55h1M42 55h2M48 55h1M67 55h1M36 56h1M57 56h1M67 56h1M35 57h1M53 57h1M34 58h1M54 58h1M66 58h1M23 59h1M33 59h1M55 59h1M58 59h1M65 59h1M24 60h2M31 60h1M54 60h1M57 60h1M59 60h1M63 60h1M55 61h1M57 61h1" />
<path stroke="#eeac00" d="M36 33h1M38 33h2M50 33h1M39 34h3M51 34h1M64 34h1M69 34h1M40 35h4M60 35h1M62 35h1M35 36h1M41 36h4M41 37h3M55 37h1M37 38h1M42 38h1M53 38h1M63 38h2M35 39h1M39 39h1M55 39h1M63 39h1M66 39h2M56 40h1M73 40h1M54 41h1M73 41h1M38 42h1M55 42h1M71 42h1M73 42h1M55 43h1M40 44h1M51 44h1M56 44h1M70 44h1M30 45h1M32 45h1M40 45h1M43 45h1M49 45h2M53 45h1M56 45h1M70 45h2M73 45h1M28 46h1M48 46h1M53 46h1M70 46h2M73 46h1M26 47h1M33 47h1M37 47h1M65 47h2M70 47h2M73 47h1M25 48h1M35 48h1M40 48h2M63 48h1M65 48h6M72 48h2M24 49h1M38 49h1M51 49h2M66 49h5M72 49h1M38 50h1M44 50h1M65 50h1M67 50h3M71 50h2M23 51h1M33 51h1M38 51h1M45 51h1M62 51h1M68 51h1M70 51h2M24 52h1M35 52h1M38 52h2M63 52h1M69 52h2M22 53h1M34 53h1M38 53h2M54 53h1M60 53h1M68 53h1M32 54h2M38 54h2M55 54h1M66 54h1M68 54h1M26 55h1M37 55h3M41 55h1M49 55h2M56 55h1M68 55h2M27 56h1M37 56h3M41 56h10M52 56h1M68 56h2M36 57h4M41 57h10M52 57h1M59 57h1M63 57h1M67 57h3M35 58h5M41 58h11M53 58h1M59 58h1M67 58h3M34 59h5M42 59h10M53 59h1M66 59h4M32 60h7M44 60h7M56 60h1M58 60h1M64 60h5M25 61h13M54 61h1M59 61h10M26 62h11M55 62h2M60 62h8M28 63h7M56 63h4M61 63h6M58 64h2M61 64h4" />
<path stroke="#e69c00" d="M54 33h1M57 34h2M55 35h2" />
<path stroke="#ffcd4a" d="M55 33h3M54 34h3" />
<path stroke="#ffffbd" d="M31 35h3M52 35h2M64 35h2M31 36h4M53 36h1M57 36h3M62 36h5M30 37h4M56 37h2M61 37h6M31 38h2M61 38h2M44 39h3M43 40h5M42 41h6M42 42h5M43 43h2M29 46h2M27 47h5M27 48h5M28 49h3M54 49h2M53 50h4M53 51h4M53 52h4M53 53h1" />
<path stroke="#ffffff" d="M38 39h1M64 39h2M38 40h1M64 40h2M37 41h1M67 41h1M30 43h1M41 45h1M52 45h1M41 46h2M51 46h2M41 47h2M44 47h1M48 47h1M50 47h3M51 48h2M24 50h1M64 50h1M24 51h2M63 51h1M30 52h1M32 52h2M31 53h3M56 54h2M59 54h1M57 55h2" />
<path stroke="#dedede" d="M37 40h1M38 41h1M66 41h1M36 42h1M32 43h1M71 43h1M71 44h3M42 45h1M51 45h1M40 46h1M50 46h1M40 47h1M53 47h1M42 48h1M50 48h1M63 49h2M25 50h1M25 52h1M34 52h1" />
</svg>