<svg xmlns="http://www.w3.org/2000/svg" viewBox="0 -0.5 96 96" shape-rendering="crispEdges">
<metadata>Made with Pixels to Svg https://codepen.io/shshaw/pen/XbxvNj</metadata>
<path stroke="#763208" d="M36 0h4M34 1h2M40 1h2M33 2h1M42 2h1M32 3h1M32 4h1M46 4h2M31 5h1M48 5h3M51 6h1M46 7h1M28 25h1M27 26h1M26 28h1M28 28h3M26 29h1M32 29h2M36 29h1M45 29h1M27 30h2M37 30h1M44 30h1M31 31h1M39 31h1M42 31h2" />
<path stroke="#e47713" d="M36 1h4M34 2h8M33 3h1M35 3h4M35 4h3M32 5h1M34 5h3M32 6h1M34 6h1M36 8h1M32 10h2M39 23h1M41 23h1M38 24h1M40 24h1M20 25h1M30 25h3M37 25h3M20 26h2M29 26h4M36 26h4M28 27h4M37 27h4M51 27h2M38 28h5M39 29h5M29 30h1M40 30h4M13 31h2M26 31h3M12 32h1M24 32h2M23 33h1M52 33h1M61 33h1M63 33h1M21 34h2M51 34h1M60 34h1M65 34h1M20 35h1M56 35h1M63 35h2M19 36h2M45 36h1M55 36h1M61 36h1M16 37h1M43 37h2M15 38h1M42 38h1M13 39h2M12 40h1M35 40h1M38 40h1M10 41h1M12 41h1M66 41h1M10 42h2M65 42h1M10 43h1M30 43h1M9 44h1M29 44h1M9 45h1M15 48h2M11 51h1M71 51h1M10 52h1M10 53h1M9 54h1M9 55h1M9 56h1M65 56h1M8 57h1M66 57h1M8 58h1M66 58h1M83 58h1M8 59h1M67 59h1M8 60h1M67 60h1M7 61h1M67 61h1M81 61h1M7 62h1M79 62h2M85 62h1M7 63h1M77 63h2M7 64h1M72 64h2M76 64h1M7 65h1M74 65h2M66 77h1M64 80h1M18 87h1M19 88h1M56 88h1" />
<path stroke="#504d49" d="M45 2h2M40 3h1M43 3h2M27 4h2M42 4h1M41 5h1M43 6h3M41 7h2M28 8h2M40 9h1M31 10h1M30 11h1M34 11h1M40 11h1M29 12h1M33 12h1M37 12h1M39 12h1M47 12h1M28 13h1M48 13h1M27 14h1M41 14h2M49 14h2M27 15h1M43 15h1M51 15h1M26 16h1M44 16h1M52 16h2M26 17h1M34 17h1M45 17h1M54 17h2M25 18h1M34 18h1M40 18h1M45 18h1M56 18h2M25 19h1M33 19h1M41 19h1M46 19h1M58 19h2M25 20h1M31 20h1M33 20h1M42 20h1M46 20h1M60 20h3M27 21h1M32 21h1M42 21h2M46 21h1M63 21h5M27 22h1M42 22h1M45 22h1M68 22h6M29 23h1M35 23h1M42 23h1M74 23h4M26 24h1M33 24h1M36 24h1M41 24h1M78 24h3M36 25h1M40 25h1M43 25h1M81 25h2M40 26h1M83 26h2M80 28h3M73 30h2M78 30h1" />
<path stroke="#fee25a" d="M34 3h1M29 5h1M38 5h1M30 6h1M33 6h1M36 6h2M31 7h1M33 7h4M32 8h3M33 9h1M28 14h1M45 14h1M46 15h1M27 16h1M46 16h3M27 17h1M47 17h4M26 18h2M48 18h4M26 19h1M50 19h3M26 20h1M52 20h3M26 21h1M55 21h2M43 27h1M27 28h1M28 29h3M44 29h1M32 30h1M38 31h1M40 31h2M44 31h1M39 32h1M42 32h2M23 36h1M36 36h1M39 36h2M42 36h1M24 37h1M37 37h1M23 38h1M25 38h1M24 40h1M23 41h1M25 41h1M22 42h1M24 42h1M44 42h4M22 43h1M42 43h7M14 44h2M23 44h1M40 44h4M47 44h2M13 45h1M16 45h1M38 45h4M47 45h2M17 46h1M22 46h1M36 46h4M47 46h2M21 47h1M34 47h4M47 47h2M21 48h2M33 48h4M47 48h2M33 49h2M47 49h2M32 50h2M47 50h2M19 51h1M32 51h2M47 51h2M11 52h1M18 52h2M32 52h2M47 52h2M11 53h1M18 53h1M32 53h2M47 53h2M10 54h3M17 54h1M32 54h2M47 54h2M11 55h2M32 55h2M47 55h2M11 56h2M32 56h2M47 56h2M11 57h2M32 57h3M46 57h3M11 58h2M21 58h4M33 58h2M46 58h2M11 59h2M19 59h3M24 59h1M33 59h2M46 59h2M11 60h2M19 60h1M23 60h2M34 60h2M45 60h3M8 61h1M11 61h2M20 61h1M23 61h2M34 61h2M45 61h2M8 62h1M11 62h2M21 62h3M35 62h2M44 62h3M8 63h1M11 63h2M36 63h2M43 63h3M8 64h2M11 64h2M37 64h8M9 65h1M11 65h2M39 65h4M9 66h3M10 67h2M34 72h2M38 72h1M33 73h5M34 74h1M31 75h1M34 75h1M31 76h2M30 77h1" />
<path stroke="#b44b0c" d="M39 3h1M41 3h2M38 4h1M45 5h3M46 6h5M47 7h3M31 9h1M35 9h1M21 24h2M22 25h1M29 25h1M28 26h1M33 26h1M27 27h1M32 27h5M50 27h1M31 28h7M49 28h1M51 28h1M31 29h1M37 29h2M46 29h3M50 29h1M30 30h2M38 30h2M45 30h1M49 30h2M30 31h1M45 31h1M48 31h1M14 32h1M28 32h2M40 32h2M44 32h1M48 32h1M12 33h2M27 33h1M35 33h2M39 33h1M42 33h2M47 33h1M26 34h1M34 34h1M37 34h2M47 34h1M50 34h1M52 34h1M59 34h1M25 35h1M32 35h2M46 35h1M48 35h2M51 35h1M58 35h1M25 36h1M28 36h1M31 36h1M50 36h1M54 36h1M56 36h1M58 36h1M21 37h1M26 37h2M29 37h2M50 37h1M53 37h1M55 37h1M57 37h1M61 37h1M64 37h2M16 38h1M20 38h1M51 38h2M55 38h2M62 38h2M65 38h1M15 39h1M19 39h1M41 39h1M54 39h1M64 39h1M15 40h1M17 40h2M39 40h2M63 40h1M16 41h1M34 41h1M36 41h2M63 41h1M32 42h2M62 42h1M66 42h1M31 43h1M61 43h1M64 43h1M66 43h1M61 44h1M64 44h1M66 44h1M62 45h2M65 45h1M10 46h1M65 46h1M67 46h1M10 47h1M66 47h1M68 47h1M11 48h2M68 48h1M74 48h2M12 49h3M67 49h1M72 49h2M75 49h1M12 50h1M66 50h1M71 50h1M74 50h1M66 51h1M70 51h1M74 51h1M65 52h1M72 52h2M65 53h1M65 54h1M86 54h2M65 55h1M85 55h1M87 55h1M84 56h1M86 56h1M83 57h1M86 57h1M82 58h1M84 58h2M82 59h1M82 61h1M86 61h2M68 62h1M81 62h1M84 62h1M87 62h1M68 63h1M80 63h1M83 63h1M86 63h1M68 64h1M79 64h1M84 64h2M68 65h1M71 65h1M78 65h1M7 66h1M68 66h1M72 66h1M77 66h1M7 67h1M68 67h1M72 67h1M76 67h1M7 68h1M67 68h1M71 68h1M75 68h1M7 69h1M67 69h1M70 69h1M75 69h1M8 70h1M68 70h2M74 70h1M8 71h1M74 71h1M8 72h1M73 72h1M8 73h1M72 73h1M9 74h1M70 74h2M9 75h1M68 75h2M9 76h1M67 76h1M71 76h3M10 77h1M70 77h1M73 77h1M10 78h1M66 78h1M69 78h1M72 78h1M11 79h1M65 79h1M70 79h2M11 80h1M12 81h1M64 81h1M13 82h1M63 82h1M13 83h1M62 83h1M14 84h1M61 84h1M15 85h1M60 85h1M16 86h1M59 86h1M17 87h1M58 87h1M18 88h1M57 88h1M20 89h2M55 89h1M22 90h2M53 90h2M24 91h2M51 91h2M26 92h3M48 92h3M29 93h4M45 93h3M33 94h12" />
<path stroke="#b3baaf" d="M45 3h1M43 4h2M28 5h1M42 5h2M29 6h1M39 6h3M30 7h1M39 7h2M43 7h1M40 8h3M29 9h1M34 9h1M38 9h1M34 10h5M32 11h1M36 11h2M34 12h3M45 12h2M37 13h1M44 13h4M29 14h1M36 14h2M44 14h1M46 14h3M28 15h2M36 15h1M42 15h1M44 15h2M47 15h3M28 16h2M41 16h3M45 16h1M49 16h3M28 17h1M38 17h1M41 17h4M46 17h1M51 17h3M28 18h1M35 18h1M37 18h3M42 18h3M46 18h2M52 18h4M27 19h1M34 19h6M43 19h3M48 19h2M53 19h5M27 20h1M29 20h1M34 20h6M44 20h2M50 20h2M55 20h5M28 21h3M35 21h4M44 21h2M51 21h4M57 21h6M26 22h1M29 22h5M43 22h2M53 22h15M26 23h2M31 23h4M43 23h1M54 23h20M27 24h2M34 24h2M42 24h1M56 24h22M27 25h1M34 25h2M41 25h1M58 25h23M41 26h1M61 26h22M64 27h17M70 28h7" />
<path stroke="#101010" d="M46 3h1M45 4h1M27 5h1M44 5h1M28 6h1M52 6h2M29 7h1M45 7h1M50 7h2M43 8h2M47 8h3M28 9h1M41 9h2M44 9h1M29 10h2M40 10h1M45 10h1M31 11h1M39 11h1M46 11h1M32 12h1M38 12h1M34 13h3M31 15h1M30 16h1M30 17h1M33 17h1M29 18h1M33 18h1M29 19h1M32 19h1M40 19h1M47 19h1M28 20h1M32 20h1M40 20h1M48 20h2M25 21h1M33 21h1M41 21h1M50 21h1M25 22h1M34 22h1M41 22h1M51 22h2M25 23h1M28 23h1M45 23h1M53 23h1M29 24h4M44 24h1M54 24h2M26 25h1M33 25h1M56 25h2M34 26h2M43 26h1M58 26h3M41 27h2M44 27h1M61 27h2M85 27h1M44 28h1M63 28h3M83 28h2M34 29h2M66 29h2M82 29h1M33 30h1M68 30h2M79 30h4M32 31h1M37 31h1M70 31h2M74 31h3M79 31h1M32 32h2M38 32h1M72 32h3M77 32h3M31 33h1M34 33h1M38 33h1M31 34h1M31 35h1" />
<path stroke="#ed9723" d="M33 4h2M30 5h1M33 5h1M37 5h1M39 5h1M31 6h1M35 6h1M32 7h1M43 28h1M27 29h1M23 34h1M46 34h1M21 35h4M42 35h4M21 36h2M44 36h1M22 37h1M25 37h1M33 37h2M22 38h1M26 38h1M40 38h2M22 39h2M26 39h1M30 39h1M21 40h3M28 40h2M13 41h1M20 41h3M27 41h3M54 41h1M13 42h1M20 42h1M26 42h2M53 42h1M11 43h1M14 43h2M21 43h1M26 43h1M54 43h1M58 43h1M10 44h2M16 44h1M25 44h1M53 44h1M57 44h1M10 45h2M17 45h1M25 45h1M27 45h1M53 45h1M56 45h2M15 46h1M25 46h2M53 46h1M56 46h2M17 47h2M24 47h2M56 47h1M63 47h1M18 48h2M24 48h1M53 48h2M61 48h2M19 49h1M53 49h1M57 49h3M63 49h1M52 50h4M63 50h2M64 51h1M62 52h2M61 53h2M59 54h1M58 55h1M60 57h1M59 58h1M60 59h1M58 60h2M58 61h1M63 61h1M63 62h1M63 63h1M58 64h1M60 64h1M63 64h2M52 65h2M58 65h2M64 65h1M51 66h5M64 66h1M8 67h1M50 67h3M64 67h1M8 68h2M14 68h1M16 68h1M50 68h3M9 69h3M15 69h1M18 69h1M50 69h2M63 69h1M11 70h4M16 70h1M19 70h2M24 70h1M49 70h2M62 70h2M16 71h1M20 71h5M48 71h2M62 71h1M15 72h1M22 72h2M60 72h2M14 73h2M62 73h1M13 74h2M16 74h1M43 74h1M63 74h1M13 75h3M17 75h1M19 75h1M41 75h3M59 75h6M13 76h2M16 76h1M18 76h1M21 76h1M38 76h5M59 76h2M62 76h1M14 77h2M17 77h5M35 77h7M59 77h1M61 77h1M63 77h1M16 78h5M37 78h5M59 78h1M62 78h1M17 79h2M20 79h1M39 79h2M20 80h1M53 80h1M58 80h1M19 81h3M53 81h1M58 81h1M19 82h3M29 82h1M52 82h2M56 82h1M58 82h1M19 83h2M22 83h1M29 83h2M34 83h2M37 83h1M50 83h6M57 83h2M19 84h1M21 84h1M23 84h3M28 84h9M38 84h1M40 84h1M47 84h7M55 84h1M19 85h2M22 85h1M24 85h12M37 85h1M39 85h14M54 85h1M19 86h6M26 86h3M30 86h12M47 86h5M53 86h1M55 86h1M20 87h4M32 87h9M42 87h1M49 87h2M21 88h2M34 88h6M41 88h1M36 89h3M40 89h1M42 89h1" />
<path stroke="#888580" d="M39 4h3M40 5h1M38 6h1M42 6h1M38 7h1M44 7h1M30 8h1M30 9h1M32 9h1M36 9h1M39 9h1M43 9h1M39 10h1M41 10h4M33 11h1M35 11h1M38 11h1M42 11h4M30 12h2M42 12h1M44 12h1M29 13h4M38 13h1M30 14h2M30 15h1M35 15h1M41 15h1M50 15h1M31 16h1M38 16h1M29 17h1M31 17h2M35 17h1M37 17h1M39 17h1M30 18h3M36 18h1M41 18h1M28 19h1M30 19h2M42 19h1M30 20h1M43 20h1M31 21h1M34 21h1M39 21h1M28 22h1M35 22h3M30 23h1M44 23h1M43 24h1M42 25h1M42 26h1M63 27h1M81 27h4M66 28h4M77 28h3M68 29h14M34 30h3M70 30h3M75 30h3M33 31h4M72 31h2M77 31h2M34 32h4M37 33h1" />
<path stroke="#f9f9f9" d="M37 7h1M31 8h1M35 8h1M37 8h1" />
<path stroke="#fcfcfc" d="M38 8h2M37 9h1M41 12h1M40 13h2M34 14h1M38 14h1M40 14h1M33 15h1M37 15h2M40 15h1M33 16h1M35 16h3M36 17h1M40 21h1M38 22h3M36 23h3M40 23h1M37 24h1M39 24h1M30 32h2M29 33h2M29 34h2M29 35h2M29 36h2" />
<path stroke="#847878" d="M41 11h1M40 12h1M43 12h1M33 13h1M39 13h1M42 13h2M32 14h2M35 14h1M39 14h1M43 14h1M32 15h1M34 15h1M39 15h1M32 16h1M34 16h1M39 16h2M40 17h1M28 33h1M28 34h1M28 35h1M27 36h1" />
<path stroke="#eb5d24" d="M21 25h1M50 28h1M49 29h1M46 30h3M29 31h1M46 31h2M13 32h1M26 32h2M45 32h3M24 33h3M40 33h2M44 33h3M62 33h1M24 34h2M35 34h2M39 34h7M61 34h4M34 35h3M40 35h2M47 35h1M50 35h1M59 35h4M24 36h1M32 36h3M43 36h1M46 36h4M59 36h2M28 37h1M31 37h2M35 37h2M45 37h5M54 37h1M58 37h3M21 38h1M27 38h13M43 38h8M53 38h2M57 38h5M64 38h1M20 39h2M27 39h1M31 39h10M42 39h3M46 39h8M55 39h9M13 40h2M19 40h2M30 40h5M36 40h2M41 40h1M45 40h1M47 40h16M14 41h2M17 41h3M30 41h4M35 41h1M38 41h3M44 41h1M46 41h1M48 41h6M55 41h8M12 42h1M14 42h6M28 42h4M34 42h3M49 42h4M54 42h8M16 43h5M27 43h3M33 43h1M49 43h4M55 43h3M59 43h2M65 43h1M17 44h5M26 44h3M30 44h1M50 44h1M54 44h3M58 44h3M65 44h1M18 45h4M26 45h1M30 45h1M54 45h2M58 45h4M64 45h1M11 46h4M18 46h3M54 46h2M58 46h7M11 47h5M55 47h1M57 47h6M64 47h2M67 47h1M13 48h2M55 48h6M63 48h5M54 49h3M64 49h3M74 49h1M65 50h1M72 50h2M65 51h1M72 51h2M64 52h1M63 53h2M60 54h5M59 55h6M86 55h1M58 56h7M85 56h1M58 57h2M61 57h5M84 57h2M58 58h1M61 58h5M61 59h6M60 60h7M59 61h4M64 61h3M59 62h3M64 62h4M86 62h1M59 63h2M64 63h4M79 63h1M84 63h2M59 64h1M65 64h3M77 64h2M65 65h3M72 65h2M76 65h2M65 66h3M73 66h4M65 67h3M73 67h3M64 68h3M72 68h3M8 69h1M64 69h3M71 69h4M9 70h2M15 70h1M64 70h4M70 70h4M9 71h7M63 71h11M9 72h6M62 72h11M9 73h5M63 73h9M10 74h3M64 74h6M10 75h3M65 75h3M10 76h3M61 76h1M63 76h4M11 77h3M60 77h1M62 77h1M64 77h2M71 77h2M11 78h5M60 78h2M63 78h3M70 78h2M12 79h5M19 79h1M59 79h6M12 80h8M59 80h5M13 81h6M59 81h5M14 82h5M59 82h4M14 83h5M56 83h1M59 83h3M15 84h4M54 84h1M56 84h5M16 85h3M53 85h1M55 85h5M17 86h2M25 86h1M29 86h1M42 86h5M52 86h1M54 86h1M56 86h3M19 87h1M24 87h8M41 87h1M43 87h6M51 87h7M20 88h1M23 88h11M40 88h1M42 88h14M22 89h14M39 89h1M41 89h1M43 89h12M24 90h29M26 91h25M29 92h19M33 93h12" />
<path stroke="#f4c91c" d="M37 35h3M35 36h1M39 37h4M28 39h2M45 39h1M26 40h2M42 40h3M46 40h1M26 41h1M41 41h3M45 41h1M47 41h1M21 42h1M25 42h1M37 42h7M48 42h1M12 43h2M25 43h1M32 43h1M34 43h8M53 43h1M12 44h2M22 44h1M24 44h1M31 44h9M49 44h1M51 44h2M12 45h1M22 45h3M28 45h2M31 45h7M49 45h4M16 46h1M21 46h1M23 46h2M27 46h9M49 46h4M16 47h1M19 47h2M23 47h1M26 47h8M49 47h6M17 48h1M20 48h1M23 48h1M25 48h8M49 48h4M15 49h4M20 49h13M49 49h4M60 49h3M13 50h19M49 50h3M56 50h7M12 51h7M20 51h12M49 51h15M12 52h6M20 52h12M49 52h13M12 53h5M19 53h13M49 53h12M13 54h4M18 54h14M49 54h10M13 55h19M49 55h9M13 56h19M49 56h9M13 57h19M49 57h9M13 58h8M25 58h8M48 58h10M60 58h1M13 59h6M25 59h8M48 59h12M13 60h6M25 60h9M48 60h10M13 61h7M25 61h9M47 61h11M13 62h8M24 62h11M47 62h12M62 62h1M13 63h23M46 63h13M61 63h2M13 64h24M45 64h13M61 64h2M8 65h1M13 65h26M43 65h9M54 65h4M60 65h4M8 66h1M12 66h39M56 66h8M9 67h1M12 67h38M53 67h11M10 68h4M15 68h1M17 68h33M53 68h11M12 69h3M16 69h2M19 69h31M52 69h11M17 70h2M21 70h3M25 70h24M51 70h11M17 71h3M25 71h23M50 71h12M16 72h6M24 72h10M36 72h2M39 72h21M16 73h17M38 73h24M15 74h1M17 74h15M35 74h8M44 74h19M16 75h1M18 75h1M20 75h11M35 75h6M44 75h15M15 76h1M17 76h1M19 76h2M22 76h9M33 76h5M43 76h16M16 77h1M22 77h8M31 77h4M42 77h17M21 78h16M42 78h17M21 79h18M41 79h18M21 80h32M54 80h4M22 81h31M54 81h4M22 82h7M30 82h22M54 82h2M57 82h1M21 83h1M23 83h6M31 83h3M36 83h1M38 83h12M20 84h1M22 84h1M26 84h2M37 84h1M39 84h1M41 84h6M21 85h1M23 85h1M36 85h1M38 85h1" />
<path stroke="#fef1b0" d="M37 36h2M41 36h1M23 37h1M38 37h1M24 38h1M24 39h2M25 40h1M24 41h1M23 42h1M23 43h2M44 44h3M14 45h2M42 45h5M40 46h7M22 47h1M38 47h9M37 48h10M35 49h12M34 50h13M34 51h13M34 52h13M17 53h1M34 53h13M34 54h13M10 55h1M34 55h13M10 56h1M34 56h13M9 57h2M35 57h11M9 58h2M35 58h11M9 59h2M22 59h2M35 59h11M9 60h2M20 60h3M36 60h9M9 61h2M21 61h2M36 61h9M9 62h2M37 62h7M9 63h2M38 63h5M10 64h1M10 65h1M32 74h2M32 75h2" />
</svg>