<svg xmlns="http://www.w3.org/2000/svg" viewBox="0 -0.5 96 96" shape-rendering="crispEdges">
<metadata>Made with Pixels to Svg https://codepen.io/shshaw/pen/XbxvNj</metadata>
<path stroke="#10394a" d="M37 21h2M35 22h2M34 23h1M41 23h1M33 24h1M35 24h1M42 24h1M59 24h4M33 25h2M36 25h1M58 25h1M63 25h1M56 26h2M64 26h1M53 27h3M38 29h1M52 29h1M64 30h1M53 32h1M62 32h1M54 34h1M55 35h2M54 45h1M55 46h1M56 47h1M40 51h1M55 52h1M45 56h1M51 56h1M56 66h1M62 66h1M32 67h3M57 67h1M31 68h1M40 68h1M60 68h1M33 69h1M38 69h2M62 69h1M66 70h1M37 72h1M34 73h1" />
<path stroke="#105273" d="M39 21h2M41 22h1M35 23h4M34 24h1M36 24h4M37 25h4M42 25h1M37 26h1M39 26h3M43 26h1M39 27h5M60 27h2M39 28h4M53 28h1M58 28h5M39 29h3M53 29h14M40 30h1M53 30h10M53 31h7M62 31h1M54 32h3M59 32h1M54 33h4M55 34h2M64 34h2M67 34h1M66 35h1M66 36h1M70 36h2M64 38h1M67 38h1M69 38h1M74 39h1M62 40h2M72 40h1M61 41h1M64 41h1M71 41h1M75 41h1M26 43h2M65 43h1M72 43h1M25 44h1M30 44h1M66 44h1M71 44h1M23 45h2M29 45h1M70 45h1M22 46h1M32 46h1M28 47h1M23 48h1M26 48h1M30 49h1M21 50h1M24 50h1M32 50h2M30 51h1M34 51h1M30 53h1M28 55h1M60 59h2M34 60h2M59 60h1M33 61h1M36 61h1M58 61h1M37 62h1M57 62h1M59 62h1M36 63h2M58 63h1M56 67h1M60 67h1M36 68h1M41 68h1M56 68h4M64 68h2M31 69h2M35 69h1M37 69h1M40 69h2M56 69h2M63 69h3M31 70h4M40 70h1M59 70h7M32 71h3M62 71h3M32 72h4" />
<path stroke="#6294bd" d="M37 22h4M39 23h2M40 24h2M41 25h1M59 25h4M42 26h1M58 26h6M56 27h4M62 27h3M54 28h4M63 28h4M68 34h2M70 35h1M72 36h2M66 37h1M74 37h1M67 39h1M69 40h1M71 40h1M75 40h1M70 41h1M52 43h1M71 43h1M28 44h1M31 44h1M53 44h1M67 44h1M32 45h1M25 47h1M28 48h1M40 48h1M21 49h1M24 49h1M26 49h2M40 49h1M26 50h1M40 50h1M25 51h1M31 51h1M24 52h1M58 62h1M62 67h3M32 68h3M61 68h1M63 68h1M58 69h4M37 70h3M35 71h4M36 72h1" />
<path stroke="#101010" d="M43 25h1M36 26h1M38 26h1M44 26h1M37 27h2M65 27h2M38 28h1M67 28h1M67 29h1M39 30h1M52 30h1M63 30h1M65 30h3M52 31h1M60 31h2M63 31h1M40 32h1M57 32h2M60 32h1M63 32h1M42 33h1M53 33h1M58 33h3M39 34h1M42 34h1M48 34h1M57 34h1M63 34h1M39 35h1M48 35h1M58 35h1M62 35h1M58 36h1M62 36h1M38 37h1M58 37h1M63 37h1M70 37h1M38 38h1M63 38h1M70 38h1M74 38h1M39 39h1M44 39h3M57 39h1M65 39h1M69 39h1M73 39h1M40 40h1M65 40h1M41 41h2M45 42h7M61 42h1M75 42h1M42 43h1M53 43h1M61 43h1M73 43h2M42 44h1M54 44h1M62 44h3M25 45h1M28 45h1M68 45h2M25 46h1M28 46h1M41 46h1M69 46h1M22 47h1M26 47h1M32 47h1M40 47h1M55 47h1M60 47h1M68 47h1M22 48h1M31 48h1M37 48h2M56 48h1M62 48h4M23 49h1M36 49h1M38 49h1M56 49h1M30 50h2M35 50h1M38 50h1M56 50h1M21 51h1M56 51h1M22 52h2M34 52h1M24 53h1M34 53h1M55 53h1M25 54h1M29 54h1M31 54h3M54 54h1M58 54h1M26 55h2M52 55h2M58 55h1M46 56h5M59 56h1M45 57h1M51 57h1M59 57h1M44 58h1M53 58h3M60 58h1M36 59h1M42 59h2M56 60h1M62 60h1M57 61h1M62 61h1M33 62h1M39 62h1M60 62h1M62 62h1M33 63h1M38 63h2M61 63h1M34 64h2M40 66h1M61 66h1M63 66h2M36 67h1M41 67h1M55 67h1M61 67h1M65 67h1M35 68h1M42 68h1M55 68h1M62 68h1M66 68h1M30 69h1M34 69h1M36 69h1M42 69h1M55 69h1M66 69h1M30 70h1M35 70h2M41 70h1M56 70h3M31 71h1M39 71h2M59 71h3M65 71h1M31 72h1M38 72h1M62 72h3M32 73h2M35 73h2" />
<path stroke="#6a4131" d="M46 26h7M44 27h2M43 28h1M42 29h1M41 30h1M40 31h1M43 31h1M44 32h1M49 32h1M39 33h1M44 33h1M50 33h1M44 34h1M50 34h1M43 35h1M50 35h1M38 36h1M49 36h1M42 38h1M47 38h1M57 38h1M43 39h1M47 39h1M48 40h1M43 41h1M44 42h1M56 56h1M36 58h1M56 59h1M39 61h1M38 62h1M57 63h1M36 64h1M39 64h1M57 64h1M61 64h1M36 65h1M40 65h1M56 65h1M60 65h1M36 66h1M60 66h1M40 67h1M37 68h1M39 68h1" />
<path stroke="#fff6ee" d="M46 27h2M44 28h5M44 29h5M45 30h3" />
<path stroke="#ffd5cd" d="M48 27h5M49 28h4M43 29h1M49 29h3M42 30h3M48 30h4M41 31h2M45 31h7M41 32h1M45 32h4M51 32h2M40 33h2M45 33h3M51 33h2M40 34h2M45 34h3M51 34h2M41 35h1M45 35h3M51 35h2M41 36h7M51 36h1M41 37h7M49 37h2M41 38h1M43 38h4M48 38h2M41 39h2M48 39h2M42 40h4M61 45h1M62 46h4M34 47h1M33 48h2M31 49h3M57 56h2M57 57h2M38 58h1M58 58h2M37 59h3M58 59h2M36 60h3M37 61h1" />
<path stroke="#deaca4" d="M44 31h1M50 32h1M53 34h1M40 35h1M44 35h1M53 35h2M57 35h1M50 36h1M52 36h6M48 37h1M53 37h5M40 38h1M54 38h3M40 39h1M54 39h3M41 40h1M46 40h2M49 40h2M53 40h2M44 41h10M60 44h1M59 45h2M66 45h2M35 46h2M59 46h3M66 46h3M35 47h2M61 47h6M35 48h2M34 49h2M34 50h1M56 57h1M37 58h1M39 58h1M56 58h2M57 59h1M57 60h2M38 61h1M59 63h2M37 64h2M58 64h3M37 65h3M57 65h3M37 66h3M57 66h3M37 67h3M58 67h2M38 68h1" />
<path stroke="#ffffff" d="M42 32h2M43 33h1M48 33h2M43 34h1M49 34h1M42 35h1M49 35h1M64 35h1M67 35h2M48 36h1M63 36h1M65 36h1M67 36h1M69 36h1M65 37h1M68 37h1M71 37h2M71 38h1M73 38h1M66 39h1M68 39h1M66 40h3M73 40h1M63 41h1M66 41h3M72 41h1M74 41h1M62 42h1M64 42h4M73 42h2M43 43h1M26 44h2M43 44h4M27 45h1M30 45h2M43 45h9M23 46h2M27 46h1M31 46h1M42 46h6M24 47h1M41 47h6M41 48h5M22 49h1M29 49h1M41 49h5M29 50h1M41 50h5M32 51h1M41 51h5M33 52h1M42 52h4M60 60h2M34 61h2M61 61h1M34 62h1" />
<path stroke="#cdd5d5" d="M63 35h1M65 35h1M69 35h1M64 37h1M67 37h1M69 37h1M73 37h1M65 38h2M68 38h1M70 39h3M70 40h1M74 40h1M62 41h1M65 41h1M69 41h1M43 42h1M68 42h5M44 43h8M62 43h3M66 43h5M47 44h6M68 44h3M52 45h2M26 46h1M29 46h1M52 46h3M27 47h1M29 47h3M53 47h2M24 48h2M27 48h1M29 48h2M54 48h2M25 49h1M28 49h1M39 49h1M54 49h2M23 50h1M25 50h1M27 50h2M39 50h1M54 50h2M22 51h3M26 51h4M33 51h1M54 51h2M25 52h7M46 52h1M53 52h2M25 53h5M31 53h3M43 53h5M52 53h3M26 54h3M44 54h10M45 55h7M59 61h2M35 62h2M61 62h1M34 63h2" />
<path stroke="#83d531" d="M39 36h2M64 36h1M68 36h1M39 37h2M51 37h2M39 38h1M50 38h4M72 38h1M50 39h4M36 40h4M51 40h2M35 41h5M55 41h3M73 41h1M35 42h6M54 42h4M63 42h1M35 43h5M54 43h4M55 44h2M26 45h1M30 46h1M48 46h3M23 47h1M47 47h5M46 48h1M49 48h4M46 49h1M49 49h4M22 50h1M46 50h7M46 51h6M32 52h1M48 52h3M38 53h3M37 54h5M37 55h5M38 56h3" />
<path stroke="#4a7b00" d="M36 39h3M35 40h1M55 40h4M34 41h1M54 41h1M59 41h1M34 42h1M42 42h1M52 42h2M60 42h1M34 43h1M34 44h1M59 44h1M61 44h1M35 45h2M41 45h2M62 45h4M34 46h1M37 46h1M33 47h1M37 47h1M39 47h1M67 47h1M32 48h1M39 48h1M57 48h3M61 48h1M66 48h1M39 51h1M38 52h1M57 52h1M58 53h1M43 54h1M36 55h1M44 55h1M57 55h1M35 56h1M44 56h1M35 57h4M44 57h1M55 57h1M40 58h1M43 58h1M52 58h1M40 59h2M39 60h1" />
<path stroke="#62a400" d="M40 41h1M58 41h1M41 42h1M58 42h2M40 43h2M58 43h3M35 44h7M57 44h2M37 45h4M55 45h4M38 46h3M51 46h1M56 46h3M38 47h1M52 47h1M57 47h3M53 48h1M53 49h1M53 50h1M52 51h2M39 52h3M47 52h1M51 52h2M56 52h1M37 53h1M41 53h2M48 53h4M56 53h2M36 54h1M42 54h1M55 54h3M42 55h2M54 55h3M36 56h2M41 56h3M52 56h4M39 57h5M52 57h3M41 58h2" />
<path stroke="#b4e65a" d="M47 48h2M47 49h2" />
</svg>