<svg xmlns="http://www.w3.org/2000/svg" viewBox="0 -0.5 96 96" shape-rendering="crispEdges">
<metadata>Made with Pixels to Svg https://codepen.io/shshaw/pen/XbxvNj</metadata>
<path stroke="#83bd29" d="M44 29h1M42 30h2M40 31h2M50 31h1M39 32h1M51 32h2M38 33h1M52 33h2M37 34h1M52 34h3M53 35h2M37 36h1M47 36h1M50 36h1M53 36h3M46 37h1M53 37h3M38 38h1M53 38h3M45 39h1M52 39h3M39 40h1M49 40h1M51 40h2M38 41h1M49 41h1M53 41h1M50 42h2M47 43h3M53 43h2M41 44h2M45 44h2M54 44h2M39 45h1M43 45h1M47 45h1M53 45h2M38 46h3M43 46h1M47 46h4M40 47h1M42 47h1M45 47h2M54 47h1M43 48h2M46 48h1M53 48h1M39 49h1M42 49h3M46 49h1M52 49h1M54 49h1M43 50h3M48 50h1M50 50h1M53 50h2M43 51h3M47 51h1M51 51h4M43 52h3M47 52h1M51 52h4M43 53h3M51 53h3M43 54h2M46 54h1M50 54h4M43 55h2M46 55h1M50 55h4M43 56h1M45 56h1M49 56h4M43 57h1M45 57h2M49 57h4M44 58h1M46 58h2M49 58h4M41 59h1M45 59h4M50 59h2M47 60h2M50 60h2M45 61h2M48 61h2M45 62h3M49 62h1M46 63h3M45 64h1M47 64h2M44 65h3M45 66h2" />
<path stroke="#528b00" d="M45 29h4M49 30h2M51 31h2M37 35h1M36 36h1M55 39h1M53 40h2M50 41h3M39 42h1M45 42h5M38 43h1M40 43h7M39 44h1M43 44h2M44 45h1M55 45h1M37 46h1M51 46h3M40 49h1M39 50h1M39 51h1M39 52h1M50 52h1M39 53h1M50 53h1M40 54h1M49 54h1M49 55h1M48 56h1M48 57h1M42 59h3M41 60h2M45 60h1M43 62h2M42 63h1" />
<path stroke="#acff00" d="M44 30h5M42 31h1M46 31h4M40 32h1M47 32h4M39 33h1M47 33h5M38 34h1M46 34h6M38 35h1M45 35h8M38 36h2M43 36h4M51 36h2M38 37h8M51 37h2M39 38h7M51 38h2M39 39h6M51 39h1M40 40h5M50 40h1M39 41h10M40 42h5M52 43h1M38 44h1M50 44h4M38 45h1M41 45h2M48 45h5M42 46h1M38 48h2M41 48h1M47 48h6M41 49h1M47 49h5M38 50h1M40 50h2M49 50h1M40 51h1M38 52h1M40 52h1M48 52h2M38 53h1M40 53h1M47 53h3M39 54h1M41 54h1M47 54h2M39 55h1M41 55h2M47 55h2M39 56h1M42 56h1M47 56h1M41 57h1M41 58h2M45 58h1M43 60h2M43 61h2M42 62h1M43 63h2M43 64h2" />
<path stroke="#d5ff9c" d="M43 31h3M41 32h6M40 33h7M39 34h7M39 35h6M40 36h3M37 45h1M38 49h1M42 50h1M41 51h2M41 52h2M41 53h2M42 54h1M42 61h1" />
<path stroke="#316a10" d="M53 32h1M54 33h1M55 35h1M36 40h1M37 41h1M38 42h1M39 43h1M37 44h1M40 44h1M49 44h1M36 45h1M40 45h1M41 46h1M46 46h1M39 47h1M47 47h2M53 47h1M37 48h1M40 48h1M45 49h1M51 50h1M48 51h1M37 53h1M38 54h1M45 54h1M40 55h1M41 56h1M44 56h1M42 57h1M40 58h1M43 58h1M40 59h1M46 60h1M41 61h1M47 61h1M48 62h1M45 63h1M46 64h1" />
<path stroke="#184100" d="M55 34h1M56 36h1M36 37h1M56 37h1M36 38h1M36 39h1M54 42h1M50 43h2M55 43h1M47 44h2M56 44h1M45 45h2M36 46h1M45 46h1M54 46h1M37 47h2M41 47h1M43 47h2M49 47h1M52 47h1M42 48h1M45 48h1M37 49h1M37 50h1M46 50h2M52 50h1M37 51h2M46 51h1M49 51h2M37 52h1M46 52h1M46 53h1M38 55h1M45 55h1M38 56h1M40 56h1M46 56h1M39 57h2M44 57h1M47 57h1M39 58h1M48 58h1M39 59h1M49 59h1M40 60h1M49 60h1M40 61h1M50 61h1M41 62h1M41 63h1M49 63h1M42 64h1M43 65h1M47 65h1M44 66h1M45 67h1" />
<path stroke="#393939" d="M48 36h2M47 37h1M37 38h1M46 38h1M48 38h1M38 39h1M48 39h2M37 40h2M45 40h4" />
<path stroke="#6a6a6a" d="M37 37h1M47 38h1M47 39h1" />
<path stroke="#101010" d="M48 37h3M49 38h2M56 38h1M50 39h1M56 39h1M55 40h1M54 41h1M52 42h2M56 45h1M44 46h1M55 46h1M50 47h2M55 47h1M54 48h2M53 49h1M55 49h1M55 50h1M55 51h1M55 52h1M54 53h1M54 54h1M54 55h1M53 56h1M53 57h1M53 58h1M52 59h1M52 60h1M51 61h1M50 62h2M50 63h1M49 64h1M48 65h1M47 66h1M46 67h1" />
<path stroke="#ffffff" d="M37 39h1M46 39h1" />
</svg>