<svg xmlns="http://www.w3.org/2000/svg" viewBox="0 -0.5 96 96" shape-rendering="crispEdges">
<metadata>Made with Pixels to Svg https://codepen.io/shshaw/pen/XbxvNj</metadata>
<path stroke="#b473b4" d="M33 17h2M76 17h8M30 18h3M73 18h3M27 19h3M71 19h2M77 19h1M31 20h3M39 20h3M73 20h1M29 21h2M42 21h3M65 21h1M7 22h6M19 22h1M31 22h3M38 22h1M45 22h2M63 22h1M70 22h1M13 23h1M19 23h1M33 23h2M47 23h1M69 23h1M16 24h1M18 24h1M48 24h2M17 25h2M50 25h1M67 25h1M18 26h2M63 26h2M66 26h2M19 27h2M63 27h2M66 27h2M20 28h1M64 28h3M64 29h2M64 30h2M21 31h1M55 31h1M64 31h1M55 32h1M55 33h2M54 34h4M64 34h1M54 35h4M53 36h6M23 37h1M51 37h8M25 38h1M51 38h9M51 39h9M24 40h3M45 40h2M52 40h7M26 41h2M44 41h1M52 41h7M62 41h1M27 42h2M52 42h6M28 43h2M43 43h1M52 43h5M29 44h2M52 44h4M29 45h3M53 45h2M58 45h1M31 46h2M43 46h1M57 46h1M32 47h2M38 47h1M53 47h1M29 48h1M33 48h1M38 48h1M56 48h1M28 49h3M38 49h1M52 49h2M37 50h3M52 50h2M55 50h1M28 51h1M37 51h3M52 51h2M36 52h5M51 52h3M36 53h6M49 53h5M26 54h1M31 54h1M36 54h4M41 54h1M46 54h10M60 54h1M32 55h8M41 55h1M43 55h14M60 55h1M30 56h8M40 56h3M44 56h15M28 57h8M40 57h3M44 57h16M27 58h5M40 58h3M44 58h16M26 59h4M40 59h2M46 59h15M26 60h3M40 60h2M44 60h2M47 60h12M24 61h5M39 61h2M43 61h1M45 61h12M24 62h4M39 62h1M44 62h1M47 62h9M24 63h4M39 63h1M44 63h3M49 63h4M56 63h3M61 63h1M39 64h1M43 64h6M55 64h6M62 64h1M38 65h2M43 65h6M56 65h8M38 66h1M43 66h5M60 66h5M38 67h1M44 67h4M60 67h5M38 68h1M47 68h1M60 68h5M38 69h1M45 69h1M47 69h2M60 69h5M38 70h1M45 70h1M48 70h1M61 70h1M64 70h2M37 71h2M46 71h1M49 71h1M61 71h1M65 71h1M36 72h2M61 72h1M65 72h2M36 73h2M61 73h2M66 73h2M31 74h6M62 74h2" />
<path stroke="#73396a" d="M35 17h2M36 18h1M84 18h1M18 19h2M35 19h1M63 19h3M26 20h1M34 20h5M62 20h1M69 20h2M62 21h1M68 21h1M15 22h2M21 22h1M30 22h1M34 22h4M64 22h1M6 23h1M14 23h1M20 23h1M35 23h1M39 23h2M61 23h3M7 24h3M19 24h1M21 24h1M33 24h1M41 24h2M60 24h1M67 24h1M12 25h1M15 25h2M19 25h1M43 25h1M64 25h1M68 25h1M17 26h1M44 26h1M51 26h1M59 26h1M65 26h1M45 27h1M52 27h1M60 27h1M62 27h1M65 27h1M46 28h1M53 28h1M19 29h2M22 29h1M47 29h1M54 29h1M63 29h1M23 30h1M47 30h1M55 30h1M63 30h1M23 31h1M48 31h1M56 31h1M65 31h1M21 32h1M23 32h1M56 32h1M24 33h1M24 34h1M62 34h1M22 35h1M24 35h1M49 35h1M64 35h1M25 36h1M50 36h1M25 37h1M61 37h1M26 38h1M26 39h1M50 39h1M60 39h1M63 39h1M27 40h1M51 40h1M25 41h1M47 41h1M59 41h1M44 42h1M47 42h1M58 42h1M61 42h1M57 43h1M60 43h1M43 44h1M48 44h1M56 44h1M26 45h1M28 45h1M43 45h1M50 45h3M55 45h1M26 46h1M29 46h1M34 46h1M38 46h1M41 46h2M53 46h3M26 47h1M34 47h1M41 47h1M54 47h1M27 48h1M40 48h1M53 48h1M27 49h1M31 49h2M39 49h1M27 50h3M31 50h1M27 51h1M35 51h2M34 52h1M27 54h1M34 54h1M40 54h1M24 55h3M42 55h1M21 56h3M39 56h1M43 56h1M20 57h1M36 57h1M19 58h1M26 58h1M32 58h1M43 58h1M19 59h1M30 59h1M42 59h1M45 59h1M61 59h1M25 60h1M30 60h2M39 60h1M43 60h1M46 60h1M61 60h1M29 61h1M32 61h1M44 61h1M57 61h1M62 61h1M32 62h1M38 62h1M40 62h1M43 62h1M45 62h2M62 62h1M23 63h1M32 63h1M38 63h1M43 63h1M47 63h2M53 63h1M31 64h1M38 64h1M42 64h1M31 65h1M37 65h1M42 65h1M30 66h1M39 66h1M42 66h1M58 66h2M65 66h1M30 67h1M43 67h1M29 68h1M37 68h1M45 68h2M46 69h1M59 69h1M35 70h2M44 70h1M46 70h2M49 70h1M60 70h1M62 70h1M39 71h1M45 71h1M48 71h1M60 71h1M64 71h1M38 72h1M38 73h1M30 74h1M37 74h1M62 75h1" />
<path stroke="#ffc5f6" d="M33 18h3M30 19h5M18 20h2M63 20h2M20 21h1M63 21h1M7 23h6M15 23h2M64 23h1M13 24h1M15 24h1M20 24h1M61 24h1M20 25h3M60 25h2M21 26h1M60 26h1M45 41h2M45 42h2M44 43h3M44 44h2M44 45h2M44 46h3M42 47h5M41 48h5M40 49h5M30 50h1M41 50h3M29 51h2M28 52h5M27 53h5M28 54h3M27 55h1M24 56h3M21 57h5M21 58h3" />
<path stroke="#dea4d5" d="M76 18h8M73 19h4M27 20h4M65 20h1M71 20h2M18 21h2M31 21h11M64 21h1M69 21h3M20 22h1M39 22h6M68 22h2M21 23h1M41 23h6M65 23h1M67 23h2M12 24h1M17 24h1M43 24h5M62 24h1M64 24h3M68 24h1M44 25h6M62 25h1M65 25h2M22 26h1M45 26h6M61 26h1M46 27h6M21 28h1M47 28h6M21 29h1M48 29h6M21 30h2M48 30h7M22 31h1M49 31h6M63 31h1M22 32h1M49 32h6M63 32h2M22 33h2M50 33h5M63 33h2M22 34h2M50 34h4M63 34h1M23 35h1M50 35h4M62 35h2M23 36h2M51 36h2M62 36h2M24 37h1M62 37h2M24 38h1M61 38h3M24 39h2M61 39h2M60 40h3M60 41h2M59 42h2M37 43h1M47 43h1M58 43h2M37 44h1M46 44h2M57 44h2M36 45h2M46 45h4M56 45h2M27 46h1M36 46h2M47 46h6M56 46h1M27 47h2M35 47h3M47 47h6M55 47h2M28 48h1M35 48h3M46 48h7M54 48h2M34 49h4M45 49h7M54 49h2M32 50h5M44 50h8M54 50h1M31 51h4M40 51h1M42 51h10M54 51h1M27 52h1M41 52h1M43 52h8M54 52h1M43 53h6M54 53h1M43 54h3M28 55h4M27 56h3M26 57h2M20 58h1M24 58h2M20 59h5M20 60h5M59 60h2M21 61h3M58 61h4M22 62h2M57 62h5M59 63h2M29 69h1M37 69h1M37 70h1M28 71h1M36 71h1M28 72h2M34 72h2M29 73h7" />
<path stroke="#18089c" d="M78 19h1M83 19h1M79 22h1M70 23h1M79 23h1M78 24h1M78 25h1M77 26h1M77 27h1M10 28h1M77 28h1M11 29h1M76 29h1M12 30h1M76 30h1M12 31h1M76 31h1M13 32h1M76 32h1M13 33h1M76 33h1M14 34h1M75 34h1M14 35h1M75 35h1M14 36h1M75 36h1M15 37h1M75 37h1M15 38h1M75 38h1M15 39h1M75 39h1M15 40h1M21 40h2M64 40h1M75 40h1M14 41h1M19 41h2M65 41h2M75 41h1M14 42h1M17 42h2M62 42h1M67 42h2M76 42h1M13 43h1M15 43h2M70 43h2M76 43h1M13 44h2M72 44h2M77 44h1M12 45h6M74 45h2M78 45h1M18 46h5M72 46h7M23 47h2M67 47h5M25 48h1M65 48h2M26 49h1M63 49h2M62 50h1M61 51h1M60 52h1M60 53h1M56 54h1M59 54h1M57 55h3" />
<path stroke="#000000" d="M79 19h4M17 20h1M20 20h1M66 20h1M74 20h3M81 20h1M17 21h1M21 21h1M27 21h2M66 21h1M72 21h2M80 21h1M18 22h1M29 22h1M65 22h3M71 22h1M17 23h2M22 23h1M31 23h2M66 23h1M10 24h2M14 24h1M22 24h1M34 24h2M63 24h1M69 24h1M8 25h1M13 25h2M23 25h1M59 25h1M63 25h1M9 26h1M16 26h1M20 26h1M23 26h1M62 26h1M68 26h1M10 27h1M18 27h1M21 27h2M61 27h1M68 27h1M19 28h1M22 28h1M63 28h1M67 28h1M66 29h1M20 30h1M66 30h1M20 31h1M62 31h1M48 32h1M57 32h1M62 32h1M65 32h1M21 33h1M49 33h1M57 33h1M62 33h1M65 33h1M21 34h1M49 34h1M58 34h1M65 34h1M58 35h1M61 35h1M22 36h1M59 36h1M61 36h1M64 36h1M22 37h1M50 37h1M59 37h1M64 37h1M23 38h1M50 38h1M60 38h1M23 39h1M23 40h1M59 40h1M63 40h1M24 41h1M28 41h1M51 41h1M63 41h1M26 42h1M29 42h1M37 42h2M51 42h1M27 43h1M30 43h1M36 43h1M38 43h1M48 43h1M51 43h1M28 44h1M31 44h1M36 44h1M38 44h1M49 44h1M51 44h1M59 44h1M27 45h1M32 45h1M35 45h1M38 45h1M28 46h1M30 46h1M33 46h1M35 46h1M58 46h1M29 47h1M31 47h1M39 47h1M57 47h1M30 48h1M32 48h1M34 48h1M39 48h1M57 48h1M33 49h1M56 49h1M40 50h1M56 50h1M41 51h1M55 51h1M62 51h1M26 52h1M33 52h1M42 52h1M55 52h1M61 52h1M26 53h1M32 53h1M42 53h1M55 53h1M61 53h1M32 54h1M42 54h1M61 54h1M40 55h1M61 55h1M38 56h1M59 56h2M37 57h1M39 57h1M43 57h1M60 57h1M33 58h3M39 58h1M60 58h1M25 59h1M31 59h1M39 59h1M43 59h2M19 60h1M29 60h1M38 60h1M42 60h1M20 61h1M38 61h1M41 61h1M21 62h1M28 62h1M56 62h1M22 63h1M28 63h1M40 63h1M54 63h2M62 63h1M24 64h4M40 64h1M49 64h4M54 64h1M61 64h1M63 64h1M40 65h1M49 65h1M55 65h1M64 65h1M37 66h1M48 66h1M56 66h2M37 67h1M39 67h1M48 67h1M59 67h1M65 67h1M39 68h1M44 68h1M48 68h1M59 68h1M65 68h1M28 69h1M36 69h1M39 69h1M44 69h1M49 69h1M65 69h1M27 70h2M39 70h1M63 70h1M66 70h1M27 71h1M29 71h1M34 71h2M47 71h1M50 71h1M62 71h1M66 71h1M27 72h1M30 72h4M46 72h2M49 72h2M60 72h1M62 72h1M64 72h1M67 72h1M28 73h1M60 73h1M63 73h1M65 73h1M68 73h1M29 74h1M61 74h1M64 74h1M66 74h3M31 75h6M63 75h2" />
<path stroke="#1020bd" d="M77 20h1M74 21h3M72 22h3M71 23h3M70 24h3M9 25h3M69 25h3M10 26h6M69 26h2M11 27h7M69 27h1M11 28h8M68 28h2M12 29h7M67 29h2M13 30h7M67 30h1M13 31h7M66 31h2M14 32h7M66 32h2M14 33h7M66 33h2M15 34h6M66 34h2M15 35h7M65 35h2M15 36h7M65 36h2M16 37h6M65 37h2M16 38h7M64 38h2M16 39h5M64 39h2M16 40h3M65 40h1M15 41h2M21 41h3M64 41h1M67 41h1M19 42h7M63 42h4M69 42h1M17 43h10M61 43h9M15 44h13M60 44h12M18 45h8M59 45h15M23 46h3M59 46h13M25 47h1M30 47h1M58 47h9M26 48h1M31 48h1M58 48h7M57 49h6M57 50h5M56 51h5M56 52h4M56 53h4M57 54h2" />
<path stroke="#4162ff" d="M78 20h3M77 21h3M75 22h4M74 23h5M73 24h5M72 25h6M71 26h6M70 27h7M70 28h7M69 29h7M68 30h8M68 31h8M68 32h8M68 33h8M68 34h7M67 35h8M67 36h8M67 37h8M66 38h9M21 39h2M67 39h8M19 40h2M68 40h7M17 41h2M70 41h5M15 42h2M72 42h4M14 43h1M74 43h2M76 44h1M77 45h1" />
<path stroke="#6a94ff" d="M66 39h1M66 40h2M68 41h2M70 42h2M72 43h2M74 44h2M76 45h1" />
<path stroke="#cdcdcd" d="M35 52h1M34 53h1M32 64h1M30 68h1M36 68h1M29 70h1" />
<path stroke="#317329" d="M33 53h1M33 54h1" />
<path stroke="#ffffff" d="M35 53h1M35 54h1M37 64h1M36 67h1M34 70h1" />
<path stroke="#832041" d="M38 57h1M36 58h3M32 59h7M32 60h6M34 61h2M31 67h1M31 68h1M31 69h1M35 69h1M30 70h4M30 71h4" />
<path stroke="#cd394a" d="M33 61h1M36 61h2M33 62h5M33 63h2M33 64h1M31 66h1M30 69h1M32 69h1" />
<path stroke="#e68b9c" d="M35 63h3M34 64h3M32 65h5M32 66h5M32 67h4M32 68h4M33 69h2" />
</svg>