<svg xmlns="http://www.w3.org/2000/svg" viewBox="0 -0.5 96 96" shape-rendering="crispEdges">
<metadata>Made with Pixels to Svg https://codepen.io/shshaw/pen/XbxvNj</metadata>
<path stroke="#d50808" d="M54 13h3M55 14h4M14 15h2M56 15h4M13 16h3M56 16h4M11 17h4M57 17h4M10 18h5M57 18h4M9 19h4M56 19h5M10 20h3M55 20h5M10 21h3M55 21h2M58 21h2M10 22h2M14 22h2M54 22h2M58 22h3M10 23h2M13 23h3M57 23h6M9 24h6M43 24h2M47 24h1M57 24h6M9 25h5M44 25h4M57 25h7M10 26h1M45 26h2M58 26h6M89 26h1M10 27h1M46 27h1M55 27h1M58 27h5M87 27h1M89 27h2M10 28h1M47 28h1M54 28h2M58 28h4M87 28h4M9 29h3M14 29h1M53 29h6M86 29h4M9 30h3M13 30h1M18 30h1M52 30h8M86 30h4M9 31h2M17 31h2M52 31h2M57 31h3M77 31h1M85 31h6M9 32h1M18 32h2M52 32h1M58 32h2M75 32h3M83 32h1M85 32h1M87 32h4M12 33h1M16 33h1M18 33h2M57 33h2M74 33h2M77 33h2M81 33h1M83 33h2M87 33h4M12 34h3M18 34h1M56 34h2M75 34h1M78 34h1M84 34h1M88 34h1M12 35h4M19 35h1M54 35h1M79 35h1M87 35h1M13 36h1M19 36h1M79 36h1M86 36h1M19 37h1M67 37h1M71 37h1M79 37h1M67 38h1M71 38h2M66 39h2M72 39h2M22 40h1M26 40h1M53 40h1M66 40h1M71 40h2M17 41h1M20 41h2M26 41h1M52 41h3M65 41h1M18 42h1M22 42h1M25 42h3M31 42h1M54 42h1M21 43h1M23 43h2M27 43h5M40 43h1M47 43h1M21 44h3M28 44h4M39 44h2M46 44h2M50 44h1M61 44h1M20 45h4M27 45h4M40 45h1M44 45h3M49 45h2M55 45h1M61 45h3M20 46h2M25 46h3M43 46h3M49 46h1M54 46h2M62 46h1M25 47h3M43 47h2M48 47h2M54 47h1M25 48h2M43 48h5M51 48h2M21 49h1M26 49h4M43 49h1M45 49h3M50 49h2M21 50h1M27 50h1M29 50h2M32 50h2M36 50h1M45 50h3M50 50h2M20 51h1M26 51h2M30 51h4M35 51h2M39 51h1M44 51h4M49 51h1M51 51h1M25 52h1M31 52h6M40 52h1M43 52h3M51 52h1M25 53h1M30 53h3M34 53h1M40 53h2M44 53h3M24 54h1M30 54h2M43 54h5M46 55h1M51 59h1M50 60h1" />
<path stroke="#ac4a52" d="M9 18h1M8 19h1M9 21h1M9 22h1M6 23h1M9 23h1M8 24h1M8 25h1M5 26h1M9 26h1M9 27h1M9 28h1M4 29h1M4 30h1M8 30h1M4 31h1M8 31h1M5 32h1M8 32h1M5 33h1M9 33h1M5 34h1M11 34h1M90 34h1M5 35h1M5 36h1M12 36h1M82 36h1M89 36h1M6 37h1M11 37h1M83 37h1M85 37h1M6 38h1M12 38h2M81 38h1M84 38h1M14 39h1M79 39h2M13 40h1M77 40h2M87 40h1M7 41h1M12 41h2M71 41h1M75 41h2M87 41h1M15 42h1M70 42h1M72 42h1M74 42h1M86 42h1M18 43h1M70 43h1M73 43h1M85 43h1M10 44h1M18 44h1M69 44h1M73 44h1M83 44h2M19 45h1M66 45h3M80 45h1M65 46h1M68 46h1M77 46h1M13 47h1M64 47h1M15 48h1M61 48h3M74 48h2M16 49h1M60 49h1M71 49h3M17 50h1M54 50h3M59 50h1M70 50h1M50 51h1M53 51h1M57 51h2M68 51h2M27 52h2M49 52h1M52 52h1M66 52h1M29 53h1M35 53h5M48 53h1M51 53h1M29 54h1M33 54h2M40 54h2M48 54h1M63 54h1M31 55h1M44 55h2M47 55h1M58 55h1M24 56h1M29 56h1M42 56h2M46 56h1M54 56h1M25 57h1M41 57h1M52 57h1M26 58h3M40 58h1M49 58h1M25 59h1M47 59h1M45 60h1M49 60h1M44 61h1M41 62h1M28 63h1M38 63h3M25 64h1M28 64h1M31 64h1M25 65h1M29 65h1M28 66h1M32 67h1M48 67h1M34 68h1M40 68h1M37 69h3M44 70h1" />
<path stroke="#000000" d="M7 20h1M6 21h1M6 22h1M5 24h1M5 25h1M4 27h1M4 28h1M90 35h1M89 37h1M89 38h1M6 39h1M88 39h1M6 40h1M7 42h1M9 43h1M10 45h1M81 45h2M11 46h1M78 46h3M12 47h1M76 47h2M14 48h1M15 49h1M67 52h1M65 53h1M32 54h1M42 54h1M64 54h1M30 55h1M43 55h1M59 55h4M23 56h1M55 56h3M24 57h1M28 57h1M53 57h1M22 58h1M25 58h1M50 58h2M23 59h2M48 59h2M46 60h1M50 61h1M42 62h2M50 62h1M18 63h1M29 63h2M50 63h1M18 64h1M26 64h2M50 64h1M17 65h1M24 65h1M27 65h1M49 65h1M12 66h1M23 66h1M30 66h1M49 66h1M12 67h1M21 67h2M27 67h2M31 67h1M16 68h5M33 68h1M48 68h1M11 69h1M15 69h1M17 69h1M27 69h1M34 69h3M40 69h2M47 69h1M14 70h1M16 70h1M26 70h1M32 70h1M41 70h3M48 70h1M15 71h1M25 71h1M31 71h1M44 71h1M49 71h1M13 72h1M25 72h1M28 72h1M30 72h1M44 72h1M50 72h1M9 73h1M12 73h1M28 73h1M30 73h1M44 73h1M50 73h1M11 74h1M28 74h1M30 74h1M44 74h1M10 75h1M43 75h1M43 76h1M49 77h1M42 78h1M49 78h1M42 79h1M47 79h1M50 79h1M43 80h1M47 80h1M44 81h1M46 81h1" />
<path stroke="#e68ba4" d="M8 20h2M7 21h2M7 22h2M7 23h2M6 24h2M6 25h2M6 26h1M8 26h1M5 27h1M5 28h1M5 29h1M8 29h1M5 30h1M5 31h1M7 31h1M10 34h1M11 35h1M81 37h1M86 37h1M85 38h1M88 38h1M85 39h1M80 40h1M11 41h1M86 41h1M14 42h1M75 42h2M10 43h1M70 44h1M11 45h1M14 45h3M70 45h1M12 46h7M14 47h7M68 47h1M16 48h5M64 48h1M17 49h4M64 49h1M18 50h3M69 50h1M54 51h1M59 51h1M67 51h1M26 52h1M50 52h1M53 52h1M58 52h1M62 52h4M26 53h3M49 53h2M52 53h2M56 53h3M60 53h5M25 54h4M49 54h14M25 55h5M32 55h1M42 55h1M48 55h10M25 56h4M30 56h2M44 56h2M47 56h7M26 57h2M29 57h2M42 57h10M29 58h1M41 58h8M26 59h1M39 59h8M39 60h6M47 60h2M38 61h6M45 61h5M20 62h1M37 62h4M44 62h6M27 63h1M34 63h4M41 63h9M29 64h2M32 64h18M28 65h1M30 65h19M29 66h1M31 66h18M33 67h15M35 68h5M41 68h7M42 69h5M45 70h1" />
<path stroke="#ee6239" d="M57 21h1M49 22h2M53 22h1M56 22h2M47 23h4M53 23h2M56 23h1M42 24h1M48 24h6M56 24h1M41 25h3M48 25h1M53 25h1M56 25h1M11 26h2M41 26h1M44 26h1M47 26h1M54 26h4M11 27h1M41 27h1M45 27h1M47 27h1M53 27h2M56 27h2M42 28h2M46 28h1M48 28h1M51 28h3M56 28h2M43 29h2M46 29h2M51 29h2M12 30h1M43 30h1M50 30h2M11 31h3M43 31h1M50 31h2M54 31h3M10 32h3M17 32h1M42 32h1M47 32h5M53 32h1M56 32h2M64 32h1M86 32h1M10 33h2M17 33h1M42 33h1M46 33h7M55 33h2M64 33h2M73 33h1M76 33h1M82 33h1M85 33h2M16 34h2M42 34h1M48 34h3M52 34h4M64 34h2M73 34h2M80 34h2M83 34h1M85 34h3M16 35h3M43 35h1M51 35h3M72 35h1M74 35h2M78 35h1M80 35h1M84 35h3M14 36h2M18 36h1M42 36h2M50 36h4M71 36h2M80 36h1M84 36h2M12 37h4M18 37h1M39 37h3M49 37h5M72 37h2M84 37h1M17 38h1M38 38h1M52 38h4M68 38h1M73 38h1M78 38h2M17 39h1M38 39h1M50 39h7M68 39h2M74 39h1M77 39h2M14 40h1M17 40h1M38 40h1M48 40h5M54 40h2M67 40h4M73 40h4M14 41h2M18 41h1M39 41h1M48 41h2M51 41h1M66 41h1M70 41h1M72 41h3M16 42h2M19 42h3M40 42h1M44 42h1M47 42h2M51 42h3M65 42h1M73 42h1M19 43h2M25 43h2M41 43h1M43 43h4M48 43h1M50 43h4M64 43h2M69 43h1M19 44h2M24 44h4M38 44h1M41 44h5M48 44h2M51 44h3M64 44h2M26 45h1M37 45h3M41 45h3M47 45h2M51 45h2M60 45h1M64 45h1M22 46h1M37 46h6M46 46h3M56 46h1M59 46h1M61 46h1M63 46h2M21 47h1M37 47h3M41 47h2M45 47h3M55 47h1M57 47h2M62 47h2M21 48h1M24 48h1M38 48h2M42 48h1M53 48h3M22 49h1M25 49h1M39 49h2M42 49h1M44 49h1M52 49h3M22 50h1M25 50h2M28 50h1M39 50h6M49 50h1M52 50h2M57 50h2M18 51h2M21 51h1M25 51h1M28 51h2M40 51h4M48 51h1M52 51h1M17 52h5M24 52h1M29 52h2M41 52h2M46 52h3M16 53h1M20 53h1M23 53h2M33 53h1M42 53h2M47 53h1M13 54h1M22 54h2M12 55h1M22 55h3M11 56h1M18 56h2M21 56h2M11 57h1M17 57h6M12 58h1M17 58h5M12 59h1M16 59h3M50 59h1M12 60h1M15 60h2M11 61h1M15 61h2M11 62h1M14 62h2M11 63h1M13 63h3M12 64h2" />
<path stroke="#ffa44a" d="M55 23h1M54 24h2M49 25h1M52 25h1M54 25h2M42 26h2M48 26h1M53 26h1M42 27h2M48 27h1M52 27h1M44 28h1M48 29h1M50 29h1M44 30h1M48 30h1M46 31h4M46 32h1M54 32h2M45 33h1M53 33h2M45 34h3M51 34h1M76 34h2M82 34h1M45 35h4M73 35h1M81 35h3M16 36h2M44 36h3M49 36h1M73 36h3M78 36h1M81 36h1M83 36h1M16 37h2M43 37h3M48 37h1M74 37h3M78 37h1M80 37h1M14 38h3M39 38h1M43 38h3M51 38h1M74 38h4M80 38h1M15 39h2M39 39h1M44 39h1M49 39h1M75 39h2M15 40h2M39 40h1M16 41h1M47 41h1M50 41h1M67 41h3M43 42h1M45 42h2M49 42h2M66 42h1M69 42h1M42 43h1M49 43h1M66 43h1M68 44h1M24 45h2M65 45h1M23 46h1M60 46h1M24 47h1M40 47h1M56 47h1M61 47h1M40 48h2M56 48h2M60 48h1M24 49h1M41 49h1M55 49h2M58 49h2M23 52h1M14 54h3M15 55h3M19 55h1M21 55h1M15 56h3M20 56h1M14 57h3M16 58h1M15 59h1" />
<path stroke="#ffd562" d="M50 25h2M49 26h4M44 27h1M49 27h3M45 28h1M49 28h2M45 29h1M49 29h1M45 30h3M49 30h1M44 31h2M43 32h3M43 33h2M43 34h2M44 35h1M49 35h2M76 35h2M47 36h2M76 36h2M42 37h1M46 37h2M77 37h1M40 38h3M46 38h5M40 39h4M45 39h4M40 40h8M40 41h7M41 42h2M67 42h2M67 43h2M66 44h2M24 46h1M22 47h2M59 47h2M22 48h2M58 48h2M23 49h1M57 49h1M23 50h2M22 51h3M22 52h1M17 53h3M21 53h2M17 54h5M13 55h2M18 55h1M20 55h1M12 56h3M12 57h2M13 58h3M13 59h2M13 60h2M12 61h3M12 62h2M12 63h1" />
<path stroke="#ffbdc5" d="M7 26h1M6 27h3M6 28h3M6 29h2M6 30h2M6 31h1M6 32h2M6 33h3M6 34h4M89 34h1M6 35h5M88 35h2M6 36h6M87 36h2M7 37h4M82 37h1M87 37h2M7 38h5M82 38h2M86 38h2M7 39h7M81 39h1M84 39h1M86 39h2M7 40h6M79 40h1M81 40h1M85 40h2M8 41h3M77 41h1M80 41h1M84 41h2M8 42h6M71 42h1M82 42h4M11 43h7M71 43h2M74 43h3M80 43h5M11 44h7M72 44h1M74 44h3M78 44h5M12 45h2M17 45h2M69 45h1M73 45h7M19 46h1M66 46h2M69 46h1M73 46h4M65 47h3M69 47h1M72 47h4M65 48h2M69 48h5M61 49h3M65 49h1M68 49h3M60 50h9M55 51h2M60 51h7M54 52h4M59 52h3M54 53h2M59 53h1M35 54h5M37 55h5M38 56h4M31 57h1M38 57h3M30 58h3M36 58h4M19 59h4M27 59h12M17 60h22M17 61h2M21 61h17M16 62h2M21 62h16M16 63h1M20 63h7M31 63h3M14 64h2M20 64h5M15 65h1M19 65h5M17 66h6M18 67h3" />
<path stroke="#ffdee6" d="M82 39h2M82 40h3M78 41h2M81 41h3M77 42h5M77 43h3M71 44h1M77 44h1M71 45h2M70 46h3M70 47h2M67 48h2M66 49h2M33 55h4M32 56h6M32 57h6M33 58h3" />
<path stroke="#830000" d="M19 61h1M18 62h1M17 63h1M16 64h1M13 65h2M16 65h1M15 66h2M17 67h1M29 67h2M12 68h1M26 68h3M25 69h1M33 69h1M11 70h1M25 70h1M29 70h1M31 70h1M46 70h2M10 71h1M13 71h1M28 71h1M48 71h1M10 72h1M14 72h1M48 72h1M13 73h1M48 73h1M9 74h1M48 74h1M9 75h1M45 75h1M49 75h1M45 76h1M47 76h1M49 76h1M42 77h1M44 77h1M47 77h1M44 78h1M47 78h1M44 79h1M48 79h1M45 80h1" />
<path stroke="#ac1810" d="M20 61h1M14 66h1M16 67h1M29 68h4M16 69h1M26 69h1M30 69h1M32 69h1M15 70h1M14 71h1M26 71h1M45 71h3M12 72h1M26 72h2M46 72h2M49 72h1M11 73h1M29 73h1M46 73h2M10 74h1M46 74h2M47 75h1M46 77h1M43 78h1M46 78h1M48 78h1M43 79h1M46 79h1" />
<path stroke="#cdcdcd" d="M19 62h1" />
<path stroke="#ffffff" d="M19 63h1M17 64h1M19 64h1M18 65h1M27 73h1M49 73h1M29 74h1M49 79h1M44 80h1M47 81h1" />
<path stroke="#de4139" d="M13 66h1M13 67h3M13 68h3M12 69h3M28 69h2M31 69h1M12 70h2M27 70h2M30 70h1M11 71h2M27 71h1M29 71h2M11 72h1M29 72h1M45 72h1M10 73h1M45 73h1M45 74h1M44 75h1M46 75h1M48 75h1M44 76h1M46 76h1M48 76h1M43 77h1M45 77h1M48 77h1M45 78h1M45 79h1M46 80h1" />
<path stroke="#626262" d="M26 73h1M27 74h1M49 74h1M29 75h1M49 80h2M45 81h1M46 82h2" />
</svg>