<svg xmlns="http://www.w3.org/2000/svg" viewBox="0 -0.5 96 96" shape-rendering="crispEdges">
<metadata>Made with Pixels to Svg https://codepen.io/shshaw/pen/XbxvNj</metadata>
<path stroke="#9c948b" d="M54 26h2M53 27h1M55 27h1M52 28h1M55 28h1M52 29h1M41 30h1M51 30h1M40 31h1M51 31h1M40 32h1M55 32h1M58 32h3M56 33h1M56 36h1M55 37h1M55 38h1M50 40h1M52 51h1M33 61h2M35 62h3" />
<path stroke="#ffffff" d="M54 27h1M53 28h2M53 29h2M52 30h3M41 31h1M52 31h3M41 32h1M51 32h3M41 33h1M51 33h3M58 33h2M41 34h1M51 34h3M56 34h3M51 35h3M55 35h3M52 36h4M52 37h3M42 38h2M48 38h1M53 38h2M42 39h2M48 39h1M45 42h4M44 43h5M43 44h6M43 45h5M43 46h4M55 48h2M55 49h2M54 50h4M53 51h6M53 52h6M53 53h7M53 54h7M30 55h1M53 55h7M30 56h1M53 56h8M53 57h8M53 58h8M53 59h8M53 60h8M53 61h8M52 62h8M52 63h7M53 64h4" />
<path stroke="#5a5a5a" d="M55 29h1M42 30h1M55 30h1M55 31h1M50 32h1M56 32h2M40 33h1M50 33h1M60 33h1M40 34h1M59 34h1M39 35h1M59 36h1M60 37h1M39 38h1M58 38h2M56 39h2M45 41h3M44 42h1M43 43h1M50 43h1M42 44h1M42 45h1M42 46h1M43 47h1M44 48h1M51 51h1" />
<path stroke="#000000" d="M42 31h1M42 32h1M43 33h1M43 34h1M58 35h1M39 36h1M58 36h1M39 37h1M48 37h2M47 38h1M49 38h2M47 39h1M49 39h3M53 39h3M48 40h2M51 40h1M41 41h1M48 41h3M41 42h2M49 42h1M50 44h1M50 45h1M49 46h1M48 47h1M60 47h1M45 48h5M50 49h1M61 49h1M51 50h1M62 51h1M62 52h1M52 53h1M42 54h5M52 54h1M63 56h1M63 57h1M63 58h1M30 59h1M63 59h1M31 60h1M63 60h1M32 61h1M42 61h1M63 61h1M34 62h1M39 62h1M44 62h2M62 62h1M35 63h3M46 63h1M62 63h1M47 64h1M62 64h1M61 65h1M48 66h1M49 67h1M60 67h1M51 68h1M58 68h2M53 69h5" />
<path stroke="#ded5de" d="M54 32h1M42 33h1M54 33h2M57 33h1M42 34h1M54 34h2M40 35h2M54 35h1M40 36h1M57 36h1M40 37h1M56 37h4M56 38h2M49 43h1M49 44h1M48 45h2M47 46h2M44 47h4M52 47h3M51 48h4M51 49h4M57 49h1M52 50h2M58 50h1M59 52h1M30 54h1M60 55h1M30 57h1M31 58h1M31 59h1M32 60h1M52 61h1M46 62h1M60 62h1M47 63h1M51 63h1M59 63h2M48 64h5M57 64h3M49 65h11M49 66h11M50 67h9M52 68h6" />
<path stroke="#b43983" d="M45 33h2M44 34h1M42 35h1M41 36h1M47 37h1M40 38h1M44 38h1M44 39h1M42 40h2M51 45h1M50 46h3M49 47h3M50 48h1M32 50h1M31 51h1M32 52h1M41 55h6M48 55h1M42 56h4M47 56h1M49 56h1M35 57h1M42 57h5M48 57h1M41 58h5M47 58h1M49 58h1M52 58h1M62 58h1M40 59h7M48 59h1M62 59h1M33 60h1M38 60h10M50 60h1M61 60h2M35 61h5M44 61h4M61 61h2M47 62h1M61 62h1M61 63h1M60 64h2M60 65h1M60 66h1M59 67h1" />
<path stroke="#941862" d="M47 33h3M50 34h1M50 35h1M51 36h1M41 37h1M51 37h1M52 38h1M40 39h1M40 40h1M56 40h1M56 41h1M57 42h1M42 43h1M57 43h1M58 44h1M59 45h1M60 46h1M61 48h1M33 50h1M62 50h1M33 51h1M30 52h1M52 52h1M30 53h1M32 53h1M62 53h1M29 54h1M32 54h1M41 54h1M47 54h1M63 54h1M29 55h1M33 55h1M40 55h1M49 55h2M52 55h1M63 55h1M29 56h1M34 56h2M38 56h2M51 56h2M29 57h1M36 57h2M52 57h1M30 58h1M51 58h1M51 59h1M40 61h2M43 61h1M33 62h1M38 62h1M48 65h1M61 66h1M50 68h1M52 69h1" />
<path stroke="#ffa4ee" d="M45 34h2M43 35h5M42 36h6M42 37h1M44 37h3M41 38h1M45 38h1" />
<path stroke="#ee83cd" d="M47 34h3M48 35h2M48 36h3M43 37h1M46 38h1M51 38h1M41 39h1M45 39h2M52 39h1M41 40h1M44 40h4M52 40h2M42 41h3M51 41h3M43 42h1M50 42h4M51 43h3M51 44h2M32 51h1M31 52h1M31 53h1M31 54h1M31 55h2M31 56h2M31 57h2M52 59h1M51 60h2M51 61h1M51 62h1M50 63h1" />
<path stroke="#d55abd" d="M50 37h1M54 40h2M54 41h2M54 42h3M54 43h3M53 44h5M52 45h7M53 46h7M55 47h5M57 48h4M58 49h3M59 50h3M59 51h3M60 52h2M60 53h2M60 54h3M47 55h1M61 55h2M33 56h1M40 56h2M46 56h1M48 56h1M50 56h1M61 56h2M33 57h2M38 57h4M47 57h1M49 57h3M61 57h2M32 58h9M46 58h1M48 58h1M50 58h1M61 58h1M32 59h8M47 59h1M49 59h2M61 59h1M34 60h4M48 60h2M48 61h3M48 62h3M48 63h2" />
</svg>