<svg xmlns="http://www.w3.org/2000/svg" viewBox="0 -0.5 96 96" shape-rendering="crispEdges">
<metadata>Made with Pixels to Svg https://codepen.io/shshaw/pen/XbxvNj</metadata>
<path stroke="#7b1029" d="M49 15h3M39 16h2M49 16h1M38 17h1M41 17h1M50 17h2M38 18h1M42 18h1M49 18h4M40 19h4M52 19h1M39 20h1M43 20h1M43 21h2M52 21h1M40 22h1M44 22h1M52 22h1M44 23h1M52 23h1M52 24h1M45 25h1M46 27h3M50 28h1M41 30h1M53 30h1M40 31h1M40 32h1M39 33h1M44 33h1M59 33h1M37 34h2M55 34h3M60 34h1M53 35h2M61 35h1M34 36h2M61 36h1M61 37h1M61 38h1M34 39h1M35 41h1M49 52h1M49 53h2M43 54h1M49 54h2M53 54h1M48 55h1M47 56h1M51 56h1M47 57h1M51 57h1M45 58h1M45 59h1M44 60h1M42 61h2M49 63h2M47 64h5M48 65h5M43 66h2M49 66h4M32 67h2M41 67h5M49 67h3M32 68h1M41 68h5M50 68h2M31 69h1M42 69h5M50 69h2M31 70h1M42 70h5M50 70h1M31 71h1M42 71h5M50 71h1M31 72h1M42 72h5M49 72h1M42 73h5M32 74h1M41 74h5M33 75h1M40 75h6M35 76h9" />
<path stroke="#410000" d="M48 16h1M48 17h1M48 18h1M49 19h1M51 19h1M40 20h3M52 20h1M42 21h1M45 33h1M43 50h1" />
<path stroke="#ac415a" d="M50 16h2M39 17h2M49 17h1M39 18h3M39 19h1M52 29h1M35 33h2M58 33h1M34 34h1M43 34h1M46 34h1M33 35h1M35 35h1M33 36h1M37 39h1M37 40h1M53 50h1M51 51h1M53 51h1M42 52h1M45 52h1M51 52h1M54 52h1M43 53h1M53 53h2M42 54h1M54 54h1M49 55h2M48 56h3M48 57h3M46 58h1M50 58h2M52 60h1M44 61h4M42 62h8M45 63h4M51 63h1M36 64h6M52 64h1M34 65h10M33 66h10M48 66h1M40 67h1M49 68h1M49 71h1M48 73h1M46 74h1M46 75h1" />
<path stroke="#101010" d="M52 16h1M42 17h1M52 17h1M43 18h1M53 18h1M38 19h1M44 19h1M48 19h1M53 19h1M38 20h1M44 20h1M48 20h1M53 20h1M39 21h1M45 21h1M48 21h1M53 21h1M39 22h1M45 22h1M48 22h1M53 22h1M40 23h1M45 23h1M48 23h1M53 23h1M41 24h1M45 24h1M48 24h1M53 24h1M42 25h2M46 25h1M49 25h1M52 25h1M44 26h1M46 26h1M49 26h1M52 26h1M45 27h1M49 27h1M51 27h1M51 28h1M43 31h1M48 31h1M54 31h1M43 32h1M48 32h1M54 32h1M55 33h1M57 35h1M58 36h2M33 37h1M33 38h1M61 39h1M34 40h1M60 40h1M37 41h1M60 41h1M35 42h1M37 42h1M59 42h1M37 43h1M58 43h1M57 44h1M56 45h1M56 46h1M55 47h1M54 48h1M53 49h1M42 50h1M54 50h1M42 51h1M44 51h1M49 51h2M54 51h1M41 52h1M46 52h1M48 52h1M50 52h1M55 52h1M41 53h1M45 53h1M48 53h1M51 53h1M55 53h1M41 54h1M45 54h1M48 54h1M51 54h1M55 54h1M42 55h3M47 55h1M51 55h4M46 56h1M52 56h1M46 57h1M52 57h1M52 58h1M52 59h1M53 60h1M53 61h1M53 62h1M53 63h1M53 64h1M53 65h1M53 66h1M52 67h1M52 68h1M30 69h1M52 69h1M30 70h1M51 70h1M30 71h1M51 71h1M30 72h1M50 72h1M31 73h1M49 73h1M31 74h1M48 74h1M32 75h1M47 75h1M33 76h2M44 76h3M35 77h9" />
<path stroke="#cd625a" d="M50 19h1M49 20h3M40 21h2M49 21h1M51 21h1M43 22h1M44 24h1M49 24h1M45 26h1M51 26h1M44 34h2M44 35h2" />
<path stroke="#e6735a" d="M50 21h1M41 22h2M49 22h3M41 23h3M49 23h3M42 24h2M50 24h2M44 25h1M50 25h2M50 26h1M50 27h1" />
<path stroke="#c59c6a" d="M44 28h2M49 28h1M42 29h2M35 34h1M39 34h1M36 35h1M38 35h1M38 36h1M37 37h1M37 38h1M60 39h1M35 40h2M36 41h1M59 41h1M36 42h1M58 42h1M38 43h1M57 43h1M55 44h2M52 45h4M52 46h4M40 47h1M51 47h4M41 48h1M51 48h3M43 49h1M49 49h4M45 50h5M43 51h1M52 51h1M43 52h2M52 52h2M42 53h1M44 53h1M52 53h1M44 54h1M52 54h1M50 62h1M34 67h1M39 67h1M32 69h1M41 69h1M48 69h2M47 70h3M47 71h2M47 72h2M32 73h1M41 73h1M47 73h1M47 74h1M34 75h1M39 75h1" />
<path stroke="#f6eeac" d="M46 28h2M44 29h5M42 30h6M42 31h1M44 31h2M36 34h1M58 34h2M59 35h2M42 37h1M46 37h1M48 38h1M49 39h1M39 40h1M46 40h1M50 40h1M42 41h1M47 41h1M51 42h1M39 44h1M42 44h1M48 45h1M44 46h1M47 46h1M47 59h2M45 60h5M49 61h1M40 63h4M42 64h4M44 65h2M35 67h3M34 68h5M34 69h5M35 70h3" />
<path stroke="#ffd583" d="M48 28h1M49 29h3M48 30h5M41 31h1M46 31h2M49 31h5M41 32h2M44 32h4M49 32h5M40 33h4M46 33h9M40 34h3M47 34h8M34 35h1M37 35h1M39 35h5M46 35h7M55 35h2M58 35h1M36 36h2M39 36h19M60 36h1M34 37h3M38 37h4M47 37h14M35 38h2M38 38h3M49 38h12M35 39h2M38 39h2M50 39h10M38 40h1M43 40h3M51 40h9M38 41h1M43 41h4M51 41h8M38 42h1M42 42h6M52 42h6M42 43h7M52 43h5M43 44h6M52 44h3M39 45h1M43 45h5M45 46h2M47 58h2M46 59h1M49 59h1M50 60h1M50 61h1M46 65h1M45 66h1M38 67h1M33 68h1M39 68h2M33 69h1M39 69h2M32 70h3M38 70h4M32 71h10M32 72h10M33 73h8M33 74h8M35 75h4" />
<path stroke="#ffffff" d="M43 37h3M41 38h7M40 39h9M40 40h3M47 40h3M39 41h3M48 41h3M39 42h3M48 42h3M39 43h3M49 43h3M40 44h2M49 44h3M40 45h3M49 45h3M42 46h2M48 46h2" />
<path stroke="#debd83" d="M34 38h1M40 46h1M51 46h1M41 47h1M42 48h1M50 48h1M44 49h1M48 49h1M49 58h1M50 59h2M51 60h1M48 61h1M51 61h2M51 62h2M39 63h1M44 63h1M52 63h1M46 64h1M47 65h1M46 66h2M46 67h3M46 68h3M47 69h1" />
<path stroke="#5a0008" d="M36 43h1M38 44h1M38 45h1M39 46h1M39 47h1M40 48h1M41 49h2M44 50h1M50 50h3M45 51h4M39 62h3M36 63h3M34 64h2M33 65h1M32 66h1M31 67h1M31 68h1" />
<path stroke="#e6d5ac" d="M41 46h1M50 46h1M42 47h9M43 48h7M45 49h3" />
</svg>