<svg xmlns="http://www.w3.org/2000/svg" viewBox="0 -0.5 96 96" shape-rendering="crispEdges">
<metadata>Made with Pixels to Svg https://codepen.io/shshaw/pen/XbxvNj</metadata>
<path stroke="#9c6a5a" d="M38 34h1M42 34h2M38 35h1M41 35h1M44 35h1M38 36h1M44 36h1M49 36h3M38 37h1M42 37h1M38 38h1M37 39h1M42 39h1M40 40h1M46 40h1M36 41h1M48 41h1M38 42h1M39 43h1M40 44h1M42 44h2M40 45h2M44 45h2M48 45h2M45 46h1M47 46h1M50 46h1M46 47h1M51 47h1" />
<path stroke="#000000" d="M39 34h1M46 34h2M40 35h1M48 35h1M41 36h2M49 37h1M54 37h2M55 38h1M55 39h1M42 40h1M54 40h1M46 41h1M54 41h1M34 42h2M53 42h1M33 43h1M53 43h1M33 44h1M54 44h1M34 45h1M54 45h1M53 46h3M56 47h1M33 48h1M56 48h1M33 49h1M55 49h1M33 50h1M54 50h1M34 51h1M54 51h1M34 52h1M54 52h1M35 53h1M53 53h1M35 54h1M53 54h1M36 55h1M52 55h1M37 56h2M51 56h1M39 57h3M48 57h3M42 58h6M36 59h1M40 59h2M37 60h3M45 60h2M50 60h1M47 61h3" />
<path stroke="#f6d5c5" d="M39 35h1M46 35h1M39 36h2M45 36h1M39 37h3M44 37h2M39 38h6M38 39h2M41 39h1M43 39h2M38 40h2M41 40h1M43 40h1M37 41h3M42 41h1M37 42h1M39 42h4M40 43h3M41 44h1" />
<path stroke="#cd8b6a" d="M42 35h2M43 37h1M50 37h2M52 38h1M40 39h1M50 39h1M36 40h2M48 40h1M40 41h2M53 41h1M47 42h2M36 43h1M44 43h1M37 44h1M53 44h1M35 45h2M52 48h1M52 49h3M38 57h1M38 58h1M40 58h2M48 58h1M37 59h1M45 59h1M48 59h2" />
<path stroke="#7b4a4a" d="M45 35h1M43 36h1M48 36h1M52 37h2M50 38h2M36 42h1M37 43h1M37 45h1M35 46h2M52 47h1M51 48h1M51 49h1M52 50h2M37 57h1M36 58h1M49 58h1M38 59h1M44 59h1M50 59h1M48 60h1" />
<path stroke="#f6bd94" d="M47 35h1M46 36h2M46 37h3M45 38h5M53 38h2M45 39h5M51 39h4M44 40h2M47 40h1M49 40h5M45 41h1M47 41h1M49 41h4M45 42h2M49 42h4M34 43h2M45 43h8M34 44h3M44 44h9M46 45h2M50 45h4M46 46h1M51 46h2M53 47h3M53 48h3M37 58h1M39 58h1M39 59h1M46 59h2M47 60h1M49 60h1" />
<path stroke="#ac2929" d="M43 41h2M43 42h2M43 43h1" />
<path stroke="#ffffff" d="M38 43h1M38 44h2M38 45h2M42 45h2M34 46h1M37 46h8M48 46h2M34 47h12M47 47h4M35 48h5M42 48h4M37 49h3M43 49h3M47 49h2M38 50h2M41 50h1M44 50h2M48 50h1M38 51h2M41 51h2M45 51h2" />
<path stroke="#9c8b83" d="M33 46h1M33 47h1" />
<path stroke="#ded5d5" d="M34 48h1M50 48h1M36 49h1M49 49h1M37 50h1M49 50h1M49 51h1M39 52h1M41 52h1M45 52h1" />
<path stroke="#ee6a6a" d="M40 48h2M40 49h3M42 50h1M43 51h1M42 52h1M43 53h1M48 54h2M48 55h1M47 56h1M46 57h1" />
<path stroke="#4a9cb4" d="M46 48h1M47 50h1M48 51h1M50 52h1" />
<path stroke="#317ba4" d="M47 48h3M34 49h2M46 49h1M50 49h1M35 50h2M46 50h1M50 50h1M36 51h2M47 51h1M50 51h1M36 52h2M48 52h2M37 53h2M36 54h3M37 55h1" />
<path stroke="#c5b4b4" d="M34 50h1M51 50h1M35 51h1M51 51h3M35 52h1M38 52h1M46 52h2M51 52h3M36 53h1M39 53h2M44 53h9M39 54h9M50 54h3M38 55h9M50 55h2M39 56h7M48 56h1M50 56h1M42 57h3M47 57h1" />
<path stroke="#cd3941" d="M40 50h1M43 50h1M40 51h1M44 51h1M40 52h1M43 52h2M41 53h2M47 55h1M49 55h1M46 56h1M49 56h1M45 57h1" />
</svg>