<svg xmlns="http://www.w3.org/2000/svg" viewBox="0 -0.5 96 96" shape-rendering="crispEdges">
<metadata>Made with Pixels to Svg https://codepen.io/shshaw/pen/XbxvNj</metadata>
<path stroke="#185294" d="M46 28h2M45 29h1M45 30h1M47 30h1M45 31h1M47 31h1M45 32h1M47 32h1M42 33h1M47 33h1M40 34h1M47 34h1M39 35h1M38 36h1M45 39h4M36 40h1M43 40h2M37 41h1M42 41h1M52 41h1M38 42h1M41 42h1M53 42h1M39 43h1M46 43h2M54 43h1M40 44h1M45 44h1M51 44h1M44 45h1M55 45h1M43 46h1M47 46h1M55 46h1M43 47h1M46 47h1M55 47h1M55 48h1M55 49h1M55 50h1M44 51h1M51 51h1M41 52h1M54 52h1M56 52h1M42 53h1M53 53h1M57 53h1M43 54h1M52 54h1M54 54h1M58 54h1M45 55h6M55 55h1M59 55h1M59 56h1M58 57h1M52 58h1M50 59h1M48 60h1M55 60h1M47 61h1M53 61h1M47 62h1M51 62h1M47 63h1M49 63h2M47 64h1M49 64h1M49 65h1M49 66h1" />
<path stroke="#dedede" d="M46 29h1M46 30h1M45 41h1M43 42h2M42 43h2M42 44h1M46 44h1M49 44h1M41 45h1M41 46h1M44 46h1M51 46h1M44 49h1M51 49h1M46 51h1M49 51h1M48 63h1M48 64h1" />
<path stroke="#62a4e6" d="M47 29h1M46 31h1M43 34h2M41 35h2M40 36h1M39 37h1M46 41h2M45 42h1M44 43h1M43 44h1M42 45h1M49 46h1M41 47h1M46 49h1M49 49h1M53 50h1M52 51h1M51 52h1M48 53h3M56 57h1M55 58h1M53 59h2M51 60h2M48 62h1M48 65h1M48 66h1" />
<path stroke="#101010" d="M48 29h1M48 30h1M48 31h1M44 32h1M48 32h1M43 33h1M48 33h1M41 34h1M48 34h1M45 35h3M43 36h2M37 37h1M42 37h1M36 38h1M41 38h1M35 39h1M40 39h1M49 39h2M35 40h1M41 40h1M51 40h2M36 41h1M53 41h1M37 42h1M54 42h1M38 43h1M40 43h1M48 43h2M55 43h1M39 44h1M50 44h1M55 44h1M39 45h1M51 45h1M56 45h1M39 46h1M48 46h1M52 46h1M56 46h1M39 47h1M48 47h2M52 47h1M56 47h1M39 48h1M43 48h1M46 48h2M49 48h1M52 48h1M56 48h1M39 49h1M43 49h1M47 49h2M52 49h1M56 49h1M39 50h1M44 50h1M51 50h1M56 50h1M40 51h1M45 51h1M50 51h1M55 51h2M40 52h1M46 52h4M55 52h1M57 52h1M41 53h1M54 53h1M58 53h1M42 54h1M53 54h1M59 54h1M43 55h2M51 55h2M54 55h1M60 55h1M45 56h6M55 56h1M60 56h1M54 57h1M59 57h1M53 58h1M58 58h1M51 59h1M57 59h1M49 60h1M56 60h1M54 61h2M52 62h2M51 63h1M50 64h1M47 65h1M50 65h1M47 66h1M50 66h1M48 67h2" />
<path stroke="#296abd" d="M46 32h1M44 33h3M42 34h1M45 34h2M40 35h1M43 35h2M39 36h1M41 36h2M38 37h1M40 37h2M37 38h4M36 39h4M37 40h4M45 40h6M38 41h4M43 41h2M48 41h4M39 42h2M42 42h1M46 42h7M41 43h1M45 43h1M50 43h4M41 44h1M44 44h1M52 44h3M40 45h1M43 45h1M52 45h3M40 46h1M42 46h1M53 46h2M40 47h1M42 47h1M53 47h2M40 48h3M48 48h1M53 48h2M40 49h3M53 49h2M40 50h4M52 50h1M54 50h1M41 51h3M53 51h2M42 52h4M50 52h1M52 52h2M43 53h5M51 53h2M55 53h2M44 54h8M55 54h3M56 55h3M56 56h3M55 57h1M57 57h1M54 58h1M56 58h2M52 59h1M55 59h2M50 60h1M53 60h2M48 61h5M49 62h2" />
<path stroke="#ffffff" d="M47 44h2M45 45h6M45 46h2M50 46h1M44 47h2M47 47h1M50 47h2M44 48h2M50 48h2M45 49h1M50 49h1M45 50h6M47 51h2" />
</svg>