<svg xmlns="http://www.w3.org/2000/svg" viewBox="0 -0.5 96 96" shape-rendering="crispEdges">
<metadata>Made with Pixels to Svg https://codepen.io/shshaw/pen/XbxvNj</metadata>
<path stroke="#185294" d="M40 35h1M39 36h1M42 36h1M46 36h2M39 37h1M43 37h1M39 38h1M42 38h1M52 38h1M41 39h1M53 39h1M46 40h2M54 40h1M45 41h1M51 41h1M44 42h1M55 42h1M39 43h1M43 43h1M47 43h1M55 43h1M39 44h1M43 44h1M46 44h1M55 44h1M39 45h1M55 45h1M55 46h1M40 47h1M55 47h1M44 48h1M51 48h1M41 49h1M54 49h1M42 50h1M53 50h1M41 51h1M44 51h1M52 51h1M39 52h1M41 52h1M46 52h5M39 53h1M41 53h1M39 54h1M41 54h1M39 55h1M41 55h1M41 56h1M41 57h1M41 58h1M40 59h2" />
<path stroke="#101010" d="M41 35h2M43 36h1M48 36h3M44 37h2M51 37h2M43 38h1M53 38h1M40 39h1M42 39h1M54 39h1M41 40h1M48 40h2M55 40h1M40 41h1M50 41h1M55 41h1M40 42h1M51 42h1M56 42h1M48 43h1M52 43h1M56 43h1M48 44h2M52 44h1M56 44h1M43 45h1M46 45h2M49 45h1M52 45h1M56 45h1M39 46h1M43 46h1M47 46h2M52 46h1M56 46h1M39 47h1M44 47h1M51 47h1M56 47h1M39 48h2M45 48h1M50 48h1M55 48h1M39 49h2M46 49h4M55 49h1M39 50h1M41 50h1M54 50h1M39 51h1M42 51h2M53 51h1M42 52h1M44 52h2M51 52h2M42 53h1M46 53h5M42 54h1M42 55h1M39 56h1M42 56h1M39 57h1M42 57h1M39 58h1M42 58h1M39 59h1M42 59h1M40 60h2" />
<path stroke="#dedede" d="M40 36h1M44 39h1M43 40h1M42 41h1M46 41h1M49 41h1M41 42h1M44 43h1M51 43h1M44 46h1M51 46h1M46 48h1M49 48h1M40 53h1M40 54h1" />
<path stroke="#62a4e6" d="M41 36h1M40 37h2M45 38h3M45 39h1M44 40h1M43 41h1M42 42h1M41 43h1M49 43h1M41 44h1M46 46h1M49 46h1M53 47h1M52 48h1M51 49h1M48 50h3M40 52h1M40 55h1M40 56h1" />
<path stroke="#296abd" d="M42 37h1M46 37h5M40 38h2M44 38h1M48 38h4M43 39h1M46 39h7M42 40h1M45 40h1M50 40h4M41 41h1M44 41h1M52 41h3M43 42h1M52 42h3M40 43h1M42 43h1M53 43h2M40 44h1M42 44h1M53 44h2M40 45h3M48 45h1M53 45h2M40 46h3M53 46h2M41 47h3M52 47h1M54 47h1M41 48h3M53 48h2M42 49h4M50 49h1M52 49h2M40 50h1M43 50h5M51 50h2M40 51h1M45 51h7M40 57h1M40 58h1" />
<path stroke="#ffffff" d="M47 41h2M45 42h6M45 43h2M50 43h1M44 44h2M47 44h1M50 44h2M44 45h2M50 45h2M45 46h1M50 46h1M45 47h6M47 48h2" />
</svg>