<svg xmlns="http://www.w3.org/2000/svg" viewBox="0 -0.5 96 96" shape-rendering="crispEdges">
<metadata>Made with Pixels to Svg https://codepen.io/shshaw/pen/XbxvNj</metadata>
<path stroke="#185294" d="M42 36h4M40 37h2M39 38h1M49 38h1M38 39h1M50 39h1M37 40h1M43 40h2M51 40h1M37 41h1M42 41h1M48 41h1M36 42h1M41 42h1M52 42h1M36 43h1M40 43h1M44 43h1M52 43h1M36 44h1M40 44h1M43 44h1M52 44h1M36 45h1M52 45h1M52 46h1M41 48h1M48 48h1M51 48h1M38 49h1M51 49h2M57 49h2M39 50h1M50 50h2M56 50h1M59 50h1M40 51h1M48 51h1M50 51h1M59 51h1M42 52h5M51 52h1M56 52h1M58 52h2M52 53h1M57 53h2M53 54h1M54 55h1M55 56h1M56 57h1M58 57h1" />
<path stroke="#101010" d="M46 36h2M48 37h2M50 38h1M51 39h1M45 40h2M52 40h1M47 41h1M52 41h1M48 42h1M53 42h1M45 43h1M49 43h1M53 43h1M45 44h2M49 44h1M53 44h1M40 45h1M43 45h2M46 45h1M49 45h1M53 45h1M36 46h1M40 46h1M44 46h2M49 46h1M53 46h1M36 47h1M41 47h1M48 47h1M52 47h1M37 48h1M42 48h1M47 48h1M52 48h1M37 49h1M43 49h4M53 49h1M59 49h1M38 50h1M54 50h1M60 50h1M39 51h1M49 51h1M55 51h1M60 51h1M40 52h2M47 52h2M50 52h1M60 52h1M42 53h5M51 53h1M59 53h1M52 54h1M58 54h1M53 55h1M59 55h1M54 56h1M59 56h1M55 57h1M59 57h1M56 58h3" />
<path stroke="#296abd" d="M42 37h6M40 38h2M45 38h4M39 39h1M43 39h7M38 40h1M42 40h1M47 40h4M38 41h1M41 41h1M49 41h3M37 42h1M40 42h1M49 42h3M37 43h1M39 43h1M50 43h2M37 44h1M39 44h1M50 44h2M37 45h3M45 45h1M50 45h2M37 46h3M50 46h2M37 47h4M49 47h1M51 47h1M38 48h3M50 48h1M39 49h4M47 49h1M49 49h2M40 50h5M48 50h2M52 50h2M57 50h1M41 51h7M51 51h2M54 51h1M56 51h1M58 51h1M52 52h1M55 52h1M57 52h1M53 53h1M56 53h1M54 54h1M57 54h1M55 55h1M58 55h1M56 56h3M57 57h1" />
<path stroke="#dedede" d="M42 38h1M40 39h2M39 40h2M39 41h1M43 41h1M46 41h1M38 42h1M38 43h1M41 43h1M48 43h1M41 46h1M48 46h1M43 48h1M46 48h1M53 52h1M54 53h1M55 54h1" />
<path stroke="#62a4e6" d="M43 38h2M42 39h1M41 40h1M40 41h1M39 42h1M46 43h1M38 44h1M43 46h1M46 46h1M50 47h1M49 48h1M48 49h1M45 50h3M58 50h1M53 51h1M57 51h1M54 52h1M55 53h1M56 54h1M56 55h2" />
<path stroke="#ffffff" d="M44 41h2M42 42h6M42 43h2M47 43h1M41 44h2M44 44h1M47 44h2M41 45h2M47 45h2M42 46h1M47 46h1M42 47h6M44 48h2" />
</svg>