<svg xmlns="http://www.w3.org/2000/svg" viewBox="0 -0.5 96 96" shape-rendering="crispEdges">
<metadata>Made with Pixels to Svg https://codepen.io/shshaw/pen/XbxvNj</metadata>
<path stroke="#c562bd" d="M63 20h1M57 21h1M64 21h1M56 22h1M64 22h1M56 23h1M58 23h1M62 23h1M65 23h1M57 24h2M61 24h2M65 24h1M67 24h1M58 25h1M61 25h1M65 25h2M68 25h1M62 26h1M65 26h1M68 26h1M60 27h1M62 27h1M65 27h1M67 27h1M59 28h2M62 28h1M67 28h1M59 29h1M61 29h2M67 29h1M62 30h2M66 30h1M60 31h1M62 31h2M66 31h1M61 32h1M29 33h1M36 33h1M61 33h2M32 34h2M38 34h1M60 34h2M39 35h1M31 36h2M40 36h1M31 37h2M40 37h2M31 38h2M40 38h2M59 38h1M31 39h2M40 39h3M33 40h1M39 40h4M60 40h1M34 41h1M38 41h3M43 41h1M61 41h2M68 41h2M34 42h7M44 42h1M33 43h7M44 43h1M60 43h3M70 43h1M33 44h6M43 44h2M55 44h1M58 44h2M63 44h2M71 44h1M32 45h7M43 45h3M54 45h1M65 45h1M31 46h7M42 46h4M54 46h1M29 47h8M39 47h5M45 47h1M53 47h1M25 48h8M36 48h1M40 48h3M44 48h2M53 48h1M25 49h7M33 49h2M36 49h1M38 49h2M41 49h2M44 49h1M51 49h1M26 50h5M32 50h3M36 50h1M38 50h2M41 50h2M49 50h2M25 51h1M32 51h2M35 51h3M39 51h2M43 51h1M27 52h1M34 52h1M38 52h1M40 52h4M51 52h2M27 53h2M38 53h1M40 53h3M57 53h2M64 53h1M26 54h3M38 54h1M40 54h3M61 54h3M37 55h1M39 55h4M48 55h2M70 55h2M34 56h1M38 56h6M46 56h2M35 57h10M35 58h11M36 59h10M47 59h1M57 59h1M68 59h1M36 60h8M46 60h1M48 60h2M56 60h2M65 60h3M38 61h4M51 61h1M57 61h3M66 61h1M48 62h3M52 62h2M56 62h1M58 62h1M61 62h2M51 63h1M54 63h3M59 63h3M52 64h7M63 64h2M44 65h2M52 65h6M60 65h3M45 66h2M50 66h7M61 66h2M36 67h3M40 67h1M43 67h2M46 67h19M30 68h1M32 68h8M42 68h2M45 68h7M55 68h11M28 69h2M33 69h3M38 69h13M54 69h1M56 69h11M28 70h7M39 70h25M28 71h28M58 71h3M35 72h2M41 72h3M46 72h1M52 72h2M44 73h2M51 73h1M54 73h1M40 74h1M43 74h1" />
<path stroke="#e694de" d="M63 21h1M57 22h1M63 22h1M57 23h1M63 23h2M63 24h2M62 25h2M67 25h1M63 26h1M66 26h2M66 27h1M65 28h2M60 29h1M66 29h1M60 30h2M61 31h1M62 32h2M66 32h1M30 33h2M37 33h3M66 33h1M30 34h2M39 34h2M62 34h1M66 34h1M31 35h2M40 35h1M60 35h2M60 36h2M64 36h1M60 37h1M31 40h2M32 41h2M41 41h2M32 42h2M41 42h3M25 43h1M31 43h2M40 43h4M31 44h2M39 44h4M30 45h2M39 45h4M29 46h2M40 46h2M24 47h1M27 47h2M26 51h1M31 51h1M26 52h1M29 52h4M37 52h1M25 53h2M31 53h2M34 53h1M37 53h1M32 54h1M34 54h4M33 55h1M35 55h2M33 56h1M34 57h1M34 58h1M34 59h2M35 60h1M44 60h2M36 61h2M42 61h6M38 62h10M38 63h13M38 64h14M37 65h4M46 65h6M35 66h5M43 66h1M47 66h3M58 66h2M63 66h2M28 67h8M41 67h2M65 67h2M26 68h4M66 68h1M26 69h2M31 69h1M53 69h1M26 70h2M37 70h1M56 71h2M37 72h4M44 72h2M50 72h2M54 72h2M38 73h6M52 73h2M41 74h2" />
<path stroke="#ffc500" d="M64 25h1M64 26h1M63 27h2M63 28h1M63 29h1M65 29h1M64 30h2M64 31h1M64 32h1M63 33h2M28 34h1M35 34h3M63 34h1M65 34h1M29 35h1M34 35h1M37 35h2M62 35h1M64 35h1M28 36h2M34 36h1M36 36h3M62 36h2M27 37h1M29 37h1M34 37h2M37 37h2M61 37h1M27 38h1M29 38h1M34 38h2M37 38h2M27 39h1M34 39h5M35 40h3" />
<path stroke="#ffee9c" d="M64 28h1M64 29h1M65 31h1M65 32h1M65 33h1M64 34h1M28 35h1M35 35h2M63 35h1M27 36h1M35 36h1" />
<path stroke="#94398b" d="M59 30h1M59 31h1M29 32h1M38 32h2M60 32h1M67 32h1M40 33h1M60 33h1M67 33h1M29 34h1M41 34h1M59 34h1M67 34h1M30 35h1M33 35h1M41 35h1M59 35h1M65 35h2M30 36h1M33 36h1M39 36h1M59 36h1M65 36h1M33 37h1M39 37h1M58 37h2M64 37h1M58 38h1M27 40h1M26 41h1M35 41h1M25 42h1M24 43h1M24 44h1M45 44h1M23 45h1M38 46h2M37 47h1M44 47h1M24 48h1M33 48h2M38 48h2M43 48h1M35 49h1M37 49h1M40 49h1M43 49h1M35 50h1M37 50h1M27 51h4M34 51h1M44 51h1M24 52h1M33 52h1M24 53h1M43 53h1M25 54h1M29 54h1M43 54h1M26 55h3M32 55h1M43 55h1M32 56h1M44 56h1M33 57h1M45 57h2M33 58h1M33 59h1M33 60h1M33 61h1M32 62h1M57 62h1M32 63h1M57 63h1M30 64h2M62 64h1M29 65h1M41 65h3M58 65h2M63 65h2M40 66h1M44 66h1M57 66h1M60 66h1M65 66h2M26 67h2M39 67h1M45 67h1M67 67h1M25 68h1M31 68h1M40 68h2M44 68h1M52 68h3M67 68h1M25 69h1M30 69h1M32 69h1M36 69h2M51 69h1M55 69h1M35 70h1M38 70h1M28 72h1M48 72h2M35 73h1M51 74h1M40 75h1" />
<path stroke="#9c3918" d="M52 31h4M50 32h2M58 32h2M49 33h1M48 34h1M53 34h1M46 35h2M45 36h1M66 36h2M65 37h3M69 37h1M44 38h1M57 38h1M62 38h2M65 38h3M69 38h1M44 39h1M55 39h4M62 39h2M65 39h2M68 39h3M44 40h2M54 40h5M65 40h2M70 40h1M53 41h7M64 41h3M46 42h1M53 42h7M64 42h4M46 43h4M52 43h3M65 43h4M51 44h3M66 44h3M47 45h4M52 45h1M67 45h4M47 46h5M56 46h1M47 47h4M55 47h3M61 47h2M47 48h2M55 48h2M59 48h6M68 48h2M46 49h1M54 49h3M58 49h8M67 49h4M45 50h1M54 50h3M59 50h7M67 50h4M51 51h2M55 51h2M60 51h6M67 51h4M49 52h1M55 52h1M59 52h1M62 52h2M67 52h3M44 53h1M47 53h4M54 53h2M67 53h2M71 53h1M45 54h4M53 54h3M66 54h3M45 55h2M52 55h5M66 55h3M52 56h7M62 56h2M65 56h5M53 57h8M62 57h2M65 57h4M47 58h1M50 58h1M55 58h2M58 58h3M62 58h2M65 58h3M49 59h2M54 59h1M58 59h1M62 59h2M51 60h1M54 60h1M61 60h2M53 61h2M64 62h1M63 63h2" />
<path stroke="#730800" d="M56 31h1M57 32h1M58 33h1M49 34h2M58 34h1M54 35h1M57 35h1M67 35h1M55 36h2M68 36h2M28 37h1M36 37h1M44 37h1M68 37h1M70 37h1M28 38h1M36 38h1M43 38h1M70 38h1M50 39h1M67 39h1M47 41h1M71 42h1M71 43h1M47 44h4M72 44h1M51 45h1M53 45h1M57 45h1M60 45h3M71 45h2M53 46h1M59 46h6M68 46h2M72 46h1M59 47h2M63 47h3M58 48h1M65 48h2M57 50h2M71 50h1M56 52h1M66 52h1M71 52h1M53 53h1M66 53h1M70 53h1M44 54h1M52 54h1M56 54h1M65 54h1M72 54h1M44 55h1M51 55h1M57 55h3M61 55h1M64 55h2M69 55h1M72 55h1M50 56h2M59 56h2M70 56h2M51 57h2M70 57h1M61 58h1M64 58h1M60 59h2M64 59h2M63 60h2M56 61h1M63 61h2M55 62h1" />
<path stroke="#101010" d="M30 32h2M36 32h2M32 33h1M35 33h1M34 34h1M51 34h2M41 36h1M30 37h1M42 37h1M45 37h4M62 37h2M30 38h1M33 38h1M39 38h1M42 38h1M49 38h1M60 38h2M64 38h1M68 38h1M71 38h1M29 39h2M33 39h1M39 39h1M43 39h1M59 39h1M64 39h1M71 39h1M34 40h1M38 40h1M43 40h1M50 40h1M59 40h1M64 40h1M67 40h1M71 40h1M36 41h2M44 41h3M50 41h1M60 41h1M63 41h1M67 41h1M71 41h1M45 42h1M47 42h3M61 42h2M68 42h3M45 43h1M55 43h2M46 44h1M54 44h1M57 44h1M60 44h3M46 45h1M58 45h2M63 45h2M23 46h1M46 46h1M52 46h1M58 46h1M65 46h1M70 46h2M23 47h1M38 47h1M46 47h1M52 47h1M58 47h1M68 47h2M72 47h1M35 48h1M37 48h1M46 48h1M52 48h1M57 48h1M67 48h1M72 48h1M24 49h1M32 49h1M45 49h1M52 49h1M57 49h1M66 49h1M72 49h1M25 50h1M31 50h1M40 50h1M43 50h2M47 50h2M51 50h3M66 50h1M38 51h1M41 51h2M45 51h1M49 51h2M54 51h1M57 51h3M66 51h1M71 51h1M28 52h1M39 52h1M44 52h1M50 52h1M53 52h2M57 52h1M60 52h1M65 52h1M70 52h1M72 52h1M29 53h2M33 53h1M39 53h1M51 53h2M56 53h1M60 53h1M65 53h1M69 53h1M72 53h1M31 54h1M33 54h1M39 54h1M51 54h1M57 54h3M64 54h1M69 54h1M34 55h1M38 55h1M50 55h1M60 55h1M62 55h2M35 56h3M48 56h2M61 56h1M64 56h1M47 57h1M50 57h1M61 57h1M64 57h1M46 58h1M51 58h4M70 58h1M46 59h1M51 59h1M55 59h1M69 59h1M47 60h1M50 60h1M55 60h1M60 60h1M68 60h1M48 61h3M55 61h1M60 61h1M65 61h1M67 61h1M51 62h1M54 62h1M59 62h1M63 62h1M65 62h2M52 63h2M58 63h1M62 63h1M65 63h1M59 64h3M65 64h1M27 65h2M26 66h1M29 66h1M67 69h1M25 70h1M64 70h3M26 71h2M61 71h3M29 72h6M47 72h1M56 72h5M36 73h2M46 73h1M50 73h1M55 73h1M38 74h2M44 74h2M52 74h3M41 75h3" />
<path stroke="#cd6a29" d="M52 32h5M28 33h1M54 33h4M59 33h1M27 34h1M56 34h2M27 35h1M48 35h1M55 35h2M58 35h1M26 36h1M46 36h2M57 36h2M26 37h1M49 37h1M55 37h3M26 38h1M45 38h1M48 38h1M50 38h7M26 39h1M45 39h1M48 39h2M51 39h4M26 40h1M46 40h4M51 40h3M48 41h2M51 41h2M50 42h3M50 43h2M46 51h3M45 52h4M45 53h2M48 57h2M48 58h2M52 59h2M52 60h2" />
<path stroke="#ff8b18" d="M50 33h4M54 34h2M49 35h5M48 36h7M50 37h5M46 38h2M46 39h2" />
<path stroke="#a46a5a" d="M28 39h1M60 39h2M61 40h3M68 40h2M70 41h1M60 42h1M63 42h1M57 43h3M63 43h2M69 43h1M56 44h1M65 44h1M69 44h2M55 45h2M66 45h1M55 46h1M57 46h1M66 46h2M51 47h1M54 47h1M66 47h2M70 47h2M49 48h3M54 48h1M70 48h2M47 49h4M53 49h1M71 49h1M46 50h1M53 51h1M58 52h1M61 52h1M64 52h1M59 53h1M61 53h3M49 54h2M60 54h1M70 54h2M47 55h1M45 56h1M69 57h1M57 58h1M68 58h2M48 59h1M56 59h1M59 59h1M66 59h2M58 60h2M52 61h1M61 61h2M60 62h1" />
<path stroke="#f6bdff" d="M28 40h3M27 41h5M26 42h6M26 43h5M25 44h6M24 45h6M24 46h5M25 47h2M25 52h1M35 52h2M35 53h2M34 60h1M34 61h2M33 62h5M33 63h5M32 64h6M30 65h7M27 66h2M30 66h5M41 66h2M52 69h1M36 70h1" />
</svg>