<svg xmlns="http://www.w3.org/2000/svg" viewBox="0 -0.5 96 96" shape-rendering="crispEdges">
<metadata>Made with Pixels to Svg https://codepen.io/shshaw/pen/XbxvNj</metadata>
<path stroke="#526a52" d="M44 39h7M41 40h4M51 40h1M39 41h5M37 42h5M36 43h1M39 43h2M34 46h1M62 52h1M63 53h1M35 54h1M62 54h2M61 57h1M58 58h1" />
<path stroke="#bdd5ac" d="M45 40h6M44 41h8M42 42h8M37 43h1M41 43h7M36 44h1M40 44h6M53 44h2M35 45h2M39 45h6M49 45h7M35 46h1M38 46h16M34 47h2M38 47h12M34 48h2M37 48h11M33 49h14M52 49h5M33 50h1M35 50h22M34 51h4M39 51h14M37 52h2M40 52h10M38 53h2M43 53h6M38 54h14M56 54h1M40 55h10M55 55h1M57 55h1M54 56h1M56 56h1" />
<path stroke="#101010" d="M52 40h2M54 41h2M56 42h1M57 43h1M35 44h1M58 44h1M34 45h1M59 45h1M59 46h1M33 47h1M60 47h1M33 48h1M60 48h1M32 49h1M60 49h1M32 50h1M61 50h1M32 51h1M61 51h1M32 52h1M61 52h1M32 55h1M33 56h4M36 58h2M39 59h3M49 59h1M53 59h1M42 60h2M47 60h2M50 60h2M54 60h2M57 60h2" />
<path stroke="#9cb494" d="M52 41h2M55 44h3M56 45h3M57 48h3M57 49h3M57 53h6M52 54h4M57 54h4M38 55h2M50 55h5M56 55h1M58 55h4M37 56h17M55 56h1M57 56h6M36 57h25M39 58h3M43 58h2M46 58h2M49 58h3M53 58h2M56 58h2M59 58h2M43 59h1M47 59h1M50 59h1M54 59h1M57 59h1" />
<path stroke="#7b9473" d="M50 42h3M38 43h1M48 43h6M37 44h3M46 44h7M37 45h2M45 45h4M36 46h2M54 46h2M36 47h2M50 47h6M36 48h1M48 48h9M47 49h5M34 50h1M38 51h1M53 51h3M33 52h4M50 52h5M32 53h1M37 53h1M42 53h1M49 53h4M33 54h1M37 54h1M37 55h1M42 58h1M45 58h1M48 58h1M52 58h1M55 58h1" />
<path stroke="#314a39" d="M53 42h3M54 43h3M56 46h3M56 47h4M57 50h4M33 51h1M56 51h5M39 52h1M55 52h6M40 53h2M53 53h4M61 54h1M62 55h1M63 56h1M34 57h2M62 57h2M38 58h1M61 58h1M42 59h1M44 59h3M48 59h1M51 59h2M55 59h2M58 59h4" />
<path stroke="#ffbd83" d="M33 53h3M32 54h1M34 54h1M36 54h1" />
<path stroke="#de8b52" d="M36 53h1M33 55h3" />
<path stroke="#b46229" d="M36 55h1" />
</svg>