<svg xmlns="http://www.w3.org/2000/svg" viewBox="0 -0.5 96 96" shape-rendering="crispEdges">
<metadata>Made with Pixels to Svg https://codepen.io/shshaw/pen/XbxvNj</metadata>
<path stroke="#7b7300" d="M48 25h4M41 26h3M47 26h1M52 26h2M39 27h2M44 27h1M54 27h1M38 28h1M37 29h1M37 30h1M38 31h1M42 31h1M24 54h2M23 55h1M26 55h1M22 56h1M27 56h1M44 56h2M22 57h1M43 57h1M46 57h1M42 58h1M47 58h1M68 59h1M27 60h2M68 60h1M26 61h1M29 61h1M68 61h1M25 62h1M30 62h1M63 62h3M68 62h1M25 63h1M46 63h2M66 63h1M45 64h1M48 64h1M67 64h1M44 65h1M49 65h1M62 65h1M66 65h1" />
<path stroke="#835a00" d="M44 26h3M54 28h2M56 29h1M57 30h1M36 31h1M36 32h1M35 33h1M35 34h1M48 34h3M46 35h2M51 35h2M39 36h2M45 36h1M53 36h1M60 36h1M41 37h1M44 37h1M53 37h1M35 38h1M41 38h1M44 38h1M47 38h1M54 38h1M41 39h1M33 40h1M34 41h1M32 42h1M53 42h1M33 43h1M43 43h1M44 44h1M46 45h5M37 47h1M40 47h1M38 48h1M38 49h1M28 50h4M39 50h1M26 51h2M32 51h1M48 51h3M25 52h1M32 52h1M46 52h2M53 52h3M24 53h1M31 53h1M38 53h1M45 53h1M56 53h1M31 54h1M37 54h1M44 54h1M57 54h1M30 55h1M36 55h1M43 55h1M50 55h1M53 55h1M30 56h1M36 56h1M43 56h1M60 56h1M67 56h2M30 57h2M37 57h1M42 57h1M66 57h1M30 58h1M37 58h1M60 58h1M66 58h1M31 59h1M37 59h1M51 59h2M58 59h2M64 59h2M32 60h2M37 60h1M50 60h1M53 60h1M24 61h1M37 61h1M42 61h1M54 61h1M38 62h1M42 62h1M51 62h1M54 62h1M42 63h1M52 63h1M62 63h1M36 64h3M43 64h1M57 64h1M34 65h2M43 65h1M58 65h2M43 66h1" />
<path stroke="#def652" d="M48 26h4M41 27h2M50 27h3M39 28h5M40 29h3M24 55h2M23 56h3M23 57h2M44 57h2M43 58h4M44 59h2M27 61h2M26 62h3M26 63h2M63 63h3M46 64h2M62 64h2M45 65h4M46 66h2" />
<path stroke="#bdb429" d="M43 27h1M49 27h1M53 27h1M44 28h1M38 29h2M43 29h2M38 30h6M39 31h3M26 56h1M25 57h2M23 58h4M24 59h2M43 59h1M46 59h1M69 59h1M43 60h4M69 60h1M44 61h2M69 61h1M29 62h1M69 62h1M28 63h2M26 64h4M64 64h3M27 65h2M63 65h3M45 66h1M48 66h1M45 67h4M46 68h2" />
<path stroke="#ac8341" d="M45 27h1M47 27h2M49 28h5M55 29h1M45 30h1M44 31h1M42 32h1M58 32h1M58 33h1M36 34h1M57 34h3M36 35h1M57 35h3M36 36h1M52 36h1M56 36h4M55 37h6M55 38h6M55 39h6M39 40h3M55 40h6M35 41h7M55 41h5M35 42h8M54 42h6M34 43h9M54 43h5M33 44h11M53 44h6M36 45h10M51 45h3M55 45h1M57 45h1M39 46h14M54 46h1M56 46h1M38 47h1M41 47h13M55 47h1M39 48h16M39 49h16M40 50h14M40 51h8M51 51h3M30 52h2M42 52h4M52 52h1M28 53h3M44 53h1M52 53h1M54 53h2M27 54h4M50 54h1M52 54h1M54 54h3M27 55h3M48 55h2M51 55h2M54 55h2M28 56h2M47 56h3M51 56h3M28 57h2M47 57h3M51 57h5M57 57h2M61 57h1M67 57h1M28 58h2M31 58h1M48 58h2M51 58h9M68 58h1M27 59h4M32 59h3M48 59h2M53 59h5M29 60h3M34 60h3M48 60h2M54 60h8M67 60h1M30 61h7M47 61h4M55 61h13M31 62h7M46 62h5M55 62h8M66 62h2M31 63h7M39 63h3M48 63h4M53 63h2M56 63h6M67 63h2M31 64h5M40 64h3M49 64h6M58 64h4M30 65h4M42 65h1M50 65h5M60 65h2M50 66h4M55 66h1M50 67h4M49 68h3" />
<path stroke="#cdb44a" d="M46 27h1M46 28h3M46 29h9M46 30h11M37 31h1M45 31h13M37 32h2M43 32h15M36 33h22M37 34h11M51 34h6M35 35h1M37 35h9M48 35h3M53 35h4M35 36h1M37 36h1M41 36h4M46 36h6M54 36h2M35 37h1M38 37h3M42 37h2M45 37h8M54 37h1M36 38h5M42 38h2M48 38h6M32 39h9M42 39h3M50 39h4M31 40h2M34 40h5M43 40h2M52 40h2M31 41h1M43 41h2M52 41h2M31 42h1M44 42h2M51 42h2M32 43h1M44 43h3M50 43h3M46 44h5M54 45h1M56 45h1M53 46h1M55 46h1M54 47h1M28 51h4M26 52h4M40 52h2M48 52h3M25 53h3M40 53h4M46 53h5M26 54h1M38 54h1M40 54h4M45 54h5M37 55h1M39 55h4M44 55h4M37 56h1M39 56h4M46 56h1M56 56h4M36 57h1M38 57h4M59 57h2M68 57h1M35 58h2M38 58h4M67 58h1M35 59h2M38 59h4M60 59h4M66 59h2M26 60h1M38 60h4M51 60h2M62 60h5M25 61h1M38 61h4M52 61h2M39 62h3M43 62h1M52 62h2M43 63h3M44 64h1M56 64h1M56 65h1" />
<path stroke="#101010" d="M45 28h1M45 29h1M44 30h1M43 31h1M58 31h1M39 32h3M59 32h1M59 33h1M60 34h1M34 35h1M60 35h1M34 36h1M38 36h1M34 37h1M36 37h2M61 37h1M32 38h3M45 38h2M61 38h1M31 39h1M47 39h3M54 39h1M61 39h1M30 40h1M42 40h1M47 40h1M50 40h2M54 40h1M61 40h1M30 41h1M32 41h2M42 41h1M54 41h1M60 41h1M30 42h1M33 42h2M43 42h1M60 42h1M30 43h2M53 43h1M59 43h1M31 44h2M45 44h1M51 44h2M59 44h1M33 45h3M58 45h1M36 46h3M57 46h1M39 47h1M56 47h1M55 48h1M55 49h1M54 50h1M39 51h1M54 51h1M39 52h1M51 52h1M39 53h1M51 53h1M53 53h1M39 54h1M51 54h1M53 54h1M38 55h1M56 55h4M38 56h1M50 56h1M54 56h2M61 56h1M27 57h1M35 57h1M50 57h1M56 57h1M62 57h1M69 57h1M22 58h1M27 58h1M32 58h3M50 58h1M61 58h3M69 58h1M23 59h1M26 59h1M42 59h1M47 59h1M50 59h1M70 59h1M24 60h2M42 60h1M47 60h1M70 60h1M43 61h1M46 61h1M51 61h1M70 61h1M44 62h2M70 62h1M30 63h1M38 63h1M55 63h1M69 63h1M25 64h1M30 64h1M39 64h1M55 64h1M68 64h1M26 65h1M29 65h1M40 65h2M55 65h1M57 65h1M67 65h1M27 66h6M42 66h1M44 66h1M49 66h1M54 66h1M56 66h1M60 66h6M44 67h1M49 67h1M54 67h2M45 68h1M48 68h1M52 68h2M46 69h6" />
<path stroke="#5a5a5a" d="M45 39h1M45 40h1M45 41h1M51 41h1M46 42h1M50 42h1M47 43h3" />
<path stroke="#ffffff" d="M46 39h1M46 40h1M48 40h2M46 41h5M47 42h3" />
</svg>