<svg xmlns="http://www.w3.org/2000/svg" viewBox="0 -0.5 96 96" shape-rendering="crispEdges">
<metadata>Made with Pixels to Svg https://codepen.io/shshaw/pen/XbxvNj</metadata>
<path stroke="#101010" d="M65 20h4M62 21h3M69 21h2M60 22h2M71 22h1M59 23h1M71 23h1M71 24h1M67 29h1M53 30h1M67 30h1M66 31h1M52 32h1M66 32h1M65 33h1M51 34h1M65 34h1M26 35h4M51 35h1M65 35h1M25 36h1M30 36h2M50 36h1M64 36h1M25 37h1M49 37h1M64 37h1M25 38h1M48 38h1M64 38h1M26 39h2M47 39h1M63 39h1M45 40h2M63 40h1M35 41h1M63 41h1M31 42h1M35 42h1M63 42h1M32 43h1M35 43h1M63 43h1M16 44h3M32 44h1M63 44h1M15 45h1M32 45h1M63 45h1M15 46h1M30 46h1M62 46h1M15 47h1M29 47h1M62 47h1M15 48h1M28 48h1M38 48h2M62 48h1M27 49h1M37 49h1M40 49h1M61 49h1M16 50h1M37 50h1M40 50h1M61 50h1M17 51h1M38 51h2M62 51h1M18 52h2M62 52h1M20 53h3M63 53h1M23 54h3M37 54h1M63 54h1M25 55h1M37 55h1M63 55h2M25 56h1M36 56h1M65 56h1M25 57h1M28 57h2M35 57h1M65 57h1M25 58h1M30 58h1M33 58h2M66 58h5M27 59h1M30 59h1M72 59h2M26 60h1M28 60h2M74 60h2M26 61h1M76 61h1M27 62h1M77 62h1M28 63h1M68 63h2M70 64h1M78 64h1M71 65h1M78 65h1M71 66h1M50 67h3M39 68h9M42 69h2M39 70h3M21 71h5M84 71h1M18 72h3M83 72h1M17 73h1M13 74h3" />
<path stroke="#2962de" d="M65 21h2M62 22h5M60 23h4M59 24h4M58 25h5M57 26h5M56 27h5M55 28h5M55 29h4M54 30h4M54 31h3M53 32h3M53 33h1M52 34h2M52 35h1M27 36h3M26 37h5M26 38h5M28 39h3M40 42h5M37 43h10M35 44h12M17 45h2M33 45h8M16 46h3M31 46h6M16 47h4M30 47h6M16 48h4M29 48h6M17 49h3M28 49h7M18 50h2M28 50h6M27 51h7M26 52h7M26 53h6M26 54h5M26 55h2M13 71h1" />
<path stroke="#1852bd" d="M67 21h2M67 22h4M69 23h2M70 24h1M62 26h1M61 27h2M59 29h1M58 30h2M57 31h3M56 32h4M54 33h2M54 34h2M53 35h3M51 36h5M31 37h1M50 37h6M31 38h2M49 38h7M31 39h3M48 39h4M30 40h4M47 40h5M31 41h4M45 41h7M32 42h3M45 42h8M33 43h2M47 43h6M33 44h2M47 44h6M48 45h6M51 46h3M20 48h1M20 49h2M17 50h1M20 50h3M27 50h1M18 51h7M61 51h1M20 52h6M60 52h2M23 53h3M61 53h2M62 54h1M27 63h1M25 64h4M23 65h7M21 66h4M28 66h3M19 67h6M16 68h4M14 69h6M14 70h1" />
<path stroke="#cddeff" d="M64 23h3M63 24h4M63 25h2M41 45h7M37 46h12M36 47h13M35 48h3M40 48h9M35 49h2M41 49h8M34 50h3M41 50h8M34 51h4M40 51h9M33 52h15M32 53h16M31 54h6M38 54h9M60 54h1M28 55h9M38 55h9M59 55h1M61 55h1M26 56h10M39 56h7M60 56h1M26 57h2M30 57h5M36 57h9M26 58h2M31 58h2M36 58h8M31 59h4M36 59h7M27 60h1M30 60h12M27 61h13M28 62h10M29 63h6" />
<path stroke="#a4ace6" d="M67 23h2M67 24h3M65 25h5M63 26h6M63 27h6M60 28h8M60 29h7M60 30h7M60 31h6M60 32h6M56 33h9M56 34h9M56 35h9M56 36h8M56 37h8M56 38h8M52 39h11M52 40h11M52 41h11M53 42h10M53 43h10M53 44h10M54 45h9M49 46h2M54 46h8M49 47h13M49 48h13M49 49h12M49 50h12M49 51h11M49 52h10M49 53h1M51 53h10M49 54h1M51 54h9M61 54h1M48 55h1M51 55h8M60 55h1M62 55h1M46 56h3M50 56h10M61 56h2M45 57h18M44 58h19M43 59h19M42 60h20M40 61h21M38 62h22M35 63h24M30 64h28M32 65h4M38 65h18M25 66h3M31 66h1M36 66h2M40 66h13M25 67h10M39 67h9M20 68h19M20 69h22M15 70h11M34 70h5M14 71h7M13 72h5M13 73h3" />
<path stroke="#08399c" d="M58 24h1M57 25h1M70 25h1M56 26h1M69 26h1M55 27h1M69 27h1M54 28h1M68 28h1M54 29h1M53 31h1M52 33h1M26 36h1M32 37h1M33 38h1M34 39h1M28 40h2M34 40h1M30 41h1M40 41h5M37 42h3M36 43h1M16 45h1M19 45h1M31 45h1M19 46h1M20 47h1M21 48h1M16 49h1M22 49h1M23 50h2M26 50h1M25 51h2M60 51h1M59 52h1M63 56h1M63 57h1M63 58h1M26 59h1M62 59h1M62 60h1M61 61h1M60 62h1M25 63h2M59 63h1M23 64h2M29 64h1M58 64h1M21 65h2M30 65h2M56 65h2M19 66h2M32 66h3M53 66h3M16 67h3M35 67h4M48 67h2M14 68h2M13 69h1M13 70h1M26 70h8M12 71h1M34 71h5M12 72h1M12 73h1M16 73h1" />
<path stroke="#ffffff" d="M38 49h1M28 58h1M66 59h5M68 60h6M71 61h5M73 62h4M75 63h2M75 64h3M76 65h2M76 66h2M77 67h1" />
<path stroke="#5a5a73" d="M39 49h1M38 50h2M48 52h1M48 53h1M50 53h1M47 54h2M50 54h1M47 55h1M49 55h2M37 56h2M49 56h1M29 58h1M35 58h1M28 59h2M35 59h1M71 59h1M64 60h4M62 61h2M66 61h1M68 61h3M67 62h1M72 62h1M77 63h1M36 65h2M35 66h1M38 66h2M78 66h1M71 67h1M78 67h1M71 68h1M79 68h1M72 69h1M79 69h1M72 70h1M79 70h1M83 70h2M73 71h1M80 71h2M74 72h2M82 72h1M76 73h6" />
<path stroke="#b4cdff" d="M64 56h1M64 57h1M64 58h2M63 59h3M63 60h1M67 61h1M68 62h4M70 63h5M71 64h4M72 65h4M72 66h4M72 67h5M72 68h7M73 69h6M73 70h6M74 71h6M82 71h2M76 72h6" />
</svg>