<svg xmlns="http://www.w3.org/2000/svg" viewBox="0 -0.5 96 96" shape-rendering="crispEdges">
<metadata>Made with Pixels to Svg https://codepen.io/shshaw/pen/XbxvNj</metadata>
<path stroke="#9cb4f6" d="M79 2h5M76 3h2M85 3h2M74 4h2M87 4h2M73 5h1M90 6h2M74 8h1M75 12h1M79 12h3M78 13h1M82 13h2M7 15h2M84 16h1M87 16h1M7 17h1M11 17h1M15 17h2M7 18h1M11 18h1M14 18h1M7 19h1M11 19h1M14 19h1M78 19h1M8 20h1M11 20h1M14 20h1M77 20h1M8 21h1M11 21h1M14 21h1M77 21h1M85 21h1M8 22h1M12 22h1M15 22h1M77 22h1M84 22h1M8 23h1M12 23h1M15 23h1M77 23h1M84 23h1M8 24h1M12 24h1M15 24h1M76 24h1M83 24h1M8 25h1M12 25h1M15 25h1M76 25h1M2 26h1M9 26h1M12 26h1M15 26h1M76 26h1M9 27h1M12 27h1M15 27h1M76 27h1M9 28h1M13 28h1M16 28h1M75 28h1M9 29h1M13 29h1M16 29h1M75 29h1M10 30h1M3 31h1M6 40h1M10 46h1M14 50h1M76 53h1M77 54h1M85 54h1M77 55h2M84 55h2M77 56h9M76 57h10M76 58h9M75 59h10M75 60h10M33 61h1M74 61h10M32 62h1M45 62h1M66 62h1M73 62h11M27 63h1M39 63h1M46 63h2M67 63h1M71 63h12M27 64h1M44 64h2M47 64h3M61 64h1M68 64h2M71 64h3M76 64h6M28 65h1M36 65h1M45 65h4M68 65h3M77 65h4M31 66h1M46 66h2M68 66h4M76 66h4M32 67h1M35 67h1M38 67h1M67 67h6M74 67h5M30 68h1M67 68h7M75 68h2M34 69h1M66 69h8M75 69h1M65 70h10M25 71h4M36 71h1M64 71h11M27 72h2M64 72h11M76 72h1M35 73h1M64 73h4M70 73h5M76 73h1M64 74h2M71 74h4M76 74h1M64 75h2M72 75h3M76 75h1M72 76h3M76 76h2M71 77h3M75 77h3M70 78h4M75 78h3M53 79h1M67 79h6M74 79h3M78 79h1M52 80h3M57 80h2M68 80h3M73 80h3M55 81h5M73 81h2M55 82h1M57 82h1M59 82h1M73 82h1M57 83h1M59 83h1M79 84h1M75 85h1M77 85h1" />
<path stroke="#627bbd" d="M78 3h2M84 3h1M80 4h1M85 4h1M80 5h1M85 5h1M89 5h1M81 6h1M85 6h1M89 6h1M81 7h1M86 7h1M89 7h1M81 8h1M86 8h1M90 8h1M92 8h1M74 9h1M81 9h1M86 9h1M90 9h1M82 10h1M86 10h1M90 10h1M82 11h1M87 11h1M90 11h1M82 12h1M87 12h1M90 12h1M93 12h1M75 13h1M87 13h1M90 13h1M78 14h1M84 14h1M87 14h1M91 14h1M9 15h2M78 15h1M84 15h1M87 15h1M91 15h1M4 16h3M11 16h3M78 16h1M91 16h1M94 16h1M2 17h2M14 17h1M78 17h1M85 17h1M91 17h1M1 18h1M17 18h1M78 18h1M85 18h1M17 19h1M85 19h1M18 20h1M85 20h1M18 21h1M18 22h1M18 23h1M18 24h1M95 24h1M18 25h1M1 26h1M18 26h1M18 27h1M18 28h1M1 29h1M18 29h1M94 29h1M0 30h1M19 30h1M0 31h1M19 31h1M0 32h1M3 32h1M19 32h1M0 33h1M19 33h1M1 34h1M19 34h1M1 35h1M20 35h1M1 36h1M20 36h1M1 37h1M5 37h1M20 37h1M62 37h5M2 38h1M21 38h1M67 38h2M3 39h1M6 39h1M21 39h1M64 39h1M3 40h1M22 40h1M66 40h1M4 41h1M22 41h1M5 42h2M23 42h1M68 42h1M7 43h1M23 43h1M8 44h1M24 44h1M28 44h1M85 44h1M9 45h1M25 45h1M27 45h1M29 45h1M68 45h1M9 46h1M26 46h1M10 47h1M26 47h1M67 47h1M11 48h1M25 48h1M83 48h1M12 49h1M25 49h1M66 49h1M84 49h1M13 50h1M24 50h1M30 50h1M66 50h1M78 50h1M84 50h1M14 51h2M24 51h1M31 51h1M65 51h1M16 52h1M23 52h1M32 52h2M64 52h1M17 53h1M23 53h1M20 54h1M23 54h1M30 54h1M39 54h1M44 54h1M76 54h1M21 55h2M31 55h1M76 55h1M22 56h1M76 56h1M22 57h1M50 57h1M70 57h1M75 57h1M51 58h1M56 58h1M75 58h1M56 60h1M68 61h1M41 62h1M44 62h1M62 63h1M68 63h1M40 65h2M81 65h1M42 66h3M36 70h1M35 72h1M63 72h1M46 75h1M75 75h1M77 75h1M46 76h1M75 76h1M46 77h1M74 77h1M47 78h1M65 78h1M78 78h1M66 79h1M55 80h2M59 80h1M71 80h1M54 81h1M77 81h1M80 81h1M56 82h1M58 82h1M74 82h1M77 82h1M56 83h1M58 83h1M60 83h1M75 83h1M78 83h1M58 84h1M60 84h1M75 84h1M78 84h1M76 85h1" />
<path stroke="#ffffff" d="M80 3h4M76 4h4M86 4h1M74 5h3M88 5h1M74 6h2M74 7h2M90 7h2M75 8h1M75 9h2M75 10h2M75 11h2M76 12h2M76 13h2M79 13h3M76 14h2M79 14h2M76 15h2M79 15h2M7 16h4M76 16h2M79 16h2M4 17h3M8 17h3M12 17h2M76 17h2M79 17h2M3 18h4M8 18h3M12 18h2M15 18h2M76 18h2M79 18h2M3 19h4M8 19h3M12 19h2M15 19h2M76 19h2M79 19h2M3 20h5M9 20h2M12 20h2M15 20h3M76 20h1M78 20h2M3 21h5M9 21h2M12 21h2M15 21h3M75 21h2M78 21h2M3 22h5M9 22h3M13 22h2M16 22h2M75 22h2M78 22h2M3 23h5M9 23h3M13 23h2M16 23h2M75 23h2M78 23h1M4 24h4M9 24h3M13 24h2M16 24h2M75 24h1M77 24h2M4 25h4M9 25h3M13 25h2M16 25h2M75 25h1M77 25h1M4 26h5M10 26h2M13 26h2M16 26h2M75 26h1M77 26h1M4 27h5M10 27h2M13 27h2M16 27h2M75 27h1M77 27h1M5 28h4M10 28h3M14 28h2M17 28h1M74 28h1M76 28h1M5 29h4M10 29h3M14 29h2M17 29h1M74 29h1M76 29h1M5 30h5M11 30h8M74 30h2M5 31h14M74 31h2M6 32h13M74 32h2M6 33h13M73 33h3M6 34h13M73 34h3M7 35h13M73 35h2M7 36h13M72 36h3M8 37h12M72 37h3M8 38h13M72 38h2M9 39h12M71 39h3M9 40h13M71 40h3M10 41h12M71 41h2M10 42h13M70 42h3M11 43h12M70 43h3M12 44h12M70 44h2M13 45h12M28 45h1M69 45h3M14 46h12M27 46h2M69 46h2M15 47h11M27 47h2M68 47h3M16 48h9M26 48h2M68 48h2M17 49h8M26 49h2M67 49h3M18 50h6M25 50h3M67 50h2M20 51h4M25 51h3M66 51h2M22 52h1M24 52h4M31 52h1M65 52h3M24 53h4M31 53h3M64 53h3M24 54h4M31 54h3M40 54h3M63 54h3M23 55h6M32 55h1M39 55h8M62 55h3M23 56h6M39 56h8M60 56h4M23 57h7M39 57h7M59 57h3M22 58h8M39 58h5M58 58h3M22 59h9M38 59h3M58 59h1M22 60h8M57 60h2M22 61h8M57 61h1M21 62h9M33 62h1M21 63h6M28 63h1M33 63h1M21 64h6M28 64h1M33 64h1M21 65h7M31 65h3M22 66h6M30 66h1M22 67h6M22 68h6M31 68h2M23 69h8M25 70h3M31 73h1M34 73h1" />
<path stroke="#deeeff" d="M81 4h4M77 5h3M81 5h4M86 5h2M76 6h5M82 6h3M86 6h3M76 7h5M82 7h4M87 7h2M76 8h5M82 8h4M87 8h3M91 8h1M77 9h4M82 9h4M87 9h3M91 9h2M77 10h5M83 10h3M87 10h3M91 10h2M77 11h5M83 11h4M88 11h2M91 11h2M78 12h1M83 12h4M88 12h2M91 12h2M84 13h3M88 13h2M91 13h3M81 14h3M85 14h2M88 14h3M92 14h2M81 15h3M85 15h2M88 15h3M92 15h2M81 16h3M85 16h2M88 16h3M92 16h2M81 17h4M86 17h5M92 17h3M2 18h1M81 18h4M86 18h9M2 19h1M81 19h4M86 19h9M2 20h1M80 20h5M86 20h9M2 21h1M80 21h5M86 21h9M2 22h1M80 22h4M85 22h10M2 23h1M79 23h5M85 23h10M2 24h2M79 24h4M84 24h11M2 25h2M78 25h16M3 26h1M78 26h16M3 27h1M78 27h16M3 28h2M77 28h17M3 29h2M77 29h17M1 30h1M3 30h2M76 30h17M1 31h1M4 31h1M76 31h17M1 32h2M4 32h2M76 32h17M1 33h2M4 33h2M76 33h16M2 34h1M4 34h2M76 34h16M2 35h2M5 35h2M75 35h16M2 36h2M5 36h2M75 36h16M2 37h3M6 37h2M75 37h15M3 38h2M6 38h2M62 38h5M74 38h15M4 39h2M7 39h2M65 39h5M74 39h15M4 40h2M7 40h2M67 40h3M74 40h14M5 41h5M68 41h2M73 41h14M7 42h3M73 42h13M8 43h3M73 43h12M9 44h3M72 44h12M10 45h3M72 45h12M11 46h3M71 46h12M11 47h4M71 47h11M12 48h4M28 48h1M70 48h11M82 48h1M13 49h4M28 49h1M70 49h10M81 49h3M15 50h2M28 50h1M69 50h9M80 50h4M16 51h3M28 51h2M68 51h9M78 51h7M17 52h3M28 52h2M68 52h8M77 52h8M19 53h3M28 53h2M68 53h7M77 53h8M21 54h2M28 54h2M43 54h1M67 54h7M78 54h6M29 55h2M61 55h1M65 55h8M80 55h3M29 56h3M47 56h2M59 56h1M65 56h7M30 57h2M46 57h4M51 57h3M64 57h6M30 58h1M44 58h7M52 58h4M62 58h7M41 59h16M59 59h1M61 59h7M38 60h18M60 60h7M38 61h19M58 61h7M37 62h4M47 62h17M65 62h1M37 63h2M49 63h13M64 63h3M37 64h2M50 64h11M62 64h6M37 65h1M50 65h18M34 66h3M49 66h3M55 66h12M33 67h2M47 67h4M56 67h11M33 68h1M48 68h3M58 68h8M49 69h1M59 69h7M61 70h4M62 71h1M67 74h4M66 75h5M66 76h5M66 77h5M67 78h2" />
<path stroke="#101010" d="M73 6h1M73 7h1M92 7h1M73 8h1M93 9h1M74 10h1M93 10h1M74 11h1M93 11h1M74 12h1M94 13h1M75 14h1M94 14h1M75 15h1M94 15h1M75 16h1M75 17h1M95 17h1M75 18h1M95 18h1M1 19h1M75 19h1M95 19h1M1 20h1M75 20h1M95 20h1M1 21h1M74 21h1M95 21h1M1 22h1M74 22h1M95 22h1M1 23h1M74 23h1M95 23h1M1 24h1M74 24h1M1 25h1M74 25h1M94 25h1M74 26h1M94 26h1M2 27h1M74 27h1M94 27h1M2 28h1M73 28h1M94 28h1M2 29h1M73 29h1M2 30h1M73 30h1M93 30h1M2 31h1M73 31h1M93 31h1M73 32h1M93 32h1M3 33h1M72 33h1M92 33h1M3 34h1M72 34h1M92 34h1M4 35h1M72 35h1M91 35h1M4 36h1M71 36h1M91 36h1M71 37h1M90 37h1M5 38h1M61 38h1M71 38h1M89 38h1M62 39h2M70 39h1M89 39h1M65 40h1M70 40h1M88 40h1M67 41h1M70 41h1M87 41h1M69 42h1M86 42h1M69 43h1M85 43h1M69 44h1M84 45h1M29 46h1M68 46h1M83 46h1M29 47h1M82 47h1M29 48h1M67 48h1M81 48h1M29 49h1M39 49h1M80 49h1M29 50h1M39 50h1M79 50h1M30 51h1M39 51h1M77 51h1M85 51h1M30 52h1M39 52h1M76 52h1M85 52h1M18 53h1M30 53h1M38 53h1M40 53h5M63 53h1M75 53h1M85 53h1M18 54h1M38 54h1M45 54h2M61 54h2M74 54h1M86 54h1M18 55h1M38 55h1M47 55h2M59 55h2M73 55h1M86 55h1M18 56h1M38 56h1M49 56h5M58 56h1M72 56h1M86 56h1M18 57h1M38 57h1M54 57h2M58 57h1M71 57h1M86 57h1M18 58h1M38 58h1M57 58h1M69 58h1M85 58h1M18 59h1M37 59h1M57 59h1M68 59h1M85 59h1M19 60h1M37 60h1M67 60h1M85 60h1M19 61h1M37 61h1M65 61h2M84 61h1M19 62h1M36 62h1M42 62h2M64 62h1M67 62h1M84 62h1M20 63h1M32 63h1M36 63h1M40 63h1M44 63h2M63 63h1M69 63h1M83 63h1M20 64h1M32 64h1M36 64h1M39 64h1M46 64h1M70 64h1M82 64h1M20 65h1M34 65h2M39 65h1M71 65h1M32 66h2M39 66h1M72 66h1M80 66h1M30 67h2M36 67h1M39 67h1M73 67h1M79 67h1M28 68h2M35 68h1M38 68h1M44 68h1M74 68h1M77 68h2M22 69h1M33 69h1M35 69h1M38 69h1M74 69h1M76 69h1M23 70h1M30 70h2M34 70h1M38 70h1M45 70h1M75 70h1M24 71h1M29 71h1M37 71h1M45 71h1M75 71h2M25 72h2M29 72h1M37 72h1M46 72h1M75 72h1M77 72h1M27 73h2M30 73h1M36 73h1M46 73h1M63 73h1M75 73h1M77 73h1M31 74h1M36 74h1M47 74h1M63 74h1M75 74h1M77 74h1M31 75h1M35 75h1M63 75h1M32 76h3M64 76h1M78 76h1M50 77h2M64 77h1M78 77h1M52 78h2M62 78h1M64 78h1M74 78h1M47 79h1M54 79h7M65 79h1M73 79h1M79 79h1M48 80h2M66 80h2M72 80h1M79 80h1M50 81h4M60 81h1M68 81h3M72 81h1M54 82h1M60 82h1M72 82h1M81 82h1M55 83h1M61 83h1M73 83h1M81 83h1M56 84h2M59 84h1M61 84h1M73 84h1M80 84h1M58 85h3M74 85h1M78 85h2M75 86h3" />
<path stroke="#941039" d="M69 33h1M65 34h1M68 34h1M70 34h1M65 35h2M68 35h1M70 35h1M65 36h4M67 37h2M70 38h1M60 46h3M59 47h1M62 47h2M39 48h1M59 48h1M62 48h2M38 49h1M44 49h2M59 49h1M62 49h2M37 50h2M43 50h1M46 50h1M58 50h1M61 50h3M36 51h1M38 51h1M43 51h1M46 51h1M58 51h1M60 51h3M35 52h1M37 52h2M44 52h1M47 52h1M58 52h1M60 52h3M34 53h1M36 53h2M45 53h1M47 53h2M57 53h1M59 53h3M19 54h1M35 54h3M48 54h2M57 54h4M19 55h1M33 55h1M35 55h3M49 55h3M56 55h3M20 56h1M32 56h1M34 56h4M55 56h3M20 57h1M34 57h4M56 57h2M20 58h2M31 58h1M33 58h5M72 58h2M19 59h1M21 59h1M31 59h1M33 59h4M71 59h1M74 59h1M21 60h1M31 60h6M70 60h1M72 60h3M21 61h1M30 61h3M34 61h3M69 61h5M20 62h1M30 62h2M34 62h2M68 62h5M30 63h2M34 63h2M70 63h1M29 64h3M34 64h2M74 64h2M29 65h2M72 65h2M76 65h1M29 66h1M73 66h3M21 67h1M28 67h2M21 68h1" />
<path stroke="#de5a8b" d="M69 34h1M69 35h1M69 36h2M69 37h2M69 38h1M60 47h2M60 48h2M60 49h2M44 50h2M59 50h2M37 51h1M44 51h2M59 51h1M36 52h1M45 52h2M59 52h1M35 53h1M46 53h1M58 53h1M34 54h1M47 54h1M19 56h1M19 57h1M32 57h1M19 58h1M32 58h1M20 59h1M32 59h1M72 59h2M20 60h1M30 60h1M71 60h1M20 61h1M74 65h2M21 66h1M28 66h1" />
<path stroke="#bdd5ff" d="M84 44h1M17 50h1M19 51h1M20 52h2M22 53h1M67 53h1M66 54h1M84 54h1M79 55h1M83 55h1M64 56h1M62 57h2M61 58h1M60 59h1M59 60h1M46 62h1M41 63h3M48 63h1M40 64h4M38 65h1M42 65h3M49 65h1M37 66h2M45 66h1M48 66h1M67 66h1M37 67h1M45 67h1M34 68h1M37 68h1M66 68h1M31 69h2M37 69h1M24 70h1M28 70h2M37 70h1M63 71h1M36 72h1M68 73h2M35 74h1M66 74h1M32 75h3M47 75h1M71 75h1M47 76h2M65 76h1M71 76h1M47 77h3M65 77h1M48 78h4M66 78h1M69 78h1M48 79h5M77 79h1M50 80h2M76 80h3M75 81h2M78 81h2M75 82h2M78 82h3M74 83h1M76 83h2M79 83h2M74 84h1M76 84h2" />
<path stroke="#ff8bbd" d="M34 55h1M33 56h1M33 57h1M29 63h1" />
<path stroke="#eeb4c5" d="M52 66h1M54 66h1M46 67h1M51 67h1M45 68h1M47 68h1M57 68h1M48 69h1M50 69h1M60 70h1M61 71h1M62 72h1" />
<path stroke="#ff7b9c" d="M53 66h1M52 67h4M46 68h1M51 68h6M46 69h2M51 69h8M46 70h14M46 71h15M47 72h15M48 73h13M49 74h11M61 74h1M51 75h5M58 75h1M60 75h1M59 76h1M61 76h1" />
<path stroke="#ac294a" d="M44 67h1M45 69h1M48 75h1M49 76h1M63 77h1M61 78h1" />
<path stroke="#9c4100" d="M36 68h1M36 69h1M35 70h1M30 71h1M35 71h1M30 72h1M32 74h3" />
<path stroke="#ee5a00" d="M32 70h2M31 71h4M31 72h4M32 73h2" />
<path stroke="#d5528b" d="M47 73h1M61 73h2M48 74h1M60 74h1M62 74h1M49 75h2M56 75h2M59 75h1M61 75h2M50 76h9M60 76h1M62 76h2M52 77h11M54 78h7" />
</svg>