<svg xmlns="http://www.w3.org/2000/svg" viewBox="0 -0.5 96 96" shape-rendering="crispEdges">
<metadata>Made with Pixels to Svg https://codepen.io/shshaw/pen/XbxvNj</metadata>
<path stroke="#b42008" d="M73 3h2M72 4h1M75 4h1M71 5h1M78 5h2M71 6h1M77 6h1M70 7h1M76 7h1M75 8h1M74 9h2M79 9h1M16 10h2M74 10h1M82 10h2M18 11h1M80 11h2M13 12h2M19 12h1M78 12h2M12 13h1M15 13h2M78 13h1M77 14h1M17 15h1M84 15h2M11 16h2M83 16h1M13 17h2M82 17h1M15 18h1M80 18h1M9 19h2M79 19h1M85 19h1M8 20h1M11 20h1M13 20h1M14 21h2M85 21h2M9 22h1M83 22h2M8 23h1M81 23h2M8 24h1M12 24h1M13 25h2M7 27h1M85 27h3M8 28h2M6 29h2M12 29h2M81 29h1M86 31h1M9 32h1M84 32h1M7 33h2M12 33h2M85 33h2M81 34h2M86 36h1M12 37h1M7 38h2M13 38h2M83 39h1M78 40h3M84 40h2M9 41h1M13 41h1M86 41h1M12 42h1M8 43h1M85 43h1M14 44h1M79 44h2M12 45h2M82 45h2M10 46h2M84 46h1M9 47h1M84 47h1M77 48h2M83 48h1M78 49h1M80 50h1M37 51h3M73 51h1M81 51h1M39 52h1M74 52h1M76 52h1M39 53h1M75 53h1M36 54h1M38 54h1M76 54h1M36 55h1M38 55h1M71 55h1M36 56h1M73 56h1M73 57h1M67 58h1M74 58h1M62 59h1M69 59h1M72 59h1M74 59h1M59 60h1M63 60h1M57 61h1M59 61h1M65 61h1M60 62h1M64 63h1" />
<path stroke="#ff5a10" d="M73 4h2M72 5h3M72 6h3M78 6h2M71 7h3M77 7h3M70 8h1M73 8h1M76 8h4M76 9h3M76 10h3M16 11h2M77 11h2M82 11h2M16 12h3M77 12h1M80 12h4M13 13h2M17 13h2M79 13h4M13 14h3M17 14h1M80 14h3M13 15h4M76 15h1M81 15h1M14 16h3M81 16h1M84 16h2M11 17h2M15 17h1M80 17h1M83 17h3M11 18h4M82 18h4M12 19h1M83 19h2M9 20h2M78 20h1M83 20h2M9 21h4M83 21h1M10 22h2M82 22h1M85 22h2M11 23h1M83 23h4M9 24h2M80 24h1M83 24h3M8 25h4M84 25h2M8 26h3M84 26h1M10 27h1M83 27h1M12 28h1M84 28h4M8 29h3M83 29h5M7 30h3M84 30h3M7 31h3M84 31h2M10 32h1M83 32h1M82 33h1M7 34h3M83 34h4M7 35h3M80 35h1M82 35h5M9 36h2M83 36h3M83 37h2M9 38h2M82 38h1M7 39h3M79 39h1M7 40h3M77 40h1M81 40h3M10 41h1M82 41h4M82 42h4M9 43h3M81 43h4M9 44h3M81 45h1M12 46h1M81 46h3M10 47h3M80 47h4M10 48h3M79 48h4M78 50h2M77 51h4M36 52h3M77 52h4M36 53h3M37 54h1M75 54h1M37 55h1M74 55h3M71 56h1M74 56h3M71 57h2M70 58h4M59 59h1M67 59h1M70 59h2M66 60h3M60 61h1M63 61h1M66 61h3M59 62h1M61 62h4M62 63h2" />
<path stroke="#a44a00" d="M60 5h1M66 5h2M59 6h1M65 6h1M59 7h1M65 7h1M60 8h1M65 8h1M60 9h1M64 9h2M26 10h1M61 10h1M65 10h1M71 10h2M23 11h1M61 11h1M65 11h1M70 11h1M73 11h1M22 12h1M62 12h1M65 12h1M70 12h1M73 12h1M22 13h1M62 13h1M21 14h1M25 14h1M63 14h1M69 14h1M21 15h1M63 15h1M69 15h1M72 15h1M64 16h1M74 16h2M64 17h1M73 17h1M76 17h1M19 18h1M64 18h1M73 18h1M24 19h1M65 19h1M72 19h1M65 20h1M16 21h1M65 21h1M71 21h1M18 22h1M65 22h1M74 22h1M76 22h3M66 23h1M75 23h1M22 24h1M66 24h1M73 24h1M15 25h2M22 25h1M66 25h1M72 25h1M14 26h1M18 26h2M22 26h1M66 26h1M69 26h1M22 27h1M66 27h1M69 27h1M77 27h3M16 28h1M22 28h1M24 28h1M66 28h1M69 28h1M76 28h1M14 29h2M22 29h1M24 29h1M66 29h1M69 29h1M73 29h1M13 30h1M22 30h1M25 30h1M66 30h1M69 30h1M72 30h1M25 31h1M65 31h1M16 32h1M25 32h1M65 32h1M68 32h1M14 33h2M19 33h1M25 33h1M68 33h1M77 33h2M26 34h1M68 34h1M26 35h1M64 35h1M68 35h1M72 35h2M26 36h1M64 36h1M67 36h1M71 36h1M18 37h2M27 37h1M67 37h1M77 37h1M15 38h2M27 38h1M63 38h1M67 38h1M14 39h1M27 39h1M66 39h1M14 40h1M28 40h1M62 40h1M66 40h1M74 40h1M15 41h1M21 41h1M28 41h1M70 41h1M75 41h2M15 42h1M26 42h1M29 42h1M61 42h1M65 42h1M77 42h1M16 43h1M15 44h1M27 44h1M64 44h1M15 45h1M28 45h1M63 45h1M29 46h1M33 46h2M57 46h1M62 46h1M67 46h1M71 46h2M30 47h1M35 47h2M46 47h1M55 47h1M61 47h1M73 47h2M31 48h1M37 48h3M47 48h2M53 48h1M59 48h2M75 48h1M32 49h2M49 49h1M26 50h1M34 50h2M65 50h1M25 51h1M68 51h1M35 52h1M48 52h1M70 52h1M27 53h1M52 53h1M71 53h1M26 54h1M44 54h1M52 54h1M59 54h1M29 55h1M32 55h1M39 55h1M43 55h1M60 55h1M33 56h1M57 56h2M61 56h1M67 56h1M41 57h1M54 57h2M62 57h1M28 58h1M43 58h1M58 58h1M27 60h1M29 63h1M24 68h1M27 69h1M23 70h1M23 71h1" />
<path stroke="#101010" d="M61 5h1M75 5h1M62 6h1M68 6h1M75 6h1M80 6h1M63 7h1M68 7h1M74 7h1M80 7h1M63 8h1M69 8h1M74 8h1M80 8h1M69 9h1M64 10h1M69 10h1M79 10h1M15 11h1M26 11h1M69 11h1M79 11h1M84 11h1M15 12h1M26 12h1M69 12h1M84 12h1M26 13h1M69 13h1M73 13h1M83 13h1M12 14h1M16 14h1M18 14h1M73 14h1M83 14h1M12 15h1M18 15h1M25 15h1M82 15h1M13 16h1M18 16h1M25 16h1M72 16h1M82 16h1M86 16h1M10 17h1M19 17h1M25 17h1M72 17h1M81 17h1M86 17h1M10 18h1M25 18h1M72 18h1M76 18h1M86 18h1M11 19h1M16 19h1M20 19h1M71 19h1M76 19h1M12 20h1M16 20h1M24 20h1M71 20h1M75 20h1M85 20h1M8 21h1M17 21h1M24 21h1M75 21h1M84 21h1M8 22h1M15 22h1M19 22h1M24 22h1M87 22h1M9 23h2M15 23h1M24 23h1M74 23h1M79 23h1M87 23h1M11 24h1M16 24h1M24 24h1M79 24h1M86 24h1M7 25h1M17 25h1M24 25h1M78 25h1M86 25h1M7 26h1M24 26h1M77 26h1M85 26h1M8 27h2M14 27h1M24 27h1M76 27h1M84 27h1M10 28h2M15 28h1M75 28h1M80 28h1M82 28h2M88 28h1M16 29h2M74 29h1M80 29h1M88 29h1M6 30h1M79 30h1M87 30h1M6 31h1M13 31h1M79 31h1M87 31h1M7 32h2M14 32h2M77 32h2M85 32h2M9 33h3M16 33h3M65 33h1M76 33h1M83 33h2M6 34h1M13 34h1M65 34h1M74 34h2M79 34h1M87 34h1M6 35h1M13 35h1M79 35h1M87 35h1M7 36h2M14 36h2M78 36h1M87 36h1M9 37h3M16 37h2M64 37h1M85 37h2M76 38h1M83 38h2M6 39h1M63 39h1M74 39h2M80 39h3M6 40h1M72 40h2M7 41h2M14 41h1M19 41h2M62 41h1M71 41h1M9 42h3M16 42h3M86 42h1M30 43h1M60 43h1M77 43h1M86 43h1M8 44h1M31 44h1M59 44h1M75 44h2M81 44h5M9 45h3M17 45h3M32 45h1M58 45h1M71 45h4M20 46h1M56 46h1M68 46h3M15 47h3M21 47h1M23 47h1M42 47h4M54 47h1M9 48h1M18 48h1M21 48h1M24 48h1M40 48h2M51 48h2M84 48h1M10 49h2M19 49h1M21 49h1M24 49h1M38 49h2M50 49h1M57 49h2M75 49h1M79 49h5M13 50h3M24 50h1M37 50h1M49 50h1M54 50h3M66 50h2M73 50h2M12 51h1M17 51h1M20 51h1M22 51h1M24 51h1M30 51h3M36 51h1M48 51h1M53 51h1M69 51h4M11 52h1M18 52h1M20 52h1M22 52h1M28 52h2M33 52h2M52 52h1M62 52h1M75 52h1M81 52h1M15 53h1M25 53h1M35 53h1M63 53h2M76 53h5M16 54h1M19 54h1M21 54h1M23 54h1M25 54h1M65 54h2M71 54h1M10 55h1M16 55h1M26 55h1M30 55h2M40 55h3M57 55h1M61 55h1M67 55h4M77 55h1M10 56h1M16 56h1M20 56h1M22 56h1M24 56h1M29 56h4M37 56h2M54 56h1M62 56h2M72 56h1M77 56h1M15 57h1M25 57h1M29 57h5M36 57h1M58 57h1M64 57h3M74 57h3M12 58h3M21 58h1M24 58h1M29 58h5M36 58h1M55 58h1M59 58h3M18 59h2M22 59h1M25 59h1M28 59h1M31 59h3M36 59h1M56 59h3M68 59h1M73 59h1M78 59h1M20 60h1M23 60h2M32 60h2M36 60h1M56 60h1M69 60h4M77 60h1M21 61h1M27 61h1M32 61h2M36 61h1M64 61h1M69 61h1M76 61h1M21 62h1M26 62h1M28 62h1M31 62h2M35 62h1M57 62h2M65 62h4M75 62h1M20 63h1M26 63h2M30 63h3M34 63h2M59 63h3M65 63h1M74 63h1M28 64h4M34 64h1M62 64h3M72 64h1M77 64h1M30 65h1M33 65h1M35 65h1M59 65h1M62 65h1M70 65h1M76 65h1M26 66h2M32 66h1M35 66h1M59 66h1M61 66h1M67 66h2M73 66h2M83 66h1M24 67h2M28 67h2M31 67h1M59 67h2M65 67h2M70 67h2M82 67h1M23 68h1M29 68h1M31 68h1M36 68h1M59 68h1M62 68h1M68 68h1M79 68h3M21 69h2M28 69h2M31 69h1M59 69h3M65 69h2M76 69h3M26 70h3M30 70h1M59 70h1M63 70h2M73 70h3M20 71h1M25 71h4M30 71h1M59 71h2M68 71h5M19 72h1M23 72h2M26 72h2M30 72h1M60 72h1M66 72h2M17 73h1M19 73h1M26 73h2M29 73h1M60 73h1M18 74h2M25 74h2M29 74h1M55 74h2M60 74h1M81 74h1M25 75h1M28 75h1M54 75h1M60 75h1M78 75h3M26 76h2M29 76h2M53 76h1M60 76h1M67 76h11M30 77h2M38 77h2M49 77h5M55 77h2M58 77h3M31 78h1M38 78h3M44 78h3M52 78h2M55 78h3M61 78h1M25 79h2M28 79h2M32 79h1M38 79h6M46 79h1M50 79h7M61 79h1M67 79h5M83 79h1M27 80h1M30 80h1M32 80h1M37 80h3M49 80h2M53 80h3M57 80h3M61 80h1M72 80h4M83 80h1M32 81h2M35 81h5M48 81h1M53 81h6M60 81h2M76 81h7M24 82h3M29 82h2M33 82h6M53 82h4M67 82h5M22 83h3M28 83h1M31 83h1M33 83h4M52 83h2M55 83h1M24 84h1M27 84h1M32 84h1M34 84h2M52 84h1M55 84h1M64 84h1M26 85h1M35 85h1M55 85h1M60 85h1M65 85h2M26 86h1M34 86h1M45 86h1M50 86h1M54 86h1M61 86h1M67 86h2M73 86h1M31 87h3M46 87h1M50 87h1M53 87h1M62 87h1M69 87h4M46 88h1M49 88h1M57 88h1M63 88h1M47 89h2M53 89h1M58 89h1M64 89h2M53 90h1M58 90h1M66 90h2M52 91h1M54 91h1M59 91h1M50 92h2M54 92h1M60 92h2M55 93h2" />
<path stroke="#ffff39" d="M60 6h2M60 7h3M61 8h2M61 9h3M24 10h2M62 10h2M24 11h2M62 11h3M24 12h2M63 12h2M23 13h3M63 13h2M19 14h2M23 14h2M64 14h2M19 15h2M24 15h1M64 15h2M65 16h1M65 17h1M65 18h1M17 19h2M17 20h2M16 22h2M16 23h2M15 26h2M15 27h2M14 30h3M14 31h3M14 34h3M14 35h3M15 39h4M15 40h4M16 41h2M17 43h2M16 44h4M16 45h1M42 48h3M40 49h4M38 50h4M30 52h2M28 53h5M27 54h5M28 55h1M37 60h2M50 60h3M39 61h2M48 61h2M41 62h1M47 62h1M42 63h1M46 63h1M43 64h3" />
<path stroke="#ffc500" d="M66 6h2M66 7h2M66 8h3M66 9h3M68 10h1M71 11h2M23 12h1M71 12h2M65 13h1M71 13h2M22 14h1M22 15h2M19 16h4M24 16h1M66 16h1M20 17h3M24 17h1M66 17h1M74 17h2M20 18h3M24 18h1M66 18h1M74 18h2M19 19h1M21 19h2M66 19h2M74 19h2M19 20h3M23 20h1M66 20h2M19 21h3M23 21h1M66 21h2M20 22h2M23 22h1M66 22h2M18 23h4M23 23h1M67 23h2M76 23h3M17 24h5M23 24h1M67 24h2M75 24h4M18 25h4M23 25h1M67 25h2M75 25h3M17 26h1M20 26h2M23 26h1M67 26h2M17 27h5M23 27h1M67 27h2M17 28h5M23 28h1M67 28h2M77 28h3M18 29h4M23 29h1M67 29h2M76 29h4M17 30h5M23 30h2M67 30h2M76 30h3M17 31h5M23 31h2M66 31h3M17 32h6M24 32h1M66 32h2M20 33h3M24 33h1M66 33h2M17 34h6M24 34h2M66 34h2M76 34h3M17 35h9M65 35h2M75 35h4M16 36h10M65 36h2M76 36h2M20 37h7M65 37h2M17 38h10M64 38h3M19 39h5M25 39h2M64 39h2M19 40h6M26 40h2M63 40h3M18 41h1M22 41h3M26 41h2M63 41h3M19 42h7M27 42h2M62 42h3M74 42h3M19 43h8M28 43h2M61 43h4M74 43h3M20 44h7M28 44h3M60 44h4M23 45h5M29 45h3M59 45h4M24 46h5M30 46h3M58 46h4M24 47h6M31 47h4M56 47h5M72 47h1M25 48h6M32 48h5M45 48h2M54 48h5M71 48h4M25 49h7M34 49h4M44 49h5M52 49h5M71 49h4M25 50h1M28 50h6M36 50h1M42 50h7M50 50h4M26 51h4M33 51h3M40 51h8M49 51h4M25 52h3M32 52h1M40 52h8M49 52h3M26 53h1M33 53h2M40 53h11M68 53h3M32 54h4M39 54h5M46 54h5M68 54h3M33 55h3M45 55h5M65 55h2M28 56h1M34 56h2M39 56h1M44 56h3M48 56h2M65 56h2M27 57h2M34 57h2M37 57h4M44 57h2M47 57h3M27 58h1M34 58h2M37 58h6M45 58h5M26 59h2M34 59h2M37 59h14M25 60h2M34 60h2M39 60h11M25 61h2M34 61h1M41 61h7M53 61h1M25 62h1M27 62h1M29 62h1M42 62h5M28 63h1M43 63h3M25 68h2M25 69h1M24 70h1" />
<path stroke="#ffac00" d="M71 8h2M70 9h4M70 10h1M73 10h1M75 10h1M74 11h3M74 12h3M74 13h4M74 14h3M78 14h2M73 15h3M77 15h4M17 16h1M73 16h1M76 16h5M16 17h3M77 17h3M16 18h1M77 18h3M81 18h1M13 19h3M77 19h2M80 19h3M14 20h2M76 20h2M79 20h4M13 21h1M76 21h7M12 22h3M75 22h1M79 22h3M12 23h3M80 23h1M13 24h3M81 24h2M12 25h1M79 25h5M11 26h3M78 26h6M11 27h3M80 27h3M13 28h2M81 28h1M11 29h1M82 29h1M10 30h3M80 30h4M10 31h3M80 31h4M11 32h3M79 32h4M79 33h3M10 34h3M80 34h1M10 35h3M81 35h1M11 36h3M79 36h4M13 37h3M78 37h5M11 38h2M77 38h5M10 39h4M76 39h3M10 40h4M75 40h2M11 41h2M77 41h5M13 42h2M78 42h4M12 43h4M78 43h3M12 44h2M77 44h2M14 45h1M75 45h6M13 46h3M73 46h8M13 47h1M75 47h5M76 48h1M76 49h2M75 50h3M74 51h3M71 52h3M72 53h3M72 54h3M72 55h2M68 56h3M63 57h1M67 57h4M62 58h5M68 58h2M60 59h2M63 59h4M57 60h2M60 60h3M64 60h2M58 61h1M61 61h2" />
<path stroke="#e68b00" d="M24 9h2M23 10h1M66 10h2M66 11h3M66 12h3M19 13h2M66 13h3M70 13h1M66 14h3M70 14h3M66 15h3M70 15h2M23 16h1M67 16h5M23 17h1M67 17h5M17 18h2M23 18h1M67 18h5M23 19h1M68 19h3M73 19h1M22 20h1M68 20h3M72 20h3M18 21h1M22 21h1M68 21h3M72 21h3M22 22h1M68 22h6M22 23h1M69 23h5M69 24h4M74 24h1M69 25h3M73 25h2M70 26h7M70 27h6M70 28h5M70 29h3M75 29h1M70 30h2M73 30h3M22 31h1M69 31h10M23 32h1M69 32h8M23 33h1M69 33h7M23 34h1M69 34h5M67 35h1M69 35h3M74 35h1M68 36h3M72 36h4M68 37h9M68 38h8M24 39h1M67 39h7M25 40h1M67 40h5M25 41h1M66 41h4M72 41h3M66 42h8M27 43h1M65 43h9M65 44h10M64 45h7M63 46h4M62 47h10M61 48h10M51 49h1M59 49h12M27 50h1M57 50h8M68 50h5M54 51h14M53 52h9M63 52h7M51 53h1M53 53h10M65 53h3M45 54h1M51 54h1M53 54h6M60 54h5M67 54h1M44 55h1M50 55h7M58 55h2M62 55h3M40 56h4M47 56h1M50 56h4M55 56h2M59 56h2M64 56h1M42 57h2M46 57h1M50 57h4M56 57h2M59 57h3M44 58h1M50 58h5M56 58h2M51 59h5M53 60h3M29 61h1M35 61h1M54 61h3M33 62h2M55 62h2M33 63h1M56 63h3M32 64h2M35 64h1M57 64h3M31 65h2M58 65h1M58 66h1M26 67h2M27 68h2M24 69h1M26 69h1M25 70h1M24 71h1" />
<path stroke="#73737b" d="M20 45h3M16 46h1M23 46h1M14 47h1M13 48h1M12 49h1M12 50h1M19 50h1M21 50h1M16 51h1M24 52h1M11 53h1M18 53h1M20 53h1M22 53h1M10 54h1M19 55h1M21 55h1M23 55h1M27 55h1M27 56h1M11 57h1M16 57h2M20 57h1M22 57h1M26 57h1M78 57h1M17 58h1M23 58h1M26 58h1M77 58h1M21 60h2M76 62h1M73 63h1M77 63h1M20 64h1M24 64h1M60 64h2M71 64h1M79 64h4M22 65h1M29 65h1M60 65h2M63 65h1M69 65h1M77 65h2M83 65h1M29 66h3M60 66h1M62 66h1M66 66h1M75 66h1M17 67h1M30 67h1M61 67h1M64 67h1M72 67h1M17 68h1M30 68h1M60 68h1M63 68h1M69 68h1M16 69h1M30 69h1M67 69h1M16 70h1M20 70h1M29 70h1M16 71h1M29 71h1M61 71h2M73 71h6M17 72h1M28 72h1M63 72h3M79 72h2M61 73h2M81 73h1M27 74h1M61 75h5M66 76h1M61 77h2M78 77h4M63 78h4M82 78h1M81 79h2M51 80h1M62 80h2M50 81h1M52 81h1M64 81h3M72 81h1M47 82h1M49 82h1M52 82h1M58 82h1M61 82h1M46 83h1M48 83h1M51 83h1M56 83h1M59 83h1M62 83h2M69 83h2M46 84h1M48 84h1M51 84h1M56 84h1M59 84h1M71 84h2M45 85h1M47 85h1M50 85h2M56 85h1M73 85h1M47 86h1M56 86h1M60 86h1M66 86h1M49 87h1M57 87h1M61 87h1M67 87h1M53 88h1M61 88h1M68 88h1M49 89h1M62 89h1M68 89h1M49 90h1M52 90h1M62 90h1M49 91h1M57 91h1M62 91h1M57 92h1" />
<path stroke="#e6e6ee" d="M17 46h3M18 47h3M14 48h4M13 49h4M12 52h3M12 53h3M12 54h3M12 55h2M77 57h1M75 58h2M75 59h3M73 60h4M72 61h4M72 62h2M75 63h2M73 64h4M72 65h3M79 65h4M77 66h6M76 67h6M77 68h2M74 72h5M73 73h8M73 74h8M74 75h1M75 77h3M75 78h7M75 79h5M69 80h3M76 80h7M69 81h3M68 83h1M67 84h4M64 85h1M67 85h4M64 86h2M69 86h4M63 87h4M64 88h4M61 89h1M66 89h2M60 90h2M60 91h2" />
<path stroke="#cdcdd5" d="M21 46h2M22 47h1M19 48h2M17 49h2M20 49h1M16 50h3M20 50h1M13 51h3M18 51h2M21 51h1M15 52h3M19 52h1M21 52h1M16 53h2M19 53h1M21 53h1M11 54h1M17 54h2M20 54h1M17 55h2M17 56h1M22 61h3M70 61h2M22 62h3M70 62h2M21 63h5M69 63h4M21 64h2M25 64h1M68 64h3M20 65h2M23 65h3M66 65h3M71 65h1M19 66h6M69 66h4M76 66h1M18 67h5M67 67h3M74 67h2M18 68h3M70 68h7M17 69h3M69 69h7M17 70h2M70 70h2M17 71h2M70 72h4M68 73h5M68 74h5M69 75h5M68 77h7M69 78h6M73 79h2M66 80h3M67 81h2M47 83h1M66 83h2M47 84h1M63 84h1M65 84h2M46 85h1M61 85h3M48 86h1M62 86h2M47 87h2M60 87h1M47 88h2M59 88h2M59 89h2M57 90h1M59 90h1M56 91h1M55 92h2" />
<path stroke="#a4a4ac" d="M22 48h2M22 49h2M22 50h2M23 51h1M23 52h1M23 53h2M15 54h1M22 54h1M24 54h1M11 55h1M14 55h2M20 55h1M22 55h1M24 55h2M11 56h5M18 56h2M21 56h1M23 56h1M25 56h2M12 57h3M18 57h2M21 57h1M23 57h2M18 58h3M22 58h1M25 58h1M20 59h2M23 59h2M69 62h1M74 62h1M66 63h3M23 64h1M26 64h2M65 64h3M19 65h1M26 65h3M64 65h2M18 66h1M25 66h1M28 66h1M63 66h3M23 67h1M62 67h2M73 67h1M21 68h2M61 68h1M64 68h4M20 69h1M62 69h3M68 69h1M19 70h1M60 70h3M65 70h5M72 70h1M19 71h1M63 71h5M18 72h1M29 72h1M61 72h2M68 72h2M18 73h1M28 73h1M63 73h5M28 74h1M61 74h7M26 75h2M66 75h3M75 75h3M61 76h5M63 77h5M62 78h1M67 78h2M62 79h5M72 79h1M80 79h1M52 80h1M64 80h2M49 81h1M51 81h1M59 81h1M62 81h2M48 82h1M50 82h2M57 82h1M59 82h2M62 82h5M49 83h2M57 83h2M60 83h2M64 83h2M49 84h2M57 84h2M60 84h3M48 85h2M57 85h3M71 85h2M46 86h1M49 86h1M51 86h1M55 86h1M57 86h3M51 87h2M54 87h3M58 87h2M50 88h3M54 88h3M58 88h1M50 89h3M54 89h4M50 90h2M54 90h3M50 91h2M55 91h1" />
<path stroke="#c5c5c5" d="M29 59h1M30 62h1M54 62h1M54 63h2M54 64h3M53 65h5M36 66h1M53 66h5M52 67h7M37 68h1M51 68h8M50 69h9M49 70h8M58 70h1M47 71h3M53 71h5M45 72h5M54 72h5M40 73h9M55 73h4M42 74h7M58 74h2M41 75h1M43 75h6M50 75h1M59 75h1M40 76h3M44 76h6M51 76h2M56 76h1M59 76h1M29 77h1M40 77h4M45 77h3M28 78h2M41 78h3M49 79h1M59 79h1M25 80h1M24 81h1M26 83h1M26 84h1M53 84h1M34 85h1M54 85h1M33 86h1" />
<path stroke="#ffffff" d="M30 59h1M29 60h2M28 61h1M30 61h1M37 61h2M50 61h3M36 62h5M48 62h6M36 63h6M47 63h7M36 64h7M46 64h8M36 65h17M75 65h1M37 66h16M37 67h15M38 68h13M36 69h1M38 69h12M36 70h1M38 70h11M36 71h2M39 71h8M51 71h2M36 72h9M51 72h3M36 73h4M50 73h5M37 74h4M50 74h5M37 75h4M51 75h3M56 75h2M38 76h2M57 76h1M28 77h1M57 77h1M27 78h1M48 78h2M59 78h2M27 79h1M48 79h1M60 79h1M24 80h1M48 80h1M60 80h1M23 81h1M23 82h1M25 84h1M25 85h1M33 85h1M53 85h1M32 86h1M53 86h1" />
<path stroke="#6a6a6a" d="M28 60h1M31 60h1M31 61h1M36 67h1M35 69h1M37 69h1M35 70h1M37 70h1M57 70h1M35 71h1M38 71h1M50 71h1M58 71h1M35 72h1M50 72h1M59 72h1M35 73h1M49 73h1M59 73h1M36 74h1M41 74h1M49 74h1M57 74h1M36 75h1M42 75h1M49 75h1M55 75h1M58 75h1M28 76h1M37 76h1M43 76h1M50 76h1M54 76h2M58 76h1M27 77h1M44 77h1M48 77h1M54 77h1M26 78h1M30 78h1M47 78h1M50 78h2M54 78h1M58 78h1M24 79h1M30 79h2M47 79h1M57 79h2M23 80h1M26 80h1M28 80h2M31 80h1M47 80h1M56 80h1M22 81h1M25 81h7M47 81h1M22 82h1M27 82h2M31 82h2M25 83h1M27 83h1M32 83h1M54 83h1M33 84h1M54 84h1M24 85h1M32 85h1M52 85h1M25 86h1M31 86h1M52 86h1" />
</svg>