<svg xmlns="http://www.w3.org/2000/svg" viewBox="0 -0.5 96 96" shape-rendering="crispEdges">
<metadata>Made with Pixels to Svg https://codepen.io/shshaw/pen/XbxvNj</metadata>
<path stroke="#526283" d="M44 26h2M38 27h3M37 28h1M41 28h1M37 29h1M36 30h1M36 31h1M36 32h1M41 32h1M36 33h1M40 33h1M45 33h2M36 34h1M40 34h1M44 34h1M37 35h1M43 35h1M37 36h1M37 37h1M37 38h1M29 39h2M36 39h1M59 39h3M28 40h1M35 40h1M58 40h1M32 41h1M35 41h1M57 41h1M63 41h1M28 42h2M35 42h1M39 42h1M42 42h1M56 42h1M30 43h1M36 43h1M61 43h1M33 44h1M37 44h1M41 44h1M53 44h3M60 44h2M34 45h3M41 45h1M50 45h3M56 45h1M37 46h4M47 46h3M60 46h1M34 47h1M45 47h1M57 47h1M37 48h1M40 48h1M52 48h1M46 49h1M48 55h1M46 56h3M40 57h1M45 57h3M40 58h3M45 58h2M40 59h1M42 59h1M40 60h1M42 60h1M34 62h2M39 62h1M33 63h1M36 63h2M33 64h1M39 64h1M33 65h1M38 65h1M41 65h1M46 65h1M46 66h1M49 66h1M38 67h1M47 67h1M50 67h1M47 68h1M50 68h1" />
<path stroke="#000000" d="M43 27h1M46 27h1M42 28h1M47 28h1M42 29h1M47 29h1M41 30h1M48 30h1M41 31h1M48 31h1M49 32h1M49 33h1M46 34h1M49 34h1M46 35h1M50 35h1M46 36h1M50 36h1M46 37h1M50 37h1M50 38h1M50 39h1M31 40h1M50 40h1M62 40h1M28 41h1M31 41h1M47 41h1M49 41h1M58 41h2M62 41h1M27 42h1M32 42h1M43 42h4M49 42h1M60 42h3M64 42h1M27 43h1M32 43h1M41 43h2M48 43h1M56 43h1M60 43h1M64 43h1M27 44h1M32 44h1M38 44h3M47 44h1M56 44h1M58 44h2M62 44h2M28 45h2M46 45h1M61 45h1M29 46h1M42 46h1M58 46h2M30 47h4M41 47h1M53 47h4M35 48h2M41 48h1M50 48h2M38 49h2M47 49h3M48 50h1M48 51h1M39 52h1M49 52h1M39 53h1M49 53h1M39 54h1M49 54h1M49 55h1M40 56h1M49 56h1M41 57h1M48 57h1M66 57h1M43 58h2M48 58h1M60 58h2M67 58h1M43 59h1M45 59h1M48 59h1M62 59h1M67 59h1M43 60h1M45 60h1M49 60h1M63 60h1M67 60h1M39 61h1M42 61h1M44 61h1M46 61h1M49 61h1M67 61h1M38 62h1M42 62h1M44 62h1M46 62h1M49 62h1M66 62h1M42 63h1M45 63h2M50 63h2M66 63h1M35 64h2M42 64h1M46 64h1M50 64h1M52 64h2M65 64h1M34 65h1M42 65h1M45 65h1M50 65h1M54 65h3M63 65h2M34 66h1M38 66h1M41 66h1M45 66h1M51 66h1M53 66h2M57 66h6M35 67h3M41 67h1M44 67h1M52 67h1M39 68h2M44 68h1M52 68h1M45 69h3M50 69h2M48 70h2" />
<path stroke="#b4e6ee" d="M44 27h2M43 28h2M43 29h2M43 30h1M43 31h1M38 38h1M38 39h2M37 40h2" />
<path stroke="#5ab48b" d="M38 28h1M40 29h2M39 30h2M42 30h1M39 31h2M39 32h2M41 33h1M48 34h1M40 35h1M42 36h1M38 37h1M49 37h1M49 38h1M37 39h1M48 39h2M30 40h1M47 40h3M59 40h1M44 41h3M48 41h1M30 42h2M47 42h2M31 43h1M47 43h1M57 43h1M62 43h1M30 44h2M46 44h1M57 44h1M30 45h4M45 45h1M57 45h4M30 46h2M41 46h1M45 46h2M56 46h2M39 47h2M46 47h3M38 48h2M46 48h4M47 50h1M47 51h1M47 52h2M47 53h2M47 54h2M47 55h1M47 58h1M41 59h1M46 59h2M41 60h1M46 60h3M40 61h2M47 61h2M40 62h2M47 62h2M38 63h4M47 63h3M37 64h2M40 64h2M47 64h3M37 65h1M39 65h2M47 65h3M37 66h1M47 66h2M50 66h1M48 67h2" />
<path stroke="#8bdebd" d="M39 28h2M45 28h2M38 29h2M45 29h2M37 30h2M44 30h4M37 31h2M42 31h1M44 31h4M37 32h2M42 32h7M37 33h3M42 33h3M48 33h1M37 34h3M41 34h3M38 35h2M41 35h2M49 35h1M38 36h4M49 36h1M39 37h4M39 38h4M40 39h4M29 40h1M36 40h1M39 40h6M60 40h2M29 41h2M36 41h8M60 41h2M36 42h3M40 42h2M57 42h3M63 42h1M28 43h2M37 43h4M58 43h2M63 43h1M28 44h2M53 45h3M32 46h5M50 46h6M35 47h4M49 47h4M34 63h2M34 64h1M35 65h2M35 66h2M39 66h2M39 67h2M45 67h2M51 67h1M45 68h2M48 68h2M51 68h1M48 69h2" />
<path stroke="#a48300" d="M47 33h1M35 34h1M35 35h1M35 36h1M43 36h1M48 36h1M35 37h1M43 37h1M48 37h1M35 38h1M43 38h1M46 38h1M48 38h1M44 39h1M47 39h1M45 40h2" />
<path stroke="#ffffff" d="M45 34h1M44 35h2M47 35h1M45 36h1" />
<path stroke="#ffa420" d="M47 34h1M48 35h1M36 37h1M47 37h1M36 38h1M44 38h2M47 38h1M45 39h2" />
<path stroke="#ffe652" d="M36 35h1M36 36h1M44 36h1M47 36h1M44 37h2" />
<path stroke="#e6bda4" d="M43 43h3M42 44h3M43 45h1M43 46h1M42 47h2M42 48h3M41 49h1M44 49h1M45 50h1M40 51h1M45 55h1M41 56h4" />
<path stroke="#bd8373" d="M46 43h1M45 44h1M42 45h1M44 45h1M44 46h1M44 47h1M45 48h1M40 49h1M45 49h1M40 50h1M46 50h1M46 51h1M46 52h1M46 53h1M45 54h2M40 55h5M46 55h1M45 56h1M42 57h3" />
<path stroke="#ffeec5" d="M42 49h2M41 50h4M41 51h5M40 52h6M40 53h6M40 54h5" />
<path stroke="#a43929" d="M63 55h3M50 56h3M62 56h1M66 56h1M58 57h2M61 57h1M44 59h1M44 60h1M45 61h1M45 62h1M50 62h1M65 63h1M51 64h1M51 65h3M52 66h1" />
<path stroke="#d54a41" d="M53 56h4M49 57h3M57 57h1M49 58h2M62 58h1M65 58h2M49 59h2M63 59h4M50 60h2M56 60h1M58 60h1M62 60h1M64 60h3M50 61h3M55 61h1M57 61h1M59 61h1M61 61h6M51 62h4M56 62h1M58 62h1M60 62h6M52 63h13M54 64h11M57 65h6" />
<path stroke="#ff6a5a" d="M63 56h3M52 57h5M62 57h4M51 58h9M63 58h2M51 59h11M52 60h4M57 60h1M59 60h3M53 61h2M56 61h1M58 61h1M60 61h1M55 62h1M57 62h1M59 62h1" />
</svg>