<svg xmlns="http://www.w3.org/2000/svg" viewBox="0 -0.5 96 96" shape-rendering="crispEdges">
<metadata>Made with Pixels to Svg https://codepen.io/shshaw/pen/XbxvNj</metadata>
<path stroke="#395a5a" d="M33 12h2M32 13h1M35 13h1M45 13h3M31 14h1M37 14h2M31 15h1M30 16h1M30 17h1M29 18h1M29 19h1M33 19h1M29 20h1M33 20h1M28 21h1M32 21h1M28 22h1M42 22h1M28 23h1M40 23h2M28 24h1M35 24h5M29 25h1M44 27h1M44 28h1M38 29h1M44 29h1M32 30h2M38 30h1M49 30h2M31 31h1M33 31h1M38 31h1M45 31h1M18 32h1M18 33h1M21 33h1M32 33h1M53 33h1M59 33h1M18 34h1M22 34h1M32 34h1M45 34h1M54 34h1M59 34h1M19 35h1M23 35h1M28 35h1M45 35h1M58 35h1M18 36h1M21 36h1M24 36h1M27 36h1M38 36h1M45 36h1M51 36h1M55 36h1M58 36h1M61 36h1M17 37h2M27 37h1M36 37h1M46 37h1M55 37h1M58 37h1M61 37h1M65 37h1M17 38h1M20 38h2M26 38h1M35 38h1M52 38h1M66 38h1M17 39h1M25 39h1M35 39h1M63 39h1M16 40h1M34 40h1M37 40h1M44 40h1M57 40h1M16 41h1M27 41h1M33 41h1M45 41h1M59 41h1M67 41h1M16 42h1M28 42h1M32 42h1M43 42h2M53 42h1M67 42h1M20 43h4M29 43h3M36 43h1M45 43h1M48 43h1M62 43h2M19 44h1M24 44h1M34 44h2M46 44h1M33 45h1M36 45h1M60 49h2M63 49h2M66 49h2M70 49h2M34 50h1M54 50h1M69 50h1M73 50h2M54 51h1M56 51h2M61 51h1M76 51h1M54 52h4M68 52h1M46 53h1M54 53h3M60 53h1M29 54h1M46 54h1M54 54h3M60 54h1M66 54h1M74 54h1M29 55h1M45 55h1M55 55h1M66 55h1M73 55h1M28 56h1M45 56h1M55 56h1M28 57h1M33 57h1M44 57h1M69 57h1M73 57h1M76 57h2M33 58h1M44 58h1M61 58h1M70 58h3M77 58h1M34 59h1M67 59h3M74 59h1M34 60h1M72 60h2M75 60h1M35 61h1M70 61h2M76 61h1M37 62h1M67 62h2M77 62h1M45 63h1M62 63h4M78 63h1M43 64h2M58 64h3M72 64h1M76 64h1M79 64h1M73 65h1M76 65h1M79 65h1M47 66h2M73 66h1M77 66h1M79 66h1M46 67h5M66 67h1M71 67h1M74 67h1M47 68h6M67 68h1M71 68h1M75 68h1M30 69h1M47 69h1M49 69h2M52 69h2M67 69h1M72 69h1M75 69h3M26 70h4M51 70h4M64 70h1M68 70h1M72 70h1M24 71h2M46 71h1M53 71h2M64 71h1M68 71h1M23 72h1M26 72h2M65 72h1M22 73h1M25 73h1M29 73h1M32 73h1M55 73h1M65 73h2M22 74h1M24 74h1M28 74h1M65 74h1M22 75h1M24 75h1M28 75h1M24 76h1M28 76h1M24 77h1M28 77h1M59 78h1" />
<path stroke="#bdf6ff" d="M33 13h1M32 14h1M32 15h1M31 16h1M31 17h1M30 18h1M36 18h2M30 19h1M36 19h2M35 20h1M36 50h2M35 51h4M35 52h4M36 53h2M30 56h1M29 57h2M48 57h1M29 58h2M47 58h3M29 59h1M47 59h3M48 60h1" />
<path stroke="#62b49c" d="M34 13h1M33 14h2M41 14h1M47 14h1M33 15h1M32 16h1M32 17h1M46 17h1M31 18h2M31 19h2M45 19h1M31 20h2M36 20h1M30 21h1M35 21h1M44 21h1M43 22h2M34 23h4M42 23h2M32 24h1M42 24h2M42 25h2M42 26h2M42 27h2M41 28h3M40 29h4M39 30h5M39 31h6M50 31h1M30 32h1M39 32h6M50 32h2M29 33h1M39 33h6M50 33h3M28 34h1M31 34h1M39 34h1M43 34h2M51 34h3M30 35h2M44 35h1M51 35h3M29 36h2M52 36h3M28 37h3M37 37h2M45 37h1M52 37h3M27 38h3M36 38h3M47 38h1M53 38h3M26 39h4M36 39h2M53 39h3M24 40h5M35 40h2M45 40h1M54 40h3M22 41h5M36 41h1M44 41h1M55 41h1M65 41h1M21 42h7M36 42h1M45 42h2M58 42h4M64 42h1M66 42h1M24 43h5M35 43h1M38 43h1M44 43h1M46 43h1M51 43h1M57 43h3M65 43h2M26 44h7M44 44h2M49 44h1M55 44h2M65 44h2M28 45h5M44 45h3M53 45h1M65 45h1M30 46h2M45 46h2M45 47h3M45 48h3M46 49h3M46 50h3M60 50h2M63 50h2M66 50h2M70 50h2M46 51h1M48 51h2M73 51h2M46 52h1M48 52h3M76 52h1M47 53h1M50 53h2M51 54h2M52 55h2M53 56h1M45 57h1M53 57h2M45 58h1M53 58h2M75 58h2M33 59h1M45 59h1M53 59h3M33 60h1M35 60h1M41 60h2M53 60h3M74 60h1M28 61h1M32 61h2M36 61h3M46 61h1M52 61h4M72 61h4M29 62h5M47 62h1M51 62h5M69 62h8M30 63h2M48 63h8M66 63h5M72 63h3M76 63h2M48 64h7M61 64h11M73 64h3M77 64h1M49 65h5M58 65h7M66 65h7M74 65h2M77 65h2M51 66h2M58 66h8M67 66h3M71 66h2M74 66h3M78 66h1M59 67h7M67 67h4M72 67h2M75 67h1M60 68h3M64 68h3M68 68h3M72 68h1M60 69h3M64 69h3M68 69h4M31 70h1M61 70h3M65 70h3M69 70h2M26 71h2M62 71h2M65 71h2M28 72h1M30 73h1M57 73h2M23 74h1M55 74h2M59 74h2M26 75h2M30 75h1M55 75h1M59 75h2M25 76h1M29 76h1M54 76h3M59 76h2M55 77h1M59 77h1M58 78h1M53 79h1M58 79h1M60 79h1M61 80h1M57 81h1" />
<path stroke="#000000" d="M41 13h4M39 14h2M48 14h1M37 15h2M48 15h1M36 16h1M47 16h1M35 17h1M47 17h1M34 18h1M46 18h1M46 19h1M37 20h1M46 20h1M37 21h1M45 21h1M45 22h1M45 23h1M33 24h2M44 24h1M32 25h1M44 25h1M30 26h3M44 26h1M33 27h1M34 28h2M36 29h2M49 31h1M51 31h1M60 31h1M19 32h1M33 32h1M38 32h1M45 32h1M49 32h1M52 32h1M59 32h1M61 32h1M20 33h1M38 33h1M45 33h1M49 33h1M61 33h1M38 34h1M50 34h1M61 34h1M32 35h1M38 35h1M50 35h1M54 35h1M61 35h1M19 36h2M31 36h1M37 36h1M50 36h1M21 37h4M31 37h1M47 37h1M49 37h1M51 37h1M62 37h3M25 38h1M30 38h1M48 38h1M56 38h1M59 38h4M65 38h1M20 39h1M30 39h1M48 39h1M52 39h1M56 39h3M62 39h1M66 39h1M17 40h1M20 40h1M22 40h2M29 40h1M49 40h1M53 40h1M63 40h1M66 40h1M18 41h1M20 41h2M28 41h1M37 41h1M46 41h1M50 41h1M54 41h1M60 41h2M63 41h1M66 41h1M18 42h1M20 42h1M37 42h1M47 42h1M51 42h2M62 42h2M65 42h1M16 43h1M19 43h1M37 43h1M47 43h1M60 43h2M64 43h1M67 43h1M17 44h1M25 44h1M37 44h1M47 44h2M57 44h3M62 44h3M67 44h1M18 45h2M26 45h2M47 45h1M49 45h2M54 45h3M64 45h1M66 45h1M28 46h2M32 46h1M36 46h1M47 46h1M51 46h3M64 46h2M30 47h2M35 47h1M48 47h1M35 48h1M48 48h1M35 49h1M49 49h1M53 49h2M49 50h1M55 50h3M59 50h1M62 50h1M65 50h1M68 50h1M72 50h1M34 51h1M50 51h1M55 51h1M58 51h1M62 51h1M64 51h1M68 51h1M72 51h1M75 51h1M34 52h1M51 52h2M58 52h1M61 52h1M64 52h1M67 52h1M71 52h2M75 52h1M77 52h1M33 53h1M53 53h1M57 53h1M63 53h1M67 53h1M71 53h1M74 53h1M77 53h1M53 54h1M57 54h1M63 54h1M70 54h1M76 54h1M54 55h1M56 55h1M62 55h1M70 55h1M76 55h1M54 56h1M56 56h1M62 56h1M69 56h1M75 56h1M55 57h1M61 57h1M74 57h1M27 58h1M55 58h1M27 59h1M44 59h1M56 59h1M75 59h2M27 60h1M44 60h1M56 60h1M27 61h1M45 61h1M56 61h1M27 62h1M36 62h1M45 62h1M56 62h1M28 63h1M37 63h3M46 63h1M57 63h1M28 64h1M36 64h1M40 64h3M47 64h1M57 64h1M29 65h1M35 65h1M43 65h6M57 65h1M30 66h1M35 66h1M46 66h1M49 66h2M57 66h1M31 67h1M36 67h1M45 67h1M51 67h2M58 67h1M78 67h1M31 68h1M36 68h1M45 68h1M53 68h1M59 68h1M78 68h1M35 69h1M44 69h1M51 69h1M54 69h1M59 69h1M34 70h1M44 70h1M47 70h1M50 70h1M55 70h1M60 70h1M75 70h1M34 71h1M43 71h1M47 71h1M50 71h1M52 71h1M55 71h1M60 71h2M69 71h1M73 71h2M33 72h1M43 72h1M46 72h1M49 72h1M52 72h1M55 72h1M60 72h1M62 72h1M69 72h2M73 72h1M44 73h2M47 73h2M50 73h2M53 73h2M60 73h1M62 73h1M69 73h1M71 73h2M31 74h1M54 74h1M61 74h1M67 74h2M23 75h1M31 75h1M54 75h1M61 75h1M63 75h2M26 76h2M30 76h1M53 76h1M61 76h1M25 77h1M29 77h1M52 77h1M56 77h1M62 77h1M52 78h1M55 78h1M62 78h1M52 79h1M54 79h2M59 79h1M62 79h1M53 80h1M56 80h1M58 80h1M60 80h1M62 80h1M56 81h1M58 81h1M61 81h2M57 82h2" />
<path stroke="#5a948b" d="M35 14h2M34 15h1M33 16h1M38 19h3M45 20h1M31 21h1M44 23h1M30 24h1M41 26h1M41 27h1M40 28h1M39 29h1M44 30h1M60 32h1M19 33h1M60 33h1M19 34h3M60 34h1M20 35h3M59 35h2M22 36h2M59 36h2M59 37h2M58 38h1M42 42h1M41 43h1M38 44h1M40 44h1M39 45h1M33 51h1M47 51h1M59 51h2M63 51h1M65 51h3M69 51h3M31 52h2M47 52h1M59 52h2M62 52h2M65 52h2M69 52h2M73 52h2M30 53h1M52 53h1M58 53h2M61 53h2M64 53h3M68 53h3M72 53h2M75 53h2M58 54h2M61 54h2M64 54h2M67 54h3M71 54h3M75 54h1M57 55h5M63 55h3M67 55h3M71 55h2M74 55h2M57 56h5M63 56h6M70 56h5M56 57h5M62 57h7M70 57h3M75 57h1M56 58h5M62 58h8M73 58h2M57 59h10M70 59h4M43 60h1M45 60h1M57 60h15M34 61h1M39 61h6M57 61h13M28 62h1M34 62h2M38 62h7M46 62h1M57 62h10M29 63h1M32 63h5M40 63h5M47 63h1M56 63h1M58 63h4M71 63h1M75 63h1M29 64h7M45 64h2M55 64h2M78 64h1M30 65h5M54 65h3M65 65h1M31 66h4M53 66h4M66 66h1M70 66h1M32 67h4M53 67h5M32 68h4M46 68h1M54 68h5M63 68h1M74 68h1M31 69h4M45 69h2M48 69h1M55 69h4M63 69h1M32 70h2M45 70h2M48 70h2M56 70h4M32 71h2M44 71h2M48 71h2M51 71h1M56 71h4M32 72h1M44 72h2M47 72h2M50 72h2M53 72h2M56 72h4M31 73h1M56 73h1M59 73h1M57 76h1M58 77h1M60 77h1M54 78h1" />
<path stroke="#a4deee" d="M42 14h5M35 15h2M39 15h9M34 16h2M37 16h10M33 17h2M36 17h10M33 18h1M35 18h1M38 18h8M34 19h2M41 19h4M30 20h1M34 20h1M42 20h3M29 21h1M33 21h2M41 21h3M29 22h8M40 22h2M29 23h5M38 23h2M29 24h1M31 24h1M30 25h2M32 31h1M31 32h2M30 33h2M29 34h2M40 34h3M29 35h1M39 35h5M28 36h1M39 36h6M19 37h2M39 37h6M18 38h2M22 38h3M39 38h8M63 38h2M18 39h2M21 39h4M38 39h10M59 39h3M64 39h2M18 40h2M21 40h1M38 40h6M46 40h3M58 40h5M64 40h2M17 41h1M19 41h1M34 41h2M38 41h6M47 41h3M56 41h3M62 41h1M64 41h1M17 42h1M19 42h1M33 42h3M38 42h4M48 42h3M54 42h4M17 43h2M32 43h3M39 43h2M42 43h2M49 43h2M52 43h5M18 44h1M33 44h1M39 44h1M41 44h3M50 44h5M37 45h2M40 45h4M51 45h2M37 46h8M36 47h9M36 48h9M36 49h10M35 50h1M38 50h8M39 51h7M33 52h1M39 52h7M31 53h2M34 53h2M38 53h7M48 53h2M30 54h3M35 54h8M47 54h4M30 55h3M46 55h6M29 56h1M31 56h2M46 56h7M31 57h2M46 57h2M49 57h4M28 58h1M31 58h2M34 58h2M42 58h2M46 58h1M50 58h3M28 59h1M30 59h3M35 59h9M46 59h1M50 59h3M28 60h5M36 60h5M46 60h2M49 60h4M29 61h3M47 61h5M48 62h3M76 67h2M73 68h1M76 68h2M73 69h2M30 70h1M71 70h1M73 70h2M28 71h4M67 71h1M70 71h3M24 72h2M29 72h3M63 72h2M66 72h3M71 72h2M23 73h2M26 73h3M63 73h2M67 73h2M25 74h3M29 74h2M57 74h2M63 74h2M25 75h1M29 75h1M56 75h3M58 76h1M53 77h2M57 77h1M61 77h1M53 78h1M56 78h2M60 78h2M56 79h2M61 79h1M57 80h1" />
<path stroke="#d54a31" d="M38 20h1M47 32h2M46 33h1M37 35h1M46 35h1M49 35h1M46 36h4M48 37h1M50 49h2M50 50h3M51 51h2" />
<path stroke="#ff6a52" d="M39 20h1M38 21h2M37 33h1M47 33h2M37 34h1M46 34h4M47 35h2" />
<path stroke="#c58339" d="M40 20h2M40 24h2M33 25h9M33 26h8M34 27h7M36 28h4M33 54h1M33 55h1M33 56h1M34 57h1M36 58h6" />
<path stroke="#ffbd52" d="M36 21h1M40 21h1M37 22h3M45 53h1M34 54h1M43 54h3M34 55h11M34 56h11M35 57h9" />
<path stroke="#8b2929" d="M37 32h1M46 32h1M36 33h1M36 34h1M36 35h1M49 48h3M52 49h1M53 50h1M53 51h1M53 52h1" />
</svg>