<svg xmlns="http://www.w3.org/2000/svg" viewBox="0 -0.5 96 96" shape-rendering="crispEdges">
<metadata>Made with Pixels to Svg https://codepen.io/shshaw/pen/XbxvNj</metadata>
<path stroke="#832008" d="M44 11h1M43 12h1M32 13h1M42 13h1M32 14h1M41 14h1M32 15h1M40 15h1M42 15h1M32 16h1M32 17h1M39 17h1M33 18h1M38 18h1M33 19h1M37 19h1M41 19h1M33 20h1M36 20h1M39 20h1M35 21h1M41 22h1M38 23h4M37 24h2M41 24h1M36 25h2M40 25h1M36 26h2M50 27h3M49 28h3M40 29h1M49 29h2M40 30h1M49 30h2M39 31h2M49 31h1M51 31h1M55 31h1M39 32h2M49 32h2M52 32h1M56 32h1M39 33h1M56 33h1M39 34h1M38 35h2M38 36h1M37 37h1M56 37h1M58 37h3M35 38h4M43 38h2M46 38h1M57 38h4M33 39h5M44 39h4M49 39h2M58 39h2M34 40h3M44 40h7M34 41h1M44 41h6M44 42h4M43 43h1M45 43h1M56 43h3M42 44h2M54 44h5M41 45h2M55 45h3M40 46h3M58 46h1M38 47h5M45 47h1M56 47h2M37 48h6M35 49h9M45 49h2M33 50h11M45 50h1M32 51h11M44 51h1M31 52h12M46 52h1M48 52h1M59 52h1M31 53h13M31 54h11M60 54h1M31 55h10M60 55h2M31 56h10M59 56h1M61 56h2M32 57h9M52 57h1M60 57h3M32 58h10M53 58h2M57 58h1M59 58h1M61 58h3M33 59h9M54 59h3M58 59h1M60 59h5M34 60h8M54 60h11M35 61h4M40 61h3M55 61h11M35 62h4M41 62h2M55 62h7M63 62h4M36 63h3M42 63h1M56 63h6M63 63h4M37 64h2M56 64h6M64 64h4M38 65h1M57 65h5M65 65h2M57 66h4M65 66h2M59 67h2M66 67h1M60 68h1" />
<path stroke="#000000" d="M45 11h1M33 12h1M45 12h1M34 13h1M44 13h1M34 14h1M43 14h1M34 15h1M43 15h1M34 16h1M42 16h1M35 17h1M46 17h1M35 18h1M41 18h1M46 18h1M36 19h1M40 19h1M45 19h1M44 20h1M44 21h1M45 22h1M43 23h2M39 24h2M39 25h1M41 25h2M38 26h1M36 27h3M51 32h1M67 32h2M52 33h1M66 33h1M69 33h2M21 34h3M53 34h1M66 34h1M71 34h3M24 35h1M26 35h1M54 35h1M66 35h1M69 35h1M74 35h1M19 36h1M23 36h1M26 36h1M39 36h1M42 36h1M51 36h1M55 36h1M65 36h2M68 36h1M70 36h1M75 36h1M19 37h1M22 37h1M25 37h1M38 37h1M46 37h1M49 37h1M52 37h1M54 37h2M62 37h3M67 37h1M71 37h1M75 37h1M19 38h1M22 38h1M24 38h3M39 38h1M41 38h2M47 38h1M49 38h2M53 38h1M56 38h1M68 38h3M72 38h1M75 38h1M20 39h2M23 39h1M27 39h1M40 39h1M48 39h1M51 39h3M57 39h1M67 39h1M71 39h1M73 39h2M21 40h2M26 40h1M38 40h1M43 40h1M51 40h1M55 40h2M58 40h2M62 40h1M65 40h1M68 40h1M72 40h2M22 41h1M26 41h1M35 41h3M43 41h1M57 41h1M60 41h3M65 41h1M68 41h1M73 41h1M22 42h1M25 42h1M33 42h2M43 42h1M52 42h1M58 42h1M62 42h8M73 42h1M23 43h2M27 43h1M30 43h3M42 43h1M53 43h1M59 43h1M70 43h3M25 44h5M53 44h1M60 44h2M54 45h1M61 45h2M55 46h1M61 46h1M63 46h2M55 47h1M60 47h1M65 47h3M56 48h1M60 48h1M44 49h1M57 49h1M59 49h1M58 50h1M43 51h1M59 51h1M43 52h1M60 52h1M44 53h2M48 53h1M42 54h2M49 54h1M61 54h1M41 55h1M50 55h1M62 55h1M41 56h1M51 56h1M63 56h1M51 57h1M63 57h1M42 58h1M47 58h1M52 58h1M64 58h1M42 59h1M47 59h1M53 59h1M65 59h1M47 60h1M53 60h1M65 60h1M43 61h1M54 61h1M66 61h1M43 62h1M46 62h1M54 62h1M67 62h1M44 63h2M55 63h1M67 63h1M44 64h1M55 64h1M68 64h1M56 65h1M68 65h1M56 66h1M69 66h1M57 67h1M70 67h1M46 68h1M70 68h1M46 69h1M71 69h1M47 70h2M71 70h1M49 71h1M72 71h1M48 72h1M72 72h1M31 73h2M47 73h1M73 73h1M33 74h1M48 74h1M73 74h1M36 75h3M43 75h5M33 76h3M42 76h1M77 76h1M40 77h2M76 77h1M56 78h1M76 78h1M57 79h2M75 79h1M76 80h1M61 82h2M74 82h1M65 83h1M72 83h1M74 83h1M64 84h1M73 84h2" />
<path stroke="#dec5c5" d="M39 12h2M37 13h2M45 13h1M36 14h1M45 14h3M35 15h1M45 15h4M44 16h6M43 17h1M47 17h4M47 18h6M46 19h8M45 20h5M51 20h4M45 21h5M51 21h5M46 22h3M50 22h1M52 22h5M45 23h3M52 23h7M43 24h5M51 24h1M53 24h7M43 25h4M51 25h2M54 25h7M41 26h6M53 26h9M41 27h5M54 27h9M42 28h2M55 28h10M47 29h1M55 29h11M56 30h10M57 31h6M64 31h4M58 32h6M65 32h2M51 33h1M59 33h1M61 33h3M65 33h1M50 34h3M60 34h1M62 34h3M50 35h4M63 35h3M49 36h2M52 36h3M39 37h4M47 37h2M50 37h2M40 38h1M48 38h1M51 38h2" />
<path stroke="#a4837b" d="M41 12h2M48 14h1M51 16h1M51 17h1M50 20h1M50 21h1M57 21h1M51 22h1M57 22h1M51 23h1M52 24h1M53 25h1M50 26h1M63 26h1M49 27h1M63 27h1M40 28h2M48 28h1M48 29h1M48 30h1M66 30h2M41 31h1M48 31h1M56 31h1M63 31h1M41 32h1M57 32h1M64 32h1M40 33h1M57 33h2M60 33h1M58 34h2M61 34h1M59 35h4M61 36h4M54 38h2M41 39h1M55 39h2M39 40h2M42 40h1M57 40h1M38 41h3M42 41h1M58 41h2M38 42h2M41 42h2M59 42h3M38 43h2M41 43h1M60 43h6M67 43h3M73 43h1M39 44h1M62 44h5M68 44h4M63 45h5M69 45h3M65 46h3M69 46h3" />
<path stroke="#b43120" d="M44 12h1M43 13h1M42 14h1M39 16h3M33 17h1M40 18h1M44 18h2M42 19h3M42 20h2M42 21h2M42 22h3M52 28h2M51 29h3M51 30h4M52 31h3M53 32h3M53 33h3M54 34h3M55 35h3M56 36h3M57 37h1M50 41h1M48 42h4M44 43h1M46 43h7M44 44h9M43 45h11M43 46h12M43 47h1M46 47h9M44 48h12M47 49h10M46 50h12M45 51h14M44 52h2M47 52h1M49 52h10M46 53h2M50 53h10M46 54h1M50 54h10M51 55h9M52 56h7M60 56h1M53 57h7M55 58h2M58 58h1M60 58h1M57 59h1M59 59h1" />
<path stroke="#de5a39" d="M33 13h1M33 14h1M33 15h1M41 15h1M33 16h1M34 17h1M40 17h1M34 18h1M39 18h1M34 19h1M38 19h2M34 20h1M37 20h2M34 21h1M36 21h2M34 22h3M34 23h3M35 24h1M35 25h1" />
<path stroke="#fff6f6" d="M39 13h3M37 14h4M44 14h1M36 15h4M44 15h1M36 16h3M43 16h1M36 17h3M42 17h1M36 18h2M49 22h1M48 23h3M48 24h3M47 25h4M47 26h3M46 27h3M44 28h4M42 29h5M42 30h6M42 31h6M42 32h2M45 32h3M41 33h2M46 33h3M41 34h2M46 34h4M41 35h1M46 35h4M40 36h2M47 36h2" />
<path stroke="#6a5a52" d="M46 13h2M49 15h1M35 16h1M50 16h1M52 17h1M53 18h1M54 19h1M55 20h1M56 21h1M58 22h1M59 23h1M60 24h1M61 25h1M62 26h1M40 27h1M64 27h1M65 28h1M41 29h1M66 29h1M41 30h1M68 31h1M44 32h1M48 32h1M69 32h1M23 33h3M43 33h1M45 33h1M49 33h2M64 33h1M26 34h1M40 34h1M43 34h1M45 34h1M65 34h1M69 34h2M20 35h1M40 35h1M42 35h1M45 35h1M24 36h1M46 36h1M69 36h1M23 37h2M26 37h3M53 37h1M66 37h1M68 37h3M72 37h1M74 37h1M20 38h2M23 38h1M29 38h3M61 38h1M63 38h1M65 38h1M67 38h1M71 38h1M73 38h2M22 39h1M30 39h1M32 39h1M54 39h1M60 39h1M62 39h1M65 39h1M72 39h1M28 40h1M31 40h1M33 40h1M41 40h1M60 40h1M67 40h1M74 40h1M25 41h1M28 41h1M31 41h1M33 41h1M41 41h1M63 41h1M66 41h2M69 41h1M72 41h1M74 41h1M23 42h2M26 42h1M28 42h1M30 42h1M32 42h1M37 42h1M40 42h1M70 42h3M74 42h1M25 43h2M28 43h2M37 43h1M40 43h1M66 43h1M74 43h1M38 44h1M40 44h1M67 44h1M72 44h2M39 45h1M68 45h1M72 45h1M68 46h1M72 46h1M69 47h3M46 57h2M45 58h1M44 59h1M43 60h1M46 61h1M45 62h1" />
<path stroke="#412918" d="M41 17h1M44 17h2M42 18h2M35 19h1M35 20h1M33 21h1M38 21h1M33 22h1M37 22h1M33 23h1M37 23h1M42 23h1M34 24h1M36 24h1M42 24h1M34 25h1M38 25h1M35 26h1M39 26h2M51 26h2M53 27h1M54 28h1M39 29h1M54 29h1M39 30h1M55 30h1M38 31h1M50 31h1M38 32h1M38 33h1M38 34h1M57 34h1M37 35h1M58 35h1M37 36h1M59 36h2M35 37h2M43 37h1M61 37h1M32 38h3M38 39h2M42 39h2M37 40h1M51 41h2M56 42h2M54 43h2M41 44h1M59 44h1M40 45h1M58 45h3M38 46h2M56 46h2M59 46h2M37 47h1M44 47h1M58 47h2M35 48h2M43 48h1M57 48h3M33 49h2M58 49h1M32 50h1M44 50h1M31 51h1M30 52h1M30 53h1M49 53h1M60 53h2M30 54h1M47 54h1M30 55h1M46 55h1M30 56h1M31 57h1M41 57h1M42 60h1" />
<path stroke="#ffcd31" d="M40 20h1M40 21h1M62 66h1M62 67h2M58 68h1M62 68h2M59 69h1M62 69h2M59 70h1M61 70h4M59 71h6M60 72h5M60 73h6M60 74h6M60 75h6M60 76h6M67 76h1M61 77h7M61 78h7M61 79h7M60 80h2M63 80h6M59 81h2M63 81h6M64 82h1M66 82h3M64 83h1M67 83h2M68 84h1" />
<path stroke="#d58b29" d="M41 20h1M41 21h1M38 22h1M40 22h1M44 33h1M44 34h1M43 35h2M43 36h3M44 37h2M45 38h1M32 59h1M33 60h1M33 61h2M39 61h1M33 62h2M39 62h2M62 62h1M33 63h3M39 63h3M43 63h1M62 63h1M34 64h3M39 64h5M62 64h2M34 65h4M39 65h5M62 65h3M67 65h1M34 66h11M61 66h1M63 66h2M67 66h2M35 67h10M58 67h1M61 67h1M64 67h2M67 67h3M35 68h11M59 68h1M61 68h1M64 68h6M35 69h11M60 69h2M64 69h7M35 70h11M60 70h1M65 70h6M34 71h15M65 71h7M32 72h16M65 72h7M35 73h11M66 73h7M34 74h8M44 74h4M66 74h7M34 75h2M39 75h4M59 75h1M66 75h8M40 76h2M59 76h1M66 76h1M68 76h9M58 77h3M68 77h8M57 78h4M68 78h7M59 79h2M68 79h7M62 80h1M69 80h7M61 81h2M69 81h5M63 82h1M65 82h1M69 82h5M69 83h3M73 83h1M69 84h2" />
<path stroke="#202931" d="M39 21h1M39 22h1" />
<path stroke="#948373" d="M67 33h2M24 34h2M67 34h2M21 35h1M25 35h1M68 35h1M72 35h2M20 36h3M71 36h4M20 37h2M65 37h1M73 37h1M27 38h2M62 38h1M64 38h1M66 38h1M24 39h1M28 39h2M31 39h1M61 39h1M63 39h2M66 39h1M70 39h1M23 40h3M27 40h1M29 40h2M32 40h1M61 40h1M63 40h2M66 40h1M69 40h3M23 41h2M27 41h1M29 41h2M32 41h1M64 41h1M70 41h2M27 42h1M29 42h1M31 42h1M46 58h1M45 59h2M44 60h3M44 61h2M44 62h1" />
<path stroke="#ffffff" d="M22 35h2M67 35h1M70 35h2M25 36h1M67 36h1M25 39h2M68 39h2" />
<path stroke="#a45a41" d="M31 58h1M31 59h1M32 60h1M32 61h1M32 62h1M32 63h1M33 64h1M33 65h1M44 65h1M33 66h1M45 66h1M34 67h1M45 67h1M34 68h1M57 68h1M34 69h1M58 69h1M34 70h1M46 70h1M58 70h1M32 71h2M58 71h1M31 72h1M59 72h1M33 73h2M46 73h1M59 73h1M42 74h2M59 74h1M33 75h1M58 75h1M74 75h4M39 76h1M58 76h1M57 77h1M75 78h1M59 80h1M58 81h1M74 81h3M58 82h3M63 83h1M66 83h1M67 84h1M71 84h1M68 85h3" />
</svg>