<svg xmlns="http://www.w3.org/2000/svg" viewBox="0 -0.5 96 96" shape-rendering="crispEdges">
<metadata>Made with Pixels to Svg https://codepen.io/shshaw/pen/XbxvNj</metadata>
<path stroke="#7b2094" d="M26 19h1M44 19h2M24 20h2M29 20h1M42 20h2M23 21h1M27 21h2M30 21h2M41 21h1M45 21h1M47 21h3M22 22h1M26 22h3M30 22h3M40 22h1M43 22h3M47 22h4M22 23h1M26 23h4M31 23h2M39 23h1M42 23h4M47 23h4M21 24h1M24 24h2M27 24h3M31 24h3M38 24h1M41 24h4M46 24h4M51 24h1M63 24h5M21 25h1M24 25h2M27 25h3M31 25h3M38 25h1M41 25h3M45 25h4M50 25h2M62 25h1M68 25h2M21 26h1M24 26h2M27 26h4M32 26h3M40 26h4M45 26h4M50 26h2M62 26h1M70 26h2M21 27h1M24 27h3M28 27h3M32 27h3M40 27h3M44 27h4M49 27h3M62 27h1M72 27h1M21 28h1M24 28h3M28 28h4M33 28h3M40 28h3M44 28h4M49 28h3M62 28h1M72 28h1M21 29h1M24 29h3M28 29h4M33 29h3M39 29h3M43 29h4M48 29h4M62 29h1M71 29h1M22 30h1M24 30h4M29 30h3M33 30h3M39 30h3M43 30h4M48 30h3M62 30h1M71 30h1M22 31h1M25 31h3M29 31h4M34 31h1M39 31h3M43 31h3M47 31h4M61 31h1M71 31h1M22 32h1M25 32h3M29 32h4M34 32h1M38 32h3M42 32h4M47 32h3M61 32h1M71 32h1M23 33h1M26 33h3M30 33h3M38 33h3M42 33h3M46 33h3M61 33h1M70 33h1M26 34h3M30 34h1M38 34h3M42 34h3M46 34h2M61 34h1M70 34h1M27 35h2M38 35h3M44 35h4M61 35h1M63 35h1M70 35h1M76 35h1M27 36h2M38 36h2M46 36h1M60 36h1M63 36h1M70 36h1M76 36h2M60 37h1M62 37h2M69 37h1M76 37h2M60 38h1M62 38h2M69 38h1M75 38h3M38 39h1M60 39h1M62 39h2M69 39h1M75 39h4M60 40h1M62 40h2M69 40h1M75 40h4M59 41h1M62 41h2M69 41h1M74 41h5M59 42h1M61 42h4M68 42h1M74 42h4M58 43h1M61 43h4M68 43h1M73 43h5M79 43h1M58 44h1M61 44h5M68 44h1M73 44h4M78 44h2M57 45h1M60 45h7M72 45h5M78 45h2M60 46h5M71 46h5M77 46h3M59 47h5M71 47h5M77 47h3M59 48h3M72 48h3M76 48h4M72 49h2M75 49h5M74 50h6M72 51h8M73 52h7M73 53h6M73 54h4M77 55h2M75 56h4M76 57h2M77 58h1M65 68h2M58 69h2M64 69h1M66 69h2M59 70h2M62 70h3M66 70h3M61 71h5" />
<path stroke="#181818" d="M27 19h3M46 19h2M28 20h1M30 20h2M45 20h1M48 20h2M24 21h1M29 21h1M32 21h1M46 21h1M50 21h1M25 22h1M29 22h1M33 22h1M46 22h1M51 22h1M25 23h1M30 23h1M33 23h1M46 23h1M51 23h1M26 24h1M30 24h1M34 24h1M45 24h1M50 24h1M52 24h1M26 25h1M30 25h1M34 25h1M44 25h1M49 25h1M52 25h1M26 26h1M31 26h1M35 26h1M37 26h1M44 26h1M49 26h1M52 26h1M27 27h1M31 27h1M35 27h1M37 27h1M43 27h1M48 27h1M52 27h1M27 28h1M32 28h1M36 28h1M43 28h1M48 28h1M52 28h1M27 29h1M32 29h1M36 29h1M42 29h1M47 29h1M52 29h1M73 29h1M28 30h1M32 30h1M36 30h1M42 30h1M47 30h1M51 30h1M74 30h1M28 31h1M33 31h1M35 31h1M42 31h1M46 31h1M51 31h1M75 31h1M28 32h1M33 32h1M35 32h1M41 32h1M46 32h1M50 32h1M75 32h1M29 33h1M33 33h3M41 33h1M45 33h1M49 33h1M76 33h1M23 34h1M29 34h1M31 34h2M35 34h1M41 34h1M45 34h1M48 34h1M76 34h1M24 35h1M29 35h2M34 35h1M41 35h3M48 35h1M77 35h1M24 36h1M29 36h1M34 36h1M40 36h1M44 36h2M47 36h1M78 36h1M25 37h1M28 37h1M34 37h1M39 37h1M46 37h2M78 37h1M25 38h1M28 38h1M34 38h1M39 38h1M47 38h1M78 38h1M25 39h1M27 39h1M34 39h1M44 39h4M79 39h1M25 40h1M27 40h1M34 40h1M36 40h1M38 40h1M48 40h2M79 40h1M24 41h2M27 41h1M36 41h1M38 41h1M79 41h1M24 42h1M78 42h2M19 43h2M23 43h1M49 43h7M78 43h1M80 43h1M23 44h1M77 44h1M80 44h1M24 45h1M39 45h1M49 45h1M67 45h3M77 45h1M80 45h1M24 46h1M26 46h1M32 46h4M38 46h1M50 46h3M56 46h1M65 46h2M70 46h1M76 46h1M80 46h1M25 47h1M27 47h1M31 47h1M36 47h2M44 47h3M53 47h1M55 47h1M64 47h1M70 47h1M76 47h1M80 47h1M26 48h2M30 48h1M48 48h6M56 48h2M62 48h2M71 48h1M75 48h1M80 48h1M22 49h4M28 49h2M58 49h4M71 49h1M74 49h1M80 49h1M18 50h4M26 50h2M29 50h1M31 50h1M54 50h1M71 50h3M80 50h1M28 51h2M32 51h3M55 51h3M71 51h1M80 51h1M25 52h1M30 52h1M39 52h2M58 52h2M72 52h1M80 52h1M31 53h8M41 53h2M50 53h1M60 53h1M72 53h1M79 53h1M43 54h1M51 54h1M61 54h1M70 54h1M72 54h1M77 54h3M44 55h1M52 55h1M61 55h1M71 55h1M74 55h3M79 55h1M44 56h1M52 56h1M61 56h1M79 56h1M29 57h1M44 57h1M51 57h1M60 57h1M78 57h1M29 58h1M51 58h1M60 58h1M78 58h1M29 59h1M50 59h1M60 59h1M77 59h1M28 60h1M37 60h1M50 60h1M60 60h1M28 61h1M36 61h1M49 61h1M60 61h1M27 62h1M49 62h1M60 62h1M25 63h2M49 63h1M59 63h1M79 63h1M24 64h1M48 64h1M59 64h1M79 64h1M14 65h1M24 65h1M46 65h2M59 65h1M79 65h1M11 66h1M14 66h1M23 66h1M45 66h1M58 66h1M64 66h1M80 66h1M11 67h1M14 67h1M23 67h1M42 67h1M44 67h1M58 67h1M65 67h2M80 67h1M12 68h3M23 68h1M32 68h1M41 68h1M44 68h1M58 68h2M64 68h1M67 68h1M81 68h1M14 69h1M18 69h1M23 69h1M30 69h2M41 69h1M44 69h1M57 69h1M60 69h4M65 69h1M68 69h1M81 69h1M15 70h3M19 70h4M28 70h2M34 70h2M40 70h1M57 70h2M61 70h1M65 70h1M69 70h2M82 70h1M28 71h1M32 71h2M39 71h1M52 71h1M57 71h1M59 71h2M66 71h3M71 71h1M83 71h1M29 72h4M37 72h2M45 72h2M52 72h1M58 72h1M61 72h5M72 72h1M83 72h1M32 73h5M47 73h1M51 73h1M53 73h1M58 73h1M73 73h1M84 73h1M48 74h3M54 74h4M73 74h1M84 74h1M74 75h3M82 75h2M77 76h5" />
<path stroke="#944a9c" d="M26 20h2M44 20h1M46 20h2M25 21h2M42 21h3M23 22h2M41 22h2M23 23h2M40 23h2M22 24h2M39 24h2M22 25h2M39 25h2M63 25h5M22 26h2M38 26h2M63 26h7M22 27h2M38 27h2M63 27h9M22 28h2M37 28h3M63 28h9M22 29h2M37 29h2M63 29h8M72 29h1M23 30h1M37 30h2M63 30h8M72 30h2M23 31h2M36 31h3M62 31h9M72 31h3M23 32h2M36 32h2M62 32h9M72 32h3M24 33h2M36 33h2M62 33h8M71 33h5M24 34h2M36 34h2M62 34h8M71 34h5M25 35h2M35 35h3M62 35h1M64 35h6M71 35h5M25 36h2M35 36h3M61 36h2M64 36h6M71 36h5M26 37h2M35 37h4M61 37h1M64 37h5M70 37h6M26 38h2M35 38h1M37 38h2M61 38h1M64 38h5M70 38h5M61 39h1M64 39h5M70 39h5M61 40h1M64 40h5M70 40h5M60 41h2M64 41h5M70 41h4M60 42h1M65 42h3M69 42h5M59 43h2M65 43h3M69 43h4M59 44h2M66 44h2M69 44h4M58 45h2M70 45h2M57 46h3M56 47h3M58 48h1" />
<path stroke="#bd52bd" d="M33 34h2M31 35h3M30 36h4M41 36h3M29 37h2M40 37h6M29 38h2M40 38h7M28 39h2M39 39h5M28 40h1M39 40h4M28 41h1M39 41h3M38 42h3M37 43h4M24 44h1M34 44h5M51 44h1M25 45h1M27 45h1M31 45h8M51 45h1M27 46h5M36 46h2M53 46h1M69 46h1M28 47h3M54 47h1M68 47h2M29 48h1M54 48h2M67 48h4M47 49h6M54 49h4M66 49h5M47 50h7M55 50h16M48 51h7M58 51h13M28 52h2M50 52h8M60 52h12M27 53h4M51 53h9M62 53h6M70 53h2M28 54h6M52 54h3M59 54h2M62 54h8M71 54h1M29 55h2M53 55h1M60 55h1M62 55h9M29 56h1M62 56h2M69 56h1M42 57h2M61 57h2M40 58h5M61 58h2M39 59h6M61 59h2M38 60h7M61 60h1M27 61h1M37 61h8M26 62h1M36 62h1M39 62h7M16 63h1M20 63h1M40 63h6M72 63h1M12 64h1M19 64h1M40 64h7M72 64h2M12 65h1M18 65h1M23 65h1M34 65h1M41 65h3M71 65h4M12 66h2M33 66h1M41 66h2M65 66h1M70 66h7M79 66h1M12 67h2M32 67h1M41 67h1M45 67h1M67 67h13M30 68h2M45 68h1M68 68h13M15 69h3M19 69h4M29 69h1M40 69h1M45 69h2M69 69h12M39 70h1M45 70h2M48 70h1M71 70h11M29 71h3M34 71h2M38 71h1M45 71h2M48 71h4M53 71h1M72 71h7M80 71h3M33 72h4M48 72h3M53 72h5M73 72h2M76 72h4M81 72h2M48 73h3M54 73h4M74 73h2M77 73h4M82 73h2M74 74h2M77 74h4M82 74h2M77 75h5" />
<path stroke="#de7bd5" d="M31 37h3M31 38h3M30 39h4M29 40h5M29 41h5M28 42h6M24 43h2M27 43h2M30 43h5M25 44h3M30 44h4M29 45h1M67 46h2M65 47h3M64 48h3M62 49h4M27 54h1M55 54h4M27 55h2M56 55h4M27 56h2M57 56h4M64 56h5M26 57h3M57 57h3M63 57h7M26 58h3M58 58h2M63 58h7M25 59h4M58 59h2M63 59h8M24 60h4M58 60h2M63 60h1M67 60h4M16 61h2M21 61h6M58 61h2M63 61h1M68 61h4M14 62h12M37 62h2M57 62h3M63 62h1M68 62h4M13 63h3M17 63h3M21 63h4M36 63h4M57 63h2M64 63h1M68 63h4M13 64h2M16 64h3M20 64h4M35 64h5M49 64h1M56 64h3M64 64h8M13 65h1M15 65h3M20 65h3M35 65h6M48 65h2M55 65h4M65 65h6M15 66h3M19 66h4M34 66h7M46 66h5M53 66h5M66 66h4M15 67h3M19 67h4M33 67h8M46 67h3M50 67h8M15 68h3M19 68h4M34 68h7M46 68h2M49 68h9M32 69h8M47 69h1M49 69h4M54 69h3M30 70h4M37 70h2M49 70h3M53 70h4M36 71h2M54 71h3" />
<path stroke="#834a29" d="M36 38h1M26 39h1M35 39h1M37 39h1M23 40h2M43 40h1M50 40h2M19 41h4M34 41h1M42 41h1M52 41h4M18 42h1M25 42h1M27 42h1M34 42h1M37 42h1M41 42h1M48 42h1M56 42h1M18 43h1M26 43h1M35 43h2M41 43h1M45 43h1M21 44h2M40 44h1M46 44h2M50 44h1M20 45h1M23 45h1M40 45h1M48 45h1M50 45h1M21 46h2M20 47h1M41 47h1M47 47h1M18 48h2M42 48h3M47 48h1M17 49h1M17 50h1M23 52h2M21 53h2M26 53h1M20 54h1M23 54h2M26 54h1M19 55h1M25 55h2M54 55h2M72 55h2M18 56h3M26 56h1M53 56h1M56 56h1M70 56h1M74 56h1M18 57h1M21 57h2M25 57h1M52 57h1M56 57h1M70 57h1M75 57h1M17 58h1M23 58h1M25 58h1M37 58h2M53 58h3M57 58h1M70 58h1M73 58h4M17 59h1M23 59h2M36 59h1M56 59h2M71 59h2M17 60h1M21 60h3M35 60h1M57 60h1M71 60h1M77 60h1M18 61h3M35 61h1M51 61h3M57 61h1M72 61h1M75 61h4M34 62h1M50 62h1M54 62h1M56 62h1M72 62h1M74 62h1M78 62h1M34 63h1M55 63h2M73 63h1M50 64h1M55 64h1M74 64h1M50 65h1M53 65h2M75 65h2M51 66h2M77 66h2" />
<path stroke="#ee8341" d="M36 39h1M44 40h4M23 41h1M37 41h1M43 41h9M21 42h3M26 42h1M35 42h2M42 42h6M49 42h7M21 43h2M42 43h1M46 43h3M41 44h1M48 44h2M21 45h2M41 45h1M23 46h1M41 46h2M23 47h2M42 47h2M48 47h1M22 48h4M20 49h2M26 49h2M28 50h1M24 56h2M54 56h2M71 56h3M23 57h2M55 57h1M71 57h4M18 58h1M22 58h1M24 58h1M52 58h1M56 58h1M71 58h2M18 59h5M37 59h1M55 59h1M73 59h4M18 60h3M36 60h1M51 60h1M55 60h2M72 60h5M50 61h1M55 61h2M73 61h2M55 62h1M73 62h1M75 62h3M54 63h1M74 63h5M53 64h2M75 64h4M51 65h2M77 65h2" />
<path stroke="#f6b441" d="M26 40h1M35 40h1M37 40h1M26 41h1M35 41h1M19 42h2M43 43h2M42 44h4M42 45h6M43 46h7M21 47h2M49 47h4M20 48h2M18 49h2M23 53h3M21 54h2M25 54h1M20 55h5M21 56h3M19 57h2M53 57h2M19 58h3M51 59h4M52 60h3M54 61h1M51 62h3M50 63h4M51 64h2" />
<path stroke="#ffa4f6" d="M29 43h1M28 44h2M28 45h1M64 60h3M64 61h4M64 62h4M65 63h3" />
<path stroke="#5a1062" d="M39 44h1M26 45h1M30 45h1M52 45h1M25 46h1M54 46h1M26 47h1M28 48h1M53 49h1M26 52h2M48 52h2M61 53h1M68 53h2M34 54h3M31 55h3M30 56h1M42 56h2M40 57h2M39 58h1M38 59h1M16 60h1M62 60h1M14 61h2M61 61h2M13 62h1M35 62h1M62 62h1M12 63h1M35 63h1M63 63h1M11 64h1M15 64h1M34 64h1M63 64h1M11 65h1M19 65h1M33 65h1M44 65h2M64 65h1M18 66h1M32 66h1M43 66h1M18 67h1M30 67h2M49 67h1M18 68h1M29 68h1M33 68h1M48 68h1M28 69h1M48 69h1M53 69h1M36 70h1M44 70h1M47 70h1M52 70h1M44 71h1M47 71h1M79 71h1M47 72h1M51 72h1M75 72h1M80 72h1M76 73h1M81 73h1M76 74h1M81 74h1" />
<path stroke="#c5627b" d="M39 46h1M34 47h2M38 47h2M34 48h6M34 49h5M35 50h2" />
<path stroke="#6a2941" d="M40 46h1M32 47h2M40 47h1M31 48h3M40 48h1M30 49h4M39 49h1M32 50h3M37 50h2M35 51h2" />
<path stroke="#c5c5f6" d="M41 48h1M45 48h1M40 49h6M40 50h2M43 50h4M31 51h1M39 51h2M42 51h5M38 52h1M42 52h6M43 53h7M44 54h6M45 55h3M45 56h1M45 57h1M46 60h1M46 61h1M47 62h2M47 63h2" />
<path stroke="#6a7b73" d="M46 48h1M46 49h1M30 50h1M42 50h1M30 51h1M41 51h1M47 51h1M31 52h1M41 52h1M45 58h1M45 59h1M45 60h1M45 61h1M46 62h1M61 62h1M46 63h1M60 63h3M47 64h1M60 64h3M60 65h4M59 66h5M59 67h6M60 68h4" />
<path stroke="#e6e6ff" d="M39 50h1M37 51h2M32 52h6M50 54h1M48 55h4M46 56h6M46 57h5M46 58h5M46 59h4M47 60h3M47 61h2" />
</svg>