<svg xmlns="http://www.w3.org/2000/svg" viewBox="0 -0.5 96 96" shape-rendering="crispEdges">
<metadata>Made with Pixels to Svg https://codepen.io/shshaw/pen/XbxvNj</metadata>
<path stroke="#6a5a4a" d="M55 33h1M54 34h1M72 34h1M52 35h2M71 35h1M41 36h2M44 36h2M51 36h1M56 36h1M70 36h1M40 37h1M43 37h1M69 37h1M76 37h1M39 38h1M47 38h2M75 38h1M39 39h1M46 39h1M74 39h1M38 40h1M67 40h1M49 41h2M78 41h1M77 42h1M76 43h2M51 44h4M78 44h1M76 45h2M78 46h1M74 49h3M58 50h1M72 50h1M77 50h1M78 51h1M74 52h1M52 53h1M75 53h1M76 54h1M52 57h1M48 61h2M31 62h1M49 62h2M30 63h1M30 64h1M30 65h1M39 65h1M30 66h1M38 66h1M30 67h1M37 67h1M31 68h1M37 68h1M42 69h1" />
<path stroke="#000000" d="M56 33h1M56 34h1M49 35h1M56 35h1M59 35h3M50 36h1M57 36h2M61 36h1M31 37h1M35 37h1M42 37h1M45 37h1M50 37h1M60 37h1M31 38h1M35 38h1M42 38h1M45 38h1M50 38h1M55 38h1M59 38h1M32 39h1M35 39h1M45 39h1M48 39h1M54 39h1M60 39h2M32 40h1M35 40h1M45 40h1M48 40h1M54 40h1M62 40h2M39 41h1M48 41h1M51 41h1M59 41h1M64 41h1M35 42h2M39 42h1M43 42h1M51 42h1M59 42h1M63 42h1M43 43h1M50 43h1M58 43h1M62 43h1M43 44h1M48 44h1M50 44h1M57 44h1M61 44h1M43 45h1M48 45h1M55 45h1M62 45h2M29 46h1M54 46h1M64 46h1M28 47h1M53 47h1M63 47h1M79 47h1M28 48h1M50 48h1M52 48h1M60 48h1M64 48h2M77 48h2M27 49h1M49 49h1M53 49h1M58 49h2M66 49h1M27 50h1M54 50h1M57 50h1M64 50h2M44 51h3M50 51h1M55 51h1M63 51h1M46 52h1M48 52h2M54 52h1M58 52h1M64 52h1M75 52h4M36 53h1M47 53h1M53 53h1M59 53h1M65 53h1M69 53h3M35 54h2M48 54h1M53 54h1M60 54h1M64 54h1M73 54h3M46 55h2M54 55h1M58 55h2M63 55h1M45 56h1M55 56h1M57 56h1M64 56h1M53 57h2M58 57h3M65 57h1M27 58h1M29 58h1M47 58h1M50 58h3M59 58h1M61 58h5M28 59h1M30 59h1M34 59h1M45 59h2M51 59h1M56 59h1M60 59h1M63 59h1M29 60h1M35 60h1M43 60h2M52 60h1M57 60h3M63 60h1M30 61h3M43 61h1M53 61h2M57 61h1M62 61h1M33 62h4M40 62h1M44 62h2M51 62h3M55 62h3M62 62h1M37 63h2M41 63h2M44 63h1M46 63h2M50 63h1M53 63h1M61 63h1M36 64h1M39 64h1M41 64h1M43 64h2M48 64h1M50 64h1M54 64h1M59 64h2M36 65h1M40 65h1M47 65h1M49 65h2M55 65h4M35 66h1M47 66h1M35 67h1M46 67h1M32 68h3M45 68h1M37 69h2M43 69h2M39 70h4" />
<path stroke="#bda483" d="M70 33h3M68 34h2M66 35h2M65 36h1M72 36h5M51 37h1M56 37h1M70 37h2M40 38h1M42 39h1M39 40h1M75 40h3M44 41h1M63 41h1M47 42h1M61 42h2M59 43h3M75 43h1M58 44h3M73 44h1M58 45h1M61 45h1M74 45h2M59 46h1M63 46h1M73 46h5M52 47h1M61 47h2M71 47h8M51 48h1M61 48h3M69 48h8M50 49h3M60 49h6M71 49h3M50 50h1M59 50h5M73 50h4M51 51h1M58 51h5M73 51h5M47 52h1M50 52h4M59 52h5M71 52h3M48 53h4M60 53h5M73 53h2M49 54h4M61 54h3M48 55h6M60 55h3M46 56h9M58 56h6M47 57h5M61 57h4M48 58h2M47 59h4M45 60h7M44 61h4M50 61h3M32 62h1M46 62h3M31 63h6M45 63h1M48 63h2M33 64h3M42 64h1M45 64h3M49 64h1M35 65h1M45 65h2M31 66h1M44 66h3M32 67h1M34 67h1M43 67h3M39 68h1M41 68h4M40 69h1" />
<path stroke="#ffeec5" d="M55 34h1M70 34h2M54 35h2M68 35h3M52 36h4M59 36h2M66 36h4M41 37h1M44 37h1M52 37h1M57 37h3M68 37h1M72 37h4M41 38h1M43 38h2M56 38h3M67 38h8M40 39h2M43 39h2M47 39h1M55 39h5M66 39h8M40 40h5M46 40h2M55 40h7M71 40h4M40 41h4M45 41h3M60 41h3M70 41h8M40 42h1M44 42h3M48 42h3M60 42h1M69 42h8M44 43h3M49 43h1M68 43h7M44 44h2M49 44h1M74 44h4M49 45h6M59 45h2M51 46h3M60 46h3M51 50h3M52 51h3M31 64h2M31 65h4M41 65h4M32 66h2M39 66h5M38 67h5M40 68h1" />
<path stroke="#a44100" d="M48 35h1M30 36h1M47 36h1M49 36h1M29 37h1M34 37h1M46 37h1M64 37h2M29 38h1M33 38h1M63 38h1M29 39h1M33 39h1M62 39h1M27 40h3M27 41h1M29 41h1M35 41h1M37 41h2M69 41h1M27 42h1M34 42h1M41 42h2M68 42h1M27 43h1M32 43h2M39 43h2M47 43h2M67 43h1M28 44h1M31 44h1M46 44h1M68 44h5M28 45h1M30 45h1M44 45h2M73 45h1M28 46h1M43 46h1M49 46h2M71 46h2M42 47h1M51 47h1M69 47h2M68 48h1M69 49h2M49 50h1M71 50h1M26 51h1M43 51h1M47 51h1M64 51h1M72 51h1M25 52h1M36 52h1M65 52h3M70 52h1M35 53h1M37 53h1M68 53h1M72 53h1M37 54h1M72 54h1M36 55h1M44 56h1M26 57h1M45 57h2M60 58h1M44 59h1M61 59h2M42 60h1M60 60h3M39 61h1M58 61h4M41 62h1M54 62h1M58 62h4M55 63h6M56 64h1M58 64h1" />
<path stroke="#ee8339" d="M48 36h1M30 37h1M47 37h3M30 38h1M34 38h1M46 38h1M49 38h1M53 38h2M65 38h1M30 39h2M34 39h1M49 39h1M51 39h3M63 39h2M30 40h2M33 40h2M49 40h4M64 40h2M30 41h5M52 41h3M65 41h4M30 42h4M37 42h2M52 42h7M64 42h4M30 43h2M34 43h5M41 43h2M51 43h7M65 43h2M32 44h6M40 44h3M47 44h1M55 44h2M64 44h2M31 45h12M46 45h2M56 45h1M30 46h13M44 46h3M56 46h2M34 47h7M43 47h8M55 47h4M35 48h5M41 48h9M56 48h2M37 49h11M38 50h11M28 51h1M39 51h4M48 51h2M26 52h5M40 52h1M28 53h4M29 54h4M29 55h2" />
<path stroke="#cd6231" d="M53 37h3M66 37h2M51 38h2M64 38h1M66 38h1M50 39h1M65 39h1M53 40h1M66 40h1M68 40h3M28 41h1M55 41h4M28 42h2M28 43h2M63 43h2M29 44h2M38 44h2M62 44h2M66 44h2M29 45h1M64 45h9M47 46h2M55 46h1M65 46h6M33 47h1M41 47h1M54 47h1M64 47h5M40 48h1M53 48h3M58 48h2M66 48h2M48 49h1M54 49h4M67 49h2M55 50h2M66 50h5M27 51h1M56 51h1M65 51h7M41 52h5M55 52h3M68 52h2M27 53h1M34 53h1M40 53h7M54 53h5M34 54h1M40 54h8M54 54h6M31 55h2M35 55h1M40 55h6M55 55h3M28 56h6M39 56h5M56 56h1M27 57h8M38 57h7M55 57h3M28 58h1M30 58h3M34 58h4M39 58h8M53 58h6M29 59h1M31 59h1M33 59h1M35 59h2M38 59h6M52 59h4M57 59h3M30 60h1M32 60h3M37 60h5M53 60h4M33 61h6M40 61h3M55 61h2M37 62h3M42 62h2M39 63h2M43 63h1M40 64h1" />
<path stroke="#5a524a" d="M57 45h1M58 46h1M32 47h1M59 47h2M34 48h1M36 49h1M37 50h1M29 51h1M38 51h1M57 51h1M31 52h1M39 52h1M32 53h1M39 53h1M26 54h2M39 54h1M33 55h1M39 55h1M34 56h1M38 56h1M35 57h3" />
<path stroke="#414141" d="M29 47h3M29 48h5M28 49h8M28 50h9M30 51h8M32 52h3M37 52h2M25 53h2M33 53h1M25 54h1M28 54h1M25 55h4M26 56h2M33 58h1M38 58h1M32 59h1M37 59h1M31 60h1M36 60h1" />
<path stroke="#ffffff" d="M35 52h1M34 66h1M31 67h1M33 67h1M38 68h1M39 69h1M41 69h1" />
<path stroke="#202029" d="M38 53h1M33 54h1M38 54h1M34 55h1M37 55h2M35 56h3" />
<path stroke="#c5c5bd" d="M54 63h1M55 64h1M57 64h1" />
</svg>