<svg xmlns="http://www.w3.org/2000/svg" viewBox="0 -0.5 96 96" shape-rendering="crispEdges">
<metadata>Made with Pixels to Svg https://codepen.io/shshaw/pen/XbxvNj</metadata>
<path stroke="#a4528b" d="M45 28h2M44 29h1M44 30h1M43 31h1M42 32h1M42 33h1M41 34h1M40 35h1M40 36h1M39 37h1M38 38h1M47 40h3M48 41h1M33 42h1M32 43h1M45 44h2M45 45h3M45 46h3M49 46h1M45 47h3M49 47h1M45 48h3M44 49h4M44 50h4M56 50h1M44 51h5M53 51h1M43 52h6M50 52h1M54 52h3M58 52h2M43 53h5M50 53h2M53 53h8M44 54h3M51 54h4M59 54h2M38 55h1M44 55h3M50 55h4M58 55h2M43 56h4M49 56h6M57 56h2M61 56h1M37 57h1M43 57h6M52 57h5M62 57h2M44 58h5M53 58h3M62 58h1M47 59h2M52 59h2M48 60h5M37 61h1M48 61h2M38 62h1" />
<path stroke="#eea4ee" d="M45 29h2M45 30h2M44 31h3M43 32h4M43 33h3M42 34h4M41 35h4M41 36h3M40 37h4M39 38h5M39 39h4M39 40h4M39 41h3M34 42h1M38 42h3M33 43h7M33 44h4M34 45h1M57 49h1M57 50h1M52 51h1M56 51h2M51 52h2M48 53h1M48 54h2M55 54h3M61 54h1M61 55h2M50 57h1M50 58h2" />
<path stroke="#7b396a" d="M47 29h1M47 30h1M47 31h1M47 32h1M47 33h1M46 34h1M47 39h4M46 40h1M50 40h1M47 41h1M32 45h1M37 45h2M49 45h1M34 46h1M48 46h1M50 46h1M48 47h1M48 48h1M57 48h2M56 49h1M43 50h1M52 50h2M55 50h1M43 51h1M49 51h3M54 51h1M42 52h1M49 52h1M60 52h1M61 53h1M50 54h1M58 54h1M37 55h1M43 55h1M49 55h1M57 55h1M37 56h1M42 56h1M47 56h2M55 56h2M60 56h1M62 56h1M36 57h1M42 57h1M51 57h1M57 57h2M61 57h1M64 57h1M37 58h1M52 58h1M45 59h2M49 59h3M54 59h2M61 59h1M47 60h1M47 61h1M51 61h2M37 62h1M48 62h1M38 63h1" />
<path stroke="#cd6ad5" d="M46 33h1M45 35h1M44 36h2M44 37h2M44 38h2M43 39h3M43 40h3M42 41h5M43 42h4M44 43h3M32 44h1M37 44h2M33 45h1M35 45h1M58 49h1M58 50h1M55 51h1M58 51h1M53 52h1M57 52h1M52 53h1M47 54h1M47 55h2M54 55h3M60 55h1M49 57h1M49 58h1" />
<path stroke="#000000" d="M46 35h1M46 36h1M46 37h1M46 38h1M46 39h1M49 41h1M47 42h2M47 43h1M61 43h1M44 44h1M47 44h1M61 44h1M65 44h1M41 45h2M44 45h1M48 45h1M65 45h1M41 46h2M44 46h1M60 46h1M41 47h2M44 47h1M50 47h1M60 47h1M64 47h1M44 48h1M49 48h1M60 48h1M64 48h1M40 49h1M43 49h1M48 49h1M59 49h1M41 50h2M48 50h1M59 50h1M63 50h1M59 51h1M63 51h1M31 52h1M63 52h1M32 53h2M39 53h1M42 53h1M49 53h1M62 53h1M34 54h5M43 54h1M62 54h1M63 55h1M59 56h1M63 56h1M43 58h1M56 58h1M61 58h1M63 58h2M33 59h1M40 59h1M56 59h1M58 59h1M62 59h1M34 60h1M37 60h1M41 60h1M44 60h1M53 60h1M58 60h1M35 61h2M42 61h2M50 61h1M55 61h1M59 61h3M49 62h1M54 62h1M47 63h3M52 63h1M39 64h1M46 64h1M57 64h3M40 65h2M46 65h1M51 65h2M56 65h1M37 66h3M42 66h6M53 66h4M48 67h3" />
<path stroke="#b48b4a" d="M33 36h2M35 37h1M36 38h1M33 39h2M37 39h1M35 41h1M37 41h1M60 42h1M59 43h1M64 43h1M43 44h1M59 44h1M63 44h1M43 45h1M58 45h1M63 45h1M43 46h1M58 46h1M62 46h1M40 47h1M43 47h1M57 47h1M61 47h1M40 48h1M43 48h1M59 48h1M63 48h1M41 49h2M61 49h1M61 50h1M60 51h3M61 52h1" />
<path stroke="#7b6239" d="M33 37h1M33 38h1M37 38h1M38 39h1M34 40h1M38 40h1M34 41h1M38 41h1M35 42h3M41 42h2M61 42h1M40 43h1M43 43h1M65 43h1M39 44h1M41 44h2M39 45h1M60 45h1M39 46h1M64 46h1M39 47h1M39 48h1M41 48h2M61 48h1M60 49h1M63 49h1M60 50h1M62 52h1" />
<path stroke="#f6de73" d="M34 37h1M34 38h2M35 39h2M35 40h3M36 41h1M41 43h2M60 43h1M40 44h1M60 44h1M64 44h1M40 45h1M59 45h1M64 45h1M40 46h1M59 46h1M63 46h1M58 47h2M62 47h2M62 48h1M62 49h1M62 50h1" />
<path stroke="#736a5a" d="M31 45h1M36 45h1M31 46h1M33 46h1M35 46h1M30 47h1M30 48h1M30 49h1M30 50h1M31 51h1M33 51h1M34 52h1M40 52h1M34 53h1M36 58h1M58 58h2M37 59h2M60 59h1M39 60h2M56 61h1M58 61h1M46 62h1M39 63h1M44 63h2M40 64h4M49 64h1M50 65h1M50 66h1" />
<path stroke="#dedecd" d="M32 46h1M36 46h2M31 47h3M35 47h4M31 48h2M34 48h5M31 49h2M34 49h5M31 50h2M34 50h5M32 51h1M34 51h4M39 56h2M38 57h4M38 58h3M39 59h1M38 60h1M39 61h3M39 62h4M40 63h2" />
<path stroke="#bdac94" d="M38 46h1M34 47h1M33 48h1M33 49h1M39 49h1M33 50h1M39 50h2M38 51h5M32 52h2M35 52h5M41 52h1M35 53h4M40 53h2M39 54h4M39 55h4M38 56h1M41 56h1M59 57h2M57 58h1M60 58h1M57 59h1M45 60h2M54 60h4M38 61h1M44 61h3M53 61h2M57 61h1M43 62h3M47 62h1M50 62h3M42 63h2M46 63h1M50 63h2M44 64h2M50 64h1M42 65h4" />
<path stroke="#627373" d="M34 58h2M41 58h2M44 59h1M61 60h1M53 62h1M57 62h2M37 63h1M54 63h1M59 63h1M37 64h1M51 64h1M55 64h2M36 65h1M36 66h1" />
<path stroke="#ffffff" d="M34 59h2M42 59h2M42 60h1M57 63h2M53 64h2M48 65h1M53 65h3M48 66h2" />
<path stroke="#d5d5e6" d="M36 59h1M41 59h1M59 59h1M35 60h2M43 60h1M59 60h2M55 62h2M53 63h1M55 63h2M38 64h1M47 64h2M52 64h1M37 65h3M47 65h1M49 65h1" />
</svg>