<svg xmlns="http://www.w3.org/2000/svg" viewBox="0 -0.5 96 96" shape-rendering="crispEdges">
<metadata>Made with Pixels to Svg https://codepen.io/shshaw/pen/XbxvNj</metadata>
<path stroke="#cdb4cd" d="M34 26h4M45 26h4M33 27h1M35 27h1M47 27h1M50 27h1M48 28h1M51 28h1M35 29h1M48 29h1M37 30h9M33 32h1M49 32h1M36 33h1M45 33h1" />
<path stroke="#947b94" d="M38 26h2M49 26h1M32 27h1M36 27h2M51 27h1M31 28h1M35 28h2M52 28h1M30 29h1M36 29h1M52 29h1M30 30h1M52 30h1M31 31h1M51 31h1M32 32h1M50 32h1M34 33h2M46 33h3M37 34h8" />
<path stroke="#ffffff" d="M34 27h1M32 28h3M31 29h4M49 29h1M32 30h4M47 30h3M33 31h16M35 32h11" />
<path stroke="#f6def6" d="M48 27h2M49 28h2M50 29h2M31 30h1M36 30h1M46 30h1M50 30h2M32 31h1M49 31h2M34 32h1M46 32h3M37 33h8" />
<path stroke="#623931" d="M29 33h2M28 34h1M30 34h1M27 35h1M31 35h1M64 35h3M31 36h1M62 36h2M32 37h1M60 37h2M33 38h1M44 38h1M54 38h1M58 38h2M29 39h1M32 39h1M36 39h3M45 39h1M53 39h1M57 39h1M28 40h1M31 40h1M34 40h2M45 40h1M51 40h2M31 41h1M40 41h1M50 41h1M31 42h1M48 42h2M66 42h4M30 43h1M45 43h3M50 43h1M62 43h4M30 44h1M44 44h1M48 44h1M51 44h1M59 44h3M30 45h1M43 45h1M57 45h1M28 46h1M43 46h1M29 47h1M28 48h1M30 48h1M43 48h1M29 49h1M44 49h1M55 49h1M30 50h1M55 50h1M58 50h3M47 51h1M56 51h1M61 51h3M30 52h1M45 52h1M49 52h1M56 52h1M64 52h2M28 53h2M40 53h1M50 53h1M56 53h1M66 53h1M34 54h1M56 54h1M35 55h1M39 55h1M46 55h1M39 56h1M45 56h1M36 57h1M44 57h2M54 57h1M37 58h2M45 58h1M50 58h1M54 58h1M53 59h1M49 60h1M51 60h2M50 61h1M51 62h1M48 63h1M37 64h1M48 64h1M45 65h1M40 66h1M42 67h1M47 67h1" />
<path stroke="#f6e6a4" d="M29 34h1M29 35h2M30 36h1M31 37h1M64 37h2M31 38h1M63 38h2M61 39h3M33 40h1M36 40h1M54 40h2M59 40h4M33 41h3M37 41h2M41 41h1M43 41h1M52 41h9M33 42h1M37 42h3M42 42h1M53 42h7M32 43h1M38 43h3M49 43h1M53 43h6M31 44h1M38 44h3M49 44h2M54 44h3M66 44h3M31 45h1M38 45h3M50 45h2M59 45h1M63 45h4M31 46h2M37 46h4M51 46h1M60 46h5M31 47h3M35 47h5M60 47h5M31 48h3M35 48h5M46 48h1M62 48h2M30 49h1M32 49h2M35 49h4M45 49h1M33 50h1M35 50h2M32 53h1M48 53h1M49 54h1M49 55h1M35 56h1M48 56h2M32 57h1M34 57h1M48 57h1M33 58h1M46 58h3M46 59h2" />
<path stroke="#eebd83" d="M28 35h1M28 36h2M29 37h2M30 38h1M65 38h1M30 39h2M44 39h1M58 39h1M29 40h2M39 40h2M44 40h1M29 41h2M36 41h1M39 41h1M44 41h2M51 41h1M61 41h1M30 42h1M32 42h1M35 42h1M40 42h2M43 42h4M50 42h3M31 43h1M35 43h1M41 43h4M51 43h2M34 44h1M41 44h3M47 44h1M52 44h2M34 45h1M41 45h2M48 45h1M52 45h4M58 45h1M34 46h1M41 46h2M48 46h1M50 46h1M52 46h8M34 47h1M40 47h3M50 47h10M34 48h1M40 48h3M47 48h2M50 48h9M34 49h1M39 49h5M46 49h2M49 49h6M56 49h2M32 50h1M37 50h8M50 50h5M56 50h2M32 51h2M35 51h12M52 51h4M57 51h4M31 52h1M33 52h1M35 52h10M53 52h3M57 52h7M30 53h1M34 53h1M36 53h4M49 53h1M54 53h2M57 53h9M29 54h2M36 54h4M50 54h1M54 54h2M57 54h4M63 54h3M29 55h2M37 55h2M50 55h1M55 55h1M57 55h4M65 55h1M50 56h1M55 56h1M59 56h2M35 57h1M49 57h2M55 57h1M34 58h2M49 58h1M33 59h3M48 59h2M34 60h2M46 60h3M47 61h1" />
<path stroke="#101010" d="M27 36h1M66 36h1M28 37h1M66 37h1M29 38h1M55 38h1M66 38h1M33 39h1M39 39h3M56 39h1M64 39h2M56 40h1M63 40h1M28 41h1M46 41h1M62 41h1M29 42h1M47 42h1M60 42h2M48 43h1M59 43h1M69 43h1M57 44h2M69 44h1M49 45h1M56 45h1M67 45h2M30 46h1M44 46h1M49 46h1M65 46h2M28 47h1M30 47h1M43 47h7M65 47h1M44 48h1M49 48h1M59 48h3M64 48h2M48 49h1M58 49h1M62 49h2M31 50h1M45 50h3M49 50h1M31 51h1M50 51h2M32 52h1M46 52h1M48 52h1M52 52h1M31 53h1M33 53h1M41 53h4M47 53h1M53 53h1M28 54h1M31 54h1M40 54h1M46 54h1M51 54h1M53 54h1M61 54h2M66 54h1M28 55h1M31 55h1M51 55h1M54 55h1M56 55h1M61 55h1M63 55h2M66 55h1M29 56h3M36 56h3M51 56h1M54 56h1M56 56h3M61 56h1M65 56h2M31 57h1M51 57h1M56 57h1M59 57h2M32 58h1M36 58h1M55 58h1M32 59h1M36 59h1M45 59h1M50 59h1M55 59h1M33 60h1M36 60h1M45 60h1M55 60h1M34 61h3M46 61h1M49 61h1M54 61h1M37 62h1M47 62h2M54 62h1M37 63h1M51 63h1M53 63h1M51 64h1M53 64h1M40 65h1M49 65h2M52 65h1M41 66h1M46 66h1M51 66h1M48 67h3M43 68h1M49 68h1M44 69h5" />
<path stroke="#ffffe6" d="M64 36h2M62 37h2M60 38h3M43 39h1M54 39h2M59 39h2M32 40h1M42 40h2M53 40h1M57 40h2M32 41h1M42 41h1M34 42h1M36 42h1M33 43h2M36 43h2M66 43h3M32 44h2M35 44h3M45 44h2M62 44h4M29 45h1M32 45h2M35 45h3M44 45h4M60 45h3M33 46h1M35 46h2M46 46h2M29 48h1M32 54h2M47 54h2M32 55h3M47 55h2M32 56h3M46 56h2M33 57h1M46 57h2" />
<path stroke="#b4836a" d="M32 38h1M48 50h1M48 51h2M47 52h1M50 52h2M45 53h2M51 53h2M41 54h5M52 54h1M40 55h6M52 55h2M40 56h5M52 56h2M52 57h2M51 58h3M51 59h2M54 59h1M50 60h1M53 60h2M51 61h3M45 62h1M52 62h2M52 63h1M47 64h1M52 64h1M41 65h1M46 65h3M51 65h1M47 66h4M45 67h2M44 68h5" />
<path stroke="#8b624a" d="M43 38h1M42 39h1M37 40h2M41 40h1M29 44h1M28 45h1M29 46h1M45 46h1M45 48h1M31 49h1M34 50h1M34 51h1M34 52h1M35 53h1M35 54h1M36 55h1M43 57h1M39 58h4M37 61h1M48 61h1M38 62h7M38 63h1M39 64h1M43 64h2M38 65h1M42 65h1M39 66h1M42 66h1" />
<path stroke="#f6c58b" d="M37 57h3M37 59h7M38 60h7M38 61h8M46 62h1M39 63h8M49 63h1M41 64h2M49 64h1M43 65h2M43 66h2" />
<path stroke="#dea48b" d="M40 57h3M43 58h2M44 59h1M37 60h1M49 62h2M47 63h1M50 63h1M38 64h1M40 64h1M45 64h2M50 64h1M39 65h1M45 66h1M43 67h2" />
</svg>