<svg xmlns="http://www.w3.org/2000/svg" viewBox="0 -0.5 96 96" shape-rendering="crispEdges">
<metadata>Made with Pixels to Svg https://codepen.io/shshaw/pen/XbxvNj</metadata>
<path stroke="#94105a" d="M35 28h5M32 29h3M40 29h2M30 30h2M42 30h1M29 31h1M37 31h2M42 31h1M39 32h1M43 32h1M27 33h1M43 33h1M27 34h1M43 34h1M52 34h2M44 35h1M44 36h1M44 37h1M60 37h1M47 38h1M61 38h1M36 40h1M40 40h2M38 41h1M39 42h1M39 43h1M58 50h1M40 51h1M45 51h1M59 51h1M59 52h1M36 53h2M59 53h1M35 54h1M38 54h1M41 54h1M46 54h1M51 54h2M59 54h1M42 55h1M50 55h1M59 55h1M59 56h1M37 57h1M50 57h1M51 58h1M54 58h1M38 60h1M39 61h1M53 61h1M56 61h1M42 62h1M51 62h1" />
<path stroke="#f6ace6" d="M35 29h5M37 30h5M39 31h3M41 32h2M42 33h1M58 37h2M59 38h2M45 39h3M60 39h1M44 40h4M44 41h4M43 42h5M42 43h7M40 44h10M36 45h16M35 46h4M40 46h13M35 47h4M40 47h9M50 47h4M35 48h2M42 48h7M50 48h6M34 49h5M40 49h7M52 49h6M34 50h5M40 50h9M50 50h8M34 51h6M43 51h1M48 51h1M50 51h9M34 52h6M48 52h11M34 53h1M38 53h2M48 53h11M39 54h2M47 54h4M54 54h5M35 55h3M39 55h2M43 55h1M47 55h3M51 55h1M53 55h1M55 55h3M36 56h1M39 56h11M51 56h1M54 56h1M40 57h10M52 57h3M42 58h7" />
<path stroke="#e673b4" d="M32 30h5M30 31h2M29 32h1M40 32h1M41 33h1M42 34h1M52 35h4M54 36h4M56 37h2M58 38h1M44 39h1M59 39h1M42 40h2M48 40h1M60 40h2M39 41h5M48 41h1M61 41h1M38 42h1M41 42h2M48 42h2M61 42h2M37 43h1M40 43h2M49 43h1M62 43h1M36 44h4M50 44h1M62 44h1M39 48h1M49 49h1M42 51h1M44 51h1M47 51h1M35 53h1M40 53h1M47 53h1M34 54h1M37 54h1M53 54h1M41 55h1M44 55h1M46 55h1M58 55h1M35 56h1M37 56h1M55 56h4M36 57h1M38 57h2M56 57h2M36 58h6M49 58h2M55 58h3M37 59h20M39 60h16M42 61h11M55 61h1M54 62h2" />
<path stroke="#62d562" d="M32 31h5M30 32h1M37 32h2M28 33h5M38 33h1M28 34h6M27 35h7M37 35h1M27 36h7M36 36h1M51 36h3M26 37h7M35 37h1M50 37h4M55 37h1M26 38h6M33 38h1M50 38h3M54 38h1M56 38h1M27 39h4M50 39h4M55 39h1M51 40h2M54 40h1M51 41h2M52 42h2M53 43h1M54 44h1M56 45h2M61 45h2M58 46h3M39 62h3M52 62h2M40 63h4M49 63h6M50 64h3" />
<path stroke="#186220" d="M28 32h1M44 63h1M47 63h1" />
<path stroke="#acf68b" d="M31 32h6M33 33h5M34 34h4M34 35h3M34 36h2M33 37h2M54 37h1M32 38h1M53 38h1M55 38h1M57 38h1M54 39h1M56 39h3M53 40h1M55 40h5M53 41h8M54 42h7M54 43h8M55 44h7M58 45h3" />
<path stroke="#529c5a" d="M39 33h1M38 34h2M38 35h1M37 36h2M50 36h1M36 37h2M34 38h3M49 38h1M26 39h1M31 39h4M49 39h1M27 40h5M50 40h1M50 41h1M51 42h1M51 43h2M52 44h2M53 45h3M54 46h4M61 46h1M56 47h6M58 48h3M38 63h2M48 63h1M40 64h3M49 64h1" />
<path stroke="#000000" d="M40 33h1M40 34h1M26 35h1M39 35h1M50 35h2M26 36h1M39 36h1M49 36h1M25 37h1M38 37h1M49 37h1M25 38h1M37 38h1M44 38h3M48 38h1M25 39h1M35 39h2M42 39h2M48 39h1M61 39h1M26 40h1M32 40h3M49 40h1M62 40h1M27 41h5M49 41h1M62 41h1M37 42h1M40 42h1M50 42h1M63 42h1M36 43h1M38 43h1M50 43h1M63 43h1M35 44h1M51 44h1M63 44h1M35 45h1M52 45h1M63 45h1M34 46h1M53 46h1M62 46h1M34 47h1M39 47h1M54 47h2M62 47h1M34 48h1M38 48h1M40 48h1M49 48h1M56 48h2M61 48h1M33 49h1M39 49h1M48 49h1M50 49h1M58 49h3M33 50h1M49 50h1M33 51h1M41 51h1M46 51h1M33 52h1M40 52h1M42 52h4M47 52h1M33 53h1M41 53h1M46 53h1M33 54h1M43 54h2M34 55h1M38 55h1M45 55h1M34 56h1M38 56h1M50 56h1M35 57h1M51 57h1M58 57h1M35 58h1M52 58h2M58 58h1M36 59h1M57 59h1M37 60h1M55 60h2M36 61h1M40 61h2M54 61h1M36 62h1M43 62h8M56 62h1M37 63h1M55 63h1M38 64h2M43 64h1M48 64h1M53 64h2M40 65h3M49 65h4" />
<path stroke="#c5399c" d="M41 34h1M54 34h2M40 35h4M56 35h2M40 36h4M58 36h2M39 37h5M38 38h6M37 39h5M37 40h3M37 41h1M39 46h1M49 47h1M37 48h1M41 48h1M47 49h1M51 49h1M39 50h1M49 51h1M54 55h1M55 57h1M37 61h2M37 62h2" />
<path stroke="#cd4173" d="M41 52h1M46 52h1M42 53h4M42 54h1M45 54h1" />
<path stroke="#ffcdf6" d="M36 54h1M52 55h1M52 56h2" />
</svg>