<svg xmlns="http://www.w3.org/2000/svg" viewBox="0 -0.5 96 96" shape-rendering="crispEdges">
<metadata>Made with Pixels to Svg https://codepen.io/shshaw/pen/XbxvNj</metadata>
<path stroke="#b42010" d="M30 21h1M25 23h1M29 23h1M27 24h1M28 25h1M57 26h1M23 29h1M26 31h1M58 32h2M29 33h1M56 33h2M29 34h1M56 34h1M29 35h1M56 35h1M29 36h1M55 36h1M30 37h1M55 37h1M30 38h1M54 38h1M66 38h1M30 39h1M54 39h1M69 39h1M31 40h1M53 40h1M65 40h1M69 40h2M31 41h1M69 41h3M52 42h1M69 42h3M51 43h1M68 43h3M65 44h6M67 45h3M35 48h1M46 48h3M34 49h4M44 49h3M37 50h1M44 50h2M50 50h1M28 51h1M32 51h1M27 52h1M30 52h1M37 52h1M44 52h1M31 53h1M43 53h1M40 55h1M30 57h1M49 57h1M29 58h1M38 58h1M47 59h1" />
<path stroke="#942020" d="M23 22h2M29 22h1M31 22h1M56 22h1M26 23h1M55 23h1M62 23h1M28 24h1M55 24h1M60 24h2M54 25h1M59 25h1M54 26h1M53 27h1M51 28h3M24 29h1M34 29h1M48 29h3M36 30h1M44 30h4M62 30h2M39 31h1M42 31h2M30 34h1M53 34h1M55 34h1M30 35h1M51 35h1M55 35h1M30 36h1M49 36h1M67 36h1M47 37h1M54 37h1M66 37h1M45 38h1M64 38h1M31 39h1M35 39h1M43 39h1M53 39h1M63 39h1M65 39h1M37 40h2M63 40h1M52 41h2M63 41h1M51 42h1M63 42h1M64 43h1M66 45h1M29 51h1M31 51h1M37 51h1M44 51h1M53 51h2M31 52h1M50 52h1M52 52h1M55 52h1M27 53h1M38 53h1M42 53h1M52 53h1M39 54h1M41 54h1M51 55h1M32 56h1M40 56h1M48 56h1M31 57h1M50 57h2M32 58h1M41 58h1M29 59h1" />
<path stroke="#ff735a" d="M30 22h1M24 23h1M30 23h1M24 24h3M29 24h2M62 24h1M25 25h3M29 25h2M60 25h2M25 26h6M58 26h3M26 27h6M58 27h2M26 28h7M25 29h9M23 30h13M28 31h11M44 31h1M30 32h14M31 33h13M32 34h11M34 35h8M36 36h4M34 50h2M47 50h3M33 51h4M46 51h5M28 52h1M32 52h5M45 52h5M53 52h1M32 53h6M44 53h7M32 54h7M42 54h8M33 55h7M41 55h9M33 56h6M41 56h7M34 57h4M41 57h7M30 58h1M42 58h4M50 58h1" />
<path stroke="#101010" d="M23 23h1M31 23h1M57 23h1M63 23h1M23 24h1M31 24h1M57 24h1M63 24h1M24 25h1M31 25h1M57 25h2M63 25h1M24 26h1M31 26h1M62 26h1M25 27h1M32 27h1M62 27h1M25 28h1M33 28h1M61 28h1M35 29h1M61 29h1M22 30h1M37 30h2M23 31h3M40 31h2M64 31h1M26 32h2M60 32h4M28 33h1M58 33h2M28 34h1M54 34h1M57 34h1M28 35h1M31 35h1M52 35h3M57 35h1M28 36h1M31 36h2M50 36h5M56 36h1M29 37h1M31 37h3M48 37h6M56 37h1M68 37h1M70 37h1M29 38h1M31 38h4M46 38h1M49 38h5M55 38h1M69 38h1M71 38h1M29 39h1M32 39h1M36 39h1M44 39h1M49 39h4M55 39h1M71 39h1M30 40h1M32 40h1M39 40h4M50 40h3M54 40h1M72 40h1M30 41h1M44 41h2M50 41h2M54 41h1M72 41h1M34 42h1M36 42h1M44 42h2M53 42h1M72 42h1M34 43h3M42 43h1M44 43h2M52 43h1M71 43h1M29 44h1M35 44h2M42 44h3M64 44h1M71 44h1M30 45h4M52 45h1M65 45h1M70 45h1M34 46h1M49 46h3M67 46h3M35 47h1M39 47h3M46 47h3M67 47h1M69 47h1M34 48h1M36 48h2M44 48h2M49 48h1M69 48h1M33 49h1M38 49h1M42 49h2M50 49h1M69 49h1M32 50h1M51 50h1M69 50h1M51 51h1M68 51h1M51 52h1M68 52h1M30 53h1M51 53h1M55 53h1M67 53h1M28 54h2M31 54h1M51 54h1M53 54h2M66 54h1M31 55h1M65 55h1M50 56h1M57 56h2M63 56h2M32 57h1M40 57h1M60 57h3M33 58h1M39 58h1M49 58h1M52 58h1M56 58h4M32 59h1M34 59h5M42 59h1M48 59h2M52 59h1M56 59h1M30 60h2M35 60h1M44 60h4M50 60h2M56 60h1M35 61h1M56 61h1M35 62h1M56 62h1M36 63h1M39 63h1M51 63h1M56 63h1M36 64h1M40 64h1M49 64h2M57 64h1M36 65h1M47 65h1M49 65h1M57 65h1M37 66h1M47 66h1M49 66h1M52 66h1M57 66h1M37 67h1M46 67h1M49 67h1M57 67h1M37 68h1M46 68h1M49 68h1M53 68h1M57 68h1M38 69h1M45 69h1M49 69h1M57 69h1M38 70h1M44 70h1M48 70h1M54 70h1M57 70h1M38 71h1M44 71h1M48 71h1M54 71h1M57 71h1M43 72h1M46 72h2M54 72h1M56 72h1M43 73h1M55 73h1M42 74h1M40 75h2" />
<path stroke="#cd4129" d="M56 23h1M56 24h1M55 25h2M62 25h1M55 26h2M61 26h1M54 27h4M60 27h2M54 28h7M51 29h10M48 30h14M27 31h1M45 31h19M28 32h2M44 32h14M30 33h1M44 33h12M31 34h1M43 34h10M32 35h2M42 35h9M33 36h3M40 36h9M34 37h13M67 37h1M35 38h10M67 38h2M70 38h1M37 39h6M64 39h1M66 39h3M70 39h1M64 40h1M66 40h3M71 40h1M64 41h5M64 42h5M65 43h3M47 49h3M33 50h1M36 50h1M46 50h1M45 51h1M29 52h1M54 52h1M28 53h2M53 53h2M50 54h1M32 55h1M50 55h1M39 56h1M49 56h1M33 57h1M38 57h2M48 57h1M31 58h1M34 58h4M46 58h3M51 58h1M30 59h2M43 59h4M50 59h2" />
<path stroke="#f6cd6a" d="M47 38h1M34 39h1M45 39h3M34 40h1M43 40h6M33 41h1M36 41h1M39 41h4M46 41h1M48 41h1M49 42h1M34 45h1M35 46h1M46 46h2M36 47h1M42 47h4M38 48h6M38 51h1M38 52h2M67 52h1M39 53h3M66 53h1M40 54h1M65 54h1M63 55h2M62 56h1M37 60h1M44 61h1M46 62h1M47 63h1M46 64h1M46 65h1M46 66h1M41 68h1M45 68h1M40 72h1" />
<path stroke="#6a4118" d="M48 38h1M33 39h1M48 39h1M33 40h1M49 40h1M32 41h1M49 41h1M31 42h1M46 42h1M50 42h1M30 43h1M50 43h1M51 44h1M39 45h1M42 46h1M48 46h1M38 47h1M67 48h1M39 49h1M67 49h1M38 50h1M43 50h1M67 50h1M66 51h1M66 52h1M65 53h1M63 54h2M55 55h1M60 55h3M56 56h1M59 56h1M56 57h1M43 60h1M38 62h1M52 62h1M41 63h1M41 64h1M48 64h1M51 64h1M41 65h1M48 65h1M52 65h1M41 66h1M41 67h1M53 67h1M40 68h1M40 69h1M54 69h1M40 70h1M46 70h1M40 71h1M46 71h1M39 72h1M39 73h1M39 74h1" />
<path stroke="#ffff9c" d="M35 40h2M37 41h1M32 42h2M37 42h1M31 43h2M37 43h2M30 44h1M37 44h2M37 45h1" />
<path stroke="#52525a" d="M34 41h2M43 41h1M42 42h1" />
<path stroke="#f6e662" d="M38 41h1M47 41h1M38 42h4M47 42h2M33 43h1M39 43h3M47 43h3M31 44h4M39 44h3M46 44h5M35 45h2M40 45h12M36 46h1M38 46h4M43 46h3M37 47h1M40 58h1M39 59h3M38 60h5M38 61h6M39 62h2M42 62h4M40 63h1M42 63h5M42 64h4M42 65h4M42 66h4M42 67h4M42 68h3M41 69h4M41 70h3M41 71h3M41 72h2M40 73h3M40 74h2" />
<path stroke="#f6f6de" d="M35 42h1M43 42h1" />
<path stroke="#9c9c9c" d="M43 43h1" />
<path stroke="#e69c4a" d="M46 43h1M45 44h1M38 45h1M37 46h1M68 47h1M68 48h1M40 49h2M68 49h1M39 50h4M68 50h1M39 51h5M67 51h1M40 52h4M52 54h1M52 55h3M51 56h5M60 56h2M52 57h4M57 57h3M53 58h3M53 59h3M36 60h1M48 60h2M52 60h4M36 61h2M45 61h11M36 62h2M41 62h1M47 62h5M53 62h3M37 63h2M48 63h3M52 63h4M37 64h3M47 64h1M52 64h5M37 65h4M53 65h4M38 66h3M48 66h1M53 66h4M38 67h3M47 67h2M54 67h3M38 68h2M47 68h2M54 68h3M39 69h1M46 69h3M55 69h2M39 70h1M47 70h1M55 70h2M39 71h1M47 71h1M55 71h2M55 72h1" />
</svg>