<svg xmlns="http://www.w3.org/2000/svg" viewBox="0 -0.5 96 96" shape-rendering="crispEdges">
<metadata>Made with Pixels to Svg https://codepen.io/shshaw/pen/XbxvNj</metadata>
<path stroke="#943110" d="M54 26h3M52 27h2M57 27h1M40 28h1M51 28h1M57 28h1M50 29h1M57 29h1M49 30h1M57 30h1M39 31h1M48 31h1M56 31h1M32 32h1M47 32h1M56 32h1M32 33h1M38 33h1M47 33h1M56 33h1M31 34h1M31 35h1M37 35h1M37 38h1M51 50h1M51 51h1M38 55h1M37 56h1M55 58h1M58 61h2M60 62h1M60 63h1M56 64h2M56 65h1" />
<path stroke="#cd3929" d="M38 27h2M54 27h3M36 28h2M52 28h5M35 29h1M51 29h6M34 30h1M39 30h1M50 30h7M33 31h1M49 31h7M38 32h1M48 32h8M48 33h8M37 34h1M47 34h8M36 35h1M46 35h9M31 36h1M34 36h3M46 36h8M31 37h6M45 37h9M31 38h6M45 38h1M50 38h3M31 39h6M45 39h1M50 39h2M32 40h6M50 40h1M32 41h2M33 42h1M33 43h1M49 47h2M50 48h2M51 49h1M47 50h2M50 50h1M36 51h1M48 51h3M43 52h2M37 53h1M43 53h2M53 53h1M52 54h1M38 56h2M38 57h1M56 57h2M58 58h1M55 59h1M58 59h1M55 60h3M56 61h2M56 62h4M56 63h4M55 64h1M54 65h2M54 66h2" />
<path stroke="#ee7341" d="M38 28h2M36 29h4M35 30h4M34 31h5M33 32h5M33 33h5M32 34h5M32 35h4M32 36h2M46 38h1M49 38h1M34 41h1M37 41h1M46 41h1M34 44h1M48 47h1M47 48h2M47 49h1M37 52h1M52 52h2M51 53h2M56 58h2M56 59h2" />
<path stroke="#101010" d="M40 29h1M40 30h1M39 32h1M38 34h1M46 34h1M55 34h1M45 35h1M55 35h1M30 36h1M37 36h1M45 36h1M54 36h1M30 37h1M44 37h1M54 37h1M30 38h1M44 38h1M53 38h1M30 39h1M37 39h1M44 39h1M52 39h1M31 40h1M38 40h1M45 40h1M51 40h1M31 41h1M38 41h1M49 41h2M32 42h1M38 42h1M32 43h1M38 43h1M33 44h1M51 44h1M34 45h2M51 45h1M36 46h1M46 46h1M52 46h1M36 47h1M45 47h2M52 47h1M35 48h1M38 48h1M45 48h1M52 48h1M35 49h1M37 49h2M52 49h1M35 50h1M38 50h1M44 50h1M35 51h1M41 51h1M52 51h2M36 52h1M50 52h2M54 52h1M36 53h1M49 53h1M54 53h1M37 54h2M53 54h1M39 55h2M53 55h1M41 56h2M52 56h1M37 57h1M51 57h1M38 58h2M40 59h2M52 59h1M42 60h1M47 60h1M53 60h1M42 61h1M47 61h1M53 61h1M42 62h1M48 62h1M53 62h1M42 63h1M52 63h1M55 63h1M43 64h1M50 64h5M58 64h2M43 65h1M49 65h1M53 65h1M44 66h1M48 66h1M53 66h1M56 66h1M45 67h1M48 67h1M54 67h2M46 68h2" />
<path stroke="#ffe69c" d="M47 38h2M46 39h4M46 40h4M35 41h2M47 41h2M34 42h4M42 42h5M34 43h4M40 43h8M35 44h14M38 45h7M47 45h2M37 46h8M47 46h2M39 47h6M47 47h1M36 48h1M39 48h6M49 48h1M36 49h1M39 49h2M42 49h5M48 49h3M36 50h1M39 50h3M45 50h2M49 50h1M37 51h2M46 51h1M38 52h3M38 53h4M50 53h1M49 54h3M46 55h2M49 55h2M44 56h6M44 57h6M44 58h4M44 59h3M48 59h2M43 60h4M50 60h1M43 61h4M50 61h1M43 62h5M44 63h3" />
<path stroke="#8b6231" d="M42 41h4M40 42h2M48 42h2M39 43h1M50 43h1M37 45h1M46 48h1M37 50h1M43 50h1M40 51h1M47 54h2M43 56h1M43 58h1M48 58h2M51 58h2M43 59h1M47 59h1M50 59h1M51 60h1M54 60h1M51 61h1M55 61h1M55 62h1M54 63h1M48 65h1" />
<path stroke="#eebd62" d="M47 42h1M48 43h2M49 44h2M49 45h2M49 46h3M51 47h1M47 51h1M46 52h4M46 53h3M39 54h4M45 54h2M41 55h5M48 55h1M51 55h2M40 56h1M50 56h2M39 57h5M50 57h1M40 58h3M50 58h1M42 59h1M51 59h1M48 60h2M52 60h1M48 61h2M52 61h1M54 61h1M49 62h4M54 62h1M43 63h1M47 63h5M53 63h1M44 64h6M44 65h4M45 66h3M46 67h2" />
<path stroke="#cd9c62" d="M36 45h1M45 45h2M37 47h2M41 49h1M42 50h1M39 51h1M45 51h1" />
<path stroke="#ffffff" d="M45 46h1M37 48h1" />
<path stroke="#a42920" d="M42 51h3M41 52h2M45 52h1M42 53h1M45 53h1M43 54h2" />
</svg>