<svg xmlns="http://www.w3.org/2000/svg" viewBox="0 -0.5 96 96" shape-rendering="crispEdges">
<metadata>Made with Pixels to Svg https://codepen.io/shshaw/pen/XbxvNj</metadata>
<path stroke="#830083" d="M51 12h2M50 13h1M53 13h1M49 14h1M49 15h1M48 16h1M47 17h1M47 18h1M46 19h1M52 19h1M45 20h1M45 21h1M44 22h1M43 23h1M43 24h1M49 24h1M42 25h1M50 25h1M42 26h1M41 27h1M41 28h1M36 38h1M35 39h1M35 41h1M19 42h1M35 42h1M18 43h1M18 44h1M19 45h1M20 46h1M48 46h2M21 47h2M46 47h1M23 48h1M25 48h1M44 48h2M61 52h1M58 53h2M48 54h1M57 54h1M47 55h1M53 56h4M51 57h4M56 57h4M51 58h5M58 58h5M36 59h1M51 59h7M61 59h6M41 60h4M47 60h1M50 60h7M66 60h9M45 61h8" />
<path stroke="#d541d5" d="M51 13h2M50 14h2M50 15h1M49 16h2M48 17h2M48 18h2M47 19h2M46 20h2M46 21h2M45 22h2M44 23h2M44 24h2M43 25h2M43 26h1M42 27h2M42 28h1M42 29h1M20 43h3M32 43h4M21 44h6M30 44h8M22 45h5M30 45h5M24 46h2M26 47h1M38 47h1M36 48h3M51 48h3M34 49h5M48 49h7M33 50h5M46 50h9M26 51h2M33 51h5M44 51h10M24 52h5M34 52h3M43 52h5M50 52h4M23 53h7M34 53h2M42 53h3M47 53h1M51 53h2M22 54h9M34 54h1M41 54h1M44 54h1M51 54h1M22 55h10M40 55h1M48 55h1M67 55h4M23 56h9M40 56h1M65 56h9M23 57h7M39 57h1M64 57h12M24 58h3M65 58h13M68 59h8" />
<path stroke="#ac18ac" d="M52 14h2M51 15h2M51 16h2M50 17h3M50 18h3M49 19h3M48 20h4M48 21h4M47 22h5M46 23h4M46 24h3M45 25h5M44 26h7M44 27h7M43 28h8M41 29h1M43 29h7M41 30h7M40 31h7M40 32h8M39 33h11M39 34h11M39 35h11M38 36h12M38 37h12M38 38h12M51 38h2M37 39h14M52 39h3M35 40h1M37 40h20M33 41h2M36 41h22M20 42h3M31 42h4M36 42h23M19 43h1M23 43h4M30 43h2M36 43h23M19 44h2M27 44h1M38 44h16M59 44h1M20 45h2M40 45h11M54 45h5M21 46h3M39 46h9M51 46h11M23 47h2M39 47h7M48 47h15M39 48h5M46 48h5M54 48h9M39 49h4M44 49h4M55 49h9M38 50h4M43 50h3M55 50h9M38 51h3M42 51h2M54 51h10M37 52h3M41 52h2M54 52h7M36 53h3M40 53h2M50 53h1M53 53h5M60 53h7M35 54h4M40 54h1M47 54h1M52 54h4M58 54h11M35 55h3M39 55h1M51 55h4M56 55h11M21 56h2M32 56h1M35 56h3M39 56h1M45 56h1M48 56h1M51 56h2M57 56h8M21 57h2M30 57h7M38 57h1M45 57h1M48 57h1M60 57h4M76 57h1M22 58h2M27 58h10M38 58h2M63 58h2M78 58h1M24 59h12M39 59h3M67 59h1M76 59h3M28 60h6" />
<path stroke="#5a005a" d="M53 15h1M53 16h1M53 17h1M53 18h1M52 20h1M52 21h1M52 22h1M50 23h2M51 28h1M48 30h2M47 31h1M48 32h2M51 37h2M53 38h2M51 39h1M55 39h2M33 40h2M57 40h1M31 41h2M58 41h1M30 42h1M59 42h1M29 43h1M59 43h1M28 44h1M54 44h1M60 44h1M27 45h1M51 45h3M26 46h1M50 46h1M25 47h1M47 47h1M24 48h1M24 49h1M43 49h1M23 50h1M42 50h1M23 51h1M41 51h1M22 52h1M62 52h5M22 53h1M67 53h2M21 54h1M42 54h1M50 54h1M56 54h1M69 54h2M21 55h1M41 55h1M44 55h2M55 55h1M71 55h3M20 56h1M74 56h3M20 57h1M77 57h2M20 58h1M45 58h1M48 58h1M79 58h1M44 59h1M47 59h1M50 59h1M57 60h2M61 61h1M23 62h1M61 62h1M27 63h1M29 63h1M39 63h6M60 63h1M27 64h1M31 64h1M34 64h1M38 64h1M45 64h5M60 64h1M28 65h1M30 65h1M50 65h2M59 65h1M29 66h1M32 66h1M34 66h1M44 66h1M32 67h1M42 67h2M45 67h1M32 68h1M35 68h1M41 68h1M43 68h1M46 68h1M31 69h1M35 69h1M41 69h1M31 70h1M36 70h1M40 70h1M42 70h1M31 71h1M33 71h1M38 71h2M53 71h1M34 72h1M53 72h1M53 73h1M45 74h1M53 74h1M45 75h1M53 75h1M46 76h1M52 76h1M46 77h1M52 77h1M47 78h1M52 78h1M48 79h1M52 79h1M49 80h1M52 80h1M50 81h2" />
<path stroke="#101010" d="M51 26h1M51 27h1M40 29h1M50 29h1M40 30h1M50 30h1M39 31h1M39 32h1M38 33h1M50 33h1M38 34h1M50 34h1M38 35h1M50 35h1M37 36h1M50 36h1M37 37h1M50 37h1M37 38h1M50 38h1M36 39h1M36 40h1M55 44h4M59 45h3M62 46h1M63 47h1M63 48h1M64 49h1M64 50h1M64 51h1M40 52h1M48 52h2M39 53h1M45 53h2M48 53h2M39 54h1M43 54h1M45 54h2M49 54h1M38 55h1M42 55h2M46 55h1M49 55h2M38 56h1M41 56h1M44 56h1M46 56h2M49 56h2M37 57h1M40 57h1M44 57h1M46 57h2M49 57h2M55 57h1M37 58h1M40 58h1M43 58h2M46 58h2M49 58h2M56 58h2M21 59h1M37 59h2M42 59h2M45 59h2M48 59h2M58 59h3M79 59h1M22 60h1M38 60h3M45 60h2M48 60h2M61 60h5M75 60h4M23 61h2M41 61h4M53 61h4M66 61h9M25 62h4M45 62h8M24 63h1M30 63h9M25 64h1M37 64h1M26 65h2M31 65h2M34 65h1M37 65h1M30 66h1M33 66h1M35 66h1M37 66h1M50 66h1M58 66h1M34 67h2M49 67h1M57 67h1M34 68h1M47 68h2M56 68h1M33 69h2M45 69h2M54 69h2M33 70h3M43 70h2M52 70h2M34 71h4M40 71h3M50 71h2M32 72h1M35 72h5M47 72h3M33 73h2M43 73h4M35 74h8" />
<path stroke="#d5bd5a" d="M29 44h1M35 45h5M27 46h1M30 46h3M27 47h1M37 47h1M26 48h1M35 48h1M25 49h1M33 49h1M27 50h1M32 50h1M25 51h1M28 51h1M23 52h1M33 52h1M32 55h1M34 55h1M33 56h2" />
<path stroke="#fff662" d="M28 45h2M28 46h2M33 46h6M28 47h9M27 48h8M26 49h7M24 50h3M28 50h4M24 51h1M29 51h4M29 52h4M30 53h4M31 54h3M33 55h1" />
<path stroke="#ffffff" d="M42 56h1M42 57h1M22 59h1M23 60h3M26 61h6M28 63h1M32 64h1M33 65h1M44 67h1M42 68h1M44 68h1M42 69h1" />
<path stroke="#ac3952" d="M43 56h1M41 57h1M41 58h1M39 64h6M42 65h8M45 66h5M36 67h1M46 67h3M36 69h1M37 70h3" />
<path stroke="#ff1800" d="M43 57h1M42 58h1" />
<path stroke="#e6cdee" d="M21 58h1M26 60h1M35 60h3M32 61h8M24 62h1M30 62h14M26 63h1M26 64h1M29 64h1M33 64h1M35 64h2M29 65h1M36 65h1M45 68h1M43 69h2M32 70h1M41 70h1M32 71h1M41 72h3M35 73h7M47 76h2M48 77h4M48 78h4M49 79h3M50 80h1" />
<path stroke="#a4949c" d="M23 59h1M27 60h1M34 60h1M59 60h2M25 61h1M40 61h1M57 61h4M29 62h1M44 62h1M53 62h8M25 63h1M45 63h15M28 64h1M30 64h1M50 64h10M35 65h1M52 65h7M36 66h1M51 66h7M33 67h1M50 67h7M33 68h1M49 68h7M32 69h1M47 69h7M45 70h7M43 71h7M52 71h1M33 72h1M40 72h1M44 72h3M50 72h3M42 73h1M47 73h6M46 74h7M46 75h7M49 76h3M47 77h1M51 80h1" />
<path stroke="#e66a7b" d="M38 65h4M38 66h6M37 67h5M36 68h5M37 69h4" />
</svg>