<svg xmlns="http://www.w3.org/2000/svg" viewBox="0 -0.5 96 96" shape-rendering="crispEdges">
<metadata>Made with Pixels to Svg https://codepen.io/shshaw/pen/XbxvNj</metadata>
<path stroke="#414a8b" d="M32 20h1M53 20h3M31 21h1M52 21h1M55 21h1M31 22h1M50 22h2M54 22h1M31 23h1M49 23h1M54 23h1M30 24h1M34 24h1M48 24h1M53 24h1M30 25h1M34 25h1M46 25h2M52 25h1M30 26h1M33 26h1M45 26h1M51 26h1M53 26h3M29 27h1M33 27h1M44 27h1M52 27h1M29 28h1M43 28h1M49 28h1M56 28h2M29 29h1M41 29h2M55 29h1M28 30h1M40 30h1M54 30h1M28 31h1M39 31h1M54 31h1M27 32h1M38 32h1M53 32h1M27 33h1M38 33h1M53 33h1M62 33h1M26 34h1M37 34h1M52 34h1M61 34h1M26 35h1M37 35h1M51 35h1M60 35h1M26 36h1M37 36h1M51 36h1M59 36h1M26 37h1M37 37h1M57 37h2M26 38h1M37 38h1M27 39h1M37 39h1M27 40h1M36 40h1M51 40h3M65 40h2M28 41h1M36 41h1M54 41h2M63 41h2M28 42h1M36 42h1M56 42h2M60 42h3M29 43h1M51 43h2M29 44h1M50 44h4M45 45h1M50 45h2M44 46h1M64 47h1M66 47h4M28 48h2M38 48h1M59 48h2M64 48h1M26 49h2M37 49h1M58 49h3M65 49h1M24 50h2M45 50h1M57 50h3M22 51h2M45 51h1M65 51h2M21 52h1M37 52h1M44 52h1M62 52h1M35 53h2M42 53h2M52 53h3M62 53h1M27 54h1M45 54h1M50 54h2M55 54h2M61 54h1M27 55h1M41 55h1M49 55h1M57 55h1M61 55h1M66 55h2M41 56h1M48 56h1M57 56h1M60 56h1M64 56h2M41 57h1M47 57h1M55 57h2M59 57h1M63 57h1M40 58h1M47 58h1M52 58h3M59 58h1M62 58h1M66 58h1M31 59h1M40 59h1M46 59h1M51 59h1M65 59h3M39 60h1M43 60h1M49 60h2M55 60h2M59 60h1M65 60h3M34 61h1M38 61h1M42 61h1M48 61h1M55 61h3M60 61h1M66 61h1M29 62h1M35 62h3M42 62h1M55 62h3M29 63h2M42 63h1M46 63h2M56 63h2M67 63h1M69 63h2M29 64h1M31 64h1M33 64h1M36 64h2M41 64h1M43 64h1M45 64h1M47 64h2M66 64h1M68 64h2M28 65h1M31 65h2M34 65h3M41 65h7M32 66h1M56 66h1M58 66h1M32 67h1M53 67h1M55 67h1M57 67h2M54 68h1" />
<path stroke="#101010" d="M33 20h1M34 21h1M34 22h1M34 23h1M35 24h1M36 25h1M36 26h1M36 27h1M51 27h1M56 27h1M35 28h1M48 28h1M55 28h1M35 29h1M47 29h1M53 29h2M58 29h1M35 30h1M45 30h2M52 30h1M58 30h1M35 31h1M44 31h1M52 31h1M57 31h1M35 32h1M43 32h1M51 32h1M57 32h1M35 33h1M42 33h1M51 33h1M57 33h1M36 34h1M41 34h1M51 34h1M56 34h1M63 34h1M36 35h1M41 35h1M50 35h1M56 35h1M63 35h1M41 36h1M50 36h1M56 36h1M62 36h1M40 37h1M50 37h1M56 37h1M62 37h1M40 38h1M50 38h1M62 38h1M40 39h1M50 39h1M61 39h1M39 40h1M50 40h1M61 40h1M34 41h2M39 41h1M50 41h1M61 41h1M67 41h1M32 42h2M38 42h1M49 42h1M67 42h1M31 43h1M38 43h1M47 43h2M66 43h1M30 44h1M38 44h1M46 44h1M65 44h1M65 45h1M65 46h1M70 48h1M69 49h1M37 50h1M68 50h1M36 51h1M68 51h1M36 52h1M67 52h1M22 53h7M68 53h1M40 54h2M68 54h1M38 55h3M44 55h1M68 55h1M28 56h1M37 56h1M40 56h1M44 56h1M68 56h1M28 57h1M36 57h1M38 57h1M40 57h1M43 57h1M57 57h1M69 57h1M28 58h1M35 58h1M39 58h1M43 58h1M57 58h1M69 58h1M28 59h1M34 59h1M42 59h4M58 59h1M62 59h1M69 59h1M29 60h1M34 60h1M41 60h1M46 60h1M58 60h1M61 60h1M70 60h1M30 61h1M33 61h1M40 61h1M47 61h1M58 61h1M61 61h1M70 61h1M31 62h2M39 62h1M48 62h1M59 62h1M62 62h1M70 62h1M36 63h3M49 63h1M59 63h1M63 63h1M71 63h1M50 64h1M59 64h1M64 64h1M71 64h1M50 65h1M59 65h1M65 65h1M69 65h2M28 66h4M34 66h1M51 66h1M59 66h1M66 66h3M33 67h1M52 67h1M60 67h1M52 68h1M58 68h3M53 69h3M57 69h2M56 70h2" />
<path stroke="#acb4f6" d="M32 21h2M53 21h2M32 22h2M52 22h2M32 23h2M50 23h3M31 24h3M49 24h3M31 25h3M48 25h3M31 26h2M47 26h4M30 27h3M47 27h2M30 28h3M46 28h2M30 29h3M43 29h4M56 29h2M29 30h3M41 30h4M55 30h2M29 31h3M40 31h4M55 31h2M28 32h3M40 32h3M54 32h2M28 33h3M40 33h2M54 33h2M27 34h3M40 34h1M53 34h2M62 34h1M27 35h2M39 35h2M52 35h2M61 35h2M27 36h1M38 36h3M52 36h1M60 36h2M38 37h2M51 37h1M59 37h3M38 38h2M49 38h1M59 38h2M38 39h2M49 39h1M37 40h2M49 40h1M37 41h2M48 41h2M65 41h2M34 42h2M37 42h1M47 42h2M63 42h3M33 43h3M37 43h1M41 43h1M46 43h1M55 43h3M63 43h2M32 44h3M36 44h2M40 44h2M54 44h6M32 45h10M54 45h7M31 46h12M50 46h2M54 46h2M59 46h2M31 47h14M47 47h8M60 47h1M30 48h5M37 48h1M40 48h10M52 48h3M30 49h4M40 49h4M45 49h5M53 49h3M29 50h5M36 50h1M41 50h4M46 50h5M53 50h4M28 51h6M39 51h6M47 51h9M27 52h7M35 52h1M38 52h6M49 52h4M29 53h6M37 53h5M30 54h10M30 55h8M51 55h1M31 56h6M52 56h1M31 57h1M33 57h3M32 58h3M48 58h1M32 59h1M47 59h3M53 59h1M47 60h2M49 61h2M54 61h1M49 62h3M50 63h3M51 64h5M51 65h6M52 66h4" />
<path stroke="#837bbd" d="M53 23h1M52 24h1M35 25h1M51 25h1M34 26h2M34 27h2M49 27h2M53 27h3M33 28h2M50 28h5M33 29h2M49 29h4M32 30h3M50 30h2M57 30h1M32 31h3M50 31h2M31 32h4M50 32h1M56 32h1M31 33h4M50 33h1M56 33h1M30 34h6M49 34h2M55 34h1M29 35h7M49 35h1M54 35h2M28 36h9M49 36h1M53 36h3M27 37h10M49 37h1M52 37h4M27 38h10M51 38h8M61 38h1M28 39h9M48 39h1M51 39h10M28 40h8M48 40h1M54 40h7M29 41h5M47 41h1M51 41h3M56 41h5M29 42h3M41 42h1M46 42h1M50 42h6M58 42h2M66 42h1M30 43h1M36 43h1M40 43h1M42 43h1M45 43h1M49 43h2M53 43h2M58 43h5M65 43h1M35 44h1M39 44h1M42 44h1M44 44h2M47 44h3M60 44h5M29 45h1M43 45h2M46 45h4M52 45h2M61 45h4M29 46h1M43 46h1M45 46h5M52 46h2M56 46h3M61 46h4M28 47h1M45 47h2M55 47h5M61 47h3M65 47h1M39 48h1M50 48h2M55 48h4M61 48h3M65 48h5M39 49h1M44 49h1M50 49h3M56 49h2M61 49h4M66 49h3M40 50h1M51 50h2M60 50h8M34 51h1M46 51h1M56 51h9M67 51h1M34 52h1M45 52h4M53 52h9M63 52h4M44 53h8M55 53h7M63 53h5M29 54h1M42 54h3M46 54h4M52 54h3M57 54h4M62 54h6M42 55h2M45 55h4M52 55h5M58 55h3M62 55h4M42 56h2M45 56h3M53 56h4M58 56h2M61 56h3M66 56h2M32 57h1M42 57h1M44 57h3M53 57h2M58 57h1M60 57h3M64 57h5M31 58h1M41 58h2M44 58h3M55 58h2M58 58h1M60 58h2M63 58h3M67 58h2M33 59h1M41 59h1M50 59h1M52 59h1M54 59h4M59 59h3M63 59h2M68 59h1M32 60h2M40 60h1M44 60h2M54 60h1M57 60h1M60 60h1M62 60h3M68 60h2M31 61h2M39 61h1M43 61h4M62 61h4M67 61h3M30 62h1M33 62h2M38 62h1M43 62h5M58 62h1M63 62h7M31 63h5M43 63h3M48 63h1M55 63h1M58 63h1M64 63h3M68 63h1M32 64h1M34 64h2M44 64h1M56 64h3M65 64h1M57 65h2M57 66h1M54 67h1" />
<path stroke="#d5d5ff" d="M46 26h1M45 27h2M44 28h2M39 32h1M39 33h1M38 34h2M38 35h1M32 43h1M31 44h1M30 45h2M30 46h1M29 47h2M35 48h2M28 49h2M34 49h3M26 50h3M34 50h2M24 51h4M35 51h1M22 52h5M28 54h1M28 55h2M50 55h1M29 56h2M49 56h3M29 57h2M48 57h5M29 58h2M49 58h3M29 59h2M30 60h2M51 60h3M51 61h3M52 62h3M53 63h2" />
<path stroke="#6a3952" d="M48 29h1M47 30h3M45 31h5M44 32h6M43 33h7M42 34h7M42 35h6M42 36h5M41 37h4M41 38h3M48 38h1M41 39h2M40 40h3M40 41h4M39 42h2M42 42h3M39 43h1M43 43h2M43 44h1M42 45h1" />
<path stroke="#94627b" d="M48 35h1M47 36h2M45 37h4M44 38h4M43 39h5M43 40h5M44 41h3M45 42h1M37 51h1" />
<path stroke="#c5c5c5" d="M38 49h1M38 51h1M38 56h1M30 64h1M42 64h1M46 64h1M67 64h1M70 64h1M29 65h2M33 65h1M67 65h1M33 66h1M59 67h1M57 68h1" />
<path stroke="#ffffff" d="M38 50h2M39 56h1M39 57h1M56 67h1M53 68h1M55 68h2M56 69h1" />
<path stroke="#b41800" d="M37 57h1M36 58h3M35 59h2M35 60h1M35 61h1" />
<path stroke="#de4129" d="M37 59h3M36 60h3M36 61h2" />
<path stroke="#838383" d="M66 65h1M68 65h1" />
</svg>