<svg xmlns="http://www.w3.org/2000/svg" viewBox="0 -0.5 96 96" shape-rendering="crispEdges">
<metadata>Made with Pixels to Svg https://codepen.io/shshaw/pen/XbxvNj</metadata>
<path stroke="#7b5a00" d="M47 13h1M46 14h1M43 15h2M49 15h3M48 16h1M44 20h1M50 20h2M44 21h1M43 22h1M33 26h1M63 26h1M31 27h2M34 27h1M60 27h1M62 27h1M64 27h1M60 28h1M65 28h1M64 29h1M50 32h1M52 32h1M47 33h1M41 36h1M51 36h1M56 36h1M39 38h1M49 38h1M30 39h1M45 39h1M47 39h1M41 40h1M66 40h1M24 41h1M28 41h1M42 41h2M65 41h1M67 41h1M24 42h1M27 42h1M32 42h1M60 42h1M64 42h1M68 42h2M23 43h1M42 43h3M47 43h1M52 43h2M59 43h1M61 43h1M64 43h1M19 44h2M23 44h1M26 44h1M39 44h1M48 44h1M58 44h1M19 45h1M22 45h4M40 45h1M44 45h1M47 45h1M51 45h1M56 45h1M60 45h2M71 45h2M41 46h2M45 46h2M53 46h2M19 47h1M22 47h1M73 47h1M77 47h1M20 48h2M74 48h1M77 48h1M58 49h1M75 49h1M58 50h1M37 55h1M36 56h1M56 57h1M56 58h1M57 59h1M58 62h1M58 63h1M59 64h1M44 65h1M45 66h1M43 67h1M47 67h1M48 68h1M59 68h1M48 69h1M59 69h1M60 70h1M49 71h1M62 71h1M49 72h1M62 72h1M50 73h1M32 74h1M50 74h1M32 75h1M50 75h1M31 76h1M50 76h1M60 76h1M51 77h1M61 77h1M51 78h1" />
<path stroke="#101010" d="M48 13h1M48 14h1M45 15h2M48 15h1M52 15h1M43 16h1M52 16h1M44 17h1M51 17h1M45 18h1M50 18h1M45 19h1M50 19h1M51 21h1M52 22h1M53 23h1M54 24h1M55 25h2M57 26h2M59 27h1M30 28h1M61 28h1M31 29h1M35 29h2M65 29h2M32 30h1M34 30h1M36 30h1M67 30h1M33 31h1M37 31h1M39 31h1M59 31h4M65 31h2M38 32h1M54 32h5M63 32h1M65 32h1M38 33h1M40 33h1M48 33h1M50 33h1M52 33h2M57 33h1M64 33h2M39 34h2M47 34h1M49 34h1M51 34h2M57 34h1M41 35h1M45 35h3M51 35h1M57 35h1M40 36h1M44 36h1M48 36h3M40 37h1M45 37h1M51 37h2M56 37h1M41 38h1M44 38h1M51 38h2M55 38h1M42 39h2M49 39h1M54 39h1M31 40h1M43 40h1M45 40h1M47 40h1M52 40h2M25 41h1M32 41h1M36 41h1M50 41h2M72 41h1M26 42h1M35 42h1M37 42h1M44 42h2M51 42h1M72 42h1M27 43h1M38 43h1M41 43h1M54 43h1M73 43h1M41 44h1M54 44h1M73 44h1M42 45h1M53 45h1M77 45h1M19 46h1M52 46h1M77 46h1M18 47h1M18 48h1M33 48h3M78 48h1M17 49h1M31 49h2M36 49h2M59 49h5M76 49h1M78 49h1M17 50h1M30 50h1M38 50h2M56 50h2M64 50h2M79 50h1M17 51h1M28 51h2M55 51h1M66 51h2M79 51h1M17 52h1M27 52h1M54 52h1M68 52h1M79 52h1M18 53h1M26 53h1M54 53h1M69 53h1M79 53h1M19 54h2M24 54h2M54 54h1M70 54h1M78 54h1M21 55h3M55 55h1M71 55h2M76 55h2M56 56h2M73 56h3M58 57h1M35 58h1M59 58h1M58 59h1M59 60h1M32 63h1M62 63h1M61 64h1M60 65h2M61 66h1M44 67h3M44 68h1M47 68h1M30 69h1M63 69h1M43 70h1M62 70h1M43 71h1M61 71h1M43 72h1M63 72h1M43 73h1M63 73h1M29 74h1M43 74h1M30 75h1M43 75h1M65 75h1M43 76h1M64 76h1M31 77h1M43 77h1M63 77h2M31 78h1M42 78h1M64 78h1M31 79h1M42 79h1M51 79h1M64 79h1M32 80h1M40 80h1M51 80h1M64 80h1M33 81h7M52 81h1M63 81h1M53 82h10" />
<path stroke="#d5ac62" d="M47 14h1M47 15h1M47 16h1M45 17h2M46 18h1M46 21h1M46 22h1M46 23h1M46 24h1M45 26h1M33 27h1M32 28h2M44 29h1M44 31h1M43 32h1M43 33h1M39 35h2M39 36h1M47 37h2M30 40h1M66 41h1M25 42h1M36 42h1M65 42h1M25 43h1M34 43h1M60 43h1M20 45h1M20 46h1M57 57h1M60 62h1M61 68h1M30 74h1M62 75h2" />
<path stroke="#e68362" d="M44 16h2M47 17h1M47 18h1M47 19h1M45 20h2M45 21h1M44 22h2M43 23h3M42 24h4M41 25h6M39 26h6M39 27h6M57 27h1M63 27h1M31 28h1M34 28h2M38 28h1M40 28h5M56 28h1M58 28h1M34 29h1M39 29h5M45 29h1M57 29h1M59 29h1M61 29h1M33 30h1M40 30h4M56 30h1M58 30h1M60 30h1M65 30h2M41 31h3M57 31h1M63 31h2M41 32h2M64 32h1M39 33h1M41 33h2M41 34h2M42 36h2M41 37h2M42 38h1M71 43h1M53 44h1M70 44h1M74 46h1M75 47h1M44 48h2M43 49h4M42 50h5M44 51h2M43 54h2M43 55h3M43 60h1M45 60h1M42 61h1M46 61h1M59 62h1M62 69h1M31 73h1M62 74h2M61 75h1M64 75h1" />
<path stroke="#a47b10" d="M46 16h1M54 33h3M38 34h1M53 34h4M38 35h1M54 35h3M38 36h1M45 36h3M55 36h1M39 37h1M46 37h1M55 37h1M54 38h1M40 39h1M50 39h1M53 39h1M29 40h1M42 40h1M44 40h1M48 40h1M71 41h1M28 42h2M31 42h1M33 42h2M63 42h1M70 42h1M35 43h2M51 43h1M62 43h1M65 43h1M67 43h1M69 43h1M21 44h1M37 44h2M44 44h1M51 44h1M57 44h1M62 44h1M69 44h1M21 45h1M39 45h1M43 45h1M55 45h1M59 45h1M70 45h1M74 45h3M40 46h1M73 46h1M41 48h1M40 49h1M39 51h1M54 51h1M38 52h1M53 52h1M38 53h1M53 53h1M37 54h1M41 56h1M46 56h1M36 57h1M42 57h1M45 57h1M43 58h2M58 58h1M34 61h1M59 61h2M33 62h1M41 62h1M47 62h1M61 62h1M42 63h1M46 63h1M33 64h1M45 64h1M32 65h1M32 66h1M32 67h1M60 67h3M31 68h1M62 68h2M43 69h2M49 70h1M61 70h1M31 71h1M31 72h1M30 73h1M32 73h1M62 73h1M61 74h1M64 74h1M60 75h1M32 79h1M41 79h1M33 80h1M41 80h1M52 80h1M53 81h1M62 81h1" />
<path stroke="#8b2920" d="M49 16h3M48 17h3M48 18h1M46 19h1M48 19h1M47 20h3M47 21h4M47 22h5M47 23h6M47 24h7M40 25h1M47 25h8M38 26h1M46 26h11M36 27h1M46 27h11M58 27h1M46 28h10M57 28h1M59 28h1M62 28h3M32 29h2M46 29h11M58 29h1M60 29h1M62 29h1M37 30h1M45 30h11M57 30h1M59 30h1M61 30h4M45 31h12M58 31h1M44 32h6M51 32h1M53 32h1M44 33h3M49 33h1M51 33h1M43 34h4M43 35h2M43 37h2M43 38h1M29 41h3M30 42h1M66 42h2M24 43h1M26 43h1M37 43h1M46 43h1M66 43h1M72 43h1M24 44h2M43 44h1M45 44h3M52 44h1M59 44h3M71 44h2M45 45h2M52 45h1M21 46h2M20 47h2M76 47h1M75 48h2M47 50h1M43 51h1M46 51h1M44 52h2M42 55h1M42 56h4M43 57h2M57 58h1M44 60h1M43 61h3M42 62h5M33 63h1M43 63h3M59 63h3M60 64h1M60 68h1M31 69h1M60 69h2M31 74h1M61 76h3" />
<path stroke="#7b0800" d="M49 18h1M49 19h1M42 23h1M41 24h1M39 25h1M37 26h1M35 27h1M63 29h1M42 35h1M35 59h1M44 64h1M31 70h1M31 75h1M62 77h1M63 78h1" />
<path stroke="#cd6a52" d="M37 27h2M36 28h2M39 28h1M37 29h2M38 30h2M38 31h1M40 31h1M39 32h2" />
<path stroke="#eed583" d="M45 27h1M45 28h1M44 30h1M49 37h2M40 38h1M45 38h4M41 39h1M51 39h2M49 40h2M45 41h4M71 42h1M29 43h5M63 43h1M68 43h1M70 43h1M27 44h9M42 44h1M63 44h6M26 45h11M48 45h1M58 45h1M62 45h8M24 46h11M43 46h1M47 46h5M55 46h17M75 46h2M23 47h9M42 47h1M49 47h24M74 47h1M22 48h8M50 48h11M66 48h7M20 49h8M51 49h6M68 49h6M20 50h6M51 50h4M70 50h3M21 51h3M51 51h2M39 52h1M51 52h1M39 53h1M51 53h1M38 54h3M50 54h3M38 55h4M49 55h5M38 56h3M47 56h8M37 57h5M46 57h9M37 58h6M45 58h11M36 59h20M36 60h7M46 60h11M35 61h7M47 61h11M35 62h6M48 62h10M35 63h7M47 63h11M34 64h9M47 64h11M34 65h9M47 65h11M33 66h9M48 66h10M33 67h9M49 67h8M33 68h8M49 68h8M33 69h8M50 69h6M33 70h7M51 70h4M34 71h5" />
<path stroke="#8b6a39" d="M48 34h1M50 34h1" />
<path stroke="#6a6a6a" d="M48 35h1M50 35h1M52 35h1" />
<path stroke="#f6cd00" d="M49 35h1" />
<path stroke="#bd8b29" d="M53 35h1M52 36h3M53 37h2M50 38h1M53 38h1M44 39h1M46 39h1M48 39h1M46 40h1M51 40h1M44 41h1M49 41h1M46 42h5M28 43h1M45 43h1M48 43h3M36 44h1M49 44h2M37 45h2M49 45h2M57 45h1M73 45h1M23 46h1M35 46h5M72 46h1M32 47h10M19 48h1M30 48h3M36 48h5M61 48h5M73 48h1M18 49h2M28 49h3M38 49h2M57 49h1M64 49h4M74 49h1M77 49h1M18 50h2M26 50h4M40 50h1M55 50h1M66 50h4M73 50h6M18 51h3M24 51h4M53 51h1M68 51h11M18 52h9M52 52h1M69 52h10M19 53h7M52 53h1M70 53h9M21 54h3M53 54h1M71 54h7M54 55h1M73 55h3M37 56h1M55 56h1M55 57h1M36 58h1M56 59h1M35 60h1M57 60h2M58 61h1M34 62h1M34 63h1M43 64h1M46 64h1M58 64h1M33 65h1M43 65h1M45 65h2M58 65h2M42 66h3M46 66h2M58 66h3M42 67h1M48 67h1M57 67h3M32 68h1M41 68h3M57 68h2M32 69h1M41 69h2M49 69h1M56 69h3M32 70h1M40 70h3M50 70h1M55 70h5M32 71h2M39 71h4M50 71h11M32 72h11M50 72h12M33 73h10M51 73h11M33 74h10M51 74h10M33 75h10M51 75h9M32 76h11M51 76h9M32 77h11M52 77h9M32 78h10M52 78h11M33 79h8M52 79h12M34 80h6M53 80h11M54 81h8" />
<path stroke="#ffeea4" d="M44 46h1M43 47h6M42 48h2M46 48h4M41 49h2M47 49h4M41 50h1M48 50h3M40 51h3M47 51h4M40 52h4M46 52h5M40 53h11M41 54h2M45 54h5M46 55h3" />
</svg>