<svg xmlns="http://www.w3.org/2000/svg" viewBox="0 -0.5 96 96" shape-rendering="crispEdges">
<metadata>Made with Pixels to Svg https://codepen.io/shshaw/pen/XbxvNj</metadata>
<path stroke="#cd9c52" d="M38 30h3M41 31h2M43 32h1M44 33h1M45 34h1M50 35h1M47 39h1M47 41h1M39 46h1M38 48h1M37 54h1M37 55h2M49 55h3M38 56h2M47 56h6M38 57h16M39 58h14M41 59h11M43 60h6M54 60h1M54 61h1M55 62h1M56 63h1" />
<path stroke="#ac7b20" d="M38 31h1M39 32h2M53 32h6M41 33h1M51 33h2M42 34h1M50 34h1M46 35h1M49 35h1M47 36h2M44 37h1M48 37h1M47 38h1M45 39h1M43 42h5M41 43h2M48 43h2M40 44h1M50 44h1M39 45h1M51 45h1M38 46h1M52 46h1M47 47h1M52 47h1M37 48h1M46 48h1M53 48h1M37 49h1M48 49h1M36 50h1M36 51h1M36 52h1M40 59h1M53 59h2M42 60h1M49 60h1M52 60h2M55 60h1M52 61h1M55 61h1M53 62h1M56 62h1M54 63h2M57 63h1M56 64h1" />
<path stroke="#ffee7b" d="M39 31h2M41 32h2M42 33h2M53 33h5M43 34h2M51 34h3M44 35h2M51 35h1M45 36h2M45 37h2M46 38h1M46 39h1M43 43h5M41 44h9M40 45h11M40 46h1M44 46h8M45 47h1M49 47h3M49 48h4M38 49h1M49 49h4M37 50h2M46 50h7M37 51h2M46 51h6M37 52h3M46 52h5M38 53h2M45 53h6M39 54h2M44 54h6M39 55h9M41 56h4" />
<path stroke="#9c9cc5" d="M20 33h4M19 34h1M24 34h1M15 35h4M25 35h1M14 36h1M26 36h1M26 37h1M27 38h5M27 39h1M32 39h1M76 39h3M33 40h1M74 40h2M79 40h2M33 41h1M68 41h3M73 41h1M81 41h1M16 42h1M34 42h1M66 42h2M71 42h2M81 42h1M16 43h1M34 43h1M65 43h1M17 44h1M35 44h1M64 44h1M36 45h1M58 45h4M64 45h1M37 46h1M41 46h3M56 46h2M62 46h2M21 47h1M37 47h1M40 47h1M44 47h1M55 47h1M64 47h1M45 48h1M54 48h1M39 49h1M45 49h1M53 49h1M24 50h1M45 50h1M53 50h1M76 50h2M24 51h1M42 51h3M52 51h1M41 52h1M45 52h1M51 52h1M26 53h1M29 53h1M51 53h1M30 54h1M35 54h1M51 54h1M34 55h1M74 56h1M57 58h1M58 59h1M65 59h2M41 61h1M49 61h1M47 62h1M49 62h1" />
<path stroke="#e6c573" d="M58 33h1M54 34h1M52 35h1M49 36h2M47 37h1M49 37h1M48 38h1M48 39h1M47 40h1M46 47h1M48 47h1M46 49h1M37 53h1M38 54h1M50 54h1M48 55h1M40 56h1M45 56h2" />
<path stroke="#101010" d="M59 33h1M55 34h4M43 35h1M53 35h2M44 36h1M51 36h2M50 37h1M45 38h1M49 38h1M49 39h1M46 40h1M48 40h1M46 41h1M48 41h1M48 42h1M38 47h1M39 48h1M48 48h1M47 49h1M36 53h1M36 54h1M36 55h1M37 56h1M37 57h1M54 57h1M38 58h1M53 58h1M39 59h1M52 59h1M39 60h1M41 60h1M50 60h2M38 61h1M42 61h7M51 61h1M53 61h1M38 62h2M41 62h1M52 62h1M54 62h1M40 63h1M46 63h1M48 63h1M50 63h1M53 63h1M47 64h1M49 64h1M54 64h2M57 64h1M56 65h2" />
<path stroke="#ffffff" d="M20 34h3M19 35h6M15 36h3M19 36h7M14 37h12M15 38h12M15 39h3M19 39h8M29 39h3M16 40h1M18 40h9M28 40h5M76 40h2M18 41h15M74 41h6M18 42h6M25 42h9M69 42h2M73 42h8M19 43h3M24 43h9M67 43h6M74 43h7M24 44h8M33 44h2M66 44h15M25 45h1M27 45h9M65 45h15M26 46h11M58 46h3M65 46h9M75 46h4M26 47h4M31 47h5M39 47h1M41 47h3M56 47h7M65 47h9M27 48h4M32 48h3M41 48h4M47 48h1M55 48h19M28 49h2M40 49h5M54 49h20M40 50h4M54 50h13M68 50h5M41 51h1M53 51h14M52 52h15M53 53h4M58 53h8M54 54h2M57 54h2M60 54h1M62 54h1M59 55h1M61 55h1M39 61h1M40 62h1M47 63h1M49 63h1" />
<path stroke="#cdcde6" d="M23 34h1M18 36h1M14 38h1M14 39h1M18 39h1M28 39h1M15 40h1M17 40h1M27 40h1M78 40h1M16 41h2M80 41h1M17 42h1M24 42h1M68 42h1M17 43h2M22 43h2M33 43h1M66 43h1M73 43h1M81 43h1M18 44h6M32 44h1M65 44h1M81 44h1M18 45h7M26 45h1M80 45h2M19 46h7M61 46h1M64 46h1M74 46h1M79 46h2M22 47h4M30 47h1M36 47h1M63 47h1M74 47h7M21 48h6M31 48h1M35 48h2M40 48h1M74 48h6M21 49h7M30 49h7M74 49h5M22 50h2M25 50h11M44 50h1M67 50h1M73 50h3M25 51h11M40 51h1M67 51h11M25 52h11M42 52h3M67 52h11M27 53h2M30 53h6M41 53h3M52 53h1M57 53h1M66 53h12M31 54h4M52 54h2M56 54h1M59 54h1M61 54h1M63 54h14M31 55h3M53 55h6M60 55h1M62 55h12M55 56h19M57 57h17M58 58h6M65 58h8M59 59h4M67 59h4" />
<path stroke="#838394" d="M13 37h1M13 38h1M13 39h1M14 40h1M15 41h1M82 43h1M82 44h1M17 45h1M82 45h1M18 46h1M81 46h1M19 47h2M81 47h1M20 48h1M80 48h1M20 49h1M79 49h1M21 50h1M39 50h1M78 50h1M22 51h2M39 51h1M45 51h1M78 51h1M24 52h1M40 52h1M78 52h1M25 53h1M40 53h1M44 53h1M78 53h1M26 54h4M41 54h3M77 54h1M30 55h1M35 55h1M52 55h1M74 55h3M31 56h4M53 56h2M55 57h2M74 57h1M64 58h1M73 58h1M63 59h1M71 59h2M59 60h4M67 60h4" />
<path stroke="#5a5a73" d="M40 60h1M40 61h1M50 61h1M46 62h1M48 62h1M50 62h1" />
</svg>