<svg xmlns="http://www.w3.org/2000/svg" viewBox="0 -0.5 96 96" shape-rendering="crispEdges">
<metadata>Made with Pixels to Svg https://codepen.io/shshaw/pen/XbxvNj</metadata>
<path stroke="#101010" d="M49 24h2M48 25h1M51 25h1M61 25h1M48 26h1M52 26h1M60 26h1M62 26h1M49 27h1M53 27h1M59 27h1M62 27h1M49 28h1M54 28h1M58 28h1M61 28h1M50 29h1M54 29h1M57 29h1M60 29h1M50 30h1M55 30h3M60 30h1M51 31h1M54 31h1M56 31h1M59 31h1M51 32h1M53 32h1M56 32h1M58 32h1M52 33h3M58 33h1M39 34h2M49 34h1M55 34h3M42 35h2M47 35h1M50 35h2M53 35h2M57 35h1M64 35h1M44 36h2M48 36h2M55 36h1M58 36h1M68 36h1M37 37h3M47 37h1M51 37h3M56 37h1M58 37h3M67 37h1M34 38h1M43 38h1M45 38h5M54 38h1M56 38h1M59 38h1M66 38h1M35 39h1M42 39h1M44 39h1M50 39h2M55 39h2M59 39h1M41 40h1M43 40h1M52 40h2M56 40h1M59 40h1M69 40h1M44 41h6M54 41h1M56 41h1M59 41h1M68 41h1M29 42h1M42 42h1M50 42h2M55 42h1M59 42h1M67 42h1M30 43h1M52 43h1M55 43h1M58 43h1M64 43h2M39 44h1M41 44h5M53 44h2M58 44h1M32 45h3M39 45h1M44 45h5M54 45h1M58 45h1M70 45h1M26 46h1M31 46h1M35 46h1M38 46h1M44 46h7M53 46h1M57 46h1M68 46h2M27 47h1M36 47h3M43 47h3M50 47h3M57 47h1M60 47h2M66 47h2M28 48h2M32 48h3M38 48h1M43 48h3M50 48h3M56 48h1M64 48h3M30 49h1M33 49h1M38 49h1M43 49h2M50 49h2M53 49h1M55 49h4M31 50h1M35 50h3M42 50h3M50 50h1M53 50h3M59 50h1M32 51h3M37 51h1M39 51h1M42 51h3M48 51h2M60 51h1M37 52h1M40 52h9M52 52h2M56 52h3M60 52h3M69 52h1M36 53h1M38 53h1M42 53h4M51 53h1M54 53h1M57 53h1M60 53h1M65 53h4M35 54h1M38 54h2M49 54h2M55 54h1M59 54h1M36 55h2M40 55h1M46 55h3M50 55h1M56 55h3M38 56h1M42 56h4M48 56h1M51 56h1M38 57h1M48 57h2M51 57h1M37 58h2M48 58h1M50 58h1M31 59h1M36 59h2M47 59h1M31 60h1M34 60h2M37 60h1M47 60h1M54 60h1M33 61h1M36 61h1M47 61h2M54 61h1M31 62h1M36 62h1M47 62h2M54 62h1M31 63h1M35 63h1M47 63h1M49 63h1M54 63h1M31 64h1M35 64h1M47 64h1M50 64h2M53 64h1M32 65h1M34 65h2M48 65h1M53 65h1M32 66h1M35 66h1M48 66h1M52 66h1M33 67h1M35 67h1M48 67h2M52 67h1M33 68h1M35 68h1M48 68h2M51 68h1M34 69h1M48 69h1M51 69h1M48 70h1M50 70h1M48 71h2" />
<path stroke="#b4b4c5" d="M49 25h1M49 26h1M61 26h1M50 28h1M51 30h1M52 32h1M50 36h3M41 37h1M48 37h3M38 38h1M60 38h2M65 38h1M39 39h1M45 39h4M60 39h1M37 40h1M44 40h3M60 40h1M64 40h1M35 41h2M38 42h2M43 42h3M60 42h1M42 43h3M61 43h1M60 44h1M31 45h1M35 45h1M59 45h1M34 46h1M36 46h1M58 46h2M31 47h1M63 47h2M57 48h3M58 50h1M55 51h1M64 52h2M36 54h1M49 56h1" />
<path stroke="#6a6a83" d="M50 25h1M50 26h2M50 27h3M60 27h2M51 28h3M59 28h2M51 29h3M58 29h2M52 30h3M58 30h2M52 31h2M57 31h2M57 32h1M56 33h2M52 35h1M53 36h2M62 36h2M40 37h1M54 37h2M61 37h1M41 38h2M50 38h4M55 38h1M49 39h1M52 39h3M64 39h1M36 40h1M47 40h5M54 40h2M61 40h3M34 41h1M37 41h3M43 41h1M50 41h4M55 41h1M60 41h1M46 42h4M52 42h3M41 43h1M45 43h7M53 43h2M59 43h2M62 43h2M31 44h5M46 44h7M59 44h1M36 45h3M40 45h4M49 45h5M42 46h2M51 46h2M30 47h1M34 47h1M42 47h1M58 47h2M62 47h1M65 47h1M30 48h1M42 48h1M63 48h1M32 49h1M34 49h1M42 49h1M39 50h1M40 51h2M58 51h1M63 52h1M37 53h1M56 53h1M58 53h1M64 53h1M37 54h1M49 55h1M50 56h1M50 57h1M33 65h1M33 66h2M34 67h1M34 68h1M50 68h1M49 69h2M49 70h1" />
<path stroke="#eecd83" d="M55 31h1M54 32h2M41 42h1M40 43h1M40 44h1M36 48h2M37 49h1M52 50h1M38 51h1M52 51h2M38 52h1M39 53h1M40 54h5M36 56h2M35 57h3M35 58h2M49 58h1M51 58h2M34 59h2M48 59h1M51 59h2M32 60h2M52 60h2M52 61h2M52 62h2M50 63h1M52 63h1M50 65h3M50 66h2M50 67h2" />
<path stroke="#cd9c62" d="M55 33h1M50 34h5M48 35h1M55 35h2M46 36h1M56 36h2M44 37h1M57 37h1M57 38h1M57 39h1M57 40h1M57 41h1M56 42h2M56 43h1M55 44h2M55 45h1M54 46h2M53 47h2M53 48h1M38 50h1M51 50h1M51 51h1M45 54h1M42 55h3M32 56h1M36 60h1M34 61h2M32 62h4M32 63h3M33 64h2M49 64h1M49 65h1M49 66h1" />
<path stroke="#8b526a" d="M38 34h1M41 34h1M38 35h1M41 35h1M65 35h4M39 36h1M34 37h3M65 39h5M34 40h2M29 41h5M66 43h3M28 44h3M69 44h2M26 45h2M39 46h1M41 46h1M41 47h1M46 47h1M49 47h1M41 48h1M41 49h1M45 49h1M66 49h2M41 50h1M49 50h1M68 50h1M47 51h1M69 51h1" />
<path stroke="#f67b73" d="M39 35h1M41 36h1M64 36h4M64 37h2M35 38h2M65 40h4M65 41h3M30 42h5M31 43h3M67 44h2M28 45h3M66 45h4M27 46h4M40 46h1M67 46h1M28 47h2M39 47h2M39 48h2M39 49h2M40 50h1M64 50h4M65 51h4M67 52h1" />
<path stroke="#d55241" d="M40 35h1M40 36h1M66 37h1M37 38h1M36 39h3M64 41h1M35 42h1M65 42h2M34 43h1M66 44h1M65 45h1M66 46h1M47 47h2M46 48h4M46 49h4M45 50h4M45 51h2M66 52h1M68 52h1" />
<path stroke="#ffe6ac" d="M49 35h1M47 36h1M45 37h2M44 38h1M43 39h1M42 40h1M42 41h1M34 54h1M33 55h3M33 56h3M32 57h3M32 58h3M32 59h2M49 59h2M49 60h3M49 61h3M50 62h2M51 63h1" />
<path stroke="#dedee6" d="M42 36h2M42 37h2M62 37h1M39 38h2M62 38h1M40 39h2M61 39h1M38 40h3M40 41h1M61 41h1M36 42h2M61 42h1M35 43h4M36 44h3M61 44h1M60 45h1M37 46h1M60 46h1M35 47h1M31 48h1M35 48h1M60 48h1M62 48h1M31 49h1M35 49h1M59 49h1M32 50h3M59 51h1M55 52h1M59 52h1M55 53h1M59 53h1M56 54h3" />
<path stroke="#ffffff" d="M63 37h1M63 38h2M62 39h2M62 41h2M62 42h3M62 44h4M61 45h4M32 46h2M61 46h5M32 47h2M61 48h1M60 49h6M56 50h2M60 50h4M56 51h2M61 51h4" />
<path stroke="#b4834a" d="M58 38h1M58 39h1M58 40h1M41 41h1M58 41h1M40 42h1M58 42h1M39 43h1M57 43h1M57 44h1M56 45h2M56 46h1M55 47h2M54 48h2M36 49h1M52 49h1M54 49h1M50 51h1M54 51h1M39 52h1M49 52h3M54 52h1M34 53h2M40 53h2M46 53h5M33 54h1M46 54h3M32 55h1M41 55h1M45 55h1M31 57h1M52 57h1M31 58h1M53 58h1M53 59h1M48 60h1M31 61h2M49 62h1M48 63h1M53 63h1M32 64h1M48 64h1M52 64h1" />
</svg>