<svg xmlns="http://www.w3.org/2000/svg" viewBox="0 -0.5 96 96" shape-rendering="crispEdges">
<metadata>Made with Pixels to Svg https://codepen.io/shshaw/pen/XbxvNj</metadata>
<path stroke="#31295a" d="M24 20h2M23 21h1M22 22h1M50 22h2M22 23h1M49 23h1M21 24h1M48 24h1M21 25h1M24 25h5M33 25h1M22 26h2M32 26h1M39 26h1M47 26h1M20 27h1M32 27h1M38 27h1M47 27h3M50 28h3M53 29h2M26 30h5M55 30h1M25 31h6M56 31h1M25 32h2M29 32h3M41 32h4M24 33h2M30 33h2M40 33h6M24 34h2M30 34h2M40 34h2M44 34h3M24 35h2M30 35h2M39 35h2M45 35h2M24 36h8M39 36h2M45 36h2M54 36h1M24 37h7M39 37h2M45 37h2M52 37h2M59 37h1M32 38h1M34 38h1M39 38h8M51 38h2M60 38h3M25 39h4M31 39h1M34 39h2M39 39h7M51 39h2M63 39h1M24 40h6M31 40h1M35 40h1M50 40h2M53 40h4M64 40h1M24 41h2M29 41h2M35 41h1M40 41h4M50 41h2M53 41h2M56 41h3M64 41h3M23 42h3M29 42h2M39 42h6M50 42h2M53 42h1M57 42h4M67 42h1M23 43h2M29 43h1M38 43h3M43 43h2M49 43h2M53 43h1M57 43h3M67 43h1M23 44h2M28 44h2M38 44h2M44 44h2M49 44h2M57 44h2M60 44h2M68 44h1M20 45h1M23 45h6M38 45h2M44 45h2M49 45h2M60 45h1M62 45h1M66 45h1M69 45h1M20 46h2M24 46h5M38 46h2M44 46h2M48 46h3M57 46h4M63 46h1M67 46h1M69 46h1M14 47h1M21 47h1M28 47h1M38 47h8M48 47h2M64 47h3M15 48h1M27 48h1M39 48h7M48 48h2M70 48h1M27 49h1M48 49h2M26 50h2M35 50h1M48 50h2M74 50h1M20 51h2M48 51h3M75 51h1M79 51h2M21 52h3M77 52h4M21 53h1M35 53h1M73 53h1M78 53h2M21 54h1M34 54h2M38 54h1M63 54h1M78 54h1M34 55h1M45 55h1M53 55h1M69 55h3M78 55h1M22 56h2M33 56h2M38 56h1M55 56h4M69 56h1M72 56h1M22 57h1M33 57h1M38 57h1M48 57h2M51 57h1M54 57h1M58 57h1M69 57h1M72 57h2M76 57h1M32 58h2M39 58h1M50 58h2M54 58h1M69 58h1M72 58h1M18 59h1M21 59h2M28 59h1M31 59h3M39 59h4M49 59h3M54 59h1M68 59h1M72 59h1M19 60h2M23 60h1M29 60h2M32 60h2M43 60h1M50 60h2M54 60h1M58 60h1M68 60h1M76 60h1M27 61h1M29 61h2M32 61h1M34 61h1M42 61h2M50 61h1M53 61h1M58 61h1M62 61h1M25 62h2M30 62h3M34 62h1M39 62h3M50 62h1M53 62h1M62 62h1M66 62h1M31 63h1M33 63h1M36 63h1M38 63h1M49 63h1M51 63h2M61 63h1M46 64h4M74 64h1M20 65h1M45 65h4M51 65h1M74 65h1M20 66h7M43 66h5M73 66h2M21 67h4M26 67h8M40 67h8M52 67h1M68 67h1M70 67h1M73 67h3M19 68h1M21 68h4M26 68h4M32 68h15M61 68h1M67 68h1M71 68h1M73 68h3M18 69h1M22 69h4M27 69h4M35 69h4M40 69h7M61 69h1M67 69h1M71 69h1M74 69h2M18 70h1M23 70h2M27 70h5M36 70h3M40 70h6M52 70h1M55 70h1M60 70h2M66 70h1M70 70h1M17 71h1M28 71h3M36 71h4M41 71h5M51 71h1M56 71h1M59 71h2M70 71h1M17 72h1M37 72h2M41 72h4M51 72h1M59 72h2M42 73h2M50 73h1M60 73h1M50 74h1M60 74h1" />
<path stroke="#d5d5d5" d="M24 21h1M23 22h2M23 23h3M50 23h1M22 24h4M49 24h3M22 25h2M49 25h3M48 26h4M50 27h3M56 36h2M55 37h4M54 38h5M57 39h3M61 39h2M61 40h3M62 41h2M15 47h6M17 48h10M19 49h8M21 50h5M36 50h4M35 51h9M20 52h1M37 52h11M19 53h2M42 53h10M19 54h2M47 54h7M18 55h4M36 55h1M51 55h2M18 56h4M25 56h1M36 56h2M45 56h2M19 57h2M24 57h2M35 57h3M45 57h2M24 58h3M35 58h4M44 58h4M24 59h2M35 59h4M44 59h4M36 60h2M44 60h4M45 61h2M54 70h1M54 71h2M54 72h2M53 73h3M57 73h2M53 74h2M56 74h4M53 75h2M56 75h3" />
<path stroke="#8b8b9c" d="M25 21h1M25 22h2M26 23h1M51 23h1M26 24h2M52 24h1M48 25h1M52 25h2M52 26h2M53 27h2M53 28h2M55 29h1M65 42h1M66 43h1M68 45h1M16 48h1M18 49h1M20 50h1M22 51h4M24 52h2M35 52h2M36 53h6M39 54h8M25 55h1M37 55h1M46 55h5M18 57h1M21 57h1M18 58h4M19 59h2M26 59h1M24 60h4M35 60h1M38 60h2M48 60h1M25 61h2M36 61h4M47 61h2M36 62h3M45 62h4M46 63h2M69 67h1M66 68h1M68 68h3M20 69h1M65 69h2M68 69h3M72 69h1M19 70h2M65 70h1M67 70h3M71 70h3M18 71h2M21 71h2M25 71h2M52 71h1M67 71h3M18 72h2M21 72h3M25 72h3M20 73h3M51 73h1M51 74h1" />
<path stroke="#101010" d="M26 21h1M27 22h1M32 22h2M36 22h2M27 23h2M30 23h2M34 23h2M38 23h1M41 23h2M52 23h1M28 24h3M39 24h2M43 24h1M53 24h1M29 25h1M44 25h1M54 25h1M20 26h2M54 26h1M19 27h1M55 27h1M19 28h1M55 28h1M18 29h1M56 29h1M18 30h1M56 30h1M18 31h1M57 31h1M19 32h1M57 32h1M19 33h1M57 33h1M20 34h1M56 34h1M20 35h1M55 35h1M20 36h1M55 36h1M20 37h1M54 37h1M21 38h1M53 38h1M21 39h1M53 39h1M21 40h1M52 40h1M57 40h3M21 41h1M52 41h1M60 41h2M21 42h1M52 42h1M62 42h2M21 43h1M51 43h2M64 43h2M21 44h1M51 44h1M66 44h1M51 45h1M67 45h1M51 46h1M68 46h1M50 47h1M68 47h3M50 48h1M69 48h1M71 48h2M16 49h2M50 49h1M70 49h1M73 49h4M18 50h2M50 50h1M70 50h1M77 50h4M19 51h1M51 51h1M71 51h1M81 51h1M18 52h1M72 52h1M81 52h1M18 53h1M24 53h2M62 53h2M72 53h1M80 53h1M18 54h1M24 54h2M36 54h2M61 54h1M64 54h1M73 54h1M80 54h1M17 55h1M22 55h1M35 55h1M38 55h7M61 55h1M65 55h1M73 55h1M79 55h1M17 56h1M24 56h1M35 56h1M40 56h2M47 56h7M65 56h1M73 56h1M77 56h2M17 57h1M23 57h1M34 57h1M40 57h1M52 57h1M60 57h1M64 57h1M77 57h1M17 58h1M23 58h1M34 58h1M52 58h1M59 58h1M64 58h1M34 59h1M52 59h1M59 59h1M63 59h1M34 60h1M40 60h2M52 60h1M63 60h1M24 61h1M31 61h1M33 61h1M35 61h1M51 61h1M64 61h1M17 62h1M33 62h1M35 62h1M51 62h1M64 62h1M17 63h1M32 63h1M37 63h1M50 63h1M63 63h1M65 63h1M75 63h1M18 64h1M50 64h1M63 64h1M75 64h1M19 65h1M49 65h1M62 65h1M75 65h1M19 66h1M48 66h1M62 66h1M65 66h1M20 67h1M48 67h1M51 67h1M62 67h1M65 67h1M76 67h1M20 68h1M47 68h1M52 68h1M62 68h1M65 68h1M72 68h1M76 68h1M21 69h1M26 69h1M31 69h4M47 69h1M52 69h1M62 69h1M64 69h1M73 69h1M76 69h1M22 70h1M25 70h2M32 70h1M34 70h1M46 70h1M62 70h1M64 70h1M74 70h2M23 71h2M27 71h1M31 71h1M35 71h1M40 71h1M46 71h1M65 71h2M71 71h4M28 72h3M36 72h1M40 72h1M45 72h1M57 72h2M61 72h1M67 72h4M18 73h2M24 73h3M37 73h3M41 73h1M45 73h1M59 73h1M61 73h1M20 74h4M42 74h3M61 74h1M51 75h2M59 75h2M53 76h6" />
<path stroke="#41628b" d="M32 23h2M36 23h2M31 24h3M35 24h4M41 24h2M30 25h3M34 25h5M40 25h4M24 26h4M29 26h3M34 26h4M40 26h4M21 27h11M33 27h5M39 27h6M46 27h1M20 28h25M46 28h4M19 29h34M19 30h7M31 30h24M19 31h6M31 31h25M20 32h5M32 32h9M45 32h12M20 33h4M32 33h8M46 33h11M21 34h3M32 34h8M47 34h9M21 35h3M32 35h7M47 35h8M56 35h3M21 36h3M32 36h7M47 36h7M58 36h1M21 37h3M31 37h8M47 37h5M22 38h10M33 38h1M35 38h4M47 38h4M59 38h1M22 39h3M29 39h2M32 39h2M36 39h3M46 39h5M60 39h1M22 40h2M30 40h1M32 40h3M36 40h14M60 40h1M22 41h2M31 41h4M36 41h4M44 41h6M22 42h1M31 42h8M45 42h5M61 42h1M64 42h1M66 42h1M22 43h1M30 43h8M45 43h4M60 43h4M22 44h1M30 44h8M46 44h3M59 44h1M62 44h4M67 44h1M21 45h2M29 45h9M46 45h3M58 45h2M63 45h3M22 46h2M29 46h9M46 46h2M64 46h3M27 47h1M29 47h9M46 47h2M28 48h11M46 48h2M28 49h8M40 49h8M71 49h2M28 50h7M44 50h4M71 50h3M75 50h2M27 51h8M72 51h3M76 51h3M19 52h1M27 52h8M73 52h1M26 53h9M75 53h2M26 54h8M62 54h1M75 54h2M26 55h8M62 55h3M74 55h3M27 56h6M61 56h4M70 56h2M74 56h3M27 57h6M55 57h3M61 57h3M70 57h2M74 57h2M28 58h4M55 58h4M60 58h4M70 58h2M73 58h3M17 59h1M29 59h2M55 59h4M60 59h3M69 59h3M73 59h3M17 60h2M21 60h2M55 60h3M59 60h4M69 60h6M17 61h7M28 61h1M54 61h4M59 61h3M63 61h1M68 61h7M18 62h7M27 62h3M42 62h2M54 62h8M63 62h1M68 62h7M19 63h12M34 63h2M39 63h6M53 63h8M62 63h1M67 63h8M21 64h25M51 64h12M67 64h7M23 65h22M52 65h10M67 65h7M27 66h16M52 66h10M66 66h7M34 67h6M53 67h9M66 67h2M71 67h2M53 68h8M19 69h1M53 69h8M21 70h1M56 70h4M20 71h1M57 71h2M20 72h1M24 72h1M52 72h2M56 72h1M23 73h1M56 73h1M55 74h1M55 75h1" />
<path stroke="#182039" d="M34 24h1M39 25h1M47 25h1M28 26h1M33 26h1M38 26h1M44 26h3M45 27h1M45 28h1M54 39h3M55 41h1M59 41h1M54 42h3M54 43h1M56 43h1M52 44h2M56 44h1M57 45h1M15 46h5M22 47h5M36 49h4M40 50h4M44 51h4M48 52h4M52 53h2M54 54h1M79 54h1M54 55h1M48 58h1M16 59h1M48 59h1M16 60h1M31 60h1M49 60h1M16 61h1M49 61h1M49 62h1M18 63h1M48 63h1M19 64h2M21 65h2M75 66h2M25 67h1M25 68h1M30 68h2M39 69h1M35 70h1M39 70h1M53 70h1M53 71h1M61 71h2M39 72h1M27 73h1M44 73h1M52 73h1M52 74h1" />
<path stroke="#e6cd41" d="M27 32h2M27 33h3M26 34h4M42 34h2M26 35h4M42 35h3M41 36h4M41 37h4M26 41h2M26 42h3M25 43h4M41 43h2M25 44h3M40 44h4M40 45h4M40 46h4M23 55h1M39 57h1M40 58h3" />
<path stroke="#837b5a" d="M26 33h1M41 35h1M28 41h1M22 53h2M22 54h2M39 56h1M42 56h2M42 57h2" />
<path stroke="#bdc531" d="M55 43h1M54 44h2M52 45h5M61 45h1M52 46h5M51 47h5M51 48h4M51 49h2M56 49h1M69 49h1M56 50h1M72 55h1M68 58h1M66 59h2M53 60h1M64 60h4M52 61h1M65 61h2M52 62h1M65 62h1" />
<path stroke="#f6ff7b" d="M61 46h2M56 47h8M67 47h1M55 48h14M53 49h3M57 49h12M51 50h5M57 50h13M52 51h5M58 51h13M52 52h6M59 52h13M54 53h4M59 53h3M64 53h8M55 54h4M60 54h1M65 54h8M55 55h4M60 55h1M66 55h3M54 56h1M59 56h1M66 56h3M53 57h1M59 57h1M65 57h4M53 58h1M65 58h3M53 59h1M64 59h2" />
<path stroke="#101829" d="M26 51h1M26 52h1M74 52h3M74 53h1M77 53h1M74 54h1M77 54h1M77 55h1M26 56h1M44 56h1M26 57h1M44 57h1M47 57h1M50 57h1M27 58h1M43 58h1M49 58h1M76 58h1M27 59h1M43 59h1M76 59h2M28 60h1M75 60h1M77 60h1M44 61h1M67 61h1M75 61h2M44 62h1M67 62h1M75 62h2M45 63h1M66 63h1M66 64h1M66 65h1M50 66h2M49 67h1" />
<path stroke="#7b7b29" d="M57 51h1M58 52h1M58 53h1M59 54h1M24 55h1M59 55h1M60 56h1M41 57h1M64 63h1M50 65h1M49 66h1" />
<path stroke="#b4314a" d="M22 58h1M23 59h1M42 60h1M40 61h2" />
</svg>