<svg xmlns="http://www.w3.org/2000/svg" viewBox="0 -0.5 96 96" shape-rendering="crispEdges">
<metadata>Made with Pixels to Svg https://codepen.io/shshaw/pen/XbxvNj</metadata>
<path stroke="#295a62" d="M61 25h3M61 26h1M62 27h1M51 28h2M63 28h1M50 29h1M52 29h1M63 29h1M67 29h1M49 30h1M51 30h1M62 30h1M48 31h1M51 31h1M61 31h1M48 32h1M51 32h1M52 33h1M66 33h1M50 37h1M53 37h1M23 43h2M48 43h2M25 44h2M50 44h2M31 47h1M44 47h2M30 48h1M32 48h1M43 48h1M45 48h1M30 49h1M32 49h1M42 49h1M45 49h1M30 50h1M33 50h1M42 50h1M45 50h1M30 51h1M33 51h1M41 51h1M45 51h1M30 52h1M33 52h1M41 52h1M45 52h1M30 53h1M34 53h1M44 53h1M31 54h1M34 54h1M40 54h1M44 54h1M31 55h1M34 55h1M40 55h1M43 55h1M28 56h2M32 56h3M40 56h3M27 57h1M30 57h1M45 57h3M26 58h1M44 58h1M48 58h1M27 60h1M48 61h1" />
<path stroke="#deeef6" d="M62 26h2M63 27h2M64 28h2M51 29h1M64 29h2M50 30h1M63 30h3M49 31h2M49 32h2M49 33h2M23 44h2M48 44h2M24 45h3M49 45h3M25 46h1M50 46h1M28 57h2M29 58h2M45 58h3M30 59h2M43 59h5M42 60h3" />
<path stroke="#101010" d="M64 26h2M66 27h1M67 28h1M61 29h2M68 29h1M68 30h1M68 31h1M67 32h1M47 33h1M67 33h1M47 34h1M61 34h1M65 34h2M47 35h1M62 35h4M48 36h1M64 36h1M49 37h1M64 37h1M51 38h4M58 40h3M70 41h1M69 42h1M22 43h1M47 43h1M68 43h1M22 44h1M47 44h1M60 44h1M22 45h2M27 45h1M47 45h2M52 45h1M61 45h2M23 46h1M28 46h1M33 46h1M48 46h1M53 46h1M58 46h1M24 47h1M28 47h1M49 47h1M53 47h1M58 47h1M24 48h1M27 48h1M34 48h1M47 48h1M49 48h1M52 48h1M59 48h1M22 49h1M25 49h2M34 49h1M47 49h1M50 49h2M59 49h1M62 49h3M22 50h1M34 50h1M47 50h1M59 50h1M65 50h2M58 51h1M67 51h1M23 52h1M48 52h1M58 52h1M68 52h1M24 53h1M32 53h1M42 53h1M49 53h1M57 53h2M69 53h1M25 54h1M30 54h1M50 54h2M55 54h2M29 55h1M51 55h4M58 55h1M70 55h1M51 56h1M62 56h1M51 57h1M64 57h1M31 58h1M43 58h1M51 58h1M65 58h1M26 59h1M32 59h1M42 59h1M50 59h1M55 59h2M26 60h1M41 60h1M49 60h2M27 61h2M31 61h1M49 61h1M57 61h1M29 62h4M47 62h2M58 62h1M33 63h3M44 63h3M57 63h2M36 64h7M54 64h1M59 64h1M33 65h1M38 65h1M55 65h1M59 65h1M32 66h1M36 66h2M51 66h1M55 66h2M60 66h1M32 67h1M35 67h1M40 67h2M48 67h5M56 67h1M60 67h1M32 68h1M35 68h1M43 68h5M52 68h1M56 68h3M60 68h1M33 69h2M53 69h1M56 69h1M58 69h2M54 70h2" />
<path stroke="#d5cde6" d="M65 27h1M66 28h1M66 29h1M66 30h1M63 31h3M48 33h1M51 33h1M49 34h2M24 46h1M26 46h1M49 46h1M51 46h1M25 47h1M50 47h1M28 58h1M29 59h1M45 60h2" />
<path stroke="#622908" d="M58 28h3M56 29h2M55 30h1M54 31h1M54 32h1M54 35h1M59 35h3M55 36h9M55 37h9M65 37h3M56 38h7M68 38h3M58 39h3M71 39h1M68 40h1M71 40h1M59 41h1M66 41h2M59 42h1M63 42h3M27 43h3M52 43h3M59 43h1M61 43h2M30 44h2M55 44h2M68 44h1M32 45h1M57 45h1M66 45h2M63 46h4M72 46h1M23 47h1M33 47h1M48 47h1M62 47h4M71 47h2M22 48h1M62 48h4M69 48h3M66 49h5M67 50h3M23 51h1M47 51h2M60 52h3M59 53h1M63 53h3M26 54h1M58 54h1M66 54h2M69 54h1M27 55h2M61 55h1M68 55h1M63 56h1M70 56h1M57 57h1M68 57h2M57 58h3M66 58h2M51 59h1M57 59h5M52 60h1M58 60h5M53 61h1M58 61h3M62 61h1M64 61h1M49 62h1M53 62h1M57 62h1M61 62h1M63 62h1M65 62h1M47 63h3M54 63h1M34 64h1M43 64h7M58 64h1M37 65h1M39 65h3M43 65h1M45 65h5M33 66h1M38 66h1M40 66h1M42 66h1M44 66h1M46 66h5M43 67h1M45 67h3M57 67h1M34 68h1M53 68h1M55 69h1" />
<path stroke="#b42020" d="M58 29h3M56 30h6M55 31h1M58 31h3M55 32h1M58 32h3M54 33h7M54 34h7M55 35h4M64 38h2M63 39h2M61 40h4M69 40h2M60 41h4M65 41h1M68 41h2M60 42h3M66 42h3M60 43h1M63 43h5M61 44h5M28 48h1M33 48h1M53 48h1M27 49h1M33 49h1M52 49h1M23 50h1M38 50h1M48 50h1M58 50h1M24 51h1M29 51h1M37 51h1M39 51h1M49 51h2M56 51h2M24 52h6M36 52h1M39 52h1M49 52h9M25 53h5M35 53h1M40 53h1M45 53h1M50 53h7M60 53h3M68 53h1M27 54h3M52 54h3M59 54h7M30 55h1M50 55h1M62 55h6M49 56h2M64 56h6M48 57h3M65 57h3M35 58h1M49 58h1M34 59h1M36 59h2M39 59h1M41 59h1M49 59h1M32 60h2M35 60h4M40 60h1M32 61h10M34 62h9M37 63h6M51 63h2M55 63h2M35 64h1M50 64h4M55 64h3M34 65h3M51 65h2M54 65h1M56 65h1M35 66h1M38 67h2M38 68h1" />
<path stroke="#b4b4d5" d="M67 30h1M62 31h1M66 31h2M61 32h6M61 33h5M48 34h1M51 34h2M62 34h3M48 35h5M49 36h5M51 37h2M27 46h1M52 46h1M26 47h2M51 47h2M25 48h2M50 48h2M27 58h1M27 59h2M48 59h1M28 60h2M47 60h2M29 61h2M45 61h3M44 62h3" />
<path stroke="#ee5a5a" d="M56 31h2M56 32h2M66 38h2M65 39h6M65 40h3M64 41h1M27 44h3M52 44h3M28 45h4M53 45h4M29 46h4M54 46h4M29 47h2M32 47h1M54 47h4M23 48h1M29 48h1M48 48h1M54 48h5M23 49h2M28 49h2M48 49h2M53 49h6M24 50h6M37 50h1M39 50h3M49 50h9M61 50h4M25 51h4M35 51h2M38 51h1M40 51h1M46 51h1M51 51h5M60 51h7M34 52h2M37 52h2M40 52h1M46 52h2M59 52h1M63 52h5M36 53h4M46 53h3M66 53h2M35 54h5M45 54h5M68 54h1M35 55h5M44 55h6M69 55h1M30 56h2M35 56h5M43 56h6M31 57h14M33 58h2M38 58h3M53 65h1M57 65h2M34 66h1M52 66h3M57 66h3M33 67h2M53 67h3M58 67h2M33 68h1M54 68h2M59 68h1M54 69h1" />
<path stroke="#292931" d="M53 33h1M53 34h1M53 35h1M54 36h1M54 37h1M55 38h1M63 38h1M56 39h2M61 39h2M66 44h2M69 44h2M63 45h3M71 45h2M62 46h1M73 46h1M61 47h1M69 47h2M73 47h1M61 48h1M66 48h3M72 48h1M61 49h1M65 49h1M71 49h1M60 50h1M70 50h1M59 51h1M68 51h2M59 55h2M57 56h1M56 57h1M58 57h2M52 58h2M56 58h1M60 58h2M54 59h1M62 59h1M65 59h1M56 60h2M63 60h1M66 60h1M66 61h1M51 62h2M55 62h2M59 62h1M66 62h1M50 63h1M53 63h1M60 63h6M50 65h1M39 66h1M37 67h1M42 67h1M37 68h1M39 68h2M38 69h2" />
<path stroke="#942910" d="M68 45h3M67 46h5M66 47h3M58 56h4M60 57h4M62 58h3M52 59h2M63 59h2M51 60h1M53 60h3M64 60h2M50 61h3M54 61h3M61 61h1M63 61h1M65 61h1M50 62h1M54 62h1M60 62h1M62 62h1M64 62h1M42 65h1M44 65h1M41 66h1M43 66h1M45 66h1M44 67h1" />
<path stroke="#1894b4" d="M31 48h1M44 48h1M31 49h1M43 49h2M31 50h2M43 50h2M31 51h2M42 51h3M31 52h2M42 52h3M31 53h1M33 53h1M41 53h1M43 53h1M32 54h2M41 54h3M32 55h2M41 55h2" />
<path stroke="#832908" d="M36 49h6M35 50h2M46 50h1M34 51h1M32 58h1M36 58h2M41 58h2M50 58h1M33 59h1M35 59h1M38 59h1M40 59h1M30 60h2M34 60h1M39 60h1M42 61h3M33 62h1M43 62h1M36 63h1M43 63h1" />
</svg>