<svg xmlns="http://www.w3.org/2000/svg" viewBox="0 -0.5 96 96" shape-rendering="crispEdges">
<metadata>Made with Pixels to Svg https://codepen.io/shshaw/pen/XbxvNj</metadata>
<path stroke="#eea473" d="M43 13h3M42 14h1M46 14h1M42 15h1M47 15h1M41 16h1M47 16h1M41 17h1M48 17h1M40 18h1M48 18h1M40 19h1M48 19h1M40 20h1M49 20h1M39 21h1M49 21h1M39 22h1M49 22h1M12 23h1M38 23h1M50 23h1M11 24h1M13 24h1M38 24h1M50 24h1M84 24h1M11 25h1M13 25h1M36 25h3M51 25h8M83 25h1M85 25h1M11 26h1M14 26h1M28 26h8M59 26h5M83 26h1M85 26h1M10 27h1M14 27h1M26 27h2M64 27h2M82 27h1M85 27h1M10 28h1M15 28h1M25 28h1M66 28h2M82 28h1M85 28h1M10 29h1M15 29h1M24 29h1M68 29h1M81 29h1M85 29h1M10 30h1M16 30h1M23 30h1M69 30h1M81 30h1M86 30h1M10 31h1M16 31h1M23 31h1M70 31h1M80 31h1M86 31h1M9 32h1M17 32h1M22 32h1M70 32h1M80 32h1M86 32h1M9 33h1M17 33h1M22 33h1M71 33h1M79 33h1M86 33h1M9 34h1M18 34h1M22 34h1M71 34h1M79 34h1M87 34h1M9 35h2M18 35h1M22 35h1M71 35h1M78 35h1M87 35h1M11 36h2M19 36h1M22 36h1M71 36h1M78 36h1M87 36h1M13 37h2M19 37h1M22 37h1M71 37h1M77 37h1M87 37h1M15 38h2M20 38h1M22 38h1M71 38h1M77 38h1M86 38h2M16 39h1M20 39h1M22 39h1M71 39h1M76 39h1M84 39h2M16 40h1M20 40h1M22 40h1M71 40h1M76 40h1M82 40h2M16 41h1M19 41h1M22 41h1M71 41h1M75 41h1M80 41h2M15 42h1M19 42h1M22 42h1M71 42h1M75 42h1M80 42h1M15 43h1M18 43h1M23 43h1M71 43h1M76 43h2M81 43h1M15 44h1M18 44h1M23 44h1M70 44h1M78 44h2M82 44h1M14 45h1M17 45h1M23 45h1M70 45h1M79 45h1M83 45h1M14 46h1M17 46h1M21 46h3M70 46h1M79 46h1M84 46h1M14 47h1M16 47h1M19 47h2M70 47h2M78 47h1M85 47h1M14 48h1M16 48h3M22 48h2M72 48h1M78 48h1M84 48h1M13 49h1M20 49h2M23 49h1M73 49h1M78 49h1M83 49h1M13 50h1M18 50h2M23 50h1M71 50h1M74 50h1M77 50h1M82 50h1M13 51h1M16 51h2M23 51h1M70 51h3M75 51h1M77 51h1M81 51h1M13 52h3M24 52h1M70 52h1M72 52h1M76 52h1M80 52h1M24 53h1M70 53h1M73 53h1M79 53h1M24 54h1M70 54h1M74 54h1M78 54h1M24 55h1M70 55h1M75 55h3M24 56h1M69 56h1M24 57h1M69 57h1M24 58h1M69 58h1M24 59h1M69 59h1M24 60h1M69 60h1M24 61h1M69 61h1M25 62h1M69 62h1M25 63h1M69 63h1M25 64h1M68 64h1M25 65h1M68 65h1M25 66h1M68 66h1M25 67h1M68 67h1M25 68h1M68 68h1M25 69h1M68 69h1M26 70h1M68 70h1M26 71h1M67 71h1M26 72h1M67 72h1M26 73h1M67 73h1M27 74h1M67 74h1M27 75h1M67 75h1M28 76h1M66 76h1M29 77h1M66 77h1M30 78h2M65 78h1M32 79h4M63 79h2M36 80h27" />
<path stroke="#f6bd8b" d="M43 14h3M43 15h4M42 16h2M46 16h1M42 17h1M46 17h2M41 18h2M47 18h1M41 19h1M47 19h1M41 20h1M47 20h2M40 21h2M47 21h2M40 22h1M48 22h1M39 23h2M48 23h2M12 24h1M39 24h2M48 24h2M12 25h1M39 25h1M49 25h2M84 25h1M12 26h2M36 26h4M49 26h10M84 26h1M11 27h3M28 27h11M58 27h6M83 27h2M11 28h4M26 28h3M63 28h3M83 28h2M11 29h4M25 29h2M65 29h3M82 29h3M11 30h5M24 30h2M67 30h2M82 30h4M11 31h5M24 31h1M68 31h2M81 31h5M10 32h7M23 32h2M69 32h1M81 32h5M10 33h7M23 33h1M69 33h2M80 33h6M10 34h8M23 34h1M70 34h1M80 34h7M11 35h7M23 35h1M70 35h1M79 35h8M13 36h6M23 36h1M70 36h1M79 36h8M15 37h4M23 37h1M70 37h1M78 37h9M17 38h3M23 38h1M70 38h1M78 38h8M17 39h3M23 39h1M70 39h1M77 39h7M17 40h3M23 40h1M70 40h1M77 40h5M17 41h2M23 41h1M70 41h1M76 41h4M16 42h3M23 42h2M70 42h1M76 42h4M16 43h2M24 43h1M69 43h2M78 43h3M16 44h2M24 44h1M69 44h1M80 44h2M15 45h2M24 45h1M69 45h1M80 45h3M15 46h2M24 46h1M69 46h1M80 46h4M15 47h1M21 47h4M69 47h1M79 47h6M15 48h1M19 48h3M24 48h1M69 48h3M79 48h5M14 49h6M24 49h1M69 49h4M79 49h4M14 50h4M24 50h1M69 50h2M72 50h2M78 50h4M14 51h2M24 51h2M69 51h1M73 51h2M78 51h3M25 52h1M69 52h1M73 52h3M77 52h3M25 53h1M68 53h2M74 53h5M25 54h1M68 54h2M75 54h3M25 55h1M68 55h2M25 56h1M68 56h1M25 57h1M68 57h1M25 58h1M68 58h1M25 59h1M68 59h1M25 60h1M68 60h1M25 61h2M68 61h1M26 62h1M68 62h1M26 63h1M67 63h2M26 64h1M67 64h1M26 65h1M67 65h1M26 66h1M67 66h1M26 67h1M67 67h1M26 68h1M67 68h1M26 69h2M66 69h2M27 70h1M66 70h2M27 71h1M66 71h1M27 72h1M66 72h1M27 73h2M66 73h1M28 74h1M66 74h1M28 75h2M65 75h2M29 76h2M65 76h1M30 77h3M64 77h2M32 78h5M62 78h3M36 79h27" />
<path stroke="#c50041" d="M44 16h1M43 17h1M43 18h1M42 19h1M42 20h1M42 21h1M41 22h1M46 22h1M41 23h1M46 23h1M41 24h1M45 24h2M40 25h1M45 25h3M40 26h1M44 26h4M39 27h5M29 28h11M50 28h8M27 29h2M54 29h5M61 29h2M26 30h1M56 30h4M61 30h4M25 31h1M56 31h5M62 31h5M25 32h1M50 32h1M57 32h4M62 32h6M24 33h1M36 33h1M50 33h1M57 33h4M62 33h6M24 34h1M31 34h1M36 34h1M50 34h1M57 34h4M62 34h7M24 35h1M31 35h1M36 35h1M44 35h1M50 35h1M57 35h4M62 35h7M24 36h1M36 36h1M44 36h1M50 36h1M57 36h4M62 36h7M32 37h1M36 37h1M44 37h1M49 37h1M57 37h4M62 37h7M33 38h3M45 38h3M57 38h4M62 38h7M57 39h4M62 39h7M57 40h4M62 40h7M56 41h5M62 41h7M25 42h1M57 42h3M61 42h8M59 43h1M61 43h7M61 44h7M57 45h1M61 45h7M34 46h2M45 46h2M57 46h3M61 46h7M33 47h1M36 47h1M44 47h1M47 47h1M57 47h3M61 47h7M32 48h1M37 48h1M43 48h1M48 48h1M57 48h3M61 48h7M32 49h1M43 49h1M57 49h3M61 49h7M32 50h1M43 50h1M57 50h3M61 50h7M36 51h1M47 51h1M57 51h3M61 51h7M35 52h2M46 52h2M57 52h3M61 52h7M33 53h4M44 53h4M57 53h3M61 53h6M34 54h2M45 54h2M57 54h3M61 54h6M56 55h4M61 55h6M56 56h3M60 56h7M56 57h3M60 57h7M56 58h3M60 58h7M56 59h3M60 59h7M56 60h3M60 60h7M56 61h3M60 61h7M28 62h1M55 62h4M60 62h7M55 63h4M60 63h6M57 64h2M60 64h6M58 65h1M60 65h6M28 66h1M55 66h2M60 66h6M28 67h1M55 67h3M59 67h7M28 68h1M55 68h3M59 68h7M55 69h3M59 69h6M29 70h1M55 70h3M59 70h6M29 71h1M55 71h3M59 71h6M29 72h1M55 72h3M59 72h6M30 73h1M54 73h4M59 73h6M30 74h2M54 74h4M59 74h6M31 75h3M53 75h4M58 75h6M33 76h7M49 76h8M58 76h5M37 77h19M57 77h4" />
<path stroke="#8b0031" d="M45 16h1M45 17h1M46 18h1M46 21h1M47 24h1M44 27h6M56 27h2M58 28h1M59 29h2M60 30h1M61 31h1M61 32h1M68 32h1M61 33h1M69 34h1M69 35h1M39 36h1M24 37h1M38 37h1M24 38h1M37 38h1M61 38h1M24 39h1M61 39h1M24 40h1M61 40h1M24 41h1M61 41h1M41 42h1M56 42h1M60 42h1M69 42h1M60 43h1M68 43h1M44 44h2M25 45h1M37 45h2M42 45h1M25 46h1M38 46h1M25 47h1M38 47h1M25 48h1M38 48h1M25 49h1M37 49h2M48 49h1M25 50h1M37 50h2M48 50h1M26 51h1M32 51h1M38 51h1M43 51h1M26 52h1M32 52h1M38 52h1M43 52h1M68 52h1M26 53h1M32 53h1M38 53h1M43 53h1M67 53h1M26 54h1M33 54h1M38 54h1M44 54h1M26 55h1M38 55h1M60 55h1M26 56h1M38 56h1M59 56h1M26 57h1M38 57h1M59 57h1M26 58h1M38 58h1M59 58h1M26 59h1M38 59h1M59 59h1M26 60h1M38 60h1M59 60h1M27 61h1M38 61h1M59 61h1M27 62h1M37 62h1M42 62h1M59 62h1M67 62h1M27 63h1M43 63h1M59 63h1M66 63h1M27 64h1M56 64h1M59 64h1M27 65h1M59 65h1M27 66h1M58 66h2M27 67h1M37 67h1M58 67h1M27 68h1M38 68h1M58 68h1M66 68h1M28 69h1M58 69h1M65 69h1M28 70h1M58 70h1M28 71h1M58 71h1M28 72h1M58 72h1M29 73h1M58 73h1M29 74h1M58 74h1M30 75h1M57 75h1M31 76h1M57 76h1M63 76h1M33 77h1M56 77h1M61 77h1M37 78h1" />
<path stroke="#ff739c" d="M44 17h1M44 18h1M44 19h1M43 20h2M43 21h2M43 22h2M42 23h2M42 24h2M42 25h2M28 30h3M27 31h5M34 31h1M27 32h4M35 32h1M27 33h4M28 34h3M33 48h2M44 48h2M33 49h2M44 49h2M36 66h1M45 66h1M36 67h1M45 67h1M36 68h2M44 68h1M37 69h7" />
<path stroke="#ff1052" d="M45 18h1M43 19h1M45 19h1M45 20h1M45 21h1M42 22h1M45 22h1M44 23h2M44 24h1M41 25h1M44 25h1M41 26h3M40 28h10M29 29h25M27 30h1M31 30h25M26 31h1M32 31h1M35 31h12M49 31h7M26 32h1M31 32h1M36 32h10M51 32h6M25 33h2M31 33h1M37 33h8M51 33h6M25 34h3M37 34h8M51 34h6M25 35h6M37 35h7M51 35h6M25 36h7M37 36h2M41 36h3M51 36h6M25 37h7M37 37h1M39 37h2M42 37h2M50 37h7M25 38h8M36 38h1M38 38h4M43 38h2M48 38h9M25 39h32M25 40h32M25 41h31M26 42h15M46 44h10M26 45h11M43 45h14M26 46h8M36 46h2M42 46h3M47 46h10M26 47h7M34 47h2M37 47h1M42 47h2M45 47h2M48 47h9M26 48h6M35 48h2M42 48h1M46 48h2M49 48h8M26 49h6M35 49h2M42 49h1M46 49h2M49 49h8M26 50h6M33 50h4M42 50h1M44 50h4M49 50h8M27 51h5M33 51h3M42 51h1M44 51h3M49 51h8M27 52h5M33 52h2M42 52h1M44 52h2M49 52h8M27 53h5M42 53h1M49 53h8M27 54h6M37 54h1M42 54h2M48 54h9M27 55h7M36 55h2M42 55h3M47 55h9M27 56h11M42 56h14M27 57h11M42 57h14M27 58h11M42 58h14M27 59h11M42 59h14M27 60h11M42 60h14M28 61h10M42 61h14M29 62h8M43 62h12M44 63h11M28 65h9M29 66h7M46 66h9M29 67h7M46 67h9M29 68h7M45 68h10M29 69h8M44 69h11M30 70h25M30 71h25M30 72h25M31 73h23M32 74h22M34 75h19M40 76h9" />
<path stroke="#101010" d="M46 19h1M46 20h1M47 22h1M47 23h1M48 25h1M48 26h1M50 27h6M59 28h4M63 29h2M65 30h2M67 31h1M45 33h1M68 33h1M32 34h1M35 34h1M49 34h1M61 34h1M61 35h1M40 36h1M61 36h1M69 36h1M41 37h1M61 37h1M69 37h1M42 38h1M69 38h1M69 39h1M69 40h1M69 41h1M42 42h14M25 43h34M25 44h19M56 44h5M68 44h1M39 45h3M58 45h3M68 45h1M39 46h3M60 46h1M68 46h1M39 47h3M60 47h1M68 47h1M39 48h3M60 48h1M68 48h1M39 49h3M60 49h1M68 49h1M39 50h3M60 50h1M68 50h1M39 51h3M60 51h1M68 51h1M39 52h3M60 52h1M39 53h3M60 53h1M39 54h3M60 54h1M67 54h1M39 55h3M67 55h1M39 56h3M67 56h1M39 57h3M67 57h1M39 58h3M67 58h1M39 59h3M67 59h1M39 60h3M67 60h1M39 61h3M67 61h1M38 62h4M28 63h15M28 64h28M66 64h1M37 65h21M66 65h1M37 66h8M57 66h1M66 66h1M38 67h7M66 67h1M39 68h5M65 70h1M65 71h1M65 72h1M65 73h1M65 74h1M64 75h1M32 76h1M64 76h1M34 77h3M62 77h2M38 78h24" />
<path stroke="#ffffff" d="M33 31h1M47 31h2M32 32h1M34 32h1M46 32h1M49 32h1M32 33h1M35 33h1M49 33h1M45 34h1M32 35h1M35 35h1M45 35h1M48 35h2M33 36h1M35 36h1M45 36h1M48 36h1M34 37h1M46 37h2" />
<path stroke="#9483de" d="M33 32h1M48 32h1M46 33h1M47 36h1" />
<path stroke="#6a39ac" d="M47 32h1M33 33h2M47 33h2M33 34h2M46 34h3M33 35h2M46 35h2M34 36h1M46 36h1" />
<path stroke="#bdbdbd" d="M32 36h1M49 36h1M33 37h1M35 37h1M45 37h1M48 37h1" />
<path stroke="#4a4a52" d="M37 51h1M48 51h1M37 52h1M48 52h1M37 53h1M48 53h1M36 54h1M47 54h1M34 55h2M45 55h2" />
</svg>