<svg xmlns="http://www.w3.org/2000/svg" viewBox="0 -0.5 96 96" shape-rendering="crispEdges">
<metadata>Made with Pixels to Svg https://codepen.io/shshaw/pen/XbxvNj</metadata>
<path stroke="#9cac73" d="M31 5h3M39 5h4M29 6h2M37 6h2M27 7h2M35 7h2M25 8h2M33 8h2M21 11h3M29 11h1M18 12h4M27 12h1M16 13h4M24 13h1M16 14h2M9 15h1M15 15h1M23 15h1M10 16h2M14 16h1M11 17h3M22 17h1M11 18h3M15 18h1M20 18h2M12 19h1M16 19h1M16 20h1M22 20h1M17 21h1M63 21h2M21 22h1M62 22h1M21 23h1M61 23h1M21 24h1M60 24h1M59 25h1M12 26h1M19 26h1M58 26h1M18 27h1M28 27h2M57 27h1M18 28h1M28 28h1M72 28h3M12 29h2M18 29h1M29 29h1M56 29h1M70 29h2M13 30h1M29 30h1M68 30h2M13 31h1M30 31h1M55 31h1M66 31h2M30 32h1M64 32h2M52 33h1M63 33h1M31 34h1M52 34h1M59 34h1M61 34h2M32 35h1M52 35h1M61 35h1M32 36h2M51 36h2M60 36h1M33 37h2M48 37h1M51 37h1M59 37h1M33 38h5M47 38h1M51 38h1M55 38h1M58 38h1M34 39h4M47 39h1M50 39h1M54 39h1M57 39h1M71 39h5M18 40h1M35 40h1M47 40h1M50 40h1M56 40h1M66 40h5M18 41h2M38 41h1M45 41h2M50 41h1M55 41h1M64 41h2M18 42h3M36 42h1M44 42h3M49 42h1M54 42h1M62 42h2M19 43h3M34 43h1M44 43h1M46 43h1M49 43h1M52 43h2M61 43h1M19 44h2M33 44h1M44 44h1M46 44h1M49 44h1M52 44h1M60 44h1M19 45h2M31 45h1M36 45h1M45 45h7M53 45h1M59 45h1M19 46h1M25 46h1M34 46h2M37 46h1M46 46h4M57 46h2M24 47h5M32 47h2M45 47h1M55 47h2M24 48h4M30 48h2M47 48h1M57 48h1M18 49h1M23 49h7M33 49h1M58 49h1M17 50h1M22 50h4M32 50h1M23 51h2M31 51h1M30 52h1M28 53h2M24 54h2M22 57h1M27 57h1M22 58h3M27 58h3M23 59h7M24 60h6M26 61h4M25 62h1M28 62h3M26 63h2M29 63h3M27 64h2M30 64h3M28 65h2M31 65h3M29 66h2M32 66h2M30 67h2M19 70h1M66 70h1M35 71h1M60 71h1M68 71h1M18 72h2M35 72h1M46 72h1M60 72h1M19 73h1M38 73h1M49 73h1M58 73h1M66 73h2M69 73h1M17 74h1M19 74h3M23 74h1M34 74h1M38 74h1M47 74h1M49 74h1M58 74h1M66 74h1M68 74h1M23 75h1M34 75h1M36 75h1M58 75h1M63 75h1M23 76h1M34 76h1M36 76h1M39 76h1M46 76h1M59 76h1M63 76h1M68 76h1M33 77h2M36 77h1M39 77h1M48 77h1M64 77h1M13 78h1M18 78h1M33 78h1M35 78h2M39 78h1M42 78h1M64 78h1M11 79h1M15 79h1M32 79h2M35 79h2M38 79h1M40 79h1M64 79h1M67 79h1M12 80h1M34 80h3M38 80h1M67 80h1M34 81h1M59 81h1M65 81h1M69 81h1M10 82h1M13 82h1M17 82h1M43 82h1M60 82h1M65 82h1M40 83h1M58 83h1M62 83h1M68 83h1M16 84h1M38 84h1M41 84h1M46 84h1M68 84h1M46 85h1M39 87h1M47 87h1M42 88h1M47 88h1" />
<path stroke="#bdcdac" d="M31 6h2M29 7h2M27 8h3M35 8h1M25 9h3M35 9h1M23 10h4M31 10h1M33 10h2M24 11h1M30 11h4M28 12h4M25 13h5M24 14h5M24 15h3M23 16h3M18 17h1M23 17h3M22 18h3M19 19h5M19 20h3M16 21h1M19 21h3M11 22h1M14 22h2M19 22h2M11 23h3M19 23h2M12 24h1M18 24h3M17 25h4M11 26h1M13 26h3M17 26h2M30 26h3M17 27h1M30 27h3M17 28h1M29 28h2M51 28h1M56 28h2M17 29h1M51 29h1M17 30h1M50 30h2M55 30h2M50 31h2M31 32h1M34 32h2M50 32h2M31 33h6M50 33h1M54 33h1M56 33h1M32 34h3M49 34h2M55 34h1M57 34h1M33 35h1M49 35h2M53 35h2M56 35h1M58 35h1M60 35h1M49 36h1M53 36h5M59 36h1M61 36h1M37 37h3M46 37h1M49 37h1M52 37h5M58 37h1M60 37h1M62 37h1M38 38h1M48 38h2M52 38h3M57 38h1M59 38h1M61 38h1M63 38h1M45 39h1M48 39h1M51 39h3M56 39h1M58 39h3M62 39h2M66 39h1M44 40h1M46 40h1M48 40h1M51 40h3M55 40h1M57 40h6M64 40h2M47 41h2M51 41h2M54 41h1M56 41h5M63 41h1M41 42h1M47 42h1M50 42h2M53 42h1M55 42h4M61 42h1M64 42h3M39 43h2M47 43h1M50 43h1M54 43h4M59 43h2M62 43h7M38 44h2M47 44h1M54 44h2M58 44h2M61 44h8M37 45h2M52 45h1M56 45h3M60 45h6M36 46h1M50 46h7M59 46h4M34 47h2M52 47h3M32 48h3M46 48h1M53 48h4M30 49h3M57 49h1M26 50h6M58 50h1M25 51h6M24 52h6M24 53h4M26 54h4M23 55h3M27 55h5M23 56h4M28 56h6M23 57h4M25 58h2M69 70h1M19 71h1M66 71h1M69 71h1M66 72h1M68 72h2M18 73h1M46 73h1M60 73h1M68 73h1M18 74h1M22 74h1M48 74h1M59 74h2M67 74h1M17 75h6M38 75h1M47 75h3M59 75h2M67 75h1M12 76h1M18 76h5M38 76h1M48 76h2M60 76h1M67 76h1M12 77h1M16 77h1M18 77h1M60 77h1M63 77h1M67 77h2M11 78h1M17 78h1M60 78h1M63 78h1M67 78h2M16 79h2M60 79h1M63 79h1M68 79h1M13 80h1M16 80h2M60 80h1M63 80h2M68 80h1M13 81h1M16 81h2M39 81h1M60 81h1M63 81h2M68 81h1M15 82h2M47 82h1M59 82h1M63 82h2M68 82h2M12 83h1M15 83h2M43 83h1M47 83h1M59 83h1M63 83h2M69 83h1M13 84h3M43 84h1M47 84h1M58 84h1M62 84h2M69 84h1M41 85h1M43 85h1M47 85h1M62 85h1M69 85h1M41 86h1M43 86h1M46 86h2M43 87h1M46 87h1M46 88h1M46 89h1M46 90h1" />
<path stroke="#73734a" d="M33 6h1M42 6h1M31 7h2M40 7h2M30 8h1M38 8h2M23 9h2M28 9h1M36 9h2M21 10h2M18 11h3M16 12h2M32 12h1M15 13h1M30 13h1M8 14h2M13 14h1M8 15h1M10 15h2M13 15h1M9 16h1M12 16h2M26 16h2M10 17h1M14 17h1M65 21h1M66 22h1M66 23h1M32 24h4M16 25h1M30 25h2M64 25h1M10 26h1M16 26h1M28 26h2M10 27h1M51 27h2M63 27h1M11 28h1M50 28h1M52 28h1M75 28h1M11 29h1M50 29h1M62 29h1M75 29h1M12 30h1M16 30h1M30 30h1M36 30h3M49 30h1M74 30h1M12 31h1M17 31h1M31 31h1M34 31h2M49 31h1M73 31h1M13 32h1M17 32h1M32 32h2M49 32h1M54 32h1M73 32h1M49 33h1M51 33h1M53 33h1M60 33h1M48 34h1M51 34h1M53 34h1M48 35h1M51 35h1M59 35h1M34 36h1M37 36h3M46 36h3M50 36h1M58 36h1M35 37h2M45 37h1M47 37h1M50 37h1M57 37h1M43 38h1M50 38h1M56 38h1M66 38h2M18 39h1M41 39h2M49 39h1M55 39h1M64 39h2M67 39h2M17 40h1M19 40h1M38 40h3M49 40h1M54 40h1M63 40h1M76 40h1M17 41h1M37 41h1M43 41h1M49 41h1M53 41h1M61 41h2M74 41h1M17 42h1M43 42h1M48 42h1M52 42h1M59 42h2M72 42h1M18 43h1M43 43h1M45 43h1M48 43h1M51 43h1M58 43h1M18 44h1M21 44h2M43 44h1M45 44h1M48 44h1M50 44h2M53 44h1M56 44h2M18 45h1M21 45h1M44 45h1M54 45h2M66 45h1M18 46h1M20 46h1M63 46h1M19 47h2M57 47h4M19 48h1M22 51h1M23 52h1M30 54h2M22 55h1M26 55h1M27 56h1M28 57h2M20 58h2M30 58h3M22 59h1M23 60h1M30 60h1M24 61h2M30 61h1M26 62h2M28 63h1M29 64h1M27 65h1M30 65h1M28 66h1M31 66h1M32 67h1M13 71h1M13 72h1M57 72h1M13 73h1M35 73h1M57 73h1M12 74h1M57 74h1M12 75h1M57 75h1M11 76h1M13 76h1M58 76h1M11 77h1M13 77h1M59 77h1M10 78h1M12 78h1M59 78h1M10 79h1M12 79h1M59 79h1M9 80h1M11 80h1M14 80h1M59 80h1M62 80h1M9 81h1M11 81h1M14 81h1M58 81h1M62 81h1M8 82h1M11 82h1M37 82h1M58 82h1M62 82h1M8 83h1M10 83h1M13 83h1M17 83h1M57 83h1M61 83h1M10 84h1M57 84h1M61 84h1M57 85h2M61 85h1M37 86h1M61 86h2M36 87h1M36 88h1M39 88h1M36 89h1M39 89h1M39 90h1" />
<path stroke="#eeffe6" d="M39 6h3M37 7h3M36 8h2M33 9h2M32 10h1M14 15h1M15 16h2M15 17h3M16 18h4M17 19h2M17 20h2M63 22h3M62 23h4M61 24h4M12 25h1M32 25h3M60 25h4M33 26h1M59 26h5M58 27h5M58 28h5M57 29h5M72 29h3M57 30h5M70 30h4M36 31h3M56 31h5M68 31h5M36 32h2M55 32h6M66 32h7M55 33h1M57 33h3M64 33h8M54 34h1M56 34h1M58 34h1M63 34h8M55 35h1M57 35h1M62 35h8M62 36h7M61 37h1M63 37h5M60 38h1M62 38h1M64 38h2M43 39h2M61 39h1M41 40h3M71 40h5M39 41h4M66 41h8M37 42h4M67 42h5M35 43h4M69 43h2M34 44h4M22 45h3M32 45h4M21 46h4M30 46h4M21 47h3M29 47h3M46 47h6M20 48h4M28 48h2M43 48h3M19 49h4M18 50h4M18 52h2M30 57h5M46 74h1M46 75h1M17 76h1M47 76h1M17 77h1M47 77h1M16 78h1M47 78h1M13 79h1M42 79h1M47 79h1M10 80h1M15 80h1M40 80h1M42 80h1M47 80h1M10 81h1M12 81h1M15 81h1M40 81h1M42 81h1M47 81h1M9 82h1M12 82h1M14 82h1M39 82h2M42 82h1M11 83h1M14 83h1M39 83h1M42 83h1M39 84h1M42 84h1M38 85h2M42 85h1M38 86h2M42 86h1M37 87h2M41 87h2M37 88h1M40 88h2M40 89h1" />
<path stroke="#101010" d="M29 9h2M38 9h3M27 10h2M41 10h1M25 11h2M40 11h1M22 12h3M39 12h1M20 13h2M39 13h1M14 14h2M18 14h2M38 14h1M16 15h2M37 15h1M36 16h1M35 17h1M10 18h1M14 18h1M34 18h1M11 19h1M13 19h1M32 19h2M12 20h1M31 20h1M11 21h1M29 21h2M16 22h1M18 22h1M28 22h1M14 23h2M18 23h1M27 23h1M14 24h1M16 24h2M26 24h1M65 24h1M21 25h1M26 25h1M35 25h1M20 26h1M26 26h1M34 26h1M64 26h1M11 27h1M19 27h1M33 27h1M12 28h2M19 28h1M31 28h2M63 28h1M14 29h3M19 29h1M30 29h1M52 29h1M18 30h1M39 30h1M52 30h1M62 30h1M18 31h1M39 31h1M52 31h1M61 31h1M19 32h1M38 32h1M52 32h1M61 32h1M19 33h1M37 33h1M72 33h1M20 34h1M35 34h2M60 34h1M71 34h1M20 35h1M34 35h1M70 35h1M40 36h1M69 36h1M40 37h1M68 37h1M39 38h1M44 38h3M38 39h1M46 39h1M36 40h2M45 40h1M20 41h1M44 41h1M75 41h1M21 42h1M42 42h1M73 42h1M22 43h1M41 43h1M71 43h1M40 44h1M69 44h2M39 45h1M67 45h2M64 46h2M61 47h2M59 49h2M59 50h1M61 50h3M17 51h1M58 51h2M64 51h5M75 51h3M16 52h1M60 52h1M69 52h6M16 53h1M23 53h1M60 53h1M83 53h1M16 54h1M23 54h1M61 54h1M82 54h1M17 55h1M32 55h2M61 55h1M81 55h1M17 56h1M22 56h1M34 56h1M62 56h1M81 56h1M18 57h1M20 57h2M35 57h1M63 57h1M79 57h2M19 58h1M33 58h3M43 58h1M63 58h1M78 58h1M19 59h3M43 59h1M64 59h1M76 59h2M18 60h1M22 60h1M44 60h1M65 60h1M74 60h2M18 61h1M23 61h1M44 61h1M65 61h1M71 61h3M17 62h1M24 62h1M45 62h1M66 62h1M69 62h2M17 63h1M25 63h1M45 63h1M67 63h2M16 64h1M26 64h1M46 64h6M54 64h1M67 64h1M15 65h1M46 65h3M52 65h4M68 65h1M15 66h1M27 66h1M34 66h1M47 66h1M55 66h1M68 66h1M14 67h1M26 67h1M28 67h2M33 67h1M35 67h1M47 67h1M56 67h1M69 67h1M14 68h1M25 68h1M29 68h4M36 68h1M48 68h1M57 68h1M69 68h1M14 69h1M24 69h1M35 69h2M48 69h1M57 69h1M69 69h1M14 70h1M24 70h1M35 70h1M37 70h1M48 70h1M58 70h1M70 70h1M14 71h1M23 71h1M34 71h1M37 71h1M48 71h1M58 71h1M70 71h1M14 72h1M23 72h1M34 72h1M38 72h1M48 72h2M58 72h1M70 72h1M23 73h1M34 73h1M37 73h1M48 73h1M50 73h1M70 73h1M24 74h1M33 74h1M37 74h1M50 74h1M69 74h2M24 75h1M33 75h1M37 75h1M50 75h1M70 75h1M24 76h1M33 76h1M35 76h1M37 76h1M50 76h1M71 76h1M23 77h1M32 77h1M35 77h1M38 77h1M49 77h1M71 77h1M22 78h1M32 78h1M34 78h1M38 78h1M49 78h1M71 78h1M22 79h1M31 79h1M34 79h1M39 79h1M49 79h1M71 79h1M22 80h1M31 80h3M39 80h1M49 80h1M71 80h1M22 81h1M33 81h1M35 81h4M49 81h1M71 81h1M21 82h2M33 82h2M38 82h1M49 82h1M71 82h1M9 83h1M18 83h3M38 83h1M49 83h1M60 83h1M65 83h3M70 83h1M11 84h2M17 84h1M37 84h1M49 84h1M59 84h1M64 84h1M70 84h1M13 85h4M37 85h1M40 85h1M49 85h1M63 85h1M68 85h1M70 85h1M40 86h1M45 86h1M49 86h1M69 86h1M40 87h1M45 87h1M48 87h1M43 88h3M48 88h1M41 89h2M45 89h1M47 89h1M40 90h1M45 90h1M47 90h1M46 91h1" />
<path stroke="#086a7b" d="M31 9h2M29 10h1M35 10h1M27 11h1M34 11h1M25 12h1M33 12h1M23 13h1M31 13h1M23 14h1M29 14h1M22 15h1M27 15h2M17 16h2M22 16h1M19 17h3M26 17h1M25 18h1M15 19h1M24 19h1M15 20h1M23 20h1M12 21h1M14 21h2M22 21h1M12 22h2M22 22h1M22 23h1M11 24h1M13 24h1M22 24h1M10 25h2M14 25h1M21 26h2M27 26h1M12 27h5M20 27h3M27 27h1M14 28h3M20 28h4M27 28h1M20 29h4M28 29h1M19 30h5M28 30h1M19 31h5M29 31h1M20 32h4M29 32h1M20 33h3M30 33h1M30 34h1M31 35h1M21 36h1M31 36h1M21 37h1M32 37h1M21 38h1M32 38h1M22 39h1M33 39h1M22 40h1M34 40h1M22 41h1M35 41h2M23 42h1M23 43h1M23 44h1M25 45h1M40 45h2M26 46h1M42 46h4M36 47h1M35 48h1M48 48h5M34 49h1M42 49h4M53 49h4M33 50h1M57 50h1M60 50h1M81 50h1M32 51h1M60 51h4M78 51h2M58 52h2M61 52h8M75 52h4M58 53h2M61 53h18M58 54h3M62 54h16M57 55h4M62 55h15M79 55h2M56 56h6M64 56h11M78 56h3M43 57h1M46 57h1M50 57h4M57 57h6M67 57h6M76 57h3M45 58h1M49 58h6M57 58h6M64 58h2M74 58h4M44 59h1M47 59h9M58 59h6M65 59h11M19 60h1M46 60h11M59 60h6M66 60h8M19 61h1M21 61h2M45 61h13M59 61h6M66 61h5M18 62h1M21 62h3M31 62h1M46 62h12M60 62h6M67 62h2M18 63h1M20 63h5M32 63h1M46 63h13M61 63h6M17 64h1M20 64h6M33 64h1M52 64h2M55 64h5M62 64h5M16 65h2M19 65h8M34 65h1M56 65h4M63 65h5M16 66h1M19 66h8M56 66h4M64 66h4M15 67h1M18 67h8M57 67h4M64 67h5M19 68h6M58 68h3M64 68h5M20 69h4M58 69h4M64 69h5M21 70h3M36 70h1M59 70h4M64 70h2M67 70h2M21 71h2M36 71h1M38 71h1M59 71h1M61 71h5M67 71h1M22 72h1M36 72h2M59 72h1M61 72h5M67 72h1M14 73h1M36 73h1M45 73h1M47 73h1M59 73h1M61 73h5M13 74h1M35 74h2M45 74h1M61 74h5M13 75h1M35 75h1M39 75h1M45 75h1M61 75h2M64 75h3M68 75h2M45 76h1M61 76h2M64 76h3M69 76h2M14 77h1M19 77h1M22 77h1M37 77h1M40 77h1M46 77h1M61 77h2M65 77h2M69 77h2M14 78h2M37 78h1M40 78h1M46 78h1M48 78h1M61 78h2M65 78h2M69 78h2M14 79h1M37 79h1M41 79h1M43 79h1M46 79h1M48 79h1M61 79h2M65 79h2M69 79h2M37 80h1M43 80h1M46 80h1M48 80h1M61 80h1M65 80h2M69 80h2M43 81h1M46 81h1M48 81h1M61 81h1M66 81h2M70 81h1M46 82h1M48 82h1M61 82h1M66 82h2M70 82h1M44 83h1M46 83h1M48 83h1M40 84h1M44 84h1M48 84h1M67 84h1M44 85h1M48 85h1M44 86h1M48 86h1M44 87h1M38 88h1M37 89h1" />
<path stroke="#08949c" d="M30 10h1M36 10h2M28 11h1M35 11h1M26 12h1M34 12h1M32 13h2M38 13h1M22 14h1M30 14h3M36 14h2M20 15h2M29 15h1M34 15h3M19 16h3M32 16h4M30 17h5M30 18h4M29 19h3M27 20h4M18 21h1M26 21h3M26 22h2M25 23h2M15 24h1M25 24h1M13 25h1M15 25h1M25 25h1M25 26h1M25 27h2M25 28h2M26 29h1M26 30h1M24 31h1M26 31h1M24 32h1M23 33h2M21 34h3M21 35h3M22 36h2M22 37h2M22 38h3M23 39h2M23 40h2M23 41h3M24 42h2M35 42h1M24 43h3M24 44h3M26 45h3M30 45h1M27 46h3M38 46h2M41 46h1M85 46h2M37 47h2M43 47h2M84 47h1M86 47h1M36 48h2M42 48h1M58 48h1M83 48h1M86 48h1M35 49h2M46 49h2M81 49h2M86 49h1M34 50h2M53 50h4M78 50h3M85 50h1M33 51h2M53 51h5M31 52h4M54 52h4M84 52h1M30 53h4M54 53h4M32 54h2M39 54h2M55 54h3M34 55h1M41 55h1M48 55h1M56 55h1M35 56h1M42 56h1M45 56h3M42 57h1M44 57h2M44 58h1M30 59h5M31 60h3M31 61h3M32 62h2M44 62h1M33 63h1M45 64h1M35 66h1M15 68h1M18 68h1M47 68h1M15 69h1M18 69h2M37 69h1M47 69h1M15 70h1M18 70h1M20 70h1M38 70h1M46 70h2M15 71h1M17 71h2M20 71h1M39 71h1M44 71h4M15 72h3M20 72h2M39 72h2M44 72h2M47 72h1M15 73h3M20 73h3M39 73h3M43 73h2M14 74h3M39 74h3M43 74h2M14 75h3M40 75h5M14 76h3M40 76h5M15 77h1M20 77h2M41 77h5M19 78h3M41 78h1M43 78h3M18 79h4M44 79h2M18 80h4M41 80h1M44 80h2M18 81h4M41 81h1M44 81h2M18 82h3M41 82h1M44 82h2M41 83h1M45 83h1M45 84h1M45 85h1" />
<path stroke="#73bd9c" d="M38 10h1M36 11h1M35 12h1M34 13h1M37 13h1M21 14h1M35 14h1M19 15h1M30 15h1M33 15h1M28 16h1M31 16h1M29 18h1M27 19h2M14 20h1M13 21h1M25 22h1M22 25h1M23 27h1M25 29h1M24 30h1M26 32h1M25 33h1M27 34h1M26 35h1M27 38h1M30 38h1M28 40h1M29 41h1M49 49h1M85 49h1M50 50h1M52 50h1M82 50h1M50 51h1M80 51h1M84 51h1M50 52h1M53 52h1M79 52h1M83 52h1M50 53h1M79 53h1M82 53h1M49 54h1M54 54h1M78 54h1M80 54h2M35 55h1M37 55h1M55 55h1M77 55h1M48 56h1M63 56h1M75 56h1M77 56h1M36 57h1M47 57h1M54 57h1M56 57h1M66 57h1M73 57h1M75 57h1M48 58h1M55 58h1M66 58h1M73 58h1M38 59h1M46 59h1M56 59h1M21 60h1M37 60h1M45 60h1M58 60h1M39 61h1M20 62h1M38 62h1M58 62h1M60 63h1M19 64h1M40 64h1M39 65h1M60 65h1M18 66h1M60 66h1M63 66h1M16 67h1M40 67h1M42 68h1M61 68h1M62 69h1M17 70h1M43 70h1M63 70h1M16 71h1M41 71h1M41 72h1M43 72h1M42 74h1" />
<path stroke="#9cf694" d="M39 10h2M37 11h3M36 12h3M22 13h1M35 13h2M20 14h1M33 14h2M18 15h1M31 15h2M29 16h2M27 17h3M26 18h3M14 19h1M25 19h2M13 20h1M24 20h3M23 21h3M23 22h2M23 23h2M23 24h2M23 25h2M23 26h2M24 27h1M24 28h1M24 29h1M25 30h1M25 31h1M25 32h1M26 33h1M26 34h1M27 35h1M27 36h1M27 37h2M28 38h2M28 39h3M29 40h2M30 41h1M85 47h1M84 48h2M50 49h2M83 49h2M51 50h1M83 50h2M51 51h2M81 51h3M17 52h1M20 52h1M51 52h2M80 52h3M18 53h2M51 53h3M80 53h2M50 54h4M79 54h1M36 55h1M49 55h6M78 55h1M36 56h2M49 56h7M76 56h1M37 57h1M48 57h2M55 57h1M64 57h2M74 57h1M37 58h1M46 58h2M56 58h1M67 58h6M37 59h1M45 59h1M57 59h1M20 60h1M38 60h1M57 60h1M20 61h1M38 61h1M58 61h1M19 62h1M39 62h1M59 62h1M19 63h1M39 63h1M59 63h1M18 64h1M39 64h1M60 64h2M18 65h1M40 65h1M61 65h2M17 66h1M40 66h1M61 66h2M17 67h1M41 67h1M61 67h3M16 68h2M41 68h1M62 68h2M16 69h2M41 69h2M63 69h1M16 70h1M41 70h2M42 71h2M42 72h1M42 73h1" />
<path stroke="#f65241" d="M17 22h1M16 23h2" />
<path stroke="#18cdcd" d="M27 29h1M27 30h1M27 31h2M27 32h2M27 33h3M24 34h2M28 34h2M24 35h2M28 35h3M24 36h3M28 36h3M24 37h3M29 37h3M25 38h2M31 38h1M25 39h3M31 39h2M25 40h3M31 40h3M26 41h3M31 41h4M26 42h9M27 43h7M27 44h6M29 45h1M40 46h1M39 47h4M38 48h4M37 49h5M48 49h1M52 49h1M36 50h2M39 50h1M41 50h9M35 51h2M38 51h1M40 51h10M35 52h3M39 52h1M41 52h9M34 53h16M34 54h5M41 54h8M38 55h3M42 55h6M38 56h4M43 56h2M38 57h4M36 58h1M38 58h5M35 59h2M39 59h4M34 60h3M39 60h5M34 61h4M40 61h4M34 62h4M40 62h4M34 63h5M40 63h5M34 64h5M41 64h4M35 65h4M41 65h5M36 66h4M41 66h6M36 67h4M42 67h5M37 68h4M43 68h4M38 69h3M43 69h4M39 70h2M44 70h2M40 71h1" />
<path stroke="#5ae6f6" d="M38 50h1M40 50h1M37 51h1M39 51h1M38 52h1M40 52h1" />
<path stroke="#4183ff" d="M18 51h4M21 52h2M17 53h1M20 53h3M17 54h6M18 55h4M18 56h4M19 57h1" />
</svg>