<svg xmlns="http://www.w3.org/2000/svg" viewBox="0 -0.5 96 96" shape-rendering="crispEdges">
<metadata>Made with Pixels to Svg https://codepen.io/shshaw/pen/XbxvNj</metadata>
<path stroke="#31417b" d="M63 13h5M61 14h2M69 14h1M60 15h1M70 15h1M15 16h2M59 16h1M71 16h1M14 17h1M17 17h1M58 17h1M14 18h1M18 18h1M57 18h1M72 18h1M14 19h1M19 19h1M56 19h1M72 19h1M14 20h1M20 20h1M56 20h1M72 20h1M14 21h1M20 21h1M55 21h1M15 22h1M21 22h1M54 22h1M15 23h1M22 23h1M54 23h1M15 24h1M22 24h1M53 24h1M16 25h1M23 25h1M53 25h1M71 25h1M16 26h1M52 26h1M17 27h1M24 27h1M52 27h1M17 28h1M25 28h1M51 28h1M18 29h1M51 29h1M70 29h1M18 30h1M26 30h1M50 30h1M70 30h1M19 31h1M27 31h1M38 31h1M50 31h1M19 32h1M38 32h1M50 32h1M69 32h1M20 33h1M28 33h1M38 33h1M20 34h1M29 34h1M36 34h1M38 34h1M21 35h1M38 35h1M49 35h1M68 35h1M21 36h1M30 36h1M38 36h1M68 36h1M22 37h1M28 37h1M38 37h1M68 37h1M23 38h1M35 38h1M38 38h1M68 38h1M23 39h1M29 39h1M35 39h1M38 39h1M68 39h1M39 40h1M45 40h2M68 40h1M30 41h1M39 41h1M44 41h1M69 41h1M26 42h1M29 42h1M31 42h1M39 42h1M43 42h1M69 42h1M26 43h1M31 43h2M39 43h1M43 43h1M69 43h1M27 44h1M32 44h1M40 44h1M42 44h1M45 44h1M70 44h1M27 45h1M30 45h1M33 45h1M40 45h1M42 45h1M70 45h1M27 46h1M33 46h1M41 46h1M71 46h1M28 47h1M34 47h1M40 47h1M44 47h1M71 47h1M28 48h1M34 48h1M71 48h1M42 50h3M29 51h1M41 51h1M45 51h2M54 51h10M70 51h1M32 52h1M40 52h1M47 52h1M52 52h2M65 52h2M31 53h1M33 53h2M50 53h2M67 53h2M31 54h1M33 54h1M69 54h1M31 55h1M40 55h2M45 55h2M70 55h1M32 56h1M41 56h1M45 56h1M71 56h1M33 57h2M36 57h1M43 57h1M48 57h1M71 57h1M33 58h1M36 58h1M38 58h1M42 58h1M71 58h1M32 59h1M39 59h2M70 59h1M31 61h1M68 63h1M32 64h1M69 64h1M65 65h1M70 65h1M63 66h2M71 66h1M35 67h1M38 67h1M67 67h1M71 67h1M38 68h1M34 69h1" />
<path stroke="#6283c5" d="M63 14h3M68 14h1M61 15h2M60 16h1M69 16h2M15 17h2M59 17h1M67 17h2M71 17h1M16 18h2M58 18h2M65 18h1M17 19h2M57 19h2M64 19h1M15 20h1M18 20h2M57 20h1M63 20h1M16 21h1M19 21h1M56 21h2M62 21h1M17 22h1M19 22h2M55 22h2M61 22h1M68 22h4M18 23h1M20 23h2M55 23h2M60 23h1M65 23h3M18 24h1M21 24h1M54 24h2M59 24h1M63 24h2M19 25h1M21 25h2M54 25h1M59 25h1M61 25h2M19 26h1M22 26h2M53 26h2M58 26h1M60 26h1M20 27h1M23 27h1M53 27h1M58 27h2M20 28h1M23 28h2M52 28h2M57 28h2M21 29h1M24 29h2M52 29h1M57 29h1M19 30h3M24 30h2M51 30h2M56 30h1M22 31h1M25 31h2M51 31h2M56 31h1M23 32h1M25 32h3M51 32h1M55 32h1M23 33h1M26 33h2M50 33h2M55 33h1M24 34h1M27 34h2M50 34h2M55 34h1M68 34h1M22 35h1M24 35h1M27 35h3M50 35h1M54 35h1M66 35h2M23 36h1M25 36h1M28 36h2M49 36h2M54 36h1M64 36h1M24 37h2M29 37h2M49 37h2M54 37h1M62 37h1M25 38h2M29 38h3M49 38h2M53 38h1M61 38h1M24 39h1M26 39h2M30 39h2M48 39h2M53 39h1M60 39h1M66 39h2M27 40h1M30 40h3M35 40h1M48 40h2M53 40h1M59 40h1M64 40h2M26 41h1M28 41h1M31 41h2M47 41h3M53 41h1M58 41h1M62 41h2M27 42h1M30 42h1M32 42h1M47 42h2M52 42h1M57 42h1M61 42h1M28 43h1M33 43h1M47 43h2M52 43h1M56 43h1M60 43h1M33 44h1M46 44h3M52 44h1M56 44h1M59 44h1M34 45h1M46 45h3M52 45h1M55 45h1M58 45h1M34 46h1M40 46h1M46 46h2M51 46h1M54 46h1M57 46h1M62 46h6M46 47h2M51 47h1M54 47h1M56 47h1M59 47h3M68 47h2M45 48h3M51 48h1M53 48h1M56 48h3M70 48h1M34 49h1M45 49h3M51 49h1M53 49h1M55 49h2M41 50h1M45 50h3M50 50h1M53 50h1M55 50h1M40 51h1M47 51h1M50 51h1M52 51h1M50 52h1M64 52h1M47 53h1M52 53h1M48 54h1M55 54h6M48 55h1M51 55h4M61 55h3M47 56h2M64 56h3M40 57h2M53 57h6M67 57h2M35 58h1M40 58h1M59 58h3M69 58h2M35 59h1M62 59h3M32 60h1M35 60h1M54 60h2M65 60h2M35 61h1M56 61h2M67 61h1M34 62h1M37 62h1M58 62h1M34 63h1M37 63h1M59 63h2M34 64h1M61 64h1M34 65h1M38 65h1M62 65h1M34 66h1M39 66h1M37 67h1" />
<path stroke="#83a4e6" d="M66 14h2M63 15h1M61 16h1M60 17h1M66 18h1M58 20h1M57 22h1M55 25h1M58 25h1M54 27h1M57 27h1M53 29h1M21 31h1M22 32h1M37 32h1M52 32h1M37 33h1M37 34h1M36 35h1M51 35h1M36 36h1M65 36h1M36 37h1M51 37h2M63 37h1M36 38h1M51 38h2M54 38h1M36 39h1M50 39h3M54 39h2M36 40h1M38 40h1M50 40h3M54 40h3M35 41h1M38 41h1M50 41h3M54 41h3M35 42h1M38 42h1M44 42h1M49 42h3M53 42h4M30 43h1M35 43h1M38 43h1M45 43h1M49 43h3M53 43h3M57 43h2M30 44h2M35 44h1M38 44h2M49 44h3M53 44h3M57 44h2M31 45h2M35 45h1M38 45h2M44 45h1M49 45h3M53 45h2M56 45h2M31 46h2M35 46h1M39 46h1M44 46h1M48 46h3M52 46h2M55 46h2M58 46h2M31 47h3M35 47h1M39 47h1M41 47h1M43 47h1M48 47h3M52 47h2M55 47h1M57 47h2M32 48h2M35 48h1M39 48h5M48 48h3M52 48h1M54 48h2M59 48h1M32 49h2M35 49h1M39 49h5M48 49h3M52 49h1M54 49h1M57 49h3M33 50h4M39 50h2M48 50h2M51 50h2M54 50h1M56 50h4M33 51h4M39 51h1M48 51h2M51 51h1M53 51h1M34 52h4M39 52h1M48 52h2M51 52h1M54 52h10M35 53h5M49 53h1M53 53h12M35 54h5M47 54h1M51 54h4M61 54h2M36 55h4M47 55h1M55 55h6M37 56h4M38 57h2M42 57h1M34 58h1M39 58h1M33 59h2M33 60h2M32 61h2M32 62h1M32 63h1M37 64h2M66 65h1" />
<path stroke="#b4deff" d="M64 15h6M62 16h7M61 17h6M69 17h2M60 18h5M67 18h5M59 19h5M65 19h7M59 20h4M64 20h8M58 21h4M63 21h9M58 22h3M62 22h6M57 23h3M61 23h4M68 23h4M56 24h3M60 24h3M65 24h7M56 25h2M60 25h1M63 25h8M55 26h3M59 26h1M61 26h10M55 27h2M60 27h11M54 28h3M59 28h12M54 29h3M58 29h12M53 30h3M57 30h13M53 31h3M57 31h13M56 32h13M57 33h12M58 34h10M59 35h7M60 36h4M66 36h2M60 37h2M64 37h4M62 38h6M62 39h4M62 40h2M66 40h2M64 41h5M63 42h6M63 43h6M63 44h7M63 45h7M68 46h3M63 47h5M70 47h1M63 48h7M63 49h8M63 50h8M64 51h6M67 52h3M66 53h1M64 54h5M64 55h6M60 56h4M67 56h4M59 57h8M69 57h2M62 58h7M59 59h3M65 59h5M60 60h5M67 60h3M60 61h7M68 61h1M61 62h7M61 63h7M62 64h7M61 65h1M63 65h2M67 65h3M61 66h2M67 66h4M68 67h3M68 68h2" />
<path stroke="#9cbdff" d="M15 18h1M15 19h2M16 20h2M15 21h1M17 21h2M16 22h1M18 22h1M16 23h2M19 23h1M16 24h2M19 24h2M17 25h2M20 25h1M17 26h2M20 26h2M18 27h2M21 27h2M18 28h2M21 28h2M19 29h2M22 29h2M22 30h2M20 31h1M23 31h2M20 32h2M24 32h1M53 32h2M21 33h2M24 33h2M52 33h3M56 33h1M21 34h3M25 34h2M52 34h3M56 34h2M23 35h1M25 35h2M37 35h1M52 35h2M55 35h4M22 36h1M24 36h1M26 36h2M37 36h1M51 36h3M55 36h5M23 37h1M26 37h2M37 37h1M53 37h1M55 37h5M24 38h1M27 38h2M37 38h1M55 38h6M25 39h1M28 39h1M37 39h1M56 39h4M61 39h1M25 40h2M28 40h2M37 40h1M57 40h2M60 40h2M27 41h1M29 41h1M36 41h2M45 41h1M57 41h1M59 41h3M28 42h1M36 42h2M45 42h1M58 42h3M62 42h1M27 43h1M36 43h2M44 43h1M59 43h1M61 43h2M28 44h1M36 44h2M43 44h2M60 44h3M28 45h2M36 45h2M43 45h1M59 45h4M28 46h2M36 46h3M42 46h2M60 46h2M29 47h1M36 47h3M42 47h1M62 47h1M29 48h2M36 48h3M60 48h3M29 49h2M36 49h3M60 49h3M29 50h3M37 50h2M60 50h3M30 51h2M37 51h2M30 52h2M38 52h1M65 53h1M50 54h1M63 54h1M52 56h8M53 58h6M36 59h1M54 59h5M36 60h1M56 60h4M34 61h1M36 61h2M55 61h1M58 61h2M33 62h1M35 62h2M38 62h1M55 62h3M59 62h2M33 63h1M35 63h2M38 63h3M55 63h4M33 64h1M35 64h2M39 64h2M56 64h5M33 65h1M35 65h3M39 65h2M56 65h5M35 66h4M58 66h3M36 67h1M36 68h2M35 69h3M35 70h3" />
<path stroke="#101010" d="M72 21h1M72 22h1M72 23h1M72 24h1M24 26h1M71 26h1M71 27h1M71 28h1M26 29h1M37 31h1M70 31h1M28 32h1M36 32h1M36 33h1M49 33h1M69 33h1M49 34h1M69 34h1M30 35h1M35 35h1M35 36h1M48 36h1M31 37h1M35 37h1M48 37h1M32 38h1M48 38h1M32 39h1M47 39h1M24 40h1M33 40h1M47 40h1M25 41h1M33 41h1M46 41h1M33 42h2M46 42h1M29 43h1M34 43h1M46 43h1M29 44h1M34 44h1M45 45h1M30 46h1M45 46h1M30 47h1M45 47h1M31 48h1M44 48h1M28 49h1M31 49h1M44 49h1M71 49h1M28 50h1M32 50h1M71 50h1M32 51h1M29 52h1M33 52h1M44 52h1M46 52h1M70 52h1M30 53h1M40 53h1M42 53h3M46 53h1M48 53h1M69 53h1M34 54h1M40 54h1M42 54h3M46 54h1M49 54h1M34 55h2M49 55h1M36 56h1M42 56h3M49 56h1M35 57h1M37 57h1M37 58h1M43 58h1M45 58h1M37 59h1M43 59h2M47 59h1M37 60h2M40 60h2M43 60h1M46 60h1M48 60h1M70 60h1M39 61h5M45 61h1M47 61h1M69 61h1M31 62h1M39 62h1M43 62h4M68 62h1M31 63h1M41 63h2M49 63h1M41 64h2M49 64h1M32 65h1M41 65h1M43 65h1M46 65h1M33 66h1M40 66h1M43 66h1M46 66h1M51 66h1M55 66h3M66 66h1M34 67h1M39 67h1M55 67h1M58 67h5M35 68h1M44 68h1M48 68h1M50 68h1M55 68h1M67 68h1M70 68h1M38 69h1M45 69h1M47 69h2M55 69h1M68 69h2M34 70h1M38 70h1M46 70h1M50 70h1M52 70h1M55 70h1M35 71h3M47 71h1M49 71h1M52 71h1M49 72h1M54 72h1M51 73h3" />
<path stroke="#e6dee6" d="M42 51h2M42 52h2M32 53h1M32 54h1M34 56h1M41 58h1M38 59h1M41 59h1M39 60h1M42 60h1" />
<path stroke="#b4bdc5" d="M44 51h1M41 52h1M45 52h1M41 53h1M45 53h1M41 54h1M45 54h1M32 55h2M42 55h3M33 56h1M35 56h1" />
<path stroke="#624a39" d="M50 55h1M46 56h1M51 56h1M45 57h1M47 57h1M49 57h1M52 57h1M47 58h1M49 58h1M52 58h1M49 59h1M53 59h1M44 60h1M51 60h3M38 61h1M51 61h1M53 61h2M40 62h1M42 62h1M51 62h1M54 62h1M50 63h1M54 63h1M43 64h1M46 64h2M52 64h2M55 64h1M44 65h1M48 65h2M52 65h1M54 65h2M45 66h1M44 67h1M46 67h1M48 67h2M51 67h1M53 68h1M46 69h1M52 69h1M54 69h1M48 71h1M51 71h1M54 71h1M50 72h1" />
<path stroke="#a47b7b" d="M50 56h1M51 57h1M45 59h1M44 61h1M46 61h1M48 61h1M47 62h1M43 63h5M44 64h2M48 64h1M50 64h1M54 64h1M45 65h1M47 65h1M50 65h2M53 65h1M44 66h1M47 66h4M52 66h3M45 67h1M47 67h1M50 67h1M52 67h3M45 68h3M49 68h1M51 68h2M54 68h1M49 69h3M53 69h1M47 70h3M51 70h1M53 70h2M50 71h1M53 71h1M51 72h3" />
<path stroke="#e6cdac" d="M44 57h1M46 58h1M48 59h1" />
<path stroke="#c5a48b" d="M46 57h1M50 57h1M44 58h1M48 58h1M50 58h2M46 59h1M50 59h3M45 60h1M47 60h1M49 60h2M49 61h2M52 61h1M41 62h1M48 62h3M52 62h2M48 63h1M51 63h3M51 64h1" />
<path stroke="#ffffff" d="M42 59h1" />
</svg>