<svg xmlns="http://www.w3.org/2000/svg" viewBox="0 -0.5 96 96" shape-rendering="crispEdges">
<metadata>Made with Pixels to Svg https://codepen.io/shshaw/pen/XbxvNj</metadata>
<path stroke="#9c5a6a" d="M47 28h3M56 34h2M55 35h3M55 36h3M55 37h3M54 38h4M54 39h4M34 43h3M32 44h2M47 44h2M31 45h1M46 45h2M30 46h1M46 46h2M62 46h1M30 47h1M44 47h4M62 47h1M29 48h1M45 48h2M62 48h1M29 49h1M45 49h2M62 49h1M29 50h1M43 50h1M45 50h2M62 50h1M43 51h2M46 51h1M48 51h1M61 51h2M43 52h2M48 52h1M61 52h2M42 53h3M48 53h2M61 53h2M42 54h3M48 54h2M60 54h3M41 55h4M47 55h5M58 55h4M40 56h5M47 56h15M32 57h1M38 57h8M47 57h15M32 58h2M37 58h8M49 58h9M38 59h6M50 59h7M51 60h2" />
<path stroke="#523129" d="M50 28h3M45 29h2M53 29h2M44 30h2M55 30h1M56 31h1M57 32h1M42 33h1M57 33h1M42 34h1M58 34h1M58 35h1M58 36h1M58 37h1M58 38h1M58 39h1M41 40h1M53 40h6M51 41h2M59 41h2M50 42h1M61 42h1M37 43h3M49 43h1M52 43h1M58 43h2M61 43h1M40 44h2M49 44h1M53 44h1M56 44h2M62 44h1M42 45h1M48 45h1M62 45h1M43 46h1M48 46h1M63 46h1M31 47h1M38 47h1M43 47h1M48 47h1M63 47h1M32 48h1M37 48h1M44 48h1M47 48h1M63 48h1M33 49h1M36 49h1M44 49h1M47 49h1M63 49h1M44 50h1M47 50h1M29 51h1M29 52h1M46 52h1M46 53h1M47 54h1M30 56h1M45 56h1M31 57h1M30 58h2" />
<path stroke="#d59c6a" d="M47 29h6M46 30h8M44 31h10M45 32h3M49 32h4M46 33h2M49 33h3M53 41h6M51 42h9M50 43h2M53 43h5M60 43h1M34 44h6M50 44h2M54 44h2M59 44h3M32 45h9M51 45h1M53 45h4M58 45h3M31 46h11M53 46h4M58 46h1M32 47h6M39 47h3M30 48h2M33 48h4M38 48h4M31 49h1M34 49h2M38 49h3M33 50h4M38 50h1" />
<path stroke="#bd7352" d="M54 30h1M54 31h2M44 32h1M53 32h4M43 33h3M52 33h5M43 34h5M49 34h7M47 35h8M48 36h7M48 37h7M48 38h6M47 39h7M42 40h11M42 41h9M42 42h8M60 42h1M42 43h7M42 44h5M58 44h1M41 45h1M43 45h3M49 45h2M61 45h1M42 46h1M44 46h2M49 46h3M59 46h3M42 47h1M49 47h8M58 47h4M42 48h2M48 48h4M57 48h5M30 49h1M41 49h3M48 49h3M58 49h4M30 50h2M39 50h4M48 50h3M58 50h4M30 51h2M33 51h4M38 51h5M49 51h2M58 51h3M30 52h2M37 52h6M49 52h3M57 52h4M30 53h1M38 53h4M50 53h11M30 54h1M38 54h4M50 54h10M30 55h1M38 55h3M52 55h6M31 56h1M37 56h3M33 57h5" />
<path stroke="#101010" d="M43 31h1M43 32h1M48 33h1M48 34h1M40 37h1M47 37h1M42 39h4M41 41h1M41 42h1M41 43h1M52 45h1M52 46h1M57 46h1M57 47h1M32 50h1M37 50h1M57 50h1M63 50h1M32 51h1M37 51h1M45 51h1M47 51h1M63 51h1M45 52h1M47 52h1M52 52h4M63 52h1M29 53h1M45 53h1M47 53h1M63 53h1M29 54h1M37 54h1M45 54h2M63 54h1M29 55h1M45 55h2M62 55h1M32 56h4M46 56h1M62 56h1M65 56h3M30 57h1M46 57h1M62 57h1M64 57h1M68 57h1M48 58h1M62 58h2M69 58h1M49 59h1M63 59h1M69 59h1M56 60h1M63 60h1M70 60h2M38 61h1M43 61h1M56 61h1M72 61h1M74 61h1M38 62h1M44 62h1M56 62h1M64 62h1M67 62h1M72 62h1M75 62h1M38 63h1M44 63h1M63 63h1M68 63h1M39 64h1M69 64h1" />
<path stroke="#ffffff" d="M48 32h1M52 44h1M57 45h1M32 49h1M37 49h1" />
<path stroke="#08297b" d="M41 35h6M40 36h1M46 36h2M40 38h1M46 38h2M41 39h1M46 39h1M52 48h5M51 49h1M56 49h2M51 51h1M56 51h2M32 52h5M56 52h1M31 53h1M36 53h2M31 55h1M36 55h2M36 56h1" />
<path stroke="#3152a4" d="M41 36h1M41 37h1M45 37h2M41 38h5M51 50h1M56 50h1M52 51h4M31 54h1M34 54h3M32 55h4" />
<path stroke="#8394f6" d="M42 36h3M52 49h2M32 53h1" />
<path stroke="#5a6acd" d="M45 36h1M42 37h3M54 49h2M52 50h4M33 53h3M32 54h2" />
<path stroke="#5a5220" d="M28 57h2M65 57h1M27 58h1M34 58h3M45 58h3M58 58h4M31 59h3M37 59h1M44 59h1M57 59h1M62 59h1M25 60h2M31 60h1M38 60h6M50 60h1M53 60h3M69 60h1M24 61h1M30 61h1M51 61h2M64 61h1M69 61h1M51 62h1M65 62h2M51 63h1M62 63h1M60 64h2M69 65h1" />
<path stroke="#b4ac73" d="M66 57h1M65 58h3M30 59h1M47 59h2M60 59h2M65 59h2M29 60h2M37 60h1M44 60h1M48 60h2M60 60h2M28 61h2M35 61h2M39 61h4M48 61h3M53 61h3M59 61h2M25 62h4M32 62h4M39 62h3M45 62h4M53 62h2M57 62h3M73 62h2M24 63h6M32 63h4M40 63h1M45 63h2M57 63h2M65 63h2M70 63h5M25 64h4M30 64h2M37 64h1M51 64h3M65 64h2M71 64h1M73 64h1M27 65h1M29 65h1M31 65h8M46 65h12M70 65h1M72 65h1M28 66h1M30 66h1M33 66h6M40 66h1M42 66h1M45 66h1M47 66h8M56 66h1M58 66h1M33 67h5M41 67h1M43 67h1M45 67h1M47 67h5M53 67h1M55 67h1M57 67h1M59 67h1M34 68h3M46 68h1M48 68h3M52 68h1M54 68h1" />
<path stroke="#837b4a" d="M67 57h1M64 58h1M68 58h1M26 59h1M64 59h1M67 59h2M32 60h1M62 60h1M64 60h5M25 61h3M31 61h1M37 61h1M44 61h1M61 61h3M65 61h4M70 61h2M73 61h1M29 62h3M36 62h2M42 62h2M49 62h2M52 62h1M55 62h1M60 62h4M68 62h4M30 63h2M36 63h2M39 63h1M41 63h3M47 63h4M52 63h5M59 63h3M64 63h1M67 63h1M69 63h1M32 64h5M38 64h1M40 64h11M54 64h6M62 64h3M67 64h2M70 64h1M39 65h7M58 65h11M44 66h1M46 66h1M60 66h4M65 66h1M67 66h2M64 67h1M66 67h1M68 67h1M65 68h1" />
<path stroke="#e6e6b4" d="M28 58h2M27 59h3M34 59h3M45 59h2M58 59h2M27 60h2M33 60h4M45 60h3M57 60h3M32 61h3M45 61h3M57 61h2" />
</svg>