<svg xmlns="http://www.w3.org/2000/svg" viewBox="0 -0.5 96 96" shape-rendering="crispEdges">
<metadata>Made with Pixels to Svg https://codepen.io/shshaw/pen/XbxvNj</metadata>
<path stroke="#520820" d="M68 17h3M71 18h3M74 19h2M66 20h4M76 20h2M63 21h3M78 21h1M73 22h6M18 23h1M69 23h11M17 24h1M33 24h2M66 24h1M73 24h8M17 25h1M19 25h1M31 25h2M64 25h1M76 25h5M16 26h1M63 26h1M77 26h5M16 27h1M62 27h1M78 27h4M16 28h1M20 28h1M31 28h1M78 28h4M15 29h1M31 29h1M79 29h3M15 30h1M30 30h1M62 30h1M79 30h2M15 31h1M30 31h1M63 31h1M79 31h2M15 32h1M29 32h1M78 32h2M15 33h1M29 33h1M66 33h1M77 33h2M28 34h1M66 34h2M76 34h1M28 35h1M30 35h1M67 35h2M28 36h3M68 36h1M68 37h1M68 38h1M67 39h1M66 40h1M29 41h2M54 41h5M64 41h2M30 42h1M52 42h2M62 42h2M50 43h2M47 44h3M32 49h1M54 50h1M41 53h1M50 55h5M51 56h4M51 57h5M51 58h6M66 58h1M30 59h2M52 59h6M64 59h4M30 60h3M52 60h7M62 60h7M31 61h2M38 61h1M52 61h7M63 61h4M68 61h1M31 62h3M53 62h6M64 62h3M31 63h3M39 63h1M54 63h4M66 63h1M32 64h1M54 64h1M56 64h2M54 65h1" />
<path stroke="#291818" d="M68 18h1M69 19h1M70 20h1M62 22h1M64 23h2M62 24h2M67 24h6M61 25h1M65 25h2M73 25h3M29 26h2M60 26h1M76 26h1M22 27h4M27 27h2M60 27h1M77 27h1M26 28h1M59 28h1M77 28h1M32 29h1M59 29h1M78 29h1M59 30h1M78 30h1M60 31h1M78 31h1M61 32h2M77 32h1M63 33h2M76 33h1M65 34h1M75 34h1M66 35h1M15 36h1M36 36h1M67 36h1M15 37h1M67 37h1M14 38h1M35 38h1M67 38h1M32 39h1M66 39h1M28 40h4M64 40h2M62 41h2M35 42h2M59 42h3M37 43h3M62 43h1M40 44h4M44 45h4M25 49h1M32 50h1M32 51h1M54 51h1M31 52h1M54 52h1M31 53h1M54 53h1M31 54h1M54 54h1M31 55h1M49 55h1M31 56h1M50 56h1M32 57h1M50 57h1M29 58h1M32 58h1M50 58h1M29 59h1M32 59h1M51 59h1M29 60h1M33 60h1M51 60h1M59 60h1M30 61h1M33 61h1M39 61h3M51 61h1M59 61h1M30 62h1M34 62h1M41 62h1M52 62h1M59 62h1M30 63h1M34 63h1M40 63h1M53 63h1M58 63h1M31 64h1M34 64h1M38 64h2M53 64h1M58 64h1M32 65h1M34 65h1M38 65h1M53 65h1M70 65h1M34 66h1M53 66h1M57 66h1M53 67h1M52 68h1M56 68h1M52 69h1M51 70h1" />
<path stroke="#732031" d="M69 18h2M70 19h4M71 20h5M66 21h12M63 22h10M66 23h3M18 24h1M64 24h2M18 25h1M33 25h1M62 25h2M17 26h3M31 26h3M61 26h2M17 27h4M29 27h4M61 27h1M17 28h3M21 28h5M27 28h3M32 28h1M60 28h2M16 29h13M60 29h2M16 30h11M31 30h1M60 30h2M16 31h10M31 31h1M61 31h2M16 32h8M30 32h1M63 32h2M17 33h3M21 33h2M30 33h1M65 33h1M17 34h2M20 34h2M29 34h1M16 35h3M20 35h1M29 35h1M16 36h4M16 37h4M15 38h4M16 39h2M32 40h1M31 41h3M31 42h4M54 42h5M30 43h7M52 43h10M31 44h3M36 44h4M50 44h1M52 44h4M60 44h4M31 45h3M35 45h1M37 45h7M48 45h1M50 45h1M52 45h4M57 45h3M61 45h3M30 46h1M32 46h2M35 46h2M38 46h12M51 46h6M58 46h2M61 46h4M31 47h4M37 47h4M44 47h14M60 47h3M32 48h8M41 48h2M44 48h6M51 48h11M63 48h1M65 48h1M30 49h1M33 49h7M41 49h1M43 49h6M51 49h10M62 49h2M65 49h1M30 50h2M33 50h1M35 50h6M42 50h12M55 50h7M64 50h2M30 51h2M33 51h1M36 51h18M55 51h1M57 51h9M32 52h14M52 52h2M56 52h1M58 52h8M32 53h9M56 53h2M59 53h7M32 54h9M55 54h1M58 54h3M62 54h4M32 55h6M40 55h1M56 55h4M62 55h5M32 56h5M38 56h1M40 56h1M56 56h11M33 57h4M38 57h1M57 57h10M33 58h5M39 58h1M58 58h8M33 59h7M60 59h4M34 60h5M34 61h4M67 61h1M35 62h6M68 62h1M35 63h4M65 63h1M33 64h1M36 64h2M55 64h1M66 64h1M36 65h1M56 65h1M54 66h1" />
<path stroke="#101010" d="M79 22h1M80 23h1M19 24h1M81 24h1M20 25h1M34 25h1M81 25h1M20 26h1M34 26h1M64 26h1M82 26h1M21 27h1M33 27h1M63 27h1M82 27h1M33 28h1M62 28h1M82 28h1M62 29h1M82 29h1M32 30h1M63 30h1M81 30h1M32 31h1M64 31h1M81 31h1M31 32h1M65 32h2M80 32h1M31 33h1M36 33h2M67 33h1M79 33h1M30 34h1M37 34h1M68 34h1M77 34h2M31 35h1M36 35h1M69 35h1M75 35h2M34 36h2M69 36h1M23 37h1M31 37h2M37 37h1M69 37h1M29 38h2M36 38h1M69 38h1M14 39h1M33 39h2M68 39h1M14 40h1M33 40h1M67 40h1M15 41h1M34 41h1M66 41h1M16 42h2M21 42h3M64 42h2M18 43h3M63 43h1M64 44h1M64 45h1M65 46h1M65 47h1M66 48h1M66 49h1M24 50h1M66 50h1M24 51h1M66 51h1M25 52h1M66 52h1M25 53h1M66 53h1M26 54h1M41 54h1M66 54h1M27 55h1M41 55h1M55 55h1M67 55h1M28 56h1M41 56h1M55 56h1M67 56h1M29 57h1M40 57h1M56 57h1M67 57h1M30 58h2M40 58h1M57 58h1M67 58h1M40 59h1M58 59h2M68 59h1M39 60h1M60 60h2M69 60h1M62 61h1M69 61h1M63 62h1M70 62h1M63 63h1M70 63h1M64 64h1M70 64h1M58 65h1M64 65h1M38 66h1M64 66h1M69 66h1M38 67h1M57 67h1M69 67h1M38 68h1M69 68h1M37 69h1M56 69h1M68 69h1M37 70h1M55 70h1M68 70h1M37 71h1M54 71h1M68 71h1M36 72h1M53 72h1M67 72h1M36 73h1M52 73h1M67 73h1M35 74h1M49 74h3M67 74h1M35 75h1M66 75h1M30 76h1M34 76h3M61 76h1M66 76h1M30 77h1M33 77h1M61 77h1M65 77h1M31 78h2M62 78h3" />
<path stroke="#8b41ac" d="M30 28h1M29 29h1M27 30h2M26 31h1M24 32h2M23 33h1M15 34h1M22 34h1M26 34h1M15 35h1M21 35h1M20 36h1M27 36h1M20 37h1M27 37h1M19 38h1M21 38h1M26 38h1M15 39h1M24 39h1M16 40h1M17 41h1" />
<path stroke="#c562c5" d="M30 29h1M29 30h1M27 31h3M26 32h3M24 33h5M23 34h3M27 34h1M22 35h3M26 35h2M21 36h2M26 36h1M25 37h2M20 38h1M24 38h2M18 39h2M22 39h2M17 40h1" />
<path stroke="#94834a" d="M16 33h1M20 33h1M16 34h1M19 34h1M19 35h1M27 40h1M16 41h1M20 41h2M27 41h2M18 42h2M25 42h5M26 43h4M27 44h2M30 44h1M31 46h1M29 48h1M31 48h1M29 49h1M27 50h1M30 52h1M46 52h1M51 52h1M26 53h1M27 54h2M42 54h2M28 55h3M42 55h4M29 56h2M42 56h2M31 57h1M41 57h1M67 62h1M69 62h1M64 63h1M67 63h3M35 64h1M65 64h1M67 64h3M33 65h1M37 65h1M55 65h1M57 65h1M65 65h5M55 66h2M65 66h4M54 67h3M65 67h4M53 68h3M65 68h4M53 69h2M65 69h3M52 70h3M65 70h3M52 71h2M65 71h3M37 72h1M51 72h2M64 72h3M50 73h2M64 73h3M36 74h1M65 74h2M36 75h1M32 76h1M65 76h1M62 77h1M64 77h1" />
<path stroke="#736220" d="M34 34h2M32 35h2M34 37h1M31 38h1M27 49h1M55 69h1M51 71h1" />
<path stroke="#e6cd8b" d="M36 34h1M34 35h2M31 36h3M28 37h3M35 37h2M27 38h1M32 38h3M20 39h2M25 39h7M15 40h1M18 40h9M18 41h2M22 41h3M20 42h1M29 44h1M34 44h2M51 44h1M56 44h4M27 45h4M34 45h1M36 45h1M49 45h1M51 45h1M56 45h1M60 45h1M27 46h3M34 46h1M37 46h1M50 46h1M57 46h1M60 46h1M28 47h3M35 47h2M41 47h3M58 47h2M63 47h2M28 48h1M30 48h1M40 48h1M43 48h1M50 48h1M62 48h1M64 48h1M28 49h1M31 49h1M40 49h1M42 49h1M49 49h2M61 49h1M64 49h1M25 50h1M28 50h2M34 50h1M41 50h1M62 50h2M25 51h2M28 51h2M34 51h2M56 51h1M26 52h4M47 52h4M55 52h1M57 52h1M27 53h4M42 53h12M55 53h1M58 53h1M29 54h2M44 54h5M56 54h2M61 54h1M38 55h2M60 55h2M37 56h1M39 56h1M37 57h1M39 57h1M38 58h1M35 65h1M35 66h3M35 67h3M35 68h3M34 69h3M34 70h3M34 71h3M33 72h3M33 73h3M32 74h3M64 74h1M32 75h3M63 75h3M31 76h1M33 76h1M62 76h3M31 77h1" />
<path stroke="#ffffff" d="M25 35h1M23 36h1M21 37h2M22 38h1" />
<path stroke="#18625a" d="M24 36h1M24 37h1" />
<path stroke="#cdcdcd" d="M25 36h1" />
<path stroke="#4a4118" d="M33 37h1M28 38h1M25 41h2M24 42h1M25 43h1M26 44h1M26 45h1M26 46h1M27 47h1M27 48h1M24 49h1M26 50h1M27 51h1M49 54h5M46 55h3M44 56h2M30 57h1M42 57h2M41 58h1M33 66h1M33 67h2M64 67h1M34 68h1M64 68h1M33 69h1M38 69h1M64 69h1M33 70h1M38 70h1M64 70h1M33 71h1M38 71h1M50 71h1M64 71h1M32 72h1M38 72h1M50 72h1M63 72h1M32 73h1M37 73h1M49 73h1M63 73h1M31 74h1M37 74h1M63 74h1M31 75h1M37 75h1M62 75h1M32 77h1M63 77h1" />
<path stroke="#00c5ac" d="M23 38h1" />
</svg>