<svg xmlns="http://www.w3.org/2000/svg" viewBox="0 -0.5 96 96" shape-rendering="crispEdges">
<metadata>Made with Pixels to Svg https://codepen.io/shshaw/pen/XbxvNj</metadata>
<path stroke="#9c2918" d="M30 18h1M28 19h2M45 19h2M27 20h1M26 21h1M57 26h4M61 27h2M63 28h1M65 32h1M64 33h1M24 34h1M23 35h1M22 36h1M43 39h1M35 41h1M15 51h1M14 52h1M13 53h1M13 54h1M14 56h1M29 66h1M28 67h1M32 67h1" />
<path stroke="#000000" d="M31 18h2M39 20h2M38 21h1M51 24h1M36 25h1M49 25h1M51 25h1M53 25h1M36 26h1M47 26h2M51 26h1M54 26h2M33 27h1M36 27h1M51 27h1M56 27h1M31 28h1M51 28h1M57 28h1M26 29h1M51 29h1M58 29h1M60 29h4M30 30h1M38 30h1M50 30h1M64 30h2M50 31h1M66 31h1M39 32h1M41 32h1M48 32h2M67 32h1M45 33h3M67 33h1M68 34h1M52 35h1M68 35h1M52 36h1M68 36h1M70 36h1M26 37h1M51 37h1M55 37h1M68 37h1M71 37h2M27 38h1M44 38h2M50 38h1M56 38h1M67 38h1M73 38h1M28 39h1M41 39h2M49 39h1M57 39h2M65 39h2M75 39h1M29 40h1M36 40h4M47 40h2M59 40h6M76 40h1M23 41h1M27 41h2M31 41h4M44 41h3M70 41h1M77 41h1M24 42h3M32 42h1M35 42h4M41 42h3M67 42h1M71 42h1M77 42h1M32 43h1M65 43h2M72 43h1M77 43h1M24 44h1M31 44h1M63 44h2M72 44h1M24 45h1M31 45h1M59 45h3M23 46h1M31 46h1M69 46h1M23 47h1M29 47h1M68 47h1M27 48h1M67 48h1M78 48h1M26 49h1M79 49h1M26 50h1M25 51h1M80 51h1M25 52h1M65 52h1M80 52h1M65 53h1M80 53h1M22 54h1M69 54h1M79 54h1M13 55h1M22 55h1M26 55h1M30 55h1M70 55h1M79 55h1M13 56h1M22 56h1M26 56h1M30 56h1M61 56h1M71 56h2M78 56h1M13 57h1M21 57h1M26 57h1M61 57h1M73 57h4M78 57h1M21 58h1M25 58h1M31 58h1M61 58h1M64 58h1M66 58h1M77 58h1M14 59h1M20 59h1M25 59h1M31 59h1M62 59h2M67 59h1M77 59h1M11 60h3M32 60h1M68 60h1M76 60h1M10 61h1M24 61h1M32 61h1M67 61h1M71 61h3M76 61h1M10 62h1M14 62h3M24 62h1M33 62h1M70 62h1M73 62h1M77 62h1M10 63h1M16 63h1M19 63h1M22 63h1M34 63h1M65 63h1M70 63h1M72 63h1M77 63h1M11 64h2M15 64h1M18 64h1M22 64h1M27 64h1M35 64h1M65 64h1M69 64h1M72 64h1M76 64h1M15 65h1M18 65h1M23 65h1M27 65h1M30 65h2M36 65h2M66 65h3M71 65h1M73 65h3M15 66h1M19 66h1M24 66h3M32 66h1M38 66h2M70 66h1M16 67h1M19 67h1M33 67h1M41 67h4M70 67h1M16 68h3M28 68h1M33 68h1M70 68h1M28 69h1M33 69h1M41 69h2M58 69h1M66 69h1M70 69h1M32 70h1M39 70h2M44 70h3M59 70h1M67 70h1M70 70h1M29 71h1M37 71h2M48 71h9M60 71h1M67 71h1M69 71h1M29 72h1M36 72h1M60 72h1M67 72h1M69 72h1M29 73h1M35 73h1M61 73h1M66 73h1M69 73h1M35 74h1M61 74h1M64 74h2M68 74h1M31 75h1M39 75h1M62 75h1M68 75h1M30 76h1M36 76h1M39 76h1M67 76h1M25 77h1M30 77h1M34 77h1M37 77h2M62 77h2M66 77h2M26 78h3M30 78h1M34 78h1M68 78h3M31 79h3M64 79h2M71 79h1M59 80h1M63 80h1M66 80h1M71 80h1M59 81h1M63 81h1M66 81h1M71 81h1M60 82h3M67 82h4" />
<path stroke="#414141" d="M33 18h2M33 19h1M35 19h2M41 19h4M32 20h1M37 20h1M43 20h1M31 21h1M42 21h1M29 22h2M42 22h1M26 23h1M28 23h1M26 24h2M43 24h1M26 25h4M34 25h1M50 25h1M26 26h8M45 26h1M49 26h2M26 27h7M44 27h7M27 28h4M37 28h1M43 28h8M28 29h1M38 29h1M41 29h10M28 30h1M39 30h11M59 30h1M29 31h1M40 31h10M58 31h1M65 31h1M45 32h3M58 32h1M66 32h1M40 33h2M59 33h1M66 33h1M60 34h4M65 34h3M63 35h5M62 36h6M22 37h1M25 37h1M56 37h1M60 37h8M22 38h3M26 38h1M57 38h10M22 39h1M26 39h2M33 39h1M50 39h1M59 39h6M22 40h1M25 40h4M49 40h2M24 41h3M48 41h4M33 42h1M49 42h3M33 43h1M50 43h1M32 44h2M73 46h3M31 47h1M71 47h2M76 47h2M30 48h1M70 48h1M74 48h1M30 49h1M69 49h1M73 49h1M17 50h4M30 50h1M69 50h1M73 50h1M16 51h1M21 51h1M30 51h1M73 51h1M17 52h1M22 52h1M30 52h1M74 52h1M79 52h1M18 53h1M22 53h1M75 53h1M78 53h2M18 54h1M74 54h5M18 55h1M31 55h1M57 55h1M72 55h7M17 56h2M21 56h1M31 56h1M55 56h3M73 56h4M14 57h7M31 57h2M54 57h4M15 58h6M32 58h1M54 58h4M16 59h4M32 59h2M54 59h4M33 60h1M54 60h3M33 61h2M53 61h4M34 62h2M52 62h4M35 63h2M51 63h5M36 64h3M48 64h7M38 65h16M40 66h12M45 67h3" />
<path stroke="#ee8339" d="M30 19h3M28 20h4M44 20h3M27 21h4M43 21h6M28 22h1M43 22h7M44 23h6M44 24h6M46 25h3M60 30h4M59 31h6M59 32h6M60 33h4M24 35h1M48 35h1M24 36h2M48 36h2M23 37h2M47 37h3M46 38h3M44 39h3M40 40h4M34 45h2M49 45h1M33 46h6M47 46h4M33 47h18M33 48h19M75 48h3M33 49h19M74 49h4M32 50h20M74 50h5M32 51h21M74 51h5M15 52h2M32 52h21M76 52h2M14 53h4M32 53h21M14 54h4M32 54h22M14 55h3M32 55h22M15 56h1M33 56h21M33 57h20M34 58h17M36 59h11" />
<path stroke="#626262" d="M34 19h1M33 20h4M41 20h2M32 21h6M39 21h3M31 22h6M38 22h4M29 23h8M38 23h5M28 24h8M37 24h6M30 25h4M37 25h7M37 26h8M37 27h7M38 28h5M39 29h2M58 30h1M57 32h1M57 33h2M56 34h4M56 35h7M56 36h6M57 37h3M25 38h1M23 39h3M23 40h2M49 43h1M51 43h2M50 44h4M32 45h1M51 45h3M32 46h1M51 46h3M32 47h1M52 47h3M73 47h3M31 48h2M52 48h3M71 48h3M31 49h1M52 49h4M70 49h3M31 50h1M53 50h3M70 50h3M17 51h4M31 51h1M53 51h3M69 51h4M18 52h4M31 52h1M53 52h4M69 52h5M19 53h3M31 53h1M54 53h3M70 53h5M19 54h3M31 54h1M54 54h4M70 54h4M19 55h3M54 55h3M71 55h1M19 56h2M54 56h1M34 60h1M53 60h1M37 63h1M50 63h1M39 64h1M47 64h1" />
<path stroke="#292929" d="M47 20h2M49 21h1M26 22h1M37 22h1M50 22h1M25 23h1M27 23h1M37 23h1M50 23h1M25 24h1M36 24h1M50 24h1M25 25h1M35 25h1M44 25h1M25 26h1M34 26h1M46 26h1M25 27h1M26 28h1M32 28h1M27 29h1M29 29h2M37 29h1M59 29h1M39 31h1M57 31h1M42 32h3M56 32h1M56 33h1M65 33h1M55 34h1M64 34h1M55 35h1M55 36h1M79 50h1M79 51h1M78 52h1M30 53h1M69 53h1M76 53h2M30 54h1M77 56h1M14 58h1M15 59h1M16 60h4" />
<path stroke="#b46a20" d="M27 22h1M43 23h1M45 25h1M57 27h4M58 28h5M23 36h1M27 37h1M49 38h1M47 39h2M44 40h3M36 41h8M47 41h1M34 42h1M44 42h5M34 43h15M67 43h1M34 44h16M66 44h3M33 45h1M36 45h13M50 45h1M67 45h2M39 46h8M68 46h1M51 47h1M32 49h1M78 49h1M52 50h1M75 52h1M53 53h1M17 55h1M16 56h1M32 56h1M53 57h1M33 58h1M51 58h3M34 59h2M47 59h7M35 60h18M35 61h18M36 62h16M38 63h12M40 64h7M30 66h2M29 67h3M29 68h4M29 69h4M64 69h2M30 70h2M63 70h4M63 71h4M63 72h4M64 73h2" />
<path stroke="#183941" d="M52 25h1M34 28h1M34 29h1M26 30h1M25 31h1M25 32h1M25 33h1M25 34h1M52 34h1M25 35h1M69 35h1M26 36h1M47 36h1M46 37h1M28 38h1M30 38h1M40 39h1M74 39h1M35 40h1M51 40h1M30 41h1M68 41h2M23 42h1M39 42h2M72 42h1M23 43h1M68 43h1M65 44h1M69 44h1M73 44h1M77 44h1M57 45h2M62 45h1M66 45h1M69 45h1M71 45h1M78 45h1M67 46h1M70 46h1M78 46h1M30 47h1M79 47h1M22 48h1M28 48h1M79 48h1M20 49h2M66 49h1M66 50h1M65 51h1M68 51h1M68 52h1M25 53h1M26 54h1M63 54h4M62 55h1M65 57h2M68 59h1M24 60h1M71 60h1M73 60h1M66 61h1M21 62h1M32 62h1M65 62h1M13 63h1M20 63h1M25 63h2M32 63h1M31 64h1M70 64h1M70 65h1M57 67h1M38 68h3M57 68h1M64 68h2M40 69h1M43 69h1M63 69h1M29 70h1M47 70h1M57 70h2M62 70h1M30 71h2M62 71h1M62 72h1M36 73h2M63 73h1M26 74h3M30 74h1M38 74h1M25 75h1M30 75h1M33 75h1M61 75h1M25 76h1M29 76h1M34 76h2M60 76h1M62 76h2M29 77h1M60 77h1M60 78h2M59 79h1M63 79h1M67 80h1" />
<path stroke="#20a48b" d="M35 26h1M52 26h2M35 27h1M52 27h4M33 28h1M35 28h2M52 28h5M32 29h1M35 29h2M52 29h6M34 30h1M36 30h2M51 30h7M31 31h5M37 31h1M51 31h6M26 32h1M30 32h8M50 32h2M53 32h3M26 33h12M48 33h4M53 33h3M26 34h13M45 34h3M49 34h3M53 34h2M27 35h13M44 35h3M50 35h2M53 35h2M28 36h19M51 36h1M53 36h2M69 36h1M29 37h17M52 37h3M69 37h2M29 38h1M31 38h13M52 38h4M68 38h3M30 39h3M34 39h6M52 39h5M67 39h3M31 40h4M52 40h7M65 40h5M74 40h2M29 41h1M52 41h16M73 41h3M27 42h4M53 42h14M73 42h4M25 43h5M53 43h12M73 43h4M26 44h4M54 44h1M57 44h6M74 44h3M54 45h3M72 45h6M55 46h6M71 46h2M76 46h2M55 47h7M69 47h2M78 47h1M56 48h6M68 48h2M22 49h1M56 49h6M67 49h2M21 50h4M56 50h5M67 50h2M22 51h3M57 51h4M66 51h2M23 52h2M57 52h3M66 52h2M23 53h2M57 53h3M66 53h3M23 54h3M58 54h1M67 54h2M23 55h3M63 55h7M23 56h3M62 56h9M23 57h3M62 57h3M67 57h6M22 58h3M63 58h1M68 58h9M21 59h4M69 59h8M14 60h2M20 60h4M69 60h2M74 60h2M11 61h13M68 61h3M74 61h2M11 62h3M17 62h4M22 62h2M66 62h4M74 62h3M11 63h2M17 63h2M23 63h2M66 63h4M73 63h4M16 64h2M23 64h4M67 64h2M73 64h3M16 65h2M24 65h3M16 66h3M17 67h2M26 75h3M26 76h3M31 76h2M27 77h2M31 77h3M32 78h1M60 79h3M68 79h3M60 80h3M68 80h3M61 81h2M68 81h2" />
<path stroke="#18736a" d="M34 27h1M33 29h1M32 30h2M35 30h1M36 31h1M52 32h1M38 33h1M52 33h1M48 34h1M26 35h1M43 35h1M47 35h1M49 35h1M27 36h1M50 36h1M28 37h1M50 37h1M51 38h1M71 38h2M29 39h1M51 39h1M70 39h4M30 40h1M70 40h4M71 41h2M76 41h1M31 42h1M52 42h1M24 43h1M30 43h2M25 44h1M30 44h1M55 44h2M25 45h6M63 45h3M24 46h7M54 46h1M61 46h6M24 47h5M62 47h6M23 48h4M55 48h1M62 48h5M23 49h3M62 49h4M25 50h1M61 50h5M56 51h1M61 51h4M60 52h5M60 53h5M59 54h4M58 55h4M58 56h3M22 57h1M58 57h3M77 57h1M58 58h3M62 58h1M65 58h1M67 58h1M58 59h4M64 59h3M57 60h11M72 60h1M57 61h9M56 62h9M71 62h2M33 63h1M56 63h9M71 63h1M32 64h3M55 64h10M66 64h1M71 64h1M32 65h4M54 65h12M69 65h1M33 66h5M52 66h18M34 67h7M48 67h9M58 67h12M34 68h4M41 68h16M58 68h6M66 68h4M34 69h6M44 69h14M59 69h4M67 69h3M33 70h6M48 70h9M60 70h2M68 70h2M32 71h5M61 71h1M68 71h1M30 72h6M61 72h1M68 72h1M30 73h5M62 73h1M67 73h2M29 74h1M31 74h4M36 74h2M62 74h2M66 74h2M29 75h1M32 75h1M34 75h5M63 75h5M33 76h1M37 76h2M61 76h1M64 76h3M26 77h1M61 77h1M64 77h2M31 78h1M33 78h1M62 78h6M66 79h2M60 81h1M67 81h1M70 81h1" />
<path stroke="#835a18" d="M31 29h1M27 30h1M31 30h1M26 31h1M30 31h1M38 31h1M27 32h3M38 32h1M39 34h1M44 34h1M40 35h3" />
<path stroke="#c5c5c5" d="M29 30h1M40 32h1" />
<path stroke="#eec531" d="M27 31h2M39 33h1M42 33h3M40 34h4" />
</svg>