<svg xmlns="http://www.w3.org/2000/svg" viewBox="0 -0.5 96 96" shape-rendering="crispEdges">
<metadata>Made with Pixels to Svg https://codepen.io/shshaw/pen/XbxvNj</metadata>
<path stroke="#621010" d="M15 7h2M17 8h2M19 9h1M17 10h1M22 12h1M4 13h6M23 13h1M10 14h3M24 14h1M13 15h2M24 15h1M15 16h2M25 16h1M17 17h1M20 17h1M25 17h1M18 18h1M26 18h1M19 19h1M26 19h1M27 20h1M27 21h1M42 24h2M21 25h1M37 25h1M44 25h2M21 26h1M38 26h1M46 26h1M39 27h1M47 27h1M20 28h1M27 28h2M39 28h1M47 28h1M26 29h1M34 29h1M32 30h1M49 31h1M37 32h1M50 32h1M36 33h1M50 33h1M41 37h1M79 42h1M32 43h1M77 43h2M31 44h1M48 45h1M49 46h1M31 47h1M39 47h1M73 47h1M30 48h1M73 48h1M29 49h1M71 52h1M71 53h1M39 54h1M41 54h1M28 55h1M58 56h1M26 57h1M36 57h1M56 57h1M36 58h1M25 59h1M71 61h1M24 63h1M37 63h2M24 64h1M68 65h1M72 66h1M53 69h1M73 69h1M52 70h1M54 70h1M73 70h1M51 72h1M78 72h1M73 73h1M78 73h1M64 75h1M68 75h1M77 75h1M46 76h1M56 76h1M63 76h1M73 76h1M50 77h1M55 77h1M76 77h1M78 77h1M29 78h1M51 78h1M54 78h1M74 78h1M29 79h1M52 79h1M28 80h1M74 80h1M28 81h1M53 81h1M56 82h1M29 83h1M52 85h1M53 86h1M53 87h1" />
<path stroke="#000000" d="M15 8h1M16 9h1M17 11h1M18 13h1M4 14h1M6 15h1M19 15h1M8 16h1M19 16h1M10 17h1M11 18h1M20 18h1M12 19h1M20 19h1M13 20h1M20 20h1M14 21h1M21 21h1M15 22h1M21 22h1M15 23h1M21 23h1M16 24h1M22 24h1M17 25h1M22 25h1M35 25h2M17 26h1M22 26h1M23 27h1M27 27h3M18 28h1M23 28h1M25 28h2M30 28h1M18 29h1M24 29h1M30 29h1M48 29h1M19 30h1M30 30h2M48 30h1M19 31h1M48 31h1M48 32h1M35 33h1M47 33h1M38 34h2M47 34h1M29 35h1M32 35h1M37 35h1M46 35h1M29 36h1M32 36h1M44 36h2M51 36h1M23 37h1M36 37h1M39 37h2M42 37h2M51 37h1M23 38h1M31 38h2M36 38h1M38 38h1M41 38h1M51 38h1M24 39h1M33 39h1M36 39h2M51 39h1M24 40h1M34 40h1M40 40h1M51 40h1M25 41h2M29 41h1M32 41h1M34 41h1M39 41h1M29 42h2M33 42h2M38 42h1M50 42h1M34 43h1M37 43h1M50 43h1M34 44h1M37 44h1M39 44h2M49 44h1M79 44h1M29 45h2M33 45h1M37 45h2M47 45h1M78 45h1M92 45h1M28 46h1M33 46h1M45 46h2M77 46h1M91 46h1M28 47h3M33 47h1M49 47h1M77 47h1M90 47h1M31 48h2M37 48h2M49 48h1M76 48h1M89 48h1M32 49h1M36 49h1M49 49h1M76 49h1M89 49h1M27 50h2M31 50h1M49 50h1M75 50h1M88 50h1M26 51h1M31 51h1M35 51h1M37 51h2M48 51h1M75 51h1M88 51h1M25 52h1M30 52h1M35 52h2M38 52h1M48 52h1M67 52h3M75 52h1M87 52h1M25 53h1M27 53h2M30 53h1M47 53h1M70 53h1M87 53h1M26 54h1M29 54h1M40 54h1M46 54h1M71 54h1M73 54h2M78 54h2M87 54h1M29 55h1M42 55h4M72 55h1M80 55h1M86 55h1M28 56h1M48 56h1M61 56h4M71 56h1M81 56h1M86 56h1M28 57h1M48 57h3M86 57h1M27 58h1M48 58h1M51 58h1M53 58h7M67 58h2M86 58h1M23 59h1M27 59h1M35 59h2M47 59h1M52 59h1M60 59h2M69 59h1M85 59h1M22 60h1M26 60h1M34 60h1M47 60h1M52 60h1M55 60h2M62 60h2M70 60h1M76 60h2M85 60h1M22 61h1M26 61h1M46 61h1M53 61h1M57 61h1M64 61h1M78 61h2M85 61h1M21 62h1M24 62h1M26 62h1M33 62h1M45 62h1M53 62h1M58 62h1M65 62h1M71 62h1M75 62h1M80 62h2M85 62h1M21 63h1M23 63h1M25 63h1M33 63h1M35 63h2M43 63h2M53 63h1M66 63h1M72 63h1M75 63h1M82 63h3M21 64h2M25 64h1M33 64h2M38 64h5M53 64h1M59 64h1M67 64h1M72 64h1M75 64h1M25 65h1M40 65h1M53 65h1M25 66h1M40 66h1M53 66h1M60 66h1M68 66h1M73 66h1M25 67h1M40 67h1M53 67h1M60 67h1M68 67h1M73 67h2M25 68h1M40 68h1M53 68h1M60 68h1M68 68h1M25 69h1M40 69h1M54 69h1M60 69h1M68 69h1M74 69h1M25 70h1M40 70h1M55 70h2M60 70h1M68 70h1M75 70h1M26 71h1M57 71h1M68 71h1M76 71h3M26 72h1M41 72h1M58 72h1M68 72h1M79 72h1M26 73h1M51 73h1M58 73h1M79 73h1M27 74h1M42 74h1M50 74h1M58 74h1M67 74h1M79 74h1M27 75h1M43 75h1M50 75h1M58 75h1M66 75h1M72 75h1M79 75h1M28 76h1M44 76h1M49 76h1M57 76h1M62 76h1M66 76h1M71 76h1M79 76h1M29 77h1M44 77h1M48 77h2M57 77h1M63 77h1M66 77h1M68 77h3M79 77h1M30 78h1M44 78h1M47 78h1M50 78h1M57 78h1M63 78h1M65 78h1M73 78h1M79 78h1M31 79h2M44 79h3M50 79h1M57 79h1M63 79h1M65 79h1M73 79h1M78 79h1M33 80h2M51 80h1M57 80h1M63 80h2M73 80h1M78 80h1M33 81h1M35 81h3M51 81h1M57 81h1M73 81h1M78 81h1M27 82h1M32 82h1M38 82h6M51 82h1M57 82h1M73 82h1M77 82h1M26 83h1M31 83h1M51 83h1M56 83h1M73 83h1M77 83h1M25 84h1M29 84h2M51 84h1M56 84h1M72 84h1M76 84h1M25 85h4M50 85h1M55 85h1M72 85h4M50 86h1M55 86h1M49 87h1M54 87h1M49 88h4" />
<path stroke="#cd2900" d="M16 8h1M17 9h2M18 10h1M18 11h1M22 13h1M6 14h4M21 14h3M8 15h3M20 15h4M20 16h3M15 17h2M21 17h1M14 18h4M13 19h5M14 20h3M25 20h2M15 21h1M23 21h4M22 22h5M20 23h1M22 23h5M32 23h1M20 24h1M23 24h4M32 24h1M23 25h4M32 25h2M42 25h1M23 26h3M31 26h4M36 26h2M40 26h4M24 27h2M30 27h6M37 27h2M40 27h5M24 28h1M29 28h1M31 28h4M36 28h3M40 28h5M27 29h3M31 29h2M35 29h4M40 29h3M26 30h4M34 30h5M40 30h2M44 30h1M26 31h12M39 31h2M43 31h2M25 32h5M36 32h1M39 32h2M42 32h2M25 33h4M39 33h2M45 33h1M24 34h5M40 34h2M24 35h4M41 35h4M24 36h2M41 36h3M46 36h2M44 37h4M42 38h7M41 39h3M41 40h2M46 40h2M41 41h2M45 41h3M42 42h1M45 42h2M42 43h2M41 44h7M43 45h3M41 46h1M40 47h5M39 48h3M39 49h2M43 49h3M39 50h2M43 50h2M39 51h3M40 52h4M38 55h4M73 55h3M37 56h6M72 56h5M37 57h3M58 57h7M71 57h6M37 58h2M42 58h2M60 58h7M71 58h6M37 59h2M41 59h3M55 59h5M62 59h4M67 59h1M70 59h7M37 60h3M53 60h2M57 60h5M64 60h2M68 60h2M71 60h5M38 61h5M54 61h3M58 61h3M62 61h2M65 61h1M70 61h1M72 61h3M38 62h4M54 62h2M57 62h1M59 62h2M64 62h1M66 62h1M68 62h1M72 62h2M39 63h1M54 63h2M58 63h1M60 63h1M65 63h1M69 63h1M54 64h2M61 64h1M63 64h1M69 64h1M42 65h3M55 65h1M57 65h1M63 65h2M41 66h5M57 66h2M41 67h5M41 68h6M41 69h6M42 70h5M42 71h5M43 72h3M29 81h1M29 82h2M52 82h1M30 83h1M52 83h3M52 84h4M53 85h2M54 86h1" />
<path stroke="#10736a" d="M19 10h2M19 11h1M21 11h1M18 12h1M21 13h1M19 14h2M11 15h1M10 16h1M14 16h1M14 17h1M13 18h1M21 18h1M25 19h1M17 20h1M23 20h2M16 21h1M20 21h1M22 21h1M20 22h1M31 22h1M16 23h1M31 23h1M19 24h1M31 24h1M18 25h1M27 25h1M27 26h1M30 26h1M21 27h2M26 27h1M21 28h2M20 29h2M45 29h1M20 30h1M45 30h1M45 31h1M40 35h1M37 36h1M40 36h1M32 39h1M48 39h1M31 40h2M49 40h1M30 41h2M40 41h1M49 41h1M41 42h1M48 42h1M41 43h1M76 44h1M75 45h1M77 45h1M29 46h2M74 46h1M87 46h1M76 47h1M88 47h1M46 48h1M37 49h1M46 49h2M72 49h2M85 49h1M46 50h1M72 50h1M74 50h1M86 50h1M29 51h1M36 51h1M71 51h2M87 51h1M28 52h2M73 52h1M67 53h1M74 53h1M83 53h2M68 54h1M75 54h1M85 54h1M69 55h1M76 55h1M79 55h1M69 56h1M77 56h1M80 56h1M82 56h1M44 57h1M69 57h1M77 57h1M81 57h1M84 57h1M45 58h2M77 58h1M81 58h1M85 58h1M44 59h2M77 59h1M81 59h1M23 60h1M35 60h1M44 60h1M81 60h1M34 61h1M37 61h1M49 61h1M80 61h1M23 62h1M37 62h1M48 62h3M34 63h1M48 63h1M50 63h1M47 64h2M50 64h2M68 64h1M70 64h1M47 65h1M51 65h1M65 65h1M69 65h2M47 66h1M51 66h1M56 66h1M62 66h1M65 66h2M69 66h1M47 67h1M51 67h1M56 67h1M59 67h1M62 67h2M65 67h2M47 68h2M50 68h2M57 68h3M63 68h3M48 69h3M58 69h1M64 69h1M64 76h2M64 77h2M64 78h1M64 79h1" />
<path stroke="#39bdb4" d="M20 11h1M19 12h3M19 13h2M12 15h1M11 16h3M24 16h1M11 17h3M23 17h2M12 18h1M22 18h4M18 19h1M21 19h4M18 20h2M21 20h2M17 21h3M29 21h2M16 22h4M28 22h3M17 23h3M28 23h3M17 24h2M28 24h3M28 25h3M28 26h2M43 29h2M42 30h1M41 31h1M41 32h1M45 32h1M41 33h1M43 33h2M42 34h2M38 35h2M38 36h2M37 37h2M37 38h1M45 39h3M44 40h2M48 40h1M43 41h2M48 41h1M39 42h2M43 42h2M47 42h1M38 43h3M44 43h4M38 44h1M76 45h1M75 46h2M86 47h2M43 48h3M85 48h4M38 49h1M41 49h2M86 49h3M36 50h3M41 50h2M45 50h1M73 50h1M87 50h1M27 51h2M43 51h1M73 51h2M26 52h2M74 52h1M26 53h1M68 53h2M69 54h2M76 54h2M82 54h3M70 55h2M77 55h2M82 55h4M70 56h1M78 56h2M83 56h3M41 57h3M78 57h3M85 57h1M39 58h3M78 58h3M39 59h2M78 59h3M24 60h1M36 60h1M41 60h3M66 60h2M78 60h3M23 61h2M35 61h2M67 61h2M22 62h1M34 62h3M56 62h1M61 62h2M67 62h1M69 62h1M22 63h1M56 63h2M62 63h3M68 63h1M70 63h1M56 64h1M58 64h1M62 64h1M64 64h2M56 65h1M59 65h1M62 65h1M59 66h1" />
<path stroke="#9c0000" d="M5 14h1M7 15h1M9 16h1M27 23h1M21 24h1M27 24h1M19 25h2M31 25h1M41 25h1M43 25h1M18 26h3M26 26h1M44 26h2M19 27h2M45 27h2M19 28h1M45 28h2M19 29h1M33 29h1M46 29h2M33 30h1M47 30h1M47 31h1M30 32h1M35 32h1M46 32h2M49 32h1M29 33h1M38 33h1M46 33h1M48 33h2M46 34h1M48 34h3M28 35h1M45 35h1M47 35h4M26 36h1M48 36h3M48 37h3M49 38h2M49 39h2M33 40h1M50 40h1M33 41h1M50 41h1M49 42h1M33 43h1M48 43h2M79 43h1M32 44h2M48 44h1M77 44h2M31 45h2M42 45h1M46 45h1M89 45h3M31 46h2M40 46h1M47 46h2M88 46h3M32 47h1M45 47h4M74 47h2M89 47h1M47 48h2M74 48h2M30 49h2M48 49h1M74 49h2M29 50h2M47 50h2M84 50h2M30 51h1M46 51h2M84 51h3M39 52h1M44 52h4M72 52h1M83 52h4M29 53h1M40 53h7M72 53h2M85 53h2M38 54h1M42 54h4M65 54h3M72 54h1M86 54h1M37 55h1M46 55h2M64 55h5M27 56h1M36 56h1M43 56h5M65 56h4M27 57h1M46 57h2M67 57h2M82 57h2M26 58h1M44 58h1M47 58h1M49 58h2M70 58h1M82 58h3M26 59h1M46 59h1M48 59h4M68 59h1M82 59h3M25 60h1M45 60h2M48 60h4M82 60h3M25 61h1M43 61h3M47 61h2M50 61h3M81 61h4M25 62h1M42 62h3M46 62h2M51 62h2M82 62h3M40 63h3M45 63h2M52 63h1M67 63h1M71 63h1M73 63h1M43 64h4M49 64h1M52 64h1M60 64h1M66 64h1M71 64h1M41 65h1M45 65h2M49 65h1M52 65h1M54 65h1M61 65h1M66 65h1M71 65h1M46 66h1M48 66h3M52 66h1M54 66h2M61 66h1M63 66h2M67 66h1M71 66h1M46 67h1M48 67h3M52 67h1M54 67h2M57 67h2M61 67h1M64 67h1M67 67h1M69 67h4M49 68h1M52 68h1M54 68h2M61 68h1M67 68h1M69 68h4M47 69h1M51 69h1M55 69h2M61 69h2M66 69h2M69 69h4M41 70h1M47 70h5M53 70h1M57 70h3M61 70h7M69 70h4M74 70h1M47 71h10M58 71h2M61 71h7M69 71h7M42 72h1M46 72h5M52 72h6M60 72h8M69 72h9M43 73h8M52 73h6M60 73h7M68 73h5M74 73h4M43 74h7M51 74h7M61 74h6M68 74h5M74 74h4M44 75h6M51 75h7M62 75h2M69 75h3M73 75h4M47 76h2M50 76h6M69 76h2M74 76h3M45 77h3M51 77h4M75 77h1M45 78h2M52 78h2M78 78h1M30 79h1M56 79h1M77 79h1M29 80h4M55 80h2M76 80h2M30 81h3M54 81h3M74 81h4M28 82h1M31 82h1M53 82h3M74 82h3M55 83h1M76 83h1" />
<path stroke="#83735a" d="M23 16h1M22 17h1M43 30h1M42 31h1M44 32h1M42 33h1M44 34h2M44 39h1M43 40h1M42 48h1M42 51h1M40 57h1M66 59h1M40 60h1M61 61h1M66 61h1M69 61h1M63 62h1M70 62h1M61 63h1M57 64h1M58 65h1" />
<path stroke="#4a0000" d="M29 20h2M28 21h1M31 21h1M27 22h1M32 22h1M33 23h1M33 24h1M34 25h1M35 26h1M18 27h1M36 27h1M35 28h1M22 29h2M25 29h1M39 29h1M21 30h1M25 30h1M39 30h1M20 31h1M25 31h1M38 31h1M24 32h1M38 32h1M24 33h1M37 33h1M23 34h1M37 34h1M51 34h1M23 35h1M51 35h1M23 36h1M31 39h1M40 39h1M30 40h1M51 41h1M32 42h1M80 42h1M31 43h1M80 43h1M30 44h1M89 44h4M40 45h2M87 45h2M39 46h1M42 46h3M86 46h1M38 47h1M85 47h1M29 48h1M84 48h1M28 49h1M84 49h1M83 50h1M83 51h1M82 52h1M39 53h1M65 53h2M75 53h3M82 53h1M28 54h1M47 54h1M64 54h1M81 54h1M27 55h1M48 55h1M63 55h1M81 55h1M26 56h1M59 56h2M57 57h1M65 57h2M70 57h1M25 58h1M69 58h1M24 59h1M53 59h2M75 61h1M74 62h1M59 63h1M73 64h1M60 65h1M67 65h1M72 65h1M73 68h1M52 69h1M41 71h1M60 71h1M59 72h1M42 73h1M59 73h1M67 73h1M60 74h1M73 74h1M61 75h1M65 75h1M67 75h1M45 76h1M68 76h1M72 76h1M73 77h2" />
<path stroke="#202931" d="M37 24h5M31 32h4M30 33h1M29 34h1M32 34h2M35 34h1M31 35h1M35 35h1M27 36h2M30 36h1M34 36h1M24 37h3M31 37h3M29 38h2M27 39h2M26 40h1M75 65h1M74 66h1M67 76h1M60 77h3M58 78h2M49 80h2M46 81h3M44 82h2" />
<path stroke="#315239" d="M38 25h3M39 26h1M31 33h3M30 34h2M36 34h1M30 35h1M36 35h1M35 36h2M27 37h4M34 37h2M24 38h4M33 38h2M25 39h2M25 40h1M39 45h1M37 46h2M34 47h4M33 48h4M33 49h3M32 50h3M32 51h3M31 52h4M37 52h1M31 53h8M30 54h8M30 55h7M29 56h7M29 57h7M28 58h8M28 59h7M27 60h7M27 61h7M27 62h6M26 63h7M26 64h7M35 64h3M26 65h14M26 66h14M26 67h14M26 68h14M27 69h12M28 70h10M30 71h5M27 83h2M74 83h2M26 84h2M75 84h1M51 85h1M51 86h2M50 87h2" />
<path stroke="#523931" d="M46 30h1M46 31h1M44 51h2M45 57h1M47 63h1M49 63h1M51 63h1M48 65h1M50 65h1M70 66h1M56 68h1M62 68h1M66 68h1M57 69h1M59 69h1M63 69h1M65 69h1" />
<path stroke="#183118" d="M34 33h1M28 38h1M35 38h1M39 38h2M34 39h2M38 39h2M35 40h5M35 41h4M35 42h3M35 43h2M35 44h2M34 45h3M34 46h3M35 50h1M74 63h1M74 64h1M73 65h2M26 69h1M39 69h1M26 70h2M38 70h2M27 71h3M35 71h6M27 72h14M27 73h15M28 74h14M59 74h1M78 74h1M28 75h15M59 75h2M78 75h1M29 76h15M58 76h4M77 76h2M30 77h14M56 77h1M58 77h2M77 77h1M31 78h13M48 78h2M55 78h2M75 78h3M33 79h11M47 79h3M51 79h1M53 79h3M74 79h3M35 80h14M52 80h3M75 80h1M38 81h8M52 81h1M28 84h1M73 84h2M52 87h1" />
<path stroke="#73bd20" d="M34 34h1M33 35h2M31 36h1M33 36h1" />
</svg>