<svg xmlns="http://www.w3.org/2000/svg" viewBox="0 -0.5 96 96" shape-rendering="crispEdges">
<metadata>Made with Pixels to Svg https://codepen.io/shshaw/pen/XbxvNj</metadata>
<path stroke="#7b5220" d="M39 18h3M38 19h1M37 20h1M44 20h1M33 21h2M44 21h1M32 22h1M35 22h1M43 22h1M31 23h1M35 23h1M43 23h1M31 24h1M36 24h1M42 24h1M30 25h1M37 25h1M42 25h1M30 26h1M37 26h1M38 27h1M47 27h1M38 28h1M42 29h1M46 29h1M40 30h1M48 30h1M32 31h1M48 31h1M31 32h1M39 32h1M30 33h1M39 33h1M30 34h1M38 34h1M47 34h2M46 35h1M49 35h1M46 40h1M49 40h1M29 41h1M47 41h2M47 50h3M32 51h2M50 51h1M30 52h2M45 52h1M29 53h1M29 54h1M36 54h1M29 55h1M31 55h1M36 55h1M28 56h1M36 56h1M28 57h1M36 57h1M27 58h1M36 58h1M54 58h1M26 59h1M35 59h1M54 59h1M26 60h1M30 60h1M35 60h1M30 61h1M35 61h1M46 61h1M51 61h1M54 61h1M34 62h1M47 62h1M66 62h2M33 63h1M48 63h1M65 63h1M68 63h1M65 64h1M68 64h1M65 65h1M68 65h1M65 66h1M68 66h1M65 67h1M67 67h1M65 68h1M67 68h1M66 69h2" />
<path stroke="#ee836a" d="M39 19h3M38 20h2M33 22h2M33 23h1M32 24h2M31 25h2M31 26h1M66 63h2M66 64h2M67 65h1" />
<path stroke="#202020" d="M42 19h1M42 20h1M45 20h1M37 21h1M42 21h1M46 21h1M37 22h1M42 22h1M47 22h1M37 23h1M42 23h1M47 23h1M37 24h1M48 24h1M48 25h1M47 26h1M31 27h1M48 27h1M31 28h1M46 28h1M49 28h1M32 29h1M43 29h2M49 29h1M32 30h1M45 30h2M49 30h1M33 31h1M47 31h1M34 32h1M48 32h1M35 33h1M49 33h1M29 34h1M36 34h1M50 34h1M37 35h2M50 35h1M28 36h1M51 36h1M28 37h2M47 37h1M51 37h1M28 38h1M51 38h1M28 39h1M51 39h1M28 40h1M33 40h1M43 40h1M51 40h1M50 41h1M29 42h1M50 42h1M30 43h1M49 43h1M31 44h1M48 44h1M32 45h2M46 45h2M51 45h1M45 46h1M51 46h1M51 47h1M32 48h1M51 48h1M32 49h1M47 49h1M52 49h1M33 50h1M45 50h2M53 50h1M34 51h3M51 51h1M53 51h1M37 52h1M42 52h2M46 52h2M52 52h1M54 52h1M34 53h3M38 53h4M45 53h1M48 53h2M52 53h1M54 53h1M32 54h2M45 54h1M50 54h1M52 54h1M45 55h1M50 55h1M53 55h1M31 56h1M45 56h1M51 56h1M53 56h1M31 57h1M45 57h1M51 57h1M53 57h1M31 58h1M45 58h1M51 58h1M32 59h1M46 59h1M50 59h1M55 59h1M28 60h1M32 60h1M46 60h1M49 60h1M56 60h1M27 61h2M31 61h1M49 61h1M56 61h1M29 62h2M50 62h2M55 62h1M49 63h1M52 63h3M59 63h1M32 64h1M49 64h1M60 64h1M32 65h1M35 65h3M47 65h2M51 65h1M60 65h1M33 66h2M38 66h2M45 66h2M51 66h1M61 66h1M40 67h5M52 67h1M61 67h1M64 67h1M53 68h1M62 68h2M68 68h1M27 69h1M53 69h1M68 69h1M28 70h1M53 70h1M69 70h1M29 71h1M38 71h6M52 71h1M69 71h1M27 72h1M37 72h1M43 72h1M52 72h1M55 72h1M63 72h1M68 72h1M28 73h2M36 73h1M43 73h2M51 73h1M56 73h1M61 73h2M65 73h3M28 74h1M37 74h1M45 74h1M51 74h1M56 74h5M27 75h1M35 75h3M44 75h1M52 75h1M27 76h8M44 76h2M53 76h1M46 77h2M51 77h3M48 78h3" />
<path stroke="#de6220" d="M40 20h2M38 21h4M45 21h1M38 22h4M44 22h3M32 23h1M34 23h1M38 23h4M44 23h3M34 24h2M38 24h4M43 24h5M33 25h4M38 25h4M43 25h5M32 26h5M38 26h9M32 27h6M39 27h8M32 28h6M39 28h7M47 28h2M33 29h9M45 29h1M47 29h2M33 30h7M47 30h1M34 31h6M35 32h4M36 33h3M37 34h1M66 65h1M66 66h2M66 67h1M66 68h1" />
<path stroke="#c59c18" d="M41 30h1M44 30h1M40 31h1M46 31h1M49 34h1M34 35h1M41 35h1M31 36h1M45 36h1M50 36h1M31 37h1M35 37h1M40 37h1M45 37h1M50 37h1M31 38h1M42 38h1M45 38h1M50 38h1M31 39h1M45 39h1M50 39h1M50 40h1M30 41h1M49 41h1M30 42h2M45 42h5M31 43h3M41 43h8M32 44h16M34 45h1M37 45h4M44 45h2M38 46h1M45 51h5M32 52h5M44 52h1M48 52h2M33 53h1M37 53h1M43 53h2M50 53h1M31 54h1M37 54h1M43 54h2M37 55h1M43 55h2M37 56h1M43 56h1M28 59h1M43 60h1M43 61h1M37 62h1M52 62h1M54 62h1M36 64h1M44 64h1M44 65h1M46 65h1M44 66h1" />
<path stroke="#f6d518" d="M42 30h2M41 31h5M32 32h2M40 32h8M31 33h4M40 33h9M31 34h5M39 34h8M31 35h3M35 35h2M39 35h2M42 35h4M32 36h13M32 37h3M41 37h4M32 38h2M43 38h2M32 39h1M44 39h1M31 40h2M44 40h2M31 41h16M32 42h13M34 43h7M50 52h2M30 53h3M51 53h1M30 54h1M51 54h1M30 55h1M51 55h2M29 56h2M44 56h1M52 56h1M29 57h2M37 57h1M43 57h2M52 57h1M28 58h3M37 58h1M43 58h2M52 58h2M27 59h1M29 59h3M36 59h2M43 59h3M51 59h3M27 60h1M29 60h1M31 60h1M36 60h2M44 60h2M50 60h6M29 61h1M36 61h2M44 61h2M50 61h1M52 61h2M55 61h1M35 62h2M44 62h3M53 62h1M34 63h3M44 63h4M33 64h3M45 64h4M33 65h2M45 65h1" />
<path stroke="#4a4a4a" d="M29 35h2M47 35h2M29 36h1M47 36h3M36 37h4M34 38h1M41 38h1M33 39h1M43 39h1M34 40h2M40 40h3M42 53h1M38 54h5M38 55h5M38 56h3M38 58h3M41 59h2M37 63h6M37 64h1M43 64h1" />
<path stroke="#949494" d="M30 36h1M46 36h1M49 37h1M35 38h1M39 38h1M35 39h1M39 39h1M30 40h1" />
<path stroke="#ffffff" d="M30 37h1M46 37h1M48 37h1M29 38h2M37 38h2M46 38h4M29 39h1M34 39h1M36 39h3M40 39h2M47 39h2" />
<path stroke="#e6e6e6" d="M36 38h1M49 39h1M47 40h2" />
<path stroke="#bdbdbd" d="M40 38h1M30 39h1M42 39h1M46 39h1M29 40h1" />
<path stroke="#626262" d="M36 40h4M41 56h2M38 57h5M41 58h2M38 59h3M38 60h5M38 61h5M38 62h6M43 63h1M38 64h5M38 65h6M40 66h4" />
<path stroke="#417b39" d="M49 44h2M35 45h2M41 45h3M34 46h1M37 46h1M39 46h2M44 46h1M33 47h1M50 47h1M48 49h1M37 50h1M42 50h1M43 51h2M54 54h1M49 57h2M46 58h3M33 60h2M48 60h1M47 61h1M30 63h1M32 63h1M57 63h2M30 64h1M52 64h1M55 64h2M29 65h1M53 65h2M28 66h1M52 66h1M27 67h1M27 68h1M34 70h2M27 71h2M36 71h2M44 71h1M54 72h1M64 72h2M30 73h1M52 73h2M46 74h1" />
<path stroke="#62d539" d="M48 45h3M35 46h2M41 46h3M46 46h5M34 47h4M40 47h10M33 48h16M33 49h5M40 49h7M34 50h2M44 50h1M33 61h2M31 62h3M31 63h1M50 63h2M31 64h1M50 64h1M57 64h2M30 65h2M49 65h2M56 65h4M29 66h4M35 66h3M47 66h4M54 66h6M29 67h11M45 67h7M56 67h4M28 68h24M58 68h2M28 69h5M35 69h16M29 70h5M37 70h12M30 71h3M45 71h3" />
<path stroke="#52a439" d="M38 47h2M49 48h2M38 49h2M49 49h3M36 50h1M38 50h4M43 50h1M50 50h3M37 51h6M52 51h1M38 52h4M53 52h1M46 53h2M53 53h1M46 54h4M53 54h1M46 55h4M46 56h5M46 57h3M32 61h1M48 61h1M48 62h2M51 64h1M59 64h1M55 65h1M53 66h1M60 66h1M28 67h1M53 67h3M60 67h1M52 68h1M54 68h4M60 68h2M64 68h1M33 69h2M51 69h2M54 69h12M36 70h1M49 70h4M54 70h15M33 71h3M48 71h4M53 71h16M28 72h9M44 72h8M53 72h1M56 72h7M66 72h2M31 73h5M45 73h6M57 73h4M29 74h8M47 74h4M28 75h7M45 75h7M46 76h7M48 77h3" />
</svg>