<svg xmlns="http://www.w3.org/2000/svg" viewBox="0 -0.5 96 96" shape-rendering="crispEdges">
<metadata>Made with Pixels to Svg https://codepen.io/shshaw/pen/XbxvNj</metadata>
<path stroke="#6a5a52" d="M33 15h4M23 16h1M27 16h2M31 16h2M66 16h3M22 17h1M24 17h1M26 17h1M28 17h1M30 17h1M64 17h2M68 17h1M21 18h1M24 18h2M27 18h1M29 18h1M35 18h1M58 18h2M62 18h2M68 18h1M18 19h1M21 19h1M24 19h1M34 19h1M58 19h1M60 19h2M67 19h3M17 20h1M19 20h2M24 20h1M69 20h1M20 21h1M68 21h1M19 22h1M67 22h1M69 22h1M19 23h1M19 24h1M34 24h3M32 25h2M31 26h1M31 27h1M30 28h1M65 28h1M30 29h1M41 29h1M66 29h1M67 30h1M37 31h1M67 31h1M38 32h2M68 32h1M78 32h2M16 33h1M40 33h1M68 33h1M80 33h1M15 34h1M22 34h1M25 34h2M39 34h1M69 34h1M77 34h1M81 34h1M14 35h1M22 35h3M37 35h2M69 35h1M79 35h2M15 36h3M39 36h1M47 36h1M69 36h1M80 36h1M18 37h1M40 37h1M48 37h1M69 37h1M81 37h1M28 38h1M35 38h1M37 38h3M69 38h1M79 38h1M82 38h1M24 39h4M36 39h1M69 39h1M80 39h2M22 40h2M25 40h1M37 40h1M69 40h1M80 40h1M21 41h1M24 41h1M35 41h2M69 41h1M77 41h1M81 41h1M68 42h1M71 42h1M78 42h3M68 43h1M72 43h3M78 43h1M22 44h1M68 44h3M72 44h1M75 44h2M78 44h1M21 45h1M67 45h1M71 45h2M77 45h2M20 46h1M38 46h2M66 46h1M19 47h1M18 48h1M19 49h2M19 50h1M18 51h1M19 52h1M21 52h1M20 53h1M32 53h1M20 54h1M33 54h1M70 54h1M21 55h1M68 55h2M71 55h1M67 56h1M71 56h3M65 57h2M69 57h2M74 57h2M32 59h1M33 60h1M66 61h1M64 62h1M67 62h1M66 63h1" />
<path stroke="#f6e6bd" d="M33 16h3M23 17h1M27 17h1M31 17h3M66 17h2M23 18h1M26 18h1M30 18h2M64 18h3M22 19h2M25 19h2M28 19h3M59 19h1M62 19h4M18 20h1M22 20h2M25 20h5M59 20h6M66 20h2M17 21h2M21 21h8M57 21h10M17 22h2M20 22h5M26 22h3M56 22h11M17 23h2M20 23h4M26 23h2M55 23h16M18 24h1M20 24h4M26 24h1M55 24h15M71 24h1M18 25h1M20 25h3M35 25h1M54 25h15M70 25h1M18 26h1M20 26h3M34 26h2M54 26h11M66 26h4M71 26h1M18 27h2M21 27h2M33 27h2M53 27h13M67 27h2M70 27h1M19 28h1M22 28h1M33 28h1M53 28h12M52 29h14M52 30h14M52 31h14M52 32h13M29 33h4M53 33h11M78 33h2M28 34h8M53 34h10M79 34h2M19 35h3M26 35h11M55 35h6M18 36h9M31 36h3M79 36h1M19 37h7M79 37h2M19 38h4M34 38h1M80 38h2M34 39h2M35 40h2M22 45h2M31 45h1M21 46h4M30 46h3M34 46h1M20 47h1M22 47h4M28 47h4M33 47h1M22 48h11M34 48h1M21 49h13M20 50h3M24 50h11M19 51h4M24 51h8M33 51h3M23 52h9M35 52h2M23 53h5M29 53h3M23 54h5M29 54h3M24 55h4M31 55h1M70 55h1M25 56h1M27 56h1M68 56h2M26 57h1M67 57h2M71 57h3M65 58h6M49 59h1M66 59h2M47 60h3M46 61h3M44 62h4M65 62h2M68 62h1M44 63h3M64 63h2M67 63h4M44 64h1M62 64h8M60 65h9M61 66h7M45 67h2M63 67h4M46 68h3M34 69h1M47 69h3M34 70h1" />
<path stroke="#5a4a10" d="M36 16h1M35 17h1M36 19h1M37 20h2M57 20h1M39 21h2M56 21h1M14 22h2M33 22h4M41 22h1M55 22h1M13 23h1M31 23h2M42 23h1M54 23h1M13 24h1M30 24h1M41 24h1M53 24h1M14 25h1M29 25h1M36 25h1M40 25h1M53 25h1M14 26h1M29 26h1M36 26h1M41 26h1M52 26h1M15 27h1M28 27h1M35 27h1M42 27h1M52 27h1M15 28h1M28 28h1M34 28h1M43 28h1M51 28h1M28 29h1M31 29h3M42 29h1M51 29h1M26 30h2M43 30h2M51 30h1M24 31h1M27 31h1M30 31h2M45 31h1M50 31h1M23 32h1M27 32h1M29 32h1M44 32h1M50 32h1M28 33h1M45 33h1M50 33h1M45 34h1M50 34h1M46 35h1M50 35h1M43 36h2M45 37h1M46 38h2M46 39h1M47 40h1M46 41h1M38 42h2M45 42h1M40 44h1M41 45h1M64 45h1M39 47h1M40 49h1M35 50h1M39 50h1M36 51h1M40 51h1M38 52h2M36 53h1M22 54h1M34 54h1M36 54h1M51 54h1M35 55h1M52 55h1M34 56h1M43 56h1M52 56h1M24 57h1M35 57h1M42 57h1M24 58h1M36 58h1M42 58h1M25 59h1M36 59h1M42 59h1M25 60h1M34 60h2M42 60h1M46 60h1M26 61h1M29 61h1M27 62h1M29 62h1M43 62h1M28 63h1M30 63h1M48 63h1M31 64h1M33 64h1M49 64h1M32 65h2M48 65h1M47 66h1M48 67h2M50 68h1M51 69h1M35 70h1M50 70h1M34 71h1M48 71h2M46 72h2M50 72h1M60 72h1M49 73h1M59 73h1M62 73h1M65 73h1M49 74h1M59 74h1M61 74h1M64 74h1M28 75h1M25 76h1M27 77h1M37 79h1M40 79h1M36 80h1M39 80h1" />
<path stroke="#d5bd94" d="M34 17h1M22 18h1M28 18h1M32 18h3M67 18h1M27 19h1M31 19h3M35 19h1M66 19h1M21 20h1M30 20h7M58 20h1M65 20h1M68 20h1M19 21h1M29 21h10M67 21h1M25 22h1M29 22h4M39 22h2M68 22h1M24 23h2M28 23h3M39 23h3M17 24h1M24 24h2M27 24h3M39 24h2M54 24h1M70 24h1M72 24h1M19 25h1M23 25h6M34 25h1M39 25h1M69 25h1M71 25h3M19 26h1M23 26h6M32 26h2M39 26h2M53 26h1M65 26h1M70 26h1M72 26h3M20 27h1M23 27h5M32 27h1M38 27h4M66 27h1M69 27h1M71 27h4M17 28h2M20 28h2M23 28h5M31 28h2M38 28h5M52 28h1M66 28h10M17 29h11M37 29h4M67 29h9M17 30h9M36 30h7M66 30h1M68 30h9M18 31h6M34 31h3M38 31h7M51 31h1M66 31h1M68 31h9M18 32h5M30 32h8M40 32h4M51 32h1M65 32h3M69 32h8M19 33h4M33 33h7M41 33h4M51 33h2M64 33h4M69 33h8M16 34h1M19 34h3M27 34h1M36 34h3M40 34h5M51 34h2M63 34h6M70 34h7M78 34h1M15 35h3M25 35h1M39 35h7M51 35h4M61 35h8M70 35h9M27 36h4M34 36h5M40 36h3M45 36h2M51 36h18M70 36h9M26 37h14M41 37h4M46 37h2M52 37h17M70 37h9M23 38h5M29 38h5M40 38h6M52 38h17M70 38h9M18 39h6M28 39h6M39 39h7M53 39h16M70 39h10M17 40h5M26 40h9M39 40h8M54 40h15M70 40h10M18 41h3M22 41h2M25 41h10M41 41h5M60 41h9M70 41h7M78 41h3M21 42h17M43 42h2M62 42h6M69 42h2M72 42h6M25 43h15M63 43h5M69 43h3M75 43h3M23 44h2M26 44h14M64 44h4M71 44h1M77 44h1M24 45h7M32 45h9M65 45h2M25 46h5M33 46h1M35 46h3M65 46h1M21 47h1M26 47h2M32 47h1M34 47h5M19 48h3M33 48h1M35 48h5M34 49h6M23 50h1M36 50h3M23 51h1M32 51h1M37 51h3M20 52h1M22 52h1M32 52h3M21 53h2M28 53h1M33 53h3M21 54h1M28 54h1M32 54h1M35 54h1M23 55h1M28 55h3M32 55h2M24 56h1M26 56h1M28 56h6M70 56h1M25 57h1M27 57h8M25 58h11M71 58h5M26 59h6M33 59h3M68 59h7M26 60h7M66 60h8M27 61h2M30 61h3M45 61h1M67 61h6M28 62h1M30 62h3M54 62h1M69 62h6M31 63h2M47 63h1M53 63h3M71 63h3M32 64h1M45 64h4M52 64h5M70 64h3M44 65h4M54 65h2M57 65h3M69 65h3M33 66h1M44 66h3M53 66h3M57 66h4M68 66h6M33 67h1M44 67h1M47 67h1M52 67h4M57 67h6M67 67h5M33 68h2M45 68h1M49 68h1M54 68h1M58 68h11M45 69h2M50 69h1M59 69h8M45 70h5M61 70h3M45 71h3" />
<path stroke="#101010" d="M16 21h1M16 22h1M37 22h2M70 22h1M16 23h1M38 23h1M71 23h2M16 24h1M38 24h1M73 24h1M17 25h1M38 25h1M74 25h1M17 26h1M38 26h1M75 26h1M17 27h1M37 27h1M75 27h1M16 28h1M37 28h1M76 28h1M16 29h1M36 29h1M76 29h1M16 30h1M34 30h2M77 30h1M17 31h1M25 31h1M32 31h2M77 31h1M17 32h1M24 32h2M77 32h1M17 33h1M23 33h1M25 33h1M77 33h1M17 34h1M18 35h1M50 36h1M15 37h1M51 37h1M15 38h1M18 38h1M36 38h1M51 38h1M16 39h2M38 39h1M52 39h1M16 40h1M38 40h1M53 40h1M17 41h1M39 41h2M53 41h7M18 42h3M41 42h2M51 42h2M58 42h4M21 43h4M42 43h9M57 43h6M25 44h1M43 44h5M57 44h4M63 44h1M45 45h5M56 45h5M40 46h2M47 46h2M50 46h1M55 46h1M57 46h3M63 46h2M40 47h3M48 47h2M57 47h2M62 47h4M40 48h4M50 48h1M56 48h1M62 48h4M41 49h4M47 49h1M61 49h5M42 50h4M48 50h1M60 50h4M65 50h1M43 51h4M48 51h2M59 51h5M65 51h1M37 52h1M44 52h7M59 52h4M65 52h1M45 53h6M61 53h1M64 53h1M46 54h4M64 54h1M22 55h1M34 55h1M36 55h1M46 55h3M63 55h2M22 56h1M35 56h3M45 56h4M62 56h3M22 57h1M36 57h3M45 57h3M52 57h1M62 57h3M22 58h2M37 58h3M44 58h4M51 58h2M61 58h4M76 58h1M22 59h3M38 59h3M43 59h4M50 59h1M53 59h1M60 59h1M62 59h2M65 59h1M75 59h1M23 60h2M37 60h1M39 60h3M43 60h3M53 60h1M61 60h2M65 60h1M74 60h1M23 61h1M33 61h1M38 61h7M49 61h1M54 61h1M60 61h1M65 61h1M73 61h2M23 62h1M33 62h1M39 62h4M48 62h1M55 62h1M75 62h1M24 63h1M33 63h1M40 63h4M56 63h1M62 63h2M74 63h1M24 64h1M30 64h1M34 64h1M41 64h3M57 64h5M73 64h1M24 65h1M29 65h3M34 65h1M42 65h2M56 65h1M72 65h2M25 66h1M29 66h4M34 66h1M41 66h3M56 66h1M74 66h1M25 67h1M29 67h4M34 67h1M40 67h4M56 67h1M72 67h2M25 68h1M28 68h5M35 68h1M40 68h5M55 68h1M57 68h1M69 68h3M26 69h1M28 69h2M31 69h3M35 69h1M39 69h4M44 69h1M54 69h1M58 69h1M68 69h1M26 70h3M31 70h3M36 70h1M39 70h3M44 70h1M54 70h1M59 70h2M68 70h1M26 71h2M30 71h1M32 71h2M36 71h5M43 71h2M54 71h1M60 71h1M68 71h1M26 72h1M33 72h1M36 72h4M42 72h4M54 72h1M68 72h1M26 73h1M33 73h1M36 73h1M38 73h1M41 73h4M46 73h1M54 73h1M68 73h1M24 74h2M33 74h1M36 74h1M43 74h2M46 74h1M52 74h2M68 74h1M23 75h1M33 75h1M36 75h1M42 75h1M44 75h1M47 75h5M59 75h1M61 75h1M64 75h1M68 75h1M23 76h1M32 76h1M36 76h1M44 76h1M60 76h2M64 76h1M67 76h1M23 77h1M25 77h1M32 77h1M36 77h1M44 77h1M61 77h6M24 78h2M27 78h1M30 78h2M35 78h1M44 78h1M26 79h4M34 79h1M44 79h1M34 80h1M44 80h1M34 81h1M36 81h1M39 81h1M43 81h1M35 82h2M39 82h1M42 82h1M37 83h5" />
<path stroke="#f6ff7b" d="M14 23h2M35 23h3M15 24h1M37 24h1M15 25h1M37 25h1M57 52h1M56 53h1M54 54h2M54 55h5M60 55h1M54 56h4M59 56h3M54 57h7M55 58h5M56 59h3M26 65h1M36 65h2M26 66h2M36 66h4M26 67h1M36 67h4M36 68h3M37 69h1M26 74h2M24 75h1M26 75h2M29 75h1M26 76h1M28 76h2M37 77h1M36 78h5M36 79h1M38 79h2M41 79h1M38 80h1M40 80h2" />
<path stroke="#e6d529" d="M33 23h2M31 24h2M30 25h1M30 26h1M29 27h1M29 28h1M29 29h1M53 42h4M51 43h6M49 44h7M62 44h1M50 45h5M61 45h2M51 46h4M61 46h1M46 47h2M51 47h6M60 47h2M45 48h5M51 48h5M58 48h3M45 49h2M48 49h12M46 50h1M49 50h11M50 51h8M43 52h1M51 52h6M42 53h3M51 53h5M41 54h4M52 54h2M61 54h1M40 55h5M53 55h1M61 55h1M40 56h3M53 56h1M40 57h2M40 58h2M37 62h2M25 63h1M36 63h4M25 64h3M35 64h6M27 65h2M35 65h1M38 65h4M40 66h1M61 72h2M60 73h2M63 73h2M66 73h1M62 74h2M65 74h2" />
<path stroke="#b49c00" d="M14 24h1M33 24h1M16 25h1M31 25h1M15 26h2M37 26h1M16 27h1M30 27h1M36 27h1M35 28h2M34 29h2M28 30h6M28 31h2M28 32h1M18 33h1M26 33h2M18 34h1M23 34h2M37 39h1M37 41h2M40 42h1M57 42h1M40 43h2M41 44h2M48 44h1M56 44h1M61 44h1M42 45h3M55 45h1M63 45h1M42 46h5M49 46h1M56 46h1M60 46h1M62 46h1M43 47h3M50 47h1M59 47h1M44 48h1M57 48h1M61 48h1M60 49h1M40 50h2M47 50h1M64 50h1M41 51h2M47 51h1M58 51h1M64 51h1M40 52h3M63 52h2M37 53h5M62 53h2M37 54h4M45 54h1M50 54h1M62 54h2M37 55h3M45 55h1M49 55h3M62 55h1M23 56h1M38 56h2M44 56h1M49 56h3M23 57h1M39 57h1M43 57h2M48 57h4M53 57h1M43 58h1M48 58h3M53 58h2M37 59h1M41 59h1M47 59h2M51 59h2M54 59h2M61 59h1M64 59h1M36 60h1M38 60h1M50 60h3M54 60h7M63 60h2M24 61h2M34 61h4M50 61h4M55 61h5M61 61h4M24 62h3M34 62h3M49 62h5M56 62h8M26 63h2M29 63h1M34 63h2M49 63h4M57 63h5M28 64h2M50 64h2M25 65h1M49 65h5M48 66h5M50 67h2M51 68h3M30 69h1M43 69h1M52 69h2M67 69h1M29 70h2M42 70h2M51 70h3M64 70h4M28 71h2M31 71h1M41 71h2M50 71h4M61 71h7M27 72h6M40 72h2M48 72h2M51 72h3M63 72h5M27 73h6M37 73h1M39 73h2M47 73h2M50 73h4M67 73h1M28 74h5M37 74h6M47 74h2M50 74h2M60 74h1M67 74h1M25 75h1M30 75h3M37 75h5M43 75h1M60 75h1M62 75h2M65 75h3M24 76h1M27 76h1M30 76h2M37 76h7M62 76h2M65 76h2M24 77h1M26 77h1M28 77h4M38 77h6M26 78h1M28 78h2M41 78h3M35 79h1M42 79h2M35 80h1M37 80h1M42 80h2M35 81h1M37 81h2M40 81h3M37 82h2M40 82h2" />
<path stroke="#deded5" d="M26 31h1M16 37h1" />
<path stroke="#fffff6" d="M26 32h1M24 33h1M24 40h1" />
<path stroke="#836a62" d="M17 37h1M16 38h2M58 52h1M57 53h4M56 54h5M59 55h1M58 56h1M61 57h1M60 58h1M59 59h1M28 66h1M35 66h1M27 67h2M35 67h1M26 68h2M39 68h1M27 69h1M36 69h1M38 69h1M37 70h2" />
</svg>