<svg xmlns="http://www.w3.org/2000/svg" viewBox="0 -0.5 96 96" shape-rendering="crispEdges">
<metadata>Made with Pixels to Svg https://codepen.io/shshaw/pen/XbxvNj</metadata>
<path stroke="#73528b" d="M55 8h4M52 9h3M59 9h1M51 10h1M60 10h1M50 11h1M49 12h1M48 13h1M48 14h1M45 15h2M44 16h1M43 17h1M42 18h1M53 18h1M58 18h1M42 19h1M52 19h1M57 19h1M52 20h1M57 20h1M51 21h1M56 21h1M56 22h1M46 33h2M44 34h1M42 35h1M37 38h1M36 39h1M52 39h2M35 40h1M54 40h2M35 41h1M56 41h1M34 42h1M56 42h1M34 43h1M57 43h1M33 44h1M57 44h1M33 45h1M57 45h1M33 46h1M56 46h1M32 47h1M61 47h1M32 48h1M61 48h1M60 49h1M54 50h1M60 50h1M55 51h1M61 51h1M55 52h1M61 52h1M54 53h1M62 53h1M62 54h1M52 55h1M62 55h1M62 56h1M62 57h1M61 58h1M61 59h1M60 60h1M59 61h1M40 63h1M41 64h2M43 65h2M45 66h4M58 70h1M58 74h1M58 75h1M55 76h1M59 76h1M56 77h1M60 77h1M56 78h1M57 79h1" />
<path stroke="#dec5ee" d="M55 9h4M52 10h3M56 10h4M51 11h4M56 11h4M50 12h5M56 12h3M60 12h1M49 13h6M56 13h3M60 13h1M49 14h6M56 14h3M60 14h1M48 15h6M55 15h4M60 15h1M45 16h2M48 16h6M55 16h3M59 16h2M44 17h4M49 17h4M54 17h4M59 17h2M43 18h5M49 18h1M57 18h1M59 18h2M43 19h5M59 19h1M42 20h6M42 21h3M42 22h1M41 23h1M41 24h1M46 34h6M44 35h11M42 36h15M41 37h16M38 38h1M40 38h18M40 39h11M54 39h4M40 40h11M56 40h3M40 41h12M57 41h2M39 42h13M57 42h3M39 43h6M48 43h5M58 43h2M38 44h6M51 44h2M58 44h2M37 45h6M51 45h2M58 45h2M34 46h9M50 46h3M57 46h2M33 47h9M49 47h4M57 47h2M33 48h9M49 48h4M56 48h3M33 49h9M48 49h5M55 49h4M33 50h10M47 50h6M55 50h4M33 51h11M46 51h7M56 51h3M33 52h19M56 52h3M34 53h5M40 53h2M43 53h9M55 53h4M35 54h3M42 54h10M55 54h4M38 55h14M54 55h6M37 56h14M52 56h8M35 57h24M35 58h22M37 59h18M41 60h10M43 75h1M60 75h1M44 76h2M60 76h2M44 77h6M61 77h1M45 78h6M59 78h1M61 78h1M45 79h6M52 79h1M58 79h3M62 79h1M46 80h5M52 80h6M59 80h2M62 80h1M46 81h5M52 81h6M59 81h3M47 82h3M53 82h6M60 82h2M54 83h5M60 83h3M55 84h5M61 84h2M56 85h4M61 85h1M58 86h2M61 86h1" />
<path stroke="#9c52a4" d="M55 10h1M55 11h1M55 12h1M59 12h1M55 13h1M59 13h1M55 14h1M59 14h1M54 15h1M59 15h1M54 16h1M58 16h1M53 17h1M58 17h1M51 22h1M55 23h1M45 28h1M48 33h4M45 34h1M52 34h1M43 35h1M41 36h1M40 37h1M39 38h1M59 38h1M51 39h1M60 39h1M51 40h1M61 40h1M52 41h1M61 41h1M52 42h1M62 42h1M53 43h1M62 43h1M53 44h1M62 44h1M53 45h1M62 45h1M53 46h1M62 46h1M53 47h1M60 47h1M53 48h1M60 48h1M53 49h1M46 50h1M53 50h1M44 51h2M53 51h1M60 51h1M52 52h1M60 52h1M52 53h1M60 53h2M52 54h1M61 54h1M61 55h1M51 56h1M61 56h1M61 57h1M60 59h1M40 64h1M41 65h2M41 66h4M53 66h2M41 67h15M44 68h13M48 69h7M47 71h1M59 72h1M57 73h1M54 75h1M60 78h1M61 79h1M58 80h1M61 80h1M58 81h1M62 81h1M59 82h1M62 82h1M59 83h1M60 84h1M60 85h1M60 86h1" />
<path stroke="#000000" d="M60 11h1M61 12h1M61 13h1M61 14h1M61 15h1M61 16h1M61 17h1M61 18h1M60 19h1M60 20h1M60 21h1M60 22h1M59 23h1M59 24h1M59 25h1M58 26h1M58 27h1M58 28h1M57 29h1M56 30h1M56 31h1M55 32h1M54 33h1M53 34h1M55 35h1M60 43h1M60 44h1M60 45h1M60 46h1M45 47h1M56 47h1M59 47h1M45 48h1M55 48h1M59 48h1M54 49h1M59 49h1M32 52h1M32 53h1M33 54h1M54 54h1M33 55h1M37 55h1M53 55h1M60 55h1M34 56h2M60 56h1M34 57h1M60 57h1M34 58h1M60 58h1M35 59h1M59 59h1M35 60h1M59 60h1M36 61h1M58 61h1M37 62h1M58 62h1M38 63h1M57 63h1M39 64h1M56 64h1M53 65h3M49 66h4M58 69h1M59 70h1M59 71h1M60 72h1M61 74h1M43 76h1M62 76h1M43 77h1M62 77h1M44 78h1M44 79h1M63 79h1M45 80h1M63 80h1M45 81h1M63 81h1M46 82h1M52 82h1M63 82h1M47 83h2M53 83h1M63 83h1M54 84h1M63 84h1M62 85h1M56 86h1M62 86h1M58 87h4" />
<path stroke="#623941" d="M47 15h1M47 16h1M48 17h1M48 18h1M48 19h1M41 20h1M48 20h1M41 21h1M47 21h1M41 22h1M47 22h1M40 23h1M47 23h1M40 24h1M46 24h1M40 25h1M46 25h1M40 26h1M46 26h1M39 27h1M45 27h1M39 28h1M39 29h1M39 30h1M39 31h1M38 32h1M38 33h1M38 34h1M54 34h1M38 35h1M56 35h1M38 36h1M57 36h1M38 37h1M58 37h1M58 38h1M59 39h1M59 40h1M60 41h1M60 42h1M32 49h1M47 49h1M32 50h1M59 50h1M32 51h1M59 51h1M59 52h1M39 53h1M42 53h1M59 53h1M38 54h1M40 54h2M60 54h1M36 56h1M40 65h1M40 66h1M55 66h1M40 67h1M56 67h1M40 68h1M57 68h1M41 69h1M41 70h1M41 71h1M41 72h1M48 72h1M42 73h1M48 73h1M60 73h1M42 74h1M49 74h1M42 75h1M49 75h1M61 75h1M50 76h1M50 77h1M51 78h1M62 78h1M51 79h1M51 80h1M51 81h1M50 82h1M49 83h1M55 85h1M57 86h1" />
<path stroke="#bd83d5" d="M50 18h1M56 18h1M59 20h1M45 21h1M43 22h1M42 23h1M60 74h1M44 75h1M46 76h1M58 78h1M53 79h1" />
<path stroke="#c57bcd" d="M51 18h2M54 18h2M49 19h3M53 19h4M58 19h1M49 20h3M53 20h4M58 20h1M46 21h1M48 21h3M52 21h4M57 21h3M44 22h3M48 22h3M52 22h4M57 22h3M43 23h4M48 23h7M56 23h3M42 24h4M47 24h12M41 25h5M47 25h12M41 26h5M47 26h11M40 27h5M46 27h12M40 28h5M46 28h12M40 29h17M40 30h16M40 31h16M39 32h16M39 33h7M52 33h2M39 34h5M39 35h3M39 36h2M39 37h1M52 40h2M60 40h1M53 41h3M53 42h3M61 42h1M54 43h3M61 43h1M54 44h3M61 44h1M54 45h3M61 45h1M54 46h2M61 46h1M54 47h2M54 48h1M54 51h1M53 52h2M53 53h1M53 54h1M41 68h3M42 69h6M55 69h3M42 70h16M42 71h5M48 71h11M42 72h6M49 72h10M43 73h5M49 73h8M58 73h2M43 74h6M50 74h8M59 74h1M45 75h4M50 75h4M55 75h3M59 75h1M47 76h3M51 76h4M56 76h3M51 77h5M57 77h3M52 78h4M57 78h1M54 79h3" />
<path stroke="#b483de" d="M57 37h1M58 39h1M59 41h1M59 46h1M33 53h1M34 54h1M39 54h1M59 54h1M34 55h3M59 57h1M57 58h3M36 59h1M55 59h4M36 60h5M51 60h8M37 61h21M38 62h20M39 63h1M41 63h16M43 64h13M45 65h8" />
<path stroke="#ffeef6" d="M37 39h1M37 40h2M36 41h3M36 42h2M35 43h3M34 44h3" />
<path stroke="#eedef6" d="M38 39h2M36 40h1M39 40h1M39 41h1M35 42h1M38 42h1M38 43h1M37 44h1M34 45h3" />
<path stroke="#107320" d="M45 43h3M44 44h1M48 44h3M43 45h1M45 45h2M48 45h1M50 45h1M44 46h1M47 46h1M49 46h1M42 47h1M42 48h2M48 48h1M42 49h1M43 50h1" />
<path stroke="#41bd52" d="M45 44h3M44 45h1M47 45h1M49 45h1M43 46h1M48 46h1M43 47h1M48 47h1" />
<path stroke="#a49c08" d="M45 46h2M46 47h1M46 48h1M44 49h2" />
<path stroke="#ffffff" d="M44 47h1M47 47h1M47 48h1M43 49h1M46 49h1M44 50h2" />
<path stroke="#d5d539" d="M44 48h1" />
</svg>