<svg xmlns="http://www.w3.org/2000/svg" viewBox="0 -0.5 96 96" shape-rendering="crispEdges">
<metadata>Made with Pixels to Svg https://codepen.io/shshaw/pen/XbxvNj</metadata>
<path stroke="#4a4a4a" d="M47 23h3M25 24h1M28 24h1M39 24h2M46 24h1M54 24h1M24 25h1M29 25h1M41 25h1M45 25h7M54 25h1M30 26h2M42 26h1M45 26h1M54 26h1M23 27h1M29 27h2M42 27h1M45 27h1M54 27h2M45 28h1M54 28h2M64 28h3M24 29h1M44 29h1M55 29h1M64 29h1M44 30h1M55 30h1M65 30h1M40 31h1M42 31h3M55 31h4M66 31h1M58 32h2M67 32h1M22 33h2M31 33h2M42 33h2M68 33h1M20 34h1M23 34h1M33 34h1M36 34h1M44 34h1M69 34h3M19 35h1M34 35h2M37 35h1M70 35h2M69 36h2M34 37h2M44 37h1M47 37h1M68 37h2M23 38h1M30 38h1M48 38h1M51 38h1M67 38h2M31 39h1M67 39h1M40 40h1M54 40h1M67 40h2M25 41h1M39 41h1M55 41h1M68 41h1M45 42h3M68 42h1M55 43h1M68 43h1M24 44h1M30 44h1M55 44h1M68 44h1M75 44h2M24 45h1M29 45h1M54 45h3M67 45h1M71 45h1M74 45h2M28 46h1M56 46h1M75 46h1M37 47h1M39 47h1M55 47h1M57 47h1M75 47h1M27 48h1M38 48h1M58 48h2M75 48h1M27 49h1M36 49h2M56 49h2M75 49h1M28 50h1M34 50h1M60 50h1M75 50h1M28 51h1M60 51h1M74 51h2M59 52h2M62 52h1M74 52h1M32 53h1M56 53h1M74 53h1M68 54h1M63 55h1M55 56h1M67 56h1M55 57h1M67 57h1M55 58h1M66 58h2M33 59h1M45 59h4M56 59h1M58 59h2M67 59h1M32 60h1M44 60h1M68 60h2M31 61h1M43 61h1M54 61h1M69 61h2M31 62h1M41 62h1M45 62h1M51 62h1M53 62h1M70 62h1M32 63h1M70 63h1M33 64h1M58 64h2M34 65h1M43 65h1M58 65h1M60 65h1M40 66h1M45 66h1M56 66h1M61 66h1M45 67h1M56 67h1M65 67h1M45 68h1M56 68h1M64 68h1M45 69h1M56 69h1M46 70h1M46 71h1M46 72h1" />
<path stroke="#292929" d="M50 23h5M55 24h1M53 25h1M55 25h1M53 26h1M55 26h1M53 27h1M56 27h1M41 28h1M53 28h1M56 28h1M41 29h1M54 29h1M56 29h1M63 29h1M40 30h1M54 30h1M56 30h2M62 30h1M54 31h1M59 31h1M61 31h1M41 32h1M56 32h2M60 32h1M44 33h2M58 33h2M71 33h1M72 34h1M72 35h1M71 36h1M52 37h2M70 37h1M55 38h1M66 38h1M69 38h1M41 39h2M44 39h1M57 39h1M66 39h1M43 40h1M66 40h1M67 41h1M48 42h1M57 42h1M67 42h1M56 43h1M67 43h1M56 44h1M67 44h1M68 45h3M72 45h2M54 46h1M55 48h1M58 49h1M28 52h1M28 53h4M60 53h1M32 54h1M32 55h1M32 56h1M54 56h1M33 57h1M54 57h1M33 58h1M56 58h1M68 58h1M55 59h1M57 59h1M66 59h1M68 59h2M55 60h1M67 60h1M70 60h1M68 61h1M71 61h1M69 62h1M71 62h1M42 65h1M56 65h2M35 66h1M41 66h1M44 66h1M55 66h1M36 67h1M39 67h1M55 67h1M57 67h1M37 68h2M55 68h1M57 68h1M55 69h1M57 69h1M55 70h2M55 71h1" />
<path stroke="#101010" d="M26 24h1M27 25h1M39 25h1M52 25h1M28 26h1M40 26h1M31 27h3M40 27h1M24 28h1M39 28h1M39 29h1M67 29h1M68 30h1M29 31h2M69 31h1M29 32h2M70 32h1M46 34h1M44 35h1M46 35h1M48 35h4M69 35h1M19 36h1M34 36h1M38 36h1M44 36h1M46 36h1M48 36h4M68 36h1M19 37h1M37 37h1M46 37h1M48 37h4M67 37h1M20 38h3M31 38h2M36 38h1M40 38h6M49 38h2M54 38h1M29 39h2M40 39h1M52 39h2M55 39h2M68 39h1M24 40h1M29 40h2M45 40h1M56 40h1M58 40h1M69 40h1M46 41h1M57 41h1M59 41h1M69 41h1M25 42h1M39 42h1M55 42h1M60 42h1M69 42h1M54 43h1M60 43h1M69 43h7M31 44h3M40 44h1M54 44h1M61 44h1M30 45h1M34 45h2M40 45h1M61 45h1M76 45h1M25 46h1M29 46h1M36 46h1M39 46h1M62 46h1M74 46h1M76 46h1M26 47h3M38 47h1M62 47h1M74 47h1M76 47h1M60 48h1M62 48h1M74 48h1M76 48h1M61 49h2M74 49h1M76 49h1M52 50h1M59 50h1M61 50h2M74 50h1M76 50h1M34 51h1M52 51h1M59 51h1M61 51h2M76 51h1M34 52h1M52 52h1M61 52h1M75 52h1M35 53h3M51 53h1M57 53h3M62 53h1M75 53h1M39 54h1M51 54h1M55 54h1M62 54h1M69 54h5M39 55h1M50 55h1M55 55h1M60 55h3M68 55h1M47 56h2M59 56h5M40 57h1M56 57h1M59 57h5M59 58h5M39 59h1M49 59h1M60 59h3M39 60h1M45 60h1M50 60h1M56 60h1M40 61h1M44 61h2M51 61h1M55 61h1M42 62h2M46 62h5M52 62h1M69 64h1M68 65h1M57 66h1M67 66h1M62 67h1M66 67h1M63 68h1M47 72h8" />
<path stroke="#6a6a73" d="M27 24h1M37 24h2M47 24h7M28 25h1M36 25h1M40 25h1M23 26h1M29 26h1M35 26h1M41 26h1M34 27h1M41 27h1M40 28h1M30 29h4M40 29h1M65 29h2M25 30h1M32 30h3M38 30h2M66 30h2M24 31h1M27 31h1M32 31h5M39 31h1M67 31h2M24 32h1M26 32h2M32 32h5M39 32h2M68 32h2M26 33h2M33 33h5M40 33h2M69 33h2M21 34h2M25 34h4M34 34h2M37 34h1M45 34h1M25 35h4M38 35h1M45 35h1M25 36h4M45 36h1M25 37h4M38 37h1M45 37h1M26 38h4M33 38h3M37 38h1M24 39h1M26 39h3M32 39h6M43 39h1M54 39h1M27 40h2M31 40h6M39 40h1M44 40h1M51 40h1M55 40h1M28 41h8M44 41h2M50 41h1M56 41h1M31 42h3M49 42h1M56 42h1M24 43h1M69 44h6M53 45h1M55 46h1M56 47h1M56 48h2M35 49h1M38 49h1M59 49h2M34 54h1M37 54h2M34 55h1M54 55h1M33 56h1M35 56h3M40 56h1M36 57h1M35 58h1M39 58h2M54 58h1M36 59h1M38 59h1M37 60h1M54 71h1" />
<path stroke="#d5c58b" d="M25 25h2M37 25h2M24 26h4M36 26h4M24 27h5M35 27h5M25 28h14M25 29h4M34 29h5M26 30h2M36 30h2M25 31h2M37 31h2M25 32h1M38 32h1M24 33h1M38 33h2M24 34h1M39 34h5M20 35h5M39 35h5M20 36h5M39 36h5M20 37h5M39 37h4M24 38h1M39 38h1M25 39h1M38 39h2M25 40h1M38 40h1M41 40h2M52 40h2M26 41h2M37 41h2M40 41h4M51 41h4M26 42h4M35 42h4M40 42h4M50 42h5M25 43h14M40 43h14M25 44h5M34 44h6M41 44h13M25 45h4M36 45h4M41 45h12M26 46h2M37 46h2M40 46h5M49 46h5M40 47h3M51 47h4M39 48h3M52 48h3M39 49h3M52 49h4M35 50h6M53 50h6M35 51h6M53 51h6M35 52h6M53 52h6M38 53h4M52 53h4M40 54h2M52 54h3M40 55h3M51 55h3M41 56h4M49 56h5M41 57h13M41 58h13M40 59h5M50 59h5M40 60h4M51 60h4M41 61h2M52 61h2" />
<path stroke="#9c9473" d="M46 26h7M46 27h7M46 28h7M29 29h1M45 29h9M28 30h1M31 30h1M35 30h1M45 30h9M63 30h2M45 31h9M62 31h4M37 32h1M42 32h14M61 32h6M25 33h1M28 33h1M46 33h12M60 33h8M38 34h1M47 34h22M47 35h1M52 35h17M47 36h1M52 36h16M43 37h1M54 37h13M25 38h1M38 38h1M47 38h1M52 38h2M56 38h10M47 39h5M58 39h8M26 40h1M37 40h1M48 40h3M57 40h1M59 40h7M36 41h1M48 41h2M58 41h1M60 41h7M30 42h1M34 42h1M44 42h1M58 42h2M61 42h6M39 43h1M57 43h3M61 43h6M57 44h4M62 44h5M57 45h4M62 45h5M57 46h5M63 46h11M58 47h4M63 47h11M35 48h3M61 48h1M63 48h11M32 49h3M63 49h11M29 50h5M63 50h11M29 51h5M63 51h11M30 52h4M63 52h11M33 53h2M61 53h1M63 53h11M33 54h1M56 54h6M63 54h5M33 55h1M56 55h4M64 55h4M34 56h1M56 56h3M64 56h3M34 57h2M57 57h2M64 57h3M57 58h2M64 58h2M34 59h2M63 59h3M33 60h4M38 60h1M46 60h4M57 60h10M32 61h8M46 61h5M56 61h12M32 62h9M44 62h1M54 62h15M33 63h37M34 64h24M60 64h9M35 65h7M44 65h12M61 65h7M36 66h4M46 66h9M62 66h5M37 67h2M46 67h9M63 67h2M46 68h9M46 69h9M47 70h8M47 71h7" />
<path stroke="#ffffff" d="M29 30h2M28 31h1M31 31h1M28 32h1M31 32h1M29 33h2M31 35h1M36 35h1M35 36h3M36 37h1M44 48h2M44 49h2M35 54h2M35 55h4M38 56h2M37 57h3M36 58h3M37 59h1" />
<path stroke="#527b20" d="M29 34h1M29 37h1M33 37h1M45 46h2M49 47h1M41 51h1M41 52h1M42 53h1M42 54h1" />
<path stroke="#6ade29" d="M30 34h3M29 35h2M32 35h2M29 36h5M30 37h3M45 47h3M43 48h1M46 48h3M43 49h1M46 49h3M42 50h7M42 51h6M43 52h4" />
<path stroke="#625252" d="M46 38h1M45 39h2M46 40h2M47 41h1M31 45h3M30 46h6M29 47h8M28 48h7M28 49h4M29 52h1M34 58h1" />
<path stroke="#314a18" d="M47 46h2M50 47h1M51 48h1M51 49h1M43 55h2M49 55h1M45 56h2" />
<path stroke="#6aac31" d="M43 47h2M48 47h1M42 48h1M49 48h2M42 49h1M49 49h2M41 50h1M49 50h3M48 51h4M42 52h1M47 52h5M43 53h8M43 54h8M45 55h4" />
</svg>