<svg xmlns="http://www.w3.org/2000/svg" viewBox="0 -0.5 96 96" shape-rendering="crispEdges">
<metadata>Made with Pixels to Svg https://codepen.io/shshaw/pen/XbxvNj</metadata>
<path stroke="#08294a" d="M11 7h2M4 8h2M13 8h1M6 9h1M14 9h1M86 9h4M7 10h1M14 10h1M83 10h3M8 11h1M15 11h1M18 11h2M80 11h3M9 12h1M15 12h1M17 12h1M20 12h1M78 12h2M9 13h1M21 13h1M75 13h3M11 14h1M21 14h1M73 14h2M22 15h1M71 15h2M12 16h1M22 16h1M24 16h1M69 16h2M12 17h1M23 17h2M67 17h2M13 18h1M24 18h1M65 18h2M24 19h1M63 19h2M29 20h1M62 20h1M29 21h1M61 21h1M29 22h1M61 22h1M29 23h2M60 23h1M30 24h1M59 24h1M30 25h1M59 25h1M30 26h1M58 26h1M58 27h1M58 28h1M34 29h2M58 29h1M34 30h1M57 30h1M34 31h1M57 31h1M34 32h1M56 32h1M34 33h1M38 33h1M56 33h1M37 34h1M55 34h1M55 35h1M39 36h1M54 36h1M27 37h1M37 37h1M39 37h1M54 37h1M28 38h1M36 38h1M39 38h3M53 38h1M29 39h1M36 39h1M52 39h1M39 40h1M52 40h1M30 41h1M38 41h1M51 41h1M30 42h1M38 42h1M50 42h1M30 43h1M39 43h5M48 43h2M31 44h1M36 44h3M47 44h1M34 45h2M46 45h1M44 46h2M33 47h1M43 47h1M32 48h1M42 48h1M31 49h1M42 49h1M41 50h1M62 50h1M41 51h1M63 51h1M40 52h1M26 55h1M77 55h1M25 56h1M78 56h2M80 57h1M73 59h1M19 66h2" />
<path stroke="#184a7b" d="M10 8h1M3 9h1M10 9h1M3 10h1M10 10h1M3 11h1M11 11h1M4 12h1M11 12h1M4 13h1M11 13h1M16 13h2M4 14h1M10 14h1M17 14h1M5 15h1M11 15h1M17 15h1M5 16h1M18 16h1M6 17h1M18 17h1M6 18h1M18 18h1M23 18h1M7 19h1M13 19h1M19 19h1M23 19h1M7 20h1M14 20h1M19 20h1M24 20h1M8 21h1M14 21h1M19 21h1M24 21h1M8 22h1M14 22h2M20 22h1M25 22h1M9 23h1M15 23h1M20 23h1M25 23h1M9 24h1M21 24h1M25 24h1M10 25h1M21 25h1M25 25h1M11 26h1M26 26h1M11 27h1M26 27h1M30 27h1M12 28h1M33 28h1M36 28h2M13 29h1M32 29h2M36 29h2M14 30h1M31 30h3M35 30h3M15 31h1M31 31h3M35 31h3M16 32h2M30 32h4M35 32h3M18 33h3M29 33h5M35 33h3M21 34h3M29 34h8M38 34h1M24 35h2M28 35h9M38 35h1M26 36h1M28 36h9M38 36h1M28 37h9M38 37h1M29 38h7M37 38h2M30 39h6M37 39h2M40 39h1M30 40h9M40 40h1M31 41h7M39 41h2M31 42h7M39 42h1M31 43h8M44 43h1M32 44h4M45 44h2M33 45h1M16 53h1M61 53h2M64 53h4M15 54h1M17 54h1M24 54h3M61 54h2M64 54h8M11 55h1M15 55h1M17 55h1M21 55h3M65 55h10M11 56h1M14 56h1M17 56h1M19 56h2M63 56h2M67 56h8M11 57h1M14 57h1M18 57h1M63 57h4M70 57h5M12 58h1M18 58h1M62 58h1M64 58h6M72 58h2M12 59h1M14 59h2M62 59h2M66 59h6M12 60h1M16 60h1M21 60h1M61 60h1M63 60h3M67 60h5M13 61h1M17 61h1M20 61h1M61 61h2M64 61h3M69 61h1M17 62h1M68 62h1" />
<path stroke="#206aac" d="M11 8h2M4 9h2M11 9h3M4 10h3M11 10h3M86 10h3M4 11h4M12 11h3M83 11h4M5 12h4M12 12h3M18 12h2M80 12h4M5 13h4M12 13h4M18 13h3M78 13h4M5 14h5M12 14h5M18 14h3M75 14h5M6 15h5M12 15h5M18 15h4M73 15h5M6 16h6M13 16h5M19 16h3M25 16h2M71 16h5M7 17h5M13 17h5M19 17h4M25 17h2M69 17h5M7 18h6M14 18h4M19 18h4M25 18h3M67 18h4M8 19h5M14 19h5M20 19h3M25 19h3M65 19h3M8 20h6M15 20h4M20 20h4M25 20h4M63 20h3M9 21h5M15 21h4M20 21h4M25 21h4M31 21h2M62 21h2M9 22h5M16 22h4M21 22h4M26 22h3M31 22h2M62 22h1M10 23h5M16 23h4M21 23h4M26 23h3M31 23h2M61 23h2M10 24h11M22 24h3M26 24h4M31 24h3M60 24h2M11 25h10M22 25h3M26 25h4M31 25h3M60 25h2M12 26h14M27 26h3M31 26h3M59 26h2M12 27h14M27 27h3M31 27h3M59 27h2M13 28h20M59 28h2M14 29h18M59 29h2M15 30h16M58 30h3M16 31h15M58 31h2M18 32h12M57 32h3M21 33h8M57 33h2M24 34h5M56 34h3M26 35h2M56 35h3M27 36h1M55 36h3M55 37h3M54 38h3M53 39h3M53 40h3M52 41h3M51 42h3M50 43h3M39 44h6M48 44h3M36 45h10M47 45h3M33 46h11M46 46h2M32 47h1M35 47h8M44 47h3M35 48h1M39 48h3M43 48h4M39 49h3M43 49h3M38 50h3M42 50h3M61 50h1M37 51h4M42 51h3M62 51h1M37 52h3M41 52h3M62 52h1M38 53h6M16 54h1M36 54h5M42 54h1M12 55h1M16 55h1M24 55h2M39 55h1M42 55h1M12 56h1M15 56h2M21 56h4M75 56h3M12 57h2M15 57h3M19 57h5M75 57h3M13 58h5M19 58h4M74 58h2M13 59h1M16 59h7M13 60h1M17 60h4M18 61h2M18 62h1" />
<path stroke="#6a5241" d="M89 10h1M88 11h2M87 12h2M84 13h5M82 14h6M80 15h7M78 16h7M76 17h8M86 17h3M74 18h8M84 18h5M71 19h9M82 19h6M68 20h9M80 20h7M66 21h9M77 21h9M64 22h9M75 22h9M86 22h1M64 23h18M84 23h3M63 24h17M82 24h4M63 25h14M80 25h6M62 26h13M77 26h8M62 27h11M75 27h9M62 28h20M62 29h18M62 30h15M80 30h4M61 31h13M77 31h7M61 32h11M74 32h9M60 33h21M60 34h19M60 35h16M59 36h14M76 36h4M59 37h11M73 37h7M58 38h21M57 39h20M20 40h2M57 40h17M19 41h1M56 41h12M18 42h1M55 42h9M68 42h6M13 43h1M17 43h1M54 43h20M12 44h1M14 44h1M17 44h1M53 44h19M12 45h1M14 45h1M29 45h3M51 45h11M12 46h1M14 46h1M27 46h2M50 46h16M12 47h1M14 47h1M25 47h2M48 47h20M12 48h1M24 48h1M48 48h9M61 48h7M11 49h1M23 49h1M47 49h12M11 50h1M22 50h1M46 50h8M55 50h5M11 51h1M21 51h1M46 51h4M51 51h4M57 51h4M11 52h1M21 52h1M45 52h2M48 52h3M52 52h5M58 52h3M11 53h1M14 53h1M45 53h3M49 53h3M53 53h5M11 54h1M14 54h1M31 54h3M41 54h1M44 54h4M49 54h3M55 54h3M14 55h1M28 55h3M40 55h2M44 55h5M50 55h2M26 56h2M40 56h2M43 56h7M24 57h1M39 57h13M39 58h12M24 59h2M40 59h9M22 60h2M26 60h3M42 60h5M24 61h1M25 62h2M27 63h1M23 64h2M27 64h1M23 65h2M26 66h1M26 67h1M27 68h1M55 71h4M55 72h5M26 73h1M30 73h1M55 73h5M26 74h1M30 74h1M53 74h1M55 74h5M53 75h6M25 76h1M55 76h6M25 77h1M49 77h2M56 77h4M45 78h1M49 78h1M52 78h2M57 78h4M45 79h1M52 79h1M58 79h1M60 79h2M52 80h1M58 80h2M59 81h1M33 82h1M52 87h1" />
<path stroke="#000000" d="M90 10h1M90 11h1M89 12h1M89 13h1M88 14h1M25 15h2M87 15h1M27 16h1M86 16h1M27 17h1M84 17h2M28 18h1M82 18h2M28 19h1M81 19h1M88 19h1M31 20h2M78 20h2M87 20h1M30 21h1M33 21h1M86 21h1M30 22h1M33 22h1M85 22h1M87 22h1M33 23h1M83 23h1M87 23h1M34 24h1M81 24h1M34 25h1M86 25h1M34 26h1M85 26h1M34 27h1M36 27h2M84 27h1M34 28h2M38 28h1M82 28h2M38 29h1M80 29h2M38 30h1M84 30h1M38 31h1M84 31h1M38 32h1M83 32h1M81 33h2M39 34h1M79 34h2M37 35h1M39 35h1M37 36h1M80 36h1M80 37h1M79 38h1M39 39h1M41 39h1M77 39h1M29 40h1M41 40h1M75 40h2M21 41h1M29 41h1M41 41h1M72 41h2M21 42h1M24 42h1M28 42h1M40 42h1M74 42h1M21 43h1M24 43h1M27 43h1M74 43h1M21 44h1M27 44h3M72 44h2M16 45h1M21 45h1M32 45h1M63 45h2M69 45h3M16 46h1M21 46h1M32 46h1M66 46h2M15 47h1M21 47h1M31 47h1M34 47h1M68 47h1M15 48h1M21 48h1M31 48h1M34 48h1M68 48h1M15 49h1M21 49h1M30 49h1M38 49h1M59 49h1M61 49h7M14 50h1M20 50h1M30 50h1M37 50h1M60 50h1M14 51h1M20 51h1M29 51h1M35 51h2M61 51h1M14 52h1M20 52h1M28 52h1M57 52h1M61 52h1M63 52h5M20 53h1M27 53h1M37 53h1M52 53h1M58 53h3M63 53h1M68 53h4M19 54h1M27 54h1M34 54h2M48 54h1M52 54h3M58 54h1M63 54h1M72 54h3M19 55h1M36 55h3M49 55h1M52 55h1M55 55h3M63 55h2M75 55h2M39 56h1M50 56h2M62 56h1M65 56h2M38 57h1M62 57h1M67 57h3M81 57h1M23 58h1M36 58h2M59 58h1M61 58h1M63 58h1M70 58h2M82 58h1M23 59h1M33 59h3M60 59h2M64 59h2M72 59h1M82 59h1M14 60h1M29 60h4M35 60h4M60 60h1M62 60h1M66 60h1M74 60h3M81 60h1M14 61h1M23 61h1M33 61h2M37 61h1M51 61h1M60 61h1M63 61h1M67 61h2M77 61h4M13 62h1M21 62h1M24 62h1M38 62h1M50 62h1M60 62h1M64 62h1M69 62h2M78 62h1M13 63h1M20 63h1M24 63h1M38 63h2M61 63h1M71 63h2M76 63h2M25 64h1M28 64h2M38 64h1M40 64h1M61 64h6M72 64h4M25 65h1M30 65h4M38 65h1M49 65h1M61 65h1M67 65h5M23 66h1M38 66h1M44 66h2M50 66h1M61 66h1M17 67h2M22 67h1M38 67h1M46 67h5M61 67h1M15 68h2M22 68h1M38 68h1M47 68h1M51 68h1M61 68h1M11 69h1M14 69h1M22 69h1M32 69h2M36 69h1M38 69h1M46 69h1M52 69h1M62 69h1M12 70h1M14 70h1M21 70h1M29 70h1M34 70h1M37 70h1M46 70h1M53 70h1M62 70h1M13 71h2M18 71h1M21 71h1M30 71h1M35 71h1M37 71h1M46 71h1M54 71h1M62 71h1M18 72h3M26 72h1M29 72h1M35 72h1M45 72h1M52 72h1M54 72h1M61 72h1M25 73h1M29 73h1M33 73h1M36 73h1M45 73h1M53 73h1M61 73h1M25 74h1M27 74h3M31 74h2M36 74h1M42 74h3M49 74h3M60 74h1M25 75h2M30 75h1M41 75h1M46 75h3M52 75h1M60 75h1M28 76h2M40 76h1M45 76h1M50 76h1M53 76h2M61 76h1M24 77h1M26 77h2M30 77h1M41 77h1M52 77h1M55 77h1M24 78h2M31 78h1M36 78h1M39 78h2M48 78h1M50 78h2M56 78h1M32 79h1M36 79h2M39 79h1M44 79h1M46 79h4M51 79h1M57 79h1M36 80h1M38 80h2M45 80h1M51 80h1M53 80h1M55 80h1M57 80h1M61 80h3M34 81h1M36 81h1M39 81h1M50 81h1M52 81h1M57 81h1M60 81h1M31 82h1M35 82h1M56 82h1M59 82h2M32 83h3M51 83h1M56 83h1M60 83h1M51 84h1M55 84h1M55 85h1M55 86h1M50 87h1M54 87h1M51 88h3" />
<path stroke="#413120" d="M87 11h1M84 12h3M82 13h2M80 14h2M78 15h2M76 16h2M85 16h1M87 16h2M74 17h2M89 17h1M71 18h3M89 18h1M68 19h3M80 19h1M66 20h2M77 20h1M64 21h2M75 21h2M63 22h1M73 22h2M84 22h1M63 23h1M82 23h1M62 24h1M80 24h1M86 24h1M62 25h1M77 25h3M61 26h1M75 26h2M61 27h1M73 27h2M61 28h1M61 29h1M82 29h3M61 30h1M77 30h3M60 31h1M74 31h3M60 32h1M72 32h2M59 33h1M59 34h1M59 35h1M76 35h4M58 36h1M73 36h3M58 37h1M70 37h3M57 38h1M56 39h1M78 39h1M56 40h1M74 40h1M55 41h1M68 41h4M54 42h1M64 42h4M53 43h1M51 44h2M50 45h1M62 45h1M65 45h4M48 46h2M47 47h1M47 48h1M57 48h4M46 49h1M60 49h1M45 50h1M54 50h1M45 51h1M50 51h1M55 51h2M44 52h1M47 52h1M51 52h1M44 53h1M48 53h1M43 54h1M59 54h2M43 55h1M53 55h2M58 55h5M42 56h1M52 56h10M52 57h10M38 58h1M51 58h8M60 58h1M36 59h4M49 59h11M33 60h2M39 60h3M47 60h13M29 61h4M38 61h13M52 61h8M19 62h1M23 62h1M31 62h1M39 62h11M51 62h9M18 63h1M21 63h1M23 63h1M32 63h1M40 63h21M62 63h4M22 64h1M33 64h1M39 64h1M41 64h20M67 64h1M28 65h1M39 65h10M50 65h11M28 66h1M39 66h5M46 66h4M51 66h10M28 67h1M39 67h7M51 67h10M39 68h8M52 68h9M27 69h1M39 69h7M53 69h9M36 70h1M38 70h8M54 70h8M36 71h1M38 71h8M59 71h3M30 72h2M36 72h9M60 72h1M27 73h1M31 73h1M37 73h8M52 73h1M54 73h1M60 73h1M37 74h5M52 74h1M54 74h1M37 75h4M59 75h1M24 76h1M26 76h1M37 76h3M49 76h1M38 77h3M44 77h2M48 77h1M60 77h1M37 78h2M44 78h1M46 78h1M61 78h1M38 79h1M53 79h1M59 79h1M62 79h1M60 80h1M33 81h1M58 81h1M32 82h1M34 82h1M52 86h2M51 87h1M53 87h1" />
<path stroke="#7b734a" d="M24 40h1M28 40h1M23 41h2M26 41h2M22 42h1M25 42h1M23 44h1M26 44h1M32 70h1" />
<path stroke="#e6e6e6" d="M20 41h1M19 42h2M18 43h3M13 44h1M18 44h3M13 45h1M17 45h4M13 46h1M17 46h4M29 46h3M13 47h1M16 47h5M27 47h4M13 48h2M16 48h5M25 48h6M12 49h3M16 49h4M24 49h6M12 50h2M15 50h5M23 50h6M12 51h2M15 51h5M22 51h7M12 52h2M15 52h5M22 52h6M12 53h2M15 53h1M17 53h2M21 53h6M12 54h2M18 54h1M20 54h4M13 55h1M18 55h1M20 55h1M31 55h5M13 56h1M18 56h1M28 56h11M25 57h13M25 58h11M26 59h7M24 60h2M25 61h4M20 62h1M22 62h1M27 62h4M22 63h1M25 63h2M28 63h4M21 64h1M26 64h1M30 64h3M26 65h2M27 66h1M27 67h1" />
<path stroke="#d5cdac" d="M28 41h1M23 42h1M26 42h2M22 43h2M25 43h2M22 44h1M24 44h2M22 45h7M22 46h5M22 47h3M22 48h2M33 48h1M22 49h1M32 49h1M36 49h2M21 50h1M31 50h1M34 50h3M30 51h5M29 52h5M28 53h9M28 54h3M27 55h1M24 58h1" />
<path stroke="#625220" d="M36 48h3M33 49h3M32 50h2M34 52h3M16 63h1M12 64h1M19 64h1M11 65h1M15 65h1M11 66h1M10 67h1M10 68h1M18 68h1M28 70h1M31 70h1M27 71h1M33 71h1M33 72h2M32 73h1M35 73h1M33 74h1M28 75h1M31 75h1M33 75h1M32 76h1M34 76h1M36 76h1M47 76h1M52 76h1M37 77h1M33 79h2M55 79h1M32 80h1M35 80h1M49 80h1M32 81h1M53 81h2M51 82h1M52 84h2M51 85h1M54 85h1M51 86h1" />
<path stroke="#acacb4" d="M20 49h1M29 50h1M19 53h1M21 61h2M19 63h1M20 64h1" />
<path stroke="#eecd29" d="M78 57h2M76 58h3M75 59h2M73 60h1M72 61h2M14 63h2M13 64h3M17 64h1M12 65h3M16 65h4M12 66h6M11 67h5M11 68h4M12 69h2M21 69h1M13 70h1M20 70h1M19 71h1M28 71h2M31 71h2M27 72h2M32 72h1M49 75h2M46 76h1M48 76h1M46 77h2M53 77h2M54 78h1M54 79h1M33 80h2M56 80h1M35 81h1M54 86h1" />
<path stroke="#cda410" d="M79 58h1M74 59h1M77 59h1M72 60h1M70 61h2M74 61h1M14 62h1M61 62h3M65 62h3M71 62h2M66 63h4M16 64h1M18 64h1M20 65h3M18 66h1M22 66h1M16 67h1M21 68h1M18 70h1M33 70h1M20 71h1M34 71h1M28 73h1M34 73h1M34 74h2M27 75h1M29 75h1M32 75h1M34 75h3M51 75h1M27 76h1M30 76h2M33 76h1M35 76h1M51 76h1M31 77h6M51 77h1M32 78h4M47 78h1M55 78h1M35 79h1M50 79h1M56 79h1M50 80h1M54 80h1M51 81h1M55 81h2M52 82h4M52 83h4M54 84h1M52 85h2" />
<path stroke="#a43131" d="M80 58h2M78 59h4M15 60h1M77 60h4M15 61h2M75 61h2M15 62h2M73 62h5M17 63h1M70 63h1M73 63h3M68 64h4M21 66h1M19 67h3M19 68h2M18 69h3M19 70h1" />
</svg>