<svg xmlns="http://www.w3.org/2000/svg" viewBox="0 -0.5 96 96" shape-rendering="crispEdges">
<metadata>Made with Pixels to Svg https://codepen.io/shshaw/pen/XbxvNj</metadata>
<path stroke="#ac6a29" d="M45 26h2M44 27h1M47 27h1M44 28h1M49 28h1M44 29h1M50 29h1M45 30h1M51 30h3M62 30h3M54 31h1M59 31h3M58 32h1M42 36h1M57 40h1M71 40h1M71 41h1M52 42h1M70 42h1M29 51h1M26 52h1M63 52h1M25 53h1M30 53h1M22 54h1M26 54h1M24 55h1M50 55h3M25 56h1M28 56h1M31 56h1M44 56h1M49 56h1M56 56h2M33 57h2M48 57h1M50 57h1M59 57h1M40 58h1M32 59h1M53 59h1M27 60h1M61 60h2M64 60h2M50 61h1M28 63h1M32 63h1M27 64h1M26 65h1M30 65h1M55 65h1M57 65h1M54 66h1" />
<path stroke="#fff683" d="M45 27h2M46 28h3M47 29h3M48 30h3M48 31h6M62 31h2M47 32h1M51 32h6M59 32h3M45 33h2M52 33h9M44 34h3M51 34h9M44 35h4M50 35h10M43 36h16M43 37h2M46 37h13M43 38h3M47 38h12M71 38h1M44 39h2M47 39h11M69 39h2M45 40h2M48 40h7M69 40h2M45 41h2M48 41h5M68 41h2M46 42h1M48 42h4M54 42h3M69 42h1M46 43h5M53 43h3M47 44h1M67 45h2M66 46h4M66 47h4M66 48h4M66 49h3M65 50h4M48 51h2M66 51h2M27 52h3M46 52h6M56 52h3M28 53h2M48 53h4M56 53h1M23 54h2M45 54h1M48 54h4M61 54h2M45 55h5M54 55h1M60 55h4M29 56h2M36 56h2M46 56h2M52 56h1M54 56h2M28 57h4M35 57h4M51 57h2M54 57h2M27 58h5M34 58h3M50 58h3M54 58h2M28 59h4M50 59h3M54 59h2M28 60h4M51 60h1M53 60h3M28 61h4M53 61h2M31 62h1M53 62h2M29 63h2M53 63h1M28 64h3M27 65h3M55 66h2M55 67h3M57 68h1" />
<path stroke="#101010" d="M48 27h1M45 31h1M55 31h2M65 31h1M45 32h1M57 32h1M65 32h1M62 37h1M42 38h1M46 38h1M62 38h1M43 39h1M46 39h1M62 39h1M43 40h1M47 40h1M55 40h2M63 40h1M44 41h1M53 41h2M63 41h1M45 42h1M63 42h1M45 43h1M61 43h1M46 44h1M59 44h1M46 45h1M55 45h2M51 46h5M42 47h2M46 47h3M53 47h3M62 47h1M44 48h4M53 48h3M60 48h2M70 48h1M54 49h3M58 49h2M70 49h1M55 50h2M64 50h1M70 50h1M70 51h1M30 52h1M42 52h1M45 52h1M55 52h1M61 52h1M43 53h2M54 53h1M61 53h2M31 54h1M44 54h1M54 54h1M57 54h1M59 54h2M63 54h1M69 54h1M31 55h1M42 55h2M53 55h1M57 55h2M64 55h1M39 56h1M43 56h1M50 56h2M53 56h1M62 56h3M68 56h1M32 57h1M39 57h1M43 57h2M49 57h1M53 57h1M61 57h1M26 58h1M32 58h1M43 58h2M48 58h2M53 58h1M60 58h1M67 58h1M26 59h1M41 59h1M44 59h1M48 59h2M60 59h1M66 59h1M40 60h1M42 60h4M49 60h1M52 60h1M59 60h1M27 61h1M38 61h2M46 61h4M52 61h1M59 61h1M61 61h1M28 62h1M33 62h5M50 62h1M52 62h1M59 62h3M64 62h3M33 63h1M51 63h2M58 63h1M62 63h2M32 64h1M58 64h1M31 65h1M53 65h1M58 65h1M27 66h3M53 66h1M54 67h1M58 67h1M55 68h1M58 68h1M56 69h3" />
<path stroke="#eecd31" d="M45 28h1M46 29h1M46 30h1M62 32h1M61 33h1M60 35h1M60 36h1M59 37h3M59 38h3M70 38h1M58 39h4M58 40h5M55 41h8M70 41h1M47 42h1M53 42h1M57 42h6M51 43h2M56 43h5M51 44h8M52 45h2M48 46h1M45 49h1M69 49h1M44 50h1M57 50h2M69 50h1M44 51h1M50 51h1M65 51h1M68 51h2M43 52h2M52 52h1M64 52h6M41 53h2M45 53h1M52 53h2M55 53h1M57 53h1M63 53h6M25 54h1M30 54h1M39 54h5M52 54h2M55 54h2M64 54h5M25 55h2M29 55h2M39 55h3M44 55h1M55 55h2M59 55h1M65 55h4M26 56h2M38 56h1M42 56h1M45 56h1M48 56h1M58 56h4M65 56h3M26 57h1M40 57h3M45 57h3M56 57h3M60 57h1M62 57h2M65 57h3M33 58h1M37 58h3M41 58h2M45 58h3M56 58h4M61 58h4M66 58h1M27 59h1M33 59h7M42 59h2M45 59h3M56 59h4M61 59h4M33 60h7M46 60h2M50 60h1M56 60h3M63 60h1M32 61h1M34 61h4M51 61h1M55 61h4M62 61h1M64 61h2M30 62h1M32 62h1M51 62h1M55 62h4M62 62h2M31 63h1M54 63h4M31 64h1M53 64h5M54 65h1M56 65h1M56 68h1" />
<path stroke="#fff6de" d="M45 29h1M46 31h1M48 32h3M64 32h1M47 33h5M62 33h2M47 34h4M61 34h3M48 35h2M61 35h2M61 36h2M48 44h3M47 45h3M51 45h1M49 46h2M46 53h2M46 54h2" />
<path stroke="#cd9c20" d="M47 30h1M47 31h1M46 32h1M44 33h1M43 34h1M43 35h1M70 37h3M69 38h1M72 38h1M68 39h1M71 39h1M68 42h1M27 51h2M59 51h1M23 53h2M59 53h2M29 54h1M58 54h1M36 55h3M35 56h1M27 57h1M32 60h1M48 60h1M60 60h1M33 61h1M60 61h1M29 62h1" />
<path stroke="#bd8b94" d="M64 31h1M63 32h1M60 34h1M59 36h1M45 37h1M44 40h1M47 41h1M67 43h3M43 44h2M67 44h3M43 45h2M50 45h1M59 45h2M58 46h4M59 47h3M49 48h4M48 49h5M46 50h2M51 50h3" />
<path stroke="#8b5218" d="M64 33h1M64 34h1M63 35h1M63 36h1M42 37h1M68 40h1M67 41h1M67 42h1M62 43h1M66 43h1M70 43h1M60 44h1M66 44h1M70 44h1M54 45h1M57 45h2M66 45h1M70 45h1M47 46h1M65 46h1M70 46h1M49 47h2M65 47h1M70 47h1M65 48h1M44 49h1M60 49h1M65 49h1M43 50h1M59 50h1M43 51h1M57 51h2M60 51h1M64 51h1M41 52h1M59 52h2M62 52h1M70 52h1M27 53h1M39 53h2M58 53h1M69 53h1M28 54h1M38 54h1M23 55h1M27 55h2M69 55h1M25 57h1M64 57h1M68 57h1M65 58h1M40 59h1M65 59h1M63 61h1M66 61h1M52 64h1M57 66h1" />
<path stroke="#5a3139" d="M43 43h2M42 44h1M41 45h1M61 45h1M41 46h1M62 46h1M52 47h1M48 48h1M56 48h1M46 49h1M53 49h1M57 49h1M48 50h3M54 50h1M46 51h1M51 51h2M56 51h1M53 52h1M40 56h2" />
<path stroke="#8b626a" d="M45 44h1M42 45h1M45 45h1M69 45h1M42 46h5M56 46h2M44 47h2M51 47h1M56 47h3M57 48h3M47 49h1M45 50h1M45 51h1M47 51h1M53 51h3M54 52h1" />
</svg>