<svg xmlns="http://www.w3.org/2000/svg" viewBox="0 -0.5 96 96" shape-rendering="crispEdges">
<metadata>Made with Pixels to Svg https://codepen.io/shshaw/pen/XbxvNj</metadata>
<path stroke="#73735a" d="M43 7h4M40 8h3M38 9h2M36 10h2M35 11h1M52 11h4M34 12h1M49 12h3M56 12h1M33 13h1M47 13h2M32 14h1M46 14h1M31 15h1M30 16h1M30 17h1M43 18h1M58 18h3M34 19h2M56 19h2M32 20h2M55 20h1M31 21h1M30 22h1M52 22h1M29 23h1M45 23h2M19 24h1M28 24h1M34 24h5M42 24h3M18 25h1M20 25h1M27 25h1M32 25h2M39 25h1M46 25h1M58 25h4M20 26h1M24 26h3M31 26h1M46 26h1M58 26h1M62 26h1M17 27h1M22 27h2M45 27h1M53 27h1M62 27h1M16 28h1M25 28h1M45 28h1M59 28h1M61 28h1M19 29h2M28 29h1M45 29h1M52 29h1M61 29h1M52 30h1M60 30h1M17 31h1M57 31h1M17 32h1M57 32h1M63 34h1M64 35h2M66 36h1M67 37h1M9 38h2M62 38h1M67 38h1M8 39h1M11 39h3M55 39h1M62 39h1M68 39h1M7 40h1M14 40h1M63 40h1M68 40h1M3 41h2M7 41h1M15 41h1M57 41h1M2 42h1M5 42h2M15 42h1M51 42h1M58 42h1M1 43h1M16 43h2M51 43h1M58 43h1M0 44h1M17 44h1M50 44h1M0 45h1M18 45h1M50 45h1M0 46h1M19 46h1M50 46h1M1 47h1M19 47h1M51 47h1M66 47h1M2 48h1M51 48h1M65 48h1M2 49h1M52 49h1M63 49h2M1 50h1M63 50h1M1 51h1M62 51h1M1 52h1M25 52h1M61 52h2M2 53h1M25 53h2M53 53h1M7 54h2M51 54h2M60 54h1M4 55h3M17 55h1M27 55h2M50 55h1M55 55h3M59 55h1M11 56h1M20 56h1M26 56h1M49 56h1M52 56h3M11 57h1M19 57h1M21 57h1M24 57h2M49 57h1M51 57h1M12 58h1M22 58h2M49 58h2" />
<path stroke="#ffffff" d="M43 8h4M40 9h7M38 10h9M37 11h9M35 12h11M52 12h3M34 13h12M49 13h7M33 14h12M47 14h9M32 15h13M46 15h10M31 16h13M45 16h10M31 17h13M45 17h10M30 18h13M44 18h11M30 19h4M36 19h18M31 20h1M34 20h1M36 20h1M40 20h13M32 21h3M40 21h12M31 22h3M40 22h9M50 22h1M26 23h1M30 23h4M39 23h6M47 23h1M49 23h1M51 23h1M29 24h5M39 24h3M45 24h1M48 24h1M50 24h1M19 25h1M28 25h4M34 25h5M42 25h2M18 26h2M27 26h3M32 26h3M38 26h4M18 27h3M24 27h9M17 28h8M27 28h4M16 29h3M22 29h3M29 29h1M17 30h2M22 30h2M18 31h1M23 31h1M18 32h2M23 32h1M19 33h1M62 35h2M61 36h5M62 37h5M61 38h1M63 38h4M9 39h2M56 39h1M60 39h2M63 39h5M8 40h2M13 40h1M56 40h7M64 40h4M8 41h1M14 41h1M58 41h10M3 42h2M7 42h2M14 42h1M52 42h1M57 42h1M59 42h9M2 43h2M7 43h2M14 43h2M52 43h1M57 43h1M59 43h8M1 44h2M8 44h2M13 44h4M51 44h3M56 44h10M1 45h2M9 45h2M12 45h5M51 45h15M1 46h2M9 46h7M51 46h15M2 47h2M7 47h9M52 47h14M3 48h14M52 48h13M3 49h1M6 49h12M54 49h9M2 50h1M8 50h10M56 50h6M2 51h1M9 51h8M57 51h4M2 52h2M7 52h10M3 53h13M3 54h4M9 54h5M10 55h3" />
<path stroke="#101010" d="M47 8h1M47 9h1M47 10h1M46 11h1M46 12h1M46 13h1M56 13h1M45 14h1M56 14h1M45 15h1M56 15h1M44 16h1M55 16h1M24 17h1M44 17h1M55 17h1M24 18h1M55 18h1M24 19h1M54 19h1M61 19h1M25 20h1M35 20h1M54 20h1M61 20h1M25 21h1M35 21h1M53 21h1M61 21h1M25 22h1M60 22h1M34 23h1M60 23h1M26 24h1M46 24h1M59 24h1M24 25h1M40 25h2M44 25h2M17 26h1M21 26h1M35 26h3M42 26h2M54 26h1M57 26h1M16 27h1M21 27h1M33 27h2M38 27h3M15 28h1M26 28h1M31 28h2M51 28h2M15 29h1M21 29h1M25 29h1M27 29h1M30 29h1M49 29h2M58 29h1M16 30h1M19 30h1M21 30h1M25 30h1M29 30h1M46 30h3M56 30h2M16 31h1M19 31h1M22 31h1M24 31h1M53 31h3M59 31h1M22 32h1M24 32h1M58 32h1M18 33h1M20 33h1M23 33h1M19 34h1M21 34h1M33 34h1M59 34h1M22 35h2M30 35h3M43 35h3M55 35h1M60 35h1M24 36h6M46 36h2M55 36h1M59 36h2M56 37h1M61 37h1M31 38h1M48 38h1M56 38h1M29 39h2M49 39h1M57 39h1M52 40h1M50 41h1M52 41h1M68 41h1M68 42h1M53 43h1M67 43h1M46 44h2M54 44h1M66 44h1M48 45h1M66 45h1M3 46h1M7 46h2M47 46h1M49 46h1M66 46h1M4 47h3M25 47h1M47 47h1M50 47h1M68 47h2M83 47h1M17 48h1M25 48h1M46 48h1M67 48h1M69 48h1M83 48h1M18 49h1M26 49h1M45 49h1M53 49h1M69 49h1M80 49h1M83 49h1M18 50h1M26 50h1M44 50h1M53 50h1M66 50h1M69 50h1M77 50h3M82 50h1M17 51h1M52 51h1M65 51h3M69 51h1M75 51h2M80 51h3M4 52h3M17 52h1M27 52h1M43 52h1M52 52h1M63 52h2M68 52h2M74 52h1M82 52h1M16 53h1M27 53h1M43 53h1M60 53h1M62 53h1M70 53h1M74 53h1M82 53h1M2 54h1M17 54h1M42 54h1M62 54h1M70 54h1M83 54h1M3 55h1M9 55h1M42 55h1M71 55h1M83 55h1M91 55h1M94 55h1M10 56h1M43 56h1M71 56h1M83 56h1M87 56h3M15 57h2M34 57h1M43 57h1M71 57h1M82 57h1M86 57h1M90 57h2M93 57h1M13 58h2M17 58h2M34 58h1M44 58h1M70 58h1M74 58h1M82 58h1M92 58h1M45 59h2M70 59h1M75 59h2M80 59h2M92 59h1M47 60h2M64 60h1M68 60h2M77 60h3M83 60h1M93 60h1M61 61h2M65 61h3M83 61h1M93 61h1M31 62h1M60 62h1M83 62h1M93 62h1M31 63h1M59 63h1M84 63h1M92 63h1M32 64h1M59 64h1M84 64h1M92 64h1M32 65h1M58 65h1M85 65h2M90 65h2M33 66h1M49 66h1M58 66h1M87 66h3M33 67h1M49 67h1M58 67h1M62 67h1M86 67h3M91 67h1M34 68h1M50 68h1M62 68h1M84 68h2M91 68h1M35 69h2M50 69h1M62 69h1M84 69h1M90 69h1M37 70h3M51 70h1M63 70h1M83 70h1M88 70h2M91 70h1M35 71h2M40 71h6M52 71h1M58 71h1M64 71h2M77 71h2M83 71h1M91 71h1M53 72h2M57 72h1M60 72h1M65 72h1M75 72h1M80 72h1M83 72h1M91 72h1M38 73h1M55 73h2M60 73h1M64 73h1M68 73h2M84 73h1M90 73h1M92 73h1M62 74h2M66 74h1M71 74h1M74 74h1M84 74h2M89 74h2M93 74h1M36 75h2M60 75h3M74 75h1M83 75h1M86 75h3M91 75h3M39 76h3M65 76h1M81 76h1M65 77h1M70 77h4M75 77h1M79 77h2M77 78h2M80 78h1M66 79h1M71 79h1M79 79h2M68 80h2M71 80h1M70 81h2" />
<path stroke="#211021" d="M23 10h1M23 11h2M23 12h1M25 12h1M23 13h1M25 13h1M23 14h1M26 14h1M24 15h1M27 15h1M24 16h1M27 16h1M28 17h1M29 18h1M29 19h1M30 20h1M42 28h1M42 29h1M43 30h1M43 31h1M44 32h1M44 33h1M59 33h3M44 34h1M62 34h1M56 35h2M41 36h2M58 36h1M40 37h1M48 37h1M60 37h1M60 38h1M52 39h2M58 39h2M10 40h3M49 40h1M54 40h2M9 41h1M13 41h1M28 41h1M56 41h1M9 42h1M13 42h1M27 42h1M56 42h1M4 43h2M12 43h1M26 43h1M3 44h1M6 44h2M10 44h1M12 44h1M26 44h1M55 44h1M3 45h1M8 45h1M11 45h1M25 45h1M44 45h1M25 46h1M4 49h2M3 50h1M6 50h2M3 51h1M8 51h1M26 51h1M28 54h1M73 54h3M29 55h1M60 55h3M72 55h1M76 55h1M29 56h1M57 56h3M64 56h1M76 56h1M84 56h1M29 57h1M54 57h3M65 57h1M73 57h3M85 57h1M29 58h1M52 58h2M65 58h1M71 58h2M86 58h1M30 59h1M50 59h2M64 59h1M83 59h2M87 59h1M30 60h1M43 60h1M49 60h1M55 60h1M63 60h1M85 60h1M87 60h1M30 61h1M43 61h1M56 61h1M39 62h2M43 62h1M50 62h1M57 62h1M32 63h3M38 63h1M41 63h2M57 63h1M35 64h1M38 64h1M49 64h1M58 64h1M36 65h2M49 65h1M60 65h2M59 66h1M62 66h1M91 66h1M32 67h1M59 67h1M89 67h1M32 68h1M58 68h1M32 69h1M58 69h1M88 69h1M32 70h2M49 70h2M33 71h2M37 71h1M46 71h2M59 71h1M37 72h1M42 72h1M59 72h1M62 72h1M64 72h1M36 73h1M62 73h1M81 73h2M36 74h1M38 74h1M40 74h1M42 74h1M60 74h1M80 74h1M40 75h1M42 75h1M71 75h3M82 75h1M38 76h1M70 76h1M74 76h1" />
<path stroke="#b5b59c" d="M36 11h1M55 12h1M58 19h3M53 20h1M56 20h5M52 21h1M54 21h7M34 22h1M49 22h1M51 22h1M53 22h7M48 23h1M50 23h1M52 23h8M47 24h1M49 24h1M51 24h8M47 25h11M30 26h1M47 26h7M55 26h2M59 26h3M46 27h7M54 27h8M46 28h5M53 28h6M60 28h1M46 29h3M53 29h5M59 29h2M24 30h1M53 30h3M58 30h2M58 31h1M6 43h1M9 43h1M13 43h1M17 45h1M16 46h3M16 47h3M18 48h2M54 50h2M62 50h1M53 51h4M61 51h1M23 52h2M53 52h8M21 53h4M54 53h6M14 54h3M18 54h10M53 54h7M13 55h4M18 55h9M51 55h4M58 55h1M12 56h8M21 56h5M50 56h2M12 57h3M17 57h2M22 57h2M50 57h1" />
<path stroke="#9421b5" d="M24 12h1M24 13h1M24 14h2M25 15h2M25 16h2M25 17h3M25 18h2M38 29h1M38 30h2M42 30h1M39 31h1M41 31h2M42 32h2M39 33h1M42 33h2M38 34h3M60 34h2M38 35h3M61 35h1M39 36h1M45 36h1M56 36h2M44 37h4M57 37h3M44 38h4M57 38h3M46 39h2M53 40h1M10 41h3M34 41h4M53 41h3M10 42h3M28 42h2M33 42h7M53 42h3M10 43h2M27 43h4M32 43h8M54 43h3M4 44h2M11 44h1M27 44h13M4 45h4M26 45h13M5 46h2M26 46h5M32 46h7M26 47h4M34 47h4M27 48h3M35 48h3M28 49h1M4 50h2M42 50h2M4 51h4M41 51h3M41 52h2M42 53h1M60 56h3M72 56h2M57 57h8M72 57h1M83 57h2M58 58h7M83 58h2M61 59h2M90 66h1M90 67h1M83 73h1M82 74h2M80 75h2M71 76h3" />
<path stroke="#5a196b" d="M27 18h2M25 19h4M26 20h4M26 21h1M44 36h1M43 37h1M43 38h1M44 39h2M48 39h1M34 40h3M46 40h2M29 41h1M33 41h1M38 41h2M46 41h1M30 42h1M32 42h1M40 42h1M31 43h1M40 43h1M40 44h1M39 45h1M4 46h1M31 46h1M39 46h1M30 47h1M33 47h1M38 47h1M26 48h1M34 48h1M27 49h1M29 49h1M36 49h1M42 49h2M28 50h2M41 50h1M40 51h1M40 52h1M41 53h1M73 55h3M63 56h1M74 56h2M54 58h4M85 58h1M44 59h1M52 59h9M63 59h1M85 59h2M44 60h3M50 60h5M56 60h7M86 60h1M44 61h12M57 61h4M44 62h6M51 62h6M58 62h2M39 63h2M43 63h14M58 63h1M33 64h2M39 64h10M50 64h8M33 65h3M38 65h11M50 65h8M34 66h15M50 66h8M60 66h2M34 67h15M50 67h8M60 67h2M33 68h1M35 68h15M51 68h7M59 68h3M89 68h2M33 69h2M37 69h13M51 69h7M59 69h3M89 69h1M34 70h3M40 70h9M52 70h11M38 71h2M53 71h5M60 71h4M38 72h4M55 72h2M61 72h1M63 72h1M37 73h1M39 73h3M59 73h1M61 73h1M63 73h1M37 74h1M39 74h1M41 74h1M59 74h1M61 74h1M81 74h1M38 75h2M41 75h1" />
<path stroke="#4a638c" d="M37 20h2M36 21h1M39 22h1M21 25h3M39 29h1M28 30h1M41 30h1M32 31h2M20 32h1M29 32h5M35 32h1M41 32h1M26 33h7M34 33h2M38 33h1M22 34h11M34 34h3M24 35h6M33 35h4M32 36h5M38 36h1M40 36h1M32 37h5M32 38h4M28 39h1M31 39h5M26 40h2M30 40h4M37 40h1M25 41h1M31 41h2M25 42h1M31 42h1M24 43h1M45 44h1M40 45h1M45 45h3M44 46h3M32 47h1M44 47h3M21 48h1M30 48h1M38 48h1M19 49h2M30 49h1M35 49h1M37 49h1M19 50h1M18 51h2M21 51h1M36 51h1M18 52h3M29 52h1M36 52h1M17 53h2M29 53h1M37 53h1M33 55h1M33 56h1M33 57h1M42 57h1M41 58h3M40 59h4M38 60h5M35 61h8M32 62h7M41 62h2M35 63h3M36 64h2" />
<path stroke="#19294a" d="M39 20h1M27 21h4M39 21h1M26 22h1M35 22h1M24 23h1M38 23h1M23 24h1M41 27h1M33 29h1M34 30h1M34 31h1M34 32h1M33 33h1M31 36h1M31 37h1M24 44h1M24 45h1M24 46h1M22 47h2M20 48h1M20 50h1M25 50h1M20 51h1M23 51h2M21 52h2M19 53h2M33 54h1M32 55h1M34 55h1M32 56h1M34 56h1M32 57h1M33 58h1" />
<path stroke="#849cce" d="M37 21h2M27 22h3M36 22h3M25 23h1M35 23h3M24 24h1M22 26h2M35 27h3M33 28h9M26 29h1M31 29h2M34 29h4M40 29h2M20 30h1M26 30h2M30 30h4M35 30h3M40 30h1M20 31h2M25 31h7M35 31h4M40 31h1M21 32h1M25 32h4M36 32h5M21 33h2M24 33h2M36 33h2M40 33h2M37 34h1M41 34h3M37 35h1M41 35h2M37 36h1M43 36h1M37 37h3M41 37h2M36 38h7M36 39h8M28 40h2M38 40h8M48 40h1M26 41h2M30 41h1M40 41h6M47 41h3M26 42h1M41 42h10M25 43h1M41 43h10M25 44h1M41 44h4M48 44h2M41 45h3M49 45h1M40 46h4M24 47h1M31 47h1M39 47h5M22 48h3M31 48h3M39 48h7M21 49h5M31 49h4M38 49h4M44 49h1M21 50h4M27 50h1M30 50h11M22 51h1M27 51h9M37 51h3M28 52h1M30 52h6M37 52h3M28 53h1M30 53h7M38 53h3M29 54h4M34 54h8M30 55h2M35 55h7M30 56h2M35 56h8M30 57h2M35 57h7M30 58h3M35 58h6M31 59h9M31 60h7M31 61h4" />
<path stroke="#d69431" d="M27 23h2M25 24h1" />
<path stroke="#e6d600" d="M27 24h1M25 25h2" />
<path stroke="#212121" d="M82 47h1M81 48h1M67 50h2M80 50h2M68 51h1M79 51h1M67 52h1M75 52h1M80 52h2M63 53h1M68 53h2M75 53h1M80 53h2M63 54h1M68 54h2M76 54h1M79 54h4M93 54h2M63 55h2M67 55h4M77 55h6M65 56h6M77 56h6M90 56h4M66 57h5M76 57h6M92 57h1M66 58h4M75 58h7M91 58h1M65 59h5M77 59h3M91 59h1M65 60h3M84 60h1M90 60h3M84 61h9M84 62h9M85 63h7M85 64h7M87 65h3M86 68h3M85 69h3M84 70h4M90 70h1M84 71h7M76 72h1M79 72h1M84 72h7M75 73h1M80 73h1M85 73h5M91 73h1M67 74h1M70 74h1M86 74h3M91 74h2M66 75h1M75 76h1M80 76h1M76 77h1M66 78h1M71 78h1M67 79h1M70 79h1" />
<path stroke="#313131" d="M68 48h1M82 48h1M67 49h2M81 49h2M44 51h1M77 51h2M65 52h2M76 52h4M64 53h4M76 53h4M64 54h4M77 54h2M65 55h2M92 55h2M87 57h3M87 58h4M88 59h3M88 60h2M77 72h2M76 73h4M68 74h2M75 74h5M67 75h4M75 75h5M66 76h4M76 76h4M66 77h4M77 77h2M67 78h4M79 78h1M68 79h2M70 80h1" />
</svg>