<svg xmlns="http://www.w3.org/2000/svg" viewBox="0 -0.5 96 96" shape-rendering="crispEdges">
<metadata>Made with Pixels to Svg https://codepen.io/shshaw/pen/XbxvNj</metadata>
<path stroke="#4a3121" d="M47 2h3M44 3h3M41 4h3M40 5h1M69 5h3M39 6h1M52 6h1M67 6h2M72 6h2M38 7h1M51 7h1M58 7h1M66 7h1M69 7h1M74 7h1M39 8h1M49 8h2M69 8h1M40 9h2M46 9h3M70 9h2M42 10h4M72 10h4M35 13h1M35 14h1M34 15h1M56 15h3M63 15h1M76 15h1M34 16h1M53 16h7M77 16h1M34 17h1M52 17h7M77 17h1M34 18h1M53 18h4M34 19h1M68 19h1M35 20h1M68 20h2M35 21h1M68 21h3M69 22h3M79 22h1M80 23h1M81 24h1M82 25h1M81 26h1M73 27h1M81 27h1M71 28h2M81 28h1M80 29h1M80 30h1M80 31h1M72 34h3M71 35h6M70 36h6M70 37h5M65 38h2M69 38h6M64 39h10M64 40h10M65 41h6M64 42h4M69 42h1M63 43h4M64 44h1" />
<path stroke="#101010" d="M50 2h2M52 3h1M53 4h1M53 5h1M54 6h1M55 7h2M38 8h1M75 8h1M38 9h1M37 10h1M76 10h1M37 11h1M76 11h1M36 12h1M75 12h1M60 15h3M51 16h2M63 16h3M50 17h1M66 17h2M50 18h1M68 18h1M49 19h1M79 19h1M49 20h1M79 20h1M49 21h1M48 22h1M47 23h1M82 24h2M44 25h2M84 25h1M39 26h5M84 26h1M85 27h1M85 28h1M84 29h1M84 30h1M83 31h1M69 32h1M81 32h2M13 33h1M70 33h2M79 33h2M13 34h1M41 34h4M71 34h1M78 34h1M12 35h1M45 35h5M70 35h1M77 35h1M12 36h1M50 36h1M76 36h1M12 37h1M24 37h1M29 37h1M51 37h1M75 37h1M12 38h1M23 38h1M29 38h1M51 38h1M75 38h1M12 39h1M23 39h1M26 39h1M33 39h1M74 39h1M12 40h1M23 40h1M26 40h1M33 40h1M52 40h1M13 41h1M26 41h1M30 41h1M33 41h1M52 41h1M74 41h1M13 42h1M25 42h1M30 42h1M32 42h1M52 42h1M74 42h1M14 43h2M25 43h1M52 43h1M57 43h5M68 43h2M73 43h1M25 44h1M52 44h1M62 44h2M70 44h3M17 45h1M19 45h1M37 45h1M51 45h1M64 45h1M18 46h1M38 46h1M51 46h1M17 47h1M39 47h1M50 47h1M66 47h1M16 48h1M39 48h1M50 48h1M16 49h1M22 49h1M29 49h1M40 49h1M46 49h4M15 50h1M25 50h1M40 50h6M15 51h1M15 52h1M21 52h1M15 53h1M27 53h1M40 53h1M16 54h1M27 54h3M40 54h1M49 54h1M16 55h1M21 55h1M39 55h1M49 55h1M17 56h1M21 56h1M25 56h2M33 56h1M39 56h1M49 56h1M56 56h1M21 57h1M24 57h1M27 57h1M32 57h1M38 57h1M49 57h1M56 57h1M21 58h2M27 58h1M34 58h1M37 58h1M49 58h1M52 58h2M57 58h1M19 59h1M21 59h1M23 59h2M27 59h1M31 59h1M36 59h1M48 59h1M55 59h3M20 60h1M27 60h1M30 60h1M35 60h1M48 60h1M58 60h1M28 61h1M30 61h1M48 61h1M59 61h1M29 62h1M38 62h1M47 62h1M61 62h1M38 63h1M47 63h1M72 63h1M38 64h1M47 64h1M72 64h1M38 65h1M47 65h1M72 65h1M21 66h1M38 66h1M46 66h1M72 66h1M21 67h1M38 67h1M46 67h1M71 67h1M21 68h1M37 68h1M71 68h1M20 69h1M37 69h1M71 69h2M20 70h1M36 70h1M46 70h1M73 70h1M20 71h1M36 71h1M46 71h1M77 71h1M21 72h1M35 72h2M46 72h1M21 73h1M35 73h1M46 73h1M74 73h2M34 74h2M46 74h1M60 74h1M33 75h1M54 75h1M59 75h1M72 75h1M25 76h1M28 76h1M31 76h2M51 76h2M56 76h1M59 76h1M70 76h2M26 77h3M30 77h1M50 77h1M56 77h2M61 77h1M68 77h1M30 78h1M50 78h1M58 78h4M64 78h4M29 79h1M61 79h2M49 80h1M31 81h1M47 81h2M30 82h1M34 82h1M30 83h1M33 83h1M30 84h1M33 84h1M44 84h2M32 85h1M36 85h1M34 86h2M40 86h1M32 87h2M39 87h4M36 88h2" />
<path stroke="#ef6308" d="M47 3h5M44 4h9M41 5h12M40 6h12M69 6h3M39 7h12M70 7h4M40 8h9M70 8h5M42 9h4M72 9h4M83 25h1M82 26h2M82 27h3M82 28h3M81 29h3M81 30h3M81 31h2M28 37h1M24 38h1M28 38h1M24 39h1M27 39h2M32 39h1M24 40h1M27 40h2M32 40h1M24 41h1M27 41h2M31 41h2M72 41h2M24 42h1M26 42h3M31 42h1M71 42h3M26 43h2M31 43h1M71 43h2M26 44h2M26 45h1M52 46h2M52 47h3M63 47h1M54 48h1M64 48h2M50 49h1M53 49h1M61 49h1M63 49h4M50 50h1M62 50h6M62 51h6M46 52h1M63 52h5M46 53h2M63 53h5M44 54h1M46 54h3M66 54h2M45 55h4M66 55h2M45 56h4M66 56h1M45 57h4M44 58h1M46 58h3M46 59h2M47 60h1M46 61h2M37 70h1M37 71h2M41 71h4M38 72h7M39 73h4M61 74h1M29 75h1M58 75h1M60 75h3M64 75h1M27 76h1M57 76h2M60 76h2M63 76h2M59 77h2M63 77h2M62 78h1M33 81h1M32 82h1M32 83h1M34 83h2M31 84h2M34 84h2M38 84h2M31 85h1M33 85h3M38 85h3M33 86h1M37 86h2M37 87h1" />
<path stroke="#6b4229" d="M53 6h1M52 7h3M67 7h2M51 8h8M66 8h3M39 9h1M49 9h21M38 10h4M46 10h26M38 11h38M37 12h38M36 13h39M36 14h39M35 15h18M64 15h12M35 16h16M66 16h11M35 17h15M68 17h9M35 18h15M69 18h9M35 19h14M69 19h10M36 20h13M70 20h9M36 21h13M72 21h7M36 22h12M73 22h6M37 23h10M73 23h7M37 24h9M74 24h7M39 25h5M74 25h8M74 26h7M74 27h7M73 28h8M71 29h9M70 30h10M70 31h10M70 32h11M72 33h7M75 34h3" />
<path stroke="#291910" d="M57 7h1M59 8h7M76 9h1M75 13h1M75 14h1M53 15h3M59 15h1M60 16h1M51 17h1M59 17h1M52 18h1M57 18h2M67 18h1M78 18h1M53 19h4M67 19h1M67 20h1M67 21h1M71 21h1M79 21h1M35 22h1M68 22h1M72 22h1M36 23h1M69 23h4M36 24h1M46 24h1M73 24h1M37 25h2M73 25h1M70 29h1M69 30h1M69 31h1M65 37h2M69 37h1M64 38h1M67 38h2M63 39h1M63 40h1M64 41h1M71 41h1M63 42h1M68 42h1M70 42h1M62 43h1M67 43h1M70 43h1M65 44h2" />
<path stroke="#5a735a" d="M17 30h4M15 31h2M21 31h3M28 31h7M14 32h1M25 32h3M35 32h4M39 33h2M49 37h1M48 38h1M13 39h1M48 39h1M51 39h1M14 40h2M47 41h1M14 42h1M47 42h2M47 43h1M16 44h1M47 44h1M18 45h1M47 45h1M48 46h1M45 47h4M17 48h1M49 48h1M25 51h1M26 52h1M17 53h1M23 53h1M26 53h1M17 54h1M23 54h1M17 55h1M22 56h1M18 57h1M23 57h1M18 58h1M28 60h1M31 63h1M31 64h1M34 64h1M58 64h1M61 64h2M30 65h1M33 65h1M59 65h2M31 66h1M33 66h1M34 67h1M49 67h2M55 67h3M77 67h2M30 68h2M35 68h1M51 68h1M54 68h1M60 68h1M75 68h2M78 68h1M29 69h1M35 69h1M58 69h2M74 69h1M77 69h1M29 70h1M34 70h1M57 70h1M62 70h2M68 70h2M71 70h1M74 70h1M77 70h1M25 71h1M29 71h1M34 71h1M54 71h2M57 71h1M64 71h1M67 71h1M70 71h1M73 71h1M26 72h3M34 72h1M53 72h1M55 72h2M65 72h3M76 72h1M33 73h1M47 73h2M51 73h2M55 73h1M57 73h1M22 74h1M28 74h2M32 74h2M49 74h2M54 74h1M57 74h1M72 74h2M23 75h2M27 75h1M30 75h2M35 75h2M26 76h1M33 76h1M36 76h1M39 76h3M53 76h1M69 76h1M36 77h1M38 77h1M42 77h1M45 77h2M37 78h1M43 78h2M49 79h1M28 80h1M28 81h1M28 82h1M46 82h1M29 83h1M46 83h1M43 85h1M43 86h1" />
<path stroke="#ffffff" d="M17 31h4M15 32h2M18 32h5M29 32h6M14 33h25M14 34h27M16 35h29M13 36h15M30 36h20M13 37h11M26 37h1M30 37h15M47 37h2M14 38h5M21 38h2M26 38h1M30 38h2M34 38h13M16 39h3M30 39h1M34 39h14M18 40h1M30 40h1M34 40h1M39 40h8M39 41h8M39 42h5M39 43h8M38 44h9M38 45h7M39 46h2M38 47h1M38 48h1M38 49h2M19 50h1M24 50h1M29 50h1M37 50h3M19 51h1M23 51h1M36 51h5M18 52h3M22 52h2M35 52h6M18 53h5M33 53h7M18 54h5M31 54h9M18 55h3M22 55h1M28 55h11M18 56h3M27 56h6M34 56h5M19 57h2M28 57h4M35 57h3M19 58h2M28 58h3M35 58h2M20 59h1M29 59h2M35 59h1M29 60h1M29 61h1M32 63h2M32 64h2M31 65h2M58 65h1M61 65h1M32 66h1M59 66h3M60 67h2M77 68h1M60 69h1M75 69h2M58 70h4M76 70h1M58 71h6M54 72h1M57 72h8M53 73h2M58 73h9M51 74h3M64 74h4M34 75h1M50 75h4M66 75h1M34 76h2M31 77h5M39 77h3M31 78h5M38 78h5M45 78h2M30 79h7M38 79h9M29 80h14M45 80h1M29 81h2M34 81h9M29 82h1M36 82h6M40 83h1" />
<path stroke="#a5bda5" d="M17 32h1M23 32h2M28 32h1M13 35h3M45 37h2M50 37h1M13 38h1M47 38h1M49 38h2M14 39h2M49 39h2M13 40h1M16 40h2M47 40h5M14 41h5M48 41h4M15 42h4M44 42h3M49 42h3M16 43h4M48 43h4M17 44h3M48 44h4M45 45h2M48 45h3M19 46h1M41 46h7M49 46h2M18 47h1M40 47h5M49 47h1M18 48h1M40 48h9M17 49h2M41 49h5M16 50h3M16 51h3M24 51h1M41 51h1M16 52h2M24 52h2M41 52h1M16 53h1M24 53h2M24 54h3M23 55h5M23 56h2M34 57h1M31 58h1M28 59h1M57 65h1M47 66h1M57 66h2M32 67h2M47 67h2M58 67h2M32 68h3M47 68h4M55 68h5M21 69h1M30 69h5M47 69h1M50 69h8M21 70h2M30 70h4M52 70h5M72 70h1M75 70h1M21 71h3M30 71h4M53 71h1M56 71h1M68 71h2M71 71h2M74 71h3M22 72h4M29 72h5M68 72h8M22 73h11M67 73h7M23 74h5M30 74h2M47 74h2M59 74h1M63 74h1M68 74h4M25 75h2M47 75h3M65 75h1M67 75h5M47 76h4M66 76h3M47 77h3M66 77h2M36 78h1M47 78h3M37 79h1M47 79h2M43 80h2M46 80h3M43 81h4M42 82h4M37 83h1M41 83h5M41 84h3M41 85h2M41 86h2" />
<path stroke="#73423a" d="M28 36h2M25 37h1M27 37h1M25 38h1M27 38h1M32 38h2M25 39h1M29 39h1M31 39h1M25 40h1M29 40h1M31 40h1M23 41h1M25 41h1M29 41h1M29 42h1M24 43h1M28 43h1M30 43h1M32 43h1M28 44h1M30 44h2M25 45h1M27 45h1M26 46h1M48 69h2M47 70h1M50 70h2M49 71h1M52 71h1M48 72h1M52 72h1M49 73h2M58 74h1M62 74h1M57 75h1M63 75h1M62 76h1M65 76h1M58 77h1M62 77h1M65 77h1M63 78h1M32 81h1M31 82h1M33 82h1M35 82h1M36 83h1M38 83h2M37 84h1M40 84h1M30 85h1M30 86h3M36 86h1M36 87h1M38 87h1" />
<path stroke="#523119" d="M19 38h2M19 39h1M22 39h1M35 40h4M38 41h1M20 43h1M20 44h1M54 44h3M52 45h2M20 46h2M37 46h1M65 46h1M21 47h1M30 47h3M37 47h1M22 48h1M28 48h2M33 48h1M67 48h1M27 49h1M67 49h1M26 50h1M56 50h1M68 50h1M20 51h1M68 51h1M48 52h1M68 52h1M31 53h2M48 53h1M68 53h1M30 54h1M55 54h1M69 54h1M55 55h1M69 55h1M69 56h1M69 57h1M54 58h1M33 59h2M50 59h2M70 59h1M25 60h2M31 60h2M49 60h1M56 60h1M71 60h1M20 61h1M38 61h1M56 61h1M60 61h1M71 61h1M20 62h1M32 62h2M49 62h1M57 62h1M62 62h1M72 62h1M20 63h1M29 63h1M34 63h4M57 63h1M63 63h1M20 64h1M29 64h1M49 64h1M57 64h1M63 64h1M21 65h1M49 65h1M56 65h1M62 65h1M30 66h1M48 66h1M56 66h1M62 66h1M31 67h1M62 67h1M22 68h1M46 68h1M61 68h1M22 69h1M46 69h1M61 69h1M23 70h1M24 71h1M46 75h1M46 76h1" />
<path stroke="#ffa529" d="M20 39h2M20 40h3M20 41h3M36 41h2M20 42h4M33 42h5M21 43h3M29 43h1M33 43h5M21 44h4M29 44h1M32 44h6M57 44h5M21 45h4M28 45h9M54 45h10M22 46h4M27 46h9M55 46h10M20 47h1M22 47h2M25 47h5M33 47h4M56 47h7M20 48h1M23 48h1M25 48h1M27 48h1M32 48h1M34 48h3M51 48h1M56 48h1M58 48h4M20 49h1M25 49h1M33 49h4M52 49h1M55 49h1M57 49h4M20 50h2M33 50h3M46 50h3M52 50h4M57 50h4M21 51h1M26 51h2M32 51h3M42 51h8M52 51h9M27 52h6M42 52h4M49 52h12M28 53h3M41 53h4M49 53h6M56 53h6M41 54h3M50 54h5M56 54h7M40 55h4M50 55h5M56 55h9M40 56h4M50 56h1M57 56h8M68 56h1M39 57h5M57 57h8M67 57h2M38 58h6M58 58h11M38 59h7M58 59h10M38 60h8M59 60h8M39 61h6M61 61h4M39 62h6M39 63h8M39 64h8M39 65h8M39 66h7M39 67h7M38 68h8M38 69h8M62 69h4M39 70h4M45 70h1M64 70h3M65 71h2M36 73h2M45 73h1M36 74h3M43 74h3M37 75h9M37 76h2M42 76h4M37 77h1M43 77h2" />
<path stroke="#b57319" d="M19 40h1M19 41h1M34 41h2M19 42h1M38 42h1M38 43h1M20 45h1M36 46h1M19 47h1M24 47h1M19 48h1M24 48h1M26 48h1M31 48h1M37 48h1M57 48h1M19 49h1M23 49h2M26 49h1M32 49h1M37 49h1M56 49h1M23 50h1M27 50h1M32 50h1M36 50h1M22 51h1M28 51h1M31 51h1M35 51h1M33 52h2M55 53h1M51 56h5M22 57h1M25 57h2M33 57h1M50 57h6M23 58h4M32 58h2M50 58h2M55 58h2M69 58h1M22 59h1M25 59h2M32 59h1M37 59h1M49 59h1M52 59h3M68 59h2M21 60h4M33 60h2M36 60h2M50 60h6M67 60h4M21 61h7M49 61h7M65 61h6M21 62h8M50 62h7M63 62h9M21 63h8M50 63h7M64 63h8M21 64h8M51 64h2M56 64h1M64 64h4M70 64h2M22 65h8M65 65h1M71 65h1M23 66h4M29 66h1M49 66h1M54 66h2M70 66h2M24 67h1M29 67h2M51 67h4M69 67h2M28 68h2M52 68h2M62 68h2M67 68h4M23 69h1M26 69h3M66 69h5M24 70h5M67 70h1M70 70h1M26 71h3" />
<path stroke="#ad5221" d="M54 46h1M51 47h1M55 47h1M64 47h2M52 48h2M55 48h1M62 48h2M66 48h1M51 49h1M54 49h1M62 49h1M49 50h1M51 50h1M61 50h1M50 51h2M61 51h1M47 52h1M61 52h2M45 53h1M62 53h1M45 54h1M63 54h3M68 54h1M44 55h1M65 55h1M68 55h1M44 56h1M65 56h1M67 56h1M44 57h1M65 57h2M45 58h1M45 59h1M46 60h1M31 61h7M45 61h1M34 62h4M45 62h2M50 64h1M53 64h3M68 64h2M50 65h6M63 65h2M66 65h5M22 66h1M27 66h2M50 66h4M63 66h7M22 67h2M25 67h4M63 67h6M23 68h5M64 68h3M24 69h2M38 70h1M43 70h2M48 70h2M39 71h2M45 71h1M47 71h2M50 71h2M37 72h1M45 72h1M47 72h1M49 72h3M38 73h1M43 73h2M39 74h4M28 75h1M29 76h2M31 83h1M36 84h1M37 85h1M39 86h1" />
<path stroke="#ffc500" d="M21 48h1M30 48h1M21 49h1M28 49h1M30 49h2M22 50h1M28 50h1M30 50h2M29 51h2" />
</svg>