<svg xmlns="http://www.w3.org/2000/svg" viewBox="0 -0.5 96 96" shape-rendering="crispEdges">
<metadata>Made with Pixels to Svg https://codepen.io/shshaw/pen/XbxvNj</metadata>
<path stroke="#393941" d="M35 22h1M43 22h1M34 23h1M42 23h1M41 24h1M41 25h1M40 26h1M38 27h1M40 27h1M35 28h1M39 29h1M36 30h1M38 30h1M38 31h1M36 32h1M47 32h1M35 33h1M37 33h1M46 33h1M51 33h1M35 34h1M38 34h2M51 34h1M34 35h1M35 38h1M38 39h1M61 39h4M59 40h2M65 40h1M32 41h2M38 41h1M65 41h1M31 42h1M34 42h1M37 42h1M31 43h1M34 43h1M42 43h2M49 43h1M56 43h1M46 44h1M58 44h1M34 45h1M40 45h2M46 45h1M38 46h1M45 46h1M54 46h1M37 47h1M44 47h1M52 47h1M36 48h1M47 48h2M39 49h2M44 49h1M46 49h1M36 50h1M46 50h1M37 51h2M39 52h1M42 52h1M41 53h2M46 53h1M42 54h1M47 54h1M41 55h1M47 55h1M48 56h1M42 58h1M42 59h1M42 60h1M46 67h1" />
<path stroke="#73737b" d="M35 23h1M43 23h1M35 24h2M42 24h2M35 25h2M42 25h1M35 26h3M35 27h3M36 28h2M36 29h1M36 33h1M36 34h1M36 35h1M61 40h4M59 41h6M32 42h2M41 42h1M49 42h1M58 42h5M32 43h2M44 43h1M57 43h4M32 44h2M56 44h1M55 45h1M39 46h3M53 46h1M38 47h3M46 47h2M50 47h2M37 48h4M37 49h2M43 53h3M43 54h4M42 55h5M43 56h5M43 57h5M43 58h5M44 59h3" />
<path stroke="#101010" d="M36 23h1M44 23h1M34 24h1M37 24h1M44 24h1M34 25h1M37 25h1M44 25h1M34 26h1M38 26h1M34 27h1M35 29h1M54 29h1M55 30h1M37 31h1M37 32h1M48 32h2M56 32h1M56 33h1M37 34h1M37 35h1M57 35h1M34 36h1M37 36h1M57 36h1M34 37h1M37 37h1M57 37h1M37 38h1M35 39h1M36 40h1M38 40h1M39 41h1M58 41h1M40 42h1M57 42h1M64 42h1M36 43h1M48 43h1M62 43h2M31 44h1M35 44h1M45 44h1M47 44h1M57 44h1M59 44h3M32 45h2M47 45h1M56 45h1M42 46h1M47 46h1M55 46h1M42 47h1M45 47h1M53 47h1M41 48h1M44 48h1M49 48h3M36 49h1M38 50h1M61 50h1M46 51h1M62 51h1M46 52h1M63 52h1M64 55h1M64 56h1M48 57h1M64 57h1M39 58h1M49 58h1M64 58h1M31 59h1M38 59h1M49 59h1M32 60h1M37 60h1M49 60h1M63 60h1M33 61h1M36 61h1M41 61h2M48 61h1M62 61h1M35 62h1M40 62h1M43 62h1M48 62h1M61 62h1M35 63h1M38 63h1M43 63h1M47 63h1M37 64h1M44 64h1M47 64h1M37 65h1M44 65h1M47 65h1M60 65h1M36 66h1M45 66h1M48 66h1M60 66h1M36 67h1M47 67h3M60 67h1M35 68h1M61 68h1M35 69h1M61 69h1M34 70h1" />
<path stroke="#5a5a62" d="M43 25h1M41 26h2M38 28h1M37 29h2M37 30h1M35 35h1M35 36h2M35 37h2M36 38h1M36 39h2M37 40h1M37 41h1M36 42h1M63 42h1M35 43h1M47 43h1M61 43h1M34 44h1M55 44h1M39 45h1M54 45h1M46 46h1M52 46h1M41 47h1M48 47h2M45 48h2M45 49h1M37 50h1M39 51h2M40 52h2M45 52h1M42 56h1M42 57h1M48 58h1M43 59h1M47 59h2M43 60h6M43 61h5M44 62h4M44 63h3M45 64h2M45 65h2M46 66h2" />
<path stroke="#416273" d="M43 26h2M48 26h3M41 27h2M51 27h2M40 28h1M46 28h3M53 28h1M50 29h1M51 30h1M52 31h1M55 31h1M52 32h1M53 34h1M57 34h1M53 35h1M52 37h1M52 38h1M57 38h1M51 39h1M51 40h1M56 40h1M51 41h1M56 41h1M50 42h1M56 42h1M50 43h1M50 44h1M50 45h1M57 45h1M50 46h1M58 46h1M58 47h1M59 48h1M51 49h1M60 49h1M43 50h1M51 50h1M58 50h2M43 51h1M52 51h1M55 51h2M52 52h1M54 52h1M53 53h1M63 53h1M54 54h1M64 54h1M55 56h1M55 57h1M54 59h1M63 59h1M53 60h1M53 61h1M55 61h1M52 62h1M58 62h1M52 63h1M61 63h1M51 64h1M60 64h1M51 65h1M51 66h1M51 67h1M51 68h1M52 69h1M52 70h1M62 70h1M63 71h1M54 72h1M55 73h1" />
<path stroke="#73ac9c" d="M45 26h3M44 28h2M41 29h2M49 29h1M52 29h1M40 30h1M53 30h1M39 31h1M53 31h1M54 32h1M38 33h1M53 33h2M54 34h1M56 34h1M54 35h1M53 36h1M55 37h1M54 38h1M52 39h1M54 39h1M56 39h1M53 40h1M53 41h2M53 42h1M52 43h1M52 44h1M54 44h1M52 45h1M57 46h1M54 47h2M53 48h1M56 48h1M58 48h1M54 49h1M56 49h1M59 49h1M45 50h1M54 50h1M57 50h1M60 50h1M57 51h1M60 51h1M43 52h2M53 52h1M56 52h1M58 52h1M61 52h1M54 53h1M56 53h1M59 53h1M61 53h1M58 54h2M62 54h1M55 55h1M60 55h1M62 55h1M60 56h1M62 56h1M58 57h1M60 57h2M55 58h1M57 58h1M60 58h1M57 59h1M59 59h1M56 60h1M59 60h1M61 60h1M54 61h1M58 61h1M60 61h1M55 62h3M59 62h2M55 63h1M57 63h1M60 63h1M54 64h1M57 64h1M54 65h1M56 65h1M59 65h1M54 66h1M56 66h1M59 66h1M54 67h1M59 67h1M54 68h1M57 68h1M59 68h1M55 69h1M57 69h1M59 69h1M55 70h1M58 70h1M60 70h1M53 71h1M56 71h1M58 71h1M61 71h1M57 72h1M59 72h1M62 72h1M58 73h1M60 73h1" />
<path stroke="#a4f6c5" d="M43 27h8M41 28h3M49 28h4M40 29h1M51 29h1M53 29h1M39 30h1M52 30h1M54 30h1M54 31h1M38 32h1M53 32h1M55 32h1M47 33h1M55 33h1M55 34h1M48 35h1M56 35h1M56 36h1M40 37h1M53 37h1M56 37h1M53 38h1M55 38h2M53 39h1M55 39h1M52 40h1M54 40h2M52 41h1M51 42h2M51 43h1M53 43h1M55 43h1M51 44h1M53 44h1M51 45h1M53 45h1M51 46h1M56 46h1M56 47h2M52 48h1M54 48h2M57 48h1M52 49h2M55 49h1M57 49h2M44 50h1M52 50h2M55 50h2M44 51h2M53 51h2M58 51h2M61 51h1M55 52h1M57 52h1M59 52h2M62 52h1M55 53h1M57 53h2M60 53h1M62 53h1M55 54h2M60 54h2M63 54h1M56 55h1M59 55h1M61 55h1M63 55h1M56 56h1M59 56h1M61 56h1M63 56h1M56 57h2M59 57h1M63 57h1M56 58h1M58 58h2M63 58h1M55 59h2M58 59h1M60 59h1M62 59h1M54 60h2M57 60h2M60 60h1M62 60h1M56 61h2M59 61h1M61 61h1M53 62h2M53 63h2M56 63h1M58 63h2M52 64h2M55 64h2M58 64h2M52 65h2M55 65h1M57 65h2M52 66h2M55 66h1M58 66h1M52 67h2M55 67h1M58 67h1M52 68h2M55 68h1M58 68h1M60 68h1M53 69h2M56 69h1M58 69h1M60 69h1M53 70h2M56 70h2M59 70h1M61 70h1M54 71h2M57 71h1M59 71h2M62 71h1M55 72h2M58 72h1M60 72h2M63 72h1M56 73h2M59 73h1M61 73h1" />
<path stroke="#bdaca4" d="M43 29h1M46 30h1M49 30h1M45 31h1M40 32h1M43 33h1M50 33h1M52 36h1M38 38h1M41 39h1M39 40h1M50 40h1M40 41h1M48 41h3M42 42h2M46 42h3M45 43h2M41 57h1M32 58h1M38 58h1M32 59h2M39 59h1M33 60h2M41 60h1M34 61h2M40 61h1" />
<path stroke="#fffff6" d="M44 29h5M41 30h1M43 30h3M50 30h1M40 31h1M46 31h6M44 32h3M51 32h1M39 33h3M44 33h2M49 33h1M52 33h1M40 34h5M47 34h2M50 34h1M52 34h1M38 35h1M41 35h4M47 35h1M50 35h1M52 35h1M38 36h1M40 36h1M42 36h4M50 36h2M38 37h1M42 37h4M50 37h2M42 38h5M49 38h3M39 39h1M42 39h9M40 40h3M45 40h5M41 41h2M46 41h2M39 56h3M35 57h6M33 58h5M41 58h1M40 59h2M38 60h3M37 61h3M36 62h3M36 63h2M36 64h1M35 65h2M35 66h1M35 67h1M34 68h1M34 69h1" />
<path stroke="#31a420" d="M42 30h1M41 31h1M43 31h1M41 32h1M43 32h1M42 33h1M48 33h1M49 34h1M39 35h1M49 35h1M55 35h1M39 36h1M41 36h1M46 36h1M49 36h1M54 36h2M39 37h1M41 37h1M46 37h1M49 37h1M54 37h1M39 38h1M41 38h1M47 38h2M40 39h1M55 41h1M54 42h2M54 43h1M57 54h1M57 55h2M57 56h2M62 57h1M61 58h2M61 59h1M57 66h1M56 67h2M56 68h1" />
<path stroke="#837b6a" d="M47 30h2M44 31h1M39 32h1M50 32h1M45 34h1M45 35h1M51 35h1M39 55h2M35 56h4M32 57h3M31 58h1M40 58h1M34 59h1" />
<path stroke="#6ade4a" d="M42 31h1M42 32h1M46 34h1M40 35h1M46 35h1M47 36h2M47 37h2M40 38h1" />
<path stroke="#de7b8b" d="M43 40h2M43 41h2" />
<path stroke="#b45262" d="M45 41h1M44 42h2" />
<path stroke="#525252" d="M35 59h3M35 60h1M34 62h1M39 62h1M35 64h1M34 65h1M34 66h1M34 67h1M33 68h1M33 69h1M33 70h1" />
</svg>