<svg xmlns="http://www.w3.org/2000/svg" viewBox="0 -0.5 96 96" shape-rendering="crispEdges">
<metadata>Made with Pixels to Svg https://codepen.io/shshaw/pen/XbxvNj</metadata>
<path stroke="#101010" d="M28 23h3M34 23h3M41 23h4M28 24h1M31 24h3M37 24h1M40 24h1M45 24h2M50 24h3M29 25h1M38 25h2M47 25h3M52 25h1M30 26h4M38 26h1M42 26h3M50 26h2M34 27h2M41 27h1M45 27h5M35 28h1M35 29h1M49 32h1M49 33h1M48 34h1M49 35h1M49 36h1M40 37h1M48 37h1M38 38h1M40 38h1M48 38h1M28 39h1M38 39h1M40 39h1M49 39h2M65 39h1M28 40h1M39 40h1M51 40h1M65 40h1M28 41h1M51 41h3M65 41h1M29 42h1M31 42h2M53 42h1M65 42h1M29 43h1M53 43h5M68 43h1M30 44h1M68 44h1M31 45h2M67 45h1M31 46h1M65 46h2M63 47h2M31 48h1M51 48h2M62 48h1M31 49h1M51 49h1M62 49h1M31 50h1M50 50h1M63 50h1M32 51h1M49 51h1M63 51h1M32 52h1M49 52h1M63 52h1M32 53h2M44 53h1M47 53h2M64 53h1M36 54h2M41 54h1M44 54h3M65 54h1M34 55h2M37 55h1M40 55h1M42 55h2M64 55h2M38 56h2M64 56h1M62 57h1M65 57h1M62 58h4M61 59h2M41 60h2M56 60h2M61 60h1M40 61h1M42 61h1M47 61h2M54 61h3M61 61h1M40 62h1M43 62h1M47 62h1M51 62h1M56 62h1M62 62h1M40 63h1M43 63h1M47 63h1M51 63h1M62 63h1M40 64h1M43 64h1M47 64h1M51 64h1M62 64h1M40 65h1M47 65h1M50 65h1M62 65h1M40 66h1M47 66h1M50 66h1M62 66h1M39 67h1M46 67h1M50 67h1M61 67h1M39 68h1M46 68h1M49 68h1M61 68h1M39 69h1M46 69h1M49 69h1M61 69h1M39 70h1M46 70h3M61 70h1M34 71h5M46 71h1M56 71h5M41 72h5" />
<path stroke="#ffdb4c" d="M29 24h2M34 24h1M36 24h1M42 24h2M30 25h1M32 25h2M35 25h2M40 25h1M42 25h2M45 25h2M50 25h2M35 26h3M39 26h3M45 26h3M49 26h1M31 40h2M31 41h2" />
<path stroke="#99832e" d="M35 24h1M41 24h1M44 24h1M31 25h1M34 25h1M37 25h1M41 25h1M44 25h1M34 26h1M48 26h1M38 27h1M31 39h2M30 40h1M33 40h1M30 41h1M33 41h1" />
<path stroke="#645c53" d="M36 27h2M39 27h2M37 28h2M40 28h3M34 29h1M42 29h1M29 30h5M43 30h5M28 31h1M48 31h1M27 32h1M31 32h1M27 33h1M30 33h1M42 33h1M28 34h3M43 34h1M47 34h1M29 35h1M44 35h3M29 36h1M29 37h1M29 38h1M63 55h1M35 56h1M35 57h1M60 57h1M35 58h1M58 58h1M60 58h1M35 59h1M49 59h1M52 59h1M58 59h1M60 59h1M36 60h1M40 60h1M47 60h1M49 60h2M52 60h2M59 60h1M36 61h1M39 61h1M51 61h2M36 62h1M36 63h1" />
<path stroke="#e9ceb3" d="M36 28h1M39 28h1M36 29h1M38 29h2M41 29h1M35 30h7M29 31h3M33 31h10M44 31h4M28 32h3M32 32h17M31 33h10M43 33h5M31 34h7M45 34h2M31 35h6M31 36h5M31 37h4M31 38h3M55 49h2M51 50h1M54 50h5M50 51h9M50 52h10M49 53h11M47 54h14M41 55h1M44 55h17M40 56h21M39 57h16M56 57h4M39 58h10M50 58h5M56 58h2M59 58h1M40 59h2M43 59h6M50 59h2M53 59h3M57 59h1M59 59h1M43 60h4M48 60h1M51 60h1M54 60h2M43 61h4M44 62h2" />
<path stroke="#b3a18e" d="M37 29h1M40 29h1M34 30h1M42 30h1M32 31h1M43 31h1M28 33h2M41 33h1M48 33h1M44 34h1M30 35h1M30 36h1M59 49h1M59 50h4M59 51h4M60 52h3M60 53h4M61 54h4M36 55h1M61 55h2M36 56h2M61 56h3M36 57h3M55 57h1M61 57h1M63 57h2M36 58h3M49 58h1M55 58h1M61 58h1M36 59h4M42 59h1M56 59h1M37 60h3M58 60h1M60 60h1M37 61h2M49 61h2M57 61h4M37 62h2M48 62h2M57 62h3" />
<path stroke="#b4b4b4" d="M38 34h1M42 34h1M43 35h1M47 35h2M38 36h1M40 36h1M30 37h1M47 37h1M30 38h1M34 38h1M39 38h1M46 38h1M29 39h2M29 40h1M38 40h1M40 40h1M29 41h1M30 42h1M45 42h1M30 43h1M33 43h1M38 43h1M31 44h1M34 44h1M38 44h1M33 45h1M42 45h1M36 46h1M39 46h2M36 48h1M38 48h1M39 62h1M46 62h1M50 62h1M60 62h1M44 63h1M48 63h3M58 63h1M48 64h3M48 65h2M48 66h2M58 67h1M38 68h1M45 68h1" />
<path stroke="#f8f8f8" d="M39 34h3M37 35h6M36 36h2M41 36h8M35 37h3M39 37h1M41 37h6M35 38h3M41 38h5M33 39h5M41 39h8M34 40h4M41 40h7M34 41h12M33 42h12M31 43h2M34 43h4M40 43h5M32 44h2M39 44h5M34 45h8M37 46h2M36 47h3M35 48h1M37 48h1M39 48h1M36 49h2M36 50h1M61 62h1M37 63h3M45 63h2M59 63h3M37 64h3M44 64h3M59 64h3M37 65h3M44 65h3M59 65h3M36 66h4M44 66h3M59 66h3M36 67h3M43 67h3M59 67h2M43 68h2" />
<path stroke="#4d4d4d" d="M39 36h1M38 37h1M47 38h1M39 39h1M48 40h1M46 41h2M46 42h1M39 43h1M45 43h1M35 44h3M44 44h1M43 45h1M34 46h2M41 46h1M57 63h1M36 64h1M58 64h1M36 65h1M43 65h1M58 65h1M35 66h1M43 66h1M58 66h1M35 67h1M42 67h1M42 68h1" />
<path stroke="#506624" d="M60 39h2M63 39h2M59 40h1M61 40h2M58 41h1M61 41h1M58 42h1M66 43h2M52 44h1M58 44h2M51 45h2M60 45h1M53 46h1M32 47h1M35 47h1M39 47h1M50 47h1M53 47h1M34 48h1M40 48h1M55 48h1M59 48h1M35 49h1M38 49h2M54 49h1M57 49h2M60 49h2M32 50h1M35 50h1M37 50h1M49 50h1M52 50h2M36 51h1M34 52h1M47 52h1M34 53h1M37 53h1M41 53h1M34 54h1M40 54h1M39 55h1" />
<path stroke="#b4e550" d="M49 40h2M60 40h1M63 40h2M48 41h2M59 41h2M62 41h3M47 42h2M51 42h2M59 42h1M62 42h2M47 43h5M58 43h2M61 43h3M46 44h5M53 44h5M60 44h3M64 44h4M46 45h5M53 45h6M61 45h6M45 46h8M54 46h6M62 46h3M44 47h6M51 47h2M54 47h1M56 47h4M33 48h1M43 48h8M53 48h2M57 48h2M32 49h2M43 49h3M47 49h1M49 49h2M52 49h2M34 50h1M44 50h1M46 50h1M48 50h1M33 51h2M47 51h1M33 52h1M48 52h1" />
<path stroke="#82a63a" d="M50 41h1M49 42h2M60 42h2M64 42h1M46 43h1M52 43h1M60 43h1M64 43h2M45 44h1M51 44h1M63 44h1M44 45h2M59 45h1M32 46h2M42 46h3M60 46h2M33 47h2M40 47h4M55 47h1M60 47h3M32 48h1M41 48h2M56 48h1M60 48h2M34 49h1M40 49h3M46 49h1M48 49h1M33 50h1M38 50h6M45 50h1M47 50h1M35 51h1M37 51h10M48 51h1M35 52h12M35 53h2M38 53h3M42 53h2M45 53h2M35 54h1M38 54h2M42 54h2M38 55h1" />
<path stroke="#992e49" d="M47 67h3M57 67h1M35 68h1M47 68h2M57 68h1M34 69h1M36 69h1M42 69h1M47 69h2M56 69h1M58 69h1M34 70h1M36 70h1M41 70h1M43 70h1M56 70h1M58 70h1M41 71h1M43 71h1" />
<path stroke="#ff4c79" d="M36 68h2M58 68h3M35 69h1M37 69h2M43 69h3M57 69h1M59 69h2M35 70h1M37 70h2M42 70h1M44 70h2M57 70h1M59 70h2M42 71h1M44 71h2" />
</svg>