<svg xmlns="http://www.w3.org/2000/svg" viewBox="0 -0.5 96 96" shape-rendering="crispEdges">
<metadata>Made with Pixels to Svg https://codepen.io/shshaw/pen/XbxvNj</metadata>
<path stroke="#806673" d="M47 27h3M46 28h1M49 28h1M45 29h1M48 29h1M43 30h1M45 30h1M48 30h1M42 31h1M44 31h2M42 32h1M45 32h1M50 32h1M42 33h1M44 33h2M35 34h1M42 34h1M44 34h1M52 34h1M34 35h1M44 35h1M34 36h1M45 36h1M33 37h1M46 37h2M33 38h1M40 38h1M54 38h1M33 39h1M39 39h1M55 39h1M33 40h1M38 40h2M56 40h1M33 41h1M36 41h3M57 41h2M33 42h3M38 42h1M59 42h2M35 43h3M35 44h1M36 45h1M37 46h2M56 46h1M38 47h1M37 48h1M45 51h1M50 51h1M46 52h2M53 52h3M43 53h2M55 53h1M43 54h1M45 54h2M39 55h2M43 55h1M55 55h2M38 56h1M44 56h1M57 56h1M43 57h1M45 57h3M52 57h1M43 58h1M39 59h4M39 60h1M40 61h1M44 61h1M51 61h1M42 63h1M42 64h1M48 64h1M43 65h1M48 65h1M43 66h1M43 67h1" />
<path stroke="#f2c2da" d="M47 28h2M46 29h2M46 30h2M43 31h1M46 31h3M52 31h1M39 32h3M43 32h2M46 32h4M51 32h2M55 32h3M37 33h5M43 33h1M46 33h7M54 33h5M36 34h6M43 34h1M45 34h1M47 34h5M53 34h6M35 35h9M45 35h14M35 36h10M46 36h12M34 37h6M41 37h5M48 37h6M55 37h3M34 38h4M41 38h13M34 39h2M40 39h15M40 40h15M39 41h16M39 42h2M43 42h8M54 42h1M38 43h2M44 43h6M36 44h3M45 44h4M37 45h2M45 45h4M39 46h1M44 46h2M47 46h3M39 47h2M43 47h8M38 48h8M48 48h4M41 49h10M43 50h6M51 53h1M44 54h1M50 54h3M41 55h2M44 55h11M41 56h3M45 56h3M49 56h2M52 56h3M44 57h1M48 57h4M44 58h9M43 59h11M40 60h17M41 61h3M45 61h6M52 61h4M45 62h6M46 63h1M48 63h2" />
<path stroke="#66525c" d="M52 30h1M39 31h3M49 31h3M53 31h1M55 31h3M37 32h2M53 32h2M58 32h2M36 33h1M53 33h1M60 33h1M61 34h1M61 35h1M62 36h1M62 37h1M62 38h1M62 39h1M62 40h1M62 41h1M61 42h2M60 43h2M62 44h1M58 47h1M59 48h1M38 49h3M41 50h2M43 51h2M44 52h1M52 53h1M41 54h2M53 54h2M39 57h4M54 59h3M41 62h3M52 62h2M47 63h1M47 64h1M47 65h1M46 66h1M49 66h1M46 67h1M49 67h1M44 68h2" />
<path stroke="#bf99ac" d="M59 33h1M46 34h1M59 34h2M59 35h2M58 36h4M58 37h4M57 38h5M59 39h3M55 40h1M55 41h2M41 42h2M51 42h3M55 42h4M43 43h1M54 43h6M39 44h1M44 44h1M49 44h1M55 44h7M39 45h1M44 45h1M49 45h1M55 45h5M46 46h1M50 46h1M54 46h2M53 47h5M46 48h2M52 48h7M51 49h4M49 50h4M46 51h4M45 52h1M48 52h3M52 52h1M45 53h6M53 53h2M47 54h3M48 56h1M51 56h1M44 62h1M51 62h1M43 63h3M50 63h3M43 64h4M49 64h4M44 65h3M49 65h3M44 66h2M50 66h2" />
<path stroke="#f8f8f8" d="M40 37h1M54 37h1M38 38h2M55 38h2M36 39h3M56 39h3M34 40h4M57 40h5M34 41h2M59 41h3M41 43h1M51 43h1M39 56h2M55 56h2M44 67h2M50 67h2" />
<path stroke="#cca3cc" d="M40 43h1M42 43h1M50 43h1M52 43h2M40 44h1M43 44h1M50 44h1M53 44h1M40 45h1M43 45h1M50 45h1M53 45h1M41 46h2M51 46h2" />
<path stroke="#3f6273" d="M41 44h2M51 44h2M41 45h2M51 45h2" />
<path stroke="#995c99" d="M54 44h1M54 45h1M40 46h1M43 46h1M53 46h1M41 47h2M51 47h2" />
<path stroke="#101010" d="M60 45h2M57 46h3M55 49h4M53 50h2M51 51h2M51 52h1M53 57h4M53 58h1M57 59h1M57 60h1M56 61h1M54 62h2M53 63h1M53 64h1M52 65h1M52 66h1M52 67h1M50 68h2" />
</svg>