<svg xmlns="http://www.w3.org/2000/svg" viewBox="0 -0.5 96 96" shape-rendering="crispEdges">
<metadata>Made with Pixels to Svg https://codepen.io/shshaw/pen/XbxvNj</metadata>
<path stroke="#484040" d="M46 11h1M45 12h1M45 13h1M44 14h1M44 15h1M43 16h1M43 17h1M43 18h1M48 18h1M42 19h1M42 20h1M42 21h1M41 22h1M41 23h1M49 23h1M41 24h1M40 25h1M34 26h2M40 26h1M49 26h1M56 26h1M34 27h1M36 27h1M40 27h1M49 27h1M55 27h1M34 28h1M37 28h1M39 28h10M54 28h1M34 29h1M37 29h1M34 30h1M34 31h1M36 31h1M52 31h1M55 31h1M34 32h1M36 32h1M39 32h1M49 32h1M52 32h1M36 33h1M40 33h1M46 33h1M51 33h2M54 33h1M52 34h1M54 34h1M50 35h1M52 35h1M49 36h1M51 36h1M38 37h1M50 37h1M39 38h1M48 38h2M39 39h1M49 39h1M34 46h1M49 46h3M46 47h2M32 51h1M51 51h3M48 52h2M37 61h1M42 61h1M37 62h1M43 62h1M43 63h1M38 64h1M44 64h1M38 65h1M44 65h1M37 69h1M49 69h1M38 70h1M48 70h1M38 71h1M48 71h1M39 72h1M47 72h1M39 73h1M46 73h1M40 74h1M45 74h1M41 75h1M44 75h1M42 76h2" />
<path stroke="#bcbcbc" d="M46 12h1M46 13h1M45 14h2M45 15h1M45 16h1M44 17h2M44 18h1M44 20h1M44 21h1M43 22h1M43 23h1M43 24h1M39 29h4M38 30h1M43 34h1M43 35h1" />
<path stroke="#101010" d="M47 12h1M47 13h1M47 14h1M48 15h1M48 16h1M48 17h1M49 19h1M49 20h1M49 21h1M49 22h1M50 24h1M50 25h1M50 26h1M57 26h1M50 27h1M57 27h1M49 28h3M57 28h1M52 29h2M57 29h1M57 30h1M57 31h1M57 32h1M36 35h2M37 36h1M53 36h2M52 37h1M51 38h1M51 39h1M50 40h1M51 41h2M53 42h1M54 43h1M55 44h1M56 45h1M56 46h1M57 47h1M57 48h1M18 49h1M58 49h1M76 49h1M18 50h1M58 50h1M76 50h1M18 51h1M58 51h1M76 51h1M19 52h1M58 52h1M75 52h1M19 53h1M58 53h1M75 53h1M20 54h1M58 54h1M74 54h1M19 55h3M28 55h1M58 55h1M73 55h1M19 56h1M28 56h1M58 56h1M74 56h1M20 57h1M28 57h1M58 57h1M74 57h1M20 58h1M28 58h1M73 58h1M21 59h1M29 59h1M57 59h1M73 59h1M21 60h2M29 60h1M57 60h1M71 60h2M21 61h1M30 61h1M56 61h1M68 61h3M22 62h1M30 62h1M56 62h1M71 62h1M23 63h1M31 63h1M55 63h1M71 63h1M24 64h2M32 64h1M54 64h1M70 64h1M24 65h1M33 65h1M53 65h1M70 65h1M25 66h1M32 66h3M52 66h3M68 66h2M26 67h1M30 67h2M35 67h2M50 67h3M55 67h2M68 67h1M27 68h3M37 68h2M47 68h3M52 68h1M57 68h3M67 68h1M40 69h7M53 69h1M60 69h3M67 69h1M53 70h1M63 70h4M51 71h2M50 72h1M50 73h1M50 74h1M50 75h1M47 76h3M47 77h1M47 78h1M46 79h1M46 80h1M45 81h1M44 82h1M43 83h1" />
<path stroke="#958888" d="M46 15h2M44 16h1M46 16h2M46 17h2M46 18h2M43 19h1M45 19h1M47 19h2M45 20h1M47 20h2M45 21h2M48 21h1M44 22h3M48 22h1M44 23h3M48 23h1M42 24h1M45 24h3M42 25h2M45 25h3M41 26h2M44 26h1M46 26h2M35 27h1M41 27h2M44 27h1M46 27h1M56 27h1M35 28h2M55 28h2M35 29h2M43 29h6M54 29h3M35 30h1M37 30h1M39 30h10M54 30h2M35 31h1M37 31h11M37 32h1M41 33h1M45 33h1M40 34h1M46 34h1M40 35h1M46 35h1M51 35h1M40 36h1M46 36h1M50 36h1M39 37h1M41 37h1M45 37h1M48 37h2M36 44h1M47 44h2M35 45h1M47 45h4M35 46h1M47 46h1M33 47h2M49 47h4M33 48h2M46 48h7M32 49h3M46 49h8M32 50h3M46 50h8M34 51h1M47 51h3M31 52h2M51 52h3M31 53h1M51 53h3M53 54h1M39 59h1M38 60h3M38 61h4M36 62h1M38 62h5M35 63h2M39 63h4M44 63h2M35 64h3M39 64h4M45 64h3M37 65h1M39 65h5M45 65h1M40 66h3M40 72h5M40 73h6M41 74h4M42 75h2" />
<path stroke="#726868" d="M45 18h1M44 19h1M46 19h1M43 20h1M46 20h1M43 21h1M47 21h1M42 22h1M47 22h1M42 23h1M47 23h1M44 24h1M48 24h2M41 25h1M44 25h1M48 25h2M43 26h1M45 26h1M48 26h1M43 27h1M45 27h1M47 27h2M38 29h1M49 29h3M36 30h1M49 30h5M56 30h1M48 31h4M53 31h2M56 31h1M35 32h1M38 32h1M50 32h2M53 32h2M35 33h1M37 33h1M53 33h1M36 34h1M53 34h1M53 35h2M40 37h1M46 37h2M40 38h8M48 39h1M48 46h1M35 47h1M48 47h1M33 51h1M50 51h1M50 52h1M40 59h1M41 60h1M37 63h2M43 64h1M38 69h2M47 69h2M39 70h9M39 71h9M45 72h2" />
<path stroke="#180e13" d="M40 32h9M55 32h2M33 33h2M38 33h2M49 33h2M57 33h2M31 34h2M35 34h1M37 34h1M50 34h2M59 34h2M30 35h1M35 35h1M49 35h1M55 35h2M61 35h1M29 36h1M33 36h2M47 36h2M57 36h2M62 36h1M28 37h1M32 37h1M59 37h1M63 37h1M27 38h1M31 38h1M60 38h1M64 38h1M26 39h1M30 39h1M61 39h1M65 39h1M25 40h1M29 40h1M62 40h1M66 40h1M24 41h1M28 41h1M63 41h1M67 41h1M23 42h1M27 42h1M64 42h1M68 42h1M23 43h1M27 43h1M64 43h1M68 43h1M23 44h1M28 44h1M63 44h1M68 44h1M24 45h1M29 45h1M62 45h1M67 45h1M25 46h1M61 46h1M66 46h1M26 47h1M59 47h2M65 47h1M27 48h1M58 48h1M64 48h1M28 49h1M63 49h1M61 50h2M60 51h1M59 52h1" />
<path stroke="#393035" d="M42 33h1M44 33h1M47 33h2M55 33h2M33 34h2M38 34h2M41 34h1M45 34h1M47 34h3M55 34h4M31 35h4M38 35h2M41 35h1M45 35h1M47 35h2M57 35h4M30 36h3M38 36h2M41 36h1M45 36h1M59 36h3M29 37h3M42 37h1M44 37h1M60 37h3M28 38h3M61 38h3M27 39h3M62 39h3M26 40h3M63 40h3M25 41h3M42 41h1M64 41h3M24 42h3M41 42h3M65 42h3M24 43h3M40 43h4M65 43h3M24 44h4M39 44h6M64 44h4M25 45h4M44 45h1M63 45h4M26 46h4M62 46h4M27 47h3M39 47h2M61 47h4M28 48h1M38 48h1M41 48h1M59 48h5M38 49h1M41 49h1M59 49h4M39 50h2M59 50h2M59 51h1M39 54h2M33 55h2M39 55h2M44 55h2M30 56h1M32 56h1M35 56h1M39 56h2M43 56h1M46 56h1M50 56h1M30 57h1M32 57h1M35 57h1M39 57h2M43 57h1M46 57h1M50 57h1M30 58h1M33 58h2M39 58h2M44 58h2M50 58h2M30 59h2M41 59h1M49 59h3M30 60h3M47 60h6M31 61h5M44 61h9M35 68h1M34 69h1M34 70h1M35 71h1M36 72h1M49 72h1M37 73h1M37 74h1M37 75h1M38 76h2M39 77h1M39 78h1M40 79h1M40 80h1M41 81h1M42 82h1" />
<path stroke="#e4c93e" d="M43 33h1M42 34h1M44 34h1M42 35h1M44 35h1M43 36h1M19 50h2M74 50h2M19 51h4M71 51h5M20 52h6M67 52h8M20 53h8M63 53h12M22 54h6M62 54h12M26 55h2M62 55h9M20 56h8M62 56h1M21 57h7M62 57h12M21 58h7M62 58h11M27 59h2M61 59h12M25 60h4M61 60h1M64 60h7M22 61h8M61 61h3M23 62h7M60 62h8M24 63h3M29 63h2M60 63h11M27 64h5M59 64h2M63 64h7M25 65h8M59 65h4M66 65h4M26 66h6M58 66h8M27 67h3M57 67h11M60 68h7M63 69h4" />
<path stroke="#a3902c" d="M42 36h1M44 36h1M43 37h1M59 54h3M24 55h2M59 55h3M71 55h1M59 56h3M63 56h5M59 57h3M58 58h4M25 59h2M58 59h3M24 60h1M58 60h3M62 60h2M57 61h4M64 61h2M57 62h3M68 62h1M27 63h2M56 63h4M55 64h4M61 64h2M54 65h5M63 65h3M55 66h3" />
<path stroke="#a92835" d="M52 36h1M51 37h1M50 38h1M50 39h1M36 68h1M50 68h2M35 69h2M50 69h3M35 70h3M49 70h4M36 71h2M49 71h2M37 72h2M48 72h1M47 73h3M49 74h1" />
<path stroke="#5c4b10" d="M40 39h8M37 40h2M48 40h2M35 41h2M34 42h1M33 43h1M32 44h1M31 45h1M46 45h1M30 46h1M36 46h1M46 46h1M30 47h1M36 47h1M45 47h1M29 48h1M35 48h1M45 48h1M29 49h1M35 49h1M45 49h1M29 50h1M35 50h1M41 50h1M45 50h1M54 50h1M28 51h1M35 51h1M41 51h1M45 51h2M54 51h1M28 52h1M33 52h4M40 52h1M54 52h1M28 53h1M32 53h1M37 53h1M49 53h2M54 53h1M28 54h1M31 54h2M38 54h1M51 54h2M54 54h1M30 55h1M32 55h1M50 55h1M53 55h2M29 56h1M56 56h2M47 57h1M47 58h1M57 58h1M38 59h1M47 59h1M37 60h1M42 60h1M36 61h1M43 61h1M35 62h1M44 62h2M34 63h1M46 63h2M34 64h1M48 64h3M35 65h1M46 65h2M51 65h2M37 66h2M44 66h2M39 68h1" />
<path stroke="#84702b" d="M39 40h1M38 41h1M43 41h1M48 41h1M38 42h1M47 42h1M36 43h2M44 43h1M47 43h2M35 44h1M37 44h1M46 44h1M49 44h2M34 45h1M36 45h1M38 45h2M43 45h1M51 45h1M33 46h1M37 46h1M44 46h1M52 46h1M32 47h1M53 47h1M32 48h1M36 48h1M53 48h1M31 49h1M54 49h1M57 49h1M31 50h1M31 51h1M36 51h1M44 51h1M30 52h1M39 52h1M43 52h1M47 52h1M30 53h1M33 53h1M38 53h2M41 53h1M48 53h1M30 54h1M41 54h1M49 54h1M31 55h1M38 55h1M55 55h1M29 57h1M51 57h1M57 57h1M29 58h1M31 58h1M38 58h1M41 58h1M49 58h1M52 59h1M33 60h1M43 60h1M56 60h1M31 62h4M55 62h1M32 63h2M54 63h1M33 64h1M51 64h3M34 65h1M36 65h1M48 65h3M35 66h2M39 66h1M43 66h1M46 66h6M37 67h13M40 68h7" />
<path stroke="#b29a4c" d="M40 40h8M37 41h1M39 41h3M44 41h4M49 41h2M35 42h3M39 42h2M44 42h3M48 42h5M34 43h2M38 43h2M45 43h2M49 43h5M33 44h2M38 44h1M45 44h1M51 44h4M32 45h2M37 45h1M40 45h3M45 45h1M52 45h4M31 46h2M38 46h6M45 46h1M53 46h3M31 47h1M37 47h2M41 47h4M54 47h3M30 48h2M37 48h1M42 48h3M54 48h3M30 49h1M36 49h2M42 49h3M55 49h2M30 50h1M36 50h3M42 50h3M55 50h3M29 51h2M37 51h4M42 51h2M55 51h3M29 52h1M37 52h2M41 52h2M44 52h3M55 52h3M29 53h1M34 53h3M40 53h1M42 53h6M55 53h3M29 54h1M33 54h5M42 54h7M50 54h1M55 54h3M29 55h1M35 55h3M41 55h3M46 55h4M51 55h2M56 55h2M31 56h1M36 56h3M41 56h2M47 56h3M51 56h5M31 57h1M36 57h3M41 57h2M48 57h2M52 57h5M32 58h1M35 58h3M42 58h2M46 58h1M48 58h1M52 58h5M32 59h6M42 59h5M48 59h1M53 59h4M34 60h3M44 60h3M53 60h3M53 61h3M46 62h9M48 63h6" />
<path stroke="#db3d50" d="M39 48h2M39 49h2M33 56h2M44 56h2M33 57h2M44 57h2M38 73h1M38 74h2M46 74h3M38 75h3M45 75h5M40 76h2M44 76h3M40 77h7M40 78h7M41 79h5M41 80h5M42 81h3M43 82h1" />
<path stroke="#7d6a16" d="M19 49h2M74 49h2M21 50h2M71 50h3M23 51h3M67 51h4M26 52h2M63 52h4M59 53h4M21 54h1M22 55h2M72 55h1M68 56h6M22 59h3M23 60h1M66 61h2M69 62h2M26 64h1M66 66h2" />
</svg>