<svg xmlns="http://www.w3.org/2000/svg" viewBox="0 -0.5 96 96" shape-rendering="crispEdges">
<metadata>Made with Pixels to Svg https://codepen.io/shshaw/pen/XbxvNj</metadata>
<path stroke="#806633" d="M67 5h5M65 6h2M71 6h1M64 7h1M69 7h2M41 8h6M63 8h1M68 8h1M40 9h1M47 9h2M62 9h1M67 9h1M41 10h2M49 10h1M62 10h1M67 10h1M43 11h1M61 11h1M66 11h1M44 12h1M50 12h1M60 12h1M66 12h1M44 13h1M58 13h2M66 13h1M44 14h1M55 14h3M76 14h2M43 15h1M53 15h2M76 15h1M78 15h1M42 16h1M51 16h2M76 16h1M79 16h1M40 17h2M49 17h2M77 17h1M80 17h1M39 18h1M48 18h1M78 18h1M81 18h1M38 19h1M47 19h1M78 19h1M81 19h1M27 20h4M37 20h1M46 20h1M65 20h5M78 20h1M82 20h1M26 21h1M31 21h2M37 21h1M46 21h1M62 21h3M70 21h3M77 21h1M82 21h1M27 22h2M33 22h1M36 22h1M45 22h1M60 22h2M73 22h4M82 22h1M29 23h1M34 23h1M36 23h1M45 23h1M58 23h2M82 23h1M30 24h1M35 24h2M45 24h1M57 24h1M82 24h1M31 25h1M36 25h1M45 25h1M56 25h1M81 25h1M31 26h1M36 26h1M45 26h1M55 26h1M31 27h1M36 27h1M45 27h1M55 27h1M32 28h1M37 28h1M45 28h1M54 28h1M32 29h1M37 29h1M46 29h1M54 29h1M73 29h1M32 30h1M38 30h1M46 30h1M33 31h1M39 31h1M68 31h1M70 31h1M33 32h1M69 32h3M79 32h1M34 33h1M67 33h6M77 33h2M35 34h1M66 34h13M36 35h2M43 35h1M51 35h2M65 35h13M38 36h2M41 36h1M44 36h1M50 36h1M53 36h1M68 36h9M40 37h1M44 37h1M54 37h1M71 37h4M42 38h1M44 38h1M47 38h1M49 38h1M53 38h1M49 39h1M42 40h1M49 40h2M53 40h1M49 41h1M51 41h2M49 42h2M63 42h3M50 43h2M62 43h3M27 44h1M43 44h1M49 44h2M62 44h2M69 44h1M27 45h1M41 45h1M43 45h2M48 45h2M62 45h2M69 45h1M26 46h1M41 46h1M44 46h2M47 46h2M63 46h1M70 46h1M26 47h1M41 47h1M45 47h3M63 47h2M70 47h1M26 48h1M40 48h1M45 48h2M64 48h2M70 48h1M26 49h1M40 49h1M70 49h1M26 50h1M40 50h1M70 50h1M26 51h1M39 51h1M69 51h1M27 52h1M39 52h1M69 52h1M27 53h1M38 53h1M69 53h1M28 54h1M38 54h1M68 54h1M28 55h1M38 55h1M68 55h1M28 56h1M37 56h1M67 56h1M29 57h1M37 57h1M67 57h1M29 58h1M37 58h1M67 58h1M29 59h1M66 59h1M29 60h1M66 60h1M28 61h1M66 61h1M28 62h1M38 62h1M66 62h1M27 63h1M65 63h1M26 64h1M65 64h1M25 65h1M65 65h1M24 66h1M65 66h1M22 67h2M39 67h1M65 67h1M21 68h1M39 68h1M65 68h1M67 68h1M20 69h1M25 69h1M39 69h1M65 69h1M68 69h1M19 70h1M25 70h1M38 70h1M65 70h1M69 70h2M18 71h1M25 71h1M38 71h1M61 71h1M65 71h1M71 71h2M17 72h1M25 72h1M37 72h1M62 72h1M65 72h1M16 73h1M26 73h1M37 73h1M63 73h1M66 73h1M16 74h1M26 74h1M38 74h1M63 74h1M66 74h1M15 75h1M23 75h3M38 75h1M62 75h1M67 75h1M15 76h1M21 76h2M39 76h1M61 76h1M67 76h1M14 77h1M20 77h1M40 77h1M45 77h2M61 77h1M68 77h1M14 78h1M19 78h1M41 78h1M60 78h1M68 78h1M14 79h1M42 79h1M60 79h1M69 79h1M13 80h1M43 80h1M59 80h1M70 80h1M13 81h1M45 81h1M50 81h1M71 81h1M13 82h1M50 82h1M13 83h1M13 84h1M76 84h1M14 85h1M47 85h1M49 85h1M78 85h1M14 86h1M45 86h2M54 86h1M60 86h4M43 87h2M54 87h1M59 87h1M64 87h2M41 88h1M55 88h1M58 88h1M66 88h1M56 89h1M61 89h2M67 89h1" />
<path stroke="#bf994c" d="M67 6h4M65 7h4M64 8h3M41 9h6M63 9h3M43 10h5M63 10h3M44 11h5M62 11h3M45 12h4M61 12h4M45 13h5M60 13h5M45 14h5M58 14h7M44 15h6M55 15h10M77 15h1M43 16h7M53 16h12M78 16h1M42 17h7M51 17h13M79 17h1M40 18h8M49 18h15M80 18h1M39 19h8M48 19h15M80 19h1M38 20h2M44 20h2M47 20h1M50 20h12M80 20h2M27 21h4M42 21h4M52 21h9M65 21h3M80 21h2M29 22h3M40 22h5M46 22h3M53 22h7M62 22h9M79 22h3M30 23h3M38 23h7M46 23h6M54 23h4M60 23h13M78 23h4M31 24h3M37 24h8M46 24h11M58 24h1M62 24h20M32 25h3M37 25h8M46 25h10M57 25h3M63 25h18M32 26h2M37 26h8M46 26h9M56 26h6M64 26h17M32 27h1M35 27h1M37 27h8M46 27h9M56 27h8M65 27h15M34 28h3M38 28h7M46 28h8M55 28h10M66 28h12M34 29h3M38 29h8M47 29h7M55 29h18M33 30h5M39 30h7M47 30h23M34 31h5M40 31h28M34 32h33M35 33h31M36 34h29M38 35h5M44 35h7M53 35h11M40 36h1M45 36h5M54 36h7M45 37h1M47 37h3M55 37h3M48 38h1M55 38h1M48 39h1M48 40h1" />
<path stroke="#ffec8c" d="M67 8h1M66 9h1M48 10h1M66 10h1M49 11h1M65 11h1M49 12h1M65 12h1M50 13h1M65 13h1M50 14h1M65 14h1M50 15h1M65 15h1M50 16h1M65 16h1M77 16h1M64 17h1M78 17h1M64 18h1M79 18h1M63 19h1M79 19h1M62 20h1M79 20h1M61 21h1M68 21h2M78 21h2M32 22h1M71 22h2M77 22h2M33 23h1M73 23h5M34 24h1M35 25h1M35 26h1" />
<path stroke="#101010" d="M50 11h1M51 13h1M51 14h1M66 14h1M51 15h1M66 15h1M66 16h1M65 17h1M65 18h1M64 19h1M63 20h1M81 26h1M80 27h1M78 28h2M74 29h4M70 30h3M69 31h1M71 31h1M79 31h2M67 32h2M72 32h1M77 32h2M80 32h1M66 33h1M73 33h4M79 33h1M65 34h1M79 34h1M64 35h1M78 35h1M77 36h1M41 37h1M70 37h1M75 37h2M41 38h1M54 38h1M72 38h3M41 39h1M43 39h1M51 39h1M53 39h2M73 39h1M41 40h1M57 40h6M74 40h1M41 41h1M55 41h2M63 41h3M75 41h1M42 42h1M53 42h2M62 42h1M66 42h2M75 42h1M38 43h2M42 43h2M47 43h1M49 43h1M52 43h1M61 43h1M65 43h1M68 43h1M76 43h1M37 44h1M41 44h2M44 44h1M46 44h1M48 44h1M51 44h1M61 44h1M64 44h1M76 44h1M36 45h1M42 45h1M45 45h1M47 45h1M50 45h1M61 45h1M64 45h1M76 45h1M35 46h1M43 46h1M46 46h1M49 46h1M62 46h1M64 46h1M76 46h1M35 47h1M44 47h1M48 47h1M62 47h1M65 47h1M76 47h1M34 48h1M44 48h1M47 48h1M63 48h1M66 48h1M75 48h1M34 49h1M45 49h2M63 49h4M75 49h1M34 50h1M63 50h1M75 50h1M33 51h1M64 51h1M74 51h1M33 52h1M64 52h1M74 52h1M33 53h1M64 53h1M73 53h1M33 54h1M64 54h1M73 54h1M33 55h1M64 55h1M72 55h1M33 56h1M63 56h1M72 56h1M33 57h1M63 57h1M71 57h1M33 58h1M63 58h1M71 58h1M33 59h1M37 59h1M62 59h1M70 59h1M32 60h1M37 60h1M62 60h1M70 60h1M32 61h1M37 61h1M62 61h1M69 61h1M32 62h1M61 62h1M69 62h1M31 63h1M38 63h1M56 63h1M61 63h1M68 63h1M31 64h1M38 64h1M55 64h1M57 64h1M61 64h1M68 64h1M30 65h1M39 65h1M55 65h1M57 65h1M60 65h1M68 65h1M29 66h1M39 66h1M54 66h1M58 66h1M60 66h1M67 66h1M27 67h2M40 67h1M54 67h1M58 67h1M60 67h1M67 67h1M26 68h1M40 68h1M54 68h1M59 68h1M41 69h1M53 69h1M59 69h1M41 70h1M53 70h1M60 70h1M42 71h1M53 71h1M42 72h1M53 72h1M73 72h1M43 73h1M52 73h1M73 73h1M43 74h1M52 74h1M73 74h1M44 75h1M52 75h1M74 75h1M45 76h1M52 76h1M74 76h1M52 77h1M74 77h1M46 78h1M52 78h1M75 78h1M18 79h1M47 79h1M52 79h1M75 79h1M17 80h1M48 80h1M52 80h1M76 80h1M16 81h1M44 81h1M49 81h1M52 81h1M59 81h1M76 81h1M16 82h1M46 82h1M51 82h2M59 82h1M72 82h1M77 82h1M15 83h1M47 83h1M53 83h1M58 83h1M73 83h1M78 83h1M15 84h1M48 84h1M53 84h1M58 84h1M74 84h1M79 84h1M15 85h1M53 85h1M58 85h1M75 85h2M80 85h1M15 86h1M53 86h1M58 86h1M77 86h2M81 86h1M15 87h1M52 87h1M79 87h4M49 88h3M42 89h7M63 89h3M57 90h4M66 90h2" />
<path stroke="#b0b77c" d="M40 20h4M48 20h2M38 21h4M47 21h5M37 22h3M49 22h4M37 23h1M52 23h2M59 24h3M60 25h3M34 26h1M62 26h2M33 27h2M64 27h1M33 28h1M65 28h1M33 29h1M42 36h1M52 38h1M50 39h1M51 40h1M63 40h2M42 41h1M50 41h1M60 41h3M66 41h2M32 42h6M51 42h1M60 42h2M68 42h2M31 43h7M59 43h2M69 43h1M31 44h6M59 44h2M71 44h1M30 45h6M59 45h2M70 45h1M75 45h1M30 46h5M42 46h1M60 46h2M30 47h5M42 47h1M31 48h3M41 48h1M56 48h1M31 49h3M41 49h1M54 49h1M31 50h3M43 50h2M52 50h1M74 50h1M32 51h1M40 51h1M44 51h2M50 51h1M60 51h1M32 52h1M40 52h1M45 52h1M58 52h1M39 53h1M41 53h1M45 53h1M55 53h1M39 54h1M42 54h3M39 55h1M42 55h2M42 56h1M44 56h1M49 56h1M52 56h1M41 57h1M41 58h1M60 58h1M41 59h1M60 59h1M39 60h1M41 60h2M44 60h1M49 60h1M52 60h1M39 61h1M41 61h3M41 62h3M40 63h1M42 63h2M59 63h1M40 64h1M42 64h2M45 64h1M49 64h1M51 64h1M43 65h1M28 66h1M41 66h1M43 66h1M43 67h2M49 67h1M51 67h1M22 68h1M25 68h1M42 68h1M44 68h1M23 69h2M44 69h2M67 69h1M22 70h1M43 70h1M45 70h1M67 70h1M21 71h1M46 71h1M49 71h1M51 71h1M67 71h1M20 72h1M44 72h1M66 72h1M68 72h1M19 73h1M45 73h1M49 73h1M51 73h1M68 73h1M18 74h1M45 74h1M68 74h1M18 75h1M69 75h1M17 76h1M69 76h1M16 77h1M47 77h1M70 77h1M16 78h1M48 78h1M71 78h1M15 79h1M48 79h2M71 79h1M15 80h1M49 80h3M72 80h1M51 81h1M73 81h1M74 82h1M75 83h1M77 84h1M79 86h2" />
<path stroke="#caeba8" d="M43 36h1M51 36h2M42 37h2M50 37h4M43 38h1M50 38h2M31 42h1M29 43h2M70 43h1M28 44h3M70 44h1M28 45h2M71 45h1M27 46h3M71 46h1M75 46h1M27 47h3M60 47h2M71 47h1M74 47h2M27 48h4M61 48h2M71 48h4M27 49h4M61 49h2M71 49h4M27 50h4M61 50h2M71 50h3M27 51h5M61 51h3M70 51h4M28 52h4M61 52h3M70 52h4M28 53h5M61 53h3M70 53h3M29 54h4M61 54h3M69 54h4M29 55h4M61 55h3M69 55h3M29 56h4M38 56h1M61 56h2M68 56h4M30 57h3M38 57h1M61 57h2M68 57h3M30 58h3M38 58h1M61 58h2M68 58h3M30 59h3M38 59h1M61 59h1M67 59h3M30 60h2M38 60h1M60 60h2M67 60h3M29 61h3M38 61h1M60 61h2M67 61h2M29 62h3M39 62h1M60 62h1M67 62h2M28 63h3M39 63h1M60 63h1M66 63h2M27 64h4M39 64h1M59 64h2M66 64h2M26 65h4M40 65h1M59 65h1M66 65h2M25 66h3M40 66h1M59 66h1M66 66h1M24 67h3M41 67h1M59 67h1M66 67h1M23 68h2M41 68h1M66 68h1M21 69h2M40 69h1M42 69h1M66 69h1M20 70h2M39 70h2M42 70h1M66 70h1M19 71h2M39 71h3M43 71h1M66 71h1M18 72h2M38 72h4M43 72h1M67 72h1M17 73h2M38 73h5M44 73h1M67 73h1M17 74h1M39 74h4M44 74h1M62 74h1M67 74h1M16 75h2M39 75h5M45 75h1M68 75h1M16 76h1M40 76h5M46 76h1M68 76h1M15 77h1M41 77h4M69 77h1M15 78h1M42 78h4M47 78h1M69 78h2M43 79h4M70 79h1M14 80h1M44 80h4M71 80h1M14 81h1M46 81h3M72 81h1M14 82h1M47 82h3M53 82h1M58 82h1M73 82h1M75 82h1M14 83h1M48 83h5M57 83h1M74 83h1M76 83h2M14 84h1M49 84h4M54 84h4M75 84h1M78 84h1M48 85h1M50 85h3M54 85h4M77 85h1M79 85h1M47 86h6M55 86h3M49 87h3M55 87h4M42 88h1M56 88h2M57 89h1" />
<path stroke="#7d1e1e" d="M61 36h7M46 37h1M58 37h3M68 37h2M33 38h5M45 38h1M56 38h2M71 38h1M31 39h2M38 39h2M44 39h1M47 39h1M55 39h1M30 40h1M40 40h1M44 40h1M47 40h1M54 40h1M29 41h1M34 41h4M43 41h1M48 41h1M53 41h1M28 42h1M39 42h1M41 42h1M43 42h1M48 42h1M52 42h1M40 43h1M45 43h1" />
<path stroke="#f24949" d="M61 37h7M46 38h1M58 38h13M33 39h5M45 39h2M56 39h2M65 39h8M31 40h8M45 40h2M55 40h1M68 40h6M30 41h1M38 41h2M44 41h4M54 41h1M70 41h5M44 42h4M71 42h4M44 43h1M46 43h1M72 43h3M72 44h3M73 45h2M73 46h1" />
<path stroke="#ecffb2" d="M42 39h1M52 39h1M43 40h1M52 40h1M59 47h1M57 48h4M55 49h6M41 50h2M53 50h8M41 51h3M51 51h9M41 52h4M50 52h8M42 53h3M50 53h5M43 56h1M50 56h2M42 57h3M49 57h4M42 58h3M49 58h4M42 59h3M49 59h4M43 60h1M50 60h2M44 64h1M50 64h1M44 65h2M49 65h3M44 66h2M49 66h3M45 67h1M50 67h1M45 71h1M50 71h1M45 72h2M49 72h3M46 73h1M50 73h1" />
<path stroke="#993737" d="M58 39h7M39 40h1M56 40h1M65 40h3M31 41h3M40 41h1M68 41h2M29 42h2M38 42h1M40 42h1M70 42h1M28 43h1M41 43h1M48 43h1M71 43h1M75 43h1M45 44h1M47 44h1M75 44h1M46 45h1M72 45h1M72 46h1M74 46h1M72 47h2" />
<path stroke="#757552" d="M57 41h3M55 42h5M53 43h6M52 44h7M51 45h8M50 46h10M43 47h1M49 47h10M42 48h2M48 48h8M43 49h2M47 49h5M45 50h1M53 68h1M43 69h1M52 69h1M44 70h1M50 70h3M47 71h2M52 71h1M47 72h2M52 72h1M47 73h2M46 74h6M46 75h6M47 76h5M48 77h4M49 78h3M50 79h2" />
<path stroke="#99995c" d="M42 49h1M52 49h2M46 50h6M46 51h4M46 52h4M59 52h2M40 53h1M46 53h4M56 53h5M40 54h2M45 54h16M40 55h2M44 55h17M39 56h3M45 56h4M53 56h8M39 57h2M45 57h4M53 57h8M39 58h2M45 58h4M53 58h7M39 59h2M45 59h4M53 59h7M40 60h1M45 60h4M53 60h7M40 61h1M44 61h16M40 62h1M44 62h16M41 63h1M44 63h12M57 63h2M41 64h1M46 64h3M52 64h3M58 64h1M41 65h2M46 65h3M52 65h3M58 65h1M42 66h1M46 66h3M52 66h2M42 67h1M46 67h3M52 67h2M43 68h1M45 68h8M46 69h6M46 70h4M44 71h1" />
<path stroke="#fdfdfd" d="M56 64h1M56 65h1M55 66h3M55 67h3M55 68h4M54 69h5M23 70h2M54 70h6M68 70h1M22 71h3M54 71h7M68 71h3M21 72h4M54 72h8M69 72h4M20 73h6M53 73h10M69 73h4M19 74h7M53 74h9M69 74h4M19 75h4M53 75h9M70 75h4M18 76h3M53 76h8M70 76h4M17 77h3M53 77h8M71 77h3M17 78h2M53 78h7M72 78h3M16 79h2M53 79h7M72 79h3M16 80h1M53 80h6M73 80h3M15 81h1M53 81h6M74 81h2M15 82h1M54 82h4M76 82h1M54 83h3M45 87h4M60 87h4M43 88h6M59 88h7M58 89h3M66 89h1" />
</svg>