<svg xmlns="http://www.w3.org/2000/svg" viewBox="0 -0.5 96 96" shape-rendering="crispEdges">
<metadata>Made with Pixels to Svg https://codepen.io/shshaw/pen/XbxvNj</metadata>
<path stroke="#808080" d="M35 20h3M34 21h1M38 21h1M33 22h1M39 22h1M33 23h1M39 23h1M56 23h3M33 24h1M39 24h1M55 24h1M59 24h1M34 25h1M38 25h1M54 25h1M60 25h1M35 26h3M54 26h1M60 26h1M54 27h1M60 27h1M55 28h1M59 28h1M56 29h3M43 41h2M51 51h1M52 52h2M69 52h3M52 53h1M54 53h4M67 53h2M72 53h1M52 54h1M58 54h1M66 54h1M73 54h1M51 55h1M73 55h1M40 56h1M56 56h1M73 56h1M39 57h1M73 57h1M39 58h1M62 58h1M38 59h1M63 59h2M37 60h1M65 60h1M37 61h1M40 61h3M38 62h2M43 62h2M45 63h3M26 66h4M24 67h2M27 67h1M23 68h1M26 68h1M22 69h1M43 69h3M54 69h1M58 69h1M22 70h1M25 70h1M46 70h2M55 70h1M48 71h2M59 71h1M56 72h1M59 72h1M56 73h1M59 73h1" />
<path stroke="#f8f8f8" d="M35 21h2M34 22h4M34 23h4M35 24h2M56 24h3M55 25h5M55 26h5M56 27h3M30 38h1M45 38h1M43 39h1M46 39h1M34 40h2M46 40h1M34 41h1M46 41h1M33 42h3M45 42h1M34 43h2M69 53h3M67 54h6M68 55h5M70 56h3M40 57h1M71 57h2M40 58h2M46 58h1M39 59h8M38 60h3M42 60h5M38 61h1M44 61h3M46 62h1M26 67h1M28 67h3M40 67h3M46 67h3M24 68h2M27 68h4M38 68h6M45 68h4M54 68h4M23 69h2M27 69h2M37 69h5M47 69h2M53 69h1M55 69h3M59 69h1M37 70h3M49 70h1M53 70h2M56 70h2M60 70h1M53 71h2M57 71h2M60 71h2M54 72h2M57 72h2" />
<path stroke="#bfbfbf" d="M37 21h1M38 22h1M38 23h1M34 24h1M37 24h2M35 25h3M55 27h1M59 27h1M56 28h3M44 37h2M46 38h1M35 41h1M32 43h2M32 44h2M62 52h2M53 53h1M61 53h4M53 54h5M61 54h4M52 55h6M66 55h2M52 56h4M68 56h2M52 57h4M70 57h1M45 58h1M52 58h4M71 58h1M53 59h2M61 59h2M41 60h1M53 60h2M60 60h5M39 61h1M43 61h1M60 61h5M45 62h1M59 62h4M59 63h3M58 64h4M57 65h4M30 66h1M58 66h3M31 67h1M54 67h4M31 68h1M44 68h1M53 68h1M58 68h1M25 69h2M29 69h2M42 69h1M46 69h1M52 69h1M23 70h2M26 70h4M40 70h1M48 70h1M52 70h1M58 70h2M52 71h1M55 71h2M52 72h2M60 72h2M54 73h2M57 73h2" />
<path stroke="#806666" d="M34 26h1M33 27h1M38 27h1M33 28h1M38 28h1M54 29h1M53 30h1M53 31h1M53 32h1M58 56h3M61 57h1M37 63h1M36 64h1M36 65h1M37 66h1M40 66h3M46 66h2M38 67h2M43 67h3" />
<path stroke="#bf9999" d="M34 27h4M34 28h4M34 29h2M55 29h1M56 30h3M58 31h1M58 32h1M57 33h1M57 57h4M57 58h4M56 59h4M56 60h3M55 61h4M54 62h4M55 63h3M41 65h1M43 66h1" />
<path stroke="#101010" d="M33 29h1M34 30h1M59 30h1M34 31h1M59 31h1M34 32h1M59 32h1M35 33h1M54 33h1M58 33h1M43 34h1M55 34h3M43 35h1M48 35h1M55 35h1M43 36h3M47 36h1M54 36h1M43 37h1M46 37h2M52 37h2M42 38h1M47 38h1M52 38h1M44 39h1M52 39h1M44 40h1M52 40h1M27 41h1M52 41h1M28 42h1M52 42h1M29 43h3M51 43h1M31 44h1M51 44h1M32 45h2M50 45h1M34 46h2M50 46h1M36 47h2M49 47h1M38 48h1M49 48h1M39 49h1M49 49h1M40 50h1M50 50h1M40 51h1M62 51h2M61 52h1M64 52h1M60 53h1M65 53h1M60 54h1M65 54h1M58 55h1M57 56h1M56 57h1M56 58h1M61 58h1M55 59h1M60 59h1M55 60h1M59 60h1M54 61h1M59 61h1M65 61h1M58 62h1M63 62h2M58 63h1M62 63h1M56 64h2M62 64h1M48 65h1M61 65h1M35 66h1M48 66h1M57 66h1M61 66h1M35 67h1M37 67h1M49 67h1M58 67h3M34 68h1M37 68h1M49 68h1M59 68h1M32 69h2M36 69h1M49 69h1M60 69h1M30 70h2M36 70h1M41 70h2M50 70h1M61 70h1M23 71h7M37 71h4M43 71h2M50 71h1M62 71h1M45 72h7M62 72h1M52 73h2M60 73h2M54 74h6" />
<path stroke="#4d4d80" d="M36 29h3M35 30h1M39 30h1M51 30h2M40 31h7M50 31h1M38 32h2M47 32h3M37 33h1M49 33h1M36 34h1M35 35h1M35 36h1M51 36h1M34 37h1M42 37h1M34 38h1M41 46h1M38 47h3M50 51h1M40 52h1M51 52h1M39 53h1M38 54h1M40 54h1M50 54h1M38 55h1M40 55h1M47 55h1M50 55h1M59 55h1M65 55h1M37 56h1M47 56h1M51 56h1M64 56h1M37 57h1M47 57h1M51 57h1M36 58h1M47 58h1M51 58h1M72 58h1M36 59h1M47 59h1M52 59h1M72 59h1M35 60h1M47 60h1M52 60h1M71 60h1M35 61h1M47 61h1M53 61h1M70 61h1M34 62h1M47 62h1M53 62h1M68 62h2M33 63h1M48 63h1M54 63h1M63 63h5M32 64h1M48 64h1M55 64h1M30 65h2M56 65h1" />
<path stroke="#6b6bb3" d="M36 30h3M35 31h5M35 32h3M36 33h1M54 35h1M48 36h1M52 36h2M34 39h3M47 39h1M36 40h1M47 40h1M47 41h1M36 42h1M46 42h1M36 43h1M44 43h2M34 44h2M40 46h1M42 46h1M49 46h1M48 47h1M39 48h1M46 48h3M40 49h9M41 50h9M41 51h4M48 51h2M49 52h2M40 53h1M49 53h3M39 54h1M51 54h1M60 55h5M61 56h3M41 57h1M46 57h1M62 57h2M42 58h3M71 59h1M69 60h2M66 61h4M65 62h3M43 70h3M45 71h3" />
<path stroke="#ffe5e5" d="M54 30h2M54 31h4M54 32h4M55 33h2M40 62h3M38 63h7M37 64h11M37 65h4M42 65h6M38 66h2M44 66h2" />
<path stroke="#8a8ae5" d="M51 31h2M40 32h7M50 32h3M38 33h11M50 33h4M37 34h6M44 34h11M36 35h7M44 35h4M49 35h5M36 36h7M46 36h1M49 36h2M35 37h7M48 37h4M35 38h7M48 38h4M37 39h5M48 39h4M37 40h5M48 40h4M36 41h6M48 41h4M37 42h6M47 42h5M37 43h7M46 43h5M36 44h15M34 45h16M36 46h4M43 46h6M41 47h7M40 48h6M45 51h3M41 52h8M41 53h8M41 54h9M39 55h1M41 55h6M48 55h2M38 56h2M41 56h6M48 56h3M65 56h3M38 57h1M42 57h4M48 57h3M64 57h6M37 58h2M48 58h3M63 58h8M37 59h1M48 59h4M65 59h6M36 60h1M48 60h4M66 60h3M36 61h1M48 61h5M35 62h3M48 62h5M34 63h3M49 63h5M33 64h3M49 64h6M32 65h4M49 65h7M31 66h4M49 66h8M32 67h3M50 67h4M32 68h2M50 68h3M31 69h1M50 69h2M51 70h1M51 71h1" />
<path stroke="#733f50" d="M29 37h3M28 38h1M32 38h1M27 39h1M33 39h1M27 40h1M33 40h1M33 41h1M32 42h1" />
<path stroke="#e57ea1" d="M29 38h1M31 38h1M28 39h4M28 40h3M43 40h1" />
<path stroke="#2d2e31" d="M43 38h2M42 39h1M45 39h1M42 40h1M45 40h1M42 41h1M45 41h1M43 42h2" />
<path stroke="#b3627d" d="M32 39h1M31 40h2M28 41h5M29 42h3" />
</svg>