<svg xmlns="http://www.w3.org/2000/svg" viewBox="0 -0.5 96 96" shape-rendering="crispEdges">
<metadata>Made with Pixels to Svg https://codepen.io/shshaw/pen/XbxvNj</metadata>
<path stroke="#99264d" d="M51 27h2M51 28h1M53 28h1M51 29h1M50 30h1M50 31h1M49 32h1M47 33h2M45 34h2M43 35h2M42 36h1M50 36h2M55 36h1M41 37h1M48 37h2M51 37h1M46 38h2M51 38h1M54 38h1M45 39h1M50 39h1M53 39h1M44 40h1M50 40h3M40 41h1M44 41h1M40 42h1M43 42h1M43 43h1M43 44h1" />
<path stroke="#f23d79" d="M52 28h1M52 29h2M51 30h4M51 31h4M50 32h6M49 33h7M47 34h9M45 35h11M43 36h7M52 36h3M42 37h6M52 37h3M41 38h5M52 38h2M40 39h5M51 39h2M40 40h4M41 41h3M41 42h2M42 43h1" />
<path stroke="#101010" d="M54 29h1M55 30h1M55 31h1M56 32h1M56 33h1M57 34h1M57 35h1M57 36h1M58 37h1M40 38h1M58 38h1M39 39h1M58 39h1M39 40h1M58 40h1M38 41h1M58 41h1M38 42h1M47 42h1M58 42h1M38 43h1M46 43h1M48 43h1M58 43h1M46 44h1M48 44h1M57 44h1M46 45h3M57 45h1M46 46h3M56 46h1M38 47h5M47 47h1M55 47h1M33 48h5M53 48h2M51 49h2M43 50h2M49 50h2M49 51h1M52 51h3M59 51h3M50 52h2M59 52h1M62 52h1M43 53h1M50 53h1M59 53h1M61 53h1M42 54h1M59 54h2M42 55h1M47 55h2M59 55h1M42 56h3M46 56h1M49 56h2M59 56h1M43 57h1M45 57h1M50 57h1M58 57h1M43 58h1M51 58h1M58 58h1M44 59h1M52 59h1M57 59h1M45 60h4M53 60h4M47 61h1M50 61h1M53 61h1M48 62h5M50 63h1M52 63h1M52 64h2M45 65h4M54 65h1M44 66h1M52 66h3M40 67h5M46 67h4M51 67h1M45 68h1M50 68h1" />
<path stroke="#404040" d="M56 34h1M56 35h1M56 36h1M55 37h2M55 38h3M55 39h3M55 40h3M56 41h2M56 42h2M56 43h2M42 44h1M56 44h1M43 45h1M55 45h2M36 46h1M42 46h2M52 46h4M34 47h4M52 47h2M40 48h1M41 49h2M45 50h1M48 50h1M45 51h1M44 52h1M52 52h3M58 52h1M60 52h2M51 53h5M58 53h1M60 53h1M51 54h8M44 55h1M51 55h7M47 56h2M52 56h5M44 57h1M46 57h3M45 58h3M48 63h1M47 64h1M50 64h1M41 65h4M49 65h1M40 66h1M48 66h1M51 66h1" />
<path stroke="#f8f8f8" d="M50 37h1M48 38h3M46 39h4M45 40h5M53 40h1M39 41h1M45 41h2M50 41h5M39 42h1M44 42h2M51 42h4M39 43h1M44 43h2M47 43h1M51 43h4M44 44h2M47 44h1M51 44h3M44 45h2M44 46h2M43 47h3M41 48h6M50 48h2M43 49h8M45 52h4M44 53h6M43 54h1M45 54h2M48 54h2M43 55h1M45 55h2M45 56h1" />
<path stroke="#262626" d="M57 37h1M54 39h1M54 40h1M55 41h1M55 42h1M40 43h2M55 43h1M38 44h2M55 44h1M36 45h2M51 45h2M54 45h1M34 46h2M51 46h1M33 47h1M51 47h1M54 47h1M52 48h1M58 51h1M55 52h1M57 52h1M56 53h2M50 54h1M50 55h1M58 55h1M51 56h1M57 56h2M49 57h1M51 57h7M44 58h1M48 58h3M52 58h6M45 59h7M53 59h4M49 60h4M48 61h2M51 61h2" />
<path stroke="#4cd96f" d="M47 41h3M46 42h1M48 42h3M49 43h2M49 44h2M49 45h2M49 46h2M46 47h1M48 47h3M47 48h3" />
<path stroke="#bfbfbf" d="M40 44h2M54 44h1M38 45h5M53 45h1M37 46h5M46 50h2M46 51h3M49 52h1M44 54h1M47 54h1M49 55h1M49 63h1M51 63h1M48 64h2M51 64h1M50 65h4M41 66h3M45 66h3M49 66h2M45 67h1M50 67h1" />
</svg>