<svg xmlns="http://www.w3.org/2000/svg" viewBox="0 -0.5 96 96" shape-rendering="crispEdges">
<metadata>Made with Pixels to Svg https://codepen.io/shshaw/pen/XbxvNj</metadata>
<path stroke="#272c23" d="M47 25h5M44 26h3M42 27h2M40 28h2M38 29h2M37 30h1M51 30h5M36 31h1M50 31h1M35 32h1M48 32h1M49 36h4M26 44h1M60 44h1M63 44h2M25 45h1M59 45h1M61 45h2M64 45h1M24 46h1M58 46h1M61 46h1M64 46h3M23 47h1M39 47h1M50 47h4M58 47h1M60 47h1M63 47h1M38 48h1M49 48h1M54 48h2M57 48h1M37 49h1M48 49h1M57 49h1M37 50h1M48 50h1M47 51h1M47 52h1M47 53h1M58 53h1M47 54h1M58 54h1M48 55h1M39 56h1M39 57h1M40 58h1M41 59h1M43 60h1M44 61h1M47 62h1M46 64h1M52 64h2" />
<path stroke="#546152" d="M47 26h4M44 27h7M42 28h8M40 29h9M38 30h11M37 31h11M51 31h4M36 32h12M49 32h5M36 33h3M42 33h5M48 33h4M36 34h1M43 34h8M44 35h5M44 36h4M45 37h5M38 38h1M45 38h3M38 39h1M45 39h1M44 40h1M43 41h2M43 42h2M45 43h1M26 45h2M60 45h1M63 45h1M25 46h3M59 46h2M62 46h2M24 47h2M48 47h1M59 47h1M61 47h2M64 47h2M39 48h1M50 48h4M58 48h7M38 49h1M49 49h7M58 49h6M38 50h1M49 50h8M58 50h5M37 51h1M48 51h10M59 51h2M37 52h1M48 52h10M37 53h1M48 53h10M37 54h1M48 54h10M37 55h1M47 55h1M49 55h9M45 56h3M49 56h8M58 56h1M40 57h9M51 57h4M57 57h1M59 57h1M41 58h9M56 58h1M58 58h1M42 59h8M44 60h4" />
<path stroke="#080808" d="M51 26h1M51 27h1M50 28h1M50 29h1M49 30h1M49 31h1M55 31h1M54 32h1M53 33h1M51 34h2M50 35h1M37 37h1M39 37h1M53 37h1M37 38h1M39 38h1M51 38h2M37 39h1M39 39h1M48 39h3M38 40h1M46 40h2M45 41h1M45 42h1M34 43h5M46 43h1M32 44h2M46 44h1M30 45h2M47 45h1M28 46h2M48 46h1M26 47h2M49 47h1M66 47h1M23 48h3M65 48h1M39 49h1M56 49h1M64 49h1M39 50h1M57 50h1M63 50h1M36 51h1M38 51h1M58 51h1M62 51h1M36 52h1M38 52h1M58 52h1M61 52h2M36 53h1M38 53h1M59 53h2M62 53h1M36 54h1M38 54h1M62 54h1M36 55h1M38 55h1M61 55h1M37 56h1M48 56h1M61 56h1M37 57h1M49 57h1M60 57h1M38 58h1M50 58h1M59 58h1M39 59h2M51 59h2M57 59h2M41 60h2M53 60h4M43 61h1M55 61h1M43 62h1M48 62h2M55 62h1M44 63h1M48 63h1M50 63h1M54 63h1M45 64h1M47 64h1M51 64h1M54 64h1M47 65h1M54 65h1M48 66h1M55 66h1M48 67h1M55 67h1M47 68h1M55 68h1M46 69h1M54 69h1M46 70h2M53 70h1M48 71h1M53 71h2M39 72h1M42 72h3M55 72h1M38 73h1M41 73h1M50 73h6M46 74h1M49 74h1M45 75h1M48 75h1" />
<path stroke="#3c4136" d="M49 29h1M48 31h1M34 33h2M39 33h3M47 33h1M52 33h1M34 34h2M37 34h1M42 34h1M33 35h1M35 35h2M43 35h1M49 35h1M33 36h1M35 36h1M48 36h1M33 37h1M44 37h1M50 37h3M44 38h1M48 38h3M44 39h1M46 39h2M43 40h1M45 40h1M61 51h1M59 52h2M61 53h1M59 54h3M39 55h1M45 55h2M58 55h3M38 56h1M40 56h5M57 56h1M59 56h2M38 57h1M50 57h1M55 57h2M58 57h1M39 58h1M51 58h5M57 58h1M50 59h1M53 59h4M48 60h5M45 61h10M44 62h3M50 62h5M45 63h3M51 63h3M45 65h1M52 65h1M46 66h1M53 66h1M46 67h1M53 67h1M45 68h1M53 68h1M44 69h1M52 69h1M39 70h5M45 70h1M51 70h1M38 71h1M41 71h1M49 71h2M52 71h1M37 72h1M40 72h1M45 72h4M37 73h1M40 73h1M44 73h1M47 73h1M44 74h1M47 74h1M44 75h1M47 75h1" />
<path stroke="#c3c3c3" d="M38 34h1M43 36h1M42 41h1M37 42h1M42 42h1M39 43h1M43 43h1M46 46h1M47 47h1M48 48h1" />
<path stroke="#8d822c" d="M39 34h1M38 35h1M42 35h1M37 36h1M46 49h1M41 50h1M45 50h1M47 50h1M40 51h1M42 51h1M44 51h1M39 52h1M43 52h1" />
<path stroke="#ddd039" d="M40 34h2M39 35h3M38 36h4M46 50h1M41 51h1M45 51h2M40 52h3M44 52h3M39 53h8M39 54h8M40 55h5" />
<path stroke="#fcfcfc" d="M34 35h1M37 35h1M34 36h1M36 36h1M42 36h1M34 37h3M38 37h1M42 37h2M35 38h2M42 38h2M36 39h1M42 39h2M36 40h2M41 40h2M37 41h5M38 42h4M40 43h3M41 44h3M42 45h2M41 47h1M46 47h1M41 48h2M45 48h3M40 49h4M45 49h1M47 49h1M40 50h1M42 50h3M39 51h1M43 51h1" />
<path stroke="#5ec2e3" d="M40 37h2M40 38h2M40 39h2M39 40h2" />
<path stroke="#54265e" d="M32 38h1M34 38h1M31 39h1M35 39h1M30 40h1M35 40h1M29 41h1M36 41h1M28 42h1M36 42h1M27 43h1M39 44h1M40 45h1M40 46h1M40 47h1M40 48h1" />
<path stroke="#a753b0" d="M33 38h1M32 39h3M31 40h4M30 41h6M30 42h6M31 43h3M31 44h1" />
<path stroke="#f43e8f" d="M29 42h1M28 43h3M44 43h1M27 44h4M40 44h1M44 44h1M28 45h2M41 45h1M44 45h2M41 46h5M42 47h4M43 48h2M44 49h1" />
<path stroke="#ca1c6f" d="M45 44h1M46 45h1M47 46h1" />
<path stroke="#7ba9bf" d="M46 65h1M53 65h1M47 66h1M54 66h1M47 67h1M54 67h1M46 68h1M54 68h1M45 69h1M53 69h1M44 70h1M52 70h1M39 71h2M42 71h6M51 71h1M38 72h1M41 72h1M49 72h6M45 73h2M48 73h2M45 74h1M48 74h1" />
</svg>