<svg xmlns="http://www.w3.org/2000/svg" viewBox="0 -0.5 96 96" shape-rendering="crispEdges">
<metadata>Made with Pixels to Svg https://codepen.io/shshaw/pen/XbxvNj</metadata>
<path stroke="#362718" d="M31 20h1M22 21h1M30 21h1M32 21h1M21 22h1M23 22h1M30 22h1M32 22h1M21 23h1M24 23h1M30 23h1M33 23h1M21 24h1M24 24h1M29 24h1M33 24h1M25 25h1M29 25h1M45 26h4M43 27h2M41 28h2M27 46h1M46 46h1M27 47h1M47 47h1M27 48h1M47 48h1M27 49h1M48 49h1M27 50h1M48 50h1M27 51h1M49 51h1M27 52h1M51 67h1M28 68h2M52 68h2M27 69h1M30 69h2M33 69h2M51 69h1M53 69h1M62 69h2M26 70h1M29 70h1M32 70h1M35 70h1M61 70h1M64 70h2M28 71h1M31 71h1M60 71h1M63 71h1M66 71h2M42 72h2M62 72h1M65 72h1M67 72h1M41 73h1M44 73h2M64 73h1M40 74h1M43 74h1M46 74h2M42 75h1M45 75h1M47 75h1M44 76h1" />
<path stroke="#846f51" d="M31 21h1M22 22h1M31 22h1M22 23h2M31 23h2M23 24h1M30 24h2M45 27h3M43 28h4M41 29h4M23 45h1M22 46h1M44 49h2M46 50h2M48 51h1M28 69h1M27 70h1M30 70h1M33 70h1M29 71h1M32 71h1M42 73h1M41 74h1M44 74h1M43 75h1M46 75h1M45 76h1" />
<path stroke="#806f5e" d="M43 23h1M41 24h2M40 25h1M38 26h2M37 27h1M49 27h5M35 28h2M63 28h6M40 29h1M60 29h3M68 29h1M41 30h1M58 30h2M67 30h1M42 31h2M49 31h4M57 31h1M68 31h1M44 32h1M53 32h2M56 32h1M69 32h1M45 33h1M55 33h3M60 35h1M59 36h1M30 37h2M59 37h1M29 38h1M49 38h1M58 38h1M28 39h1M58 39h1M64 39h2M27 40h1M62 40h2M26 41h1M61 41h1M71 43h1M44 44h1M29 45h2M41 45h1M28 46h1M31 46h1M29 47h1M32 47h1M39 47h1M29 48h1M30 49h1M30 50h1M30 51h1M38 51h1M31 52h1M31 53h1M73 53h2M31 54h1M31 55h1M31 56h1M63 56h2M31 57h1M31 58h1M31 59h1M34 59h1M55 59h1M34 60h1M55 60h1M34 61h1M55 61h1M34 62h1M55 62h1M34 63h1M47 63h1M55 63h1M67 63h1M34 64h1M47 64h1M55 64h1M67 64h1M34 65h1M47 65h1M54 65h1M67 65h1M33 66h1M47 66h1M52 66h2M67 66h1M31 67h2M47 67h1M66 67h1M30 68h1M47 68h1M64 68h2M47 69h1M46 70h1M44 71h2" />
<path stroke="#101010" d="M44 23h1M44 24h1M44 25h1M44 26h1M48 27h1M47 28h1M53 28h1M46 29h1M52 29h1M45 30h1M51 30h1M44 31h1M70 33h1M58 34h1M70 34h1M57 35h1M71 35h1M55 36h2M71 36h1M17 37h2M40 37h5M52 37h3M71 37h1M40 38h1M50 38h2M54 38h1M72 38h1M41 39h1M51 39h1M72 39h1M28 40h1M42 40h1M51 40h1M72 40h1M43 41h1M52 41h1M72 41h1M36 42h3M44 42h1M52 42h1M73 42h1M20 43h1M30 43h2M36 43h1M39 43h6M52 43h1M73 43h1M18 44h3M29 44h1M32 44h2M37 44h1M53 44h1M71 44h1M74 44h1M16 45h2M19 45h1M27 45h2M34 45h4M44 45h4M53 45h1M71 45h4M19 46h1M24 46h3M42 46h3M48 46h3M53 46h1M71 46h1M20 47h4M40 47h3M51 47h3M71 47h1M41 48h1M72 48h1M42 49h2M72 49h1M44 50h2M73 50h1M46 51h2M56 51h1M65 51h1M74 51h1M29 52h1M38 52h1M48 52h2M56 52h1M65 52h1M75 52h1M27 53h2M38 53h1M53 53h3M57 53h1M66 53h2M75 53h1M37 54h1M50 54h3M58 54h1M68 54h1M74 54h1M37 55h1M42 55h1M49 55h1M52 55h1M59 55h2M68 55h1M73 55h2M36 56h1M42 56h1M49 56h1M53 56h1M59 56h1M61 56h2M69 56h4M35 57h2M42 57h1M50 57h1M54 57h1M59 57h1M63 57h1M69 57h1M34 58h1M37 58h1M42 58h1M50 58h1M54 58h1M60 58h1M64 58h1M69 58h1M33 59h1M38 59h1M41 59h1M51 59h1M60 59h1M65 59h1M69 59h1M31 60h2M39 60h1M41 60h1M51 60h1M60 60h1M65 60h1M69 60h1M38 61h1M40 61h1M51 61h1M59 61h1M66 61h1M70 61h1M38 62h1M51 62h1M59 62h1M66 62h1M70 62h1M37 63h1M51 63h1M58 63h1M70 63h1M37 64h1M50 64h1M58 64h1M70 64h1M37 65h1M50 65h1M57 65h1M70 65h1M37 66h1M50 66h1M57 66h1M70 66h1M37 67h1M50 67h1M57 67h1M70 67h1M38 68h1M50 68h1M56 68h1M71 68h1M38 69h1M50 69h1M56 69h1M71 69h1M38 70h1M50 70h1M53 70h3M71 70h1M26 71h2M35 71h3M50 71h3M71 71h1M28 72h7M51 72h1M60 72h2M69 72h2M51 73h1M62 73h2M67 73h2M51 74h1M64 74h3M40 75h2M49 75h2M42 76h2M47 76h2M44 77h3" />
<path stroke="#614836" d="M22 24h1M32 24h1M24 25h1M30 25h1M45 29h1M42 30h3M20 45h3M20 46h2M45 46h1M28 47h1M43 47h4M28 48h1M42 48h5M28 49h2M46 49h2M28 50h2M28 51h2M28 52h1M51 68h1M29 69h1M52 69h1M28 70h1M31 70h1M34 70h1M51 70h2M62 70h2M30 71h1M33 71h2M61 71h2M64 71h2M63 72h2M66 72h1M43 73h1M65 73h2M42 74h1M45 74h1M44 75h1M46 76h1" />
<path stroke="#ece8d7" d="M43 24h1M41 25h3M40 26h4M38 27h5M37 28h1M48 28h4M38 29h1M47 29h4M63 29h5M39 30h2M46 30h4M60 30h6M40 31h2M46 31h2M58 31h10M41 32h3M46 32h7M57 32h12M42 33h3M47 33h8M58 33h4M63 33h6M29 34h1M43 34h3M47 34h9M59 34h2M62 34h8M28 35h3M44 35h11M62 35h8M28 36h4M45 36h9M64 36h7M27 37h3M32 37h1M45 37h6M65 37h6M27 38h2M32 38h1M43 38h5M66 38h5M26 39h2M32 39h1M44 39h5M68 39h3M26 40h1M32 40h1M44 40h5M67 40h4M25 41h1M31 41h2M45 41h5M68 41h3M24 42h4M30 42h2M47 42h3M68 42h3M21 43h1M23 43h7M68 43h3M21 44h8M38 44h1M69 44h2M24 45h3M38 45h2M69 45h2M23 46h1M37 46h4M60 46h1M70 46h1M35 47h4M30 48h3M34 48h5M61 48h1M31 49h3M35 49h4M62 49h1M31 50h7M62 50h2M31 51h7M32 52h6M32 53h5M32 54h5M32 55h4M32 56h2M33 67h2M31 68h5M32 69h1M35 69h2M36 70h1M46 71h2M44 72h5M46 73h4M48 74h2M48 75h1" />
<path stroke="#3d4867" d="M21 25h1M33 25h1M21 26h1M25 26h1M29 26h1M34 26h1M21 27h1M26 27h1M29 27h1M34 27h1M21 28h1M26 28h4M34 28h1M22 29h1M25 29h1M29 29h1M35 29h1M22 30h1M35 30h1M22 31h1M36 31h2M21 32h1M38 32h2M20 33h1M40 33h2M19 34h1M42 34h1M18 35h1M22 35h1M43 35h1M17 36h1M21 36h1M44 36h1M19 37h1M21 37h1M39 37h1M19 38h2M18 39h1M20 39h1M53 39h5M18 40h1M20 40h1M52 40h1M59 40h1M17 41h1M21 41h1M60 41h1M17 42h1M21 42h1M35 42h1M61 42h1M16 43h1M62 43h1M16 44h1M62 44h1M63 45h1M63 46h1M63 47h1M40 48h1M64 48h1M40 49h1M55 49h1M64 49h1M40 50h1M55 50h1M64 50h1M41 51h1M41 52h1M42 53h1M49 53h1M42 54h1M49 54h1M43 55h1M43 56h1M44 57h1M45 58h1M45 59h1M46 60h1M46 61h1M46 62h1" />
<path stroke="#6778b4" d="M22 25h1M32 25h1M23 26h2M31 26h1M24 27h2M33 27h1M25 28h1M26 29h1M24 30h1M29 30h1M31 30h1M35 31h1M22 32h1M29 33h1M23 34h1M28 34h1M30 34h1M41 34h1M31 35h1M42 35h1M27 36h1M32 36h1M43 36h1M20 37h1M38 37h1M26 38h1M33 38h1M39 38h1M33 39h1M40 39h1M25 40h1M33 40h1M40 40h2M58 40h1M24 41h1M41 41h2M20 42h1M23 42h1M32 42h1M39 42h5M19 43h1M22 43h1M32 43h4M17 44h1M34 44h3M47 46h1M48 47h3M48 48h1M55 48h1M41 49h1M49 49h1M41 50h3M49 50h3M45 51h1M50 51h6M64 51h1M47 52h1M50 52h6M57 52h1M61 52h2M48 53h1M50 53h3M58 53h5M53 54h2M59 54h5M61 55h3M44 56h1M48 57h2M35 58h2M46 58h4M36 59h2M46 59h5M37 60h2M47 60h4M37 61h1M47 61h4M47 62h1M49 62h2M50 63h1" />
<path stroke="#8ba9cd" d="M23 25h1M31 25h1M30 26h1M33 26h1M30 27h1M30 28h1M24 29h1M27 29h2M30 29h1M34 29h1M23 30h1M25 30h4M30 30h1M34 30h1M23 31h12M23 32h15M21 33h8M30 33h10M20 34h3M24 34h4M31 34h10M19 35h3M23 35h5M32 35h10M18 36h3M22 36h5M33 36h10M22 37h5M33 37h5M21 38h5M34 38h5M19 39h1M21 39h5M34 39h6M19 40h1M21 40h4M34 40h6M53 40h5M18 41h3M22 41h2M33 41h8M53 41h7M18 42h2M22 42h1M33 42h2M53 42h8M17 43h2M53 43h9M54 44h8M54 45h9M54 46h6M61 46h2M54 47h9M49 48h6M56 48h5M62 48h2M50 49h5M56 49h6M63 49h1M52 50h3M56 50h6M42 51h3M57 51h6M42 52h5M58 52h3M43 53h5M43 54h6M44 55h5M45 56h4M45 57h3" />
<path stroke="#fa9f8f" d="M22 26h1M32 26h1M22 27h2M31 27h2M22 28h3M31 28h3M23 29h1M31 29h3M32 30h2" />
<path stroke="#c7b3a7" d="M38 28h3M52 28h1M36 29h2M39 29h1M51 29h1M36 30h3M50 30h1M66 30h1M38 31h2M45 31h1M48 31h1M40 32h1M45 32h1M46 33h1M62 33h1M69 33h1M46 34h1M56 34h2M61 34h1M55 35h2M58 35h2M61 35h1M70 35h1M54 36h1M57 36h2M60 36h4M51 37h1M55 37h4M60 37h5M31 38h1M41 38h2M48 38h1M55 38h3M59 38h7M71 38h1M31 39h1M42 39h2M49 39h2M59 39h5M66 39h2M71 39h1M31 40h1M43 40h1M49 40h2M60 40h2M64 40h3M71 40h1M30 41h1M44 41h1M50 41h2M62 41h6M71 41h1M28 42h2M45 42h2M50 42h2M62 42h6M71 42h2M37 43h2M45 43h7M63 43h5M72 43h1M30 44h2M39 44h5M45 44h8M63 44h6M72 44h2M31 45h3M40 45h1M42 45h2M48 45h5M64 45h5M29 46h2M32 46h5M41 46h1M51 46h2M64 46h6M30 47h2M33 47h2M64 47h7M33 48h1M39 48h1M65 48h7M34 49h1M39 49h1M65 49h7M38 50h2M65 50h8M39 51h2M63 51h1M66 51h8M39 52h2M63 52h2M66 52h9M37 53h1M39 53h3M56 53h1M63 53h3M68 53h5M38 54h4M55 54h3M64 54h4M69 54h5M36 55h1M38 55h4M55 55h4M64 55h4M69 55h4M34 56h2M37 56h5M54 56h5M65 56h4M32 57h3M37 57h5M55 57h4M64 57h5M32 58h2M38 58h4M55 58h5M65 58h4M32 59h1M35 59h1M39 59h2M56 59h4M66 59h3M35 60h2M40 60h1M56 60h4M66 60h3M35 61h2M56 61h3M67 61h3M35 62h3M48 62h1M56 62h3M67 62h3M35 63h2M48 63h2M56 63h2M68 63h2M35 64h2M48 64h2M56 64h2M68 64h2M35 65h2M48 65h2M55 65h2M68 65h2M34 66h3M48 66h2M54 66h3M68 66h2M35 67h2M48 67h2M52 67h5M67 67h3M36 68h2M48 68h2M54 68h2M66 68h5M37 69h1M48 69h2M54 69h2M64 69h7M37 70h1M47 70h3M66 70h5M48 71h2M68 71h3M49 72h2M68 72h1M50 73h1M50 74h1" />
<path stroke="#fefefe" d="M30 38h1M30 39h1M30 40h1M29 41h1" />
<path stroke="#afd127" d="M29 39h1M29 40h1M27 41h2" />
<path stroke="#cdccb4" d="M53 55h2" />
</svg>