<svg xmlns="http://www.w3.org/2000/svg" viewBox="0 -0.5 96 96" shape-rendering="crispEdges">
<metadata>Made with Pixels to Svg https://codepen.io/shshaw/pen/XbxvNj</metadata>
<path stroke="#733900" d="M51 22h2M43 23h4M49 23h2M47 24h1M36 25h2M59 25h1M35 26h1M38 26h1M40 26h3M60 26h1M41 27h3M61 27h1M31 28h1M38 28h1M45 28h1M30 29h1M37 29h2M45 29h2M58 29h1M29 30h1M36 30h1M47 30h3M59 30h1M34 31h1M50 31h1M59 31h3M52 32h8M29 33h4M50 33h1M33 34h1M27 35h1M33 35h2M26 36h1M34 36h1M36 36h1M49 36h1M52 36h1M26 37h1M34 37h2M49 37h1M51 37h2M26 38h1M34 38h2M49 38h1M25 39h1M34 39h2M24 40h1M34 40h2M23 41h1M28 41h1M33 41h2M39 41h2M56 41h2M23 42h1M59 42h1M23 43h1M36 43h2M23 44h1M33 44h3M23 45h1M35 45h3M60 48h4M59 49h1M60 50h1M64 50h3M61 51h6M55 52h1M61 52h6M55 53h1M57 53h1M61 53h6M34 54h3M62 54h5M62 55h4M38 56h1M56 56h1M63 56h1M38 57h1M40 57h2M57 57h4M38 58h1M40 58h2M57 58h1M38 59h1M40 59h1M51 59h1M57 59h1M39 60h2M38 61h2M52 61h2M34 62h1M52 62h2M38 63h1M51 63h2M37 64h4M52 64h1M38 65h14M40 66h12M41 67h1M43 67h1M44 68h1" />
<path stroke="#946208" d="M53 22h1M54 23h2M41 24h1M57 24h2M40 25h1M34 26h1M43 26h3M33 27h1M38 27h2M44 27h1M32 28h1M37 28h1M39 28h1M35 29h2M51 29h7M33 30h3M37 30h1M50 30h9M30 31h4M51 31h8M31 32h3M36 32h1M51 33h1M54 33h1M32 34h1M50 34h2M53 34h1M36 35h1M49 35h3M53 35h1M33 36h1M50 36h2M53 36h2M50 37h1M53 37h4M37 38h1M50 38h1M53 38h6M49 39h1M54 39h7M27 40h1M33 40h1M38 40h5M49 40h1M56 40h5M32 41h1M53 41h3M58 42h1M33 43h3M59 43h1M36 44h2M60 44h1M32 45h1M58 45h3M32 46h1M56 46h6M53 47h1M56 47h3M56 48h3M36 49h1M56 49h2M60 49h6M36 50h1M59 50h1M61 50h3M35 51h1M56 51h1M58 51h3M32 52h3M56 52h1M58 52h3M56 53h1M58 53h3M30 54h4M54 54h1M58 54h4M30 55h8M54 55h2M59 55h3M29 56h9M53 56h3M60 56h3M29 57h9M53 57h4M30 58h8M52 58h5M29 59h3M33 59h1M35 59h3M41 59h2M52 59h4M30 60h1M32 60h1M34 60h4M41 60h3M50 60h1M52 60h3M31 61h1M33 61h2M40 61h11M33 62h1M40 62h10M44 67h5" />
<path stroke="#101010" d="M41 23h2M40 24h1M48 24h1M38 25h2M47 25h1M39 26h1M46 26h1M40 27h1M45 27h1M40 28h5M61 28h1M39 29h1M61 29h1M61 30h1M29 31h1M35 31h2M29 32h2M34 32h2M51 32h1M60 32h3M28 33h1M33 33h3M52 33h2M63 33h1M27 34h1M34 34h2M52 34h1M64 34h1M70 34h2M35 35h1M52 35h1M64 35h1M66 35h1M72 35h1M35 36h1M64 36h2M72 36h2M36 37h1M63 37h1M70 37h1M72 37h1M36 38h1M51 38h2M63 38h2M71 38h2M76 38h1M26 39h1M36 39h2M50 39h4M77 39h1M26 40h1M36 40h2M44 40h3M50 40h6M73 40h5M27 41h1M35 41h4M41 41h1M51 41h2M58 41h4M66 41h2M29 42h12M60 42h2M68 42h1M31 43h2M38 43h2M60 43h3M64 43h1M32 44h1M38 44h1M61 44h1M63 44h2M69 44h1M61 45h1M65 45h5M30 46h2M37 46h1M41 46h1M55 46h1M62 46h1M67 46h1M19 47h2M29 47h1M31 47h1M37 47h1M59 47h9M18 48h1M24 48h1M31 48h1M37 48h1M43 48h1M55 48h1M59 48h1M64 48h3M17 49h2M25 49h1M31 49h1M37 49h1M41 49h1M55 49h1M58 49h1M66 49h2M18 50h1M20 50h1M31 50h1M37 50h1M44 50h1M52 50h1M55 50h4M67 50h1M14 51h1M18 51h2M26 51h2M30 51h1M36 51h2M55 51h1M57 51h1M67 51h1M13 52h1M30 52h1M35 52h4M41 52h1M54 52h1M57 52h1M67 52h1M13 53h5M32 53h7M41 53h3M54 53h1M67 53h1M23 54h2M37 54h3M44 54h1M55 54h3M67 54h1M22 55h1M38 55h3M42 55h1M53 55h1M56 55h3M66 55h1M26 56h1M28 56h1M39 56h3M45 56h5M52 56h1M57 56h3M64 56h2M21 57h1M26 57h3M39 57h1M51 57h1M61 57h4M21 58h8M39 58h1M42 58h1M44 58h1M51 58h1M58 58h2M28 59h1M39 59h1M43 59h1M50 59h1M56 59h1M29 60h1M38 60h1M44 60h6M51 60h1M55 60h2M30 61h1M36 61h2M51 61h1M54 61h2M31 62h2M35 62h5M50 62h2M54 62h1M32 63h6M39 63h12M53 63h2M36 64h1M41 64h11M53 64h2M23 65h1M37 65h1M52 65h3M23 66h1M38 66h2M52 66h2M55 66h1M42 67h1M49 67h3M56 67h1M24 68h2M36 68h2M45 68h4M57 68h1M25 69h2M36 69h1M38 69h1M66 69h1M24 70h1M27 70h4M39 70h1M56 70h1M67 70h1M29 71h1M37 71h2M55 71h1M68 71h1M22 72h2M28 72h1M35 72h2M55 72h1M68 72h1M23 73h1M26 73h2M32 73h3M56 73h1M66 73h1M69 73h1M23 74h3M27 74h1M30 74h2M56 74h1M63 74h1M67 74h1M70 74h1M27 75h3M57 75h1M60 75h1M64 75h2M68 75h3M57 76h1M60 76h2M64 76h1M66 76h2M58 77h1M60 77h1M62 77h1M64 77h1M59 78h1M63 78h1" />
<path stroke="#d5ac52" d="M51 23h3M42 24h5M50 24h6M42 25h5M49 25h10M36 26h1M48 26h12M34 27h4M50 27h9M33 28h3M52 28h6M31 29h3M30 30h2M39 30h8M37 31h12M37 32h13M37 33h13M55 33h6M29 34h3M38 34h11M55 34h7M28 35h4M38 35h11M54 35h9M28 36h5M39 36h10M56 36h7M27 37h6M39 37h6M58 37h5M27 38h7M60 38h2M28 39h5M28 40h5M25 41h1M29 41h2M24 42h3M24 43h3M24 44h2M24 45h1M33 46h3M32 47h4M32 48h2" />
<path stroke="#b48b31" d="M49 24h1M56 24h1M41 25h1M48 25h1M37 26h1M47 26h1M46 27h4M59 27h2M36 28h1M46 28h6M58 28h3M34 29h1M40 29h5M47 29h4M59 29h2M32 30h1M38 30h1M60 30h1M49 31h1M50 32h1M36 33h1M61 33h2M28 34h1M36 34h2M49 34h1M54 34h1M62 34h2M32 35h1M37 35h1M63 35h1M27 36h1M37 36h2M55 36h1M63 36h1M33 37h1M37 37h2M45 37h4M57 37h1M38 38h11M59 38h1M27 39h1M33 39h1M38 39h11M25 40h1M24 41h1M26 41h1M31 41h1M53 42h5M54 43h5M54 44h6M33 45h2M55 45h3M36 46h1M36 47h1M34 48h3M32 49h4M32 50h4M31 51h4M31 52h1M30 53h2M29 58h1M32 59h1M34 59h1M31 60h1M33 60h1M32 61h1M35 61h1" />
<path stroke="#8b624a" d="M67 33h3M66 34h1M64 37h1M62 38h1M61 39h1M43 40h1M47 40h2M61 40h1M42 41h1M50 41h1M73 41h1M27 42h2M52 42h1M72 42h1M27 43h1M30 43h1M53 43h1M70 43h2M26 44h1M31 44h1M40 44h1M25 45h1M38 45h1M40 45h1M54 45h1M21 46h4M54 46h1M65 46h2M24 47h1M42 47h1M55 47h1M25 48h1M27 48h1M53 48h1M26 49h1M44 49h1M26 50h1M30 50h1M28 51h2M40 51h1M45 51h1M52 51h1M54 51h1M29 52h1M46 52h1M51 52h1M29 53h1M39 53h1M46 53h1M17 54h1M29 54h1M40 54h2M47 54h4M53 54h1M18 55h1M29 55h1M45 55h1M52 55h1M19 56h2M50 56h1M42 57h1M52 57h1M65 58h1M66 59h1M26 60h2M25 61h1M67 61h1M24 62h1M68 62h1M24 63h1M68 63h1M23 64h1M68 64h1M36 65h1M68 65h1M35 66h1M67 66h1M24 67h1M36 67h1M67 67h1M33 68h1M66 68h1M27 69h1M31 69h2M57 69h1M23 70h1M26 70h1M66 70h1M22 71h1M25 71h1M58 74h2" />
<path stroke="#e6cda4" d="M67 34h3M67 35h2M66 36h2M66 37h2M65 38h2M62 39h4M71 39h1M62 40h4M70 40h3M43 41h6M62 41h3M70 41h3M42 42h6M51 42h1M63 42h1M69 42h3M41 43h6M52 43h1M69 43h1M41 44h6M27 45h3M41 45h7M25 46h4M42 46h7M53 46h1M21 47h3M25 47h4M43 47h6M22 48h2M26 48h1M44 48h6M52 48h1M23 49h2M45 49h7M54 49h1M23 50h2M46 50h6M54 50h1M24 51h2M46 51h5M53 51h1M19 52h1M25 52h4M47 52h4M52 52h2M18 53h3M25 53h4M48 53h3M52 53h2M18 54h3M26 54h3M51 54h2M19 55h3M27 55h1M49 55h3M21 56h1M51 56h1M60 58h5M45 59h5M58 59h8M28 60h1M59 60h7M26 61h4M59 61h8M25 62h6M60 62h8M25 63h7M60 63h8M25 64h6M62 64h6M26 65h3M57 65h1M64 65h4M58 66h1M57 67h1M65 71h3M62 72h6M61 73h4" />
<path stroke="#c59c7b" d="M69 35h1M65 37h1M68 37h1M67 38h4M66 39h5M66 40h4M49 41h1M65 41h1M68 41h2M41 42h1M62 42h1M64 42h1M28 43h2M40 43h1M63 43h1M27 44h4M39 44h1M53 44h1M62 44h1M26 45h1M30 45h2M39 45h1M62 45h3M29 46h1M38 46h3M63 46h2M30 47h1M38 47h3M54 47h1M21 48h1M28 48h3M38 48h3M54 48h1M27 49h4M38 49h3M22 50h1M25 50h1M27 50h3M38 50h3M45 50h1M20 51h4M38 51h2M41 51h4M51 51h1M20 52h5M39 52h2M42 52h4M21 53h4M40 53h1M44 53h2M47 53h1M51 53h1M21 54h2M25 54h1M45 54h2M26 55h1M28 55h1M41 55h1M46 55h3M27 56h1M42 56h1M43 57h1M43 58h1M44 59h1M57 60h2M66 60h1M56 61h3M55 62h5M55 63h5M24 64h1M31 64h5M55 64h7M24 65h2M29 65h7M55 65h2M58 65h6M24 66h11M56 66h2M59 66h8M25 67h11M58 67h9M26 68h7M34 68h2M58 68h8M28 69h3M33 69h3M58 69h8M25 70h1M31 70h6M57 70h9M26 71h3M30 71h7M56 71h9M27 72h1M29 72h6M56 72h6M30 73h2M57 73h4M57 74h1M61 74h1" />
<path stroke="#ffffff" d="M70 35h1M69 36h3M71 37h1M73 37h2M74 38h2M75 39h2M66 42h2M65 43h3M67 44h2M41 47h1M20 48h1M19 49h3M43 49h1M53 49h1M16 50h2M19 50h1M15 51h2M14 52h2M23 55h2M23 56h3M22 57h2M45 58h1M50 58h1M24 73h1M68 73h1M28 74h2M66 74h1M69 74h1M67 75h1M59 76h1M62 76h2M59 77h1M63 77h1" />
<path stroke="#cdcdcd" d="M71 35h1M73 38h1M73 39h2M65 42h1M65 44h2M19 48h1M43 50h1M53 50h1M17 51h1M16 52h2M25 55h1M24 57h2M37 69h1M37 70h2M23 71h1M25 72h1M25 73h1M29 73h1M65 74h1M68 74h1M58 75h2M62 75h2M66 75h1M58 76h1" />
<path stroke="#737373" d="M68 36h1M74 36h1M69 37h1M75 37h1M72 39h1M68 43h1M16 49h1M22 49h1M15 50h1M21 50h1M41 50h1M18 52h1M22 56h1M45 57h1M50 57h1M46 58h1M49 58h1M24 71h1M24 72h1M26 72h1M28 73h1M65 73h1M67 73h1M60 74h1M62 74h1M64 74h1M61 75h1" />
<path stroke="#eedec5" d="M48 42h3M47 43h5M47 44h6M48 45h6M49 46h4M49 47h4M50 48h2" />
<path stroke="#ff5252" d="M41 48h2M42 49h1M52 49h1M42 50h1" />
<path stroke="#b40000" d="M42 54h2M43 55h2M43 56h2M44 57h1M46 57h4M47 58h2" />
</svg>