<svg xmlns="http://www.w3.org/2000/svg" viewBox="0 -0.5 96 96" shape-rendering="crispEdges">
<metadata>Made with Pixels to Svg https://codepen.io/shshaw/pen/XbxvNj</metadata>
<path stroke="#16171a" d="M41 13h1M50 13h2M40 14h1M48 14h2M39 15h1M46 15h2M38 16h1M44 16h2M37 17h1M42 17h2M36 18h1M41 18h1M35 19h1M34 20h1M33 21h1M22 26h1M21 27h1M23 27h1M21 28h1M24 28h1M34 28h2M65 28h2M21 29h1M25 29h1M32 29h2M62 29h3M67 29h1M85 29h1M21 30h1M26 30h1M31 30h1M58 30h4M68 30h1M83 30h2M19 31h4M27 31h1M30 31h1M57 31h1M82 31h1M19 32h1M22 32h2M28 32h2M56 32h1M80 32h2M28 33h1M55 33h1M78 33h2M27 34h1M54 34h1M75 34h3M20 35h1M27 35h1M54 35h1M73 35h2M83 35h1M21 36h1M26 36h1M53 36h1M81 36h6M25 37h1M52 37h1M72 37h1M21 38h1M25 38h1M52 38h1M72 38h1M24 39h1M51 39h1M23 40h1M50 40h1M23 41h1M50 41h1M71 41h2M81 41h4M22 42h1M49 42h1M72 42h1M22 43h1M49 43h1M21 44h1M45 44h2M48 44h1M21 45h1M35 45h3M44 45h1M47 45h1M21 46h1M34 46h1M47 46h1M20 47h1M33 47h1M43 47h1M46 47h1M20 48h1M33 48h1M45 48h1M20 49h1M45 49h1M20 50h1M44 50h1M19 51h1M44 51h1M19 52h1M19 53h1M19 54h1M19 55h1M50 57h1M51 59h1M51 61h1M59 66h1" />
<path stroke="#010101" d="M42 13h1M42 14h1M51 14h1M42 15h1M50 15h1M41 16h1M49 16h1M41 17h1M48 17h1M47 18h1M46 19h1M45 20h1M44 21h1M52 21h1M50 22h2M49 23h1M47 24h1M49 26h1M48 27h1M47 28h1M86 29h1M32 30h1M48 30h1M86 30h1M32 31h1M47 31h1M69 31h1M86 31h1M32 32h1M46 32h1M70 32h1M86 32h1M19 33h1M31 33h1M70 33h1M86 33h1M19 34h1M31 34h1M48 34h1M71 34h1M85 34h1M30 35h1M47 35h1M71 35h2M84 35h1M20 36h1M30 36h1M48 36h1M72 36h1M87 36h1M20 37h1M29 37h1M49 37h1M87 37h1M29 38h1M48 38h1M87 38h1M21 39h1M28 39h1M48 39h1M86 39h1M22 40h1M28 40h1M35 40h1M41 40h1M49 40h1M85 40h2M28 41h1M41 41h1M48 41h1M27 42h1M46 42h2M84 42h1M27 43h1M34 43h1M44 43h2M47 43h1M73 43h1M84 43h1M27 44h1M36 44h2M40 44h4M47 44h1M73 44h1M83 44h1M27 45h1M73 45h3M83 45h1M26 46h1M43 46h1M73 46h1M76 46h7M26 47h1M73 47h1M26 48h1M42 48h1M73 48h1M26 49h1M32 49h1M42 49h1M73 49h1M25 50h1M32 50h1M34 50h1M42 50h1M73 50h1M25 51h1M32 51h1M34 51h1M43 51h1M73 51h1M25 52h1M33 52h1M35 52h1M42 52h2M73 52h1M25 53h1M32 53h2M37 53h1M41 53h1M73 53h1M25 54h1M31 54h1M34 54h1M37 54h1M41 54h1M73 54h1M25 55h1M30 55h1M35 55h2M73 55h1M28 56h2M73 56h1M26 57h2M73 57h1M72 58h1M25 59h1M72 59h1M25 60h1M33 60h1M51 60h1M72 60h1M25 61h1M33 61h1M50 61h1M72 61h1M25 62h1M33 62h1M48 62h2M71 62h1M25 63h1M34 63h1M46 63h5M71 63h1M24 64h1M44 64h7M71 64h1M23 65h1M43 65h1M47 65h1M51 65h3M70 65h1M17 66h1M21 66h2M42 66h1M48 66h1M54 66h3M70 66h1M16 67h1M18 67h4M41 67h1M44 67h1M48 67h1M57 67h2M69 67h1M15 68h3M22 68h3M40 68h1M44 68h1M49 68h1M59 68h3M69 68h1M15 69h1M25 69h8M39 69h2M45 69h1M49 69h1M59 69h1M62 69h2M68 69h1M14 70h1M38 70h1M40 70h1M45 70h1M49 70h1M58 70h1M68 70h1M14 71h1M37 71h1M40 71h2M46 71h1M50 71h1M57 71h1M65 71h3M14 72h1M35 72h2M40 72h2M46 72h1M50 72h1M57 72h8M13 73h1M34 73h1M40 73h1M42 73h1M47 73h1M50 73h1M34 74h1M39 74h1M42 74h1M48 74h1M50 74h1M33 75h1M43 75h1M49 75h2M44 76h1M49 76h1M45 77h1M49 77h1M46 78h1M49 78h1M47 79h1M49 79h1M48 80h2" />
<path stroke="#41444b" d="M41 14h1M50 14h1M40 15h2M48 15h1M39 16h2M46 16h1M38 17h3M44 17h1M37 18h3M42 18h1M36 19h1M39 19h3M39 20h1M22 27h1M22 28h2M22 29h3M65 29h2M22 30h4M62 30h3M66 30h2M85 30h1M23 31h4M31 31h1M58 31h7M66 31h2M83 31h3M20 32h2M24 32h4M58 32h7M66 32h2M82 32h4M20 33h4M26 33h2M59 33h5M65 33h4M80 33h5M21 34h6M60 34h4M65 34h4M78 34h6M21 35h6M61 35h3M65 35h4M75 35h7M23 36h3M27 36h2M62 36h1M64 36h6M74 36h5M22 37h3M26 37h1M62 37h1M64 37h6M74 37h13M22 38h3M54 38h8M63 38h7M74 38h13M44 39h2M55 39h7M63 39h7M74 39h12M56 40h14M75 40h9M33 41h1M44 41h1M57 41h13M75 41h4M43 42h1M58 42h11M59 43h9M22 44h3M59 44h8M22 45h2M45 45h2M50 45h16M35 46h3M46 46h1M51 46h14M44 47h1M52 47h12M34 48h1M43 48h2M53 48h5M59 48h4M33 49h1M43 49h2M54 49h4M59 49h3M33 50h1M55 50h2M58 50h3M20 51h2M33 51h1M55 51h2M58 51h2M20 52h4M34 52h1M46 52h10M57 52h2M20 53h4M47 53h9M57 53h2M20 54h2M48 54h8M57 54h2M49 55h6M56 55h4M66 55h1M50 56h5M56 56h5M66 56h1M51 57h4M56 57h5M65 57h2M51 58h3M55 58h7M65 58h2M52 59h2M55 59h8M64 59h3M52 60h1M54 60h13M52 61h1M54 61h7M62 61h5M50 62h2M53 62h8M62 62h4M51 63h9M61 63h5M54 64h6M61 64h4M57 65h2M60 65h3" />
<path stroke="#2b2c31" d="M49 15h1M47 16h1M45 17h1M40 18h1M43 18h2M37 19h2M42 19h1M35 20h2M38 20h1M40 20h2M34 21h1M38 21h2M38 22h1M35 29h1M65 30h1M65 31h1M68 31h1M34 32h1M65 32h1M68 32h2M24 33h2M33 33h3M64 33h1M69 33h1M85 33h1M20 34h1M33 34h3M64 34h1M69 34h2M84 34h1M32 35h3M64 35h1M69 35h2M82 35h1M22 36h1M32 36h2M63 36h1M70 36h2M73 36h1M79 36h2M21 37h1M31 37h2M63 37h1M70 37h2M73 37h1M31 38h2M62 38h1M70 38h2M73 38h1M22 39h2M30 39h2M62 39h1M70 39h4M30 40h2M33 40h1M44 40h2M70 40h1M72 40h3M84 40h1M30 41h2M43 41h1M73 41h2M79 41h2M29 42h4M71 42h1M73 42h11M29 43h5M70 43h2M74 43h10M29 44h7M44 44h1M71 44h1M74 44h9M29 45h6M41 45h3M71 45h1M76 45h7M28 46h6M41 46h2M44 46h2M72 46h1M28 47h5M34 47h2M45 47h1M72 47h1M28 48h5M58 48h1M72 48h1M28 49h4M58 49h1M72 49h1M27 50h4M43 50h1M57 50h1M71 50h2M27 51h3M57 51h1M71 51h2M27 52h2M56 52h1M70 52h3M27 53h1M36 53h1M42 53h1M56 53h1M70 53h3M32 54h2M35 54h2M56 54h1M59 54h1M69 54h3M31 55h4M55 55h1M69 55h3M30 56h7M55 56h1M67 56h1M70 56h1M28 57h8M55 57h1M67 57h1M70 57h1M26 58h9M54 58h1M67 58h2M26 59h8M54 59h1M67 59h2M26 60h7M53 60h1M67 60h3M71 60h1M26 61h7M53 61h1M61 61h1M67 61h3M71 61h1M26 62h7M52 62h1M61 62h1M66 62h5M26 63h8M60 63h1M66 63h5M25 64h10M60 64h1M65 64h6M24 65h10M59 65h1M63 65h7M24 66h10M60 66h10M26 67h7M62 67h7M64 68h5M60 69h2M65 69h3M59 70h4M66 70h2" />
<path stroke="#f3a54e" d="M48 16h1M46 17h2M45 18h2M43 19h3M37 20h1M42 20h3M35 21h3M40 21h4M49 21h3M35 22h3M39 22h4M46 22h4M36 23h12M36 24h10M37 25h10M37 26h12M37 27h11M37 28h9M37 29h10M37 30h9M35 31h10M36 32h8M37 33h6M37 34h4M38 35h2M38 36h1M38 37h1M38 38h1M38 39h1M34 40h1M38 40h1M40 40h1M42 40h1M36 41h3M38 42h1M38 43h1M68 45h1M67 46h3M66 47h5M66 48h5M67 49h3M68 50h1M45 54h1M38 55h1M44 55h3M38 56h1M43 56h5M38 57h1M42 57h4M41 58h2M35 59h2M34 60h3M34 61h2M34 67h1M34 68h1M45 68h1M34 69h1M46 69h2M33 70h2M46 70h3M33 71h2M39 71h1M47 71h3M33 72h2M39 72h1M47 72h3M33 73h1M39 73h1M48 73h2M33 74h1M49 74h1" />
<path stroke="#864820" d="M49 20h4M46 21h3M34 22h1M43 22h3M35 23h1M48 23h1M35 24h1M46 24h1M36 25h1M47 25h2M36 26h1M36 27h1M36 28h1M46 28h1M36 29h1M47 29h1M34 30h2M34 31h1M35 32h1M45 32h1M36 33h1M46 33h2M36 34h1M43 34h2M37 35h1M45 35h1M37 36h1M47 36h1M37 37h1M37 38h1M37 39h1M36 40h1M35 41h1M36 57h1M35 58h1M34 59h1M34 65h1M34 66h1M44 66h1M33 67h1M33 68h1M33 69h1M32 70h1M32 71h1M38 71h1M32 72h1M38 72h1M32 73h1M38 73h1M32 74h1M38 74h1M32 75h1" />
<path stroke="#191919" d="M34 29h1M33 30h1M33 31h1M33 32h1M32 33h1M32 34h1M31 35h1M35 35h2M31 36h1M34 36h1M46 36h1M30 37h1M33 37h1M46 37h1M30 38h1M33 38h1M47 38h1M29 39h1M32 39h1M47 39h1M29 40h1M32 40h1M47 40h1M29 41h1M32 41h1M47 41h1M28 42h1M33 42h1M69 42h1M28 43h1M35 43h1M69 43h1M28 44h1M38 44h1M69 44h1M28 45h1M38 45h1M40 45h1M70 45h1M27 46h1M38 46h1M40 46h1M70 46h1M27 47h1M36 47h2M41 47h2M71 47h1M27 48h1M35 48h1M71 48h1M27 49h1M34 49h1M70 49h1M26 50h1M31 50h1M70 50h1M26 51h1M30 51h1M67 51h1M69 51h1M26 52h1M29 52h1M36 52h1M44 52h2M67 52h3M24 53h1M26 53h1M28 53h1M43 53h1M46 53h1M66 53h3M22 54h2M26 54h2M42 54h1M47 54h1M66 54h3M20 55h2M41 55h1M48 55h1M67 55h2M72 55h1M18 56h2M40 56h1M49 56h1M68 56h1M72 56h1M16 57h2M39 57h1M68 57h2M71 57h2M15 58h1M25 58h1M38 58h1M50 58h1M69 58h1M71 58h1M14 59h1M22 59h1M37 59h1M69 59h3M13 60h1M21 60h1M37 60h1M70 60h1M12 61h1M21 61h1M36 61h1M70 61h1M12 62h1M20 62h1M36 62h1M12 63h1M20 63h1M36 63h1M11 64h1M19 64h5M35 64h1M11 65h1M18 65h1M35 65h1M11 66h1M20 66h1M23 66h1M35 66h1M11 67h1M22 67h4M35 67h1M59 67h3M11 68h1M25 68h8M35 68h1M62 68h2M11 69h1M35 69h1M64 69h1M11 70h1M35 70h1M63 70h3M12 71h1M35 71h1M58 71h7M12 72h1" />
<path stroke="#c8731e" d="M36 30h1M46 30h2M45 31h2M44 32h1M43 33h3M41 34h2M45 34h3M40 35h1M46 35h1M39 36h1M39 37h1M47 37h2M37 40h1M48 40h1M46 43h1M38 54h1M37 55h1M39 55h1M37 56h1M39 56h1M37 57h1M36 58h2M34 62h2M35 63h1M44 65h3M43 66h1M45 66h3M42 67h2M45 67h3M41 68h3M46 68h3M41 69h4M48 69h1M39 70h1M41 70h4M42 71h4M42 72h4M43 73h4M43 74h5M44 75h5M45 76h4M46 77h3M47 78h2M48 79h1" />
<path stroke="#282c28" d="M30 32h2M57 32h1M58 33h1M59 34h1M28 35h1M60 35h1M29 36h1M61 36h1M27 37h2M53 37h9M26 38h1M53 38h1M54 39h1M55 40h1M71 40h1M46 41h1M56 41h1M70 41h1M45 42h1M57 42h1M23 43h2M42 43h2M58 43h1M68 43h1M72 43h1M25 44h2M39 44h1M49 44h10M67 44h1M72 44h1M24 45h2M39 45h1M49 45h1M66 45h1M22 46h2M39 46h1M50 46h1M66 46h1M21 47h1M40 47h1M51 47h1M65 47h1M41 48h1M52 48h1M65 48h1M53 49h1M66 49h1M21 50h1M41 50h1M54 50h1M66 50h1M22 51h2M31 51h1M36 51h1M39 51h2M45 51h10M24 52h1M30 52h3M37 52h5M29 53h3M38 53h3M59 53h1M28 54h3M39 54h2M60 54h1M24 55h1M26 55h4M40 55h1M61 55h1M65 55h1M23 56h5M61 56h1M65 56h1M21 57h5M62 57h1M64 57h1M19 58h6M62 58h1M64 58h1M17 59h5M23 59h2M63 59h1M15 60h6M22 60h3M14 61h7M22 61h3M13 62h7M21 62h4M13 63h7M21 63h4M12 64h7M51 64h3M12 65h6M19 65h4M54 65h3M12 66h5M18 66h2M57 66h2M12 67h4M17 67h1M12 68h3M12 69h3M12 70h2M13 71h1M13 72h1" />
<path stroke="#3d443c" d="M29 33h1M57 33h1M58 34h1M29 35h1M59 35h1M42 36h4M60 36h1M34 37h2M41 37h2M45 37h1M27 38h2M36 38h1M39 38h2M46 38h1M25 39h1M33 39h1M46 39h1M53 39h1M39 40h1M43 40h1M46 40h1M54 40h1M39 41h1M45 41h1M55 41h1M23 42h2M34 42h1M36 42h2M39 42h2M42 42h1M44 42h1M56 42h1M25 43h2M36 43h2M39 43h3M57 43h1M68 44h1M26 45h1M48 45h1M67 45h1M69 45h1M24 46h1M49 46h1M65 46h1M22 47h1M38 47h2M50 47h1M64 47h1M37 48h3M51 48h1M63 48h1M37 49h2M52 49h1M62 49h1M22 50h1M35 50h6M53 50h1M61 50h1M67 50h1M69 50h1M24 51h1M37 51h2M60 51h1M68 51h1M59 52h1M60 53h1M24 54h1M22 55h2M20 56h3M18 57h3M16 58h3M48 58h2M15 59h2M45 59h6M14 60h1M41 60h10M13 61h1M37 61h13M37 62h11M37 63h9M36 64h8M36 65h7M36 66h6M36 67h5M36 68h4M36 69h3M36 70h2M36 71h1" />
<path stroke="#fdffff" d="M30 33h1M56 33h1M28 34h3M55 34h3M41 35h2M55 35h4M36 36h1M40 36h1M34 38h1M42 38h3M26 39h2M35 39h1M40 39h3M52 39h1M24 40h4M51 40h3M24 41h4M51 41h4M26 42h1M50 42h6M48 46h1M23 47h3M47 47h3M21 48h5M36 48h1M40 48h1M46 48h5M23 49h3M35 49h2M39 49h3M46 49h6M64 49h1M63 50h3M35 51h1M41 51h2M62 51h4M61 52h5M45 53h1M61 53h5M44 54h1M46 54h1M62 54h3M43 55h1M47 55h1M62 55h3M42 56h1M63 56h1M41 57h1M46 57h3M63 57h1M40 58h1M43 58h3M39 59h4" />
<path stroke="#91908e" d="M43 35h2M35 36h1M41 36h1M54 36h6M36 37h1M40 37h1M43 37h2M35 38h1M41 38h1M45 38h1M34 39h1M36 39h1M39 39h1M43 39h1M25 42h1M50 43h7M25 46h1M64 48h1M21 49h2M63 49h1M65 49h1M23 50h2M45 50h8M62 50h1M61 51h1M66 51h1M60 52h1M66 52h1M44 53h1M43 54h1M61 54h1M65 54h1M42 55h1M41 56h1M48 56h1M62 56h1M64 56h1M40 57h1M49 57h1M39 58h1M46 58h2M63 58h1M38 59h1M43 59h2M38 60h3" />
<path stroke="#32b9ab" d="M34 41h1M40 41h1M42 41h1M35 42h1M41 42h1" />
<path stroke="#212226" d="M70 42h1M70 44h1M72 45h1M71 46h1M71 49h1M70 51h1M34 53h2M69 53h1M72 54h1M60 55h1M69 56h1M71 56h1M61 57h1M70 58h1" />
</svg>