<svg xmlns="http://www.w3.org/2000/svg" viewBox="0 -0.5 96 96" shape-rendering="crispEdges">
<metadata>Made with Pixels to Svg https://codepen.io/shshaw/pen/XbxvNj</metadata>
<path stroke="#191919" d="M42 9h1M47 9h1M41 10h1M47 10h1M40 11h1M47 11h1M39 12h1M47 12h1M38 13h1M48 13h1M37 14h1M48 14h1M37 15h1M49 15h1M36 16h1M49 16h1M36 17h1M49 17h1M36 18h1M49 18h1M37 19h1M49 19h1M37 20h1M48 20h1M48 21h1M28 33h28M24 34h4M46 34h3M57 34h3M21 35h3M31 35h7M50 35h1M61 35h4M17 36h3M25 36h4M36 36h1M53 36h5M66 36h4M81 36h2M20 37h2M36 37h1M43 37h1M61 37h4M71 37h3M80 37h1M82 37h1M35 38h1M42 38h1M67 38h3M75 38h2M79 38h1M82 38h1M35 39h1M72 39h2M81 39h1M34 40h1M78 40h1M81 40h1M34 41h1M33 42h1M33 43h1M32 44h1M32 45h1M32 46h1M54 46h3M27 47h1M53 47h1M57 47h2M25 48h2M53 48h1M59 48h1M24 49h1M53 49h1M60 49h1M23 50h1M47 50h2M53 50h1M22 51h1M32 51h1M34 51h2M44 51h3M54 51h1M21 52h1M36 52h2M42 52h2M21 53h1M39 53h1M26 54h1M39 54h1M58 54h1M40 55h1M58 55h1M40 56h1M40 59h1M41 61h1" />
<path stroke="#010101" d="M43 9h1M48 9h1M43 10h1M49 10h1M43 11h1M50 11h1M43 12h1M51 12h1M42 13h1M52 13h1M42 14h1M53 14h1M41 15h1M53 15h1M41 16h1M54 16h1M41 17h1M54 17h1M41 18h1M54 18h1M41 19h1M53 19h1M42 20h1M53 20h1M57 20h1M42 21h1M58 21h1M43 22h1M59 22h1M60 23h1M61 24h1M13 32h1M28 32h28M13 33h1M24 33h4M56 33h4M13 34h1M21 34h3M49 34h1M60 34h5M82 34h1M13 35h1M18 35h3M51 35h1M65 35h5M81 35h2M13 36h4M29 36h7M52 36h1M70 36h4M80 36h1M83 36h1M15 37h1M22 37h7M44 37h1M52 37h9M74 37h3M79 37h1M83 37h1M15 38h7M38 38h1M46 38h1M53 38h1M61 38h6M77 38h2M83 38h1M38 39h1M42 39h1M46 39h1M53 39h1M67 39h5M82 39h1M54 40h1M72 40h6M82 40h1M54 41h1M78 41h4M39 42h1M44 42h1M40 43h4M57 44h1M58 46h1M31 47h1M31 48h1M28 49h1M31 49h1M61 49h1M28 50h1M31 50h1M50 50h1M62 50h1M28 51h1M50 51h1M63 51h1M29 52h1M32 52h1M50 52h1M54 52h1M64 52h1M29 53h1M33 53h1M51 53h1M55 53h1M64 53h1M20 54h1M27 54h2M30 54h1M33 54h1M51 54h1M56 54h1M65 54h1M20 55h1M28 55h1M31 55h1M34 55h1M51 55h2M55 55h1M57 55h1M65 55h1M20 56h1M29 56h1M32 56h4M50 56h1M53 56h2M65 56h1M21 57h1M30 57h1M36 57h1M65 57h1M21 58h1M37 58h2M65 58h1M39 59h1M64 59h1M22 60h1M32 60h1M40 60h1M64 60h1M32 61h1M40 61h1M63 61h1M23 62h1M41 62h1M61 62h2M23 63h1M32 63h1M41 63h1M45 63h1M59 63h2M32 64h1M45 64h1M57 64h2M24 65h1M31 65h1M45 65h1M55 65h2M25 66h1M30 66h1M46 66h1M53 66h2M26 67h4M47 67h1M51 67h2M48 68h3M50 69h1M51 70h1M51 71h1M38 72h1M51 72h1M38 73h1M51 73h1M38 74h1M51 74h1M51 75h1M39 76h1M51 76h1M39 77h1M51 77h1M51 78h1M40 79h1M50 79h1M41 80h8M44 81h1M47 81h1M45 82h1M48 82h1M46 83h3" />
<path stroke="#3d443c" d="M42 10h1M48 10h1M42 11h1M48 11h1M38 17h1M37 18h4M51 18h1M38 19h3M50 19h3M38 20h4M49 20h4M38 21h4M49 21h2M41 22h2M31 25h1M57 25h1M27 26h1M30 26h1M57 26h1M62 26h1M27 27h3M58 27h1M61 27h1M27 28h1M30 28h1M57 28h1M59 28h3M27 29h1M56 29h1M60 29h1M22 30h1M26 30h1M28 30h1M55 30h1M59 30h1M61 30h1M66 30h1M15 31h3M21 31h1M23 31h1M25 31h1M29 31h1M58 31h1M62 31h1M65 31h1M67 31h1M14 32h1M18 32h1M20 32h1M24 32h1M57 32h1M63 32h2M68 32h1M72 32h3M19 33h1M63 33h1M69 33h1M71 33h1M75 33h3M14 34h1M70 34h1M78 34h2M47 35h1M49 35h1M80 35h1M46 36h1M50 36h1M77 36h3M37 37h1M48 37h1M78 37h1M34 43h1M34 44h7M45 44h5M34 45h16M34 46h5M40 46h9M35 47h4M40 47h5M54 47h3M27 48h1M38 48h1M40 48h1M54 48h5M25 49h3M32 49h1M39 49h2M48 49h1M54 49h6M24 50h4M34 50h1M39 50h2M45 50h2M54 50h7M23 51h5M36 51h2M39 51h5M55 51h7M22 52h5M38 52h4M56 52h7M22 53h4M57 53h2M60 53h4M21 54h4M59 54h5M21 55h5M59 55h5M21 56h3M59 56h5M22 57h1M60 57h3M61 58h2M45 69h2M40 70h5M50 70h1M48 71h2M45 72h3M39 73h6M48 74h1M43 75h1M48 75h1M40 76h1M43 76h2M47 76h1M50 76h1M41 77h1M43 77h1M45 77h2M49 77h1M42 78h2M46 78h1" />
<path stroke="#b39e11" d="M41 11h1M49 11h1M41 12h2M48 12h2M38 16h2M37 17h1M39 17h2M51 17h1M53 17h1M50 18h1M52 18h2M39 36h1M40 38h1M41 40h1M26 57h1M57 57h1M24 58h1M27 58h3M55 58h1M58 58h1M26 59h5M47 59h3M56 59h1M58 59h2M23 60h1M25 60h2M30 60h2M46 60h5M56 60h2M59 60h1M25 61h1M31 61h1M46 61h1M51 61h5M57 61h1M60 61h1M24 62h1M53 62h1M58 62h1M60 62h1M25 63h1M31 63h1M56 63h1M58 63h1M25 64h2M30 64h2M44 64h1M54 64h3M26 65h5M42 65h3M46 65h2M51 65h4M27 66h3M42 66h2M47 66h6M48 67h3M47 68h1M47 69h1M39 70h1M45 70h1M50 71h1M48 72h1M45 73h1M46 75h1M49 75h1M42 76h1M45 76h1M49 76h1M47 77h1" />
<path stroke="#ecdf48" d="M40 12h1M50 12h1M39 13h3M49 13h3M38 14h4M49 14h4M38 15h3M50 15h3M37 16h1M40 16h1M50 16h4M50 17h1M52 17h1M28 28h2M58 28h1M28 29h3M57 29h3M29 30h1M56 30h3M55 31h3M56 32h1M39 35h2M40 36h3M40 37h2M41 38h1M41 39h1M26 56h3M24 57h2M58 57h1M23 58h1M26 58h1M48 58h7M56 58h2M59 58h1M23 59h1M25 59h1M50 59h6M57 59h1M60 59h1M51 60h5M58 60h1M60 60h1M24 61h1M56 61h1M58 61h1M54 62h3M24 63h1M52 63h4M52 64h2M25 65h1M26 66h1M44 66h2M42 67h5M41 68h6M40 69h5M48 69h2M46 70h4M39 71h9M39 72h6M49 72h2M46 73h5M39 74h9M49 74h2M40 75h3M44 75h2M47 75h1M50 75h1M41 76h1M46 76h1M48 76h1M40 77h1M42 77h1M44 77h1M48 77h1M50 77h1M41 78h1M44 78h2M47 78h4M41 79h8" />
<path stroke="#16171a" d="M55 20h2M34 21h4M51 21h4M33 22h1M38 22h3M47 22h4M57 22h1M33 23h1M41 23h6M57 23h1M29 24h4M43 24h1M56 24h4M24 25h5M32 25h1M43 25h1M56 25h1M60 25h4M21 26h3M32 26h1M43 26h1M56 26h1M64 26h4M19 27h2M31 27h1M42 27h1M55 27h1M68 27h3M17 28h2M31 28h1M42 28h1M55 28h1M71 28h3M16 29h1M31 29h1M42 29h1M55 29h1M74 29h2M15 30h1M30 30h1M41 30h1M54 30h1M76 30h2M14 31h1M30 31h1M41 31h1M54 31h1M78 31h2M80 32h1M81 33h1M49 37h2M36 38h1M51 38h1M51 39h1M31 42h2M53 42h3M30 43h1M52 43h1M56 43h1M29 44h1M51 44h1M29 45h1M51 45h1M57 45h1M28 46h1M50 46h1M28 47h1M50 47h1M28 48h1M50 48h1M50 49h1M32 53h1M54 53h1M31 54h1M52 54h2" />
<path stroke="#41444b" d="M55 21h2M34 22h4M51 22h6M34 23h7M47 23h10M33 24h1M37 24h6M44 24h8M55 24h1M33 25h4M40 25h3M44 25h4M52 25h4M24 26h3M31 26h1M33 26h7M42 26h1M44 26h1M48 26h8M63 26h1M21 27h4M30 27h1M32 27h10M43 27h12M56 27h2M63 27h5M19 28h4M25 28h2M32 28h10M43 28h12M56 28h1M62 28h1M66 28h5M17 29h2M21 29h6M32 29h1M40 29h2M43 29h2M53 29h2M61 29h5M69 29h5M16 30h1M19 30h3M23 30h3M31 30h10M42 30h12M62 30h4M67 30h9M18 31h3M24 31h1M31 31h10M42 31h12M63 31h2M68 31h3M74 31h4M19 32h1M69 32h3M77 32h3M70 33h1M78 33h3M37 38h1M45 38h1M47 38h1M49 38h2M36 39h1M50 39h1M36 40h1M48 40h1M37 41h1M46 41h1M48 41h1M31 43h2M53 43h3M30 44h2M52 44h5M31 45h1M53 45h3M29 46h2M51 46h2M57 46h1M29 47h2M51 47h2M29 48h2M51 48h2M29 49h2M51 49h2M29 50h2M52 50h1M29 51h2" />
<path stroke="#2b2c31" d="M57 21h1M58 22h1M58 23h2M34 24h3M52 24h3M60 24h1M37 25h3M48 25h4M40 26h2M45 26h3M25 27h2M62 27h1M23 28h2M63 28h3M19 29h2M33 29h7M45 29h8M66 29h3M17 30h2M71 31h3M75 32h2M28 34h10M50 34h7M80 34h2M24 35h7M52 35h9M20 36h5M58 36h8M16 37h4M65 37h6M81 37h1M70 38h5M80 38h2M49 39h1M74 39h7M37 40h1M49 40h1M79 40h2M47 41h1M30 45h1M52 45h1M56 45h1M31 46h1M53 46h1M51 50h1M31 51h1M51 51h3M30 52h2M51 52h3M30 53h2M52 53h2M32 54h1M54 54h2M32 55h2M53 55h2" />
<path stroke="#fdffff" d="M29 25h2M58 25h2M28 26h2M59 26h3M60 27h1M27 31h1M60 31h1M22 32h1M26 32h2M59 32h3M66 32h1M14 33h4M21 33h3M60 33h3M65 33h3M73 33h1M16 34h3M20 34h1M65 34h4M72 34h4M14 35h3M71 35h8M74 36h3M77 37h1M35 41h1M39 41h1M43 41h1M51 41h2M34 42h2M40 42h3M50 42h2M36 43h1M48 43h2M50 44h1M33 45h1M50 45h1M33 46h1M32 47h2M46 47h4M32 48h5M42 48h8M34 49h4M41 49h6M36 50h2M41 50h3" />
<path stroke="#91908e" d="M58 26h1M59 27h1M27 30h1M60 30h1M22 31h1M26 31h1M28 31h1M59 31h1M61 31h1M66 31h1M15 32h3M21 32h1M23 32h1M25 32h1M58 32h1M62 32h1M65 32h1M67 32h1M18 33h1M20 33h1M64 33h1M68 33h1M72 33h1M74 33h1M15 34h1M19 34h1M69 34h1M71 34h1M76 34h2M17 35h1M48 35h1M70 35h1M79 35h1M37 36h1M47 36h3M38 37h1M46 37h2M43 38h2M39 39h1M44 39h1M35 40h1M39 40h1M43 40h2M40 41h1M42 41h1M44 41h1M43 42h1M49 42h1M52 42h1M35 43h1M50 43h1M33 44h1M49 46h1M34 47h1M45 47h1M37 48h1M41 48h1M33 49h1M47 49h1M35 50h1M44 50h1" />
<path stroke="#725d08" d="M38 34h3M38 35h1M41 35h2M38 36h1M43 36h2M39 37h1M42 37h1M45 37h1M39 38h1M40 39h1M43 39h1M40 40h1M42 40h1M41 41h1M26 55h2M24 56h2M57 56h2M23 57h1M27 57h3M48 57h9M59 57h1M22 58h1M25 58h1M30 58h1M47 58h1M60 58h1M22 59h1M24 59h1M31 59h1M46 59h1M61 59h1M24 60h1M27 60h1M45 60h1M61 60h1M23 61h1M26 61h1M30 61h1M45 61h1M47 61h1M50 61h1M59 61h1M61 61h1M45 62h1M57 62h1M59 62h1M26 63h1M30 63h1M51 63h1M57 63h1M24 64h1M27 64h1M41 64h3M46 64h1M51 64h1M41 65h1M50 65h1M41 66h1M41 67h1M40 68h1M39 69h1M38 70h1M38 71h1M39 75h1M40 78h1M49 79h1" />
<path stroke="#282c28" d="M41 34h5M43 35h4M45 36h1M51 36h1M51 37h1M48 38h1M52 38h1M48 39h1M52 39h1M45 40h1M47 40h1M50 40h4M36 41h1M38 41h1M45 41h1M49 41h2M53 41h1M36 42h3M45 42h4M37 43h3M44 43h4M51 43h1M41 44h4M39 46h1M39 47h1M39 48h1M38 49h1M49 49h1M32 50h2M38 50h1M49 50h1M61 50h1M33 51h1M38 51h1M47 51h3M62 51h1M27 52h2M33 52h3M44 52h6M55 52h1M63 52h1M26 53h3M34 53h5M40 53h11M56 53h1M59 53h1M25 54h1M34 54h5M40 54h11M57 54h1M64 54h1M35 55h5M41 55h10M64 55h1M36 56h4M41 56h9M64 56h1M37 57h11M63 57h2M39 58h8M63 58h2M41 59h5M62 59h2M28 60h2M41 60h4M62 60h2M27 61h3M42 61h3M48 61h2M62 61h1M25 62h7M42 62h3M46 62h7M27 63h3M42 63h3M47 63h4M28 64h2M47 64h4M48 65h2M45 81h2M46 82h2" />
<path stroke="#32b9ab" d="M37 39h1M45 39h1M47 39h1M38 40h1M46 40h1" />
</svg>