<svg xmlns="http://www.w3.org/2000/svg" viewBox="0 -0.5 96 96" shape-rendering="crispEdges">
<metadata>Made with Pixels to Svg https://codepen.io/shshaw/pen/XbxvNj</metadata>
<path stroke="#be5409" d="M19 11h2M17 12h2M20 12h1M16 13h1M19 13h1M13 14h1M16 14h3M34 14h1M12 15h2M34 15h2M11 16h1M13 16h1M16 16h2M35 16h2M10 17h1M12 17h1M15 17h1M17 17h1M35 17h1M37 17h1M9 18h1M12 18h1M15 18h2M34 18h1M37 18h1M9 19h1M12 19h1M34 19h1M37 19h1M9 20h1M13 20h1M32 20h2M37 20h1M8 21h1M13 21h1M31 21h1M37 21h1M8 22h1M14 22h1M31 22h1M37 22h1M8 23h1M14 23h1M31 23h1M37 23h1M8 24h1M10 24h1M14 24h1M30 24h1M37 24h1M9 25h2M13 25h1M30 25h1M36 25h1M10 26h1M12 26h2M30 26h2M35 26h1M11 27h1M13 27h1M30 27h1M35 27h1M11 28h1M14 28h1M29 28h1M33 28h2M11 29h1M14 29h1M28 29h1M32 29h1M12 30h1M14 30h1M28 30h1M31 30h1M13 31h1M15 31h2M26 31h2M29 31h2M14 32h1M17 32h1M25 32h1M29 32h1M15 33h3M24 33h1M27 33h2M17 34h2M22 34h5M18 35h4M23 35h1M5 36h1M18 36h1M22 36h1M5 37h1M18 37h1M20 37h1M22 37h1M4 38h2M17 38h1M19 38h1M21 38h1M4 39h1M6 39h1M14 39h3M18 39h1M22 39h1M4 40h1M7 40h1M9 40h5M17 40h1M22 40h1M5 41h1M8 41h1M12 41h1M16 41h1M23 41h1M5 42h1M16 42h1M24 42h1M5 43h1M15 43h1M24 43h1M6 44h1M10 44h2M14 44h1M7 45h3M12 45h2" />
<path stroke="#f89e08" d="M19 12h1M17 13h2M12 16h1M11 17h1M16 17h1M36 17h1M10 18h2M35 18h2M10 19h1M35 19h2M10 20h1M12 20h1M34 20h1M36 20h1M9 21h1M12 21h1M32 21h3M36 21h1M9 22h1M12 22h2M32 22h2M35 22h2M9 23h1M13 23h1M32 23h1M35 23h2M9 24h1M13 24h1M31 24h2M35 24h2M12 25h1M31 25h2M34 25h2M11 26h1M34 26h1M12 27h1M23 27h4M34 27h1M12 28h2M22 28h4M30 28h1M32 28h1M12 29h1M22 29h2M29 29h1M31 29h1M20 30h2M29 30h2M20 31h2M28 31h1M15 32h2M26 32h3M25 33h2M38 33h3M68 34h1M22 35h1M28 35h1M37 35h2M68 35h1M19 36h3M27 36h1M39 36h1M69 36h1M86 36h1M19 37h1M21 37h1M36 37h2M39 37h2M69 37h2M84 37h1M86 37h1M18 38h1M22 38h1M37 38h1M40 38h1M67 38h1M70 38h1M85 38h2M5 39h1M17 39h1M23 39h1M33 39h4M38 39h1M67 39h1M85 39h1M5 40h1M14 40h1M16 40h1M23 40h1M32 40h1M38 40h2M6 41h1M9 41h3M24 41h1M37 41h1M39 41h1M69 41h1M84 41h1M6 42h1M10 42h3M15 42h1M25 42h2M31 42h4M36 42h1M38 42h2M70 42h1M83 42h1M6 43h2M13 43h2M25 43h3M29 43h7M37 43h2M71 43h1M81 43h2M7 44h3M12 44h2M26 44h2M32 44h2M37 44h2M72 44h1M79 44h1M26 45h1M28 45h1M37 45h1M25 46h1M29 46h1M33 46h1M36 46h2M24 47h1M26 47h3M30 47h5M24 48h1M25 49h7M80 51h1M80 52h2M90 52h1M22 53h5M81 53h2M89 53h2M20 54h2M27 54h2M81 54h3M85 54h1M88 54h1M90 54h1M19 55h1M22 55h5M29 55h1M82 55h1M89 55h1M18 56h1M20 56h3M25 56h3M30 56h1M84 56h1M87 56h3M18 57h1M20 57h2M26 57h3M30 57h1M85 57h2M18 58h1M20 58h3M25 58h4M30 58h1M18 59h1M21 59h7M30 59h1M19 60h2M28 60h2M21 61h7M22 65h6M21 66h1M28 66h2M20 67h1M22 67h6M30 67h1M20 68h1M22 68h2M27 68h3M31 68h1M20 69h1M22 69h2M27 69h3M31 69h1M21 70h1M23 70h6M31 70h1M22 71h1M30 71h1M24 72h5M31 76h5M36 77h2" />
<path stroke="#ffd901" d="M11 19h1M11 20h1M35 20h1M10 21h2M35 21h1M10 22h2M34 22h1M10 23h3M33 23h2M11 24h2M33 24h2M11 25h1M33 25h1M32 26h2M31 27h3M31 28h1M13 29h1M30 29h1M13 30h1M14 31h1M14 33h1M15 34h1M27 34h2M15 35h1M17 35h1M25 35h3M23 36h1M25 36h1M36 36h2M68 36h1M68 37h1M85 37h1M35 38h2M68 38h2M84 38h1M69 39h1M83 39h2M6 40h1M15 40h1M33 40h4M69 40h1M83 40h2M7 41h1M13 41h3M38 41h1M70 41h1M83 41h1M7 42h3M13 42h2M37 42h1M82 42h1M8 43h5M36 43h1M28 44h4M34 44h3M29 45h8M30 46h3M34 46h2M25 47h1M25 48h5M22 54h5M86 54h2M89 54h1M20 55h2M27 55h2M83 55h6M19 56h1M23 56h2M28 56h2M85 56h2M19 57h1M22 57h4M29 57h1M19 58h1M23 58h2M29 58h1M19 59h2M28 59h2M21 60h7M22 66h6M21 67h1M28 67h2M21 68h1M24 68h3M30 68h1M21 69h1M24 69h3M30 69h1M22 70h1M29 70h2M23 71h7M33 77h3" />
<path stroke="#102d2f" d="M26 25h4M37 25h3M40 26h2M43 27h1M44 29h2M46 30h2M43 31h1M48 31h1M12 32h1M33 32h3M49 32h1M11 33h1M36 33h1M49 33h1M10 34h1M36 34h1M49 34h1M10 35h1M36 35h1M45 35h2M49 35h1M10 36h1M31 36h1M35 36h1M10 37h1M30 37h1M35 37h1M10 38h1M29 38h1M33 38h2M44 38h2M26 39h1M28 39h1M31 39h2M46 39h1M25 40h1M28 40h3M46 40h1M43 41h1M47 41h1M47 42h1M47 43h1M47 44h1M20 45h4M40 45h1M47 45h1M19 46h1M84 46h3M18 47h1M81 47h3M86 47h1M17 48h1M40 48h1M64 48h2M80 48h1M85 48h1M17 49h1M41 49h1M63 49h1M79 49h1M84 49h1M38 50h1M42 50h1M62 50h1M79 50h5M43 51h1M61 51h1M41 52h1M43 52h1M60 52h1M43 53h1M60 53h1M74 53h2M17 54h1M36 54h1M43 54h1M59 54h1M16 55h1M37 55h1M59 55h1M73 55h1M15 56h1M36 56h2M58 56h1M14 57h1M38 57h1M58 57h1M70 57h1M14 58h1M39 58h1M57 58h1M71 58h1M14 59h1M35 59h1M40 59h1M56 59h1M14 60h1M37 60h1M40 60h1M56 60h1M68 60h1M70 60h2M40 61h1M55 61h1M40 62h1M55 62h1M57 62h2M67 62h1M35 63h2M54 63h1M60 63h1M70 63h1M54 64h1M64 64h2M71 64h1M53 65h1M66 65h1M52 66h1M67 66h1M37 67h2M51 67h1M63 67h1M17 68h1M39 68h2M49 68h2M62 68h1M65 68h1M17 69h1M36 69h1M41 69h1M47 69h2M55 69h1M16 70h1M39 70h1M41 70h1M44 70h3M58 70h1M16 71h1M41 71h3M47 71h1M60 71h1M16 72h1M41 72h1M49 72h1M58 72h1M61 72h1M16 73h1M42 73h1M51 73h1M55 73h1M46 74h4M59 74h1M53 75h1M57 75h1M60 75h1M45 76h1M48 76h1M53 76h1M57 76h1M60 76h1M45 77h1M49 77h1M57 77h1M60 77h1M46 78h1M49 78h1M58 78h1M60 78h1M58 79h1M60 79h1M59 80h2" />
<path stroke="#681607" d="M22 26h4M19 27h3M17 28h2M16 29h1M15 30h1M38 30h1M38 31h1M13 32h1M41 32h1M13 33h1M13 34h1M37 34h3M43 34h1M14 35h1M16 35h1M40 35h5M24 36h1M43 36h1M42 38h1M42 39h1M41 40h1M27 41h1M41 41h1M24 45h1M39 45h1M71 45h10M23 46h1M68 46h3M81 46h2M22 47h1M66 47h2M79 47h2M21 48h1M37 48h1M66 48h3M20 49h1M36 49h1M73 49h4M20 50h1M36 50h1M75 50h1M20 51h3M29 51h2M76 51h1M19 52h2M32 52h1M76 52h1M18 53h1M35 53h1M18 54h1M34 54h1M17 55h1M34 55h1M17 56h1M33 56h1M17 57h1M33 57h1M17 58h1M33 58h1M17 59h1M17 60h1M32 60h1M18 61h1M32 61h1M18 62h1M33 62h1M19 63h3M26 63h4M34 63h1M18 64h1M34 64h1M18 65h1M33 65h1M18 66h1M33 66h1M18 67h1M19 68h1M34 68h1M19 69h1M34 69h1M20 70h1M35 70h1M20 71h1M35 71h2M21 72h2M34 72h1M23 73h11M35 73h1M36 74h1M38 75h1M39 76h2M41 77h2" />
<path stroke="#3e7c80" d="M26 26h4M36 26h4M36 27h2M38 28h3M38 29h5M42 30h1M45 30h1M46 31h2M48 32h1M34 34h1M11 35h1M34 35h1M33 36h1M32 37h1M31 38h1M30 39h1M44 39h2M45 40h1M46 41h1M84 47h2M81 48h4M39 49h1M64 49h1M71 49h2M80 49h4M39 50h2M63 50h8M73 50h1M41 51h1M62 51h11M61 52h11M61 53h10M60 54h1M64 54h7M60 55h1M67 55h3M59 56h5M36 57h1M60 57h9M36 58h2M63 58h6M37 59h2M66 59h2M38 60h1M39 61h1M37 68h1M37 69h2" />
<path stroke="#101010" d="M42 26h1M44 27h1M45 28h1M46 29h1M38 32h3M44 32h2M37 33h1M42 33h1M46 33h1M47 34h1M13 35h1M47 35h2M12 36h1M14 36h1M47 36h1M12 37h1M15 37h2M28 37h2M46 37h1M11 38h1M24 38h4M46 38h1M43 42h2M43 43h1M45 43h1M42 44h1M45 44h1M42 45h1M46 45h1M42 46h1M41 47h1M19 48h2M41 48h1M18 49h1M39 51h2M78 51h2M39 52h1M77 52h1M39 53h1M41 53h1M76 53h1M38 54h1M42 54h1M76 54h1M38 55h1M77 55h1M38 56h1M74 56h1M77 56h1M73 57h1M75 57h1M77 57h1M73 58h1M75 58h1M77 58h1M16 59h1M72 59h1M76 59h2M15 60h1M36 60h1M72 60h1M37 61h2M72 61h1M37 62h1M39 62h1M73 62h1M37 63h1M73 63h1M37 64h1M70 64h1M73 64h1M38 65h1M69 65h1M71 65h1M73 65h1M38 66h1M68 66h1M72 66h2M67 67h1M66 68h1M67 69h1M19 70h1M37 70h2M64 70h1M68 70h1M18 71h1M39 71h1M63 71h1M65 71h1M68 71h1M18 72h1M40 72h1M62 72h1M66 72h1M68 72h1M17 73h1M61 73h1M66 73h1M68 73h1M23 74h1M60 74h1M67 74h2M24 75h2M24 76h1M26 76h3M55 76h2M24 77h1M27 77h1M29 77h4M52 77h3M24 78h1M26 78h1M33 78h13M50 78h2M24 79h1M26 79h1M38 79h1M40 79h1M46 79h1M49 79h1M24 80h2M38 80h2M46 80h1M49 80h1M47 81h1M49 81h1M47 82h1M49 82h1M48 83h2" />
<path stroke="#ff5839" d="M22 27h1M27 27h3M19 28h3M26 28h3M17 29h5M24 29h4M33 29h4M16 30h4M22 30h6M32 30h1M35 30h3M39 30h2M17 31h3M22 31h3M33 31h4M39 31h4M18 32h5M30 32h3M18 33h1M23 33h1M29 33h3M19 34h3M29 34h3M29 35h2M15 36h3M28 36h2M17 37h1M23 37h5M24 46h1M71 46h10M23 47h1M68 47h11M22 48h2M35 48h2M71 48h6M21 49h4M32 49h4M21 50h15M32 51h3M21 52h10M34 52h1M19 53h3M27 53h7M19 54h1M29 54h5M18 55h1M30 55h4M31 56h2M31 57h2M31 58h2M31 59h2M18 60h1M30 60h2M19 61h2M28 61h4M19 62h13M20 64h12M19 65h3M28 65h5M19 66h2M30 66h3M19 67h1M31 67h2M32 68h2M32 69h2M32 70h2M31 71h2" />
<path stroke="#25585b" d="M38 27h5M37 28h1M41 28h4M43 29h1M43 30h2M44 31h2M46 32h2M34 33h2M45 33h1M47 33h2M12 34h1M32 34h1M35 34h1M45 34h2M48 34h1M12 35h1M32 35h1M35 35h1M11 36h1M34 36h1M45 36h2M11 37h1M33 37h2M45 37h1M28 38h1M32 38h1M27 39h1M43 39h1M26 40h2M43 40h2M44 41h2M42 42h1M45 42h2M42 43h1M46 43h1M41 44h1M46 44h1M41 45h1M20 46h3M40 46h2M19 47h3M40 47h1M18 48h1M39 48h1M38 49h1M40 49h1M41 50h1M38 51h1M42 51h1M74 51h2M38 52h1M42 52h1M73 52h2M37 53h2M42 53h1M72 53h2M37 54h1M63 54h1M71 54h5M36 55h1M64 55h3M71 55h2M74 55h3M16 56h1M67 56h1M70 56h3M75 56h2M15 57h2M35 57h1M37 57h1M59 57h1M71 57h1M76 57h1M15 58h2M35 58h1M38 58h1M58 58h5M70 58h1M76 58h1M15 59h1M36 59h1M39 59h1M57 59h9M69 59h2M35 60h1M39 60h1M57 60h11M69 60h1M35 61h2M56 61h11M68 61h4M35 62h2M60 62h7M68 62h5M55 63h4M63 63h3M67 63h2M71 63h2M36 64h1M55 64h8M67 64h2M72 64h1M36 65h2M54 65h11M67 65h1M72 65h1M36 66h2M53 66h11M65 66h2M36 67h1M52 67h11M64 67h2M18 68h1M36 68h1M38 68h1M54 68h8M63 68h2M18 69h1M39 69h2M49 69h5M57 69h4M62 69h5M17 70h2M40 70h1M47 70h10M61 70h2M65 70h3M17 71h1M37 71h1M40 71h1M44 71h2M48 71h11M61 71h1M66 71h2M17 72h1M37 72h3M42 72h6M50 72h7M59 72h2M67 72h1M38 73h4M44 73h6M52 73h2M57 73h3M67 73h1M40 74h4M54 74h5M42 75h11M54 75h1M58 75h2M44 76h1M46 76h2M49 76h2M58 76h2M46 77h3M58 77h2M47 78h2M59 78h1M47 79h2M59 79h1M47 80h2M48 81h1M48 82h1" />
<path stroke="#bf3922" d="M35 28h2M37 29h1M33 30h2M41 30h1M25 31h1M31 31h2M37 31h1M23 32h2M36 32h2M42 32h2M69 32h1M85 32h1M19 33h4M32 33h1M41 33h1M43 33h2M68 33h2M85 33h2M16 34h1M40 34h3M44 34h1M67 34h1M69 34h1M86 34h2M24 35h1M31 35h1M39 35h1M67 35h1M69 35h1M86 35h2M30 36h1M40 36h3M44 36h1M67 36h1M70 36h1M84 36h2M87 36h1M41 37h4M67 37h1M71 37h1M83 37h1M87 37h1M41 38h1M43 38h1M66 38h1M71 38h1M83 38h1M87 38h1M40 39h2M66 39h1M68 39h1M70 39h1M82 39h1M86 39h1M31 40h1M42 40h1M67 40h2M70 40h1M82 40h1M85 40h1M28 41h3M42 41h1M68 41h1M71 41h1M82 41h1M85 41h1M41 42h1M69 42h1M71 42h1M81 42h1M84 42h1M40 43h2M70 43h1M72 43h1M79 43h2M83 43h2M40 44h1M71 44h1M73 44h1M78 44h1M80 44h3M39 46h1M38 47h2M38 48h1M69 48h2M77 48h3M37 49h1M77 49h2M37 50h1M76 50h3M90 50h1M23 51h6M31 51h1M35 51h3M77 51h1M81 51h1M90 51h1M31 52h1M33 52h1M35 52h3M75 52h1M79 52h1M82 52h1M89 52h1M91 52h1M34 53h1M36 53h1M80 53h1M83 53h1M85 53h4M91 53h1M35 54h1M80 54h1M84 54h1M91 54h1M35 55h1M81 55h1M90 55h1M34 56h2M73 56h1M82 56h2M90 56h1M34 57h1M72 57h1M84 57h1M87 57h3M34 58h1M72 58h1M85 58h2M33 59h2M71 59h1M33 60h2M33 61h2M32 62h1M34 62h1M22 63h4M30 63h4M69 63h1M19 64h1M32 64h2M35 64h1M69 64h1M34 65h2M68 65h1M34 66h2M33 67h3M66 67h1M35 68h1M35 69h1M34 70h1M36 70h1M63 70h1M21 71h1M33 71h2M62 71h1M23 72h1M29 72h5M35 72h2M34 73h1M36 73h2M60 73h1M24 74h12M37 74h3M26 75h12M39 75h3M55 75h2M29 76h2M36 76h3M41 76h3M51 76h2M54 76h1M38 77h3M43 77h2M50 77h2" />
<path stroke="#5db9b9" d="M12 33h1M33 33h1M11 34h1M33 34h1M33 35h1M32 36h1M31 37h1M30 38h1M29 39h1M65 49h6M71 50h2M61 55h3M64 56h3" />
<path stroke="#fbfbfb" d="M14 34h1M26 36h1" />
<path stroke="#941528" d="M38 36h1M38 37h1M23 38h1M38 38h2M24 39h1M37 39h1M39 39h1M24 40h1M37 40h1M40 40h1M25 41h2M31 41h6M40 41h1M27 42h4M35 42h1M40 42h1M28 43h1M39 43h1M25 44h1M39 44h1M25 45h1M27 45h1M38 45h1M26 46h3M38 46h1M29 47h1M35 47h3M30 48h5" />
<path stroke="#1c3d42" d="M74 50h1M73 51h1M72 52h1M71 53h1M61 54h2M70 55h1M68 56h2M69 57h1M69 58h1M68 59h1M67 61h1M56 62h1M59 62h1M59 63h1M61 63h2M66 63h1M63 64h1M66 64h1M65 65h1M64 66h1M51 68h3M54 69h1M56 69h1M61 69h1M57 70h1M59 70h2M38 71h1M46 71h1M59 71h1M48 72h1M57 72h1M43 73h1M50 73h1M54 73h1M56 73h1M44 74h2M50 74h4M25 76h1M25 77h2M25 78h1M25 79h1M39 79h1" />
</svg>