<svg xmlns="http://www.w3.org/2000/svg" viewBox="0 -0.5 96 96" shape-rendering="crispEdges">
<metadata>Made with Pixels to Svg https://codepen.io/shshaw/pen/XbxvNj</metadata>
<path stroke="#6b2e67" d="M57 9h1M56 10h1M58 10h1M29 11h1M56 11h1M58 11h1M28 12h1M30 12h1M56 12h1M59 12h1M28 13h1M30 13h1M55 13h1M59 13h1M28 14h1M31 14h1M55 14h1M59 14h1M28 15h1M31 15h1M54 15h1M59 15h1M32 16h1M54 16h1M59 16h1M32 17h1M53 17h1M33 18h1M36 18h2M52 18h1M29 19h1M34 19h1M36 19h1M38 19h1M51 19h1M35 20h1M38 20h1M39 21h1M39 22h1M37 23h1M40 23h1M41 24h1M41 28h1M44 35h1M41 36h1M43 36h1M41 49h1M41 50h1M41 51h1M41 52h1M34 75h1M34 76h1M64 77h1M24 78h5M64 78h1M71 78h1M19 79h5M72 79h3M18 80h1M21 80h1M26 80h1M75 80h1M17 81h1M20 81h1M24 81h1M73 81h1M76 81h1M17 82h1M19 82h1M23 82h1M69 82h1M77 82h1M17 83h1M19 83h1M22 83h1M70 83h1M74 83h1M78 83h1M19 84h1M22 84h1M70 84h1M74 84h1M78 84h1M70 85h1M74 85h1" />
<path stroke="#c734af" d="M57 10h1M57 11h1M29 12h1M57 12h2M29 13h1M56 13h3M29 14h2M56 14h3M29 15h2M55 15h1M57 15h2M29 16h3M55 16h1M57 16h2M29 17h3M54 17h1M57 17h2M29 18h2M32 18h1M53 18h2M57 18h2M30 19h1M32 19h2M37 19h1M52 19h2M57 19h2M30 20h1M33 20h2M37 20h1M51 20h2M56 20h2M30 21h1M34 21h2M37 21h2M56 21h2M31 22h1M37 22h2M55 22h2M31 23h1M38 23h2M54 23h2M32 24h1M39 24h2M53 24h2M33 25h1M40 25h2M47 25h1M41 26h2M46 26h2M37 27h1M42 27h5M43 28h1M46 28h1M45 32h1M45 33h1M41 34h1M44 34h2M41 35h3M42 36h1M42 37h1M71 43h1M77 43h1M70 44h1M77 44h2M78 45h1M24 46h1M24 47h2M50 50h2M72 50h1M22 51h1M42 51h1M49 51h3M73 51h1M21 52h1M42 52h2M49 52h4M74 52h1M20 53h1M42 53h2M50 53h3M74 53h2M19 54h2M41 54h2M50 54h3M75 54h1M18 55h2M41 55h2M49 55h3M19 56h1M42 56h2M50 56h2M42 57h2M50 57h1M43 58h1M49 58h2M44 59h1M49 59h1M44 60h1M49 60h1M29 78h1M66 78h2M24 79h7M65 79h6M20 80h1M23 80h2M27 80h4M63 80h11M18 81h2M21 81h3M26 81h4M63 81h9M74 81h2M18 82h1M20 82h3M24 82h4M64 82h4M70 82h3M75 82h2M18 83h1M20 83h2M23 83h2M66 83h4M71 83h3M75 83h3M20 84h1M23 84h1M68 84h2M72 84h2M77 84h1M69 85h1M73 85h1" />
<path stroke="#433f45" d="M70 12h1M69 13h1M68 14h1M42 15h6M68 15h1M70 15h1M40 16h2M48 16h2M67 16h1M39 17h1M50 17h1M67 17h1M38 18h1M51 18h1M67 18h1M70 18h1M24 19h2M50 19h1M66 19h1M23 20h1M25 20h1M50 20h1M66 20h1M22 21h1M25 21h1M51 21h1M66 21h1M21 22h1M24 22h1M51 22h1M65 22h1M21 23h1M24 23h1M52 23h1M58 23h1M65 23h1M20 24h1M24 24h1M34 24h1M52 24h1M59 24h2M64 24h1M20 25h1M24 25h1M34 25h1M53 25h1M61 25h3M72 25h2M25 26h1M34 26h1M53 26h1M71 26h1M21 27h1M25 27h1M32 27h2M53 27h1M69 27h2M26 28h1M30 28h2M33 28h1M54 28h1M18 29h2M27 29h3M33 29h1M54 29h1M20 30h2M32 30h1M54 30h1M70 30h1M22 31h2M32 31h1M32 32h1M32 33h1M46 33h1M25 34h1M32 34h1M46 34h1M67 34h4M24 35h1M38 35h1M47 35h1M56 35h1M66 35h1M71 35h2M23 36h1M38 36h1M47 36h1M54 36h1M57 36h2M64 36h2M73 36h1M31 37h1M38 37h1M48 37h1M59 37h5M24 38h3M30 38h2M37 38h1M48 38h1M61 38h1M75 38h1M27 39h3M31 39h1M37 39h1M49 39h1M61 39h1M30 40h1M38 40h1M49 40h1M62 40h1M38 41h1M48 41h1M76 41h1M34 42h1M48 42h1M77 42h1M49 43h1M78 43h2M43 44h1M50 44h1M80 44h1M43 45h1M47 45h1M70 45h1M81 45h1M21 46h1M42 46h1M48 46h1M81 46h1M19 47h1M82 47h1M18 48h1M29 48h1M82 48h1M18 49h1M80 49h3M17 50h1M79 50h1M82 50h1M17 51h1M54 51h1M78 51h1M82 51h3M17 52h1M54 52h1M82 52h1M85 52h1M17 53h1M81 53h1M86 53h1M16 54h1M60 54h1M76 54h1M80 54h4M86 54h1M12 55h2M16 55h1M36 55h2M61 55h2M76 55h1M83 55h1M86 55h1M11 56h1M14 56h2M33 56h3M63 56h2M75 56h1M78 56h1M81 56h1M86 56h3M10 57h1M31 57h2M65 57h2M75 57h1M10 58h1M18 58h2M29 58h2M67 58h2M75 58h1M9 59h2M15 59h1M20 59h1M28 59h1M69 59h1M74 59h1M8 60h1M10 60h1M14 60h1M21 60h1M27 60h1M70 60h1M74 60h1M77 60h1M8 61h1M11 61h1M17 61h1M21 61h1M26 61h1M71 61h1M77 61h1M8 62h1M10 62h2M13 62h1M18 62h1M21 62h1M26 62h1M42 62h2M71 62h1M76 62h1M8 63h2M20 63h1M44 63h1M72 63h1M7 64h1M20 64h1M72 64h1M6 65h1M21 65h1M76 65h1M22 66h1M44 66h1M44 67h1M51 67h1M43 68h1M45 68h1M51 68h2M51 69h1M64 72h1M33 73h1M34 74h1M32 75h1M65 75h1M31 76h1M35 76h1M65 76h1M29 77h2M66 77h1M68 78h3" />
<path stroke="#101010" d="M71 12h1M71 13h1M71 14h1M28 16h1M70 16h1M28 17h1M59 17h1M70 17h1M28 18h1M59 18h1M59 19h1M71 19h1M29 20h1M36 20h1M58 20h1M71 20h1M29 21h1M36 21h1M58 21h1M71 21h1M30 22h1M36 22h1M57 22h1M71 22h1M30 23h1M56 23h1M70 23h1M31 24h1M37 24h1M44 24h1M55 24h1M70 24h1M32 25h1M37 25h1M54 25h1M70 25h1M20 26h1M33 26h1M38 26h1M70 26h1M73 26h1M38 27h1M73 27h1M21 28h1M39 28h1M72 28h1M22 29h1M71 29h1M18 30h1M22 30h1M39 30h4M72 30h1M18 31h1M37 31h2M44 31h2M55 31h1M72 31h1M19 32h1M36 32h1M38 32h1M40 32h3M46 32h2M55 32h1M73 32h1M20 33h1M38 33h1M55 33h1M73 33h1M21 34h2M39 34h1M55 34h1M74 34h1M23 35h1M32 35h1M40 35h1M45 35h1M55 35h1M74 35h1M32 36h1M74 36h1M22 37h1M32 37h1M41 37h1M43 37h1M54 37h1M75 37h1M22 38h1M33 38h1M41 38h2M53 38h1M22 39h1M34 39h1M52 39h1M76 39h1M22 40h1M35 40h1M52 40h1M76 40h1M23 41h1M30 41h1M35 41h1M51 41h1M62 41h1M23 42h1M30 42h1M37 42h1M51 42h1M63 42h1M24 43h1M31 43h1M34 43h3M51 43h1M64 43h1M24 44h1M32 44h1M51 44h1M64 44h3M22 45h2M33 45h1M63 45h1M67 45h3M20 46h1M32 46h1M34 46h2M61 46h2M70 46h1M30 47h2M36 47h3M42 47h1M49 47h2M58 47h3M70 47h1M39 48h3M51 48h7M70 48h1M29 49h1M54 49h1M70 49h1M29 50h1M54 50h1M70 50h1M29 51h1M55 51h3M71 51h1M29 52h1M39 52h2M58 52h3M71 52h1M28 53h1M37 53h2M61 53h2M72 53h1M28 54h1M36 54h1M63 54h2M73 54h1M27 55h1M35 55h1M65 55h1M74 55h1M26 56h1M66 56h1M82 56h1M24 57h2M67 57h1M79 57h2M83 57h1M88 57h1M22 58h2M84 58h1M87 58h1M21 59h1M83 59h1M85 59h2M82 60h1M14 61h1M73 61h1M78 61h4M14 62h4M73 62h1M77 62h1M13 63h1M18 63h1M25 63h1M45 63h6M74 63h1M77 63h1M9 64h4M17 64h1M25 64h1M42 64h3M51 64h3M74 64h1M78 64h1M10 65h1M17 65h1M25 65h1M39 65h3M54 65h2M72 65h1M75 65h1M78 65h1M6 66h4M18 66h2M26 66h1M37 66h2M56 66h2M72 66h1M76 66h1M78 66h1M20 67h3M26 67h1M36 67h1M39 67h1M58 67h2M72 67h1M76 67h2M27 68h1M36 68h1M39 68h1M44 68h1M60 68h1M71 68h1M27 69h1M35 69h1M39 69h1M43 69h1M45 69h1M52 69h1M60 69h2M71 69h1M28 70h1M35 70h1M40 70h1M42 70h1M46 70h1M51 70h1M53 70h1M59 70h1M61 70h1M71 70h1M28 71h1M35 71h1M40 71h1M42 71h1M46 71h1M50 71h1M54 71h1M59 71h1M62 71h1M70 71h1M29 72h1M35 72h1M41 72h1M43 72h1M45 72h1M50 72h1M54 72h1M58 72h1M62 72h1M70 72h1M29 73h1M35 73h1M42 73h2M45 73h1M49 73h1M53 73h1M56 73h2M62 73h1M70 73h1M30 74h1M36 74h1M45 74h1M48 74h1M53 74h1M55 74h1M63 74h1M69 74h1M30 75h1M36 75h1M46 75h1M48 75h1M54 75h1M63 75h1M69 75h1M29 76h1M36 76h1M46 76h1M48 76h1M63 76h1M69 76h1M28 77h1M35 77h1M46 77h2M63 77h1M70 77h1M35 78h1M63 78h1M36 79h1M63 79h1M36 80h1M62 80h1M36 81h1M62 81h1M30 82h6M62 82h1M26 83h4M63 83h3M17 84h2M21 84h1M24 84h2M66 84h2M71 84h1M75 84h2M19 85h2M22 85h2M68 85h1M72 85h1M77 85h2M69 86h2M73 86h2" />
<path stroke="#ddd7df" d="M70 13h1M69 14h2M69 15h1M42 16h6M68 16h2M40 17h9M68 17h2M39 18h11M68 18h2M39 19h7M47 19h3M67 19h4M24 20h1M39 20h6M48 20h2M67 20h4M23 21h2M40 21h4M48 21h3M67 21h4M22 22h2M40 22h3M48 22h3M66 22h5M22 23h2M41 23h1M49 23h3M57 23h1M66 23h4M21 24h3M35 24h1M49 24h3M56 24h3M65 24h5M21 25h3M35 25h1M49 25h4M55 25h6M64 25h6M21 26h4M35 26h1M49 26h4M54 26h3M58 26h12M72 26h1M22 27h3M34 27h2M48 27h5M54 27h4M60 27h9M71 27h2M22 28h4M32 28h1M34 28h2M48 28h6M55 28h5M63 28h9M23 29h4M30 29h3M34 29h2M48 29h6M55 29h11M69 29h2M19 30h1M23 30h9M33 30h2M48 30h6M55 30h14M71 30h1M19 31h3M24 31h7M33 31h2M48 31h7M56 31h15M20 32h10M31 32h1M33 32h2M37 32h1M48 32h7M56 32h16M21 33h7M30 33h2M33 33h5M47 33h8M56 33h17M23 34h2M27 34h5M33 34h5M47 34h8M56 34h11M71 34h3M25 35h7M33 35h5M48 35h7M57 35h9M67 35h2M73 35h1M24 36h8M33 36h5M39 36h1M49 36h5M59 36h5M66 36h5M23 37h8M33 37h4M39 37h2M46 37h2M50 37h4M55 37h1M65 37h8M23 38h1M27 38h3M34 38h2M38 38h3M43 38h5M51 38h2M54 38h3M64 38h1M68 38h6M35 39h2M38 39h1M41 39h8M50 39h2M54 39h5M63 39h1M65 39h3M69 39h5M31 40h4M36 40h2M39 40h1M41 40h3M45 40h4M50 40h2M53 40h1M55 40h7M63 40h1M65 40h4M70 40h5M24 41h1M26 41h2M31 41h4M36 41h2M40 41h4M45 41h3M49 41h2M53 41h1M55 41h7M63 41h2M66 41h3M70 41h5M24 42h1M26 42h2M29 42h1M31 42h3M35 42h1M38 42h1M40 42h3M46 42h2M49 42h2M53 42h2M56 42h6M64 42h2M69 42h2M72 42h4M26 43h2M29 43h2M32 43h2M37 43h1M39 43h4M47 43h2M50 43h1M53 43h2M56 43h4M65 43h5M72 43h5M26 44h2M29 44h2M36 44h2M39 44h2M49 44h1M52 44h1M54 44h2M67 44h2M72 44h5M25 45h1M28 45h3M72 45h5M22 46h2M26 46h4M71 46h7M20 47h4M27 47h3M71 47h9M19 48h10M44 48h3M71 48h9M19 49h10M43 49h6M71 49h9M18 50h4M23 50h6M44 50h5M71 50h1M73 50h6M80 50h2M18 51h3M23 51h6M44 51h4M74 51h4M79 51h3M18 52h2M23 52h6M45 52h3M53 52h1M72 52h1M76 52h1M78 52h3M83 52h2M18 53h1M22 53h6M45 53h4M53 53h2M77 53h4M82 53h3M17 54h1M22 54h5M40 54h1M44 54h5M53 54h5M74 54h1M77 54h3M84 54h2M21 55h4M38 55h3M44 55h4M53 55h8M75 55h1M77 55h4M84 55h2M12 56h2M16 56h2M21 56h1M36 56h5M45 56h4M53 56h10M76 56h2M83 56h3M11 57h4M17 57h4M33 57h8M45 57h4M52 57h13M76 57h2M84 57h1M11 58h7M31 58h11M45 58h3M52 58h15M76 58h2M11 59h4M16 59h4M29 59h14M46 59h2M51 59h16M68 59h1M75 59h2M12 60h2M17 60h4M28 60h7M37 60h6M46 60h2M51 60h17M69 60h1M75 60h2M12 61h2M19 61h2M27 61h6M35 61h9M46 61h2M50 61h18M69 61h2M74 61h3M12 62h1M19 62h2M27 62h5M33 62h9M44 62h17M64 62h5M70 62h1M74 62h2M10 63h1M19 63h1M26 63h5M32 63h6M51 63h13M66 63h3M70 63h2M75 63h2M18 64h2M26 64h4M31 64h5M54 64h2M57 64h9M67 64h2M70 64h2M75 64h3M19 65h2M27 65h8M56 65h1M59 65h8M68 65h1M70 65h2M77 65h1M21 66h1M28 66h6M58 66h1M60 66h11M77 66h1M30 67h4M62 67h7M63 68h3" />
<path stroke="#983585" d="M56 15h1M55 17h1M31 18h1M56 19h1M32 20h1M31 21h1M55 21h1M54 22h1M32 23h1M53 23h1M33 24h1M47 24h1M36 25h1M39 25h1M42 25h1M46 25h1M36 26h1M40 26h1M43 26h3M41 27h1M37 28h2M42 28h1M44 28h2M38 29h1M40 29h1M43 29h1M46 29h1M44 32h1M39 33h1M41 33h1M44 33h1M40 34h1M42 34h2M50 48h1M50 49h2M42 50h1M52 51h1M73 52h1M21 53h1M41 53h1M20 55h1M52 55h1M41 56h1M51 57h1M43 59h1M50 59h1M45 61h1M48 61h1M33 74h1M33 75h1M32 76h2M31 77h4M65 77h1M30 78h5M65 78h1M31 79h5M64 79h1M71 79h1M19 80h1M22 80h1M25 80h1M31 80h5M74 80h1M25 81h1M30 81h6M72 81h1M28 82h2M63 82h1M68 82h1M73 82h2M25 83h1" />
<path stroke="#fd0a41" d="M56 16h1M56 17h1M55 18h2M31 19h1M54 19h2M31 20h1M53 20h3M32 21h2M52 21h3M32 22h3M52 22h2M33 23h2M38 24h1M38 25h1M44 25h1M39 26h1M39 27h2M40 28h1M39 31h2" />
<path stroke="#a39da5" d="M49 17h1M50 18h1M46 19h1M45 20h1M47 20h1M44 21h1M47 21h1M35 22h1M43 22h1M46 22h2M35 23h1M42 23h1M44 23h2M47 23h2M36 24h1M42 24h2M48 26h1M57 26h1M58 27h2M60 28h3M36 29h1M47 29h1M66 29h3M35 30h1M47 30h1M69 30h1M31 31h1M35 31h1M41 31h3M47 31h1M71 31h1M30 32h1M35 32h1M72 32h1M28 33h2M26 34h1M38 34h1M39 35h1M46 35h1M69 35h2M40 36h1M44 36h3M48 36h1M55 36h2M71 36h2M37 37h1M44 37h2M49 37h1M56 37h3M64 37h1M73 37h2M32 38h1M36 38h1M49 38h2M57 38h4M62 38h2M65 38h3M74 38h1M24 39h3M30 39h1M32 39h2M39 39h2M53 39h1M59 39h2M62 39h1M64 39h1M68 39h1M74 39h2M24 40h2M28 40h2M40 40h1M44 40h1M54 40h1M64 40h1M69 40h1M75 40h1M29 41h1M39 41h1M52 41h1M54 41h1M65 41h1M69 41h1M75 41h1M25 42h1M28 42h1M36 42h1M39 42h1M43 42h1M52 42h1M55 42h1M62 42h1M66 42h3M71 42h1M76 42h1M25 43h1M28 43h1M38 43h1M46 43h1M52 43h1M55 43h1M60 43h4M70 43h1M25 44h1M28 44h1M31 44h1M33 44h2M38 44h1M41 44h2M47 44h2M53 44h1M57 44h7M69 44h1M79 44h1M24 45h1M26 45h2M31 45h2M34 45h1M36 45h2M39 45h3M48 45h5M54 45h3M58 45h5M77 45h1M79 45h2M25 46h1M30 46h2M36 46h2M39 46h3M43 46h1M47 46h1M50 46h4M55 46h3M59 46h2M78 46h3M26 47h1M39 47h2M43 47h2M46 47h3M52 47h3M56 47h2M80 47h2M43 48h1M47 48h2M80 48h2M52 49h2M22 50h1M43 50h1M49 50h1M52 50h2M21 51h1M43 51h1M48 51h1M53 51h1M72 51h1M20 52h1M22 52h1M44 52h1M48 52h1M55 52h3M75 52h1M77 52h1M81 52h1M19 53h1M39 53h2M44 53h1M49 53h1M55 53h6M73 53h1M76 53h1M85 53h1M18 54h1M21 54h1M27 54h1M37 54h3M43 54h1M49 54h1M58 54h2M61 54h2M17 55h1M25 55h2M43 55h1M48 55h1M63 55h2M81 55h2M18 56h1M20 56h1M22 56h4M44 56h1M49 56h1M52 56h1M65 56h1M79 56h2M15 57h2M21 57h3M41 57h1M44 57h1M49 57h1M78 57h1M81 57h2M85 57h3M20 58h2M42 58h1M44 58h1M48 58h1M51 58h1M78 58h6M85 58h2M45 59h1M48 59h1M67 59h1M77 59h6M9 60h1M11 60h1M15 60h2M35 60h2M43 60h1M45 60h1M48 60h1M50 60h1M68 60h1M78 60h4M9 61h2M15 61h2M18 61h1M33 61h2M44 61h1M49 61h1M68 61h1M9 62h1M32 62h1M61 62h3M69 62h1M11 63h2M31 63h1M39 63h5M64 63h2M69 63h1M8 64h1M30 64h1M38 64h4M56 64h1M66 64h1M69 64h1M7 65h3M18 65h1M26 65h1M36 65h3M57 65h2M67 65h1M69 65h1M20 66h1M27 66h1M35 66h2M71 66h1M27 67h3M34 67h2M69 67h3M28 68h8M61 68h1M66 68h5M28 69h7M62 69h9M29 70h6M62 70h1M64 70h7M29 71h4M34 71h1M63 71h1M65 71h5M30 72h3M34 72h1M63 72h1M65 72h5M30 73h3M34 73h1M63 73h2M66 73h4M31 74h1M35 74h1M64 74h1M66 74h3M31 75h1M35 75h1M64 75h1M66 75h3M30 76h1M64 76h1M67 76h2M68 77h2" />
<path stroke="#c8c8c8" d="M46 20h1M45 21h2M44 22h2M36 23h1M43 23h1M36 30h1M38 30h1M44 30h1M46 30h1M43 33h1" />
<path stroke="#fcfcfc" d="M46 23h1M45 24h2M43 25h1M45 25h1M37 26h1M37 29h1M39 29h1M41 29h2M44 29h2M37 30h1M45 30h1M36 31h1M46 31h1M40 33h1M42 33h1" />
<path stroke="#736e75" d="M48 24h1M48 25h1M36 27h1M47 27h1M36 28h1M47 28h1M23 39h1M23 40h1M26 40h2M25 41h1M28 41h1M44 41h1M45 42h1M43 43h1M45 43h1M35 44h1M46 44h1M56 44h1M71 44h1M35 45h1M38 45h1M42 45h1M53 45h1M57 45h1M71 45h1M38 46h1M49 46h1M54 46h1M58 46h1M41 47h1M51 47h1M55 47h1M42 48h1M49 48h1M42 49h1M49 49h1M38 63h1M36 64h2M45 64h6M35 65h1M42 65h12M34 66h1M39 66h5M45 66h11M59 66h1M40 67h4M45 67h6M52 67h6M60 67h2M40 68h3M46 68h5M53 68h7M62 68h1M40 69h3M46 69h5M53 69h7M41 70h1M47 70h4M54 70h5M63 70h1M33 71h1M41 71h1M47 71h3M55 71h4M64 71h1M33 72h1M42 72h1M46 72h4M55 72h3M46 73h3M54 73h2M65 73h1M32 74h1M46 74h2M54 74h1M65 74h1M47 75h1M47 76h1M66 76h1M67 77h1" />
<path stroke="#7b7e88" d="M43 30h1M39 32h1M43 32h1" />
<path stroke="#4256ac" d="M44 42h1M46 45h1M44 46h1M46 46h1M45 47h1" />
<path stroke="#5586c9" d="M44 43h1M44 44h2M44 45h2M45 46h1" />
</svg>