<svg xmlns="http://www.w3.org/2000/svg" viewBox="0 -0.5 96 96" shape-rendering="crispEdges">
<metadata>Made with Pixels to Svg https://codepen.io/shshaw/pen/XbxvNj</metadata>
<path stroke="#535353" d="M31 15h6M28 16h3M37 16h3M26 17h2M40 17h2M23 18h3M42 18h2M21 19h2M28 19h3M44 19h1M19 20h2M24 20h1M45 20h1M17 21h2M24 21h2M46 21h1M16 22h1M23 22h1M47 22h1M15 23h1M29 23h1M47 23h1M14 24h1M37 24h1M48 24h1M13 25h1M38 25h1M48 25h1M13 26h1M39 26h1M48 26h1M11 27h2M40 27h1M10 28h1M37 28h1M41 28h1M9 29h1M40 29h6M9 30h1M38 30h2M46 30h2M9 31h1M11 31h1M38 31h1M48 31h1M10 32h1M28 32h4M37 32h1M49 32h1M27 33h1M32 33h1M37 33h1M50 33h1M26 34h1M33 34h1M50 34h1M26 35h1M28 35h1M26 36h1M31 36h1M27 37h1M28 38h4M55 41h1M56 42h1M57 43h1M58 44h1M59 45h1M60 46h2M60 47h1M62 47h2M61 48h1M64 48h2M62 49h1M66 49h3M55 50h1M63 50h1M56 52h1M56 53h1M55 54h1M57 54h1M55 55h1M55 56h1M58 56h1M55 57h1M59 57h1M55 58h1M55 59h1M42 60h3M56 60h1M45 61h3M56 61h1M48 62h2M56 62h1M50 63h2M35 68h1M24 69h1M36 69h1M25 70h1M37 70h1M26 71h1M38 71h1M27 72h1M39 72h2M28 73h1M41 73h2M29 74h1M43 74h2M30 75h1M45 75h2M31 76h1" />
<path stroke="#d6d6d6" d="M31 16h6M29 17h11M29 18h2M35 18h7M23 19h1M35 19h9M21 20h3M34 20h11M19 21h4M26 21h3M35 21h11M17 22h6M24 22h5M36 22h11M16 23h1M18 23h11M38 23h9M15 24h1M17 24h11M29 24h4M39 24h8M14 25h1M17 25h18M40 25h7M14 26h1M16 26h20M40 26h6M13 27h23M42 27h2M14 28h23M14 29h23M14 30h24M40 30h6M14 31h24M39 31h1M42 31h6M15 32h11M32 32h5M38 32h1M40 32h8M17 33h7M33 33h4M38 33h11M34 34h3M38 34h11M34 35h3M38 35h11M34 36h15M33 37h16M33 38h16M34 39h15M34 40h15M34 41h14M34 42h14M55 42h1M12 43h1M32 43h1M35 43h13M54 43h3M13 44h1M19 44h1M35 44h13M54 44h4M21 45h1M30 45h1M35 45h13M54 45h5M23 46h1M28 46h1M35 46h13M54 46h5M35 47h12M54 47h6M61 47h1M35 48h12M55 48h6M62 48h2M35 49h12M55 49h7M63 49h2M35 50h12M56 50h7M35 51h11M57 51h7M35 52h11M57 52h1M59 52h5M35 53h11M57 53h1M59 53h6M34 54h11M56 54h1M58 54h1M60 54h6M34 55h11M56 55h1M59 55h7M67 55h1M34 56h11M59 56h7M68 56h2M34 57h10M60 57h6M70 57h2M33 58h11M62 58h3M72 58h2M33 59h7M42 59h1M61 59h1M66 59h1M74 59h1M32 60h10M61 60h1M67 60h1M32 61h10M61 61h1M67 61h1M31 62h10M61 62h1M68 62h1M29 63h11M62 63h1M69 63h1M20 64h2M26 64h13M62 64h1M69 64h1M21 65h17M62 65h1M70 65h1M22 66h14M63 66h1M71 66h1M23 67h11M63 67h1M71 67h1M25 68h6M63 68h1M72 68h1M78 68h1M64 69h1M73 69h1M64 70h1M73 70h1M77 70h1M74 71h1M79 71h1M78 73h1M79 74h1M75 75h1M79 75h1M76 76h1M79 76h1M75 77h1" />
<path stroke="#9a9a9a" d="M28 17h1M28 18h1M31 18h4M24 19h1M23 21h1M34 21h1M37 23h1M28 24h1M38 24h1M47 24h1M39 25h1M47 25h1M46 26h2M36 27h1M41 27h1M44 27h5M13 28h1M42 28h7M13 29h1M37 29h1M46 29h4M13 30h1M48 30h3M13 31h1M49 31h2M12 32h1M14 32h1M26 32h2M48 32h1M50 32h2M11 33h1M16 33h1M24 33h1M49 33h1M51 33h1M11 34h1M18 34h5M37 34h1M49 34h1M51 34h2M11 35h1M37 35h1M49 35h2M52 35h1M11 36h1M49 36h2M52 36h2M11 37h1M49 37h2M52 37h2M11 38h1M32 38h1M49 38h3M53 38h2M11 39h1M33 39h1M49 39h3M53 39h2M11 40h1M49 40h3M53 40h2M11 41h1M48 41h4M53 41h2M11 42h1M48 42h5M54 42h1M11 43h1M34 43h1M48 43h5M12 44h1M48 44h5M48 45h5M48 46h5M59 46h1M47 47h6M47 48h7M47 49h7M47 50h7M46 51h8M55 51h2M64 51h1M46 52h8M64 52h1M34 53h1M46 53h8M65 53h1M45 54h9M66 54h1M45 55h9M57 55h2M66 55h1M45 56h8M66 56h1M33 57h1M44 57h9M66 57h1M44 58h9M60 58h2M65 58h1M32 59h1M40 59h2M43 59h10M62 59h3M45 60h7M31 61h1M42 61h3M48 61h4M30 62h1M41 62h7M50 62h2M19 63h2M28 63h1M40 63h10M22 64h4M39 64h12M20 65h1M38 65h13M21 66h1M36 66h15M22 67h1M34 67h16M22 68h3M31 68h4M36 68h14M23 69h1M25 69h11M37 69h13M24 70h1M26 70h11M38 70h11M25 71h1M27 71h11M39 71h10M26 72h1M28 72h11M41 72h8M27 73h1M29 73h12M43 73h5M28 74h1M30 74h13M45 74h3M29 75h1M31 75h14M32 76h14M33 77h12M36 78h7" />
<path stroke="#3e2a56" d="M26 18h2M25 19h3M31 19h3M25 20h1M29 20h4M30 21h3M30 22h4M33 23h3M35 24h2M36 25h2M37 26h2M38 27h2M38 28h3M38 29h2M12 45h1M12 46h1M12 47h1M12 48h1M12 49h1M13 50h1M13 51h1M13 52h1M13 53h1M14 54h1M14 55h1M14 56h1M15 57h1M15 58h1M16 59h1M16 60h1M17 61h1M18 62h1" />
<path stroke="#101010" d="M34 19h1M26 20h3M33 20h1M29 21h1M33 21h1M29 22h1M34 22h2M30 23h3M36 23h1M33 24h2M35 25h1M36 26h1M37 27h1M49 27h1M49 28h1M50 29h1M84 29h1M10 30h2M51 30h1M84 30h1M10 31h1M51 31h1M84 31h1M52 32h1M52 33h1M62 33h1M83 33h1M53 34h1M63 34h1M83 34h1M29 35h3M33 35h1M51 35h1M53 35h1M64 35h1M83 35h1M28 36h3M33 36h1M51 36h1M54 36h1M65 36h1M32 37h1M51 37h1M54 37h1M66 37h1M82 37h1M52 38h1M55 38h1M66 38h1M82 38h1M52 39h1M55 39h1M66 39h1M82 39h1M52 40h1M55 40h1M65 40h1M70 40h1M82 40h1M52 41h1M65 41h1M70 41h1M53 42h1M64 42h1M71 42h1M53 43h1M71 43h1M53 44h1M63 44h1M71 44h1M85 44h1M53 45h1M64 45h1M70 45h1M84 45h1M53 46h1M64 46h1M69 46h1M83 46h1M53 47h1M64 47h1M69 47h1M82 47h1M54 48h1M70 48h1M80 48h1M54 49h1M70 49h1M78 49h1M54 50h1M69 50h2M77 50h1M54 51h1M71 51h1M54 52h1M72 52h1M54 53h1M73 53h1M54 54h1M73 54h1M54 55h1M74 55h1M53 56h1M74 56h1M53 57h1M75 57h1M53 58h1M75 58h1M53 59h1M75 59h1M52 60h1M75 60h1M52 61h1M76 61h1M52 62h1M76 62h1M18 63h1M52 63h1M57 63h1M76 63h1M19 64h1M51 64h1M57 64h1M76 64h1M19 65h1M51 65h1M58 65h1M76 65h1M20 66h1M51 66h1M58 66h1M76 66h1M21 67h1M50 67h1M57 67h1M59 67h1M76 67h1M21 68h1M50 68h1M60 68h1M76 68h1M22 69h1M50 69h1M54 69h1M61 69h1M76 69h1M23 70h1M49 70h1M52 70h1M62 70h1M76 70h1M24 71h1M49 71h3M63 71h2M75 71h1M25 72h1M49 72h1M65 72h2M75 72h1M26 73h1M48 73h1M67 73h3M74 73h1M27 74h1M48 74h1M70 74h4M28 75h1M47 75h1M29 76h2M46 76h1M31 77h2M45 77h1M33 78h3M43 78h2M75 78h2M36 79h7M77 79h4" />
<path stroke="#edf3f2" d="M17 23h1M16 24h1M15 25h2M15 26h1M11 28h2M10 29h3M12 30h1M12 31h1M40 31h2M53 31h3M11 32h1M13 32h1M39 32h1M53 32h6M12 33h3M26 33h1M28 33h4M54 33h7M12 34h5M24 34h2M27 34h6M54 34h8M12 35h14M27 35h1M32 35h1M54 35h9M12 36h14M27 36h1M32 36h1M55 36h8M12 37h15M28 37h4M55 37h8M12 38h16M56 38h6M12 39h21M56 39h5M12 40h21M56 40h3M12 41h21M56 41h4M12 42h21M57 42h3M13 43h19M58 43h1M20 44h12M22 45h8M24 46h4M65 49h1M64 50h5M65 51h6M58 52h1M65 52h7M58 53h1M66 53h7M59 54h1M67 54h6M68 55h6M56 56h2M67 56h1M70 56h4M56 57h3M67 57h3M72 57h3M56 58h4M66 58h6M74 58h1M56 59h5M65 59h1M67 59h7M57 60h4M62 60h5M68 60h7M57 61h4M62 61h5M68 61h8M57 62h4M62 62h6M69 62h7M58 63h4M63 63h6M70 63h6M58 64h4M63 64h6M70 64h6M59 65h3M63 65h7M71 65h5M59 66h4M64 66h7M72 66h4M60 67h3M64 67h7M72 67h4M61 68h2M64 68h8M73 68h3M62 69h2M65 69h8M74 69h2M77 69h1M63 70h1M65 70h8M74 70h2M79 70h1M65 71h9M76 71h1M67 72h8M77 72h2M70 73h4M77 73h1M74 74h2M80 74h1M74 75h1M80 75h1M77 76h2M80 76h1M76 77h5M77 78h4" />
<path stroke="#3d4a53" d="M83 28h2M81 29h2M80 30h1M79 31h1M78 32h1M83 32h1M77 33h1M77 34h1M76 35h1M76 36h1M82 36h1M67 37h1M75 37h1M68 38h1M75 38h1M69 39h1M74 39h1M74 40h1M74 41h1M83 41h1M72 42h2M83 42h4M63 43h1M73 43h1M80 43h3M86 43h1M75 44h4M81 47h1M79 48h1M76 50h1M74 51h2M73 52h1M55 63h1M53 64h2M52 65h1M77 66h1M56 67h1M78 67h1M55 68h1M79 68h1M53 69h1M79 69h1M80 70h1M80 71h1M80 72h1M80 73h1M81 74h1M72 75h1M81 75h1M73 76h1M81 76h1M74 77h1M81 77h1M81 78h1" />
<path stroke="#686e6e" d="M83 29h1M81 30h3M80 31h4M79 32h4M78 33h5M78 34h5M77 35h6M77 36h5M76 37h6M76 38h6M75 39h7M75 40h7M75 41h8M74 42h9M74 43h6M77 67h1M77 68h1M78 69h1M78 70h1M77 71h2M76 72h1M79 72h1M75 73h2M79 73h1M76 74h3M73 75h1M76 75h3M74 76h2" />
<path stroke="#68798a" d="M52 30h4M56 31h3M59 32h2M61 33h1M67 38h1M67 39h2M66 40h4M66 41h4M65 42h6M64 43h7M64 44h7M65 45h5M65 46h4M65 47h4M66 48h4M69 49h1M56 63h1M55 64h2M53 65h5M52 66h6M51 67h5M51 68h4M51 69h2M50 70h2" />
<path stroke="#acb7b9" d="M52 31h1M15 33h1M25 33h1M53 33h1M17 34h1M23 34h1M62 34h1M63 35h1M63 36h2M63 37h3M62 38h4M61 39h5M59 40h6M60 41h5M60 42h4M59 43h4M59 44h4M60 45h4M62 46h2M55 52h1M55 53h1M54 56h1M54 57h1M54 58h1M54 59h1M53 60h3M53 61h3M53 62h3M53 63h2M52 64h1" />
<path stroke="#c8abe5" d="M33 40h1M33 41h1M33 42h1M33 43h1M14 44h5M32 44h3M13 45h8M31 45h4M13 46h10M29 46h6M13 47h22M13 48h22M13 49h22M14 50h21M14 51h21M14 52h21M14 53h20M15 54h19M15 55h19M15 56h19M16 57h17M16 58h17M17 59h15M17 60h15M18 61h13M19 62h11M21 63h7" />
<path stroke="#678c96" d="M72 43h1M83 43h2M72 44h2M80 44h5M72 45h12M72 46h10M73 47h8M73 48h6M74 49h3" />
<path stroke="#456672" d="M85 43h1M74 44h1M79 44h1M71 45h1M70 46h2M82 46h1M70 47h3M71 48h2M71 49h3M77 49h1M71 50h5M72 51h2" />
</svg>