<svg xmlns="http://www.w3.org/2000/svg" viewBox="0 -0.5 96 96" shape-rendering="crispEdges">
<metadata>Made with Pixels to Svg https://codepen.io/shshaw/pen/XbxvNj</metadata>
<path stroke="#4f1046" d="M31 5h3M29 6h2M21 7h3M42 7h1M19 8h2M22 8h1M27 8h1M41 8h1M18 9h1M21 9h1M26 9h1M41 9h1M20 10h1M26 10h1M28 10h1M40 10h1M17 11h1M19 11h1M25 11h1M28 11h1M40 11h1M16 12h1M19 12h1M25 12h1M12 13h2M16 13h1M18 13h1M24 13h1M39 13h1M10 14h2M15 14h1M18 14h1M24 14h1M38 14h1M40 14h1M9 15h1M15 15h1M23 15h1M38 15h1M40 15h1M8 16h1M15 16h1M23 16h1M37 16h1M39 16h1M8 17h1M14 17h1M19 17h2M22 17h1M39 17h1M52 17h1M7 18h1M14 18h1M19 18h1M22 18h1M38 18h1M51 18h1M7 19h1M13 19h1M19 19h1M37 19h1M51 19h1M7 20h1M10 20h1M13 20h1M19 20h1M36 20h1M50 20h1M6 21h1M10 21h1M19 21h1M35 21h1M6 22h1M10 22h1M14 22h1M18 22h1M23 22h1M30 22h2M34 22h1M49 22h1M3 23h1M6 23h1M10 23h1M18 23h1M29 23h1M34 23h1M48 23h1M3 24h1M10 24h1M18 24h1M29 24h1M34 24h1M3 25h1M10 25h1M18 25h1M28 25h1M34 25h1M3 26h1M11 26h1M16 26h1M18 26h1M28 26h1M84 26h3M4 27h1M11 27h1M16 27h1M27 27h1M82 27h2M4 28h1M9 28h1M11 28h1M16 28h1M25 28h1M27 28h1M80 28h2M88 28h2M5 29h1M9 29h1M13 29h1M16 29h1M25 29h1M41 29h1M79 29h3M5 30h1M9 30h1M16 30h1M24 30h1M77 30h2M6 31h1M9 31h1M16 31h1M24 31h1M77 31h1M4 32h1M9 32h1M16 32h1M23 32h1M45 32h1M76 32h1M86 32h1M4 33h1M10 33h1M15 33h1M23 33h1M46 33h1M51 33h1M76 33h1M87 33h1M5 34h1M10 34h1M15 34h1M22 34h1M46 34h2M50 34h1M75 34h3M5 35h1M10 35h1M15 35h1M22 35h1M34 35h2M47 35h2M51 35h1M74 35h2M6 36h1M10 36h1M15 36h1M21 36h1M50 36h1M72 36h2M39 37h1M49 37h2M71 37h1M87 37h1M37 38h1M50 38h1M53 38h1M71 38h1M89 38h1M38 39h1M50 39h2M54 39h1M70 39h1M41 40h1M70 40h1M32 41h1M40 41h1M42 41h1M52 41h2M69 41h1M71 41h2M12 42h1M31 42h1M39 42h1M53 42h2M69 42h2M87 42h1M12 43h1M16 43h1M28 43h3M32 43h1M38 43h1M54 43h1M68 43h2M89 43h1M12 44h1M24 44h2M28 44h1M30 44h1M35 44h1M42 44h1M67 44h1M12 45h1M23 45h1M25 45h3M40 45h1M67 45h1M12 46h1M21 46h1M23 46h1M25 46h1M67 46h1M86 46h1M21 47h1M34 47h1M36 47h1M66 47h1M88 47h1M33 48h1M44 48h1M66 48h1M20 49h1M24 49h2M36 49h1M41 49h2M45 49h1M66 49h1M19 50h1M21 50h1M26 50h3M36 50h1M38 50h1M66 50h1M18 51h1M21 51h3M29 51h3M35 51h1M65 51h3M21 52h1M24 52h1M32 52h3M43 52h4M63 52h2M20 53h1M23 53h1M35 53h1M37 53h1M39 53h2M49 53h4M61 53h2M67 53h3M31 54h2M36 54h1M47 54h2M53 54h3M59 54h2M64 54h3M70 54h2M30 55h1M36 55h1M39 55h2M46 55h1M56 55h3M64 55h1M67 55h2M72 55h1M30 56h1M37 56h1M39 56h1M42 56h1M45 56h1M49 56h2M62 56h1M69 56h1M29 57h1M37 57h1M44 57h1M48 57h1M63 57h1M70 57h1M73 57h1M29 58h1M43 58h1M48 58h1M52 58h3M64 58h1M72 58h1M28 59h1M42 59h1M58 59h1M65 59h8M76 59h1M28 60h1M56 60h2M61 60h1M72 60h2M75 60h1M27 61h1M50 61h1M59 61h1M75 61h1M79 61h1M21 62h1M27 62h1M61 62h2M78 62h1M20 63h1M26 63h1M66 63h1M78 63h1M20 64h1M26 64h1M65 64h1M68 64h1M79 64h1M19 65h1M24 65h2M61 65h1M64 65h1M67 65h1M71 65h1M17 66h3M22 66h2M26 66h1M60 66h2M66 66h1M70 66h1M74 66h1M15 67h2M19 67h1M26 67h1M58 67h1M60 67h3M73 67h1M13 68h2M18 68h1M34 68h1M53 68h1M57 68h1M60 68h2M76 68h1M11 69h2M18 69h1M35 69h1M52 69h2M56 69h1M61 69h1M10 70h1M18 70h1M36 70h2M51 70h1M56 70h1M61 70h1M10 71h1M17 71h1M49 71h2M55 71h1M78 71h2M81 71h2M9 72h1M17 72h1M47 72h2M51 72h4M62 72h1M76 72h2M79 72h2M86 72h1M9 73h1M17 73h1M46 73h1M50 73h1M62 73h1M75 73h1M78 73h1M85 73h1M8 74h1M16 74h1M45 74h1M48 74h1M53 74h1M57 74h1M61 74h1M67 74h1M69 74h1M74 74h1M77 74h1M84 74h1M8 75h1M16 75h1M44 75h1M53 75h1M58 75h1M61 75h1M69 75h1M73 75h1M76 75h1M83 75h1M7 76h1M16 76h1M43 76h1M52 76h1M59 76h1M61 76h1M79 76h2M82 76h1M7 77h1M15 77h1M42 77h1M52 77h1M60 77h1M81 77h1M6 78h1M15 78h1M41 78h1M51 78h1M60 78h1M69 78h2M80 78h1M6 79h1M15 79h1M40 79h1M50 79h1M60 79h1M68 79h1M73 79h1M79 79h1M6 80h1M14 80h1M39 80h1M50 80h1M59 80h1M67 80h1M72 80h1M78 80h1M14 81h1M38 81h1M49 81h1M59 81h1M66 81h1M71 81h1M77 81h1M14 82h1M49 82h1M58 82h1M70 82h1M76 82h1M13 83h1M48 83h1M58 83h1M69 83h1M75 83h1M13 84h1M48 84h1M57 84h1M47 85h1M57 85h1M46 86h1M57 86h1M46 87h1M56 87h1M45 88h1M56 88h1M55 89h1M55 90h1" />
<path stroke="#a91cad" d="M31 6h1M30 7h1M21 8h1M28 8h2M19 9h2M27 9h2M19 10h1M27 10h1M41 10h1M18 11h1M41 11h1M17 12h2M26 12h1M17 13h1M25 13h2M40 13h1M12 14h1M25 14h1M39 14h1M11 15h1M16 15h1M24 15h2M39 15h1M9 16h2M16 16h1M24 16h1M15 17h1M23 17h2M37 17h1M8 18h2M15 18h1M20 18h1M23 18h1M36 18h2M8 19h1M14 19h2M21 19h1M23 19h1M35 19h2M14 20h1M21 20h1M34 20h2M51 20h1M7 21h1M14 21h1M21 21h2M7 22h1M12 22h2M20 22h3M33 22h1M50 22h1M7 23h1M12 23h3M20 23h4M31 23h3M49 23h2M12 24h3M20 24h4M30 24h4M49 24h1M5 25h2M12 25h3M19 25h4M30 25h4M47 25h2M5 26h2M12 26h3M20 26h3M29 26h5M46 26h2M6 27h1M13 27h1M17 27h1M21 27h1M29 27h4M45 27h2M84 27h3M6 28h1M17 28h3M28 28h4M44 28h2M82 28h3M6 29h1M18 29h3M29 29h2M11 30h2M18 30h3M26 30h1M29 30h1M40 30h2M79 30h2M11 31h2M18 31h2M26 31h2M39 31h2M78 31h2M11 32h2M17 32h2M25 32h3M37 32h3M77 32h2M6 33h1M11 33h1M17 33h2M24 33h3M36 33h2M77 33h1M6 34h1M11 34h1M17 34h1M23 34h3M36 34h1M16 35h1M23 35h1M76 35h1M22 36h1M34 36h2M74 36h2M33 37h2M72 37h3M32 38h1M72 38h2M31 39h1M71 39h3M13 40h1M71 40h2M14 41h1M70 41h1M14 42h2M71 42h1M13 43h3M31 43h1M70 43h2M13 44h2M29 44h1M31 44h1M39 44h1M68 44h3M13 45h1M24 45h1M29 45h1M31 45h1M36 45h3M42 45h1M68 45h2M24 46h1M26 46h2M29 46h1M35 46h2M40 46h3M68 46h2M18 47h1M23 47h1M25 47h1M35 47h1M39 47h1M41 47h1M67 47h2M18 48h1M23 48h1M34 48h2M37 48h4M67 48h2M37 49h2M44 49h1M67 49h1M37 50h1M42 50h3M36 51h2M39 51h3M38 52h2M38 53h1M45 53h2M33 54h3M37 54h2M40 54h4M45 54h1M49 54h4M34 55h2M41 55h2M47 55h9M59 55h3M65 55h1M35 56h2M40 56h2M46 56h3M53 56h8M65 56h2M33 57h2M36 57h1M45 57h2M49 57h2M57 57h3M61 57h2M67 57h1M32 58h1M41 58h1M44 58h2M49 58h2M60 58h4M31 59h1M40 59h1M43 59h1M46 59h2M50 59h2M62 59h3M30 60h1M45 60h1M47 60h2M50 60h3M29 61h2M44 61h2M48 61h2M51 61h2M66 61h1M29 62h1M43 62h1M45 62h1M48 62h2M52 62h2M65 62h1M21 63h1M30 63h1M47 63h1M49 63h2M52 63h3M64 63h2M21 64h1M31 64h1M46 64h1M49 64h3M53 64h2M63 64h2M20 65h2M32 65h1M50 65h2M54 65h2M63 65h1M20 66h1M33 66h1M50 66h2M54 66h2M64 66h1M20 67h1M34 67h1M49 67h2M55 67h2M64 67h1M19 68h2M35 68h1M48 68h2M56 68h1M58 68h1M64 68h2M19 69h1M36 69h1M47 69h2M58 69h1M65 69h1M11 70h3M19 70h1M46 70h2M52 70h1M57 70h1M65 70h1M11 71h2M18 71h2M51 71h1M56 71h2M66 71h1M10 72h2M18 72h1M49 72h1M56 72h1M66 72h1M10 73h2M18 73h1M47 73h2M52 73h2M55 73h2M76 73h1M79 73h1M9 74h2M17 74h1M46 74h1M54 74h2M62 74h1M75 74h1M78 74h1M85 74h1M9 75h1M17 75h1M45 75h1M54 75h2M62 75h1M74 75h1M77 75h1M84 75h1M8 76h2M17 76h1M44 76h1M53 76h2M58 76h1M62 76h1M76 76h1M83 76h1M8 77h1M16 77h1M43 77h1M53 77h1M59 77h1M61 77h2M82 77h1M7 78h1M16 78h1M42 78h1M52 78h2M61 78h1M81 78h1M7 79h1M16 79h1M41 79h1M51 79h2M61 79h1M80 79h1M15 80h1M40 80h1M51 80h2M60 80h2M79 80h1M15 81h1M39 81h1M50 81h2M60 81h1M50 82h1M59 82h2M14 83h1M49 83h2M59 83h1M49 84h1M59 84h1M48 85h1M58 85h1M47 86h2M58 86h1M47 87h1M57 87h1M46 88h1M57 88h1M56 89h1" />
<path stroke="#010101" d="M32 6h1M31 7h1M30 8h1M42 8h1M29 9h1M42 9h1M42 10h1M42 11h1M41 12h1M41 13h1M13 14h1M12 15h1M11 16h1M10 17h1M10 18h1M21 18h1M52 18h1M22 19h1M52 19h1M11 20h1M22 20h1M52 20h1M12 21h2M23 21h1M32 21h3M52 21h1M51 22h1M4 23h1M51 23h1M5 24h2M50 24h1M17 26h1M48 26h1M87 26h1M18 27h2M47 27h1M87 27h1M10 28h1M20 28h2M26 28h1M46 28h1M87 28h1M90 28h1M11 29h2M27 29h1M42 29h5M82 29h1M87 29h1M90 29h1M27 30h1M46 30h4M82 30h1M86 30h1M90 30h1M28 31h1M45 31h1M50 31h3M82 31h1M86 31h1M90 31h2M5 32h2M28 32h1M43 32h2M53 32h1M82 32h4M90 32h2M41 33h2M45 33h1M52 33h1M82 33h1M85 33h2M90 33h2M39 34h2M45 34h1M51 34h2M78 34h1M82 34h1M87 34h4M92 34h1M36 35h4M46 35h1M49 35h1M52 35h2M78 35h1M80 35h2M87 35h1M92 35h1M39 36h1M46 36h3M54 36h2M78 36h2M86 36h1M92 36h1M37 37h2M40 37h1M48 37h1M56 37h1M78 37h1M86 37h1M92 37h1M35 38h2M40 38h2M49 38h1M54 38h2M77 38h1M87 38h2M92 38h1M33 39h3M39 39h1M49 39h1M52 39h1M55 39h1M77 39h1M87 39h1M90 39h3M30 40h3M34 40h1M39 40h1M42 40h1M49 40h3M56 40h1M77 40h1M86 40h1M91 40h1M34 41h1M39 41h1M43 41h1M51 41h1M57 41h1M73 41h1M76 41h1M86 41h1M91 41h1M33 42h1M41 42h1M52 42h1M55 42h2M73 42h1M76 42h1M86 42h1M91 42h1M33 43h1M40 43h1M52 43h2M56 43h1M73 43h3M87 43h2M91 43h1M15 44h1M32 44h2M40 44h1M54 44h1M56 44h1M73 44h1M86 44h1M90 44h2M14 45h1M28 45h1M30 45h1M32 45h1M35 45h1M43 45h1M54 45h1M56 45h1M73 45h1M85 45h1M90 45h1M13 46h1M18 46h1M28 46h1M30 46h2M33 46h2M44 46h1M55 46h1M72 46h1M85 46h1M90 46h1M17 47h1M19 47h1M22 47h1M24 47h1M26 47h4M42 47h1M72 47h1M86 47h2M90 47h1M17 48h1M19 48h1M22 48h1M24 48h2M36 48h1M42 48h1M72 48h1M86 48h1M89 48h2M18 49h2M22 49h2M34 49h2M70 49h2M86 49h1M88 49h1M46 50h1M68 50h2M86 50h1M88 50h1M38 51h1M44 51h1M68 51h1M86 51h2M18 52h3M36 52h2M68 52h1M24 53h4M47 53h2M20 54h3M28 54h3M39 54h1M46 54h1M67 54h1M33 55h1M37 55h2M45 55h1M89 55h2M33 56h2M43 56h2M64 56h1M70 56h3M88 56h1M90 56h1M32 57h1M35 57h1M39 57h3M51 57h5M64 57h3M74 57h1M87 57h1M89 57h1M31 58h1M36 58h2M46 58h2M51 58h1M56 58h4M67 58h4M73 58h1M87 58h1M89 58h1M30 59h1M44 59h2M48 59h1M52 59h1M60 59h2M73 59h1M77 59h1M86 59h1M89 59h1M29 60h1M42 60h2M46 60h1M49 60h1M53 60h1M62 60h6M74 60h1M76 60h1M86 60h1M88 60h1M28 61h1M47 61h1M53 61h1M65 61h1M67 61h1M76 61h1M80 61h1M85 61h1M88 61h1M22 62h1M28 62h1M47 62h1M50 62h1M54 62h1M64 62h1M67 62h1M76 62h1M79 62h1M85 62h1M88 62h1M22 63h1M29 63h1M48 63h1M51 63h1M55 63h1M62 63h2M77 63h1M79 63h1M84 63h1M88 63h1M22 64h1M29 64h2M48 64h1M52 64h1M55 64h1M62 64h1M66 64h1M69 64h2M80 64h1M83 64h1M87 64h1M22 65h1M28 65h1M31 65h1M52 65h1M56 65h1M62 65h1M66 65h1M68 65h1M72 65h2M81 65h2M87 65h1M21 66h1M28 66h1M32 66h1M53 66h1M56 66h1M62 66h2M67 66h1M71 66h1M75 66h1M86 66h1M21 67h1M27 67h1M33 67h1M54 67h1M57 67h1M59 67h1M63 67h1M67 67h1M69 67h2M74 67h1M85 67h1M21 68h6M50 68h1M54 68h1M59 68h1M62 68h2M67 68h1M72 68h2M77 68h2M83 68h2M16 69h2M20 69h1M49 69h1M55 69h1M59 69h2M62 69h1M64 69h1M67 69h1M75 69h2M79 69h4M15 70h1M20 70h1M48 70h1M53 70h1M58 70h2M62 70h1M64 70h1M68 70h1M14 71h1M20 71h1M45 71h2M52 71h1M58 71h1M61 71h1M65 71h1M68 71h1M13 72h2M19 72h1M57 72h1M63 72h1M65 72h1M68 72h1M82 72h1M12 73h1M14 73h1M19 73h1M57 73h1M63 73h1M66 73h1M69 73h1M81 73h1M86 73h1M11 74h1M14 74h1M19 74h1M49 74h4M63 74h1M66 74h1M70 74h1M80 74h1M86 74h1M11 75h1M13 75h1M18 75h1M46 75h2M56 75h1M63 75h1M67 75h1M71 75h2M79 75h1M85 75h1M10 76h1M13 76h1M18 76h1M45 76h1M55 76h1M57 76h1M63 76h1M68 76h2M73 76h3M78 76h1M84 76h1M9 77h2M12 77h1M18 77h1M44 77h1M55 77h1M58 77h1M63 77h1M70 77h2M75 77h1M77 77h2M84 77h1M8 78h1M10 78h1M12 78h1M17 78h1M43 78h1M54 78h1M59 78h1M62 78h1M72 78h3M76 78h1M79 78h1M83 78h1M8 79h1M10 79h1M12 79h1M17 79h1M42 79h1M53 79h1M62 79h1M71 79h1M75 79h1M82 79h1M7 80h1M9 80h1M11 80h1M17 80h1M41 80h1M53 80h1M62 80h1M69 80h2M74 80h1M81 80h1M9 81h1M11 81h1M16 81h1M40 81h1M52 81h1M61 81h1M67 81h2M73 81h1M80 81h1M9 82h1M11 82h1M16 82h1M38 82h2M52 82h1M61 82h1M72 82h1M78 82h2M8 83h1M10 83h1M15 83h1M51 83h1M60 83h1M70 83h2M76 83h2M8 84h1M10 84h1M14 84h1M50 84h1M60 84h1M8 85h1M10 85h1M50 85h1M59 85h1M8 86h2M49 86h1M59 86h1M48 87h1M58 87h1M47 88h1M58 88h1M45 89h2M57 89h1M56 90h1" />
<path stroke="#b21833" d="M28 7h1M17 10h1M27 11h1M39 12h1M17 14h1M38 17h1M50 21h1M15 23h1M24 23h1M15 24h1M24 24h1M15 25h1M23 25h1M49 25h1M34 26h1M14 27h1M22 27h1M33 27h1M14 28h1M32 28h1M21 29h1M31 29h1M40 29h1M13 30h1M30 30h1M38 30h1M13 31h1M20 31h1M29 31h1M37 31h1M19 32h1M36 32h1M12 33h1M27 33h2M35 33h1M18 34h1M26 34h1M11 35h1M17 35h1M24 35h1M33 35h1M50 35h1M16 36h1M23 36h1M33 36h1M49 36h1M15 37h1M21 37h1M32 37h1M31 38h1M13 39h1M30 39h1M37 39h1M53 39h1M89 39h1M12 40h1M14 40h1M36 40h1M52 40h1M12 41h1M15 41h1M37 41h1M16 42h1M38 44h1M89 44h1M88 48h1M54 59h2M58 60h1M60 60h1M60 61h1M58 63h1M74 63h1M58 64h1M76 64h1M77 65h1M57 66h1M79 66h1" />
<path stroke="#eb1533" d="M29 7h1M18 10h1M26 11h1M40 12h1M16 14h1M10 15h1M38 16h1M9 17h1M8 20h1M8 21h1M51 21h1M8 22h1M15 22h1M24 22h1M8 23h1M7 24h1M48 24h1M7 25h1M7 26h1M35 26h1M7 27h1M23 27h1M34 27h1M7 28h1M22 28h3M33 28h1M7 29h1M15 29h1M22 29h3M32 29h2M7 30h1M14 30h2M21 30h3M31 30h2M7 31h1M14 31h2M21 31h2M30 31h2M35 31h1M7 32h1M14 32h2M20 32h2M29 32h3M34 32h1M7 33h1M14 33h1M19 33h3M29 33h3M33 33h2M7 34h1M12 34h3M19 34h3M29 34h3M33 34h2M7 35h1M13 35h2M18 35h2M28 35h4M7 36h1M11 36h1M13 36h2M17 36h2M27 36h5M11 37h1M13 37h2M16 37h3M23 37h8M11 38h6M19 38h1M22 38h8M12 39h1M14 39h3M19 39h9M15 40h8M16 41h4M38 42h1M17 43h1M36 43h2M17 44h1M39 45h1M37 46h2M40 47h1M41 48h1M39 49h2M42 51h1M40 52h3M44 54h1M43 55h2M38 56h1M38 57h1M38 58h1M55 58h1M36 59h2M56 59h2M59 59h1M35 60h3M39 60h3M54 60h1M59 60h1M71 60h1M34 61h3M39 61h2M54 61h1M58 61h1M61 61h3M68 61h4M74 61h1M86 61h1M34 62h3M39 62h2M55 62h1M58 62h1M63 62h1M71 62h2M74 62h1M87 62h1M35 63h2M40 63h1M59 63h1M70 63h1M73 63h1M76 63h1M35 64h2M59 64h1M73 64h1M75 64h1M36 65h2M39 65h1M58 65h1M75 65h1M79 65h1M83 65h1M37 66h1M40 66h1M78 66h1M84 66h1M38 67h1M41 67h2M78 67h1M84 67h1M39 68h1M42 68h1M43 69h1" />
<path stroke="#6f206c" d="M27 12h1M27 13h1M26 14h1M17 15h1M26 15h1M17 16h1M25 16h1M16 17h1M25 17h1M36 17h1M16 18h1M24 18h1M35 18h1M9 19h1M16 19h1M24 19h1M34 19h1M9 20h1M15 20h1M23 20h1M33 20h1M15 21h1M47 24h1M46 25h1M19 26h1M45 26h1M20 27h1M44 27h1M12 28h2M43 28h1M85 28h2M28 29h1M83 29h4M88 29h2M6 30h1M28 30h1M39 30h1M43 30h3M81 30h1M83 30h3M87 30h3M38 31h1M42 31h3M46 31h4M80 31h2M83 31h3M87 31h3M41 32h2M46 32h7M79 32h3M87 32h3M39 33h2M47 33h4M78 33h4M88 33h2M35 34h1M38 34h1M48 34h2M79 34h3M91 34h1M77 35h1M79 35h1M88 35h4M37 36h2M51 36h3M76 36h2M87 36h5M35 37h2M51 37h5M75 37h3M88 37h4M34 38h1M38 38h2M51 38h2M74 38h3M90 38h2M36 39h1M74 39h3M88 39h1M33 40h1M35 40h1M37 40h2M53 40h3M73 40h4M87 40h4M33 41h1M35 41h2M38 41h1M41 41h1M54 41h3M74 41h2M87 41h4M32 42h1M34 42h4M40 42h1M72 42h1M74 42h2M88 42h3M34 43h2M39 43h1M55 43h1M72 43h1M90 43h1M34 44h1M36 44h2M55 44h1M71 44h2M87 44h2M33 45h2M41 45h1M55 45h1M70 45h3M86 45h4M19 46h2M39 46h1M43 46h1M70 46h2M87 46h3M20 47h1M37 47h2M69 47h3M89 47h1M20 48h2M69 48h3M87 48h1M21 49h1M43 49h1M68 49h2M87 49h1M20 50h1M22 50h4M39 50h3M45 50h1M67 50h1M87 50h1M19 51h2M24 51h5M43 51h1M22 52h2M25 52h7M65 52h3M21 53h2M28 53h7M41 53h4M63 53h4M61 54h3M68 54h2M31 55h2M62 55h2M66 55h1M69 55h3M31 56h2M51 56h2M61 56h1M63 56h1M67 56h2M89 56h1M30 57h2M47 57h1M56 57h1M60 57h1M68 57h2M88 57h1M30 58h1M88 58h1M29 59h1M49 59h1M53 59h1M87 59h2M55 60h1M68 60h3M87 60h1M55 61h3M64 61h1M72 61h2M87 61h1M51 62h1M56 62h2M59 62h2M66 62h1M68 62h3M73 62h1M75 62h1M86 62h1M27 63h2M56 63h2M60 63h2M67 63h3M71 63h2M75 63h1M85 63h3M27 64h2M56 64h2M60 64h2M67 64h1M71 64h2M74 64h1M77 64h2M84 64h3M26 65h2M49 65h1M53 65h1M57 65h1M59 65h2M65 65h1M70 65h1M74 65h1M76 65h1M78 65h1M80 65h1M84 65h3M24 66h2M27 66h1M49 66h1M52 66h1M58 66h2M65 66h1M73 66h1M76 66h2M80 66h4M85 66h1M17 67h2M22 67h4M48 67h1M51 67h1M65 67h2M76 67h2M79 67h5M15 68h3M47 68h1M55 68h1M66 68h1M79 68h4M13 69h3M37 69h1M46 69h1M57 69h1M66 69h1M14 70h1M45 70h1M66 70h2M13 71h1M67 71h1M12 72h1M50 72h1M55 72h1M67 72h1M78 72h1M81 72h1M13 73h1M49 73h1M51 73h1M54 73h1M67 73h2M77 73h1M80 73h1M12 74h2M18 74h1M47 74h1M56 74h1M68 74h1M76 74h1M79 74h1M10 75h1M12 75h1M57 75h1M68 75h1M70 75h1M75 75h1M78 75h1M11 76h2M70 76h3M77 76h1M11 77h1M17 77h1M54 77h1M72 77h3M76 77h1M79 77h2M83 77h1M11 78h1M71 78h1M75 78h1M82 78h1M11 79h1M69 79h2M74 79h1M81 79h1M10 80h1M16 80h1M68 80h1M73 80h1M80 80h1M10 81h1M72 81h1M78 81h2M10 82h1M15 82h1M51 82h1M71 82h1M77 82h1M9 83h1M9 84h1M58 84h1M9 85h1M49 85h1" />
<path stroke="#9a2433" d="M28 12h1M28 13h1M23 14h1M28 14h1M18 15h1M22 15h1M28 15h1M37 15h1M18 16h1M21 16h1M28 16h1M35 16h2M40 16h1M18 17h1M28 17h1M33 17h2M40 17h1M13 18h1M18 18h1M28 18h1M31 18h2M40 18h1M12 19h1M18 19h1M28 19h3M40 19h1M40 20h1M40 21h1M40 22h1M40 23h1M45 23h3M40 24h5M7 37h1M7 38h1M8 39h1M8 40h1M29 40h1M8 41h1M27 41h2M8 42h1M25 42h2M9 43h1M23 43h2M9 44h1M16 44h1M21 44h2M9 45h1M11 45h1M16 45h1M18 45h3M10 46h1M16 46h2M38 69h3M41 70h4M49 70h2M53 71h2" />
<path stroke="#f46d70" d="M27 14h1M27 15h1M22 16h1M26 16h2M17 17h1M21 17h1M26 17h2M35 17h1M17 18h1M25 18h3M33 18h2M39 18h1M17 19h1M25 19h3M31 19h3M38 19h2M12 20h1M16 20h3M24 20h9M37 20h3M9 21h1M16 21h3M24 21h8M36 21h4M9 22h1M16 22h2M25 22h5M35 22h5M9 23h1M16 23h2M25 23h4M35 23h5M8 24h2M16 24h2M25 24h4M35 24h5M45 24h2M8 25h2M16 25h2M24 25h4M36 25h10M8 26h3M15 26h1M23 26h5M36 26h9M8 27h3M15 27h1M25 27h2M36 27h8M8 28h1M35 28h8M8 29h1M34 29h6M8 30h1M34 30h4M8 31h1M33 31h1M36 31h1M8 32h1M35 32h1M8 33h2M8 34h2M8 35h2M8 36h2M8 37h3M8 38h3M9 39h2M9 40h3M24 40h3M9 41h3M21 41h6M9 42h3M19 42h6M10 43h2M18 43h5M10 44h2M18 44h3M10 45h1M17 45h1M35 58h1M39 58h2M34 59h2M38 59h2M33 60h2M38 60h1M32 61h2M37 61h2M32 62h2M37 62h1M41 62h2M33 63h2M37 63h1M41 63h3M34 64h1M37 64h2M42 64h1M34 65h2M38 65h1M35 66h2M38 66h2M36 67h2M39 67h2M43 67h1M47 67h1M52 67h2M37 68h2M40 68h2M43 68h4M51 68h2M41 69h2M44 69h2M50 69h2M54 69h1M54 70h2" />
<path stroke="#d137eb" d="M20 19h1M20 20h1M11 21h1M20 21h1M11 22h1M19 22h1M32 22h1M11 23h1M19 23h1M30 23h1M4 24h1M11 24h1M19 24h1M4 25h1M11 25h1M29 25h1M4 26h1M5 27h1M12 27h1M28 27h1M5 28h1M10 29h1M17 29h1M26 29h1M10 30h1M17 30h1M25 30h1M42 30h1M10 31h1M17 31h1M25 31h1M41 31h1M10 32h1M24 32h1M40 32h1M5 33h1M16 33h1M38 33h1M16 34h1M37 34h1M6 35h1M36 36h1M33 38h1M32 39h1M13 41h1M13 42h1M42 57h2M33 58h2M42 58h1M32 59h2M41 59h1M31 60h2M44 60h1M31 61h1M43 61h1M46 61h1M30 62h2M46 62h1M31 63h2M46 63h1M32 64h2M33 65h1M34 66h1M35 67h1M36 68h1" />
<path stroke="#fb2553" d="M35 25h1M24 27h1M35 27h1M15 28h1M34 28h1M14 29h1M33 30h1M32 31h1M34 31h1M32 32h2M32 33h1M32 34h1M32 35h1M32 36h1M31 37h1M30 38h1M11 39h1M28 39h2M23 40h1M27 40h2M20 41h1M17 42h2" />
<path stroke="#ffbcbc" d="M23 31h1M13 32h1M22 32h1M13 33h1M22 33h1M27 34h2M12 35h1M20 35h2M25 35h3M12 36h1M19 36h2M24 36h3M12 37h1M19 37h2M22 37h1M17 38h2M20 38h2M17 39h2" />
<path stroke="#e22dbc" d="M41 61h2M38 62h1M38 63h1M39 64h1M47 64h1M40 65h1M48 65h1M41 66h2M48 66h1" />
<path stroke="#f18cd5" d="M44 62h1M39 63h1M45 63h1M40 64h2M41 65h2M47 65h1" />
<path stroke="#fefefe" d="M44 63h1M43 64h3M43 65h4M43 66h5M44 67h3" />
<path stroke="#33002c" d="M72 69h1M70 70h2M63 71h2M69 71h2M74 71h1M69 72h1M74 72h1M58 73h1M60 73h2M64 73h2M73 73h1M58 74h3M64 74h2M72 74h2M59 75h2M64 75h3M60 76h1M64 76h4M57 77h1M64 77h1M67 77h3M56 78h3M63 78h1M68 78h1M55 79h3M67 79h1M54 80h2M66 80h1M58 81h1M64 81h2M57 82h1M63 82h2" />
</svg>