<svg xmlns="http://www.w3.org/2000/svg" viewBox="0 -0.5 96 96" shape-rendering="crispEdges">
<metadata>Made with Pixels to Svg https://codepen.io/shshaw/pen/XbxvNj</metadata>
<path stroke="#6e676b" d="M43 21h2M42 22h1M44 22h1M41 23h1M44 23h1M47 23h4M40 24h1M44 24h3M50 24h1M40 25h1M44 25h1M49 25h1M39 26h1M43 26h1M48 26h1M39 27h1M47 27h1M38 28h1M47 28h2M50 28h3M38 29h1M49 29h1M53 29h1M33 30h3M37 30h1M32 31h1M36 31h1M31 32h1M31 33h1M53 33h1M54 34h1M54 37h2M56 38h2M58 39h1M32 40h2M31 41h1M30 42h1M55 42h1M32 43h1M56 43h1M32 44h1M31 45h1M34 45h1M30 46h1M34 46h1M52 46h1M32 47h1M35 47h1M51 47h1M36 48h1M49 48h1M47 49h2M41 50h2M49 50h1M38 51h1M40 51h1M50 51h1M53 51h1M29 52h1M37 52h1M40 52h1M51 52h2M58 52h2M30 53h2M37 53h1M40 53h1M48 53h1M51 53h1M56 53h2M32 54h2M36 54h1M39 54h1M39 55h1M39 56h1M39 57h1M38 58h1M36 59h2M34 60h2M41 60h1M45 60h1M33 61h1M32 62h1M32 63h1M39 63h1M38 64h1M33 66h1M55 67h1M56 69h1M34 70h1M52 72h1M51 73h1" />
<path stroke="#d2cdb9" d="M43 22h1M42 23h2M41 24h3M47 24h3M41 25h2M46 25h3M40 26h3M44 26h4M40 27h2M43 27h4M39 28h2M44 28h2M44 29h1M50 29h3M50 30h4M33 31h3M49 31h5M32 32h4M49 32h4M32 33h4M51 33h1M33 34h2M33 35h1M53 38h2M49 39h7M34 40h1M48 40h10M32 41h4M40 41h4M48 41h6M31 42h5M48 42h5M34 43h2M46 43h8M35 44h4M46 44h6M53 44h3M32 45h2M35 45h3M47 45h3M31 46h1M36 46h2M38 52h1M53 52h2M35 53h1M38 53h1M52 53h4M35 54h1M37 54h2M40 54h1M51 54h4M36 55h2M40 55h2M43 55h1M46 55h2M52 55h2M40 56h9M40 57h9M40 58h10M38 59h8M47 59h4M36 60h4M47 60h5M34 61h6M47 61h6M33 62h6M48 62h5M33 63h5M49 63h3M34 64h2" />
<path stroke="#b0ac97" d="M43 25h1M45 25h1M42 27h1M46 28h1M49 30h1M48 31h1M36 32h1M53 32h1M52 33h1M32 34h1M52 34h2M53 35h2M52 36h3M52 37h2M51 38h2M55 38h1M48 39h1M56 39h2M58 40h1M39 41h1M54 41h3M39 42h2M44 42h1M47 42h1M53 42h2M33 43h1M36 43h1M54 43h2M33 44h2M52 44h1M56 44h2M50 45h7M32 46h2M35 46h1M47 46h5M53 46h2M33 47h2M36 47h2M47 47h4M37 48h2M46 48h3M39 49h2M45 49h2M43 50h6M39 51h1M42 51h3M47 51h3M39 52h1M43 52h1M47 52h4M29 53h1M39 53h1M47 53h1M49 53h2M58 53h2M29 54h3M34 54h1M41 54h1M43 54h1M46 54h2M49 54h2M55 54h4M30 55h6M38 55h1M42 55h1M44 55h2M48 55h1M50 55h2M54 55h4M32 56h5M52 56h4M39 58h1M46 59h1M40 60h1M42 60h3M46 60h1M40 61h2M39 62h2M38 63h1M48 63h1M52 63h2M33 64h1M36 64h2M49 64h5M33 65h6M49 65h6M34 66h5M50 66h5M34 67h6M50 67h5M34 68h6M50 68h6M34 69h1M36 69h5M50 69h6M37 70h4M50 70h4M55 70h2M38 71h3M50 71h3M56 71h1M50 72h2" />
<path stroke="#9e988d" d="M41 28h2M59 28h4M39 29h2M45 29h4M57 29h2M38 30h1M44 30h1M56 30h1M37 31h1M55 31h1M60 31h4M37 32h1M41 32h1M47 32h2M36 33h1M45 33h1M49 33h2M35 34h2M59 34h4M34 35h1M57 35h2M63 35h2M34 36h1M56 36h1M65 36h1M66 37h1M49 38h1M67 38h1M44 39h4M65 39h1M37 40h7M65 40h1M65 41h1" />
<path stroke="#101010" d="M43 28h1M43 29h1M62 29h1M43 30h1M48 30h1M54 30h1M61 30h1M42 31h1M47 31h1M54 31h1M46 32h1M54 32h1M63 32h1M54 33h1M62 33h1M31 34h1M51 34h1M32 35h1M52 35h1M55 35h1M33 36h1M50 36h2M55 36h1M33 37h1M51 37h1M33 38h1M50 38h1M33 39h2M66 39h2M35 40h2M59 40h3M57 41h2M62 41h2M56 42h1M64 42h2M30 43h2M57 43h1M58 44h1M57 45h2M55 46h2M30 47h2M52 47h3M59 47h2M28 48h1M33 48h3M50 48h1M61 48h1M27 49h1M37 49h2M49 49h1M61 49h1M27 50h1M39 50h2M61 50h1M27 51h1M35 52h1M60 52h1M28 53h1M36 53h1M60 53h1M28 54h1M48 54h1M59 54h1M29 55h1M49 55h1M58 55h1M30 56h2M37 56h2M49 56h3M56 56h2M32 57h5M49 57h1M52 57h4M50 58h1M53 58h1M51 59h2M52 60h1M42 61h5M53 61h1M41 62h2M47 62h1M53 62h1M40 63h1M47 63h1M54 63h1M32 64h1M39 64h1M48 64h1M54 64h1M32 65h1M39 65h1M48 65h1M55 65h1M39 66h1M49 66h1M55 66h1M33 67h1M40 67h1M49 67h1M56 67h1M33 68h1M40 68h1M49 68h1M56 68h1M33 69h1M41 69h1M49 69h1M41 70h1M49 70h1M57 70h1M41 71h1M49 71h1M32 72h2M39 72h2M49 72h1M34 73h5M50 73h1M58 73h1M51 74h7" />
<path stroke="#f4f4f4" d="M41 29h2M39 30h3M45 30h3M38 31h3M44 31h2M38 32h2M42 32h3M39 33h4M47 33h2M37 34h14M35 35h10M48 35h1M50 35h1M59 35h4M37 36h7M48 36h2M58 36h7M34 37h1M38 37h6M47 37h4M59 37h7M34 38h2M39 38h4M46 38h2M59 38h5M65 38h2M35 39h2M39 39h4M60 39h4M63 40h2M64 41h1M41 51h1M46 51h1M41 52h2M44 52h3M41 53h5M42 54h1M44 54h2" />
<path stroke="#c8c4c3" d="M59 29h3M42 30h1M57 30h4M41 31h1M43 31h1M46 31h1M56 31h4M40 32h1M45 32h1M55 32h8M37 33h2M43 33h2M46 33h1M55 33h7M55 34h4M45 35h1M49 35h1M51 35h1M56 35h1M44 36h1M57 36h1M37 37h1M44 37h1M56 37h3M38 38h1M43 38h1M48 38h1M58 38h1M64 38h1M59 39h1M64 39h1M62 40h1M45 51h1M46 53h1" />
<path stroke="#262628" d="M46 35h2M35 36h2M45 36h3M35 37h2M45 37h2M36 38h2M44 38h2M37 39h2M43 39h1M44 40h1M46 40h2M36 41h2M44 41h2M47 41h1M36 42h1M38 42h1M45 42h2M37 43h2" />
<path stroke="#fefefe" d="M45 40h1M38 41h1" />
<path stroke="#5c5653" d="M46 41h1M37 42h1M41 44h2M57 48h2M60 48h1M29 49h1M58 49h2M28 50h1M30 50h2M55 50h3M59 50h1M28 51h1M30 51h1M32 51h2M55 51h1M57 51h1M59 51h1M30 52h1M32 52h2M57 52h1M32 53h1M50 57h1M51 58h2M32 70h1M35 70h1M32 71h2M35 71h2M54 71h1M57 71h1M34 72h4M53 72h3M57 72h1M53 73h5" />
<path stroke="#c75d57" d="M41 42h3M39 43h2M44 43h2M39 44h1M45 44h1M38 45h1M42 45h1M46 45h1M38 46h1M42 46h1M46 46h1M38 47h1M46 47h1M39 48h1M42 48h1M45 48h1M41 49h4" />
<path stroke="#f99350" d="M41 43h3M40 44h1M43 44h2M39 45h3M43 45h3M39 46h2M44 46h2M39 47h2M42 47h2M45 47h1M40 48h2M43 48h2" />
<path stroke="#a54453" d="M41 46h1M43 46h1M41 47h1M44 47h1" />
<path stroke="#34302f" d="M57 47h2M29 48h2M56 48h1M59 48h1M28 49h1M30 49h3M55 49h3M60 49h1M29 50h1M32 50h2M54 50h1M58 50h1M60 50h1M29 51h1M31 51h1M34 51h1M54 51h1M56 51h1M58 51h1M60 51h1M28 52h1M31 52h1M34 52h1M55 52h2M33 53h2M51 57h1M31 68h1M31 69h2M35 69h1M58 69h1M31 70h1M33 70h1M36 70h1M54 70h1M58 70h1M31 71h1M34 71h1M37 71h1M53 71h1M55 71h1M58 71h1M38 72h1M56 72h1M58 72h1M52 73h1" />
</svg>