<svg xmlns="http://www.w3.org/2000/svg" viewBox="0 -0.5 96 96" shape-rendering="crispEdges">
<metadata>Made with Pixels to Svg https://codepen.io/shshaw/pen/XbxvNj</metadata>
<path stroke="#5a5a7b" d="M63 20h1M61 21h2M59 22h2M46 23h1M58 23h1M45 24h1M56 24h2M63 24h1M44 25h1M55 25h1M62 25h1M22 26h2M33 26h1M37 26h1M43 26h1M50 26h1M53 26h2M62 26h1M24 27h3M33 27h1M37 27h1M42 27h1M49 27h1M52 27h1M61 27h2M27 28h4M37 28h1M41 28h1M48 28h1M61 28h1M31 29h2M40 29h1M51 29h1M60 29h2M37 30h1M60 30h2M59 31h3M58 32h3M58 33h3M32 34h1M57 34h4M57 35h3M56 36h4M56 37h5M56 38h5M50 39h1M55 39h5M55 40h5M50 41h1M55 41h5M27 42h1M50 42h1M56 42h4M27 43h1M30 43h1M50 43h1M54 43h1M56 43h4M26 44h2M30 44h1M34 44h1M50 44h1M57 44h3M25 45h3M30 45h1M42 45h1M50 45h1M57 45h4M68 45h1M23 46h4M31 46h1M43 46h1M49 46h1M57 46h4M66 46h2M23 47h4M29 47h1M31 47h1M36 47h1M44 47h1M48 47h1M57 47h10M24 48h3M32 48h1M35 48h1M57 48h8M26 49h1M57 49h6M65 49h1M30 50h1M57 50h9M31 51h1M57 51h9M31 52h1M56 52h10M32 53h1M56 53h10M33 54h1M56 54h10M55 55h11M55 56h10M54 57h11M66 57h1M54 58h11M66 58h2M53 59h11M65 59h6M52 60h12M65 60h6M32 61h1M51 61h19M32 62h3M49 62h12M62 62h7M31 63h7M46 63h9M63 63h4M31 64h4M36 64h17M64 64h1M31 65h5M38 65h15M31 66h7M40 66h12M35 67h5M43 67h7M37 68h4M39 69h1M33 70h1M35 70h1M39 70h1M62 72h1M60 73h1M63 73h1" />
<path stroke="#9494b4" d="M63 21h1M61 22h2M59 23h3M58 24h3M56 25h4M55 26h4M34 27h1M38 27h1M53 27h6M25 28h2M34 28h2M38 28h1M52 28h6M26 29h5M34 29h2M52 29h3M56 29h1M27 30h6M35 30h1M53 30h1M55 30h1M27 31h6M54 31h1M28 32h1M30 32h3M29 33h1M31 33h2M35 33h5M41 33h1M33 34h6M40 34h1M42 34h1M32 35h8M41 35h1M31 36h9M31 37h9M67 37h2M19 38h1M22 38h1M31 38h8M65 38h4M19 39h5M32 39h5M64 39h1M66 39h2M69 39h1M20 40h5M63 40h1M65 40h5M22 41h3M43 41h2M64 41h1M66 41h6M25 42h1M42 42h3M63 42h1M68 42h2M42 43h2M42 44h2M59 65h2M58 66h4M58 67h4M59 68h3M60 69h1" />
<path stroke="#101010" d="M64 21h1M64 22h1M64 23h1M64 24h1M63 25h1M63 26h1M63 27h1M62 28h1M62 29h1M62 30h1M62 31h1M61 32h1M61 33h1M61 34h1M60 35h1M69 35h1M30 36h1M60 36h1M67 36h2M19 37h1M22 37h1M30 37h1M65 37h2M20 38h1M29 38h1M62 38h3M74 38h1M29 39h1M73 39h1M28 40h1M73 40h1M28 41h1M72 41h1M71 42h1M45 43h1M71 43h1M44 44h2M70 44h1M34 45h1M45 45h1M69 45h1M34 46h1M53 46h1M68 46h1M27 47h1M53 47h1M67 47h1M27 48h1M53 48h1M65 48h2M27 49h1M52 49h1M64 49h1M66 49h1M27 50h1M52 50h1M27 51h1M51 51h1M27 52h1M51 52h1M50 53h1M28 54h1M49 54h1M28 55h1M29 57h1M30 59h1M71 59h1M31 60h1M71 60h1M31 61h1M70 61h1M69 62h1M62 63h1M67 63h2M63 64h1M65 64h2M63 65h2M38 66h2M64 66h1M40 67h3M50 67h1M64 67h1M43 68h7M64 68h1M40 69h1M64 69h1M40 70h1M64 70h1M31 71h1M37 71h3M63 71h1M32 72h5M63 72h1M57 74h2M62 74h2M59 75h3" />
<path stroke="#7b7b9c" d="M63 22h1M62 23h1M46 24h1M61 24h1M45 25h2M60 25h2M44 26h3M59 26h2M22 27h2M43 27h4M50 27h1M59 27h2M22 28h3M39 28h1M42 28h5M49 28h2M58 28h2M23 29h3M36 29h1M38 29h2M41 29h10M55 29h1M57 29h3M24 30h3M34 30h1M36 30h1M38 30h15M54 30h1M56 30h3M24 31h3M34 31h20M55 31h3M25 32h3M29 32h1M34 32h24M26 33h3M30 33h1M33 33h2M40 33h1M42 33h15M27 34h5M39 34h1M41 34h1M43 34h14M27 35h4M40 35h1M42 35h14M70 35h1M28 36h2M40 36h16M69 36h2M29 37h1M40 37h15M69 37h3M30 38h1M39 38h16M70 38h4M30 39h2M37 39h13M51 39h4M61 39h3M65 39h1M71 39h2M25 40h1M29 40h19M50 40h5M60 40h3M64 40h1M71 40h2M20 41h2M25 41h2M29 41h1M31 41h12M45 41h2M51 41h4M60 41h4M65 41h1M19 42h6M26 42h1M29 42h2M32 42h10M45 42h1M51 42h4M60 42h3M64 42h4M70 42h1M18 43h8M28 43h2M33 43h9M44 43h1M51 43h3M55 43h1M60 43h11M20 44h5M28 44h2M35 44h7M51 44h3M55 44h1M61 44h8M21 45h3M28 45h2M36 45h6M51 45h2M54 45h3M61 45h6M28 46h3M37 46h6M50 46h2M54 46h3M62 46h3M28 47h1M30 47h1M37 47h7M49 47h2M54 47h3M28 48h1M30 48h2M36 48h13M54 48h3M28 49h2M32 49h15M53 49h4M28 50h2M34 50h10M53 50h4M28 51h3M52 51h4M28 52h3M52 52h4M29 53h3M51 53h5M29 54h4M50 54h5M29 55h5M49 55h6M30 56h5M47 56h7M30 57h7M45 57h9M31 58h22M31 59h21M33 60h18M34 61h16M36 62h12M39 63h6M56 63h6M54 64h9M53 65h6M61 65h2M53 66h5M62 66h2M32 67h2M52 67h6M62 67h2M32 68h4M52 68h7M62 68h2M33 69h5M53 69h7M61 69h3M32 70h1M34 70h1M36 70h3M54 70h10M33 71h1M35 71h2M55 71h8M56 72h6M56 73h4M61 73h2M59 74h2" />
<path stroke="#393962" d="M47 23h1M47 24h1M47 25h1M34 26h1M38 26h1M47 26h1M51 26h1M21 27h1M35 27h1M39 27h1M47 27h1M51 27h1M21 28h1M33 28h1M36 28h1M40 28h1M47 28h1M51 28h1M22 29h1M33 29h1M37 29h1M23 30h1M33 30h1M23 31h1M33 31h1M24 32h1M33 32h1M25 33h1M26 34h1M70 34h1M26 35h1M31 35h1M61 35h1M71 35h1M27 36h1M71 36h1M28 37h1M61 37h1M72 37h3M18 38h1M21 38h1M23 38h1M28 38h1M61 38h1M69 38h1M18 39h1M24 39h2M60 39h1M68 39h1M70 39h1M19 40h1M26 40h2M48 40h2M70 40h1M19 41h1M30 41h1M47 41h1M18 42h1M28 42h1M31 42h1M46 42h1M17 43h1M32 43h1M18 44h2M33 44h1M54 44h1M20 45h1M35 45h1M43 45h1M53 45h1M21 46h1M27 46h1M36 46h1M52 46h1M22 47h1M51 47h1M23 48h1M29 48h1M49 48h2M24 49h2M30 49h2M47 49h2M63 49h1M26 50h1M32 50h2M44 50h3M66 50h1M34 51h10M66 51h1M66 52h1M28 53h1M66 53h1M66 54h1M34 55h1M47 55h2M66 55h1M29 56h1M35 56h2M45 56h2M65 56h2M37 57h8M65 57h1M67 57h1M30 58h1M65 58h1M68 58h3M64 59h1M64 60h1M31 62h1M61 62h1M30 63h1M30 64h1M35 64h1M30 65h1M36 65h2M30 66h1M31 67h1M51 67h1M31 68h1M41 68h1M51 68h1M32 69h1M52 69h1M31 70h1M53 70h1M32 71h1M34 71h1M54 71h1M55 72h1M55 73h1M56 74h1M61 74h1" />
<path stroke="#6a6a8b" d="M63 23h1M62 24h1M61 26h1M60 28h1M59 30h1M58 31h1M57 33h1M56 35h1M55 37h1M55 38h1M27 41h1M55 42h1M26 43h1M25 44h1M56 44h1M60 44h1M69 44h1M24 45h1M67 45h1M22 46h1M61 46h1M65 46h1M56 51h1M55 54h1M54 56h1M53 58h1M52 59h1M32 60h1M51 60h1M33 61h1M50 61h1M35 62h1M48 62h1M38 63h1M45 63h1M55 63h1M53 64h1M52 66h1M34 67h1M36 68h1M38 69h1" />
<path stroke="#bd6a6a" d="M48 41h2M47 42h3M31 43h1M48 43h2M31 44h2M49 44h1M31 45h1M44 45h1M49 45h1M35 46h1M48 46h1M32 47h1M45 47h3M33 48h2" />
<path stroke="#ee9494" d="M46 43h2M46 44h3M32 45h2M46 45h3M32 46h2M44 46h4M33 47h3" />
<path stroke="#bdacbd" d="M52 47h1M51 48h1M49 49h1M31 50h1M44 51h1M47 52h1M37 54h1M42 54h1" />
<path stroke="#ffffff" d="M52 48h1M50 49h2M48 50h4M32 51h1M45 51h2M48 51h3M32 52h1M34 52h3M38 52h4M43 52h4M49 52h2M34 53h3M38 53h4M43 53h5M49 53h1M34 54h3M39 54h3M44 54h4M35 55h3M39 55h4M44 55h3M37 56h1M39 56h4M44 56h1" />
<path stroke="#6a627b" d="M47 50h1M33 51h1M47 51h1M33 52h1M37 52h1M42 52h1M33 53h1M37 53h1M42 53h1M48 53h1M48 54h1M38 55h1M43 55h1M38 56h1M43 56h1" />
<path stroke="#dedede" d="M48 52h1M38 54h1M43 54h1" />
</svg>