<svg xmlns="http://www.w3.org/2000/svg" viewBox="0 -0.5 80 80" shape-rendering="crispEdges">
<metadata>Made with Pixels to Svg https://codepen.io/shshaw/pen/XbxvNj</metadata>
<path stroke="#b573b5" d="M26 4h2M23 5h3M20 6h3M64 6h8M24 7h3M32 7h3M61 7h3M22 8h2M35 8h3M59 8h2M65 8h1M24 9h3M31 9h1M38 9h2M61 9h1M26 10h2M40 10h1M53 10h1M41 11h2M51 11h1M58 11h1M43 12h1M57 12h1M2 13h8M16 13h1M10 14h1M16 14h1M44 14h1M55 14h1M13 15h1M15 15h1M45 15h1M51 15h2M54 15h2M14 16h2M51 16h2M54 16h2M15 17h2M46 17h1M52 17h3M16 18h2M47 18h1M52 18h2M17 19h1M47 19h2M52 19h2M47 20h2M52 20h1M47 21h3M18 22h1M47 22h3M46 23h4M52 23h1M44 24h5M44 25h5M44 26h5M45 27h3M20 28h1M45 28h3M22 29h1M45 29h2M45 30h2M50 30h1M21 31h3M45 31h1M23 32h2M36 32h2M24 33h2M35 33h1M25 34h2M46 34h1M26 35h2M34 35h1M45 35h1M26 36h1M30 37h1M44 37h1M30 38h2M34 38h1M53 38h2M31 39h1M43 39h1M51 39h4M29 40h1M50 40h5M20 41h1M29 41h1M49 41h6M19 42h3M29 42h1M49 42h5M28 43h3M35 43h1M43 43h1M48 43h1M50 43h4M19 44h1M28 44h3M34 44h1M42 44h3M48 44h1M50 44h4M27 45h5M34 45h1M41 45h9M51 45h3M27 46h6M34 46h2M38 46h12M51 46h2M27 47h4M32 47h1M34 47h16M51 47h2M23 48h8M32 48h1M34 48h17M52 48h1M21 49h8M31 49h3M35 49h15M51 49h1M19 50h8M31 50h3M35 50h18M18 51h5M31 51h3M37 51h17M17 52h4M31 52h2M35 52h2M38 52h14M17 53h3M31 53h2M35 53h13M49 53h1M15 54h5M30 54h2M36 54h11M48 54h2M15 55h4M30 55h1M36 55h2M40 55h4M47 55h5M54 55h1M15 56h4M30 56h1M35 56h5M48 56h6M30 57h1M35 57h6M49 57h6M29 58h2M35 58h5M53 58h4M29 59h1M36 59h4M52 59h5M29 60h1M39 60h1M52 60h5M29 61h1M37 61h1M39 61h2M52 61h5M29 62h1M37 62h1M40 62h1M53 62h1M56 62h2M29 63h1M38 63h1M41 63h1M53 63h1M57 63h1M28 64h2M53 64h1M57 64h2M27 65h2M53 65h2M58 65h2M27 66h2M54 66h2M22 67h6" />
<path stroke="#733a6b" d="M28 4h2M29 5h1M28 6h1M19 7h1M27 7h5M72 7h1M51 8h3M23 9h1M27 9h4M50 9h1M57 9h2M15 10h2M28 10h1M32 10h2M50 10h1M56 10h1M26 11h1M34 11h2M52 11h1M36 12h1M49 12h3M12 13h2M18 13h1M37 13h1M44 13h1M48 13h1M55 13h1M3 14h1M11 14h1M17 14h1M38 14h1M45 14h1M52 14h1M56 14h1M4 15h3M16 15h1M18 15h1M39 15h1M46 15h2M53 15h1M9 16h1M12 16h2M16 16h1M40 16h1M46 16h1M48 16h1M50 16h1M53 16h1M14 17h1M40 17h1M47 17h1M41 18h1M48 18h1M51 18h1M49 19h1M51 19h1M16 20h2M19 20h1M49 20h1M53 20h1M20 21h1M20 22h1M42 22h1M18 23h1M20 23h1M43 23h1M50 23h1M21 24h1M52 24h1M21 25h1M19 26h1M21 26h1M43 26h1M49 26h1M22 27h1M44 27h1M22 28h1M48 28h1M51 28h1M23 29h1M23 30h1M47 30h1M24 31h1M46 31h1M49 31h1M22 32h1M45 32h1M48 32h1M38 33h1M35 34h1M38 34h1M43 34h1M43 35h1M25 36h1M34 36h1M39 36h1M42 36h1M26 37h1M31 37h1M34 37h1M41 37h1M17 38h1M32 38h2M17 39h1M29 39h1M32 39h1M17 40h1M25 40h1M31 40h1M18 41h1M18 42h1M22 42h2M30 42h1M54 42h1M18 43h3M22 43h1M18 44h1M26 44h1M33 44h1M49 44h1M25 45h1M50 45h1M50 46h1M53 46h1M17 47h1M25 47h1M31 47h1M50 47h1M15 48h2M33 48h1M12 49h3M30 49h1M34 49h1M50 49h1M11 50h1M27 50h1M10 51h1M17 51h1M23 51h1M34 51h1M36 51h1M54 51h1M10 52h1M21 52h1M33 52h1M37 52h1M54 52h1M16 53h1M21 53h1M30 53h1M34 53h1M48 53h1M20 54h1M23 54h1M33 54h1M35 54h1M55 54h1M23 55h1M29 55h1M31 55h1M35 55h1M38 55h2M44 55h1M14 56h1M23 56h1M29 56h1M34 56h1M22 57h1M29 57h1M34 57h1M22 58h1M28 58h1M34 58h1M51 58h2M57 58h1M21 59h1M30 59h1M35 59h1M21 60h1M37 60h2M20 61h1M28 61h1M38 61h1M51 61h1M36 62h1M38 62h2M41 62h1M52 62h1M54 62h1M26 63h2M37 63h1M40 63h1M52 63h1M56 63h1M30 64h1M29 65h1M29 66h1M21 67h1M28 67h1M54 67h1" />
<path stroke="#ffc5f7" d="M26 5h3M23 6h5M51 9h2M51 10h1M15 11h2M17 12h1M52 12h1M49 13h1M4 14h6M12 14h2M48 14h2M10 15h1M12 15h1M17 15h1M48 15h1M17 16h3M18 17h1M36 33h2M36 34h2M35 35h3M35 36h2M35 37h2M35 38h3M33 39h5M32 40h5M31 41h5M31 42h4M21 43h1M32 43h3M20 44h2M19 45h5M18 46h5M19 47h3M18 48h1M15 49h3M12 50h5M12 51h3" />
<path stroke="#dea5d6" d="M20 7h4M64 7h8M24 8h11M61 8h4M32 9h6M53 9h1M59 9h2M34 10h6M52 10h1M57 10h3M36 11h5M56 11h2M15 12h2M37 12h6M53 12h1M55 12h2M17 13h1M38 13h6M50 13h1M52 13h3M56 13h1M18 14h1M39 14h5M50 14h1M53 14h2M9 15h1M14 15h1M40 15h5M49 15h1M41 16h5M19 17h1M41 17h5M42 18h5M18 19h1M42 19h5M18 20h1M43 20h4M51 20h1M18 21h2M43 21h4M51 21h2M19 22h1M43 22h4M51 22h2M19 23h1M44 23h2M51 23h1M19 24h2M50 24h2M19 25h2M50 25h2M20 26h1M50 26h2M20 27h2M49 27h3M21 28h1M49 28h2M21 29h1M48 29h3M21 30h2M48 30h2M47 31h2M46 32h2M45 33h2M44 34h2M38 35h1M44 35h1M28 36h1M37 36h2M43 36h2M28 37h1M37 37h4M42 37h2M27 38h2M38 38h6M18 39h1M27 39h2M38 39h5M18 40h2M26 40h3M37 40h6M19 41h1M26 41h3M36 41h7M25 42h4M35 42h8M23 43h5M36 43h7M22 44h4M31 44h1M35 44h7M18 45h1M32 45h1M35 45h6M36 46h2M19 48h4M18 49h3M17 50h2M11 51h1M15 51h2M11 52h5M52 52h2M11 53h5M50 53h5M12 54h3M50 54h5M13 55h2M52 55h2M20 62h1M28 62h1M28 63h1M19 64h1M27 64h1M19 65h2M25 65h2M20 66h7" />
<path stroke="#000000" d="M20 8h2M67 8h4M22 9h1M54 9h1M62 9h3M69 9h1M24 10h2M54 10h1M60 10h2M68 10h1M14 11h1M17 11h1M27 11h2M53 11h3M59 11h1M14 12h1M18 12h1M54 12h1M15 13h1M51 13h1M57 13h1M14 14h2M19 14h1M47 14h1M51 14h1M7 15h2M11 15h1M19 15h1M50 15h1M56 15h1M5 16h1M10 16h2M20 16h1M49 16h1M56 16h1M6 17h1M13 17h1M17 17h1M20 17h1M51 17h1M55 17h1M7 18h1M15 18h1M18 18h2M54 18h1M16 19h1M19 19h1M41 19h1M54 19h1M42 20h1M50 20h1M17 21h1M42 21h1M50 21h1M53 21h1M17 22h1M50 22h1M53 22h1M53 23h1M18 24h1M43 24h1M49 24h1M18 25h1M43 25h1M49 25h1M52 25h1M52 26h1M19 27h1M48 27h1M19 28h1M44 28h1M20 29h1M44 29h1M47 29h1M51 29h1M20 30h1M44 30h1M51 30h1M20 31h1M44 31h1M21 32h1M25 32h1M44 32h1M23 33h1M26 33h1M44 33h1M47 33h1M24 34h1M27 34h1M25 35h1M28 35h2M39 35h1M46 35h1M27 36h1M29 36h1M40 36h2M45 36h1M27 37h1M29 37h1M45 37h1M55 37h1M18 38h1M26 38h1M29 38h1M44 38h1M55 38h1M19 39h1M26 39h1M44 39h1M55 39h1M20 40h1M30 40h1M43 40h1M55 40h1M21 41h1M25 41h1M30 41h1M43 41h1M55 41h1M24 42h1M43 42h1M31 43h1M49 43h1M54 43h1M32 44h1M54 44h1M17 45h1M24 45h1M33 45h1M54 45h1M17 46h1M23 46h1M33 46h1M23 47h1M33 47h1M53 47h1M31 48h1M51 48h1M53 48h1M29 49h1M52 49h2M28 50h1M30 50h1M34 50h1M53 50h1M24 51h3M30 51h1M35 51h1M16 52h1M22 52h1M30 52h1M34 52h1M10 53h1M20 53h1M29 53h1M33 53h1M11 54h1M29 54h1M32 54h1M47 54h1M12 55h1M19 55h1M45 55h2M55 55h1M13 56h1M19 56h1M31 56h1M40 56h4M47 56h1M54 56h1M15 57h4M31 57h1M41 57h1M48 57h1M55 57h2M31 58h1M40 58h1M49 58h2M28 59h1M40 59h1M51 59h1M57 59h1M28 60h1M30 60h1M36 60h1M40 60h1M51 60h1M57 60h1M30 61h1M36 61h1M41 61h1M57 61h1M19 62h1M27 62h1M30 62h1M55 62h1M58 62h1M18 63h2M30 63h1M39 63h1M42 63h1M54 63h1M58 63h1M18 64h1M20 64h1M25 64h2M38 64h2M41 64h2M52 64h1M54 64h1M56 64h1M59 64h1M18 65h1M21 65h4M52 65h1M55 65h1M57 65h1M60 65h1M19 66h1M53 66h1M56 66h1M58 66h3M20 67h1M55 67h2M22 68h6" />
<path stroke="#19089c" d="M66 8h1M71 8h1M67 11h1M58 12h1M67 12h1M66 13h1M66 14h1M65 15h1M65 16h1M65 17h1M64 18h1M7 19h1M64 19h1M8 20h1M64 20h1M9 21h1M64 21h1M9 22h1M64 22h1M10 23h1M63 23h1M10 24h1M63 24h1M11 25h1M63 25h1M11 26h1M63 26h1M11 27h1M63 27h1M12 28h1M63 28h1M12 29h1M52 29h1M63 29h1M12 30h1M52 30h3M63 30h1M12 31h1M18 31h2M50 31h1M55 31h2M64 31h1M11 32h1M17 32h1M58 32h2M64 32h1M11 33h1M15 33h1M60 33h2M65 33h1M10 34h1M12 34h2M62 34h2M66 34h1M10 35h2M60 35h7M9 36h6M55 36h5M15 37h5M53 37h2M20 38h2M51 38h2M22 39h1M50 39h1M23 40h1M49 40h1M23 41h1M48 41h1M48 42h1M44 43h1M47 43h1M45 44h3" />
<path stroke="#1021bd" d="M65 9h1M62 10h3M60 11h3M59 12h3M58 13h3M57 14h3M57 15h2M6 16h3M57 16h1M7 17h6M56 17h2M8 18h7M55 18h2M8 19h8M55 19h1M9 20h7M54 20h2M10 21h7M54 21h2M10 22h7M54 22h2M11 23h7M54 23h2M11 24h7M53 24h2M12 25h6M53 25h2M12 26h7M53 26h2M12 27h7M52 27h2M13 28h6M52 28h2M13 29h7M53 29h1M13 30h5M55 30h1M13 31h3M51 31h4M57 31h1M12 32h2M16 32h1M18 32h3M49 32h9M14 33h1M16 33h7M48 33h12M14 34h10M47 34h15M12 35h13M47 35h13M15 36h10M46 36h9M20 37h6M46 37h7M22 38h4M45 38h6M23 39h3M30 39h1M45 39h5M24 40h1M44 40h5M24 41h1M44 41h4M44 42h4M45 43h2M27 44h1M18 47h1M22 47h1M17 48h1M55 53h1" />
<path stroke="#4263ff" d="M66 9h3M65 10h3M63 11h4M62 12h5M61 13h5M60 14h6M59 15h6M58 16h7M58 17h7M57 18h7M56 19h8M56 20h8M56 21h8M56 22h8M56 23h7M55 24h8M55 25h8M55 26h8M54 27h9M55 28h8M56 29h7M18 30h2M58 30h5M16 31h2M60 31h4M14 32h2M62 32h2M12 33h2M64 33h1M11 34h1M65 34h1" />
<path stroke="#6b94ff" d="M54 28h1M54 29h2M56 30h2M58 31h2M60 32h2M62 33h2M64 34h1" />
<path stroke="#cecece" d="M26 45h1M25 46h1M23 57h1M21 61h1M27 61h1M20 63h1" />
<path stroke="#317329" d="M24 46h1M24 47h1" />
<path stroke="#ffffff" d="M26 46h1M26 47h1M28 57h1M27 60h1M25 63h1" />
<path stroke="#842142" d="M29 50h1M27 51h3M23 52h7M22 53h7M25 54h2M22 60h1M22 61h1M22 62h1M26 62h1M21 63h4M21 64h4" />
<path stroke="#ce3a4a" d="M24 54h1M27 54h2M24 55h5M24 56h2M24 57h1M22 59h1M21 62h1M23 62h1" />
<path stroke="#e68c9c" d="M26 56h3M25 57h3M23 58h5M23 59h5M23 60h4M23 61h4M24 62h2" />
</svg>