<svg xmlns="http://www.w3.org/2000/svg" viewBox="0 -0.5 80 80" shape-rendering="crispEdges">
<metadata>Made with Pixels to Svg https://codepen.io/shshaw/pen/XbxvNj</metadata>
<path stroke="#08845a" d="M31 22h4M30 23h1M35 23h1M28 24h2M37 25h3M35 26h2M34 27h1M24 30h1M34 30h1M38 30h1M21 31h1M32 31h3M38 31h2M21 32h1M31 32h4M39 32h2M25 33h1M28 33h1M32 33h3M39 33h2M27 34h1M29 34h1M34 34h1M39 34h2M56 34h2M30 35h1M34 35h1M38 35h2M56 35h1M31 36h2M36 36h2M44 36h3M33 37h2M43 37h1M47 37h5M56 37h1M35 38h2M52 38h1M55 38h1M51 39h1M54 39h1M26 40h1M33 40h1M57 40h1M28 41h1M30 41h2M45 42h1M48 42h1M51 42h1M56 43h1M33 44h2M34 45h1M33 46h1M35 46h1M32 47h1M36 47h1M32 48h1M36 48h1M44 48h1M32 49h1M37 49h1M44 49h1M33 50h1M38 50h1M45 50h1M33 51h2M39 51h2M45 51h2M35 52h3M47 52h3M32 53h2M30 54h2M35 54h1M47 54h1M49 54h1M50 55h1M52 55h1M48 56h1M50 56h1M52 56h1M49 57h2" />
<path stroke="#6be6ad" d="M31 23h4M30 24h6M28 25h5M27 26h1M29 26h6M21 27h1M30 27h3M21 28h2M29 28h1M33 28h2M40 28h1M21 29h3M26 29h9M39 29h3M22 30h2M25 30h9M40 30h2M23 31h9M40 31h2M27 32h4M41 32h1M29 33h2M41 33h1M30 34h2M41 34h2M31 35h3M41 35h2M33 36h2M40 36h3M35 37h8M44 37h3M38 38h4M43 38h5M36 39h5M43 39h5M50 39h1M34 40h4M43 40h5M49 40h2M32 41h4M44 41h7M26 42h8M28 43h4M43 43h2M46 43h3M42 44h9M41 45h5M47 45h5M34 46h1M40 46h5M46 46h6M33 47h3M40 47h5M46 47h5M33 48h3M38 48h6M46 48h5M34 49h2M40 49h4M47 49h3M33 52h2M31 53h1M32 54h2M48 54h1M49 55h1M51 55h1M53 55h1M49 56h1M51 56h1M53 56h1" />
<path stroke="#4ab58c" d="M23 24h3M22 25h1M26 25h2M33 25h4M21 26h1M28 26h1M28 27h2M33 27h1M20 28h1M30 28h3M36 28h2M41 28h1M20 29h1M24 29h2M35 29h1M38 29h1M21 30h1M39 30h1M22 31h1M25 32h2M42 33h1M43 34h1M43 35h3M57 35h1M35 36h1M43 36h1M47 36h1M57 36h1M57 37h1M37 38h1M42 38h1M50 38h1M56 38h2M25 39h1M35 39h1M42 39h1M48 39h2M52 39h2M55 39h3M38 40h2M42 40h1M48 40h1M53 40h4M25 41h1M37 41h1M43 41h1M52 41h5M34 42h1M44 42h1M52 42h5M32 43h1M45 43h1M50 43h1M52 43h4M51 44h1M53 44h3M46 45h1M53 45h2M45 46h1M52 46h1M54 46h1M45 47h1M51 47h2M37 48h1M45 48h1M51 48h2M33 49h1M36 49h1M38 49h2M45 49h2M50 49h3M34 50h4M39 50h6M46 50h6M35 51h4M41 51h4M47 51h4M31 52h2M38 52h2M50 52h2M30 53h1M34 53h4M48 53h4M34 54h1M50 54h3M48 55h1" />
<path stroke="#101010" d="M36 24h1M40 26h1M41 27h1M42 29h1M42 30h1M42 31h1M23 32h2M42 32h1M22 33h1M27 33h1M31 33h1M35 33h1M43 33h1M32 34h2M35 34h1M44 34h2M29 35h1M40 35h1M46 35h2M58 35h1M26 36h1M28 36h1M30 36h1M38 36h2M48 36h1M58 36h1M25 37h1M27 37h1M58 37h1M25 38h1M58 38h1M24 39h1M58 39h1M24 40h1M52 40h1M36 41h1M51 41h1M57 41h1M25 42h1M35 42h1M46 42h2M50 42h1M57 42h1M26 43h2M33 43h2M49 43h1M51 43h1M28 44h5M52 44h1M56 44h1M52 45h1M55 45h1M53 46h1M55 46h1M53 47h2M53 48h1M53 49h1M52 50h1M51 51h1M40 52h7M52 52h1M38 53h2M47 53h1M52 53h1M36 54h2M53 54h1M31 55h4M54 55h1M54 56h1M51 57h3" />
<path stroke="#94ffd6" d="M23 25h3M22 26h5M37 26h3M22 27h6M35 27h6M23 28h6M35 28h1M38 28h2M48 38h2M51 38h1M25 40h1M51 40h1M26 41h2M49 42h1" />
<path stroke="#ffffff" d="M36 29h1M35 30h3M37 31h1M35 32h1M37 32h1M26 33h1M37 33h1M37 34h1M26 37h1M33 39h1M29 40h1M31 40h1" />
<path stroke="#b5b5b5" d="M37 29h1M22 32h1M38 32h1M38 33h1M26 34h1M38 34h1M37 35h1M28 37h1M26 38h1M29 41h1" />
<path stroke="#2973c5" d="M44 30h2M48 30h2M43 31h1M47 31h1M44 32h1M46 32h1M48 32h1M44 33h2M47 33h2M46 34h3M50 34h1M48 35h1M50 35h1M49 36h2M54 36h2M54 37h2M54 38h1" />
<path stroke="#b54a52" d="M35 31h1M36 32h1M36 34h1M36 35h1M29 36h1M29 37h4M27 38h1M31 38h4M26 39h1M29 39h1M34 39h1M27 40h1M32 40h1" />
<path stroke="#ffc552" d="M36 31h1M43 42h1M35 43h2M41 43h2M35 44h2M38 44h4M36 45h2M39 45h2M36 46h2M39 46h1M37 47h2" />
<path stroke="#63adf7" d="M44 31h1M48 31h1M43 32h1M47 32h1M46 33h1" />
<path stroke="#004294" d="M45 31h1M49 31h1M45 32h1M49 32h1M49 33h3M49 34h1M51 34h1M35 35h1M49 35h1M51 35h1M54 35h2M51 36h1M53 36h1M56 36h1M53 37h1M53 38h1" />
<path stroke="#e67b7b" d="M36 33h1M28 38h3M27 39h2M30 39h3M28 40h1M30 40h1" />
<path stroke="#ad8429" d="M41 39h1M40 40h2M38 41h5M36 42h7M37 43h4M37 44h1M35 45h1M38 45h1M38 46h1M39 47h1" />
</svg>