<svg xmlns="http://www.w3.org/2000/svg" viewBox="0 -0.5 80 80" shape-rendering="crispEdges">
<metadata>Made with Pixels to Svg https://codepen.io/shshaw/pen/XbxvNj</metadata>
<path stroke="#6ba519" d="M22 23h7M22 24h1M22 25h1M27 27h2M31 27h1M29 28h1M31 28h1M30 29h1M31 30h1M31 31h2M49 31h6M31 32h2M44 32h5M33 33h2M38 33h1M41 33h3M33 34h1M38 34h3M34 35h1M36 35h2M39 35h2M35 36h2M38 36h2M35 37h1M37 37h1M39 37h1" />
<path stroke="#427310" d="M29 23h1M29 24h1M29 25h1M23 26h1M29 26h3M23 27h1M52 27h2M23 28h1M47 28h1M51 28h1M54 28h1M23 29h5M31 29h3M46 29h1M48 29h1M50 29h1M55 29h1M27 30h1M33 30h1M42 30h1M45 30h1M49 30h1M56 30h1M27 31h4M33 31h1M41 31h1M43 31h2M57 31h1M29 32h2M33 32h3M38 32h1M40 32h1M56 32h1M31 33h2M35 33h1M39 33h1M51 33h1M32 34h1M34 34h2M45 34h2M38 35h1M41 35h1M47 35h1M37 36h1M43 36h1M36 37h1" />
<path stroke="#9cd652" d="M23 24h6M23 25h6M24 26h5M24 27h3M29 27h2M24 28h5M30 28h1M28 29h2M28 30h3M32 30h1" />
<path stroke="#bde65a" d="M52 28h2M47 29h1M51 29h4M46 30h3M50 30h6M42 31h1M45 31h4M55 31h2M41 32h3M49 32h7M40 33h1M44 33h7M52 33h3M41 34h4M47 34h3M53 34h1M43 35h2M48 35h1" />
<path stroke="#086b00" d="M27 32h2M26 33h1M29 33h2M26 34h1M31 34h1M26 35h1M26 36h1M32 36h2M27 37h1M29 37h2M43 37h4M27 38h2M41 38h2M47 38h2M26 39h1M40 39h1M49 39h1M25 40h1M46 40h1M25 41h1M24 42h1M24 43h1M28 43h2M42 43h2M24 44h1M30 44h3M24 45h1M33 45h3M44 45h1M24 46h1M25 47h1M26 48h1M44 48h1M34 50h1M37 51h1M42 51h1M29 52h1M33 52h1M39 52h4M30 53h3M39 53h1M40 54h2" />
<path stroke="#6bc519" d="M27 33h2M27 34h4M27 35h5M27 36h5M28 37h1M31 37h2M34 38h1M36 39h1M29 51h2M30 52h3M40 53h2" />
<path stroke="#000000" d="M37 33h1M55 33h1M36 34h2M50 34h1M52 34h1M54 34h1M32 35h2M35 35h1M42 35h1M45 35h1M49 35h1M53 35h1M34 36h1M40 36h1M44 36h1M48 36h1M34 37h1M38 37h1M40 37h2M36 38h2M39 38h1M47 40h1M49 40h1M44 41h3M48 41h1M43 42h3M48 42h1M44 43h1M47 43h1M46 44h1M45 45h1M45 46h1M45 47h1M26 49h1M29 49h1M44 49h1M26 50h1M29 50h2M42 50h2M27 51h2M31 51h4M39 51h3M43 51h1M34 52h1M37 52h2M43 52h1M35 53h2M42 53h1" />
<path stroke="#52a519" d="M33 37h1M35 38h1M38 38h1M40 38h1M43 38h4M37 39h3M41 39h8M39 40h7M48 40h1M41 41h3M47 41h1M25 42h2M40 42h3M46 42h2M26 43h1M40 43h2M45 43h2M25 44h3M29 44h1M40 44h6M25 45h8M36 45h8M25 46h20M26 47h19M27 48h17M27 49h2M30 49h14M27 50h2M31 50h3M35 50h7M35 51h2M38 51h1M35 52h2" />
<path stroke="#94de29" d="M29 38h5M27 39h9M26 40h2M30 40h9M26 41h2M30 41h11M27 42h9M38 42h2M25 43h1M27 43h1M30 43h6M38 43h2M28 44h1M33 44h7" />
<path stroke="#ffff00" d="M28 40h2M28 41h1M36 42h2M36 43h1" />
<path stroke="#ffc500" d="M29 41h1M37 43h1" />
</svg>