<svg xmlns="http://www.w3.org/2000/svg" viewBox="0 -0.5 80 80" shape-rendering="crispEdges">
<metadata>Made with Pixels to Svg https://codepen.io/shshaw/pen/XbxvNj</metadata>
<path stroke="#84a53a" d="M46 24h5M44 25h2M51 25h1M29 26h5M42 26h2M46 26h3M27 27h2M34 27h2M41 27h1M44 27h2M26 28h1M29 28h4M40 28h1M43 28h1M26 29h1M33 29h1M35 29h1M40 29h1M42 29h1M39 31h1M39 32h2M40 33h1M40 34h1" />
<path stroke="#d6f73a" d="M46 25h5M44 26h2M49 26h2M29 27h5M46 27h5M27 28h2M33 28h2M44 28h6M27 29h6M45 29h4M28 30h6M30 31h3" />
<path stroke="#426310" d="M51 26h1M51 27h1M36 28h1M50 28h1M34 29h1M27 30h1M36 30h2M39 30h1M41 30h1M28 31h2M40 31h1M37 32h2M32 33h1M36 33h1" />
<path stroke="#add629" d="M42 27h2M35 28h1M41 28h2M36 29h1M41 29h1M43 29h2M34 30h2M40 30h1M42 30h5M33 31h6M41 31h3M32 32h5" />
<path stroke="#101010" d="M37 29h1M49 29h1M38 30h1M47 30h2M44 31h3M30 32h2M41 32h3M33 33h3M39 33h1M41 33h1M41 34h1M38 35h1M41 35h1M43 35h1M45 35h1M34 36h1M37 36h2M42 36h1M45 36h1M49 36h1M33 37h2M46 37h1M49 37h1M49 38h1M33 40h1M48 40h1M33 41h1M48 41h1M33 42h1M40 42h3M32 43h3M39 43h2M42 43h2M49 43h1M34 44h1M39 44h1M43 44h1M49 44h1M31 45h1M33 45h2M39 45h2M42 45h2M31 46h3M40 46h3M50 46h1M31 47h1M50 47h1M31 48h1M41 48h1M50 48h1M40 49h1M49 51h1M48 53h1M35 54h1M47 54h1M36 55h2M45 55h2M40 56h4" />
<path stroke="#7b4a29" d="M39 34h1M44 34h2M34 35h3M40 35h1M41 36h1M47 36h2M31 37h2M38 37h1M42 37h1M45 37h1M31 38h1M35 38h1M32 39h1M48 39h1M39 40h1M41 40h1M39 41h4M32 42h1M34 42h1M39 42h1M32 47h2M40 47h4M32 48h1M40 48h1M42 48h2M32 49h2M41 49h3M33 50h1M40 50h5M33 51h1M36 51h1M40 51h4M34 52h1M36 52h2M41 52h2M36 53h3" />
<path stroke="#e6bd31" d="M39 35h1M44 35h1M39 36h2M43 36h2M36 37h2M39 37h2M47 37h2M34 38h1M36 38h3M43 38h1M47 38h2M33 39h3M45 39h1M34 40h1M46 40h1M38 42h1M38 43h1M48 43h1M38 44h1M48 44h1M38 45h1M48 45h1M38 46h1M48 46h1M37 48h1M39 48h1M47 48h1M35 51h1M37 51h1M38 52h3" />
<path stroke="#ffde00" d="M35 36h2M35 37h1M32 38h2M39 38h4M36 39h9M35 40h4M40 40h1M42 40h1M44 40h2M35 41h4M44 41h3M35 42h3M44 42h4M35 43h3M44 43h4M35 44h3M44 44h4M35 45h3M44 45h4M35 46h3M44 46h4M34 47h1M37 47h2M44 47h4M35 48h2M44 48h3M34 49h5M44 49h3M34 50h6M45 50h1M34 51h1M38 51h2" />
<path stroke="#c58c31" d="M41 37h1M43 37h2M44 38h3M46 39h2M43 40h1M47 40h1M34 41h1M43 41h1M47 41h1M43 42h1M49 45h1M39 46h1M43 46h1M49 46h1M35 47h2M39 47h1M48 47h2M38 48h1M48 48h2M47 49h3M46 50h3M45 51h4M35 52h1M46 52h2M35 53h1M39 53h2M40 54h2M41 55h2" />
<path stroke="#633119" d="M48 42h1M50 45h1M31 49h1M39 49h1M50 49h1M32 50h1M49 50h1M32 51h1M44 51h1M33 52h1M43 52h3M48 52h1M34 53h1M41 53h7M36 54h4M42 54h5M38 55h3M43 55h2M38 56h2M44 56h1" />
<path stroke="#73738c" d="M41 43h1M31 44h1M33 44h1M40 44h1M42 44h1M32 45h1M41 45h1M34 46h1" />
<path stroke="#ffffff" d="M32 44h1M41 44h1" />
<path stroke="#5a2921" d="M33 48h2" />
</svg>