<svg xmlns="http://www.w3.org/2000/svg" viewBox="0 -0.5 80 80" shape-rendering="crispEdges">
<metadata>Made with Pixels to Svg https://codepen.io/shshaw/pen/XbxvNj</metadata>
<path stroke="#195294" d="M37 24h3M35 25h2M42 25h1M33 26h2M44 26h1M31 27h2M38 27h4M46 27h1M30 28h1M36 28h1M43 28h1M48 28h1M29 29h1M34 29h1M45 29h1M49 29h1M28 30h1M50 30h1M27 31h1M37 31h4M51 31h1M26 32h1M35 32h2M52 32h1M26 33h1M34 33h1M44 33h1M25 34h1M29 34h1M33 34h1M45 34h1M50 34h1M53 34h1M25 35h1M28 35h1M32 35h1M38 35h2M46 35h1M24 36h1M28 36h1M32 36h1M37 36h1M43 36h1M51 36h1M54 36h1M24 37h1M27 37h1M31 37h1M36 37h1M47 37h1M54 37h1M24 38h1M27 38h1M31 38h1M35 38h1M39 38h1M47 38h1M54 38h1M24 39h1M27 39h1M31 39h1M35 39h1M38 39h1M47 39h1M54 39h1M24 40h1M27 40h1M31 40h1M47 40h1M51 40h1M54 40h1M27 41h1M31 41h1M47 41h1M51 41h1M54 41h1M27 42h1M31 42h1M47 42h1M51 42h1M54 42h1M28 43h1M36 43h1M43 43h1M50 43h1M54 43h1M25 44h1M28 44h1M33 44h1M46 44h1M50 44h1M29 45h1M34 45h1M45 45h1M49 45h1M53 45h1M26 46h1M29 46h1M35 46h1M44 46h1M49 46h1M30 47h1M37 47h6M48 47h1M52 47h1M39 48h2M47 48h1M51 48h1M40 49h1M45 49h2M50 49h1M34 50h1M40 50h1M49 50h1M36 51h1M38 51h1M40 51h2M48 51h1M32 52h1M47 52h1M34 53h1M45 53h1M37 54h6" />
<path stroke="#101010" d="M40 24h3M43 25h2M45 26h2M47 27h2M37 28h6M49 28h1M35 29h2M43 29h2M50 29h1M33 30h2M45 30h2M51 30h1M32 31h1M41 31h2M47 31h1M52 31h1M31 32h1M43 32h2M48 32h1M53 32h1M30 33h1M45 33h1M49 33h1M53 33h1M30 34h1M46 34h1M49 34h1M54 34h1M29 35h1M40 35h2M47 35h1M50 35h1M54 35h1M29 36h1M42 36h1M47 36h1M50 36h1M55 36h1M28 37h1M43 37h1M48 37h1M51 37h1M55 37h1M28 38h1M40 38h1M44 38h1M48 38h1M51 38h1M55 38h1M28 39h1M40 39h2M44 39h1M48 39h1M51 39h1M55 39h1M28 40h1M35 40h1M38 40h2M41 40h1M44 40h1M48 40h1M55 40h1M24 41h1M28 41h1M35 41h1M39 41h2M44 41h1M48 41h1M55 41h1M24 42h1M28 42h1M36 42h1M43 42h1M48 42h1M55 42h1M24 43h1M29 43h1M32 43h1M37 43h1M42 43h1M47 43h1M55 43h1M29 44h1M32 44h1M38 44h4M47 44h1M54 44h1M25 45h1M30 45h1M33 45h1M46 45h1M54 45h1M30 46h1M34 46h1M45 46h1M53 46h1M26 47h1M31 47h1M35 47h2M43 47h2M53 47h1M27 48h1M32 48h1M37 48h2M41 48h2M52 48h1M28 49h1M33 49h2M38 49h1M41 49h1M51 49h1M29 50h1M35 50h2M38 50h1M41 50h1M43 50h2M50 50h1M30 51h1M37 51h1M42 51h1M49 51h1M31 52h1M48 52h1M32 53h2M46 53h2M34 54h3M43 54h3M37 55h6" />
<path stroke="#296bbd" d="M37 25h5M35 26h9M33 27h1M35 27h3M42 27h4M31 28h1M34 28h2M44 28h4M30 29h1M33 29h1M46 29h3M29 30h1M32 30h1M47 30h3M28 31h1M31 31h1M48 31h3M27 32h1M30 32h1M37 32h6M49 32h3M29 33h1M35 33h2M40 33h4M50 33h3M26 34h1M28 34h1M34 34h1M38 34h7M51 34h2M27 35h1M33 35h1M37 35h1M42 35h4M51 35h3M25 36h1M27 36h1M33 36h1M36 36h1M44 36h3M52 36h2M25 37h2M32 37h1M35 37h1M44 37h3M52 37h2M25 38h2M32 38h1M34 38h1M45 38h2M52 38h2M25 39h2M32 39h1M34 39h1M45 39h2M52 39h2M25 40h2M32 40h3M40 40h1M45 40h2M52 40h2M25 41h2M32 41h3M45 41h2M52 41h2M25 42h2M32 42h4M44 42h1M46 42h1M52 42h2M25 43h3M33 43h3M45 43h2M51 43h3M26 44h2M34 44h4M42 44h1M44 44h2M51 44h3M26 45h3M35 45h5M43 45h2M50 45h1M52 45h1M27 46h2M36 46h8M50 46h1M52 46h1M27 47h3M49 47h1M51 47h1M28 48h4M48 48h1M50 48h1M29 49h4M39 49h1M47 49h1M49 49h1M30 50h4M39 50h1M45 50h1M48 50h1M31 51h5M39 51h1M43 51h1M46 51h2M33 52h14M35 53h10" />
<path stroke="#63a5e6" d="M34 27h1M32 28h2M31 29h2M31 30h1M30 31h1M29 32h1M28 33h1M38 33h2M27 34h1M37 34h1M26 35h1M36 35h1M26 36h1M35 36h1M34 37h1M41 38h1M33 39h1M38 41h1M41 41h1M45 42h1M44 43h1M43 44h1M40 45h3M51 45h1M51 46h1M50 47h1M49 48h1M48 49h1M46 50h2M44 51h2" />
<path stroke="#dedede" d="M30 30h1M29 31h1M28 32h1M27 33h1M37 33h1M35 34h2M34 35h2M34 36h1M38 36h1M41 36h1M33 37h1M33 38h1M36 38h1M43 38h1M36 41h1M43 41h1M38 43h1M41 43h1" />
<path stroke="#ffffff" d="M39 36h2M37 37h6M37 38h2M42 38h1M36 39h2M39 39h1M42 39h2M36 40h2M42 40h2M37 41h1M42 41h1M37 42h6M39 43h2" />
</svg>