<svg xmlns="http://www.w3.org/2000/svg" viewBox="0 -0.5 80 80" shape-rendering="crispEdges">
<metadata>Made with Pixels to Svg https://codepen.io/shshaw/pen/XbxvNj</metadata>
<path stroke="#195294" d="M35 24h2M34 25h1M39 25h1M34 26h1M41 26h1M34 27h1M43 27h1M34 28h1M36 28h2M40 28h1M45 28h1M36 29h1M42 29h1M36 30h1M35 31h2M33 32h2M36 32h2M49 32h1M31 33h2M50 33h1M30 34h1M40 34h1M29 35h1M34 35h2M41 35h1M51 35h1M28 36h1M33 36h1M39 36h1M42 36h1M28 37h1M32 37h1M27 38h1M31 38h1M43 38h1M52 38h1M27 39h1M31 39h1M43 39h1M52 39h1M43 40h1M52 40h1M43 41h1M52 41h1M32 43h1M39 43h1M42 43h1M41 44h1M51 44h1M31 45h1M40 45h1M33 46h1M38 46h1M50 46h1M49 47h1M48 48h1M47 49h1M42 50h1M46 50h1M36 51h2M40 51h1M45 51h1M35 52h1M44 52h1M42 53h1M36 54h4" />
<path stroke="#101010" d="M37 24h3M40 25h2M42 26h2M44 27h2M38 28h2M46 28h1M34 29h1M37 29h1M40 29h2M47 29h1M34 30h1M37 30h1M42 30h2M48 30h1M34 31h1M37 31h1M44 31h1M49 31h1M38 32h1M45 32h1M50 32h1M39 33h2M46 33h1M51 33h1M41 34h1M47 34h1M51 34h1M36 35h2M42 35h1M47 35h1M52 35h1M38 36h1M43 36h1M48 36h1M52 36h1M39 37h1M43 37h1M48 37h1M52 37h1M35 38h2M40 38h1M44 38h1M49 38h1M53 38h1M34 39h1M36 39h2M40 39h1M44 39h1M49 39h1M53 39h1M27 40h1M31 40h1M34 40h2M37 40h1M40 40h1M44 40h1M49 40h1M53 40h1M27 41h1M31 41h1M35 41h2M40 41h1M44 41h1M49 41h1M53 41h1M28 42h1M32 42h1M39 42h1M43 42h1M48 42h1M52 42h1M28 43h1M33 43h1M38 43h1M43 43h1M48 43h1M52 43h1M29 44h1M34 44h4M42 44h1M47 44h1M52 44h1M30 45h1M41 45h1M47 45h1M51 45h1M31 46h2M39 46h2M46 46h1M51 46h1M33 47h6M45 47h1M50 47h1M44 48h1M49 48h1M42 49h2M48 49h1M40 50h2M47 50h1M38 51h2M46 51h1M45 52h1M35 53h1M43 53h2M35 54h1M40 54h3M36 55h4" />
<path stroke="#296bbd" d="M35 25h1M37 26h4M36 27h7M41 28h4M35 29h1M43 29h4M35 30h1M44 30h4M45 31h4M35 32h1M46 32h3M33 33h1M37 33h2M47 33h3M31 34h1M35 34h5M49 34h2M30 35h1M33 35h1M38 35h3M48 35h1M50 35h1M29 36h1M32 36h1M40 36h2M50 36h2M31 37h1M40 37h3M49 37h1M51 37h1M28 38h1M30 38h1M41 38h2M51 38h1M28 39h1M30 39h1M41 39h2M51 39h1M28 40h3M36 40h1M41 40h2M51 40h1M28 41h3M41 41h2M51 41h1M29 42h3M40 42h3M49 42h1M51 42h1M29 43h3M40 43h2M50 43h2M30 44h4M38 44h3M48 44h1M50 44h1M32 45h8M49 45h2M34 46h4M48 46h2M46 47h3M45 48h3M44 49h3M43 50h3M41 51h4M36 52h1M41 52h3M38 53h4" />
<path stroke="#dedede" d="M36 25h1M35 26h1M35 27h1M34 33h2M32 34h2M31 35h1M30 36h1M34 36h1M37 36h1M29 37h1M29 38h1M32 38h1M39 38h1M32 41h1M39 41h1M34 43h1M37 43h1M37 52h2M36 53h1" />
<path stroke="#63a5e6" d="M37 25h2M36 26h1M35 28h1M36 33h1M34 34h1M48 34h1M32 35h1M49 35h1M31 36h1M49 36h1M30 37h1M50 37h1M37 38h1M50 38h1M29 39h1M50 39h1M50 40h1M34 41h1M37 41h1M50 41h1M50 42h1M49 43h1M49 44h1M48 45h1M47 46h1M39 52h2M37 53h1" />
<path stroke="#ffffff" d="M35 36h2M33 37h6M33 38h2M38 38h1M32 39h2M35 39h1M38 39h2M32 40h2M38 40h2M33 41h1M38 41h1M33 42h6M35 43h2" />
</svg>