<svg xmlns="http://www.w3.org/2000/svg" viewBox="0 -0.5 80 80" shape-rendering="crispEdges">
<metadata>Made with Pixels to Svg https://codepen.io/shshaw/pen/XbxvNj</metadata>
<path stroke="#526b52" d="M33 31h7M30 32h4M40 32h1M28 33h5M26 34h5M25 35h1M28 35h2M23 38h1M51 44h1M52 45h1M24 46h1M51 46h2M50 49h1M47 50h1" />
<path stroke="#bdd6ad" d="M34 32h6M33 33h8M31 34h8M26 35h1M30 35h7M25 36h1M29 36h6M42 36h2M24 37h2M28 37h6M38 37h7M24 38h1M27 38h16M23 39h2M27 39h12M23 40h2M26 40h11M22 41h14M41 41h5M22 42h1M24 42h22M23 43h4M28 43h14M26 44h2M29 44h10M27 45h2M32 45h6M27 46h14M45 46h1M29 47h10M44 47h1M46 47h1M43 48h1M45 48h1" />
<path stroke="#101010" d="M41 32h2M43 33h2M45 34h1M46 35h1M24 36h1M47 36h1M23 37h1M48 37h1M48 38h1M22 39h1M49 39h1M22 40h1M49 40h1M21 41h1M49 41h1M21 42h1M50 42h1M21 43h1M50 43h1M21 44h1M50 44h1M21 47h1M22 48h4M25 50h2M28 51h3M38 51h1M42 51h1M31 52h2M36 52h2M39 52h2M43 52h2M46 52h2" />
<path stroke="#9cb594" d="M41 33h2M44 36h3M45 37h3M46 40h3M46 41h3M46 45h6M41 46h4M46 46h4M27 47h2M39 47h5M45 47h1M47 47h4M26 48h17M44 48h1M46 48h6M25 49h25M28 50h3M32 50h2M35 50h2M38 50h3M42 50h2M45 50h2M48 50h2M32 51h1M36 51h1M39 51h1M43 51h1M46 51h1" />
<path stroke="#7b9473" d="M39 34h3M27 35h1M37 35h6M26 36h3M35 36h7M26 37h2M34 37h4M25 38h2M43 38h2M25 39h2M39 39h6M25 40h1M37 40h9M36 41h5M23 42h1M27 43h1M42 43h3M22 44h4M39 44h5M21 45h1M26 45h1M31 45h1M38 45h4M22 46h1M26 46h1M26 47h1M31 50h1M34 50h1M37 50h1M41 50h1M44 50h1" />
<path stroke="#314a3a" d="M42 34h3M43 35h3M45 38h3M45 39h4M46 42h4M22 43h1M45 43h5M28 44h1M44 44h6M29 45h2M42 45h4M50 46h1M51 47h1M52 48h1M23 49h2M51 49h2M27 50h1M50 50h1M31 51h1M33 51h3M37 51h1M40 51h2M44 51h2M47 51h4" />
<path stroke="#ffbd84" d="M22 45h3M21 46h1M23 46h1M25 46h1" />
<path stroke="#de8c52" d="M25 45h1M22 47h3" />
<path stroke="#b56329" d="M25 47h1" />
</svg>