<svg xmlns="http://www.w3.org/2000/svg" viewBox="0 -0.5 80 80" shape-rendering="crispEdges">
<metadata>Made with Pixels to Svg https://codepen.io/shshaw/pen/XbxvNj</metadata>
<path stroke="#8c3a08" d="M34 15h2M41 15h2M31 16h1M45 16h1M50 16h2M30 17h1M29 18h1M31 18h1M35 18h3M42 18h1M47 18h5M30 19h1M45 19h9M44 20h4M54 20h1M58 20h1M31 21h6M43 21h3M57 21h3M24 22h1M37 22h1M42 22h3M59 22h1M23 23h1M43 23h1M61 23h1M45 24h3M62 24h1M22 25h1M48 25h4M23 26h5M34 26h1M52 26h5M63 26h1M22 27h1M57 27h2M62 27h1M21 28h1M43 28h1M38 29h5M46 29h1M20 30h1M23 30h7M36 30h2M19 31h1M35 31h1M33 32h2M18 33h1M33 33h1M32 34h1M34 34h1M20 35h2M27 35h1M19 36h1M31 36h1M30 39h1M27 41h1M20 42h7M17 43h1M17 44h1M17 45h1M44 45h2M18 46h1M30 46h1M43 46h1M19 47h4M42 47h1M68 48h1M31 49h1M41 49h1M68 49h1M21 50h1M32 50h1M69 50h1M65 51h1M69 51h1M22 52h4M64 52h1M69 52h1M61 53h2M64 53h1M33 54h4M64 54h1M32 55h3M57 55h1M58 56h1" />
<path stroke="#ad5a21" d="M36 15h5M32 16h2M40 17h7M53 17h1M32 18h3M43 18h2M55 18h1M29 19h1M40 19h3M54 19h4M28 20h1M42 20h2M55 20h3M26 21h5M41 21h2M25 22h1M39 22h3M37 23h2M40 23h3M36 24h3M40 24h5M61 24h1M19 25h3M31 25h7M39 25h4M46 25h2M62 25h1M17 26h2M35 26h2M38 26h3M62 26h1M12 27h1M20 27h1M23 27h12M37 27h3M63 27h1M10 28h1M18 28h3M33 28h5M58 28h4M9 29h1M13 29h1M32 29h4M47 29h4M57 29h9M8 30h1M10 30h1M21 30h2M31 30h4M50 30h18M8 31h1M31 31h3M64 31h5M19 32h1M29 32h2M32 32h1M67 32h2M29 33h2M32 33h1M25 34h5M31 34h1M28 35h2M31 35h1M20 36h8M30 36h1M18 37h1M27 37h4M18 38h1M27 38h4M27 39h3M27 40h3M26 41h1M29 41h1M29 42h1M27 43h1M29 43h1M26 44h2M29 44h1M26 45h2M29 45h1M24 46h3M29 46h1M27 47h4M45 47h1M21 48h10M44 48h2M49 48h3M53 48h1M28 49h3M51 49h3M29 50h3M52 50h2M68 50h1M22 51h8M32 51h1M53 51h1M67 51h2M31 52h1M33 52h1M65 52h4M30 53h2M33 53h4M60 53h1M65 53h4M24 54h8M58 54h4M65 54h3M58 55h4" />
<path stroke="#101010" d="M43 15h2M46 16h1M48 16h2M52 16h2M47 17h1M54 17h2M38 18h4M45 18h2M56 18h2M43 19h2M58 19h1M48 20h6M59 20h1M46 21h2M54 21h3M60 21h1M38 22h1M45 22h1M57 22h2M60 22h1M39 23h1M44 23h2M59 23h2M22 24h1M39 24h1M60 24h1M38 25h1M61 25h1M63 25h1M21 26h1M28 26h6M37 26h1M61 26h1M21 27h1M35 27h2M59 27h3M64 27h1M38 28h5M62 28h4M14 29h7M36 29h2M43 29h3M66 29h2M11 30h2M35 30h1M38 30h12M68 30h1M9 31h1M30 31h1M34 31h1M36 31h3M50 31h14M69 31h1M31 32h1M35 32h1M59 32h2M64 32h3M69 32h1M31 33h1M34 33h1M55 33h3M65 33h1M67 33h3M18 34h1M30 34h1M33 34h1M36 34h1M65 34h1M18 35h1M22 35h5M30 35h1M32 35h1M36 35h1M28 36h2M32 36h1M66 36h1M31 37h1M66 37h1M31 38h1M66 38h1M18 39h1M31 39h1M36 39h1M66 39h1M18 40h1M30 40h1M33 40h1M18 41h1M28 41h1M30 41h1M33 41h1M42 41h1M12 42h1M18 42h2M28 42h1M30 42h3M42 42h1M67 42h1M13 43h1M28 43h1M30 43h1M34 43h1M67 43h1M14 44h1M28 44h1M30 44h1M35 44h1M41 44h1M67 44h1M16 45h1M28 45h1M30 45h1M37 45h1M39 45h2M49 45h3M27 46h2M31 46h1M46 46h1M48 46h1M52 46h1M23 47h4M31 47h1M46 47h1M48 47h1M53 47h1M68 47h1M20 48h1M31 48h1M38 48h1M46 48h1M48 48h1M54 48h1M67 48h1M69 48h1M20 49h1M32 49h1M37 49h1M44 49h2M49 49h2M54 49h1M67 49h1M69 49h1M33 50h2M38 50h2M41 50h1M43 50h1M51 50h1M54 50h1M67 50h1M70 50h1M21 51h1M30 51h2M33 51h1M41 51h2M52 51h1M54 51h1M66 51h1M70 51h1M26 52h4M32 52h1M34 52h3M42 52h1M53 52h1M60 52h1M70 52h1M22 53h1M32 53h1M37 53h1M42 53h1M53 53h1M58 53h2M69 53h1M23 54h1M32 54h1M37 54h1M41 54h1M53 54h5M62 54h1M68 54h2M24 55h8M35 55h2M40 55h1M54 55h1M62 55h1M65 55h3M69 55h1M30 56h5M41 56h2M52 56h2M59 56h3M69 56h2M24 57h1M29 57h1M43 57h2M51 57h2M59 57h1M64 57h2M68 57h1M71 57h1M23 58h1M29 58h1M45 58h6M66 58h2M71 58h1M20 59h2M27 59h2M68 59h3M22 60h5M60 60h2M66 60h1M63 61h3" />
<path stroke="#ce8431" d="M34 16h1M42 16h3M31 17h9M48 17h5M30 18h1M52 18h3M34 19h6M32 20h10M37 21h4M33 22h4M32 23h5M29 24h7M23 25h8M43 25h3M15 26h2M20 26h1M22 26h1M41 26h2M50 26h2M13 27h2M18 27h2M40 27h4M53 27h4M11 28h1M16 28h2M25 28h8M44 28h4M54 28h4M12 29h1M24 29h8M51 29h6M30 30h1M28 31h2M26 32h3M24 33h5M20 34h5M19 35h1M19 37h1M21 37h6M21 38h6M21 39h6M21 40h6M21 41h5M17 42h1M27 42h1M26 43h1M24 44h2M21 45h5M21 46h3M44 46h2M44 47h1M51 47h2M52 48h1M21 49h7M43 49h1M22 50h7M30 52h1M23 53h7" />
<path stroke="#f7ad4a" d="M35 16h7M31 19h3M29 20h3M26 22h7M24 23h8M23 24h6M19 26h1M43 26h7M15 27h3M44 27h9M12 28h4M22 28h3M48 28h6M10 29h2M21 29h3M9 30h1M20 31h8M20 32h6M19 33h5M19 34h1M20 37h1M19 38h2M19 39h2M19 40h2M19 41h2M18 43h8M18 44h6M18 45h3M19 46h2M49 46h3M43 47h1M49 47h2M42 48h2M42 49h1M42 50h1" />
<path stroke="#a5ad73" d="M48 21h5M47 22h10M46 23h3M57 23h2M48 24h1M59 24h1M60 25h1M40 31h7M36 32h1M40 32h2M46 32h3M62 32h2M35 33h1M40 33h1M49 33h2M62 33h3M39 34h1M63 34h2M38 35h1M63 35h2M36 36h1M64 36h2M32 37h4M43 37h1M64 37h2M32 38h2M36 38h1M42 38h2M64 38h2M32 39h1M42 39h1M44 39h1M64 39h2M31 40h2M44 40h1M64 40h2M17 41h1M31 41h2M43 41h3M63 41h3M43 42h4M63 42h4M14 43h1M35 43h1M43 43h4M49 43h2M63 43h4M16 44h1M42 44h3M62 44h5M41 45h3M54 45h3M61 45h6M38 46h5M53 46h14M38 47h1M40 47h2M55 47h12M32 48h1M37 48h1M39 48h2M55 48h12M36 49h1M38 49h3M46 49h1M48 49h1M55 49h7M63 49h4M44 50h2M49 50h2M55 50h1M57 50h5M63 50h3M43 51h1M49 51h3M56 51h5M62 51h3M48 52h5M55 52h5M61 52h3M44 53h3M49 53h1M54 53h4M63 53h1M22 54h1M43 54h1M63 54h1M23 55h1M43 55h1M63 55h2M68 55h1M21 56h1M24 56h1M49 56h3M62 56h7M20 57h1M48 57h3M60 57h3M66 57h2M69 57h1M20 58h1M24 58h1M61 58h1M23 59h3" />
<path stroke="#5a5a5a" d="M53 21h1M46 22h1M39 31h1M39 32h1M33 35h1M65 35h1M33 36h3M34 38h2M37 38h3M15 39h1M33 39h1M43 39h1M11 40h1M16 40h2M37 40h1M66 40h1M12 41h1M66 41h1M34 42h1M42 43h1M47 43h2M15 44h1M36 44h1M45 44h2M38 45h1M67 45h1M67 46h1M39 47h1M54 47h1M67 47h1M41 48h1M62 49h1M35 50h2M40 50h1M56 50h1M62 50h1M39 51h1M55 51h1M61 51h1M39 52h1M54 52h1M21 53h1M40 53h1M47 53h2M50 53h3M21 54h1M49 54h1M20 55h1M49 55h3M19 56h2M22 56h2M25 56h2M43 56h2M48 56h1M18 57h1M27 57h1M45 57h3M63 57h1M19 58h1M25 58h1M28 58h1M59 58h2M62 58h1M22 59h1M26 59h1M58 59h1M61 59h1M67 59h1M59 60h1M62 60h1" />
<path stroke="#cede94" d="M49 23h8M49 24h10M52 25h8M57 26h4M42 32h4M41 33h8M59 33h3M40 34h23M39 35h24M37 36h27M36 37h7M44 37h20M41 38h1M44 38h20M45 39h19M45 40h19M46 41h17M47 42h16M51 43h12M47 44h15M46 45h3M52 45h2M57 45h4M37 46h1M47 46h1M37 47h1M47 47h1M36 48h1M47 48h1M33 49h3M47 49h1M46 50h3M44 51h5M43 52h5M43 53h1M21 55h2" />
<path stroke="#943a29" d="M13 30h3M16 31h3M47 31h3M49 32h2M56 32h3M51 33h4M33 42h1M31 43h3M31 44h2M31 45h1M36 45h1M36 46h1M32 47h1M36 47h1M33 48h3" />
<path stroke="#c57b5a" d="M16 30h4M51 32h5M33 44h2M32 45h4M32 46h4M33 47h3" />
<path stroke="#dedede" d="M37 32h2M38 33h1M38 34h1M34 35h2M39 39h1M40 40h1M16 41h1M40 41h1M13 42h1M16 42h1M39 42h2M15 43h2M37 43h3M47 54h1M50 54h3M47 55h1M45 56h2M23 57h1M21 58h2M27 58h1M63 58h2M59 59h1M62 59h2" />
<path stroke="#7b8c52" d="M61 32h1M39 33h1M58 33h1M37 35h1M12 37h1M11 38h1M13 38h1M40 38h1M11 39h1M14 39h1M41 39h1M42 40h2M66 50h1M40 51h1M40 52h2M41 53h1M27 56h3M28 57h1" />
<path stroke="#ffffff" d="M36 33h2M35 34h1M37 34h1M12 38h1M12 39h2M34 39h1M37 39h2M12 40h4M34 40h3M39 40h1M13 41h3M35 41h5M14 42h2M36 42h3M42 54h1M44 54h3M41 55h1M44 55h3M19 57h1M21 57h2M25 57h2" />
<path stroke="#bdbdbd" d="M35 39h1M40 39h1M38 40h1M41 40h1M34 41h1M41 41h1M35 42h1M41 42h1M36 43h1M40 43h2M37 44h4M48 54h1M42 55h1M48 55h1M52 55h2M47 56h1M70 57h1M26 58h1M65 58h1M68 58h3M60 59h1M64 59h3M63 60h3" />
</svg>