<svg xmlns="http://www.w3.org/2000/svg" viewBox="0 -0.5 80 80" shape-rendering="crispEdges">
<metadata>Made with Pixels to Svg https://codepen.io/shshaw/pen/XbxvNj</metadata>
<path stroke="#a552c5" d="M35 21h4M33 22h1M36 22h1M32 23h1M34 23h1M37 23h1M32 24h1M34 24h1M37 24h1M40 24h1M31 25h1M34 25h1M37 25h1M31 26h1M34 26h1M37 26h1M31 27h1M34 27h1M37 27h1M31 28h1M35 28h1M38 28h1M31 29h1M35 29h1M38 29h1M35 30h1M38 30h1M32 31h1M35 31h1M38 31h1M32 32h1M35 32h1M38 32h1M32 33h1M35 33h1M38 33h1M35 34h1M38 34h1M31 35h1M36 35h1M39 35h1M29 36h2M33 36h1M36 36h1M43 36h1M28 37h1M33 37h1M27 38h1M45 38h1M27 39h1M26 40h1M31 43h1M38 43h1M31 44h1M36 44h1M29 45h1M31 45h1M36 45h1M32 46h1M34 46h1M38 46h1M29 48h2M32 49h7M46 50h2M43 51h1M46 51h3M42 52h7M40 53h9M33 54h2M42 54h1M44 54h1M46 54h3M33 55h2M36 55h1M44 55h1M46 55h2M35 56h1M45 56h1M47 56h1M33 57h1M41 57h1M34 58h1" />
<path stroke="#ce84f7" d="M34 22h1M38 22h1M35 23h2M38 23h2M35 24h2M38 24h2M33 25h1M35 25h2M38 25h3M33 26h1M35 26h2M38 26h3M33 27h1M35 27h2M38 27h3M33 28h2M36 28h2M39 28h2M33 29h2M36 29h2M39 29h2M33 30h2M36 30h2M39 30h2M33 31h2M36 31h2M39 31h2M33 32h2M36 32h2M39 32h1M33 33h2M36 33h2M39 33h1M33 34h2M36 34h2M39 34h1M33 35h3M37 35h2M34 36h2M37 36h5M34 37h10M33 38h1M35 38h10M35 39h10M35 40h11M34 41h10M27 42h1M29 42h1M31 42h1M34 42h9M33 43h4M39 43h3M28 44h1M32 44h4M39 44h2M28 45h1M32 45h4M39 45h2M29 46h3M33 46h1M35 46h2M39 46h1M29 47h11M31 48h9M31 49h1M39 49h1M40 54h2M39 55h1M34 56h1M40 56h1M42 56h1M34 57h2M39 57h1" />
<path stroke="#f7adff" d="M35 22h1M37 22h1M33 23h1M33 24h1M32 25h1M32 26h1M32 27h1M32 28h1M32 29h1M32 30h1M31 36h2M29 37h4M28 38h5M34 38h1M28 39h7M27 40h8M27 41h7M28 42h1M32 42h2M28 43h1M32 43h1M40 55h3M39 56h1M41 56h1M40 57h1M33 58h1M35 58h1" />
<path stroke="#7b31a5" d="M39 22h1M40 23h1M41 25h1M31 30h1M41 30h1M41 31h1M40 32h1M32 34h1M32 35h1M40 35h2M42 36h1M44 37h1M46 40h1M26 41h1M48 42h1M30 44h1M37 45h1M41 51h2M49 51h1M30 52h2M32 53h5M32 54h1M39 54h1M43 54h1M45 54h1M32 55h1M35 55h1M38 55h1M43 55h1M33 56h1M36 56h1M46 56h1M32 57h1M36 57h1M32 58h1M36 58h1M33 59h2" />
<path stroke="#101010" d="M41 26h1M41 27h1M41 28h1M41 29h1M40 33h1M40 34h1M45 39h1M57 39h1M57 40h1M46 41h1M57 41h1M30 42h1M47 42h1M57 42h1M29 43h1M37 43h1M57 43h1M22 44h1M29 44h1M38 44h1M23 45h1M30 45h1M38 45h1M49 45h1M56 45h1M37 46h1M48 46h1M56 46h1M55 48h1M50 49h1M27 50h1M48 50h1M54 50h1M28 51h2M53 51h1M40 52h2M49 52h1M52 52h1M37 53h3M49 53h3M49 54h1M45 55h1M48 55h1M37 56h2M43 56h2M48 56h1M38 57h1M42 57h1M45 57h3M39 58h3M35 59h1" />
<path stroke="#ffbd4a" d="M53 34h3M52 35h1M56 35h1M51 36h1M57 36h1M50 37h1M50 38h1M49 39h1M56 39h1M49 40h1M56 44h1M49 46h1" />
<path stroke="#fff7ce" d="M53 35h3M52 36h5M51 37h6M51 38h6M50 39h5M50 40h3M55 40h2M49 41h3M53 41h3M49 42h2M52 42h3M51 43h2M29 49h2M29 50h9M31 51h7M33 52h4" />
<path stroke="#de9429" d="M57 37h1M57 38h1M55 39h1M53 40h2M48 41h1M55 46h1M53 47h3M51 48h2M54 49h1" />
<path stroke="#d67329" d="M44 41h1M21 42h4M26 42h1M43 42h1M27 43h1M47 43h4M25 44h1M27 44h1M41 44h1M46 44h1M22 46h1M28 46h1M40 46h1M21 47h1M26 47h1M28 47h1M40 47h1M48 47h1M21 48h1M26 48h1M27 49h1M46 49h1M24 50h1M41 50h1M45 51h1" />
<path stroke="#ef9442" d="M45 41h1M46 42h1M26 43h1M42 43h1M45 44h1M47 44h1M25 45h1M41 45h1M25 46h1M41 46h1M47 46h1M41 47h1M24 48h2M27 48h2M41 48h2M25 49h2M28 49h1M41 49h2M25 50h1M28 50h1M42 50h1" />
<path stroke="#ffde73" d="M52 41h1M56 41h1M51 42h1M55 42h2M53 43h4M51 44h5M50 45h6M50 46h5M50 47h3M53 48h2M51 49h3M38 50h3M49 50h5M30 51h1M38 51h3M50 51h3M32 52h1M37 52h3M50 52h2M35 54h4M37 55h1" />
<path stroke="#8c735a" d="M25 42h1M21 43h1M25 43h1M50 44h1M49 47h1M22 48h2M40 48h1M50 48h1M24 49h1M40 49h1M47 49h3M26 50h1M43 50h1M24 51h2M44 51h1" />
<path stroke="#ffb552" d="M44 42h2M22 43h3M43 43h4M23 44h2M26 44h1M42 44h3M48 44h2M24 45h1M26 45h2M42 45h7M23 46h2M26 46h2M42 46h5M22 47h4M27 47h1M42 47h6M43 48h7M43 49h3M44 50h2" />
<path stroke="#ffffff" d="M30 43h1M37 44h1" />
</svg>