<svg xmlns="http://www.w3.org/2000/svg" viewBox="0 -0.5 80 80" shape-rendering="crispEdges">
<metadata>Made with Pixels to Svg https://codepen.io/shshaw/pen/XbxvNj</metadata>
<path stroke="#7b5a3a" d="M32 16h3M32 17h1M35 17h2M45 17h4M32 18h1M43 18h2M32 19h1M39 19h2M42 19h1M33 20h1M37 20h1M41 20h1M47 20h1M36 21h1M41 21h1M36 22h1M40 22h1M40 23h1M44 23h1M34 24h2M41 24h1M45 24h2M32 25h2M38 25h1M47 25h1M31 26h1M48 26h1M30 27h1M49 27h1M29 28h1M28 29h1M33 29h1M42 29h1M28 30h1M34 30h1M40 30h1M27 31h1M34 31h1M40 31h1M35 32h1M39 32h1M35 33h1M39 33h1M33 35h1M43 35h1M34 36h1M42 36h1M35 37h6M27 38h1M51 38h1M25 39h1M31 39h1M53 39h1M34 40h1M45 40h1M21 42h1M20 43h1M28 43h1M52 43h1M27 44h1M53 44h1M46 45h1M53 45h1M26 46h1M46 48h1M54 48h1M51 56h1M39 57h2M48 57h2M29 58h1M36 58h1M46 58h2M28 59h1M31 59h2M27 60h1M51 60h1M26 61h1M29 61h1M48 61h1M52 61h1M28 62h1M28 63h1" />
<path stroke="#ffef7b" d="M33 17h2M33 18h4M45 18h3M33 19h5M43 19h3M34 20h2M40 20h1M42 20h3M34 21h1M37 21h4M42 21h1M37 22h2M41 22h1M37 25h1M41 25h5M38 26h10M38 27h11M30 28h1M37 28h6M44 28h6M30 29h1M36 29h5M43 29h7M29 30h5M35 30h5M42 30h8M28 31h6M35 31h5M41 31h9M30 32h5M36 32h3M40 32h9M31 33h4M36 33h3M40 33h7M28 34h1M31 34h2M34 34h1M36 34h3M40 34h3M44 34h2M28 35h2M32 35h1M34 35h9M44 35h1M29 36h1M32 36h2M35 36h6M43 36h2M32 37h3M42 37h3M33 38h10M26 39h4M25 40h6M23 41h9M22 42h11M24 43h4M29 43h6M25 44h2M28 44h8M28 45h8M27 46h10M27 47h10M28 48h10M28 49h11M28 50h13M28 51h17M28 52h17M28 53h15M29 54h12" />
<path stroke="#101010" d="M37 18h1M48 18h1M38 19h1M48 19h1M33 21h1M47 21h1M34 22h1M46 22h1M35 23h2M45 23h1M37 24h1M42 24h2M39 25h2M50 28h1M51 29h1M51 30h1M52 31h1M52 32h1M52 33h1M52 34h1M52 35h1M51 36h1M28 37h1M51 37h1M26 38h1M29 38h1M50 38h1M52 38h1M24 39h1M30 39h1M48 39h2M54 39h1M23 40h1M32 40h2M46 40h2M55 40h1M22 41h1M35 41h9M56 41h1M57 42h1M58 43h1M59 44h1M25 46h1M54 46h1M60 46h1M54 47h1M27 48h1M61 48h1M27 49h1M55 49h1M61 49h1M27 50h1M55 50h1M61 50h1M27 51h1M55 51h1M61 51h1M18 52h1M27 52h1M55 52h1M60 52h1M19 53h1M26 53h1M54 53h6M20 54h6M54 54h1M24 55h1M53 55h1M25 56h1M52 56h1M26 57h2M41 57h3M50 57h2M28 58h1M37 58h2M44 58h2M52 58h1M33 59h3M45 59h1M53 59h1M35 60h1M46 60h1M53 60h1M34 61h1M47 61h1M53 61h1M26 62h1M32 62h2M49 62h4M27 63h1M29 63h3" />
<path stroke="#f7c56b" d="M46 19h1M43 21h1M39 22h1M42 22h1M37 23h2M45 35h1M48 35h2M47 36h3M47 37h2M43 38h1M27 53h1M43 53h1M28 54h1M41 54h1M32 55h6M49 59h2M28 60h2M27 61h2M30 61h2" />
<path stroke="#dea563" d="M47 19h1M36 20h1M45 20h2M35 21h1M44 21h3M35 22h1M43 22h3M39 23h1M41 23h3M36 24h1M38 24h3M44 24h1M46 25h1M32 26h1M32 28h1M43 28h1M29 29h1M41 29h1M50 29h1M41 30h1M50 30h1M50 31h2M29 32h1M49 32h3M30 33h1M50 33h2M33 34h1M35 34h1M39 34h1M43 34h1M51 34h1M51 35h1M41 36h1M41 37h1M28 38h1M31 38h2M44 38h2M32 39h16M51 39h2M24 40h1M35 40h10M51 40h4M50 41h6M49 42h8M23 43h1M47 43h5M53 43h3M47 44h6M54 44h1M26 45h2M36 45h1M47 45h6M47 46h7M47 47h7M47 48h7M46 49h9M45 50h10M45 51h10M45 52h10M44 53h10M26 54h2M42 54h12M25 55h7M38 55h15M26 56h25M28 57h11M44 57h4M30 58h6M48 58h4M29 59h2M46 59h3M51 59h2M30 60h5M47 60h4M52 60h1M32 61h2M49 61h3M27 62h1M29 62h3" />
<path stroke="#ffff9c" d="M38 20h2M34 25h3M33 26h5M31 27h7M31 28h1M33 28h4M31 29h2M34 29h2" />
<path stroke="#9c5242" d="M27 32h1M27 33h1M27 34h1M27 35h1M28 36h1M50 37h1M49 38h1" />
<path stroke="#ff5a4a" d="M28 32h1M29 33h1M47 33h2M29 34h2M46 34h2M30 35h2M46 35h1M31 36h1M45 36h1M45 37h1M20 45h3M20 46h2M19 47h4M19 48h5M19 49h5M20 50h3" />
<path stroke="#de4a3a" d="M28 33h1M49 33h1M48 34h3M47 35h1M50 35h1M30 36h1M46 36h1M50 36h1M29 37h3M46 37h1M49 37h1M30 38h1M46 38h3" />
<path stroke="#a5313a" d="M50 39h1M31 40h1M48 40h3M32 41h3M44 41h6M33 42h16M21 43h2M35 43h11M56 43h2M23 44h2M37 44h9M55 44h4M24 45h2M38 45h8M54 45h5M22 46h2M39 46h8M55 46h1M58 46h2M24 47h2M41 47h6M58 47h2M25 48h2M43 48h3M55 48h1M59 48h2M25 49h2M44 49h2M58 49h3M25 50h2M56 50h5M19 51h1M24 51h3M56 51h4M19 52h8M56 52h3M21 53h4" />
<path stroke="#bd945a" d="M46 43h1M46 44h1" />
<path stroke="#84103a" d="M20 44h1M19 45h1M59 45h1M19 46h1M24 46h1M56 46h2M18 47h1M26 47h1M55 47h1M60 47h1M18 48h1M18 49h1M18 50h1M18 51h1M60 51h1M59 52h1M20 53h1M25 53h1" />
<path stroke="#de4231" d="M21 44h2M36 44h1M23 45h1M37 45h1M37 46h2M23 47h1M37 47h4M56 47h2M24 48h1M38 48h5M56 48h3M24 49h1M39 49h5M56 49h2M19 50h1M23 50h2M41 50h4M20 51h4" />
</svg>