<svg xmlns="http://www.w3.org/2000/svg" viewBox="0 -0.5 80 80" shape-rendering="crispEdges">
<metadata>Made with Pixels to Svg https://codepen.io/shshaw/pen/XbxvNj</metadata>
<path stroke="#bd6310" d="M27 18h4M48 18h4M26 19h1M31 19h2M47 19h1M52 19h2M25 20h1M33 20h1M54 20h1M25 21h1M54 21h1M26 22h4M49 22h2M54 22h1M30 23h2M41 23h1M48 23h1M51 23h3M24 24h4M32 24h1M37 24h1M41 24h1M46 24h2M22 25h2M33 25h1M37 25h1M40 25h1M45 25h1M53 25h1M21 26h1M31 26h1M38 26h1M40 26h1M54 26h2M21 27h1M38 27h1M40 27h1M44 27h1M56 27h2M21 28h1M24 28h3M33 28h1M35 28h1M43 28h1M45 28h1M58 28h1M22 29h2M27 29h2M59 29h1M29 30h1M45 30h1M50 30h4M59 30h1M27 31h2M47 31h3M54 31h2M59 31h1M22 32h1M29 32h1M56 32h3M20 33h2M30 33h1M45 33h1M19 34h1M30 34h1M52 34h1M18 35h1M26 35h3M30 35h1M53 35h1M18 36h1M24 36h2M43 36h3M54 36h1M18 37h1M22 37h2M33 37h1M42 37h1M46 37h3M55 37h1M19 38h3M25 38h1M35 38h1M38 38h1M49 38h2M55 38h1M24 39h1M31 39h2M45 39h1M51 39h1M56 39h1M23 40h1M30 40h1M40 40h1M46 40h1M56 40h1M23 41h1M29 41h1M41 41h1M46 41h1M52 41h1M55 41h1M22 42h1M28 42h1M41 42h1M47 42h1M53 42h2M22 43h1M28 43h1M42 43h1M47 43h1M22 44h1M27 44h1M42 44h1M47 44h1M23 45h1M27 45h1M42 45h1M47 45h1M24 46h3M43 46h4" />
<path stroke="#ffd68c" d="M27 19h1M45 20h3M44 21h5M43 22h6M43 23h5M44 24h2M28 25h1M22 26h1M27 26h3M49 26h4M27 27h4M47 27h7M29 28h2M47 28h7M48 29h2M24 32h2M23 33h4M23 34h5M46 34h5M24 35h2M45 35h7M19 36h1M48 36h4M26 38h2M26 39h2M41 39h4M41 40h5M42 41h2M23 44h1" />
<path stroke="#ffad6b" d="M28 19h2M33 21h1M31 22h4M32 23h4M42 23h1M33 24h4M42 24h2M29 25h1M34 25h3M41 25h4M23 26h1M30 26h1M35 26h3M41 26h4M31 27h1M36 27h2M41 27h3M27 28h2M31 28h2M46 28h1M29 29h4M45 29h3M50 29h3M30 30h2M46 30h4M31 31h1M46 31h1M26 32h3M27 33h3M46 33h3M28 34h2M44 34h2M19 35h1M29 35h1M43 35h2M42 36h1M46 36h2M28 37h5M40 37h2M49 37h2M28 38h7M39 38h5M28 39h3M40 39h1M27 40h3M28 41h1M45 45h1" />
<path stroke="#ef7b3a" d="M30 19h1M45 19h2M48 19h4M26 20h7M44 20h1M48 20h6M26 21h7M34 21h1M43 21h1M49 21h5M30 22h1M35 22h1M42 22h1M51 22h3M36 23h1M28 24h1M24 25h4M30 25h1M49 25h4M24 26h3M34 26h1M47 26h2M53 26h1M22 27h5M35 27h1M46 27h1M54 27h2M22 28h2M54 28h4M33 29h1M53 29h6M28 30h1M32 30h1M54 30h5M24 31h3M30 31h1M56 31h3M23 32h1M30 32h1M22 33h1M49 33h2M20 34h3M51 34h1M20 35h4M52 35h1M20 36h4M28 36h3M52 36h2M19 37h3M26 37h2M39 37h1M51 37h4M51 38h4M25 39h1M52 39h4M24 40h3M52 40h4M24 41h4M44 41h2M53 41h2M23 42h5M42 42h5M23 43h5M43 43h4M24 44h3M43 44h4M24 45h3M43 45h2M46 45h1" />
<path stroke="#198452" d="M38 25h2M47 25h1M33 26h1M32 27h1M42 28h1M36 29h3M44 29h1M34 30h5M35 31h3M51 32h1M51 33h1M53 33h1M31 36h1M43 37h1M48 38h1M35 39h5M47 39h1M30 41h2M31 42h2M31 43h1M33 43h9M31 44h1M32 45h1M52 45h1M32 46h1M33 47h1M34 48h1M49 48h1M35 49h1M48 49h1M37 50h3M46 50h1M51 50h1M40 51h6M49 52h1M52 52h1M56 52h2M49 53h1M55 53h1M58 53h1M48 54h1M53 54h1M58 54h1M45 55h2M48 55h1M54 55h1M44 56h1M46 57h1M44 58h2M58 58h1M43 59h1M57 59h2M42 60h1M47 60h2M42 61h1M46 61h1M52 61h1M54 62h1" />
<path stroke="#4ab594" d="M46 25h1M39 26h1M45 26h2M33 27h2M39 27h1M45 27h1M34 28h1M44 28h1M29 31h1M50 31h2M47 32h4M52 32h1M52 33h1M53 34h1M27 36h1M44 37h2M45 38h3M33 39h2M46 39h1M48 39h3M31 40h9M47 40h5M32 41h9M50 41h2M33 42h8M51 42h2M32 43h1M48 43h1M51 43h2M32 44h1M37 44h5M49 44h1M52 44h1M49 45h1M49 46h1M49 47h1M47 48h2M36 49h2M49 49h1M40 50h6M50 50h1M49 51h2M51 52h1M56 53h2M52 54h1M54 54h2M52 55h2M55 55h3M45 56h3M53 56h6M45 57h1M54 57h6M54 58h4M59 58h2M53 59h3M59 59h2M49 60h6M57 60h1M45 61h1M53 61h3M58 61h1M55 62h4" />
<path stroke="#101010" d="M36 28h6M34 29h2M39 29h5M33 30h1M39 30h6M32 31h3M38 31h2M42 31h4M52 31h1M31 32h2M35 32h4M43 32h4M53 32h1M31 33h1M36 33h3M43 33h2M31 34h1M36 34h4M42 34h2M54 34h1M31 35h2M35 35h8M54 35h1M32 36h10M34 37h5M36 38h2M53 43h1M53 44h1M52 46h1M51 47h1M50 48h1M51 49h1M47 50h1M48 51h1M52 51h1M53 53h2M56 54h2M47 55h1M58 55h1M59 56h1M44 57h1M60 57h1M61 58h1M56 59h1M61 59h1M58 60h3M47 61h5M59 61h1M43 62h3M53 62h1M59 62h1M55 63h4" />
<path stroke="#e6ad00" d="M40 31h2M33 32h2M39 32h1M42 32h1M32 33h1M35 33h1M39 33h1M42 33h1M32 34h1M35 34h1M40 34h2M33 35h2M49 41h1M50 42h1M49 43h1M33 44h4M48 44h1M51 44h1M37 45h1M51 45h1M34 46h2M38 46h1M51 46h1M34 47h1M36 47h1M39 47h1M50 47h1M39 48h1M44 48h1M39 49h1M45 49h1M47 49h1M50 49h1M49 50h1M51 51h1M52 53h1" />
<path stroke="#ffde29" d="M40 32h2M33 33h2M40 33h2M33 34h2M47 41h2M48 42h2M50 43h1M50 44h1M33 45h1M36 45h1M48 45h1M50 45h1M37 46h1M47 46h2M50 46h1M35 47h1M38 47h1M44 47h2M47 47h2M35 48h2M38 48h1M45 48h1M38 49h1M46 49h1M48 50h1M50 52h1" />
<path stroke="#7bdead" d="M44 38h1M34 45h2M38 45h4M33 46h1M36 46h1M39 46h4M37 47h1M40 47h4M46 47h1M37 48h1M40 48h4M46 48h1M40 49h5M50 53h2M49 54h1M49 55h3M51 56h2M52 57h2M46 58h2M51 58h3M46 59h7M45 60h2M55 60h2M43 61h2M56 61h2" />
<path stroke="#fff77b" d="M50 54h2" />
<path stroke="#b5f7ce" d="M48 56h3M47 57h5M48 58h3M44 59h2M43 60h2" />
</svg>