<svg xmlns="http://www.w3.org/2000/svg" viewBox="0 -0.5 80 80" shape-rendering="crispEdges">
<metadata>Made with Pixels to Svg https://codepen.io/shshaw/pen/XbxvNj</metadata>
<path stroke="#3a9484" d="M34 11h1M43 11h6M30 12h4M49 12h3M28 13h2M52 13h2M27 14h1M54 14h1M26 15h1M29 15h2M25 16h1M28 16h2M24 17h1M27 17h2M23 18h1M26 18h2M22 19h1M25 19h2M22 20h1M25 20h2M21 21h1M24 21h2M21 22h1M23 22h3M51 22h1M58 22h1M20 23h1M22 23h1M24 23h1M56 23h2M20 24h2M24 24h1M20 25h1M23 25h1M19 26h1M23 26h1M18 27h2M23 27h1M17 28h1M19 28h1M23 28h1M16 29h1M19 29h1M23 29h1M15 30h1M23 30h1M15 31h1M23 31h1M66 31h1M14 32h1M23 32h1M65 32h1M14 33h1M23 33h2M64 33h1M19 34h1M24 34h1M62 34h2M19 35h2M24 35h1M53 35h1M24 36h2M52 36h1M15 37h1M25 37h1M50 37h2M25 38h2M48 38h2M22 39h1M26 39h1M46 39h2M23 40h2M27 40h1M42 40h4M25 41h4M29 42h1M30 43h1M31 44h1M29 45h1M32 45h1M30 46h1M49 46h1M48 47h1M48 48h1M49 49h1M28 51h1M27 52h1M54 52h1M26 53h1M35 53h3M52 53h2M4 54h1M48 54h4M43 55h5M28 56h1M53 56h1M6 58h1M29 58h2M50 58h1M5 59h1M11 59h1M30 59h4M46 59h5M5 60h1M31 60h9M44 60h6M33 61h6M46 61h4M5 62h1M27 62h1M5 63h1M27 63h1M35 63h3M26 64h1M35 64h3M26 65h1M35 65h3M34 66h3M47 66h1M34 67h1" />
<path stroke="#085a42" d="M35 11h5M41 12h2M34 13h1M40 13h1M32 14h1M34 14h7M32 15h3M55 15h1M31 16h2M39 16h1M56 16h1M30 17h2M39 17h1M57 17h1M28 18h2M39 18h1M58 18h1M27 19h1M39 19h1M58 19h1M38 20h1M59 20h1M26 21h1M38 21h1M59 21h1M26 22h1M38 22h1M59 22h1M25 23h1M38 23h1M52 23h1M38 24h1M53 24h1M24 25h1M38 25h1M38 26h1M38 27h1M38 28h1M52 28h1M38 29h1M19 30h1M38 30h1M52 30h1M19 31h1M24 31h1M38 31h1M52 31h1M19 32h1M24 32h1M39 32h1M52 32h1M19 33h1M25 33h1M39 33h1M53 33h1M14 34h1M39 34h1M53 34h1M14 35h1M25 35h1M40 35h1M60 35h2M14 36h1M26 36h1M40 36h1M58 36h1M62 36h1M14 37h1M26 37h1M40 37h1M62 37h2M15 38h1M27 38h1M41 38h1M59 38h1M62 38h1M15 39h1M27 39h2M59 39h1M63 39h1M16 40h1M28 40h2M59 40h2M17 41h1M29 41h1M42 41h1M58 41h1M60 41h1M64 41h1M24 42h1M60 42h1M21 43h3M25 43h1M55 43h1M60 43h1M65 43h1M26 44h2M43 44h1M53 44h1M59 44h1M28 45h1M33 45h1M51 45h1M59 45h1M18 46h1M29 46h1M33 46h1M59 46h1M66 46h1M14 47h4M30 47h1M33 47h1M43 47h1M58 47h1M11 48h3M31 48h1M33 48h1M43 48h1M58 48h1M9 49h2M31 49h1M33 49h1M42 49h1M7 50h2M30 50h1M6 51h1M18 51h1M29 51h1M33 51h1M40 51h2M5 52h1M34 52h1M39 52h1M4 53h1M17 53h1M3 54h1M26 54h1M3 55h3M26 55h1M3 56h1M6 56h3M27 56h1M2 57h1M6 57h1M9 57h1M12 57h2M29 57h2M50 57h2M53 57h2M2 58h1M10 58h2M14 58h1M28 58h1M31 58h3M46 58h4M54 58h4M2 59h1M10 59h1M14 59h1M29 59h1M55 59h1M58 59h1M60 59h2M2 60h1M9 60h2M14 60h1M28 60h1M30 60h1M50 60h1M54 60h1M59 60h1M62 60h1M2 61h1M10 61h1M28 61h1M31 61h2M45 61h1M50 61h1M54 61h1M59 61h1M62 61h1M10 62h1M33 62h3M50 62h1M54 62h1M58 62h1M10 63h1M50 63h1M58 63h1M11 64h1M47 64h1M53 64h1M58 64h1M47 65h1M53 65h1M58 65h1M26 66h1M58 66h1M27 67h2M35 67h1M48 67h1M29 68h1M34 68h1M50 68h1M56 68h1M55 69h1" />
<path stroke="#63bd8c" d="M34 12h6M31 13h3M30 14h2M40 18h4M44 19h3M47 20h2M49 21h2M61 23h1M62 24h1M63 25h1M64 26h1M63 27h1M65 27h1M53 28h1M62 28h1M64 28h1M66 28h1M53 29h1M61 29h6M53 30h2M59 30h8M53 31h13M53 32h12M66 32h1M51 33h2M54 33h10M65 33h1M50 34h3M54 34h8M64 34h2M48 35h5M55 35h4M62 35h3M44 36h8M53 36h2M57 36h1M63 36h1M19 37h1M21 37h1M41 37h9M52 37h5M16 38h5M22 38h1M42 38h6M50 38h9M16 39h5M23 39h3M42 39h4M48 39h11M17 40h5M25 40h2M46 40h13M18 41h5M24 41h1M43 41h15M20 42h4M25 42h4M43 42h14M26 43h4M43 43h12M28 44h3M44 44h9M30 45h2M44 45h7M31 46h2M44 46h5M31 47h2M44 47h4M32 48h1M44 48h4M32 49h1M43 49h6M31 50h2M42 50h10M30 51h3M42 51h12M28 52h6M40 52h14M29 53h6M38 53h14M30 54h18M52 54h1M32 55h11M48 55h5M44 56h8M3 57h1M7 57h1M45 57h5M45 58h1M6 59h1M13 61h1M34 63h1M48 63h2M34 64h1M48 64h2M57 64h1M34 65h1M48 65h2M57 65h1M27 66h1M48 66h2M56 66h2M29 67h1M33 67h1M49 67h2M56 67h2M51 68h1M55 68h1" />
<path stroke="#191919" d="M40 12h1M35 13h5M33 14h1M31 15h1M30 16h1M29 17h1M28 19h1M27 20h1M27 21h1M60 22h2M62 23h2M25 24h1M55 24h1M64 24h1M25 25h1M54 25h1M65 25h1M24 26h1M53 26h1M66 26h1M24 27h1M53 27h1M66 27h1M24 28h1M67 28h1M24 29h1M52 29h1M67 29h1M24 30h1M67 30h1M67 31h1M67 32h1M66 33h1M25 34h1M66 34h1M54 35h1M65 35h1M20 36h1M55 36h2M64 36h1M20 37h1M57 37h2M21 38h1M21 39h1M41 39h1M22 40h1M41 40h1M63 40h1M23 41h1M18 42h2M30 42h1M42 42h1M57 42h1M64 42h1M20 43h1M31 43h1M42 43h1M56 43h1M20 44h1M23 44h1M32 44h1M54 44h1M65 44h1M19 45h1M23 45h1M43 45h1M52 45h1M65 45h1M22 46h1M34 46h1M43 46h1M50 46h1M22 47h1M34 47h1M49 47h1M66 47h1M21 48h1M34 48h1M49 48h1M66 48h1M20 49h1M50 49h2M57 49h1M66 49h1M19 50h1M33 50h1M52 50h3M57 50h1M66 50h1M34 51h1M54 51h3M66 51h1M18 52h1M35 52h4M55 52h1M66 52h1M54 53h1M66 53h1M17 54h1M53 54h1M65 54h1M17 55h1M53 55h1M65 55h1M17 56h1M52 56h1M65 56h1M16 57h1M28 57h1M52 57h1M65 57h1M16 58h1M51 58h1M64 58h1M15 59h1M34 59h12M51 59h1M64 59h1M15 60h1M40 60h1M43 60h1M58 60h1M64 60h1M5 61h1M9 61h1M14 61h1M39 61h1M44 61h1M58 61h1M63 61h1M3 62h2M8 62h1M13 62h1M36 62h3M46 62h4M53 62h1M57 62h1M62 62h1M8 63h1M13 63h1M38 63h1M47 63h1M53 63h1M57 63h1M62 63h1M6 64h2M12 64h1M38 64h1M51 64h2M56 64h1M61 64h1M38 65h1M56 65h1M61 65h1M37 66h1M54 66h2M61 66h1M36 67h1M58 67h3M30 68h4M49 68h1M57 68h1M51 69h4" />
<path stroke="#c5efe6" d="M43 12h6M30 13h1M41 13h4M48 13h4M28 14h2M41 14h3M49 14h5M27 15h2M40 15h4M49 15h6M26 16h2M40 16h5M48 16h8M25 17h2M40 17h16M24 18h2M44 18h11M23 19h2M40 19h3M47 19h8M23 20h2M40 20h6M49 20h5M22 21h2M40 21h8M51 21h2M22 22h1M41 22h9M21 23h1M23 23h1M43 23h5M22 24h2M21 25h2M57 25h2M20 26h3M57 26h2M20 27h2M18 28h1M17 29h2M16 30h1M16 31h1M16 32h3M16 33h3M16 34h3M17 35h2M32 56h1M39 56h1M32 57h1M39 57h1M3 58h1M39 58h1M3 60h1M11 62h2" />
<path stroke="#ffffff" d="M45 13h3M44 14h5M44 15h5M45 16h3M17 30h2M17 31h2M4 56h1M33 56h6M4 57h2M33 57h6M4 58h1M7 58h1M12 58h1M34 58h5M53 58h1M3 59h2M7 59h2M12 59h2M52 59h2M56 59h2M6 60h3M11 60h3M52 60h2M55 60h3M60 60h2M6 61h2M11 61h2M51 61h2M55 61h2M60 61h2M6 62h1M55 62h2M59 62h3M59 63h2" />
<path stroke="#8c846b" d="M35 15h5M33 16h6M35 17h4M30 18h1M36 18h3M29 19h1M36 19h3M28 20h2M36 20h2M28 21h2M35 21h3M27 22h4M34 22h4M26 23h12M26 24h12M26 25h12M25 26h4M32 26h1M36 26h2M25 27h4M32 27h1M36 27h2M25 28h4M31 28h2M35 28h3M25 29h13M25 30h2M30 30h1M34 30h1M25 31h2M30 31h1M34 31h1M25 32h2M29 32h2M33 32h2M37 32h2M26 33h13M26 34h3M32 34h1M36 34h3M26 35h3M32 35h1M36 35h4M27 36h2M31 36h2M35 36h5M27 37h13M28 38h13M29 39h11M31 40h7M63 43h1M63 44h2M62 45h3M61 46h4M18 47h2M59 47h6M14 48h6M36 48h4M59 48h6M11 49h8M35 49h7M58 49h7M9 50h9M35 50h7M58 50h6M7 51h11M35 51h5M57 51h7M8 52h9M56 52h8M8 53h1M11 53h5M55 53h9M7 54h1M11 54h2M15 54h1M54 54h1M57 54h7M6 55h2M10 55h2M57 55h1M60 55h3M9 56h3M56 56h1M60 56h1M10 57h2M55 57h2M59 57h1M58 58h2M59 59h1" />
<path stroke="#adad7b" d="M32 17h3M31 18h5M30 19h6M30 20h6M30 21h5M31 22h3" />
<path stroke="#9ce6c5" d="M56 17h1M55 18h3M43 19h1M55 19h3M39 20h1M46 20h1M54 20h5M39 21h1M48 21h1M53 21h6M39 22h2M50 22h1M52 22h6M39 23h4M48 23h4M53 23h3M58 23h3M39 24h14M54 24h1M56 24h6M63 24h1M39 25h15M55 25h2M59 25h4M64 25h1M39 26h14M54 26h3M59 26h5M65 26h1M22 27h1M39 27h14M54 27h9M64 27h1M20 28h3M39 28h13M54 28h8M63 28h1M65 28h1M20 29h3M39 29h13M54 29h7M20 30h3M39 30h13M55 30h4M20 31h3M39 31h13M15 32h1M20 32h3M40 32h12M15 33h1M20 33h3M40 33h11M15 34h1M20 34h4M40 34h10M15 35h2M21 35h3M41 35h7M15 36h5M21 36h3M41 36h3M16 37h3M22 37h3M23 38h2M27 53h2M27 54h3M27 55h5M5 56h1M29 56h3M40 56h4M8 57h1M31 57h1M40 57h5M5 58h1M8 58h2M13 58h1M40 58h5M52 58h1M9 59h1M54 59h1M4 60h1M29 60h1M51 60h1M3 61h2M8 61h1M29 61h2M53 61h1M57 61h1M7 62h1M28 62h5M51 62h2M6 63h2M11 63h2M28 63h6M51 63h2M54 63h3M61 63h1M27 64h7M50 64h1M54 64h2M59 64h2M27 65h7M50 65h3M54 65h2M59 65h2M28 66h6M50 66h4M59 66h2M30 67h3M51 67h5M52 68h3" />
<path stroke="#ffb5a5" d="M29 26h1M33 26h1M27 30h1M31 30h1M35 30h1M29 34h1M33 34h1" />
<path stroke="#ff6373" d="M30 26h1M34 26h1M29 27h2M33 27h2M28 30h1M32 30h1M36 30h1M27 31h2M31 31h2M35 31h2M30 34h1M34 34h1M29 35h2M33 35h2M6 52h1M5 53h2M9 53h1M8 54h2M13 54h1M55 54h1M12 55h2M54 55h2M58 55h1M57 56h2M61 56h1M60 57h2" />
<path stroke="#6b6b52" d="M31 26h1M35 26h1M31 27h1M35 27h1M29 28h2M33 28h2M29 30h1M33 30h1M37 30h1M29 31h1M33 31h1M37 31h1M27 32h2M31 32h2M35 32h2M31 34h1M35 34h1M31 35h1M35 35h1M59 35h1M29 36h2M33 36h2M59 36h3M59 37h3M60 38h2M40 39h1M60 39h3M30 40h1M38 40h3M61 40h2M30 41h12M61 41h3M31 42h11M61 42h3M32 43h10M61 43h2M64 43h1M21 44h2M33 44h10M60 44h3M20 45h3M34 45h9M60 45h2M19 46h3M35 46h8M60 46h1M65 46h1M20 47h2M35 47h8M65 47h1M20 48h1M35 48h1M40 48h3M65 48h1M19 49h1M34 49h1M65 49h1M18 50h1M34 50h1M64 50h2M64 51h2M7 52h1M17 52h1M64 52h2M7 53h1M10 53h1M16 53h1M64 53h2M5 54h2M10 54h1M14 54h1M16 54h1M56 54h1M64 54h1M8 55h2M14 55h3M56 55h1M59 55h1M63 55h2M12 56h5M54 56h2M59 56h1M62 56h3M14 57h2M57 57h2M62 57h3M15 58h1M60 58h4M62 59h2M63 60h1" />
</svg>