<svg xmlns="http://www.w3.org/2000/svg" viewBox="0 -0.5 80 80" shape-rendering="crispEdges">
<metadata>Made with Pixels to Svg https://codepen.io/shshaw/pen/XbxvNj</metadata>
<path stroke="#000000" d="M32 21h3M31 22h1M30 23h1M30 24h1M30 25h1M34 25h1M31 26h1M35 26h3M32 27h1M38 27h3M41 28h2M43 29h1M44 30h1M44 31h1M45 32h1M45 33h1M46 34h1M35 35h3M45 35h2M48 35h1M35 36h1M37 36h1M44 36h1M46 36h1M53 36h3M26 37h1M35 37h1M37 37h1M44 37h1M46 37h1M56 37h1M26 38h1M35 38h1M37 38h1M56 38h1M26 39h1M35 39h3M55 39h1M25 40h1M46 40h1M54 40h1M25 41h1M43 41h1M48 41h1M52 41h2M24 42h1M44 42h3M49 42h1M51 42h1M24 43h3M29 43h1M47 43h3M28 44h1M33 44h1M38 44h1M42 44h1M49 44h1M52 44h1M27 45h1M30 45h1M32 45h1M37 45h1M39 45h1M41 45h1M50 45h1M53 45h1M30 46h2M36 46h1M40 46h1M50 46h1M52 46h2M51 47h1M53 47h1M52 49h1M27 51h1M51 51h1M28 52h1M44 52h1M49 52h2M29 53h2M45 53h4M31 54h2M43 54h2M33 55h3M38 55h4M28 56h1M35 56h1M38 56h1M44 56h2M28 57h2M32 57h3M43 57h1M29 58h3M37 58h2M41 58h1M43 58h1M39 59h1M41 59h2" />
<path stroke="#634231" d="M35 21h1M34 22h1M33 23h1M31 24h1M33 24h1M31 25h3M32 26h2M30 28h1M29 29h1M42 29h1M28 30h1M43 30h1M28 31h1M27 32h1M44 32h1M27 33h1M44 33h1M26 34h1M26 35h1M49 35h1M26 36h1M34 36h1M38 36h1M27 37h1M34 37h1M38 37h1M27 38h3M34 38h1M38 38h1M45 38h1M47 38h1M27 39h3M47 39h1M26 40h5M39 40h2M50 40h4M26 41h6M49 41h3M25 42h10M47 42h2M50 42h1M27 43h2M30 43h14M25 44h1M27 44h1M30 44h3M34 44h4M39 44h3M24 45h1M26 45h1M31 45h1M35 45h2M40 45h1M51 45h2M24 46h1M26 46h1M41 46h1M51 46h1M24 47h1M26 47h1M41 47h1M48 47h2M52 47h1M24 48h1M26 48h1M41 48h1M49 48h4M25 49h2M47 49h5M25 50h1M27 50h1M44 50h2M47 50h5M26 51h1M44 51h7M27 52h1M45 52h4M33 54h1" />
<path stroke="#8c634a" d="M32 22h2M31 23h2M32 24h1M33 27h5M31 28h7M30 29h7M29 30h7M29 31h7M28 32h8M28 33h4M35 33h2M27 34h4M27 35h3M27 36h3M47 36h2M28 37h2M47 37h2M52 37h4M48 38h1M52 38h4M51 39h4M45 41h3M49 46h1" />
<path stroke="#3a1919" d="M34 26h1M31 27h1M50 33h3M49 34h1M53 34h1M47 35h1M53 35h1M46 38h1M45 39h2M41 40h1M47 40h1M39 41h1M42 41h1M40 42h2M26 44h1M51 44h1M34 45h1M35 46h1M50 47h1M42 49h1M42 50h1M43 51h1M42 54h1M36 55h2M40 56h1M39 58h1M40 59h1" />
<path stroke="#e6d6ad" d="M38 28h3M36 30h1M43 31h1M36 32h1M32 33h3M37 33h1M37 34h2M44 34h2M30 35h1M49 36h1M36 38h1M40 38h1M51 38h1M30 39h1M48 39h1M31 40h1M48 40h2M32 41h1M35 42h1M38 42h2M42 42h2" />
<path stroke="#ffffff" d="M37 29h5M37 30h6M36 31h7M37 32h7M38 33h6M31 34h6M39 34h5M50 34h3M31 35h4M38 35h7M50 35h3M30 36h4M36 36h1M39 36h5M45 36h1M50 36h3M30 37h4M36 37h1M39 37h3M49 37h3M31 38h3M39 38h1M49 38h2M38 39h1M49 39h2M33 46h2M31 47h7M30 48h8M31 49h6M32 50h5M33 51h2" />
<path stroke="#9c6321" d="M42 37h2M41 38h1M44 38h1M39 39h1M45 40h1M40 41h2M44 41h1M29 55h3M45 55h1M30 56h1M32 56h1M36 56h1M42 56h1M31 57h1M37 57h1M39 57h1M41 57h1" />
<path stroke="#efefd6" d="M45 37h1M30 38h1M31 39h4M32 40h7M33 41h6M36 42h2M33 45h1M32 46h1M30 47h1M30 49h1M37 49h1M31 50h1M35 51h1" />
<path stroke="#ffc521" d="M42 38h2M40 39h5M42 40h3M29 56h1M31 56h1M41 56h1M43 56h1M30 57h1M38 57h1M40 57h1M40 58h1M42 58h1" />
<path stroke="#c59c84" d="M44 43h3M43 44h6M28 45h2M38 45h1M42 45h6M27 46h3M37 46h3M42 46h5M27 47h3M38 47h3M42 47h3M27 48h3M38 48h3M27 49h3M38 49h3M29 50h2M37 50h2M31 51h2M37 51h1M39 51h1M36 52h1M38 52h1" />
<path stroke="#a57352" d="M29 44h1M25 45h1M48 45h2M25 46h1M47 46h2M25 47h1M45 47h3M25 48h1M42 48h7M41 49h1M43 49h4M26 50h1M28 50h1M39 50h3M43 50h1M46 50h1M28 51h3M36 51h1M38 51h1M40 51h3M29 52h7M37 52h1M39 52h5M31 53h14M34 54h8" />
<path stroke="#d69c00" d="M32 55h1M42 55h3M33 56h2M39 56h1M42 57h1" />
</svg>