<svg xmlns="http://www.w3.org/2000/svg" viewBox="0 -0.5 80 80" shape-rendering="crispEdges">
<metadata>Made with Pixels to Svg https://codepen.io/shshaw/pen/XbxvNj</metadata>
<path stroke="#73a56b" d="M38 10h5M37 11h1M43 11h3M37 12h1M46 12h2M51 12h1M38 13h1M48 13h1M50 13h1M52 13h1M32 14h7M49 14h1M52 14h1M31 15h1M38 15h1M52 15h2M31 16h1M52 16h1M54 16h1M54 17h1M54 18h1M54 19h1M55 20h1M56 21h1M56 22h1M57 23h1M34 24h1M57 24h1M34 25h1M57 25h1M35 26h1M57 26h1M56 27h1M56 28h1M55 29h1M39 37h1M41 38h1M41 40h1M43 40h1M50 48h1M27 50h5M49 50h1M28 51h4M45 51h1M50 51h1M29 52h3M45 52h1M47 52h1M52 52h2M30 53h1M45 53h1M47 53h1M44 54h3M48 54h1M42 55h1M44 55h3M48 55h1M43 56h3M47 56h2M43 57h1M46 57h2M44 58h4M37 59h1M44 59h3M38 60h1M44 60h2M38 61h3M44 61h1M39 62h5M40 63h4M41 64h3M42 65h1" />
<path stroke="#ffffff" d="M38 11h5M38 12h8M39 13h9M51 13h1M39 14h10M50 14h2M32 15h1M35 15h3M39 15h10M50 15h2M32 16h5M38 16h12M51 16h1M53 16h1M33 17h3M37 17h17M34 18h1M36 18h18M35 19h19M35 20h20M34 21h22M27 22h3M34 22h22M28 23h4M34 23h23M28 24h4M35 24h22M28 25h4M35 25h22M26 26h1M28 26h4M37 26h20M27 27h1M29 27h2M39 27h17M42 28h13M46 29h6M38 33h1M36 35h1M41 35h1M36 36h2M41 36h1" />
<path stroke="#c5ced6" d="M33 15h2M49 15h1M50 16h1M31 17h2M30 18h4M30 19h4M29 20h5M30 21h3M32 22h1M27 23h1M32 24h2M32 25h2M32 26h3M36 26h1M28 27h1M31 27h8M28 28h6M36 28h6M55 28h1M28 29h6M37 29h9M52 29h3M29 30h5M39 30h16M29 31h5M41 31h13M30 32h3M34 32h1M44 32h7M31 33h1M34 33h1M35 34h1M35 35h1M40 36h1M50 36h1M37 37h1M49 37h1" />
<path stroke="#214a00" d="M37 16h1M29 19h1M26 22h1M26 23h1M25 26h1M26 27h1M27 29h1M34 30h1M55 30h1M34 31h1M54 31h1M33 32h1M51 32h3M29 33h1M32 33h1M35 33h1M52 33h1M32 34h1M34 34h1M36 34h1M52 34h1M33 35h1M37 35h1M35 36h1M38 36h1M36 37h1M36 38h1M42 38h1M38 39h1M46 39h1M40 40h1M39 41h2M40 42h1M38 44h1M38 45h1M37 46h1M39 47h1M31 48h3M37 48h1M27 49h4M37 49h1M49 49h1M38 50h1M48 50h1M50 50h1M51 51h1M38 52h2M51 52h1M35 53h1M40 53h1M34 54h1M37 54h1M41 54h1M47 54h1M33 55h1M36 55h1M47 55h1M33 56h1M42 56h1M46 56h1M50 56h2M32 57h2M42 57h1M44 57h2M51 57h1M50 58h1M49 59h1M31 60h2M49 60h1M31 61h2M35 61h1M43 61h1M46 61h1M49 61h1M47 62h1M49 62h1M38 63h1M48 63h1M37 64h1M41 65h1" />
<path stroke="#316b00" d="M30 17h1M26 21h4M30 22h2M26 25h2M27 26h1M35 28h1M36 29h1M38 30h1M40 31h1M35 32h1M42 32h2M33 33h1M44 33h8M29 34h3M33 34h1M46 34h3M51 34h1M31 35h2M34 35h1M46 35h1M34 36h1M46 36h2M35 37h1M40 37h1M42 37h1M46 37h1M37 38h1M43 38h1M45 38h3M39 39h1M44 39h2M35 50h3M34 51h3M33 52h4M32 53h3M36 53h1M32 54h2M35 54h2M34 55h2M35 56h1M49 57h2M49 58h1M48 59h1M36 60h1M47 60h2M36 61h1M47 61h2M37 62h1M48 62h1M37 63h1" />
<path stroke="#000000" d="M36 17h1M29 18h1M35 18h1M34 19h1M28 20h1M34 20h1M33 21h1M33 22h1M32 23h2M27 24h1M27 28h1M28 30h1M28 31h1M29 32h1M30 33h1M28 34h1M39 34h1M29 35h2M39 35h1M51 35h1M31 36h3M48 36h1M51 36h1M34 37h1M47 37h1M50 37h1M35 38h1M37 39h1M47 39h1M38 40h2M44 40h2M38 41h1M41 41h3M37 42h1M41 42h1M44 42h1M37 43h1M42 43h2M41 44h1M37 45h1M40 45h1M24 46h1M36 46h1M40 46h1M25 47h1M34 47h2M40 47h1M55 47h2M17 48h1M38 48h1M41 48h1M54 48h1M16 49h1M35 49h2M38 49h1M42 49h1M54 49h1M16 50h1M34 50h1M44 50h4M55 50h1M16 51h1M33 51h1M37 51h1M47 51h1M49 51h1M55 51h1M16 52h1M32 52h1M37 52h1M48 52h1M50 52h1M54 52h1M31 53h1M37 53h1M48 53h1M51 53h3M15 54h1M31 54h1M49 54h1M15 55h1M30 55h1M49 55h1M15 56h1M31 56h1M36 56h1M49 56h1M16 57h1M31 57h1M36 57h1M48 57h1M16 58h1M31 58h1M36 58h1M43 58h1M48 58h1M17 59h1M31 59h1M36 59h1M43 59h1M47 59h1M18 60h4M30 60h1M37 60h1M43 60h1M46 60h1M22 61h1M30 61h1M34 61h1M37 61h1M45 61h1M23 62h2M29 62h1M32 62h2M36 62h1M38 62h1M44 62h2M25 63h4M36 63h1M39 63h1M44 63h1M36 64h1M39 64h2M44 64h1M39 65h2M44 65h1M39 66h1M41 66h1M44 66h1M40 67h2M44 67h1M42 68h2" />
<path stroke="#73ad21" d="M34 28h1M34 29h2M35 30h3M35 31h5M36 32h2M40 32h2M36 33h2M42 33h2M37 34h1M43 34h3M38 35h1M43 35h3M47 35h1M39 36h1M43 36h3M41 37h1M43 37h3M44 38h1M39 45h1M39 48h2M39 49h3M39 50h5M38 51h6M40 52h3M41 53h2M31 55h2M32 56h1M34 56h1M34 57h2M32 58h4M32 59h4M33 60h3M33 61h1" />
<path stroke="#efe64a" d="M38 32h2M40 33h2M41 34h2M49 34h2M42 35h1M48 35h1M50 35h1M42 36h1M38 42h2M38 43h4M39 44h2M43 65h1M40 66h1M42 66h2M42 67h2" />
<path stroke="#b56bd6" d="M39 33h1M40 34h1M49 35h1M48 37h1M18 48h3M17 49h1M20 49h3M17 50h1M19 50h1M21 50h2M17 51h1M19 51h2M22 51h2M18 52h1M20 52h1M22 52h2M27 52h1M16 53h1M18 53h1M20 53h1M22 53h2M16 54h2M21 54h2M29 54h1M17 55h5M27 55h3M16 56h1M18 56h13M19 57h4M26 57h5M17 58h1M19 58h3M23 58h1M25 58h1M27 58h4M19 59h3M23 59h1M25 59h2M28 59h3M22 60h1M26 60h1M28 60h2M23 61h4M28 61h2M25 62h1M27 62h2" />
<path stroke="#843aa5" d="M38 34h1M20 45h4M18 46h2M17 47h1M26 48h1M18 49h2M26 49h1M18 50h1M20 50h1M26 50h1M18 51h1M21 51h1M27 51h1M17 52h1M19 52h1M21 52h1M28 52h1M15 53h1M17 53h1M19 53h1M21 53h1M29 53h1M18 54h3M16 55h1M17 56h1M17 57h2M23 57h3M18 58h1M22 58h1M24 58h1M26 58h1M18 59h1M22 59h1M24 59h1M27 59h1M23 60h3M27 60h1M27 61h1M26 62h1" />
<path stroke="#de94ff" d="M40 35h1M49 36h1M20 46h4M18 47h7M21 48h5M23 49h3M23 50h3M24 51h3M24 52h3M24 53h5M23 54h6M22 55h5" />
<path stroke="#ceff73" d="M38 37h1M38 38h3M40 39h4M42 40h1M38 46h2M36 47h3M53 47h1M34 48h3M49 48h1M52 48h2M31 49h4M50 49h4M32 50h2M51 50h4M32 51h1M44 51h1M46 51h1M52 51h3M43 52h2M46 52h1M38 53h2M43 53h2M46 53h1M38 54h3M42 54h2M37 55h5M43 55h1M37 56h5M37 57h5M37 58h6M38 59h5M39 60h4M41 61h2" />
<path stroke="#42424a" d="M48 38h4M52 39h2M46 40h1M59 40h1M45 41h1M60 41h1M45 42h1M60 42h1M60 43h1M60 44h1M59 45h1M53 46h1M58 46h1M52 47h1M57 47h1M51 48h1M43 49h1M47 49h2M30 54h1" />
<path stroke="#9c9ca5" d="M48 39h4M47 40h6M54 40h4M46 41h13M46 42h14M44 43h16M42 44h1M44 44h15M41 45h1M43 45h1M45 45h8M55 45h4M42 46h1M44 46h1M47 46h4M41 47h1" />
<path stroke="#6b6b73" d="M54 39h5M53 40h1M58 40h1M59 41h1M43 44h1M59 44h1M42 45h1M44 45h1M53 45h2M41 46h1M43 46h1M45 46h2M51 46h2M54 46h4M42 47h10M54 47h1M42 48h7M44 49h3" />
</svg>