<svg xmlns="http://www.w3.org/2000/svg" viewBox="0 -0.5 80 80" shape-rendering="crispEdges">
<metadata>Made with Pixels to Svg https://codepen.io/shshaw/pen/XbxvNj</metadata>
<path stroke="#316b31" d="M37 11h3M36 12h1M36 13h1M38 13h2M32 14h2M38 14h2M41 14h1M30 15h2M41 15h1M28 16h2M42 16h2M21 17h2M27 17h1M42 17h2M20 18h1M19 19h1M21 19h2M21 20h2M33 21h4M30 22h2M33 22h6M20 23h1M29 23h4M34 23h6M21 24h2M29 24h4M37 24h4M21 25h2M28 25h4M38 25h3M28 26h3M39 26h3M28 27h3M39 27h3M24 28h1M28 28h3M40 28h3M56 28h1M28 29h3M37 29h2M40 29h3M57 29h2M23 30h1M29 30h3M34 30h1M57 30h2M60 30h3M23 31h1M29 31h3M44 31h1M52 31h1M58 31h2M61 31h2M64 31h1M23 32h1M29 32h4M42 32h1M52 32h2M58 32h2M61 32h2M65 32h1M23 33h1M30 33h2M40 33h1M53 33h3M61 33h2M66 33h1M23 34h1M37 34h2M50 34h1M54 34h2M67 34h1M22 35h1M34 35h3M67 35h1M22 36h1M29 36h4M68 36h2M21 37h1M26 37h1M47 37h1M69 37h2M21 38h1M25 38h1M45 38h1M52 38h1M69 38h2M20 39h1M24 39h1M51 39h2M70 39h2M19 40h1M23 40h2M42 40h1M49 40h3M70 40h2M22 41h4M39 41h1M42 41h1M48 41h2M52 41h1M70 41h2M21 42h6M36 42h3M41 42h1M46 42h3M50 42h4M71 42h2M18 43h1M21 43h6M29 43h5M39 43h1M41 43h1M45 43h3M49 43h4M17 44h2M23 44h5M40 44h2M45 44h3M49 44h2M53 44h1M59 44h1M62 44h1M27 45h1M37 45h1M46 45h3M51 45h3M63 45h1M16 46h2M29 46h2M35 46h2M46 46h6M64 46h1M16 47h1M29 47h9M47 47h3M56 47h1M64 47h1M14 48h1M17 48h2M36 48h2M56 48h1M63 48h1M65 48h1M14 49h1M16 49h5M31 49h5M37 49h1M14 50h1M16 50h6M31 50h5M37 50h2M57 50h1M13 51h1M16 51h6M36 51h3M43 51h2M58 51h1M66 51h1M13 52h1M16 52h6M31 52h6M43 52h1M45 52h4M58 52h1M13 53h1M15 53h6M43 53h1M49 53h1M15 54h6M42 54h1M49 54h1M16 55h5M41 55h1M50 55h1M55 55h1M15 56h1M18 56h3M41 56h1M50 56h1M55 56h2M14 57h2M20 57h1M33 57h1M42 57h1M46 57h1M51 57h1M56 57h1M14 58h2M33 58h1M42 58h2M48 58h1M15 59h1M42 59h1M45 59h1M49 59h1M15 60h2M38 60h1M46 60h1M15 61h2M38 61h2M43 61h1M16 62h2M39 62h1M16 63h1M37 65h1" />
<path stroke="#214a29" d="M40 11h1M34 14h2M42 14h2M44 15h1M23 17h1M24 18h3M19 20h1M33 20h4M30 21h2M37 21h2M21 22h3M29 22h1M39 22h1M44 22h1M28 23h1M40 23h1M19 24h1M28 24h1M36 24h1M41 24h1M19 25h1M27 25h1M37 25h1M41 25h1M51 25h2M27 26h1M31 26h1M38 26h1M42 26h1M54 26h4M27 27h1M38 27h1M42 27h1M58 27h3M27 28h1M39 28h1M43 28h1M46 28h2M57 28h1M59 28h1M61 28h2M27 29h1M31 29h1M39 29h1M43 29h3M59 29h1M63 29h2M28 30h1M40 30h3M59 30h1M28 31h1M32 31h1M60 31h1M28 32h1M60 32h1M29 33h1M32 33h1M50 33h1M60 33h1M29 34h3M53 34h1M62 34h1M28 35h2M49 35h1M27 36h1M48 36h1M52 36h1M70 36h1M52 37h1M68 37h1M51 38h1M66 38h1M71 38h1M43 39h1M49 39h2M53 39h2M69 39h1M48 40h1M52 40h1M55 40h1M58 40h1M69 40h1M19 41h1M46 41h2M50 41h2M55 41h1M57 41h1M18 42h1M28 42h1M45 42h1M49 42h1M54 42h1M57 42h1M60 42h1M70 42h1M17 43h1M20 43h1M44 43h1M48 43h1M53 43h1M56 43h1M59 43h1M71 43h2M16 44h1M19 44h4M44 44h1M48 44h1M51 44h2M71 44h2M16 45h1M19 45h6M29 45h2M35 45h2M45 45h1M49 45h2M54 45h1M58 45h1M71 45h2M15 46h1M18 46h1M21 46h3M31 46h4M37 46h1M45 46h1M52 46h2M57 46h1M63 46h1M71 46h2M15 47h1M17 47h4M23 47h1M38 47h1M46 47h1M50 47h2M63 47h1M70 47h3M19 48h4M30 48h6M38 48h1M47 48h3M62 48h1M70 48h3M21 49h2M30 49h1M36 49h1M38 49h1M57 49h1M62 49h1M66 49h1M70 49h2M30 50h1M36 50h1M39 50h1M61 50h1M30 51h6M39 51h1M60 51h1M37 52h2M59 52h1M31 53h6M59 53h1M66 53h1M13 54h1M60 54h1M13 55h3M60 55h1M13 56h2M16 56h2M31 56h1M49 56h1M60 56h1M13 57h1M18 57h2M32 57h1M47 57h2M60 57h1M13 58h1M16 58h1M20 58h1M44 58h2M51 58h1M59 58h1M64 58h1M14 59h1M16 59h1M31 59h1M33 59h1M50 59h2M59 59h1M14 60h1M17 60h1M32 60h2M47 60h3M52 60h1M58 60h1M14 61h1M17 61h1M34 61h1M44 61h3M53 61h2M56 61h2M15 62h1M18 62h2M31 62h1M34 62h1M43 62h1M15 63h1M17 63h5M31 63h1M34 63h1M43 63h1M59 63h1M17 64h6M31 64h1M35 64h1M43 64h1M57 64h1M19 65h4M36 65h1M42 65h1M55 65h1M37 66h5M53 66h1M50 67h1M46 68h1" />
<path stroke="#7bde7b" d="M37 12h3M32 15h4M42 15h2M30 16h2M28 17h2M21 18h2M20 19h1M25 19h2M21 23h2M20 24h1M46 24h1M48 25h2M51 26h2M53 27h4M24 29h1M62 29h1M24 30h1M63 30h2M24 31h1M65 31h1M24 32h1M66 32h1M24 33h1M67 33h1M24 34h1M68 34h1M23 35h1M68 35h1M23 36h1M22 37h1M22 38h1M21 39h1M20 40h1M20 41h1M19 42h1M15 48h1M15 49h1M15 50h1M14 51h2M14 52h1M14 53h1" />
<path stroke="#73bd6b" d="M40 12h1M37 13h1M40 13h1M37 14h1M40 14h1M37 15h4M34 16h1M36 16h6M44 16h1M32 17h10M44 17h1M23 18h1M28 18h17M27 19h17M20 20h1M23 20h10M37 20h6M20 21h10M39 21h4M24 22h5M40 22h4M23 23h5M41 23h3M23 24h5M42 24h3M47 24h1M20 25h1M23 25h4M42 25h4M20 26h7M43 26h5M23 27h4M43 27h8M25 28h2M44 28h2M50 28h4M25 29h2M51 29h6M25 30h3M36 30h4M43 30h2M53 30h4M25 31h3M34 31h10M54 31h4M25 32h3M34 32h8M55 32h3M25 33h4M33 33h7M25 34h4M32 34h5M24 35h4M30 35h4M50 35h1M24 36h3M49 36h3M23 37h3M48 37h3M23 38h2M46 38h4M22 39h2M44 39h5M21 40h1M43 40h5M40 41h2M43 41h3M20 42h1M39 42h2M42 42h3M28 43h1M34 43h5M40 43h1M42 43h2M29 44h11M42 44h2M31 45h4M38 45h3M42 45h3M38 46h7M39 47h7M52 47h1M39 48h8M50 48h3M39 49h13M40 50h3M44 50h7M40 51h3M45 51h4M40 52h3M44 52h1M38 53h5M44 53h2M31 54h11M43 54h1M31 55h10M32 56h6" />
<path stroke="#101010" d="M41 12h1M41 13h1M45 16h1M45 17h1M45 18h1M44 19h1M43 20h1M19 21h1M32 21h1M43 21h1M20 22h1M32 22h1M33 23h1M45 23h2M33 24h3M48 24h2M32 25h2M50 25h1M19 26h1M32 26h1M20 27h3M31 27h2M36 27h2M23 28h1M31 28h2M34 28h2M48 28h2M23 29h1M32 29h2M50 29h1M32 30h2M51 30h1M65 30h1M33 31h1M51 31h1M66 31h1M33 32h1M51 32h1M67 32h1M52 33h1M57 33h3M68 33h1M56 34h1M61 34h1M69 34h1M53 35h3M63 35h1M70 35h1M53 36h1M55 36h1M64 36h1M46 37h1M56 37h1M65 37h1M71 37h1M44 38h1M57 38h1M25 39h1M42 39h1M58 39h1M66 39h1M72 39h1M25 40h1M40 40h2M59 40h1M67 40h1M72 40h1M26 41h1M36 41h3M60 41h1M67 41h1M72 41h1M27 42h1M29 42h1M33 42h3M61 42h1M68 42h1M73 42h1M27 43h1M62 43h1M68 43h1M73 43h1M28 44h1M63 44h1M68 44h1M73 44h1M17 45h2M25 45h2M28 45h1M64 45h1M69 45h1M73 45h1M19 46h2M24 46h1M27 46h2M65 46h1M69 46h1M73 46h1M21 47h2M24 47h1M28 47h1M65 47h1M69 47h1M73 47h1M23 48h1M29 48h1M66 48h1M69 48h1M23 49h1M29 49h1M69 49h1M72 49h1M22 50h1M29 50h1M67 50h1M69 50h3M22 51h1M67 51h1M22 52h1M30 52h1M67 52h1M21 53h1M30 53h1M21 54h1M30 54h1M66 54h1M21 55h1M30 55h1M66 55h1M21 56h1M30 56h1M65 56h1M21 57h1M30 57h1M65 57h1M21 58h1M30 58h1M21 59h1M30 59h1M64 59h1M21 60h1M30 60h1M63 60h1M22 61h1M30 61h1M62 61h1M22 62h1M61 62h1M22 63h2M60 63h1M16 64h1M23 64h1M58 64h1M17 65h2M23 65h1M32 65h1M56 65h1M19 66h4M33 66h1M54 66h1M34 67h2M51 67h2M36 68h3M47 68h3M40 69h6" />
<path stroke="#4a9442" d="M36 14h1M36 15h1M32 16h2M35 16h1M30 17h2M27 18h1M23 19h2M44 23h1M45 24h1M46 25h2M48 26h3M53 26h1M51 27h2M57 27h1M54 28h2M58 28h1M60 28h1M60 29h2M35 30h1M52 30h1M53 31h1M63 31h1M54 32h1M63 32h2M51 33h1M56 33h1M63 33h3M51 34h2M63 34h4M51 35h2M64 35h3M69 35h1M65 36h3M51 37h1M66 37h2M50 38h1M67 38h1M67 39h1M22 40h1M21 41h1M58 41h2M58 42h2M19 43h1M57 43h2M60 43h2M56 44h3M60 44h2M41 45h1M55 45h3M59 45h4M54 46h3M58 46h5M53 47h3M57 47h6M16 48h1M53 48h3M57 48h5M64 48h1M52 49h5M58 49h4M63 49h1M65 49h1M43 50h1M51 50h6M58 50h3M66 50h1M49 51h9M59 51h1M65 51h1M15 52h1M39 52h1M49 52h9M66 52h1M37 53h1M46 53h3M50 53h4M58 53h1M14 54h1M44 54h5M50 54h3M59 54h1M42 55h8M51 55h2M59 55h1M38 56h3M42 56h7M51 56h2M59 56h1M31 57h1M34 57h8M43 57h3M52 57h1M59 57h1M31 58h2M34 58h3M41 58h1M52 58h1M32 59h1M34 59h2M52 59h3M58 59h1M34 60h2M42 60h1M53 60h5M35 61h1M42 61h1M35 62h1M42 62h1M35 63h1M42 63h1M36 64h1M41 64h2M38 65h4" />
<path stroke="#94b58c" d="M36 28h3M34 29h3M46 29h1M48 29h2M45 30h1M48 30h3M48 31h3M43 32h1M47 32h4M41 33h1M46 33h4M39 34h1M45 34h5M43 35h6M33 36h1M41 36h7M38 37h8M26 38h1M34 38h10M26 39h16M26 40h14M27 41h9M30 42h3M48 59h1M43 60h1M45 60h1" />
<path stroke="#adcea5" d="M47 29h1M47 31h1M46 32h1M45 33h1M44 34h1M42 35h1M40 36h1M37 37h1M33 38h1" />
<path stroke="#bddebd" d="M46 30h2M45 31h2M44 32h2M42 33h3M40 34h4M37 35h5M28 36h1M34 36h6M27 37h10M27 38h6M49 57h2M46 58h2M49 58h2M43 59h2M46 59h2M44 60h1" />
<path stroke="#315a3a" d="M54 36h1M53 37h3M53 38h4M68 38h1M55 39h3M68 39h1M53 40h2M56 40h2M68 40h1M53 41h2M56 41h1M68 41h2M55 42h2M69 42h1M54 43h2M69 43h2M54 44h2M69 44h2M70 45h1M70 46h1M64 49h1M62 50h4M61 51h4M60 52h6M60 53h6M61 54h5M61 55h5M61 56h4M16 57h2M61 57h4M17 58h3M60 58h4M17 59h4M60 59h4M18 60h3M31 60h1M50 60h2M59 60h4M18 61h4M31 61h3M47 61h6M55 61h1M58 61h4M20 62h2M32 62h2M44 62h17M32 63h2M44 63h15M32 64h3M44 64h13M33 65h3M43 65h12M34 66h3M42 66h11M36 67h14M39 68h7" />
<path stroke="#9c6b7b" d="M54 53h1M57 53h1M53 54h1M58 54h1M53 55h1M56 55h1M58 55h1M55 57h1M37 58h1M40 58h1M53 58h1M58 58h1M36 59h1M41 59h1M57 59h1M36 60h1M39 60h1M41 60h1M38 62h1M36 63h1M41 63h1M37 64h1M40 64h1" />
<path stroke="#ff734a" d="M55 53h2M54 54h4M54 55h1M57 55h1M53 56h2M57 56h2M53 57h2M57 57h2M38 58h2M54 58h4M37 59h4M55 59h2M37 60h1M40 60h1M36 61h2M40 61h2M36 62h2M40 62h2M37 63h4M38 64h2" />
</svg>