<svg xmlns="http://www.w3.org/2000/svg" viewBox="0 -0.5 80 80" shape-rendering="crispEdges">
<metadata>Made with Pixels to Svg https://codepen.io/shshaw/pen/XbxvNj</metadata>
<path stroke="#efa573" d="M6 8h7M4 9h2M13 9h2M3 10h1M15 10h2M36 10h9M2 11h1M17 11h1M33 11h3M45 11h3M2 12h1M9 12h3M18 12h1M31 12h2M48 12h2M2 13h1M8 13h2M18 13h1M29 13h2M50 13h2M3 14h1M8 14h1M19 14h1M28 14h1M52 14h1M3 15h1M9 15h1M19 15h1M27 15h1M53 15h1M4 16h1M10 16h1M19 16h1M26 16h1M54 16h1M4 17h1M11 17h2M18 17h1M25 17h1M55 17h1M5 18h1M13 18h5M24 18h1M56 18h1M6 19h1M14 19h1M24 19h1M56 19h1M7 20h1M15 20h1M23 20h1M57 20h1M8 21h2M16 21h1M23 21h1M57 21h1M10 22h2M17 22h2M22 22h1M58 22h1M12 23h2M19 23h2M22 23h1M58 23h1M14 24h2M21 24h2M58 24h1M16 25h3M59 25h1M19 26h3M59 26h1M21 27h1M59 27h1M21 28h1M59 28h1M21 29h1M59 29h1M21 30h1M59 30h1M22 31h1M59 31h1M22 32h1M59 32h1M22 33h1M58 33h1M23 34h1M58 34h1M23 35h1M58 35h1M24 36h1M59 36h3M24 37h1M62 37h2M25 38h1M56 38h4M64 38h2M25 39h1M55 39h1M60 39h3M66 39h2M26 40h1M54 40h1M63 40h1M68 40h1M27 41h1M53 41h1M60 41h5M69 41h2M28 42h1M52 42h1M59 42h1M65 42h2M71 42h1M29 43h2M50 43h2M58 43h1M67 43h2M72 43h1M31 44h2M48 44h2M58 44h1M63 44h1M68 44h1M73 44h1M33 45h2M48 45h1M58 45h1M63 45h1M69 45h1M74 45h1M36 46h3M50 46h1M59 46h1M64 46h2M69 46h1M74 46h1M37 47h1M51 47h1M59 47h1M65 47h4M75 47h1M36 48h1M52 48h1M60 48h1M75 48h1M53 49h1M61 49h1M75 49h1M35 50h1M53 50h1M62 50h1M75 50h1M34 51h1M54 51h1M63 51h2M74 51h1M34 52h1M54 52h1M65 52h3M73 52h2M33 53h1M55 53h1M68 53h5M33 54h1M55 54h1M33 55h1M55 55h1M33 56h1M55 56h1M34 57h1M54 57h1M34 58h1M54 58h1M35 59h1M53 59h1M36 60h1M52 60h1M37 61h1M51 61h1M38 62h2M49 62h2M40 63h1M48 63h1M41 64h2M47 64h1M42 65h1M46 65h2M43 66h4" />
<path stroke="#f7bd8c" d="M6 9h4M4 10h7M14 10h1M3 11h9M15 11h2M36 11h9M3 12h6M12 12h1M16 12h2M33 12h15M3 13h5M10 13h8M31 13h5M45 13h5M4 14h4M9 14h4M17 14h2M29 14h4M48 14h4M4 15h1M8 15h1M10 15h3M18 15h1M28 15h3M50 15h3M9 16h1M11 16h8M27 16h3M51 16h3M5 17h1M10 17h1M13 17h5M26 17h3M52 17h3M6 18h2M11 18h2M25 18h3M36 18h3M53 18h3M7 19h3M12 19h2M25 19h2M34 19h3M54 19h2M8 20h7M24 20h3M32 20h4M54 20h3M10 21h6M24 21h2M31 21h4M55 21h2M12 22h5M23 22h3M30 22h5M55 22h3M14 23h5M23 23h2M30 23h5M48 23h1M56 23h2M16 24h5M23 24h2M29 24h2M34 24h2M48 24h2M56 24h2M19 25h6M29 25h1M35 25h1M47 25h3M56 25h3M22 26h2M29 26h1M46 26h5M57 26h2M22 27h2M28 27h1M44 27h7M57 27h2M22 28h2M28 28h1M45 28h6M57 28h2M22 29h2M28 29h1M48 29h3M57 29h2M22 30h2M49 30h2M57 30h2M23 31h2M50 31h1M57 31h2M23 32h2M50 32h1M56 32h3M23 33h2M56 33h2M24 34h2M38 34h2M56 34h2M24 35h2M37 35h3M55 35h3M25 36h2M31 36h1M35 36h5M55 36h4M25 37h2M32 37h8M54 37h8M26 38h2M33 38h8M53 38h3M60 38h4M26 39h3M35 39h8M52 39h3M63 39h3M27 40h3M38 40h5M51 40h3M64 40h4M28 41h3M50 41h3M65 41h4M29 42h4M48 42h4M60 42h5M67 42h4M31 43h5M46 43h4M59 43h8M69 43h3M33 44h8M46 44h2M59 44h4M64 44h4M71 44h2M35 45h7M47 45h1M59 45h4M64 45h5M72 45h2M39 46h3M48 46h2M60 46h4M66 46h3M73 46h1M38 47h3M49 47h2M60 47h5M69 47h2M73 47h2M37 48h2M50 48h2M61 48h8M70 48h2M74 48h1M36 49h2M51 49h2M62 49h4M71 49h2M74 49h1M36 50h1M52 50h1M63 50h4M72 50h3M35 51h2M52 51h2M65 51h4M73 51h1M35 52h1M53 52h1M68 52h5M34 53h2M53 53h2M34 54h2M53 54h2M34 55h2M53 55h2M34 56h2M53 56h2M35 57h1M52 57h2M35 58h2M52 58h2M36 59h2M51 59h2M37 60h2M50 60h2M38 61h3M48 61h3M40 62h2M47 62h2M41 63h2M46 63h2M43 64h4M43 65h3" />
<path stroke="#ffdebd" d="M10 9h1M11 10h1M13 10h1M12 11h1M13 12h1M15 12h1M16 14h1M17 15h1M5 16h1M6 17h1M8 18h1M10 19h1M69 44h2M71 45h1M72 46h1M69 48h1M73 48h1M66 49h1M70 49h1M73 49h1M67 50h1M71 50h1M69 51h1M72 51h1" />
<path stroke="#ffffff" d="M11 9h2M12 10h1M13 11h2M14 12h1M13 14h3M5 15h3M13 15h4M6 16h3M7 17h3M9 18h2M11 19h1M70 45h1M70 46h2M71 47h2M72 48h1M40 49h1M67 49h3M39 50h2M47 50h1M68 50h3M37 51h1M46 51h1M70 51h2M38 52h1M45 52h1M48 52h1M48 53h1M38 54h1M44 54h1M36 55h1M44 55h1M37 56h1M45 56h1" />
<path stroke="#c50042" d="M36 13h5M34 14h2M45 14h1M31 15h2M47 15h1M30 16h1M49 16h1M29 17h1M35 17h1M28 18h1M27 19h1M27 20h1M53 20h1M26 21h1M26 22h1M25 23h1M25 24h1M25 25h1M55 25h1M24 26h1M39 26h1M24 27h1M34 27h1M40 27h1M24 28h1M40 28h1M42 28h2M24 29h1M35 29h7M24 30h1M37 30h4M25 31h1M27 31h1M25 32h1M27 32h1M55 32h1M25 33h1M26 34h1M28 34h1M54 34h1M26 35h1M27 36h1M29 36h1M53 36h1M27 37h1M30 37h1M31 40h1M37 40h1M43 40h1M49 40h1M31 41h1M47 41h1M33 42h2M36 43h2M41 43h1M41 47h2M39 48h2M38 49h1M37 50h1M45 50h1M48 50h1M38 51h1M44 52h1M51 54h1M48 55h4M36 56h1M48 56h4M36 57h3M44 57h1M47 57h4M38 58h2M43 58h8M39 59h11M41 60h6M44 61h2M43 62h3" />
<path stroke="#8c0031" d="M41 13h4M46 14h2M48 15h2M50 16h1M36 17h2M42 17h1M51 17h1M34 18h2M44 18h1M52 18h1M32 19h2M46 19h1M53 19h1M31 20h1M30 21h1M54 21h1M29 22h1M55 23h1M28 24h1M50 25h1M36 26h1M51 26h1M56 26h1M27 27h1M51 27h1M56 27h1M41 28h1M51 28h1M34 29h1M51 29h1M27 30h1M51 30h1M39 31h1M51 31h1M51 32h1M28 33h1M50 33h1M50 34h1M29 35h1M54 35h1M49 36h1M28 38h1M32 38h1M52 38h1M29 39h1M33 39h2M46 39h1M51 39h1M30 40h1M35 40h2M44 40h2M50 40h1M32 41h1M38 41h5M48 41h2M35 42h1M46 42h2M38 43h2M45 43h1M41 44h2M42 45h1M45 45h2M42 46h1M46 46h2M48 47h1M49 48h1M51 51h1M52 52h1M39 53h1M49 54h1M47 56h1M39 57h1M45 57h2M51 57h1M40 58h1M40 60h1M47 60h2M41 61h3M46 61h1" />
<path stroke="#ff1052" d="M33 14h1M36 14h9M33 15h2M42 15h5M31 16h2M43 16h6M30 17h1M34 17h1M43 17h8M29 18h1M32 18h2M45 18h7M28 19h1M31 19h1M47 19h6M28 20h1M30 20h1M48 20h5M27 21h3M49 21h5M27 22h2M50 22h4M26 23h3M50 23h5M26 24h2M51 24h4M26 25h2M51 25h4M25 26h3M37 26h2M52 26h4M25 27h2M35 27h5M52 27h4M25 28h2M33 28h7M52 28h4M25 29h2M52 29h4M25 30h2M52 30h4M26 31h1M52 31h4M26 32h1M52 32h3M26 33h2M51 33h4M27 34h1M51 34h3M27 35h2M50 35h4M28 36h1M50 36h3M28 37h2M49 37h4M29 38h3M48 38h4M30 39h3M47 39h4M32 40h3M46 40h3M33 41h5M43 41h4M36 42h10M42 43h3M43 44h2M43 45h2M43 46h3M43 47h5M41 48h8M42 49h8M42 50h3M49 50h2M41 51h4M49 51h2M39 52h5M49 52h3M40 53h4M49 53h3M39 54h5M50 54h1M39 55h5M38 56h7M40 57h3" />
<path stroke="#ff739c" d="M35 15h7M33 16h10M31 17h3M30 18h2M29 19h2M29 20h1M39 49h1M41 49h1M38 50h1M41 50h1M39 51h2" />
<path stroke="#101010" d="M38 17h4M39 18h5M41 19h5M44 20h4M47 21h2M48 22h2M54 22h1M29 23h1M47 23h1M49 23h1M33 24h1M36 24h1M47 24h1M50 24h1M55 24h1M28 25h1M34 25h1M36 25h4M46 25h1M28 26h1M35 26h1M40 26h1M44 26h1M41 27h3M27 28h1M44 28h1M56 28h1M27 29h1M33 29h1M42 29h3M56 29h1M28 30h1M35 30h2M41 30h1M56 30h1M28 31h1M37 31h2M40 31h1M56 31h1M28 32h1M39 32h1M49 32h1M29 33h1M38 33h2M49 33h1M55 33h1M29 34h1M37 34h1M49 34h1M55 34h1M30 35h2M36 35h1M49 35h1M30 36h1M32 36h2M54 36h1M31 37h1M48 37h1M53 37h1M47 38h1M44 39h2M40 43h1M45 44h1M50 49h1M51 50h1M38 53h1M44 53h1M52 53h1M48 54h1M52 54h1M52 55h1M52 56h1M43 57h1M37 58h1M41 58h2M51 58h1M38 59h1M50 59h1M39 60h1M49 60h1M47 61h1M42 62h1M46 62h1M43 63h3" />
<path stroke="#4a4a52" d="M37 19h4M36 20h8M35 21h12M35 22h13M35 23h12M31 24h2M37 24h10M30 25h4M40 25h6M30 26h5M41 26h3M45 26h1M29 27h5M29 28h4M29 29h4M45 29h3M29 30h6M42 30h7M29 31h8M41 31h9M29 32h10M40 32h9M30 33h8M40 33h9M30 34h7M40 34h9M32 35h4M40 35h9M34 36h1M40 36h9M40 37h8M41 38h6M43 39h1" />
<path stroke="#bdbdbd" d="M46 50h1M45 51h1M48 51h1M38 55h1M47 55h1M46 56h1" />
<path stroke="#ffde73" d="M47 51h1M37 52h1M36 54h1M37 55h1" />
<path stroke="#e67319" d="M36 52h1M46 52h2M36 53h2M45 53h3M37 54h1M45 54h3M45 55h2" />
</svg>