<svg xmlns="http://www.w3.org/2000/svg" viewBox="0 -0.5 96 96" shape-rendering="crispEdges">
<metadata>Made with Pixels to Svg https://codepen.io/shshaw/pen/XbxvNj</metadata>
<path stroke="#6bad7b" d="M48 29h1M50 29h1M47 30h1M51 31h1M52 32h1M53 33h1M47 34h1M43 35h1M53 35h1M50 36h2M54 36h1M42 37h1M49 37h1M52 37h1M41 38h1M43 38h1M48 38h1M53 38h1M40 39h1M42 39h1M48 39h1M39 40h1M44 40h1M49 40h1M54 40h2M38 41h1M51 41h1M37 42h1M53 42h1M55 42h1M36 43h1M39 44h1M57 44h1M36 45h3M41 45h2M38 46h2M41 46h2M37 47h1M42 47h2M49 47h1M56 47h2M38 48h1M42 48h2M53 48h4M50 49h6M42 50h1M50 50h1M52 50h3M38 51h1M51 51h2M37 52h1M41 52h1M52 52h1M51 53h1M36 54h1M38 54h1M40 54h1M50 54h3M41 55h1M46 55h5M43 56h7M35 57h1M37 57h1M44 57h4M49 57h1M43 58h1M45 58h2M33 59h1M43 59h2M42 60h3M32 61h1M40 61h1M42 61h2M34 62h1M38 62h3M43 62h1M37 63h3M30 64h1M34 64h2M39 64h1M32 65h3M36 65h1M31 66h1M34 66h1" />
<path stroke="#313131" d="M49 29h1M51 30h1M47 31h1M46 32h2M45 33h1M47 33h1M44 34h1M53 34h1M43 36h1M43 37h1M54 37h1M51 38h1M54 38h1M41 39h1M50 39h2M53 39h2M40 40h1M50 40h3M39 41h1M44 41h1M50 41h1M55 41h1M39 42h1M43 42h1M39 43h1M42 43h1M52 43h1M56 43h1M36 44h1M41 44h1M51 44h1M39 45h2M50 45h1M58 45h1M37 46h1M40 46h1M49 46h1M58 46h1M38 47h1M41 47h1M50 48h1M57 48h1M38 49h1M56 49h1M38 50h1M51 50h1M55 50h1M53 51h2M53 52h1M37 53h1M52 53h1M39 54h1M36 55h1M42 55h1M51 55h1M36 56h1M50 56h1M36 57h1M43 57h1M48 57h1M34 58h1M38 58h1M44 58h1M47 58h1M39 59h1M45 59h2M33 60h1M40 60h1M45 60h1M41 61h1M44 61h1M32 62h2M41 62h2M31 63h1M35 63h1M40 63h1M36 64h3M30 65h1M35 65h1M32 66h2" />
<path stroke="#c5e694" d="M48 30h3M48 31h3M48 32h4M46 33h1M48 33h5M45 34h2M48 34h5M44 35h9M44 36h6M52 36h2M44 37h5M50 37h2M53 37h1M44 38h4M50 38h1M43 39h5M41 40h3M45 40h4M53 40h1M40 41h4M45 41h5M52 41h3M38 42h1M40 42h3M44 42h9M54 42h1M37 43h2M40 43h2M43 43h9M53 43h3M37 44h2M40 44h1M42 44h9M52 44h5M43 45h7M51 45h7M43 46h6M50 46h8M39 47h2M44 47h5M50 47h6M39 48h3M44 48h6M51 48h2M39 49h11M39 50h3M43 50h7M39 51h12M38 52h3M42 52h10M38 53h13M37 54h1M41 54h9M37 55h4M43 55h3M37 56h6M38 57h5M35 58h3M39 58h4M34 59h5M40 59h3M34 60h6M41 60h1M33 61h7M35 62h3M32 63h3M36 63h1M31 64h3M31 65h1" />
<path stroke="#ffffff" d="M42 38h1M49 38h1M52 38h1M49 39h1M52 39h1" />
</svg>