<svg xmlns="http://www.w3.org/2000/svg" viewBox="0 -0.5 96 96" shape-rendering="crispEdges">
<metadata>Made with Pixels to Svg https://codepen.io/shshaw/pen/XbxvNj</metadata>
<path stroke="#848473" d="M47 26h1M48 28h1M45 29h1M48 29h3M34 30h1M36 30h1M43 30h1M48 30h2M52 30h1M59 30h1M61 30h1M35 31h1M39 31h1M42 31h1M48 31h3M53 31h1M56 31h1M60 31h1M35 32h2M48 32h4M54 32h1M59 32h2M35 33h3M41 33h1M49 33h4M58 33h2M35 34h4M40 34h1M45 34h1M50 34h5M58 34h2M35 35h1M44 35h1M51 35h1M29 36h1M66 36h1M25 37h1M57 37h1M70 37h1M36 38h1M50 38h2M53 38h1M59 38h1M34 39h1M48 39h4M54 39h1M62 39h9M26 40h1M32 40h1M46 40h5M56 40h1M64 40h6M27 41h1M40 41h1M51 41h1M64 41h5M27 42h1M29 42h1M37 42h3M45 42h2M52 42h1M57 42h2M64 42h3M68 42h1M28 43h1M31 43h1M34 43h1M37 43h1M44 43h2M61 43h5M67 43h1M29 44h1M32 44h1M35 44h1M44 44h1M51 44h1M60 44h1M62 44h2M66 44h1M30 45h1M33 45h1M36 45h1M59 45h1M62 45h1M65 45h1M29 46h1M31 46h1M34 46h1M42 46h1M59 46h1M61 46h1M66 46h1M28 47h1M32 47h1M34 47h2M41 47h2M50 47h1M61 47h1M67 47h1M26 48h1M34 48h1M42 48h1M45 48h1M51 48h1M64 48h6M30 49h3M51 49h2M58 49h2M64 49h1M25 50h1M28 50h5M39 50h4M54 50h4M64 50h4M70 50h1M28 51h1M31 51h1M37 51h8M52 51h5M59 51h2M64 51h1M67 51h1M31 52h1M36 52h9M46 52h4M51 52h4M61 52h1M63 52h2M36 53h10M50 53h4M61 53h3M30 54h1M35 54h19M62 54h4M34 55h12M50 55h4M63 55h2M34 56h10M52 56h2M63 56h2M29 57h1M33 57h10M53 57h2M64 57h3M32 58h9M45 58h3M55 58h1M65 58h1M28 59h1M32 59h8M43 59h5M52 59h1M56 59h1M65 59h3M31 60h7M43 60h2M51 60h2M58 60h1M66 60h1M30 61h7M39 61h1M43 61h2M51 61h2M56 61h1M59 61h1M27 62h2M30 62h5M37 62h1M44 62h2M50 62h2M58 62h1M61 62h1M68 62h1M28 63h6M35 63h1M43 63h1M45 63h1M50 63h3M60 63h1M62 63h2M67 63h1M28 64h4M33 64h1M45 64h2M49 64h2M62 64h1M64 64h4M31 65h1M46 65h1M49 65h1M64 65h1M47 66h2" />
<path stroke="#313131" d="M48 26h1M46 27h1M49 27h1M45 28h1M50 28h1M44 29h1M51 29h1M35 30h1M44 30h1M51 30h1M60 30h1M34 31h1M37 31h2M43 31h1M52 31h1M57 31h2M61 31h1M34 32h1M40 32h3M53 32h1M55 32h1M61 32h1M34 33h1M40 33h1M47 33h2M54 33h2M60 33h2M34 34h1M39 34h1M46 34h1M49 34h1M56 34h2M60 34h2M34 35h1M36 35h2M40 35h4M52 35h4M58 35h4M30 36h5M38 36h2M42 36h1M44 36h2M47 36h5M53 36h1M56 36h2M61 36h5M26 37h3M39 37h3M43 37h1M51 37h2M54 37h3M67 37h3M24 38h1M37 38h4M52 38h1M55 38h4M71 38h1M24 39h1M35 39h2M40 39h1M43 39h1M52 39h2M55 39h1M59 39h3M71 39h1M25 40h1M33 40h1M40 40h1M42 40h1M44 40h1M51 40h5M62 40h2M70 40h1M26 41h1M32 41h1M37 41h3M41 41h1M45 41h6M52 41h3M56 41h3M63 41h1M69 41h1M28 42h1M32 42h5M42 42h1M44 42h1M47 42h5M53 42h1M59 42h5M67 42h1M29 43h2M35 43h2M40 43h1M43 43h1M46 43h7M55 43h1M59 43h2M66 43h1M30 44h2M36 44h1M39 44h1M45 44h6M56 44h1M59 44h1M64 44h2M31 45h2M37 45h2M42 45h1M53 45h1M57 45h2M63 45h2M30 46h1M32 46h2M37 46h1M41 46h1M46 46h1M49 46h1M54 46h1M58 46h1M62 46h4M33 47h1M36 47h1M40 47h1M46 47h1M49 47h1M55 47h1M59 47h1M62 47h5M27 48h1M33 48h1M35 48h1M39 48h3M50 48h1M54 48h3M60 48h1M62 48h2M25 49h1M33 49h1M35 49h1M38 49h5M45 49h1M50 49h1M53 49h5M60 49h1M62 49h2M70 49h1M26 50h2M36 50h3M43 50h3M50 50h4M58 50h2M63 50h1M68 50h2M29 51h2M32 51h1M36 51h1M45 51h1M50 51h2M63 51h1M65 51h2M35 52h1M45 52h1M50 52h1M31 53h1M35 53h1M46 53h4M64 53h1M34 54h1M30 55h1M46 55h4M65 55h1M30 56h1M33 56h1M44 56h8M65 56h1M43 57h10M29 58h1M41 58h4M48 58h7M66 58h1M31 59h1M40 59h3M48 59h4M53 59h3M28 60h1M38 60h5M48 60h3M53 60h5M67 60h1M28 61h1M37 61h2M42 61h1M48 61h3M53 61h1M57 61h2M67 61h1M29 62h1M35 62h2M43 62h1M48 62h2M52 62h1M59 62h2M27 63h1M34 63h1M44 63h1M48 63h2M61 63h1M68 63h1M27 64h1M32 64h1M44 64h1M48 64h1M51 64h1M63 64h1M68 64h1M28 65h3M45 65h1M48 65h1M50 65h1M65 65h3M46 66h1M49 66h1M47 67h2" />
<path stroke="#cece94" d="M47 27h2M47 28h1M49 28h1M47 29h1M47 30h1M50 30h1M47 31h1M51 31h1M59 31h1M38 32h2M47 32h1M52 32h1M56 32h3M39 33h1M46 33h1M53 33h1M56 33h2M41 34h4M47 34h2M55 34h1M38 35h1M57 35h1M37 36h1M40 36h1M46 36h1M55 36h1M58 36h2M38 37h1M44 37h1M49 37h2M53 37h1M58 37h9M25 38h1M35 38h1M41 38h1M43 38h1M47 38h3M54 38h1M60 38h1M25 39h9M45 39h3M27 40h5M37 40h3M45 40h1M57 40h2M28 41h4M34 41h3M43 41h2M55 41h1M59 41h4M30 42h2M41 42h1M43 42h1M54 42h1M32 43h2M38 43h1M42 43h1M53 43h1M58 43h1M33 44h2M37 44h1M43 44h1M52 44h1M57 44h2M61 44h1M34 45h2M41 45h1M44 45h8M54 45h1M60 45h2M35 46h2M40 46h1M50 46h1M55 46h1M60 46h1M29 47h3M39 47h1M51 47h1M54 47h1M56 47h1M60 47h1M28 48h5M38 48h1M49 48h1M52 48h2M57 48h3M61 48h1M26 49h4M34 49h1M36 49h2M43 49h2M49 49h1M61 49h1M65 49h5M33 50h3M49 50h1M60 50h3M33 51h3M46 51h4M57 51h2M61 51h2M32 52h3M55 52h5M62 52h1M32 53h3M54 53h7M31 54h3M54 54h8M31 55h3M54 55h8M31 56h2M54 56h9M30 57h3M55 57h9M30 58h2M56 58h8M29 59h2M57 59h8M29 60h2M45 60h3M59 60h7M29 61h1M45 61h3M60 61h6M46 62h2M62 62h5M46 63h2M64 63h3M47 64h1M47 65h1" />
<path stroke="#ffffff" d="M46 28h1M46 29h1M45 30h2M36 31h1M44 31h3M37 32h1M43 32h4M38 33h1M42 33h4M39 35h1M45 35h6M56 35h1M35 36h2M41 36h1M43 36h1M52 36h1M54 36h1M60 36h1M29 37h9M42 37h1M45 37h4M26 38h9M42 38h1M44 38h3M61 38h10M37 39h3M41 39h2M44 39h1M56 39h3M34 40h3M41 40h1M43 40h1M59 40h3M33 41h1M42 41h1M40 42h1M55 42h2M39 43h1M41 43h1M54 43h1M56 43h2M38 44h1M40 44h3M53 44h3M39 45h2M43 45h1M52 45h1M55 45h2M38 46h2M43 46h3M47 46h2M51 46h3M56 46h2M37 47h2M43 47h3M47 47h2M52 47h2M57 47h2M36 48h2M43 48h2M46 48h3M46 49h3M46 50h3M60 52h1M62 55h1M64 58h1M66 61h1M67 62h1" />
</svg>