<svg xmlns="http://www.w3.org/2000/svg" viewBox="0 -0.5 96 96" shape-rendering="crispEdges">
<metadata>Made with Pixels to Svg https://codepen.io/shshaw/pen/XbxvNj</metadata>
<path stroke="#d64a31" d="M46 26h1M49 26h1M43 27h1M45 27h1M50 27h1M54 27h1M57 27h1M42 28h1M53 28h1M51 29h1M34 30h1M39 30h1M41 30h1M38 31h1M48 31h1M50 31h1M55 31h1M68 31h1M49 32h1M52 32h1M58 32h1M66 32h1M30 33h1M53 33h1M55 33h1M65 33h1M34 34h1M37 34h1M50 34h1M60 34h1M35 35h1M38 35h1M41 35h1M49 35h1M54 35h1M58 35h1M62 35h1M66 35h1M37 36h1M47 36h1M60 36h1M65 36h1M35 37h1M39 37h1M42 37h1M64 37h1M68 37h1M36 38h1M38 38h1M40 38h1M44 38h1M62 38h1M65 38h1M67 38h1M30 39h1M41 39h1M54 39h1M60 39h1M64 39h1M31 40h1M37 40h1M39 40h1M42 40h1M53 40h1M55 40h2M59 40h1M63 40h1M66 40h1M40 41h1M44 41h1M58 41h1M62 41h1M29 42h1M41 42h2M44 42h1M57 42h1M61 42h1M32 43h1M45 43h1M51 43h1M55 43h1M59 43h1M25 44h1M31 44h1M41 44h1M46 44h1M49 44h1M61 44h1M63 44h1M42 45h2M52 45h1M55 45h1M57 45h1M60 45h1M51 46h1M56 46h1M59 46h1M26 47h1M35 47h1M38 47h1M42 47h1M56 47h1M60 47h1M27 48h1M41 48h1M43 48h1M55 48h2M61 48h1M44 49h1M53 49h4M62 49h1M35 50h1M41 50h1M47 50h1M52 50h4M57 50h1M25 51h1M42 51h1M51 51h3M55 51h1M62 51h1M36 52h1M44 52h1M50 52h2M53 52h1M63 52h1M25 53h1M35 53h1M46 53h1M50 53h1M26 54h1M63 54h1M35 56h1M62 56h1M36 57h1M29 58h1M62 58h1M37 59h1M61 59h1M31 60h1M33 61h1M39 61h1M52 61h1M55 61h2M60 61h1M34 62h1M39 62h1M50 62h2M55 62h2M59 62h1M39 63h2M49 63h1M56 63h1M38 64h1M41 64h1M43 64h1M49 64h1M57 64h1M43 65h5M49 65h2M39 66h1M45 66h3M49 66h1M51 66h1M55 66h1M40 67h1M47 67h1M44 69h1M49 69h1" />
<path stroke="#313131" d="M47 26h2M44 27h1M55 27h2M49 28h1M52 28h1M58 28h1M42 29h1M50 29h1M59 29h1M35 30h1M40 30h1M60 30h1M34 31h1M36 31h1M49 31h1M56 31h1M61 31h1M31 32h1M34 32h1M37 32h2M51 32h1M55 32h1M57 32h1M62 32h1M67 32h2M32 33h1M34 33h1M39 33h1M50 33h1M59 33h1M62 33h1M64 33h1M68 33h1M30 34h1M33 34h1M40 34h1M53 34h1M56 34h1M62 34h2M68 34h1M30 35h1M37 35h1M48 35h1M57 35h1M60 35h2M68 35h1M30 36h1M35 36h1M38 36h1M41 36h1M46 36h1M54 36h1M59 36h1M66 36h1M68 36h1M30 37h1M38 37h1M45 37h1M54 37h1M58 37h1M65 37h1M30 38h1M39 38h1M42 38h1M54 38h1M57 38h1M63 38h2M36 39h1M39 39h2M43 39h1M56 39h1M61 39h3M67 39h1M27 40h1M40 40h2M43 40h1M60 40h3M26 41h1M28 41h1M31 41h1M37 41h1M41 41h2M53 41h1M55 41h1M59 41h3M66 41h1M25 42h1M31 42h1M38 42h1M52 42h1M55 42h1M58 42h3M65 42h1M25 43h1M29 43h1M39 43h1M50 43h1M57 43h2M64 43h1M30 44h1M40 44h1M47 44h2M62 44h1M26 45h1M39 45h1M53 45h2M58 45h2M26 46h1M38 46h1M42 46h2M52 46h1M55 46h1M57 46h1M36 47h1M43 47h1M51 47h2M55 47h1M57 47h1M35 48h1M37 48h1M44 48h1M51 48h4M57 48h1M27 49h1M35 49h1M41 49h1M51 49h2M57 49h1M26 50h2M46 50h1M56 50h1M62 50h1M36 51h1M43 51h1M54 51h1M25 52h1M45 52h1M52 52h1M47 53h3M63 53h1M35 54h1M26 55h1M35 55h1M62 55h1M27 56h1M28 57h1M61 57h1M37 58h1M29 59h1M30 60h1M38 60h1M60 60h1M32 61h1M38 61h1M51 61h1M53 61h2M35 62h4M40 62h1M57 62h2M38 63h1M41 63h1M50 63h1M57 63h1M44 64h5M50 64h1M39 65h1M42 65h1M48 65h1M52 65h1M54 65h1M56 65h1M42 66h1M48 66h1M52 66h3M41 67h2M48 67h1M43 68h1M45 68h1M47 68h1M49 68h1M45 69h4" />
<path stroke="#ffffff" d="M46 27h4M43 28h6M54 28h4M43 29h7M52 29h7M42 30h18M39 31h9M51 31h4M57 31h4M39 32h10M50 32h1M53 32h2M56 32h1M59 32h3M31 33h1M40 33h10M51 33h2M54 33h1M56 33h3M60 33h2M31 34h2M41 34h9M51 34h2M54 34h2M57 34h3M61 34h1M31 35h4M42 35h3M50 35h4M55 35h2M59 35h1M31 36h4M42 36h1M48 36h5M55 36h4M31 37h4M46 37h7M56 37h2M31 38h5M45 38h5M51 38h1M31 39h5M44 39h6M32 40h5M44 40h5M27 41h1M32 41h5M45 41h2M26 42h3M32 42h6M45 42h2M26 43h3M33 43h6M46 43h1M26 44h4M33 44h7M27 45h12M27 46h7M35 46h3M39 46h1M44 46h1M54 46h1M27 47h7M37 47h1M39 47h1M44 47h1M53 47h2M28 48h5M36 48h1M38 48h3M28 49h4M36 49h5M28 50h4M36 50h5M26 51h5M37 51h5M26 52h5M37 52h7M26 53h2M30 53h2M36 53h9M27 54h1M36 54h9M51 54h2M27 55h2M36 55h10M49 55h5M28 56h2M36 56h19M29 57h1M37 57h18M38 58h17M38 59h17M39 60h13M40 61h1M43 61h6M44 62h3" />
<path stroke="#ffc55a" d="M35 31h1M35 32h2M35 33h4M66 33h2M35 34h2M38 34h2M64 34h4M36 35h1M39 35h2M45 35h3M63 35h3M67 35h1M36 36h1M39 36h2M43 36h3M53 36h1M61 36h4M67 36h1M36 37h2M40 37h2M43 37h2M53 37h1M55 37h1M59 37h5M66 37h2M37 38h1M41 38h1M43 38h1M50 38h1M52 38h2M55 38h2M58 38h4M66 38h1M37 39h2M42 39h1M50 39h4M55 39h1M57 39h3M65 39h2M38 40h1M49 40h4M54 40h1M57 40h2M64 40h2M38 41h2M43 41h1M47 41h6M54 41h1M56 41h2M63 41h3M39 42h2M43 42h1M47 42h5M53 42h2M56 42h1M62 42h3M40 43h5M47 43h3M52 43h3M56 43h1M60 43h4M32 44h1M42 44h4M50 44h11M40 45h2M44 45h8M56 45h1M34 46h1M40 46h2M45 46h6M53 46h1M58 46h1M34 47h1M40 47h2M45 47h6M58 47h2M33 48h2M42 48h1M45 48h6M58 48h3M32 49h3M42 49h2M45 49h6M58 49h4M32 50h3M42 50h4M48 50h4M58 50h4M31 51h5M44 51h7M56 51h6M31 52h5M46 52h4M54 52h9M28 53h2M32 53h3M45 53h1M51 53h12M28 54h7M45 54h6M53 54h10M29 55h6M46 55h3M54 55h8M30 56h5M55 56h7M30 57h6M55 57h6M30 58h7M55 58h7M30 59h7M55 59h6M32 60h6M52 60h8M34 61h4M41 61h2M49 61h2M57 61h3M41 62h3M47 62h3M52 62h3M42 63h7M51 63h5M39 64h2M42 64h1M51 64h6M40 65h2M51 65h1M53 65h1M55 65h1M40 66h2M43 66h2M43 67h4M44 68h1M46 68h1M48 68h1" />
</svg>