<svg xmlns="http://www.w3.org/2000/svg" viewBox="0 -0.5 96 96" shape-rendering="crispEdges">
<metadata>Made with Pixels to Svg https://codepen.io/shshaw/pen/XbxvNj</metadata>
<path stroke="#4a52a5" d="M46 26h1M56 26h1M53 28h1M56 28h2M45 29h1M49 29h1M53 29h1M56 29h1M44 30h1M49 30h2M55 30h2M41 31h1M49 31h2M53 31h1M56 31h1M40 32h1M49 32h1M51 32h1M55 32h1M59 32h1M39 33h1M41 33h1M46 33h1M50 33h1M38 34h1M44 34h1M49 34h1M61 34h1M37 35h1M40 35h1M45 35h1M37 36h1M41 36h1M44 36h4M50 36h1M61 36h2M42 37h1M44 37h3M48 37h1M51 37h1M57 37h2M60 37h2M31 38h1M36 38h1M44 38h3M56 38h2M61 38h3M32 39h1M35 39h1M42 39h1M45 39h1M55 39h2M58 39h2M61 39h2M28 40h1M39 40h1M41 40h1M43 40h1M45 40h1M54 40h1M57 40h4M62 40h3M31 41h1M35 41h1M43 41h1M53 41h3M57 41h2M60 41h1M62 41h2M27 42h1M42 42h2M52 42h4M57 42h1M60 42h1M62 42h2M33 43h1M36 43h1M42 43h3M52 43h4M57 43h1M60 43h1M62 43h2M32 44h1M37 44h1M43 44h4M52 44h4M57 44h1M60 44h1M62 44h2M31 45h1M43 45h3M52 45h3M56 45h1M58 45h1M60 45h1M62 45h2M31 46h1M39 46h1M44 46h2M51 46h4M56 46h1M58 46h1M60 46h1M62 46h2M27 47h1M31 47h2M52 47h1M56 47h1M58 47h1M60 47h1M62 47h2M24 48h1M28 48h1M32 48h3M41 48h1M44 48h1M51 48h3M56 48h1M58 48h3M63 48h2M26 49h1M33 49h1M39 49h1M47 49h8M56 49h1M58 49h2M61 49h1M27 50h1M35 50h1M39 50h8M50 50h5M56 50h1M58 50h2M63 50h1M30 51h1M40 51h5M51 51h1M53 51h1M57 51h1M27 52h1M33 52h1M42 52h3M48 52h1M58 52h2M66 52h1M24 53h1M27 53h2M31 53h1M34 53h1M38 53h1M47 53h1M66 53h1M27 54h1M30 54h1M32 54h1M35 54h1M39 54h1M48 54h1M65 54h2M28 55h1M37 55h1M40 55h1M45 55h1M52 55h1M65 55h1M28 56h2M36 56h1M50 56h1M64 56h1M24 57h1M29 57h3M43 57h1M49 57h1M62 57h2M25 58h1M29 58h4M46 58h1M54 58h2M60 58h2M42 59h1M44 59h1M53 59h4M30 60h1M48 60h1M53 60h2M56 60h2M29 61h3M36 61h1M53 61h7M70 61h1M24 62h1M28 62h2M53 62h3M57 62h5M66 62h1M38 63h1M47 63h1M54 63h3M60 63h4M26 64h1M39 64h3M45 64h1M54 64h4M59 64h1M66 64h1M68 64h1M28 65h1M36 65h6M56 65h2M60 65h1M65 65h1M34 66h5M47 66h1M57 66h3M64 66h1M26 67h1M33 67h4M49 67h1M60 67h1M63 67h1M31 68h2M35 68h1M51 68h1M61 68h1M26 69h1M31 69h1M52 69h1M55 69h1M60 69h1M56 70h1M59 70h1M63 70h1M65 70h1" />
<path stroke="#313131" d="M47 26h1M55 26h1M46 27h1M48 27h1M54 27h1M56 27h1M46 28h1M49 28h1M46 29h1M50 29h3M57 29h1M43 30h1M46 30h1M51 30h1M54 30h1M57 30h1M42 31h1M46 31h1M51 31h2M57 31h1M46 32h1M50 32h1M54 32h1M58 32h1M42 33h1M49 33h1M56 33h1M60 33h1M41 34h1M43 34h1M47 34h2M57 34h1M38 35h2M41 35h1M46 35h2M58 35h1M61 35h1M48 36h2M59 36h1M36 37h1M47 37h1M50 37h1M59 37h1M62 37h1M30 38h1M42 38h1M47 38h1M52 38h2M58 38h3M29 39h1M46 39h1M54 39h1M57 39h1M60 39h1M63 39h1M32 40h1M35 40h1M40 40h1M44 40h1M55 40h2M61 40h1M28 41h1M39 41h1M42 41h1M56 41h1M59 41h1M61 41h1M64 41h1M31 42h1M34 42h1M39 42h1M44 42h1M56 42h1M58 42h2M61 42h1M64 42h1M27 43h1M31 43h1M34 43h2M39 43h1M45 43h1M56 43h1M58 43h2M61 43h1M64 43h1M27 44h1M31 44h1M33 44h1M38 44h2M56 44h1M58 44h2M61 44h1M64 44h1M27 45h1M32 45h1M39 45h1M46 45h1M55 45h1M57 45h1M59 45h1M61 45h1M64 45h1M27 46h1M32 46h1M46 46h5M55 46h1M57 46h1M59 46h1M61 46h1M64 46h1M25 47h1M33 47h4M40 47h1M45 47h1M53 47h3M57 47h1M59 47h1M61 47h1M64 47h1M26 48h1M35 48h3M42 48h2M54 48h2M57 48h1M61 48h2M24 49h1M28 49h1M34 49h1M38 49h1M55 49h1M57 49h1M60 49h1M62 49h2M24 50h1M29 50h1M33 50h1M47 50h3M55 50h1M57 50h1M60 50h3M24 51h1M27 51h1M33 51h1M35 51h1M39 51h1M45 51h2M52 51h1M54 51h3M58 51h5M66 51h2M24 52h1M30 52h1M35 52h1M39 52h3M45 52h1M52 52h6M60 52h3M64 52h2M67 52h1M30 53h1M35 53h1M39 53h1M44 53h2M48 53h1M52 53h1M55 53h7M63 53h1M67 53h1M25 54h1M28 54h1M31 54h1M36 54h3M40 54h6M47 54h1M52 54h1M58 54h5M67 54h1M25 55h1M29 55h1M31 55h2M41 55h3M46 55h2M66 55h1M26 56h1M30 56h3M40 56h4M47 56h1M51 56h1M65 56h1M27 57h1M32 57h1M36 57h7M48 57h1M64 57h3M24 58h1M28 58h1M36 58h10M48 58h1M62 58h5M70 58h1M24 59h2M29 59h3M36 59h1M39 59h3M45 59h4M57 59h9M69 59h1M71 59h1M24 60h1M26 60h1M29 60h1M31 60h1M36 60h1M39 60h3M47 60h1M55 60h1M58 60h6M68 60h1M71 60h1M24 61h1M27 61h2M39 61h3M47 61h1M60 61h1M67 61h1M30 62h1M37 62h1M39 62h3M47 62h1M56 62h1M62 62h4M69 62h2M25 63h1M29 63h1M39 63h3M46 63h1M57 63h1M69 63h1M27 64h2M42 64h3M58 64h1M67 64h1M58 65h1M61 65h4M27 66h1M39 66h8M65 66h1M37 67h1M48 67h1M61 67h2M66 67h1M26 68h1M33 68h2M50 68h1M63 68h1M67 68h1M27 69h4M53 69h2M62 69h1M66 69h1M57 70h2M64 70h1" />
<path stroke="#adb5ff" d="M47 27h1M47 28h2M55 28h1M47 29h2M54 29h2M47 30h2M52 30h2M47 31h2M54 31h2M47 32h2M52 32h2M56 32h2M47 33h2M51 33h5M57 33h3M50 34h7M58 34h3M43 35h2M48 35h10M59 35h2M43 36h1M51 36h8M60 36h1M41 37h1M43 37h1M49 37h1M52 37h5M41 38h1M43 38h1M48 38h4M54 38h2M30 39h2M40 39h2M43 39h2M47 39h7M29 40h3M42 40h1M46 40h8M29 41h2M41 41h1M44 41h9M28 42h3M38 42h1M41 42h1M45 42h7M28 43h3M38 43h1M41 43h1M46 43h6M28 44h3M34 44h3M41 44h2M47 44h5M28 45h3M33 45h6M41 45h2M47 45h5M28 46h3M33 46h6M40 46h4M28 47h3M37 47h3M41 47h4M46 47h6M25 48h1M29 48h3M38 48h3M45 48h6M25 49h1M29 49h4M40 49h7M25 50h2M30 50h3M25 51h2M31 51h2M25 52h2M31 52h2M34 52h1M38 52h1M25 53h2M32 53h2M36 53h2M40 53h4M53 53h2M64 53h2M26 54h1M33 54h2M46 54h1M51 54h1M53 54h5M63 54h2M26 55h2M33 55h4M48 55h4M53 55h12M27 56h1M33 56h3M46 56h1M48 56h2M52 56h12M28 57h1M33 57h3M46 57h2M50 57h12M33 58h3M47 58h1M49 58h5M56 58h4M32 59h4M49 59h4M70 59h1M25 60h1M32 60h4M45 60h2M49 60h4M69 60h2M25 61h2M32 61h4M37 61h2M44 61h3M48 61h5M68 61h2M25 62h3M31 62h6M38 62h1M43 62h4M48 62h5M67 62h2M26 63h3M30 63h8M42 63h4M48 63h6M58 63h2M64 63h5M29 64h10M46 64h8M60 64h6M29 65h7M42 65h14M59 65h1M28 66h6M48 66h9M60 66h4M27 67h6M50 67h10M64 67h2M27 68h4M52 68h9M64 68h3M56 69h4M63 69h3" />
<path stroke="#ffffff" d="M55 27h1M54 28h1M45 30h1M43 31h3M41 32h5M40 33h1M43 33h3M39 34h2M42 34h1M45 34h2M42 35h1M38 36h3M42 36h1M37 37h4M37 38h4M36 39h4M36 40h3M36 41h3M40 41h1M35 42h3M40 42h1M37 43h1M40 43h1M40 44h1M40 45h1M35 49h3M34 50h1M36 50h3M34 51h1M36 51h3M47 51h4M36 52h2M46 52h2M49 52h3M46 53h1M49 53h3M62 53h1M49 54h2M38 55h2M44 55h1M37 56h3M44 56h2M44 57h2M37 59h2M43 59h1M37 60h2M42 60h3M42 61h2M42 62h1M62 68h1" />
</svg>