<svg xmlns="http://www.w3.org/2000/svg" viewBox="0 -0.5 96 96" shape-rendering="crispEdges">
<metadata>Made with Pixels to Svg https://codepen.io/shshaw/pen/XbxvNj</metadata>
<path stroke="#947352" d="M65 20h1M71 20h1M59 21h1M69 21h1M72 21h1M32 22h1M36 22h1M56 22h1M58 22h1M64 22h1M28 23h1M31 23h1M34 23h4M39 23h1M53 23h1M55 23h1M60 23h1M72 23h1M26 24h1M31 24h3M42 24h1M52 24h1M58 24h1M24 25h1M29 25h2M37 25h1M40 25h3M49 25h2M55 25h1M70 25h1M73 25h1M35 26h1M37 26h6M46 26h5M69 26h1M23 27h1M33 27h1M35 27h6M43 27h6M50 27h1M64 27h1M66 27h1M33 28h7M41 28h6M54 28h1M57 28h1M61 28h1M63 28h1M23 29h1M32 29h7M40 29h6M47 29h1M52 29h1M58 29h1M75 29h1M21 30h1M25 30h1M31 30h7M39 30h6M51 30h1M74 30h1M24 31h1M29 31h1M31 31h7M39 31h4M58 31h1M67 31h1M72 31h1M30 32h8M39 32h3M57 32h1M63 32h1M66 32h1M20 33h1M23 33h1M28 33h1M30 33h7M39 33h3M60 33h1M62 33h1M73 33h1M26 34h1M29 34h6M40 34h2M55 34h1M58 34h2M21 35h1M26 35h1M29 35h5M41 35h2M54 35h1M71 35h1M25 36h1M27 36h7M41 36h2M52 36h1M58 36h1M69 36h1M20 37h1M25 37h1M28 37h5M34 37h1M41 37h2M65 37h1M24 38h3M28 38h2M34 38h3M41 38h2M60 38h1M68 38h1M25 39h1M27 39h2M36 39h2M40 39h3M54 39h1M56 39h1M69 39h1M21 40h1M27 40h2M37 40h2M40 40h3M51 40h1M53 40h1M33 41h1M37 41h2M40 41h4M50 41h1M68 41h1M23 42h1M29 42h1M31 42h1M36 42h2M40 42h2M48 42h1M56 42h1M62 42h1M65 42h1M36 43h2M40 43h2M54 43h1M63 43h1M27 44h1M31 44h1M35 44h3M39 44h3M53 44h1M29 45h1M31 45h1M35 45h3M39 45h3M51 45h1M53 45h1M64 45h1M27 46h3M34 46h3M38 46h4M49 46h1M54 46h1M56 46h1M62 46h1M71 46h1M27 47h1M34 47h3M38 47h3M46 47h1M48 47h1M57 47h1M61 47h4M24 48h1M34 48h1M37 48h4M61 48h5M70 48h1M35 49h5M51 49h1M61 49h11M30 50h1M37 50h2M49 50h1M54 50h1M59 50h2M62 50h8M46 51h1M57 51h5M64 51h5M31 52h1M45 52h1M58 52h4M64 52h1M68 52h1M42 53h1M46 53h1M49 53h1M51 53h1M60 53h3M32 54h1M56 54h1M61 54h3M69 54h1M45 55h1M49 55h1M54 55h2M63 55h2M67 55h1M33 56h1M47 56h4M53 56h4M65 56h1M69 56h1M52 57h6M66 57h1M68 57h1M34 58h1M57 58h2M66 58h1M35 59h1M39 59h1M36 60h2M57 60h1M33 61h1M37 61h1M58 61h2M61 61h3M26 62h1M29 62h1M34 62h1M55 62h1M57 62h4M63 62h3M24 63h1M29 63h1M47 63h1M52 63h1M58 63h5M64 63h4M28 64h3M32 64h1M34 64h1M38 64h1M54 64h4M59 64h5M66 64h4M25 65h1M29 65h3M34 65h3M39 65h1M46 65h1M55 65h4M60 65h6M67 65h5M22 66h1M24 66h1M29 66h1M32 66h4M37 66h3M43 66h1M45 66h1M56 66h4M61 66h6M69 66h5M21 67h1M27 67h1M29 67h1M34 67h1M36 67h4M42 67h1M57 67h4M62 67h7M70 67h3M26 68h2M36 68h3M58 68h4M63 68h7M71 68h2M25 69h2M28 69h1M31 69h3M37 69h1M59 69h4M64 69h7M72 69h2M20 70h1M26 70h1M29 70h5M37 70h2M60 70h4M65 70h7M30 71h2M35 71h1M37 71h3M61 71h4M66 71h6M22 72h1M30 72h1M36 72h1M61 72h1M64 72h1M67 72h4M20 73h1M37 73h1M40 73h1M67 73h1M70 73h1M26 74h1M41 75h1" />
<path stroke="#313131" d="M66 20h5M60 21h9M33 22h3M57 22h1M61 22h3M72 22h1M29 23h2M38 23h1M54 23h1M59 23h1M27 24h1M40 24h2M50 24h2M56 24h2M71 24h1M25 25h1M38 25h2M43 25h6M53 25h2M71 25h2M24 26h1M36 26h1M43 26h3M51 26h2M67 26h2M74 26h1M34 27h1M41 27h2M49 27h1M65 27h1M75 27h1M23 28h1M32 28h1M40 28h1M47 28h2M55 28h2M62 28h1M75 28h1M31 29h1M39 29h1M46 29h1M53 29h1M22 30h1M30 30h1M38 30h1M45 30h1M50 30h1M58 30h1M73 30h1M21 31h1M30 31h1M38 31h1M43 31h2M68 31h4M21 32h1M24 32h1M29 32h1M38 32h1M42 32h2M64 32h2M73 32h1M29 33h1M37 33h2M42 33h1M57 33h1M61 33h1M20 34h1M23 34h1M28 34h1M35 34h3M39 34h1M42 34h1M56 34h2M72 34h1M20 35h1M23 35h1M28 35h1M34 35h5M40 35h1M43 35h1M53 35h1M59 35h1M70 35h1M20 36h2M23 36h1M34 36h7M43 36h1M51 36h1M66 36h3M21 37h3M27 37h1M33 37h1M35 37h6M43 37h1M58 37h1M63 37h2M21 38h3M27 38h1M30 38h3M37 38h4M43 38h1M57 38h1M61 38h7M21 39h4M26 39h1M29 39h3M34 39h2M38 39h2M43 39h1M55 39h1M59 39h1M22 40h5M29 40h3M34 40h3M39 40h1M43 40h1M52 40h1M56 40h1M69 40h1M22 41h2M26 41h4M31 41h2M34 41h3M39 41h1M49 41h1M56 41h1M67 41h1M22 42h1M27 42h2M30 42h1M34 42h2M38 42h2M42 42h1M57 42h5M66 42h1M22 43h1M28 43h3M34 43h2M38 43h2M42 43h1M55 43h1M64 43h2M21 44h1M28 44h3M34 44h1M38 44h1M42 44h1M65 44h1M21 45h1M26 45h3M30 45h1M34 45h1M38 45h1M42 45h1M52 45h1M21 46h1M25 46h2M30 46h2M33 46h1M37 46h1M50 46h1M55 46h1M63 46h2M21 47h1M24 47h1M28 47h3M33 47h1M37 47h1M41 47h1M47 47h1M54 47h1M58 47h3M65 47h1M70 47h2M21 48h1M23 48h1M25 48h5M35 48h2M53 48h1M59 48h2M66 48h4M71 48h1M22 49h1M28 49h2M52 49h1M59 49h2M29 50h1M50 50h4M58 50h1M61 50h1M70 50h1M30 51h1M47 51h5M55 51h2M62 51h2M69 51h1M44 52h1M50 52h1M57 52h1M62 52h1M65 52h3M31 53h1M47 53h2M52 53h1M57 53h1M63 53h1M43 54h1M48 54h2M53 54h3M58 54h1M64 54h1M32 55h1M44 55h1M50 55h1M53 55h1M56 55h1M59 55h1M65 55h1M68 55h2M46 56h1M51 56h2M57 56h1M60 56h2M66 56h3M33 57h1M51 57h1M58 57h1M62 57h2M67 57h1M33 58h1M54 58h3M59 58h1M64 58h2M33 59h2M56 59h6M33 60h1M35 60h1M38 60h1M58 60h6M36 61h1M38 61h1M60 61h1M64 61h2M27 62h2M37 62h1M48 62h1M56 62h1M61 62h2M66 62h2M25 63h1M30 63h1M34 63h1M37 63h1M48 63h4M56 63h2M63 63h1M68 63h2M23 64h1M31 64h1M33 64h1M35 64h3M46 64h1M52 64h2M58 64h1M64 64h2M70 64h2M22 65h1M26 65h3M32 65h1M37 65h2M45 65h1M54 65h1M59 65h1M66 65h1M72 65h1M30 66h2M36 66h1M40 66h1M44 66h1M55 66h1M60 66h1M67 66h2M23 67h1M28 67h1M33 67h1M40 67h2M56 67h1M61 67h1M69 67h1M73 67h1M21 68h4M57 68h1M62 68h1M70 68h1M73 68h1M21 69h1M24 69h1M27 69h1M38 69h1M58 69h1M63 69h1M71 69h1M24 70h2M34 70h1M59 70h1M64 70h1M72 70h1M20 71h1M23 71h1M26 71h1M29 71h1M32 71h3M60 71h1M65 71h1M72 71h1M20 72h2M26 72h1M28 72h2M37 72h3M62 72h2M66 72h1M71 72h1M26 73h2M68 73h2M38 74h1M41 74h1M39 75h2" />
<path stroke="#d6bd94" d="M70 21h2M59 22h2M65 22h7M32 23h2M56 23h3M61 23h11M28 24h3M34 24h6M53 24h3M59 24h12M26 25h3M31 25h6M51 25h2M56 25h5M66 25h4M25 26h10M53 26h6M70 26h4M24 27h9M67 27h8M24 28h8M64 28h11M24 29h7M54 29h4M59 29h16M23 30h2M26 30h4M52 30h6M65 30h8M22 31h2M25 31h4M50 31h8M22 32h2M25 32h4M48 32h2M53 32h4M67 32h6M21 33h2M24 33h4M47 33h2M54 33h3M63 33h10M21 34h2M24 34h2M27 34h1M60 34h12M22 35h1M24 35h2M27 35h1M55 35h4M64 35h6M22 36h1M24 36h1M26 36h1M53 36h4M24 37h1M26 37h1M51 37h3M33 38h1M32 39h1M60 39h9M54 40h2M65 40h4M24 41h2M51 41h3M66 41h1M24 42h3M32 42h2M43 42h1M49 42h2M63 42h2M23 43h5M31 43h3M57 43h6M22 44h5M32 44h2M61 44h4M22 45h4M32 45h2M62 45h2M22 46h3M32 46h1M42 46h1M22 47h2M25 47h2M32 47h1M55 47h2M22 48h1M33 48h1M54 48h5M34 49h1M40 49h1M56 49h3M35 50h2M39 50h1M37 51h2M52 51h3M46 52h4M53 52h4M44 53h2M50 53h1M56 53h1M58 53h2M46 54h2M50 54h3M59 54h2M47 55h2M51 55h2M60 55h3M62 56h3M34 57h1M48 57h3M64 57h2M35 58h2M48 58h6M36 59h3M49 59h7M34 60h1M47 60h1M51 60h6M35 61h1M47 61h1M53 61h5M35 62h2M46 62h2M53 62h2M26 63h3M35 63h2M45 63h2M53 63h3M24 64h4M44 64h2M23 65h2M33 65h1M42 65h3M23 66h1M25 66h4M41 66h2M22 67h1M24 67h3M30 67h3M35 67h1M25 68h1M28 68h8M29 69h2M34 69h3M23 70h1M35 70h2M22 71h1M28 71h1M36 71h1M27 72h1M39 73h1M39 74h2" />
<path stroke="#ffffff" d="M61 25h5M59 26h8M51 27h13M49 28h5M58 28h3M48 29h4M46 30h4M59 30h6M45 31h5M59 31h8M44 32h4M50 32h3M58 32h5M43 33h4M49 33h5M58 33h2M38 34h1M43 34h12M39 35h1M44 35h9M60 35h4M44 36h7M57 36h1M59 36h7M44 37h7M54 37h4M59 37h4M44 38h13M58 38h2M33 39h1M44 39h10M57 39h2M32 40h2M44 40h7M57 40h8M30 41h1M44 41h5M54 41h2M57 41h9M44 42h4M51 42h5M43 43h11M56 43h1M43 44h10M54 44h7M43 45h8M54 45h8M43 46h6M51 46h3M57 46h5M31 47h1M42 47h4M49 47h5M30 48h3M41 48h12M30 49h4M41 49h10M53 49h3M31 50h4M40 50h9M55 50h3M31 51h6M39 51h7M32 52h12M51 52h2M63 52h1M32 53h10M43 53h1M53 53h3M33 54h10M44 54h2M33 55h11M46 55h1M34 56h12M35 57h13M37 58h11M40 59h9M39 60h8M48 60h3M34 61h1M39 61h8M48 61h5M38 62h8M49 62h4M38 63h7M39 64h5M40 65h2M22 69h2M21 70h2M27 70h2M21 71h1M27 71h1M38 73h1" />
</svg>