<svg xmlns="http://www.w3.org/2000/svg" viewBox="0 -0.5 96 96" shape-rendering="crispEdges">
<metadata>Made with Pixels to Svg https://codepen.io/shshaw/pen/XbxvNj</metadata>
<path stroke="#848473" d="M58 29h1M56 30h1M58 30h4M55 31h9M56 32h9M54 33h6M61 33h4M55 34h6M62 34h5M55 35h7M63 35h3M54 36h8M63 36h3M56 37h5M62 37h4M50 38h4M58 38h2M61 38h5M34 39h2M49 39h3M53 39h2M61 39h6M32 40h5M48 40h3M54 40h1M62 40h3M35 41h2M39 41h1M48 41h2M55 41h1M62 41h3M36 42h1M39 42h7M47 42h2M55 42h1M62 42h3M37 43h10M48 43h1M55 43h1M62 43h4M32 44h2M35 44h1M37 44h11M54 44h3M60 44h1M62 44h2M34 45h1M36 45h8M47 45h3M53 45h2M61 45h4M34 46h1M37 46h6M45 46h1M48 46h2M52 46h2M58 46h1M60 46h3M37 47h5M47 47h4M53 47h5M29 48h1M33 48h1M35 48h1M37 48h5M46 48h5M57 48h2M61 48h1M31 49h1M33 49h1M36 49h7M45 49h1M48 49h1M51 49h1M58 49h2M32 50h1M37 50h1M39 50h2M49 50h1M56 50h6M37 51h2M53 51h8M51 52h10M35 53h1M41 53h1M49 53h14M41 54h2M49 54h13M36 55h1M38 55h3M46 55h1M48 55h9M58 55h4M40 56h1M44 56h1M47 56h6M54 56h2M58 56h6M37 57h1M39 57h1M46 57h6M58 57h5M35 58h4M46 58h6M59 58h4M36 59h4M46 59h5M59 59h4M36 60h4M44 60h7M54 60h1M58 60h1M63 60h1M45 61h6M53 61h1M57 61h1M34 62h1M48 62h2M62 62h1M37 63h1M57 63h1M60 63h1M43 64h1M44 65h1M47 65h1" />
<path stroke="#313131" d="M59 29h3M57 30h1M62 30h2M64 31h1M55 32h1M65 32h1M60 33h1M65 33h1M54 34h1M61 34h1M54 35h1M62 35h1M66 35h1M62 36h1M66 36h1M50 37h4M55 37h1M61 37h1M66 37h1M34 38h2M49 38h1M54 38h1M56 38h2M60 38h1M66 38h1M33 39h1M36 39h1M48 39h1M52 39h1M55 39h1M58 39h3M37 40h1M47 40h1M51 40h1M55 40h1M61 40h1M65 40h1M32 41h1M34 41h1M37 41h1M40 41h8M50 41h1M56 41h1M61 41h1M65 41h1M32 42h1M35 42h1M37 42h2M46 42h1M49 42h1M56 42h1M61 42h1M65 42h1M32 43h1M35 43h2M47 43h1M49 43h1M56 43h1M61 43h1M36 44h1M48 44h2M61 44h1M64 44h1M33 45h1M35 45h1M44 45h3M50 45h1M55 45h1M60 45h1M35 46h2M43 46h2M47 46h1M50 46h1M54 46h4M59 46h1M63 46h1M34 47h1M36 47h1M42 47h1M45 47h1M51 47h2M58 47h5M30 48h3M34 48h1M36 48h1M42 48h1M45 48h1M51 48h6M59 48h2M30 49h1M34 49h2M43 49h2M49 49h2M57 49h1M60 49h1M33 50h1M36 50h1M38 50h1M53 50h3M33 51h1M51 51h2M61 51h1M34 52h1M36 52h1M41 52h1M49 52h2M61 52h1M36 53h1M42 53h1M48 53h1M36 54h1M47 54h2M62 54h1M37 55h1M41 55h1M47 55h1M57 55h1M62 55h1M36 56h4M45 56h2M53 56h1M57 56h1M36 57h1M38 57h1M43 57h3M52 57h2M56 57h2M63 57h1M39 58h7M52 58h4M58 58h1M63 58h1M35 59h1M40 59h6M51 59h4M58 59h1M63 59h1M35 60h1M40 60h1M51 60h3M34 61h1M39 61h1M44 61h1M51 61h2M62 61h1M35 62h1M38 62h1M44 62h1M50 62h1M57 62h1M59 62h1M61 62h1M35 63h2M43 63h1M49 63h1M58 63h2M44 64h1M46 64h1M48 64h1M45 65h2" />
<path stroke="#cece94" d="M52 40h2M33 41h1M51 41h4M33 42h2M50 42h5M33 43h2M50 43h5M34 44h1M50 44h4M51 45h2M51 46h1M35 47h1M44 47h1M43 48h2M46 49h2M56 49h1M34 50h2M41 50h1M48 50h1M52 50h1M36 51h1M39 51h1M50 51h1M42 52h1M38 54h1M40 54h1M45 55h1M43 56h1M56 56h1M42 57h1M54 57h2M59 60h1M62 60h1M35 61h1M38 61h1M58 61h1M61 61h1M45 62h3M60 62h1M48 63h1M47 64h1" />
<path stroke="#ffffff" d="M46 46h1M43 47h1M46 47h1M32 49h1M52 49h4M42 50h6M50 50h2M34 51h2M40 51h10M35 52h1M37 52h4M43 52h6M37 53h4M43 53h5M37 54h1M39 54h1M43 54h4M42 55h3M41 56h2M40 57h2M60 60h2M36 61h2M59 61h2M36 62h2M58 62h1M44 63h4M45 64h1" />
</svg>