<svg xmlns="http://www.w3.org/2000/svg" viewBox="0 -0.5 96 96" shape-rendering="crispEdges">
<metadata>Made with Pixels to Svg https://codepen.io/shshaw/pen/XbxvNj</metadata>
<path stroke="#b57bbd" d="M38 32h1M41 32h1M47 32h1M49 32h1M37 33h1M43 33h1M49 33h1M51 33h1M35 34h1M34 35h1M44 35h1M48 35h1M42 36h1M46 36h1M49 36h1M33 37h2M39 37h1M50 37h1M56 37h1M35 38h1M38 38h1M47 38h1M52 38h1M56 39h1M58 39h1M52 40h1M41 41h1M43 41h1M47 41h1M54 41h1M39 42h1M46 42h1M60 42h1M43 43h1M54 43h1M58 43h1M36 44h3M58 44h3M34 45h1M36 45h4M42 45h1M45 45h1M49 45h1M54 45h1M57 45h1M60 45h2M39 46h1M44 46h1M48 46h1M55 46h1M41 47h1M43 47h2M47 47h1M57 47h1M62 47h2M42 48h1M46 48h1M58 48h1M35 49h1M43 49h1M46 49h1M50 49h2M43 50h1M45 50h1M52 50h1M59 50h1M61 50h2M64 50h1M34 51h1M42 51h2M45 51h1M51 51h7M60 51h1M36 52h1M42 52h1M45 52h1M51 52h2M58 52h3M34 53h1M37 53h1M45 53h1M51 53h2M59 53h1M63 53h3M33 54h1M42 54h2M45 54h2M50 54h2M53 54h1M62 54h1M64 54h1M43 55h1M46 55h6M54 55h2M61 55h1M63 55h2M43 56h2M47 56h3M52 56h1M56 56h1M61 56h4M44 57h1M51 57h1M57 57h1M61 57h4M45 58h2M50 58h1M58 58h1M61 58h4M33 59h1M45 59h1M49 59h1M59 59h5M45 60h1M49 60h1M60 60h5M34 61h1M44 61h1M49 61h1M58 61h1M60 61h3M43 62h1M49 62h1M59 62h3M35 63h1M48 63h1M58 63h2M61 63h1M47 64h1M55 64h1M58 64h1M37 65h1M39 66h1M41 66h1M51 66h1M53 66h1M42 67h1M50 67h1" />
<path stroke="#313131" d="M39 32h2M48 32h1M36 33h1M42 33h1M47 33h1M50 33h1M44 34h1M48 34h1M52 34h2M43 35h1M45 35h1M51 35h1M54 35h1M34 36h1M43 36h2M50 36h1M54 36h2M40 37h3M44 37h1M46 37h1M53 37h1M33 38h1M36 38h2M42 38h1M45 38h1M51 38h1M56 38h1M32 39h1M43 39h2M47 39h1M52 39h1M57 39h1M32 40h1M47 40h1M55 40h1M59 40h1M32 41h1M34 41h1M37 41h1M42 41h1M53 41h1M60 41h1M33 42h1M40 42h4M54 42h1M34 43h9M46 43h1M59 43h3M35 44h1M39 44h4M45 44h2M55 44h1M57 44h1M61 44h1M35 45h1M40 45h2M46 45h1M50 45h4M56 45h1M62 45h1M34 46h1M36 46h3M43 46h1M45 46h3M56 46h2M62 46h1M35 47h1M42 47h1M45 47h2M36 48h6M43 48h3M63 48h1M44 49h2M58 49h1M63 49h1M35 50h1M44 50h1M44 51h1M59 51h1M64 51h1M34 52h2M43 52h2M53 52h1M64 52h1M38 53h7M53 53h1M60 53h1M44 54h1M52 54h1M60 54h1M65 54h1M33 55h1M44 55h2M52 55h1M60 55h1M65 55h1M33 56h1M45 56h2M50 56h2M60 56h1M65 56h1M33 57h1M45 57h6M60 57h1M65 57h1M33 58h1M47 58h3M60 58h1M64 59h1M34 60h1M59 60h1M59 61h1M63 61h1M35 62h1M58 62h1M62 62h1M57 63h1M60 63h1M36 64h1M56 64h2M38 65h1M54 65h1M40 66h1M52 66h1M43 67h7" />
<path stroke="#ffffff" d="M38 33h1M48 33h1M36 34h2M49 34h1M35 35h3M49 35h2M51 36h2M43 37h1M51 37h2M34 38h1M53 38h1M33 39h2M53 39h2M33 40h1M53 40h2M55 41h1M55 42h3M55 43h3M56 44h1M55 45h1M37 49h1M36 50h3M36 51h4M37 52h4M55 56h1M37 57h3M55 57h1M37 58h4M54 58h2M36 59h5M54 59h1M36 60h6M36 61h6M53 61h1M36 62h7M51 62h2M37 63h8M38 64h9M40 65h10M43 66h7" />
<path stroke="#deb5f7" d="M39 33h3M38 34h6M50 34h2M38 35h5M52 35h2M35 36h7M45 36h1M53 36h1M35 37h4M45 37h1M54 37h2M39 38h3M43 38h2M46 38h1M54 38h2M35 39h8M45 39h2M55 39h1M34 40h13M56 40h3M33 41h1M35 41h2M38 41h3M44 41h3M56 41h4M34 42h5M44 42h2M58 42h2M44 43h2M43 44h2M43 45h2M58 45h2M35 46h1M40 46h3M49 46h6M58 46h4M36 47h5M48 47h9M58 47h4M47 48h11M59 48h4M36 49h1M38 49h5M47 49h3M52 49h6M59 49h4M39 50h4M46 50h6M53 50h6M60 50h1M63 50h1M35 51h1M40 51h2M46 51h5M58 51h1M61 51h3M41 52h1M46 52h5M54 52h4M61 52h3M35 53h2M46 53h5M54 53h5M61 53h2M34 54h8M47 54h3M54 54h6M61 54h1M63 54h1M34 55h9M53 55h1M56 55h4M62 55h1M34 56h9M53 56h2M57 56h3M34 57h3M40 57h4M52 57h3M56 57h1M58 57h2M34 58h3M41 58h4M51 58h3M56 58h2M59 58h1M34 59h2M41 59h4M46 59h3M50 59h4M55 59h4M35 60h1M42 60h3M46 60h3M50 60h9M35 61h1M42 61h2M45 61h4M50 61h3M54 61h4M44 62h5M50 62h1M53 62h5M36 63h1M45 63h3M49 63h8M37 64h1M48 64h7M39 65h1M50 65h4M42 66h1M50 66h1" />
</svg>