<svg xmlns="http://www.w3.org/2000/svg" viewBox="0 -0.5 96 96" shape-rendering="crispEdges">
<metadata>Made with Pixels to Svg https://codepen.io/shshaw/pen/XbxvNj</metadata>
<path stroke="#e6bd4a" d="M46 20h1M45 21h1M47 21h1M44 22h1M43 23h1M46 23h1M69 23h1M73 23h1M42 24h1M64 24h1M70 24h1M72 24h1M41 25h1M45 25h1M61 25h1M68 25h1M59 26h1M66 26h1M71 26h1M40 27h1M44 27h1M58 27h1M64 27h1M57 28h1M63 28h1M39 29h1M56 29h1M62 29h1M44 30h1M60 30h1M67 30h1M55 31h1M59 31h1M54 32h2M68 32h1M70 32h1M39 33h1M45 33h1M55 33h1M40 34h1M43 34h1M56 34h1M58 34h1M68 34h1M72 34h1M42 35h1M59 35h1M64 35h1M67 35h1M73 35h1M61 36h1M63 36h1M70 37h1M73 37h1M63 38h1M72 38h1M33 39h1M35 39h1M39 39h1M43 39h1M55 39h1M32 40h4M38 40h1M42 40h1M46 40h1M54 40h1M63 40h1M33 41h4M39 41h1M64 41h1M32 42h5M39 42h2M43 42h1M55 42h4M66 42h1M34 43h1M38 43h4M44 43h1M50 43h2M54 43h6M64 43h1M66 43h2M33 44h1M40 44h2M47 44h2M54 44h6M64 44h6M40 45h1M46 45h1M48 45h1M54 45h6M62 45h1M64 45h5M55 46h4M61 46h1M64 46h6M41 47h1M60 47h1M66 47h2M20 48h1M42 48h1M49 48h2M67 48h2M24 49h1M27 49h1M39 49h1M48 49h1M50 49h2M22 50h1M24 50h1M26 50h3M47 50h1M49 50h2M52 50h2M67 50h1M23 51h2M26 51h2M29 51h1M36 51h1M49 51h1M52 51h2M58 51h1M23 52h3M28 52h1M30 52h1M37 52h2M46 52h2M51 52h1M54 52h2M59 52h1M24 53h1M26 53h1M29 53h1M37 53h1M47 53h1M52 53h1M61 53h2M64 53h1M23 54h1M31 54h1M33 54h1M48 54h1M55 54h1M62 54h2M22 55h1M30 55h1M32 55h1M56 55h1M58 55h2M63 55h1M23 56h1M46 56h1M59 56h2M63 56h2M20 57h1M31 57h1M59 57h2M21 58h1M33 58h1M47 58h1M56 58h1M59 58h3M65 58h1M24 59h1M33 59h2M37 59h1M57 59h1M60 59h3M68 59h1M25 60h1M32 60h2M38 60h1M48 60h1M60 60h3M69 60h1M26 61h1M34 61h1M37 61h1M49 61h1M60 61h4M66 61h1M70 61h1M21 62h1M33 62h6M60 62h2M68 62h1M71 62h1M22 63h1M34 63h6M35 64h6M49 64h1M60 64h1M71 64h1M35 65h1M38 65h1M42 65h1M50 65h1M57 65h1M68 65h1M22 66h1M31 66h1M34 66h1M43 66h1M45 66h1M67 66h1M70 66h1M23 67h1M31 67h1M33 67h1M41 67h1M46 67h1M51 67h1M66 67h1M69 67h1M30 68h1M42 68h1M52 68h1M54 68h1M65 68h1M68 68h1M33 69h1M64 69h1M67 69h1M23 70h1M35 70h1M46 70h1M63 70h1M66 70h1M24 71h1M37 71h1M48 71h1M61 71h1M38 72h1M40 72h1M49 72h1M52 72h1M57 72h1M63 72h1M41 73h1M44 73h1M61 73h1M24 74h1M45 74h1M50 74h1M56 74h1" />
<path stroke="#ffff9c" d="M47 20h1M47 22h1M68 23h1M46 24h1M63 24h1M71 24h1M60 25h1M69 25h2M45 26h1M67 26h4M65 27h5M44 28h1M64 28h5M44 29h1M63 29h5M61 30h6M60 31h7M59 32h9M46 33h9M59 33h12M44 34h12M59 34h9M43 35h15M60 35h4M42 36h18M43 37h10M55 37h7M44 38h8M56 38h7M44 39h8M56 39h7M40 40h1M43 40h2M47 40h6M55 40h8M40 41h24M37 42h1M41 42h2M44 42h8M53 42h2M59 42h5M35 43h3M42 43h2M52 43h2M60 43h4M35 44h4M42 44h3M50 44h4M60 44h3M35 45h4M41 45h5M49 45h5M60 45h2M63 45h1M36 46h4M41 46h5M48 46h7M59 46h2M62 46h2M37 47h4M42 47h18M61 47h5M38 48h3M43 48h1M51 48h16M23 49h1M53 49h14M21 50h1M38 50h1M54 50h13M21 51h1M50 51h1M55 51h1M59 51h7M21 52h1M27 52h1M49 52h1M52 52h2M56 52h3M60 52h5M21 53h1M25 53h1M28 53h1M35 53h2M54 53h1M56 53h5M63 53h1M21 54h1M29 54h1M34 54h3M56 54h6M21 55h1M23 55h1M34 55h3M48 55h1M57 55h1M60 55h3M21 56h2M30 56h1M34 56h3M57 56h2M61 56h2M21 57h2M34 57h3M57 57h2M61 57h2M22 58h2M31 58h1M34 58h3M52 58h2M57 58h2M62 58h1M66 58h1M22 59h2M28 59h2M35 59h2M51 59h3M56 59h1M58 59h2M22 60h3M28 60h3M35 60h3M51 60h4M58 60h2M70 60h1M22 61h4M28 61h3M32 61h1M35 61h2M48 61h1M51 61h4M58 61h2M65 61h1M71 61h1M22 62h5M29 62h2M48 62h1M51 62h4M58 62h2M23 63h5M33 63h1M46 63h3M52 63h2M58 63h3M23 64h6M33 64h1M44 64h5M56 64h1M58 64h1M23 65h7M32 65h2M37 65h1M43 65h7M54 65h3M71 65h1M23 66h8M32 66h2M36 66h5M46 66h4M51 66h5M24 67h7M34 67h7M42 67h1M52 67h3M70 67h1M24 68h6M32 68h10M24 69h5M34 69h10M24 70h4M36 70h9M25 71h2M38 71h9M60 71h1M25 72h1M41 72h8M53 72h1M56 72h1M45 73h5M57 74h1" />
<path stroke="#313131" d="M46 21h1M45 22h2M44 23h2M70 23h3M43 24h3M65 24h5M42 25h3M62 25h6M71 25h1M41 26h4M60 26h6M41 27h3M59 27h5M70 27h1M40 28h4M58 28h5M69 28h1M40 29h4M57 29h5M68 29h1M39 30h5M55 30h5M39 31h6M54 31h1M56 31h3M67 31h1M39 32h15M56 32h3M69 32h1M40 33h5M56 33h3M71 33h1M41 34h2M57 34h1M69 34h3M41 35h1M58 35h1M65 35h2M41 36h1M60 36h1M62 36h1M70 36h1M73 36h1M41 37h2M53 37h2M62 37h1M40 38h1M42 38h2M52 38h1M54 38h2M71 38h1M34 39h1M40 39h3M52 39h3M63 39h1M36 40h2M39 40h1M41 40h1M45 40h1M53 40h1M32 41h1M37 41h2M38 42h1M52 42h1M64 42h1M67 42h1M33 43h1M45 43h5M65 43h1M68 43h1M34 44h1M39 44h1M45 44h2M49 44h1M63 44h1M34 45h1M39 45h1M47 45h1M69 45h1M35 46h1M40 46h1M46 46h2M36 47h1M68 47h1M37 48h1M41 48h1M20 49h2M25 49h2M38 49h1M40 49h1M49 49h1M52 49h1M67 49h1M20 50h1M23 50h1M25 50h1M39 50h1M48 50h1M51 50h1M20 51h1M22 51h1M25 51h1M28 51h1M37 51h2M47 51h2M51 51h1M54 51h1M56 51h2M66 51h1M20 52h1M22 52h1M26 52h1M29 52h1M35 52h2M48 52h1M65 52h1M20 53h1M22 53h2M30 53h1M34 53h1M46 53h1M48 53h1M55 53h1M20 54h1M22 54h1M24 54h1M30 54h1M37 54h1M46 54h1M52 54h1M64 54h1M20 55h1M31 55h1M33 55h1M37 55h1M46 55h1M64 55h1M20 56h1M31 56h3M37 56h1M56 56h1M23 57h1M32 57h2M37 57h1M47 57h1M56 57h1M63 57h1M24 58h1M32 58h1M37 58h1M63 58h2M21 59h1M32 59h1M48 59h1M63 59h5M21 60h1M34 60h1M57 60h1M63 60h6M21 61h1M33 61h1M38 61h1M57 61h1M67 61h3M27 62h1M39 62h1M49 62h1M57 62h1M62 62h1M69 62h2M28 63h1M40 63h1M49 63h1M57 63h1M61 63h1M69 63h3M22 64h1M29 64h1M34 64h1M41 64h1M57 64h1M59 64h1M69 64h2M22 65h1M30 65h1M34 65h1M36 65h1M39 65h3M58 65h1M69 65h2M35 66h1M41 66h1M44 66h1M50 66h1M56 66h1M68 66h2M32 67h1M47 67h4M55 67h1M67 67h2M23 68h1M31 68h1M43 68h1M53 68h1M66 68h2M23 69h1M29 69h1M32 69h1M44 69h1M65 69h2M28 70h1M34 70h1M45 70h1M64 70h2M27 71h1M36 71h1M47 71h1M62 71h3M24 72h1M26 72h1M39 72h1M50 72h2M58 72h5M24 73h2M42 73h2M50 73h11M46 74h4M51 74h5" />
<path stroke="#ffffff" d="M41 38h1M53 38h1M44 48h5M41 49h7M40 50h7M39 51h8M39 52h7M50 52h1M27 53h1M38 53h8M49 53h3M53 53h1M25 54h4M38 54h8M47 54h1M49 54h3M53 54h2M24 55h6M38 55h8M47 55h1M49 55h7M24 56h6M38 56h8M47 56h9M24 57h7M38 57h9M48 57h8M25 58h6M38 58h9M48 58h4M54 58h2M25 59h3M30 59h2M38 59h10M49 59h2M54 59h2M26 60h2M31 60h1M39 60h9M49 60h2M55 60h2M27 61h1M31 61h1M39 61h9M50 61h1M55 61h2M28 62h1M31 62h2M40 62h8M50 62h1M55 62h2M29 63h4M41 63h5M50 63h2M54 63h3M30 64h3M42 64h2M50 64h6M31 65h1M51 65h3M42 66h1" />
</svg>