<svg xmlns="http://www.w3.org/2000/svg" viewBox="0 -0.5 96 96" shape-rendering="crispEdges">
<metadata>Made with Pixels to Svg https://codepen.io/shshaw/pen/XbxvNj</metadata>
<path stroke="#d64a31" d="M37 28h1M42 28h1M35 29h2M43 29h1M34 30h2M40 30h1M39 31h1M41 31h2M33 32h1M40 32h1M47 32h1M32 33h1M37 33h1M42 33h1M62 33h1M32 34h1M35 34h1M40 34h1M43 34h1M47 34h1M61 34h3M30 35h1M41 35h1M43 35h1M48 35h1M61 35h3M32 36h2M39 36h1M61 36h3M30 37h3M41 37h1M61 37h4M31 38h1M42 38h1M48 38h1M62 38h3M32 39h1M35 39h2M38 39h3M43 39h1M49 39h1M62 39h3M32 40h1M34 40h1M41 40h2M54 40h1M56 40h1M62 40h4M30 41h1M32 41h1M41 41h3M53 41h1M62 41h2M65 41h1M29 42h1M40 42h2M45 42h1M51 42h4M56 42h1M62 42h1M65 42h2M32 43h1M34 43h1M45 43h1M49 43h1M54 43h2M65 43h2M30 44h1M33 44h3M38 44h1M40 44h1M44 44h2M66 44h1M31 45h1M34 45h2M38 45h1M41 45h1M43 45h2M54 45h2M66 45h1M35 46h2M40 46h1M52 46h2M65 46h1M34 47h4M51 47h2M62 47h3M34 48h3M50 48h2M63 48h1M34 49h1M36 49h1M50 49h1M57 49h1M59 49h1M35 50h1M52 50h2M56 50h1M62 50h1M54 51h4M36 52h1M55 52h3M61 52h1M55 53h3M35 54h1M55 54h2M34 55h1M37 55h1M51 55h6M33 56h1M54 56h1M58 56h1M37 57h2M55 57h1M57 57h1M32 58h1M37 58h1M37 59h3M47 59h1M55 59h1M32 60h1M36 60h3M40 60h1M47 60h1M53 60h3M35 61h5M46 61h1M50 61h7M32 62h2M35 62h4M42 62h1M45 62h2M48 62h1M51 62h4M31 63h1M35 63h4M48 63h1M52 63h3M34 64h5M47 64h1M50 64h1M52 64h1M54 64h2M30 65h1M38 65h1M49 65h1M52 65h1M56 65h1M48 66h1M54 66h1M50 67h1M52 67h1M54 67h1" />
<path stroke="#313131" d="M38 28h4M44 29h1M45 30h1M34 31h1M46 31h1M41 32h1M33 33h4M40 33h2M47 33h1M31 34h1M41 34h2M42 35h1M30 36h1M34 36h5M48 36h1M34 37h5M40 37h1M48 37h1M32 38h10M33 39h2M37 39h1M41 39h2M33 40h1M37 40h1M43 40h1M49 40h1M55 40h1M31 41h1M33 41h1M49 41h1M52 41h1M56 41h1M32 42h2M42 42h1M49 42h2M55 42h1M29 43h1M31 43h1M33 43h1M40 43h2M44 43h1M56 43h1M39 44h1M43 44h1M55 44h1M36 45h2M42 45h1M31 46h1M37 46h3M54 46h1M32 47h1M53 47h1M61 47h1M33 48h1M37 48h1M52 48h1M60 48h1M35 49h1M51 49h2M58 49h1M63 49h1M36 50h1M55 50h1M36 51h1M53 51h1M62 51h1M54 52h1M36 53h1M54 53h1M61 53h1M36 54h1M54 54h1M60 54h1M59 55h1M37 56h1M55 56h1M33 57h1M56 57h1M38 58h1M56 58h1M32 59h1M56 59h1M39 60h1M56 60h1M33 61h1M40 61h2M47 61h1M34 62h1M39 62h1M43 62h2M47 62h1M55 62h1M30 63h1M39 63h1M47 63h1M55 63h1M29 64h1M32 64h1M39 64h1M51 64h1M53 64h1M31 65h7M47 65h1M54 65h1M49 66h1M52 66h1M56 66h1M51 67h1M53 67h1M55 67h1" />
<path stroke="#ffc55a" d="M37 29h6M36 30h4M41 30h4M35 31h4M40 31h1M43 31h3M34 32h6M44 32h3M62 32h1M38 33h2M44 33h3M61 33h1M63 33h1M33 34h2M36 34h4M44 34h3M60 34h1M31 35h10M44 35h4M60 35h1M31 36h1M40 36h8M60 36h1M64 36h1M42 37h6M60 37h1M43 38h5M59 38h3M44 39h5M58 39h4M65 39h1M35 40h2M38 40h3M44 40h5M58 40h4M34 41h7M44 41h5M54 41h2M58 41h4M64 41h1M66 41h1M30 42h2M34 42h6M43 42h2M46 42h3M58 42h4M63 42h2M30 43h1M36 43h3M42 43h2M46 43h3M50 43h4M59 43h6M31 44h2M36 44h2M41 44h2M46 44h9M59 44h7M32 45h2M39 45h2M46 45h8M59 45h7M32 46h3M41 46h1M47 46h5M60 46h5M66 46h1M33 47h1M38 47h1M47 47h4M65 47h1M48 48h2M61 48h2M48 49h2M60 49h3M48 50h4M57 50h5M49 51h4M58 51h4M49 52h5M58 52h3M49 53h5M58 53h3M49 54h5M57 54h3M35 55h2M48 55h3M57 55h2M34 56h3M48 56h6M56 56h2M34 57h3M48 57h7M33 58h4M47 58h9M33 59h4M48 59h7M33 60h3M46 60h1M48 60h5M34 61h1M42 61h4M48 61h2M49 62h2M32 63h3M49 63h3M31 64h1M33 64h1M48 64h2M48 65h1M51 65h1M53 65h1M55 65h1" />
<path stroke="#ffffff" d="M42 32h2M43 33h1M33 37h1M39 37h1M35 43h1M39 43h1M45 45h1M42 46h5M39 47h8M38 48h10M37 49h11M37 50h11M37 51h12M37 52h12M37 53h12M37 54h12M38 55h10M38 56h10M39 57h9M39 58h8M40 59h7M41 60h5M30 64h1M50 65h1M50 66h2M53 66h1M55 66h1" />
</svg>