<svg xmlns="http://www.w3.org/2000/svg" viewBox="0 -0.5 96 96" shape-rendering="crispEdges">
<metadata>Made with Pixels to Svg https://codepen.io/shshaw/pen/XbxvNj</metadata>
<path stroke="#313131" d="M29 25h5M27 26h2M34 26h1M26 27h1M35 27h1M63 27h1M25 28h1M32 28h1M36 28h1M61 28h1M65 28h2M25 29h1M27 29h1M29 29h1M31 29h2M36 29h1M67 29h1M25 30h1M27 30h1M29 30h1M31 30h1M35 30h1M60 30h1M26 31h2M30 31h1M33 31h2M60 31h1M68 31h1M28 32h2M32 32h2M59 32h2M66 32h1M68 32h1M28 33h1M31 33h1M59 33h2M63 33h1M66 33h1M68 33h1M27 34h1M60 34h1M63 34h1M66 34h1M26 35h1M46 35h1M54 35h1M60 35h1M63 35h1M66 35h2M30 36h1M32 36h1M34 36h1M42 36h1M45 36h1M52 36h1M55 36h1M61 36h2M64 36h2M25 37h1M29 37h1M32 37h1M36 37h1M41 37h1M51 37h1M55 37h1M61 37h1M64 37h1M26 38h1M30 38h1M39 38h1M49 38h2M55 38h1M64 38h1M31 39h1M33 39h1M53 39h3M59 39h1M64 39h1M67 39h1M27 40h1M33 40h2M52 40h4M58 40h1M64 40h2M69 40h1M54 41h2M63 41h2M53 42h1M61 42h1M64 42h1M66 42h1M70 42h1M28 43h1M52 43h1M60 43h1M65 43h1M67 43h1M70 43h1M36 44h1M49 44h1M58 44h2M67 44h1M70 44h1M38 45h1M48 45h1M56 45h2M67 45h1M31 46h2M36 46h1M38 46h2M44 46h1M46 46h2M55 46h2M66 46h1M69 46h1M31 47h1M36 47h1M38 47h1M40 47h1M47 47h1M54 47h1M56 47h1M65 47h1M31 48h1M37 48h3M41 48h3M45 48h5M57 48h1M64 48h1M68 48h1M39 49h1M45 49h1M62 49h1M67 49h1M38 50h1M40 50h1M43 50h1M46 50h1M59 50h1M65 50h1M30 51h1M40 51h1M43 51h1M45 51h1M58 51h1M63 51h1M41 52h3M61 52h1M31 53h1M57 53h3M32 54h1M56 54h1M31 55h1M36 55h1M58 55h1M30 56h1M37 56h1M49 56h1M59 56h1M30 57h1M35 57h1M38 57h1M47 57h1M52 57h1M60 57h1M31 58h1M34 58h1M36 58h2M41 58h2M44 58h1M55 58h1M61 58h1M32 59h1M35 59h1M38 59h1M57 59h1M31 60h1M37 60h1M58 60h1M62 60h1M27 61h4M35 61h2M59 61h1M25 62h1M33 62h1M59 62h1M24 63h1M28 63h3M58 63h1M63 63h1M25 64h1M29 64h1M32 64h1M56 64h1M64 64h2M68 64h2M28 65h1M31 65h1M54 65h1M27 66h1M31 66h1M56 66h2M64 66h2M70 66h1M29 67h1M59 67h1M63 67h1M66 67h2M61 68h1M64 68h2M68 68h2M62 69h1M66 69h1M64 70h2" />
<path stroke="#947352" d="M29 26h5M27 27h8M62 27h1M64 27h1M26 28h6M33 28h3M62 28h3M26 29h1M28 29h1M30 29h1M33 29h3M60 29h7M26 30h1M28 30h1M30 30h1M32 30h3M61 30h8M28 31h2M31 31h2M59 31h1M61 31h7M30 32h2M61 32h5M67 32h1M61 33h2M64 33h2M67 33h1M31 34h1M59 34h1M61 34h2M64 34h2M67 34h2M30 35h1M33 35h1M43 35h1M55 35h1M61 35h2M64 35h2M25 36h1M35 36h1M44 36h1M47 36h1M53 36h1M60 36h1M63 36h1M37 37h1M40 37h1M44 37h1M48 37h1M62 37h2M32 38h2M38 38h1M54 38h1M61 38h3M27 39h1M34 39h1M52 39h1M60 39h1M63 39h1M66 39h1M68 39h1M32 40h1M35 40h1M51 40h1M57 40h1M66 40h3M27 41h1M34 41h1M52 41h2M56 41h1M65 41h6M28 42h1M62 42h1M65 42h1M67 42h3M68 43h2M29 44h1M37 44h1M50 44h1M68 44h2M30 45h1M32 45h1M44 45h1M47 45h1M49 45h1M68 45h3M48 46h1M67 46h2M45 47h1M48 47h1M50 47h1M67 47h2M40 48h1M44 48h1M31 49h1M57 49h1M61 49h1M63 49h1M30 50h1M32 50h1M45 50h1M58 50h1M60 50h1M66 50h1M31 51h1M39 51h1M44 51h1M64 51h1M32 52h1M40 52h1M44 52h1M57 52h1M62 52h1M60 53h1M33 54h1M57 54h1M32 55h1M50 56h1M39 57h1M43 57h1M46 57h1M48 57h1M51 57h1M53 57h1M32 58h2M40 58h1M45 58h1M54 58h1M33 59h2M36 59h2M56 59h1M62 59h1M32 60h5M26 61h1M31 61h4M62 61h1M26 62h7M60 62h4M25 63h3M31 63h3M59 63h4M26 64h1M30 64h2M55 64h1M57 64h7M66 64h1M29 65h2M32 65h1M55 65h16M28 66h3M55 66h1M58 66h6M66 66h4M28 67h1M30 67h1M60 67h3M68 67h3M62 68h2M63 69h3M63 70h1M66 70h1" />
<path stroke="#d6bd94" d="M29 33h2M30 34h1M26 37h1M33 37h1M54 37h1M29 38h1M34 38h1M53 38h1M35 39h1M61 39h2M28 40h1M63 40h1M28 41h2M29 42h1M29 43h3M30 44h3M56 44h2M31 45h1M54 45h2M43 46h1M53 46h2M39 47h1M43 47h2M46 47h1M53 47h1M55 47h1M69 47h1M36 48h1M50 48h1M54 48h3M40 49h5M55 49h2M39 50h1M41 50h2M44 50h1M54 50h4M61 50h1M41 51h2M53 51h5M59 51h4M55 52h2M58 52h3M50 53h2M56 53h1M42 54h1M49 54h3M42 55h2M48 55h5M35 56h2M41 56h8M51 56h3M33 57h2M40 57h3M44 57h2M54 57h2M56 58h3M58 59h2M59 60h1M60 61h2" />
<path stroke="#ffffff" d="M28 34h2M27 35h3M26 36h4M33 36h1M43 36h1M46 36h1M54 36h1M27 37h2M34 37h2M42 37h2M45 37h3M52 37h2M27 38h2M35 38h3M40 38h9M51 38h2M28 39h3M32 39h1M36 39h16M29 40h3M36 40h15M59 40h4M30 41h4M35 41h17M57 41h6M30 42h23M54 42h7M32 43h20M53 43h7M33 44h3M38 44h11M51 44h5M33 45h5M39 45h5M45 45h2M50 45h4M33 46h3M37 46h1M40 46h3M45 46h1M49 46h4M32 47h4M37 47h1M41 47h2M49 47h1M51 47h2M66 47h1M32 48h4M51 48h3M65 48h3M32 49h7M46 49h9M64 49h3M31 50h1M33 50h5M47 50h7M62 50h3M32 51h7M46 51h7M33 52h7M45 52h10M32 53h18M52 53h4M34 54h8M43 54h6M52 54h4M33 55h3M37 55h5M44 55h4M53 55h5M31 56h4M38 56h3M54 56h5M31 57h2M36 57h2M56 57h4M35 58h1M59 58h2M60 59h2M60 60h2M64 67h2" />
</svg>