<svg xmlns="http://www.w3.org/2000/svg" viewBox="0 -0.5 96 96" shape-rendering="crispEdges">
<metadata>Made with Pixels to Svg https://codepen.io/shshaw/pen/XbxvNj</metadata>
<path stroke="#d64a31" d="M53 22h1M55 23h1M59 24h1M63 24h1M53 25h1M61 25h1M58 26h1M68 26h1M49 27h1M51 27h1M67 27h1M69 27h1M31 28h1M53 28h1M56 28h1M66 28h1M29 29h1M32 29h1M34 29h1M49 29h1M54 29h1M56 29h1M28 30h1M35 30h1M50 30h1M54 30h2M58 30h1M37 31h1M47 31h1M49 31h1M54 31h2M58 31h1M60 31h2M66 31h1M55 32h2M58 32h1M61 32h2M67 32h1M55 33h4M60 33h3M67 33h1M69 33h1M72 33h1M75 33h1M41 34h1M48 34h1M57 34h6M67 34h2M71 34h1M23 35h1M56 35h1M60 35h6M72 35h1M75 35h1M23 36h1M41 36h1M48 36h1M53 36h1M55 36h1M61 36h1M64 36h1M74 36h1M29 37h1M42 37h1M49 37h1M22 38h1M28 38h1M53 38h1M68 38h1M72 38h1M74 38h1M52 39h1M62 39h1M66 39h1M73 39h1M22 40h1M27 40h1M51 40h1M63 40h1M65 40h1M21 41h1M52 41h2M55 41h1M72 41h1M42 42h1M54 42h1M70 42h1M53 43h1M69 43h1M21 44h1M41 44h1M67 44h1M22 45h1M39 45h1M52 45h1M68 45h1M43 46h1M48 46h1M52 46h3M62 46h1M38 47h1M40 47h4M47 47h9M70 47h1M22 48h1M27 48h1M37 48h1M41 48h3M46 48h7M59 48h1M61 48h1M72 48h1M21 49h1M36 49h1M41 49h9M58 49h1M33 50h1M35 50h4M42 50h7M56 50h4M72 50h1M30 51h1M32 51h1M36 51h4M42 51h8M56 51h5M71 51h1M73 51h1M20 52h1M23 52h1M29 52h1M31 52h2M38 52h3M42 52h9M55 52h5M63 52h1M24 53h1M28 53h1M40 53h11M54 53h2M57 53h4M62 53h1M73 53h1M22 54h1M25 54h3M40 54h11M57 54h2M62 54h1M71 54h1M21 55h1M26 55h1M33 55h4M41 55h4M46 55h6M57 55h2M63 55h1M70 55h1M23 56h1M25 56h2M31 56h10M42 56h3M46 56h3M51 56h1M62 56h3M29 57h1M34 57h11M48 57h1M58 57h1M60 57h5M23 58h1M27 58h2M30 58h1M35 58h10M59 58h5M67 58h1M69 58h1M71 58h1M20 59h1M22 59h1M39 59h5M60 59h5M34 60h1M42 60h2M60 60h6M70 60h1M20 61h1M31 61h1M33 61h1M35 61h1M41 61h3M45 61h1M48 61h1M58 61h1M60 61h8M22 62h2M35 62h10M49 62h3M62 62h5M21 63h1M24 63h1M36 63h7M47 63h1M53 63h1M64 63h3M22 64h1M24 64h1M37 64h5M43 64h1M48 64h1M55 64h1M66 64h1M24 65h2M38 65h1M54 65h1M62 65h1M24 66h3M42 66h1M53 66h2M62 66h3M69 66h1M23 67h3M28 67h1M48 67h1M53 67h3M57 67h1M63 67h2M69 67h1M25 68h3M29 68h2M40 68h1M50 68h1M53 68h4M63 68h4M69 68h1M26 69h3M30 69h5M49 69h10M64 69h9M26 70h1M30 70h7M51 70h7M65 70h6M30 71h8M40 71h1M51 71h1M57 71h1M66 71h7M29 72h1M31 72h9M31 73h1M34 73h7M34 74h1M39 74h1" />
<path stroke="#313131" d="M54 22h1M53 23h1M56 23h1M53 24h1M57 24h1M60 24h1M62 24h1M58 25h2M64 25h1M52 26h1M65 26h1M50 27h1M66 27h1M30 28h1M49 28h1M54 28h2M69 28h1M25 29h2M33 29h1M53 29h1M57 29h2M69 29h1M24 30h1M27 30h1M36 30h1M53 30h1M59 30h1M69 30h1M25 31h1M38 31h1M48 31h1M53 31h1M59 31h1M62 31h4M69 31h1M24 32h1M39 32h1M46 32h1M54 32h1M59 32h2M63 32h2M66 32h1M69 32h1M23 33h1M40 33h1M43 33h3M47 33h1M59 33h1M63 33h2M68 33h1M73 33h2M22 34h1M42 34h1M56 34h1M64 34h2M69 34h2M72 34h2M75 34h1M41 35h1M48 35h1M57 35h3M66 35h1M73 35h2M42 36h2M54 36h1M62 36h2M73 36h1M23 37h1M44 37h1M52 37h1M74 37h1M42 38h2M69 38h3M22 39h1M28 39h1M42 39h2M67 39h1M69 39h1M71 39h1M42 40h1M44 40h1M64 40h1M70 40h1M72 40h1M27 41h1M42 41h1M44 41h1M21 42h1M27 42h1M45 42h2M71 42h1M21 43h1M27 43h1M41 43h1M47 43h1M68 43h1M27 44h1M46 44h1M54 44h2M66 44h1M27 45h1M40 45h1M47 45h2M53 45h2M61 45h2M22 46h1M27 46h1M39 46h4M47 46h1M49 46h3M57 46h1M59 46h3M69 46h1M22 47h1M27 47h1M39 47h1M44 47h3M56 47h6M71 47h1M38 48h3M44 48h2M53 48h6M60 48h1M28 49h1M37 49h4M50 49h8M59 49h1M72 49h1M21 50h1M29 50h1M34 50h1M39 50h3M49 50h7M60 50h1M71 50h1M20 51h1M23 51h1M33 51h3M40 51h2M50 51h6M61 51h1M21 52h2M30 52h1M33 52h5M41 52h1M51 52h4M60 52h1M74 52h1M25 53h3M29 53h11M61 53h1M74 53h1M23 54h1M28 54h12M59 54h3M72 54h1M27 55h6M37 55h4M45 55h1M59 55h4M21 56h1M24 56h1M27 56h4M41 56h1M45 56h1M58 56h4M71 56h1M20 57h1M23 57h1M27 57h2M30 57h4M45 57h3M59 57h1M71 57h1M20 58h1M31 58h4M45 58h5M68 58h1M21 59h1M31 59h8M44 59h6M68 59h1M70 59h1M20 60h1M22 60h1M31 60h1M33 60h1M35 60h7M44 60h6M67 60h2M22 61h2M34 61h1M36 61h5M44 61h1M46 61h2M59 61h1M68 61h1M21 62h1M24 62h1M47 62h1M59 62h3M67 62h2M22 63h2M25 63h1M35 63h1M43 63h1M48 63h1M51 63h2M59 63h5M67 63h3M23 64h1M25 64h2M36 64h1M42 64h1M49 64h1M51 64h4M59 64h7M67 64h3M23 65h1M37 65h1M39 65h2M42 65h1M48 65h6M55 65h3M60 65h2M63 65h7M23 66h1M48 66h5M55 66h2M61 66h1M65 66h4M70 66h1M27 67h1M41 67h1M49 67h4M56 67h1M62 67h1M65 67h4M70 67h1M24 68h1M28 68h1M39 68h1M49 68h1M51 68h2M57 68h1M62 68h1M67 68h2M70 68h3M25 69h1M29 69h1M35 69h4M63 69h1M73 69h1M27 70h3M37 70h1M50 70h1M58 70h1M64 70h1M71 70h3M29 71h1M38 71h2M52 71h5M65 71h1M73 71h1M30 72h1M40 72h1M66 72h7M32 73h2M35 74h4" />
<path stroke="#ffffff" d="M54 23h1M54 24h3M55 25h3M63 25h1M54 26h4M59 26h2M62 26h3M53 27h13M68 27h1M51 28h2M57 28h5M63 28h3M67 28h2M30 29h2M50 29h3M59 29h2M64 29h5M25 30h2M29 30h6M51 30h2M65 30h4M26 31h11M51 31h2M67 31h2M25 32h14M48 32h6M65 32h1M68 32h1M24 33h16M46 33h1M49 33h5M65 33h2M23 34h18M43 34h5M49 34h3M63 34h1M66 34h1M74 34h1M24 35h17M42 35h6M50 35h3M68 35h4M24 36h8M34 36h7M44 36h4M51 36h1M56 36h4M66 36h7M24 37h5M32 37h10M45 37h4M53 37h21M23 38h5M31 38h11M44 38h4M54 38h14M73 38h1M23 39h4M30 39h12M44 39h4M53 39h9M63 39h3M68 39h1M70 39h1M72 39h1M23 40h3M30 40h12M45 40h2M52 40h5M59 40h4M66 40h4M71 40h1M22 41h4M30 41h12M45 41h2M54 41h1M58 41h13M22 42h3M32 42h10M58 42h8M22 43h2M34 43h7M57 43h7M34 44h7M56 44h8M34 45h5M56 45h1M58 45h2M63 45h3M33 46h6M63 46h6M33 47h5M62 47h8M34 48h3M62 48h10M35 49h1M60 49h12M61 50h3M66 50h2M69 50h2M66 51h2M69 51h2M72 51h1M65 52h2M69 52h5M52 53h1M65 53h1M69 53h4M52 54h5M68 54h3M52 55h5M68 55h2M53 56h4M68 56h3M25 57h2M50 57h8M68 57h3M51 58h8M70 58h1M28 59h2M52 59h3M56 59h3M29 60h2M52 60h3M57 60h2M29 61h2M32 61h1M57 61h1M25 62h6M32 62h1M57 62h1M26 63h8M57 63h2M28 64h5M57 64h1" />
<path stroke="#ffc55a" d="M54 25h1M60 25h1M62 25h1M53 26h1M61 26h1M52 27h1M50 28h1M62 28h1M55 29h1M61 29h3M56 30h2M60 30h5M50 31h1M56 31h2M47 32h1M57 32h1M48 33h1M54 33h1M52 34h4M49 35h1M53 35h3M67 35h1M32 36h2M49 36h2M52 36h1M60 36h1M65 36h1M30 37h2M50 37h2M29 38h2M48 38h5M27 39h1M29 39h1M48 39h4M26 40h1M28 40h2M47 40h4M57 40h2M26 41h1M28 41h2M47 41h5M56 41h2M71 41h1M25 42h2M28 42h4M47 42h7M55 42h3M66 42h4M24 43h3M28 43h6M48 43h5M54 43h3M64 43h4M22 44h5M28 44h6M47 44h7M64 44h2M23 45h4M28 45h6M49 45h3M55 45h1M57 45h1M60 45h1M66 45h2M23 46h4M28 46h5M55 46h2M58 46h1M23 47h4M28 47h5M23 48h4M28 48h6M22 49h6M29 49h6M22 50h7M30 50h3M64 50h2M68 50h1M21 51h2M24 51h6M31 51h1M62 51h4M68 51h1M24 52h5M61 52h2M64 52h1M67 52h2M51 53h1M53 53h1M56 53h1M63 53h2M66 53h3M24 54h1M51 54h1M63 54h5M22 55h4M64 55h4M22 56h1M49 56h2M52 56h1M57 56h1M65 56h3M21 57h2M24 57h1M49 57h1M65 57h3M21 58h2M24 58h3M29 58h1M50 58h1M64 58h3M23 59h5M30 59h1M50 59h2M55 59h1M59 59h1M65 59h3M21 60h1M23 60h6M32 60h1M50 60h2M55 60h2M59 60h1M66 60h1M21 61h1M24 61h5M49 61h8M31 62h1M33 62h2M48 62h1M52 62h5M58 62h1M34 63h1M49 63h2M54 63h3M27 64h1M33 64h3M50 64h1M56 64h1M58 64h1M26 65h11M41 65h1M27 66h15M26 67h1M29 67h12M31 68h8" />
</svg>