<svg xmlns="http://www.w3.org/2000/svg" viewBox="0 -0.5 96 96" shape-rendering="crispEdges">
<metadata>Made with Pixels to Svg https://codepen.io/shshaw/pen/XbxvNj</metadata>
<path stroke="#313131" d="M42 26h1M41 27h1M43 27h1M39 28h1M43 28h1M58 28h1M43 29h1M55 29h2M59 29h1M38 30h1M42 30h1M53 30h2M59 30h1M42 31h1M52 31h1M59 31h1M37 32h1M40 32h2M51 32h1M54 32h1M57 32h2M37 33h1M40 33h6M50 33h1M58 33h1M37 34h2M47 34h4M53 34h1M57 34h1M36 35h1M49 35h1M52 35h1M57 35h1M35 36h1M50 36h1M52 36h1M54 36h1M56 36h1M61 36h2M50 37h1M54 37h2M59 37h1M64 37h1M34 38h1M51 38h3M57 38h1M34 39h1M51 39h1M66 39h1M34 40h1M51 40h1M56 40h1M61 40h2M33 41h2M46 41h1M51 41h1M60 41h1M63 41h1M67 41h1M33 42h1M44 42h2M51 42h1M55 42h1M59 42h1M67 42h1M25 43h2M33 43h1M35 43h1M43 43h1M51 43h1M55 43h1M59 43h1M66 43h1M25 44h1M27 44h4M32 44h1M42 44h1M44 44h1M51 44h2M55 44h1M60 44h1M65 44h3M25 45h2M31 45h2M41 45h1M43 45h1M50 45h1M53 45h2M61 45h4M68 45h1M25 46h1M33 46h1M43 46h1M48 46h5M55 46h1M62 46h1M69 46h1M25 47h1M28 47h1M30 47h1M33 47h2M37 47h1M48 47h1M50 47h1M56 47h1M62 47h1M25 48h1M29 48h2M34 48h1M36 48h1M47 48h1M49 48h1M51 48h2M57 48h1M70 48h1M24 49h1M26 49h1M35 49h1M37 49h8M46 49h4M57 49h1M65 49h3M70 49h1M24 50h4M35 50h2M40 50h5M47 50h3M57 50h1M63 50h1M68 50h1M27 51h3M34 51h1M38 51h2M45 51h2M49 51h2M57 51h1M69 51h1M30 52h4M40 52h5M51 52h2M56 52h1M62 52h1M69 52h1M30 53h1M32 53h1M42 53h1M51 53h5M62 53h1M69 53h1M30 54h1M32 54h1M42 54h1M52 54h1M54 54h1M63 54h1M69 54h1M30 55h1M32 55h1M42 55h1M52 55h1M54 55h1M58 55h1M64 55h2M68 55h1M30 56h1M32 56h1M36 56h2M42 56h1M47 56h2M52 56h1M56 56h2M68 56h1M39 57h7M53 57h3M66 57h2M31 58h1M33 58h1M42 58h1M51 58h1M53 58h2M58 58h2M64 58h2M31 59h1M33 59h1M42 59h1M51 59h1M54 59h3M62 59h2M32 60h3M41 60h3M50 60h6M59 60h2M31 61h1M34 61h1M37 61h2M46 61h2M50 61h1M53 61h5M30 62h1M35 62h2M48 62h2M54 62h2M36 63h3M46 63h3M29 64h1M37 64h11M55 64h1M29 65h1M38 65h3M44 65h3M55 65h1M28 66h1M38 66h1M41 66h3M46 66h1M56 66h1M28 67h1M37 67h1M47 67h1M56 67h1M29 68h1M35 68h2M48 68h2M55 68h1M29 69h3M34 69h1M50 69h1M53 69h3M32 70h3M50 70h3" />
<path stroke="#3ac5e6" d="M43 26h1M40 27h1M41 28h1M57 28h1M59 28h1M38 29h1M40 29h1M54 29h1M40 30h1M57 30h1M37 31h1M39 31h3M51 31h1M55 31h1M58 31h1M39 32h1M39 33h1M46 33h1M53 33h1M57 33h1M35 35h1M48 35h1M56 35h1M49 36h1M55 36h1M60 36h1M63 36h1M34 37h2M49 37h1M51 37h3M58 37h1M65 37h1M50 38h1M66 38h1M50 39h1M56 39h1M33 40h1M50 40h1M60 40h1M67 40h1M45 41h1M50 41h1M55 41h1M59 41h1M34 42h2M50 42h1M27 43h1M42 43h1M49 43h2M33 44h1M35 44h1M49 44h2M68 44h1M33 45h1M44 45h1M48 45h2M55 45h1M69 45h1M34 46h1M44 46h1M47 46h1M56 46h1M35 47h1M45 47h3M70 47h1M24 48h1M26 48h1M33 48h1M37 48h10M48 48h1M56 48h1M27 49h1M32 49h3M36 49h1M51 49h1M56 49h1M64 49h1M28 50h7M37 50h1M39 50h1M45 50h2M50 50h1M55 50h2M69 50h1M30 51h4M42 51h3M47 51h2M51 51h6M62 51h1M29 52h1M45 52h1M49 52h2M53 52h3M50 53h1M56 53h1M60 53h1M50 54h2M53 54h1M55 54h1M59 54h1M34 55h1M50 55h2M55 55h1M59 55h1M69 55h1M35 56h1M49 56h3M54 56h2M58 56h1M62 56h1M30 57h1M32 57h1M38 57h1M46 57h1M50 57h3M61 57h1M50 58h1M55 58h2M60 58h1M66 58h1M32 59h1M50 59h1M52 59h2M57 59h1M64 59h1M31 60h1M40 60h1M44 60h1M49 60h1M56 60h3M61 60h1M30 61h1M35 61h1M39 61h1M45 61h1M48 61h2M51 61h2M58 61h1M37 62h2M45 62h3M50 62h2M29 63h1M35 63h1M39 63h7M49 63h2M55 63h1M36 64h1M48 64h2M35 65h3M41 65h3M47 65h3M35 66h3M39 66h1M45 66h1M47 66h4M27 67h1M29 67h1M34 67h3M48 67h6M55 67h1M57 67h1M34 68h1M37 68h1M47 68h1M50 68h3M33 69h1M51 69h1" />
<path stroke="#ffffff" d="M42 27h1M40 28h1M39 29h1M57 29h1M39 30h1M55 30h1M58 30h1M38 31h1M53 31h1M57 31h1M38 32h1M52 32h1M56 32h1M51 33h2M56 33h1M39 34h5M51 34h1M55 34h2M37 35h5M55 35h1M36 36h6M36 37h4M60 37h4M35 38h1M58 38h7M35 39h1M57 39h9M57 40h3M64 40h2M56 41h3M61 41h2M64 41h2M56 42h3M61 42h4M34 43h1M44 43h2M56 43h3M62 43h2M26 44h1M34 44h1M43 44h1M45 44h1M56 44h3M27 45h4M42 45h1M45 45h1M51 45h1M56 45h3M66 45h2M30 46h3M42 46h1M45 46h1M57 46h3M64 46h5M29 47h1M49 47h1M57 47h3M63 47h6M35 48h1M58 48h2M62 48h6M25 49h1M45 49h1M52 49h1M58 49h2M61 49h3M58 50h5M65 50h3M36 51h2M58 51h4M64 51h5M35 52h5M57 52h3M61 52h1M64 52h5M31 53h1M34 53h8M44 53h2M57 53h3M61 53h1M65 53h3M31 54h1M34 54h8M44 54h3M58 54h1M60 54h3M31 55h1M35 55h7M44 55h3M60 55h4M34 56h1M59 56h3M63 56h2M34 57h4M47 57h1M62 57h2M35 58h7M44 58h4M35 59h7M45 59h2M36 60h4M32 61h1M40 61h3M31 62h2M30 63h2M30 64h1M30 65h1" />
<path stroke="#d6e6ff" d="M42 28h1M41 29h2M58 29h1M41 30h1M56 30h1M54 31h1M56 31h1M53 32h1M55 32h1M38 33h1M54 33h2M44 34h3M52 34h1M54 34h1M42 35h6M50 35h2M53 35h2M42 36h7M51 36h1M53 36h1M40 37h9M36 38h14M65 38h1M36 39h14M35 40h15M63 40h1M66 40h1M35 41h10M47 41h3M66 41h1M36 42h8M46 42h4M60 42h1M65 42h2M36 43h6M46 43h3M60 43h2M64 43h2M36 44h6M46 44h3M59 44h1M61 44h4M34 45h7M46 45h2M52 45h1M59 45h2M65 45h1M26 46h4M35 46h7M46 46h1M53 46h2M60 46h2M63 46h1M26 47h2M31 47h2M36 47h1M38 47h7M51 47h5M60 47h2M69 47h1M27 48h2M31 48h2M50 48h1M53 48h3M60 48h2M68 48h2M28 49h4M50 49h1M53 49h3M60 49h1M68 49h2M38 50h1M51 50h4M64 50h1M35 51h1M40 51h2M63 51h1M34 52h1M46 52h3M60 52h1M63 52h1M33 53h1M43 53h1M46 53h4M63 53h2M68 53h1M33 54h1M43 54h1M47 54h3M56 54h2M64 54h5M33 55h1M43 55h1M47 55h3M53 55h1M56 55h2M66 55h2M31 56h1M33 56h1M38 56h4M43 56h4M53 56h1M65 56h3M31 57h1M33 57h1M48 57h2M56 57h5M64 57h2M32 58h1M34 58h1M43 58h1M48 58h2M52 58h1M57 58h1M61 58h3M34 59h1M43 59h2M47 59h3M58 59h4M35 60h1M45 60h4M33 61h1M36 61h1M43 61h2M33 62h2M39 62h6M52 62h2M32 63h3M51 63h4M31 64h5M50 64h5M31 65h4M50 65h5M29 66h6M51 66h5M30 67h4M54 67h1M30 68h4M53 68h2M32 69h1M52 69h1" />
</svg>