<svg xmlns="http://www.w3.org/2000/svg" viewBox="0 -0.5 96 96" shape-rendering="crispEdges">
<metadata>Made with Pixels to Svg https://codepen.io/shshaw/pen/XbxvNj</metadata>
<path stroke="#848473" d="M34 34h1M42 34h1M48 34h1M37 35h1M44 35h2M51 35h1M35 36h1M39 36h1M43 36h1M53 36h1M36 37h1M40 37h1M43 37h1M55 37h1M35 38h1M37 38h1M45 38h1M51 38h1M53 38h1M40 39h5M47 39h1M54 39h2M57 39h1M38 40h5M48 40h1M55 40h2M33 41h1M35 41h1M37 41h5M49 41h1M56 41h1M63 41h1M36 42h5M50 42h1M62 42h1M34 43h1M36 43h4M51 43h1M60 43h1M37 44h3M51 44h1M57 44h2M38 45h1M52 45h1M59 45h1M36 46h3M52 46h2M57 46h2M60 46h1M36 47h1M53 47h6M60 47h1M37 48h1M40 48h3M55 48h3M60 48h2M33 49h1M38 49h1M42 49h2M36 50h1M40 50h2M55 50h2M59 50h1M31 51h1M39 51h1M42 51h1M45 51h1M54 51h4M34 52h1M41 52h4M52 52h6M30 53h1M38 53h1M41 53h4M46 53h2M52 53h5M58 53h2M61 53h1M33 54h1M41 54h4M46 54h3M51 54h5M60 54h1M37 55h1M40 55h1M42 55h4M47 55h7M57 55h1M36 56h1M42 56h1M46 56h1M49 56h5M32 57h1M36 57h1M46 57h1M52 57h1M51 58h2M52 59h1M53 60h1M54 61h1" />
<path stroke="#313131" d="M35 34h1M43 34h5M34 35h1M36 35h1M39 35h3M49 35h2M34 36h1M37 36h2M52 36h1M35 37h1M37 37h1M41 37h2M53 37h2M36 38h1M38 38h7M52 38h1M55 38h1M35 39h1M37 39h3M45 39h2M50 39h1M56 39h1M34 40h1M36 40h2M43 40h5M49 40h1M57 40h1M34 41h1M36 41h1M42 41h7M57 41h6M33 42h1M35 42h1M41 42h1M45 42h5M56 42h1M63 42h1M33 43h1M35 43h1M40 43h1M46 43h5M61 43h2M34 44h3M40 44h1M43 44h1M46 44h5M59 44h3M36 45h2M39 45h2M46 45h3M51 45h1M58 45h1M60 45h2M34 46h2M39 46h3M45 46h3M51 46h1M59 46h1M62 46h1M34 47h1M37 47h11M50 47h1M52 47h1M59 47h1M62 47h1M35 48h2M43 48h5M53 48h2M58 48h2M62 48h1M34 49h1M44 49h5M52 49h10M32 50h1M42 50h12M57 50h2M40 51h2M46 51h6M58 51h2M31 52h1M39 52h2M45 52h1M48 52h3M58 52h1M60 52h1M39 53h2M45 53h1M49 53h2M57 53h1M60 53h1M30 54h1M38 54h3M56 54h4M30 55h1M38 55h1M41 55h1M46 55h1M54 55h3M31 56h1M37 56h1M43 56h3M47 56h2M54 56h2M33 57h3M47 57h5M54 57h1M50 58h1M54 58h1M51 59h1M54 59h1M52 60h1M54 60h1M53 61h1" />
<path stroke="#cece94" d="M35 35h1M46 35h1M41 36h1M39 37h1M44 37h7M47 38h4M54 38h1M36 39h1M48 39h2M51 39h3M35 40h1M50 40h5M51 41h5M34 42h1M42 42h3M52 42h4M57 42h3M45 43h1M52 43h8M52 44h5M49 45h2M53 45h5M54 46h3M61 46h1M35 47h1M61 47h1M38 48h2M37 49h1M39 49h3M35 50h1M39 50h1M54 50h1M34 51h2M38 51h1M43 51h2M53 51h1M37 52h2M46 52h2M51 52h1M59 52h1M33 53h1M37 53h1M51 53h1M36 54h2M45 54h1M49 54h2M31 55h1M35 55h2M32 56h4M53 57h1M53 58h1M53 59h1" />
<path stroke="#ffffff" d="M42 35h2M47 35h2M36 36h1M40 36h1M42 36h1M44 36h8M38 37h1M51 37h2M46 38h1M50 41h1M51 42h1M60 42h2M41 43h4M41 44h2M44 44h2M41 45h5M42 46h3M48 46h3M48 47h2M51 47h1M48 48h5M35 49h2M49 49h3M33 50h2M37 50h2M32 51h2M36 51h2M52 51h1M32 52h2M35 52h2M31 53h2M34 53h3M48 53h1M31 54h2M34 54h2M32 55h3" />
</svg>