<svg xmlns="http://www.w3.org/2000/svg" viewBox="0 -0.5 64 64" shape-rendering="crispEdges">
<metadata>Made with Pixels to Svg https://codepen.io/shshaw/pen/XbxvNj</metadata>
<path stroke="#78a840" d="M37 15h1M36 16h1M38 16h1M34 17h3M38 17h1M30 18h3M28 19h1M41 19h1M43 19h1M32 20h1M34 20h1M41 20h1M26 21h1M43 21h1M30 22h1M43 22h1M41 23h1M43 23h2M41 24h1M43 24h3M41 25h2M44 25h2M40 26h3M44 26h3M36 27h7M44 27h3M37 28h6M44 28h3M38 29h5M44 29h2M39 30h3M43 30h1" />
<path stroke="#587040" d="M39 15h2M39 16h1M41 16h1M39 17h1M38 18h1M42 18h1M37 19h1M42 19h1M27 20h1M33 20h1M42 20h2M31 21h1M42 21h1M44 21h1M26 22h1M42 22h1M44 22h1M42 23h1M42 24h1M43 25h1M43 26h1M47 26h1M43 27h1M43 28h1M43 29h1M46 29h1M42 30h1M44 30h3M40 31h7M41 32h5M43 33h2" />
<path stroke="#98d048" d="M37 16h1M40 16h1M37 17h1M40 17h2M37 18h1M39 18h3M29 19h2M34 19h3M38 19h1M40 19h1M28 20h4M27 21h4M32 21h3M38 21h1M40 21h2M27 22h3M31 22h1M35 22h1M37 22h1M39 22h1M41 22h1M28 23h2M36 23h1M38 23h1M40 23h1M36 24h5M36 25h5M36 26h4" />
<path stroke="#101010" d="M42 16h1M42 17h1M43 18h2M44 19h1M44 20h1M45 22h1M45 23h1M35 24h1M46 24h1M35 25h1M46 25h1M35 26h1M35 27h1M47 27h1M36 28h1M47 28h1M36 29h2M47 29h1M17 30h1M27 30h1M36 30h1M38 30h1M47 30h1M26 31h1M28 31h1M31 31h1M36 31h1M39 31h1M28 32h1M36 32h1M46 32h1M42 33h1M45 33h1M43 34h2M44 35h1M15 36h1M16 37h1M45 37h1M17 38h1M37 38h1M45 38h1M38 40h1M46 40h1M38 41h1M46 41h1M38 42h1M46 42h1M38 43h1M46 43h1M22 44h1M27 44h5M38 44h1M45 44h1M21 45h1M27 45h1M32 45h1M39 45h1M45 45h1M19 46h2M28 46h4M33 46h1M42 46h3" />
<path stroke="#b8f870" d="M33 18h4M31 19h3M39 19h1M35 20h6M35 21h3M39 21h1M36 22h1M38 22h1M40 22h1M37 23h1M39 23h1" />
<path stroke="#609098" d="M17 22h1M16 23h1M22 23h1M27 23h1M34 23h1M16 24h1M20 24h1M34 24h1M16 25h1M22 25h4M33 25h2M16 26h1M23 26h2M32 26h3M20 27h2M31 27h4M15 28h1M20 28h2M25 28h1M28 28h1M31 28h4M15 29h1M17 29h1M24 29h1M27 29h1M31 29h5M15 30h1M26 30h1M32 30h4M37 30h1M15 31h1M18 31h1M32 31h4M37 31h2M14 32h1M18 32h1M25 32h1M32 32h4M37 32h3M16 33h1M18 33h1M25 33h1M28 33h1M31 33h5M37 33h2M20 34h1M30 34h6M37 34h2M14 35h1M31 35h1M33 35h2M36 35h3M42 35h1M16 36h1M20 36h1M23 36h1M32 36h12M31 37h6M38 37h2M41 37h4M30 38h7M38 38h1M40 38h2M44 38h1M18 39h1M27 39h3M31 39h2M35 39h3M40 39h1M44 39h2M17 40h1M19 40h1M27 40h1M30 40h1M34 40h1M37 40h1M39 40h2M43 40h3M17 41h1M28 41h3M37 41h1M39 41h7M21 42h1M23 42h8M36 42h2M39 42h7M16 43h1M18 43h1M20 43h2M25 43h6M32 43h1M36 43h2M40 43h5M16 44h1M20 44h2M35 44h3M41 44h3M16 45h1M18 45h3M34 45h4M15 46h1M16 47h1M18 47h1" />
<path stroke="#285860" d="M18 22h1M32 22h3M19 23h1M23 23h4M30 23h2M35 23h1M28 24h2M29 28h1M35 28h1M30 29h1M31 30h1M31 32h1M40 32h1M14 33h1M36 33h1M39 33h3M14 34h1M23 34h1M36 34h1M39 34h4M32 35h1M35 35h1M39 35h3M43 35h1M28 36h4M44 36h1M30 37h1M37 37h1M40 37h1M29 38h1M39 38h1M42 38h2M30 39h1M38 39h2M41 39h3M46 39h1M20 40h1M28 40h2M31 40h1M35 40h2M41 40h2M21 41h7M31 41h1M35 41h2M17 42h2M22 42h1M31 42h1M17 43h1M22 43h3M31 43h1M39 43h1M45 43h1M25 44h2M32 44h1M39 44h2M44 44h1M28 45h4M33 45h1M38 45h1M41 45h1M43 45h1M17 46h1M35 46h1M37 46h1M40 46h2M34 47h1M36 47h1M38 47h1" />
<path stroke="#80e8c0" d="M17 23h2M32 23h1M17 24h2M30 24h2M17 25h5M17 26h6M17 27h3M22 27h1M16 28h4M22 28h1M26 28h2M18 29h5M25 29h2M19 30h4M24 30h2M19 31h3M24 31h1M15 32h1M19 32h2M15 33h1M15 34h3" />
<path stroke="#60d0a0" d="M33 23h1M19 24h1M21 24h7M32 24h2M26 25h7M25 26h7M16 27h1M23 27h8M23 28h2M30 28h1M16 29h1M23 29h1M18 30h1M23 30h1M22 31h2M25 31h1M21 32h4M19 33h6M18 34h2M21 34h2M24 34h6M15 35h16M21 36h2M17 37h1M18 38h1M19 39h2M33 39h2M18 40h1M21 40h6M32 40h2M18 41h3M32 41h3M19 42h2M32 42h4M19 43h1M33 43h3M17 44h3M33 44h2M17 45h1M40 45h1M42 45h1M44 45h1" />
<path stroke="#c8c8c8" d="M28 29h2M30 30h1M30 31h1M30 32h1M30 33h1" />
<path stroke="#f8f8f8" d="M16 30h1M28 30h2M16 31h1M29 31h1M16 32h1M26 32h1M29 32h1M26 33h1M29 33h1M17 36h1M27 36h1M16 46h1M18 46h1M34 46h1M36 46h1M38 46h1" />
<path stroke="#b82820" d="M17 31h1M27 31h1M18 36h2M24 36h3M18 37h12M19 38h4M27 38h2M21 39h1M26 39h1" />
<path stroke="#f86860" d="M17 32h1M27 32h1M17 33h1M27 33h1" />
<path stroke="#d84840" d="M23 38h4M22 39h4" />
</svg>