<svg xmlns="http://www.w3.org/2000/svg" viewBox="0 -0.5 64 64" shape-rendering="crispEdges">
<metadata>Made with Pixels to Svg https://codepen.io/shshaw/pen/XbxvNj</metadata>
<path stroke="#a03828" d="M27 9h7M25 10h2M34 10h1M23 11h2M37 11h1M22 12h1M43 16h2M53 16h1M9 17h3M16 17h1M18 17h1M41 17h1M49 17h1M54 17h1M8 18h1M12 18h1M15 18h1M18 18h1M42 18h1M17 19h1M39 19h1M43 19h1M15 20h2M46 20h1M54 20h1M12 21h3M27 21h1M55 21h1M7 22h1M11 22h1M15 22h1M25 22h2M42 22h1M6 23h1M14 23h1M16 23h1M44 23h1M12 24h1M15 24h1M39 24h1M46 24h1M10 25h1M40 25h1M50 25h1M41 26h1M53 26h1M12 27h2M47 29h1M13 30h1M18 30h1M12 31h1M19 31h1M31 31h1M19 32h1M24 32h2M30 32h1M50 32h1M20 33h1M22 33h1M27 33h1M29 33h1M15 34h1M21 34h1M28 34h1M35 34h1M34 35h1M17 36h1M29 36h1M32 36h1M54 36h3M19 37h1M30 37h1M52 37h2M18 38h1M29 38h1M31 38h1M51 38h1M18 39h1M20 39h1M27 39h1M55 39h1M18 40h1M22 40h1M26 40h1M14 41h1M18 41h1M14 42h1M30 42h1M48 42h1M15 43h1M19 43h1M22 45h1M27 45h1M49 45h1M23 46h1M47 46h1M45 47h1M20 48h1M21 49h1M42 49h1M18 50h3M25 50h1M43 50h1M17 51h1M36 51h1M18 53h1" />
<path stroke="#f8e0e0" d="M27 10h6M25 11h9M23 12h1M25 12h8M22 13h1M24 13h1M26 13h1M21 14h1M23 14h1M25 14h1M22 15h1M16 18h1M13 19h3M47 21h1M12 22h3" />
<path stroke="#f8d0d0" d="M33 10h1M34 11h3M24 12h1M33 12h6M23 13h1M25 13h1M27 13h13M22 14h1M24 14h1M26 14h14M21 15h1M23 15h16M20 16h19M19 17h4M24 17h5M30 17h10M17 18h1M19 18h4M24 18h5M30 18h12M16 19h1M18 19h5M24 19h5M30 19h9M40 19h3M12 20h3M17 20h23M41 20h5M15 21h9M25 21h2M28 21h13M42 21h5M48 21h1M16 22h1M18 22h7M27 22h15M44 22h4M11 23h2M15 23h1M17 23h27M46 23h1M13 24h2M16 24h23M40 24h6M11 25h4M16 25h24M41 25h7M12 26h2M15 26h26M43 26h4M15 27h26M14 28h28M14 29h28M14 30h4M19 30h12M32 30h11M13 31h6M20 31h11M32 31h11M13 32h6M21 32h2M27 32h3M31 32h12M13 33h3M17 33h3M30 33h3M35 33h8M13 34h2M29 34h3M36 34h7M13 35h2M29 35h2M36 35h7M13 36h2M35 36h7M13 37h3M35 37h7M54 37h2M14 38h4M34 38h8M52 38h4M14 39h4M33 39h8M50 39h5M15 40h3M32 40h8M50 40h3M15 41h3M32 41h7M50 41h1M16 42h2M32 42h5M18 43h1M32 43h3M44 43h1M46 43h1M43 44h1M45 44h1M40 45h1M42 45h1M44 45h1M39 46h1M41 46h1M43 46h1M38 47h1M40 47h1M42 47h1M37 48h1M39 48h1M41 48h1M38 49h1" />
<path stroke="#101010" d="M35 10h2M38 11h1M39 12h1M21 13h1M40 13h1M20 14h1M41 14h1M19 15h1M42 15h1M19 16h1M50 16h3M17 17h1M45 17h4M13 18h2M23 18h1M29 18h1M54 18h1M8 19h1M23 19h1M29 19h1M44 19h2M53 19h1M9 20h2M40 20h1M47 20h7M41 21h1M8 22h3M43 22h1M55 22h1M13 23h1M45 23h1M55 23h1M6 24h1M11 24h1M47 24h3M54 24h1M7 25h3M15 25h1M51 25h3M7 26h1M14 26h1M42 26h1M7 27h1M14 27h1M43 27h2M53 27h1M8 28h4M13 28h1M45 28h2M52 28h1M13 29h1M48 29h4M49 30h1M49 31h1M12 32h1M12 33h1M50 33h1M12 34h1M20 34h1M50 34h1M12 35h1M16 35h1M20 35h1M28 35h1M33 35h1M50 35h1M12 36h1M18 36h2M30 36h2M50 36h1M12 37h1M50 37h1M56 37h1M13 38h1M30 38h1M50 38h1M56 38h1M13 39h1M28 39h1M31 39h1M49 39h1M13 40h1M23 40h3M31 40h1M49 40h1M55 40h1M31 41h1M49 41h1M54 41h1M53 42h1M30 43h1M48 43h1M52 43h1M15 44h1M20 44h1M29 44h1M47 44h1M51 44h1M16 45h1M21 45h1M28 45h1M46 45h1M50 45h1M17 46h1M24 46h3M45 46h1M48 46h1M18 47h2M44 47h1M46 47h1M21 48h1M42 48h2M22 49h3M39 49h3M26 50h13M28 51h1M44 51h1M17 52h1M26 52h2M36 52h1M45 52h1M19 53h7M37 53h2M44 53h2M39 54h5" />
<path stroke="#e8a8b8" d="M40 14h1M20 15h1M39 15h3M39 16h4M40 17h1M42 17h3M43 18h7M46 19h3M17 22h1M41 27h2M42 28h3M42 29h5M43 30h6M43 31h6M20 32h1M23 32h1M26 32h1M43 32h7M16 33h1M21 33h1M28 33h1M33 33h2M43 33h7M16 34h4M32 34h3M43 34h7M15 35h1M17 35h3M31 35h2M35 35h1M43 35h7M15 36h2M33 36h2M42 36h8M16 37h3M31 37h4M42 37h8M32 38h2M42 38h8M32 39h1M41 39h8M14 40h1M40 40h9M53 40h2M39 41h10M51 41h3M15 42h1M18 42h1M31 42h1M37 42h11M49 42h4M16 43h2M31 43h1M35 43h9M45 43h1M47 43h1M49 43h3M16 44h4M30 44h13M44 44h1M46 44h1M48 44h3M17 45h4M29 45h11M41 45h1M43 45h1M45 45h1M47 45h2M18 46h5M27 46h12M40 46h1M42 46h1M44 46h1M46 46h1M20 47h18M39 47h1M41 47h1M43 47h1M22 48h15M38 48h1M40 48h1M25 49h13" />
<path stroke="#f8f8f8" d="M23 17h1M29 17h1M23 33h3M22 34h4M21 35h5M20 36h6M20 37h5M21 38h4" />
<path stroke="#e05030" d="M50 17h4M50 18h4M49 19h4M11 21h1M54 21h1M53 23h2M50 24h4M52 26h1M51 27h2M47 28h5M30 39h1M30 40h1M28 41h3M19 42h1M25 42h5M25 43h5M25 44h4M23 45h4M23 50h2M39 50h4M24 51h4M37 51h4M43 51h1M23 52h3M37 52h3M39 53h1" />
<path stroke="#f88058" d="M9 18h3M9 19h4M11 20h1M49 21h5M48 22h7M7 23h4M47 23h6M7 24h4M48 25h2M8 26h4M47 26h5M8 27h4M45 27h6M19 38h1M29 39h1M19 40h1M21 40h1M27 40h3M19 41h2M24 41h4M20 42h5M20 43h5M21 44h4M21 50h2M18 51h6M41 51h2M18 52h5M40 52h5M40 53h4" />
<path stroke="#f07070" d="M24 21h1M31 30h1" />
<path stroke="#f0e8a0" d="M26 33h1M26 34h2M26 35h2M26 36h3M25 37h5M20 38h1M25 38h4M21 39h6" />
<path stroke="#f8a8a8" d="M19 39h1M20 40h1M21 41h3" />
</svg>