<svg xmlns="http://www.w3.org/2000/svg" viewBox="0 -0.5 64 64" shape-rendering="crispEdges">
<metadata>Made with Pixels to Svg https://codepen.io/shshaw/pen/XbxvNj</metadata>
<path stroke="#70a840" d="M20 1h1M19 2h1M19 3h1M19 4h1M47 4h1M18 5h1M20 6h1M47 6h1M20 7h1M41 7h1M45 7h1M20 8h1M41 8h1M43 8h1M20 9h1M42 9h1M20 10h1M41 10h1M20 11h1M37 11h1M40 11h1M36 12h1M39 12h1M18 13h1M21 13h1M35 13h1M38 13h1M21 14h1M34 14h2M37 14h1M20 16h1M36 16h1M21 17h1M35 17h1M21 18h1M21 19h1M23 19h1M34 19h1M22 20h2M23 21h1M31 21h2M31 22h2M30 23h2M12 24h1M26 24h1M30 24h2M12 25h1M24 25h2M29 25h2M52 25h2M11 26h1M18 26h1M22 26h3M29 26h2M41 26h1M54 26h2M11 27h1M13 27h1M17 27h1M22 27h2M29 27h1M40 27h1M55 27h2M13 28h1M17 28h1M22 28h1M40 28h1M56 28h1M37 29h3M56 29h2M21 30h1M36 30h4M57 30h1M18 31h3M26 31h2M35 31h5M57 31h1M16 32h1M23 32h3M35 32h4M58 32h1M23 33h1M35 33h4M58 33h1M29 34h2M36 34h1M58 34h1M27 35h6M58 35h1M28 36h4M33 36h2M57 36h2M22 37h1M27 37h1M29 37h2M32 37h1M57 37h1M14 38h1M20 38h1M22 38h2M25 38h4M31 38h1M57 38h1M13 39h1M30 39h2M38 39h5M57 39h1M11 40h2M19 40h1M39 40h4M56 40h1M8 41h3M19 41h1M29 41h1M39 41h3M56 41h1M24 42h1M30 42h1M32 42h1M39 42h3M55 42h1M23 43h3M27 43h3M33 43h1M37 43h4M55 43h1M21 44h6M33 44h8M54 44h1M23 45h4M28 45h1M35 45h4M27 46h3M27 47h2M36 48h1M39 48h2M35 49h6M35 50h6M38 51h3M32 52h1M39 52h3M39 53h3M39 54h3M31 55h1M39 55h2M31 56h2M38 56h3M35 57h2M39 57h1M35 58h1" />
<path stroke="#98d848" d="M20 2h1M20 3h1M20 4h1M19 5h2M47 5h3M19 6h1M45 6h2M19 7h1M43 7h2M19 8h1M42 8h1M19 9h1M40 9h2M19 10h1M39 10h2M19 11h1M38 11h2M19 12h2M37 12h2M19 13h2M36 13h2M20 14h1M36 14h1M20 15h2M35 15h2M21 16h1M34 16h2M33 17h2M19 18h1M33 18h2M18 19h2M32 19h2M42 19h2M17 20h4M32 20h2M42 20h3M16 21h5M41 21h2M44 21h2M15 22h1M18 22h2M21 22h3M41 22h1M45 22h2M18 23h9M41 23h1M46 23h2M18 24h6M48 24h2M18 25h4M27 25h1M39 25h2M49 25h3M13 26h1M17 26h1M20 26h1M25 26h1M27 26h1M33 26h1M35 26h1M39 26h2M24 27h1M26 27h3M31 27h1M34 27h1M36 27h1M38 27h1M23 28h2M26 28h4M35 28h1M37 28h2M12 29h2M17 29h1M22 29h4M27 29h2M30 29h1M34 29h1M36 29h1M12 30h1M17 30h1M22 30h4M28 30h1M30 30h1M33 30h3M21 31h1M30 31h5M17 32h3M28 32h2M31 32h4M15 33h3M26 33h4M31 33h4M13 34h4M22 34h1M27 34h2M33 34h3M14 35h2M21 35h2M16 36h1M21 36h1M41 36h1M16 37h1M20 37h1M40 37h2M17 38h1M19 38h1M33 38h1M40 38h2M21 39h1M24 39h1M28 39h2M33 39h2M22 40h1M24 40h7M32 40h7M7 41h1M22 41h2M25 41h4M32 41h7M20 42h4M33 42h6M21 43h2M34 43h3M26 47h1M34 51h4M33 52h1M36 52h3M32 53h1M36 53h3M32 54h1M35 54h4M32 55h7M35 56h3" />
<path stroke="#406020" d="M21 2h1M48 4h3M45 5h2M50 5h1M18 6h1M43 6h2M18 7h1M42 7h1M18 8h1M40 8h1M18 9h1M39 9h1M18 10h1M38 10h1M18 11h1M18 12h1M19 14h1M19 15h1M34 15h1M19 16h1M33 16h1M19 17h2M32 17h1M23 18h2M32 18h1M42 18h2M22 19h1M31 19h1M41 19h1M44 19h1M13 20h2M16 20h1M31 20h1M41 20h1M13 21h1M15 21h1M21 21h2M30 21h1M33 21h1M40 21h1M46 21h1M13 22h2M20 22h1M29 22h2M40 22h1M47 22h1M13 23h1M32 23h1M40 23h1M48 23h2M24 24h2M29 24h1M39 24h2M50 24h2M53 24h1M22 25h2M28 25h1M31 25h1M33 25h4M38 25h1M41 25h1M55 25h1M21 26h1M26 26h1M28 26h1M31 26h2M37 26h2M42 26h2M56 26h1M20 27h1M25 27h1M30 27h1M39 27h1M41 27h1M57 27h1M11 28h1M30 28h1M57 28h1M11 29h1M18 29h1M29 29h1M58 29h1M18 30h1M27 30h1M29 30h1M17 31h1M22 31h1M25 31h1M29 31h1M20 32h2M30 32h1M39 32h1M59 32h1M12 33h1M18 33h1M26 34h1M38 34h1M26 35h1M27 36h1M32 36h1M38 36h1M40 36h1M59 36h1M15 37h1M21 37h1M23 37h4M39 37h1M58 37h1M32 38h1M38 38h2M42 38h1M53 38h1M25 39h1M32 39h1M37 39h1M43 39h1M53 39h1M58 39h1M23 40h1M31 40h1M53 40h1M57 40h1M30 41h2M53 41h1M6 42h1M19 42h1M26 42h4M56 42h1M20 43h1M30 43h2M29 44h3M22 45h1M32 45h1M30 46h1M52 46h1M23 47h1M25 47h1M36 47h1M39 47h1M34 48h1M37 48h2M41 48h1M33 51h1M42 52h1M31 53h1M41 55h1M29 56h1M33 56h2M28 57h1M32 57h1M37 57h2M32 58h1M36 58h1M39 58h1M31 59h1M36 59h1" />
<path stroke="#988830" d="M21 3h1M21 4h1M22 6h1M25 6h1M49 6h1M22 7h1M24 7h1M26 7h1M48 7h1M23 8h2M26 8h1M48 8h1M23 9h2M47 9h1M23 10h1M46 10h1M23 11h1M27 11h1M46 11h4M23 12h1M27 12h1M45 12h1M49 12h1M22 13h1M27 13h1M44 13h1M22 14h1M27 14h1M48 14h1M22 15h1M27 15h1M43 15h1M22 16h1M42 16h1M47 16h1M22 17h1M41 17h1M46 17h1M22 18h1M40 18h1M45 18h1M26 19h1M40 19h1M26 20h1M39 20h1M26 21h1M38 21h1M36 22h2M35 23h1M39 23h1M34 24h1M37 24h2M35 36h3M34 37h1" />
<path stroke="#f0e078" d="M21 5h1M21 7h1M22 8h1M21 9h1M22 10h1M24 10h1M21 11h1M24 11h1M22 12h1M24 12h2M46 12h3M23 13h4M45 13h4M23 14h4M45 14h3M23 15h4M44 15h4M23 16h4M43 16h4M23 17h4M42 17h4M25 18h1M41 18h1M44 18h1M25 19h1M25 20h1M34 20h3M40 20h1M25 21h1M34 21h3M39 21h1M33 22h3M38 22h2M33 23h2M36 23h3M32 24h2M35 24h2M32 25h1M24 34h2M24 35h2M23 36h4M35 37h4M35 38h3" />
<path stroke="#c8c058" d="M22 5h1M27 10h1M49 13h1M44 14h1M48 15h1M27 16h1M26 18h1M39 46h1M37 47h2" />
<path stroke="#f8f8a8" d="M21 6h1M48 6h1M25 7h1M46 7h2M21 8h1M25 8h1M44 8h4M22 9h1M25 9h2M43 9h4M21 10h1M25 10h2M42 10h4M22 11h1M25 11h2M41 11h5M21 12h1M26 12h1M40 12h5M39 13h5M38 14h6M37 15h6M37 16h5M36 17h5M35 18h5M35 19h5M37 20h2M37 21h1" />
<path stroke="#101010" d="M18 18h1M20 18h1M17 19h1M20 19h1M24 19h1M21 20h1M24 20h1M45 20h1M24 21h1M24 22h5M29 23h1M27 24h2M52 24h1M26 25h1M54 25h1M19 28h1M25 28h1M39 28h1M41 28h1M19 29h1M26 29h1M40 29h1M11 30h1M26 30h1M40 30h1M58 30h1M12 31h1M23 31h2M28 31h1M40 31h1M58 31h1M12 32h1M26 32h2M19 33h1M24 33h2M30 33h1M39 33h1M59 33h1M12 34h1M17 34h1M23 34h1M31 34h2M37 34h1M59 34h1M13 35h1M16 35h1M23 35h1M33 35h4M41 35h1M59 35h1M14 36h2M22 36h1M42 36h1M28 37h1M31 37h1M33 37h1M42 37h1M15 38h2M21 38h1M24 38h1M29 38h2M34 38h1M58 38h1M14 39h1M17 39h4M22 39h2M26 39h2M35 39h2M13 40h1M43 40h1M11 41h2M24 41h1M42 41h1M57 41h1M7 42h4M25 42h1M31 42h1M42 42h1M26 43h1M32 43h1M41 43h1M56 43h1M20 44h1M27 44h2M32 44h1M41 44h1M55 44h1M21 45h1M27 45h1M29 45h3M33 45h2M39 45h2M54 45h1M23 46h4M35 46h4M40 46h1M53 46h1M29 47h1M40 47h1M24 48h2M28 48h1M35 48h1M26 49h2M34 49h1M41 49h1M34 50h1M41 50h1M41 51h1M42 53h1M31 54h1M42 54h1M30 55h1M41 56h1M31 57h1M40 57h1M29 58h2M34 59h2M39 59h1M31 60h3M37 60h1M39 60h1M38 61h1" />
<path stroke="#b8f870" d="M14 21h1M16 22h2M14 23h4M27 23h2M13 24h5M13 25h5M12 26h1M14 26h3M19 26h1M34 26h1M36 26h1M12 27h1M14 27h3M18 27h2M32 27h2M35 27h1M37 27h1M12 28h1M14 28h3M18 28h1M31 28h4M36 28h1M14 29h3M31 29h3M35 29h1M13 30h4M31 30h2M13 31h4M13 32h3M13 33h2M18 38h1M20 40h2M20 41h2M34 52h2M33 53h3M33 54h2" />
<path stroke="#f8f8f8" d="M43 21h1M43 22h2M42 23h1M44 23h2M41 24h3M45 24h3M42 25h3M46 25h3M44 26h2M47 26h5M45 27h2M48 27h4M21 28h1M45 28h2M48 28h3M20 29h2M46 29h2M10 30h1M19 30h2M46 30h5M10 31h2M50 31h1M11 32h1M11 33h1M11 34h1M11 35h2M17 35h1M11 36h1M10 37h1M24 47h1M26 48h2M30 56h1M29 57h2M33 57h2M33 58h2M32 59h1M38 59h1M38 60h1" />
<path stroke="#d8d8d8" d="M42 22h1M43 23h1M52 26h2M21 27h1M52 27h3M20 28h1M51 28h5M53 29h3M51 30h2M54 30h3M51 31h3M55 31h2M51 32h3M55 32h3M52 33h3M56 33h2M52 34h3M56 34h2M53 35h2M56 35h2M12 36h2M53 36h2M56 36h1M11 37h4M54 37h1M56 37h1M10 38h4M54 38h3M9 39h4M54 39h3M8 40h3M54 40h2M54 41h2M54 42h1M53 43h2M53 44h1M53 45h1M37 58h2M33 59h1M37 59h1" />
<path stroke="#b8b8b8" d="M44 24h1M45 25h1M46 26h1M47 27h1M44 28h1M47 28h1M48 29h4M9 30h1M45 30h1M9 31h1M46 31h1M49 31h1M10 32h1M10 36h1M55 36h1M9 37h1M55 37h1" />
<path stroke="#707070" d="M44 27h1M10 29h1M45 29h1M52 29h1M53 30h1M47 31h2M54 31h1M50 32h1M54 32h1M10 33h1M51 33h1M55 33h1M10 34h1M51 34h1M55 34h1M10 35h1M52 35h1M55 35h1M52 36h1M53 37h1M9 38h1M8 39h1M7 40h1M6 41h1M53 42h1M52 43h1M52 44h1M52 45h1" />
<path stroke="#c83838" d="M22 32h1M20 33h3M18 34h4M18 35h3M17 36h4M17 37h3" />
</svg>