<svg xmlns="http://www.w3.org/2000/svg" viewBox="0 -0.5 64 64" shape-rendering="crispEdges">
<metadata>Made with Pixels to Svg https://codepen.io/shshaw/pen/XbxvNj</metadata>
<path stroke="#d8b850" d="M24 2h1M23 3h1M22 4h1M22 7h1M21 8h1M16 9h2M12 10h1M18 10h1M11 11h1M33 11h1M10 12h1M34 12h2M49 13h1M46 14h1M46 15h1M29 16h1M29 17h2M14 20h1M27 20h1M34 20h2M14 21h1M27 21h1M35 21h3M6 22h1M14 22h1M27 22h1M36 22h3M50 22h3M5 23h1M14 23h1M27 23h1M35 23h4M43 23h1M50 23h3M5 24h1M10 24h2M14 24h1M25 24h2M31 24h5M42 24h2M51 24h3M13 25h3M21 25h3M26 25h1M31 25h2M36 25h1M41 25h2M11 26h2M15 26h1M17 26h1M30 26h2M33 26h4M10 27h3M16 27h1M21 27h1M30 27h1M32 27h4M53 27h2M8 28h3M12 28h2M29 28h1M31 28h4M52 28h4M6 29h3M11 29h3M17 29h1M27 29h2M30 29h4M38 29h1M52 29h4M7 30h3M11 30h2M29 30h3M38 30h1M52 30h2M55 30h1M26 31h1M28 31h2M37 31h3M45 31h1M51 31h1M53 31h2M24 32h1M37 32h4M48 32h4M53 32h2M37 33h4M48 33h4M53 33h1M21 34h1M38 34h4M48 34h3M38 35h4M18 36h1M38 36h5M38 37h3M37 38h1M59 38h3M57 39h2M62 40h1M42 41h1M60 41h3M40 42h3M59 42h3M33 43h1M38 43h4M56 43h1M36 44h6M55 44h2M31 45h1M34 45h6M41 45h1M55 45h1M14 46h1M20 46h1M22 46h1M29 46h9M13 47h1M19 47h3M23 47h14M52 47h1M19 48h2M25 48h10M36 48h2M51 48h3M18 49h2M28 49h8M37 49h2M52 49h1M18 50h2M38 50h1M47 50h3M12 51h2M18 51h3M33 51h4M38 51h2M45 51h5M11 52h1M19 52h3M35 52h3M39 52h1M44 52h1M46 52h2M17 53h5M39 53h1M14 54h5M38 54h2M15 55h1M38 55h3M39 56h3M45 56h3M41 57h1M46 57h2" />
<path stroke="#705810" d="M24 3h1M24 4h1M22 5h1M24 5h1M22 6h1M21 9h1M33 9h3M13 10h1M16 10h1M21 10h1M32 10h1M35 10h2M17 11h1M19 11h1M21 11h1M24 11h1M32 11h1M20 12h1M24 12h3M32 12h2M13 13h1M18 13h1M20 13h1M24 13h1M31 13h1M13 14h1M21 14h1M30 14h1M32 14h1M47 14h1M50 14h1M17 15h1M29 15h1M48 15h1M13 16h2M16 16h1M19 16h1M28 16h1M31 16h1M46 16h1M51 16h2M15 17h1M25 17h1M28 17h1M31 17h1M46 17h1M14 18h1M29 18h1M9 19h1M13 19h1M34 19h1M51 19h1M8 20h1M13 20h1M25 20h2M36 20h2M41 20h1M52 20h1M12 21h1M15 21h1M24 21h1M39 21h2M10 22h2M16 22h1M45 22h1M9 23h1M22 23h1M44 23h1M9 24h1M21 24h1M36 24h1M4 25h1M11 25h1M27 25h1M30 25h1M33 25h1M19 26h1M24 26h2M29 26h1M13 27h1M15 27h1M22 27h1M29 27h1M5 28h1M11 28h1M16 28h1M21 28h1M27 28h2M56 28h1M9 29h1M16 29h1M17 30h2M37 30h1M39 30h1M46 30h1M54 30h1M10 31h1M17 31h1M19 31h1M23 31h1M40 31h1M52 31h1M55 31h1M41 32h1M45 32h1M47 32h1M19 34h1M42 34h1M51 34h1M19 35h1M51 35h1M43 36h1M18 37h1M56 40h1M63 41h1M18 42h1M43 42h1M18 43h2M61 43h1M16 44h2M19 44h1M52 44h1M15 45h1M20 45h1M40 45h1M21 46h1M41 46h1M51 46h1M50 47h1M13 48h1M35 48h1M49 48h1M13 49h1M25 49h1M36 49h1M48 49h1M14 50h1M20 50h1M28 50h1M45 50h1M14 51h2M21 51h1M33 52h1M43 52h1M35 53h1M44 53h1M46 53h1M13 54h1M21 54h1M37 54h1M48 54h1M14 55h1M18 55h1" />
<path stroke="#f8e038" d="M23 4h1M23 5h1M23 9h1M23 10h1M33 10h2M13 11h1M22 11h2M34 11h2M12 12h2M18 12h2M21 12h3M11 13h2M14 13h1M19 13h1M21 13h3M25 13h2M32 13h1M14 14h2M19 14h2M22 14h7M31 14h1M15 15h2M18 15h1M20 15h5M26 15h1M28 15h1M30 15h2M47 15h1M15 16h1M18 16h1M20 16h4M27 16h1M30 16h1M14 17h1M20 17h3M26 17h2M50 17h2M21 18h1M25 18h4M31 18h2M45 18h3M49 18h2M14 19h1M24 19h10M44 19h7M12 20h1M23 20h2M28 20h6M43 20h6M11 21h1M16 21h1M22 21h2M28 21h7M41 21h7M22 22h1M28 22h8M40 22h5M46 22h1M10 23h4M21 23h1M28 23h7M40 23h3M45 23h5M12 24h2M17 24h1M20 24h1M27 24h4M39 24h3M45 24h2M50 24h1M5 25h1M8 25h2M16 25h5M24 25h2M37 25h4M49 25h2M5 26h6M16 26h1M18 26h1M20 26h4M37 26h4M48 26h1M5 27h5M17 27h4M36 27h3M47 27h2M6 28h2M35 28h3M47 28h1M50 28h2M34 29h3M47 29h5M26 30h2M32 30h5M47 30h5M18 31h1M24 31h2M30 31h7M46 31h5M19 32h5M28 32h9M46 32h1M27 33h4M34 33h3M46 33h1M20 34h1M26 34h3M33 34h5M20 35h1M25 35h1M32 35h6M19 36h1M35 36h3M34 37h4M27 38h1M33 38h4M25 39h2M32 39h4M59 39h3M25 40h2M31 40h4M57 40h5M25 41h1M30 41h3M58 41h2M29 42h3M54 42h2M24 43h1M29 43h2M53 43h3M20 44h1M28 44h5M54 44h1M19 45h1M21 45h3M27 45h4M18 46h2M23 46h1M26 46h3M38 46h3M37 47h3M51 47h1M14 48h1M16 48h3M38 48h1M42 48h1M16 49h2M40 49h4M39 50h4M16 51h2M40 51h1M17 52h2M11 53h3M16 53h1M40 53h4M45 53h1M40 54h8M41 55h2M45 55h3" />
<path stroke="#f8f8a8" d="M23 6h1M23 7h1M22 8h2M22 9h1M17 10h1M22 10h1M12 11h1M18 11h1M11 12h1M49 14h1M49 15h1M47 16h3M18 17h2M47 17h3M15 18h1M18 18h3M48 18h1M11 19h1M15 19h1M19 19h2M10 20h2M15 20h2M19 20h1M13 21h1M7 22h1M12 22h2M6 23h3M17 23h1M6 24h3M6 25h2M23 40h2M21 41h4M20 42h5M20 43h4M18 44h1M21 44h3M17 45h2M14 47h3M15 48h1M12 52h5M14 53h2" />
<path stroke="#101010" d="M24 6h1M24 7h1M24 8h1M24 9h1M24 10h1M14 11h1M36 11h1M14 12h1M17 12h1M36 12h1M10 13h1M15 13h1M27 13h2M33 13h3M11 14h2M16 14h1M18 14h1M29 14h1M14 15h1M19 15h1M25 15h1M27 15h1M32 15h1M50 15h1M17 16h1M24 16h3M50 16h1M12 17h2M16 17h2M23 17h2M32 17h1M45 17h1M52 17h1M11 18h3M16 18h2M22 18h3M30 18h1M33 18h1M44 18h1M51 18h1M10 19h1M12 19h1M17 19h1M21 19h3M35 19h1M43 19h1M9 20h1M17 20h2M20 20h3M42 20h1M50 20h2M7 21h4M17 21h5M38 21h1M48 21h6M8 22h2M17 22h4M23 22h1M39 22h1M47 22h2M53 22h1M16 23h1M18 23h3M23 23h1M39 23h1M53 23h1M19 24h1M37 24h2M44 24h1M48 24h2M54 24h1M10 25h1M12 25h1M28 25h2M34 25h2M43 25h6M52 25h3M4 26h1M13 26h2M26 26h1M32 26h1M41 26h2M45 26h3M49 26h6M4 27h1M23 27h1M31 27h1M39 27h2M45 27h2M50 27h2M55 27h1M14 28h1M17 28h4M30 28h1M38 28h2M46 28h1M49 28h1M5 29h1M10 29h1M14 29h1M26 29h1M29 29h1M37 29h1M39 29h1M46 29h1M56 29h1M6 30h1M10 30h1M13 30h1M25 30h1M28 30h1M56 30h1M7 31h3M11 31h2M20 31h3M27 31h1M18 32h1M25 32h3M52 32h1M55 32h1M19 33h8M32 33h1M41 33h1M45 33h1M47 33h1M52 33h1M54 33h1M22 34h4M30 34h3M46 34h2M52 34h2M21 35h4M27 35h5M42 35h1M48 35h3M20 36h1M22 36h13M19 37h1M23 37h11M41 37h3M18 38h1M24 38h2M28 38h5M39 38h5M18 39h1M28 39h4M37 39h7M62 39h1M18 40h1M27 40h4M35 40h9M55 40h1M63 40h1M18 41h1M26 41h4M34 41h7M43 41h1M54 41h1M19 42h1M26 42h3M32 42h7M53 42h1M57 42h2M62 42h1M25 43h3M31 43h2M35 43h2M42 43h1M52 43h1M57 43h4M25 44h3M33 44h2M42 44h1M57 44h2M16 45h1M24 45h3M32 45h1M42 45h1M51 45h1M54 45h1M56 45h1M15 46h3M24 46h2M53 46h3M17 47h1M22 47h1M40 47h3M53 47h2M21 48h1M23 48h2M39 48h2M43 48h1M50 48h1M54 48h1M14 49h2M20 49h1M26 49h2M39 49h1M44 49h1M47 49h1M49 49h3M53 49h1M15 50h2M29 50h9M43 50h2M46 50h1M50 50h3M32 51h1M37 51h1M42 51h3M50 51h2M22 52h1M34 52h1M38 52h1M41 52h2M45 52h1M48 52h2M22 53h1M36 53h3M47 53h1M19 54h2M49 54h1M8 55h3M16 55h2M37 55h1M11 56h5M38 56h1M48 56h1M39 57h2M42 57h1M48 57h1M51 57h1M41 58h3M46 58h2M50 58h2M44 59h2" />
<path stroke="#706858" d="M16 19h1M18 19h1M49 20h1M21 22h1M49 22h1M18 24h1M47 24h1M51 25h1M49 27h1M52 27h1M48 28h1M31 33h1M33 33h1M29 34h1M26 35h1M21 36h1M20 37h3M19 38h5M26 38h1M38 38h1M19 39h6M27 39h1M36 39h1M19 40h4M19 41h2M33 41h1M41 41h1M55 41h3M25 42h1M39 42h1M56 42h1M28 43h1M34 43h1M37 43h1M24 44h1M35 44h1M53 44h1M33 45h1M52 45h2M52 46h1M18 47h1M41 48h1M17 50h1M41 51h1M10 52h1M40 52h1M9 53h1M8 54h1M11 54h1M43 55h2M48 55h1M50 55h1M10 56h1M42 56h1M51 56h1M45 57h1M49 57h1M45 58h1" />
<path stroke="#f8f8f8" d="M25 22h2M15 23h1M24 23h3M15 24h2M22 24h3M14 27h1M28 27h1M10 53h1M9 54h1M12 54h1M11 55h2M49 55h1M43 56h2M50 56h1M44 57h1" />
<path stroke="#b83008" d="M24 27h4M18 29h3M19 30h1M24 30h1" />
<path stroke="#f85020" d="M22 28h5M21 29h5M20 30h4" />
</svg>