<svg xmlns="http://www.w3.org/2000/svg" viewBox="0 -0.5 64 64" shape-rendering="crispEdges">
<metadata>Made with Pixels to Svg https://codepen.io/shshaw/pen/XbxvNj</metadata>
<path stroke="#8888b0" d="M42 1h2M41 2h1M41 3h1M28 4h1M37 4h4M27 5h1M30 5h1M34 5h2M43 5h1M26 6h1M33 6h1M44 6h1M34 7h1M35 8h1M30 12h1M31 14h1M35 14h1M41 14h1M37 15h1M41 16h1M41 17h1M30 18h1M45 18h1M22 19h2M41 19h1M43 19h1M21 20h1M20 21h1M20 22h1M30 22h1M37 22h1M44 22h2M37 23h2M31 24h1M33 24h2M39 24h1M32 25h1M47 25h1M19 26h2M42 26h1M18 27h1M36 27h1M22 28h1M33 28h1M43 28h1M22 29h1M42 29h1M44 29h2M38 35h1M34 36h1M40 37h1M40 38h1M41 39h1M30 40h1M30 41h1M40 43h1M30 47h1M43 54h2M29 55h1M45 55h1M28 56h1M45 56h1M53 56h1M28 57h1M50 57h2M28 58h1M25 59h1M30 59h2M24 60h1" />
<path stroke="#505068" d="M44 1h1M45 2h1M45 3h1M29 4h1M45 4h1M31 5h1M45 5h1M45 6h1M26 7h1M45 7h1M27 8h1M46 8h1M28 9h1M47 9h1M28 10h1M29 11h1M47 12h1M30 13h1M36 14h1M47 14h1M31 15h1M36 15h1M38 15h1M47 15h1M31 16h1M39 16h1M47 16h1M30 17h1M32 17h1M40 17h1M32 18h1M24 19h1M29 19h1M32 19h1M47 19h1M29 20h1M33 20h1M36 20h1M46 20h1M29 21h1M37 21h1M40 21h2M34 22h3M40 22h1M46 22h1M21 23h1M30 23h3M41 23h3M47 23h1M23 24h1M47 24h1M28 25h1M31 25h1M27 26h1M36 26h1M27 27h1M35 27h1M17 28h1M28 28h1M34 28h2M37 28h1M17 29h1M29 29h2M32 29h1M36 29h1M38 29h1M18 30h1M26 30h1M29 30h1M37 30h1M39 30h1M23 31h1M27 31h1M37 31h1M47 31h1M24 32h1M38 32h1M48 32h1M38 33h1M49 33h1M37 34h1M50 34h1M35 35h3M47 35h1M49 35h1M52 35h1M33 36h1M48 36h2M55 36h1M32 37h1M50 37h1M31 38h1M51 38h1M55 38h1M30 39h1M52 39h1M54 39h2M41 40h1M52 40h1M56 40h1M41 41h1M56 41h1M59 41h1M29 42h1M41 42h1M29 43h1M29 44h1M40 44h1M29 45h1M52 45h1M29 46h1M30 48h1M31 49h1M49 49h1M31 50h1M48 50h1M31 51h1M30 52h1M49 52h1M30 53h1M49 53h1M29 54h1M42 54h1M50 54h1M35 55h1M51 55h2M34 56h1M34 57h1M27 58h1M34 58h1M52 58h1M26 59h1M35 59h1M29 60h1M24 61h1M29 61h1M34 61h1M24 62h1M28 62h2" />
<path stroke="#f8f8f8" d="M42 2h3M42 3h3M42 4h2M28 5h2M37 5h2M27 6h5M34 6h7M27 7h6M35 7h6M29 8h5M36 8h5M45 8h1M30 9h5M38 9h2M45 9h1M32 10h3M45 10h2M46 11h1M46 12h1M37 13h3M38 14h3M39 15h2M40 16h1M42 16h2M39 17h1M42 17h3M33 18h1M41 18h4M33 19h2M44 19h1M22 21h2M22 22h2M44 23h3M44 24h2M44 25h2M28 26h2M28 27h2M19 28h2M19 29h2M35 36h2M33 37h5M32 38h7M31 39h8M31 40h8M31 41h8M30 42h8M30 43h7M31 44h5M32 45h2M30 55h1M29 56h3M29 57h3M54 57h2M29 58h2M50 58h2M54 58h2M50 59h2M25 60h2M31 60h2M25 61h2M31 61h2" />
<path stroke="#e0e0f0" d="M41 4h1M44 4h1M39 5h4M44 5h1M41 6h3M41 7h4M28 8h1M34 8h1M41 8h4M29 9h1M35 9h1M37 9h1M40 9h5M29 10h3M35 10h10M30 11h15M31 12h7M40 12h5M31 13h6M41 13h5M47 13h1M32 14h3M37 14h1M42 14h4M32 15h4M41 15h5M32 16h4M44 16h3M31 17h1M33 17h3M45 17h3M31 18h1M34 18h7M46 18h2M30 19h2M35 19h6M45 19h2M22 20h2M30 20h2M38 20h2M41 20h3M21 21h1M24 21h1M30 21h1M21 22h1M24 22h1M22 23h2M33 23h4M32 24h1M35 24h4M43 24h1M46 24h1M29 25h2M33 25h2M36 25h4M42 25h2M46 25h1M30 26h1M33 26h3M37 26h5M43 26h4M19 27h2M30 27h1M33 27h2M37 27h6M44 27h3M18 28h1M21 28h1M29 28h1M38 28h5M18 29h1M21 29h1M19 30h2M39 31h5M39 32h6M39 33h7M38 34h6M39 35h4M37 36h2M40 36h3M38 37h2M41 37h1M39 38h1M39 39h2M39 40h2M55 40h1M39 41h2M55 41h1M58 41h1M38 42h3M37 43h3M30 44h1M36 44h4M30 45h2M34 45h5M30 46h9M31 47h7M31 48h6M32 49h3M30 54h3M31 55h3M32 56h2M49 56h4M32 57h2M48 57h1M52 57h2M31 58h3M48 58h2M53 58h1M27 59h3M32 59h2M49 59h1M54 59h2M27 60h2M30 60h1M33 60h1M27 61h2M30 61h1M33 61h1M25 62h2" />
<path stroke="#b8b8d0" d="M36 5h1M33 7h1M36 9h1M46 9h1M45 11h1M38 12h2M45 12h1M40 13h1M46 15h1M32 20h1M37 20h1M40 20h1M31 21h2M38 21h2M31 22h3M38 22h2M39 23h2M24 24h1M40 24h3M23 25h3M35 25h1M40 25h2M23 26h4M31 26h1M22 27h5M31 27h1M43 27h1M23 28h5M30 28h1M32 28h1M36 28h1M44 28h2M23 29h6M31 29h1M37 29h1M39 29h3M22 30h3M27 30h2M38 30h1M42 30h4M25 31h2M38 31h1M44 31h2M45 32h2M46 33h1M48 33h1M44 34h1M47 34h1M49 34h1M43 35h1M50 35h2M39 36h1M50 36h5M42 37h1M51 37h6M41 38h2M50 38h1M52 38h3M56 38h2M51 39h1M53 39h1M56 39h3M51 40h1M53 40h2M57 40h2M51 41h2M54 41h1M51 42h2M56 42h2M50 43h3M50 44h3M39 45h1M49 45h3M49 46h3M48 47h3M47 48h3M35 49h1M46 49h3M32 50h3M45 50h3M32 51h3M45 51h3M31 52h3M44 52h5M31 53h3M43 53h6M33 54h1M45 54h5M42 55h3M46 55h5M35 56h1M42 56h3M46 56h3M35 57h1M46 57h2M49 57h1M35 58h1M34 59h1M53 59h1M34 60h1M49 60h3M27 62h1M30 62h4" />
<path stroke="#101010" d="M32 6h1M47 10h1M47 11h1M16 13h1M20 13h1M15 14h1M22 14h1M13 15h1M23 15h1M12 16h1M36 16h1M38 16h1M37 17h1M48 17h1M11 18h1M48 18h1M27 19h1M42 19h1M3 20h1M10 20h1M24 20h1M27 20h1M34 20h2M44 20h2M3 21h1M25 21h1M27 21h1M33 21h1M42 21h2M3 22h1M9 22h1M25 22h1M27 22h1M4 23h1M8 23h1M24 23h2M5 24h3M21 24h2M25 24h2M29 24h2M22 25h1M26 25h1M21 26h2M32 26h1M47 26h1M21 27h1M32 27h1M47 27h1M31 28h1M46 28h1M43 29h1M46 29h1M21 30h1M25 30h1M30 30h2M40 30h2M46 30h1M19 31h4M24 31h1M28 31h2M46 31h1M25 32h3M47 32h1M47 33h1M48 34h1M51 34h1M48 35h1M53 35h2M56 36h1M57 37h1M58 38h1M59 39h1M59 40h1M53 41h1M57 41h1M17 42h1M53 42h3M58 42h1M17 43h1M53 43h1M56 43h2M53 44h1M18 45h1M19 46h1M39 46h1M52 46h1M20 47h1M38 47h1M51 47h1M21 48h1M37 48h1M50 48h1M22 49h1M36 49h1M45 49h1M24 50h1M35 50h1M43 50h2M26 51h2M35 51h1M40 51h3M44 51h1M48 51h1M29 52h1M34 52h6M43 52h1M34 53h1M42 53h1M34 54h1M34 55h1M41 55h1M36 56h1M41 56h1M54 56h2M36 57h1M42 57h4M56 57h1M36 58h1M46 58h2M56 58h1M48 59h1M52 59h1M56 59h1M35 60h1M48 60h1M52 60h4M49 61h3M34 62h1M25 63h4M30 63h4" />
<path stroke="#703090" d="M16 10h5M13 11h1M11 12h1M9 13h1M17 13h1M21 13h1M24 13h1M7 14h1M14 14h1M25 14h1M46 14h1M12 15h1M25 15h1M23 16h1M26 16h1M11 17h1M24 17h1M26 17h1M4 18h1M24 18h1M26 18h1M3 19h1M10 19h1M9 21h1M27 23h1M17 31h1M17 32h1M24 33h1M24 34h1M46 34h1M16 35h1M25 35h1M16 36h1M25 36h1M16 37h1M26 37h1M43 37h1M49 37h1M16 38h1M27 38h2M43 38h1M49 38h1M16 39h1M29 39h1M42 39h1M50 39h1M42 40h1M50 40h1M17 41h1M50 41h1M50 42h1M49 43h1M18 44h1M49 44h1M40 45h1M48 45h1M48 46h1M47 47h1M46 48h1M23 49h1M25 50h1M28 51h1" />
<path stroke="#8858a8" d="M14 11h2M20 11h3M12 12h1M18 12h6M10 13h1M14 13h2M22 13h2M46 13h1M8 14h1M13 14h1M23 14h2M6 15h1M24 15h1M5 16h1M11 16h1M24 16h2M4 17h1M10 17h1M25 17h1M38 17h1M10 18h1M25 18h1M9 19h1M25 19h2M9 20h1M25 20h2M4 21h1M8 21h1M26 21h1M4 22h5M26 22h1M5 23h3M26 23h1M20 25h1M22 32h2M17 33h1M22 33h2M16 34h1M22 34h2M45 34h1M23 35h2M23 36h2M43 36h1M24 37h2M25 38h2M17 39h1M27 39h2M16 40h2M18 41h1M42 41h1M18 42h2M18 43h3M41 43h1M19 44h4M19 45h7M20 46h9M40 46h2M47 46h1M21 47h9M39 47h5M46 47h1M22 48h8M38 48h8M24 49h7M37 49h8M26 50h5M36 50h7M29 51h2M36 51h4" />
<path stroke="#b080d0" d="M16 11h4M13 12h5M11 13h3M9 14h4M7 15h5M7 16h4M8 17h2M36 17h1M8 18h2M4 19h2M7 19h2M4 20h5M5 21h3M21 25h1M18 31h1M18 32h4M18 33h4M17 34h5M17 35h6M44 35h1M17 36h6M17 37h7M17 38h8M18 39h9M43 39h2M48 39h2M18 40h12M43 40h7M19 41h11M43 41h7M20 42h9M42 42h8M21 43h8M42 43h7M23 44h6M41 44h8M26 45h3M41 45h7M42 46h5M44 47h2" />
<path stroke="#e0b0f8" d="M6 16h1M37 16h1M5 17h3M5 18h3M6 19h1M45 35h2M44 36h4M44 37h5M44 38h5M45 39h3" />
</svg>