<svg xmlns="http://www.w3.org/2000/svg" viewBox="0 -0.5 64 64" shape-rendering="crispEdges">
<metadata>Made with Pixels to Svg https://codepen.io/shshaw/pen/XbxvNj</metadata>
<path stroke="#583828" d="M37 5h1M42 5h5M36 6h1M39 6h3M47 6h2M35 7h1M34 8h1M50 8h2M33 9h1M36 9h1M52 9h1M32 10h1M35 10h1M37 10h1M53 10h1M31 11h1M34 11h1M36 11h1M42 11h1M47 11h3M54 11h1M33 12h1M35 12h1M40 12h2M53 12h1M38 13h2M37 14h1M45 14h1M29 15h1M41 15h1M29 16h1M33 16h1M44 16h1M29 17h1M33 17h1M35 17h1M38 17h1M45 17h1M30 18h1M32 18h1M34 18h1M37 18h1M45 18h1M36 19h1M46 19h1M35 20h1M44 20h1M32 21h3M44 21h1M47 21h1M19 22h1M22 22h1M32 22h1M35 22h1M17 23h1M20 23h1M23 23h1M25 23h1M31 23h1M36 23h1M11 24h1M23 24h1M26 24h1M30 24h2M42 24h1M48 24h1M11 25h1M16 25h1M19 25h1M21 25h1M25 25h5M31 25h1M12 26h2M17 26h1M20 26h1M24 26h1M32 26h1M14 27h1M51 27h1M16 28h1M49 28h1M52 28h1M49 29h1M52 29h1M49 30h1M34 31h1M49 31h1M34 32h1M52 33h1M12 34h1M49 34h1M51 34h1M14 35h1M33 36h1M31 38h1M25 39h1M29 39h1M22 40h1M26 42h2M37 43h1M43 43h1M38 44h4M43 44h1M37 45h1M30 46h1M33 46h1M30 47h1M33 47h1M39 47h1M42 48h1M44 48h1M29 49h1M38 49h1M46 49h1M29 50h1M37 50h1M43 50h2M48 50h1M26 51h3M33 51h1M46 51h1M49 51h1M25 52h1M40 52h1M24 54h1M46 54h1M28 55h1M30 55h1M29 56h1" />
<path stroke="#c04040" d="M37 6h1M36 7h2M43 7h1M36 8h1M48 8h2M46 9h6M43 10h2M52 10h1M45 11h2M53 11h1M31 12h1M42 12h8M30 13h1M32 13h1M34 13h1M43 13h3M49 13h3M30 14h1M32 14h1M34 14h1M42 14h2M30 15h2M33 15h1M36 15h1M40 15h1M13 16h2M30 16h2M35 16h1M12 17h1M15 17h1M30 17h3M34 17h1M12 18h1M16 18h1M31 18h1M33 18h1M35 18h2M31 19h1M33 19h1M35 19h1M32 20h1M23 22h2M12 23h1M18 23h2M24 23h1M18 24h3M24 24h2M20 25h1M24 25h1M35 25h1M21 26h1M15 27h4M31 46h2M39 46h2M31 47h2M40 47h1M30 48h3M40 48h2M30 49h2M40 49h3M30 50h2M39 50h4M31 51h2M40 51h5M28 52h1M31 52h2M43 52h1M27 53h1M29 53h3" />
<path stroke="#e86040" d="M42 6h5M40 7h3M35 8h1M38 8h3M44 8h4M34 9h2M37 9h2M41 9h5M33 10h2M36 10h1M39 10h4M32 11h2M35 11h1M37 11h5M36 12h4M37 13h1M40 13h3M36 14h1M40 14h2M39 15h1M32 16h1M38 16h1M13 17h1M36 17h2M13 18h1M21 18h1M23 18h1M14 19h1M15 20h1M22 20h1M16 21h1M18 21h1M23 21h2M17 22h2M33 22h2M34 23h2M12 24h2M33 24h2M12 25h1M14 25h1M32 25h2M15 26h2M39 49h1M43 49h2M45 50h2M29 51h2M26 52h2M29 52h2" />
<path stroke="#202020" d="M38 7h2M44 7h6M37 8h1M41 8h3M39 9h2M38 10h1M45 10h7M43 11h2M52 11h1M50 12h1M54 12h1M46 13h3M44 14h1M49 14h4M42 15h2M39 16h2M40 17h2M40 18h3M30 19h1M32 19h1M34 19h1M37 19h1M41 19h3M31 20h1M33 20h2M37 20h1M41 20h3M46 20h1M42 21h2M42 22h2M47 22h1M42 23h1M47 23h1M35 24h2M34 25h1M36 25h1M41 25h1M48 25h1M33 26h3M49 26h1M36 27h2M49 27h1M52 30h1M52 31h1M49 32h1M52 32h1M34 33h1M49 33h1M13 34h1M34 34h1M15 35h2M33 35h1M48 35h1M51 35h1M17 36h2M48 36h1M50 36h1M19 37h3M32 37h1M48 37h2M20 38h1M22 38h3M30 38h1M47 38h1M21 39h1M26 39h3M47 39h1M23 40h1M46 40h1M24 41h1M45 41h1M44 42h1M27 43h1M42 43h1M28 44h1M36 44h2M29 45h1M34 45h2M42 45h1M38 46h1M41 46h1M41 47h1M39 48h1M43 48h1M32 49h1M45 49h1M32 50h1M38 51h2M45 51h1M33 52h1M41 52h2M46 52h4M28 53h1M32 53h1M43 53h2M46 53h1M26 54h3M31 54h1M45 54h1M24 55h2M31 55h1M30 56h1" />
<path stroke="#f8a870" d="M32 12h1M34 12h1M31 13h1M33 13h1M35 13h2M31 14h1M33 14h1M35 14h1M38 14h2M32 15h1M34 15h2M37 15h2M34 16h1M36 16h2M14 17h1M14 18h2M22 18h1M15 19h2M22 19h2M16 20h2M23 20h1M17 21h1M32 23h2M32 24h1M13 25h1M14 26h1" />
<path stroke="#785848" d="M16 15h3M16 16h1M19 16h1M41 16h3M16 17h1M21 17h2M39 17h1M42 17h3M17 18h1M20 18h1M24 18h1M43 18h2M11 19h1M13 19h1M17 19h1M21 19h1M24 19h1M40 19h1M44 19h2M10 20h1M14 20h1M18 20h1M21 20h1M24 20h1M40 20h1M45 20h1M10 21h1M15 21h1M19 21h1M22 21h1M25 21h1M36 21h3M45 21h2M11 22h1M16 22h1M25 22h1M44 22h3M13 23h1M43 23h4M14 24h1M43 24h5M49 24h1M15 25h1M42 25h6M50 25h1M22 26h2M40 26h9M51 26h1M32 27h1M35 27h1M38 27h11M33 28h1M37 28h5M45 28h4M33 29h1M47 29h2M22 30h1M34 30h1M48 30h1M50 30h1M12 31h1M48 31h1M50 31h2M11 32h1M32 32h2M50 32h2M11 33h1M31 33h3M50 33h2M23 34h3M31 34h3M50 34h1M30 35h3M49 35h2M25 36h8M49 36h1M25 37h7M25 38h5M25 41h1M30 45h1" />
<path stroke="#f0f0a0" d="M17 16h2M18 17h2M18 18h2M19 19h1M19 20h2M12 21h2M13 22h2M15 23h1M19 28h4M17 29h5M15 30h4M13 31h2M39 31h4M15 32h4M38 32h5M12 33h4M37 33h6M37 34h5M38 35h3" />
<path stroke="#f0e068" d="M17 17h1M12 19h1M18 19h1M20 19h1M11 20h3M11 21h1M14 21h1M20 21h2M12 22h1M15 22h1M20 22h2M36 22h4M14 23h1M16 23h1M21 23h2M37 23h2M15 24h3M22 27h1M23 28h1M22 29h1M43 29h3M41 30h6M19 31h3M43 31h5M19 32h4M43 32h2M46 32h2M16 33h6M43 33h1M45 33h1M47 33h2M14 34h6M35 34h2M42 34h3M46 34h1M35 35h3M41 35h1M43 35h1M45 35h1M36 36h5M42 36h1M44 36h1M36 37h3" />
<path stroke="#c8b8d0" d="M38 18h2M47 49h1M47 51h2M44 52h2M24 53h1M45 53h1M25 54h1" />
<path stroke="#f8f8f8" d="M38 19h2M36 20h1M38 20h2M38 50h1M47 50h1M25 53h2M29 54h2M29 55h1" />
<path stroke="#e0c068" d="M35 21h1M39 21h2M40 22h2M39 23h3M21 24h2M37 24h4M17 25h2M22 25h2M37 25h4M18 26h2M36 26h4M23 27h1M42 29h1M46 29h1M19 30h1M40 30h1M47 30h1M15 31h4M22 31h1M14 32h1M45 32h1M48 32h1M22 33h1M44 33h1M46 33h1M20 34h1M45 34h1M47 34h2M20 35h4M34 35h1M42 35h1M44 35h1M46 35h2M19 36h6M34 36h2M41 36h1M43 36h1M45 36h3M22 37h2M33 37h3M39 37h9M21 38h1M32 38h15M22 39h3M30 39h17M24 40h22M26 41h19M28 42h16M28 43h9M38 43h4M29 44h7M31 45h3" />
<path stroke="#a87858" d="M41 21h1M41 24h1M30 25h1M49 25h1M30 26h2M50 26h1M19 27h3M28 27h1M30 27h2M33 27h2M50 27h1M17 28h2M27 28h1M29 28h1M31 28h2M34 28h3M42 28h3M50 28h2M15 29h2M28 29h1M30 29h3M34 29h8M50 29h2M13 30h2M20 30h2M27 30h7M35 30h5M51 30h1M23 31h11M35 31h4M12 32h2M23 32h9M35 32h3M23 33h8M35 33h2M21 34h2M26 34h5M17 35h3M24 35h6M24 37h1" />
<path stroke="#c89878" d="M25 26h5M24 27h4M29 27h1M24 28h3M28 28h1M30 28h1M23 29h5M29 29h1M23 30h4M42 44h1M38 45h4" />
</svg>