<svg xmlns="http://www.w3.org/2000/svg" viewBox="0 -0.5 64 64" shape-rendering="crispEdges">
<metadata>Made with Pixels to Svg https://codepen.io/shshaw/pen/XbxvNj</metadata>
<path stroke="#e04840" d="M29 6h5M26 7h2M35 7h2M24 9h3M37 9h2M15 10h2M23 10h8M32 10h2M36 10h4M46 10h2M12 11h3M24 11h2M27 11h1M37 11h2M48 11h3M11 12h1M22 12h2M25 12h1M37 12h1M39 12h2M51 12h1M10 13h2M22 13h3M38 13h3M9 14h3M22 14h3M38 14h3M50 14h1M52 14h2M9 15h4M21 15h2M40 15h2M50 15h2M53 15h1M9 16h4M23 16h3M37 16h3M49 16h3M9 17h1M11 17h1M23 17h5M35 17h5M47 17h6M11 18h1M25 18h5M33 18h5M49 18h4M10 19h3M14 19h1M26 19h5M32 19h5M48 19h1M50 19h3M13 20h2M28 20h1M34 20h2M48 20h2M12 21h4M27 21h1M35 21h1M47 21h3M11 22h7M26 22h1M36 22h1M46 22h6M11 23h6M18 23h1M25 23h1M37 23h1M44 23h1M46 23h6M11 24h5M17 24h4M23 24h2M38 24h2M42 24h4M47 24h5M13 25h2M17 25h8M39 25h7M48 25h2M16 26h5M39 26h8M18 27h3M40 27h2M44 27h1M20 28h2M40 28h2M45 35h1M44 36h2M19 39h1M39 40h2M26 48h2M34 48h1M25 49h12M24 50h14M24 51h14M24 52h12M26 53h8" />
<path stroke="#f8e850" d="M28 7h2M35 8h1M34 9h1M18 11h2M26 11h1M29 11h1M31 11h1M33 11h1M36 11h1M42 11h2M18 12h2M27 12h1M29 12h1M33 12h1M35 12h1M25 13h1M37 13h1M48 13h2M21 14h1M26 14h1M28 14h1M34 14h1M36 14h1M29 15h1M31 15h1M33 15h1M13 16h2M31 16h1M13 17h2M39 18h1M17 19h1M24 19h1M38 19h2M16 20h3M23 20h2M37 20h2M43 20h2M17 21h3M42 21h4M42 22h2" />
<path stroke="#d8c830" d="M30 7h1M34 8h1M33 9h1M35 9h2M13 12h1M28 12h1M30 12h1M32 12h1M34 12h1M27 13h1M35 13h1M48 14h2M28 15h1M34 15h1M29 16h1M33 16h1M12 17h1M15 17h1M12 18h2M38 18h1M18 19h1M25 19h1M37 19h1M19 20h1M16 21h1M44 22h2M21 26h3M21 27h3M42 27h2M22 28h2M42 28h1" />
<path stroke="#f88070" d="M31 7h4M26 8h8M36 8h1M27 9h6M34 10h2M15 11h3M20 11h1M35 11h1M44 11h4M12 12h1M14 12h4M20 12h2M41 12h10M12 13h10M41 13h7M50 13h3M12 14h9M41 14h7M13 15h8M42 15h8M15 16h4M44 16h5M19 17h4M40 17h4M16 18h9M40 18h7M15 19h2M19 19h5M40 19h8M15 20h1M20 20h3M25 20h3M36 20h1M39 20h4M45 20h3M20 21h7M36 21h6M46 21h1M50 21h1M18 22h8M37 22h5M19 23h6M38 23h6M21 24h2M40 24h2" />
<path stroke="#883800" d="M24 8h2M37 8h2M23 9h1M39 9h1M17 10h4M31 10h1M42 10h4M21 11h3M28 11h1M30 11h1M32 11h1M34 11h1M39 11h3M10 12h1M24 12h1M26 12h1M36 12h1M38 12h1M52 12h1M9 13h1M28 13h1M30 13h3M34 13h1M53 13h1M8 14h1M25 14h1M27 14h1M37 14h1M54 14h1M8 15h1M23 15h3M35 15h1M37 15h3M52 15h1M54 15h1M8 16h1M19 16h4M26 16h2M36 16h1M40 16h4M53 16h1M8 17h1M10 17h1M16 17h3M28 17h1M34 17h1M44 17h3M9 18h1M14 18h2M30 18h1M32 18h1M47 18h2M13 19h1M49 19h1M12 20h1M50 20h1M11 21h1M51 21h1M10 22h1M29 22h1M31 22h1M33 22h1M10 23h1M17 23h1M28 23h7M45 23h1M10 24h1M32 24h1M34 24h1M16 25h1M29 25h1M33 25h1M35 25h1M38 25h1M46 25h1M27 26h1M33 26h3M38 26h1M49 26h1M16 27h2M28 27h5M29 28h2M19 43h3M17 44h1M19 44h5M28 44h6M19 45h18M21 46h17M22 47h18M22 48h3M29 48h4M36 48h6M21 49h3M38 49h4M20 50h4M38 50h3M20 51h1M22 51h1M38 51h1M21 52h2M37 52h3M22 53h1M24 53h1M35 53h2M25 54h10" />
<path stroke="#b86830" d="M31 12h1M26 13h1M29 13h1M33 13h1M36 13h1M35 14h1M51 14h1M28 16h1M30 16h1M32 16h1M34 16h1M28 24h1M30 24h2M27 25h1M31 25h1M28 26h3M32 26h1M25 48h1M28 48h1M33 48h1M35 48h1M24 49h1M37 49h1M23 51h1M23 52h1M36 52h1M25 53h1M34 53h1" />
<path stroke="#101010" d="M29 14h5M26 15h2M30 15h1M32 15h1M36 15h1M35 16h1M29 17h5M31 18h1M53 18h1M31 19h1M53 19h1M10 20h2M29 20h5M51 20h2M28 21h7M27 22h2M30 22h1M32 22h1M34 22h2M52 22h1M26 23h2M35 23h2M52 23h1M16 24h1M25 24h3M29 24h1M33 24h1M35 24h3M46 24h1M52 24h1M11 25h2M15 25h1M25 25h2M28 25h1M30 25h1M32 25h1M34 25h1M36 25h1M47 25h1M50 25h2M13 26h2M24 26h1M26 26h1M31 26h1M36 26h1M48 26h1M24 27h4M33 27h4M39 27h1M45 27h2M18 28h2M24 28h1M28 28h1M31 28h2M37 28h3M43 28h2M20 29h5M40 29h3M51 30h2M37 32h2M34 33h3M18 34h1M32 34h2M46 34h1M28 35h3M46 35h1M55 35h1M46 36h1M46 37h1M57 37h1M10 38h2M15 38h2M46 38h1M57 38h1M46 39h3M19 40h1M46 40h1M49 40h2M53 40h2M57 40h1M39 41h2M47 41h1M51 41h2M55 41h3M48 42h1M15 43h1M29 43h4M48 43h1M15 44h1M24 44h4M34 44h2M16 45h3M37 45h2M3 46h1M19 46h2M39 46h1M21 47h1M40 47h2M4 48h1M21 48h1M42 48h2M5 49h1M19 49h2M18 50h1M57 50h1M18 51h1M5 52h2M8 52h1M19 52h1M45 52h3M58 52h1M6 53h2M19 53h1M43 53h2M48 53h1M59 53h1M18 54h1M20 54h1M41 54h2M49 54h1M59 54h1M18 55h1M22 55h1M38 55h2M59 55h2M24 56h1M35 56h2M61 56h1M17 57h1M26 57h8M50 57h4M58 57h3M9 58h5M17 58h1M55 58h3M15 59h3" />
<path stroke="#206030" d="M37 25h1M15 26h1M25 26h1M37 26h1M13 27h3M37 27h2M15 28h1M47 28h3M17 29h3M30 29h1M50 29h2M15 30h2M19 30h1M22 30h1M33 30h1M41 30h4M49 30h2M20 31h2M25 31h1M41 31h1M45 31h2M19 32h2M22 32h1M24 32h1M28 32h1M34 32h1M39 32h1M42 32h3M47 32h2M53 32h2M6 33h2M18 33h1M21 33h1M23 33h1M31 33h1M37 33h6M45 33h2M49 33h1M55 33h1M22 34h3M27 34h1M31 34h1M34 34h7M44 34h1M50 34h1M56 34h1M13 35h1M18 35h1M25 35h3M31 35h1M36 35h2M51 35h2M54 35h1M8 36h2M13 36h2M18 36h2M43 36h1M48 36h1M56 36h1M6 37h2M9 37h1M12 37h1M14 37h1M18 37h1M45 37h1M47 37h1M12 38h1M17 38h1M42 38h1M51 38h1M56 38h1M17 39h1M21 39h1M40 39h2M43 39h1M50 39h1M53 39h1M16 40h1M36 40h1M38 40h1M43 40h1M16 41h1M29 41h1M37 41h1M50 41h1M9 42h1M15 42h1M50 42h1M22 43h1M51 43h1M8 44h1M48 44h1M52 44h1M3 45h1M8 45h1M53 45h1M8 46h1M12 46h1M54 46h1M4 47h1M8 47h1M11 47h1M45 47h1M55 47h1M8 48h1M10 48h1M19 48h1M44 48h1M56 48h1M9 49h2M57 49h1M5 50h2M9 50h1M15 50h1M55 50h1M9 51h1M16 51h1M46 51h1M54 51h1M58 51h1M9 52h1M9 53h1M12 53h1M13 54h1M19 54h1M9 55h1M21 55h1M40 55h1M50 55h1M52 55h1M55 55h2M17 56h1M23 56h1M37 56h1M52 56h1M54 56h1M57 56h2M11 57h1M16 57h1M25 57h1M34 57h1M54 57h1" />
<path stroke="#68c840" d="M10 28h3M14 28h1M15 29h1M20 30h2M23 30h1M28 30h5M34 30h4M6 31h3M12 31h2M35 31h6M51 31h3M11 32h1M18 32h1M31 32h1M35 32h2M41 32h1M17 33h1M27 33h2M51 33h4M14 34h1M17 34h1M52 34h4M9 35h1M14 35h4M10 36h3M15 36h3M52 36h4M10 37h2M15 37h3M53 37h4M53 38h2M54 39h2M55 40h2" />
<path stroke="#40a018" d="M13 28h1M16 28h2M25 28h3M33 28h4M45 28h2M9 29h1M16 29h1M25 29h5M31 29h9M43 29h7M9 30h2M14 30h1M17 30h2M26 30h1M38 30h3M45 30h4M53 30h1M17 31h3M28 31h1M33 31h2M42 31h3M47 31h4M54 31h1M5 32h1M21 32h1M40 32h1M45 32h2M49 32h4M5 33h1M8 33h1M22 33h1M47 33h2M50 33h1M6 34h1M13 34h1M47 34h3M51 34h1M5 35h1M10 35h1M47 35h4M53 35h1M5 36h1M47 36h1M49 36h3M48 37h5M47 38h4M52 38h1M55 38h1M49 39h1M51 39h2M56 39h1M51 40h2" />
<path stroke="#98f088" d="M10 29h5M11 30h3M24 30h2M27 30h1M9 31h3M14 31h3M22 31h3M26 31h2M29 31h4M6 32h5M12 32h6M23 32h1M25 32h3M29 32h2M32 32h2M9 33h8M24 33h3M29 33h2M32 33h2M7 34h6M15 34h2M25 34h2M28 34h3M6 35h3M11 35h2M6 36h2" />
<path stroke="#88e8b8" d="M19 33h2M43 33h1M19 34h1M41 34h3M23 35h2M41 35h2M21 36h6M19 37h1M21 37h8M7 38h2M19 38h2M22 38h7M38 38h2M6 39h3M22 39h6M37 39h2M42 39h1M5 40h5M22 40h6M5 41h4M10 41h1M18 41h1M20 41h4M26 41h1M5 42h1M7 42h2M10 42h2M22 42h4M4 43h1M6 43h2M10 43h3M4 44h2M7 44h1M9 44h3M5 45h3M10 45h1M13 46h1M12 47h4M11 48h5M11 49h4M10 50h5M8 51h1M11 51h2M51 55h1M50 56h2M55 56h2M59 56h2M55 57h1M16 58h1" />
<path stroke="#58c890" d="M44 33h1M20 34h2M19 35h4M39 35h2M43 35h1M27 36h2M34 36h9M20 37h1M29 37h9M40 37h1M43 37h1M21 38h1M29 38h9M40 38h2M9 39h1M16 39h1M28 39h8M39 39h1M10 40h1M14 40h2M17 40h1M28 40h8M37 40h1M9 41h1M11 41h5M17 41h1M25 41h1M27 41h1M30 41h7M43 41h1M4 42h1M6 42h1M12 42h3M16 42h3M26 42h12M42 42h1M9 43h1M13 43h2M16 43h2M23 43h5M34 43h9M12 44h3M37 44h5M4 45h1M9 45h1M11 45h5M39 45h2M4 46h4M10 46h2M14 46h5M5 47h3M16 47h3M53 47h2M16 48h2M52 48h4M15 49h1M51 49h3M55 49h2M16 50h1M52 50h3M56 50h1M4 51h1M10 51h1M13 51h2M53 51h1M55 51h3M10 52h3M54 52h4M10 53h2M13 53h1M55 53h4M11 54h1M25 55h9M9 56h1M26 56h6M49 56h1M8 57h1" />
<path stroke="#609870" d="M45 34h1M32 35h4M38 35h1M44 35h1M20 36h1M29 36h5M5 37h1M8 37h1M13 37h1M38 37h2M41 37h2M44 37h1M6 38h1M9 38h1M13 38h2M18 38h1M43 38h3M5 39h1M10 39h6M20 39h1M36 39h1M44 39h2M4 40h1M11 40h3M21 40h1M44 40h2M47 40h2M4 41h1M24 41h1M28 41h1M44 41h3M48 41h2M3 42h1M19 42h3M38 42h1M43 42h5M49 42h1M3 43h1M5 43h1M8 43h1M18 43h1M28 43h1M33 43h1M43 43h5M49 43h2M3 44h1M6 44h1M16 44h1M36 44h1M42 44h6M49 44h3M41 45h12M9 46h1M40 46h14M9 47h2M19 47h2M42 47h3M46 47h7M5 48h3M9 48h1M18 48h1M20 48h1M45 48h7M6 49h3M16 49h3M42 49h9M54 49h1M7 50h2M17 50h1M19 50h1M41 50h11M6 51h1M15 51h1M17 51h1M19 51h1M40 51h6M47 51h6M4 52h1M13 52h6M20 52h1M40 52h5M48 52h6M14 53h5M20 53h2M38 53h5M49 53h6M10 54h1M12 54h1M14 54h4M21 54h4M35 54h6M50 54h9M10 55h8M23 55h2M34 55h4M53 55h2M57 55h2M11 56h6M25 56h1M32 56h3M53 56h1M12 57h3M49 57h1M8 58h1M14 59h1" />
<path stroke="#f8f8f8" d="M18 39h1M18 40h1M20 40h1M41 40h2M19 41h1M38 41h1M41 41h2M39 42h3M18 44h1M38 46h1M5 51h1M7 51h1M21 51h1M39 51h1M7 52h1M23 53h1M37 53h1M10 56h1M9 57h2M15 57h1M56 57h2M14 58h2" />
</svg>