<svg xmlns="http://www.w3.org/2000/svg" viewBox="0 -0.5 64 64" shape-rendering="crispEdges">
<metadata>Made with Pixels to Svg https://codepen.io/shshaw/pen/XbxvNj</metadata>
<path stroke="#a86020" d="M41 3h1M17 4h1M22 4h2M40 4h1M42 4h1M11 5h1M20 5h2M36 5h1M39 5h1M42 5h4M12 6h1M14 6h1M18 6h2M35 6h1M37 6h1M39 6h1M42 6h1M47 6h2M10 7h1M12 7h2M17 7h1M35 7h1M38 7h1M50 7h2M10 8h1M34 8h1M10 9h1M30 9h1M34 9h1M10 10h1M30 10h1M34 10h1M52 10h1M30 11h3M53 11h1M4 12h1M3 13h1M32 13h1M54 13h1M33 15h1M49 15h1M24 16h1M32 16h1M50 16h1M25 17h1M34 17h1M50 17h1M25 18h1M34 18h1M51 18h1M57 18h1M28 19h1M33 19h1M6 20h1M34 20h1M36 20h1M55 20h1M6 21h1M27 21h1M56 21h2M7 22h1M25 22h1M51 22h1M6 23h1M27 23h2M50 23h1M57 23h1M5 24h1M29 24h1M55 24h1M6 25h1M51 25h1M5 26h1M6 27h1M28 27h1M56 27h1M7 28h1M13 28h1M55 28h1M57 28h1M51 29h2M55 29h1M51 30h1M53 30h2M50 31h1M54 31h1M8 32h2M14 32h2M50 32h1M58 34h2M9 35h1M8 36h1M10 37h1M59 37h1M9 38h1M58 38h1M5 39h2M8 39h1M5 40h1M7 40h1M5 41h1M57 41h1M4 42h1M6 44h1M55 44h3M18 45h1M47 45h2M57 45h1M6 46h1M35 46h1M19 47h1M23 47h1M36 47h1M17 48h1M19 48h1M27 48h1M44 49h2M46 50h1" />
<path stroke="#e8c070" d="M16 4h1M15 5h1M10 6h1M46 6h1M37 7h1M49 7h1M18 8h1M37 8h2M17 9h2M22 9h2M38 9h1M50 9h1M11 10h1M16 10h2M19 10h4M14 11h2M19 11h2M8 12h1M29 12h4M4 13h1M7 13h1M23 13h2M29 13h3M35 13h1M48 13h2M5 14h5M20 14h4M28 14h2M47 14h4M4 15h1M17 15h2M21 15h3M27 15h6M47 15h2M50 15h2M21 16h3M25 16h7M46 16h4M51 16h2M22 17h3M26 17h2M46 17h4M51 17h3M6 18h1M14 18h1M22 18h3M27 18h2M35 18h1M46 18h5M52 18h5M15 19h1M20 19h7M29 19h1M36 19h2M43 19h1M45 19h6M52 19h6M7 20h1M16 20h2M20 20h9M30 20h4M37 20h2M40 20h2M43 20h8M52 20h3M56 20h1M7 21h1M16 21h11M29 21h4M37 21h14M52 21h4M17 22h8M27 22h4M37 22h14M52 22h7M17 23h10M29 23h2M40 23h10M51 23h6M6 24h4M17 24h12M30 24h1M42 24h8M51 24h4M7 25h2M17 25h11M29 25h2M44 25h5M6 26h2M16 26h11M28 26h3M45 26h2M15 27h13M29 27h2M14 28h18M56 28h1M8 29h21M56 29h1M10 30h19M56 30h2M12 31h18M56 31h2M16 32h15M56 32h2M13 33h16M55 33h3M15 34h16M55 34h3M18 35h3M22 35h1M24 35h8M55 35h4M21 36h1M23 36h1M25 36h8M56 36h3M20 37h1M22 37h1M24 37h7M56 37h3M21 38h1M23 38h1M25 38h7M56 38h2M22 39h1M24 39h6M53 39h1M55 39h3M23 40h6M52 40h6M15 41h1M22 41h6M51 41h6M15 42h2M21 42h7M51 42h6M8 43h1M12 43h1M14 43h3M21 43h6M39 43h2M51 43h5M7 44h3M12 44h6M21 44h6M38 44h2M50 44h5M7 45h2M12 45h1M15 45h3M20 45h7M42 45h1M49 45h8M7 46h2M16 46h2M20 46h4M25 46h3M41 46h2M47 46h9M7 47h1M17 47h1M20 47h3M26 47h2M40 47h3M44 47h9M20 48h3M35 48h1M40 48h2M44 48h7M21 49h2M35 49h1M38 49h3M46 49h4M36 50h5M36 51h5M36 52h4M37 53h1" />
<path stroke="#101010" d="M24 4h1M17 5h1M24 5h1M17 6h1M25 6h1M24 7h1M52 8h1M29 9h1M51 9h1M5 10h4M25 10h3M29 10h1M4 11h1M7 11h5M17 11h2M24 11h1M29 11h1M33 11h1M6 12h2M13 12h4M19 12h1M23 12h1M28 12h1M33 12h1M53 12h1M15 13h2M28 13h1M33 13h2M27 14h1M35 14h1M54 14h1M5 15h6M25 15h2M34 15h1M54 15h1M33 16h1M55 16h1M6 17h1M9 17h1M12 17h1M31 17h1M56 17h1M5 18h1M10 18h1M13 18h1M26 18h1M32 18h1M58 18h1M14 19h1M27 19h1M35 19h1M51 19h1M58 19h1M29 20h1M51 20h1M57 20h1M15 21h1M28 21h1M33 21h1M36 21h1M51 21h1M58 21h2M16 22h1M26 22h1M31 22h2M36 22h1M59 22h1M16 23h1M31 23h1M58 23h1M16 24h1M33 24h1M37 24h3M50 24h1M56 24h1M16 25h1M28 25h1M32 25h4M39 25h3M49 25h1M52 25h3M15 26h1M27 26h1M32 26h6M41 26h3M47 26h2M7 27h1M14 27h1M32 27h7M42 27h1M9 28h4M32 28h1M36 28h4M43 28h2M32 29h3M44 29h1M57 29h1M9 30h1M30 30h7M58 30h1M10 31h2M31 31h8M47 31h1M58 31h1M12 32h2M34 32h7M47 32h2M58 32h1M8 33h1M36 33h5M46 33h3M58 33h1M9 34h1M31 34h1M38 34h3M46 34h3M32 35h2M39 35h3M45 35h4M59 35h1M33 36h2M39 36h3M45 36h4M59 36h1M8 37h2M31 37h6M40 37h2M47 37h1M32 38h6M40 38h2M47 38h1M50 38h1M30 39h1M34 39h4M39 39h3M50 39h1M58 39h1M29 40h1M35 40h2M39 40h3M49 40h2M58 40h1M28 41h1M35 41h2M40 41h1M49 41h2M28 42h1M35 42h1M48 42h2M57 42h1M4 43h1M27 43h1M35 43h1M49 43h1M56 43h1M5 44h1M5 45h1M14 46h1M18 46h1M24 46h1M28 46h1M6 47h1M12 47h4M18 47h1M24 47h2M28 47h1M43 47h1M53 47h2M7 48h1M12 48h5M23 48h1M26 48h1M28 48h1M42 48h2M51 48h2M12 49h2M16 49h1M20 49h1M23 49h1M27 49h2M41 49h1M50 49h1M16 50h1M21 50h2M28 50h1M41 50h1M47 50h2M56 50h1M16 51h1M41 51h1M56 51h1M40 52h1M56 52h1M38 53h3M47 53h1M15 54h1M29 54h1M47 54h1M49 54h1M52 54h1M55 54h1M15 55h1M29 55h1M48 55h7M4 56h1M6 56h1M14 56h1M29 56h1M5 57h2M9 57h1M12 57h2M29 57h1M39 57h1M7 58h5M29 58h1M39 58h1M29 59h1M32 59h1M36 59h1M39 59h1M30 60h3M37 60h2M33 61h3" />
<path stroke="#f8f8c0" d="M41 4h1M16 5h1M22 5h1M40 5h2M15 6h2M20 6h2M36 6h1M40 6h2M11 7h1M14 7h3M36 7h1M40 7h4M11 8h5M35 8h2M39 8h5M12 9h3M35 9h2M39 9h6M12 10h1M35 10h8M34 11h10M9 12h4M37 12h8M12 13h2M37 13h7M4 14h1M37 14h4M42 14h2M38 15h3M13 37h3M18 37h1M11 38h8M9 39h1M11 39h8M13 40h2M16 40h1M18 40h1" />
<path stroke="#f8f090" d="M23 5h1M11 6h1M22 6h3M43 6h3M18 7h6M39 7h1M44 7h5M16 8h2M19 8h6M44 8h8M11 9h1M15 9h2M19 9h3M37 9h1M45 9h5M13 10h3M18 10h1M43 10h9M13 11h1M44 11h9M34 12h3M45 12h8M8 13h4M14 13h1M36 13h1M44 13h4M50 13h4M10 14h6M30 14h5M36 14h1M41 14h1M44 14h3M51 14h3M11 15h6M19 15h2M35 15h3M41 15h6M52 15h2M12 16h9M34 16h12M53 16h2M13 17h9M28 17h3M35 17h11M54 17h2M15 18h7M29 18h3M36 18h10M16 19h4M30 19h3M38 19h5M44 19h1M18 20h2M39 20h1M42 20h1M8 22h1M7 23h3M52 30h1M55 30h1M51 31h3M55 31h1M10 32h2M51 32h5M9 33h4M50 33h5M10 34h5M50 34h5M10 35h8M21 35h1M23 35h1M51 35h4M9 36h12M22 36h1M24 36h1M51 36h5M11 37h2M16 37h2M19 37h1M21 37h1M23 37h1M51 37h5M10 38h1M19 38h2M22 38h1M24 38h1M52 38h4M10 39h1M19 39h3M23 39h1M52 39h1M54 39h1M6 40h1M8 40h1M10 40h3M15 40h1M17 40h1M19 40h4M6 41h3M11 41h4M16 41h6M38 41h1M42 41h1M5 42h4M12 42h3M17 42h4M37 42h2M41 42h2M5 43h3M13 43h1M17 43h4M37 43h2M41 43h3M18 44h3M36 44h2M40 44h5M6 45h1M19 45h1M35 45h7M43 45h1M19 46h1M36 46h5M37 47h3M36 48h4M36 49h2" />
<path stroke="#601000" d="M25 8h5M24 9h1M23 10h1M21 11h2M25 11h3M24 12h3M5 13h2M20 13h3M25 13h2M3 14h1M18 14h2M24 14h2M3 15h1M24 15h1M3 16h2M6 16h1M11 16h1M4 17h1M7 19h1M8 20h1M8 21h2M9 22h2M10 23h1M34 23h6M10 24h1M31 24h2M40 24h2M9 25h1M31 25h1M42 25h2M13 26h1M31 26h1M44 26h1M12 27h1M31 27h1M43 27h1M45 27h2M8 28h1M46 28h1M7 29h1M29 29h3M47 29h1M8 30h1M29 30h1M47 30h1M30 31h1M31 32h1M29 33h2M49 33h1M49 34h1M49 35h2M50 36h1M50 37h1M51 38h1M43 39h1M51 39h1M9 40h1M37 40h1M42 40h2M51 40h1M9 41h2M37 41h1M39 41h1M41 41h1M43 41h1M9 42h1M11 42h1M36 42h1M39 42h2M43 42h1M50 42h1M11 43h1M36 43h1M44 43h1M50 43h1M11 44h1M35 44h1M45 44h1M11 45h1M13 45h2M27 45h1M44 45h1M11 46h2M15 46h1M43 46h4M56 46h1M8 47h1M16 47h1M55 47h1M8 48h1M53 48h1M55 48h1M8 49h1M56 49h1M7 50h1M49 50h1M7 51h1M28 51h1M48 51h1M6 52h1M16 52h1M28 52h1M47 52h1M5 53h1M15 53h1M29 53h1M49 53h1M52 53h1M55 53h1M4 54h1M38 54h1M4 55h1M6 55h1M38 55h1M9 56h1M39 56h1M32 58h1M36 58h1M36 60h1" />
<path stroke="#f89868" d="M25 9h3M24 10h1M6 53h5M6 54h5M32 55h4M31 56h6" />
<path stroke="#c05048" d="M28 9h1M28 10h1M28 11h1M27 12h1M19 13h1M27 13h1M16 14h2M26 14h1M34 24h3M36 25h3M38 26h3M39 27h3M44 27h1M33 28h3M40 28h3M45 28h1M35 29h9M45 29h2M37 30h10M39 31h8M32 32h2M41 32h6M31 33h5M41 33h5M32 34h6M41 34h5M34 35h5M42 35h3M35 36h4M42 36h3M49 36h1M37 37h3M42 37h5M48 37h2M38 38h2M42 38h5M48 38h2M31 39h3M38 39h1M42 39h1M44 39h1M47 39h3M30 40h5M38 40h1M48 40h1M29 41h6M48 41h1M10 42h1M29 42h6M9 43h2M28 43h3M34 43h1M10 44h1M27 44h3M48 44h2M9 45h2M28 45h1M45 45h2M9 46h2M13 46h1M10 47h2M54 48h1M14 49h2M51 49h5M12 50h4M50 50h6M11 51h5M51 51h5M12 52h4M52 52h4M12 53h3M48 53h1M50 53h2M53 53h2M12 54h3M48 54h1M50 54h2M53 54h2M5 55h1M11 55h4M5 56h1M7 56h2M10 56h4M7 57h2M10 57h2M38 57h1M30 58h2M37 58h2M30 59h2M33 59h3M37 59h2M33 60h3" />
<path stroke="#f8f8f0" d="M5 11h1M17 13h2M5 17h1M10 17h1" />
<path stroke="#806860" d="M6 11h1M12 11h1M16 11h1M5 12h1M9 47h1M29 47h1M34 47h2M9 48h3M29 48h2M33 48h2M9 49h3M29 49h6M9 50h3M30 50h5M31 51h3" />
<path stroke="#e87030" d="M23 11h1M20 12h3M45 39h2M44 40h4M44 41h4M44 42h4M31 43h3M45 43h4M30 44h5M46 44h2M29 45h6M29 46h6M30 47h4M31 48h2M8 50h1M29 50h1M35 50h1M8 51h3M29 51h2M34 51h2M49 51h2M7 52h5M29 52h7M48 52h4M11 53h1M30 53h7M5 54h1M11 54h1M30 54h8M7 55h4M30 55h2M36 55h2M30 56h1M37 56h2M30 57h8M33 58h3" />
<path stroke="#d8d8d0" d="M17 12h2M5 16h1M10 16h1M8 27h1M13 27h1" />
<path stroke="#c03020" d="M7 16h2M7 17h2M7 18h3M11 18h2M8 19h4M9 20h2M10 21h1M14 22h2M12 23h1M11 24h1" />
<path stroke="#501010" d="M9 16h1M11 17h1M12 19h2M11 20h5M11 21h4M11 22h3M11 23h1M8 26h2M9 27h1" />
<path stroke="#f86040" d="M13 23h3M12 24h4M10 25h6M10 26h3M14 26h1M10 27h2" />
</svg>