<svg xmlns="http://www.w3.org/2000/svg" viewBox="0 -0.5 64 64" shape-rendering="crispEdges">
<metadata>Made with Pixels to Svg https://codepen.io/shshaw/pen/XbxvNj</metadata>
<path stroke="#f86000" d="M32 0h2M31 1h1M49 1h4M40 2h2M45 2h1M50 2h1M20 3h3M39 3h1M19 4h6M3 5h1M19 5h5M35 5h2M40 5h1M3 6h1M18 6h7M27 6h3M34 6h2M39 6h2M2 7h1M18 7h2M22 7h9M33 7h2M1 8h2M18 8h1M23 8h12M57 8h2M1 9h3M17 9h1M23 9h12M40 9h2M56 9h2M1 10h6M24 10h2M27 10h5M34 10h2M38 10h3M56 10h1M2 11h8M28 11h2M35 11h6M61 11h1M2 12h6M34 12h8M54 12h1M61 12h2M3 13h4M15 13h1M34 13h11M54 13h2M60 13h3M4 14h4M16 14h2M35 14h3M40 14h5M46 14h1M54 14h2M60 14h2M4 15h5M17 15h2M28 15h3M33 15h1M35 15h1M38 15h2M41 15h5M47 15h1M54 15h1M58 15h3M3 16h7M12 16h2M29 16h6M36 16h3M40 16h6M59 16h1M3 17h13M29 17h10M40 17h5M4 18h1M7 18h7M35 18h5M43 18h2M8 19h9M29 19h6M37 19h7M7 20h4M13 20h8M28 20h2M31 20h6M39 20h4M51 20h1M7 21h3M14 21h6M23 21h2M31 21h3M36 21h5M14 22h10M38 22h2M13 23h8M37 23h3M11 24h8M37 24h3M12 25h3M17 25h2M12 32h2M13 33h1M7 34h2M10 34h2M13 34h2M9 35h6M11 36h3M15 36h1M11 37h3M15 37h1M24 37h2M14 38h1M23 38h3M37 50h1M50 51h2M40 52h1M51 52h1M53 52h1M38 53h1M41 53h1M50 53h3M54 53h1M38 54h4M43 54h1M50 54h3M54 54h1M36 55h1M38 55h5M49 55h5M55 55h1M37 56h6M44 56h1M50 56h4M55 56h1M36 57h7M44 57h1M36 58h2M39 58h4M44 58h1M39 59h2M42 59h1M44 59h1" />
<path stroke="#f8e020" d="M32 1h2M33 2h2M51 2h4M32 3h3M40 3h3M45 3h2M52 3h4M31 4h4M41 4h6M51 4h7M29 5h5M42 5h6M50 5h7M31 6h2M37 6h1M42 6h14M36 7h3M41 7h16M36 8h9M47 8h9M36 9h3M42 9h3M48 9h8M59 9h2M11 10h3M42 10h4M49 10h5M58 10h3M11 11h2M41 11h3M50 11h3M57 11h4M10 12h4M51 12h2M57 12h3M8 13h6M18 13h3M58 13h2M9 14h6M19 14h2M10 15h2M13 15h3M19 15h3M18 16h6M16 17h9M15 18h12M18 19h1M21 19h6M22 20h1M25 20h1M21 21h1M7 30h2M10 30h1M7 31h6M8 32h4M9 33h1M11 33h1M47 49h3M48 50h3M34 51h2M37 51h2M47 51h2M33 52h7M47 52h3M34 53h4M34 54h2M37 54h1" />
<path stroke="#c80000" d="M34 1h1M53 1h2M20 2h3M32 2h1M35 2h1M42 2h1M46 2h1M55 2h1M19 3h1M23 3h2M31 3h1M35 3h1M43 3h2M47 3h1M51 3h1M56 3h2M1 4h3M18 4h1M25 4h1M29 4h2M35 4h2M40 4h1M47 4h1M50 4h1M58 4h1M2 5h1M4 5h1M18 5h1M24 5h1M27 5h2M37 5h3M48 5h2M57 5h1M2 6h1M4 6h1M8 6h1M17 6h1M25 6h2M56 6h1M1 7h1M3 7h1M8 7h2M17 7h1M20 7h2M57 7h2M60 7h1M0 8h1M3 8h1M8 8h1M10 8h3M17 8h1M19 8h1M22 8h1M59 8h1M61 8h1M0 9h1M4 9h3M8 9h1M13 9h2M16 9h1M18 9h1M22 9h1M61 9h1M0 10h1M7 10h1M9 10h2M14 10h1M16 10h2M23 10h1M26 10h1M32 10h2M61 10h1M1 11h1M10 11h1M13 11h1M24 11h2M27 11h1M30 11h2M34 11h1M62 11h1M1 12h1M8 12h2M14 12h2M18 12h3M28 12h2M33 12h1M63 12h1M2 13h1M16 13h2M21 13h1M33 13h1M63 13h1M3 14h1M21 14h1M34 14h1M38 14h2M62 14h1M3 15h1M22 15h2M34 15h1M36 15h2M40 15h1M57 15h1M61 15h1M2 16h1M24 16h1M35 16h1M39 16h1M57 16h2M60 16h1M2 17h1M25 17h2M39 17h1M57 17h4M3 18h1M5 18h2M27 18h1M40 18h3M56 18h6M4 19h1M7 19h1M50 19h2M56 19h6M6 20h1M11 20h2M50 20h1M58 20h3M6 21h1M10 21h1M13 21h1M58 21h1M7 22h3M13 22h1M58 22h1M11 23h2M21 23h2M57 23h3M10 24h1M19 24h2M57 24h2M11 25h1M15 25h2M19 25h1M12 26h3M17 26h2M5 29h4M10 29h1M6 30h1M9 30h1M11 30h2M6 31h1M13 31h1M7 32h1M7 33h1M14 33h1M6 34h1M7 35h2M9 36h2M10 37h1M23 37h1M11 38h1M22 38h1M22 39h2M46 48h4M46 49h1M50 49h1M34 50h2M38 50h1M47 50h1M31 51h3M36 51h1M39 51h2M46 51h1M32 52h1M41 52h1M33 53h1M47 53h1M33 54h1M49 54h1M34 55h2M48 55h1M36 56h1M49 56h1M35 57h1M51 57h3M35 58h1M38 58h1M36 59h1M41 59h1M38 60h3M42 60h2" />
<path stroke="#f8c010" d="M34 5h1M41 5h1M30 6h1M33 6h1M36 6h1M38 6h1M41 6h1M31 7h2M35 7h1M39 7h2M9 8h1M35 8h1M56 8h1M60 8h1M9 9h4M35 9h1M39 9h1M58 9h1M36 10h2M41 10h1M57 10h1M42 12h2M60 12h1M7 13h1M14 13h1M8 14h1M15 14h1M18 14h1M58 14h2M9 15h1M12 15h1M16 15h1M10 16h2M14 16h4M14 18h1M17 19h1M19 19h2M21 20h1M23 20h2M20 21h1M22 21h1M8 33h1M10 33h1M12 33h1M9 34h1M12 34h1M49 51h1M50 52h1M39 53h2M48 53h2M36 54h1M37 55h1" />
<path stroke="#906818" d="M45 8h2M47 9h1M48 10h1M47 12h1M45 17h1M29 18h1M33 18h2M52 18h1M27 19h1M35 19h2M44 19h1M37 20h2M43 20h1M52 20h1M25 21h1M41 21h1M24 22h1M40 22h1M54 23h1M23 24h1M43 24h1M49 24h2M53 24h1M41 25h1M46 25h2M21 26h1M44 26h2M47 26h1M18 27h1M44 27h1M55 27h1M17 29h1M54 29h1M17 30h1M53 30h1M16 31h1M16 32h1M31 32h1M15 33h1M20 34h1M30 34h2M19 35h1M22 35h1M53 35h1M14 36h1M18 36h1M31 36h3M54 36h1M26 37h1M13 38h1M17 38h1M29 38h1M25 39h1M47 39h1M51 39h1M37 40h1M54 40h1M37 41h1M46 41h1M53 41h1M38 42h1M38 43h1M47 43h1M38 44h1M46 44h1M48 44h1M53 44h1M39 45h1M49 45h1M54 45h1M45 46h1M50 47h1M51 49h1M54 49h1M45 50h1M55 50h1M42 51h1M52 51h1M46 52h1M46 53h1M53 53h1M56 54h1M43 55h1M54 55h1M47 56h1M43 59h1" />
<path stroke="#101010" d="M45 9h1M46 10h1M54 10h2M44 11h3M49 11h1M53 11h1M56 11h1M44 12h1M50 12h1M53 12h1M56 12h1M45 13h1M47 13h1M51 13h2M57 13h1M45 14h1M48 14h1M52 14h1M57 14h1M46 15h1M48 15h1M56 15h1M46 16h1M30 18h3M45 18h1M50 18h2M28 19h1M49 19h1M26 20h1M57 20h1M42 21h1M57 21h1M57 22h1M23 23h1M40 23h1M56 23h1M41 24h1M51 24h2M56 24h1M22 25h1M48 25h1M55 25h1M19 26h2M42 26h2M55 26h1M45 27h2M54 28h1M53 31h1M53 32h1M30 33h1M53 33h1M15 34h1M29 34h1M53 34h1M15 35h1M21 35h1M27 35h2M32 35h2M23 36h4M34 36h1M14 37h1M18 37h1M30 37h1M35 37h1M54 37h1M12 38h1M26 38h1M36 38h1M54 38h1M11 39h1M17 39h1M24 39h1M29 39h1M37 39h1M54 39h1M11 40h1M16 40h1M23 40h1M28 40h1M47 40h1M49 40h2M11 41h1M14 41h2M23 41h1M26 41h2M47 41h2M12 42h2M24 42h2M46 42h1M53 42h1M46 43h1M53 43h1M39 46h1M49 46h1M54 46h1M39 47h1M45 47h1M54 47h1M40 48h1M45 48h1M50 48h1M54 48h1M41 49h1M45 49h1M41 50h1M51 50h1M55 51h1M42 52h1M52 52h1M55 52h1M42 53h1M56 53h1M42 54h1M46 54h1M53 54h1M46 55h1M57 55h1M43 56h1M54 56h1M58 56h1M43 57h1M47 57h1M54 57h1M58 57h1M43 58h1M47 58h1M59 58h1M47 59h1M55 59h1M59 59h1M44 60h1M56 60h3M44 61h1M48 61h1M44 62h1M48 62h1M45 63h4" />
<path stroke="#f8f0b0" d="M46 9h1M47 10h1M48 11h1M45 12h2M49 18h1M30 20h1M44 20h1M26 21h5M43 21h3M25 22h7M42 22h3M25 23h6M24 24h6M24 25h4M19 27h2M18 28h3M39 38h2M38 39h4M38 40h4M39 41h1M41 41h1M40 42h1M39 43h1M41 43h1M40 44h1" />
<path stroke="#f8e878" d="M47 11h1M54 11h1M48 12h2M55 12h1M46 13h1M48 13h2M53 13h1M56 13h1M47 14h1M53 14h1M56 14h1M52 15h2M55 15h1M47 16h7M46 17h3M50 17h3M46 18h2M45 19h3M27 20h1M45 20h4M34 21h2M46 21h4M32 22h6M41 22h1M45 22h3M24 23h1M31 23h6M41 23h3M45 23h1M30 24h7M40 24h1M23 25h1M28 25h13M49 25h1M22 26h20M48 26h1M50 26h1M21 27h23M47 27h1M49 27h1M21 28h26M48 28h1M50 28h1M18 29h30M49 29h1M18 30h11M32 30h17M17 31h11M33 31h15M49 31h1M17 32h10M34 32h15M16 33h9M34 33h14M16 34h4M35 34h13M16 35h3M35 35h12M16 36h2M36 36h11M16 37h2M36 37h10M37 38h2M41 38h5M42 39h3M42 40h3M38 41h1M40 41h1M42 41h3M39 42h1M41 42h4M40 43h1M42 43h3M39 44h1M41 44h4M40 45h5M40 46h5M40 47h5M41 48h4M42 49h3M42 50h3M43 51h2M43 52h3M43 53h3M55 53h1M44 54h2M55 54h1M44 55h2M56 55h1M45 56h2M56 56h2M45 57h2M55 57h3M45 58h2M45 59h2" />
<path stroke="#e0c850" d="M55 11h1M50 13h1M49 14h3M49 15h3M54 16h3M49 17h1M53 17h4M53 18h3M53 19h3M49 20h1M53 20h4M50 21h7M48 22h9M46 23h8M55 23h1M42 24h1M44 24h5M54 24h2M42 25h4M50 25h5M46 26h1M49 26h1M51 26h4M48 27h1M50 27h5M47 28h1M49 28h1M51 28h3M48 29h1M50 29h4M29 30h3M49 30h4M28 31h5M48 31h1M50 31h3M27 32h4M32 32h2M49 32h4M25 33h5M31 33h3M48 33h5M21 34h8M32 34h3M48 34h5M23 35h4M29 35h3M34 35h1M47 35h6M27 36h4M35 36h1M47 36h7M27 37h3M46 37h8M15 38h2M27 38h2M46 38h6M53 38h1M13 39h4M26 39h3M45 39h2M48 39h3M52 39h2M13 40h3M25 40h3M45 40h2M48 40h1M51 40h3M45 41h1M49 41h4M45 42h1M47 42h6M45 43h1M48 43h5M45 44h1M49 44h4M50 45h4M50 46h4M51 47h3M51 48h3M52 49h2M52 50h3M45 51h1M53 51h2M54 52h1M45 60h1" />
<path stroke="#c0a030" d="M48 18h1M48 19h1M44 23h1M52 38h1M45 45h1" />
<path stroke="#f8f8f8" d="M52 19h1" />
<path stroke="#585858" d="M12 39h1M12 40h1M24 40h1M12 41h2M24 41h2M55 58h2M56 59h1M46 60h2M59 60h1M45 61h2M45 62h2" />
<path stroke="#989898" d="M57 58h2M57 59h2M47 61h1M47 62h1" />
</svg>