<svg xmlns="http://www.w3.org/2000/svg" viewBox="0 -0.5 64 64" shape-rendering="crispEdges">
<metadata>Made with Pixels to Svg https://codepen.io/shshaw/pen/XbxvNj</metadata>
<path stroke="#488090" d="M27 6h1M14 7h2M18 7h5M26 7h1M29 7h1M13 8h1M29 8h1M13 9h1M27 9h1M29 9h1M20 10h1M29 10h1M14 11h1M17 11h2M26 11h1M29 11h2M15 12h1M17 12h2M27 12h5M17 13h3M27 13h5M21 14h4M27 14h6M17 15h1M28 15h5M16 16h1M28 16h2M31 16h2M27 17h3M31 17h3M14 18h1M22 18h6M30 18h4M31 19h3M32 20h2M32 21h1M32 22h1M31 24h1M38 24h1M40 24h1M30 25h1M41 25h1M29 26h1M42 26h1M27 27h1M42 27h2M39 28h1M43 28h1M17 29h1M42 29h1M44 29h1M7 30h4M14 30h2M41 30h3M12 31h1M42 31h3M16 32h1M35 32h2M41 32h1M43 32h2M8 33h1M16 33h1M37 33h1M40 33h3M44 33h1M8 34h2M13 34h2M16 34h1M39 34h4M7 35h8M16 35h1M38 35h6M5 36h2M10 36h5M16 36h2M35 36h9M11 37h3M15 37h1M36 37h3M41 37h3M6 38h1M11 38h2M35 38h2M41 38h2M36 39h1M41 39h1M39 41h4M15 42h1M36 42h1M41 42h4M46 42h1M14 43h1M36 43h1M42 43h3M46 43h2M14 44h1M35 44h1M43 44h3M47 44h1M20 45h1M35 45h1M44 45h2M47 45h1M20 46h1M44 46h2M47 46h2M19 47h2M44 47h2M47 47h2M54 47h2M14 48h1M18 48h3M22 48h2M36 48h1M43 48h2M46 48h4M53 48h4M15 49h5M21 49h5M42 49h3M46 49h5M52 49h6M15 50h3M20 50h7M37 50h7M45 50h6M52 50h7M18 51h9M39 51h4M44 51h7M52 51h6M19 52h7M38 52h1M43 52h8M20 53h1M23 53h3M44 53h6M24 54h2M45 54h4M46 55h2" />
<path stroke="#484870" d="M28 6h2M50 6h2M25 7h1M48 7h1M52 7h2M16 8h2M23 8h2M28 8h1M46 8h1M50 8h1M54 8h1M14 9h2M46 9h1M52 9h1M54 9h1M6 10h1M13 10h1M45 10h1M52 10h1M55 10h1M5 11h1M13 11h1M19 11h1M23 11h3M28 11h1M45 11h1M51 11h3M55 11h1M5 12h1M14 12h1M16 12h1M21 12h1M26 12h1M45 12h1M50 12h3M55 12h1M5 13h1M13 13h1M15 13h2M20 13h1M26 13h1M50 13h2M54 13h1M6 14h1M12 14h1M25 14h1M44 14h1M54 14h1M7 15h1M11 15h1M44 15h1M11 16h1M14 16h2M30 16h1M44 16h1M11 17h1M45 17h1M15 18h1M21 18h1M45 18h1M13 19h1M22 19h1M27 19h1M43 19h1M47 19h3M16 20h1M49 20h1M15 21h1M23 21h1M41 21h1M49 21h1M41 22h2M49 22h1M43 23h1M49 23h1M39 24h1M44 24h1M48 24h1M16 25h1M36 25h1M42 25h1M44 25h1M48 25h1M35 26h1M44 26h1M47 26h1M16 27h1M35 27h1M34 28h1M40 28h3M16 29h1M34 29h1M37 29h1M46 29h1M17 30h1M34 30h1M36 30h4M6 31h1M13 31h1M34 31h2M40 31h1M14 32h1M34 32h1M3 33h1M15 33h1M34 33h1M7 34h1M15 34h1M33 34h2M38 34h1M44 34h1M4 35h1M33 35h1M35 35h1M44 35h1M4 36h1M7 36h1M33 36h1M3 37h1M6 37h1M10 37h1M14 37h1M32 37h1M7 38h1M13 38h1M32 38h1M37 38h1M6 39h1M13 39h1M33 39h1M35 39h1M40 39h1M6 40h1M17 40h2M34 40h1M42 40h1M44 40h1M16 41h1M37 41h2M43 41h1M45 41h2M45 42h1M47 42h1M48 43h1M46 44h1M13 45h1M13 46h1M21 46h1M35 46h1M49 46h1M55 46h1M13 47h1M21 47h2M35 47h1M49 47h1M56 47h2M13 48h1M21 48h1M35 48h1M58 48h3M14 49h1M20 49h1M61 49h1M18 50h1M38 51h1M60 51h1M57 52h1M16 53h1M21 53h2M37 53h1M17 54h1M23 54h1M37 54h1M41 54h2M49 54h1M13 55h1M20 55h1M40 55h1M13 56h1M36 56h1M39 56h1M47 56h1M40 57h1M45 57h1M51 57h1" />
<path stroke="#90a0a0" d="M49 6h1M47 7h1M8 8h3M49 8h1M51 8h1M7 9h1M11 9h1M12 10h1M47 10h1M53 10h1M47 11h1M53 12h1M45 13h1M49 13h1M52 13h1M34 16h1M35 17h1M51 17h1M46 18h1M36 19h1M46 19h1M14 20h1M36 20h1M42 20h1M36 21h1M42 21h1M43 22h1M44 23h1M48 23h1M45 24h3M45 25h3M45 26h2M5 31h1M4 32h1M47 34h1M3 38h1M51 42h1M51 43h1M49 44h1M51 44h3M49 45h5M50 46h4M50 47h3M51 48h1M15 53h1M14 54h1M36 55h1" />
<path stroke="#98c0e8" d="M27 7h2M14 8h2M18 8h4M26 8h1M16 9h5M21 10h2M20 11h2M14 14h4M12 15h4M38 25h1M36 26h4M36 27h4M37 28h2M39 29h2M7 31h5M14 31h2M37 31h3M9 32h2M37 32h2" />
<path stroke="#101010" d="M30 7h1M30 8h1M28 9h1M30 9h1M48 9h4M27 10h2M30 10h1M42 10h1M48 10h4M27 11h1M31 11h1M42 11h1M48 11h3M19 12h1M22 12h2M32 12h1M42 12h1M48 12h2M14 13h1M22 13h1M32 13h1M33 14h1M33 15h1M53 15h1M8 16h1M33 16h1M52 16h1M9 17h1M30 17h1M34 17h1M43 17h2M52 17h1M10 18h1M12 18h1M16 18h5M28 18h2M34 18h2M41 18h4M51 18h1M11 19h2M14 19h3M23 19h4M34 19h2M40 19h3M50 19h1M56 19h1M24 20h1M26 20h1M34 20h2M40 20h2M14 21h1M17 21h1M26 21h1M33 21h3M40 21h1M55 21h1M14 22h1M17 22h1M26 22h1M33 22h3M55 22h1M14 23h1M17 23h1M32 23h3M50 23h1M54 23h1M15 24h1M17 24h1M32 24h2M49 24h1M53 24h1M17 25h1M25 25h1M31 25h2M49 25h2M52 25h1M18 26h1M24 26h1M30 26h3M43 26h1M48 26h3M54 26h1M20 27h3M28 27h4M44 27h6M54 27h1M26 28h4M44 28h5M19 29h5M43 29h1M45 29h1M47 29h1M55 29h1M44 30h3M55 30h1M41 31h1M45 31h1M55 31h1M42 32h1M45 32h1M55 32h1M43 33h1M45 33h1M55 33h1M4 34h1M43 34h1M45 34h1M55 34h1M5 35h2M15 35h1M36 35h2M45 35h1M55 35h1M15 36h1M44 36h1M55 36h1M16 37h2M44 37h1M10 38h1M14 38h2M43 38h1M54 38h1M4 39h1M7 39h6M18 39h1M37 39h1M42 39h1M54 39h1M5 40h1M19 40h1M35 40h7M43 40h1M19 41h1M44 41h1M53 41h1M19 42h1M53 42h1M20 43h1M45 43h1M53 43h1M20 44h1M48 44h1M21 45h1M46 45h1M48 45h1M54 45h1M22 46h1M46 46h1M54 46h1M23 47h1M46 47h1M53 47h1M24 48h2M45 48h1M50 48h1M52 48h1M26 49h2M36 49h1M45 49h1M51 49h1M14 50h1M19 50h1M27 50h2M36 50h1M44 50h1M51 50h1M61 50h1M15 51h3M27 51h1M30 51h2M37 51h1M43 51h1M51 51h1M58 51h2M16 52h1M26 52h1M33 52h5M39 52h4M51 52h6M26 53h1M50 53h1M20 54h1M26 54h1M43 54h2M50 54h1M18 55h2M24 55h2M38 55h1M45 55h1M50 55h1M14 56h4M20 56h4M46 56h1M51 56h1M36 57h4M46 57h5M41 58h4" />
<path stroke="#f8f8f8" d="M49 7h3M47 8h2M52 8h2M8 9h3M47 9h1M53 9h1M8 10h4M46 10h1M54 10h1M9 11h4M46 11h1M54 11h1M10 12h4M24 12h2M33 12h1M46 12h2M54 12h1M11 13h2M21 13h1M24 13h2M33 13h3M46 13h3M53 13h1M34 14h2M46 14h7M34 15h1M45 15h3M45 16h2M46 17h1M44 19h1M15 20h1M23 20h1M43 20h3M43 21h4M36 22h1M44 22h2M35 23h3M34 24h3M33 25h3M17 26h1M23 26h1M33 26h2M32 27h3M32 28h2M18 29h1M33 29h1M18 30h1M18 31h1M5 32h2M17 32h1M4 33h2M35 33h2M35 34h1M8 36h2M7 37h2M33 37h1M39 37h1M4 38h1M33 38h2M38 38h2M15 54h2M14 55h2M37 55h1M41 55h3M37 56h2M40 56h4M41 57h2" />
<path stroke="#7090e0" d="M22 8h1M25 8h1M27 8h1M21 9h6M14 10h6M23 10h4M15 11h2M22 11h1M20 12h1M13 14h1M18 14h3M26 14h1M16 15h1M18 15h10M12 16h2M17 16h11M12 17h15M13 18h1M37 25h1M39 25h2M40 26h2M40 27h2M16 28h1M35 28h2M35 29h2M38 29h1M41 29h1M11 30h1M16 30h1M35 30h1M40 30h1M16 31h1M36 31h1M8 32h1M11 32h3M15 32h1M39 32h2M9 33h6M38 33h2M10 34h3M34 35h1M34 36h1M5 37h1M34 37h2M40 37h1M17 41h2M16 42h3M37 42h4M15 43h5M37 43h5M15 44h5M36 44h7M14 45h6M36 45h8M14 46h6M36 46h8M14 47h5M36 47h8M15 48h3M37 48h6M57 48h1M37 49h5M58 49h3M59 50h2M17 52h2M17 53h3M38 53h6M18 54h2M38 54h3M39 55h1" />
<path stroke="#987040" d="M43 8h2M31 10h5M36 11h4M40 12h2M56 12h1M23 13h1M38 14h4M57 14h1M39 15h1M42 15h1M54 15h1M57 15h1M40 16h3M40 17h2M54 18h1M53 20h1M53 21h2M52 22h3M51 23h3M50 24h3M51 25h1M54 32h1M54 33h1M54 34h1M54 35h1M53 36h2M51 37h4M49 38h5M50 39h4M51 40h2M52 41h1M52 42h1" />
<path stroke="#684830" d="M45 8h1M42 9h1M43 10h1M43 11h2M34 12h2M43 12h2M36 13h1M42 13h3M56 13h1M37 14h1M42 14h2M38 15h1M40 15h2M43 15h1M38 16h2M43 16h1M53 16h2M57 16h1M39 17h1M42 17h1M53 17h2M57 17h1M39 18h2M52 18h2M57 18h1M39 19h1M51 19h3M50 20h3M56 20h1M50 21h3M50 22h2M54 25h1M16 26h1M51 26h1M17 27h1M50 27h1M52 27h1M17 28h2M25 28h1M49 28h1M53 28h1M55 28h1M24 29h1M31 29h1M48 29h1M53 29h1M19 30h1M31 30h1M47 30h1M54 30h1M31 31h1M47 31h1M54 31h1M31 32h1M47 32h1M29 33h2M32 33h1M47 33h1M27 34h1M48 35h1M48 36h1M18 37h1M48 37h1M55 37h1M18 38h1M48 38h1M49 39h1M50 40h1M53 40h2M20 41h1M31 41h3M51 41h1M22 42h8M52 43h1M54 44h1M34 48h1M28 49h5M29 51h1M32 52h1" />
<path stroke="#d8a070" d="M43 9h3M44 10h1M32 11h4M36 12h4M37 13h5M55 13h1M55 14h2M55 15h2M55 16h2M55 17h2M55 18h2M28 19h2M54 19h2M27 20h4M54 20h2M27 21h5M22 22h3M27 22h5M20 23h6M28 23h3M19 24h6M26 24h1M29 24h2M19 25h4M29 25h1M28 26h1M18 27h1M30 28h1M25 29h2M20 33h1M28 33h1M31 33h1M20 34h1M28 34h1M32 39h1M31 40h3M21 41h1M35 41h2M20 42h2M31 42h5M22 43h1M28 43h8M21 44h1M23 44h1M25 44h1M27 44h1M29 44h6M22 45h1M24 45h1M26 45h1M28 45h7M23 46h1M25 46h1M27 46h8M24 47h1M26 47h9M26 48h7M34 49h2M29 50h7" />
<path stroke="#d8d0d0" d="M7 10h1M6 11h3M6 12h4M6 13h5M7 14h5M36 14h1M45 14h1M53 14h1M8 15h3M35 15h3M48 15h5M9 16h2M35 16h3M47 16h5M10 17h1M36 17h3M47 17h4M11 18h1M36 18h3M47 18h4M37 19h2M45 19h1M37 20h3M46 20h3M16 21h1M37 21h3M47 21h2M15 22h2M37 22h4M46 22h3M15 23h2M38 23h5M45 23h3M16 24h1M37 24h1M41 24h3M43 25h1M32 29h1M32 30h2M17 31h1M32 31h2M46 31h1M7 32h1M32 32h2M46 32h1M6 33h2M17 33h1M33 33h1M46 33h1M5 34h2M17 34h1M36 34h2M46 34h1M17 35h1M46 35h2M45 36h3M4 37h1M9 37h1M45 37h3M5 38h1M8 38h2M40 38h1M44 38h4M5 39h1M34 39h1M38 39h2M43 39h6M45 40h5M47 41h4M48 42h3M49 43h2M50 44h1M21 54h2M16 55h2M21 55h3M44 55h1M48 55h2M44 56h2M48 56h3M43 57h2" />
<path stroke="#a83038" d="M17 19h5M17 20h6M25 20h1M18 21h5M24 21h2M18 22h4M25 22h1M18 23h2M26 23h1M18 24h1M25 24h1M18 25h1M23 25h2M19 26h4M19 27h1M23 27h1" />
<path stroke="#b88838" d="M30 19h1M31 20h1M31 23h1M53 25h1M52 26h2M51 27h1M53 27h1M31 28h1M50 28h3M54 28h1M49 29h4M54 29h1M48 30h6M19 31h1M48 31h6M18 32h1M48 32h6M18 33h2M48 33h6M18 34h1M21 34h6M48 34h6M18 35h1M49 35h5M18 36h1M49 36h4M49 37h2M30 41h1M34 41h1M30 42h1M33 48h1M33 49h1M32 51h5" />
<path stroke="#f8d068" d="M27 23h1M27 24h2M26 25h3M25 26h3M24 27h3M19 28h1M23 28h2M27 29h4M20 30h11M20 31h11M19 32h12M21 33h7M19 34h1M29 34h4M19 35h14M19 36h14M19 37h13M19 38h13M19 39h13M20 40h11M22 41h8M21 43h1M23 43h5M22 44h1M24 44h1M26 44h1M28 44h1M23 45h1M25 45h1M27 45h1M24 46h1M26 46h1M25 47h1" />
<path stroke="#e8a840" d="M20 28h3" />
</svg>