<svg xmlns="http://www.w3.org/2000/svg" viewBox="0 -0.5 64 64" shape-rendering="crispEdges">
<metadata>Made with Pixels to Svg https://codepen.io/shshaw/pen/XbxvNj</metadata>
<path stroke="#504848" d="M33 2h5M32 3h1M31 4h1M40 5h1M27 7h1M42 7h3M23 8h4M39 8h3M21 9h2M26 9h1M38 9h1M50 9h1M26 10h1M35 10h3M50 10h1M37 11h1M37 12h1M32 13h1M36 13h1M17 14h1M32 14h3M36 14h1M52 14h1M17 15h1M36 15h1M47 15h1M51 15h1M15 16h3M36 16h1M40 16h1M47 16h1M51 16h1M14 17h1M18 17h1M37 17h1M41 17h1M46 17h6M37 18h1M41 18h5M52 18h1M11 19h1M26 19h1M32 19h1M38 19h1M40 19h1M51 19h1M53 19h1M10 20h1M25 20h1M39 20h1M51 20h1M9 21h1M24 21h1M39 21h1M50 21h1M9 22h1M17 22h1M33 22h1M56 22h1M9 23h1M17 23h1M57 23h1M9 24h1M29 24h1M37 24h1M57 24h1M16 25h3M29 25h1M56 25h1M9 26h1M16 26h1M19 26h2M29 26h1M55 26h1M30 27h1M34 27h1M38 27h1M29 28h2M38 28h1M7 29h1M30 29h1M37 29h2M46 29h1M6 30h1M28 30h1M30 30h1M36 30h1M41 30h1M43 30h1M47 30h1M52 30h1M6 31h1M17 31h1M30 31h1M33 31h1M35 31h1M42 31h1M52 31h1M6 32h1M16 32h1M33 32h2M7 33h1M14 33h2M31 33h2M47 33h1M56 33h1M7 34h1M16 34h1M26 34h1M42 34h1M46 34h1M11 35h1M26 35h1M40 35h1M42 35h1M45 35h1M10 36h1M26 36h1M40 36h1M43 36h1M52 36h1M17 37h1M25 37h1M38 37h2M41 37h1M43 37h1M52 37h1M8 38h1M18 38h1M37 38h1M51 38h1M14 39h1M16 39h1M27 39h1M35 39h2M40 39h1M51 39h1M14 40h1M17 40h1M27 40h1M33 40h2M40 40h1M49 40h2M15 41h1M19 41h1M27 41h1M33 41h2M45 41h3M8 42h1M15 42h1M20 42h1M27 42h1M33 42h1M36 42h2M44 42h1M9 43h1M21 43h1M26 43h1M28 43h1M42 43h1M9 44h1M22 44h1M41 44h1M45 44h1M49 44h1M10 45h1M15 45h1M27 45h1M43 45h1M46 45h1M12 46h1M32 46h1M40 46h1M46 46h2M12 47h1M20 47h1M32 47h1M46 47h1M48 47h1M13 48h1M16 48h1M23 48h1M28 48h1M32 48h1M36 48h1M16 49h1M28 49h1M32 49h1M34 49h2M45 49h1M28 50h1M33 50h1M47 50h1M36 51h1M44 51h1M6 52h2M16 52h1M23 52h1M30 52h1M34 52h1M43 52h1M46 52h1M5 53h1M8 53h1M15 53h1M33 53h1M38 53h1M41 53h1M8 54h3M12 54h3M18 54h1M44 54h1M7 55h1M11 55h1M18 55h1M10 56h1M17 56h1M19 56h1M13 57h1M16 57h1M12 58h1" />
<path stroke="#788068" d="M33 3h1M37 3h1M30 4h1M33 4h1M37 4h1M28 5h2M37 5h1M27 6h1M37 6h1M40 6h1M39 7h1M48 7h1M28 8h1M48 8h1M23 9h1M20 10h1M23 10h1M25 10h1M32 10h3M19 11h1M24 11h1M32 11h1M49 11h1M18 12h1M32 12h1M48 12h1M17 13h1M25 13h2M45 13h2M48 13h1M53 13h1M24 14h3M35 14h1M41 14h1M47 14h1M23 15h1M26 15h2M32 15h4M40 15h1M55 15h1M26 16h2M32 16h4M52 16h1M54 16h2M12 17h2M15 17h1M19 17h1M27 17h1M33 17h4M52 17h3M11 18h1M15 18h1M20 18h1M27 18h1M34 18h2M48 18h1M53 18h1M24 19h1M27 19h1M18 20h1M21 20h1M26 20h3M18 21h2M25 21h4M18 22h3M23 22h6M48 22h1M50 22h1M12 23h2M18 23h5M49 23h1M11 24h1M14 24h2M17 24h7M49 24h1M19 25h5M48 25h1M57 25h2M17 26h2M21 26h1M45 26h1M49 26h1M56 26h3M8 27h1M15 27h6M50 27h1M54 27h5M8 28h1M13 28h7M34 28h1M44 28h1M51 28h1M53 28h1M56 28h3M29 29h1M33 29h1M39 29h1M44 29h2M52 29h1M57 29h2M7 30h1M13 30h1M33 30h1M40 30h1M42 30h1M44 30h3M11 31h2M28 31h1M43 31h5M12 32h1M17 32h1M27 32h1M30 32h1M42 32h5M53 32h4M8 33h1M13 33h1M16 33h2M26 33h1M33 33h1M42 33h5M54 33h2M9 34h1M12 34h4M17 34h1M41 34h1M43 34h3M54 34h2M12 35h5M39 35h1M41 35h1M43 35h2M54 35h1M11 36h5M38 36h2M41 36h2M44 36h1M10 37h5M40 37h1M42 37h1M40 38h2M45 38h1M7 39h1M15 39h1M32 39h1M48 39h1M7 40h1M12 40h1M15 40h2M29 40h1M41 40h1M7 41h1M13 41h1M16 41h2M29 41h1M39 41h1M48 41h1M12 42h1M16 42h2M29 42h1M35 42h1M38 42h1M45 42h5M12 43h1M16 43h1M18 43h1M29 43h1M33 43h1M43 43h8M19 44h1M21 44h1M28 44h2M33 44h1M42 44h3M20 45h2M29 45h1M32 45h2M40 45h3M47 45h2M16 46h1M20 46h2M33 46h1M41 46h1M48 46h1M19 47h1M21 47h1M33 47h1M39 47h1M41 47h1M47 47h1M17 48h4M22 48h1M37 48h2M46 48h3M15 49h1M17 49h2M21 49h3M46 49h2M19 50h1M22 50h2M32 50h1M45 50h2M20 51h1M23 51h2M22 52h1M24 52h1M37 52h1M17 53h1M21 53h3M21 54h2M19 55h2M8 56h1M18 56h1M20 56h1M8 57h2M14 57h1M17 57h3M11 58h1M13 58h3M12 59h4" />
<path stroke="#d8d0d0" d="M34 3h3M34 4h3M34 5h3M34 6h3M41 6h2M33 7h5M40 7h2M35 8h4M49 8h2M24 9h2M31 9h1M35 9h3M49 9h1M24 10h1M48 10h2M48 11h1M28 13h1M40 14h1M44 14h3M24 15h2M41 15h6M24 16h2M41 16h6M16 17h2M23 17h4M40 17h1M42 17h4M16 18h2M19 18h1M22 18h1M24 18h3M39 18h2M46 18h1M16 19h2M19 19h2M22 19h2M25 19h1M30 19h1M39 19h1M16 20h2M20 20h1M22 20h3M15 21h1M17 21h1M22 21h2M10 22h1M14 22h3M31 22h1M10 23h2M14 23h3M31 23h1M39 23h1M55 23h2M10 24h1M16 24h1M31 24h1M38 24h3M55 24h2M30 25h2M38 25h3M54 25h2M31 26h1M42 26h3M47 26h2M54 26h1M31 27h2M45 27h5M31 28h2M46 28h5M12 29h1M31 29h2M47 29h3M31 30h2M35 30h1M48 30h1M7 31h3M31 31h2M34 31h1M7 32h5M31 32h2M9 33h4M30 33h1M10 34h2M27 34h10M27 35h10M27 36h9M46 36h6M26 37h9M45 37h7M9 38h1M26 38h7M38 38h2M42 38h3M47 38h4M12 39h2M28 39h1M30 39h2M41 39h6M49 39h2M13 40h1M30 40h3M35 40h1M42 40h7M30 41h3M40 41h2M43 41h2M19 42h1M30 42h3M39 42h4M11 43h1M19 43h2M30 43h3M36 43h6M10 44h2M20 44h1M30 44h2M36 44h5M30 45h2M35 45h5M29 46h3M34 46h6M16 47h1M34 47h5M36 49h2M34 50h4M18 51h2M32 51h4M18 52h3M31 52h3M6 53h1M16 53h1M19 53h2M42 53h3M15 54h2M37 54h7M8 55h2M12 55h2M15 55h1M13 56h1" />
<path stroke="#101010" d="M38 3h1M39 4h1M41 5h2M43 6h1M45 6h4M49 7h2M51 8h1M52 9h1M53 10h1M26 11h1M54 11h1M26 12h1M54 12h1M27 13h1M29 13h2M55 13h1M27 14h2M30 14h1M56 14h1M28 15h1M31 15h1M56 15h1M28 16h1M31 16h1M56 16h1M28 17h1M32 17h1M55 17h1M18 18h1M28 18h1M32 18h2M36 18h1M54 18h1M18 19h1M28 19h1M34 19h2M19 20h1M33 20h1M53 20h1M20 21h1M29 21h1M33 21h1M54 21h1M21 22h2M29 22h1M39 22h1M55 22h1M23 23h7M34 23h1M38 23h1M24 24h1M34 24h1M58 24h1M10 25h1M24 25h1M35 25h3M59 25h1M10 26h1M22 26h2M35 26h1M38 26h4M59 26h1M11 27h1M21 27h1M42 27h3M59 27h1M12 28h1M20 28h1M43 28h1M45 28h1M59 28h1M13 29h7M43 29h1M59 29h1M17 30h1M58 30h1M18 31h1M48 31h3M58 31h1M18 32h1M41 32h1M47 32h1M51 32h2M57 32h1M18 33h1M41 33h1M53 33h1M18 34h1M40 34h1M53 34h1M56 34h1M7 35h1M17 35h1M53 35h1M55 35h1M8 36h1M16 36h1M45 36h1M53 36h2M9 37h1M15 37h1M44 37h1M53 37h1M10 38h5M25 38h1M53 38h1M18 39h1M26 39h1M52 39h1M18 40h1M28 40h1M37 40h1M52 40h1M18 41h1M52 41h1M18 42h1M51 42h1M17 43h1M51 43h1M16 44h1M26 44h1M46 44h3M50 44h1M11 45h4M22 45h1M44 45h2M49 45h1M22 46h1M27 46h1M42 46h4M49 46h1M22 47h1M27 47h1M42 47h4M49 47h1M21 48h1M41 48h5M49 48h1M14 49h1M19 49h2M24 49h1M40 49h5M48 49h1M15 50h4M24 50h1M39 50h6M17 51h1M25 51h1M28 51h1M37 51h7M47 51h1M17 52h1M25 52h1M29 52h1M35 52h2M38 52h5M18 53h1M24 53h1M31 53h2M36 53h1M39 53h2M46 53h1M5 54h1M19 54h2M23 54h1M36 54h1M45 54h1M6 55h1M14 55h1M21 55h2M37 55h2M42 55h2M7 56h1M14 56h1M21 56h1M39 56h3M7 57h1M10 57h1M15 57h1M20 57h1M8 58h3M16 58h4M11 59h1M16 59h1M12 60h4" />
<path stroke="#e8e0e0" d="M32 4h1M30 5h3M28 6h5M28 7h5M45 7h3M27 8h1M29 8h5M42 8h6M27 9h2M32 9h2M39 9h9M21 10h2M27 10h4M38 10h9M20 11h3M27 11h5M38 11h9M19 12h5M27 12h5M38 12h9M18 13h6M31 13h1M37 13h1M39 13h5M18 14h6M29 14h1M37 14h2M18 15h5M29 15h1M37 15h3M18 16h5M29 16h1M37 16h3M20 17h2M29 17h1M38 17h2M12 18h3M29 18h1M38 18h1M47 18h1M49 18h3M12 19h3M29 19h1M41 19h4M46 19h2M49 19h2M11 20h4M30 20h1M40 20h6M48 20h3M11 21h3M30 21h1M40 21h7M48 21h2M12 22h1M30 22h1M40 22h8M30 23h1M41 23h8M30 24h1M41 24h8M42 25h5M9 27h2M9 28h3M8 29h4M10 30h3M29 30h1M29 31h1M28 32h2M27 33h3M8 39h3M8 40h4M8 41h5M9 42h2M13 46h3M13 47h3M29 47h3M14 48h2M29 48h3M29 49h3M29 50h3M29 51h3" />
<path stroke="#b8b0b0" d="M38 4h1M33 5h1M38 5h2M33 6h1M38 6h2M38 7h1M34 8h1M29 9h2M34 9h1M48 9h1M51 9h1M31 10h1M47 10h1M51 10h2M23 11h1M25 11h1M33 11h4M47 11h1M50 11h4M24 12h2M33 12h4M47 12h1M49 12h5M24 13h1M33 13h3M38 13h1M44 13h1M47 13h1M49 13h4M54 13h1M31 14h1M39 14h1M42 14h2M48 14h4M53 14h3M30 15h1M48 15h3M52 15h3M23 16h1M30 16h1M48 16h3M53 16h1M22 17h1M30 17h2M21 18h1M23 18h1M30 18h2M15 19h1M21 19h1M31 19h1M45 19h1M48 19h1M52 19h1M15 20h1M29 20h1M31 20h2M46 20h2M52 20h1M10 21h1M14 21h1M16 21h1M21 21h1M31 21h2M47 21h1M51 21h3M11 22h1M13 22h1M32 22h1M49 22h1M51 22h4M32 23h2M40 23h1M50 23h5M12 24h2M32 24h2M50 24h5M11 25h5M32 25h3M41 25h1M47 25h1M49 25h5M11 26h5M30 26h1M32 26h3M36 26h2M46 26h1M50 26h4M12 27h3M33 27h1M35 27h3M39 27h3M51 27h3M33 28h1M35 28h3M39 28h4M52 28h1M54 28h2M34 29h3M40 29h3M50 29h2M53 29h4M8 30h2M14 30h3M34 30h1M37 30h3M49 30h3M53 30h5M10 31h1M13 31h4M36 31h6M51 31h1M53 31h5M13 32h3M35 32h6M48 32h3M34 33h7M48 33h5M8 34h1M37 34h3M47 34h6M8 35h3M37 35h2M46 35h7M9 36h1M36 36h2M16 37h1M35 37h3M15 38h3M33 38h4M46 38h1M52 38h1M11 39h1M17 39h1M29 39h1M33 39h2M37 39h1M47 39h1M51 40h1M14 41h1M35 41h1M42 41h1M49 41h3M11 42h1M13 42h2M34 42h1M43 42h1M50 42h1M10 43h1M13 43h3M27 43h1M34 43h2M12 44h4M17 44h2M27 44h1M32 44h1M34 44h2M16 45h4M28 45h1M34 45h1M17 46h3M28 46h1M17 47h2M28 47h1M40 47h1M33 48h3M39 48h2M33 49h1M38 49h2M20 50h2M38 50h1M21 51h2M45 51h2M21 52h1M44 52h2M7 53h1M37 53h1M45 53h1M6 54h2M17 54h1M10 55h1M16 55h2M39 55h3M9 56h1M11 56h2M15 56h2M11 57h2" />
<path stroke="#f8f8f8" d="M38 39h2M36 40h1M38 40h2M28 41h1M36 41h3M28 42h1" />
</svg>