<svg xmlns="http://www.w3.org/2000/svg" viewBox="0 -0.5 64 64" shape-rendering="crispEdges">
<metadata>Made with Pixels to Svg https://codepen.io/shshaw/pen/XbxvNj</metadata>
<path stroke="#b89850" d="M21 4h2M20 5h1M23 5h1M41 6h4M40 7h1M45 7h2M26 10h4M7 17h2M6 18h1M3 21h2M52 21h1M2 22h1M53 22h1M1 23h1M0 24h1M20 45h1M19 46h1M19 47h1M18 48h1" />
<path stroke="#f8d860" d="M21 5h2M21 6h2M21 7h3M22 8h2M23 9h2M39 9h3M49 9h1M23 10h1M39 10h4M49 10h2M27 11h3M39 11h1M41 11h4M47 11h1M49 11h2M25 12h8M41 12h4M47 12h1M49 12h1M21 13h2M27 13h1M29 13h1M31 13h4M42 13h3M46 13h2M49 13h1M20 14h1M28 14h1M30 14h1M32 14h4M29 15h1M31 15h4M37 15h2M30 16h1M32 16h7M29 17h1M31 17h7M9 18h1M18 18h1M30 18h8M9 19h2M18 19h1M29 19h9M50 19h1M10 20h1M12 20h2M17 20h3M28 20h10M44 20h1M49 20h2M8 21h1M10 21h2M13 21h3M17 21h1M20 21h1M27 21h10M45 21h7M10 22h2M14 22h2M17 22h1M21 22h2M25 22h12M45 22h8M5 23h1M11 23h2M17 23h1M21 23h16M46 23h7M3 24h3M11 24h3M17 24h2M22 24h14M46 24h7M1 25h2M4 25h1M11 25h3M17 25h12M32 25h4M47 25h6M1 26h2M10 26h3M18 26h2M21 26h6M33 26h2M49 26h3M10 27h2M22 27h4M33 27h1M1 28h1M23 28h2M23 29h2M18 30h1M22 30h3M18 31h5M19 32h2M23 43h4M22 44h6M23 45h6M24 46h5M24 47h4M19 48h1M23 48h4M39 48h3M20 49h6M39 49h5M21 50h4M40 50h5M41 51h3M48 53h1M45 54h2M19 55h2M22 55h1M42 55h3M46 55h2M19 56h1M21 56h3M42 56h3M21 57h2M24 57h2M24 58h2" />
<path stroke="#604820" d="M20 6h1M23 6h1M20 7h1M47 7h1M20 8h2M39 8h1M48 8h2M19 9h1M21 9h1M38 9h1M50 9h1M19 10h1M19 11h1M26 11h1M30 11h3M48 11h1M19 12h1M40 12h1M45 12h1M48 12h1M50 12h1M19 13h1M41 13h1M45 13h1M48 13h1M50 13h1M19 14h1M37 14h1M35 15h2M18 16h1M9 17h1M40 17h1M17 18h1M39 18h1M41 18h1M17 19h1M38 19h1M40 19h1M51 19h1M5 20h1M9 20h1M39 20h1M51 20h1M16 21h1M18 21h2M39 21h1M16 22h1M38 22h1M2 23h1M20 23h1M53 23h1M6 24h1M14 24h1M21 24h1M53 24h1M0 25h1M7 25h1M10 25h1M29 25h3M53 25h1M0 26h1M9 26h1M20 26h1M28 26h1M32 26h1M1 27h1M7 27h2M27 27h1M51 27h1M0 28h1M36 28h1M49 28h1M1 29h1M18 29h1M25 29h1M2 30h1M17 30h1M25 30h1M17 31h1M17 32h1M17 33h1M17 34h1M18 35h1M41 39h1M23 41h1M24 42h1M43 42h1M21 44h1M46 46h1M31 47h1M37 47h1M47 47h1M38 48h1M18 49h1M28 49h1M30 49h2M37 49h1M46 49h1M18 50h1M30 50h1M38 50h1M48 50h1M27 51h1M39 51h1M21 52h1M38 52h1M41 52h1M44 52h1M21 53h1M19 54h1M44 54h1M18 55h1M21 55h1M24 56h1M41 56h1M26 58h1" />
<path stroke="#101010" d="M24 7h1M24 8h1M25 9h1M21 10h2M25 10h1M38 10h1M51 10h1M21 11h2M37 11h1M52 11h1M21 12h1M33 12h2M37 12h1M52 12h1M35 13h1M38 13h1M52 13h1M36 14h1M38 14h1M41 14h1M45 14h1M48 14h1M50 14h1M52 14h1M39 15h1M41 15h1M45 15h1M47 15h1M49 15h1M51 15h1M39 16h3M45 16h6M38 17h2M42 17h3M50 17h1M10 18h1M38 18h1M42 18h1M50 18h1M6 19h1M11 19h3M43 19h1M11 20h1M14 20h3M43 20h1M5 21h1M9 21h1M12 21h1M41 21h1M43 21h1M5 22h1M8 22h1M20 22h1M42 22h1M44 22h1M6 23h3M13 23h1M16 23h1M38 23h1M41 23h2M44 23h1M2 24h1M16 24h1M38 24h1M45 24h1M3 25h1M14 25h1M16 25h1M37 25h1M43 25h1M45 25h1M4 26h1M7 26h1M13 26h1M16 26h1M30 26h1M37 26h1M43 26h1M46 26h1M52 26h1M5 27h2M9 27h1M12 27h2M17 27h1M19 27h1M37 27h1M47 27h1M50 27h1M2 28h3M9 28h3M14 28h1M17 28h2M43 28h1M48 28h1M4 29h1M14 29h1M36 29h1M47 29h4M3 30h1M15 30h1M35 30h1M46 30h1M50 30h2M60 30h1M25 31h1M32 31h3M44 31h2M52 31h2M61 31h1M14 32h1M25 32h1M30 32h2M41 32h3M53 32h2M15 33h1M24 33h6M37 33h1M41 33h1M55 33h2M62 33h1M22 34h2M40 34h1M62 34h1M19 35h3M38 35h3M62 35h1M16 36h2M40 36h1M18 37h1M20 37h1M37 37h1M41 37h1M53 37h1M61 37h1M19 38h1M21 38h2M25 38h1M31 38h1M36 38h2M41 38h1M54 38h1M60 38h1M22 39h1M24 39h1M29 39h1M31 39h1M34 39h2M57 39h2M23 40h2M27 40h2M33 40h1M42 40h1M42 41h1M23 42h1M22 43h1M44 43h1M45 44h1M46 45h1M32 47h5M30 48h1M35 48h1M47 48h1M29 49h1M36 49h1M47 49h1M31 50h1M37 50h1M46 50h1M19 51h1M31 51h1M37 51h1M40 51h1M45 51h1M49 51h1M20 52h1M26 52h1M31 52h1M42 52h2M49 52h1M22 53h4M30 53h1M38 53h1M47 53h1M49 53h1M30 54h1M39 54h1M48 54h1M29 55h1M40 55h1M45 55h1M48 55h1M18 56h1M20 56h1M29 56h1M45 56h3M19 57h2M23 57h1M28 57h1M42 57h3M21 58h3M27 58h1M24 59h3" />
<path stroke="#f8e898" d="M41 7h4M41 8h7M42 9h7M43 10h6M46 11h1M46 12h1M23 13h4M28 13h1M30 13h1M21 14h7M29 14h1M31 14h1M20 15h9M30 15h1M19 16h11M31 16h1M19 17h10M30 17h1M7 18h2M19 18h11M7 19h2M19 19h10M6 20h3M20 20h8M21 21h6M3 22h2M23 22h2M3 23h2M1 24h1M20 27h2M19 28h4M19 29h4M19 30h3M21 45h2M20 46h4M20 47h4M20 48h3" />
<path stroke="#c8b068" d="M40 8h1M20 9h1M22 9h1M20 10h1M24 10h1M20 11h1M23 11h3M38 11h1M40 11h1M45 11h1M51 11h1M20 12h1M22 12h3M38 12h2M51 12h1M20 13h1M39 13h2M51 13h1M39 14h2M42 14h3M46 14h2M49 14h1M51 14h1M18 15h2M40 15h1M42 15h3M46 15h1M48 15h1M50 15h1M42 16h3M17 17h2M41 17h1M45 17h5M40 18h1M44 18h6M39 19h1M44 19h6M38 20h1M45 20h4M6 21h2M37 21h2M6 22h2M9 22h1M12 22h2M37 22h1M43 22h1M9 23h2M14 23h2M18 23h1M37 23h1M43 23h1M7 24h4M15 24h1M19 24h1M36 24h2M43 24h2M5 25h2M8 25h2M15 25h1M36 25h1M44 25h1M3 26h1M5 26h2M8 26h1M17 26h1M27 26h1M35 26h2M44 26h2M47 26h2M0 27h1M2 27h3M18 27h1M26 27h1M34 27h3M43 27h4M48 27h2M25 28h11M44 28h3M2 29h2M26 29h10M43 29h4M26 30h9M43 30h3M23 31h2M26 31h6M42 31h2M18 32h1M21 32h4M26 32h4M18 33h6M18 34h4M39 36h1M38 37h3M38 38h3M25 39h1M36 39h5M25 40h2M29 40h1M31 40h1M34 40h8M24 41h18M25 42h18M27 43h17M28 44h17M29 45h17M29 46h17M28 47h3M38 47h9M27 48h3M36 48h2M42 48h5M19 49h1M26 49h2M38 49h1M44 49h2M19 50h2M25 50h5M39 50h1M45 50h1M47 50h1M20 51h7M28 51h3M38 51h1M44 51h1M46 51h3M22 52h4M27 52h4M39 52h2M45 52h4M20 53h1M26 53h4M39 53h8M20 54h10M40 54h4M47 54h1M23 55h6M41 55h1M25 56h4M26 57h2" />
<path stroke="#706880" d="M43 18h1M40 20h1M44 21h1M45 23h1M42 24h1M42 25h1M46 25h1M15 26h1M14 27h1M42 27h1M15 28h1M47 28h1M16 29h1M14 31h1M51 31h1M16 32h1M36 32h1M16 34h1M37 34h2M15 35h1M30 35h1M21 36h1M30 36h1M38 36h1M21 37h1M25 37h1M31 37h1M35 37h1M29 38h1M35 38h1M26 39h1M30 40h1M32 40h1" />
<path stroke="#d0c0d8" d="M40 21h1M39 22h3M39 23h2M39 24h3M38 25h4M38 26h1M42 26h1M38 27h1M37 28h6M37 29h2M36 30h2M55 30h1M35 31h2M54 31h1M32 32h4M37 32h1M40 32h1M58 32h1M30 33h7M38 33h3M59 33h1M24 34h13M39 34h1M59 34h1M22 35h8M31 35h4M59 35h1M19 36h2M22 36h8M31 36h2M35 36h1M57 36h2M19 37h1M22 37h3M26 37h4M32 37h1M23 38h2M26 38h3M56 38h1M23 39h1M27 39h2M30 39h1" />
<path stroke="#f8f8f8" d="M18 22h2M19 23h1M20 24h1M29 26h1M31 26h1M39 26h3M15 27h2M28 27h5M39 27h3M16 28h1M15 29h1M17 29h1M39 29h3M16 30h1M38 30h4M15 31h2M37 31h4M15 32h1M38 32h2M16 33h1M53 33h1M53 34h1M16 35h2M35 35h3M53 35h1M18 36h1M33 36h2M36 36h2M30 37h1M33 37h2M36 37h1M54 37h1M30 38h1M32 38h3M32 39h2" />
<path stroke="#606060" d="M42 29h1M56 29h3M42 30h1M54 30h1M59 30h1M41 31h1M61 32h1M52 33h1M54 33h1M57 33h1M52 34h1M56 34h1M58 34h1M52 35h1M56 35h2M53 36h1M61 36h1M55 38h1M59 38h1M56 39h1" />
<path stroke="#989898" d="M56 30h3M55 31h6M55 32h3M59 32h2M58 33h1M60 33h2M54 34h2M60 34h2M54 35h2M58 35h1M60 35h2M54 36h3M59 36h2M55 37h6M57 38h2" />
</svg>