<svg xmlns="http://www.w3.org/2000/svg" viewBox="0 -0.5 32 32" shape-rendering="crispEdges">
<metadata>Made with Pixels to Svg https://codepen.io/shshaw/pen/XbxvNj</metadata>
<path stroke="#ffffff" d="M0 0h32M0 1h32M0 2h32M0 3h32M0 4h32M0 5h19M20 5h12M0 6h18M20 6h12M0 7h17M18 7h1M21 7h11M0 8h16M18 8h1M21 8h11M0 9h15M22 9h10M0 10h14M15 10h2M23 10h9M0 11h13M14 11h5M24 11h8M0 12h12M13 12h6M23 12h1M25 12h7M0 13h12M14 13h5M25 13h7M0 14h12M15 14h3M25 14h7M0 15h12M25 15h7M0 16h12M25 16h7M0 17h12M24 17h1M26 17h6M0 18h13M26 18h6M0 19h14M26 19h6M0 20h15M22 20h1M25 20h7M0 21h14M16 21h1M19 21h3M23 21h9M0 22h14M19 22h3M23 22h9M0 23h15M18 23h3M22 23h10M0 24h14M21 24h11M0 25h6M7 25h6M15 25h1M18 25h3M22 25h10M0 26h5M6 26h1M8 26h4M17 26h4M22 26h10M0 27h5M6 27h1M8 27h3M13 27h1M17 27h3M21 27h11M0 28h32M0 29h32M0 30h32M0 31h32" />
<path stroke="#313131" d="M19 5h1M18 6h2M17 7h1M20 7h1M16 8h1M20 8h1M15 9h3M20 9h2M14 10h1M18 10h2M22 10h1M13 11h1M22 12h1M12 13h1M22 13h2M12 14h1M24 14h1M12 15h1M24 15h1M12 16h1M24 16h1M23 17h1M25 17h1M13 18h1M22 18h1M25 18h1M14 19h1M22 19h1M25 19h1M15 20h7M23 20h2M14 21h1M22 21h1M14 22h1M16 22h1M22 22h1M15 23h1M21 23h1M14 24h1M16 24h5M6 25h1M13 25h1M21 25h1M5 26h1M7 26h1M12 26h2M15 26h1M21 26h1M5 27h1M11 27h1M14 27h1M20 27h1" />
<path stroke="#e6bd4a" d="M19 7h1M17 8h1M22 11h2M12 12h1M21 12h1M24 12h1M21 13h1M24 13h1M22 14h2M12 17h1M23 18h2M21 19h1M23 19h2M15 21h1M17 21h1M15 22h1M15 24h1M14 25h1M16 25h1M14 26h1M7 27h1M12 27h1" />
<path stroke="#ffff9c" d="M19 8h1M18 9h2M17 10h1M20 10h2M19 11h3M19 12h2M13 13h1M19 13h2M13 14h2M18 14h4M13 15h11M13 16h11M13 17h10M14 18h8M15 19h6M18 21h1M17 22h2M16 23h2M17 25h1M16 26h1M15 27h2" />
</svg>