<svg xmlns="http://www.w3.org/2000/svg" viewBox="0 -0.5 32 32" shape-rendering="crispEdges">
<metadata>Made with Pixels to Svg https://codepen.io/shshaw/pen/XbxvNj</metadata>
<path stroke="#ffffff" d="M0 0h32M0 1h32M0 2h32M0 3h32M0 4h32M0 5h32M0 6h32M0 7h32M0 8h32M0 9h32M0 10h32M0 11h32M0 12h12M17 12h15M0 13h10M13 13h4M19 13h13M0 14h9M12 14h7M20 14h12M0 15h8M11 15h9M21 15h1M26 15h6M0 16h7M10 16h11M22 16h4M27 16h5M0 17h6M11 17h11M23 17h2M26 17h1M28 17h4M0 18h5M12 18h8M22 18h1M25 18h1M28 18h4M0 19h5M13 19h6M20 19h2M28 19h4M0 20h5M14 20h4M19 20h1M22 20h1M28 20h4M0 21h6M15 21h2M19 21h1M22 21h1M27 21h5M0 22h7M20 22h2M26 22h6M0 23h4M25 23h7M0 24h3M24 24h8M0 25h2M23 25h9M0 26h1M22 26h10M21 27h11M0 28h1M20 28h12M0 29h32M0 30h32M0 31h32" />
<path stroke="#848473" d="M12 12h1M14 12h3M10 13h1M12 13h1M17 13h2M9 14h3M19 14h1M9 15h2M20 15h1M22 15h4M8 16h2M21 16h1M26 16h1M7 17h1M22 17h1M25 17h1M27 17h1M6 18h1M20 18h2M23 18h2M26 18h2M19 19h1M22 19h6M18 20h1M23 20h1M25 20h3M17 21h2M23 21h1M25 21h2M16 22h1M19 22h1M22 22h1M25 22h1M4 23h1M15 23h1M20 23h2M24 23h1M3 24h1M6 24h3M15 24h1M23 24h1M2 25h1M7 25h3M14 25h1M22 25h1M1 26h1M8 26h3M14 26h1M21 26h1M0 27h1M9 27h3M20 27h1M10 28h5M19 28h1" />
<path stroke="#313131" d="M13 12h1M11 13h1M8 15h1M7 16h1M6 17h1M5 18h1M5 19h1M5 20h1M20 20h2M6 21h1M20 21h2M7 22h1M5 23h4M9 24h1M10 25h1M11 26h1M12 27h3M15 28h4" />
<path stroke="#cece94" d="M8 17h3M7 18h5M6 19h7M6 20h8M24 20h1M7 21h8M24 21h1M8 22h8M17 22h2M23 22h2M9 23h6M16 23h4M22 23h2M4 24h2M10 24h5M16 24h7M3 25h4M11 25h3M15 25h7M2 26h6M12 26h2M15 26h6M1 27h8M15 27h5M1 28h9" />
</svg>