<svg xmlns="http://www.w3.org/2000/svg" viewBox="0 -0.5 40 40" shape-rendering="crispEdges">
<metadata>Made with Pixels to Svg https://codepen.io/shshaw/pen/XbxvNj</metadata>
<path stroke="#ffffff" d="M0 0h40M0 1h40M0 2h40M0 3h20M22 3h18M0 4h19M20 4h2M23 4h17M0 5h18M19 5h2M24 5h16M0 6h18M19 6h1M24 6h16M0 7h17M18 7h2M25 7h15M0 8h17M18 8h1M25 8h15M0 9h16M17 9h2M26 9h14M0 10h16M17 10h1M26 10h14M0 11h15M16 11h2M27 11h13M0 12h15M16 12h2M22 12h1M28 12h12M0 13h14M17 13h1M22 13h1M29 13h11M0 14h14M23 14h3M31 14h9M0 15h14M15 15h1M32 15h8M0 16h13M18 16h1M34 16h6M0 17h13M18 17h1M35 17h5M0 18h12M17 18h2M35 18h5M0 19h12M17 19h2M34 19h6M0 20h13M18 20h1M33 20h7M0 21h15M31 21h9M0 22h16M31 22h9M0 23h16M31 23h9M0 24h16M31 24h9M0 25h17M31 25h9M0 26h17M31 26h9M0 27h17M30 27h10M0 28h17M30 28h10M0 29h8M10 29h6M30 29h10M0 30h7M8 30h1M11 30h4M29 30h11M0 31h7M9 31h1M16 31h2M29 31h11M0 32h7M9 32h2M16 32h1M28 32h12M0 33h8M10 33h2M13 33h2M27 33h13M0 34h8M26 34h14M0 35h9M25 35h15M0 36h11M24 36h16M0 37h12M21 37h19M0 38h40M0 39h40" />
<path stroke="#c57300" d="M20 3h1M18 5h1M17 7h1M23 7h1M22 8h2M16 9h1M22 9h3M22 10h1M23 11h1M25 13h2M15 14h1M27 14h2M18 15h1M26 15h3M17 16h1M23 16h7M16 17h1M24 17h7M14 18h2M24 18h8M14 19h2M24 19h9M15 20h1M17 20h1M25 20h6M16 21h1M25 21h4M25 22h3M29 22h1M25 23h5M25 24h5M25 25h5M24 26h7M24 27h6M24 28h5M8 29h2M19 29h1M23 29h7M7 30h1M17 30h1M23 30h5M22 31h7M8 32h1M13 32h1M15 32h1M21 32h5M12 33h1M15 33h1M19 33h3M9 34h1M17 34h4M22 34h3M10 35h2M13 35h4M19 35h1M21 35h2M12 36h1M14 36h5M23 36h1M20 37h1" />
<path stroke="#000000" d="M21 3h1M19 4h1M22 4h1M23 5h1M18 6h1M23 6h1M24 7h1M17 8h1M24 8h1M25 9h1M16 10h1M23 10h3M15 11h1M22 11h1M26 11h1M15 12h1M21 12h1M23 12h2M27 12h1M14 13h1M16 13h1M20 13h2M23 13h2M27 13h2M14 14h1M17 14h1M19 14h1M22 14h1M26 14h1M29 14h2M14 15h1M23 15h3M31 15h1M13 16h1M15 16h1M19 16h1M32 16h2M13 17h1M15 17h1M17 17h1M20 17h1M34 17h1M12 18h1M16 18h1M21 18h1M34 18h1M12 19h1M16 19h1M22 19h1M33 19h1M13 20h2M16 20h1M22 20h1M31 20h2M15 21h1M17 21h1M21 21h1M29 21h2M16 22h2M21 22h1M28 22h1M30 22h1M16 23h1M18 23h1M20 23h1M30 23h1M16 24h1M19 24h1M30 24h1M17 25h1M19 25h1M30 25h1M17 26h1M20 26h1M17 27h1M20 27h1M17 28h1M20 28h1M29 28h1M16 29h2M10 30h1M15 30h1M19 30h1M28 30h1M7 31h1M11 31h5M18 31h1M7 32h1M19 32h2M26 32h2M8 33h1M22 33h5M8 34h1M12 34h1M16 34h1M21 34h1M25 34h1M9 35h1M12 35h1M17 35h2M20 35h1M23 35h2M11 36h1M13 36h1M19 36h4M12 37h8" />
<path stroke="#e69c6b" d="M21 5h2M20 6h3M20 7h3M19 8h3M19 9h3M18 10h4M18 11h4M24 11h2M18 12h3M25 12h2M15 13h1M18 13h2M16 14h1M18 14h1M20 14h2M16 15h2M19 15h4M29 15h2M14 16h1M16 16h1M20 16h3M30 16h2M14 17h1M19 17h1M21 17h3M31 17h3M13 18h1M19 18h2M22 18h2M32 18h2M13 19h1M19 19h3M23 19h1M19 20h3M23 20h2M18 21h3M22 21h3M18 22h3M22 22h3M17 23h1M19 23h1M21 23h4M17 24h2M20 24h5M18 25h1M20 25h5M18 26h2M21 26h3M18 27h2M21 27h3M18 28h2M21 28h3M18 29h1M20 29h3M9 30h1M16 30h1M18 30h1M20 30h3M8 31h1M10 31h1M19 31h3M11 32h2M14 32h1M17 32h2M9 33h1M16 33h3M10 34h2M13 34h3" />
</svg>