<svg xmlns="http://www.w3.org/2000/svg" viewBox="0 -0.5 48 48" shape-rendering="crispEdges">
<metadata>Made with Pixels to Svg https://codepen.io/shshaw/pen/XbxvNj</metadata>
<path stroke="#ffffff" d="M0 0h48M0 1h48M0 2h35M36 2h8M46 2h2M0 3h34M35 3h1M37 3h5M44 3h2M47 3h1M0 4h34M35 4h1M37 4h3M42 4h3M46 4h2M0 5h34M35 5h2M40 5h5M46 5h2M0 6h19M27 6h1M31 6h2M34 6h3M39 6h5M45 6h3M0 7h16M19 7h1M21 7h5M32 7h1M34 7h3M38 7h6M45 7h3M0 8h14M20 8h5M26 8h1M34 8h3M38 8h5M44 8h4M0 9h13M14 9h2M19 9h1M21 9h1M23 9h1M25 9h1M27 9h1M33 9h10M44 9h4M0 10h12M13 10h4M20 10h1M22 10h1M24 10h1M26 10h1M34 10h8M43 10h1M46 10h2M0 11h8M11 11h1M15 11h3M23 11h1M25 11h1M34 11h7M42 11h4M47 11h1M0 12h6M8 12h3M16 12h2M35 12h10M46 12h2M0 13h5M6 13h2M11 13h1M16 13h2M24 13h3M36 13h7M45 13h3M0 14h5M6 14h1M8 14h3M16 14h2M23 14h5M37 14h4M43 14h5M0 15h4M5 15h2M8 15h2M16 15h2M22 15h6M37 15h1M41 15h7M0 16h4M5 16h1M7 16h2M15 16h2M22 16h2M25 16h3M40 16h8M0 17h4M5 17h1M7 17h1M14 17h3M22 17h6M40 17h8M0 18h4M5 18h1M7 18h1M9 18h1M13 18h3M22 18h5M40 18h8M0 19h4M5 19h1M7 19h1M9 19h6M23 19h3M40 19h8M0 20h3M4 20h2M7 20h2M10 20h3M19 20h1M40 20h8M0 21h3M4 21h1M6 21h3M19 21h1M40 21h8M0 22h1M3 22h2M6 22h3M19 22h1M40 22h8M1 23h3M5 23h4M18 23h2M39 23h9M0 24h1M4 24h6M18 24h1M39 24h9M0 25h10M17 25h2M39 25h9M0 26h11M16 26h2M38 26h10M0 27h11M15 27h2M25 27h3M38 27h10M0 28h12M15 28h1M23 28h2M27 28h3M37 28h11M0 29h12M13 29h1M15 29h1M24 29h3M28 29h3M36 29h12M0 30h11M12 30h2M15 30h2M23 30h1M25 30h3M29 30h3M38 30h10M0 31h11M12 31h3M16 31h2M24 31h1M26 31h3M30 31h3M40 31h8M0 32h10M11 32h2M14 32h2M17 32h2M24 32h1M26 32h4M31 32h3M41 32h7M0 33h10M11 33h1M14 33h3M19 33h2M24 33h2M27 33h3M31 33h4M42 33h6M0 34h11M12 34h1M14 34h4M19 34h4M24 34h2M27 34h4M38 34h1M43 34h5M0 35h13M14 35h1M16 35h2M19 35h5M25 35h1M27 35h2M35 35h1M39 35h2M44 35h4M0 36h13M14 36h1M17 36h1M19 36h5M25 36h2M32 36h1M34 36h1M36 36h1M38 36h4M45 36h3M0 37h14M15 37h2M18 37h6M25 37h1M27 37h2M31 37h1M33 37h1M35 37h1M37 37h1M39 37h3M45 37h3M0 38h24M26 38h2M32 38h1M35 38h3M39 38h4M46 38h2M0 39h28M31 39h3M35 39h3M39 39h1M46 39h2M0 40h28M30 40h4M35 40h2M40 40h4M45 40h3M0 41h27M30 41h4M37 41h11M0 42h27M30 42h3M35 42h13M0 43h27M29 43h2M33 43h15M0 44h27M29 44h1M31 44h17M0 45h27M30 45h18M0 46h27M30 46h18M0 47h28M29 47h19" />
<path stroke="#000000" d="M35 2h1M44 2h2M34 3h1M36 3h1M42 3h2M46 3h1M34 4h1M36 4h1M40 4h2M45 4h1M34 5h1M37 5h3M45 5h1M21 6h5M29 6h2M33 6h1M44 6h1M17 7h2M31 7h1M33 7h1M44 7h1M15 8h2M29 8h1M33 8h1M43 8h1M13 9h1M16 9h1M32 9h1M43 9h1M12 10h1M17 10h1M33 10h1M42 10h1M44 10h2M9 11h2M12 11h2M33 11h1M41 11h1M46 11h1M7 12h1M11 12h1M13 12h2M18 12h1M25 12h2M33 12h2M45 12h1M9 13h2M13 13h3M18 13h1M23 13h1M27 13h1M33 13h1M35 13h1M43 13h2M5 14h1M7 14h1M11 14h5M18 14h1M33 14h1M36 14h1M41 14h2M7 15h1M10 15h5M28 15h1M32 15h1M36 15h1M38 15h3M4 16h1M6 16h1M9 16h2M14 16h1M17 16h1M21 16h1M24 16h1M28 16h1M32 16h1M36 16h2M39 16h1M4 17h1M6 17h1M8 17h1M10 17h1M13 17h1M21 17h1M32 17h1M36 17h1M39 17h1M4 18h1M6 18h1M8 18h1M10 18h3M16 18h1M21 18h1M27 18h1M31 18h1M35 18h1M39 18h1M4 19h1M6 19h1M8 19h1M15 19h1M22 19h1M26 19h1M31 19h1M35 19h1M39 19h1M9 20h1M13 20h1M18 20h1M20 20h1M24 20h2M31 20h1M39 20h1M3 21h1M5 21h1M10 21h2M18 21h1M20 21h1M30 21h1M32 21h1M34 21h1M39 21h1M1 22h2M9 22h1M18 22h1M20 22h1M29 22h1M33 22h1M39 22h1M0 23h1M4 23h1M28 23h1M33 23h1M38 23h1M1 24h3M10 24h1M17 24h1M19 24h1M25 24h4M32 24h1M38 24h1M16 25h1M29 25h3M38 25h1M11 26h1M15 26h1M18 26h1M27 26h1M31 26h1M37 26h1M12 27h1M17 27h1M29 27h1M32 27h1M37 27h1M12 28h3M16 28h1M22 28h1M30 28h1M33 28h1M36 28h1M12 29h1M14 29h1M16 29h1M21 29h2M31 29h1M34 29h2M14 30h1M17 30h1M19 30h2M22 30h1M35 30h3M11 31h1M15 31h1M18 31h2M23 31h1M36 31h1M38 31h2M16 32h1M19 32h2M23 32h1M37 32h1M40 32h1M10 33h1M12 33h1M17 33h2M21 33h3M37 33h1M41 33h1M11 34h1M13 34h1M18 34h1M23 34h1M32 34h4M37 34h1M42 34h1M13 35h1M15 35h1M18 35h1M24 35h1M30 35h2M36 35h1M43 35h1M13 36h1M15 36h2M18 36h1M24 36h1M27 36h1M29 36h2M14 37h1M17 37h1M24 37h1M26 37h1M29 37h1M44 37h1M24 38h2M28 38h1M28 39h1M40 39h4M45 39h1M28 40h1M37 40h2M44 40h1M35 41h1M27 42h1M33 42h1M27 43h1M31 43h2M27 44h1M30 44h1M27 45h1M29 45h1M27 46h1M29 46h1M28 47h1" />
<path stroke="#848400" d="M19 6h2M26 6h1M28 6h1M37 6h1M16 7h1M27 7h2M37 7h1M14 8h1M8 11h1M18 11h1M6 12h1M24 12h1M5 13h1M22 14h1M28 14h1M4 15h1M18 15h1M21 15h1M17 17h1M28 17h1M38 18h1M18 19h2M38 19h1M3 20h1M6 20h1M14 20h1M23 20h1M30 20h1M35 20h1M38 20h1M12 21h2M31 21h1M33 21h1M38 21h1M5 22h1M13 22h1M30 22h1M32 22h1M34 22h1M36 22h2M9 23h1M13 23h1M17 23h1M20 23h1M29 23h1M31 23h1M35 23h1M37 23h1M11 24h3M30 24h1M34 24h1M36 24h1M10 25h1M14 25h1M19 25h1M32 25h2M35 25h3M14 26h1M24 26h3M32 26h5M11 27h1M14 27h1M23 27h1M28 27h1M33 27h4M34 28h2M11 30h1M18 30h1M21 30h1M32 30h1M20 31h3M33 31h1M37 31h1M10 32h1M13 32h1M21 32h2M34 32h1M38 32h2M13 33h1M35 33h1M39 33h2M31 34h1M40 34h2M29 35h1M33 35h1M37 35h1M28 36h1M31 36h1M33 36h1M37 36h1M44 36h1M30 37h1M34 37h1M38 37h1M30 38h1M34 38h1M38 38h1M45 38h1M30 39h1M29 40h1M39 40h1M27 41h1M29 41h1M36 41h1M29 42h1M34 42h1M28 43h1M28 44h1M28 45h1M28 46h1" />
<path stroke="#cec500" d="M38 6h1M20 7h1M26 7h1M29 7h2M17 8h3M25 8h1M27 8h2M30 8h3M37 8h1M17 9h2M20 9h1M22 9h1M24 9h1M26 9h1M28 9h4M18 10h2M21 10h1M23 10h1M25 10h1M27 10h6M14 11h1M19 11h4M24 11h1M26 11h7M12 12h1M15 12h1M19 12h5M27 12h6M8 13h1M12 13h1M19 13h4M28 13h5M34 13h1M19 14h3M29 14h4M34 14h2M15 15h1M19 15h2M29 15h3M33 15h3M11 16h3M18 16h3M29 16h3M33 16h3M38 16h1M9 17h1M11 17h2M18 17h3M29 17h3M33 17h3M37 17h2M17 18h4M28 18h3M32 18h3M36 18h2M16 19h2M20 19h2M27 19h4M32 19h3M36 19h2M15 20h3M21 20h2M26 20h4M32 20h3M36 20h2M9 21h1M14 21h4M21 21h9M35 21h3M10 22h3M14 22h4M21 22h8M31 22h1M35 22h1M38 22h1M10 23h3M14 23h3M21 23h7M30 23h1M32 23h1M34 23h1M36 23h1M14 24h3M20 24h5M29 24h1M31 24h1M33 24h1M35 24h1M37 24h1M11 25h3M15 25h1M20 25h9M34 25h1M12 26h2M19 26h5M28 26h3M13 27h1M18 27h5M24 27h1M30 27h2M17 28h5M25 28h2M31 28h2M17 29h4M23 29h1M27 29h1M32 29h2M24 30h1M28 30h1M33 30h2M25 31h1M29 31h1M34 31h2M25 32h1M30 32h1M35 32h2M26 33h1M30 33h1M36 33h1M38 33h1M26 34h1M36 34h1M39 34h1M26 35h1M32 35h1M34 35h1M38 35h1M41 35h2M35 36h1M42 36h2M32 37h1M36 37h1M42 37h2M29 38h1M31 38h1M33 38h1M43 38h2M29 39h1M34 39h1M38 39h1M44 39h1M34 40h1M28 41h1M34 41h1M28 42h1" />
</svg>