<svg xmlns="http://www.w3.org/2000/svg" viewBox="0 -0.5 40 40" shape-rendering="crispEdges">
<metadata>Made with Pixels to Svg https://codepen.io/shshaw/pen/XbxvNj</metadata>
<path stroke="#ffffff" d="M0 0h40M0 1h40M0 2h40M0 3h40M0 4h40M0 5h40M0 6h40M0 7h40M0 8h40M0 9h40M0 10h40M0 11h40M0 12h40M0 13h40M0 14h16M19 14h21M0 15h15M16 15h2M20 15h20M0 16h15M16 16h2M21 16h19M0 17h7M10 17h3M16 17h1M23 17h17M0 18h6M29 18h11M0 19h5M6 19h2M30 19h10M0 20h5M6 20h1M30 20h10M0 21h5M29 21h11M0 22h5M28 22h2M35 22h5M0 23h5M36 23h4M0 24h6M37 24h3M0 25h6M37 25h3M0 26h6M38 26h2M0 27h5M38 27h2M0 28h5M6 28h1M38 28h2M0 29h4M5 29h2M37 29h3M0 30h4M5 30h1M36 30h4M0 31h4M34 31h6M0 32h5M34 32h6M0 33h6M8 33h2M33 33h7M0 34h11M17 34h5M33 34h7M0 35h13M16 35h9M32 35h8M0 36h27M30 36h10M0 37h40M0 38h40M0 39h40" />
<path stroke="#4a63de" d="M16 14h1M15 15h1M18 16h2M7 17h1M18 17h3M8 18h2M19 18h4M28 18h1M5 19h1M9 19h3M20 19h3M29 19h1M26 22h1M25 23h2M24 24h3M35 24h1M24 25h4M29 25h1M34 25h2M14 26h1M18 26h1M25 26h4M34 26h3M5 27h1M10 27h1M27 27h1M29 27h1M31 27h1M33 27h4M28 28h1M30 28h1M32 28h5M4 29h1M27 29h1M29 29h7M25 30h8M21 31h11M10 32h2M16 32h15M32 32h1M11 33h6M22 33h4M27 33h1M29 33h1M31 33h1M13 34h3M26 34h1M28 34h1M30 34h1M27 35h1M29 35h1" />
<path stroke="#000000" d="M17 14h2M19 15h1M15 16h1M20 16h1M8 17h2M13 17h2M21 17h2M6 18h1M10 18h3M23 18h5M5 20h1M29 20h1M5 21h1M28 21h1M5 22h1M27 22h1M30 22h5M5 23h1M16 23h1M27 23h3M35 23h1M6 24h1M9 24h1M27 24h1M36 24h1M6 25h1M28 25h1M36 25h1M6 26h1M15 26h3M37 26h1M11 27h4M37 27h1M5 28h1M37 28h1M36 29h1M4 30h1M34 30h2M4 31h1M33 31h1M5 32h1M8 32h2M33 32h1M6 33h2M10 33h1M17 33h5M32 33h1M11 34h2M16 34h1M22 34h3M32 34h1M13 35h3M25 35h2M30 35h2M27 36h3" />
<path stroke="#8cb5e6" d="M18 15h1M15 17h1M17 17h1M7 18h1M13 18h6M8 19h1M12 19h8M23 19h6M7 20h22M6 21h22M6 22h20M6 23h10M17 23h8M30 23h5M7 24h2M10 24h14M28 24h7M7 25h17M30 25h4M7 26h7M19 26h6M29 26h5M6 27h4M15 27h12M28 27h1M30 27h1M32 27h1M7 28h21M29 28h1M31 28h1M7 29h20M28 29h1M6 30h19M33 30h1M5 31h16M32 31h1M6 32h2M12 32h4M31 32h1M26 33h1M28 33h1M30 33h1M25 34h1M27 34h1M29 34h1M31 34h1M28 35h1" />
</svg>