<svg xmlns="http://www.w3.org/2000/svg" viewBox="0 -0.5 48 48" shape-rendering="crispEdges">
<metadata>Made with Pixels to Svg https://codepen.io/shshaw/pen/XbxvNj</metadata>
<path stroke="#ffffff" d="M0 0h48M0 1h48M0 2h48M0 3h48M0 4h48M0 5h48M0 6h18M23 6h25M0 7h14M18 7h2M22 7h1M25 7h23M0 8h10M14 8h4M20 8h2M24 8h1M27 8h21M0 9h5M10 9h7M18 9h6M25 9h2M29 9h19M0 10h2M5 10h9M15 10h2M18 10h2M21 10h4M26 10h1M30 10h18M0 11h1M2 11h7M10 11h1M12 11h1M14 11h1M16 11h2M19 11h6M26 11h2M31 11h17M0 12h1M2 12h4M7 12h1M9 12h1M11 12h1M13 12h1M15 12h1M17 12h2M20 12h4M25 12h3M32 12h16M0 13h1M14 13h1M16 13h1M18 13h2M24 13h5M33 13h15M0 14h2M25 14h4M34 14h14M0 15h4M34 15h8M44 15h4M0 16h6M34 16h7M42 16h1M45 16h3M0 17h9M33 17h8M42 17h1M45 17h3M0 18h12M32 18h8M41 18h1M44 18h4M0 19h15M30 19h9M40 19h2M44 19h4M0 20h17M28 20h11M40 20h1M44 20h4M0 21h18M26 21h12M39 21h2M43 21h5M0 22h16M18 22h4M27 22h10M38 22h2M43 22h5M0 23h14M16 23h3M20 23h1M22 23h1M25 23h1M28 23h9M43 23h5M0 24h12M14 24h4M19 24h1M21 24h1M23 24h1M25 24h3M29 24h7M42 24h6M0 25h10M12 25h5M18 25h1M20 25h1M22 25h1M25 25h4M31 25h4M42 25h6M0 26h9M10 26h1M12 26h1M14 26h1M19 26h1M21 26h1M23 26h1M25 26h6M32 26h3M42 26h6M0 27h9M11 27h1M13 27h1M25 27h7M41 27h7M0 28h10M12 28h1M14 28h1M27 28h5M41 28h7M0 29h10M11 29h1M13 29h1M30 29h2M41 29h7M0 30h11M12 30h1M14 30h1M40 30h8M0 31h11M13 31h1M15 31h1M40 31h8M0 32h9M11 32h1M14 32h1M33 32h3M40 32h8M0 33h8M9 33h3M13 33h1M15 33h1M32 33h5M38 33h1M42 33h6M0 34h7M8 34h5M14 34h1M31 34h1M33 34h5M39 34h1M44 34h4M0 35h6M7 35h4M12 35h1M15 35h1M30 35h1M32 35h1M34 35h1M36 35h3M46 35h2M0 36h5M7 36h1M9 36h1M11 36h1M29 36h1M31 36h1M33 36h1M35 36h1M37 36h1M47 36h1M0 37h4M6 37h1M8 37h1M10 37h1M28 37h1M30 37h1M32 37h1M34 37h1M36 37h1M47 37h1M0 38h3M5 38h1M7 38h1M9 38h1M29 38h1M31 38h1M33 38h1M35 38h1M46 38h2M0 39h3M32 39h1M34 39h1M45 39h3M0 40h4M17 40h8M33 40h1M44 40h4M0 41h6M14 41h12M42 41h6M0 42h8M11 42h16M40 42h8M0 43h29M37 43h11M0 44h31M34 44h14M0 45h48M0 46h48M0 47h48" />
<path stroke="#7319de" d="M18 6h2M14 7h3M27 10h2M28 11h2M28 12h3M29 13h3M19 14h6M29 14h4M18 15h15M17 16h16M16 17h16M15 18h15M17 19h11M20 20h6M16 22h1M14 23h1M12 24h1M10 25h1M24 28h3M32 28h1M24 29h6M32 29h2M24 30h10M23 31h10M23 32h9M23 33h8M39 33h1M22 34h8M40 34h2M22 35h7M42 35h2M22 36h6M44 36h2M26 37h1" />
<path stroke="#000000" d="M20 6h3M23 7h2M25 8h2M27 9h2M17 10h1M20 10h1M25 10h1M29 10h1M18 11h1M25 11h1M30 11h1M19 12h1M24 12h1M31 12h1M1 13h1M20 13h2M23 13h1M32 13h1M2 14h2M33 14h1M4 15h2M33 15h1M6 16h3M33 16h1M44 16h1M9 17h3M32 17h1M44 17h1M12 18h3M30 18h2M43 18h1M15 19h2M28 19h2M43 19h1M17 20h3M26 20h2M43 20h1M18 21h8M42 21h1M23 22h4M42 22h1M37 23h1M42 23h1M36 24h1M41 24h1M35 25h1M41 25h1M9 26h1M35 26h1M41 26h1M9 27h1M32 27h3M40 27h1M10 28h1M33 28h1M40 28h1M10 29h1M34 29h1M40 29h1M11 30h1M34 30h1M39 30h1M11 31h1M33 31h4M39 31h1M12 32h1M32 32h1M37 32h3M12 33h1M31 33h1M40 33h2M13 34h1M42 34h2M13 35h1M44 35h2M14 36h1M17 36h4M46 36h1M15 37h10M27 37h1M46 37h1M18 38h9M45 38h1M3 39h1M17 39h3M22 39h4M44 39h1M4 40h2M14 40h3M25 40h1M42 40h2M6 41h2M11 41h3M26 41h1M40 41h2M8 42h3M27 42h2M37 42h3M29 43h2M34 43h3M31 44h3" />
<path stroke="#635ace" d="M17 7h1M20 7h2M10 8h4M18 8h2M22 8h2M5 9h5M17 9h1M24 9h1M2 10h3M14 10h1M1 11h1M9 11h1M11 11h1M13 11h1M15 11h1M1 12h1M6 12h1M8 12h1M10 12h1M12 12h1M14 12h1M16 12h1M2 13h12M15 13h1M17 13h1M22 13h1M4 14h15M6 15h12M42 15h2M9 16h8M41 16h1M43 16h1M12 17h4M41 17h1M43 17h1M40 18h1M42 18h1M39 19h1M42 19h1M39 20h1M41 20h2M38 21h1M41 21h1M17 22h1M22 22h1M37 22h1M40 22h2M15 23h1M19 23h1M21 23h1M23 23h2M26 23h2M38 23h4M13 24h1M18 24h1M20 24h1M22 24h1M24 24h1M28 24h1M37 24h4M11 25h1M17 25h1M19 25h1M21 25h1M23 25h2M29 25h2M36 25h5M11 26h1M13 26h1M15 26h4M20 26h1M22 26h1M24 26h1M31 26h1M36 26h5M10 27h1M12 27h1M14 27h11M35 27h5M11 28h1M13 28h1M15 28h9M34 28h6M12 29h1M14 29h10M35 29h5M13 30h1M15 30h9M35 30h4M12 31h1M14 31h1M16 31h7M37 31h2M9 32h2M13 32h1M15 32h8M36 32h1M8 33h1M14 33h1M16 33h7M37 33h1M7 34h1M15 34h7M30 34h1M32 34h1M38 34h1M6 35h1M11 35h1M14 35h1M16 35h6M29 35h1M31 35h1M33 35h1M35 35h1M39 35h3M5 36h2M8 36h1M10 36h1M12 36h2M15 36h2M21 36h1M28 36h1M30 36h1M32 36h1M34 36h1M36 36h1M38 36h6M4 37h2M7 37h1M9 37h1M11 37h4M25 37h1M29 37h1M31 37h1M33 37h1M35 37h1M37 37h9M3 38h2M6 38h1M8 38h1M10 38h8M27 38h2M30 38h1M32 38h1M34 38h1M36 38h9M4 39h13M20 39h2M26 39h6M33 39h1M35 39h9M6 40h8M26 40h7M34 40h8M8 41h3M27 41h13M29 42h8M31 43h3" />
</svg>