<svg xmlns="http://www.w3.org/2000/svg" viewBox="0 -0.5 48 48" shape-rendering="crispEdges">
<metadata>Made with Pixels to Svg https://codepen.io/shshaw/pen/XbxvNj</metadata>
<path stroke="#ffffff" d="M0 0h25M28 0h20M0 1h25M28 1h20M0 2h10M12 2h12M27 2h21M0 3h10M12 3h12M27 3h21M0 4h9M12 4h11M27 4h21M0 5h9M12 5h11M26 5h22M0 6h8M11 6h7M26 6h22M0 7h8M11 7h5M27 7h21M0 8h7M11 8h4M28 8h20M0 9h7M12 9h2M29 9h19M0 10h8M29 10h19M0 11h9M30 11h18M0 12h11M30 12h18M0 13h12M30 13h18M0 14h11M24 14h1M30 14h18M0 15h11M23 15h2M30 15h18M0 16h11M23 16h1M30 16h3M36 16h12M0 17h11M30 17h2M33 17h3M37 17h11M0 18h12M13 18h1M29 18h3M33 18h4M38 18h10M0 19h9M11 19h2M29 19h2M34 19h4M39 19h9M0 20h8M9 20h2M12 20h1M28 20h3M34 20h4M39 20h9M0 21h7M8 21h4M13 21h1M27 21h5M35 21h3M39 21h9M0 22h6M7 22h4M14 22h2M26 22h2M31 22h1M38 22h10M0 23h6M7 23h3M14 23h3M38 23h10M0 24h6M7 24h2M15 24h1M37 24h11M0 25h7M39 25h9M0 26h8M12 26h1M40 26h8M0 27h11M20 27h1M35 27h3M41 27h7M0 28h8M16 28h1M19 28h2M22 28h1M31 28h1M33 28h1M35 28h4M42 28h6M0 29h7M8 29h3M15 29h1M17 29h1M19 29h2M22 29h1M36 29h3M43 29h5M0 30h6M7 30h3M14 30h1M19 30h2M37 30h2M43 30h5M0 31h6M7 31h3M19 31h2M32 31h1M37 31h1M44 31h4M0 32h6M7 32h2M20 32h1M31 32h1M33 32h1M39 32h1M44 32h4M0 33h7M14 33h1M16 33h1M18 33h1M30 33h1M32 33h1M34 33h1M36 33h1M38 33h1M40 33h1M44 33h4M0 34h8M13 34h1M15 34h1M17 34h1M19 34h1M31 34h1M33 34h1M35 34h1M37 34h1M39 34h1M44 34h4M0 35h9M12 35h1M14 35h1M16 35h1M18 35h1M28 35h1M30 35h1M32 35h1M34 35h1M36 35h1M38 35h1M40 35h1M44 35h4M0 36h9M13 36h1M15 36h1M17 36h1M22 36h1M28 36h2M31 36h1M33 36h1M35 36h1M37 36h1M39 36h1M44 36h4M0 37h10M16 37h1M21 37h5M28 37h3M32 37h1M34 37h1M36 37h1M38 37h1M43 37h5M0 38h11M20 38h6M29 38h3M35 38h1M37 38h1M42 38h6M0 39h13M15 39h1M20 39h7M32 39h2M40 39h8M0 40h15M21 40h7M33 40h15M0 41h14M21 41h7M34 41h14M0 42h14M20 42h8M34 42h14M0 43h13M20 43h8M35 43h13M0 44h13M19 44h9M35 44h13M0 45h13M18 45h10M35 45h13M0 46h14M17 46h12M34 46h14M0 47h30M33 47h15" />
<path stroke="#ff8c00" d="M25 0h1M10 2h1M24 2h1M9 4h1M11 5h1M24 5h1M21 6h1M23 6h3M18 7h4M24 7h1M9 8h1M16 8h1M19 8h2M25 8h2M8 9h3M15 9h1M20 9h1M25 9h3M9 10h1M14 10h3M19 10h2M24 10h4M14 11h15M13 12h3M18 12h11M13 13h2M19 13h4M26 13h3M11 14h1M13 14h2M19 14h3M23 14h1M27 14h2M13 15h2M19 15h3M13 16h3M18 16h3M24 16h1M11 17h1M14 17h7M23 17h1M14 18h7M26 18h1M14 19h7M15 20h6M24 20h1M14 21h1M17 21h3M25 23h1M28 23h3M19 24h1M23 24h1M25 24h2M9 25h1M16 25h4M22 25h1M26 25h1M34 25h3M22 26h1M32 26h3M38 26h1M13 27h2M21 27h1M27 27h2M39 27h1M11 28h4M21 28h1M40 28h1M12 29h2M21 29h1M40 29h2M21 30h1M28 30h2M41 30h1M21 31h1M28 31h2M41 31h2M22 32h1M27 32h2M42 32h1M8 33h1M22 33h1M27 33h2M42 33h1M23 34h1M26 34h2M42 34h1M10 35h1M22 35h5M42 35h1M10 36h2M21 36h1M42 36h1M11 37h2M17 37h1M41 37h1M13 38h2M16 40h1M19 40h1M31 40h1M15 41h5M28 41h1M32 41h1M15 42h4M32 42h1M16 43h3M29 43h5M16 44h2M29 44h1M32 44h2M14 45h3M29 45h1M32 45h2M30 46h3" />
<path stroke="#000000" d="M26 0h2M25 1h3M11 2h1M25 2h2M10 3h2M24 3h3M10 4h2M23 4h4M9 5h2M23 5h1M25 5h1M8 6h3M18 6h3M22 6h1M8 7h3M16 7h2M22 7h2M25 7h2M7 8h2M10 8h1M15 8h1M21 8h4M27 8h1M7 9h1M11 9h1M14 9h1M21 9h4M28 9h1M8 10h1M10 10h4M21 10h3M28 10h1M9 11h5M29 11h1M11 12h2M16 12h2M29 12h1M12 13h1M15 13h4M23 13h3M29 13h1M12 14h1M15 14h4M22 14h1M25 14h2M29 14h1M11 15h2M15 15h4M22 15h1M25 15h2M29 15h1M11 16h2M16 16h2M21 16h2M25 16h2M29 16h1M33 16h3M12 17h2M21 17h2M24 17h3M29 17h1M32 17h1M36 17h1M12 18h1M21 18h5M28 18h1M32 18h1M37 18h1M9 19h2M13 19h1M21 19h5M28 19h1M31 19h1M33 19h1M38 19h1M8 20h1M11 20h1M13 20h2M22 20h2M27 20h1M31 20h1M33 20h1M38 20h1M7 21h1M12 21h1M15 21h1M26 21h1M32 21h1M34 21h1M38 21h1M6 22h1M11 22h3M16 22h1M19 22h2M25 22h1M28 22h3M32 22h1M35 22h3M6 23h1M10 23h1M13 23h1M17 23h3M23 23h2M26 23h2M31 23h3M37 23h1M6 24h1M9 24h1M13 24h2M16 24h3M20 24h3M27 24h4M32 24h5M7 25h1M12 25h4M20 25h1M27 25h1M29 25h5M37 25h2M8 26h4M13 26h7M27 26h5M35 26h3M39 26h1M11 27h2M15 27h5M29 27h1M32 27h3M38 27h1M40 27h1M8 28h3M15 28h1M18 28h1M28 28h3M34 28h1M39 28h1M41 28h1M7 29h1M11 29h1M14 29h1M18 29h1M28 29h6M35 29h1M39 29h1M42 29h1M6 30h1M10 30h1M12 30h2M16 30h3M30 30h4M36 30h1M39 30h2M42 30h1M6 31h1M10 31h1M12 31h7M30 31h1M33 31h2M36 31h1M38 31h1M40 31h1M43 31h1M6 32h1M9 32h1M12 32h5M19 32h1M29 32h1M35 32h3M41 32h1M43 32h1M7 33h1M11 33h3M19 33h1M29 33h1M41 33h1M43 33h1M8 34h4M20 34h1M28 34h1M41 34h1M43 34h1M9 35h1M11 35h1M19 35h3M27 35h1M29 35h1M41 35h1M43 35h1M9 36h1M12 36h1M18 36h3M23 36h5M30 36h1M41 36h1M43 36h1M10 37h1M13 37h2M18 37h3M26 37h2M31 37h1M40 37h1M42 37h1M11 38h2M15 38h5M26 38h3M32 38h2M38 38h4M13 39h2M16 39h4M27 39h5M34 39h6M15 40h1M17 40h2M20 40h1M28 40h3M32 40h1M14 41h1M20 41h1M29 41h3M33 41h1M14 42h1M19 42h1M28 42h4M33 42h1M13 43h1M19 43h1M28 43h1M34 43h1M13 44h1M18 44h1M28 44h1M34 44h1M13 45h1M17 45h1M28 45h1M34 45h1M14 46h3M29 46h1M33 46h1M30 47h3" />
<path stroke="#ffd600" d="M17 8h2M16 9h4M17 10h2M27 15h2M27 16h2M27 17h2M27 18h1M26 19h2M32 19h1M21 20h1M25 20h2M32 20h1M16 21h1M20 21h6M33 21h1M17 22h2M21 22h4M33 22h2M11 23h2M20 23h3M34 23h3M10 24h3M24 24h1M31 24h1M8 25h1M10 25h2M21 25h1M23 25h3M28 25h1M20 26h2M23 26h4M22 27h5M30 27h2M17 28h1M23 28h5M32 28h1M16 29h1M23 29h5M34 29h1M11 30h1M15 30h1M22 30h6M34 30h2M11 31h1M22 31h6M31 31h1M35 31h1M39 31h1M10 32h2M17 32h2M21 32h1M23 32h4M30 32h1M32 32h1M34 32h1M38 32h1M40 32h1M9 33h2M15 33h1M17 33h1M20 33h2M23 33h4M31 33h1M33 33h1M35 33h1M37 33h1M39 33h1M12 34h1M14 34h1M16 34h1M18 34h1M21 34h2M24 34h2M29 34h2M32 34h1M34 34h1M36 34h1M38 34h1M40 34h1M13 35h1M15 35h1M17 35h1M31 35h1M33 35h1M35 35h1M37 35h1M39 35h1M14 36h1M16 36h1M32 36h1M34 36h1M36 36h1M38 36h1M40 36h1M15 37h1M33 37h1M35 37h1M37 37h1M39 37h1M34 38h1M36 38h1M14 43h2M14 44h2M30 44h2M30 45h2" />
</svg>