<svg xmlns="http://www.w3.org/2000/svg" viewBox="0 -0.5 40 40" shape-rendering="crispEdges">
<metadata>Made with Pixels to Svg https://codepen.io/shshaw/pen/XbxvNj</metadata>
<path stroke="#ffffff" d="M0 0h40M0 1h40M0 2h40M0 3h40M0 4h40M0 5h40M0 6h40M0 7h40M0 8h40M0 9h20M28 9h12M0 10h18M29 10h11M0 11h17M19 11h1M29 11h11M0 12h17M28 12h12M0 13h16M21 13h19M0 14h16M20 14h20M0 15h16M20 15h20M0 16h14M22 16h18M0 17h13M23 17h17M0 18h12M24 18h16M0 19h11M25 19h15M0 20h10M16 20h4M26 20h14M0 21h10M15 21h6M26 21h14M0 22h5M14 22h3M19 22h3M30 22h10M0 23h4M6 23h1M14 23h2M17 23h1M20 23h2M27 23h1M31 23h9M0 24h4M14 24h2M20 24h2M31 24h9M0 25h5M14 25h3M19 25h3M30 25h10M0 26h10M15 26h6M26 26h14M0 27h10M16 27h4M26 27h14M0 28h11M25 28h15M0 29h12M24 29h16M0 30h13M23 30h17M0 31h14M22 31h18M0 32h16M20 32h20M0 33h16M20 33h20M0 34h16M21 34h19M0 35h17M28 35h12M0 36h17M19 36h1M29 36h11M0 37h18M29 37h11M0 38h20M28 38h12M0 39h40" />
<path stroke="#739cff" d="M20 9h1M27 9h1M20 11h1M27 12h1M16 13h1M14 16h1M21 16h1M17 19h2M10 20h1M15 20h1M20 20h1M25 20h1M14 21h1M21 21h1M7 23h1M13 23h1M22 23h1M28 23h1M13 24h1M22 24h1M14 26h1M21 26h1M10 27h1M15 27h1M20 27h1M25 27h1M17 28h2M14 31h1M21 31h1M16 34h1M27 35h1M20 36h1M20 38h1M27 38h1" />
<path stroke="#105aff" d="M21 9h6M18 10h1M28 10h1M17 11h1M28 11h1M22 12h5M20 13h1M16 14h1M16 15h1M15 16h1M20 16h1M13 17h1M22 17h1M12 18h1M23 18h1M11 19h1M16 19h1M19 19h1M24 19h1M14 20h1M21 20h1M10 21h1M25 21h1M5 22h5M13 22h1M17 22h2M22 22h1M26 22h4M4 23h1M16 23h1M19 23h1M30 23h1M4 24h1M16 24h1M19 24h1M30 24h1M5 25h5M13 25h1M17 25h2M22 25h1M26 25h4M10 26h1M25 26h1M14 27h1M21 27h1M11 28h1M16 28h1M19 28h1M24 28h1M12 29h1M23 29h1M13 30h1M22 30h1M15 31h1M20 31h1M16 32h1M16 33h1M20 34h1M22 35h5M17 36h1M28 36h1M18 37h1M28 37h1M21 38h6" />
<path stroke="#000000" d="M19 10h9M18 11h1M21 11h7M17 12h5M17 13h3M17 14h3M17 15h3M16 16h4M14 17h8M13 18h10M12 19h4M20 19h4M11 20h3M22 20h3M11 21h3M22 21h3M10 22h3M23 22h3M5 23h1M8 23h5M18 23h1M23 23h4M29 23h1M5 24h8M17 24h2M23 24h7M10 25h3M23 25h3M11 26h3M22 26h3M11 27h3M22 27h3M12 28h4M20 28h4M13 29h10M14 30h8M16 31h4M17 32h3M17 33h3M17 34h3M17 35h5M18 36h1M21 36h7M19 37h9" />
</svg>