<svg xmlns="http://www.w3.org/2000/svg" viewBox="0 -0.5 48 48" shape-rendering="crispEdges">
<metadata>Made with Pixels to Svg https://codepen.io/shshaw/pen/XbxvNj</metadata>
<path stroke="#ffffff" d="M0 0h48M0 1h27M32 1h16M0 2h25M27 2h4M34 2h14M0 3h23M25 3h7M36 3h12M0 4h22M23 4h9M37 4h11M0 5h21M22 5h9M38 5h10M0 6h20M21 6h8M39 6h9M0 7h20M21 7h1M23 7h1M40 7h8M0 8h18M20 8h3M40 8h8M0 9h17M18 9h4M23 9h1M25 9h1M41 9h7M0 10h15M17 10h4M22 10h1M24 10h1M26 10h1M41 10h7M0 11h14M16 11h2M19 11h1M21 11h1M23 11h1M25 11h1M41 11h7M0 12h13M18 12h1M20 12h1M24 12h1M38 12h1M41 12h7M0 13h12M35 13h1M37 13h3M42 13h6M0 14h11M29 14h1M33 14h1M35 14h5M42 14h6M0 15h10M28 15h3M33 15h7M42 15h6M0 16h10M28 16h11M42 16h6M0 17h9M28 17h1M30 17h4M35 17h2M38 17h1M42 17h6M0 18h9M30 18h4M35 18h1M43 18h5M0 19h9M14 19h1M30 19h1M32 19h1M43 19h5M0 20h8M13 20h2M16 20h1M43 20h5M0 21h8M13 21h4M18 21h1M21 21h1M43 21h5M0 22h8M12 22h3M16 22h3M20 22h2M43 22h5M0 23h8M12 23h2M17 23h4M43 23h5M0 24h8M13 24h1M16 24h1M18 24h1M20 24h1M43 24h5M0 25h8M17 25h1M19 25h1M35 25h1M38 25h1M43 25h5M0 26h7M8 26h1M35 26h2M38 26h2M43 26h5M0 27h6M7 27h1M36 27h2M39 27h1M44 27h4M0 28h6M7 28h1M36 28h1M44 28h4M0 29h5M44 29h4M0 30h5M44 30h4M0 31h6M45 31h3M0 32h8M45 32h3M0 33h6M45 33h3M0 34h4M45 34h3M0 35h3M45 35h3M0 36h2M3 36h1M7 36h5M45 36h3M0 37h1M2 37h2M5 37h2M8 37h2M11 37h3M19 37h3M45 37h3M0 38h1M2 38h2M5 38h1M8 38h2M12 38h2M18 38h5M45 38h3M1 39h3M5 39h1M7 39h4M12 39h2M17 39h1M19 39h3M44 39h4M1 40h4M6 40h7M18 40h3M45 40h3M0 41h1M2 41h2M7 41h4M17 41h4M45 41h3M0 42h1M16 42h4M46 42h2M0 43h2M5 43h1M14 43h4M46 43h2M0 44h4M7 44h1M44 44h4M0 45h7M8 45h1M21 45h1M24 45h1M33 45h1M44 45h4M0 46h7M14 46h5M29 46h1M32 46h3M43 46h5M0 47h20M27 47h21" />
<path stroke="#9c5a00" d="M27 1h1M31 1h1M25 2h1M23 3h1M22 4h1M21 5h1M20 6h1M39 7h1M18 8h1M40 9h1M15 10h1M14 11h1M41 13h1M9 17h1M42 18h1M8 20h1M9 24h1M43 27h1M16 28h1M26 28h1M12 29h1M26 29h1M32 30h1M20 31h1M33 31h1M42 31h2M24 32h1M33 32h1M39 32h1M41 32h1M43 32h1M9 33h1M20 33h1M28 33h1M33 33h2M36 33h1M38 33h1M40 33h1M42 33h2M4 34h1M7 34h1M25 34h2M32 34h1M35 34h1M37 34h1M39 34h1M41 34h1M43 34h1M32 35h1M34 35h1M36 35h1M38 35h1M40 35h4M33 36h1M35 36h9M1 37h1M4 37h1M14 37h1M16 37h1M33 37h1M35 37h9M6 38h1M11 38h1M15 38h1M34 38h1M37 38h7M0 39h1M18 39h1M35 39h2M40 39h3M14 40h2M24 40h1M26 40h1M34 40h1M36 40h4M43 40h1M13 41h3M25 41h1M35 41h1M37 41h1M39 41h5M7 42h7M23 42h2M26 42h1M32 42h1M36 42h1M38 42h1M40 42h1M42 42h3M8 43h1M11 43h2M30 43h1M35 43h1M37 43h1M41 43h2M18 44h1M35 44h4M41 44h1M37 45h1M42 45h1M9 46h1M13 46h1M20 46h2M23 46h2M22 47h1" />
<path stroke="#000000" d="M28 1h3M26 2h1M32 2h2M24 3h1M34 3h2M36 4h1M37 5h1M38 6h1M20 7h1M19 8h1M39 8h1M17 9h1M16 10h1M40 10h1M40 11h1M13 12h1M40 12h1M12 13h1M11 14h1M41 14h1M10 15h1M41 15h1M10 16h1M41 16h1M41 17h1M9 18h1M9 19h1M42 19h1M42 20h1M8 21h1M42 21h1M8 22h1M42 22h1M8 23h1M42 23h1M8 24h1M42 24h1M8 25h1M42 25h1M7 26h1M42 26h1M6 27h1M6 28h1M43 28h1M5 29h1M16 29h1M43 29h1M5 30h1M12 30h1M16 30h1M27 30h1M43 30h1M6 31h3M12 31h1M16 31h1M27 31h1M32 31h1M44 31h1M8 32h2M11 32h1M17 32h1M20 32h1M28 32h1M32 32h1M44 32h1M6 33h2M10 33h1M17 33h1M19 33h1M21 33h1M24 33h4M32 33h1M44 33h1M5 34h1M18 34h1M22 34h1M24 34h1M33 34h1M44 34h1M3 35h1M7 35h5M23 35h1M33 35h1M44 35h1M2 36h1M5 36h2M12 36h2M19 36h3M34 36h1M44 36h1M7 37h1M10 37h1M18 37h1M22 37h1M34 37h1M44 37h1M1 38h1M4 38h1M7 38h1M10 38h1M14 38h1M17 38h1M23 38h1M35 38h2M44 38h1M4 39h1M6 39h1M11 39h1M14 39h1M16 39h1M23 39h1M37 39h3M43 39h1M0 40h1M5 40h1M13 40h1M16 40h2M23 40h1M40 40h3M44 40h1M1 41h1M5 41h2M11 41h2M16 41h1M23 41h1M44 41h1M1 42h1M5 42h1M14 42h2M22 42h1M45 42h1M2 43h2M6 43h2M9 43h2M13 43h1M21 43h3M26 43h1M33 43h1M39 43h1M43 43h3M4 44h3M8 44h7M19 44h8M31 44h1M33 44h2M39 44h2M42 44h2M7 45h1M9 45h12M22 45h2M25 45h3M29 45h1M32 45h1M34 45h3M38 45h4M43 45h1M7 46h2M10 46h3M19 46h1M22 46h1M25 46h4M30 46h2M35 46h8M20 47h2M23 47h4" />
<path stroke="#b59c00" d="M31 2h1M32 3h2M32 4h4M31 5h6M29 6h9M22 7h1M24 7h15M23 8h16M22 9h1M24 9h1M26 9h14M21 10h1M23 10h1M25 10h1M27 10h13M15 11h1M18 11h1M20 11h1M22 11h1M24 11h1M26 11h14M14 12h4M19 12h1M21 12h3M25 12h13M39 12h1M13 13h22M36 13h1M40 13h1M12 14h17M30 14h3M34 14h1M40 14h1M11 15h17M31 15h2M40 15h1M11 16h17M39 16h2M10 17h18M29 17h1M34 17h1M37 17h1M39 17h2M10 18h20M34 18h1M36 18h6M10 19h4M15 19h15M31 19h1M33 19h9M9 20h4M15 20h1M17 20h25M9 21h4M17 21h1M19 21h2M22 21h20M9 22h3M15 22h1M19 22h1M22 22h20M9 23h3M14 23h3M21 23h21M10 24h3M14 24h2M17 24h1M19 24h1M21 24h21M9 25h8M18 25h1M20 25h15M36 25h2M39 25h3M9 26h26M37 26h1M40 26h2M8 27h28M38 27h1M40 27h3M8 28h8M17 28h9M27 28h9M37 28h6M6 29h6M13 29h3M17 29h9M27 29h16M6 30h6M13 30h3M17 30h10M28 30h4M33 30h10M9 31h3M13 31h3M17 31h3M21 31h6M28 31h4M34 31h8M10 32h1M12 32h5M18 32h2M21 32h3M25 32h3M29 32h3M34 32h5M40 32h1M42 32h1M8 33h1M11 33h6M18 33h1M22 33h2M29 33h3M35 33h1M37 33h1M39 33h1M41 33h1M6 34h1M8 34h10M19 34h3M23 34h1M27 34h5M34 34h1M36 34h1M38 34h1M40 34h1M42 34h1M4 35h3M12 35h11M24 35h8M35 35h1M37 35h1M39 35h1M4 36h1M14 36h5M22 36h11M15 37h1M17 37h1M23 37h10M16 38h1M24 38h10M15 39h1M22 39h1M24 39h11M21 40h2M25 40h1M27 40h7M35 40h1M4 41h1M21 41h2M24 41h1M26 41h9M36 41h1M38 41h1M2 42h3M6 42h1M20 42h2M25 42h1M27 42h5M33 42h3M37 42h1M39 42h1M41 42h1M4 43h1M18 43h3M24 43h2M27 43h3M31 43h2M34 43h1M36 43h1M38 43h1M40 43h1M15 44h3M27 44h4M32 44h1M28 45h1M30 45h2" />
</svg>