<svg xmlns="http://www.w3.org/2000/svg" viewBox="0 -0.5 56 56" shape-rendering="crispEdges">
<metadata>Made with Pixels to Svg https://codepen.io/shshaw/pen/XbxvNj</metadata>
<path stroke="#ffffff" d="M0 0h32M38 0h18M0 1h30M40 1h16M0 2h29M41 2h15M0 3h28M42 3h14M0 4h28M42 4h14M0 5h27M43 5h13M0 6h27M43 6h13M0 7h25M43 7h13M0 8h19M23 8h1M44 8h2M48 8h8M0 9h18M45 9h1M47 9h1M49 9h7M0 10h17M45 10h1M47 10h1M50 10h6M0 11h16M45 11h1M51 11h5M0 12h14M16 12h1M45 12h2M52 12h1M54 12h2M0 13h12M45 13h2M53 13h1M55 13h1M0 14h10M45 14h2M55 14h1M0 15h9M10 15h3M15 15h4M44 15h3M0 16h8M9 16h4M14 16h6M44 16h4M0 17h8M9 17h2M12 17h1M14 17h6M44 17h4M51 17h1M55 17h1M0 18h7M10 18h1M14 18h2M17 18h2M44 18h4M53 18h1M55 18h1M0 19h5M7 19h3M11 19h1M15 19h2M20 19h1M46 19h3M52 19h1M54 19h2M0 20h4M5 20h4M16 20h6M44 20h2M47 20h2M52 20h4M0 21h3M4 21h3M18 21h5M44 21h3M48 21h1M53 21h3M0 22h2M3 22h3M18 22h6M45 22h2M48 22h2M53 22h3M0 23h2M3 23h2M6 23h1M19 23h5M46 23h2M49 23h1M53 23h3M0 24h1M2 24h2M6 24h1M14 24h3M20 24h5M46 24h2M53 24h3M0 25h1M2 25h2M5 25h1M12 25h1M15 25h2M20 25h5M47 25h1M54 25h2M0 26h1M2 26h2M13 26h1M15 26h1M20 26h5M48 26h1M54 26h2M1 27h4M19 27h6M41 27h2M48 27h2M54 27h2M2 28h4M9 28h6M18 28h6M28 28h1M40 28h4M49 28h2M54 28h2M0 29h1M2 29h12M16 29h8M28 29h1M40 29h4M49 29h2M54 29h2M0 30h1M2 30h2M11 30h12M27 30h2M40 30h4M49 30h3M53 30h3M0 31h2M12 31h11M26 31h3M39 31h3M43 31h2M49 31h7M0 32h3M5 32h1M12 32h2M15 32h7M25 32h5M39 32h3M43 32h2M50 32h6M0 33h4M5 33h2M13 33h1M17 33h3M25 33h5M40 33h1M44 33h1M50 33h6M0 34h5M6 34h1M13 34h1M15 34h2M22 34h9M41 34h2M44 34h2M51 34h5M0 35h6M14 35h3M24 35h5M40 35h4M45 35h1M51 35h5M0 36h6M8 36h1M13 36h3M22 36h2M29 36h2M41 36h3M45 36h1M52 36h4M0 37h6M7 37h2M12 37h3M21 37h10M41 37h4M52 37h4M0 38h7M8 38h5M20 38h11M41 38h4M53 38h3M0 39h8M20 39h10M40 39h6M54 39h2M0 40h12M19 40h11M40 40h7M48 40h1M54 40h2M0 41h12M19 41h10M40 41h7M48 41h1M54 41h2M0 42h11M18 42h10M29 42h1M34 42h1M40 42h7M48 42h2M54 42h2M0 43h10M18 43h10M31 43h1M34 43h1M40 43h6M47 43h4M54 43h2M0 44h10M18 44h12M34 44h1M40 44h5M46 44h4M55 44h1M0 45h8M19 45h13M34 45h1M40 45h5M55 45h1M0 46h7M19 46h13M34 46h2M40 46h6M55 46h1M0 47h5M8 47h1M19 47h12M32 47h4M40 47h5M55 47h1M0 48h4M5 48h1M18 48h12M32 48h4M40 48h5M47 48h1M50 48h1M54 48h2M0 49h4M6 49h1M9 49h1M16 49h14M31 49h4M40 49h6M47 49h1M53 49h3M0 50h5M8 50h2M13 50h16M41 50h6M50 50h6M0 51h6M11 51h18M41 51h15M0 52h29M40 52h16M0 53h28M30 53h1M39 53h17M0 54h28M30 54h1M33 54h1M38 54h18M0 55h29M36 55h20" />
<path stroke="#000000" d="M32 0h6M30 1h2M38 1h2M29 2h1M40 2h1M28 3h1M41 3h1M28 4h1M41 4h1M27 5h1M42 5h1M27 6h1M42 6h1M25 7h3M39 7h4M19 8h4M24 8h1M27 8h1M38 8h1M43 8h1M47 8h1M18 9h1M23 9h1M28 9h1M37 9h1M44 9h1M46 9h1M48 9h1M17 10h1M21 10h2M28 10h1M37 10h1M44 10h1M46 10h1M49 10h1M16 11h3M20 11h1M29 11h2M37 11h1M44 11h1M46 11h1M50 11h1M14 12h2M19 12h4M31 12h3M44 12h1M47 12h1M51 12h1M53 12h1M12 13h2M15 13h1M18 13h3M22 13h3M38 13h4M44 13h1M47 13h1M49 13h1M52 13h1M54 13h1M10 14h3M16 14h4M21 14h1M23 14h1M25 14h2M32 14h4M37 14h1M42 14h1M44 14h1M47 14h1M49 14h2M52 14h1M54 14h1M9 15h1M13 15h2M20 15h1M22 15h1M24 15h4M30 15h2M36 15h2M43 15h1M47 15h1M50 15h2M55 15h1M8 16h1M13 16h1M21 16h1M23 16h1M25 16h5M38 16h1M40 16h1M43 16h1M48 16h1M50 16h2M55 16h1M8 17h1M13 17h1M20 17h1M22 17h1M24 17h5M39 17h2M43 17h1M48 17h1M50 17h1M52 17h1M54 17h1M7 18h1M12 18h2M20 18h10M32 18h4M43 18h1M48 18h1M51 18h2M54 18h1M5 19h1M10 19h1M14 19h1M21 19h11M36 19h3M42 19h1M44 19h2M49 19h1M51 19h1M53 19h1M4 20h1M9 20h2M14 20h1M23 20h7M35 20h1M38 20h4M46 20h1M49 20h1M51 20h1M3 21h1M8 21h9M24 21h6M36 21h1M38 21h2M47 21h1M49 21h1M52 21h1M2 22h1M6 22h3M12 22h6M24 22h6M36 22h1M39 22h2M44 22h1M47 22h1M50 22h1M52 22h1M2 23h1M7 23h1M11 23h4M17 23h2M25 23h5M37 23h1M39 23h2M45 23h1M48 23h1M50 23h1M52 23h1M1 24h1M4 24h2M7 24h6M19 24h1M25 24h5M37 24h1M40 24h1M45 24h1M49 24h2M52 24h1M1 25h1M4 25h1M6 25h6M13 25h2M19 25h1M25 25h4M34 25h1M37 25h1M40 25h1M46 25h1M48 25h1M50 25h1M53 25h1M1 26h1M6 26h1M9 26h3M14 26h1M19 26h1M25 26h4M30 26h1M34 26h1M38 26h1M47 26h1M49 26h1M51 26h1M53 26h1M0 27h1M5 27h8M18 27h1M25 27h4M31 27h1M34 27h2M38 27h1M45 27h1M47 27h1M50 27h1M53 27h1M0 28h1M6 28h3M15 28h3M25 28h3M31 28h2M34 28h2M38 28h1M45 28h1M48 28h1M51 28h1M53 28h1M1 29h1M24 29h4M32 29h4M38 29h1M44 29h2M48 29h1M51 29h1M53 29h1M1 30h1M24 30h3M33 30h3M38 30h1M45 30h2M48 30h1M52 30h1M2 31h1M6 31h3M11 31h1M23 31h3M29 31h1M34 31h1M38 31h1M42 31h1M46 31h3M3 32h1M7 32h5M14 32h1M22 32h1M30 32h1M34 32h1M38 32h1M42 32h1M47 32h3M4 33h1M7 33h3M11 33h2M14 33h3M20 33h2M24 33h1M39 33h1M41 33h3M49 33h1M5 34h1M7 34h2M12 34h1M18 34h4M31 34h1M33 34h1M39 34h2M43 34h1M47 34h4M6 35h3M13 35h1M17 35h1M22 35h2M29 35h4M34 35h1M38 35h2M44 35h1M49 35h2M6 36h2M11 36h2M16 36h1M21 36h1M24 36h5M31 36h2M35 36h2M38 36h1M40 36h1M44 36h1M50 36h2M6 37h1M9 37h3M15 37h1M20 37h1M31 37h2M36 37h3M40 37h1M45 37h1M50 37h2M7 38h1M13 38h2M19 38h1M31 38h2M36 38h2M40 38h1M45 38h1M52 38h1M8 39h5M19 39h1M30 39h3M34 39h1M37 39h1M39 39h1M46 39h1M53 39h1M12 40h1M18 40h1M30 40h1M32 40h2M39 40h1M47 40h1M53 40h1M12 41h1M18 41h1M29 41h1M32 41h2M39 41h1M47 41h1M53 41h1M11 42h1M17 42h1M28 42h1M33 42h1M39 42h1M47 42h1M53 42h1M10 43h1M17 43h1M28 43h2M33 43h1M39 43h1M46 43h1M53 43h1M10 44h1M17 44h1M30 44h4M39 44h1M45 44h1M54 44h1M8 45h2M18 45h1M32 45h1M39 45h1M45 45h1M48 45h2M54 45h1M7 46h2M18 46h1M32 46h1M39 46h1M46 46h2M50 46h3M54 46h1M5 47h1M7 47h1M10 47h3M18 47h1M31 47h1M39 47h1M45 47h1M47 47h1M54 47h1M4 48h1M6 48h1M9 48h2M13 48h1M16 48h2M31 48h1M39 48h1M45 48h1M52 48h2M4 49h2M13 49h3M30 49h1M39 49h1M46 49h1M50 49h2M5 50h1M11 50h2M29 50h1M31 50h4M40 50h1M47 50h3M6 51h5M29 51h2M35 51h2M40 51h1M29 52h2M34 52h1M37 52h1M39 52h1M28 53h1M33 53h1M38 53h1M28 54h1M36 54h2M29 55h7" />
<path stroke="#cead00" d="M32 1h1M34 1h1M36 1h1M31 2h1M33 2h1M35 2h1M37 2h1M39 2h1M30 3h1M32 3h1M34 3h1M36 3h1M38 3h1M40 3h1M29 4h1M31 4h1M33 4h1M35 4h1M37 4h1M39 4h1M28 5h1M30 5h1M32 5h1M34 5h1M36 5h1M38 5h4M29 6h1M31 6h1M33 6h1M35 6h7M28 7h1M30 7h1M32 7h7M25 8h1M29 8h1M31 8h1M33 8h5M40 8h1M42 8h1M46 8h1M20 9h1M22 9h1M24 9h1M26 9h1M30 9h1M32 9h5M39 9h1M41 9h1M43 9h1M19 10h1M23 10h1M25 10h1M27 10h1M29 10h8M38 10h1M40 10h1M42 10h2M48 10h1M19 11h1M22 11h1M24 11h1M26 11h1M28 11h1M31 11h6M38 11h6M47 11h3M17 12h2M23 12h1M25 12h6M34 12h10M48 12h3M14 13h1M16 13h2M21 13h1M25 13h13M42 13h2M48 13h1M50 13h2M13 14h3M20 14h1M22 14h1M24 14h1M27 14h5M36 14h1M39 14h1M41 14h1M43 14h1M48 14h1M51 14h1M53 14h1M19 15h1M21 15h1M23 15h1M28 15h2M32 15h4M38 15h1M40 15h3M48 15h2M52 15h3M20 16h1M22 16h1M24 16h1M30 16h8M39 16h1M41 16h2M49 16h1M52 16h3M11 17h1M21 17h1M23 17h1M29 17h10M41 17h2M49 17h1M53 17h1M8 18h2M11 18h1M16 18h1M19 18h1M30 18h2M36 18h7M49 18h2M6 19h1M12 19h2M17 19h3M39 19h3M50 19h1M11 20h3M15 20h1M22 20h1M50 20h1M7 21h1M17 21h1M23 21h1M50 21h2M9 22h3M51 22h1M5 23h1M8 23h3M15 23h2M24 23h1M51 23h1M13 24h1M17 24h1M48 24h1M51 24h1M17 25h1M30 25h1M49 25h1M51 25h2M4 26h1M7 26h2M12 26h1M16 26h1M50 26h1M52 26h1M13 27h2M30 27h1M51 27h2M1 28h1M24 28h1M44 28h1M52 28h1M14 29h2M52 29h1M4 30h1M9 30h2M23 30h1M44 30h1M3 31h1M33 31h1M4 32h1M6 32h1M23 32h2M10 33h1M22 33h2M30 33h1M9 34h3M14 34h1M17 34h1M9 35h4M35 35h1M48 35h1M9 36h2M35 37h1M34 38h1M31 40h1M34 40h1M37 40h1M30 41h2M30 42h3M30 43h1M32 43h1M47 45h1M50 45h1M48 46h2M6 47h1M9 47h1M46 47h1M48 47h5M7 48h2M11 48h2M30 48h1M46 48h1M48 48h2M51 48h1M7 49h2M10 49h3M48 49h2M52 49h1M6 50h2M10 50h1M31 51h4M31 52h3M35 52h2M29 53h1M31 53h2M34 53h4M29 54h1M31 54h2M34 54h2" />
<path stroke="#ff7b00" d="M33 1h1M35 1h1M37 1h1M30 2h1M32 2h1M34 2h1M36 2h1M38 2h1M29 3h1M31 3h1M33 3h1M35 3h1M37 3h1M39 3h1M30 4h1M32 4h1M34 4h1M36 4h1M38 4h1M40 4h1M29 5h1M31 5h1M33 5h1M35 5h1M37 5h1M28 6h1M30 6h1M32 6h1M34 6h1M29 7h1M31 7h1M26 8h1M28 8h1M30 8h1M32 8h1M39 8h1M41 8h1M19 9h1M21 9h1M25 9h1M27 9h1M29 9h1M31 9h1M38 9h1M40 9h1M42 9h1M18 10h1M20 10h1M24 10h1M26 10h1M39 10h1M41 10h1M21 11h1M23 11h1M25 11h1M27 11h1M24 12h1M38 14h1M40 14h1M39 15h1M32 19h4M43 19h1M30 20h5M36 20h2M42 20h2M30 21h6M37 21h1M40 21h4M30 22h6M37 22h2M41 22h3M30 23h7M38 23h1M41 23h4M18 24h1M30 24h7M38 24h2M41 24h4M18 25h1M29 25h1M31 25h3M35 25h2M38 25h2M41 25h5M5 26h1M17 26h2M29 26h1M31 26h3M35 26h3M39 26h8M15 27h3M29 27h1M32 27h2M36 27h2M39 27h2M43 27h2M46 27h1M29 28h2M33 28h1M36 28h2M39 28h1M46 28h2M29 29h3M36 29h2M39 29h1M46 29h2M5 30h4M29 30h4M36 30h2M39 30h1M47 30h1M4 31h2M9 31h2M30 31h3M35 31h3M45 31h1M31 32h3M35 32h3M45 32h2M31 33h8M45 33h4M32 34h1M34 34h5M46 34h1M18 35h4M33 35h1M36 35h2M46 35h2M17 36h4M33 36h2M37 36h1M39 36h1M46 36h4M16 37h4M33 37h2M39 37h1M46 37h4M15 38h4M33 38h1M35 38h1M38 38h2M46 38h6M13 39h6M33 39h1M35 39h2M38 39h1M47 39h6M13 40h5M35 40h2M38 40h1M49 40h4M13 41h5M34 41h5M49 41h4M12 42h5M35 42h4M50 42h3M11 43h6M35 43h4M51 43h2M11 44h6M35 44h4M50 44h4M10 45h8M33 45h1M35 45h4M46 45h1M51 45h3M9 46h9M33 46h1M36 46h3M53 46h1M13 47h5M36 47h3M53 47h1M14 48h2M36 48h3M35 49h4M30 50h1M35 50h5M37 51h3M38 52h1" />
</svg>