<svg xmlns="http://www.w3.org/2000/svg" viewBox="0 -0.5 56 56" shape-rendering="crispEdges">
<metadata>Made with Pixels to Svg https://codepen.io/shshaw/pen/XbxvNj</metadata>
<path stroke="#ffffff" d="M0 0h35M41 0h15M0 1h33M42 1h14M0 2h31M43 2h13M0 3h23M25 3h5M43 3h13M0 4h21M26 4h3M30 4h1M32 4h1M43 4h2M47 4h9M0 5h19M29 5h1M31 5h1M33 5h1M43 5h1M48 5h2M52 5h4M0 6h18M32 6h1M53 6h3M0 7h15M31 7h1M33 7h1M53 7h3M0 8h13M52 8h4M0 9h12M52 9h4M0 10h11M53 10h3M0 11h11M54 11h2M0 12h10M18 12h1M54 12h2M0 13h10M17 13h1M54 13h2M0 14h10M16 14h1M54 14h2M0 15h11M53 15h3M0 16h11M14 16h1M53 16h3M0 17h12M13 17h1M42 17h2M46 17h2M52 17h4M0 18h10M32 18h4M45 18h4M51 18h5M0 19h8M18 19h1M31 19h7M47 19h9M0 20h7M18 20h1M31 20h6M38 20h3M48 20h1M55 20h1M0 21h6M17 21h1M33 21h1M37 21h6M44 21h2M52 21h3M0 22h5M9 22h1M17 22h1M34 22h10M45 22h2M52 22h3M0 23h4M8 23h1M16 23h1M33 23h1M35 23h3M40 23h4M45 23h2M51 23h1M53 23h1M55 23h1M0 24h3M5 24h1M7 24h2M16 24h1M32 24h1M34 24h2M38 24h2M42 24h2M45 24h1M48 24h1M50 24h1M52 24h1M54 24h2M0 25h3M4 25h1M7 25h2M29 25h1M31 25h1M33 25h2M37 25h3M47 25h1M49 25h1M53 25h3M0 26h2M3 26h1M6 26h2M14 26h1M30 26h1M32 26h2M38 26h1M46 26h3M51 26h5M0 27h2M4 27h1M6 27h2M13 27h1M28 27h1M31 27h2M34 27h2M45 27h3M49 27h1M51 27h5M0 28h1M3 28h1M5 28h3M12 28h2M27 28h1M29 28h2M33 28h4M43 28h3M48 28h2M51 28h5M0 29h1M2 29h1M5 29h1M11 29h2M29 29h1M31 29h1M33 29h3M43 29h2M47 29h4M52 29h4M0 30h1M3 30h1M6 30h1M11 30h1M28 30h1M30 30h1M34 30h1M48 30h3M52 30h4M2 31h1M4 31h1M10 31h1M14 31h1M27 31h1M29 31h1M31 31h2M35 31h3M49 31h1M52 31h4M1 32h1M4 32h1M8 32h1M13 32h1M28 32h1M31 32h2M34 32h2M52 32h4M2 33h1M4 33h1M8 33h1M12 33h1M27 33h1M30 33h4M52 33h4M1 34h1M4 34h1M7 34h2M22 34h3M26 34h1M30 34h4M53 34h3M2 35h1M4 35h1M7 35h2M14 35h2M20 35h4M25 35h1M27 35h1M31 35h2M35 35h2M43 35h2M53 35h3M1 36h1M4 36h2M8 36h1M14 36h2M20 36h4M26 36h1M32 36h1M35 36h4M44 36h3M53 36h3M1 37h3M5 37h1M20 37h4M25 37h1M35 37h4M44 37h3M53 37h3M0 38h1M2 38h2M5 38h2M13 38h1M20 38h4M28 38h1M33 38h1M35 38h5M44 38h4M53 38h3M0 39h1M2 39h2M5 39h2M8 39h1M20 39h4M32 39h3M36 39h4M44 39h4M53 39h3M0 40h2M3 40h2M6 40h2M12 40h2M19 40h6M33 40h1M36 40h3M44 40h4M53 40h3M0 41h2M3 41h3M9 41h6M18 41h8M29 41h1M36 41h2M44 41h4M53 41h3M0 42h3M4 42h3M8 42h6M16 42h1M18 42h13M37 42h1M43 42h5M53 42h3M0 43h4M5 43h2M8 43h6M15 43h1M19 43h12M37 43h2M42 43h6M53 43h3M0 44h5M8 44h5M15 44h3M19 44h13M37 44h11M49 44h2M53 44h3M0 45h6M9 45h3M18 45h14M37 45h10M53 45h3M0 46h5M13 46h19M37 46h10M53 46h3M0 47h5M11 47h21M37 47h11M52 47h4M0 48h4M10 48h22M37 48h19M0 49h3M9 49h22M32 49h2M37 49h19M0 50h2M3 50h3M9 50h21M36 50h20M0 51h1M8 51h22M36 51h20M0 52h1M8 52h23M35 52h21M0 53h2M7 53h49M0 54h56M0 55h56" />
<path stroke="#000000" d="M35 0h6M33 1h2M41 1h1M31 2h2M42 2h1M23 3h2M30 3h1M42 3h1M21 4h2M25 4h1M29 4h1M42 4h1M45 4h2M19 5h2M26 5h3M42 5h1M44 5h1M47 5h1M50 5h2M18 6h1M43 6h1M48 6h2M52 6h1M15 7h3M24 7h3M52 7h1M13 8h2M17 8h1M22 8h2M27 8h2M51 8h1M12 9h1M16 9h1M21 9h1M51 9h1M11 10h1M16 10h1M20 10h1M52 10h1M11 11h1M16 11h1M18 11h2M30 11h4M44 11h3M53 11h1M10 12h1M16 12h2M20 12h1M28 12h2M34 12h2M42 12h2M47 12h2M53 12h1M10 13h1M16 13h1M20 13h1M27 13h1M36 13h2M40 13h2M49 13h1M53 13h1M10 14h1M15 14h1M21 14h1M26 14h1M38 14h2M50 14h1M53 14h1M11 15h1M14 15h1M21 15h1M25 15h1M50 15h1M52 15h1M11 16h1M13 16h1M17 16h1M21 16h1M25 16h1M42 16h2M46 16h2M50 16h1M52 16h1M12 17h1M17 17h1M22 17h1M24 17h1M32 17h4M41 17h1M44 17h2M48 17h1M51 17h1M11 18h1M17 18h1M22 18h2M31 18h1M36 18h2M40 18h5M49 18h2M9 19h1M11 19h1M16 19h2M22 19h1M30 19h1M38 19h3M45 19h2M7 20h1M10 20h1M15 20h2M21 20h1M30 20h1M37 20h1M41 20h2M47 20h1M49 20h6M6 21h1M9 21h2M14 21h3M21 21h1M30 21h3M34 21h3M43 21h1M48 21h1M51 21h1M55 21h1M5 22h1M8 22h1M10 22h1M14 22h2M20 22h1M29 22h1M33 22h1M44 22h1M49 22h2M55 22h1M4 23h1M7 23h1M9 23h1M14 23h2M20 23h1M29 23h1M32 23h1M38 23h2M44 23h1M48 23h2M54 23h1M6 24h1M9 24h1M13 24h2M19 24h1M29 24h1M31 24h1M36 24h2M40 24h1M44 24h1M47 24h1M53 24h1M3 25h1M6 25h1M9 25h1M13 25h2M19 25h1M28 25h1M30 25h1M35 25h1M40 25h1M43 25h1M46 25h1M51 25h2M5 26h1M8 26h1M12 26h2M18 26h1M28 26h2M34 26h1M40 26h1M43 26h1M45 26h1M49 26h2M2 27h1M5 27h1M8 27h1M12 27h1M18 27h1M27 27h1M29 27h1M33 27h1M39 27h1M42 27h3M48 27h1M50 27h1M4 28h1M8 28h1M11 28h1M17 28h1M26 28h1M28 28h1M32 28h1M39 28h1M42 28h1M46 28h2M50 28h1M1 29h1M4 29h1M7 29h1M16 29h3M25 29h1M27 29h1M32 29h1M39 29h1M45 29h1M51 29h1M1 30h1M4 30h1M7 30h1M14 30h2M18 30h1M23 30h2M27 30h1M31 30h1M33 30h1M39 30h1M44 30h1M51 30h1M3 31h1M5 31h1M7 31h1M13 31h1M18 31h5M26 31h1M30 31h1M33 31h1M38 31h3M51 31h1M0 32h1M3 32h1M5 32h1M12 32h1M17 32h3M26 32h1M30 32h1M33 32h1M36 32h6M51 32h1M0 33h1M3 33h1M5 33h1M11 33h1M16 33h2M22 33h4M29 33h1M34 33h9M51 33h1M0 34h1M3 34h1M5 34h1M15 34h2M20 34h2M25 34h1M28 34h1M34 34h11M52 34h1M0 35h1M3 35h1M5 35h1M16 35h1M19 35h1M24 35h1M28 35h1M34 35h1M38 35h5M45 35h2M52 35h1M0 36h1M3 36h1M6 36h1M13 36h1M16 36h1M19 36h1M24 36h1M27 36h2M34 36h1M39 36h4M47 36h1M52 36h1M4 37h1M6 37h1M12 37h4M19 37h1M24 37h1M27 37h2M34 37h1M40 37h4M47 37h1M52 37h1M1 38h1M4 38h1M7 38h1M12 38h1M14 38h1M19 38h1M24 38h1M27 38h1M29 38h1M34 38h1M40 38h4M48 38h1M52 38h1M4 39h1M7 39h1M11 39h3M19 39h1M24 39h1M28 39h2M40 39h4M48 39h1M52 39h1M2 40h1M5 40h1M8 40h4M18 40h1M25 40h1M30 40h1M35 40h1M39 40h5M48 40h1M52 40h1M6 41h3M16 41h2M26 41h3M30 41h1M35 41h1M39 41h5M48 41h1M52 41h1M3 42h1M7 42h1M17 42h1M31 42h1M38 42h5M48 42h1M52 42h1M4 43h1M7 43h1M14 43h1M18 43h1M31 43h1M36 43h1M39 43h3M48 43h1M52 43h1M6 44h2M13 44h1M18 44h1M32 44h1M36 44h1M48 44h1M52 44h1M6 45h1M8 45h1M12 45h6M32 45h1M36 45h1M47 45h1M52 45h1M5 46h1M10 46h3M32 46h1M36 46h1M47 46h1M50 46h1M52 46h1M5 47h1M9 47h2M32 47h1M36 47h1M48 47h4M4 48h1M9 48h1M32 48h1M36 48h1M3 49h1M8 49h1M31 49h1M36 49h1M2 50h1M8 50h1M30 50h1M35 50h1M1 51h1M7 51h1M30 51h1M35 51h1M1 52h1M5 52h1M7 52h1M31 52h4M2 53h5" />
<path stroke="#cec5ff" d="M35 1h6M33 2h9M31 3h6M41 3h1M23 4h2M31 4h1M33 4h3M37 4h4M21 5h5M30 5h1M32 5h1M34 5h1M36 5h6M45 5h2M19 6h1M21 6h1M23 6h9M33 6h2M36 6h7M44 6h4M50 6h2M18 7h1M20 7h1M22 7h1M27 7h4M32 7h1M36 7h16M15 8h1M19 8h1M21 8h1M24 8h3M29 8h3M37 8h7M48 8h3M14 9h1M22 9h7M40 9h2M13 10h1M15 10h1M22 10h10M12 11h1M14 11h1M22 11h8M11 12h1M13 12h1M19 12h1M23 12h5M19 13h1M24 13h3M20 14h1M15 15h1M20 15h1M20 16h1M21 17h1M12 18h1M16 18h1M18 18h1M21 18h1M10 19h1M15 19h1M21 19h1M41 19h4M8 20h2M14 20h1M20 20h1M43 20h4M7 21h2M20 21h1M46 21h2M49 21h2M6 22h2M13 22h1M19 22h1M30 22h3M47 22h2M51 22h1M5 23h2M19 23h1M30 23h2M34 23h1M47 23h1M50 23h1M52 23h1M4 24h1M12 24h1M18 24h1M30 24h1M33 24h1M46 24h1M49 24h1M51 24h1M5 25h1M18 25h1M32 25h1M36 25h1M41 25h1M44 25h2M48 25h1M50 25h1M4 26h1M11 26h1M17 26h1M31 26h1M35 26h3M39 26h1M41 26h1M44 26h1M3 27h1M16 27h2M30 27h1M36 27h3M40 27h2M2 28h1M15 28h2M31 28h1M37 28h2M40 28h2M3 29h1M14 29h2M26 29h1M28 29h1M30 29h1M36 29h3M40 29h2M46 29h1M2 30h1M10 30h1M13 30h1M25 30h2M29 30h1M32 30h1M35 30h4M40 30h3M45 30h3M1 31h1M8 31h1M12 31h1M23 31h3M28 31h1M34 31h1M41 31h8M50 31h1M2 32h1M7 32h1M20 32h6M27 32h1M29 32h1M42 32h9M1 33h1M7 33h1M18 33h4M26 33h1M28 33h1M43 33h8M2 34h1M6 34h1M17 34h3M27 34h1M29 34h1M45 34h7M1 35h1M6 35h1M17 35h2M26 35h1M29 35h2M33 35h1M47 35h5M2 36h1M7 36h1M17 36h2M25 36h1M29 36h3M33 36h1M48 36h4M16 37h3M26 37h1M29 37h5M48 37h4M15 38h4M25 38h2M30 38h3M49 38h3M14 39h5M25 39h3M30 39h2M49 39h3M14 40h4M26 40h4M31 40h2M34 40h1M49 40h3M31 41h4M49 41h3M15 42h1M32 42h4M49 42h3M32 43h4M49 43h3M14 44h1M33 44h3M51 44h1M7 45h1M33 45h3M48 45h3M6 46h1M8 46h1M33 46h3M49 46h1M7 47h1M33 47h3M5 48h2M8 48h1M33 48h3M4 49h4M34 49h2M6 50h2M31 50h4M3 51h2M6 51h1M32 51h1M34 51h1M3 52h2M6 52h1" />
<path stroke="#849cc5" d="M37 3h4M36 4h1M41 4h1M35 5h1M20 6h1M22 6h1M35 6h1M19 7h1M21 7h1M23 7h1M34 7h2M16 8h1M18 8h1M20 8h1M32 8h5M44 8h4M13 9h1M15 9h1M17 9h4M29 9h11M42 9h9M12 10h1M14 10h1M17 10h3M21 10h1M32 10h20M13 11h1M15 11h1M17 11h1M20 11h2M34 11h10M47 11h6M12 12h1M14 12h2M21 12h2M30 12h4M36 12h6M44 12h3M49 12h4M11 13h5M18 13h1M21 13h3M28 13h8M38 13h2M42 13h7M50 13h3M11 14h4M17 14h3M22 14h4M27 14h11M40 14h10M51 14h2M12 15h2M16 15h4M22 15h3M26 15h24M51 15h1M12 16h1M15 16h2M18 16h2M22 16h3M26 16h16M44 16h2M48 16h2M51 16h1M14 17h3M18 17h3M23 17h1M25 17h7M36 17h5M49 17h2M10 18h1M13 18h3M19 18h2M24 18h7M38 18h2M8 19h1M12 19h3M19 19h2M23 19h7M11 20h3M17 20h1M19 20h1M22 20h8M11 21h3M18 21h2M22 21h8M11 22h2M16 22h1M18 22h1M21 22h8M10 23h4M17 23h2M21 23h8M3 24h1M10 24h2M15 24h1M17 24h1M20 24h9M41 24h1M10 25h3M15 25h3M20 25h8M42 25h1M2 26h1M9 26h2M15 26h2M19 26h9M42 26h1M9 27h3M14 27h2M19 27h8M1 28h1M9 28h2M14 28h1M18 28h8M6 29h1M8 29h3M13 29h1M19 29h6M42 29h1M5 30h1M8 30h2M12 30h1M16 30h2M19 30h4M43 30h1M0 31h1M6 31h1M9 31h1M11 31h1M15 31h3M6 32h1M9 32h3M14 32h3M6 33h1M9 33h2M13 33h3M9 34h6M9 35h5M37 35h1M9 36h4M43 36h1M0 37h1M7 37h5M39 37h1M8 38h4M1 39h1M9 39h2M35 39h1M2 41h1M15 41h1M38 41h1M14 42h1M36 42h1M16 43h2M5 44h1M51 45h1M7 46h1M9 46h1M48 46h1M51 46h1M6 47h1M8 47h1M7 48h1M2 51h1M5 51h1M31 51h1M33 51h1M2 52h1" />
</svg>