<svg xmlns="http://www.w3.org/2000/svg" viewBox="0 -0.5 40 40" shape-rendering="crispEdges">
<metadata>Made with Pixels to Svg https://codepen.io/shshaw/pen/XbxvNj</metadata>
<path stroke="#ffffff" d="M0 0h40M0 1h40M0 2h15M20 2h20M0 3h13M15 3h5M22 3h9M35 3h5M0 4h12M13 4h7M24 4h4M32 4h3M36 4h4M0 5h11M12 5h6M20 5h2M34 5h1M36 5h4M0 6h11M12 6h4M17 6h1M36 6h4M0 7h10M12 7h5M36 7h4M0 8h5M11 8h1M13 8h1M15 8h1M36 8h4M0 9h4M5 9h2M12 9h1M14 9h1M16 9h1M36 9h4M0 10h3M4 10h1M22 10h4M36 10h4M0 11h3M4 11h1M25 11h2M36 11h4M0 12h3M21 12h1M26 12h2M35 12h5M0 13h4M9 13h3M20 13h1M22 13h2M27 13h1M35 13h5M0 14h4M11 14h2M22 14h2M27 14h1M36 14h4M0 15h4M8 15h2M12 15h1M27 15h1M36 15h4M0 16h5M8 16h2M38 16h2M0 17h5M33 17h4M39 17h1M0 18h1M4 18h1M6 18h1M32 18h5M39 18h1M1 19h2M5 19h2M34 19h2M39 19h1M1 20h1M5 20h3M38 20h2M0 21h1M5 21h4M10 21h1M37 21h3M0 22h2M6 22h2M9 22h1M11 22h1M36 22h4M0 23h4M6 23h1M8 23h1M10 23h1M35 23h5M0 24h6M7 24h1M9 24h1M11 24h1M35 24h5M0 25h6M8 25h1M10 25h1M35 25h5M0 26h7M9 26h1M34 26h6M0 27h4M34 27h6M0 28h3M4 28h5M33 28h7M0 29h3M4 29h2M32 29h8M0 30h3M4 30h1M31 30h9M0 31h4M31 31h9M0 32h6M32 32h8M0 33h8M33 33h7M0 34h10M16 34h1M24 34h1M32 34h1M34 34h6M0 35h12M15 35h11M31 35h1M34 35h6M0 36h27M30 36h1M32 36h1M35 36h5M0 37h28M29 37h1M31 37h1M33 37h1M35 37h5M0 38h29M31 38h3M35 38h5M0 39h31M34 39h6" />
<path stroke="#ff8cff" d="M15 2h1M13 3h1M20 4h2M31 4h1M11 5h1M18 5h2M22 5h2M28 5h3M16 6h1M20 6h5M26 6h3M34 6h1M11 7h1M18 7h2M21 7h7M34 7h1M12 8h1M14 8h1M16 8h1M18 8h3M22 8h7M33 8h2M7 9h3M11 9h1M13 9h1M15 9h1M17 9h4M26 9h4M33 9h2M5 10h1M9 10h1M11 10h10M27 10h4M32 10h3M9 11h2M12 11h9M28 11h7M4 12h1M8 12h2M12 12h8M29 12h5M5 13h1M7 13h2M13 13h5M29 13h5M5 14h1M7 14h1M18 14h2M29 14h6M6 15h1M14 15h6M29 15h6M6 16h1M14 16h7M28 16h6M6 17h1M14 17h8M27 17h4M37 17h1M14 18h18M37 18h1M3 19h1M13 19h3M19 19h15M36 19h2M2 20h3M12 20h3M16 20h3M20 20h17M2 21h3M9 21h1M11 21h25M4 22h1M8 22h1M10 22h1M12 22h22M7 23h1M9 23h1M11 23h22M8 24h1M10 24h1M12 24h22M7 25h1M9 25h1M11 25h23M8 26h1M10 26h23M4 27h1M9 27h24M3 28h1M11 28h21M6 29h5M13 29h18M5 30h8M14 30h16M4 31h1M6 31h8M15 31h14M8 32h6M15 32h12M29 32h2M10 33h5M17 33h7M27 33h5M12 34h3M26 34h6M27 35h4M32 35h1M28 36h2M31 36h1M33 36h1M30 37h1M32 37h1" />
<path stroke="#000000" d="M16 2h4M14 3h1M20 3h2M32 3h3M12 4h1M22 4h2M29 4h2M35 4h1M24 5h4M31 5h3M35 5h1M11 6h1M18 6h2M25 6h1M29 6h5M35 6h1M17 7h1M20 7h1M29 7h5M35 7h1M6 8h5M17 8h1M21 8h1M30 8h3M35 8h1M4 9h1M10 9h1M21 9h5M30 9h3M35 9h1M6 10h3M10 10h1M21 10h1M26 10h1M31 10h1M35 10h1M3 11h1M5 11h4M11 11h1M21 11h3M27 11h1M3 12h1M5 12h3M10 12h2M20 12h1M25 12h1M28 12h1M34 12h1M6 13h1M12 13h1M18 13h2M28 13h1M34 13h1M4 14h1M10 14h1M13 14h5M20 14h1M24 14h1M26 14h1M28 14h1M4 15h1M13 15h1M20 15h2M23 15h1M25 15h2M28 15h1M35 15h1M5 16h1M7 16h1M11 16h3M21 16h2M24 16h4M34 16h4M5 17h1M7 17h2M10 17h1M12 17h2M22 17h5M31 17h2M38 17h1M2 18h2M5 18h1M7 18h1M9 18h1M11 18h3M38 18h1M4 19h1M7 19h6M16 19h3M38 19h1M0 20h1M8 20h4M15 20h1M19 20h1M37 20h1M1 21h1M36 21h1M2 22h2M5 22h1M34 22h2M4 23h2M33 23h2M6 24h1M34 24h1M6 25h1M34 25h1M7 26h1M33 26h1M5 27h4M33 27h1M9 28h2M32 28h1M3 29h1M11 29h2M31 29h1M3 30h1M13 30h1M30 30h1M5 31h1M14 31h1M29 31h2M6 32h2M14 32h1M31 32h1M8 33h2M15 33h2M24 33h3M32 33h1M10 34h2M15 34h1M18 34h5M25 34h1M12 35h3M26 35h1M33 35h1M27 36h1M28 37h1M34 37h1M29 38h2M34 38h1M31 39h3" />
<path stroke="#4ac519" d="M31 3h1M28 4h1M10 7h1M28 7h1M5 8h1M29 8h1M3 10h1M24 11h1M35 11h1M22 12h3M4 13h1M21 13h1M24 13h3M6 14h1M8 14h2M21 14h1M25 14h1M35 14h1M5 15h1M7 15h1M10 15h2M22 15h1M24 15h1M10 16h1M23 16h1M9 17h1M11 17h1M1 18h1M8 18h1M10 18h1M0 19h1M27 32h2M17 34h1M23 34h1M33 34h1M34 36h1" />
</svg>