<svg xmlns="http://www.w3.org/2000/svg" viewBox="0 -0.5 56 56" shape-rendering="crispEdges">
<metadata>Made with Pixels to Svg https://codepen.io/shshaw/pen/XbxvNj</metadata>
<path stroke="#000000" d="M0 0h3M3 1h2M53 1h3M1 2h1M5 2h1M51 2h2M55 2h1M1 3h1M3 3h1M6 3h1M50 3h1M54 3h2M1 4h1M4 4h1M7 4h1M49 4h1M53 4h2M1 5h1M5 5h1M8 5h1M48 5h1M51 5h1M54 5h1M1 6h1M6 6h1M9 6h1M46 6h2M50 6h1M54 6h1M7 7h1M10 7h1M45 7h1M49 7h1M54 7h1M2 8h1M8 8h1M11 8h1M44 8h1M48 8h1M2 9h1M9 9h1M12 9h1M43 9h1M46 9h2M53 9h1M2 10h1M9 10h2M12 10h1M42 10h1M45 10h1M53 10h1M2 11h1M10 11h1M13 11h1M42 11h1M44 11h1M2 12h1M10 12h2M13 12h1M41 12h1M52 12h1M2 13h1M11 13h1M14 13h1M21 13h2M40 13h1M43 13h1M52 13h1M2 14h1M11 14h2M14 14h1M20 14h1M23 14h1M31 14h2M40 14h1M42 14h1M52 14h1M2 15h1M12 15h1M15 15h1M20 15h2M23 15h1M30 15h1M33 15h1M39 15h1M42 15h1M52 15h1M2 16h1M12 16h1M15 16h1M19 16h3M24 16h1M29 16h1M31 16h1M33 16h1M38 16h1M41 16h1M2 17h1M12 17h1M14 17h1M19 17h1M25 17h4M30 17h2M33 17h1M38 17h1M41 17h1M51 17h1M2 18h1M11 18h1M13 18h1M19 18h1M31 18h1M33 18h1M39 18h1M41 18h1M51 18h1M2 19h1M11 19h1M13 19h1M19 19h1M33 19h1M40 19h1M42 19h1M51 19h1M1 20h1M11 20h1M13 20h1M18 20h1M20 20h2M33 20h1M40 20h1M42 20h1M51 20h1M1 21h1M11 21h1M14 21h1M18 21h1M22 21h1M26 21h5M33 21h1M40 21h3M51 21h1M0 22h1M12 22h3M18 22h1M20 22h1M33 22h1M40 22h1M42 22h1M51 22h1M11 23h1M13 23h2M17 23h1M20 23h2M28 23h1M30 23h1M34 23h1M39 23h1M41 23h2M12 24h1M14 24h2M27 24h3M34 24h1M39 24h3M52 24h1M2 25h1M13 25h7M34 25h1M39 25h1M41 25h1M52 25h1M3 26h1M14 26h5M21 26h1M27 26h2M34 26h1M38 26h1M40 26h2M4 27h1M15 27h4M21 27h6M29 27h1M34 27h1M37 27h1M39 27h2M53 27h1M4 28h1M16 28h3M21 28h6M29 28h2M34 28h3M38 28h2M53 28h1M5 29h1M17 29h1M20 29h7M29 29h2M34 29h5M53 29h1M9 30h3M17 30h1M19 30h8M28 30h3M34 30h3M6 31h1M8 31h1M14 31h1M16 31h2M19 31h12M34 31h1M50 31h2M6 32h1M15 32h3M19 32h12M33 32h1M49 32h1M7 33h1M16 33h1M19 33h12M33 33h1M48 33h1M16 34h1M18 34h13M37 34h5M47 34h1M16 35h1M18 35h12M33 35h2M43 35h1M47 35h1M16 36h1M18 36h12M33 36h1M45 36h1M7 37h2M16 37h1M18 37h2M21 37h9M33 37h1M46 37h1M6 38h1M9 38h1M16 38h1M18 38h2M21 38h9M32 38h1M6 39h1M10 39h1M16 39h2M21 39h4M26 39h3M32 39h1M7 40h1M11 40h1M15 40h3M21 40h4M26 40h3M32 40h1M8 41h1M11 41h7M19 41h1M21 41h4M27 41h2M31 41h1M9 42h1M12 42h1M15 42h3M20 42h5M27 42h1M31 42h1M34 42h2M9 43h1M15 43h1M18 43h1M22 43h4M30 43h1M33 43h1M36 43h1M10 44h1M14 44h1M19 44h2M27 44h4M32 44h1M36 44h1M10 45h1M13 45h1M22 45h7M31 45h2M35 45h1M10 46h1M13 46h1M28 46h1M32 46h1M35 46h1M10 47h1M13 47h1M29 47h1M35 47h1M10 48h1M13 48h1M30 48h1M34 48h1M11 49h2M31 49h1M34 49h1M31 50h1M34 50h1M31 51h1M34 51h1M31 52h1M34 52h1M31 53h1M34 53h1M32 54h2" />
<path stroke="#ffffff" d="M3 0h53M5 1h48M0 2h1M6 2h45M0 3h1M7 3h43M0 4h1M8 4h41M55 4h1M0 5h1M9 5h39M55 5h1M0 6h1M10 6h36M55 6h1M0 7h1M11 7h34M55 7h1M0 8h2M12 8h32M55 8h1M0 9h2M13 9h30M54 9h2M0 10h2M13 10h29M54 10h2M0 11h2M14 11h28M54 11h2M0 12h2M14 12h27M53 12h3M0 13h2M15 13h6M23 13h17M53 13h3M0 14h2M15 14h5M24 14h7M33 14h7M53 14h3M0 15h2M3 15h1M5 15h1M16 15h4M24 15h6M34 15h5M53 15h3M0 16h2M4 16h1M6 16h1M16 16h3M25 16h4M34 16h4M53 16h3M0 17h2M3 17h1M5 17h1M15 17h4M34 17h4M52 17h4M0 18h2M4 18h1M14 18h5M34 18h5M46 18h1M52 18h4M0 19h2M3 19h1M7 19h1M9 19h1M14 19h4M34 19h6M47 19h1M49 19h1M52 19h4M0 20h1M2 20h1M4 20h3M8 20h1M14 20h4M19 20h1M34 20h6M46 20h1M48 20h1M50 20h1M52 20h4M0 21h1M3 21h3M7 21h1M15 21h3M19 21h1M21 21h1M34 21h6M44 21h1M47 21h1M49 21h1M52 21h4M2 22h5M8 22h1M15 22h3M21 22h1M27 22h1M29 22h2M34 22h6M45 22h2M48 22h1M50 22h1M52 22h4M1 23h7M15 23h2M27 23h1M29 23h1M35 23h4M44 23h1M46 23h2M51 23h1M53 23h3M0 24h1M2 24h6M16 24h1M35 24h4M45 24h2M48 24h2M53 24h3M0 25h2M3 25h4M35 25h4M44 25h1M46 25h5M53 25h3M0 26h3M4 26h3M19 26h1M35 26h3M44 26h8M54 26h2M0 27h4M5 27h2M19 27h2M27 27h1M35 27h2M44 27h8M54 27h2M0 28h4M5 28h2M19 28h1M27 28h2M45 28h8M54 28h2M0 29h5M6 29h1M27 29h1M45 29h8M54 29h2M0 30h5M6 30h1M45 30h7M54 30h2M0 31h6M9 31h4M45 31h5M52 31h4M0 32h6M8 32h7M46 32h3M50 32h6M0 33h7M8 33h8M46 33h2M49 33h7M0 34h16M46 34h1M48 34h8M0 35h16M36 35h7M46 35h1M48 35h8M0 36h16M34 36h11M46 36h1M48 36h8M0 37h7M9 37h7M34 37h12M47 37h9M0 38h6M10 38h6M20 38h1M33 38h23M0 39h6M11 39h5M19 39h2M33 39h23M0 40h7M12 40h2M19 40h1M25 40h1M33 40h23M0 41h8M25 41h2M32 41h24M0 42h9M26 42h1M32 42h2M36 42h20M0 43h9M17 43h1M31 43h2M37 43h19M0 44h10M15 44h4M31 44h1M37 44h19M0 45h10M14 45h8M36 45h20M0 46h10M14 46h14M36 46h20M0 47h10M14 47h15M36 47h20M0 48h10M14 48h16M35 48h21M0 49h11M13 49h18M35 49h21M0 50h31M35 50h21M0 51h31M35 51h21M0 52h31M35 52h21M0 53h31M35 53h21M0 54h32M34 54h22M0 55h56" />
<path stroke="#3a7b00" d="M0 1h1M2 2h2M53 2h2M4 3h2M52 3h2M5 4h2M51 4h2M6 5h2M50 5h1M7 6h2M49 6h1M1 7h1M8 7h2M48 7h1M9 8h2M46 8h2M54 8h1M10 9h2M45 9h1M11 10h1M44 10h1M11 11h2M53 11h1M12 12h1M42 12h2M12 13h2M41 13h2M13 14h1M22 14h1M41 14h1M13 15h2M22 15h1M40 15h2M11 16h1M13 16h2M22 16h2M30 16h1M32 16h1M39 16h2M52 16h1M8 17h4M13 17h1M20 17h2M29 17h1M32 17h1M39 17h2M6 18h2M10 18h1M12 18h1M28 18h3M32 18h1M40 18h1M42 18h1M4 19h2M10 19h1M12 19h1M18 19h1M20 19h1M29 19h4M41 19h1M43 19h1M3 20h1M9 20h1M12 20h1M22 20h1M28 20h5M41 20h1M44 20h1M2 21h1M9 21h1M12 21h2M20 21h1M31 21h2M45 21h2M1 22h1M9 22h1M19 22h1M22 22h1M26 22h1M28 22h1M31 22h2M41 22h1M47 22h1M0 23h1M8 23h1M12 23h1M26 23h1M31 23h3M40 23h1M48 23h2M52 23h1M1 24h1M8 24h1M13 24h1M17 24h1M30 24h4M43 24h1M50 24h1M7 25h1M20 25h2M27 25h7M40 25h1M43 25h1M51 25h1M7 26h1M22 26h5M29 26h5M39 26h1M43 26h1M52 26h2M7 27h1M30 27h4M38 27h1M43 27h1M52 27h1M7 28h1M15 28h1M20 28h1M31 28h3M37 28h1M44 28h1M7 29h1M16 29h1M18 29h2M28 29h1M31 29h3M44 29h1M5 30h1M12 30h1M16 30h1M18 30h1M27 30h1M31 30h3M44 30h1M52 30h2M7 31h1M13 31h1M18 31h1M31 31h3M44 31h1M7 32h1M18 32h1M31 32h2M45 32h1M18 33h1M31 33h2M45 33h1M31 34h3M36 34h1M42 34h1M45 34h1M30 35h3M35 35h1M44 35h2M31 36h2M47 36h1M20 37h1M31 37h2M31 38h1M9 39h1M18 39h1M25 39h1M29 39h1M31 39h1M8 40h3M14 40h1M20 40h1M31 40h1M9 41h2M20 41h1M30 41h1M10 42h2M13 42h2M19 42h1M25 42h1M28 42h1M30 42h1M10 43h5M16 43h1M21 43h1M26 43h1M29 43h1M11 44h3M21 44h1M33 44h1M11 45h2M29 45h2M33 45h2M11 46h2M29 46h3M33 46h2M11 47h2M30 47h5M11 48h2M31 48h3M32 49h2M32 50h2M32 51h2M32 52h2M32 53h2" />
<path stroke="#ef639c" d="M1 1h2M4 2h1M2 3h1M51 3h1M2 4h2M50 4h1M2 5h3M49 5h1M52 5h2M2 6h4M48 6h1M51 6h3M2 7h5M46 7h2M50 7h4M3 8h5M45 8h1M49 8h5M3 9h6M44 9h1M48 9h5M3 10h6M43 10h1M46 10h7M3 11h7M43 11h1M45 11h8M3 12h7M44 12h8M3 13h8M44 13h8M3 14h8M21 14h1M43 14h9M4 15h1M6 15h6M31 15h2M43 15h9M3 16h1M5 16h1M7 16h4M42 16h10M4 17h1M6 17h2M22 17h3M42 17h9M3 18h1M5 18h1M8 18h2M20 18h8M43 18h3M47 18h4M6 19h1M8 19h1M21 19h8M44 19h3M48 19h1M50 19h1M7 20h1M10 20h1M23 20h5M43 20h1M45 20h1M47 20h1M49 20h1M6 21h1M8 21h1M10 21h1M23 21h3M43 21h1M48 21h1M50 21h1M7 22h1M10 22h2M23 22h3M43 22h2M49 22h1M9 23h2M18 23h2M22 23h4M43 23h1M45 23h1M50 23h1M9 24h3M18 24h9M42 24h1M44 24h1M47 24h1M51 24h1M8 25h5M22 25h5M42 25h1M45 25h1M8 26h6M20 26h1M42 26h1M8 27h7M28 27h1M41 27h2M8 28h7M40 28h4M8 29h8M39 29h5M7 30h2M13 30h3M37 30h7M15 31h1M35 31h9M34 32h11M17 33h1M34 33h11M17 34h1M34 34h2M43 34h2M17 35h1M17 36h1M30 36h1M17 37h1M30 37h1M7 38h2M17 38h1M30 38h1M7 39h2M30 39h1M18 40h1M29 40h2M18 41h1M29 41h1M18 42h1M29 42h1M19 43h2M27 43h2M34 43h2M22 44h5M34 44h2" />
</svg>