<svg xmlns="http://www.w3.org/2000/svg" viewBox="0 -0.5 40 40" shape-rendering="crispEdges">
<metadata>Made with Pixels to Svg https://codepen.io/shshaw/pen/XbxvNj</metadata>
<path stroke="#ffffff" d="M0 0h40M0 1h40M0 2h15M20 2h20M0 3h12M16 3h3M22 3h18M0 4h10M12 4h1M15 4h5M24 4h16M0 5h9M11 5h1M14 5h6M25 5h15M0 6h9M11 6h1M14 6h5M22 6h3M26 6h14M0 7h8M15 7h2M21 7h2M27 7h13M0 8h8M20 8h1M27 8h13M0 9h8M23 9h2M28 9h12M0 10h8M22 10h4M28 10h12M0 11h8M22 11h4M29 11h11M0 12h7M23 12h2M29 12h11M0 13h7M11 13h2M29 13h11M0 14h4M10 14h1M28 14h12M0 15h2M4 15h2M11 15h1M28 15h12M0 16h1M2 16h2M7 16h1M27 16h13M0 17h1M7 17h1M26 17h14M0 18h2M25 18h15M0 19h3M25 19h11M39 19h1M0 20h4M24 20h11M0 21h4M11 21h4M23 21h11M0 22h4M8 22h1M11 22h1M13 22h3M23 22h10M34 22h2M0 23h5M7 23h1M24 23h9M34 23h1M36 23h2M0 24h6M25 24h7M36 24h2M39 24h1M0 25h7M25 25h7M39 25h1M0 26h9M15 26h1M25 26h6M38 26h2M0 27h9M17 27h2M24 27h5M37 27h3M0 28h9M12 28h1M23 28h2M35 28h5M0 29h10M13 29h1M33 29h7M0 30h10M13 30h3M30 30h10M0 31h11M14 31h5M26 31h14M0 32h11M12 32h1M15 32h25M0 33h12M13 33h1M17 33h10M31 33h9M0 34h13M21 34h3M33 34h7M0 35h15M34 35h6M0 36h17M20 36h1M34 36h6M0 37h20M22 37h1M34 37h6M0 38h22M25 38h1M33 38h7M0 39h25M32 39h8" />
<path stroke="#9c9cff" d="M15 2h1M19 2h1M19 3h1M20 4h3M13 5h1M20 5h4M13 6h1M19 6h3M12 7h3M17 7h4M23 7h3M11 8h9M21 8h2M11 9h11M10 10h11M9 11h11M7 12h13M8 13h3M13 13h6M8 14h2M13 14h6M6 15h1M8 15h2M14 15h5M4 16h2M9 16h1M14 16h6M2 17h4M9 17h2M13 17h7M3 18h2M8 18h13M5 19h2M8 19h4M13 19h11M5 20h2M8 20h3M15 20h8M36 20h1M38 20h1M5 21h3M16 21h5M35 21h1M37 21h2M5 22h2M9 22h1M17 22h3M21 22h1M37 22h2M6 23h1M8 23h4M16 23h1M20 23h3M38 23h1M8 24h6M15 24h9M33 24h2M13 25h1M15 25h9M33 25h5M10 26h1M16 26h8M32 26h5M10 27h1M13 27h2M19 27h4M31 27h4M10 28h1M14 28h3M29 28h4M11 29h1M16 29h4M25 29h5M11 30h1M19 30h7M12 31h1M13 32h1M14 33h1M15 34h2M27 34h4M17 35h4M24 35h4M31 35h2M21 36h10M23 37h10M26 38h6" />
<path stroke="#000000" d="M16 2h3M12 3h4M20 3h2M11 4h1M13 4h2M23 4h1M10 5h1M12 5h1M24 5h1M9 6h2M12 6h1M25 6h1M9 7h3M26 7h1M8 8h1M10 8h1M23 8h4M8 9h1M10 9h1M22 9h1M25 9h3M8 10h2M21 10h1M26 10h2M8 11h1M20 11h2M26 11h3M20 12h3M25 12h1M27 12h2M7 13h1M19 13h5M27 13h2M4 14h4M11 14h2M19 14h3M27 14h1M2 15h2M7 15h1M10 15h1M13 15h1M19 15h2M27 15h1M1 16h1M6 16h1M8 16h1M10 16h1M13 16h1M20 16h1M26 16h1M1 17h1M6 17h1M8 17h1M11 17h2M20 17h1M25 17h1M2 18h1M5 18h3M21 18h1M23 18h2M3 19h2M7 19h1M12 19h1M24 19h1M36 19h3M4 20h1M7 20h1M11 20h4M23 20h1M35 20h1M37 20h1M39 20h1M4 21h1M8 21h3M15 21h1M21 21h2M34 21h1M36 21h1M39 21h1M4 22h1M7 22h1M10 22h1M12 22h1M16 22h1M20 22h1M22 22h1M33 22h1M36 22h1M39 22h1M5 23h1M12 23h4M17 23h3M23 23h1M33 23h1M35 23h1M39 23h1M6 24h2M14 24h1M24 24h1M32 24h1M35 24h1M38 24h1M7 25h6M14 25h1M24 25h1M32 25h1M38 25h1M9 26h1M11 26h4M24 26h1M31 26h1M37 26h1M9 27h1M11 27h2M15 27h2M23 27h1M29 27h2M35 27h2M9 28h1M11 28h1M13 28h1M17 28h6M25 28h4M33 28h2M10 29h1M12 29h1M14 29h2M20 29h5M30 29h3M10 30h1M12 30h1M16 30h3M26 30h4M11 31h1M13 31h1M19 31h7M11 32h1M14 32h1M12 33h1M15 33h2M27 33h4M13 34h2M17 34h4M24 34h3M31 34h2M15 35h2M21 35h3M28 35h3M33 35h1M17 36h3M31 36h3M20 37h2M33 37h1M22 38h3M32 38h1M25 39h7" />
<path stroke="#429c6b" d="M10 4h1M9 5h1M8 7h1M9 8h1M9 9h1M26 12h1M24 13h3M22 14h5M12 15h1M21 15h6M11 16h2M21 16h5M21 17h4M22 18h1" />
</svg>