<svg xmlns="http://www.w3.org/2000/svg" viewBox="0 -0.5 48 48" shape-rendering="crispEdges">
<metadata>Made with Pixels to Svg https://codepen.io/shshaw/pen/XbxvNj</metadata>
<path stroke="#ffffff" d="M0 0h48M0 1h19M23 1h25M0 2h16M19 2h4M25 2h2M33 2h15M0 3h14M16 3h8M35 3h13M0 4h13M14 4h11M28 4h3M37 4h11M0 5h12M13 5h12M27 5h5M38 5h10M0 6h11M12 6h13M27 6h5M39 6h9M0 7h10M11 7h1M17 7h7M28 7h4M42 7h6M0 8h10M19 8h4M24 8h1M28 8h3M44 8h4M0 9h9M21 9h1M23 9h1M25 9h1M33 9h2M45 9h3M0 10h8M13 10h3M22 10h1M24 10h1M33 10h2M45 10h3M0 11h8M12 11h5M21 11h1M23 11h1M25 11h1M46 11h2M0 12h7M12 12h5M24 12h1M46 12h2M0 13h7M12 13h5M22 13h1M46 13h2M0 14h6M13 14h3M45 14h3M0 15h6M31 15h1M40 15h1M44 15h4M0 16h6M17 16h2M39 16h1M41 16h1M43 16h5M0 17h6M17 17h2M23 17h1M27 17h2M36 17h1M38 17h1M40 17h1M43 17h5M0 18h5M22 18h1M27 18h2M37 18h1M39 18h1M42 18h6M0 19h4M5 19h1M22 19h1M38 19h1M40 19h1M42 19h6M0 20h4M5 20h2M22 20h1M24 20h1M37 20h1M39 20h1M42 20h6M0 21h2M4 21h3M21 21h1M24 21h2M41 21h7M0 22h1M2 22h3M6 22h2M20 22h2M23 22h6M39 22h9M1 23h4M7 23h2M19 23h2M22 23h7M37 23h1M42 23h6M1 24h1M3 24h1M5 24h1M9 24h1M17 24h2M21 24h7M29 24h1M37 24h1M44 24h4M2 25h1M4 25h1M6 25h1M22 25h5M28 25h1M30 25h1M36 25h1M45 25h3M0 26h1M3 26h1M5 26h1M29 26h1M46 26h2M0 27h2M46 27h2M0 28h3M21 28h1M23 28h2M35 28h2M47 28h1M0 29h5M24 29h3M34 29h4M47 29h1M0 30h9M34 30h5M47 30h1M0 31h3M7 31h1M36 31h3M46 31h2M0 32h2M3 32h4M37 32h3M46 32h2M0 33h1M2 33h7M32 33h1M38 33h2M45 33h3M0 34h1M2 34h8M32 34h2M38 34h3M45 34h3M1 35h10M27 35h2M33 35h1M39 35h2M46 35h2M1 36h9M11 36h1M27 36h2M33 36h1M39 36h2M46 36h2M2 37h1M4 37h5M10 37h1M27 37h2M33 37h1M39 37h1M45 37h1M47 37h1M1 38h1M3 38h5M9 38h1M11 38h1M28 38h1M33 38h2M42 38h1M47 38h1M0 39h1M2 39h1M4 39h5M10 39h1M23 39h1M28 39h1M33 39h2M42 39h2M46 39h2M0 40h1M5 40h4M19 40h1M32 40h4M43 40h5M0 41h2M6 41h4M19 41h1M32 41h4M45 41h3M0 42h3M8 42h3M19 42h2M28 42h1M31 42h5M46 42h2M0 43h4M10 43h2M20 43h2M28 43h7M44 43h2M47 43h1M0 44h5M22 44h2M27 44h9M38 44h2M47 44h1M0 45h6M23 45h18M46 45h2M0 46h8M16 46h2M23 46h20M45 46h3M0 47h11M14 47h6M22 47h26" />
<path stroke="#29a500" d="M19 1h1M16 2h1M14 3h1M27 3h6M26 4h2M31 4h4M32 5h5M34 6h4M35 7h4M12 8h5M36 8h3M10 9h8M36 9h4M9 10h4M17 10h1M37 10h3M9 11h3M37 11h3M8 12h4M36 12h3M8 13h3M19 13h2M33 13h1M35 13h1M37 13h2M7 14h4M18 14h4M34 14h1M36 14h2M7 15h3M18 15h4M35 15h1M7 16h3M19 16h3M29 16h1M7 17h3M19 17h3M30 17h1M7 18h3M11 18h1M19 18h2M29 18h2M7 19h4M12 19h1M29 19h2M8 20h4M13 20h1M15 20h1M17 20h1M28 20h2M8 21h5M14 21h1M16 21h1M18 21h1M9 22h3M13 22h1M15 22h1M17 22h1M11 23h4M16 23h1M25 28h1M21 29h1M17 30h1M19 30h1M16 31h1M18 31h1M20 31h1" />
<path stroke="#000000" d="M20 1h3M17 2h2M23 2h2M27 2h6M15 3h1M24 3h3M33 3h2M13 4h1M25 4h1M35 4h2M12 5h1M26 5h1M37 5h1M11 6h1M26 6h1M32 6h2M38 6h1M10 7h1M12 7h5M27 7h1M32 7h3M39 7h3M10 8h2M17 8h2M27 8h1M31 8h5M39 8h1M42 8h2M9 9h1M18 9h2M28 9h5M35 9h1M40 9h1M44 9h1M8 10h1M16 10h1M18 10h3M29 10h4M35 10h2M40 10h1M44 10h1M8 11h1M17 11h4M29 11h8M40 11h1M45 11h1M7 12h1M17 12h5M30 12h6M39 12h1M45 12h1M7 13h1M11 13h1M17 13h2M21 13h1M31 13h2M34 13h1M36 13h1M39 13h1M45 13h1M6 14h1M11 14h2M16 14h2M22 14h1M31 14h1M33 14h1M35 14h1M38 14h1M44 14h1M6 15h1M10 15h8M22 15h1M27 15h4M34 15h1M36 15h2M43 15h1M6 16h1M10 16h7M22 16h3M26 16h3M30 16h1M42 16h1M6 17h1M10 17h7M22 17h1M25 17h2M29 17h1M31 17h1M42 17h1M5 18h2M10 18h1M12 18h7M21 18h1M25 18h2M31 18h1M41 18h1M4 19h1M6 19h1M11 19h1M13 19h9M25 19h4M31 19h1M41 19h1M4 20h1M7 20h1M12 20h1M14 20h1M16 20h1M18 20h4M26 20h2M30 20h1M41 20h1M2 21h2M7 21h1M13 21h1M15 21h1M17 21h1M19 21h2M27 21h5M38 21h3M1 22h1M8 22h1M12 22h1M14 22h1M16 22h1M18 22h2M30 22h2M37 22h2M0 23h1M9 23h2M15 23h1M17 23h2M31 23h2M36 23h1M38 23h4M0 24h1M11 24h6M32 24h1M36 24h1M38 24h1M42 24h2M0 25h1M32 25h2M35 25h1M37 25h1M44 25h1M1 26h1M33 26h1M35 26h7M45 26h1M2 27h1M20 27h6M33 27h2M36 27h1M39 27h4M45 27h1M3 28h2M18 28h3M22 28h1M26 28h5M34 28h1M37 28h1M40 28h4M46 28h1M5 29h4M16 29h5M22 29h2M27 29h7M38 29h1M41 29h3M46 29h1M9 30h8M18 30h1M20 30h10M39 30h1M41 30h3M46 30h1M3 31h3M8 31h2M11 31h2M14 31h2M17 31h1M19 31h1M21 31h2M25 31h7M39 31h1M41 31h2M45 31h1M2 32h1M7 32h2M10 32h1M12 32h1M16 32h8M26 32h3M30 32h4M40 32h3M45 32h1M1 33h1M9 33h1M11 33h1M15 33h2M19 33h2M22 33h2M27 33h3M31 33h1M33 33h2M40 33h2M44 33h1M1 34h1M10 34h2M15 34h1M17 34h1M20 34h3M27 34h2M30 34h2M34 34h2M41 34h1M43 34h2M0 35h1M11 35h1M14 35h1M18 35h3M26 35h1M29 35h1M31 35h2M34 35h1M36 35h1M41 35h1M43 35h1M45 35h1M0 36h1M12 36h1M14 36h1M17 36h2M25 36h2M29 36h2M32 36h1M34 36h1M36 36h1M41 36h2M45 36h1M0 37h1M12 37h1M14 37h1M16 37h1M23 37h2M26 37h1M29 37h1M32 37h1M34 37h1M37 37h1M41 37h3M46 37h1M0 38h1M13 38h3M20 38h4M27 38h1M29 38h1M32 38h1M35 38h1M37 38h1M41 38h1M43 38h1M46 38h1M1 39h1M13 39h2M19 39h1M22 39h1M24 39h1M27 39h1M29 39h1M32 39h1M35 39h1M37 39h1M41 39h1M44 39h2M1 40h1M15 40h1M18 40h1M20 40h1M23 40h2M28 40h1M31 40h1M36 40h2M40 40h1M42 40h1M2 41h1M16 41h1M18 41h1M20 41h1M25 41h2M28 41h1M31 41h1M36 41h2M40 41h1M43 41h2M3 42h1M17 42h2M21 42h1M27 42h1M29 42h2M36 42h1M39 42h1M45 42h1M4 43h1M17 43h1M19 43h1M22 43h2M27 43h1M35 43h1M38 43h2M46 43h1M5 44h1M17 44h1M20 44h2M24 44h3M36 44h2M40 44h1M46 44h1M6 45h2M16 45h2M22 45h1M41 45h2M45 45h1M8 46h3M14 46h2M18 46h2M22 46h1M43 46h2M11 47h3M20 47h2" />
<path stroke="#8ca5ff" d="M25 5h1M25 6h1M24 7h3M23 8h1M25 8h2M40 8h2M20 9h1M22 9h1M24 9h1M26 9h2M41 9h3M21 10h1M23 10h1M25 10h4M41 10h3M22 11h1M24 11h1M26 11h3M41 11h4M22 12h2M25 12h5M40 12h5M23 13h8M40 13h5M23 14h8M32 14h1M39 14h5M23 15h4M32 15h2M38 15h2M41 15h2M25 16h1M31 16h8M40 16h1M24 17h1M32 17h4M37 17h1M39 17h1M41 17h1M23 18h2M32 18h5M38 18h1M40 18h1M23 19h2M32 19h6M39 19h1M23 20h1M25 20h1M31 20h6M38 20h1M40 20h1M22 21h2M26 21h1M32 21h6M5 22h1M22 22h1M29 22h1M32 22h5M5 23h2M21 23h1M29 23h2M33 23h3M2 24h1M4 24h1M6 24h3M10 24h1M19 24h2M28 24h1M30 24h2M33 24h3M39 24h3M1 25h1M3 25h1M5 25h1M7 25h15M27 25h1M29 25h1M31 25h1M34 25h1M38 25h6M2 26h1M4 26h1M6 26h23M30 26h3M34 26h1M42 26h3M3 27h17M26 27h7M35 27h1M37 27h2M43 27h2M5 28h13M31 28h3M38 28h2M44 28h2M9 29h7M39 29h2M44 29h2M30 30h4M40 30h1M44 30h2M6 31h1M10 31h1M13 31h1M23 31h2M32 31h4M40 31h1M43 31h2M9 32h1M11 32h1M13 32h3M24 32h2M29 32h1M34 32h3M43 32h2M10 33h1M12 33h3M17 33h2M21 33h1M24 33h3M30 33h1M35 33h3M42 33h2M12 34h3M16 34h1M18 34h2M23 34h4M29 34h1M36 34h2M42 34h1M12 35h2M15 35h3M21 35h5M30 35h1M35 35h1M37 35h2M42 35h1M44 35h1M10 36h1M13 36h1M15 36h2M19 36h6M31 36h1M35 36h1M37 36h2M43 36h2M1 37h1M3 37h1M9 37h1M11 37h1M13 37h1M15 37h1M17 37h6M25 37h1M30 37h2M35 37h2M38 37h1M40 37h1M44 37h1M2 38h1M8 38h1M10 38h1M12 38h1M16 38h4M24 38h3M30 38h2M36 38h1M38 38h3M44 38h2M3 39h1M9 39h1M11 39h2M15 39h4M20 39h2M25 39h2M30 39h2M36 39h1M38 39h3M2 40h3M9 40h6M16 40h2M21 40h2M25 40h3M29 40h2M38 40h2M41 40h1M3 41h3M10 41h6M17 41h1M21 41h4M27 41h1M29 41h2M38 41h2M41 41h2M4 42h4M11 42h6M22 42h5M37 42h2M40 42h5M5 43h5M12 43h5M18 43h1M24 43h3M36 43h2M40 43h4M6 44h11M18 44h2M41 44h5M8 45h8M18 45h4M43 45h2M11 46h3M20 46h2" />
</svg>