<svg xmlns="http://www.w3.org/2000/svg" viewBox="0 -0.5 48 48" shape-rendering="crispEdges">
<metadata>Made with Pixels to Svg https://codepen.io/shshaw/pen/XbxvNj</metadata>
<path stroke="#ffffff" d="M0 0h48M0 1h48M0 2h48M0 3h18M22 3h2M30 3h18M0 4h16M33 4h15M0 5h14M34 5h14M0 6h13M35 6h13M0 7h12M36 7h12M0 8h12M37 8h11M0 9h11M32 9h3M38 9h1M42 9h6M0 10h10M31 10h4M45 10h3M0 11h9M33 11h1M40 11h2M46 11h2M0 12h9M41 12h4M47 12h1M0 13h8M34 13h2M43 13h2M47 13h1M0 14h5M33 14h3M0 15h3M5 15h2M0 16h2M5 16h2M0 17h1M36 17h2M47 17h1M0 18h1M4 18h2M35 18h3M47 18h1M4 19h1M12 19h2M46 19h2M12 20h2M45 20h3M11 21h2M45 21h3M4 22h2M11 22h2M20 22h1M46 22h2M0 23h1M11 23h1M18 23h3M44 23h1M46 23h2M0 24h1M11 24h1M19 24h2M36 24h1M43 24h2M46 24h2M0 25h1M11 25h1M32 25h2M36 25h2M40 25h1M43 25h2M46 25h2M0 26h1M9 26h1M33 26h1M36 26h2M40 26h2M43 26h2M46 26h2M0 27h2M40 27h2M43 27h1M45 27h3M0 28h2M43 28h1M45 28h3M0 29h3M44 29h4M0 30h4M45 30h3M0 31h7M45 31h3M0 32h8M46 32h2M0 33h9M46 33h2M0 34h9M46 34h2M0 35h8M46 35h2M0 36h8M46 36h2M0 37h8M45 37h3M0 38h9M45 38h3M0 39h9M35 39h2M44 39h4M0 40h10M35 40h1M43 40h5M0 41h12M30 41h5M36 41h3M41 41h7M0 42h13M26 42h22M0 43h14M26 43h22M0 44h13M25 44h23M0 45h12M13 45h2M16 45h2M20 45h2M25 45h23M0 46h13M24 46h24M0 47h48" />
<path stroke="#000000" d="M18 3h4M24 3h5M16 4h2M22 4h2M30 4h2M14 5h2M23 5h1M33 5h1M13 6h1M21 6h4M34 6h1M12 7h1M16 7h6M25 7h3M35 7h1M14 8h2M22 8h1M27 8h3M32 8h5M11 9h1M13 9h1M23 9h1M27 9h5M37 9h1M39 9h2M10 10h3M23 10h1M27 10h1M30 10h1M38 10h1M42 10h2M9 11h4M24 11h4M30 11h3M38 11h2M45 11h1M9 12h1M11 12h1M25 12h2M31 12h3M39 12h1M46 12h1M8 13h1M11 13h1M26 13h1M33 13h1M39 13h1M46 13h1M5 14h3M12 14h1M25 14h1M32 14h1M40 14h1M47 14h1M4 15h1M7 15h1M12 15h1M25 15h1M33 15h2M40 15h1M47 15h1M2 16h1M7 16h1M12 16h3M16 16h4M24 16h1M34 16h1M36 16h1M40 16h1M47 16h1M6 17h1M12 17h4M20 17h2M23 17h2M35 17h1M40 17h1M46 17h1M1 18h1M6 18h1M12 18h1M22 18h3M34 18h1M39 18h1M46 18h1M6 19h1M11 19h1M23 19h4M35 19h7M45 19h1M0 20h1M6 20h3M10 20h1M24 20h5M34 20h2M38 20h7M0 21h1M6 21h2M10 21h1M20 21h2M24 21h7M32 21h2M39 21h1M41 21h1M43 21h2M0 22h1M6 22h1M9 22h1M18 22h1M25 22h8M40 22h3M44 22h2M1 23h1M6 23h1M9 23h1M17 23h1M25 23h5M31 23h1M36 23h1M41 23h1M43 23h1M45 23h1M1 24h1M4 24h3M9 24h2M16 24h3M26 24h5M32 24h2M35 24h1M37 24h1M39 24h2M42 24h1M45 24h1M1 25h3M5 25h2M9 25h2M16 25h1M18 25h1M26 25h4M31 25h1M34 25h2M38 25h2M41 25h1M45 25h1M5 26h1M7 26h2M10 26h1M26 26h5M32 26h1M39 26h1M42 26h1M45 26h1M2 27h1M5 27h1M7 27h3M13 27h1M20 27h3M26 27h4M31 27h2M42 27h1M44 27h1M7 28h1M10 28h1M16 28h6M25 28h1M27 28h4M32 28h1M42 28h1M44 28h1M3 29h1M6 29h1M11 29h6M20 29h1M24 29h1M26 29h1M28 29h1M30 29h3M42 29h2M4 30h3M11 30h1M13 30h2M23 30h3M27 30h1M29 30h1M31 30h2M42 30h1M44 30h1M7 31h1M10 31h2M13 31h1M19 31h1M22 31h3M26 31h1M28 31h1M30 31h2M42 31h1M44 31h1M8 32h5M18 32h1M22 32h2M25 32h1M27 32h1M31 32h1M42 32h1M45 32h1M9 33h4M14 33h4M21 33h2M31 33h1M42 33h1M45 33h1M9 34h1M11 34h3M20 34h1M22 34h2M31 34h1M41 34h1M45 34h1M12 35h8M23 35h2M32 35h1M41 35h1M45 35h1M8 36h1M12 36h2M15 36h1M17 36h1M19 36h1M23 36h2M31 36h2M40 36h1M45 36h1M8 37h1M13 37h2M16 37h1M18 37h1M20 37h6M29 37h2M33 37h2M38 37h2M44 37h1M9 38h1M14 38h2M17 38h1M19 38h1M21 38h1M26 38h3M33 38h2M37 38h1M44 38h1M16 39h3M20 39h2M28 39h1M32 39h3M37 39h1M43 39h1M10 40h2M18 40h5M29 40h4M34 40h1M36 40h3M41 40h2M12 41h1M18 41h1M20 41h9M35 41h1M39 41h2M13 42h5M25 42h1M14 43h1M25 43h1M13 44h1M24 44h1M12 45h1M24 45h1M13 46h2M18 46h6" />
<path stroke="#9c3a19" d="M29 3h1M18 4h4M24 4h1M26 4h1M28 4h2M32 4h1M16 5h7M24 5h2M27 5h1M29 5h4M15 6h1M17 6h4M25 6h2M28 6h6M14 7h1M22 7h3M28 7h7M12 8h2M16 8h1M18 8h1M20 8h2M23 8h4M30 8h2M12 9h1M15 9h1M17 9h1M19 9h4M24 9h3M35 9h1M41 9h1M14 10h1M16 10h1M18 10h1M20 10h3M24 10h3M28 10h2M35 10h1M44 10h1M13 11h1M15 11h1M17 11h1M19 11h5M28 11h2M34 11h1M12 12h1M14 12h1M16 12h9M27 12h4M34 12h2M10 13h1M12 13h14M27 13h6M36 13h1M9 14h1M11 14h1M13 14h12M26 14h6M36 14h1M3 15h1M8 15h1M10 15h2M13 15h12M26 15h7M35 15h2M4 16h1M9 16h1M11 16h1M15 16h1M20 16h4M25 16h9M37 16h1M1 17h1M4 17h2M7 17h2M10 17h2M22 17h1M25 17h10M38 17h1M3 18h1M7 18h5M25 18h9M38 18h1M0 19h1M3 19h1M5 19h1M7 19h4M27 19h8M9 20h1M29 20h5M36 20h2M4 21h2M8 21h2M31 21h1M34 21h5M40 21h1M42 21h1M3 22h1M7 22h2M19 22h1M21 22h1M33 22h7M43 22h1M4 23h2M7 23h2M21 23h1M30 23h1M32 23h4M37 23h4M42 23h1M7 24h2M21 24h1M31 24h1M34 24h1M38 24h1M41 24h1M7 25h2M17 25h1M19 25h2M30 25h1M42 25h1M1 26h1M6 26h1M22 26h1M31 26h1M34 26h1M38 26h1M6 27h1M19 27h1M30 27h1M33 27h2M36 27h3M2 28h1M6 28h1M8 28h2M15 28h1M26 28h1M31 28h1M40 28h2M7 29h4M17 29h3M25 29h1M27 29h1M29 29h1M7 30h4M15 30h5M26 30h1M28 30h1M30 30h1M8 31h2M14 31h5M25 31h1M27 31h1M29 31h1M13 32h5M24 32h1M26 32h1M28 32h3M23 33h8M19 34h1M21 34h1M24 34h7M8 35h1M20 35h3M25 35h7M14 36h1M16 36h1M18 36h1M20 36h3M25 36h6M15 37h1M17 37h1M19 37h1M26 37h3M31 37h2M16 38h1M18 38h1M20 38h1M22 38h4M29 38h4M35 38h2M9 39h1M13 39h3M19 39h1M22 39h6M29 39h3M12 40h6M23 40h6M33 40h1M13 41h5M19 41h1M29 41h1M24 42h1M14 44h1M16 44h2M20 44h2M15 45h1M19 45h1M22 45h2M15 46h3" />
<path stroke="#ce7b63" d="M25 4h1M27 4h1M26 5h1M28 5h1M14 6h1M16 6h1M27 6h1M13 7h1M15 7h1M17 8h1M19 8h1M14 9h1M16 9h1M18 9h1M36 9h1M13 10h1M15 10h1M17 10h1M19 10h1M36 10h2M39 10h3M14 11h1M16 11h1M18 11h1M35 11h3M42 11h3M10 12h1M13 12h1M15 12h1M36 12h3M40 12h1M45 12h1M9 13h1M37 13h2M40 13h3M45 13h1M8 14h1M10 14h1M37 14h3M41 14h6M9 15h1M37 15h3M41 15h6M3 16h1M8 16h1M10 16h1M35 16h1M38 16h2M41 16h6M2 17h2M9 17h1M16 17h4M39 17h1M41 17h5M2 18h1M13 18h9M40 18h6M1 19h2M14 19h9M42 19h3M1 20h5M11 20h1M14 20h10M1 21h3M13 21h7M22 21h2M1 22h2M10 22h1M13 22h5M22 22h3M2 23h2M10 23h1M12 23h5M22 23h3M2 24h2M12 24h4M22 24h4M4 25h1M12 25h4M21 25h5M2 26h3M11 26h11M23 26h3M35 26h1M3 27h2M10 27h3M14 27h5M23 27h3M35 27h1M39 27h1M3 28h3M11 28h4M22 28h3M33 28h7M4 29h2M21 29h3M33 29h9M12 30h1M20 30h3M33 30h9M43 30h1M12 31h1M20 31h2M32 31h10M43 31h1M19 32h3M32 32h10M43 32h2M13 33h1M18 33h3M32 33h10M43 33h2M10 34h1M14 34h5M32 34h9M42 34h3M9 35h3M33 35h8M42 35h3M9 36h3M33 36h7M41 36h4M9 37h4M35 37h3M40 37h4M10 38h4M38 38h6M10 39h3M38 39h5M39 40h2M18 42h6M15 43h10M15 44h1M18 44h2M22 44h2M18 45h1" />
</svg>