<svg xmlns="http://www.w3.org/2000/svg" viewBox="0 -0.5 96 96" shape-rendering="crispEdges">
<metadata>Made with Pixels to Svg https://codepen.io/shshaw/pen/XbxvNj</metadata>
<path stroke="#ff2100" d="M39 31h2M41 32h1M39 34h1M69 36h1M67 37h1M36 38h1M65 38h1M69 38h1M35 39h1M37 39h3M62 39h1M67 39h1M36 40h1M38 40h4M49 40h1M59 40h1M65 40h2M37 41h5M50 41h1M56 41h1M63 41h3M37 42h6M52 42h1M60 42h5M37 43h6M58 43h5M34 44h8M56 44h6M30 45h10M53 45h6M28 46h9M53 46h4M59 46h2M31 47h3M53 47h3M57 47h3M47 48h1M53 48h2M56 48h3M52 49h1M54 49h1M56 49h3M55 50h3M55 51h1M32 52h1M31 53h1M33 53h4M40 53h1M30 54h1M32 54h1M34 54h2M31 55h1M33 55h1M32 56h1M31 57h1M33 57h1M50 57h1M41 59h1M31 60h1M39 60h3M30 61h1M39 61h3M49 61h1M38 62h5M49 62h2M39 63h1M41 63h1M49 63h2M38 64h1M40 64h1M42 64h1M48 64h2M52 64h1M39 65h1M41 65h1M43 65h1M48 65h2M53 65h1M35 66h1M42 66h1M49 66h1M47 67h2M34 68h1M47 68h1M49 68h1M44 69h1" />
<path stroke="#000000" d="M39 32h1M39 33h1M42 33h1M43 34h1M31 35h2M40 35h1M44 35h1M30 36h1M33 36h3M40 36h1M44 36h1M70 36h1M31 37h1M36 37h2M41 37h1M45 37h1M68 37h1M71 37h1M32 38h1M38 38h2M41 38h1M46 38h1M66 38h1M70 38h1M33 39h1M40 39h2M47 39h1M63 39h2M68 39h2M34 40h1M42 40h1M48 40h1M60 40h2M67 40h1M35 41h1M42 41h1M57 41h2M66 41h1M33 42h2M36 42h1M43 42h1M50 42h1M53 42h3M65 42h1M29 43h4M36 43h1M43 43h1M51 43h1M63 43h2M25 44h4M51 44h2M54 44h2M62 44h1M24 45h1M40 45h2M50 45h2M59 45h3M25 46h3M37 46h3M48 46h2M51 46h2M57 46h2M61 46h1M28 47h3M34 47h3M47 47h3M56 47h1M60 47h1M31 48h3M46 48h1M48 48h3M52 48h1M55 48h1M59 48h1M28 49h3M49 49h3M55 49h1M59 49h1M27 50h1M50 50h2M54 50h1M58 50h1M28 51h5M54 51h1M56 51h2M31 52h1M33 52h6M55 52h2M29 53h2M37 53h1M39 53h1M55 53h1M27 54h2M36 54h1M55 54h1M25 55h2M35 55h1M55 55h1M24 56h1M34 56h1M55 56h1M25 57h6M34 57h1M54 57h1M31 58h3M40 58h2M49 58h1M54 58h1M32 59h1M38 59h3M42 59h1M49 59h1M54 59h1M36 60h3M42 60h1M49 60h2M54 60h1M33 61h3M38 61h1M42 61h1M48 61h1M50 61h1M54 61h1M31 62h2M37 62h1M43 62h1M48 62h1M51 62h1M54 62h1M37 63h1M43 63h1M48 63h1M51 63h2M54 63h1M36 64h1M43 64h1M47 64h1M50 64h1M54 64h1M36 65h1M47 65h1M50 65h1M44 66h1M47 66h1M50 66h1M35 67h1M44 67h1M46 67h1M50 67h1M44 68h1M46 68h1M50 68h1M34 69h1M46 69h1M50 69h1M33 70h1M45 70h1M51 70h1M32 71h1M51 71h1" />
<path stroke="#ffffff" d="M40 32h1M40 33h2M40 34h2M41 35h1M41 36h1M69 37h2M67 38h2M65 39h2M62 40h3M59 41h4M56 42h4M52 43h6M53 44h1M40 46h3M50 46h1M37 47h4M50 47h3M34 48h4M51 48h1M31 49h4M28 50h4M37 54h1M36 55h2M35 56h2M35 57h1M34 58h2M33 59h2M43 59h1M32 60h2M43 60h1M31 61h2M43 61h2M44 62h1M44 63h1M53 63h1M44 64h1M53 64h1M44 65h2M45 66h1M36 67h1M45 67h1M35 68h3M45 68h1M35 69h4M45 69h1M34 70h4M39 70h1M33 71h4M38 71h1M40 71h1" />
<path stroke="#ff9c00" d="M42 34h1M42 35h2M31 36h2M42 36h2M32 37h4M42 37h3M33 38h3M37 38h1M42 38h4M34 39h1M36 39h1M42 39h5M35 40h1M37 40h1M43 40h5M36 41h1M43 41h7M35 42h1M44 42h6M33 43h3M44 43h7M29 44h5M42 44h9M25 45h5M42 45h8M52 45h1M43 46h5M41 47h6M38 48h8M35 49h14M53 49h1M32 50h18M52 50h2M33 51h21M39 52h16M32 53h1M38 53h1M41 53h14M29 54h1M31 54h1M33 54h1M38 54h17M27 55h4M32 55h1M34 55h1M38 55h17M25 56h7M33 56h1M37 56h18M32 57h1M36 57h14M51 57h3M36 58h4M42 58h7M50 58h4M35 59h3M44 59h5M50 59h4M34 60h2M44 60h5M51 60h3M45 61h3M51 61h3M45 62h3M52 62h2M38 63h1M40 63h1M42 63h1M45 63h3M37 64h1M39 64h1M41 64h1M45 64h2M37 65h2M40 65h1M42 65h1M46 65h1M36 66h6M43 66h1M46 66h1M48 66h1M37 67h7M49 67h1M38 68h6M48 68h1M39 69h5M47 69h3M38 70h1M40 70h5M46 70h5M37 71h1M39 71h1M41 71h10" />
</svg>