<svg xmlns="http://www.w3.org/2000/svg" viewBox="0 -0.5 96 96" shape-rendering="crispEdges">
<metadata>Made with Pixels to Svg https://codepen.io/shshaw/pen/XbxvNj</metadata>
<path stroke="#a59c42" d="M64 24h1M64 25h1M64 26h1M67 26h1M64 27h1M67 27h1M67 31h1M46 32h1M49 32h1M55 33h1M48 34h3M66 34h1M49 35h5M44 36h2M51 36h4M65 36h1M67 36h1M52 37h3M59 37h1M71 37h1M46 39h1M53 39h1M55 39h2M66 39h1M48 40h1M50 40h1M54 40h1M56 40h3M27 41h1M53 41h1M55 41h5M70 41h1M26 42h1M52 42h1M54 42h6M65 42h1M70 42h1M26 43h1M53 43h1M55 43h4M50 44h1M52 44h1M54 44h5M64 44h1M66 44h1M25 45h1M35 45h1M49 45h1M51 45h1M53 45h6M48 46h1M50 46h1M52 46h1M54 46h5M60 46h2M65 46h1M35 47h2M39 47h1M49 47h1M51 47h8M60 47h2M64 47h1M34 48h1M36 48h3M42 48h1M48 48h1M50 48h1M52 48h6M59 48h2M36 49h6M47 49h1M49 49h1M51 49h6M58 49h5M33 50h8M46 50h1M48 50h1M50 50h6M57 50h7M67 50h1M35 51h4M41 51h1M43 51h1M45 51h1M47 51h1M49 51h5M56 51h7M67 51h1M34 52h2M40 52h1M42 52h1M44 52h1M46 52h16M66 52h1M31 53h3M41 53h1M43 53h18M62 53h1M66 53h1M25 54h1M29 54h4M37 54h2M40 54h24M65 54h1M27 55h6M35 55h5M41 55h23M27 56h7M35 56h5M41 56h21M65 56h1M28 57h7M36 57h4M41 57h18M62 57h1M27 58h1M30 58h6M37 58h4M42 58h14M62 58h1M26 59h4M32 59h5M38 59h3M42 59h14M62 59h1M27 60h5M34 60h8M43 60h13M30 61h4M35 61h20M32 62h3M36 62h19M34 63h5M40 63h14M33 64h3M37 64h1M39 64h1M41 64h1M43 64h10M34 65h1M36 65h1M38 65h1M40 65h1M42 65h1M46 65h5M37 66h1M39 66h1M41 66h1M35 67h1M37 68h1M52 68h1M39 69h1M50 69h5M41 70h2M52 70h3M42 71h2M52 71h4" />
<path stroke="#000000" d="M65 24h2M67 25h2M68 26h2M70 27h1M64 28h1M67 28h1M70 28h1M64 29h1M67 29h1M71 29h1M64 30h1M67 30h1M71 30h1M64 31h1M71 31h1M47 32h2M64 32h1M66 32h1M71 32h1M46 33h1M50 33h2M56 33h1M64 33h1M66 33h1M71 33h1M47 34h1M52 34h3M57 34h1M64 34h1M68 34h2M71 34h1M48 35h1M54 35h1M58 35h1M63 35h1M65 35h1M67 35h1M69 35h1M71 35h1M46 36h2M49 36h2M55 36h1M58 36h1M63 36h1M69 36h1M71 36h1M44 37h1M48 37h4M55 37h1M63 37h1M66 37h1M70 37h1M45 38h1M51 38h6M59 38h1M63 38h1M66 38h1M70 38h1M47 39h1M50 39h2M57 39h3M62 39h1M70 39h1M28 40h2M49 40h1M59 40h1M62 40h1M65 40h1M68 40h1M70 40h1M30 41h1M48 41h1M60 41h1M62 41h1M65 41h1M67 41h1M69 41h1M31 42h1M47 42h1M60 42h3M67 42h1M69 42h1M32 43h1M47 43h1M59 43h3M64 43h1M66 43h1M70 43h1M26 44h2M33 44h1M46 44h1M59 44h3M70 44h1M27 45h2M34 45h1M46 45h1M59 45h2M65 45h1M70 45h1M25 46h1M29 46h2M35 46h2M46 46h1M59 46h1M70 46h1M25 47h1M31 47h1M37 47h2M45 47h1M59 47h1M69 47h1M24 48h3M32 48h2M39 48h3M44 48h1M58 48h1M66 48h1M69 48h1M24 49h1M27 49h2M34 49h2M42 49h2M57 49h1M65 49h1M67 49h2M24 50h1M29 50h2M41 50h2M56 50h1M64 50h1M68 50h1M25 51h1M30 51h5M39 51h2M54 51h2M63 51h1M68 51h1M25 52h1M28 52h2M36 52h3M62 52h1M67 52h1M26 53h2M34 53h2M39 53h1M61 53h1M67 53h1M33 54h1M39 54h1M66 54h1M25 55h1M33 55h1M40 55h1M64 55h2M26 56h1M34 56h1M40 56h1M62 56h2M25 57h1M27 57h1M35 57h1M40 57h1M59 57h3M65 57h1M24 58h1M28 58h2M36 58h1M41 58h1M56 58h3M65 58h1M24 59h1M30 59h2M37 59h1M41 59h1M64 59h1M25 60h2M32 60h2M42 60h1M62 60h1M64 60h1M27 61h3M34 61h1M61 61h1M63 61h1M30 62h2M35 62h1M61 62h2M32 63h2M61 63h1M32 64h1M60 64h1M33 65h1M60 65h1M34 66h1M48 66h4M59 66h1M36 67h1M47 67h1M52 67h1M58 67h1M38 68h1M48 68h2M53 68h2M57 68h1M40 69h2M49 69h1M55 69h2M40 70h1M43 70h2M50 70h1M55 70h1M41 71h1M44 71h4M50 71h1M56 71h1" />
<path stroke="#ffffff" d="M65 25h2M65 26h1M66 27h1M68 27h1M65 28h1M69 28h1M66 29h1M68 29h1M70 29h1M69 30h1M70 31h1M55 34h2M68 35h1M48 36h1M45 37h1M68 37h1M46 38h1M67 38h1M69 38h1M28 41h2M27 42h2M30 42h1M27 43h1M29 43h1M28 44h1M30 44h1M26 45h1M29 45h1M26 46h1M28 46h1M27 47h1M25 49h1M26 50h1M30 52h2M28 53h2M36 53h2M26 54h1M64 56h1M63 57h2M25 58h1M61 58h1M63 58h2M60 59h1M63 59h1M59 60h1M61 60h1M63 60h1M60 61h1M62 61h1M59 62h1M60 63h1M48 67h4M39 68h4M50 68h2M42 69h3" />
<path stroke="#f7e663" d="M66 26h1M65 27h1M69 27h1M66 28h1M68 28h1M65 29h1M69 29h1M65 30h2M68 30h1M70 30h1M65 31h2M68 31h2M65 32h1M67 32h4M47 33h3M65 33h1M67 33h4M51 34h1M65 34h1M67 34h1M70 34h1M55 35h3M64 35h1M66 35h1M70 35h1M56 36h2M64 36h1M66 36h1M68 36h1M70 36h1M46 37h2M56 37h3M64 37h2M67 37h1M69 37h1M47 38h4M57 38h2M64 38h2M68 38h1M48 39h2M52 39h1M54 39h1M63 39h3M67 39h3M51 40h3M55 40h1M63 40h2M66 40h2M69 40h1M49 41h4M54 41h1M63 41h2M66 41h1M68 41h1M29 42h1M48 42h4M53 42h1M63 42h2M66 42h1M68 42h1M28 43h1M30 43h2M48 43h5M54 43h1M62 43h2M65 43h1M67 43h3M29 44h1M31 44h2M47 44h3M51 44h1M53 44h1M62 44h2M65 44h1M67 44h3M30 45h4M47 45h2M50 45h1M52 45h1M61 45h4M66 45h4M27 46h1M31 46h4M47 46h1M49 46h1M51 46h1M53 46h1M62 46h3M66 46h4M26 47h1M28 47h3M32 47h3M46 47h3M50 47h1M62 47h2M65 47h4M27 48h5M35 48h1M45 48h3M49 48h1M51 48h1M61 48h5M67 48h2M26 49h1M29 49h5M44 49h3M48 49h1M50 49h1M63 49h2M66 49h1M25 50h1M27 50h2M31 50h2M43 50h3M47 50h1M49 50h1M65 50h2M26 51h4M42 51h1M44 51h1M46 51h1M48 51h1M64 51h3M26 52h2M32 52h2M39 52h1M41 52h1M43 52h1M45 52h1M63 52h3M30 53h1M38 53h1M40 53h1M42 53h1M63 53h3M27 54h2M34 54h3M64 54h1M26 55h1M34 55h1M26 57h1M26 58h1M59 58h2M25 59h1M56 59h4M61 59h1M56 60h3M60 60h1M55 61h5M55 62h4M60 62h1M39 63h1M54 63h6M36 64h1M38 64h1M40 64h1M42 64h1M53 64h7M35 65h1M37 65h1M39 65h1M41 65h1M43 65h3M51 65h9M35 66h2M38 66h1M40 66h1M42 66h6M52 66h7M37 67h10M53 67h5M43 68h5M55 68h2M45 69h4M45 70h5M51 70h1M48 71h2M51 71h1" />
</svg>