<svg xmlns="http://www.w3.org/2000/svg" viewBox="0 -0.5 96 96" shape-rendering="crispEdges">
<metadata>Made with Pixels to Svg https://codepen.io/shshaw/pen/XbxvNj</metadata>
<path stroke="#000000" d="M46 25h1M47 26h1M48 27h2M42 28h2M50 28h1M35 29h4M41 29h1M51 29h1M53 29h5M39 30h4M51 30h2M58 30h1M43 31h1M49 31h2M57 31h1M34 32h1M44 32h1M48 32h1M58 32h1M34 33h1M44 33h1M48 33h1M58 33h1M34 34h1M45 34h1M47 34h1M59 34h1M33 35h1M45 35h1M47 35h1M59 35h1M31 36h3M45 36h1M47 36h1M59 36h4M30 37h1M33 37h1M45 37h4M58 37h2M63 37h2M30 38h1M34 38h1M43 38h2M49 38h2M57 38h1M65 38h1M29 39h1M32 39h4M41 39h2M51 39h2M56 39h1M66 39h2M30 40h2M36 40h2M40 40h1M53 40h2M56 40h1M68 40h1M29 41h1M38 41h2M55 41h1M67 41h1M28 42h1M38 42h1M42 42h2M46 42h1M55 42h1M67 42h1M28 43h1M37 43h1M41 43h1M44 43h2M47 43h1M50 43h2M55 43h1M66 43h1M27 44h1M37 44h1M41 44h1M45 44h1M47 44h3M52 44h1M55 44h1M66 44h1M36 45h1M42 45h1M47 45h1M52 45h1M56 45h1M66 45h2M26 46h2M36 46h1M42 46h1M51 46h1M56 46h1M66 46h1M68 46h1M27 47h1M36 47h1M41 47h1M43 47h1M51 47h2M57 47h1M65 47h1M68 47h1M28 48h1M35 48h1M39 48h2M43 48h2M53 48h2M58 48h2M64 48h1M69 48h1M28 49h2M35 49h1M38 49h1M42 49h2M55 49h1M59 49h5M70 49h1M27 50h1M30 50h1M35 50h1M39 50h1M41 50h1M53 50h2M59 50h3M69 50h1M31 51h3M35 51h1M40 51h1M50 51h3M58 51h2M62 51h2M68 51h1M27 52h1M34 52h2M39 52h1M51 52h1M57 52h1M64 52h1M68 52h1M27 53h1M32 53h2M36 53h1M38 53h1M45 53h2M52 53h1M56 53h1M64 53h1M67 53h1M28 54h1M31 54h1M36 54h1M38 54h1M44 54h1M52 54h1M56 54h1M65 54h2M29 55h2M37 55h1M43 55h1M47 55h1M50 55h2M55 55h1M65 55h1M30 56h1M37 56h1M42 56h2M47 56h2M50 56h1M55 56h1M65 56h1M30 57h1M36 57h1M42 57h1M44 57h1M46 57h1M49 57h1M55 57h1M66 57h1M36 58h1M41 58h1M44 58h1M46 58h1M55 58h1M66 58h1M29 59h1M36 59h1M41 59h1M45 59h1M54 59h2M66 59h1M36 60h1M41 60h2M52 60h2M56 60h1M67 60h1M29 61h2M37 61h1M41 61h1M43 61h2M50 61h2M54 61h2M57 61h1M64 61h3M31 62h2M36 62h2M42 62h1M45 62h5M56 62h1M58 62h2M62 62h2M33 63h3M37 63h1M42 63h1M45 63h1M57 63h1M60 63h3M34 64h1M37 64h1M43 64h2M57 64h1M62 64h1M34 65h1M38 65h1M44 65h1M57 65h1M62 65h1M35 66h1M38 66h1M44 66h2M57 66h1M61 66h1M35 67h1M38 67h1M45 67h1M56 67h1M61 67h1M36 68h2M46 68h2M56 68h3M60 68h1M37 69h1M46 69h1M48 69h2M54 69h2M59 69h1M37 70h1M47 70h1M50 70h2M53 70h1M36 71h1M47 71h1M52 71h1" />
<path stroke="#949400" d="M45 26h1M44 27h1M34 29h1M33 30h1M33 31h1M46 38h1M48 38h1M43 39h1M45 39h1M47 39h1M49 39h2M42 40h1M44 40h1M46 40h1M48 40h5M41 41h1M43 41h1M45 41h10M40 42h1M44 42h2M47 42h8M39 43h1M43 43h1M46 43h1M48 43h2M52 43h3M26 44h1M38 44h1M40 44h1M42 44h3M46 44h1M50 44h2M53 44h2M25 45h1M37 45h5M43 45h4M48 45h4M53 45h3M37 46h5M43 46h8M52 46h4M37 47h4M42 47h1M44 47h7M53 47h4M36 48h3M41 48h2M45 48h8M55 48h3M36 49h2M39 49h3M44 49h11M56 49h3M36 50h3M40 50h1M42 50h11M55 50h4M26 51h1M36 51h4M41 51h9M53 51h5M36 52h3M40 52h1M43 52h8M52 52h5M37 53h1M39 53h1M42 53h3M47 53h5M53 53h3M37 54h1M42 54h2M45 54h7M53 54h3M38 55h1M41 55h2M44 55h3M48 55h2M52 55h3M41 56h1M44 56h3M49 56h1M51 56h4M37 57h1M40 57h2M43 57h1M45 57h1M47 57h2M50 57h5M30 58h1M37 58h2M40 58h1M42 58h2M45 58h1M47 58h8M37 59h1M39 59h2M42 59h3M46 59h8M28 60h1M37 60h2M40 60h1M43 60h9M39 61h2M45 61h5M38 62h1M40 62h2M38 63h4M38 64h1M40 64h3M39 65h1M41 65h3M39 66h1M41 66h3M39 67h6M38 68h2M41 68h5M38 69h1M40 69h1M42 69h4M38 70h2M41 70h1M43 70h4M37 71h2M40 71h1M42 71h5" />
<path stroke="#ffffff" d="M46 26h1M45 27h1M47 27h1M44 28h1M46 28h1M48 28h1M43 29h1M45 29h1M47 29h1M34 30h1M36 30h1M38 30h1M44 30h1M46 30h1M48 30h1M53 30h1M55 30h1M57 30h1M35 31h1M37 31h1M39 31h1M45 31h1M47 31h1M52 31h1M54 31h1M56 31h1M36 32h1M38 32h1M53 32h1M55 32h1M35 33h1M37 33h1M39 33h1M36 34h1M38 34h1M35 35h1M37 35h1M30 41h1M29 42h1M30 43h1M29 44h1M31 44h1M26 45h1M28 45h1M30 45h1M32 45h1M29 46h1M31 46h1M33 46h1M28 47h1M32 47h1M28 50h1M27 51h1M29 51h1M28 52h1M30 52h1M29 53h1M31 58h1M33 58h1M30 59h1M32 59h1M34 59h1M29 60h1M31 60h1M33 60h1M32 61h1M34 61h1M33 62h1M35 65h1M37 65h1M45 65h1M47 65h1M36 66h1M46 66h1M48 66h1M37 67h1M47 67h1M49 67h1M48 68h1" />
<path stroke="#ffff21" d="M46 27h1M45 28h1M47 28h1M49 28h1M42 29h1M44 29h1M46 29h1M48 29h3M35 30h1M37 30h1M43 30h1M45 30h1M47 30h1M49 30h2M54 30h1M56 30h1M34 31h1M36 31h1M38 31h1M40 31h3M44 31h1M46 31h1M48 31h1M51 31h1M53 31h1M55 31h1M35 32h1M37 32h1M39 32h5M45 32h3M49 32h4M54 32h1M56 32h2M36 33h1M38 33h1M40 33h4M45 33h3M49 33h9M35 34h1M37 34h1M39 34h6M46 34h1M48 34h11M34 35h1M36 35h1M38 35h7M46 35h1M48 35h11M34 36h11M46 36h1M48 36h11M31 37h2M34 37h11M49 37h9M60 37h3M31 38h3M35 38h8M45 38h1M47 38h1M51 38h6M58 38h7M30 39h2M36 39h5M44 39h1M46 39h1M48 39h1M53 39h3M57 39h9M32 40h4M38 40h2M41 40h1M43 40h1M45 40h1M47 40h1M55 40h1M57 40h11M31 41h7M40 41h1M42 41h1M44 41h1M56 41h11M30 42h8M39 42h1M41 42h1M56 42h11M29 43h1M31 43h6M38 43h1M40 43h1M42 43h1M56 43h10M28 44h1M30 44h1M32 44h5M39 44h1M56 44h10M27 45h1M29 45h1M31 45h1M33 45h3M57 45h9M28 46h1M30 46h1M32 46h1M34 46h2M57 46h9M67 46h1M29 47h3M33 47h3M58 47h7M66 47h2M29 48h6M60 48h4M65 48h4M30 49h5M64 49h6M29 50h1M31 50h4M62 50h7M28 51h1M30 51h1M34 51h1M60 51h2M64 51h4M29 52h1M31 52h3M41 52h2M58 52h6M65 52h3M28 53h1M30 53h2M34 53h2M40 53h2M57 53h7M65 53h2M29 54h2M32 54h4M39 54h3M57 54h8M31 55h6M39 55h2M56 55h9M31 56h6M38 56h3M56 56h9M31 57h5M38 57h2M56 57h10M32 58h1M34 58h2M39 58h1M56 58h10M31 59h1M33 59h1M35 59h1M38 59h1M56 59h10M30 60h1M32 60h1M34 60h2M39 60h1M54 60h2M57 60h10M31 61h1M33 61h1M35 61h2M38 61h1M42 61h1M52 61h2M56 61h1M58 61h6M34 62h2M39 62h1M43 62h2M50 62h6M57 62h1M60 62h2M36 63h1M43 63h2M46 63h11M58 63h2M35 64h2M39 64h1M45 64h12M58 64h4M36 65h1M40 65h1M46 65h1M48 65h9M58 65h4M37 66h1M40 66h1M47 66h1M49 66h8M58 66h3M36 67h1M46 67h1M48 67h1M50 67h6M57 67h4M40 68h1M49 68h7M59 68h1M39 69h1M41 69h1M50 69h4M40 70h1M42 70h1M52 70h1M39 71h1M41 71h1" />
</svg>