<svg xmlns="http://www.w3.org/2000/svg" viewBox="0 -0.5 96 96" shape-rendering="crispEdges">
<metadata>Made with Pixels to Svg https://codepen.io/shshaw/pen/XbxvNj</metadata>
<path stroke="#3a4a84" d="M43 33h1M52 33h1M39 34h1M56 34h1M58 35h1M60 36h1M33 37h1M61 37h1M33 38h1M65 41h1M66 42h1M27 43h1M63 44h1M67 44h1M26 45h1M68 46h1M25 47h1M68 48h2M67 49h1M63 50h1M24 51h1M62 51h1M70 51h1M70 54h2M70 55h1M47 56h1M49 56h1M51 56h1M70 56h1M25 57h1M44 57h1M46 57h1M48 57h1M50 57h1M52 57h1M70 57h1M43 58h1M45 58h1M47 58h8M56 58h1M70 58h1M26 59h1M42 59h1M44 59h1M46 59h10M57 59h1M59 59h1M61 59h1M70 59h1M27 60h1M29 60h1M31 60h1M39 60h1M41 60h1M43 60h14M58 60h1M60 60h1M62 60h1M70 60h1M28 61h1M30 61h1M32 61h1M34 61h1M36 61h1M38 61h1M40 61h20M61 61h1M63 61h1M70 61h1M28 62h4M33 62h1M35 62h1M37 62h1M39 62h24M64 62h1M70 62h2M29 63h16M46 63h18M29 64h1M31 64h12M45 64h18M64 64h1M33 65h7M43 65h21M65 65h1M33 66h1M39 66h26M70 66h1M36 67h28M65 67h1M37 68h28M38 69h26M65 69h1M69 69h1M39 70h24M64 70h1M39 71h25M68 71h1" />
<path stroke="#000000" d="M44 33h8M40 34h3M53 34h3M37 35h2M57 35h1M35 36h2M59 36h1M34 37h1M32 38h1M62 38h1M31 39h1M63 39h1M30 40h1M64 40h1M29 41h1M28 42h1M66 43h1M27 44h1M61 44h2M64 45h2M67 45h1M26 46h1M63 46h1M62 47h1M68 47h1M25 48h1M25 49h1M69 49h1M25 50h1M64 50h1M67 50h1M69 50h1M65 51h2M24 52h1M62 52h1M70 52h1M24 53h1M70 53h1M24 54h1M24 55h1M71 55h1M24 56h1M71 56h1M24 57h1M71 57h1M25 58h1M71 58h1M25 59h1M71 59h1M26 60h1M71 60h1M26 61h2M71 61h1M27 62h1M28 63h1M45 63h1M70 63h1M30 64h1M43 64h2M70 64h1M31 65h2M40 65h3M70 65h1M34 66h5M35 67h1M69 67h1M36 68h1M69 68h1M36 69h1M37 70h1M68 70h1M37 71h1" />
<path stroke="#bd3ace" d="M43 34h10M39 35h4M53 35h4M37 36h2M58 36h1M35 37h2M60 37h1M34 38h1M54 38h1M56 38h1M58 38h1M32 39h1M51 39h1M53 39h1M55 39h3M59 39h1M61 39h1M31 40h1M48 40h1M50 40h1M52 40h12M30 41h1M47 41h1M49 41h16M29 42h1M44 42h1M46 42h1M48 42h18M28 43h1M43 43h1M45 43h1M47 43h19M28 44h1M42 44h1M44 44h17M64 44h3M27 45h1M43 45h1M45 45h19M66 45h1M28 46h1M40 46h1M42 46h1M44 46h19M64 46h4M26 47h2M39 47h1M41 47h21M63 47h5M26 48h3M30 48h1M36 48h1M38 48h1M40 48h1M42 48h26M26 49h2M29 49h1M31 49h1M33 49h1M35 49h1M37 49h1M39 49h28M68 49h1M26 50h5M32 50h1M34 50h29M65 50h2M68 50h1M25 51h37M63 51h2M67 51h3M25 52h37M63 52h7M25 53h45M25 54h45M25 55h45M25 56h22M48 56h1M50 56h1M52 56h18M26 57h18M45 57h1M47 57h1M49 57h1M51 57h1M53 57h17M26 58h17M44 58h1M46 58h1M55 58h1M57 58h13M27 59h15M43 59h1M45 59h1M56 59h1M58 59h1M60 59h1M62 59h8M28 60h1M30 60h1M32 60h7M40 60h1M42 60h1M57 60h1M59 60h1M61 60h1M63 60h7M29 61h1M31 61h1M33 61h1M35 61h1M37 61h1M39 61h1M60 61h1M62 61h1M64 61h6M32 62h1M34 62h1M36 62h1M38 62h1M63 62h1M65 62h5M64 63h6M63 64h1M65 64h5M64 65h1M66 65h4M65 66h5M64 67h1M66 67h3M65 68h4M37 69h1M64 69h1M66 69h3M38 70h1M63 70h1M65 70h3M38 71h1M64 71h4" />
<path stroke="#ffffff" d="M43 35h10M39 36h19M37 37h23M35 38h19M55 38h1M57 38h1M59 38h3M33 39h18M52 39h1M54 39h1M58 39h1M60 39h1M62 39h1M32 40h16M49 40h1M51 40h1M31 41h16M48 41h1M30 42h14M45 42h1M47 42h1M29 43h14M44 43h1M46 43h1M29 44h13M43 44h1M28 45h15M44 45h1M27 46h1M29 46h11M41 46h1M43 46h1M28 47h11M40 47h1M29 48h1M31 48h5M37 48h1M39 48h1M41 48h1M28 49h1M30 49h1M32 49h1M34 49h1M36 49h1M38 49h1M31 50h1M33 50h1" />
</svg>