<svg xmlns="http://www.w3.org/2000/svg" viewBox="0 -0.5 96 96" shape-rendering="crispEdges">
<metadata>Made with Pixels to Svg https://codepen.io/shshaw/pen/XbxvNj</metadata>
<path stroke="#ff29ad" d="M53 47h1M58 47h1M50 48h1M61 48h1M48 49h1M63 49h1M46 50h1M65 50h1M45 51h1M65 52h2M65 53h2M42 54h1M64 54h2M69 54h1M64 55h2M41 56h1M64 56h2M70 56h1M64 57h2M27 58h1M30 58h1M65 58h1M26 59h1M33 59h1M40 59h1M54 59h1M65 59h2M25 60h1M35 60h1M58 60h1M66 60h2M69 60h1M37 61h1M52 61h1M66 61h5M26 62h1M43 62h4M67 62h2M27 63h1M40 63h2M61 63h1M29 64h1M68 64h1M30 65h1M33 65h1M62 65h1M39 66h8M27 67h1M38 67h13M57 67h1M63 67h1M36 68h17M59 68h1M34 69h3M44 69h9M64 69h1M29 70h1M32 70h2M47 70h5M31 71h1M50 71h2M64 71h1" />
<path stroke="#000000" d="M54 47h4M51 48h2M59 48h2M49 49h1M62 49h1M47 50h1M64 50h1M66 51h1M44 52h1M67 52h1M43 53h1M68 53h1M42 55h1M69 55h1M68 56h1M41 57h1M67 57h1M70 57h1M28 58h2M41 58h1M66 58h1M70 58h1M31 59h2M55 59h2M70 59h1M34 60h1M40 60h1M53 60h1M57 60h1M70 60h1M25 61h1M36 61h1M40 61h1M59 61h1M38 62h1M40 62h1M52 62h1M60 62h1M69 62h1M28 63h1M39 63h1M52 63h1M69 63h1M30 64h1M53 64h1M61 64h1M31 65h2M54 65h1M68 65h1M28 66h2M38 66h1M55 66h1M62 66h1M67 66h1M37 67h1M56 67h1M66 67h1M27 68h1M35 68h1M54 68h2M63 68h1M65 68h1M28 69h1M32 69h2M53 69h1M63 69h1M30 70h2M52 70h1M62 70h1M64 70h1M29 71h2M52 71h1M61 71h1M63 71h1" />
<path stroke="#ffffff" d="M53 48h4M58 48h1M50 49h8M59 49h1M48 50h9M58 50h1M46 51h10M57 51h1M45 52h8M54 52h1M44 53h8M53 53h1M67 53h1M44 54h5M50 54h1M52 54h1M66 54h3M43 55h1M45 55h1M47 55h1M49 55h1M66 55h3M44 56h1M46 56h1M66 56h2M69 56h1M66 57h1M68 57h2M67 58h3M27 59h4M67 59h3M27 60h7M54 60h3M68 60h1M28 61h8M53 61h6M30 62h8M53 62h1M55 62h1M57 62h3M32 63h7M54 63h1M56 63h1M59 63h2M36 64h4M41 64h8M60 64h1M40 65h12M61 65h1M30 66h3M48 66h6M28 67h3M52 67h4M62 67h1M56 68h3M38 69h4M54 69h2M35 70h11M53 70h1M32 71h17M62 71h1" />
<path stroke="#ffc531" d="M57 48h1M58 49h1M60 49h2M57 50h1M59 50h5M56 51h1M58 51h8M53 52h1M55 52h10M52 53h1M54 53h11M43 54h1M49 54h1M51 54h1M53 54h11M44 55h1M46 55h1M48 55h1M50 55h14M42 56h2M45 56h1M47 56h17M42 57h22M42 58h23M41 59h13M57 59h8M26 60h1M41 60h12M59 60h7M26 61h2M41 61h11M60 61h6M27 62h3M41 62h2M47 62h5M54 62h1M56 62h1M61 62h6M29 63h3M42 63h10M53 63h1M55 63h1M57 63h2M62 63h7M31 64h5M40 64h1M49 64h4M54 64h6M62 64h6M34 65h6M52 65h2M55 65h6M63 65h5M33 66h5M47 66h1M54 66h1M56 66h6M63 66h4M31 67h6M51 67h1M58 67h4M64 67h2M28 68h7M53 68h1M60 68h3M64 68h1M29 69h3M37 69h1M42 69h2M56 69h7M34 70h1M46 70h1M54 70h8M63 70h1M49 71h1M53 71h8" />
</svg>