<svg xmlns="http://www.w3.org/2000/svg" viewBox="0 -0.5 96 96" shape-rendering="crispEdges">
<metadata>Made with Pixels to Svg https://codepen.io/shshaw/pen/XbxvNj</metadata>
<path stroke="#e6e64a" d="M30 25h2M32 26h1M36 26h1M31 27h1M33 27h1M35 27h1M39 27h1M32 28h1M34 28h1M36 28h1M38 28h1M33 29h1M35 29h6M34 30h9M33 31h1M35 31h9M34 32h11M35 33h11M36 34h11M38 35h10M39 36h10M42 37h7M45 38h5M48 39h2M69 52h1M69 53h1M34 54h1M33 55h1M35 55h1M34 56h1M36 56h1M33 57h1M35 57h2M34 58h4M35 59h3M34 60h5M35 61h4M35 62h5M27 63h1M36 63h4M26 64h1M28 64h1M36 64h4M27 65h1M29 65h3M37 65h3M28 66h5M38 66h3M27 67h7M38 67h3M28 68h7M39 68h2M29 69h7M40 69h1M31 70h6M33 71h4" />
<path stroke="#000000" d="M32 25h2M30 26h1M34 26h2M30 27h1M37 27h2M31 28h1M40 28h1M31 29h1M41 29h2M32 30h1M43 30h1M32 31h1M44 31h1M33 32h1M45 32h1M60 32h2M34 33h1M46 33h1M59 33h1M62 33h1M35 34h1M47 34h1M59 34h1M63 34h1M36 35h2M48 35h1M58 35h1M63 35h1M38 36h1M49 36h1M58 36h1M64 36h1M40 37h2M49 37h1M57 37h1M43 38h2M50 38h2M54 38h4M65 38h1M45 39h3M50 39h1M52 39h2M57 39h1M65 39h1M46 40h3M64 40h3M44 41h2M66 41h1M43 42h1M67 42h1M42 43h1M68 43h1M41 44h1M68 44h1M34 45h1M40 45h1M69 45h1M33 46h1M40 46h1M69 46h1M33 47h1M39 47h1M32 48h1M39 48h1M67 48h1M70 48h1M32 49h1M39 49h1M68 49h3M32 50h1M39 50h1M68 50h1M70 50h1M38 51h2M68 51h1M70 51h1M31 52h1M37 52h3M67 52h2M70 52h1M31 53h1M33 53h2M37 53h2M40 53h1M46 53h1M48 53h1M50 53h1M68 53h1M31 54h2M35 54h3M40 54h1M45 54h1M47 54h1M49 54h1M51 54h1M53 54h1M67 54h3M31 55h2M36 55h2M41 55h1M43 55h2M46 55h5M52 55h1M54 55h1M56 55h1M58 55h1M60 55h1M62 55h1M64 55h5M31 56h2M37 56h1M42 56h12M55 56h1M57 56h1M59 56h1M61 56h8M30 57h3M37 57h1M44 57h13M58 57h10M30 58h4M38 58h3M46 58h20M30 59h4M38 59h1M41 59h23M31 60h3M39 60h1M49 60h12M32 61h3M39 61h1M52 61h4M26 62h2M34 62h1M40 62h4M53 62h1M25 63h1M28 63h2M35 63h1M40 63h1M42 63h2M54 63h1M25 64h1M30 64h2M35 64h1M40 64h1M42 64h1M54 64h1M25 65h1M32 65h1M36 65h1M40 65h2M55 65h1M26 66h1M33 66h1M37 66h1M41 66h1M50 66h1M55 66h1M26 67h1M34 67h1M36 67h2M41 67h1M50 67h1M56 67h1M27 68h1M35 68h2M38 68h1M41 68h1M51 68h1M57 68h2M28 69h1M36 69h1M39 69h1M49 69h1M51 69h1M59 69h3M29 70h2M37 70h1M48 70h1M50 70h3M62 70h4M31 71h2M47 71h1M49 71h3M53 71h1M58 71h11" />
<path stroke="#ffffff" d="M31 26h1M33 26h1M32 27h1M34 27h1M36 27h1M33 28h1M35 28h1M37 28h1M39 28h1M32 29h1M34 29h1M33 30h1M34 31h1M39 42h4M37 43h4M36 44h3M35 45h3M39 45h1M34 46h3M38 46h2M34 47h5M33 48h2M37 48h2M38 49h1M69 50h1M69 51h1M33 54h1M34 55h1M33 56h1M35 56h1M34 57h1M34 59h1M26 63h1M27 64h1M29 64h1M26 65h1M28 65h1M27 66h1" />
<path stroke="#ff4aff" d="M60 33h2M60 34h3M59 35h4M59 36h5M58 37h7M58 38h7M51 39h1M54 39h3M58 39h7M49 40h15M39 41h5M46 41h20M37 42h2M44 42h23M36 43h1M41 43h1M43 43h25M35 44h1M39 44h2M42 44h26M38 45h1M41 45h28M37 46h1M41 46h28M40 47h31M35 48h2M40 48h27M68 48h2M33 49h5M40 49h28M33 50h6M40 50h28M31 51h7M40 51h28M32 52h5M40 52h27M32 53h1M35 53h2M41 53h5M47 53h1M49 53h1M51 53h17M70 53h1M41 54h4M46 54h1M48 54h1M50 54h1M52 54h1M54 54h13M30 55h1M42 55h1M45 55h1M51 55h1M53 55h1M55 55h1M57 55h1M59 55h1M61 55h1M63 55h1M69 55h1M30 56h1M54 56h1M56 56h1M58 56h1M60 56h1M43 57h1M57 57h1M45 58h1M66 58h1M39 59h2M64 59h1M30 60h1M40 60h9M61 60h1M31 61h1M40 61h12M56 61h1M44 62h9M44 63h10M43 64h11M42 65h13M42 66h8M51 66h4M42 67h8M51 67h5M37 68h1M42 68h9M52 68h5M37 69h2M41 69h8M50 69h1M52 69h7M62 69h1M38 70h10M49 70h1M53 70h9M66 70h1M37 71h10M48 71h1M54 71h4M69 71h1" />
</svg>