<svg xmlns="http://www.w3.org/2000/svg" viewBox="0 -0.5 96 96" shape-rendering="crispEdges">
<metadata>Made with Pixels to Svg https://codepen.io/shshaw/pen/XbxvNj</metadata>
<path stroke="#6ba508" d="M54 26h1M52 27h1M51 28h1M30 30h1M29 31h1M39 31h1M59 31h4M44 32h1M48 32h1M57 32h7M28 33h1M32 33h3M56 33h8M30 34h7M39 34h1M56 34h8M29 35h10M56 35h8M29 36h9M50 36h1M56 36h7M29 37h8M56 37h7M29 38h7M57 38h5M30 39h5M58 39h2M30 40h5M60 40h1M32 41h2M59 41h2M62 48h1M62 49h2M61 50h4M61 51h1M57 53h1M34 58h1M31 61h1M29 63h1M59 63h1M40 64h1M28 65h1M43 67h1M40 68h1M42 68h1M44 68h1M46 68h1M54 68h1M56 68h1M58 68h1M41 69h1M43 69h1M45 69h1M47 69h1M51 69h1M53 69h1M55 69h4M41 70h4M46 70h1M48 70h1M50 70h1M52 70h1M54 70h5M40 71h8M49 71h1M51 71h7" />
<path stroke="#000000" d="M55 26h4M53 27h1M59 27h2M61 28h1M32 29h5M50 29h1M62 29h1M31 30h1M37 30h2M50 30h1M63 30h1M49 31h1M63 31h1M29 32h1M40 32h1M45 32h3M49 32h1M64 32h1M41 33h3M49 33h1M64 33h1M28 34h1M40 34h1M49 34h1M64 34h1M28 35h1M50 35h1M64 35h1M28 36h1M63 36h1M28 37h1M63 37h1M28 38h1M36 38h1M62 38h1M29 39h1M35 39h1M60 39h2M29 40h1M35 40h1M58 40h2M61 40h1M30 41h2M34 41h1M61 41h1M32 42h3M62 42h1M34 43h1M62 43h1M33 44h1M62 44h1M33 45h1M62 45h1M33 46h1M62 46h1M33 47h1M61 47h2M34 48h1M61 48h1M63 48h1M34 49h1M61 49h1M64 49h1M34 50h1M60 50h1M65 50h1M35 51h1M60 51h1M65 51h1M35 52h1M59 52h1M66 52h1M36 53h1M58 53h1M66 53h1M36 54h1M55 54h1M66 54h1M36 55h1M66 55h1M35 56h1M66 56h1M34 57h1M65 57h1M65 58h1M33 59h1M36 59h1M64 59h1M33 60h4M63 60h1M32 61h1M37 61h2M62 61h1M30 62h1M39 62h1M61 62h1M40 63h1M60 63h1M29 64h1M60 64h1M60 65h1M28 66h1M60 66h1M28 67h1M60 67h1M28 68h1M59 68h1M29 69h1M59 69h1M29 70h1M40 70h1M59 70h1M30 71h1M39 71h1M58 71h1" />
<path stroke="#a5ef52" d="M54 27h5M52 28h9M51 29h11M32 30h5M51 30h12M30 31h9M50 31h9M30 32h10M50 32h7M29 33h3M35 33h6M45 33h1M47 33h2M50 33h6M29 34h1M37 34h2M44 34h1M46 34h1M48 34h1M50 34h6M39 35h1M43 35h1M45 35h1M47 35h3M51 35h5M38 36h1M40 36h1M42 36h1M44 36h1M46 36h1M48 36h2M51 36h5M37 37h3M41 37h1M43 37h1M45 37h1M47 37h9M37 38h4M42 38h1M44 38h13M36 39h22M36 40h22M35 41h24M35 42h27M35 43h27M34 44h28M34 45h28M34 46h28M34 47h27M35 48h26M35 49h26M35 50h25M36 51h24M62 51h3M36 52h23M60 52h6M37 53h20M59 53h7M37 54h18M56 54h10M37 55h29M36 56h30M35 57h30M35 58h30M34 59h2M37 59h27M37 60h26M33 61h1M35 61h2M39 61h23M32 62h1M34 62h1M36 62h3M40 62h21M31 63h1M33 63h1M35 63h1M37 63h3M41 63h18M30 64h1M32 64h1M34 64h1M36 64h4M41 64h19M29 65h3M33 65h1M35 65h25M29 66h31M29 67h14M44 67h16M29 68h11M41 68h1M43 68h1M45 68h1M47 68h7M55 68h1M57 68h1M30 69h11M42 69h1M44 69h1M46 69h1M48 69h3M52 69h1M54 69h1M30 70h10M45 70h1M47 70h1M49 70h1M51 70h1M53 70h1M31 71h8M48 71h1M50 71h1" />
<path stroke="#ffffff" d="M44 33h1M46 33h1M41 34h3M45 34h1M47 34h1M40 35h3M44 35h1M46 35h1M39 36h1M41 36h1M43 36h1M45 36h1M47 36h1M40 37h1M42 37h1M44 37h1M46 37h1M41 38h1M43 38h1M34 61h1M31 62h1M33 62h1M35 62h1M30 63h1M32 63h1M34 63h1M36 63h1M31 64h1M33 64h1M35 64h1M32 65h1M34 65h1" />
</svg>