<svg xmlns="http://www.w3.org/2000/svg" viewBox="0 -0.5 96 96" shape-rendering="crispEdges">
<metadata>Made with Pixels to Svg https://codepen.io/shshaw/pen/XbxvNj</metadata>
<path stroke="#c58c3a" d="M39 32h1M45 32h1M40 33h1M46 33h1M40 35h1M45 35h1M39 36h2M45 36h1M50 36h1M34 37h1M40 37h2M45 37h2M51 37h1M40 38h2M45 38h2M40 39h3M45 39h2M50 39h1M35 40h1M40 40h3M45 40h3M50 40h1M35 41h2M41 41h2M45 41h3M50 41h1M36 42h2M41 42h2M45 42h3M50 42h1M32 43h1M37 43h12M51 43h1M32 44h1M37 44h14M33 45h2M38 45h12M51 45h1M33 46h18M52 46h1M67 46h1M34 47h12M49 47h1M51 47h1M62 47h2M70 47h1M35 48h8M49 48h1M52 48h1M54 48h1M59 48h9M36 49h5M53 49h16M71 49h1M36 50h3M54 50h5M64 50h3M35 51h2M49 51h1M53 51h1M55 51h2M51 52h1M55 52h1M54 53h1M56 54h2M55 55h5M57 56h5M60 57h3M64 57h1M62 58h2" />
<path stroke="#000000" d="M38 33h1M44 33h1M38 34h1M40 34h1M44 34h1M46 34h1M38 35h1M41 35h1M44 35h1M46 35h1M38 36h1M41 36h1M44 36h1M46 36h1M39 37h1M42 37h1M44 37h1M47 37h1M49 37h1M33 38h1M35 38h1M39 38h1M42 38h1M44 38h1M47 38h1M49 38h1M51 38h1M33 39h1M36 39h1M39 39h1M43 39h2M47 39h1M49 39h1M51 39h1M34 40h1M36 40h1M39 40h1M43 40h2M48 40h2M51 40h1M34 41h1M37 41h1M40 41h1M43 41h2M48 41h2M51 41h1M35 42h1M38 42h1M40 42h1M43 42h2M48 42h2M52 42h1M31 43h1M36 43h1M49 43h1M52 43h1M30 44h1M33 44h2M36 44h1M52 44h1M31 45h1M35 45h3M52 45h1M32 46h1M53 46h1M62 46h5M33 47h1M46 47h3M53 47h2M59 47h3M68 47h2M34 48h1M43 48h3M47 48h1M50 48h2M53 48h1M55 48h4M71 48h1M35 49h1M41 49h2M47 49h1M51 49h2M69 49h2M35 50h1M39 50h1M48 50h1M51 50h1M53 50h1M59 50h5M67 50h2M34 51h1M37 51h2M48 51h1M52 51h1M54 51h1M57 51h2M64 51h3M34 52h3M49 52h2M54 52h1M56 52h1M33 53h2M55 53h3M32 54h1M55 54h1M58 54h2M30 55h1M60 55h2M29 56h1M54 56h3M62 56h1M28 57h1M41 57h3M53 57h2M57 57h3M63 57h1M39 58h4M51 58h2M60 58h2M65 58h1M27 59h1M37 59h2M43 59h2M49 59h2M62 59h3M26 60h1M36 60h1M45 60h4M26 61h1M35 61h1M25 62h1M34 62h1M25 63h1M34 63h1M25 64h1M33 64h1M25 65h1M33 65h1M24 66h1M33 66h1M24 67h1M32 67h1M24 68h1M32 68h1M24 69h1M32 69h1M24 70h1M32 70h1M24 71h1M32 71h1" />
<path stroke="#ffffff" d="M39 33h1M45 33h1M39 34h1M45 34h1M39 35h1M50 37h1M34 38h1M50 38h1M34 39h2M51 42h1M50 43h1M31 44h1M51 44h1M32 45h1M50 45h1M51 46h1M50 47h1M52 47h1M64 47h4M48 48h1M68 48h3M48 49h3M49 50h2M52 50h1M50 51h2M31 55h2M30 56h2M29 57h2M32 57h1M28 58h2M31 58h1M64 58h1M28 59h1M30 59h1M27 60h1M29 60h1M31 60h1M28 61h1M30 61h1" />
<path stroke="#848452" d="M46 48h1M43 49h4M40 50h8M39 51h9M37 52h12M52 52h2M35 53h19M31 54h1M33 54h22M33 55h22M32 56h22M31 57h1M33 57h8M44 57h9M27 58h1M30 58h1M32 58h7M43 58h8M29 59h1M31 59h6M45 59h4M28 60h1M30 60h1M32 60h4M27 61h1M29 61h1M31 61h4M26 62h8M26 63h8M26 64h7M26 65h7M25 66h8M25 67h7M25 68h7M25 69h7M25 70h7M25 71h7" />
</svg>