<svg xmlns="http://www.w3.org/2000/svg" viewBox="0 -0.5 96 96" shape-rendering="crispEdges">
<metadata>Made with Pixels to Svg https://codepen.io/shshaw/pen/XbxvNj</metadata>
<path stroke="#000000" d="M65 38h4M64 39h1M69 39h1M41 40h2M64 40h1M67 40h3M40 41h1M43 41h1M63 41h1M66 41h4M39 42h1M44 42h1M63 42h1M66 42h4M39 43h1M44 43h1M63 43h1M66 43h4M39 44h1M43 44h2M63 44h1M66 44h3M39 45h1M42 45h3M63 45h1M65 45h4M39 46h1M42 46h3M62 46h1M65 46h4M39 47h1M42 47h3M62 47h1M65 47h4M39 48h1M42 48h2M62 48h1M65 48h4M39 49h1M42 49h2M61 49h1M64 49h4M39 50h1M41 50h3M61 50h1M64 50h4M39 51h1M41 51h3M51 51h6M60 51h1M63 51h5M38 52h1M41 52h4M46 52h3M57 52h4M62 52h5M38 53h1M41 53h4M58 53h9M38 54h1M40 54h3M58 54h9M38 55h2M58 55h9M37 56h2M57 56h11M36 57h1M55 57h13M35 58h1M50 58h19M34 59h1M49 59h20M33 60h1M45 60h1M47 60h10M61 60h8M32 61h1M44 61h1M46 61h1M48 61h8M58 61h2M63 61h7M37 62h1M41 62h1M43 62h1M45 62h1M47 62h8M57 62h5M64 62h6M31 63h1M38 63h1M40 63h1M42 63h1M44 63h11M56 63h2M60 63h3M64 63h6M31 64h1M37 64h1M39 64h1M41 64h1M43 64h12M56 64h2M61 64h2M64 64h6M30 65h1M38 65h1M40 65h1M42 65h13M57 65h2M61 65h2M64 65h7M30 66h1M37 66h1M39 66h1M41 66h1M43 66h13M57 66h5M64 66h7M29 67h1M36 67h1M38 67h1M40 67h1M42 67h14M59 67h2M63 67h8M28 68h1M35 68h1M37 68h1M39 68h1M41 68h17M62 68h9M27 69h1M32 69h1M34 69h1M36 69h1M38 69h33M26 70h1M29 70h1M31 70h1M33 70h1M35 70h1M37 70h35M24 71h2M28 71h1M30 71h1M32 71h1M34 71h1M36 71h36" />
<path stroke="#318cff" d="M65 39h4M65 40h2M41 41h2M64 41h2M40 42h4M64 42h2M40 43h4M64 43h2M40 44h3M64 44h2M69 44h1M40 45h2M64 45h1M40 46h2M63 46h2M40 47h2M63 47h2M40 48h2M44 48h1M63 48h2M40 49h2M44 49h1M62 49h2M68 49h1M40 50h1M62 50h2M38 51h1M40 51h1M49 51h2M61 51h2M39 52h2M45 52h1M54 52h3M61 52h1M67 52h1M39 53h2M45 53h3M55 53h3M39 54h1M43 54h6M54 54h4M40 55h18M39 56h18M37 57h18M36 58h14M35 59h14M34 60h11M46 60h1M69 60h1M33 61h11M45 61h1M47 61h1M32 62h2M36 62h1M38 62h3M42 62h1M44 62h1M46 62h1M32 63h1M34 63h2M37 63h1M39 63h1M41 63h1M43 63h1M33 64h1M35 64h1M38 64h1M40 64h1M42 64h1M70 64h1M31 65h1M35 65h1M37 65h1M39 65h1M41 65h1M32 66h1M34 66h1M36 66h1M38 66h1M40 66h1M42 66h1M30 67h1M32 67h2M37 67h1M39 67h1M41 67h1M29 68h3M36 68h1M38 68h1M40 68h1M28 69h4M33 69h1M35 69h1M37 69h1M71 69h1M27 70h2M30 70h1M32 70h1M34 70h1M36 70h1M26 71h2M29 71h1M31 71h1M33 71h1M35 71h1" />
<path stroke="#c5deff" d="M49 52h5M48 53h7M49 54h5M57 60h1M57 61h1M60 61h1M62 61h1M55 62h2M62 62h2M63 63h1M33 65h1M36 65h1M56 65h1M62 66h1M35 67h1M56 67h1M58 67h1M61 67h1M34 68h1M61 68h1" />
<path stroke="#ffffff" d="M58 60h3M56 61h1M61 61h1M34 62h2M33 63h1M36 63h1M55 63h1M58 63h2M32 64h1M34 64h1M36 64h1M55 64h1M58 64h3M63 64h1M32 65h1M34 65h1M55 65h1M59 65h2M63 65h1M31 66h1M33 66h1M35 66h1M56 66h1M63 66h1M31 67h1M34 67h1M57 67h1M62 67h1M32 68h2M58 68h3" />
</svg>