<svg xmlns="http://www.w3.org/2000/svg" viewBox="0 -0.5 96 96" shape-rendering="crispEdges">
<metadata>Made with Pixels to Svg https://codepen.io/shshaw/pen/XbxvNj</metadata>
<path stroke="#000000" d="M51 36h2M50 37h1M53 37h1M45 38h2M51 38h1M54 38h1M42 39h2M48 39h1M51 39h1M53 39h4M41 40h1M50 40h1M52 40h1M57 40h2M64 40h1M39 41h2M51 41h1M59 41h1M62 41h2M65 41h1M37 42h2M50 42h1M60 42h2M65 42h1M35 43h2M46 43h4M60 43h1M65 43h1M32 44h1M42 44h2M61 44h1M64 44h1M39 45h2M61 45h1M63 45h1M37 46h1M62 46h1M62 47h3M62 48h1M65 48h2M62 49h2M67 49h1M61 50h1M64 50h1M68 50h1M32 51h1M44 51h2M61 51h1M65 51h1M68 51h1M42 52h2M46 52h1M61 52h2M66 52h1M68 52h1M31 53h1M40 53h2M47 53h1M60 53h1M62 53h1M66 53h2M38 54h2M48 54h1M58 54h1M60 54h1M62 54h1M66 54h1M30 55h1M35 55h2M49 55h1M58 55h1M63 55h1M30 56h1M32 56h2M49 56h1M59 56h1M63 56h1M30 57h2M50 57h1M59 57h1M63 57h2M66 57h1M29 58h1M50 58h1M60 58h1M63 58h1M65 58h1M28 59h1M51 59h1M60 59h1M64 59h1M27 60h1M51 60h1M60 60h1M64 60h1M26 61h1M52 61h1M64 61h1M69 61h2M26 62h1M52 62h1M61 62h1M64 62h1M67 62h2M71 62h1M25 63h1M52 63h1M61 63h1M64 63h3M71 63h1M25 64h1M53 64h1M56 64h2M61 64h1M63 64h2M71 64h1M25 65h1M53 65h1M55 65h1M58 65h1M60 65h3M70 65h1M24 66h1M53 66h2M58 66h2M69 66h1M24 67h1M52 67h2M58 67h1M69 67h1M24 68h1M51 68h1M57 68h1M68 68h1M24 69h1M49 69h2M57 69h1M67 69h1M24 70h1M47 70h2M67 70h1M25 71h1M46 71h1M66 71h1" />
<path stroke="#525242" d="M51 37h1M44 38h1M47 38h1M52 38h1M49 39h1M52 39h1M49 40h1M51 40h1M48 41h1M50 41h1M47 42h1M49 42h1M64 42h1M34 43h1M44 43h2M50 43h2M62 43h3M33 44h1M41 44h1M47 44h2M52 44h1M62 44h2M34 45h2M38 45h1M53 45h1M62 45h1M36 46h1M54 46h1M61 46h1M35 47h1M45 47h1M55 47h1M34 48h1M44 48h1M56 48h1M63 48h1M33 49h1M43 49h2M56 49h1M61 49h1M64 49h2M32 50h1M42 50h1M44 50h2M57 50h1M63 50h1M65 50h2M39 51h1M41 51h1M43 51h1M46 51h1M57 51h1M62 51h1M64 51h1M66 51h1M31 52h1M38 52h1M40 52h1M47 52h1M58 52h1M60 52h1M65 52h1M35 53h1M37 53h1M39 53h1M48 53h1M58 53h1M61 53h1M63 53h1M30 54h1M32 54h1M34 54h1M36 54h1M49 54h1M63 54h1M31 55h1M33 55h1M59 55h2M62 55h1M64 55h1M66 55h1M50 56h1M62 56h1M64 56h1M66 56h1M65 57h1M51 58h1M52 59h1M63 59h1M53 60h1M60 61h1M53 62h1M54 63h1M70 63h1M55 64h1M69 64h1M54 65h1M57 65h1M66 65h1M56 66h1M65 66h1M55 67h1M63 67h2M43 68h1M54 68h1M61 68h2M42 69h1M44 69h1M46 69h1M53 69h1M59 69h2M41 70h1M43 70h1M45 70h1M51 70h1M56 70h3M42 71h1M44 71h1M50 71h1" />
<path stroke="#ffffff" d="M52 37h1M44 39h3M42 40h2M53 40h1M55 40h2M41 41h1M54 41h1M56 41h3M64 41h1M39 42h1M55 42h1M57 42h3M56 43h1M58 43h1M44 44h2M59 44h1M41 45h3M48 45h1M50 45h2M60 45h1M38 46h4M49 46h1M51 46h2M36 47h3M40 47h1M48 47h1M50 47h4M35 48h3M39 48h1M49 48h1M51 48h4M34 49h1M36 49h1M50 49h1M52 49h4M33 50h1M35 50h1M51 50h1M53 50h3M52 51h5M67 51h1M44 52h2M53 52h3M64 52h1M42 53h4M52 53h1M54 53h1M56 53h1M64 53h1M40 54h7M53 54h1M55 54h1M65 54h1M37 55h7M45 55h1M47 55h1M54 55h1M56 55h1M65 55h1M34 56h7M42 56h1M44 56h1M46 56h1M48 56h1M55 56h1M32 57h8M41 57h1M43 57h1M45 57h1M47 57h1M49 57h1M30 58h11M42 58h1M44 58h1M46 58h1M48 58h1M29 59h15M45 59h1M47 59h1M49 59h1M28 60h17M46 60h1M48 60h1M50 60h1M27 61h19M47 61h1M49 61h1M51 61h1M27 62h18M46 62h1M48 62h1M50 62h1M69 62h2M26 63h20M47 63h1M49 63h1M51 63h1M67 63h3M26 64h13M40 64h1M42 64h5M48 64h1M50 64h1M52 64h1M65 64h3M70 64h1M26 65h10M37 65h1M39 65h1M41 65h1M43 65h1M45 65h3M49 65h1M51 65h1M56 65h1M63 65h3M68 65h2M25 66h10M36 66h1M38 66h1M40 66h1M42 66h1M44 66h1M46 66h1M48 66h1M50 66h1M52 66h1M55 66h1M60 66h5M66 66h3M25 67h9M35 67h1M37 67h1M39 67h1M41 67h1M43 67h1M45 67h1M47 67h1M49 67h1M51 67h1M54 67h1M56 67h2M59 67h4M66 67h3M25 68h8M34 68h1M36 68h1M38 68h1M40 68h1M42 68h1M44 68h1M46 68h1M48 68h1M50 68h1M52 68h2M55 68h2M58 68h3M63 68h2M66 68h2M25 69h9M35 69h1M37 69h1M39 69h1M41 69h1M43 69h1M45 69h1M47 69h1M51 69h1M54 69h3M58 69h1M61 69h3M65 69h1M25 70h8M34 70h1M36 70h1M38 70h1M40 70h1M42 70h1M44 70h1M46 70h1M49 70h2M52 70h4M59 70h4M64 70h1M26 71h8M35 71h1M37 71h1M39 71h1M41 71h1M43 71h1M45 71h1M47 71h3M51 71h5M57 71h5M63 71h1" />
<path stroke="#a55208" d="M53 38h1M47 39h1M44 40h5M54 40h1M42 41h6M49 41h1M52 41h2M55 41h1M40 42h7M48 42h1M51 42h4M56 42h1M62 42h2M37 43h7M52 43h4M57 43h1M59 43h1M61 43h1M34 44h7M46 44h1M49 44h3M53 44h6M60 44h1M36 45h2M44 45h4M49 45h1M52 45h1M54 45h6M42 46h7M50 46h1M53 46h1M55 46h6M39 47h1M41 47h4M46 47h2M49 47h1M54 47h1M56 47h6M38 48h1M40 48h4M45 48h4M50 48h1M55 48h1M57 48h5M64 48h1M35 49h1M37 49h6M45 49h5M51 49h1M57 49h4M66 49h1M34 50h1M36 50h6M43 50h1M46 50h5M52 50h1M56 50h1M58 50h3M62 50h1M67 50h1M33 51h6M40 51h1M42 51h1M47 51h5M58 51h3M63 51h1M32 52h6M39 52h1M41 52h1M48 52h5M56 52h2M59 52h1M63 52h1M67 52h1M32 53h3M36 53h1M38 53h1M46 53h1M49 53h3M53 53h1M55 53h1M57 53h1M59 53h1M65 53h1M31 54h1M33 54h1M35 54h1M37 54h1M47 54h1M50 54h3M54 54h1M56 54h2M59 54h1M61 54h1M64 54h1M32 55h1M34 55h1M44 55h1M46 55h1M48 55h1M50 55h4M55 55h1M57 55h1M61 55h1M31 56h1M41 56h1M43 56h1M45 56h1M47 56h1M51 56h4M56 56h3M60 56h2M65 56h1M40 57h1M42 57h1M44 57h1M46 57h1M48 57h1M51 57h8M60 57h3M41 58h1M43 58h1M45 58h1M47 58h1M49 58h1M52 58h8M61 58h2M44 59h1M46 59h1M48 59h1M50 59h1M53 59h7M61 59h2M45 60h1M47 60h1M49 60h1M52 60h1M54 60h6M61 60h3M46 61h1M48 61h1M50 61h1M53 61h7M61 61h3M45 62h1M47 62h1M49 62h1M51 62h1M54 62h7M62 62h2M46 63h1M48 63h1M50 63h1M53 63h1M55 63h6M62 63h2M39 64h1M41 64h1M47 64h1M49 64h1M51 64h1M54 64h1M58 64h3M62 64h1M68 64h1M36 65h1M38 65h1M40 65h1M42 65h1M44 65h1M48 65h1M50 65h1M52 65h1M59 65h1M67 65h1M35 66h1M37 66h1M39 66h1M41 66h1M43 66h1M45 66h1M47 66h1M49 66h1M51 66h1M57 66h1M34 67h1M36 67h1M38 67h1M40 67h1M42 67h1M44 67h1M46 67h1M48 67h1M50 67h1M65 67h1M33 68h1M35 68h1M37 68h1M39 68h1M41 68h1M45 68h1M47 68h1M49 68h1M65 68h1M34 69h1M36 69h1M38 69h1M40 69h1M48 69h1M52 69h1M64 69h1M66 69h1M33 70h1M35 70h1M37 70h1M39 70h1M63 70h1M65 70h2M34 71h1M36 71h1M38 71h1M40 71h1M56 71h1M62 71h1M64 71h2" />
</svg>