<svg xmlns="http://www.w3.org/2000/svg" viewBox="0 -0.5 96 96" shape-rendering="crispEdges">
<metadata>Made with Pixels to Svg https://codepen.io/shshaw/pen/XbxvNj</metadata>
<path stroke="#528c31" d="M61 24h4M38 25h4M58 25h3M64 25h2M42 26h3M56 26h1M63 26h3M45 27h1M54 27h1M59 27h1M64 27h2M34 28h1M38 28h3M52 28h2M57 28h3M32 29h1M38 29h6M46 29h3M52 29h1M57 29h3M31 30h1M39 30h15M55 30h5M64 30h1M30 31h1M35 31h2M39 31h20M63 31h1M65 31h1M29 32h1M33 32h4M40 32h19M64 32h1M28 33h1M32 33h5M40 33h18M63 33h1M65 33h2M31 34h7M41 34h17M62 34h1M64 34h1M66 34h1M27 35h1M30 35h8M42 35h1M44 35h12M63 35h1M65 35h3M29 36h10M44 36h13M62 36h1M64 36h4M26 37h1M29 37h10M44 37h12M59 37h1M61 37h1M63 37h6M28 38h12M45 38h9M55 38h1M58 38h1M60 38h1M62 38h7M25 39h1M28 39h13M44 39h1M46 39h5M52 39h1M54 39h1M57 39h1M59 39h1M61 39h8M27 40h15M45 40h1M47 40h1M49 40h1M51 40h1M53 40h1M56 40h1M58 40h1M60 40h10M27 41h12M40 41h1M42 41h1M46 41h1M48 41h1M50 41h1M54 41h2M57 41h13M24 42h1M27 42h11M39 42h1M41 42h1M43 42h2M47 42h1M49 42h1M52 42h18M24 43h1M26 43h11M38 43h1M40 43h1M42 43h1M44 43h1M46 43h24M26 44h10M37 44h1M39 44h1M41 44h1M43 44h1M45 44h1M47 44h24M25 45h12M38 45h1M40 45h1M42 45h1M44 45h1M46 45h25M25 46h11M37 46h1M39 46h1M41 46h1M43 46h1M45 46h26M25 47h10M36 47h1M42 47h1M44 47h1M46 47h13M60 47h11M26 48h10M44 48h16M61 48h10M26 49h8M45 49h8M56 49h4M61 49h10M26 50h7M43 50h1M45 50h7M58 50h3M62 50h9M26 51h2M29 51h1M31 51h1M44 51h5M50 51h1M52 51h1M59 51h2M62 51h8M28 52h1M30 52h1M45 52h1M47 52h1M49 52h1M51 52h1M60 52h2M63 52h7M27 53h1M29 53h1M46 53h1M48 53h1M61 53h1M63 53h7M28 54h1M64 54h5M43 55h2M50 55h1M64 55h5M29 56h1M42 56h4M50 56h3M65 56h4M41 57h4M50 57h2M65 57h3M40 58h4M50 58h2M65 58h3M38 59h4M48 59h1M50 59h2M65 59h3M37 60h4M50 60h1M65 60h2M34 61h1M36 61h3M49 61h2M65 61h2M32 62h1M34 62h3M47 62h1M49 62h2M64 62h2M30 63h1M33 63h2M48 63h2M64 63h1M28 64h1M31 64h2M46 64h1M48 64h2M27 65h1M30 65h1M47 65h2M46 66h2M44 67h3M44 68h2M43 69h2M42 70h2" />
<path stroke="#000000" d="M65 24h2M37 25h1M66 25h1M36 26h1M57 26h1M61 26h2M66 26h1M36 27h1M46 27h1M55 27h1M60 27h1M63 27h1M66 27h1M35 28h2M47 28h2M60 28h1M64 28h2M33 29h1M37 29h1M49 29h3M60 29h1M65 29h1M37 30h2M60 30h1M65 30h1M37 31h2M59 31h1M66 31h1M37 32h1M39 32h1M59 32h1M66 32h1M37 33h1M39 33h1M58 33h1M67 33h1M28 34h1M38 34h1M40 34h1M58 34h1M67 34h1M38 35h1M41 35h1M43 35h1M56 35h2M68 35h1M27 36h1M39 36h1M42 36h2M57 36h1M68 36h1M39 37h1M43 37h1M56 37h1M69 37h1M26 38h1M40 38h1M43 38h2M54 38h1M56 38h1M69 38h1M41 39h1M43 39h1M45 39h1M51 39h1M53 39h1M55 39h1M69 39h1M25 40h1M42 40h3M46 40h1M48 40h1M50 40h1M52 40h1M54 40h1M70 40h1M25 41h1M39 41h1M41 41h1M43 41h3M47 41h1M49 41h1M51 41h3M70 41h1M38 42h1M40 42h1M42 42h1M45 42h2M48 42h1M50 42h2M70 42h1M37 43h1M39 43h1M41 43h1M43 43h1M45 43h1M70 43h1M24 44h1M36 44h1M38 44h1M40 44h1M42 44h1M44 44h1M46 44h1M71 44h1M24 45h1M37 45h1M39 45h1M41 45h1M43 45h1M45 45h1M71 45h1M24 46h1M36 46h1M38 46h1M40 46h1M42 46h1M44 46h1M71 46h1M24 47h1M35 47h1M37 47h5M43 47h1M45 47h1M59 47h1M71 47h1M25 48h1M36 48h2M41 48h3M60 48h1M71 48h1M25 49h1M34 49h2M42 49h3M53 49h3M60 49h1M71 49h1M25 50h1M33 50h1M42 50h1M44 50h1M52 50h6M61 50h1M71 50h1M25 51h1M28 51h1M30 51h1M32 51h1M42 51h2M49 51h1M51 51h1M53 51h4M58 51h1M61 51h1M70 51h1M26 52h2M29 52h1M31 52h1M43 52h2M46 52h1M48 52h1M50 52h1M52 52h4M59 52h1M62 52h1M70 52h1M26 53h1M28 53h1M30 53h2M43 53h3M47 53h1M49 53h7M60 53h1M62 53h1M70 53h1M27 54h1M29 54h2M43 54h12M61 54h2M69 54h1M27 55h4M42 55h1M45 55h5M51 55h3M62 55h1M69 55h1M28 56h1M30 56h1M41 56h1M46 56h4M53 56h1M62 56h1M69 56h1M29 57h1M40 57h1M45 57h2M49 57h1M52 57h1M62 57h1M68 57h1M38 58h2M44 58h1M49 58h1M52 58h1M63 58h1M68 58h1M37 59h1M42 59h2M63 59h1M68 59h1M36 60h1M41 60h1M48 60h1M51 60h1M63 60h1M67 60h1M35 61h1M39 61h2M48 61h1M51 61h1M63 61h1M67 61h1M33 62h1M37 62h2M63 62h1M66 62h1M31 63h1M35 63h2M47 63h1M50 63h1M63 63h1M65 63h1M29 64h1M33 64h2M64 64h1M31 65h2M46 65h1M49 65h1M28 66h3M45 66h1M48 66h1M47 67h1M43 68h1M46 68h1M42 69h1M45 69h1M41 70h1M44 70h1M42 71h2" />
<path stroke="#de7bf7" d="M61 25h3M37 26h5M58 26h3M37 27h8M56 27h3M61 27h2M37 28h1M41 28h6M54 28h3M61 28h3M34 29h3M44 29h2M53 29h4M61 29h4M32 30h5M54 30h1M61 30h3M31 31h4M60 31h3M64 31h1M30 32h3M60 32h4M65 32h1M29 33h3M59 33h4M64 33h1M29 34h2M59 34h3M63 34h1M65 34h1M28 35h2M58 35h5M64 35h1M28 36h1M58 36h4M63 36h1M27 37h2M57 37h2M60 37h1M62 37h1M27 38h1M57 38h1M59 38h1M61 38h1M26 39h2M56 39h1M58 39h1M60 39h1M26 40h1M55 40h1M57 40h1M59 40h1M26 41h1M56 41h1M25 42h2M25 43h1M25 44h1M63 54h1M63 55h1M63 56h2M63 57h2M64 58h1M49 59h1M64 59h1M49 60h1M64 60h1M64 61h1M48 62h1M32 63h1M30 64h1M47 64h1M28 65h2" />
</svg>