<svg xmlns="http://www.w3.org/2000/svg" viewBox="0 -0.5 96 96" shape-rendering="crispEdges">
<metadata>Made with Pixels to Svg https://codepen.io/shshaw/pen/XbxvNj</metadata>
<path stroke="#d61094" d="M43 34h1M42 35h1M44 35h1M52 35h1M51 36h1M53 36h1M46 37h2M45 38h1M59 38h1M38 39h1M55 39h1M60 39h1M39 40h1M61 40h1M44 41h1M51 41h1M30 42h1M40 42h1M44 42h1M50 42h2M62 42h1M42 43h1M50 43h1M40 44h1M52 44h1M63 44h1M40 45h1M51 45h1M63 45h1M30 46h1M39 46h1M51 46h1M38 47h1M52 47h1M37 48h1M52 48h1M25 49h1M35 49h2M53 49h1M24 50h1M30 50h1M33 50h2M54 50h1M69 50h1M28 51h1M55 51h2M57 52h2M64 52h1M64 53h3M59 54h1M62 54h6M58 55h10M58 56h11M25 57h1M28 57h1M58 57h2M62 57h7M24 58h1M58 58h4M64 58h6M59 59h5M65 59h5M59 60h5M65 60h5M61 61h3M65 61h5M26 62h1M39 62h1M58 62h1M65 62h5M29 63h1M35 63h1M38 63h1M41 63h1M56 63h1M65 63h5M24 64h1M53 64h1M65 64h4M66 65h3M26 67h2M49 69h1M26 70h2" />
<path stroke="#ffffff" d="M43 35h1M52 36h1M33 38h4M46 38h4M33 39h2M45 39h1M57 39h2M32 40h2M45 40h1M55 40h3M32 41h2M45 41h1M54 41h4M31 42h3M53 42h4M31 43h2M53 43h3M31 44h2M42 44h6M53 44h2M31 45h2M41 45h8M31 46h2M41 46h8M40 47h1M42 47h6M41 48h1M43 48h1M45 48h2M42 49h1M44 49h1M25 50h1M31 51h1M69 51h1M31 52h1M31 53h2M31 54h2M31 55h2M32 56h1M29 57h1M25 58h1M26 63h2M25 64h4M35 64h5M25 65h2M31 65h7M26 66h1M25 67h1M25 68h2M26 69h1M39 70h1M39 71h1M56 71h1" />
<path stroke="#000000" d="M42 36h1M44 36h1M33 37h4M42 37h1M44 37h1M48 37h2M51 37h1M53 37h1M32 38h1M37 38h2M42 38h1M44 38h1M50 38h2M53 38h1M57 38h2M32 39h1M39 39h1M42 39h1M44 39h1M51 39h1M53 39h1M56 39h1M59 39h1M31 40h1M40 40h1M42 40h1M44 40h1M51 40h1M53 40h2M60 40h1M31 41h1M40 41h1M42 41h1M50 41h1M53 41h1M61 41h1M41 42h1M45 42h5M52 42h1M61 42h1M30 43h1M43 43h2M51 43h2M62 43h1M30 44h1M51 44h1M62 44h1M30 45h1M62 45h1M62 46h2M31 47h1M62 47h2M31 48h1M63 48h1M26 49h6M63 49h3M31 50h1M62 50h1M66 50h3M25 51h3M30 51h1M60 51h5M70 51h1M29 52h2M59 52h1M65 52h5M30 53h1M58 53h1M67 53h1M30 54h1M58 54h1M68 54h1M30 55h1M57 55h1M68 55h1M29 56h3M57 56h1M69 56h1M26 57h2M31 57h1M57 57h1M60 57h2M69 57h1M30 58h3M57 58h1M62 58h2M70 58h1M25 59h5M33 59h1M58 59h1M64 59h1M70 59h1M34 60h1M58 60h1M64 60h1M70 60h1M35 61h2M59 61h2M64 61h1M70 61h1M27 62h1M37 62h2M57 62h1M61 62h4M70 62h1M25 63h1M28 63h1M36 63h2M39 63h2M54 63h2M64 63h1M70 63h1M30 64h5M50 64h3M63 64h1M69 64h1M24 65h1M52 65h2M63 65h1M69 65h1M24 66h2M54 66h1M62 66h1M68 66h1M24 67h1M39 67h1M55 67h1M62 67h1M68 67h1M24 68h1M35 68h5M56 68h1M61 68h1M67 68h1M25 69h1M32 69h3M39 69h1M57 69h1M59 69h2M67 69h1M25 70h1M31 70h1M38 70h1M50 70h1M56 70h3M66 70h1M26 71h1M30 71h1M38 71h1M51 71h1M53 71h3M65 71h1" />
<path stroke="#ffb563" d="M43 36h1M43 37h1M52 37h1M43 38h1M52 38h1M35 39h3M43 39h1M46 39h5M52 39h1M34 40h5M43 40h1M46 40h5M52 40h1M58 40h2M34 41h6M43 41h1M46 41h4M52 41h1M58 41h3M34 42h6M42 42h2M57 42h4M33 43h9M45 43h5M56 43h6M33 44h7M41 44h1M48 44h3M55 44h7M33 45h7M49 45h2M52 45h10M33 46h6M40 46h1M49 46h2M52 46h10M32 47h6M39 47h1M41 47h1M48 47h4M53 47h9M32 48h5M38 48h3M42 48h1M44 48h1M47 48h5M53 48h10M32 49h3M37 49h5M43 49h1M45 49h8M54 49h9M26 50h4M32 50h1M35 50h19M55 50h7M63 50h3M29 51h1M32 51h23M57 51h3M65 51h4M32 52h25M60 52h4M33 53h25M59 53h5M33 54h25M60 54h2M33 55h24M33 56h24M30 57h1M32 57h25M26 58h4M33 58h24M34 59h24M35 60h23M37 61h22M40 62h17M42 63h12M29 64h1M40 64h10M64 64h1M27 65h4M38 65h14M64 65h2M27 66h27M63 66h5M28 67h11M40 67h15M63 67h5M27 68h8M40 68h16M62 68h5M27 69h5M40 69h9M50 69h7M61 69h6M28 70h3M40 70h10M51 70h5M59 70h7M27 71h3M40 71h11M52 71h1M57 71h8" />
</svg>