<svg xmlns="http://www.w3.org/2000/svg" viewBox="0 -0.5 96 96" shape-rendering="crispEdges">
<metadata>Made with Pixels to Svg https://codepen.io/shshaw/pen/XbxvNj</metadata>
<path stroke="#000000" d="M49 29h1M51 29h1M57 29h1M48 30h1M50 30h1M52 30h1M56 30h1M58 30h2M43 31h3M48 31h1M52 31h1M56 31h1M58 31h1M60 31h1M43 32h1M46 32h2M53 32h1M55 32h1M60 32h1M40 33h2M44 33h1M48 33h1M53 33h1M55 33h1M60 33h1M64 33h1M39 34h1M42 34h3M54 34h1M61 34h1M63 34h1M65 34h1M40 35h1M44 35h1M61 35h2M65 35h1M41 36h1M61 36h1M64 36h1M41 37h1M64 37h1M37 38h3M42 38h1M64 38h3M35 39h2M40 39h3M63 39h1M68 39h2M41 40h1M61 40h1M70 40h1M33 41h1M38 41h5M60 41h1M70 41h1M34 42h1M37 42h1M60 42h1M69 42h1M35 43h1M39 43h1M59 43h1M69 43h1M34 44h1M36 44h2M40 44h1M59 44h1M68 44h1M32 45h2M37 45h3M58 45h2M66 45h2M31 46h1M36 46h1M57 46h1M62 46h4M67 46h1M32 47h1M37 47h1M58 47h2M64 47h1M66 47h2M31 48h1M36 48h1M60 48h1M62 48h2M67 48h3M29 49h2M37 49h2M59 49h3M70 49h1M27 50h1M39 50h1M69 50h1M29 51h2M38 51h1M67 51h4M31 52h2M37 52h1M65 52h2M71 52h1M33 53h1M38 53h3M67 53h1M71 53h1M31 54h2M41 54h1M66 54h1M71 54h1M30 55h1M71 55h1M31 56h2M40 56h1M44 56h1M69 56h3M32 57h2M39 57h1M43 57h1M47 57h1M50 57h1M67 57h1M70 57h1M40 58h1M43 58h1M46 58h2M49 58h1M66 58h1M69 58h1M31 59h1M43 59h1M45 59h1M47 59h1M49 59h1M66 59h1M68 59h1M30 60h1M44 60h1M48 60h1M67 60h1M31 61h3M65 61h2M32 62h1M66 62h1M31 63h1M62 63h1M67 63h1M30 64h1M36 64h3M41 64h1M63 64h3M67 64h1M29 65h1M33 65h3M38 65h1M40 65h3M58 65h1M60 65h1M62 65h2M66 65h1M30 66h3M38 66h4M54 66h1M57 66h4M64 66h2M37 67h5M44 67h3M50 67h1M53 67h3M57 67h2M60 67h1M66 67h2M36 68h1M41 68h6M49 68h3M53 68h6M61 68h1M68 68h1M30 69h4M43 69h4M48 69h10M61 69h1M69 69h1M27 70h5M45 70h11M68 70h1M24 71h12M46 71h8M62 71h1M69 71h1" />
<path stroke="#ffffff" d="M49 30h1M51 30h1M57 30h1M49 31h3M57 31h1M59 31h1M44 32h2M48 32h5M56 32h4M45 33h3M49 33h4M56 33h4M40 34h2M45 34h9M55 34h4M60 34h1M64 34h1M41 35h3M45 35h14M63 35h2M42 36h17M62 36h2M42 37h16M62 37h1M43 38h15M59 38h1M43 39h16M60 39h1M42 40h16M59 40h1M43 41h14M58 41h1M38 42h20M59 42h1M40 43h17M58 43h1M35 44h1M41 44h15M34 45h3M40 45h15M32 46h4M37 46h18M33 47h4M38 47h18M33 48h3M37 48h18M64 48h3M31 49h6M39 49h20M62 49h8M28 50h11M41 50h15M57 50h1M59 50h1M61 50h1M63 50h6M31 51h7M40 51h17M58 51h1M60 51h1M62 51h5M33 52h4M38 52h16M55 52h3M59 52h1M61 52h4M35 53h3M41 53h12M54 53h1M56 53h1M58 53h1M60 53h1M62 53h1M64 53h3M33 54h4M38 54h1M42 54h12M55 54h1M57 54h1M61 54h1M63 54h1M65 54h1M31 55h3M37 55h1M39 55h1M41 55h3M45 55h8M54 55h1M36 56h3M41 56h3M45 56h5M51 56h3M34 57h4M40 57h2M44 57h3M48 57h2M52 57h1M33 58h3M38 58h1M44 58h2M48 58h1M32 59h3M44 59h1M48 59h1M34 61h1M33 62h2M32 63h2M48 63h1M48 64h1M47 65h2M47 66h2M47 67h1M63 67h1M65 67h1M47 68h1M64 68h1M66 68h2M65 69h1M67 69h2M64 70h1M66 70h1M67 71h1" />
<path stroke="#9c8c08" d="M39 33h1M67 38h1M34 39h1M39 39h1M62 39h1M33 40h1M38 40h3M69 40h1M36 41h2M61 41h1M66 41h4M35 42h2M61 42h8M36 43h3M60 43h9M38 44h2M60 44h8M60 45h6M58 46h4M66 46h1M60 47h4M65 47h1M32 48h1M61 48h1M28 49h1M40 50h1M28 51h1M39 51h1M32 53h1M34 53h1M44 55h1M35 56h1M50 56h1M68 56h1M42 57h1M32 58h1M41 63h1M61 63h1M42 64h1M42 66h1M46 66h1M59 67h1M35 68h1M59 68h2M29 69h1M34 69h1M42 69h1M58 69h3M26 70h1M39 70h1M41 70h4M56 70h7M67 70h1M36 71h1M38 71h1M40 71h6M54 71h8" />
<path stroke="#c58c7b" d="M59 34h1M59 35h2M59 36h2M58 37h4M63 37h1M58 38h1M60 38h4M37 39h2M59 39h1M61 39h1M64 39h4M34 40h4M58 40h1M60 40h1M62 40h7M34 41h2M57 41h1M59 41h1M62 41h4M58 42h1M57 43h1M56 44h3M55 45h3M55 46h2M56 47h2M55 48h5M56 50h1M58 50h1M60 50h1M62 50h1M57 51h1M59 51h1M61 51h1M54 52h1M58 52h1M60 52h1M67 52h4M53 53h1M55 53h1M57 53h1M59 53h1M61 53h1M63 53h1M68 53h3M37 54h1M39 54h2M54 54h1M56 54h1M58 54h3M62 54h1M64 54h1M67 54h4M34 55h3M38 55h1M40 55h1M53 55h1M55 55h16M33 56h2M39 56h1M54 56h14M38 57h1M51 57h1M53 57h14M68 57h2M36 58h2M39 58h1M41 58h2M50 58h16M67 58h2M35 59h8M46 59h1M50 59h16M67 59h1M31 60h13M45 60h3M49 60h18M35 61h30M35 62h31M34 63h7M42 63h6M49 63h12M63 63h4M31 64h5M39 64h2M43 64h5M49 64h14M66 64h1M30 65h3M39 65h1M43 65h4M49 65h9M59 65h1M61 65h1M43 66h3M49 66h5M55 66h2M61 66h3M42 67h2M48 67h2M51 67h2M56 67h1M61 67h2M64 67h1M37 68h4M48 68h1M52 68h1M62 68h2M65 68h1M35 69h7M47 69h1M62 69h3M66 69h1M32 70h7M40 70h1M63 70h1M65 70h1M37 71h1M39 71h1M63 71h4M68 71h1" />
</svg>