<svg xmlns="http://www.w3.org/2000/svg" viewBox="0 -0.5 96 96" shape-rendering="crispEdges">
<metadata>Made with Pixels to Svg https://codepen.io/shshaw/pen/XbxvNj</metadata>
<path stroke="#5a5252" d="M38 41h1M35 43h1M33 44h1M32 45h1M40 46h1M44 46h2M50 46h1M30 47h1M41 47h1M53 47h1M39 48h1M55 48h1M29 49h1M37 49h1M57 49h1M30 50h1M29 51h1M29 52h2M34 52h1M59 52h1M28 53h2M31 53h1M33 53h1M58 53h1M29 54h2M32 54h1M34 54h1M57 54h1M29 55h3M35 55h1M57 55h1M30 56h2M33 56h2M36 56h1M38 56h1M40 56h1M54 56h4M30 57h2M33 57h5M39 57h1M41 57h1M43 57h1M45 57h1M47 57h1M49 57h10M26 58h1M32 58h9M42 58h1M44 58h15M26 59h1M30 59h1M32 59h26M59 59h1M27 60h1M29 60h1M31 60h1M33 60h23M60 60h1M63 60h1M26 61h1M28 61h1M32 61h1M34 61h1M36 61h17M61 61h2M26 62h2M35 62h1M38 62h9M67 62h3M25 63h2M28 63h1M64 63h1M66 63h1M70 63h1M25 64h3M63 64h2M25 65h2M61 65h3M25 66h2M58 66h1M60 66h1M62 66h1M25 67h1M57 67h1M59 67h1M61 67h1M63 67h1M26 68h1M54 68h1M56 68h1M58 68h2M62 68h1M27 69h1M51 69h3M55 69h6M63 69h1M69 69h2M26 70h1M28 70h1M30 70h1M32 70h4M37 70h1M39 70h1M49 70h10M61 70h2M68 70h1M70 70h1M25 71h1M27 71h1M29 71h10M40 71h1M42 71h1M44 71h1M46 71h11M59 71h3M65 71h1M67 71h1M69 71h2" />
<path stroke="#000000" d="M39 41h1M37 42h1M40 42h1M36 43h1M41 43h1M34 44h1M41 44h1M40 45h1M31 46h1M46 46h4M42 47h2M51 47h2M30 48h1M40 48h1M54 48h1M38 49h1M56 49h1M29 50h1M36 50h1M58 50h1M35 51h1M59 51h1M28 52h1M60 52h1M34 53h1M61 53h1M27 54h1M33 54h1M62 54h1M27 55h1M33 55h1M62 55h1M26 56h1M32 56h1M61 56h1M63 56h1M26 57h1M32 57h1M63 57h1M31 58h1M64 58h1M25 59h1M31 59h1M64 59h1M25 60h1M30 60h1M65 60h1M25 61h1M30 61h1M65 61h1M25 62h1M29 62h1M65 62h1M65 63h1M24 64h1M28 64h1M66 64h1M70 64h1M24 65h1M27 65h1M64 65h2M70 65h1M24 66h1M61 66h1M63 66h2M69 66h1M24 67h1M26 67h1M60 67h1M62 67h1M64 67h1M70 67h1M25 68h1M60 68h2M63 68h1M70 68h1M25 69h1M61 69h2M24 70h1M59 70h2M71 70h1M24 71h1M57 71h2M71 71h1" />
<path stroke="#ffffff" d="M38 42h2M37 43h3M36 44h2M35 45h2M32 46h1M31 47h1M44 47h7M42 48h11M39 49h10M37 50h3M41 50h1M43 50h2M36 51h1M38 51h1M40 51h1M42 51h1M37 52h1M39 52h1M36 53h1M38 53h1M59 53h2M58 54h4M58 55h4M27 56h1M59 56h2M62 56h1M59 57h4M60 58h4M60 59h4M61 60h2M57 62h1M54 63h1M56 63h1M58 63h1M60 63h1M67 63h3M29 64h1M31 64h1M33 64h1M38 64h4M50 64h4M55 64h1M57 64h1M59 64h1M65 64h1M67 64h2M28 65h1M30 65h1M32 65h1M34 65h6M42 65h3M46 65h1M48 65h5M54 65h1M66 65h3M28 66h4M33 66h1M35 66h1M37 66h1M45 66h1M47 66h1M49 66h2M66 66h2M28 67h5M34 67h1M65 67h1M67 67h1M29 68h1M31 68h1M64 68h1M66 68h1" />
<path stroke="#849c08" d="M40 43h1M35 44h1M38 44h3M33 45h2M37 45h3M33 46h7M32 47h9M31 48h8M41 48h1M53 48h1M30 49h7M49 49h7M31 50h5M40 50h1M42 50h1M45 50h13M30 51h5M37 51h1M39 51h1M41 51h1M43 51h16M31 52h3M35 52h2M38 52h1M40 52h19M30 53h1M32 53h1M35 53h1M37 53h1M39 53h19M28 54h1M31 54h1M35 54h22M28 55h1M32 55h1M34 55h1M36 55h21M28 56h2M35 56h1M37 56h1M39 56h1M41 56h13M58 56h1M27 57h3M38 57h1M40 57h1M42 57h1M44 57h1M46 57h1M48 57h1M25 58h1M27 58h4M41 58h1M43 58h1M59 58h1M27 59h3M58 59h1M26 60h1M28 60h1M32 60h1M56 60h4M64 60h1M27 61h1M29 61h1M31 61h1M33 61h1M35 61h1M53 61h8M63 61h2M28 62h1M30 62h5M36 62h2M47 62h10M58 62h7M24 63h1M27 63h1M29 63h25M55 63h1M57 63h1M59 63h1M61 63h3M30 64h1M32 64h1M34 64h4M42 64h8M54 64h1M56 64h1M58 64h1M60 64h3M69 64h1M29 65h1M31 65h1M33 65h1M40 65h2M45 65h1M47 65h1M53 65h1M55 65h6M69 65h1M27 66h1M32 66h1M34 66h1M36 66h1M38 66h7M46 66h1M48 66h1M51 66h7M59 66h1M65 66h1M68 66h1M27 67h1M33 67h1M35 67h22M58 67h1M66 67h1M68 67h2M27 68h2M30 68h1M32 68h22M55 68h1M57 68h1M65 68h1M67 68h3M26 69h1M28 69h23M54 69h1M64 69h5M25 70h1M27 70h1M29 70h1M31 70h1M36 70h1M38 70h1M40 70h9M63 70h5M69 70h1M26 71h1M28 71h1M39 71h1M41 71h1M43 71h1M45 71h1M62 71h3M66 71h1M68 71h1" />
</svg>