<svg xmlns="http://www.w3.org/2000/svg" viewBox="0 -0.5 80 80" shape-rendering="crispEdges">
<metadata>Made with Pixels to Svg https://codepen.io/shshaw/pen/XbxvNj</metadata>
<path stroke="#625241" d="M29 9h1M30 10h1M30 11h1M27 12h1M31 12h1M31 13h1M31 14h1M32 15h1M16 16h1M32 16h1M46 16h2M17 17h1M24 17h1M32 17h3M44 17h1M18 18h1M21 18h2M27 18h1M30 18h2M36 18h3M43 18h1M19 19h2M37 19h1M40 19h3M20 20h1M38 20h1M46 20h1M20 21h5M39 21h1M26 22h2M39 22h1M45 22h1M15 23h1M21 23h1M28 23h2M40 23h1M20 24h1M30 24h1M40 24h1M47 24h1M31 25h1M47 25h1M32 26h1M47 26h2M47 27h2M9 28h1M33 28h2M47 28h1M49 28h1M47 29h1M49 29h1M8 30h1M11 30h14M46 30h1M50 30h5M9 31h2M25 31h2M40 31h1M46 31h1M50 31h1M8 32h1M27 32h2M39 32h1M45 32h1M50 32h1M7 33h1M29 33h1M50 33h1M36 34h1M41 34h1M50 34h1M31 35h1M6 36h1M44 36h1M32 37h2M51 37h1M51 38h1M51 39h1M46 40h1M51 40h2M9 41h13M31 41h2M38 41h1M49 41h2M52 41h1M8 42h1M22 42h1M26 42h1M37 42h1M52 42h1M27 43h1M29 43h1M46 43h1M54 43h4M6 44h1M36 44h1M42 44h1M43 45h1M45 48h1M36 49h1M53 49h2M37 50h1M32 51h1M37 51h1M38 52h1M43 52h1M54 52h1M7 53h1M28 53h1M53 53h1M26 54h1M52 54h1M10 55h1M23 55h1M41 55h1M50 55h1M11 56h1M22 56h1M44 56h1M35 57h1M45 57h1M47 57h1M8 58h1M36 58h1M45 58h1M51 59h1M9 60h1M33 60h1M40 61h1M49 61h1M41 62h1M30 63h1M41 63h1M48 63h1M13 64h1M28 64h1M41 64h1M14 65h5M25 65h3M47 65h1M14 66h1M25 66h1M39 66h1M12 67h1M26 67h1M11 68h2M21 68h1M28 68h1M36 68h1M10 69h1M12 69h10M25 69h1M44 69h1M9 70h17" />
<path stroke="#000000" d="M28 10h1M28 11h1M27 13h1M27 14h1M26 15h1M15 16h1M26 16h1M15 17h1M25 17h2M47 17h1M15 18h1M28 18h2M47 18h1M15 19h1M47 19h1M15 20h1M15 21h1M46 21h1M14 22h2M21 22h1M46 22h1M13 23h1M46 23h1M12 24h1M16 24h1M11 25h1M17 25h3M40 25h1M10 26h1M40 26h1M9 27h1M33 27h1M40 27h1M8 28h1M40 28h1M8 29h1M34 29h1M40 29h1M7 30h1M34 30h1M40 30h1M55 30h1M7 31h1M35 31h1M55 31h1M7 32h1M35 32h1M54 32h1M6 33h1M35 33h1M37 33h4M45 33h1M53 33h1M6 34h1M30 34h1M35 34h1M42 34h1M44 34h1M52 34h1M6 35h1M34 35h1M43 35h1M51 35h1M5 36h1M31 36h1M33 36h1M51 36h1M5 37h1M44 37h1M5 38h1M32 38h1M45 38h1M5 39h1M32 39h1M45 39h1M5 40h1M32 40h1M5 41h1M39 41h2M46 41h1M5 42h1M7 42h1M23 42h3M31 42h1M38 42h1M41 42h1M46 42h3M5 43h2M28 43h1M31 43h1M37 43h1M42 43h1M47 43h1M52 43h2M5 44h1M30 44h2M47 44h1M52 44h1M57 44h1M5 45h1M31 45h1M36 45h1M47 45h1M53 45h1M56 45h1M5 46h1M31 46h1M36 46h1M43 46h1M47 46h1M53 46h1M55 46h1M5 47h1M31 47h1M36 47h1M43 47h1M47 47h1M53 47h2M5 48h1M31 48h1M36 48h1M43 48h2M47 48h1M53 48h1M5 49h1M31 49h1M43 49h1M47 49h1M5 50h1M31 50h1M43 50h1M47 50h1M54 50h1M5 51h2M31 51h1M43 51h1M47 51h1M54 51h1M6 52h1M30 52h1M32 52h1M47 52h1M55 52h2M6 53h1M29 53h1M32 53h1M42 53h1M47 53h1M57 53h1M73 53h1M6 54h1M8 54h1M27 54h1M33 54h1M42 54h2M47 54h1M51 54h1M57 54h1M72 54h1M6 55h1M9 55h1M24 55h2M33 55h1M44 55h1M47 55h1M49 55h1M57 55h1M7 56h1M12 56h10M34 56h1M41 56h1M46 56h1M48 56h1M56 56h1M70 56h1M7 57h1M34 57h1M36 57h1M40 57h1M46 57h1M55 57h2M60 57h1M7 58h1M34 58h1M37 58h3M46 58h1M53 58h2M56 58h1M69 58h1M8 59h1M34 59h1M40 59h1M45 59h1M52 59h2M59 59h1M8 60h1M40 60h1M45 60h1M50 60h1M53 60h1M57 60h1M59 60h1M68 60h1M9 61h1M33 61h1M44 61h1M57 61h2M68 61h1M9 62h2M32 62h1M44 62h1M49 62h1M67 62h1M10 63h2M31 63h1M43 63h1M54 63h1M67 63h1M11 64h2M29 64h1M42 64h1M48 64h1M55 64h1M67 64h1M12 65h2M19 65h3M41 65h1M53 65h2M66 65h1M12 66h2M22 66h3M40 66h1M47 66h1M51 66h2M66 66h1M11 67h1M27 67h2M37 67h2M46 67h1M65 67h1M10 68h1M13 68h8M29 68h7M45 68h1M64 68h2M9 69h1M11 69h1M22 69h3M43 69h1M63 69h2M26 70h2M41 70h2M63 70h1" />
<path stroke="#e6de83" d="M29 10h1M29 11h1M30 12h1M30 13h1M30 14h1M31 15h1M31 16h1M31 17h1M46 17h1M17 18h1M24 18h2M32 18h3M44 18h2M17 19h2M21 19h3M33 19h4M38 19h2M43 19h2M18 20h1M34 20h4M39 20h4M18 21h2M35 21h4M40 21h4M19 22h2M42 22h3M19 23h2M43 23h3M44 24h2M45 25h2M46 26h1M48 28h1M48 29h1M48 30h1M48 31h2M52 31h3M49 32h1M53 32h1M49 33h1M54 44h3M55 45h1" />
<path stroke="#9c836a" d="M28 12h1M28 13h2M28 14h2M27 15h3M27 16h4M27 17h4M35 17h1M45 17h1M23 18h1M26 18h1M35 18h1M39 18h1M16 19h1M24 19h7M32 19h1M16 20h1M21 20h9M31 20h1M43 20h1M16 21h2M25 21h6M32 21h1M16 22h2M22 22h4M28 22h10M40 22h1M14 23h1M16 23h3M22 23h6M30 23h10M41 23h2M13 24h3M17 24h3M21 24h9M31 24h9M41 24h3M12 25h5M20 25h11M32 25h8M41 25h4M11 26h21M33 26h7M41 26h5M10 27h23M34 27h6M41 27h5M10 28h23M35 28h5M41 28h6M9 29h25M35 29h5M41 29h6M9 30h2M25 30h9M35 30h5M41 30h5M47 30h1M49 30h1M8 31h1M11 31h14M27 31h8M36 31h4M41 31h5M47 31h1M9 32h18M29 32h6M36 32h3M40 32h5M46 32h2M8 33h21M30 33h5M36 33h1M41 33h4M46 33h3M7 34h23M31 34h4M37 34h4M43 34h1M45 34h4M7 35h24M32 35h2M35 35h8M44 35h5M7 36h24M32 36h1M34 36h10M45 36h5M6 37h26M34 37h10M45 37h5M6 38h26M33 38h12M46 38h4M6 39h26M33 39h12M46 39h4M6 40h26M33 40h13M47 40h3M6 41h3M22 41h9M33 41h5M41 41h5M47 41h2M6 42h1M9 42h13M27 42h4M32 42h5M39 42h2M42 42h4M49 42h1M7 43h20M30 43h1M32 43h5M38 43h4M43 43h3M48 43h2M7 44h23M32 44h4M37 44h5M43 44h4M48 44h3M6 45h25M32 45h4M37 45h6M44 45h3M48 45h3M6 46h25M32 46h4M37 46h6M44 46h3M48 46h3M6 47h25M32 47h4M37 47h6M44 47h3M48 47h3M6 48h25M32 48h4M37 48h6M46 48h1M48 48h4M6 49h25M32 49h4M37 49h6M44 49h3M48 49h4M6 50h25M32 50h5M38 50h5M44 50h3M48 50h5M7 51h24M33 51h4M38 51h5M44 51h3M48 51h6M7 52h23M31 52h1M33 52h5M39 52h4M44 52h3M48 52h6M8 53h20M30 53h2M33 53h9M43 53h4M48 53h5M7 54h1M9 54h17M28 54h5M34 54h8M44 54h3M48 54h3M53 54h1M7 55h2M11 55h12M26 55h7M34 55h7M42 55h2M45 55h2M48 55h1M51 55h5M8 56h3M23 56h11M35 56h6M42 56h2M45 56h1M47 56h1M49 56h7M8 57h26M37 57h3M41 57h4M48 57h7M9 58h25M35 58h1M40 58h5M47 58h6M9 59h25M35 59h5M41 59h4M46 59h5M10 60h23M34 60h6M41 60h4M46 60h4M10 61h23M34 61h6M41 61h3M45 61h4M11 62h21M33 62h8M42 62h2M45 62h4M12 63h18M32 63h9M42 63h1M44 63h4M14 64h14M30 64h11M43 64h5M22 65h3M28 65h13M42 65h5M15 66h7M26 66h13M41 66h6M13 67h13M29 67h8M39 67h7M22 68h6M37 68h8M26 69h17M28 70h13" />
<path stroke="#c5ac73" d="M29 12h1M30 15h1M16 17h1M16 18h1M46 18h1M31 19h1M45 19h2M17 20h1M19 20h1M30 20h1M32 20h2M44 20h2M31 21h1M33 21h2M44 21h2M18 22h1M38 22h1M41 22h1M46 24h1M46 27h1M51 31h1M48 32h1M51 32h2M51 33h2M49 34h1M51 34h1M49 35h2M50 36h1M50 37h1M50 38h1M50 39h1M50 40h1M51 41h1M50 42h2M50 43h2M51 44h1M53 44h1M51 45h2M54 45h1M51 46h2M54 46h1M51 47h2M52 48h1M52 49h1M53 50h1M54 53h3M54 54h3M56 55h1" />
<path stroke="#394183" d="M67 50h4M65 51h1M72 51h1M64 52h1M73 52h1M63 53h1M62 54h1M71 54h1M61 55h1M70 55h1M61 56h1M69 57h1M60 58h1M68 59h1M53 61h1M54 62h1M57 62h1M56 63h1M66 64h1M65 66h1" />
<path stroke="#416aac" d="M66 51h1M71 51h1M51 60h2M50 61h2M50 62h2M49 63h4M49 64h6M48 65h5M55 65h1M48 66h3M53 66h3M47 67h10M46 68h13M45 69h18M43 70h20" />
<path stroke="#62bdf6" d="M67 51h4M65 52h6M64 53h6M63 54h6M63 55h5M64 56h2" />
<path stroke="#399ccd" d="M71 52h2M70 53h3M69 54h2M62 55h1M68 55h2M62 56h2M66 56h4M61 57h8M61 58h8M60 59h8M60 60h8M52 61h1M59 61h9M52 62h2M58 62h9M53 63h1M57 63h10M56 64h10M56 65h10M56 66h9M57 67h8M59 68h5" />
<path stroke="#fff69c" d="M55 58h1M54 59h2M54 60h3M54 61h3M55 62h2M55 63h1" />
<path stroke="#414141" d="M56 59h2" />
</svg>