<svg xmlns="http://www.w3.org/2000/svg" viewBox="0 -0.5 80 80" shape-rendering="crispEdges">
<metadata>Made with Pixels to Svg https://codepen.io/shshaw/pen/XbxvNj</metadata>
<path stroke="#527b08" d="M39 6h18M34 7h1M38 7h1M57 7h1M60 7h1M31 8h1M33 8h1M61 8h1M64 9h1M66 10h1M68 11h1M35 13h1M67 13h2M71 13h1M68 14h2M69 15h2M70 16h2M29 17h1M69 17h3M24 18h1M29 18h1M68 18h3M25 19h1M27 19h1M67 19h3M65 20h4M65 21h4M67 22h2M21 23h1M68 23h1M17 24h1M20 24h1M17 25h1M20 25h1M16 26h2M19 26h1M33 26h3M16 27h2M19 27h1M31 27h3M16 28h3M26 28h6M15 29h4M22 29h7M15 30h12M15 31h10M15 32h8M14 33h7M14 34h5M14 35h3M14 36h2M20 62h2M40 62h1M22 63h1M41 63h1M18 65h1M36 66h1M36 67h1M10 68h3M20 68h1M36 68h1M9 69h1M21 69h2M36 69h1M23 70h2M37 70h1M53 73h1M63 73h1" />
<path stroke="#295208" d="M35 7h3M58 7h2M32 8h1M62 8h2M30 9h1M65 9h1M30 10h1M32 10h1M58 10h1M61 10h1M67 10h1M33 11h1M56 11h1M63 11h1M69 11h1M34 12h1M63 12h1M65 12h1M70 12h2M65 13h1M72 13h1M34 14h1M73 14h1M33 15h1M51 15h2M73 15h1M31 16h2M50 16h2M73 16h1M30 17h1M72 17h1M19 18h1M25 18h1M28 18h1M26 19h1M46 19h2M24 20h2M45 20h2M69 20h1M18 21h1M23 21h1M22 22h1M42 22h1M17 23h1M42 23h1M39 24h1M16 25h1M39 25h1M34 27h1M32 28h1M29 29h1M27 30h1M23 32h1M23 33h1M14 37h1M19 53h3M22 54h2M18 55h1M24 55h1M25 57h1M43 57h1M47 57h1M48 58h1M18 59h1M26 59h1M18 60h1M40 60h1M19 61h1M40 61h1M26 62h2M23 63h4M41 64h1M47 64h1M17 65h1M42 65h2M7 66h6M44 66h3M6 67h1M28 67h1M28 68h1M27 69h1M45 69h2M8 70h1M25 70h2M16 71h3M28 71h2M37 71h1M44 71h2M55 71h1M61 71h1M14 72h2M38 72h2M62 72h1M12 73h2M40 73h3M50 73h1M64 73h1" />
<path stroke="#6a9c10" d="M39 7h1M56 7h1M45 9h6M41 10h4M38 11h3M54 11h2M36 12h2M53 12h2M52 13h2M50 14h3M48 15h3M22 16h1M47 16h3M21 17h3M31 17h2M44 17h5M20 18h4M30 18h5M36 18h1M38 18h1M41 18h7M20 19h5M28 19h6M35 19h1M37 19h1M39 19h7M19 20h5M26 20h9M36 20h1M38 20h7M19 21h4M24 21h20M18 22h4M23 22h19M18 23h3M22 23h19M18 24h2M21 24h18M18 25h2M21 25h17M18 26h1M20 26h13M18 27h1M20 27h11M19 28h7M19 29h3M19 54h2M19 55h2M18 56h4M18 57h5M44 57h2M18 58h8M42 58h3M19 59h7M41 59h4M19 60h8M41 60h4M18 61h1M20 61h7M39 61h1M41 61h4M18 62h2M22 62h4M38 62h2M41 62h5M18 63h4M27 63h1M38 63h3M42 63h6M18 64h10M37 64h4M42 64h5M19 65h10M37 65h5M44 65h3M19 66h10M37 66h7M7 67h6M19 67h9M37 67h9M7 68h3M13 68h3M21 68h7M37 68h9M7 69h2M10 69h8M20 69h1M23 69h4M28 69h1M35 69h1M37 69h8M7 70h1M9 70h11M21 70h2M27 70h2M35 70h2M38 70h7M8 71h8M22 71h6M35 71h2M38 71h6M8 72h6M16 72h2M24 72h4M35 72h3M40 72h4M55 72h2M9 73h3M14 73h2M35 73h5M54 73h4" />
<path stroke="#8bbd31" d="M40 7h16M34 8h27M31 9h14M51 9h13M33 10h8M45 10h13M62 10h4M34 11h4M41 11h13M64 11h4M35 12h1M38 12h15M66 12h4M36 13h16M69 13h2M35 14h15M70 14h3M34 15h14M71 15h2M33 16h14M72 16h1M33 17h11M35 18h1M37 18h1M39 18h2M34 19h1M36 19h1M38 19h1M35 20h1M37 20h1M21 54h1M21 55h3M22 56h3M23 57h2M46 57h1M45 58h3M45 59h3M45 60h3M45 61h3M46 62h2M57 72h5M58 73h5" />
<path stroke="#101010" d="M31 10h1M59 10h2M57 11h1M61 11h2M55 12h1M64 12h1M34 13h1M54 13h1M66 13h1M23 14h1M53 14h1M67 14h1M22 15h2M68 15h1M21 16h1M23 16h1M69 16h1M20 17h1M24 17h1M49 17h1M68 17h1M26 18h2M48 18h1M67 18h1M71 18h1M19 19h1M65 19h2M70 19h1M18 20h1M63 20h2M17 21h1M44 21h1M69 21h1M17 22h1M43 22h1M69 22h1M16 23h1M41 23h1M69 23h1M16 24h1M40 24h1M69 24h1M15 25h1M38 25h1M15 26h1M36 26h2M42 26h1M15 27h1M35 27h1M14 28h2M33 28h1M41 28h1M14 29h1M30 29h2M14 30h1M28 30h1M40 30h1M14 31h1M25 31h2M40 31h1M13 32h2M24 32h1M68 32h1M13 33h1M21 33h2M39 33h1M68 33h1M13 34h1M19 34h3M39 34h1M13 35h1M17 35h3M13 36h1M16 36h2M38 36h1M13 37h1M15 37h1M38 37h1M73 37h1M13 38h2M73 38h1M37 39h1M73 39h1M37 40h1M73 40h1M37 41h1M72 41h1M37 42h1M70 42h2M36 43h1M36 44h1M69 44h1M36 45h1M68 45h1M36 46h1M66 46h1M35 47h1M63 47h2M35 48h1M61 48h1M35 49h1M60 49h1M35 50h1M59 50h1M34 51h1M59 51h1M34 52h1M34 53h1M58 53h1M18 54h1M34 54h1M58 54h1M33 55h1M58 55h1M17 56h1M25 56h1M33 56h1M44 56h3M57 56h1M17 57h1M33 57h1M42 57h1M57 57h1M17 58h1M26 58h1M33 58h1M41 58h1M57 58h1M17 59h1M32 59h2M40 59h1M48 59h1M56 59h1M17 60h1M27 60h1M32 60h1M39 60h1M48 60h1M56 60h1M17 61h1M27 61h1M32 61h1M38 61h1M48 61h1M56 61h1M17 62h1M28 62h1M31 62h1M37 62h1M48 62h1M56 62h1M17 63h1M28 63h1M30 63h2M37 63h1M48 63h1M55 63h1M17 64h1M28 64h3M36 64h1M55 64h1M29 65h1M36 65h1M47 65h1M55 65h1M18 66h1M29 66h1M35 66h1M47 66h1M55 66h1M13 67h3M18 67h1M29 67h1M35 67h1M46 67h1M55 67h1M6 68h1M16 68h4M29 68h1M35 68h1M46 68h1M55 68h1M6 69h1M18 69h2M29 69h1M34 69h1M54 69h1M6 70h1M20 70h1M29 70h1M34 70h1M45 70h1M54 70h1M6 71h2M19 71h3M34 71h1M54 71h1M56 71h5M7 72h1M18 72h2M22 72h2M28 72h1M34 72h1M44 72h1M52 72h3M63 72h1M7 73h2M16 73h2M24 73h4M34 73h1M43 73h2M51 73h2M65 73h1" />
<path stroke="#6a5200" d="M53 19h8M50 20h2M61 20h2M48 21h2M63 21h2M46 22h2M65 22h2M45 23h1M67 23h1M44 24h1M68 24h1M43 25h1M69 25h1M69 26h1M42 27h1M70 27h1M66 28h2M41 29h1M65 29h1M68 29h1M71 29h1M65 30h1M71 30h1M65 31h1M69 31h1M72 31h1M40 32h1M65 32h1M69 32h1M72 32h1M65 33h1M69 33h1M72 33h1M65 34h1M69 34h1M73 34h1M39 35h1M69 35h1M73 35h1M69 36h1M73 36h1M38 38h1M64 39h1M65 40h1M66 41h4M37 43h1M70 43h1M67 46h1M36 47h1M62 47h1M65 47h1M62 48h1M60 50h1M35 51h1M59 52h1M34 55h1M57 55h1M56 58h1M32 62h1M55 62h1M54 68h1" />
<path stroke="#a48318" d="M52 20h1M60 20h1M67 26h1M68 27h1M70 28h1M71 31h1M72 34h1M69 37h1M67 38h2M72 38h1M38 39h1M67 45h1M65 46h1M58 52h1M33 60h1" />
<path stroke="#f6e64a" d="M53 20h7M50 21h10M48 22h11M46 23h8M55 23h1M57 23h1M45 24h8M54 24h1M56 24h1M58 24h1M44 25h10M55 25h1M57 25h1M45 26h6M69 29h2M69 30h2M70 31h1M70 32h2M70 33h2M70 34h2M70 35h3M70 36h3M70 37h3M69 38h3M68 39h5M69 40h4M70 41h2" />
<path stroke="#debd29" d="M60 21h3M59 22h6M54 23h1M56 23h1M58 23h9M53 24h1M55 24h1M57 24h1M59 24h9M54 25h1M56 25h1M58 25h11M43 26h2M51 26h16M68 26h1M43 27h25M69 27h1M42 28h24M68 28h2M42 29h23M41 30h24M41 31h24M41 32h24M40 33h25M40 34h25M40 35h26M39 36h27M39 37h27M39 38h28M39 39h25M65 39h3M38 40h27M66 40h3M38 41h28M38 42h32M38 43h32M37 44h32M37 45h30M37 46h28M37 47h25M36 48h25M36 49h24M36 50h23M36 51h23M35 52h23M35 53h23M35 54h23M35 55h22M34 56h10M47 56h10M34 57h8M48 57h9M34 58h7M49 58h7M34 59h6M49 59h7M34 60h5M49 60h7M33 61h5M49 61h7M33 62h4M49 62h6M32 63h5M49 63h6M31 64h5M48 64h7M30 65h6M48 65h7M30 66h5M48 66h7M30 67h5M47 67h8M30 68h5M47 68h7M30 69h4M47 69h7M30 70h4M46 70h8M30 71h4M46 71h8M20 72h2M29 72h5M45 72h7M18 73h6M28 73h6M45 73h5" />
<path stroke="#ffffff" d="M66 29h1M66 30h1M68 30h1M66 31h1M68 31h1M66 32h1M66 33h1M66 34h1M66 35h1M66 36h1M67 37h2" />
<path stroke="#d53900" d="M67 29h1M67 30h1M67 31h1M67 32h1M67 33h1M67 34h2M68 35h1M68 36h1" />
<path stroke="#d58b52" d="M67 35h1M67 36h1" />
<path stroke="#c5c5c5" d="M66 37h1" />
</svg>