<svg xmlns="http://www.w3.org/2000/svg" viewBox="0 -0.5 80 80" shape-rendering="crispEdges">
<metadata>Made with Pixels to Svg https://codepen.io/shshaw/pen/XbxvNj</metadata>
<path stroke="#101010" d="M33 17h6M31 18h2M40 18h1M30 19h1M41 19h1M30 20h1M29 21h1M44 21h4M26 22h4M42 22h1M48 22h2M25 23h1M29 23h1M41 23h1M50 23h1M24 24h1M29 24h1M50 24h1M23 25h1M29 25h1M40 25h1M51 25h1M23 26h1M40 26h1M51 26h1M23 27h1M40 27h1M51 27h1M23 28h1M51 28h1M23 29h1M51 29h1M23 30h1M50 30h1M24 31h1M49 31h2M25 32h1M51 32h1M24 33h1M26 33h1M23 34h1M22 35h1M21 36h1M20 37h1M56 37h1M20 38h1M57 38h1M19 39h1M19 40h1M58 40h1M19 41h1M18 42h1M59 42h1M18 43h1M59 43h1M18 44h1M18 45h1M60 45h1M17 46h1M60 46h1M17 47h1M60 47h1M17 48h1M60 48h2M17 49h1M62 49h1M17 50h1M63 50h1M17 51h1M17 52h1M64 52h1M17 53h1M64 53h1M60 54h1M64 54h1M16 55h1M18 55h1M60 55h4M16 56h1M18 56h1M16 57h1M18 57h1M59 57h1M17 58h3M19 59h1M58 59h1M19 60h1M58 60h1M20 61h1M57 61h1M20 62h2M56 62h2M21 63h2M55 63h2" />
<path stroke="#ffacbd" d="M33 18h5M32 19h7M31 20h8M30 21h8M30 22h8M44 22h4M27 23h1M30 23h7M43 23h6M26 24h3M30 24h6M42 24h7M25 25h4M31 25h3M41 25h8M24 26h5M41 26h7M24 27h4M41 27h6M24 28h4M42 28h3M25 29h2M49 32h1M48 33h4M48 34h5M50 35h4M53 36h2M55 37h1" />
<path stroke="#e6839c" d="M38 18h1M39 19h1M39 20h2M38 21h4M38 22h4M28 23h1M37 23h4M25 24h1M36 24h5M49 24h1M34 25h6M49 25h2M29 26h1M31 26h9M48 26h3M28 27h3M32 27h8M47 27h4M28 28h12M41 28h1M45 28h6M24 29h1M27 29h14M42 29h9M25 30h25M25 31h24M26 32h20M25 33h1M28 33h20M24 34h24M23 35h27M22 36h31M22 37h33M21 38h35M21 39h36M20 40h37M20 41h38M20 42h38M19 43h40M19 44h40M19 45h40M19 46h41M18 47h42M18 48h42M18 49h42M61 49h1M18 50h42M61 50h2M18 51h45M18 52h46M18 53h42M61 53h3M17 54h1M19 54h41M61 54h3M17 55h1M19 55h41M17 56h1M19 56h40M17 57h1M20 57h39M20 58h38M20 59h38M21 60h36M21 61h36M22 62h34M23 63h32" />
<path stroke="#9c1852" d="M39 18h1M31 19h1M41 20h1M42 21h1M43 22h1M26 23h1M49 23h1M41 24h1M24 25h1M30 25h1M30 26h1M40 28h1M41 29h1M24 30h1M47 32h2M27 33h1M52 33h1M53 34h1M54 35h1M55 36h1M21 37h1M20 39h1M57 39h1M58 41h1M19 42h1M59 44h1M18 46h1M60 49h1M60 50h1M63 51h1M60 53h1M16 54h1M18 54h1M59 56h2M19 57h1M58 58h2M20 60h1M57 60h1" />
<path stroke="#b45273" d="M40 19h1M42 23h1M31 27h1M46 32h1M50 32h1M56 38h1M57 40h1M58 42h1M59 45h1" />
</svg>