<svg xmlns="http://www.w3.org/2000/svg" viewBox="0 -0.5 80 80" shape-rendering="crispEdges">
<metadata>Made with Pixels to Svg https://codepen.io/shshaw/pen/XbxvNj</metadata>
<path stroke="#830000" d="M29 15h3M47 15h4M28 16h1M33 16h1M45 16h1M28 17h1M34 17h2M43 17h1M20 18h3M27 18h1M36 18h1M42 18h1M51 18h1M19 19h1M23 19h1M27 19h1M42 19h1M59 19h2M18 20h1M24 20h1M27 20h1M57 20h1M56 21h1M17 22h1M26 22h1M55 22h1M62 22h1M17 23h1M17 24h1M17 25h1M63 25h1M24 29h1M57 29h1M22 30h1M20 31h1M62 32h1M24 36h1M18 38h1M58 38h1M25 41h1M54 41h1" />
<path stroke="#f66a00" d="M29 16h3M47 16h1M31 17h3M45 17h2M43 18h2M20 19h3M43 19h1M19 20h1M22 20h2M59 20h2M19 21h1M24 21h1M57 21h3M18 22h1M56 22h2M18 23h1" />
<path stroke="#d52000" d="M32 16h1M46 16h1M48 16h3M29 17h2M44 17h1M47 17h4M28 18h8M45 18h6M28 19h8M44 19h8M20 20h2M28 20h8M43 20h9M58 20h1M18 21h1M20 21h4M27 21h8M44 21h8M60 21h2M19 22h7M27 22h8M44 22h8M58 22h4M19 23h16M44 23h9M54 23h9M18 24h15M45 24h18M18 25h13M47 25h16M19 26h11M48 26h16M21 27h8M49 27h15M24 28h4M50 28h14M25 29h3M50 29h7M23 30h4M51 30h8M21 31h6M51 31h10M19 32h8M52 32h10M18 33h8M52 33h12M18 34h8M52 34h12M18 35h8M52 35h3M56 35h8M18 36h6M25 36h1M52 36h3M57 36h7M18 37h5M24 37h2M52 37h3M58 37h5M19 38h3M25 38h1M52 38h3M59 38h4M19 39h2M25 39h1M52 39h3M59 39h3M25 40h2M52 40h3M26 41h1M51 41h3M26 42h1M51 42h3" />
<path stroke="#101010" d="M51 16h1M51 17h1M36 19h1M52 19h1M36 20h1M42 20h1M52 20h1M61 20h1M25 21h2M35 21h1M43 21h1M52 21h1M62 21h1M35 22h1M43 22h1M52 22h1M54 22h1M35 23h9M53 23h1M63 23h1M33 24h2M43 24h2M63 24h1M31 25h2M45 25h2M18 26h1M30 26h1M47 26h1M64 26h1M19 27h2M29 27h1M48 27h1M64 27h1M21 28h3M28 28h1M49 28h1M64 28h1M23 29h1M28 29h1M49 29h1M58 29h6M21 30h1M27 30h1M50 30h1M59 30h2M19 31h1M27 31h1M50 31h1M61 31h1M18 32h1M27 32h1M50 32h2M63 32h1M17 33h1M26 33h1M51 33h1M64 33h1M17 34h1M26 34h1M51 34h1M64 34h1M17 35h1M26 35h1M51 35h1M55 35h1M64 35h1M17 36h1M26 36h1M51 36h1M55 36h2M64 36h1M17 37h1M23 37h1M26 37h1M51 37h1M55 37h3M63 37h1M22 38h1M24 38h1M26 38h1M51 38h1M55 38h1M57 38h1M63 38h1M18 39h1M21 39h1M24 39h1M26 39h1M51 39h1M55 39h1M58 39h1M62 39h1M19 40h2M24 40h1M51 40h1M55 40h1M59 40h3M24 41h1M27 41h1M50 41h1M25 42h1M27 42h1M50 42h1M54 42h1M26 43h2M49 43h5M27 44h1M49 44h1M28 45h1M48 45h1M27 46h2M48 46h1M51 46h2M48 47h3M57 47h1M46 48h3M57 48h1M57 49h1M55 50h2M22 51h4M52 51h4M20 52h2M26 52h5M49 52h4M55 52h2M19 53h1M32 53h1M50 53h1M57 53h2M18 54h1M33 54h1M39 54h1M51 54h1M59 54h1M18 55h1M34 55h1M38 55h1M52 55h1M60 55h1M17 56h1M21 56h1M35 56h1M37 56h1M53 56h1M60 56h1M17 57h1M37 57h1M53 57h1M61 57h1M17 58h1M20 58h1M54 58h1M61 58h1M16 59h1M20 59h1M54 59h1M61 59h1M16 60h1M55 60h1M61 60h2M16 61h1M19 61h1M36 61h1M55 61h1M62 61h1M15 62h1M19 62h1M36 62h1M55 62h1M62 62h1M15 63h1M19 63h1M35 63h1M37 63h1M55 63h1M62 63h2M14 64h1M19 64h1M35 64h1M37 64h1M55 64h1M63 64h1" />
<path stroke="#527b20" d="M35 24h1M27 40h1M28 44h1M24 45h2M53 45h3M23 46h1M26 46h1M56 46h1M22 47h1M28 47h1M22 48h1M28 48h1M22 49h1M56 49h1M23 50h2M54 50h1M26 51h1M28 51h1M51 51h1" />
<path stroke="#9cd54a" d="M36 24h5M34 25h8M32 26h10M31 27h11M30 28h1M32 28h9M29 29h1M31 29h1M33 29h6M30 30h1M32 30h1M24 46h2M53 46h3M23 47h4M52 47h3M23 48h2M23 49h1" />
<path stroke="#7bb431" d="M41 24h2M33 25h1M42 25h3M31 26h1M42 26h5M30 27h1M42 27h6M29 28h1M31 28h1M41 28h8M30 29h1M32 29h1M39 29h10M28 30h2M31 30h1M33 30h17M28 31h22M28 32h22M27 33h24M27 34h24M27 35h24M27 36h24M27 37h24M27 38h24M27 39h24M28 40h23M28 41h22M28 42h22M28 43h21M29 44h20M29 45h19M29 46h19M27 47h1M29 47h19M51 47h1M55 47h2M25 48h3M29 48h17M49 48h8M24 49h32M25 50h29M27 51h1M29 51h22M31 52h11M48 52h1M33 53h7M34 54h5M35 55h3M36 56h1M36 57h1" />
<path stroke="#947310" d="M22 52h1M20 53h1M19 54h1M58 54h1M59 55h1M60 57h1M36 63h1M36 64h1" />
<path stroke="#d59410" d="M23 52h3M51 53h3M52 54h4M53 55h6M18 56h1M54 56h6M18 57h1M54 57h6M18 58h2M55 58h6M17 59h3M55 59h6M17 60h3M56 60h5M17 61h2M56 61h6M16 62h3M56 62h6M16 63h3M56 63h6M15 64h4M56 64h7" />
<path stroke="#086239" d="M42 52h6M24 53h2M31 53h1M40 53h2M48 53h2M23 54h1M50 54h1M22 55h1M21 57h1M35 57h1M36 58h1M36 59h1M20 60h1M36 60h1M54 60h1" />
<path stroke="#ffc518" d="M53 52h2M21 53h3M54 53h3M20 54h3M56 54h2M19 55h3M19 56h2M19 57h2" />
<path stroke="#52cd31" d="M26 53h3M42 53h3M46 53h1M24 54h5M40 54h6M47 54h1M23 55h5M39 55h4M46 55h1M22 56h4M38 56h2M22 57h2M38 57h1" />
<path stroke="#399400" d="M29 53h2M45 53h1M47 53h1M29 54h4M46 54h1M48 54h2M28 55h6M43 55h3M47 55h5M26 56h9M40 56h13M24 57h11M39 57h14M21 58h15M37 58h17M21 59h15M37 59h17M21 60h15M37 60h17M20 61h16M37 61h18M20 62h16M37 62h18M20 63h15M38 63h17M20 64h15M38 64h17" />
</svg>