<svg xmlns="http://www.w3.org/2000/svg" viewBox="0 -0.5 80 80" shape-rendering="crispEdges">
<metadata>Made with Pixels to Svg https://codepen.io/shshaw/pen/XbxvNj</metadata>
<path stroke="#7b3129" d="M33 10h1M32 11h3M32 12h1M34 12h1M36 12h1M40 12h1M42 12h1M31 13h2M35 13h2M39 13h1M41 13h1M31 14h1M37 14h3M42 14h1M44 14h1M31 15h3M36 15h1M42 15h1M44 15h1M30 16h1M32 16h1M34 16h3M39 16h1M41 16h1M44 16h1M31 17h1M35 17h1M37 17h1M40 17h2M44 17h2M37 18h1M41 18h1M45 18h1M37 19h1M40 19h1M46 19h1M38 20h1M40 20h1M46 20h1M38 21h1M40 21h1M47 21h1M38 22h3M48 22h1M49 23h1M39 24h1M50 24h1M40 25h1M40 26h1M51 26h1M41 27h1M52 27h1M23 28h1M41 28h2M52 28h1M23 29h1M42 29h1M52 29h1M22 30h1M42 30h2M53 30h1M22 31h1M43 31h1M53 31h1M22 32h1M43 32h2M22 33h1M44 33h1M22 34h1M22 35h1M22 36h1M22 37h2M23 38h1M52 38h1M23 39h2M43 39h1M24 40h1M43 40h2M51 40h1M25 41h1M26 42h1M42 42h1M50 42h1M27 43h1M43 43h1M49 43h1M28 44h1M41 44h1M48 44h1M29 45h1M42 45h1M47 45h1M30 46h2M45 46h2M31 47h2M43 47h3M37 48h2M43 51h1M34 52h1M37 52h1M42 52h1M35 53h2M38 53h1M40 53h2M43 53h1M37 54h3M41 54h2M40 55h1" />
<path stroke="#d5415a" d="M33 12h1M33 13h2M40 13h1M42 13h1M32 14h5M40 14h2M43 14h1M29 15h1M34 15h2M37 15h2M40 15h2M43 15h1M28 16h1M31 16h1M33 16h1M40 16h1M42 16h2M28 17h1M32 17h3M36 17h1M38 17h2M42 17h2M28 18h1M30 18h7M38 18h3M42 18h2M27 19h2M30 19h7M38 19h2M41 19h3M27 20h1M30 20h8M39 20h1M41 20h4M26 21h2M30 21h8M39 21h1M41 21h4M26 22h1M30 22h8M41 22h5M25 23h2M30 23h9M40 23h6M25 24h1M29 24h10M40 24h6M24 25h1M29 25h11M41 25h6M50 25h2M24 26h1M29 26h11M41 26h6M23 27h1M28 27h13M42 27h5M51 27h1M28 28h13M43 28h4M24 29h1M27 29h15M43 29h4M23 30h19M44 30h3M23 31h20M44 31h4M23 32h20M45 32h3M23 33h21M45 33h3M23 34h21M45 34h3M52 34h1M23 35h21M45 35h3M52 35h1M23 36h21M45 36h4M51 36h2M24 37h20M45 37h8M24 38h20M45 38h7M25 39h18M45 39h7M25 40h18M45 40h6M26 41h17M44 41h7M27 42h15M44 42h6M28 43h14M44 43h5M29 44h12M43 44h5M30 45h11M43 45h4M32 46h2M35 46h5M42 46h3M36 47h4" />
<path stroke="#101010" d="M43 13h1M39 15h1M37 16h2M39 23h1M53 32h1M53 33h1M44 34h1M53 34h1M44 35h1M53 35h1M44 36h1M53 36h1M44 37h1M53 37h1M44 38h1M53 38h1M44 39h1M52 39h1M52 40h1M24 41h1M43 41h1M51 41h1M25 42h1M43 42h1M51 42h1M62 42h2M26 43h1M42 43h1M50 43h1M59 43h4M72 43h1M27 44h1M42 44h1M49 44h1M60 44h1M63 44h2M72 44h1M28 45h1M41 45h1M48 45h1M60 45h1M70 45h2M40 46h1M47 46h1M58 46h2M70 46h2M47 47h1M57 47h1M69 47h3M33 48h1M47 48h1M57 48h1M69 48h3M37 49h2M43 49h1M46 49h1M49 49h5M56 49h1M70 49h2M73 49h1M31 50h2M43 50h3M47 50h2M54 50h5M73 50h1M8 51h1M32 51h1M34 51h1M37 51h2M42 51h1M44 51h3M73 51h1M7 52h3M12 52h1M23 52h1M29 52h1M32 52h2M35 52h2M38 52h4M43 52h2M59 52h2M5 53h2M8 53h5M15 53h1M22 53h2M31 53h4M37 53h1M39 53h1M42 53h1M44 53h5M4 54h1M6 54h3M12 54h4M30 54h1M34 54h3M40 54h1M43 54h1M74 54h1M2 55h5M14 55h5M33 55h1M37 55h3M41 55h2M63 55h2M17 56h1M31 56h1M40 56h2M75 56h1M17 57h1M29 57h1M75 57h1M17 58h1M28 58h1M43 58h1M67 58h2M76 58h1M38 59h1M43 59h1M76 59h1M40 60h4M76 60h1M15 61h3M41 61h1M46 61h1M77 61h1M36 62h1M42 62h2M46 62h1M69 62h1M71 62h2M77 62h1M42 63h1M44 63h3M50 63h1M72 63h1M77 63h1M38 64h1M41 64h2M46 64h1M50 64h1M73 64h1M77 64h1M11 65h2M39 65h3M47 65h4M56 65h1M73 65h1M39 66h1M51 66h1M56 66h1M61 66h1M76 66h1M33 67h1M39 67h1M52 67h2M56 67h1M61 67h1M34 68h1M38 68h1M54 68h4M61 68h1M65 68h1M75 68h1M35 69h3M57 69h6M65 69h1M75 69h1" />
<path stroke="#ff7b7b" d="M29 16h1M29 17h2M29 18h1M44 18h1M29 19h1M44 19h2M28 20h2M45 20h1M28 21h2M45 21h2M27 22h3M46 22h2M27 23h3M46 23h3M26 24h3M46 24h4M25 25h4M47 25h3M25 26h4M47 26h4M24 27h4M47 27h4M24 28h4M47 28h5M25 29h2M47 29h5M47 30h6M48 31h5M48 32h5M48 33h5M48 34h4M48 35h4M49 36h2" />
<path stroke="#4a8b20" d="M55 36h2M58 36h5M57 37h1M61 37h1M54 38h1M58 38h2M57 39h1M55 40h2M59 40h2M53 41h2M53 42h1M19 43h6M52 43h1M14 44h5M51 44h8M11 45h3M18 45h2M23 45h1M27 45h1M50 45h10M9 46h2M24 46h5M49 46h4M8 47h1M17 47h2M21 47h3M26 47h3M34 47h1M41 47h1M48 47h8M7 48h1M15 48h2M22 48h4M28 48h1M32 48h1M35 48h1M40 48h2M43 48h4M48 48h9M6 49h1M10 49h1M14 49h1M20 49h8M33 49h1M35 49h2M39 49h4M44 49h2M47 49h2M54 49h2M12 50h1M18 50h12M34 50h9M46 50h1M49 50h5M7 51h1M9 51h4M14 51h3M18 51h6M28 51h4M35 51h2M39 51h3M52 51h7M4 52h1M6 52h1M10 52h2M13 52h3M17 52h6M24 52h4M31 52h1M46 52h7M55 52h3M4 53h1M13 53h1M16 53h4M24 53h7M51 53h5M58 53h1M3 54h1M16 54h2M20 54h3M27 54h2M31 54h3M46 54h5M55 54h4M19 55h9M29 55h3M34 55h3M43 55h12M57 55h2M60 55h2M18 56h9M28 56h2M32 56h8M43 56h15M62 56h2M24 57h2M28 57h1M30 57h2M35 57h8M44 57h4M49 57h11M61 57h1M64 57h1M20 58h5M27 58h1M29 58h6M38 58h5M44 58h3M48 58h4M53 58h9M63 58h1M65 58h1M16 59h8M26 59h1M28 59h10M40 59h3M44 59h3M48 59h9M58 59h4M64 59h1M66 59h1M16 60h7M27 60h5M34 60h6M44 60h2M47 60h4M52 60h11M65 60h1M67 60h1M20 61h2M26 61h8M36 61h5M43 61h3M47 61h4M52 61h4M57 61h6M66 61h1M16 62h5M25 62h11M38 62h4M45 62h1M47 62h3M52 62h4M57 62h4M62 62h2M67 62h1M16 63h4M24 63h2M28 63h9M39 63h2M47 63h3M52 63h4M57 63h4M62 63h2M16 64h3M22 64h6M30 64h8M48 64h2M52 64h4M57 64h4M62 64h2M65 64h1M14 65h1M17 65h1M22 65h8M32 65h7M52 65h4M57 65h4M62 65h4M12 66h1M20 66h12M34 66h5M53 66h3M57 66h4M62 66h3M16 67h1M20 67h13M35 67h3M58 67h3M62 67h3M19 68h1M21 68h4M27 68h7M36 68h1M58 68h3M62 68h3M18 69h1M22 69h5M28 69h7M63 69h2" />
<path stroke="#105220" d="M57 36h1M54 37h1M62 37h3M64 38h1M64 39h1M61 40h3M63 41h1M52 42h1M51 43h1M56 43h3M25 44h2M50 44h1M59 44h1M20 45h3M49 45h1M29 46h1M34 46h1M41 46h1M48 46h1M53 46h5M29 47h1M33 47h1M35 47h1M40 47h1M42 47h1M46 47h1M56 47h1M27 48h1M29 48h1M36 48h1M39 48h1M42 48h1M28 49h3M5 50h1M9 50h1M13 50h1M30 50h1M33 50h1M4 51h1M13 51h1M17 51h1M24 51h4M47 51h5M59 51h1M3 52h1M16 52h1M28 52h1M30 52h1M45 52h1M53 52h2M58 52h1M61 52h1M3 53h1M7 53h1M14 53h1M20 53h2M49 53h2M56 53h2M62 53h2M2 54h1M5 54h1M18 54h2M23 54h4M29 54h1M44 54h2M51 54h4M59 54h1M64 54h1M28 55h1M32 55h1M55 55h2M62 55h1M65 55h1M27 56h1M30 56h1M42 56h1M58 56h2M66 56h2M16 57h1M18 57h6M26 57h1M32 57h3M43 57h1M48 57h1M60 57h1M68 57h1M15 58h2M18 58h2M25 58h1M35 58h3M47 58h1M52 58h1M62 58h1M66 58h1M69 58h1M15 59h1M24 59h1M27 59h1M39 59h1M47 59h1M57 59h1M70 59h1M14 60h2M23 60h1M26 60h1M32 60h2M46 60h1M51 60h1M71 60h1M12 61h3M18 61h2M22 61h1M25 61h1M34 61h2M42 61h1M51 61h1M56 61h1M71 61h1M12 62h1M21 62h1M24 62h1M37 62h1M44 62h1M50 62h2M56 62h1M61 62h1M70 62h1M11 63h2M20 63h1M23 63h1M26 63h2M37 63h2M41 63h1M51 63h1M56 63h1M61 63h1M11 64h1M19 64h1M28 64h2M39 64h2M47 64h1M51 64h1M56 64h1M61 64h1M10 65h1M13 65h1M18 65h1M21 65h1M30 65h2M51 65h1M61 65h1M9 66h3M17 66h1M32 66h2M52 66h1M65 66h1M73 66h1M9 67h1M17 67h1M19 67h1M34 67h1M38 67h1M54 67h2M57 67h1M65 67h1M73 67h1M8 68h1M16 68h1M25 68h2M35 68h1M37 68h1M74 68h1M8 69h1M16 69h1M27 69h1M69 69h1M74 69h1" />
<path stroke="#83e65a" d="M55 37h2M58 37h3M55 38h3M54 39h2M53 40h1M52 41h1M14 45h1M11 46h1M14 46h3M9 47h7M8 48h3M12 48h2M7 49h3M6 50h2" />
<path stroke="#6ab420" d="M60 38h4M53 39h1M56 39h1M58 39h6M54 40h1M57 40h2M55 41h8M54 42h8M53 43h3M19 44h6M15 45h3M24 45h3M12 46h2M17 46h7M16 47h1M19 47h2M24 47h2M30 47h1M11 48h1M14 48h1M17 48h5M26 48h1M30 48h2M34 48h1M11 49h3M15 49h5M31 49h2M34 49h1M8 50h1M10 50h2M14 50h4M5 51h2M5 52h1M59 53h3M60 54h4M59 55h1M60 56h2M64 56h2M27 57h1M62 57h2M65 57h3M26 58h1M64 58h1M25 59h1M62 59h2M65 59h1M67 59h3M24 60h2M63 60h2M66 60h1M68 60h3M23 61h2M63 61h3M67 61h4M13 62h3M22 62h2M64 62h3M68 62h1M13 63h3M21 63h2M64 63h8M12 64h4M20 64h2M64 64h1M66 64h7M15 65h2M19 65h2M66 65h7M13 66h4M18 66h2M66 66h7M10 67h6M18 67h1M66 67h7M9 68h7M17 68h2M20 68h1M66 68h8M9 69h7M17 69h1M19 69h3M66 69h3M70 69h4" />
<path stroke="#10414a" d="M70 41h2M68 42h2M72 42h1M66 43h2M62 44h1M65 44h1M71 44h1M64 45h1M72 45h1M69 46h1M73 46h1M73 47h1M73 48h1M69 49h1M70 50h2M73 52h1M74 53h1M74 55h2M76 65h2M46 66h5M46 67h6M75 67h2M43 68h1M46 68h8M42 69h2M47 69h7" />
<path stroke="#62b4cd" d="M70 42h1M68 43h2M66 44h3M65 45h3M64 46h4M64 47h3M64 48h3M64 49h2" />
<path stroke="#317ba4" d="M71 42h1M70 43h2M61 44h1M69 44h2M61 45h3M68 45h2M60 46h4M68 46h1M72 46h1M58 47h6M67 47h2M72 47h1M58 48h6M67 48h2M72 48h1M57 49h7M66 49h3M72 49h1M59 50h11M72 50h1M60 51h13M62 52h11M64 53h10M65 54h9M66 55h8M68 56h7M69 57h6M70 58h6M71 59h5M72 60h4M72 61h5M73 62h4M43 63h1M73 63h4M43 64h3M74 64h3M42 65h5M74 65h2M40 66h6M74 66h2M40 67h6M74 67h1M39 68h4M44 68h2M38 69h4M44 69h3M54 69h3" />
<path stroke="#c57339" d="M33 51h1" />
</svg>