<svg xmlns="http://www.w3.org/2000/svg" viewBox="0 -0.5 80 80" shape-rendering="crispEdges">
<metadata>Made with Pixels to Svg https://codepen.io/shshaw/pen/XbxvNj</metadata>
<path stroke="#313962" d="M44 3h2M43 4h1M46 4h1M43 5h1M46 5h1M61 5h1M64 5h1M43 6h1M47 6h1M60 6h1M64 6h1M43 7h1M47 7h1M60 7h1M43 8h1M59 8h1M43 9h1M48 9h1M59 9h1M43 10h1M48 10h1M43 11h1M49 11h1M58 11h1M43 12h1M49 12h2M43 13h1M43 14h1M43 15h1M43 16h1M62 16h2M43 17h1M42 18h1M42 19h1M41 20h1M41 21h1M62 21h2M40 22h1M49 22h1M40 23h1M49 23h1M39 24h1M49 24h1M55 24h1M57 24h1M39 25h1M49 25h1M54 25h1M59 25h1M49 26h1M49 27h1M48 29h1M53 29h2M48 30h1M53 30h1M37 31h2M48 31h1M39 32h1M40 33h1M47 33h1M47 34h1M62 34h2M33 35h1M64 35h1M33 36h1M40 36h1M46 36h1M65 36h1M39 37h1M52 37h2M45 38h1M58 38h1M36 39h1M58 39h1M36 40h1M44 40h1M59 40h1M36 41h1M38 41h1M43 41h1M36 42h1M38 42h1M34 43h2M46 43h1M59 43h1M62 43h1M32 44h2M49 44h1M59 44h1M61 44h1M30 45h2M58 45h1M29 46h1M52 46h1M28 47h1M27 48h1M26 49h1M25 50h1M25 51h1M24 52h1M57 52h1M24 53h1M23 54h1M58 54h2M23 55h1M22 56h1M59 58h2M37 59h1M37 60h1M44 60h1M40 61h1M44 61h1M28 62h1M49 62h1M37 63h1M52 63h1M19 64h1M29 64h1M36 64h1M55 64h1M18 65h2M35 65h1M17 66h1M16 67h1M16 68h1M18 68h2M56 68h1M60 68h1M15 69h1M32 69h1M15 70h1M53 70h2M14 71h1M30 71h2M63 72h1M53 75h1" />
<path stroke="#101010" d="M62 3h2M61 4h1M64 4h1M64 7h1M48 8h1M64 8h1M64 9h1M49 10h1M58 10h1M64 10h1M64 11h1M57 12h1M64 12h1M50 13h1M56 13h1M63 13h1M51 14h1M55 14h1M63 14h1M52 15h3M63 15h1M62 17h1M62 18h1M62 19h1M62 20h1M63 22h1M45 23h3M63 23h1M43 24h3M48 24h1M56 24h1M64 24h1M42 25h2M55 25h1M58 25h1M64 25h1M39 26h3M54 26h1M59 26h3M64 26h1M54 27h1M61 27h2M64 27h1M54 28h1M63 28h2M53 31h1M53 32h1M53 33h1M40 34h1M53 34h1M40 35h1M53 35h1M53 36h1M34 37h1M65 37h1M35 38h2M38 38h1M52 38h1M65 38h1M38 39h1M52 39h1M65 39h1M38 40h1M52 40h1M64 40h1M52 41h1M60 41h1M62 41h2M39 42h7M52 42h1M60 42h1M62 42h1M36 43h3M47 43h2M52 43h1M50 44h1M52 44h1M51 45h2M61 45h1M53 46h1M57 46h1M60 46h1M53 47h2M56 47h1M59 47h2M54 48h2M59 48h1M55 49h2M58 49h2M56 50h3M57 51h1M58 52h1M58 53h1M59 55h1M59 56h1M22 57h1M59 57h1M22 58h1M22 59h1M28 59h9M60 59h1M22 60h1M24 60h4M38 60h6M60 60h1M22 61h2M27 61h1M39 61h1M45 61h4M60 61h1M21 62h1M27 62h1M38 62h1M50 62h2M60 62h1M20 63h1M28 63h1M53 63h2M60 63h1M20 64h1M28 64h1M56 64h1M60 64h1M29 65h1M57 65h1M59 65h1M19 66h1M29 66h1M34 66h1M58 66h2M19 67h1M30 67h1M33 67h1M57 67h4M31 68h2M55 68h1M61 68h1M18 69h1M31 69h1M54 69h1M61 69h2M18 70h1M31 70h1M62 70h2M18 71h1M53 71h1M63 71h1M14 72h1M18 72h1M30 72h1M53 72h1M64 72h1M13 73h1M18 73h1M30 73h1M53 73h1M64 73h1M12 74h1M18 74h1M30 74h1M53 74h1M65 74h1M11 75h1M18 75h1M30 75h1M66 75h1M11 76h1M18 76h1M30 76h1M54 76h1M67 76h1" />
<path stroke="#94bdff" d="M44 4h1M62 4h1M44 5h2M62 5h1M44 6h2M61 6h2M44 7h3M61 7h1M44 8h3M60 8h2M44 9h3M60 9h1M44 10h3M59 10h1M44 11h2M44 12h2M44 13h2M44 14h1M44 15h1M50 26h1M50 27h1M50 28h1M49 29h2M49 30h1M49 31h1M35 32h2M49 32h1M34 33h4M48 33h2M34 34h3M48 34h1M48 35h1M60 35h2M47 36h2M59 36h4M47 37h1M59 37h3M46 38h2M46 39h1M45 40h1M31 46h3M30 47h5M31 48h3M18 66h1" />
<path stroke="#6a94c5" d="M45 4h1M63 5h1M46 6h1M63 6h1M62 7h1M61 9h1M60 10h1M46 11h1M59 11h1M58 12h1M45 14h1M44 16h1M44 17h1M43 18h1M50 25h1M50 30h1M37 32h1M37 34h1M49 34h1M34 35h3M62 35h1M48 37h1M62 37h1M59 38h3M40 43h2M35 44h8M33 45h10M34 46h9M29 47h1M35 47h8M28 48h3M34 48h9M27 49h15M26 50h16M26 51h15M25 52h15M25 53h13M25 54h11M26 55h7M22 62h2M21 63h4M21 64h4M20 65h5M20 66h4M17 67h2M20 67h4M17 68h1M20 68h3M16 69h2M19 69h3M16 70h2M19 70h2M15 71h3M15 72h2" />
<path stroke="#416294" d="M63 4h1M63 7h1M47 8h1M62 8h2M47 9h1M62 9h2M47 10h1M61 10h3M47 11h2M60 11h4M46 12h3M59 12h5M46 13h4M57 13h6M46 14h5M56 14h7M45 15h7M55 15h8M45 16h17M45 17h17M44 18h18M43 19h19M42 20h20M42 21h20M41 22h8M50 22h13M41 23h4M48 23h1M50 23h13M40 24h3M50 24h5M58 24h6M40 25h2M51 25h3M60 25h4M51 26h3M62 26h2M51 27h3M63 27h1M49 28h1M51 28h3M51 29h2M51 30h2M35 31h2M50 31h3M34 32h1M38 32h1M48 32h1M50 32h3M33 33h1M38 33h2M50 33h3M33 34h1M38 34h2M50 34h3M60 34h2M37 35h3M47 35h1M49 35h4M59 35h1M63 35h1M34 36h6M49 36h4M58 36h1M63 36h2M35 37h4M46 37h1M49 37h3M58 37h1M63 37h2M37 38h1M48 38h4M62 38h3M37 39h1M45 39h1M47 39h5M59 39h6M37 40h1M46 40h6M60 40h4M37 41h1M44 41h8M61 41h1M37 42h1M46 42h6M61 42h1M39 43h1M42 43h4M49 43h3M60 43h2M34 44h1M43 44h6M51 44h1M60 44h1M32 45h1M43 45h8M59 45h2M30 46h1M43 46h9M58 46h2M43 47h10M57 47h2M43 48h11M56 48h3M42 49h13M57 49h1M42 50h14M41 51h16M40 52h17M38 53h20M24 54h1M36 54h22M24 55h2M33 55h26M23 56h36M23 57h36M23 58h36M23 59h5M38 59h22M23 60h1M28 60h9M45 60h15M24 61h3M28 61h11M41 61h3M49 61h11M24 62h3M29 62h9M39 62h10M52 62h8M25 63h3M29 63h8M38 63h14M55 63h5M25 64h3M30 64h6M37 64h18M57 64h3M25 65h4M30 65h5M36 65h21M58 65h1M24 66h5M30 66h4M35 66h23M24 67h6M31 67h2M34 67h23M23 68h8M33 68h22M57 68h3M22 69h9M33 69h21M55 69h6M21 70h10M32 70h21M55 70h7M19 71h11M32 71h21M54 71h9M17 72h1M19 72h11M31 72h22M54 72h9M14 73h4M19 73h11M31 73h22M54 73h10M13 74h5M19 74h11M31 74h22M54 74h11M12 75h6M19 75h11M31 75h22M54 75h12M12 76h6M19 76h11M31 76h23M55 76h12" />
</svg>