<svg xmlns="http://www.w3.org/2000/svg" viewBox="0 -0.5 80 80" shape-rendering="crispEdges">
<metadata>Made with Pixels to Svg https://codepen.io/shshaw/pen/XbxvNj</metadata>
<path stroke="#522918" d="M25 11h2M24 12h1M27 12h1M23 14h1M28 14h1M23 15h1M22 16h1M29 16h1M31 16h3M20 17h2M29 17h1M35 17h3M18 18h1M39 18h2M16 19h2M42 19h1M15 20h1M44 20h1M14 21h1M45 21h1M13 22h1M47 22h1M12 23h1M11 24h1M48 24h1M10 26h1M10 27h1M10 28h1M48 28h1M10 29h1M11 30h1M17 35h1M9 36h1M20 36h1M33 36h1M7 39h1M50 39h1M16 40h1M39 43h1M41 44h1M65 46h1M63 47h1M21 48h1M30 48h1M61 48h1M33 49h1M43 49h1M51 49h1M41 50h1M50 50h1M57 50h1M49 51h1M49 52h1M18 53h1M22 53h1M28 53h1M48 53h1M61 53h1M32 54h1M48 54h1M60 54h1M33 55h1M48 55h1M60 55h1M48 56h2M20 57h1M50 59h1M60 59h1M39 60h1M49 62h1M17 63h2M41 63h1M16 66h2M34 66h2" />
<path stroke="#e6debd" d="M25 12h2M25 13h2M24 14h3M24 15h3M23 16h4M23 17h4M31 17h3M20 18h8M32 18h6M18 19h10M34 19h7M17 20h11M37 20h5M15 21h13M14 22h13M13 23h14M12 24h14M12 25h13M11 26h12M12 27h9M13 28h5M52 50h1M51 51h2M50 52h3M50 53h3M51 54h3M52 55h2" />
<path stroke="#8b5a31" d="M24 13h1M27 13h1M28 15h1M34 17h1M19 18h1M30 18h1M38 18h1M41 19h1M16 20h1M43 20h1M11 25h1M45 33h1M43 34h3M14 35h1M41 35h5M13 36h2M38 36h9M13 37h2M34 37h13M12 38h3M34 38h14M11 39h4M35 39h14M10 40h5M36 40h15M8 41h8M37 41h14M7 42h9M38 42h13M9 43h6M40 43h10M42 44h6M22 48h8M20 49h13M19 50h16M19 51h17M19 52h18M19 53h3M29 53h9M20 54h1M33 54h5M36 55h2M50 61h3M50 62h4M49 63h6M51 64h4M47 65h3M52 65h2M46 66h5M48 67h4M49 68h2" />
<path stroke="#b4a48b" d="M27 14h1M27 15h1M27 16h2M27 17h2M30 17h1M28 18h2M31 18h1M28 19h6M28 20h9M42 20h1M28 21h17M27 22h20M27 23h21M26 24h22M25 25h24M23 26h26M11 27h1M21 27h28M11 28h2M18 28h30M11 29h37M12 30h35M12 31h34M13 32h32M14 33h29M16 34h25M59 34h1M18 35h20M58 35h2M16 36h1M21 36h12M57 36h3M16 37h5M57 37h3M61 37h2M16 38h17M55 38h8M64 38h1M16 39h18M55 39h10M17 40h18M55 40h10M17 41h19M55 41h10M17 42h20M55 42h9M18 43h20M55 43h1M57 43h7M18 44h22M55 44h1M57 44h3M61 44h2M19 45h23M55 45h1M58 45h1M20 46h26M30 47h16M33 48h12M35 49h8M37 50h4M51 50h1M50 51h1M53 52h1M57 52h2M49 53h1M53 53h7M22 54h7M49 54h2M54 54h6M21 55h12M49 55h3M54 55h6M21 56h15M50 56h11M21 57h2M25 57h12M50 57h11M20 58h2M26 58h12M50 58h11M21 59h1M26 59h2M30 59h8M51 59h9M21 60h1M26 60h1M31 60h8M51 60h9M21 61h2M25 61h2M31 61h9M53 61h6M20 62h8M30 62h10M55 62h3M19 63h3M25 63h16M55 63h1M18 64h3M26 64h16M48 64h3M18 65h3M26 65h17M50 65h2M18 66h3M26 66h8M36 66h8M51 66h2M17 67h5M25 67h11M37 67h10M17 68h20M38 68h11" />
<path stroke="#101010" d="M30 16h1M22 17h1M46 21h1M63 21h1M64 22h1M48 23h1M65 23h1M66 24h1M49 25h1M67 25h1M70 25h1M49 26h1M67 26h1M71 26h1M49 27h1M68 27h1M71 27h1M68 28h1M71 28h1M48 29h1M71 29h1M47 30h1M11 31h1M46 31h1M72 31h1M12 32h1M45 32h2M72 32h1M12 33h2M43 33h2M47 33h1M56 33h1M72 33h1M11 34h1M14 34h2M41 34h2M47 34h1M56 34h1M72 34h1M10 35h1M15 35h2M38 35h3M48 35h1M55 35h1M72 35h1M15 36h1M17 36h3M34 36h4M48 36h1M55 36h1M72 36h1M8 37h1M15 37h1M21 37h13M49 37h1M55 37h1M72 37h1M7 38h1M15 38h1M33 38h1M50 38h1M54 38h1M15 39h1M34 39h1M54 39h1M71 39h1M6 40h1M15 40h1M35 40h1M51 40h1M54 40h1M71 40h1M6 41h1M16 41h1M36 41h1M51 41h1M53 41h1M70 41h1M6 42h1M16 42h1M37 42h1M51 42h1M53 42h1M70 42h1M7 43h2M15 43h3M38 43h1M50 43h2M53 43h1M69 43h1M9 44h6M17 44h1M40 44h1M48 44h3M53 44h1M68 44h1M18 45h1M42 45h7M53 45h1M67 45h1M19 46h1M46 46h1M53 46h1M66 46h1M20 47h10M46 47h1M53 47h1M64 47h2M20 48h1M31 48h2M45 48h1M53 48h1M62 48h2M19 49h1M34 49h1M44 49h1M52 49h2M59 49h3M18 50h1M35 50h2M42 50h2M53 50h1M58 50h1M60 50h1M18 51h1M36 51h6M53 51h1M57 51h1M61 51h1M18 52h1M37 52h1M54 52h3M61 52h1M23 53h5M38 53h1M19 54h1M21 54h1M29 54h3M38 54h1M20 55h1M34 55h2M38 55h1M20 56h1M36 56h2M61 56h1M37 57h1M49 57h1M61 57h1M19 58h1M38 58h1M49 58h1M61 58h1M19 59h1M39 59h1M18 60h1M50 60h1M60 60h1M18 61h1M40 61h1M49 61h1M59 61h2M18 62h1M41 62h1M58 62h1M61 62h1M48 63h1M56 63h2M61 63h1M17 64h1M42 64h1M47 64h1M55 64h1M57 64h1M61 64h2M17 65h1M43 65h1M46 65h1M54 65h1M57 65h2M62 65h1M44 66h2M53 66h1M58 66h1M62 66h2M16 67h1M36 67h1M52 67h1M59 67h1M63 67h1M16 68h1M37 68h1M51 68h1M59 68h1M63 68h1" />
<path stroke="#086200" d="M60 20h2M60 21h1M62 21h1M60 22h1M60 23h1M61 24h1M61 25h1M66 25h1M61 26h1M69 26h1M59 27h1M61 27h1M69 27h1M58 28h1M60 28h1M58 29h1M60 29h1M68 29h1M57 30h1M71 30h1M57 31h1M57 32h1M62 36h1M64 37h1M71 38h1M65 40h1M65 41h1M64 42h1M69 42h1M64 43h1M66 43h1M67 44h1M19 60h1" />
<path stroke="#6ade41" d="M61 21h1M61 22h1M61 23h2M62 24h2M62 25h2M62 26h2M62 27h2M59 28h1M61 28h3M59 29h1M61 29h3M58 30h6M58 31h5M58 32h1M60 32h3M57 33h1M61 33h1" />
<path stroke="#41c518" d="M62 22h1M63 31h1M58 33h1M62 33h1M61 34h1" />
<path stroke="#189c00" d="M63 22h1M63 23h2M64 24h2M64 25h2M64 26h3M70 26h1M64 27h4M70 27h1M64 28h4M69 28h2M64 29h4M69 29h2M64 30h7M64 31h8M59 32h1M63 32h9M59 33h2M63 33h9M57 34h2M60 34h1M62 34h10M56 35h2M60 35h12M56 36h1M60 36h2M63 36h9M56 37h1M60 37h1M63 37h1M65 37h7M63 38h1M65 38h6M65 39h6M66 40h5M66 41h4M65 42h4M67 43h2M23 57h2M22 58h4M20 59h1M22 59h4M28 59h2M20 60h1M22 60h4M27 60h4M19 61h2M23 61h2M27 61h4M19 62h1M28 62h2M22 63h3M21 64h5M21 65h5M21 66h5M22 67h3" />
<path stroke="#a48352" d="M46 33h1M12 34h2M46 34h1M11 35h3M46 35h2M10 36h3M47 36h1M9 37h4M47 37h2M8 38h4M48 38h2M8 39h3M49 39h1M7 40h3M7 41h1M54 41h1M54 42h1M54 43h1M56 43h1M65 43h1M54 44h1M56 44h1M60 44h1M63 44h4M54 45h1M56 45h2M59 45h8M54 46h11M54 47h9M54 48h7M54 49h5M54 50h3M59 50h1M54 51h3M58 51h3M59 52h2M60 53h1M38 59h1M40 62h1M54 62h1M59 62h2M58 63h3M58 64h3M59 65h3M59 66h3M47 67h1M60 67h3M60 68h3" />
</svg>