<svg xmlns="http://www.w3.org/2000/svg" viewBox="0 -0.5 80 80" shape-rendering="crispEdges">
<metadata>Made with Pixels to Svg https://codepen.io/shshaw/pen/XbxvNj</metadata>
<path stroke="#734a18" d="M37 16h4M37 17h1M41 17h2M58 17h5M36 18h1M43 18h2M47 18h7M56 18h2M36 19h1M43 19h4M54 19h2M54 20h1M55 21h1M37 22h1M45 22h2M56 22h1M37 23h1M51 23h2M57 23h1M38 24h1M54 24h1M58 24h1M55 25h2M58 25h2M62 25h1M36 26h1M57 26h1M60 26h2M58 27h1M35 28h1M39 28h2M55 28h1M34 29h1M47 29h2M15 30h3M33 30h1M50 30h2M54 30h1M14 31h1M18 31h1M32 31h1M52 31h2M60 31h1M18 32h1M54 32h1M60 32h1M13 33h1M18 33h1M31 33h1M55 33h1M13 34h1M30 34h1M35 34h2M56 34h1M61 34h1M66 34h1M29 35h1M42 35h2M55 35h1M57 35h1M61 35h1M12 36h1M19 36h1M28 36h1M45 36h1M55 36h1M58 36h1M61 36h1M12 37h1M19 37h1M28 37h1M45 37h1M47 37h1M59 37h1M12 38h1M18 38h2M27 38h1M49 38h1M54 38h1M12 39h2M27 39h1M44 39h1M51 39h1M60 39h1M12 40h1M14 40h1M16 40h1M20 40h1M27 40h1M52 40h2M12 41h1M15 41h1M26 41h1M31 41h3M35 41h2M43 41h1M53 41h1M61 41h1M12 42h1M15 42h1M21 42h1M26 42h1M28 42h2M33 42h1M39 42h2M42 42h1M54 42h1M60 42h1M62 42h1M12 43h1M15 43h1M26 43h2M41 43h1M55 43h1M59 43h1M63 43h1M15 44h1M25 44h1M32 44h1M43 44h2M54 44h1M56 44h1M59 44h1M63 44h1M15 45h1M25 45h1M32 45h1M45 45h1M53 45h1M57 45h1M64 45h1M23 46h1M25 46h1M53 46h1M58 46h1M64 46h1M16 47h1M31 47h1M47 47h2M52 47h1M58 47h1M63 47h2M16 48h1M22 48h1M31 48h1M47 48h1M49 48h1M52 48h1M60 48h3M67 48h1M14 49h1M17 49h1M20 49h2M23 49h1M29 49h1M31 49h4M46 49h1M50 49h2M64 49h1M15 50h5M24 50h1M30 50h1M35 50h3M46 50h1M64 50h1M66 50h1M29 51h1M31 51h2M38 51h2M45 51h1M52 51h1M58 51h1M63 51h1M14 52h1M25 52h1M29 52h1M34 52h1M40 52h2M45 52h1M62 52h1M64 52h1M26 53h1M29 53h1M33 53h1M35 53h1M42 53h1M44 53h1M59 53h1M27 54h2M34 54h1M36 54h1M43 54h1M52 54h2M56 54h1M60 54h1M15 55h1M28 55h1M34 55h1M37 55h1M45 55h1M50 55h2M57 55h1M27 56h1M34 56h1M37 56h1M46 56h1M49 56h1M58 56h1M16 57h1M26 57h1M34 57h1M48 57h1M60 57h1M18 58h1M25 58h1M38 58h1M47 58h1M17 59h1M19 59h2M22 59h2M33 59h1M39 59h1M46 59h1M18 60h1M21 60h1M22 61h1M32 61h1M45 61h1M61 61h2M23 62h1M31 62h1M40 62h1M46 62h3M58 62h3M18 63h1M24 63h1M30 63h1M32 63h1M38 63h1M41 63h4M46 63h1M49 63h2M56 63h2M60 63h1M63 63h1" />
<path stroke="#cdb400" d="M38 17h3M37 18h4M62 18h1M37 19h6M50 19h1M61 19h2M38 20h4M60 20h3M38 21h2M52 21h3M59 21h4M50 22h6M57 22h6M39 23h1M48 23h2M53 23h3M58 23h4M47 24h6M55 24h3M59 24h3M46 25h9M57 25h1M60 25h2M45 26h11M59 26h1M62 26h1M45 27h10M56 27h2M59 27h5M46 28h9M56 28h3M60 28h3M43 29h3M50 29h4M55 29h4M60 29h3M42 30h8M52 30h2M55 30h4M61 30h2M42 31h10M55 31h5M61 31h1M17 32h1M41 32h13M55 32h5M61 32h3M17 33h1M41 33h14M56 33h4M62 33h2M16 34h2M31 34h1M41 34h14M57 34h3M62 34h1M16 35h3M39 35h2M45 35h10M58 35h3M62 35h1M15 36h4M29 36h2M38 36h6M47 36h8M56 36h2M59 36h2M62 36h1M15 37h4M29 37h3M36 37h9M46 37h1M49 37h5M55 37h4M60 37h1M15 38h3M29 38h15M45 38h4M51 38h3M55 38h4M60 38h1M14 39h3M19 39h1M29 39h15M45 39h6M52 39h1M54 39h6M18 40h2M28 40h15M44 40h8M54 40h6M14 41h1M16 41h5M28 41h2M38 41h5M44 41h9M54 41h6M14 42h1M16 42h5M30 42h3M34 42h4M41 42h1M43 42h11M55 42h5M14 43h1M16 43h6M28 43h4M33 43h8M43 43h11M56 43h3M60 43h3M64 43h1M13 44h2M16 44h7M27 44h5M33 44h10M45 44h9M55 44h1M57 44h2M60 44h3M64 44h3M13 45h2M16 45h7M27 45h5M33 45h12M47 45h6M54 45h3M59 45h5M65 45h2M13 46h3M17 46h6M24 46h1M27 46h4M32 46h14M48 46h5M54 46h4M59 46h5M65 46h3M13 47h3M17 47h6M24 47h2M28 47h3M32 47h15M49 47h3M53 47h5M59 47h4M65 47h3M14 48h2M17 48h5M23 48h4M28 48h2M32 48h15M48 48h1M50 48h2M53 48h5M63 48h1M65 48h2M15 49h2M18 49h2M22 49h1M24 49h4M35 49h11M47 49h3M52 49h6M59 49h5M65 49h2M20 50h4M25 50h4M31 50h4M38 50h8M47 50h4M52 50h6M59 50h5M65 50h1M15 51h9M26 51h3M33 51h5M40 51h5M46 51h6M53 51h5M59 51h4M64 51h1M15 52h10M26 52h3M30 52h2M35 52h5M42 52h3M46 52h7M54 52h4M60 52h2M15 53h11M27 53h2M30 53h3M36 53h6M43 53h1M45 53h9M55 53h4M16 54h11M30 54h3M35 54h1M37 54h6M45 54h7M57 54h2M16 55h12M29 55h5M35 55h2M38 55h7M46 55h4M52 55h4M16 56h11M28 56h6M35 56h2M39 56h7M47 56h2M50 56h5M18 57h8M27 57h7M35 57h3M39 57h8M49 57h8M19 58h5M26 58h7M35 58h3M40 58h7M48 58h11M18 59h1M25 59h8M34 59h4M40 59h6M48 59h12M19 60h2M22 60h11M34 60h5M40 60h6M47 60h14M20 61h2M23 61h9M33 61h6M40 61h5M47 61h13M22 62h1M24 62h7M32 62h6M41 62h4M49 62h9M61 62h1M26 63h3M33 63h5M47 63h2M58 63h2M61 63h1" />
<path stroke="#b48310" d="M41 18h2M48 19h2M37 20h1M42 20h2M47 20h1M37 21h1M40 21h2M46 21h1M38 22h2M42 22h3M47 22h3M38 23h1M40 23h2M50 23h1M56 23h1M39 24h1M53 24h1M37 25h1M58 26h1M36 27h1M55 27h1M37 28h2M41 28h5M35 29h2M39 29h1M46 29h1M49 29h1M54 29h1M38 30h1M59 30h2M37 31h1M54 31h1M14 32h1M37 32h1M36 33h1M60 33h2M32 34h3M37 34h4M55 34h1M60 34h1M13 35h1M30 35h2M41 35h1M44 35h1M56 35h1M44 36h1M46 36h1M48 37h1M54 37h1M28 38h1M44 38h1M50 38h1M59 38h1M17 39h2M28 39h1M53 39h1M17 40h1M43 40h1M60 40h1M27 41h1M30 41h1M37 41h1M60 41h1M27 42h1M38 42h1M61 42h1M32 43h1M65 43h1M26 44h1M23 45h1M26 45h1M46 45h1M58 45h1M67 45h1M16 46h1M26 46h1M31 46h1M46 46h1M23 47h1M27 47h1M13 48h1M30 48h1M14 50h1M29 50h1M14 51h1M24 51h2M30 51h1M32 52h1M58 52h1M63 52h1M34 53h1M15 54h1M29 54h1M33 54h1M56 55h1M38 56h1M17 57h1M17 58h1M24 58h1M33 58h2M39 58h1M24 59h1M38 59h1M47 59h1M33 60h1M61 60h1M60 61h1M21 62h1M38 62h1M22 63h2M25 63h1M29 63h1M31 63h1M40 63h1" />
<path stroke="#eede10" d="M58 18h4M47 19h1M51 19h3M56 19h5M44 20h3M48 20h6M55 20h5M42 21h4M47 21h5M56 21h3M40 22h2M42 23h6M40 24h7M38 25h8M37 26h8M37 27h8M36 28h1M37 29h2M40 29h3M34 30h4M39 30h3M15 31h3M33 31h4M38 31h4M15 32h2M32 32h5M38 32h3M14 33h3M32 33h4M37 33h4M14 34h2M14 35h2M32 35h7M13 36h2M31 36h7M13 37h2M32 37h4M13 38h2M13 40h1M13 41h1M13 42h1M13 43h1M55 56h3M57 57h3M59 58h2M60 59h2M62 62h1M62 63h1" />
<path stroke="#101010" d="M63 18h1M63 19h1M36 20h1M63 20h1M36 21h1M63 21h1M36 22h1M63 22h1M62 23h1M37 24h1M62 24h1M63 25h1M56 26h1M63 26h1M64 27h1M59 28h1M63 28h2M59 29h1M63 29h1M65 29h1M63 30h1M65 30h1M63 31h1M65 31h1M31 32h1M64 32h3M30 33h1M66 33h1M29 34h1M28 35h1M66 35h1M66 36h1M27 37h1M61 37h1M65 37h1M61 38h1M65 38h1M20 39h1M26 39h1M61 39h1M64 39h1M15 40h1M26 40h1M61 40h3M21 41h1M34 41h1M62 41h1M25 42h1M63 42h3M22 43h1M25 43h1M42 43h1M54 43h1M66 43h1M12 44h1M23 44h1M67 44h1M12 45h1M24 45h1M68 45h1M12 46h1M47 46h1M68 46h1M12 47h1M26 47h1M68 47h1M12 48h1M27 48h1M58 48h2M64 48h1M68 48h1M12 49h2M28 49h1M30 49h1M58 49h1M67 49h2M13 50h1M51 50h1M58 50h1M67 50h1M13 51h1M66 51h2M13 52h1M33 52h1M53 52h1M59 52h1M65 52h2M14 53h1M54 53h1M60 53h5M14 54h1M44 54h1M54 54h2M59 54h1M14 55h1M58 55h2M15 56h1M59 56h2M15 57h1M38 57h1M47 57h1M61 57h1M16 58h1M61 58h2M16 59h1M21 59h1M62 59h1M17 60h1M39 60h1M46 60h1M62 60h2M17 61h3M39 61h1M46 61h1M63 61h1M18 62h3M39 62h1M45 62h1M63 62h1M19 63h3M39 63h1M45 63h1M51 63h5" />
<path stroke="#ffffff" d="M64 29h1M64 30h1M64 33h2M63 34h3M63 35h3M63 36h3M62 37h3M62 38h3M62 39h1" />
<path stroke="#838383" d="M62 31h1" />
<path stroke="#525252" d="M64 31h1" />
<path stroke="#836210" d="M18 34h1M19 35h1M65 51h1" />
<path stroke="#cdbdb4" d="M63 39h1" />
</svg>