<svg xmlns="http://www.w3.org/2000/svg" viewBox="0 -0.5 80 80" shape-rendering="crispEdges">
<metadata>Made with Pixels to Svg https://codepen.io/shshaw/pen/XbxvNj</metadata>
<path stroke="#83105a" d="M51 23h6M49 24h2M56 24h2M47 25h2M58 25h1M46 26h1M59 26h1M45 27h1M60 27h1M61 28h1M62 29h1M17 30h2M62 30h1M16 31h1M63 31h1M15 32h1M63 32h1M14 33h1M63 33h1M13 34h1M12 35h1M24 35h3M37 35h1M11 36h1M22 36h2M39 36h1M10 37h1M20 37h2M38 37h1M10 38h1M18 38h2M38 38h1M9 39h1M17 39h1M9 40h1M16 40h1M8 41h1M15 41h1M14 42h1M13 43h1M12 44h1M50 44h1M12 45h1M49 45h1M11 46h1M8 47h1M11 47h1M9 48h1M11 48h1M53 48h1M9 49h2M9 50h2M54 51h1M55 55h1M57 57h2M59 58h1M56 59h1M60 59h1M56 60h1M60 60h1M56 61h1M60 61h1M60 62h1M59 63h1M56 64h1M59 64h1M56 65h1M17 66h3M56 66h1M9 67h1M15 67h2M14 68h1M23 68h1M13 69h1M19 69h1M24 69h1M10 70h1M13 70h1M15 70h1M20 70h1M24 70h1M13 71h1M24 71h1" />
<path stroke="#eea4de" d="M51 24h5M49 25h9M47 26h12M48 27h12M53 28h8M57 29h5M60 30h2M17 31h5M16 32h7M15 33h9M14 34h10M13 35h11M27 35h4M12 36h10M24 36h8M11 37h9M22 37h11M11 38h7M20 38h13M11 39h6M18 39h15M11 40h5M17 40h15M12 41h3M16 41h16M15 42h16M15 43h15M15 44h14M15 45h13M15 46h12M16 47h9M18 48h5M57 58h2M57 59h3M57 60h2" />
<path stroke="#101010" d="M58 24h2M60 25h2M44 28h1M43 29h1M42 30h1M28 31h1M42 31h1M29 32h1M41 32h1M30 33h1M41 33h1M27 34h10M40 34h1M63 34h1M38 35h3M63 35h1M71 35h1M63 36h1M71 36h1M62 37h1M62 38h1M72 38h1M61 39h1M72 39h1M60 40h1M72 40h1M58 41h2M61 41h1M72 41h1M8 42h1M56 42h2M62 42h2M72 42h1M8 43h1M53 43h3M63 43h3M72 43h1M8 44h1M51 44h2M65 44h7M8 45h1M51 45h1M8 46h1M52 46h1M53 47h1M54 49h1M54 50h1M9 51h1M9 52h1M55 52h1M9 53h1M55 53h1M9 54h1M55 54h1M8 55h1M8 56h1M56 56h1M8 57h1M56 57h1M8 58h1M56 58h1M8 59h1M8 60h1M8 61h1M8 62h1M8 63h1M8 64h1M8 65h1M58 65h1M8 66h1M57 66h1M8 67h1M56 67h1M9 68h1M56 68h1M9 69h1M16 69h3M55 69h1M9 70h1M16 70h4M55 70h1M10 71h1M15 71h6M54 71h1" />
<path stroke="#ffe68b" d="M59 25h1M60 26h2M61 27h3M62 28h3M63 29h3M19 30h6M63 30h4M22 31h5M64 31h4M23 32h6M64 32h5M24 33h6M65 33h5M24 34h3M66 34h4M67 35h4M68 36h3M69 37h2M69 38h3M70 39h2M70 40h2M70 41h2" />
<path stroke="#a47318" d="M62 26h2M64 27h1M65 28h1M19 29h6M66 29h1M25 30h2M67 30h1M27 31h1M68 31h1M69 32h1M70 33h1M70 34h1M71 37h1M66 43h1M71 43h1" />
<path stroke="#e67bbd" d="M46 27h2M45 28h8M44 29h13M43 30h17M43 31h20M42 32h21M42 33h21M41 34h22M31 35h6M41 35h22M32 36h7M40 36h23M33 37h5M39 37h23M33 38h5M39 38h23M10 39h1M33 39h28M10 40h1M32 40h28M9 41h3M32 41h26M9 42h5M31 42h25M9 43h4M14 43h1M30 43h23M9 44h3M13 44h2M29 44h21M9 45h3M13 45h2M28 45h21M50 45h1M9 46h2M12 46h3M27 46h25M9 47h2M12 47h4M25 47h28M10 48h1M12 48h6M23 48h30M11 49h43M11 50h43M10 51h44M10 52h45M10 53h45M10 54h45M9 55h46M9 56h47M9 57h47M9 58h47M9 59h47M9 60h47M59 60h1M9 61h6M22 61h34M57 61h3M9 62h4M25 62h35M9 63h3M27 63h32M9 64h2M16 64h4M28 64h28M57 64h2M9 65h2M14 65h9M28 65h28M57 65h1M9 66h1M13 66h4M22 66h3M27 66h29M13 67h2M17 67h39M10 68h1M12 68h2M15 68h8M24 68h32M10 69h3M14 69h2M20 69h4M25 69h30M11 70h2M14 70h1M21 70h3M25 70h30M11 71h2M14 71h1M21 71h3M25 71h29" />
<path stroke="#ffac41" d="M64 33h1M64 34h2M64 35h3M64 36h4M63 37h6M63 38h6M62 39h8M61 40h9M62 41h8M64 42h8M67 43h4M15 61h7M13 62h12M12 63h15M11 64h5M20 64h8M11 65h3M23 65h5M10 66h3M25 66h2M10 67h3M11 68h1" />
<path stroke="#c552b4" d="M20 66h2" />
</svg>