<svg xmlns="http://www.w3.org/2000/svg" viewBox="0 -0.5 80 80" shape-rendering="crispEdges">
<metadata>Made with Pixels to Svg https://codepen.io/shshaw/pen/XbxvNj</metadata>
<path stroke="#416a83" d="M20 9h10M30 10h7M18 11h1M37 11h5M18 12h2M42 12h3M54 12h6M18 13h2M45 13h2M50 13h4M60 13h2M19 14h2M19 15h2M19 16h3M20 17h2M56 17h1M20 18h3M57 18h1M20 19h3M58 19h1M23 20h1M58 20h1M59 21h1M42 22h4M59 22h1M29 23h1M40 23h2M46 23h2M59 23h1M61 23h1M22 24h2M48 24h1M62 24h1M22 25h3M39 25h1M49 25h1M63 25h1M23 26h2M50 26h1M60 26h1M64 26h1M23 27h2M50 27h1M65 27h1M22 28h1M38 28h1M51 28h1M65 28h1M21 29h5M51 29h1M20 30h8M51 30h1M55 30h1M20 31h9M51 31h2M19 32h10M19 33h9M38 33h1M19 34h8M31 34h1M22 35h4M30 35h1M26 36h1M29 36h1M58 37h1M28 38h1M24 39h1M25 41h3M23 42h2M28 42h3M31 43h2M52 43h1M33 44h2M24 45h3M35 45h1M22 46h2M27 46h2M36 46h1M61 46h1M21 47h1M29 47h2M37 47h1M62 47h1M31 48h2M38 48h1M49 48h1M64 48h3M20 49h1M33 49h1M39 49h1M63 49h1M34 50h1M40 50h1M49 50h2M22 51h1M35 51h1M41 51h1M63 51h1M22 52h1M36 52h1M41 52h1M65 52h1M37 53h1M42 53h1M66 53h1M37 54h1M42 54h1M55 54h1M62 54h1M38 55h1M43 55h1M38 56h1M43 56h1M52 56h2M55 56h1M39 57h1M43 57h1M45 57h1M16 58h1M39 58h1M44 58h1M39 59h1M56 59h1M40 60h1M57 60h1M40 61h1M40 62h1M58 62h1" />
<path stroke="#314152" d="M18 10h2M47 14h3M62 14h1M46 15h2M62 15h1M45 16h1M62 16h1M44 17h1M62 17h1M43 18h1M62 18h1M42 19h1M61 19h1M41 20h1M61 20h1M23 21h3M40 21h1M61 21h1M26 22h2M40 22h1M60 22h1M28 23h1M39 23h1M60 23h1M39 24h1M59 24h1M38 25h1M59 25h1M38 26h1M38 27h1M21 28h1M37 28h1M20 29h1M27 29h1M37 29h1M66 29h1M19 30h1M37 30h1M54 30h1M66 30h1M19 31h1M30 31h1M37 31h1M53 31h1M64 31h2M18 32h1M37 32h1M63 32h1M18 33h1M37 33h1M62 33h1M18 34h1M38 34h2M46 34h1M61 34h1M19 35h3M60 35h1M21 36h4M59 36h1M53 43h4M57 44h2M59 45h2M63 48h1M49 49h1M50 51h1M65 51h1M64 52h1M21 53h1M21 54h1M66 54h1M20 55h1M57 55h6M18 56h2M17 57h1M54 57h2M56 58h1M42 60h1M40 63h1" />
<path stroke="#8bc5d5" d="M20 10h10M21 11h16M34 12h8M40 13h5M55 13h5M44 14h3M53 14h8M55 15h5M56 16h3M57 17h1M60 24h2M60 25h3M61 26h3M62 27h3M63 28h2M64 29h2M64 30h2M57 45h2M57 46h4M58 47h4M59 48h4M60 49h3M64 49h2M65 50h1M20 56h1M18 57h4M17 58h4M12 59h8M9 60h9" />
<path stroke="#101820" d="M17 11h1M17 12h1M17 13h1M18 14h1M18 15h1M18 16h1M19 17h1M19 18h1M19 19h1M20 20h3M22 23h6M21 24h1M21 25h1M22 26h1M58 26h2M22 27h1M57 27h2M60 27h2M23 28h3M56 28h3M26 29h1M55 29h1M57 29h3M28 30h2M57 30h3M29 31h1M58 31h1M29 32h1M31 32h1M51 32h2M28 33h1M31 33h1M49 33h2M27 34h1M47 34h2M26 35h1M40 35h6M25 36h1M25 37h1M59 37h1M24 38h1M58 38h1M23 39h1M57 39h1M59 39h1M23 40h1M56 40h1M60 40h2M22 41h1M55 41h1M22 42h1M54 42h1M56 42h1M21 43h2M21 44h1M20 45h2M20 46h1M20 47h1M19 48h2M19 49h1M67 49h1M19 50h1M66 50h1M19 51h1M19 52h1M51 52h1M19 53h1M18 54h1M53 54h2M63 54h3M18 55h1M55 55h2M17 56h1M16 57h1M12 58h4M8 59h4M43 59h1M57 59h1M7 60h2M58 60h1M7 61h1M42 61h1M58 61h1M8 62h1M41 62h1M60 62h1M9 63h2M41 63h1M59 63h1" />
<path stroke="#5294ac" d="M19 11h2M20 12h14M20 13h20M54 13h1M21 14h23M50 14h3M61 14h1M21 15h25M53 15h2M60 15h2M22 16h23M55 16h1M59 16h3M22 17h22M58 17h4M23 18h20M58 18h4M23 19h19M59 19h2M24 20h17M59 20h2M26 21h14M60 21h1M28 22h12M30 23h9M42 23h4M24 24h15M40 24h8M25 25h13M40 25h9M25 26h13M39 26h11M25 27h13M39 27h11M26 28h11M39 28h12M61 28h2M28 29h9M38 29h13M61 29h3M30 30h7M38 30h13M61 30h3M31 31h6M38 31h13M54 31h2M61 31h3M30 32h1M32 32h5M38 32h13M53 32h4M60 32h3M29 33h2M32 33h5M39 33h10M51 33h11M28 34h3M32 34h6M40 34h6M49 34h12M27 35h3M31 35h9M46 35h14M27 36h2M30 36h29M26 37h32M25 38h3M29 38h29M25 39h32M24 40h32M23 41h2M28 41h27M31 42h23M33 43h19M35 44h22M36 45h21M24 46h3M37 46h20M22 47h7M38 47h20M21 48h10M39 48h10M50 48h9M21 49h12M40 49h9M50 49h10M66 49h1M20 50h14M41 50h8M51 50h14M20 51h2M23 51h12M42 51h8M51 51h12M64 51h1M20 52h2M23 52h13M42 52h9M52 52h12M20 53h1M22 53h15M43 53h23M19 54h2M22 54h15M43 54h10M56 54h6M19 55h1M21 55h17M44 55h11M21 56h17M44 56h8M54 56h1M22 57h17M44 57h1M46 57h8M21 58h18M45 58h11M20 59h19M44 59h12M18 60h22M43 60h14M8 61h32M43 61h15M9 62h31M42 62h16M11 63h29M42 63h17" />
<path stroke="#41d5de" d="M48 15h5M46 16h9M47 17h9M46 18h1M48 18h8M47 19h1M49 19h1M51 19h1M53 19h1M48 20h1M50 20h1" />
<path stroke="#39acc5" d="M45 17h2M44 18h2M47 18h1M56 18h1M43 19h4M48 19h1M50 19h1M52 19h1M54 19h4M42 20h6M49 20h1M51 20h7M41 21h18M41 22h1M46 22h13M48 23h11M49 24h10M50 25h9M51 26h7M51 27h6M52 28h4M52 29h3M52 30h2M25 42h3M23 43h8M22 44h11M22 45h2M27 45h8M21 46h1M29 46h7M31 47h6M33 48h5M34 49h5M35 50h5M36 51h5M37 52h4M38 53h4M38 54h4M39 55h4M39 56h4M40 57h3M40 58h4M40 59h3M41 60h1M41 61h1" />
<path stroke="#ffffff" d="M59 27h1M59 28h1M56 29h1M56 30h1M57 31h1M59 31h1M58 32h1M60 37h1M59 38h2M60 39h1M57 41h1M57 42h1" />
<path stroke="#c5cdd5" d="M60 28h1M60 29h1M60 30h1M56 31h1M60 31h1M57 32h1M59 32h1M60 36h1M57 40h1M56 41h1" />
<path stroke="#5a6262" d="M61 35h1M61 36h1M61 37h1M61 38h1M58 39h1M61 39h1M58 40h1M58 41h1M58 42h1M57 43h1" />
<path stroke="#ac3910" d="M56 56h3M56 57h3M57 58h3M58 59h3M59 60h3M59 61h2" />
<path stroke="#5a1000" d="M59 56h1M59 57h2M60 58h1M61 59h1M62 60h1M61 61h1M59 62h1" />
</svg>