<svg xmlns="http://www.w3.org/2000/svg" viewBox="0 -0.5 80 80" shape-rendering="crispEdges">
<metadata>Made with Pixels to Svg https://codepen.io/shshaw/pen/XbxvNj</metadata>
<path stroke="#839cb4" d="M35 12h5M34 13h1M40 13h2M42 14h2M44 15h2M46 16h2M48 17h2M50 18h1M51 19h2M53 20h1M42 29h1M43 31h1M44 33h1M56 34h1M28 35h1M56 35h1M71 35h1M29 36h1M72 38h1M32 39h1M42 39h5M33 40h1M37 40h1M42 40h1M34 41h1M38 41h1M73 41h1M35 42h1M70 42h1M33 43h1M72 43h1M31 44h1M74 44h1M29 45h1M71 45h1M27 46h1M72 47h1M75 47h1M70 48h1M76 48h1M22 49h1M72 50h1M67 51h1M18 52h1M67 52h2M73 52h1M75 52h1M68 53h1M68 54h1M14 55h1M13 56h1M69 56h1M74 56h1M71 57h1M70 58h1M73 58h1M10 59h1M9 60h1M71 60h1M72 62h1M6 64h1M5 65h1M4 67h1" />
<path stroke="#eeeeff" d="M35 13h4M36 14h6M37 15h7M39 16h7M40 17h8M42 18h7M43 19h8M44 20h8M46 21h8M47 22h8M48 23h8M49 24h7M50 25h6M51 26h5M52 27h4M54 28h2M55 29h1M65 29h1M35 30h6M66 30h1M37 31h5M66 31h2M40 32h3M67 32h2M67 33h3M68 34h3M68 35h3M69 36h3M69 37h3M69 38h3M70 39h3M70 40h3M71 41h2M72 42h2M34 43h2M73 43h1M32 44h4M71 44h1M73 44h1M30 45h6M73 45h2M28 46h8M73 46h2M26 47h9M74 47h1M25 48h10M74 48h1M23 49h11M22 50h11M20 51h12M19 52h12M18 53h12M16 54h13M15 55h12M14 56h11M13 57h10M12 58h8M12 59h5M70 59h1M70 60h1M70 61h2M70 62h2M71 63h2M71 64h2M71 65h2M72 66h2M72 67h2" />
<path stroke="#bdc5de" d="M39 13h1M35 14h1M35 15h2M36 16h3M36 17h4M37 18h5M49 18h1M37 19h6M38 20h6M52 20h1M38 21h8M39 22h8M39 23h9M40 24h9M40 25h10M59 25h2M41 26h10M58 26h5M41 27h11M58 27h6M42 28h12M57 28h8M43 29h12M57 29h8M43 30h13M57 30h9M31 31h6M44 31h12M57 31h9M29 32h11M44 32h12M57 32h10M28 33h16M45 33h11M57 33h10M28 34h28M57 34h11M29 35h27M57 35h11M30 36h39M30 37h39M31 38h38M33 39h9M47 39h23M34 40h3M43 40h27M39 41h32M36 42h34M36 43h34M36 44h34M36 45h34M36 46h34M35 47h35M73 47h1M24 48h1M35 48h35M72 48h2M75 48h1M34 49h42M21 50h1M33 50h39M73 50h3M32 51h35M68 51h5M74 51h2M31 52h36M69 52h4M17 53h1M30 53h38M69 53h6M29 54h39M70 54h5M27 55h42M70 55h5M25 56h44M71 56h3M12 57h1M23 57h47M72 57h2M11 58h1M20 58h50M72 58h1M11 59h1M17 59h53M72 59h1M10 60h60M9 61h61M8 62h62M7 63h64M7 64h64M6 65h65M73 65h1M5 66h67M5 67h67" />
<path stroke="#733129" d="M58 13h2M57 14h1M60 14h1M58 15h1M61 15h1M58 16h2M62 16h1M58 17h2M62 17h1M58 18h3M63 18h1M58 19h3M63 19h1M58 20h3M64 20h1M58 21h4M64 21h1M58 22h4M65 22h1M57 23h6M65 23h1M57 24h6M66 24h1M57 25h2M61 25h2M66 25h1M57 26h1M63 26h1M67 26h1M57 27h1M67 27h1M68 28h1M68 29h1M69 30h1M69 31h1M70 32h1M70 33h1M71 34h1" />
<path stroke="#4a5a73" d="M34 14h1M34 15h1M35 16h1M35 17h1M36 18h1M37 20h1M54 21h1M38 22h1M55 22h2M39 24h1M40 26h1M20 28h1M41 28h1M21 29h1M22 30h1M42 30h1M42 31h1M56 31h1M43 32h1M56 32h1M56 33h1M26 35h1M72 36h1M72 37h1M73 39h1M38 40h4M73 40h1M35 41h3M33 42h2M71 42h1M74 42h1M31 43h2M70 43h1M74 43h1M29 44h2M72 44h1M27 45h2M72 45h1M75 45h1M26 46h1M72 46h1M75 46h1M24 47h2M70 47h1M22 48h2M71 48h1M21 49h1M76 49h1M20 50h1M76 50h1M18 51h2M73 51h1M76 51h1M17 52h1M74 52h1M76 52h1M16 53h1M75 53h2M14 54h2M69 54h1M75 54h1M13 55h1M69 55h1M75 55h1M12 56h1M70 56h1M75 56h1M11 57h1M70 57h1M74 57h1M10 58h1M71 58h1M74 58h1M71 59h1M73 59h1M72 60h2M8 61h1M72 61h1M7 62h1M73 62h1M6 63h1M73 63h1M73 64h1M74 65h1M4 66h1M74 66h1M74 67h1" />
<path stroke="#cd4a31" d="M58 14h2M59 15h2M60 16h2M60 17h2M61 18h2M61 19h2M61 20h3M62 21h2M62 22h3M63 23h2M63 24h3M63 25h3M64 26h3M64 27h3M65 28h3M66 29h2M68 30h1" />
<path stroke="#101010" d="M57 15h1M57 16h1M57 17h1M57 18h1M36 19h1M57 19h1M36 20h1M57 20h1M37 21h1M57 21h1M37 22h1M57 22h1M38 23h1M56 23h1M38 24h1M56 24h1M39 25h1M56 25h1M39 26h1M56 26h1M20 27h1M40 27h1M56 27h1M21 28h1M40 28h1M56 28h1M22 29h1M40 29h2M56 29h1M23 30h1M41 30h1M56 30h1M23 31h2M24 32h2M25 33h2M26 34h2M27 35h1M27 36h2M28 37h2M29 38h2M30 39h2M31 40h2M32 41h2M71 43h1M70 44h1M70 45h1M70 46h2M71 47h1M9 59h1M8 60h1M7 61h1M6 62h1M5 63h1M4 64h2M4 65h1M3 66h1M2 67h2" />
<path stroke="#525aac" d="M20 26h10M31 27h4M22 28h4M36 28h3M23 29h6M24 30h9M25 31h5M26 32h2M27 33h1" />
<path stroke="#4183ee" d="M21 27h10M26 28h10M29 29h11M33 30h1" />
<path stroke="#94b4ff" d="M34 30h1M30 31h1M28 32h1" />
<path stroke="#bd8383" d="M67 30h1M68 31h1M69 32h1" />
</svg>