<svg xmlns="http://www.w3.org/2000/svg" viewBox="0 -0.5 80 80" shape-rendering="crispEdges">
<metadata>Made with Pixels to Svg https://codepen.io/shshaw/pen/XbxvNj</metadata>
<path stroke="#394a5a" d="M50 44h1M45 45h2M49 45h1M51 45h1M39 46h3M49 46h1M51 46h2M38 47h1M43 47h2M53 47h1M37 51h1M34 54h1M35 55h1M9 56h2M6 57h3M11 57h1M14 57h1M5 58h1M34 58h1M44 58h1M37 59h1M43 59h1M45 59h1M32 60h4M38 60h4M65 60h3M30 61h2M35 61h5M64 61h1M68 61h2M2 62h2M6 62h1M29 62h1M34 62h5M63 62h1M70 62h1M1 63h1M3 63h3M28 63h1M34 63h5M62 63h1M71 63h1M27 64h1M33 64h5M72 64h1M27 65h1M33 65h5M61 65h1M72 65h1M26 66h1M32 66h5M61 66h1M73 66h1M26 67h1M32 67h5M73 67h1M2 68h1M12 68h1M25 68h1M32 68h5M60 68h1M70 68h4M1 69h2M25 69h1M32 69h5M60 69h1M68 69h7M0 70h2M11 70h1M25 70h1M66 70h9M65 71h11M9 72h1M24 72h1M65 72h7M75 72h1M1 73h1M7 73h3M24 73h1M65 73h5M75 73h1M7 74h3M24 74h1M66 74h3M76 74h1M6 75h4M13 75h1M1 76h1M5 76h1M7 76h3M14 76h1M23 76h1M4 77h1M7 77h2M14 77h1M23 77h1M44 77h2M2 78h1M7 78h1M14 78h1M23 78h1M41 78h5M3 79h1M15 79h1M23 79h1M39 79h7" />
<path stroke="#4aa462" d="M50 45h1M45 46h2M50 46h1M39 47h3M45 47h2M51 47h2M39 48h2M43 48h5M51 48h1M45 49h3M9 57h2M8 58h5M8 59h5M9 60h3M2 63h1M2 64h4M3 65h2" />
<path stroke="#7b6220" d="M58 45h5M28 46h8M57 46h1M63 46h3M25 47h3M37 47h1M66 47h2M23 48h2M68 48h2M22 49h1M20 50h1M54 50h1M53 51h1M53 52h1M73 53h1M17 54h1M51 55h1M74 55h1M16 56h1M51 56h1M16 57h1M51 57h1M75 57h1M50 58h1M50 59h1M65 59h2M15 60h1M46 60h1M50 60h1M64 60h1M68 60h1M76 60h1M63 61h1M62 62h1M14 63h1M14 64h1M61 64h1M77 64h1M60 66h1M60 67h1M78 67h1M78 68h1M50 71h1M50 72h1M50 73h1M50 74h2M60 74h1M14 75h1M51 75h1M46 76h1M51 76h1M51 77h1M61 77h1M15 78h1M52 78h1M47 79h1M62 79h1" />
<path stroke="#181820" d="M44 46h1M47 46h2M55 46h2M47 47h1M54 47h1M37 48h1M52 48h1M21 49h1M36 49h1M51 49h1M70 49h1M36 50h1M50 50h1M71 50h1M19 51h1M49 51h1M72 51h1M18 52h1M35 52h2M49 52h1M73 52h1M17 53h1M34 53h1M48 53h1M74 53h1M16 54h1M48 54h1M74 54h1M16 55h1M47 55h1M75 55h1M15 56h1M35 56h2M47 56h1M75 56h1M12 57h1M15 57h1M34 57h1M46 57h1M76 57h1M13 58h1M15 58h1M42 58h2M46 58h1M76 58h1M5 59h1M15 59h1M35 59h1M38 59h5M46 59h1M76 59h1M6 60h1M14 60h1M36 60h2M45 60h1M77 60h1M6 61h1M14 61h1M40 61h1M45 61h1M77 61h1M5 62h1M14 62h1M39 62h1M45 62h1M77 62h1M13 63h1M77 63h2M0 64h1M13 64h1M38 64h1M44 64h1M78 64h1M0 65h1M13 65h1M38 65h1M44 65h1M78 65h1M0 66h1M13 66h1M37 66h1M44 66h1M78 66h1M1 67h1M12 67h2M37 67h1M44 67h1M79 67h1M1 68h1M11 68h1M13 68h1M37 68h1M44 68h1M74 68h1M79 68h1M11 69h1M13 69h1M37 69h1M44 69h1M75 69h1M79 69h1M10 70h1M13 70h1M33 70h3M44 70h1M60 70h1M75 70h1M79 70h1M0 71h1M9 71h2M13 71h1M44 71h1M60 71h1M76 71h1M79 71h1M0 72h1M8 72h1M10 72h1M13 72h1M44 72h1M60 72h1M72 72h3M76 72h1M79 72h1M0 73h1M10 73h1M13 73h1M60 73h1M70 73h2M76 73h1M79 73h1M1 74h1M10 74h1M13 74h1M45 74h1M69 74h1M79 74h1M1 75h1M10 75h1M45 75h1M61 75h1M67 75h2M77 75h1M79 75h1M45 76h1M61 76h2M77 76h1M79 76h1M0 77h1M46 77h1M62 77h1M78 77h1M0 78h1M46 78h1M62 78h2M78 78h1M0 79h1M46 79h1M63 79h1M79 79h1" />
<path stroke="#f6d55a" d="M58 46h5M28 47h8M55 47h1M57 47h9M25 48h12M53 48h2M56 48h12M23 49h13M52 49h2M55 49h2M64 49h6M21 50h15M53 50h1M66 50h5M22 51h15M68 51h4M26 52h9M69 52h4M29 53h5M70 53h3M30 54h1M32 54h1M71 54h3M31 55h1M33 55h1M72 55h2M32 56h1M34 56h1M73 56h2M74 57h1M74 58h2M74 59h2M75 60h1M75 61h2M76 62h1M76 63h1M76 64h1" />
<path stroke="#c59c52" d="M36 47h1M56 47h1M55 48h1M54 49h1M57 49h7M51 50h2M55 50h11M20 51h2M50 51h3M54 51h14M19 52h7M50 52h3M54 52h15M18 53h11M49 53h21M18 54h12M31 54h1M33 54h1M49 54h22M17 55h14M32 55h1M34 55h1M48 55h3M52 55h20M17 56h15M33 56h1M48 56h3M52 56h21M17 57h17M47 57h4M52 57h22M16 58h18M47 58h3M51 58h23M16 59h19M47 59h3M51 59h14M67 59h7M16 60h16M47 60h3M51 60h13M69 60h6M15 61h15M46 61h17M70 61h5M15 62h14M46 62h16M71 62h5M15 63h13M45 63h17M72 63h4M15 64h12M45 64h16M73 64h3M14 65h13M45 65h16M73 65h5M14 66h12M45 66h15M74 66h4M14 67h12M45 67h15M74 67h4M14 68h11M45 68h15M75 68h3M14 69h11M45 69h15M76 69h3M14 70h11M45 70h15M76 70h3M14 71h11M45 71h5M51 71h9M77 71h2M14 72h10M45 72h5M51 72h9M77 72h2M14 73h10M45 73h5M51 73h9M77 73h2M14 74h10M46 74h4M52 74h8M77 74h2M15 75h9M46 75h5M52 75h9M78 75h1M15 76h8M47 76h4M52 76h9M78 76h1M1 77h1M15 77h8M47 77h4M52 77h9M1 78h1M16 78h7M47 78h5M53 78h9M1 79h2M16 79h7M48 79h14" />
<path stroke="#20836a" d="M42 47h1M48 47h3M38 48h1M41 48h2M48 48h3M37 49h8M48 49h3M37 50h13M38 51h11M37 52h12M35 53h13M35 54h13M36 55h11M37 56h10M35 57h11M6 58h2M14 58h1M35 58h7M45 58h1M6 59h2M13 59h2M36 59h1M7 60h2M12 60h2M7 61h7M7 62h7M6 63h7M1 64h1M6 64h7M1 65h2M5 65h8M1 66h12M2 67h10M3 68h8M3 69h8M2 70h8M1 71h8M1 72h7M2 73h5M2 74h5M2 75h4M2 76h3M2 77h2M3 78h1" />
<path stroke="#6a7b8b" d="M44 59h1M42 60h1M32 61h1M30 62h1M29 63h1M33 63h1M39 63h1M44 63h1M28 64h1M62 64h1M32 65h1M27 66h1M61 67h1M26 68h1M36 70h1M25 71h1M44 73h1M61 74h1M24 75h1M10 76h1M9 77h1M43 77h1M4 78h1M8 78h1M40 78h1M38 79h1" />
<path stroke="#d5cdd5" d="M43 60h2M33 61h2M41 61h4M65 61h3M31 62h3M40 62h5M64 62h6M30 63h3M40 63h4M63 63h8M29 64h4M39 64h5M63 64h9M28 65h4M39 65h5M62 65h10M28 66h4M38 66h6M62 66h11M27 67h5M38 67h6M62 67h11M27 68h5M38 68h6M61 68h8M12 69h1M26 69h6M38 69h6M61 69h6M12 70h1M26 70h6M37 70h7M61 70h5M11 71h2M26 71h18M61 71h4M11 72h2M25 72h19M61 72h4M11 73h2M25 73h19M61 73h4M72 73h3M11 74h2M25 74h20M62 74h4M70 74h3M11 75h2M25 75h20M62 75h5M69 75h2M6 76h1M11 76h3M24 76h21M63 76h8M5 77h2M10 77h4M24 77h19M63 77h8M5 78h2M9 78h5M24 78h16M64 78h8M4 79h11M24 79h14M64 79h8" />
<path stroke="#8b94ac" d="M69 68h1M67 69h1M32 70h1" />
<path stroke="#f6f6f6" d="M73 74h3M71 75h6M71 76h6M71 77h7M72 78h6M72 79h7" />
</svg>