<svg xmlns="http://www.w3.org/2000/svg" viewBox="0 -0.5 80 80" shape-rendering="crispEdges">
<metadata>Made with Pixels to Svg https://codepen.io/shshaw/pen/XbxvNj</metadata>
<path stroke="#101010" d="M27 8h1M47 8h1M27 9h1M47 9h1M28 10h1M46 11h1M29 12h1M46 12h1M45 14h1M30 15h1M45 15h1M53 16h3M55 17h2M25 18h1M31 18h1M40 18h2M44 18h1M55 18h2M26 19h1M37 19h1M44 19h1M56 19h1M27 20h1M32 20h1M36 20h1M44 20h1M56 20h2M27 21h1M32 21h1M36 21h1M43 21h1M46 21h1M56 21h2M18 22h1M28 22h1M32 22h1M43 22h1M45 22h1M56 22h2M18 23h1M28 23h1M32 23h1M43 23h1M45 23h1M56 23h2M18 24h1M29 24h1M31 24h2M36 24h5M43 24h2M56 24h2M18 25h1M29 25h1M44 25h1M56 25h2M18 26h1M44 26h1M56 26h2M18 27h1M56 27h2M18 28h1M56 28h1M45 29h1M56 29h1M19 30h1M46 30h1M55 30h2M19 31h1M55 31h1M19 32h1M20 33h1M20 34h1M71 34h1M14 35h1M19 35h2M69 35h1M15 36h1M19 36h1M59 36h1M66 36h2M17 37h3M60 37h1M63 37h2M19 38h1M60 38h3M19 39h2M60 39h1M21 40h2M23 41h1M24 42h1M25 43h1M25 44h1M60 44h1M20 45h1M26 45h1M59 45h1M18 46h1M26 46h1M59 46h1M18 47h1M22 47h1M26 47h1M58 47h6M17 48h1M26 48h1M57 48h2M65 48h3M9 49h1M17 49h1M26 49h1M56 49h2M9 50h1M17 50h1M26 50h1M55 50h2M9 51h1M17 51h1M25 51h1M54 51h1M9 52h1M17 52h1M25 52h1M52 52h2M9 53h1M18 53h1M24 53h3M50 53h2M70 53h1M18 54h2M22 54h1M27 54h2M47 54h2M69 54h3M10 55h1M18 55h1M20 55h2M29 55h4M42 55h5M72 55h1M10 56h1M18 56h1M30 56h1M44 56h2M72 56h1M18 57h1M28 57h2M45 57h2M72 57h1M11 58h1M19 58h1M26 58h2M46 58h2M73 58h1M11 59h1M19 59h1M25 59h1M48 59h1M73 59h1M12 60h1M20 60h1M23 60h1M30 60h1M49 60h1M73 60h1M20 61h2M28 61h3M44 61h1M51 61h1M69 61h1M72 61h1M13 62h1M21 62h1M26 62h2M29 62h1M44 62h2M54 62h3M68 62h1M70 62h2M14 63h1M22 63h1M24 63h2M44 63h3M66 63h1M15 64h1M22 64h2M28 64h1M44 64h1M46 64h2M65 64h1M16 65h1M23 65h1M44 65h1M48 65h2M62 65h2M17 66h1M24 66h1M27 66h1M50 66h3M60 66h2M18 67h1M25 67h1M27 67h1M45 67h1M53 67h7M18 68h2M26 68h2M45 68h1M5 69h1M10 69h1M16 69h2M20 69h1M27 69h1M45 69h1M5 70h1M10 70h6M21 70h1M28 70h1M46 70h1M6 71h1M10 71h1M13 71h1M22 71h1M29 71h1M46 71h1M7 72h6M23 72h1M30 72h1M47 72h1" />
<path stroke="#9c6a00" d="M28 8h1M46 8h1M29 9h1M45 9h1M30 10h1M47 10h1M28 11h1M44 11h1M31 12h1M29 13h1M43 13h1M46 13h1M30 14h1M32 14h1M43 14h1M52 15h3M21 16h3M30 16h1M33 16h1M42 16h1M45 16h1M50 16h3M20 17h1M24 17h1M31 17h1M33 17h1M42 17h1M44 17h1M49 17h2M54 17h1M19 18h1M34 18h1M39 18h1M42 18h1M48 18h1M19 19h1M31 19h1M34 19h1M38 19h1M42 19h1M47 19h1M55 19h1M57 19h1M18 20h1M34 20h1M41 20h1M46 20h1M18 21h1M35 21h1M37 21h1M40 21h2M45 21h1M35 22h1M41 22h1M35 23h1M41 23h1M35 24h1M41 24h1M30 25h2M33 25h2M42 25h2M27 26h3M26 27h2M44 27h1M25 28h1M45 28h1M55 28h1M57 28h1M18 29h1M24 29h1M55 29h1M57 30h1M22 31h1M47 31h1M54 31h1M57 31h1M20 32h2M48 32h2M58 32h1M21 33h1M50 33h2M58 33h1M69 33h3M14 34h4M59 34h1M66 34h2M18 35h1M59 35h1M63 35h2M70 35h1M16 36h1M60 36h2M68 36h1M61 37h1M65 37h1M60 40h1M60 41h1M60 42h1M60 43h1M59 44h1M61 44h2M63 45h2M58 46h1M69 47h1M64 48h1M70 48h1M68 49h3M53 51h1M55 51h1M66 51h3M64 52h2M69 52h1M27 53h1M49 53h1M63 53h1M29 54h1M46 54h1M49 54h1M62 54h1M33 55h1M40 55h2M62 55h1M71 55h1M31 56h1M43 56h1M61 56h1M61 57h1M70 57h2M60 58h1M24 59h1M31 59h1M43 59h1M60 59h1M22 60h1M29 60h1M43 60h2M50 60h1M59 60h1M72 60h1M52 61h1M58 61h1M70 61h2M53 62h1M57 62h1M13 63h1M28 63h2M67 63h1M10 64h3M48 64h1M64 64h1M7 65h2M27 65h2M50 65h1M64 65h1M6 66h1M44 66h2M53 66h1M62 66h1M5 67h1M5 68h1M9 69h1M45 70h1M9 71h1M11 71h2" />
<path stroke="#ffffb4" d="M28 9h1M46 9h1M29 10h1M46 10h1M29 11h2M45 11h1M30 12h1M45 12h1M30 13h2M44 13h2M31 14h1M44 14h1M31 15h2M44 15h1M31 16h2M43 16h2M32 17h1M43 17h1M32 18h2M33 19h1M32 25h1M36 25h5M30 26h14M28 27h15M26 28h15M26 29h4M25 30h1M56 31h1M56 32h2M57 33h1M57 34h2M68 34h3M15 35h2M58 35h1M66 35h3M58 36h1M63 46h3M65 47h3M68 48h2" />
<path stroke="#debd39" d="M45 10h1M31 11h1M44 12h1M32 13h1M33 15h1M43 15h1M21 17h3M51 17h3M20 18h5M49 18h6M20 19h3M25 19h1M48 19h7M19 20h4M26 20h1M47 20h9M19 21h3M47 21h9M19 22h3M27 22h1M46 22h10M19 23h3M46 23h10M19 24h3M28 24h1M45 24h11M19 25h3M28 25h1M45 25h11M19 26h4M45 26h11M19 27h4M43 27h1M45 27h11M19 28h5M42 28h3M46 28h9M19 29h5M31 29h14M46 29h9M20 30h4M28 30h18M47 30h8M20 31h2M23 31h1M26 31h21M48 31h6M22 32h26M50 32h5M22 33h28M52 33h4M68 33h1M21 34h35M65 34h1M21 35h36M62 35h1M20 36h37M20 37h38M59 37h1M20 38h40M21 39h39M23 40h37M24 41h36M25 42h35M26 43h34M26 44h33M27 45h32M65 45h1M27 46h31M66 46h2M27 47h31M68 47h1M27 48h30M27 49h29M27 50h28M26 51h27M26 52h26M28 53h21M64 53h1M30 54h16M63 54h1M68 54h1M34 55h6M32 56h11M30 57h15M28 58h18M71 58h2M26 59h5M32 59h11M44 59h4M69 59h4M26 60h3M31 60h12M45 60h4M67 60h5M24 61h4M31 61h13M45 61h6M66 61h3M20 62h1M22 62h4M30 62h14M46 62h7M64 62h4M19 63h3M23 63h1M30 63h14M47 63h10M61 63h5M9 64h1M16 64h6M29 64h15M49 64h15M9 65h1M14 65h2M17 65h6M29 65h15M51 65h11M12 66h5M18 66h6M28 66h16M54 66h6M10 67h8M19 67h6M28 67h17M7 68h11M20 68h6M28 68h17M6 69h3M11 69h5M21 69h6M28 69h17M6 70h4M22 70h6M29 70h16M7 71h2M23 71h6M30 71h16M24 72h6M31 72h16" />
<path stroke="#ffe683" d="M43 18h1M23 19h2M32 19h1M43 19h1M23 20h3M33 20h1M42 20h2M22 21h5M33 21h2M42 21h1M22 22h5M33 22h2M42 22h1M22 23h6M33 23h2M42 23h1M22 24h6M33 24h2M42 24h1M22 25h6M35 25h1M41 25h1M23 26h4M23 27h3M24 28h1M41 28h1M25 29h1M30 29h1M24 30h1M26 30h2M24 31h2M55 32h1M56 33h1M56 34h1M17 35h1M57 35h1M65 35h1M17 36h2M57 36h1M62 36h4M58 37h1M62 37h1M60 45h3M60 46h3M64 47h1M66 52h3M65 53h5M64 54h4M63 55h8M62 56h10M62 57h8M61 58h10M61 59h8M24 60h2M60 60h7M22 61h2M59 61h7M58 62h6M57 63h4M13 64h2M10 65h4M7 66h5M6 67h4M6 68h1" />
<path stroke="#ffd500" d="M39 19h3M37 20h4M44 21h1M37 22h4M44 22h1M37 23h4M44 23h1" />
<path stroke="#cda400" d="M38 21h2M36 22h1M36 23h1" />
<path stroke="#944100" d="M16 39h3M14 40h2M13 41h1M12 42h1M11 43h1M11 44h1M10 45h1M19 45h1M21 45h1M10 46h1M19 46h1M22 46h1M9 47h1M17 47h1M9 48h1M25 50h1M24 52h1M17 53h1M9 54h2M17 54h1M23 54h1M19 55h1M10 57h2M12 59h1M12 61h2" />
<path stroke="#ee9c31" d="M16 40h5M14 41h9M13 42h11M12 43h6M22 43h3M12 44h4M23 44h2M11 45h4M11 46h3M10 47h4M10 48h3M19 48h2M10 49h3M19 49h1M10 50h3M10 51h2" />
<path stroke="#c57b08" d="M18 43h4M16 44h7M15 45h4M22 45h4M14 46h4M20 46h2M23 46h3M14 47h3M19 47h3M23 47h3M13 48h4M18 48h1M21 48h5M13 49h4M18 49h1M20 49h6M13 50h4M18 50h7M12 51h5M18 51h7M10 52h7M18 52h6M10 53h7M19 53h5M11 54h6M20 54h2M11 55h7M11 56h7M12 57h6M12 58h7M13 59h6M13 60h7M14 61h6M14 62h6M15 63h4" />
</svg>