<svg xmlns="http://www.w3.org/2000/svg" viewBox="0 -0.5 80 80" shape-rendering="crispEdges">
<metadata>Made with Pixels to Svg https://codepen.io/shshaw/pen/XbxvNj</metadata>
<path stroke="#9c6a6a" d="M47 14h1M44 15h1M46 15h1M43 16h1M46 16h1M25 17h3M31 17h2M43 17h1M28 18h2M33 18h2M42 18h1M35 19h2M42 19h1M37 20h2M42 20h1M39 21h1M41 21h1M25 22h3M41 22h1M41 23h1M63 23h3M72 23h3M41 24h1M62 24h1M67 24h4M75 24h1M14 25h1M40 25h1M61 25h1M40 26h1M61 26h1M76 26h2M40 27h1M61 27h1M75 27h3M39 28h1M61 28h2M74 28h5M13 29h1M39 29h1M61 29h5M71 29h8M39 30h1M61 30h3M73 30h4M78 30h1M61 31h2M74 31h3M78 31h1M9 32h4M61 32h1M75 32h2M78 32h1M75 33h1M77 33h1M67 34h3M76 34h2M4 35h6M66 35h6M76 35h1M65 36h7M65 37h8M68 38h5M68 39h6M69 40h5M60 41h1M68 41h6M58 42h4M66 42h8M57 43h16M55 44h18M56 45h16M58 46h11M59 47h7M58 48h5M57 49h4M56 50h3" />
<path stroke="#ffffd5" d="M47 15h1M44 16h1M47 16h1M44 17h1M46 17h2M26 18h2M32 18h1M43 18h2M46 18h2M18 19h1M27 19h3M32 19h3M43 19h5M16 20h1M18 20h1M28 20h4M33 20h4M43 20h5M16 21h3M29 21h10M42 21h6M16 22h3M31 22h9M42 22h6M16 23h3M26 23h14M42 23h6M16 24h3M31 24h9M42 24h5M15 25h5M35 25h4M41 25h6M15 26h5M41 26h6M15 27h5M26 27h5M41 27h5M15 28h5M24 28h5M40 28h6M15 29h5M22 29h4M40 29h6M14 30h5M40 30h5M14 31h5M41 31h3M14 32h5M10 33h3M14 33h4M11 34h6M10 35h5M5 36h12M8 37h11M29 37h1M10 38h8M28 38h2M9 39h8M27 39h3M31 39h1M9 40h12M26 40h6M7 41h13M25 41h7M12 42h6M24 42h4M29 42h3M11 43h6M23 43h3M29 43h2M10 44h2M13 44h3M22 44h2M29 44h2M13 45h2M29 45h1M12 46h2M12 47h1" />
<path stroke="#624a20" d="M48 15h1M45 16h1M48 16h1M45 17h1M49 17h1M18 18h1M25 18h1M31 18h1M16 19h2M19 19h1M26 19h1M30 19h2M15 20h1M17 20h1M19 20h1M27 20h1M32 20h1M50 20h1M15 21h1M20 21h1M28 21h1M15 22h1M21 22h1M28 22h3M40 22h1M50 22h1M15 23h1M25 23h1M51 23h1M15 24h1M26 24h1M23 25h1M14 26h1M24 26h5M51 26h2M14 27h1M23 27h3M14 28h1M21 28h3M53 28h1M55 28h3M21 29h1M53 29h2M13 30h1M22 30h2M56 30h3M13 31h1M24 31h2M54 31h2M58 31h1M13 32h1M9 33h1M10 34h1M56 35h4M4 36h1M5 37h1M6 38h1M57 38h3M7 39h1M60 39h1M8 40h1M54 40h4M5 41h2M7 44h1M5 45h2M53 45h2M3 46h2M52 46h1M56 46h2M58 47h1M57 48h1M56 49h1M55 50h1M5 51h2M59 51h1M62 51h2M4 52h1M57 52h2M63 52h2M3 53h1M62 53h2M2 54h2M61 54h2M1 55h2M56 55h1M6 56h1M63 56h1M4 57h1M62 57h1M4 58h1M3 60h1M5 61h1M5 62h1M60 62h2M7 63h1M62 63h1" />
<path stroke="#e6bd9c" d="M48 17h1M45 18h1M48 18h1M48 19h1M48 20h2M19 21h1M48 21h2M19 22h2M48 22h2M19 23h2M40 23h1M48 23h3M19 24h3M27 24h3M40 24h1M48 24h3M20 25h2M28 25h6M39 25h1M47 25h4M20 26h3M29 26h11M47 26h4M20 27h3M32 27h8M47 27h5M20 28h1M29 28h10M46 28h6M14 29h1M20 29h1M26 29h13M46 29h6M55 29h2M19 30h3M24 30h15M45 30h11M19 31h5M26 31h14M44 31h10M56 31h2M19 32h39M13 33h1M18 33h39M17 34h40M15 35h41M17 36h42M6 37h2M19 37h10M30 37h28M7 38h3M18 38h10M30 38h27M8 39h1M17 39h10M30 39h1M32 39h28M21 40h5M32 40h22M58 40h2M20 41h5M32 41h26M5 42h7M18 42h6M28 42h1M32 42h25M6 43h5M17 43h6M26 43h3M31 43h24M8 44h2M12 44h1M16 44h6M24 44h5M31 44h23M7 45h6M15 45h14M30 45h23M5 46h7M14 46h38M53 46h3M3 47h9M13 47h45M4 48h53M5 49h10M17 49h20M39 49h2M42 49h14M6 50h7M16 50h21M40 50h1M43 50h12M7 51h5M16 51h1M18 51h18M44 51h12M60 51h2M5 52h7M18 52h18M38 52h2M42 52h1M45 52h12M59 52h4M4 53h7M17 53h19M37 53h4M42 53h16M59 53h3M4 54h6M13 54h1M17 54h2M20 54h37M58 54h3M3 55h7M11 55h3M17 55h1M20 55h36M57 55h5M7 56h6M15 56h1M20 56h43M6 57h7M14 57h5M20 57h42M5 58h58M5 59h59M4 60h61M6 61h60M8 62h52M9 63h52M9 64h53M8 65h51M7 66h53" />
<path stroke="#000000" d="M49 18h1M49 19h1M50 21h1M21 23h1M22 24h1M51 24h1M22 25h1M27 25h1M51 25h1M77 25h1M23 26h1M78 26h1M52 27h1M78 27h1M52 28h1M60 28h1M79 28h1M52 29h1M57 29h1M60 29h1M67 29h3M79 29h1M60 30h1M71 30h1M77 30h1M79 30h1M60 31h1M63 31h1M73 31h1M77 31h1M79 31h1M58 32h1M62 32h1M74 32h1M77 32h1M79 32h1M57 33h1M62 33h1M66 33h5M74 33h1M76 33h1M78 33h1M57 34h1M61 34h1M65 34h1M71 34h1M75 34h1M78 34h1M61 35h1M65 35h1M72 35h1M75 35h1M77 35h1M59 36h1M61 36h1M64 36h1M72 36h1M75 36h3M58 37h1M61 37h1M64 37h1M73 37h1M75 37h1M62 38h1M64 38h1M73 38h1M62 39h3M74 39h1M7 40h1M61 40h1M74 40h1M58 41h2M74 41h1M4 42h1M57 42h1M5 43h1M55 43h2M6 44h1M54 44h1M55 45h1M70 46h2M2 47h1M67 47h2M3 48h1M64 48h2M4 49h1M61 49h2M5 50h1M59 50h3M57 51h2M58 53h1M57 54h1M62 55h1M2 56h4M5 57h1M63 58h1M4 59h1M64 59h1M65 60h1M3 61h2M66 61h1M6 62h2M62 62h4M8 63h1M61 63h1M7 64h2M62 64h1M7 65h1M59 65h4M6 66h1M60 66h1" />
<path stroke="#cd8b5a" d="M66 23h1M71 23h1M75 25h1M75 26h1M62 27h1M74 27h1M63 28h2M72 28h2M66 39h2M63 40h6M61 41h7M62 42h4" />
<path stroke="#ffe6b4" d="M30 24h1M47 24h1M34 25h1M31 27h1M46 27h1M40 31h1M15 49h2M37 49h2M41 49h1M13 50h3M37 50h3M41 50h2M12 51h4M17 51h1M36 51h8M12 52h6M36 52h2M40 52h2M43 52h2M11 53h6M36 53h1M41 53h1M10 54h3M14 54h3M19 54h1M10 55h1M14 55h3M18 55h2M13 56h2M16 56h4M13 57h1M19 57h1" />
<path stroke="#e6b48b" d="M63 24h4M71 24h4M62 25h13M62 26h13M63 27h11M65 28h7" />
<path stroke="#5a3100" d="M76 24h1M76 25h1M60 27h1M60 32h1M61 33h1M79 33h1M66 34h1M70 34h1M78 35h1M65 38h3M65 39h1M60 40h1M62 40h1M74 42h1M73 43h1M73 44h1M72 45h1M69 46h1M66 47h1M69 47h1M63 48h1M66 48h1M63 49h1M56 51h1" />
<path stroke="#414141" d="M66 29h1M70 29h1M64 30h2M72 30h1M67 31h4M65 32h8M64 33h2M71 33h3M62 34h3M72 34h3M62 35h3M73 35h2M62 36h2M73 36h2M62 37h2M74 37h1M63 38h1M74 38h2" />
<path stroke="#7b7b7b" d="M66 30h2M70 30h1M64 31h3M71 31h2M63 32h2M73 32h1M63 33h1" />
<path stroke="#c5c5c5" d="M68 30h2" />
</svg>