<svg xmlns="http://www.w3.org/2000/svg" viewBox="0 -0.5 80 80" shape-rendering="crispEdges">
<metadata>Made with Pixels to Svg https://codepen.io/shshaw/pen/XbxvNj</metadata>
<path stroke="#e65a29" d="M8 7h1M18 7h1M2 8h3M8 8h2M19 8h1M1 9h1M6 9h5M20 9h1M2 10h1M9 10h4M18 10h2M3 11h1M12 11h6M4 12h2M17 12h4M34 12h1M5 13h4M15 13h9M35 13h1M6 14h18M36 14h1M7 15h16M27 15h3M36 15h1M8 16h24M37 16h1M10 17h11M24 17h7M37 17h1M12 18h8M23 18h7M38 18h1M13 19h16M38 19h1M14 20h15M16 21h12M18 22h4M24 22h3M22 24h1M22 30h2M21 31h1M23 31h1M20 32h1M22 32h1M19 33h1M22 33h1M17 34h1M19 34h1M23 34h1M16 35h4M24 35h1M16 36h2M24 36h1M16 37h3M24 37h1M16 38h4M16 39h7M16 40h4M22 40h1M17 41h3M24 41h1M19 42h1M24 42h1M20 43h1M25 43h1M19 44h2M25 44h2M19 45h3M25 45h2M19 46h3M25 46h2M20 47h1M24 47h3M20 48h1M23 48h3M22 49h4M23 50h4M23 51h5M22 52h9M21 53h7M29 53h1M19 54h8M19 55h7M28 55h1M52 55h5M19 56h6M27 56h2M50 56h2M57 56h2M21 57h4M28 57h2M45 57h3M49 57h1M59 57h1M22 58h3M29 58h1M44 58h1M48 58h1M59 58h1M66 58h3M78 58h1M22 59h3M30 59h1M43 59h1M60 59h1M64 59h2M77 59h1M24 60h1M32 60h2M42 60h1M61 60h3M76 60h1M25 61h1M34 61h1M41 61h1M75 61h1M24 62h3M35 62h1M41 62h1M74 62h1M23 63h7M35 63h1M40 63h1M74 63h1M23 64h8M35 64h1M40 64h1M63 64h3M71 64h1M22 65h10M34 65h2M40 65h1M63 65h4M22 66h13M40 66h1M44 66h3M51 66h2M60 66h10M23 67h10M39 67h1M44 67h4M50 67h4M59 67h7M25 68h7M37 68h1M39 68h1M43 68h11M59 68h1M62 68h3M27 69h6M35 69h4M42 69h13M58 69h1M28 70h22M51 70h7M27 71h22M51 71h7M28 72h19M48 72h1M52 72h6M33 73h13M53 73h4M32 74h14M56 74h1" />
<path stroke="#ff9c18" d="M19 7h6M24 8h5M2 9h1M5 9h1M21 9h1M28 9h3M8 10h1M20 10h1M30 10h3M4 11h1M11 11h1M18 11h1M32 11h2M6 12h1M16 12h1M21 12h1M33 12h1M9 13h1M14 13h1M24 13h1M34 13h1M35 14h1M23 15h1M26 15h1M30 15h1M21 17h3M20 18h3M36 20h1M35 21h2M36 22h1M22 31h1M21 32h1M20 33h1M20 34h1M22 34h1M23 35h1M18 36h2M20 38h1M20 40h2M20 41h1M23 41h1M20 42h1M21 44h1M24 44h1M24 46h1M21 47h1M23 47h1M21 48h2M28 53h1M27 54h1M26 55h1M25 56h1M27 57h1M58 57h1M75 57h3M28 58h1M47 58h1M73 58h2M29 59h1M69 59h1M72 59h1M25 60h1M70 60h2M26 61h1M33 61h1M27 62h1M31 62h4M30 63h5M63 63h2M31 64h4M66 64h1M32 65h2M45 65h2M51 65h2M62 65h1M67 65h1M47 66h1M50 66h1M53 66h1M59 66h1M33 67h2M43 67h1M48 67h1M32 68h5M42 68h1M54 68h1M58 68h1M33 69h2M41 69h1M55 69h3M50 70h1M49 71h2M47 72h1M49 72h3M46 73h3M50 73h3M46 74h10" />
<path stroke="#ee3131" d="M5 8h1M0 10h2M2 11h1M3 12h1M4 13h1M5 14h1M5 15h2M6 16h2M6 17h4M7 18h5M8 19h5M10 20h4M38 20h1M11 21h5M37 21h1M8 22h10M22 22h2M27 22h1M37 22h1M6 23h17M24 23h3M36 23h1M7 24h15M9 25h13M10 26h12M10 27h11M12 28h7M23 38h1M23 39h1M23 40h1M17 42h2M19 43h1M18 44h1M18 45h1M18 46h1M19 47h1M19 48h1M20 49h2M20 50h3M19 51h4M28 51h1M19 52h3M18 53h3M30 53h1M18 54h1M29 54h1M18 55h1M18 56h1M19 57h2M21 58h1M21 59h1M48 59h1M22 60h2M31 60h1M24 61h1M23 62h1M75 62h1M22 63h1M22 64h1M73 64h2M70 65h5M70 66h1M72 66h2M35 67h2M66 67h5M60 68h2M65 68h5M59 69h7M67 69h2M58 70h8M58 71h9M27 72h1M58 72h10M29 73h4M49 73h1M57 73h11M57 74h10" />
<path stroke="#ffde52" d="M20 8h4M3 9h2M22 9h6M3 10h5M21 10h9M5 11h6M19 11h13M7 12h9M22 12h11M10 13h4M25 13h9M24 14h11M24 15h2M31 15h2M35 15h1M36 16h1M36 17h1M36 18h2M36 19h2M37 20h1M21 33h1M21 34h1M20 35h3M20 36h4M19 37h5M21 38h2M21 41h2M21 42h3M21 43h4M22 44h2M22 45h3M22 46h2M22 47h1M28 54h1M27 55h1M26 56h1M52 56h5M25 57h2M50 57h8M25 58h3M45 58h2M49 58h10M75 58h3M25 59h4M44 59h4M49 59h11M66 59h3M73 59h4M26 60h5M43 60h18M64 60h6M72 60h4M27 61h6M42 61h33M28 62h3M42 62h32M41 63h22M65 63h9M41 64h22M67 64h4M72 64h1M41 65h4M47 65h4M53 65h9M68 65h2M41 66h3M48 66h2M54 66h5M40 67h3M49 67h1M54 67h5M40 68h2M55 68h3M39 69h2" />
<path stroke="#8b5231" d="M33 15h2M29 20h1M28 21h1M28 22h1M37 25h1M38 26h1M39 28h1M15 29h1M39 29h1M37 31h1M43 31h1M38 32h1M40 32h1M44 32h1M44 33h1M44 37h1M41 38h1M43 38h1M40 39h1M39 40h1M38 41h1M32 42h1M35 42h1M37 42h1M32 43h1M35 43h1M32 44h1M32 45h1M32 46h1M32 47h1M15 48h1M14 49h1M33 49h1M33 50h1M34 52h1M36 54h1M37 55h1M38 56h1M14 57h1M13 58h1M41 58h1M15 64h1M15 65h1M15 67h1M16 68h1M13 71h1M16 71h2M14 72h1M18 73h1" />
<path stroke="#733131" d="M32 16h1M31 17h1M30 18h1M29 19h1M34 19h1M32 20h3M33 21h1M31 22h3M32 23h2M32 24h1M37 28h1M14 29h1M14 30h1M14 31h1M13 32h1M13 36h2M14 38h2M15 40h1M15 41h2M16 42h1M16 43h1M16 44h1M15 45h2M15 46h1M15 47h1M14 56h1M40 58h1M13 59h1M42 59h1M15 66h1M16 69h1M13 70h1M14 74h1" />
<path stroke="#e6cd8b" d="M33 16h2M32 17h3M31 18h3M30 19h3M30 20h2M29 21h3M29 22h2M23 23h1M27 23h4M35 23h1M23 24h8M34 24h1M22 25h10M33 25h2M22 26h14M21 27h15M19 28h18M16 29h21M15 30h7M24 30h13M15 31h6M24 31h13M14 32h6M23 32h15M14 33h5M23 33h19M14 34h3M18 34h1M24 34h19M14 35h2M25 35h18M15 36h1M25 36h18M15 37h1M25 37h18M24 38h17M24 39h16M24 40h8M33 40h6M25 41h7M33 41h4M25 42h7M33 42h2M17 43h2M26 43h6M17 44h1M27 44h4M17 45h1M27 45h4M16 46h2M27 46h4M16 47h3M27 47h3M16 48h3M26 48h4M15 49h5M26 49h4M15 50h5M27 50h3M15 51h4M29 51h1M15 52h4M15 53h3M15 54h3M30 54h1M15 55h3M29 55h3M15 56h3M29 56h4M15 57h4M30 57h4M14 58h7M30 58h5M14 59h7M31 59h6M14 60h8M34 60h6M14 61h10M35 61h6M14 62h9M36 62h5M14 63h8M36 63h4M14 64h1M16 64h6M36 64h4M14 65h1M16 65h6M36 65h4M14 66h1M16 66h6M35 66h5M14 67h1M16 67h7M37 67h2M14 68h1M17 68h8M38 68h1M14 69h2M17 69h10M14 70h2M17 70h11M14 71h2M18 71h9M15 72h2M18 72h9M15 73h2M19 73h10M16 74h2M20 74h12" />
<path stroke="#000000" d="M35 16h1M35 17h1M34 18h2M33 19h1M35 19h1M35 20h1M32 21h1M34 21h1M34 22h2M31 23h1M34 23h1M31 24h1M33 24h1M32 25h1M38 27h1M37 29h1M37 30h3M38 31h2M39 32h1M13 33h1M13 34h1M44 34h1M13 35h1M44 35h1M44 36h1M14 37h1M43 37h1M42 38h1M15 39h1M37 41h1M36 42h1M33 43h2M33 44h1M14 50h1M14 51h1M14 52h1M14 53h1M14 54h1M14 55h1M13 60h1M13 61h1M13 62h1M13 63h1M13 64h1M13 65h1M13 66h1M13 67h1M13 68h1M13 69h1M16 70h1M17 72h1M14 73h1M17 73h1M15 74h1M18 74h2" />
<path stroke="#ffeecd" d="M35 24h2M35 25h2M36 26h2M36 27h1M40 30h1M40 31h3M41 32h3M42 33h2M43 34h1M43 35h1M43 36h1M31 44h1M31 45h1M31 46h1M30 47h2M30 48h3M30 49h3M30 50h3M30 51h4M31 52h3M31 53h4M31 54h5M32 55h5M33 56h5M34 57h5M35 58h5M37 59h4M40 60h2" />
<path stroke="#c59c6a" d="M37 24h1M37 27h1M40 29h1M41 30h2M32 40h1M32 41h1M33 48h1M34 51h1M35 53h1M39 57h1M41 59h1M15 68h1" />
<path stroke="#ffffff" d="M38 28h1" />
<path stroke="#c5c5c5" d="M38 29h1" />
</svg>