<svg xmlns="http://www.w3.org/2000/svg" viewBox="0 -0.5 80 80" shape-rendering="crispEdges">
<metadata>Made with Pixels to Svg https://codepen.io/shshaw/pen/XbxvNj</metadata>
<path stroke="#524a4a" d="M40 35h5M38 36h3M45 36h2M15 37h2M41 37h1M43 37h2M47 37h1M14 38h1M18 38h1M37 38h1M40 38h1M48 38h1M13 39h1M21 39h1M40 39h1M43 39h2M48 39h1M22 40h1M44 40h1M17 41h1M24 41h1M17 42h3M17 43h5M18 44h6M40 44h1M21 45h4M41 45h1M14 46h2M22 46h4M43 46h1M13 47h1M16 47h1M23 47h4M42 47h1M23 48h4M24 49h2M16 50h2M24 50h2M16 51h4M24 51h1M16 52h5M23 52h2M17 53h7M19 54h5M21 55h3M51 59h1M58 59h1M48 62h1M54 62h4M59 63h1M52 64h1M61 64h1M61 65h2M52 66h1M62 66h1M48 67h1M50 70h1M52 71h1" />
<path stroke="#8b8b8b" d="M41 36h1M37 37h2M45 37h1M47 38h1M39 39h1M41 39h1M38 40h2M43 40h1M45 40h1M47 40h1M18 41h1M39 41h2M44 41h4M20 42h1M41 42h5M22 43h1M24 44h1M41 44h2M25 45h1M26 46h1M28 46h1M40 46h1M42 46h1M27 47h1M18 50h1M20 51h2" />
<path stroke="#b4b4b4" d="M42 36h1M44 36h1M46 37h1M39 38h1M44 38h1M19 39h1M38 39h1M45 39h3M17 40h5M40 40h2M46 40h1M19 41h5M41 41h3M21 42h5M23 43h4M25 44h3M26 45h2M40 45h1M27 46h1M41 46h1M17 48h1M16 49h4M19 50h3M52 59h6M50 60h11M49 61h14M49 62h5M58 62h7M48 63h5M60 63h5M48 64h4M62 64h2M48 65h4M48 66h4M49 67h4M49 68h5M50 69h6M51 70h7M53 71h7" />
<path stroke="#d5d5d5" d="M43 36h1M38 38h1M45 38h2M42 39h1M42 40h1" />
<path stroke="#393131" d="M17 37h1M19 38h1M20 39h1M23 40h1M25 41h1M26 42h1M27 43h1M28 44h1M20 45h1M28 45h1M21 46h1M22 47h1M23 49h1M23 50h1M22 51h2M21 52h2M23 56h1M52 58h2M58 58h1M50 59h1M59 59h3M49 60h1M61 60h3M48 61h1M63 61h3M65 62h2M47 63h1M53 63h6M67 63h2M47 64h1M53 64h2M58 64h3M69 64h1M52 65h2M60 65h1M48 68h1M54 68h3M49 69h1M56 69h3M49 70h1M58 70h3M50 71h2M60 71h3" />
<path stroke="#ffffff" d="M39 37h2" />
<path stroke="#101010" d="M42 37h1M41 38h3M37 39h1M13 40h1M37 40h1M48 40h1M13 41h1M38 41h1M48 41h1M13 42h1M39 42h2M46 42h2M14 43h2M40 43h6M16 44h2M43 44h1M18 45h2M39 45h1M42 45h2M20 46h1M39 46h1M17 47h1M21 47h1M40 47h2M12 48h1M18 48h2M22 48h1M12 49h1M20 49h3M12 50h1M22 50h1M50 50h1M12 51h1M51 51h1M13 52h2M51 52h1M14 53h3M52 53h1M16 54h3M52 54h1M18 55h3M52 55h1M20 56h3M24 56h1M52 56h1M22 57h3M52 57h1M24 58h1M54 58h4M24 59h1M24 60h1M24 61h1M24 62h2M25 63h1M25 64h2M55 64h3M26 65h1M47 65h1M54 65h1M57 65h3M69 65h1M26 66h2M47 66h1M53 66h1M59 66h3M69 66h1M27 67h2M47 67h1M53 67h1M61 67h3M68 67h2M28 68h2M47 68h1M63 68h3M68 68h1M29 69h3M46 69h3M65 69h3M31 70h3M44 70h2M48 70h1M33 71h11M49 71h1" />
<path stroke="#52cdf6" d="M15 38h3M15 39h4" />
<path stroke="#2983ac" d="M14 39h1M14 40h3M14 41h3M14 42h3M16 43h1" />
<path stroke="#8bb4a4" d="M35 43h3M35 46h4M35 47h5M43 47h2M48 47h1M34 48h12M49 48h1M34 49h13M34 50h14M33 51h15M32 52h17M27 53h22M27 54h23M26 55h24M26 56h24M26 57h25M25 58h26M25 59h25M25 60h24M25 61h23M26 62h22M26 63h21M27 64h20M27 65h20M28 66h19M29 67h18M30 68h17M32 69h13M34 70h9" />
<path stroke="#5a8362" d="M38 43h2M32 44h3M39 44h1M44 44h1M30 45h2M45 45h2M29 46h1M47 46h1M28 47h1M27 48h1M26 49h1M50 49h1M26 50h1M25 51h1M25 52h1M24 53h1M51 53h1M24 54h1M24 55h1M45 69h1M43 70h1" />
<path stroke="#deffe6" d="M35 44h4M32 45h4M44 45h1M30 46h4M44 46h3M29 47h5M45 47h3M28 48h6M46 48h3M27 49h7M47 49h3M27 50h6M48 50h2M26 51h7M48 51h3M26 52h5M49 52h2M25 53h2M49 53h2M25 54h1M50 54h2M25 55h1M51 55h1M25 56h1M51 56h1M51 57h1M51 58h1" />
<path stroke="#b4d5bd" d="M36 45h3M34 46h1M34 47h1M33 50h1M31 52h1M26 54h1M50 55h1M50 56h1M25 57h1" />
<path stroke="#ff8b4a" d="M14 47h2M13 48h4M65 63h2M64 64h4M64 65h4M66 66h1" />
<path stroke="#ee1800" d="M13 49h3M13 50h3M13 51h3M15 52h1M68 64h1M63 65h1M68 65h1M63 66h3M67 66h2M64 67h4M66 68h2" />
</svg>