<svg xmlns="http://www.w3.org/2000/svg" viewBox="0 -0.5 32 32" shape-rendering="crispEdges">
<metadata>Made with Pixels to Svg https://codepen.io/shshaw/pen/XbxvNj</metadata>
<path stroke="#202020" d="M15 7h5M21 7h3M13 8h2M20 8h1M24 8h1M11 9h2M24 9h1M10 10h1M24 10h1M9 11h1M23 11h1M8 12h1M24 12h1M8 13h1M24 13h1M7 14h1M24 14h1M7 15h1M24 15h1M6 16h1M24 16h1M6 17h1M23 17h1M6 18h1M23 18h1M6 19h1M22 19h1M6 20h1M22 20h1M6 21h1M21 21h1M7 22h1M20 22h1M7 23h1M18 23h2M8 24h2M16 24h2M10 25h6" />
<path stroke="#299c29" d="M15 8h1M13 9h1M11 10h1M10 11h1M9 12h1M12 12h1M11 13h1M8 14h1M10 14h1M7 16h1M9 16h1M23 16h1M17 17h1M8 18h1M16 18h1M22 18h1M8 19h1M15 19h1M8 20h1M14 20h1M21 20h1M7 21h2M12 21h1M9 22h2M19 22h1M8 23h1M17 23h1M10 24h1M15 24h1" />
<path stroke="#31c539" d="M16 8h1M19 8h1M22 8h2M21 9h1M23 9h1M12 10h1M22 10h1M11 11h2M10 12h2M23 12h1M9 13h2M9 14h1M8 15h2M8 16h1M7 17h2M18 17h1M7 18h1M17 18h3M7 19h1M16 19h6M7 20h1M15 20h6M13 21h8M8 22h1M11 22h8M9 23h8M11 24h4" />
<path stroke="#52ee62" d="M17 8h2M14 9h7M13 10h2M20 10h2M20 11h3M20 12h3M22 13h2M22 14h2M19 15h5M19 16h4M19 17h4M20 18h2" />
<path stroke="#296a29" d="M21 8h1M22 9h1M23 10h1" />
<path stroke="#83ac31" d="M15 10h5M13 11h2M19 14h1M18 16h1" />
<path stroke="#94c539" d="M15 11h5M14 12h2M18 12h2M18 13h2M18 14h1M17 15h2" />
<path stroke="#b4f69c" d="M13 12h1M12 13h2M11 14h2M10 15h2M10 16h2M16 16h2M9 17h2M15 17h2M9 18h2M14 18h2M9 19h2M13 19h2M9 20h5M9 21h3" />
<path stroke="#837362" d="M16 12h1M14 13h1M15 14h2M12 15h1M13 16h2M11 17h1M12 18h1" />
<path stroke="#6a5a52" d="M17 12h1M15 13h3M13 14h2M17 14h1M13 15h4M12 16h1M15 16h1M12 17h3M11 18h1M13 18h1M11 19h2" />
<path stroke="#d5ffc5" d="M20 13h2M20 14h2" />
</svg>