<svg xmlns="http://www.w3.org/2000/svg" viewBox="0 -0.5 32 32" shape-rendering="crispEdges">
<metadata>Made with Pixels to Svg https://codepen.io/shshaw/pen/XbxvNj</metadata>
<path stroke="#202020" d="M22 5h2M17 6h1M19 6h1M21 6h1M24 6h1M14 7h1M16 7h1M18 7h1M20 7h1M25 7h1M12 8h2M15 8h1M25 8h1M11 9h1M24 9h1M10 10h1M23 10h1M9 11h1M24 11h1M9 12h1M24 12h1M8 13h1M25 13h1M9 14h1M24 14h1M8 15h1M25 15h1M8 16h1M24 16h1M6 17h2M24 17h1M5 18h1M23 18h1M6 19h3M23 19h1M9 20h1M22 20h1M8 21h1M21 21h1M8 22h1M11 22h1M17 22h1M19 22h2M7 23h1M9 23h2M12 23h1M15 23h2M18 23h1M7 24h2M12 24h1M14 24h1M12 25h1M14 25h1M13 26h1" />
<path stroke="#f6f68b" d="M22 6h2M23 7h2M10 17h2M6 18h8M12 19h2M13 20h2M13 21h2M9 22h1M13 22h1M8 23h1M13 23h1M13 24h1M13 25h1" />
<path stroke="#948b31" d="M17 7h1M16 8h1M18 8h1M20 8h1M13 9h2M12 10h2M11 11h2M10 12h4M23 12h1M9 13h1M11 13h4M22 13h1M24 13h1M10 14h1M12 14h2M15 14h1M21 14h3M11 15h7M19 15h2M22 15h1M24 15h1M13 16h10M14 17h7M23 17h1M15 18h1M17 18h1M19 18h1M21 18h1" />
<path stroke="#bdb431" d="M19 7h1M14 8h1M17 8h1M19 8h1M15 9h7M14 10h9M13 11h11M14 12h9M15 13h7M23 13h1M14 14h1M16 14h5M18 15h1M21 15h1" />
<path stroke="#bdb47b" d="M21 7h2M22 8h3M23 9h1M9 17h1M12 17h1M14 19h1M10 20h1M9 21h3M10 22h1M14 22h1" />
<path stroke="#7b6a31" d="M21 8h1M22 9h1M11 10h1M10 13h1M11 14h1M10 15h1M23 15h1M9 16h1M12 16h1M23 16h1M8 17h1M21 17h2M16 18h1M18 18h1M20 18h1M22 18h1M16 19h5M16 20h2M19 20h1M16 21h1M20 21h1M15 22h1M18 22h1M14 23h1" />
<path stroke="#625229" d="M12 9h1M10 11h1M9 15h1M10 16h2M13 17h1M14 18h1M15 19h1M21 19h2M15 20h1M18 20h1M20 20h2M15 21h1M17 21h3M16 22h1" />
<path stroke="#948362" d="M9 19h3M11 20h2M12 21h1M12 22h1" />
</svg>