<svg xmlns="http://www.w3.org/2000/svg" viewBox="0 -0.5 32 32" shape-rendering="crispEdges">
<metadata>Made with Pixels to Svg https://codepen.io/shshaw/pen/XbxvNj</metadata>
<path stroke="#202020" d="M17 7h3M15 8h2M20 8h1M12 9h3M21 9h1M10 10h2M21 10h1M9 11h1M22 11h1M8 12h1M23 12h1M8 13h1M24 13h1M7 14h1M24 14h1M7 15h1M25 15h1M7 16h1M25 16h1M7 17h1M25 17h1M7 18h1M25 18h1M8 19h1M25 19h1M8 20h1M24 20h1M9 21h1M24 21h1M10 22h1M23 22h1M11 23h3M21 23h2M14 24h7" />
<path stroke="#e6eeff" d="M17 8h3M18 9h3" />
<path stroke="#9ca4bd" d="M15 9h1M20 10h1M15 11h1M17 12h1" />
<path stroke="#525283" d="M16 9h1M14 10h1M16 10h2M17 11h4M16 12h1M21 12h1M17 13h4M19 15h1M14 18h1M23 19h1M12 20h1M11 22h1M18 22h1M22 22h1M14 23h1M20 23h1" />
<path stroke="#bdc5ff" d="M17 9h1M15 10h1M18 10h2M16 11h1M21 11h1M18 12h3" />
<path stroke="#52a4f6" d="M12 10h2M10 11h2M9 12h1M9 13h1M16 13h1M22 13h1M9 14h1M13 14h1M16 14h8M8 15h3M15 15h4M20 15h2M23 15h2M9 16h16M8 17h8M17 17h7M9 18h5M15 18h8M10 19h11M13 20h5" />
<path stroke="#5ad5ff" d="M12 11h3M11 12h5M10 13h6M10 14h3M14 14h2M12 15h3" />
<path stroke="#6a6abd" d="M10 12h1M8 14h1M11 15h1M22 15h1M8 16h1M16 17h1M8 18h1M24 18h1M22 19h1M24 19h1M9 20h2M19 20h5M10 21h14M12 22h6M19 22h3M15 23h5" />
<path stroke="#527bcd" d="M22 12h1M21 13h1M23 13h1M24 17h1M23 18h1M9 19h1M21 19h1M11 20h1M18 20h1" />
</svg>