<svg xmlns="http://www.w3.org/2000/svg" viewBox="0 -0.5 32 32" shape-rendering="crispEdges">
<metadata>Made with Pixels to Svg https://codepen.io/shshaw/pen/XbxvNj</metadata>
<path stroke="#202020" d="M14 6h3M13 7h1M17 7h1M13 8h1M18 8h4M14 9h1M22 9h1M12 10h3M22 10h3M11 11h1M25 11h1M10 12h1M25 12h1M10 13h1M25 13h1M9 14h1M23 14h2M9 15h1M22 15h1M9 16h1M23 16h1M9 17h1M23 17h1M9 18h1M23 18h1M8 19h1M22 19h1M8 20h1M22 20h1M7 21h1M21 21h1M6 22h1M19 22h2M6 23h1M17 23h2M6 24h1M14 24h3M7 25h7" />
<path stroke="#73de52" d="M14 7h3M14 8h2M18 10h2M18 11h3M23 11h2M19 12h1M22 12h2" />
<path stroke="#4aac41" d="M16 8h1M15 9h3M20 9h2M16 10h1M17 11h1M17 12h2M21 12h1M24 12h1M20 13h4" />
<path stroke="#316241" d="M17 8h1M18 9h2M17 10h1M20 10h2M16 11h1M21 11h2M20 12h1M22 14h1" />
<path stroke="#626a41" d="M15 10h1M14 11h2M16 12h1M17 13h3M24 13h1M19 14h3M7 22h1M7 24h1M13 24h1" />
<path stroke="#ffcd9c" d="M12 11h2M11 12h1M14 12h2M16 13h1M17 14h2M11 15h2M17 15h3M10 16h2M17 16h3M16 17h2M16 18h1M10 19h1M14 19h2M9 20h5M8 21h4M8 22h2" />
<path stroke="#ffeea4" d="M12 12h2M11 13h5M10 14h7M10 15h1M13 15h4M14 16h3M12 17h4M11 18h5M11 19h3" />
<path stroke="#ffbd83" d="M20 15h1M18 17h1M14 20h1M12 21h1M10 22h1" />
<path stroke="#e69c73" d="M21 15h1M12 16h2M20 16h3M19 17h1M21 17h2M18 18h2M21 18h2M9 19h1M17 19h3M21 19h1M15 20h1M17 20h2M20 20h2M13 21h2M16 21h3M20 21h1M11 22h3M15 22h3M7 23h6M15 23h2M8 24h3" />
<path stroke="#bd7352" d="M10 17h2M20 17h1M10 18h1M17 18h1M20 18h1M16 19h1M20 19h1M16 20h1M19 20h1M15 21h1M19 21h1M14 22h1M18 22h1M13 23h2M11 24h2" />
</svg>