<svg xmlns="http://www.w3.org/2000/svg" viewBox="0 -0.5 32 32" shape-rendering="crispEdges">
<metadata>Made with Pixels to Svg https://codepen.io/shshaw/pen/XbxvNj</metadata>
<path stroke="#202020" d="M13 5h6M11 6h2M19 6h2M9 7h2M21 7h2M8 8h1M23 8h1M7 9h1M24 9h1M7 10h1M24 10h1M6 11h1M25 11h1M6 12h1M25 12h1M5 13h1M26 13h1M5 14h1M26 14h1M5 15h1M26 15h1M5 16h1M26 16h1M5 17h1M26 17h1M5 18h1M26 18h1M6 19h1M25 19h1M6 20h1M25 20h1M7 21h1M24 21h1M7 22h1M24 22h1M8 23h1M23 23h1M9 24h2M21 24h2M11 25h2M19 25h2M13 26h6" />
<path stroke="#9cd55a" d="M13 6h2M11 7h2M9 8h3M17 8h3M15 9h5M11 11h1M18 12h1M6 13h2M13 13h1M17 13h2M6 14h2M12 14h2M6 15h3M10 15h1M13 15h2M6 16h1M8 16h2M13 16h1M10 19h1M10 21h1M13 21h1M10 22h1" />
<path stroke="#73ac31" d="M15 6h1M17 7h4M12 8h1M21 8h1M8 9h4M15 10h5M7 12h2M14 12h1M8 13h1M14 13h1M23 13h1M14 14h1M23 14h1M11 15h2M23 15h3M7 16h1M10 16h1M12 16h1M25 16h1M6 17h1M8 17h2M12 17h1M25 17h1M19 18h1M24 18h2M18 19h2M23 19h2M18 20h2M23 20h2M18 21h2M17 22h4M17 23h6M15 24h1M19 24h2" />
<path stroke="#ffc5ac" d="M16 6h3M8 10h2M7 11h2M15 11h4M15 12h3M15 13h2M15 14h1M11 16h1M7 17h1M10 17h2M9 18h3" />
<path stroke="#b4ee83" d="M13 7h3M15 8h1M12 12h2M11 13h2M10 14h2M9 15h1" />
<path stroke="#8bc54a" d="M16 7h1M13 8h2M16 8h1M20 8h1M14 9h1M20 9h1M20 10h1M12 11h2M20 11h4M11 12h1M22 12h2M10 13h1M8 14h2M14 16h6M13 17h7M18 18h1M11 19h1M14 20h2M14 21h1M11 22h1M11 23h1M14 23h1M14 24h1" />
<path stroke="#f6ac94" d="M22 8h1M22 9h2M19 12h1M19 13h3M16 14h6M20 15h2M21 16h1M21 17h1M7 18h1M7 19h3M12 19h5M8 20h6M8 21h2M11 21h2M9 22h1M12 22h1" />
<path stroke="#ffdecd" d="M12 9h2M10 10h5M9 11h2M14 11h1M9 12h2M9 13h1" />
<path stroke="#5a9439" d="M21 9h1M21 10h3M19 11h1M24 11h1M20 12h2M24 12h1M22 13h1M24 13h1M22 14h1M24 14h2M15 15h5M22 15h1M20 16h1M22 16h3M20 17h1M24 17h1M8 18h1M12 18h6M20 18h1M23 18h1M17 19h1M20 19h1M17 20h1M20 20h1M17 21h1M20 21h1M23 21h1M16 22h1M21 22h2M10 23h1M12 23h1M16 23h1M17 24h2" />
<path stroke="#de947b" d="M25 13h1M22 17h2M6 18h1M21 18h2M21 19h2M7 20h1M16 20h1M21 20h2M15 21h2M21 21h2M8 22h1M13 22h3M23 22h1M9 23h1M13 23h1M15 23h1M11 24h3M16 24h1M13 25h6" />
</svg>