<svg xmlns="http://www.w3.org/2000/svg" viewBox="0 -0.5 96 96" shape-rendering="crispEdges">
<metadata>Made with Pixels to Svg https://codepen.io/shshaw/pen/XbxvNj</metadata>
<path stroke="#624141" d="M23 26h3M26 27h2M28 28h1M29 29h1M20 35h1M20 36h1M36 36h1M37 37h1M21 38h1M22 39h1M19 40h3M18 41h1M23 41h2M40 41h1M18 42h1M17 43h1M17 44h1M46 44h8M45 45h1M54 45h12M42 46h1M44 46h1M66 46h11M43 47h1M77 47h2M19 48h1M42 48h1M19 49h1M23 49h5M29 50h6M41 50h1M36 51h6M18 52h1M40 52h1M42 52h1M39 53h1M43 53h1M39 54h1M44 54h1M38 55h1M45 55h1M18 56h1M46 56h1M19 57h1M37 57h1M23 58h3M36 58h1M47 58h1M22 59h1M35 59h1M48 59h1M65 59h1M34 60h1M49 60h1M66 60h2M33 61h1M50 61h1M67 61h2M51 62h1M31 63h1M52 63h1M30 64h1M53 64h1M29 65h1M54 65h1M54 66h2M44 67h1M54 67h1M56 67h1M55 68h1M43 69h1M45 69h1M55 69h1M37 71h1M46 71h1" />
<path stroke="#9c6a39" d="M45 26h2M47 27h1M45 28h3M44 29h1M48 29h1M46 30h2M49 30h1M45 31h1M48 31h2M44 32h1M62 32h5M44 33h1M47 33h2M60 33h2M64 33h1M67 33h1M46 34h1M59 34h1M61 34h1M65 34h1M30 35h2M45 35h1M58 35h1M62 35h1M65 35h1M29 36h1M57 36h3M63 36h1M28 37h1M30 37h1M32 37h1M57 37h1M60 37h1M63 37h1M28 38h1M56 38h1M61 38h1M63 38h2M28 39h1M34 39h1M61 39h1M30 40h1M36 40h1M60 40h1M31 41h1M36 41h1M35 42h1M32 43h3M29 45h1M57 47h1M61 47h1M55 48h1M63 48h2M54 49h1M57 49h1M61 49h1M65 49h1M54 50h1M62 50h2M66 50h1M54 51h1M58 51h1M66 51h1M55 52h1M60 52h3M66 52h1M56 53h2M65 53h1M58 54h2M62 54h2M54 56h2M53 57h1M53 58h1M58 59h1M54 60h1M58 60h1M56 61h2" />
<path stroke="#000000" d="M23 27h1M44 27h1M22 28h1M44 28h1M22 29h1M43 29h1M21 30h1M43 30h1M21 31h1M43 31h1M21 32h1M43 32h1M49 32h1M20 33h1M43 33h1M49 33h1M20 34h1M44 34h1M67 34h1M44 35h1M67 35h1M66 36h1M20 37h1M66 37h1M20 38h1M38 38h1M65 38h1M21 39h1M39 39h1M56 39h1M63 39h2M22 40h1M40 40h1M56 40h1M61 40h2M57 41h4M41 42h1M58 42h1M42 43h1M58 43h1M42 44h1M58 44h1M17 45h1M42 45h1M17 46h1M17 47h1M18 48h1M78 48h1M20 49h3M78 49h1M22 50h3M78 50h1M20 51h2M78 51h1M19 52h1M77 52h1M18 53h1M77 53h1M18 54h1M76 54h1M18 55h1M76 55h1M75 56h1M74 57h1M19 58h1M73 58h1M20 59h2M24 59h1M36 59h1M66 59h7M23 60h1M36 60h1M22 61h1M22 62h1M32 62h1M35 62h1M68 62h1M23 63h1M32 63h4M68 63h1M24 64h1M35 64h1M67 64h1M25 65h1M66 65h1M26 66h3M34 66h1M64 66h2M34 67h1M62 67h2M34 68h1M44 68h1M57 68h1M60 68h2M34 69h1M58 69h2M35 70h2M43 70h1M45 70h1M55 70h1M38 71h5M45 71h1M55 71h1M46 72h9" />
<path stroke="#945208" d="M24 27h2M23 28h5M23 29h6M22 30h6M30 30h1M22 31h5M31 31h1M22 32h5M32 32h1M21 33h5M33 33h1M21 34h5M34 34h1M21 35h5M29 35h1M32 35h1M35 35h1M21 36h5M28 36h1M21 37h5M31 37h1M22 38h3M30 38h1M33 38h1M23 39h2M36 39h1M23 40h2M28 40h1M34 40h1M39 40h1M19 41h4M33 41h1M19 42h4M24 42h2M36 42h1M40 42h1M18 43h4M31 43h1M35 43h1M41 43h1M18 44h4M26 44h3M18 45h4M25 45h1M30 45h1M46 45h2M18 46h4M25 46h1M31 46h1M18 47h4M26 47h1M31 47h1M42 47h1M56 47h1M62 47h1M75 47h2M20 48h2M28 48h3M74 48h4M28 49h1M41 49h2M58 49h1M60 49h1M74 49h4M28 50h1M35 50h1M57 50h1M74 50h4M22 51h2M35 51h1M63 51h1M73 51h5M20 52h3M73 52h4M19 53h4M72 53h5M19 54h4M64 54h1M72 54h4M19 55h4M71 55h5M19 56h5M53 56h1M56 56h1M70 56h5M20 57h4M46 57h2M57 57h1M69 57h5M20 58h3M35 58h1M58 58h1M67 58h6M34 59h1M47 59h1M53 59h1M64 59h1M24 60h2M48 60h1M65 60h1M23 61h3M49 61h1M55 61h1M58 61h1M64 61h3M23 62h4M50 62h1M62 62h6M24 63h4M51 63h1M61 63h7M25 64h5M52 64h1M59 64h8M26 65h3M53 65h1M58 65h8M35 66h2M44 66h1M53 66h1M56 66h8M35 67h4M51 67h3M57 67h5M35 68h9M45 68h10M58 68h2M35 69h8M46 69h9M37 70h6M46 70h9M47 71h8" />
<path stroke="#cdac31" d="M45 27h1M45 29h1M44 30h2M44 31h1M45 32h2M45 33h2M62 33h1M45 34h1M47 34h2M60 34h1M46 35h1M66 35h1M65 36h1M62 37h1M64 37h2M57 38h1M60 38h1M62 38h1M57 39h4M62 39h1M57 40h3" />
<path stroke="#ffee73" d="M46 27h1M46 29h2M48 30h1M46 31h2M47 32h2M63 33h1M65 33h2M62 34h3M66 34h1M59 35h3M63 35h2M60 36h3M64 36h1M58 37h2M61 37h1M58 38h2" />
<path stroke="#c58b39" d="M28 30h2M27 31h4M27 32h5M26 33h7M26 34h8M26 35h3M33 35h2M26 36h2M34 36h2M26 37h2M35 37h2M25 38h3M31 38h2M36 38h2M25 39h3M30 39h4M37 39h2M25 40h3M31 40h3M37 40h2M25 41h4M32 41h1M37 41h3M23 42h1M26 42h4M37 42h3M22 43h9M36 43h5M22 44h4M29 44h13M22 45h3M31 45h11M48 45h6M22 46h3M32 46h10M45 46h21M22 47h4M32 47h10M44 47h12M63 47h12M22 48h6M31 48h11M43 48h12M65 48h9M29 49h12M43 49h11M59 49h1M66 49h8M25 50h3M36 50h5M42 50h12M58 50h4M67 50h7M24 51h11M42 51h12M59 51h4M67 51h6M23 52h17M41 52h1M43 52h12M67 52h6M23 53h16M40 53h3M44 53h12M66 53h6M23 54h16M40 54h4M45 54h13M65 54h7M23 55h15M39 55h6M46 55h25M24 56h22M47 56h6M57 56h13M24 57h13M38 57h8M48 57h5M58 57h11M26 58h9M37 58h10M48 58h5M59 58h8M25 59h9M37 59h10M49 59h4M59 59h5M26 60h8M37 60h11M50 60h4M59 60h6M26 61h7M37 61h12M51 61h4M59 61h5M27 62h5M36 62h14M52 62h10M28 63h3M36 63h15M53 63h8M36 64h16M54 64h5M36 65h17M55 65h3M37 66h7M45 66h8M39 67h5M45 67h6" />
<path stroke="#5a5252" d="M49 34h4M47 35h2M53 35h2M45 36h2M55 36h1M44 37h1M56 37h1M43 38h1M42 39h1M41 40h1M41 41h1M35 61h2M34 65h2" />
<path stroke="#ac628b" d="M49 35h1M52 35h1M45 37h1M53 37h2M44 38h1M51 38h5M43 39h2M46 39h1M50 39h6M42 40h2M45 40h1M47 40h1M49 40h7M42 41h3M46 41h1M48 41h9M42 42h16M43 43h15M43 44h3M54 44h4M43 45h2M43 46h1M35 60h1M34 61h1M33 62h2" />
<path stroke="#d594c5" d="M50 35h2M47 36h1M51 36h4M46 37h1M51 37h2M55 37h1M45 38h2M50 38h1M45 39h1M47 39h3M44 40h1M46 40h1M48 40h1M45 41h1M47 41h1" />
<path stroke="#d53962" d="M30 36h4M29 37h1M33 37h2M29 38h1M34 38h2M29 39h1M35 39h1M29 40h1M35 40h1M29 41h2M34 41h2M30 42h5M26 45h3M26 46h5M27 47h4M58 47h3M56 48h7M55 49h2M62 49h3M55 50h2M64 50h2M55 51h3M64 51h2M56 52h4M63 52h3M58 53h7M60 54h2M54 57h3M54 58h4M54 59h4M55 60h3" />
<path stroke="#e6c5d5" d="M48 36h3M47 37h4M47 38h3" />
</svg>