<svg xmlns="http://www.w3.org/2000/svg" viewBox="0 -0.5 96 96" shape-rendering="crispEdges">
<metadata>Made with Pixels to Svg https://codepen.io/shshaw/pen/XbxvNj</metadata>
<path stroke="#947b39" d="M50 23h3M49 24h1M53 24h2M56 24h3M48 25h1M59 25h1M54 29h1M54 30h1M62 30h1M54 31h1M63 31h1M51 32h1M55 32h1M61 32h1M64 32h1M55 33h1M62 33h2M65 33h1M65 34h1M63 36h2M64 37h2M61 38h1M63 38h1M65 38h1M65 39h2M66 40h1M66 41h1M61 42h1M66 42h1M63 43h1M65 43h2M62 44h1M65 44h2M63 45h3M58 47h1M58 49h1M28 60h2M58 60h1M27 61h1M29 61h1M58 61h1M30 62h1M30 63h1M48 64h1M56 64h1M42 65h1M41 66h1" />
<path stroke="#eed594" d="M50 24h3M51 25h4M56 25h3M53 26h1M57 26h3M59 27h1M61 31h2M62 32h2M51 33h1M60 33h2M64 33h1M50 34h1M60 34h4M62 35h3M65 36h1M66 37h1M64 38h1M66 38h1M64 39h1M35 47h1M32 48h1M34 48h2M32 49h2M36 49h1M33 50h1M36 50h1M59 61h1M59 62h2M59 63h2M60 64h1M48 67h1M47 68h3M47 69h3M47 70h3M48 71h1" />
<path stroke="#bda462" d="M49 25h2M49 26h4M55 26h2M49 27h5M55 27h4M49 28h5M55 28h6M50 29h4M55 29h6M50 30h4M55 30h6M51 31h3M55 31h5M52 32h3M56 32h4M52 33h3M56 33h3M51 34h9M50 35h12M49 36h14M49 37h13M49 38h12M49 39h12M63 39h1M50 40h11M63 40h2M51 41h10M63 41h1M53 42h8M54 43h8M55 44h7M56 45h7M57 46h6M57 47h1M59 47h2M31 48h1M51 48h1M55 48h2M31 49h1M42 49h3M50 49h7M30 50h3M41 50h4M49 50h5M56 50h2M30 51h4M37 51h1M39 51h7M48 51h6M56 51h2M30 52h4M37 52h4M43 52h12M56 52h2M30 53h4M36 53h4M44 53h14M29 54h11M43 54h16M29 55h30M29 56h30M29 57h30M29 58h30M29 59h30M30 60h28M59 60h1M28 61h1M30 61h28M28 62h2M31 62h28M28 63h2M32 63h27M28 64h3M35 64h13M49 64h5M57 64h3M28 65h4M38 65h4M43 65h6M50 65h2M56 65h5M28 66h5M42 66h7M55 66h5M29 67h6M42 67h6M49 67h1M53 67h7M29 68h7M41 68h6M53 68h7M29 69h7M41 69h6M54 69h5M30 70h5M41 70h6M41 71h7M49 71h1M42 72h7M43 73h5" />
<path stroke="#6a5a10" d="M55 25h1M54 26h1M60 26h1M54 27h1M60 27h1M54 28h1M60 31h1M60 32h1M59 33h1M64 34h1M65 35h1M66 36h1M62 37h2M67 37h1M48 38h1M62 38h1M67 38h1M48 39h1M61 39h2M68 39h1M49 40h1M61 40h2M68 40h1M61 41h2M62 42h1M62 43h1M63 44h2M67 45h1M30 48h1M57 48h2M30 49h1M57 49h1M29 50h1M58 50h1M59 59h1M60 60h1M60 61h1M61 62h1M28 67h1M37 67h1M51 67h1M28 68h1M36 68h1M52 68h1M28 69h1M36 69h1M59 69h1M35 70h1M42 73h1M48 73h1" />
<path stroke="#181818" d="M48 26h1M48 27h1M48 28h1M61 28h1M49 29h1M61 29h1M49 30h1M61 30h1M50 31h1M50 33h1M49 34h1M49 35h1M48 36h1M48 37h1M65 40h1M42 41h4M49 41h2M65 41h1M68 41h1M43 42h2M51 42h2M68 42h1M53 43h1M68 43h1M54 44h1M68 44h1M67 46h1M66 47h1M64 48h2M59 49h5M29 51h1M58 51h1M29 52h1M58 52h1M29 53h1M58 53h1M28 54h1M59 54h1M28 55h1M59 55h1M28 56h1M59 56h1M28 57h1M59 57h1M28 58h1M59 58h1M28 59h1M27 62h1M27 63h1M61 63h1M27 64h1M31 64h1M61 64h1M27 65h1M32 65h1M49 65h1M55 65h1M61 65h1M27 66h1M33 66h2M49 66h1M53 66h2M60 66h1M35 67h2M41 67h1M50 67h1M52 67h1M60 67h1M37 68h4M50 68h1M60 68h1M40 69h1M50 69h1M53 69h1M29 70h1M40 70h1M50 70h1M54 70h5M30 71h5M40 71h1M50 71h1M41 72h1M49 72h1M41 73h1M49 73h1M42 74h7" />
<path stroke="#fff6bd" d="M67 39h1M67 40h1M67 41h1M67 42h1M67 43h1" />
<path stroke="#295aa4" d="M40 40h8M37 41h3M48 41h1M35 42h2M42 42h1M45 42h1M34 43h1M33 44h1M32 45h1M55 45h1M31 46h1M56 46h1M31 47h1M56 47h1" />
<path stroke="#62a4f6" d="M40 41h2M46 41h2M37 42h5M46 42h2M35 43h12M34 44h13M33 45h13M32 46h14M32 47h3M36 47h9M33 48h1M36 48h8M34 49h2M37 49h4M34 50h2M37 50h2" />
<path stroke="#d5cdde" d="M64 41h1M63 42h3M64 43h1" />
<path stroke="#417bcd" d="M48 42h3M47 43h6M47 44h7M46 45h9M46 46h10M45 47h11M44 48h7M52 48h3M41 49h1M45 49h5M39 50h2M45 50h4M54 50h2M34 51h3M38 51h1M46 51h2M54 51h2M34 52h3M41 52h2M55 52h1M34 53h2M40 53h4M40 54h3" />
<path stroke="#ded59c" d="M67 44h1M66 45h1M63 46h4M61 47h5M59 48h5M31 63h1M32 64h3M54 64h2M33 65h5M52 65h3M35 66h6M50 66h3M38 67h3" />
</svg>