<svg xmlns="http://www.w3.org/2000/svg" viewBox="0 -0.5 96 96" shape-rendering="crispEdges">
<metadata>Made with Pixels to Svg https://codepen.io/shshaw/pen/XbxvNj</metadata>
<path stroke="#b44a5a" d="M49 10h2M72 10h5M47 11h2M70 11h2M77 11h1M46 12h1M69 12h1M45 13h1M69 13h1M68 14h1M78 14h1M79 15h1M79 16h1M79 17h1M79 18h1M79 19h1M79 20h1M79 21h1M78 22h1M51 23h1M78 23h1M52 24h2M77 24h1M54 25h3M77 25h1M57 26h3M76 26h1M75 27h1M59 28h1M74 28h1M72 29h2M71 30h1M26 38h1M26 39h1M29 39h2M25 40h2M30 40h1M20 41h1M25 41h2M20 42h2M21 43h1M20 46h2M19 47h2M61 58h1M58 59h5M53 60h11M54 61h8M56 62h3M17 69h1M17 70h2M39 70h2M17 71h2M38 71h2M18 72h1M36 72h3M18 73h1M36 73h2M36 74h1" />
<path stroke="#de4131" d="M51 10h3M49 11h1M54 11h2M72 11h5M47 12h1M56 12h1M70 12h1M76 12h3M46 13h1M78 13h2M45 14h1M79 14h1M45 15h1M80 15h1M45 16h1M80 16h1M45 17h1M80 17h1M46 18h1M80 18h1M46 19h1M80 19h1M47 20h1M80 20h1M47 21h2M80 21h1M48 22h2M79 22h1M49 23h2M79 23h1M51 24h1M78 24h1M52 25h2M78 25h1M54 26h3M77 26h1M56 27h4M76 27h1M75 28h1M74 29h1M72 30h1M29 31h1M71 31h1M29 32h2M21 33h1M29 33h2M21 34h3M28 34h4M21 35h4M28 35h4M22 36h4M28 36h4M22 37h4M29 37h3M23 38h3M29 38h3M15 39h3M23 39h3M15 40h5M24 40h1M16 41h4M17 42h3M14 43h1M19 43h2M12 44h5M13 45h6M15 46h5M18 47h1M56 57h5M55 58h6M54 59h4M36 69h2M36 70h3M36 71h2" />
<path stroke="#524139" d="M50 11h4M78 11h1M48 12h2M54 12h2M71 12h5M79 12h1M47 13h1M56 13h1M70 13h1M76 13h2M80 13h1M44 14h1M46 14h1M69 14h1M80 14h1M44 15h1M46 15h1M68 15h1M81 15h1M44 16h1M46 16h1M81 16h1M44 17h1M46 17h1M81 17h1M45 18h1M47 18h1M81 18h1M45 19h1M47 19h1M81 19h1M46 20h1M48 20h1M81 20h1M46 21h1M49 21h1M81 21h1M47 22h1M50 22h1M80 22h1M29 23h1M48 23h1M80 23h1M28 24h1M49 24h2M79 24h1M28 25h1M51 25h1M79 25h1M16 26h2M27 26h1M52 26h2M78 26h1M18 27h2M27 27h1M54 27h2M77 27h1M20 28h1M27 28h1M56 28h3M76 28h1M21 29h2M27 29h1M58 29h1M75 29h1M23 30h1M26 30h1M73 30h2M24 31h1M26 31h1M72 31h1M9 33h4M64 33h1M9 34h1M13 34h3M9 35h1M10 36h1M18 36h1M10 37h1M72 38h1M72 39h1M72 40h1M12 41h1M9 42h3M71 42h1M7 43h2M70 43h1M25 46h1M51 47h1M51 48h1M58 48h3M65 48h1M50 49h1M53 49h5M63 49h4M49 50h1M65 50h4M29 51h1M50 51h3M66 51h4M29 52h1M51 52h3M65 52h4M29 53h1M52 53h3M64 53h4M23 54h2M29 54h1M54 54h3M62 54h4M21 55h2M28 55h1M42 55h2M55 55h10M20 56h3M41 56h4M54 56h10M19 57h1M22 57h2M41 57h5M53 57h3M61 57h2M18 58h2M22 58h3M42 58h7M52 58h3M62 58h2M18 59h1M22 59h2M42 59h12M63 59h2M17 60h1M22 60h2M43 60h2M48 60h5M64 60h2M17 61h1M21 61h2M43 61h2M50 61h1M62 61h2M17 62h1M21 62h2M36 62h1M43 62h2M59 62h1M16 63h2M21 63h2M27 63h2M35 63h2M43 63h1M16 64h2M21 64h1M35 64h2M42 64h1M16 65h2M20 65h2M35 65h2M16 66h2M20 66h2M31 66h1M35 66h3M41 66h1M16 67h2M20 67h2M29 67h2M35 67h5M16 68h3M20 68h3M24 68h1M34 68h6M18 69h8M30 69h1M34 69h2M38 69h1M19 70h3M24 70h2M28 70h2M34 70h2M19 71h2M25 71h4M33 71h3M19 72h1M25 72h3M31 72h4M19 73h1M26 73h2M29 73h4M19 74h1M26 74h6M19 75h1M26 75h3M20 76h1M25 76h2M33 76h1M21 77h1M24 77h2M31 77h1M23 78h3M29 78h1" />
<path stroke="#946a6a" d="M60 16h2M59 17h1M62 17h1M62 18h1M63 19h1M63 20h1M59 21h1M64 21h1M60 22h1M64 22h1M65 23h1M65 24h1M66 25h1M66 26h1M67 27h1M70 32h1M71 33h1M71 34h1M72 35h1M72 36h1M72 37h1M71 41h1M69 44h1M62 46h1M61 47h1M66 48h4M70 49h3M73 50h2M75 51h2M77 52h1M78 53h2M80 54h1M81 55h1M82 56h1M83 57h1M84 58h1M84 59h1M85 60h1M85 61h1M86 62h1M60 63h1M86 63h1M60 64h1M86 64h1M60 65h1M73 65h1M87 65h1M61 66h1M87 66h1M61 67h1M74 67h1M87 67h1M62 68h1M74 68h1M87 68h1M62 69h1M74 69h1M42 70h1M63 70h2M74 70h1M42 71h1M65 71h2M42 72h1M42 73h1M72 73h1M43 74h1M43 75h1M44 76h1M44 77h1M45 78h1M47 80h1M49 81h1M51 82h1M53 83h1M56 84h1M61 85h1M69 85h1" />
<path stroke="#ffdea4" d="M60 17h2M61 18h1M61 19h2M61 20h2M62 21h2M62 22h2M63 23h2M63 24h2M63 25h3M64 26h2M64 27h3M65 28h2M69 32h1M69 33h2M69 34h2M70 35h2M70 36h2M71 37h1M68 49h2M69 50h3M70 51h5M70 52h6M68 53h10M67 54h12M65 55h16M64 56h18M63 57h20M69 58h14M73 59h11M75 60h9M78 61h7M80 62h5M81 63h5M82 64h4M50 65h1M83 65h3M47 66h3M83 66h4M45 67h4M84 67h3M44 68h5M84 68h3M43 69h5M85 69h2M44 70h2M85 70h1M60 71h1M85 71h1M64 72h1M66 72h5M61 73h1M63 73h1M65 73h1M67 73h4M62 74h1M64 74h1M66 74h5M63 75h1M65 75h1M67 75h2" />
<path stroke="#101020" d="M59 18h1M59 19h1M59 20h1M60 23h1M30 24h1M60 24h1M30 25h1M60 25h1M15 26h1M31 26h1M60 26h1M15 27h1M31 27h1M60 27h1M15 28h1M31 28h1M60 28h1M16 29h1M32 29h1M16 30h1M32 30h1M16 31h1M32 31h1M17 32h1M25 32h2M32 32h1M17 33h1M26 33h1M32 33h1M68 33h1M18 34h1M26 34h1M33 34h1M57 34h1M68 34h1M16 35h3M26 35h1M33 35h1M57 35h1M63 35h1M19 36h1M26 36h1M33 36h1M57 36h1M63 36h1M67 36h1M19 37h1M26 37h1M33 37h1M56 37h1M63 37h1M67 37h1M11 38h1M20 38h1M27 38h1M33 38h1M56 38h1M67 38h1M11 39h1M21 39h1M27 39h1M33 39h1M56 39h1M62 39h1M67 39h1M12 40h1M21 40h1M27 40h1M33 40h1M55 40h1M62 40h1M67 40h1M13 41h1M22 41h1M28 41h1M33 41h1M55 41h1M62 41h1M14 42h1M23 42h1M28 42h1M32 42h1M54 42h1M62 42h1M68 42h1M15 43h2M24 43h1M29 43h1M32 43h1M54 43h1M62 43h1M68 43h1M7 44h1M17 44h2M25 44h2M29 44h1M32 44h1M53 44h1M62 44h1M68 44h1M8 45h1M19 45h3M27 45h1M31 45h1M53 45h1M63 45h1M9 46h2M22 46h3M31 46h1M52 46h1M63 46h1M11 47h2M30 47h1M13 48h3M23 48h4M30 48h1M61 48h4M16 49h7M27 49h1M31 49h1M28 50h1M31 50h1M50 50h3M28 51h1M31 51h1M47 51h3M27 52h1M31 52h1M45 52h3M25 53h2M30 53h1M44 53h2M30 54h1M42 54h2M29 55h1M41 55h1M28 56h1M40 56h1M26 57h2M39 57h1M25 58h1M38 58h1M24 59h1M37 59h1M24 60h1M36 60h2M23 61h1M35 61h2M51 61h3M64 61h3M23 62h1M35 62h1M53 62h3M60 62h4M67 62h3M23 63h1M34 63h1M44 63h1M53 63h7M70 63h2M23 64h1M33 64h2M43 64h2M50 64h3M72 64h1M23 65h1M33 65h1M42 65h2M47 65h3M72 65h1M23 66h1M32 66h1M42 66h2M45 66h2M73 66h1M24 67h1M31 67h1M41 67h4M73 67h1M25 68h1M30 68h1M40 68h4M73 68h1M16 69h1M26 69h4M39 69h4M72 69h1M87 69h1M16 70h1M41 70h1M70 70h2M87 70h1M16 71h1M40 71h1M67 71h3M73 71h1M87 71h1M17 72h1M35 72h1M39 72h1M73 72h1M87 72h1M17 73h1M33 73h3M38 73h1M86 73h1M18 74h1M34 74h2M37 74h1M86 74h1M18 75h1M34 75h3M86 75h1M19 76h1M34 76h2M85 76h1M20 77h1M32 77h2M85 77h1M21 78h2M30 78h2M84 78h1M23 79h7M46 79h1M82 79h2M48 80h1M81 80h1M50 81h1M79 81h2M52 82h1M77 82h2M54 83h2M74 83h3M57 84h4M70 84h4M62 85h7" />
<path stroke="#d5ac7b" d="M60 18h1M60 19h1M60 20h1M60 21h2M61 22h1M61 23h2M61 24h2M61 25h2M61 26h3M61 27h3M61 28h4M60 29h6M60 30h5M59 31h6M59 32h5M59 33h5M58 34h5M58 35h5M68 35h2M58 36h5M68 36h2M57 37h6M68 37h3M57 38h5M68 38h4M57 39h5M68 39h4M56 40h6M68 40h4M56 41h6M69 41h2M55 42h7M69 42h2M55 43h7M69 43h1M54 44h8M54 45h9M53 46h9M52 47h9M52 48h6M51 49h2M67 49h1M72 50h1M69 52h1M76 52h1M66 54h1M79 54h1M64 58h5M83 58h1M65 59h8M66 60h9M84 60h1M67 61h11M70 62h10M85 62h1M72 63h9M53 64h7M73 64h9M51 65h9M74 65h9M86 65h1M50 66h11M74 66h9M49 67h12M75 67h9M49 68h13M75 68h9M48 69h14M73 69h1M75 69h10M43 70h1M46 70h17M72 70h2M75 70h10M86 70h1M43 71h17M61 71h4M70 71h3M74 71h11M86 71h1M43 72h21M65 72h1M71 72h2M74 72h13M43 73h18M62 73h1M64 73h1M66 73h1M71 73h1M73 73h13M44 74h18M63 74h1M65 74h1M71 74h15M44 75h19M64 75h1M66 75h1M69 75h17M45 76h40M45 77h40M46 78h38M47 79h35M49 80h32M51 81h28M53 82h24M56 83h18M61 84h9" />
<path stroke="#eebd00" d="M29 24h1M29 25h1M28 26h3M16 27h2M28 27h3M16 28h4M28 28h3M17 29h4M28 29h4M17 30h6M27 30h5M17 31h7M27 31h2M30 31h2M18 32h7M27 32h2M31 32h1M18 33h3M22 33h4M27 33h2M31 33h1M10 34h3M19 34h2M24 34h2M27 34h1M32 34h1M10 35h6M19 35h2M25 35h1M27 35h1M32 35h1M11 36h7M20 36h2M27 36h1M32 36h1M11 37h8M20 37h2M27 37h2M32 37h1M12 38h8M21 38h2M28 38h1M12 39h3M18 39h2M22 39h1M28 39h1M13 40h2M23 40h1M14 41h2M12 42h2M15 42h2M9 43h5M17 43h2M8 44h4M19 44h1M9 45h4M11 46h4M13 47h5M16 48h3M58 49h5M53 50h12M53 51h13M48 52h3M54 52h11M27 53h2M46 53h6M55 53h9M25 54h3M44 54h10M57 54h5M23 55h5M44 55h11M23 56h4M45 56h9M21 57h1M24 57h1M40 57h1M46 57h7M20 58h2M39 58h3M49 58h3M19 59h3M38 59h4M19 60h3M38 60h5M45 60h3M19 61h2M37 61h6M45 61h5M18 62h3M37 62h6M45 62h2M18 63h3M37 63h6M18 64h3M37 64h5M18 65h2M34 65h1M37 65h5M18 66h2M22 66h1M33 66h2M38 66h3M19 67h1M22 67h1M32 67h3M40 67h1M23 68h1M31 68h3M31 69h3M22 70h2M30 70h3M21 71h4M29 71h4M20 72h5M28 72h3M20 73h6M21 74h5M22 75h4" />
<path stroke="#415a8b" d="M67 28h2M59 29h1M66 29h1M69 29h1M57 30h1M59 30h1M65 30h1M70 30h1M56 31h1M58 31h1M65 31h1M69 31h2M56 32h1M58 32h1M64 32h1M68 32h1M55 33h1M58 33h1M55 34h1M63 34h1M55 35h1M67 35h1M54 36h1M54 37h1M53 38h1M62 38h1M53 39h1M52 40h2M52 41h1M67 41h2M51 42h1M50 43h1M50 44h1M49 45h1M68 45h1M48 46h1M69 46h1M47 47h1M63 47h1M69 47h1M46 48h1M46 49h1M45 50h1M44 51h1M43 52h1M42 53h1M41 54h1M40 55h1M39 56h1M37 57h2M35 58h2M33 59h2M31 60h2M28 61h3M27 62h1M66 62h1M29 63h2M66 63h1M29 64h1M67 64h1M28 65h1M67 65h1M27 66h1M68 66h1M27 67h2M68 67h1M69 68h1M70 69h2" />
<path stroke="#b4c5ff" d="M67 29h2M58 30h1M66 30h3M57 31h1M66 31h2M57 32h1M67 32h1M56 33h2M56 34h1M56 35h1M55 36h1M55 37h1M55 38h1M54 39h2M54 40h1" />
<path stroke="#839ccd" d="M69 30h1M68 31h1M65 32h2M71 32h1M65 33h3M64 34h4M64 35h3M56 36h1M64 36h3M64 37h3M54 38h1M63 38h4M63 39h4M63 40h4M53 41h2M63 41h4M52 42h2M63 42h5M51 43h3M63 43h5M51 44h2M63 44h5M50 45h3M64 45h4M49 46h3M64 46h5M48 47h3M64 47h5M47 48h4M47 49h3M46 50h3M45 51h2M44 52h1M43 53h1M37 58h1M35 59h2M33 60h3M31 61h4M28 62h7M31 63h3M67 63h3M30 64h3M68 64h4M29 65h4M68 65h4M28 66h3M69 66h4M69 67h4M70 68h3" />
<path stroke="#c58300" d="M32 38h1M20 39h1M31 39h2M20 40h1M22 40h1M28 40h2M31 40h2M21 41h1M23 41h2M27 41h1M29 41h4M22 42h1M24 42h4M29 42h3M22 43h2M25 43h4M30 43h2M20 44h5M27 44h2M30 44h2M22 45h5M28 45h3M26 46h5M21 47h9M19 48h4M27 48h3M28 49h3M29 50h2M30 51h1M28 52h1M30 52h1M28 54h1M27 56h1M20 57h1M25 57h1M18 60h1M18 61h1M47 62h6M45 63h8M22 64h1M45 64h5M22 65h1M44 65h3M44 66h1M18 67h1M23 67h1M19 68h1M26 70h2M33 70h1M28 73h1M20 74h1M32 74h2M20 75h2M29 75h5M21 76h4M27 76h6M22 77h2M26 77h5M26 78h3" />
</svg>