<svg xmlns="http://www.w3.org/2000/svg" viewBox="0 -0.5 80 80" shape-rendering="crispEdges">
<metadata>Made with Pixels to Svg https://codepen.io/shshaw/pen/XbxvNj</metadata>
<path stroke="#b44a18" d="M18 25h7M25 26h4M29 27h3M32 28h2M34 29h2M36 30h1M20 31h1M37 31h1M38 32h1M39 33h1M40 34h1M41 35h1M26 37h1M42 37h1M29 39h1M43 39h1M33 41h1M44 41h1M36 42h1" />
<path stroke="#101010" d="M17 26h1M17 27h1M18 28h1M18 29h1M19 30h1M19 31h1M20 32h1M21 33h1M22 34h1M23 35h1M24 36h1M25 37h1M26 38h2M28 39h1M29 40h2M31 41h2M33 42h3M36 43h3M56 52h1M57 54h1M57 55h1M15 59h1M15 60h1M66 60h1M15 61h1M66 61h1M14 62h1M14 63h1M67 63h1M14 64h1M67 64h1M13 65h1M67 65h1M13 66h1M66 66h2M13 67h1M67 67h1M13 68h1M68 68h1M13 69h1M61 69h1M68 69h1M13 70h1M61 70h1M69 70h1M13 71h1M53 71h1M62 71h1M69 71h1" />
<path stroke="#f67b29" d="M18 26h7M23 27h6M26 28h6M28 29h6M31 30h5M33 31h4M35 32h3M37 33h2M38 34h2M39 35h2M40 36h1M40 37h2M41 38h2M42 39h1M43 40h1M43 41h1M44 42h1M44 43h1" />
<path stroke="#d55a08" d="M18 27h5M19 28h7M19 29h9M20 30h11M21 31h12M21 32h14M22 33h15M23 34h15M24 35h15M25 36h15M41 36h1M27 37h13M28 38h13M30 39h12M31 40h12M34 41h9M37 42h7M39 43h5" />
<path stroke="#6a6a6a" d="M43 38h1M44 40h1M45 42h1M45 43h1" />
<path stroke="#315a9c" d="M37 44h10M33 45h4M47 45h4M30 46h3M51 46h2M28 47h2M53 47h2M26 48h2M55 48h2M24 49h2M57 49h1M23 50h1M58 50h1M61 50h4M22 51h1M59 51h2M65 51h2M21 52h1M60 52h1M66 52h1M20 53h1M56 53h2M61 53h1M19 54h1M18 55h1M17 56h1M16 57h2M64 57h1M16 58h1M65 58h1M68 58h1M65 59h1M69 59h1M15 62h1M20 62h1M33 62h1M66 62h2M14 65h1M64 65h1M17 66h1M65 66h1M60 68h1M60 69h1M53 70h1M61 71h1" />
<path stroke="#8bbdff" d="M37 45h10M36 46h15M37 47h16M38 48h17M39 49h18M40 50h18M42 51h14M57 51h2M61 51h3M44 52h12M58 52h2M61 52h5M47 53h9M58 53h3M62 53h4M51 54h4M58 54h3M63 54h2M58 55h2M64 66h1M63 67h3M63 68h4M64 69h2" />
<path stroke="#5273c5" d="M33 46h3M30 47h7M28 48h10M26 49h13M24 50h16M23 51h18M22 52h21M21 53h25M20 54h30M61 54h2M66 54h1M19 55h38M61 55h6M18 56h39M58 56h9M18 57h7M29 57h35M65 57h2M17 58h7M30 58h35M66 58h2M16 59h7M31 59h34M66 59h3M16 60h6M32 60h34M67 60h2M16 61h5M33 61h33M67 61h2M16 62h4M34 62h32M68 62h1M15 63h5M34 63h33M68 63h1M15 64h4M35 64h32M15 65h3M36 65h28M65 65h2M14 66h3M36 66h28M14 67h3M37 67h26M66 67h1M14 68h2M38 68h22M61 68h2M67 68h1M14 69h2M38 69h22M62 69h2M66 69h2M14 70h3M37 70h16M54 70h7M62 70h7M14 71h4M36 71h17M54 71h7M63 71h6" />
<path stroke="#739cee" d="M41 51h1M64 51h1M43 52h1M57 52h1M46 53h1M66 53h1M50 54h1M55 54h2M65 54h1M60 55h1" />
<path stroke="#414141" d="M56 51h1M67 53h1M67 54h1M67 55h1M57 56h1M67 56h1M25 57h4M67 57h1M24 58h6M23 59h8M22 60h10M69 60h1M21 61h12M69 61h1M21 62h12M69 62h1M20 63h14M69 63h1M19 64h16M68 64h1M18 65h18M18 66h18M17 67h20M16 68h22M16 69h22M17 70h20M18 71h18" />
</svg>