<svg xmlns="http://www.w3.org/2000/svg" viewBox="0 -0.5 80 80" shape-rendering="crispEdges">
<metadata>Made with Pixels to Svg https://codepen.io/shshaw/pen/XbxvNj</metadata>
<path stroke="#6a5241" d="M20 15h3M45 15h3M19 16h1M24 16h1M44 16h1M49 16h1M18 17h1M25 17h2M51 17h1M27 18h1M52 18h1M28 19h1M53 19h1M29 20h1M54 20h1M19 21h1M30 21h1M55 21h1M31 22h1M56 23h1M56 24h1M20 25h1M57 25h1M57 26h1M58 27h1M58 28h1M59 29h1M61 29h1M22 30h1M59 30h1M63 30h1M65 31h1M23 32h1M66 32h1M43 33h2M67 33h1M41 34h2M54 34h1M68 34h1M40 35h1M44 35h1M50 35h1M69 35h1M70 36h1M71 37h1M60 38h1M72 38h1M61 40h1M73 40h1M4 41h3M3 42h1M8 42h2M29 42h1M10 43h2M28 43h1M62 43h1M68 43h4M12 44h2M27 44h1M73 44h2M14 45h2M26 45h1M17 46h1M26 46h1M63 46h1M18 47h1M25 47h1M75 47h1M20 48h1M24 48h1M21 49h1M24 49h1M76 49h1M22 50h2M74 50h2M23 51h2M73 51h1M72 52h1M72 53h1M71 54h1M76 54h1M71 55h1M75 56h1M70 59h1M69 61h1M60 63h1M68 63h1M61 64h1" />
<path stroke="#f6deb4" d="M20 16h3M45 16h3M19 17h6M47 17h3M19 18h1M23 18h3M49 18h3M25 19h3M50 19h3M27 20h2M51 20h3M28 21h2M52 21h3M30 22h1M53 22h2M31 23h1M54 23h2M55 24h1M55 25h2M56 26h1M56 27h2M57 28h1M58 29h1M58 30h1M60 30h2M61 31h3M62 32h4M62 33h5M62 34h6M41 35h3M63 35h6M40 36h5M64 36h3M68 36h1M41 37h2M70 37h1M70 38h2M71 39h1M72 40h1M73 42h1M73 43h1" />
<path stroke="#b4946a" d="M23 16h1M48 16h1M50 17h1M26 18h1M55 22h1M31 29h1M60 29h1M62 30h1M64 31h1M33 32h1M35 32h1M29 35h1M35 36h1M28 37h1M33 37h2M68 37h2M72 39h1M73 41h1M72 44h1M71 50h1M74 51h1M74 58h1" />
<path stroke="#101010" d="M44 17h1M18 18h1M44 18h1M18 19h1M44 19h1M18 20h1M44 20h1M18 21h1M45 21h1M19 22h1M45 22h1M19 23h1M45 23h1M19 24h1M45 24h1M19 25h1M46 25h1M20 26h1M46 26h1M20 27h1M46 27h1M20 28h2M46 28h1M21 29h1M47 29h1M21 30h1M47 30h1M22 31h1M47 31h1M22 32h1M23 33h1M23 34h2M55 34h2M24 35h2M51 35h3M57 35h1M25 36h2M45 36h5M58 36h1M26 37h2M59 37h1M27 38h2M28 39h2M60 39h1M29 40h2M30 41h2M61 41h1M31 42h2M61 42h1M74 42h1M3 43h1M32 43h2M74 43h1M3 44h1M62 44h1M3 45h1M62 45h1M75 45h1M4 46h1M75 46h1M4 47h1M63 47h1M5 48h1M63 48h1M76 48h1M5 49h1M63 49h1M5 50h2M77 50h1M6 51h1M77 51h1M6 52h1M77 52h1M5 53h1M77 53h1M5 54h1M77 54h1M5 55h1M76 55h1M4 56h1M56 56h1M71 56h1M76 56h1M4 57h1M56 57h1M71 57h1M75 57h1M3 58h1M56 58h2M71 58h1M75 58h1M2 59h1M57 59h1M71 59h1M74 59h2M2 60h1M57 60h2M70 60h1M74 60h1M2 61h2M58 61h1M70 61h1M73 61h2M3 62h2M58 62h2M69 62h1M72 62h2M4 63h1M59 63h1M69 63h1M71 63h2M5 64h1M60 64h1M68 64h1M70 64h2" />
<path stroke="#cdb48b" d="M45 17h2M20 18h3M45 18h4M22 19h3M45 19h5M19 20h3M24 20h3M46 20h5M20 21h4M26 21h2M46 21h6M20 22h5M27 22h3M46 22h7M20 23h7M28 23h3M46 23h8M20 24h8M29 24h3M47 24h8M21 25h8M30 25h1M47 25h8M21 26h10M47 26h9M24 27h7M47 27h9M22 28h1M25 28h6M48 28h9M22 29h3M26 29h5M48 29h10M23 30h3M27 30h6M48 30h10M23 31h4M28 31h5M48 31h12M24 32h9M48 32h14M24 33h12M47 33h15M25 34h11M45 34h9M57 34h5M26 35h3M31 35h5M45 35h5M58 35h5M27 36h2M32 36h3M59 36h5M67 36h1M43 37h4M60 37h8M41 38h7M61 38h7M69 38h1M42 39h7M50 39h2M61 39h7M69 39h2M42 40h11M62 40h10M42 41h12M62 41h11M41 42h13M62 42h11M41 43h13M63 43h5M41 44h7M50 44h3M63 44h9M41 45h7M63 45h12M42 46h5M64 46h11M64 47h11M64 48h12M64 49h12M64 50h7M72 50h2M76 50h1M63 51h8M72 51h1M75 51h2M61 52h10M73 52h4M59 53h12M73 53h4M57 54h14M72 54h4M35 55h2M57 55h14M72 55h4M33 56h5M49 56h3M57 56h14M72 56h3M24 57h4M32 57h6M44 57h3M49 57h4M57 57h14M72 57h3M23 58h6M31 58h8M42 58h11M58 58h13M72 58h2M8 59h3M22 59h17M42 59h12M58 59h12M72 59h2M7 60h5M22 60h16M41 60h13M59 60h11M71 60h3M6 61h6M22 61h15M41 61h12M60 61h9M71 61h2M6 62h8M22 62h14M40 62h12M60 62h9M70 62h2M7 63h8M23 63h13M39 63h13M61 63h7M70 63h1M7 64h8M23 64h29M62 64h5M69 64h1" />
<path stroke="#8b734a" d="M19 19h3M22 20h2M45 20h1M24 21h2M25 22h2M27 23h1M28 24h1M46 24h1M29 25h1M21 27h3M23 28h2M47 28h1M25 29h1M26 30h1M27 31h1M60 31h1M47 32h1M45 33h2M44 34h1M69 36h1M68 38h1M68 39h1M72 43h1M55 44h1M56 49h1M71 51h1M71 52h1M71 53h1M59 61h1M67 64h1" />
<path stroke="#106a5a" d="M32 23h1M33 24h1M33 25h1M34 26h1M35 27h1M35 28h1M36 29h1M37 30h1M37 31h1M38 32h1M38 33h1M39 34h1M39 35h1M39 36h1M40 37h1M40 38h1M40 39h1M4 45h1M5 47h1M6 53h1M56 55h1M5 56h1M5 63h1" />
<path stroke="#399483" d="M32 24h1M31 25h2M31 26h3M31 27h4M31 28h4M32 29h4M33 30h4M33 31h4M34 32h1M36 32h2M36 33h2M36 34h3M30 35h1M36 35h3M54 35h3M29 36h3M36 36h3M50 36h8M29 37h4M35 37h5M47 37h12M29 38h11M48 38h12M30 39h10M49 39h1M53 39h7M31 40h11M54 40h7M32 41h10M54 41h7M33 42h8M54 42h7M34 43h7M54 43h8M4 44h2M33 44h8M48 44h2M53 44h2M59 44h3M5 45h4M32 45h9M48 45h7M59 45h3M5 46h7M30 46h12M47 46h8M60 46h3M6 47h8M29 47h26M60 47h3M6 48h10M28 48h28M60 48h3M6 49h11M27 49h29M59 49h4M7 50h13M26 50h36M7 51h15M25 51h36M7 52h52M7 53h50M6 54h50M6 55h28M37 55h19M6 56h27M38 56h11M52 56h4M5 57h18M28 57h3M39 57h4M47 57h1M53 57h3M4 58h5M11 58h11M29 58h2M39 58h3M54 58h2M3 59h5M12 59h10M39 59h2M54 59h3M3 60h4M12 60h10M38 60h3M54 60h3M4 61h2M12 61h10M37 61h4M53 61h5M5 62h1M15 62h7M37 62h3M52 62h6M15 63h7M36 63h2M52 63h7M6 64h1M15 64h8M53 64h7" />
<path stroke="#a4eef6" d="M43 34h1" />
<path stroke="#5ab4a4" d="M41 39h1M52 39h1M53 40h1M7 42h1M6 44h1M9 45h1M27 45h1M31 45h1M16 46h1M19 48h1M25 48h1M17 49h1M34 55h1M23 57h1M31 57h1M38 57h1M43 57h1M48 57h1M9 58h2M22 58h1M53 58h1M11 59h1M41 59h1M14 62h1M36 62h1M6 63h1M22 63h1M38 63h1M52 64h1" />
<path stroke="#7bcdd5" d="M4 42h3M30 42h1M4 43h6M29 43h3M7 44h5M28 44h5M10 45h4M28 45h3M12 46h4M27 46h3M14 47h4M26 47h3M16 48h3M26 48h2M18 49h3M25 49h2M20 50h2M24 50h2M22 51h1" />
<path stroke="#cd4131" d="M56 44h3M55 45h4M55 46h5M55 47h5M56 48h4M57 49h2" />
<path stroke="#524139" d="M62 50h2M61 51h2M59 52h2M57 53h2M56 54h1" />
</svg>