<svg xmlns="http://www.w3.org/2000/svg" viewBox="0 -0.5 80 80" shape-rendering="crispEdges">
<metadata>Made with Pixels to Svg https://codepen.io/shshaw/pen/XbxvNj</metadata>
<path stroke="#394a52" d="M67 9h2M65 10h2M63 11h2M48 17h4M68 17h1M37 20h2M67 20h1M67 31h1M67 32h1M26 33h2M68 33h1M28 34h2M68 34h1M29 35h2M69 35h1M30 36h1M69 36h1M30 37h2M31 38h1M31 39h1M14 40h2M31 40h1M12 41h2M31 41h1M11 42h1M31 42h1M31 43h1M10 44h1M9 45h1M9 46h1M29 46h1M8 47h1M8 48h1M8 49h1M8 50h1M8 51h1M9 54h1M10 56h1M11 59h1M14 59h1M14 60h1M14 61h1" />
<path stroke="#73c5cd" d="M67 10h2M65 11h4M63 12h6M61 13h8M59 14h10M57 15h12M55 16h14M53 17h15M52 18h16M54 19h14M55 20h12M55 21h12M54 22h13M34 23h1M52 23h14M33 24h3M51 24h15M31 25h7M46 25h20M30 26h35M29 27h36M29 28h36M28 29h37M27 30h38M27 31h32M61 31h3M26 32h32M62 32h2M28 33h30M63 33h2M25 34h3M30 34h27M26 35h3M31 35h26M26 36h4M31 36h25M67 36h1M25 37h5M32 37h23M68 37h1M20 38h1M25 38h6M32 38h21M57 38h1M69 38h1M20 39h1M23 39h8M32 39h19M57 39h1M16 40h1M19 40h12M32 40h15M56 40h3M66 40h1M70 40h1M14 41h2M19 41h12M32 41h13M55 41h5M65 41h3M12 42h4M19 42h12M32 42h11M56 42h11M11 43h4M18 43h13M32 43h10M49 43h3M56 43h1M61 43h3M11 44h4M18 44h12M31 44h10M47 44h3M57 44h1M10 45h5M18 45h12M31 45h9M46 45h3M57 45h3M67 45h2M10 46h4M18 46h11M30 46h10M45 46h3M55 46h1M57 46h4M64 46h4M9 47h5M18 47h11M30 47h9M45 47h3M56 47h1M58 47h9M9 48h5M17 48h1M19 48h9M29 48h10M44 48h4M58 48h8M9 49h5M17 49h1M19 49h8M28 49h10M44 49h5M57 49h1M59 49h4M9 50h5M17 50h2M20 50h5M27 50h11M43 50h6M57 50h1M59 50h2M9 51h5M17 51h3M25 51h13M43 51h7M57 51h1M9 52h5M16 52h22M43 52h8M57 52h2M10 53h3M16 53h22M43 53h10M56 53h3M16 54h22M43 54h16M16 55h22M43 55h16M16 56h22M44 56h15M16 57h22M44 57h15M16 58h23M45 58h14M15 59h24M45 59h14M15 60h24M46 60h13M15 61h25M47 61h12M15 62h25M48 62h11M14 63h27M49 63h9M14 64h27M50 64h7M14 65h26M51 65h4M14 66h26M13 67h26M13 68h26M13 69h26M12 70h26M12 71h26" />
<path stroke="#101010" d="M69 10h1M69 11h1M61 12h2M69 12h1M59 13h2M69 13h1M57 14h2M69 14h1M55 15h2M69 15h1M52 16h3M69 16h1M69 17h1M68 18h1M68 19h1M68 20h1M35 21h2M67 21h1M34 22h1M67 22h1M32 23h2M66 23h2M31 24h1M66 24h1M30 25h1M66 25h1M29 26h1M65 26h2M28 27h1M65 27h1M27 28h1M65 28h1M27 29h1M65 29h2M26 30h1M66 30h1M26 31h1M25 32h1M24 33h2M60 33h1M23 34h2M61 34h1M22 35h1M62 35h2M21 36h1M63 36h3M20 37h1M63 37h1M70 37h1M19 38h1M65 38h1M70 38h1M16 39h4M70 39h1M18 40h1M71 40h1M18 41h1M71 41h1M18 42h1M48 42h4M71 42h1M10 43h1M17 43h1M47 43h2M52 43h2M71 43h1M9 44h1M17 44h1M30 44h1M46 44h1M54 44h1M71 44h1M17 45h1M30 45h1M45 45h1M55 45h1M69 45h2M17 46h1M44 46h1M56 46h1M68 46h1M17 47h1M29 47h1M43 47h2M57 47h1M67 47h1M16 48h1M18 48h1M28 48h1M43 48h1M57 48h1M66 48h1M16 49h1M18 49h1M27 49h1M43 49h1M58 49h1M65 49h1M16 50h1M19 50h1M25 50h2M42 50h1M58 50h1M16 51h1M20 51h5M42 51h1M58 51h1M66 51h1M8 52h1M42 52h1M59 52h1M66 52h1M8 53h1M42 53h1M59 53h1M67 53h1M8 54h1M15 54h1M42 54h1M59 54h1M67 54h1M9 55h1M15 55h1M42 55h1M59 55h1M67 55h1M9 56h1M15 56h1M43 56h1M59 56h1M67 56h1M10 57h1M15 57h1M43 57h1M67 57h1M10 58h1M15 58h1M44 58h1M67 58h1M10 59h1M44 59h1M66 59h1M11 60h1M45 60h1M66 60h1M11 61h1M46 61h1M59 61h1M65 61h2M11 62h1M14 62h1M47 62h1M59 62h1M65 62h1M13 63h1M48 63h1M59 63h1M64 63h2M13 64h1M47 64h3M59 64h2M63 64h2M13 65h1M45 65h3M50 65h1M60 65h1M63 65h1M12 66h2M44 66h2M51 66h1M60 66h1M62 66h1M12 67h1M43 67h2M51 67h2M60 67h2M12 68h1M42 68h1M45 68h3M52 68h1M61 68h1M12 69h1M41 69h2M48 69h6M61 69h2M11 70h1M41 70h1M53 70h2M61 70h2M11 71h1M40 71h1M54 71h1M62 71h2" />
<path stroke="#527b83" d="M52 17h1M43 18h5M40 19h3M39 20h1M32 24h1M28 28h1M57 34h1M53 38h1M51 39h1M56 39h1M58 39h1M47 40h1M45 41h1M60 41h1M64 41h1M43 42h1M40 45h1M39 47h1M38 49h1M9 53h1M13 53h1M10 54h4M10 55h5M11 56h4M11 57h4M38 57h1M11 58h4M12 59h2M12 60h2M39 60h1M12 61h2M12 62h2M40 62h1M12 63h1M58 63h1M12 64h1M57 64h2M12 65h1M55 65h5M52 66h8M53 67h7M53 68h8M54 69h7M55 70h6M55 71h7" />
<path stroke="#9ce6e6" d="M48 18h4M43 19h11M40 20h15M37 21h18M35 22h19M35 23h17M36 24h15M38 25h8M65 30h1M64 31h3M64 32h3M65 33h3M66 34h2M23 35h3M67 35h2M22 36h4M68 36h1M21 37h4M69 37h1M21 38h4M21 39h2M50 44h4M49 45h6M48 46h7M48 47h8M48 48h9M49 49h8M49 50h8M50 51h7M51 52h6M53 53h3" />
<path stroke="#313141" d="M59 31h2M58 32h4M58 33h2M61 33h2M58 34h2M62 34h4M57 35h3M64 35h3M56 36h4M66 36h1M55 37h5M66 37h2M54 38h3M58 38h2M66 38h3M52 39h4M59 39h2M65 39h5M17 40h1M48 40h8M59 40h7M67 40h3M16 41h2M46 41h9M61 41h3M68 41h3M16 42h2M44 42h4M52 42h4M69 42h2M15 43h2M42 43h5M54 43h2M57 43h1M15 44h2M41 44h5M55 44h2M58 44h2M67 44h2M15 45h2M41 45h4M56 45h1M60 45h1M65 45h2M14 46h3M40 46h4M61 46h3M14 47h3M40 47h3M14 48h2M39 48h4M14 49h2M39 49h4M14 50h2M38 50h4M14 51h2M38 51h4M14 52h2M38 52h4M14 53h2M38 53h4M14 54h1M38 54h4M38 55h4M38 56h5M39 57h4M59 57h1M39 58h5M59 58h1M39 59h5M59 59h1M40 60h5M59 60h1M40 61h6M41 62h6M41 63h7M41 64h6M40 65h5M40 66h4M39 67h4M39 68h3M39 69h2M38 70h3M38 71h2" />
<path stroke="#ffd518" d="M60 34h1M60 35h2M60 36h3M60 37h3M64 37h1M61 38h4M62 39h2" />
<path stroke="#b48b18" d="M65 37h1M60 38h1M61 39h1M64 39h1" />
<path stroke="#f66aac" d="M67 42h2M58 43h3M64 43h7M60 44h7M69 44h2M61 45h4M62 50h3M61 51h3M65 51h1M60 52h3M61 53h2M66 53h1M60 54h1M62 54h2M65 54h2M61 55h1M63 55h4M60 56h1M62 56h5M61 57h1M63 57h4M64 58h3" />
<path stroke="#ac417b" d="M63 49h2M61 50h1M65 50h1M59 51h2M60 53h1M61 54h1M60 55h1M62 55h1M61 56h1M60 57h1M62 57h1M60 58h4M60 59h6M60 60h6M60 61h5M60 62h5M60 63h4M61 64h2M48 65h2M61 65h2M46 66h5M61 66h1M45 67h6M48 68h4" />
<path stroke="#ffa4de" d="M64 51h1M63 52h3M63 53h3M64 54h1" />
</svg>